0, 0, Header, 0, 1, 480
1, 0, Start_track
1, 0, Title_t, "Klaviersonate Nr. 12 KV 332 No. 3"
1, 0, Copyright_t, "Copyright © 2006 von Bernd Krüger. "
1, 0, Text_t, "Amadeus Mozart"
1, 0, Text_t, "Herausgegeben am 1.6.2006\012"
1, 0, Text_t, "Update am 29.7.13\012"
1, 0, Text_t, "Dauer: 9:50 Minuten\012"
1, 0, Time_signature, 6, 3, 12, 8
1, 0, Key_signature, -1, "major"
1, 0, Tempo, 385282
1, 0, Marker_t, "Part 1"
1, 0, Program_c, 0, 0
1, 0, Control_c, 0, 7, 100
1, 0, Control_c, 0, 10, 64
1, 0, Text_t, "bdca426d104a26ac9dcb070447587523"
1, 0, Control_c, 0, 91, 127
1, 0, Program_c, 0, 0
1, 0, Control_c, 0, 7, 100
1, 0, Control_c, 0, 10, 64
1, 0, Note_on_c, 0, 53, 70
1, 0, Note_on_c, 0, 45, 59
1, 0, Note_on_c, 0, 48, 59
1, 0, Note_on_c, 0, 41, 59
1, 0, Program_c, 0, 0
1, 120, Note_on_c, 0, 84, 66
1, 240, Note_on_c, 0, 83, 68
1, 252, Note_on_c, 0, 84, 0
1, 360, Note_on_c, 0, 84, 69
1, 372, Note_on_c, 0, 83, 0
1, 480, Note_on_c, 0, 41, 0
1, 480, Note_on_c, 0, 48, 0
1, 480, Note_on_c, 0, 53, 0
1, 480, Note_on_c, 0, 45, 0
1, 480, Note_on_c, 0, 89, 70
1, 492, Note_on_c, 0, 84, 0
1, 600, Tempo, 398063
1, 600, Note_on_c, 0, 84, 63
1, 612, Note_on_c, 0, 89, 0
1, 720, Tempo, 382824
1, 720, Note_on_c, 0, 82, 70
1, 732, Note_on_c, 0, 84, 0
1, 840, Note_on_c, 0, 81, 66
1, 852, Note_on_c, 0, 82, 0
1, 960, Note_on_c, 0, 80, 64
1, 972, Note_on_c, 0, 81, 0
1, 1080, Note_on_c, 0, 81, 64
1, 1092, Note_on_c, 0, 80, 0
1, 1200, Note_on_c, 0, 84, 70
1, 1212, Note_on_c, 0, 81, 0
1, 1320, Tempo, 395439
1, 1320, Note_on_c, 0, 81, 64
1, 1332, Note_on_c, 0, 84, 0
1, 1440, Tempo, 380397
1, 1440, Note_on_c, 0, 79, 70
1, 1452, Note_on_c, 0, 81, 0
1, 1560, Note_on_c, 0, 77, 64
1, 1572, Note_on_c, 0, 79, 0
1, 1680, Note_on_c, 0, 76, 64
1, 1692, Note_on_c, 0, 77, 0
1, 1800, Note_on_c, 0, 77, 64
1, 1812, Note_on_c, 0, 76, 0
1, 1920, Note_on_c, 0, 81, 70
1, 1932, Note_on_c, 0, 77, 0
1, 2040, Tempo, 395439
1, 2040, Note_on_c, 0, 77, 65
1, 2052, Note_on_c, 0, 81, 0
1, 2160, Tempo, 382824
1, 2160, Note_on_c, 0, 74, 70
1, 2172, Note_on_c, 0, 77, 0
1, 2280, Note_on_c, 0, 72, 65
1, 2292, Note_on_c, 0, 74, 0
1, 2400, Note_on_c, 0, 71, 65
1, 2412, Note_on_c, 0, 72, 0
1, 2520, Note_on_c, 0, 72, 65
1, 2532, Note_on_c, 0, 71, 0
1, 2640, Note_on_c, 0, 77, 70
1, 2652, Note_on_c, 0, 72, 0
1, 2760, Tempo, 403416
1, 2760, Note_on_c, 0, 72, 65
1, 2772, Note_on_c, 0, 77, 0
1, 2880, Tempo, 380397
1, 2880, Note_on_c, 0, 70, 70
1, 2892, Note_on_c, 0, 72, 0
1, 3000, Note_on_c, 0, 69, 66
1, 3012, Note_on_c, 0, 70, 0
1, 3120, Tempo, 395439
1, 3120, Note_on_c, 0, 68, 66
1, 3132, Note_on_c, 0, 69, 0
1, 3240, Note_on_c, 0, 69, 66
1, 3252, Note_on_c, 0, 68, 0
1, 3360, Note_on_c, 0, 72, 70
1, 3372, Note_on_c, 0, 69, 0
1, 3480, Tempo, 484927
1, 3480, Note_on_c, 0, 69, 64
1, 3492, Note_on_c, 0, 72, 0
1, 3600, Tempo, 403416
1, 3600, Note_on_c, 0, 65, 70
1, 3600, Note_on_c, 0, 57, 70
1, 3612, Note_on_c, 0, 69, 0
1, 3720, Tempo, 385282
1, 3720, Note_on_c, 0, 57, 0
1, 3720, Note_on_c, 0, 65, 0
1, 3720, Note_on_c, 0, 77, 64
1, 3840, Note_on_c, 0, 77, 0
1, 3840, Note_on_c, 0, 64, 70
1, 3840, Note_on_c, 0, 55, 66
1, 3960, Note_on_c, 0, 55, 0
1, 3960, Note_on_c, 0, 64, 0
1, 3960, Note_on_c, 0, 77, 64
1, 4080, Note_on_c, 0, 77, 0
1, 4080, Note_on_c, 0, 65, 70
1, 4080, Note_on_c, 0, 57, 66
1, 4200, Tempo, 406146
1, 4200, Note_on_c, 0, 57, 0
1, 4200, Note_on_c, 0, 65, 0
1, 4200, Note_on_c, 0, 77, 64
1, 4320, Tempo, 382824
1, 4320, Note_on_c, 0, 77, 0
1, 4320, Note_on_c, 0, 67, 70
1, 4320, Note_on_c, 0, 58, 70
1, 4440, Note_on_c, 0, 58, 0
1, 4440, Note_on_c, 0, 67, 0
1, 4440, Note_on_c, 0, 77, 64
1, 4560, Note_on_c, 0, 77, 0
1, 4560, Note_on_c, 0, 65, 65
1, 4560, Note_on_c, 0, 57, 67
1, 4680, Note_on_c, 0, 57, 0
1, 4680, Note_on_c, 0, 65, 0
1, 4680, Note_on_c, 0, 77, 58
1, 4800, Note_on_c, 0, 77, 0
1, 4800, Note_on_c, 0, 67, 67
1, 4800, Note_on_c, 0, 58, 67
1, 4920, Tempo, 403416
1, 4920, Note_on_c, 0, 58, 0
1, 4920, Note_on_c, 0, 67, 0
1, 4920, Note_on_c, 0, 77, 61
1, 5040, Tempo, 380397
1, 5040, Note_on_c, 0, 77, 0
1, 5040, Note_on_c, 0, 69, 70
1, 5040, Note_on_c, 0, 60, 70
1, 5160, Note_on_c, 0, 60, 0
1, 5160, Note_on_c, 0, 69, 0
1, 5160, Note_on_c, 0, 77, 60
1, 5280, Note_on_c, 0, 77, 0
1, 5280, Note_on_c, 0, 67, 66
1, 5280, Note_on_c, 0, 58, 67
1, 5400, Note_on_c, 0, 58, 0
1, 5400, Note_on_c, 0, 67, 0
1, 5400, Note_on_c, 0, 77, 62
1, 5520, Note_on_c, 0, 77, 0
1, 5520, Note_on_c, 0, 69, 67
1, 5520, Note_on_c, 0, 60, 67
1, 5640, Tempo, 458961
1, 5640, Note_on_c, 0, 60, 0
1, 5640, Note_on_c, 0, 69, 0
1, 5640, Note_on_c, 0, 77, 62
1, 5760, Tempo, 385282
1, 5760, Note_on_c, 0, 77, 0
1, 5760, Note_on_c, 0, 70, 74
1, 5760, Note_on_c, 0, 61, 74
1, 5880, Note_on_c, 0, 70, 0
1, 5880, Note_on_c, 0, 77, 61
1, 6000, Note_on_c, 0, 77, 0
1, 6000, Note_on_c, 0, 70, 65
1, 6120, Note_on_c, 0, 70, 0
1, 6120, Note_on_c, 0, 77, 61
1, 6240, Note_on_c, 0, 77, 0
1, 6240, Note_on_c, 0, 61, 0
1, 6240, Note_on_c, 0, 69, 65
1, 6240, Note_on_c, 0, 60, 67
1, 6360, Tempo, 414565
1, 6360, Note_on_c, 0, 60, 0
1, 6360, Note_on_c, 0, 69, 0
1, 6360, Note_on_c, 0, 77, 60
1, 6480, Tempo, 382824
1, 6480, Note_on_c, 0, 77, 0
1, 6480, Note_on_c, 0, 70, 70
1, 6480, Note_on_c, 0, 61, 74
1, 6600, Note_on_c, 0, 70, 0
1, 6600, Note_on_c, 0, 77, 60
1, 6720, Note_on_c, 0, 77, 0
1, 6720, Note_on_c, 0, 70, 65
1, 6840, Note_on_c, 0, 70, 0
1, 6840, Note_on_c, 0, 77, 60
1, 6960, Note_on_c, 0, 77, 0
1, 6960, Note_on_c, 0, 61, 0
1, 6960, Note_on_c, 0, 69, 65
1, 6960, Note_on_c, 0, 60, 66
1, 7080, Tempo, 464828
1, 7080, Note_on_c, 0, 60, 0
1, 7080, Note_on_c, 0, 69, 0
1, 7080, Note_on_c, 0, 77, 54
1, 7200, Tempo, 382824
1, 7200, Note_on_c, 0, 77, 0
1, 7200, Note_on_c, 0, 68, 49
1, 7200, Note_on_c, 0, 59, 47
1, 7320, Note_on_c, 0, 59, 0
1, 7320, Note_on_c, 0, 68, 0
1, 7320, Note_on_c, 0, 77, 41
1, 7440, Note_on_c, 0, 77, 0
1, 7440, Note_on_c, 0, 68, 49
1, 7440, Note_on_c, 0, 59, 47
1, 7560, Note_on_c, 0, 59, 0
1, 7560, Note_on_c, 0, 68, 0
1, 7560, Note_on_c, 0, 77, 42
1, 7680, Note_on_c, 0, 77, 0
1, 7680, Note_on_c, 0, 68, 49
1, 7680, Note_on_c, 0, 59, 47
1, 7800, Tempo, 414565
1, 7800, Note_on_c, 0, 59, 0
1, 7800, Note_on_c, 0, 68, 0
1, 7800, Note_on_c, 0, 77, 40
1, 7920, Tempo, 420374
1, 7920, Note_on_c, 0, 77, 0
1, 7920, Note_on_c, 0, 67, 48
1, 7920, Note_on_c, 0, 76, 48
1, 7920, Note_on_c, 0, 60, 50
1, 8160, Note_on_c, 0, 60, 0
1, 8160, Note_on_c, 0, 76, 0
1, 8160, Note_on_c, 0, 67, 0
1, 8640, Tempo, 385282
1, 8640, Text_t, "bdca426d104a26ac9dcb070447587523"
1, 8640, Control_c, 0, 91, 127
1, 8640, Note_on_c, 0, 45, 59
1, 8640, Note_on_c, 0, 48, 59
1, 8640, Note_on_c, 0, 53, 70
1, 8640, Note_on_c, 0, 41, 59
1, 8760, Note_on_c, 0, 84, 66
1, 8880, Note_on_c, 0, 83, 68
1, 8892, Note_on_c, 0, 84, 0
1, 9000, Note_on_c, 0, 84, 69
1, 9012, Note_on_c, 0, 83, 0
1, 9120, Note_on_c, 0, 41, 0
1, 9120, Note_on_c, 0, 53, 0
1, 9120, Note_on_c, 0, 45, 0
1, 9120, Note_on_c, 0, 48, 0
1, 9120, Note_on_c, 0, 89, 70
1, 9132, Note_on_c, 0, 84, 0
1, 9240, Tempo, 398063
1, 9240, Note_on_c, 0, 84, 63
1, 9252, Note_on_c, 0, 89, 0
1, 9360, Tempo, 382824
1, 9360, Note_on_c, 0, 82, 70
1, 9372, Note_on_c, 0, 84, 0
1, 9480, Note_on_c, 0, 81, 66
1, 9492, Note_on_c, 0, 82, 0
1, 9600, Note_on_c, 0, 80, 64
1, 9612, Note_on_c, 0, 81, 0
1, 9720, Note_on_c, 0, 81, 64
1, 9732, Note_on_c, 0, 80, 0
1, 9840, Note_on_c, 0, 84, 70
1, 9852, Note_on_c, 0, 81, 0
1, 9960, Tempo, 395439
1, 9960, Note_on_c, 0, 81, 64
1, 9972, Note_on_c, 0, 84, 0
1, 10080, Tempo, 380397
1, 10080, Note_on_c, 0, 79, 70
1, 10092, Note_on_c, 0, 81, 0
1, 10200, Note_on_c, 0, 77, 64
1, 10212, Note_on_c, 0, 79, 0
1, 10320, Note_on_c, 0, 76, 64
1, 10332, Note_on_c, 0, 77, 0
1, 10440, Note_on_c, 0, 77, 64
1, 10452, Note_on_c, 0, 76, 0
1, 10560, Note_on_c, 0, 81, 70
1, 10572, Note_on_c, 0, 77, 0
1, 10680, Tempo, 395439
1, 10680, Note_on_c, 0, 77, 65
1, 10692, Note_on_c, 0, 81, 0
1, 10800, Tempo, 382824
1, 10800, Note_on_c, 0, 74, 70
1, 10812, Note_on_c, 0, 77, 0
1, 10920, Note_on_c, 0, 72, 65
1, 10932, Note_on_c, 0, 74, 0
1, 11040, Note_on_c, 0, 71, 65
1, 11052, Note_on_c, 0, 72, 0
1, 11160, Note_on_c, 0, 72, 65
1, 11172, Note_on_c, 0, 71, 0
1, 11280, Note_on_c, 0, 77, 70
1, 11292, Note_on_c, 0, 72, 0
1, 11400, Tempo, 403416
1, 11400, Note_on_c, 0, 72, 65
1, 11412, Note_on_c, 0, 77, 0
1, 11520, Tempo, 380397
1, 11520, Note_on_c, 0, 70, 70
1, 11532, Note_on_c, 0, 72, 0
1, 11640, Note_on_c, 0, 69, 66
1, 11652, Note_on_c, 0, 70, 0
1, 11760, Tempo, 395439
1, 11760, Note_on_c, 0, 68, 66
1, 11772, Note_on_c, 0, 69, 0
1, 11880, Note_on_c, 0, 69, 66
1, 11892, Note_on_c, 0, 68, 0
1, 12000, Note_on_c, 0, 72, 70
1, 12012, Note_on_c, 0, 69, 0
1, 12120, Tempo, 484927
1, 12120, Note_on_c, 0, 69, 64
1, 12132, Note_on_c, 0, 72, 0
1, 12240, Tempo, 400721
1, 12240, Note_on_c, 0, 65, 70
1, 12240, Note_on_c, 0, 57, 70
1, 12252, Note_on_c, 0, 69, 0
1, 12360, Tempo, 382824
1, 12360, Note_on_c, 0, 57, 0
1, 12360, Note_on_c, 0, 65, 0
1, 12360, Note_on_c, 0, 77, 64
1, 12480, Note_on_c, 0, 77, 0
1, 12480, Note_on_c, 0, 64, 70
1, 12480, Note_on_c, 0, 55, 66
1, 12600, Note_on_c, 0, 55, 0
1, 12600, Note_on_c, 0, 64, 0
1, 12600, Note_on_c, 0, 77, 64
1, 12720, Note_on_c, 0, 77, 0
1, 12720, Note_on_c, 0, 65, 70
1, 12720, Note_on_c, 0, 57, 66
1, 12840, Tempo, 406146
1, 12840, Note_on_c, 0, 57, 0
1, 12840, Note_on_c, 0, 65, 0
1, 12840, Note_on_c, 0, 77, 64
1, 12960, Tempo, 382824
1, 12960, Note_on_c, 0, 77, 0
1, 12960, Note_on_c, 0, 67, 70
1, 12960, Note_on_c, 0, 58, 70
1, 13080, Note_on_c, 0, 58, 0
1, 13080, Note_on_c, 0, 67, 0
1, 13080, Note_on_c, 0, 77, 64
1, 13200, Note_on_c, 0, 77, 0
1, 13200, Note_on_c, 0, 65, 65
1, 13200, Note_on_c, 0, 57, 67
1, 13320, Note_on_c, 0, 57, 0
1, 13320, Note_on_c, 0, 65, 0
1, 13320, Note_on_c, 0, 77, 58
1, 13440, Note_on_c, 0, 77, 0
1, 13440, Note_on_c, 0, 67, 67
1, 13440, Note_on_c, 0, 58, 67
1, 13560, Tempo, 403416
1, 13560, Note_on_c, 0, 58, 0
1, 13560, Note_on_c, 0, 67, 0
1, 13560, Note_on_c, 0, 77, 61
1, 13680, Tempo, 380397
1, 13680, Note_on_c, 0, 77, 0
1, 13680, Note_on_c, 0, 69, 70
1, 13680, Note_on_c, 0, 60, 70
1, 13800, Note_on_c, 0, 60, 0
1, 13800, Note_on_c, 0, 69, 0
1, 13800, Note_on_c, 0, 77, 60
1, 13920, Note_on_c, 0, 77, 0
1, 13920, Note_on_c, 0, 67, 66
1, 13920, Note_on_c, 0, 58, 67
1, 14040, Note_on_c, 0, 58, 0
1, 14040, Note_on_c, 0, 67, 0
1, 14040, Note_on_c, 0, 77, 62
1, 14160, Note_on_c, 0, 77, 0
1, 14160, Note_on_c, 0, 69, 67
1, 14160, Note_on_c, 0, 60, 67
1, 14280, Tempo, 458961
1, 14280, Note_on_c, 0, 60, 0
1, 14280, Note_on_c, 0, 69, 0
1, 14280, Note_on_c, 0, 77, 62
1, 14400, Tempo, 385282
1, 14400, Note_on_c, 0, 77, 0
1, 14400, Note_on_c, 0, 70, 74
1, 14400, Note_on_c, 0, 61, 74
1, 14400, Control_c, 0, 64, 127
1, 14520, Note_on_c, 0, 70, 0
1, 14520, Note_on_c, 0, 77, 61
1, 14640, Note_on_c, 0, 77, 0
1, 14640, Note_on_c, 0, 70, 65
1, 14760, Note_on_c, 0, 70, 0
1, 14760, Note_on_c, 0, 77, 61
1, 14873, Control_c, 0, 64, 0
1, 14880, Note_on_c, 0, 77, 0
1, 14880, Note_on_c, 0, 61, 0
1, 14880, Note_on_c, 0, 69, 65
1, 14880, Note_on_c, 0, 60, 67
1, 15000, Tempo, 414565
1, 15000, Note_on_c, 0, 60, 0
1, 15000, Note_on_c, 0, 69, 0
1, 15000, Note_on_c, 0, 77, 60
1, 15120, Tempo, 382824
1, 15120, Note_on_c, 0, 77, 0
1, 15120, Note_on_c, 0, 70, 70
1, 15120, Note_on_c, 0, 61, 74
1, 15177, Control_c, 0, 64, 127
1, 15240, Note_on_c, 0, 70, 0
1, 15240, Note_on_c, 0, 77, 60
1, 15360, Note_on_c, 0, 77, 0
1, 15360, Note_on_c, 0, 70, 65
1, 15480, Note_on_c, 0, 70, 0
1, 15480, Note_on_c, 0, 77, 60
1, 15600, Note_on_c, 0, 77, 0
1, 15600, Note_on_c, 0, 61, 0
1, 15600, Note_on_c, 0, 69, 65
1, 15600, Note_on_c, 0, 60, 66
1, 15607, Control_c, 0, 64, 0
1, 15720, Tempo, 411720
1, 15720, Note_on_c, 0, 60, 0
1, 15720, Note_on_c, 0, 69, 0
1, 15720, Note_on_c, 0, 77, 46
1, 15840, Tempo, 479693
1, 15840, Note_on_c, 0, 77, 0
1, 15840, Note_on_c, 0, 68, 42
1, 15840, Note_on_c, 0, 59, 35
1, 15880, Control_c, 0, 64, 127
1, 15960, Note_on_c, 0, 59, 0
1, 15960, Note_on_c, 0, 68, 0
1, 15960, Note_on_c, 0, 77, 37
1, 16012, Control_c, 0, 64, 0
1, 16080, Tempo, 428327
1, 16080, Note_on_c, 0, 77, 0
1, 16440, Tempo, 462499
1, 16560, Tempo, 472144
1, 16560, Note_on_c, 0, 67, 42
1, 16560, Note_on_c, 0, 58, 34
1, 16629, Control_c, 0, 64, 127
1, 16680, Note_on_c, 0, 58, 0
1, 16680, Note_on_c, 0, 67, 0
1, 16680, Note_on_c, 0, 76, 36
1, 16760, Control_c, 0, 64, 0
1, 16800, Tempo, 434531
1, 16800, Note_on_c, 0, 76, 0
1, 17160, Tempo, 473447
1, 17280, Tempo, 472144
1, 17280, Note_on_c, 0, 66, 42
1, 17280, Note_on_c, 0, 57, 34
1, 17280, Control_c, 0, 64, 127
1, 17400, Note_on_c, 0, 57, 0
1, 17400, Note_on_c, 0, 66, 0
1, 17400, Note_on_c, 0, 75, 35
1, 17503, Control_c, 0, 64, 0
1, 17520, Tempo, 437701
1, 17520, Note_on_c, 0, 75, 0
1, 18000, Tempo, 398063
1, 18000, Note_on_c, 0, 46, 58
1, 18000, Control_c, 0, 64, 127
1, 18120, Note_on_c, 0, 46, 0
1, 18120, Note_on_c, 0, 58, 61
1, 18240, Note_on_c, 0, 58, 0
1, 18240, Note_on_c, 0, 62, 58
1, 18360, Note_on_c, 0, 62, 0
1, 18360, Note_on_c, 0, 67, 59
1, 18480, Note_on_c, 0, 67, 0
1, 18480, Note_on_c, 0, 70, 60
1, 18600, Note_on_c, 0, 70, 0
1, 18600, Note_on_c, 0, 74, 61
1, 18720, Note_on_c, 0, 74, 0
1, 18720, Note_on_c, 0, 72, 62
1, 18720, Note_on_c, 0, 52, 36
1, 18720, Note_on_c, 0, 58, 57
1, 18720, Note_on_c, 0, 48, 36
1, 18731, Control_c, 0, 64, 0
1, 18840, Note_on_c, 0, 70, 62
1, 18852, Note_on_c, 0, 72, 0
1, 18960, Note_on_c, 0, 69, 60
1, 18972, Note_on_c, 0, 70, 0
1, 19080, Note_on_c, 0, 67, 59
1, 19092, Note_on_c, 0, 69, 0
1, 19200, Tempo, 448665
1, 19200, Note_on_c, 0, 65, 57
1, 19212, Note_on_c, 0, 67, 0
1, 19320, Note_on_c, 0, 64, 55
1, 19332, Note_on_c, 0, 65, 0
1, 19440, Tempo, 398063
1, 19440, Note_on_c, 0, 48, 0
1, 19440, Note_on_c, 0, 52, 0
1, 19440, Note_on_c, 0, 58, 0
1, 19440, Note_on_c, 0, 65, 58
1, 19440, Note_on_c, 0, 53, 32
1, 19440, Note_on_c, 0, 57, 51
1, 19452, Note_on_c, 0, 64, 0
1, 19560, Note_on_c, 0, 65, 0
1, 19680, Note_on_c, 0, 53, 0
1, 19680, Note_on_c, 0, 57, 0
1, 19680, Note_on_c, 0, 60, 49
1, 19920, Note_on_c, 0, 60, 0
1, 19920, Note_on_c, 0, 60, 49
1, 20040, Tempo, 435635
1, 20100, Note_on_c, 0, 60, 0
1, 20100, Note_on_c, 0, 64, 41
1, 20160, Tempo, 398063
1, 20160, Note_on_c, 0, 64, 0
1, 20160, Note_on_c, 0, 70, 49
1, 20160, Note_on_c, 0, 48, 41
1, 20400, Note_on_c, 0, 48, 0
1, 20400, Note_on_c, 0, 60, 31
1, 20400, Note_on_c, 0, 58, 24
1, 20520, Note_on_c, 0, 58, 0
1, 20520, Note_on_c, 0, 60, 0
1, 20640, Note_on_c, 0, 60, 31
1, 20640, Note_on_c, 0, 58, 24
1, 20760, Note_on_c, 0, 58, 0
1, 20760, Note_on_c, 0, 60, 0
1, 20880, Note_on_c, 0, 58, 24
1, 20880, Note_on_c, 0, 60, 31
1, 21000, Note_on_c, 0, 60, 0
1, 21000, Note_on_c, 0, 58, 0
1, 21120, Note_on_c, 0, 70, 0
1, 21120, Note_on_c, 0, 69, 43
1, 21120, Note_on_c, 0, 58, 24
1, 21120, Note_on_c, 0, 60, 31
1, 21240, Note_on_c, 0, 60, 0
1, 21240, Note_on_c, 0, 58, 0
1, 21240, Note_on_c, 0, 69, 0
1, 21360, Note_on_c, 0, 67, 43
1, 21360, Note_on_c, 0, 58, 24
1, 21360, Note_on_c, 0, 60, 31
1, 21480, Tempo, 432495
1, 21480, Note_on_c, 0, 60, 0
1, 21480, Note_on_c, 0, 58, 0
1, 21480, Note_on_c, 0, 67, 0
1, 21600, Tempo, 398063
1, 21600, Note_on_c, 0, 67, 49
1, 21600, Note_on_c, 0, 53, 41
1, 21840, Note_on_c, 0, 53, 0
1, 21840, Note_on_c, 0, 67, 0
1, 21840, Note_on_c, 0, 65, 45
1, 21840, Note_on_c, 0, 57, 24
1, 21840, Note_on_c, 0, 60, 31
1, 21893, Control_c, 0, 64, 127
1, 21960, Note_on_c, 0, 60, 0
1, 21960, Note_on_c, 0, 57, 0
1, 22080, Note_on_c, 0, 57, 24
1, 22080, Note_on_c, 0, 60, 31
1, 22200, Note_on_c, 0, 60, 0
1, 22200, Note_on_c, 0, 57, 0
1, 22317, Control_c, 0, 64, 0
1, 22320, Note_on_c, 0, 65, 0
1, 22320, Note_on_c, 0, 65, 45
1, 22320, Note_on_c, 0, 60, 31
1, 22320, Note_on_c, 0, 57, 24
1, 22359, Control_c, 0, 64, 127
1, 22440, Note_on_c, 0, 57, 0
1, 22440, Note_on_c, 0, 60, 0
1, 22560, Note_on_c, 0, 60, 31
1, 22560, Note_on_c, 0, 57, 24
1, 22680, Note_on_c, 0, 57, 0
1, 22680, Note_on_c, 0, 60, 0
1, 22800, Note_on_c, 0, 60, 31
1, 22800, Note_on_c, 0, 57, 24
1, 22920, Tempo, 442054
1, 22920, Note_on_c, 0, 57, 0
1, 22920, Note_on_c, 0, 60, 0
1, 22980, Note_on_c, 0, 65, 0
1, 22980, Note_on_c, 0, 64, 41
1, 23040, Tempo, 398063
1, 23040, Note_on_c, 0, 64, 0
1, 23040, Note_on_c, 0, 70, 49
1, 23040, Note_on_c, 0, 48, 41
1, 23040, Control_c, 0, 64, 0
1, 23280, Note_on_c, 0, 48, 0
1, 23280, Note_on_c, 0, 55, 24
1, 23280, Note_on_c, 0, 60, 31
1, 23400, Note_on_c, 0, 60, 0
1, 23400, Note_on_c, 0, 55, 0
1, 23520, Note_on_c, 0, 55, 24
1, 23520, Note_on_c, 0, 60, 31
1, 23640, Note_on_c, 0, 60, 0
1, 23640, Note_on_c, 0, 55, 0
1, 23760, Note_on_c, 0, 60, 31
1, 23760, Note_on_c, 0, 55, 24
1, 23880, Note_on_c, 0, 55, 0
1, 23880, Note_on_c, 0, 60, 0
1, 24000, Note_on_c, 0, 70, 0
1, 24000, Note_on_c, 0, 69, 43
1, 24000, Note_on_c, 0, 55, 24
1, 24000, Note_on_c, 0, 60, 31
1, 24120, Note_on_c, 0, 60, 0
1, 24120, Note_on_c, 0, 55, 0
1, 24120, Note_on_c, 0, 69, 0
1, 24240, Note_on_c, 0, 67, 43
1, 24240, Note_on_c, 0, 55, 24
1, 24240, Note_on_c, 0, 60, 31
1, 24360, Tempo, 469741
1, 24360, Note_on_c, 0, 60, 0
1, 24360, Note_on_c, 0, 55, 0
1, 24360, Note_on_c, 0, 67, 0
1, 24480, Tempo, 398063
1, 24480, Note_on_c, 0, 71, 51
1, 24480, Note_on_c, 0, 53, 41
1, 24530, Control_c, 0, 64, 127
1, 24720, Note_on_c, 0, 53, 0
1, 24720, Note_on_c, 0, 57, 24
1, 24720, Note_on_c, 0, 60, 31
1, 24840, Note_on_c, 0, 60, 0
1, 24840, Note_on_c, 0, 57, 0
1, 24960, Note_on_c, 0, 60, 31
1, 24960, Note_on_c, 0, 57, 24
1, 25080, Note_on_c, 0, 57, 0
1, 25080, Note_on_c, 0, 60, 0
1, 25200, Note_on_c, 0, 71, 0
1, 25200, Note_on_c, 0, 72, 45
1, 25200, Note_on_c, 0, 57, 24
1, 25200, Note_on_c, 0, 60, 31
1, 25212, Control_c, 0, 64, 0
1, 25320, Note_on_c, 0, 60, 0
1, 25320, Note_on_c, 0, 57, 0
1, 25334, Control_c, 0, 64, 127
1, 25440, Note_on_c, 0, 72, 0
1, 25440, Note_on_c, 0, 57, 24
1, 25440, Note_on_c, 0, 60, 31
1, 25560, Note_on_c, 0, 60, 0
1, 25560, Note_on_c, 0, 57, 0
1, 25680, Note_on_c, 0, 60, 31
1, 25680, Note_on_c, 0, 57, 24
1, 25800, Note_on_c, 0, 57, 0
1, 25800, Note_on_c, 0, 60, 0
1, 25860, Tempo, 435635
1, 25860, Note_on_c, 0, 64, 41
1, 25920, Tempo, 398063
1, 25920, Note_on_c, 0, 64, 0
1, 25920, Note_on_c, 0, 70, 49
1, 25920, Note_on_c, 0, 48, 41
1, 25964, Control_c, 0, 64, 0
1, 26160, Note_on_c, 0, 48, 0
1, 26160, Note_on_c, 0, 58, 24
1, 26160, Note_on_c, 0, 60, 31
1, 26280, Note_on_c, 0, 60, 0
1, 26280, Note_on_c, 0, 58, 0
1, 26400, Note_on_c, 0, 60, 31
1, 26400, Note_on_c, 0, 58, 24
1, 26520, Note_on_c, 0, 58, 0
1, 26520, Note_on_c, 0, 60, 0
1, 26640, Note_on_c, 0, 60, 31
1, 26640, Note_on_c, 0, 58, 24
1, 26760, Note_on_c, 0, 58, 0
1, 26760, Note_on_c, 0, 60, 0
1, 26880, Note_on_c, 0, 70, 0
1, 26880, Note_on_c, 0, 69, 43
1, 26880, Note_on_c, 0, 60, 31
1, 26880, Note_on_c, 0, 58, 24
1, 27000, Note_on_c, 0, 58, 0
1, 27000, Note_on_c, 0, 60, 0
1, 27000, Note_on_c, 0, 69, 0
1, 27120, Note_on_c, 0, 67, 43
1, 27120, Note_on_c, 0, 60, 31
1, 27120, Note_on_c, 0, 58, 24
1, 27240, Tempo, 432495
1, 27240, Note_on_c, 0, 58, 0
1, 27240, Note_on_c, 0, 60, 0
1, 27240, Note_on_c, 0, 67, 0
1, 27360, Tempo, 398063
1, 27360, Note_on_c, 0, 65, 54
1, 27360, Note_on_c, 0, 53, 41
1, 27438, Control_c, 0, 64, 127
1, 27600, Note_on_c, 0, 53, 0
1, 27600, Note_on_c, 0, 60, 31
1, 27600, Note_on_c, 0, 57, 24
1, 27720, Note_on_c, 0, 57, 0
1, 27720, Note_on_c, 0, 60, 0
1, 27840, Note_on_c, 0, 65, 0
1, 27840, Note_on_c, 0, 69, 60
1, 27840, Note_on_c, 0, 57, 24
1, 27840, Note_on_c, 0, 60, 31
1, 27960, Note_on_c, 0, 60, 0
1, 27960, Note_on_c, 0, 57, 0
1, 28080, Note_on_c, 0, 60, 31
1, 28080, Note_on_c, 0, 57, 24
1, 28200, Note_on_c, 0, 57, 0
1, 28200, Note_on_c, 0, 60, 0
1, 28320, Note_on_c, 0, 57, 24
1, 28320, Note_on_c, 0, 60, 31
1, 28440, Note_on_c, 0, 60, 0
1, 28440, Note_on_c, 0, 57, 0
1, 28560, Note_on_c, 0, 69, 0
1, 28560, Note_on_c, 0, 72, 60
1, 28560, Note_on_c, 0, 60, 31
1, 28560, Note_on_c, 0, 57, 24
1, 28680, Note_on_c, 0, 57, 0
1, 28680, Note_on_c, 0, 60, 0
1, 28800, Note_on_c, 0, 48, 41
1, 29040, Note_on_c, 0, 48, 0
1, 29040, Note_on_c, 0, 55, 24
1, 29040, Note_on_c, 0, 60, 31
1, 29160, Note_on_c, 0, 60, 0
1, 29160, Note_on_c, 0, 55, 0
1, 29280, Note_on_c, 0, 72, 0
1, 29280, Note_on_c, 0, 70, 58
1, 29280, Note_on_c, 0, 55, 24
1, 29280, Note_on_c, 0, 60, 31
1, 29337, Control_c, 0, 64, 0
1, 29400, Note_on_c, 0, 60, 0
1, 29400, Note_on_c, 0, 55, 0
1, 29407, Control_c, 0, 64, 127
1, 29520, Note_on_c, 0, 60, 31
1, 29520, Note_on_c, 0, 58, 24
1, 29640, Note_on_c, 0, 58, 0
1, 29640, Note_on_c, 0, 60, 0
1, 29760, Note_on_c, 0, 58, 24
1, 29760, Note_on_c, 0, 60, 31
1, 29880, Note_on_c, 0, 60, 0
1, 29880, Note_on_c, 0, 58, 0
1, 30000, Tempo, 387772
1, 30000, Note_on_c, 0, 70, 0
1, 30000, Note_on_c, 0, 67, 50
1, 30000, Note_on_c, 0, 58, 24
1, 30000, Note_on_c, 0, 60, 31
1, 30120, Note_on_c, 0, 60, 0
1, 30120, Note_on_c, 0, 58, 0
1, 30240, Tempo, 398063
1, 30240, Note_on_c, 0, 67, 0
1, 30240, Note_on_c, 0, 65, 56
1, 30240, Note_on_c, 0, 53, 32
1, 30240, Note_on_c, 0, 57, 32
1, 30240, Note_on_c, 0, 60, 41
1, 30240, Control_c, 0, 64, 0
1, 30480, Note_on_c, 0, 60, 0
1, 30480, Note_on_c, 0, 65, 0
1, 30480, Note_on_c, 0, 53, 0
1, 30480, Note_on_c, 0, 57, 0
1, 30720, Note_on_c, 0, 57, 71
1, 30720, Note_on_c, 0, 45, 60
1, 30960, Tempo, 389408
1, 30960, Note_on_c, 0, 45, 0
1, 30960, Note_on_c, 0, 57, 0
1, 30960, Note_on_c, 0, 58, 78
1, 30960, Note_on_c, 0, 46, 66
1, 31080, Note_on_c, 0, 46, 0
1, 31080, Note_on_c, 0, 58, 0
1, 31200, Note_on_c, 0, 67, 73
1, 31200, Note_on_c, 0, 55, 61
1, 31320, Note_on_c, 0, 55, 0
1, 31320, Note_on_c, 0, 67, 0
1, 31440, Tempo, 399787
1, 31440, Note_on_c, 0, 59, 72
1, 31440, Note_on_c, 0, 47, 61
1, 31560, Note_on_c, 0, 47, 0
1, 31560, Note_on_c, 0, 59, 0
1, 31680, Tempo, 389408
1, 31680, Note_on_c, 0, 60, 78
1, 31680, Note_on_c, 0, 48, 66
1, 31800, Note_on_c, 0, 48, 0
1, 31800, Note_on_c, 0, 60, 0
1, 31920, Note_on_c, 0, 69, 73
1, 31920, Note_on_c, 0, 57, 61
1, 32040, Note_on_c, 0, 57, 0
1, 32040, Note_on_c, 0, 69, 0
1, 32160, Tempo, 394529
1, 32160, Note_on_c, 0, 61, 73
1, 32160, Note_on_c, 0, 49, 61
1, 32280, Note_on_c, 0, 49, 0
1, 32280, Note_on_c, 0, 61, 0
1, 32400, Tempo, 389408
1, 32400, Note_on_c, 0, 62, 78
1, 32400, Note_on_c, 0, 50, 66
1, 32520, Note_on_c, 0, 50, 0
1, 32520, Note_on_c, 0, 62, 0
1, 32640, Note_on_c, 0, 70, 72
1, 32640, Note_on_c, 0, 58, 61
1, 32760, Note_on_c, 0, 58, 0
1, 32760, Note_on_c, 0, 70, 0
1, 32880, Tempo, 397141
1, 32880, Note_on_c, 0, 64, 72
1, 32880, Note_on_c, 0, 52, 61
1, 33000, Note_on_c, 0, 52, 0
1, 33000, Note_on_c, 0, 64, 0
1, 33120, Tempo, 389408
1, 33120, Note_on_c, 0, 82, 68
1, 33184, Control_c, 0, 64, 127
1, 33840, Note_on_c, 0, 58, 28
1, 33840, Note_on_c, 0, 60, 28
1, 33840, Note_on_c, 0, 67, 34
1, 33840, Note_on_c, 0, 64, 28
1, 34080, Tempo, 379555
1, 34080, Note_on_c, 0, 82, 0
1, 34080, Note_on_c, 0, 81, 62
1, 34200, Note_on_c, 0, 81, 0
1, 34200, Note_on_c, 0, 79, 61
1, 34320, Note_on_c, 0, 79, 0
1, 34320, Note_on_c, 0, 77, 59
1, 34440, Note_on_c, 0, 77, 0
1, 34440, Note_on_c, 0, 76, 57
1, 34560, Tempo, 389408
1, 34560, Note_on_c, 0, 76, 0
1, 34560, Note_on_c, 0, 67, 0
1, 34560, Note_on_c, 0, 58, 0
1, 34560, Note_on_c, 0, 60, 0
1, 34560, Note_on_c, 0, 64, 0
1, 34560, Note_on_c, 0, 77, 56
1, 34560, Note_on_c, 0, 60, 41
1, 34560, Note_on_c, 0, 57, 41
1, 34560, Note_on_c, 0, 65, 49
1, 34560, Control_c, 0, 64, 0
1, 34680, Note_on_c, 0, 77, 0
1, 34800, Note_on_c, 0, 60, 0
1, 34800, Note_on_c, 0, 57, 0
1, 34800, Note_on_c, 0, 65, 0
1, 34800, Note_on_c, 0, 79, 49
1, 34920, Note_on_c, 0, 79, 0
1, 35040, Tempo, 425532
1, 35040, Note_on_c, 0, 81, 54
1, 35160, Note_on_c, 0, 81, 0
1, 35280, Tempo, 389408
1, 35280, Note_on_c, 0, 69, 46
1, 35280, Note_on_c, 0, 72, 46
1, 35280, Note_on_c, 0, 60, 42
1, 35323, Control_c, 0, 64, 127
1, 35760, Tempo, 422535
1, 35760, Note_on_c, 0, 60, 0
1, 35760, Note_on_c, 0, 72, 0
1, 35760, Note_on_c, 0, 69, 0
1, 35760, Note_on_c, 0, 70, 40
1, 35760, Note_on_c, 0, 67, 40
1, 35760, Note_on_c, 0, 61, 42
1, 35771, Control_c, 0, 64, 0
1, 35852, Control_c, 0, 64, 127
1, 36000, Tempo, 405405
1, 36000, Note_on_c, 0, 61, 0
1, 36000, Note_on_c, 0, 67, 0
1, 36000, Note_on_c, 0, 70, 0
1, 36000, Note_on_c, 0, 70, 46
1, 36000, Note_on_c, 0, 67, 46
1, 36000, Note_on_c, 0, 62, 47
1, 36000, Control_c, 0, 64, 0
1, 36134, Control_c, 0, 64, 127
1, 36720, Tempo, 397351
1, 36720, Note_on_c, 0, 67, 0
1, 36720, Note_on_c, 0, 70, 0
1, 36720, Note_on_c, 0, 65, 41
1, 36720, Note_on_c, 0, 69, 41
1, 36747, Control_c, 0, 64, 0
1, 36960, Note_on_c, 0, 69, 0
1, 36960, Note_on_c, 0, 65, 0
1, 36960, Note_on_c, 0, 62, 0
1, 37920, Tempo, 398063
1, 37920, Note_on_c, 0, 57, 71
1, 37920, Note_on_c, 0, 45, 60
1, 38160, Tempo, 389408
1, 38160, Note_on_c, 0, 45, 0
1, 38160, Note_on_c, 0, 57, 0
1, 38160, Note_on_c, 0, 58, 78
1, 38160, Note_on_c, 0, 46, 66
1, 38280, Note_on_c, 0, 46, 0
1, 38280, Note_on_c, 0, 58, 0
1, 38400, Note_on_c, 0, 67, 73
1, 38400, Note_on_c, 0, 55, 61
1, 38520, Note_on_c, 0, 55, 0
1, 38520, Note_on_c, 0, 67, 0
1, 38640, Tempo, 399787
1, 38640, Note_on_c, 0, 59, 72
1, 38640, Note_on_c, 0, 47, 61
1, 38760, Note_on_c, 0, 47, 0
1, 38760, Note_on_c, 0, 59, 0
1, 38880, Tempo, 389408
1, 38880, Note_on_c, 0, 60, 78
1, 38880, Note_on_c, 0, 48, 66
1, 39000, Note_on_c, 0, 48, 0
1, 39000, Note_on_c, 0, 60, 0
1, 39120, Note_on_c, 0, 69, 73
1, 39120, Note_on_c, 0, 57, 61
1, 39240, Note_on_c, 0, 57, 0
1, 39240, Note_on_c, 0, 69, 0
1, 39360, Tempo, 394529
1, 39360, Note_on_c, 0, 61, 73
1, 39360, Note_on_c, 0, 49, 61
1, 39480, Note_on_c, 0, 49, 0
1, 39480, Note_on_c, 0, 61, 0
1, 39600, Tempo, 389408
1, 39600, Note_on_c, 0, 62, 78
1, 39600, Note_on_c, 0, 50, 66
1, 39720, Note_on_c, 0, 50, 0
1, 39720, Note_on_c, 0, 62, 0
1, 39840, Note_on_c, 0, 70, 72
1, 39840, Note_on_c, 0, 58, 61
1, 39960, Note_on_c, 0, 58, 0
1, 39960, Note_on_c, 0, 70, 0
1, 40080, Tempo, 397141
1, 40080, Note_on_c, 0, 64, 72
1, 40080, Note_on_c, 0, 52, 61
1, 40200, Note_on_c, 0, 52, 0
1, 40200, Note_on_c, 0, 64, 0
1, 40320, Tempo, 389408
1, 40320, Note_on_c, 0, 82, 68
1, 40320, Control_c, 0, 64, 127
1, 41040, Note_on_c, 0, 58, 28
1, 41040, Note_on_c, 0, 60, 28
1, 41040, Note_on_c, 0, 67, 34
1, 41040, Note_on_c, 0, 64, 28
1, 41280, Tempo, 379555
1, 41280, Note_on_c, 0, 82, 0
1, 41280, Note_on_c, 0, 81, 62
1, 41400, Note_on_c, 0, 81, 0
1, 41400, Note_on_c, 0, 79, 61
1, 41520, Note_on_c, 0, 79, 0
1, 41520, Note_on_c, 0, 77, 59
1, 41640, Note_on_c, 0, 77, 0
1, 41640, Note_on_c, 0, 76, 57
1, 41760, Tempo, 508130
1, 41760, Note_on_c, 0, 76, 0
1, 41760, Note_on_c, 0, 67, 0
1, 41760, Note_on_c, 0, 58, 0
1, 41760, Note_on_c, 0, 60, 0
1, 41760, Note_on_c, 0, 64, 0
1, 41760, Note_on_c, 0, 77, 56
1, 41760, Note_on_c, 0, 57, 41
1, 41760, Note_on_c, 0, 60, 41
1, 41760, Note_on_c, 0, 65, 49
1, 41760, Control_c, 0, 64, 0
1, 41820, Note_on_c, 0, 77, 0
1, 41820, Note_on_c, 0, 79, 49
1, 41880, Note_on_c, 0, 79, 0
1, 41880, Note_on_c, 0, 81, 49
1, 41940, Note_on_c, 0, 81, 0
1, 42000, Tempo, 399787
1, 42000, Note_on_c, 0, 57, 0
1, 42000, Note_on_c, 0, 60, 0
1, 42000, Note_on_c, 0, 65, 0
1, 42240, Tempo, 405186
1, 42480, Tempo, 508130
1, 42480, Note_on_c, 0, 74, 47
1, 42480, Note_on_c, 0, 62, 33
1, 42480, Note_on_c, 0, 65, 42
1, 42480, Note_on_c, 0, 58, 33
1, 42540, Note_on_c, 0, 74, 0
1, 42540, Note_on_c, 0, 76, 41
1, 42600, Note_on_c, 0, 76, 0
1, 42600, Note_on_c, 0, 77, 41
1, 42660, Note_on_c, 0, 77, 0
1, 42720, Tempo, 389408
1, 42720, Note_on_c, 0, 62, 0
1, 42720, Note_on_c, 0, 65, 0
1, 42720, Note_on_c, 0, 58, 0
1, 42960, Tempo, 487805
1, 43200, Tempo, 397141
1, 43200, Note_on_c, 0, 65, 44
1, 43200, Note_on_c, 0, 48, 27
1, 43200, Note_on_c, 0, 57, 32
1, 43200, Control_c, 0, 64, 127
1, 43440, Tempo, 416435
1, 43680, Tempo, 447494
1, 43800, Note_on_c, 0, 65, 0
1, 43800, Note_on_c, 0, 69, 39
1, 43920, Note_on_c, 0, 69, 0
1, 43920, Note_on_c, 0, 57, 0
1, 43920, Note_on_c, 0, 67, 44
1, 43920, Note_on_c, 0, 64, 36
1, 43920, Note_on_c, 0, 58, 28
1, 43930, Control_c, 0, 64, 0
1, 44104, Control_c, 0, 64, 127
1, 44400, Tempo, 475888
1, 44400, Note_on_c, 0, 64, 0
1, 44400, Note_on_c, 0, 67, 0
1, 44400, Note_on_c, 0, 65, 41
1, 44640, Tempo, 410734
1, 44640, Note_on_c, 0, 65, 0
1, 44640, Note_on_c, 0, 48, 0
1, 44640, Note_on_c, 0, 58, 0
1, 44640, Note_on_c, 0, 65, 41
1, 44640, Note_on_c, 0, 53, 28
1, 44640, Control_c, 0, 64, 0
1, 44774, Control_c, 0, 64, 127
1, 44880, Tempo, 391952
1, 44880, Note_on_c, 0, 57, 24
1, 45120, Note_on_c, 0, 57, 0
1, 45120, Note_on_c, 0, 69, 39
1, 45120, Note_on_c, 0, 60, 24
1, 45360, Tempo, 394529
1, 45360, Note_on_c, 0, 60, 0
1, 45360, Note_on_c, 0, 65, 0
1, 45360, Note_on_c, 0, 53, 0
1, 45360, Note_on_c, 0, 69, 0
1, 45360, Note_on_c, 0, 72, 44
1, 45360, Note_on_c, 0, 64, 37
1, 45360, Note_on_c, 0, 53, 28
1, 45371, Control_c, 0, 64, 0
1, 45467, Control_c, 0, 64, 127
1, 45600, Note_on_c, 0, 72, 0
1, 45600, Note_on_c, 0, 70, 39
1, 45600, Note_on_c, 0, 55, 26
1, 45840, Tempo, 405186
1, 45840, Note_on_c, 0, 55, 0
1, 45840, Note_on_c, 0, 70, 0
1, 45840, Note_on_c, 0, 67, 39
1, 45840, Note_on_c, 0, 58, 26
1, 46080, Tempo, 394529
1, 46080, Note_on_c, 0, 58, 0
1, 46080, Note_on_c, 0, 64, 0
1, 46080, Note_on_c, 0, 53, 0
1, 46080, Note_on_c, 0, 67, 0
1, 46080, Note_on_c, 0, 65, 44
1, 46080, Note_on_c, 0, 53, 28
1, 46087, Control_c, 0, 64, 0
1, 46227, Control_c, 0, 64, 127
1, 46320, Note_on_c, 0, 60, 40
1, 46320, Note_on_c, 0, 57, 24
1, 46557, Note_on_c, 0, 60, 0
1, 46560, Tempo, 402468
1, 46560, Note_on_c, 0, 57, 0
1, 46560, Note_on_c, 0, 69, 40
1, 46560, Note_on_c, 0, 60, 24
1, 46800, Tempo, 394529
1, 46800, Note_on_c, 0, 60, 0
1, 46800, Note_on_c, 0, 65, 0
1, 46800, Note_on_c, 0, 53, 0
1, 46800, Note_on_c, 0, 69, 0
1, 46800, Note_on_c, 0, 72, 44
1, 46800, Note_on_c, 0, 64, 37
1, 46800, Note_on_c, 0, 53, 28
1, 46807, Control_c, 0, 64, 0
1, 46960, Control_c, 0, 64, 127
1, 47040, Note_on_c, 0, 72, 0
1, 47040, Note_on_c, 0, 70, 40
1, 47040, Note_on_c, 0, 55, 24
1, 47280, Tempo, 405186
1, 47280, Note_on_c, 0, 55, 0
1, 47280, Note_on_c, 0, 70, 0
1, 47280, Note_on_c, 0, 67, 40
1, 47280, Note_on_c, 0, 58, 24
1, 47520, Tempo, 394529
1, 47520, Note_on_c, 0, 58, 0
1, 47520, Note_on_c, 0, 64, 0
1, 47520, Note_on_c, 0, 53, 0
1, 47520, Note_on_c, 0, 67, 0
1, 47520, Note_on_c, 0, 65, 44
1, 47520, Note_on_c, 0, 53, 28
1, 47526, Control_c, 0, 64, 0
1, 47667, Control_c, 0, 64, 127
1, 47760, Note_on_c, 0, 65, 0
1, 47760, Note_on_c, 0, 60, 41
1, 47760, Note_on_c, 0, 57, 24
1, 47997, Note_on_c, 0, 60, 0
1, 48000, Tempo, 419346
1, 48000, Note_on_c, 0, 57, 0
1, 48000, Note_on_c, 0, 69, 41
1, 48000, Note_on_c, 0, 60, 24
1, 48240, Tempo, 397141
1, 48240, Note_on_c, 0, 60, 0
1, 48240, Note_on_c, 0, 69, 0
1, 48240, Note_on_c, 0, 53, 0
1, 48240, Note_on_c, 0, 65, 44
1, 48240, Note_on_c, 0, 53, 28
1, 48248, Control_c, 0, 64, 0
1, 48374, Control_c, 0, 64, 127
1, 48480, Tempo, 413565
1, 48480, Note_on_c, 0, 65, 0
1, 48480, Note_on_c, 0, 60, 40
1, 48480, Note_on_c, 0, 57, 24
1, 48716, Note_on_c, 0, 60, 0
1, 48720, Tempo, 593589
1, 48720, Note_on_c, 0, 57, 0
1, 48720, Note_on_c, 0, 69, 40
1, 48720, Note_on_c, 0, 60, 24
1, 48960, Tempo, 535332
1, 48960, Note_on_c, 0, 60, 0
1, 48960, Note_on_c, 0, 69, 0
1, 48960, Note_on_c, 0, 53, 0
1, 48960, Note_on_c, 0, 58, 36
1, 48960, Note_on_c, 0, 67, 42
1, 48960, Note_on_c, 0, 53, 28
1, 48960, Note_on_c, 0, 41, 23
1, 48968, Control_c, 0, 64, 0
1, 49160, Control_c, 0, 64, 127
1, 49680, Note_on_c, 0, 67, 0
1, 49680, Note_on_c, 0, 58, 0
1, 49680, Note_on_c, 0, 65, 36
1, 49680, Note_on_c, 0, 57, 31
1, 49747, Control_c, 0, 64, 0
1, 49920, Note_on_c, 0, 57, 0
1, 49920, Note_on_c, 0, 41, 0
1, 49920, Note_on_c, 0, 53, 0
1, 49920, Note_on_c, 0, 65, 0
1, 50400, Tempo, 397141
1, 50400, Note_on_c, 0, 69, 68
1, 50400, Note_on_c, 0, 81, 80
1, 51120, Note_on_c, 0, 81, 0
1, 51120, Note_on_c, 0, 69, 0
1, 51120, Note_on_c, 0, 79, 77
1, 51120, Note_on_c, 0, 69, 65
1, 51840, Note_on_c, 0, 69, 0
1, 51840, Note_on_c, 0, 79, 0
1, 51840, Note_on_c, 0, 77, 78
1, 51840, Note_on_c, 0, 69, 66
1, 51840, Note_on_c, 0, 45, 63
1, 51840, Note_on_c, 0, 57, 74
1, 52560, Note_on_c, 0, 57, 0
1, 52560, Note_on_c, 0, 77, 0
1, 52560, Note_on_c, 0, 69, 0
1, 52560, Note_on_c, 0, 45, 0
1, 52560, Note_on_c, 0, 69, 65
1, 52560, Note_on_c, 0, 76, 76
1, 52560, Note_on_c, 0, 55, 74
1, 52560, Note_on_c, 0, 43, 63
1, 53280, Note_on_c, 0, 43, 0
1, 53280, Note_on_c, 0, 69, 0
1, 53280, Note_on_c, 0, 76, 0
1, 53280, Note_on_c, 0, 55, 0
1, 53280, Note_on_c, 0, 69, 67
1, 53280, Note_on_c, 0, 74, 79
1, 53280, Note_on_c, 0, 53, 74
1, 53280, Note_on_c, 0, 41, 63
1, 54000, Tempo, 419346
1, 54000, Note_on_c, 0, 41, 0
1, 54000, Note_on_c, 0, 69, 0
1, 54000, Note_on_c, 0, 74, 0
1, 54000, Note_on_c, 0, 53, 0
1, 54000, Note_on_c, 0, 67, 65
1, 54000, Note_on_c, 0, 73, 76
1, 54000, Note_on_c, 0, 69, 65
1, 54000, Note_on_c, 0, 40, 63
1, 54000, Note_on_c, 0, 52, 74
1, 54720, Tempo, 397141
1, 54720, Note_on_c, 0, 52, 0
1, 54720, Note_on_c, 0, 69, 0
1, 54720, Note_on_c, 0, 67, 0
1, 54720, Note_on_c, 0, 73, 0
1, 54720, Note_on_c, 0, 40, 0
1, 54720, Note_on_c, 0, 74, 65
1, 54720, Note_on_c, 0, 50, 59
1, 54756, Control_c, 0, 64, 127
1, 54840, Note_on_c, 0, 74, 0
1, 54840, Note_on_c, 0, 69, 54
1, 54960, Tempo, 386897
1, 54960, Note_on_c, 0, 69, 0
1, 54960, Note_on_c, 0, 50, 0
1, 54960, Note_on_c, 0, 65, 54
1, 54960, Note_on_c, 0, 53, 54
1, 55080, Note_on_c, 0, 65, 0
1, 55080, Note_on_c, 0, 69, 54
1, 55200, Tempo, 410734
1, 55200, Note_on_c, 0, 69, 0
1, 55200, Note_on_c, 0, 53, 0
1, 55200, Note_on_c, 0, 74, 65
1, 55200, Note_on_c, 0, 57, 54
1, 55320, Note_on_c, 0, 74, 0
1, 55320, Note_on_c, 0, 69, 54
1, 55440, Tempo, 394529
1, 55440, Note_on_c, 0, 69, 0
1, 55440, Note_on_c, 0, 57, 0
1, 55440, Note_on_c, 0, 76, 65
1, 55440, Note_on_c, 0, 49, 59
1, 55461, Control_c, 0, 64, 0
1, 55553, Control_c, 0, 64, 127
1, 55560, Note_on_c, 0, 76, 0
1, 55560, Note_on_c, 0, 69, 54
1, 55680, Tempo, 384418
1, 55680, Note_on_c, 0, 69, 0
1, 55680, Note_on_c, 0, 49, 0
1, 55680, Note_on_c, 0, 67, 54
1, 55680, Note_on_c, 0, 52, 54
1, 55800, Note_on_c, 0, 67, 0
1, 55800, Note_on_c, 0, 69, 54
1, 55920, Tempo, 402468
1, 55920, Note_on_c, 0, 69, 0
1, 55920, Note_on_c, 0, 52, 0
1, 55920, Note_on_c, 0, 76, 65
1, 55920, Note_on_c, 0, 57, 54
1, 56040, Note_on_c, 0, 76, 0
1, 56040, Note_on_c, 0, 69, 55
1, 56160, Tempo, 391952
1, 56160, Note_on_c, 0, 69, 0
1, 56160, Note_on_c, 0, 57, 0
1, 56160, Note_on_c, 0, 77, 65
1, 56160, Note_on_c, 0, 50, 59
1, 56167, Control_c, 0, 64, 0
1, 56223, Control_c, 0, 64, 127
1, 56280, Note_on_c, 0, 77, 0
1, 56280, Note_on_c, 0, 74, 55
1, 56400, Note_on_c, 0, 74, 0
1, 56400, Note_on_c, 0, 50, 0
1, 56400, Note_on_c, 0, 69, 55
1, 56400, Note_on_c, 0, 53, 54
1, 56520, Note_on_c, 0, 69, 0
1, 56520, Note_on_c, 0, 74, 55
1, 56640, Tempo, 402468
1, 56640, Note_on_c, 0, 74, 0
1, 56640, Note_on_c, 0, 53, 0
1, 56640, Note_on_c, 0, 77, 65
1, 56640, Note_on_c, 0, 57, 54
1, 56760, Note_on_c, 0, 77, 0
1, 56760, Note_on_c, 0, 74, 55
1, 56880, Tempo, 391952
1, 56880, Note_on_c, 0, 74, 0
1, 56880, Note_on_c, 0, 57, 0
1, 56880, Note_on_c, 0, 78, 65
1, 56880, Note_on_c, 0, 48, 59
1, 56891, Control_c, 0, 64, 0
1, 56937, Control_c, 0, 64, 127
1, 57000, Note_on_c, 0, 78, 0
1, 57000, Note_on_c, 0, 74, 55
1, 57120, Tempo, 384418
1, 57120, Note_on_c, 0, 74, 0
1, 57120, Note_on_c, 0, 48, 0
1, 57120, Note_on_c, 0, 69, 55
1, 57120, Note_on_c, 0, 54, 53
1, 57240, Note_on_c, 0, 69, 0
1, 57240, Note_on_c, 0, 74, 55
1, 57360, Tempo, 402468
1, 57360, Note_on_c, 0, 74, 0
1, 57360, Note_on_c, 0, 54, 0
1, 57360, Note_on_c, 0, 78, 65
1, 57360, Note_on_c, 0, 57, 53
1, 57480, Note_on_c, 0, 78, 0
1, 57480, Note_on_c, 0, 74, 56
1, 57600, Tempo, 394529
1, 57600, Note_on_c, 0, 74, 0
1, 57600, Note_on_c, 0, 57, 0
1, 57600, Note_on_c, 0, 79, 65
1, 57600, Note_on_c, 0, 47, 58
1, 57615, Control_c, 0, 64, 0
1, 58080, Tempo, 389408
1, 58080, Note_on_c, 0, 47, 0
1, 58080, Note_on_c, 0, 79, 0
1, 58080, Note_on_c, 0, 81, 59
1, 58200, Note_on_c, 0, 81, 0
1, 58200, Note_on_c, 0, 79, 59
1, 58320, Tempo, 397141
1, 58320, Note_on_c, 0, 79, 0
1, 58320, Note_on_c, 0, 77, 65
1, 58800, Tempo, 391952
1, 58800, Note_on_c, 0, 77, 0
1, 58800, Note_on_c, 0, 79, 57
1, 58920, Note_on_c, 0, 79, 0
1, 58920, Note_on_c, 0, 77, 57
1, 59040, Tempo, 399787
1, 59040, Note_on_c, 0, 77, 0
1, 59040, Note_on_c, 0, 76, 65
1, 59040, Note_on_c, 0, 67, 54
1, 59520, Tempo, 394529
1, 59520, Note_on_c, 0, 76, 0
1, 59520, Note_on_c, 0, 77, 57
1, 59640, Note_on_c, 0, 77, 0
1, 59640, Note_on_c, 0, 76, 57
1, 59760, Tempo, 399787
1, 59760, Note_on_c, 0, 76, 0
1, 59760, Note_on_c, 0, 67, 0
1, 59760, Note_on_c, 0, 74, 65
1, 59760, Note_on_c, 0, 65, 44
1, 59760, Note_on_c, 0, 67, 52
1, 60240, Tempo, 391952
1, 60240, Note_on_c, 0, 74, 0
1, 60240, Note_on_c, 0, 76, 59
1, 60360, Note_on_c, 0, 76, 0
1, 60360, Note_on_c, 0, 74, 59
1, 60480, Tempo, 399787
1, 60480, Note_on_c, 0, 74, 0
1, 60480, Note_on_c, 0, 67, 0
1, 60480, Note_on_c, 0, 65, 0
1, 60480, Note_on_c, 0, 72, 65
1, 60480, Note_on_c, 0, 64, 40
1, 60480, Note_on_c, 0, 67, 47
1, 60960, Tempo, 391952
1, 60960, Note_on_c, 0, 72, 0
1, 60960, Note_on_c, 0, 74, 59
1, 61080, Note_on_c, 0, 74, 0
1, 61080, Note_on_c, 0, 72, 59
1, 61200, Tempo, 399787
1, 61200, Note_on_c, 0, 72, 0
1, 61200, Note_on_c, 0, 67, 0
1, 61200, Note_on_c, 0, 64, 0
1, 61200, Note_on_c, 0, 71, 65
1, 61200, Note_on_c, 0, 67, 46
1, 61200, Note_on_c, 0, 65, 39
1, 61200, Note_on_c, 0, 62, 39
1, 61440, Tempo, 399787
1, 61680, Tempo, 405186
1, 61680, Note_on_c, 0, 71, 0
1, 61680, Note_on_c, 0, 72, 56
1, 61800, Note_on_c, 0, 72, 0
1, 61800, Note_on_c, 0, 71, 56
1, 61920, Tempo, 399787
1, 61920, Note_on_c, 0, 71, 0
1, 61920, Note_on_c, 0, 67, 0
1, 61920, Note_on_c, 0, 65, 0
1, 61920, Note_on_c, 0, 62, 0
1, 61920, Note_on_c, 0, 74, 62
1, 61920, Note_on_c, 0, 60, 44
1, 62040, Note_on_c, 0, 60, 0
1, 62040, Note_on_c, 0, 72, 54
1, 62052, Note_on_c, 0, 74, 0
1, 62160, Note_on_c, 0, 71, 54
1, 62160, Note_on_c, 0, 64, 37
1, 62172, Note_on_c, 0, 72, 0
1, 62280, Note_on_c, 0, 64, 0
1, 62280, Note_on_c, 0, 72, 54
1, 62292, Note_on_c, 0, 71, 0
1, 62400, Note_on_c, 0, 71, 53
1, 62400, Note_on_c, 0, 67, 37
1, 62412, Note_on_c, 0, 72, 0
1, 62520, Tempo, 410734
1, 62520, Note_on_c, 0, 67, 0
1, 62520, Note_on_c, 0, 72, 55
1, 62532, Note_on_c, 0, 71, 0
1, 62640, Tempo, 397141
1, 62640, Note_on_c, 0, 76, 59
1, 62640, Note_on_c, 0, 59, 43
1, 62652, Note_on_c, 0, 72, 0
1, 62760, Note_on_c, 0, 59, 0
1, 62760, Note_on_c, 0, 74, 55
1, 62772, Note_on_c, 0, 76, 0
1, 62880, Note_on_c, 0, 73, 55
1, 62880, Note_on_c, 0, 65, 37
1, 62892, Note_on_c, 0, 74, 0
1, 63000, Note_on_c, 0, 65, 0
1, 63000, Note_on_c, 0, 74, 55
1, 63012, Note_on_c, 0, 73, 0
1, 63120, Note_on_c, 0, 73, 55
1, 63120, Note_on_c, 0, 67, 37
1, 63132, Note_on_c, 0, 74, 0
1, 63240, Tempo, 413565
1, 63240, Note_on_c, 0, 67, 0
1, 63240, Note_on_c, 0, 74, 55
1, 63252, Note_on_c, 0, 73, 0
1, 63360, Tempo, 397141
1, 63360, Note_on_c, 0, 76, 59
1, 63360, Note_on_c, 0, 60, 46
1, 63360, Note_on_c, 0, 64, 46
1, 63360, Note_on_c, 0, 67, 46
1, 63372, Note_on_c, 0, 74, 0
1, 63480, Note_on_c, 0, 74, 54
1, 63492, Note_on_c, 0, 76, 0
1, 63600, Note_on_c, 0, 67, 0
1, 63600, Note_on_c, 0, 64, 0
1, 63600, Note_on_c, 0, 60, 0
1, 63600, Note_on_c, 0, 72, 54
1, 63612, Note_on_c, 0, 74, 0
1, 63720, Note_on_c, 0, 74, 54
1, 63732, Note_on_c, 0, 72, 0
1, 63840, Note_on_c, 0, 76, 54
1, 63852, Note_on_c, 0, 74, 0
1, 63960, Note_on_c, 0, 77, 54
1, 63972, Note_on_c, 0, 76, 0
1, 64080, Note_on_c, 0, 79, 59
1, 64092, Note_on_c, 0, 77, 0
1, 64200, Note_on_c, 0, 77, 55
1, 64212, Note_on_c, 0, 79, 0
1, 64320, Note_on_c, 0, 76, 55
1, 64332, Note_on_c, 0, 77, 0
1, 64440, Note_on_c, 0, 77, 55
1, 64452, Note_on_c, 0, 76, 0
1, 64560, Note_on_c, 0, 79, 55
1, 64572, Note_on_c, 0, 77, 0
1, 64680, Tempo, 413565
1, 64680, Note_on_c, 0, 80, 55
1, 64692, Note_on_c, 0, 79, 0
1, 64800, Tempo, 397141
1, 64800, Note_on_c, 0, 81, 59
1, 64800, Note_on_c, 0, 53, 41
1, 64812, Note_on_c, 0, 80, 0
1, 64920, Note_on_c, 0, 53, 0
1, 64920, Note_on_c, 0, 81, 0
1, 64920, Note_on_c, 0, 82, 55
1, 65040, Note_on_c, 0, 81, 55
1, 65040, Note_on_c, 0, 65, 35
1, 65052, Note_on_c, 0, 82, 0
1, 65160, Note_on_c, 0, 65, 0
1, 65160, Note_on_c, 0, 79, 55
1, 65172, Note_on_c, 0, 81, 0
1, 65280, Note_on_c, 0, 77, 55
1, 65292, Note_on_c, 0, 79, 0
1, 65400, Note_on_c, 0, 76, 54
1, 65412, Note_on_c, 0, 77, 0
1, 65520, Tempo, 419346
1, 65520, Note_on_c, 0, 74, 59
1, 65520, Note_on_c, 0, 47, 43
1, 65532, Note_on_c, 0, 76, 0
1, 65640, Tempo, 397141
1, 65640, Note_on_c, 0, 47, 0
1, 65640, Note_on_c, 0, 74, 0
1, 65640, Note_on_c, 0, 85, 54
1, 65760, Note_on_c, 0, 86, 63
1, 65760, Note_on_c, 0, 59, 38
1, 65772, Note_on_c, 0, 85, 0
1, 65880, Note_on_c, 0, 59, 0
1, 65880, Note_on_c, 0, 84, 62
1, 65892, Note_on_c, 0, 86, 0
1, 66000, Note_on_c, 0, 83, 60
1, 66012, Note_on_c, 0, 84, 0
1, 66120, Tempo, 407941
1, 66120, Note_on_c, 0, 81, 59
1, 66132, Note_on_c, 0, 83, 0
1, 66240, Tempo, 397141
1, 66240, Note_on_c, 0, 79, 59
1, 66240, Note_on_c, 0, 52, 44
1, 66252, Note_on_c, 0, 81, 0
1, 66360, Note_on_c, 0, 52, 0
1, 66360, Note_on_c, 0, 79, 0
1, 66360, Note_on_c, 0, 81, 60
1, 66480, Note_on_c, 0, 81, 0
1, 66480, Note_on_c, 0, 79, 60
1, 66480, Note_on_c, 0, 64, 40
1, 66600, Note_on_c, 0, 64, 0
1, 66600, Note_on_c, 0, 79, 0
1, 66600, Note_on_c, 0, 77, 60
1, 66720, Note_on_c, 0, 77, 0
1, 66720, Note_on_c, 0, 76, 60
1, 66840, Note_on_c, 0, 76, 0
1, 66840, Note_on_c, 0, 74, 59
1, 66960, Tempo, 419346
1, 66960, Note_on_c, 0, 74, 0
1, 66960, Note_on_c, 0, 72, 59
1, 66960, Note_on_c, 0, 45, 43
1, 67080, Tempo, 397141
1, 67080, Note_on_c, 0, 45, 0
1, 67080, Note_on_c, 0, 72, 0
1, 67080, Note_on_c, 0, 83, 56
1, 67200, Note_on_c, 0, 84, 63
1, 67200, Note_on_c, 0, 57, 40
1, 67212, Note_on_c, 0, 83, 0
1, 67320, Note_on_c, 0, 57, 0
1, 67320, Note_on_c, 0, 83, 62
1, 67332, Note_on_c, 0, 84, 0
1, 67440, Note_on_c, 0, 81, 60
1, 67452, Note_on_c, 0, 83, 0
1, 67560, Note_on_c, 0, 79, 59
1, 67572, Note_on_c, 0, 81, 0
1, 67680, Tempo, 422297
1, 67680, Note_on_c, 0, 77, 56
1, 67680, Note_on_c, 0, 50, 48
1, 67692, Note_on_c, 0, 79, 0
1, 67800, Tempo, 394529
1, 67800, Note_on_c, 0, 50, 0
1, 67800, Note_on_c, 0, 77, 0
1, 67800, Note_on_c, 0, 85, 61
1, 67920, Note_on_c, 0, 85, 0
1, 67920, Note_on_c, 0, 86, 68
1, 68040, Note_on_c, 0, 86, 0
1, 68040, Note_on_c, 0, 83, 63
1, 68160, Note_on_c, 0, 83, 0
1, 68160, Note_on_c, 0, 79, 63
1, 68160, Note_on_c, 0, 59, 43
1, 68280, Note_on_c, 0, 59, 0
1, 68280, Note_on_c, 0, 79, 0
1, 68280, Note_on_c, 0, 77, 63
1, 68400, Tempo, 419346
1, 68400, Note_on_c, 0, 77, 0
1, 68400, Note_on_c, 0, 76, 60
1, 68400, Note_on_c, 0, 60, 49
1, 68520, Tempo, 394529
1, 68520, Note_on_c, 0, 60, 0
1, 68520, Note_on_c, 0, 76, 0
1, 68520, Note_on_c, 0, 83, 53
1, 68640, Note_on_c, 0, 84, 59
1, 68652, Note_on_c, 0, 83, 0
1, 68760, Note_on_c, 0, 79, 54
1, 68772, Note_on_c, 0, 84, 0
1, 68880, Note_on_c, 0, 77, 54
1, 68880, Note_on_c, 0, 48, 40
1, 68892, Note_on_c, 0, 79, 0
1, 69000, Tempo, 397141
1, 69000, Note_on_c, 0, 48, 0
1, 69000, Note_on_c, 0, 76, 54
1, 69012, Note_on_c, 0, 77, 0
1, 69120, Tempo, 394529
1, 69120, Note_on_c, 0, 74, 59
1, 69120, Note_on_c, 0, 55, 47
1, 69132, Note_on_c, 0, 76, 0
1, 69240, Note_on_c, 0, 55, 0
1, 69240, Note_on_c, 0, 74, 0
1, 69240, Note_on_c, 0, 76, 58
1, 69360, Note_on_c, 0, 74, 62
1, 69372, Note_on_c, 0, 76, 0
1, 69480, Note_on_c, 0, 72, 61
1, 69492, Note_on_c, 0, 74, 0
1, 69600, Note_on_c, 0, 71, 60
1, 69612, Note_on_c, 0, 72, 0
1, 69720, Note_on_c, 0, 69, 59
1, 69732, Note_on_c, 0, 71, 0
1, 69840, Note_on_c, 0, 67, 57
1, 69848, Tempo, 391952
1, 69852, Note_on_c, 0, 69, 0
1, 69923, Tempo, 394529
1, 69960, Note_on_c, 0, 69, 57
1, 69972, Note_on_c, 0, 67, 0
1, 69983, Tempo, 397141
1, 70043, Tempo, 399787
1, 70080, Note_on_c, 0, 67, 56
1, 70092, Note_on_c, 0, 69, 0
1, 70103, Tempo, 402468
1, 70178, Tempo, 405186
1, 70200, Note_on_c, 0, 65, 55
1, 70212, Note_on_c, 0, 67, 0
1, 70238, Tempo, 407941
1, 70298, Tempo, 410734
1, 70320, Note_on_c, 0, 64, 52
1, 70332, Note_on_c, 0, 65, 0
1, 70358, Tempo, 413565
1, 70418, Tempo, 416435
1, 70440, Tempo, 570994
1, 70440, Note_on_c, 0, 62, 51
1, 70452, Note_on_c, 0, 64, 0
1, 70560, Tempo, 398063
1, 70560, Note_on_c, 0, 62, 0
1, 70560, Note_on_c, 0, 75, 49
1, 70560, Note_on_c, 0, 60, 41
1, 70737, Control_c, 0, 64, 127
1, 70800, Note_on_c, 0, 60, 0
1, 70800, Note_on_c, 0, 63, 31
1, 71040, Note_on_c, 0, 63, 0
1, 71040, Note_on_c, 0, 67, 31
1, 71280, Note_on_c, 0, 67, 0
1, 71280, Note_on_c, 0, 60, 37
1, 71485, Control_c, 0, 64, 0
1, 71520, Tempo, 394529
1, 71520, Note_on_c, 0, 60, 0
1, 71520, Note_on_c, 0, 75, 0
1, 71520, Note_on_c, 0, 74, 43
1, 71520, Note_on_c, 0, 63, 31
1, 71640, Note_on_c, 0, 74, 0
1, 71760, Note_on_c, 0, 63, 0
1, 71760, Note_on_c, 0, 72, 43
1, 71760, Note_on_c, 0, 67, 31
1, 71880, Tempo, 432495
1, 71880, Note_on_c, 0, 72, 0
1, 72000, Tempo, 398063
1, 72000, Note_on_c, 0, 67, 0
1, 72000, Note_on_c, 0, 78, 49
1, 72000, Note_on_c, 0, 59, 41
1, 72000, Control_c, 0, 64, 127
1, 72240, Note_on_c, 0, 59, 0
1, 72240, Note_on_c, 0, 62, 31
1, 72480, Note_on_c, 0, 62, 0
1, 72480, Note_on_c, 0, 78, 0
1, 72480, Note_on_c, 0, 79, 43
1, 72480, Note_on_c, 0, 67, 31
1, 72720, Note_on_c, 0, 67, 0
1, 72720, Note_on_c, 0, 79, 0
1, 72720, Note_on_c, 0, 74, 43
1, 72720, Note_on_c, 0, 59, 36
1, 72734, Control_c, 0, 64, 0
1, 72854, Control_c, 0, 64, 127
1, 72960, Note_on_c, 0, 59, 0
1, 72960, Note_on_c, 0, 62, 31
1, 73200, Note_on_c, 0, 62, 0
1, 73200, Note_on_c, 0, 74, 0
1, 73200, Note_on_c, 0, 67, 31
1, 73320, Tempo, 442054
1, 73440, Tempo, 398063
1, 73440, Note_on_c, 0, 67, 0
1, 73440, Note_on_c, 0, 80, 58
1, 73440, Note_on_c, 0, 59, 41
1, 73451, Control_c, 0, 64, 0
1, 73581, Control_c, 0, 64, 127
1, 73680, Note_on_c, 0, 59, 0
1, 73680, Note_on_c, 0, 62, 31
1, 73920, Note_on_c, 0, 62, 0
1, 73920, Note_on_c, 0, 65, 31
1, 74160, Note_on_c, 0, 65, 0
1, 74160, Note_on_c, 0, 59, 37
1, 74365, Control_c, 0, 64, 0
1, 74400, Tempo, 394529
1, 74400, Note_on_c, 0, 59, 0
1, 74400, Note_on_c, 0, 80, 0
1, 74400, Note_on_c, 0, 79, 49
1, 74400, Note_on_c, 0, 62, 31
1, 74520, Note_on_c, 0, 79, 0
1, 74640, Note_on_c, 0, 62, 0
1, 74640, Note_on_c, 0, 77, 49
1, 74640, Note_on_c, 0, 67, 31
1, 74760, Tempo, 432495
1, 74760, Note_on_c, 0, 77, 0
1, 74880, Tempo, 398063
1, 74880, Note_on_c, 0, 67, 0
1, 74880, Note_on_c, 0, 75, 60
1, 74880, Note_on_c, 0, 60, 41
1, 74880, Control_c, 0, 64, 127
1, 75120, Tempo, 407941
1, 75120, Note_on_c, 0, 60, 0
1, 75120, Note_on_c, 0, 75, 0
1, 75120, Note_on_c, 0, 77, 42
1, 75120, Note_on_c, 0, 63, 31
1, 75200, Note_on_c, 0, 77, 0
1, 75200, Note_on_c, 0, 75, 42
1, 75280, Note_on_c, 0, 75, 0
1, 75280, Note_on_c, 0, 74, 42
1, 75360, Tempo, 410734
1, 75360, Note_on_c, 0, 74, 0
1, 75360, Note_on_c, 0, 63, 0
1, 75360, Note_on_c, 0, 75, 51
1, 75360, Note_on_c, 0, 67, 31
1, 75480, Tempo, 464828
1, 75480, Note_on_c, 0, 75, 0
1, 75480, Note_on_c, 0, 77, 44
1, 75600, Tempo, 397141
1, 75600, Note_on_c, 0, 77, 0
1, 75600, Note_on_c, 0, 67, 0
1, 75600, Note_on_c, 0, 79, 51
1, 75600, Note_on_c, 0, 60, 36
1, 75614, Control_c, 0, 64, 0
1, 75734, Control_c, 0, 64, 127
1, 75840, Note_on_c, 0, 60, 0
1, 75840, Note_on_c, 0, 63, 31
1, 76080, Note_on_c, 0, 63, 0
1, 76080, Note_on_c, 0, 79, 0
1, 76080, Note_on_c, 0, 67, 31
1, 76200, Tempo, 442054
1, 76320, Tempo, 402468
1, 76320, Note_on_c, 0, 67, 0
1, 76320, Note_on_c, 0, 84, 66
1, 76320, Note_on_c, 0, 63, 47
1, 76320, Control_c, 0, 64, 0
1, 76503, Control_c, 0, 64, 127
1, 76560, Note_on_c, 0, 63, 0
1, 76560, Note_on_c, 0, 67, 36
1, 76800, Note_on_c, 0, 67, 0
1, 76800, Note_on_c, 0, 72, 36
1, 77040, Tempo, 394763
1, 77040, Note_on_c, 0, 72, 0
1, 77040, Note_on_c, 0, 84, 0
1, 77040, Note_on_c, 0, 82, 54
1, 77040, Note_on_c, 0, 62, 44
1, 77051, Control_c, 0, 64, 0
1, 77212, Control_c, 0, 64, 127
1, 77280, Tempo, 400027
1, 77280, Note_on_c, 0, 62, 0
1, 77280, Note_on_c, 0, 65, 32
1, 77520, Tempo, 410987
1, 77520, Note_on_c, 0, 65, 0
1, 77520, Note_on_c, 0, 82, 0
1, 77520, Note_on_c, 0, 84, 50
1, 77520, Note_on_c, 0, 70, 33
1, 77760, Tempo, 397377
1, 77760, Note_on_c, 0, 70, 0
1, 77760, Note_on_c, 0, 84, 0
1, 77760, Note_on_c, 0, 82, 57
1, 77760, Note_on_c, 0, 60, 48
1, 77766, Control_c, 0, 64, 0
1, 77852, Control_c, 0, 64, 127
1, 78000, Note_on_c, 0, 60, 0
1, 78000, Note_on_c, 0, 63, 36
1, 78240, Note_on_c, 0, 63, 0
1, 78240, Note_on_c, 0, 82, 0
1, 78240, Note_on_c, 0, 80, 52
1, 78240, Note_on_c, 0, 68, 36
1, 78480, Note_on_c, 0, 68, 0
1, 78480, Note_on_c, 0, 80, 0
1, 78480, Note_on_c, 0, 79, 55
1, 78480, Note_on_c, 0, 58, 45
1, 78485, Control_c, 0, 64, 0
1, 78652, Control_c, 0, 64, 127
1, 78720, Note_on_c, 0, 58, 0
1, 78720, Note_on_c, 0, 62, 31
1, 78960, Tempo, 408191
1, 78960, Note_on_c, 0, 62, 0
1, 78960, Note_on_c, 0, 67, 31
1, 79200, Tempo, 397377
1, 79200, Note_on_c, 0, 67, 0
1, 79200, Note_on_c, 0, 79, 0
1, 79200, Note_on_c, 0, 77, 59
1, 79200, Note_on_c, 0, 56, 46
1, 79200, Control_c, 0, 64, 0
1, 79337, Control_c, 0, 64, 127
1, 79440, Note_on_c, 0, 56, 0
1, 79440, Note_on_c, 0, 60, 35
1, 79680, Note_on_c, 0, 60, 0
1, 79680, Note_on_c, 0, 77, 0
1, 79680, Note_on_c, 0, 75, 53
1, 79680, Note_on_c, 0, 65, 35
1, 79920, Note_on_c, 0, 65, 0
1, 79920, Note_on_c, 0, 75, 0
1, 79920, Note_on_c, 0, 74, 57
1, 79920, Note_on_c, 0, 56, 43
1, 79931, Control_c, 0, 64, 0
1, 80023, Control_c, 0, 64, 127
1, 80160, Note_on_c, 0, 56, 0
1, 80160, Note_on_c, 0, 60, 36
1, 80400, Tempo, 422565
1, 80400, Note_on_c, 0, 60, 0
1, 80400, Note_on_c, 0, 74, 0
1, 80400, Note_on_c, 0, 72, 47
1, 80400, Note_on_c, 0, 66, 34
1, 80640, Tempo, 397377
1, 80640, Note_on_c, 0, 66, 0
1, 80640, Note_on_c, 0, 72, 0
1, 80640, Note_on_c, 0, 75, 53
1, 80640, Note_on_c, 0, 55, 43
1, 80645, Control_c, 0, 64, 0
1, 80743, Control_c, 0, 64, 127
1, 80880, Note_on_c, 0, 55, 0
1, 80880, Note_on_c, 0, 60, 29
1, 81120, Note_on_c, 0, 60, 0
1, 81120, Note_on_c, 0, 67, 30
1, 81360, Note_on_c, 0, 67, 0
1, 81360, Note_on_c, 0, 75, 0
1, 81360, Note_on_c, 0, 74, 45
1, 81360, Note_on_c, 0, 55, 39
1, 81395, Control_c, 0, 64, 0
1, 81532, Control_c, 0, 64, 127
1, 81600, Note_on_c, 0, 55, 0
1, 81600, Note_on_c, 0, 74, 0
1, 81600, Note_on_c, 0, 59, 27
1, 81840, Tempo, 422565
1, 81840, Note_on_c, 0, 59, 0
1, 81840, Note_on_c, 0, 67, 27
1, 82080, Tempo, 397377
1, 82080, Note_on_c, 0, 67, 0
1, 82080, Note_on_c, 0, 75, 49
1, 82080, Note_on_c, 0, 60, 41
1, 82080, Control_c, 0, 64, 0
1, 82180, Control_c, 0, 64, 127
1, 82320, Note_on_c, 0, 60, 0
1, 82320, Note_on_c, 0, 63, 31
1, 82560, Note_on_c, 0, 63, 0
1, 82560, Note_on_c, 0, 67, 31
1, 82800, Note_on_c, 0, 67, 0
1, 82800, Note_on_c, 0, 60, 37
1, 83005, Control_c, 0, 64, 0
1, 83040, Tempo, 394529
1, 83040, Note_on_c, 0, 60, 0
1, 83040, Note_on_c, 0, 75, 0
1, 83040, Note_on_c, 0, 74, 43
1, 83040, Note_on_c, 0, 63, 31
1, 83160, Note_on_c, 0, 74, 0
1, 83280, Note_on_c, 0, 63, 0
1, 83280, Note_on_c, 0, 72, 43
1, 83280, Note_on_c, 0, 67, 31
1, 83400, Tempo, 432495
1, 83400, Note_on_c, 0, 72, 0
1, 83520, Tempo, 398063
1, 83520, Note_on_c, 0, 67, 0
1, 83520, Note_on_c, 0, 78, 49
1, 83520, Note_on_c, 0, 59, 41
1, 83520, Control_c, 0, 64, 127
1, 83760, Note_on_c, 0, 59, 0
1, 83760, Note_on_c, 0, 62, 31
1, 84000, Note_on_c, 0, 62, 0
1, 84000, Note_on_c, 0, 78, 0
1, 84000, Note_on_c, 0, 79, 43
1, 84000, Note_on_c, 0, 67, 31
1, 84240, Note_on_c, 0, 67, 0
1, 84240, Note_on_c, 0, 79, 0
1, 84240, Note_on_c, 0, 74, 43
1, 84240, Note_on_c, 0, 59, 36
1, 84254, Control_c, 0, 64, 0
1, 84374, Control_c, 0, 64, 127
1, 84480, Note_on_c, 0, 59, 0
1, 84480, Note_on_c, 0, 62, 31
1, 84720, Note_on_c, 0, 62, 0
1, 84720, Note_on_c, 0, 74, 0
1, 84720, Note_on_c, 0, 67, 31
1, 84840, Tempo, 442054
1, 84960, Tempo, 398063
1, 84960, Note_on_c, 0, 67, 0
1, 84960, Note_on_c, 0, 80, 58
1, 84960, Note_on_c, 0, 59, 41
1, 84971, Control_c, 0, 64, 0
1, 85101, Control_c, 0, 64, 127
1, 85200, Note_on_c, 0, 59, 0
1, 85200, Note_on_c, 0, 62, 31
1, 85440, Note_on_c, 0, 62, 0
1, 85440, Note_on_c, 0, 65, 31
1, 85680, Note_on_c, 0, 65, 0
1, 85680, Note_on_c, 0, 59, 37
1, 85885, Control_c, 0, 64, 0
1, 85920, Tempo, 394529
1, 85920, Note_on_c, 0, 59, 0
1, 85920, Note_on_c, 0, 80, 0
1, 85920, Note_on_c, 0, 79, 49
1, 85920, Note_on_c, 0, 62, 31
1, 86040, Note_on_c, 0, 79, 0
1, 86160, Note_on_c, 0, 62, 0
1, 86160, Note_on_c, 0, 77, 49
1, 86160, Note_on_c, 0, 67, 31
1, 86280, Tempo, 432495
1, 86280, Note_on_c, 0, 77, 0
1, 86400, Tempo, 398063
1, 86400, Note_on_c, 0, 67, 0
1, 86400, Note_on_c, 0, 76, 60
1, 86400, Note_on_c, 0, 58, 41
1, 86400, Control_c, 0, 64, 127
1, 86640, Tempo, 407941
1, 86640, Note_on_c, 0, 58, 0
1, 86640, Note_on_c, 0, 76, 0
1, 86640, Note_on_c, 0, 61, 31
1, 86880, Tempo, 410734
1, 86880, Note_on_c, 0, 61, 0
1, 86880, Note_on_c, 0, 77, 51
1, 86880, Note_on_c, 0, 67, 31
1, 87000, Tempo, 464828
1, 87000, Note_on_c, 0, 77, 0
1, 87000, Note_on_c, 0, 79, 44
1, 87120, Tempo, 397141
1, 87120, Note_on_c, 0, 79, 0
1, 87120, Note_on_c, 0, 67, 0
1, 87120, Note_on_c, 0, 77, 51
1, 87120, Note_on_c, 0, 57, 36
1, 87134, Control_c, 0, 64, 0
1, 87254, Control_c, 0, 64, 127
1, 87360, Note_on_c, 0, 57, 0
1, 87360, Note_on_c, 0, 60, 31
1, 87600, Note_on_c, 0, 60, 0
1, 87600, Note_on_c, 0, 77, 0
1, 87600, Note_on_c, 0, 65, 31
1, 87720, Tempo, 442054
1, 87840, Tempo, 402468
1, 87840, Note_on_c, 0, 65, 0
1, 87840, Note_on_c, 0, 87, 71
1, 87840, Note_on_c, 0, 56, 52
1, 87840, Control_c, 0, 64, 0
1, 88023, Control_c, 0, 64, 127
1, 88080, Note_on_c, 0, 56, 0
1, 88080, Note_on_c, 0, 60, 41
1, 88320, Note_on_c, 0, 60, 0
1, 88320, Note_on_c, 0, 66, 41
1, 88560, Note_on_c, 0, 66, 0
1, 88560, Note_on_c, 0, 87, 0
1, 88560, Note_on_c, 0, 55, 51
1, 88571, Control_c, 0, 64, 0
1, 88800, Tempo, 387122
1, 88800, Note_on_c, 0, 55, 0
1, 88800, Note_on_c, 0, 86, 58
1, 88800, Note_on_c, 0, 60, 36
1, 88920, Tempo, 410987
1, 88920, Note_on_c, 0, 86, 0
1, 89040, Tempo, 397377
1, 89040, Note_on_c, 0, 60, 0
1, 89040, Note_on_c, 0, 84, 58
1, 89040, Note_on_c, 0, 67, 36
1, 89160, Note_on_c, 0, 84, 0
1, 89280, Note_on_c, 0, 67, 0
1, 89280, Note_on_c, 0, 83, 66
1, 89280, Note_on_c, 0, 53, 56
1, 89372, Control_c, 0, 64, 127
1, 89520, Note_on_c, 0, 53, 0
1, 89520, Note_on_c, 0, 56, 36
1, 89760, Note_on_c, 0, 56, 0
1, 89760, Note_on_c, 0, 62, 36
1, 90000, Note_on_c, 0, 62, 0
1, 90000, Note_on_c, 0, 83, 0
1, 90000, Note_on_c, 0, 84, 68
1, 90000, Note_on_c, 0, 51, 45
1, 90005, Control_c, 0, 64, 0
1, 90172, Control_c, 0, 64, 127
1, 90240, Note_on_c, 0, 51, 0
1, 90240, Note_on_c, 0, 60, 31
1, 90480, Tempo, 389636
1, 90480, Note_on_c, 0, 60, 0
1, 90480, Note_on_c, 0, 84, 0
1, 90480, Note_on_c, 0, 80, 46
1, 90480, Note_on_c, 0, 53, 31
1, 90720, Tempo, 397377
1, 90720, Note_on_c, 0, 53, 0
1, 90720, Note_on_c, 0, 80, 0
1, 90720, Note_on_c, 0, 72, 55
1, 90720, Note_on_c, 0, 55, 45
1, 90720, Control_c, 0, 64, 0
1, 90755, Control_c, 0, 64, 127
1, 90960, Note_on_c, 0, 55, 0
1, 90960, Note_on_c, 0, 60, 30
1, 91200, Note_on_c, 0, 60, 0
1, 91200, Note_on_c, 0, 63, 30
1, 91380, Note_on_c, 0, 72, 0
1, 91380, Note_on_c, 0, 75, 40
1, 91440, Note_on_c, 0, 75, 0
1, 91440, Note_on_c, 0, 63, 0
1, 91440, Note_on_c, 0, 74, 51
1, 91440, Note_on_c, 0, 71, 51
1, 91440, Note_on_c, 0, 55, 38
1, 91451, Control_c, 0, 64, 0
1, 91497, Control_c, 0, 64, 127
1, 91680, Note_on_c, 0, 55, 0
1, 91680, Note_on_c, 0, 62, 31
1, 91920, Note_on_c, 0, 62, 0
1, 91920, Note_on_c, 0, 65, 31
1, 92040, Tempo, 468787
1, 92160, Note_on_c, 0, 65, 0
1, 92160, Note_on_c, 0, 71, 0
1, 92160, Note_on_c, 0, 74, 0
1, 92160, Note_on_c, 0, 72, 74
1, 92160, Note_on_c, 0, 60, 67
1, 92160, Note_on_c, 0, 64, 67
1, 92173, Tempo, 397141
1, 92246, Control_c, 0, 64, 0
1, 92280, Note_on_c, 0, 72, 0
1, 92280, Note_on_c, 0, 79, 62
1, 92400, Note_on_c, 0, 79, 0
1, 92400, Note_on_c, 0, 78, 62
1, 92413, Tempo, 386897
1, 92520, Note_on_c, 0, 78, 0
1, 92520, Note_on_c, 0, 79, 62
1, 92640, Note_on_c, 0, 79, 0
1, 92640, Note_on_c, 0, 64, 0
1, 92640, Note_on_c, 0, 60, 0
1, 92640, Note_on_c, 0, 81, 69
1, 92653, Tempo, 410734
1, 92760, Note_on_c, 0, 81, 0
1, 92760, Note_on_c, 0, 79, 62
1, 92880, Tempo, 389408
1, 92880, Note_on_c, 0, 79, 0
1, 92880, Note_on_c, 0, 77, 65
1, 92880, Note_on_c, 0, 62, 67
1, 93000, Note_on_c, 0, 62, 0
1, 93000, Note_on_c, 0, 77, 0
1, 93000, Note_on_c, 0, 79, 60
1, 93120, Tempo, 384418
1, 93120, Note_on_c, 0, 79, 0
1, 93120, Note_on_c, 0, 77, 65
1, 93120, Note_on_c, 0, 59, 62
1, 93240, Note_on_c, 0, 59, 0
1, 93240, Note_on_c, 0, 77, 0
1, 93240, Note_on_c, 0, 79, 59
1, 93360, Note_on_c, 0, 79, 0
1, 93360, Note_on_c, 0, 77, 65
1, 93360, Note_on_c, 0, 55, 62
1, 93373, Tempo, 402468
1, 93480, Note_on_c, 0, 55, 0
1, 93480, Note_on_c, 0, 77, 0
1, 93480, Note_on_c, 0, 79, 59
1, 93600, Tempo, 402468
1, 93600, Note_on_c, 0, 79, 0
1, 93600, Note_on_c, 0, 76, 74
1, 93600, Note_on_c, 0, 60, 67
1, 93613, Tempo, 397141
1, 93720, Note_on_c, 0, 76, 0
1, 93720, Note_on_c, 0, 79, 62
1, 93840, Note_on_c, 0, 79, 0
1, 93840, Note_on_c, 0, 78, 62
1, 93853, Tempo, 386897
1, 93960, Note_on_c, 0, 78, 0
1, 93960, Note_on_c, 0, 79, 62
1, 94080, Note_on_c, 0, 79, 0
1, 94080, Note_on_c, 0, 60, 0
1, 94080, Note_on_c, 0, 84, 74
1, 94093, Tempo, 410734
1, 94200, Note_on_c, 0, 84, 0
1, 94200, Note_on_c, 0, 79, 62
1, 94320, Tempo, 391952
1, 94320, Note_on_c, 0, 79, 0
1, 94320, Note_on_c, 0, 77, 65
1, 94320, Note_on_c, 0, 62, 67
1, 94440, Note_on_c, 0, 62, 0
1, 94440, Note_on_c, 0, 77, 0
1, 94440, Note_on_c, 0, 79, 60
1, 94560, Tempo, 381971
1, 94560, Note_on_c, 0, 79, 0
1, 94560, Note_on_c, 0, 77, 65
1, 94560, Note_on_c, 0, 59, 62
1, 94680, Note_on_c, 0, 59, 0
1, 94680, Note_on_c, 0, 77, 0
1, 94680, Note_on_c, 0, 79, 59
1, 94800, Note_on_c, 0, 79, 0
1, 94800, Note_on_c, 0, 77, 65
1, 94800, Note_on_c, 0, 55, 62
1, 94813, Tempo, 402468
1, 94920, Note_on_c, 0, 55, 0
1, 94920, Note_on_c, 0, 77, 0
1, 94920, Note_on_c, 0, 79, 59
1, 95040, Tempo, 402468
1, 95040, Note_on_c, 0, 79, 0
1, 95040, Note_on_c, 0, 76, 74
1, 95040, Note_on_c, 0, 60, 67
1, 95053, Tempo, 397141
1, 95160, Note_on_c, 0, 76, 0
1, 95160, Note_on_c, 0, 79, 62
1, 95280, Note_on_c, 0, 79, 0
1, 95280, Note_on_c, 0, 78, 62
1, 95293, Tempo, 386897
1, 95400, Note_on_c, 0, 78, 0
1, 95400, Note_on_c, 0, 79, 62
1, 95520, Note_on_c, 0, 79, 0
1, 95520, Note_on_c, 0, 60, 0
1, 95520, Note_on_c, 0, 84, 72
1, 95533, Tempo, 410734
1, 95640, Note_on_c, 0, 84, 0
1, 95640, Note_on_c, 0, 79, 62
1, 95760, Tempo, 384418
1, 95760, Note_on_c, 0, 79, 0
1, 95760, Note_on_c, 0, 77, 65
1, 95760, Note_on_c, 0, 62, 67
1, 95880, Note_on_c, 0, 62, 0
1, 95880, Note_on_c, 0, 77, 0
1, 95880, Note_on_c, 0, 79, 60
1, 96000, Note_on_c, 0, 79, 0
1, 96000, Note_on_c, 0, 77, 65
1, 96000, Note_on_c, 0, 59, 62
1, 96013, Tempo, 384418
1, 96120, Note_on_c, 0, 59, 0
1, 96120, Note_on_c, 0, 77, 0
1, 96120, Note_on_c, 0, 79, 59
1, 96240, Note_on_c, 0, 79, 0
1, 96240, Note_on_c, 0, 77, 65
1, 96240, Note_on_c, 0, 55, 62
1, 96253, Tempo, 402468
1, 96360, Note_on_c, 0, 55, 0
1, 96360, Note_on_c, 0, 77, 0
1, 96360, Note_on_c, 0, 79, 59
1, 96480, Tempo, 402468
1, 96480, Note_on_c, 0, 79, 0
1, 96480, Note_on_c, 0, 76, 74
1, 96480, Note_on_c, 0, 60, 67
1, 96493, Tempo, 397141
1, 96600, Note_on_c, 0, 76, 0
1, 96600, Note_on_c, 0, 79, 62
1, 96720, Note_on_c, 0, 79, 0
1, 96720, Note_on_c, 0, 84, 71
1, 96733, Tempo, 386897
1, 96840, Note_on_c, 0, 84, 0
1, 96840, Note_on_c, 0, 76, 60
1, 96960, Note_on_c, 0, 76, 0
1, 96960, Note_on_c, 0, 60, 0
1, 96960, Note_on_c, 0, 74, 70
1, 96969, Control_c, 0, 64, 127
1, 96973, Tempo, 410734
1, 97080, Note_on_c, 0, 74, 0
1, 97080, Note_on_c, 0, 83, 62
1, 97170, Tempo, 394529
1, 97200, Note_on_c, 0, 83, 0
1, 97200, Note_on_c, 0, 72, 70
1, 97208, Control_c, 0, 64, 0
1, 97240, Control_c, 0, 64, 127
1, 97242, Tempo, 391952
1, 97290, Tempo, 389408
1, 97320, Note_on_c, 0, 72, 0
1, 97320, Note_on_c, 0, 81, 62
1, 97362, Tempo, 386897
1, 97410, Tempo, 384418
1, 97440, Tempo, 381971
1, 97440, Note_on_c, 0, 81, 0
1, 97440, Note_on_c, 0, 71, 69
1, 97451, Control_c, 0, 64, 0
1, 97458, Tempo, 379555
1, 97520, Control_c, 0, 64, 127
1, 97560, Note_on_c, 0, 71, 0
1, 97560, Note_on_c, 0, 79, 60
1, 97650, Tempo, 377169
1, 97680, Note_on_c, 0, 79, 0
1, 97680, Note_on_c, 0, 69, 67
1, 97687, Control_c, 0, 64, 0
1, 97726, Control_c, 0, 64, 127
1, 97800, Note_on_c, 0, 69, 0
1, 97800, Note_on_c, 0, 77, 58
1, 97842, Tempo, 374813
1, 97878, Tempo, 381971
1, 97920, Tempo, 374813
1, 97920, Note_on_c, 0, 77, 0
1, 97920, Note_on_c, 0, 67, 69
1, 97927, Control_c, 0, 64, 0
1, 97977, Control_c, 0, 64, 127
1, 98040, Note_on_c, 0, 67, 0
1, 98040, Note_on_c, 0, 76, 62
1, 98160, Note_on_c, 0, 76, 0
1, 98160, Note_on_c, 0, 65, 67
1, 98170, Control_c, 0, 64, 0
1, 98246, Control_c, 0, 64, 127
1, 98280, Note_on_c, 0, 65, 0
1, 98280, Note_on_c, 0, 74, 59
1, 98400, Note_on_c, 0, 74, 0
1, 98400, Note_on_c, 0, 64, 66
1, 98409, Control_c, 0, 64, 0
1, 98469, Control_c, 0, 64, 127
1, 98520, Note_on_c, 0, 64, 0
1, 98520, Note_on_c, 0, 72, 56
1, 98640, Note_on_c, 0, 72, 0
1, 98640, Note_on_c, 0, 62, 62
1, 98649, Control_c, 0, 64, 0
1, 98655, Tempo, 386897
1, 98709, Control_c, 0, 64, 127
1, 98715, Tempo, 389408
1, 98760, Note_on_c, 0, 62, 0
1, 98760, Note_on_c, 0, 71, 54
1, 98775, Tempo, 391952
1, 98835, Tempo, 394529
1, 98880, Note_on_c, 0, 71, 0
1, 98880, Note_on_c, 0, 60, 63
1, 98890, Control_c, 0, 64, 0
1, 98895, Tempo, 397141
1, 98943, Control_c, 0, 64, 127
1, 98955, Tempo, 399787
1, 99000, Note_on_c, 0, 60, 0
1, 99000, Note_on_c, 0, 69, 55
1, 99015, Tempo, 402468
1, 99075, Tempo, 405186
1, 99120, Note_on_c, 0, 69, 0
1, 99120, Note_on_c, 0, 59, 62
1, 99132, Control_c, 0, 64, 0
1, 99135, Tempo, 407941
1, 99183, Control_c, 0, 64, 127
1, 99195, Tempo, 410734
1, 99240, Note_on_c, 0, 59, 0
1, 99240, Note_on_c, 0, 67, 51
1, 99255, Tempo, 413565
1, 99315, Tempo, 416435
1, 99360, Tempo, 402468
1, 99360, Note_on_c, 0, 67, 0
1, 99360, Note_on_c, 0, 57, 45
1, 99360, Note_on_c, 0, 66, 55
1, 99360, Control_c, 0, 64, 0
1, 99600, Tempo, 391952
1, 99600, Note_on_c, 0, 45, 46
1, 99840, Tempo, 397141
1, 99840, Note_on_c, 0, 48, 49
1, 99864, Note_on_c, 0, 45, 0
1, 100080, Tempo, 391952
1, 100080, Note_on_c, 0, 57, 0
1, 100080, Note_on_c, 0, 66, 0
1, 100080, Note_on_c, 0, 56, 45
1, 100080, Note_on_c, 0, 65, 55
1, 100080, Note_on_c, 0, 51, 51
1, 100104, Note_on_c, 0, 48, 0
1, 100320, Note_on_c, 0, 50, 46
1, 100344, Note_on_c, 0, 51, 0
1, 100560, Tempo, 399787
1, 100560, Note_on_c, 0, 48, 46
1, 100584, Note_on_c, 0, 50, 0
1, 100800, Tempo, 405186
1, 100800, Note_on_c, 0, 56, 0
1, 100800, Note_on_c, 0, 65, 0
1, 100800, Note_on_c, 0, 68, 45
1, 100800, Note_on_c, 0, 77, 55
1, 101040, Tempo, 389408
1, 101040, Note_on_c, 0, 48, 0
1, 101040, Note_on_c, 0, 47, 45
1, 101280, Tempo, 394529
1, 101280, Note_on_c, 0, 50, 46
1, 101304, Note_on_c, 0, 47, 0
1, 101520, Tempo, 389408
1, 101520, Note_on_c, 0, 68, 0
1, 101520, Note_on_c, 0, 77, 0
1, 101520, Note_on_c, 0, 62, 45
1, 101520, Note_on_c, 0, 71, 55
1, 101520, Note_on_c, 0, 56, 51
1, 101544, Note_on_c, 0, 50, 0
1, 101760, Note_on_c, 0, 55, 46
1, 101784, Note_on_c, 0, 56, 0
1, 102000, Tempo, 399787
1, 102000, Note_on_c, 0, 53, 46
1, 102024, Note_on_c, 0, 55, 0
1, 102240, Tempo, 402468
1, 102240, Note_on_c, 0, 62, 0
1, 102240, Note_on_c, 0, 71, 0
1, 102240, Note_on_c, 0, 52, 36
1, 102264, Note_on_c, 0, 53, 0
1, 102480, Tempo, 389408
1, 102480, Note_on_c, 0, 52, 0
1, 102480, Note_on_c, 0, 79, 49
1, 102600, Note_on_c, 0, 79, 0
1, 102720, Note_on_c, 0, 79, 49
1, 102840, Note_on_c, 0, 79, 0
1, 102960, Tempo, 402468
1, 102960, Note_on_c, 0, 53, 40
1, 103200, Tempo, 389408
1, 103200, Note_on_c, 0, 53, 0
1, 103200, Note_on_c, 0, 81, 49
1, 103320, Note_on_c, 0, 81, 0
1, 103440, Tempo, 407941
1, 103440, Note_on_c, 0, 81, 49
1, 103560, Note_on_c, 0, 81, 0
1, 103680, Tempo, 402468
1, 103680, Note_on_c, 0, 67, 39
1, 103680, Note_on_c, 0, 72, 47
1, 103680, Note_on_c, 0, 55, 34
1, 103680, Note_on_c, 0, 64, 40
1, 103761, Control_c, 0, 64, 127
1, 104340, Note_on_c, 0, 72, 0
1, 104340, Note_on_c, 0, 67, 0
1, 104340, Note_on_c, 0, 76, 40
1, 104400, Tempo, 416435
1, 104400, Note_on_c, 0, 76, 0
1, 104400, Note_on_c, 0, 64, 0
1, 104400, Note_on_c, 0, 71, 37
1, 104400, Note_on_c, 0, 74, 44
1, 104400, Note_on_c, 0, 65, 40
1, 104439, Control_c, 0, 64, 0
1, 104541, Control_c, 0, 64, 127
1, 105120, Tempo, 402468
1, 105120, Note_on_c, 0, 65, 0
1, 105120, Note_on_c, 0, 55, 0
1, 105120, Note_on_c, 0, 71, 0
1, 105120, Note_on_c, 0, 74, 0
1, 105120, Note_on_c, 0, 72, 74
1, 105120, Note_on_c, 0, 64, 67
1, 105120, Note_on_c, 0, 60, 67
1, 105133, Tempo, 397141
1, 105206, Control_c, 0, 64, 0
1, 105240, Note_on_c, 0, 72, 0
1, 105240, Note_on_c, 0, 79, 62
1, 105360, Note_on_c, 0, 79, 0
1, 105360, Note_on_c, 0, 78, 62
1, 105373, Tempo, 386897
1, 105480, Note_on_c, 0, 78, 0
1, 105480, Note_on_c, 0, 79, 62
1, 105600, Note_on_c, 0, 79, 0
1, 105600, Note_on_c, 0, 60, 0
1, 105600, Note_on_c, 0, 64, 0
1, 105600, Note_on_c, 0, 81, 68
1, 105613, Tempo, 410734
1, 105720, Note_on_c, 0, 81, 0
1, 105720, Note_on_c, 0, 79, 62
1, 105840, Note_on_c, 0, 79, 0
1, 105840, Note_on_c, 0, 77, 65
1, 105840, Note_on_c, 0, 62, 67
1, 105853, Tempo, 394529
1, 105960, Note_on_c, 0, 62, 0
1, 105960, Note_on_c, 0, 77, 0
1, 105960, Note_on_c, 0, 79, 60
1, 106080, Note_on_c, 0, 79, 0
1, 106080, Note_on_c, 0, 77, 65
1, 106080, Note_on_c, 0, 59, 62
1, 106093, Tempo, 384418
1, 106200, Note_on_c, 0, 59, 0
1, 106200, Note_on_c, 0, 77, 0
1, 106200, Note_on_c, 0, 79, 59
1, 106320, Note_on_c, 0, 79, 0
1, 106320, Note_on_c, 0, 77, 65
1, 106320, Note_on_c, 0, 55, 62
1, 106333, Tempo, 402468
1, 106440, Note_on_c, 0, 55, 0
1, 106440, Note_on_c, 0, 77, 0
1, 106440, Note_on_c, 0, 79, 59
1, 106560, Tempo, 402468
1, 106560, Note_on_c, 0, 79, 0
1, 106560, Note_on_c, 0, 76, 74
1, 106560, Note_on_c, 0, 60, 67
1, 106573, Tempo, 397141
1, 106680, Note_on_c, 0, 76, 0
1, 106680, Note_on_c, 0, 79, 62
1, 106800, Note_on_c, 0, 79, 0
1, 106800, Note_on_c, 0, 78, 62
1, 106813, Tempo, 386897
1, 106920, Note_on_c, 0, 78, 0
1, 106920, Note_on_c, 0, 79, 62
1, 107040, Note_on_c, 0, 79, 0
1, 107040, Note_on_c, 0, 60, 0
1, 107040, Note_on_c, 0, 84, 74
1, 107053, Tempo, 410734
1, 107160, Note_on_c, 0, 84, 0
1, 107160, Note_on_c, 0, 79, 62
1, 107280, Note_on_c, 0, 79, 0
1, 107280, Note_on_c, 0, 77, 65
1, 107280, Note_on_c, 0, 62, 67
1, 107293, Tempo, 394529
1, 107400, Note_on_c, 0, 62, 0
1, 107400, Note_on_c, 0, 77, 0
1, 107400, Note_on_c, 0, 79, 60
1, 107520, Note_on_c, 0, 79, 0
1, 107520, Note_on_c, 0, 77, 65
1, 107520, Note_on_c, 0, 59, 62
1, 107533, Tempo, 384418
1, 107640, Note_on_c, 0, 59, 0
1, 107640, Note_on_c, 0, 77, 0
1, 107640, Note_on_c, 0, 79, 59
1, 107760, Note_on_c, 0, 79, 0
1, 107760, Note_on_c, 0, 77, 65
1, 107760, Note_on_c, 0, 55, 62
1, 107773, Tempo, 402468
1, 107880, Note_on_c, 0, 55, 0
1, 107880, Note_on_c, 0, 77, 0
1, 107880, Note_on_c, 0, 79, 59
1, 108000, Tempo, 402468
1, 108000, Note_on_c, 0, 79, 0
1, 108000, Note_on_c, 0, 76, 74
1, 108000, Note_on_c, 0, 60, 67
1, 108013, Tempo, 397141
1, 108120, Note_on_c, 0, 76, 0
1, 108120, Note_on_c, 0, 79, 62
1, 108240, Note_on_c, 0, 79, 0
1, 108240, Note_on_c, 0, 78, 62
1, 108253, Tempo, 386897
1, 108360, Note_on_c, 0, 78, 0
1, 108360, Note_on_c, 0, 79, 62
1, 108480, Note_on_c, 0, 79, 0
1, 108480, Note_on_c, 0, 60, 0
1, 108480, Note_on_c, 0, 84, 72
1, 108493, Tempo, 410734
1, 108600, Note_on_c, 0, 84, 0
1, 108600, Note_on_c, 0, 79, 62
1, 108720, Note_on_c, 0, 79, 0
1, 108720, Note_on_c, 0, 77, 65
1, 108720, Note_on_c, 0, 62, 67
1, 108733, Tempo, 394529
1, 108840, Note_on_c, 0, 62, 0
1, 108840, Note_on_c, 0, 77, 0
1, 108840, Note_on_c, 0, 79, 60
1, 108960, Note_on_c, 0, 79, 0
1, 108960, Note_on_c, 0, 77, 65
1, 108960, Note_on_c, 0, 59, 62
1, 108973, Tempo, 384418
1, 109080, Note_on_c, 0, 59, 0
1, 109080, Note_on_c, 0, 77, 0
1, 109080, Note_on_c, 0, 79, 59
1, 109200, Note_on_c, 0, 79, 0
1, 109200, Note_on_c, 0, 77, 65
1, 109200, Note_on_c, 0, 55, 62
1, 109213, Tempo, 402468
1, 109320, Note_on_c, 0, 55, 0
1, 109320, Note_on_c, 0, 77, 0
1, 109320, Note_on_c, 0, 79, 59
1, 109440, Tempo, 402468
1, 109440, Note_on_c, 0, 79, 0
1, 109440, Note_on_c, 0, 76, 74
1, 109440, Note_on_c, 0, 60, 67
1, 109453, Tempo, 397141
1, 109560, Note_on_c, 0, 76, 0
1, 109560, Note_on_c, 0, 79, 62
1, 109680, Note_on_c, 0, 79, 0
1, 109680, Note_on_c, 0, 84, 71
1, 109693, Tempo, 386897
1, 109800, Note_on_c, 0, 84, 0
1, 109800, Note_on_c, 0, 76, 60
1, 109895, Tempo, 399787
1, 109920, Note_on_c, 0, 76, 0
1, 109920, Note_on_c, 0, 60, 0
1, 109920, Note_on_c, 0, 74, 70
1, 109929, Control_c, 0, 64, 127
1, 110010, Tempo, 397141
1, 110040, Note_on_c, 0, 74, 0
1, 110040, Note_on_c, 0, 83, 62
1, 110125, Tempo, 394529
1, 110148, Tempo, 397141
1, 110160, Note_on_c, 0, 83, 0
1, 110160, Note_on_c, 0, 72, 70
1, 110168, Control_c, 0, 64, 0
1, 110200, Control_c, 0, 64, 127
1, 110202, Tempo, 391952
1, 110279, Tempo, 389408
1, 110280, Note_on_c, 0, 72, 0
1, 110280, Note_on_c, 0, 81, 62
1, 110356, Tempo, 386897
1, 110400, Note_on_c, 0, 81, 0
1, 110400, Note_on_c, 0, 71, 69
1, 110411, Control_c, 0, 64, 0
1, 110413, Tempo, 384418
1, 110480, Control_c, 0, 64, 127
1, 110490, Tempo, 381971
1, 110520, Note_on_c, 0, 71, 0
1, 110520, Note_on_c, 0, 79, 60
1, 110567, Tempo, 379555
1, 110640, Note_on_c, 0, 79, 0
1, 110640, Note_on_c, 0, 69, 67
1, 110644, Tempo, 377169
1, 110647, Control_c, 0, 64, 0
1, 110686, Control_c, 0, 64, 127
1, 110720, Tempo, 374813
1, 110760, Note_on_c, 0, 69, 0
1, 110760, Note_on_c, 0, 77, 58
1, 110797, Tempo, 372486
1, 110874, Tempo, 370188
1, 110880, Note_on_c, 0, 77, 0
1, 110880, Note_on_c, 0, 67, 69
1, 110887, Control_c, 0, 64, 0
1, 110937, Control_c, 0, 64, 127
1, 111000, Note_on_c, 0, 67, 0
1, 111000, Note_on_c, 0, 76, 62
1, 111120, Note_on_c, 0, 76, 0
1, 111120, Note_on_c, 0, 65, 67
1, 111130, Control_c, 0, 64, 0
1, 111206, Control_c, 0, 64, 127
1, 111240, Note_on_c, 0, 65, 0
1, 111240, Note_on_c, 0, 74, 59
1, 111360, Note_on_c, 0, 74, 0
1, 111360, Note_on_c, 0, 64, 66
1, 111369, Control_c, 0, 64, 0
1, 111429, Control_c, 0, 64, 127
1, 111480, Note_on_c, 0, 64, 0
1, 111480, Note_on_c, 0, 72, 56
1, 111600, Note_on_c, 0, 72, 0
1, 111600, Note_on_c, 0, 62, 64
1, 111604, Tempo, 367918
1, 111609, Control_c, 0, 64, 0
1, 111642, Tempo, 370188
1, 111669, Control_c, 0, 64, 127
1, 111680, Tempo, 372486
1, 111700, Tempo, 374813
1, 111720, Note_on_c, 0, 62, 0
1, 111720, Note_on_c, 0, 71, 55
1, 111738, Tempo, 377169
1, 111757, Tempo, 379555
1, 111796, Tempo, 381971
1, 111834, Tempo, 384418
1, 111840, Note_on_c, 0, 71, 0
1, 111840, Note_on_c, 0, 60, 63
1, 111851, Control_c, 0, 64, 0
1, 111853, Tempo, 386897
1, 111892, Tempo, 389408
1, 111903, Control_c, 0, 64, 127
1, 111911, Tempo, 391952
1, 111949, Tempo, 394529
1, 111960, Note_on_c, 0, 60, 0
1, 111960, Note_on_c, 0, 69, 55
1, 111968, Tempo, 397141
1, 111975, Tempo, 402468
1, 112035, Tempo, 405186
1, 112080, Note_on_c, 0, 69, 0
1, 112080, Note_on_c, 0, 59, 62
1, 112092, Control_c, 0, 64, 0
1, 112095, Tempo, 407941
1, 112143, Control_c, 0, 64, 127
1, 112155, Tempo, 410734
1, 112200, Note_on_c, 0, 59, 0
1, 112200, Note_on_c, 0, 67, 51
1, 112215, Tempo, 413565
1, 112275, Tempo, 416435
1, 112320, Tempo, 402468
1, 112320, Note_on_c, 0, 67, 0
1, 112320, Note_on_c, 0, 66, 55
1, 112320, Note_on_c, 0, 57, 45
1, 112320, Control_c, 0, 64, 0
1, 112560, Tempo, 391952
1, 112560, Note_on_c, 0, 45, 46
1, 112800, Tempo, 397141
1, 112800, Note_on_c, 0, 48, 49
1, 112824, Note_on_c, 0, 45, 0
1, 113040, Tempo, 391952
1, 113040, Note_on_c, 0, 66, 0
1, 113040, Note_on_c, 0, 57, 0
1, 113040, Note_on_c, 0, 56, 45
1, 113040, Note_on_c, 0, 65, 55
1, 113040, Note_on_c, 0, 51, 51
1, 113064, Note_on_c, 0, 48, 0
1, 113280, Note_on_c, 0, 50, 46
1, 113304, Note_on_c, 0, 51, 0
1, 113520, Tempo, 399787
1, 113520, Note_on_c, 0, 48, 46
1, 113544, Note_on_c, 0, 50, 0
1, 113760, Tempo, 405186
1, 113760, Note_on_c, 0, 56, 0
1, 113760, Note_on_c, 0, 65, 0
1, 113760, Note_on_c, 0, 77, 55
1, 113760, Note_on_c, 0, 68, 45
1, 114000, Tempo, 389408
1, 114000, Note_on_c, 0, 48, 0
1, 114000, Note_on_c, 0, 47, 45
1, 114240, Tempo, 394529
1, 114240, Note_on_c, 0, 50, 46
1, 114264, Note_on_c, 0, 47, 0
1, 114480, Tempo, 389408
1, 114480, Note_on_c, 0, 77, 0
1, 114480, Note_on_c, 0, 68, 0
1, 114480, Note_on_c, 0, 62, 45
1, 114480, Note_on_c, 0, 71, 55
1, 114480, Note_on_c, 0, 56, 51
1, 114504, Note_on_c, 0, 50, 0
1, 114720, Note_on_c, 0, 55, 46
1, 114744, Note_on_c, 0, 56, 0
1, 114960, Tempo, 399787
1, 114960, Note_on_c, 0, 53, 46
1, 114984, Note_on_c, 0, 55, 0
1, 115200, Tempo, 402468
1, 115200, Note_on_c, 0, 62, 0
1, 115200, Note_on_c, 0, 71, 0
1, 115200, Note_on_c, 0, 52, 36
1, 115224, Note_on_c, 0, 53, 0
1, 115440, Tempo, 389408
1, 115440, Note_on_c, 0, 52, 0
1, 115440, Note_on_c, 0, 79, 49
1, 115560, Note_on_c, 0, 79, 0
1, 115680, Note_on_c, 0, 79, 49
1, 115800, Note_on_c, 0, 79, 0
1, 115920, Tempo, 402468
1, 115920, Note_on_c, 0, 53, 40
1, 116160, Tempo, 389408
1, 116160, Note_on_c, 0, 53, 0
1, 116160, Note_on_c, 0, 81, 49
1, 116280, Note_on_c, 0, 81, 0
1, 116400, Tempo, 407941
1, 116400, Note_on_c, 0, 81, 49
1, 116520, Note_on_c, 0, 81, 0
1, 116640, Tempo, 402468
1, 116640, Note_on_c, 0, 67, 39
1, 116640, Note_on_c, 0, 72, 47
1, 116640, Note_on_c, 0, 55, 34
1, 116640, Note_on_c, 0, 64, 40
1, 116747, Control_c, 0, 64, 127
1, 117360, Tempo, 416435
1, 117360, Note_on_c, 0, 64, 0
1, 117360, Note_on_c, 0, 55, 0
1, 117360, Note_on_c, 0, 72, 0
1, 117360, Note_on_c, 0, 71, 37
1, 117360, Note_on_c, 0, 62, 40
1, 117360, Note_on_c, 0, 53, 32
1, 117368, Control_c, 0, 64, 0
1, 117507, Control_c, 0, 64, 127
1, 117960, Tempo, 450857
1, 118080, Tempo, 410734
1, 118080, Note_on_c, 0, 53, 0
1, 118080, Note_on_c, 0, 67, 0
1, 118080, Note_on_c, 0, 71, 0
1, 118080, Note_on_c, 0, 62, 0
1, 118080, Note_on_c, 0, 78, 71
1, 118080, Note_on_c, 0, 52, 64
1, 118080, Control_c, 0, 64, 0
1, 118200, Note_on_c, 0, 78, 0
1, 118200, Note_on_c, 0, 79, 55
1, 118320, Tempo, 397141
1, 118320, Note_on_c, 0, 52, 0
1, 118320, Note_on_c, 0, 78, 55
1, 118320, Note_on_c, 0, 55, 53
1, 118332, Note_on_c, 0, 79, 0
1, 118440, Note_on_c, 0, 79, 55
1, 118452, Note_on_c, 0, 78, 0
1, 118560, Note_on_c, 0, 55, 0
1, 118560, Note_on_c, 0, 78, 55
1, 118560, Note_on_c, 0, 60, 53
1, 118572, Note_on_c, 0, 79, 0
1, 118573, Tempo, 410734
1, 118680, Note_on_c, 0, 79, 55
1, 118692, Note_on_c, 0, 78, 0
1, 118800, Tempo, 405186
1, 118800, Note_on_c, 0, 79, 0
1, 118800, Note_on_c, 0, 60, 0
1, 118800, Note_on_c, 0, 80, 62
1, 118800, Note_on_c, 0, 53, 61
1, 118920, Note_on_c, 0, 81, 55
1, 118932, Note_on_c, 0, 80, 0
1, 119040, Tempo, 397141
1, 119040, Note_on_c, 0, 53, 0
1, 119040, Note_on_c, 0, 80, 55
1, 119040, Note_on_c, 0, 57, 53
1, 119052, Note_on_c, 0, 81, 0
1, 119160, Note_on_c, 0, 81, 55
1, 119172, Note_on_c, 0, 80, 0
1, 119280, Note_on_c, 0, 57, 0
1, 119280, Note_on_c, 0, 83, 59
1, 119280, Note_on_c, 0, 62, 50
1, 119292, Note_on_c, 0, 81, 0
1, 119293, Tempo, 402468
1, 119400, Note_on_c, 0, 84, 55
1, 119412, Note_on_c, 0, 83, 0
1, 119520, Tempo, 402468
1, 119520, Note_on_c, 0, 84, 0
1, 119520, Note_on_c, 0, 62, 0
1, 119520, Note_on_c, 0, 72, 47
1, 119520, Note_on_c, 0, 55, 38
1, 119654, Control_c, 0, 64, 127
1, 119760, Note_on_c, 0, 55, 0
1, 119760, Note_on_c, 0, 60, 34
1, 120000, Note_on_c, 0, 60, 0
1, 120000, Note_on_c, 0, 64, 34
1, 120180, Note_on_c, 0, 72, 0
1, 120180, Note_on_c, 0, 76, 37
1, 120240, Tempo, 416435
1, 120240, Note_on_c, 0, 76, 0
1, 120240, Note_on_c, 0, 64, 0
1, 120240, Note_on_c, 0, 74, 43
1, 120240, Note_on_c, 0, 71, 43
1, 120240, Note_on_c, 0, 55, 39
1, 120250, Control_c, 0, 64, 0
1, 120374, Control_c, 0, 64, 127
1, 120480, Note_on_c, 0, 55, 0
1, 120480, Note_on_c, 0, 62, 33
1, 120720, Note_on_c, 0, 62, 0
1, 120720, Note_on_c, 0, 71, 0
1, 120720, Note_on_c, 0, 65, 33
1, 120840, Note_on_c, 0, 74, 0
1, 120840, Note_on_c, 0, 72, 37
1, 120955, Note_on_c, 0, 72, 0
1, 120960, Note_on_c, 0, 65, 0
1, 120960, Note_on_c, 0, 72, 71
1, 120960, Note_on_c, 0, 64, 66
1, 120960, Note_on_c, 0, 60, 56
1, 120974, Control_c, 0, 64, 0
1, 121080, Note_on_c, 0, 76, 64
1, 121092, Note_on_c, 0, 72, 0
1, 121200, Tempo, 397141
1, 121200, Note_on_c, 0, 79, 67
1, 121212, Note_on_c, 0, 76, 0
1, 121320, Note_on_c, 0, 84, 68
1, 121332, Note_on_c, 0, 79, 0
1, 121440, Tempo, 389408
1, 121440, Note_on_c, 0, 64, 0
1, 121440, Note_on_c, 0, 60, 0
1, 121440, Note_on_c, 0, 83, 69
1, 121452, Note_on_c, 0, 84, 0
1, 121560, Note_on_c, 0, 81, 69
1, 121572, Note_on_c, 0, 83, 0
1, 121680, Note_on_c, 0, 79, 71
1, 121680, Note_on_c, 0, 59, 66
1, 121680, Note_on_c, 0, 65, 66
1, 121680, Note_on_c, 0, 55, 56
1, 121692, Note_on_c, 0, 81, 0
1, 121800, Note_on_c, 0, 81, 67
1, 121812, Note_on_c, 0, 79, 0
1, 121920, Note_on_c, 0, 79, 67
1, 121932, Note_on_c, 0, 81, 0
1, 122040, Note_on_c, 0, 77, 67
1, 122052, Note_on_c, 0, 79, 0
1, 122160, Note_on_c, 0, 55, 0
1, 122160, Note_on_c, 0, 65, 0
1, 122160, Note_on_c, 0, 59, 0
1, 122160, Note_on_c, 0, 76, 67
1, 122172, Note_on_c, 0, 77, 0
1, 122280, Tempo, 434531
1, 122280, Note_on_c, 0, 74, 67
1, 122292, Note_on_c, 0, 76, 0
1, 122400, Tempo, 416435
1, 122400, Note_on_c, 0, 74, 0
1, 122400, Note_on_c, 0, 72, 71
1, 122400, Note_on_c, 0, 60, 56
1, 122400, Note_on_c, 0, 64, 66
1, 122520, Note_on_c, 0, 76, 64
1, 122532, Note_on_c, 0, 72, 0
1, 122640, Tempo, 394529
1, 122640, Note_on_c, 0, 74, 64
1, 122652, Note_on_c, 0, 76, 0
1, 122760, Note_on_c, 0, 72, 68
1, 122772, Note_on_c, 0, 74, 0
1, 122880, Tempo, 389408
1, 122880, Note_on_c, 0, 60, 0
1, 122880, Note_on_c, 0, 64, 0
1, 122880, Note_on_c, 0, 71, 64
1, 122892, Note_on_c, 0, 72, 0
1, 123000, Note_on_c, 0, 69, 64
1, 123012, Note_on_c, 0, 71, 0
1, 123120, Note_on_c, 0, 67, 69
1, 123120, Note_on_c, 0, 59, 56
1, 123120, Note_on_c, 0, 55, 56
1, 123120, Note_on_c, 0, 65, 66
1, 123132, Note_on_c, 0, 69, 0
1, 123240, Note_on_c, 0, 69, 63
1, 123252, Note_on_c, 0, 67, 0
1, 123360, Note_on_c, 0, 67, 63
1, 123372, Note_on_c, 0, 69, 0
1, 123480, Note_on_c, 0, 65, 63
1, 123492, Note_on_c, 0, 67, 0
1, 123600, Note_on_c, 0, 65, 0
1, 123600, Note_on_c, 0, 55, 0
1, 123600, Note_on_c, 0, 59, 0
1, 123600, Note_on_c, 0, 64, 63
1, 123612, Note_on_c, 0, 65, 0
1, 123720, Tempo, 431406
1, 123720, Note_on_c, 0, 62, 63
1, 123732, Note_on_c, 0, 64, 0
1, 123840, Tempo, 407941
1, 123840, Note_on_c, 0, 62, 0
1, 123840, Note_on_c, 0, 60, 71
1, 123840, Note_on_c, 0, 52, 66
1, 123840, Note_on_c, 0, 48, 56
1, 123960, Note_on_c, 0, 64, 63
1, 123972, Note_on_c, 0, 60, 0
1, 124080, Tempo, 391952
1, 124080, Note_on_c, 0, 62, 63
1, 124092, Note_on_c, 0, 64, 0
1, 124200, Note_on_c, 0, 60, 63
1, 124212, Note_on_c, 0, 62, 0
1, 124320, Tempo, 389408
1, 124320, Note_on_c, 0, 52, 0
1, 124320, Note_on_c, 0, 48, 0
1, 124320, Note_on_c, 0, 59, 63
1, 124332, Note_on_c, 0, 60, 0
1, 124440, Note_on_c, 0, 57, 64
1, 124452, Note_on_c, 0, 59, 0
1, 124560, Note_on_c, 0, 55, 71
1, 124560, Note_on_c, 0, 43, 56
1, 124560, Note_on_c, 0, 53, 66
1, 124560, Note_on_c, 0, 47, 56
1, 124572, Note_on_c, 0, 57, 0
1, 124680, Note_on_c, 0, 57, 64
1, 124692, Note_on_c, 0, 55, 0
1, 124800, Note_on_c, 0, 55, 64
1, 124812, Note_on_c, 0, 57, 0
1, 124920, Note_on_c, 0, 53, 64
1, 124932, Note_on_c, 0, 55, 0
1, 125040, Note_on_c, 0, 47, 0
1, 125040, Note_on_c, 0, 53, 0
1, 125040, Note_on_c, 0, 43, 0
1, 125040, Note_on_c, 0, 52, 64
1, 125052, Note_on_c, 0, 53, 0
1, 125160, Tempo, 431406
1, 125160, Note_on_c, 0, 50, 64
1, 125172, Note_on_c, 0, 52, 0
1, 125280, Tempo, 402468
1, 125280, Note_on_c, 0, 50, 0
1, 125280, Note_on_c, 0, 48, 81
1, 125280, Note_on_c, 0, 36, 70
1, 125400, Note_on_c, 0, 36, 0
1, 125400, Note_on_c, 0, 48, 0
1, 125520, Note_on_c, 0, 52, 70
1, 125520, Note_on_c, 0, 40, 63
1, 125640, Note_on_c, 0, 40, 0
1, 125640, Note_on_c, 0, 52, 0
1, 125760, Note_on_c, 0, 55, 70
1, 125760, Note_on_c, 0, 43, 63
1, 125880, Note_on_c, 0, 43, 0
1, 125880, Note_on_c, 0, 55, 0
1, 126000, Note_on_c, 0, 60, 78
1, 126000, Note_on_c, 0, 48, 70
1, 126120, Note_on_c, 0, 48, 0
1, 126120, Note_on_c, 0, 60, 0
1, 126240, Note_on_c, 0, 64, 70
1, 126240, Note_on_c, 0, 52, 64
1, 126360, Note_on_c, 0, 52, 0
1, 126360, Note_on_c, 0, 64, 0
1, 126480, Note_on_c, 0, 67, 70
1, 126480, Note_on_c, 0, 55, 64
1, 126600, Note_on_c, 0, 55, 0
1, 126600, Note_on_c, 0, 67, 0
1, 126720, Tempo, 410734
1, 126720, Note_on_c, 0, 72, 88
1, 126720, Note_on_c, 0, 60, 74
1, 126960, Note_on_c, 0, 60, 0
1, 126960, Note_on_c, 0, 72, 0
1, 127440, Tempo, 431406
1, 127440, Note_on_c, 0, 76, 69
1, 127440, Note_on_c, 0, 79, 82
1, 127440, Note_on_c, 0, 72, 69
1, 127440, Note_on_c, 0, 67, 69
1, 127440, Note_on_c, 0, 52, 62
1, 127440, Note_on_c, 0, 48, 62
1, 127440, Note_on_c, 0, 55, 62
1, 127440, Note_on_c, 0, 60, 74
1, 127480, Control_c, 0, 64, 127
1, 127814, Control_c, 0, 64, 0
1, 127920, Note_on_c, 0, 60, 0
1, 127920, Note_on_c, 0, 76, 0
1, 127920, Note_on_c, 0, 52, 0
1, 127920, Note_on_c, 0, 79, 0
1, 127920, Note_on_c, 0, 72, 0
1, 127920, Note_on_c, 0, 67, 0
1, 127920, Note_on_c, 0, 48, 0
1, 127920, Note_on_c, 0, 55, 0
1, 128160, Note_on_c, 0, 79, 74
1, 128160, Note_on_c, 0, 76, 74
1, 128160, Note_on_c, 0, 84, 86
1, 128160, Note_on_c, 0, 72, 72
1, 128160, Note_on_c, 0, 48, 62
1, 128160, Note_on_c, 0, 60, 74
1, 128160, Note_on_c, 0, 55, 62
1, 128160, Note_on_c, 0, 52, 62
1, 128187, Control_c, 0, 64, 127
1, 128587, Control_c, 0, 64, 0
1, 128640, Note_on_c, 0, 52, 0
1, 128640, Note_on_c, 0, 79, 0
1, 128640, Note_on_c, 0, 48, 0
1, 128640, Note_on_c, 0, 76, 0
1, 128640, Note_on_c, 0, 84, 0
1, 128640, Note_on_c, 0, 72, 0
1, 128640, Note_on_c, 0, 60, 0
1, 128640, Note_on_c, 0, 55, 0
1, 129600, Tempo, 385282
1, 129600, Marker_t, "Part 1 repeat"
1, 129600, Control_c, 0, 91, 127
1, 129600, Text_t, "bdca426d104a26ac9dcb070447587523"
1, 129600, Note_on_c, 0, 53, 70
1, 129600, Note_on_c, 0, 48, 59
1, 129600, Note_on_c, 0, 41, 59
1, 129600, Note_on_c, 0, 45, 59
1, 129720, Note_on_c, 0, 84, 66
1, 129840, Note_on_c, 0, 83, 68
1, 129852, Note_on_c, 0, 84, 0
1, 129960, Note_on_c, 0, 84, 69
1, 129972, Note_on_c, 0, 83, 0
1, 130080, Note_on_c, 0, 45, 0
1, 130080, Note_on_c, 0, 41, 0
1, 130080, Note_on_c, 0, 53, 0
1, 130080, Note_on_c, 0, 48, 0
1, 130080, Note_on_c, 0, 89, 70
1, 130092, Note_on_c, 0, 84, 0
1, 130200, Tempo, 398063
1, 130200, Note_on_c, 0, 84, 63
1, 130212, Note_on_c, 0, 89, 0
1, 130320, Tempo, 382824
1, 130320, Note_on_c, 0, 82, 70
1, 130332, Note_on_c, 0, 84, 0
1, 130440, Note_on_c, 0, 81, 66
1, 130452, Note_on_c, 0, 82, 0
1, 130560, Note_on_c, 0, 80, 64
1, 130572, Note_on_c, 0, 81, 0
1, 130680, Note_on_c, 0, 81, 64
1, 130692, Note_on_c, 0, 80, 0
1, 130800, Note_on_c, 0, 84, 70
1, 130812, Note_on_c, 0, 81, 0
1, 130920, Tempo, 395439
1, 130920, Note_on_c, 0, 81, 64
1, 130932, Note_on_c, 0, 84, 0
1, 131040, Tempo, 380397
1, 131040, Note_on_c, 0, 79, 70
1, 131052, Note_on_c, 0, 81, 0
1, 131160, Note_on_c, 0, 77, 64
1, 131172, Note_on_c, 0, 79, 0
1, 131280, Note_on_c, 0, 76, 64
1, 131292, Note_on_c, 0, 77, 0
1, 131400, Note_on_c, 0, 77, 64
1, 131412, Note_on_c, 0, 76, 0
1, 131520, Note_on_c, 0, 81, 70
1, 131532, Note_on_c, 0, 77, 0
1, 131640, Tempo, 395439
1, 131640, Note_on_c, 0, 77, 65
1, 131652, Note_on_c, 0, 81, 0
1, 131760, Tempo, 382824
1, 131760, Note_on_c, 0, 74, 70
1, 131772, Note_on_c, 0, 77, 0
1, 131880, Note_on_c, 0, 72, 65
1, 131892, Note_on_c, 0, 74, 0
1, 132000, Note_on_c, 0, 71, 65
1, 132012, Note_on_c, 0, 72, 0
1, 132120, Note_on_c, 0, 72, 65
1, 132132, Note_on_c, 0, 71, 0
1, 132240, Note_on_c, 0, 77, 70
1, 132252, Note_on_c, 0, 72, 0
1, 132360, Tempo, 403416
1, 132360, Note_on_c, 0, 72, 65
1, 132372, Note_on_c, 0, 77, 0
1, 132480, Tempo, 380397
1, 132480, Note_on_c, 0, 70, 70
1, 132492, Note_on_c, 0, 72, 0
1, 132600, Note_on_c, 0, 69, 66
1, 132612, Note_on_c, 0, 70, 0
1, 132720, Tempo, 395439
1, 132720, Note_on_c, 0, 68, 66
1, 132732, Note_on_c, 0, 69, 0
1, 132840, Note_on_c, 0, 69, 66
1, 132852, Note_on_c, 0, 68, 0
1, 132960, Note_on_c, 0, 72, 70
1, 132972, Note_on_c, 0, 69, 0
1, 133080, Tempo, 484927
1, 133080, Note_on_c, 0, 69, 64
1, 133092, Note_on_c, 0, 72, 0
1, 133200, Tempo, 400721
1, 133200, Note_on_c, 0, 65, 70
1, 133200, Note_on_c, 0, 57, 70
1, 133212, Note_on_c, 0, 69, 0
1, 133320, Tempo, 380397
1, 133320, Note_on_c, 0, 57, 0
1, 133320, Note_on_c, 0, 65, 0
1, 133320, Note_on_c, 0, 77, 64
1, 133440, Note_on_c, 0, 77, 0
1, 133440, Note_on_c, 0, 64, 70
1, 133440, Note_on_c, 0, 55, 66
1, 133560, Note_on_c, 0, 55, 0
1, 133560, Note_on_c, 0, 64, 0
1, 133560, Note_on_c, 0, 77, 64
1, 133680, Note_on_c, 0, 77, 0
1, 133680, Note_on_c, 0, 65, 70
1, 133680, Note_on_c, 0, 57, 66
1, 133800, Tempo, 406146
1, 133800, Note_on_c, 0, 57, 0
1, 133800, Note_on_c, 0, 65, 0
1, 133800, Note_on_c, 0, 77, 64
1, 133920, Tempo, 382824
1, 133920, Note_on_c, 0, 77, 0
1, 133920, Note_on_c, 0, 67, 70
1, 133920, Note_on_c, 0, 58, 70
1, 134040, Note_on_c, 0, 58, 0
1, 134040, Note_on_c, 0, 67, 0
1, 134040, Note_on_c, 0, 77, 64
1, 134160, Note_on_c, 0, 77, 0
1, 134160, Note_on_c, 0, 65, 65
1, 134160, Note_on_c, 0, 57, 67
1, 134280, Note_on_c, 0, 57, 0
1, 134280, Note_on_c, 0, 65, 0
1, 134280, Note_on_c, 0, 77, 58
1, 134400, Note_on_c, 0, 77, 0
1, 134400, Note_on_c, 0, 67, 67
1, 134400, Note_on_c, 0, 58, 67
1, 134520, Tempo, 403416
1, 134520, Note_on_c, 0, 58, 0
1, 134520, Note_on_c, 0, 67, 0
1, 134520, Note_on_c, 0, 77, 61
1, 134640, Tempo, 380397
1, 134640, Note_on_c, 0, 77, 0
1, 134640, Note_on_c, 0, 69, 70
1, 134640, Note_on_c, 0, 60, 70
1, 134760, Note_on_c, 0, 60, 0
1, 134760, Note_on_c, 0, 69, 0
1, 134760, Note_on_c, 0, 77, 60
1, 134880, Note_on_c, 0, 77, 0
1, 134880, Note_on_c, 0, 67, 66
1, 134880, Note_on_c, 0, 58, 67
1, 135000, Note_on_c, 0, 58, 0
1, 135000, Note_on_c, 0, 67, 0
1, 135000, Note_on_c, 0, 77, 62
1, 135120, Note_on_c, 0, 77, 0
1, 135120, Note_on_c, 0, 69, 67
1, 135120, Note_on_c, 0, 60, 67
1, 135240, Tempo, 458961
1, 135240, Note_on_c, 0, 60, 0
1, 135240, Note_on_c, 0, 69, 0
1, 135240, Note_on_c, 0, 77, 62
1, 135360, Tempo, 385282
1, 135360, Note_on_c, 0, 77, 0
1, 135360, Note_on_c, 0, 70, 74
1, 135360, Note_on_c, 0, 61, 74
1, 135480, Note_on_c, 0, 70, 0
1, 135480, Note_on_c, 0, 77, 61
1, 135600, Note_on_c, 0, 77, 0
1, 135600, Note_on_c, 0, 70, 65
1, 135720, Note_on_c, 0, 70, 0
1, 135720, Note_on_c, 0, 77, 61
1, 135840, Note_on_c, 0, 77, 0
1, 135840, Note_on_c, 0, 61, 0
1, 135840, Note_on_c, 0, 69, 65
1, 135840, Note_on_c, 0, 60, 67
1, 135960, Tempo, 414565
1, 135960, Note_on_c, 0, 60, 0
1, 135960, Note_on_c, 0, 69, 0
1, 135960, Note_on_c, 0, 77, 60
1, 136080, Tempo, 382824
1, 136080, Note_on_c, 0, 77, 0
1, 136080, Note_on_c, 0, 70, 70
1, 136080, Note_on_c, 0, 61, 74
1, 136200, Note_on_c, 0, 70, 0
1, 136200, Note_on_c, 0, 77, 60
1, 136320, Note_on_c, 0, 77, 0
1, 136320, Note_on_c, 0, 70, 65
1, 136440, Note_on_c, 0, 70, 0
1, 136440, Note_on_c, 0, 77, 60
1, 136560, Note_on_c, 0, 77, 0
1, 136560, Note_on_c, 0, 61, 0
1, 136560, Note_on_c, 0, 69, 65
1, 136560, Note_on_c, 0, 60, 66
1, 136680, Tempo, 475888
1, 136680, Note_on_c, 0, 60, 0
1, 136680, Note_on_c, 0, 69, 0
1, 136680, Note_on_c, 0, 77, 54
1, 136800, Tempo, 382824
1, 136800, Note_on_c, 0, 77, 0
1, 136800, Note_on_c, 0, 68, 49
1, 136800, Note_on_c, 0, 59, 47
1, 136920, Note_on_c, 0, 59, 0
1, 136920, Note_on_c, 0, 68, 0
1, 136920, Note_on_c, 0, 77, 41
1, 137040, Note_on_c, 0, 77, 0
1, 137040, Note_on_c, 0, 68, 49
1, 137040, Note_on_c, 0, 59, 47
1, 137160, Note_on_c, 0, 59, 0
1, 137160, Note_on_c, 0, 68, 0
1, 137160, Note_on_c, 0, 77, 42
1, 137280, Note_on_c, 0, 77, 0
1, 137280, Note_on_c, 0, 68, 49
1, 137280, Note_on_c, 0, 59, 47
1, 137400, Tempo, 414565
1, 137400, Note_on_c, 0, 59, 0
1, 137400, Note_on_c, 0, 68, 0
1, 137400, Note_on_c, 0, 77, 40
1, 137520, Tempo, 420374
1, 137520, Note_on_c, 0, 77, 0
1, 137520, Note_on_c, 0, 67, 48
1, 137520, Note_on_c, 0, 76, 48
1, 137520, Note_on_c, 0, 60, 50
1, 137760, Note_on_c, 0, 60, 0
1, 137760, Note_on_c, 0, 76, 0
1, 137760, Note_on_c, 0, 67, 0
1, 138240, Tempo, 385282
1, 138240, Text_t, "bdca426d104a26ac9dcb070447587523"
1, 138240, Control_c, 0, 91, 127
1, 138240, Note_on_c, 0, 45, 59
1, 138240, Note_on_c, 0, 53, 70
1, 138240, Note_on_c, 0, 41, 59
1, 138240, Note_on_c, 0, 48, 59
1, 138360, Note_on_c, 0, 84, 66
1, 138480, Note_on_c, 0, 83, 68
1, 138492, Note_on_c, 0, 84, 0
1, 138600, Note_on_c, 0, 84, 69
1, 138612, Note_on_c, 0, 83, 0
1, 138720, Note_on_c, 0, 48, 0
1, 138720, Note_on_c, 0, 41, 0
1, 138720, Note_on_c, 0, 45, 0
1, 138720, Note_on_c, 0, 53, 0
1, 138720, Note_on_c, 0, 89, 70
1, 138732, Note_on_c, 0, 84, 0
1, 138840, Tempo, 398063
1, 138840, Note_on_c, 0, 84, 63
1, 138852, Note_on_c, 0, 89, 0
1, 138960, Tempo, 382824
1, 138960, Note_on_c, 0, 82, 70
1, 138972, Note_on_c, 0, 84, 0
1, 139080, Note_on_c, 0, 81, 66
1, 139092, Note_on_c, 0, 82, 0
1, 139200, Note_on_c, 0, 80, 64
1, 139212, Note_on_c, 0, 81, 0
1, 139320, Note_on_c, 0, 81, 64
1, 139332, Note_on_c, 0, 80, 0
1, 139440, Note_on_c, 0, 84, 70
1, 139452, Note_on_c, 0, 81, 0
1, 139560, Tempo, 395439
1, 139560, Note_on_c, 0, 81, 64
1, 139572, Note_on_c, 0, 84, 0
1, 139680, Tempo, 380397
1, 139680, Note_on_c, 0, 79, 70
1, 139692, Note_on_c, 0, 81, 0
1, 139800, Note_on_c, 0, 77, 64
1, 139812, Note_on_c, 0, 79, 0
1, 139920, Note_on_c, 0, 76, 64
1, 139932, Note_on_c, 0, 77, 0
1, 140040, Note_on_c, 0, 77, 64
1, 140052, Note_on_c, 0, 76, 0
1, 140160, Note_on_c, 0, 81, 70
1, 140172, Note_on_c, 0, 77, 0
1, 140280, Tempo, 395439
1, 140280, Note_on_c, 0, 77, 65
1, 140292, Note_on_c, 0, 81, 0
1, 140400, Tempo, 382824
1, 140400, Note_on_c, 0, 74, 70
1, 140412, Note_on_c, 0, 77, 0
1, 140520, Note_on_c, 0, 72, 65
1, 140532, Note_on_c, 0, 74, 0
1, 140640, Note_on_c, 0, 71, 65
1, 140652, Note_on_c, 0, 72, 0
1, 140760, Note_on_c, 0, 72, 65
1, 140772, Note_on_c, 0, 71, 0
1, 140880, Note_on_c, 0, 77, 70
1, 140892, Note_on_c, 0, 72, 0
1, 141000, Tempo, 403416
1, 141000, Note_on_c, 0, 72, 65
1, 141012, Note_on_c, 0, 77, 0
1, 141120, Tempo, 380397
1, 141120, Note_on_c, 0, 70, 70
1, 141132, Note_on_c, 0, 72, 0
1, 141240, Note_on_c, 0, 69, 66
1, 141252, Note_on_c, 0, 70, 0
1, 141360, Tempo, 395439
1, 141360, Note_on_c, 0, 68, 66
1, 141372, Note_on_c, 0, 69, 0
1, 141480, Note_on_c, 0, 69, 66
1, 141492, Note_on_c, 0, 68, 0
1, 141600, Note_on_c, 0, 72, 70
1, 141612, Note_on_c, 0, 69, 0
1, 141720, Tempo, 484927
1, 141720, Note_on_c, 0, 69, 64
1, 141732, Note_on_c, 0, 72, 0
1, 141840, Tempo, 403416
1, 141840, Note_on_c, 0, 65, 70
1, 141840, Note_on_c, 0, 57, 70
1, 141852, Note_on_c, 0, 69, 0
1, 141960, Tempo, 382824
1, 141960, Note_on_c, 0, 57, 0
1, 141960, Note_on_c, 0, 65, 0
1, 141960, Note_on_c, 0, 77, 64
1, 142080, Note_on_c, 0, 77, 0
1, 142080, Note_on_c, 0, 64, 70
1, 142080, Note_on_c, 0, 55, 66
1, 142200, Note_on_c, 0, 55, 0
1, 142200, Note_on_c, 0, 64, 0
1, 142200, Note_on_c, 0, 77, 64
1, 142320, Note_on_c, 0, 77, 0
1, 142320, Note_on_c, 0, 65, 70
1, 142320, Note_on_c, 0, 57, 66
1, 142440, Tempo, 406146
1, 142440, Note_on_c, 0, 57, 0
1, 142440, Note_on_c, 0, 65, 0
1, 142440, Note_on_c, 0, 77, 64
1, 142560, Tempo, 382824
1, 142560, Note_on_c, 0, 77, 0
1, 142560, Note_on_c, 0, 67, 70
1, 142560, Note_on_c, 0, 58, 70
1, 142680, Note_on_c, 0, 58, 0
1, 142680, Note_on_c, 0, 67, 0
1, 142680, Note_on_c, 0, 77, 64
1, 142800, Note_on_c, 0, 77, 0
1, 142800, Note_on_c, 0, 65, 65
1, 142800, Note_on_c, 0, 57, 67
1, 142920, Note_on_c, 0, 57, 0
1, 142920, Note_on_c, 0, 65, 0
1, 142920, Note_on_c, 0, 77, 58
1, 143040, Note_on_c, 0, 77, 0
1, 143040, Note_on_c, 0, 67, 67
1, 143040, Note_on_c, 0, 58, 67
1, 143160, Tempo, 403416
1, 143160, Note_on_c, 0, 58, 0
1, 143160, Note_on_c, 0, 67, 0
1, 143160, Note_on_c, 0, 77, 61
1, 143280, Tempo, 380397
1, 143280, Note_on_c, 0, 77, 0
1, 143280, Note_on_c, 0, 69, 70
1, 143280, Note_on_c, 0, 60, 70
1, 143400, Note_on_c, 0, 60, 0
1, 143400, Note_on_c, 0, 69, 0
1, 143400, Note_on_c, 0, 77, 60
1, 143520, Note_on_c, 0, 77, 0
1, 143520, Note_on_c, 0, 67, 66
1, 143520, Note_on_c, 0, 58, 67
1, 143640, Note_on_c, 0, 58, 0
1, 143640, Note_on_c, 0, 67, 0
1, 143640, Note_on_c, 0, 77, 62
1, 143760, Note_on_c, 0, 77, 0
1, 143760, Note_on_c, 0, 69, 67
1, 143760, Note_on_c, 0, 60, 67
1, 143880, Tempo, 458961
1, 143880, Note_on_c, 0, 60, 0
1, 143880, Note_on_c, 0, 69, 0
1, 143880, Note_on_c, 0, 77, 62
1, 144000, Tempo, 385282
1, 144000, Note_on_c, 0, 77, 0
1, 144000, Note_on_c, 0, 70, 74
1, 144000, Note_on_c, 0, 61, 74
1, 144000, Control_c, 0, 64, 127
1, 144120, Note_on_c, 0, 70, 0
1, 144120, Note_on_c, 0, 77, 61
1, 144240, Note_on_c, 0, 77, 0
1, 144240, Note_on_c, 0, 70, 65
1, 144360, Note_on_c, 0, 70, 0
1, 144360, Note_on_c, 0, 77, 61
1, 144473, Control_c, 0, 64, 0
1, 144480, Note_on_c, 0, 77, 0
1, 144480, Note_on_c, 0, 61, 0
1, 144480, Note_on_c, 0, 69, 65
1, 144480, Note_on_c, 0, 60, 67
1, 144600, Tempo, 414565
1, 144600, Note_on_c, 0, 60, 0
1, 144600, Note_on_c, 0, 69, 0
1, 144600, Note_on_c, 0, 77, 60
1, 144720, Tempo, 382824
1, 144720, Note_on_c, 0, 77, 0
1, 144720, Note_on_c, 0, 70, 70
1, 144720, Note_on_c, 0, 61, 74
1, 144777, Control_c, 0, 64, 127
1, 144840, Note_on_c, 0, 70, 0
1, 144840, Note_on_c, 0, 77, 60
1, 144960, Note_on_c, 0, 77, 0
1, 144960, Note_on_c, 0, 70, 65
1, 145080, Note_on_c, 0, 70, 0
1, 145080, Note_on_c, 0, 77, 60
1, 145200, Note_on_c, 0, 77, 0
1, 145200, Note_on_c, 0, 61, 0
1, 145200, Note_on_c, 0, 69, 65
1, 145200, Note_on_c, 0, 60, 66
1, 145207, Control_c, 0, 64, 0
1, 145320, Tempo, 411720
1, 145320, Note_on_c, 0, 60, 0
1, 145320, Note_on_c, 0, 69, 0
1, 145320, Note_on_c, 0, 77, 46
1, 145440, Tempo, 461255
1, 145440, Note_on_c, 0, 77, 0
1, 145440, Note_on_c, 0, 68, 45
1, 145440, Note_on_c, 0, 59, 37
1, 145480, Control_c, 0, 64, 127
1, 145560, Note_on_c, 0, 59, 0
1, 145560, Note_on_c, 0, 68, 0
1, 145560, Note_on_c, 0, 77, 36
1, 145612, Control_c, 0, 64, 0
1, 145680, Tempo, 416435
1, 145680, Note_on_c, 0, 77, 0
1, 146040, Tempo, 462499
1, 146160, Tempo, 461255
1, 146160, Note_on_c, 0, 67, 42
1, 146160, Note_on_c, 0, 58, 37
1, 146229, Control_c, 0, 64, 127
1, 146280, Note_on_c, 0, 58, 0
1, 146280, Note_on_c, 0, 67, 0
1, 146280, Note_on_c, 0, 76, 34
1, 146360, Control_c, 0, 64, 0
1, 146400, Tempo, 416435
1, 146400, Note_on_c, 0, 76, 0
1, 146760, Tempo, 473447
1, 146880, Tempo, 464828
1, 146880, Note_on_c, 0, 66, 44
1, 146880, Note_on_c, 0, 57, 37
1, 146880, Control_c, 0, 64, 127
1, 147000, Note_on_c, 0, 57, 0
1, 147000, Note_on_c, 0, 66, 0
1, 147000, Note_on_c, 0, 75, 35
1, 147103, Control_c, 0, 64, 0
1, 147120, Tempo, 419346
1, 147120, Note_on_c, 0, 75, 0
1, 147600, Tempo, 398063
1, 147600, Note_on_c, 0, 46, 58
1, 147600, Control_c, 0, 64, 127
1, 147720, Note_on_c, 0, 46, 0
1, 147720, Note_on_c, 0, 58, 61
1, 147840, Note_on_c, 0, 58, 0
1, 147840, Note_on_c, 0, 62, 58
1, 147960, Note_on_c, 0, 62, 0
1, 147960, Note_on_c, 0, 67, 59
1, 148080, Note_on_c, 0, 67, 0
1, 148080, Note_on_c, 0, 70, 60
1, 148200, Note_on_c, 0, 70, 0
1, 148200, Note_on_c, 0, 74, 61
1, 148320, Note_on_c, 0, 74, 0
1, 148320, Note_on_c, 0, 72, 62
1, 148320, Note_on_c, 0, 52, 45
1, 148320, Note_on_c, 0, 48, 45
1, 148320, Note_on_c, 0, 58, 57
1, 148331, Control_c, 0, 64, 0
1, 148440, Note_on_c, 0, 70, 62
1, 148452, Note_on_c, 0, 72, 0
1, 148560, Note_on_c, 0, 69, 60
1, 148572, Note_on_c, 0, 70, 0
1, 148680, Note_on_c, 0, 67, 59
1, 148692, Note_on_c, 0, 69, 0
1, 148800, Tempo, 448665
1, 148800, Note_on_c, 0, 65, 57
1, 148812, Note_on_c, 0, 67, 0
1, 148920, Note_on_c, 0, 64, 55
1, 148932, Note_on_c, 0, 65, 0
1, 149040, Tempo, 398063
1, 149040, Note_on_c, 0, 58, 0
1, 149040, Note_on_c, 0, 52, 0
1, 149040, Note_on_c, 0, 48, 0
1, 149040, Note_on_c, 0, 65, 58
1, 149040, Note_on_c, 0, 57, 51
1, 149040, Note_on_c, 0, 53, 40
1, 149052, Note_on_c, 0, 64, 0
1, 149160, Note_on_c, 0, 65, 0
1, 149280, Note_on_c, 0, 57, 0
1, 149280, Note_on_c, 0, 53, 0
1, 149280, Note_on_c, 0, 60, 49
1, 149520, Note_on_c, 0, 60, 0
1, 149520, Note_on_c, 0, 60, 49
1, 149640, Tempo, 435635
1, 149700, Note_on_c, 0, 60, 0
1, 149700, Note_on_c, 0, 64, 41
1, 149760, Tempo, 398063
1, 149760, Note_on_c, 0, 64, 0
1, 149760, Note_on_c, 0, 70, 49
1, 149760, Note_on_c, 0, 48, 41
1, 150000, Note_on_c, 0, 48, 0
1, 150000, Note_on_c, 0, 60, 31
1, 150000, Note_on_c, 0, 58, 24
1, 150120, Note_on_c, 0, 58, 0
1, 150120, Note_on_c, 0, 60, 0
1, 150240, Note_on_c, 0, 60, 31
1, 150240, Note_on_c, 0, 58, 24
1, 150360, Note_on_c, 0, 58, 0
1, 150360, Note_on_c, 0, 60, 0
1, 150480, Note_on_c, 0, 60, 31
1, 150480, Note_on_c, 0, 58, 24
1, 150600, Note_on_c, 0, 58, 0
1, 150600, Note_on_c, 0, 60, 0
1, 150720, Note_on_c, 0, 70, 0
1, 150720, Note_on_c, 0, 69, 43
1, 150720, Note_on_c, 0, 60, 31
1, 150720, Note_on_c, 0, 58, 24
1, 150840, Note_on_c, 0, 58, 0
1, 150840, Note_on_c, 0, 60, 0
1, 150840, Note_on_c, 0, 69, 0
1, 150960, Note_on_c, 0, 67, 43
1, 150960, Note_on_c, 0, 60, 31
1, 150960, Note_on_c, 0, 58, 24
1, 151080, Tempo, 432495
1, 151080, Note_on_c, 0, 58, 0
1, 151080, Note_on_c, 0, 60, 0
1, 151080, Note_on_c, 0, 67, 0
1, 151200, Tempo, 398063
1, 151200, Note_on_c, 0, 67, 49
1, 151200, Note_on_c, 0, 53, 41
1, 151440, Note_on_c, 0, 53, 0
1, 151440, Note_on_c, 0, 67, 0
1, 151440, Note_on_c, 0, 65, 45
1, 151440, Note_on_c, 0, 60, 31
1, 151440, Note_on_c, 0, 57, 24
1, 151493, Control_c, 0, 64, 127
1, 151560, Note_on_c, 0, 57, 0
1, 151560, Note_on_c, 0, 60, 0
1, 151680, Note_on_c, 0, 60, 31
1, 151680, Note_on_c, 0, 57, 24
1, 151800, Note_on_c, 0, 57, 0
1, 151800, Note_on_c, 0, 60, 0
1, 151917, Control_c, 0, 64, 0
1, 151920, Note_on_c, 0, 65, 0
1, 151920, Note_on_c, 0, 65, 45
1, 151920, Note_on_c, 0, 57, 24
1, 151920, Note_on_c, 0, 60, 31
1, 151959, Control_c, 0, 64, 127
1, 152040, Note_on_c, 0, 60, 0
1, 152040, Note_on_c, 0, 57, 0
1, 152160, Note_on_c, 0, 57, 24
1, 152160, Note_on_c, 0, 60, 31
1, 152280, Note_on_c, 0, 60, 0
1, 152280, Note_on_c, 0, 57, 0
1, 152400, Note_on_c, 0, 57, 24
1, 152400, Note_on_c, 0, 60, 31
1, 152520, Tempo, 442054
1, 152520, Note_on_c, 0, 60, 0
1, 152520, Note_on_c, 0, 57, 0
1, 152580, Note_on_c, 0, 65, 0
1, 152580, Note_on_c, 0, 64, 41
1, 152640, Tempo, 398063
1, 152640, Note_on_c, 0, 64, 0
1, 152640, Note_on_c, 0, 70, 49
1, 152640, Note_on_c, 0, 48, 41
1, 152640, Control_c, 0, 64, 0
1, 152880, Note_on_c, 0, 48, 0
1, 152880, Note_on_c, 0, 55, 24
1, 152880, Note_on_c, 0, 60, 31
1, 153000, Note_on_c, 0, 60, 0
1, 153000, Note_on_c, 0, 55, 0
1, 153120, Note_on_c, 0, 55, 24
1, 153120, Note_on_c, 0, 60, 31
1, 153240, Note_on_c, 0, 60, 0
1, 153240, Note_on_c, 0, 55, 0
1, 153360, Note_on_c, 0, 55, 24
1, 153360, Note_on_c, 0, 60, 31
1, 153480, Note_on_c, 0, 60, 0
1, 153480, Note_on_c, 0, 55, 0
1, 153600, Note_on_c, 0, 70, 0
1, 153600, Note_on_c, 0, 69, 43
1, 153600, Note_on_c, 0, 60, 31
1, 153600, Note_on_c, 0, 55, 24
1, 153720, Note_on_c, 0, 55, 0
1, 153720, Note_on_c, 0, 60, 0
1, 153720, Note_on_c, 0, 69, 0
1, 153840, Note_on_c, 0, 67, 43
1, 153840, Note_on_c, 0, 55, 24
1, 153840, Note_on_c, 0, 60, 31
1, 153960, Tempo, 469741
1, 153960, Note_on_c, 0, 60, 0
1, 153960, Note_on_c, 0, 55, 0
1, 153960, Note_on_c, 0, 67, 0
1, 154080, Tempo, 398063
1, 154080, Note_on_c, 0, 71, 51
1, 154080, Note_on_c, 0, 53, 41
1, 154130, Control_c, 0, 64, 127
1, 154320, Note_on_c, 0, 53, 0
1, 154320, Note_on_c, 0, 60, 31
1, 154320, Note_on_c, 0, 57, 24
1, 154440, Note_on_c, 0, 57, 0
1, 154440, Note_on_c, 0, 60, 0
1, 154560, Note_on_c, 0, 57, 24
1, 154560, Note_on_c, 0, 60, 31
1, 154680, Note_on_c, 0, 60, 0
1, 154680, Note_on_c, 0, 57, 0
1, 154800, Note_on_c, 0, 71, 0
1, 154800, Note_on_c, 0, 72, 45
1, 154800, Note_on_c, 0, 60, 31
1, 154800, Note_on_c, 0, 57, 24
1, 154812, Control_c, 0, 64, 0
1, 154920, Note_on_c, 0, 57, 0
1, 154920, Note_on_c, 0, 60, 0
1, 154934, Control_c, 0, 64, 127
1, 155040, Note_on_c, 0, 72, 0
1, 155040, Note_on_c, 0, 57, 24
1, 155040, Note_on_c, 0, 60, 31
1, 155160, Note_on_c, 0, 60, 0
1, 155160, Note_on_c, 0, 57, 0
1, 155280, Note_on_c, 0, 60, 31
1, 155280, Note_on_c, 0, 57, 24
1, 155400, Note_on_c, 0, 57, 0
1, 155400, Note_on_c, 0, 60, 0
1, 155460, Tempo, 435635
1, 155460, Note_on_c, 0, 64, 41
1, 155520, Tempo, 398063
1, 155520, Note_on_c, 0, 64, 0
1, 155520, Note_on_c, 0, 70, 49
1, 155520, Note_on_c, 0, 48, 41
1, 155564, Control_c, 0, 64, 0
1, 155760, Note_on_c, 0, 48, 0
1, 155760, Note_on_c, 0, 58, 24
1, 155760, Note_on_c, 0, 60, 31
1, 155880, Note_on_c, 0, 60, 0
1, 155880, Note_on_c, 0, 58, 0
1, 156000, Note_on_c, 0, 60, 31
1, 156000, Note_on_c, 0, 58, 24
1, 156120, Note_on_c, 0, 58, 0
1, 156120, Note_on_c, 0, 60, 0
1, 156240, Note_on_c, 0, 60, 31
1, 156240, Note_on_c, 0, 58, 24
1, 156360, Note_on_c, 0, 58, 0
1, 156360, Note_on_c, 0, 60, 0
1, 156480, Note_on_c, 0, 70, 0
1, 156480, Note_on_c, 0, 69, 43
1, 156480, Note_on_c, 0, 60, 31
1, 156480, Note_on_c, 0, 58, 24
1, 156600, Note_on_c, 0, 58, 0
1, 156600, Note_on_c, 0, 60, 0
1, 156600, Note_on_c, 0, 69, 0
1, 156720, Note_on_c, 0, 67, 43
1, 156720, Note_on_c, 0, 60, 31
1, 156720, Note_on_c, 0, 58, 24
1, 156840, Tempo, 432495
1, 156840, Note_on_c, 0, 58, 0
1, 156840, Note_on_c, 0, 60, 0
1, 156840, Note_on_c, 0, 67, 0
1, 156960, Tempo, 398063
1, 156960, Note_on_c, 0, 65, 54
1, 156960, Note_on_c, 0, 53, 41
1, 157038, Control_c, 0, 64, 127
1, 157200, Note_on_c, 0, 53, 0
1, 157200, Note_on_c, 0, 60, 31
1, 157200, Note_on_c, 0, 57, 24
1, 157320, Note_on_c, 0, 57, 0
1, 157320, Note_on_c, 0, 60, 0
1, 157440, Note_on_c, 0, 65, 0
1, 157440, Note_on_c, 0, 69, 60
1, 157440, Note_on_c, 0, 57, 24
1, 157440, Note_on_c, 0, 60, 31
1, 157560, Note_on_c, 0, 60, 0
1, 157560, Note_on_c, 0, 57, 0
1, 157680, Note_on_c, 0, 60, 31
1, 157680, Note_on_c, 0, 57, 24
1, 157800, Note_on_c, 0, 57, 0
1, 157800, Note_on_c, 0, 60, 0
1, 157920, Note_on_c, 0, 57, 24
1, 157920, Note_on_c, 0, 60, 31
1, 158040, Note_on_c, 0, 60, 0
1, 158040, Note_on_c, 0, 57, 0
1, 158160, Note_on_c, 0, 69, 0
1, 158160, Note_on_c, 0, 72, 60
1, 158160, Note_on_c, 0, 60, 31
1, 158160, Note_on_c, 0, 57, 24
1, 158280, Note_on_c, 0, 57, 0
1, 158280, Note_on_c, 0, 60, 0
1, 158400, Note_on_c, 0, 48, 41
1, 158640, Note_on_c, 0, 48, 0
1, 158640, Note_on_c, 0, 55, 24
1, 158640, Note_on_c, 0, 60, 31
1, 158760, Note_on_c, 0, 60, 0
1, 158760, Note_on_c, 0, 55, 0
1, 158880, Note_on_c, 0, 72, 0
1, 158880, Note_on_c, 0, 70, 58
1, 158880, Note_on_c, 0, 60, 31
1, 158880, Note_on_c, 0, 55, 24
1, 158937, Control_c, 0, 64, 0
1, 159000, Note_on_c, 0, 55, 0
1, 159000, Note_on_c, 0, 60, 0
1, 159007, Control_c, 0, 64, 127
1, 159120, Note_on_c, 0, 60, 31
1, 159120, Note_on_c, 0, 58, 24
1, 159240, Note_on_c, 0, 58, 0
1, 159240, Note_on_c, 0, 60, 0
1, 159360, Note_on_c, 0, 60, 31
1, 159360, Note_on_c, 0, 58, 24
1, 159480, Note_on_c, 0, 58, 0
1, 159480, Note_on_c, 0, 60, 0
1, 159600, Tempo, 387772
1, 159600, Note_on_c, 0, 70, 0
1, 159600, Note_on_c, 0, 67, 50
1, 159600, Note_on_c, 0, 58, 24
1, 159600, Note_on_c, 0, 60, 31
1, 159720, Note_on_c, 0, 60, 0
1, 159720, Note_on_c, 0, 58, 0
1, 159840, Tempo, 398063
1, 159840, Note_on_c, 0, 67, 0
1, 159840, Note_on_c, 0, 65, 56
1, 159840, Note_on_c, 0, 57, 32
1, 159840, Note_on_c, 0, 60, 41
1, 159840, Note_on_c, 0, 53, 32
1, 159840, Control_c, 0, 64, 0
1, 160080, Note_on_c, 0, 53, 0
1, 160080, Note_on_c, 0, 65, 0
1, 160080, Note_on_c, 0, 57, 0
1, 160080, Note_on_c, 0, 60, 0
1, 160320, Note_on_c, 0, 57, 71
1, 160320, Note_on_c, 0, 45, 60
1, 160560, Tempo, 389408
1, 160560, Note_on_c, 0, 45, 0
1, 160560, Note_on_c, 0, 57, 0
1, 160560, Note_on_c, 0, 58, 78
1, 160560, Note_on_c, 0, 46, 66
1, 160680, Note_on_c, 0, 46, 0
1, 160680, Note_on_c, 0, 58, 0
1, 160800, Note_on_c, 0, 67, 73
1, 160800, Note_on_c, 0, 55, 61
1, 160920, Note_on_c, 0, 55, 0
1, 160920, Note_on_c, 0, 67, 0
1, 161040, Tempo, 399787
1, 161040, Note_on_c, 0, 59, 72
1, 161040, Note_on_c, 0, 47, 61
1, 161160, Note_on_c, 0, 47, 0
1, 161160, Note_on_c, 0, 59, 0
1, 161280, Tempo, 389408
1, 161280, Note_on_c, 0, 60, 78
1, 161280, Note_on_c, 0, 48, 66
1, 161400, Note_on_c, 0, 48, 0
1, 161400, Note_on_c, 0, 60, 0
1, 161520, Note_on_c, 0, 69, 73
1, 161520, Note_on_c, 0, 57, 61
1, 161640, Note_on_c, 0, 57, 0
1, 161640, Note_on_c, 0, 69, 0
1, 161760, Tempo, 394529
1, 161760, Note_on_c, 0, 61, 73
1, 161760, Note_on_c, 0, 49, 61
1, 161880, Note_on_c, 0, 49, 0
1, 161880, Note_on_c, 0, 61, 0
1, 162000, Tempo, 389408
1, 162000, Note_on_c, 0, 62, 78
1, 162000, Note_on_c, 0, 50, 66
1, 162120, Note_on_c, 0, 50, 0
1, 162120, Note_on_c, 0, 62, 0
1, 162240, Note_on_c, 0, 70, 72
1, 162240, Note_on_c, 0, 58, 61
1, 162360, Note_on_c, 0, 58, 0
1, 162360, Note_on_c, 0, 70, 0
1, 162480, Tempo, 397141
1, 162480, Note_on_c, 0, 64, 72
1, 162480, Note_on_c, 0, 52, 61
1, 162600, Note_on_c, 0, 52, 0
1, 162600, Note_on_c, 0, 64, 0
1, 162720, Tempo, 389408
1, 162720, Note_on_c, 0, 82, 68
1, 162784, Control_c, 0, 64, 127
1, 163440, Note_on_c, 0, 60, 28
1, 163440, Note_on_c, 0, 58, 28
1, 163440, Note_on_c, 0, 67, 34
1, 163440, Note_on_c, 0, 64, 28
1, 163680, Tempo, 379555
1, 163680, Note_on_c, 0, 82, 0
1, 163680, Note_on_c, 0, 81, 62
1, 163800, Note_on_c, 0, 81, 0
1, 163800, Note_on_c, 0, 79, 61
1, 163920, Note_on_c, 0, 79, 0
1, 163920, Note_on_c, 0, 77, 59
1, 164040, Note_on_c, 0, 77, 0
1, 164040, Note_on_c, 0, 76, 57
1, 164160, Tempo, 389408
1, 164160, Note_on_c, 0, 76, 0
1, 164160, Note_on_c, 0, 67, 0
1, 164160, Note_on_c, 0, 60, 0
1, 164160, Note_on_c, 0, 58, 0
1, 164160, Note_on_c, 0, 64, 0
1, 164160, Note_on_c, 0, 77, 56
1, 164160, Note_on_c, 0, 57, 41
1, 164160, Note_on_c, 0, 65, 49
1, 164160, Note_on_c, 0, 60, 41
1, 164160, Control_c, 0, 64, 0
1, 164280, Note_on_c, 0, 77, 0
1, 164400, Note_on_c, 0, 57, 0
1, 164400, Note_on_c, 0, 65, 0
1, 164400, Note_on_c, 0, 60, 0
1, 164400, Note_on_c, 0, 79, 49
1, 164520, Note_on_c, 0, 79, 0
1, 164640, Tempo, 428571
1, 164640, Note_on_c, 0, 81, 54
1, 164760, Note_on_c, 0, 81, 0
1, 164880, Tempo, 389408
1, 164880, Note_on_c, 0, 72, 46
1, 164880, Note_on_c, 0, 69, 46
1, 164880, Note_on_c, 0, 60, 42
1, 164923, Control_c, 0, 64, 127
1, 165360, Tempo, 425532
1, 165360, Note_on_c, 0, 60, 0
1, 165360, Note_on_c, 0, 69, 0
1, 165360, Note_on_c, 0, 72, 0
1, 165360, Note_on_c, 0, 70, 40
1, 165360, Note_on_c, 0, 67, 40
1, 165360, Note_on_c, 0, 61, 42
1, 165371, Control_c, 0, 64, 0
1, 165452, Control_c, 0, 64, 127
1, 165600, Tempo, 408163
1, 165600, Note_on_c, 0, 61, 0
1, 165600, Note_on_c, 0, 67, 0
1, 165600, Note_on_c, 0, 70, 0
1, 165600, Note_on_c, 0, 70, 46
1, 165600, Note_on_c, 0, 67, 46
1, 165600, Note_on_c, 0, 62, 47
1, 165600, Control_c, 0, 64, 0
1, 165734, Control_c, 0, 64, 127
1, 166320, Tempo, 394737
1, 166320, Note_on_c, 0, 67, 0
1, 166320, Note_on_c, 0, 70, 0
1, 166320, Note_on_c, 0, 69, 41
1, 166320, Note_on_c, 0, 65, 41
1, 166347, Control_c, 0, 64, 0
1, 166560, Note_on_c, 0, 65, 0
1, 166560, Note_on_c, 0, 69, 0
1, 166560, Note_on_c, 0, 62, 0
1, 167520, Tempo, 398063
1, 167520, Note_on_c, 0, 57, 71
1, 167520, Note_on_c, 0, 45, 60
1, 167760, Tempo, 389408
1, 167760, Note_on_c, 0, 45, 0
1, 167760, Note_on_c, 0, 57, 0
1, 167760, Note_on_c, 0, 58, 78
1, 167760, Note_on_c, 0, 46, 66
1, 167880, Note_on_c, 0, 46, 0
1, 167880, Note_on_c, 0, 58, 0
1, 168000, Note_on_c, 0, 67, 73
1, 168000, Note_on_c, 0, 55, 61
1, 168120, Note_on_c, 0, 55, 0
1, 168120, Note_on_c, 0, 67, 0
1, 168240, Tempo, 399787
1, 168240, Note_on_c, 0, 59, 72
1, 168240, Note_on_c, 0, 47, 61
1, 168360, Note_on_c, 0, 47, 0
1, 168360, Note_on_c, 0, 59, 0
1, 168480, Tempo, 389408
1, 168480, Note_on_c, 0, 60, 78
1, 168480, Note_on_c, 0, 48, 66
1, 168600, Note_on_c, 0, 48, 0
1, 168600, Note_on_c, 0, 60, 0
1, 168720, Note_on_c, 0, 69, 73
1, 168720, Note_on_c, 0, 57, 61
1, 168840, Note_on_c, 0, 57, 0
1, 168840, Note_on_c, 0, 69, 0
1, 168960, Tempo, 394529
1, 168960, Note_on_c, 0, 61, 73
1, 168960, Note_on_c, 0, 49, 61
1, 169080, Note_on_c, 0, 49, 0
1, 169080, Note_on_c, 0, 61, 0
1, 169200, Tempo, 389408
1, 169200, Note_on_c, 0, 62, 78
1, 169200, Note_on_c, 0, 50, 66
1, 169320, Note_on_c, 0, 50, 0
1, 169320, Note_on_c, 0, 62, 0
1, 169440, Note_on_c, 0, 70, 72
1, 169440, Note_on_c, 0, 58, 61
1, 169560, Note_on_c, 0, 58, 0
1, 169560, Note_on_c, 0, 70, 0
1, 169680, Tempo, 397141
1, 169680, Note_on_c, 0, 64, 72
1, 169680, Note_on_c, 0, 52, 61
1, 169800, Note_on_c, 0, 52, 0
1, 169800, Note_on_c, 0, 64, 0
1, 169920, Tempo, 389408
1, 169920, Note_on_c, 0, 82, 68
1, 169920, Control_c, 0, 64, 127
1, 170640, Note_on_c, 0, 60, 28
1, 170640, Note_on_c, 0, 58, 28
1, 170640, Note_on_c, 0, 64, 28
1, 170640, Note_on_c, 0, 67, 34
1, 170880, Tempo, 379555
1, 170880, Note_on_c, 0, 82, 0
1, 170880, Note_on_c, 0, 81, 62
1, 171000, Note_on_c, 0, 81, 0
1, 171000, Note_on_c, 0, 79, 61
1, 171120, Note_on_c, 0, 79, 0
1, 171120, Note_on_c, 0, 77, 59
1, 171240, Note_on_c, 0, 77, 0
1, 171240, Note_on_c, 0, 76, 57
1, 171360, Tempo, 503863
1, 171360, Note_on_c, 0, 76, 0
1, 171360, Note_on_c, 0, 64, 0
1, 171360, Note_on_c, 0, 60, 0
1, 171360, Note_on_c, 0, 58, 0
1, 171360, Note_on_c, 0, 67, 0
1, 171360, Note_on_c, 0, 77, 56
1, 171360, Note_on_c, 0, 60, 41
1, 171360, Note_on_c, 0, 57, 41
1, 171360, Note_on_c, 0, 65, 49
1, 171360, Control_c, 0, 64, 0
1, 171420, Note_on_c, 0, 77, 0
1, 171420, Note_on_c, 0, 79, 49
1, 171480, Note_on_c, 0, 79, 0
1, 171480, Note_on_c, 0, 81, 49
1, 171540, Note_on_c, 0, 81, 0
1, 171600, Tempo, 399787
1, 171600, Note_on_c, 0, 60, 0
1, 171600, Note_on_c, 0, 57, 0
1, 171600, Note_on_c, 0, 65, 0
1, 171840, Tempo, 405186
1, 172080, Tempo, 508130
1, 172080, Note_on_c, 0, 74, 46
1, 172080, Note_on_c, 0, 62, 32
1, 172080, Note_on_c, 0, 58, 32
1, 172080, Note_on_c, 0, 65, 40
1, 172140, Note_on_c, 0, 74, 0
1, 172140, Note_on_c, 0, 76, 38
1, 172200, Note_on_c, 0, 76, 0
1, 172200, Note_on_c, 0, 77, 38
1, 172260, Note_on_c, 0, 77, 0
1, 172320, Tempo, 389408
1, 172320, Note_on_c, 0, 62, 0
1, 172320, Note_on_c, 0, 58, 0
1, 172320, Note_on_c, 0, 65, 0
1, 172560, Tempo, 476190
1, 172800, Tempo, 397141
1, 172800, Note_on_c, 0, 65, 44
1, 172800, Note_on_c, 0, 57, 32
1, 172800, Note_on_c, 0, 48, 27
1, 172800, Control_c, 0, 64, 127
1, 173040, Tempo, 416435
1, 173280, Tempo, 447494
1, 173400, Note_on_c, 0, 65, 0
1, 173400, Note_on_c, 0, 69, 39
1, 173520, Note_on_c, 0, 69, 0
1, 173520, Note_on_c, 0, 57, 0
1, 173520, Note_on_c, 0, 64, 36
1, 173520, Note_on_c, 0, 67, 44
1, 173520, Note_on_c, 0, 58, 28
1, 173530, Control_c, 0, 64, 0
1, 173704, Control_c, 0, 64, 127
1, 174000, Tempo, 475888
1, 174000, Note_on_c, 0, 67, 0
1, 174000, Note_on_c, 0, 64, 0
1, 174000, Note_on_c, 0, 65, 41
1, 174240, Tempo, 410734
1, 174240, Note_on_c, 0, 65, 0
1, 174240, Note_on_c, 0, 48, 0
1, 174240, Note_on_c, 0, 58, 0
1, 174240, Note_on_c, 0, 65, 41
1, 174240, Note_on_c, 0, 53, 28
1, 174240, Control_c, 0, 64, 0
1, 174374, Control_c, 0, 64, 127
1, 174480, Tempo, 391952
1, 174480, Note_on_c, 0, 57, 24
1, 174720, Note_on_c, 0, 57, 0
1, 174720, Note_on_c, 0, 69, 39
1, 174720, Note_on_c, 0, 60, 24
1, 174960, Tempo, 394529
1, 174960, Note_on_c, 0, 60, 0
1, 174960, Note_on_c, 0, 65, 0
1, 174960, Note_on_c, 0, 53, 0
1, 174960, Note_on_c, 0, 69, 0
1, 174960, Note_on_c, 0, 64, 37
1, 174960, Note_on_c, 0, 72, 44
1, 174960, Note_on_c, 0, 53, 28
1, 174971, Control_c, 0, 64, 0
1, 175067, Control_c, 0, 64, 127
1, 175200, Note_on_c, 0, 72, 0
1, 175200, Note_on_c, 0, 70, 39
1, 175200, Note_on_c, 0, 55, 26
1, 175440, Tempo, 405186
1, 175440, Note_on_c, 0, 55, 0
1, 175440, Note_on_c, 0, 70, 0
1, 175440, Note_on_c, 0, 67, 39
1, 175440, Note_on_c, 0, 58, 26
1, 175680, Tempo, 394529
1, 175680, Note_on_c, 0, 58, 0
1, 175680, Note_on_c, 0, 64, 0
1, 175680, Note_on_c, 0, 53, 0
1, 175680, Note_on_c, 0, 67, 0
1, 175680, Note_on_c, 0, 65, 44
1, 175680, Note_on_c, 0, 53, 28
1, 175687, Control_c, 0, 64, 0
1, 175827, Control_c, 0, 64, 127
1, 175920, Note_on_c, 0, 60, 40
1, 175920, Note_on_c, 0, 57, 24
1, 176157, Note_on_c, 0, 60, 0
1, 176160, Tempo, 402468
1, 176160, Note_on_c, 0, 57, 0
1, 176160, Note_on_c, 0, 69, 40
1, 176160, Note_on_c, 0, 60, 24
1, 176400, Tempo, 394529
1, 176400, Note_on_c, 0, 60, 0
1, 176400, Note_on_c, 0, 65, 0
1, 176400, Note_on_c, 0, 53, 0
1, 176400, Note_on_c, 0, 69, 0
1, 176400, Note_on_c, 0, 72, 44
1, 176400, Note_on_c, 0, 64, 37
1, 176400, Note_on_c, 0, 53, 28
1, 176407, Control_c, 0, 64, 0
1, 176560, Control_c, 0, 64, 127
1, 176640, Note_on_c, 0, 72, 0
1, 176640, Note_on_c, 0, 70, 40
1, 176640, Note_on_c, 0, 55, 24
1, 176880, Tempo, 405186
1, 176880, Note_on_c, 0, 55, 0
1, 176880, Note_on_c, 0, 70, 0
1, 176880, Note_on_c, 0, 67, 40
1, 176880, Note_on_c, 0, 58, 24
1, 177120, Tempo, 394529
1, 177120, Note_on_c, 0, 58, 0
1, 177120, Note_on_c, 0, 64, 0
1, 177120, Note_on_c, 0, 53, 0
1, 177120, Note_on_c, 0, 67, 0
1, 177120, Note_on_c, 0, 65, 44
1, 177120, Note_on_c, 0, 53, 28
1, 177126, Control_c, 0, 64, 0
1, 177267, Control_c, 0, 64, 127
1, 177360, Note_on_c, 0, 65, 0
1, 177360, Note_on_c, 0, 60, 41
1, 177360, Note_on_c, 0, 57, 24
1, 177596, Note_on_c, 0, 60, 0
1, 177600, Tempo, 419346
1, 177600, Note_on_c, 0, 57, 0
1, 177600, Note_on_c, 0, 69, 41
1, 177600, Note_on_c, 0, 60, 24
1, 177840, Tempo, 397141
1, 177840, Note_on_c, 0, 60, 0
1, 177840, Note_on_c, 0, 69, 0
1, 177840, Note_on_c, 0, 53, 0
1, 177840, Note_on_c, 0, 65, 44
1, 177840, Note_on_c, 0, 53, 28
1, 177848, Control_c, 0, 64, 0
1, 177974, Control_c, 0, 64, 127
1, 178080, Tempo, 413565
1, 178080, Note_on_c, 0, 65, 0
1, 178080, Note_on_c, 0, 60, 40
1, 178080, Note_on_c, 0, 57, 24
1, 178316, Note_on_c, 0, 60, 0
1, 178320, Tempo, 593589
1, 178320, Note_on_c, 0, 57, 0
1, 178320, Note_on_c, 0, 69, 40
1, 178320, Note_on_c, 0, 60, 24
1, 178560, Tempo, 535332
1, 178560, Note_on_c, 0, 60, 0
1, 178560, Note_on_c, 0, 69, 0
1, 178560, Note_on_c, 0, 53, 0
1, 178560, Note_on_c, 0, 58, 36
1, 178560, Note_on_c, 0, 67, 42
1, 178560, Note_on_c, 0, 53, 28
1, 178560, Note_on_c, 0, 41, 23
1, 178568, Control_c, 0, 64, 0
1, 178760, Control_c, 0, 64, 127
1, 179280, Note_on_c, 0, 67, 0
1, 179280, Note_on_c, 0, 58, 0
1, 179280, Note_on_c, 0, 57, 31
1, 179280, Note_on_c, 0, 65, 36
1, 179347, Control_c, 0, 64, 0
1, 179520, Note_on_c, 0, 65, 0
1, 179520, Note_on_c, 0, 41, 0
1, 179520, Note_on_c, 0, 53, 0
1, 179520, Note_on_c, 0, 57, 0
1, 180000, Tempo, 397141
1, 180000, Note_on_c, 0, 81, 80
1, 180000, Note_on_c, 0, 69, 68
1, 180720, Note_on_c, 0, 69, 0
1, 180720, Note_on_c, 0, 81, 0
1, 180720, Note_on_c, 0, 79, 77
1, 180720, Note_on_c, 0, 69, 65
1, 181440, Note_on_c, 0, 69, 0
1, 181440, Note_on_c, 0, 79, 0
1, 181440, Note_on_c, 0, 69, 66
1, 181440, Note_on_c, 0, 77, 78
1, 181440, Note_on_c, 0, 45, 63
1, 181440, Note_on_c, 0, 57, 74
1, 182160, Note_on_c, 0, 57, 0
1, 182160, Note_on_c, 0, 69, 0
1, 182160, Note_on_c, 0, 77, 0
1, 182160, Note_on_c, 0, 45, 0
1, 182160, Note_on_c, 0, 76, 76
1, 182160, Note_on_c, 0, 69, 65
1, 182160, Note_on_c, 0, 55, 74
1, 182160, Note_on_c, 0, 43, 63
1, 182880, Note_on_c, 0, 43, 0
1, 182880, Note_on_c, 0, 76, 0
1, 182880, Note_on_c, 0, 69, 0
1, 182880, Note_on_c, 0, 55, 0
1, 182880, Note_on_c, 0, 74, 79
1, 182880, Note_on_c, 0, 69, 67
1, 182880, Note_on_c, 0, 53, 74
1, 182880, Note_on_c, 0, 41, 63
1, 183600, Tempo, 419346
1, 183600, Note_on_c, 0, 41, 0
1, 183600, Note_on_c, 0, 74, 0
1, 183600, Note_on_c, 0, 69, 0
1, 183600, Note_on_c, 0, 53, 0
1, 183600, Note_on_c, 0, 69, 65
1, 183600, Note_on_c, 0, 73, 76
1, 183600, Note_on_c, 0, 67, 65
1, 183600, Note_on_c, 0, 52, 74
1, 183600, Note_on_c, 0, 40, 63
1, 184320, Tempo, 397141
1, 184320, Note_on_c, 0, 40, 0
1, 184320, Note_on_c, 0, 67, 0
1, 184320, Note_on_c, 0, 69, 0
1, 184320, Note_on_c, 0, 73, 0
1, 184320, Note_on_c, 0, 52, 0
1, 184320, Note_on_c, 0, 74, 65
1, 184320, Note_on_c, 0, 50, 59
1, 184377, Control_c, 0, 64, 127
1, 184440, Note_on_c, 0, 74, 0
1, 184440, Note_on_c, 0, 69, 54
1, 184560, Tempo, 386897
1, 184560, Note_on_c, 0, 69, 0
1, 184560, Note_on_c, 0, 50, 0
1, 184560, Note_on_c, 0, 65, 54
1, 184560, Note_on_c, 0, 53, 54
1, 184680, Note_on_c, 0, 65, 0
1, 184680, Note_on_c, 0, 69, 54
1, 184800, Tempo, 410734
1, 184800, Note_on_c, 0, 69, 0
1, 184800, Note_on_c, 0, 53, 0
1, 184800, Note_on_c, 0, 74, 65
1, 184800, Note_on_c, 0, 57, 54
1, 184920, Note_on_c, 0, 74, 0
1, 184920, Note_on_c, 0, 69, 54
1, 185040, Tempo, 394529
1, 185040, Note_on_c, 0, 69, 0
1, 185040, Note_on_c, 0, 57, 0
1, 185040, Note_on_c, 0, 76, 65
1, 185040, Note_on_c, 0, 49, 59
1, 185051, Control_c, 0, 64, 0
1, 185132, Control_c, 0, 64, 127
1, 185160, Note_on_c, 0, 76, 0
1, 185160, Note_on_c, 0, 69, 54
1, 185280, Tempo, 384418
1, 185280, Note_on_c, 0, 69, 0
1, 185280, Note_on_c, 0, 49, 0
1, 185280, Note_on_c, 0, 67, 54
1, 185280, Note_on_c, 0, 52, 54
1, 185400, Note_on_c, 0, 67, 0
1, 185400, Note_on_c, 0, 69, 54
1, 185520, Tempo, 402468
1, 185520, Note_on_c, 0, 69, 0
1, 185520, Note_on_c, 0, 52, 0
1, 185520, Note_on_c, 0, 76, 65
1, 185520, Note_on_c, 0, 57, 54
1, 185640, Note_on_c, 0, 76, 0
1, 185640, Note_on_c, 0, 69, 55
1, 185760, Tempo, 391952
1, 185760, Note_on_c, 0, 69, 0
1, 185760, Note_on_c, 0, 57, 0
1, 185760, Note_on_c, 0, 77, 65
1, 185760, Note_on_c, 0, 50, 59
1, 185771, Control_c, 0, 64, 0
1, 185840, Control_c, 0, 64, 127
1, 185880, Note_on_c, 0, 77, 0
1, 185880, Note_on_c, 0, 74, 55
1, 186000, Note_on_c, 0, 74, 0
1, 186000, Note_on_c, 0, 50, 0
1, 186000, Note_on_c, 0, 69, 55
1, 186000, Note_on_c, 0, 53, 54
1, 186120, Note_on_c, 0, 69, 0
1, 186120, Note_on_c, 0, 74, 55
1, 186240, Tempo, 402468
1, 186240, Note_on_c, 0, 74, 0
1, 186240, Note_on_c, 0, 53, 0
1, 186240, Note_on_c, 0, 77, 65
1, 186240, Note_on_c, 0, 57, 54
1, 186360, Note_on_c, 0, 77, 0
1, 186360, Note_on_c, 0, 74, 55
1, 186480, Tempo, 391952
1, 186480, Note_on_c, 0, 74, 0
1, 186480, Note_on_c, 0, 57, 0
1, 186480, Note_on_c, 0, 78, 65
1, 186480, Note_on_c, 0, 48, 59
1, 186493, Control_c, 0, 64, 0
1, 186549, Control_c, 0, 64, 127
1, 186600, Note_on_c, 0, 78, 0
1, 186600, Note_on_c, 0, 74, 55
1, 186720, Tempo, 384418
1, 186720, Note_on_c, 0, 74, 0
1, 186720, Note_on_c, 0, 48, 0
1, 186720, Note_on_c, 0, 69, 55
1, 186720, Note_on_c, 0, 54, 53
1, 186840, Note_on_c, 0, 69, 0
1, 186840, Note_on_c, 0, 74, 55
1, 186960, Tempo, 402468
1, 186960, Note_on_c, 0, 74, 0
1, 186960, Note_on_c, 0, 54, 0
1, 186960, Note_on_c, 0, 78, 65
1, 186960, Note_on_c, 0, 57, 53
1, 187080, Note_on_c, 0, 78, 0
1, 187080, Note_on_c, 0, 74, 56
1, 187200, Tempo, 394529
1, 187200, Note_on_c, 0, 74, 0
1, 187200, Note_on_c, 0, 57, 0
1, 187200, Note_on_c, 0, 79, 65
1, 187200, Note_on_c, 0, 47, 58
1, 187213, Control_c, 0, 64, 0
1, 187680, Tempo, 389408
1, 187680, Note_on_c, 0, 47, 0
1, 187680, Note_on_c, 0, 79, 0
1, 187680, Note_on_c, 0, 81, 59
1, 187800, Note_on_c, 0, 81, 0
1, 187800, Note_on_c, 0, 79, 59
1, 187920, Tempo, 397141
1, 187920, Note_on_c, 0, 79, 0
1, 187920, Note_on_c, 0, 77, 65
1, 188400, Tempo, 391952
1, 188400, Note_on_c, 0, 77, 0
1, 188400, Note_on_c, 0, 79, 57
1, 188520, Note_on_c, 0, 79, 0
1, 188520, Note_on_c, 0, 77, 57
1, 188640, Tempo, 399787
1, 188640, Note_on_c, 0, 77, 0
1, 188640, Note_on_c, 0, 76, 65
1, 188640, Note_on_c, 0, 67, 54
1, 189120, Tempo, 394529
1, 189120, Note_on_c, 0, 76, 0
1, 189120, Note_on_c, 0, 77, 57
1, 189240, Note_on_c, 0, 77, 0
1, 189240, Note_on_c, 0, 76, 57
1, 189360, Tempo, 399787
1, 189360, Note_on_c, 0, 76, 0
1, 189360, Note_on_c, 0, 67, 0
1, 189360, Note_on_c, 0, 74, 65
1, 189360, Note_on_c, 0, 67, 52
1, 189360, Note_on_c, 0, 65, 44
1, 189840, Tempo, 391952
1, 189840, Note_on_c, 0, 74, 0
1, 189840, Note_on_c, 0, 76, 59
1, 189960, Note_on_c, 0, 76, 0
1, 189960, Note_on_c, 0, 74, 59
1, 190080, Tempo, 399787
1, 190080, Note_on_c, 0, 74, 0
1, 190080, Note_on_c, 0, 65, 0
1, 190080, Note_on_c, 0, 67, 0
1, 190080, Note_on_c, 0, 72, 65
1, 190080, Note_on_c, 0, 67, 47
1, 190080, Note_on_c, 0, 64, 40
1, 190560, Tempo, 391952
1, 190560, Note_on_c, 0, 72, 0
1, 190560, Note_on_c, 0, 74, 59
1, 190680, Note_on_c, 0, 74, 0
1, 190680, Note_on_c, 0, 72, 59
1, 190800, Tempo, 399787
1, 190800, Note_on_c, 0, 72, 0
1, 190800, Note_on_c, 0, 64, 0
1, 190800, Note_on_c, 0, 67, 0
1, 190800, Note_on_c, 0, 71, 65
1, 190800, Note_on_c, 0, 65, 39
1, 190800, Note_on_c, 0, 62, 39
1, 190800, Note_on_c, 0, 67, 46
1, 191040, Tempo, 399787
1, 191280, Tempo, 405186
1, 191280, Note_on_c, 0, 71, 0
1, 191280, Note_on_c, 0, 72, 56
1, 191400, Note_on_c, 0, 72, 0
1, 191400, Note_on_c, 0, 71, 56
1, 191520, Tempo, 399787
1, 191520, Note_on_c, 0, 71, 0
1, 191520, Note_on_c, 0, 65, 0
1, 191520, Note_on_c, 0, 62, 0
1, 191520, Note_on_c, 0, 67, 0
1, 191520, Note_on_c, 0, 74, 62
1, 191520, Note_on_c, 0, 60, 44
1, 191640, Note_on_c, 0, 60, 0
1, 191640, Note_on_c, 0, 72, 54
1, 191652, Note_on_c, 0, 74, 0
1, 191760, Note_on_c, 0, 71, 54
1, 191760, Note_on_c, 0, 64, 37
1, 191772, Note_on_c, 0, 72, 0
1, 191880, Note_on_c, 0, 64, 0
1, 191880, Note_on_c, 0, 72, 54
1, 191892, Note_on_c, 0, 71, 0
1, 192000, Note_on_c, 0, 71, 53
1, 192000, Note_on_c, 0, 67, 37
1, 192012, Note_on_c, 0, 72, 0
1, 192120, Tempo, 410734
1, 192120, Note_on_c, 0, 67, 0
1, 192120, Note_on_c, 0, 72, 55
1, 192132, Note_on_c, 0, 71, 0
1, 192240, Tempo, 397141
1, 192240, Note_on_c, 0, 76, 59
1, 192240, Note_on_c, 0, 59, 43
1, 192252, Note_on_c, 0, 72, 0
1, 192360, Note_on_c, 0, 59, 0
1, 192360, Note_on_c, 0, 74, 55
1, 192372, Note_on_c, 0, 76, 0
1, 192480, Note_on_c, 0, 73, 55
1, 192480, Note_on_c, 0, 65, 37
1, 192492, Note_on_c, 0, 74, 0
1, 192600, Note_on_c, 0, 65, 0
1, 192600, Note_on_c, 0, 74, 55
1, 192612, Note_on_c, 0, 73, 0
1, 192720, Note_on_c, 0, 73, 55
1, 192720, Note_on_c, 0, 67, 37
1, 192732, Note_on_c, 0, 74, 0
1, 192840, Tempo, 413565
1, 192840, Note_on_c, 0, 67, 0
1, 192840, Note_on_c, 0, 74, 55
1, 192852, Note_on_c, 0, 73, 0
1, 192960, Tempo, 397141
1, 192960, Note_on_c, 0, 76, 59
1, 192960, Note_on_c, 0, 67, 46
1, 192960, Note_on_c, 0, 60, 46
1, 192960, Note_on_c, 0, 64, 46
1, 192972, Note_on_c, 0, 74, 0
1, 193080, Note_on_c, 0, 74, 54
1, 193092, Note_on_c, 0, 76, 0
1, 193200, Note_on_c, 0, 64, 0
1, 193200, Note_on_c, 0, 60, 0
1, 193200, Note_on_c, 0, 67, 0
1, 193200, Note_on_c, 0, 72, 54
1, 193212, Note_on_c, 0, 74, 0
1, 193320, Note_on_c, 0, 74, 54
1, 193332, Note_on_c, 0, 72, 0
1, 193440, Note_on_c, 0, 76, 54
1, 193452, Note_on_c, 0, 74, 0
1, 193560, Note_on_c, 0, 77, 54
1, 193572, Note_on_c, 0, 76, 0
1, 193680, Note_on_c, 0, 79, 59
1, 193692, Note_on_c, 0, 77, 0
1, 193800, Note_on_c, 0, 77, 55
1, 193812, Note_on_c, 0, 79, 0
1, 193920, Note_on_c, 0, 76, 55
1, 193932, Note_on_c, 0, 77, 0
1, 194040, Note_on_c, 0, 77, 55
1, 194052, Note_on_c, 0, 76, 0
1, 194160, Note_on_c, 0, 79, 55
1, 194172, Note_on_c, 0, 77, 0
1, 194280, Tempo, 413565
1, 194280, Note_on_c, 0, 80, 55
1, 194292, Note_on_c, 0, 79, 0
1, 194400, Tempo, 397141
1, 194400, Note_on_c, 0, 81, 59
1, 194400, Note_on_c, 0, 53, 41
1, 194412, Note_on_c, 0, 80, 0
1, 194520, Note_on_c, 0, 53, 0
1, 194520, Note_on_c, 0, 81, 0
1, 194520, Note_on_c, 0, 82, 55
1, 194640, Note_on_c, 0, 81, 55
1, 194640, Note_on_c, 0, 65, 35
1, 194652, Note_on_c, 0, 82, 0
1, 194760, Note_on_c, 0, 65, 0
1, 194760, Note_on_c, 0, 79, 55
1, 194772, Note_on_c, 0, 81, 0
1, 194880, Note_on_c, 0, 77, 55
1, 194892, Note_on_c, 0, 79, 0
1, 195000, Note_on_c, 0, 76, 54
1, 195012, Note_on_c, 0, 77, 0
1, 195120, Tempo, 419346
1, 195120, Note_on_c, 0, 74, 59
1, 195120, Note_on_c, 0, 47, 43
1, 195132, Note_on_c, 0, 76, 0
1, 195240, Tempo, 397141
1, 195240, Note_on_c, 0, 47, 0
1, 195240, Note_on_c, 0, 74, 0
1, 195240, Note_on_c, 0, 85, 54
1, 195360, Note_on_c, 0, 86, 63
1, 195360, Note_on_c, 0, 59, 38
1, 195372, Note_on_c, 0, 85, 0
1, 195480, Note_on_c, 0, 59, 0
1, 195480, Note_on_c, 0, 84, 62
1, 195492, Note_on_c, 0, 86, 0
1, 195600, Note_on_c, 0, 83, 60
1, 195612, Note_on_c, 0, 84, 0
1, 195720, Tempo, 407941
1, 195720, Note_on_c, 0, 81, 59
1, 195732, Note_on_c, 0, 83, 0
1, 195840, Tempo, 397141
1, 195840, Note_on_c, 0, 79, 59
1, 195840, Note_on_c, 0, 52, 44
1, 195852, Note_on_c, 0, 81, 0
1, 195960, Note_on_c, 0, 52, 0
1, 195960, Note_on_c, 0, 79, 0
1, 195960, Note_on_c, 0, 81, 60
1, 196080, Note_on_c, 0, 81, 0
1, 196080, Note_on_c, 0, 79, 60
1, 196080, Note_on_c, 0, 64, 40
1, 196200, Note_on_c, 0, 64, 0
1, 196200, Note_on_c, 0, 79, 0
1, 196200, Note_on_c, 0, 77, 60
1, 196320, Note_on_c, 0, 77, 0
1, 196320, Note_on_c, 0, 76, 60
1, 196440, Note_on_c, 0, 76, 0
1, 196440, Note_on_c, 0, 74, 59
1, 196560, Tempo, 419346
1, 196560, Note_on_c, 0, 74, 0
1, 196560, Note_on_c, 0, 72, 59
1, 196560, Note_on_c, 0, 45, 43
1, 196680, Tempo, 397141
1, 196680, Note_on_c, 0, 45, 0
1, 196680, Note_on_c, 0, 72, 0
1, 196680, Note_on_c, 0, 83, 56
1, 196800, Note_on_c, 0, 84, 63
1, 196800, Note_on_c, 0, 57, 40
1, 196812, Note_on_c, 0, 83, 0
1, 196920, Note_on_c, 0, 57, 0
1, 196920, Note_on_c, 0, 83, 62
1, 196932, Note_on_c, 0, 84, 0
1, 197040, Note_on_c, 0, 81, 60
1, 197052, Note_on_c, 0, 83, 0
1, 197160, Note_on_c, 0, 79, 59
1, 197172, Note_on_c, 0, 81, 0
1, 197280, Tempo, 422297
1, 197280, Note_on_c, 0, 77, 56
1, 197280, Note_on_c, 0, 50, 48
1, 197292, Note_on_c, 0, 79, 0
1, 197400, Tempo, 394529
1, 197400, Note_on_c, 0, 50, 0
1, 197400, Note_on_c, 0, 77, 0
1, 197400, Note_on_c, 0, 85, 61
1, 197520, Note_on_c, 0, 85, 0
1, 197520, Note_on_c, 0, 86, 68
1, 197640, Note_on_c, 0, 86, 0
1, 197640, Note_on_c, 0, 83, 63
1, 197760, Note_on_c, 0, 83, 0
1, 197760, Note_on_c, 0, 79, 63
1, 197760, Note_on_c, 0, 59, 43
1, 197880, Note_on_c, 0, 59, 0
1, 197880, Note_on_c, 0, 79, 0
1, 197880, Note_on_c, 0, 77, 63
1, 198000, Tempo, 419346
1, 198000, Note_on_c, 0, 77, 0
1, 198000, Note_on_c, 0, 76, 60
1, 198000, Note_on_c, 0, 60, 49
1, 198120, Tempo, 394529
1, 198120, Note_on_c, 0, 60, 0
1, 198120, Note_on_c, 0, 76, 0
1, 198120, Note_on_c, 0, 83, 53
1, 198240, Note_on_c, 0, 84, 59
1, 198252, Note_on_c, 0, 83, 0
1, 198360, Note_on_c, 0, 79, 54
1, 198372, Note_on_c, 0, 84, 0
1, 198480, Note_on_c, 0, 77, 54
1, 198480, Note_on_c, 0, 48, 40
1, 198492, Note_on_c, 0, 79, 0
1, 198600, Tempo, 397141
1, 198600, Note_on_c, 0, 48, 0
1, 198600, Note_on_c, 0, 76, 54
1, 198612, Note_on_c, 0, 77, 0
1, 198720, Tempo, 394529
1, 198720, Note_on_c, 0, 74, 59
1, 198720, Note_on_c, 0, 55, 47
1, 198732, Note_on_c, 0, 76, 0
1, 198840, Note_on_c, 0, 55, 0
1, 198840, Note_on_c, 0, 74, 0
1, 198840, Note_on_c, 0, 76, 58
1, 198960, Note_on_c, 0, 74, 62
1, 198972, Note_on_c, 0, 76, 0
1, 199080, Note_on_c, 0, 72, 61
1, 199092, Note_on_c, 0, 74, 0
1, 199200, Note_on_c, 0, 71, 60
1, 199212, Note_on_c, 0, 72, 0
1, 199320, Note_on_c, 0, 69, 59
1, 199332, Note_on_c, 0, 71, 0
1, 199440, Note_on_c, 0, 67, 57
1, 199448, Tempo, 391952
1, 199452, Note_on_c, 0, 69, 0
1, 199523, Tempo, 394529
1, 199560, Note_on_c, 0, 69, 57
1, 199572, Note_on_c, 0, 67, 0
1, 199583, Tempo, 397141
1, 199643, Tempo, 399787
1, 199680, Note_on_c, 0, 67, 56
1, 199692, Note_on_c, 0, 69, 0
1, 199703, Tempo, 402468
1, 199778, Tempo, 405186
1, 199800, Note_on_c, 0, 65, 55
1, 199812, Note_on_c, 0, 67, 0
1, 199838, Tempo, 407941
1, 199898, Tempo, 410734
1, 199920, Note_on_c, 0, 64, 52
1, 199932, Note_on_c, 0, 65, 0
1, 199958, Tempo, 413565
1, 200018, Tempo, 416435
1, 200040, Tempo, 570994
1, 200040, Note_on_c, 0, 62, 51
1, 200052, Note_on_c, 0, 64, 0
1, 200160, Tempo, 398063
1, 200160, Note_on_c, 0, 62, 0
1, 200160, Note_on_c, 0, 75, 49
1, 200160, Note_on_c, 0, 60, 41
1, 200337, Control_c, 0, 64, 127
1, 200400, Note_on_c, 0, 60, 0
1, 200400, Note_on_c, 0, 63, 31
1, 200640, Note_on_c, 0, 63, 0
1, 200640, Note_on_c, 0, 67, 31
1, 200880, Note_on_c, 0, 67, 0
1, 200880, Note_on_c, 0, 60, 37
1, 201085, Control_c, 0, 64, 0
1, 201120, Tempo, 394529
1, 201120, Note_on_c, 0, 60, 0
1, 201120, Note_on_c, 0, 75, 0
1, 201120, Note_on_c, 0, 74, 43
1, 201120, Note_on_c, 0, 63, 31
1, 201240, Note_on_c, 0, 74, 0
1, 201360, Note_on_c, 0, 63, 0
1, 201360, Note_on_c, 0, 72, 43
1, 201360, Note_on_c, 0, 67, 31
1, 201480, Tempo, 432495
1, 201480, Note_on_c, 0, 72, 0
1, 201600, Tempo, 398063
1, 201600, Note_on_c, 0, 67, 0
1, 201600, Note_on_c, 0, 78, 49
1, 201600, Note_on_c, 0, 59, 41
1, 201600, Control_c, 0, 64, 127
1, 201840, Note_on_c, 0, 59, 0
1, 201840, Note_on_c, 0, 62, 31
1, 202080, Note_on_c, 0, 62, 0
1, 202080, Note_on_c, 0, 78, 0
1, 202080, Note_on_c, 0, 79, 43
1, 202080, Note_on_c, 0, 67, 31
1, 202320, Note_on_c, 0, 67, 0
1, 202320, Note_on_c, 0, 79, 0
1, 202320, Note_on_c, 0, 74, 43
1, 202320, Note_on_c, 0, 59, 36
1, 202334, Control_c, 0, 64, 0
1, 202454, Control_c, 0, 64, 127
1, 202560, Note_on_c, 0, 59, 0
1, 202560, Note_on_c, 0, 62, 31
1, 202800, Note_on_c, 0, 62, 0
1, 202800, Note_on_c, 0, 74, 0
1, 202800, Note_on_c, 0, 67, 31
1, 202920, Tempo, 442054
1, 203040, Tempo, 398063
1, 203040, Note_on_c, 0, 67, 0
1, 203040, Note_on_c, 0, 80, 58
1, 203040, Note_on_c, 0, 59, 41
1, 203051, Control_c, 0, 64, 0
1, 203181, Control_c, 0, 64, 127
1, 203280, Note_on_c, 0, 59, 0
1, 203280, Note_on_c, 0, 62, 31
1, 203520, Note_on_c, 0, 62, 0
1, 203520, Note_on_c, 0, 65, 31
1, 203760, Note_on_c, 0, 65, 0
1, 203760, Note_on_c, 0, 59, 37
1, 203965, Control_c, 0, 64, 0
1, 204000, Tempo, 394529
1, 204000, Note_on_c, 0, 59, 0
1, 204000, Note_on_c, 0, 80, 0
1, 204000, Note_on_c, 0, 79, 49
1, 204000, Note_on_c, 0, 62, 31
1, 204120, Note_on_c, 0, 79, 0
1, 204240, Note_on_c, 0, 62, 0
1, 204240, Note_on_c, 0, 77, 49
1, 204240, Note_on_c, 0, 67, 31
1, 204360, Tempo, 432495
1, 204360, Note_on_c, 0, 77, 0
1, 204480, Tempo, 398063
1, 204480, Note_on_c, 0, 67, 0
1, 204480, Note_on_c, 0, 75, 60
1, 204480, Note_on_c, 0, 60, 41
1, 204480, Control_c, 0, 64, 127
1, 204720, Tempo, 407941
1, 204720, Note_on_c, 0, 60, 0
1, 204720, Note_on_c, 0, 75, 0
1, 204720, Note_on_c, 0, 77, 42
1, 204720, Note_on_c, 0, 63, 31
1, 204800, Note_on_c, 0, 77, 0
1, 204800, Note_on_c, 0, 75, 42
1, 204880, Note_on_c, 0, 75, 0
1, 204880, Note_on_c, 0, 74, 42
1, 204960, Tempo, 410734
1, 204960, Note_on_c, 0, 74, 0
1, 204960, Note_on_c, 0, 63, 0
1, 204960, Note_on_c, 0, 75, 51
1, 204960, Note_on_c, 0, 67, 31
1, 205080, Tempo, 464828
1, 205080, Note_on_c, 0, 75, 0
1, 205080, Note_on_c, 0, 77, 44
1, 205200, Tempo, 397141
1, 205200, Note_on_c, 0, 77, 0
1, 205200, Note_on_c, 0, 67, 0
1, 205200, Note_on_c, 0, 79, 51
1, 205200, Note_on_c, 0, 60, 36
1, 205214, Control_c, 0, 64, 0
1, 205334, Control_c, 0, 64, 127
1, 205440, Note_on_c, 0, 60, 0
1, 205440, Note_on_c, 0, 63, 31
1, 205680, Note_on_c, 0, 63, 0
1, 205680, Note_on_c, 0, 79, 0
1, 205680, Note_on_c, 0, 67, 31
1, 205800, Tempo, 442054
1, 205920, Tempo, 402468
1, 205920, Note_on_c, 0, 67, 0
1, 205920, Note_on_c, 0, 84, 66
1, 205920, Note_on_c, 0, 63, 47
1, 205920, Control_c, 0, 64, 0
1, 206103, Control_c, 0, 64, 127
1, 206160, Note_on_c, 0, 63, 0
1, 206160, Note_on_c, 0, 67, 36
1, 206400, Note_on_c, 0, 67, 0
1, 206400, Note_on_c, 0, 72, 36
1, 206640, Tempo, 392182
1, 206640, Note_on_c, 0, 72, 0
1, 206640, Note_on_c, 0, 84, 0
1, 206640, Note_on_c, 0, 82, 54
1, 206640, Note_on_c, 0, 62, 44
1, 206651, Control_c, 0, 64, 0
1, 206812, Control_c, 0, 64, 127
1, 206880, Tempo, 397377
1, 206880, Note_on_c, 0, 62, 0
1, 206880, Note_on_c, 0, 65, 32
1, 207120, Note_on_c, 0, 65, 0
1, 207120, Note_on_c, 0, 82, 0
1, 207120, Note_on_c, 0, 84, 50
1, 207120, Note_on_c, 0, 70, 33
1, 207360, Tempo, 400027
1, 207360, Note_on_c, 0, 70, 0
1, 207360, Note_on_c, 0, 84, 0
1, 207360, Note_on_c, 0, 82, 57
1, 207360, Note_on_c, 0, 60, 48
1, 207366, Control_c, 0, 64, 0
1, 207452, Control_c, 0, 64, 127
1, 207600, Note_on_c, 0, 60, 0
1, 207600, Note_on_c, 0, 63, 36
1, 207840, Note_on_c, 0, 63, 0
1, 207840, Note_on_c, 0, 82, 0
1, 207840, Note_on_c, 0, 80, 52
1, 207840, Note_on_c, 0, 68, 36
1, 208080, Note_on_c, 0, 68, 0
1, 208080, Note_on_c, 0, 80, 0
1, 208080, Note_on_c, 0, 79, 55
1, 208080, Note_on_c, 0, 58, 45
1, 208085, Control_c, 0, 64, 0
1, 208252, Control_c, 0, 64, 127
1, 208320, Note_on_c, 0, 58, 0
1, 208320, Note_on_c, 0, 62, 31
1, 208560, Tempo, 408191
1, 208560, Note_on_c, 0, 62, 0
1, 208560, Note_on_c, 0, 67, 31
1, 208800, Tempo, 400027
1, 208800, Note_on_c, 0, 67, 0
1, 208800, Note_on_c, 0, 79, 0
1, 208800, Note_on_c, 0, 77, 59
1, 208800, Note_on_c, 0, 56, 46
1, 208800, Control_c, 0, 64, 0
1, 208937, Control_c, 0, 64, 127
1, 209040, Note_on_c, 0, 56, 0
1, 209040, Note_on_c, 0, 60, 35
1, 209280, Note_on_c, 0, 60, 0
1, 209280, Note_on_c, 0, 77, 0
1, 209280, Note_on_c, 0, 75, 53
1, 209280, Note_on_c, 0, 65, 35
1, 209520, Note_on_c, 0, 65, 0
1, 209520, Note_on_c, 0, 75, 0
1, 209520, Note_on_c, 0, 74, 57
1, 209520, Note_on_c, 0, 56, 43
1, 209531, Control_c, 0, 64, 0
1, 209623, Control_c, 0, 64, 127
1, 209760, Note_on_c, 0, 56, 0
1, 209760, Note_on_c, 0, 60, 36
1, 210000, Tempo, 410987
1, 210000, Note_on_c, 0, 60, 0
1, 210000, Note_on_c, 0, 74, 0
1, 210000, Note_on_c, 0, 72, 47
1, 210000, Note_on_c, 0, 66, 34
1, 210240, Tempo, 400027
1, 210240, Note_on_c, 0, 66, 0
1, 210240, Note_on_c, 0, 72, 0
1, 210240, Note_on_c, 0, 75, 53
1, 210240, Note_on_c, 0, 55, 43
1, 210245, Control_c, 0, 64, 0
1, 210343, Control_c, 0, 64, 127
1, 210480, Note_on_c, 0, 55, 0
1, 210480, Note_on_c, 0, 60, 29
1, 210720, Note_on_c, 0, 60, 0
1, 210720, Note_on_c, 0, 67, 30
1, 210960, Note_on_c, 0, 67, 0
1, 210960, Note_on_c, 0, 75, 0
1, 210960, Note_on_c, 0, 74, 45
1, 210960, Note_on_c, 0, 55, 39
1, 210995, Control_c, 0, 64, 0
1, 211132, Control_c, 0, 64, 127
1, 211200, Note_on_c, 0, 55, 0
1, 211200, Note_on_c, 0, 74, 0
1, 211200, Note_on_c, 0, 59, 27
1, 211440, Note_on_c, 0, 59, 0
1, 211440, Note_on_c, 0, 67, 27
1, 211680, Tempo, 398063
1, 211680, Note_on_c, 0, 67, 0
1, 211680, Note_on_c, 0, 75, 49
1, 211680, Note_on_c, 0, 60, 41
1, 211680, Control_c, 0, 64, 0
1, 211780, Control_c, 0, 64, 127
1, 211920, Note_on_c, 0, 60, 0
1, 211920, Note_on_c, 0, 63, 31
1, 212160, Note_on_c, 0, 63, 0
1, 212160, Note_on_c, 0, 67, 31
1, 212400, Note_on_c, 0, 67, 0
1, 212400, Note_on_c, 0, 60, 37
1, 212605, Control_c, 0, 64, 0
1, 212640, Tempo, 394529
1, 212640, Note_on_c, 0, 60, 0
1, 212640, Note_on_c, 0, 75, 0
1, 212640, Note_on_c, 0, 74, 43
1, 212640, Note_on_c, 0, 63, 31
1, 212760, Note_on_c, 0, 74, 0
1, 212880, Note_on_c, 0, 63, 0
1, 212880, Note_on_c, 0, 72, 43
1, 212880, Note_on_c, 0, 67, 31
1, 213000, Tempo, 432495
1, 213000, Note_on_c, 0, 72, 0
1, 213120, Tempo, 398063
1, 213120, Note_on_c, 0, 67, 0
1, 213120, Note_on_c, 0, 78, 49
1, 213120, Note_on_c, 0, 59, 41
1, 213120, Control_c, 0, 64, 127
1, 213360, Note_on_c, 0, 59, 0
1, 213360, Note_on_c, 0, 62, 31
1, 213600, Note_on_c, 0, 62, 0
1, 213600, Note_on_c, 0, 78, 0
1, 213600, Note_on_c, 0, 79, 43
1, 213600, Note_on_c, 0, 67, 31
1, 213840, Note_on_c, 0, 67, 0
1, 213840, Note_on_c, 0, 79, 0
1, 213840, Note_on_c, 0, 74, 43
1, 213840, Note_on_c, 0, 59, 36
1, 213854, Control_c, 0, 64, 0
1, 213974, Control_c, 0, 64, 127
1, 214080, Note_on_c, 0, 59, 0
1, 214080, Note_on_c, 0, 62, 31
1, 214320, Note_on_c, 0, 62, 0
1, 214320, Note_on_c, 0, 74, 0
1, 214320, Note_on_c, 0, 67, 31
1, 214440, Tempo, 442054
1, 214560, Tempo, 398063
1, 214560, Note_on_c, 0, 67, 0
1, 214560, Note_on_c, 0, 80, 58
1, 214560, Note_on_c, 0, 59, 41
1, 214571, Control_c, 0, 64, 0
1, 214701, Control_c, 0, 64, 127
1, 214800, Note_on_c, 0, 59, 0
1, 214800, Note_on_c, 0, 62, 31
1, 215040, Note_on_c, 0, 62, 0
1, 215040, Note_on_c, 0, 65, 31
1, 215280, Note_on_c, 0, 65, 0
1, 215280, Note_on_c, 0, 59, 37
1, 215485, Control_c, 0, 64, 0
1, 215520, Tempo, 394529
1, 215520, Note_on_c, 0, 59, 0
1, 215520, Note_on_c, 0, 80, 0
1, 215520, Note_on_c, 0, 79, 49
1, 215520, Note_on_c, 0, 62, 31
1, 215640, Note_on_c, 0, 79, 0
1, 215760, Note_on_c, 0, 62, 0
1, 215760, Note_on_c, 0, 77, 49
1, 215760, Note_on_c, 0, 67, 31
1, 215880, Tempo, 432495
1, 215880, Note_on_c, 0, 77, 0
1, 216000, Tempo, 398063
1, 216000, Note_on_c, 0, 67, 0
1, 216000, Note_on_c, 0, 76, 60
1, 216000, Note_on_c, 0, 58, 41
1, 216000, Control_c, 0, 64, 127
1, 216240, Tempo, 407941
1, 216240, Note_on_c, 0, 58, 0
1, 216240, Note_on_c, 0, 76, 0
1, 216240, Note_on_c, 0, 61, 31
1, 216480, Tempo, 410734
1, 216480, Note_on_c, 0, 61, 0
1, 216480, Note_on_c, 0, 77, 51
1, 216480, Note_on_c, 0, 67, 31
1, 216600, Tempo, 464828
1, 216600, Note_on_c, 0, 77, 0
1, 216600, Note_on_c, 0, 79, 44
1, 216720, Tempo, 397141
1, 216720, Note_on_c, 0, 79, 0
1, 216720, Note_on_c, 0, 67, 0
1, 216720, Note_on_c, 0, 77, 51
1, 216720, Note_on_c, 0, 57, 36
1, 216734, Control_c, 0, 64, 0
1, 216854, Control_c, 0, 64, 127
1, 216960, Note_on_c, 0, 57, 0
1, 216960, Note_on_c, 0, 60, 31
1, 217200, Note_on_c, 0, 60, 0
1, 217200, Note_on_c, 0, 77, 0
1, 217200, Note_on_c, 0, 65, 31
1, 217320, Tempo, 442054
1, 217440, Tempo, 402468
1, 217440, Note_on_c, 0, 65, 0
1, 217440, Note_on_c, 0, 87, 71
1, 217440, Note_on_c, 0, 56, 52
1, 217440, Control_c, 0, 64, 0
1, 217623, Control_c, 0, 64, 127
1, 217680, Note_on_c, 0, 56, 0
1, 217680, Note_on_c, 0, 60, 41
1, 217920, Note_on_c, 0, 60, 0
1, 217920, Note_on_c, 0, 66, 41
1, 218160, Note_on_c, 0, 66, 0
1, 218160, Note_on_c, 0, 87, 0
1, 218160, Note_on_c, 0, 55, 51
1, 218171, Control_c, 0, 64, 0
1, 218400, Tempo, 389636
1, 218400, Note_on_c, 0, 55, 0
1, 218400, Note_on_c, 0, 86, 58
1, 218400, Note_on_c, 0, 60, 36
1, 218520, Tempo, 410987
1, 218520, Note_on_c, 0, 86, 0
1, 218640, Tempo, 397377
1, 218640, Note_on_c, 0, 60, 0
1, 218640, Note_on_c, 0, 84, 58
1, 218640, Note_on_c, 0, 67, 36
1, 218760, Note_on_c, 0, 84, 0
1, 218880, Tempo, 400027
1, 218880, Note_on_c, 0, 67, 0
1, 218880, Note_on_c, 0, 83, 66
1, 218880, Note_on_c, 0, 53, 56
1, 218972, Control_c, 0, 64, 127
1, 219120, Note_on_c, 0, 53, 0
1, 219120, Note_on_c, 0, 56, 36
1, 219360, Note_on_c, 0, 56, 0
1, 219360, Note_on_c, 0, 62, 36
1, 219600, Note_on_c, 0, 62, 0
1, 219600, Note_on_c, 0, 83, 0
1, 219600, Note_on_c, 0, 84, 68
1, 219600, Note_on_c, 0, 51, 45
1, 219605, Control_c, 0, 64, 0
1, 219772, Control_c, 0, 64, 127
1, 219840, Note_on_c, 0, 51, 0
1, 219840, Note_on_c, 0, 60, 31
1, 220080, Tempo, 408191
1, 220080, Note_on_c, 0, 60, 0
1, 220080, Note_on_c, 0, 84, 0
1, 220080, Note_on_c, 0, 80, 46
1, 220080, Note_on_c, 0, 53, 31
1, 220320, Tempo, 397377
1, 220320, Note_on_c, 0, 53, 0
1, 220320, Note_on_c, 0, 80, 0
1, 220320, Note_on_c, 0, 72, 55
1, 220320, Note_on_c, 0, 55, 45
1, 220320, Control_c, 0, 64, 0
1, 220355, Control_c, 0, 64, 127
1, 220560, Note_on_c, 0, 55, 0
1, 220560, Note_on_c, 0, 60, 30
1, 220800, Note_on_c, 0, 60, 0
1, 220800, Note_on_c, 0, 63, 30
1, 220980, Note_on_c, 0, 72, 0
1, 220980, Note_on_c, 0, 75, 40
1, 221040, Note_on_c, 0, 75, 0
1, 221040, Note_on_c, 0, 63, 0
1, 221040, Note_on_c, 0, 74, 51
1, 221040, Note_on_c, 0, 71, 51
1, 221040, Note_on_c, 0, 55, 38
1, 221051, Control_c, 0, 64, 0
1, 221097, Control_c, 0, 64, 127
1, 221280, Note_on_c, 0, 55, 0
1, 221280, Note_on_c, 0, 62, 31
1, 221520, Tempo, 447795
1, 221520, Note_on_c, 0, 62, 0
1, 221520, Note_on_c, 0, 65, 31
1, 221760, Note_on_c, 0, 65, 0
1, 221760, Note_on_c, 0, 71, 0
1, 221760, Note_on_c, 0, 74, 0
1, 221760, Note_on_c, 0, 72, 74
1, 221760, Note_on_c, 0, 64, 67
1, 221760, Note_on_c, 0, 60, 67
1, 221773, Tempo, 397141
1, 221846, Control_c, 0, 64, 0
1, 221880, Note_on_c, 0, 72, 0
1, 221880, Note_on_c, 0, 79, 62
1, 222000, Note_on_c, 0, 79, 0
1, 222000, Note_on_c, 0, 78, 62
1, 222013, Tempo, 386897
1, 222120, Note_on_c, 0, 78, 0
1, 222120, Note_on_c, 0, 79, 62
1, 222240, Note_on_c, 0, 79, 0
1, 222240, Note_on_c, 0, 60, 0
1, 222240, Note_on_c, 0, 64, 0
1, 222240, Note_on_c, 0, 81, 69
1, 222253, Tempo, 410734
1, 222360, Note_on_c, 0, 81, 0
1, 222360, Note_on_c, 0, 79, 62
1, 222480, Tempo, 389408
1, 222480, Note_on_c, 0, 79, 0
1, 222480, Note_on_c, 0, 77, 65
1, 222480, Note_on_c, 0, 62, 67
1, 222600, Note_on_c, 0, 62, 0
1, 222600, Note_on_c, 0, 77, 0
1, 222600, Note_on_c, 0, 79, 60
1, 222720, Tempo, 384418
1, 222720, Note_on_c, 0, 79, 0
1, 222720, Note_on_c, 0, 77, 65
1, 222720, Note_on_c, 0, 59, 62
1, 222840, Note_on_c, 0, 59, 0
1, 222840, Note_on_c, 0, 77, 0
1, 222840, Note_on_c, 0, 79, 59
1, 222960, Note_on_c, 0, 79, 0
1, 222960, Note_on_c, 0, 77, 65
1, 222960, Note_on_c, 0, 55, 62
1, 222973, Tempo, 402468
1, 223080, Note_on_c, 0, 55, 0
1, 223080, Note_on_c, 0, 77, 0
1, 223080, Note_on_c, 0, 79, 59
1, 223200, Tempo, 402468
1, 223200, Note_on_c, 0, 79, 0
1, 223200, Note_on_c, 0, 76, 74
1, 223200, Note_on_c, 0, 60, 67
1, 223213, Tempo, 397141
1, 223320, Note_on_c, 0, 76, 0
1, 223320, Note_on_c, 0, 79, 62
1, 223440, Note_on_c, 0, 79, 0
1, 223440, Note_on_c, 0, 78, 62
1, 223453, Tempo, 386897
1, 223560, Note_on_c, 0, 78, 0
1, 223560, Note_on_c, 0, 79, 62
1, 223680, Note_on_c, 0, 79, 0
1, 223680, Note_on_c, 0, 60, 0
1, 223680, Note_on_c, 0, 84, 74
1, 223693, Tempo, 410734
1, 223800, Note_on_c, 0, 84, 0
1, 223800, Note_on_c, 0, 79, 62
1, 223920, Tempo, 391952
1, 223920, Note_on_c, 0, 79, 0
1, 223920, Note_on_c, 0, 77, 65
1, 223920, Note_on_c, 0, 62, 67
1, 224040, Note_on_c, 0, 62, 0
1, 224040, Note_on_c, 0, 77, 0
1, 224040, Note_on_c, 0, 79, 60
1, 224160, Tempo, 381971
1, 224160, Note_on_c, 0, 79, 0
1, 224160, Note_on_c, 0, 77, 65
1, 224160, Note_on_c, 0, 59, 62
1, 224280, Note_on_c, 0, 59, 0
1, 224280, Note_on_c, 0, 77, 0
1, 224280, Note_on_c, 0, 79, 59
1, 224400, Note_on_c, 0, 79, 0
1, 224400, Note_on_c, 0, 77, 65
1, 224400, Note_on_c, 0, 55, 62
1, 224413, Tempo, 402468
1, 224520, Note_on_c, 0, 55, 0
1, 224520, Note_on_c, 0, 77, 0
1, 224520, Note_on_c, 0, 79, 59
1, 224640, Tempo, 402468
1, 224640, Note_on_c, 0, 79, 0
1, 224640, Note_on_c, 0, 76, 74
1, 224640, Note_on_c, 0, 60, 67
1, 224653, Tempo, 397141
1, 224760, Note_on_c, 0, 76, 0
1, 224760, Note_on_c, 0, 79, 62
1, 224880, Note_on_c, 0, 79, 0
1, 224880, Note_on_c, 0, 78, 62
1, 224893, Tempo, 386897
1, 225000, Note_on_c, 0, 78, 0
1, 225000, Note_on_c, 0, 79, 62
1, 225120, Note_on_c, 0, 79, 0
1, 225120, Note_on_c, 0, 60, 0
1, 225120, Note_on_c, 0, 84, 72
1, 225133, Tempo, 410734
1, 225240, Note_on_c, 0, 84, 0
1, 225240, Note_on_c, 0, 79, 62
1, 225360, Tempo, 384418
1, 225360, Note_on_c, 0, 79, 0
1, 225360, Note_on_c, 0, 77, 65
1, 225360, Note_on_c, 0, 62, 67
1, 225480, Note_on_c, 0, 62, 0
1, 225480, Note_on_c, 0, 77, 0
1, 225480, Note_on_c, 0, 79, 60
1, 225600, Note_on_c, 0, 79, 0
1, 225600, Note_on_c, 0, 77, 65
1, 225600, Note_on_c, 0, 59, 62
1, 225613, Tempo, 384418
1, 225720, Note_on_c, 0, 59, 0
1, 225720, Note_on_c, 0, 77, 0
1, 225720, Note_on_c, 0, 79, 59
1, 225840, Note_on_c, 0, 79, 0
1, 225840, Note_on_c, 0, 77, 65
1, 225840, Note_on_c, 0, 55, 62
1, 225853, Tempo, 402468
1, 225960, Note_on_c, 0, 55, 0
1, 225960, Note_on_c, 0, 77, 0
1, 225960, Note_on_c, 0, 79, 59
1, 226080, Tempo, 402468
1, 226080, Note_on_c, 0, 79, 0
1, 226080, Note_on_c, 0, 76, 74
1, 226080, Note_on_c, 0, 60, 67
1, 226093, Tempo, 397141
1, 226200, Note_on_c, 0, 76, 0
1, 226200, Note_on_c, 0, 79, 62
1, 226320, Note_on_c, 0, 79, 0
1, 226320, Note_on_c, 0, 84, 71
1, 226333, Tempo, 386897
1, 226440, Note_on_c, 0, 84, 0
1, 226440, Note_on_c, 0, 76, 60
1, 226560, Note_on_c, 0, 76, 0
1, 226560, Note_on_c, 0, 60, 0
1, 226560, Note_on_c, 0, 74, 70
1, 226569, Control_c, 0, 64, 127
1, 226573, Tempo, 410734
1, 226680, Note_on_c, 0, 74, 0
1, 226680, Note_on_c, 0, 83, 62
1, 226770, Tempo, 394529
1, 226800, Note_on_c, 0, 83, 0
1, 226800, Note_on_c, 0, 72, 70
1, 226808, Control_c, 0, 64, 0
1, 226840, Control_c, 0, 64, 127
1, 226842, Tempo, 391952
1, 226890, Tempo, 389408
1, 226920, Note_on_c, 0, 72, 0
1, 226920, Note_on_c, 0, 81, 62
1, 226962, Tempo, 386897
1, 227010, Tempo, 384418
1, 227040, Tempo, 381971
1, 227040, Note_on_c, 0, 81, 0
1, 227040, Note_on_c, 0, 71, 69
1, 227051, Control_c, 0, 64, 0
1, 227058, Tempo, 379555
1, 227120, Control_c, 0, 64, 127
1, 227160, Note_on_c, 0, 71, 0
1, 227160, Note_on_c, 0, 79, 60
1, 227250, Tempo, 377169
1, 227280, Note_on_c, 0, 79, 0
1, 227280, Note_on_c, 0, 69, 67
1, 227287, Control_c, 0, 64, 0
1, 227326, Control_c, 0, 64, 127
1, 227400, Note_on_c, 0, 69, 0
1, 227400, Note_on_c, 0, 77, 58
1, 227442, Tempo, 374813
1, 227478, Tempo, 381971
1, 227520, Tempo, 374813
1, 227520, Note_on_c, 0, 77, 0
1, 227520, Note_on_c, 0, 67, 69
1, 227527, Control_c, 0, 64, 0
1, 227577, Control_c, 0, 64, 127
1, 227640, Note_on_c, 0, 67, 0
1, 227640, Note_on_c, 0, 76, 62
1, 227760, Note_on_c, 0, 76, 0
1, 227760, Note_on_c, 0, 65, 67
1, 227770, Control_c, 0, 64, 0
1, 227846, Control_c, 0, 64, 127
1, 227880, Note_on_c, 0, 65, 0
1, 227880, Note_on_c, 0, 74, 59
1, 228000, Note_on_c, 0, 74, 0
1, 228000, Note_on_c, 0, 64, 66
1, 228009, Control_c, 0, 64, 0
1, 228069, Control_c, 0, 64, 127
1, 228120, Note_on_c, 0, 64, 0
1, 228120, Note_on_c, 0, 72, 56
1, 228240, Note_on_c, 0, 72, 0
1, 228240, Note_on_c, 0, 62, 62
1, 228249, Control_c, 0, 64, 0
1, 228255, Tempo, 386897
1, 228309, Control_c, 0, 64, 127
1, 228315, Tempo, 389408
1, 228360, Note_on_c, 0, 62, 0
1, 228360, Note_on_c, 0, 71, 54
1, 228375, Tempo, 391952
1, 228435, Tempo, 394529
1, 228480, Note_on_c, 0, 71, 0
1, 228480, Note_on_c, 0, 60, 63
1, 228490, Control_c, 0, 64, 0
1, 228495, Tempo, 397141
1, 228543, Control_c, 0, 64, 127
1, 228555, Tempo, 399787
1, 228600, Note_on_c, 0, 60, 0
1, 228600, Note_on_c, 0, 69, 55
1, 228615, Tempo, 402468
1, 228675, Tempo, 405186
1, 228720, Note_on_c, 0, 69, 0
1, 228720, Note_on_c, 0, 59, 62
1, 228732, Control_c, 0, 64, 0
1, 228735, Tempo, 407941
1, 228783, Control_c, 0, 64, 127
1, 228795, Tempo, 410734
1, 228840, Note_on_c, 0, 59, 0
1, 228840, Note_on_c, 0, 67, 51
1, 228855, Tempo, 413565
1, 228915, Tempo, 416435
1, 228960, Tempo, 402468
1, 228960, Note_on_c, 0, 67, 0
1, 228960, Note_on_c, 0, 57, 45
1, 228960, Note_on_c, 0, 66, 55
1, 228960, Control_c, 0, 64, 0
1, 229200, Tempo, 391952
1, 229200, Note_on_c, 0, 45, 46
1, 229440, Tempo, 397141
1, 229440, Note_on_c, 0, 48, 49
1, 229464, Note_on_c, 0, 45, 0
1, 229680, Tempo, 391952
1, 229680, Note_on_c, 0, 57, 0
1, 229680, Note_on_c, 0, 66, 0
1, 229680, Note_on_c, 0, 56, 45
1, 229680, Note_on_c, 0, 65, 55
1, 229680, Note_on_c, 0, 51, 51
1, 229704, Note_on_c, 0, 48, 0
1, 229920, Note_on_c, 0, 50, 46
1, 229944, Note_on_c, 0, 51, 0
1, 230160, Tempo, 399787
1, 230160, Note_on_c, 0, 48, 46
1, 230184, Note_on_c, 0, 50, 0
1, 230400, Tempo, 405186
1, 230400, Note_on_c, 0, 56, 0
1, 230400, Note_on_c, 0, 65, 0
1, 230400, Note_on_c, 0, 68, 45
1, 230400, Note_on_c, 0, 77, 55
1, 230640, Tempo, 389408
1, 230640, Note_on_c, 0, 48, 0
1, 230640, Note_on_c, 0, 47, 45
1, 230880, Tempo, 394529
1, 230880, Note_on_c, 0, 50, 46
1, 230904, Note_on_c, 0, 47, 0
1, 231120, Tempo, 389408
1, 231120, Note_on_c, 0, 68, 0
1, 231120, Note_on_c, 0, 77, 0
1, 231120, Note_on_c, 0, 62, 45
1, 231120, Note_on_c, 0, 71, 55
1, 231120, Note_on_c, 0, 56, 51
1, 231144, Note_on_c, 0, 50, 0
1, 231360, Note_on_c, 0, 55, 46
1, 231384, Note_on_c, 0, 56, 0
1, 231600, Tempo, 399787
1, 231600, Note_on_c, 0, 53, 46
1, 231624, Note_on_c, 0, 55, 0
1, 231840, Tempo, 402468
1, 231840, Note_on_c, 0, 62, 0
1, 231840, Note_on_c, 0, 71, 0
1, 231840, Note_on_c, 0, 52, 36
1, 231864, Note_on_c, 0, 53, 0
1, 232080, Tempo, 389408
1, 232080, Note_on_c, 0, 52, 0
1, 232080, Note_on_c, 0, 79, 49
1, 232200, Note_on_c, 0, 79, 0
1, 232320, Note_on_c, 0, 79, 49
1, 232440, Note_on_c, 0, 79, 0
1, 232560, Tempo, 402468
1, 232560, Note_on_c, 0, 53, 40
1, 232800, Tempo, 389408
1, 232800, Note_on_c, 0, 53, 0
1, 232800, Note_on_c, 0, 81, 49
1, 232920, Note_on_c, 0, 81, 0
1, 233040, Tempo, 407941
1, 233040, Note_on_c, 0, 81, 49
1, 233160, Note_on_c, 0, 81, 0
1, 233280, Tempo, 402468
1, 233280, Note_on_c, 0, 67, 39
1, 233280, Note_on_c, 0, 72, 47
1, 233280, Note_on_c, 0, 55, 34
1, 233280, Note_on_c, 0, 64, 40
1, 233361, Control_c, 0, 64, 127
1, 233940, Note_on_c, 0, 72, 0
1, 233940, Note_on_c, 0, 67, 0
1, 233940, Note_on_c, 0, 76, 40
1, 234000, Tempo, 416435
1, 234000, Note_on_c, 0, 76, 0
1, 234000, Note_on_c, 0, 64, 0
1, 234000, Note_on_c, 0, 74, 44
1, 234000, Note_on_c, 0, 71, 37
1, 234000, Note_on_c, 0, 65, 40
1, 234039, Control_c, 0, 64, 0
1, 234141, Control_c, 0, 64, 127
1, 234720, Tempo, 402468
1, 234720, Note_on_c, 0, 65, 0
1, 234720, Note_on_c, 0, 55, 0
1, 234720, Note_on_c, 0, 74, 0
1, 234720, Note_on_c, 0, 71, 0
1, 234720, Note_on_c, 0, 72, 74
1, 234720, Note_on_c, 0, 64, 67
1, 234720, Note_on_c, 0, 60, 67
1, 234733, Tempo, 397141
1, 234806, Control_c, 0, 64, 0
1, 234840, Note_on_c, 0, 72, 0
1, 234840, Note_on_c, 0, 79, 62
1, 234960, Note_on_c, 0, 79, 0
1, 234960, Note_on_c, 0, 78, 62
1, 234973, Tempo, 386897
1, 235080, Note_on_c, 0, 78, 0
1, 235080, Note_on_c, 0, 79, 62
1, 235200, Note_on_c, 0, 79, 0
1, 235200, Note_on_c, 0, 60, 0
1, 235200, Note_on_c, 0, 64, 0
1, 235200, Note_on_c, 0, 81, 68
1, 235213, Tempo, 410734
1, 235320, Note_on_c, 0, 81, 0
1, 235320, Note_on_c, 0, 79, 62
1, 235440, Note_on_c, 0, 79, 0
1, 235440, Note_on_c, 0, 77, 65
1, 235440, Note_on_c, 0, 62, 67
1, 235453, Tempo, 394529
1, 235560, Note_on_c, 0, 62, 0
1, 235560, Note_on_c, 0, 77, 0
1, 235560, Note_on_c, 0, 79, 60
1, 235680, Note_on_c, 0, 79, 0
1, 235680, Note_on_c, 0, 77, 65
1, 235680, Note_on_c, 0, 59, 62
1, 235693, Tempo, 384418
1, 235800, Note_on_c, 0, 59, 0
1, 235800, Note_on_c, 0, 77, 0
1, 235800, Note_on_c, 0, 79, 59
1, 235920, Note_on_c, 0, 79, 0
1, 235920, Note_on_c, 0, 77, 65
1, 235920, Note_on_c, 0, 55, 62
1, 235933, Tempo, 402468
1, 236040, Note_on_c, 0, 55, 0
1, 236040, Note_on_c, 0, 77, 0
1, 236040, Note_on_c, 0, 79, 59
1, 236160, Tempo, 402468
1, 236160, Note_on_c, 0, 79, 0
1, 236160, Note_on_c, 0, 76, 74
1, 236160, Note_on_c, 0, 60, 67
1, 236173, Tempo, 397141
1, 236280, Note_on_c, 0, 76, 0
1, 236280, Note_on_c, 0, 79, 62
1, 236400, Note_on_c, 0, 79, 0
1, 236400, Note_on_c, 0, 78, 62
1, 236413, Tempo, 386897
1, 236520, Note_on_c, 0, 78, 0
1, 236520, Note_on_c, 0, 79, 62
1, 236640, Note_on_c, 0, 79, 0
1, 236640, Note_on_c, 0, 60, 0
1, 236640, Note_on_c, 0, 84, 74
1, 236653, Tempo, 410734
1, 236760, Note_on_c, 0, 84, 0
1, 236760, Note_on_c, 0, 79, 62
1, 236880, Note_on_c, 0, 79, 0
1, 236880, Note_on_c, 0, 77, 65
1, 236880, Note_on_c, 0, 62, 67
1, 236893, Tempo, 394529
1, 237000, Note_on_c, 0, 62, 0
1, 237000, Note_on_c, 0, 77, 0
1, 237000, Note_on_c, 0, 79, 60
1, 237120, Note_on_c, 0, 79, 0
1, 237120, Note_on_c, 0, 77, 65
1, 237120, Note_on_c, 0, 59, 62
1, 237133, Tempo, 384418
1, 237240, Note_on_c, 0, 59, 0
1, 237240, Note_on_c, 0, 77, 0
1, 237240, Note_on_c, 0, 79, 59
1, 237360, Note_on_c, 0, 79, 0
1, 237360, Note_on_c, 0, 77, 65
1, 237360, Note_on_c, 0, 55, 62
1, 237373, Tempo, 402468
1, 237480, Note_on_c, 0, 55, 0
1, 237480, Note_on_c, 0, 77, 0
1, 237480, Note_on_c, 0, 79, 59
1, 237600, Tempo, 402468
1, 237600, Note_on_c, 0, 79, 0
1, 237600, Note_on_c, 0, 76, 74
1, 237600, Note_on_c, 0, 60, 67
1, 237613, Tempo, 397141
1, 237720, Note_on_c, 0, 76, 0
1, 237720, Note_on_c, 0, 79, 62
1, 237840, Note_on_c, 0, 79, 0
1, 237840, Note_on_c, 0, 78, 62
1, 237853, Tempo, 386897
1, 237960, Note_on_c, 0, 78, 0
1, 237960, Note_on_c, 0, 79, 62
1, 238080, Note_on_c, 0, 79, 0
1, 238080, Note_on_c, 0, 60, 0
1, 238080, Note_on_c, 0, 84, 72
1, 238093, Tempo, 410734
1, 238200, Note_on_c, 0, 84, 0
1, 238200, Note_on_c, 0, 79, 62
1, 238320, Note_on_c, 0, 79, 0
1, 238320, Note_on_c, 0, 77, 65
1, 238320, Note_on_c, 0, 62, 67
1, 238333, Tempo, 394529
1, 238440, Note_on_c, 0, 62, 0
1, 238440, Note_on_c, 0, 77, 0
1, 238440, Note_on_c, 0, 79, 60
1, 238560, Note_on_c, 0, 79, 0
1, 238560, Note_on_c, 0, 77, 65
1, 238560, Note_on_c, 0, 59, 62
1, 238573, Tempo, 384418
1, 238680, Note_on_c, 0, 59, 0
1, 238680, Note_on_c, 0, 77, 0
1, 238680, Note_on_c, 0, 79, 59
1, 238800, Note_on_c, 0, 79, 0
1, 238800, Note_on_c, 0, 77, 65
1, 238800, Note_on_c, 0, 55, 62
1, 238813, Tempo, 402468
1, 238920, Note_on_c, 0, 55, 0
1, 238920, Note_on_c, 0, 77, 0
1, 238920, Note_on_c, 0, 79, 59
1, 239040, Tempo, 402468
1, 239040, Note_on_c, 0, 79, 0
1, 239040, Note_on_c, 0, 76, 74
1, 239040, Note_on_c, 0, 60, 67
1, 239053, Tempo, 397141
1, 239160, Note_on_c, 0, 76, 0
1, 239160, Note_on_c, 0, 79, 62
1, 239280, Note_on_c, 0, 79, 0
1, 239280, Note_on_c, 0, 84, 71
1, 239293, Tempo, 386897
1, 239400, Note_on_c, 0, 84, 0
1, 239400, Note_on_c, 0, 76, 60
1, 239495, Tempo, 399787
1, 239520, Note_on_c, 0, 76, 0
1, 239520, Note_on_c, 0, 60, 0
1, 239520, Note_on_c, 0, 74, 70
1, 239529, Control_c, 0, 64, 127
1, 239610, Tempo, 397141
1, 239640, Note_on_c, 0, 74, 0
1, 239640, Note_on_c, 0, 83, 62
1, 239725, Tempo, 394529
1, 239748, Tempo, 397141
1, 239760, Note_on_c, 0, 83, 0
1, 239760, Note_on_c, 0, 72, 70
1, 239768, Control_c, 0, 64, 0
1, 239800, Control_c, 0, 64, 127
1, 239802, Tempo, 391952
1, 239879, Tempo, 389408
1, 239880, Note_on_c, 0, 72, 0
1, 239880, Note_on_c, 0, 81, 62
1, 239956, Tempo, 386897
1, 240000, Note_on_c, 0, 81, 0
1, 240000, Note_on_c, 0, 71, 69
1, 240011, Control_c, 0, 64, 0
1, 240013, Tempo, 384418
1, 240080, Control_c, 0, 64, 127
1, 240090, Tempo, 381971
1, 240120, Note_on_c, 0, 71, 0
1, 240120, Note_on_c, 0, 79, 60
1, 240167, Tempo, 379555
1, 240240, Note_on_c, 0, 79, 0
1, 240240, Note_on_c, 0, 69, 67
1, 240244, Tempo, 377169
1, 240247, Control_c, 0, 64, 0
1, 240286, Control_c, 0, 64, 127
1, 240320, Tempo, 374813
1, 240360, Note_on_c, 0, 69, 0
1, 240360, Note_on_c, 0, 77, 58
1, 240397, Tempo, 372486
1, 240474, Tempo, 370188
1, 240480, Note_on_c, 0, 77, 0
1, 240480, Note_on_c, 0, 67, 69
1, 240487, Control_c, 0, 64, 0
1, 240537, Control_c, 0, 64, 127
1, 240600, Note_on_c, 0, 67, 0
1, 240600, Note_on_c, 0, 76, 62
1, 240720, Note_on_c, 0, 76, 0
1, 240720, Note_on_c, 0, 65, 67
1, 240730, Control_c, 0, 64, 0
1, 240806, Control_c, 0, 64, 127
1, 240840, Note_on_c, 0, 65, 0
1, 240840, Note_on_c, 0, 74, 59
1, 240960, Note_on_c, 0, 74, 0
1, 240960, Note_on_c, 0, 64, 66
1, 240969, Control_c, 0, 64, 0
1, 241029, Control_c, 0, 64, 127
1, 241080, Note_on_c, 0, 64, 0
1, 241080, Note_on_c, 0, 72, 56
1, 241200, Note_on_c, 0, 72, 0
1, 241200, Note_on_c, 0, 62, 64
1, 241204, Tempo, 367918
1, 241209, Control_c, 0, 64, 0
1, 241242, Tempo, 370188
1, 241269, Control_c, 0, 64, 127
1, 241280, Tempo, 372486
1, 241300, Tempo, 374813
1, 241320, Note_on_c, 0, 62, 0
1, 241320, Note_on_c, 0, 71, 55
1, 241338, Tempo, 377169
1, 241357, Tempo, 379555
1, 241396, Tempo, 381971
1, 241434, Tempo, 384418
1, 241440, Note_on_c, 0, 71, 0
1, 241440, Note_on_c, 0, 60, 63
1, 241451, Control_c, 0, 64, 0
1, 241453, Tempo, 386897
1, 241492, Tempo, 389408
1, 241503, Control_c, 0, 64, 127
1, 241511, Tempo, 391952
1, 241549, Tempo, 394529
1, 241560, Note_on_c, 0, 60, 0
1, 241560, Note_on_c, 0, 69, 55
1, 241568, Tempo, 397141
1, 241575, Tempo, 402468
1, 241635, Tempo, 405186
1, 241680, Note_on_c, 0, 69, 0
1, 241680, Note_on_c, 0, 59, 62
1, 241692, Control_c, 0, 64, 0
1, 241695, Tempo, 407941
1, 241743, Control_c, 0, 64, 127
1, 241755, Tempo, 410734
1, 241800, Note_on_c, 0, 59, 0
1, 241800, Note_on_c, 0, 67, 51
1, 241815, Tempo, 413565
1, 241875, Tempo, 416435
1, 241920, Tempo, 402468
1, 241920, Note_on_c, 0, 67, 0
1, 241920, Note_on_c, 0, 57, 45
1, 241920, Note_on_c, 0, 66, 55
1, 241920, Control_c, 0, 64, 0
1, 242160, Tempo, 391952
1, 242160, Note_on_c, 0, 45, 46
1, 242400, Tempo, 397141
1, 242400, Note_on_c, 0, 48, 49
1, 242424, Note_on_c, 0, 45, 0
1, 242640, Tempo, 391952
1, 242640, Note_on_c, 0, 57, 0
1, 242640, Note_on_c, 0, 66, 0
1, 242640, Note_on_c, 0, 65, 55
1, 242640, Note_on_c, 0, 56, 45
1, 242640, Note_on_c, 0, 51, 51
1, 242664, Note_on_c, 0, 48, 0
1, 242880, Note_on_c, 0, 50, 46
1, 242904, Note_on_c, 0, 51, 0
1, 243120, Tempo, 399787
1, 243120, Note_on_c, 0, 48, 46
1, 243144, Note_on_c, 0, 50, 0
1, 243360, Tempo, 405186
1, 243360, Note_on_c, 0, 65, 0
1, 243360, Note_on_c, 0, 56, 0
1, 243360, Note_on_c, 0, 68, 45
1, 243360, Note_on_c, 0, 77, 55
1, 243600, Tempo, 389408
1, 243600, Note_on_c, 0, 48, 0
1, 243600, Note_on_c, 0, 47, 45
1, 243840, Tempo, 394529
1, 243840, Note_on_c, 0, 50, 46
1, 243864, Note_on_c, 0, 47, 0
1, 244080, Tempo, 389408
1, 244080, Note_on_c, 0, 68, 0
1, 244080, Note_on_c, 0, 77, 0
1, 244080, Note_on_c, 0, 62, 45
1, 244080, Note_on_c, 0, 71, 55
1, 244080, Note_on_c, 0, 56, 51
1, 244104, Note_on_c, 0, 50, 0
1, 244320, Note_on_c, 0, 55, 46
1, 244344, Note_on_c, 0, 56, 0
1, 244560, Tempo, 399787
1, 244560, Note_on_c, 0, 53, 46
1, 244584, Note_on_c, 0, 55, 0
1, 244800, Tempo, 402468
1, 244800, Note_on_c, 0, 62, 0
1, 244800, Note_on_c, 0, 71, 0
1, 244800, Note_on_c, 0, 52, 36
1, 244824, Note_on_c, 0, 53, 0
1, 245040, Tempo, 389408
1, 245040, Note_on_c, 0, 52, 0
1, 245040, Note_on_c, 0, 79, 49
1, 245160, Note_on_c, 0, 79, 0
1, 245280, Note_on_c, 0, 79, 49
1, 245400, Note_on_c, 0, 79, 0
1, 245520, Tempo, 402468
1, 245520, Note_on_c, 0, 53, 40
1, 245760, Tempo, 389408
1, 245760, Note_on_c, 0, 53, 0
1, 245760, Note_on_c, 0, 81, 49
1, 245880, Note_on_c, 0, 81, 0
1, 246000, Tempo, 407941
1, 246000, Note_on_c, 0, 81, 49
1, 246120, Note_on_c, 0, 81, 0
1, 246240, Tempo, 402468
1, 246240, Note_on_c, 0, 67, 39
1, 246240, Note_on_c, 0, 72, 47
1, 246240, Note_on_c, 0, 55, 34
1, 246240, Note_on_c, 0, 64, 40
1, 246347, Control_c, 0, 64, 127
1, 246960, Tempo, 416435
1, 246960, Note_on_c, 0, 64, 0
1, 246960, Note_on_c, 0, 55, 0
1, 246960, Note_on_c, 0, 72, 0
1, 246960, Note_on_c, 0, 71, 37
1, 246960, Note_on_c, 0, 62, 40
1, 246960, Note_on_c, 0, 53, 32
1, 246968, Control_c, 0, 64, 0
1, 247107, Control_c, 0, 64, 127
1, 247560, Tempo, 450857
1, 247680, Tempo, 410734
1, 247680, Note_on_c, 0, 53, 0
1, 247680, Note_on_c, 0, 67, 0
1, 247680, Note_on_c, 0, 71, 0
1, 247680, Note_on_c, 0, 62, 0
1, 247680, Note_on_c, 0, 78, 71
1, 247680, Note_on_c, 0, 52, 64
1, 247680, Control_c, 0, 64, 0
1, 247800, Note_on_c, 0, 78, 0
1, 247800, Note_on_c, 0, 79, 55
1, 247920, Tempo, 397141
1, 247920, Note_on_c, 0, 52, 0
1, 247920, Note_on_c, 0, 78, 55
1, 247920, Note_on_c, 0, 55, 53
1, 247932, Note_on_c, 0, 79, 0
1, 248040, Note_on_c, 0, 79, 55
1, 248052, Note_on_c, 0, 78, 0
1, 248160, Note_on_c, 0, 55, 0
1, 248160, Note_on_c, 0, 78, 55
1, 248160, Note_on_c, 0, 60, 53
1, 248172, Note_on_c, 0, 79, 0
1, 248173, Tempo, 410734
1, 248280, Note_on_c, 0, 79, 55
1, 248292, Note_on_c, 0, 78, 0
1, 248400, Tempo, 405186
1, 248400, Note_on_c, 0, 79, 0
1, 248400, Note_on_c, 0, 60, 0
1, 248400, Note_on_c, 0, 80, 62
1, 248400, Note_on_c, 0, 53, 61
1, 248520, Note_on_c, 0, 81, 55
1, 248532, Note_on_c, 0, 80, 0
1, 248640, Tempo, 397141
1, 248640, Note_on_c, 0, 53, 0
1, 248640, Note_on_c, 0, 80, 55
1, 248640, Note_on_c, 0, 57, 53
1, 248652, Note_on_c, 0, 81, 0
1, 248760, Note_on_c, 0, 81, 55
1, 248772, Note_on_c, 0, 80, 0
1, 248880, Note_on_c, 0, 57, 0
1, 248880, Note_on_c, 0, 83, 59
1, 248880, Note_on_c, 0, 62, 50
1, 248892, Note_on_c, 0, 81, 0
1, 248893, Tempo, 402468
1, 249000, Note_on_c, 0, 84, 55
1, 249012, Note_on_c, 0, 83, 0
1, 249120, Tempo, 402468
1, 249120, Note_on_c, 0, 84, 0
1, 249120, Note_on_c, 0, 62, 0
1, 249120, Note_on_c, 0, 72, 47
1, 249120, Note_on_c, 0, 55, 38
1, 249254, Control_c, 0, 64, 127
1, 249360, Note_on_c, 0, 55, 0
1, 249360, Note_on_c, 0, 60, 34
1, 249600, Note_on_c, 0, 60, 0
1, 249600, Note_on_c, 0, 64, 34
1, 249780, Note_on_c, 0, 72, 0
1, 249780, Note_on_c, 0, 76, 37
1, 249840, Tempo, 416435
1, 249840, Note_on_c, 0, 76, 0
1, 249840, Note_on_c, 0, 64, 0
1, 249840, Note_on_c, 0, 74, 43
1, 249840, Note_on_c, 0, 71, 43
1, 249840, Note_on_c, 0, 55, 39
1, 249850, Control_c, 0, 64, 0
1, 249974, Control_c, 0, 64, 127
1, 250080, Note_on_c, 0, 55, 0
1, 250080, Note_on_c, 0, 62, 33
1, 250320, Note_on_c, 0, 62, 0
1, 250320, Note_on_c, 0, 71, 0
1, 250320, Note_on_c, 0, 65, 33
1, 250440, Note_on_c, 0, 74, 0
1, 250440, Note_on_c, 0, 72, 37
1, 250560, Note_on_c, 0, 72, 0
1, 250560, Note_on_c, 0, 65, 0
1, 250560, Note_on_c, 0, 72, 71
1, 250560, Note_on_c, 0, 60, 56
1, 250560, Note_on_c, 0, 64, 66
1, 250574, Control_c, 0, 64, 0
1, 250680, Note_on_c, 0, 76, 64
1, 250692, Note_on_c, 0, 72, 0
1, 250800, Tempo, 397141
1, 250800, Note_on_c, 0, 79, 67
1, 250812, Note_on_c, 0, 76, 0
1, 250920, Note_on_c, 0, 84, 68
1, 250932, Note_on_c, 0, 79, 0
1, 251040, Tempo, 389408
1, 251040, Note_on_c, 0, 60, 0
1, 251040, Note_on_c, 0, 64, 0
1, 251040, Note_on_c, 0, 83, 69
1, 251052, Note_on_c, 0, 84, 0
1, 251160, Note_on_c, 0, 81, 69
1, 251172, Note_on_c, 0, 83, 0
1, 251280, Note_on_c, 0, 79, 71
1, 251280, Note_on_c, 0, 55, 56
1, 251280, Note_on_c, 0, 59, 66
1, 251280, Note_on_c, 0, 65, 66
1, 251292, Note_on_c, 0, 81, 0
1, 251400, Note_on_c, 0, 81, 67
1, 251412, Note_on_c, 0, 79, 0
1, 251520, Note_on_c, 0, 79, 67
1, 251532, Note_on_c, 0, 81, 0
1, 251640, Note_on_c, 0, 77, 67
1, 251652, Note_on_c, 0, 79, 0
1, 251760, Note_on_c, 0, 65, 0
1, 251760, Note_on_c, 0, 59, 0
1, 251760, Note_on_c, 0, 55, 0
1, 251760, Note_on_c, 0, 76, 67
1, 251772, Note_on_c, 0, 77, 0
1, 251880, Tempo, 434531
1, 251880, Note_on_c, 0, 74, 67
1, 251892, Note_on_c, 0, 76, 0
1, 252000, Tempo, 416435
1, 252000, Note_on_c, 0, 74, 0
1, 252000, Note_on_c, 0, 72, 71
1, 252000, Note_on_c, 0, 64, 66
1, 252000, Note_on_c, 0, 60, 56
1, 252120, Note_on_c, 0, 76, 64
1, 252132, Note_on_c, 0, 72, 0
1, 252240, Tempo, 394529
1, 252240, Note_on_c, 0, 74, 64
1, 252252, Note_on_c, 0, 76, 0
1, 252360, Note_on_c, 0, 72, 68
1, 252372, Note_on_c, 0, 74, 0
1, 252480, Tempo, 389408
1, 252480, Note_on_c, 0, 64, 0
1, 252480, Note_on_c, 0, 60, 0
1, 252480, Note_on_c, 0, 71, 64
1, 252492, Note_on_c, 0, 72, 0
1, 252600, Note_on_c, 0, 69, 64
1, 252612, Note_on_c, 0, 71, 0
1, 252720, Note_on_c, 0, 67, 69
1, 252720, Note_on_c, 0, 65, 66
1, 252720, Note_on_c, 0, 59, 56
1, 252720, Note_on_c, 0, 55, 56
1, 252732, Note_on_c, 0, 69, 0
1, 252840, Note_on_c, 0, 69, 63
1, 252852, Note_on_c, 0, 67, 0
1, 252960, Note_on_c, 0, 67, 63
1, 252972, Note_on_c, 0, 69, 0
1, 253080, Note_on_c, 0, 65, 63
1, 253092, Note_on_c, 0, 67, 0
1, 253200, Note_on_c, 0, 55, 0
1, 253200, Note_on_c, 0, 59, 0
1, 253200, Note_on_c, 0, 65, 0
1, 253200, Note_on_c, 0, 64, 63
1, 253212, Note_on_c, 0, 65, 0
1, 253320, Tempo, 431406
1, 253320, Note_on_c, 0, 62, 63
1, 253332, Note_on_c, 0, 64, 0
1, 253440, Tempo, 407941
1, 253440, Note_on_c, 0, 62, 0
1, 253440, Note_on_c, 0, 60, 71
1, 253440, Note_on_c, 0, 52, 66
1, 253440, Note_on_c, 0, 48, 56
1, 253560, Note_on_c, 0, 64, 63
1, 253572, Note_on_c, 0, 60, 0
1, 253680, Tempo, 391952
1, 253680, Note_on_c, 0, 62, 63
1, 253692, Note_on_c, 0, 64, 0
1, 253800, Note_on_c, 0, 60, 63
1, 253812, Note_on_c, 0, 62, 0
1, 253920, Tempo, 389408
1, 253920, Note_on_c, 0, 52, 0
1, 253920, Note_on_c, 0, 48, 0
1, 253920, Note_on_c, 0, 59, 63
1, 253932, Note_on_c, 0, 60, 0
1, 254040, Note_on_c, 0, 57, 64
1, 254052, Note_on_c, 0, 59, 0
1, 254160, Note_on_c, 0, 55, 71
1, 254160, Note_on_c, 0, 43, 56
1, 254160, Note_on_c, 0, 47, 56
1, 254160, Note_on_c, 0, 53, 66
1, 254172, Note_on_c, 0, 57, 0
1, 254280, Note_on_c, 0, 57, 64
1, 254292, Note_on_c, 0, 55, 0
1, 254400, Note_on_c, 0, 55, 64
1, 254412, Note_on_c, 0, 57, 0
1, 254520, Note_on_c, 0, 53, 64
1, 254532, Note_on_c, 0, 55, 0
1, 254640, Note_on_c, 0, 53, 0
1, 254640, Note_on_c, 0, 47, 0
1, 254640, Note_on_c, 0, 43, 0
1, 254640, Note_on_c, 0, 52, 64
1, 254652, Note_on_c, 0, 53, 0
1, 254760, Tempo, 431406
1, 254760, Note_on_c, 0, 50, 64
1, 254772, Note_on_c, 0, 52, 0
1, 254880, Tempo, 402468
1, 254880, Note_on_c, 0, 50, 0
1, 254880, Note_on_c, 0, 48, 81
1, 254880, Note_on_c, 0, 36, 70
1, 255000, Note_on_c, 0, 36, 0
1, 255000, Note_on_c, 0, 48, 0
1, 255120, Note_on_c, 0, 52, 70
1, 255120, Note_on_c, 0, 40, 63
1, 255240, Note_on_c, 0, 40, 0
1, 255240, Note_on_c, 0, 52, 0
1, 255360, Note_on_c, 0, 55, 70
1, 255360, Note_on_c, 0, 43, 63
1, 255480, Note_on_c, 0, 43, 0
1, 255480, Note_on_c, 0, 55, 0
1, 255600, Note_on_c, 0, 60, 78
1, 255600, Note_on_c, 0, 48, 70
1, 255720, Note_on_c, 0, 48, 0
1, 255720, Note_on_c, 0, 60, 0
1, 255840, Note_on_c, 0, 64, 70
1, 255840, Note_on_c, 0, 52, 64
1, 255960, Note_on_c, 0, 52, 0
1, 255960, Note_on_c, 0, 64, 0
1, 256080, Note_on_c, 0, 67, 70
1, 256080, Note_on_c, 0, 55, 64
1, 256200, Note_on_c, 0, 55, 0
1, 256200, Note_on_c, 0, 67, 0
1, 256320, Tempo, 410734
1, 256320, Note_on_c, 0, 72, 88
1, 256320, Note_on_c, 0, 60, 74
1, 256560, Note_on_c, 0, 60, 0
1, 256560, Note_on_c, 0, 72, 0
1, 257040, Tempo, 431406
1, 257040, Note_on_c, 0, 67, 69
1, 257040, Note_on_c, 0, 72, 69
1, 257040, Note_on_c, 0, 79, 82
1, 257040, Note_on_c, 0, 76, 69
1, 257040, Note_on_c, 0, 52, 62
1, 257040, Note_on_c, 0, 60, 74
1, 257040, Note_on_c, 0, 48, 62
1, 257040, Note_on_c, 0, 55, 62
1, 257080, Control_c, 0, 64, 127
1, 257414, Control_c, 0, 64, 0
1, 257520, Note_on_c, 0, 55, 0
1, 257520, Note_on_c, 0, 67, 0
1, 257520, Note_on_c, 0, 52, 0
1, 257520, Note_on_c, 0, 72, 0
1, 257520, Note_on_c, 0, 79, 0
1, 257520, Note_on_c, 0, 76, 0
1, 257520, Note_on_c, 0, 60, 0
1, 257520, Note_on_c, 0, 48, 0
1, 257760, Note_on_c, 0, 79, 74
1, 257760, Note_on_c, 0, 76, 74
1, 257760, Note_on_c, 0, 84, 86
1, 257760, Note_on_c, 0, 72, 72
1, 257760, Note_on_c, 0, 48, 62
1, 257760, Note_on_c, 0, 52, 62
1, 257760, Note_on_c, 0, 60, 74
1, 257760, Note_on_c, 0, 55, 62
1, 257787, Control_c, 0, 64, 127
1, 258187, Control_c, 0, 64, 0
1, 258240, Note_on_c, 0, 55, 0
1, 258240, Note_on_c, 0, 79, 0
1, 258240, Note_on_c, 0, 48, 0
1, 258240, Note_on_c, 0, 76, 0
1, 258240, Note_on_c, 0, 84, 0
1, 258240, Note_on_c, 0, 72, 0
1, 258240, Note_on_c, 0, 52, 0
1, 258240, Note_on_c, 0, 60, 0
1, 259200, Tempo, 385282
1, 259200, Marker_t, "Part 2"
1, 259200, Control_c, 0, 91, 127
1, 259200, Text_t, "bdca426d104a26ac9dcb070447587523"
1, 259200, Note_on_c, 0, 48, 70
1, 259200, Note_on_c, 0, 39, 59
1, 259200, Note_on_c, 0, 43, 59
1, 259200, Note_on_c, 0, 36, 59
1, 259320, Note_on_c, 0, 79, 66
1, 259440, Note_on_c, 0, 78, 68
1, 259452, Note_on_c, 0, 79, 0
1, 259560, Note_on_c, 0, 79, 69
1, 259572, Note_on_c, 0, 78, 0
1, 259680, Note_on_c, 0, 36, 0
1, 259680, Note_on_c, 0, 43, 0
1, 259680, Note_on_c, 0, 48, 0
1, 259680, Note_on_c, 0, 39, 0
1, 259680, Note_on_c, 0, 84, 70
1, 259692, Note_on_c, 0, 79, 0
1, 259800, Tempo, 398063
1, 259800, Note_on_c, 0, 79, 63
1, 259812, Note_on_c, 0, 84, 0
1, 259920, Tempo, 382824
1, 259920, Note_on_c, 0, 77, 70
1, 259932, Note_on_c, 0, 79, 0
1, 260040, Note_on_c, 0, 75, 66
1, 260052, Note_on_c, 0, 77, 0
1, 260160, Note_on_c, 0, 74, 64
1, 260172, Note_on_c, 0, 75, 0
1, 260280, Note_on_c, 0, 75, 64
1, 260292, Note_on_c, 0, 74, 0
1, 260400, Note_on_c, 0, 79, 70
1, 260412, Note_on_c, 0, 75, 0
1, 260520, Tempo, 395439
1, 260520, Note_on_c, 0, 75, 64
1, 260532, Note_on_c, 0, 79, 0
1, 260640, Tempo, 380397
1, 260640, Note_on_c, 0, 74, 70
1, 260652, Note_on_c, 0, 75, 0
1, 260760, Note_on_c, 0, 72, 64
1, 260772, Note_on_c, 0, 74, 0
1, 260880, Note_on_c, 0, 71, 64
1, 260892, Note_on_c, 0, 72, 0
1, 261000, Note_on_c, 0, 72, 64
1, 261012, Note_on_c, 0, 71, 0
1, 261120, Note_on_c, 0, 75, 70
1, 261132, Note_on_c, 0, 72, 0
1, 261240, Tempo, 395439
1, 261240, Note_on_c, 0, 72, 65
1, 261252, Note_on_c, 0, 75, 0
1, 261360, Tempo, 382824
1, 261360, Note_on_c, 0, 68, 70
1, 261372, Note_on_c, 0, 72, 0
1, 261480, Note_on_c, 0, 67, 65
1, 261492, Note_on_c, 0, 68, 0
1, 261600, Note_on_c, 0, 66, 65
1, 261612, Note_on_c, 0, 67, 0
1, 261720, Note_on_c, 0, 67, 65
1, 261732, Note_on_c, 0, 66, 0
1, 261840, Note_on_c, 0, 72, 70
1, 261852, Note_on_c, 0, 67, 0
1, 261960, Tempo, 403416
1, 261960, Note_on_c, 0, 67, 65
1, 261972, Note_on_c, 0, 72, 0
1, 262080, Tempo, 380397
1, 262080, Note_on_c, 0, 65, 70
1, 262092, Note_on_c, 0, 67, 0
1, 262200, Note_on_c, 0, 63, 66
1, 262212, Note_on_c, 0, 65, 0
1, 262320, Tempo, 395439
1, 262320, Note_on_c, 0, 62, 66
1, 262332, Note_on_c, 0, 63, 0
1, 262440, Note_on_c, 0, 63, 66
1, 262452, Note_on_c, 0, 62, 0
1, 262560, Note_on_c, 0, 67, 70
1, 262572, Note_on_c, 0, 63, 0
1, 262680, Tempo, 484927
1, 262680, Note_on_c, 0, 63, 64
1, 262692, Note_on_c, 0, 67, 0
1, 262800, Tempo, 408914
1, 262800, Note_on_c, 0, 60, 70
1, 262800, Note_on_c, 0, 51, 70
1, 262812, Note_on_c, 0, 63, 0
1, 262920, Tempo, 380397
1, 262920, Note_on_c, 0, 51, 0
1, 262920, Note_on_c, 0, 60, 0
1, 262920, Note_on_c, 0, 72, 64
1, 263040, Note_on_c, 0, 72, 0
1, 263040, Note_on_c, 0, 59, 70
1, 263040, Note_on_c, 0, 50, 66
1, 263160, Note_on_c, 0, 50, 0
1, 263160, Note_on_c, 0, 59, 0
1, 263160, Note_on_c, 0, 72, 64
1, 263280, Note_on_c, 0, 72, 0
1, 263280, Note_on_c, 0, 60, 70
1, 263280, Note_on_c, 0, 51, 66
1, 263400, Tempo, 406146
1, 263400, Note_on_c, 0, 51, 0
1, 263400, Note_on_c, 0, 60, 0
1, 263400, Note_on_c, 0, 72, 64
1, 263520, Tempo, 382824
1, 263520, Note_on_c, 0, 72, 0
1, 263520, Note_on_c, 0, 62, 70
1, 263520, Note_on_c, 0, 53, 70
1, 263640, Note_on_c, 0, 53, 0
1, 263640, Note_on_c, 0, 62, 0
1, 263640, Note_on_c, 0, 72, 64
1, 263760, Note_on_c, 0, 72, 0
1, 263760, Note_on_c, 0, 60, 65
1, 263760, Note_on_c, 0, 51, 67
1, 263880, Note_on_c, 0, 51, 0
1, 263880, Note_on_c, 0, 60, 0
1, 263880, Note_on_c, 0, 72, 58
1, 264000, Note_on_c, 0, 72, 0
1, 264000, Note_on_c, 0, 62, 67
1, 264000, Note_on_c, 0, 53, 67
1, 264120, Tempo, 403416
1, 264120, Note_on_c, 0, 53, 0
1, 264120, Note_on_c, 0, 62, 0
1, 264120, Note_on_c, 0, 72, 61
1, 264240, Tempo, 380397
1, 264240, Note_on_c, 0, 72, 0
1, 264240, Note_on_c, 0, 64, 70
1, 264240, Note_on_c, 0, 55, 70
1, 264360, Note_on_c, 0, 55, 0
1, 264360, Note_on_c, 0, 64, 0
1, 264360, Note_on_c, 0, 72, 60
1, 264480, Note_on_c, 0, 72, 0
1, 264480, Note_on_c, 0, 62, 66
1, 264480, Note_on_c, 0, 53, 67
1, 264600, Note_on_c, 0, 53, 0
1, 264600, Note_on_c, 0, 62, 0
1, 264600, Note_on_c, 0, 72, 62
1, 264720, Note_on_c, 0, 72, 0
1, 264720, Note_on_c, 0, 64, 67
1, 264720, Note_on_c, 0, 55, 67
1, 264840, Tempo, 458961
1, 264840, Note_on_c, 0, 55, 0
1, 264840, Note_on_c, 0, 64, 0
1, 264840, Note_on_c, 0, 72, 62
1, 264960, Tempo, 385282
1, 264960, Note_on_c, 0, 72, 0
1, 264960, Note_on_c, 0, 65, 74
1, 264960, Note_on_c, 0, 56, 74
1, 265080, Note_on_c, 0, 65, 0
1, 265080, Note_on_c, 0, 72, 61
1, 265200, Note_on_c, 0, 72, 0
1, 265200, Note_on_c, 0, 65, 65
1, 265320, Note_on_c, 0, 65, 0
1, 265320, Note_on_c, 0, 72, 61
1, 265440, Note_on_c, 0, 72, 0
1, 265440, Note_on_c, 0, 56, 0
1, 265440, Note_on_c, 0, 63, 65
1, 265440, Note_on_c, 0, 55, 67
1, 265560, Tempo, 414565
1, 265560, Note_on_c, 0, 55, 0
1, 265560, Note_on_c, 0, 63, 0
1, 265560, Note_on_c, 0, 72, 60
1, 265680, Tempo, 382824
1, 265680, Note_on_c, 0, 72, 0
1, 265680, Note_on_c, 0, 65, 70
1, 265680, Note_on_c, 0, 56, 74
1, 265800, Note_on_c, 0, 65, 0
1, 265800, Note_on_c, 0, 72, 60
1, 265920, Note_on_c, 0, 72, 0
1, 265920, Note_on_c, 0, 65, 65
1, 266040, Note_on_c, 0, 65, 0
1, 266040, Note_on_c, 0, 72, 60
1, 266160, Note_on_c, 0, 72, 0
1, 266160, Note_on_c, 0, 56, 0
1, 266160, Note_on_c, 0, 63, 65
1, 266160, Note_on_c, 0, 55, 66
1, 266280, Tempo, 411720
1, 266280, Note_on_c, 0, 55, 0
1, 266280, Note_on_c, 0, 63, 0
1, 266280, Note_on_c, 0, 72, 54
1, 266400, Tempo, 382824
1, 266400, Note_on_c, 0, 72, 0
1, 266400, Note_on_c, 0, 62, 49
1, 266400, Note_on_c, 0, 54, 44
1, 266520, Note_on_c, 0, 72, 43
1, 266640, Note_on_c, 0, 72, 0
1, 266640, Note_on_c, 0, 63, 52
1, 266640, Note_on_c, 0, 55, 38
1, 266650, Note_on_c, 0, 54, 0
1, 266650, Note_on_c, 0, 62, 0
1, 266760, Note_on_c, 0, 72, 45
1, 266880, Note_on_c, 0, 72, 0
1, 266880, Note_on_c, 0, 63, 0
1, 266880, Note_on_c, 0, 55, 0
1, 266880, Note_on_c, 0, 62, 55
1, 266880, Note_on_c, 0, 54, 55
1, 267000, Note_on_c, 0, 72, 52
1, 267120, Note_on_c, 0, 72, 0
1, 267120, Note_on_c, 0, 63, 59
1, 267120, Note_on_c, 0, 55, 60
1, 267130, Note_on_c, 0, 54, 0
1, 267130, Note_on_c, 0, 62, 0
1, 267240, Tempo, 407941
1, 267240, Note_on_c, 0, 72, 59
1, 267360, Tempo, 381971
1, 267360, Note_on_c, 0, 72, 0
1, 267360, Note_on_c, 0, 63, 0
1, 267360, Note_on_c, 0, 55, 0
1, 267360, Note_on_c, 0, 65, 66
1, 267360, Note_on_c, 0, 56, 63
1, 267480, Note_on_c, 0, 72, 55
1, 267600, Note_on_c, 0, 72, 0
1, 267600, Note_on_c, 0, 63, 52
1, 267600, Note_on_c, 0, 55, 47
1, 267610, Note_on_c, 0, 56, 0
1, 267610, Note_on_c, 0, 65, 0
1, 267720, Tempo, 414565
1, 267720, Note_on_c, 0, 72, 43
1, 267840, Tempo, 381971
1, 267840, Note_on_c, 0, 72, 0
1, 267840, Note_on_c, 0, 63, 0
1, 267840, Note_on_c, 0, 55, 0
1, 267840, Note_on_c, 0, 62, 50
1, 267840, Note_on_c, 0, 54, 47
1, 267960, Note_on_c, 0, 72, 44
1, 268080, Note_on_c, 0, 72, 0
1, 268080, Note_on_c, 0, 63, 54
1, 268080, Note_on_c, 0, 55, 42
1, 268090, Note_on_c, 0, 54, 0
1, 268090, Note_on_c, 0, 62, 0
1, 268200, Note_on_c, 0, 72, 49
1, 268320, Note_on_c, 0, 72, 0
1, 268320, Note_on_c, 0, 63, 0
1, 268320, Note_on_c, 0, 55, 0
1, 268320, Note_on_c, 0, 62, 57
1, 268320, Note_on_c, 0, 54, 59
1, 268440, Note_on_c, 0, 72, 53
1, 268560, Note_on_c, 0, 72, 0
1, 268560, Note_on_c, 0, 63, 59
1, 268560, Note_on_c, 0, 55, 53
1, 268570, Note_on_c, 0, 54, 0
1, 268570, Note_on_c, 0, 62, 0
1, 268680, Tempo, 405186
1, 268680, Note_on_c, 0, 72, 55
1, 268800, Tempo, 381971
1, 268800, Note_on_c, 0, 72, 0
1, 268800, Note_on_c, 0, 63, 0
1, 268800, Note_on_c, 0, 55, 0
1, 268800, Note_on_c, 0, 65, 64
1, 268800, Note_on_c, 0, 56, 64
1, 268920, Note_on_c, 0, 72, 54
1, 269040, Note_on_c, 0, 72, 0
1, 269040, Note_on_c, 0, 63, 56
1, 269040, Note_on_c, 0, 55, 41
1, 269050, Note_on_c, 0, 56, 0
1, 269050, Note_on_c, 0, 65, 0
1, 269160, Tempo, 414565
1, 269160, Note_on_c, 0, 72, 43
1, 269280, Note_on_c, 0, 72, 0
1, 269280, Note_on_c, 0, 63, 0
1, 269280, Note_on_c, 0, 55, 0
1, 269280, Note_on_c, 0, 62, 60
1, 269370, Note_on_c, 0, 62, 0
1, 269400, Tempo, 391952
1, 269400, Note_on_c, 0, 54, 42
1, 269520, Note_on_c, 0, 54, 0
1, 269520, Note_on_c, 0, 57, 44
1, 269640, Note_on_c, 0, 57, 0
1, 269640, Note_on_c, 0, 60, 46
1, 269760, Tempo, 413565
1, 269760, Note_on_c, 0, 60, 0
1, 269760, Note_on_c, 0, 62, 48
1, 269880, Tempo, 391952
1, 269880, Note_on_c, 0, 62, 0
1, 269880, Note_on_c, 0, 66, 51
1, 270000, Tempo, 413565
1, 270000, Note_on_c, 0, 66, 0
1, 270000, Note_on_c, 0, 72, 55
1, 270006, Control_c, 0, 64, 127
1, 270090, Note_on_c, 0, 72, 0
1, 270120, Tempo, 389408
1, 270120, Note_on_c, 0, 62, 48
1, 270240, Note_on_c, 0, 62, 0
1, 270240, Note_on_c, 0, 66, 51
1, 270360, Note_on_c, 0, 66, 0
1, 270360, Note_on_c, 0, 69, 53
1, 270480, Tempo, 410734
1, 270480, Note_on_c, 0, 69, 0
1, 270480, Note_on_c, 0, 72, 56
1, 270570, Note_on_c, 0, 72, 0
1, 270600, Tempo, 389408
1, 270600, Note_on_c, 0, 78, 53
1, 270720, Note_on_c, 0, 78, 0
1, 270720, Note_on_c, 0, 84, 62
1, 270720, Control_c, 0, 64, 0
1, 270840, Note_on_c, 0, 84, 0
1, 270840, Note_on_c, 0, 82, 61
1, 270960, Note_on_c, 0, 82, 0
1, 270960, Note_on_c, 0, 81, 60
1, 271080, Note_on_c, 0, 81, 0
1, 271080, Note_on_c, 0, 79, 59
1, 271200, Note_on_c, 0, 79, 0
1, 271200, Note_on_c, 0, 78, 58
1, 271320, Note_on_c, 0, 78, 0
1, 271320, Note_on_c, 0, 79, 55
1, 271440, Note_on_c, 0, 79, 0
1, 271440, Note_on_c, 0, 78, 59
1, 271560, Tempo, 407941
1, 271560, Note_on_c, 0, 78, 0
1, 271560, Note_on_c, 0, 79, 55
1, 271680, Tempo, 389408
1, 271680, Note_on_c, 0, 79, 0
1, 271680, Note_on_c, 0, 78, 58
1, 271800, Note_on_c, 0, 78, 0
1, 271800, Note_on_c, 0, 75, 57
1, 271920, Note_on_c, 0, 75, 0
1, 271920, Note_on_c, 0, 74, 56
1, 272040, Note_on_c, 0, 74, 0
1, 272040, Note_on_c, 0, 72, 55
1, 272160, Tempo, 382824
1, 272160, Note_on_c, 0, 72, 0
1, 272160, Note_on_c, 0, 71, 49
1, 272160, Note_on_c, 0, 55, 44
1, 272280, Note_on_c, 0, 77, 43
1, 272400, Note_on_c, 0, 77, 0
1, 272400, Note_on_c, 0, 72, 52
1, 272400, Note_on_c, 0, 56, 38
1, 272410, Note_on_c, 0, 55, 0
1, 272410, Note_on_c, 0, 71, 0
1, 272520, Note_on_c, 0, 77, 45
1, 272640, Note_on_c, 0, 77, 0
1, 272640, Note_on_c, 0, 72, 0
1, 272640, Note_on_c, 0, 56, 0
1, 272640, Note_on_c, 0, 71, 55
1, 272640, Note_on_c, 0, 55, 55
1, 272760, Note_on_c, 0, 77, 52
1, 272880, Note_on_c, 0, 77, 0
1, 272880, Note_on_c, 0, 72, 62
1, 272880, Note_on_c, 0, 56, 55
1, 272890, Note_on_c, 0, 55, 0
1, 272890, Note_on_c, 0, 71, 0
1, 273000, Tempo, 407941
1, 273000, Note_on_c, 0, 77, 60
1, 273120, Tempo, 381971
1, 273120, Note_on_c, 0, 77, 0
1, 273120, Note_on_c, 0, 72, 0
1, 273120, Note_on_c, 0, 56, 0
1, 273120, Note_on_c, 0, 73, 67
1, 273120, Note_on_c, 0, 58, 63
1, 273240, Note_on_c, 0, 77, 55
1, 273360, Note_on_c, 0, 77, 0
1, 273360, Note_on_c, 0, 72, 52
1, 273360, Note_on_c, 0, 56, 47
1, 273370, Note_on_c, 0, 58, 0
1, 273370, Note_on_c, 0, 73, 0
1, 273480, Tempo, 414565
1, 273480, Note_on_c, 0, 77, 43
1, 273600, Tempo, 381971
1, 273600, Note_on_c, 0, 77, 0
1, 273600, Note_on_c, 0, 72, 0
1, 273600, Note_on_c, 0, 56, 0
1, 273600, Note_on_c, 0, 71, 50
1, 273600, Note_on_c, 0, 55, 47
1, 273720, Note_on_c, 0, 77, 44
1, 273840, Note_on_c, 0, 77, 0
1, 273840, Note_on_c, 0, 72, 54
1, 273840, Note_on_c, 0, 56, 42
1, 273850, Note_on_c, 0, 55, 0
1, 273850, Note_on_c, 0, 71, 0
1, 273960, Note_on_c, 0, 77, 49
1, 274080, Note_on_c, 0, 77, 0
1, 274080, Note_on_c, 0, 72, 0
1, 274080, Note_on_c, 0, 56, 0
1, 274080, Note_on_c, 0, 71, 57
1, 274080, Note_on_c, 0, 55, 59
1, 274200, Note_on_c, 0, 77, 53
1, 274320, Note_on_c, 0, 77, 0
1, 274320, Note_on_c, 0, 72, 63
1, 274320, Note_on_c, 0, 56, 53
1, 274330, Note_on_c, 0, 55, 0
1, 274330, Note_on_c, 0, 71, 0
1, 274440, Tempo, 405186
1, 274440, Note_on_c, 0, 77, 55
1, 274560, Tempo, 381971
1, 274560, Note_on_c, 0, 77, 0
1, 274560, Note_on_c, 0, 72, 0
1, 274560, Note_on_c, 0, 56, 0
1, 274560, Note_on_c, 0, 73, 68
1, 274560, Note_on_c, 0, 58, 64
1, 274680, Note_on_c, 0, 77, 54
1, 274800, Note_on_c, 0, 77, 0
1, 274800, Note_on_c, 0, 72, 56
1, 274800, Note_on_c, 0, 56, 41
1, 274810, Note_on_c, 0, 58, 0
1, 274810, Note_on_c, 0, 73, 0
1, 274920, Tempo, 414565
1, 274920, Note_on_c, 0, 77, 43
1, 275040, Note_on_c, 0, 77, 0
1, 275040, Note_on_c, 0, 72, 0
1, 275040, Note_on_c, 0, 56, 0
1, 275040, Note_on_c, 0, 71, 60
1, 275130, Note_on_c, 0, 71, 0
1, 275160, Tempo, 391952
1, 275160, Note_on_c, 0, 55, 42
1, 275280, Note_on_c, 0, 55, 0
1, 275280, Note_on_c, 0, 59, 44
1, 275400, Note_on_c, 0, 59, 0
1, 275400, Note_on_c, 0, 62, 46
1, 275520, Tempo, 413565
1, 275520, Note_on_c, 0, 62, 0
1, 275520, Note_on_c, 0, 65, 48
1, 275640, Tempo, 391952
1, 275640, Note_on_c, 0, 65, 0
1, 275640, Note_on_c, 0, 71, 51
1, 275760, Tempo, 413565
1, 275760, Note_on_c, 0, 71, 0
1, 275760, Note_on_c, 0, 77, 55
1, 275850, Note_on_c, 0, 77, 0
1, 275852, Control_c, 0, 64, 127
1, 275880, Tempo, 389408
1, 275880, Note_on_c, 0, 67, 48
1, 276000, Note_on_c, 0, 67, 0
1, 276000, Note_on_c, 0, 71, 51
1, 276120, Note_on_c, 0, 71, 0
1, 276120, Note_on_c, 0, 74, 53
1, 276240, Tempo, 410734
1, 276240, Note_on_c, 0, 74, 0
1, 276240, Note_on_c, 0, 77, 56
1, 276330, Note_on_c, 0, 77, 0
1, 276360, Tempo, 389408
1, 276360, Note_on_c, 0, 83, 53
1, 276480, Note_on_c, 0, 83, 0
1, 276480, Note_on_c, 0, 89, 62
1, 276480, Control_c, 0, 64, 0
1, 276600, Note_on_c, 0, 89, 0
1, 276600, Note_on_c, 0, 87, 61
1, 276720, Note_on_c, 0, 87, 0
1, 276720, Note_on_c, 0, 86, 60
1, 276840, Note_on_c, 0, 86, 0
1, 276840, Note_on_c, 0, 84, 59
1, 276960, Note_on_c, 0, 84, 0
1, 276960, Note_on_c, 0, 83, 58
1, 277080, Note_on_c, 0, 83, 0
1, 277080, Note_on_c, 0, 80, 55
1, 277200, Note_on_c, 0, 80, 0
1, 277200, Note_on_c, 0, 79, 59
1, 277320, Tempo, 407941
1, 277320, Note_on_c, 0, 79, 0
1, 277320, Note_on_c, 0, 78, 55
1, 277440, Tempo, 389408
1, 277440, Note_on_c, 0, 78, 0
1, 277440, Note_on_c, 0, 79, 58
1, 277560, Note_on_c, 0, 79, 0
1, 277560, Note_on_c, 0, 80, 57
1, 277680, Note_on_c, 0, 80, 0
1, 277680, Note_on_c, 0, 79, 56
1, 277800, Note_on_c, 0, 79, 0
1, 277800, Note_on_c, 0, 77, 55
1, 277920, Tempo, 382824
1, 277920, Note_on_c, 0, 77, 0
1, 277920, Note_on_c, 0, 76, 49
1, 277920, Note_on_c, 0, 60, 44
1, 278040, Note_on_c, 0, 67, 43
1, 278160, Note_on_c, 0, 67, 0
1, 278160, Note_on_c, 0, 77, 52
1, 278160, Note_on_c, 0, 59, 38
1, 278170, Note_on_c, 0, 60, 0
1, 278170, Note_on_c, 0, 76, 0
1, 278280, Note_on_c, 0, 67, 45
1, 278400, Note_on_c, 0, 67, 0
1, 278400, Note_on_c, 0, 77, 0
1, 278400, Note_on_c, 0, 59, 0
1, 278400, Note_on_c, 0, 76, 55
1, 278400, Note_on_c, 0, 60, 45
1, 278520, Note_on_c, 0, 67, 52
1, 278640, Note_on_c, 0, 67, 0
1, 278640, Note_on_c, 0, 77, 59
1, 278640, Note_on_c, 0, 61, 54
1, 278650, Note_on_c, 0, 60, 0
1, 278650, Note_on_c, 0, 76, 0
1, 278760, Tempo, 407941
1, 278760, Note_on_c, 0, 67, 53
1, 278880, Tempo, 381971
1, 278880, Note_on_c, 0, 67, 0
1, 278880, Note_on_c, 0, 77, 0
1, 278880, Note_on_c, 0, 61, 0
1, 278880, Note_on_c, 0, 76, 59
1, 278880, Note_on_c, 0, 60, 49
1, 279000, Note_on_c, 0, 67, 55
1, 279120, Note_on_c, 0, 67, 0
1, 279120, Note_on_c, 0, 77, 52
1, 279120, Note_on_c, 0, 59, 44
1, 279130, Note_on_c, 0, 60, 0
1, 279130, Note_on_c, 0, 76, 0
1, 279240, Tempo, 414565
1, 279240, Note_on_c, 0, 67, 43
1, 279360, Tempo, 381971
1, 279360, Note_on_c, 0, 67, 0
1, 279360, Note_on_c, 0, 77, 0
1, 279360, Note_on_c, 0, 59, 0
1, 279360, Note_on_c, 0, 76, 50
1, 279360, Note_on_c, 0, 60, 47
1, 279480, Note_on_c, 0, 67, 44
1, 279600, Note_on_c, 0, 67, 0
1, 279600, Note_on_c, 0, 77, 54
1, 279600, Note_on_c, 0, 59, 42
1, 279610, Note_on_c, 0, 60, 0
1, 279610, Note_on_c, 0, 76, 0
1, 279720, Note_on_c, 0, 67, 49
1, 279840, Note_on_c, 0, 67, 0
1, 279840, Note_on_c, 0, 77, 0
1, 279840, Note_on_c, 0, 59, 0
1, 279840, Note_on_c, 0, 76, 57
1, 279840, Note_on_c, 0, 60, 48
1, 279960, Note_on_c, 0, 67, 53
1, 280080, Note_on_c, 0, 67, 0
1, 280080, Note_on_c, 0, 77, 61
1, 280080, Note_on_c, 0, 61, 51
1, 280090, Note_on_c, 0, 60, 0
1, 280090, Note_on_c, 0, 76, 0
1, 280200, Tempo, 405186
1, 280200, Note_on_c, 0, 67, 55
1, 280320, Tempo, 381971
1, 280320, Note_on_c, 0, 67, 0
1, 280320, Note_on_c, 0, 77, 0
1, 280320, Note_on_c, 0, 61, 0
1, 280320, Note_on_c, 0, 76, 60
1, 280320, Note_on_c, 0, 60, 46
1, 280440, Note_on_c, 0, 67, 50
1, 280560, Note_on_c, 0, 67, 0
1, 280560, Note_on_c, 0, 77, 56
1, 280560, Note_on_c, 0, 59, 41
1, 280570, Note_on_c, 0, 60, 0
1, 280570, Note_on_c, 0, 76, 0
1, 280680, Tempo, 414565
1, 280680, Note_on_c, 0, 67, 43
1, 280800, Note_on_c, 0, 67, 0
1, 280800, Note_on_c, 0, 77, 0
1, 280800, Note_on_c, 0, 59, 0
1, 280800, Note_on_c, 0, 76, 60
1, 280890, Note_on_c, 0, 76, 0
1, 280920, Tempo, 391952
1, 280920, Note_on_c, 0, 48, 42
1, 281040, Note_on_c, 0, 48, 0
1, 281040, Note_on_c, 0, 52, 44
1, 281160, Note_on_c, 0, 52, 0
1, 281160, Note_on_c, 0, 55, 46
1, 281280, Tempo, 413565
1, 281280, Note_on_c, 0, 55, 0
1, 281280, Note_on_c, 0, 58, 48
1, 281400, Tempo, 391952
1, 281400, Note_on_c, 0, 58, 0
1, 281400, Note_on_c, 0, 64, 51
1, 281520, Tempo, 413565
1, 281520, Note_on_c, 0, 64, 0
1, 281520, Note_on_c, 0, 70, 55
1, 281610, Note_on_c, 0, 70, 0
1, 281640, Tempo, 389408
1, 281640, Note_on_c, 0, 60, 48
1, 281676, Control_c, 0, 64, 127
1, 281760, Note_on_c, 0, 60, 0
1, 281760, Note_on_c, 0, 64, 51
1, 281880, Note_on_c, 0, 64, 0
1, 281880, Note_on_c, 0, 67, 53
1, 282000, Tempo, 410734
1, 282000, Note_on_c, 0, 67, 0
1, 282000, Note_on_c, 0, 70, 56
1, 282090, Note_on_c, 0, 70, 0
1, 282120, Tempo, 389408
1, 282120, Note_on_c, 0, 76, 53
1, 282240, Note_on_c, 0, 76, 0
1, 282240, Note_on_c, 0, 82, 62
1, 282283, Control_c, 0, 64, 0
1, 282360, Note_on_c, 0, 82, 0
1, 282360, Note_on_c, 0, 81, 61
1, 282480, Note_on_c, 0, 81, 0
1, 282480, Note_on_c, 0, 79, 60
1, 282600, Note_on_c, 0, 79, 0
1, 282600, Note_on_c, 0, 77, 59
1, 282720, Note_on_c, 0, 77, 0
1, 282720, Note_on_c, 0, 76, 58
1, 282840, Note_on_c, 0, 76, 0
1, 282840, Note_on_c, 0, 74, 55
1, 282960, Note_on_c, 0, 74, 0
1, 282960, Note_on_c, 0, 72, 59
1, 283080, Tempo, 407941
1, 283080, Note_on_c, 0, 72, 0
1, 283080, Note_on_c, 0, 74, 55
1, 283200, Tempo, 389408
1, 283200, Note_on_c, 0, 74, 0
1, 283200, Note_on_c, 0, 72, 58
1, 283320, Note_on_c, 0, 72, 0
1, 283320, Note_on_c, 0, 70, 57
1, 283440, Note_on_c, 0, 70, 0
1, 283440, Note_on_c, 0, 69, 56
1, 283560, Note_on_c, 0, 69, 0
1, 283560, Note_on_c, 0, 67, 55
1, 283680, Tempo, 382824
1, 283680, Note_on_c, 0, 67, 0
1, 283680, Note_on_c, 0, 65, 49
1, 283680, Note_on_c, 0, 57, 44
1, 283800, Note_on_c, 0, 75, 43
1, 283920, Note_on_c, 0, 75, 0
1, 283920, Note_on_c, 0, 66, 52
1, 283920, Note_on_c, 0, 58, 38
1, 283930, Note_on_c, 0, 57, 0
1, 283930, Note_on_c, 0, 65, 0
1, 284040, Note_on_c, 0, 75, 45
1, 284160, Note_on_c, 0, 75, 0
1, 284160, Note_on_c, 0, 66, 0
1, 284160, Note_on_c, 0, 58, 0
1, 284160, Note_on_c, 0, 65, 55
1, 284160, Note_on_c, 0, 57, 55
1, 284280, Note_on_c, 0, 75, 52
1, 284400, Note_on_c, 0, 75, 0
1, 284400, Note_on_c, 0, 66, 62
1, 284400, Note_on_c, 0, 58, 55
1, 284410, Note_on_c, 0, 57, 0
1, 284410, Note_on_c, 0, 65, 0
1, 284520, Tempo, 407941
1, 284520, Note_on_c, 0, 75, 56
1, 284640, Tempo, 381971
1, 284640, Note_on_c, 0, 75, 0
1, 284640, Note_on_c, 0, 66, 0
1, 284640, Note_on_c, 0, 58, 0
1, 284640, Note_on_c, 0, 68, 65
1, 284640, Note_on_c, 0, 59, 63
1, 284760, Note_on_c, 0, 75, 55
1, 284880, Note_on_c, 0, 75, 0
1, 284880, Note_on_c, 0, 66, 52
1, 284880, Note_on_c, 0, 58, 47
1, 284890, Note_on_c, 0, 59, 0
1, 284890, Note_on_c, 0, 68, 0
1, 285000, Tempo, 414565
1, 285000, Note_on_c, 0, 75, 43
1, 285120, Tempo, 381971
1, 285120, Note_on_c, 0, 75, 0
1, 285120, Note_on_c, 0, 66, 0
1, 285120, Note_on_c, 0, 58, 0
1, 285120, Note_on_c, 0, 65, 50
1, 285120, Note_on_c, 0, 57, 47
1, 285240, Note_on_c, 0, 75, 44
1, 285360, Note_on_c, 0, 75, 0
1, 285360, Note_on_c, 0, 66, 54
1, 285360, Note_on_c, 0, 58, 42
1, 285370, Note_on_c, 0, 57, 0
1, 285370, Note_on_c, 0, 65, 0
1, 285480, Note_on_c, 0, 75, 49
1, 285600, Note_on_c, 0, 75, 0
1, 285600, Note_on_c, 0, 66, 0
1, 285600, Note_on_c, 0, 58, 0
1, 285600, Note_on_c, 0, 65, 57
1, 285600, Note_on_c, 0, 57, 59
1, 285720, Note_on_c, 0, 75, 53
1, 285840, Note_on_c, 0, 75, 0
1, 285840, Note_on_c, 0, 66, 63
1, 285840, Note_on_c, 0, 58, 53
1, 285850, Note_on_c, 0, 57, 0
1, 285850, Note_on_c, 0, 65, 0
1, 285960, Tempo, 405186
1, 285960, Note_on_c, 0, 75, 55
1, 286080, Tempo, 381971
1, 286080, Note_on_c, 0, 75, 0
1, 286080, Note_on_c, 0, 66, 0
1, 286080, Note_on_c, 0, 58, 0
1, 286080, Note_on_c, 0, 68, 66
1, 286080, Note_on_c, 0, 59, 64
1, 286200, Note_on_c, 0, 75, 54
1, 286320, Note_on_c, 0, 75, 0
1, 286320, Note_on_c, 0, 66, 56
1, 286320, Note_on_c, 0, 58, 41
1, 286330, Note_on_c, 0, 59, 0
1, 286330, Note_on_c, 0, 68, 0
1, 286440, Tempo, 414565
1, 286440, Note_on_c, 0, 75, 43
1, 286560, Note_on_c, 0, 75, 0
1, 286560, Note_on_c, 0, 66, 0
1, 286560, Note_on_c, 0, 58, 0
1, 286560, Note_on_c, 0, 65, 60
1, 286650, Note_on_c, 0, 65, 0
1, 286680, Tempo, 391952
1, 286680, Note_on_c, 0, 57, 42
1, 286800, Note_on_c, 0, 57, 0
1, 286800, Note_on_c, 0, 60, 44
1, 286920, Note_on_c, 0, 60, 0
1, 286920, Note_on_c, 0, 63, 46
1, 287040, Tempo, 413565
1, 287040, Note_on_c, 0, 63, 0
1, 287040, Note_on_c, 0, 65, 48
1, 287160, Tempo, 391952
1, 287160, Note_on_c, 0, 65, 0
1, 287160, Note_on_c, 0, 69, 51
1, 287280, Tempo, 413565
1, 287280, Note_on_c, 0, 69, 0
1, 287280, Note_on_c, 0, 75, 55
1, 287355, Control_c, 0, 64, 127
1, 287370, Note_on_c, 0, 75, 0
1, 287400, Tempo, 389408
1, 287400, Note_on_c, 0, 65, 48
1, 287520, Note_on_c, 0, 65, 0
1, 287520, Note_on_c, 0, 69, 51
1, 287640, Note_on_c, 0, 69, 0
1, 287640, Note_on_c, 0, 72, 53
1, 287760, Tempo, 410734
1, 287760, Note_on_c, 0, 72, 0
1, 287760, Note_on_c, 0, 75, 56
1, 287850, Note_on_c, 0, 75, 0
1, 287880, Tempo, 389408
1, 287880, Note_on_c, 0, 81, 53
1, 288000, Note_on_c, 0, 81, 0
1, 288000, Note_on_c, 0, 87, 62
1, 288000, Control_c, 0, 64, 0
1, 288120, Note_on_c, 0, 87, 0
1, 288120, Note_on_c, 0, 86, 61
1, 288240, Note_on_c, 0, 86, 0
1, 288240, Note_on_c, 0, 84, 60
1, 288360, Note_on_c, 0, 84, 0
1, 288360, Note_on_c, 0, 82, 59
1, 288480, Note_on_c, 0, 82, 0
1, 288480, Note_on_c, 0, 81, 58
1, 288600, Note_on_c, 0, 81, 0
1, 288600, Note_on_c, 0, 79, 55
1, 288720, Note_on_c, 0, 79, 0
1, 288720, Note_on_c, 0, 77, 59
1, 288840, Tempo, 407941
1, 288840, Note_on_c, 0, 77, 0
1, 288840, Note_on_c, 0, 79, 55
1, 288960, Tempo, 389408
1, 288960, Note_on_c, 0, 79, 0
1, 288960, Note_on_c, 0, 77, 56
1, 289080, Note_on_c, 0, 77, 0
1, 289080, Note_on_c, 0, 75, 54
1, 289200, Note_on_c, 0, 75, 0
1, 289200, Note_on_c, 0, 74, 52
1, 289320, Tempo, 457736
1, 289320, Note_on_c, 0, 74, 0
1, 289320, Note_on_c, 0, 72, 50
1, 289440, Tempo, 389408
1, 289440, Note_on_c, 0, 72, 0
1, 289440, Note_on_c, 0, 74, 54
1, 289440, Note_on_c, 0, 58, 29
1, 289471, Control_c, 0, 64, 127
1, 289680, Note_on_c, 0, 58, 0
1, 289680, Note_on_c, 0, 74, 0
1, 289680, Note_on_c, 0, 62, 25
1, 289920, Note_on_c, 0, 62, 0
1, 289920, Note_on_c, 0, 74, 42
1, 289920, Note_on_c, 0, 65, 25
1, 290160, Note_on_c, 0, 65, 0
1, 290160, Note_on_c, 0, 74, 0
1, 290160, Note_on_c, 0, 72, 46
1, 290160, Note_on_c, 0, 57, 30
1, 290168, Control_c, 0, 64, 0
1, 290307, Control_c, 0, 64, 127
1, 290400, Note_on_c, 0, 57, 0
1, 290400, Note_on_c, 0, 72, 0
1, 290400, Note_on_c, 0, 60, 26
1, 290640, Note_on_c, 0, 60, 0
1, 290640, Note_on_c, 0, 72, 45
1, 290640, Note_on_c, 0, 65, 26
1, 290760, Tempo, 413565
1, 290880, Tempo, 389408
1, 290880, Note_on_c, 0, 65, 0
1, 290880, Note_on_c, 0, 72, 0
1, 290880, Note_on_c, 0, 75, 52
1, 290880, Note_on_c, 0, 55, 30
1, 290885, Control_c, 0, 64, 0
1, 291006, Control_c, 0, 64, 127
1, 291120, Note_on_c, 0, 55, 0
1, 291120, Note_on_c, 0, 58, 27
1, 291360, Tempo, 381971
1, 291360, Note_on_c, 0, 58, 0
1, 291360, Note_on_c, 0, 63, 27
1, 291600, Note_on_c, 0, 63, 0
1, 291600, Note_on_c, 0, 54, 29
1, 291611, Control_c, 0, 64, 0
1, 291720, Tempo, 389408
1, 291760, Control_c, 0, 64, 127
1, 291840, Tempo, 386897
1, 291840, Note_on_c, 0, 54, 0
1, 291840, Note_on_c, 0, 57, 25
1, 292080, Note_on_c, 0, 57, 0
1, 292080, Note_on_c, 0, 75, 0
1, 292080, Note_on_c, 0, 74, 42
1, 292080, Note_on_c, 0, 62, 25
1, 292200, Tempo, 405186
1, 292320, Tempo, 389408
1, 292320, Note_on_c, 0, 62, 0
1, 292320, Note_on_c, 0, 74, 0
1, 292320, Note_on_c, 0, 75, 46
1, 292320, Note_on_c, 0, 55, 32
1, 292325, Control_c, 0, 64, 0
1, 292469, Control_c, 0, 64, 127
1, 292560, Tempo, 386897
1, 292560, Note_on_c, 0, 55, 0
1, 292560, Note_on_c, 0, 75, 0
1, 292560, Note_on_c, 0, 58, 25
1, 292800, Note_on_c, 0, 58, 0
1, 292800, Note_on_c, 0, 75, 42
1, 292800, Note_on_c, 0, 63, 25
1, 292920, Tempo, 394529
1, 293040, Tempo, 389408
1, 293040, Note_on_c, 0, 63, 0
1, 293040, Note_on_c, 0, 75, 0
1, 293040, Note_on_c, 0, 74, 43
1, 293040, Note_on_c, 0, 53, 31
1, 293052, Control_c, 0, 64, 0
1, 293212, Control_c, 0, 64, 127
1, 293280, Note_on_c, 0, 53, 0
1, 293280, Note_on_c, 0, 74, 0
1, 293280, Note_on_c, 0, 57, 27
1, 293520, Note_on_c, 0, 57, 0
1, 293520, Note_on_c, 0, 74, 43
1, 293520, Note_on_c, 0, 62, 27
1, 293640, Tempo, 402468
1, 293760, Tempo, 389408
1, 293760, Note_on_c, 0, 62, 0
1, 293760, Note_on_c, 0, 74, 0
1, 293760, Note_on_c, 0, 79, 52
1, 293760, Note_on_c, 0, 51, 37
1, 293763, Control_c, 0, 64, 0
1, 293897, Control_c, 0, 64, 127
1, 294000, Tempo, 386897
1, 294000, Note_on_c, 0, 51, 0
1, 294000, Note_on_c, 0, 55, 32
1, 294240, Tempo, 399787
1, 294240, Note_on_c, 0, 55, 0
1, 294240, Note_on_c, 0, 60, 32
1, 294360, Tempo, 389408
1, 294480, Note_on_c, 0, 60, 0
1, 294480, Note_on_c, 0, 50, 34
1, 294492, Control_c, 0, 64, 0
1, 294606, Control_c, 0, 64, 127
1, 294720, Note_on_c, 0, 50, 0
1, 294720, Note_on_c, 0, 53, 28
1, 294960, Note_on_c, 0, 53, 0
1, 294960, Note_on_c, 0, 79, 0
1, 294960, Note_on_c, 0, 77, 44
1, 294960, Note_on_c, 0, 58, 24
1, 295080, Tempo, 407941
1, 295200, Tempo, 386897
1, 295200, Note_on_c, 0, 58, 0
1, 295200, Note_on_c, 0, 77, 0
1, 295200, Note_on_c, 0, 77, 47
1, 295200, Note_on_c, 0, 48, 32
1, 295210, Control_c, 0, 64, 0
1, 295320, Tempo, 399787
1, 295360, Control_c, 0, 64, 127
1, 295440, Tempo, 391952
1, 295440, Note_on_c, 0, 48, 0
1, 295440, Note_on_c, 0, 77, 0
1, 295440, Note_on_c, 0, 76, 44
1, 295440, Note_on_c, 0, 55, 27
1, 295680, Note_on_c, 0, 55, 0
1, 295680, Note_on_c, 0, 76, 0
1, 295680, Note_on_c, 0, 72, 48
1, 295680, Note_on_c, 0, 58, 27
1, 295920, Note_on_c, 0, 58, 0
1, 295920, Note_on_c, 0, 53, 33
1, 295930, Control_c, 0, 64, 0
1, 296092, Control_c, 0, 64, 127
1, 296160, Tempo, 384418
1, 296160, Note_on_c, 0, 53, 0
1, 296160, Note_on_c, 0, 72, 0
1, 296160, Note_on_c, 0, 74, 45
1, 296160, Note_on_c, 0, 57, 29
1, 296400, Note_on_c, 0, 57, 0
1, 296400, Note_on_c, 0, 74, 0
1, 296400, Note_on_c, 0, 75, 45
1, 296400, Note_on_c, 0, 60, 29
1, 296520, Tempo, 405186
1, 296636, Note_on_c, 0, 75, 0
1, 296640, Tempo, 391952
1, 296640, Note_on_c, 0, 60, 0
1, 296640, Note_on_c, 0, 75, 45
1, 296640, Note_on_c, 0, 46, 36
1, 296646, Control_c, 0, 64, 0
1, 296789, Control_c, 0, 64, 127
1, 296880, Note_on_c, 0, 46, 0
1, 296880, Note_on_c, 0, 75, 0
1, 296880, Note_on_c, 0, 74, 42
1, 296880, Note_on_c, 0, 53, 31
1, 297120, Note_on_c, 0, 53, 0
1, 297120, Note_on_c, 0, 74, 0
1, 297120, Note_on_c, 0, 70, 46
1, 297120, Note_on_c, 0, 58, 29
1, 297360, Note_on_c, 0, 58, 0
1, 297360, Note_on_c, 0, 54, 33
1, 297370, Control_c, 0, 64, 0
1, 297480, Tempo, 402468
1, 297486, Control_c, 0, 64, 127
1, 297600, Tempo, 416435
1, 297600, Note_on_c, 0, 54, 0
1, 297600, Note_on_c, 0, 70, 0
1, 297600, Note_on_c, 0, 72, 46
1, 297600, Note_on_c, 0, 58, 33
1, 297720, Tempo, 391952
1, 297840, Note_on_c, 0, 58, 0
1, 297840, Note_on_c, 0, 72, 0
1, 297840, Note_on_c, 0, 73, 51
1, 297840, Note_on_c, 0, 61, 33
1, 298080, Note_on_c, 0, 61, 0
1, 298080, Note_on_c, 0, 51, 39
1, 298086, Control_c, 0, 64, 0
1, 298200, Tempo, 413565
1, 298229, Control_c, 0, 64, 127
1, 298320, Tempo, 391952
1, 298320, Note_on_c, 0, 51, 0
1, 298320, Note_on_c, 0, 73, 0
1, 298320, Note_on_c, 0, 72, 51
1, 298320, Note_on_c, 0, 54, 35
1, 298560, Note_on_c, 0, 54, 0
1, 298560, Note_on_c, 0, 72, 0
1, 298560, Note_on_c, 0, 73, 55
1, 298560, Note_on_c, 0, 58, 36
1, 298800, Note_on_c, 0, 58, 0
1, 298800, Note_on_c, 0, 52, 45
1, 298808, Control_c, 0, 64, 0
1, 298983, Control_c, 0, 64, 127
1, 299040, Note_on_c, 0, 52, 0
1, 299040, Note_on_c, 0, 73, 0
1, 299040, Note_on_c, 0, 72, 50
1, 299040, Note_on_c, 0, 55, 38
1, 299280, Tempo, 386897
1, 299280, Note_on_c, 0, 55, 0
1, 299280, Note_on_c, 0, 72, 0
1, 299280, Note_on_c, 0, 70, 51
1, 299280, Note_on_c, 0, 61, 39
1, 299400, Tempo, 413565
1, 299520, Tempo, 405186
1, 299520, Note_on_c, 0, 61, 0
1, 299520, Note_on_c, 0, 70, 0
1, 299520, Note_on_c, 0, 69, 57
1, 299520, Note_on_c, 0, 53, 47
1, 299525, Control_c, 0, 64, 0
1, 299669, Control_c, 0, 64, 127
1, 299760, Note_on_c, 0, 53, 0
1, 299760, Note_on_c, 0, 57, 40
1, 300000, Note_on_c, 0, 57, 0
1, 300000, Note_on_c, 0, 60, 40
1, 300240, Note_on_c, 0, 60, 0
1, 300240, Note_on_c, 0, 69, 0
1, 300240, Note_on_c, 0, 72, 55
1, 300240, Note_on_c, 0, 53, 48
1, 300246, Control_c, 0, 64, 0
1, 300389, Control_c, 0, 64, 127
1, 300480, Note_on_c, 0, 53, 0
1, 300480, Note_on_c, 0, 72, 0
1, 300480, Note_on_c, 0, 51, 42
1, 300720, Note_on_c, 0, 51, 0
1, 300720, Note_on_c, 0, 48, 43
1, 300960, Tempo, 389408
1, 300960, Note_on_c, 0, 48, 0
1, 300960, Note_on_c, 0, 74, 75
1, 300960, Note_on_c, 0, 58, 58
1, 300960, Note_on_c, 0, 46, 49
1, 300969, Control_c, 0, 64, 0
1, 301066, Control_c, 0, 64, 127
1, 301080, Note_on_c, 0, 74, 0
1, 301080, Note_on_c, 0, 70, 57
1, 301200, Note_on_c, 0, 70, 0
1, 301200, Note_on_c, 0, 65, 57
1, 301320, Note_on_c, 0, 65, 0
1, 301320, Note_on_c, 0, 70, 57
1, 301440, Note_on_c, 0, 70, 0
1, 301440, Note_on_c, 0, 46, 0
1, 301440, Note_on_c, 0, 58, 0
1, 301440, Note_on_c, 0, 74, 57
1, 301560, Note_on_c, 0, 74, 0
1, 301560, Note_on_c, 0, 70, 57
1, 301680, Note_on_c, 0, 70, 0
1, 301680, Note_on_c, 0, 72, 73
1, 301680, Note_on_c, 0, 45, 49
1, 301680, Note_on_c, 0, 57, 58
1, 301691, Control_c, 0, 64, 0
1, 301772, Control_c, 0, 64, 127
1, 301800, Note_on_c, 0, 72, 0
1, 301800, Note_on_c, 0, 69, 56
1, 301920, Note_on_c, 0, 69, 0
1, 301920, Note_on_c, 0, 65, 56
1, 302040, Note_on_c, 0, 65, 0
1, 302040, Note_on_c, 0, 69, 56
1, 302160, Note_on_c, 0, 69, 0
1, 302160, Note_on_c, 0, 57, 0
1, 302160, Note_on_c, 0, 45, 0
1, 302160, Note_on_c, 0, 72, 56
1, 302280, Tempo, 413565
1, 302280, Note_on_c, 0, 72, 0
1, 302280, Note_on_c, 0, 69, 56
1, 302400, Tempo, 389408
1, 302400, Note_on_c, 0, 69, 0
1, 302400, Note_on_c, 0, 75, 76
1, 302400, Note_on_c, 0, 43, 49
1, 302400, Note_on_c, 0, 55, 58
1, 302406, Control_c, 0, 64, 0
1, 302486, Control_c, 0, 64, 127
1, 302520, Note_on_c, 0, 75, 0
1, 302520, Note_on_c, 0, 70, 55
1, 302640, Note_on_c, 0, 70, 0
1, 302640, Note_on_c, 0, 67, 55
1, 302760, Note_on_c, 0, 67, 0
1, 302760, Note_on_c, 0, 70, 55
1, 302880, Tempo, 381971
1, 302880, Note_on_c, 0, 70, 0
1, 302880, Note_on_c, 0, 75, 60
1, 303000, Note_on_c, 0, 75, 0
1, 303000, Note_on_c, 0, 70, 53
1, 303120, Note_on_c, 0, 70, 0
1, 303120, Note_on_c, 0, 75, 59
1, 303240, Tempo, 389408
1, 303240, Note_on_c, 0, 75, 0
1, 303240, Note_on_c, 0, 70, 52
1, 303360, Tempo, 386897
1, 303360, Note_on_c, 0, 70, 0
1, 303360, Note_on_c, 0, 75, 60
1, 303480, Note_on_c, 0, 75, 0
1, 303480, Note_on_c, 0, 70, 48
1, 303600, Note_on_c, 0, 70, 0
1, 303600, Note_on_c, 0, 55, 0
1, 303600, Note_on_c, 0, 43, 0
1, 303600, Note_on_c, 0, 74, 74
1, 303600, Note_on_c, 0, 54, 57
1, 303600, Note_on_c, 0, 42, 48
1, 303605, Control_c, 0, 64, 0
1, 303686, Control_c, 0, 64, 127
1, 303720, Tempo, 405186
1, 303720, Note_on_c, 0, 74, 0
1, 303720, Note_on_c, 0, 69, 51
1, 303840, Tempo, 389408
1, 303840, Note_on_c, 0, 69, 0
1, 303840, Note_on_c, 0, 42, 0
1, 303840, Note_on_c, 0, 54, 0
1, 303840, Note_on_c, 0, 75, 78
1, 303840, Note_on_c, 0, 55, 57
1, 303840, Note_on_c, 0, 43, 48
1, 303863, Control_c, 0, 64, 0
1, 303903, Control_c, 0, 64, 127
1, 303960, Note_on_c, 0, 75, 0
1, 303960, Note_on_c, 0, 70, 53
1, 304080, Tempo, 386897
1, 304080, Note_on_c, 0, 70, 0
1, 304080, Note_on_c, 0, 67, 54
1, 304200, Note_on_c, 0, 67, 0
1, 304200, Note_on_c, 0, 70, 54
1, 304320, Note_on_c, 0, 70, 0
1, 304320, Note_on_c, 0, 43, 0
1, 304320, Note_on_c, 0, 55, 0
1, 304320, Note_on_c, 0, 75, 60
1, 304440, Tempo, 394529
1, 304440, Note_on_c, 0, 75, 0
1, 304440, Note_on_c, 0, 70, 54
1, 304560, Tempo, 389408
1, 304560, Note_on_c, 0, 70, 0
1, 304560, Note_on_c, 0, 74, 64
1, 304560, Note_on_c, 0, 41, 48
1, 304560, Note_on_c, 0, 53, 57
1, 304571, Control_c, 0, 64, 0
1, 304640, Control_c, 0, 64, 127
1, 304680, Note_on_c, 0, 74, 0
1, 304680, Note_on_c, 0, 69, 52
1, 304800, Note_on_c, 0, 69, 0
1, 304800, Note_on_c, 0, 65, 53
1, 304920, Note_on_c, 0, 65, 0
1, 304920, Note_on_c, 0, 69, 53
1, 305040, Note_on_c, 0, 69, 0
1, 305040, Note_on_c, 0, 53, 0
1, 305040, Note_on_c, 0, 41, 0
1, 305040, Note_on_c, 0, 74, 73
1, 305160, Tempo, 402468
1, 305160, Note_on_c, 0, 74, 0
1, 305160, Note_on_c, 0, 69, 57
1, 305280, Tempo, 389408
1, 305280, Note_on_c, 0, 69, 0
1, 305280, Note_on_c, 0, 79, 75
1, 305280, Note_on_c, 0, 51, 47
1, 305280, Note_on_c, 0, 39, 39
1, 305285, Control_c, 0, 64, 0
1, 305400, Note_on_c, 0, 79, 0
1, 305400, Note_on_c, 0, 70, 52
1, 305450, Control_c, 0, 64, 127
1, 305520, Tempo, 386897
1, 305520, Note_on_c, 0, 70, 0
1, 305520, Note_on_c, 0, 67, 52
1, 305640, Note_on_c, 0, 67, 0
1, 305640, Note_on_c, 0, 70, 52
1, 305760, Tempo, 399787
1, 305760, Note_on_c, 0, 70, 0
1, 305760, Note_on_c, 0, 79, 61
1, 305880, Tempo, 389408
1, 305880, Note_on_c, 0, 79, 0
1, 305880, Note_on_c, 0, 70, 51
1, 306000, Note_on_c, 0, 70, 0
1, 306000, Note_on_c, 0, 79, 63
1, 306120, Note_on_c, 0, 79, 0
1, 306120, Note_on_c, 0, 70, 52
1, 306240, Note_on_c, 0, 70, 0
1, 306240, Note_on_c, 0, 79, 65
1, 306360, Note_on_c, 0, 79, 0
1, 306360, Note_on_c, 0, 70, 53
1, 306480, Note_on_c, 0, 70, 0
1, 306480, Note_on_c, 0, 39, 0
1, 306480, Note_on_c, 0, 51, 0
1, 306480, Note_on_c, 0, 77, 51
1, 306480, Note_on_c, 0, 38, 35
1, 306480, Note_on_c, 0, 50, 42
1, 306491, Control_c, 0, 64, 0
1, 306600, Tempo, 407941
1, 306600, Note_on_c, 0, 77, 0
1, 306600, Note_on_c, 0, 70, 45
1, 306600, Control_c, 0, 64, 127
1, 306720, Tempo, 394529
1, 306720, Note_on_c, 0, 70, 0
1, 306720, Note_on_c, 0, 50, 0
1, 306720, Note_on_c, 0, 38, 0
1, 306720, Note_on_c, 0, 48, 51
1, 306720, Control_c, 0, 64, 0
1, 306811, Control_c, 0, 64, 127
1, 306840, Note_on_c, 0, 48, 0
1, 306840, Note_on_c, 0, 55, 44
1, 306960, Note_on_c, 0, 55, 0
1, 306960, Note_on_c, 0, 58, 44
1, 307080, Note_on_c, 0, 58, 0
1, 307080, Note_on_c, 0, 67, 51
1, 307200, Note_on_c, 0, 67, 0
1, 307200, Note_on_c, 0, 70, 44
1, 307320, Tempo, 422297
1, 307320, Note_on_c, 0, 70, 0
1, 307320, Note_on_c, 0, 76, 44
1, 307440, Tempo, 394529
1, 307440, Note_on_c, 0, 76, 0
1, 307440, Note_on_c, 0, 54, 51
1, 307452, Control_c, 0, 64, 0
1, 307555, Control_c, 0, 64, 127
1, 307560, Note_on_c, 0, 54, 0
1, 307560, Note_on_c, 0, 57, 42
1, 307680, Note_on_c, 0, 57, 0
1, 307680, Note_on_c, 0, 60, 44
1, 307800, Note_on_c, 0, 60, 0
1, 307800, Note_on_c, 0, 69, 51
1, 307920, Note_on_c, 0, 69, 0
1, 307920, Note_on_c, 0, 72, 46
1, 308040, Tempo, 422297
1, 308040, Note_on_c, 0, 72, 0
1, 308040, Note_on_c, 0, 75, 46
1, 308160, Tempo, 394529
1, 308160, Note_on_c, 0, 75, 0
1, 308160, Note_on_c, 0, 55, 51
1, 308164, Control_c, 0, 64, 0
1, 308268, Control_c, 0, 64, 127
1, 308280, Note_on_c, 0, 55, 0
1, 308280, Note_on_c, 0, 58, 42
1, 308400, Note_on_c, 0, 58, 0
1, 308400, Note_on_c, 0, 62, 42
1, 308520, Note_on_c, 0, 62, 0
1, 308520, Note_on_c, 0, 67, 51
1, 308640, Note_on_c, 0, 67, 0
1, 308640, Note_on_c, 0, 70, 44
1, 308760, Tempo, 422297
1, 308760, Note_on_c, 0, 70, 0
1, 308760, Note_on_c, 0, 74, 44
1, 308880, Tempo, 391952
1, 308880, Note_on_c, 0, 74, 0
1, 308880, Note_on_c, 0, 51, 57
1, 308885, Control_c, 0, 64, 0
1, 308972, Control_c, 0, 64, 127
1, 309000, Note_on_c, 0, 51, 0
1, 309000, Note_on_c, 0, 55, 49
1, 309120, Note_on_c, 0, 55, 0
1, 309120, Note_on_c, 0, 60, 49
1, 309240, Note_on_c, 0, 60, 0
1, 309240, Note_on_c, 0, 63, 57
1, 309360, Note_on_c, 0, 63, 0
1, 309360, Note_on_c, 0, 67, 48
1, 309480, Tempo, 416435
1, 309480, Note_on_c, 0, 67, 0
1, 309480, Note_on_c, 0, 72, 49
1, 309600, Tempo, 394529
1, 309600, Note_on_c, 0, 72, 0
1, 309600, Note_on_c, 0, 41, 63
1, 309611, Control_c, 0, 64, 0
1, 309694, Control_c, 0, 64, 127
1, 309720, Note_on_c, 0, 41, 0
1, 309720, Note_on_c, 0, 50, 56
1, 309840, Note_on_c, 0, 50, 0
1, 309840, Note_on_c, 0, 53, 56
1, 309960, Note_on_c, 0, 53, 0
1, 309960, Note_on_c, 0, 62, 56
1, 310080, Note_on_c, 0, 62, 0
1, 310080, Note_on_c, 0, 65, 48
1, 310200, Tempo, 422297
1, 310200, Note_on_c, 0, 65, 0
1, 310200, Note_on_c, 0, 70, 48
1, 310320, Tempo, 397141
1, 310320, Note_on_c, 0, 70, 0
1, 310320, Note_on_c, 0, 41, 70
1, 310331, Control_c, 0, 64, 0
1, 310419, Control_c, 0, 64, 127
1, 310440, Note_on_c, 0, 41, 0
1, 310440, Note_on_c, 0, 48, 61
1, 310551, Tempo, 402468
1, 310560, Note_on_c, 0, 48, 0
1, 310560, Note_on_c, 0, 53, 61
1, 310589, Tempo, 405186
1, 310608, Tempo, 407941
1, 310627, Tempo, 410734
1, 310647, Tempo, 413565
1, 310666, Tempo, 416435
1, 310680, Note_on_c, 0, 53, 0
1, 310680, Note_on_c, 0, 63, 59
1, 310704, Tempo, 419346
1, 310723, Tempo, 422297
1, 310743, Tempo, 425291
1, 310762, Tempo, 428327
1, 310781, Tempo, 428327
1, 310800, Note_on_c, 0, 63, 0
1, 310800, Note_on_c, 0, 65, 52
1, 310819, Tempo, 431406
1, 310839, Tempo, 434531
1, 310877, Tempo, 437701
1, 310896, Tempo, 440917
1, 310920, Tempo, 535332
1, 310920, Note_on_c, 0, 65, 0
1, 310920, Note_on_c, 0, 69, 52
1, 311040, Tempo, 394529
1, 311040, Note_on_c, 0, 69, 0
1, 311040, Note_on_c, 0, 34, 72
1, 311044, Control_c, 0, 64, 0
1, 311374, Control_c, 0, 64, 127
1, 312000, Note_on_c, 0, 34, 0
1, 312000, Note_on_c, 0, 38, 42
1, 312240, Note_on_c, 0, 38, 0
1, 312240, Note_on_c, 0, 41, 44
1, 312480, Note_on_c, 0, 41, 0
1, 312480, Note_on_c, 0, 46, 46
1, 312720, Note_on_c, 0, 50, 48
1, 312960, Note_on_c, 0, 50, 0
1, 312960, Note_on_c, 0, 53, 50
1, 313200, Note_on_c, 0, 53, 0
1, 313200, Note_on_c, 0, 58, 52
1, 313440, Note_on_c, 0, 58, 0
1, 313440, Note_on_c, 0, 62, 51
1, 313680, Note_on_c, 0, 62, 0
1, 313680, Note_on_c, 0, 65, 56
1, 313800, Tempo, 413565
1, 313920, Tempo, 394529
1, 313920, Note_on_c, 0, 65, 0
1, 313920, Note_on_c, 0, 46, 0
1, 313920, Note_on_c, 0, 66, 57
1, 313920, Note_on_c, 0, 45, 45
1, 313920, Note_on_c, 0, 48, 45
1, 313920, Note_on_c, 0, 51, 45
1, 313927, Control_c, 0, 64, 0
1, 314103, Control_c, 0, 64, 127
1, 314160, Tempo, 389408
1, 314160, Note_on_c, 0, 66, 0
1, 314160, Note_on_c, 0, 69, 58
1, 314400, Note_on_c, 0, 69, 0
1, 314400, Note_on_c, 0, 72, 60
1, 314640, Note_on_c, 0, 72, 0
1, 314640, Note_on_c, 0, 75, 61
1, 314880, Note_on_c, 0, 75, 0
1, 314880, Note_on_c, 0, 78, 63
1, 315120, Note_on_c, 0, 78, 0
1, 315120, Note_on_c, 0, 81, 64
1, 315240, Tempo, 410734
1, 315360, Tempo, 394529
1, 315360, Note_on_c, 0, 81, 0
1, 315360, Note_on_c, 0, 51, 0
1, 315360, Note_on_c, 0, 84, 66
1, 315360, Note_on_c, 0, 54, 45
1, 315600, Tempo, 389408
1, 315600, Note_on_c, 0, 84, 0
1, 315600, Note_on_c, 0, 81, 64
1, 315840, Note_on_c, 0, 81, 0
1, 315840, Note_on_c, 0, 78, 62
1, 316080, Note_on_c, 0, 78, 0
1, 316080, Note_on_c, 0, 75, 60
1, 316320, Note_on_c, 0, 75, 0
1, 316320, Note_on_c, 0, 74, 58
1, 316560, Note_on_c, 0, 74, 0
1, 316560, Note_on_c, 0, 66, 57
1, 316680, Tempo, 416435
1, 316800, Tempo, 394529
1, 316800, Note_on_c, 0, 66, 0
1, 316800, Note_on_c, 0, 54, 0
1, 316800, Note_on_c, 0, 48, 0
1, 316800, Note_on_c, 0, 45, 0
1, 316800, Note_on_c, 0, 69, 55
1, 316800, Note_on_c, 0, 55, 45
1, 316800, Note_on_c, 0, 50, 45
1, 316800, Note_on_c, 0, 46, 45
1, 316807, Control_c, 0, 64, 0
1, 316960, Control_c, 0, 64, 127
1, 317040, Note_on_c, 0, 69, 0
1, 317040, Note_on_c, 0, 67, 45
1, 317280, Note_on_c, 0, 67, 0
1, 317280, Note_on_c, 0, 73, 45
1, 317400, Tempo, 419346
1, 317520, Tempo, 394529
1, 317520, Note_on_c, 0, 73, 0
1, 317520, Note_on_c, 0, 74, 50
1, 317760, Note_on_c, 0, 74, 0
1, 317760, Note_on_c, 0, 78, 47
1, 318000, Note_on_c, 0, 78, 0
1, 318000, Note_on_c, 0, 79, 47
1, 318120, Tempo, 434531
1, 318240, Tempo, 402468
1, 318240, Note_on_c, 0, 79, 0
1, 318240, Note_on_c, 0, 85, 52
1, 318480, Note_on_c, 0, 85, 0
1, 318480, Note_on_c, 0, 86, 45
1, 318720, Note_on_c, 0, 86, 0
1, 318720, Note_on_c, 0, 81, 41
1, 318840, Tempo, 437701
1, 318960, Tempo, 402468
1, 318960, Note_on_c, 0, 81, 0
1, 318960, Note_on_c, 0, 82, 49
1, 319200, Note_on_c, 0, 82, 0
1, 319200, Note_on_c, 0, 78, 43
1, 319440, Note_on_c, 0, 78, 0
1, 319440, Note_on_c, 0, 79, 43
1, 319560, Tempo, 437701
1, 319680, Tempo, 402468
1, 319680, Note_on_c, 0, 79, 0
1, 319680, Note_on_c, 0, 46, 0
1, 319680, Note_on_c, 0, 50, 0
1, 319680, Note_on_c, 0, 55, 0
1, 319680, Note_on_c, 0, 61, 33
1, 319680, Note_on_c, 0, 58, 26
1, 319680, Control_c, 0, 64, 0
1, 319920, Note_on_c, 0, 77, 39
1, 319920, Control_c, 0, 64, 127
1, 320160, Tempo, 419346
1, 320160, Note_on_c, 0, 77, 0
1, 320160, Note_on_c, 0, 58, 0
1, 320160, Note_on_c, 0, 61, 0
1, 320160, Note_on_c, 0, 76, 35
1, 320206, Control_c, 0, 64, 0
1, 320400, Tempo, 399787
1, 320400, Note_on_c, 0, 76, 0
1, 320400, Note_on_c, 0, 61, 33
1, 320400, Note_on_c, 0, 58, 26
1, 320640, Note_on_c, 0, 76, 35
1, 320697, Control_c, 0, 64, 127
1, 320880, Tempo, 413565
1, 320880, Note_on_c, 0, 76, 0
1, 320880, Note_on_c, 0, 58, 0
1, 320880, Note_on_c, 0, 61, 0
1, 320880, Note_on_c, 0, 85, 41
1, 320972, Control_c, 0, 64, 0
1, 321120, Tempo, 399787
1, 321120, Note_on_c, 0, 85, 0
1, 321120, Note_on_c, 0, 58, 26
1, 321120, Note_on_c, 0, 60, 33
1, 321360, Note_on_c, 0, 85, 41
1, 321486, Control_c, 0, 64, 127
1, 321600, Tempo, 405186
1, 321600, Note_on_c, 0, 85, 0
1, 321600, Note_on_c, 0, 60, 0
1, 321600, Note_on_c, 0, 58, 0
1, 321600, Note_on_c, 0, 84, 43
1, 321700, Control_c, 0, 64, 0
1, 321840, Tempo, 399787
1, 321840, Note_on_c, 0, 84, 0
1, 321840, Note_on_c, 0, 60, 33
1, 321840, Note_on_c, 0, 58, 26
1, 322080, Note_on_c, 0, 84, 43
1, 322263, Control_c, 0, 64, 127
1, 322320, Tempo, 416435
1, 322320, Note_on_c, 0, 84, 0
1, 322320, Note_on_c, 0, 58, 0
1, 322320, Note_on_c, 0, 60, 0
1, 322320, Note_on_c, 0, 76, 41
1, 322468, Control_c, 0, 64, 0
1, 322560, Tempo, 399787
1, 322560, Note_on_c, 0, 76, 0
1, 322560, Note_on_c, 0, 44, 50
1, 322560, Note_on_c, 0, 56, 60
1, 322600, Control_c, 0, 64, 127
1, 322800, Note_on_c, 0, 76, 56
1, 323040, Note_on_c, 0, 76, 0
1, 323040, Note_on_c, 0, 77, 53
1, 323280, Note_on_c, 0, 77, 0
1, 323280, Note_on_c, 0, 84, 63
1, 323520, Note_on_c, 0, 84, 0
1, 323520, Note_on_c, 0, 79, 56
1, 323760, Note_on_c, 0, 79, 0
1, 323760, Note_on_c, 0, 82, 56
1, 324000, Note_on_c, 0, 82, 0
1, 324000, Note_on_c, 0, 80, 63
1, 324007, Control_c, 0, 64, 0
1, 324240, Note_on_c, 0, 80, 0
1, 324240, Note_on_c, 0, 76, 56
1, 324252, Control_c, 0, 64, 127
1, 324480, Note_on_c, 0, 76, 0
1, 324480, Note_on_c, 0, 79, 56
1, 324720, Note_on_c, 0, 79, 0
1, 324720, Note_on_c, 0, 77, 60
1, 324960, Note_on_c, 0, 77, 0
1, 324960, Note_on_c, 0, 75, 52
1, 325200, Tempo, 413565
1, 325200, Note_on_c, 0, 75, 0
1, 325200, Note_on_c, 0, 73, 52
1, 325440, Tempo, 399787
1, 325440, Note_on_c, 0, 73, 0
1, 325440, Note_on_c, 0, 56, 0
1, 325440, Note_on_c, 0, 44, 0
1, 325440, Note_on_c, 0, 72, 51
1, 325440, Note_on_c, 0, 62, 45
1, 325440, Control_c, 0, 64, 0
1, 325589, Control_c, 0, 64, 127
1, 325680, Tempo, 397141
1, 325680, Note_on_c, 0, 64, 41
1, 325920, Note_on_c, 0, 64, 0
1, 325920, Note_on_c, 0, 65, 41
1, 326160, Note_on_c, 0, 65, 0
1, 326160, Note_on_c, 0, 72, 0
1, 326160, Note_on_c, 0, 71, 45
1, 326160, Note_on_c, 0, 68, 45
1, 326163, Control_c, 0, 64, 0
1, 326275, Control_c, 0, 64, 127
1, 326400, Note_on_c, 0, 68, 0
1, 326400, Note_on_c, 0, 64, 41
1, 326640, Tempo, 405186
1, 326640, Note_on_c, 0, 64, 0
1, 326640, Note_on_c, 0, 65, 41
1, 326880, Tempo, 399787
1, 326880, Note_on_c, 0, 65, 0
1, 326880, Note_on_c, 0, 71, 0
1, 326880, Note_on_c, 0, 62, 0
1, 326880, Note_on_c, 0, 77, 50
1, 326880, Note_on_c, 0, 61, 45
1, 326880, Note_on_c, 0, 68, 54
1, 326883, Control_c, 0, 64, 0
1, 327097, Control_c, 0, 64, 127
1, 327120, Note_on_c, 0, 68, 0
1, 327120, Note_on_c, 0, 64, 42
1, 327360, Note_on_c, 0, 64, 0
1, 327360, Note_on_c, 0, 65, 42
1, 327600, Note_on_c, 0, 65, 0
1, 327600, Note_on_c, 0, 77, 0
1, 327600, Note_on_c, 0, 71, 45
1, 327600, Note_on_c, 0, 68, 52
1, 327612, Control_c, 0, 64, 0
1, 327795, Control_c, 0, 64, 127
1, 327840, Note_on_c, 0, 68, 0
1, 327840, Note_on_c, 0, 67, 47
1, 328080, Tempo, 413565
1, 328080, Note_on_c, 0, 67, 0
1, 328080, Note_on_c, 0, 65, 52
1, 328320, Tempo, 410734
1, 328320, Note_on_c, 0, 65, 0
1, 328320, Note_on_c, 0, 71, 0
1, 328320, Note_on_c, 0, 61, 0
1, 328320, Note_on_c, 0, 48, 49
1, 328320, Note_on_c, 0, 60, 58
1, 328320, Control_c, 0, 64, 0
1, 328560, Tempo, 397141
1, 328560, Note_on_c, 0, 64, 55
1, 328560, Note_on_c, 0, 72, 66
1, 328560, Note_on_c, 0, 67, 55
1, 328623, Control_c, 0, 64, 127
1, 328800, Note_on_c, 0, 67, 0
1, 328800, Note_on_c, 0, 64, 0
1, 328800, Note_on_c, 0, 48, 0
1, 328800, Note_on_c, 0, 60, 0
1, 328800, Note_on_c, 0, 72, 0
1, 328800, Note_on_c, 0, 71, 60
1, 328800, Note_on_c, 0, 65, 60
1, 328800, Note_on_c, 0, 74, 73
1, 328857, Control_c, 0, 64, 0
1, 328920, Note_on_c, 0, 74, 0
1, 328920, Note_on_c, 0, 65, 0
1, 328920, Note_on_c, 0, 71, 0
1, 329040, Tempo, 413565
1, 329040, Note_on_c, 0, 60, 58
1, 329040, Note_on_c, 0, 48, 49
1, 329280, Tempo, 394529
1, 329280, Note_on_c, 0, 74, 66
1, 329280, Note_on_c, 0, 65, 55
1, 329280, Note_on_c, 0, 71, 55
1, 329343, Control_c, 0, 64, 127
1, 329520, Note_on_c, 0, 71, 0
1, 329520, Note_on_c, 0, 74, 0
1, 329520, Note_on_c, 0, 60, 0
1, 329520, Note_on_c, 0, 48, 0
1, 329520, Note_on_c, 0, 65, 0
1, 329520, Note_on_c, 0, 70, 61
1, 329520, Note_on_c, 0, 67, 61
1, 329520, Note_on_c, 0, 76, 74
1, 329606, Control_c, 0, 64, 0
1, 329640, Note_on_c, 0, 76, 0
1, 329640, Note_on_c, 0, 67, 0
1, 329640, Note_on_c, 0, 70, 0
1, 329760, Tempo, 405186
1, 329760, Note_on_c, 0, 48, 49
1, 329760, Note_on_c, 0, 60, 57
1, 330000, Tempo, 397141
1, 330000, Note_on_c, 0, 67, 55
1, 330000, Note_on_c, 0, 76, 66
1, 330000, Note_on_c, 0, 70, 55
1, 330078, Control_c, 0, 64, 127
1, 330240, Note_on_c, 0, 70, 0
1, 330240, Note_on_c, 0, 67, 0
1, 330240, Note_on_c, 0, 48, 0
1, 330240, Note_on_c, 0, 60, 0
1, 330240, Note_on_c, 0, 76, 0
1, 330240, Note_on_c, 0, 72, 60
1, 330240, Note_on_c, 0, 69, 60
1, 330240, Note_on_c, 0, 77, 72
1, 330360, Note_on_c, 0, 77, 0
1, 330360, Note_on_c, 0, 69, 0
1, 330360, Note_on_c, 0, 72, 0
1, 330381, Control_c, 0, 64, 0
1, 330480, Tempo, 405186
1, 330480, Note_on_c, 0, 60, 57
1, 330480, Note_on_c, 0, 48, 49
1, 330720, Tempo, 397141
1, 330720, Note_on_c, 0, 78, 66
1, 330720, Note_on_c, 0, 72, 55
1, 330720, Note_on_c, 0, 69, 55
1, 330784, Control_c, 0, 64, 127
1, 330960, Note_on_c, 0, 69, 0
1, 330960, Note_on_c, 0, 78, 0
1, 330960, Note_on_c, 0, 60, 0
1, 330960, Note_on_c, 0, 48, 0
1, 330960, Note_on_c, 0, 72, 0
1, 330960, Note_on_c, 0, 79, 71
1, 330960, Note_on_c, 0, 76, 59
1, 330960, Note_on_c, 0, 70, 59
1, 331045, Control_c, 0, 64, 0
1, 331080, Note_on_c, 0, 70, 0
1, 331080, Note_on_c, 0, 76, 0
1, 331080, Note_on_c, 0, 79, 0
1, 331200, Tempo, 410734
1, 331200, Note_on_c, 0, 48, 49
1, 331200, Note_on_c, 0, 60, 57
1, 331440, Tempo, 397141
1, 331440, Note_on_c, 0, 76, 55
1, 331440, Note_on_c, 0, 70, 55
1, 331440, Note_on_c, 0, 79, 66
1, 331525, Control_c, 0, 64, 127
1, 331680, Note_on_c, 0, 79, 0
1, 331680, Note_on_c, 0, 76, 0
1, 331680, Note_on_c, 0, 48, 0
1, 331680, Note_on_c, 0, 60, 0
1, 331680, Note_on_c, 0, 70, 0
1, 331680, Note_on_c, 0, 81, 73
1, 331680, Note_on_c, 0, 72, 60
1, 331680, Note_on_c, 0, 77, 60
1, 331772, Control_c, 0, 64, 0
1, 331800, Note_on_c, 0, 77, 0
1, 331800, Note_on_c, 0, 72, 0
1, 331800, Note_on_c, 0, 81, 0
1, 331920, Tempo, 410734
1, 331920, Note_on_c, 0, 60, 56
1, 331920, Note_on_c, 0, 48, 48
1, 332160, Tempo, 416435
1, 332160, Note_on_c, 0, 78, 55
1, 332160, Note_on_c, 0, 72, 55
1, 332160, Note_on_c, 0, 81, 66
1, 332259, Control_c, 0, 64, 127
1, 332400, Tempo, 447494
1, 332400, Note_on_c, 0, 81, 0
1, 332400, Note_on_c, 0, 78, 0
1, 332400, Note_on_c, 0, 60, 0
1, 332400, Note_on_c, 0, 48, 0
1, 332400, Note_on_c, 0, 72, 0
1, 332400, Note_on_c, 0, 76, 58
1, 332400, Note_on_c, 0, 82, 70
1, 332400, Note_on_c, 0, 79, 58
1, 332478, Control_c, 0, 64, 0
1, 332520, Note_on_c, 0, 79, 0
1, 332520, Note_on_c, 0, 82, 0
1, 332520, Note_on_c, 0, 76, 0
1, 332640, Tempo, 402468
1, 332640, Note_on_c, 0, 79, 71
1, 332640, Note_on_c, 0, 76, 71
1, 332640, Note_on_c, 0, 82, 86
1, 332640, Note_on_c, 0, 36, 72
1, 332760, Note_on_c, 0, 36, 0
1, 332880, Note_on_c, 0, 40, 60
1, 333000, Note_on_c, 0, 40, 0
1, 333120, Note_on_c, 0, 43, 60
1, 333240, Note_on_c, 0, 43, 0
1, 333360, Note_on_c, 0, 48, 69
1, 333480, Note_on_c, 0, 48, 0
1, 333600, Note_on_c, 0, 52, 60
1, 333720, Note_on_c, 0, 52, 0
1, 333840, Tempo, 413565
1, 333840, Note_on_c, 0, 55, 60
1, 333960, Note_on_c, 0, 55, 0
1, 334071, Tempo, 402468
1, 334080, Note_on_c, 0, 76, 0
1, 334080, Note_on_c, 0, 79, 0
1, 334080, Note_on_c, 0, 60, 69
1, 334200, Note_on_c, 0, 82, 0
1, 334200, Note_on_c, 0, 84, 63
1, 334205, Tempo, 399787
1, 334320, Tempo, 397141
1, 334320, Note_on_c, 0, 60, 0
1, 334320, Note_on_c, 0, 86, 66
1, 334332, Note_on_c, 0, 84, 0
1, 334435, Tempo, 394529
1, 334440, Note_on_c, 0, 84, 65
1, 334452, Note_on_c, 0, 86, 0
1, 334455, Tempo, 389408
1, 334551, Tempo, 391952
1, 334560, Note_on_c, 0, 82, 63
1, 334572, Note_on_c, 0, 84, 0
1, 334627, Tempo, 394529
1, 334680, Note_on_c, 0, 81, 62
1, 334692, Note_on_c, 0, 82, 0
1, 334704, Tempo, 397141
1, 334781, Tempo, 399787
1, 334800, Note_on_c, 0, 79, 62
1, 334812, Note_on_c, 0, 81, 0
1, 334920, Note_on_c, 0, 81, 64
1, 334932, Note_on_c, 0, 79, 0
1, 334954, Tempo, 397141
1, 335040, Note_on_c, 0, 82, 67
1, 335052, Note_on_c, 0, 81, 0
1, 335107, Tempo, 394529
1, 335160, Note_on_c, 0, 81, 66
1, 335172, Note_on_c, 0, 82, 0
1, 335280, Note_on_c, 0, 79, 64
1, 335292, Note_on_c, 0, 81, 0
1, 335299, Tempo, 397141
1, 335400, Note_on_c, 0, 77, 62
1, 335412, Note_on_c, 0, 79, 0
1, 335472, Tempo, 399787
1, 335511, Tempo, 397141
1, 335520, Note_on_c, 0, 76, 63
1, 335532, Note_on_c, 0, 77, 0
1, 335549, Tempo, 402468
1, 335626, Tempo, 399787
1, 335640, Note_on_c, 0, 77, 63
1, 335652, Note_on_c, 0, 76, 0
1, 335703, Tempo, 397141
1, 335760, Note_on_c, 0, 79, 64
1, 335772, Note_on_c, 0, 77, 0
1, 335779, Tempo, 394529
1, 335856, Tempo, 391952
1, 335880, Note_on_c, 0, 77, 64
1, 335892, Note_on_c, 0, 79, 0
1, 335933, Tempo, 389408
1, 336000, Note_on_c, 0, 76, 62
1, 336012, Note_on_c, 0, 77, 0
1, 336067, Tempo, 397141
1, 336120, Note_on_c, 0, 74, 60
1, 336132, Note_on_c, 0, 76, 0
1, 336240, Tempo, 399787
1, 336240, Note_on_c, 0, 72, 62
1, 336252, Note_on_c, 0, 74, 0
1, 336360, Note_on_c, 0, 73, 62
1, 336372, Note_on_c, 0, 72, 0
1, 336413, Tempo, 402468
1, 336480, Note_on_c, 0, 74, 64
1, 336492, Note_on_c, 0, 73, 0
1, 336509, Tempo, 399787
1, 336586, Tempo, 397141
1, 336600, Note_on_c, 0, 72, 63
1, 336612, Note_on_c, 0, 74, 0
1, 336663, Tempo, 394529
1, 336720, Tempo, 397141
1, 336720, Note_on_c, 0, 70, 61
1, 336732, Note_on_c, 0, 72, 0
1, 336759, Tempo, 399787
1, 336797, Tempo, 402468
1, 336840, Note_on_c, 0, 69, 60
1, 336852, Note_on_c, 0, 70, 0
1, 336855, Tempo, 405186
1, 336893, Tempo, 407941
1, 336931, Tempo, 405186
1, 336960, Note_on_c, 0, 67, 59
1, 336972, Note_on_c, 0, 69, 0
1, 337027, Tempo, 402468
1, 337080, Note_on_c, 0, 69, 61
1, 337092, Note_on_c, 0, 67, 0
1, 337123, Tempo, 399787
1, 337200, Note_on_c, 0, 70, 64
1, 337212, Note_on_c, 0, 69, 0
1, 337219, Tempo, 397141
1, 337277, Tempo, 391952
1, 337320, Note_on_c, 0, 69, 63
1, 337332, Note_on_c, 0, 70, 0
1, 337354, Tempo, 394529
1, 337431, Tempo, 397141
1, 337440, Note_on_c, 0, 67, 61
1, 337452, Note_on_c, 0, 69, 0
1, 337507, Tempo, 399787
1, 337560, Note_on_c, 0, 65, 60
1, 337572, Note_on_c, 0, 67, 0
1, 337584, Tempo, 402468
1, 337642, Tempo, 405186
1, 337661, Tempo, 405186
1, 337680, Note_on_c, 0, 64, 60
1, 337692, Note_on_c, 0, 65, 0
1, 337719, Tempo, 402468
1, 337776, Tempo, 399787
1, 337800, Note_on_c, 0, 65, 62
1, 337812, Note_on_c, 0, 64, 0
1, 337834, Tempo, 397141
1, 337891, Tempo, 394529
1, 337920, Note_on_c, 0, 67, 63
1, 337932, Note_on_c, 0, 65, 0
1, 337949, Tempo, 391952
1, 338007, Tempo, 386897
1, 338040, Note_on_c, 0, 65, 62
1, 338052, Note_on_c, 0, 67, 0
1, 338083, Tempo, 389408
1, 338141, Tempo, 391952
1, 338160, Note_on_c, 0, 64, 60
1, 338172, Note_on_c, 0, 65, 0
1, 338199, Tempo, 394529
1, 338275, Tempo, 397141
1, 338280, Note_on_c, 0, 62, 59
1, 338292, Note_on_c, 0, 64, 0
1, 338333, Tempo, 399787
1, 338391, Tempo, 402468
1, 338400, Note_on_c, 0, 62, 0
1, 338400, Note_on_c, 0, 60, 59
1, 338520, Note_on_c, 0, 61, 60
1, 338532, Note_on_c, 0, 60, 0
1, 338602, Tempo, 399787
1, 338640, Note_on_c, 0, 62, 62
1, 338652, Note_on_c, 0, 61, 0
1, 338755, Tempo, 394529
1, 338760, Note_on_c, 0, 60, 63
1, 338772, Note_on_c, 0, 62, 0
1, 338880, Note_on_c, 0, 58, 62
1, 338892, Note_on_c, 0, 60, 0
1, 338928, Tempo, 397141
1, 339000, Note_on_c, 0, 57, 60
1, 339012, Note_on_c, 0, 58, 0
1, 339082, Tempo, 399787
1, 339119, Tempo, 390295
1, 339120, Note_on_c, 0, 55, 59
1, 339132, Note_on_c, 0, 57, 0
1, 339215, Tempo, 387772
1, 339240, Note_on_c, 0, 57, 61
1, 339252, Note_on_c, 0, 55, 0
1, 339291, Tempo, 385282
1, 339360, Note_on_c, 0, 58, 62
1, 339372, Note_on_c, 0, 57, 0
1, 339387, Tempo, 382824
1, 339464, Tempo, 380397
1, 339480, Note_on_c, 0, 57, 61
1, 339492, Note_on_c, 0, 58, 0
1, 339541, Tempo, 382824
1, 339600, Note_on_c, 0, 55, 59
1, 339612, Note_on_c, 0, 57, 0
1, 339618, Tempo, 385282
1, 339695, Tempo, 387772
1, 339720, Note_on_c, 0, 53, 57
1, 339732, Note_on_c, 0, 55, 0
1, 339771, Tempo, 390295
1, 339829, Tempo, 392850
1, 339840, Note_on_c, 0, 52, 58
1, 339852, Note_on_c, 0, 53, 0
1, 339960, Note_on_c, 0, 53, 60
1, 339972, Note_on_c, 0, 52, 0
1, 340021, Tempo, 390295
1, 340080, Note_on_c, 0, 55, 62
1, 340092, Note_on_c, 0, 53, 0
1, 340175, Tempo, 385282
1, 340200, Note_on_c, 0, 53, 61
1, 340212, Note_on_c, 0, 55, 0
1, 340271, Tempo, 387772
1, 340320, Note_on_c, 0, 52, 61
1, 340332, Note_on_c, 0, 53, 0
1, 340367, Tempo, 390295
1, 340440, Note_on_c, 0, 50, 60
1, 340452, Note_on_c, 0, 52, 0
1, 340463, Tempo, 392850
1, 340539, Tempo, 395439
1, 340560, Note_on_c, 0, 48, 59
1, 340572, Note_on_c, 0, 50, 0
1, 340597, Tempo, 392850
1, 340655, Tempo, 390295
1, 340680, Note_on_c, 0, 50, 60
1, 340692, Note_on_c, 0, 48, 0
1, 340712, Tempo, 387772
1, 340751, Tempo, 385282
1, 340800, Note_on_c, 0, 48, 61
1, 340808, Tempo, 382824
1, 340812, Note_on_c, 0, 50, 0
1, 340866, Tempo, 380397
1, 340904, Tempo, 378000
1, 340920, Note_on_c, 0, 46, 61
1, 340932, Note_on_c, 0, 48, 0
1, 340962, Tempo, 380397
1, 341000, Tempo, 382824
1, 341040, Note_on_c, 0, 45, 60
1, 341052, Note_on_c, 0, 46, 0
1, 341058, Tempo, 385282
1, 341096, Tempo, 387772
1, 341154, Tempo, 390295
1, 341160, Note_on_c, 0, 43, 58
1, 341172, Note_on_c, 0, 45, 0
1, 341192, Tempo, 392850
1, 341231, Tempo, 395439
1, 341232, Tempo, 407941
1, 341280, Tempo, 385282
1, 341280, Note_on_c, 0, 43, 0
1, 341280, Control_c, 0, 91, 127
1, 341280, Text_t, "bdca426d104a26ac9dcb070447587523"
1, 341280, Note_on_c, 0, 53, 70
1, 341280, Note_on_c, 0, 45, 59
1, 341280, Note_on_c, 0, 48, 59
1, 341280, Note_on_c, 0, 41, 59
1, 341400, Note_on_c, 0, 84, 66
1, 341520, Note_on_c, 0, 83, 68
1, 341532, Note_on_c, 0, 84, 0
1, 341640, Note_on_c, 0, 84, 69
1, 341652, Note_on_c, 0, 83, 0
1, 341760, Note_on_c, 0, 41, 0
1, 341760, Note_on_c, 0, 48, 0
1, 341760, Note_on_c, 0, 53, 0
1, 341760, Note_on_c, 0, 45, 0
1, 341760, Note_on_c, 0, 89, 70
1, 341772, Note_on_c, 0, 84, 0
1, 341880, Tempo, 398063
1, 341880, Note_on_c, 0, 84, 63
1, 341892, Note_on_c, 0, 89, 0
1, 342000, Tempo, 382824
1, 342000, Note_on_c, 0, 82, 70
1, 342012, Note_on_c, 0, 84, 0
1, 342120, Note_on_c, 0, 81, 66
1, 342132, Note_on_c, 0, 82, 0
1, 342240, Note_on_c, 0, 80, 64
1, 342252, Note_on_c, 0, 81, 0
1, 342360, Note_on_c, 0, 81, 64
1, 342372, Note_on_c, 0, 80, 0
1, 342480, Note_on_c, 0, 84, 70
1, 342492, Note_on_c, 0, 81, 0
1, 342600, Tempo, 395439
1, 342600, Note_on_c, 0, 81, 64
1, 342612, Note_on_c, 0, 84, 0
1, 342720, Tempo, 380397
1, 342720, Note_on_c, 0, 79, 70
1, 342732, Note_on_c, 0, 81, 0
1, 342840, Note_on_c, 0, 77, 64
1, 342852, Note_on_c, 0, 79, 0
1, 342960, Note_on_c, 0, 76, 64
1, 342972, Note_on_c, 0, 77, 0
1, 343080, Note_on_c, 0, 77, 64
1, 343092, Note_on_c, 0, 76, 0
1, 343200, Note_on_c, 0, 81, 70
1, 343212, Note_on_c, 0, 77, 0
1, 343320, Tempo, 395439
1, 343320, Note_on_c, 0, 77, 65
1, 343332, Note_on_c, 0, 81, 0
1, 343440, Tempo, 382824
1, 343440, Note_on_c, 0, 74, 70
1, 343452, Note_on_c, 0, 77, 0
1, 343560, Note_on_c, 0, 72, 65
1, 343572, Note_on_c, 0, 74, 0
1, 343680, Note_on_c, 0, 71, 65
1, 343692, Note_on_c, 0, 72, 0
1, 343800, Note_on_c, 0, 72, 65
1, 343812, Note_on_c, 0, 71, 0
1, 343920, Note_on_c, 0, 77, 70
1, 343932, Note_on_c, 0, 72, 0
1, 344040, Tempo, 403416
1, 344040, Note_on_c, 0, 72, 65
1, 344052, Note_on_c, 0, 77, 0
1, 344160, Tempo, 380397
1, 344160, Note_on_c, 0, 70, 70
1, 344172, Note_on_c, 0, 72, 0
1, 344280, Note_on_c, 0, 69, 66
1, 344292, Note_on_c, 0, 70, 0
1, 344400, Tempo, 395439
1, 344400, Note_on_c, 0, 68, 66
1, 344412, Note_on_c, 0, 69, 0
1, 344520, Note_on_c, 0, 69, 66
1, 344532, Note_on_c, 0, 68, 0
1, 344640, Note_on_c, 0, 72, 70
1, 344652, Note_on_c, 0, 69, 0
1, 344760, Tempo, 484927
1, 344760, Note_on_c, 0, 69, 64
1, 344772, Note_on_c, 0, 72, 0
1, 344880, Tempo, 400721
1, 344880, Note_on_c, 0, 65, 70
1, 344880, Note_on_c, 0, 57, 70
1, 344892, Note_on_c, 0, 69, 0
1, 345000, Tempo, 382824
1, 345000, Note_on_c, 0, 57, 0
1, 345000, Note_on_c, 0, 65, 0
1, 345000, Note_on_c, 0, 77, 64
1, 345120, Note_on_c, 0, 77, 0
1, 345120, Note_on_c, 0, 64, 70
1, 345120, Note_on_c, 0, 55, 66
1, 345240, Note_on_c, 0, 55, 0
1, 345240, Note_on_c, 0, 64, 0
1, 345240, Note_on_c, 0, 77, 64
1, 345360, Note_on_c, 0, 77, 0
1, 345360, Note_on_c, 0, 65, 70
1, 345360, Note_on_c, 0, 57, 66
1, 345480, Tempo, 406146
1, 345480, Note_on_c, 0, 57, 0
1, 345480, Note_on_c, 0, 65, 0
1, 345480, Note_on_c, 0, 77, 64
1, 345600, Tempo, 382824
1, 345600, Note_on_c, 0, 77, 0
1, 345600, Note_on_c, 0, 67, 70
1, 345600, Note_on_c, 0, 58, 70
1, 345720, Note_on_c, 0, 58, 0
1, 345720, Note_on_c, 0, 67, 0
1, 345720, Note_on_c, 0, 77, 64
1, 345840, Note_on_c, 0, 77, 0
1, 345840, Note_on_c, 0, 65, 65
1, 345840, Note_on_c, 0, 57, 67
1, 345960, Note_on_c, 0, 57, 0
1, 345960, Note_on_c, 0, 65, 0
1, 345960, Note_on_c, 0, 77, 58
1, 346080, Note_on_c, 0, 77, 0
1, 346080, Note_on_c, 0, 67, 67
1, 346080, Note_on_c, 0, 58, 67
1, 346200, Tempo, 403416
1, 346200, Note_on_c, 0, 58, 0
1, 346200, Note_on_c, 0, 67, 0
1, 346200, Note_on_c, 0, 77, 61
1, 346320, Tempo, 380397
1, 346320, Note_on_c, 0, 77, 0
1, 346320, Note_on_c, 0, 69, 70
1, 346320, Note_on_c, 0, 60, 70
1, 346440, Note_on_c, 0, 60, 0
1, 346440, Note_on_c, 0, 69, 0
1, 346440, Note_on_c, 0, 77, 60
1, 346560, Note_on_c, 0, 77, 0
1, 346560, Note_on_c, 0, 67, 66
1, 346560, Note_on_c, 0, 58, 67
1, 346680, Note_on_c, 0, 58, 0
1, 346680, Note_on_c, 0, 67, 0
1, 346680, Note_on_c, 0, 77, 62
1, 346800, Note_on_c, 0, 77, 0
1, 346800, Note_on_c, 0, 69, 67
1, 346800, Note_on_c, 0, 60, 67
1, 346920, Tempo, 458961
1, 346920, Note_on_c, 0, 60, 0
1, 346920, Note_on_c, 0, 69, 0
1, 346920, Note_on_c, 0, 77, 62
1, 347040, Tempo, 385282
1, 347040, Note_on_c, 0, 77, 0
1, 347040, Note_on_c, 0, 70, 74
1, 347040, Note_on_c, 0, 61, 74
1, 347160, Note_on_c, 0, 70, 0
1, 347160, Note_on_c, 0, 77, 61
1, 347280, Note_on_c, 0, 77, 0
1, 347280, Note_on_c, 0, 70, 65
1, 347400, Note_on_c, 0, 70, 0
1, 347400, Note_on_c, 0, 77, 61
1, 347520, Note_on_c, 0, 77, 0
1, 347520, Note_on_c, 0, 61, 0
1, 347520, Note_on_c, 0, 69, 65
1, 347520, Note_on_c, 0, 60, 67
1, 347640, Tempo, 414565
1, 347640, Note_on_c, 0, 60, 0
1, 347640, Note_on_c, 0, 69, 0
1, 347640, Note_on_c, 0, 77, 60
1, 347760, Tempo, 382824
1, 347760, Note_on_c, 0, 77, 0
1, 347760, Note_on_c, 0, 70, 70
1, 347760, Note_on_c, 0, 61, 74
1, 347880, Note_on_c, 0, 70, 0
1, 347880, Note_on_c, 0, 77, 60
1, 348000, Note_on_c, 0, 77, 0
1, 348000, Note_on_c, 0, 70, 65
1, 348120, Note_on_c, 0, 70, 0
1, 348120, Note_on_c, 0, 77, 60
1, 348240, Note_on_c, 0, 77, 0
1, 348240, Note_on_c, 0, 61, 0
1, 348240, Note_on_c, 0, 69, 65
1, 348240, Note_on_c, 0, 60, 66
1, 348360, Tempo, 495540
1, 348360, Note_on_c, 0, 60, 0
1, 348360, Note_on_c, 0, 69, 0
1, 348360, Note_on_c, 0, 77, 54
1, 348480, Tempo, 382824
1, 348480, Note_on_c, 0, 77, 0
1, 348480, Note_on_c, 0, 68, 49
1, 348480, Note_on_c, 0, 59, 47
1, 348600, Note_on_c, 0, 59, 0
1, 348600, Note_on_c, 0, 68, 0
1, 348600, Note_on_c, 0, 77, 41
1, 348720, Note_on_c, 0, 77, 0
1, 348720, Note_on_c, 0, 68, 49
1, 348720, Note_on_c, 0, 59, 47
1, 348840, Note_on_c, 0, 59, 0
1, 348840, Note_on_c, 0, 68, 0
1, 348840, Note_on_c, 0, 77, 42
1, 348960, Note_on_c, 0, 77, 0
1, 348960, Note_on_c, 0, 68, 49
1, 348960, Note_on_c, 0, 59, 47
1, 349080, Tempo, 414565
1, 349080, Note_on_c, 0, 59, 0
1, 349080, Note_on_c, 0, 68, 0
1, 349080, Note_on_c, 0, 77, 40
1, 349200, Tempo, 420374
1, 349200, Note_on_c, 0, 77, 0
1, 349200, Note_on_c, 0, 67, 48
1, 349200, Note_on_c, 0, 76, 48
1, 349200, Note_on_c, 0, 60, 50
1, 349440, Note_on_c, 0, 60, 0
1, 349440, Note_on_c, 0, 76, 0
1, 349440, Note_on_c, 0, 67, 0
1, 349920, Tempo, 385282
1, 349920, Text_t, "bdca426d104a26ac9dcb070447587523"
1, 349920, Control_c, 0, 91, 127
1, 349920, Note_on_c, 0, 45, 59
1, 349920, Note_on_c, 0, 48, 59
1, 349920, Note_on_c, 0, 53, 70
1, 349920, Note_on_c, 0, 41, 59
1, 350040, Note_on_c, 0, 84, 66
1, 350160, Note_on_c, 0, 83, 68
1, 350172, Note_on_c, 0, 84, 0
1, 350280, Note_on_c, 0, 84, 69
1, 350292, Note_on_c, 0, 83, 0
1, 350400, Note_on_c, 0, 41, 0
1, 350400, Note_on_c, 0, 53, 0
1, 350400, Note_on_c, 0, 45, 0
1, 350400, Note_on_c, 0, 48, 0
1, 350400, Note_on_c, 0, 89, 70
1, 350412, Note_on_c, 0, 84, 0
1, 350520, Tempo, 398063
1, 350520, Note_on_c, 0, 84, 63
1, 350532, Note_on_c, 0, 89, 0
1, 350640, Tempo, 382824
1, 350640, Note_on_c, 0, 82, 70
1, 350652, Note_on_c, 0, 84, 0
1, 350760, Note_on_c, 0, 81, 66
1, 350772, Note_on_c, 0, 82, 0
1, 350880, Note_on_c, 0, 80, 64
1, 350892, Note_on_c, 0, 81, 0
1, 351000, Note_on_c, 0, 81, 64
1, 351012, Note_on_c, 0, 80, 0
1, 351120, Note_on_c, 0, 84, 70
1, 351132, Note_on_c, 0, 81, 0
1, 351240, Tempo, 395439
1, 351240, Note_on_c, 0, 81, 64
1, 351252, Note_on_c, 0, 84, 0
1, 351360, Tempo, 380397
1, 351360, Note_on_c, 0, 79, 70
1, 351372, Note_on_c, 0, 81, 0
1, 351480, Note_on_c, 0, 77, 64
1, 351492, Note_on_c, 0, 79, 0
1, 351600, Note_on_c, 0, 76, 64
1, 351612, Note_on_c, 0, 77, 0
1, 351720, Note_on_c, 0, 77, 64
1, 351732, Note_on_c, 0, 76, 0
1, 351840, Note_on_c, 0, 81, 70
1, 351852, Note_on_c, 0, 77, 0
1, 351960, Tempo, 395439
1, 351960, Note_on_c, 0, 77, 65
1, 351972, Note_on_c, 0, 81, 0
1, 352080, Tempo, 382824
1, 352080, Note_on_c, 0, 74, 70
1, 352092, Note_on_c, 0, 77, 0
1, 352200, Note_on_c, 0, 72, 65
1, 352212, Note_on_c, 0, 74, 0
1, 352320, Note_on_c, 0, 71, 65
1, 352332, Note_on_c, 0, 72, 0
1, 352440, Note_on_c, 0, 72, 65
1, 352452, Note_on_c, 0, 71, 0
1, 352560, Note_on_c, 0, 77, 70
1, 352572, Note_on_c, 0, 72, 0
1, 352680, Tempo, 403416
1, 352680, Note_on_c, 0, 72, 65
1, 352692, Note_on_c, 0, 77, 0
1, 352800, Tempo, 380397
1, 352800, Note_on_c, 0, 70, 70
1, 352812, Note_on_c, 0, 72, 0
1, 352920, Note_on_c, 0, 69, 66
1, 352932, Note_on_c, 0, 70, 0
1, 353040, Tempo, 395439
1, 353040, Note_on_c, 0, 68, 66
1, 353052, Note_on_c, 0, 69, 0
1, 353160, Note_on_c, 0, 69, 66
1, 353172, Note_on_c, 0, 68, 0
1, 353280, Note_on_c, 0, 72, 70
1, 353292, Note_on_c, 0, 69, 0
1, 353400, Tempo, 484927
1, 353400, Note_on_c, 0, 69, 64
1, 353412, Note_on_c, 0, 72, 0
1, 353520, Tempo, 398063
1, 353520, Note_on_c, 0, 65, 70
1, 353520, Note_on_c, 0, 57, 70
1, 353532, Note_on_c, 0, 69, 0
1, 353640, Tempo, 382824
1, 353640, Note_on_c, 0, 57, 0
1, 353640, Note_on_c, 0, 65, 0
1, 353640, Note_on_c, 0, 77, 64
1, 353760, Note_on_c, 0, 77, 0
1, 353760, Note_on_c, 0, 64, 70
1, 353760, Note_on_c, 0, 55, 66
1, 353880, Note_on_c, 0, 55, 0
1, 353880, Note_on_c, 0, 64, 0
1, 353880, Note_on_c, 0, 77, 64
1, 354000, Note_on_c, 0, 77, 0
1, 354000, Note_on_c, 0, 65, 70
1, 354000, Note_on_c, 0, 57, 66
1, 354120, Tempo, 406146
1, 354120, Note_on_c, 0, 57, 0
1, 354120, Note_on_c, 0, 65, 0
1, 354120, Note_on_c, 0, 77, 64
1, 354240, Tempo, 382824
1, 354240, Note_on_c, 0, 77, 0
1, 354240, Note_on_c, 0, 67, 70
1, 354240, Note_on_c, 0, 58, 70
1, 354360, Note_on_c, 0, 58, 0
1, 354360, Note_on_c, 0, 67, 0
1, 354360, Note_on_c, 0, 77, 64
1, 354480, Note_on_c, 0, 77, 0
1, 354480, Note_on_c, 0, 65, 65
1, 354480, Note_on_c, 0, 57, 67
1, 354600, Note_on_c, 0, 57, 0
1, 354600, Note_on_c, 0, 65, 0
1, 354600, Note_on_c, 0, 77, 58
1, 354720, Note_on_c, 0, 77, 0
1, 354720, Note_on_c, 0, 67, 67
1, 354720, Note_on_c, 0, 58, 67
1, 354840, Tempo, 403416
1, 354840, Note_on_c, 0, 58, 0
1, 354840, Note_on_c, 0, 67, 0
1, 354840, Note_on_c, 0, 77, 61
1, 354960, Tempo, 380397
1, 354960, Note_on_c, 0, 77, 0
1, 354960, Note_on_c, 0, 69, 70
1, 354960, Note_on_c, 0, 60, 70
1, 355080, Note_on_c, 0, 60, 0
1, 355080, Note_on_c, 0, 69, 0
1, 355080, Note_on_c, 0, 77, 60
1, 355200, Note_on_c, 0, 77, 0
1, 355200, Note_on_c, 0, 67, 66
1, 355200, Note_on_c, 0, 58, 67
1, 355320, Note_on_c, 0, 58, 0
1, 355320, Note_on_c, 0, 67, 0
1, 355320, Note_on_c, 0, 77, 62
1, 355440, Note_on_c, 0, 77, 0
1, 355440, Note_on_c, 0, 69, 67
1, 355440, Note_on_c, 0, 60, 67
1, 355560, Tempo, 458961
1, 355560, Note_on_c, 0, 60, 0
1, 355560, Note_on_c, 0, 69, 0
1, 355560, Note_on_c, 0, 77, 62
1, 355680, Tempo, 385282
1, 355680, Note_on_c, 0, 77, 0
1, 355680, Note_on_c, 0, 70, 74
1, 355680, Note_on_c, 0, 61, 74
1, 355680, Control_c, 0, 64, 127
1, 355800, Note_on_c, 0, 70, 0
1, 355800, Note_on_c, 0, 77, 61
1, 355920, Note_on_c, 0, 77, 0
1, 355920, Note_on_c, 0, 70, 65
1, 356040, Note_on_c, 0, 70, 0
1, 356040, Note_on_c, 0, 77, 61
1, 356153, Control_c, 0, 64, 0
1, 356160, Note_on_c, 0, 77, 0
1, 356160, Note_on_c, 0, 61, 0
1, 356160, Note_on_c, 0, 69, 65
1, 356160, Note_on_c, 0, 60, 67
1, 356280, Tempo, 414565
1, 356280, Note_on_c, 0, 60, 0
1, 356280, Note_on_c, 0, 69, 0
1, 356280, Note_on_c, 0, 77, 60
1, 356400, Tempo, 382824
1, 356400, Note_on_c, 0, 77, 0
1, 356400, Note_on_c, 0, 70, 70
1, 356400, Note_on_c, 0, 61, 74
1, 356457, Control_c, 0, 64, 127
1, 356520, Note_on_c, 0, 70, 0
1, 356520, Note_on_c, 0, 77, 60
1, 356640, Note_on_c, 0, 77, 0
1, 356640, Note_on_c, 0, 70, 65
1, 356760, Note_on_c, 0, 70, 0
1, 356760, Note_on_c, 0, 77, 60
1, 356880, Note_on_c, 0, 77, 0
1, 356880, Note_on_c, 0, 61, 0
1, 356880, Note_on_c, 0, 69, 65
1, 356880, Note_on_c, 0, 60, 66
1, 356887, Control_c, 0, 64, 0
1, 357000, Tempo, 411720
1, 357000, Note_on_c, 0, 60, 0
1, 357000, Note_on_c, 0, 69, 0
1, 357000, Note_on_c, 0, 77, 46
1, 357120, Tempo, 495540
1, 357120, Note_on_c, 0, 77, 0
1, 357120, Note_on_c, 0, 68, 44
1, 357120, Note_on_c, 0, 59, 36
1, 357160, Control_c, 0, 64, 127
1, 357240, Note_on_c, 0, 59, 0
1, 357240, Note_on_c, 0, 68, 0
1, 357240, Note_on_c, 0, 77, 36
1, 357292, Control_c, 0, 64, 0
1, 357360, Tempo, 407941
1, 357360, Note_on_c, 0, 77, 0
1, 357720, Tempo, 462499
1, 357840, Tempo, 464828
1, 357840, Note_on_c, 0, 67, 42
1, 357840, Note_on_c, 0, 58, 36
1, 357909, Control_c, 0, 64, 127
1, 357960, Note_on_c, 0, 58, 0
1, 357960, Note_on_c, 0, 67, 0
1, 357960, Note_on_c, 0, 76, 34
1, 358040, Control_c, 0, 64, 0
1, 358080, Tempo, 413565
1, 358080, Note_on_c, 0, 76, 0
1, 358440, Tempo, 473447
1, 358560, Tempo, 475888
1, 358560, Note_on_c, 0, 66, 43
1, 358560, Note_on_c, 0, 57, 35
1, 358560, Control_c, 0, 64, 127
1, 358680, Note_on_c, 0, 57, 0
1, 358680, Note_on_c, 0, 66, 0
1, 358680, Note_on_c, 0, 75, 36
1, 358783, Control_c, 0, 64, 0
1, 358800, Tempo, 419346
1, 358800, Note_on_c, 0, 75, 0
1, 359280, Tempo, 398063
1, 359280, Note_on_c, 0, 46, 58
1, 359280, Control_c, 0, 64, 127
1, 359400, Note_on_c, 0, 46, 0
1, 359400, Note_on_c, 0, 58, 61
1, 359520, Note_on_c, 0, 58, 0
1, 359520, Note_on_c, 0, 62, 58
1, 359640, Note_on_c, 0, 62, 0
1, 359640, Note_on_c, 0, 67, 59
1, 359760, Note_on_c, 0, 67, 0
1, 359760, Note_on_c, 0, 70, 60
1, 359880, Note_on_c, 0, 70, 0
1, 359880, Note_on_c, 0, 74, 61
1, 360000, Note_on_c, 0, 74, 0
1, 360000, Note_on_c, 0, 72, 62
1, 360000, Note_on_c, 0, 52, 45
1, 360000, Note_on_c, 0, 58, 57
1, 360000, Note_on_c, 0, 48, 45
1, 360011, Control_c, 0, 64, 0
1, 360120, Note_on_c, 0, 70, 62
1, 360132, Note_on_c, 0, 72, 0
1, 360240, Note_on_c, 0, 69, 60
1, 360252, Note_on_c, 0, 70, 0
1, 360360, Note_on_c, 0, 67, 59
1, 360372, Note_on_c, 0, 69, 0
1, 360480, Tempo, 448665
1, 360480, Note_on_c, 0, 65, 57
1, 360492, Note_on_c, 0, 67, 0
1, 360600, Note_on_c, 0, 64, 55
1, 360612, Note_on_c, 0, 65, 0
1, 360720, Tempo, 398063
1, 360720, Note_on_c, 0, 48, 0
1, 360720, Note_on_c, 0, 52, 0
1, 360720, Note_on_c, 0, 58, 0
1, 360720, Note_on_c, 0, 65, 58
1, 360720, Note_on_c, 0, 53, 40
1, 360720, Note_on_c, 0, 57, 51
1, 360732, Note_on_c, 0, 64, 0
1, 360840, Note_on_c, 0, 65, 0
1, 360960, Note_on_c, 0, 53, 0
1, 360960, Note_on_c, 0, 57, 0
1, 360960, Note_on_c, 0, 60, 49
1, 361200, Note_on_c, 0, 60, 0
1, 361200, Note_on_c, 0, 60, 49
1, 361320, Tempo, 435635
1, 361380, Note_on_c, 0, 60, 0
1, 361380, Note_on_c, 0, 64, 41
1, 361440, Tempo, 398063
1, 361440, Note_on_c, 0, 64, 0
1, 361440, Note_on_c, 0, 70, 49
1, 361440, Note_on_c, 0, 48, 41
1, 361680, Note_on_c, 0, 48, 0
1, 361680, Note_on_c, 0, 60, 31
1, 361680, Note_on_c, 0, 58, 24
1, 361800, Note_on_c, 0, 58, 0
1, 361800, Note_on_c, 0, 60, 0
1, 361920, Note_on_c, 0, 60, 31
1, 361920, Note_on_c, 0, 58, 24
1, 362040, Note_on_c, 0, 58, 0
1, 362040, Note_on_c, 0, 60, 0
1, 362160, Note_on_c, 0, 60, 31
1, 362160, Note_on_c, 0, 58, 24
1, 362280, Note_on_c, 0, 58, 0
1, 362280, Note_on_c, 0, 60, 0
1, 362400, Note_on_c, 0, 70, 0
1, 362400, Note_on_c, 0, 69, 43
1, 362400, Note_on_c, 0, 60, 31
1, 362400, Note_on_c, 0, 58, 24
1, 362520, Note_on_c, 0, 58, 0
1, 362520, Note_on_c, 0, 60, 0
1, 362520, Note_on_c, 0, 69, 0
1, 362640, Note_on_c, 0, 67, 43
1, 362640, Note_on_c, 0, 60, 31
1, 362640, Note_on_c, 0, 58, 24
1, 362760, Tempo, 432495
1, 362760, Note_on_c, 0, 58, 0
1, 362760, Note_on_c, 0, 60, 0
1, 362760, Note_on_c, 0, 67, 0
1, 362880, Tempo, 398063
1, 362880, Note_on_c, 0, 67, 49
1, 362880, Note_on_c, 0, 53, 41
1, 363120, Note_on_c, 0, 53, 0
1, 363120, Note_on_c, 0, 67, 0
1, 363120, Note_on_c, 0, 65, 45
1, 363120, Note_on_c, 0, 57, 24
1, 363120, Note_on_c, 0, 60, 31
1, 363173, Control_c, 0, 64, 127
1, 363240, Note_on_c, 0, 60, 0
1, 363240, Note_on_c, 0, 57, 0
1, 363360, Note_on_c, 0, 57, 24
1, 363360, Note_on_c, 0, 60, 31
1, 363480, Note_on_c, 0, 60, 0
1, 363480, Note_on_c, 0, 57, 0
1, 363597, Control_c, 0, 64, 0
1, 363600, Note_on_c, 0, 65, 0
1, 363600, Note_on_c, 0, 65, 45
1, 363600, Note_on_c, 0, 60, 31
1, 363600, Note_on_c, 0, 57, 24
1, 363639, Control_c, 0, 64, 127
1, 363720, Note_on_c, 0, 57, 0
1, 363720, Note_on_c, 0, 60, 0
1, 363840, Note_on_c, 0, 60, 31
1, 363840, Note_on_c, 0, 57, 24
1, 363960, Note_on_c, 0, 57, 0
1, 363960, Note_on_c, 0, 60, 0
1, 364080, Note_on_c, 0, 60, 31
1, 364080, Note_on_c, 0, 57, 24
1, 364200, Tempo, 442054
1, 364200, Note_on_c, 0, 57, 0
1, 364200, Note_on_c, 0, 60, 0
1, 364260, Note_on_c, 0, 65, 0
1, 364260, Note_on_c, 0, 64, 41
1, 364320, Tempo, 398063
1, 364320, Note_on_c, 0, 64, 0
1, 364320, Note_on_c, 0, 70, 49
1, 364320, Note_on_c, 0, 48, 41
1, 364320, Control_c, 0, 64, 0
1, 364560, Note_on_c, 0, 48, 0
1, 364560, Note_on_c, 0, 55, 24
1, 364560, Note_on_c, 0, 60, 31
1, 364680, Note_on_c, 0, 60, 0
1, 364680, Note_on_c, 0, 55, 0
1, 364800, Note_on_c, 0, 55, 24
1, 364800, Note_on_c, 0, 60, 31
1, 364920, Note_on_c, 0, 60, 0
1, 364920, Note_on_c, 0, 55, 0
1, 365040, Note_on_c, 0, 55, 24
1, 365040, Note_on_c, 0, 60, 31
1, 365160, Note_on_c, 0, 60, 0
1, 365160, Note_on_c, 0, 55, 0
1, 365280, Note_on_c, 0, 70, 0
1, 365280, Note_on_c, 0, 69, 43
1, 365280, Note_on_c, 0, 55, 24
1, 365280, Note_on_c, 0, 60, 31
1, 365400, Note_on_c, 0, 60, 0
1, 365400, Note_on_c, 0, 55, 0
1, 365400, Note_on_c, 0, 69, 0
1, 365520, Note_on_c, 0, 67, 43
1, 365520, Note_on_c, 0, 55, 24
1, 365520, Note_on_c, 0, 60, 31
1, 365640, Tempo, 469741
1, 365640, Note_on_c, 0, 60, 0
1, 365640, Note_on_c, 0, 55, 0
1, 365640, Note_on_c, 0, 67, 0
1, 365760, Tempo, 398063
1, 365760, Note_on_c, 0, 71, 51
1, 365760, Note_on_c, 0, 53, 41
1, 365810, Control_c, 0, 64, 127
1, 366000, Note_on_c, 0, 53, 0
1, 366000, Note_on_c, 0, 57, 24
1, 366000, Note_on_c, 0, 60, 31
1, 366120, Note_on_c, 0, 60, 0
1, 366120, Note_on_c, 0, 57, 0
1, 366240, Note_on_c, 0, 57, 24
1, 366240, Note_on_c, 0, 60, 31
1, 366360, Note_on_c, 0, 60, 0
1, 366360, Note_on_c, 0, 57, 0
1, 366480, Note_on_c, 0, 71, 0
1, 366480, Note_on_c, 0, 72, 45
1, 366480, Note_on_c, 0, 57, 24
1, 366480, Note_on_c, 0, 60, 31
1, 366492, Control_c, 0, 64, 0
1, 366600, Note_on_c, 0, 60, 0
1, 366600, Note_on_c, 0, 57, 0
1, 366614, Control_c, 0, 64, 127
1, 366720, Note_on_c, 0, 72, 0
1, 366720, Note_on_c, 0, 57, 24
1, 366720, Note_on_c, 0, 60, 31
1, 366840, Note_on_c, 0, 60, 0
1, 366840, Note_on_c, 0, 57, 0
1, 366960, Note_on_c, 0, 57, 24
1, 366960, Note_on_c, 0, 60, 31
1, 367080, Note_on_c, 0, 60, 0
1, 367080, Note_on_c, 0, 57, 0
1, 367140, Tempo, 435635
1, 367140, Note_on_c, 0, 64, 41
1, 367200, Tempo, 398063
1, 367200, Note_on_c, 0, 64, 0
1, 367200, Note_on_c, 0, 70, 49
1, 367200, Note_on_c, 0, 48, 41
1, 367244, Control_c, 0, 64, 0
1, 367440, Note_on_c, 0, 48, 0
1, 367440, Note_on_c, 0, 60, 31
1, 367440, Note_on_c, 0, 58, 24
1, 367560, Note_on_c, 0, 58, 0
1, 367560, Note_on_c, 0, 60, 0
1, 367680, Note_on_c, 0, 60, 31
1, 367680, Note_on_c, 0, 58, 24
1, 367800, Note_on_c, 0, 58, 0
1, 367800, Note_on_c, 0, 60, 0
1, 367920, Note_on_c, 0, 60, 31
1, 367920, Note_on_c, 0, 58, 24
1, 368040, Note_on_c, 0, 58, 0
1, 368040, Note_on_c, 0, 60, 0
1, 368160, Note_on_c, 0, 70, 0
1, 368160, Note_on_c, 0, 69, 43
1, 368160, Note_on_c, 0, 60, 31
1, 368160, Note_on_c, 0, 58, 24
1, 368280, Note_on_c, 0, 58, 0
1, 368280, Note_on_c, 0, 60, 0
1, 368280, Note_on_c, 0, 69, 0
1, 368400, Note_on_c, 0, 67, 43
1, 368400, Note_on_c, 0, 58, 24
1, 368400, Note_on_c, 0, 60, 31
1, 368520, Tempo, 432495
1, 368520, Note_on_c, 0, 60, 0
1, 368520, Note_on_c, 0, 58, 0
1, 368520, Note_on_c, 0, 67, 0
1, 368640, Tempo, 398063
1, 368640, Note_on_c, 0, 65, 54
1, 368640, Note_on_c, 0, 53, 41
1, 368718, Control_c, 0, 64, 127
1, 368880, Note_on_c, 0, 53, 0
1, 368880, Note_on_c, 0, 57, 24
1, 368880, Note_on_c, 0, 60, 31
1, 369000, Note_on_c, 0, 60, 0
1, 369000, Note_on_c, 0, 57, 0
1, 369120, Note_on_c, 0, 65, 0
1, 369120, Note_on_c, 0, 69, 60
1, 369120, Note_on_c, 0, 57, 24
1, 369120, Note_on_c, 0, 60, 31
1, 369240, Note_on_c, 0, 60, 0
1, 369240, Note_on_c, 0, 57, 0
1, 369360, Note_on_c, 0, 60, 31
1, 369360, Note_on_c, 0, 57, 24
1, 369480, Note_on_c, 0, 57, 0
1, 369480, Note_on_c, 0, 60, 0
1, 369600, Note_on_c, 0, 60, 31
1, 369600, Note_on_c, 0, 57, 24
1, 369720, Note_on_c, 0, 57, 0
1, 369720, Note_on_c, 0, 60, 0
1, 369840, Note_on_c, 0, 69, 0
1, 369840, Note_on_c, 0, 72, 60
1, 369840, Note_on_c, 0, 60, 31
1, 369840, Note_on_c, 0, 57, 24
1, 369960, Note_on_c, 0, 57, 0
1, 369960, Note_on_c, 0, 60, 0
1, 370080, Note_on_c, 0, 48, 41
1, 370320, Note_on_c, 0, 48, 0
1, 370320, Note_on_c, 0, 55, 24
1, 370320, Note_on_c, 0, 60, 31
1, 370440, Note_on_c, 0, 60, 0
1, 370440, Note_on_c, 0, 55, 0
1, 370560, Note_on_c, 0, 72, 0
1, 370560, Note_on_c, 0, 70, 58
1, 370560, Note_on_c, 0, 60, 31
1, 370560, Note_on_c, 0, 55, 24
1, 370617, Control_c, 0, 64, 0
1, 370680, Note_on_c, 0, 55, 0
1, 370680, Note_on_c, 0, 60, 0
1, 370687, Control_c, 0, 64, 127
1, 370800, Note_on_c, 0, 58, 24
1, 370800, Note_on_c, 0, 60, 31
1, 370920, Note_on_c, 0, 60, 0
1, 370920, Note_on_c, 0, 58, 0
1, 371040, Note_on_c, 0, 60, 31
1, 371040, Note_on_c, 0, 58, 24
1, 371160, Note_on_c, 0, 58, 0
1, 371160, Note_on_c, 0, 60, 0
1, 371280, Tempo, 387772
1, 371280, Note_on_c, 0, 70, 0
1, 371280, Note_on_c, 0, 67, 50
1, 371280, Note_on_c, 0, 58, 24
1, 371280, Note_on_c, 0, 60, 31
1, 371400, Note_on_c, 0, 60, 0
1, 371400, Note_on_c, 0, 58, 0
1, 371520, Tempo, 398063
1, 371520, Note_on_c, 0, 67, 0
1, 371520, Note_on_c, 0, 65, 56
1, 371520, Note_on_c, 0, 60, 41
1, 371520, Note_on_c, 0, 53, 32
1, 371520, Note_on_c, 0, 57, 32
1, 371520, Control_c, 0, 64, 0
1, 371760, Note_on_c, 0, 57, 0
1, 371760, Note_on_c, 0, 65, 0
1, 371760, Note_on_c, 0, 60, 0
1, 371760, Note_on_c, 0, 53, 0
1, 372240, Note_on_c, 0, 73, 69
1, 372240, Note_on_c, 0, 85, 82
1, 372240, Note_on_c, 0, 51, 52
1, 372240, Note_on_c, 0, 55, 52
1, 372240, Note_on_c, 0, 61, 62
1, 372960, Tempo, 397141
1, 372960, Note_on_c, 0, 61, 0
1, 372960, Note_on_c, 0, 51, 0
1, 372960, Note_on_c, 0, 73, 0
1, 372960, Note_on_c, 0, 85, 0
1, 372960, Note_on_c, 0, 55, 0
1, 372960, Note_on_c, 0, 74, 74
1, 372960, Note_on_c, 0, 86, 88
1, 372960, Note_on_c, 0, 62, 68
1, 372960, Note_on_c, 0, 54, 57
1, 372960, Note_on_c, 0, 50, 57
1, 373680, Note_on_c, 0, 50, 0
1, 373680, Note_on_c, 0, 62, 0
1, 373680, Note_on_c, 0, 74, 0
1, 373680, Note_on_c, 0, 86, 0
1, 373680, Note_on_c, 0, 54, 0
1, 373680, Note_on_c, 0, 84, 84
1, 373680, Note_on_c, 0, 74, 71
1, 374400, Note_on_c, 0, 74, 0
1, 374400, Note_on_c, 0, 84, 0
1, 374400, Note_on_c, 0, 74, 72
1, 374400, Note_on_c, 0, 82, 85
1, 374400, Note_on_c, 0, 50, 63
1, 374400, Note_on_c, 0, 62, 74
1, 375120, Note_on_c, 0, 62, 0
1, 375120, Note_on_c, 0, 74, 0
1, 375120, Note_on_c, 0, 82, 0
1, 375120, Note_on_c, 0, 50, 0
1, 375120, Note_on_c, 0, 74, 65
1, 375120, Note_on_c, 0, 81, 76
1, 375120, Note_on_c, 0, 48, 63
1, 375120, Note_on_c, 0, 60, 74
1, 375840, Note_on_c, 0, 60, 0
1, 375840, Note_on_c, 0, 74, 0
1, 375840, Note_on_c, 0, 81, 0
1, 375840, Note_on_c, 0, 48, 0
1, 375840, Note_on_c, 0, 79, 79
1, 375840, Note_on_c, 0, 74, 67
1, 375840, Note_on_c, 0, 46, 63
1, 375840, Note_on_c, 0, 58, 74
1, 376560, Tempo, 419346
1, 376560, Note_on_c, 0, 58, 0
1, 376560, Note_on_c, 0, 79, 0
1, 376560, Note_on_c, 0, 74, 0
1, 376560, Note_on_c, 0, 46, 0
1, 376560, Note_on_c, 0, 72, 65
1, 376560, Note_on_c, 0, 78, 76
1, 376560, Note_on_c, 0, 74, 65
1, 376560, Note_on_c, 0, 45, 63
1, 376560, Note_on_c, 0, 57, 74
1, 377280, Tempo, 397141
1, 377280, Note_on_c, 0, 57, 0
1, 377280, Note_on_c, 0, 74, 0
1, 377280, Note_on_c, 0, 72, 0
1, 377280, Note_on_c, 0, 78, 0
1, 377280, Note_on_c, 0, 45, 0
1, 377280, Note_on_c, 0, 79, 65
1, 377280, Note_on_c, 0, 55, 59
1, 377323, Control_c, 0, 64, 127
1, 377400, Note_on_c, 0, 79, 0
1, 377400, Note_on_c, 0, 74, 54
1, 377520, Tempo, 386897
1, 377520, Note_on_c, 0, 74, 0
1, 377520, Note_on_c, 0, 55, 0
1, 377520, Note_on_c, 0, 70, 54
1, 377520, Note_on_c, 0, 58, 54
1, 377640, Note_on_c, 0, 70, 0
1, 377640, Note_on_c, 0, 74, 54
1, 377760, Tempo, 410734
1, 377760, Note_on_c, 0, 74, 0
1, 377760, Note_on_c, 0, 58, 0
1, 377760, Note_on_c, 0, 79, 65
1, 377760, Note_on_c, 0, 62, 54
1, 377880, Note_on_c, 0, 79, 0
1, 377880, Note_on_c, 0, 74, 54
1, 378000, Tempo, 394529
1, 378000, Note_on_c, 0, 74, 0
1, 378000, Note_on_c, 0, 62, 0
1, 378000, Note_on_c, 0, 81, 65
1, 378000, Note_on_c, 0, 54, 59
1, 378011, Control_c, 0, 64, 0
1, 378106, Control_c, 0, 64, 127
1, 378120, Note_on_c, 0, 81, 0
1, 378120, Note_on_c, 0, 74, 54
1, 378240, Tempo, 384418
1, 378240, Note_on_c, 0, 74, 0
1, 378240, Note_on_c, 0, 54, 0
1, 378240, Note_on_c, 0, 72, 54
1, 378240, Note_on_c, 0, 57, 54
1, 378360, Note_on_c, 0, 72, 0
1, 378360, Note_on_c, 0, 74, 54
1, 378480, Tempo, 402468
1, 378480, Note_on_c, 0, 74, 0
1, 378480, Note_on_c, 0, 57, 0
1, 378480, Note_on_c, 0, 81, 65
1, 378480, Note_on_c, 0, 62, 54
1, 378600, Note_on_c, 0, 81, 0
1, 378600, Note_on_c, 0, 74, 55
1, 378720, Tempo, 391952
1, 378720, Note_on_c, 0, 74, 0
1, 378720, Note_on_c, 0, 62, 0
1, 378720, Note_on_c, 0, 82, 65
1, 378720, Note_on_c, 0, 55, 59
1, 378732, Control_c, 0, 64, 0
1, 378783, Control_c, 0, 64, 127
1, 378840, Note_on_c, 0, 82, 0
1, 378840, Note_on_c, 0, 79, 55
1, 378960, Note_on_c, 0, 79, 0
1, 378960, Note_on_c, 0, 55, 0
1, 378960, Note_on_c, 0, 74, 55
1, 378960, Note_on_c, 0, 58, 54
1, 379080, Note_on_c, 0, 74, 0
1, 379080, Note_on_c, 0, 79, 55
1, 379200, Tempo, 402468
1, 379200, Note_on_c, 0, 79, 0
1, 379200, Note_on_c, 0, 58, 0
1, 379200, Note_on_c, 0, 82, 65
1, 379200, Note_on_c, 0, 62, 54
1, 379320, Note_on_c, 0, 82, 0
1, 379320, Note_on_c, 0, 79, 55
1, 379440, Tempo, 391952
1, 379440, Note_on_c, 0, 79, 0
1, 379440, Note_on_c, 0, 62, 0
1, 379440, Note_on_c, 0, 83, 65
1, 379440, Note_on_c, 0, 53, 59
1, 379451, Control_c, 0, 64, 0
1, 379520, Control_c, 0, 64, 127
1, 379560, Note_on_c, 0, 83, 0
1, 379560, Note_on_c, 0, 79, 55
1, 379680, Tempo, 384418
1, 379680, Note_on_c, 0, 79, 0
1, 379680, Note_on_c, 0, 53, 0
1, 379680, Note_on_c, 0, 74, 55
1, 379680, Note_on_c, 0, 59, 53
1, 379800, Note_on_c, 0, 74, 0
1, 379800, Note_on_c, 0, 79, 55
1, 379920, Tempo, 402468
1, 379920, Note_on_c, 0, 79, 0
1, 379920, Note_on_c, 0, 59, 0
1, 379920, Note_on_c, 0, 83, 65
1, 379920, Note_on_c, 0, 62, 53
1, 380040, Note_on_c, 0, 83, 0
1, 380040, Note_on_c, 0, 79, 56
1, 380160, Tempo, 394529
1, 380160, Note_on_c, 0, 79, 0
1, 380160, Note_on_c, 0, 62, 0
1, 380160, Note_on_c, 0, 84, 65
1, 380160, Note_on_c, 0, 52, 58
1, 380171, Control_c, 0, 64, 0
1, 380640, Tempo, 389408
1, 380640, Note_on_c, 0, 52, 0
1, 380640, Note_on_c, 0, 84, 0
1, 380640, Note_on_c, 0, 86, 59
1, 380760, Note_on_c, 0, 86, 0
1, 380760, Note_on_c, 0, 84, 59
1, 380880, Tempo, 397141
1, 380880, Note_on_c, 0, 84, 0
1, 380880, Note_on_c, 0, 82, 65
1, 381360, Tempo, 391952
1, 381360, Note_on_c, 0, 82, 0
1, 381360, Note_on_c, 0, 84, 57
1, 381480, Note_on_c, 0, 84, 0
1, 381480, Note_on_c, 0, 82, 57
1, 381600, Tempo, 399787
1, 381600, Note_on_c, 0, 82, 0
1, 381600, Note_on_c, 0, 81, 65
1, 381600, Note_on_c, 0, 72, 54
1, 382080, Tempo, 394529
1, 382080, Note_on_c, 0, 81, 0
1, 382080, Note_on_c, 0, 82, 57
1, 382200, Note_on_c, 0, 82, 0
1, 382200, Note_on_c, 0, 81, 57
1, 382320, Tempo, 399787
1, 382320, Note_on_c, 0, 81, 0
1, 382320, Note_on_c, 0, 72, 0
1, 382320, Note_on_c, 0, 79, 65
1, 382320, Note_on_c, 0, 70, 44
1, 382320, Note_on_c, 0, 72, 52
1, 382800, Tempo, 391952
1, 382800, Note_on_c, 0, 79, 0
1, 382800, Note_on_c, 0, 81, 59
1, 382920, Note_on_c, 0, 81, 0
1, 382920, Note_on_c, 0, 79, 59
1, 383040, Tempo, 399787
1, 383040, Note_on_c, 0, 79, 0
1, 383040, Note_on_c, 0, 72, 0
1, 383040, Note_on_c, 0, 70, 0
1, 383040, Note_on_c, 0, 77, 65
1, 383040, Note_on_c, 0, 72, 47
1, 383040, Note_on_c, 0, 69, 40
1, 383520, Tempo, 391952
1, 383520, Note_on_c, 0, 77, 0
1, 383520, Note_on_c, 0, 79, 59
1, 383640, Note_on_c, 0, 79, 0
1, 383640, Note_on_c, 0, 77, 59
1, 383760, Tempo, 399787
1, 383760, Note_on_c, 0, 77, 0
1, 383760, Note_on_c, 0, 69, 0
1, 383760, Note_on_c, 0, 72, 0
1, 383760, Note_on_c, 0, 76, 65
1, 383760, Note_on_c, 0, 70, 39
1, 383760, Note_on_c, 0, 72, 46
1, 383760, Note_on_c, 0, 67, 39
1, 384000, Tempo, 399787
1, 384240, Tempo, 405186
1, 384240, Note_on_c, 0, 76, 0
1, 384240, Note_on_c, 0, 77, 56
1, 384360, Note_on_c, 0, 77, 0
1, 384360, Note_on_c, 0, 76, 56
1, 384480, Tempo, 399787
1, 384480, Note_on_c, 0, 76, 0
1, 384480, Note_on_c, 0, 70, 0
1, 384480, Note_on_c, 0, 72, 0
1, 384480, Note_on_c, 0, 67, 0
1, 384480, Note_on_c, 0, 79, 62
1, 384480, Note_on_c, 0, 65, 44
1, 384600, Note_on_c, 0, 65, 0
1, 384600, Note_on_c, 0, 77, 54
1, 384612, Note_on_c, 0, 79, 0
1, 384720, Note_on_c, 0, 76, 54
1, 384720, Note_on_c, 0, 69, 37
1, 384732, Note_on_c, 0, 77, 0
1, 384840, Note_on_c, 0, 69, 0
1, 384840, Note_on_c, 0, 77, 54
1, 384852, Note_on_c, 0, 76, 0
1, 384960, Note_on_c, 0, 76, 53
1, 384960, Note_on_c, 0, 72, 37
1, 384972, Note_on_c, 0, 77, 0
1, 385080, Tempo, 410734
1, 385080, Note_on_c, 0, 72, 0
1, 385080, Note_on_c, 0, 77, 55
1, 385092, Note_on_c, 0, 76, 0
1, 385200, Tempo, 397141
1, 385200, Note_on_c, 0, 81, 59
1, 385200, Note_on_c, 0, 64, 43
1, 385212, Note_on_c, 0, 77, 0
1, 385320, Note_on_c, 0, 64, 0
1, 385320, Note_on_c, 0, 79, 55
1, 385332, Note_on_c, 0, 81, 0
1, 385440, Note_on_c, 0, 78, 55
1, 385440, Note_on_c, 0, 67, 37
1, 385452, Note_on_c, 0, 79, 0
1, 385560, Note_on_c, 0, 67, 0
1, 385560, Note_on_c, 0, 79, 55
1, 385572, Note_on_c, 0, 78, 0
1, 385680, Note_on_c, 0, 78, 55
1, 385680, Note_on_c, 0, 72, 37
1, 385692, Note_on_c, 0, 79, 0
1, 385800, Tempo, 413565
1, 385800, Note_on_c, 0, 72, 0
1, 385800, Note_on_c, 0, 79, 55
1, 385812, Note_on_c, 0, 78, 0
1, 385920, Tempo, 397141
1, 385920, Note_on_c, 0, 81, 59
1, 385920, Note_on_c, 0, 69, 46
1, 385920, Note_on_c, 0, 72, 46
1, 385920, Note_on_c, 0, 65, 46
1, 385932, Note_on_c, 0, 79, 0
1, 386040, Note_on_c, 0, 79, 54
1, 386052, Note_on_c, 0, 81, 0
1, 386160, Note_on_c, 0, 65, 0
1, 386160, Note_on_c, 0, 72, 0
1, 386160, Note_on_c, 0, 69, 0
1, 386160, Note_on_c, 0, 77, 54
1, 386172, Note_on_c, 0, 79, 0
1, 386280, Note_on_c, 0, 79, 54
1, 386292, Note_on_c, 0, 77, 0
1, 386400, Note_on_c, 0, 81, 54
1, 386412, Note_on_c, 0, 79, 0
1, 386520, Note_on_c, 0, 82, 54
1, 386532, Note_on_c, 0, 81, 0
1, 386640, Note_on_c, 0, 84, 59
1, 386652, Note_on_c, 0, 82, 0
1, 386760, Note_on_c, 0, 82, 55
1, 386772, Note_on_c, 0, 84, 0
1, 386880, Note_on_c, 0, 81, 55
1, 386892, Note_on_c, 0, 82, 0
1, 387000, Note_on_c, 0, 82, 55
1, 387012, Note_on_c, 0, 81, 0
1, 387120, Note_on_c, 0, 84, 55
1, 387132, Note_on_c, 0, 82, 0
1, 387240, Tempo, 413565
1, 387240, Note_on_c, 0, 85, 55
1, 387252, Note_on_c, 0, 84, 0
1, 387360, Tempo, 397141
1, 387360, Note_on_c, 0, 86, 59
1, 387360, Note_on_c, 0, 46, 49
1, 387372, Note_on_c, 0, 85, 0
1, 387480, Note_on_c, 0, 46, 0
1, 387480, Note_on_c, 0, 86, 0
1, 387480, Note_on_c, 0, 74, 55
1, 387600, Note_on_c, 0, 86, 55
1, 387600, Note_on_c, 0, 58, 40
1, 387612, Note_on_c, 0, 74, 0
1, 387720, Note_on_c, 0, 58, 0
1, 387720, Note_on_c, 0, 84, 55
1, 387732, Note_on_c, 0, 86, 0
1, 387840, Note_on_c, 0, 82, 55
1, 387852, Note_on_c, 0, 84, 0
1, 387960, Note_on_c, 0, 81, 54
1, 387972, Note_on_c, 0, 82, 0
1, 388080, Tempo, 419346
1, 388080, Note_on_c, 0, 79, 59
1, 388080, Note_on_c, 0, 52, 48
1, 388092, Note_on_c, 0, 81, 0
1, 388200, Tempo, 397141
1, 388200, Note_on_c, 0, 52, 0
1, 388200, Note_on_c, 0, 79, 0
1, 388200, Note_on_c, 0, 78, 54
1, 388320, Note_on_c, 0, 79, 63
1, 388320, Note_on_c, 0, 64, 43
1, 388332, Note_on_c, 0, 78, 0
1, 388440, Note_on_c, 0, 64, 0
1, 388440, Note_on_c, 0, 81, 62
1, 388452, Note_on_c, 0, 79, 0
1, 388560, Note_on_c, 0, 82, 60
1, 388572, Note_on_c, 0, 81, 0
1, 388680, Tempo, 407941
1, 388680, Note_on_c, 0, 83, 59
1, 388692, Note_on_c, 0, 82, 0
1, 388800, Tempo, 397141
1, 388800, Note_on_c, 0, 84, 59
1, 388800, Note_on_c, 0, 45, 50
1, 388812, Note_on_c, 0, 83, 0
1, 388920, Note_on_c, 0, 45, 0
1, 388920, Note_on_c, 0, 84, 0
1, 388920, Note_on_c, 0, 72, 60
1, 389040, Note_on_c, 0, 72, 0
1, 389040, Note_on_c, 0, 84, 60
1, 389040, Note_on_c, 0, 57, 43
1, 389160, Note_on_c, 0, 57, 0
1, 389160, Note_on_c, 0, 84, 0
1, 389160, Note_on_c, 0, 82, 60
1, 389280, Note_on_c, 0, 82, 0
1, 389280, Note_on_c, 0, 81, 60
1, 389400, Note_on_c, 0, 81, 0
1, 389400, Note_on_c, 0, 79, 59
1, 389520, Tempo, 419346
1, 389520, Note_on_c, 0, 79, 0
1, 389520, Note_on_c, 0, 77, 59
1, 389520, Note_on_c, 0, 50, 47
1, 389640, Tempo, 397141
1, 389640, Note_on_c, 0, 50, 0
1, 389640, Note_on_c, 0, 77, 0
1, 389640, Note_on_c, 0, 76, 56
1, 389760, Note_on_c, 0, 77, 63
1, 389760, Note_on_c, 0, 62, 40
1, 389772, Note_on_c, 0, 76, 0
1, 389880, Note_on_c, 0, 62, 0
1, 389880, Note_on_c, 0, 79, 62
1, 389892, Note_on_c, 0, 77, 0
1, 390000, Note_on_c, 0, 80, 60
1, 390012, Note_on_c, 0, 79, 0
1, 390120, Note_on_c, 0, 81, 59
1, 390132, Note_on_c, 0, 80, 0
1, 390240, Tempo, 397141
1, 390240, Note_on_c, 0, 81, 0
1, 390240, Note_on_c, 0, 82, 59
1, 390240, Note_on_c, 0, 43, 45
1, 390360, Note_on_c, 0, 43, 0
1, 390360, Note_on_c, 0, 82, 0
1, 390360, Note_on_c, 0, 84, 60
1, 390480, Note_on_c, 0, 84, 0
1, 390480, Note_on_c, 0, 82, 60
1, 390480, Note_on_c, 0, 45, 47
1, 390600, Note_on_c, 0, 45, 0
1, 390600, Note_on_c, 0, 82, 0
1, 390600, Note_on_c, 0, 81, 60
1, 390720, Note_on_c, 0, 81, 0
1, 390720, Note_on_c, 0, 79, 60
1, 390720, Note_on_c, 0, 46, 49
1, 390840, Note_on_c, 0, 46, 0
1, 390840, Note_on_c, 0, 79, 0
1, 390840, Note_on_c, 0, 77, 59
1, 390960, Tempo, 419346
1, 390960, Note_on_c, 0, 77, 0
1, 390960, Note_on_c, 0, 76, 59
1, 390960, Note_on_c, 0, 48, 51
1, 391080, Tempo, 397141
1, 391080, Note_on_c, 0, 48, 0
1, 391080, Note_on_c, 0, 76, 0
1, 391080, Note_on_c, 0, 77, 56
1, 391200, Note_on_c, 0, 76, 63
1, 391200, Note_on_c, 0, 50, 53
1, 391212, Note_on_c, 0, 77, 0
1, 391320, Note_on_c, 0, 50, 0
1, 391320, Note_on_c, 0, 74, 62
1, 391332, Note_on_c, 0, 76, 0
1, 391440, Note_on_c, 0, 72, 60
1, 391440, Note_on_c, 0, 52, 55
1, 391452, Note_on_c, 0, 74, 0
1, 391560, Note_on_c, 0, 52, 0
1, 391560, Note_on_c, 0, 70, 59
1, 391572, Note_on_c, 0, 72, 0
1, 391680, Note_on_c, 0, 69, 56
1, 391680, Note_on_c, 0, 53, 57
1, 391692, Note_on_c, 0, 70, 0
1, 391800, Tempo, 394529
1, 391800, Note_on_c, 0, 53, 0
1, 391800, Note_on_c, 0, 69, 0
1, 391800, Note_on_c, 0, 72, 61
1, 391920, Note_on_c, 0, 72, 0
1, 391920, Note_on_c, 0, 77, 68
1, 392040, Note_on_c, 0, 77, 0
1, 392040, Note_on_c, 0, 79, 62
1, 392160, Note_on_c, 0, 79, 0
1, 392160, Note_on_c, 0, 77, 63
1, 392160, Note_on_c, 0, 45, 49
1, 392280, Note_on_c, 0, 45, 0
1, 392280, Note_on_c, 0, 77, 0
1, 392280, Note_on_c, 0, 76, 63
1, 392400, Tempo, 419346
1, 392400, Note_on_c, 0, 76, 0
1, 392400, Note_on_c, 0, 74, 60
1, 392400, Note_on_c, 0, 46, 59
1, 392520, Tempo, 394529
1, 392520, Note_on_c, 0, 46, 0
1, 392520, Note_on_c, 0, 74, 0
1, 392520, Note_on_c, 0, 72, 53
1, 392640, Note_on_c, 0, 70, 59
1, 392652, Note_on_c, 0, 72, 0
1, 392760, Note_on_c, 0, 69, 54
1, 392772, Note_on_c, 0, 70, 0
1, 392880, Note_on_c, 0, 67, 54
1, 392880, Note_on_c, 0, 47, 50
1, 392892, Note_on_c, 0, 69, 0
1, 393000, Tempo, 397141
1, 393000, Note_on_c, 0, 47, 0
1, 393000, Note_on_c, 0, 65, 54
1, 393012, Note_on_c, 0, 67, 0
1, 393120, Tempo, 394529
1, 393120, Note_on_c, 0, 64, 59
1, 393120, Note_on_c, 0, 48, 56
1, 393132, Note_on_c, 0, 65, 0
1, 393240, Note_on_c, 0, 48, 0
1, 393240, Note_on_c, 0, 64, 0
1, 393240, Note_on_c, 0, 65, 58
1, 393360, Note_on_c, 0, 67, 62
1, 393372, Note_on_c, 0, 65, 0
1, 393480, Note_on_c, 0, 65, 61
1, 393492, Note_on_c, 0, 67, 0
1, 393600, Note_on_c, 0, 64, 60
1, 393612, Note_on_c, 0, 65, 0
1, 393720, Note_on_c, 0, 62, 59
1, 393732, Note_on_c, 0, 64, 0
1, 393840, Note_on_c, 0, 60, 57
1, 393848, Tempo, 391952
1, 393852, Note_on_c, 0, 62, 0
1, 393923, Tempo, 394529
1, 393960, Note_on_c, 0, 62, 57
1, 393972, Note_on_c, 0, 60, 0
1, 393983, Tempo, 397141
1, 394043, Tempo, 399787
1, 394080, Note_on_c, 0, 60, 56
1, 394092, Note_on_c, 0, 62, 0
1, 394103, Tempo, 402468
1, 394178, Tempo, 405186
1, 394200, Note_on_c, 0, 58, 55
1, 394212, Note_on_c, 0, 60, 0
1, 394238, Tempo, 407941
1, 394298, Tempo, 410734
1, 394320, Note_on_c, 0, 57, 52
1, 394332, Note_on_c, 0, 58, 0
1, 394358, Tempo, 413565
1, 394418, Tempo, 416435
1, 394440, Tempo, 570994
1, 394440, Note_on_c, 0, 55, 51
1, 394452, Note_on_c, 0, 57, 0
1, 394560, Tempo, 398063
1, 394560, Note_on_c, 0, 55, 0
1, 394560, Note_on_c, 0, 68, 49
1, 394560, Note_on_c, 0, 53, 41
1, 394737, Control_c, 0, 64, 127
1, 394800, Note_on_c, 0, 53, 0
1, 394800, Note_on_c, 0, 56, 31
1, 395040, Note_on_c, 0, 56, 0
1, 395040, Note_on_c, 0, 60, 31
1, 395280, Note_on_c, 0, 60, 0
1, 395280, Note_on_c, 0, 53, 37
1, 395485, Control_c, 0, 64, 0
1, 395520, Tempo, 394529
1, 395520, Note_on_c, 0, 53, 0
1, 395520, Note_on_c, 0, 68, 0
1, 395520, Note_on_c, 0, 67, 43
1, 395520, Note_on_c, 0, 56, 31
1, 395640, Note_on_c, 0, 67, 0
1, 395760, Note_on_c, 0, 56, 0
1, 395760, Note_on_c, 0, 65, 43
1, 395760, Note_on_c, 0, 60, 31
1, 395880, Tempo, 432495
1, 395880, Note_on_c, 0, 65, 0
1, 396000, Tempo, 398063
1, 396000, Note_on_c, 0, 60, 0
1, 396000, Note_on_c, 0, 71, 49
1, 396000, Note_on_c, 0, 52, 41
1, 396025, Control_c, 0, 64, 127
1, 396240, Note_on_c, 0, 52, 0
1, 396240, Note_on_c, 0, 55, 31
1, 396480, Note_on_c, 0, 55, 0
1, 396480, Note_on_c, 0, 71, 0
1, 396480, Note_on_c, 0, 72, 43
1, 396480, Note_on_c, 0, 60, 31
1, 396720, Note_on_c, 0, 60, 0
1, 396720, Note_on_c, 0, 72, 0
1, 396720, Note_on_c, 0, 67, 43
1, 396720, Note_on_c, 0, 52, 36
1, 396734, Control_c, 0, 64, 0
1, 396854, Control_c, 0, 64, 127
1, 396960, Note_on_c, 0, 52, 0
1, 396960, Note_on_c, 0, 55, 31
1, 397200, Note_on_c, 0, 55, 0
1, 397200, Note_on_c, 0, 67, 0
1, 397200, Note_on_c, 0, 60, 31
1, 397320, Tempo, 442054
1, 397440, Tempo, 398063
1, 397440, Note_on_c, 0, 60, 0
1, 397440, Note_on_c, 0, 73, 58
1, 397440, Note_on_c, 0, 52, 41
1, 397451, Control_c, 0, 64, 0
1, 397581, Control_c, 0, 64, 127
1, 397680, Note_on_c, 0, 52, 0
1, 397680, Note_on_c, 0, 55, 31
1, 397920, Note_on_c, 0, 55, 0
1, 397920, Note_on_c, 0, 58, 31
1, 398160, Note_on_c, 0, 58, 0
1, 398160, Note_on_c, 0, 52, 37
1, 398365, Control_c, 0, 64, 0
1, 398400, Tempo, 394529
1, 398400, Note_on_c, 0, 52, 0
1, 398400, Note_on_c, 0, 73, 0
1, 398400, Note_on_c, 0, 72, 49
1, 398400, Note_on_c, 0, 55, 31
1, 398520, Note_on_c, 0, 72, 0
1, 398640, Note_on_c, 0, 55, 0
1, 398640, Note_on_c, 0, 70, 49
1, 398640, Note_on_c, 0, 60, 31
1, 398760, Tempo, 432495
1, 398760, Note_on_c, 0, 70, 0
1, 398880, Tempo, 398063
1, 398880, Note_on_c, 0, 60, 0
1, 398880, Note_on_c, 0, 68, 60
1, 398880, Note_on_c, 0, 53, 41
1, 398923, Control_c, 0, 64, 127
1, 399120, Tempo, 407941
1, 399120, Note_on_c, 0, 53, 0
1, 399120, Note_on_c, 0, 68, 0
1, 399120, Note_on_c, 0, 70, 42
1, 399120, Note_on_c, 0, 56, 31
1, 399200, Note_on_c, 0, 70, 0
1, 399200, Note_on_c, 0, 68, 42
1, 399280, Note_on_c, 0, 68, 0
1, 399280, Note_on_c, 0, 67, 42
1, 399360, Tempo, 410734
1, 399360, Note_on_c, 0, 67, 0
1, 399360, Note_on_c, 0, 56, 0
1, 399360, Note_on_c, 0, 68, 51
1, 399360, Note_on_c, 0, 60, 31
1, 399480, Tempo, 464828
1, 399480, Note_on_c, 0, 68, 0
1, 399480, Note_on_c, 0, 70, 44
1, 399600, Tempo, 397141
1, 399600, Note_on_c, 0, 70, 0
1, 399600, Note_on_c, 0, 60, 0
1, 399600, Note_on_c, 0, 72, 51
1, 399600, Note_on_c, 0, 53, 36
1, 399614, Control_c, 0, 64, 0
1, 399734, Control_c, 0, 64, 127
1, 399840, Note_on_c, 0, 53, 0
1, 399840, Note_on_c, 0, 56, 31
1, 400080, Note_on_c, 0, 56, 0
1, 400080, Note_on_c, 0, 72, 0
1, 400080, Note_on_c, 0, 60, 31
1, 400200, Tempo, 442054
1, 400320, Tempo, 402468
1, 400320, Note_on_c, 0, 60, 0
1, 400320, Note_on_c, 0, 77, 66
1, 400320, Note_on_c, 0, 56, 47
1, 400320, Control_c, 0, 64, 0
1, 400503, Control_c, 0, 64, 127
1, 400560, Note_on_c, 0, 56, 0
1, 400560, Note_on_c, 0, 60, 36
1, 400800, Note_on_c, 0, 60, 0
1, 400800, Note_on_c, 0, 65, 36
1, 401040, Tempo, 397377
1, 401040, Note_on_c, 0, 65, 0
1, 401040, Note_on_c, 0, 77, 0
1, 401040, Note_on_c, 0, 75, 54
1, 401040, Note_on_c, 0, 55, 44
1, 401051, Control_c, 0, 64, 0
1, 401212, Control_c, 0, 64, 127
1, 401280, Tempo, 397377
1, 401280, Note_on_c, 0, 55, 0
1, 401280, Note_on_c, 0, 58, 32
1, 401520, Tempo, 402712
1, 401520, Note_on_c, 0, 58, 0
1, 401520, Note_on_c, 0, 75, 0
1, 401520, Note_on_c, 0, 77, 50
1, 401520, Note_on_c, 0, 63, 33
1, 401760, Tempo, 400027
1, 401760, Note_on_c, 0, 63, 0
1, 401760, Note_on_c, 0, 77, 0
1, 401760, Note_on_c, 0, 75, 57
1, 401760, Note_on_c, 0, 53, 48
1, 401766, Control_c, 0, 64, 0
1, 401852, Control_c, 0, 64, 127
1, 402000, Note_on_c, 0, 53, 0
1, 402000, Note_on_c, 0, 56, 36
1, 402240, Note_on_c, 0, 56, 0
1, 402240, Note_on_c, 0, 75, 0
1, 402240, Note_on_c, 0, 73, 52
1, 402240, Note_on_c, 0, 61, 36
1, 402480, Note_on_c, 0, 61, 0
1, 402480, Note_on_c, 0, 73, 0
1, 402480, Note_on_c, 0, 72, 55
1, 402480, Note_on_c, 0, 51, 45
1, 402485, Control_c, 0, 64, 0
1, 402652, Control_c, 0, 64, 127
1, 402720, Note_on_c, 0, 51, 0
1, 402720, Note_on_c, 0, 55, 31
1, 402960, Tempo, 413822
1, 402960, Note_on_c, 0, 55, 0
1, 402960, Note_on_c, 0, 60, 31
1, 403200, Tempo, 397377
1, 403200, Note_on_c, 0, 60, 0
1, 403200, Note_on_c, 0, 72, 0
1, 403200, Note_on_c, 0, 70, 59
1, 403200, Note_on_c, 0, 49, 46
1, 403200, Control_c, 0, 64, 0
1, 403337, Control_c, 0, 64, 127
1, 403440, Note_on_c, 0, 49, 0
1, 403440, Note_on_c, 0, 53, 35
1, 403680, Note_on_c, 0, 53, 0
1, 403680, Note_on_c, 0, 70, 0
1, 403680, Note_on_c, 0, 68, 53
1, 403680, Note_on_c, 0, 58, 35
1, 403920, Note_on_c, 0, 58, 0
1, 403920, Note_on_c, 0, 68, 0
1, 403920, Note_on_c, 0, 67, 57
1, 403920, Note_on_c, 0, 49, 43
1, 403931, Control_c, 0, 64, 0
1, 404023, Control_c, 0, 64, 127
1, 404160, Note_on_c, 0, 49, 0
1, 404160, Note_on_c, 0, 53, 36
1, 404400, Tempo, 422565
1, 404400, Note_on_c, 0, 53, 0
1, 404400, Note_on_c, 0, 67, 0
1, 404400, Note_on_c, 0, 65, 47
1, 404400, Note_on_c, 0, 59, 34
1, 404640, Tempo, 397377
1, 404640, Note_on_c, 0, 59, 0
1, 404640, Note_on_c, 0, 65, 0
1, 404640, Note_on_c, 0, 68, 53
1, 404640, Note_on_c, 0, 48, 43
1, 404645, Control_c, 0, 64, 0
1, 404743, Control_c, 0, 64, 127
1, 404880, Note_on_c, 0, 48, 0
1, 404880, Note_on_c, 0, 53, 29
1, 405120, Note_on_c, 0, 53, 0
1, 405120, Note_on_c, 0, 60, 30
1, 405360, Note_on_c, 0, 60, 0
1, 405360, Note_on_c, 0, 68, 0
1, 405360, Note_on_c, 0, 67, 45
1, 405360, Note_on_c, 0, 48, 39
1, 405395, Control_c, 0, 64, 0
1, 405532, Control_c, 0, 64, 127
1, 405600, Note_on_c, 0, 48, 0
1, 405600, Note_on_c, 0, 67, 0
1, 405600, Note_on_c, 0, 52, 27
1, 405840, Tempo, 425562
1, 405840, Note_on_c, 0, 52, 0
1, 405840, Note_on_c, 0, 60, 27
1, 406080, Tempo, 397377
1, 406080, Note_on_c, 0, 60, 0
1, 406080, Note_on_c, 0, 80, 49
1, 406080, Note_on_c, 0, 68, 41
1, 406080, Note_on_c, 0, 53, 41
1, 406080, Control_c, 0, 64, 0
1, 406180, Control_c, 0, 64, 127
1, 406320, Note_on_c, 0, 53, 0
1, 406320, Note_on_c, 0, 56, 31
1, 406560, Note_on_c, 0, 56, 0
1, 406560, Note_on_c, 0, 60, 31
1, 406800, Note_on_c, 0, 60, 0
1, 406800, Note_on_c, 0, 53, 37
1, 407005, Control_c, 0, 64, 0
1, 407040, Tempo, 394529
1, 407040, Note_on_c, 0, 53, 0
1, 407040, Note_on_c, 0, 68, 0
1, 407040, Note_on_c, 0, 80, 0
1, 407040, Note_on_c, 0, 67, 36
1, 407040, Note_on_c, 0, 79, 43
1, 407040, Note_on_c, 0, 56, 31
1, 407160, Note_on_c, 0, 79, 0
1, 407160, Note_on_c, 0, 67, 0
1, 407280, Note_on_c, 0, 56, 0
1, 407280, Note_on_c, 0, 77, 43
1, 407280, Note_on_c, 0, 65, 36
1, 407280, Note_on_c, 0, 60, 31
1, 407400, Tempo, 432495
1, 407400, Note_on_c, 0, 65, 0
1, 407400, Note_on_c, 0, 77, 0
1, 407520, Tempo, 398063
1, 407520, Note_on_c, 0, 60, 0
1, 407520, Note_on_c, 0, 71, 41
1, 407520, Note_on_c, 0, 83, 49
1, 407520, Note_on_c, 0, 52, 41
1, 407520, Control_c, 0, 64, 127
1, 407760, Note_on_c, 0, 52, 0
1, 407760, Note_on_c, 0, 55, 31
1, 408000, Note_on_c, 0, 55, 0
1, 408000, Note_on_c, 0, 83, 0
1, 408000, Note_on_c, 0, 71, 0
1, 408000, Note_on_c, 0, 84, 43
1, 408000, Note_on_c, 0, 72, 36
1, 408000, Note_on_c, 0, 60, 31
1, 408240, Note_on_c, 0, 60, 0
1, 408240, Note_on_c, 0, 72, 0
1, 408240, Note_on_c, 0, 84, 0
1, 408240, Note_on_c, 0, 67, 36
1, 408240, Note_on_c, 0, 79, 43
1, 408240, Note_on_c, 0, 52, 36
1, 408254, Control_c, 0, 64, 0
1, 408374, Control_c, 0, 64, 127
1, 408480, Note_on_c, 0, 52, 0
1, 408480, Note_on_c, 0, 55, 31
1, 408720, Note_on_c, 0, 55, 0
1, 408720, Note_on_c, 0, 79, 0
1, 408720, Note_on_c, 0, 67, 0
1, 408720, Note_on_c, 0, 60, 31
1, 408840, Tempo, 442054
1, 408960, Tempo, 398063
1, 408960, Note_on_c, 0, 60, 0
1, 408960, Note_on_c, 0, 73, 49
1, 408960, Note_on_c, 0, 85, 58
1, 408960, Note_on_c, 0, 52, 41
1, 408971, Control_c, 0, 64, 0
1, 409101, Control_c, 0, 64, 127
1, 409200, Note_on_c, 0, 52, 0
1, 409200, Note_on_c, 0, 55, 31
1, 409440, Note_on_c, 0, 55, 0
1, 409440, Note_on_c, 0, 58, 31
1, 409680, Note_on_c, 0, 58, 0
1, 409680, Note_on_c, 0, 52, 37
1, 409885, Control_c, 0, 64, 0
1, 409920, Tempo, 394529
1, 409920, Note_on_c, 0, 52, 0
1, 409920, Note_on_c, 0, 85, 0
1, 409920, Note_on_c, 0, 73, 0
1, 409920, Note_on_c, 0, 72, 41
1, 409920, Note_on_c, 0, 84, 49
1, 409920, Note_on_c, 0, 55, 31
1, 410040, Note_on_c, 0, 84, 0
1, 410040, Note_on_c, 0, 72, 0
1, 410160, Note_on_c, 0, 55, 0
1, 410160, Note_on_c, 0, 82, 49
1, 410160, Note_on_c, 0, 70, 41
1, 410160, Note_on_c, 0, 60, 31
1, 410280, Tempo, 432495
1, 410280, Note_on_c, 0, 70, 0
1, 410280, Note_on_c, 0, 82, 0
1, 410400, Tempo, 398063
1, 410400, Note_on_c, 0, 60, 0
1, 410400, Note_on_c, 0, 81, 60
1, 410400, Note_on_c, 0, 69, 51
1, 410400, Control_c, 0, 64, 127
1, 410404, Note_on_c, 0, 51, 41
1, 410640, Tempo, 407941
1, 410640, Note_on_c, 0, 54, 31
1, 410644, Note_on_c, 0, 51, 0
1, 410880, Tempo, 410734
1, 410880, Note_on_c, 0, 81, 0
1, 410880, Note_on_c, 0, 69, 0
1, 410880, Note_on_c, 0, 54, 0
1, 410880, Note_on_c, 0, 84, 51
1, 410880, Note_on_c, 0, 72, 43
1, 410880, Note_on_c, 0, 57, 31
1, 411000, Tempo, 464828
1, 411120, Tempo, 397141
1, 411120, Note_on_c, 0, 57, 0
1, 411120, Note_on_c, 0, 72, 0
1, 411120, Note_on_c, 0, 84, 0
1, 411120, Note_on_c, 0, 82, 51
1, 411120, Note_on_c, 0, 70, 43
1, 411120, Note_on_c, 0, 50, 36
1, 411134, Control_c, 0, 64, 0
1, 411254, Control_c, 0, 64, 127
1, 411360, Note_on_c, 0, 50, 0
1, 411360, Note_on_c, 0, 53, 31
1, 411600, Note_on_c, 0, 53, 0
1, 411600, Note_on_c, 0, 70, 0
1, 411600, Note_on_c, 0, 82, 0
1, 411600, Note_on_c, 0, 58, 31
1, 411720, Tempo, 442054
1, 411840, Tempo, 402468
1, 411840, Note_on_c, 0, 58, 0
1, 411840, Note_on_c, 0, 83, 71
1, 411840, Note_on_c, 0, 71, 56
1, 411840, Note_on_c, 0, 49, 57
1, 411840, Control_c, 0, 64, 0
1, 412023, Control_c, 0, 64, 127
1, 412080, Note_on_c, 0, 49, 0
1, 412080, Note_on_c, 0, 53, 46
1, 412320, Note_on_c, 0, 53, 0
1, 412320, Note_on_c, 0, 56, 47
1, 412560, Note_on_c, 0, 56, 0
1, 412560, Note_on_c, 0, 71, 0
1, 412560, Note_on_c, 0, 83, 0
1, 412560, Note_on_c, 0, 72, 56
1, 412560, Note_on_c, 0, 84, 71
1, 412560, Note_on_c, 0, 48, 55
1, 412571, Control_c, 0, 64, 0
1, 412675, Control_c, 0, 64, 127
1, 412800, Note_on_c, 0, 48, 0
1, 412800, Note_on_c, 0, 53, 46
1, 413040, Note_on_c, 0, 53, 0
1, 413040, Note_on_c, 0, 56, 46
1, 413280, Note_on_c, 0, 56, 0
1, 413280, Note_on_c, 0, 84, 0
1, 413280, Note_on_c, 0, 72, 0
1, 413280, Note_on_c, 0, 85, 69
1, 413280, Note_on_c, 0, 73, 54
1, 413280, Note_on_c, 0, 46, 59
1, 413284, Control_c, 0, 64, 0
1, 413372, Control_c, 0, 64, 127
1, 413520, Note_on_c, 0, 46, 0
1, 413520, Note_on_c, 0, 52, 39
1, 413760, Note_on_c, 0, 52, 0
1, 413760, Note_on_c, 0, 55, 39
1, 414000, Note_on_c, 0, 55, 0
1, 414000, Note_on_c, 0, 73, 0
1, 414000, Note_on_c, 0, 85, 0
1, 414000, Note_on_c, 0, 72, 56
1, 414000, Note_on_c, 0, 84, 71
1, 414000, Note_on_c, 0, 44, 45
1, 414005, Control_c, 0, 64, 0
1, 414172, Control_c, 0, 64, 127
1, 414240, Note_on_c, 0, 44, 0
1, 414240, Note_on_c, 0, 84, 0
1, 414240, Note_on_c, 0, 72, 0
1, 414240, Note_on_c, 0, 48, 31
1, 414480, Tempo, 405433
1, 414480, Note_on_c, 0, 48, 0
1, 414480, Note_on_c, 0, 53, 31
1, 414600, Note_on_c, 0, 89, 53
1, 414720, Tempo, 400027
1, 414720, Note_on_c, 0, 89, 0
1, 414720, Note_on_c, 0, 53, 0
1, 414720, Note_on_c, 0, 72, 51
1, 414720, Note_on_c, 0, 77, 64
1, 414720, Note_on_c, 0, 48, 45
1, 414720, Control_c, 0, 64, 0
1, 414755, Control_c, 0, 64, 127
1, 414960, Note_on_c, 0, 48, 0
1, 414960, Note_on_c, 0, 53, 30
1, 415200, Note_on_c, 0, 53, 0
1, 415200, Note_on_c, 0, 56, 30
1, 415380, Note_on_c, 0, 77, 0
1, 415380, Note_on_c, 0, 80, 40
1, 415440, Note_on_c, 0, 80, 0
1, 415440, Note_on_c, 0, 56, 0
1, 415440, Note_on_c, 0, 72, 0
1, 415440, Note_on_c, 0, 76, 51
1, 415440, Note_on_c, 0, 79, 51
1, 415440, Note_on_c, 0, 48, 38
1, 415451, Control_c, 0, 64, 0
1, 415563, Control_c, 0, 64, 127
1, 415680, Note_on_c, 0, 48, 0
1, 415680, Note_on_c, 0, 55, 31
1, 415920, Tempo, 444477
1, 415920, Note_on_c, 0, 55, 0
1, 415920, Note_on_c, 0, 58, 31
1, 416160, Note_on_c, 0, 58, 0
1, 416160, Note_on_c, 0, 79, 0
1, 416160, Note_on_c, 0, 76, 0
1, 416160, Note_on_c, 0, 77, 74
1, 416160, Note_on_c, 0, 53, 67
1, 416160, Note_on_c, 0, 57, 67
1, 416173, Tempo, 397141
1, 416246, Control_c, 0, 64, 0
1, 416280, Note_on_c, 0, 77, 0
1, 416280, Note_on_c, 0, 72, 62
1, 416400, Note_on_c, 0, 72, 0
1, 416400, Note_on_c, 0, 71, 62
1, 416413, Tempo, 386897
1, 416520, Note_on_c, 0, 71, 0
1, 416520, Note_on_c, 0, 72, 62
1, 416640, Note_on_c, 0, 72, 0
1, 416640, Note_on_c, 0, 57, 0
1, 416640, Note_on_c, 0, 53, 0
1, 416640, Note_on_c, 0, 74, 69
1, 416653, Tempo, 410734
1, 416760, Note_on_c, 0, 74, 0
1, 416760, Note_on_c, 0, 72, 62
1, 416880, Tempo, 389408
1, 416880, Note_on_c, 0, 72, 0
1, 416880, Note_on_c, 0, 70, 65
1, 416880, Note_on_c, 0, 55, 67
1, 417000, Note_on_c, 0, 55, 0
1, 417000, Note_on_c, 0, 70, 0
1, 417000, Note_on_c, 0, 72, 60
1, 417120, Tempo, 384418
1, 417120, Note_on_c, 0, 72, 0
1, 417120, Note_on_c, 0, 70, 65
1, 417120, Note_on_c, 0, 52, 62
1, 417240, Note_on_c, 0, 52, 0
1, 417240, Note_on_c, 0, 70, 0
1, 417240, Note_on_c, 0, 72, 59
1, 417360, Note_on_c, 0, 72, 0
1, 417360, Note_on_c, 0, 70, 65
1, 417360, Note_on_c, 0, 48, 62
1, 417373, Tempo, 402468
1, 417480, Note_on_c, 0, 48, 0
1, 417480, Note_on_c, 0, 70, 0
1, 417480, Note_on_c, 0, 72, 59
1, 417600, Tempo, 402468
1, 417600, Note_on_c, 0, 72, 0
1, 417600, Note_on_c, 0, 69, 74
1, 417600, Note_on_c, 0, 53, 67
1, 417613, Tempo, 397141
1, 417720, Note_on_c, 0, 69, 0
1, 417720, Note_on_c, 0, 72, 62
1, 417840, Note_on_c, 0, 72, 0
1, 417840, Note_on_c, 0, 71, 62
1, 417853, Tempo, 386897
1, 417960, Note_on_c, 0, 71, 0
1, 417960, Note_on_c, 0, 72, 62
1, 418080, Note_on_c, 0, 72, 0
1, 418080, Note_on_c, 0, 53, 0
1, 418080, Note_on_c, 0, 77, 74
1, 418093, Tempo, 410734
1, 418200, Note_on_c, 0, 77, 0
1, 418200, Note_on_c, 0, 72, 62
1, 418320, Tempo, 391952
1, 418320, Note_on_c, 0, 72, 0
1, 418320, Note_on_c, 0, 70, 65
1, 418320, Note_on_c, 0, 55, 67
1, 418440, Note_on_c, 0, 55, 0
1, 418440, Note_on_c, 0, 70, 0
1, 418440, Note_on_c, 0, 72, 60
1, 418560, Tempo, 381971
1, 418560, Note_on_c, 0, 72, 0
1, 418560, Note_on_c, 0, 70, 65
1, 418560, Note_on_c, 0, 52, 62
1, 418680, Note_on_c, 0, 52, 0
1, 418680, Note_on_c, 0, 70, 0
1, 418680, Note_on_c, 0, 72, 59
1, 418800, Note_on_c, 0, 72, 0
1, 418800, Note_on_c, 0, 70, 65
1, 418800, Note_on_c, 0, 48, 62
1, 418813, Tempo, 402468
1, 418920, Note_on_c, 0, 48, 0
1, 418920, Note_on_c, 0, 70, 0
1, 418920, Note_on_c, 0, 72, 59
1, 419040, Tempo, 402468
1, 419040, Note_on_c, 0, 72, 0
1, 419040, Note_on_c, 0, 69, 74
1, 419040, Note_on_c, 0, 53, 67
1, 419053, Tempo, 397141
1, 419160, Note_on_c, 0, 69, 0
1, 419160, Note_on_c, 0, 84, 62
1, 419280, Note_on_c, 0, 84, 0
1, 419280, Note_on_c, 0, 83, 62
1, 419293, Tempo, 386897
1, 419400, Note_on_c, 0, 83, 0
1, 419400, Note_on_c, 0, 84, 62
1, 419520, Note_on_c, 0, 84, 0
1, 419520, Note_on_c, 0, 53, 0
1, 419520, Note_on_c, 0, 86, 72
1, 419533, Tempo, 410734
1, 419640, Note_on_c, 0, 86, 0
1, 419640, Note_on_c, 0, 84, 62
1, 419760, Tempo, 384418
1, 419760, Note_on_c, 0, 84, 0
1, 419760, Note_on_c, 0, 82, 65
1, 419760, Note_on_c, 0, 67, 67
1, 419880, Note_on_c, 0, 67, 0
1, 419880, Note_on_c, 0, 82, 0
1, 419880, Note_on_c, 0, 84, 60
1, 420000, Note_on_c, 0, 84, 0
1, 420000, Note_on_c, 0, 82, 65
1, 420000, Note_on_c, 0, 64, 62
1, 420013, Tempo, 384418
1, 420120, Note_on_c, 0, 64, 0
1, 420120, Note_on_c, 0, 82, 0
1, 420120, Note_on_c, 0, 84, 59
1, 420240, Note_on_c, 0, 84, 0
1, 420240, Note_on_c, 0, 82, 65
1, 420240, Note_on_c, 0, 60, 62
1, 420253, Tempo, 402468
1, 420360, Note_on_c, 0, 60, 0
1, 420360, Note_on_c, 0, 82, 0
1, 420360, Note_on_c, 0, 84, 59
1, 420480, Tempo, 402468
1, 420480, Note_on_c, 0, 84, 0
1, 420480, Note_on_c, 0, 81, 74
1, 420480, Note_on_c, 0, 65, 67
1, 420493, Tempo, 397141
1, 420600, Note_on_c, 0, 81, 0
1, 420600, Note_on_c, 0, 84, 62
1, 420720, Note_on_c, 0, 84, 0
1, 420720, Note_on_c, 0, 83, 62
1, 420733, Tempo, 386897
1, 420840, Note_on_c, 0, 83, 0
1, 420840, Note_on_c, 0, 84, 62
1, 420960, Note_on_c, 0, 84, 0
1, 420960, Note_on_c, 0, 65, 0
1, 420960, Note_on_c, 0, 89, 69
1, 420973, Tempo, 410734
1, 421080, Note_on_c, 0, 89, 0
1, 421080, Note_on_c, 0, 84, 62
1, 421200, Tempo, 384418
1, 421200, Note_on_c, 0, 84, 0
1, 421200, Note_on_c, 0, 82, 65
1, 421200, Note_on_c, 0, 67, 67
1, 421320, Note_on_c, 0, 67, 0
1, 421320, Note_on_c, 0, 82, 0
1, 421320, Note_on_c, 0, 84, 60
1, 421440, Note_on_c, 0, 84, 0
1, 421440, Note_on_c, 0, 82, 65
1, 421440, Note_on_c, 0, 64, 62
1, 421453, Tempo, 384418
1, 421560, Note_on_c, 0, 64, 0
1, 421560, Note_on_c, 0, 82, 0
1, 421560, Note_on_c, 0, 84, 59
1, 421680, Note_on_c, 0, 84, 0
1, 421680, Note_on_c, 0, 82, 65
1, 421680, Note_on_c, 0, 60, 62
1, 421693, Tempo, 402468
1, 421800, Note_on_c, 0, 60, 0
1, 421800, Note_on_c, 0, 82, 0
1, 421800, Note_on_c, 0, 84, 59
1, 421920, Note_on_c, 0, 84, 0
1, 421920, Note_on_c, 0, 81, 74
1, 421920, Note_on_c, 0, 65, 67
1, 421933, Tempo, 397141
1, 422040, Note_on_c, 0, 81, 0
1, 422040, Note_on_c, 0, 84, 62
1, 422160, Note_on_c, 0, 84, 0
1, 422160, Note_on_c, 0, 89, 71
1, 422173, Tempo, 386897
1, 422280, Note_on_c, 0, 89, 0
1, 422280, Note_on_c, 0, 81, 60
1, 422400, Note_on_c, 0, 81, 0
1, 422400, Note_on_c, 0, 65, 0
1, 422400, Note_on_c, 0, 79, 70
1, 422409, Control_c, 0, 64, 127
1, 422413, Tempo, 410734
1, 422520, Note_on_c, 0, 79, 0
1, 422520, Note_on_c, 0, 88, 62
1, 422610, Tempo, 394529
1, 422640, Note_on_c, 0, 88, 0
1, 422640, Note_on_c, 0, 77, 70
1, 422648, Control_c, 0, 64, 0
1, 422680, Control_c, 0, 64, 127
1, 422682, Tempo, 391952
1, 422730, Tempo, 389408
1, 422760, Note_on_c, 0, 77, 0
1, 422760, Note_on_c, 0, 86, 62
1, 422802, Tempo, 386897
1, 422850, Tempo, 384418
1, 422880, Tempo, 381971
1, 422880, Note_on_c, 0, 86, 0
1, 422880, Note_on_c, 0, 76, 69
1, 422891, Control_c, 0, 64, 0
1, 422898, Tempo, 379555
1, 422960, Control_c, 0, 64, 127
1, 423000, Note_on_c, 0, 76, 0
1, 423000, Note_on_c, 0, 84, 60
1, 423090, Tempo, 377169
1, 423120, Note_on_c, 0, 84, 0
1, 423120, Note_on_c, 0, 74, 67
1, 423127, Control_c, 0, 64, 0
1, 423166, Control_c, 0, 64, 127
1, 423240, Note_on_c, 0, 74, 0
1, 423240, Note_on_c, 0, 82, 58
1, 423282, Tempo, 374813
1, 423318, Tempo, 381971
1, 423360, Tempo, 374813
1, 423360, Note_on_c, 0, 82, 0
1, 423360, Note_on_c, 0, 72, 69
1, 423367, Control_c, 0, 64, 0
1, 423417, Control_c, 0, 64, 127
1, 423480, Note_on_c, 0, 72, 0
1, 423480, Note_on_c, 0, 81, 62
1, 423600, Note_on_c, 0, 81, 0
1, 423600, Note_on_c, 0, 70, 67
1, 423610, Control_c, 0, 64, 0
1, 423686, Control_c, 0, 64, 127
1, 423720, Note_on_c, 0, 70, 0
1, 423720, Note_on_c, 0, 79, 59
1, 423840, Note_on_c, 0, 79, 0
1, 423840, Note_on_c, 0, 69, 66
1, 423849, Control_c, 0, 64, 0
1, 423909, Control_c, 0, 64, 127
1, 423960, Note_on_c, 0, 69, 0
1, 423960, Note_on_c, 0, 77, 56
1, 424080, Note_on_c, 0, 77, 0
1, 424080, Note_on_c, 0, 67, 62
1, 424089, Control_c, 0, 64, 0
1, 424095, Tempo, 386897
1, 424149, Control_c, 0, 64, 127
1, 424155, Tempo, 389408
1, 424200, Note_on_c, 0, 67, 0
1, 424200, Note_on_c, 0, 76, 54
1, 424215, Tempo, 391952
1, 424275, Tempo, 394529
1, 424320, Note_on_c, 0, 76, 0
1, 424320, Note_on_c, 0, 65, 63
1, 424330, Control_c, 0, 64, 0
1, 424335, Tempo, 397141
1, 424383, Control_c, 0, 64, 127
1, 424395, Tempo, 399787
1, 424440, Note_on_c, 0, 65, 0
1, 424440, Note_on_c, 0, 74, 55
1, 424455, Tempo, 402468
1, 424515, Tempo, 405186
1, 424560, Note_on_c, 0, 74, 0
1, 424560, Note_on_c, 0, 64, 62
1, 424572, Control_c, 0, 64, 0
1, 424575, Tempo, 407941
1, 424623, Control_c, 0, 64, 127
1, 424635, Tempo, 410734
1, 424680, Note_on_c, 0, 64, 0
1, 424680, Note_on_c, 0, 72, 51
1, 424695, Tempo, 413565
1, 424755, Tempo, 416435
1, 424800, Tempo, 402468
1, 424800, Note_on_c, 0, 72, 0
1, 424800, Note_on_c, 0, 71, 55
1, 424800, Note_on_c, 0, 62, 45
1, 424800, Control_c, 0, 64, 0
1, 425040, Tempo, 391952
1, 425040, Note_on_c, 0, 50, 49
1, 425280, Tempo, 397141
1, 425280, Note_on_c, 0, 53, 52
1, 425304, Note_on_c, 0, 50, 0
1, 425520, Tempo, 391952
1, 425520, Note_on_c, 0, 71, 0
1, 425520, Note_on_c, 0, 62, 0
1, 425520, Note_on_c, 0, 70, 55
1, 425520, Note_on_c, 0, 61, 45
1, 425520, Note_on_c, 0, 56, 54
1, 425544, Note_on_c, 0, 53, 0
1, 425760, Note_on_c, 0, 55, 49
1, 425784, Note_on_c, 0, 56, 0
1, 426000, Tempo, 399787
1, 426000, Note_on_c, 0, 53, 49
1, 426024, Note_on_c, 0, 55, 0
1, 426240, Tempo, 405186
1, 426240, Note_on_c, 0, 70, 0
1, 426240, Note_on_c, 0, 61, 0
1, 426240, Note_on_c, 0, 82, 55
1, 426240, Note_on_c, 0, 73, 45
1, 426480, Tempo, 389408
1, 426480, Note_on_c, 0, 53, 0
1, 426480, Note_on_c, 0, 52, 47
1, 426720, Tempo, 394529
1, 426720, Note_on_c, 0, 55, 49
1, 426744, Note_on_c, 0, 52, 0
1, 426960, Tempo, 389408
1, 426960, Note_on_c, 0, 82, 0
1, 426960, Note_on_c, 0, 73, 0
1, 426960, Note_on_c, 0, 76, 55
1, 426960, Note_on_c, 0, 67, 45
1, 426960, Note_on_c, 0, 61, 54
1, 426984, Note_on_c, 0, 55, 0
1, 427200, Note_on_c, 0, 60, 49
1, 427224, Note_on_c, 0, 61, 0
1, 427440, Tempo, 399787
1, 427440, Note_on_c, 0, 58, 49
1, 427464, Note_on_c, 0, 60, 0
1, 427680, Tempo, 402468
1, 427680, Note_on_c, 0, 76, 0
1, 427680, Note_on_c, 0, 67, 0
1, 427680, Note_on_c, 0, 57, 38
1, 427704, Note_on_c, 0, 58, 0
1, 427920, Tempo, 389408
1, 427920, Note_on_c, 0, 57, 0
1, 427920, Note_on_c, 0, 84, 49
1, 428040, Note_on_c, 0, 84, 0
1, 428160, Note_on_c, 0, 84, 49
1, 428280, Note_on_c, 0, 84, 0
1, 428400, Tempo, 402468
1, 428400, Note_on_c, 0, 58, 40
1, 428640, Tempo, 389408
1, 428640, Note_on_c, 0, 58, 0
1, 428640, Note_on_c, 0, 86, 49
1, 428760, Note_on_c, 0, 86, 0
1, 428880, Tempo, 407941
1, 428880, Note_on_c, 0, 86, 49
1, 429000, Note_on_c, 0, 86, 0
1, 429120, Tempo, 402468
1, 429120, Note_on_c, 0, 72, 39
1, 429120, Note_on_c, 0, 77, 47
1, 429120, Note_on_c, 0, 69, 40
1, 429120, Note_on_c, 0, 60, 34
1, 429201, Control_c, 0, 64, 127
1, 429780, Note_on_c, 0, 77, 0
1, 429780, Note_on_c, 0, 72, 0
1, 429780, Note_on_c, 0, 81, 40
1, 429840, Tempo, 416435
1, 429840, Note_on_c, 0, 81, 0
1, 429840, Note_on_c, 0, 69, 0
1, 429840, Note_on_c, 0, 79, 44
1, 429840, Note_on_c, 0, 76, 37
1, 429840, Note_on_c, 0, 70, 40
1, 429879, Control_c, 0, 64, 0
1, 429981, Control_c, 0, 64, 127
1, 430560, Tempo, 402468
1, 430560, Note_on_c, 0, 70, 0
1, 430560, Note_on_c, 0, 60, 0
1, 430560, Note_on_c, 0, 79, 0
1, 430560, Note_on_c, 0, 76, 0
1, 430560, Note_on_c, 0, 77, 74
1, 430560, Note_on_c, 0, 69, 67
1, 430560, Note_on_c, 0, 65, 67
1, 430573, Tempo, 397141
1, 430646, Control_c, 0, 64, 0
1, 430680, Note_on_c, 0, 77, 0
1, 430680, Note_on_c, 0, 72, 62
1, 430800, Note_on_c, 0, 72, 0
1, 430800, Note_on_c, 0, 71, 62
1, 430813, Tempo, 386897
1, 430920, Note_on_c, 0, 71, 0
1, 430920, Note_on_c, 0, 72, 62
1, 431040, Note_on_c, 0, 72, 0
1, 431040, Note_on_c, 0, 65, 0
1, 431040, Note_on_c, 0, 69, 0
1, 431040, Note_on_c, 0, 74, 68
1, 431053, Tempo, 410734
1, 431160, Note_on_c, 0, 74, 0
1, 431160, Note_on_c, 0, 72, 62
1, 431280, Note_on_c, 0, 72, 0
1, 431280, Note_on_c, 0, 70, 65
1, 431280, Note_on_c, 0, 55, 67
1, 431293, Tempo, 394529
1, 431400, Note_on_c, 0, 55, 0
1, 431400, Note_on_c, 0, 70, 0
1, 431400, Note_on_c, 0, 72, 60
1, 431520, Note_on_c, 0, 72, 0
1, 431520, Note_on_c, 0, 70, 65
1, 431520, Note_on_c, 0, 52, 62
1, 431533, Tempo, 384418
1, 431640, Note_on_c, 0, 52, 0
1, 431640, Note_on_c, 0, 70, 0
1, 431640, Note_on_c, 0, 72, 59
1, 431760, Note_on_c, 0, 72, 0
1, 431760, Note_on_c, 0, 70, 65
1, 431760, Note_on_c, 0, 48, 62
1, 431773, Tempo, 402468
1, 431880, Note_on_c, 0, 48, 0
1, 431880, Note_on_c, 0, 70, 0
1, 431880, Note_on_c, 0, 72, 59
1, 432000, Tempo, 402468
1, 432000, Note_on_c, 0, 72, 0
1, 432000, Note_on_c, 0, 69, 74
1, 432000, Note_on_c, 0, 53, 67
1, 432013, Tempo, 397141
1, 432120, Note_on_c, 0, 69, 0
1, 432120, Note_on_c, 0, 72, 62
1, 432240, Note_on_c, 0, 72, 0
1, 432240, Note_on_c, 0, 71, 62
1, 432253, Tempo, 386897
1, 432360, Note_on_c, 0, 71, 0
1, 432360, Note_on_c, 0, 72, 62
1, 432480, Note_on_c, 0, 72, 0
1, 432480, Note_on_c, 0, 53, 0
1, 432480, Note_on_c, 0, 77, 74
1, 432493, Tempo, 410734
1, 432600, Note_on_c, 0, 77, 0
1, 432600, Note_on_c, 0, 72, 62
1, 432720, Note_on_c, 0, 72, 0
1, 432720, Note_on_c, 0, 70, 65
1, 432720, Note_on_c, 0, 55, 67
1, 432733, Tempo, 394529
1, 432840, Note_on_c, 0, 55, 0
1, 432840, Note_on_c, 0, 70, 0
1, 432840, Note_on_c, 0, 72, 60
1, 432960, Note_on_c, 0, 72, 0
1, 432960, Note_on_c, 0, 70, 65
1, 432960, Note_on_c, 0, 52, 62
1, 432973, Tempo, 384418
1, 433080, Note_on_c, 0, 52, 0
1, 433080, Note_on_c, 0, 70, 0
1, 433080, Note_on_c, 0, 72, 59
1, 433200, Note_on_c, 0, 72, 0
1, 433200, Note_on_c, 0, 70, 65
1, 433200, Note_on_c, 0, 48, 62
1, 433213, Tempo, 402468
1, 433320, Note_on_c, 0, 48, 0
1, 433320, Note_on_c, 0, 70, 0
1, 433320, Note_on_c, 0, 72, 59
1, 433440, Tempo, 402468
1, 433440, Note_on_c, 0, 72, 0
1, 433440, Note_on_c, 0, 69, 74
1, 433440, Note_on_c, 0, 53, 67
1, 433453, Tempo, 397141
1, 433560, Note_on_c, 0, 69, 0
1, 433560, Note_on_c, 0, 84, 62
1, 433680, Note_on_c, 0, 84, 0
1, 433680, Note_on_c, 0, 83, 62
1, 433693, Tempo, 386897
1, 433800, Note_on_c, 0, 83, 0
1, 433800, Note_on_c, 0, 84, 62
1, 433920, Note_on_c, 0, 84, 0
1, 433920, Note_on_c, 0, 53, 0
1, 433920, Note_on_c, 0, 86, 72
1, 433933, Tempo, 410734
1, 434040, Note_on_c, 0, 86, 0
1, 434040, Note_on_c, 0, 84, 62
1, 434160, Note_on_c, 0, 84, 0
1, 434160, Note_on_c, 0, 82, 65
1, 434160, Note_on_c, 0, 67, 67
1, 434173, Tempo, 394529
1, 434280, Note_on_c, 0, 67, 0
1, 434280, Note_on_c, 0, 82, 0
1, 434280, Note_on_c, 0, 84, 60
1, 434400, Note_on_c, 0, 84, 0
1, 434400, Note_on_c, 0, 82, 65
1, 434400, Note_on_c, 0, 64, 62
1, 434413, Tempo, 384418
1, 434520, Note_on_c, 0, 64, 0
1, 434520, Note_on_c, 0, 82, 0
1, 434520, Note_on_c, 0, 84, 59
1, 434640, Note_on_c, 0, 84, 0
1, 434640, Note_on_c, 0, 82, 65
1, 434640, Note_on_c, 0, 60, 62
1, 434653, Tempo, 402468
1, 434760, Note_on_c, 0, 60, 0
1, 434760, Note_on_c, 0, 82, 0
1, 434760, Note_on_c, 0, 84, 59
1, 434880, Tempo, 402468
1, 434880, Note_on_c, 0, 84, 0
1, 434880, Note_on_c, 0, 81, 74
1, 434880, Note_on_c, 0, 65, 67
1, 434893, Tempo, 397141
1, 435000, Note_on_c, 0, 81, 0
1, 435000, Note_on_c, 0, 84, 62
1, 435120, Note_on_c, 0, 84, 0
1, 435120, Note_on_c, 0, 83, 62
1, 435133, Tempo, 386897
1, 435240, Note_on_c, 0, 83, 0
1, 435240, Note_on_c, 0, 84, 62
1, 435360, Note_on_c, 0, 84, 0
1, 435360, Note_on_c, 0, 65, 0
1, 435360, Note_on_c, 0, 89, 72
1, 435373, Tempo, 410734
1, 435480, Note_on_c, 0, 89, 0
1, 435480, Note_on_c, 0, 84, 62
1, 435600, Note_on_c, 0, 84, 0
1, 435600, Note_on_c, 0, 82, 65
1, 435600, Note_on_c, 0, 67, 67
1, 435613, Tempo, 394529
1, 435720, Note_on_c, 0, 67, 0
1, 435720, Note_on_c, 0, 82, 0
1, 435720, Note_on_c, 0, 84, 60
1, 435840, Note_on_c, 0, 84, 0
1, 435840, Note_on_c, 0, 82, 65
1, 435840, Note_on_c, 0, 64, 62
1, 435853, Tempo, 384418
1, 435960, Note_on_c, 0, 64, 0
1, 435960, Note_on_c, 0, 82, 0
1, 435960, Note_on_c, 0, 84, 59
1, 436080, Note_on_c, 0, 84, 0
1, 436080, Note_on_c, 0, 82, 65
1, 436080, Note_on_c, 0, 60, 62
1, 436093, Tempo, 402468
1, 436200, Note_on_c, 0, 60, 0
1, 436200, Note_on_c, 0, 82, 0
1, 436200, Note_on_c, 0, 84, 59
1, 436320, Note_on_c, 0, 84, 0
1, 436320, Note_on_c, 0, 81, 74
1, 436320, Note_on_c, 0, 65, 67
1, 436333, Tempo, 397141
1, 436440, Note_on_c, 0, 81, 0
1, 436440, Note_on_c, 0, 84, 62
1, 436560, Note_on_c, 0, 84, 0
1, 436560, Note_on_c, 0, 89, 71
1, 436573, Tempo, 386897
1, 436680, Note_on_c, 0, 89, 0
1, 436680, Note_on_c, 0, 81, 60
1, 436775, Tempo, 399787
1, 436800, Note_on_c, 0, 81, 0
1, 436800, Note_on_c, 0, 65, 0
1, 436800, Note_on_c, 0, 79, 70
1, 436809, Control_c, 0, 64, 127
1, 436890, Tempo, 397141
1, 436920, Note_on_c, 0, 79, 0
1, 436920, Note_on_c, 0, 88, 62
1, 437005, Tempo, 394529
1, 437028, Tempo, 397141
1, 437040, Note_on_c, 0, 88, 0
1, 437040, Note_on_c, 0, 77, 70
1, 437048, Control_c, 0, 64, 0
1, 437080, Control_c, 0, 64, 127
1, 437082, Tempo, 391952
1, 437159, Tempo, 389408
1, 437160, Note_on_c, 0, 77, 0
1, 437160, Note_on_c, 0, 86, 62
1, 437236, Tempo, 386897
1, 437280, Note_on_c, 0, 86, 0
1, 437280, Note_on_c, 0, 76, 69
1, 437291, Control_c, 0, 64, 0
1, 437293, Tempo, 384418
1, 437360, Control_c, 0, 64, 127
1, 437370, Tempo, 381971
1, 437400, Note_on_c, 0, 76, 0
1, 437400, Note_on_c, 0, 84, 60
1, 437447, Tempo, 379555
1, 437520, Note_on_c, 0, 84, 0
1, 437520, Note_on_c, 0, 74, 67
1, 437524, Tempo, 377169
1, 437527, Control_c, 0, 64, 0
1, 437566, Control_c, 0, 64, 127
1, 437600, Tempo, 374813
1, 437640, Note_on_c, 0, 74, 0
1, 437640, Note_on_c, 0, 82, 58
1, 437677, Tempo, 372486
1, 437754, Tempo, 370188
1, 437760, Note_on_c, 0, 82, 0
1, 437760, Note_on_c, 0, 72, 69
1, 437767, Control_c, 0, 64, 0
1, 437817, Control_c, 0, 64, 127
1, 437880, Note_on_c, 0, 72, 0
1, 437880, Note_on_c, 0, 81, 62
1, 438000, Note_on_c, 0, 81, 0
1, 438000, Note_on_c, 0, 70, 67
1, 438010, Control_c, 0, 64, 0
1, 438086, Control_c, 0, 64, 127
1, 438120, Note_on_c, 0, 70, 0
1, 438120, Note_on_c, 0, 79, 59
1, 438240, Note_on_c, 0, 79, 0
1, 438240, Note_on_c, 0, 69, 66
1, 438249, Control_c, 0, 64, 0
1, 438309, Control_c, 0, 64, 127
1, 438360, Note_on_c, 0, 69, 0
1, 438360, Note_on_c, 0, 77, 56
1, 438480, Note_on_c, 0, 77, 0
1, 438480, Note_on_c, 0, 67, 64
1, 438484, Tempo, 367918
1, 438489, Control_c, 0, 64, 0
1, 438522, Tempo, 370188
1, 438549, Control_c, 0, 64, 127
1, 438560, Tempo, 372486
1, 438580, Tempo, 374813
1, 438600, Note_on_c, 0, 67, 0
1, 438600, Note_on_c, 0, 76, 55
1, 438618, Tempo, 377169
1, 438637, Tempo, 379555
1, 438676, Tempo, 381971
1, 438714, Tempo, 384418
1, 438720, Note_on_c, 0, 76, 0
1, 438720, Note_on_c, 0, 65, 63
1, 438731, Control_c, 0, 64, 0
1, 438733, Tempo, 386897
1, 438772, Tempo, 389408
1, 438783, Control_c, 0, 64, 127
1, 438791, Tempo, 391952
1, 438829, Tempo, 394529
1, 438840, Note_on_c, 0, 65, 0
1, 438840, Note_on_c, 0, 74, 55
1, 438848, Tempo, 397141
1, 438855, Tempo, 402468
1, 438915, Tempo, 405186
1, 438960, Note_on_c, 0, 74, 0
1, 438960, Note_on_c, 0, 64, 62
1, 438972, Control_c, 0, 64, 0
1, 438975, Tempo, 407941
1, 439023, Control_c, 0, 64, 127
1, 439035, Tempo, 410734
1, 439080, Note_on_c, 0, 64, 0
1, 439080, Note_on_c, 0, 72, 51
1, 439095, Tempo, 413565
1, 439155, Tempo, 416435
1, 439200, Tempo, 402468
1, 439200, Note_on_c, 0, 72, 0
1, 439200, Note_on_c, 0, 71, 55
1, 439200, Note_on_c, 0, 62, 45
1, 439200, Control_c, 0, 64, 0
1, 439440, Tempo, 391952
1, 439440, Note_on_c, 0, 50, 49
1, 439680, Tempo, 397141
1, 439680, Note_on_c, 0, 53, 52
1, 439704, Note_on_c, 0, 50, 0
1, 439920, Tempo, 391952
1, 439920, Note_on_c, 0, 71, 0
1, 439920, Note_on_c, 0, 62, 0
1, 439920, Note_on_c, 0, 70, 55
1, 439920, Note_on_c, 0, 61, 45
1, 439920, Note_on_c, 0, 56, 54
1, 439944, Note_on_c, 0, 53, 0
1, 440160, Note_on_c, 0, 55, 49
1, 440184, Note_on_c, 0, 56, 0
1, 440400, Tempo, 399787
1, 440400, Note_on_c, 0, 53, 49
1, 440424, Note_on_c, 0, 55, 0
1, 440640, Tempo, 405186
1, 440640, Note_on_c, 0, 70, 0
1, 440640, Note_on_c, 0, 61, 0
1, 440640, Note_on_c, 0, 82, 55
1, 440640, Note_on_c, 0, 73, 45
1, 440880, Tempo, 389408
1, 440880, Note_on_c, 0, 53, 0
1, 440880, Note_on_c, 0, 52, 47
1, 441120, Tempo, 394529
1, 441120, Note_on_c, 0, 55, 49
1, 441144, Note_on_c, 0, 52, 0
1, 441360, Tempo, 389408
1, 441360, Note_on_c, 0, 82, 0
1, 441360, Note_on_c, 0, 73, 0
1, 441360, Note_on_c, 0, 76, 55
1, 441360, Note_on_c, 0, 67, 45
1, 441360, Note_on_c, 0, 61, 54
1, 441384, Note_on_c, 0, 55, 0
1, 441600, Note_on_c, 0, 60, 49
1, 441624, Note_on_c, 0, 61, 0
1, 441840, Tempo, 399787
1, 441840, Note_on_c, 0, 58, 49
1, 441864, Note_on_c, 0, 60, 0
1, 442080, Tempo, 402468
1, 442080, Note_on_c, 0, 76, 0
1, 442080, Note_on_c, 0, 67, 0
1, 442080, Note_on_c, 0, 57, 38
1, 442104, Note_on_c, 0, 58, 0
1, 442320, Tempo, 389408
1, 442320, Note_on_c, 0, 57, 0
1, 442320, Note_on_c, 0, 84, 49
1, 442440, Note_on_c, 0, 84, 0
1, 442560, Note_on_c, 0, 84, 49
1, 442680, Note_on_c, 0, 84, 0
1, 442800, Tempo, 402468
1, 442800, Note_on_c, 0, 58, 40
1, 443040, Tempo, 389408
1, 443040, Note_on_c, 0, 58, 0
1, 443040, Note_on_c, 0, 86, 49
1, 443160, Note_on_c, 0, 86, 0
1, 443280, Tempo, 407941
1, 443280, Note_on_c, 0, 86, 49
1, 443400, Note_on_c, 0, 86, 0
1, 443520, Tempo, 402468
1, 443520, Note_on_c, 0, 72, 39
1, 443520, Note_on_c, 0, 77, 47
1, 443520, Note_on_c, 0, 60, 34
1, 443520, Note_on_c, 0, 69, 40
1, 443627, Control_c, 0, 64, 127
1, 444240, Tempo, 416435
1, 444240, Note_on_c, 0, 69, 0
1, 444240, Note_on_c, 0, 60, 0
1, 444240, Note_on_c, 0, 77, 0
1, 444240, Note_on_c, 0, 76, 37
1, 444240, Note_on_c, 0, 58, 32
1, 444240, Note_on_c, 0, 67, 40
1, 444248, Control_c, 0, 64, 0
1, 444387, Control_c, 0, 64, 127
1, 444840, Tempo, 450857
1, 444960, Tempo, 410734
1, 444960, Note_on_c, 0, 67, 0
1, 444960, Note_on_c, 0, 72, 0
1, 444960, Note_on_c, 0, 76, 0
1, 444960, Note_on_c, 0, 58, 0
1, 444960, Note_on_c, 0, 83, 71
1, 444960, Note_on_c, 0, 57, 64
1, 444960, Control_c, 0, 64, 0
1, 445080, Note_on_c, 0, 83, 0
1, 445080, Note_on_c, 0, 84, 55
1, 445200, Tempo, 397141
1, 445200, Note_on_c, 0, 57, 0
1, 445200, Note_on_c, 0, 83, 55
1, 445200, Note_on_c, 0, 60, 53
1, 445212, Note_on_c, 0, 84, 0
1, 445320, Note_on_c, 0, 84, 55
1, 445332, Note_on_c, 0, 83, 0
1, 445440, Note_on_c, 0, 60, 0
1, 445440, Note_on_c, 0, 83, 55
1, 445440, Note_on_c, 0, 65, 53
1, 445452, Note_on_c, 0, 84, 0
1, 445453, Tempo, 410734
1, 445560, Note_on_c, 0, 84, 55
1, 445572, Note_on_c, 0, 83, 0
1, 445680, Tempo, 405186
1, 445680, Note_on_c, 0, 84, 0
1, 445680, Note_on_c, 0, 65, 0
1, 445680, Note_on_c, 0, 85, 62
1, 445680, Note_on_c, 0, 58, 61
1, 445800, Note_on_c, 0, 86, 55
1, 445812, Note_on_c, 0, 85, 0
1, 445920, Tempo, 397141
1, 445920, Note_on_c, 0, 58, 0
1, 445920, Note_on_c, 0, 85, 55
1, 445920, Note_on_c, 0, 62, 53
1, 445932, Note_on_c, 0, 86, 0
1, 446040, Note_on_c, 0, 86, 55
1, 446052, Note_on_c, 0, 85, 0
1, 446160, Note_on_c, 0, 62, 0
1, 446160, Note_on_c, 0, 88, 59
1, 446160, Note_on_c, 0, 67, 50
1, 446172, Note_on_c, 0, 86, 0
1, 446173, Tempo, 402468
1, 446280, Note_on_c, 0, 89, 54
1, 446292, Note_on_c, 0, 88, 0
1, 446400, Tempo, 402468
1, 446400, Note_on_c, 0, 89, 0
1, 446400, Note_on_c, 0, 67, 0
1, 446400, Note_on_c, 0, 72, 39
1, 446400, Note_on_c, 0, 77, 47
1, 446400, Note_on_c, 0, 60, 38
1, 446534, Control_c, 0, 64, 127
1, 446640, Note_on_c, 0, 60, 0
1, 446640, Note_on_c, 0, 65, 34
1, 446880, Note_on_c, 0, 65, 0
1, 446880, Note_on_c, 0, 69, 34
1, 447060, Note_on_c, 0, 77, 0
1, 447060, Note_on_c, 0, 81, 37
1, 447120, Tempo, 416435
1, 447120, Note_on_c, 0, 81, 0
1, 447120, Note_on_c, 0, 69, 0
1, 447120, Note_on_c, 0, 72, 0
1, 447120, Note_on_c, 0, 79, 43
1, 447120, Note_on_c, 0, 76, 43
1, 447120, Note_on_c, 0, 60, 39
1, 447130, Control_c, 0, 64, 0
1, 447254, Control_c, 0, 64, 127
1, 447360, Note_on_c, 0, 60, 0
1, 447360, Note_on_c, 0, 67, 33
1, 447600, Note_on_c, 0, 67, 0
1, 447600, Note_on_c, 0, 76, 0
1, 447600, Note_on_c, 0, 70, 33
1, 447720, Note_on_c, 0, 79, 0
1, 447720, Note_on_c, 0, 77, 37
1, 447840, Note_on_c, 0, 77, 0
1, 447840, Note_on_c, 0, 70, 0
1, 447840, Note_on_c, 0, 77, 71
1, 447840, Note_on_c, 0, 69, 66
1, 447840, Note_on_c, 0, 65, 56
1, 447854, Control_c, 0, 64, 0
1, 447960, Note_on_c, 0, 81, 64
1, 447972, Note_on_c, 0, 77, 0
1, 448080, Tempo, 397141
1, 448080, Note_on_c, 0, 84, 67
1, 448092, Note_on_c, 0, 81, 0
1, 448200, Note_on_c, 0, 89, 68
1, 448212, Note_on_c, 0, 84, 0
1, 448320, Tempo, 389408
1, 448320, Note_on_c, 0, 69, 0
1, 448320, Note_on_c, 0, 65, 0
1, 448320, Note_on_c, 0, 88, 69
1, 448332, Note_on_c, 0, 89, 0
1, 448440, Note_on_c, 0, 86, 69
1, 448452, Note_on_c, 0, 88, 0
1, 448560, Note_on_c, 0, 84, 71
1, 448560, Note_on_c, 0, 70, 66
1, 448560, Note_on_c, 0, 60, 56
1, 448560, Note_on_c, 0, 64, 66
1, 448572, Note_on_c, 0, 86, 0
1, 448680, Note_on_c, 0, 86, 67
1, 448692, Note_on_c, 0, 84, 0
1, 448800, Note_on_c, 0, 84, 67
1, 448812, Note_on_c, 0, 86, 0
1, 448920, Note_on_c, 0, 82, 67
1, 448932, Note_on_c, 0, 84, 0
1, 449040, Note_on_c, 0, 64, 0
1, 449040, Note_on_c, 0, 60, 0
1, 449040, Note_on_c, 0, 70, 0
1, 449040, Note_on_c, 0, 81, 67
1, 449052, Note_on_c, 0, 82, 0
1, 449160, Tempo, 434531
1, 449160, Note_on_c, 0, 79, 67
1, 449172, Note_on_c, 0, 81, 0
1, 449280, Tempo, 416435
1, 449280, Note_on_c, 0, 79, 0
1, 449280, Note_on_c, 0, 77, 71
1, 449280, Note_on_c, 0, 65, 56
1, 449280, Note_on_c, 0, 69, 66
1, 449400, Note_on_c, 0, 81, 64
1, 449412, Note_on_c, 0, 77, 0
1, 449520, Tempo, 394529
1, 449520, Note_on_c, 0, 79, 64
1, 449532, Note_on_c, 0, 81, 0
1, 449640, Note_on_c, 0, 77, 68
1, 449652, Note_on_c, 0, 79, 0
1, 449760, Tempo, 389408
1, 449760, Note_on_c, 0, 65, 0
1, 449760, Note_on_c, 0, 69, 0
1, 449760, Note_on_c, 0, 76, 64
1, 449772, Note_on_c, 0, 77, 0
1, 449880, Note_on_c, 0, 74, 64
1, 449892, Note_on_c, 0, 76, 0
1, 450000, Note_on_c, 0, 72, 69
1, 450000, Note_on_c, 0, 70, 66
1, 450000, Note_on_c, 0, 60, 56
1, 450000, Note_on_c, 0, 64, 56
1, 450012, Note_on_c, 0, 74, 0
1, 450120, Note_on_c, 0, 74, 63
1, 450132, Note_on_c, 0, 72, 0
1, 450240, Note_on_c, 0, 72, 63
1, 450252, Note_on_c, 0, 74, 0
1, 450360, Note_on_c, 0, 70, 63
1, 450372, Note_on_c, 0, 72, 0
1, 450480, Note_on_c, 0, 64, 0
1, 450480, Note_on_c, 0, 60, 0
1, 450480, Note_on_c, 0, 70, 0
1, 450480, Note_on_c, 0, 69, 63
1, 450492, Note_on_c, 0, 70, 0
1, 450600, Tempo, 431406
1, 450600, Note_on_c, 0, 67, 63
1, 450612, Note_on_c, 0, 69, 0
1, 450720, Tempo, 407941
1, 450720, Note_on_c, 0, 67, 0
1, 450720, Note_on_c, 0, 65, 71
1, 450720, Note_on_c, 0, 57, 66
1, 450720, Note_on_c, 0, 53, 56
1, 450840, Note_on_c, 0, 69, 63
1, 450852, Note_on_c, 0, 65, 0
1, 450960, Tempo, 391952
1, 450960, Note_on_c, 0, 67, 63
1, 450972, Note_on_c, 0, 69, 0
1, 451080, Note_on_c, 0, 65, 63
1, 451092, Note_on_c, 0, 67, 0
1, 451200, Tempo, 389408
1, 451200, Note_on_c, 0, 57, 0
1, 451200, Note_on_c, 0, 53, 0
1, 451200, Note_on_c, 0, 64, 63
1, 451212, Note_on_c, 0, 65, 0
1, 451320, Note_on_c, 0, 62, 64
1, 451332, Note_on_c, 0, 64, 0
1, 451440, Note_on_c, 0, 60, 71
1, 451440, Note_on_c, 0, 48, 56
1, 451440, Note_on_c, 0, 52, 56
1, 451440, Note_on_c, 0, 58, 66
1, 451452, Note_on_c, 0, 62, 0
1, 451560, Note_on_c, 0, 62, 64
1, 451572, Note_on_c, 0, 60, 0
1, 451680, Note_on_c, 0, 60, 64
1, 451692, Note_on_c, 0, 62, 0
1, 451800, Note_on_c, 0, 58, 64
1, 451812, Note_on_c, 0, 60, 0
1, 451920, Note_on_c, 0, 58, 0
1, 451920, Note_on_c, 0, 52, 0
1, 451920, Note_on_c, 0, 48, 0
1, 451920, Note_on_c, 0, 57, 64
1, 451932, Note_on_c, 0, 58, 0
1, 452040, Tempo, 431406
1, 452040, Note_on_c, 0, 55, 64
1, 452052, Note_on_c, 0, 57, 0
1, 452160, Tempo, 402468
1, 452160, Note_on_c, 0, 55, 0
1, 452160, Note_on_c, 0, 53, 81
1, 452160, Note_on_c, 0, 41, 70
1, 452280, Note_on_c, 0, 41, 0
1, 452280, Note_on_c, 0, 53, 0
1, 452400, Note_on_c, 0, 57, 70
1, 452400, Note_on_c, 0, 45, 63
1, 452520, Note_on_c, 0, 45, 0
1, 452520, Note_on_c, 0, 57, 0
1, 452640, Note_on_c, 0, 60, 70
1, 452640, Note_on_c, 0, 48, 63
1, 452760, Note_on_c, 0, 48, 0
1, 452760, Note_on_c, 0, 60, 0
1, 452880, Note_on_c, 0, 65, 78
1, 452880, Note_on_c, 0, 53, 70
1, 453000, Note_on_c, 0, 53, 0
1, 453000, Note_on_c, 0, 65, 0
1, 453120, Note_on_c, 0, 69, 70
1, 453120, Note_on_c, 0, 57, 64
1, 453240, Note_on_c, 0, 57, 0
1, 453240, Note_on_c, 0, 69, 0
1, 453360, Note_on_c, 0, 72, 70
1, 453360, Note_on_c, 0, 60, 64
1, 453480, Note_on_c, 0, 60, 0
1, 453480, Note_on_c, 0, 72, 0
1, 453600, Tempo, 400721
1, 453600, Note_on_c, 0, 77, 88
1, 453600, Note_on_c, 0, 65, 74
1, 453840, Note_on_c, 0, 65, 0
1, 453840, Note_on_c, 0, 77, 0
1, 454320, Tempo, 400721
1, 454320, Note_on_c, 0, 81, 75
1, 454320, Note_on_c, 0, 84, 90
1, 454320, Note_on_c, 0, 72, 75
1, 454320, Note_on_c, 0, 65, 74
1, 454320, Note_on_c, 0, 53, 62
1, 454360, Control_c, 0, 64, 127
1, 454694, Control_c, 0, 64, 0
1, 454800, Note_on_c, 0, 53, 0
1, 454800, Note_on_c, 0, 72, 0
1, 454800, Note_on_c, 0, 81, 0
1, 454800, Note_on_c, 0, 84, 0
1, 454800, Note_on_c, 0, 65, 0
1, 455040, Tempo, 403416
1, 455040, Note_on_c, 0, 87, 94
1, 455040, Note_on_c, 0, 77, 79
1, 455040, Note_on_c, 0, 84, 81
1, 455040, Note_on_c, 0, 45, 62
1, 455040, Note_on_c, 0, 57, 74
1, 455067, Control_c, 0, 64, 127
1, 455467, Control_c, 0, 64, 0
1, 455520, Note_on_c, 0, 57, 0
1, 455520, Note_on_c, 0, 84, 0
1, 455520, Note_on_c, 0, 87, 0
1, 455520, Note_on_c, 0, 77, 0
1, 455520, Note_on_c, 0, 45, 0
1, 456480, Note_on_c, 0, 86, 86
1, 456480, Note_on_c, 0, 77, 74
1, 456480, Note_on_c, 0, 82, 74
1, 456480, Note_on_c, 0, 46, 62
1, 456480, Note_on_c, 0, 58, 74
1, 456534, Control_c, 0, 64, 127
1, 456960, Note_on_c, 0, 58, 0
1, 456960, Note_on_c, 0, 82, 0
1, 456960, Note_on_c, 0, 86, 0
1, 456960, Note_on_c, 0, 77, 0
1, 456960, Note_on_c, 0, 46, 0
1, 457054, Control_c, 0, 64, 0
1, 457920, Note_on_c, 0, 80, 74
1, 457920, Note_on_c, 0, 86, 86
1, 457920, Note_on_c, 0, 89, 74
1, 457920, Note_on_c, 0, 77, 74
1, 457920, Note_on_c, 0, 47, 62
1, 457920, Note_on_c, 0, 59, 74
1, 457920, Control_c, 0, 64, 127
1, 458387, Control_c, 0, 64, 0
1, 458400, Note_on_c, 0, 59, 0
1, 458400, Note_on_c, 0, 86, 0
1, 458400, Note_on_c, 0, 89, 0
1, 458400, Note_on_c, 0, 80, 0
1, 458400, Note_on_c, 0, 47, 0
1, 458400, Note_on_c, 0, 77, 0
1, 459120, Tempo, 416696
1, 459360, Tempo, 402712
1, 459360, Note_on_c, 0, 60, 39
1, 459360, Note_on_c, 0, 65, 47
1, 459360, Note_on_c, 0, 57, 42
1, 459360, Note_on_c, 0, 48, 35
1, 459420, Control_c, 0, 64, 127
1, 460680, Note_on_c, 0, 65, 0
1, 460680, Note_on_c, 0, 69, 47
1, 460800, Note_on_c, 0, 69, 0
1, 460800, Note_on_c, 0, 48, 0
1, 460800, Note_on_c, 0, 57, 0
1, 460800, Note_on_c, 0, 60, 0
1, 460800, Note_on_c, 0, 60, 42
1, 460800, Note_on_c, 0, 67, 50
1, 460800, Note_on_c, 0, 64, 42
1, 460800, Note_on_c, 0, 58, 42
1, 460800, Note_on_c, 0, 48, 35
1, 460800, Control_c, 0, 64, 0
1, 460980, Control_c, 0, 64, 127
1, 461520, Tempo, 423340
1, 462000, Tempo, 492894
1, 462000, Note_on_c, 0, 67, 0
1, 462000, Note_on_c, 0, 65, 41
1, 462240, Tempo, 532245
1, 462240, Note_on_c, 0, 65, 0
1, 462240, Note_on_c, 0, 48, 0
1, 462240, Note_on_c, 0, 58, 0
1, 462240, Note_on_c, 0, 64, 0
1, 462240, Note_on_c, 0, 65, 46
1, 462240, Note_on_c, 0, 57, 42
1, 462240, Note_on_c, 0, 53, 35
1, 462240, Control_c, 0, 64, 0
1, 462480, Note_on_c, 0, 53, 0
1, 462480, Note_on_c, 0, 60, 0
1, 462480, Note_on_c, 0, 65, 0
1, 462480, Note_on_c, 0, 57, 0
1, 462720, Tempo, 398063
1, 462720, Note_on_c, 0, 57, 71
1, 462720, Note_on_c, 0, 45, 60
1, 462960, Tempo, 389408
1, 462960, Note_on_c, 0, 45, 0
1, 462960, Note_on_c, 0, 57, 0
1, 462960, Note_on_c, 0, 58, 78
1, 462960, Note_on_c, 0, 46, 66
1, 463080, Note_on_c, 0, 46, 0
1, 463080, Note_on_c, 0, 58, 0
1, 463200, Note_on_c, 0, 67, 73
1, 463200, Note_on_c, 0, 55, 61
1, 463320, Note_on_c, 0, 55, 0
1, 463320, Note_on_c, 0, 67, 0
1, 463440, Tempo, 399787
1, 463440, Note_on_c, 0, 59, 72
1, 463440, Note_on_c, 0, 47, 61
1, 463560, Note_on_c, 0, 47, 0
1, 463560, Note_on_c, 0, 59, 0
1, 463680, Tempo, 389408
1, 463680, Note_on_c, 0, 60, 78
1, 463680, Note_on_c, 0, 48, 66
1, 463800, Note_on_c, 0, 48, 0
1, 463800, Note_on_c, 0, 60, 0
1, 463920, Note_on_c, 0, 69, 73
1, 463920, Note_on_c, 0, 57, 61
1, 464040, Note_on_c, 0, 57, 0
1, 464040, Note_on_c, 0, 69, 0
1, 464160, Tempo, 394529
1, 464160, Note_on_c, 0, 61, 73
1, 464160, Note_on_c, 0, 49, 61
1, 464280, Note_on_c, 0, 49, 0
1, 464280, Note_on_c, 0, 61, 0
1, 464400, Tempo, 389408
1, 464400, Note_on_c, 0, 62, 78
1, 464400, Note_on_c, 0, 50, 66
1, 464520, Note_on_c, 0, 50, 0
1, 464520, Note_on_c, 0, 62, 0
1, 464640, Note_on_c, 0, 70, 72
1, 464640, Note_on_c, 0, 58, 61
1, 464760, Note_on_c, 0, 58, 0
1, 464760, Note_on_c, 0, 70, 0
1, 464880, Tempo, 397141
1, 464880, Note_on_c, 0, 64, 72
1, 464880, Note_on_c, 0, 52, 61
1, 465000, Note_on_c, 0, 52, 0
1, 465000, Note_on_c, 0, 64, 0
1, 465120, Tempo, 389408
1, 465120, Note_on_c, 0, 82, 68
1, 465184, Control_c, 0, 64, 127
1, 465840, Note_on_c, 0, 58, 28
1, 465840, Note_on_c, 0, 60, 28
1, 465840, Note_on_c, 0, 67, 34
1, 465840, Note_on_c, 0, 64, 28
1, 466080, Tempo, 379555
1, 466080, Note_on_c, 0, 82, 0
1, 466080, Note_on_c, 0, 81, 62
1, 466200, Note_on_c, 0, 81, 0
1, 466200, Note_on_c, 0, 79, 61
1, 466320, Note_on_c, 0, 79, 0
1, 466320, Note_on_c, 0, 77, 59
1, 466440, Note_on_c, 0, 77, 0
1, 466440, Note_on_c, 0, 76, 57
1, 466560, Tempo, 389408
1, 466560, Note_on_c, 0, 76, 0
1, 466560, Note_on_c, 0, 67, 0
1, 466560, Note_on_c, 0, 58, 0
1, 466560, Note_on_c, 0, 60, 0
1, 466560, Note_on_c, 0, 64, 0
1, 466560, Note_on_c, 0, 77, 56
1, 466560, Note_on_c, 0, 60, 41
1, 466560, Note_on_c, 0, 57, 41
1, 466560, Note_on_c, 0, 65, 49
1, 466560, Control_c, 0, 64, 0
1, 466680, Note_on_c, 0, 77, 0
1, 466800, Note_on_c, 0, 60, 0
1, 466800, Note_on_c, 0, 57, 0
1, 466800, Note_on_c, 0, 65, 0
1, 466800, Note_on_c, 0, 79, 49
1, 466920, Note_on_c, 0, 79, 0
1, 467040, Tempo, 431655
1, 467040, Note_on_c, 0, 81, 54
1, 467160, Note_on_c, 0, 81, 0
1, 467280, Tempo, 389408
1, 467280, Note_on_c, 0, 69, 46
1, 467280, Note_on_c, 0, 72, 46
1, 467280, Note_on_c, 0, 60, 42
1, 467323, Control_c, 0, 64, 127
1, 467760, Tempo, 431655
1, 467760, Note_on_c, 0, 60, 0
1, 467760, Note_on_c, 0, 72, 0
1, 467760, Note_on_c, 0, 69, 0
1, 467760, Note_on_c, 0, 70, 40
1, 467760, Note_on_c, 0, 67, 40
1, 467760, Note_on_c, 0, 61, 42
1, 467771, Control_c, 0, 64, 0
1, 467852, Control_c, 0, 64, 127
1, 468000, Tempo, 416667
1, 468000, Note_on_c, 0, 61, 0
1, 468000, Note_on_c, 0, 67, 0
1, 468000, Note_on_c, 0, 70, 0
1, 468000, Note_on_c, 0, 70, 46
1, 468000, Note_on_c, 0, 67, 46
1, 468000, Note_on_c, 0, 62, 47
1, 468000, Control_c, 0, 64, 0
1, 468134, Control_c, 0, 64, 127
1, 468720, Tempo, 397351
1, 468720, Note_on_c, 0, 67, 0
1, 468720, Note_on_c, 0, 70, 0
1, 468720, Note_on_c, 0, 65, 41
1, 468720, Note_on_c, 0, 69, 41
1, 468747, Control_c, 0, 64, 0
1, 468960, Note_on_c, 0, 69, 0
1, 468960, Note_on_c, 0, 65, 0
1, 468960, Note_on_c, 0, 62, 0
1, 469920, Note_on_c, 0, 57, 71
1, 469920, Note_on_c, 0, 45, 60
1, 470160, Tempo, 387122
1, 470160, Note_on_c, 0, 45, 0
1, 470160, Note_on_c, 0, 57, 0
1, 470160, Note_on_c, 0, 58, 78
1, 470160, Note_on_c, 0, 46, 66
1, 470280, Note_on_c, 0, 46, 0
1, 470280, Note_on_c, 0, 58, 0
1, 470400, Note_on_c, 0, 67, 73
1, 470400, Note_on_c, 0, 55, 61
1, 470520, Note_on_c, 0, 55, 0
1, 470520, Note_on_c, 0, 67, 0
1, 470640, Tempo, 397377
1, 470640, Note_on_c, 0, 59, 72
1, 470640, Note_on_c, 0, 47, 61
1, 470760, Note_on_c, 0, 47, 0
1, 470760, Note_on_c, 0, 59, 0
1, 470880, Tempo, 387122
1, 470880, Note_on_c, 0, 60, 78
1, 470880, Note_on_c, 0, 48, 66
1, 471000, Note_on_c, 0, 48, 0
1, 471000, Note_on_c, 0, 60, 0
1, 471120, Note_on_c, 0, 69, 73
1, 471120, Note_on_c, 0, 57, 61
1, 471240, Note_on_c, 0, 57, 0
1, 471240, Note_on_c, 0, 69, 0
1, 471360, Tempo, 397377
1, 471360, Note_on_c, 0, 61, 73
1, 471360, Note_on_c, 0, 49, 61
1, 471480, Note_on_c, 0, 49, 0
1, 471480, Note_on_c, 0, 61, 0
1, 471600, Tempo, 389636
1, 471600, Note_on_c, 0, 62, 78
1, 471600, Note_on_c, 0, 50, 66
1, 471720, Note_on_c, 0, 50, 0
1, 471720, Note_on_c, 0, 62, 0
1, 471840, Note_on_c, 0, 70, 72
1, 471840, Note_on_c, 0, 58, 61
1, 471960, Note_on_c, 0, 58, 0
1, 471960, Note_on_c, 0, 70, 0
1, 472080, Tempo, 400027
1, 472080, Note_on_c, 0, 64, 72
1, 472080, Note_on_c, 0, 52, 61
1, 472200, Note_on_c, 0, 52, 0
1, 472200, Note_on_c, 0, 64, 0
1, 472320, Note_on_c, 0, 82, 68
1, 472320, Control_c, 0, 64, 127
1, 473040, Note_on_c, 0, 58, 28
1, 473040, Note_on_c, 0, 60, 28
1, 473040, Note_on_c, 0, 64, 28
1, 473040, Note_on_c, 0, 67, 34
1, 473280, Tempo, 379555
1, 473280, Note_on_c, 0, 82, 0
1, 473280, Note_on_c, 0, 81, 62
1, 473400, Note_on_c, 0, 81, 0
1, 473400, Note_on_c, 0, 79, 61
1, 473520, Note_on_c, 0, 79, 0
1, 473520, Note_on_c, 0, 77, 59
1, 473640, Note_on_c, 0, 77, 0
1, 473640, Note_on_c, 0, 76, 57
1, 473760, Tempo, 440917
1, 473760, Note_on_c, 0, 76, 0
1, 473760, Note_on_c, 0, 64, 0
1, 473760, Note_on_c, 0, 58, 0
1, 473760, Note_on_c, 0, 60, 0
1, 473760, Note_on_c, 0, 67, 0
1, 473760, Note_on_c, 0, 77, 56
1, 473760, Note_on_c, 0, 57, 41
1, 473760, Note_on_c, 0, 65, 49
1, 473760, Note_on_c, 0, 60, 41
1, 473760, Control_c, 0, 64, 0
1, 473820, Note_on_c, 0, 77, 0
1, 473820, Note_on_c, 0, 79, 49
1, 473880, Note_on_c, 0, 79, 0
1, 473880, Note_on_c, 0, 81, 49
1, 473940, Note_on_c, 0, 81, 0
1, 474000, Tempo, 399787
1, 474000, Note_on_c, 0, 57, 0
1, 474000, Note_on_c, 0, 65, 0
1, 474000, Note_on_c, 0, 60, 0
1, 474240, Tempo, 435635
1, 474480, Tempo, 556948
1, 474480, Note_on_c, 0, 74, 46
1, 474480, Note_on_c, 0, 58, 32
1, 474480, Note_on_c, 0, 62, 32
1, 474480, Note_on_c, 0, 65, 41
1, 474540, Note_on_c, 0, 74, 0
1, 474540, Note_on_c, 0, 76, 39
1, 474600, Tempo, 488878
1, 474600, Note_on_c, 0, 76, 0
1, 474600, Note_on_c, 0, 77, 39
1, 474660, Note_on_c, 0, 77, 0
1, 474720, Tempo, 398063
1, 474720, Note_on_c, 0, 58, 0
1, 474720, Note_on_c, 0, 62, 0
1, 474720, Note_on_c, 0, 65, 0
1, 474960, Tempo, 491803
1, 475200, Tempo, 397141
1, 475200, Note_on_c, 0, 60, 37
1, 475200, Note_on_c, 0, 65, 44
1, 475200, Note_on_c, 0, 57, 32
1, 475200, Note_on_c, 0, 48, 27
1, 475200, Control_c, 0, 64, 127
1, 475440, Tempo, 416435
1, 475680, Tempo, 447494
1, 475800, Note_on_c, 0, 65, 0
1, 475800, Note_on_c, 0, 69, 39
1, 475920, Note_on_c, 0, 69, 0
1, 475920, Note_on_c, 0, 57, 0
1, 475920, Note_on_c, 0, 67, 44
1, 475920, Note_on_c, 0, 64, 36
1, 475920, Note_on_c, 0, 58, 28
1, 475930, Control_c, 0, 64, 0
1, 476104, Control_c, 0, 64, 127
1, 476400, Tempo, 475888
1, 476400, Note_on_c, 0, 64, 0
1, 476400, Note_on_c, 0, 67, 0
1, 476400, Note_on_c, 0, 65, 41
1, 476640, Tempo, 410734
1, 476640, Note_on_c, 0, 65, 0
1, 476640, Note_on_c, 0, 58, 0
1, 476640, Note_on_c, 0, 60, 0
1, 476640, Note_on_c, 0, 48, 0
1, 476640, Note_on_c, 0, 65, 41
1, 476640, Note_on_c, 0, 53, 28
1, 476640, Control_c, 0, 64, 0
1, 476774, Control_c, 0, 64, 127
1, 476880, Tempo, 391952
1, 476880, Note_on_c, 0, 57, 24
1, 477120, Note_on_c, 0, 57, 0
1, 477120, Note_on_c, 0, 69, 39
1, 477120, Note_on_c, 0, 60, 24
1, 477360, Tempo, 394529
1, 477360, Note_on_c, 0, 60, 0
1, 477360, Note_on_c, 0, 65, 0
1, 477360, Note_on_c, 0, 53, 0
1, 477360, Note_on_c, 0, 69, 0
1, 477360, Note_on_c, 0, 64, 37
1, 477360, Note_on_c, 0, 72, 44
1, 477360, Note_on_c, 0, 53, 28
1, 477371, Control_c, 0, 64, 0
1, 477467, Control_c, 0, 64, 127
1, 477600, Note_on_c, 0, 72, 0
1, 477600, Note_on_c, 0, 70, 39
1, 477600, Note_on_c, 0, 55, 26
1, 477840, Tempo, 405186
1, 477840, Note_on_c, 0, 55, 0
1, 477840, Note_on_c, 0, 70, 0
1, 477840, Note_on_c, 0, 67, 39
1, 477840, Note_on_c, 0, 58, 26
1, 478080, Tempo, 394529
1, 478080, Note_on_c, 0, 58, 0
1, 478080, Note_on_c, 0, 64, 0
1, 478080, Note_on_c, 0, 53, 0
1, 478080, Note_on_c, 0, 67, 0
1, 478080, Note_on_c, 0, 65, 44
1, 478080, Note_on_c, 0, 53, 28
1, 478087, Control_c, 0, 64, 0
1, 478227, Control_c, 0, 64, 127
1, 478320, Note_on_c, 0, 60, 40
1, 478320, Note_on_c, 0, 57, 24
1, 478556, Note_on_c, 0, 60, 0
1, 478560, Tempo, 402468
1, 478560, Note_on_c, 0, 57, 0
1, 478560, Note_on_c, 0, 69, 40
1, 478560, Note_on_c, 0, 60, 24
1, 478800, Tempo, 394529
1, 478800, Note_on_c, 0, 60, 0
1, 478800, Note_on_c, 0, 65, 0
1, 478800, Note_on_c, 0, 53, 0
1, 478800, Note_on_c, 0, 69, 0
1, 478800, Note_on_c, 0, 64, 37
1, 478800, Note_on_c, 0, 72, 44
1, 478800, Note_on_c, 0, 53, 28
1, 478807, Control_c, 0, 64, 0
1, 478960, Control_c, 0, 64, 127
1, 479040, Note_on_c, 0, 72, 0
1, 479040, Note_on_c, 0, 70, 40
1, 479040, Note_on_c, 0, 55, 24
1, 479280, Tempo, 414565
1, 479280, Note_on_c, 0, 55, 0
1, 479280, Note_on_c, 0, 70, 0
1, 479280, Note_on_c, 0, 67, 40
1, 479280, Note_on_c, 0, 58, 24
1, 479520, Tempo, 403416
1, 479520, Note_on_c, 0, 58, 0
1, 479520, Note_on_c, 0, 64, 0
1, 479520, Note_on_c, 0, 53, 0
1, 479520, Note_on_c, 0, 67, 0
1, 479520, Note_on_c, 0, 65, 44
1, 479520, Note_on_c, 0, 53, 28
1, 479526, Control_c, 0, 64, 0
1, 479667, Control_c, 0, 64, 127
1, 479760, Note_on_c, 0, 65, 0
1, 479760, Note_on_c, 0, 60, 41
1, 479760, Note_on_c, 0, 57, 24
1, 479996, Note_on_c, 0, 60, 0
1, 480000, Tempo, 448665
1, 480000, Note_on_c, 0, 57, 0
1, 480000, Note_on_c, 0, 69, 41
1, 480000, Note_on_c, 0, 60, 24
1, 480240, Tempo, 414565
1, 480240, Note_on_c, 0, 60, 0
1, 480240, Note_on_c, 0, 69, 0
1, 480240, Note_on_c, 0, 53, 0
1, 480240, Note_on_c, 0, 65, 44
1, 480240, Note_on_c, 0, 53, 28
1, 480248, Control_c, 0, 64, 0
1, 480374, Control_c, 0, 64, 127
1, 480480, Tempo, 508518
1, 480480, Note_on_c, 0, 65, 0
1, 480480, Note_on_c, 0, 60, 40
1, 480480, Note_on_c, 0, 57, 24
1, 480717, Note_on_c, 0, 60, 0
1, 480720, Tempo, 731797
1, 480720, Note_on_c, 0, 57, 0
1, 480720, Note_on_c, 0, 69, 40
1, 480720, Note_on_c, 0, 60, 24
1, 480960, Tempo, 625065
1, 480960, Note_on_c, 0, 60, 0
1, 480960, Note_on_c, 0, 69, 0
1, 480960, Note_on_c, 0, 53, 0
1, 480960, Note_on_c, 0, 67, 42
1, 480960, Note_on_c, 0, 58, 36
1, 480960, Note_on_c, 0, 53, 28
1, 480960, Note_on_c, 0, 41, 23
1, 480968, Control_c, 0, 64, 0
1, 481160, Control_c, 0, 64, 127
1, 481680, Note_on_c, 0, 58, 0
1, 481680, Note_on_c, 0, 67, 0
1, 481680, Note_on_c, 0, 65, 36
1, 481680, Note_on_c, 0, 57, 31
1, 481747, Control_c, 0, 64, 0
1, 481920, Note_on_c, 0, 57, 0
1, 481920, Note_on_c, 0, 41, 0
1, 481920, Note_on_c, 0, 53, 0
1, 481920, Note_on_c, 0, 65, 0
1, 482400, Tempo, 385282
1, 482400, Marker_t, "Part2 repeat"
1, 482400, Control_c, 0, 91, 127
1, 482400, Text_t, "bdca426d104a26ac9dcb070447587523"
1, 482400, Note_on_c, 0, 48, 70
1, 482400, Note_on_c, 0, 39, 59
1, 482400, Note_on_c, 0, 43, 59
1, 482400, Note_on_c, 0, 36, 59
1, 482520, Note_on_c, 0, 79, 66
1, 482640, Note_on_c, 0, 78, 68
1, 482652, Note_on_c, 0, 79, 0
1, 482760, Note_on_c, 0, 79, 69
1, 482772, Note_on_c, 0, 78, 0
1, 482880, Note_on_c, 0, 36, 0
1, 482880, Note_on_c, 0, 43, 0
1, 482880, Note_on_c, 0, 48, 0
1, 482880, Note_on_c, 0, 39, 0
1, 482880, Note_on_c, 0, 84, 70
1, 482892, Note_on_c, 0, 79, 0
1, 483000, Tempo, 398063
1, 483000, Note_on_c, 0, 79, 63
1, 483012, Note_on_c, 0, 84, 0
1, 483120, Tempo, 382824
1, 483120, Note_on_c, 0, 77, 70
1, 483132, Note_on_c, 0, 79, 0
1, 483240, Note_on_c, 0, 75, 66
1, 483252, Note_on_c, 0, 77, 0
1, 483360, Note_on_c, 0, 74, 64
1, 483372, Note_on_c, 0, 75, 0
1, 483480, Note_on_c, 0, 75, 64
1, 483492, Note_on_c, 0, 74, 0
1, 483600, Note_on_c, 0, 79, 70
1, 483612, Note_on_c, 0, 75, 0
1, 483720, Tempo, 395439
1, 483720, Note_on_c, 0, 75, 64
1, 483732, Note_on_c, 0, 79, 0
1, 483840, Tempo, 380397
1, 483840, Note_on_c, 0, 74, 70
1, 483852, Note_on_c, 0, 75, 0
1, 483960, Note_on_c, 0, 72, 64
1, 483972, Note_on_c, 0, 74, 0
1, 484080, Note_on_c, 0, 71, 64
1, 484092, Note_on_c, 0, 72, 0
1, 484200, Note_on_c, 0, 72, 64
1, 484212, Note_on_c, 0, 71, 0
1, 484320, Note_on_c, 0, 75, 70
1, 484332, Note_on_c, 0, 72, 0
1, 484440, Tempo, 395439
1, 484440, Note_on_c, 0, 72, 65
1, 484452, Note_on_c, 0, 75, 0
1, 484560, Tempo, 382824
1, 484560, Note_on_c, 0, 68, 70
1, 484572, Note_on_c, 0, 72, 0
1, 484680, Note_on_c, 0, 67, 65
1, 484692, Note_on_c, 0, 68, 0
1, 484800, Note_on_c, 0, 66, 65
1, 484812, Note_on_c, 0, 67, 0
1, 484920, Note_on_c, 0, 67, 65
1, 484932, Note_on_c, 0, 66, 0
1, 485040, Note_on_c, 0, 72, 70
1, 485052, Note_on_c, 0, 67, 0
1, 485160, Tempo, 403416
1, 485160, Note_on_c, 0, 67, 65
1, 485172, Note_on_c, 0, 72, 0
1, 485280, Tempo, 380397
1, 485280, Note_on_c, 0, 65, 70
1, 485292, Note_on_c, 0, 67, 0
1, 485400, Note_on_c, 0, 63, 66
1, 485412, Note_on_c, 0, 65, 0
1, 485520, Tempo, 395439
1, 485520, Note_on_c, 0, 62, 66
1, 485532, Note_on_c, 0, 63, 0
1, 485640, Note_on_c, 0, 63, 66
1, 485652, Note_on_c, 0, 62, 0
1, 485760, Note_on_c, 0, 67, 70
1, 485772, Note_on_c, 0, 63, 0
1, 485880, Tempo, 484927
1, 485880, Note_on_c, 0, 63, 64
1, 485892, Note_on_c, 0, 67, 0
1, 486000, Tempo, 410987
1, 486000, Note_on_c, 0, 60, 70
1, 486000, Note_on_c, 0, 51, 70
1, 486012, Note_on_c, 0, 63, 0
1, 486120, Tempo, 382190
1, 486120, Note_on_c, 0, 51, 0
1, 486120, Note_on_c, 0, 60, 0
1, 486120, Note_on_c, 0, 72, 64
1, 486240, Note_on_c, 0, 72, 0
1, 486240, Note_on_c, 0, 59, 70
1, 486240, Note_on_c, 0, 50, 66
1, 486360, Note_on_c, 0, 50, 0
1, 486360, Note_on_c, 0, 59, 0
1, 486360, Note_on_c, 0, 72, 64
1, 486480, Note_on_c, 0, 72, 0
1, 486480, Note_on_c, 0, 60, 70
1, 486480, Note_on_c, 0, 51, 66
1, 486600, Tempo, 406146
1, 486600, Note_on_c, 0, 51, 0
1, 486600, Note_on_c, 0, 60, 0
1, 486600, Note_on_c, 0, 72, 64
1, 486720, Tempo, 382824
1, 486720, Note_on_c, 0, 72, 0
1, 486720, Note_on_c, 0, 62, 70
1, 486720, Note_on_c, 0, 53, 70
1, 486840, Note_on_c, 0, 53, 0
1, 486840, Note_on_c, 0, 62, 0
1, 486840, Note_on_c, 0, 72, 64
1, 486960, Note_on_c, 0, 72, 0
1, 486960, Note_on_c, 0, 60, 65
1, 486960, Note_on_c, 0, 51, 67
1, 487080, Note_on_c, 0, 51, 0
1, 487080, Note_on_c, 0, 60, 0
1, 487080, Note_on_c, 0, 72, 58
1, 487200, Note_on_c, 0, 72, 0
1, 487200, Note_on_c, 0, 62, 67
1, 487200, Note_on_c, 0, 53, 67
1, 487320, Tempo, 403416
1, 487320, Note_on_c, 0, 53, 0
1, 487320, Note_on_c, 0, 62, 0
1, 487320, Note_on_c, 0, 72, 61
1, 487440, Tempo, 380397
1, 487440, Note_on_c, 0, 72, 0
1, 487440, Note_on_c, 0, 64, 70
1, 487440, Note_on_c, 0, 55, 70
1, 487560, Note_on_c, 0, 55, 0
1, 487560, Note_on_c, 0, 64, 0
1, 487560, Note_on_c, 0, 72, 60
1, 487680, Note_on_c, 0, 72, 0
1, 487680, Note_on_c, 0, 62, 66
1, 487680, Note_on_c, 0, 53, 67
1, 487800, Note_on_c, 0, 53, 0
1, 487800, Note_on_c, 0, 62, 0
1, 487800, Note_on_c, 0, 72, 62
1, 487920, Note_on_c, 0, 72, 0
1, 487920, Note_on_c, 0, 64, 67
1, 487920, Note_on_c, 0, 55, 67
1, 488040, Tempo, 458961
1, 488040, Note_on_c, 0, 55, 0
1, 488040, Note_on_c, 0, 64, 0
1, 488040, Note_on_c, 0, 72, 62
1, 488160, Tempo, 385282
1, 488160, Note_on_c, 0, 72, 0
1, 488160, Note_on_c, 0, 65, 74
1, 488160, Note_on_c, 0, 56, 74
1, 488280, Note_on_c, 0, 65, 0
1, 488280, Note_on_c, 0, 72, 61
1, 488400, Note_on_c, 0, 72, 0
1, 488400, Note_on_c, 0, 65, 65
1, 488520, Note_on_c, 0, 65, 0
1, 488520, Note_on_c, 0, 72, 61
1, 488640, Note_on_c, 0, 72, 0
1, 488640, Note_on_c, 0, 56, 0
1, 488640, Note_on_c, 0, 63, 65
1, 488640, Note_on_c, 0, 55, 67
1, 488760, Tempo, 414565
1, 488760, Note_on_c, 0, 55, 0
1, 488760, Note_on_c, 0, 63, 0
1, 488760, Note_on_c, 0, 72, 60
1, 488880, Tempo, 382824
1, 488880, Note_on_c, 0, 72, 0
1, 488880, Note_on_c, 0, 65, 70
1, 488880, Note_on_c, 0, 56, 74
1, 489000, Note_on_c, 0, 65, 0
1, 489000, Note_on_c, 0, 72, 60
1, 489120, Note_on_c, 0, 72, 0
1, 489120, Note_on_c, 0, 65, 65
1, 489240, Note_on_c, 0, 65, 0
1, 489240, Note_on_c, 0, 72, 60
1, 489360, Note_on_c, 0, 72, 0
1, 489360, Note_on_c, 0, 56, 0
1, 489360, Note_on_c, 0, 63, 65
1, 489360, Note_on_c, 0, 55, 66
1, 489480, Tempo, 411720
1, 489480, Note_on_c, 0, 55, 0
1, 489480, Note_on_c, 0, 63, 0
1, 489480, Note_on_c, 0, 72, 54
1, 489600, Tempo, 382824
1, 489600, Note_on_c, 0, 72, 0
1, 489600, Note_on_c, 0, 62, 49
1, 489600, Note_on_c, 0, 54, 44
1, 489720, Note_on_c, 0, 72, 43
1, 489840, Note_on_c, 0, 72, 0
1, 489840, Note_on_c, 0, 63, 52
1, 489840, Note_on_c, 0, 55, 38
1, 489850, Note_on_c, 0, 54, 0
1, 489850, Note_on_c, 0, 62, 0
1, 489960, Note_on_c, 0, 72, 45
1, 490080, Note_on_c, 0, 72, 0
1, 490080, Note_on_c, 0, 63, 0
1, 490080, Note_on_c, 0, 55, 0
1, 490080, Note_on_c, 0, 62, 55
1, 490080, Note_on_c, 0, 54, 55
1, 490200, Note_on_c, 0, 72, 52
1, 490320, Note_on_c, 0, 72, 0
1, 490320, Note_on_c, 0, 63, 59
1, 490320, Note_on_c, 0, 55, 60
1, 490330, Note_on_c, 0, 54, 0
1, 490330, Note_on_c, 0, 62, 0
1, 490440, Tempo, 407941
1, 490440, Note_on_c, 0, 72, 59
1, 490560, Tempo, 381971
1, 490560, Note_on_c, 0, 72, 0
1, 490560, Note_on_c, 0, 63, 0
1, 490560, Note_on_c, 0, 55, 0
1, 490560, Note_on_c, 0, 65, 66
1, 490560, Note_on_c, 0, 56, 63
1, 490680, Note_on_c, 0, 72, 55
1, 490800, Note_on_c, 0, 72, 0
1, 490800, Note_on_c, 0, 63, 52
1, 490800, Note_on_c, 0, 55, 47
1, 490810, Note_on_c, 0, 56, 0
1, 490810, Note_on_c, 0, 65, 0
1, 490920, Tempo, 414565
1, 490920, Note_on_c, 0, 72, 43
1, 491040, Tempo, 381971
1, 491040, Note_on_c, 0, 72, 0
1, 491040, Note_on_c, 0, 63, 0
1, 491040, Note_on_c, 0, 55, 0
1, 491040, Note_on_c, 0, 62, 50
1, 491040, Note_on_c, 0, 54, 47
1, 491160, Note_on_c, 0, 72, 44
1, 491280, Note_on_c, 0, 72, 0
1, 491280, Note_on_c, 0, 63, 54
1, 491280, Note_on_c, 0, 55, 42
1, 491290, Note_on_c, 0, 54, 0
1, 491290, Note_on_c, 0, 62, 0
1, 491400, Note_on_c, 0, 72, 49
1, 491520, Note_on_c, 0, 72, 0
1, 491520, Note_on_c, 0, 63, 0
1, 491520, Note_on_c, 0, 55, 0
1, 491520, Note_on_c, 0, 62, 57
1, 491520, Note_on_c, 0, 54, 59
1, 491640, Note_on_c, 0, 72, 53
1, 491760, Note_on_c, 0, 72, 0
1, 491760, Note_on_c, 0, 63, 59
1, 491760, Note_on_c, 0, 55, 53
1, 491770, Note_on_c, 0, 54, 0
1, 491770, Note_on_c, 0, 62, 0
1, 491880, Tempo, 405186
1, 491880, Note_on_c, 0, 72, 55
1, 492000, Tempo, 381971
1, 492000, Note_on_c, 0, 72, 0
1, 492000, Note_on_c, 0, 63, 0
1, 492000, Note_on_c, 0, 55, 0
1, 492000, Note_on_c, 0, 65, 64
1, 492000, Note_on_c, 0, 56, 64
1, 492120, Note_on_c, 0, 72, 54
1, 492240, Note_on_c, 0, 72, 0
1, 492240, Note_on_c, 0, 63, 56
1, 492240, Note_on_c, 0, 55, 41
1, 492250, Note_on_c, 0, 56, 0
1, 492250, Note_on_c, 0, 65, 0
1, 492360, Tempo, 414565
1, 492360, Note_on_c, 0, 72, 43
1, 492480, Note_on_c, 0, 72, 0
1, 492480, Note_on_c, 0, 63, 0
1, 492480, Note_on_c, 0, 55, 0
1, 492480, Note_on_c, 0, 62, 60
1, 492570, Note_on_c, 0, 62, 0
1, 492600, Tempo, 391952
1, 492600, Note_on_c, 0, 54, 42
1, 492720, Note_on_c, 0, 54, 0
1, 492720, Note_on_c, 0, 57, 44
1, 492840, Note_on_c, 0, 57, 0
1, 492840, Note_on_c, 0, 60, 46
1, 492960, Tempo, 413565
1, 492960, Note_on_c, 0, 60, 0
1, 492960, Note_on_c, 0, 62, 48
1, 493080, Tempo, 391952
1, 493080, Note_on_c, 0, 62, 0
1, 493080, Note_on_c, 0, 66, 51
1, 493200, Tempo, 413565
1, 493200, Note_on_c, 0, 66, 0
1, 493200, Note_on_c, 0, 72, 55
1, 493206, Control_c, 0, 64, 127
1, 493290, Note_on_c, 0, 72, 0
1, 493320, Tempo, 389408
1, 493320, Note_on_c, 0, 62, 48
1, 493440, Note_on_c, 0, 62, 0
1, 493440, Note_on_c, 0, 66, 51
1, 493560, Note_on_c, 0, 66, 0
1, 493560, Note_on_c, 0, 69, 53
1, 493680, Tempo, 410734
1, 493680, Note_on_c, 0, 69, 0
1, 493680, Note_on_c, 0, 72, 56
1, 493770, Note_on_c, 0, 72, 0
1, 493800, Tempo, 389408
1, 493800, Note_on_c, 0, 78, 53
1, 493920, Note_on_c, 0, 78, 0
1, 493920, Note_on_c, 0, 84, 62
1, 493920, Control_c, 0, 64, 0
1, 494040, Note_on_c, 0, 84, 0
1, 494040, Note_on_c, 0, 82, 61
1, 494160, Note_on_c, 0, 82, 0
1, 494160, Note_on_c, 0, 81, 60
1, 494280, Note_on_c, 0, 81, 0
1, 494280, Note_on_c, 0, 79, 59
1, 494400, Note_on_c, 0, 79, 0
1, 494400, Note_on_c, 0, 78, 58
1, 494520, Note_on_c, 0, 78, 0
1, 494520, Note_on_c, 0, 79, 55
1, 494640, Note_on_c, 0, 79, 0
1, 494640, Note_on_c, 0, 78, 59
1, 494760, Tempo, 407941
1, 494760, Note_on_c, 0, 78, 0
1, 494760, Note_on_c, 0, 79, 55
1, 494880, Tempo, 389408
1, 494880, Note_on_c, 0, 79, 0
1, 494880, Note_on_c, 0, 78, 58
1, 495000, Note_on_c, 0, 78, 0
1, 495000, Note_on_c, 0, 75, 57
1, 495120, Note_on_c, 0, 75, 0
1, 495120, Note_on_c, 0, 74, 56
1, 495240, Note_on_c, 0, 74, 0
1, 495240, Note_on_c, 0, 72, 55
1, 495360, Tempo, 382824
1, 495360, Note_on_c, 0, 72, 0
1, 495360, Note_on_c, 0, 71, 49
1, 495360, Note_on_c, 0, 55, 44
1, 495480, Note_on_c, 0, 77, 43
1, 495600, Note_on_c, 0, 77, 0
1, 495600, Note_on_c, 0, 72, 52
1, 495600, Note_on_c, 0, 56, 38
1, 495610, Note_on_c, 0, 55, 0
1, 495610, Note_on_c, 0, 71, 0
1, 495720, Note_on_c, 0, 77, 45
1, 495840, Note_on_c, 0, 77, 0
1, 495840, Note_on_c, 0, 72, 0
1, 495840, Note_on_c, 0, 56, 0
1, 495840, Note_on_c, 0, 71, 55
1, 495840, Note_on_c, 0, 55, 55
1, 495960, Note_on_c, 0, 77, 52
1, 496080, Note_on_c, 0, 77, 0
1, 496080, Note_on_c, 0, 72, 62
1, 496080, Note_on_c, 0, 56, 55
1, 496090, Note_on_c, 0, 55, 0
1, 496090, Note_on_c, 0, 71, 0
1, 496200, Tempo, 407941
1, 496200, Note_on_c, 0, 77, 60
1, 496320, Tempo, 381971
1, 496320, Note_on_c, 0, 77, 0
1, 496320, Note_on_c, 0, 72, 0
1, 496320, Note_on_c, 0, 56, 0
1, 496320, Note_on_c, 0, 73, 67
1, 496320, Note_on_c, 0, 58, 63
1, 496440, Note_on_c, 0, 77, 55
1, 496560, Note_on_c, 0, 77, 0
1, 496560, Note_on_c, 0, 72, 52
1, 496560, Note_on_c, 0, 56, 47
1, 496570, Note_on_c, 0, 58, 0
1, 496570, Note_on_c, 0, 73, 0
1, 496680, Tempo, 414565
1, 496680, Note_on_c, 0, 77, 43
1, 496800, Tempo, 381971
1, 496800, Note_on_c, 0, 77, 0
1, 496800, Note_on_c, 0, 72, 0
1, 496800, Note_on_c, 0, 56, 0
1, 496800, Note_on_c, 0, 71, 50
1, 496800, Note_on_c, 0, 55, 47
1, 496920, Note_on_c, 0, 77, 44
1, 497040, Note_on_c, 0, 77, 0
1, 497040, Note_on_c, 0, 72, 54
1, 497040, Note_on_c, 0, 56, 42
1, 497050, Note_on_c, 0, 55, 0
1, 497050, Note_on_c, 0, 71, 0
1, 497160, Note_on_c, 0, 77, 49
1, 497280, Note_on_c, 0, 77, 0
1, 497280, Note_on_c, 0, 72, 0
1, 497280, Note_on_c, 0, 56, 0
1, 497280, Note_on_c, 0, 71, 57
1, 497280, Note_on_c, 0, 55, 59
1, 497400, Note_on_c, 0, 77, 53
1, 497520, Note_on_c, 0, 77, 0
1, 497520, Note_on_c, 0, 72, 63
1, 497520, Note_on_c, 0, 56, 53
1, 497530, Note_on_c, 0, 55, 0
1, 497530, Note_on_c, 0, 71, 0
1, 497640, Tempo, 405186
1, 497640, Note_on_c, 0, 77, 55
1, 497760, Tempo, 381971
1, 497760, Note_on_c, 0, 77, 0
1, 497760, Note_on_c, 0, 72, 0
1, 497760, Note_on_c, 0, 56, 0
1, 497760, Note_on_c, 0, 73, 68
1, 497760, Note_on_c, 0, 58, 64
1, 497880, Note_on_c, 0, 77, 54
1, 498000, Note_on_c, 0, 77, 0
1, 498000, Note_on_c, 0, 72, 56
1, 498000, Note_on_c, 0, 56, 41
1, 498010, Note_on_c, 0, 58, 0
1, 498010, Note_on_c, 0, 73, 0
1, 498120, Tempo, 414565
1, 498120, Note_on_c, 0, 77, 43
1, 498240, Note_on_c, 0, 77, 0
1, 498240, Note_on_c, 0, 72, 0
1, 498240, Note_on_c, 0, 56, 0
1, 498240, Note_on_c, 0, 71, 60
1, 498330, Note_on_c, 0, 71, 0
1, 498360, Tempo, 391952
1, 498360, Note_on_c, 0, 55, 42
1, 498480, Note_on_c, 0, 55, 0
1, 498480, Note_on_c, 0, 59, 44
1, 498600, Note_on_c, 0, 59, 0
1, 498600, Note_on_c, 0, 62, 46
1, 498720, Tempo, 413565
1, 498720, Note_on_c, 0, 62, 0
1, 498720, Note_on_c, 0, 65, 48
1, 498840, Tempo, 391952
1, 498840, Note_on_c, 0, 65, 0
1, 498840, Note_on_c, 0, 71, 51
1, 498960, Tempo, 413565
1, 498960, Note_on_c, 0, 71, 0
1, 498960, Note_on_c, 0, 77, 55
1, 499050, Note_on_c, 0, 77, 0
1, 499052, Control_c, 0, 64, 127
1, 499080, Tempo, 389408
1, 499080, Note_on_c, 0, 67, 48
1, 499200, Note_on_c, 0, 67, 0
1, 499200, Note_on_c, 0, 71, 51
1, 499320, Note_on_c, 0, 71, 0
1, 499320, Note_on_c, 0, 74, 53
1, 499440, Tempo, 410734
1, 499440, Note_on_c, 0, 74, 0
1, 499440, Note_on_c, 0, 77, 56
1, 499530, Note_on_c, 0, 77, 0
1, 499560, Tempo, 389408
1, 499560, Note_on_c, 0, 83, 53
1, 499680, Note_on_c, 0, 83, 0
1, 499680, Note_on_c, 0, 89, 62
1, 499680, Control_c, 0, 64, 0
1, 499800, Note_on_c, 0, 89, 0
1, 499800, Note_on_c, 0, 87, 61
1, 499920, Note_on_c, 0, 87, 0
1, 499920, Note_on_c, 0, 86, 60
1, 500040, Note_on_c, 0, 86, 0
1, 500040, Note_on_c, 0, 84, 59
1, 500160, Note_on_c, 0, 84, 0
1, 500160, Note_on_c, 0, 83, 58
1, 500280, Note_on_c, 0, 83, 0
1, 500280, Note_on_c, 0, 80, 55
1, 500400, Note_on_c, 0, 80, 0
1, 500400, Note_on_c, 0, 79, 59
1, 500520, Tempo, 407941
1, 500520, Note_on_c, 0, 79, 0
1, 500520, Note_on_c, 0, 78, 55
1, 500640, Tempo, 389408
1, 500640, Note_on_c, 0, 78, 0
1, 500640, Note_on_c, 0, 79, 58
1, 500760, Note_on_c, 0, 79, 0
1, 500760, Note_on_c, 0, 80, 57
1, 500880, Note_on_c, 0, 80, 0
1, 500880, Note_on_c, 0, 79, 56
1, 501000, Note_on_c, 0, 79, 0
1, 501000, Note_on_c, 0, 77, 55
1, 501120, Tempo, 382824
1, 501120, Note_on_c, 0, 77, 0
1, 501120, Note_on_c, 0, 76, 49
1, 501120, Note_on_c, 0, 60, 44
1, 501240, Note_on_c, 0, 67, 43
1, 501360, Note_on_c, 0, 67, 0
1, 501360, Note_on_c, 0, 77, 52
1, 501360, Note_on_c, 0, 59, 38
1, 501370, Note_on_c, 0, 60, 0
1, 501370, Note_on_c, 0, 76, 0
1, 501480, Note_on_c, 0, 67, 45
1, 501600, Note_on_c, 0, 67, 0
1, 501600, Note_on_c, 0, 77, 0
1, 501600, Note_on_c, 0, 59, 0
1, 501600, Note_on_c, 0, 76, 55
1, 501600, Note_on_c, 0, 60, 45
1, 501720, Note_on_c, 0, 67, 52
1, 501840, Note_on_c, 0, 67, 0
1, 501840, Note_on_c, 0, 77, 59
1, 501840, Note_on_c, 0, 61, 54
1, 501850, Note_on_c, 0, 60, 0
1, 501850, Note_on_c, 0, 76, 0
1, 501960, Tempo, 407941
1, 501960, Note_on_c, 0, 67, 53
1, 502080, Tempo, 381971
1, 502080, Note_on_c, 0, 67, 0
1, 502080, Note_on_c, 0, 77, 0
1, 502080, Note_on_c, 0, 61, 0
1, 502080, Note_on_c, 0, 76, 59
1, 502080, Note_on_c, 0, 60, 49
1, 502200, Note_on_c, 0, 67, 55
1, 502320, Note_on_c, 0, 67, 0
1, 502320, Note_on_c, 0, 77, 52
1, 502320, Note_on_c, 0, 59, 44
1, 502330, Note_on_c, 0, 60, 0
1, 502330, Note_on_c, 0, 76, 0
1, 502440, Tempo, 414565
1, 502440, Note_on_c, 0, 67, 43
1, 502560, Tempo, 381971
1, 502560, Note_on_c, 0, 67, 0
1, 502560, Note_on_c, 0, 77, 0
1, 502560, Note_on_c, 0, 59, 0
1, 502560, Note_on_c, 0, 76, 50
1, 502560, Note_on_c, 0, 60, 47
1, 502680, Note_on_c, 0, 67, 44
1, 502800, Note_on_c, 0, 67, 0
1, 502800, Note_on_c, 0, 77, 54
1, 502800, Note_on_c, 0, 59, 42
1, 502810, Note_on_c, 0, 60, 0
1, 502810, Note_on_c, 0, 76, 0
1, 502920, Note_on_c, 0, 67, 49
1, 503040, Note_on_c, 0, 67, 0
1, 503040, Note_on_c, 0, 77, 0
1, 503040, Note_on_c, 0, 59, 0
1, 503040, Note_on_c, 0, 76, 57
1, 503040, Note_on_c, 0, 60, 48
1, 503160, Note_on_c, 0, 67, 53
1, 503280, Note_on_c, 0, 67, 0
1, 503280, Note_on_c, 0, 77, 61
1, 503280, Note_on_c, 0, 61, 51
1, 503290, Note_on_c, 0, 60, 0
1, 503290, Note_on_c, 0, 76, 0
1, 503400, Tempo, 405186
1, 503400, Note_on_c, 0, 67, 55
1, 503520, Tempo, 381971
1, 503520, Note_on_c, 0, 67, 0
1, 503520, Note_on_c, 0, 77, 0
1, 503520, Note_on_c, 0, 61, 0
1, 503520, Note_on_c, 0, 76, 60
1, 503520, Note_on_c, 0, 60, 46
1, 503640, Note_on_c, 0, 67, 50
1, 503760, Note_on_c, 0, 67, 0
1, 503760, Note_on_c, 0, 77, 56
1, 503760, Note_on_c, 0, 59, 41
1, 503770, Note_on_c, 0, 60, 0
1, 503770, Note_on_c, 0, 76, 0
1, 503880, Tempo, 414565
1, 503880, Note_on_c, 0, 67, 43
1, 504000, Note_on_c, 0, 67, 0
1, 504000, Note_on_c, 0, 77, 0
1, 504000, Note_on_c, 0, 59, 0
1, 504000, Note_on_c, 0, 76, 60
1, 504090, Note_on_c, 0, 76, 0
1, 504120, Tempo, 391952
1, 504120, Note_on_c, 0, 48, 42
1, 504240, Note_on_c, 0, 48, 0
1, 504240, Note_on_c, 0, 52, 44
1, 504360, Note_on_c, 0, 52, 0
1, 504360, Note_on_c, 0, 55, 46
1, 504480, Tempo, 413565
1, 504480, Note_on_c, 0, 55, 0
1, 504480, Note_on_c, 0, 58, 48
1, 504600, Tempo, 391952
1, 504600, Note_on_c, 0, 58, 0
1, 504600, Note_on_c, 0, 64, 51
1, 504720, Tempo, 413565
1, 504720, Note_on_c, 0, 64, 0
1, 504720, Note_on_c, 0, 70, 55
1, 504810, Note_on_c, 0, 70, 0
1, 504840, Tempo, 389408
1, 504840, Note_on_c, 0, 60, 48
1, 504876, Control_c, 0, 64, 127
1, 504960, Note_on_c, 0, 60, 0
1, 504960, Note_on_c, 0, 64, 51
1, 505080, Note_on_c, 0, 64, 0
1, 505080, Note_on_c, 0, 67, 53
1, 505200, Tempo, 410734
1, 505200, Note_on_c, 0, 67, 0
1, 505200, Note_on_c, 0, 70, 56
1, 505290, Note_on_c, 0, 70, 0
1, 505320, Tempo, 389408
1, 505320, Note_on_c, 0, 76, 53
1, 505440, Note_on_c, 0, 76, 0
1, 505440, Note_on_c, 0, 82, 62
1, 505483, Control_c, 0, 64, 0
1, 505560, Note_on_c, 0, 82, 0
1, 505560, Note_on_c, 0, 81, 61
1, 505680, Note_on_c, 0, 81, 0
1, 505680, Note_on_c, 0, 79, 60
1, 505800, Note_on_c, 0, 79, 0
1, 505800, Note_on_c, 0, 77, 59
1, 505920, Note_on_c, 0, 77, 0
1, 505920, Note_on_c, 0, 76, 58
1, 506040, Note_on_c, 0, 76, 0
1, 506040, Note_on_c, 0, 74, 55
1, 506160, Note_on_c, 0, 74, 0
1, 506160, Note_on_c, 0, 72, 59
1, 506280, Tempo, 407941
1, 506280, Note_on_c, 0, 72, 0
1, 506280, Note_on_c, 0, 74, 55
1, 506400, Tempo, 389408
1, 506400, Note_on_c, 0, 74, 0
1, 506400, Note_on_c, 0, 72, 58
1, 506520, Note_on_c, 0, 72, 0
1, 506520, Note_on_c, 0, 70, 57
1, 506640, Note_on_c, 0, 70, 0
1, 506640, Note_on_c, 0, 69, 56
1, 506760, Note_on_c, 0, 69, 0
1, 506760, Note_on_c, 0, 67, 55
1, 506880, Tempo, 382824
1, 506880, Note_on_c, 0, 67, 0
1, 506880, Note_on_c, 0, 65, 49
1, 506880, Note_on_c, 0, 57, 44
1, 507000, Note_on_c, 0, 75, 43
1, 507120, Note_on_c, 0, 75, 0
1, 507120, Note_on_c, 0, 66, 52
1, 507120, Note_on_c, 0, 58, 38
1, 507130, Note_on_c, 0, 57, 0
1, 507130, Note_on_c, 0, 65, 0
1, 507240, Note_on_c, 0, 75, 45
1, 507360, Note_on_c, 0, 75, 0
1, 507360, Note_on_c, 0, 66, 0
1, 507360, Note_on_c, 0, 58, 0
1, 507360, Note_on_c, 0, 65, 55
1, 507360, Note_on_c, 0, 57, 55
1, 507480, Note_on_c, 0, 75, 52
1, 507600, Note_on_c, 0, 75, 0
1, 507600, Note_on_c, 0, 66, 62
1, 507600, Note_on_c, 0, 58, 55
1, 507610, Note_on_c, 0, 57, 0
1, 507610, Note_on_c, 0, 65, 0
1, 507720, Tempo, 407941
1, 507720, Note_on_c, 0, 75, 56
1, 507840, Tempo, 381971
1, 507840, Note_on_c, 0, 75, 0
1, 507840, Note_on_c, 0, 66, 0
1, 507840, Note_on_c, 0, 58, 0
1, 507840, Note_on_c, 0, 68, 65
1, 507840, Note_on_c, 0, 59, 63
1, 507960, Note_on_c, 0, 75, 55
1, 508080, Note_on_c, 0, 75, 0
1, 508080, Note_on_c, 0, 66, 52
1, 508080, Note_on_c, 0, 58, 47
1, 508090, Note_on_c, 0, 59, 0
1, 508090, Note_on_c, 0, 68, 0
1, 508200, Tempo, 414565
1, 508200, Note_on_c, 0, 75, 43
1, 508320, Tempo, 381971
1, 508320, Note_on_c, 0, 75, 0
1, 508320, Note_on_c, 0, 66, 0
1, 508320, Note_on_c, 0, 58, 0
1, 508320, Note_on_c, 0, 65, 50
1, 508320, Note_on_c, 0, 57, 47
1, 508440, Note_on_c, 0, 75, 44
1, 508560, Note_on_c, 0, 75, 0
1, 508560, Note_on_c, 0, 66, 54
1, 508560, Note_on_c, 0, 58, 42
1, 508570, Note_on_c, 0, 57, 0
1, 508570, Note_on_c, 0, 65, 0
1, 508680, Note_on_c, 0, 75, 49
1, 508800, Note_on_c, 0, 75, 0
1, 508800, Note_on_c, 0, 66, 0
1, 508800, Note_on_c, 0, 58, 0
1, 508800, Note_on_c, 0, 65, 57
1, 508800, Note_on_c, 0, 57, 59
1, 508920, Note_on_c, 0, 75, 53
1, 509040, Note_on_c, 0, 75, 0
1, 509040, Note_on_c, 0, 66, 63
1, 509040, Note_on_c, 0, 58, 53
1, 509050, Note_on_c, 0, 57, 0
1, 509050, Note_on_c, 0, 65, 0
1, 509160, Tempo, 405186
1, 509160, Note_on_c, 0, 75, 55
1, 509280, Tempo, 381971
1, 509280, Note_on_c, 0, 75, 0
1, 509280, Note_on_c, 0, 66, 0
1, 509280, Note_on_c, 0, 58, 0
1, 509280, Note_on_c, 0, 68, 66
1, 509280, Note_on_c, 0, 59, 64
1, 509400, Note_on_c, 0, 75, 54
1, 509520, Note_on_c, 0, 75, 0
1, 509520, Note_on_c, 0, 66, 56
1, 509520, Note_on_c, 0, 58, 41
1, 509530, Note_on_c, 0, 59, 0
1, 509530, Note_on_c, 0, 68, 0
1, 509640, Tempo, 414565
1, 509640, Note_on_c, 0, 75, 43
1, 509760, Note_on_c, 0, 75, 0
1, 509760, Note_on_c, 0, 66, 0
1, 509760, Note_on_c, 0, 58, 0
1, 509760, Note_on_c, 0, 65, 60
1, 509850, Note_on_c, 0, 65, 0
1, 509880, Tempo, 391952
1, 509880, Note_on_c, 0, 57, 42
1, 510000, Note_on_c, 0, 57, 0
1, 510000, Note_on_c, 0, 60, 44
1, 510120, Note_on_c, 0, 60, 0
1, 510120, Note_on_c, 0, 63, 46
1, 510240, Tempo, 413565
1, 510240, Note_on_c, 0, 63, 0
1, 510240, Note_on_c, 0, 65, 48
1, 510360, Tempo, 391952
1, 510360, Note_on_c, 0, 65, 0
1, 510360, Note_on_c, 0, 69, 51
1, 510480, Tempo, 413565
1, 510480, Note_on_c, 0, 69, 0
1, 510480, Note_on_c, 0, 75, 55
1, 510555, Control_c, 0, 64, 127
1, 510570, Note_on_c, 0, 75, 0
1, 510600, Tempo, 389408
1, 510600, Note_on_c, 0, 65, 48
1, 510720, Note_on_c, 0, 65, 0
1, 510720, Note_on_c, 0, 69, 51
1, 510840, Note_on_c, 0, 69, 0
1, 510840, Note_on_c, 0, 72, 53
1, 510960, Tempo, 410734
1, 510960, Note_on_c, 0, 72, 0
1, 510960, Note_on_c, 0, 75, 56
1, 511050, Note_on_c, 0, 75, 0
1, 511080, Tempo, 389408
1, 511080, Note_on_c, 0, 81, 53
1, 511200, Note_on_c, 0, 81, 0
1, 511200, Note_on_c, 0, 87, 62
1, 511200, Control_c, 0, 64, 0
1, 511320, Note_on_c, 0, 87, 0
1, 511320, Note_on_c, 0, 86, 61
1, 511440, Note_on_c, 0, 86, 0
1, 511440, Note_on_c, 0, 84, 60
1, 511560, Note_on_c, 0, 84, 0
1, 511560, Note_on_c, 0, 82, 59
1, 511680, Note_on_c, 0, 82, 0
1, 511680, Note_on_c, 0, 81, 58
1, 511800, Note_on_c, 0, 81, 0
1, 511800, Note_on_c, 0, 79, 55
1, 511920, Note_on_c, 0, 79, 0
1, 511920, Note_on_c, 0, 77, 59
1, 512040, Tempo, 407941
1, 512040, Note_on_c, 0, 77, 0
1, 512040, Note_on_c, 0, 79, 55
1, 512160, Tempo, 389408
1, 512160, Note_on_c, 0, 79, 0
1, 512160, Note_on_c, 0, 77, 56
1, 512280, Note_on_c, 0, 77, 0
1, 512280, Note_on_c, 0, 75, 54
1, 512400, Note_on_c, 0, 75, 0
1, 512400, Note_on_c, 0, 74, 52
1, 512520, Tempo, 457736
1, 512520, Note_on_c, 0, 74, 0
1, 512520, Note_on_c, 0, 72, 50
1, 512640, Tempo, 389408
1, 512640, Note_on_c, 0, 72, 0
1, 512640, Note_on_c, 0, 74, 54
1, 512640, Note_on_c, 0, 58, 29
1, 512640, Control_c, 0, 64, 127
1, 512880, Note_on_c, 0, 58, 0
1, 512880, Note_on_c, 0, 74, 0
1, 512880, Note_on_c, 0, 62, 25
1, 513120, Note_on_c, 0, 62, 0
1, 513120, Note_on_c, 0, 74, 42
1, 513120, Note_on_c, 0, 65, 25
1, 513360, Note_on_c, 0, 65, 0
1, 513360, Note_on_c, 0, 74, 0
1, 513360, Note_on_c, 0, 72, 46
1, 513360, Note_on_c, 0, 57, 30
1, 513368, Control_c, 0, 64, 0
1, 513507, Control_c, 0, 64, 127
1, 513600, Note_on_c, 0, 57, 0
1, 513600, Note_on_c, 0, 72, 0
1, 513600, Note_on_c, 0, 60, 26
1, 513840, Note_on_c, 0, 60, 0
1, 513840, Note_on_c, 0, 72, 45
1, 513840, Note_on_c, 0, 65, 26
1, 513960, Tempo, 413565
1, 514080, Tempo, 389408
1, 514080, Note_on_c, 0, 65, 0
1, 514080, Note_on_c, 0, 72, 0
1, 514080, Note_on_c, 0, 75, 52
1, 514080, Note_on_c, 0, 55, 30
1, 514085, Control_c, 0, 64, 0
1, 514206, Control_c, 0, 64, 127
1, 514320, Note_on_c, 0, 55, 0
1, 514320, Note_on_c, 0, 58, 27
1, 514560, Tempo, 381971
1, 514560, Note_on_c, 0, 58, 0
1, 514560, Note_on_c, 0, 63, 27
1, 514800, Note_on_c, 0, 63, 0
1, 514800, Note_on_c, 0, 54, 29
1, 514811, Control_c, 0, 64, 0
1, 514920, Tempo, 389408
1, 514960, Control_c, 0, 64, 127
1, 515040, Tempo, 386897
1, 515040, Note_on_c, 0, 54, 0
1, 515040, Note_on_c, 0, 57, 25
1, 515280, Note_on_c, 0, 57, 0
1, 515280, Note_on_c, 0, 75, 0
1, 515280, Note_on_c, 0, 74, 42
1, 515280, Note_on_c, 0, 62, 25
1, 515400, Tempo, 405186
1, 515520, Tempo, 389408
1, 515520, Note_on_c, 0, 62, 0
1, 515520, Note_on_c, 0, 74, 0
1, 515520, Note_on_c, 0, 75, 46
1, 515520, Note_on_c, 0, 55, 32
1, 515525, Control_c, 0, 64, 0
1, 515669, Control_c, 0, 64, 127
1, 515760, Tempo, 386897
1, 515760, Note_on_c, 0, 55, 0
1, 515760, Note_on_c, 0, 75, 0
1, 515760, Note_on_c, 0, 58, 25
1, 516000, Note_on_c, 0, 58, 0
1, 516000, Note_on_c, 0, 75, 42
1, 516000, Note_on_c, 0, 63, 25
1, 516120, Tempo, 394529
1, 516240, Tempo, 389408
1, 516240, Note_on_c, 0, 63, 0
1, 516240, Note_on_c, 0, 75, 0
1, 516240, Note_on_c, 0, 74, 43
1, 516240, Note_on_c, 0, 53, 31
1, 516252, Control_c, 0, 64, 0
1, 516412, Control_c, 0, 64, 127
1, 516480, Note_on_c, 0, 53, 0
1, 516480, Note_on_c, 0, 74, 0
1, 516480, Note_on_c, 0, 57, 27
1, 516720, Note_on_c, 0, 57, 0
1, 516720, Note_on_c, 0, 74, 43
1, 516720, Note_on_c, 0, 62, 27
1, 516840, Tempo, 402468
1, 516960, Tempo, 389408
1, 516960, Note_on_c, 0, 62, 0
1, 516960, Note_on_c, 0, 74, 0
1, 516960, Note_on_c, 0, 79, 52
1, 516960, Note_on_c, 0, 51, 37
1, 516963, Control_c, 0, 64, 0
1, 517097, Control_c, 0, 64, 127
1, 517200, Tempo, 386897
1, 517200, Note_on_c, 0, 51, 0
1, 517200, Note_on_c, 0, 55, 32
1, 517440, Tempo, 399787
1, 517440, Note_on_c, 0, 55, 0
1, 517440, Note_on_c, 0, 60, 32
1, 517560, Tempo, 389408
1, 517680, Note_on_c, 0, 60, 0
1, 517680, Note_on_c, 0, 50, 34
1, 517692, Control_c, 0, 64, 0
1, 517806, Control_c, 0, 64, 127
1, 517920, Note_on_c, 0, 50, 0
1, 517920, Note_on_c, 0, 53, 28
1, 518160, Note_on_c, 0, 53, 0
1, 518160, Note_on_c, 0, 79, 0
1, 518160, Note_on_c, 0, 77, 44
1, 518160, Note_on_c, 0, 58, 24
1, 518280, Tempo, 407941
1, 518400, Tempo, 386897
1, 518400, Note_on_c, 0, 58, 0
1, 518400, Note_on_c, 0, 77, 0
1, 518400, Note_on_c, 0, 77, 47
1, 518400, Note_on_c, 0, 48, 32
1, 518410, Control_c, 0, 64, 0
1, 518520, Tempo, 399787
1, 518560, Control_c, 0, 64, 127
1, 518640, Tempo, 391952
1, 518640, Note_on_c, 0, 48, 0
1, 518640, Note_on_c, 0, 77, 0
1, 518640, Note_on_c, 0, 76, 44
1, 518640, Note_on_c, 0, 55, 27
1, 518880, Note_on_c, 0, 55, 0
1, 518880, Note_on_c, 0, 76, 0
1, 518880, Note_on_c, 0, 72, 48
1, 518880, Note_on_c, 0, 58, 27
1, 519120, Note_on_c, 0, 58, 0
1, 519120, Note_on_c, 0, 53, 33
1, 519130, Control_c, 0, 64, 0
1, 519292, Control_c, 0, 64, 127
1, 519360, Tempo, 384418
1, 519360, Note_on_c, 0, 53, 0
1, 519360, Note_on_c, 0, 72, 0
1, 519360, Note_on_c, 0, 74, 45
1, 519360, Note_on_c, 0, 57, 29
1, 519600, Note_on_c, 0, 57, 0
1, 519600, Note_on_c, 0, 74, 0
1, 519600, Note_on_c, 0, 75, 45
1, 519600, Note_on_c, 0, 60, 29
1, 519720, Tempo, 405186
1, 519836, Note_on_c, 0, 75, 0
1, 519840, Tempo, 391952
1, 519840, Note_on_c, 0, 60, 0
1, 519840, Note_on_c, 0, 75, 45
1, 519840, Note_on_c, 0, 46, 36
1, 519846, Control_c, 0, 64, 0
1, 519989, Control_c, 0, 64, 127
1, 520080, Note_on_c, 0, 46, 0
1, 520080, Note_on_c, 0, 75, 0
1, 520080, Note_on_c, 0, 74, 42
1, 520080, Note_on_c, 0, 53, 31
1, 520320, Note_on_c, 0, 53, 0
1, 520320, Note_on_c, 0, 74, 0
1, 520320, Note_on_c, 0, 70, 46
1, 520320, Note_on_c, 0, 58, 29
1, 520560, Note_on_c, 0, 58, 0
1, 520560, Note_on_c, 0, 54, 33
1, 520570, Control_c, 0, 64, 0
1, 520680, Tempo, 402468
1, 520686, Control_c, 0, 64, 127
1, 520800, Tempo, 416435
1, 520800, Note_on_c, 0, 54, 0
1, 520800, Note_on_c, 0, 70, 0
1, 520800, Note_on_c, 0, 72, 46
1, 520800, Note_on_c, 0, 58, 33
1, 520920, Tempo, 391952
1, 521040, Note_on_c, 0, 58, 0
1, 521040, Note_on_c, 0, 72, 0
1, 521040, Note_on_c, 0, 73, 51
1, 521040, Note_on_c, 0, 61, 33
1, 521280, Note_on_c, 0, 61, 0
1, 521280, Note_on_c, 0, 51, 39
1, 521286, Control_c, 0, 64, 0
1, 521400, Tempo, 413565
1, 521429, Control_c, 0, 64, 127
1, 521520, Tempo, 391952
1, 521520, Note_on_c, 0, 51, 0
1, 521520, Note_on_c, 0, 73, 0
1, 521520, Note_on_c, 0, 72, 51
1, 521520, Note_on_c, 0, 54, 35
1, 521760, Note_on_c, 0, 54, 0
1, 521760, Note_on_c, 0, 72, 0
1, 521760, Note_on_c, 0, 73, 55
1, 521760, Note_on_c, 0, 58, 36
1, 522000, Note_on_c, 0, 58, 0
1, 522000, Note_on_c, 0, 52, 45
1, 522008, Control_c, 0, 64, 0
1, 522183, Control_c, 0, 64, 127
1, 522240, Note_on_c, 0, 52, 0
1, 522240, Note_on_c, 0, 73, 0
1, 522240, Note_on_c, 0, 72, 50
1, 522240, Note_on_c, 0, 55, 38
1, 522480, Tempo, 386897
1, 522480, Note_on_c, 0, 55, 0
1, 522480, Note_on_c, 0, 72, 0
1, 522480, Note_on_c, 0, 70, 51
1, 522480, Note_on_c, 0, 61, 39
1, 522600, Tempo, 413565
1, 522720, Tempo, 405186
1, 522720, Note_on_c, 0, 61, 0
1, 522720, Note_on_c, 0, 70, 0
1, 522720, Note_on_c, 0, 69, 57
1, 522720, Note_on_c, 0, 53, 47
1, 522725, Control_c, 0, 64, 0
1, 522869, Control_c, 0, 64, 127
1, 522960, Note_on_c, 0, 53, 0
1, 522960, Note_on_c, 0, 57, 40
1, 523200, Note_on_c, 0, 57, 0
1, 523200, Note_on_c, 0, 60, 40
1, 523440, Note_on_c, 0, 60, 0
1, 523440, Note_on_c, 0, 69, 0
1, 523440, Note_on_c, 0, 72, 55
1, 523440, Note_on_c, 0, 53, 48
1, 523446, Control_c, 0, 64, 0
1, 523589, Control_c, 0, 64, 127
1, 523680, Note_on_c, 0, 53, 0
1, 523680, Note_on_c, 0, 72, 0
1, 523680, Note_on_c, 0, 51, 42
1, 523920, Note_on_c, 0, 51, 0
1, 523920, Note_on_c, 0, 48, 43
1, 524160, Tempo, 389408
1, 524160, Note_on_c, 0, 48, 0
1, 524160, Note_on_c, 0, 74, 75
1, 524160, Note_on_c, 0, 58, 58
1, 524160, Note_on_c, 0, 46, 49
1, 524169, Control_c, 0, 64, 0
1, 524266, Control_c, 0, 64, 127
1, 524280, Note_on_c, 0, 74, 0
1, 524280, Note_on_c, 0, 70, 57
1, 524400, Note_on_c, 0, 70, 0
1, 524400, Note_on_c, 0, 65, 57
1, 524520, Note_on_c, 0, 65, 0
1, 524520, Note_on_c, 0, 70, 57
1, 524640, Note_on_c, 0, 70, 0
1, 524640, Note_on_c, 0, 46, 0
1, 524640, Note_on_c, 0, 58, 0
1, 524640, Note_on_c, 0, 74, 57
1, 524760, Note_on_c, 0, 74, 0
1, 524760, Note_on_c, 0, 70, 57
1, 524880, Note_on_c, 0, 70, 0
1, 524880, Note_on_c, 0, 72, 73
1, 524880, Note_on_c, 0, 45, 49
1, 524880, Note_on_c, 0, 57, 58
1, 524891, Control_c, 0, 64, 0
1, 524972, Control_c, 0, 64, 127
1, 525000, Note_on_c, 0, 72, 0
1, 525000, Note_on_c, 0, 69, 56
1, 525120, Note_on_c, 0, 69, 0
1, 525120, Note_on_c, 0, 65, 56
1, 525240, Note_on_c, 0, 65, 0
1, 525240, Note_on_c, 0, 69, 56
1, 525360, Note_on_c, 0, 69, 0
1, 525360, Note_on_c, 0, 57, 0
1, 525360, Note_on_c, 0, 45, 0
1, 525360, Note_on_c, 0, 72, 56
1, 525480, Tempo, 413565
1, 525480, Note_on_c, 0, 72, 0
1, 525480, Note_on_c, 0, 69, 56
1, 525600, Tempo, 389408
1, 525600, Note_on_c, 0, 69, 0
1, 525600, Note_on_c, 0, 75, 76
1, 525600, Note_on_c, 0, 43, 49
1, 525600, Note_on_c, 0, 55, 58
1, 525606, Control_c, 0, 64, 0
1, 525686, Control_c, 0, 64, 127
1, 525720, Note_on_c, 0, 75, 0
1, 525720, Note_on_c, 0, 70, 55
1, 525840, Note_on_c, 0, 70, 0
1, 525840, Note_on_c, 0, 67, 55
1, 525960, Note_on_c, 0, 67, 0
1, 525960, Note_on_c, 0, 70, 55
1, 526080, Tempo, 381971
1, 526080, Note_on_c, 0, 70, 0
1, 526080, Note_on_c, 0, 75, 60
1, 526200, Note_on_c, 0, 75, 0
1, 526200, Note_on_c, 0, 70, 53
1, 526320, Note_on_c, 0, 70, 0
1, 526320, Note_on_c, 0, 75, 59
1, 526440, Tempo, 389408
1, 526440, Note_on_c, 0, 75, 0
1, 526440, Note_on_c, 0, 70, 52
1, 526560, Tempo, 386897
1, 526560, Note_on_c, 0, 70, 0
1, 526560, Note_on_c, 0, 75, 60
1, 526680, Note_on_c, 0, 75, 0
1, 526680, Note_on_c, 0, 70, 48
1, 526800, Note_on_c, 0, 70, 0
1, 526800, Note_on_c, 0, 55, 0
1, 526800, Note_on_c, 0, 43, 0
1, 526800, Note_on_c, 0, 74, 74
1, 526800, Note_on_c, 0, 54, 57
1, 526800, Note_on_c, 0, 42, 48
1, 526805, Control_c, 0, 64, 0
1, 526886, Control_c, 0, 64, 127
1, 526920, Tempo, 405186
1, 526920, Note_on_c, 0, 74, 0
1, 526920, Note_on_c, 0, 69, 51
1, 527040, Tempo, 389408
1, 527040, Note_on_c, 0, 69, 0
1, 527040, Note_on_c, 0, 42, 0
1, 527040, Note_on_c, 0, 54, 0
1, 527040, Note_on_c, 0, 75, 78
1, 527040, Note_on_c, 0, 55, 57
1, 527040, Note_on_c, 0, 43, 48
1, 527063, Control_c, 0, 64, 0
1, 527103, Control_c, 0, 64, 127
1, 527160, Note_on_c, 0, 75, 0
1, 527160, Note_on_c, 0, 70, 53
1, 527280, Tempo, 386897
1, 527280, Note_on_c, 0, 70, 0
1, 527280, Note_on_c, 0, 67, 54
1, 527400, Note_on_c, 0, 67, 0
1, 527400, Note_on_c, 0, 70, 54
1, 527520, Note_on_c, 0, 70, 0
1, 527520, Note_on_c, 0, 43, 0
1, 527520, Note_on_c, 0, 55, 0
1, 527520, Note_on_c, 0, 75, 60
1, 527640, Tempo, 394529
1, 527640, Note_on_c, 0, 75, 0
1, 527640, Note_on_c, 0, 70, 54
1, 527760, Tempo, 389408
1, 527760, Note_on_c, 0, 70, 0
1, 527760, Note_on_c, 0, 74, 64
1, 527760, Note_on_c, 0, 41, 48
1, 527760, Note_on_c, 0, 53, 57
1, 527771, Control_c, 0, 64, 0
1, 527840, Control_c, 0, 64, 127
1, 527880, Note_on_c, 0, 74, 0
1, 527880, Note_on_c, 0, 69, 52
1, 528000, Note_on_c, 0, 69, 0
1, 528000, Note_on_c, 0, 65, 53
1, 528120, Note_on_c, 0, 65, 0
1, 528120, Note_on_c, 0, 69, 53
1, 528240, Note_on_c, 0, 69, 0
1, 528240, Note_on_c, 0, 53, 0
1, 528240, Note_on_c, 0, 41, 0
1, 528240, Note_on_c, 0, 74, 73
1, 528360, Tempo, 402468
1, 528360, Note_on_c, 0, 74, 0
1, 528360, Note_on_c, 0, 69, 57
1, 528480, Tempo, 389408
1, 528480, Note_on_c, 0, 69, 0
1, 528480, Note_on_c, 0, 79, 75
1, 528480, Note_on_c, 0, 51, 47
1, 528480, Note_on_c, 0, 39, 39
1, 528485, Control_c, 0, 64, 0
1, 528600, Note_on_c, 0, 79, 0
1, 528600, Note_on_c, 0, 70, 52
1, 528650, Control_c, 0, 64, 127
1, 528720, Tempo, 386897
1, 528720, Note_on_c, 0, 70, 0
1, 528720, Note_on_c, 0, 67, 52
1, 528840, Note_on_c, 0, 67, 0
1, 528840, Note_on_c, 0, 70, 52
1, 528960, Tempo, 399787
1, 528960, Note_on_c, 0, 70, 0
1, 528960, Note_on_c, 0, 79, 61
1, 529080, Tempo, 389408
1, 529080, Note_on_c, 0, 79, 0
1, 529080, Note_on_c, 0, 70, 51
1, 529200, Note_on_c, 0, 70, 0
1, 529200, Note_on_c, 0, 79, 63
1, 529320, Note_on_c, 0, 79, 0
1, 529320, Note_on_c, 0, 70, 52
1, 529440, Note_on_c, 0, 70, 0
1, 529440, Note_on_c, 0, 79, 65
1, 529560, Note_on_c, 0, 79, 0
1, 529560, Note_on_c, 0, 70, 53
1, 529680, Note_on_c, 0, 70, 0
1, 529680, Note_on_c, 0, 39, 0
1, 529680, Note_on_c, 0, 51, 0
1, 529680, Note_on_c, 0, 77, 51
1, 529680, Note_on_c, 0, 38, 35
1, 529680, Note_on_c, 0, 50, 42
1, 529691, Control_c, 0, 64, 0
1, 529800, Tempo, 407941
1, 529800, Note_on_c, 0, 77, 0
1, 529800, Note_on_c, 0, 70, 45
1, 529800, Control_c, 0, 64, 127
1, 529920, Tempo, 394529
1, 529920, Note_on_c, 0, 70, 0
1, 529920, Note_on_c, 0, 50, 0
1, 529920, Note_on_c, 0, 38, 0
1, 529920, Note_on_c, 0, 48, 51
1, 529920, Control_c, 0, 64, 0
1, 530011, Control_c, 0, 64, 127
1, 530040, Note_on_c, 0, 48, 0
1, 530040, Note_on_c, 0, 55, 44
1, 530160, Note_on_c, 0, 55, 0
1, 530160, Note_on_c, 0, 58, 44
1, 530280, Note_on_c, 0, 58, 0
1, 530280, Note_on_c, 0, 67, 51
1, 530400, Note_on_c, 0, 67, 0
1, 530400, Note_on_c, 0, 70, 44
1, 530520, Tempo, 422297
1, 530520, Note_on_c, 0, 70, 0
1, 530520, Note_on_c, 0, 76, 44
1, 530640, Tempo, 394529
1, 530640, Note_on_c, 0, 76, 0
1, 530640, Note_on_c, 0, 54, 51
1, 530652, Control_c, 0, 64, 0
1, 530755, Control_c, 0, 64, 127
1, 530760, Note_on_c, 0, 54, 0
1, 530760, Note_on_c, 0, 57, 42
1, 530880, Note_on_c, 0, 57, 0
1, 530880, Note_on_c, 0, 60, 44
1, 531000, Note_on_c, 0, 60, 0
1, 531000, Note_on_c, 0, 69, 51
1, 531120, Note_on_c, 0, 69, 0
1, 531120, Note_on_c, 0, 72, 46
1, 531240, Tempo, 422297
1, 531240, Note_on_c, 0, 72, 0
1, 531240, Note_on_c, 0, 75, 46
1, 531360, Tempo, 394529
1, 531360, Note_on_c, 0, 75, 0
1, 531360, Note_on_c, 0, 55, 51
1, 531364, Control_c, 0, 64, 0
1, 531468, Control_c, 0, 64, 127
1, 531480, Note_on_c, 0, 55, 0
1, 531480, Note_on_c, 0, 58, 42
1, 531600, Note_on_c, 0, 58, 0
1, 531600, Note_on_c, 0, 62, 42
1, 531720, Note_on_c, 0, 62, 0
1, 531720, Note_on_c, 0, 67, 51
1, 531840, Note_on_c, 0, 67, 0
1, 531840, Note_on_c, 0, 70, 44
1, 531960, Tempo, 422297
1, 531960, Note_on_c, 0, 70, 0
1, 531960, Note_on_c, 0, 74, 44
1, 532080, Tempo, 391952
1, 532080, Note_on_c, 0, 74, 0
1, 532080, Note_on_c, 0, 51, 57
1, 532085, Control_c, 0, 64, 0
1, 532172, Control_c, 0, 64, 127
1, 532200, Note_on_c, 0, 51, 0
1, 532200, Note_on_c, 0, 55, 49
1, 532320, Note_on_c, 0, 55, 0
1, 532320, Note_on_c, 0, 60, 49
1, 532440, Note_on_c, 0, 60, 0
1, 532440, Note_on_c, 0, 63, 57
1, 532560, Note_on_c, 0, 63, 0
1, 532560, Note_on_c, 0, 67, 48
1, 532680, Tempo, 416435
1, 532680, Note_on_c, 0, 67, 0
1, 532680, Note_on_c, 0, 72, 49
1, 532800, Tempo, 394529
1, 532800, Note_on_c, 0, 72, 0
1, 532800, Note_on_c, 0, 41, 63
1, 532811, Control_c, 0, 64, 0
1, 532894, Control_c, 0, 64, 127
1, 532920, Note_on_c, 0, 41, 0
1, 532920, Note_on_c, 0, 50, 56
1, 533040, Note_on_c, 0, 50, 0
1, 533040, Note_on_c, 0, 53, 56
1, 533160, Note_on_c, 0, 53, 0
1, 533160, Note_on_c, 0, 62, 56
1, 533280, Note_on_c, 0, 62, 0
1, 533280, Note_on_c, 0, 65, 48
1, 533400, Tempo, 422297
1, 533400, Note_on_c, 0, 65, 0
1, 533400, Note_on_c, 0, 70, 48
1, 533520, Tempo, 397141
1, 533520, Note_on_c, 0, 70, 0
1, 533520, Note_on_c, 0, 41, 70
1, 533531, Control_c, 0, 64, 0
1, 533619, Control_c, 0, 64, 127
1, 533640, Note_on_c, 0, 41, 0
1, 533640, Note_on_c, 0, 48, 61
1, 533751, Tempo, 402468
1, 533760, Note_on_c, 0, 48, 0
1, 533760, Note_on_c, 0, 53, 61
1, 533789, Tempo, 405186
1, 533808, Tempo, 407941
1, 533827, Tempo, 410734
1, 533847, Tempo, 413565
1, 533866, Tempo, 416435
1, 533880, Note_on_c, 0, 53, 0
1, 533880, Note_on_c, 0, 63, 59
1, 533904, Tempo, 419346
1, 533923, Tempo, 422297
1, 533943, Tempo, 425291
1, 533962, Tempo, 428327
1, 533981, Tempo, 428327
1, 534000, Note_on_c, 0, 63, 0
1, 534000, Note_on_c, 0, 65, 52
1, 534019, Tempo, 431406
1, 534039, Tempo, 434531
1, 534077, Tempo, 437701
1, 534096, Tempo, 440917
1, 534120, Tempo, 535332
1, 534120, Note_on_c, 0, 65, 0
1, 534120, Note_on_c, 0, 69, 52
1, 534240, Tempo, 394529
1, 534240, Note_on_c, 0, 69, 0
1, 534240, Note_on_c, 0, 34, 72
1, 534244, Control_c, 0, 64, 0
1, 534574, Control_c, 0, 64, 127
1, 535200, Note_on_c, 0, 34, 0
1, 535200, Note_on_c, 0, 38, 42
1, 535440, Note_on_c, 0, 38, 0
1, 535440, Note_on_c, 0, 41, 44
1, 535680, Note_on_c, 0, 41, 0
1, 535680, Note_on_c, 0, 46, 46
1, 535920, Note_on_c, 0, 50, 48
1, 536160, Note_on_c, 0, 50, 0
1, 536160, Note_on_c, 0, 53, 50
1, 536400, Note_on_c, 0, 53, 0
1, 536400, Note_on_c, 0, 58, 52
1, 536640, Note_on_c, 0, 58, 0
1, 536640, Note_on_c, 0, 62, 51
1, 536880, Note_on_c, 0, 62, 0
1, 536880, Note_on_c, 0, 65, 56
1, 537000, Tempo, 413565
1, 537120, Tempo, 394529
1, 537120, Note_on_c, 0, 65, 0
1, 537120, Note_on_c, 0, 46, 0
1, 537120, Note_on_c, 0, 66, 57
1, 537120, Note_on_c, 0, 45, 45
1, 537120, Note_on_c, 0, 48, 45
1, 537120, Note_on_c, 0, 51, 45
1, 537127, Control_c, 0, 64, 0
1, 537303, Control_c, 0, 64, 127
1, 537360, Tempo, 389408
1, 537360, Note_on_c, 0, 66, 0
1, 537360, Note_on_c, 0, 69, 58
1, 537600, Note_on_c, 0, 69, 0
1, 537600, Note_on_c, 0, 72, 60
1, 537840, Note_on_c, 0, 72, 0
1, 537840, Note_on_c, 0, 75, 61
1, 538080, Note_on_c, 0, 75, 0
1, 538080, Note_on_c, 0, 78, 63
1, 538320, Note_on_c, 0, 78, 0
1, 538320, Note_on_c, 0, 81, 64
1, 538440, Tempo, 410734
1, 538560, Tempo, 394529
1, 538560, Note_on_c, 0, 81, 0
1, 538560, Note_on_c, 0, 51, 0
1, 538560, Note_on_c, 0, 84, 66
1, 538560, Note_on_c, 0, 54, 45
1, 538800, Tempo, 389408
1, 538800, Note_on_c, 0, 84, 0
1, 538800, Note_on_c, 0, 81, 64
1, 539040, Note_on_c, 0, 81, 0
1, 539040, Note_on_c, 0, 78, 62
1, 539280, Note_on_c, 0, 78, 0
1, 539280, Note_on_c, 0, 75, 60
1, 539520, Note_on_c, 0, 75, 0
1, 539520, Note_on_c, 0, 74, 58
1, 539760, Note_on_c, 0, 74, 0
1, 539760, Note_on_c, 0, 66, 57
1, 539880, Tempo, 416435
1, 540000, Tempo, 394529
1, 540000, Note_on_c, 0, 66, 0
1, 540000, Note_on_c, 0, 54, 0
1, 540000, Note_on_c, 0, 48, 0
1, 540000, Note_on_c, 0, 45, 0
1, 540000, Note_on_c, 0, 69, 55
1, 540000, Note_on_c, 0, 55, 45
1, 540000, Note_on_c, 0, 50, 45
1, 540000, Note_on_c, 0, 46, 45
1, 540007, Control_c, 0, 64, 0
1, 540160, Control_c, 0, 64, 127
1, 540240, Note_on_c, 0, 69, 0
1, 540240, Note_on_c, 0, 67, 45
1, 540480, Note_on_c, 0, 67, 0
1, 540480, Note_on_c, 0, 73, 45
1, 540600, Tempo, 419346
1, 540720, Tempo, 394529
1, 540720, Note_on_c, 0, 73, 0
1, 540720, Note_on_c, 0, 74, 50
1, 540960, Note_on_c, 0, 74, 0
1, 540960, Note_on_c, 0, 78, 47
1, 541200, Note_on_c, 0, 78, 0
1, 541200, Note_on_c, 0, 79, 47
1, 541320, Tempo, 434531
1, 541440, Tempo, 402468
1, 541440, Note_on_c, 0, 79, 0
1, 541440, Note_on_c, 0, 85, 52
1, 541680, Note_on_c, 0, 85, 0
1, 541680, Note_on_c, 0, 86, 45
1, 541920, Note_on_c, 0, 86, 0
1, 541920, Note_on_c, 0, 81, 41
1, 542040, Tempo, 437701
1, 542160, Tempo, 402468
1, 542160, Note_on_c, 0, 81, 0
1, 542160, Note_on_c, 0, 82, 49
1, 542400, Note_on_c, 0, 82, 0
1, 542400, Note_on_c, 0, 78, 43
1, 542640, Note_on_c, 0, 78, 0
1, 542640, Note_on_c, 0, 79, 43
1, 542760, Tempo, 437701
1, 542880, Tempo, 402468
1, 542880, Note_on_c, 0, 79, 0
1, 542880, Note_on_c, 0, 46, 0
1, 542880, Note_on_c, 0, 50, 0
1, 542880, Note_on_c, 0, 55, 0
1, 542880, Note_on_c, 0, 61, 33
1, 542880, Note_on_c, 0, 58, 26
1, 542880, Control_c, 0, 64, 0
1, 543120, Note_on_c, 0, 77, 39
1, 543120, Control_c, 0, 64, 127
1, 543360, Tempo, 419346
1, 543360, Note_on_c, 0, 77, 0
1, 543360, Note_on_c, 0, 58, 0
1, 543360, Note_on_c, 0, 61, 0
1, 543360, Note_on_c, 0, 76, 35
1, 543406, Control_c, 0, 64, 0
1, 543600, Tempo, 399787
1, 543600, Note_on_c, 0, 76, 0
1, 543600, Note_on_c, 0, 61, 33
1, 543600, Note_on_c, 0, 58, 26
1, 543840, Note_on_c, 0, 76, 35
1, 543897, Control_c, 0, 64, 127
1, 544080, Tempo, 413565
1, 544080, Note_on_c, 0, 76, 0
1, 544080, Note_on_c, 0, 58, 0
1, 544080, Note_on_c, 0, 61, 0
1, 544080, Note_on_c, 0, 85, 41
1, 544172, Control_c, 0, 64, 0
1, 544320, Tempo, 399787
1, 544320, Note_on_c, 0, 85, 0
1, 544320, Note_on_c, 0, 58, 26
1, 544320, Note_on_c, 0, 60, 33
1, 544560, Note_on_c, 0, 85, 41
1, 544686, Control_c, 0, 64, 127
1, 544800, Tempo, 405186
1, 544800, Note_on_c, 0, 85, 0
1, 544800, Note_on_c, 0, 60, 0
1, 544800, Note_on_c, 0, 58, 0
1, 544800, Note_on_c, 0, 84, 43
1, 544900, Control_c, 0, 64, 0
1, 545040, Tempo, 399787
1, 545040, Note_on_c, 0, 84, 0
1, 545040, Note_on_c, 0, 60, 33
1, 545040, Note_on_c, 0, 58, 26
1, 545280, Note_on_c, 0, 84, 43
1, 545463, Control_c, 0, 64, 127
1, 545520, Tempo, 416435
1, 545520, Note_on_c, 0, 84, 0
1, 545520, Note_on_c, 0, 58, 0
1, 545520, Note_on_c, 0, 60, 0
1, 545520, Note_on_c, 0, 76, 41
1, 545668, Control_c, 0, 64, 0
1, 545760, Tempo, 399787
1, 545760, Note_on_c, 0, 76, 0
1, 545760, Note_on_c, 0, 44, 50
1, 545760, Note_on_c, 0, 56, 60
1, 545800, Control_c, 0, 64, 127
1, 546000, Note_on_c, 0, 76, 56
1, 546240, Note_on_c, 0, 76, 0
1, 546240, Note_on_c, 0, 77, 53
1, 546480, Note_on_c, 0, 77, 0
1, 546480, Note_on_c, 0, 84, 63
1, 546720, Note_on_c, 0, 84, 0
1, 546720, Note_on_c, 0, 79, 56
1, 546960, Note_on_c, 0, 79, 0
1, 546960, Note_on_c, 0, 82, 56
1, 547200, Note_on_c, 0, 82, 0
1, 547200, Note_on_c, 0, 80, 63
1, 547207, Control_c, 0, 64, 0
1, 547440, Note_on_c, 0, 80, 0
1, 547440, Note_on_c, 0, 76, 56
1, 547452, Control_c, 0, 64, 127
1, 547680, Note_on_c, 0, 76, 0
1, 547680, Note_on_c, 0, 79, 56
1, 547920, Note_on_c, 0, 79, 0
1, 547920, Note_on_c, 0, 77, 60
1, 548160, Note_on_c, 0, 77, 0
1, 548160, Note_on_c, 0, 75, 52
1, 548400, Tempo, 413565
1, 548400, Note_on_c, 0, 75, 0
1, 548400, Note_on_c, 0, 73, 52
1, 548640, Tempo, 399787
1, 548640, Note_on_c, 0, 73, 0
1, 548640, Note_on_c, 0, 56, 0
1, 548640, Note_on_c, 0, 44, 0
1, 548640, Note_on_c, 0, 72, 51
1, 548640, Note_on_c, 0, 62, 45
1, 548640, Control_c, 0, 64, 0
1, 548789, Control_c, 0, 64, 127
1, 548880, Tempo, 397141
1, 548880, Note_on_c, 0, 64, 41
1, 549120, Note_on_c, 0, 64, 0
1, 549120, Note_on_c, 0, 65, 41
1, 549360, Note_on_c, 0, 65, 0
1, 549360, Note_on_c, 0, 72, 0
1, 549360, Note_on_c, 0, 71, 45
1, 549360, Note_on_c, 0, 68, 45
1, 549363, Control_c, 0, 64, 0
1, 549475, Control_c, 0, 64, 127
1, 549600, Note_on_c, 0, 68, 0
1, 549600, Note_on_c, 0, 64, 41
1, 549840, Tempo, 405186
1, 549840, Note_on_c, 0, 64, 0
1, 549840, Note_on_c, 0, 65, 41
1, 550080, Tempo, 399787
1, 550080, Note_on_c, 0, 65, 0
1, 550080, Note_on_c, 0, 71, 0
1, 550080, Note_on_c, 0, 62, 0
1, 550080, Note_on_c, 0, 77, 50
1, 550080, Note_on_c, 0, 61, 45
1, 550080, Note_on_c, 0, 68, 54
1, 550083, Control_c, 0, 64, 0
1, 550297, Control_c, 0, 64, 127
1, 550320, Note_on_c, 0, 68, 0
1, 550320, Note_on_c, 0, 64, 42
1, 550560, Note_on_c, 0, 64, 0
1, 550560, Note_on_c, 0, 65, 42
1, 550800, Note_on_c, 0, 65, 0
1, 550800, Note_on_c, 0, 77, 0
1, 550800, Note_on_c, 0, 71, 45
1, 550800, Note_on_c, 0, 68, 52
1, 550812, Control_c, 0, 64, 0
1, 550995, Control_c, 0, 64, 127
1, 551040, Note_on_c, 0, 68, 0
1, 551040, Note_on_c, 0, 67, 47
1, 551280, Tempo, 413565
1, 551280, Note_on_c, 0, 67, 0
1, 551280, Note_on_c, 0, 65, 52
1, 551520, Tempo, 410734
1, 551520, Note_on_c, 0, 65, 0
1, 551520, Note_on_c, 0, 71, 0
1, 551520, Note_on_c, 0, 61, 0
1, 551520, Note_on_c, 0, 48, 49
1, 551520, Note_on_c, 0, 60, 58
1, 551520, Control_c, 0, 64, 0
1, 551760, Tempo, 397141
1, 551760, Note_on_c, 0, 64, 55
1, 551760, Note_on_c, 0, 72, 66
1, 551760, Note_on_c, 0, 67, 55
1, 551823, Control_c, 0, 64, 127
1, 552000, Note_on_c, 0, 67, 0
1, 552000, Note_on_c, 0, 64, 0
1, 552000, Note_on_c, 0, 48, 0
1, 552000, Note_on_c, 0, 60, 0
1, 552000, Note_on_c, 0, 72, 0
1, 552000, Note_on_c, 0, 71, 60
1, 552000, Note_on_c, 0, 65, 60
1, 552000, Note_on_c, 0, 74, 73
1, 552057, Control_c, 0, 64, 0
1, 552120, Note_on_c, 0, 74, 0
1, 552120, Note_on_c, 0, 65, 0
1, 552120, Note_on_c, 0, 71, 0
1, 552240, Tempo, 413565
1, 552240, Note_on_c, 0, 60, 58
1, 552240, Note_on_c, 0, 48, 49
1, 552480, Tempo, 394529
1, 552480, Note_on_c, 0, 74, 66
1, 552480, Note_on_c, 0, 65, 55
1, 552480, Note_on_c, 0, 71, 55
1, 552543, Control_c, 0, 64, 127
1, 552720, Note_on_c, 0, 71, 0
1, 552720, Note_on_c, 0, 74, 0
1, 552720, Note_on_c, 0, 60, 0
1, 552720, Note_on_c, 0, 48, 0
1, 552720, Note_on_c, 0, 65, 0
1, 552720, Note_on_c, 0, 70, 61
1, 552720, Note_on_c, 0, 67, 61
1, 552720, Note_on_c, 0, 76, 74
1, 552806, Control_c, 0, 64, 0
1, 552840, Note_on_c, 0, 76, 0
1, 552840, Note_on_c, 0, 67, 0
1, 552840, Note_on_c, 0, 70, 0
1, 552960, Tempo, 405186
1, 552960, Note_on_c, 0, 48, 49
1, 552960, Note_on_c, 0, 60, 57
1, 553200, Tempo, 397141
1, 553200, Note_on_c, 0, 67, 55
1, 553200, Note_on_c, 0, 76, 66
1, 553200, Note_on_c, 0, 70, 55
1, 553278, Control_c, 0, 64, 127
1, 553440, Note_on_c, 0, 70, 0
1, 553440, Note_on_c, 0, 67, 0
1, 553440, Note_on_c, 0, 48, 0
1, 553440, Note_on_c, 0, 60, 0
1, 553440, Note_on_c, 0, 76, 0
1, 553440, Note_on_c, 0, 72, 60
1, 553440, Note_on_c, 0, 69, 60
1, 553440, Note_on_c, 0, 77, 72
1, 553560, Note_on_c, 0, 77, 0
1, 553560, Note_on_c, 0, 69, 0
1, 553560, Note_on_c, 0, 72, 0
1, 553581, Control_c, 0, 64, 0
1, 553680, Tempo, 405186
1, 553680, Note_on_c, 0, 60, 57
1, 553680, Note_on_c, 0, 48, 49
1, 553920, Tempo, 397141
1, 553920, Note_on_c, 0, 78, 66
1, 553920, Note_on_c, 0, 72, 55
1, 553920, Note_on_c, 0, 69, 55
1, 553984, Control_c, 0, 64, 127
1, 554160, Note_on_c, 0, 69, 0
1, 554160, Note_on_c, 0, 78, 0
1, 554160, Note_on_c, 0, 60, 0
1, 554160, Note_on_c, 0, 48, 0
1, 554160, Note_on_c, 0, 72, 0
1, 554160, Note_on_c, 0, 79, 71
1, 554160, Note_on_c, 0, 76, 59
1, 554160, Note_on_c, 0, 70, 59
1, 554245, Control_c, 0, 64, 0
1, 554280, Note_on_c, 0, 70, 0
1, 554280, Note_on_c, 0, 76, 0
1, 554280, Note_on_c, 0, 79, 0
1, 554400, Tempo, 410734
1, 554400, Note_on_c, 0, 48, 49
1, 554400, Note_on_c, 0, 60, 57
1, 554640, Tempo, 397141
1, 554640, Note_on_c, 0, 76, 55
1, 554640, Note_on_c, 0, 70, 55
1, 554640, Note_on_c, 0, 79, 66
1, 554725, Control_c, 0, 64, 127
1, 554880, Note_on_c, 0, 79, 0
1, 554880, Note_on_c, 0, 76, 0
1, 554880, Note_on_c, 0, 48, 0
1, 554880, Note_on_c, 0, 60, 0
1, 554880, Note_on_c, 0, 70, 0
1, 554880, Note_on_c, 0, 81, 73
1, 554880, Note_on_c, 0, 72, 60
1, 554880, Note_on_c, 0, 77, 60
1, 554972, Control_c, 0, 64, 0
1, 555000, Note_on_c, 0, 77, 0
1, 555000, Note_on_c, 0, 72, 0
1, 555000, Note_on_c, 0, 81, 0
1, 555120, Tempo, 410734
1, 555120, Note_on_c, 0, 60, 56
1, 555120, Note_on_c, 0, 48, 48
1, 555360, Tempo, 416435
1, 555360, Note_on_c, 0, 78, 55
1, 555360, Note_on_c, 0, 72, 55
1, 555360, Note_on_c, 0, 81, 66
1, 555459, Control_c, 0, 64, 127
1, 555600, Tempo, 447494
1, 555600, Note_on_c, 0, 81, 0
1, 555600, Note_on_c, 0, 78, 0
1, 555600, Note_on_c, 0, 60, 0
1, 555600, Note_on_c, 0, 48, 0
1, 555600, Note_on_c, 0, 72, 0
1, 555600, Note_on_c, 0, 76, 58
1, 555600, Note_on_c, 0, 82, 70
1, 555600, Note_on_c, 0, 79, 58
1, 555678, Control_c, 0, 64, 0
1, 555720, Note_on_c, 0, 79, 0
1, 555720, Note_on_c, 0, 82, 0
1, 555720, Note_on_c, 0, 76, 0
1, 555840, Tempo, 402468
1, 555840, Note_on_c, 0, 79, 71
1, 555840, Note_on_c, 0, 76, 71
1, 555840, Note_on_c, 0, 82, 86
1, 555840, Note_on_c, 0, 36, 72
1, 555960, Note_on_c, 0, 36, 0
1, 556080, Note_on_c, 0, 40, 60
1, 556200, Note_on_c, 0, 40, 0
1, 556320, Note_on_c, 0, 43, 60
1, 556440, Note_on_c, 0, 43, 0
1, 556560, Note_on_c, 0, 48, 69
1, 556680, Note_on_c, 0, 48, 0
1, 556800, Note_on_c, 0, 52, 60
1, 556920, Note_on_c, 0, 52, 0
1, 557040, Tempo, 413565
1, 557040, Note_on_c, 0, 55, 60
1, 557160, Note_on_c, 0, 55, 0
1, 557271, Tempo, 402468
1, 557280, Note_on_c, 0, 76, 0
1, 557280, Note_on_c, 0, 79, 0
1, 557280, Note_on_c, 0, 60, 69
1, 557400, Note_on_c, 0, 82, 0
1, 557400, Note_on_c, 0, 84, 63
1, 557405, Tempo, 399787
1, 557520, Tempo, 397141
1, 557520, Note_on_c, 0, 60, 0
1, 557520, Note_on_c, 0, 86, 66
1, 557532, Note_on_c, 0, 84, 0
1, 557635, Tempo, 394529
1, 557640, Note_on_c, 0, 84, 65
1, 557652, Note_on_c, 0, 86, 0
1, 557655, Tempo, 389408
1, 557751, Tempo, 391952
1, 557760, Note_on_c, 0, 82, 63
1, 557772, Note_on_c, 0, 84, 0
1, 557827, Tempo, 394529
1, 557880, Note_on_c, 0, 81, 62
1, 557892, Note_on_c, 0, 82, 0
1, 557904, Tempo, 397141
1, 557981, Tempo, 399787
1, 558000, Note_on_c, 0, 79, 62
1, 558012, Note_on_c, 0, 81, 0
1, 558120, Note_on_c, 0, 81, 64
1, 558132, Note_on_c, 0, 79, 0
1, 558154, Tempo, 397141
1, 558240, Note_on_c, 0, 82, 67
1, 558252, Note_on_c, 0, 81, 0
1, 558307, Tempo, 394529
1, 558360, Note_on_c, 0, 81, 66
1, 558372, Note_on_c, 0, 82, 0
1, 558480, Note_on_c, 0, 79, 64
1, 558492, Note_on_c, 0, 81, 0
1, 558499, Tempo, 397141
1, 558600, Note_on_c, 0, 77, 62
1, 558612, Note_on_c, 0, 79, 0
1, 558672, Tempo, 399787
1, 558711, Tempo, 397141
1, 558720, Note_on_c, 0, 76, 63
1, 558732, Note_on_c, 0, 77, 0
1, 558749, Tempo, 402468
1, 558826, Tempo, 399787
1, 558840, Note_on_c, 0, 77, 63
1, 558852, Note_on_c, 0, 76, 0
1, 558903, Tempo, 397141
1, 558960, Note_on_c, 0, 79, 64
1, 558972, Note_on_c, 0, 77, 0
1, 558979, Tempo, 394529
1, 559056, Tempo, 391952
1, 559080, Note_on_c, 0, 77, 64
1, 559092, Note_on_c, 0, 79, 0
1, 559133, Tempo, 389408
1, 559200, Note_on_c, 0, 76, 62
1, 559212, Note_on_c, 0, 77, 0
1, 559267, Tempo, 397141
1, 559320, Note_on_c, 0, 74, 60
1, 559332, Note_on_c, 0, 76, 0
1, 559440, Tempo, 399787
1, 559440, Note_on_c, 0, 72, 62
1, 559452, Note_on_c, 0, 74, 0
1, 559560, Note_on_c, 0, 73, 62
1, 559572, Note_on_c, 0, 72, 0
1, 559613, Tempo, 402468
1, 559680, Note_on_c, 0, 74, 64
1, 559692, Note_on_c, 0, 73, 0
1, 559709, Tempo, 399787
1, 559786, Tempo, 397141
1, 559800, Note_on_c, 0, 72, 63
1, 559812, Note_on_c, 0, 74, 0
1, 559863, Tempo, 394529
1, 559920, Tempo, 397141
1, 559920, Note_on_c, 0, 70, 61
1, 559932, Note_on_c, 0, 72, 0
1, 559959, Tempo, 399787
1, 559997, Tempo, 402468
1, 560040, Note_on_c, 0, 69, 60
1, 560052, Note_on_c, 0, 70, 0
1, 560055, Tempo, 405186
1, 560093, Tempo, 407941
1, 560131, Tempo, 405186
1, 560160, Note_on_c, 0, 67, 59
1, 560172, Note_on_c, 0, 69, 0
1, 560227, Tempo, 402468
1, 560280, Note_on_c, 0, 69, 61
1, 560292, Note_on_c, 0, 67, 0
1, 560323, Tempo, 399787
1, 560400, Note_on_c, 0, 70, 64
1, 560412, Note_on_c, 0, 69, 0
1, 560419, Tempo, 397141
1, 560477, Tempo, 391952
1, 560520, Note_on_c, 0, 69, 63
1, 560532, Note_on_c, 0, 70, 0
1, 560554, Tempo, 394529
1, 560631, Tempo, 397141
1, 560640, Note_on_c, 0, 67, 61
1, 560652, Note_on_c, 0, 69, 0
1, 560707, Tempo, 399787
1, 560760, Note_on_c, 0, 65, 60
1, 560772, Note_on_c, 0, 67, 0
1, 560784, Tempo, 402468
1, 560842, Tempo, 405186
1, 560861, Tempo, 405186
1, 560880, Note_on_c, 0, 64, 60
1, 560892, Note_on_c, 0, 65, 0
1, 560919, Tempo, 402468
1, 560976, Tempo, 399787
1, 561000, Note_on_c, 0, 65, 62
1, 561012, Note_on_c, 0, 64, 0
1, 561034, Tempo, 397141
1, 561091, Tempo, 394529
1, 561120, Note_on_c, 0, 67, 63
1, 561132, Note_on_c, 0, 65, 0
1, 561149, Tempo, 391952
1, 561207, Tempo, 386897
1, 561240, Note_on_c, 0, 65, 62
1, 561252, Note_on_c, 0, 67, 0
1, 561283, Tempo, 389408
1, 561341, Tempo, 391952
1, 561360, Note_on_c, 0, 64, 60
1, 561372, Note_on_c, 0, 65, 0
1, 561399, Tempo, 394529
1, 561475, Tempo, 397141
1, 561480, Note_on_c, 0, 62, 59
1, 561492, Note_on_c, 0, 64, 0
1, 561533, Tempo, 399787
1, 561591, Tempo, 402468
1, 561600, Note_on_c, 0, 62, 0
1, 561600, Note_on_c, 0, 60, 59
1, 561720, Note_on_c, 0, 61, 60
1, 561732, Note_on_c, 0, 60, 0
1, 561802, Tempo, 399787
1, 561840, Note_on_c, 0, 62, 62
1, 561852, Note_on_c, 0, 61, 0
1, 561955, Tempo, 394529
1, 561960, Note_on_c, 0, 60, 63
1, 561972, Note_on_c, 0, 62, 0
1, 562080, Note_on_c, 0, 58, 62
1, 562092, Note_on_c, 0, 60, 0
1, 562128, Tempo, 397141
1, 562200, Note_on_c, 0, 57, 60
1, 562212, Note_on_c, 0, 58, 0
1, 562282, Tempo, 399787
1, 562319, Tempo, 390295
1, 562320, Note_on_c, 0, 55, 59
1, 562332, Note_on_c, 0, 57, 0
1, 562415, Tempo, 387772
1, 562440, Note_on_c, 0, 57, 61
1, 562452, Note_on_c, 0, 55, 0
1, 562491, Tempo, 385282
1, 562560, Note_on_c, 0, 58, 62
1, 562572, Note_on_c, 0, 57, 0
1, 562587, Tempo, 382824
1, 562664, Tempo, 380397
1, 562680, Note_on_c, 0, 57, 61
1, 562692, Note_on_c, 0, 58, 0
1, 562741, Tempo, 382824
1, 562800, Note_on_c, 0, 55, 59
1, 562812, Note_on_c, 0, 57, 0
1, 562818, Tempo, 385282
1, 562895, Tempo, 387772
1, 562920, Note_on_c, 0, 53, 57
1, 562932, Note_on_c, 0, 55, 0
1, 562971, Tempo, 390295
1, 563029, Tempo, 392850
1, 563040, Note_on_c, 0, 52, 58
1, 563052, Note_on_c, 0, 53, 0
1, 563160, Note_on_c, 0, 53, 60
1, 563172, Note_on_c, 0, 52, 0
1, 563221, Tempo, 390295
1, 563280, Note_on_c, 0, 55, 62
1, 563292, Note_on_c, 0, 53, 0
1, 563375, Tempo, 385282
1, 563400, Note_on_c, 0, 53, 61
1, 563412, Note_on_c, 0, 55, 0
1, 563471, Tempo, 387772
1, 563520, Note_on_c, 0, 52, 61
1, 563532, Note_on_c, 0, 53, 0
1, 563567, Tempo, 390295
1, 563640, Note_on_c, 0, 50, 60
1, 563652, Note_on_c, 0, 52, 0
1, 563663, Tempo, 392850
1, 563739, Tempo, 395439
1, 563760, Note_on_c, 0, 48, 59
1, 563772, Note_on_c, 0, 50, 0
1, 563797, Tempo, 392850
1, 563855, Tempo, 390295
1, 563880, Note_on_c, 0, 50, 60
1, 563892, Note_on_c, 0, 48, 0
1, 563912, Tempo, 387772
1, 563951, Tempo, 385282
1, 564000, Note_on_c, 0, 48, 61
1, 564008, Tempo, 382824
1, 564012, Note_on_c, 0, 50, 0
1, 564066, Tempo, 380397
1, 564104, Tempo, 378000
1, 564120, Note_on_c, 0, 46, 61
1, 564132, Note_on_c, 0, 48, 0
1, 564162, Tempo, 380397
1, 564200, Tempo, 382824
1, 564240, Note_on_c, 0, 45, 60
1, 564252, Note_on_c, 0, 46, 0
1, 564258, Tempo, 385282
1, 564296, Tempo, 387772
1, 564354, Tempo, 390295
1, 564360, Note_on_c, 0, 43, 58
1, 564372, Note_on_c, 0, 45, 0
1, 564392, Tempo, 392850
1, 564431, Tempo, 395439
1, 564432, Tempo, 407941
1, 564480, Tempo, 385282
1, 564480, Note_on_c, 0, 43, 0
1, 564480, Control_c, 0, 91, 127
1, 564480, Text_t, "bdca426d104a26ac9dcb070447587523"
1, 564480, Note_on_c, 0, 53, 70
1, 564480, Note_on_c, 0, 45, 59
1, 564480, Note_on_c, 0, 48, 59
1, 564480, Note_on_c, 0, 41, 59
1, 564600, Note_on_c, 0, 84, 66
1, 564720, Note_on_c, 0, 83, 68
1, 564732, Note_on_c, 0, 84, 0
1, 564840, Note_on_c, 0, 84, 69
1, 564852, Note_on_c, 0, 83, 0
1, 564960, Note_on_c, 0, 41, 0
1, 564960, Note_on_c, 0, 48, 0
1, 564960, Note_on_c, 0, 53, 0
1, 564960, Note_on_c, 0, 45, 0
1, 564960, Note_on_c, 0, 89, 70
1, 564972, Note_on_c, 0, 84, 0
1, 565080, Tempo, 398063
1, 565080, Note_on_c, 0, 84, 63
1, 565092, Note_on_c, 0, 89, 0
1, 565200, Tempo, 382824
1, 565200, Note_on_c, 0, 82, 70
1, 565212, Note_on_c, 0, 84, 0
1, 565320, Note_on_c, 0, 81, 66
1, 565332, Note_on_c, 0, 82, 0
1, 565440, Note_on_c, 0, 80, 64
1, 565452, Note_on_c, 0, 81, 0
1, 565560, Note_on_c, 0, 81, 64
1, 565572, Note_on_c, 0, 80, 0
1, 565680, Note_on_c, 0, 84, 70
1, 565692, Note_on_c, 0, 81, 0
1, 565800, Tempo, 395439
1, 565800, Note_on_c, 0, 81, 64
1, 565812, Note_on_c, 0, 84, 0
1, 565920, Tempo, 380397
1, 565920, Note_on_c, 0, 79, 70
1, 565932, Note_on_c, 0, 81, 0
1, 566040, Note_on_c, 0, 77, 64
1, 566052, Note_on_c, 0, 79, 0
1, 566160, Note_on_c, 0, 76, 64
1, 566172, Note_on_c, 0, 77, 0
1, 566280, Note_on_c, 0, 77, 64
1, 566292, Note_on_c, 0, 76, 0
1, 566400, Note_on_c, 0, 81, 70
1, 566412, Note_on_c, 0, 77, 0
1, 566520, Tempo, 395439
1, 566520, Note_on_c, 0, 77, 65
1, 566532, Note_on_c, 0, 81, 0
1, 566640, Tempo, 382824
1, 566640, Note_on_c, 0, 74, 70
1, 566652, Note_on_c, 0, 77, 0
1, 566760, Note_on_c, 0, 72, 65
1, 566772, Note_on_c, 0, 74, 0
1, 566880, Note_on_c, 0, 71, 65
1, 566892, Note_on_c, 0, 72, 0
1, 567000, Note_on_c, 0, 72, 65
1, 567012, Note_on_c, 0, 71, 0
1, 567120, Note_on_c, 0, 77, 70
1, 567132, Note_on_c, 0, 72, 0
1, 567240, Tempo, 403416
1, 567240, Note_on_c, 0, 72, 65
1, 567252, Note_on_c, 0, 77, 0
1, 567360, Tempo, 380397
1, 567360, Note_on_c, 0, 70, 70
1, 567372, Note_on_c, 0, 72, 0
1, 567480, Note_on_c, 0, 69, 66
1, 567492, Note_on_c, 0, 70, 0
1, 567600, Tempo, 395439
1, 567600, Note_on_c, 0, 68, 66
1, 567612, Note_on_c, 0, 69, 0
1, 567720, Note_on_c, 0, 69, 66
1, 567732, Note_on_c, 0, 68, 0
1, 567840, Note_on_c, 0, 72, 70
1, 567852, Note_on_c, 0, 69, 0
1, 567960, Tempo, 484927
1, 567960, Note_on_c, 0, 69, 64
1, 567972, Note_on_c, 0, 72, 0
1, 568080, Tempo, 406146
1, 568080, Note_on_c, 0, 65, 70
1, 568080, Note_on_c, 0, 57, 70
1, 568092, Note_on_c, 0, 69, 0
1, 568200, Tempo, 382824
1, 568200, Note_on_c, 0, 57, 0
1, 568200, Note_on_c, 0, 65, 0
1, 568200, Note_on_c, 0, 77, 64
1, 568320, Note_on_c, 0, 77, 0
1, 568320, Note_on_c, 0, 64, 70
1, 568320, Note_on_c, 0, 55, 66
1, 568440, Note_on_c, 0, 55, 0
1, 568440, Note_on_c, 0, 64, 0
1, 568440, Note_on_c, 0, 77, 64
1, 568560, Note_on_c, 0, 77, 0
1, 568560, Note_on_c, 0, 65, 70
1, 568560, Note_on_c, 0, 57, 66
1, 568680, Tempo, 406146
1, 568680, Note_on_c, 0, 57, 0
1, 568680, Note_on_c, 0, 65, 0
1, 568680, Note_on_c, 0, 77, 64
1, 568800, Tempo, 382824
1, 568800, Note_on_c, 0, 77, 0
1, 568800, Note_on_c, 0, 67, 70
1, 568800, Note_on_c, 0, 58, 70
1, 568920, Note_on_c, 0, 58, 0
1, 568920, Note_on_c, 0, 67, 0
1, 568920, Note_on_c, 0, 77, 64
1, 569040, Note_on_c, 0, 77, 0
1, 569040, Note_on_c, 0, 65, 65
1, 569040, Note_on_c, 0, 57, 67
1, 569160, Note_on_c, 0, 57, 0
1, 569160, Note_on_c, 0, 65, 0
1, 569160, Note_on_c, 0, 77, 58
1, 569280, Note_on_c, 0, 77, 0
1, 569280, Note_on_c, 0, 67, 67
1, 569280, Note_on_c, 0, 58, 67
1, 569400, Tempo, 403416
1, 569400, Note_on_c, 0, 58, 0
1, 569400, Note_on_c, 0, 67, 0
1, 569400, Note_on_c, 0, 77, 61
1, 569520, Tempo, 380397
1, 569520, Note_on_c, 0, 77, 0
1, 569520, Note_on_c, 0, 69, 70
1, 569520, Note_on_c, 0, 60, 70
1, 569640, Note_on_c, 0, 60, 0
1, 569640, Note_on_c, 0, 69, 0
1, 569640, Note_on_c, 0, 77, 60
1, 569760, Note_on_c, 0, 77, 0
1, 569760, Note_on_c, 0, 67, 66
1, 569760, Note_on_c, 0, 58, 67
1, 569880, Note_on_c, 0, 58, 0
1, 569880, Note_on_c, 0, 67, 0
1, 569880, Note_on_c, 0, 77, 62
1, 570000, Note_on_c, 0, 77, 0
1, 570000, Note_on_c, 0, 69, 67
1, 570000, Note_on_c, 0, 60, 67
1, 570120, Tempo, 458961
1, 570120, Note_on_c, 0, 60, 0
1, 570120, Note_on_c, 0, 69, 0
1, 570120, Note_on_c, 0, 77, 62
1, 570240, Tempo, 385282
1, 570240, Note_on_c, 0, 77, 0
1, 570240, Note_on_c, 0, 70, 74
1, 570240, Note_on_c, 0, 61, 74
1, 570360, Note_on_c, 0, 70, 0
1, 570360, Note_on_c, 0, 77, 61
1, 570480, Note_on_c, 0, 77, 0
1, 570480, Note_on_c, 0, 70, 65
1, 570600, Note_on_c, 0, 70, 0
1, 570600, Note_on_c, 0, 77, 61
1, 570720, Note_on_c, 0, 77, 0
1, 570720, Note_on_c, 0, 61, 0
1, 570720, Note_on_c, 0, 69, 65
1, 570720, Note_on_c, 0, 60, 67
1, 570840, Tempo, 414565
1, 570840, Note_on_c, 0, 60, 0
1, 570840, Note_on_c, 0, 69, 0
1, 570840, Note_on_c, 0, 77, 60
1, 570960, Tempo, 382824
1, 570960, Note_on_c, 0, 77, 0
1, 570960, Note_on_c, 0, 70, 70
1, 570960, Note_on_c, 0, 61, 74
1, 571080, Note_on_c, 0, 70, 0
1, 571080, Note_on_c, 0, 77, 60
1, 571200, Note_on_c, 0, 77, 0
1, 571200, Note_on_c, 0, 70, 65
1, 571320, Note_on_c, 0, 70, 0
1, 571320, Note_on_c, 0, 77, 60
1, 571440, Note_on_c, 0, 77, 0
1, 571440, Note_on_c, 0, 61, 0
1, 571440, Note_on_c, 0, 69, 65
1, 571440, Note_on_c, 0, 60, 66
1, 571560, Tempo, 491481
1, 571560, Note_on_c, 0, 60, 0
1, 571560, Note_on_c, 0, 69, 0
1, 571560, Note_on_c, 0, 77, 54
1, 571680, Tempo, 382824
1, 571680, Note_on_c, 0, 77, 0
1, 571680, Note_on_c, 0, 68, 49
1, 571680, Note_on_c, 0, 59, 47
1, 571800, Note_on_c, 0, 59, 0
1, 571800, Note_on_c, 0, 68, 0
1, 571800, Note_on_c, 0, 77, 41
1, 571920, Note_on_c, 0, 77, 0
1, 571920, Note_on_c, 0, 68, 49
1, 571920, Note_on_c, 0, 59, 47
1, 572040, Note_on_c, 0, 59, 0
1, 572040, Note_on_c, 0, 68, 0
1, 572040, Note_on_c, 0, 77, 42
1, 572160, Note_on_c, 0, 77, 0
1, 572160, Note_on_c, 0, 68, 49
1, 572160, Note_on_c, 0, 59, 47
1, 572280, Tempo, 414565
1, 572280, Note_on_c, 0, 59, 0
1, 572280, Note_on_c, 0, 68, 0
1, 572280, Note_on_c, 0, 77, 40
1, 572400, Tempo, 420374
1, 572400, Note_on_c, 0, 77, 0
1, 572400, Note_on_c, 0, 67, 48
1, 572400, Note_on_c, 0, 76, 48
1, 572400, Note_on_c, 0, 60, 50
1, 572640, Note_on_c, 0, 60, 0
1, 572640, Note_on_c, 0, 76, 0
1, 572640, Note_on_c, 0, 67, 0
1, 573120, Tempo, 385282
1, 573120, Text_t, "bdca426d104a26ac9dcb070447587523"
1, 573120, Control_c, 0, 91, 127
1, 573120, Note_on_c, 0, 45, 59
1, 573120, Note_on_c, 0, 48, 59
1, 573120, Note_on_c, 0, 53, 70
1, 573120, Note_on_c, 0, 41, 59
1, 573240, Note_on_c, 0, 84, 66
1, 573360, Note_on_c, 0, 83, 68
1, 573372, Note_on_c, 0, 84, 0
1, 573480, Note_on_c, 0, 84, 69
1, 573492, Note_on_c, 0, 83, 0
1, 573600, Note_on_c, 0, 41, 0
1, 573600, Note_on_c, 0, 53, 0
1, 573600, Note_on_c, 0, 45, 0
1, 573600, Note_on_c, 0, 48, 0
1, 573600, Note_on_c, 0, 89, 70
1, 573612, Note_on_c, 0, 84, 0
1, 573720, Tempo, 398063
1, 573720, Note_on_c, 0, 84, 63
1, 573732, Note_on_c, 0, 89, 0
1, 573840, Tempo, 382824
1, 573840, Note_on_c, 0, 82, 70
1, 573852, Note_on_c, 0, 84, 0
1, 573960, Note_on_c, 0, 81, 66
1, 573972, Note_on_c, 0, 82, 0
1, 574080, Note_on_c, 0, 80, 64
1, 574092, Note_on_c, 0, 81, 0
1, 574200, Note_on_c, 0, 81, 64
1, 574212, Note_on_c, 0, 80, 0
1, 574320, Note_on_c, 0, 84, 70
1, 574332, Note_on_c, 0, 81, 0
1, 574440, Tempo, 395439
1, 574440, Note_on_c, 0, 81, 64
1, 574452, Note_on_c, 0, 84, 0
1, 574560, Tempo, 380397
1, 574560, Note_on_c, 0, 79, 70
1, 574572, Note_on_c, 0, 81, 0
1, 574680, Note_on_c, 0, 77, 64
1, 574692, Note_on_c, 0, 79, 0
1, 574800, Note_on_c, 0, 76, 64
1, 574812, Note_on_c, 0, 77, 0
1, 574920, Note_on_c, 0, 77, 64
1, 574932, Note_on_c, 0, 76, 0
1, 575040, Note_on_c, 0, 81, 70
1, 575052, Note_on_c, 0, 77, 0
1, 575160, Tempo, 395439
1, 575160, Note_on_c, 0, 77, 65
1, 575172, Note_on_c, 0, 81, 0
1, 575280, Tempo, 382824
1, 575280, Note_on_c, 0, 74, 70
1, 575292, Note_on_c, 0, 77, 0
1, 575400, Note_on_c, 0, 72, 65
1, 575412, Note_on_c, 0, 74, 0
1, 575520, Note_on_c, 0, 71, 65
1, 575532, Note_on_c, 0, 72, 0
1, 575640, Note_on_c, 0, 72, 65
1, 575652, Note_on_c, 0, 71, 0
1, 575760, Note_on_c, 0, 77, 70
1, 575772, Note_on_c, 0, 72, 0
1, 575880, Tempo, 403416
1, 575880, Note_on_c, 0, 72, 65
1, 575892, Note_on_c, 0, 77, 0
1, 576000, Tempo, 380397
1, 576000, Note_on_c, 0, 70, 70
1, 576012, Note_on_c, 0, 72, 0
1, 576120, Note_on_c, 0, 69, 66
1, 576132, Note_on_c, 0, 70, 0
1, 576240, Tempo, 395439
1, 576240, Note_on_c, 0, 68, 66
1, 576252, Note_on_c, 0, 69, 0
1, 576360, Note_on_c, 0, 69, 66
1, 576372, Note_on_c, 0, 68, 0
1, 576480, Note_on_c, 0, 72, 70
1, 576492, Note_on_c, 0, 69, 0
1, 576600, Tempo, 484927
1, 576600, Note_on_c, 0, 69, 64
1, 576612, Note_on_c, 0, 72, 0
1, 576720, Tempo, 408914
1, 576720, Note_on_c, 0, 65, 70
1, 576720, Note_on_c, 0, 57, 70
1, 576732, Note_on_c, 0, 69, 0
1, 576840, Tempo, 382824
1, 576840, Note_on_c, 0, 57, 0
1, 576840, Note_on_c, 0, 65, 0
1, 576840, Note_on_c, 0, 77, 64
1, 576960, Note_on_c, 0, 77, 0
1, 576960, Note_on_c, 0, 64, 70
1, 576960, Note_on_c, 0, 55, 66
1, 577080, Note_on_c, 0, 55, 0
1, 577080, Note_on_c, 0, 64, 0
1, 577080, Note_on_c, 0, 77, 64
1, 577200, Note_on_c, 0, 77, 0
1, 577200, Note_on_c, 0, 65, 70
1, 577200, Note_on_c, 0, 57, 66
1, 577320, Tempo, 406146
1, 577320, Note_on_c, 0, 57, 0
1, 577320, Note_on_c, 0, 65, 0
1, 577320, Note_on_c, 0, 77, 64
1, 577440, Tempo, 382824
1, 577440, Note_on_c, 0, 77, 0
1, 577440, Note_on_c, 0, 67, 70
1, 577440, Note_on_c, 0, 58, 70
1, 577560, Note_on_c, 0, 58, 0
1, 577560, Note_on_c, 0, 67, 0
1, 577560, Note_on_c, 0, 77, 64
1, 577680, Note_on_c, 0, 77, 0
1, 577680, Note_on_c, 0, 65, 65
1, 577680, Note_on_c, 0, 57, 67
1, 577800, Note_on_c, 0, 57, 0
1, 577800, Note_on_c, 0, 65, 0
1, 577800, Note_on_c, 0, 77, 58
1, 577920, Note_on_c, 0, 77, 0
1, 577920, Note_on_c, 0, 67, 67
1, 577920, Note_on_c, 0, 58, 67
1, 578040, Tempo, 403416
1, 578040, Note_on_c, 0, 58, 0
1, 578040, Note_on_c, 0, 67, 0
1, 578040, Note_on_c, 0, 77, 61
1, 578160, Tempo, 380397
1, 578160, Note_on_c, 0, 77, 0
1, 578160, Note_on_c, 0, 69, 70
1, 578160, Note_on_c, 0, 60, 70
1, 578280, Note_on_c, 0, 60, 0
1, 578280, Note_on_c, 0, 69, 0
1, 578280, Note_on_c, 0, 77, 60
1, 578400, Note_on_c, 0, 77, 0
1, 578400, Note_on_c, 0, 67, 66
1, 578400, Note_on_c, 0, 58, 67
1, 578520, Note_on_c, 0, 58, 0
1, 578520, Note_on_c, 0, 67, 0
1, 578520, Note_on_c, 0, 77, 62
1, 578640, Note_on_c, 0, 77, 0
1, 578640, Note_on_c, 0, 69, 67
1, 578640, Note_on_c, 0, 60, 67
1, 578760, Tempo, 458961
1, 578760, Note_on_c, 0, 60, 0
1, 578760, Note_on_c, 0, 69, 0
1, 578760, Note_on_c, 0, 77, 62
1, 578880, Tempo, 385282
1, 578880, Note_on_c, 0, 77, 0
1, 578880, Note_on_c, 0, 70, 74
1, 578880, Note_on_c, 0, 61, 74
1, 578880, Control_c, 0, 64, 127
1, 579000, Note_on_c, 0, 70, 0
1, 579000, Note_on_c, 0, 77, 61
1, 579120, Note_on_c, 0, 77, 0
1, 579120, Note_on_c, 0, 70, 65
1, 579240, Note_on_c, 0, 70, 0
1, 579240, Note_on_c, 0, 77, 61
1, 579353, Control_c, 0, 64, 0
1, 579360, Note_on_c, 0, 77, 0
1, 579360, Note_on_c, 0, 61, 0
1, 579360, Note_on_c, 0, 69, 65
1, 579360, Note_on_c, 0, 60, 67
1, 579480, Tempo, 414565
1, 579480, Note_on_c, 0, 60, 0
1, 579480, Note_on_c, 0, 69, 0
1, 579480, Note_on_c, 0, 77, 60
1, 579600, Tempo, 382824
1, 579600, Note_on_c, 0, 77, 0
1, 579600, Note_on_c, 0, 70, 70
1, 579600, Note_on_c, 0, 61, 74
1, 579657, Control_c, 0, 64, 127
1, 579720, Note_on_c, 0, 70, 0
1, 579720, Note_on_c, 0, 77, 60
1, 579840, Note_on_c, 0, 77, 0
1, 579840, Note_on_c, 0, 70, 65
1, 579960, Note_on_c, 0, 70, 0
1, 579960, Note_on_c, 0, 77, 60
1, 580080, Note_on_c, 0, 77, 0
1, 580080, Note_on_c, 0, 61, 0
1, 580080, Note_on_c, 0, 69, 65
1, 580080, Note_on_c, 0, 60, 66
1, 580087, Control_c, 0, 64, 0
1, 580200, Tempo, 411720
1, 580200, Note_on_c, 0, 60, 0
1, 580200, Note_on_c, 0, 69, 0
1, 580200, Note_on_c, 0, 77, 46
1, 580320, Tempo, 472144
1, 580320, Note_on_c, 0, 77, 0
1, 580320, Note_on_c, 0, 68, 44
1, 580320, Note_on_c, 0, 59, 36
1, 580360, Control_c, 0, 64, 127
1, 580440, Note_on_c, 0, 59, 0
1, 580440, Note_on_c, 0, 68, 0
1, 580440, Note_on_c, 0, 77, 36
1, 580492, Control_c, 0, 64, 0
1, 580560, Tempo, 407941
1, 580560, Note_on_c, 0, 77, 0
1, 580920, Tempo, 462499
1, 581040, Tempo, 464828
1, 581040, Note_on_c, 0, 67, 42
1, 581040, Note_on_c, 0, 58, 36
1, 581109, Control_c, 0, 64, 127
1, 581160, Note_on_c, 0, 58, 0
1, 581160, Note_on_c, 0, 67, 0
1, 581160, Note_on_c, 0, 76, 34
1, 581240, Control_c, 0, 64, 0
1, 581280, Tempo, 416435
1, 581280, Note_on_c, 0, 76, 0
1, 581640, Tempo, 473447
1, 581760, Tempo, 464828
1, 581760, Note_on_c, 0, 66, 43
1, 581760, Note_on_c, 0, 57, 35
1, 581760, Control_c, 0, 64, 127
1, 581880, Note_on_c, 0, 57, 0
1, 581880, Note_on_c, 0, 66, 0
1, 581880, Note_on_c, 0, 75, 36
1, 581983, Control_c, 0, 64, 0
1, 582000, Tempo, 419346
1, 582000, Note_on_c, 0, 75, 0
1, 582480, Tempo, 398063
1, 582480, Note_on_c, 0, 46, 58
1, 582480, Control_c, 0, 64, 127
1, 582600, Note_on_c, 0, 46, 0
1, 582600, Note_on_c, 0, 58, 61
1, 582720, Note_on_c, 0, 58, 0
1, 582720, Note_on_c, 0, 62, 58
1, 582840, Note_on_c, 0, 62, 0
1, 582840, Note_on_c, 0, 67, 59
1, 582960, Note_on_c, 0, 67, 0
1, 582960, Note_on_c, 0, 70, 60
1, 583080, Note_on_c, 0, 70, 0
1, 583080, Note_on_c, 0, 74, 61
1, 583200, Note_on_c, 0, 74, 0
1, 583200, Note_on_c, 0, 72, 62
1, 583200, Note_on_c, 0, 52, 45
1, 583200, Note_on_c, 0, 58, 57
1, 583200, Note_on_c, 0, 48, 45
1, 583211, Control_c, 0, 64, 0
1, 583320, Note_on_c, 0, 70, 62
1, 583332, Note_on_c, 0, 72, 0
1, 583440, Note_on_c, 0, 69, 60
1, 583452, Note_on_c, 0, 70, 0
1, 583560, Note_on_c, 0, 67, 59
1, 583572, Note_on_c, 0, 69, 0
1, 583680, Tempo, 448665
1, 583680, Note_on_c, 0, 65, 57
1, 583692, Note_on_c, 0, 67, 0
1, 583800, Note_on_c, 0, 64, 55
1, 583812, Note_on_c, 0, 65, 0
1, 583920, Tempo, 398063
1, 583920, Note_on_c, 0, 48, 0
1, 583920, Note_on_c, 0, 52, 0
1, 583920, Note_on_c, 0, 58, 0
1, 583920, Note_on_c, 0, 65, 58
1, 583920, Note_on_c, 0, 53, 40
1, 583920, Note_on_c, 0, 57, 51
1, 583932, Note_on_c, 0, 64, 0
1, 584040, Note_on_c, 0, 65, 0
1, 584160, Note_on_c, 0, 53, 0
1, 584160, Note_on_c, 0, 57, 0
1, 584160, Note_on_c, 0, 60, 49
1, 584400, Note_on_c, 0, 60, 0
1, 584400, Note_on_c, 0, 60, 49
1, 584520, Tempo, 435635
1, 584580, Note_on_c, 0, 60, 0
1, 584580, Note_on_c, 0, 64, 41
1, 584640, Tempo, 398063
1, 584640, Note_on_c, 0, 64, 0
1, 584640, Note_on_c, 0, 70, 49
1, 584640, Note_on_c, 0, 48, 41
1, 584880, Note_on_c, 0, 48, 0
1, 584880, Note_on_c, 0, 60, 31
1, 584880, Note_on_c, 0, 58, 24
1, 585000, Note_on_c, 0, 58, 0
1, 585000, Note_on_c, 0, 60, 0
1, 585120, Note_on_c, 0, 60, 31
1, 585120, Note_on_c, 0, 58, 24
1, 585240, Note_on_c, 0, 58, 0
1, 585240, Note_on_c, 0, 60, 0
1, 585360, Note_on_c, 0, 60, 31
1, 585360, Note_on_c, 0, 58, 24
1, 585480, Note_on_c, 0, 58, 0
1, 585480, Note_on_c, 0, 60, 0
1, 585600, Note_on_c, 0, 70, 0
1, 585600, Note_on_c, 0, 69, 43
1, 585600, Note_on_c, 0, 60, 31
1, 585600, Note_on_c, 0, 58, 24
1, 585720, Note_on_c, 0, 58, 0
1, 585720, Note_on_c, 0, 60, 0
1, 585720, Note_on_c, 0, 69, 0
1, 585840, Note_on_c, 0, 67, 43
1, 585840, Note_on_c, 0, 60, 31
1, 585840, Note_on_c, 0, 58, 24
1, 585960, Tempo, 432495
1, 585960, Note_on_c, 0, 58, 0
1, 585960, Note_on_c, 0, 60, 0
1, 585960, Note_on_c, 0, 67, 0
1, 586080, Tempo, 398063
1, 586080, Note_on_c, 0, 67, 49
1, 586080, Note_on_c, 0, 53, 41
1, 586320, Note_on_c, 0, 53, 0
1, 586320, Note_on_c, 0, 67, 0
1, 586320, Note_on_c, 0, 65, 45
1, 586320, Note_on_c, 0, 57, 24
1, 586320, Note_on_c, 0, 60, 31
1, 586373, Control_c, 0, 64, 127
1, 586440, Note_on_c, 0, 60, 0
1, 586440, Note_on_c, 0, 57, 0
1, 586560, Note_on_c, 0, 57, 24
1, 586560, Note_on_c, 0, 60, 31
1, 586680, Note_on_c, 0, 60, 0
1, 586680, Note_on_c, 0, 57, 0
1, 586797, Control_c, 0, 64, 0
1, 586800, Note_on_c, 0, 65, 0
1, 586800, Note_on_c, 0, 65, 45
1, 586800, Note_on_c, 0, 60, 31
1, 586800, Note_on_c, 0, 57, 24
1, 586839, Control_c, 0, 64, 127
1, 586920, Note_on_c, 0, 57, 0
1, 586920, Note_on_c, 0, 60, 0
1, 587040, Note_on_c, 0, 60, 31
1, 587040, Note_on_c, 0, 57, 24
1, 587160, Note_on_c, 0, 57, 0
1, 587160, Note_on_c, 0, 60, 0
1, 587280, Note_on_c, 0, 60, 31
1, 587280, Note_on_c, 0, 57, 24
1, 587400, Tempo, 442054
1, 587400, Note_on_c, 0, 57, 0
1, 587400, Note_on_c, 0, 60, 0
1, 587460, Note_on_c, 0, 65, 0
1, 587460, Note_on_c, 0, 64, 41
1, 587520, Tempo, 398063
1, 587520, Note_on_c, 0, 64, 0
1, 587520, Note_on_c, 0, 70, 49
1, 587520, Note_on_c, 0, 48, 41
1, 587520, Control_c, 0, 64, 0
1, 587760, Note_on_c, 0, 48, 0
1, 587760, Note_on_c, 0, 55, 24
1, 587760, Note_on_c, 0, 60, 31
1, 587880, Note_on_c, 0, 60, 0
1, 587880, Note_on_c, 0, 55, 0
1, 588000, Note_on_c, 0, 55, 24
1, 588000, Note_on_c, 0, 60, 31
1, 588120, Note_on_c, 0, 60, 0
1, 588120, Note_on_c, 0, 55, 0
1, 588240, Note_on_c, 0, 55, 24
1, 588240, Note_on_c, 0, 60, 31
1, 588360, Note_on_c, 0, 60, 0
1, 588360, Note_on_c, 0, 55, 0
1, 588480, Note_on_c, 0, 70, 0
1, 588480, Note_on_c, 0, 69, 43
1, 588480, Note_on_c, 0, 55, 24
1, 588480, Note_on_c, 0, 60, 31
1, 588600, Note_on_c, 0, 60, 0
1, 588600, Note_on_c, 0, 55, 0
1, 588600, Note_on_c, 0, 69, 0
1, 588720, Note_on_c, 0, 67, 43
1, 588720, Note_on_c, 0, 55, 24
1, 588720, Note_on_c, 0, 60, 31
1, 588840, Tempo, 469741
1, 588840, Note_on_c, 0, 60, 0
1, 588840, Note_on_c, 0, 55, 0
1, 588840, Note_on_c, 0, 67, 0
1, 588960, Tempo, 398063
1, 588960, Note_on_c, 0, 71, 51
1, 588960, Note_on_c, 0, 53, 41
1, 589010, Control_c, 0, 64, 127
1, 589200, Note_on_c, 0, 53, 0
1, 589200, Note_on_c, 0, 57, 24
1, 589200, Note_on_c, 0, 60, 31
1, 589320, Note_on_c, 0, 60, 0
1, 589320, Note_on_c, 0, 57, 0
1, 589440, Note_on_c, 0, 57, 24
1, 589440, Note_on_c, 0, 60, 31
1, 589560, Note_on_c, 0, 60, 0
1, 589560, Note_on_c, 0, 57, 0
1, 589680, Note_on_c, 0, 71, 0
1, 589680, Note_on_c, 0, 72, 45
1, 589680, Note_on_c, 0, 57, 24
1, 589680, Note_on_c, 0, 60, 31
1, 589692, Control_c, 0, 64, 0
1, 589800, Note_on_c, 0, 60, 0
1, 589800, Note_on_c, 0, 57, 0
1, 589814, Control_c, 0, 64, 127
1, 589920, Note_on_c, 0, 72, 0
1, 589920, Note_on_c, 0, 57, 24
1, 589920, Note_on_c, 0, 60, 31
1, 590040, Note_on_c, 0, 60, 0
1, 590040, Note_on_c, 0, 57, 0
1, 590160, Note_on_c, 0, 57, 24
1, 590160, Note_on_c, 0, 60, 31
1, 590280, Note_on_c, 0, 60, 0
1, 590280, Note_on_c, 0, 57, 0
1, 590340, Tempo, 435635
1, 590340, Note_on_c, 0, 64, 41
1, 590400, Tempo, 398063
1, 590400, Note_on_c, 0, 64, 0
1, 590400, Note_on_c, 0, 70, 49
1, 590400, Note_on_c, 0, 48, 41
1, 590444, Control_c, 0, 64, 0
1, 590640, Note_on_c, 0, 48, 0
1, 590640, Note_on_c, 0, 60, 31
1, 590640, Note_on_c, 0, 58, 24
1, 590760, Note_on_c, 0, 58, 0
1, 590760, Note_on_c, 0, 60, 0
1, 590880, Note_on_c, 0, 60, 31
1, 590880, Note_on_c, 0, 58, 24
1, 591000, Note_on_c, 0, 58, 0
1, 591000, Note_on_c, 0, 60, 0
1, 591120, Note_on_c, 0, 60, 31
1, 591120, Note_on_c, 0, 58, 24
1, 591240, Note_on_c, 0, 58, 0
1, 591240, Note_on_c, 0, 60, 0
1, 591360, Note_on_c, 0, 70, 0
1, 591360, Note_on_c, 0, 69, 43
1, 591360, Note_on_c, 0, 60, 31
1, 591360, Note_on_c, 0, 58, 24
1, 591480, Note_on_c, 0, 58, 0
1, 591480, Note_on_c, 0, 60, 0
1, 591480, Note_on_c, 0, 69, 0
1, 591600, Note_on_c, 0, 67, 43
1, 591600, Note_on_c, 0, 58, 24
1, 591600, Note_on_c, 0, 60, 31
1, 591720, Tempo, 432495
1, 591720, Note_on_c, 0, 60, 0
1, 591720, Note_on_c, 0, 58, 0
1, 591720, Note_on_c, 0, 67, 0
1, 591840, Tempo, 398063
1, 591840, Note_on_c, 0, 65, 54
1, 591840, Note_on_c, 0, 53, 41
1, 591918, Control_c, 0, 64, 127
1, 592080, Note_on_c, 0, 53, 0
1, 592080, Note_on_c, 0, 57, 24
1, 592080, Note_on_c, 0, 60, 31
1, 592200, Note_on_c, 0, 60, 0
1, 592200, Note_on_c, 0, 57, 0
1, 592320, Note_on_c, 0, 65, 0
1, 592320, Note_on_c, 0, 69, 60
1, 592320, Note_on_c, 0, 57, 24
1, 592320, Note_on_c, 0, 60, 31
1, 592440, Note_on_c, 0, 60, 0
1, 592440, Note_on_c, 0, 57, 0
1, 592560, Note_on_c, 0, 60, 31
1, 592560, Note_on_c, 0, 57, 24
1, 592680, Note_on_c, 0, 57, 0
1, 592680, Note_on_c, 0, 60, 0
1, 592800, Note_on_c, 0, 60, 31
1, 592800, Note_on_c, 0, 57, 24
1, 592920, Note_on_c, 0, 57, 0
1, 592920, Note_on_c, 0, 60, 0
1, 593040, Note_on_c, 0, 69, 0
1, 593040, Note_on_c, 0, 72, 60
1, 593040, Note_on_c, 0, 60, 31
1, 593040, Note_on_c, 0, 57, 24
1, 593160, Note_on_c, 0, 57, 0
1, 593160, Note_on_c, 0, 60, 0
1, 593280, Note_on_c, 0, 48, 41
1, 593520, Note_on_c, 0, 48, 0
1, 593520, Note_on_c, 0, 55, 24
1, 593520, Note_on_c, 0, 60, 31
1, 593640, Note_on_c, 0, 60, 0
1, 593640, Note_on_c, 0, 55, 0
1, 593760, Note_on_c, 0, 72, 0
1, 593760, Note_on_c, 0, 70, 58
1, 593760, Note_on_c, 0, 60, 31
1, 593760, Note_on_c, 0, 55, 24
1, 593817, Control_c, 0, 64, 0
1, 593880, Note_on_c, 0, 55, 0
1, 593880, Note_on_c, 0, 60, 0
1, 593887, Control_c, 0, 64, 127
1, 594000, Note_on_c, 0, 58, 24
1, 594000, Note_on_c, 0, 60, 31
1, 594120, Note_on_c, 0, 60, 0
1, 594120, Note_on_c, 0, 58, 0
1, 594240, Note_on_c, 0, 60, 31
1, 594240, Note_on_c, 0, 58, 24
1, 594360, Note_on_c, 0, 58, 0
1, 594360, Note_on_c, 0, 60, 0
1, 594480, Tempo, 387772
1, 594480, Note_on_c, 0, 70, 0
1, 594480, Note_on_c, 0, 67, 50
1, 594480, Note_on_c, 0, 58, 24
1, 594480, Note_on_c, 0, 60, 31
1, 594600, Note_on_c, 0, 60, 0
1, 594600, Note_on_c, 0, 58, 0
1, 594720, Tempo, 398063
1, 594720, Note_on_c, 0, 67, 0
1, 594720, Note_on_c, 0, 65, 56
1, 594720, Note_on_c, 0, 60, 41
1, 594720, Note_on_c, 0, 53, 32
1, 594720, Note_on_c, 0, 57, 32
1, 594720, Control_c, 0, 64, 0
1, 594960, Note_on_c, 0, 57, 0
1, 594960, Note_on_c, 0, 65, 0
1, 594960, Note_on_c, 0, 60, 0
1, 594960, Note_on_c, 0, 53, 0
1, 595440, Note_on_c, 0, 73, 69
1, 595440, Note_on_c, 0, 85, 82
1, 595440, Note_on_c, 0, 51, 52
1, 595440, Note_on_c, 0, 55, 52
1, 595440, Note_on_c, 0, 61, 62
1, 596160, Tempo, 397141
1, 596160, Note_on_c, 0, 61, 0
1, 596160, Note_on_c, 0, 51, 0
1, 596160, Note_on_c, 0, 73, 0
1, 596160, Note_on_c, 0, 85, 0
1, 596160, Note_on_c, 0, 55, 0
1, 596160, Note_on_c, 0, 74, 74
1, 596160, Note_on_c, 0, 86, 88
1, 596160, Note_on_c, 0, 62, 68
1, 596160, Note_on_c, 0, 54, 57
1, 596160, Note_on_c, 0, 50, 57
1, 596880, Note_on_c, 0, 50, 0
1, 596880, Note_on_c, 0, 62, 0
1, 596880, Note_on_c, 0, 74, 0
1, 596880, Note_on_c, 0, 86, 0
1, 596880, Note_on_c, 0, 54, 0
1, 596880, Note_on_c, 0, 84, 84
1, 596880, Note_on_c, 0, 74, 71
1, 597600, Note_on_c, 0, 74, 0
1, 597600, Note_on_c, 0, 84, 0
1, 597600, Note_on_c, 0, 74, 72
1, 597600, Note_on_c, 0, 82, 85
1, 597600, Note_on_c, 0, 50, 63
1, 597600, Note_on_c, 0, 62, 74
1, 598320, Note_on_c, 0, 62, 0
1, 598320, Note_on_c, 0, 74, 0
1, 598320, Note_on_c, 0, 82, 0
1, 598320, Note_on_c, 0, 50, 0
1, 598320, Note_on_c, 0, 74, 65
1, 598320, Note_on_c, 0, 81, 76
1, 598320, Note_on_c, 0, 48, 63
1, 598320, Note_on_c, 0, 60, 74
1, 599040, Note_on_c, 0, 60, 0
1, 599040, Note_on_c, 0, 74, 0
1, 599040, Note_on_c, 0, 81, 0
1, 599040, Note_on_c, 0, 48, 0
1, 599040, Note_on_c, 0, 79, 79
1, 599040, Note_on_c, 0, 74, 67
1, 599040, Note_on_c, 0, 46, 63
1, 599040, Note_on_c, 0, 58, 74
1, 599760, Tempo, 419346
1, 599760, Note_on_c, 0, 58, 0
1, 599760, Note_on_c, 0, 79, 0
1, 599760, Note_on_c, 0, 74, 0
1, 599760, Note_on_c, 0, 46, 0
1, 599760, Note_on_c, 0, 72, 65
1, 599760, Note_on_c, 0, 78, 76
1, 599760, Note_on_c, 0, 74, 65
1, 599760, Note_on_c, 0, 45, 63
1, 599760, Note_on_c, 0, 57, 74
1, 600480, Tempo, 397141
1, 600480, Note_on_c, 0, 57, 0
1, 600480, Note_on_c, 0, 74, 0
1, 600480, Note_on_c, 0, 72, 0
1, 600480, Note_on_c, 0, 78, 0
1, 600480, Note_on_c, 0, 45, 0
1, 600480, Note_on_c, 0, 79, 65
1, 600480, Note_on_c, 0, 55, 59
1, 600544, Control_c, 0, 64, 127
1, 600600, Note_on_c, 0, 79, 0
1, 600600, Note_on_c, 0, 74, 54
1, 600720, Tempo, 386897
1, 600720, Note_on_c, 0, 74, 0
1, 600720, Note_on_c, 0, 55, 0
1, 600720, Note_on_c, 0, 70, 54
1, 600720, Note_on_c, 0, 58, 54
1, 600840, Note_on_c, 0, 70, 0
1, 600840, Note_on_c, 0, 74, 54
1, 600960, Tempo, 410734
1, 600960, Note_on_c, 0, 74, 0
1, 600960, Note_on_c, 0, 58, 0
1, 600960, Note_on_c, 0, 79, 65
1, 600960, Note_on_c, 0, 62, 54
1, 601080, Note_on_c, 0, 79, 0
1, 601080, Note_on_c, 0, 74, 54
1, 601200, Tempo, 394529
1, 601200, Note_on_c, 0, 74, 0
1, 601200, Note_on_c, 0, 62, 0
1, 601200, Note_on_c, 0, 81, 65
1, 601200, Note_on_c, 0, 54, 59
1, 601211, Control_c, 0, 64, 0
1, 601292, Control_c, 0, 64, 127
1, 601320, Note_on_c, 0, 81, 0
1, 601320, Note_on_c, 0, 74, 54
1, 601440, Tempo, 384418
1, 601440, Note_on_c, 0, 74, 0
1, 601440, Note_on_c, 0, 54, 0
1, 601440, Note_on_c, 0, 72, 54
1, 601440, Note_on_c, 0, 57, 54
1, 601560, Note_on_c, 0, 72, 0
1, 601560, Note_on_c, 0, 74, 54
1, 601680, Tempo, 402468
1, 601680, Note_on_c, 0, 74, 0
1, 601680, Note_on_c, 0, 57, 0
1, 601680, Note_on_c, 0, 81, 65
1, 601680, Note_on_c, 0, 62, 54
1, 601800, Note_on_c, 0, 81, 0
1, 601800, Note_on_c, 0, 74, 55
1, 601920, Tempo, 391952
1, 601920, Note_on_c, 0, 74, 0
1, 601920, Note_on_c, 0, 62, 0
1, 601920, Note_on_c, 0, 82, 65
1, 601920, Note_on_c, 0, 55, 59
1, 601935, Control_c, 0, 64, 0
1, 601983, Control_c, 0, 64, 127
1, 602040, Note_on_c, 0, 82, 0
1, 602040, Note_on_c, 0, 79, 55
1, 602160, Note_on_c, 0, 79, 0
1, 602160, Note_on_c, 0, 55, 0
1, 602160, Note_on_c, 0, 74, 55
1, 602160, Note_on_c, 0, 58, 54
1, 602280, Note_on_c, 0, 74, 0
1, 602280, Note_on_c, 0, 79, 55
1, 602400, Tempo, 402468
1, 602400, Note_on_c, 0, 79, 0
1, 602400, Note_on_c, 0, 58, 0
1, 602400, Note_on_c, 0, 82, 65
1, 602400, Note_on_c, 0, 62, 54
1, 602520, Note_on_c, 0, 82, 0
1, 602520, Note_on_c, 0, 79, 55
1, 602640, Tempo, 391952
1, 602640, Note_on_c, 0, 79, 0
1, 602640, Note_on_c, 0, 62, 0
1, 602640, Note_on_c, 0, 83, 65
1, 602640, Note_on_c, 0, 53, 59
1, 602652, Control_c, 0, 64, 0
1, 602743, Control_c, 0, 64, 127
1, 602760, Note_on_c, 0, 83, 0
1, 602760, Note_on_c, 0, 79, 55
1, 602880, Tempo, 384418
1, 602880, Note_on_c, 0, 79, 0
1, 602880, Note_on_c, 0, 53, 0
1, 602880, Note_on_c, 0, 74, 55
1, 602880, Note_on_c, 0, 59, 53
1, 603000, Note_on_c, 0, 74, 0
1, 603000, Note_on_c, 0, 79, 55
1, 603120, Tempo, 402468
1, 603120, Note_on_c, 0, 79, 0
1, 603120, Note_on_c, 0, 59, 0
1, 603120, Note_on_c, 0, 83, 65
1, 603120, Note_on_c, 0, 62, 53
1, 603240, Note_on_c, 0, 83, 0
1, 603240, Note_on_c, 0, 79, 56
1, 603360, Tempo, 394529
1, 603360, Note_on_c, 0, 79, 0
1, 603360, Note_on_c, 0, 62, 0
1, 603360, Note_on_c, 0, 84, 65
1, 603360, Note_on_c, 0, 52, 58
1, 603376, Control_c, 0, 64, 0
1, 603840, Tempo, 389408
1, 603840, Note_on_c, 0, 52, 0
1, 603840, Note_on_c, 0, 84, 0
1, 603840, Note_on_c, 0, 86, 59
1, 603960, Note_on_c, 0, 86, 0
1, 603960, Note_on_c, 0, 84, 59
1, 604080, Tempo, 397141
1, 604080, Note_on_c, 0, 84, 0
1, 604080, Note_on_c, 0, 82, 65
1, 604560, Tempo, 391952
1, 604560, Note_on_c, 0, 82, 0
1, 604560, Note_on_c, 0, 84, 57
1, 604680, Note_on_c, 0, 84, 0
1, 604680, Note_on_c, 0, 82, 57
1, 604800, Tempo, 399787
1, 604800, Note_on_c, 0, 82, 0
1, 604800, Note_on_c, 0, 81, 65
1, 604800, Note_on_c, 0, 72, 54
1, 605280, Tempo, 394529
1, 605280, Note_on_c, 0, 81, 0
1, 605280, Note_on_c, 0, 82, 57
1, 605400, Note_on_c, 0, 82, 0
1, 605400, Note_on_c, 0, 81, 57
1, 605520, Tempo, 399787
1, 605520, Note_on_c, 0, 81, 0
1, 605520, Note_on_c, 0, 72, 0
1, 605520, Note_on_c, 0, 79, 65
1, 605520, Note_on_c, 0, 70, 44
1, 605520, Note_on_c, 0, 72, 52
1, 606000, Tempo, 391952
1, 606000, Note_on_c, 0, 79, 0
1, 606000, Note_on_c, 0, 81, 59
1, 606120, Note_on_c, 0, 81, 0
1, 606120, Note_on_c, 0, 79, 59
1, 606240, Tempo, 399787
1, 606240, Note_on_c, 0, 79, 0
1, 606240, Note_on_c, 0, 72, 0
1, 606240, Note_on_c, 0, 70, 0
1, 606240, Note_on_c, 0, 77, 65
1, 606240, Note_on_c, 0, 72, 47
1, 606240, Note_on_c, 0, 69, 40
1, 606720, Tempo, 391952
1, 606720, Note_on_c, 0, 77, 0
1, 606720, Note_on_c, 0, 79, 59
1, 606840, Note_on_c, 0, 79, 0
1, 606840, Note_on_c, 0, 77, 59
1, 606960, Tempo, 399787
1, 606960, Note_on_c, 0, 77, 0
1, 606960, Note_on_c, 0, 69, 0
1, 606960, Note_on_c, 0, 72, 0
1, 606960, Note_on_c, 0, 76, 65
1, 606960, Note_on_c, 0, 70, 39
1, 606960, Note_on_c, 0, 72, 46
1, 606960, Note_on_c, 0, 67, 39
1, 607200, Tempo, 399787
1, 607440, Tempo, 405186
1, 607440, Note_on_c, 0, 76, 0
1, 607440, Note_on_c, 0, 77, 56
1, 607560, Note_on_c, 0, 77, 0
1, 607560, Note_on_c, 0, 76, 56
1, 607680, Tempo, 399787
1, 607680, Note_on_c, 0, 76, 0
1, 607680, Note_on_c, 0, 70, 0
1, 607680, Note_on_c, 0, 72, 0
1, 607680, Note_on_c, 0, 67, 0
1, 607680, Note_on_c, 0, 79, 62
1, 607680, Note_on_c, 0, 65, 44
1, 607800, Note_on_c, 0, 65, 0
1, 607800, Note_on_c, 0, 77, 54
1, 607812, Note_on_c, 0, 79, 0
1, 607920, Note_on_c, 0, 76, 54
1, 607920, Note_on_c, 0, 69, 37
1, 607932, Note_on_c, 0, 77, 0
1, 608040, Note_on_c, 0, 69, 0
1, 608040, Note_on_c, 0, 77, 54
1, 608052, Note_on_c, 0, 76, 0
1, 608160, Note_on_c, 0, 76, 53
1, 608160, Note_on_c, 0, 72, 37
1, 608172, Note_on_c, 0, 77, 0
1, 608280, Tempo, 410734
1, 608280, Note_on_c, 0, 72, 0
1, 608280, Note_on_c, 0, 77, 55
1, 608292, Note_on_c, 0, 76, 0
1, 608400, Tempo, 397141
1, 608400, Note_on_c, 0, 81, 59
1, 608400, Note_on_c, 0, 64, 43
1, 608412, Note_on_c, 0, 77, 0
1, 608520, Note_on_c, 0, 64, 0
1, 608520, Note_on_c, 0, 79, 55
1, 608532, Note_on_c, 0, 81, 0
1, 608640, Note_on_c, 0, 78, 55
1, 608640, Note_on_c, 0, 67, 37
1, 608652, Note_on_c, 0, 79, 0
1, 608760, Note_on_c, 0, 67, 0
1, 608760, Note_on_c, 0, 79, 55
1, 608772, Note_on_c, 0, 78, 0
1, 608880, Note_on_c, 0, 78, 55
1, 608880, Note_on_c, 0, 72, 37
1, 608892, Note_on_c, 0, 79, 0
1, 609000, Tempo, 413565
1, 609000, Note_on_c, 0, 72, 0
1, 609000, Note_on_c, 0, 79, 55
1, 609012, Note_on_c, 0, 78, 0
1, 609120, Tempo, 397141
1, 609120, Note_on_c, 0, 81, 59
1, 609120, Note_on_c, 0, 69, 46
1, 609120, Note_on_c, 0, 72, 46
1, 609120, Note_on_c, 0, 65, 46
1, 609132, Note_on_c, 0, 79, 0
1, 609240, Note_on_c, 0, 79, 54
1, 609252, Note_on_c, 0, 81, 0
1, 609360, Note_on_c, 0, 65, 0
1, 609360, Note_on_c, 0, 72, 0
1, 609360, Note_on_c, 0, 69, 0
1, 609360, Note_on_c, 0, 77, 54
1, 609372, Note_on_c, 0, 79, 0
1, 609480, Note_on_c, 0, 79, 54
1, 609492, Note_on_c, 0, 77, 0
1, 609600, Note_on_c, 0, 81, 54
1, 609612, Note_on_c, 0, 79, 0
1, 609720, Note_on_c, 0, 82, 54
1, 609732, Note_on_c, 0, 81, 0
1, 609840, Note_on_c, 0, 84, 59
1, 609852, Note_on_c, 0, 82, 0
1, 609960, Note_on_c, 0, 82, 55
1, 609972, Note_on_c, 0, 84, 0
1, 610080, Note_on_c, 0, 81, 55
1, 610092, Note_on_c, 0, 82, 0
1, 610200, Note_on_c, 0, 82, 55
1, 610212, Note_on_c, 0, 81, 0
1, 610320, Note_on_c, 0, 84, 55
1, 610332, Note_on_c, 0, 82, 0
1, 610440, Tempo, 413565
1, 610440, Note_on_c, 0, 85, 55
1, 610452, Note_on_c, 0, 84, 0
1, 610560, Tempo, 397141
1, 610560, Note_on_c, 0, 86, 59
1, 610560, Note_on_c, 0, 46, 49
1, 610572, Note_on_c, 0, 85, 0
1, 610680, Note_on_c, 0, 46, 0
1, 610680, Note_on_c, 0, 86, 0
1, 610680, Note_on_c, 0, 74, 55
1, 610800, Note_on_c, 0, 86, 55
1, 610800, Note_on_c, 0, 58, 40
1, 610812, Note_on_c, 0, 74, 0
1, 610920, Note_on_c, 0, 58, 0
1, 610920, Note_on_c, 0, 84, 55
1, 610932, Note_on_c, 0, 86, 0
1, 611040, Note_on_c, 0, 82, 55
1, 611052, Note_on_c, 0, 84, 0
1, 611160, Note_on_c, 0, 81, 54
1, 611172, Note_on_c, 0, 82, 0
1, 611280, Tempo, 419346
1, 611280, Note_on_c, 0, 79, 59
1, 611280, Note_on_c, 0, 52, 48
1, 611292, Note_on_c, 0, 81, 0
1, 611400, Tempo, 397141
1, 611400, Note_on_c, 0, 52, 0
1, 611400, Note_on_c, 0, 79, 0
1, 611400, Note_on_c, 0, 78, 54
1, 611520, Note_on_c, 0, 79, 63
1, 611520, Note_on_c, 0, 64, 43
1, 611532, Note_on_c, 0, 78, 0
1, 611640, Note_on_c, 0, 64, 0
1, 611640, Note_on_c, 0, 81, 62
1, 611652, Note_on_c, 0, 79, 0
1, 611760, Note_on_c, 0, 82, 60
1, 611772, Note_on_c, 0, 81, 0
1, 611880, Tempo, 407941
1, 611880, Note_on_c, 0, 83, 59
1, 611892, Note_on_c, 0, 82, 0
1, 612000, Tempo, 397141
1, 612000, Note_on_c, 0, 84, 59
1, 612000, Note_on_c, 0, 45, 50
1, 612012, Note_on_c, 0, 83, 0
1, 612120, Note_on_c, 0, 45, 0
1, 612120, Note_on_c, 0, 84, 0
1, 612120, Note_on_c, 0, 72, 60
1, 612240, Note_on_c, 0, 72, 0
1, 612240, Note_on_c, 0, 84, 60
1, 612240, Note_on_c, 0, 57, 43
1, 612360, Note_on_c, 0, 57, 0
1, 612360, Note_on_c, 0, 84, 0
1, 612360, Note_on_c, 0, 82, 60
1, 612480, Note_on_c, 0, 82, 0
1, 612480, Note_on_c, 0, 81, 60
1, 612600, Note_on_c, 0, 81, 0
1, 612600, Note_on_c, 0, 79, 59
1, 612720, Tempo, 419346
1, 612720, Note_on_c, 0, 79, 0
1, 612720, Note_on_c, 0, 77, 59
1, 612720, Note_on_c, 0, 50, 47
1, 612840, Tempo, 397141
1, 612840, Note_on_c, 0, 50, 0
1, 612840, Note_on_c, 0, 77, 0
1, 612840, Note_on_c, 0, 76, 56
1, 612960, Note_on_c, 0, 77, 63
1, 612960, Note_on_c, 0, 62, 40
1, 612972, Note_on_c, 0, 76, 0
1, 613080, Note_on_c, 0, 62, 0
1, 613080, Note_on_c, 0, 79, 62
1, 613092, Note_on_c, 0, 77, 0
1, 613200, Note_on_c, 0, 80, 60
1, 613212, Note_on_c, 0, 79, 0
1, 613320, Note_on_c, 0, 81, 59
1, 613332, Note_on_c, 0, 80, 0
1, 613440, Tempo, 397141
1, 613440, Note_on_c, 0, 81, 0
1, 613440, Note_on_c, 0, 82, 59
1, 613440, Note_on_c, 0, 43, 45
1, 613560, Note_on_c, 0, 43, 0
1, 613560, Note_on_c, 0, 82, 0
1, 613560, Note_on_c, 0, 84, 60
1, 613680, Note_on_c, 0, 84, 0
1, 613680, Note_on_c, 0, 82, 60
1, 613680, Note_on_c, 0, 45, 47
1, 613800, Note_on_c, 0, 45, 0
1, 613800, Note_on_c, 0, 82, 0
1, 613800, Note_on_c, 0, 81, 60
1, 613920, Note_on_c, 0, 81, 0
1, 613920, Note_on_c, 0, 79, 60
1, 613920, Note_on_c, 0, 46, 49
1, 614040, Note_on_c, 0, 46, 0
1, 614040, Note_on_c, 0, 79, 0
1, 614040, Note_on_c, 0, 77, 59
1, 614160, Tempo, 419346
1, 614160, Note_on_c, 0, 77, 0
1, 614160, Note_on_c, 0, 76, 59
1, 614160, Note_on_c, 0, 48, 51
1, 614280, Tempo, 397141
1, 614280, Note_on_c, 0, 48, 0
1, 614280, Note_on_c, 0, 76, 0
1, 614280, Note_on_c, 0, 77, 56
1, 614400, Note_on_c, 0, 76, 63
1, 614400, Note_on_c, 0, 50, 53
1, 614412, Note_on_c, 0, 77, 0
1, 614520, Note_on_c, 0, 50, 0
1, 614520, Note_on_c, 0, 74, 62
1, 614532, Note_on_c, 0, 76, 0
1, 614640, Note_on_c, 0, 72, 60
1, 614640, Note_on_c, 0, 52, 55
1, 614652, Note_on_c, 0, 74, 0
1, 614760, Note_on_c, 0, 52, 0
1, 614760, Note_on_c, 0, 70, 59
1, 614772, Note_on_c, 0, 72, 0
1, 614880, Note_on_c, 0, 69, 56
1, 614880, Note_on_c, 0, 53, 57
1, 614892, Note_on_c, 0, 70, 0
1, 615000, Tempo, 394529
1, 615000, Note_on_c, 0, 53, 0
1, 615000, Note_on_c, 0, 69, 0
1, 615000, Note_on_c, 0, 72, 61
1, 615120, Note_on_c, 0, 72, 0
1, 615120, Note_on_c, 0, 77, 68
1, 615240, Note_on_c, 0, 77, 0
1, 615240, Note_on_c, 0, 79, 62
1, 615360, Note_on_c, 0, 79, 0
1, 615360, Note_on_c, 0, 77, 63
1, 615360, Note_on_c, 0, 45, 49
1, 615480, Note_on_c, 0, 45, 0
1, 615480, Note_on_c, 0, 77, 0
1, 615480, Note_on_c, 0, 76, 63
1, 615600, Tempo, 419346
1, 615600, Note_on_c, 0, 76, 0
1, 615600, Note_on_c, 0, 74, 60
1, 615600, Note_on_c, 0, 46, 59
1, 615720, Tempo, 394529
1, 615720, Note_on_c, 0, 46, 0
1, 615720, Note_on_c, 0, 74, 0
1, 615720, Note_on_c, 0, 72, 53
1, 615840, Note_on_c, 0, 70, 59
1, 615852, Note_on_c, 0, 72, 0
1, 615960, Note_on_c, 0, 69, 54
1, 615972, Note_on_c, 0, 70, 0
1, 616080, Note_on_c, 0, 67, 54
1, 616080, Note_on_c, 0, 47, 50
1, 616092, Note_on_c, 0, 69, 0
1, 616200, Tempo, 397141
1, 616200, Note_on_c, 0, 47, 0
1, 616200, Note_on_c, 0, 65, 54
1, 616212, Note_on_c, 0, 67, 0
1, 616320, Tempo, 394529
1, 616320, Note_on_c, 0, 64, 59
1, 616320, Note_on_c, 0, 48, 56
1, 616332, Note_on_c, 0, 65, 0
1, 616440, Note_on_c, 0, 48, 0
1, 616440, Note_on_c, 0, 64, 0
1, 616440, Note_on_c, 0, 65, 58
1, 616560, Note_on_c, 0, 67, 62
1, 616572, Note_on_c, 0, 65, 0
1, 616680, Note_on_c, 0, 65, 61
1, 616692, Note_on_c, 0, 67, 0
1, 616800, Note_on_c, 0, 64, 60
1, 616812, Note_on_c, 0, 65, 0
1, 616920, Note_on_c, 0, 62, 59
1, 616932, Note_on_c, 0, 64, 0
1, 617040, Note_on_c, 0, 60, 57
1, 617048, Tempo, 391952
1, 617052, Note_on_c, 0, 62, 0
1, 617123, Tempo, 394529
1, 617160, Note_on_c, 0, 62, 57
1, 617172, Note_on_c, 0, 60, 0
1, 617183, Tempo, 397141
1, 617243, Tempo, 399787
1, 617280, Note_on_c, 0, 60, 56
1, 617292, Note_on_c, 0, 62, 0
1, 617303, Tempo, 402468
1, 617378, Tempo, 405186
1, 617400, Note_on_c, 0, 58, 55
1, 617412, Note_on_c, 0, 60, 0
1, 617438, Tempo, 407941
1, 617498, Tempo, 410734
1, 617520, Note_on_c, 0, 57, 52
1, 617532, Note_on_c, 0, 58, 0
1, 617558, Tempo, 413565
1, 617618, Tempo, 416435
1, 617640, Tempo, 570994
1, 617640, Note_on_c, 0, 55, 51
1, 617652, Note_on_c, 0, 57, 0
1, 617760, Tempo, 398063
1, 617760, Note_on_c, 0, 55, 0
1, 617760, Note_on_c, 0, 68, 49
1, 617760, Note_on_c, 0, 53, 41
1, 617937, Control_c, 0, 64, 127
1, 618000, Note_on_c, 0, 53, 0
1, 618000, Note_on_c, 0, 56, 31
1, 618240, Note_on_c, 0, 56, 0
1, 618240, Note_on_c, 0, 60, 31
1, 618480, Note_on_c, 0, 60, 0
1, 618480, Note_on_c, 0, 53, 37
1, 618685, Control_c, 0, 64, 0
1, 618720, Tempo, 394529
1, 618720, Note_on_c, 0, 53, 0
1, 618720, Note_on_c, 0, 68, 0
1, 618720, Note_on_c, 0, 67, 43
1, 618720, Note_on_c, 0, 56, 31
1, 618840, Note_on_c, 0, 67, 0
1, 618960, Note_on_c, 0, 56, 0
1, 618960, Note_on_c, 0, 65, 43
1, 618960, Note_on_c, 0, 60, 31
1, 619080, Tempo, 432495
1, 619080, Note_on_c, 0, 65, 0
1, 619200, Tempo, 398063
1, 619200, Note_on_c, 0, 60, 0
1, 619200, Note_on_c, 0, 71, 49
1, 619200, Note_on_c, 0, 52, 41
1, 619200, Control_c, 0, 64, 127
1, 619440, Note_on_c, 0, 52, 0
1, 619440, Note_on_c, 0, 55, 31
1, 619680, Note_on_c, 0, 55, 0
1, 619680, Note_on_c, 0, 71, 0
1, 619680, Note_on_c, 0, 72, 43
1, 619680, Note_on_c, 0, 60, 31
1, 619920, Note_on_c, 0, 60, 0
1, 619920, Note_on_c, 0, 72, 0
1, 619920, Note_on_c, 0, 67, 43
1, 619920, Note_on_c, 0, 52, 36
1, 619934, Control_c, 0, 64, 0
1, 620054, Control_c, 0, 64, 127
1, 620160, Note_on_c, 0, 52, 0
1, 620160, Note_on_c, 0, 55, 31
1, 620400, Note_on_c, 0, 55, 0
1, 620400, Note_on_c, 0, 67, 0
1, 620400, Note_on_c, 0, 60, 31
1, 620520, Tempo, 442054
1, 620640, Tempo, 398063
1, 620640, Note_on_c, 0, 60, 0
1, 620640, Note_on_c, 0, 73, 58
1, 620640, Note_on_c, 0, 52, 41
1, 620651, Control_c, 0, 64, 0
1, 620781, Control_c, 0, 64, 127
1, 620880, Note_on_c, 0, 52, 0
1, 620880, Note_on_c, 0, 55, 31
1, 621120, Note_on_c, 0, 55, 0
1, 621120, Note_on_c, 0, 58, 31
1, 621360, Note_on_c, 0, 58, 0
1, 621360, Note_on_c, 0, 52, 37
1, 621565, Control_c, 0, 64, 0
1, 621600, Tempo, 394529
1, 621600, Note_on_c, 0, 52, 0
1, 621600, Note_on_c, 0, 73, 0
1, 621600, Note_on_c, 0, 72, 49
1, 621600, Note_on_c, 0, 55, 31
1, 621720, Note_on_c, 0, 72, 0
1, 621840, Note_on_c, 0, 55, 0
1, 621840, Note_on_c, 0, 70, 49
1, 621840, Note_on_c, 0, 60, 31
1, 621960, Tempo, 432495
1, 621960, Note_on_c, 0, 70, 0
1, 622080, Tempo, 398063
1, 622080, Note_on_c, 0, 60, 0
1, 622080, Note_on_c, 0, 68, 60
1, 622080, Note_on_c, 0, 53, 41
1, 622080, Control_c, 0, 64, 127
1, 622320, Tempo, 407941
1, 622320, Note_on_c, 0, 53, 0
1, 622320, Note_on_c, 0, 68, 0
1, 622320, Note_on_c, 0, 70, 42
1, 622320, Note_on_c, 0, 56, 31
1, 622400, Note_on_c, 0, 70, 0
1, 622400, Note_on_c, 0, 68, 42
1, 622480, Note_on_c, 0, 68, 0
1, 622480, Note_on_c, 0, 67, 42
1, 622560, Tempo, 410734
1, 622560, Note_on_c, 0, 67, 0
1, 622560, Note_on_c, 0, 56, 0
1, 622560, Note_on_c, 0, 68, 51
1, 622560, Note_on_c, 0, 60, 31
1, 622680, Tempo, 464828
1, 622680, Note_on_c, 0, 68, 0
1, 622680, Note_on_c, 0, 70, 44
1, 622800, Tempo, 397141
1, 622800, Note_on_c, 0, 70, 0
1, 622800, Note_on_c, 0, 60, 0
1, 622800, Note_on_c, 0, 72, 51
1, 622800, Note_on_c, 0, 53, 36
1, 622814, Control_c, 0, 64, 0
1, 622934, Control_c, 0, 64, 127
1, 623040, Note_on_c, 0, 53, 0
1, 623040, Note_on_c, 0, 56, 31
1, 623280, Note_on_c, 0, 56, 0
1, 623280, Note_on_c, 0, 72, 0
1, 623280, Note_on_c, 0, 60, 31
1, 623400, Tempo, 442054
1, 623520, Tempo, 402468
1, 623520, Note_on_c, 0, 60, 0
1, 623520, Note_on_c, 0, 77, 66
1, 623520, Note_on_c, 0, 56, 47
1, 623520, Control_c, 0, 64, 0
1, 623703, Control_c, 0, 64, 127
1, 623760, Note_on_c, 0, 56, 0
1, 623760, Note_on_c, 0, 60, 36
1, 624000, Note_on_c, 0, 60, 0
1, 624000, Note_on_c, 0, 65, 36
1, 624240, Note_on_c, 0, 65, 0
1, 624240, Note_on_c, 0, 77, 0
1, 624240, Note_on_c, 0, 75, 54
1, 624240, Note_on_c, 0, 55, 44
1, 624251, Control_c, 0, 64, 0
1, 624412, Control_c, 0, 64, 127
1, 624480, Note_on_c, 0, 55, 0
1, 624480, Note_on_c, 0, 58, 32
1, 624720, Note_on_c, 0, 58, 0
1, 624720, Note_on_c, 0, 75, 0
1, 624720, Note_on_c, 0, 77, 50
1, 624720, Note_on_c, 0, 63, 33
1, 624960, Note_on_c, 0, 63, 0
1, 624960, Note_on_c, 0, 77, 0
1, 624960, Note_on_c, 0, 75, 57
1, 624960, Note_on_c, 0, 53, 48
1, 624966, Control_c, 0, 64, 0
1, 625052, Control_c, 0, 64, 127
1, 625200, Note_on_c, 0, 53, 0
1, 625200, Note_on_c, 0, 56, 36
1, 625440, Note_on_c, 0, 56, 0
1, 625440, Note_on_c, 0, 75, 0
1, 625440, Note_on_c, 0, 73, 52
1, 625440, Note_on_c, 0, 61, 36
1, 625680, Note_on_c, 0, 61, 0
1, 625680, Note_on_c, 0, 73, 0
1, 625680, Note_on_c, 0, 72, 55
1, 625680, Note_on_c, 0, 51, 45
1, 625685, Control_c, 0, 64, 0
1, 625852, Control_c, 0, 64, 127
1, 625920, Note_on_c, 0, 51, 0
1, 625920, Note_on_c, 0, 55, 31
1, 626160, Note_on_c, 0, 55, 0
1, 626160, Note_on_c, 0, 60, 31
1, 626400, Note_on_c, 0, 60, 0
1, 626400, Note_on_c, 0, 72, 0
1, 626400, Note_on_c, 0, 70, 59
1, 626400, Note_on_c, 0, 49, 46
1, 626400, Control_c, 0, 64, 0
1, 626537, Control_c, 0, 64, 127
1, 626640, Note_on_c, 0, 49, 0
1, 626640, Note_on_c, 0, 53, 35
1, 626880, Note_on_c, 0, 53, 0
1, 626880, Note_on_c, 0, 70, 0
1, 626880, Note_on_c, 0, 68, 53
1, 626880, Note_on_c, 0, 58, 35
1, 627120, Note_on_c, 0, 58, 0
1, 627120, Note_on_c, 0, 68, 0
1, 627120, Note_on_c, 0, 67, 57
1, 627120, Note_on_c, 0, 49, 43
1, 627131, Control_c, 0, 64, 0
1, 627223, Control_c, 0, 64, 127
1, 627360, Note_on_c, 0, 49, 0
1, 627360, Note_on_c, 0, 53, 36
1, 627600, Note_on_c, 0, 53, 0
1, 627600, Note_on_c, 0, 67, 0
1, 627600, Note_on_c, 0, 65, 47
1, 627600, Note_on_c, 0, 59, 34
1, 627840, Note_on_c, 0, 59, 0
1, 627840, Note_on_c, 0, 65, 0
1, 627840, Note_on_c, 0, 68, 53
1, 627840, Note_on_c, 0, 48, 43
1, 627845, Control_c, 0, 64, 0
1, 627943, Control_c, 0, 64, 127
1, 628080, Note_on_c, 0, 48, 0
1, 628080, Note_on_c, 0, 53, 29
1, 628320, Note_on_c, 0, 53, 0
1, 628320, Note_on_c, 0, 60, 30
1, 628560, Note_on_c, 0, 60, 0
1, 628560, Note_on_c, 0, 68, 0
1, 628560, Note_on_c, 0, 67, 45
1, 628560, Note_on_c, 0, 48, 39
1, 628595, Control_c, 0, 64, 0
1, 628732, Control_c, 0, 64, 127
1, 628800, Note_on_c, 0, 48, 0
1, 628800, Note_on_c, 0, 67, 0
1, 628800, Note_on_c, 0, 52, 27
1, 629040, Note_on_c, 0, 52, 0
1, 629040, Note_on_c, 0, 60, 27
1, 629280, Tempo, 398063
1, 629280, Note_on_c, 0, 60, 0
1, 629280, Note_on_c, 0, 80, 49
1, 629280, Note_on_c, 0, 68, 41
1, 629280, Note_on_c, 0, 53, 41
1, 629280, Control_c, 0, 64, 0
1, 629380, Control_c, 0, 64, 127
1, 629520, Note_on_c, 0, 53, 0
1, 629520, Note_on_c, 0, 56, 31
1, 629760, Note_on_c, 0, 56, 0
1, 629760, Note_on_c, 0, 60, 31
1, 630000, Note_on_c, 0, 60, 0
1, 630000, Note_on_c, 0, 53, 37
1, 630205, Control_c, 0, 64, 0
1, 630240, Tempo, 394529
1, 630240, Note_on_c, 0, 53, 0
1, 630240, Note_on_c, 0, 68, 0
1, 630240, Note_on_c, 0, 80, 0
1, 630240, Note_on_c, 0, 67, 36
1, 630240, Note_on_c, 0, 79, 43
1, 630240, Note_on_c, 0, 56, 31
1, 630360, Note_on_c, 0, 79, 0
1, 630360, Note_on_c, 0, 67, 0
1, 630480, Note_on_c, 0, 56, 0
1, 630480, Note_on_c, 0, 77, 43
1, 630480, Note_on_c, 0, 65, 36
1, 630480, Note_on_c, 0, 60, 31
1, 630600, Tempo, 432495
1, 630600, Note_on_c, 0, 65, 0
1, 630600, Note_on_c, 0, 77, 0
1, 630720, Tempo, 398063
1, 630720, Note_on_c, 0, 60, 0
1, 630720, Note_on_c, 0, 71, 41
1, 630720, Note_on_c, 0, 83, 49
1, 630720, Note_on_c, 0, 52, 41
1, 630720, Control_c, 0, 64, 127
1, 630960, Note_on_c, 0, 52, 0
1, 630960, Note_on_c, 0, 55, 31
1, 631200, Note_on_c, 0, 55, 0
1, 631200, Note_on_c, 0, 83, 0
1, 631200, Note_on_c, 0, 71, 0
1, 631200, Note_on_c, 0, 84, 43
1, 631200, Note_on_c, 0, 72, 36
1, 631200, Note_on_c, 0, 60, 31
1, 631440, Note_on_c, 0, 60, 0
1, 631440, Note_on_c, 0, 72, 0
1, 631440, Note_on_c, 0, 84, 0
1, 631440, Note_on_c, 0, 67, 36
1, 631440, Note_on_c, 0, 79, 43
1, 631440, Note_on_c, 0, 52, 36
1, 631454, Control_c, 0, 64, 0
1, 631574, Control_c, 0, 64, 127
1, 631680, Note_on_c, 0, 52, 0
1, 631680, Note_on_c, 0, 55, 31
1, 631920, Note_on_c, 0, 55, 0
1, 631920, Note_on_c, 0, 79, 0
1, 631920, Note_on_c, 0, 67, 0
1, 631920, Note_on_c, 0, 60, 31
1, 632040, Tempo, 442054
1, 632160, Tempo, 398063
1, 632160, Note_on_c, 0, 60, 0
1, 632160, Note_on_c, 0, 73, 49
1, 632160, Note_on_c, 0, 85, 58
1, 632160, Note_on_c, 0, 52, 41
1, 632171, Control_c, 0, 64, 0
1, 632301, Control_c, 0, 64, 127
1, 632400, Note_on_c, 0, 52, 0
1, 632400, Note_on_c, 0, 55, 31
1, 632640, Note_on_c, 0, 55, 0
1, 632640, Note_on_c, 0, 58, 31
1, 632880, Note_on_c, 0, 58, 0
1, 632880, Note_on_c, 0, 52, 37
1, 633085, Control_c, 0, 64, 0
1, 633120, Tempo, 394529
1, 633120, Note_on_c, 0, 52, 0
1, 633120, Note_on_c, 0, 85, 0
1, 633120, Note_on_c, 0, 73, 0
1, 633120, Note_on_c, 0, 72, 41
1, 633120, Note_on_c, 0, 84, 49
1, 633120, Note_on_c, 0, 55, 31
1, 633240, Note_on_c, 0, 84, 0
1, 633240, Note_on_c, 0, 72, 0
1, 633360, Note_on_c, 0, 55, 0
1, 633360, Note_on_c, 0, 82, 49
1, 633360, Note_on_c, 0, 70, 41
1, 633360, Note_on_c, 0, 60, 31
1, 633480, Tempo, 432495
1, 633480, Note_on_c, 0, 70, 0
1, 633480, Note_on_c, 0, 82, 0
1, 633600, Tempo, 398063
1, 633600, Note_on_c, 0, 60, 0
1, 633600, Note_on_c, 0, 81, 60
1, 633600, Note_on_c, 0, 69, 51
1, 633600, Control_c, 0, 64, 127
1, 633604, Note_on_c, 0, 51, 41
1, 633840, Tempo, 407941
1, 633840, Note_on_c, 0, 54, 31
1, 633844, Note_on_c, 0, 51, 0
1, 634080, Tempo, 410734
1, 634080, Note_on_c, 0, 81, 0
1, 634080, Note_on_c, 0, 69, 0
1, 634080, Note_on_c, 0, 54, 0
1, 634080, Note_on_c, 0, 84, 51
1, 634080, Note_on_c, 0, 72, 43
1, 634080, Note_on_c, 0, 57, 31
1, 634200, Tempo, 464828
1, 634320, Tempo, 397141
1, 634320, Note_on_c, 0, 57, 0
1, 634320, Note_on_c, 0, 72, 0
1, 634320, Note_on_c, 0, 84, 0
1, 634320, Note_on_c, 0, 82, 51
1, 634320, Note_on_c, 0, 70, 43
1, 634320, Note_on_c, 0, 50, 36
1, 634334, Control_c, 0, 64, 0
1, 634454, Control_c, 0, 64, 127
1, 634560, Note_on_c, 0, 50, 0
1, 634560, Note_on_c, 0, 53, 31
1, 634800, Note_on_c, 0, 53, 0
1, 634800, Note_on_c, 0, 70, 0
1, 634800, Note_on_c, 0, 82, 0
1, 634800, Note_on_c, 0, 58, 31
1, 634920, Tempo, 442054
1, 635040, Tempo, 402468
1, 635040, Note_on_c, 0, 58, 0
1, 635040, Note_on_c, 0, 83, 71
1, 635040, Note_on_c, 0, 71, 56
1, 635040, Note_on_c, 0, 49, 57
1, 635040, Control_c, 0, 64, 0
1, 635223, Control_c, 0, 64, 127
1, 635280, Note_on_c, 0, 49, 0
1, 635280, Note_on_c, 0, 53, 46
1, 635520, Note_on_c, 0, 53, 0
1, 635520, Note_on_c, 0, 56, 47
1, 635760, Note_on_c, 0, 56, 0
1, 635760, Note_on_c, 0, 71, 0
1, 635760, Note_on_c, 0, 83, 0
1, 635760, Note_on_c, 0, 72, 56
1, 635760, Note_on_c, 0, 84, 71
1, 635760, Note_on_c, 0, 48, 55
1, 635771, Control_c, 0, 64, 0
1, 635875, Control_c, 0, 64, 127
1, 636000, Note_on_c, 0, 48, 0
1, 636000, Note_on_c, 0, 53, 46
1, 636240, Note_on_c, 0, 53, 0
1, 636240, Note_on_c, 0, 56, 46
1, 636480, Note_on_c, 0, 56, 0
1, 636480, Note_on_c, 0, 84, 0
1, 636480, Note_on_c, 0, 72, 0
1, 636480, Note_on_c, 0, 85, 69
1, 636480, Note_on_c, 0, 73, 54
1, 636480, Note_on_c, 0, 46, 59
1, 636484, Control_c, 0, 64, 0
1, 636572, Control_c, 0, 64, 127
1, 636720, Note_on_c, 0, 46, 0
1, 636720, Note_on_c, 0, 52, 39
1, 636960, Note_on_c, 0, 52, 0
1, 636960, Note_on_c, 0, 55, 39
1, 637200, Tempo, 408191
1, 637200, Note_on_c, 0, 55, 0
1, 637200, Note_on_c, 0, 73, 0
1, 637200, Note_on_c, 0, 85, 0
1, 637200, Note_on_c, 0, 72, 56
1, 637200, Note_on_c, 0, 84, 71
1, 637200, Note_on_c, 0, 44, 45
1, 637205, Control_c, 0, 64, 0
1, 637372, Control_c, 0, 64, 127
1, 637440, Tempo, 400027
1, 637440, Note_on_c, 0, 44, 0
1, 637440, Note_on_c, 0, 84, 0
1, 637440, Note_on_c, 0, 72, 0
1, 637440, Note_on_c, 0, 48, 31
1, 637680, Tempo, 400027
1, 637680, Note_on_c, 0, 48, 0
1, 637680, Note_on_c, 0, 53, 31
1, 637800, Note_on_c, 0, 89, 53
1, 637920, Note_on_c, 0, 89, 0
1, 637920, Note_on_c, 0, 53, 0
1, 637920, Note_on_c, 0, 72, 51
1, 637920, Note_on_c, 0, 77, 64
1, 637920, Note_on_c, 0, 48, 45
1, 637920, Control_c, 0, 64, 0
1, 637955, Control_c, 0, 64, 127
1, 638160, Note_on_c, 0, 48, 0
1, 638160, Note_on_c, 0, 53, 30
1, 638400, Note_on_c, 0, 53, 0
1, 638400, Note_on_c, 0, 56, 30
1, 638580, Note_on_c, 0, 77, 0
1, 638580, Note_on_c, 0, 80, 40
1, 638640, Note_on_c, 0, 80, 0
1, 638640, Note_on_c, 0, 56, 0
1, 638640, Note_on_c, 0, 72, 0
1, 638640, Note_on_c, 0, 76, 51
1, 638640, Note_on_c, 0, 79, 51
1, 638640, Note_on_c, 0, 48, 38
1, 638651, Control_c, 0, 64, 0
1, 638763, Control_c, 0, 64, 127
1, 638880, Note_on_c, 0, 48, 0
1, 638880, Note_on_c, 0, 55, 31
1, 639120, Tempo, 431686
1, 639120, Note_on_c, 0, 55, 0
1, 639120, Note_on_c, 0, 58, 31
1, 639360, Note_on_c, 0, 58, 0
1, 639360, Note_on_c, 0, 79, 0
1, 639360, Note_on_c, 0, 76, 0
1, 639360, Note_on_c, 0, 77, 74
1, 639360, Note_on_c, 0, 53, 67
1, 639360, Note_on_c, 0, 57, 67
1, 639373, Tempo, 397141
1, 639389, Control_c, 0, 64, 0
1, 639480, Note_on_c, 0, 77, 0
1, 639480, Note_on_c, 0, 72, 62
1, 639600, Note_on_c, 0, 72, 0
1, 639600, Note_on_c, 0, 71, 62
1, 639613, Tempo, 386897
1, 639720, Note_on_c, 0, 71, 0
1, 639720, Note_on_c, 0, 72, 62
1, 639840, Note_on_c, 0, 72, 0
1, 639840, Note_on_c, 0, 57, 0
1, 639840, Note_on_c, 0, 53, 0
1, 639840, Note_on_c, 0, 74, 69
1, 639853, Tempo, 410734
1, 639960, Note_on_c, 0, 74, 0
1, 639960, Note_on_c, 0, 72, 62
1, 640080, Tempo, 389408
1, 640080, Note_on_c, 0, 72, 0
1, 640080, Note_on_c, 0, 70, 65
1, 640080, Note_on_c, 0, 55, 67
1, 640200, Note_on_c, 0, 55, 0
1, 640200, Note_on_c, 0, 70, 0
1, 640200, Note_on_c, 0, 72, 60
1, 640320, Tempo, 384418
1, 640320, Note_on_c, 0, 72, 0
1, 640320, Note_on_c, 0, 70, 65
1, 640320, Note_on_c, 0, 52, 62
1, 640440, Note_on_c, 0, 52, 0
1, 640440, Note_on_c, 0, 70, 0
1, 640440, Note_on_c, 0, 72, 59
1, 640560, Note_on_c, 0, 72, 0
1, 640560, Note_on_c, 0, 70, 65
1, 640560, Note_on_c, 0, 48, 62
1, 640573, Tempo, 402468
1, 640680, Note_on_c, 0, 48, 0
1, 640680, Note_on_c, 0, 70, 0
1, 640680, Note_on_c, 0, 72, 59
1, 640800, Tempo, 402468
1, 640800, Note_on_c, 0, 72, 0
1, 640800, Note_on_c, 0, 69, 74
1, 640800, Note_on_c, 0, 53, 67
1, 640813, Tempo, 397141
1, 640920, Note_on_c, 0, 69, 0
1, 640920, Note_on_c, 0, 72, 62
1, 641040, Note_on_c, 0, 72, 0
1, 641040, Note_on_c, 0, 71, 62
1, 641053, Tempo, 386897
1, 641160, Note_on_c, 0, 71, 0
1, 641160, Note_on_c, 0, 72, 62
1, 641280, Note_on_c, 0, 72, 0
1, 641280, Note_on_c, 0, 53, 0
1, 641280, Note_on_c, 0, 77, 74
1, 641293, Tempo, 410734
1, 641400, Note_on_c, 0, 77, 0
1, 641400, Note_on_c, 0, 72, 62
1, 641520, Tempo, 391952
1, 641520, Note_on_c, 0, 72, 0
1, 641520, Note_on_c, 0, 70, 65
1, 641520, Note_on_c, 0, 55, 67
1, 641640, Note_on_c, 0, 55, 0
1, 641640, Note_on_c, 0, 70, 0
1, 641640, Note_on_c, 0, 72, 60
1, 641760, Tempo, 381971
1, 641760, Note_on_c, 0, 72, 0
1, 641760, Note_on_c, 0, 70, 65
1, 641760, Note_on_c, 0, 52, 62
1, 641880, Note_on_c, 0, 52, 0
1, 641880, Note_on_c, 0, 70, 0
1, 641880, Note_on_c, 0, 72, 59
1, 642000, Note_on_c, 0, 72, 0
1, 642000, Note_on_c, 0, 70, 65
1, 642000, Note_on_c, 0, 48, 62
1, 642013, Tempo, 402468
1, 642120, Note_on_c, 0, 48, 0
1, 642120, Note_on_c, 0, 70, 0
1, 642120, Note_on_c, 0, 72, 59
1, 642240, Tempo, 402468
1, 642240, Note_on_c, 0, 72, 0
1, 642240, Note_on_c, 0, 69, 74
1, 642240, Note_on_c, 0, 53, 67
1, 642253, Tempo, 397141
1, 642360, Note_on_c, 0, 69, 0
1, 642360, Note_on_c, 0, 84, 62
1, 642480, Note_on_c, 0, 84, 0
1, 642480, Note_on_c, 0, 83, 62
1, 642493, Tempo, 386897
1, 642600, Note_on_c, 0, 83, 0
1, 642600, Note_on_c, 0, 84, 62
1, 642720, Note_on_c, 0, 84, 0
1, 642720, Note_on_c, 0, 53, 0
1, 642720, Note_on_c, 0, 86, 72
1, 642733, Tempo, 410734
1, 642840, Note_on_c, 0, 86, 0
1, 642840, Note_on_c, 0, 84, 62
1, 642960, Tempo, 384418
1, 642960, Note_on_c, 0, 84, 0
1, 642960, Note_on_c, 0, 82, 65
1, 642960, Note_on_c, 0, 67, 67
1, 643080, Note_on_c, 0, 67, 0
1, 643080, Note_on_c, 0, 82, 0
1, 643080, Note_on_c, 0, 84, 60
1, 643200, Note_on_c, 0, 84, 0
1, 643200, Note_on_c, 0, 82, 65
1, 643200, Note_on_c, 0, 64, 62
1, 643213, Tempo, 384418
1, 643320, Note_on_c, 0, 64, 0
1, 643320, Note_on_c, 0, 82, 0
1, 643320, Note_on_c, 0, 84, 59
1, 643440, Note_on_c, 0, 84, 0
1, 643440, Note_on_c, 0, 82, 65
1, 643440, Note_on_c, 0, 60, 62
1, 643453, Tempo, 402468
1, 643560, Note_on_c, 0, 60, 0
1, 643560, Note_on_c, 0, 82, 0
1, 643560, Note_on_c, 0, 84, 59
1, 643680, Tempo, 402468
1, 643680, Note_on_c, 0, 84, 0
1, 643680, Note_on_c, 0, 81, 74
1, 643680, Note_on_c, 0, 65, 67
1, 643693, Tempo, 397141
1, 643800, Note_on_c, 0, 81, 0
1, 643800, Note_on_c, 0, 84, 62
1, 643920, Note_on_c, 0, 84, 0
1, 643920, Note_on_c, 0, 83, 62
1, 643933, Tempo, 386897
1, 644040, Note_on_c, 0, 83, 0
1, 644040, Note_on_c, 0, 84, 62
1, 644160, Note_on_c, 0, 84, 0
1, 644160, Note_on_c, 0, 65, 0
1, 644160, Note_on_c, 0, 89, 69
1, 644173, Tempo, 410734
1, 644280, Note_on_c, 0, 89, 0
1, 644280, Note_on_c, 0, 84, 62
1, 644400, Tempo, 384418
1, 644400, Note_on_c, 0, 84, 0
1, 644400, Note_on_c, 0, 82, 65
1, 644400, Note_on_c, 0, 67, 67
1, 644520, Note_on_c, 0, 67, 0
1, 644520, Note_on_c, 0, 82, 0
1, 644520, Note_on_c, 0, 84, 60
1, 644640, Note_on_c, 0, 84, 0
1, 644640, Note_on_c, 0, 82, 65
1, 644640, Note_on_c, 0, 64, 62
1, 644653, Tempo, 384418
1, 644760, Note_on_c, 0, 64, 0
1, 644760, Note_on_c, 0, 82, 0
1, 644760, Note_on_c, 0, 84, 59
1, 644880, Note_on_c, 0, 84, 0
1, 644880, Note_on_c, 0, 82, 65
1, 644880, Note_on_c, 0, 60, 62
1, 644893, Tempo, 402468
1, 645000, Note_on_c, 0, 60, 0
1, 645000, Note_on_c, 0, 82, 0
1, 645000, Note_on_c, 0, 84, 59
1, 645120, Note_on_c, 0, 84, 0
1, 645120, Note_on_c, 0, 81, 74
1, 645120, Note_on_c, 0, 65, 67
1, 645133, Tempo, 397141
1, 645240, Note_on_c, 0, 81, 0
1, 645240, Note_on_c, 0, 84, 62
1, 645360, Note_on_c, 0, 84, 0
1, 645360, Note_on_c, 0, 89, 71
1, 645373, Tempo, 386897
1, 645480, Note_on_c, 0, 89, 0
1, 645480, Note_on_c, 0, 81, 60
1, 645600, Note_on_c, 0, 81, 0
1, 645600, Note_on_c, 0, 65, 0
1, 645600, Note_on_c, 0, 79, 70
1, 645609, Control_c, 0, 64, 127
1, 645613, Tempo, 410734
1, 645720, Note_on_c, 0, 79, 0
1, 645720, Note_on_c, 0, 88, 62
1, 645810, Tempo, 394529
1, 645840, Note_on_c, 0, 88, 0
1, 645840, Note_on_c, 0, 77, 70
1, 645848, Control_c, 0, 64, 0
1, 645880, Control_c, 0, 64, 127
1, 645882, Tempo, 391952
1, 645930, Tempo, 389408
1, 645960, Note_on_c, 0, 77, 0
1, 645960, Note_on_c, 0, 86, 62
1, 646002, Tempo, 386897
1, 646050, Tempo, 384418
1, 646080, Tempo, 381971
1, 646080, Note_on_c, 0, 86, 0
1, 646080, Note_on_c, 0, 76, 69
1, 646091, Control_c, 0, 64, 0
1, 646098, Tempo, 379555
1, 646160, Control_c, 0, 64, 127
1, 646200, Note_on_c, 0, 76, 0
1, 646200, Note_on_c, 0, 84, 60
1, 646290, Tempo, 377169
1, 646320, Note_on_c, 0, 84, 0
1, 646320, Note_on_c, 0, 74, 67
1, 646327, Control_c, 0, 64, 0
1, 646366, Control_c, 0, 64, 127
1, 646440, Note_on_c, 0, 74, 0
1, 646440, Note_on_c, 0, 82, 58
1, 646482, Tempo, 374813
1, 646518, Tempo, 381971
1, 646560, Tempo, 374813
1, 646560, Note_on_c, 0, 82, 0
1, 646560, Note_on_c, 0, 72, 69
1, 646567, Control_c, 0, 64, 0
1, 646617, Control_c, 0, 64, 127
1, 646680, Note_on_c, 0, 72, 0
1, 646680, Note_on_c, 0, 81, 62
1, 646800, Note_on_c, 0, 81, 0
1, 646800, Note_on_c, 0, 70, 67
1, 646810, Control_c, 0, 64, 0
1, 646886, Control_c, 0, 64, 127
1, 646920, Note_on_c, 0, 70, 0
1, 646920, Note_on_c, 0, 79, 59
1, 647040, Note_on_c, 0, 79, 0
1, 647040, Note_on_c, 0, 69, 66
1, 647049, Control_c, 0, 64, 0
1, 647109, Control_c, 0, 64, 127
1, 647160, Note_on_c, 0, 69, 0
1, 647160, Note_on_c, 0, 77, 56
1, 647280, Note_on_c, 0, 77, 0
1, 647280, Note_on_c, 0, 67, 62
1, 647289, Control_c, 0, 64, 0
1, 647295, Tempo, 386897
1, 647349, Control_c, 0, 64, 127
1, 647355, Tempo, 389408
1, 647400, Note_on_c, 0, 67, 0
1, 647400, Note_on_c, 0, 76, 54
1, 647415, Tempo, 391952
1, 647475, Tempo, 394529
1, 647520, Note_on_c, 0, 76, 0
1, 647520, Note_on_c, 0, 65, 63
1, 647530, Control_c, 0, 64, 0
1, 647535, Tempo, 397141
1, 647583, Control_c, 0, 64, 127
1, 647595, Tempo, 399787
1, 647640, Note_on_c, 0, 65, 0
1, 647640, Note_on_c, 0, 74, 55
1, 647655, Tempo, 402468
1, 647715, Tempo, 405186
1, 647760, Note_on_c, 0, 74, 0
1, 647760, Note_on_c, 0, 64, 62
1, 647772, Control_c, 0, 64, 0
1, 647775, Tempo, 407941
1, 647823, Control_c, 0, 64, 127
1, 647835, Tempo, 410734
1, 647880, Note_on_c, 0, 64, 0
1, 647880, Note_on_c, 0, 72, 51
1, 647895, Tempo, 413565
1, 647955, Tempo, 416435
1, 648000, Tempo, 402468
1, 648000, Note_on_c, 0, 72, 0
1, 648000, Note_on_c, 0, 71, 55
1, 648000, Note_on_c, 0, 62, 45
1, 648000, Control_c, 0, 64, 0
1, 648240, Tempo, 391952
1, 648240, Note_on_c, 0, 50, 49
1, 648480, Tempo, 397141
1, 648480, Note_on_c, 0, 53, 52
1, 648504, Note_on_c, 0, 50, 0
1, 648720, Tempo, 391952
1, 648720, Note_on_c, 0, 71, 0
1, 648720, Note_on_c, 0, 62, 0
1, 648720, Note_on_c, 0, 70, 55
1, 648720, Note_on_c, 0, 61, 45
1, 648720, Note_on_c, 0, 56, 54
1, 648744, Note_on_c, 0, 53, 0
1, 648960, Note_on_c, 0, 55, 49
1, 648984, Note_on_c, 0, 56, 0
1, 649200, Tempo, 399787
1, 649200, Note_on_c, 0, 53, 49
1, 649224, Note_on_c, 0, 55, 0
1, 649440, Tempo, 405186
1, 649440, Note_on_c, 0, 70, 0
1, 649440, Note_on_c, 0, 61, 0
1, 649440, Note_on_c, 0, 82, 55
1, 649440, Note_on_c, 0, 73, 45
1, 649680, Tempo, 389408
1, 649680, Note_on_c, 0, 53, 0
1, 649680, Note_on_c, 0, 52, 47
1, 649920, Tempo, 394529
1, 649920, Note_on_c, 0, 55, 49
1, 649944, Note_on_c, 0, 52, 0
1, 650160, Tempo, 389408
1, 650160, Note_on_c, 0, 82, 0
1, 650160, Note_on_c, 0, 73, 0
1, 650160, Note_on_c, 0, 76, 55
1, 650160, Note_on_c, 0, 67, 45
1, 650160, Note_on_c, 0, 61, 54
1, 650184, Note_on_c, 0, 55, 0
1, 650400, Note_on_c, 0, 60, 49
1, 650424, Note_on_c, 0, 61, 0
1, 650640, Tempo, 399787
1, 650640, Note_on_c, 0, 58, 49
1, 650664, Note_on_c, 0, 60, 0
1, 650880, Tempo, 402468
1, 650880, Note_on_c, 0, 76, 0
1, 650880, Note_on_c, 0, 67, 0
1, 650880, Note_on_c, 0, 57, 38
1, 650904, Note_on_c, 0, 58, 0
1, 651120, Tempo, 389408
1, 651120, Note_on_c, 0, 57, 0
1, 651120, Note_on_c, 0, 84, 49
1, 651240, Note_on_c, 0, 84, 0
1, 651360, Note_on_c, 0, 84, 49
1, 651480, Note_on_c, 0, 84, 0
1, 651600, Tempo, 402468
1, 651600, Note_on_c, 0, 58, 40
1, 651840, Tempo, 389408
1, 651840, Note_on_c, 0, 58, 0
1, 651840, Note_on_c, 0, 86, 49
1, 651960, Note_on_c, 0, 86, 0
1, 652080, Tempo, 407941
1, 652080, Note_on_c, 0, 86, 49
1, 652200, Note_on_c, 0, 86, 0
1, 652320, Tempo, 402468
1, 652320, Note_on_c, 0, 72, 39
1, 652320, Note_on_c, 0, 77, 47
1, 652320, Note_on_c, 0, 69, 40
1, 652320, Note_on_c, 0, 60, 34
1, 652401, Control_c, 0, 64, 127
1, 652980, Note_on_c, 0, 77, 0
1, 652980, Note_on_c, 0, 72, 0
1, 652980, Note_on_c, 0, 81, 40
1, 653040, Tempo, 416435
1, 653040, Note_on_c, 0, 81, 0
1, 653040, Note_on_c, 0, 69, 0
1, 653040, Note_on_c, 0, 79, 44
1, 653040, Note_on_c, 0, 76, 37
1, 653040, Note_on_c, 0, 70, 40
1, 653079, Control_c, 0, 64, 0
1, 653181, Control_c, 0, 64, 127
1, 653760, Tempo, 402468
1, 653760, Note_on_c, 0, 70, 0
1, 653760, Note_on_c, 0, 60, 0
1, 653760, Note_on_c, 0, 79, 0
1, 653760, Note_on_c, 0, 76, 0
1, 653760, Note_on_c, 0, 77, 74
1, 653760, Note_on_c, 0, 69, 67
1, 653760, Note_on_c, 0, 65, 67
1, 653773, Tempo, 397141
1, 653846, Control_c, 0, 64, 0
1, 653880, Note_on_c, 0, 77, 0
1, 653880, Note_on_c, 0, 72, 62
1, 654000, Note_on_c, 0, 72, 0
1, 654000, Note_on_c, 0, 71, 62
1, 654013, Tempo, 386897
1, 654120, Note_on_c, 0, 71, 0
1, 654120, Note_on_c, 0, 72, 62
1, 654240, Note_on_c, 0, 72, 0
1, 654240, Note_on_c, 0, 65, 0
1, 654240, Note_on_c, 0, 69, 0
1, 654240, Note_on_c, 0, 74, 68
1, 654253, Tempo, 410734
1, 654360, Note_on_c, 0, 74, 0
1, 654360, Note_on_c, 0, 72, 62
1, 654480, Note_on_c, 0, 72, 0
1, 654480, Note_on_c, 0, 70, 65
1, 654480, Note_on_c, 0, 55, 67
1, 654493, Tempo, 394529
1, 654600, Note_on_c, 0, 55, 0
1, 654600, Note_on_c, 0, 70, 0
1, 654600, Note_on_c, 0, 72, 60
1, 654720, Note_on_c, 0, 72, 0
1, 654720, Note_on_c, 0, 70, 65
1, 654720, Note_on_c, 0, 52, 62
1, 654733, Tempo, 384418
1, 654840, Note_on_c, 0, 52, 0
1, 654840, Note_on_c, 0, 70, 0
1, 654840, Note_on_c, 0, 72, 59
1, 654960, Note_on_c, 0, 72, 0
1, 654960, Note_on_c, 0, 70, 65
1, 654960, Note_on_c, 0, 48, 62
1, 654973, Tempo, 402468
1, 655080, Note_on_c, 0, 48, 0
1, 655080, Note_on_c, 0, 70, 0
1, 655080, Note_on_c, 0, 72, 59
1, 655200, Tempo, 402468
1, 655200, Note_on_c, 0, 72, 0
1, 655200, Note_on_c, 0, 69, 74
1, 655200, Note_on_c, 0, 53, 67
1, 655213, Tempo, 397141
1, 655320, Note_on_c, 0, 69, 0
1, 655320, Note_on_c, 0, 72, 62
1, 655440, Note_on_c, 0, 72, 0
1, 655440, Note_on_c, 0, 71, 62
1, 655453, Tempo, 386897
1, 655560, Note_on_c, 0, 71, 0
1, 655560, Note_on_c, 0, 72, 62
1, 655680, Note_on_c, 0, 72, 0
1, 655680, Note_on_c, 0, 53, 0
1, 655680, Note_on_c, 0, 77, 74
1, 655693, Tempo, 410734
1, 655800, Note_on_c, 0, 77, 0
1, 655800, Note_on_c, 0, 72, 62
1, 655920, Note_on_c, 0, 72, 0
1, 655920, Note_on_c, 0, 70, 65
1, 655920, Note_on_c, 0, 55, 67
1, 655933, Tempo, 394529
1, 656040, Note_on_c, 0, 55, 0
1, 656040, Note_on_c, 0, 70, 0
1, 656040, Note_on_c, 0, 72, 60
1, 656160, Note_on_c, 0, 72, 0
1, 656160, Note_on_c, 0, 70, 65
1, 656160, Note_on_c, 0, 52, 62
1, 656173, Tempo, 384418
1, 656280, Note_on_c, 0, 52, 0
1, 656280, Note_on_c, 0, 70, 0
1, 656280, Note_on_c, 0, 72, 59
1, 656400, Note_on_c, 0, 72, 0
1, 656400, Note_on_c, 0, 70, 65
1, 656400, Note_on_c, 0, 48, 62
1, 656413, Tempo, 402468
1, 656520, Note_on_c, 0, 48, 0
1, 656520, Note_on_c, 0, 70, 0
1, 656520, Note_on_c, 0, 72, 59
1, 656640, Tempo, 402468
1, 656640, Note_on_c, 0, 72, 0
1, 656640, Note_on_c, 0, 69, 74
1, 656640, Note_on_c, 0, 53, 67
1, 656653, Tempo, 397141
1, 656760, Note_on_c, 0, 69, 0
1, 656760, Note_on_c, 0, 84, 62
1, 656880, Note_on_c, 0, 84, 0
1, 656880, Note_on_c, 0, 83, 62
1, 656893, Tempo, 386897
1, 657000, Note_on_c, 0, 83, 0
1, 657000, Note_on_c, 0, 84, 62
1, 657120, Note_on_c, 0, 84, 0
1, 657120, Note_on_c, 0, 53, 0
1, 657120, Note_on_c, 0, 86, 72
1, 657133, Tempo, 410734
1, 657240, Note_on_c, 0, 86, 0
1, 657240, Note_on_c, 0, 84, 62
1, 657360, Note_on_c, 0, 84, 0
1, 657360, Note_on_c, 0, 82, 65
1, 657360, Note_on_c, 0, 67, 67
1, 657373, Tempo, 394529
1, 657480, Note_on_c, 0, 67, 0
1, 657480, Note_on_c, 0, 82, 0
1, 657480, Note_on_c, 0, 84, 60
1, 657600, Note_on_c, 0, 84, 0
1, 657600, Note_on_c, 0, 82, 65
1, 657600, Note_on_c, 0, 64, 62
1, 657613, Tempo, 384418
1, 657720, Note_on_c, 0, 64, 0
1, 657720, Note_on_c, 0, 82, 0
1, 657720, Note_on_c, 0, 84, 59
1, 657840, Note_on_c, 0, 84, 0
1, 657840, Note_on_c, 0, 82, 65
1, 657840, Note_on_c, 0, 60, 62
1, 657853, Tempo, 402468
1, 657960, Note_on_c, 0, 60, 0
1, 657960, Note_on_c, 0, 82, 0
1, 657960, Note_on_c, 0, 84, 59
1, 658080, Tempo, 402468
1, 658080, Note_on_c, 0, 84, 0
1, 658080, Note_on_c, 0, 81, 74
1, 658080, Note_on_c, 0, 65, 67
1, 658093, Tempo, 397141
1, 658200, Note_on_c, 0, 81, 0
1, 658200, Note_on_c, 0, 84, 62
1, 658320, Note_on_c, 0, 84, 0
1, 658320, Note_on_c, 0, 83, 62
1, 658333, Tempo, 386897
1, 658440, Note_on_c, 0, 83, 0
1, 658440, Note_on_c, 0, 84, 62
1, 658560, Note_on_c, 0, 84, 0
1, 658560, Note_on_c, 0, 65, 0
1, 658560, Note_on_c, 0, 89, 72
1, 658573, Tempo, 410734
1, 658680, Note_on_c, 0, 89, 0
1, 658680, Note_on_c, 0, 84, 62
1, 658800, Note_on_c, 0, 84, 0
1, 658800, Note_on_c, 0, 82, 65
1, 658800, Note_on_c, 0, 67, 67
1, 658813, Tempo, 394529
1, 658920, Note_on_c, 0, 67, 0
1, 658920, Note_on_c, 0, 82, 0
1, 658920, Note_on_c, 0, 84, 60
1, 659040, Note_on_c, 0, 84, 0
1, 659040, Note_on_c, 0, 82, 65
1, 659040, Note_on_c, 0, 64, 62
1, 659053, Tempo, 384418
1, 659160, Note_on_c, 0, 64, 0
1, 659160, Note_on_c, 0, 82, 0
1, 659160, Note_on_c, 0, 84, 59
1, 659280, Note_on_c, 0, 84, 0
1, 659280, Note_on_c, 0, 82, 65
1, 659280, Note_on_c, 0, 60, 62
1, 659293, Tempo, 402468
1, 659400, Note_on_c, 0, 60, 0
1, 659400, Note_on_c, 0, 82, 0
1, 659400, Note_on_c, 0, 84, 59
1, 659520, Note_on_c, 0, 84, 0
1, 659520, Note_on_c, 0, 81, 74
1, 659520, Note_on_c, 0, 65, 67
1, 659533, Tempo, 397141
1, 659640, Note_on_c, 0, 81, 0
1, 659640, Note_on_c, 0, 84, 62
1, 659760, Note_on_c, 0, 84, 0
1, 659760, Note_on_c, 0, 89, 71
1, 659773, Tempo, 386897
1, 659880, Note_on_c, 0, 89, 0
1, 659880, Note_on_c, 0, 81, 60
1, 659975, Tempo, 399787
1, 660000, Note_on_c, 0, 81, 0
1, 660000, Note_on_c, 0, 65, 0
1, 660000, Note_on_c, 0, 79, 70
1, 660009, Control_c, 0, 64, 127
1, 660090, Tempo, 397141
1, 660120, Note_on_c, 0, 79, 0
1, 660120, Note_on_c, 0, 88, 62
1, 660205, Tempo, 394529
1, 660228, Tempo, 397141
1, 660240, Note_on_c, 0, 88, 0
1, 660240, Note_on_c, 0, 77, 70
1, 660248, Control_c, 0, 64, 0
1, 660280, Control_c, 0, 64, 127
1, 660282, Tempo, 391952
1, 660359, Tempo, 389408
1, 660360, Note_on_c, 0, 77, 0
1, 660360, Note_on_c, 0, 86, 62
1, 660436, Tempo, 386897
1, 660480, Note_on_c, 0, 86, 0
1, 660480, Note_on_c, 0, 76, 69
1, 660491, Control_c, 0, 64, 0
1, 660493, Tempo, 384418
1, 660560, Control_c, 0, 64, 127
1, 660570, Tempo, 381971
1, 660600, Note_on_c, 0, 76, 0
1, 660600, Note_on_c, 0, 84, 60
1, 660647, Tempo, 379555
1, 660720, Note_on_c, 0, 84, 0
1, 660720, Note_on_c, 0, 74, 67
1, 660724, Tempo, 377169
1, 660727, Control_c, 0, 64, 0
1, 660766, Control_c, 0, 64, 127
1, 660800, Tempo, 374813
1, 660840, Note_on_c, 0, 74, 0
1, 660840, Note_on_c, 0, 82, 58
1, 660877, Tempo, 372486
1, 660954, Tempo, 370188
1, 660960, Note_on_c, 0, 82, 0
1, 660960, Note_on_c, 0, 72, 69
1, 660967, Control_c, 0, 64, 0
1, 661017, Control_c, 0, 64, 127
1, 661080, Note_on_c, 0, 72, 0
1, 661080, Note_on_c, 0, 81, 62
1, 661200, Note_on_c, 0, 81, 0
1, 661200, Note_on_c, 0, 70, 67
1, 661210, Control_c, 0, 64, 0
1, 661286, Control_c, 0, 64, 127
1, 661320, Note_on_c, 0, 70, 0
1, 661320, Note_on_c, 0, 79, 59
1, 661440, Note_on_c, 0, 79, 0
1, 661440, Note_on_c, 0, 69, 66
1, 661449, Control_c, 0, 64, 0
1, 661509, Control_c, 0, 64, 127
1, 661560, Note_on_c, 0, 69, 0
1, 661560, Note_on_c, 0, 77, 56
1, 661680, Note_on_c, 0, 77, 0
1, 661680, Note_on_c, 0, 67, 64
1, 661684, Tempo, 367918
1, 661689, Control_c, 0, 64, 0
1, 661722, Tempo, 370188
1, 661749, Control_c, 0, 64, 127
1, 661760, Tempo, 372486
1, 661780, Tempo, 374813
1, 661800, Note_on_c, 0, 67, 0
1, 661800, Note_on_c, 0, 76, 55
1, 661818, Tempo, 377169
1, 661837, Tempo, 379555
1, 661876, Tempo, 381971
1, 661914, Tempo, 384418
1, 661920, Note_on_c, 0, 76, 0
1, 661920, Note_on_c, 0, 65, 63
1, 661931, Control_c, 0, 64, 0
1, 661933, Tempo, 386897
1, 661972, Tempo, 389408
1, 661983, Control_c, 0, 64, 127
1, 661991, Tempo, 391952
1, 662029, Tempo, 394529
1, 662040, Note_on_c, 0, 65, 0
1, 662040, Note_on_c, 0, 74, 55
1, 662048, Tempo, 397141
1, 662055, Tempo, 402468
1, 662115, Tempo, 405186
1, 662160, Note_on_c, 0, 74, 0
1, 662160, Note_on_c, 0, 64, 62
1, 662172, Control_c, 0, 64, 0
1, 662175, Tempo, 407941
1, 662223, Control_c, 0, 64, 127
1, 662235, Tempo, 410734
1, 662280, Note_on_c, 0, 64, 0
1, 662280, Note_on_c, 0, 72, 51
1, 662295, Tempo, 413565
1, 662355, Tempo, 416435
1, 662400, Tempo, 402468
1, 662400, Note_on_c, 0, 72, 0
1, 662400, Note_on_c, 0, 71, 55
1, 662400, Note_on_c, 0, 62, 45
1, 662400, Control_c, 0, 64, 0
1, 662640, Tempo, 391952
1, 662640, Note_on_c, 0, 50, 49
1, 662880, Tempo, 397141
1, 662880, Note_on_c, 0, 53, 52
1, 662904, Note_on_c, 0, 50, 0
1, 663120, Tempo, 391952
1, 663120, Note_on_c, 0, 71, 0
1, 663120, Note_on_c, 0, 62, 0
1, 663120, Note_on_c, 0, 70, 55
1, 663120, Note_on_c, 0, 61, 45
1, 663120, Note_on_c, 0, 56, 54
1, 663144, Note_on_c, 0, 53, 0
1, 663360, Note_on_c, 0, 55, 49
1, 663384, Note_on_c, 0, 56, 0
1, 663600, Tempo, 399787
1, 663600, Note_on_c, 0, 53, 49
1, 663624, Note_on_c, 0, 55, 0
1, 663840, Tempo, 405186
1, 663840, Note_on_c, 0, 70, 0
1, 663840, Note_on_c, 0, 61, 0
1, 663840, Note_on_c, 0, 82, 55
1, 663840, Note_on_c, 0, 73, 45
1, 664080, Tempo, 389408
1, 664080, Note_on_c, 0, 53, 0
1, 664080, Note_on_c, 0, 52, 47
1, 664320, Tempo, 394529
1, 664320, Note_on_c, 0, 55, 49
1, 664344, Note_on_c, 0, 52, 0
1, 664560, Tempo, 389408
1, 664560, Note_on_c, 0, 82, 0
1, 664560, Note_on_c, 0, 73, 0
1, 664560, Note_on_c, 0, 76, 55
1, 664560, Note_on_c, 0, 67, 45
1, 664560, Note_on_c, 0, 61, 54
1, 664584, Note_on_c, 0, 55, 0
1, 664800, Note_on_c, 0, 60, 49
1, 664824, Note_on_c, 0, 61, 0
1, 665040, Tempo, 399787
1, 665040, Note_on_c, 0, 58, 49
1, 665064, Note_on_c, 0, 60, 0
1, 665280, Tempo, 402468
1, 665280, Note_on_c, 0, 76, 0
1, 665280, Note_on_c, 0, 67, 0
1, 665280, Note_on_c, 0, 57, 38
1, 665304, Note_on_c, 0, 58, 0
1, 665520, Tempo, 389408
1, 665520, Note_on_c, 0, 57, 0
1, 665520, Note_on_c, 0, 84, 49
1, 665640, Note_on_c, 0, 84, 0
1, 665760, Note_on_c, 0, 84, 49
1, 665880, Note_on_c, 0, 84, 0
1, 666000, Tempo, 402468
1, 666000, Note_on_c, 0, 58, 40
1, 666240, Tempo, 389408
1, 666240, Note_on_c, 0, 58, 0
1, 666240, Note_on_c, 0, 86, 49
1, 666360, Note_on_c, 0, 86, 0
1, 666480, Tempo, 407941
1, 666480, Note_on_c, 0, 86, 49
1, 666600, Note_on_c, 0, 86, 0
1, 666720, Tempo, 402468
1, 666720, Note_on_c, 0, 72, 39
1, 666720, Note_on_c, 0, 77, 47
1, 666720, Note_on_c, 0, 60, 34
1, 666720, Note_on_c, 0, 69, 40
1, 666827, Control_c, 0, 64, 127
1, 667440, Tempo, 416435
1, 667440, Note_on_c, 0, 69, 0
1, 667440, Note_on_c, 0, 60, 0
1, 667440, Note_on_c, 0, 77, 0
1, 667440, Note_on_c, 0, 76, 37
1, 667440, Note_on_c, 0, 58, 32
1, 667440, Note_on_c, 0, 67, 40
1, 667448, Control_c, 0, 64, 0
1, 667587, Control_c, 0, 64, 127
1, 668040, Tempo, 450857
1, 668160, Tempo, 410734
1, 668160, Note_on_c, 0, 67, 0
1, 668160, Note_on_c, 0, 72, 0
1, 668160, Note_on_c, 0, 76, 0
1, 668160, Note_on_c, 0, 58, 0
1, 668160, Note_on_c, 0, 83, 71
1, 668160, Note_on_c, 0, 57, 64
1, 668160, Control_c, 0, 64, 0
1, 668280, Note_on_c, 0, 83, 0
1, 668280, Note_on_c, 0, 84, 55
1, 668400, Tempo, 397141
1, 668400, Note_on_c, 0, 57, 0
1, 668400, Note_on_c, 0, 83, 55
1, 668400, Note_on_c, 0, 60, 53
1, 668412, Note_on_c, 0, 84, 0
1, 668520, Note_on_c, 0, 84, 55
1, 668532, Note_on_c, 0, 83, 0
1, 668640, Note_on_c, 0, 60, 0
1, 668640, Note_on_c, 0, 83, 55
1, 668640, Note_on_c, 0, 65, 53
1, 668652, Note_on_c, 0, 84, 0
1, 668653, Tempo, 410734
1, 668760, Note_on_c, 0, 84, 55
1, 668772, Note_on_c, 0, 83, 0
1, 668880, Tempo, 405186
1, 668880, Note_on_c, 0, 84, 0
1, 668880, Note_on_c, 0, 65, 0
1, 668880, Note_on_c, 0, 85, 62
1, 668880, Note_on_c, 0, 58, 61
1, 669000, Note_on_c, 0, 86, 55
1, 669012, Note_on_c, 0, 85, 0
1, 669120, Tempo, 397141
1, 669120, Note_on_c, 0, 58, 0
1, 669120, Note_on_c, 0, 85, 55
1, 669120, Note_on_c, 0, 62, 53
1, 669132, Note_on_c, 0, 86, 0
1, 669240, Note_on_c, 0, 86, 55
1, 669252, Note_on_c, 0, 85, 0
1, 669360, Note_on_c, 0, 62, 0
1, 669360, Note_on_c, 0, 88, 59
1, 669360, Note_on_c, 0, 67, 50
1, 669372, Note_on_c, 0, 86, 0
1, 669373, Tempo, 402468
1, 669480, Note_on_c, 0, 89, 54
1, 669492, Note_on_c, 0, 88, 0
1, 669600, Tempo, 402468
1, 669600, Note_on_c, 0, 89, 0
1, 669600, Note_on_c, 0, 67, 0
1, 669600, Note_on_c, 0, 72, 39
1, 669600, Note_on_c, 0, 77, 47
1, 669600, Note_on_c, 0, 60, 38
1, 669734, Control_c, 0, 64, 127
1, 669840, Note_on_c, 0, 60, 0
1, 669840, Note_on_c, 0, 65, 34
1, 670080, Note_on_c, 0, 65, 0
1, 670080, Note_on_c, 0, 69, 34
1, 670260, Note_on_c, 0, 77, 0
1, 670260, Note_on_c, 0, 81, 37
1, 670320, Tempo, 416435
1, 670320, Note_on_c, 0, 81, 0
1, 670320, Note_on_c, 0, 69, 0
1, 670320, Note_on_c, 0, 72, 0
1, 670320, Note_on_c, 0, 79, 43
1, 670320, Note_on_c, 0, 76, 43
1, 670320, Note_on_c, 0, 60, 39
1, 670330, Control_c, 0, 64, 0
1, 670454, Control_c, 0, 64, 127
1, 670560, Note_on_c, 0, 60, 0
1, 670560, Note_on_c, 0, 67, 33
1, 670800, Note_on_c, 0, 67, 0
1, 670800, Note_on_c, 0, 76, 0
1, 670800, Note_on_c, 0, 70, 33
1, 670920, Note_on_c, 0, 79, 0
1, 670920, Note_on_c, 0, 77, 37
1, 671040, Note_on_c, 0, 77, 0
1, 671040, Note_on_c, 0, 70, 0
1, 671040, Note_on_c, 0, 77, 71
1, 671040, Note_on_c, 0, 69, 66
1, 671040, Note_on_c, 0, 65, 56
1, 671054, Control_c, 0, 64, 0
1, 671160, Note_on_c, 0, 81, 64
1, 671172, Note_on_c, 0, 77, 0
1, 671280, Tempo, 397141
1, 671280, Note_on_c, 0, 84, 67
1, 671292, Note_on_c, 0, 81, 0
1, 671400, Note_on_c, 0, 89, 68
1, 671412, Note_on_c, 0, 84, 0
1, 671520, Tempo, 389408
1, 671520, Note_on_c, 0, 69, 0
1, 671520, Note_on_c, 0, 65, 0
1, 671520, Note_on_c, 0, 88, 69
1, 671532, Note_on_c, 0, 89, 0
1, 671640, Note_on_c, 0, 86, 69
1, 671652, Note_on_c, 0, 88, 0
1, 671760, Note_on_c, 0, 84, 71
1, 671760, Note_on_c, 0, 70, 66
1, 671760, Note_on_c, 0, 60, 56
1, 671760, Note_on_c, 0, 64, 66
1, 671772, Note_on_c, 0, 86, 0
1, 671880, Note_on_c, 0, 86, 67
1, 671892, Note_on_c, 0, 84, 0
1, 672000, Note_on_c, 0, 84, 67
1, 672012, Note_on_c, 0, 86, 0
1, 672120, Note_on_c, 0, 82, 67
1, 672132, Note_on_c, 0, 84, 0
1, 672240, Note_on_c, 0, 64, 0
1, 672240, Note_on_c, 0, 60, 0
1, 672240, Note_on_c, 0, 70, 0
1, 672240, Note_on_c, 0, 81, 67
1, 672252, Note_on_c, 0, 82, 0
1, 672360, Tempo, 434531
1, 672360, Note_on_c, 0, 79, 67
1, 672372, Note_on_c, 0, 81, 0
1, 672480, Tempo, 416435
1, 672480, Note_on_c, 0, 79, 0
1, 672480, Note_on_c, 0, 77, 71
1, 672480, Note_on_c, 0, 65, 56
1, 672480, Note_on_c, 0, 69, 66
1, 672600, Note_on_c, 0, 81, 64
1, 672612, Note_on_c, 0, 77, 0
1, 672720, Tempo, 394529
1, 672720, Note_on_c, 0, 79, 64
1, 672732, Note_on_c, 0, 81, 0
1, 672840, Note_on_c, 0, 77, 68
1, 672852, Note_on_c, 0, 79, 0
1, 672960, Tempo, 389408
1, 672960, Note_on_c, 0, 65, 0
1, 672960, Note_on_c, 0, 69, 0
1, 672960, Note_on_c, 0, 76, 64
1, 672972, Note_on_c, 0, 77, 0
1, 673080, Note_on_c, 0, 74, 64
1, 673092, Note_on_c, 0, 76, 0
1, 673200, Note_on_c, 0, 72, 69
1, 673200, Note_on_c, 0, 70, 66
1, 673200, Note_on_c, 0, 60, 56
1, 673200, Note_on_c, 0, 64, 56
1, 673212, Note_on_c, 0, 74, 0
1, 673320, Note_on_c, 0, 74, 63
1, 673332, Note_on_c, 0, 72, 0
1, 673440, Note_on_c, 0, 72, 63
1, 673452, Note_on_c, 0, 74, 0
1, 673560, Note_on_c, 0, 70, 63
1, 673572, Note_on_c, 0, 72, 0
1, 673680, Note_on_c, 0, 64, 0
1, 673680, Note_on_c, 0, 60, 0
1, 673680, Note_on_c, 0, 70, 0
1, 673680, Note_on_c, 0, 69, 63
1, 673692, Note_on_c, 0, 70, 0
1, 673800, Tempo, 431406
1, 673800, Note_on_c, 0, 67, 63
1, 673812, Note_on_c, 0, 69, 0
1, 673920, Tempo, 407941
1, 673920, Note_on_c, 0, 67, 0
1, 673920, Note_on_c, 0, 65, 71
1, 673920, Note_on_c, 0, 57, 66
1, 673920, Note_on_c, 0, 53, 56
1, 674040, Note_on_c, 0, 69, 63
1, 674052, Note_on_c, 0, 65, 0
1, 674160, Tempo, 391952
1, 674160, Note_on_c, 0, 67, 63
1, 674172, Note_on_c, 0, 69, 0
1, 674280, Note_on_c, 0, 65, 63
1, 674292, Note_on_c, 0, 67, 0
1, 674400, Tempo, 389408
1, 674400, Note_on_c, 0, 57, 0
1, 674400, Note_on_c, 0, 53, 0
1, 674400, Note_on_c, 0, 64, 63
1, 674412, Note_on_c, 0, 65, 0
1, 674520, Note_on_c, 0, 62, 64
1, 674532, Note_on_c, 0, 64, 0
1, 674640, Note_on_c, 0, 60, 71
1, 674640, Note_on_c, 0, 48, 56
1, 674640, Note_on_c, 0, 52, 56
1, 674640, Note_on_c, 0, 58, 66
1, 674652, Note_on_c, 0, 62, 0
1, 674760, Note_on_c, 0, 62, 64
1, 674772, Note_on_c, 0, 60, 0
1, 674880, Note_on_c, 0, 60, 64
1, 674892, Note_on_c, 0, 62, 0
1, 675000, Note_on_c, 0, 58, 64
1, 675012, Note_on_c, 0, 60, 0
1, 675120, Note_on_c, 0, 58, 0
1, 675120, Note_on_c, 0, 52, 0
1, 675120, Note_on_c, 0, 48, 0
1, 675120, Note_on_c, 0, 57, 64
1, 675132, Note_on_c, 0, 58, 0
1, 675240, Tempo, 431406
1, 675240, Note_on_c, 0, 55, 64
1, 675252, Note_on_c, 0, 57, 0
1, 675360, Tempo, 402468
1, 675360, Note_on_c, 0, 55, 0
1, 675360, Note_on_c, 0, 53, 81
1, 675360, Note_on_c, 0, 41, 70
1, 675480, Note_on_c, 0, 41, 0
1, 675480, Note_on_c, 0, 53, 0
1, 675600, Note_on_c, 0, 57, 70
1, 675600, Note_on_c, 0, 45, 63
1, 675720, Note_on_c, 0, 45, 0
1, 675720, Note_on_c, 0, 57, 0
1, 675840, Note_on_c, 0, 60, 70
1, 675840, Note_on_c, 0, 48, 63
1, 675960, Note_on_c, 0, 48, 0
1, 675960, Note_on_c, 0, 60, 0
1, 676080, Note_on_c, 0, 65, 78
1, 676080, Note_on_c, 0, 53, 70
1, 676200, Note_on_c, 0, 53, 0
1, 676200, Note_on_c, 0, 65, 0
1, 676320, Note_on_c, 0, 69, 70
1, 676320, Note_on_c, 0, 57, 64
1, 676440, Note_on_c, 0, 57, 0
1, 676440, Note_on_c, 0, 69, 0
1, 676560, Note_on_c, 0, 72, 70
1, 676560, Note_on_c, 0, 60, 64
1, 676680, Note_on_c, 0, 60, 0
1, 676680, Note_on_c, 0, 72, 0
1, 676800, Tempo, 400721
1, 676800, Note_on_c, 0, 77, 88
1, 676800, Note_on_c, 0, 65, 74
1, 677040, Note_on_c, 0, 65, 0
1, 677040, Note_on_c, 0, 77, 0
1, 677520, Tempo, 400721
1, 677520, Note_on_c, 0, 81, 75
1, 677520, Note_on_c, 0, 84, 90
1, 677520, Note_on_c, 0, 72, 75
1, 677520, Note_on_c, 0, 65, 74
1, 677520, Note_on_c, 0, 53, 62
1, 677560, Control_c, 0, 64, 127
1, 677894, Control_c, 0, 64, 0
1, 678000, Note_on_c, 0, 53, 0
1, 678000, Note_on_c, 0, 72, 0
1, 678000, Note_on_c, 0, 81, 0
1, 678000, Note_on_c, 0, 84, 0
1, 678000, Note_on_c, 0, 65, 0
1, 678240, Tempo, 403416
1, 678240, Note_on_c, 0, 87, 94
1, 678240, Note_on_c, 0, 77, 79
1, 678240, Note_on_c, 0, 84, 81
1, 678240, Note_on_c, 0, 45, 62
1, 678240, Note_on_c, 0, 57, 74
1, 678267, Control_c, 0, 64, 127
1, 678667, Control_c, 0, 64, 0
1, 678720, Note_on_c, 0, 57, 0
1, 678720, Note_on_c, 0, 84, 0
1, 678720, Note_on_c, 0, 87, 0
1, 678720, Note_on_c, 0, 77, 0
1, 678720, Note_on_c, 0, 45, 0
1, 679680, Note_on_c, 0, 86, 86
1, 679680, Note_on_c, 0, 77, 74
1, 679680, Note_on_c, 0, 82, 74
1, 679680, Note_on_c, 0, 46, 62
1, 679680, Note_on_c, 0, 58, 74
1, 679734, Control_c, 0, 64, 127
1, 680160, Note_on_c, 0, 58, 0
1, 680160, Note_on_c, 0, 82, 0
1, 680160, Note_on_c, 0, 86, 0
1, 680160, Note_on_c, 0, 77, 0
1, 680160, Note_on_c, 0, 46, 0
1, 680254, Control_c, 0, 64, 0
1, 681120, Note_on_c, 0, 80, 74
1, 681120, Note_on_c, 0, 86, 86
1, 681120, Note_on_c, 0, 89, 74
1, 681120, Note_on_c, 0, 77, 74
1, 681120, Note_on_c, 0, 47, 62
1, 681120, Note_on_c, 0, 59, 74
1, 681120, Control_c, 0, 64, 127
1, 681587, Control_c, 0, 64, 0
1, 681600, Note_on_c, 0, 59, 0
1, 681600, Note_on_c, 0, 86, 0
1, 681600, Note_on_c, 0, 89, 0
1, 681600, Note_on_c, 0, 80, 0
1, 681600, Note_on_c, 0, 47, 0
1, 681600, Note_on_c, 0, 77, 0
1, 682560, Note_on_c, 0, 60, 39
1, 682560, Note_on_c, 0, 65, 47
1, 682560, Note_on_c, 0, 57, 42
1, 682560, Note_on_c, 0, 48, 35
1, 682620, Control_c, 0, 64, 127
1, 683880, Note_on_c, 0, 65, 0
1, 683880, Note_on_c, 0, 69, 47
1, 684000, Note_on_c, 0, 69, 0
1, 684000, Note_on_c, 0, 48, 0
1, 684000, Note_on_c, 0, 57, 0
1, 684000, Note_on_c, 0, 60, 0
1, 684000, Note_on_c, 0, 60, 42
1, 684000, Note_on_c, 0, 67, 50
1, 684000, Note_on_c, 0, 64, 42
1, 684000, Note_on_c, 0, 58, 42
1, 684000, Note_on_c, 0, 48, 35
1, 684000, Control_c, 0, 64, 0
1, 684180, Control_c, 0, 64, 127
1, 684720, Tempo, 423340
1, 685200, Tempo, 492894
1, 685200, Note_on_c, 0, 67, 0
1, 685200, Note_on_c, 0, 65, 41
1, 685440, Tempo, 532245
1, 685440, Note_on_c, 0, 65, 0
1, 685440, Note_on_c, 0, 48, 0
1, 685440, Note_on_c, 0, 58, 0
1, 685440, Note_on_c, 0, 64, 0
1, 685440, Note_on_c, 0, 65, 46
1, 685440, Note_on_c, 0, 57, 42
1, 685440, Note_on_c, 0, 53, 35
1, 685440, Control_c, 0, 64, 0
1, 685680, Note_on_c, 0, 53, 0
1, 685680, Note_on_c, 0, 60, 0
1, 685680, Note_on_c, 0, 65, 0
1, 685680, Note_on_c, 0, 57, 0
1, 685920, Tempo, 398063
1, 685920, Note_on_c, 0, 57, 71
1, 685920, Note_on_c, 0, 45, 60
1, 686160, Tempo, 389408
1, 686160, Note_on_c, 0, 45, 0
1, 686160, Note_on_c, 0, 57, 0
1, 686160, Note_on_c, 0, 58, 78
1, 686160, Note_on_c, 0, 46, 66
1, 686280, Note_on_c, 0, 46, 0
1, 686280, Note_on_c, 0, 58, 0
1, 686400, Note_on_c, 0, 67, 73
1, 686400, Note_on_c, 0, 55, 61
1, 686520, Note_on_c, 0, 55, 0
1, 686520, Note_on_c, 0, 67, 0
1, 686640, Tempo, 399787
1, 686640, Note_on_c, 0, 59, 72
1, 686640, Note_on_c, 0, 47, 61
1, 686760, Note_on_c, 0, 47, 0
1, 686760, Note_on_c, 0, 59, 0
1, 686880, Tempo, 389408
1, 686880, Note_on_c, 0, 60, 78
1, 686880, Note_on_c, 0, 48, 66
1, 687000, Note_on_c, 0, 48, 0
1, 687000, Note_on_c, 0, 60, 0
1, 687120, Note_on_c, 0, 69, 73
1, 687120, Note_on_c, 0, 57, 61
1, 687240, Note_on_c, 0, 57, 0
1, 687240, Note_on_c, 0, 69, 0
1, 687360, Tempo, 394529
1, 687360, Note_on_c, 0, 61, 73
1, 687360, Note_on_c, 0, 49, 61
1, 687480, Note_on_c, 0, 49, 0
1, 687480, Note_on_c, 0, 61, 0
1, 687600, Tempo, 389408
1, 687600, Note_on_c, 0, 62, 78
1, 687600, Note_on_c, 0, 50, 66
1, 687720, Note_on_c, 0, 50, 0
1, 687720, Note_on_c, 0, 62, 0
1, 687840, Note_on_c, 0, 70, 72
1, 687840, Note_on_c, 0, 58, 61
1, 687960, Note_on_c, 0, 58, 0
1, 687960, Note_on_c, 0, 70, 0
1, 688080, Tempo, 397141
1, 688080, Note_on_c, 0, 64, 72
1, 688080, Note_on_c, 0, 52, 61
1, 688200, Note_on_c, 0, 52, 0
1, 688200, Note_on_c, 0, 64, 0
1, 688320, Tempo, 389408
1, 688320, Note_on_c, 0, 82, 68
1, 688384, Control_c, 0, 64, 127
1, 689040, Note_on_c, 0, 58, 28
1, 689040, Note_on_c, 0, 60, 28
1, 689040, Note_on_c, 0, 67, 34
1, 689040, Note_on_c, 0, 64, 28
1, 689280, Tempo, 379555
1, 689280, Note_on_c, 0, 82, 0
1, 689280, Note_on_c, 0, 81, 62
1, 689400, Note_on_c, 0, 81, 0
1, 689400, Note_on_c, 0, 79, 61
1, 689520, Note_on_c, 0, 79, 0
1, 689520, Note_on_c, 0, 77, 59
1, 689640, Note_on_c, 0, 77, 0
1, 689640, Note_on_c, 0, 76, 57
1, 689760, Tempo, 389408
1, 689760, Note_on_c, 0, 76, 0
1, 689760, Note_on_c, 0, 67, 0
1, 689760, Note_on_c, 0, 58, 0
1, 689760, Note_on_c, 0, 60, 0
1, 689760, Note_on_c, 0, 64, 0
1, 689760, Note_on_c, 0, 77, 56
1, 689760, Note_on_c, 0, 60, 41
1, 689760, Note_on_c, 0, 57, 41
1, 689760, Note_on_c, 0, 65, 49
1, 689760, Control_c, 0, 64, 0
1, 689880, Note_on_c, 0, 77, 0
1, 690000, Note_on_c, 0, 60, 0
1, 690000, Note_on_c, 0, 57, 0
1, 690000, Note_on_c, 0, 65, 0
1, 690000, Note_on_c, 0, 79, 49
1, 690120, Note_on_c, 0, 79, 0
1, 690240, Tempo, 441176
1, 690240, Note_on_c, 0, 81, 54
1, 690360, Note_on_c, 0, 81, 0
1, 690480, Tempo, 389408
1, 690480, Note_on_c, 0, 69, 46
1, 690480, Note_on_c, 0, 72, 46
1, 690480, Note_on_c, 0, 60, 42
1, 690523, Control_c, 0, 64, 127
1, 690960, Tempo, 422535
1, 690960, Note_on_c, 0, 60, 0
1, 690960, Note_on_c, 0, 72, 0
1, 690960, Note_on_c, 0, 69, 0
1, 690960, Note_on_c, 0, 70, 40
1, 690960, Note_on_c, 0, 67, 40
1, 690960, Note_on_c, 0, 61, 42
1, 690971, Control_c, 0, 64, 0
1, 691052, Control_c, 0, 64, 127
1, 691200, Tempo, 410959
1, 691200, Note_on_c, 0, 61, 0
1, 691200, Note_on_c, 0, 67, 0
1, 691200, Note_on_c, 0, 70, 0
1, 691200, Note_on_c, 0, 70, 46
1, 691200, Note_on_c, 0, 67, 46
1, 691200, Note_on_c, 0, 62, 47
1, 691200, Control_c, 0, 64, 0
1, 691334, Control_c, 0, 64, 127
1, 691920, Tempo, 397351
1, 691920, Note_on_c, 0, 67, 0
1, 691920, Note_on_c, 0, 70, 0
1, 691920, Note_on_c, 0, 65, 41
1, 691920, Note_on_c, 0, 69, 41
1, 691947, Control_c, 0, 64, 0
1, 692160, Note_on_c, 0, 69, 0
1, 692160, Note_on_c, 0, 65, 0
1, 692160, Note_on_c, 0, 62, 0
1, 693120, Note_on_c, 0, 57, 71
1, 693120, Note_on_c, 0, 45, 60
1, 693360, Tempo, 389636
1, 693360, Note_on_c, 0, 45, 0
1, 693360, Note_on_c, 0, 57, 0
1, 693360, Note_on_c, 0, 58, 78
1, 693360, Note_on_c, 0, 46, 66
1, 693480, Note_on_c, 0, 46, 0
1, 693480, Note_on_c, 0, 58, 0
1, 693600, Note_on_c, 0, 67, 73
1, 693600, Note_on_c, 0, 55, 61
1, 693720, Note_on_c, 0, 55, 0
1, 693720, Note_on_c, 0, 67, 0
1, 693840, Tempo, 394763
1, 693840, Note_on_c, 0, 59, 72
1, 693840, Note_on_c, 0, 47, 61
1, 693960, Note_on_c, 0, 47, 0
1, 693960, Note_on_c, 0, 59, 0
1, 694080, Tempo, 387122
1, 694080, Note_on_c, 0, 60, 78
1, 694080, Note_on_c, 0, 48, 66
1, 694200, Note_on_c, 0, 48, 0
1, 694200, Note_on_c, 0, 60, 0
1, 694320, Tempo, 387122
1, 694320, Note_on_c, 0, 69, 73
1, 694320, Note_on_c, 0, 57, 61
1, 694440, Note_on_c, 0, 57, 0
1, 694440, Note_on_c, 0, 69, 0
1, 694560, Tempo, 394763
1, 694560, Note_on_c, 0, 61, 73
1, 694560, Note_on_c, 0, 49, 61
1, 694680, Note_on_c, 0, 49, 0
1, 694680, Note_on_c, 0, 61, 0
1, 694800, Tempo, 387122
1, 694800, Note_on_c, 0, 62, 78
1, 694800, Note_on_c, 0, 50, 66
1, 694920, Note_on_c, 0, 50, 0
1, 694920, Note_on_c, 0, 62, 0
1, 695040, Note_on_c, 0, 70, 72
1, 695040, Note_on_c, 0, 58, 61
1, 695160, Note_on_c, 0, 58, 0
1, 695160, Note_on_c, 0, 70, 0
1, 695280, Tempo, 394763
1, 695280, Note_on_c, 0, 64, 72
1, 695280, Note_on_c, 0, 52, 61
1, 695400, Note_on_c, 0, 52, 0
1, 695400, Note_on_c, 0, 64, 0
1, 695520, Note_on_c, 0, 82, 68
1, 695520, Control_c, 0, 64, 127
1, 696240, Note_on_c, 0, 58, 28
1, 696240, Note_on_c, 0, 60, 28
1, 696240, Note_on_c, 0, 64, 28
1, 696240, Note_on_c, 0, 67, 34
1, 696480, Tempo, 379555
1, 696480, Note_on_c, 0, 82, 0
1, 696480, Note_on_c, 0, 81, 62
1, 696600, Note_on_c, 0, 81, 0
1, 696600, Note_on_c, 0, 79, 61
1, 696720, Note_on_c, 0, 79, 0
1, 696720, Note_on_c, 0, 77, 59
1, 696840, Note_on_c, 0, 77, 0
1, 696840, Note_on_c, 0, 76, 57
1, 696960, Tempo, 440917
1, 696960, Note_on_c, 0, 76, 0
1, 696960, Note_on_c, 0, 64, 0
1, 696960, Note_on_c, 0, 58, 0
1, 696960, Note_on_c, 0, 60, 0
1, 696960, Note_on_c, 0, 67, 0
1, 696960, Note_on_c, 0, 77, 56
1, 696960, Note_on_c, 0, 57, 41
1, 696960, Note_on_c, 0, 65, 49
1, 696960, Note_on_c, 0, 60, 41
1, 696960, Control_c, 0, 64, 0
1, 697020, Note_on_c, 0, 77, 0
1, 697020, Note_on_c, 0, 79, 49
1, 697080, Note_on_c, 0, 79, 0
1, 697080, Note_on_c, 0, 81, 49
1, 697140, Note_on_c, 0, 81, 0
1, 697200, Tempo, 399787
1, 697200, Note_on_c, 0, 57, 0
1, 697200, Note_on_c, 0, 65, 0
1, 697200, Note_on_c, 0, 60, 0
1, 697440, Tempo, 435635
1, 697680, Tempo, 556948
1, 697680, Note_on_c, 0, 74, 46
1, 697680, Note_on_c, 0, 58, 32
1, 697680, Note_on_c, 0, 62, 32
1, 697680, Note_on_c, 0, 65, 41
1, 697740, Note_on_c, 0, 74, 0
1, 697740, Note_on_c, 0, 76, 39
1, 697800, Tempo, 488878
1, 697800, Note_on_c, 0, 76, 0
1, 697800, Note_on_c, 0, 77, 39
1, 697860, Note_on_c, 0, 77, 0
1, 697920, Tempo, 398063
1, 697920, Note_on_c, 0, 58, 0
1, 697920, Note_on_c, 0, 62, 0
1, 697920, Note_on_c, 0, 65, 0
1, 698160, Tempo, 495868
1, 698400, Tempo, 397141
1, 698400, Note_on_c, 0, 60, 37
1, 698400, Note_on_c, 0, 65, 44
1, 698400, Note_on_c, 0, 57, 32
1, 698400, Note_on_c, 0, 48, 27
1, 698400, Control_c, 0, 64, 127
1, 698640, Tempo, 416435
1, 698880, Tempo, 447494
1, 699000, Note_on_c, 0, 65, 0
1, 699000, Note_on_c, 0, 69, 39
1, 699120, Note_on_c, 0, 69, 0
1, 699120, Note_on_c, 0, 57, 0
1, 699120, Note_on_c, 0, 67, 44
1, 699120, Note_on_c, 0, 64, 36
1, 699120, Note_on_c, 0, 58, 28
1, 699130, Control_c, 0, 64, 0
1, 699304, Control_c, 0, 64, 127
1, 699600, Tempo, 475888
1, 699600, Note_on_c, 0, 64, 0
1, 699600, Note_on_c, 0, 67, 0
1, 699600, Note_on_c, 0, 65, 41
1, 699840, Tempo, 410734
1, 699840, Note_on_c, 0, 65, 0
1, 699840, Note_on_c, 0, 58, 0
1, 699840, Note_on_c, 0, 60, 0
1, 699840, Note_on_c, 0, 48, 0
1, 699840, Note_on_c, 0, 65, 41
1, 699840, Note_on_c, 0, 53, 28
1, 699840, Control_c, 0, 64, 0
1, 699974, Control_c, 0, 64, 127
1, 700080, Tempo, 391952
1, 700080, Note_on_c, 0, 57, 24
1, 700320, Note_on_c, 0, 57, 0
1, 700320, Note_on_c, 0, 69, 39
1, 700320, Note_on_c, 0, 60, 24
1, 700560, Tempo, 394529
1, 700560, Note_on_c, 0, 60, 0
1, 700560, Note_on_c, 0, 65, 0
1, 700560, Note_on_c, 0, 53, 0
1, 700560, Note_on_c, 0, 69, 0
1, 700560, Note_on_c, 0, 64, 37
1, 700560, Note_on_c, 0, 72, 44
1, 700560, Note_on_c, 0, 53, 28
1, 700571, Control_c, 0, 64, 0
1, 700667, Control_c, 0, 64, 127
1, 700800, Note_on_c, 0, 72, 0
1, 700800, Note_on_c, 0, 70, 39
1, 700800, Note_on_c, 0, 55, 26
1, 701040, Tempo, 405186
1, 701040, Note_on_c, 0, 55, 0
1, 701040, Note_on_c, 0, 70, 0
1, 701040, Note_on_c, 0, 67, 39
1, 701040, Note_on_c, 0, 58, 26
1, 701280, Tempo, 394529
1, 701280, Note_on_c, 0, 58, 0
1, 701280, Note_on_c, 0, 64, 0
1, 701280, Note_on_c, 0, 53, 0
1, 701280, Note_on_c, 0, 67, 0
1, 701280, Note_on_c, 0, 65, 44
1, 701280, Note_on_c, 0, 53, 28
1, 701287, Control_c, 0, 64, 0
1, 701427, Control_c, 0, 64, 127
1, 701520, Note_on_c, 0, 60, 40
1, 701520, Note_on_c, 0, 57, 24
1, 701756, Note_on_c, 0, 60, 0
1, 701760, Tempo, 402468
1, 701760, Note_on_c, 0, 57, 0
1, 701760, Note_on_c, 0, 69, 40
1, 701760, Note_on_c, 0, 60, 24
1, 702000, Tempo, 394529
1, 702000, Note_on_c, 0, 60, 0
1, 702000, Note_on_c, 0, 65, 0
1, 702000, Note_on_c, 0, 53, 0
1, 702000, Note_on_c, 0, 69, 0
1, 702000, Note_on_c, 0, 64, 37
1, 702000, Note_on_c, 0, 72, 44
1, 702000, Note_on_c, 0, 53, 28
1, 702007, Control_c, 0, 64, 0
1, 702160, Control_c, 0, 64, 127
1, 702240, Note_on_c, 0, 72, 0
1, 702240, Note_on_c, 0, 70, 40
1, 702240, Note_on_c, 0, 55, 24
1, 702480, Tempo, 414565
1, 702480, Note_on_c, 0, 55, 0
1, 702480, Note_on_c, 0, 70, 0
1, 702480, Note_on_c, 0, 67, 40
1, 702480, Note_on_c, 0, 58, 24
1, 702720, Tempo, 403416
1, 702720, Note_on_c, 0, 58, 0
1, 702720, Note_on_c, 0, 64, 0
1, 702720, Note_on_c, 0, 53, 0
1, 702720, Note_on_c, 0, 67, 0
1, 702720, Note_on_c, 0, 65, 44
1, 702720, Note_on_c, 0, 53, 28
1, 702726, Control_c, 0, 64, 0
1, 702867, Control_c, 0, 64, 127
1, 702960, Note_on_c, 0, 65, 0
1, 702960, Note_on_c, 0, 60, 41
1, 702960, Note_on_c, 0, 57, 24
1, 703196, Note_on_c, 0, 60, 0
1, 703200, Tempo, 448665
1, 703200, Note_on_c, 0, 57, 0
1, 703200, Note_on_c, 0, 69, 41
1, 703200, Note_on_c, 0, 60, 24
1, 703440, Tempo, 428602
1, 703440, Note_on_c, 0, 60, 0
1, 703440, Note_on_c, 0, 69, 0
1, 703440, Note_on_c, 0, 53, 0
1, 703440, Note_on_c, 0, 65, 44
1, 703440, Note_on_c, 0, 53, 28
1, 703448, Control_c, 0, 64, 0
1, 703574, Control_c, 0, 64, 127
1, 703680, Tempo, 545504
1, 703680, Note_on_c, 0, 65, 0
1, 703680, Note_on_c, 0, 60, 40
1, 703680, Note_on_c, 0, 57, 24
1, 703917, Note_on_c, 0, 60, 0
1, 703920, Tempo, 874763
1, 703920, Note_on_c, 0, 57, 0
1, 703920, Note_on_c, 0, 69, 40
1, 703920, Note_on_c, 0, 60, 24
1, 704160, Tempo, 1060258
1, 704160, Note_on_c, 0, 60, 0
1, 704160, Note_on_c, 0, 69, 0
1, 704160, Note_on_c, 0, 53, 0
1, 704160, Note_on_c, 0, 67, 42
1, 704160, Note_on_c, 0, 58, 36
1, 704160, Note_on_c, 0, 53, 28
1, 704160, Note_on_c, 0, 41, 23
1, 704168, Control_c, 0, 64, 0
1, 704360, Control_c, 0, 64, 127
1, 704880, Note_on_c, 0, 58, 0
1, 704880, Note_on_c, 0, 67, 0
1, 704880, Note_on_c, 0, 65, 36
1, 704880, Note_on_c, 0, 57, 31
1, 704947, Control_c, 0, 64, 0
1, 704947, Control_c, 0, 64, 0
1, 705120, Note_on_c, 0, 57, 0
1, 705120, Note_on_c, 0, 41, 0
1, 705120, Note_on_c, 0, 53, 0
1, 705120, Note_on_c, 0, 65, 0
1, 705120, End_track
0, 0, End_of_file
