0, 0, Header, 1, 3, 384
1, 0, Start_track
1, 0, Title_t, "Album des Enfants 2nd serie "
1, 0, Title_t, "Opus 126 No.8 Novelette"
1, 0, Text_t, "Cecile Chaminade"
1, 0, Text_t, "\012"
1, 0, Time_signature, 2, 2, 24, 8
1, 0, Key_signature, 0, "major"
1, 0, Tempo, 652174
1, 6144, Tempo, 661084
1, 6336, Tempo, 851064
1, 6528, Tempo, 1363636
1, 6720, Tempo, 650336
1, 11520, Tempo, 714286
1, 12288, Tempo, 707965
1, 12480, Tempo, 851064
1, 12672, Tempo, 1363636
1, 12864, Tempo, 650336
1, 13056, Tempo, 655666
1, 16128, Tempo, 747664
1, 21888, Tempo, 919540
1, 23040, Tempo, 650336
1, 29472, Tempo, 926641
1, 30624, Tempo, 740741
1, 32256, Tempo, 655666
1, 35328, Tempo, 747664
1, 41088, Tempo, 919540
1, 42240, Tempo, 650336
1, 48672, Tempo, 1038961
1, 49824, Tempo, 740741
1, 50592, Tempo, 872727
1, 50592, End_track
2, 0, Start_track
2, 0, Title_t, "soprano"
2, 0, Control_c, 0, 7, 105
2, 0, Control_c, 0, 10, 79
2, 0, Control_c, 0, 91, 100
2, 28, Control_c, 0, 121, 0
2, 576, Note_on_c, 0, 69, 77
2, 672, Note_on_c, 0, 70, 77
2, 736, Note_on_c, 0, 64, 77
2, 752, Note_on_c, 0, 69, 0
2, 768, Note_on_c, 0, 70, 0
2, 768, Note_on_c, 0, 67, 85
2, 928, Note_on_c, 0, 64, 0
2, 960, Note_on_c, 0, 67, 0
2, 960, Note_on_c, 0, 67, 77
2, 1152, Note_on_c, 0, 67, 0
2, 1152, Note_on_c, 0, 74, 89
2, 1344, Note_on_c, 0, 68, 77
2, 1504, Note_on_c, 0, 69, 77
2, 1536, Note_on_c, 0, 68, 0
2, 1536, Note_on_c, 0, 72, 84
2, 1600, Note_on_c, 0, 74, 0
2, 1696, Note_on_c, 0, 69, 0
2, 1728, Note_on_c, 0, 72, 0
2, 1728, Note_on_c, 0, 72, 77
2, 1920, Note_on_c, 0, 72, 0
2, 1920, Note_on_c, 0, 77, 89
2, 2112, Note_on_c, 0, 71, 77
2, 2304, Note_on_c, 0, 71, 0
2, 2304, Note_on_c, 0, 72, 77
2, 2304, Note_on_c, 0, 76, 77
2, 2368, Note_on_c, 0, 77, 0
2, 2400, Note_on_c, 0, 77, 79
2, 2480, Note_on_c, 0, 76, 0
2, 2480, Note_on_c, 0, 72, 0
2, 2496, Note_on_c, 0, 78, 85
2, 2576, Note_on_c, 0, 77, 0
2, 2592, Note_on_c, 0, 79, 84
2, 2672, Note_on_c, 0, 78, 0
2, 2688, Note_on_c, 0, 70, 75
2, 2768, Note_on_c, 0, 79, 0
2, 3072, Note_on_c, 0, 70, 0
2, 3072, Note_on_c, 0, 69, 77
2, 3168, Note_on_c, 0, 70, 77
2, 3248, Note_on_c, 0, 69, 0
2, 3264, Note_on_c, 0, 71, 80
2, 3344, Note_on_c, 0, 70, 0
2, 3360, Note_on_c, 0, 72, 82
2, 3440, Note_on_c, 0, 71, 0
2, 3456, Note_on_c, 0, 65, 66
2, 3536, Note_on_c, 0, 72, 0
2, 3840, Note_on_c, 0, 65, 0
2, 3840, Note_on_c, 0, 64, 79
2, 3840, Note_on_c, 0, 69, 88
2, 4032, Note_on_c, 0, 69, 0
2, 4032, Note_on_c, 0, 64, 0
2, 4032, Note_on_c, 0, 69, 82
2, 4224, Note_on_c, 0, 69, 0
2, 4224, Note_on_c, 0, 76, 80
2, 4608, Note_on_c, 0, 76, 0
2, 4608, Note_on_c, 0, 64, 78
2, 4608, Note_on_c, 0, 69, 88
2, 4800, Note_on_c, 0, 69, 0
2, 4800, Note_on_c, 0, 64, 0
2, 4800, Note_on_c, 0, 69, 82
2, 4992, Note_on_c, 0, 69, 0
2, 4992, Note_on_c, 0, 76, 80
2, 5376, Note_on_c, 0, 76, 0
2, 5376, Note_on_c, 0, 64, 78
2, 5376, Note_on_c, 0, 67, 88
2, 5568, Note_on_c, 0, 67, 0
2, 5568, Note_on_c, 0, 64, 0
2, 5568, Note_on_c, 0, 64, 80
2, 5568, Note_on_c, 0, 67, 80
2, 5760, Note_on_c, 0, 67, 0
2, 5760, Note_on_c, 0, 64, 0
2, 5760, Note_on_c, 0, 69, 77
2, 5760, Note_on_c, 0, 72, 77
2, 5952, Note_on_c, 0, 72, 0
2, 5952, Note_on_c, 0, 69, 0
2, 5952, Note_on_c, 0, 69, 78
2, 5952, Note_on_c, 0, 72, 88
2, 6144, Note_on_c, 0, 72, 0
2, 6144, Note_on_c, 0, 69, 0
2, 6144, Note_on_c, 0, 74, 78
2, 6144, Note_on_c, 0, 79, 88
2, 6336, Note_on_c, 0, 79, 0
2, 6336, Note_on_c, 0, 74, 0
2, 6336, Note_on_c, 0, 74, 78
2, 6336, Note_on_c, 0, 79, 88
2, 6528, Note_on_c, 0, 79, 0
2, 6528, Note_on_c, 0, 74, 0
2, 6528, Note_on_c, 0, 76, 78
2, 6528, Note_on_c, 0, 84, 88
2, 6720, Note_on_c, 0, 84, 0
2, 6720, Note_on_c, 0, 76, 0
2, 6720, Note_on_c, 0, 69, 63
2, 6816, Note_on_c, 0, 69, 0
2, 6816, Note_on_c, 0, 70, 63
2, 6880, Note_on_c, 0, 64, 63
2, 6912, Note_on_c, 0, 70, 0
2, 6912, Note_on_c, 0, 67, 72
2, 7072, Note_on_c, 0, 64, 0
2, 7104, Note_on_c, 0, 67, 0
2, 7104, Note_on_c, 0, 67, 63
2, 7296, Note_on_c, 0, 67, 0
2, 7296, Note_on_c, 0, 74, 77
2, 7488, Note_on_c, 0, 68, 63
2, 7648, Note_on_c, 0, 69, 53
2, 7680, Note_on_c, 0, 68, 0
2, 7680, Note_on_c, 0, 72, 72
2, 7744, Note_on_c, 0, 74, 0
2, 7840, Note_on_c, 0, 69, 0
2, 7872, Note_on_c, 0, 72, 0
2, 7872, Note_on_c, 0, 72, 63
2, 8064, Note_on_c, 0, 72, 0
2, 8064, Note_on_c, 0, 77, 75
2, 8256, Note_on_c, 0, 71, 63
2, 8448, Note_on_c, 0, 71, 0
2, 8448, Note_on_c, 0, 72, 53
2, 8448, Note_on_c, 0, 76, 63
2, 8480, Note_on_c, 0, 77, 0
2, 8544, Note_on_c, 0, 77, 63
2, 8624, Note_on_c, 0, 76, 0
2, 8624, Note_on_c, 0, 72, 0
2, 8640, Note_on_c, 0, 78, 67
2, 8720, Note_on_c, 0, 77, 0
2, 8736, Note_on_c, 0, 79, 75
2, 8816, Note_on_c, 0, 78, 0
2, 8832, Note_on_c, 0, 70, 63
2, 8912, Note_on_c, 0, 79, 0
2, 9216, Note_on_c, 0, 70, 0
2, 9216, Note_on_c, 0, 69, 63
2, 9312, Note_on_c, 0, 70, 69
2, 9392, Note_on_c, 0, 69, 0
2, 9408, Note_on_c, 0, 71, 70
2, 9488, Note_on_c, 0, 70, 0
2, 9504, Note_on_c, 0, 72, 72
2, 9584, Note_on_c, 0, 71, 0
2, 9600, Note_on_c, 0, 65, 63
2, 9680, Note_on_c, 0, 72, 0
2, 9984, Note_on_c, 0, 65, 0
2, 9984, Note_on_c, 0, 64, 78
2, 9984, Note_on_c, 0, 69, 88
2, 10176, Note_on_c, 0, 69, 0
2, 10176, Note_on_c, 0, 64, 0
2, 10176, Note_on_c, 0, 69, 88
2, 10368, Note_on_c, 0, 69, 0
2, 10368, Note_on_c, 0, 76, 88
2, 10752, Note_on_c, 0, 76, 0
2, 10752, Note_on_c, 0, 64, 78
2, 10752, Note_on_c, 0, 69, 88
2, 10944, Note_on_c, 0, 69, 0
2, 10944, Note_on_c, 0, 64, 0
2, 10944, Note_on_c, 0, 69, 88
2, 11136, Note_on_c, 0, 69, 0
2, 11136, Note_on_c, 0, 76, 88
2, 11520, Note_on_c, 0, 76, 0
2, 11520, Note_on_c, 0, 64, 78
2, 11520, Note_on_c, 0, 67, 88
2, 11712, Note_on_c, 0, 67, 0
2, 11712, Note_on_c, 0, 64, 0
2, 11712, Note_on_c, 0, 64, 78
2, 11712, Note_on_c, 0, 67, 88
2, 11904, Note_on_c, 0, 67, 0
2, 11904, Note_on_c, 0, 64, 0
2, 11904, Note_on_c, 0, 69, 78
2, 11904, Note_on_c, 0, 72, 88
2, 12096, Note_on_c, 0, 72, 0
2, 12096, Note_on_c, 0, 69, 0
2, 12096, Note_on_c, 0, 69, 78
2, 12096, Note_on_c, 0, 72, 88
2, 12288, Note_on_c, 0, 72, 0
2, 12288, Note_on_c, 0, 69, 0
2, 12288, Note_on_c, 0, 74, 78
2, 12288, Note_on_c, 0, 79, 88
2, 12480, Note_on_c, 0, 79, 0
2, 12480, Note_on_c, 0, 74, 0
2, 12480, Note_on_c, 0, 74, 78
2, 12480, Note_on_c, 0, 79, 88
2, 12672, Note_on_c, 0, 79, 0
2, 12672, Note_on_c, 0, 74, 0
2, 12672, Note_on_c, 0, 76, 78
2, 12672, Note_on_c, 0, 84, 88
2, 13056, Note_on_c, 0, 84, 0
2, 13056, Note_on_c, 0, 76, 0
2, 13824, Control_c, 0, 10, 60
2, 13824, Note_on_c, 0, 62, 96
2, 13920, Note_on_c, 0, 64, 96
2, 14000, Note_on_c, 0, 62, 0
2, 14016, Note_on_c, 0, 65, 96
2, 14096, Note_on_c, 0, 64, 0
2, 14112, Note_on_c, 0, 67, 96
2, 14192, Note_on_c, 0, 65, 0
2, 14208, Note_on_c, 0, 65, 96
2, 14288, Note_on_c, 0, 67, 0
2, 14304, Note_on_c, 0, 64, 96
2, 14384, Note_on_c, 0, 65, 0
2, 14400, Note_on_c, 0, 62, 96
2, 14480, Note_on_c, 0, 64, 0
2, 14496, Note_on_c, 0, 60, 96
2, 14576, Note_on_c, 0, 62, 0
2, 14592, Note_on_c, 0, 60, 0
2, 14592, Note_on_c, 0, 59, 86
2, 14592, Note_on_c, 0, 67, 96
2, 14704, Note_on_c, 0, 67, 0
2, 14704, Note_on_c, 0, 59, 0
2, 14784, Note_on_c, 0, 59, 86
2, 14784, Note_on_c, 0, 67, 96
2, 14896, Note_on_c, 0, 67, 0
2, 14896, Note_on_c, 0, 59, 0
2, 14976, Note_on_c, 0, 67, 86
2, 14976, Note_on_c, 0, 72, 96
2, 15280, Note_on_c, 0, 72, 0
2, 15280, Note_on_c, 0, 67, 0
2, 15360, Note_on_c, 0, 67, 86
2, 15360, Note_on_c, 0, 74, 96
2, 15456, Note_on_c, 0, 76, 96
2, 15536, Note_on_c, 0, 74, 0
2, 15552, Note_on_c, 0, 67, 0
2, 15552, Note_on_c, 0, 77, 96
2, 15632, Note_on_c, 0, 76, 0
2, 15648, Note_on_c, 0, 79, 96
2, 15728, Note_on_c, 0, 77, 0
2, 15744, Note_on_c, 0, 79, 0
2, 15744, Note_on_c, 0, 72, 86
2, 15744, Note_on_c, 0, 77, 96
2, 15840, Note_on_c, 0, 76, 96
2, 15920, Note_on_c, 0, 77, 0
2, 15920, Note_on_c, 0, 72, 0
2, 15936, Note_on_c, 0, 74, 96
2, 16016, Note_on_c, 0, 76, 0
2, 16032, Note_on_c, 0, 72, 96
2, 16112, Note_on_c, 0, 74, 0
2, 16128, Note_on_c, 0, 72, 0
2, 16128, Note_on_c, 0, 65, 86
2, 16128, Note_on_c, 0, 69, 96
2, 16320, Note_on_c, 0, 69, 0
2, 16320, Note_on_c, 0, 65, 0
2, 16320, Note_on_c, 0, 65, 86
2, 16320, Note_on_c, 0, 69, 96
2, 16512, Note_on_c, 0, 69, 0
2, 16512, Note_on_c, 0, 65, 0
2, 16512, Note_on_c, 0, 64, 86
2, 16512, Note_on_c, 0, 72, 96
2, 16896, Note_on_c, 0, 72, 0
2, 16896, Note_on_c, 0, 64, 0
2, 16896, Note_on_c, 0, 69, 86
2, 16896, Note_on_c, 0, 74, 96
2, 17280, Note_on_c, 0, 74, 0
2, 17280, Note_on_c, 0, 69, 0
2, 17280, Note_on_c, 0, 68, 86
2, 17280, Note_on_c, 0, 76, 96
2, 17664, Note_on_c, 0, 76, 0
2, 17664, Note_on_c, 0, 68, 0
2, 17664, Note_on_c, 0, 60, 53
2, 17664, Note_on_c, 0, 64, 63
2, 17856, Note_on_c, 0, 64, 0
2, 17856, Note_on_c, 0, 60, 0
2, 17856, Note_on_c, 0, 60, 53
2, 17856, Note_on_c, 0, 64, 63
2, 18048, Note_on_c, 0, 64, 0
2, 18048, Note_on_c, 0, 60, 0
2, 18048, Note_on_c, 0, 60, 53
2, 18048, Note_on_c, 0, 69, 63
2, 18432, Note_on_c, 0, 69, 0
2, 18432, Note_on_c, 0, 60, 0
2, 18432, Note_on_c, 0, 55, 53
2, 18432, Note_on_c, 0, 59, 63
2, 19200, Note_on_c, 0, 59, 0
2, 19200, Note_on_c, 0, 55, 0
2, 19200, Note_on_c, 0, 48, 53
2, 19200, Note_on_c, 0, 60, 69
2, 19584, Note_on_c, 0, 60, 0
2, 19584, Note_on_c, 0, 48, 0
2, 19584, Note_on_c, 0, 65, 53
2, 19584, Note_on_c, 0, 67, 69
2, 19752, Note_on_c, 0, 67, 0
2, 19752, Note_on_c, 0, 65, 0
2, 19776, Note_on_c, 0, 65, 53
2, 19776, Note_on_c, 0, 67, 69
2, 19944, Note_on_c, 0, 67, 0
2, 19944, Note_on_c, 0, 65, 0
2, 19968, Note_on_c, 0, 64, 53
2, 19968, Note_on_c, 0, 72, 69
2, 20352, Note_on_c, 0, 72, 0
2, 20352, Note_on_c, 0, 64, 0
2, 20352, Note_on_c, 0, 65, 53
2, 20352, Note_on_c, 0, 67, 69
2, 20736, Note_on_c, 0, 67, 0
2, 20736, Note_on_c, 0, 65, 0
2, 20736, Note_on_c, 0, 64, 53
2, 20736, Note_on_c, 0, 72, 69
2, 21120, Note_on_c, 0, 72, 0
2, 21120, Note_on_c, 0, 64, 0
2, 21120, Note_on_c, 0, 60, 63
2, 21288, Note_on_c, 0, 60, 0
2, 21312, Note_on_c, 0, 60, 63
2, 21480, Note_on_c, 0, 60, 0
2, 21504, Note_on_c, 0, 62, 53
2, 21504, Note_on_c, 0, 65, 63
2, 21888, Note_on_c, 0, 65, 0
2, 21888, Note_on_c, 0, 62, 0
2, 21888, Note_on_c, 0, 60, 63
2, 22056, Note_on_c, 0, 60, 0
2, 22080, Note_on_c, 0, 60, 63
2, 22248, Note_on_c, 0, 60, 0
2, 22272, Note_on_c, 0, 63, 53
2, 22272, Note_on_c, 0, 66, 63
2, 22656, Note_on_c, 0, 66, 0
2, 22656, Note_on_c, 0, 63, 0
2, 22656, Note_on_c, 0, 60, 63
2, 22824, Note_on_c, 0, 60, 0
2, 22848, Note_on_c, 0, 60, 63
2, 23008, Note_on_c, 0, 64, 63
2, 23016, Note_on_c, 0, 60, 0
2, 23040, Note_on_c, 0, 67, 70
2, 23200, Note_on_c, 0, 64, 0
2, 23208, Note_on_c, 0, 67, 0
2, 23232, Note_on_c, 0, 67, 63
2, 23400, Note_on_c, 0, 67, 0
2, 23424, Note_on_c, 0, 74, 63
2, 23616, Note_on_c, 0, 68, 53
2, 23776, Note_on_c, 0, 69, 63
2, 23808, Note_on_c, 0, 68, 0
2, 23808, Note_on_c, 0, 74, 0
2, 23808, Note_on_c, 0, 72, 69
2, 23968, Note_on_c, 0, 69, 0
2, 24000, Note_on_c, 0, 72, 0
2, 24000, Note_on_c, 0, 72, 63
2, 24192, Note_on_c, 0, 72, 0
2, 24192, Note_on_c, 0, 77, 63
2, 24384, Note_on_c, 0, 71, 63
2, 24576, Note_on_c, 0, 71, 0
2, 24576, Note_on_c, 0, 77, 0
2, 24576, Note_on_c, 0, 72, 67
2, 24576, Note_on_c, 0, 76, 67
2, 24672, Note_on_c, 0, 77, 63
2, 24752, Note_on_c, 0, 76, 0
2, 24752, Note_on_c, 0, 72, 0
2, 24768, Note_on_c, 0, 78, 63
2, 24848, Note_on_c, 0, 77, 0
2, 24864, Note_on_c, 0, 79, 70
2, 24944, Note_on_c, 0, 78, 0
2, 24960, Note_on_c, 0, 79, 0
2, 24960, Note_on_c, 0, 70, 75
2, 25344, Note_on_c, 0, 70, 0
2, 25344, Note_on_c, 0, 69, 63
2, 25440, Note_on_c, 0, 70, 60
2, 25520, Note_on_c, 0, 69, 0
2, 25536, Note_on_c, 0, 71, 63
2, 25616, Note_on_c, 0, 70, 0
2, 25632, Note_on_c, 0, 72, 70
2, 25712, Note_on_c, 0, 71, 0
2, 25728, Note_on_c, 0, 72, 0
2, 25728, Note_on_c, 0, 65, 53
2, 26088, Note_on_c, 0, 65, 0
2, 26112, Note_on_c, 0, 65, 86
2, 26112, Note_on_c, 0, 69, 96
2, 26280, Note_on_c, 0, 69, 0
2, 26280, Note_on_c, 0, 65, 0
2, 26304, Note_on_c, 0, 65, 78
2, 26304, Note_on_c, 0, 69, 88
2, 26496, Note_on_c, 0, 69, 0
2, 26496, Note_on_c, 0, 76, 96
2, 26856, Note_on_c, 0, 65, 0
2, 26880, Note_on_c, 0, 76, 0
2, 26880, Note_on_c, 0, 65, 86
2, 26880, Note_on_c, 0, 74, 96
2, 27048, Note_on_c, 0, 74, 0
2, 27048, Note_on_c, 0, 65, 0
2, 27072, Note_on_c, 0, 65, 86
2, 27072, Note_on_c, 0, 74, 96
2, 27240, Note_on_c, 0, 65, 0
2, 27264, Note_on_c, 0, 74, 0
2, 27264, Note_on_c, 0, 65, 78
2, 27264, Note_on_c, 0, 67, 88
2, 27624, Note_on_c, 0, 67, 0
2, 27648, Note_on_c, 0, 65, 0
2, 27648, Note_on_c, 0, 64, 86
2, 27648, Note_on_c, 0, 67, 96
2, 27816, Note_on_c, 0, 67, 0
2, 27816, Note_on_c, 0, 64, 0
2, 27840, Note_on_c, 0, 64, 78
2, 27840, Note_on_c, 0, 67, 88
2, 28032, Note_on_c, 0, 67, 0
2, 28032, Note_on_c, 0, 74, 96
2, 28416, Note_on_c, 0, 74, 0
2, 28416, Note_on_c, 0, 64, 0
2, 28416, Note_on_c, 0, 63, 86
2, 28416, Note_on_c, 0, 72, 96
2, 28584, Note_on_c, 0, 72, 0
2, 28584, Note_on_c, 0, 63, 0
2, 28608, Note_on_c, 0, 63, 78
2, 28608, Note_on_c, 0, 72, 88
2, 28776, Note_on_c, 0, 72, 0
2, 28776, Note_on_c, 0, 63, 0
2, 28800, Note_on_c, 0, 63, 78
2, 28800, Note_on_c, 0, 65, 88
2, 29160, Note_on_c, 0, 65, 0
2, 29160, Note_on_c, 0, 63, 0
2, 29184, Note_on_c, 0, 62, 86
2, 29184, Note_on_c, 0, 65, 96
2, 29352, Note_on_c, 0, 65, 0
2, 29352, Note_on_c, 0, 62, 0
2, 29376, Note_on_c, 0, 62, 78
2, 29376, Note_on_c, 0, 65, 88
2, 29544, Note_on_c, 0, 65, 0
2, 29544, Note_on_c, 0, 62, 0
2, 29568, Note_on_c, 0, 61, 86
2, 29568, Note_on_c, 0, 69, 96
2, 29952, Note_on_c, 0, 61, 0
2, 29952, Note_on_c, 0, 60, 78
2, 29952, Note_on_c, 0, 65, 88
2, 30032, Note_on_c, 0, 69, 0
2, 30304, Note_on_c, 0, 59, 86
2, 30336, Note_on_c, 0, 60, 0
2, 30336, Note_on_c, 0, 69, 96
2, 30416, Note_on_c, 0, 65, 0
2, 30688, Note_on_c, 0, 59, 0
2, 30720, Note_on_c, 0, 69, 0
2, 30720, Note_on_c, 0, 60, 63
2, 30888, Note_on_c, 0, 60, 0
2, 30912, Note_on_c, 0, 60, 63
2, 31104, Note_on_c, 0, 60, 0
2, 31104, Note_on_c, 0, 62, 53
2, 31104, Note_on_c, 0, 65, 63
2, 31272, Note_on_c, 0, 65, 0
2, 31272, Note_on_c, 0, 62, 0
2, 31296, Note_on_c, 0, 62, 53
2, 31296, Note_on_c, 0, 65, 63
2, 31424, Note_on_c, 0, 64, 63
2, 31488, Note_on_c, 0, 65, 0
2, 31488, Note_on_c, 0, 62, 0
2, 31488, Note_on_c, 0, 72, 63
2, 31616, Note_on_c, 0, 64, 0
2, 31656, Note_on_c, 0, 72, 0
2, 31680, Note_on_c, 0, 70, 53
2, 31680, Note_on_c, 0, 72, 63
2, 31872, Note_on_c, 0, 72, 0
2, 31872, Note_on_c, 0, 70, 0
2, 31872, Note_on_c, 0, 69, 53
2, 31872, Note_on_c, 0, 77, 63
2, 32256, Note_on_c, 0, 77, 0
2, 32256, Note_on_c, 0, 69, 0
2, 33024, Note_on_c, 0, 62, 96
2, 33120, Note_on_c, 0, 64, 88
2, 33200, Note_on_c, 0, 62, 0
2, 33216, Note_on_c, 0, 65, 93
2, 33296, Note_on_c, 0, 64, 0
2, 33312, Note_on_c, 0, 67, 98
2, 33392, Note_on_c, 0, 65, 0
2, 33408, Note_on_c, 0, 65, 105
2, 33488, Note_on_c, 0, 67, 0
2, 33504, Note_on_c, 0, 64, 98
2, 33584, Note_on_c, 0, 65, 0
2, 33600, Note_on_c, 0, 62, 92
2, 33680, Note_on_c, 0, 64, 0
2, 33696, Note_on_c, 0, 60, 88
2, 33776, Note_on_c, 0, 62, 0
2, 33792, Note_on_c, 0, 60, 0
2, 33792, Note_on_c, 0, 59, 85
2, 33792, Note_on_c, 0, 67, 85
2, 33904, Note_on_c, 0, 67, 0
2, 33904, Note_on_c, 0, 59, 0
2, 33984, Note_on_c, 0, 59, 87
2, 33984, Note_on_c, 0, 67, 87
2, 34096, Note_on_c, 0, 67, 0
2, 34096, Note_on_c, 0, 59, 0
2, 34176, Note_on_c, 0, 67, 90
2, 34176, Note_on_c, 0, 72, 90
2, 34480, Note_on_c, 0, 72, 0
2, 34480, Note_on_c, 0, 67, 0
2, 34560, Note_on_c, 0, 67, 86
2, 34560, Note_on_c, 0, 74, 96
2, 34656, Note_on_c, 0, 76, 90
2, 34736, Note_on_c, 0, 74, 0
2, 34752, Note_on_c, 0, 67, 0
2, 34752, Note_on_c, 0, 77, 93
2, 34832, Note_on_c, 0, 76, 0
2, 34848, Note_on_c, 0, 79, 96
2, 34928, Note_on_c, 0, 77, 0
2, 34944, Note_on_c, 0, 79, 0
2, 34944, Note_on_c, 0, 72, 103
2, 34944, Note_on_c, 0, 77, 103
2, 35040, Note_on_c, 0, 76, 98
2, 35120, Note_on_c, 0, 77, 0
2, 35120, Note_on_c, 0, 72, 0
2, 35136, Note_on_c, 0, 74, 92
2, 35216, Note_on_c, 0, 76, 0
2, 35232, Note_on_c, 0, 72, 90
2, 35312, Note_on_c, 0, 74, 0
2, 35328, Note_on_c, 0, 72, 0
2, 35328, Note_on_c, 0, 65, 93
2, 35328, Note_on_c, 0, 69, 93
2, 35496, Note_on_c, 0, 69, 0
2, 35496, Note_on_c, 0, 65, 0
2, 35520, Note_on_c, 0, 65, 88
2, 35520, Note_on_c, 0, 69, 88
2, 35712, Note_on_c, 0, 69, 0
2, 35712, Note_on_c, 0, 65, 0
2, 35712, Note_on_c, 0, 64, 86
2, 35712, Note_on_c, 0, 72, 96
2, 36096, Note_on_c, 0, 72, 0
2, 36096, Note_on_c, 0, 64, 0
2, 36096, Note_on_c, 0, 69, 86
2, 36096, Note_on_c, 0, 74, 96
2, 36480, Note_on_c, 0, 74, 0
2, 36480, Note_on_c, 0, 69, 0
2, 36480, Note_on_c, 0, 68, 86
2, 36480, Note_on_c, 0, 76, 96
2, 36864, Note_on_c, 0, 76, 0
2, 36864, Note_on_c, 0, 68, 0
2, 36864, Note_on_c, 0, 60, 53
2, 36864, Note_on_c, 0, 64, 63
2, 37032, Note_on_c, 0, 64, 0
2, 37032, Note_on_c, 0, 60, 0
2, 37056, Note_on_c, 0, 60, 53
2, 37056, Note_on_c, 0, 64, 63
2, 37224, Note_on_c, 0, 64, 0
2, 37224, Note_on_c, 0, 60, 0
2, 37248, Note_on_c, 0, 60, 53
2, 37248, Note_on_c, 0, 69, 63
2, 37632, Note_on_c, 0, 69, 0
2, 37632, Note_on_c, 0, 60, 0
2, 37632, Note_on_c, 0, 55, 53
2, 37632, Note_on_c, 0, 59, 63
2, 38400, Note_on_c, 0, 59, 0
2, 38400, Note_on_c, 0, 55, 0
2, 38400, Note_on_c, 0, 48, 53
2, 38400, Note_on_c, 0, 60, 69
2, 38784, Note_on_c, 0, 60, 0
2, 38784, Note_on_c, 0, 48, 0
2, 38784, Note_on_c, 0, 65, 53
2, 38784, Note_on_c, 0, 67, 69
2, 38952, Note_on_c, 0, 67, 0
2, 38952, Note_on_c, 0, 65, 0
2, 38976, Note_on_c, 0, 65, 53
2, 38976, Note_on_c, 0, 67, 69
2, 39144, Note_on_c, 0, 67, 0
2, 39144, Note_on_c, 0, 65, 0
2, 39168, Note_on_c, 0, 64, 53
2, 39168, Note_on_c, 0, 72, 69
2, 39552, Note_on_c, 0, 72, 0
2, 39552, Note_on_c, 0, 64, 0
2, 39552, Note_on_c, 0, 65, 53
2, 39552, Note_on_c, 0, 67, 69
2, 39936, Note_on_c, 0, 67, 0
2, 39936, Note_on_c, 0, 65, 0
2, 39936, Note_on_c, 0, 64, 53
2, 39936, Note_on_c, 0, 72, 69
2, 40320, Note_on_c, 0, 72, 0
2, 40320, Note_on_c, 0, 64, 0
2, 40320, Note_on_c, 0, 60, 63
2, 40488, Note_on_c, 0, 60, 0
2, 40512, Note_on_c, 0, 60, 63
2, 40680, Note_on_c, 0, 60, 0
2, 40704, Note_on_c, 0, 62, 53
2, 40704, Note_on_c, 0, 65, 63
2, 41088, Note_on_c, 0, 65, 0
2, 41088, Note_on_c, 0, 62, 0
2, 41088, Note_on_c, 0, 60, 63
2, 41268, Note_on_c, 0, 60, 0
2, 41280, Note_on_c, 0, 60, 63
2, 41472, Note_on_c, 0, 60, 0
2, 41472, Note_on_c, 0, 63, 53
2, 41472, Note_on_c, 0, 66, 63
2, 41856, Note_on_c, 0, 66, 0
2, 41856, Note_on_c, 0, 63, 0
2, 41856, Note_on_c, 0, 60, 63
2, 42036, Note_on_c, 0, 60, 0
2, 42048, Note_on_c, 0, 60, 63
2, 42208, Note_on_c, 0, 64, 63
2, 42220, Note_on_c, 0, 60, 0
2, 42240, Note_on_c, 0, 67, 63
2, 42400, Note_on_c, 0, 64, 0
2, 42420, Note_on_c, 0, 67, 0
2, 42432, Note_on_c, 0, 67, 63
2, 42624, Note_on_c, 0, 67, 0
2, 42624, Note_on_c, 0, 74, 63
2, 42816, Note_on_c, 0, 68, 53
2, 42976, Note_on_c, 0, 69, 63
2, 43008, Note_on_c, 0, 68, 0
2, 43008, Note_on_c, 0, 74, 0
2, 43008, Note_on_c, 0, 72, 63
2, 43168, Note_on_c, 0, 69, 0
2, 43188, Note_on_c, 0, 72, 0
2, 43200, Note_on_c, 0, 72, 63
2, 43392, Note_on_c, 0, 72, 0
2, 43392, Note_on_c, 0, 77, 63
2, 43584, Note_on_c, 0, 71, 63
2, 43776, Note_on_c, 0, 71, 0
2, 43776, Note_on_c, 0, 77, 0
2, 43776, Note_on_c, 0, 72, 53
2, 43776, Note_on_c, 0, 76, 63
2, 43872, Note_on_c, 0, 77, 63
2, 43952, Note_on_c, 0, 76, 0
2, 43952, Note_on_c, 0, 72, 0
2, 43968, Note_on_c, 0, 78, 63
2, 44048, Note_on_c, 0, 77, 0
2, 44064, Note_on_c, 0, 79, 63
2, 44144, Note_on_c, 0, 78, 0
2, 44160, Note_on_c, 0, 79, 0
2, 44160, Note_on_c, 0, 70, 63
2, 44544, Note_on_c, 0, 70, 0
2, 44544, Note_on_c, 0, 69, 63
2, 44640, Note_on_c, 0, 70, 63
2, 44720, Note_on_c, 0, 69, 0
2, 44736, Note_on_c, 0, 71, 63
2, 44816, Note_on_c, 0, 70, 0
2, 44832, Note_on_c, 0, 72, 63
2, 44912, Note_on_c, 0, 71, 0
2, 44928, Note_on_c, 0, 72, 0
2, 44928, Note_on_c, 0, 65, 53
2, 45300, Note_on_c, 0, 65, 0
2, 45312, Note_on_c, 0, 65, 86
2, 45312, Note_on_c, 0, 69, 96
2, 45480, Note_on_c, 0, 69, 0
2, 45480, Note_on_c, 0, 65, 0
2, 45504, Note_on_c, 0, 65, 79
2, 45504, Note_on_c, 0, 69, 89
2, 45696, Note_on_c, 0, 69, 0
2, 45696, Note_on_c, 0, 76, 96
2, 46056, Note_on_c, 0, 65, 0
2, 46080, Note_on_c, 0, 76, 0
2, 46080, Note_on_c, 0, 65, 86
2, 46080, Note_on_c, 0, 74, 96
2, 46248, Note_on_c, 0, 74, 0
2, 46248, Note_on_c, 0, 65, 0
2, 46272, Note_on_c, 0, 65, 79
2, 46272, Note_on_c, 0, 74, 89
2, 46440, Note_on_c, 0, 65, 0
2, 46464, Note_on_c, 0, 74, 0
2, 46464, Note_on_c, 0, 65, 86
2, 46464, Note_on_c, 0, 67, 96
2, 46824, Note_on_c, 0, 67, 0
2, 46848, Note_on_c, 0, 65, 0
2, 46848, Note_on_c, 0, 64, 86
2, 46848, Note_on_c, 0, 67, 96
2, 47016, Note_on_c, 0, 67, 0
2, 47016, Note_on_c, 0, 64, 0
2, 47040, Note_on_c, 0, 64, 79
2, 47040, Note_on_c, 0, 67, 89
2, 47232, Note_on_c, 0, 67, 0
2, 47232, Note_on_c, 0, 74, 96
2, 47616, Note_on_c, 0, 74, 0
2, 47616, Note_on_c, 0, 64, 0
2, 47616, Note_on_c, 0, 63, 86
2, 47616, Note_on_c, 0, 72, 96
2, 47784, Note_on_c, 0, 72, 0
2, 47784, Note_on_c, 0, 63, 0
2, 47808, Note_on_c, 0, 63, 86
2, 47808, Note_on_c, 0, 72, 96
2, 47976, Note_on_c, 0, 63, 0
2, 48000, Note_on_c, 0, 72, 0
2, 48000, Note_on_c, 0, 63, 79
2, 48000, Note_on_c, 0, 65, 89
2, 48384, Note_on_c, 0, 65, 0
2, 48384, Note_on_c, 0, 63, 0
2, 48384, Note_on_c, 0, 62, 86
2, 48384, Note_on_c, 0, 65, 96
2, 48552, Note_on_c, 0, 65, 0
2, 48552, Note_on_c, 0, 62, 0
2, 48576, Note_on_c, 0, 62, 79
2, 48576, Note_on_c, 0, 65, 89
2, 48768, Note_on_c, 0, 65, 0
2, 48768, Note_on_c, 0, 62, 0
2, 48768, Note_on_c, 0, 61, 86
2, 48768, Note_on_c, 0, 69, 96
2, 49152, Note_on_c, 0, 61, 0
2, 49152, Note_on_c, 0, 60, 86
2, 49152, Note_on_c, 0, 65, 96
2, 49232, Note_on_c, 0, 69, 0
2, 49504, Note_on_c, 0, 59, 79
2, 49536, Note_on_c, 0, 60, 0
2, 49536, Note_on_c, 0, 69, 89
2, 49616, Note_on_c, 0, 65, 0
2, 49888, Note_on_c, 0, 59, 0
2, 49920, Note_on_c, 0, 69, 0
2, 49920, Note_on_c, 0, 60, 63
2, 50088, Note_on_c, 0, 60, 0
2, 50112, Note_on_c, 0, 60, 56
2, 50304, Note_on_c, 0, 60, 0
2, 50304, Note_on_c, 0, 62, 53
2, 50304, Note_on_c, 0, 65, 63
2, 50472, Note_on_c, 0, 65, 0
2, 50472, Note_on_c, 0, 62, 0
2, 50496, Note_on_c, 0, 62, 46
2, 50496, Note_on_c, 0, 65, 56
2, 50642, Note_on_c, 0, 64, 63
2, 50688, Note_on_c, 0, 65, 0
2, 50688, Note_on_c, 0, 62, 0
2, 50688, Note_on_c, 0, 72, 72
2, 50834, Note_on_c, 0, 64, 0
2, 50856, Note_on_c, 0, 72, 0
2, 50880, Note_on_c, 0, 70, 46
2, 50880, Note_on_c, 0, 72, 56
2, 51072, Note_on_c, 0, 72, 0
2, 51072, Note_on_c, 0, 70, 0
2, 51072, Note_on_c, 0, 69, 53
2, 51072, Note_on_c, 0, 77, 63
2, 51456, Note_on_c, 0, 77, 0
2, 51456, Note_on_c, 0, 69, 0
2, 51456, End_track
3, 0, Start_track
3, 0, Title_t, "bass"
3, 0, Program_c, 0, 0
3, 0, Control_c, 0, 7, 105
3, 0, Control_c, 0, 10, 48
3, 0, Control_c, 0, 91, 100
3, 28, Control_c, 0, 121, 0
3, 768, Program_c, 0, 0
3, 768, Note_on_c, 0, 58, 54
3, 768, Note_on_c, 0, 60, 54
3, 800, Control_c, 0, 64, 127
3, 960, Note_on_c, 0, 48, 62
3, 1040, Note_on_c, 0, 60, 0
3, 1040, Note_on_c, 0, 58, 0
3, 1344, Note_on_c, 0, 48, 0
3, 1344, Note_on_c, 0, 58, 54
3, 1344, Note_on_c, 0, 64, 54
3, 1472, Control_c, 0, 64, 0
3, 1536, Note_on_c, 0, 64, 0
3, 1536, Note_on_c, 0, 58, 0
3, 1536, Note_on_c, 0, 57, 54
3, 1536, Note_on_c, 0, 65, 54
3, 1568, Control_c, 0, 64, 127
3, 1728, Note_on_c, 0, 48, 62
3, 1808, Note_on_c, 0, 65, 0
3, 1808, Note_on_c, 0, 57, 0
3, 2112, Note_on_c, 0, 48, 0
3, 2112, Note_on_c, 0, 59, 54
3, 2112, Note_on_c, 0, 65, 54
3, 2272, Control_c, 0, 64, 0
3, 2304, Note_on_c, 0, 65, 0
3, 2304, Note_on_c, 0, 59, 0
3, 2304, Note_on_c, 0, 58, 54
3, 2304, Note_on_c, 0, 64, 54
3, 2336, Control_c, 0, 64, 127
3, 2496, Note_on_c, 0, 48, 62
3, 2576, Note_on_c, 0, 64, 0
3, 2576, Note_on_c, 0, 58, 0
3, 2848, Control_c, 0, 64, 0
3, 2880, Note_on_c, 0, 48, 0
3, 2880, Note_on_c, 0, 60, 54
3, 2880, Note_on_c, 0, 64, 54
3, 3072, Note_on_c, 0, 64, 0
3, 3072, Note_on_c, 0, 60, 0
3, 3072, Note_on_c, 0, 57, 54
3, 3072, Note_on_c, 0, 60, 54
3, 3072, Note_on_c, 0, 65, 54
3, 3104, Control_c, 0, 64, 127
3, 3264, Note_on_c, 0, 65, 0
3, 3264, Note_on_c, 0, 48, 62
3, 3344, Note_on_c, 0, 60, 0
3, 3344, Note_on_c, 0, 57, 0
3, 3424, Control_c, 0, 64, 0
3, 3648, Note_on_c, 0, 48, 0
3, 3648, Note_on_c, 0, 57, 54
3, 3648, Note_on_c, 0, 60, 54
3, 3840, Note_on_c, 0, 60, 0
3, 3840, Note_on_c, 0, 57, 0
3, 3840, Note_on_c, 0, 52, 65
3, 3840, Note_on_c, 0, 57, 65
3, 3840, Note_on_c, 0, 61, 65
3, 3872, Control_c, 0, 64, 127
3, 4416, Note_on_c, 0, 45, 65
3, 4496, Note_on_c, 0, 61, 0
3, 4496, Note_on_c, 0, 52, 0
3, 4496, Note_on_c, 0, 57, 0
3, 4576, Control_c, 0, 64, 0
3, 4608, Note_on_c, 0, 45, 0
3, 4608, Note_on_c, 0, 54, 65
3, 4608, Note_on_c, 0, 57, 65
3, 4608, Note_on_c, 0, 60, 65
3, 4640, Control_c, 0, 64, 127
3, 5184, Note_on_c, 0, 60, 0
3, 5184, Note_on_c, 0, 57, 0
3, 5184, Note_on_c, 0, 54, 0
3, 5184, Note_on_c, 0, 42, 65
3, 5344, Control_c, 0, 64, 0
3, 5376, Note_on_c, 0, 42, 0
3, 5376, Note_on_c, 0, 55, 65
3, 5376, Note_on_c, 0, 60, 65
3, 5408, Control_c, 0, 64, 127
3, 5568, Note_on_c, 0, 60, 0
3, 5568, Note_on_c, 0, 55, 0
3, 5568, Note_on_c, 0, 55, 65
3, 5568, Note_on_c, 0, 60, 65
3, 5760, Note_on_c, 0, 60, 0
3, 5760, Note_on_c, 0, 55, 0
3, 5760, Note_on_c, 0, 54, 65
3, 5760, Note_on_c, 0, 64, 65
3, 5952, Note_on_c, 0, 64, 0
3, 5952, Note_on_c, 0, 54, 0
3, 5952, Note_on_c, 0, 54, 65
3, 5952, Note_on_c, 0, 64, 65
3, 6112, Control_c, 0, 64, 0
3, 6144, Note_on_c, 0, 64, 0
3, 6144, Note_on_c, 0, 54, 0
3, 6144, Note_on_c, 0, 55, 65
3, 6144, Note_on_c, 0, 59, 65
3, 6144, Note_on_c, 0, 65, 65
3, 6176, Control_c, 0, 64, 127
3, 6336, Note_on_c, 0, 65, 0
3, 6336, Note_on_c, 0, 59, 0
3, 6336, Note_on_c, 0, 55, 0
3, 6336, Note_on_c, 0, 55, 65
3, 6336, Note_on_c, 0, 59, 65
3, 6336, Note_on_c, 0, 65, 65
3, 6496, Control_c, 0, 64, 0
3, 6528, Note_on_c, 0, 65, 0
3, 6528, Note_on_c, 0, 59, 0
3, 6528, Note_on_c, 0, 55, 0
3, 6528, Note_on_c, 0, 60, 65
3, 6528, Note_on_c, 0, 64, 65
3, 6560, Control_c, 0, 64, 127
3, 6720, Note_on_c, 0, 64, 0
3, 6720, Note_on_c, 0, 60, 0
3, 6880, Control_c, 0, 64, 0
3, 6912, Note_on_c, 0, 58, 56
3, 6912, Note_on_c, 0, 60, 56
3, 6944, Control_c, 0, 64, 127
3, 7104, Note_on_c, 0, 48, 64
3, 7184, Note_on_c, 0, 60, 0
3, 7184, Note_on_c, 0, 58, 0
3, 7488, Note_on_c, 0, 48, 0
3, 7488, Note_on_c, 0, 58, 56
3, 7488, Note_on_c, 0, 64, 56
3, 7648, Control_c, 0, 64, 0
3, 7680, Note_on_c, 0, 64, 0
3, 7680, Note_on_c, 0, 58, 0
3, 7680, Note_on_c, 0, 57, 56
3, 7680, Note_on_c, 0, 65, 56
3, 7712, Control_c, 0, 64, 127
3, 7872, Note_on_c, 0, 48, 64
3, 7952, Note_on_c, 0, 65, 0
3, 7952, Note_on_c, 0, 57, 0
3, 8256, Note_on_c, 0, 48, 0
3, 8256, Note_on_c, 0, 59, 56
3, 8256, Note_on_c, 0, 65, 56
3, 8416, Control_c, 0, 64, 0
3, 8448, Note_on_c, 0, 65, 0
3, 8448, Note_on_c, 0, 59, 0
3, 8448, Note_on_c, 0, 58, 56
3, 8448, Note_on_c, 0, 64, 56
3, 8480, Control_c, 0, 64, 127
3, 8640, Note_on_c, 0, 48, 64
3, 8720, Note_on_c, 0, 64, 0
3, 8720, Note_on_c, 0, 58, 0
3, 8800, Control_c, 0, 64, 0
3, 9024, Note_on_c, 0, 48, 0
3, 9024, Note_on_c, 0, 60, 56
3, 9024, Note_on_c, 0, 64, 56
3, 9216, Note_on_c, 0, 64, 0
3, 9216, Note_on_c, 0, 60, 0
3, 9216, Control_c, 0, 64, 127
3, 9216, Note_on_c, 0, 57, 56
3, 9216, Note_on_c, 0, 60, 56
3, 9216, Note_on_c, 0, 65, 56
3, 9408, Note_on_c, 0, 48, 64
3, 9488, Note_on_c, 0, 65, 0
3, 9488, Note_on_c, 0, 57, 0
3, 9488, Note_on_c, 0, 60, 0
3, 9568, Control_c, 0, 64, 0
3, 9792, Note_on_c, 0, 48, 0
3, 9792, Note_on_c, 0, 57, 56
3, 9792, Note_on_c, 0, 60, 56
3, 9984, Note_on_c, 0, 60, 0
3, 9984, Note_on_c, 0, 57, 0
3, 9984, Control_c, 0, 64, 127
3, 9984, Note_on_c, 0, 52, 65
3, 9984, Note_on_c, 0, 57, 65
3, 9984, Note_on_c, 0, 61, 65
3, 10560, Note_on_c, 0, 45, 73
3, 10640, Note_on_c, 0, 61, 0
3, 10640, Note_on_c, 0, 52, 0
3, 10640, Note_on_c, 0, 57, 0
3, 10688, Control_c, 0, 64, 0
3, 10752, Note_on_c, 0, 45, 0
3, 10752, Note_on_c, 0, 54, 65
3, 10752, Note_on_c, 0, 57, 65
3, 10752, Note_on_c, 0, 60, 65
3, 10784, Control_c, 0, 64, 127
3, 11328, Note_on_c, 0, 42, 73
3, 11408, Note_on_c, 0, 60, 0
3, 11408, Note_on_c, 0, 54, 0
3, 11408, Note_on_c, 0, 57, 0
3, 11488, Control_c, 0, 64, 0
3, 11520, Note_on_c, 0, 42, 0
3, 11520, Note_on_c, 0, 55, 65
3, 11520, Note_on_c, 0, 60, 65
3, 11712, Note_on_c, 0, 60, 0
3, 11712, Note_on_c, 0, 55, 0
3, 11712, Note_on_c, 0, 55, 65
3, 11712, Note_on_c, 0, 60, 65
3, 11904, Note_on_c, 0, 60, 0
3, 11904, Note_on_c, 0, 55, 0
3, 11904, Note_on_c, 0, 54, 65
3, 11904, Note_on_c, 0, 64, 65
3, 12096, Note_on_c, 0, 64, 0
3, 12096, Note_on_c, 0, 54, 0
3, 12096, Note_on_c, 0, 54, 65
3, 12096, Note_on_c, 0, 64, 65
3, 12288, Note_on_c, 0, 64, 0
3, 12288, Note_on_c, 0, 54, 0
3, 12288, Note_on_c, 0, 55, 65
3, 12288, Note_on_c, 0, 59, 65
3, 12288, Note_on_c, 0, 65, 65
3, 12480, Note_on_c, 0, 65, 0
3, 12480, Note_on_c, 0, 59, 0
3, 12480, Note_on_c, 0, 55, 0
3, 12480, Note_on_c, 0, 55, 65
3, 12480, Note_on_c, 0, 59, 65
3, 12480, Note_on_c, 0, 65, 65
3, 12672, Note_on_c, 0, 65, 0
3, 12672, Note_on_c, 0, 59, 0
3, 12672, Note_on_c, 0, 55, 0
3, 12672, Note_on_c, 0, 60, 65
3, 12672, Note_on_c, 0, 64, 65
3, 13056, Note_on_c, 0, 64, 0
3, 13056, Note_on_c, 0, 60, 0
3, 13056, Note_on_c, 0, 55, 81
3, 13184, Note_on_c, 0, 55, 0
3, 13248, Note_on_c, 0, 55, 75
3, 13376, Note_on_c, 0, 55, 0
3, 13440, Note_on_c, 0, 60, 80
3, 13728, Note_on_c, 0, 60, 0
3, 13824, Note_on_c, 0, 59, 74
3, 14016, Note_on_c, 0, 55, 65
3, 14096, Note_on_c, 0, 59, 0
3, 14208, Note_on_c, 0, 60, 74
3, 14288, Note_on_c, 0, 55, 0
3, 14400, Note_on_c, 0, 60, 0
3, 14592, Note_on_c, 0, 50, 80
3, 14688, Note_on_c, 0, 52, 75
3, 14768, Note_on_c, 0, 50, 0
3, 14784, Note_on_c, 0, 53, 80
3, 14864, Note_on_c, 0, 52, 0
3, 14880, Note_on_c, 0, 55, 75
3, 14960, Note_on_c, 0, 53, 0
3, 14976, Note_on_c, 0, 53, 87
3, 15056, Note_on_c, 0, 55, 0
3, 15072, Note_on_c, 0, 52, 75
3, 15152, Note_on_c, 0, 53, 0
3, 15168, Note_on_c, 0, 50, 78
3, 15248, Note_on_c, 0, 52, 0
3, 15264, Note_on_c, 0, 48, 75
3, 15344, Note_on_c, 0, 50, 0
3, 15360, Note_on_c, 0, 48, 0
3, 15360, Note_on_c, 0, 47, 65
3, 15552, Note_on_c, 0, 47, 0
3, 15552, Note_on_c, 0, 43, 65
3, 15744, Note_on_c, 0, 43, 0
3, 15744, Note_on_c, 0, 48, 78
3, 16128, Note_on_c, 0, 48, 0
3, 16128, Note_on_c, 0, 62, 65
3, 16320, Note_on_c, 0, 62, 0
3, 16320, Note_on_c, 0, 62, 65
3, 16512, Note_on_c, 0, 62, 0
3, 16512, Note_on_c, 0, 57, 65
3, 16512, Note_on_c, 0, 60, 65
3, 16896, Note_on_c, 0, 60, 0
3, 16896, Note_on_c, 0, 57, 0
3, 16896, Note_on_c, 0, 53, 65
3, 16896, Note_on_c, 0, 59, 65
3, 17280, Note_on_c, 0, 59, 0
3, 17280, Note_on_c, 0, 53, 0
3, 17280, Note_on_c, 0, 52, 65
3, 17280, Note_on_c, 0, 59, 65
3, 17664, Note_on_c, 0, 59, 0
3, 17664, Note_on_c, 0, 52, 0
3, 17664, Note_on_c, 0, 57, 64
3, 17856, Note_on_c, 0, 55, 59
3, 17936, Note_on_c, 0, 57, 0
3, 18048, Note_on_c, 0, 54, 54
3, 18128, Note_on_c, 0, 55, 0
3, 18240, Note_on_c, 0, 50, 47
3, 18320, Note_on_c, 0, 54, 0
3, 18432, Note_on_c, 0, 50, 0
3, 18432, Note_on_c, 0, 53, 64
3, 18624, Note_on_c, 0, 43, 52
3, 18704, Note_on_c, 0, 53, 0
3, 18816, Note_on_c, 0, 52, 60
3, 18896, Note_on_c, 0, 43, 0
3, 19008, Note_on_c, 0, 50, 54
3, 19088, Note_on_c, 0, 52, 0
3, 19200, Note_on_c, 0, 50, 0
3, 19200, Note_on_c, 0, 36, 53
3, 19232, Control_c, 0, 64, 127
3, 19296, Note_on_c, 0, 43, 47
3, 19376, Note_on_c, 0, 36, 0
3, 19392, Note_on_c, 0, 36, 53
3, 19472, Note_on_c, 0, 43, 0
3, 19488, Note_on_c, 0, 43, 47
3, 19568, Note_on_c, 0, 36, 0
3, 19584, Note_on_c, 0, 36, 53
3, 19664, Note_on_c, 0, 43, 0
3, 19680, Note_on_c, 0, 43, 47
3, 19760, Note_on_c, 0, 36, 0
3, 19776, Note_on_c, 0, 36, 53
3, 19856, Note_on_c, 0, 43, 0
3, 19872, Note_on_c, 0, 43, 47
3, 19952, Note_on_c, 0, 36, 0
3, 19968, Note_on_c, 0, 43, 0
3, 19968, Note_on_c, 0, 36, 53
3, 20064, Note_on_c, 0, 43, 47
3, 20144, Note_on_c, 0, 36, 0
3, 20160, Note_on_c, 0, 36, 53
3, 20240, Note_on_c, 0, 43, 0
3, 20256, Note_on_c, 0, 43, 47
3, 20336, Note_on_c, 0, 36, 0
3, 20352, Note_on_c, 0, 36, 53
3, 20432, Note_on_c, 0, 43, 0
3, 20448, Note_on_c, 0, 43, 47
3, 20528, Note_on_c, 0, 36, 0
3, 20544, Note_on_c, 0, 36, 53
3, 20624, Note_on_c, 0, 43, 0
3, 20640, Note_on_c, 0, 43, 47
3, 20720, Note_on_c, 0, 36, 0
3, 20736, Note_on_c, 0, 43, 0
3, 20736, Note_on_c, 0, 36, 53
3, 20832, Note_on_c, 0, 43, 47
3, 20912, Note_on_c, 0, 36, 0
3, 20928, Note_on_c, 0, 36, 53
3, 21008, Note_on_c, 0, 43, 0
3, 21024, Note_on_c, 0, 43, 47
3, 21104, Note_on_c, 0, 36, 0
3, 21120, Note_on_c, 0, 36, 53
3, 21200, Note_on_c, 0, 43, 0
3, 21472, Control_c, 0, 64, 0
3, 21504, Note_on_c, 0, 36, 0
3, 21504, Control_c, 0, 64, 127
3, 21504, Note_on_c, 0, 56, 54
3, 22240, Control_c, 0, 64, 0
3, 22272, Note_on_c, 0, 56, 0
3, 22272, Note_on_c, 0, 57, 56
3, 22304, Control_c, 0, 64, 127
3, 23008, Control_c, 0, 64, 0
3, 23040, Note_on_c, 0, 57, 0
3, 23040, Note_on_c, 0, 58, 50
3, 23040, Note_on_c, 0, 60, 50
3, 23040, Control_c, 0, 64, 127
3, 23232, Note_on_c, 0, 60, 0
3, 23232, Note_on_c, 0, 48, 50
3, 23312, Note_on_c, 0, 58, 0
3, 23616, Note_on_c, 0, 58, 60
3, 23616, Note_on_c, 0, 64, 50
3, 23696, Note_on_c, 0, 48, 0
3, 23776, Control_c, 0, 64, 0
3, 23808, Note_on_c, 0, 64, 0
3, 23808, Note_on_c, 0, 58, 0
3, 23808, Note_on_c, 0, 57, 50
3, 23808, Note_on_c, 0, 60, 50
3, 23808, Note_on_c, 0, 65, 50
3, 23808, Control_c, 0, 64, 127
3, 24000, Note_on_c, 0, 65, 0
3, 24000, Note_on_c, 0, 60, 0
3, 24000, Note_on_c, 0, 48, 50
3, 24080, Note_on_c, 0, 57, 0
3, 24384, Note_on_c, 0, 62, 50
3, 24464, Note_on_c, 0, 48, 0
3, 24544, Control_c, 0, 64, 0
3, 24576, Note_on_c, 0, 62, 0
3, 24576, Note_on_c, 0, 64, 50
3, 24576, Note_on_c, 0, 70, 50
3, 24608, Control_c, 0, 64, 127
3, 24924, Note_on_c, 0, 70, 0
3, 24928, Control_c, 0, 64, 0
3, 24960, Note_on_c, 0, 64, 0
3, 24960, Note_on_c, 0, 60, 60
3, 25056, Note_on_c, 0, 62, 60
3, 25136, Note_on_c, 0, 60, 0
3, 25152, Note_on_c, 0, 63, 64
3, 25232, Note_on_c, 0, 62, 0
3, 25248, Note_on_c, 0, 64, 67
3, 25328, Note_on_c, 0, 63, 0
3, 25344, Note_on_c, 0, 64, 0
3, 25344, Note_on_c, 0, 65, 70
3, 25344, Control_c, 0, 64, 127
3, 25692, Note_on_c, 0, 65, 0
3, 25696, Control_c, 0, 64, 0
3, 25728, Note_on_c, 0, 57, 60
3, 25824, Note_on_c, 0, 58, 65
3, 25904, Note_on_c, 0, 57, 0
3, 25920, Note_on_c, 0, 59, 65
3, 26000, Note_on_c, 0, 58, 0
3, 26016, Note_on_c, 0, 60, 67
3, 26096, Note_on_c, 0, 59, 0
3, 26112, Note_on_c, 0, 50, 77
3, 26144, Control_c, 0, 64, 127
3, 26268, Note_on_c, 0, 50, 0
3, 26268, Note_on_c, 0, 60, 0
3, 26304, Note_on_c, 0, 50, 65
3, 26304, Note_on_c, 0, 60, 65
3, 26652, Note_on_c, 0, 60, 0
3, 26652, Note_on_c, 0, 50, 0
3, 26688, Note_on_c, 0, 50, 65
3, 26688, Note_on_c, 0, 60, 65
3, 26848, Control_c, 0, 64, 0
3, 26880, Note_on_c, 0, 60, 0
3, 26880, Note_on_c, 0, 50, 0
3, 26880, Note_on_c, 0, 55, 83
3, 26880, Note_on_c, 0, 59, 83
3, 26976, Note_on_c, 0, 60, 75
3, 27056, Note_on_c, 0, 59, 0
3, 27056, Note_on_c, 0, 55, 0
3, 27072, Note_on_c, 0, 61, 75
3, 27152, Note_on_c, 0, 60, 0
3, 27168, Note_on_c, 0, 62, 80
3, 27248, Note_on_c, 0, 61, 0
3, 27264, Note_on_c, 0, 64, 87
3, 27344, Note_on_c, 0, 62, 0
3, 27360, Note_on_c, 0, 62, 78
3, 27440, Note_on_c, 0, 64, 0
3, 27456, Note_on_c, 0, 59, 75
3, 27536, Note_on_c, 0, 62, 0
3, 27552, Note_on_c, 0, 55, 75
3, 27632, Note_on_c, 0, 59, 0
3, 27648, Note_on_c, 0, 55, 0
3, 27648, Control_c, 0, 64, 127
3, 27648, Note_on_c, 0, 58, 65
3, 27840, Note_on_c, 0, 48, 65
3, 27920, Note_on_c, 0, 58, 0
3, 28224, Note_on_c, 0, 48, 0
3, 28224, Note_on_c, 0, 58, 65
3, 28384, Control_c, 0, 64, 0
3, 28416, Note_on_c, 0, 58, 0
3, 28416, Note_on_c, 0, 57, 82
3, 28512, Note_on_c, 0, 58, 75
3, 28592, Note_on_c, 0, 57, 0
3, 28608, Note_on_c, 0, 59, 75
3, 28688, Note_on_c, 0, 58, 0
3, 28704, Note_on_c, 0, 60, 80
3, 28784, Note_on_c, 0, 59, 0
3, 28800, Note_on_c, 0, 62, 87
3, 28880, Note_on_c, 0, 60, 0
3, 28896, Note_on_c, 0, 60, 78
3, 28976, Note_on_c, 0, 62, 0
3, 28992, Note_on_c, 0, 57, 75
3, 29072, Note_on_c, 0, 60, 0
3, 29088, Note_on_c, 0, 55, 75
3, 29168, Note_on_c, 0, 57, 0
3, 29184, Note_on_c, 0, 55, 0
3, 29184, Note_on_c, 0, 53, 65
3, 29216, Control_c, 0, 64, 127
3, 29352, Note_on_c, 0, 53, 0
3, 29376, Note_on_c, 0, 53, 65
3, 29568, Note_on_c, 0, 46, 84
3, 29928, Note_on_c, 0, 53, 0
3, 29952, Note_on_c, 0, 45, 65
3, 29952, Note_on_c, 0, 53, 65
3, 30032, Note_on_c, 0, 46, 0
3, 30312, Note_on_c, 0, 53, 0
3, 30336, Note_on_c, 0, 43, 65
3, 30336, Note_on_c, 0, 53, 65
3, 30416, Note_on_c, 0, 45, 0
3, 30688, Control_c, 0, 64, 0
3, 30696, Note_on_c, 0, 53, 0
3, 30720, Note_on_c, 0, 43, 0
3, 30720, Note_on_c, 0, 48, 32
3, 30720, Note_on_c, 0, 57, 32
3, 30888, Note_on_c, 0, 57, 0
3, 30888, Note_on_c, 0, 48, 0
3, 30912, Note_on_c, 0, 48, 32
3, 30912, Note_on_c, 0, 57, 32
3, 31104, Note_on_c, 0, 57, 0
3, 31104, Note_on_c, 0, 48, 0
3, 31104, Note_on_c, 0, 56, 32
3, 31104, Note_on_c, 0, 59, 32
3, 31272, Note_on_c, 0, 59, 0
3, 31272, Note_on_c, 0, 56, 0
3, 31296, Note_on_c, 0, 56, 32
3, 31296, Note_on_c, 0, 59, 32
3, 31488, Note_on_c, 0, 59, 0
3, 31488, Note_on_c, 0, 56, 0
3, 31488, Control_c, 0, 64, 127
3, 31488, Note_on_c, 0, 55, 32
3, 31488, Note_on_c, 0, 58, 32
3, 31680, Note_on_c, 0, 58, 0
3, 31680, Note_on_c, 0, 55, 0
3, 31680, Note_on_c, 0, 48, 32
3, 31872, Note_on_c, 0, 48, 0
3, 31872, Note_on_c, 0, 41, 32
3, 31872, Note_on_c, 0, 48, 32
3, 32224, Control_c, 0, 64, 0
3, 32256, Note_on_c, 0, 48, 0
3, 32256, Note_on_c, 0, 41, 0
3, 32256, Note_on_c, 0, 55, 81
3, 32384, Note_on_c, 0, 55, 0
3, 32448, Note_on_c, 0, 55, 82
3, 32576, Note_on_c, 0, 55, 0
3, 32640, Note_on_c, 0, 60, 84
3, 32928, Note_on_c, 0, 60, 0
3, 33024, Note_on_c, 0, 59, 65
3, 33216, Note_on_c, 0, 55, 65
3, 33296, Note_on_c, 0, 59, 0
3, 33408, Note_on_c, 0, 60, 65
3, 33488, Note_on_c, 0, 55, 0
3, 33600, Note_on_c, 0, 60, 0
3, 33792, Note_on_c, 0, 50, 82
3, 33888, Note_on_c, 0, 52, 75
3, 33968, Note_on_c, 0, 50, 0
3, 33984, Note_on_c, 0, 53, 75
3, 34064, Note_on_c, 0, 52, 0
3, 34080, Note_on_c, 0, 55, 82
3, 34160, Note_on_c, 0, 53, 0
3, 34176, Note_on_c, 0, 53, 90
3, 34256, Note_on_c, 0, 55, 0
3, 34272, Note_on_c, 0, 52, 82
3, 34352, Note_on_c, 0, 53, 0
3, 34368, Note_on_c, 0, 50, 75
3, 34448, Note_on_c, 0, 52, 0
3, 34464, Note_on_c, 0, 48, 67
3, 34544, Note_on_c, 0, 50, 0
3, 34560, Note_on_c, 0, 48, 0
3, 34560, Note_on_c, 0, 47, 75
3, 34752, Note_on_c, 0, 47, 0
3, 34752, Note_on_c, 0, 43, 65
3, 34944, Note_on_c, 0, 43, 0
3, 34944, Note_on_c, 0, 48, 74
3, 35328, Note_on_c, 0, 48, 0
3, 35328, Note_on_c, 0, 62, 65
3, 35520, Note_on_c, 0, 62, 0
3, 35520, Note_on_c, 0, 62, 65
3, 35712, Note_on_c, 0, 62, 0
3, 35712, Note_on_c, 0, 57, 65
3, 35712, Note_on_c, 0, 60, 65
3, 36096, Note_on_c, 0, 60, 0
3, 36096, Note_on_c, 0, 57, 0
3, 36096, Note_on_c, 0, 53, 65
3, 36096, Note_on_c, 0, 59, 65
3, 36480, Note_on_c, 0, 59, 0
3, 36480, Note_on_c, 0, 53, 0
3, 36480, Note_on_c, 0, 52, 65
3, 36480, Note_on_c, 0, 59, 65
3, 36864, Note_on_c, 0, 59, 0
3, 36864, Note_on_c, 0, 52, 0
3, 36864, Note_on_c, 0, 57, 52
3, 37056, Note_on_c, 0, 55, 52
3, 37136, Note_on_c, 0, 57, 0
3, 37248, Note_on_c, 0, 54, 52
3, 37328, Note_on_c, 0, 55, 0
3, 37440, Note_on_c, 0, 50, 52
3, 37520, Note_on_c, 0, 54, 0
3, 37632, Note_on_c, 0, 50, 0
3, 37632, Note_on_c, 0, 53, 62
3, 37824, Note_on_c, 0, 43, 62
3, 37904, Note_on_c, 0, 53, 0
3, 38016, Note_on_c, 0, 52, 62
3, 38096, Note_on_c, 0, 43, 0
3, 38208, Note_on_c, 0, 50, 62
3, 38288, Note_on_c, 0, 52, 0
3, 38400, Note_on_c, 0, 50, 0
3, 38400, Note_on_c, 0, 36, 58
3, 38432, Control_c, 0, 64, 127
3, 38496, Note_on_c, 0, 43, 52
3, 38576, Note_on_c, 0, 36, 0
3, 38592, Note_on_c, 0, 36, 58
3, 38672, Note_on_c, 0, 43, 0
3, 38688, Note_on_c, 0, 43, 52
3, 38768, Note_on_c, 0, 36, 0
3, 38784, Note_on_c, 0, 36, 58
3, 38864, Note_on_c, 0, 43, 0
3, 38880, Note_on_c, 0, 43, 52
3, 38960, Note_on_c, 0, 36, 0
3, 38976, Note_on_c, 0, 36, 58
3, 39056, Note_on_c, 0, 43, 0
3, 39072, Note_on_c, 0, 43, 52
3, 39152, Note_on_c, 0, 36, 0
3, 39168, Note_on_c, 0, 43, 0
3, 39168, Note_on_c, 0, 36, 58
3, 39264, Note_on_c, 0, 43, 52
3, 39344, Note_on_c, 0, 36, 0
3, 39360, Note_on_c, 0, 36, 58
3, 39440, Note_on_c, 0, 43, 0
3, 39456, Note_on_c, 0, 43, 52
3, 39536, Note_on_c, 0, 36, 0
3, 39552, Note_on_c, 0, 36, 58
3, 39632, Note_on_c, 0, 43, 0
3, 39648, Note_on_c, 0, 43, 52
3, 39728, Note_on_c, 0, 36, 0
3, 39744, Note_on_c, 0, 36, 58
3, 39824, Note_on_c, 0, 43, 0
3, 39840, Note_on_c, 0, 43, 52
3, 39920, Note_on_c, 0, 36, 0
3, 39936, Note_on_c, 0, 43, 0
3, 39936, Note_on_c, 0, 36, 58
3, 40032, Note_on_c, 0, 43, 52
3, 40112, Note_on_c, 0, 36, 0
3, 40128, Note_on_c, 0, 36, 58
3, 40208, Note_on_c, 0, 43, 0
3, 40224, Note_on_c, 0, 43, 52
3, 40304, Note_on_c, 0, 36, 0
3, 40320, Note_on_c, 0, 36, 58
3, 40400, Note_on_c, 0, 43, 0
3, 40672, Control_c, 0, 64, 0
3, 40704, Note_on_c, 0, 36, 0
3, 40704, Control_c, 0, 64, 127
3, 40704, Note_on_c, 0, 56, 54
3, 41440, Control_c, 0, 64, 0
3, 41472, Note_on_c, 0, 56, 0
3, 41472, Note_on_c, 0, 57, 56
3, 41504, Control_c, 0, 64, 127
3, 42208, Control_c, 0, 64, 0
3, 42240, Note_on_c, 0, 57, 0
3, 42240, Control_c, 0, 64, 127
3, 42240, Note_on_c, 0, 58, 52
3, 42240, Note_on_c, 0, 60, 52
3, 42432, Note_on_c, 0, 60, 0
3, 42432, Note_on_c, 0, 48, 52
3, 42512, Note_on_c, 0, 58, 0
3, 42816, Note_on_c, 0, 58, 62
3, 42816, Note_on_c, 0, 64, 52
3, 42896, Note_on_c, 0, 48, 0
3, 42976, Control_c, 0, 64, 0
3, 43008, Note_on_c, 0, 64, 0
3, 43008, Note_on_c, 0, 58, 0
3, 43008, Control_c, 0, 64, 127
3, 43008, Note_on_c, 0, 57, 52
3, 43008, Note_on_c, 0, 60, 52
3, 43008, Note_on_c, 0, 65, 52
3, 43200, Note_on_c, 0, 65, 0
3, 43200, Note_on_c, 0, 60, 0
3, 43200, Note_on_c, 0, 48, 52
3, 43280, Note_on_c, 0, 57, 0
3, 43584, Note_on_c, 0, 62, 52
3, 43664, Note_on_c, 0, 48, 0
3, 43744, Control_c, 0, 64, 0
3, 43776, Note_on_c, 0, 62, 0
3, 43776, Note_on_c, 0, 64, 52
3, 43776, Note_on_c, 0, 70, 52
3, 43808, Control_c, 0, 64, 127
3, 44110, Note_on_c, 0, 70, 0
3, 44128, Control_c, 0, 64, 0
3, 44160, Note_on_c, 0, 64, 0
3, 44160, Note_on_c, 0, 60, 62
3, 44256, Note_on_c, 0, 62, 62
3, 44336, Note_on_c, 0, 60, 0
3, 44352, Note_on_c, 0, 63, 62
3, 44432, Note_on_c, 0, 62, 0
3, 44448, Note_on_c, 0, 64, 65
3, 44528, Note_on_c, 0, 63, 0
3, 44544, Note_on_c, 0, 64, 0
3, 44544, Control_c, 0, 64, 127
3, 44544, Note_on_c, 0, 65, 60
3, 44896, Control_c, 0, 64, 0
3, 44920, Note_on_c, 0, 65, 0
3, 44928, Note_on_c, 0, 57, 62
3, 45024, Note_on_c, 0, 58, 62
3, 45104, Note_on_c, 0, 57, 0
3, 45120, Note_on_c, 0, 59, 67
3, 45200, Note_on_c, 0, 58, 0
3, 45216, Note_on_c, 0, 60, 60
3, 45296, Note_on_c, 0, 59, 0
3, 45312, Note_on_c, 0, 50, 65
3, 45344, Control_c, 0, 64, 127
3, 45480, Note_on_c, 0, 50, 0
3, 45480, Note_on_c, 0, 60, 0
3, 45504, Note_on_c, 0, 50, 65
3, 45504, Note_on_c, 0, 60, 65
3, 45864, Note_on_c, 0, 60, 0
3, 45864, Note_on_c, 0, 50, 0
3, 45888, Note_on_c, 0, 50, 65
3, 45888, Note_on_c, 0, 60, 65
3, 46048, Control_c, 0, 64, 0
3, 46080, Note_on_c, 0, 60, 0
3, 46080, Note_on_c, 0, 50, 0
3, 46080, Note_on_c, 0, 55, 78
3, 46080, Note_on_c, 0, 59, 78
3, 46176, Note_on_c, 0, 60, 75
3, 46256, Note_on_c, 0, 59, 0
3, 46256, Note_on_c, 0, 55, 0
3, 46272, Note_on_c, 0, 61, 75
3, 46352, Note_on_c, 0, 60, 0
3, 46368, Note_on_c, 0, 62, 80
3, 46448, Note_on_c, 0, 61, 0
3, 46464, Note_on_c, 0, 64, 85
3, 46544, Note_on_c, 0, 62, 0
3, 46560, Note_on_c, 0, 62, 80
3, 46640, Note_on_c, 0, 64, 0
3, 46656, Note_on_c, 0, 59, 75
3, 46736, Note_on_c, 0, 62, 0
3, 46752, Note_on_c, 0, 55, 75
3, 46832, Note_on_c, 0, 59, 0
3, 46848, Note_on_c, 0, 55, 0
3, 46848, Control_c, 0, 64, 127
3, 46848, Note_on_c, 0, 58, 65
3, 47040, Note_on_c, 0, 48, 65
3, 47120, Note_on_c, 0, 58, 0
3, 47424, Note_on_c, 0, 48, 0
3, 47424, Note_on_c, 0, 58, 65
3, 47584, Control_c, 0, 64, 0
3, 47616, Note_on_c, 0, 58, 0
3, 47616, Note_on_c, 0, 57, 78
3, 47712, Note_on_c, 0, 58, 75
3, 47792, Note_on_c, 0, 57, 0
3, 47808, Note_on_c, 0, 59, 75
3, 47888, Note_on_c, 0, 58, 0
3, 47904, Note_on_c, 0, 60, 80
3, 47984, Note_on_c, 0, 59, 0
3, 48000, Note_on_c, 0, 62, 90
3, 48080, Note_on_c, 0, 60, 0
3, 48096, Note_on_c, 0, 60, 82
3, 48176, Note_on_c, 0, 62, 0
3, 48192, Note_on_c, 0, 57, 75
3, 48272, Note_on_c, 0, 60, 0
3, 48288, Note_on_c, 0, 55, 75
3, 48368, Note_on_c, 0, 57, 0
3, 48384, Note_on_c, 0, 55, 0
3, 48384, Note_on_c, 0, 53, 65
3, 48416, Control_c, 0, 64, 127
3, 48552, Note_on_c, 0, 53, 0
3, 48576, Note_on_c, 0, 53, 65
3, 48768, Note_on_c, 0, 46, 84
3, 49128, Note_on_c, 0, 53, 0
3, 49152, Note_on_c, 0, 45, 65
3, 49152, Note_on_c, 0, 53, 65
3, 49232, Note_on_c, 0, 46, 0
3, 49512, Note_on_c, 0, 53, 0
3, 49536, Note_on_c, 0, 43, 65
3, 49536, Note_on_c, 0, 53, 65
3, 49616, Note_on_c, 0, 45, 0
3, 49888, Control_c, 0, 64, 0
3, 49920, Note_on_c, 0, 53, 0
3, 49920, Note_on_c, 0, 43, 0
3, 49920, Note_on_c, 0, 48, 32
3, 49920, Note_on_c, 0, 57, 32
3, 50088, Note_on_c, 0, 57, 0
3, 50088, Note_on_c, 0, 48, 0
3, 50112, Note_on_c, 0, 48, 32
3, 50112, Note_on_c, 0, 57, 32
3, 50304, Note_on_c, 0, 57, 0
3, 50304, Note_on_c, 0, 48, 0
3, 50304, Note_on_c, 0, 56, 32
3, 50304, Note_on_c, 0, 59, 32
3, 50472, Note_on_c, 0, 59, 0
3, 50472, Note_on_c, 0, 56, 0
3, 50496, Note_on_c, 0, 56, 32
3, 50496, Note_on_c, 0, 59, 32
3, 50688, Note_on_c, 0, 59, 0
3, 50688, Note_on_c, 0, 56, 0
3, 50688, Control_c, 0, 64, 127
3, 50688, Note_on_c, 0, 55, 32
3, 50688, Note_on_c, 0, 58, 32
3, 50880, Note_on_c, 0, 58, 0
3, 50880, Note_on_c, 0, 55, 0
3, 50880, Note_on_c, 0, 48, 32
3, 51072, Note_on_c, 0, 48, 0
3, 51072, Note_on_c, 0, 41, 32
3, 51072, Note_on_c, 0, 48, 32
3, 51424, Control_c, 0, 64, 0
3, 51456, Note_on_c, 0, 48, 0
3, 51456, Note_on_c, 0, 41, 0
3, 51456, End_track
0, 0, End_of_file
