0, 0, Header, 1, 3, 384
1, 0, Start_track
1, 0, Title_t, "Album des Enfants 2nd serie"
1, 0, Title_t, "Opus 126 No.12 Valse Mignonne"
1, 0, Text_t, "Cecile Chaminade "
1, 0, Text_t, "\012"
1, 0, Time_signature, 3, 2, 24, 8
1, 0, Key_signature, 0, "major"
1, 0, Tempo, 352920
1, 20736, Tempo, 418760
1, 23424, Tempo, 352920
1, 44928, Tempo, 444412
1, 46080, Tempo, 1333333
1, 46464, Tempo, 353419
1, 54336, Tempo, 445203
1, 56448, Tempo, 351824
1, 62016, Tempo, 441924
1, 64896, Tempo, 351824
1, 72768, Tempo, 441924
1, 74880, Tempo, 351824
1, 74880, End_track
2, 0, Start_track
2, 0, Title_t, "Piano RH"
2, 0, Control_c, 0, 7, 105
2, 0, Control_c, 0, 10, 79
2, 0, Control_c, 0, 91, 100
2, 28, Control_c, 0, 121, 0
2, 384, Note_on_c, 0, 62, 76
2, 576, Note_on_c, 0, 65, 76
2, 685, Note_on_c, 0, 62, 0
2, 768, Note_on_c, 0, 62, 76
2, 873, Note_on_c, 0, 65, 0
2, 960, Note_on_c, 0, 65, 76
2, 1020, Note_on_c, 0, 62, 0
2, 1152, Note_on_c, 0, 65, 0
2, 1152, Note_on_c, 0, 67, 88
2, 1536, Note_on_c, 0, 67, 0
2, 1728, Note_on_c, 0, 69, 76
2, 1920, Note_on_c, 0, 65, 76
2, 2112, Note_on_c, 0, 69, 0
2, 2116, Note_on_c, 0, 65, 0
2, 2304, Note_on_c, 0, 67, 88
2, 2688, Note_on_c, 0, 67, 0
2, 2880, Note_on_c, 0, 69, 76
2, 3072, Note_on_c, 0, 65, 76
2, 3254, Note_on_c, 0, 65, 0
2, 3264, Note_on_c, 0, 69, 0
2, 3456, Note_on_c, 0, 67, 76
2, 3648, Note_on_c, 0, 74, 76
2, 3831, Note_on_c, 0, 74, 0
2, 3840, Note_on_c, 0, 67, 0
2, 3840, Note_on_c, 0, 74, 76
2, 4022, Note_on_c, 0, 74, 0
2, 4992, Note_on_c, 0, 62, 76
2, 5184, Note_on_c, 0, 65, 76
2, 5352, Note_on_c, 0, 62, 0
2, 5376, Note_on_c, 0, 62, 76
2, 5495, Note_on_c, 0, 65, 0
2, 5568, Note_on_c, 0, 65, 76
2, 5736, Note_on_c, 0, 62, 0
2, 5760, Note_on_c, 0, 67, 88
2, 5767, Note_on_c, 0, 65, 0
2, 6336, Note_on_c, 0, 69, 76
2, 6417, Note_on_c, 0, 67, 0
2, 6528, Note_on_c, 0, 65, 76
2, 6647, Note_on_c, 0, 69, 0
2, 6724, Note_on_c, 0, 65, 0
2, 6912, Note_on_c, 0, 67, 88
2, 7488, Note_on_c, 0, 69, 76
2, 7590, Note_on_c, 0, 67, 0
2, 7680, Note_on_c, 0, 65, 76
2, 7872, Note_on_c, 0, 69, 0
2, 8064, Note_on_c, 0, 65, 0
2, 8064, Note_on_c, 0, 67, 76
2, 8256, Note_on_c, 0, 75, 76
2, 8351, Note_on_c, 0, 67, 0
2, 8428, Note_on_c, 0, 75, 0
2, 8448, Note_on_c, 0, 75, 76
2, 8637, Note_on_c, 0, 75, 0
2, 9600, Note_on_c, 0, 74, 76
2, 9792, Note_on_c, 0, 72, 76
2, 9929, Note_on_c, 0, 74, 0
2, 9984, Note_on_c, 0, 70, 76
2, 10117, Note_on_c, 0, 72, 0
2, 10176, Note_on_c, 0, 69, 76
2, 10278, Note_on_c, 0, 70, 0
2, 10368, Note_on_c, 0, 72, 88
2, 10375, Note_on_c, 0, 69, 0
2, 10944, Note_on_c, 0, 70, 76
2, 11011, Note_on_c, 0, 72, 0
2, 11136, Note_on_c, 0, 74, 76
2, 11192, Note_on_c, 0, 70, 0
2, 11332, Note_on_c, 0, 74, 0
2, 11904, Note_on_c, 0, 70, 76
2, 12096, Note_on_c, 0, 69, 76
2, 12163, Note_on_c, 0, 70, 0
2, 12288, Note_on_c, 0, 67, 76
2, 12393, Note_on_c, 0, 69, 0
2, 12480, Note_on_c, 0, 66, 76
2, 12575, Note_on_c, 0, 67, 0
2, 12672, Note_on_c, 0, 66, 0
2, 12672, Note_on_c, 0, 69, 88
2, 13248, Note_on_c, 0, 67, 76
2, 13350, Note_on_c, 0, 69, 0
2, 13440, Note_on_c, 0, 70, 76
2, 13517, Note_on_c, 0, 67, 0
2, 13643, Note_on_c, 0, 70, 0
2, 14208, Note_on_c, 0, 69, 76
2, 14400, Note_on_c, 0, 67, 76
2, 14481, Note_on_c, 0, 69, 0
2, 14592, Note_on_c, 0, 65, 76
2, 14662, Note_on_c, 0, 67, 0
2, 14784, Note_on_c, 0, 64, 76
2, 14851, Note_on_c, 0, 65, 0
2, 14976, Note_on_c, 0, 64, 0
2, 14976, Note_on_c, 0, 72, 95
2, 15552, Note_on_c, 0, 69, 83
2, 15619, Note_on_c, 0, 72, 0
2, 15744, Note_on_c, 0, 65, 83
2, 15835, Note_on_c, 0, 69, 0
2, 15933, Note_on_c, 0, 65, 0
2, 16128, Note_on_c, 0, 74, 97
2, 16704, Note_on_c, 0, 69, 85
2, 16862, Note_on_c, 0, 74, 0
2, 16896, Note_on_c, 0, 65, 85
2, 17001, Note_on_c, 0, 69, 0
2, 17099, Note_on_c, 0, 65, 0
2, 17280, Note_on_c, 0, 81, 97
2, 17856, Note_on_c, 0, 77, 94
2, 17944, Note_on_c, 0, 81, 0
2, 18048, Note_on_c, 0, 74, 96
2, 18139, Note_on_c, 0, 77, 0
2, 18251, Note_on_c, 0, 74, 0
2, 18432, Note_on_c, 0, 72, 96
2, 19008, Note_on_c, 0, 70, 86
2, 19131, Note_on_c, 0, 72, 0
2, 19200, Note_on_c, 0, 67, 76
2, 19312, Note_on_c, 0, 70, 0
2, 19403, Note_on_c, 0, 67, 0
2, 19584, Note_on_c, 0, 65, 88
2, 20160, Note_on_c, 0, 63, 76
2, 20255, Note_on_c, 0, 65, 0
2, 20352, Note_on_c, 0, 57, 76
2, 20436, Note_on_c, 0, 63, 0
2, 20555, Note_on_c, 0, 57, 0
2, 20736, Note_on_c, 0, 65, 78
2, 21312, Note_on_c, 0, 63, 61
2, 21463, Note_on_c, 0, 65, 0
2, 21504, Note_on_c, 0, 58, 61
2, 21588, Note_on_c, 0, 63, 0
2, 21700, Note_on_c, 0, 58, 0
2, 21888, Note_on_c, 0, 65, 70
2, 22464, Note_on_c, 0, 63, 60
2, 22601, Note_on_c, 0, 65, 0
2, 22656, Note_on_c, 0, 59, 60
2, 22761, Note_on_c, 0, 63, 0
2, 22852, Note_on_c, 0, 59, 0
2, 23040, Note_on_c, 0, 60, 60
2, 23424, Note_on_c, 0, 60, 0
2, 23424, Note_on_c, 0, 62, 60
2, 23616, Note_on_c, 0, 65, 60
2, 23704, Note_on_c, 0, 62, 0
2, 23808, Note_on_c, 0, 62, 60
2, 23899, Note_on_c, 0, 65, 0
2, 24000, Note_on_c, 0, 65, 60
2, 24067, Note_on_c, 0, 62, 0
2, 24192, Note_on_c, 0, 67, 72
2, 24199, Note_on_c, 0, 65, 0
2, 24768, Note_on_c, 0, 69, 60
2, 24856, Note_on_c, 0, 67, 0
2, 24960, Note_on_c, 0, 65, 60
2, 25051, Note_on_c, 0, 69, 0
2, 25163, Note_on_c, 0, 65, 0
2, 25344, Note_on_c, 0, 67, 72
2, 25920, Note_on_c, 0, 69, 60
2, 26022, Note_on_c, 0, 67, 0
2, 26112, Note_on_c, 0, 65, 60
2, 26203, Note_on_c, 0, 69, 0
2, 26315, Note_on_c, 0, 65, 0
2, 26496, Note_on_c, 0, 67, 60
2, 26688, Note_on_c, 0, 74, 60
2, 26870, Note_on_c, 0, 74, 0
2, 26880, Note_on_c, 0, 74, 60
2, 27083, Note_on_c, 0, 74, 0
2, 27376, Note_on_c, 0, 67, 0
2, 28032, Note_on_c, 0, 62, 60
2, 28224, Note_on_c, 0, 65, 60
2, 28291, Note_on_c, 0, 62, 0
2, 28416, Note_on_c, 0, 62, 60
2, 28521, Note_on_c, 0, 65, 0
2, 28608, Note_on_c, 0, 65, 60
2, 28689, Note_on_c, 0, 62, 0
2, 28787, Note_on_c, 0, 65, 0
2, 28800, Note_on_c, 0, 67, 72
2, 29376, Note_on_c, 0, 69, 60
2, 29499, Note_on_c, 0, 67, 0
2, 29568, Note_on_c, 0, 65, 60
2, 29694, Note_on_c, 0, 69, 0
2, 29764, Note_on_c, 0, 65, 0
2, 29952, Note_on_c, 0, 67, 72
2, 30528, Note_on_c, 0, 69, 60
2, 30630, Note_on_c, 0, 67, 0
2, 30720, Note_on_c, 0, 65, 60
2, 30811, Note_on_c, 0, 69, 0
2, 30916, Note_on_c, 0, 65, 0
2, 31104, Note_on_c, 0, 67, 60
2, 31296, Note_on_c, 0, 75, 76
2, 31412, Note_on_c, 0, 67, 0
2, 31461, Note_on_c, 0, 75, 0
2, 31488, Note_on_c, 0, 75, 76
2, 31684, Note_on_c, 0, 75, 0
2, 32640, Note_on_c, 0, 74, 76
2, 32832, Note_on_c, 0, 72, 76
2, 32892, Note_on_c, 0, 74, 0
2, 33024, Note_on_c, 0, 70, 76
2, 33101, Note_on_c, 0, 72, 0
2, 33216, Note_on_c, 0, 69, 76
2, 33311, Note_on_c, 0, 70, 0
2, 33408, Note_on_c, 0, 69, 0
2, 33408, Note_on_c, 0, 72, 88
2, 33984, Note_on_c, 0, 70, 76
2, 34079, Note_on_c, 0, 72, 0
2, 34176, Note_on_c, 0, 74, 76
2, 34239, Note_on_c, 0, 70, 0
2, 34462, Note_on_c, 0, 74, 0
2, 34944, Note_on_c, 0, 70, 76
2, 35136, Note_on_c, 0, 69, 76
2, 35224, Note_on_c, 0, 70, 0
2, 35328, Note_on_c, 0, 67, 76
2, 35412, Note_on_c, 0, 69, 0
2, 35520, Note_on_c, 0, 66, 76
2, 35629, Note_on_c, 0, 67, 0
2, 35712, Note_on_c, 0, 69, 88
2, 35719, Note_on_c, 0, 66, 0
2, 36288, Note_on_c, 0, 67, 76
2, 36446, Note_on_c, 0, 69, 0
2, 36480, Note_on_c, 0, 70, 76
2, 36550, Note_on_c, 0, 67, 0
2, 36739, Note_on_c, 0, 70, 0
2, 37248, Note_on_c, 0, 69, 76
2, 37440, Note_on_c, 0, 67, 76
2, 37500, Note_on_c, 0, 69, 0
2, 37632, Note_on_c, 0, 66, 76
2, 37695, Note_on_c, 0, 67, 0
2, 37824, Note_on_c, 0, 64, 76
2, 37891, Note_on_c, 0, 66, 0
2, 38016, Note_on_c, 0, 69, 88
2, 38023, Note_on_c, 0, 64, 0
2, 38592, Note_on_c, 0, 66, 76
2, 38743, Note_on_c, 0, 69, 0
2, 38784, Note_on_c, 0, 62, 76
2, 38868, Note_on_c, 0, 66, 0
2, 38973, Note_on_c, 0, 62, 0
2, 39168, Note_on_c, 0, 70, 88
2, 39744, Note_on_c, 0, 67, 80
2, 39832, Note_on_c, 0, 70, 0
2, 39936, Note_on_c, 0, 64, 84
2, 40027, Note_on_c, 0, 67, 0
2, 40139, Note_on_c, 0, 64, 0
2, 40320, Note_on_c, 0, 78, 98
2, 40896, Note_on_c, 0, 74, 92
2, 41019, Note_on_c, 0, 78, 0
2, 41088, Note_on_c, 0, 71, 92
2, 41193, Note_on_c, 0, 74, 0
2, 41291, Note_on_c, 0, 71, 0
2, 41472, Note_on_c, 0, 69, 102
2, 42048, Note_on_c, 0, 67, 92
2, 42150, Note_on_c, 0, 69, 0
2, 42240, Note_on_c, 0, 64, 92
2, 42331, Note_on_c, 0, 67, 0
2, 42443, Note_on_c, 0, 64, 0
2, 42624, Note_on_c, 0, 62, 100
2, 43200, Note_on_c, 0, 66, 90
2, 43316, Note_on_c, 0, 62, 0
2, 43392, Note_on_c, 0, 74, 86
2, 43497, Note_on_c, 0, 66, 0
2, 43595, Note_on_c, 0, 74, 0
2, 43776, Note_on_c, 0, 62, 88
2, 44352, Note_on_c, 0, 65, 76
2, 44461, Note_on_c, 0, 62, 0
2, 44544, Note_on_c, 0, 74, 76
2, 44635, Note_on_c, 0, 65, 0
2, 44747, Note_on_c, 0, 74, 0
2, 44928, Note_on_c, 0, 62, 82
2, 45504, Note_on_c, 0, 66, 69
2, 45613, Note_on_c, 0, 62, 0
2, 45696, Note_on_c, 0, 74, 63
2, 45780, Note_on_c, 0, 66, 0
2, 45892, Note_on_c, 0, 74, 0
2, 46080, Note_on_c, 0, 86, 70
2, 46276, Note_on_c, 0, 86, 0
2, 46464, Note_on_c, 0, 53, 76
2, 46656, Note_on_c, 0, 55, 76
2, 46751, Note_on_c, 0, 53, 0
2, 46848, Note_on_c, 0, 57, 76
2, 46953, Note_on_c, 0, 55, 0
2, 47040, Note_on_c, 0, 58, 76
2, 47107, Note_on_c, 0, 57, 0
2, 47232, Note_on_c, 0, 59, 76
2, 47239, Note_on_c, 0, 58, 0
2, 47424, Note_on_c, 0, 60, 76
2, 47491, Note_on_c, 0, 59, 0
2, 47582, Note_on_c, 0, 60, 0
2, 47616, Note_on_c, 0, 60, 76
2, 47805, Note_on_c, 0, 60, 0
2, 47805, Note_on_c, 0, 65, 81
2, 47997, Note_on_c, 0, 65, 0
2, 48000, Note_on_c, 0, 65, 76
2, 48768, Note_on_c, 0, 53, 76
2, 48775, Note_on_c, 0, 65, 0
2, 48960, Note_on_c, 0, 57, 76
2, 49041, Note_on_c, 0, 53, 0
2, 49152, Note_on_c, 0, 58, 76
2, 49229, Note_on_c, 0, 57, 0
2, 49344, Note_on_c, 0, 60, 76
2, 49411, Note_on_c, 0, 58, 0
2, 49536, Note_on_c, 0, 60, 0
2, 49536, Note_on_c, 0, 61, 76
2, 49728, Note_on_c, 0, 62, 76
2, 49795, Note_on_c, 0, 61, 0
2, 49886, Note_on_c, 0, 62, 0
2, 49920, Note_on_c, 0, 62, 76
2, 50112, Note_on_c, 0, 67, 76
2, 50200, Note_on_c, 0, 62, 0
2, 50284, Note_on_c, 0, 67, 0
2, 50304, Note_on_c, 0, 67, 76
2, 51072, Note_on_c, 0, 53, 76
2, 51079, Note_on_c, 0, 67, 0
2, 51264, Note_on_c, 0, 58, 76
2, 51359, Note_on_c, 0, 53, 0
2, 51456, Note_on_c, 0, 60, 76
2, 51533, Note_on_c, 0, 58, 0
2, 51648, Note_on_c, 0, 62, 76
2, 51708, Note_on_c, 0, 60, 0
2, 51827, Note_on_c, 0, 62, 0
2, 51840, Note_on_c, 0, 62, 76
2, 52032, Note_on_c, 0, 63, 76
2, 52127, Note_on_c, 0, 62, 0
2, 52211, Note_on_c, 0, 63, 0
2, 52224, Note_on_c, 0, 63, 76
2, 52416, Note_on_c, 0, 69, 76
2, 52588, Note_on_c, 0, 69, 0
2, 52608, Note_on_c, 0, 63, 0
2, 52608, Note_on_c, 0, 69, 76
2, 52992, Note_on_c, 0, 65, 76
2, 52999, Note_on_c, 0, 69, 0
2, 53184, Note_on_c, 0, 74, 76
2, 53349, Note_on_c, 0, 74, 0
2, 53376, Note_on_c, 0, 65, 0
2, 53376, Note_on_c, 0, 74, 76
2, 53760, Note_on_c, 0, 72, 76
2, 53963, Note_on_c, 0, 74, 0
2, 54144, Note_on_c, 0, 72, 0
2, 54144, Note_on_c, 0, 69, 98
2, 54336, Note_on_c, 0, 70, 88
2, 54424, Note_on_c, 0, 69, 0
2, 54528, Note_on_c, 0, 77, 88
2, 54612, Note_on_c, 0, 70, 0
2, 55680, Note_on_c, 0, 74, 94
2, 55687, Note_on_c, 0, 77, 0
2, 55872, Note_on_c, 0, 72, 90
2, 55953, Note_on_c, 0, 74, 0
2, 56064, Note_on_c, 0, 70, 90
2, 56148, Note_on_c, 0, 72, 0
2, 56256, Note_on_c, 0, 69, 88
2, 56337, Note_on_c, 0, 70, 0
2, 56448, Note_on_c, 0, 69, 0
2, 56448, Note_on_c, 0, 68, 94
2, 56640, Note_on_c, 0, 67, 90
2, 56707, Note_on_c, 0, 68, 0
2, 56819, Note_on_c, 0, 67, 0
2, 56832, Note_on_c, 0, 67, 86
2, 57024, Note_on_c, 0, 75, 90
2, 57091, Note_on_c, 0, 67, 0
2, 57196, Note_on_c, 0, 75, 0
2, 57216, Note_on_c, 0, 75, 90
2, 57984, Note_on_c, 0, 74, 84
2, 58005, Note_on_c, 0, 75, 0
2, 58176, Note_on_c, 0, 71, 78
2, 58271, Note_on_c, 0, 74, 0
2, 58368, Note_on_c, 0, 67, 76
2, 58452, Note_on_c, 0, 71, 0
2, 58560, Note_on_c, 0, 66, 76
2, 58655, Note_on_c, 0, 67, 0
2, 58752, Note_on_c, 0, 66, 0
2, 58752, Note_on_c, 0, 65, 76
2, 58944, Note_on_c, 0, 64, 76
2, 59053, Note_on_c, 0, 65, 0
2, 59136, Note_on_c, 0, 64, 0
2, 59136, Note_on_c, 0, 63, 76
2, 59328, Note_on_c, 0, 74, 76
2, 59430, Note_on_c, 0, 63, 0
2, 59493, Note_on_c, 0, 74, 0
2, 59520, Note_on_c, 0, 74, 65
2, 60288, Note_on_c, 0, 70, 65
2, 60316, Note_on_c, 0, 74, 0
2, 60480, Note_on_c, 0, 67, 69
2, 60582, Note_on_c, 0, 70, 0
2, 60672, Note_on_c, 0, 64, 69
2, 60777, Note_on_c, 0, 67, 0
2, 60864, Note_on_c, 0, 70, 69
2, 60952, Note_on_c, 0, 64, 0
2, 61051, Note_on_c, 0, 70, 0
2, 61056, Note_on_c, 0, 70, 61
2, 61245, Note_on_c, 0, 70, 0
2, 61440, Note_on_c, 0, 65, 59
2, 61632, Note_on_c, 0, 62, 59
2, 61727, Note_on_c, 0, 65, 0
2, 61824, Note_on_c, 0, 58, 59
2, 61908, Note_on_c, 0, 62, 0
2, 62016, Note_on_c, 0, 67, 63
2, 62104, Note_on_c, 0, 58, 0
2, 62208, Note_on_c, 0, 67, 0
2, 62208, Note_on_c, 0, 57, 63
2, 62208, Note_on_c, 0, 63, 63
2, 62565, Note_on_c, 0, 57, 0
2, 62592, Note_on_c, 0, 63, 0
2, 62592, Note_on_c, 0, 57, 55
2, 62592, Note_on_c, 0, 62, 55
2, 62949, Note_on_c, 0, 57, 0
2, 62976, Note_on_c, 0, 62, 0
2, 62976, Note_on_c, 0, 57, 53
2, 62976, Note_on_c, 0, 60, 53
2, 63333, Note_on_c, 0, 57, 0
2, 63360, Note_on_c, 0, 60, 0
2, 63360, Note_on_c, 0, 57, 57
2, 63744, Note_on_c, 0, 57, 0
2, 63744, Note_on_c, 0, 58, 57
2, 64128, Note_on_c, 0, 58, 0
2, 64128, Note_on_c, 0, 62, 65
2, 64128, Note_on_c, 0, 70, 51
2, 64701, Note_on_c, 0, 70, 0
2, 64743, Note_on_c, 0, 62, 0
2, 64896, Note_on_c, 0, 65, 76
2, 65088, Note_on_c, 0, 67, 76
2, 65155, Note_on_c, 0, 65, 0
2, 65280, Note_on_c, 0, 69, 76
2, 65364, Note_on_c, 0, 67, 0
2, 65472, Note_on_c, 0, 70, 76
2, 65560, Note_on_c, 0, 69, 0
2, 65664, Note_on_c, 0, 71, 76
2, 65678, Note_on_c, 0, 70, 0
2, 65856, Note_on_c, 0, 72, 76
2, 65951, Note_on_c, 0, 71, 0
2, 66028, Note_on_c, 0, 72, 0
2, 66048, Note_on_c, 0, 72, 76
2, 66240, Note_on_c, 0, 77, 76
2, 66356, Note_on_c, 0, 72, 0
2, 66419, Note_on_c, 0, 77, 0
2, 66432, Note_on_c, 0, 77, 76
2, 67200, Note_on_c, 0, 65, 76
2, 67214, Note_on_c, 0, 77, 0
2, 67392, Note_on_c, 0, 69, 76
2, 67501, Note_on_c, 0, 65, 0
2, 67584, Note_on_c, 0, 70, 76
2, 67689, Note_on_c, 0, 69, 0
2, 67776, Note_on_c, 0, 72, 76
2, 67864, Note_on_c, 0, 70, 0
2, 67968, Note_on_c, 0, 72, 0
2, 67968, Note_on_c, 0, 73, 76
2, 68160, Note_on_c, 0, 74, 76
2, 68241, Note_on_c, 0, 73, 0
2, 68325, Note_on_c, 0, 74, 0
2, 68352, Note_on_c, 0, 74, 76
2, 68544, Note_on_c, 0, 79, 76
2, 68632, Note_on_c, 0, 74, 0
2, 68709, Note_on_c, 0, 79, 0
2, 68736, Note_on_c, 0, 79, 76
2, 69504, Note_on_c, 0, 79, 0
2, 69504, Note_on_c, 0, 65, 76
2, 69696, Note_on_c, 0, 70, 76
2, 69763, Note_on_c, 0, 65, 0
2, 69888, Note_on_c, 0, 72, 76
2, 69958, Note_on_c, 0, 70, 0
2, 70080, Note_on_c, 0, 74, 76
2, 70161, Note_on_c, 0, 72, 0
2, 70259, Note_on_c, 0, 74, 0
2, 70272, Note_on_c, 0, 74, 76
2, 70464, Note_on_c, 0, 75, 76
2, 70566, Note_on_c, 0, 74, 0
2, 70636, Note_on_c, 0, 75, 0
2, 70656, Note_on_c, 0, 75, 76
2, 70848, Note_on_c, 0, 81, 76
2, 70936, Note_on_c, 0, 75, 0
2, 71013, Note_on_c, 0, 81, 0
2, 71040, Note_on_c, 0, 81, 76
2, 71424, Note_on_c, 0, 81, 0
2, 71424, Note_on_c, 0, 77, 76
2, 71616, Note_on_c, 0, 86, 76
2, 71697, Note_on_c, 0, 77, 0
2, 71788, Note_on_c, 0, 86, 0
2, 71808, Note_on_c, 0, 86, 76
2, 72192, Note_on_c, 0, 86, 0
2, 72192, Note_on_c, 0, 84, 76
2, 72576, Note_on_c, 0, 84, 0
2, 72576, Note_on_c, 0, 81, 98
2, 72768, Note_on_c, 0, 82, 90
2, 72849, Note_on_c, 0, 81, 0
2, 72960, Note_on_c, 0, 89, 88
2, 73016, Note_on_c, 0, 82, 0
2, 74112, Note_on_c, 0, 86, 59
2, 74119, Note_on_c, 0, 89, 0
2, 74304, Note_on_c, 0, 84, 57
2, 74392, Note_on_c, 0, 86, 0
2, 74496, Note_on_c, 0, 82, 55
2, 74587, Note_on_c, 0, 84, 0
2, 74688, Note_on_c, 0, 81, 55
2, 74755, Note_on_c, 0, 82, 0
2, 74867, Note_on_c, 0, 81, 0
2, 74880, Note_on_c, 0, 80, 57
2, 75072, Note_on_c, 0, 79, 55
2, 75160, Note_on_c, 0, 80, 0
2, 75244, Note_on_c, 0, 79, 0
2, 75264, Note_on_c, 0, 79, 55
2, 75456, Note_on_c, 0, 87, 55
2, 75523, Note_on_c, 0, 79, 0
2, 75635, Note_on_c, 0, 87, 0
2, 75648, Note_on_c, 0, 87, 55
2, 76416, Note_on_c, 0, 87, 0
2, 76416, Note_on_c, 0, 86, 61
2, 76608, Note_on_c, 0, 83, 61
2, 76675, Note_on_c, 0, 86, 0
2, 76800, Note_on_c, 0, 79, 59
2, 76891, Note_on_c, 0, 83, 0
2, 76992, Note_on_c, 0, 78, 55
2, 77052, Note_on_c, 0, 79, 0
2, 77184, Note_on_c, 0, 78, 0
2, 77184, Note_on_c, 0, 77, 55
2, 77376, Note_on_c, 0, 76, 55
2, 77443, Note_on_c, 0, 77, 0
2, 77555, Note_on_c, 0, 76, 0
2, 77568, Note_on_c, 0, 76, 55
2, 77760, Note_on_c, 0, 86, 55
2, 77883, Note_on_c, 0, 76, 0
2, 77939, Note_on_c, 0, 86, 0
2, 77952, Note_on_c, 0, 86, 57
2, 78720, Note_on_c, 0, 82, 65
2, 78741, Note_on_c, 0, 86, 0
2, 78912, Note_on_c, 0, 79, 72
2, 78979, Note_on_c, 0, 82, 0
2, 79104, Note_on_c, 0, 76, 76
2, 79188, Note_on_c, 0, 79, 0
2, 79296, Note_on_c, 0, 82, 84
2, 79377, Note_on_c, 0, 76, 0
2, 79475, Note_on_c, 0, 82, 0
2, 79488, Note_on_c, 0, 82, 96
2, 79684, Note_on_c, 0, 82, 0
2, 79872, Note_on_c, 0, 77, 94
2, 80064, Note_on_c, 0, 74, 87
2, 80159, Note_on_c, 0, 77, 0
2, 80256, Note_on_c, 0, 70, 80
2, 80340, Note_on_c, 0, 74, 0
2, 80448, Note_on_c, 0, 79, 92
2, 80508, Note_on_c, 0, 70, 0
2, 80627, Note_on_c, 0, 79, 0
2, 80640, Note_on_c, 0, 69, 92
2, 80640, Note_on_c, 0, 75, 92
2, 80997, Note_on_c, 0, 69, 0
2, 81024, Note_on_c, 0, 75, 0
2, 81024, Note_on_c, 0, 69, 76
2, 81024, Note_on_c, 0, 74, 87
2, 81381, Note_on_c, 0, 69, 0
2, 81408, Note_on_c, 0, 74, 0
2, 81408, Note_on_c, 0, 69, 76
2, 81408, Note_on_c, 0, 72, 87
2, 81765, Note_on_c, 0, 69, 0
2, 81792, Note_on_c, 0, 72, 0
2, 81792, Note_on_c, 0, 70, 98
2, 82368, Note_on_c, 0, 74, 90
2, 82470, Note_on_c, 0, 70, 0
2, 82560, Note_on_c, 0, 69, 78
2, 82651, Note_on_c, 0, 74, 0
2, 82756, Note_on_c, 0, 69, 0
2, 82944, Note_on_c, 0, 68, 90
2, 83520, Note_on_c, 0, 74, 92
2, 83657, Note_on_c, 0, 68, 0
2, 83712, Note_on_c, 0, 67, 82
2, 83796, Note_on_c, 0, 74, 0
2, 83915, Note_on_c, 0, 67, 0
2, 84096, Note_on_c, 0, 66, 90
2, 84672, Note_on_c, 0, 77, 94
2, 84760, Note_on_c, 0, 66, 0
2, 84864, Note_on_c, 0, 65, 80
2, 84948, Note_on_c, 0, 77, 0
2, 85440, Note_on_c, 0, 64, 90
2, 85528, Note_on_c, 0, 65, 0
2, 85632, Note_on_c, 0, 63, 83
2, 85737, Note_on_c, 0, 64, 0
2, 85824, Note_on_c, 0, 62, 78
2, 85891, Note_on_c, 0, 63, 0
2, 86016, Note_on_c, 0, 63, 83
2, 86093, Note_on_c, 0, 62, 0
2, 86208, Note_on_c, 0, 60, 82
2, 86289, Note_on_c, 0, 63, 0
2, 86400, Note_on_c, 0, 60, 0
2, 86400, Note_on_c, 0, 58, 90
2, 86976, Note_on_c, 0, 62, 94
2, 87127, Note_on_c, 0, 58, 0
2, 87168, Note_on_c, 0, 57, 83
2, 87273, Note_on_c, 0, 62, 0
2, 87371, Note_on_c, 0, 57, 0
2, 87552, Note_on_c, 0, 56, 96
2, 88128, Note_on_c, 0, 62, 91
2, 88244, Note_on_c, 0, 56, 0
2, 88320, Note_on_c, 0, 55, 88
2, 88397, Note_on_c, 0, 62, 0
2, 88593, Note_on_c, 0, 55, 0
2, 89088, Note_on_c, 0, 57, 70
2, 89088, Note_on_c, 0, 63, 53
2, 89088, Note_on_c, 0, 65, 67
2, 89843, Note_on_c, 0, 57, 0
2, 89856, Note_on_c, 0, 65, 0
2, 89856, Note_on_c, 0, 63, 0
2, 91008, Control_c, 0, 10, 60
2, 91008, Note_on_c, 0, 62, 59
2, 91008, Note_on_c, 0, 65, 59
2, 91200, Note_on_c, 0, 70, 61
2, 91281, Note_on_c, 0, 62, 0
2, 91295, Note_on_c, 0, 65, 0
2, 91379, Note_on_c, 0, 70, 0
2, 91392, Note_on_c, 0, 70, 51
2, 91776, Note_on_c, 0, 70, 0
2, 91776, Note_on_c, 0, 64, 49
2, 91968, Note_on_c, 0, 67, 47
2, 92049, Note_on_c, 0, 64, 0
2, 92147, Note_on_c, 0, 67, 0
2, 92160, Note_on_c, 0, 65, 47
2, 92352, Note_on_c, 0, 70, 47
2, 92412, Note_on_c, 0, 65, 0
2, 92531, Note_on_c, 0, 70, 0
2, 92544, Note_on_c, 0, 70, 47
2, 92928, Note_on_c, 0, 64, 53
2, 92935, Note_on_c, 0, 70, 0
2, 93120, Note_on_c, 0, 67, 47
2, 93215, Note_on_c, 0, 64, 0
2, 93312, Note_on_c, 0, 67, 0
2, 93312, Note_on_c, 0, 65, 47
2, 93504, Note_on_c, 0, 67, 49
2, 93606, Note_on_c, 0, 65, 0
2, 93696, Note_on_c, 0, 69, 55
2, 93787, Note_on_c, 0, 67, 0
2, 93888, Note_on_c, 0, 70, 59
2, 93983, Note_on_c, 0, 69, 0
2, 94080, Note_on_c, 0, 71, 59
2, 94192, Note_on_c, 0, 70, 0
2, 94272, Note_on_c, 0, 72, 59
2, 94360, Note_on_c, 0, 71, 0
2, 94464, Note_on_c, 0, 73, 59
2, 94548, Note_on_c, 0, 72, 0
2, 94656, Note_on_c, 0, 74, 61
2, 94758, Note_on_c, 0, 73, 0
2, 94848, Note_on_c, 0, 75, 65
2, 94960, Note_on_c, 0, 74, 0
2, 95040, Note_on_c, 0, 76, 69
2, 95149, Note_on_c, 0, 75, 0
2, 95232, Note_on_c, 0, 77, 72
2, 95337, Note_on_c, 0, 76, 0
2, 95424, Note_on_c, 0, 78, 84
2, 95505, Note_on_c, 0, 77, 0
2, 95616, Note_on_c, 0, 73, 78
2, 95616, Note_on_c, 0, 79, 92
2, 95707, Note_on_c, 0, 78, 0
2, 96573, Note_on_c, 0, 79, 0
2, 96587, Note_on_c, 0, 73, 0
2, 96768, Note_on_c, 0, 69, 94
2, 96768, Note_on_c, 0, 75, 94
2, 96768, Note_on_c, 0, 77, 94
2, 97900, Note_on_c, 0, 69, 0
2, 97920, Note_on_c, 0, 75, 0
2, 97920, Note_on_c, 0, 74, 97
2, 97920, Note_on_c, 0, 82, 102
2, 97934, Note_on_c, 0, 77, 0
2, 98095, Note_on_c, 0, 74, 0
2, 98109, Note_on_c, 0, 82, 0
2, 98304, Note_on_c, 0, 58, 96
2, 98304, Note_on_c, 0, 62, 96
2, 98493, Note_on_c, 0, 62, 0
2, 98493, Note_on_c, 0, 58, 0
2, 98493, End_track
3, 0, Start_track
3, 0, Title_t, "Piano LH"
3, 0, Program_c, 0, 0
3, 0, Control_c, 0, 7, 105
3, 0, Control_c, 0, 10, 48
3, 0, Control_c, 0, 91, 100
3, 28, Control_c, 0, 121, 0
3, 1152, Program_c, 0, 0
3, 1152, Control_c, 0, 64, 127
3, 1152, Note_on_c, 0, 46, 66
3, 1152, Note_on_c, 0, 62, 54
3, 1536, Note_on_c, 0, 53, 64
3, 1739, Note_on_c, 0, 46, 0
3, 1920, Note_on_c, 0, 53, 0
3, 2137, Note_on_c, 0, 62, 0
3, 2277, Control_c, 0, 64, 0
3, 2304, Note_on_c, 0, 41, 66
3, 2304, Note_on_c, 0, 62, 54
3, 2318, Control_c, 0, 64, 127
3, 2688, Note_on_c, 0, 53, 64
3, 2877, Note_on_c, 0, 41, 0
3, 3072, Note_on_c, 0, 53, 0
3, 3296, Note_on_c, 0, 62, 0
3, 3422, Control_c, 0, 64, 0
3, 3456, Note_on_c, 0, 53, 54
3, 3456, Note_on_c, 0, 58, 54
3, 3456, Note_on_c, 0, 62, 54
3, 3477, Control_c, 0, 64, 127
3, 4224, Note_on_c, 0, 41, 60
3, 4413, Note_on_c, 0, 62, 0
3, 4413, Note_on_c, 0, 53, 0
3, 4462, Note_on_c, 0, 58, 0
3, 4608, Note_on_c, 0, 34, 64
3, 4881, Note_on_c, 0, 41, 0
3, 4992, Note_on_c, 0, 34, 0
3, 5740, Control_c, 0, 64, 0
3, 5760, Note_on_c, 0, 47, 66
3, 5760, Note_on_c, 0, 62, 54
3, 5788, Control_c, 0, 64, 127
3, 6144, Note_on_c, 0, 53, 65
3, 6340, Note_on_c, 0, 47, 0
3, 6528, Note_on_c, 0, 53, 0
3, 6717, Note_on_c, 0, 62, 0
3, 6912, Note_on_c, 0, 41, 66
3, 6912, Note_on_c, 0, 62, 54
3, 7296, Note_on_c, 0, 53, 64
3, 7492, Note_on_c, 0, 41, 0
3, 7680, Note_on_c, 0, 53, 0
3, 7841, Note_on_c, 0, 62, 0
3, 8051, Control_c, 0, 64, 0
3, 8064, Note_on_c, 0, 48, 54
3, 8064, Note_on_c, 0, 53, 54
3, 8064, Note_on_c, 0, 57, 54
3, 8078, Control_c, 0, 64, 127
3, 8832, Note_on_c, 0, 41, 62
3, 8951, Note_on_c, 0, 57, 0
3, 8958, Note_on_c, 0, 53, 0
3, 8972, Note_on_c, 0, 48, 0
3, 9216, Note_on_c, 0, 41, 0
3, 9216, Note_on_c, 0, 53, 72
3, 9957, Control_c, 0, 64, 0
3, 9984, Note_on_c, 0, 63, 54
3, 9984, Note_on_c, 0, 65, 54
3, 9991, Note_on_c, 0, 53, 0
3, 10344, Note_on_c, 0, 65, 0
3, 10344, Note_on_c, 0, 63, 0
3, 10368, Note_on_c, 0, 62, 54
3, 10368, Note_on_c, 0, 65, 54
3, 10382, Control_c, 0, 64, 127
3, 10728, Note_on_c, 0, 65, 0
3, 10728, Note_on_c, 0, 62, 0
3, 10752, Note_on_c, 0, 62, 54
3, 10752, Note_on_c, 0, 65, 54
3, 11112, Note_on_c, 0, 65, 0
3, 11112, Note_on_c, 0, 62, 0
3, 11472, Control_c, 0, 64, 0
3, 11520, Note_on_c, 0, 60, 66
3, 11520, Note_on_c, 0, 62, 59
3, 11520, Note_on_c, 0, 66, 66
3, 11548, Control_c, 0, 64, 127
3, 11880, Note_on_c, 0, 66, 0
3, 11880, Note_on_c, 0, 62, 0
3, 11880, Note_on_c, 0, 60, 0
3, 11904, Note_on_c, 0, 60, 54
3, 11904, Note_on_c, 0, 62, 47
3, 11904, Note_on_c, 0, 66, 54
3, 12264, Note_on_c, 0, 66, 0
3, 12264, Note_on_c, 0, 62, 0
3, 12264, Note_on_c, 0, 60, 0
3, 12638, Control_c, 0, 64, 0
3, 12672, Note_on_c, 0, 58, 54
3, 12672, Note_on_c, 0, 62, 54
3, 12707, Control_c, 0, 64, 127
3, 13032, Note_on_c, 0, 62, 0
3, 13032, Note_on_c, 0, 58, 0
3, 13056, Note_on_c, 0, 58, 54
3, 13056, Note_on_c, 0, 62, 54
3, 13416, Note_on_c, 0, 62, 0
3, 13416, Note_on_c, 0, 58, 0
3, 13503, Control_c, 0, 64, 0
3, 13824, Note_on_c, 0, 58, 54
3, 13824, Note_on_c, 0, 60, 47
3, 13824, Note_on_c, 0, 64, 54
3, 13852, Control_c, 0, 64, 127
3, 14184, Note_on_c, 0, 64, 0
3, 14184, Note_on_c, 0, 60, 0
3, 14184, Note_on_c, 0, 58, 0
3, 14208, Note_on_c, 0, 58, 54
3, 14208, Note_on_c, 0, 60, 47
3, 14208, Note_on_c, 0, 64, 54
3, 14565, Control_c, 0, 64, 0
3, 14568, Note_on_c, 0, 64, 0
3, 14568, Note_on_c, 0, 60, 0
3, 14568, Note_on_c, 0, 58, 0
3, 14976, Note_on_c, 0, 57, 54
3, 14976, Note_on_c, 0, 60, 47
3, 14976, Note_on_c, 0, 65, 54
3, 14990, Control_c, 0, 64, 127
3, 15336, Note_on_c, 0, 65, 0
3, 15336, Note_on_c, 0, 60, 0
3, 15336, Note_on_c, 0, 57, 0
3, 15360, Note_on_c, 0, 57, 54
3, 15360, Note_on_c, 0, 60, 47
3, 15360, Note_on_c, 0, 65, 54
3, 15720, Note_on_c, 0, 65, 0
3, 15720, Note_on_c, 0, 60, 0
3, 15720, Note_on_c, 0, 57, 0
3, 16108, Control_c, 0, 64, 0
3, 16128, Note_on_c, 0, 47, 66
3, 16128, Note_on_c, 0, 53, 59
3, 16128, Note_on_c, 0, 57, 66
3, 16149, Control_c, 0, 64, 127
3, 16488, Note_on_c, 0, 57, 0
3, 16488, Note_on_c, 0, 53, 0
3, 16488, Note_on_c, 0, 47, 0
3, 16512, Note_on_c, 0, 47, 54
3, 16512, Note_on_c, 0, 53, 47
3, 16512, Note_on_c, 0, 57, 54
3, 16872, Note_on_c, 0, 57, 0
3, 16872, Note_on_c, 0, 53, 0
3, 16872, Note_on_c, 0, 47, 0
3, 17246, Control_c, 0, 64, 0
3, 17280, Note_on_c, 0, 48, 79
3, 17280, Note_on_c, 0, 53, 72
3, 17280, Note_on_c, 0, 57, 79
3, 17301, Control_c, 0, 64, 127
3, 17640, Note_on_c, 0, 57, 0
3, 17640, Note_on_c, 0, 53, 0
3, 17640, Note_on_c, 0, 48, 0
3, 17664, Note_on_c, 0, 48, 71
3, 17664, Note_on_c, 0, 53, 64
3, 17664, Note_on_c, 0, 57, 71
3, 18024, Note_on_c, 0, 57, 0
3, 18024, Note_on_c, 0, 53, 0
3, 18024, Note_on_c, 0, 48, 0
3, 18405, Control_c, 0, 64, 0
3, 18432, Note_on_c, 0, 58, 71
3, 18432, Note_on_c, 0, 60, 64
3, 18432, Note_on_c, 0, 64, 71
3, 18453, Control_c, 0, 64, 127
3, 18792, Note_on_c, 0, 64, 0
3, 18792, Note_on_c, 0, 60, 0
3, 18792, Note_on_c, 0, 58, 0
3, 18816, Note_on_c, 0, 58, 67
3, 18816, Note_on_c, 0, 60, 60
3, 18816, Note_on_c, 0, 64, 67
3, 19176, Note_on_c, 0, 64, 0
3, 19176, Note_on_c, 0, 60, 0
3, 19176, Note_on_c, 0, 58, 0
3, 19564, Control_c, 0, 64, 0
3, 19584, Note_on_c, 0, 41, 75
3, 19612, Control_c, 0, 64, 127
3, 19968, Note_on_c, 0, 53, 75
3, 20185, Note_on_c, 0, 41, 0
3, 20716, Control_c, 0, 64, 0
3, 20736, Note_on_c, 0, 43, 54
3, 20743, Note_on_c, 0, 53, 0
3, 20764, Control_c, 0, 64, 127
3, 21120, Note_on_c, 0, 53, 52
3, 21316, Note_on_c, 0, 43, 0
3, 21847, Control_c, 0, 64, 0
3, 21888, Note_on_c, 0, 53, 0
3, 21888, Note_on_c, 0, 44, 40
3, 21923, Control_c, 0, 64, 127
3, 22272, Control_c, 0, 64, 0
3, 22272, Note_on_c, 0, 53, 49
3, 22496, Note_on_c, 0, 44, 0
3, 23027, Note_on_c, 0, 53, 0
3, 23040, Note_on_c, 0, 45, 40
3, 23424, Note_on_c, 0, 45, 0
3, 24192, Note_on_c, 0, 46, 40
3, 24192, Note_on_c, 0, 62, 40
3, 24213, Control_c, 0, 64, 127
3, 24576, Note_on_c, 0, 53, 57
3, 24814, Note_on_c, 0, 46, 0
3, 24960, Note_on_c, 0, 53, 0
3, 25149, Note_on_c, 0, 62, 0
3, 25317, Control_c, 0, 64, 0
3, 25344, Note_on_c, 0, 41, 38
3, 25344, Note_on_c, 0, 62, 38
3, 25365, Control_c, 0, 64, 127
3, 25728, Note_on_c, 0, 53, 57
3, 25931, Note_on_c, 0, 41, 0
3, 26112, Note_on_c, 0, 53, 0
3, 26133, Note_on_c, 0, 62, 0
3, 26469, Control_c, 0, 64, 0
3, 26496, Note_on_c, 0, 53, 38
3, 26496, Note_on_c, 0, 58, 38
3, 26496, Note_on_c, 0, 62, 38
3, 26517, Control_c, 0, 64, 127
3, 27264, Note_on_c, 0, 41, 62
3, 27341, Note_on_c, 0, 53, 0
3, 27355, Note_on_c, 0, 58, 0
3, 27376, Note_on_c, 0, 62, 0
3, 27648, Note_on_c, 0, 34, 54
3, 27851, Note_on_c, 0, 41, 0
3, 28032, Note_on_c, 0, 34, 0
3, 28773, Control_c, 0, 64, 0
3, 28800, Note_on_c, 0, 47, 46
3, 28800, Note_on_c, 0, 62, 46
3, 28821, Control_c, 0, 64, 127
3, 29184, Note_on_c, 0, 53, 52
3, 29401, Note_on_c, 0, 47, 0
3, 29764, Note_on_c, 0, 62, 0
3, 29918, Control_c, 0, 64, 0
3, 29952, Note_on_c, 0, 53, 0
3, 29952, Note_on_c, 0, 41, 44
3, 29952, Note_on_c, 0, 62, 44
3, 29973, Control_c, 0, 64, 127
3, 30336, Note_on_c, 0, 53, 49
3, 30518, Note_on_c, 0, 41, 0
3, 30923, Note_on_c, 0, 62, 0
3, 31084, Note_on_c, 0, 53, 0
3, 31091, Control_c, 0, 64, 0
3, 31104, Note_on_c, 0, 48, 51
3, 31104, Note_on_c, 0, 53, 50
3, 31104, Note_on_c, 0, 57, 46
3, 31125, Control_c, 0, 64, 127
3, 31872, Note_on_c, 0, 41, 58
3, 31963, Note_on_c, 0, 57, 0
3, 31984, Note_on_c, 0, 48, 0
3, 31991, Note_on_c, 0, 53, 0
3, 32256, Note_on_c, 0, 41, 0
3, 32256, Note_on_c, 0, 65, 72
3, 33004, Control_c, 0, 64, 0
3, 33024, Note_on_c, 0, 63, 38
3, 33185, Note_on_c, 0, 65, 0
3, 33408, Note_on_c, 0, 63, 0
3, 33408, Note_on_c, 0, 62, 59
3, 33408, Note_on_c, 0, 65, 59
3, 33429, Control_c, 0, 64, 127
3, 33768, Note_on_c, 0, 65, 0
3, 33768, Note_on_c, 0, 62, 0
3, 33792, Note_on_c, 0, 62, 38
3, 33792, Note_on_c, 0, 65, 38
3, 34152, Note_on_c, 0, 65, 0
3, 34152, Note_on_c, 0, 62, 0
3, 34163, Control_c, 0, 64, 0
3, 34560, Note_on_c, 0, 60, 42
3, 34560, Note_on_c, 0, 62, 42
3, 34560, Note_on_c, 0, 66, 42
3, 34567, Control_c, 0, 64, 127
3, 34920, Note_on_c, 0, 66, 0
3, 34920, Note_on_c, 0, 62, 0
3, 34920, Note_on_c, 0, 60, 0
3, 34944, Note_on_c, 0, 60, 44
3, 34944, Note_on_c, 0, 62, 44
3, 34944, Note_on_c, 0, 66, 44
3, 35304, Note_on_c, 0, 66, 0
3, 35304, Note_on_c, 0, 62, 0
3, 35304, Note_on_c, 0, 60, 0
3, 35308, Control_c, 0, 64, 0
3, 35712, Note_on_c, 0, 58, 59
3, 35712, Note_on_c, 0, 62, 59
3, 35733, Control_c, 0, 64, 127
3, 36072, Note_on_c, 0, 62, 0
3, 36072, Note_on_c, 0, 58, 0
3, 36096, Note_on_c, 0, 58, 34
3, 36096, Note_on_c, 0, 62, 34
3, 36456, Note_on_c, 0, 62, 0
3, 36456, Note_on_c, 0, 58, 0
3, 36711, Control_c, 0, 64, 0
3, 36864, Note_on_c, 0, 55, 40
3, 36864, Note_on_c, 0, 58, 40
3, 36864, Note_on_c, 0, 61, 40
3, 36885, Control_c, 0, 64, 127
3, 37224, Note_on_c, 0, 61, 0
3, 37224, Note_on_c, 0, 58, 0
3, 37224, Note_on_c, 0, 55, 0
3, 37248, Note_on_c, 0, 55, 34
3, 37248, Note_on_c, 0, 58, 34
3, 37248, Note_on_c, 0, 61, 34
3, 37608, Note_on_c, 0, 61, 0
3, 37608, Note_on_c, 0, 58, 0
3, 37608, Note_on_c, 0, 55, 0
3, 37814, Control_c, 0, 64, 0
3, 38016, Note_on_c, 0, 54, 38
3, 38016, Note_on_c, 0, 57, 38
3, 38016, Note_on_c, 0, 62, 38
3, 38030, Control_c, 0, 64, 127
3, 38376, Note_on_c, 0, 62, 0
3, 38376, Note_on_c, 0, 57, 0
3, 38376, Note_on_c, 0, 54, 0
3, 38400, Note_on_c, 0, 54, 32
3, 38400, Note_on_c, 0, 57, 32
3, 38400, Note_on_c, 0, 62, 32
3, 38760, Note_on_c, 0, 62, 0
3, 38760, Note_on_c, 0, 57, 0
3, 38760, Note_on_c, 0, 54, 0
3, 39148, Control_c, 0, 64, 0
3, 39168, Note_on_c, 0, 52, 40
3, 39168, Note_on_c, 0, 55, 40
3, 39168, Note_on_c, 0, 62, 40
3, 39182, Control_c, 0, 64, 127
3, 39528, Note_on_c, 0, 62, 0
3, 39528, Note_on_c, 0, 55, 0
3, 39528, Note_on_c, 0, 52, 0
3, 39552, Note_on_c, 0, 52, 34
3, 39552, Note_on_c, 0, 55, 34
3, 39552, Note_on_c, 0, 62, 34
3, 39912, Note_on_c, 0, 62, 0
3, 39912, Note_on_c, 0, 55, 0
3, 39912, Note_on_c, 0, 52, 0
3, 40307, Control_c, 0, 64, 0
3, 40320, Note_on_c, 0, 45, 69
3, 40348, Control_c, 0, 64, 127
3, 40704, Note_on_c, 0, 54, 65
3, 40704, Note_on_c, 0, 57, 57
3, 40704, Note_on_c, 0, 62, 57
3, 40884, Note_on_c, 0, 45, 0
3, 41064, Note_on_c, 0, 54, 0
3, 41064, Note_on_c, 0, 57, 0
3, 41064, Note_on_c, 0, 62, 0
3, 41431, Control_c, 0, 64, 0
3, 41472, Note_on_c, 0, 55, 71
3, 41472, Note_on_c, 0, 57, 63
3, 41472, Note_on_c, 0, 61, 63
3, 41507, Control_c, 0, 64, 127
3, 41856, Note_on_c, 0, 45, 63
3, 42027, Note_on_c, 0, 55, 0
3, 42033, Note_on_c, 0, 61, 0
3, 42048, Note_on_c, 0, 57, 0
3, 42216, Note_on_c, 0, 45, 0
3, 42604, Control_c, 0, 64, 0
3, 42624, Note_on_c, 0, 50, 73
3, 42624, Note_on_c, 0, 57, 65
3, 42652, Control_c, 0, 64, 127
3, 42984, Note_on_c, 0, 57, 0
3, 42984, Note_on_c, 0, 50, 0
3, 43008, Note_on_c, 0, 50, 63
3, 43008, Note_on_c, 0, 57, 55
3, 43368, Note_on_c, 0, 57, 0
3, 43368, Note_on_c, 0, 50, 0
3, 43756, Control_c, 0, 64, 0
3, 43776, Note_on_c, 0, 46, 71
3, 43776, Note_on_c, 0, 53, 63
3, 43804, Control_c, 0, 64, 127
3, 44136, Note_on_c, 0, 53, 0
3, 44136, Note_on_c, 0, 46, 0
3, 44160, Note_on_c, 0, 46, 65
3, 44160, Note_on_c, 0, 53, 57
3, 44520, Note_on_c, 0, 53, 0
3, 44520, Note_on_c, 0, 46, 0
3, 44887, Control_c, 0, 64, 0
3, 44928, Note_on_c, 0, 38, 54
3, 44928, Note_on_c, 0, 45, 54
3, 44949, Control_c, 0, 64, 127
3, 45288, Note_on_c, 0, 45, 0
3, 45288, Note_on_c, 0, 38, 0
3, 45312, Note_on_c, 0, 38, 42
3, 45312, Note_on_c, 0, 45, 42
3, 45672, Note_on_c, 0, 45, 0
3, 45672, Note_on_c, 0, 38, 0
3, 46667, Control_c, 0, 64, 0
3, 47232, Note_on_c, 0, 51, 55
3, 47253, Control_c, 0, 64, 127
3, 48000, Note_on_c, 0, 57, 70
3, 48126, Note_on_c, 0, 51, 0
3, 48350, Control_c, 0, 64, 0
3, 48384, Note_on_c, 0, 41, 65
3, 48405, Control_c, 0, 64, 127
3, 48587, Note_on_c, 0, 57, 0
3, 48768, Note_on_c, 0, 41, 0
3, 48782, Control_c, 0, 64, 0
3, 49536, Note_on_c, 0, 50, 62
3, 50304, Note_on_c, 0, 58, 72
3, 50521, Note_on_c, 0, 50, 0
3, 50688, Note_on_c, 0, 41, 64
3, 50884, Note_on_c, 0, 58, 0
3, 51072, Note_on_c, 0, 41, 0
3, 51840, Note_on_c, 0, 48, 58
3, 51840, Note_on_c, 0, 57, 46
3, 51861, Control_c, 0, 64, 127
3, 52224, Note_on_c, 0, 53, 62
3, 52413, Note_on_c, 0, 48, 0
3, 52455, Note_on_c, 0, 57, 0
3, 52965, Control_c, 0, 64, 0
3, 52979, Note_on_c, 0, 53, 0
3, 52992, Note_on_c, 0, 51, 59
3, 52992, Note_on_c, 0, 57, 44
3, 53020, Control_c, 0, 64, 127
3, 53376, Note_on_c, 0, 53, 66
3, 53558, Note_on_c, 0, 51, 0
3, 53579, Note_on_c, 0, 57, 0
3, 54019, Control_c, 0, 64, 0
3, 54144, Note_on_c, 0, 50, 63
3, 54158, Note_on_c, 0, 53, 0
3, 54165, Control_c, 0, 64, 127
3, 54912, Note_on_c, 0, 58, 63
3, 55129, Note_on_c, 0, 50, 0
3, 55296, Note_on_c, 0, 65, 77
3, 55534, Note_on_c, 0, 58, 0
3, 55680, Note_on_c, 0, 65, 0
3, 56044, Control_c, 0, 64, 0
3, 56448, Note_on_c, 0, 59, 62
3, 56448, Note_on_c, 0, 65, 58
3, 56462, Control_c, 0, 64, 127
3, 57216, Note_on_c, 0, 55, 68
3, 57405, Note_on_c, 0, 59, 0
3, 57433, Note_on_c, 0, 65, 0
3, 57573, Control_c, 0, 64, 0
3, 57600, Note_on_c, 0, 43, 73
3, 57635, Control_c, 0, 64, 127
3, 57789, Note_on_c, 0, 55, 0
3, 57984, Note_on_c, 0, 43, 0
3, 58348, Control_c, 0, 64, 0
3, 58752, Note_on_c, 0, 58, 66
3, 58752, Note_on_c, 0, 60, 62
3, 58766, Control_c, 0, 64, 127
3, 59520, Note_on_c, 0, 48, 65
3, 59723, Note_on_c, 0, 60, 0
3, 59751, Note_on_c, 0, 58, 0
3, 59904, Note_on_c, 0, 36, 62
3, 60100, Note_on_c, 0, 48, 0
3, 60288, Note_on_c, 0, 36, 0
3, 61015, Control_c, 0, 64, 0
3, 61056, Note_on_c, 0, 50, 54
3, 61056, Note_on_c, 0, 58, 46
3, 61077, Control_c, 0, 64, 127
3, 61811, Note_on_c, 0, 58, 0
3, 61824, Note_on_c, 0, 41, 34
3, 62006, Note_on_c, 0, 50, 0
3, 62160, Control_c, 0, 64, 0
3, 62184, Note_on_c, 0, 41, 0
3, 62208, Note_on_c, 0, 41, 44
3, 62208, Note_on_c, 0, 48, 52
3, 62568, Note_on_c, 0, 48, 0
3, 62568, Note_on_c, 0, 41, 0
3, 62592, Note_on_c, 0, 41, 44
3, 62592, Note_on_c, 0, 50, 52
3, 62952, Note_on_c, 0, 50, 0
3, 62952, Note_on_c, 0, 41, 0
3, 62976, Note_on_c, 0, 41, 38
3, 62976, Note_on_c, 0, 51, 46
3, 62997, Control_c, 0, 64, 127
3, 63336, Note_on_c, 0, 51, 0
3, 63336, Note_on_c, 0, 41, 0
3, 63360, Note_on_c, 0, 46, 38
3, 63360, Note_on_c, 0, 50, 46
3, 64135, Control_c, 0, 64, 0
3, 64512, Note_on_c, 0, 46, 0
3, 64512, Note_on_c, 0, 34, 64
3, 64526, Note_on_c, 0, 50, 0
3, 64896, Note_on_c, 0, 34, 0
3, 65664, Note_on_c, 0, 57, 60
3, 65664, Note_on_c, 0, 63, 60
3, 65685, Control_c, 0, 64, 127
3, 66432, Note_on_c, 0, 53, 65
3, 66635, Note_on_c, 0, 57, 0
3, 66670, Note_on_c, 0, 63, 0
3, 66816, Note_on_c, 0, 41, 78
3, 67019, Note_on_c, 0, 53, 0
3, 67200, Note_on_c, 0, 41, 0
3, 67207, Control_c, 0, 64, 0
3, 67968, Note_on_c, 0, 53, 54
3, 67968, Note_on_c, 0, 58, 54
3, 67968, Note_on_c, 0, 62, 54
3, 67989, Control_c, 0, 64, 127
3, 68702, Note_on_c, 0, 53, 0
3, 68736, Note_on_c, 0, 53, 60
3, 68932, Note_on_c, 0, 58, 0
3, 68967, Note_on_c, 0, 62, 0
3, 69120, Note_on_c, 0, 41, 69
3, 69344, Note_on_c, 0, 53, 0
3, 69504, Note_on_c, 0, 41, 0
3, 69511, Control_c, 0, 64, 0
3, 70272, Note_on_c, 0, 60, 54
3, 70272, Note_on_c, 0, 65, 54
3, 70293, Control_c, 0, 64, 127
3, 70656, Note_on_c, 0, 69, 54
3, 71369, Control_c, 0, 64, 0
3, 71390, Note_on_c, 0, 65, 0
3, 71424, Note_on_c, 0, 63, 54
3, 71424, Note_on_c, 0, 65, 54
3, 71431, Note_on_c, 0, 69, 0
3, 71431, Note_on_c, 0, 60, 0
3, 71459, Control_c, 0, 64, 127
3, 71808, Note_on_c, 0, 69, 54
3, 72549, Control_c, 0, 64, 0
3, 72563, Note_on_c, 0, 65, 0
3, 72576, Note_on_c, 0, 69, 0
3, 72576, Note_on_c, 0, 63, 0
3, 72576, Note_on_c, 0, 50, 69
3, 72604, Control_c, 0, 64, 127
3, 73344, Note_on_c, 0, 50, 0
3, 73344, Note_on_c, 0, 58, 65
3, 73344, Note_on_c, 0, 65, 58
3, 73728, Note_on_c, 0, 65, 0
3, 73728, Note_on_c, 0, 58, 0
3, 73728, Note_on_c, 0, 70, 71
3, 73728, Note_on_c, 0, 77, 54
3, 74469, Control_c, 0, 64, 0
3, 74483, Note_on_c, 0, 77, 0
3, 74503, Note_on_c, 0, 70, 0
3, 74880, Note_on_c, 0, 59, 52
3, 74880, Note_on_c, 0, 65, 36
3, 74894, Control_c, 0, 64, 127
3, 75648, Note_on_c, 0, 55, 47
3, 75844, Note_on_c, 0, 65, 0
3, 75851, Note_on_c, 0, 59, 0
3, 76032, Note_on_c, 0, 43, 52
3, 76228, Note_on_c, 0, 55, 0
3, 76396, Control_c, 0, 64, 0
3, 76416, Note_on_c, 0, 43, 0
3, 77184, Note_on_c, 0, 58, 54
3, 77184, Note_on_c, 0, 60, 40
3, 77184, Note_on_c, 0, 64, 52
3, 77219, Control_c, 0, 64, 127
3, 77952, Note_on_c, 0, 48, 57
3, 78141, Note_on_c, 0, 64, 0
3, 78155, Note_on_c, 0, 58, 0
3, 78169, Note_on_c, 0, 60, 0
3, 78336, Note_on_c, 0, 48, 0
3, 78336, Note_on_c, 0, 58, 50
3, 78336, Note_on_c, 0, 60, 36
3, 78336, Note_on_c, 0, 64, 49
3, 78720, Note_on_c, 0, 60, 0
3, 78720, Note_on_c, 0, 58, 0
3, 78734, Note_on_c, 0, 64, 0
3, 79440, Control_c, 0, 64, 0
3, 79488, Note_on_c, 0, 53, 69
3, 79488, Note_on_c, 0, 58, 69
3, 79488, Note_on_c, 0, 62, 69
3, 79502, Control_c, 0, 64, 127
3, 79848, Note_on_c, 0, 62, 0
3, 79848, Note_on_c, 0, 58, 0
3, 79848, Note_on_c, 0, 53, 0
3, 79872, Note_on_c, 0, 53, 54
3, 80232, Note_on_c, 0, 53, 0
3, 80256, Note_on_c, 0, 41, 54
3, 80389, Control_c, 0, 64, 0
3, 80616, Note_on_c, 0, 41, 0
3, 80640, Note_on_c, 0, 53, 67
3, 80640, Note_on_c, 0, 60, 67
3, 81000, Note_on_c, 0, 60, 0
3, 81000, Note_on_c, 0, 53, 0
3, 81024, Note_on_c, 0, 53, 62
3, 81024, Note_on_c, 0, 62, 62
3, 81384, Note_on_c, 0, 62, 0
3, 81384, Note_on_c, 0, 53, 0
3, 81408, Note_on_c, 0, 53, 58
3, 81408, Note_on_c, 0, 63, 58
3, 81768, Note_on_c, 0, 63, 0
3, 81768, Note_on_c, 0, 53, 0
3, 81792, Note_on_c, 0, 46, 73
3, 81841, Control_c, 0, 64, 127
3, 82176, Note_on_c, 0, 53, 63
3, 82176, Note_on_c, 0, 58, 63
3, 82176, Note_on_c, 0, 62, 63
3, 82428, Note_on_c, 0, 46, 0
3, 82560, Note_on_c, 0, 53, 0
3, 82560, Note_on_c, 0, 58, 0
3, 82560, Note_on_c, 0, 62, 0
3, 82910, Control_c, 0, 64, 0
3, 82944, Note_on_c, 0, 47, 69
3, 82965, Control_c, 0, 64, 127
3, 83328, Note_on_c, 0, 53, 62
3, 83328, Note_on_c, 0, 56, 62
3, 83328, Note_on_c, 0, 62, 62
3, 83552, Note_on_c, 0, 47, 0
3, 83712, Note_on_c, 0, 53, 0
3, 83712, Note_on_c, 0, 56, 0
3, 83712, Note_on_c, 0, 62, 0
3, 84048, Control_c, 0, 64, 0
3, 84096, Control_c, 0, 64, 127
3, 84096, Note_on_c, 0, 48, 67
3, 84480, Note_on_c, 0, 53, 62
3, 84480, Note_on_c, 0, 57, 62
3, 84480, Note_on_c, 0, 63, 62
3, 84732, Note_on_c, 0, 48, 0
3, 84864, Note_on_c, 0, 53, 0
3, 84864, Note_on_c, 0, 57, 0
3, 84864, Note_on_c, 0, 63, 0
3, 85248, Note_on_c, 0, 57, 73
3, 85632, Control_c, 0, 64, 0
3, 86387, Note_on_c, 0, 57, 0
3, 86400, Note_on_c, 0, 46, 71
3, 86428, Control_c, 0, 64, 127
3, 86784, Note_on_c, 0, 53, 65
3, 87504, Control_c, 0, 64, 0
3, 87552, Note_on_c, 0, 46, 0
3, 87552, Note_on_c, 0, 47, 75
3, 87580, Control_c, 0, 64, 127
3, 87587, Note_on_c, 0, 53, 0
3, 87936, Note_on_c, 0, 53, 62
3, 88411, Control_c, 0, 64, 0
3, 88691, Note_on_c, 0, 53, 0
3, 88691, Note_on_c, 0, 47, 0
3, 88704, Note_on_c, 0, 48, 70
3, 88704, Note_on_c, 0, 54, 71
3, 88718, Control_c, 0, 64, 127
3, 89445, Control_c, 0, 64, 0
3, 89472, Note_on_c, 0, 53, 72
3, 89493, Note_on_c, 0, 54, 0
3, 89493, Control_c, 0, 64, 127
3, 89500, Note_on_c, 0, 48, 0
3, 89856, Note_on_c, 0, 53, 0
3, 89856, Note_on_c, 0, 41, 49
3, 90024, Control_c, 0, 64, 0
3, 90048, Note_on_c, 0, 52, 54
3, 90240, Note_on_c, 0, 41, 0
3, 90240, Note_on_c, 0, 51, 66
3, 90324, Note_on_c, 0, 52, 0
3, 90432, Note_on_c, 0, 50, 54
3, 90527, Note_on_c, 0, 51, 0
3, 90624, Note_on_c, 0, 51, 54
3, 90694, Note_on_c, 0, 50, 0
3, 90816, Note_on_c, 0, 48, 54
3, 90883, Note_on_c, 0, 51, 0
3, 91008, Note_on_c, 0, 48, 0
3, 91008, Note_on_c, 0, 46, 48
3, 91008, Note_on_c, 0, 53, 48
3, 91036, Control_c, 0, 64, 127
3, 91763, Note_on_c, 0, 53, 0
3, 91776, Note_on_c, 0, 58, 42
3, 91776, Note_on_c, 0, 61, 42
3, 91783, Note_on_c, 0, 46, 0
3, 91937, Control_c, 0, 64, 0
3, 92160, Note_on_c, 0, 61, 0
3, 92160, Note_on_c, 0, 58, 0
3, 92160, Note_on_c, 0, 58, 44
3, 92160, Note_on_c, 0, 62, 44
3, 92181, Control_c, 0, 64, 127
3, 92908, Control_c, 0, 64, 0
3, 92915, Note_on_c, 0, 58, 0
3, 92928, Note_on_c, 0, 58, 38
3, 92928, Note_on_c, 0, 61, 38
3, 92935, Note_on_c, 0, 62, 0
3, 93312, Note_on_c, 0, 61, 0
3, 93312, Note_on_c, 0, 58, 0
3, 93312, Note_on_c, 0, 58, 44
3, 93312, Note_on_c, 0, 62, 44
3, 93696, Note_on_c, 0, 62, 0
3, 93696, Note_on_c, 0, 58, 0
3, 95616, Control_c, 0, 10, 20
3, 95616, Control_c, 0, 10, 20
3, 95616, Note_on_c, 0, 64, 61
3, 95616, Note_on_c, 0, 70, 61
3, 95630, Control_c, 0, 64, 127
3, 96364, Control_c, 0, 64, 0
3, 96587, Note_on_c, 0, 64, 0
3, 96601, Note_on_c, 0, 70, 0
3, 96768, Note_on_c, 0, 53, 70
3, 96768, Note_on_c, 0, 60, 70
3, 96796, Control_c, 0, 64, 127
3, 97886, Control_c, 0, 64, 0
3, 97907, Note_on_c, 0, 53, 0
3, 97920, Note_on_c, 0, 46, 95
3, 97920, Note_on_c, 0, 53, 95
3, 97927, Note_on_c, 0, 60, 0
3, 97955, Control_c, 0, 64, 127
3, 98088, Note_on_c, 0, 46, 0
3, 98095, Note_on_c, 0, 53, 0
3, 98207, Control_c, 0, 64, 0
3, 98304, Note_on_c, 0, 46, 97
3, 98304, Note_on_c, 0, 53, 93
3, 98318, Control_c, 0, 64, 127
3, 98486, Note_on_c, 0, 53, 0
3, 98493, Note_on_c, 0, 46, 0
3, 98612, Control_c, 0, 64, 0
3, 98612, End_track
0, 0, End_of_file
