0, 0, Header, 1, 2, 192
1, 0, Start_track
1, 0, Title_t, "Arlequine; Op 53"
1, 0, Text_t, "Roll expression/accent tracks, where present, converted to MIDI velocties.\012"
1, 0, Text_t, "/music_category: Piano_Roll\012"
1, 0, Text_t, "/title: Arlequine; Op 53\012"
1, 0, Text_t, "/subtitle: \012"
1, 0, Text_t, "/roll_type: Red T100 Welte\012"
1, 0, Text_t, "/roll_manufacturer: Welte\012"
1, 0, Text_t, "/roll_number: 2539\012"
1, 0, Text_t, "/original roll #: \012"
1, 0, Text_t, "/original manufacturer: \012"
1, 0, Text_t, "/performer: Meroe\012"
1, 0, Text_t, "/composer: Chaminade\012"
1, 0, Text_t, "/lyricist: \012"
1, 0, Text_t, "/copyright: \012"
1, 0, Text_t, "/scanned_by:  John McClelland\012"
1, 0, Text_t, "/scan_system:  MK3a twin array w/optical encoder\012"
1, 0, Text_t, "/date_scanned: Nov-Dec 2004\012"
1, 0, Text_t, "/owner: \012"
1, 0, Time_signature, 4, 2, 24, 8
1, 0, Key_signature, 0, "major"
1, 0, Tempo, 500000
1, 0, Marker_t, "Standard MIDI:LPI 108:Tempo  98: 03-01-2005"
1, 0, End_track
2, 0, Start_track
2, 0, Title_t, "Arlequine; Op 53"
2, 0, Program_c, 0, 0
2, 573, Note_on_c, 0, 76, 56
2, 580, Control_c, 0, 64, 127
2, 611, Note_on_c, 0, 74, 58
2, 620, Note_on_c, 0, 76, 0
2, 644, Note_on_c, 0, 72, 59
2, 649, Note_on_c, 0, 74, 0
2, 672, Note_on_c, 0, 84, 58
2, 673, Note_on_c, 0, 72, 0
2, 708, Note_on_c, 0, 84, 0
2, 800, Note_on_c, 0, 76, 56
2, 835, Note_on_c, 0, 74, 62
2, 840, Note_on_c, 0, 76, 0
2, 853, Note_on_c, 0, 72, 60
2, 861, Note_on_c, 0, 74, 0
2, 885, Note_on_c, 0, 72, 0
2, 888, Note_on_c, 0, 84, 56
2, 912, Note_on_c, 0, 84, 0
2, 990, Note_on_c, 0, 76, 60
2, 1025, Note_on_c, 0, 74, 61
2, 1031, Note_on_c, 0, 76, 0
2, 1059, Note_on_c, 0, 74, 0
2, 1059, Note_on_c, 0, 72, 61
2, 1086, Note_on_c, 0, 84, 59
2, 1092, Note_on_c, 0, 72, 0
2, 1119, Note_on_c, 0, 84, 0
2, 1172, Note_on_c, 0, 76, 62
2, 1190, Note_on_c, 0, 74, 62
2, 1210, Note_on_c, 0, 76, 0
2, 1228, Note_on_c, 0, 74, 0
2, 1228, Note_on_c, 0, 72, 58
2, 1261, Note_on_c, 0, 72, 0
2, 1265, Note_on_c, 0, 84, 58
2, 1292, Note_on_c, 0, 84, 0
2, 1353, Control_c, 0, 64, 0
2, 1355, Note_on_c, 0, 76, 58
2, 1359, Note_on_c, 0, 71, 63
2, 1383, Note_on_c, 0, 74, 58
2, 1395, Note_on_c, 0, 76, 0
2, 1412, Note_on_c, 0, 72, 59
2, 1426, Note_on_c, 0, 74, 0
2, 1450, Note_on_c, 0, 72, 0
2, 1456, Control_c, 0, 64, 127
2, 1458, Note_on_c, 0, 84, 62
2, 1492, Note_on_c, 0, 84, 0
2, 1552, Note_on_c, 0, 76, 56
2, 1575, Note_on_c, 0, 74, 60
2, 1577, Note_on_c, 0, 71, 0
2, 1589, Note_on_c, 0, 76, 0
2, 1612, Note_on_c, 0, 72, 61
2, 1614, Note_on_c, 0, 74, 0
2, 1653, Note_on_c, 0, 84, 63
2, 1655, Note_on_c, 0, 72, 0
2, 1687, Note_on_c, 0, 84, 0
2, 1751, Note_on_c, 0, 76, 56
2, 1777, Control_c, 0, 67, 0
2, 1779, Note_on_c, 0, 74, 61
2, 1790, Note_on_c, 0, 76, 0
2, 1810, Note_on_c, 0, 72, 62
2, 1819, Note_on_c, 0, 74, 0
2, 1842, Note_on_c, 0, 84, 56
2, 1849, Note_on_c, 0, 72, 0
2, 1876, Note_on_c, 0, 84, 0
2, 1938, Note_on_c, 0, 76, 60
2, 1970, Note_on_c, 0, 74, 57
2, 1987, Note_on_c, 0, 76, 0
2, 2001, Note_on_c, 0, 74, 0
2, 2007, Note_on_c, 0, 72, 61
2, 2038, Note_on_c, 0, 72, 0
2, 2038, Note_on_c, 0, 84, 58
2, 2066, Note_on_c, 0, 84, 0
2, 2106, Note_on_c, 0, 76, 58
2, 2112, Note_on_c, 0, 70, 57
2, 2134, Note_on_c, 0, 74, 59
2, 2142, Note_on_c, 0, 76, 0
2, 2155, Note_on_c, 0, 70, 0
2, 2157, Control_c, 0, 64, 0
2, 2165, Note_on_c, 0, 72, 58
2, 2169, Note_on_c, 0, 74, 0
2, 2192, Note_on_c, 0, 72, 0
2, 2203, Note_on_c, 0, 86, 58
2, 2232, Note_on_c, 0, 60, 58
2, 2239, Note_on_c, 0, 86, 0
2, 2268, Note_on_c, 0, 60, 0
2, 2286, Note_on_c, 0, 76, 63
2, 2292, Note_on_c, 0, 70, 63
2, 2315, Note_on_c, 0, 74, 59
2, 2326, Note_on_c, 0, 76, 0
2, 2344, Note_on_c, 0, 72, 62
2, 2346, Note_on_c, 0, 74, 0
2, 2352, Note_on_c, 0, 70, 0
2, 2375, Note_on_c, 0, 72, 0
2, 2387, Note_on_c, 0, 84, 56
2, 2398, Note_on_c, 0, 60, 52
2, 2421, Note_on_c, 0, 84, 0
2, 2433, Note_on_c, 0, 60, 0
2, 2464, Note_on_c, 0, 67, 59
2, 2472, Note_on_c, 0, 76, 57
2, 2485, Note_on_c, 0, 74, 63
2, 2505, Note_on_c, 0, 76, 0
2, 2505, Note_on_c, 0, 67, 0
2, 2520, Note_on_c, 0, 72, 60
2, 2525, Note_on_c, 0, 74, 0
2, 2550, Note_on_c, 0, 60, 51
2, 2558, Note_on_c, 0, 72, 0
2, 2560, Note_on_c, 0, 82, 58
2, 2591, Note_on_c, 0, 60, 0
2, 2594, Note_on_c, 0, 82, 0
2, 2640, Note_on_c, 0, 76, 57
2, 2648, Note_on_c, 0, 65, 57
2, 2666, Note_on_c, 0, 74, 56
2, 2677, Note_on_c, 0, 76, 0
2, 2691, Note_on_c, 0, 65, 0
2, 2697, Note_on_c, 0, 72, 57
2, 2703, Note_on_c, 0, 74, 0
2, 2725, Note_on_c, 0, 81, 62
2, 2729, Note_on_c, 0, 60, 55
2, 2735, Note_on_c, 0, 72, 0
2, 2765, Note_on_c, 0, 81, 0
2, 2769, Note_on_c, 0, 60, 0
2, 2806, Note_on_c, 0, 76, 58
2, 2811, Note_on_c, 0, 64, 51
2, 2840, Note_on_c, 0, 74, 63
2, 2842, Note_on_c, 0, 76, 0
2, 2851, Note_on_c, 0, 64, 0
2, 2859, Note_on_c, 0, 72, 57
2, 2874, Note_on_c, 0, 74, 0
2, 2881, Note_on_c, 0, 79, 61
2, 2894, Note_on_c, 0, 60, 54
2, 2896, Note_on_c, 0, 72, 0
2, 2925, Note_on_c, 0, 79, 0
2, 2932, Note_on_c, 0, 60, 0
2, 2955, Note_on_c, 0, 76, 61
2, 2970, Note_on_c, 0, 62, 58
2, 2986, Note_on_c, 0, 74, 63
2, 2994, Note_on_c, 0, 76, 0
2, 3008, Note_on_c, 0, 62, 0
2, 3014, Note_on_c, 0, 74, 0
2, 3014, Note_on_c, 0, 72, 58
2, 3028, Note_on_c, 0, 60, 56
2, 3032, Control_c, 0, 67, 127
2, 3047, Note_on_c, 0, 72, 0
2, 3048, Note_on_c, 0, 77, 59
2, 3067, Note_on_c, 0, 60, 0
2, 3081, Note_on_c, 0, 77, 0
2, 3101, Note_on_c, 0, 76, 58
2, 3101, Note_on_c, 0, 72, 57
2, 3120, Note_on_c, 0, 72, 0
2, 3121, Note_on_c, 0, 74, 61
2, 3123, Control_c, 0, 64, 127
2, 3131, Note_on_c, 0, 76, 0
2, 3145, Note_on_c, 0, 74, 0
2, 3145, Note_on_c, 0, 72, 57
2, 3172, Note_on_c, 0, 74, 63
2, 3174, Note_on_c, 0, 72, 0
2, 3182, Note_on_c, 0, 70, 59
2, 3191, Note_on_c, 0, 76, 57
2, 3201, Note_on_c, 0, 74, 0
2, 3205, Note_on_c, 0, 70, 0
2, 3227, Note_on_c, 0, 76, 0
2, 3235, Note_on_c, 0, 77, 59
2, 3258, Note_on_c, 0, 69, 61
2, 3266, Note_on_c, 0, 79, 56
2, 3268, Note_on_c, 0, 77, 0
2, 3285, Note_on_c, 0, 81, 60
2, 3292, Note_on_c, 0, 69, 0
2, 3309, Note_on_c, 0, 82, 57
2, 3311, Note_on_c, 0, 79, 0
2, 3319, Note_on_c, 0, 81, 0
2, 3339, Note_on_c, 0, 84, 61
2, 3339, Note_on_c, 0, 67, 60
2, 3343, Note_on_c, 0, 82, 0
2, 3372, Note_on_c, 0, 67, 0
2, 3372, Note_on_c, 0, 84, 0
2, 3378, Note_on_c, 0, 86, 60
2, 3401, Note_on_c, 0, 88, 62
2, 3409, Note_on_c, 0, 86, 0
2, 3424, Note_on_c, 0, 89, 66
2, 3434, Note_on_c, 0, 88, 0
2, 3443, Note_on_c, 0, 53, 57
2, 3459, Note_on_c, 0, 89, 0
2, 3482, Note_on_c, 0, 53, 0
2, 3600, Note_on_c, 0, 69, 65
2, 3600, Note_on_c, 0, 60, 56
2, 3623, Control_c, 0, 64, 0
2, 3639, Note_on_c, 0, 60, 0
2, 3641, Note_on_c, 0, 69, 0
2, 3832, Note_on_c, 0, 48, 57
2, 3875, Note_on_c, 0, 48, 0
2, 3918, Control_c, 0, 64, 127
2, 3938, Note_on_c, 0, 41, 53
2, 3973, Note_on_c, 0, 41, 0
2, 4047, Note_on_c, 0, 57, 58
2, 4047, Note_on_c, 0, 48, 58
2, 4053, Control_c, 0, 64, 0
2, 4080, Note_on_c, 0, 48, 0
2, 4081, Note_on_c, 0, 57, 0
2, 4231, Note_on_c, 0, 48, 55
2, 4262, Note_on_c, 0, 48, 0
2, 4311, Control_c, 0, 64, 127
2, 4329, Note_on_c, 0, 41, 56
2, 4331, Note_on_c, 0, 69, 58
2, 4366, Note_on_c, 0, 69, 0
2, 4368, Note_on_c, 0, 67, 56
2, 4382, Note_on_c, 0, 41, 0
2, 4394, Note_on_c, 0, 67, 0
2, 4396, Note_on_c, 0, 65, 63
2, 4423, Note_on_c, 0, 65, 0
2, 4429, Note_on_c, 0, 69, 56
2, 4435, Note_on_c, 0, 57, 53
2, 4440, Note_on_c, 0, 48, 53
2, 4463, Note_on_c, 0, 67, 61
2, 4466, Note_on_c, 0, 57, 0
2, 4466, Note_on_c, 0, 69, 0
2, 4474, Note_on_c, 0, 48, 0
2, 4487, Note_on_c, 0, 65, 58
2, 4492, Note_on_c, 0, 67, 0
2, 4514, Note_on_c, 0, 74, 57
2, 4518, Control_c, 0, 64, 0
2, 4522, Note_on_c, 0, 65, 0
2, 4557, Note_on_c, 0, 74, 0
2, 4637, Note_on_c, 0, 36, 51
2, 4664, Note_on_c, 0, 36, 0
2, 4714, Control_c, 0, 64, 127
2, 4716, Note_on_c, 0, 41, 56
2, 4718, Note_on_c, 0, 69, 58
2, 4739, Note_on_c, 0, 67, 62
2, 4753, Note_on_c, 0, 69, 0
2, 4757, Note_on_c, 0, 41, 0
2, 4772, Note_on_c, 0, 65, 58
2, 4774, Note_on_c, 0, 67, 0
2, 4800, Note_on_c, 0, 65, 0
2, 4806, Note_on_c, 0, 57, 53
2, 4806, Note_on_c, 0, 48, 57
2, 4810, Note_on_c, 0, 69, 61
2, 4839, Note_on_c, 0, 57, 0
2, 4839, Note_on_c, 0, 67, 63
2, 4841, Note_on_c, 0, 48, 0
2, 4847, Note_on_c, 0, 69, 0
2, 4877, Note_on_c, 0, 67, 0
2, 4877, Note_on_c, 0, 65, 57
2, 4902, Note_on_c, 0, 72, 59
2, 4904, Control_c, 0, 64, 0
2, 4908, Note_on_c, 0, 65, 0
2, 4939, Note_on_c, 0, 72, 0
2, 4989, Note_on_c, 0, 36, 54
2, 5012, Note_on_c, 0, 36, 0
2, 5065, Control_c, 0, 64, 127
2, 5069, Note_on_c, 0, 69, 59
2, 5073, Note_on_c, 0, 41, 54
2, 5100, Note_on_c, 0, 67, 59
2, 5109, Note_on_c, 0, 69, 0
2, 5111, Note_on_c, 0, 41, 0
2, 5129, Note_on_c, 0, 65, 62
2, 5143, Note_on_c, 0, 67, 0
2, 5160, Note_on_c, 0, 74, 59
2, 5165, Note_on_c, 0, 65, 0
2, 5167, Note_on_c, 0, 57, 54
2, 5173, Note_on_c, 0, 48, 57
2, 5191, Control_c, 0, 64, 0
2, 5200, Note_on_c, 0, 74, 0
2, 5206, Note_on_c, 0, 48, 0
2, 5209, Note_on_c, 0, 57, 0
2, 5256, Note_on_c, 0, 69, 61
2, 5280, Note_on_c, 0, 67, 60
2, 5294, Note_on_c, 0, 69, 0
2, 5308, Note_on_c, 0, 65, 60
2, 5314, Note_on_c, 0, 67, 0
2, 5332, Note_on_c, 0, 76, 61
2, 5343, Note_on_c, 0, 65, 0
2, 5377, Note_on_c, 0, 76, 0
2, 5377, Note_on_c, 0, 36, 56
2, 5412, Note_on_c, 0, 36, 0
2, 5416, Control_c, 0, 64, 127
2, 5434, Note_on_c, 0, 69, 63
2, 5441, Note_on_c, 0, 41, 53
2, 5459, Note_on_c, 0, 67, 56
2, 5465, Note_on_c, 0, 69, 0
2, 5477, Note_on_c, 0, 41, 0
2, 5484, Note_on_c, 0, 65, 57
2, 5490, Note_on_c, 0, 67, 0
2, 5520, Note_on_c, 0, 65, 0
2, 5533, Note_on_c, 0, 77, 61
2, 5533, Note_on_c, 0, 57, 53
2, 5542, Note_on_c, 0, 48, 57
2, 5567, Note_on_c, 0, 77, 0
2, 5575, Note_on_c, 0, 48, 0
2, 5575, Note_on_c, 0, 57, 0
2, 5595, Note_on_c, 0, 69, 57
2, 5622, Note_on_c, 0, 67, 57
2, 5640, Note_on_c, 0, 65, 58
2, 5642, Note_on_c, 0, 69, 0
2, 5661, Note_on_c, 0, 67, 0
2, 5679, Note_on_c, 0, 81, 61
2, 5681, Note_on_c, 0, 65, 0
2, 5689, Note_on_c, 0, 41, 53
2, 5691, Note_on_c, 0, 29, 55
2, 5716, Note_on_c, 0, 81, 0
2, 5723, Note_on_c, 0, 29, 0
2, 5725, Note_on_c, 0, 41, 0
2, 5764, Note_on_c, 0, 79, 64
2, 5764, Note_on_c, 0, 73, 59
2, 5770, Control_c, 0, 64, 0
2, 5791, Note_on_c, 0, 77, 61
2, 5797, Note_on_c, 0, 79, 0
2, 5803, Note_on_c, 0, 73, 0
2, 5811, Note_on_c, 0, 76, 63
2, 5826, Note_on_c, 0, 77, 0
2, 5840, Note_on_c, 0, 70, 61
2, 5844, Note_on_c, 0, 76, 0
2, 5853, Note_on_c, 0, 79, 60
2, 5873, Note_on_c, 0, 70, 0
2, 5880, Note_on_c, 0, 77, 63
2, 5885, Note_on_c, 0, 79, 0
2, 5894, Note_on_c, 0, 73, 62
2, 5908, Note_on_c, 0, 76, 61
2, 5914, Note_on_c, 0, 77, 0
2, 5934, Note_on_c, 0, 73, 0
2, 5941, Note_on_c, 0, 76, 0
2, 5948, Note_on_c, 0, 62, 62
2, 5952, Note_on_c, 0, 69, 58
2, 5953, Control_c, 0, 64, 127
2, 5955, Note_on_c, 0, 77, 62
2, 5974, Note_on_c, 0, 76, 62
2, 5988, Note_on_c, 0, 77, 0
2, 6002, Note_on_c, 0, 74, 61
2, 6011, Note_on_c, 0, 76, 0
2, 6032, Note_on_c, 0, 74, 0
2, 6036, Note_on_c, 0, 77, 65
2, 6047, Control_c, 0, 67, 0
2, 6048, Note_on_c, 0, 69, 0
2, 6054, Note_on_c, 0, 62, 0
2, 6067, Note_on_c, 0, 76, 60
2, 6072, Control_c, 0, 64, 0
2, 6076, Note_on_c, 0, 77, 0
2, 6091, Note_on_c, 0, 74, 56
2, 6103, Note_on_c, 0, 76, 0
2, 6121, Note_on_c, 0, 74, 0
2, 6134, Control_c, 0, 64, 0
2, 6150, Note_on_c, 0, 74, 60
2, 6150, Note_on_c, 0, 68, 58
2, 6175, Note_on_c, 0, 72, 55
2, 6181, Note_on_c, 0, 74, 0
2, 6187, Note_on_c, 0, 68, 0
2, 6199, Note_on_c, 0, 71, 61
2, 6199, Note_on_c, 0, 65, 62
2, 6212, Note_on_c, 0, 72, 0
2, 6226, Note_on_c, 0, 65, 0
2, 6232, Note_on_c, 0, 71, 0
2, 6232, Note_on_c, 0, 74, 59
2, 6238, Note_on_c, 0, 68, 61
2, 6261, Note_on_c, 0, 72, 61
2, 6271, Note_on_c, 0, 68, 0
2, 6271, Note_on_c, 0, 74, 0
2, 6284, Note_on_c, 0, 71, 58
2, 6286, Note_on_c, 0, 65, 62
2, 6291, Note_on_c, 0, 72, 0
2, 6314, Note_on_c, 0, 65, 0
2, 6320, Note_on_c, 0, 71, 0
2, 6324, Note_on_c, 0, 72, 56
2, 6335, Control_c, 0, 64, 127
2, 6335, Note_on_c, 0, 64, 56
2, 6335, Note_on_c, 0, 57, 54
2, 6353, Note_on_c, 0, 72, 0
2, 6361, Note_on_c, 0, 71, 62
2, 6390, Note_on_c, 0, 71, 0
2, 6390, Note_on_c, 0, 69, 61
2, 6419, Note_on_c, 0, 72, 57
2, 6421, Note_on_c, 0, 69, 0
2, 6427, Note_on_c, 0, 64, 0
2, 6427, Note_on_c, 0, 57, 0
2, 6443, Note_on_c, 0, 71, 59
2, 6449, Note_on_c, 0, 72, 0
2, 6469, Control_c, 0, 64, 0
2, 6473, Note_on_c, 0, 69, 62
2, 6475, Note_on_c, 0, 71, 0
2, 6500, Note_on_c, 0, 55, 52
2, 6502, Note_on_c, 0, 69, 0
2, 6502, Note_on_c, 0, 67, 55
2, 6502, Note_on_c, 0, 64, 57
2, 6507, Control_c, 0, 67, 127
2, 6538, Note_on_c, 0, 69, 59
2, 6540, Note_on_c, 0, 67, 0
2, 6549, Control_c, 0, 64, 127
2, 6555, Note_on_c, 0, 71, 62
2, 6566, Note_on_c, 0, 69, 0
2, 6584, Note_on_c, 0, 71, 0
2, 6599, Note_on_c, 0, 72, 62
2, 6599, Note_on_c, 0, 60, 58
2, 6613, Note_on_c, 0, 64, 0
2, 6634, Note_on_c, 0, 72, 0
2, 6638, Note_on_c, 0, 76, 62
2, 6642, Note_on_c, 0, 55, 0
2, 6665, Note_on_c, 0, 60, 0
2, 6671, Note_on_c, 0, 79, 57
2, 6672, Control_c, 0, 64, 0
2, 6676, Note_on_c, 0, 76, 0
2, 6701, Note_on_c, 0, 61, 61
2, 6701, Note_on_c, 0, 55, 60
2, 6707, Note_on_c, 0, 79, 0
2, 6707, Note_on_c, 0, 64, 61
2, 6711, Note_on_c, 0, 69, 60
2, 6729, Note_on_c, 0, 71, 58
2, 6744, Note_on_c, 0, 69, 0
2, 6750, Control_c, 0, 64, 127
2, 6763, Note_on_c, 0, 73, 64
2, 6768, Note_on_c, 0, 71, 0
2, 6783, Note_on_c, 0, 61, 0
2, 6787, Note_on_c, 0, 64, 0
2, 6795, Note_on_c, 0, 74, 64
2, 6797, Note_on_c, 0, 65, 63
2, 6797, Note_on_c, 0, 62, 60
2, 6801, Note_on_c, 0, 73, 0
2, 6834, Note_on_c, 0, 77, 58
2, 6836, Note_on_c, 0, 55, 0
2, 6836, Note_on_c, 0, 62, 0
2, 6840, Note_on_c, 0, 65, 0
2, 6840, Note_on_c, 0, 74, 0
2, 6856, Note_on_c, 0, 81, 64
2, 6872, Note_on_c, 0, 77, 0
2, 6887, Note_on_c, 0, 71, 61
2, 6888, Note_on_c, 0, 62, 60
2, 6888, Note_on_c, 0, 55, 59
2, 6892, Note_on_c, 0, 65, 63
2, 6898, Note_on_c, 0, 81, 0
2, 6918, Note_on_c, 0, 74, 61
2, 6924, Note_on_c, 0, 71, 0
2, 6951, Note_on_c, 0, 77, 66
2, 6957, Note_on_c, 0, 74, 0
2, 6967, Note_on_c, 0, 65, 0
2, 6967, Note_on_c, 0, 55, 0
2, 6967, Note_on_c, 0, 62, 0
2, 6988, Note_on_c, 0, 77, 0
2, 6988, Note_on_c, 0, 79, 66
2, 7022, Note_on_c, 0, 83, 66
2, 7028, Note_on_c, 0, 79, 0
2, 7036, Note_on_c, 0, 86, 60
2, 7051, Note_on_c, 0, 83, 0
2, 7061, Note_on_c, 0, 64, 62
2, 7063, Note_on_c, 0, 84, 68
2, 7063, Note_on_c, 0, 60, 62
2, 7072, Note_on_c, 0, 86, 0
2, 7097, Note_on_c, 0, 84, 0
2, 7099, Note_on_c, 0, 64, 0
2, 7099, Note_on_c, 0, 60, 0
2, 7202, Note_on_c, 0, 36, 61
2, 7204, Note_on_c, 0, 60, 60
2, 7206, Note_on_c, 0, 48, 59
2, 7212, Control_c, 0, 67, 0
2, 7241, Note_on_c, 0, 60, 0
2, 7245, Note_on_c, 0, 36, 0
2, 7247, Note_on_c, 0, 48, 0
2, 7261, Control_c, 0, 64, 0
2, 7615, Note_on_c, 0, 86, 70
2, 7644, Note_on_c, 0, 84, 69
2, 7646, Note_on_c, 0, 72, 66
2, 7650, Note_on_c, 0, 79, 64
2, 7650, Note_on_c, 0, 64, 61
2, 7656, Note_on_c, 0, 67, 65
2, 7659, Note_on_c, 0, 86, 0
2, 7665, Control_c, 0, 64, 127
2, 7715, Note_on_c, 0, 72, 0
2, 7715, Note_on_c, 0, 84, 0
2, 7715, Note_on_c, 0, 64, 0
2, 7715, Note_on_c, 0, 67, 0
2, 7722, Note_on_c, 0, 79, 0
2, 7815, Note_on_c, 0, 72, 69
2, 7824, Note_on_c, 0, 60, 62
2, 7863, Note_on_c, 0, 72, 0
2, 7865, Note_on_c, 0, 60, 0
2, 8060, Control_c, 0, 64, 0
2, 8151, Note_on_c, 0, 74, 68
2, 8151, Note_on_c, 0, 70, 67
2, 8190, Control_c, 0, 64, 127
2, 8209, Note_on_c, 0, 79, 70
2, 8213, Note_on_c, 0, 74, 0
2, 8267, Note_on_c, 0, 79, 0
2, 8274, Note_on_c, 0, 70, 0
2, 8276, Note_on_c, 0, 82, 72
2, 8315, Note_on_c, 0, 86, 68
2, 8326, Note_on_c, 0, 82, 0
2, 8356, Note_on_c, 0, 91, 67
2, 8369, Note_on_c, 0, 86, 0
2, 8388, Note_on_c, 0, 93, 66
2, 8395, Note_on_c, 0, 91, 0
2, 8428, Note_on_c, 0, 93, 0
2, 8434, Note_on_c, 0, 91, 66
2, 8467, Note_on_c, 0, 91, 0
2, 8519, Note_on_c, 0, 60, 56
2, 8564, Note_on_c, 0, 60, 0
2, 8632, Control_c, 0, 64, 0
2, 8659, Note_on_c, 0, 72, 72
2, 8664, Note_on_c, 0, 69, 71
2, 8700, Note_on_c, 0, 75, 65
2, 8711, Control_c, 0, 64, 127
2, 8741, Note_on_c, 0, 78, 67
2, 8781, Note_on_c, 0, 78, 0
2, 8781, Note_on_c, 0, 69, 0
2, 8783, Note_on_c, 0, 84, 65
2, 8784, Note_on_c, 0, 75, 0
2, 8784, Note_on_c, 0, 72, 0
2, 8826, Note_on_c, 0, 87, 68
2, 8830, Note_on_c, 0, 84, 0
2, 8853, Note_on_c, 0, 90, 65
2, 8871, Note_on_c, 0, 87, 0
2, 8885, Note_on_c, 0, 91, 65
2, 8891, Note_on_c, 0, 90, 0
2, 8924, Note_on_c, 0, 91, 0
2, 8924, Note_on_c, 0, 86, 72
2, 8952, Note_on_c, 0, 83, 69
2, 8974, Note_on_c, 0, 86, 0
2, 8979, Note_on_c, 0, 79, 67
2, 8992, Note_on_c, 0, 83, 0
2, 9011, Note_on_c, 0, 74, 69
2, 9025, Note_on_c, 0, 79, 0
2, 9031, Control_c, 0, 64, 0
2, 9050, Note_on_c, 0, 70, 65
2, 9065, Note_on_c, 0, 74, 0
2, 9090, Note_on_c, 0, 70, 0
2, 9102, Note_on_c, 0, 69, 66
2, 9104, Note_on_c, 0, 72, 72
2, 9135, Control_c, 0, 64, 127
2, 9153, Note_on_c, 0, 77, 67
2, 9187, Note_on_c, 0, 81, 68
2, 9197, Note_on_c, 0, 72, 0
2, 9203, Note_on_c, 0, 69, 0
2, 9203, Note_on_c, 0, 77, 0
2, 9221, Note_on_c, 0, 84, 67
2, 9236, Note_on_c, 0, 81, 0
2, 9241, Note_on_c, 0, 89, 70
2, 9263, Note_on_c, 0, 84, 0
2, 9275, Note_on_c, 0, 91, 71
2, 9281, Note_on_c, 0, 89, 0
2, 9312, Note_on_c, 0, 91, 0
2, 9316, Note_on_c, 0, 89, 65
2, 9368, Note_on_c, 0, 89, 0
2, 9404, Note_on_c, 0, 60, 56
2, 9450, Note_on_c, 0, 60, 0
2, 9475, Control_c, 0, 64, 0
2, 9516, Note_on_c, 0, 71, 71
2, 9522, Note_on_c, 0, 68, 71
2, 9551, Note_on_c, 0, 74, 65
2, 9582, Control_c, 0, 64, 127
2, 9586, Note_on_c, 0, 77, 72
2, 9611, Note_on_c, 0, 71, 0
2, 9611, Note_on_c, 0, 80, 71
2, 9615, Note_on_c, 0, 68, 0
2, 9615, Note_on_c, 0, 74, 0
2, 9634, Note_on_c, 0, 77, 0
2, 9638, Note_on_c, 0, 83, 71
2, 9657, Note_on_c, 0, 80, 0
2, 9675, Note_on_c, 0, 83, 0
2, 9675, Note_on_c, 0, 86, 66
2, 9707, Note_on_c, 0, 84, 68
2, 9713, Note_on_c, 0, 77, 69
2, 9720, Note_on_c, 0, 86, 0
2, 9721, Note_on_c, 0, 72, 70
2, 9721, Note_on_c, 0, 69, 68
2, 9744, Note_on_c, 0, 77, 0
2, 9744, Note_on_c, 0, 84, 0
2, 9768, Note_on_c, 0, 69, 0
2, 9773, Note_on_c, 0, 72, 0
2, 9825, Note_on_c, 0, 60, 58
2, 9868, Note_on_c, 0, 60, 0
2, 9889, Control_c, 0, 64, 0
2, 9918, Note_on_c, 0, 70, 66
2, 9918, Note_on_c, 0, 64, 54
2, 9922, Note_on_c, 0, 60, 57
2, 9929, Note_on_c, 0, 55, 53
2, 9966, Note_on_c, 0, 64, 0
2, 9966, Note_on_c, 0, 70, 0
2, 9970, Note_on_c, 0, 60, 0
2, 9976, Note_on_c, 0, 55, 0
2, 9990, Note_on_c, 0, 76, 66
2, 10019, Note_on_c, 0, 74, 70
2, 10028, Note_on_c, 0, 76, 0
2, 10040, Note_on_c, 0, 36, 57
2, 10056, Note_on_c, 0, 74, 0
2, 10071, Note_on_c, 0, 36, 0
2, 10117, Note_on_c, 0, 69, 68
2, 10117, Note_on_c, 0, 64, 53
2, 10117, Note_on_c, 0, 60, 57
2, 10123, Note_on_c, 0, 54, 54
2, 10160, Note_on_c, 0, 60, 0
2, 10162, Note_on_c, 0, 69, 0
2, 10162, Note_on_c, 0, 64, 0
2, 10164, Note_on_c, 0, 54, 0
2, 10183, Note_on_c, 0, 76, 66
2, 10208, Note_on_c, 0, 74, 69
2, 10212, Note_on_c, 0, 48, 58
2, 10223, Note_on_c, 0, 76, 0
2, 10244, Note_on_c, 0, 48, 0
2, 10246, Note_on_c, 0, 74, 0
2, 10285, Note_on_c, 0, 60, 56
2, 10285, Note_on_c, 0, 55, 55
2, 10287, Note_on_c, 0, 70, 72
2, 10287, Note_on_c, 0, 64, 52
2, 10316, Control_c, 0, 67, 127
2, 10318, Note_on_c, 0, 60, 0
2, 10320, Note_on_c, 0, 70, 0
2, 10323, Note_on_c, 0, 55, 0
2, 10325, Note_on_c, 0, 64, 0
2, 10352, Note_on_c, 0, 76, 69
2, 10375, Note_on_c, 0, 74, 69
2, 10375, Note_on_c, 0, 48, 52
2, 10392, Note_on_c, 0, 76, 0
2, 10404, Note_on_c, 0, 48, 0
2, 10415, Note_on_c, 0, 74, 0
2, 10441, Note_on_c, 0, 71, 70
2, 10445, Note_on_c, 0, 60, 56
2, 10445, Note_on_c, 0, 56, 55
2, 10452, Note_on_c, 0, 65, 72
2, 10479, Note_on_c, 0, 71, 0
2, 10483, Note_on_c, 0, 60, 0
2, 10487, Note_on_c, 0, 56, 0
2, 10487, Note_on_c, 0, 65, 0
2, 10510, Note_on_c, 0, 79, 74
2, 10533, Note_on_c, 0, 77, 74
2, 10536, Note_on_c, 0, 48, 58
2, 10543, Note_on_c, 0, 79, 0
2, 10564, Note_on_c, 0, 48, 0
2, 10566, Note_on_c, 0, 77, 0
2, 10589, Control_c, 0, 64, 127
2, 10593, Note_on_c, 0, 72, 72
2, 10595, Note_on_c, 0, 60, 54
2, 10601, Note_on_c, 0, 57, 53
2, 10605, Note_on_c, 0, 65, 69
2, 10633, Note_on_c, 0, 57, 0
2, 10633, Note_on_c, 0, 72, 0
2, 10633, Note_on_c, 0, 60, 0
2, 10635, Note_on_c, 0, 65, 0
2, 10662, Note_on_c, 0, 79, 73
2, 10691, Note_on_c, 0, 79, 0
2, 10691, Note_on_c, 0, 77, 73
2, 10698, Note_on_c, 0, 36, 53
2, 10719, Note_on_c, 0, 77, 0
2, 10725, Note_on_c, 0, 36, 0
2, 10755, Note_on_c, 0, 71, 68
2, 10755, Note_on_c, 0, 65, 68
2, 10755, Note_on_c, 0, 60, 58
2, 10755, Note_on_c, 0, 56, 57
2, 10793, Note_on_c, 0, 65, 0
2, 10793, Note_on_c, 0, 71, 0
2, 10795, Note_on_c, 0, 60, 0
2, 10795, Note_on_c, 0, 56, 0
2, 10809, Note_on_c, 0, 79, 67
2, 10838, Note_on_c, 0, 48, 52
2, 10842, Note_on_c, 0, 79, 0
2, 10842, Note_on_c, 0, 77, 71
2, 10875, Note_on_c, 0, 77, 0
2, 10875, Note_on_c, 0, 48, 0
2, 10909, Note_on_c, 0, 72, 68
2, 10909, Note_on_c, 0, 65, 67
2, 10909, Note_on_c, 0, 60, 60
2, 10909, Note_on_c, 0, 57, 60
2, 10941, Note_on_c, 0, 60, 0
2, 10943, Note_on_c, 0, 65, 0
2, 10946, Note_on_c, 0, 72, 0
2, 10946, Note_on_c, 0, 57, 0
2, 10965, Note_on_c, 0, 79, 76
2, 10992, Note_on_c, 0, 77, 69
2, 10992, Note_on_c, 0, 48, 63
2, 11008, Note_on_c, 0, 79, 0
2, 11024, Note_on_c, 0, 48, 0
2, 11026, Note_on_c, 0, 77, 0
2, 11057, Note_on_c, 0, 57, 65
2, 11061, Note_on_c, 0, 73, 74
2, 11063, Note_on_c, 0, 61, 65
2, 11064, Note_on_c, 0, 65, 73
2, 11093, Note_on_c, 0, 61, 0
2, 11093, Note_on_c, 0, 73, 0
2, 11099, Note_on_c, 0, 57, 0
2, 11099, Note_on_c, 0, 65, 0
2, 11106, Note_on_c, 0, 79, 73
2, 11131, Control_c, 0, 67, 0
2, 11136, Note_on_c, 0, 48, 65
2, 11138, Note_on_c, 0, 77, 71
2, 11144, Note_on_c, 0, 79, 0
2, 11169, Note_on_c, 0, 48, 0
2, 11171, Note_on_c, 0, 77, 0
2, 11210, Control_c, 0, 64, 0
2, 11281, Note_on_c, 0, 70, 69
2, 11308, Note_on_c, 0, 74, 65
2, 11362, Note_on_c, 0, 79, 66
2, 11368, Control_c, 0, 64, 127
2, 11399, Note_on_c, 0, 82, 71
2, 11404, Note_on_c, 0, 79, 0
2, 11424, Note_on_c, 0, 70, 0
2, 11424, Note_on_c, 0, 74, 0
2, 11429, Note_on_c, 0, 82, 0
2, 11431, Note_on_c, 0, 86, 68
2, 11449, Note_on_c, 0, 91, 66
2, 11469, Note_on_c, 0, 86, 0
2, 11483, Note_on_c, 0, 91, 0
2, 11485, Note_on_c, 0, 93, 68
2, 11519, Note_on_c, 0, 91, 68
2, 11520, Note_on_c, 0, 93, 0
2, 11560, Note_on_c, 0, 91, 0
2, 11635, Note_on_c, 0, 60, 63
2, 11688, Note_on_c, 0, 60, 0
2, 11710, Control_c, 0, 64, 0
2, 11752, Note_on_c, 0, 72, 66
2, 11762, Note_on_c, 0, 69, 65
2, 11787, Note_on_c, 0, 75, 65
2, 11829, Note_on_c, 0, 78, 68
2, 11839, Control_c, 0, 64, 127
2, 11864, Note_on_c, 0, 84, 70
2, 11870, Note_on_c, 0, 78, 0
2, 11889, Note_on_c, 0, 75, 0
2, 11895, Note_on_c, 0, 69, 0
2, 11895, Note_on_c, 0, 87, 72
2, 11897, Note_on_c, 0, 72, 0
2, 11907, Note_on_c, 0, 84, 0
2, 11922, Note_on_c, 0, 90, 68
2, 11936, Note_on_c, 0, 87, 0
2, 11959, Note_on_c, 0, 90, 0
2, 11963, Note_on_c, 0, 91, 67
2, 11995, Note_on_c, 0, 91, 0
2, 12000, Note_on_c, 0, 86, 66
2, 12032, Note_on_c, 0, 82, 69
2, 12036, Note_on_c, 0, 86, 0
2, 12061, Note_on_c, 0, 79, 71
2, 12067, Note_on_c, 0, 82, 0
2, 12090, Note_on_c, 0, 74, 66
2, 12100, Control_c, 0, 64, 0
2, 12104, Note_on_c, 0, 79, 0
2, 12104, Note_on_c, 0, 70, 71
2, 12131, Note_on_c, 0, 74, 0
2, 12145, Note_on_c, 0, 70, 0
2, 12158, Note_on_c, 0, 69, 67
2, 12160, Note_on_c, 0, 72, 66
2, 12199, Note_on_c, 0, 77, 67
2, 12216, Control_c, 0, 64, 127
2, 12237, Note_on_c, 0, 77, 0
2, 12243, Note_on_c, 0, 81, 66
2, 12254, Note_on_c, 0, 72, 0
2, 12254, Note_on_c, 0, 69, 0
2, 12275, Note_on_c, 0, 84, 72
2, 12281, Note_on_c, 0, 81, 0
2, 12299, Note_on_c, 0, 89, 66
2, 12310, Note_on_c, 0, 84, 0
2, 12328, Note_on_c, 0, 91, 67
2, 12338, Note_on_c, 0, 89, 0
2, 12358, Note_on_c, 0, 91, 0
2, 12364, Note_on_c, 0, 89, 72
2, 12404, Note_on_c, 0, 89, 0
2, 12443, Note_on_c, 0, 60, 58
2, 12485, Note_on_c, 0, 60, 0
2, 12504, Control_c, 0, 64, 0
2, 12559, Note_on_c, 0, 71, 67
2, 12561, Note_on_c, 0, 68, 69
2, 12593, Note_on_c, 0, 74, 69
2, 12612, Note_on_c, 0, 71, 0
2, 12637, Note_on_c, 0, 74, 0
2, 12639, Control_c, 0, 64, 127
2, 12645, Note_on_c, 0, 77, 66
2, 12659, Note_on_c, 0, 80, 72
2, 12666, Note_on_c, 0, 68, 0
2, 12683, Note_on_c, 0, 77, 0
2, 12692, Note_on_c, 0, 83, 73
2, 12697, Note_on_c, 0, 80, 0
2, 12712, Note_on_c, 0, 86, 73
2, 12729, Note_on_c, 0, 83, 0
2, 12746, Note_on_c, 0, 84, 70
2, 12748, Note_on_c, 0, 77, 69
2, 12752, Note_on_c, 0, 69, 68
2, 12754, Note_on_c, 0, 86, 0
2, 12754, Note_on_c, 0, 72, 70
2, 12786, Note_on_c, 0, 84, 0
2, 12788, Note_on_c, 0, 72, 0
2, 12788, Note_on_c, 0, 77, 0
2, 12800, Note_on_c, 0, 69, 0
2, 12840, Note_on_c, 0, 60, 64
2, 12889, Note_on_c, 0, 60, 0
2, 12902, Control_c, 0, 64, 0
2, 12918, Control_c, 0, 67, 127
2, 12927, Note_on_c, 0, 44, 57
2, 12929, Note_on_c, 0, 75, 71
2, 12929, Note_on_c, 0, 68, 71
2, 12970, Note_on_c, 0, 75, 0
2, 12976, Note_on_c, 0, 68, 0
2, 12986, Note_on_c, 0, 44, 0
2, 13009, Note_on_c, 0, 77, 74
2, 13020, Control_c, 0, 64, 127
2, 13027, Note_on_c, 0, 75, 75
2, 13031, Note_on_c, 0, 68, 69
2, 13031, Note_on_c, 0, 60, 57
2, 13031, Note_on_c, 0, 56, 64
2, 13036, Note_on_c, 0, 66, 75
2, 13042, Note_on_c, 0, 77, 0
2, 13128, Note_on_c, 0, 56, 0
2, 13128, Note_on_c, 0, 60, 0
2, 13131, Note_on_c, 0, 75, 0
2, 13135, Note_on_c, 0, 66, 0
2, 13137, Note_on_c, 0, 68, 0
2, 13192, Note_on_c, 0, 73, 70
2, 13194, Control_c, 0, 64, 0
2, 13194, Note_on_c, 0, 56, 56
2, 13196, Note_on_c, 0, 68, 73
2, 13196, Note_on_c, 0, 65, 67
2, 13198, Note_on_c, 0, 61, 59
2, 13229, Note_on_c, 0, 56, 0
2, 13233, Note_on_c, 0, 65, 0
2, 13233, Note_on_c, 0, 73, 0
2, 13233, Note_on_c, 0, 68, 0
2, 13233, Note_on_c, 0, 61, 0
2, 13277, Note_on_c, 0, 75, 73
2, 13277, Note_on_c, 0, 68, 70
2, 13277, Note_on_c, 0, 44, 60
2, 13311, Note_on_c, 0, 68, 0
2, 13311, Note_on_c, 0, 75, 0
2, 13318, Control_c, 0, 64, 127
2, 13323, Note_on_c, 0, 44, 0
2, 13348, Note_on_c, 0, 77, 75
2, 13368, Note_on_c, 0, 68, 70
2, 13371, Note_on_c, 0, 60, 60
2, 13371, Note_on_c, 0, 56, 56
2, 13373, Note_on_c, 0, 75, 70
2, 13373, Note_on_c, 0, 66, 68
2, 13382, Note_on_c, 0, 77, 0
2, 13460, Note_on_c, 0, 75, 0
2, 13460, Note_on_c, 0, 56, 0
2, 13460, Note_on_c, 0, 68, 0
2, 13460, Note_on_c, 0, 60, 0
2, 13465, Note_on_c, 0, 66, 0
2, 13517, Note_on_c, 0, 73, 71
2, 13519, Note_on_c, 0, 65, 72
2, 13523, Note_on_c, 0, 68, 74
2, 13525, Note_on_c, 0, 61, 63
2, 13525, Note_on_c, 0, 56, 57
2, 13555, Note_on_c, 0, 65, 0
2, 13557, Note_on_c, 0, 73, 0
2, 13557, Note_on_c, 0, 68, 0
2, 13559, Note_on_c, 0, 61, 0
2, 13564, Note_on_c, 0, 56, 0
2, 13591, Note_on_c, 0, 72, 70
2, 13591, Note_on_c, 0, 64, 60
2, 13597, Note_on_c, 0, 67, 67
2, 13604, Note_on_c, 0, 60, 57
2, 13631, Note_on_c, 0, 72, 0
2, 13632, Note_on_c, 0, 60, 0
2, 13634, Note_on_c, 0, 64, 0
2, 13636, Note_on_c, 0, 67, 0
2, 13657, Note_on_c, 0, 81, 71
2, 13677, Note_on_c, 0, 79, 73
2, 13679, Note_on_c, 0, 43, 58
2, 13685, Note_on_c, 0, 81, 0
2, 13700, Control_c, 0, 64, 0
2, 13710, Note_on_c, 0, 43, 0
2, 13714, Note_on_c, 0, 79, 0
2, 13748, Note_on_c, 0, 63, 62
2, 13750, Note_on_c, 0, 72, 72
2, 13753, Note_on_c, 0, 78, 69
2, 13753, Note_on_c, 0, 66, 71
2, 13773, Control_c, 0, 64, 127
2, 13808, Note_on_c, 0, 83, 72
2, 13810, Note_on_c, 0, 78, 0
2, 13810, Note_on_c, 0, 72, 0
2, 13812, Note_on_c, 0, 63, 0
2, 13816, Note_on_c, 0, 66, 0
2, 13833, Note_on_c, 0, 81, 73
2, 13837, Note_on_c, 0, 55, 58
2, 13846, Note_on_c, 0, 83, 0
2, 13867, Note_on_c, 0, 55, 0
2, 13869, Control_c, 0, 64, 0
2, 13875, Note_on_c, 0, 81, 0
2, 13895, Note_on_c, 0, 62, 56
2, 13901, Note_on_c, 0, 71, 75
2, 13903, Note_on_c, 0, 77, 69
2, 13903, Note_on_c, 0, 65, 74
2, 13933, Control_c, 0, 64, 127
2, 13952, Note_on_c, 0, 84, 69
2, 13968, Note_on_c, 0, 62, 0
2, 13970, Note_on_c, 0, 71, 0
2, 13970, Note_on_c, 0, 77, 0
2, 13972, Note_on_c, 0, 55, 63
2, 13974, Note_on_c, 0, 83, 72
2, 13976, Note_on_c, 0, 65, 0
2, 13983, Note_on_c, 0, 84, 0
2, 14012, Note_on_c, 0, 55, 0
2, 14014, Note_on_c, 0, 83, 0
2, 14037, Note_on_c, 0, 76, 77
2, 14039, Note_on_c, 0, 60, 60
2, 14042, Note_on_c, 0, 72, 78
2, 14046, Note_on_c, 0, 67, 78
2, 14075, Note_on_c, 0, 72, 0
2, 14075, Note_on_c, 0, 76, 0
2, 14077, Note_on_c, 0, 60, 0
2, 14079, Note_on_c, 0, 67, 0
2, 14108, Note_on_c, 0, 86, 77
2, 14125, Note_on_c, 0, 48, 56
2, 14127, Note_on_c, 0, 84, 73
2, 14131, Note_on_c, 0, 86, 0
2, 14160, Note_on_c, 0, 84, 0
2, 14163, Note_on_c, 0, 48, 0
2, 14229, Control_c, 0, 64, 0
2, 14243, Note_on_c, 0, 87, 84
2, 14249, Note_on_c, 0, 80, 80
2, 14257, Note_on_c, 0, 44, 67
2, 14259, Note_on_c, 0, 32, 67
2, 14302, Control_c, 0, 64, 127
2, 14341, Note_on_c, 0, 87, 0
2, 14343, Note_on_c, 0, 80, 0
2, 14355, Note_on_c, 0, 89, 87
2, 14391, Note_on_c, 0, 89, 0
2, 14397, Note_on_c, 0, 80, 83
2, 14397, Note_on_c, 0, 72, 87
2, 14397, Note_on_c, 0, 68, 84
2, 14397, Note_on_c, 0, 66, 87
2, 14416, Note_on_c, 0, 44, 0
2, 14424, Note_on_c, 0, 32, 0
2, 14520, Note_on_c, 0, 80, 0
2, 14524, Note_on_c, 0, 72, 0
2, 14526, Note_on_c, 0, 68, 0
2, 14530, Note_on_c, 0, 66, 0
2, 14593, Note_on_c, 0, 85, 84
2, 14599, Note_on_c, 0, 80, 79
2, 14599, Note_on_c, 0, 65, 81
2, 14603, Note_on_c, 0, 73, 82
2, 14603, Note_on_c, 0, 68, 85
2, 14631, Note_on_c, 0, 85, 0
2, 14633, Note_on_c, 0, 73, 0
2, 14633, Note_on_c, 0, 65, 0
2, 14635, Note_on_c, 0, 80, 0
2, 14635, Note_on_c, 0, 68, 0
2, 14704, Control_c, 0, 64, 0
2, 14737, Note_on_c, 0, 87, 86
2, 14739, Note_on_c, 0, 80, 82
2, 14743, Note_on_c, 0, 44, 72
2, 14747, Note_on_c, 0, 32, 68
2, 14779, Control_c, 0, 64, 127
2, 14835, Note_on_c, 0, 87, 0
2, 14841, Note_on_c, 0, 80, 0
2, 14857, Note_on_c, 0, 89, 83
2, 14864, Note_on_c, 0, 44, 0
2, 14866, Note_on_c, 0, 32, 0
2, 14879, Note_on_c, 0, 87, 82
2, 14879, Note_on_c, 0, 80, 80
2, 14882, Note_on_c, 0, 72, 85
2, 14886, Note_on_c, 0, 68, 79
2, 14886, Note_on_c, 0, 66, 84
2, 14892, Note_on_c, 0, 89, 0
2, 14984, Note_on_c, 0, 87, 0
2, 14986, Note_on_c, 0, 80, 0
2, 14990, Note_on_c, 0, 72, 0
2, 14990, Note_on_c, 0, 68, 0
2, 14994, Note_on_c, 0, 66, 0
2, 15055, Note_on_c, 0, 85, 83
2, 15061, Note_on_c, 0, 80, 80
2, 15061, Note_on_c, 0, 73, 77
2, 15061, Note_on_c, 0, 65, 80
2, 15065, Note_on_c, 0, 68, 77
2, 15090, Note_on_c, 0, 85, 0
2, 15092, Note_on_c, 0, 68, 0
2, 15096, Note_on_c, 0, 80, 0
2, 15096, Note_on_c, 0, 73, 0
2, 15096, Note_on_c, 0, 65, 0
2, 15165, Note_on_c, 0, 88, 77
2, 15170, Note_on_c, 0, 67, 75
2, 15170, Note_on_c, 0, 64, 66
2, 15176, Note_on_c, 0, 60, 72
2, 15183, Control_c, 0, 64, 0
2, 15200, Note_on_c, 0, 86, 76
2, 15211, Note_on_c, 0, 67, 0
2, 15215, Note_on_c, 0, 64, 0
2, 15216, Note_on_c, 0, 60, 0
2, 15220, Note_on_c, 0, 88, 0
2, 15240, Note_on_c, 0, 84, 80
2, 15254, Note_on_c, 0, 86, 0
2, 15277, Note_on_c, 0, 84, 0
2, 15277, Note_on_c, 0, 91, 76
2, 15289, Note_on_c, 0, 55, 68
2, 15319, Note_on_c, 0, 91, 0
2, 15325, Note_on_c, 0, 55, 0
2, 15364, Note_on_c, 0, 87, 80
2, 15371, Note_on_c, 0, 63, 72
2, 15371, Note_on_c, 0, 60, 66
2, 15373, Note_on_c, 0, 66, 76
2, 15392, Note_on_c, 0, 86, 73
2, 15399, Note_on_c, 0, 87, 0
2, 15411, Note_on_c, 0, 60, 0
2, 15417, Note_on_c, 0, 63, 0
2, 15419, Note_on_c, 0, 66, 0
2, 15425, Note_on_c, 0, 84, 73
2, 15435, Note_on_c, 0, 86, 0
2, 15456, Note_on_c, 0, 84, 0
2, 15456, Note_on_c, 0, 93, 74
2, 15456, Note_on_c, 0, 55, 72
2, 15488, Note_on_c, 0, 93, 0
2, 15494, Note_on_c, 0, 55, 0
2, 15534, Note_on_c, 0, 86, 77
2, 15534, Note_on_c, 0, 67, 75
2, 15534, Note_on_c, 0, 62, 71
2, 15540, Note_on_c, 0, 65, 76
2, 15561, Note_on_c, 0, 84, 73
2, 15567, Note_on_c, 0, 62, 0
2, 15567, Note_on_c, 0, 86, 0
2, 15573, Note_on_c, 0, 67, 0
2, 15573, Note_on_c, 0, 65, 0
2, 15581, Note_on_c, 0, 83, 77
2, 15594, Note_on_c, 0, 84, 0
2, 15602, Note_on_c, 0, 83, 0
2, 15602, Note_on_c, 0, 95, 73
2, 15604, Note_on_c, 0, 55, 68
2, 15636, Note_on_c, 0, 95, 0
2, 15643, Note_on_c, 0, 55, 0
2, 15676, Note_on_c, 0, 88, 73
2, 15678, Note_on_c, 0, 60, 68
2, 15680, Note_on_c, 0, 64, 65
2, 15697, Note_on_c, 0, 86, 74
2, 15701, Note_on_c, 0, 88, 0
2, 15716, Note_on_c, 0, 60, 0
2, 15722, Note_on_c, 0, 64, 0
2, 15722, Note_on_c, 0, 84, 78
2, 15733, Note_on_c, 0, 86, 0
2, 15745, Note_on_c, 0, 96, 74
2, 15758, Note_on_c, 0, 84, 0
2, 15765, Note_on_c, 0, 48, 70
2, 15784, Note_on_c, 0, 96, 0
2, 15811, Note_on_c, 0, 48, 0
2, 15839, Control_c, 0, 64, 127
2, 15842, Note_on_c, 0, 76, 73
2, 15865, Note_on_c, 0, 74, 80
2, 15880, Note_on_c, 0, 76, 0
2, 15894, Note_on_c, 0, 72, 80
2, 15905, Note_on_c, 0, 74, 0
2, 15926, Note_on_c, 0, 72, 0
2, 15932, Note_on_c, 0, 84, 80
2, 15976, Note_on_c, 0, 84, 0
2, 16008, Note_on_c, 0, 76, 79
2, 16045, Note_on_c, 0, 74, 80
2, 16056, Note_on_c, 0, 72, 73
2, 16064, Note_on_c, 0, 76, 0
2, 16094, Note_on_c, 0, 74, 0
2, 16122, Note_on_c, 0, 72, 0
2, 16128, Note_on_c, 0, 84, 74
2, 16166, Note_on_c, 0, 84, 0
2, 16231, Note_on_c, 0, 76, 72
2, 16265, Note_on_c, 0, 74, 72
2, 16275, Note_on_c, 0, 76, 0
2, 16284, Note_on_c, 0, 72, 76
2, 16296, Note_on_c, 0, 74, 0
2, 16320, Note_on_c, 0, 72, 0
2, 16328, Note_on_c, 0, 84, 77
2, 16367, Note_on_c, 0, 84, 0
2, 16426, Note_on_c, 0, 76, 75
2, 16460, Note_on_c, 0, 74, 79
2, 16468, Note_on_c, 0, 76, 0
2, 16496, Note_on_c, 0, 72, 79
2, 16502, Note_on_c, 0, 74, 0
2, 16534, Note_on_c, 0, 72, 0
2, 16534, Note_on_c, 0, 84, 77
2, 16565, Note_on_c, 0, 84, 0
2, 16569, Control_c, 0, 64, 0
2, 16613, Note_on_c, 0, 71, 75
2, 16619, Note_on_c, 0, 76, 72
2, 16653, Note_on_c, 0, 74, 77
2, 16661, Note_on_c, 0, 76, 0
2, 16670, Control_c, 0, 64, 127
2, 16680, Note_on_c, 0, 72, 77
2, 16689, Note_on_c, 0, 74, 0
2, 16712, Note_on_c, 0, 84, 79
2, 16718, Note_on_c, 0, 72, 0
2, 16741, Note_on_c, 0, 84, 0
2, 16769, Note_on_c, 0, 71, 0
2, 16790, Note_on_c, 0, 76, 75
2, 16827, Note_on_c, 0, 74, 72
2, 16838, Note_on_c, 0, 76, 0
2, 16852, Note_on_c, 0, 72, 79
2, 16867, Note_on_c, 0, 74, 0
2, 16886, Control_c, 0, 67, 0
2, 16892, Note_on_c, 0, 84, 78
2, 16897, Note_on_c, 0, 72, 0
2, 16931, Note_on_c, 0, 84, 0
2, 16965, Note_on_c, 0, 76, 77
2, 16992, Note_on_c, 0, 74, 74
2, 17009, Note_on_c, 0, 76, 0
2, 17021, Note_on_c, 0, 72, 77
2, 17032, Note_on_c, 0, 74, 0
2, 17057, Note_on_c, 0, 72, 0
2, 17057, Note_on_c, 0, 84, 77
2, 17097, Note_on_c, 0, 84, 0
2, 17148, Note_on_c, 0, 76, 79
2, 17192, Note_on_c, 0, 74, 74
2, 17196, Note_on_c, 0, 76, 0
2, 17213, Note_on_c, 0, 72, 74
2, 17228, Note_on_c, 0, 74, 0
2, 17249, Note_on_c, 0, 72, 0
2, 17255, Note_on_c, 0, 84, 75
2, 17290, Note_on_c, 0, 84, 0
2, 17290, Control_c, 0, 64, 0
2, 17326, Note_on_c, 0, 76, 73
2, 17329, Note_on_c, 0, 70, 74
2, 17365, Note_on_c, 0, 74, 78
2, 17367, Note_on_c, 0, 70, 0
2, 17376, Note_on_c, 0, 76, 0
2, 17393, Note_on_c, 0, 72, 79
2, 17399, Note_on_c, 0, 74, 0
2, 17428, Note_on_c, 0, 72, 0
2, 17434, Note_on_c, 0, 60, 67
2, 17438, Note_on_c, 0, 86, 78
2, 17470, Note_on_c, 0, 60, 0
2, 17475, Note_on_c, 0, 86, 0
2, 17509, Note_on_c, 0, 76, 73
2, 17521, Note_on_c, 0, 69, 74
2, 17541, Note_on_c, 0, 74, 72
2, 17546, Note_on_c, 0, 76, 0
2, 17559, Note_on_c, 0, 69, 0
2, 17569, Note_on_c, 0, 72, 79
2, 17580, Note_on_c, 0, 74, 0
2, 17596, Note_on_c, 0, 60, 70
2, 17602, Note_on_c, 0, 84, 77
2, 17608, Note_on_c, 0, 72, 0
2, 17627, Note_on_c, 0, 60, 0
2, 17638, Note_on_c, 0, 84, 0
2, 17676, Note_on_c, 0, 76, 74
2, 17682, Note_on_c, 0, 67, 73
2, 17699, Note_on_c, 0, 74, 75
2, 17713, Note_on_c, 0, 67, 0
2, 17713, Note_on_c, 0, 76, 0
2, 17722, Note_on_c, 0, 72, 72
2, 17743, Note_on_c, 0, 74, 0
2, 17762, Note_on_c, 0, 72, 0
2, 17766, Note_on_c, 0, 82, 76
2, 17770, Note_on_c, 0, 60, 64
2, 17806, Note_on_c, 0, 82, 0
2, 17808, Note_on_c, 0, 60, 0
2, 17837, Note_on_c, 0, 76, 75
2, 17848, Note_on_c, 0, 65, 73
2, 17869, Note_on_c, 0, 74, 73
2, 17878, Note_on_c, 0, 76, 0
2, 17881, Note_on_c, 0, 65, 0
2, 17892, Note_on_c, 0, 72, 78
2, 17903, Note_on_c, 0, 74, 0
2, 17924, Note_on_c, 0, 72, 0
2, 17924, Note_on_c, 0, 81, 75
2, 17928, Note_on_c, 0, 60, 66
2, 17961, Note_on_c, 0, 60, 0
2, 17963, Note_on_c, 0, 81, 0
2, 18001, Note_on_c, 0, 76, 73
2, 18005, Note_on_c, 0, 64, 65
2, 18033, Note_on_c, 0, 74, 72
2, 18044, Note_on_c, 0, 76, 0
2, 18050, Note_on_c, 0, 64, 0
2, 18055, Note_on_c, 0, 72, 72
2, 18064, Note_on_c, 0, 74, 0
2, 18076, Note_on_c, 0, 79, 75
2, 18078, Note_on_c, 0, 60, 71
2, 18087, Note_on_c, 0, 72, 0
2, 18120, Note_on_c, 0, 60, 0
2, 18122, Note_on_c, 0, 79, 0
2, 18163, Note_on_c, 0, 76, 79
2, 18167, Note_on_c, 0, 71, 74
2, 18170, Note_on_c, 0, 62, 68
2, 18190, Note_on_c, 0, 74, 76
2, 18194, Note_on_c, 0, 76, 0
2, 18199, Note_on_c, 0, 71, 0
2, 18201, Note_on_c, 0, 62, 0
2, 18208, Note_on_c, 0, 72, 74
2, 18213, Control_c, 0, 67, 127
2, 18217, Note_on_c, 0, 74, 0
2, 18226, Note_on_c, 0, 60, 67
2, 18235, Note_on_c, 0, 77, 76
2, 18240, Note_on_c, 0, 72, 0
2, 18259, Note_on_c, 0, 77, 0
2, 18259, Note_on_c, 0, 60, 0
2, 18285, Note_on_c, 0, 76, 78
2, 18289, Note_on_c, 0, 70, 79
2, 18289, Note_on_c, 0, 64, 65
2, 18311, Note_on_c, 0, 74, 75
2, 18314, Control_c, 0, 64, 127
2, 18316, Note_on_c, 0, 70, 0
2, 18321, Note_on_c, 0, 76, 0
2, 18321, Note_on_c, 0, 64, 0
2, 18328, Note_on_c, 0, 74, 0
2, 18328, Note_on_c, 0, 72, 73
2, 18356, Note_on_c, 0, 72, 0
2, 18360, Note_on_c, 0, 74, 74
2, 18368, Note_on_c, 0, 76, 75
2, 18383, Note_on_c, 0, 74, 0
2, 18393, Note_on_c, 0, 76, 0
2, 18406, Note_on_c, 0, 77, 75
2, 18429, Note_on_c, 0, 79, 72
2, 18433, Note_on_c, 0, 77, 0
2, 18438, Note_on_c, 0, 48, 70
2, 18440, Note_on_c, 0, 36, 65
2, 18444, Note_on_c, 0, 81, 74
2, 18467, Note_on_c, 0, 79, 0
2, 18476, Note_on_c, 0, 48, 0
2, 18476, Note_on_c, 0, 82, 72
2, 18480, Note_on_c, 0, 81, 0
2, 18482, Note_on_c, 0, 36, 0
2, 18495, Note_on_c, 0, 84, 74
2, 18505, Note_on_c, 0, 82, 0
2, 18525, Note_on_c, 0, 86, 75
2, 18544, Note_on_c, 0, 84, 0
2, 18551, Note_on_c, 0, 88, 76
2, 18559, Note_on_c, 0, 89, 76
2, 18564, Note_on_c, 0, 86, 0
2, 18578, Note_on_c, 0, 91, 72
2, 18583, Note_on_c, 0, 88, 0
2, 18588, Note_on_c, 0, 89, 0
2, 18590, Note_on_c, 0, 93, 72
2, 18600, Note_on_c, 0, 94, 75
2, 18616, Note_on_c, 0, 93, 0
2, 18616, Note_on_c, 0, 91, 0
2, 18620, Note_on_c, 0, 96, 73
2, 18626, Note_on_c, 0, 98, 72
2, 18628, Note_on_c, 0, 94, 0
2, 18632, Note_on_c, 0, 100, 73
2, 18649, Note_on_c, 0, 96, 0
2, 18656, Note_on_c, 0, 98, 0
2, 18656, Note_on_c, 0, 101, 77
2, 18669, Note_on_c, 0, 41, 71
2, 18672, Note_on_c, 0, 100, 0
2, 18674, Note_on_c, 0, 29, 70
2, 18696, Note_on_c, 0, 101, 0
2, 18715, Note_on_c, 0, 41, 0
2, 18721, Note_on_c, 0, 29, 0
2, 18842, Note_on_c, 0, 69, 76
2, 18842, Note_on_c, 0, 60, 68
2, 18885, Note_on_c, 0, 60, 0
2, 18885, Note_on_c, 0, 69, 0
2, 18948, Control_c, 0, 64, 0
2, 19094, Note_on_c, 0, 48, 60
2, 19126, Note_on_c, 0, 48, 0
2, 19202, Note_on_c, 0, 41, 59
2, 19217, Control_c, 0, 64, 127
2, 19245, Note_on_c, 0, 41, 0
2, 19323, Note_on_c, 0, 57, 54
2, 19328, Note_on_c, 0, 48, 56
2, 19370, Note_on_c, 0, 48, 0
2, 19370, Note_on_c, 0, 57, 0
2, 19425, Control_c, 0, 64, 0
2, 19506, Note_on_c, 0, 48, 54
2, 19537, Note_on_c, 0, 48, 0
2, 19601, Control_c, 0, 64, 127
2, 19603, Note_on_c, 0, 41, 57
2, 19605, Note_on_c, 0, 69, 73
2, 19632, Note_on_c, 0, 67, 66
2, 19636, Note_on_c, 0, 69, 0
2, 19638, Note_on_c, 0, 41, 0
2, 19659, Note_on_c, 0, 65, 66
2, 19663, Note_on_c, 0, 67, 0
2, 19682, Note_on_c, 0, 65, 0
2, 19686, Control_c, 0, 64, 0
2, 19686, Note_on_c, 0, 57, 59
2, 19690, Note_on_c, 0, 69, 69
2, 19692, Note_on_c, 0, 48, 61
2, 19718, Note_on_c, 0, 57, 0
2, 19720, Note_on_c, 0, 48, 0
2, 19722, Note_on_c, 0, 67, 71
2, 19727, Note_on_c, 0, 69, 0
2, 19750, Note_on_c, 0, 67, 0
2, 19750, Note_on_c, 0, 65, 72
2, 19767, Note_on_c, 0, 74, 67
2, 19771, Note_on_c, 0, 65, 0
2, 19807, Note_on_c, 0, 74, 0
2, 19843, Note_on_c, 0, 48, 56
2, 19872, Note_on_c, 0, 48, 0
2, 19913, Control_c, 0, 64, 127
2, 19932, Note_on_c, 0, 69, 73
2, 19932, Note_on_c, 0, 41, 61
2, 19957, Note_on_c, 0, 67, 69
2, 19961, Note_on_c, 0, 69, 0
2, 19968, Note_on_c, 0, 41, 0
2, 19989, Note_on_c, 0, 65, 69
2, 19993, Note_on_c, 0, 67, 0
2, 20021, Note_on_c, 0, 65, 0
2, 20021, Control_c, 0, 64, 0
2, 20023, Note_on_c, 0, 57, 57
2, 20028, Note_on_c, 0, 69, 66
2, 20028, Note_on_c, 0, 48, 55
2, 20054, Note_on_c, 0, 69, 0
2, 20054, Note_on_c, 0, 67, 73
2, 20056, Note_on_c, 0, 57, 0
2, 20058, Note_on_c, 0, 48, 0
2, 20083, Note_on_c, 0, 65, 71
2, 20087, Note_on_c, 0, 67, 0
2, 20110, Note_on_c, 0, 72, 73
2, 20114, Note_on_c, 0, 65, 0
2, 20142, Note_on_c, 0, 72, 0
2, 20216, Note_on_c, 0, 36, 60
2, 20239, Control_c, 0, 64, 127
2, 20252, Note_on_c, 0, 36, 0
2, 20280, Note_on_c, 0, 69, 71
2, 20284, Note_on_c, 0, 41, 54
2, 20307, Note_on_c, 0, 67, 72
2, 20311, Note_on_c, 0, 69, 0
2, 20332, Note_on_c, 0, 41, 0
2, 20343, Note_on_c, 0, 67, 0
2, 20343, Note_on_c, 0, 65, 66
2, 20360, Control_c, 0, 64, 0
2, 20376, Note_on_c, 0, 65, 0
2, 20379, Note_on_c, 0, 74, 71
2, 20381, Note_on_c, 0, 57, 57
2, 20386, Note_on_c, 0, 48, 60
2, 20416, Note_on_c, 0, 74, 0
2, 20418, Note_on_c, 0, 57, 0
2, 20420, Note_on_c, 0, 48, 0
2, 20456, Note_on_c, 0, 69, 71
2, 20482, Note_on_c, 0, 67, 71
2, 20491, Note_on_c, 0, 69, 0
2, 20508, Note_on_c, 0, 65, 72
2, 20513, Note_on_c, 0, 67, 0
2, 20521, Note_on_c, 0, 76, 67
2, 20541, Note_on_c, 0, 65, 0
2, 20551, Note_on_c, 0, 36, 54
2, 20560, Note_on_c, 0, 76, 0
2, 20588, Note_on_c, 0, 36, 0
2, 20592, Control_c, 0, 64, 127
2, 20621, Note_on_c, 0, 69, 66
2, 20623, Note_on_c, 0, 41, 56
2, 20636, Note_on_c, 0, 67, 69
2, 20648, Note_on_c, 0, 69, 0
2, 20655, Note_on_c, 0, 41, 0
2, 20660, Note_on_c, 0, 65, 66
2, 20668, Note_on_c, 0, 67, 0
2, 20691, Note_on_c, 0, 65, 0
2, 20696, Note_on_c, 0, 77, 67
2, 20703, Control_c, 0, 64, 0
2, 20707, Note_on_c, 0, 57, 57
2, 20709, Note_on_c, 0, 48, 60
2, 20726, Note_on_c, 0, 77, 0
2, 20745, Note_on_c, 0, 57, 0
2, 20750, Note_on_c, 0, 48, 0
2, 20778, Note_on_c, 0, 69, 66
2, 20795, Note_on_c, 0, 67, 67
2, 20814, Note_on_c, 0, 69, 0
2, 20818, Note_on_c, 0, 65, 68
2, 20825, Note_on_c, 0, 67, 0
2, 20842, Note_on_c, 0, 81, 73
2, 20844, Note_on_c, 0, 65, 0
2, 20849, Note_on_c, 0, 41, 58
2, 20861, Note_on_c, 0, 69, 69
2, 20865, Note_on_c, 0, 29, 54
2, 20872, Control_c, 0, 64, 127
2, 20889, Note_on_c, 0, 81, 0
2, 20894, Note_on_c, 0, 69, 0
2, 20899, Note_on_c, 0, 41, 0
2, 20903, Note_on_c, 0, 29, 0
2, 20934, Note_on_c, 0, 79, 68
2, 20936, Note_on_c, 0, 73, 71
2, 20962, Note_on_c, 0, 77, 68
2, 20967, Note_on_c, 0, 79, 0
2, 20969, Note_on_c, 0, 73, 0
2, 20977, Note_on_c, 0, 70, 74
2, 20984, Note_on_c, 0, 76, 72
2, 20989, Note_on_c, 0, 77, 0
2, 21008, Note_on_c, 0, 79, 72
2, 21015, Note_on_c, 0, 70, 0
2, 21019, Note_on_c, 0, 73, 73
2, 21024, Note_on_c, 0, 76, 0
2, 21057, Note_on_c, 0, 73, 0
2, 21057, Note_on_c, 0, 79, 0
2, 21057, Note_on_c, 0, 77, 72
2, 21074, Note_on_c, 0, 70, 72
2, 21081, Note_on_c, 0, 76, 76
2, 21086, Note_on_c, 0, 77, 0
2, 21100, Control_c, 0, 64, 0
2, 21102, Note_on_c, 0, 70, 0
2, 21111, Note_on_c, 0, 76, 0
2, 21123, Note_on_c, 0, 77, 71
2, 21128, Note_on_c, 0, 69, 71
2, 21133, Note_on_c, 0, 62, 59
2, 21152, Note_on_c, 0, 76, 71
2, 21163, Note_on_c, 0, 77, 0
2, 21178, Note_on_c, 0, 74, 72
2, 21187, Note_on_c, 0, 76, 0
2, 21206, Control_c, 0, 67, 0
2, 21213, Note_on_c, 0, 77, 70
2, 21219, Note_on_c, 0, 74, 0
2, 21232, Note_on_c, 0, 76, 70
2, 21247, Note_on_c, 0, 77, 0
2, 21260, Note_on_c, 0, 74, 77
2, 21272, Note_on_c, 0, 69, 0
2, 21272, Note_on_c, 0, 76, 0
2, 21279, Note_on_c, 0, 62, 0
2, 21289, Note_on_c, 0, 74, 0
2, 21312, Note_on_c, 0, 68, 67
2, 21317, Note_on_c, 0, 74, 69
2, 21338, Note_on_c, 0, 72, 74
2, 21340, Note_on_c, 0, 68, 0
2, 21349, Note_on_c, 0, 74, 0
2, 21358, Note_on_c, 0, 65, 71
2, 21366, Note_on_c, 0, 71, 70
2, 21371, Note_on_c, 0, 72, 0
2, 21375, Note_on_c, 0, 65, 0
2, 21394, Note_on_c, 0, 71, 0
2, 21394, Note_on_c, 0, 74, 70
2, 21398, Note_on_c, 0, 68, 71
2, 21421, Note_on_c, 0, 68, 0
2, 21421, Note_on_c, 0, 74, 0
2, 21421, Note_on_c, 0, 72, 67
2, 21436, Note_on_c, 0, 65, 72
2, 21443, Note_on_c, 0, 72, 0
2, 21443, Note_on_c, 0, 71, 74
2, 21462, Note_on_c, 0, 65, 0
2, 21469, Note_on_c, 0, 71, 0
2, 21474, Note_on_c, 0, 72, 67
2, 21495, Note_on_c, 0, 57, 58
2, 21502, Note_on_c, 0, 71, 73
2, 21504, Note_on_c, 0, 64, 56
2, 21505, Note_on_c, 0, 72, 0
2, 21527, Note_on_c, 0, 71, 0
2, 21535, Note_on_c, 0, 69, 67
2, 21556, Note_on_c, 0, 72, 74
2, 21563, Note_on_c, 0, 69, 0
2, 21582, Control_c, 0, 67, 127
2, 21593, Note_on_c, 0, 72, 0
2, 21593, Note_on_c, 0, 71, 67
2, 21600, Note_on_c, 0, 57, 0
2, 21604, Note_on_c, 0, 64, 0
2, 21611, Note_on_c, 0, 69, 74
2, 21613, Note_on_c, 0, 71, 0
2, 21639, Note_on_c, 0, 69, 0
2, 21649, Note_on_c, 0, 64, 51
2, 21653, Note_on_c, 0, 67, 67
2, 21653, Note_on_c, 0, 55, 53
2, 21681, Note_on_c, 0, 67, 0
2, 21681, Note_on_c, 0, 69, 70
2, 21692, Note_on_c, 0, 64, 0
2, 21694, Note_on_c, 0, 55, 0
2, 21696, Note_on_c, 0, 71, 68
2, 21708, Note_on_c, 0, 69, 0
2, 21720, Note_on_c, 0, 71, 0
2, 21725, Note_on_c, 0, 72, 69
2, 21734, Note_on_c, 0, 60, 53
2, 21751, Note_on_c, 0, 76, 69
2, 21756, Note_on_c, 0, 72, 0
2, 21765, Note_on_c, 0, 60, 0
2, 21777, Note_on_c, 0, 79, 68
2, 21788, Note_on_c, 0, 76, 0
2, 21816, Note_on_c, 0, 79, 0
2, 21816, Note_on_c, 0, 69, 70
2, 21817, Note_on_c, 0, 64, 55
2, 21822, Note_on_c, 0, 61, 52
2, 21824, Control_c, 0, 64, 127
2, 21824, Note_on_c, 0, 55, 57
2, 21837, Note_on_c, 0, 71, 72
2, 21841, Note_on_c, 0, 69, 0
2, 21852, Note_on_c, 0, 64, 0
2, 21861, Note_on_c, 0, 61, 0
2, 21861, Note_on_c, 0, 73, 70
2, 21871, Note_on_c, 0, 55, 0
2, 21871, Note_on_c, 0, 71, 0
2, 21888, Note_on_c, 0, 73, 0
2, 21904, Note_on_c, 0, 74, 69
2, 21904, Note_on_c, 0, 65, 71
2, 21906, Note_on_c, 0, 62, 55
2, 21925, Note_on_c, 0, 77, 70
2, 21937, Note_on_c, 0, 74, 0
2, 21939, Note_on_c, 0, 62, 0
2, 21943, Note_on_c, 0, 65, 0
2, 21947, Note_on_c, 0, 81, 68
2, 21961, Note_on_c, 0, 77, 0
2, 21976, Note_on_c, 0, 71, 75
2, 21980, Note_on_c, 0, 81, 0
2, 21992, Note_on_c, 0, 65, 76
2, 21997, Note_on_c, 0, 62, 58
2, 21999, Note_on_c, 0, 55, 54
2, 22009, Note_on_c, 0, 74, 70
2, 22014, Note_on_c, 0, 71, 0
2, 22035, Note_on_c, 0, 77, 75
2, 22048, Note_on_c, 0, 74, 0
2, 22063, Note_on_c, 0, 77, 0
2, 22067, Note_on_c, 0, 79, 75
2, 22101, Note_on_c, 0, 65, 0
2, 22101, Note_on_c, 0, 62, 0
2, 22105, Note_on_c, 0, 55, 0
2, 22105, Note_on_c, 0, 79, 0
2, 22107, Note_on_c, 0, 83, 77
2, 22125, Note_on_c, 0, 86, 70
2, 22140, Note_on_c, 0, 83, 0
2, 22157, Note_on_c, 0, 86, 0
2, 22168, Note_on_c, 0, 84, 75
2, 22172, Note_on_c, 0, 64, 54
2, 22174, Note_on_c, 0, 60, 56
2, 22205, Note_on_c, 0, 84, 0
2, 22209, Note_on_c, 0, 60, 0
2, 22211, Note_on_c, 0, 64, 0
2, 22292, Note_on_c, 0, 60, 59
2, 22304, Note_on_c, 0, 48, 57
2, 22311, Note_on_c, 0, 36, 53
2, 22334, Note_on_c, 0, 60, 0
2, 22341, Note_on_c, 0, 48, 0
2, 22347, Note_on_c, 0, 36, 0
2, 22416, Control_c, 0, 67, 0
2, 22471, Control_c, 0, 64, 0
2, 22665, Note_on_c, 0, 86, 73
2, 22700, Note_on_c, 0, 79, 67
2, 22700, Note_on_c, 0, 76, 71
2, 22704, Note_on_c, 0, 86, 0
2, 22704, Note_on_c, 0, 84, 71
2, 22705, Note_on_c, 0, 72, 68
2, 22705, Note_on_c, 0, 67, 73
2, 22714, Control_c, 0, 64, 127
2, 22740, Note_on_c, 0, 67, 0
2, 22740, Note_on_c, 0, 72, 0
2, 22742, Note_on_c, 0, 84, 0
2, 22742, Note_on_c, 0, 79, 0
2, 22744, Note_on_c, 0, 76, 0
2, 22889, Note_on_c, 0, 72, 71
2, 22893, Note_on_c, 0, 60, 56
2, 22936, Note_on_c, 0, 60, 0
2, 22936, Note_on_c, 0, 72, 0
2, 23105, Control_c, 0, 64, 0
2, 23269, Note_on_c, 0, 70, 62
2, 23274, Note_on_c, 0, 74, 66
2, 23300, Control_c, 0, 64, 127
2, 23338, Note_on_c, 0, 79, 62
2, 23372, Note_on_c, 0, 74, 0
2, 23378, Note_on_c, 0, 82, 63
2, 23383, Note_on_c, 0, 79, 0
2, 23409, Note_on_c, 0, 70, 0
2, 23411, Note_on_c, 0, 82, 0
2, 23411, Note_on_c, 0, 86, 69
2, 23426, Note_on_c, 0, 91, 64
2, 23442, Note_on_c, 0, 86, 0
2, 23461, Note_on_c, 0, 91, 0
2, 23461, Note_on_c, 0, 93, 65
2, 23493, Note_on_c, 0, 93, 0
2, 23497, Note_on_c, 0, 91, 62
2, 23527, Note_on_c, 0, 91, 0
2, 23551, Note_on_c, 0, 60, 51
2, 23598, Note_on_c, 0, 60, 0
2, 23663, Control_c, 0, 64, 0
2, 23695, Note_on_c, 0, 69, 62
2, 23697, Note_on_c, 0, 72, 69
2, 23712, Note_on_c, 0, 75, 65
2, 23736, Control_c, 0, 64, 127
2, 23752, Note_on_c, 0, 78, 63
2, 23771, Note_on_c, 0, 69, 0
2, 23773, Note_on_c, 0, 72, 0
2, 23780, Note_on_c, 0, 81, 67
2, 23782, Note_on_c, 0, 75, 0
2, 23797, Note_on_c, 0, 78, 0
2, 23809, Note_on_c, 0, 84, 68
2, 23825, Note_on_c, 0, 81, 0
2, 23833, Note_on_c, 0, 87, 62
2, 23840, Note_on_c, 0, 84, 0
2, 23855, Note_on_c, 0, 90, 64
2, 23874, Note_on_c, 0, 87, 0
2, 23886, Note_on_c, 0, 91, 62
2, 23888, Note_on_c, 0, 90, 0
2, 23923, Note_on_c, 0, 91, 0
2, 23928, Note_on_c, 0, 86, 67
2, 23951, Note_on_c, 0, 82, 65
2, 23959, Note_on_c, 0, 86, 0
2, 23972, Note_on_c, 0, 79, 68
2, 23980, Note_on_c, 0, 82, 0
2, 24010, Note_on_c, 0, 74, 63
2, 24019, Note_on_c, 0, 79, 0
2, 24027, Control_c, 0, 64, 0
2, 24032, Note_on_c, 0, 70, 66
2, 24051, Note_on_c, 0, 74, 0
2, 24067, Note_on_c, 0, 70, 0
2, 24075, Note_on_c, 0, 72, 64
2, 24080, Note_on_c, 0, 69, 64
2, 24125, Note_on_c, 0, 77, 64
2, 24130, Control_c, 0, 64, 127
2, 24156, Note_on_c, 0, 77, 0
2, 24156, Note_on_c, 0, 72, 0
2, 24161, Note_on_c, 0, 69, 0
2, 24165, Note_on_c, 0, 81, 64
2, 24199, Note_on_c, 0, 81, 0
2, 24199, Note_on_c, 0, 84, 66
2, 24220, Note_on_c, 0, 89, 67
2, 24231, Note_on_c, 0, 84, 0
2, 24248, Note_on_c, 0, 89, 0
2, 24252, Note_on_c, 0, 91, 62
2, 24287, Note_on_c, 0, 91, 0
2, 24288, Note_on_c, 0, 89, 64
2, 24327, Note_on_c, 0, 89, 0
2, 24367, Note_on_c, 0, 60, 54
2, 24409, Note_on_c, 0, 60, 0
2, 24431, Control_c, 0, 64, 0
2, 24490, Note_on_c, 0, 71, 66
2, 24495, Note_on_c, 0, 68, 69
2, 24527, Note_on_c, 0, 74, 62
2, 24535, Control_c, 0, 64, 127
2, 24561, Note_on_c, 0, 71, 0
2, 24570, Note_on_c, 0, 77, 62
2, 24576, Note_on_c, 0, 74, 0
2, 24589, Note_on_c, 0, 68, 0
2, 24602, Note_on_c, 0, 80, 69
2, 24613, Note_on_c, 0, 77, 0
2, 24624, Note_on_c, 0, 83, 63
2, 24639, Note_on_c, 0, 80, 0
2, 24641, Note_on_c, 0, 86, 64
2, 24658, Note_on_c, 0, 83, 0
2, 24681, Note_on_c, 0, 77, 65
2, 24685, Note_on_c, 0, 86, 0
2, 24685, Note_on_c, 0, 84, 63
2, 24694, Note_on_c, 0, 72, 67
2, 24698, Note_on_c, 0, 69, 67
2, 24720, Note_on_c, 0, 84, 0
2, 24721, Note_on_c, 0, 77, 0
2, 24732, Note_on_c, 0, 72, 0
2, 24736, Note_on_c, 0, 69, 0
2, 24781, Note_on_c, 0, 60, 53
2, 24813, Note_on_c, 0, 60, 0
2, 24845, Control_c, 0, 64, 0
2, 24864, Note_on_c, 0, 64, 57
2, 24866, Note_on_c, 0, 70, 66
2, 24866, Note_on_c, 0, 60, 55
2, 24866, Note_on_c, 0, 55, 57
2, 24903, Note_on_c, 0, 64, 0
2, 24905, Note_on_c, 0, 70, 0
2, 24905, Note_on_c, 0, 60, 0
2, 24907, Note_on_c, 0, 55, 0
2, 24935, Note_on_c, 0, 76, 66
2, 24958, Note_on_c, 0, 74, 65
2, 24961, Note_on_c, 0, 48, 51
2, 24972, Note_on_c, 0, 76, 0
2, 24996, Note_on_c, 0, 74, 0
2, 25008, Note_on_c, 0, 48, 0
2, 25059, Note_on_c, 0, 69, 61
2, 25059, Note_on_c, 0, 64, 52
2, 25064, Note_on_c, 0, 60, 52
2, 25069, Note_on_c, 0, 54, 54
2, 25097, Note_on_c, 0, 69, 0
2, 25099, Note_on_c, 0, 64, 0
2, 25103, Note_on_c, 0, 60, 0
2, 25103, Note_on_c, 0, 54, 0
2, 25130, Note_on_c, 0, 76, 66
2, 25163, Note_on_c, 0, 74, 57
2, 25168, Note_on_c, 0, 48, 58
2, 25173, Note_on_c, 0, 76, 0
2, 25200, Note_on_c, 0, 48, 0
2, 25200, Note_on_c, 0, 74, 0
2, 25246, Control_c, 0, 67, 127
2, 25249, Note_on_c, 0, 70, 61
2, 25249, Note_on_c, 0, 64, 55
2, 25251, Note_on_c, 0, 60, 58
2, 25251, Note_on_c, 0, 55, 51
2, 25286, Note_on_c, 0, 60, 0
2, 25286, Note_on_c, 0, 70, 0
2, 25286, Note_on_c, 0, 64, 0
2, 25288, Note_on_c, 0, 55, 0
2, 25312, Note_on_c, 0, 76, 62
2, 25338, Note_on_c, 0, 74, 60
2, 25342, Note_on_c, 0, 48, 57
2, 25352, Note_on_c, 0, 76, 0
2, 25369, Note_on_c, 0, 48, 0
2, 25371, Note_on_c, 0, 74, 0
2, 25410, Note_on_c, 0, 71, 59
2, 25414, Note_on_c, 0, 60, 55
2, 25416, Note_on_c, 0, 65, 57
2, 25416, Note_on_c, 0, 56, 54
2, 25447, Note_on_c, 0, 71, 0
2, 25451, Note_on_c, 0, 56, 0
2, 25456, Note_on_c, 0, 60, 0
2, 25458, Note_on_c, 0, 65, 0
2, 25486, Note_on_c, 0, 79, 54
2, 25501, Note_on_c, 0, 77, 53
2, 25501, Note_on_c, 0, 48, 55
2, 25522, Note_on_c, 0, 79, 0
2, 25533, Note_on_c, 0, 48, 0
2, 25539, Note_on_c, 0, 77, 0
2, 25541, Control_c, 0, 64, 127
2, 25569, Note_on_c, 0, 63, 54
2, 25571, Note_on_c, 0, 72, 58
2, 25571, Note_on_c, 0, 65, 58
2, 25573, Note_on_c, 0, 57, 58
2, 25603, Note_on_c, 0, 72, 0
2, 25605, Note_on_c, 0, 63, 0
2, 25608, Note_on_c, 0, 65, 0
2, 25610, Note_on_c, 0, 57, 0
2, 25619, Control_c, 0, 64, 0
2, 25630, Note_on_c, 0, 79, 55
2, 25656, Note_on_c, 0, 41, 60
2, 25659, Note_on_c, 0, 77, 55
2, 25663, Note_on_c, 0, 79, 0
2, 25689, Note_on_c, 0, 77, 0
2, 25691, Note_on_c, 0, 41, 0
2, 25710, Control_c, 0, 64, 127
2, 25721, Note_on_c, 0, 56, 57
2, 25723, Note_on_c, 0, 71, 60
2, 25725, Note_on_c, 0, 65, 54
2, 25728, Note_on_c, 0, 64, 56
2, 25758, Note_on_c, 0, 65, 0
2, 25758, Note_on_c, 0, 56, 0
2, 25758, Note_on_c, 0, 71, 0
2, 25763, Note_on_c, 0, 64, 0
2, 25782, Control_c, 0, 64, 0
2, 25793, Note_on_c, 0, 79, 61
2, 25810, Note_on_c, 0, 53, 56
2, 25815, Note_on_c, 0, 77, 59
2, 25820, Note_on_c, 0, 79, 0
2, 25841, Note_on_c, 0, 77, 0
2, 25843, Note_on_c, 0, 53, 0
2, 25867, Control_c, 0, 64, 127
2, 25871, Note_on_c, 0, 72, 61
2, 25875, Note_on_c, 0, 65, 55
2, 25875, Note_on_c, 0, 57, 54
2, 25879, Note_on_c, 0, 63, 54
2, 25909, Note_on_c, 0, 65, 0
2, 25909, Note_on_c, 0, 72, 0
2, 25916, Note_on_c, 0, 63, 0
2, 25920, Note_on_c, 0, 57, 0
2, 25933, Note_on_c, 0, 79, 55
2, 25940, Control_c, 0, 64, 0
2, 25957, Note_on_c, 0, 79, 0
2, 25957, Note_on_c, 0, 77, 60
2, 25959, Note_on_c, 0, 53, 55
2, 25959, Note_on_c, 0, 41, 56
2, 25991, Note_on_c, 0, 77, 0
2, 25995, Note_on_c, 0, 41, 0
2, 25995, Note_on_c, 0, 53, 0
2, 26015, Control_c, 0, 64, 127
2, 26016, Note_on_c, 0, 73, 60
2, 26016, Note_on_c, 0, 63, 56
2, 26021, Note_on_c, 0, 65, 60
2, 26023, Note_on_c, 0, 57, 60
2, 26053, Note_on_c, 0, 57, 0
2, 26055, Note_on_c, 0, 65, 0
2, 26055, Note_on_c, 0, 73, 0
2, 26059, Note_on_c, 0, 63, 0
2, 26078, Note_on_c, 0, 79, 55
2, 26091, Control_c, 0, 64, 0
2, 26093, Note_on_c, 0, 77, 60
2, 26093, Note_on_c, 0, 53, 59
2, 26114, Note_on_c, 0, 79, 0
2, 26130, Note_on_c, 0, 53, 0
2, 26132, Note_on_c, 0, 77, 0
2, 26170, Note_on_c, 0, 58, 58
2, 26220, Control_c, 0, 64, 127
2, 26242, Note_on_c, 0, 65, 53
2, 26275, Note_on_c, 0, 70, 59
2, 26299, Note_on_c, 0, 74, 53
2, 26309, Note_on_c, 0, 70, 0
2, 26331, Note_on_c, 0, 77, 56
2, 26340, Note_on_c, 0, 74, 0
2, 26352, Note_on_c, 0, 79, 56
2, 26363, Note_on_c, 0, 77, 0
2, 26376, Note_on_c, 0, 65, 0
2, 26397, Note_on_c, 0, 79, 0
2, 26400, Note_on_c, 0, 77, 58
2, 26435, Note_on_c, 0, 58, 0
2, 26482, Note_on_c, 0, 53, 64
2, 26536, Note_on_c, 0, 53, 0
2, 26572, Control_c, 0, 64, 0
2, 26574, Note_on_c, 0, 59, 60
2, 26606, Note_on_c, 0, 77, 0
2, 26649, Control_c, 0, 64, 127
2, 26651, Note_on_c, 0, 65, 58
2, 26686, Note_on_c, 0, 68, 53
2, 26703, Note_on_c, 0, 73, 54
2, 26735, Note_on_c, 0, 68, 0
2, 26743, Note_on_c, 0, 77, 55
2, 26754, Note_on_c, 0, 73, 0
2, 26782, Note_on_c, 0, 79, 52
2, 26790, Note_on_c, 0, 77, 0
2, 26790, Note_on_c, 0, 59, 0
2, 26799, Note_on_c, 0, 65, 0
2, 26830, Note_on_c, 0, 79, 0
2, 26834, Note_on_c, 0, 77, 60
2, 26919, Note_on_c, 0, 53, 61
2, 26960, Note_on_c, 0, 53, 0
2, 27005, Control_c, 0, 64, 0
2, 27007, Note_on_c, 0, 77, 0
2, 27016, Note_on_c, 0, 60, 54
2, 27097, Note_on_c, 0, 65, 54
2, 27123, Control_c, 0, 64, 127
2, 27154, Note_on_c, 0, 69, 53
2, 27178, Note_on_c, 0, 72, 51
2, 27206, Note_on_c, 0, 69, 0
2, 27218, Note_on_c, 0, 72, 0
2, 27218, Note_on_c, 0, 77, 51
2, 27232, Note_on_c, 0, 65, 0
2, 27247, Note_on_c, 0, 79, 56
2, 27249, Note_on_c, 0, 77, 0
2, 27256, Note_on_c, 0, 60, 0
2, 27280, Note_on_c, 0, 77, 54
2, 27292, Note_on_c, 0, 79, 0
2, 27381, Note_on_c, 0, 53, 57
2, 27430, Note_on_c, 0, 53, 0
2, 27430, Note_on_c, 0, 77, 0
2, 27533, Control_c, 0, 64, 0
2, 27563, Note_on_c, 0, 61, 57
2, 27613, Note_on_c, 0, 65, 54
2, 27625, Control_c, 0, 64, 127
2, 27645, Note_on_c, 0, 67, 53
2, 27693, Note_on_c, 0, 67, 0
2, 27696, Note_on_c, 0, 71, 55
2, 27744, Note_on_c, 0, 71, 0
2, 27745, Note_on_c, 0, 77, 52
2, 27782, Note_on_c, 0, 77, 0
2, 27786, Note_on_c, 0, 79, 59
2, 27805, Control_c, 0, 67, 0
2, 27810, Note_on_c, 0, 65, 0
2, 27829, Note_on_c, 0, 79, 0
2, 27838, Note_on_c, 0, 77, 57
2, 27842, Note_on_c, 0, 61, 0
2, 27955, Note_on_c, 0, 77, 0
2, 27994, Control_c, 0, 64, 0
2, 28065, Note_on_c, 0, 48, 51
2, 28121, Control_c, 0, 64, 127
2, 28125, Note_on_c, 0, 57, 58
2, 28155, Note_on_c, 0, 60, 57
2, 28168, Note_on_c, 0, 65, 55
2, 28194, Note_on_c, 0, 69, 51
2, 28202, Note_on_c, 0, 65, 0
2, 28207, Note_on_c, 0, 48, 0
2, 28226, Note_on_c, 0, 72, 57
2, 28235, Note_on_c, 0, 69, 0
2, 28259, Note_on_c, 0, 77, 56
2, 28270, Note_on_c, 0, 72, 0
2, 28292, Note_on_c, 0, 81, 53
2, 28302, Note_on_c, 0, 77, 0
2, 28328, Note_on_c, 0, 84, 52
2, 28342, Note_on_c, 0, 81, 0
2, 28368, Note_on_c, 0, 84, 0
2, 28374, Note_on_c, 0, 89, 58
2, 28402, Note_on_c, 0, 93, 52
2, 28411, Note_on_c, 0, 89, 0
2, 28439, Note_on_c, 0, 96, 56
2, 28447, Note_on_c, 0, 93, 0
2, 28458, Note_on_c, 0, 101, 55
2, 28473, Note_on_c, 0, 96, 0
2, 28494, Note_on_c, 0, 101, 0
2, 28512, Note_on_c, 0, 57, 0
2, 28557, Note_on_c, 0, 60, 0
2, 28807, Note_on_c, 0, 88, 57
2, 28842, Note_on_c, 0, 88, 0
2, 28842, Note_on_c, 0, 89, 51
2, 28883, Note_on_c, 0, 89, 0
2, 28883, Note_on_c, 0, 88, 54
2, 28914, Note_on_c, 0, 86, 57
2, 28918, Note_on_c, 0, 88, 0
2, 28965, Note_on_c, 0, 86, 0
2, 29012, Note_on_c, 0, 84, 56
2, 29042, Note_on_c, 0, 84, 0
2, 29051, Note_on_c, 0, 86, 58
2, 29084, Note_on_c, 0, 84, 51
2, 29097, Note_on_c, 0, 86, 0
2, 29106, Note_on_c, 0, 82, 58
2, 29116, Note_on_c, 0, 84, 0
2, 29144, Note_on_c, 0, 82, 0
2, 29192, Control_c, 0, 64, 0
2, 29206, Note_on_c, 0, 81, 56
2, 29209, Note_on_c, 0, 66, 52
2, 29211, Note_on_c, 0, 72, 58
2, 29213, Note_on_c, 0, 62, 57
2, 29237, Note_on_c, 0, 81, 0
2, 29246, Note_on_c, 0, 82, 58
2, 29268, Note_on_c, 0, 66, 0
2, 29270, Note_on_c, 0, 62, 0
2, 29274, Note_on_c, 0, 81, 52
2, 29279, Note_on_c, 0, 82, 0
2, 29287, Control_c, 0, 64, 127
2, 29296, Note_on_c, 0, 72, 0
2, 29296, Note_on_c, 0, 55, 53
2, 29311, Note_on_c, 0, 86, 51
2, 29315, Note_on_c, 0, 81, 0
2, 29324, Note_on_c, 0, 62, 57
2, 29337, Note_on_c, 0, 82, 56
2, 29342, Note_on_c, 0, 86, 0
2, 29349, Note_on_c, 0, 81, 52
2, 29351, Note_on_c, 0, 70, 51
2, 29355, Note_on_c, 0, 55, 0
2, 29366, Note_on_c, 0, 82, 0
2, 29378, Note_on_c, 0, 62, 0
2, 29378, Note_on_c, 0, 79, 53
2, 29382, Control_c, 0, 64, 0
2, 29386, Note_on_c, 0, 81, 0
2, 29400, Note_on_c, 0, 70, 0
2, 29419, Note_on_c, 0, 79, 0
2, 29453, Note_on_c, 0, 48, 52
2, 29490, Note_on_c, 0, 55, 57
2, 29492, Control_c, 0, 64, 127
2, 29498, Note_on_c, 0, 48, 0
2, 29502, Note_on_c, 0, 76, 52
2, 29521, Note_on_c, 0, 58, 55
2, 29530, Note_on_c, 0, 55, 0
2, 29534, Note_on_c, 0, 70, 58
2, 29546, Note_on_c, 0, 64, 55
2, 29564, Note_on_c, 0, 69, 58
2, 29570, Note_on_c, 0, 76, 0
2, 29572, Note_on_c, 0, 58, 0
2, 29583, Note_on_c, 0, 70, 0
2, 29592, Note_on_c, 0, 67, 52
2, 29598, Note_on_c, 0, 64, 0
2, 29598, Note_on_c, 0, 69, 0
2, 29607, Control_c, 0, 64, 0
2, 29626, Note_on_c, 0, 67, 0
2, 29702, Note_on_c, 0, 41, 52
2, 29721, Note_on_c, 0, 48, 55
2, 29725, Note_on_c, 0, 65, 56
2, 29738, Note_on_c, 0, 53, 57
2, 29740, Control_c, 0, 64, 127
2, 29742, Note_on_c, 0, 69, 58
2, 29751, Note_on_c, 0, 72, 52
2, 29751, Note_on_c, 0, 57, 52
2, 29756, Note_on_c, 0, 65, 0
2, 29756, Note_on_c, 0, 41, 0
2, 29760, Note_on_c, 0, 77, 55
2, 29775, Note_on_c, 0, 48, 0
2, 29779, Note_on_c, 0, 69, 0
2, 29784, Note_on_c, 0, 72, 0
2, 29785, Note_on_c, 0, 53, 0
2, 29794, Note_on_c, 0, 77, 0
2, 29799, Note_on_c, 0, 57, 0
2, 29944, Note_on_c, 0, 29, 52
2, 29970, Control_c, 0, 67, 127
2, 29985, Note_on_c, 0, 29, 0
2, 30066, Control_c, 0, 64, 0
2, 30233, Note_on_c, 0, 45, 71
2, 30309, Note_on_c, 0, 38, 76
2, 30328, Control_c, 0, 64, 127
2, 30333, Note_on_c, 0, 50, 73
2, 30355, Note_on_c, 0, 45, 0
2, 30427, Note_on_c, 0, 38, 0
2, 30440, Note_on_c, 0, 57, 74
2, 30454, Note_on_c, 0, 62, 69
2, 30471, Note_on_c, 0, 65, 57
2, 30480, Note_on_c, 0, 69, 57
2, 30484, Control_c, 0, 64, 0
2, 30491, Note_on_c, 0, 57, 0
2, 30504, Note_on_c, 0, 50, 0
2, 30504, Note_on_c, 0, 62, 0
2, 30515, Note_on_c, 0, 65, 0
2, 30519, Note_on_c, 0, 52, 72
2, 30529, Note_on_c, 0, 69, 0
2, 30566, Control_c, 0, 64, 127
2, 30623, Note_on_c, 0, 57, 63
2, 30636, Note_on_c, 0, 61, 70
2, 30647, Note_on_c, 0, 67, 54
2, 30664, Note_on_c, 0, 69, 56
2, 30672, Note_on_c, 0, 57, 0
2, 30677, Control_c, 0, 64, 0
2, 30688, Note_on_c, 0, 61, 0
2, 30698, Note_on_c, 0, 67, 0
2, 30707, Note_on_c, 0, 53, 71
2, 30729, Note_on_c, 0, 52, 0
2, 30731, Note_on_c, 0, 69, 0
2, 30762, Control_c, 0, 64, 127
2, 30801, Note_on_c, 0, 57, 66
2, 30818, Note_on_c, 0, 62, 67
2, 30832, Note_on_c, 0, 69, 55
2, 30856, Note_on_c, 0, 62, 0
2, 30858, Control_c, 0, 64, 0
2, 30870, Note_on_c, 0, 53, 0
2, 30886, Note_on_c, 0, 69, 0
2, 30888, Note_on_c, 0, 52, 71
2, 30920, Control_c, 0, 64, 127
2, 30933, Note_on_c, 0, 52, 0
2, 30933, Note_on_c, 0, 57, 0
2, 30936, Note_on_c, 0, 53, 69
2, 30965, Note_on_c, 0, 52, 68
2, 30974, Note_on_c, 0, 57, 72
2, 30983, Note_on_c, 0, 53, 0
2, 31007, Note_on_c, 0, 67, 53
2, 31010, Note_on_c, 0, 45, 70
2, 31014, Note_on_c, 0, 52, 0
2, 31019, Control_c, 0, 64, 0
2, 31019, Note_on_c, 0, 69, 57
2, 31056, Note_on_c, 0, 67, 0
2, 31057, Note_on_c, 0, 50, 69
2, 31075, Note_on_c, 0, 69, 0
2, 31085, Note_on_c, 0, 45, 0
2, 31103, Note_on_c, 0, 57, 0
2, 31103, Note_on_c, 0, 50, 0
2, 31133, Note_on_c, 0, 62, 63
2, 31138, Note_on_c, 0, 65, 58
2, 31140, Control_c, 0, 64, 127
2, 31147, Note_on_c, 0, 57, 63
2, 31152, Note_on_c, 0, 69, 58
2, 31169, Note_on_c, 0, 50, 70
2, 31208, Note_on_c, 0, 62, 0
2, 31221, Note_on_c, 0, 65, 0
2, 31225, Control_c, 0, 64, 0
2, 31272, Note_on_c, 0, 52, 63
2, 31275, Note_on_c, 0, 50, 0
2, 31301, Note_on_c, 0, 69, 0
2, 31303, Control_c, 0, 64, 127
2, 31332, Note_on_c, 0, 57, 0
2, 31349, Note_on_c, 0, 52, 0
2, 31371, Note_on_c, 0, 69, 54
2, 31371, Note_on_c, 0, 57, 68
2, 31376, Note_on_c, 0, 67, 52
2, 31387, Note_on_c, 0, 52, 69
2, 31397, Control_c, 0, 64, 0
2, 31469, Note_on_c, 0, 53, 65
2, 31495, Note_on_c, 0, 67, 0
2, 31502, Note_on_c, 0, 52, 0
2, 31514, Note_on_c, 0, 69, 0
2, 31525, Control_c, 0, 64, 127
2, 31537, Note_on_c, 0, 57, 0
2, 31553, Note_on_c, 0, 53, 0
2, 31561, Note_on_c, 0, 55, 66
2, 31579, Note_on_c, 0, 69, 56
2, 31581, Note_on_c, 0, 57, 68
2, 31589, Note_on_c, 0, 53, 67
2, 31602, Note_on_c, 0, 55, 0
2, 31631, Note_on_c, 0, 69, 0
2, 31648, Note_on_c, 0, 52, 67
2, 31652, Note_on_c, 0, 53, 0
2, 31678, Note_on_c, 0, 57, 0
2, 31719, Note_on_c, 0, 64, 68
2, 31724, Note_on_c, 0, 61, 63
2, 31724, Note_on_c, 0, 57, 64
2, 31726, Note_on_c, 0, 45, 61
2, 31739, Note_on_c, 0, 52, 0
2, 31756, Control_c, 0, 64, 0
2, 31776, Note_on_c, 0, 57, 0
2, 31780, Note_on_c, 0, 61, 0
2, 31782, Note_on_c, 0, 64, 0
2, 31793, Note_on_c, 0, 45, 0
2, 31830, Note_on_c, 0, 69, 53
2, 31830, Note_on_c, 0, 50, 60
2, 31916, Control_c, 0, 64, 127
2, 31959, Note_on_c, 0, 59, 63
2, 31974, Note_on_c, 0, 65, 54
2, 32000, Note_on_c, 0, 69, 0
2, 32009, Control_c, 0, 64, 0
2, 32033, Note_on_c, 0, 59, 0
2, 32037, Note_on_c, 0, 65, 0
2, 32041, Note_on_c, 0, 71, 54
2, 32043, Note_on_c, 0, 50, 0
2, 32059, Note_on_c, 0, 43, 58
2, 32093, Control_c, 0, 64, 127
2, 32172, Note_on_c, 0, 59, 58
2, 32174, Note_on_c, 0, 65, 55
2, 32183, Note_on_c, 0, 71, 0
2, 32195, Control_c, 0, 64, 0
2, 32223, Note_on_c, 0, 59, 0
2, 32227, Note_on_c, 0, 65, 0
2, 32233, Note_on_c, 0, 69, 54
2, 32238, Note_on_c, 0, 48, 60
2, 32245, Note_on_c, 0, 36, 57
2, 32257, Note_on_c, 0, 43, 0
2, 32312, Control_c, 0, 64, 127
2, 32345, Note_on_c, 0, 64, 57
2, 32349, Note_on_c, 0, 48, 0
2, 32349, Note_on_c, 0, 60, 53
2, 32352, Note_on_c, 0, 36, 0
2, 32359, Note_on_c, 0, 43, 58
2, 32381, Control_c, 0, 64, 0
2, 32388, Note_on_c, 0, 60, 0
2, 32392, Note_on_c, 0, 64, 0
2, 32414, Note_on_c, 0, 67, 54
2, 32443, Note_on_c, 0, 69, 0
2, 32447, Control_c, 0, 64, 127
2, 32457, Note_on_c, 0, 43, 0
2, 32457, Note_on_c, 0, 64, 54
2, 32466, Note_on_c, 0, 67, 0
2, 32485, Note_on_c, 0, 60, 55
2, 32497, Note_on_c, 0, 43, 59
2, 32499, Note_on_c, 0, 64, 0
2, 32499, Note_on_c, 0, 31, 55
2, 32523, Control_c, 0, 64, 0
2, 32525, Note_on_c, 0, 60, 0
2, 32529, Note_on_c, 0, 64, 60
2, 32536, Note_on_c, 0, 43, 0
2, 32543, Note_on_c, 0, 31, 0
2, 32551, Note_on_c, 0, 67, 53
2, 32573, Note_on_c, 0, 64, 0
2, 32584, Note_on_c, 0, 50, 56
2, 32591, Note_on_c, 0, 69, 59
2, 32594, Note_on_c, 0, 38, 54
2, 32596, Note_on_c, 0, 67, 0
2, 32607, Control_c, 0, 64, 127
2, 32640, Note_on_c, 0, 69, 0
2, 32672, Note_on_c, 0, 43, 55
2, 32674, Note_on_c, 0, 59, 57
2, 32685, Note_on_c, 0, 65, 58
2, 32687, Note_on_c, 0, 38, 0
2, 32688, Note_on_c, 0, 50, 0
2, 32688, Note_on_c, 0, 69, 54
2, 32709, Control_c, 0, 64, 0
2, 32746, Note_on_c, 0, 69, 0
2, 32763, Note_on_c, 0, 59, 0
2, 32763, Note_on_c, 0, 71, 58
2, 32765, Note_on_c, 0, 65, 0
2, 32776, Note_on_c, 0, 43, 0
2, 32791, Control_c, 0, 64, 127
2, 32817, Note_on_c, 0, 71, 0
2, 32856, Note_on_c, 0, 65, 53
2, 32861, Note_on_c, 0, 59, 55
2, 32863, Note_on_c, 0, 43, 59
2, 32870, Note_on_c, 0, 31, 59
2, 32874, Note_on_c, 0, 71, 53
2, 32902, Control_c, 0, 64, 0
2, 32904, Note_on_c, 0, 65, 0
2, 32914, Note_on_c, 0, 59, 0
2, 32918, Note_on_c, 0, 43, 0
2, 32920, Note_on_c, 0, 31, 0
2, 32964, Note_on_c, 0, 69, 52
2, 32969, Note_on_c, 0, 71, 0
2, 32977, Note_on_c, 0, 48, 58
2, 32984, Note_on_c, 0, 36, 54
2, 33028, Control_c, 0, 64, 127
2, 33078, Note_on_c, 0, 64, 52
2, 33080, Note_on_c, 0, 60, 55
2, 33084, Note_on_c, 0, 43, 55
2, 33115, Note_on_c, 0, 64, 0
2, 33117, Note_on_c, 0, 60, 0
2, 33129, Note_on_c, 0, 36, 0
2, 33142, Note_on_c, 0, 48, 0
2, 33152, Note_on_c, 0, 67, 53
2, 33169, Note_on_c, 0, 43, 0
2, 33173, Note_on_c, 0, 69, 0
2, 33192, Note_on_c, 0, 64, 60
2, 33206, Note_on_c, 0, 67, 0
2, 33230, Note_on_c, 0, 60, 55
2, 33232, Note_on_c, 0, 64, 0
2, 33263, Note_on_c, 0, 60, 0
2, 33263, Note_on_c, 0, 64, 60
2, 33287, Note_on_c, 0, 67, 57
2, 33302, Control_c, 0, 64, 0
2, 33309, Note_on_c, 0, 64, 0
2, 33324, Note_on_c, 0, 43, 56
2, 33348, Note_on_c, 0, 67, 0
2, 33348, Note_on_c, 0, 69, 54
2, 33348, Note_on_c, 0, 50, 56
2, 33396, Note_on_c, 0, 57, 60
2, 33422, Control_c, 0, 64, 127
2, 33437, Note_on_c, 0, 60, 61
2, 33442, Note_on_c, 0, 50, 0
2, 33442, Note_on_c, 0, 65, 55
2, 33444, Note_on_c, 0, 43, 0
2, 33480, Note_on_c, 0, 60, 0
2, 33488, Note_on_c, 0, 65, 0
2, 33512, Control_c, 0, 64, 0
2, 33514, Note_on_c, 0, 57, 0
2, 33523, Note_on_c, 0, 69, 0
2, 33557, Note_on_c, 0, 77, 59
2, 33557, Note_on_c, 0, 59, 56
2, 33586, Control_c, 0, 64, 127
2, 33684, Note_on_c, 0, 59, 0
2, 33706, Note_on_c, 0, 71, 57
2, 33711, Note_on_c, 0, 65, 53
2, 33754, Note_on_c, 0, 77, 0
2, 33780, Control_c, 0, 64, 0
2, 33799, Note_on_c, 0, 72, 59
2, 33801, Note_on_c, 0, 43, 58
2, 33810, Note_on_c, 0, 65, 0
2, 33810, Note_on_c, 0, 71, 0
2, 33818, Note_on_c, 0, 76, 59
2, 33825, Note_on_c, 0, 57, 60
2, 33869, Control_c, 0, 64, 127
2, 33931, Note_on_c, 0, 64, 53
2, 33944, Note_on_c, 0, 76, 0
2, 33964, Note_on_c, 0, 72, 0
2, 33966, Note_on_c, 0, 43, 0
2, 33975, Note_on_c, 0, 74, 58
2, 33980, Note_on_c, 0, 64, 0
2, 34014, Note_on_c, 0, 72, 54
2, 34036, Note_on_c, 0, 74, 0
2, 34054, Note_on_c, 0, 55, 52
2, 34057, Note_on_c, 0, 57, 0
2, 34057, Note_on_c, 0, 71, 54
2, 34073, Note_on_c, 0, 72, 0
2, 34105, Note_on_c, 0, 55, 0
2, 34110, Note_on_c, 0, 52, 57
2, 34112, Note_on_c, 0, 69, 51
2, 34116, Note_on_c, 0, 71, 0
2, 34144, Note_on_c, 0, 67, 55
2, 34151, Control_c, 0, 64, 0
2, 34155, Note_on_c, 0, 52, 0
2, 34159, Note_on_c, 0, 69, 0
2, 34161, Note_on_c, 0, 55, 52
2, 34190, Note_on_c, 0, 67, 0
2, 34190, Note_on_c, 0, 57, 60
2, 34195, Note_on_c, 0, 65, 51
2, 34203, Note_on_c, 0, 55, 0
2, 34243, Control_c, 0, 64, 127
2, 34263, Note_on_c, 0, 65, 0
2, 34268, Note_on_c, 0, 57, 0
2, 34298, Note_on_c, 0, 65, 55
2, 34298, Note_on_c, 0, 62, 60
2, 34300, Note_on_c, 0, 57, 55
2, 34336, Note_on_c, 0, 62, 0
2, 34346, Control_c, 0, 64, 0
2, 34375, Note_on_c, 0, 67, 55
2, 34379, Note_on_c, 0, 59, 58
2, 34384, Note_on_c, 0, 62, 53
2, 34386, Note_on_c, 0, 57, 0
2, 34390, Note_on_c, 0, 65, 0
2, 34412, Control_c, 0, 64, 127
2, 34427, Note_on_c, 0, 67, 0
2, 34432, Note_on_c, 0, 59, 0
2, 34436, Note_on_c, 0, 62, 0
2, 34487, Note_on_c, 0, 62, 55
2, 34487, Note_on_c, 0, 59, 54
2, 34488, Note_on_c, 0, 67, 53
2, 34532, Note_on_c, 0, 59, 0
2, 34536, Note_on_c, 0, 62, 0
2, 34552, Control_c, 0, 64, 0
2, 34567, Note_on_c, 0, 57, 59
2, 34584, Note_on_c, 0, 67, 0
2, 34589, Note_on_c, 0, 65, 54
2, 34589, Note_on_c, 0, 48, 62
2, 34637, Control_c, 0, 64, 127
2, 34649, Note_on_c, 0, 65, 0
2, 34651, Note_on_c, 0, 60, 54
2, 34702, Note_on_c, 0, 65, 59
2, 34704, Control_c, 0, 64, 0
2, 34705, Note_on_c, 0, 60, 0
2, 34719, Note_on_c, 0, 48, 0
2, 34728, Note_on_c, 0, 64, 66
2, 34732, Note_on_c, 0, 55, 66
2, 34744, Note_on_c, 0, 57, 0
2, 34748, Note_on_c, 0, 65, 0
2, 34767, Control_c, 0, 64, 127
2, 34771, Note_on_c, 0, 62, 62
2, 34779, Note_on_c, 0, 64, 0
2, 34817, Note_on_c, 0, 64, 64
2, 34821, Note_on_c, 0, 62, 0
2, 34864, Note_on_c, 0, 64, 0
2, 34864, Note_on_c, 0, 65, 55
2, 34874, Control_c, 0, 64, 0
2, 34883, Note_on_c, 0, 55, 0
2, 34903, Note_on_c, 0, 67, 53
2, 34905, Note_on_c, 0, 46, 53
2, 34907, Note_on_c, 0, 65, 0
2, 34912, Note_on_c, 0, 34, 53
2, 34944, Control_c, 0, 64, 127
2, 35039, Note_on_c, 0, 55, 58
2, 35042, Note_on_c, 0, 62, 56
2, 35063, Note_on_c, 0, 67, 0
2, 35080, Note_on_c, 0, 62, 0
2, 35082, Control_c, 0, 64, 0
2, 35087, Note_on_c, 0, 55, 0
2, 35115, Note_on_c, 0, 34, 0
2, 35117, Note_on_c, 0, 46, 0
2, 35128, Note_on_c, 0, 69, 57
2, 35147, Note_on_c, 0, 45, 52
2, 35149, Note_on_c, 0, 33, 56
2, 35168, Control_c, 0, 64, 127
2, 35250, Note_on_c, 0, 57, 53
2, 35255, Note_on_c, 0, 61, 53
2, 35283, Note_on_c, 0, 69, 0
2, 35299, Note_on_c, 0, 61, 0
2, 35305, Control_c, 0, 64, 0
2, 35309, Note_on_c, 0, 33, 0
2, 35318, Note_on_c, 0, 45, 0
2, 35344, Note_on_c, 0, 62, 57
2, 35348, Note_on_c, 0, 38, 60
2, 35374, Note_on_c, 0, 57, 0
2, 35377, Control_c, 0, 64, 127
2, 35412, Note_on_c, 0, 45, 55
2, 35419, Note_on_c, 0, 57, 54
2, 35451, Note_on_c, 0, 57, 0
2, 35458, Note_on_c, 0, 38, 0
2, 35460, Note_on_c, 0, 50, 54
2, 35467, Note_on_c, 0, 45, 0
2, 35472, Note_on_c, 0, 62, 0
2, 35482, Note_on_c, 0, 53, 60
2, 35499, Note_on_c, 0, 57, 58
2, 35504, Note_on_c, 0, 50, 0
2, 35530, Note_on_c, 0, 59, 60
2, 35532, Note_on_c, 0, 53, 0
2, 35539, Note_on_c, 0, 57, 0
2, 35569, Note_on_c, 0, 59, 0
2, 35569, Note_on_c, 0, 61, 58
2, 35595, Note_on_c, 0, 62, 53
2, 35609, Note_on_c, 0, 61, 0
2, 35629, Note_on_c, 0, 64, 55
2, 35636, Note_on_c, 0, 62, 0
2, 35653, Control_c, 0, 64, 0
2, 35664, Note_on_c, 0, 65, 57
2, 35677, Note_on_c, 0, 64, 0
2, 35706, Note_on_c, 0, 67, 62
2, 35710, Note_on_c, 0, 65, 0
2, 35718, Note_on_c, 0, 43, 60
2, 35722, Note_on_c, 0, 31, 62
2, 35737, Control_c, 0, 64, 127
2, 35766, Note_on_c, 0, 67, 0
2, 35812, Note_on_c, 0, 62, 54
2, 35814, Note_on_c, 0, 67, 57
2, 35814, Note_on_c, 0, 55, 57
2, 35818, Note_on_c, 0, 59, 58
2, 35827, Note_on_c, 0, 43, 0
2, 35832, Note_on_c, 0, 31, 0
2, 35843, Control_c, 0, 64, 0
2, 35874, Note_on_c, 0, 55, 0
2, 35878, Note_on_c, 0, 67, 0
2, 35878, Note_on_c, 0, 59, 0
2, 35910, Note_on_c, 0, 69, 58
2, 35917, Note_on_c, 0, 62, 0
2, 35930, Note_on_c, 0, 45, 54
2, 35937, Note_on_c, 0, 33, 60
2, 35942, Control_c, 0, 64, 127
2, 35995, Note_on_c, 0, 69, 0
2, 36030, Note_on_c, 0, 45, 0
2, 36032, Note_on_c, 0, 33, 0
2, 36041, Note_on_c, 0, 57, 57
2, 36043, Note_on_c, 0, 69, 60
2, 36045, Note_on_c, 0, 64, 54
2, 36045, Note_on_c, 0, 61, 54
2, 36095, Note_on_c, 0, 61, 0
2, 36095, Note_on_c, 0, 57, 0
2, 36098, Note_on_c, 0, 64, 0
2, 36098, Note_on_c, 0, 69, 0
2, 36110, Control_c, 0, 64, 0
2, 36121, Note_on_c, 0, 50, 58
2, 36123, Note_on_c, 0, 38, 57
2, 36143, Note_on_c, 0, 62, 58
2, 36195, Control_c, 0, 64, 127
2, 36209, Note_on_c, 0, 62, 0
2, 36226, Note_on_c, 0, 57, 55
2, 36226, Note_on_c, 0, 53, 53
2, 36253, Note_on_c, 0, 50, 0
2, 36264, Note_on_c, 0, 38, 0
2, 36268, Note_on_c, 0, 62, 59
2, 36304, Note_on_c, 0, 57, 0
2, 36309, Note_on_c, 0, 53, 0
2, 36326, Control_c, 0, 64, 0
2, 36333, Note_on_c, 0, 62, 0
2, 36339, Note_on_c, 0, 40, 60
2, 36363, Note_on_c, 0, 64, 59
2, 36365, Note_on_c, 0, 52, 59
2, 36400, Control_c, 0, 64, 127
2, 36417, Note_on_c, 0, 64, 0
2, 36417, Note_on_c, 0, 50, 59
2, 36419, Note_on_c, 0, 52, 0
2, 36430, Note_on_c, 0, 40, 0
2, 36445, Note_on_c, 0, 59, 60
2, 36447, Note_on_c, 0, 56, 64
2, 36457, Note_on_c, 0, 64, 58
2, 36461, Note_on_c, 0, 48, 64
2, 36475, Note_on_c, 0, 50, 0
2, 36501, Note_on_c, 0, 59, 0
2, 36503, Note_on_c, 0, 47, 59
2, 36504, Note_on_c, 0, 56, 0
2, 36504, Control_c, 0, 64, 0
2, 36511, Note_on_c, 0, 48, 0
2, 36515, Note_on_c, 0, 64, 0
2, 36551, Note_on_c, 0, 69, 56
2, 36554, Note_on_c, 0, 45, 64
2, 36566, Note_on_c, 0, 47, 0
2, 36593, Control_c, 0, 64, 127
2, 36665, Note_on_c, 0, 64, 59
2, 36667, Note_on_c, 0, 60, 61
2, 36723, Note_on_c, 0, 64, 0
2, 36730, Note_on_c, 0, 60, 0
2, 36737, Control_c, 0, 64, 0
2, 36739, Note_on_c, 0, 69, 0
2, 36769, Note_on_c, 0, 71, 60
2, 36773, Note_on_c, 0, 45, 0
2, 36782, Note_on_c, 0, 47, 63
2, 36854, Control_c, 0, 64, 127
2, 36867, Note_on_c, 0, 63, 61
2, 36878, Note_on_c, 0, 59, 55
2, 36924, Note_on_c, 0, 71, 0
2, 36928, Control_c, 0, 64, 0
2, 36932, Note_on_c, 0, 63, 0
2, 36954, Note_on_c, 0, 47, 0
2, 36958, Note_on_c, 0, 40, 57
2, 36961, Note_on_c, 0, 64, 57
2, 36988, Note_on_c, 0, 59, 0
2, 37008, Control_c, 0, 64, 127
2, 37020, Note_on_c, 0, 47, 59
2, 37027, Note_on_c, 0, 59, 57
2, 37047, Note_on_c, 0, 52, 56
2, 37064, Note_on_c, 0, 59, 0
2, 37069, Note_on_c, 0, 47, 0
2, 37086, Note_on_c, 0, 55, 56
2, 37097, Note_on_c, 0, 64, 0
2, 37101, Note_on_c, 0, 52, 0
2, 37105, Note_on_c, 0, 40, 0
2, 37131, Note_on_c, 0, 55, 0
2, 37131, Note_on_c, 0, 59, 56
2, 37160, Note_on_c, 0, 61, 58
2, 37177, Note_on_c, 0, 59, 0
2, 37198, Note_on_c, 0, 63, 59
2, 37201, Note_on_c, 0, 61, 0
2, 37230, Note_on_c, 0, 64, 58
2, 37244, Note_on_c, 0, 63, 0
2, 37266, Note_on_c, 0, 66, 57
2, 37281, Note_on_c, 0, 64, 0
2, 37290, Control_c, 0, 64, 0
2, 37290, Note_on_c, 0, 67, 57
2, 37327, Note_on_c, 0, 66, 0
2, 37332, Note_on_c, 0, 69, 57
2, 37344, Note_on_c, 0, 54, 56
2, 37345, Note_on_c, 0, 42, 59
2, 37350, Note_on_c, 0, 67, 0
2, 37398, Note_on_c, 0, 69, 0
2, 37405, Control_c, 0, 64, 127
2, 37460, Note_on_c, 0, 69, 54
2, 37470, Note_on_c, 0, 64, 55
2, 37474, Note_on_c, 0, 60, 57
2, 37479, Note_on_c, 0, 54, 0
2, 37479, Note_on_c, 0, 42, 0
2, 37534, Note_on_c, 0, 64, 0
2, 37537, Note_on_c, 0, 60, 0
2, 37561, Control_c, 0, 64, 0
2, 37565, Note_on_c, 0, 69, 0
2, 37574, Note_on_c, 0, 71, 53
2, 37587, Note_on_c, 0, 47, 61
2, 37605, Note_on_c, 0, 35, 55
2, 37640, Control_c, 0, 64, 127
2, 37682, Note_on_c, 0, 71, 0
2, 37718, Note_on_c, 0, 47, 0
2, 37720, Note_on_c, 0, 35, 0
2, 37730, Note_on_c, 0, 63, 62
2, 37732, Note_on_c, 0, 71, 53
2, 37732, Note_on_c, 0, 66, 52
2, 37778, Note_on_c, 0, 63, 0
2, 37783, Note_on_c, 0, 66, 0
2, 37809, Control_c, 0, 64, 0
2, 37850, Note_on_c, 0, 67, 55
2, 37852, Note_on_c, 0, 52, 56
2, 37854, Note_on_c, 0, 40, 62
2, 37858, Note_on_c, 0, 71, 0
2, 37924, Control_c, 0, 64, 127
2, 37955, Note_on_c, 0, 67, 0
2, 37988, Note_on_c, 0, 52, 0
2, 37992, Note_on_c, 0, 40, 0
2, 38010, Note_on_c, 0, 67, 55
2, 38010, Note_on_c, 0, 64, 57
2, 38010, Note_on_c, 0, 59, 61
2, 38069, Note_on_c, 0, 64, 0
2, 38073, Note_on_c, 0, 59, 0
2, 38131, Note_on_c, 0, 67, 0
2, 38153, Control_c, 0, 64, 0
2, 38160, Note_on_c, 0, 68, 51
2, 38164, Note_on_c, 0, 39, 59
2, 38168, Note_on_c, 0, 51, 54
2, 38267, Control_c, 0, 64, 127
2, 38327, Note_on_c, 0, 68, 0
2, 38376, Note_on_c, 0, 60, 55
2, 38379, Note_on_c, 0, 68, 58
2, 38379, Note_on_c, 0, 66, 57
2, 38390, Note_on_c, 0, 39, 0
2, 38394, Note_on_c, 0, 51, 0
2, 38621, Note_on_c, 0, 69, 57
2, 38625, Note_on_c, 0, 50, 62
2, 38630, Note_on_c, 0, 38, 61
2, 38643, Note_on_c, 0, 68, 0
2, 38647, Control_c, 0, 64, 0
2, 38651, Note_on_c, 0, 60, 0
2, 38662, Note_on_c, 0, 66, 0
2, 38852, Control_c, 0, 64, 127
2, 38929, Note_on_c, 0, 60, 54
2, 38934, Note_on_c, 0, 66, 52
2, 38972, Control_c, 0, 67, 0
2, 38983, Note_on_c, 0, 69, 0
2, 39016, Note_on_c, 0, 60, 0
2, 39018, Note_on_c, 0, 66, 0
2, 39072, Note_on_c, 0, 50, 0
2, 39077, Note_on_c, 0, 38, 0
2, 39286, Control_c, 0, 64, 0
2, 39326, Note_on_c, 0, 43, 59
2, 39352, Note_on_c, 0, 50, 63
2, 39379, Note_on_c, 0, 55, 62
2, 39383, Note_on_c, 0, 59, 60
2, 39396, Control_c, 0, 64, 127
2, 39407, Note_on_c, 0, 62, 61
2, 39431, Note_on_c, 0, 55, 0
2, 39431, Note_on_c, 0, 50, 0
2, 39435, Note_on_c, 0, 43, 0
2, 39437, Note_on_c, 0, 65, 58
2, 39439, Note_on_c, 0, 59, 0
2, 39448, Note_on_c, 0, 62, 0
2, 39450, Note_on_c, 0, 67, 57
2, 39468, Note_on_c, 0, 65, 0
2, 39477, Note_on_c, 0, 71, 56
2, 39488, Note_on_c, 0, 67, 0
2, 39506, Note_on_c, 0, 74, 54
2, 39520, Note_on_c, 0, 71, 0
2, 39537, Note_on_c, 0, 77, 53
2, 39554, Note_on_c, 0, 74, 0
2, 39559, Note_on_c, 0, 79, 57
2, 39581, Note_on_c, 0, 77, 0
2, 39603, Note_on_c, 0, 83, 56
2, 39614, Note_on_c, 0, 79, 0
2, 39638, Note_on_c, 0, 86, 51
2, 39643, Note_on_c, 0, 83, 0
2, 39658, Note_on_c, 0, 89, 57
2, 39682, Note_on_c, 0, 86, 0
2, 39689, Note_on_c, 0, 91, 52
2, 39704, Note_on_c, 0, 95, 58
2, 39709, Note_on_c, 0, 89, 0
2, 39726, Note_on_c, 0, 91, 0
2, 39733, Note_on_c, 0, 31, 62
2, 39753, Note_on_c, 0, 95, 0
2, 39795, Note_on_c, 0, 31, 0
2, 40017, Control_c, 0, 67, 127
2, 40241, Control_c, 0, 64, 0
2, 40292, Note_on_c, 0, 36, 64
2, 40319, Note_on_c, 0, 72, 56
2, 40322, Note_on_c, 0, 69, 58
2, 40324, Note_on_c, 0, 48, 59
2, 40338, Note_on_c, 0, 76, 54
2, 40348, Control_c, 0, 64, 127
2, 40379, Note_on_c, 0, 81, 56
2, 40408, Note_on_c, 0, 48, 0
2, 40408, Note_on_c, 0, 36, 0
2, 40536, Note_on_c, 0, 69, 0
2, 40543, Note_on_c, 0, 60, 62
2, 40543, Note_on_c, 0, 55, 61
2, 40545, Note_on_c, 0, 64, 59
2, 40560, Note_on_c, 0, 72, 0
2, 40583, Note_on_c, 0, 81, 0
2, 40583, Note_on_c, 0, 76, 0
2, 40584, Note_on_c, 0, 60, 0
2, 40586, Note_on_c, 0, 64, 0
2, 40588, Note_on_c, 0, 55, 0
2, 40675, Note_on_c, 0, 79, 61
2, 40686, Note_on_c, 0, 76, 60
2, 40711, Note_on_c, 0, 72, 62
2, 40722, Note_on_c, 0, 79, 0
2, 40732, Note_on_c, 0, 31, 62
2, 40736, Note_on_c, 0, 76, 0
2, 40741, Note_on_c, 0, 43, 56
2, 40745, Note_on_c, 0, 72, 0
2, 40750, Note_on_c, 0, 67, 59
2, 40780, Note_on_c, 0, 72, 61
2, 40784, Note_on_c, 0, 31, 0
2, 40788, Note_on_c, 0, 43, 0
2, 40788, Note_on_c, 0, 67, 0
2, 40793, Note_on_c, 0, 76, 59
2, 40811, Control_c, 0, 64, 0
2, 40816, Note_on_c, 0, 79, 57
2, 40820, Note_on_c, 0, 72, 0
2, 40831, Note_on_c, 0, 38, 60
2, 40838, Note_on_c, 0, 76, 0
2, 40847, Note_on_c, 0, 50, 60
2, 40850, Note_on_c, 0, 81, 59
2, 40859, Note_on_c, 0, 79, 0
2, 40893, Control_c, 0, 64, 127
2, 40942, Note_on_c, 0, 81, 0
2, 40942, Note_on_c, 0, 50, 0
2, 40950, Note_on_c, 0, 38, 0
2, 40961, Note_on_c, 0, 69, 57
2, 40963, Note_on_c, 0, 74, 58
2, 40973, Note_on_c, 0, 65, 60
2, 40975, Note_on_c, 0, 59, 62
2, 40975, Note_on_c, 0, 55, 59
2, 40979, Note_on_c, 0, 77, 55
2, 40984, Note_on_c, 0, 81, 58
2, 41004, Note_on_c, 0, 69, 0
2, 41013, Note_on_c, 0, 55, 0
2, 41013, Note_on_c, 0, 65, 0
2, 41015, Note_on_c, 0, 74, 0
2, 41016, Note_on_c, 0, 59, 0
2, 41039, Note_on_c, 0, 77, 0
2, 41047, Note_on_c, 0, 81, 0
2, 41079, Note_on_c, 0, 71, 55
2, 41089, Note_on_c, 0, 74, 60
2, 41098, Note_on_c, 0, 77, 55
2, 41105, Note_on_c, 0, 83, 56
2, 41127, Note_on_c, 0, 71, 0
2, 41149, Note_on_c, 0, 74, 0
2, 41149, Note_on_c, 0, 77, 0
2, 41149, Note_on_c, 0, 83, 0
2, 41224, Note_on_c, 0, 71, 56
2, 41229, Note_on_c, 0, 74, 58
2, 41229, Note_on_c, 0, 31, 57
2, 41232, Note_on_c, 0, 77, 58
2, 41237, Note_on_c, 0, 83, 55
2, 41277, Note_on_c, 0, 31, 0
2, 41285, Note_on_c, 0, 71, 0
2, 41292, Note_on_c, 0, 74, 0
2, 41292, Note_on_c, 0, 77, 0
2, 41304, Note_on_c, 0, 83, 0
2, 41368, Note_on_c, 0, 69, 56
2, 41370, Note_on_c, 0, 36, 58
2, 41374, Control_c, 0, 64, 0
2, 41391, Note_on_c, 0, 72, 59
2, 41400, Note_on_c, 0, 76, 61
2, 41406, Note_on_c, 0, 48, 62
2, 41417, Note_on_c, 0, 81, 56
2, 41430, Note_on_c, 0, 69, 0
2, 41457, Control_c, 0, 64, 127
2, 41501, Note_on_c, 0, 48, 0
2, 41501, Note_on_c, 0, 36, 0
2, 41530, Note_on_c, 0, 72, 0
2, 41561, Note_on_c, 0, 81, 0
2, 41566, Note_on_c, 0, 76, 0
2, 41576, Note_on_c, 0, 64, 58
2, 41581, Note_on_c, 0, 60, 58
2, 41581, Note_on_c, 0, 55, 57
2, 41627, Note_on_c, 0, 60, 0
2, 41627, Note_on_c, 0, 64, 0
2, 41632, Note_on_c, 0, 55, 0
2, 41661, Note_on_c, 0, 67, 62
2, 41671, Note_on_c, 0, 72, 57
2, 41688, Note_on_c, 0, 76, 62
2, 41704, Note_on_c, 0, 79, 65
2, 41717, Note_on_c, 0, 67, 0
2, 41731, Note_on_c, 0, 72, 0
2, 41764, Note_on_c, 0, 79, 0
2, 41778, Note_on_c, 0, 76, 0
2, 41856, Note_on_c, 0, 48, 60
2, 41894, Note_on_c, 0, 48, 0
2, 41985, Note_on_c, 0, 62, 69
2, 41987, Control_c, 0, 64, 0
2, 41989, Note_on_c, 0, 74, 57
2, 42065, Control_c, 0, 64, 127
2, 42116, Note_on_c, 0, 65, 52
2, 42120, Note_on_c, 0, 70, 52
2, 42168, Note_on_c, 0, 70, 0
2, 42171, Note_on_c, 0, 65, 0
2, 42220, Note_on_c, 0, 64, 72
2, 42229, Note_on_c, 0, 62, 0
2, 42229, Note_on_c, 0, 76, 60
2, 42244, Note_on_c, 0, 74, 0
2, 42334, Note_on_c, 0, 65, 57
2, 42338, Note_on_c, 0, 70, 52
2, 42362, Note_on_c, 0, 48, 67
2, 42387, Note_on_c, 0, 76, 0
2, 42387, Note_on_c, 0, 64, 0
2, 42392, Note_on_c, 0, 65, 0
2, 42396, Control_c, 0, 64, 0
2, 42409, Note_on_c, 0, 55, 67
2, 42427, Note_on_c, 0, 74, 58
2, 42437, Note_on_c, 0, 62, 71
2, 42473, Control_c, 0, 64, 127
2, 42486, Note_on_c, 0, 70, 0
2, 42491, Note_on_c, 0, 48, 0
2, 42522, Note_on_c, 0, 62, 0
2, 42522, Note_on_c, 0, 64, 67
2, 42527, Note_on_c, 0, 74, 0
2, 42527, Note_on_c, 0, 70, 52
2, 42535, Note_on_c, 0, 72, 57
2, 42564, Note_on_c, 0, 72, 0
2, 42564, Note_on_c, 0, 64, 0
2, 42566, Note_on_c, 0, 70, 0
2, 42566, Note_on_c, 0, 55, 0
2, 42570, Note_on_c, 0, 74, 59
2, 42578, Note_on_c, 0, 60, 60
2, 42596, Note_on_c, 0, 72, 58
2, 42604, Note_on_c, 0, 74, 0
2, 42620, Note_on_c, 0, 58, 65
2, 42628, Note_on_c, 0, 60, 0
2, 42640, Note_on_c, 0, 70, 55
2, 42671, Note_on_c, 0, 72, 0
2, 42675, Note_on_c, 0, 57, 61
2, 42684, Note_on_c, 0, 69, 57
2, 42686, Note_on_c, 0, 58, 0
2, 42693, Note_on_c, 0, 70, 0
2, 42715, Note_on_c, 0, 58, 65
2, 42723, Note_on_c, 0, 69, 0
2, 42725, Note_on_c, 0, 70, 54
2, 42729, Note_on_c, 0, 57, 0
2, 42729, Control_c, 0, 64, 0
2, 42749, Note_on_c, 0, 60, 62
2, 42751, Note_on_c, 0, 72, 59
2, 42763, Note_on_c, 0, 58, 0
2, 42793, Note_on_c, 0, 60, 0
2, 42797, Note_on_c, 0, 72, 0
2, 42797, Note_on_c, 0, 62, 64
2, 42802, Note_on_c, 0, 74, 57
2, 42836, Control_c, 0, 64, 127
2, 42863, Note_on_c, 0, 74, 0
2, 42866, Note_on_c, 0, 70, 0
2, 42900, Note_on_c, 0, 70, 56
2, 42904, Note_on_c, 0, 74, 58
2, 42904, Note_on_c, 0, 65, 57
2, 42960, Note_on_c, 0, 65, 0
2, 42984, Note_on_c, 0, 64, 60
2, 42986, Note_on_c, 0, 74, 0
2, 42990, Note_on_c, 0, 76, 57
2, 42995, Note_on_c, 0, 62, 0
2, 43049, Note_on_c, 0, 70, 0
2, 43049, Note_on_c, 0, 76, 0
2, 43084, Note_on_c, 0, 70, 60
2, 43084, Note_on_c, 0, 65, 57
2, 43088, Note_on_c, 0, 76, 59
2, 43122, Control_c, 0, 64, 0
2, 43139, Note_on_c, 0, 65, 0
2, 43156, Note_on_c, 0, 74, 59
2, 43165, Note_on_c, 0, 62, 55
2, 43170, Note_on_c, 0, 64, 0
2, 43176, Note_on_c, 0, 76, 0
2, 43208, Control_c, 0, 64, 127
2, 43232, Note_on_c, 0, 70, 0
2, 43241, Note_on_c, 0, 74, 0
2, 43274, Note_on_c, 0, 70, 62
2, 43278, Note_on_c, 0, 74, 57
2, 43278, Note_on_c, 0, 65, 58
2, 43302, Note_on_c, 0, 65, 0
2, 43331, Note_on_c, 0, 70, 0
2, 43336, Note_on_c, 0, 65, 61
2, 43354, Note_on_c, 0, 77, 56
2, 43358, Note_on_c, 0, 62, 0
2, 43373, Note_on_c, 0, 74, 0
2, 43431, Note_on_c, 0, 65, 0
2, 43442, Note_on_c, 0, 77, 0
2, 43463, Note_on_c, 0, 70, 60
2, 43463, Note_on_c, 0, 65, 61
2, 43480, Note_on_c, 0, 77, 57
2, 43517, Note_on_c, 0, 70, 0
2, 43521, Note_on_c, 0, 65, 0
2, 43533, Control_c, 0, 64, 0
2, 43563, Note_on_c, 0, 77, 0
2, 43567, Note_on_c, 0, 76, 58
2, 43571, Note_on_c, 0, 60, 57
2, 43613, Control_c, 0, 64, 127
2, 43631, Note_on_c, 0, 72, 58
2, 43639, Note_on_c, 0, 76, 0
2, 43673, Note_on_c, 0, 72, 0
2, 43920, Note_on_c, 0, 60, 0
2, 44065, Note_on_c, 0, 76, 57
2, 44067, Control_c, 0, 64, 0
2, 44067, Note_on_c, 0, 58, 58
2, 44132, Note_on_c, 0, 76, 0
2, 44147, Control_c, 0, 64, 127
2, 44191, Note_on_c, 0, 76, 57
2, 44191, Note_on_c, 0, 72, 57
2, 44193, Note_on_c, 0, 70, 61
2, 44195, Note_on_c, 0, 60, 57
2, 44197, Note_on_c, 0, 64, 54
2, 44244, Note_on_c, 0, 60, 0
2, 44246, Note_on_c, 0, 70, 0
2, 44250, Note_on_c, 0, 64, 0
2, 44275, Note_on_c, 0, 58, 0
2, 44277, Note_on_c, 0, 72, 0
2, 44281, Note_on_c, 0, 76, 0
2, 44285, Note_on_c, 0, 57, 52
2, 44290, Note_on_c, 0, 77, 60
2, 44290, Note_on_c, 0, 74, 58
2, 44361, Note_on_c, 0, 77, 0
2, 44366, Note_on_c, 0, 74, 0
2, 44371, Control_c, 0, 64, 0
2, 44396, Note_on_c, 0, 60, 58
2, 44400, Note_on_c, 0, 77, 59
2, 44400, Note_on_c, 0, 74, 57
2, 44401, Note_on_c, 0, 65, 55
2, 44444, Control_c, 0, 64, 127
2, 44481, Note_on_c, 0, 57, 0
2, 44490, Note_on_c, 0, 65, 0
2, 44490, Note_on_c, 0, 55, 51
2, 44494, Note_on_c, 0, 79, 58
2, 44494, Note_on_c, 0, 76, 57
2, 44496, Note_on_c, 0, 60, 0
2, 44499, Note_on_c, 0, 74, 0
2, 44499, Note_on_c, 0, 77, 0
2, 44537, Control_c, 0, 67, 0
2, 44570, Note_on_c, 0, 76, 0
2, 44570, Note_on_c, 0, 79, 0
2, 44611, Note_on_c, 0, 55, 0
2, 44619, Note_on_c, 0, 58, 54
2, 44621, Note_on_c, 0, 64, 54
2, 44625, Note_on_c, 0, 60, 53
2, 44637, Note_on_c, 0, 79, 53
2, 44645, Note_on_c, 0, 76, 54
2, 44667, Note_on_c, 0, 60, 0
2, 44674, Note_on_c, 0, 58, 0
2, 44674, Note_on_c, 0, 64, 0
2, 44719, Note_on_c, 0, 79, 0
2, 44724, Note_on_c, 0, 76, 0
2, 44766, Control_c, 0, 64, 0
2, 44815, Note_on_c, 0, 41, 54
2, 44833, Note_on_c, 0, 81, 54
2, 44865, Note_on_c, 0, 79, 57
2, 44867, Control_c, 0, 64, 127
2, 44884, Note_on_c, 0, 81, 0
2, 44895, Note_on_c, 0, 41, 0
2, 44906, Note_on_c, 0, 77, 53
2, 44917, Note_on_c, 0, 79, 0
2, 44932, Note_on_c, 0, 81, 58
2, 44941, Note_on_c, 0, 57, 58
2, 44945, Note_on_c, 0, 77, 0
2, 44950, Note_on_c, 0, 48, 54
2, 44963, Note_on_c, 0, 79, 54
2, 44980, Note_on_c, 0, 81, 0
2, 44987, Note_on_c, 0, 57, 0
2, 44989, Note_on_c, 0, 48, 0
2, 45004, Note_on_c, 0, 77, 59
2, 45008, Note_on_c, 0, 79, 0
2, 45030, Note_on_c, 0, 86, 55
2, 45044, Note_on_c, 0, 77, 0
2, 45075, Note_on_c, 0, 86, 0
2, 45120, Control_c, 0, 64, 0
2, 45139, Note_on_c, 0, 36, 56
2, 45190, Note_on_c, 0, 36, 0
2, 45198, Note_on_c, 0, 69, 58
2, 45220, Control_c, 0, 64, 127
2, 45220, Note_on_c, 0, 41, 55
2, 45238, Note_on_c, 0, 67, 53
2, 45240, Note_on_c, 0, 69, 0
2, 45261, Note_on_c, 0, 65, 54
2, 45269, Note_on_c, 0, 67, 0
2, 45274, Note_on_c, 0, 41, 0
2, 45297, Note_on_c, 0, 65, 0
2, 45306, Note_on_c, 0, 69, 53
2, 45326, Note_on_c, 0, 57, 54
2, 45331, Note_on_c, 0, 67, 54
2, 45333, Note_on_c, 0, 48, 57
2, 45344, Note_on_c, 0, 69, 0
2, 45356, Note_on_c, 0, 65, 55
2, 45365, Note_on_c, 0, 67, 0
2, 45370, Note_on_c, 0, 57, 0
2, 45373, Note_on_c, 0, 72, 55
2, 45375, Note_on_c, 0, 48, 0
2, 45384, Note_on_c, 0, 65, 0
2, 45402, Control_c, 0, 64, 0
2, 45427, Note_on_c, 0, 72, 0
2, 45449, Note_on_c, 0, 36, 51
2, 45491, Note_on_c, 0, 36, 0
2, 45513, Control_c, 0, 64, 127
2, 45522, Note_on_c, 0, 81, 59
2, 45530, Note_on_c, 0, 41, 51
2, 45562, Note_on_c, 0, 81, 0
2, 45562, Note_on_c, 0, 79, 54
2, 45582, Note_on_c, 0, 41, 0
2, 45596, Note_on_c, 0, 79, 0
2, 45596, Note_on_c, 0, 77, 58
2, 45614, Note_on_c, 0, 57, 53
2, 45616, Note_on_c, 0, 86, 57
2, 45619, Note_on_c, 0, 48, 53
2, 45627, Note_on_c, 0, 77, 0
2, 45630, Control_c, 0, 64, 0
2, 45650, Note_on_c, 0, 86, 0
2, 45657, Note_on_c, 0, 57, 0
2, 45672, Note_on_c, 0, 48, 0
2, 45695, Note_on_c, 0, 69, 59
2, 45724, Note_on_c, 0, 67, 59
2, 45733, Note_on_c, 0, 69, 0
2, 45735, Control_c, 0, 64, 127
2, 45750, Note_on_c, 0, 65, 54
2, 45753, Note_on_c, 0, 67, 0
2, 45765, Note_on_c, 0, 76, 60
2, 45781, Note_on_c, 0, 65, 0
2, 45792, Note_on_c, 0, 36, 52
2, 45808, Note_on_c, 0, 76, 0
2, 45835, Note_on_c, 0, 36, 0
2, 45838, Note_on_c, 0, 82, 57
2, 45853, Note_on_c, 0, 41, 52
2, 45863, Control_c, 0, 64, 0
2, 45867, Note_on_c, 0, 82, 0
2, 45867, Note_on_c, 0, 81, 53
2, 45896, Note_on_c, 0, 81, 0
2, 45896, Note_on_c, 0, 79, 60
2, 45899, Note_on_c, 0, 41, 0
2, 45924, Note_on_c, 0, 79, 0
2, 45931, Note_on_c, 0, 89, 53
2, 45933, Note_on_c, 0, 77, 56
2, 45948, Control_c, 0, 64, 127
2, 45950, Note_on_c, 0, 57, 55
2, 45953, Note_on_c, 0, 48, 57
2, 45966, Note_on_c, 0, 89, 0
2, 45968, Note_on_c, 0, 77, 0
2, 45982, Note_on_c, 0, 48, 0
2, 45984, Note_on_c, 0, 57, 0
2, 46040, Note_on_c, 0, 69, 58
2, 46058, Control_c, 0, 67, 127
2, 46060, Note_on_c, 0, 67, 59
2, 46072, Note_on_c, 0, 69, 0
2, 46083, Note_on_c, 0, 65, 60
2, 46088, Note_on_c, 0, 67, 0
2, 46106, Control_c, 0, 64, 0
2, 46109, Note_on_c, 0, 81, 53
2, 46112, Note_on_c, 0, 65, 0
2, 46122, Note_on_c, 0, 36, 54
2, 46155, Note_on_c, 0, 81, 0
2, 46162, Note_on_c, 0, 36, 0
2, 46191, Note_on_c, 0, 79, 55
2, 46193, Note_on_c, 0, 73, 57
2, 46211, Note_on_c, 0, 77, 54
2, 46214, Control_c, 0, 64, 127
2, 46224, Note_on_c, 0, 73, 0
2, 46224, Note_on_c, 0, 79, 0
2, 46228, Note_on_c, 0, 76, 60
2, 46233, Note_on_c, 0, 70, 57
2, 46236, Note_on_c, 0, 77, 0
2, 46258, Note_on_c, 0, 79, 53
2, 46263, Note_on_c, 0, 76, 0
2, 46268, Note_on_c, 0, 70, 0
2, 46274, Note_on_c, 0, 73, 60
2, 46286, Note_on_c, 0, 77, 59
2, 46301, Note_on_c, 0, 76, 59
2, 46304, Note_on_c, 0, 79, 0
2, 46306, Note_on_c, 0, 70, 57
2, 46309, Note_on_c, 0, 73, 0
2, 46318, Note_on_c, 0, 77, 0
2, 46343, Note_on_c, 0, 70, 0
2, 46347, Note_on_c, 0, 76, 0
2, 46354, Note_on_c, 0, 77, 58
2, 46357, Control_c, 0, 64, 0
2, 46364, Note_on_c, 0, 69, 56
2, 46364, Note_on_c, 0, 62, 56
2, 46377, Note_on_c, 0, 76, 54
2, 46386, Note_on_c, 0, 77, 0
2, 46395, Note_on_c, 0, 74, 56
2, 46409, Note_on_c, 0, 76, 0
2, 46431, Note_on_c, 0, 74, 0
2, 46434, Note_on_c, 0, 77, 58
2, 46459, Note_on_c, 0, 76, 56
2, 46468, Note_on_c, 0, 77, 0
2, 46475, Control_c, 0, 67, 0
2, 46487, Note_on_c, 0, 69, 0
2, 46487, Note_on_c, 0, 74, 55
2, 46496, Note_on_c, 0, 76, 0
2, 46498, Note_on_c, 0, 62, 0
2, 46510, Note_on_c, 0, 74, 0
2, 46536, Note_on_c, 0, 68, 53
2, 46541, Note_on_c, 0, 74, 52
2, 46560, Note_on_c, 0, 72, 54
2, 46564, Note_on_c, 0, 74, 0
2, 46569, Note_on_c, 0, 68, 0
2, 46585, Note_on_c, 0, 65, 51
2, 46588, Note_on_c, 0, 72, 0
2, 46591, Note_on_c, 0, 71, 56
2, 46611, Note_on_c, 0, 65, 0
2, 46614, Note_on_c, 0, 74, 52
2, 46619, Note_on_c, 0, 71, 0
2, 46629, Note_on_c, 0, 68, 51
2, 46642, Note_on_c, 0, 72, 51
2, 46652, Note_on_c, 0, 74, 0
2, 46658, Note_on_c, 0, 71, 52
2, 46665, Note_on_c, 0, 68, 0
2, 46668, Note_on_c, 0, 72, 0
2, 46675, Note_on_c, 0, 65, 56
2, 46683, Note_on_c, 0, 71, 0
2, 46695, Note_on_c, 0, 72, 54
2, 46710, Note_on_c, 0, 65, 0
2, 46724, Note_on_c, 0, 72, 0
2, 46727, Note_on_c, 0, 71, 56
2, 46731, Note_on_c, 0, 64, 52
2, 46731, Note_on_c, 0, 57, 53
2, 46752, Note_on_c, 0, 71, 0
2, 46754, Note_on_c, 0, 69, 55
2, 46761, Note_on_c, 0, 57, 0
2, 46779, Note_on_c, 0, 72, 51
2, 46781, Note_on_c, 0, 69, 0
2, 46801, Note_on_c, 0, 71, 55
2, 46803, Note_on_c, 0, 72, 0
2, 46822, Note_on_c, 0, 64, 0
2, 46830, Note_on_c, 0, 71, 0
2, 46830, Note_on_c, 0, 69, 56
2, 46852, Note_on_c, 0, 69, 0
2, 46859, Note_on_c, 0, 64, 56
2, 46871, Note_on_c, 0, 64, 0
2, 46871, Note_on_c, 0, 98, 54
2, 46900, Note_on_c, 0, 96, 54
2, 46900, Note_on_c, 0, 91, 56
2, 46902, Control_c, 0, 64, 127
2, 46904, Note_on_c, 0, 76, 52
2, 46904, Note_on_c, 0, 67, 55
2, 46909, Note_on_c, 0, 98, 0
2, 46911, Note_on_c, 0, 70, 53
2, 46971, Note_on_c, 0, 96, 0
2, 46973, Note_on_c, 0, 91, 0
2, 46976, Note_on_c, 0, 76, 0
2, 46978, Note_on_c, 0, 70, 0
2, 46978, Note_on_c, 0, 67, 0
2, 47097, Note_on_c, 0, 72, 56
2, 47100, Note_on_c, 0, 60, 53
2, 47142, Note_on_c, 0, 60, 0
2, 47142, Note_on_c, 0, 72, 0
2, 47296, Control_c, 0, 64, 0
2, 47319, Control_c, 0, 67, 127
2, 47375, Note_on_c, 0, 98, 54
2, 47379, Note_on_c, 0, 74, 61
2, 47381, Note_on_c, 0, 70, 55
2, 47404, Note_on_c, 0, 98, 0
2, 47416, Control_c, 0, 64, 127
2, 47425, Note_on_c, 0, 79, 57
2, 47439, Note_on_c, 0, 74, 0
2, 47459, Note_on_c, 0, 82, 55
2, 47469, Note_on_c, 0, 79, 0
2, 47471, Note_on_c, 0, 70, 0
2, 47479, Note_on_c, 0, 86, 56
2, 47502, Note_on_c, 0, 82, 0
2, 47509, Note_on_c, 0, 91, 61
2, 47524, Note_on_c, 0, 86, 0
2, 47544, Note_on_c, 0, 93, 56
2, 47549, Note_on_c, 0, 91, 0
2, 47588, Note_on_c, 0, 93, 0
2, 47588, Note_on_c, 0, 91, 60
2, 47658, Note_on_c, 0, 60, 54
2, 47688, Note_on_c, 0, 91, 0
2, 47721, Note_on_c, 0, 60, 0
2, 47750, Control_c, 0, 64, 0
2, 47773, Note_on_c, 0, 72, 56
2, 47776, Note_on_c, 0, 69, 56
2, 47799, Note_on_c, 0, 75, 60
2, 47817, Note_on_c, 0, 72, 0
2, 47819, Control_c, 0, 64, 127
2, 47829, Note_on_c, 0, 78, 54
2, 47835, Note_on_c, 0, 75, 0
2, 47837, Note_on_c, 0, 69, 0
2, 47847, Note_on_c, 0, 84, 57
2, 47867, Note_on_c, 0, 78, 0
2, 47882, Note_on_c, 0, 87, 54
2, 47891, Note_on_c, 0, 84, 0
2, 47914, Note_on_c, 0, 90, 55
2, 47923, Note_on_c, 0, 87, 0
2, 47945, Note_on_c, 0, 91, 59
2, 47954, Note_on_c, 0, 90, 0
2, 47983, Note_on_c, 0, 86, 58
2, 47995, Note_on_c, 0, 91, 0
2, 48008, Note_on_c, 0, 82, 55
2, 48031, Note_on_c, 0, 86, 0
2, 48036, Note_on_c, 0, 79, 59
2, 48051, Note_on_c, 0, 74, 56
2, 48054, Note_on_c, 0, 82, 0
2, 48083, Note_on_c, 0, 79, 0
2, 48088, Note_on_c, 0, 70, 58
2, 48097, Control_c, 0, 64, 0
2, 48099, Note_on_c, 0, 74, 0
2, 48126, Note_on_c, 0, 70, 0
2, 48126, Note_on_c, 0, 72, 60
2, 48126, Note_on_c, 0, 69, 57
2, 48171, Note_on_c, 0, 77, 54
2, 48174, Control_c, 0, 64, 127
2, 48197, Note_on_c, 0, 81, 53
2, 48220, Note_on_c, 0, 77, 0
2, 48230, Note_on_c, 0, 72, 0
2, 48230, Note_on_c, 0, 69, 0
2, 48232, Note_on_c, 0, 84, 59
2, 48254, Note_on_c, 0, 81, 0
2, 48261, Note_on_c, 0, 89, 55
2, 48290, Note_on_c, 0, 84, 0
2, 48300, Note_on_c, 0, 91, 58
2, 48305, Note_on_c, 0, 89, 0
2, 48335, Note_on_c, 0, 89, 54
2, 48339, Note_on_c, 0, 91, 0
2, 48376, Note_on_c, 0, 89, 0
2, 48441, Note_on_c, 0, 60, 58
2, 48495, Note_on_c, 0, 60, 0
2, 48513, Control_c, 0, 64, 0
2, 48540, Note_on_c, 0, 71, 53
2, 48547, Note_on_c, 0, 68, 58
2, 48570, Note_on_c, 0, 74, 54
2, 48590, Control_c, 0, 64, 127
2, 48603, Note_on_c, 0, 77, 55
2, 48613, Note_on_c, 0, 71, 0
2, 48615, Note_on_c, 0, 68, 0
2, 48622, Note_on_c, 0, 74, 0
2, 48642, Note_on_c, 0, 80, 54
2, 48651, Note_on_c, 0, 77, 0
2, 48661, Note_on_c, 0, 83, 52
2, 48681, Note_on_c, 0, 80, 0
2, 48693, Note_on_c, 0, 86, 56
2, 48706, Note_on_c, 0, 83, 0
2, 48736, Note_on_c, 0, 86, 0
2, 48744, Note_on_c, 0, 84, 54
2, 48746, Note_on_c, 0, 72, 59
2, 48749, Note_on_c, 0, 77, 54
2, 48751, Note_on_c, 0, 69, 56
2, 48788, Note_on_c, 0, 84, 0
2, 48790, Note_on_c, 0, 69, 0
2, 48790, Note_on_c, 0, 77, 0
2, 48794, Note_on_c, 0, 72, 0
2, 48823, Note_on_c, 0, 60, 56
2, 48855, Note_on_c, 0, 60, 0
2, 48864, Control_c, 0, 64, 0
2, 48883, Note_on_c, 0, 70, 53
2, 48883, Note_on_c, 0, 64, 56
2, 48886, Note_on_c, 0, 60, 57
2, 48892, Note_on_c, 0, 55, 52
2, 48922, Note_on_c, 0, 64, 0
2, 48922, Note_on_c, 0, 70, 0
2, 48927, Note_on_c, 0, 60, 0
2, 48927, Note_on_c, 0, 55, 0
2, 48959, Note_on_c, 0, 76, 59
2, 48984, Note_on_c, 0, 74, 56
2, 48992, Note_on_c, 0, 76, 0
2, 48992, Note_on_c, 0, 48, 51
2, 49024, Note_on_c, 0, 48, 0
2, 49024, Note_on_c, 0, 74, 0
2, 49062, Note_on_c, 0, 60, 55
2, 49065, Note_on_c, 0, 69, 57
2, 49065, Note_on_c, 0, 64, 51
2, 49068, Note_on_c, 0, 54, 53
2, 49097, Note_on_c, 0, 69, 0
2, 49097, Note_on_c, 0, 60, 0
2, 49099, Note_on_c, 0, 64, 0
2, 49105, Note_on_c, 0, 54, 0
2, 49132, Note_on_c, 0, 76, 62
2, 49159, Note_on_c, 0, 74, 56
2, 49159, Note_on_c, 0, 48, 51
2, 49161, Note_on_c, 0, 76, 0
2, 49197, Note_on_c, 0, 74, 0
2, 49199, Note_on_c, 0, 48, 0
2, 49208, Note_on_c, 0, 70, 58
2, 49210, Note_on_c, 0, 60, 53
2, 49213, Note_on_c, 0, 64, 53
2, 49216, Note_on_c, 0, 55, 56
2, 49248, Note_on_c, 0, 64, 0
2, 49248, Note_on_c, 0, 70, 0
2, 49249, Note_on_c, 0, 60, 0
2, 49251, Note_on_c, 0, 55, 0
2, 49280, Note_on_c, 0, 76, 59
2, 49307, Note_on_c, 0, 74, 63
2, 49309, Note_on_c, 0, 48, 54
2, 49312, Note_on_c, 0, 76, 0
2, 49341, Note_on_c, 0, 48, 0
2, 49341, Note_on_c, 0, 74, 0
2, 49352, Note_on_c, 0, 60, 55
2, 49352, Note_on_c, 0, 56, 53
2, 49355, Note_on_c, 0, 71, 60
2, 49362, Note_on_c, 0, 65, 54
2, 49387, Note_on_c, 0, 65, 0
2, 49390, Note_on_c, 0, 71, 0
2, 49392, Note_on_c, 0, 56, 0
2, 49392, Note_on_c, 0, 60, 0
2, 49412, Note_on_c, 0, 79, 58
2, 49434, Note_on_c, 0, 77, 55
2, 49442, Note_on_c, 0, 48, 58
2, 49444, Note_on_c, 0, 79, 0
2, 49471, Note_on_c, 0, 77, 0
2, 49483, Note_on_c, 0, 48, 0
2, 49485, Note_on_c, 0, 72, 59
2, 49494, Note_on_c, 0, 65, 56
2, 49496, Note_on_c, 0, 63, 52
2, 49496, Note_on_c, 0, 57, 54
2, 49521, Note_on_c, 0, 72, 0
2, 49528, Note_on_c, 0, 63, 0
2, 49531, Note_on_c, 0, 65, 0
2, 49537, Note_on_c, 0, 57, 0
2, 49544, Note_on_c, 0, 79, 58
2, 49562, Note_on_c, 0, 77, 59
2, 49569, Note_on_c, 0, 41, 58
2, 49571, Note_on_c, 0, 79, 0
2, 49594, Note_on_c, 0, 77, 0
2, 49606, Note_on_c, 0, 41, 0
2, 49628, Note_on_c, 0, 63, 57
2, 49630, Note_on_c, 0, 71, 63
2, 49632, Note_on_c, 0, 56, 52
2, 49634, Note_on_c, 0, 65, 66
2, 49663, Note_on_c, 0, 71, 0
2, 49665, Note_on_c, 0, 63, 0
2, 49667, Note_on_c, 0, 56, 0
2, 49670, Note_on_c, 0, 65, 0
2, 49686, Note_on_c, 0, 79, 63
2, 49708, Note_on_c, 0, 77, 65
2, 49713, Note_on_c, 0, 41, 57
2, 49718, Note_on_c, 0, 79, 0
2, 49734, Note_on_c, 0, 77, 0
2, 49744, Note_on_c, 0, 41, 0
2, 49767, Note_on_c, 0, 72, 68
2, 49767, Note_on_c, 0, 65, 69
2, 49767, Note_on_c, 0, 63, 56
2, 49767, Note_on_c, 0, 57, 58
2, 49797, Note_on_c, 0, 65, 0
2, 49797, Note_on_c, 0, 72, 0
2, 49801, Note_on_c, 0, 63, 0
2, 49801, Note_on_c, 0, 57, 0
2, 49820, Note_on_c, 0, 79, 67
2, 49847, Note_on_c, 0, 77, 61
2, 49848, Note_on_c, 0, 53, 58
2, 49857, Note_on_c, 0, 79, 0
2, 49873, Note_on_c, 0, 77, 0
2, 49883, Note_on_c, 0, 53, 0
2, 49908, Note_on_c, 0, 65, 69
2, 49908, Note_on_c, 0, 63, 60
2, 49908, Note_on_c, 0, 57, 61
2, 49911, Note_on_c, 0, 73, 65
2, 49941, Note_on_c, 0, 73, 0
2, 49941, Note_on_c, 0, 63, 0
2, 49943, Note_on_c, 0, 57, 0
2, 49943, Note_on_c, 0, 65, 0
2, 49977, Note_on_c, 0, 79, 70
2, 49995, Note_on_c, 0, 53, 57
2, 49998, Note_on_c, 0, 77, 68
2, 50007, Note_on_c, 0, 79, 0
2, 50030, Note_on_c, 0, 77, 0
2, 50037, Note_on_c, 0, 53, 0
2, 50064, Note_on_c, 0, 58, 63
2, 50068, Control_c, 0, 64, 127
2, 50147, Note_on_c, 0, 65, 63
2, 50187, Note_on_c, 0, 67, 63
2, 50192, Note_on_c, 0, 70, 70
2, 50201, Note_on_c, 0, 65, 0
2, 50209, Note_on_c, 0, 74, 69
2, 50223, Note_on_c, 0, 67, 0
2, 50236, Note_on_c, 0, 70, 0
2, 50236, Note_on_c, 0, 77, 66
2, 50238, Note_on_c, 0, 58, 0
2, 50260, Note_on_c, 0, 79, 66
2, 50262, Note_on_c, 0, 74, 0
2, 50271, Note_on_c, 0, 77, 0
2, 50298, Note_on_c, 0, 79, 0
2, 50301, Note_on_c, 0, 77, 68
2, 50392, Note_on_c, 0, 53, 58
2, 50424, Control_c, 0, 64, 0
2, 50458, Note_on_c, 0, 53, 0
2, 50461, Note_on_c, 0, 59, 69
2, 50513, Note_on_c, 0, 77, 0
2, 50533, Control_c, 0, 64, 127
2, 50558, Note_on_c, 0, 65, 63
2, 50592, Note_on_c, 0, 68, 70
2, 50608, Note_on_c, 0, 73, 67
2, 50616, Note_on_c, 0, 65, 0
2, 50630, Note_on_c, 0, 68, 0
2, 50635, Note_on_c, 0, 77, 64
2, 50648, Note_on_c, 0, 73, 0
2, 50664, Note_on_c, 0, 79, 63
2, 50669, Note_on_c, 0, 77, 0
2, 50692, Note_on_c, 0, 59, 0
2, 50699, Note_on_c, 0, 77, 70
2, 50704, Note_on_c, 0, 79, 0
2, 50810, Note_on_c, 0, 53, 75
2, 50870, Control_c, 0, 64, 0
2, 50873, Note_on_c, 0, 53, 0
2, 50878, Note_on_c, 0, 60, 76
2, 50934, Note_on_c, 0, 77, 0
2, 50954, Control_c, 0, 64, 127
2, 50981, Note_on_c, 0, 65, 68
2, 51026, Note_on_c, 0, 67, 69
2, 51045, Note_on_c, 0, 65, 0
2, 51067, Note_on_c, 0, 72, 63
2, 51080, Note_on_c, 0, 67, 0
2, 51102, Note_on_c, 0, 77, 66
2, 51118, Note_on_c, 0, 72, 0
2, 51143, Note_on_c, 0, 79, 63
2, 51152, Note_on_c, 0, 77, 0
2, 51191, Note_on_c, 0, 79, 0
2, 51191, Note_on_c, 0, 60, 0
2, 51202, Note_on_c, 0, 77, 66
2, 51255, Note_on_c, 0, 77, 0
2, 51293, Note_on_c, 0, 53, 62
2, 51350, Note_on_c, 0, 53, 0
2, 51386, Control_c, 0, 64, 0
2, 51450, Note_on_c, 0, 61, 66
2, 51506, Control_c, 0, 64, 127
2, 51534, Note_on_c, 0, 65, 66
2, 51580, Note_on_c, 0, 67, 70
2, 51630, Note_on_c, 0, 71, 67
2, 51635, Note_on_c, 0, 67, 0
2, 51638, Control_c, 0, 67, 0
2, 51672, Note_on_c, 0, 71, 0
2, 51672, Note_on_c, 0, 77, 63
2, 51720, Note_on_c, 0, 79, 64
2, 51725, Note_on_c, 0, 77, 0
2, 51764, Note_on_c, 0, 61, 0
2, 51766, Note_on_c, 0, 65, 0
2, 51766, Note_on_c, 0, 77, 63
2, 51768, Note_on_c, 0, 79, 0
2, 51854, Note_on_c, 0, 77, 0
2, 52004, Control_c, 0, 64, 0
2, 52065, Note_on_c, 0, 48, 63
2, 52110, Note_on_c, 0, 57, 64
2, 52127, Control_c, 0, 64, 127
2, 52136, Note_on_c, 0, 60, 62
2, 52157, Note_on_c, 0, 65, 61
2, 52169, Note_on_c, 0, 48, 0
2, 52182, Note_on_c, 0, 69, 62
2, 52187, Note_on_c, 0, 57, 0
2, 52194, Note_on_c, 0, 65, 0
2, 52210, Note_on_c, 0, 72, 63
2, 52215, Note_on_c, 0, 69, 0
2, 52242, Note_on_c, 0, 72, 0
2, 52245, Note_on_c, 0, 77, 62
2, 52265, Note_on_c, 0, 60, 0
2, 52267, Note_on_c, 0, 81, 61
2, 52288, Note_on_c, 0, 77, 0
2, 52291, Note_on_c, 0, 84, 67
2, 52297, Note_on_c, 0, 81, 0
2, 52316, Note_on_c, 0, 84, 0
2, 52331, Note_on_c, 0, 89, 65
2, 52361, Note_on_c, 0, 93, 64
2, 52366, Note_on_c, 0, 89, 0
2, 52391, Note_on_c, 0, 96, 61
2, 52395, Note_on_c, 0, 93, 0
2, 52420, Note_on_c, 0, 101, 64
2, 52432, Note_on_c, 0, 96, 0
2, 52447, Note_on_c, 0, 36, 61
2, 52454, Note_on_c, 0, 101, 0
2, 52492, Note_on_c, 0, 36, 0
2, 52733, Note_on_c, 0, 88, 67
2, 52760, Note_on_c, 0, 88, 0
2, 52774, Note_on_c, 0, 89, 68
2, 52795, Control_c, 0, 64, 0
2, 52800, Note_on_c, 0, 88, 62
2, 52802, Note_on_c, 0, 89, 0
2, 52836, Note_on_c, 0, 88, 0
2, 52841, Note_on_c, 0, 86, 63
2, 52874, Note_on_c, 0, 86, 0
2, 52922, Note_on_c, 0, 84, 63
2, 52949, Note_on_c, 0, 84, 0
2, 52954, Note_on_c, 0, 86, 63
2, 52984, Note_on_c, 0, 84, 65
2, 52989, Note_on_c, 0, 86, 0
2, 53018, Note_on_c, 0, 84, 0
2, 53018, Note_on_c, 0, 82, 68
2, 53046, Note_on_c, 0, 82, 0
2, 53085, Note_on_c, 0, 81, 66
2, 53094, Note_on_c, 0, 62, 60
2, 53097, Note_on_c, 0, 72, 68
2, 53097, Note_on_c, 0, 66, 68
2, 53112, Note_on_c, 0, 81, 0
2, 53114, Note_on_c, 0, 82, 69
2, 53128, Note_on_c, 0, 62, 0
2, 53137, Note_on_c, 0, 66, 0
2, 53139, Note_on_c, 0, 72, 0
2, 53146, Note_on_c, 0, 82, 0
2, 53149, Note_on_c, 0, 81, 64
2, 53169, Note_on_c, 0, 81, 0
2, 53171, Note_on_c, 0, 86, 63
2, 53171, Note_on_c, 0, 70, 65
2, 53174, Note_on_c, 0, 55, 56
2, 53176, Note_on_c, 0, 67, 62
2, 53179, Note_on_c, 0, 62, 56
2, 53200, Note_on_c, 0, 82, 68
2, 53205, Note_on_c, 0, 86, 0
2, 53208, Note_on_c, 0, 70, 0
2, 53209, Note_on_c, 0, 55, 0
2, 53211, Note_on_c, 0, 67, 0
2, 53213, Note_on_c, 0, 62, 0
2, 53215, Note_on_c, 0, 81, 64
2, 53231, Note_on_c, 0, 82, 0
2, 53244, Note_on_c, 0, 79, 67
2, 53254, Note_on_c, 0, 81, 0
2, 53281, Note_on_c, 0, 79, 0
2, 53375, Note_on_c, 0, 48, 58
2, 53409, Note_on_c, 0, 55, 53
2, 53411, Note_on_c, 0, 76, 68
2, 53413, Note_on_c, 0, 48, 0
2, 53422, Note_on_c, 0, 58, 55
2, 53447, Note_on_c, 0, 55, 0
2, 53447, Note_on_c, 0, 70, 64
2, 53449, Note_on_c, 0, 64, 57
2, 53458, Note_on_c, 0, 76, 0
2, 53470, Note_on_c, 0, 69, 65
2, 53472, Note_on_c, 0, 58, 0
2, 53483, Note_on_c, 0, 70, 0
2, 53495, Note_on_c, 0, 64, 0
2, 53497, Note_on_c, 0, 67, 62
2, 53506, Note_on_c, 0, 69, 0
2, 53543, Note_on_c, 0, 67, 0
2, 53735, Control_c, 0, 67, 127
2, 53847, Note_on_c, 0, 48, 67
2, 53973, Note_on_c, 0, 41, 65
2, 53994, Note_on_c, 0, 53, 70
2, 54014, Note_on_c, 0, 48, 0
2, 54030, Control_c, 0, 64, 127
2, 54090, Note_on_c, 0, 41, 0
2, 54121, Note_on_c, 0, 60, 71
2, 54153, Note_on_c, 0, 65, 57
2, 54173, Note_on_c, 0, 69, 55
2, 54178, Note_on_c, 0, 60, 0
2, 54187, Note_on_c, 0, 72, 55
2, 54192, Note_on_c, 0, 65, 0
2, 54215, Note_on_c, 0, 55, 67
2, 54216, Note_on_c, 0, 69, 0
2, 54248, Note_on_c, 0, 72, 0
2, 54268, Note_on_c, 0, 53, 0
2, 54289, Note_on_c, 0, 60, 65
2, 54317, Note_on_c, 0, 64, 65
2, 54337, Note_on_c, 0, 70, 61
2, 54340, Note_on_c, 0, 60, 0
2, 54350, Note_on_c, 0, 72, 61
2, 54363, Note_on_c, 0, 64, 0
2, 54384, Note_on_c, 0, 70, 0
2, 54401, Note_on_c, 0, 57, 65
2, 54408, Note_on_c, 0, 72, 0
2, 54424, Control_c, 0, 64, 0
2, 54427, Note_on_c, 0, 55, 0
2, 54486, Note_on_c, 0, 60, 59
2, 54496, Control_c, 0, 64, 127
2, 54512, Note_on_c, 0, 65, 60
2, 54524, Note_on_c, 0, 72, 57
2, 54553, Note_on_c, 0, 65, 0
2, 54565, Note_on_c, 0, 57, 0
2, 54574, Note_on_c, 0, 72, 0
2, 54578, Note_on_c, 0, 55, 62
2, 54605, Note_on_c, 0, 60, 0
2, 54612, Note_on_c, 0, 57, 65
2, 54621, Note_on_c, 0, 55, 0
2, 54646, Note_on_c, 0, 60, 61
2, 54648, Note_on_c, 0, 55, 65
2, 54657, Note_on_c, 0, 57, 0
2, 54682, Note_on_c, 0, 72, 55
2, 54682, Note_on_c, 0, 70, 60
2, 54691, Control_c, 0, 64, 0
2, 54694, Note_on_c, 0, 48, 60
2, 54707, Note_on_c, 0, 55, 0
2, 54723, Note_on_c, 0, 70, 0
2, 54740, Note_on_c, 0, 53, 61
2, 54743, Note_on_c, 0, 48, 0
2, 54744, Note_on_c, 0, 72, 0
2, 54788, Note_on_c, 0, 60, 0
2, 54804, Control_c, 0, 64, 127
2, 54809, Note_on_c, 0, 53, 0
2, 54830, Note_on_c, 0, 60, 64
2, 54839, Note_on_c, 0, 53, 62
2, 54855, Note_on_c, 0, 69, 59
2, 54860, Note_on_c, 0, 72, 58
2, 54903, Note_on_c, 0, 69, 0
2, 54923, Note_on_c, 0, 55, 64
2, 54928, Control_c, 0, 64, 0
2, 54931, Note_on_c, 0, 53, 0
2, 54937, Note_on_c, 0, 72, 0
2, 54984, Note_on_c, 0, 55, 0
2, 54986, Note_on_c, 0, 60, 0
2, 54993, Control_c, 0, 64, 127
2, 55018, Note_on_c, 0, 60, 68
2, 55030, Note_on_c, 0, 55, 68
2, 55039, Note_on_c, 0, 72, 56
2, 55039, Note_on_c, 0, 70, 60
2, 55097, Control_c, 0, 64, 0
2, 55111, Note_on_c, 0, 70, 0
2, 55118, Note_on_c, 0, 57, 66
2, 55120, Note_on_c, 0, 55, 0
2, 55133, Note_on_c, 0, 72, 0
2, 55165, Note_on_c, 0, 60, 0
2, 55175, Control_c, 0, 64, 127
2, 55191, Note_on_c, 0, 57, 0
2, 55200, Note_on_c, 0, 60, 63
2, 55202, Note_on_c, 0, 58, 68
2, 55216, Note_on_c, 0, 48, 64
2, 55236, Note_on_c, 0, 57, 62
2, 55238, Note_on_c, 0, 72, 59
2, 55247, Note_on_c, 0, 58, 0
2, 55249, Note_on_c, 0, 60, 0
2, 55252, Note_on_c, 0, 48, 0
2, 55259, Control_c, 0, 64, 0
2, 55266, Note_on_c, 0, 55, 68
2, 55269, Note_on_c, 0, 57, 0
2, 55296, Note_on_c, 0, 72, 0
2, 55320, Control_c, 0, 64, 127
2, 55353, Note_on_c, 0, 55, 0
2, 55376, Note_on_c, 0, 48, 59
2, 55378, Note_on_c, 0, 72, 61
2, 55378, Note_on_c, 0, 70, 57
2, 55378, Note_on_c, 0, 64, 58
2, 55380, Note_on_c, 0, 60, 59
2, 55415, Note_on_c, 0, 48, 0
2, 55419, Note_on_c, 0, 72, 0
2, 55422, Note_on_c, 0, 60, 0
2, 55422, Note_on_c, 0, 70, 0
2, 55425, Note_on_c, 0, 64, 0
2, 55464, Control_c, 0, 64, 0
2, 55497, Note_on_c, 0, 74, 64
2, 55497, Note_on_c, 0, 41, 57
2, 55547, Control_c, 0, 64, 127
2, 55621, Note_on_c, 0, 41, 0
2, 55680, Note_on_c, 0, 70, 62
2, 55683, Note_on_c, 0, 64, 58
2, 55683, Note_on_c, 0, 55, 62
2, 55683, Note_on_c, 0, 48, 60
2, 55722, Note_on_c, 0, 74, 0
2, 55750, Note_on_c, 0, 76, 55
2, 55756, Note_on_c, 0, 48, 0
2, 55761, Note_on_c, 0, 55, 0
2, 55805, Note_on_c, 0, 64, 0
2, 55807, Note_on_c, 0, 70, 0
2, 55873, Note_on_c, 0, 64, 58
2, 55876, Note_on_c, 0, 55, 56
2, 55878, Note_on_c, 0, 70, 55
2, 55878, Note_on_c, 0, 48, 57
2, 55895, Control_c, 0, 64, 0
2, 55904, Note_on_c, 0, 76, 0
2, 55924, Note_on_c, 0, 48, 0
2, 55926, Note_on_c, 0, 64, 0
2, 55926, Note_on_c, 0, 70, 0
2, 55933, Note_on_c, 0, 55, 0
2, 55949, Note_on_c, 0, 74, 58
2, 55951, Note_on_c, 0, 41, 60
2, 55990, Control_c, 0, 64, 127
2, 56049, Note_on_c, 0, 69, 57
2, 56049, Note_on_c, 0, 65, 55
2, 56051, Note_on_c, 0, 57, 56
2, 56051, Note_on_c, 0, 48, 55
2, 56072, Note_on_c, 0, 41, 0
2, 56095, Note_on_c, 0, 69, 0
2, 56097, Note_on_c, 0, 65, 0
2, 56100, Note_on_c, 0, 57, 0
2, 56100, Note_on_c, 0, 48, 0
2, 56114, Note_on_c, 0, 72, 55
2, 56119, Note_on_c, 0, 74, 0
2, 56158, Note_on_c, 0, 69, 55
2, 56167, Note_on_c, 0, 72, 0
2, 56184, Note_on_c, 0, 65, 54
2, 56190, Note_on_c, 0, 69, 0
2, 56202, Note_on_c, 0, 57, 59
2, 56210, Note_on_c, 0, 48, 59
2, 56212, Control_c, 0, 64, 0
2, 56222, Note_on_c, 0, 69, 58
2, 56227, Note_on_c, 0, 65, 0
2, 56248, Note_on_c, 0, 72, 54
2, 56256, Note_on_c, 0, 69, 0
2, 56263, Note_on_c, 0, 57, 0
2, 56263, Note_on_c, 0, 48, 0
2, 56270, Note_on_c, 0, 74, 52
2, 56279, Note_on_c, 0, 41, 57
2, 56290, Note_on_c, 0, 72, 0
2, 56304, Control_c, 0, 64, 127
2, 56332, Note_on_c, 0, 74, 0
2, 56369, Note_on_c, 0, 41, 0
2, 56377, Note_on_c, 0, 74, 58
2, 56382, Note_on_c, 0, 70, 54
2, 56382, Note_on_c, 0, 67, 59
2, 56382, Note_on_c, 0, 64, 57
2, 56391, Note_on_c, 0, 48, 58
2, 56396, Note_on_c, 0, 55, 58
2, 56469, Note_on_c, 0, 74, 0
2, 56471, Note_on_c, 0, 76, 56
2, 56477, Note_on_c, 0, 48, 0
2, 56477, Note_on_c, 0, 55, 0
2, 56480, Note_on_c, 0, 64, 0
2, 56480, Note_on_c, 0, 70, 0
2, 56483, Note_on_c, 0, 67, 0
2, 56526, Note_on_c, 0, 76, 0
2, 56570, Note_on_c, 0, 76, 60
2, 56570, Note_on_c, 0, 70, 58
2, 56577, Note_on_c, 0, 55, 53
2, 56577, Note_on_c, 0, 48, 52
2, 56579, Note_on_c, 0, 67, 53
2, 56579, Note_on_c, 0, 64, 53
2, 56623, Control_c, 0, 64, 0
2, 56651, Note_on_c, 0, 70, 0
2, 56651, Note_on_c, 0, 76, 0
2, 56653, Note_on_c, 0, 48, 0
2, 56653, Note_on_c, 0, 55, 0
2, 56653, Note_on_c, 0, 41, 55
2, 56655, Note_on_c, 0, 64, 0
2, 56655, Note_on_c, 0, 67, 0
2, 56660, Note_on_c, 0, 77, 53
2, 56709, Control_c, 0, 64, 127
2, 56711, Note_on_c, 0, 77, 0
2, 56712, Note_on_c, 0, 41, 0
2, 56744, Note_on_c, 0, 74, 59
2, 56746, Note_on_c, 0, 70, 60
2, 56746, Note_on_c, 0, 55, 51
2, 56746, Note_on_c, 0, 48, 53
2, 56749, Note_on_c, 0, 77, 53
2, 56749, Note_on_c, 0, 65, 60
2, 56788, Note_on_c, 0, 74, 0
2, 56790, Note_on_c, 0, 70, 0
2, 56804, Note_on_c, 0, 55, 0
2, 56804, Note_on_c, 0, 65, 0
2, 56817, Note_on_c, 0, 48, 0
2, 56826, Note_on_c, 0, 77, 0
2, 56826, Note_on_c, 0, 79, 59
2, 56881, Note_on_c, 0, 79, 0
2, 56911, Note_on_c, 0, 64, 53
2, 56921, Note_on_c, 0, 79, 58
2, 56921, Note_on_c, 0, 76, 58
2, 56921, Note_on_c, 0, 72, 60
2, 56921, Note_on_c, 0, 70, 55
2, 56926, Note_on_c, 0, 55, 51
2, 56926, Note_on_c, 0, 48, 52
2, 56928, Note_on_c, 0, 60, 54
2, 56938, Control_c, 0, 64, 0
2, 56954, Note_on_c, 0, 70, 0
2, 56954, Note_on_c, 0, 72, 0
2, 56954, Note_on_c, 0, 64, 0
2, 56954, Note_on_c, 0, 76, 0
2, 56954, Note_on_c, 0, 79, 0
2, 56971, Note_on_c, 0, 60, 0
2, 56971, Note_on_c, 0, 48, 0
2, 56977, Note_on_c, 0, 55, 0
2, 56982, Note_on_c, 0, 41, 51
2, 57010, Note_on_c, 0, 81, 56
2, 57013, Note_on_c, 0, 48, 52
2, 57031, Note_on_c, 0, 79, 60
2, 57038, Control_c, 0, 64, 127
2, 57045, Note_on_c, 0, 81, 0
2, 57045, Note_on_c, 0, 57, 56
2, 57053, Note_on_c, 0, 77, 60
2, 57067, Note_on_c, 0, 79, 0
2, 57073, Control_c, 0, 67, 0
2, 57080, Note_on_c, 0, 48, 0
2, 57082, Note_on_c, 0, 41, 0
2, 57084, Note_on_c, 0, 57, 0
2, 57094, Note_on_c, 0, 77, 0
2, 57096, Note_on_c, 0, 81, 57
2, 57126, Note_on_c, 0, 79, 55
2, 57138, Note_on_c, 0, 81, 0
2, 57151, Note_on_c, 0, 77, 58
2, 57160, Note_on_c, 0, 79, 0
2, 57178, Note_on_c, 0, 84, 59
2, 57180, Note_on_c, 0, 77, 0
2, 57215, Note_on_c, 0, 84, 0
2, 57277, Note_on_c, 0, 74, 64
2, 57282, Control_c, 0, 64, 0
2, 57295, Note_on_c, 0, 72, 64
2, 57315, Note_on_c, 0, 74, 0
2, 57361, Note_on_c, 0, 81, 57
2, 57371, Note_on_c, 0, 65, 62
2, 57396, Note_on_c, 0, 79, 58
2, 57405, Note_on_c, 0, 81, 0
2, 57407, Note_on_c, 0, 72, 0
2, 57407, Note_on_c, 0, 65, 0
2, 57428, Note_on_c, 0, 77, 63
2, 57431, Note_on_c, 0, 79, 0
2, 57454, Note_on_c, 0, 77, 0
2, 57456, Note_on_c, 0, 81, 59
2, 57481, Note_on_c, 0, 79, 57
2, 57490, Note_on_c, 0, 81, 0
2, 57508, Note_on_c, 0, 77, 63
2, 57517, Note_on_c, 0, 79, 0
2, 57530, Note_on_c, 0, 86, 59
2, 57544, Note_on_c, 0, 77, 0
2, 57570, Note_on_c, 0, 86, 0
2, 57627, Note_on_c, 0, 74, 72
2, 57642, Note_on_c, 0, 72, 66
2, 57663, Note_on_c, 0, 74, 0
2, 57693, Note_on_c, 0, 81, 64
2, 57695, Note_on_c, 0, 65, 66
2, 57722, Note_on_c, 0, 81, 0
2, 57722, Note_on_c, 0, 79, 64
2, 57732, Note_on_c, 0, 72, 0
2, 57735, Note_on_c, 0, 65, 0
2, 57742, Note_on_c, 0, 77, 69
2, 57762, Note_on_c, 0, 79, 0
2, 57768, Note_on_c, 0, 84, 69
2, 57775, Note_on_c, 0, 77, 0
2, 57800, Note_on_c, 0, 84, 0
2, 57846, Note_on_c, 0, 81, 68
2, 57878, Note_on_c, 0, 81, 0
2, 57883, Note_on_c, 0, 79, 67
2, 57904, Note_on_c, 0, 77, 62
2, 57918, Note_on_c, 0, 79, 0
2, 57930, Note_on_c, 0, 86, 63
2, 57939, Note_on_c, 0, 77, 0
2, 57964, Note_on_c, 0, 86, 0
2, 58002, Note_on_c, 0, 81, 64
2, 58039, Note_on_c, 0, 81, 0
2, 58039, Note_on_c, 0, 79, 65
2, 58062, Note_on_c, 0, 77, 62
2, 58071, Note_on_c, 0, 79, 0
2, 58078, Note_on_c, 0, 88, 68
2, 58092, Note_on_c, 0, 77, 0
2, 58112, Note_on_c, 0, 88, 0
2, 58149, Note_on_c, 0, 81, 64
2, 58186, Note_on_c, 0, 81, 0
2, 58186, Note_on_c, 0, 79, 65
2, 58207, Note_on_c, 0, 77, 65
2, 58217, Note_on_c, 0, 79, 0
2, 58224, Note_on_c, 0, 89, 63
2, 58233, Note_on_c, 0, 77, 0
2, 58258, Note_on_c, 0, 89, 0
2, 58376, Note_on_c, 0, 93, 64
2, 58404, Control_c, 0, 64, 127
2, 58411, Note_on_c, 0, 93, 0
2, 58414, Note_on_c, 0, 89, 65
2, 58437, Note_on_c, 0, 86, 67
2, 58446, Note_on_c, 0, 89, 0
2, 58463, Note_on_c, 0, 84, 64
2, 58467, Note_on_c, 0, 86, 0
2, 58481, Note_on_c, 0, 81, 65
2, 58490, Note_on_c, 0, 84, 0
2, 58509, Note_on_c, 0, 77, 70
2, 58512, Note_on_c, 0, 81, 0
2, 58543, Note_on_c, 0, 77, 0
2, 58558, Note_on_c, 0, 72, 65
2, 58584, Note_on_c, 0, 72, 0
2, 58605, Note_on_c, 0, 81, 69
2, 58631, Note_on_c, 0, 77, 66
2, 58644, Note_on_c, 0, 74, 68
2, 58647, Note_on_c, 0, 81, 0
2, 58656, Note_on_c, 0, 77, 0
2, 58665, Note_on_c, 0, 72, 68
2, 58680, Note_on_c, 0, 74, 0
2, 58700, Note_on_c, 0, 72, 0
2, 58708, Note_on_c, 0, 69, 68
2, 58728, Note_on_c, 0, 65, 63
2, 58742, Note_on_c, 0, 69, 0
2, 58752, Note_on_c, 0, 60, 55
2, 58765, Note_on_c, 0, 65, 0
2, 58786, Note_on_c, 0, 60, 0
2, 58830, Note_on_c, 0, 93, 67
2, 58853, Note_on_c, 0, 89, 68
2, 58860, Note_on_c, 0, 93, 0
2, 58880, Note_on_c, 0, 86, 65
2, 58889, Note_on_c, 0, 89, 0
2, 58905, Note_on_c, 0, 84, 65
2, 58910, Note_on_c, 0, 86, 0
2, 58935, Note_on_c, 0, 81, 64
2, 58938, Note_on_c, 0, 84, 0
2, 58968, Note_on_c, 0, 81, 0
2, 58977, Note_on_c, 0, 77, 65
2, 58995, Note_on_c, 0, 72, 67
2, 59004, Note_on_c, 0, 77, 0
2, 59030, Note_on_c, 0, 72, 0
2, 59058, Note_on_c, 0, 81, 70
2, 59088, Note_on_c, 0, 77, 65
2, 59103, Note_on_c, 0, 81, 0
2, 59112, Note_on_c, 0, 74, 65
2, 59131, Note_on_c, 0, 77, 0
2, 59140, Note_on_c, 0, 72, 64
2, 59145, Note_on_c, 0, 74, 0
2, 59175, Note_on_c, 0, 72, 0
2, 59186, Note_on_c, 0, 69, 64
2, 59217, Note_on_c, 0, 69, 0
2, 59217, Note_on_c, 0, 65, 69
2, 59245, Note_on_c, 0, 65, 0
2, 59245, Note_on_c, 0, 60, 58
2, 59287, Note_on_c, 0, 60, 0
2, 59310, Note_on_c, 0, 93, 64
2, 59338, Note_on_c, 0, 89, 69
2, 59359, Note_on_c, 0, 93, 0
2, 59369, Note_on_c, 0, 86, 69
2, 59377, Note_on_c, 0, 89, 0
2, 59408, Note_on_c, 0, 86, 0
2, 59408, Note_on_c, 0, 84, 69
2, 59439, Note_on_c, 0, 84, 0
2, 59439, Note_on_c, 0, 81, 66
2, 59475, Note_on_c, 0, 81, 0
2, 59475, Note_on_c, 0, 77, 63
2, 59500, Note_on_c, 0, 72, 66
2, 59507, Note_on_c, 0, 77, 0
2, 59533, Note_on_c, 0, 72, 0
2, 59566, Note_on_c, 0, 81, 64
2, 59618, Note_on_c, 0, 77, 68
2, 59625, Note_on_c, 0, 81, 0
2, 59643, Note_on_c, 0, 74, 70
2, 59657, Note_on_c, 0, 77, 0
2, 59678, Note_on_c, 0, 72, 69
2, 59687, Note_on_c, 0, 74, 0
2, 59716, Note_on_c, 0, 72, 0
2, 59723, Note_on_c, 0, 69, 68
2, 59756, Note_on_c, 0, 69, 0
2, 59756, Note_on_c, 0, 65, 70
2, 59802, Note_on_c, 0, 60, 55
2, 59816, Note_on_c, 0, 65, 0
2, 59856, Note_on_c, 0, 93, 67
2, 59881, Note_on_c, 0, 60, 0
2, 59891, Note_on_c, 0, 89, 66
2, 59930, Note_on_c, 0, 93, 0
2, 59935, Note_on_c, 0, 86, 65
2, 59949, Note_on_c, 0, 89, 0
2, 59972, Note_on_c, 0, 84, 67
2, 59983, Note_on_c, 0, 86, 0
2, 60016, Note_on_c, 0, 84, 0
2, 60016, Note_on_c, 0, 81, 64
2, 60058, Note_on_c, 0, 81, 0
2, 60061, Note_on_c, 0, 77, 69
2, 60074, Note_on_c, 0, 72, 65
2, 60116, Note_on_c, 0, 77, 0
2, 60134, Note_on_c, 0, 72, 0
2, 60192, Note_on_c, 0, 81, 70
2, 60223, Note_on_c, 0, 77, 69
2, 60242, Note_on_c, 0, 81, 0
2, 60247, Note_on_c, 0, 74, 69
2, 60261, Note_on_c, 0, 77, 0
2, 60282, Note_on_c, 0, 72, 68
2, 60291, Note_on_c, 0, 74, 0
2, 60324, Note_on_c, 0, 72, 0
2, 60347, Note_on_c, 0, 69, 70
2, 60384, Note_on_c, 0, 65, 69
2, 60391, Note_on_c, 0, 69, 0
2, 60429, Note_on_c, 0, 65, 0
2, 60438, Note_on_c, 0, 60, 58
2, 60476, Note_on_c, 0, 60, 0
2, 60636, Note_on_c, 0, 41, 57
2, 60708, Note_on_c, 0, 41, 0
2, 60910, Note_on_c, 0, 96, 66
2, 60929, Note_on_c, 0, 98, 68
2, 60940, Note_on_c, 0, 96, 0
2, 60947, Note_on_c, 0, 100, 62
2, 60957, Note_on_c, 0, 98, 0
2, 60966, Note_on_c, 0, 101, 62
2, 60969, Note_on_c, 0, 89, 68
2, 60976, Note_on_c, 0, 81, 62
2, 60983, Note_on_c, 0, 100, 0
2, 60983, Note_on_c, 0, 77, 66
2, 60984, Note_on_c, 0, 72, 65
2, 61010, Note_on_c, 0, 101, 0
2, 61019, Note_on_c, 0, 81, 0
2, 61019, Note_on_c, 0, 89, 0
2, 61026, Note_on_c, 0, 72, 0
2, 61031, Note_on_c, 0, 77, 0
2, 61496, Note_on_c, 0, 53, 62
2, 61503, Note_on_c, 0, 41, 63
2, 61506, Note_on_c, 0, 29, 63
2, 61555, Note_on_c, 0, 53, 0
2, 61557, Note_on_c, 0, 41, 0
2, 61560, Note_on_c, 0, 29, 0
2, 62278, Control_c, 0, 64, 0
2, 62278, End_track
0, 0, End_of_file
