0, 0, Header, 1, 5, 960
1, 0, Start_track
1, 0, Title_t, "Opus 106 Expansion"
1, 0, Text_t, "Cecile Chaminade "
1, 0, Text_t, "\012"
1, 0, Time_signature, 3, 2, 24, 8
1, 0, Key_signature, 0, "major"
1, 0, Tempo, 789474
1, 23040, Tempo, 833333
1, 42240, Tempo, 851064
1, 43200, Tempo, 851064
1, 44160, Tempo, 1454545
1, 46080, Time_signature, 9, 3, 12, 8
1, 46080, Tempo, 375000
1, 63360, Tempo, 363460
1, 64320, Tempo, 352920
1, 65280, Tempo, 348331
1, 66240, Tempo, 340832
1, 67200, Tempo, 339520
1, 68160, Tempo, 339520
1, 69120, Tempo, 339520
1, 70080, Tempo, 339520
1, 74880, Tempo, 336700
1, 75840, Tempo, 342583
1, 76800, Tempo, 348736
1, 77760, Tempo, 355261
1, 78720, Tempo, 362100
1, 79680, Tempo, 368868
1, 80160, Tempo, 382044
1, 80640, Tempo, 375000
1, 145920, Tempo, 380807
1, 146880, Tempo, 394011
1, 147840, Tempo, 405899
1, 148800, Tempo, 423221
1, 149040, Tempo, 2000000
1, 149580, Tempo, 1951220
1, 149760, Time_signature, 3, 2, 24, 8
1, 149760, Tempo, 776699
1, 192960, Tempo, 750281
1, 194400, Tempo, 750281
1, 195120, Tempo, 2000000
1, 195300, Tempo, 2000000
1, 195835, Tempo, 376105
1, 195840, Time_signature, 9, 3, 12, 8
1, 198720, Tempo, 370828
1, 203040, Tempo, 367377
1, 207360, Tempo, 367377
1, 211680, Tempo, 364210
1, 216000, Tempo, 359174
1, 220320, Tempo, 354400
1, 226560, Tempo, 351350
1, 227875, Tempo, 359174
1, 229495, Tempo, 367377
1, 231655, Tempo, 372601
1, 298805, Tempo, 2000000
1, 299520, Time_signature, 3, 2, 24, 8
1, 299520, Tempo, 833333
1, 342798, Tempo, 1568627
1, 344778, Tempo, 1250000
1, 344778, End_track
2, 0, Start_track
2, 0, Title_t, "Piano"
2, 0, Control_c, 0, 7, 105
2, 0, Control_c, 0, 10, 83
2, 0, Control_c, 0, 91, 100
2, 0, Note_on_c, 0, 58, 79
2, 70, Control_c, 0, 121, 0
2, 320, Note_on_c, 0, 59, 75
2, 440, Note_on_c, 0, 58, 0
2, 640, Note_on_c, 0, 64, 71
2, 760, Note_on_c, 0, 59, 0
2, 960, Note_on_c, 0, 68, 78
2, 1080, Note_on_c, 0, 64, 0
2, 1440, Note_on_c, 0, 71, 78
2, 1560, Note_on_c, 0, 68, 0
2, 1920, Note_on_c, 0, 71, 0
2, 1920, Note_on_c, 0, 73, 78
2, 2400, Note_on_c, 0, 68, 75
2, 2520, Note_on_c, 0, 73, 0
2, 2880, Note_on_c, 0, 68, 0
2, 2880, Note_on_c, 0, 71, 70
2, 3200, Note_on_c, 0, 69, 75
2, 3320, Note_on_c, 0, 71, 0
2, 3520, Note_on_c, 0, 66, 70
2, 3640, Note_on_c, 0, 69, 0
2, 3840, Note_on_c, 0, 63, 73
2, 3960, Note_on_c, 0, 66, 0
2, 4320, Note_on_c, 0, 61, 75
2, 4440, Note_on_c, 0, 63, 0
2, 4800, Note_on_c, 0, 61, 0
2, 4800, Note_on_c, 0, 60, 79
2, 5280, Note_on_c, 0, 59, 74
2, 5400, Note_on_c, 0, 60, 0
2, 5760, Note_on_c, 0, 59, 0
2, 5760, Note_on_c, 0, 58, 69
2, 6080, Note_on_c, 0, 59, 71
2, 6200, Note_on_c, 0, 58, 0
2, 6400, Note_on_c, 0, 64, 73
2, 6520, Note_on_c, 0, 59, 0
2, 6720, Note_on_c, 0, 68, 75
2, 6840, Note_on_c, 0, 64, 0
2, 7200, Note_on_c, 0, 71, 79
2, 7320, Note_on_c, 0, 68, 0
2, 7680, Note_on_c, 0, 71, 0
2, 7680, Note_on_c, 0, 76, 82
2, 8160, Note_on_c, 0, 73, 86
2, 8280, Note_on_c, 0, 76, 0
2, 8640, Note_on_c, 0, 73, 0
2, 8640, Note_on_c, 0, 63, 71
2, 8640, Note_on_c, 0, 68, 75
2, 8640, Note_on_c, 0, 75, 83
2, 10980, Note_on_c, 0, 63, 0
2, 11023, Note_on_c, 0, 75, 0
2, 11040, Note_on_c, 0, 68, 0
2, 11040, Note_on_c, 0, 75, 87
2, 11498, Note_on_c, 0, 75, 0
2, 11520, Note_on_c, 0, 80, 83
2, 11840, Note_on_c, 0, 79, 90
2, 11960, Note_on_c, 0, 80, 0
2, 12160, Note_on_c, 0, 80, 89
2, 12280, Note_on_c, 0, 79, 0
2, 12480, Note_on_c, 0, 75, 93
2, 12600, Note_on_c, 0, 80, 0
2, 12900, Note_on_c, 0, 75, 0
2, 12960, Note_on_c, 0, 75, 85
2, 13440, Note_on_c, 0, 76, 92
2, 13560, Note_on_c, 0, 75, 0
2, 13920, Note_on_c, 0, 77, 90
2, 14040, Note_on_c, 0, 76, 0
2, 14400, Note_on_c, 0, 78, 78
2, 14520, Note_on_c, 0, 77, 0
2, 14720, Note_on_c, 0, 75, 76
2, 14840, Note_on_c, 0, 78, 0
2, 15040, Note_on_c, 0, 71, 73
2, 15160, Note_on_c, 0, 75, 0
2, 15360, Note_on_c, 0, 66, 70
2, 15480, Note_on_c, 0, 71, 0
2, 15840, Note_on_c, 0, 65, 66
2, 15960, Note_on_c, 0, 66, 0
2, 16320, Note_on_c, 0, 65, 0
2, 16320, Note_on_c, 0, 64, 62
2, 16800, Note_on_c, 0, 63, 58
2, 16920, Note_on_c, 0, 64, 0
2, 17280, Note_on_c, 0, 63, 0
2, 17280, Note_on_c, 0, 60, 47
2, 17600, Note_on_c, 0, 61, 43
2, 17720, Note_on_c, 0, 60, 0
2, 17920, Note_on_c, 0, 63, 43
2, 18040, Note_on_c, 0, 61, 0
2, 18240, Note_on_c, 0, 61, 43
2, 18360, Note_on_c, 0, 63, 0
2, 18720, Note_on_c, 0, 68, 46
2, 18840, Note_on_c, 0, 61, 0
2, 19200, Note_on_c, 0, 68, 0
2, 19200, Note_on_c, 0, 66, 46
2, 19920, Note_on_c, 0, 58, 46
2, 20040, Note_on_c, 0, 66, 0
2, 20160, Note_on_c, 0, 58, 0
2, 20160, Note_on_c, 0, 57, 49
2, 20160, Note_on_c, 0, 61, 46
2, 20640, Note_on_c, 0, 59, 50
2, 20760, Note_on_c, 0, 61, 0
2, 21105, Note_on_c, 0, 59, 0
2, 21120, Note_on_c, 0, 57, 0
2, 21120, Note_on_c, 0, 69, 89
2, 21120, Note_on_c, 0, 73, 82
2, 21600, Note_on_c, 0, 71, 91
2, 21720, Note_on_c, 0, 73, 0
2, 22080, Note_on_c, 0, 71, 0
2, 22080, Note_on_c, 0, 69, 0
2, 22080, Note_on_c, 0, 81, 85
2, 22080, Note_on_c, 0, 85, 88
2, 22560, Note_on_c, 0, 83, 92
2, 22680, Note_on_c, 0, 85, 0
2, 23040, Note_on_c, 0, 83, 0
2, 23040, Note_on_c, 0, 81, 0
2, 23050, Note_on_c, 0, 58, 97
2, 23370, Note_on_c, 0, 59, 99
2, 23490, Note_on_c, 0, 58, 0
2, 23690, Note_on_c, 0, 64, 98
2, 23810, Note_on_c, 0, 59, 0
2, 24010, Note_on_c, 0, 68, 101
2, 24130, Note_on_c, 0, 64, 0
2, 24490, Note_on_c, 0, 71, 99
2, 24610, Note_on_c, 0, 68, 0
2, 24970, Note_on_c, 0, 71, 0
2, 24970, Note_on_c, 0, 75, 96
2, 25690, Note_on_c, 0, 73, 99
2, 25810, Note_on_c, 0, 75, 0
2, 25930, Note_on_c, 0, 73, 0
2, 25930, Note_on_c, 0, 73, 98
2, 26280, Note_on_c, 0, 69, 101
2, 26370, Note_on_c, 0, 73, 0
2, 26570, Note_on_c, 0, 66, 101
2, 26720, Note_on_c, 0, 69, 0
2, 26890, Note_on_c, 0, 63, 101
2, 27010, Note_on_c, 0, 66, 0
2, 27370, Note_on_c, 0, 61, 96
2, 27490, Note_on_c, 0, 63, 0
2, 27850, Note_on_c, 0, 61, 0
2, 27850, Note_on_c, 0, 60, 102
2, 28330, Note_on_c, 0, 59, 97
2, 28450, Note_on_c, 0, 60, 0
2, 28810, Note_on_c, 0, 59, 0
2, 28810, Note_on_c, 0, 58, 100
2, 29130, Note_on_c, 0, 59, 96
2, 29250, Note_on_c, 0, 58, 0
2, 29450, Note_on_c, 0, 64, 103
2, 29570, Note_on_c, 0, 59, 0
2, 29770, Note_on_c, 0, 68, 101
2, 29890, Note_on_c, 0, 64, 0
2, 30250, Note_on_c, 0, 71, 107
2, 30370, Note_on_c, 0, 68, 0
2, 30730, Note_on_c, 0, 71, 0
2, 30730, Note_on_c, 0, 76, 97
2, 31210, Note_on_c, 0, 62, 89
2, 31210, Note_on_c, 0, 72, 93
2, 31330, Note_on_c, 0, 76, 0
2, 31690, Note_on_c, 0, 72, 0
2, 31690, Note_on_c, 0, 62, 0
2, 31690, Note_on_c, 0, 61, 99
2, 31690, Note_on_c, 0, 73, 99
2, 32600, Note_on_c, 0, 61, 0
2, 32640, Note_on_c, 0, 59, 42
2, 32640, Note_on_c, 0, 61, 42
2, 32640, Note_on_c, 0, 68, 42
2, 33120, Note_on_c, 0, 73, 0
2, 33540, Note_on_c, 0, 61, 0
2, 33600, Note_on_c, 0, 59, 0
2, 33600, Note_on_c, 0, 57, 45
2, 33600, Note_on_c, 0, 61, 45
2, 33600, Note_on_c, 0, 69, 45
2, 33720, Note_on_c, 0, 68, 0
2, 34545, Note_on_c, 0, 69, 0
2, 34550, Note_on_c, 0, 57, 0
2, 34560, Note_on_c, 0, 61, 0
2, 34560, Note_on_c, 0, 72, 88
2, 34880, Note_on_c, 0, 73, 86
2, 35000, Note_on_c, 0, 72, 0
2, 35200, Note_on_c, 0, 75, 89
2, 35320, Note_on_c, 0, 73, 0
2, 35520, Note_on_c, 0, 73, 92
2, 35640, Note_on_c, 0, 75, 0
2, 36000, Note_on_c, 0, 80, 91
2, 36120, Note_on_c, 0, 73, 0
2, 36480, Note_on_c, 0, 80, 0
2, 36480, Note_on_c, 0, 78, 84
2, 36960, Note_on_c, 0, 75, 89
2, 37080, Note_on_c, 0, 78, 0
2, 37200, Note_on_c, 0, 71, 62
2, 37320, Note_on_c, 0, 76, 69
2, 37440, Note_on_c, 0, 75, 0
2, 37440, Note_on_c, 0, 83, 79
2, 38160, Note_on_c, 0, 71, 0
2, 38280, Note_on_c, 0, 76, 0
2, 38400, Note_on_c, 0, 83, 0
2, 40320, Note_on_c, 0, 65, 59
2, 40640, Note_on_c, 0, 66, 59
2, 40760, Note_on_c, 0, 65, 0
2, 40960, Note_on_c, 0, 68, 55
2, 41080, Note_on_c, 0, 66, 0
2, 41280, Note_on_c, 0, 66, 59
2, 41400, Note_on_c, 0, 68, 0
2, 41760, Note_on_c, 0, 73, 60
2, 41880, Note_on_c, 0, 66, 0
2, 42240, Note_on_c, 0, 73, 0
2, 42240, Note_on_c, 0, 71, 66
2, 42960, Note_on_c, 0, 63, 59
2, 43080, Note_on_c, 0, 71, 0
2, 43200, Note_on_c, 0, 63, 0
2, 43200, Note_on_c, 0, 66, 57
2, 43680, Note_on_c, 0, 64, 61
2, 43800, Note_on_c, 0, 66, 0
2, 44160, Note_on_c, 0, 64, 0
2, 44160, Note_on_c, 0, 80, 55
2, 44160, Note_on_c, 0, 88, 51
2, 46080, Note_on_c, 0, 88, 0
2, 46080, Note_on_c, 0, 80, 0
2, 46080, Note_on_c, 0, 80, 72
2, 47040, Note_on_c, 0, 79, 59
2, 47160, Note_on_c, 0, 80, 0
2, 47520, Note_on_c, 0, 79, 0
2, 47520, Note_on_c, 0, 80, 78
2, 48480, Note_on_c, 0, 87, 73
2, 48600, Note_on_c, 0, 80, 0
2, 48960, Note_on_c, 0, 85, 77
2, 49080, Note_on_c, 0, 87, 0
2, 49440, Note_on_c, 0, 82, 72
2, 49560, Note_on_c, 0, 85, 0
2, 49920, Note_on_c, 0, 80, 58
2, 50040, Note_on_c, 0, 82, 0
2, 50400, Note_on_c, 0, 80, 0
2, 50400, Note_on_c, 0, 75, 48
2, 50400, Note_on_c, 0, 78, 53
2, 51840, Note_on_c, 0, 78, 0
2, 51840, Note_on_c, 0, 75, 0
2, 51840, Note_on_c, 0, 74, 56
2, 51840, Note_on_c, 0, 77, 64
2, 53280, Note_on_c, 0, 77, 0
2, 53280, Note_on_c, 0, 74, 0
2, 53280, Note_on_c, 0, 75, 48
2, 53280, Note_on_c, 0, 78, 50
2, 54720, Note_on_c, 0, 78, 0
2, 54720, Note_on_c, 0, 75, 0
2, 54720, Note_on_c, 0, 79, 48
2, 55680, Note_on_c, 0, 78, 55
2, 55800, Note_on_c, 0, 79, 0
2, 56160, Note_on_c, 0, 78, 0
2, 56160, Note_on_c, 0, 79, 50
2, 57120, Note_on_c, 0, 88, 45
2, 57240, Note_on_c, 0, 79, 0
2, 57600, Note_on_c, 0, 86, 51
2, 57720, Note_on_c, 0, 88, 0
2, 58080, Note_on_c, 0, 83, 45
2, 58200, Note_on_c, 0, 86, 0
2, 58560, Note_on_c, 0, 81, 55
2, 58680, Note_on_c, 0, 83, 0
2, 59040, Note_on_c, 0, 81, 0
2, 59040, Note_on_c, 0, 76, 54
2, 59040, Note_on_c, 0, 79, 58
2, 60480, Note_on_c, 0, 79, 0
2, 60480, Note_on_c, 0, 76, 0
2, 60480, Note_on_c, 0, 75, 47
2, 60480, Note_on_c, 0, 78, 51
2, 61920, Note_on_c, 0, 78, 0
2, 61920, Note_on_c, 0, 75, 0
2, 61920, Note_on_c, 0, 76, 48
2, 61920, Note_on_c, 0, 79, 55
2, 63335, Note_on_c, 0, 76, 0
2, 63360, Note_on_c, 0, 79, 0
2, 63360, Note_on_c, 0, 80, 54
2, 63840, Note_on_c, 0, 88, 55
2, 63960, Note_on_c, 0, 80, 0
2, 64320, Note_on_c, 0, 82, 57
2, 64440, Note_on_c, 0, 88, 0
2, 64800, Note_on_c, 0, 82, 0
2, 64800, Note_on_c, 0, 85, 59
2, 65760, Note_on_c, 0, 83, 63
2, 65880, Note_on_c, 0, 85, 0
2, 66240, Note_on_c, 0, 83, 0
2, 66240, Note_on_c, 0, 87, 65
2, 67200, Note_on_c, 0, 85, 69
2, 67320, Note_on_c, 0, 87, 0
2, 67680, Note_on_c, 0, 85, 0
2, 67680, Note_on_c, 0, 88, 71
2, 68640, Note_on_c, 0, 87, 74
2, 68760, Note_on_c, 0, 88, 0
2, 69120, Note_on_c, 0, 87, 0
2, 69120, Note_on_c, 0, 90, 76
2, 70080, Note_on_c, 0, 88, 80
2, 70200, Note_on_c, 0, 90, 0
2, 70560, Note_on_c, 0, 88, 0
2, 70560, Note_on_c, 0, 92, 82
2, 71520, Note_on_c, 0, 90, 86
2, 71640, Note_on_c, 0, 92, 0
2, 72000, Note_on_c, 0, 90, 0
2, 72000, Note_on_c, 0, 88, 85
2, 72960, Note_on_c, 0, 87, 84
2, 73080, Note_on_c, 0, 88, 0
2, 73440, Note_on_c, 0, 87, 0
2, 73440, Note_on_c, 0, 82, 91
2, 74400, Note_on_c, 0, 83, 82
2, 74520, Note_on_c, 0, 82, 0
2, 74880, Note_on_c, 0, 83, 0
2, 74880, Note_on_c, 0, 87, 83
2, 75840, Note_on_c, 0, 85, 82
2, 75960, Note_on_c, 0, 87, 0
2, 76320, Note_on_c, 0, 85, 0
2, 76320, Note_on_c, 0, 83, 81
2, 77280, Note_on_c, 0, 82, 75
2, 77400, Note_on_c, 0, 83, 0
2, 77760, Note_on_c, 0, 82, 0
2, 77760, Note_on_c, 0, 80, 72
2, 78720, Note_on_c, 0, 78, 66
2, 78840, Note_on_c, 0, 80, 0
2, 79200, Note_on_c, 0, 78, 0
2, 79200, Note_on_c, 0, 77, 63
2, 79680, Note_on_c, 0, 78, 60
2, 79800, Note_on_c, 0, 77, 0
2, 80160, Note_on_c, 0, 79, 57
2, 80280, Note_on_c, 0, 78, 0
2, 80640, Note_on_c, 0, 79, 0
2, 80640, Note_on_c, 0, 68, 45
2, 80640, Note_on_c, 0, 76, 62
2, 80640, Note_on_c, 0, 80, 48
2, 81600, Note_on_c, 0, 76, 0
2, 81600, Note_on_c, 0, 67, 50
2, 81600, Note_on_c, 0, 76, 59
2, 81600, Note_on_c, 0, 79, 48
2, 81720, Note_on_c, 0, 80, 0
2, 81720, Note_on_c, 0, 68, 0
2, 82080, Note_on_c, 0, 76, 0
2, 82080, Note_on_c, 0, 68, 43
2, 82080, Note_on_c, 0, 76, 61
2, 82080, Note_on_c, 0, 80, 47
2, 82200, Note_on_c, 0, 67, 0
2, 82200, Note_on_c, 0, 79, 0
2, 83040, Note_on_c, 0, 76, 0
2, 83040, Note_on_c, 0, 68, 0
2, 83040, Note_on_c, 0, 80, 0
2, 83040, Note_on_c, 0, 75, 57
2, 83040, Note_on_c, 0, 87, 48
2, 83520, Note_on_c, 0, 73, 59
2, 83520, Note_on_c, 0, 85, 53
2, 83640, Note_on_c, 0, 87, 0
2, 83640, Note_on_c, 0, 75, 0
2, 84000, Note_on_c, 0, 70, 52
2, 84000, Note_on_c, 0, 82, 52
2, 84120, Note_on_c, 0, 73, 0
2, 84120, Note_on_c, 0, 85, 0
2, 84480, Note_on_c, 0, 68, 54
2, 84480, Note_on_c, 0, 80, 55
2, 84600, Note_on_c, 0, 70, 0
2, 84600, Note_on_c, 0, 82, 0
2, 84960, Note_on_c, 0, 68, 0
2, 84960, Note_on_c, 0, 80, 0
2, 84960, Note_on_c, 0, 66, 54
2, 84960, Note_on_c, 0, 75, 58
2, 84960, Note_on_c, 0, 78, 48
2, 86400, Note_on_c, 0, 78, 0
2, 86400, Note_on_c, 0, 75, 0
2, 86400, Note_on_c, 0, 66, 0
2, 86400, Note_on_c, 0, 65, 51
2, 86400, Note_on_c, 0, 74, 60
2, 86400, Note_on_c, 0, 77, 50
2, 87840, Note_on_c, 0, 77, 0
2, 87840, Note_on_c, 0, 74, 0
2, 87840, Note_on_c, 0, 65, 0
2, 87840, Note_on_c, 0, 66, 46
2, 87840, Note_on_c, 0, 75, 55
2, 87840, Note_on_c, 0, 78, 46
2, 89280, Note_on_c, 0, 78, 0
2, 89280, Note_on_c, 0, 75, 0
2, 89280, Note_on_c, 0, 66, 0
2, 89280, Note_on_c, 0, 67, 80
2, 89280, Note_on_c, 0, 77, 82
2, 89280, Note_on_c, 0, 79, 86
2, 90240, Note_on_c, 0, 66, 81
2, 90240, Note_on_c, 0, 78, 84
2, 90360, Note_on_c, 0, 79, 0
2, 90360, Note_on_c, 0, 67, 0
2, 90360, Note_on_c, 0, 77, 0
2, 90720, Note_on_c, 0, 65, 83
2, 90720, Note_on_c, 0, 77, 85
2, 90720, Note_on_c, 0, 79, 91
2, 90840, Note_on_c, 0, 66, 0
2, 90840, Note_on_c, 0, 78, 0
2, 91680, Note_on_c, 0, 76, 90
2, 91680, Note_on_c, 0, 88, 88
2, 91800, Note_on_c, 0, 77, 0
2, 91800, Note_on_c, 0, 79, 0
2, 91800, Note_on_c, 0, 65, 0
2, 92160, Note_on_c, 0, 74, 89
2, 92160, Note_on_c, 0, 86, 83
2, 92280, Note_on_c, 0, 76, 0
2, 92280, Note_on_c, 0, 88, 0
2, 92640, Note_on_c, 0, 71, 90
2, 92640, Note_on_c, 0, 83, 89
2, 92760, Note_on_c, 0, 74, 0
2, 92760, Note_on_c, 0, 86, 0
2, 93120, Note_on_c, 0, 69, 84
2, 93120, Note_on_c, 0, 81, 82
2, 93240, Note_on_c, 0, 71, 0
2, 93240, Note_on_c, 0, 83, 0
2, 93600, Note_on_c, 0, 69, 0
2, 93600, Note_on_c, 0, 81, 0
2, 93600, Note_on_c, 0, 67, 81
2, 93600, Note_on_c, 0, 76, 79
2, 93600, Note_on_c, 0, 79, 86
2, 95040, Note_on_c, 0, 66, 83
2, 95040, Note_on_c, 0, 75, 86
2, 95040, Note_on_c, 0, 78, 93
2, 95160, Note_on_c, 0, 79, 0
2, 95160, Note_on_c, 0, 67, 0
2, 95160, Note_on_c, 0, 76, 0
2, 96480, Note_on_c, 0, 67, 82
2, 96480, Note_on_c, 0, 76, 82
2, 96480, Note_on_c, 0, 79, 87
2, 96600, Note_on_c, 0, 66, 0
2, 96600, Note_on_c, 0, 78, 0
2, 96600, Note_on_c, 0, 75, 0
2, 97920, Note_on_c, 0, 67, 0
2, 97920, Note_on_c, 0, 76, 0
2, 97920, Note_on_c, 0, 79, 0
2, 97920, Note_on_c, 0, 70, 88
2, 98880, Note_on_c, 0, 80, 90
2, 99000, Note_on_c, 0, 70, 0
2, 99360, Note_on_c, 0, 78, 90
2, 99480, Note_on_c, 0, 80, 0
2, 100320, Note_on_c, 0, 75, 99
2, 100440, Note_on_c, 0, 78, 0
2, 100800, Note_on_c, 0, 71, 96
2, 100920, Note_on_c, 0, 75, 0
2, 101760, Note_on_c, 0, 70, 90
2, 101880, Note_on_c, 0, 71, 0
2, 102240, Note_on_c, 0, 70, 0
2, 102240, Note_on_c, 0, 67, 89
2, 103200, Note_on_c, 0, 67, 0
2, 103200, Note_on_c, 0, 68, 94
2, 103680, Note_on_c, 0, 68, 0
2, 103680, Note_on_c, 0, 69, 94
2, 104640, Note_on_c, 0, 69, 0
2, 104640, Note_on_c, 0, 70, 93
2, 105120, Note_on_c, 0, 70, 0
2, 105120, Note_on_c, 0, 73, 95
2, 106080, Note_on_c, 0, 73, 0
2, 106080, Note_on_c, 0, 71, 93
2, 106560, Note_on_c, 0, 71, 0
2, 106560, Note_on_c, 0, 59, 86
2, 106560, Note_on_c, 0, 63, 86
2, 106560, Note_on_c, 0, 66, 91
2, 107520, Note_on_c, 0, 66, 0
2, 107520, Note_on_c, 0, 63, 0
2, 107520, Note_on_c, 0, 59, 0
2, 107520, Note_on_c, 0, 78, 91
2, 108000, Note_on_c, 0, 78, 0
2, 108000, Note_on_c, 0, 80, 89
2, 108960, Note_on_c, 0, 80, 0
2, 108960, Note_on_c, 0, 72, 89
2, 108960, Note_on_c, 0, 75, 89
2, 109440, Note_on_c, 0, 75, 0
2, 109440, Note_on_c, 0, 72, 0
2, 109440, Note_on_c, 0, 73, 87
2, 109440, Note_on_c, 0, 76, 87
2, 110400, Note_on_c, 0, 76, 0
2, 110400, Note_on_c, 0, 73, 0
2, 110400, Note_on_c, 0, 74, 87
2, 110400, Note_on_c, 0, 77, 85
2, 110880, Note_on_c, 0, 77, 0
2, 110880, Note_on_c, 0, 74, 0
2, 110880, Note_on_c, 0, 75, 82
2, 110880, Note_on_c, 0, 78, 89
2, 111840, Note_on_c, 0, 78, 0
2, 111840, Note_on_c, 0, 75, 0
2, 111840, Note_on_c, 0, 79, 87
2, 112320, Note_on_c, 0, 79, 0
2, 112320, Note_on_c, 0, 80, 88
2, 113280, Note_on_c, 0, 80, 0
2, 113280, Note_on_c, 0, 75, 86
2, 113760, Note_on_c, 0, 75, 0
2, 113760, Note_on_c, 0, 73, 84
2, 113760, Note_on_c, 0, 76, 92
2, 114720, Note_on_c, 0, 76, 0
2, 114720, Note_on_c, 0, 73, 0
2, 114720, Note_on_c, 0, 74, 87
2, 114720, Note_on_c, 0, 77, 87
2, 115200, Note_on_c, 0, 77, 0
2, 115200, Note_on_c, 0, 74, 0
2, 115200, Note_on_c, 0, 75, 87
2, 115200, Note_on_c, 0, 78, 87
2, 116160, Note_on_c, 0, 78, 0
2, 116160, Note_on_c, 0, 75, 0
2, 116160, Note_on_c, 0, 87, 89
2, 116640, Note_on_c, 0, 87, 0
2, 116640, Note_on_c, 0, 90, 89
2, 117600, Note_on_c, 0, 90, 0
2, 117600, Note_on_c, 0, 83, 89
2, 118080, Note_on_c, 0, 83, 0
2, 118080, Note_on_c, 0, 87, 91
2, 119040, Note_on_c, 0, 87, 0
2, 119040, Note_on_c, 0, 78, 89
2, 119520, Note_on_c, 0, 78, 0
2, 119520, Note_on_c, 0, 83, 90
2, 120480, Note_on_c, 0, 83, 0
2, 120480, Note_on_c, 0, 75, 89
2, 120960, Note_on_c, 0, 75, 0
2, 120960, Note_on_c, 0, 80, 90
2, 121920, Note_on_c, 0, 80, 0
2, 121920, Note_on_c, 0, 71, 89
2, 122400, Note_on_c, 0, 71, 0
2, 122400, Note_on_c, 0, 75, 89
2, 123360, Note_on_c, 0, 75, 0
2, 123360, Note_on_c, 0, 68, 93
2, 123810, Note_on_c, 0, 68, 0
2, 123840, Note_on_c, 0, 68, 89
2, 123840, Note_on_c, 0, 76, 89
2, 124770, Note_on_c, 0, 68, 0
2, 124800, Note_on_c, 0, 68, 89
2, 125250, Note_on_c, 0, 68, 0
2, 125280, Note_on_c, 0, 71, 89
2, 126240, Note_on_c, 0, 71, 0
2, 126240, Note_on_c, 0, 64, 91
2, 126720, Note_on_c, 0, 64, 0
2, 126720, Note_on_c, 0, 68, 89
2, 127680, Note_on_c, 0, 68, 0
2, 127680, Note_on_c, 0, 59, 91
2, 128160, Note_on_c, 0, 59, 0
2, 128160, Note_on_c, 0, 76, 0
2, 128160, Note_on_c, 0, 66, 91
2, 128160, Note_on_c, 0, 75, 91
2, 129120, Note_on_c, 0, 66, 0
2, 129120, Note_on_c, 0, 64, 91
2, 129600, Note_on_c, 0, 64, 0
2, 129600, Note_on_c, 0, 66, 91
2, 130560, Note_on_c, 0, 66, 0
2, 130560, Note_on_c, 0, 58, 91
2, 131040, Note_on_c, 0, 75, 0
2, 131040, Note_on_c, 0, 73, 91
2, 132480, Note_on_c, 0, 73, 0
2, 132480, Note_on_c, 0, 58, 0
2, 132480, Note_on_c, 0, 63, 91
2, 132480, Note_on_c, 0, 71, 91
2, 133440, Note_on_c, 0, 71, 0
2, 133440, Note_on_c, 0, 63, 0
2, 133440, Note_on_c, 0, 71, 89
2, 133920, Note_on_c, 0, 73, 91
2, 134040, Note_on_c, 0, 71, 0
2, 134880, Note_on_c, 0, 73, 0
2, 134880, Note_on_c, 0, 68, 87
2, 135360, Note_on_c, 0, 69, 88
2, 135480, Note_on_c, 0, 68, 0
2, 136320, Note_on_c, 0, 69, 0
2, 136320, Note_on_c, 0, 67, 77
2, 136320, Note_on_c, 0, 70, 81
2, 136800, Note_on_c, 0, 66, 80
2, 136800, Note_on_c, 0, 71, 85
2, 136920, Note_on_c, 0, 70, 0
2, 136920, Note_on_c, 0, 67, 0
2, 137280, Note_on_c, 0, 66, 0
2, 137280, Note_on_c, 0, 71, 0
2, 137760, Note_on_c, 0, 72, 85
2, 138240, Note_on_c, 0, 73, 90
2, 138360, Note_on_c, 0, 72, 0
2, 139200, Note_on_c, 0, 73, 0
2, 139200, Note_on_c, 0, 68, 89
2, 139680, Note_on_c, 0, 69, 83
2, 139800, Note_on_c, 0, 68, 0
2, 140640, Note_on_c, 0, 67, 80
2, 140640, Note_on_c, 0, 70, 78
2, 140760, Note_on_c, 0, 69, 0
2, 141120, Note_on_c, 0, 66, 74
2, 141120, Note_on_c, 0, 71, 79
2, 141240, Note_on_c, 0, 70, 0
2, 141240, Note_on_c, 0, 67, 0
2, 141600, Note_on_c, 0, 66, 0
2, 141600, Note_on_c, 0, 71, 0
2, 142080, Note_on_c, 0, 68, 79
2, 142080, Note_on_c, 0, 72, 80
2, 142560, Note_on_c, 0, 69, 85
2, 142560, Note_on_c, 0, 73, 82
2, 142680, Note_on_c, 0, 72, 0
2, 142680, Note_on_c, 0, 68, 0
2, 143040, Note_on_c, 0, 69, 0
2, 143040, Note_on_c, 0, 73, 0
2, 143520, Note_on_c, 0, 65, 81
2, 143520, Note_on_c, 0, 68, 81
2, 144000, Note_on_c, 0, 66, 82
2, 144000, Note_on_c, 0, 69, 90
2, 144120, Note_on_c, 0, 68, 0
2, 144120, Note_on_c, 0, 65, 0
2, 144480, Note_on_c, 0, 66, 0
2, 144480, Note_on_c, 0, 69, 0
2, 144960, Note_on_c, 0, 62, 90
2, 144960, Note_on_c, 0, 65, 82
2, 145440, Note_on_c, 0, 63, 65
2, 145440, Note_on_c, 0, 66, 65
2, 145560, Note_on_c, 0, 65, 0
2, 145560, Note_on_c, 0, 62, 0
2, 145920, Note_on_c, 0, 63, 0
2, 145920, Note_on_c, 0, 66, 0
2, 146400, Note_on_c, 0, 58, 63
2, 146400, Note_on_c, 0, 62, 63
2, 146880, Note_on_c, 0, 59, 63
2, 146880, Note_on_c, 0, 63, 63
2, 147000, Note_on_c, 0, 62, 0
2, 147000, Note_on_c, 0, 58, 0
2, 147360, Note_on_c, 0, 59, 0
2, 147360, Note_on_c, 0, 63, 0
2, 147840, Note_on_c, 0, 56, 62
2, 147840, Note_on_c, 0, 60, 62
2, 148320, Note_on_c, 0, 58, 53
2, 148320, Note_on_c, 0, 61, 52
2, 148440, Note_on_c, 0, 60, 0
2, 148440, Note_on_c, 0, 56, 0
2, 148800, Note_on_c, 0, 58, 0
2, 148800, Note_on_c, 0, 61, 0
2, 149280, Note_on_c, 0, 55, 40
2, 149280, Note_on_c, 0, 58, 40
2, 149700, Note_on_c, 0, 58, 0
2, 149760, Note_on_c, 0, 58, 60
2, 149880, Note_on_c, 0, 55, 0
2, 150080, Note_on_c, 0, 59, 64
2, 150200, Note_on_c, 0, 58, 0
2, 150400, Note_on_c, 0, 64, 68
2, 150520, Note_on_c, 0, 59, 0
2, 150720, Note_on_c, 0, 68, 73
2, 150840, Note_on_c, 0, 64, 0
2, 151200, Note_on_c, 0, 71, 78
2, 151320, Note_on_c, 0, 68, 0
2, 151680, Note_on_c, 0, 71, 0
2, 151680, Note_on_c, 0, 73, 72
2, 152160, Note_on_c, 0, 68, 75
2, 152280, Note_on_c, 0, 73, 0
2, 152640, Note_on_c, 0, 68, 0
2, 152640, Note_on_c, 0, 71, 66
2, 152960, Note_on_c, 0, 69, 62
2, 153080, Note_on_c, 0, 71, 0
2, 153280, Note_on_c, 0, 66, 61
2, 153400, Note_on_c, 0, 69, 0
2, 153600, Note_on_c, 0, 63, 55
2, 153720, Note_on_c, 0, 66, 0
2, 154080, Note_on_c, 0, 61, 63
2, 154200, Note_on_c, 0, 63, 0
2, 154560, Note_on_c, 0, 61, 0
2, 154560, Note_on_c, 0, 60, 60
2, 155040, Note_on_c, 0, 59, 63
2, 155160, Note_on_c, 0, 60, 0
2, 155520, Note_on_c, 0, 59, 0
2, 155520, Note_on_c, 0, 58, 55
2, 155840, Note_on_c, 0, 59, 59
2, 155960, Note_on_c, 0, 58, 0
2, 156160, Note_on_c, 0, 64, 63
2, 156280, Note_on_c, 0, 59, 0
2, 156480, Note_on_c, 0, 68, 67
2, 156600, Note_on_c, 0, 64, 0
2, 156960, Note_on_c, 0, 71, 73
2, 157080, Note_on_c, 0, 68, 0
2, 157440, Note_on_c, 0, 71, 0
2, 157440, Note_on_c, 0, 76, 79
2, 157920, Note_on_c, 0, 73, 85
2, 158040, Note_on_c, 0, 76, 0
2, 158400, Note_on_c, 0, 73, 0
2, 158400, Note_on_c, 0, 63, 68
2, 158400, Note_on_c, 0, 68, 75
2, 158400, Note_on_c, 0, 75, 88
2, 160740, Note_on_c, 0, 75, 0
2, 160740, Note_on_c, 0, 63, 0
2, 160800, Note_on_c, 0, 68, 0
2, 160800, Note_on_c, 0, 75, 86
2, 161220, Note_on_c, 0, 75, 0
2, 161280, Note_on_c, 0, 80, 90
2, 161600, Note_on_c, 0, 79, 82
2, 161720, Note_on_c, 0, 80, 0
2, 161920, Note_on_c, 0, 80, 88
2, 162040, Note_on_c, 0, 79, 0
2, 162240, Note_on_c, 0, 75, 91
2, 162360, Note_on_c, 0, 80, 0
2, 162660, Note_on_c, 0, 75, 0
2, 162720, Note_on_c, 0, 75, 90
2, 163200, Note_on_c, 0, 76, 90
2, 163680, Note_on_c, 0, 75, 0
2, 163680, Note_on_c, 0, 77, 88
2, 163920, Note_on_c, 0, 76, 0
2, 164160, Note_on_c, 0, 78, 85
2, 164400, Note_on_c, 0, 77, 0
2, 164480, Note_on_c, 0, 75, 82
2, 164600, Note_on_c, 0, 78, 0
2, 164800, Note_on_c, 0, 71, 79
2, 164920, Note_on_c, 0, 75, 0
2, 165120, Note_on_c, 0, 66, 76
2, 165240, Note_on_c, 0, 71, 0
2, 165600, Note_on_c, 0, 65, 71
2, 165720, Note_on_c, 0, 66, 0
2, 166080, Note_on_c, 0, 65, 0
2, 166080, Note_on_c, 0, 64, 67
2, 166560, Note_on_c, 0, 63, 58
2, 166680, Note_on_c, 0, 64, 0
2, 167040, Note_on_c, 0, 63, 0
2, 167040, Note_on_c, 0, 60, 54
2, 167360, Note_on_c, 0, 61, 54
2, 167480, Note_on_c, 0, 60, 0
2, 167680, Note_on_c, 0, 63, 57
2, 167800, Note_on_c, 0, 61, 0
2, 168000, Note_on_c, 0, 61, 59
2, 168120, Note_on_c, 0, 63, 0
2, 168480, Note_on_c, 0, 68, 57
2, 168600, Note_on_c, 0, 61, 0
2, 168960, Note_on_c, 0, 68, 0
2, 168960, Note_on_c, 0, 66, 59
2, 169680, Note_on_c, 0, 58, 42
2, 169800, Note_on_c, 0, 66, 0
2, 169920, Note_on_c, 0, 58, 0
2, 169920, Note_on_c, 0, 52, 40
2, 169920, Note_on_c, 0, 57, 40
2, 169920, Note_on_c, 0, 61, 50
2, 170400, Note_on_c, 0, 57, 0
2, 170400, Note_on_c, 0, 52, 0
2, 170400, Note_on_c, 0, 51, 47
2, 170400, Note_on_c, 0, 57, 47
2, 170400, Note_on_c, 0, 59, 60
2, 170520, Note_on_c, 0, 61, 0
2, 170640, Note_on_c, 0, 51, 0
2, 170640, Note_on_c, 0, 57, 0
2, 170640, Note_on_c, 0, 59, 0
2, 170880, Note_on_c, 0, 69, 54
2, 170880, Note_on_c, 0, 73, 63
2, 171360, Note_on_c, 0, 69, 0
2, 171360, Note_on_c, 0, 69, 61
2, 171360, Note_on_c, 0, 71, 70
2, 171480, Note_on_c, 0, 73, 0
2, 171600, Note_on_c, 0, 71, 0
2, 171600, Note_on_c, 0, 69, 0
2, 171840, Note_on_c, 0, 81, 69
2, 171840, Note_on_c, 0, 85, 79
2, 172320, Note_on_c, 0, 81, 0
2, 172320, Note_on_c, 0, 81, 76
2, 172320, Note_on_c, 0, 83, 76
2, 172440, Note_on_c, 0, 85, 0
2, 172560, Note_on_c, 0, 83, 0
2, 172560, Note_on_c, 0, 81, 0
2, 172810, Note_on_c, 0, 58, 105
2, 173130, Note_on_c, 0, 59, 100
2, 173250, Note_on_c, 0, 58, 0
2, 173450, Note_on_c, 0, 64, 103
2, 173570, Note_on_c, 0, 59, 0
2, 173770, Note_on_c, 0, 68, 97
2, 173890, Note_on_c, 0, 64, 0
2, 174250, Note_on_c, 0, 71, 105
2, 174370, Note_on_c, 0, 68, 0
2, 174730, Note_on_c, 0, 71, 0
2, 174730, Note_on_c, 0, 75, 97
2, 175450, Note_on_c, 0, 73, 104
2, 175570, Note_on_c, 0, 75, 0
2, 175690, Note_on_c, 0, 73, 0
2, 175690, Note_on_c, 0, 73, 106
2, 176010, Note_on_c, 0, 69, 98
2, 176130, Note_on_c, 0, 73, 0
2, 176330, Note_on_c, 0, 66, 106
2, 176450, Note_on_c, 0, 69, 0
2, 176650, Note_on_c, 0, 63, 107
2, 176770, Note_on_c, 0, 66, 0
2, 177130, Note_on_c, 0, 61, 103
2, 177250, Note_on_c, 0, 63, 0
2, 177610, Note_on_c, 0, 61, 0
2, 177610, Note_on_c, 0, 60, 107
2, 178090, Note_on_c, 0, 59, 100
2, 178210, Note_on_c, 0, 60, 0
2, 178570, Note_on_c, 0, 59, 0
2, 178570, Note_on_c, 0, 58, 96
2, 178890, Note_on_c, 0, 59, 106
2, 179010, Note_on_c, 0, 58, 0
2, 179210, Note_on_c, 0, 64, 101
2, 179330, Note_on_c, 0, 59, 0
2, 179530, Note_on_c, 0, 68, 107
2, 179650, Note_on_c, 0, 64, 0
2, 180010, Note_on_c, 0, 71, 99
2, 180130, Note_on_c, 0, 68, 0
2, 180490, Note_on_c, 0, 71, 0
2, 180490, Note_on_c, 0, 76, 104
2, 180970, Note_on_c, 0, 62, 97
2, 180970, Note_on_c, 0, 72, 96
2, 181090, Note_on_c, 0, 76, 0
2, 181450, Note_on_c, 0, 72, 0
2, 181450, Note_on_c, 0, 62, 0
2, 181450, Note_on_c, 0, 61, 87
2, 181450, Note_on_c, 0, 73, 104
2, 182400, Note_on_c, 0, 59, 58
2, 182400, Note_on_c, 0, 61, 38
2, 182400, Note_on_c, 0, 68, 52
2, 182410, Note_on_c, 0, 73, 0
2, 182410, Note_on_c, 0, 61, 0
2, 183333, Note_on_c, 0, 61, 0
2, 183360, Note_on_c, 0, 57, 52
2, 183360, Note_on_c, 0, 61, 52
2, 183360, Note_on_c, 0, 69, 52
2, 183480, Note_on_c, 0, 59, 0
2, 183480, Note_on_c, 0, 68, 0
2, 184300, Note_on_c, 0, 57, 0
2, 184305, Note_on_c, 0, 69, 0
2, 184320, Note_on_c, 0, 61, 0
2, 184320, Note_on_c, 0, 72, 93
2, 184640, Note_on_c, 0, 73, 89
2, 184760, Note_on_c, 0, 72, 0
2, 184960, Note_on_c, 0, 75, 87
2, 185080, Note_on_c, 0, 73, 0
2, 185280, Note_on_c, 0, 73, 89
2, 185400, Note_on_c, 0, 75, 0
2, 185760, Note_on_c, 0, 80, 83
2, 185880, Note_on_c, 0, 73, 0
2, 186240, Note_on_c, 0, 80, 0
2, 186240, Note_on_c, 0, 78, 73
2, 186720, Note_on_c, 0, 75, 64
2, 186840, Note_on_c, 0, 78, 0
2, 187200, Note_on_c, 0, 75, 0
2, 187200, Note_on_c, 0, 71, 52
2, 187200, Note_on_c, 0, 76, 56
2, 187200, Note_on_c, 0, 83, 62
2, 188640, Note_on_c, 0, 83, 0
2, 188640, Note_on_c, 0, 76, 0
2, 188640, Note_on_c, 0, 71, 0
2, 190080, Note_on_c, 0, 65, 57
2, 190400, Note_on_c, 0, 66, 56
2, 190520, Note_on_c, 0, 65, 0
2, 190720, Note_on_c, 0, 68, 47
2, 190840, Note_on_c, 0, 66, 0
2, 191040, Note_on_c, 0, 66, 57
2, 191160, Note_on_c, 0, 68, 0
2, 191520, Note_on_c, 0, 73, 58
2, 191640, Note_on_c, 0, 66, 0
2, 192000, Note_on_c, 0, 73, 0
2, 192000, Note_on_c, 0, 71, 53
2, 192720, Note_on_c, 0, 63, 52
2, 192840, Note_on_c, 0, 71, 0
2, 192960, Note_on_c, 0, 63, 0
2, 192960, Note_on_c, 0, 56, 50
2, 192960, Note_on_c, 0, 66, 49
2, 193440, Note_on_c, 0, 64, 58
2, 193560, Note_on_c, 0, 66, 0
2, 193908, Note_on_c, 0, 64, 0
2, 193920, Note_on_c, 0, 56, 0
2, 193920, Note_on_c, 0, 80, 56
2, 193920, Note_on_c, 0, 88, 59
2, 195840, Note_on_c, 0, 88, 0
2, 195840, Note_on_c, 0, 80, 0
2, 196800, Note_on_c, 0, 79, 85
2, 197280, Note_on_c, 0, 79, 0
2, 198240, Note_on_c, 0, 87, 77
2, 198720, Note_on_c, 0, 87, 0
2, 198720, Note_on_c, 0, 85, 80
2, 199200, Note_on_c, 0, 82, 76
2, 199320, Note_on_c, 0, 85, 0
2, 199680, Note_on_c, 0, 80, 86
2, 199800, Note_on_c, 0, 82, 0
2, 200160, Note_on_c, 0, 80, 0
2, 200160, Note_on_c, 0, 78, 81
2, 201120, Note_on_c, 0, 90, 67
2, 201240, Note_on_c, 0, 78, 0
2, 201600, Note_on_c, 0, 90, 0
2, 201600, Note_on_c, 0, 78, 85
2, 202560, Note_on_c, 0, 90, 65
2, 202680, Note_on_c, 0, 78, 0
2, 203040, Note_on_c, 0, 90, 0
2, 203040, Note_on_c, 0, 78, 85
2, 204000, Note_on_c, 0, 90, 63
2, 204120, Note_on_c, 0, 78, 0
2, 204480, Note_on_c, 0, 90, 0
2, 204480, Note_on_c, 0, 79, 48
2, 205440, Note_on_c, 0, 78, 51
2, 205560, Note_on_c, 0, 79, 0
2, 205920, Note_on_c, 0, 78, 0
2, 205920, Note_on_c, 0, 79, 57
2, 206880, Note_on_c, 0, 88, 48
2, 207000, Note_on_c, 0, 79, 0
2, 207360, Note_on_c, 0, 88, 0
2, 207360, Note_on_c, 0, 86, 54
2, 207840, Note_on_c, 0, 83, 58
2, 207960, Note_on_c, 0, 86, 0
2, 208320, Note_on_c, 0, 81, 49
2, 208440, Note_on_c, 0, 83, 0
2, 208800, Note_on_c, 0, 81, 0
2, 208800, Note_on_c, 0, 79, 48
2, 209760, Note_on_c, 0, 91, 36
2, 209880, Note_on_c, 0, 79, 0
2, 210240, Note_on_c, 0, 91, 0
2, 210240, Note_on_c, 0, 78, 54
2, 211200, Note_on_c, 0, 91, 42
2, 211320, Note_on_c, 0, 78, 0
2, 211680, Note_on_c, 0, 91, 0
2, 211680, Note_on_c, 0, 79, 60
2, 212640, Note_on_c, 0, 91, 32
2, 212760, Note_on_c, 0, 79, 0
2, 213120, Note_on_c, 0, 91, 0
2, 213120, Note_on_c, 0, 80, 66
2, 213600, Note_on_c, 0, 88, 68
2, 213720, Note_on_c, 0, 80, 0
2, 214080, Note_on_c, 0, 82, 70
2, 214200, Note_on_c, 0, 88, 0
2, 214560, Note_on_c, 0, 82, 0
2, 214560, Note_on_c, 0, 85, 72
2, 215520, Note_on_c, 0, 83, 76
2, 215640, Note_on_c, 0, 85, 0
2, 216000, Note_on_c, 0, 83, 0
2, 216000, Note_on_c, 0, 87, 78
2, 216960, Note_on_c, 0, 85, 82
2, 217080, Note_on_c, 0, 87, 0
2, 217440, Note_on_c, 0, 85, 0
2, 217440, Note_on_c, 0, 88, 84
2, 218400, Note_on_c, 0, 87, 87
2, 218520, Note_on_c, 0, 88, 0
2, 218880, Note_on_c, 0, 87, 0
2, 218880, Note_on_c, 0, 90, 86
2, 219840, Note_on_c, 0, 88, 83
2, 219960, Note_on_c, 0, 90, 0
2, 220320, Note_on_c, 0, 88, 0
2, 220320, Note_on_c, 0, 92, 84
2, 221280, Note_on_c, 0, 90, 84
2, 221400, Note_on_c, 0, 92, 0
2, 221760, Note_on_c, 0, 90, 0
2, 221760, Note_on_c, 0, 88, 83
2, 222720, Note_on_c, 0, 87, 93
2, 222840, Note_on_c, 0, 88, 0
2, 223200, Note_on_c, 0, 87, 0
2, 223200, Note_on_c, 0, 82, 86
2, 224160, Note_on_c, 0, 83, 88
2, 224280, Note_on_c, 0, 82, 0
2, 224640, Note_on_c, 0, 83, 0
2, 224640, Note_on_c, 0, 87, 92
2, 225600, Note_on_c, 0, 85, 91
2, 225720, Note_on_c, 0, 87, 0
2, 226080, Note_on_c, 0, 85, 0
2, 226080, Note_on_c, 0, 83, 88
2, 227040, Note_on_c, 0, 82, 82
2, 227160, Note_on_c, 0, 83, 0
2, 227520, Note_on_c, 0, 82, 0
2, 227520, Note_on_c, 0, 80, 80
2, 228480, Note_on_c, 0, 78, 74
2, 228600, Note_on_c, 0, 80, 0
2, 228960, Note_on_c, 0, 78, 0
2, 228960, Note_on_c, 0, 77, 71
2, 229440, Note_on_c, 0, 78, 68
2, 229560, Note_on_c, 0, 77, 0
2, 229920, Note_on_c, 0, 79, 65
2, 230040, Note_on_c, 0, 78, 0
2, 230400, Note_on_c, 0, 79, 0
2, 234720, Control_c, 0, 10, 64
2, 234720, Control_c, 0, 10, 64
2, 234720, Control_c, 0, 10, 64
2, 234720, Control_c, 0, 10, 95
2, 235200, Note_on_c, 0, 75, 51
2, 235680, Note_on_c, 0, 75, 0
2, 235680, Note_on_c, 0, 90, 51
2, 236160, Note_on_c, 0, 90, 0
2, 236640, Note_on_c, 0, 74, 52
2, 237120, Note_on_c, 0, 74, 0
2, 237120, Note_on_c, 0, 90, 46
2, 237600, Note_on_c, 0, 90, 0
2, 238080, Note_on_c, 0, 75, 55
2, 238560, Note_on_c, 0, 75, 0
2, 238560, Note_on_c, 0, 90, 51
2, 239040, Note_on_c, 0, 90, 0
2, 241920, Note_on_c, 0, 77, 60
2, 243360, Note_on_c, 0, 77, 0
2, 243840, Note_on_c, 0, 76, 50
2, 244320, Note_on_c, 0, 76, 0
2, 244320, Note_on_c, 0, 91, 56
2, 244800, Note_on_c, 0, 91, 0
2, 245280, Note_on_c, 0, 75, 52
2, 245760, Note_on_c, 0, 75, 0
2, 245760, Note_on_c, 0, 90, 46
2, 246240, Note_on_c, 0, 90, 0
2, 246720, Note_on_c, 0, 76, 54
2, 247200, Note_on_c, 0, 76, 0
2, 247200, Note_on_c, 0, 91, 54
2, 247680, Note_on_c, 0, 91, 0
2, 256320, Note_on_c, 0, 59, 81
2, 256320, Note_on_c, 0, 63, 76
2, 256320, Note_on_c, 0, 66, 79
2, 257280, Note_on_c, 0, 66, 0
2, 257280, Note_on_c, 0, 63, 0
2, 257280, Note_on_c, 0, 59, 0
2, 257280, Note_on_c, 0, 78, 73
2, 257760, Note_on_c, 0, 78, 0
2, 257760, Note_on_c, 0, 80, 76
2, 258720, Note_on_c, 0, 80, 0
2, 258720, Note_on_c, 0, 72, 73
2, 258720, Note_on_c, 0, 75, 75
2, 259200, Note_on_c, 0, 75, 0
2, 259200, Note_on_c, 0, 72, 0
2, 259200, Note_on_c, 0, 73, 76
2, 259200, Note_on_c, 0, 76, 78
2, 260160, Note_on_c, 0, 76, 0
2, 260160, Note_on_c, 0, 73, 0
2, 260160, Note_on_c, 0, 74, 71
2, 260160, Note_on_c, 0, 77, 69
2, 260640, Note_on_c, 0, 77, 0
2, 260640, Note_on_c, 0, 74, 0
2, 260640, Note_on_c, 0, 75, 74
2, 260640, Note_on_c, 0, 78, 75
2, 261600, Note_on_c, 0, 78, 0
2, 261600, Note_on_c, 0, 75, 0
2, 261600, Note_on_c, 0, 79, 68
2, 262080, Note_on_c, 0, 79, 0
2, 262080, Note_on_c, 0, 80, 71
2, 263040, Note_on_c, 0, 80, 0
2, 263040, Note_on_c, 0, 75, 78
2, 263520, Note_on_c, 0, 75, 0
2, 263520, Note_on_c, 0, 73, 75
2, 263520, Note_on_c, 0, 76, 72
2, 264480, Note_on_c, 0, 76, 0
2, 264480, Note_on_c, 0, 73, 0
2, 264480, Note_on_c, 0, 74, 74
2, 264480, Note_on_c, 0, 77, 77
2, 264960, Note_on_c, 0, 77, 0
2, 264960, Note_on_c, 0, 74, 0
2, 264960, Note_on_c, 0, 75, 72
2, 264960, Note_on_c, 0, 78, 70
2, 265920, Note_on_c, 0, 78, 0
2, 265920, Note_on_c, 0, 75, 0
2, 265930, Note_on_c, 0, 87, 83
2, 266410, Note_on_c, 0, 87, 0
2, 266410, Note_on_c, 0, 90, 89
2, 267370, Note_on_c, 0, 90, 0
2, 267370, Note_on_c, 0, 83, 91
2, 267850, Note_on_c, 0, 83, 0
2, 267850, Note_on_c, 0, 87, 82
2, 268810, Note_on_c, 0, 87, 0
2, 268810, Note_on_c, 0, 78, 85
2, 269290, Note_on_c, 0, 78, 0
2, 269290, Note_on_c, 0, 83, 92
2, 270250, Note_on_c, 0, 83, 0
2, 270250, Note_on_c, 0, 75, 90
2, 270730, Note_on_c, 0, 75, 0
2, 270730, Note_on_c, 0, 80, 90
2, 271690, Note_on_c, 0, 80, 0
2, 271690, Note_on_c, 0, 71, 87
2, 272170, Note_on_c, 0, 71, 0
2, 272170, Note_on_c, 0, 75, 83
2, 273130, Note_on_c, 0, 75, 0
2, 273130, Note_on_c, 0, 68, 83
2, 273518, Note_on_c, 0, 68, 0
2, 273610, Note_on_c, 0, 76, 84
2, 277930, Note_on_c, 0, 76, 0
2, 277930, Note_on_c, 0, 75, 82
2, 280810, Note_on_c, 0, 75, 0
2, 280810, Note_on_c, 0, 73, 82
2, 282250, Note_on_c, 0, 73, 0
2, 282250, Note_on_c, 0, 63, 85
2, 282250, Note_on_c, 0, 71, 80
2, 283210, Note_on_c, 0, 71, 0
2, 283210, Note_on_c, 0, 63, 0
2, 283210, Note_on_c, 0, 71, 88
2, 283690, Note_on_c, 0, 73, 90
2, 283810, Note_on_c, 0, 71, 0
2, 284650, Note_on_c, 0, 73, 0
2, 284650, Note_on_c, 0, 68, 90
2, 285130, Note_on_c, 0, 69, 85
2, 285250, Note_on_c, 0, 68, 0
2, 286090, Note_on_c, 0, 69, 0
2, 286090, Note_on_c, 0, 67, 80
2, 286090, Note_on_c, 0, 70, 88
2, 286570, Note_on_c, 0, 66, 84
2, 286570, Note_on_c, 0, 71, 87
2, 286690, Note_on_c, 0, 70, 0
2, 286690, Note_on_c, 0, 67, 0
2, 287050, Note_on_c, 0, 66, 0
2, 287050, Note_on_c, 0, 71, 0
2, 287530, Note_on_c, 0, 72, 90
2, 288010, Note_on_c, 0, 73, 88
2, 288130, Note_on_c, 0, 72, 0
2, 288970, Note_on_c, 0, 73, 0
2, 288970, Note_on_c, 0, 68, 80
2, 289450, Note_on_c, 0, 69, 89
2, 289570, Note_on_c, 0, 68, 0
2, 290410, Note_on_c, 0, 67, 80
2, 290410, Note_on_c, 0, 70, 84
2, 290530, Note_on_c, 0, 69, 0
2, 290890, Note_on_c, 0, 70, 0
2, 290890, Note_on_c, 0, 67, 0
2, 290890, Note_on_c, 0, 66, 80
2, 290890, Note_on_c, 0, 71, 81
2, 291370, Note_on_c, 0, 71, 0
2, 291370, Note_on_c, 0, 66, 0
2, 291850, Note_on_c, 0, 68, 84
2, 291850, Note_on_c, 0, 72, 81
2, 292330, Note_on_c, 0, 69, 89
2, 292330, Note_on_c, 0, 73, 83
2, 292450, Note_on_c, 0, 72, 0
2, 292450, Note_on_c, 0, 68, 0
2, 292810, Note_on_c, 0, 69, 0
2, 292810, Note_on_c, 0, 73, 0
2, 293290, Note_on_c, 0, 65, 86
2, 293290, Note_on_c, 0, 68, 82
2, 293770, Note_on_c, 0, 66, 79
2, 293770, Note_on_c, 0, 69, 89
2, 293890, Note_on_c, 0, 68, 0
2, 293890, Note_on_c, 0, 65, 0
2, 294250, Note_on_c, 0, 66, 0
2, 294250, Note_on_c, 0, 69, 0
2, 294730, Note_on_c, 0, 62, 81
2, 294730, Note_on_c, 0, 65, 85
2, 295200, Note_on_c, 0, 63, 84
2, 295200, Note_on_c, 0, 66, 84
2, 295330, Note_on_c, 0, 65, 0
2, 295330, Note_on_c, 0, 62, 0
2, 295680, Note_on_c, 0, 63, 0
2, 295680, Note_on_c, 0, 66, 0
2, 296160, Note_on_c, 0, 58, 71
2, 296160, Note_on_c, 0, 62, 71
2, 296640, Note_on_c, 0, 59, 65
2, 296640, Note_on_c, 0, 63, 65
2, 296760, Note_on_c, 0, 62, 0
2, 296760, Note_on_c, 0, 58, 0
2, 297120, Note_on_c, 0, 59, 0
2, 297120, Note_on_c, 0, 63, 0
2, 297600, Note_on_c, 0, 56, 52
2, 297600, Note_on_c, 0, 60, 52
2, 298080, Note_on_c, 0, 58, 46
2, 298080, Note_on_c, 0, 61, 46
2, 298200, Note_on_c, 0, 60, 0
2, 298200, Note_on_c, 0, 56, 0
2, 298560, Note_on_c, 0, 58, 0
2, 298560, Note_on_c, 0, 61, 0
2, 299040, Note_on_c, 0, 55, 43
2, 299040, Note_on_c, 0, 58, 56
2, 299378, Note_on_c, 0, 58, 0
2, 299520, Note_on_c, 0, 55, 0
2, 299550, Note_on_c, 0, 58, 64
2, 299840, Note_on_c, 0, 59, 71
2, 300160, Note_on_c, 0, 64, 70
2, 300280, Note_on_c, 0, 59, 0
2, 300480, Note_on_c, 0, 68, 68
2, 300510, Note_on_c, 0, 58, 0
2, 300600, Note_on_c, 0, 64, 0
2, 300960, Note_on_c, 0, 71, 68
2, 301080, Note_on_c, 0, 68, 0
2, 301440, Note_on_c, 0, 71, 0
2, 301440, Note_on_c, 0, 73, 76
2, 301920, Note_on_c, 0, 68, 73
2, 302040, Note_on_c, 0, 73, 0
2, 302400, Note_on_c, 0, 68, 0
2, 302400, Note_on_c, 0, 71, 75
2, 302720, Note_on_c, 0, 69, 74
2, 302840, Note_on_c, 0, 71, 0
2, 303040, Note_on_c, 0, 66, 72
2, 303160, Note_on_c, 0, 69, 0
2, 303360, Note_on_c, 0, 63, 70
2, 303480, Note_on_c, 0, 66, 0
2, 303840, Note_on_c, 0, 61, 78
2, 303960, Note_on_c, 0, 63, 0
2, 304320, Note_on_c, 0, 61, 0
2, 304320, Note_on_c, 0, 60, 72
2, 304800, Note_on_c, 0, 59, 71
2, 304920, Note_on_c, 0, 60, 0
2, 305280, Note_on_c, 0, 59, 0
2, 305280, Note_on_c, 0, 58, 71
2, 305600, Note_on_c, 0, 59, 72
2, 305720, Note_on_c, 0, 58, 0
2, 305920, Note_on_c, 0, 64, 73
2, 306040, Note_on_c, 0, 59, 0
2, 306240, Note_on_c, 0, 68, 74
2, 306360, Note_on_c, 0, 64, 0
2, 306720, Note_on_c, 0, 71, 75
2, 306840, Note_on_c, 0, 68, 0
2, 307200, Note_on_c, 0, 71, 0
2, 307200, Note_on_c, 0, 76, 77
2, 307680, Note_on_c, 0, 73, 79
2, 307800, Note_on_c, 0, 76, 0
2, 308160, Note_on_c, 0, 73, 0
2, 308160, Note_on_c, 0, 63, 73
2, 308160, Note_on_c, 0, 68, 74
2, 308160, Note_on_c, 0, 75, 80
2, 310500, Note_on_c, 0, 75, 0
2, 310500, Note_on_c, 0, 63, 0
2, 310560, Note_on_c, 0, 68, 0
2, 310560, Note_on_c, 0, 75, 83
2, 310845, Note_on_c, 0, 75, 0
2, 311040, Note_on_c, 0, 80, 87
2, 311360, Note_on_c, 0, 79, 86
2, 311480, Note_on_c, 0, 80, 0
2, 311680, Note_on_c, 0, 80, 91
2, 311800, Note_on_c, 0, 79, 0
2, 312000, Note_on_c, 0, 75, 88
2, 312120, Note_on_c, 0, 80, 0
2, 312470, Note_on_c, 0, 75, 0
2, 312480, Note_on_c, 0, 75, 90
2, 312960, Note_on_c, 0, 76, 86
2, 313440, Note_on_c, 0, 77, 88
2, 313500, Note_on_c, 0, 75, 0
2, 313800, Note_on_c, 0, 76, 0
2, 313920, Note_on_c, 0, 78, 81
2, 314160, Note_on_c, 0, 77, 0
2, 314240, Note_on_c, 0, 75, 80
2, 314360, Note_on_c, 0, 78, 0
2, 314560, Note_on_c, 0, 71, 79
2, 314680, Note_on_c, 0, 75, 0
2, 314880, Note_on_c, 0, 66, 78
2, 315000, Note_on_c, 0, 71, 0
2, 315360, Note_on_c, 0, 65, 77
2, 315480, Note_on_c, 0, 66, 0
2, 315840, Note_on_c, 0, 65, 0
2, 315840, Note_on_c, 0, 64, 75
2, 316320, Note_on_c, 0, 63, 73
2, 316440, Note_on_c, 0, 64, 0
2, 316800, Note_on_c, 0, 63, 0
2, 316800, Note_on_c, 0, 60, 72
2, 317120, Note_on_c, 0, 61, 75
2, 317240, Note_on_c, 0, 60, 0
2, 317440, Note_on_c, 0, 63, 78
2, 317560, Note_on_c, 0, 61, 0
2, 317760, Note_on_c, 0, 61, 81
2, 317880, Note_on_c, 0, 63, 0
2, 318240, Note_on_c, 0, 68, 85
2, 318360, Note_on_c, 0, 61, 0
2, 318720, Note_on_c, 0, 68, 0
2, 318720, Note_on_c, 0, 66, 90
2, 319440, Note_on_c, 0, 58, 86
2, 319560, Note_on_c, 0, 66, 0
2, 319680, Note_on_c, 0, 58, 0
2, 319680, Note_on_c, 0, 52, 89
2, 319680, Note_on_c, 0, 57, 89
2, 319680, Note_on_c, 0, 61, 89
2, 320160, Note_on_c, 0, 57, 0
2, 320160, Note_on_c, 0, 51, 75
2, 320160, Note_on_c, 0, 57, 66
2, 320160, Note_on_c, 0, 59, 76
2, 320280, Note_on_c, 0, 61, 0
2, 320280, Note_on_c, 0, 52, 0
2, 320400, Note_on_c, 0, 57, 0
2, 320400, Note_on_c, 0, 51, 0
2, 320400, Note_on_c, 0, 59, 0
2, 320640, Note_on_c, 0, 69, 75
2, 320640, Note_on_c, 0, 73, 67
2, 321120, Note_on_c, 0, 69, 0
2, 321120, Note_on_c, 0, 69, 71
2, 321120, Note_on_c, 0, 71, 68
2, 321240, Note_on_c, 0, 73, 0
2, 321360, Note_on_c, 0, 71, 0
2, 321360, Note_on_c, 0, 69, 0
2, 321600, Note_on_c, 0, 81, 68
2, 321600, Note_on_c, 0, 85, 67
2, 322080, Note_on_c, 0, 81, 0
2, 322080, Note_on_c, 0, 81, 66
2, 322080, Note_on_c, 0, 83, 70
2, 322200, Note_on_c, 0, 85, 0
2, 322320, Note_on_c, 0, 83, 0
2, 322320, Note_on_c, 0, 81, 0
2, 322570, Note_on_c, 0, 58, 87
2, 322890, Note_on_c, 0, 59, 79
2, 323010, Note_on_c, 0, 58, 0
2, 323210, Note_on_c, 0, 64, 82
2, 323330, Note_on_c, 0, 59, 0
2, 323530, Note_on_c, 0, 68, 81
2, 323650, Note_on_c, 0, 64, 0
2, 324010, Note_on_c, 0, 71, 79
2, 324130, Note_on_c, 0, 68, 0
2, 324490, Note_on_c, 0, 71, 0
2, 324490, Note_on_c, 0, 75, 88
2, 325210, Note_on_c, 0, 73, 88
2, 325330, Note_on_c, 0, 75, 0
2, 325450, Note_on_c, 0, 73, 0
2, 325450, Note_on_c, 0, 73, 79
2, 325770, Note_on_c, 0, 69, 90
2, 325890, Note_on_c, 0, 73, 0
2, 326090, Note_on_c, 0, 66, 81
2, 326210, Note_on_c, 0, 69, 0
2, 326410, Note_on_c, 0, 63, 89
2, 326530, Note_on_c, 0, 66, 0
2, 326890, Note_on_c, 0, 61, 87
2, 327010, Note_on_c, 0, 63, 0
2, 327370, Note_on_c, 0, 61, 0
2, 327370, Note_on_c, 0, 60, 84
2, 327850, Note_on_c, 0, 59, 88
2, 327970, Note_on_c, 0, 60, 0
2, 328330, Note_on_c, 0, 59, 0
2, 328330, Note_on_c, 0, 58, 86
2, 328650, Note_on_c, 0, 59, 87
2, 328770, Note_on_c, 0, 58, 0
2, 328970, Note_on_c, 0, 64, 87
2, 329090, Note_on_c, 0, 59, 0
2, 329290, Note_on_c, 0, 68, 84
2, 329410, Note_on_c, 0, 64, 0
2, 329770, Note_on_c, 0, 71, 85
2, 329890, Note_on_c, 0, 68, 0
2, 330250, Note_on_c, 0, 71, 0
2, 330250, Note_on_c, 0, 76, 88
2, 330730, Note_on_c, 0, 62, 81
2, 330730, Note_on_c, 0, 72, 80
2, 330850, Note_on_c, 0, 76, 0
2, 331200, Note_on_c, 0, 61, 78
2, 331200, Note_on_c, 0, 73, 78
2, 331210, Note_on_c, 0, 72, 0
2, 331210, Note_on_c, 0, 62, 0
2, 332070, Note_on_c, 0, 61, 0
2, 332160, Note_on_c, 0, 73, 0
2, 332160, Note_on_c, 0, 59, 42
2, 332160, Note_on_c, 0, 61, 41
2, 332160, Note_on_c, 0, 68, 47
2, 333030, Note_on_c, 0, 61, 0
2, 333120, Note_on_c, 0, 68, 0
2, 333120, Note_on_c, 0, 59, 0
2, 333120, Note_on_c, 0, 57, 40
2, 333120, Note_on_c, 0, 61, 40
2, 333120, Note_on_c, 0, 69, 51
2, 333990, Note_on_c, 0, 69, 0
2, 333990, Note_on_c, 0, 61, 0
2, 333990, Note_on_c, 0, 57, 0
2, 334080, Note_on_c, 0, 72, 77
2, 334400, Note_on_c, 0, 73, 84
2, 334520, Note_on_c, 0, 72, 0
2, 334720, Note_on_c, 0, 75, 80
2, 334840, Note_on_c, 0, 73, 0
2, 335040, Note_on_c, 0, 73, 83
2, 335160, Note_on_c, 0, 75, 0
2, 335520, Note_on_c, 0, 80, 79
2, 335640, Note_on_c, 0, 73, 0
2, 336000, Note_on_c, 0, 80, 0
2, 336000, Note_on_c, 0, 78, 82
2, 336480, Note_on_c, 0, 75, 81
2, 336600, Note_on_c, 0, 78, 0
2, 336900, Note_on_c, 0, 71, 73
2, 336960, Note_on_c, 0, 75, 0
2, 336960, Note_on_c, 0, 76, 77
2, 337020, Note_on_c, 0, 83, 79
2, 338340, Note_on_c, 0, 71, 0
2, 338400, Note_on_c, 0, 76, 0
2, 338460, Note_on_c, 0, 83, 0
2, 339840, Note_on_c, 0, 65, 54
2, 340160, Note_on_c, 0, 66, 58
2, 340280, Note_on_c, 0, 65, 0
2, 340480, Note_on_c, 0, 68, 59
2, 340600, Note_on_c, 0, 66, 0
2, 340800, Note_on_c, 0, 66, 54
2, 340920, Note_on_c, 0, 68, 0
2, 341280, Note_on_c, 0, 73, 50
2, 341400, Note_on_c, 0, 66, 0
2, 341760, Note_on_c, 0, 73, 0
2, 341760, Note_on_c, 0, 71, 60
2, 342480, Note_on_c, 0, 63, 60
2, 342600, Note_on_c, 0, 71, 0
2, 342720, Note_on_c, 0, 63, 0
2, 342720, Note_on_c, 0, 56, 56
2, 342720, Note_on_c, 0, 66, 55
2, 343140, Note_on_c, 0, 64, 61
2, 343320, Note_on_c, 0, 66, 0
2, 343440, Note_on_c, 0, 64, 0
2, 343560, Note_on_c, 0, 80, 57
2, 343680, Note_on_c, 0, 56, 0
2, 343680, Note_on_c, 0, 88, 59
2, 345480, Note_on_c, 0, 80, 0
2, 345600, Note_on_c, 0, 88, 0
2, 345600, End_track
3, 0, Start_track
3, 0, Title_t, "Piano"
3, 0, Control_c, 0, 7, 105
3, 0, Control_c, 0, 10, 73
3, 0, Control_c, 0, 91, 100
3, 0, Control_c, 0, 10, 64
3, 0, Note_on_c, 0, 56, 53
3, 70, Control_c, 0, 121, 0
3, 1800, Note_on_c, 0, 62, 57
3, 1920, Note_on_c, 0, 56, 0
3, 1920, Note_on_c, 0, 68, 49
3, 2340, Note_on_c, 0, 68, 0
3, 2760, Note_on_c, 0, 62, 0
3, 2880, Note_on_c, 0, 63, 48
3, 3720, Note_on_c, 0, 63, 0
3, 4800, Note_on_c, 0, 57, 54
3, 5760, Note_on_c, 0, 57, 0
3, 5760, Note_on_c, 0, 56, 53
3, 7560, Note_on_c, 0, 64, 60
3, 7655, Note_on_c, 0, 56, 0
3, 7680, Note_on_c, 0, 68, 67
3, 8520, Note_on_c, 0, 68, 0
3, 8520, Note_on_c, 0, 64, 0
3, 11400, Note_on_c, 0, 71, 58
3, 11520, Note_on_c, 0, 75, 54
3, 12455, Note_on_c, 0, 75, 0
3, 12840, Note_on_c, 0, 71, 0
3, 13440, Note_on_c, 0, 71, 52
3, 14280, Note_on_c, 0, 71, 0
3, 14400, Note_on_c, 0, 71, 56
3, 14940, Note_on_c, 0, 71, 0
3, 16320, Note_on_c, 0, 59, 58
3, 17220, Note_on_c, 0, 59, 0
3, 17280, Note_on_c, 0, 59, 54
3, 19200, Note_on_c, 0, 59, 0
3, 19200, Note_on_c, 0, 58, 53
3, 19910, Note_on_c, 0, 58, 0
3, 20160, Note_on_c, 0, 52, 54
3, 20640, Note_on_c, 0, 52, 0
3, 20640, Note_on_c, 0, 51, 57
3, 21120, Note_on_c, 0, 51, 0
3, 23040, Note_on_c, 0, 56, 57
3, 23960, Note_on_c, 0, 56, 0
3, 24840, Note_on_c, 0, 68, 50
3, 25680, Note_on_c, 0, 63, 55
3, 25800, Note_on_c, 0, 68, 0
3, 25800, Note_on_c, 0, 69, 61
3, 26220, Note_on_c, 0, 69, 0
3, 26640, Note_on_c, 0, 63, 0
3, 27840, Note_on_c, 0, 57, 46
3, 28800, Note_on_c, 0, 57, 0
3, 28860, Note_on_c, 0, 56, 50
3, 29390, Note_on_c, 0, 56, 0
3, 34560, Control_c, 0, 10, 71
3, 34560, Control_c, 0, 10, 71
3, 34560, Control_c, 0, 10, 71
3, 34560, Note_on_c, 0, 69, 50
3, 36480, Note_on_c, 0, 69, 0
3, 36480, Note_on_c, 0, 71, 60
3, 37168, Note_on_c, 0, 71, 0
3, 40320, Control_c, 0, 10, 71
3, 40320, Control_c, 0, 10, 71
3, 40320, Control_c, 0, 10, 71
3, 40320, Note_on_c, 0, 64, 57
3, 42240, Note_on_c, 0, 64, 0
3, 42240, Note_on_c, 0, 63, 54
3, 42240, Note_on_c, 0, 69, 52
3, 42960, Note_on_c, 0, 69, 0
3, 42960, Note_on_c, 0, 63, 0
3, 42960, Note_on_c, 0, 57, 56
3, 43200, Note_on_c, 0, 57, 0
3, 43200, Note_on_c, 0, 56, 52
3, 44160, Note_on_c, 0, 56, 0
3, 44160, Note_on_c, 0, 64, 53
3, 44160, Note_on_c, 0, 71, 54
3, 46080, Note_on_c, 0, 71, 0
3, 46080, Note_on_c, 0, 64, 0
3, 46080, Note_on_c, 0, 76, 56
3, 47520, Note_on_c, 0, 76, 0
3, 47520, Note_on_c, 0, 76, 57
3, 48960, Note_on_c, 0, 76, 0
3, 48960, Note_on_c, 0, 76, 61
3, 50400, Note_on_c, 0, 76, 0
3, 54720, Note_on_c, 0, 77, 53
3, 56160, Note_on_c, 0, 77, 0
3, 56160, Note_on_c, 0, 77, 62
3, 57600, Note_on_c, 0, 77, 0
3, 57600, Note_on_c, 0, 77, 61
3, 59040, Note_on_c, 0, 77, 0
3, 63360, Note_on_c, 0, 76, 61
3, 64800, Note_on_c, 0, 76, 0
3, 64800, Note_on_c, 0, 78, 53
3, 66240, Note_on_c, 0, 78, 0
3, 66240, Note_on_c, 0, 80, 56
3, 67680, Note_on_c, 0, 80, 0
3, 67680, Note_on_c, 0, 82, 61
3, 69120, Note_on_c, 0, 82, 0
3, 69120, Note_on_c, 0, 83, 70
3, 70560, Note_on_c, 0, 83, 0
3, 70560, Note_on_c, 0, 85, 56
3, 72000, Note_on_c, 0, 85, 0
3, 72000, Note_on_c, 0, 86, 60
3, 73440, Note_on_c, 0, 86, 0
3, 73440, Note_on_c, 0, 78, 60
3, 74880, Note_on_c, 0, 78, 0
3, 74880, Note_on_c, 0, 77, 62
3, 76320, Note_on_c, 0, 77, 0
3, 76320, Note_on_c, 0, 78, 57
3, 77760, Note_on_c, 0, 78, 0
3, 108960, Note_on_c, 0, 69, 54
3, 109440, Note_on_c, 0, 69, 0
3, 109440, Note_on_c, 0, 68, 48
3, 109440, Note_on_c, 0, 71, 44
3, 110400, Note_on_c, 0, 71, 0
3, 110400, Note_on_c, 0, 68, 0
3, 110400, Note_on_c, 0, 67, 56
3, 110400, Note_on_c, 0, 71, 46
3, 110880, Note_on_c, 0, 71, 0
3, 110880, Note_on_c, 0, 67, 0
3, 110880, Note_on_c, 0, 66, 47
3, 110880, Note_on_c, 0, 71, 57
3, 111840, Note_on_c, 0, 71, 0
3, 111840, Note_on_c, 0, 66, 0
3, 113280, Note_on_c, 0, 70, 62
3, 113760, Note_on_c, 0, 70, 0
3, 113760, Note_on_c, 0, 69, 65
3, 114240, Note_on_c, 0, 69, 0
3, 114240, Note_on_c, 0, 68, 65
3, 114720, Note_on_c, 0, 68, 0
3, 114720, Note_on_c, 0, 67, 69
3, 115200, Note_on_c, 0, 67, 0
3, 115200, Note_on_c, 0, 66, 62
3, 115200, Note_on_c, 0, 71, 62
3, 117120, Note_on_c, 0, 71, 0
3, 117120, Note_on_c, 0, 66, 0
3, 119520, Note_on_c, 0, 75, 56
3, 120455, Note_on_c, 0, 75, 0
3, 120480, Note_on_c, 0, 68, 50
3, 120960, Note_on_c, 0, 68, 0
3, 120960, Note_on_c, 0, 71, 54
3, 121875, Note_on_c, 0, 71, 0
3, 121920, Note_on_c, 0, 63, 51
3, 122400, Note_on_c, 0, 63, 0
3, 122400, Note_on_c, 0, 68, 52
3, 123315, Note_on_c, 0, 68, 0
3, 123360, Note_on_c, 0, 59, 59
3, 123840, Note_on_c, 0, 59, 0
3, 124800, Note_on_c, 0, 59, 49
3, 125280, Note_on_c, 0, 59, 0
3, 125280, Note_on_c, 0, 64, 50
3, 126240, Note_on_c, 0, 64, 0
3, 126240, Note_on_c, 0, 56, 49
3, 126720, Note_on_c, 0, 56, 0
3, 126720, Note_on_c, 0, 59, 53
3, 127660, Note_on_c, 0, 59, 0
3, 129120, Note_on_c, 0, 58, 49
3, 129600, Note_on_c, 0, 58, 0
3, 129600, Note_on_c, 0, 49, 50
3, 130560, Note_on_c, 0, 49, 0
3, 130560, Note_on_c, 0, 42, 51
3, 131040, Note_on_c, 0, 42, 0
3, 131040, Note_on_c, 0, 64, 55
3, 132480, Note_on_c, 0, 64, 0
3, 134880, Note_on_c, 0, 65, 50
3, 135360, Note_on_c, 0, 65, 0
3, 135360, Note_on_c, 0, 66, 56
3, 136320, Note_on_c, 0, 66, 0
3, 136320, Note_on_c, 0, 64, 57
3, 136800, Note_on_c, 0, 64, 0
3, 136800, Note_on_c, 0, 59, 61
3, 136800, Note_on_c, 0, 63, 68
3, 137280, Note_on_c, 0, 63, 0
3, 137280, Note_on_c, 0, 59, 0
3, 139200, Note_on_c, 0, 65, 59
3, 139680, Note_on_c, 0, 65, 0
3, 139680, Note_on_c, 0, 66, 58
3, 140160, Note_on_c, 0, 66, 0
3, 140160, Note_on_c, 0, 65, 60
3, 140640, Note_on_c, 0, 65, 0
3, 140640, Note_on_c, 0, 64, 63
3, 141120, Note_on_c, 0, 64, 0
3, 141120, Note_on_c, 0, 59, 61
3, 141120, Note_on_c, 0, 63, 61
3, 141600, Note_on_c, 0, 63, 0
3, 141600, Note_on_c, 0, 59, 0
3, 149760, Note_on_c, 0, 56, 50
3, 151560, Note_on_c, 0, 62, 46
3, 151620, Note_on_c, 0, 68, 51
3, 151680, Note_on_c, 0, 56, 0
3, 152155, Note_on_c, 0, 68, 0
3, 152520, Note_on_c, 0, 62, 0
3, 152640, Note_on_c, 0, 63, 45
3, 153525, Note_on_c, 0, 63, 0
3, 154560, Note_on_c, 0, 57, 47
3, 155520, Note_on_c, 0, 57, 0
3, 155520, Note_on_c, 0, 56, 40
3, 157290, Note_on_c, 0, 56, 0
3, 157320, Note_on_c, 0, 64, 59
3, 157380, Note_on_c, 0, 68, 60
3, 158280, Note_on_c, 0, 64, 0
3, 158340, Note_on_c, 0, 68, 0
3, 161280, Note_on_c, 0, 71, 75
3, 161280, Note_on_c, 0, 75, 77
3, 162180, Note_on_c, 0, 75, 0
3, 162720, Note_on_c, 0, 71, 0
3, 163200, Note_on_c, 0, 71, 76
3, 164140, Note_on_c, 0, 71, 0
3, 164160, Note_on_c, 0, 71, 80
3, 164770, Note_on_c, 0, 71, 0
3, 166080, Note_on_c, 0, 59, 59
3, 167033, Note_on_c, 0, 59, 0
3, 167040, Note_on_c, 0, 59, 50
3, 168960, Note_on_c, 0, 59, 0
3, 168960, Note_on_c, 0, 58, 38
3, 168960, Note_on_c, 0, 64, 38
3, 169570, Note_on_c, 0, 58, 0
3, 169920, Note_on_c, 0, 64, 0
3, 170880, Note_on_c, 0, 59, 48
3, 170880, Note_on_c, 0, 64, 48
3, 171360, Note_on_c, 0, 64, 0
3, 171360, Note_on_c, 0, 63, 56
3, 171600, Note_on_c, 0, 63, 0
3, 171600, Note_on_c, 0, 59, 0
3, 171840, Note_on_c, 0, 71, 65
3, 171840, Note_on_c, 0, 76, 65
3, 172320, Note_on_c, 0, 76, 0
3, 172320, Note_on_c, 0, 75, 73
3, 172560, Note_on_c, 0, 75, 0
3, 172560, Note_on_c, 0, 71, 0
3, 172800, Note_on_c, 0, 56, 81
3, 173700, Note_on_c, 0, 56, 0
3, 174720, Note_on_c, 0, 68, 83
3, 175680, Note_on_c, 0, 68, 0
3, 175680, Note_on_c, 0, 63, 83
3, 175680, Note_on_c, 0, 69, 83
3, 175990, Note_on_c, 0, 69, 0
3, 176640, Note_on_c, 0, 63, 0
3, 177600, Note_on_c, 0, 57, 83
3, 178560, Note_on_c, 0, 57, 0
3, 178560, Note_on_c, 0, 56, 83
3, 179115, Note_on_c, 0, 56, 0
3, 184320, Note_on_c, 0, 69, 89
3, 186240, Note_on_c, 0, 69, 0
3, 186240, Note_on_c, 0, 71, 83
3, 187188, Note_on_c, 0, 71, 0
3, 190080, Note_on_c, 0, 64, 46
3, 192000, Note_on_c, 0, 64, 0
3, 192000, Note_on_c, 0, 63, 42
3, 192000, Note_on_c, 0, 69, 42
3, 192703, Note_on_c, 0, 63, 0
3, 192720, Note_on_c, 0, 69, 0
3, 192720, Note_on_c, 0, 57, 41
3, 192960, Note_on_c, 0, 57, 0
3, 193920, Note_on_c, 0, 64, 40
3, 193920, Note_on_c, 0, 71, 40
3, 195840, Note_on_c, 0, 71, 0
3, 195840, Note_on_c, 0, 64, 0
3, 195840, Note_on_c, 0, 80, 75
3, 196000, Note_on_c, 0, 76, 66
3, 196160, Note_on_c, 0, 73, 67
3, 196280, Note_on_c, 0, 76, 0
3, 196320, Note_on_c, 0, 70, 66
3, 196440, Note_on_c, 0, 73, 0
3, 196480, Note_on_c, 0, 61, 63
3, 196600, Note_on_c, 0, 70, 0
3, 196640, Note_on_c, 0, 54, 65
3, 196760, Note_on_c, 0, 61, 0
3, 196770, Note_on_c, 0, 80, 0
3, 196800, Note_on_c, 0, 54, 0
3, 197280, Note_on_c, 0, 80, 57
3, 197440, Note_on_c, 0, 76, 57
3, 197600, Note_on_c, 0, 73, 66
3, 197720, Note_on_c, 0, 76, 0
3, 197760, Note_on_c, 0, 70, 56
3, 197880, Note_on_c, 0, 73, 0
3, 197920, Note_on_c, 0, 61, 67
3, 197970, Note_on_c, 0, 80, 0
3, 198040, Note_on_c, 0, 70, 0
3, 198080, Note_on_c, 0, 54, 65
3, 198200, Note_on_c, 0, 61, 0
3, 198240, Note_on_c, 0, 54, 0
3, 198880, Note_on_c, 0, 78, 59
3, 199040, Note_on_c, 0, 76, 59
3, 199160, Note_on_c, 0, 78, 0
3, 199200, Note_on_c, 0, 70, 57
3, 199320, Note_on_c, 0, 76, 0
3, 199360, Note_on_c, 0, 64, 60
3, 199480, Note_on_c, 0, 70, 0
3, 199520, Note_on_c, 0, 61, 57
3, 199640, Note_on_c, 0, 64, 0
3, 199800, Note_on_c, 0, 61, 0
3, 200400, Note_on_c, 0, 75, 61
3, 200640, Note_on_c, 0, 71, 67
3, 200760, Note_on_c, 0, 75, 0
3, 200800, Note_on_c, 0, 66, 66
3, 200920, Note_on_c, 0, 71, 0
3, 200960, Note_on_c, 0, 59, 63
3, 201080, Note_on_c, 0, 66, 0
3, 201120, Note_on_c, 0, 59, 0
3, 201840, Note_on_c, 0, 74, 58
3, 202080, Note_on_c, 0, 71, 65
3, 202200, Note_on_c, 0, 74, 0
3, 202240, Note_on_c, 0, 67, 56
3, 202360, Note_on_c, 0, 71, 0
3, 202400, Note_on_c, 0, 59, 59
3, 202520, Note_on_c, 0, 67, 0
3, 202560, Note_on_c, 0, 59, 0
3, 203280, Note_on_c, 0, 75, 65
3, 203520, Note_on_c, 0, 71, 62
3, 203640, Note_on_c, 0, 75, 0
3, 203680, Note_on_c, 0, 66, 56
3, 203800, Note_on_c, 0, 71, 0
3, 203840, Note_on_c, 0, 59, 63
3, 203960, Note_on_c, 0, 66, 0
3, 204000, Note_on_c, 0, 59, 0
3, 204640, Note_on_c, 0, 77, 46
3, 204800, Note_on_c, 0, 74, 41
3, 204920, Note_on_c, 0, 77, 0
3, 204960, Note_on_c, 0, 71, 45
3, 205080, Note_on_c, 0, 74, 0
3, 205120, Note_on_c, 0, 67, 46
3, 205240, Note_on_c, 0, 71, 0
3, 205280, Note_on_c, 0, 59, 42
3, 205400, Note_on_c, 0, 67, 0
3, 205440, Note_on_c, 0, 59, 0
3, 206080, Note_on_c, 0, 77, 45
3, 206240, Note_on_c, 0, 74, 40
3, 206360, Note_on_c, 0, 77, 0
3, 206400, Note_on_c, 0, 71, 44
3, 206520, Note_on_c, 0, 74, 0
3, 206560, Note_on_c, 0, 67, 42
3, 206680, Note_on_c, 0, 71, 0
3, 206720, Note_on_c, 0, 59, 35
3, 206840, Note_on_c, 0, 67, 0
3, 206880, Note_on_c, 0, 59, 0
3, 207520, Note_on_c, 0, 79, 42
3, 207680, Note_on_c, 0, 77, 39
3, 207800, Note_on_c, 0, 79, 0
3, 207840, Note_on_c, 0, 71, 37
3, 207960, Note_on_c, 0, 77, 0
3, 208000, Note_on_c, 0, 67, 38
3, 208120, Note_on_c, 0, 71, 0
3, 208160, Note_on_c, 0, 62, 40
3, 208280, Note_on_c, 0, 67, 0
3, 208320, Note_on_c, 0, 62, 0
3, 209040, Note_on_c, 0, 76, 37
3, 209280, Note_on_c, 0, 72, 35
3, 209400, Note_on_c, 0, 76, 0
3, 209440, Note_on_c, 0, 67, 43
3, 209560, Note_on_c, 0, 72, 0
3, 209600, Note_on_c, 0, 60, 39
3, 209720, Note_on_c, 0, 67, 0
3, 209760, Note_on_c, 0, 60, 0
3, 210480, Note_on_c, 0, 75, 39
3, 210720, Note_on_c, 0, 72, 43
3, 210840, Note_on_c, 0, 75, 0
3, 210880, Note_on_c, 0, 68, 39
3, 211000, Note_on_c, 0, 72, 0
3, 211040, Note_on_c, 0, 60, 46
3, 211160, Note_on_c, 0, 68, 0
3, 211200, Note_on_c, 0, 60, 0
3, 211920, Note_on_c, 0, 76, 41
3, 212160, Note_on_c, 0, 72, 36
3, 212280, Note_on_c, 0, 76, 0
3, 212320, Note_on_c, 0, 67, 37
3, 212440, Note_on_c, 0, 72, 0
3, 212480, Note_on_c, 0, 60, 37
3, 212600, Note_on_c, 0, 67, 0
3, 212640, Note_on_c, 0, 60, 0
3, 213120, Note_on_c, 0, 76, 50
3, 214560, Note_on_c, 0, 76, 0
3, 214560, Note_on_c, 0, 78, 54
3, 216000, Note_on_c, 0, 78, 0
3, 216000, Note_on_c, 0, 80, 59
3, 217440, Note_on_c, 0, 80, 0
3, 217440, Note_on_c, 0, 82, 64
3, 218880, Note_on_c, 0, 82, 0
3, 218880, Note_on_c, 0, 83, 69
3, 220320, Note_on_c, 0, 83, 0
3, 220320, Note_on_c, 0, 85, 74
3, 221760, Note_on_c, 0, 85, 0
3, 221760, Note_on_c, 0, 83, 79
3, 223200, Note_on_c, 0, 83, 0
3, 223200, Note_on_c, 0, 78, 69
3, 224640, Note_on_c, 0, 78, 0
3, 224640, Note_on_c, 0, 77, 56
3, 226080, Note_on_c, 0, 77, 0
3, 226080, Note_on_c, 0, 78, 52
3, 227520, Note_on_c, 0, 78, 0
3, 230400, Note_on_c, 0, 68, 61
3, 230400, Note_on_c, 0, 76, 61
3, 230400, Note_on_c, 0, 80, 61
3, 231360, Note_on_c, 0, 76, 0
3, 231360, Note_on_c, 0, 66, 68
3, 231360, Note_on_c, 0, 76, 68
3, 231360, Note_on_c, 0, 79, 68
3, 231480, Note_on_c, 0, 80, 0
3, 231480, Note_on_c, 0, 68, 0
3, 231840, Note_on_c, 0, 76, 0
3, 231840, Note_on_c, 0, 68, 71
3, 231840, Note_on_c, 0, 76, 71
3, 231840, Note_on_c, 0, 80, 71
3, 231960, Note_on_c, 0, 66, 0
3, 231960, Note_on_c, 0, 79, 0
3, 232800, Note_on_c, 0, 75, 78
3, 232800, Note_on_c, 0, 87, 78
3, 232920, Note_on_c, 0, 76, 0
3, 232920, Note_on_c, 0, 80, 0
3, 232920, Note_on_c, 0, 68, 0
3, 233280, Note_on_c, 0, 73, 82
3, 233280, Note_on_c, 0, 85, 82
3, 233400, Note_on_c, 0, 75, 0
3, 233400, Note_on_c, 0, 87, 0
3, 233760, Note_on_c, 0, 70, 85
3, 233760, Note_on_c, 0, 82, 85
3, 233880, Note_on_c, 0, 73, 0
3, 233880, Note_on_c, 0, 85, 0
3, 234240, Note_on_c, 0, 68, 89
3, 234240, Note_on_c, 0, 80, 89
3, 234360, Note_on_c, 0, 70, 0
3, 234360, Note_on_c, 0, 82, 0
3, 234720, Note_on_c, 0, 68, 0
3, 234720, Note_on_c, 0, 80, 0
3, 234720, Note_on_c, 0, 66, 89
3, 234720, Note_on_c, 0, 78, 80
3, 236160, Note_on_c, 0, 78, 0
3, 236160, Note_on_c, 0, 66, 0
3, 236160, Note_on_c, 0, 65, 82
3, 236160, Note_on_c, 0, 77, 80
3, 237600, Note_on_c, 0, 77, 0
3, 237600, Note_on_c, 0, 65, 0
3, 237600, Note_on_c, 0, 66, 82
3, 237600, Note_on_c, 0, 78, 87
3, 239040, Note_on_c, 0, 78, 0
3, 239040, Note_on_c, 0, 66, 0
3, 239040, Note_on_c, 0, 67, 86
3, 239040, Note_on_c, 0, 77, 80
3, 239040, Note_on_c, 0, 79, 81
3, 240000, Note_on_c, 0, 66, 87
3, 240000, Note_on_c, 0, 78, 82
3, 240120, Note_on_c, 0, 79, 0
3, 240120, Note_on_c, 0, 67, 0
3, 240120, Note_on_c, 0, 77, 0
3, 240480, Note_on_c, 0, 67, 88
3, 240480, Note_on_c, 0, 77, 88
3, 240480, Note_on_c, 0, 79, 87
3, 240600, Note_on_c, 0, 66, 0
3, 240600, Note_on_c, 0, 78, 0
3, 241440, Note_on_c, 0, 76, 81
3, 241440, Note_on_c, 0, 88, 82
3, 241560, Note_on_c, 0, 77, 0
3, 241560, Note_on_c, 0, 79, 0
3, 241560, Note_on_c, 0, 67, 0
3, 241920, Note_on_c, 0, 74, 88
3, 241920, Note_on_c, 0, 86, 86
3, 242040, Note_on_c, 0, 76, 0
3, 242040, Note_on_c, 0, 88, 0
3, 242400, Note_on_c, 0, 71, 85
3, 242400, Note_on_c, 0, 83, 80
3, 242520, Note_on_c, 0, 74, 0
3, 242520, Note_on_c, 0, 86, 0
3, 242880, Note_on_c, 0, 69, 88
3, 242880, Note_on_c, 0, 81, 82
3, 243000, Note_on_c, 0, 71, 0
3, 243000, Note_on_c, 0, 83, 0
3, 243360, Note_on_c, 0, 69, 0
3, 243360, Note_on_c, 0, 81, 0
3, 243360, Note_on_c, 0, 67, 89
3, 243360, Note_on_c, 0, 79, 85
3, 244800, Note_on_c, 0, 79, 0
3, 244800, Note_on_c, 0, 67, 0
3, 244800, Note_on_c, 0, 66, 82
3, 244800, Note_on_c, 0, 78, 82
3, 246240, Note_on_c, 0, 78, 0
3, 246240, Note_on_c, 0, 66, 0
3, 246240, Note_on_c, 0, 67, 86
3, 246240, Note_on_c, 0, 79, 88
3, 247680, Note_on_c, 0, 79, 0
3, 247680, Note_on_c, 0, 67, 0
3, 247690, Note_on_c, 0, 70, 86
3, 248650, Note_on_c, 0, 80, 91
3, 248770, Note_on_c, 0, 70, 0
3, 249130, Note_on_c, 0, 78, 89
3, 249250, Note_on_c, 0, 80, 0
3, 250090, Note_on_c, 0, 75, 86
3, 250210, Note_on_c, 0, 78, 0
3, 250570, Note_on_c, 0, 71, 93
3, 250690, Note_on_c, 0, 75, 0
3, 251530, Note_on_c, 0, 70, 92
3, 251650, Note_on_c, 0, 71, 0
3, 252010, Note_on_c, 0, 70, 0
3, 252010, Note_on_c, 0, 67, 83
3, 252970, Note_on_c, 0, 67, 0
3, 252970, Note_on_c, 0, 68, 87
3, 253450, Note_on_c, 0, 68, 0
3, 253450, Note_on_c, 0, 69, 88
3, 254410, Note_on_c, 0, 69, 0
3, 254410, Note_on_c, 0, 70, 92
3, 254890, Note_on_c, 0, 70, 0
3, 254890, Note_on_c, 0, 73, 94
3, 255850, Note_on_c, 0, 73, 0
3, 255850, Note_on_c, 0, 71, 97
3, 256330, Note_on_c, 0, 71, 0
3, 258720, Note_on_c, 0, 69, 88
3, 259200, Note_on_c, 0, 69, 0
3, 259200, Note_on_c, 0, 68, 85
3, 259200, Note_on_c, 0, 71, 88
3, 260160, Note_on_c, 0, 71, 0
3, 260160, Note_on_c, 0, 68, 0
3, 260160, Note_on_c, 0, 67, 87
3, 260160, Note_on_c, 0, 71, 90
3, 260640, Note_on_c, 0, 71, 0
3, 260640, Note_on_c, 0, 67, 0
3, 260640, Note_on_c, 0, 66, 86
3, 260640, Note_on_c, 0, 71, 90
3, 261600, Note_on_c, 0, 71, 0
3, 261600, Note_on_c, 0, 66, 0
3, 263040, Note_on_c, 0, 70, 84
3, 263520, Note_on_c, 0, 70, 0
3, 263520, Note_on_c, 0, 69, 87
3, 264000, Note_on_c, 0, 69, 0
3, 264000, Note_on_c, 0, 68, 85
3, 264480, Note_on_c, 0, 68, 0
3, 264480, Note_on_c, 0, 67, 87
3, 264960, Note_on_c, 0, 67, 0
3, 264970, Note_on_c, 0, 66, 95
3, 264970, Note_on_c, 0, 71, 90
3, 267850, Note_on_c, 0, 71, 0
3, 267850, Note_on_c, 0, 66, 0
3, 269290, Note_on_c, 0, 75, 81
3, 270210, Note_on_c, 0, 75, 0
3, 270250, Note_on_c, 0, 68, 87
3, 270730, Note_on_c, 0, 68, 0
3, 270730, Note_on_c, 0, 71, 79
3, 271650, Note_on_c, 0, 71, 0
3, 271690, Note_on_c, 0, 63, 84
3, 272170, Note_on_c, 0, 63, 0
3, 272170, Note_on_c, 0, 68, 87
3, 273090, Note_on_c, 0, 68, 0
3, 273130, Note_on_c, 0, 59, 80
3, 273610, Note_on_c, 0, 59, 0
3, 273610, Note_on_c, 0, 68, 86
3, 274530, Note_on_c, 0, 68, 0
3, 274570, Note_on_c, 0, 68, 83
3, 275050, Note_on_c, 0, 68, 0
3, 275050, Note_on_c, 0, 71, 87
3, 276010, Note_on_c, 0, 71, 0
3, 276010, Note_on_c, 0, 64, 83
3, 276490, Note_on_c, 0, 64, 0
3, 276490, Note_on_c, 0, 68, 80
3, 277450, Note_on_c, 0, 68, 0
3, 277450, Note_on_c, 0, 59, 86
3, 277930, Note_on_c, 0, 59, 0
3, 277930, Note_on_c, 0, 66, 88
3, 278890, Note_on_c, 0, 66, 0
3, 278890, Note_on_c, 0, 64, 85
3, 279370, Note_on_c, 0, 64, 0
3, 279370, Note_on_c, 0, 66, 89
3, 280330, Note_on_c, 0, 66, 0
3, 280330, Note_on_c, 0, 58, 79
3, 282250, Note_on_c, 0, 58, 0
3, 284650, Note_on_c, 0, 65, 86
3, 285130, Note_on_c, 0, 66, 80
3, 285250, Note_on_c, 0, 65, 0
3, 286090, Note_on_c, 0, 66, 0
3, 286090, Note_on_c, 0, 64, 89
3, 286570, Note_on_c, 0, 59, 81
3, 286570, Note_on_c, 0, 63, 78
3, 286690, Note_on_c, 0, 64, 0
3, 287050, Note_on_c, 0, 63, 0
3, 287050, Note_on_c, 0, 59, 0
3, 288970, Note_on_c, 0, 65, 78
3, 289450, Note_on_c, 0, 66, 82
3, 289570, Note_on_c, 0, 65, 0
3, 289930, Note_on_c, 0, 65, 83
3, 290050, Note_on_c, 0, 66, 0
3, 290410, Note_on_c, 0, 64, 85
3, 290530, Note_on_c, 0, 65, 0
3, 290890, Note_on_c, 0, 64, 0
3, 290890, Note_on_c, 0, 59, 81
3, 290890, Note_on_c, 0, 63, 82
3, 291370, Note_on_c, 0, 63, 0
3, 291370, Note_on_c, 0, 59, 0
3, 299520, Note_on_c, 0, 56, 43
3, 301260, Note_on_c, 0, 62, 64
3, 301320, Note_on_c, 0, 68, 69
3, 301440, Note_on_c, 0, 56, 0
3, 301860, Note_on_c, 0, 68, 0
3, 302220, Note_on_c, 0, 62, 0
3, 302400, Note_on_c, 0, 63, 66
3, 303315, Note_on_c, 0, 63, 0
3, 304320, Note_on_c, 0, 57, 69
3, 305280, Note_on_c, 0, 57, 0
3, 305280, Note_on_c, 0, 56, 61
3, 306960, Note_on_c, 0, 64, 66
3, 307080, Note_on_c, 0, 68, 67
3, 307185, Note_on_c, 0, 56, 0
3, 307920, Note_on_c, 0, 64, 0
3, 308040, Note_on_c, 0, 68, 0
3, 310800, Note_on_c, 0, 71, 80
3, 310860, Note_on_c, 0, 75, 80
3, 311820, Note_on_c, 0, 75, 0
3, 312240, Note_on_c, 0, 71, 0
3, 312960, Note_on_c, 0, 71, 80
3, 313840, Note_on_c, 0, 71, 0
3, 313920, Note_on_c, 0, 71, 71
3, 314530, Note_on_c, 0, 71, 0
3, 315840, Note_on_c, 0, 59, 65
3, 316790, Note_on_c, 0, 59, 0
3, 316800, Note_on_c, 0, 59, 62
3, 318620, Note_on_c, 0, 59, 0
3, 318720, Note_on_c, 0, 58, 67
3, 318720, Note_on_c, 0, 64, 72
3, 319330, Note_on_c, 0, 58, 0
3, 319680, Note_on_c, 0, 64, 0
3, 320640, Note_on_c, 0, 59, 60
3, 320640, Note_on_c, 0, 64, 60
3, 321120, Note_on_c, 0, 64, 0
3, 321120, Note_on_c, 0, 63, 67
3, 321360, Note_on_c, 0, 63, 0
3, 321360, Note_on_c, 0, 59, 0
3, 321600, Note_on_c, 0, 71, 73
3, 321600, Note_on_c, 0, 76, 73
3, 322080, Note_on_c, 0, 76, 0
3, 322080, Note_on_c, 0, 75, 80
3, 322320, Note_on_c, 0, 75, 0
3, 322320, Note_on_c, 0, 71, 0
3, 322570, Note_on_c, 0, 56, 86
3, 323440, Note_on_c, 0, 56, 0
3, 324430, Note_on_c, 0, 68, 88
3, 325330, Note_on_c, 0, 63, 84
3, 325390, Note_on_c, 0, 68, 0
3, 325390, Note_on_c, 0, 69, 80
3, 325765, Note_on_c, 0, 69, 0
3, 326290, Note_on_c, 0, 63, 0
3, 327370, Note_on_c, 0, 57, 84
3, 328330, Note_on_c, 0, 57, 0
3, 328330, Note_on_c, 0, 56, 87
3, 328900, Note_on_c, 0, 56, 0
3, 334080, Note_on_c, 0, 69, 73
3, 335940, Note_on_c, 0, 71, 71
3, 336000, Note_on_c, 0, 69, 0
3, 336900, Note_on_c, 0, 71, 0
3, 339840, Note_on_c, 0, 64, 49
3, 341760, Note_on_c, 0, 64, 0
3, 341760, Note_on_c, 0, 63, 40
3, 341760, Note_on_c, 0, 69, 44
3, 342480, Note_on_c, 0, 69, 0
3, 342480, Note_on_c, 0, 63, 0
3, 342480, Note_on_c, 0, 57, 49
3, 342720, Note_on_c, 0, 57, 0
3, 343500, Note_on_c, 0, 68, 57
3, 343500, Note_on_c, 0, 76, 55
3, 345420, Note_on_c, 0, 76, 0
3, 345420, Note_on_c, 0, 68, 0
3, 345420, End_track
4, 0, Start_track
4, 0, Title_t, "Piano"
4, 0, Program_c, 0, 0
4, 0, Control_c, 0, 7, 105
4, 0, Control_c, 0, 10, 44
4, 0, Control_c, 0, 91, 100
4, 0, Program_c, 0, 0
4, 0, Control_c, 0, 7, 127
4, 0, Note_on_c, 0, 40, 50
4, 0, Note_on_c, 0, 47, 51
4, 0, Control_c, 0, 10, 50
4, 70, Control_c, 0, 121, 0
4, 1920, Note_on_c, 0, 47, 0
4, 1920, Note_on_c, 0, 40, 0
4, 1920, Note_on_c, 0, 53, 57
4, 1920, Note_on_c, 0, 61, 41
4, 2400, Note_on_c, 0, 61, 0
4, 2400, Note_on_c, 0, 56, 53
4, 2880, Note_on_c, 0, 56, 0
4, 2880, Note_on_c, 0, 53, 0
4, 2880, Note_on_c, 0, 54, 51
4, 2880, Note_on_c, 0, 59, 47
4, 4800, Note_on_c, 0, 59, 0
4, 4800, Note_on_c, 0, 54, 0
4, 4800, Note_on_c, 0, 35, 53
4, 4800, Note_on_c, 0, 47, 54
4, 5700, Note_on_c, 0, 47, 0
4, 5760, Note_on_c, 0, 35, 0
4, 5760, Note_on_c, 0, 40, 55
4, 5760, Note_on_c, 0, 47, 50
4, 7680, Note_on_c, 0, 47, 0
4, 7680, Note_on_c, 0, 40, 0
4, 7680, Note_on_c, 0, 49, 65
4, 7680, Note_on_c, 0, 56, 65
4, 7680, Note_on_c, 0, 58, 65
4, 8625, Note_on_c, 0, 56, 0
4, 8640, Note_on_c, 0, 58, 0
4, 8640, Note_on_c, 0, 49, 0
4, 8640, Note_on_c, 0, 51, 79
4, 8640, Note_on_c, 0, 56, 75
4, 8640, Note_on_c, 0, 59, 77
4, 10020, Note_on_c, 0, 51, 0
4, 10445, Note_on_c, 0, 56, 0
4, 11095, Note_on_c, 0, 59, 0
4, 13440, Note_on_c, 0, 56, 84
4, 14400, Note_on_c, 0, 56, 0
4, 14400, Note_on_c, 0, 54, 74
4, 14400, Note_on_c, 0, 63, 74
4, 14400, Note_on_c, 0, 66, 74
4, 15320, Note_on_c, 0, 66, 0
4, 16260, Note_on_c, 0, 54, 0
4, 16320, Note_on_c, 0, 63, 0
4, 16320, Note_on_c, 0, 42, 63
4, 16320, Note_on_c, 0, 51, 63
4, 16320, Note_on_c, 0, 54, 63
4, 17220, Note_on_c, 0, 42, 0
4, 17280, Note_on_c, 0, 54, 0
4, 17280, Note_on_c, 0, 51, 0
4, 17280, Note_on_c, 0, 42, 38
4, 17280, Note_on_c, 0, 52, 38
4, 19140, Note_on_c, 0, 52, 0
4, 19180, Note_on_c, 0, 42, 0
4, 19200, Note_on_c, 0, 42, 38
4, 19200, Note_on_c, 0, 52, 38
4, 20080, Note_on_c, 0, 52, 0
4, 20160, Note_on_c, 0, 42, 0
4, 20160, Note_on_c, 0, 35, 36
4, 20160, Note_on_c, 0, 47, 36
4, 21120, Note_on_c, 0, 47, 0
4, 21120, Note_on_c, 0, 35, 0
4, 21120, Note_on_c, 0, 59, 56
4, 21120, Note_on_c, 0, 64, 56
4, 21600, Note_on_c, 0, 64, 0
4, 21600, Note_on_c, 0, 63, 60
4, 22080, Note_on_c, 0, 63, 0
4, 22080, Note_on_c, 0, 59, 0
4, 23040, Note_on_c, 0, 40, 83
4, 24960, Note_on_c, 0, 40, 0
4, 24960, Note_on_c, 0, 53, 67
4, 24960, Note_on_c, 0, 56, 67
4, 24980, Note_on_c, 0, 59, 67
4, 25920, Note_on_c, 0, 56, 0
4, 25920, Note_on_c, 0, 53, 0
4, 25920, Note_on_c, 0, 54, 61
4, 25940, Note_on_c, 0, 59, 0
4, 26500, Note_on_c, 0, 54, 0
4, 27840, Note_on_c, 0, 35, 65
4, 28800, Note_on_c, 0, 35, 0
4, 28800, Note_on_c, 0, 40, 83
4, 31200, Note_on_c, 0, 40, 0
4, 31680, Note_on_c, 0, 45, 41
4, 31680, Note_on_c, 0, 52, 58
4, 31680, Note_on_c, 0, 57, 44
4, 32520, Note_on_c, 0, 37, 31
4, 32640, Note_on_c, 0, 57, 0
4, 32640, Note_on_c, 0, 45, 0
4, 32640, Note_on_c, 0, 52, 0
4, 32640, Note_on_c, 0, 53, 36
4, 33480, Note_on_c, 0, 37, 0
4, 33600, Note_on_c, 0, 53, 0
4, 33600, Note_on_c, 0, 42, 36
4, 33600, Note_on_c, 0, 49, 36
4, 33600, Note_on_c, 0, 54, 36
4, 34560, Note_on_c, 0, 54, 0
4, 34560, Note_on_c, 0, 49, 0
4, 34560, Note_on_c, 0, 42, 0
4, 34560, Note_on_c, 0, 57, 70
4, 36473, Note_on_c, 0, 57, 0
4, 36480, Note_on_c, 0, 57, 65
4, 36480, Note_on_c, 0, 59, 65
4, 37440, Note_on_c, 0, 59, 0
4, 37440, Note_on_c, 0, 57, 0
4, 37440, Note_on_c, 0, 56, 49
4, 39240, Note_on_c, 0, 49, 60
4, 39360, Note_on_c, 0, 56, 0
4, 40200, Note_on_c, 0, 49, 0
4, 40320, Note_on_c, 0, 57, 50
4, 40320, Note_on_c, 0, 61, 50
4, 42240, Note_on_c, 0, 61, 0
4, 42240, Note_on_c, 0, 57, 0
4, 42240, Note_on_c, 0, 35, 45
4, 42240, Note_on_c, 0, 47, 45
4, 43120, Note_on_c, 0, 47, 0
4, 43200, Note_on_c, 0, 35, 0
4, 43200, Note_on_c, 0, 40, 38
4, 43200, Note_on_c, 0, 47, 38
4, 46080, Note_on_c, 0, 47, 0
4, 46080, Note_on_c, 0, 40, 0
4, 46560, Note_on_c, 0, 61, 38
4, 46560, Note_on_c, 0, 70, 33
4, 47040, Note_on_c, 0, 70, 0
4, 47040, Note_on_c, 0, 61, 0
4, 47040, Note_on_c, 0, 54, 43
4, 47520, Note_on_c, 0, 54, 0
4, 48000, Note_on_c, 0, 61, 42
4, 48000, Note_on_c, 0, 70, 45
4, 48480, Note_on_c, 0, 70, 0
4, 48480, Note_on_c, 0, 61, 0
4, 48480, Note_on_c, 0, 54, 46
4, 48960, Note_on_c, 0, 54, 0
4, 49440, Note_on_c, 0, 61, 43
4, 49440, Note_on_c, 0, 70, 40
4, 49920, Note_on_c, 0, 70, 0
4, 49920, Note_on_c, 0, 61, 0
4, 49920, Note_on_c, 0, 54, 46
4, 50400, Note_on_c, 0, 54, 0
4, 50880, Note_on_c, 0, 66, 41
4, 50880, Note_on_c, 0, 71, 42
4, 51360, Note_on_c, 0, 71, 0
4, 51360, Note_on_c, 0, 66, 0
4, 51360, Note_on_c, 0, 59, 48
4, 51840, Note_on_c, 0, 59, 0
4, 52320, Note_on_c, 0, 67, 54
4, 52320, Note_on_c, 0, 71, 37
4, 52800, Note_on_c, 0, 71, 0
4, 52800, Note_on_c, 0, 67, 0
4, 52800, Note_on_c, 0, 59, 48
4, 53280, Note_on_c, 0, 59, 0
4, 53760, Note_on_c, 0, 66, 45
4, 53760, Note_on_c, 0, 71, 27
4, 54240, Note_on_c, 0, 71, 0
4, 54240, Note_on_c, 0, 66, 0
4, 54240, Note_on_c, 0, 59, 45
4, 54720, Note_on_c, 0, 59, 0
4, 55200, Note_on_c, 0, 67, 40
4, 55200, Note_on_c, 0, 71, 38
4, 55680, Note_on_c, 0, 71, 0
4, 55680, Note_on_c, 0, 67, 0
4, 55680, Note_on_c, 0, 59, 39
4, 56160, Note_on_c, 0, 59, 0
4, 56640, Note_on_c, 0, 67, 40
4, 56640, Note_on_c, 0, 71, 36
4, 57120, Note_on_c, 0, 71, 0
4, 57120, Note_on_c, 0, 67, 0
4, 57120, Note_on_c, 0, 59, 40
4, 57600, Note_on_c, 0, 59, 0
4, 58080, Note_on_c, 0, 62, 37
4, 58080, Note_on_c, 0, 71, 37
4, 58560, Note_on_c, 0, 71, 0
4, 58560, Note_on_c, 0, 62, 0
4, 58560, Note_on_c, 0, 55, 34
4, 59040, Note_on_c, 0, 55, 0
4, 59520, Note_on_c, 0, 67, 32
4, 59520, Note_on_c, 0, 72, 36
4, 60000, Note_on_c, 0, 72, 0
4, 60000, Note_on_c, 0, 67, 0
4, 60000, Note_on_c, 0, 60, 33
4, 60480, Note_on_c, 0, 60, 0
4, 60960, Note_on_c, 0, 68, 36
4, 60960, Note_on_c, 0, 72, 35
4, 61440, Note_on_c, 0, 72, 0
4, 61440, Note_on_c, 0, 68, 0
4, 61440, Note_on_c, 0, 60, 41
4, 61920, Note_on_c, 0, 60, 0
4, 62400, Note_on_c, 0, 67, 37
4, 62400, Note_on_c, 0, 72, 31
4, 62880, Note_on_c, 0, 72, 0
4, 62880, Note_on_c, 0, 67, 0
4, 62880, Note_on_c, 0, 60, 37
4, 63360, Note_on_c, 0, 60, 0
4, 63360, Note_on_c, 0, 61, 39
4, 63840, Note_on_c, 0, 70, 41
4, 64320, Note_on_c, 0, 70, 0
4, 64320, Note_on_c, 0, 66, 44
4, 64800, Note_on_c, 0, 66, 0
4, 64800, Note_on_c, 0, 61, 0
4, 64800, Note_on_c, 0, 63, 46
4, 65280, Note_on_c, 0, 71, 48
4, 65760, Note_on_c, 0, 71, 0
4, 65760, Note_on_c, 0, 66, 50
4, 66240, Note_on_c, 0, 66, 0
4, 66240, Note_on_c, 0, 63, 0
4, 66240, Note_on_c, 0, 64, 53
4, 66720, Note_on_c, 0, 73, 55
4, 67200, Note_on_c, 0, 73, 0
4, 67200, Note_on_c, 0, 68, 57
4, 67680, Note_on_c, 0, 68, 0
4, 67680, Note_on_c, 0, 64, 0
4, 67680, Note_on_c, 0, 66, 57
4, 68160, Note_on_c, 0, 75, 59
4, 68640, Note_on_c, 0, 75, 0
4, 68640, Note_on_c, 0, 70, 60
4, 69120, Note_on_c, 0, 70, 0
4, 69120, Note_on_c, 0, 66, 0
4, 69120, Note_on_c, 0, 68, 62
4, 69600, Note_on_c, 0, 76, 63
4, 70080, Note_on_c, 0, 76, 0
4, 70080, Note_on_c, 0, 71, 65
4, 70560, Note_on_c, 0, 71, 0
4, 70560, Note_on_c, 0, 68, 0
4, 70560, Note_on_c, 0, 70, 66
4, 71040, Note_on_c, 0, 78, 68
4, 71520, Note_on_c, 0, 78, 0
4, 71520, Note_on_c, 0, 73, 69
4, 72000, Note_on_c, 0, 73, 0
4, 72000, Note_on_c, 0, 70, 0
4, 72000, Note_on_c, 0, 71, 71
4, 72480, Note_on_c, 0, 78, 69
4, 72960, Note_on_c, 0, 78, 0
4, 72960, Note_on_c, 0, 75, 67
4, 73440, Note_on_c, 0, 75, 0
4, 73440, Note_on_c, 0, 71, 0
4, 73440, Note_on_c, 0, 68, 76
4, 73920, Note_on_c, 0, 75, 69
4, 74400, Note_on_c, 0, 75, 0
4, 74400, Note_on_c, 0, 71, 71
4, 74880, Note_on_c, 0, 71, 0
4, 74880, Note_on_c, 0, 68, 0
4, 74880, Note_on_c, 0, 61, 76
4, 75360, Note_on_c, 0, 71, 67
4, 75840, Note_on_c, 0, 71, 0
4, 75840, Note_on_c, 0, 68, 73
4, 76320, Note_on_c, 0, 68, 0
4, 76320, Note_on_c, 0, 61, 0
4, 76320, Note_on_c, 0, 66, 73
4, 76800, Note_on_c, 0, 66, 0
4, 76800, Note_on_c, 0, 73, 71
4, 77280, Note_on_c, 0, 73, 0
4, 77280, Note_on_c, 0, 61, 68
4, 77760, Note_on_c, 0, 61, 0
4, 77760, Note_on_c, 0, 70, 66
4, 78240, Note_on_c, 0, 70, 0
4, 78240, Note_on_c, 0, 54, 64
4, 78720, Note_on_c, 0, 54, 0
4, 81120, Note_on_c, 0, 49, 36
4, 81120, Note_on_c, 0, 58, 33
4, 81600, Note_on_c, 0, 58, 0
4, 81600, Note_on_c, 0, 49, 0
4, 81600, Note_on_c, 0, 42, 34
4, 82080, Note_on_c, 0, 42, 0
4, 82560, Note_on_c, 0, 49, 36
4, 82560, Note_on_c, 0, 58, 35
4, 83040, Note_on_c, 0, 58, 0
4, 83040, Note_on_c, 0, 49, 0
4, 83040, Note_on_c, 0, 42, 30
4, 83520, Note_on_c, 0, 42, 0
4, 84000, Note_on_c, 0, 49, 35
4, 84000, Note_on_c, 0, 58, 34
4, 84480, Note_on_c, 0, 58, 0
4, 84480, Note_on_c, 0, 49, 0
4, 84480, Note_on_c, 0, 42, 35
4, 84960, Note_on_c, 0, 42, 0
4, 85440, Note_on_c, 0, 54, 31
4, 85440, Note_on_c, 0, 63, 30
4, 85920, Note_on_c, 0, 63, 0
4, 85920, Note_on_c, 0, 54, 0
4, 85920, Note_on_c, 0, 47, 32
4, 86400, Note_on_c, 0, 47, 0
4, 86880, Note_on_c, 0, 55, 32
4, 86880, Note_on_c, 0, 62, 35
4, 87360, Note_on_c, 0, 62, 0
4, 87360, Note_on_c, 0, 55, 0
4, 87360, Note_on_c, 0, 47, 31
4, 87840, Note_on_c, 0, 47, 0
4, 88320, Note_on_c, 0, 54, 32
4, 88320, Note_on_c, 0, 63, 33
4, 88800, Note_on_c, 0, 63, 0
4, 88800, Note_on_c, 0, 54, 0
4, 88800, Note_on_c, 0, 47, 32
4, 89280, Note_on_c, 0, 47, 0
4, 89760, Note_on_c, 0, 55, 74
4, 89760, Note_on_c, 0, 62, 71
4, 90240, Note_on_c, 0, 62, 0
4, 90240, Note_on_c, 0, 55, 0
4, 90240, Note_on_c, 0, 47, 71
4, 90720, Note_on_c, 0, 47, 0
4, 91200, Note_on_c, 0, 55, 72
4, 91200, Note_on_c, 0, 62, 65
4, 91680, Note_on_c, 0, 62, 0
4, 91680, Note_on_c, 0, 55, 0
4, 91680, Note_on_c, 0, 47, 65
4, 92160, Note_on_c, 0, 47, 0
4, 92640, Note_on_c, 0, 53, 75
4, 92640, Note_on_c, 0, 59, 65
4, 93120, Note_on_c, 0, 59, 0
4, 93120, Note_on_c, 0, 53, 0
4, 93120, Note_on_c, 0, 43, 72
4, 93600, Note_on_c, 0, 43, 0
4, 94080, Note_on_c, 0, 55, 72
4, 94080, Note_on_c, 0, 64, 76
4, 94560, Note_on_c, 0, 64, 0
4, 94560, Note_on_c, 0, 55, 0
4, 94560, Note_on_c, 0, 48, 72
4, 95040, Note_on_c, 0, 48, 0
4, 95520, Note_on_c, 0, 56, 72
4, 95520, Note_on_c, 0, 63, 70
4, 96000, Note_on_c, 0, 63, 0
4, 96000, Note_on_c, 0, 56, 0
4, 96000, Note_on_c, 0, 48, 74
4, 96480, Note_on_c, 0, 48, 0
4, 96960, Note_on_c, 0, 55, 67
4, 96960, Note_on_c, 0, 64, 69
4, 97440, Note_on_c, 0, 64, 0
4, 97440, Note_on_c, 0, 55, 0
4, 97440, Note_on_c, 0, 48, 67
4, 97920, Note_on_c, 0, 48, 0
4, 97920, Note_on_c, 0, 49, 66
4, 98400, Note_on_c, 0, 64, 75
4, 98880, Note_on_c, 0, 64, 0
4, 98880, Note_on_c, 0, 58, 72
4, 99360, Note_on_c, 0, 58, 0
4, 99360, Note_on_c, 0, 49, 0
4, 99360, Note_on_c, 0, 51, 70
4, 99840, Note_on_c, 0, 63, 66
4, 100320, Note_on_c, 0, 63, 0
4, 100320, Note_on_c, 0, 59, 75
4, 100800, Note_on_c, 0, 59, 0
4, 100800, Note_on_c, 0, 51, 0
4, 100800, Note_on_c, 0, 54, 69
4, 101280, Note_on_c, 0, 63, 73
4, 101760, Note_on_c, 0, 63, 0
4, 101760, Note_on_c, 0, 59, 69
4, 102240, Note_on_c, 0, 59, 0
4, 102240, Note_on_c, 0, 54, 0
4, 102240, Note_on_c, 0, 53, 80
4, 102720, Note_on_c, 0, 62, 68
4, 103200, Note_on_c, 0, 62, 0
4, 103200, Note_on_c, 0, 59, 69
4, 103680, Note_on_c, 0, 59, 0
4, 103680, Note_on_c, 0, 53, 0
4, 103680, Note_on_c, 0, 56, 84
4, 104160, Note_on_c, 0, 65, 73
4, 104640, Note_on_c, 0, 65, 0
4, 104640, Note_on_c, 0, 62, 74
4, 105120, Note_on_c, 0, 62, 0
4, 105120, Note_on_c, 0, 56, 0
4, 105120, Note_on_c, 0, 59, 91
4, 105600, Note_on_c, 0, 68, 78
4, 106080, Note_on_c, 0, 68, 0
4, 106080, Note_on_c, 0, 65, 79
4, 106550, Note_on_c, 0, 59, 0
4, 106560, Note_on_c, 0, 65, 0
4, 106560, Note_on_c, 0, 42, 85
4, 106560, Note_on_c, 0, 54, 85
4, 108960, Note_on_c, 0, 54, 0
4, 108960, Note_on_c, 0, 42, 0
4, 115200, Control_c, 0, 10, 44
4, 115200, Control_c, 0, 10, 44
4, 115200, Control_c, 0, 10, 44
4, 115200, Control_c, 0, 10, 44
4, 115200, Control_c, 0, 10, 44
4, 115200, Control_c, 0, 10, 44
4, 115200, Control_c, 0, 7, 127
4, 115200, Program_c, 0, 0
4, 115200, Control_c, 0, 10, 44
4, 115200, Control_c, 0, 7, 127
4, 115200, Program_c, 0, 0
4, 115200, Control_c, 0, 7, 127
4, 115200, Program_c, 0, 0
4, 115200, Control_c, 0, 7, 127
4, 118080, Control_c, 0, 64, 127
4, 118080, Note_on_c, 0, 30, 81
4, 118080, Note_on_c, 0, 42, 81
4, 123720, Control_c, 0, 64, 0
4, 123780, Note_on_c, 0, 42, 0
4, 123840, Note_on_c, 0, 30, 0
4, 123840, Control_c, 0, 64, 127
4, 123840, Note_on_c, 0, 30, 81
4, 123840, Note_on_c, 0, 42, 81
4, 127920, Control_c, 0, 64, 0
4, 128040, Note_on_c, 0, 42, 0
4, 128160, Note_on_c, 0, 30, 0
4, 128160, Note_on_c, 0, 30, 76
4, 128160, Note_on_c, 0, 42, 76
4, 128280, Control_c, 0, 64, 127
4, 130380, Note_on_c, 0, 42, 0
4, 132360, Control_c, 0, 64, 0
4, 132480, Note_on_c, 0, 30, 0
4, 132480, Note_on_c, 0, 35, 58
4, 132480, Note_on_c, 0, 47, 63
4, 133440, Note_on_c, 0, 47, 0
4, 133440, Note_on_c, 0, 35, 0
4, 142560, Control_c, 0, 64, 127
4, 142560, Note_on_c, 0, 59, 74
4, 146550, Control_c, 0, 64, 0
4, 146745, Note_on_c, 0, 59, 0
4, 149760, Note_on_c, 0, 28, 56
4, 149760, Note_on_c, 0, 40, 51
4, 151680, Note_on_c, 0, 40, 0
4, 151680, Note_on_c, 0, 28, 0
4, 151680, Note_on_c, 0, 53, 47
4, 151680, Note_on_c, 0, 61, 50
4, 152160, Note_on_c, 0, 61, 0
4, 152160, Note_on_c, 0, 56, 48
4, 152640, Note_on_c, 0, 56, 0
4, 152640, Note_on_c, 0, 53, 0
4, 152640, Note_on_c, 0, 54, 46
4, 152640, Note_on_c, 0, 59, 52
4, 154560, Note_on_c, 0, 59, 0
4, 154560, Note_on_c, 0, 54, 0
4, 154560, Note_on_c, 0, 47, 56
4, 154560, Note_on_c, 0, 51, 56
4, 155520, Note_on_c, 0, 51, 0
4, 155520, Note_on_c, 0, 47, 0
4, 155520, Note_on_c, 0, 40, 52
4, 155520, Note_on_c, 0, 47, 52
4, 157440, Note_on_c, 0, 47, 0
4, 157440, Note_on_c, 0, 40, 0
4, 157440, Note_on_c, 0, 49, 72
4, 157440, Note_on_c, 0, 56, 72
4, 157440, Note_on_c, 0, 58, 72
4, 158310, Note_on_c, 0, 56, 0
4, 158340, Note_on_c, 0, 58, 0
4, 158400, Note_on_c, 0, 49, 0
4, 158400, Note_on_c, 0, 51, 71
4, 158400, Note_on_c, 0, 56, 71
4, 158400, Note_on_c, 0, 59, 71
4, 159720, Note_on_c, 0, 51, 0
4, 160260, Note_on_c, 0, 56, 0
4, 161280, Note_on_c, 0, 59, 0
4, 163200, Note_on_c, 0, 56, 69
4, 164160, Note_on_c, 0, 56, 0
4, 164160, Note_on_c, 0, 54, 65
4, 164160, Note_on_c, 0, 63, 65
4, 164160, Note_on_c, 0, 66, 65
4, 165030, Note_on_c, 0, 66, 0
4, 166000, Note_on_c, 0, 54, 0
4, 166080, Note_on_c, 0, 63, 0
4, 166080, Note_on_c, 0, 42, 48
4, 166080, Note_on_c, 0, 54, 48
4, 166980, Note_on_c, 0, 42, 0
4, 167040, Note_on_c, 0, 54, 0
4, 167040, Note_on_c, 0, 42, 48
4, 167040, Note_on_c, 0, 52, 48
4, 168880, Note_on_c, 0, 42, 0
4, 168960, Note_on_c, 0, 52, 0
4, 168960, Note_on_c, 0, 42, 44
4, 168960, Note_on_c, 0, 49, 44
4, 169920, Note_on_c, 0, 49, 0
4, 169920, Note_on_c, 0, 42, 0
4, 169920, Note_on_c, 0, 35, 40
4, 169920, Note_on_c, 0, 47, 40
4, 170880, Note_on_c, 0, 47, 0
4, 170880, Note_on_c, 0, 35, 0
4, 172830, Note_on_c, 0, 40, 81
4, 174420, Note_on_c, 0, 53, 81
4, 174525, Note_on_c, 0, 56, 85
4, 174600, Note_on_c, 0, 59, 88
4, 174750, Note_on_c, 0, 40, 0
4, 175380, Note_on_c, 0, 53, 0
4, 175485, Note_on_c, 0, 56, 0
4, 175560, Note_on_c, 0, 59, 0
4, 175680, Note_on_c, 0, 54, 81
4, 176265, Note_on_c, 0, 54, 0
4, 177540, Note_on_c, 0, 35, 79
4, 178500, Note_on_c, 0, 35, 0
4, 178560, Note_on_c, 0, 40, 81
4, 180960, Note_on_c, 0, 40, 0
4, 180960, Note_on_c, 0, 52, 77
4, 180960, Note_on_c, 0, 56, 77
4, 181440, Note_on_c, 0, 56, 0
4, 181440, Note_on_c, 0, 52, 0
4, 181440, Note_on_c, 0, 45, 79
4, 181440, Note_on_c, 0, 52, 79
4, 181440, Note_on_c, 0, 57, 79
4, 182280, Note_on_c, 0, 37, 42
4, 182400, Note_on_c, 0, 57, 0
4, 182400, Note_on_c, 0, 45, 0
4, 182400, Note_on_c, 0, 52, 0
4, 182400, Note_on_c, 0, 53, 38
4, 183240, Note_on_c, 0, 37, 0
4, 183360, Note_on_c, 0, 53, 0
4, 183360, Note_on_c, 0, 42, 40
4, 183360, Note_on_c, 0, 49, 40
4, 183360, Note_on_c, 0, 54, 40
4, 184320, Note_on_c, 0, 54, 0
4, 184320, Note_on_c, 0, 49, 0
4, 184320, Note_on_c, 0, 42, 0
4, 184320, Note_on_c, 0, 57, 71
4, 186228, Note_on_c, 0, 57, 0
4, 186240, Note_on_c, 0, 57, 67
4, 186240, Note_on_c, 0, 59, 67
4, 186240, Note_on_c, 0, 63, 67
4, 186660, Note_on_c, 0, 63, 0
4, 187200, Note_on_c, 0, 59, 0
4, 187200, Note_on_c, 0, 57, 0
4, 187200, Note_on_c, 0, 56, 50
4, 189000, Note_on_c, 0, 49, 44
4, 189120, Note_on_c, 0, 56, 0
4, 189960, Note_on_c, 0, 49, 0
4, 190080, Note_on_c, 0, 57, 42
4, 190080, Note_on_c, 0, 61, 42
4, 192000, Note_on_c, 0, 61, 0
4, 192000, Note_on_c, 0, 57, 0
4, 192000, Note_on_c, 0, 35, 38
4, 192000, Note_on_c, 0, 47, 38
4, 192960, Note_on_c, 0, 47, 0
4, 192960, Note_on_c, 0, 35, 0
4, 192960, Note_on_c, 0, 28, 34
4, 192960, Note_on_c, 0, 40, 34
4, 195840, Note_on_c, 0, 40, 0
4, 195840, Note_on_c, 0, 28, 0
4, 213120, Note_on_c, 0, 61, 47
4, 213600, Note_on_c, 0, 61, 0
4, 213600, Note_on_c, 0, 70, 48
4, 214080, Note_on_c, 0, 70, 0
4, 214080, Note_on_c, 0, 66, 53
4, 214560, Note_on_c, 0, 66, 0
4, 214560, Note_on_c, 0, 63, 53
4, 215040, Note_on_c, 0, 63, 0
4, 215040, Note_on_c, 0, 71, 54
4, 215520, Note_on_c, 0, 71, 0
4, 215520, Note_on_c, 0, 66, 55
4, 216000, Note_on_c, 0, 66, 0
4, 216000, Note_on_c, 0, 64, 52
4, 216480, Note_on_c, 0, 64, 0
4, 216480, Note_on_c, 0, 73, 48
4, 216960, Note_on_c, 0, 73, 0
4, 216960, Note_on_c, 0, 68, 49
4, 217440, Note_on_c, 0, 68, 0
4, 217440, Note_on_c, 0, 66, 57
4, 217920, Note_on_c, 0, 66, 0
4, 217920, Note_on_c, 0, 75, 56
4, 218400, Note_on_c, 0, 75, 0
4, 218400, Note_on_c, 0, 70, 49
4, 218880, Note_on_c, 0, 70, 0
4, 218880, Note_on_c, 0, 68, 56
4, 219360, Note_on_c, 0, 68, 0
4, 219360, Note_on_c, 0, 76, 59
4, 219840, Note_on_c, 0, 76, 0
4, 219840, Note_on_c, 0, 71, 60
4, 220320, Note_on_c, 0, 71, 0
4, 220320, Note_on_c, 0, 70, 62
4, 220800, Note_on_c, 0, 70, 0
4, 220800, Note_on_c, 0, 78, 54
4, 221280, Note_on_c, 0, 78, 0
4, 221280, Note_on_c, 0, 73, 55
4, 221760, Note_on_c, 0, 73, 0
4, 221760, Note_on_c, 0, 71, 61
4, 222240, Note_on_c, 0, 71, 0
4, 222240, Note_on_c, 0, 78, 56
4, 222720, Note_on_c, 0, 78, 0
4, 222720, Note_on_c, 0, 75, 56
4, 223200, Note_on_c, 0, 75, 0
4, 223200, Note_on_c, 0, 68, 55
4, 223680, Note_on_c, 0, 68, 0
4, 223680, Note_on_c, 0, 75, 56
4, 224160, Note_on_c, 0, 75, 0
4, 224160, Note_on_c, 0, 71, 57
4, 224640, Note_on_c, 0, 71, 0
4, 224640, Note_on_c, 0, 61, 58
4, 225120, Note_on_c, 0, 61, 0
4, 225120, Note_on_c, 0, 71, 57
4, 225600, Note_on_c, 0, 71, 0
4, 225600, Note_on_c, 0, 68, 54
4, 226080, Note_on_c, 0, 68, 0
4, 226080, Note_on_c, 0, 66, 59
4, 226560, Note_on_c, 0, 66, 0
4, 226560, Note_on_c, 0, 73, 51
4, 227040, Note_on_c, 0, 73, 0
4, 227040, Note_on_c, 0, 61, 59
4, 227520, Note_on_c, 0, 61, 0
4, 227520, Note_on_c, 0, 70, 57
4, 228000, Note_on_c, 0, 70, 0
4, 228000, Note_on_c, 0, 54, 57
4, 228480, Note_on_c, 0, 54, 0
4, 230880, Note_on_c, 0, 49, 69
4, 231360, Note_on_c, 0, 42, 75
4, 231480, Note_on_c, 0, 49, 0
4, 231840, Note_on_c, 0, 42, 0
4, 232320, Note_on_c, 0, 49, 71
4, 232800, Note_on_c, 0, 42, 69
4, 232920, Note_on_c, 0, 49, 0
4, 233280, Note_on_c, 0, 42, 0
4, 233760, Note_on_c, 0, 49, 72
4, 234240, Note_on_c, 0, 42, 68
4, 234360, Note_on_c, 0, 49, 0
4, 234720, Note_on_c, 0, 42, 0
4, 235200, Note_on_c, 0, 54, 67
4, 235680, Note_on_c, 0, 54, 0
4, 235680, Note_on_c, 0, 35, 68
4, 236160, Note_on_c, 0, 35, 0
4, 236640, Note_on_c, 0, 55, 77
4, 237120, Note_on_c, 0, 55, 0
4, 237120, Note_on_c, 0, 47, 68
4, 237600, Note_on_c, 0, 47, 0
4, 238080, Note_on_c, 0, 54, 75
4, 238560, Note_on_c, 0, 54, 0
4, 238560, Note_on_c, 0, 47, 68
4, 239040, Note_on_c, 0, 47, 0
4, 239520, Note_on_c, 0, 55, 71
4, 240000, Note_on_c, 0, 47, 70
4, 240120, Note_on_c, 0, 55, 0
4, 240480, Note_on_c, 0, 47, 0
4, 240960, Note_on_c, 0, 55, 70
4, 241440, Note_on_c, 0, 47, 73
4, 241560, Note_on_c, 0, 55, 0
4, 241920, Note_on_c, 0, 47, 0
4, 242400, Note_on_c, 0, 50, 77
4, 242880, Note_on_c, 0, 43, 76
4, 243000, Note_on_c, 0, 50, 0
4, 243360, Note_on_c, 0, 43, 0
4, 243840, Note_on_c, 0, 43, 68
4, 244320, Note_on_c, 0, 36, 68
4, 244440, Note_on_c, 0, 43, 0
4, 244800, Note_on_c, 0, 36, 0
4, 245280, Note_on_c, 0, 56, 72
4, 245760, Note_on_c, 0, 48, 69
4, 245880, Note_on_c, 0, 56, 0
4, 246360, Note_on_c, 0, 48, 0
4, 246720, Note_on_c, 0, 56, 73
4, 247200, Note_on_c, 0, 48, 69
4, 247320, Note_on_c, 0, 56, 0
4, 247680, Note_on_c, 0, 48, 0
4, 248160, Note_on_c, 0, 64, 80
4, 248640, Note_on_c, 0, 58, 78
4, 248760, Note_on_c, 0, 64, 0
4, 249120, Note_on_c, 0, 58, 0
4, 249600, Note_on_c, 0, 63, 74
4, 250080, Note_on_c, 0, 59, 79
4, 250200, Note_on_c, 0, 63, 0
4, 250560, Note_on_c, 0, 59, 0
4, 251040, Note_on_c, 0, 63, 73
4, 251520, Note_on_c, 0, 59, 73
4, 251640, Note_on_c, 0, 63, 0
4, 252000, Note_on_c, 0, 59, 0
4, 252480, Note_on_c, 0, 62, 81
4, 252960, Note_on_c, 0, 59, 75
4, 253080, Note_on_c, 0, 62, 0
4, 253440, Note_on_c, 0, 59, 0
4, 253920, Note_on_c, 0, 65, 83
4, 254400, Note_on_c, 0, 62, 75
4, 254520, Note_on_c, 0, 65, 0
4, 254880, Note_on_c, 0, 62, 0
4, 255360, Note_on_c, 0, 68, 82
4, 255840, Note_on_c, 0, 65, 73
4, 255960, Note_on_c, 0, 68, 0
4, 256320, Note_on_c, 0, 65, 0
4, 299520, Note_on_c, 0, 28, 42
4, 299520, Note_on_c, 0, 40, 47
4, 301440, Note_on_c, 0, 40, 0
4, 301440, Note_on_c, 0, 28, 0
4, 301440, Note_on_c, 0, 53, 66
4, 301440, Note_on_c, 0, 61, 65
4, 301920, Note_on_c, 0, 61, 0
4, 301920, Note_on_c, 0, 56, 68
4, 302400, Note_on_c, 0, 56, 0
4, 302400, Note_on_c, 0, 53, 0
4, 302400, Note_on_c, 0, 54, 64
4, 302400, Note_on_c, 0, 59, 65
4, 304320, Note_on_c, 0, 59, 0
4, 304320, Note_on_c, 0, 54, 0
4, 304320, Note_on_c, 0, 35, 74
4, 304320, Note_on_c, 0, 47, 67
4, 305268, Note_on_c, 0, 47, 0
4, 305280, Note_on_c, 0, 35, 0
4, 305280, Note_on_c, 0, 40, 66
4, 305280, Note_on_c, 0, 47, 66
4, 307200, Note_on_c, 0, 47, 0
4, 307200, Note_on_c, 0, 40, 0
4, 307200, Note_on_c, 0, 49, 72
4, 307200, Note_on_c, 0, 56, 72
4, 307200, Note_on_c, 0, 58, 72
4, 308148, Note_on_c, 0, 56, 0
4, 308160, Note_on_c, 0, 58, 0
4, 308160, Note_on_c, 0, 49, 0
4, 308160, Note_on_c, 0, 51, 75
4, 308160, Note_on_c, 0, 56, 75
4, 308160, Note_on_c, 0, 59, 75
4, 311040, Note_on_c, 0, 59, 0
4, 311040, Note_on_c, 0, 56, 0
4, 311040, Note_on_c, 0, 51, 0
4, 312960, Note_on_c, 0, 56, 80
4, 313920, Note_on_c, 0, 56, 0
4, 313920, Note_on_c, 0, 54, 76
4, 313920, Note_on_c, 0, 63, 76
4, 313920, Note_on_c, 0, 66, 76
4, 314815, Note_on_c, 0, 66, 0
4, 315820, Note_on_c, 0, 54, 0
4, 315840, Note_on_c, 0, 63, 0
4, 315840, Note_on_c, 0, 42, 70
4, 315840, Note_on_c, 0, 54, 70
4, 316720, Note_on_c, 0, 42, 0
4, 316800, Note_on_c, 0, 54, 0
4, 316800, Note_on_c, 0, 42, 67
4, 316800, Note_on_c, 0, 52, 67
4, 318660, Note_on_c, 0, 42, 0
4, 318720, Note_on_c, 0, 52, 0
4, 318720, Note_on_c, 0, 42, 73
4, 318720, Note_on_c, 0, 49, 74
4, 319680, Note_on_c, 0, 49, 0
4, 319680, Note_on_c, 0, 42, 0
4, 319680, Note_on_c, 0, 35, 70
4, 319680, Note_on_c, 0, 47, 81
4, 320640, Note_on_c, 0, 47, 0
4, 320640, Note_on_c, 0, 35, 0
4, 322380, Note_on_c, 0, 28, 72
4, 322440, Note_on_c, 0, 28, 0
4, 322440, Note_on_c, 0, 40, 71
4, 322500, Note_on_c, 0, 40, 0
4, 322570, Note_on_c, 0, 40, 87
4, 324250, Note_on_c, 0, 53, 92
4, 324310, Note_on_c, 0, 56, 85
4, 324370, Note_on_c, 0, 59, 88
4, 324490, Note_on_c, 0, 40, 0
4, 325210, Note_on_c, 0, 53, 0
4, 325270, Note_on_c, 0, 56, 0
4, 325330, Note_on_c, 0, 59, 0
4, 325450, Note_on_c, 0, 54, 92
4, 326035, Note_on_c, 0, 54, 0
4, 327250, Note_on_c, 0, 35, 85
4, 328210, Note_on_c, 0, 35, 0
4, 328330, Note_on_c, 0, 40, 105
4, 331200, Note_on_c, 0, 45, 87
4, 331200, Note_on_c, 0, 52, 87
4, 331200, Note_on_c, 0, 57, 87
4, 331210, Note_on_c, 0, 40, 0
4, 332040, Note_on_c, 0, 37, 38
4, 332160, Note_on_c, 0, 45, 0
4, 332160, Note_on_c, 0, 57, 0
4, 332160, Note_on_c, 0, 52, 0
4, 332160, Note_on_c, 0, 53, 38
4, 333000, Note_on_c, 0, 37, 0
4, 333120, Note_on_c, 0, 53, 0
4, 333120, Note_on_c, 0, 42, 46
4, 333120, Note_on_c, 0, 49, 38
4, 333120, Note_on_c, 0, 54, 35
4, 334080, Note_on_c, 0, 54, 0
4, 334080, Note_on_c, 0, 49, 0
4, 334080, Note_on_c, 0, 42, 0
4, 334080, Note_on_c, 0, 57, 74
4, 335880, Note_on_c, 0, 57, 0
4, 336000, Note_on_c, 0, 57, 74
4, 336000, Note_on_c, 0, 59, 79
4, 336000, Note_on_c, 0, 63, 70
4, 336435, Note_on_c, 0, 63, 0
4, 336960, Note_on_c, 0, 59, 0
4, 336960, Note_on_c, 0, 57, 0
4, 336960, Note_on_c, 0, 56, 77
4, 338760, Note_on_c, 0, 49, 73
4, 338880, Note_on_c, 0, 56, 0
4, 339720, Note_on_c, 0, 49, 0
4, 339840, Note_on_c, 0, 57, 60
4, 339840, Note_on_c, 0, 61, 60
4, 341760, Note_on_c, 0, 61, 0
4, 341760, Note_on_c, 0, 57, 0
4, 341760, Note_on_c, 0, 35, 46
4, 341760, Note_on_c, 0, 47, 53
4, 342720, Note_on_c, 0, 47, 0
4, 342720, Note_on_c, 0, 35, 0
4, 342720, Note_on_c, 0, 28, 50
4, 342720, Note_on_c, 0, 40, 56
4, 345600, Note_on_c, 0, 40, 0
4, 345600, Note_on_c, 0, 28, 0
4, 345600, End_track
5, 0, Start_track
5, 0, Title_t, "Piano"
5, 0, Control_c, 0, 7, 105
5, 0, Control_c, 0, 10, 54
5, 0, Control_c, 0, 91, 100
5, 8710, Control_c, 0, 121, 0
5, 9120, Note_on_c, 0, 32, 66
5, 9600, Note_on_c, 0, 44, 67
5, 10080, Note_on_c, 0, 51, 75
5, 10200, Note_on_c, 0, 44, 0
5, 10560, Note_on_c, 0, 56, 75
5, 10680, Note_on_c, 0, 51, 0
5, 11040, Note_on_c, 0, 56, 0
5, 11040, Note_on_c, 0, 63, 77
5, 11520, Note_on_c, 0, 63, 0
5, 11520, Note_on_c, 0, 32, 0
5, 11520, Note_on_c, 0, 68, 85
5, 11840, Note_on_c, 0, 67, 77
5, 11960, Note_on_c, 0, 68, 0
5, 12160, Note_on_c, 0, 68, 83
5, 12280, Note_on_c, 0, 67, 0
5, 12480, Note_on_c, 0, 63, 73
5, 12600, Note_on_c, 0, 68, 0
5, 12960, Note_on_c, 0, 63, 0
5, 12960, Note_on_c, 0, 63, 65
5, 13440, Note_on_c, 0, 64, 65
5, 13560, Note_on_c, 0, 63, 0
5, 13920, Note_on_c, 0, 65, 71
5, 14040, Note_on_c, 0, 64, 0
5, 14520, Note_on_c, 0, 65, 0
5, 23040, Note_on_c, 0, 46, 39
5, 23360, Note_on_c, 0, 47, 53
5, 23480, Note_on_c, 0, 46, 0
5, 23680, Note_on_c, 0, 52, 49
5, 23800, Note_on_c, 0, 47, 0
5, 24000, Note_on_c, 0, 56, 47
5, 24120, Note_on_c, 0, 52, 0
5, 24480, Note_on_c, 0, 59, 49
5, 24600, Note_on_c, 0, 56, 0
5, 24960, Note_on_c, 0, 59, 0
5, 24960, Note_on_c, 0, 63, 43
5, 25648, Note_on_c, 0, 63, 0
5, 25680, Note_on_c, 0, 61, 46
5, 25920, Note_on_c, 0, 61, 0
5, 25980, Note_on_c, 0, 61, 47
5, 26240, Note_on_c, 0, 57, 43
5, 26420, Note_on_c, 0, 61, 0
5, 26560, Note_on_c, 0, 54, 51
5, 26680, Note_on_c, 0, 57, 0
5, 26880, Note_on_c, 0, 51, 48
5, 27000, Note_on_c, 0, 54, 0
5, 27360, Note_on_c, 0, 49, 43
5, 27480, Note_on_c, 0, 51, 0
5, 27840, Note_on_c, 0, 49, 0
5, 27840, Note_on_c, 0, 48, 48
5, 28320, Note_on_c, 0, 47, 57
5, 28440, Note_on_c, 0, 48, 0
5, 28800, Note_on_c, 0, 47, 0
5, 28800, Note_on_c, 0, 50, 55
5, 29120, Note_on_c, 0, 52, 51
5, 29240, Note_on_c, 0, 50, 0
5, 29440, Note_on_c, 0, 56, 51
5, 29560, Note_on_c, 0, 52, 0
5, 29760, Note_on_c, 0, 59, 52
5, 29880, Note_on_c, 0, 56, 0
5, 30240, Note_on_c, 0, 62, 50
5, 30360, Note_on_c, 0, 59, 0
5, 30720, Note_on_c, 0, 68, 52
5, 30840, Note_on_c, 0, 62, 0
5, 31200, Note_on_c, 0, 68, 0
5, 34560, Note_on_c, 0, 59, 45
5, 34880, Note_on_c, 0, 61, 45
5, 35000, Note_on_c, 0, 59, 0
5, 35200, Note_on_c, 0, 63, 46
5, 35320, Note_on_c, 0, 61, 0
5, 35520, Note_on_c, 0, 61, 44
5, 35640, Note_on_c, 0, 63, 0
5, 36000, Note_on_c, 0, 68, 46
5, 36120, Note_on_c, 0, 61, 0
5, 36480, Note_on_c, 0, 68, 0
5, 36480, Note_on_c, 0, 66, 46
5, 36960, Note_on_c, 0, 63, 47
5, 37080, Note_on_c, 0, 66, 0
5, 37440, Note_on_c, 0, 63, 0
5, 37440, Note_on_c, 0, 58, 57
5, 37760, Note_on_c, 0, 59, 63
5, 37880, Note_on_c, 0, 58, 0
5, 38080, Note_on_c, 0, 61, 57
5, 38200, Note_on_c, 0, 59, 0
5, 38400, Note_on_c, 0, 59, 62
5, 38520, Note_on_c, 0, 61, 0
5, 38880, Note_on_c, 0, 66, 59
5, 39000, Note_on_c, 0, 59, 0
5, 39360, Note_on_c, 0, 66, 0
5, 39360, Note_on_c, 0, 64, 57
5, 39840, Note_on_c, 0, 52, 56
5, 39960, Note_on_c, 0, 64, 0
5, 40320, Note_on_c, 0, 52, 0
5, 158880, Note_on_c, 0, 32, 65
5, 159360, Note_on_c, 0, 44, 74
5, 159840, Note_on_c, 0, 51, 70
5, 159960, Note_on_c, 0, 44, 0
5, 160320, Note_on_c, 0, 56, 66
5, 160440, Note_on_c, 0, 51, 0
5, 160800, Note_on_c, 0, 63, 68
5, 160920, Note_on_c, 0, 56, 0
5, 161280, Note_on_c, 0, 63, 0
5, 161280, Note_on_c, 0, 68, 64
5, 161600, Note_on_c, 0, 67, 72
5, 161720, Note_on_c, 0, 68, 0
5, 161920, Note_on_c, 0, 68, 70
5, 162040, Note_on_c, 0, 67, 0
5, 162240, Note_on_c, 0, 63, 67
5, 162360, Note_on_c, 0, 68, 0
5, 162720, Note_on_c, 0, 63, 0
5, 162720, Note_on_c, 0, 63, 65
5, 163200, Note_on_c, 0, 32, 0
5, 163200, Note_on_c, 0, 64, 73
5, 163680, Note_on_c, 0, 63, 0
5, 163680, Note_on_c, 0, 65, 73
5, 164160, Note_on_c, 0, 64, 0
5, 164640, Note_on_c, 0, 65, 0
5, 172538, Note_on_c, 0, 28, 67
5, 172665, Note_on_c, 0, 40, 73
5, 172725, Note_on_c, 0, 40, 0
5, 172800, Note_on_c, 0, 46, 83
5, 173048, Note_on_c, 0, 28, 0
5, 173120, Note_on_c, 0, 47, 88
5, 173240, Note_on_c, 0, 46, 0
5, 173440, Note_on_c, 0, 52, 86
5, 173560, Note_on_c, 0, 47, 0
5, 173760, Note_on_c, 0, 56, 87
5, 173880, Note_on_c, 0, 52, 0
5, 174240, Note_on_c, 0, 59, 82
5, 174360, Note_on_c, 0, 56, 0
5, 174570, Note_on_c, 0, 59, 0
5, 174720, Note_on_c, 0, 63, 84
5, 175420, Note_on_c, 0, 61, 81
5, 175560, Note_on_c, 0, 63, 0
5, 175660, Note_on_c, 0, 61, 0
5, 175680, Note_on_c, 0, 61, 83
5, 176000, Note_on_c, 0, 57, 80
5, 176120, Note_on_c, 0, 61, 0
5, 176320, Note_on_c, 0, 54, 77
5, 176440, Note_on_c, 0, 57, 0
5, 176640, Note_on_c, 0, 51, 87
5, 176760, Note_on_c, 0, 54, 0
5, 177120, Note_on_c, 0, 49, 85
5, 177240, Note_on_c, 0, 51, 0
5, 177600, Note_on_c, 0, 49, 0
5, 177600, Note_on_c, 0, 48, 80
5, 178080, Note_on_c, 0, 47, 77
5, 178200, Note_on_c, 0, 48, 0
5, 178560, Note_on_c, 0, 47, 0
5, 178560, Note_on_c, 0, 50, 85
5, 178880, Note_on_c, 0, 52, 81
5, 179000, Note_on_c, 0, 50, 0
5, 179200, Note_on_c, 0, 56, 79
5, 179320, Note_on_c, 0, 52, 0
5, 179520, Note_on_c, 0, 59, 78
5, 179640, Note_on_c, 0, 56, 0
5, 180000, Note_on_c, 0, 62, 83
5, 180120, Note_on_c, 0, 59, 0
5, 180480, Note_on_c, 0, 68, 83
5, 180600, Note_on_c, 0, 62, 0
5, 180960, Note_on_c, 0, 68, 0
5, 184320, Note_on_c, 0, 59, 69
5, 184640, Note_on_c, 0, 61, 66
5, 184760, Note_on_c, 0, 59, 0
5, 184960, Note_on_c, 0, 63, 63
5, 185080, Note_on_c, 0, 61, 0
5, 185280, Note_on_c, 0, 61, 65
5, 185400, Note_on_c, 0, 63, 0
5, 185760, Note_on_c, 0, 68, 66
5, 185880, Note_on_c, 0, 61, 0
5, 186240, Note_on_c, 0, 68, 0
5, 186240, Note_on_c, 0, 66, 69
5, 186720, Note_on_c, 0, 63, 71
5, 186840, Note_on_c, 0, 66, 0
5, 187200, Note_on_c, 0, 63, 0
5, 187200, Note_on_c, 0, 58, 57
5, 187520, Note_on_c, 0, 59, 57
5, 187640, Note_on_c, 0, 58, 0
5, 187840, Note_on_c, 0, 61, 57
5, 187960, Note_on_c, 0, 59, 0
5, 188160, Note_on_c, 0, 59, 57
5, 188280, Note_on_c, 0, 61, 0
5, 188640, Note_on_c, 0, 66, 55
5, 188760, Note_on_c, 0, 59, 0
5, 189120, Note_on_c, 0, 66, 0
5, 189120, Note_on_c, 0, 64, 51
5, 189600, Note_on_c, 0, 56, 50
5, 189720, Note_on_c, 0, 64, 0
5, 190080, Note_on_c, 0, 56, 0
5, 213120, Note_on_c, 0, 61, 44
5, 214560, Note_on_c, 0, 61, 0
5, 214560, Note_on_c, 0, 63, 48
5, 216000, Note_on_c, 0, 63, 0
5, 216000, Note_on_c, 0, 64, 53
5, 217440, Note_on_c, 0, 64, 0
5, 217440, Note_on_c, 0, 66, 49
5, 218880, Note_on_c, 0, 66, 0
5, 218880, Note_on_c, 0, 68, 51
5, 220320, Note_on_c, 0, 68, 0
5, 220320, Note_on_c, 0, 70, 48
5, 221760, Note_on_c, 0, 70, 0
5, 221760, Note_on_c, 0, 71, 57
5, 223200, Note_on_c, 0, 71, 0
5, 223200, Note_on_c, 0, 68, 49
5, 224640, Note_on_c, 0, 68, 0
5, 224640, Note_on_c, 0, 61, 51
5, 226080, Note_on_c, 0, 61, 0
5, 234720, Note_on_c, 0, 63, 45
5, 236160, Note_on_c, 0, 63, 0
5, 236160, Note_on_c, 0, 62, 57
5, 237600, Note_on_c, 0, 62, 0
5, 237600, Note_on_c, 0, 63, 54
5, 239040, Note_on_c, 0, 63, 0
5, 243360, Note_on_c, 0, 52, 71
5, 244800, Note_on_c, 0, 52, 0
5, 244800, Note_on_c, 0, 63, 67
5, 246240, Note_on_c, 0, 63, 0
5, 246240, Note_on_c, 0, 64, 67
5, 247680, Note_on_c, 0, 64, 0
5, 247680, Note_on_c, 0, 49, 71
5, 249120, Note_on_c, 0, 49, 0
5, 249120, Note_on_c, 0, 51, 69
5, 250560, Note_on_c, 0, 51, 0
5, 250560, Note_on_c, 0, 54, 73
5, 252000, Note_on_c, 0, 54, 0
5, 252000, Note_on_c, 0, 53, 79
5, 253440, Note_on_c, 0, 53, 0
5, 253440, Note_on_c, 0, 56, 77
5, 254880, Note_on_c, 0, 56, 0
5, 254880, Note_on_c, 0, 59, 77
5, 256320, Note_on_c, 0, 59, 0
5, 256320, Note_on_c, 0, 42, 71
5, 256320, Note_on_c, 0, 54, 71
5, 258720, Note_on_c, 0, 54, 0
5, 258720, Note_on_c, 0, 42, 0
5, 267840, Note_on_c, 0, 30, 89
5, 267840, Note_on_c, 0, 42, 89
5, 273600, Note_on_c, 0, 42, 0
5, 273600, Note_on_c, 0, 30, 0
5, 273600, Note_on_c, 0, 30, 89
5, 273600, Note_on_c, 0, 42, 89
5, 277920, Note_on_c, 0, 42, 0
5, 277920, Note_on_c, 0, 30, 0
5, 277920, Note_on_c, 0, 30, 85
5, 277920, Note_on_c, 0, 42, 85
5, 282240, Note_on_c, 0, 42, 0
5, 282240, Note_on_c, 0, 30, 0
5, 282240, Note_on_c, 0, 35, 87
5, 282240, Note_on_c, 0, 47, 87
5, 283200, Note_on_c, 0, 47, 0
5, 283200, Note_on_c, 0, 35, 0
5, 292320, Note_on_c, 0, 59, 85
5, 296550, Note_on_c, 0, 59, 0
5, 308640, Note_on_c, 0, 32, 88
5, 309120, Note_on_c, 0, 44, 87
5, 309600, Note_on_c, 0, 51, 81
5, 309840, Note_on_c, 0, 44, 0
5, 310080, Note_on_c, 0, 56, 84
5, 310320, Note_on_c, 0, 51, 0
5, 310560, Note_on_c, 0, 56, 0
5, 310560, Note_on_c, 0, 63, 87
5, 311040, Note_on_c, 0, 63, 0
5, 311040, Note_on_c, 0, 68, 78
5, 311360, Note_on_c, 0, 67, 83
5, 311600, Note_on_c, 0, 68, 0
5, 311680, Note_on_c, 0, 68, 81
5, 311920, Note_on_c, 0, 67, 0
5, 312000, Note_on_c, 0, 63, 82
5, 312240, Note_on_c, 0, 68, 0
5, 312453, Note_on_c, 0, 63, 0
5, 312480, Note_on_c, 0, 63, 86
5, 312960, Note_on_c, 0, 64, 82
5, 313200, Note_on_c, 0, 63, 0
5, 313440, Note_on_c, 0, 65, 80
5, 313740, Note_on_c, 0, 64, 0
5, 313920, Note_on_c, 0, 32, 0
5, 314280, Note_on_c, 0, 65, 0
5, 322570, Note_on_c, 0, 46, 93
5, 322890, Note_on_c, 0, 47, 86
5, 323130, Note_on_c, 0, 46, 0
5, 323210, Note_on_c, 0, 52, 87
5, 323450, Note_on_c, 0, 47, 0
5, 323530, Note_on_c, 0, 56, 91
5, 323770, Note_on_c, 0, 52, 0
5, 324010, Note_on_c, 0, 59, 87
5, 324250, Note_on_c, 0, 56, 0
5, 324315, Note_on_c, 0, 59, 0
5, 324490, Note_on_c, 0, 63, 87
5, 325150, Note_on_c, 0, 63, 0
5, 325210, Note_on_c, 0, 61, 87
5, 325450, Note_on_c, 0, 61, 0
5, 325450, Note_on_c, 0, 61, 88
5, 325770, Note_on_c, 0, 57, 90
5, 326010, Note_on_c, 0, 61, 0
5, 326090, Note_on_c, 0, 54, 90
5, 326330, Note_on_c, 0, 57, 0
5, 326410, Note_on_c, 0, 51, 88
5, 326650, Note_on_c, 0, 54, 0
5, 326890, Note_on_c, 0, 49, 95
5, 327130, Note_on_c, 0, 51, 0
5, 327370, Note_on_c, 0, 49, 0
5, 327370, Note_on_c, 0, 48, 84
5, 327850, Note_on_c, 0, 47, 95
5, 328090, Note_on_c, 0, 48, 0
5, 328330, Note_on_c, 0, 47, 0
5, 328330, Note_on_c, 0, 50, 84
5, 328650, Note_on_c, 0, 52, 89
5, 328890, Note_on_c, 0, 50, 0
5, 328970, Note_on_c, 0, 56, 93
5, 329210, Note_on_c, 0, 52, 0
5, 329290, Note_on_c, 0, 59, 84
5, 329530, Note_on_c, 0, 56, 0
5, 329770, Note_on_c, 0, 62, 90
5, 330010, Note_on_c, 0, 59, 0
5, 330250, Note_on_c, 0, 62, 0
5, 330250, Note_on_c, 0, 68, 87
5, 330970, Note_on_c, 0, 68, 0
5, 334080, Note_on_c, 0, 60, 80
5, 334400, Note_on_c, 0, 61, 76
5, 334640, Note_on_c, 0, 60, 0
5, 334720, Note_on_c, 0, 63, 73
5, 334960, Note_on_c, 0, 61, 0
5, 335040, Note_on_c, 0, 61, 70
5, 335280, Note_on_c, 0, 63, 0
5, 335520, Note_on_c, 0, 68, 73
5, 335760, Note_on_c, 0, 61, 0
5, 336000, Note_on_c, 0, 68, 0
5, 336000, Note_on_c, 0, 66, 70
5, 336480, Note_on_c, 0, 63, 73
5, 336720, Note_on_c, 0, 66, 0
5, 336960, Note_on_c, 0, 63, 0
5, 336960, Note_on_c, 0, 58, 60
5, 337280, Note_on_c, 0, 59, 63
5, 337520, Note_on_c, 0, 58, 0
5, 337600, Note_on_c, 0, 61, 58
5, 337840, Note_on_c, 0, 59, 0
5, 337920, Note_on_c, 0, 59, 59
5, 338160, Note_on_c, 0, 61, 0
5, 338400, Note_on_c, 0, 66, 56
5, 338640, Note_on_c, 0, 59, 0
5, 338880, Note_on_c, 0, 66, 0
5, 338880, Note_on_c, 0, 64, 67
5, 339360, Note_on_c, 0, 56, 59
5, 339600, Note_on_c, 0, 64, 0
5, 339840, Note_on_c, 0, 56, 0
5, 342720, Control_c, 0, 64, 127
5, 343380, Note_on_c, 0, 52, 40
5, 343440, Note_on_c, 0, 59, 38
5, 343500, Note_on_c, 0, 64, 41
5, 345300, Note_on_c, 0, 52, 0
5, 345360, Note_on_c, 0, 59, 0
5, 345420, Note_on_c, 0, 64, 0
5, 346500, Control_c, 0, 64, 0
5, 346500, End_track
0, 0, End_of_file
