0, 0, Header, 0, 1, 480
1, 0, Start_track
1, 0, Title_t, "Guitare (Caprice) Op. 32"
1, 0, Text_t, "Cecile Chaminade"
1, 0, Time_signature, 4, 2, 24, 8
1, 0, Key_signature, 0, "major"
1, 0, Tempo, 500000
1, 0, Program_c, 0, 0
1, 0, Control_c, 0, 7, 115
1, 0, Control_c, 0, 91, 100
1, 0, Control_c, 0, 11, 110
1, 1007, Control_c, 0, 67, 127
1, 1292, Note_on_c, 0, 40, 48
1, 1312, Note_on_c, 0, 47, 48
1, 1395, Control_c, 0, 64, 127
1, 1397, Note_on_c, 0, 47, 0
1, 1400, Note_on_c, 0, 40, 0
1, 1800, Note_on_c, 0, 59, 47
1, 1800, Note_on_c, 0, 52, 48
1, 1800, Note_on_c, 0, 55, 48
1, 1862, Note_on_c, 0, 59, 0
1, 1865, Note_on_c, 0, 55, 0
1, 1865, Note_on_c, 0, 52, 0
1, 2110, Note_on_c, 0, 59, 53
1, 2112, Note_on_c, 0, 55, 60
1, 2135, Note_on_c, 0, 64, 64
1, 2172, Note_on_c, 0, 55, 0
1, 2197, Note_on_c, 0, 59, 0
1, 2197, Control_c, 0, 64, 0
1, 2220, Note_on_c, 0, 64, 0
1, 2625, Note_on_c, 0, 59, 55
1, 2630, Note_on_c, 0, 52, 48
1, 2640, Control_c, 0, 64, 127
1, 2655, Note_on_c, 0, 55, 48
1, 2692, Note_on_c, 0, 52, 0
1, 2712, Note_on_c, 0, 55, 0
1, 2745, Note_on_c, 0, 59, 0
1, 2752, Control_c, 0, 64, 0
1, 2982, Note_on_c, 0, 50, 48
1, 2985, Note_on_c, 0, 43, 48
1, 3042, Note_on_c, 0, 50, 0
1, 3047, Note_on_c, 0, 43, 0
1, 3070, Control_c, 0, 64, 127
1, 3430, Note_on_c, 0, 59, 54
1, 3432, Note_on_c, 0, 55, 55
1, 3435, Note_on_c, 0, 50, 55
1, 3495, Note_on_c, 0, 55, 0
1, 3495, Note_on_c, 0, 59, 0
1, 3497, Note_on_c, 0, 50, 0
1, 3692, Note_on_c, 0, 59, 57
1, 3695, Note_on_c, 0, 55, 75
1, 3720, Note_on_c, 0, 62, 84
1, 3757, Note_on_c, 0, 55, 0
1, 3780, Note_on_c, 0, 62, 0
1, 3780, Note_on_c, 0, 59, 0
1, 3797, Control_c, 0, 64, 0
1, 3902, Note_on_c, 0, 67, 60
1, 3907, Note_on_c, 0, 62, 74
1, 3932, Note_on_c, 0, 59, 66
1, 3990, Note_on_c, 0, 67, 0
1, 3995, Note_on_c, 0, 59, 0
1, 3995, Note_on_c, 0, 62, 0
1, 4137, Note_on_c, 0, 59, 60
1, 4140, Note_on_c, 0, 47, 60
1, 4157, Note_on_c, 0, 66, 65
1, 4160, Note_on_c, 0, 63, 65
1, 4220, Note_on_c, 0, 66, 0
1, 4222, Note_on_c, 0, 63, 0
1, 4222, Note_on_c, 0, 59, 0
1, 4227, Note_on_c, 0, 47, 0
1, 4390, Note_on_c, 0, 47, 59
1, 4395, Note_on_c, 0, 40, 56
1, 4477, Note_on_c, 0, 47, 0
1, 4482, Note_on_c, 0, 40, 0
1, 4522, Control_c, 0, 64, 127
1, 4840, Note_on_c, 0, 52, 54
1, 4840, Note_on_c, 0, 55, 60
1, 4860, Note_on_c, 0, 59, 59
1, 4897, Note_on_c, 0, 55, 0
1, 4920, Note_on_c, 0, 59, 0
1, 4922, Note_on_c, 0, 52, 0
1, 5082, Control_c, 0, 64, 0
1, 5137, Note_on_c, 0, 55, 60
1, 5160, Note_on_c, 0, 59, 60
1, 5160, Note_on_c, 0, 64, 65
1, 5220, Note_on_c, 0, 64, 0
1, 5222, Note_on_c, 0, 59, 0
1, 5225, Note_on_c, 0, 55, 0
1, 5602, Note_on_c, 0, 59, 56
1, 5605, Note_on_c, 0, 52, 55
1, 5605, Note_on_c, 0, 55, 55
1, 5640, Control_c, 0, 64, 127
1, 5665, Note_on_c, 0, 55, 0
1, 5665, Note_on_c, 0, 59, 0
1, 5692, Note_on_c, 0, 52, 0
1, 5757, Control_c, 0, 64, 0
1, 5897, Note_on_c, 0, 50, 53
1, 5927, Note_on_c, 0, 43, 56
1, 5957, Note_on_c, 0, 50, 0
1, 6012, Note_on_c, 0, 43, 0
1, 6035, Control_c, 0, 64, 127
1, 6305, Note_on_c, 0, 50, 64
1, 6330, Note_on_c, 0, 59, 48
1, 6332, Note_on_c, 0, 55, 48
1, 6367, Note_on_c, 0, 50, 0
1, 6392, Note_on_c, 0, 55, 0
1, 6417, Note_on_c, 0, 59, 0
1, 6552, Note_on_c, 0, 59, 48
1, 6555, Note_on_c, 0, 55, 56
1, 6565, Note_on_c, 0, 62, 62
1, 6612, Note_on_c, 0, 55, 0
1, 6637, Note_on_c, 0, 62, 0
1, 6637, Note_on_c, 0, 59, 0
1, 6747, Note_on_c, 0, 67, 70
1, 6750, Note_on_c, 0, 62, 67
1, 6777, Note_on_c, 0, 59, 57
1, 6830, Control_c, 0, 64, 0
1, 6840, Note_on_c, 0, 59, 0
1, 6840, Note_on_c, 0, 62, 0
1, 6860, Note_on_c, 0, 67, 0
1, 6955, Note_on_c, 0, 59, 59
1, 6980, Note_on_c, 0, 66, 62
1, 6982, Note_on_c, 0, 63, 60
1, 7017, Note_on_c, 0, 47, 53
1, 7020, Note_on_c, 0, 59, 0
1, 7045, Note_on_c, 0, 66, 0
1, 7047, Note_on_c, 0, 63, 0
1, 7182, Note_on_c, 0, 47, 0
1, 7227, Note_on_c, 0, 40, 50
1, 7232, Control_c, 0, 64, 127
1, 7272, Note_on_c, 0, 47, 46
1, 7287, Note_on_c, 0, 40, 0
1, 7290, Note_on_c, 0, 83, 94
1, 7360, Note_on_c, 0, 47, 0
1, 7740, Note_on_c, 0, 59, 45
1, 7740, Note_on_c, 0, 64, 65
1, 7740, Note_on_c, 0, 55, 60
1, 7822, Note_on_c, 0, 64, 0
1, 7872, Note_on_c, 0, 59, 0
1, 7922, Note_on_c, 0, 55, 0
1, 7982, Note_on_c, 0, 67, 65
1, 8012, Note_on_c, 0, 64, 65
1, 8015, Note_on_c, 0, 59, 60
1, 8097, Note_on_c, 0, 67, 0
1, 8122, Note_on_c, 0, 64, 0
1, 8125, Note_on_c, 0, 59, 0
1, 8277, Note_on_c, 0, 81, 67
1, 8377, Note_on_c, 0, 79, 62
1, 8390, Note_on_c, 0, 83, 0
1, 8432, Note_on_c, 0, 64, 65
1, 8435, Note_on_c, 0, 55, 66
1, 8435, Note_on_c, 0, 59, 65
1, 8455, Note_on_c, 0, 78, 69
1, 8490, Note_on_c, 0, 81, 0
1, 8517, Note_on_c, 0, 79, 0
1, 8527, Note_on_c, 0, 76, 72
1, 8545, Note_on_c, 0, 64, 0
1, 8547, Note_on_c, 0, 55, 0
1, 8547, Note_on_c, 0, 59, 0
1, 8567, Note_on_c, 0, 78, 0
1, 8592, Note_on_c, 0, 76, 0
1, 8610, Control_c, 0, 64, 0
1, 8615, Note_on_c, 0, 50, 60
1, 8617, Note_on_c, 0, 43, 60
1, 8635, Note_on_c, 0, 74, 68
1, 8680, Note_on_c, 0, 43, 0
1, 8700, Note_on_c, 0, 50, 0
1, 8737, Note_on_c, 0, 72, 62
1, 8772, Note_on_c, 0, 74, 0
1, 8812, Note_on_c, 0, 71, 60
1, 8822, Note_on_c, 0, 72, 0
1, 9040, Note_on_c, 0, 50, 63
1, 9040, Note_on_c, 0, 55, 62
1, 9060, Note_on_c, 0, 59, 61
1, 9072, Control_c, 0, 64, 127
1, 9100, Note_on_c, 0, 50, 0
1, 9120, Note_on_c, 0, 71, 0
1, 9122, Note_on_c, 0, 55, 0
1, 9122, Note_on_c, 0, 59, 0
1, 9185, Control_c, 0, 64, 0
1, 9235, Note_on_c, 0, 59, 62
1, 9237, Note_on_c, 0, 55, 63
1, 9257, Note_on_c, 0, 62, 67
1, 9317, Note_on_c, 0, 62, 0
1, 9317, Note_on_c, 0, 55, 0
1, 9317, Note_on_c, 0, 59, 0
1, 9405, Note_on_c, 0, 62, 65
1, 9425, Note_on_c, 0, 67, 64
1, 9427, Note_on_c, 0, 59, 60
1, 9515, Note_on_c, 0, 62, 0
1, 9517, Note_on_c, 0, 59, 0
1, 9540, Note_on_c, 0, 67, 0
1, 9600, Control_c, 0, 67, 0
1, 9630, Note_on_c, 0, 59, 63
1, 9652, Note_on_c, 0, 66, 69
1, 9655, Note_on_c, 0, 63, 65
1, 9660, Note_on_c, 0, 47, 59
1, 9707, Control_c, 0, 67, 127
1, 9712, Note_on_c, 0, 66, 0
1, 9715, Note_on_c, 0, 63, 0
1, 9717, Note_on_c, 0, 59, 0
1, 9842, Note_on_c, 0, 47, 0
1, 9890, Note_on_c, 0, 40, 60
1, 9937, Note_on_c, 0, 47, 60
1, 9955, Note_on_c, 0, 83, 78
1, 9975, Note_on_c, 0, 40, 0
1, 10022, Note_on_c, 0, 47, 0
1, 10072, Control_c, 0, 64, 127
1, 10375, Note_on_c, 0, 64, 57
1, 10400, Note_on_c, 0, 59, 48
1, 10402, Note_on_c, 0, 55, 48
1, 10490, Note_on_c, 0, 64, 0
1, 10517, Note_on_c, 0, 59, 0
1, 10570, Note_on_c, 0, 55, 0
1, 10657, Note_on_c, 0, 59, 48
1, 10677, Note_on_c, 0, 67, 52
1, 10680, Note_on_c, 0, 64, 54
1, 10760, Note_on_c, 0, 67, 0
1, 10762, Note_on_c, 0, 64, 0
1, 10765, Note_on_c, 0, 59, 0
1, 10880, Note_on_c, 0, 52, 56
1, 10922, Note_on_c, 0, 81, 58
1, 10940, Note_on_c, 0, 52, 0
1, 11007, Note_on_c, 0, 83, 0
1, 11022, Note_on_c, 0, 79, 54
1, 11052, Note_on_c, 0, 55, 72
1, 11077, Note_on_c, 0, 64, 51
1, 11080, Note_on_c, 0, 59, 72
1, 11097, Note_on_c, 0, 78, 51
1, 11140, Note_on_c, 0, 55, 0
1, 11160, Note_on_c, 0, 79, 0
1, 11162, Note_on_c, 0, 64, 0
1, 11165, Note_on_c, 0, 59, 0
1, 11172, Note_on_c, 0, 76, 56
1, 11182, Note_on_c, 0, 81, 0
1, 11207, Note_on_c, 0, 78, 0
1, 11257, Note_on_c, 0, 76, 0
1, 11275, Note_on_c, 0, 74, 68
1, 11280, Note_on_c, 0, 50, 65
1, 11280, Note_on_c, 0, 43, 64
1, 11322, Control_c, 0, 64, 0
1, 11335, Note_on_c, 0, 74, 0
1, 11342, Note_on_c, 0, 76, 67
1, 11365, Note_on_c, 0, 50, 0
1, 11367, Note_on_c, 0, 43, 0
1, 11417, Note_on_c, 0, 74, 67
1, 11467, Note_on_c, 0, 72, 65
1, 11505, Note_on_c, 0, 76, 0
1, 11530, Note_on_c, 0, 74, 0
1, 11547, Note_on_c, 0, 71, 68
1, 11582, Note_on_c, 0, 72, 0
1, 11735, Note_on_c, 0, 50, 60
1, 11760, Note_on_c, 0, 59, 60
1, 11760, Note_on_c, 0, 55, 60
1, 11797, Note_on_c, 0, 50, 0
1, 11800, Control_c, 0, 64, 127
1, 11820, Note_on_c, 0, 55, 0
1, 11820, Note_on_c, 0, 59, 0
1, 11870, Note_on_c, 0, 71, 0
1, 11967, Note_on_c, 0, 59, 60
1, 11970, Note_on_c, 0, 62, 65
1, 11997, Note_on_c, 0, 55, 60
1, 12012, Control_c, 0, 64, 0
1, 12030, Note_on_c, 0, 62, 0
1, 12060, Note_on_c, 0, 55, 0
1, 12060, Note_on_c, 0, 59, 0
1, 12150, Note_on_c, 0, 62, 65
1, 12152, Note_on_c, 0, 59, 60
1, 12172, Note_on_c, 0, 67, 65
1, 12240, Note_on_c, 0, 59, 0
1, 12240, Note_on_c, 0, 62, 0
1, 12310, Note_on_c, 0, 67, 0
1, 12380, Note_on_c, 0, 59, 60
1, 12405, Note_on_c, 0, 66, 64
1, 12407, Note_on_c, 0, 63, 65
1, 12412, Note_on_c, 0, 47, 60
1, 12470, Note_on_c, 0, 59, 0
1, 12492, Note_on_c, 0, 66, 0
1, 12495, Note_on_c, 0, 63, 0
1, 12600, Note_on_c, 0, 40, 60
1, 12672, Note_on_c, 0, 47, 0
1, 12675, Note_on_c, 0, 40, 0
1, 12747, Control_c, 0, 64, 127
1, 12930, Note_on_c, 0, 66, 59
1, 12955, Note_on_c, 0, 64, 65
1, 12957, Note_on_c, 0, 59, 59
1, 12977, Note_on_c, 0, 67, 67
1, 12985, Note_on_c, 0, 55, 57
1, 12990, Note_on_c, 0, 66, 0
1, 13045, Note_on_c, 0, 64, 0
1, 13067, Note_on_c, 0, 67, 0
1, 13070, Note_on_c, 0, 59, 0
1, 13120, Note_on_c, 0, 55, 0
1, 13130, Note_on_c, 0, 69, 64
1, 13152, Note_on_c, 0, 67, 64
1, 13155, Note_on_c, 0, 59, 55
1, 13155, Note_on_c, 0, 64, 65
1, 13180, Control_c, 0, 64, 0
1, 13212, Note_on_c, 0, 69, 0
1, 13260, Note_on_c, 0, 67, 0
1, 13265, Note_on_c, 0, 64, 0
1, 13290, Note_on_c, 0, 59, 0
1, 13380, Note_on_c, 0, 71, 75
1, 13417, Note_on_c, 0, 71, 0
1, 13540, Note_on_c, 0, 59, 59
1, 13540, Note_on_c, 0, 64, 84
1, 13542, Note_on_c, 0, 55, 64
1, 13605, Note_on_c, 0, 55, 0
1, 13627, Note_on_c, 0, 64, 0
1, 13630, Note_on_c, 0, 59, 0
1, 13665, Note_on_c, 0, 71, 84
1, 13720, Note_on_c, 0, 50, 70
1, 13740, Note_on_c, 0, 74, 79
1, 13747, Note_on_c, 0, 71, 0
1, 13750, Note_on_c, 0, 38, 68
1, 13800, Note_on_c, 0, 74, 0
1, 13805, Note_on_c, 0, 50, 0
1, 13810, Note_on_c, 0, 38, 0
1, 13930, Control_c, 0, 64, 127
1, 13987, Note_on_c, 0, 69, 67
1, 13990, Note_on_c, 0, 66, 64
1, 13992, Note_on_c, 0, 62, 61
1, 14047, Note_on_c, 0, 69, 0
1, 14075, Note_on_c, 0, 66, 0
1, 14077, Note_on_c, 0, 62, 0
1, 14165, Note_on_c, 0, 62, 60
1, 14192, Note_on_c, 0, 54, 55
1, 14192, Note_on_c, 0, 57, 55
1, 14250, Note_on_c, 0, 57, 0
1, 14252, Note_on_c, 0, 62, 0
1, 14255, Note_on_c, 0, 54, 0
1, 14385, Note_on_c, 0, 86, 72
1, 14387, Note_on_c, 0, 81, 78
1, 14412, Note_on_c, 0, 78, 76
1, 14415, Note_on_c, 0, 74, 78
1, 14417, Note_on_c, 0, 66, 78
1, 14440, Note_on_c, 0, 69, 82
1, 14447, Note_on_c, 0, 86, 0
1, 14472, Note_on_c, 0, 81, 0
1, 14497, Note_on_c, 0, 78, 0
1, 14547, Note_on_c, 0, 74, 0
1, 14547, Note_on_c, 0, 69, 0
1, 14550, Note_on_c, 0, 66, 0
1, 14610, Note_on_c, 0, 81, 79
1, 14635, Note_on_c, 0, 78, 74
1, 14637, Note_on_c, 0, 74, 72
1, 14695, Note_on_c, 0, 78, 0
1, 14697, Note_on_c, 0, 74, 0
1, 14697, Note_on_c, 0, 81, 0
1, 14787, Note_on_c, 0, 69, 64
1, 14790, Note_on_c, 0, 66, 59
1, 14792, Note_on_c, 0, 62, 46
1, 14852, Note_on_c, 0, 62, 0
1, 14875, Note_on_c, 0, 69, 0
1, 14877, Note_on_c, 0, 66, 0
1, 14940, Control_c, 0, 64, 0
1, 15110, Note_on_c, 0, 33, 50
1, 15130, Note_on_c, 0, 40, 44
1, 15147, Note_on_c, 0, 57, 43
1, 15147, Note_on_c, 0, 64, 47
1, 15150, Note_on_c, 0, 52, 43
1, 15150, Note_on_c, 0, 60, 47
1, 15180, Note_on_c, 0, 45, 42
1, 15197, Note_on_c, 0, 33, 0
1, 15212, Note_on_c, 0, 57, 0
1, 15215, Note_on_c, 0, 60, 0
1, 15222, Note_on_c, 0, 40, 0
1, 15240, Note_on_c, 0, 52, 0
1, 15245, Note_on_c, 0, 45, 0
1, 15265, Note_on_c, 0, 64, 0
1, 15475, Note_on_c, 0, 69, 50
1, 15557, Note_on_c, 0, 69, 0
1, 15572, Note_on_c, 0, 71, 72
1, 15595, Note_on_c, 0, 64, 72
1, 15600, Note_on_c, 0, 57, 60
1, 15622, Note_on_c, 0, 60, 65
1, 15642, Note_on_c, 0, 72, 76
1, 15655, Note_on_c, 0, 71, 0
1, 15682, Note_on_c, 0, 60, 0
1, 15682, Note_on_c, 0, 64, 0
1, 15705, Note_on_c, 0, 57, 0
1, 15712, Note_on_c, 0, 74, 76
1, 15725, Note_on_c, 0, 72, 0
1, 15765, Note_on_c, 0, 69, 79
1, 15767, Note_on_c, 0, 64, 79
1, 15785, Note_on_c, 0, 76, 81
1, 15790, Note_on_c, 0, 60, 61
1, 15797, Note_on_c, 0, 74, 0
1, 15805, Control_c, 0, 64, 127
1, 15825, Note_on_c, 0, 76, 0
1, 15875, Note_on_c, 0, 69, 0
1, 15890, Note_on_c, 0, 76, 76
1, 15927, Note_on_c, 0, 76, 0
1, 15980, Note_on_c, 0, 64, 0
1, 15987, Note_on_c, 0, 76, 84
1, 16025, Note_on_c, 0, 76, 0
1, 16027, Note_on_c, 0, 60, 0
1, 16085, Note_on_c, 0, 76, 85
1, 16117, Note_on_c, 0, 52, 55
1, 16122, Note_on_c, 0, 76, 0
1, 16122, Note_on_c, 0, 40, 55
1, 16180, Note_on_c, 0, 76, 85
1, 16217, Note_on_c, 0, 76, 0
1, 16247, Note_on_c, 0, 52, 0
1, 16252, Note_on_c, 0, 40, 0
1, 16277, Note_on_c, 0, 76, 86
1, 16295, Note_on_c, 0, 33, 55
1, 16320, Note_on_c, 0, 76, 0
1, 16340, Note_on_c, 0, 45, 55
1, 16357, Control_c, 0, 64, 0
1, 16380, Note_on_c, 0, 79, 91
1, 16430, Note_on_c, 0, 33, 0
1, 16447, Note_on_c, 0, 45, 0
1, 16465, Note_on_c, 0, 79, 0
1, 16557, Note_on_c, 0, 79, 82
1, 16632, Note_on_c, 0, 78, 80
1, 16682, Note_on_c, 0, 76, 82
1, 16720, Note_on_c, 0, 79, 0
1, 16745, Note_on_c, 0, 78, 0
1, 16920, Note_on_c, 0, 57, 57
1, 16920, Note_on_c, 0, 64, 65
1, 16945, Note_on_c, 0, 60, 65
1, 16980, Note_on_c, 0, 57, 0
1, 17005, Note_on_c, 0, 60, 0
1, 17030, Note_on_c, 0, 64, 0
1, 17080, Control_c, 0, 64, 127
1, 17160, Note_on_c, 0, 67, 67
1, 17165, Note_on_c, 0, 60, 62
1, 17165, Note_on_c, 0, 64, 64
1, 17220, Note_on_c, 0, 76, 0
1, 17250, Note_on_c, 0, 64, 0
1, 17250, Note_on_c, 0, 60, 0
1, 17272, Note_on_c, 0, 67, 0
1, 17360, Note_on_c, 0, 60, 60
1, 17385, Note_on_c, 0, 57, 55
1, 17467, Note_on_c, 0, 60, 0
1, 17517, Note_on_c, 0, 57, 0
1, 17702, Control_c, 0, 64, 0
1, 17807, Note_on_c, 0, 38, 60
1, 17855, Note_on_c, 0, 45, 60
1, 17867, Note_on_c, 0, 38, 0
1, 17877, Note_on_c, 0, 54, 57
1, 17877, Note_on_c, 0, 60, 61
1, 17900, Note_on_c, 0, 57, 55
1, 17902, Note_on_c, 0, 50, 55
1, 17915, Note_on_c, 0, 45, 0
1, 17925, Note_on_c, 0, 64, 61
1, 17937, Note_on_c, 0, 54, 0
1, 17960, Note_on_c, 0, 50, 0
1, 17960, Note_on_c, 0, 60, 0
1, 17985, Note_on_c, 0, 57, 0
1, 17987, Note_on_c, 0, 64, 0
1, 18177, Note_on_c, 0, 69, 65
1, 18280, Note_on_c, 0, 71, 51
1, 18290, Note_on_c, 0, 69, 0
1, 18332, Note_on_c, 0, 57, 60
1, 18335, Note_on_c, 0, 60, 65
1, 18335, Note_on_c, 0, 64, 61
1, 18382, Note_on_c, 0, 72, 64
1, 18392, Note_on_c, 0, 71, 0
1, 18420, Note_on_c, 0, 64, 0
1, 18422, Note_on_c, 0, 57, 0
1, 18472, Note_on_c, 0, 72, 0
1, 18477, Note_on_c, 0, 60, 0
1, 18487, Note_on_c, 0, 74, 71
1, 18527, Control_c, 0, 64, 127
1, 18562, Note_on_c, 0, 66, 72
1, 18585, Note_on_c, 0, 76, 75
1, 18590, Note_on_c, 0, 60, 61
1, 18595, Note_on_c, 0, 74, 0
1, 18620, Note_on_c, 0, 76, 0
1, 18645, Note_on_c, 0, 66, 0
1, 18672, Note_on_c, 0, 60, 0
1, 18682, Note_on_c, 0, 76, 80
1, 18720, Note_on_c, 0, 76, 0
1, 18780, Note_on_c, 0, 76, 80
1, 18832, Note_on_c, 0, 76, 0
1, 18870, Note_on_c, 0, 76, 81
1, 18917, Note_on_c, 0, 76, 0
1, 18960, Note_on_c, 0, 50, 55
1, 18980, Note_on_c, 0, 76, 75
1, 18992, Note_on_c, 0, 38, 55
1, 19017, Note_on_c, 0, 76, 0
1, 19047, Note_on_c, 0, 50, 0
1, 19080, Note_on_c, 0, 38, 0
1, 19080, Note_on_c, 0, 76, 75
1, 19142, Note_on_c, 0, 76, 0
1, 19145, Note_on_c, 0, 31, 55
1, 19162, Control_c, 0, 64, 0
1, 19167, Note_on_c, 0, 43, 55
1, 19180, Note_on_c, 0, 79, 72
1, 19232, Note_on_c, 0, 31, 0
1, 19252, Note_on_c, 0, 43, 0
1, 19262, Note_on_c, 0, 79, 0
1, 19275, Note_on_c, 0, 78, 65
1, 19312, Note_on_c, 0, 78, 0
1, 19347, Note_on_c, 0, 79, 67
1, 19395, Note_on_c, 0, 78, 67
1, 19460, Control_c, 0, 64, 127
1, 19475, Note_on_c, 0, 74, 74
1, 19485, Note_on_c, 0, 79, 0
1, 19510, Note_on_c, 0, 78, 0
1, 19545, Control_c, 0, 64, 0
1, 19685, Note_on_c, 0, 62, 60
1, 19687, Note_on_c, 0, 55, 55
1, 19715, Note_on_c, 0, 59, 55
1, 19747, Note_on_c, 0, 62, 0
1, 19777, Note_on_c, 0, 55, 0
1, 19797, Note_on_c, 0, 74, 0
1, 19802, Note_on_c, 0, 59, 0
1, 19807, Control_c, 0, 64, 127
1, 19922, Note_on_c, 0, 59, 55
1, 19947, Note_on_c, 0, 67, 60
1, 19950, Note_on_c, 0, 62, 60
1, 20035, Note_on_c, 0, 67, 0
1, 20040, Note_on_c, 0, 62, 0
1, 20065, Note_on_c, 0, 59, 0
1, 20157, Note_on_c, 0, 59, 57
1, 20157, Note_on_c, 0, 62, 59
1, 20182, Note_on_c, 0, 55, 52
1, 20225, Note_on_c, 0, 76, 62
1, 20242, Note_on_c, 0, 62, 0
1, 20242, Note_on_c, 0, 59, 0
1, 20245, Note_on_c, 0, 55, 0
1, 20327, Note_on_c, 0, 74, 62
1, 20362, Note_on_c, 0, 76, 0
1, 20427, Note_on_c, 0, 71, 61
1, 20440, Note_on_c, 0, 74, 0
1, 20457, Control_c, 0, 64, 0
1, 20495, Note_on_c, 0, 69, 68
1, 20512, Note_on_c, 0, 71, 0
1, 20587, Note_on_c, 0, 33, 62
1, 20627, Note_on_c, 0, 67, 76
1, 20640, Note_on_c, 0, 69, 0
1, 20820, Control_c, 0, 64, 127
1, 20862, Note_on_c, 0, 67, 0
1, 20975, Note_on_c, 0, 71, 68
1, 20977, Note_on_c, 0, 60, 60
1, 21000, Note_on_c, 0, 64, 60
1, 21247, Note_on_c, 0, 33, 0
1, 21260, Note_on_c, 0, 64, 0
1, 21335, Note_on_c, 0, 45, 46
1, 21535, Control_c, 0, 64, 0
1, 21545, Note_on_c, 0, 60, 0
1, 21567, Note_on_c, 0, 71, 0
1, 21570, Note_on_c, 0, 35, 60
1, 21577, Note_on_c, 0, 45, 0
1, 21587, Note_on_c, 0, 66, 61
1, 21892, Note_on_c, 0, 66, 0
1, 21905, Note_on_c, 0, 59, 60
1, 21927, Note_on_c, 0, 71, 72
1, 21957, Note_on_c, 0, 63, 65
1, 22122, Control_c, 0, 64, 127
1, 22210, Note_on_c, 0, 47, 60
1, 22242, Note_on_c, 0, 63, 0
1, 22270, Note_on_c, 0, 47, 0
1, 22300, Note_on_c, 0, 35, 0
1, 22382, Control_c, 0, 64, 0
1, 22465, Note_on_c, 0, 28, 60
1, 22515, Note_on_c, 0, 59, 0
1, 22525, Note_on_c, 0, 64, 67
1, 22552, Note_on_c, 0, 28, 0
1, 22557, Note_on_c, 0, 71, 0
1, 22560, Note_on_c, 0, 40, 60
1, 22620, Note_on_c, 0, 40, 0
1, 22715, Control_c, 0, 64, 127
1, 22760, Note_on_c, 0, 64, 0
1, 22850, Note_on_c, 0, 71, 72
1, 22852, Note_on_c, 0, 64, 65
1, 22855, Note_on_c, 0, 59, 60
1, 22860, Note_on_c, 0, 46, 60
1, 22882, Note_on_c, 0, 47, 60
1, 22945, Note_on_c, 0, 46, 0
1, 22970, Note_on_c, 0, 47, 0
1, 23115, Note_on_c, 0, 47, 59
1, 23120, Note_on_c, 0, 64, 0
1, 23192, Note_on_c, 0, 71, 0
1, 23250, Note_on_c, 0, 59, 0
1, 23367, Note_on_c, 0, 40, 55
1, 23422, Note_on_c, 0, 47, 0
1, 23532, Note_on_c, 0, 46, 55
1, 23572, Note_on_c, 0, 40, 0
1, 23582, Note_on_c, 0, 47, 55
1, 23600, Note_on_c, 0, 66, 60
1, 23602, Note_on_c, 0, 59, 56
1, 23602, Note_on_c, 0, 63, 62
1, 23700, Note_on_c, 0, 68, 59
1, 23737, Note_on_c, 0, 63, 0
1, 23740, Note_on_c, 0, 59, 0
1, 23770, Note_on_c, 0, 69, 62
1, 23810, Note_on_c, 0, 66, 0
1, 23900, Note_on_c, 0, 66, 61
1, 23910, Note_on_c, 0, 69, 0
1, 23950, Control_c, 0, 64, 0
1, 23955, Note_on_c, 0, 68, 0
1, 23995, Note_on_c, 0, 69, 76
1, 24005, Note_on_c, 0, 40, 60
1, 24007, Note_on_c, 0, 66, 0
1, 24015, Note_on_c, 0, 46, 0
1, 24080, Note_on_c, 0, 69, 0
1, 24090, Note_on_c, 0, 47, 0
1, 24220, Note_on_c, 0, 46, 55
1, 24257, Note_on_c, 0, 40, 0
1, 24270, Note_on_c, 0, 47, 55
1, 24292, Note_on_c, 0, 64, 80
1, 24295, Note_on_c, 0, 59, 55
1, 24310, Note_on_c, 0, 46, 0
1, 24317, Note_on_c, 0, 68, 81
1, 24385, Note_on_c, 0, 47, 0
1, 24487, Control_c, 0, 64, 127
1, 24532, Note_on_c, 0, 47, 55
1, 24637, Note_on_c, 0, 64, 0
1, 24660, Note_on_c, 0, 68, 0
1, 24745, Note_on_c, 0, 59, 0
1, 24817, Note_on_c, 0, 40, 55
1, 24847, Note_on_c, 0, 47, 0
1, 24960, Note_on_c, 0, 46, 55
1, 25000, Note_on_c, 0, 40, 0
1, 25002, Note_on_c, 0, 59, 55
1, 25025, Note_on_c, 0, 63, 60
1, 25027, Note_on_c, 0, 47, 55
1, 25050, Note_on_c, 0, 66, 60
1, 25147, Note_on_c, 0, 68, 60
1, 25187, Note_on_c, 0, 63, 0
1, 25220, Note_on_c, 0, 69, 62
1, 25232, Note_on_c, 0, 66, 0
1, 25342, Note_on_c, 0, 66, 67
1, 25355, Note_on_c, 0, 69, 0
1, 25400, Note_on_c, 0, 68, 0
1, 25417, Control_c, 0, 64, 0
1, 25435, Note_on_c, 0, 69, 68
1, 25447, Note_on_c, 0, 66, 0
1, 25470, Note_on_c, 0, 40, 59
1, 25472, Note_on_c, 0, 59, 0
1, 25477, Note_on_c, 0, 46, 0
1, 25495, Note_on_c, 0, 69, 0
1, 25525, Note_on_c, 0, 47, 0
1, 25710, Note_on_c, 0, 46, 56
1, 25735, Note_on_c, 0, 47, 54
1, 25750, Note_on_c, 0, 40, 0
1, 25755, Note_on_c, 0, 68, 61
1, 25757, Note_on_c, 0, 59, 55
1, 25782, Note_on_c, 0, 64, 59
1, 25822, Note_on_c, 0, 47, 0
1, 25822, Note_on_c, 0, 46, 0
1, 25845, Control_c, 0, 64, 127
1, 25942, Note_on_c, 0, 64, 0
1, 25985, Note_on_c, 0, 47, 55
1, 26015, Note_on_c, 0, 68, 0
1, 26110, Note_on_c, 0, 64, 62
1, 26120, Note_on_c, 0, 59, 0
1, 26185, Note_on_c, 0, 68, 67
1, 26220, Note_on_c, 0, 64, 0
1, 26220, Note_on_c, 0, 40, 55
1, 26245, Note_on_c, 0, 68, 0
1, 26385, Note_on_c, 0, 47, 0
1, 26465, Note_on_c, 0, 63, 60
1, 26465, Note_on_c, 0, 66, 75
1, 26490, Note_on_c, 0, 57, 55
1, 26547, Note_on_c, 0, 66, 0
1, 26550, Note_on_c, 0, 63, 0
1, 26665, Note_on_c, 0, 46, 57
1, 26670, Note_on_c, 0, 57, 0
1, 26680, Note_on_c, 0, 40, 0
1, 26710, Note_on_c, 0, 47, 61
1, 26780, Note_on_c, 0, 59, 62
1, 26857, Control_c, 0, 64, 0
1, 26867, Note_on_c, 0, 59, 0
1, 26877, Note_on_c, 0, 66, 65
1, 26912, Note_on_c, 0, 40, 55
1, 26920, Note_on_c, 0, 46, 0
1, 26962, Note_on_c, 0, 66, 0
1, 26967, Note_on_c, 0, 47, 0
1, 27050, Note_on_c, 0, 40, 0
1, 27160, Note_on_c, 0, 46, 55
1, 27180, Note_on_c, 0, 64, 68
1, 27182, Note_on_c, 0, 47, 55
1, 27202, Note_on_c, 0, 59, 55
1, 27205, Note_on_c, 0, 56, 55
1, 27240, Note_on_c, 0, 47, 0
1, 27242, Note_on_c, 0, 46, 0
1, 27335, Note_on_c, 0, 59, 0
1, 27360, Note_on_c, 0, 56, 0
1, 27375, Note_on_c, 0, 47, 57
1, 27385, Control_c, 0, 64, 127
1, 27632, Note_on_c, 0, 40, 61
1, 27665, Note_on_c, 0, 47, 0
1, 27927, Note_on_c, 0, 40, 0
1, 27940, Note_on_c, 0, 46, 55
1, 27962, Note_on_c, 0, 47, 55
1, 27985, Note_on_c, 0, 59, 55
1, 27987, Note_on_c, 0, 52, 55
1, 27990, Note_on_c, 0, 56, 55
1, 28027, Note_on_c, 0, 46, 0
1, 28112, Control_c, 0, 64, 0
1, 28122, Note_on_c, 0, 59, 0
1, 28125, Note_on_c, 0, 56, 0
1, 28147, Note_on_c, 0, 52, 0
1, 28150, Note_on_c, 0, 47, 0
1, 28267, Note_on_c, 0, 40, 57
1, 28402, Note_on_c, 0, 40, 0
1, 28425, Control_c, 0, 64, 127
1, 28465, Note_on_c, 0, 46, 60
1, 28490, Note_on_c, 0, 52, 60
1, 28492, Note_on_c, 0, 47, 60
1, 28512, Note_on_c, 0, 59, 62
1, 28515, Note_on_c, 0, 56, 63
1, 28577, Note_on_c, 0, 47, 0
1, 28577, Note_on_c, 0, 46, 0
1, 28607, Note_on_c, 0, 59, 0
1, 28650, Note_on_c, 0, 56, 0
1, 28652, Note_on_c, 0, 52, 0
1, 28670, Note_on_c, 0, 47, 60
1, 28810, Note_on_c, 0, 47, 0
1, 28820, Note_on_c, 0, 64, 0
1, 28895, Note_on_c, 0, 40, 71
1, 29055, Note_on_c, 0, 40, 0
1, 29265, Note_on_c, 0, 52, 57
1, 29287, Note_on_c, 0, 59, 42
1, 29290, Note_on_c, 0, 47, 42
1, 29290, Note_on_c, 0, 56, 42
1, 29327, Note_on_c, 0, 52, 0
1, 29350, Note_on_c, 0, 59, 0
1, 29352, Note_on_c, 0, 56, 0
1, 29367, Control_c, 0, 64, 0
1, 29535, Note_on_c, 0, 47, 0
1, 29537, Control_c, 0, 67, 0
1, 29627, Note_on_c, 0, 47, 64
1, 29632, Note_on_c, 0, 35, 66
1, 29690, Note_on_c, 0, 35, 0
1, 29707, Note_on_c, 0, 47, 0
1, 29732, Control_c, 0, 64, 127
1, 29860, Note_on_c, 0, 83, 79
1, 30110, Note_on_c, 0, 63, 68
1, 30112, Note_on_c, 0, 54, 48
1, 30135, Note_on_c, 0, 59, 46
1, 30172, Note_on_c, 0, 63, 0
1, 30197, Note_on_c, 0, 59, 0
1, 30225, Note_on_c, 0, 54, 0
1, 30357, Note_on_c, 0, 66, 74
1, 30385, Note_on_c, 0, 59, 60
1, 30387, Note_on_c, 0, 63, 67
1, 30445, Note_on_c, 0, 66, 0
1, 30490, Note_on_c, 0, 63, 0
1, 30515, Note_on_c, 0, 59, 0
1, 30602, Note_on_c, 0, 63, 67
1, 30605, Note_on_c, 0, 59, 62
1, 30610, Note_on_c, 0, 83, 0
1, 30630, Note_on_c, 0, 54, 63
1, 30647, Note_on_c, 0, 82, 67
1, 30662, Note_on_c, 0, 63, 0
1, 30690, Note_on_c, 0, 59, 0
1, 30717, Note_on_c, 0, 54, 0
1, 30750, Note_on_c, 0, 80, 69
1, 30852, Note_on_c, 0, 78, 72
1, 30910, Note_on_c, 0, 82, 0
1, 30912, Note_on_c, 0, 80, 0
1, 30927, Note_on_c, 0, 76, 76
1, 30937, Note_on_c, 0, 78, 0
1, 30960, Control_c, 0, 64, 0
1, 30967, Note_on_c, 0, 32, 63
1, 30987, Note_on_c, 0, 76, 0
1, 31017, Note_on_c, 0, 44, 62
1, 31032, Note_on_c, 0, 75, 76
1, 31057, Note_on_c, 0, 32, 0
1, 31080, Note_on_c, 0, 44, 0
1, 31135, Note_on_c, 0, 73, 75
1, 31195, Note_on_c, 0, 75, 0
1, 31245, Note_on_c, 0, 73, 0
1, 31260, Note_on_c, 0, 71, 74
1, 31460, Note_on_c, 0, 63, 57
1, 31462, Note_on_c, 0, 59, 52
1, 31465, Note_on_c, 0, 56, 52
1, 31502, Control_c, 0, 64, 127
1, 31525, Note_on_c, 0, 56, 0
1, 31570, Note_on_c, 0, 59, 0
1, 31597, Note_on_c, 0, 63, 0
1, 31680, Note_on_c, 0, 68, 60
1, 31682, Note_on_c, 0, 59, 55
1, 31707, Note_on_c, 0, 63, 61
1, 31740, Note_on_c, 0, 68, 0
1, 31742, Note_on_c, 0, 63, 0
1, 31742, Note_on_c, 0, 59, 0
1, 31827, Note_on_c, 0, 63, 65
1, 31830, Note_on_c, 0, 59, 57
1, 31832, Note_on_c, 0, 56, 56
1, 31837, Note_on_c, 0, 71, 0
1, 31870, Note_on_c, 0, 73, 65
1, 31887, Note_on_c, 0, 59, 0
1, 31912, Note_on_c, 0, 63, 0
1, 31935, Note_on_c, 0, 56, 0
1, 31942, Note_on_c, 0, 75, 60
1, 31980, Note_on_c, 0, 73, 0
1, 31990, Note_on_c, 0, 76, 58
1, 32002, Note_on_c, 0, 75, 0
1, 32040, Note_on_c, 0, 78, 58
1, 32075, Note_on_c, 0, 76, 0
1, 32112, Note_on_c, 0, 80, 58
1, 32160, Note_on_c, 0, 82, 62
1, 32170, Note_on_c, 0, 78, 0
1, 32190, Control_c, 0, 64, 0
1, 32192, Note_on_c, 0, 47, 52
1, 32207, Note_on_c, 0, 83, 68
1, 32220, Note_on_c, 0, 35, 52
1, 32240, Note_on_c, 0, 82, 0
1, 32277, Note_on_c, 0, 80, 0
1, 32280, Note_on_c, 0, 35, 0
1, 32300, Note_on_c, 0, 47, 0
1, 32342, Note_on_c, 0, 83, 0
1, 32540, Note_on_c, 0, 83, 65
1, 32577, Note_on_c, 0, 83, 0
1, 32627, Note_on_c, 0, 54, 44
1, 32642, Note_on_c, 0, 83, 59
1, 32647, Note_on_c, 0, 63, 50
1, 32650, Note_on_c, 0, 59, 47
1, 32680, Note_on_c, 0, 83, 0
1, 32712, Note_on_c, 0, 54, 0
1, 32735, Note_on_c, 0, 63, 0
1, 32735, Note_on_c, 0, 59, 0
1, 32785, Control_c, 0, 64, 127
1, 32820, Note_on_c, 0, 59, 50
1, 32820, Note_on_c, 0, 66, 59
1, 32822, Note_on_c, 0, 63, 56
1, 32840, Note_on_c, 0, 83, 64
1, 32877, Note_on_c, 0, 83, 0
1, 32902, Note_on_c, 0, 66, 0
1, 32905, Note_on_c, 0, 63, 0
1, 32905, Note_on_c, 0, 59, 0
1, 32935, Note_on_c, 0, 83, 70
1, 33012, Note_on_c, 0, 63, 56
1, 33015, Note_on_c, 0, 54, 52
1, 33017, Note_on_c, 0, 83, 0
1, 33030, Note_on_c, 0, 82, 71
1, 33037, Note_on_c, 0, 59, 53
1, 33095, Note_on_c, 0, 59, 0
1, 33095, Note_on_c, 0, 63, 0
1, 33097, Note_on_c, 0, 54, 0
1, 33125, Note_on_c, 0, 80, 64
1, 33220, Note_on_c, 0, 78, 62
1, 33232, Note_on_c, 0, 82, 0
1, 33267, Note_on_c, 0, 76, 58
1, 33280, Note_on_c, 0, 80, 0
1, 33302, Note_on_c, 0, 78, 0
1, 33327, Control_c, 0, 64, 0
1, 33352, Note_on_c, 0, 76, 0
1, 33360, Note_on_c, 0, 32, 59
1, 33402, Note_on_c, 0, 44, 60
1, 33420, Control_c, 0, 67, 127
1, 33465, Note_on_c, 0, 32, 0
1, 33480, Note_on_c, 0, 44, 0
1, 33482, Note_on_c, 0, 76, 65
1, 33535, Note_on_c, 0, 75, 67
1, 33595, Note_on_c, 0, 76, 0
1, 33607, Note_on_c, 0, 73, 67
1, 33685, Note_on_c, 0, 71, 69
1, 33695, Note_on_c, 0, 75, 0
1, 33720, Note_on_c, 0, 73, 0
1, 33887, Note_on_c, 0, 63, 65
1, 33890, Note_on_c, 0, 59, 60
1, 33892, Note_on_c, 0, 56, 60
1, 33977, Note_on_c, 0, 56, 0
1, 34025, Note_on_c, 0, 59, 0
1, 34052, Note_on_c, 0, 63, 0
1, 34082, Control_c, 0, 64, 127
1, 34120, Note_on_c, 0, 68, 65
1, 34122, Note_on_c, 0, 59, 60
1, 34147, Note_on_c, 0, 63, 65
1, 34205, Note_on_c, 0, 71, 0
1, 34232, Note_on_c, 0, 68, 0
1, 34235, Note_on_c, 0, 63, 0
1, 34262, Note_on_c, 0, 59, 0
1, 34350, Note_on_c, 0, 63, 65
1, 34375, Note_on_c, 0, 59, 60
1, 34377, Note_on_c, 0, 56, 60
1, 34432, Note_on_c, 0, 59, 0
1, 34435, Note_on_c, 0, 63, 0
1, 34485, Note_on_c, 0, 56, 0
1, 34657, Control_c, 0, 67, 0
1, 34687, Control_c, 0, 64, 0
1, 34740, Note_on_c, 0, 54, 65
1, 34747, Note_on_c, 0, 35, 68
1, 34765, Note_on_c, 0, 59, 69
1, 34795, Note_on_c, 0, 47, 68
1, 34812, Note_on_c, 0, 63, 72
1, 34827, Note_on_c, 0, 54, 0
1, 34832, Note_on_c, 0, 35, 0
1, 34837, Note_on_c, 0, 66, 74
1, 34850, Note_on_c, 0, 59, 0
1, 34852, Note_on_c, 0, 47, 0
1, 34897, Note_on_c, 0, 66, 0
1, 34900, Note_on_c, 0, 63, 0
1, 34927, Control_c, 0, 64, 127
1, 35012, Control_c, 0, 64, 0
1, 35105, Note_on_c, 0, 71, 67
1, 35157, Control_c, 0, 67, 127
1, 35162, Note_on_c, 0, 71, 0
1, 35202, Note_on_c, 0, 73, 61
1, 35232, Note_on_c, 0, 59, 57
1, 35247, Control_c, 0, 67, 0
1, 35257, Note_on_c, 0, 66, 64
1, 35260, Note_on_c, 0, 63, 68
1, 35280, Note_on_c, 0, 75, 65
1, 35290, Note_on_c, 0, 73, 0
1, 35322, Note_on_c, 0, 63, 0
1, 35322, Note_on_c, 0, 59, 0
1, 35342, Note_on_c, 0, 66, 0
1, 35352, Note_on_c, 0, 76, 65
1, 35365, Note_on_c, 0, 75, 0
1, 35407, Note_on_c, 0, 63, 68
1, 35422, Control_c, 0, 64, 127
1, 35430, Note_on_c, 0, 71, 65
1, 35432, Note_on_c, 0, 66, 65
1, 35437, Note_on_c, 0, 76, 0
1, 35512, Note_on_c, 0, 71, 0
1, 35550, Note_on_c, 0, 78, 74
1, 35585, Note_on_c, 0, 78, 0
1, 35590, Note_on_c, 0, 66, 0
1, 35620, Note_on_c, 0, 63, 0
1, 35652, Note_on_c, 0, 78, 80
1, 35690, Note_on_c, 0, 78, 0
1, 35755, Note_on_c, 0, 78, 80
1, 35790, Note_on_c, 0, 78, 0
1, 35835, Note_on_c, 0, 66, 78
1, 35837, Note_on_c, 0, 59, 71
1, 35852, Note_on_c, 0, 78, 81
1, 35862, Note_on_c, 0, 63, 80
1, 35890, Note_on_c, 0, 78, 0
1, 35942, Note_on_c, 0, 66, 0
1, 35945, Note_on_c, 0, 63, 0
1, 35947, Note_on_c, 0, 59, 0
1, 35952, Note_on_c, 0, 78, 85
1, 36020, Note_on_c, 0, 30, 66
1, 36040, Note_on_c, 0, 78, 0
1, 36042, Note_on_c, 0, 42, 64
1, 36055, Note_on_c, 0, 81, 91
1, 36060, Control_c, 0, 67, 127
1, 36062, Control_c, 0, 64, 0
1, 36115, Note_on_c, 0, 81, 0
1, 36132, Note_on_c, 0, 30, 0
1, 36155, Note_on_c, 0, 42, 0
1, 36325, Note_on_c, 0, 78, 84
1, 36327, Note_on_c, 0, 73, 62
1, 36355, Note_on_c, 0, 69, 60
1, 36517, Control_c, 0, 64, 127
1, 36535, Note_on_c, 0, 57, 52
1, 36562, Note_on_c, 0, 69, 0
1, 36580, Note_on_c, 0, 66, 51
1, 36605, Note_on_c, 0, 61, 56
1, 36640, Note_on_c, 0, 57, 0
1, 36660, Note_on_c, 0, 73, 0
1, 36687, Note_on_c, 0, 66, 0
1, 36720, Note_on_c, 0, 78, 0
1, 36737, Note_on_c, 0, 61, 0
1, 36795, Note_on_c, 0, 69, 60
1, 36797, Note_on_c, 0, 66, 61
1, 36825, Note_on_c, 0, 61, 62
1, 36855, Note_on_c, 0, 69, 0
1, 36882, Note_on_c, 0, 66, 0
1, 36907, Note_on_c, 0, 61, 0
1, 36995, Note_on_c, 0, 61, 64
1, 37020, Note_on_c, 0, 66, 64
1, 37020, Note_on_c, 0, 57, 56
1, 37067, Note_on_c, 0, 71, 67
1, 37105, Note_on_c, 0, 57, 0
1, 37130, Note_on_c, 0, 66, 0
1, 37152, Note_on_c, 0, 71, 0
1, 37155, Note_on_c, 0, 61, 0
1, 37167, Note_on_c, 0, 73, 70
1, 37270, Note_on_c, 0, 75, 70
1, 37307, Note_on_c, 0, 73, 0
1, 37352, Control_c, 0, 64, 0
1, 37372, Note_on_c, 0, 76, 75
1, 37382, Note_on_c, 0, 75, 0
1, 37437, Note_on_c, 0, 35, 60
1, 37457, Note_on_c, 0, 76, 0
1, 37470, Note_on_c, 0, 78, 80
1, 37480, Note_on_c, 0, 47, 59
1, 37505, Note_on_c, 0, 78, 0
1, 37517, Note_on_c, 0, 35, 0
1, 37562, Note_on_c, 0, 47, 0
1, 37665, Note_on_c, 0, 78, 79
1, 37700, Note_on_c, 0, 78, 0
1, 37742, Note_on_c, 0, 78, 78
1, 37797, Note_on_c, 0, 78, 0
1, 37842, Note_on_c, 0, 59, 60
1, 37860, Note_on_c, 0, 78, 79
1, 37865, Note_on_c, 0, 63, 65
1, 37867, Note_on_c, 0, 54, 60
1, 37895, Note_on_c, 0, 78, 0
1, 37925, Note_on_c, 0, 59, 0
1, 37925, Note_on_c, 0, 63, 0
1, 37952, Note_on_c, 0, 54, 0
1, 37960, Note_on_c, 0, 78, 80
1, 38035, Note_on_c, 0, 80, 79
1, 38042, Note_on_c, 0, 78, 0
1, 38067, Note_on_c, 0, 52, 60
1, 38072, Note_on_c, 0, 40, 60
1, 38150, Note_on_c, 0, 52, 0
1, 38157, Note_on_c, 0, 40, 0
1, 38167, Note_on_c, 0, 80, 0
1, 38227, Note_on_c, 0, 68, 71
1, 38252, Note_on_c, 0, 71, 70
1, 38300, Note_on_c, 0, 76, 74
1, 38445, Control_c, 0, 64, 127
1, 38460, Note_on_c, 0, 76, 0
1, 38477, Note_on_c, 0, 64, 67
1, 38502, Note_on_c, 0, 59, 60
1, 38507, Note_on_c, 0, 56, 60
1, 38537, Note_on_c, 0, 64, 0
1, 38565, Note_on_c, 0, 59, 0
1, 38567, Note_on_c, 0, 56, 0
1, 38632, Control_c, 0, 64, 0
1, 38660, Note_on_c, 0, 71, 0
1, 38700, Note_on_c, 0, 78, 64
1, 38710, Note_on_c, 0, 47, 52
1, 38712, Note_on_c, 0, 68, 0
1, 38745, Note_on_c, 0, 35, 51
1, 38800, Note_on_c, 0, 47, 0
1, 38830, Note_on_c, 0, 35, 0
1, 38940, Note_on_c, 0, 78, 0
1, 38947, Control_c, 0, 64, 127
1, 38957, Note_on_c, 0, 66, 52
1, 38982, Note_on_c, 0, 71, 62
1, 39135, Control_c, 0, 64, 0
1, 39250, Note_on_c, 0, 63, 57
1, 39252, Note_on_c, 0, 59, 50
1, 39255, Note_on_c, 0, 54, 48
1, 39387, Note_on_c, 0, 63, 0
1, 39415, Note_on_c, 0, 59, 0
1, 39417, Note_on_c, 0, 54, 0
1, 39465, Control_c, 0, 64, 127
1, 39497, Note_on_c, 0, 59, 56
1, 39497, Note_on_c, 0, 63, 62
1, 39505, Note_on_c, 0, 71, 0
1, 39557, Note_on_c, 0, 66, 0
1, 39582, Note_on_c, 0, 63, 0
1, 39657, Note_on_c, 0, 59, 0
1, 39710, Note_on_c, 0, 63, 59
1, 39740, Note_on_c, 0, 59, 52
1, 39742, Note_on_c, 0, 54, 51
1, 39797, Note_on_c, 0, 63, 0
1, 39800, Note_on_c, 0, 59, 0
1, 39802, Note_on_c, 0, 54, 0
1, 40007, Control_c, 0, 64, 0
1, 40162, Note_on_c, 0, 31, 60
1, 40280, Note_on_c, 0, 50, 59
1, 40285, Note_on_c, 0, 43, 55
1, 40305, Note_on_c, 0, 55, 54
1, 40325, Note_on_c, 0, 62, 58
1, 40327, Note_on_c, 0, 59, 52
1, 40347, Note_on_c, 0, 31, 0
1, 40365, Note_on_c, 0, 55, 0
1, 40367, Note_on_c, 0, 50, 0
1, 40390, Note_on_c, 0, 62, 0
1, 40390, Note_on_c, 0, 59, 0
1, 40397, Note_on_c, 0, 43, 0
1, 40422, Control_c, 0, 64, 127
1, 40695, Note_on_c, 0, 83, 71
1, 40920, Note_on_c, 0, 55, 51
1, 40942, Note_on_c, 0, 59, 59
1, 40942, Note_on_c, 0, 62, 65
1, 41002, Note_on_c, 0, 62, 0
1, 41030, Note_on_c, 0, 55, 0
1, 41077, Note_on_c, 0, 59, 0
1, 41160, Note_on_c, 0, 59, 59
1, 41177, Note_on_c, 0, 67, 61
1, 41182, Note_on_c, 0, 62, 61
1, 41242, Note_on_c, 0, 59, 0
1, 41285, Note_on_c, 0, 67, 0
1, 41290, Note_on_c, 0, 62, 0
1, 41427, Note_on_c, 0, 59, 50
1, 41452, Note_on_c, 0, 62, 60
1, 41455, Note_on_c, 0, 55, 56
1, 41510, Note_on_c, 0, 62, 0
1, 41512, Note_on_c, 0, 59, 0
1, 41515, Note_on_c, 0, 55, 0
1, 41545, Note_on_c, 0, 81, 64
1, 41645, Note_on_c, 0, 79, 60
1, 41685, Note_on_c, 0, 83, 0
1, 41722, Note_on_c, 0, 78, 61
1, 41760, Note_on_c, 0, 81, 0
1, 41780, Control_c, 0, 64, 0
1, 41782, Note_on_c, 0, 79, 0
1, 41810, Note_on_c, 0, 78, 0
1, 41825, Note_on_c, 0, 76, 61
1, 41887, Note_on_c, 0, 76, 0
1, 41895, Note_on_c, 0, 35, 60
1, 41917, Note_on_c, 0, 47, 60
1, 41935, Note_on_c, 0, 74, 68
1, 41982, Note_on_c, 0, 35, 0
1, 42000, Note_on_c, 0, 47, 0
1, 42035, Note_on_c, 0, 72, 65
1, 42047, Note_on_c, 0, 74, 0
1, 42115, Note_on_c, 0, 71, 67
1, 42122, Note_on_c, 0, 72, 0
1, 42315, Note_on_c, 0, 54, 54
1, 42360, Note_on_c, 0, 59, 48
1, 42360, Note_on_c, 0, 63, 52
1, 42420, Note_on_c, 0, 54, 0
1, 42467, Note_on_c, 0, 63, 0
1, 42470, Control_c, 0, 64, 127
1, 42490, Note_on_c, 0, 59, 0
1, 42575, Note_on_c, 0, 66, 52
1, 42577, Note_on_c, 0, 59, 51
1, 42600, Note_on_c, 0, 63, 57
1, 42615, Control_c, 0, 67, 0
1, 42660, Note_on_c, 0, 66, 0
1, 42685, Note_on_c, 0, 59, 0
1, 42712, Note_on_c, 0, 63, 0
1, 42775, Note_on_c, 0, 59, 59
1, 42797, Note_on_c, 0, 63, 60
1, 42802, Note_on_c, 0, 71, 0
1, 42802, Note_on_c, 0, 54, 54
1, 42857, Note_on_c, 0, 59, 0
1, 42865, Note_on_c, 0, 73, 64
1, 42882, Note_on_c, 0, 63, 0
1, 42887, Note_on_c, 0, 54, 0
1, 42915, Note_on_c, 0, 75, 67
1, 42962, Note_on_c, 0, 76, 68
1, 42975, Note_on_c, 0, 75, 0
1, 42975, Note_on_c, 0, 73, 0
1, 43057, Note_on_c, 0, 78, 70
1, 43070, Note_on_c, 0, 76, 0
1, 43107, Note_on_c, 0, 79, 70
1, 43135, Note_on_c, 0, 81, 71
1, 43167, Note_on_c, 0, 78, 0
1, 43167, Control_c, 0, 64, 0
1, 43185, Note_on_c, 0, 83, 78
1, 43190, Control_c, 0, 67, 127
1, 43192, Note_on_c, 0, 79, 0
1, 43202, Note_on_c, 0, 31, 55
1, 43222, Note_on_c, 0, 43, 54
1, 43245, Note_on_c, 0, 81, 0
1, 43262, Note_on_c, 0, 31, 0
1, 43282, Note_on_c, 0, 43, 0
1, 43320, Note_on_c, 0, 83, 0
1, 43442, Note_on_c, 0, 83, 67
1, 43487, Note_on_c, 0, 83, 0
1, 43567, Note_on_c, 0, 83, 76
1, 43605, Note_on_c, 0, 83, 0
1, 43672, Note_on_c, 0, 83, 75
1, 43680, Note_on_c, 0, 59, 55
1, 43680, Note_on_c, 0, 62, 60
1, 43680, Note_on_c, 0, 55, 54
1, 43707, Note_on_c, 0, 83, 0
1, 43740, Note_on_c, 0, 59, 0
1, 43740, Note_on_c, 0, 62, 0
1, 43742, Note_on_c, 0, 55, 0
1, 43775, Note_on_c, 0, 83, 75
1, 43800, Control_c, 0, 64, 127
1, 43810, Note_on_c, 0, 83, 0
1, 43850, Note_on_c, 0, 67, 75
1, 43852, Note_on_c, 0, 59, 56
1, 43852, Note_on_c, 0, 62, 60
1, 43870, Note_on_c, 0, 83, 81
1, 43907, Note_on_c, 0, 83, 0
1, 43932, Note_on_c, 0, 67, 0
1, 43937, Note_on_c, 0, 62, 0
1, 43962, Note_on_c, 0, 59, 0
1, 43970, Note_on_c, 0, 83, 87
1, 44050, Note_on_c, 0, 59, 57
1, 44055, Note_on_c, 0, 83, 0
1, 44075, Note_on_c, 0, 62, 60
1, 44077, Note_on_c, 0, 55, 55
1, 44095, Note_on_c, 0, 81, 80
1, 44160, Note_on_c, 0, 55, 0
1, 44160, Note_on_c, 0, 59, 0
1, 44160, Note_on_c, 0, 62, 0
1, 44220, Note_on_c, 0, 79, 71
1, 44290, Note_on_c, 0, 78, 67
1, 44347, Control_c, 0, 64, 0
1, 44350, Note_on_c, 0, 79, 0
1, 44362, Note_on_c, 0, 76, 67
1, 44375, Note_on_c, 0, 81, 0
1, 44400, Note_on_c, 0, 78, 0
1, 44450, Note_on_c, 0, 76, 0
1, 44485, Note_on_c, 0, 74, 70
1, 44520, Note_on_c, 0, 74, 0
1, 44520, Note_on_c, 0, 47, 60
1, 44522, Note_on_c, 0, 35, 60
1, 44532, Note_on_c, 0, 76, 69
1, 44582, Note_on_c, 0, 35, 0
1, 44602, Note_on_c, 0, 47, 0
1, 44605, Note_on_c, 0, 74, 67
1, 44655, Note_on_c, 0, 72, 65
1, 44665, Note_on_c, 0, 76, 0
1, 44712, Note_on_c, 0, 74, 0
1, 44730, Note_on_c, 0, 71, 69
1, 44740, Note_on_c, 0, 72, 0
1, 44960, Note_on_c, 0, 54, 56
1, 44985, Note_on_c, 0, 63, 60
1, 44987, Note_on_c, 0, 59, 55
1, 45070, Note_on_c, 0, 63, 0
1, 45072, Note_on_c, 0, 54, 0
1, 45097, Note_on_c, 0, 59, 0
1, 45180, Control_c, 0, 64, 127
1, 45212, Note_on_c, 0, 63, 62
1, 45212, Note_on_c, 0, 66, 70
1, 45215, Note_on_c, 0, 59, 60
1, 45272, Note_on_c, 0, 66, 0
1, 45295, Note_on_c, 0, 71, 0
1, 45300, Note_on_c, 0, 63, 0
1, 45322, Note_on_c, 0, 59, 0
1, 45432, Note_on_c, 0, 59, 65
1, 45432, Note_on_c, 0, 63, 68
1, 45460, Note_on_c, 0, 54, 61
1, 45492, Note_on_c, 0, 59, 0
1, 45517, Note_on_c, 0, 63, 0
1, 45542, Note_on_c, 0, 54, 0
1, 45727, Control_c, 0, 64, 0
1, 45785, Note_on_c, 0, 33, 60
1, 45832, Note_on_c, 0, 40, 60
1, 45850, Note_on_c, 0, 52, 60
1, 45870, Note_on_c, 0, 33, 0
1, 45872, Note_on_c, 0, 57, 63
1, 45872, Note_on_c, 0, 60, 70
1, 45877, Note_on_c, 0, 45, 65
1, 45895, Note_on_c, 0, 64, 87
1, 45912, Note_on_c, 0, 40, 0
1, 45930, Note_on_c, 0, 60, 0
1, 45930, Note_on_c, 0, 57, 0
1, 45932, Note_on_c, 0, 52, 0
1, 45937, Note_on_c, 0, 45, 0
1, 45977, Note_on_c, 0, 64, 0
1, 46180, Note_on_c, 0, 69, 81
1, 46300, Note_on_c, 0, 71, 62
1, 46315, Note_on_c, 0, 69, 0
1, 46330, Note_on_c, 0, 60, 60
1, 46330, Note_on_c, 0, 64, 64
1, 46332, Note_on_c, 0, 57, 55
1, 46392, Note_on_c, 0, 57, 0
1, 46402, Note_on_c, 0, 72, 69
1, 46412, Note_on_c, 0, 71, 0
1, 46417, Note_on_c, 0, 64, 0
1, 46442, Note_on_c, 0, 60, 0
1, 46477, Note_on_c, 0, 74, 74
1, 46490, Note_on_c, 0, 72, 0
1, 46527, Note_on_c, 0, 69, 70
1, 46530, Note_on_c, 0, 60, 60
1, 46530, Note_on_c, 0, 64, 68
1, 46560, Note_on_c, 0, 74, 0
1, 46575, Note_on_c, 0, 76, 72
1, 46615, Note_on_c, 0, 76, 0
1, 46615, Note_on_c, 0, 69, 0
1, 46620, Control_c, 0, 64, 127
1, 46642, Note_on_c, 0, 60, 0
1, 46642, Note_on_c, 0, 64, 0
1, 46677, Note_on_c, 0, 76, 71
1, 46715, Note_on_c, 0, 76, 0
1, 46755, Note_on_c, 0, 60, 54
1, 46775, Note_on_c, 0, 76, 71
1, 46780, Note_on_c, 0, 57, 47
1, 46810, Note_on_c, 0, 76, 0
1, 46815, Note_on_c, 0, 60, 0
1, 46840, Note_on_c, 0, 57, 0
1, 46977, Note_on_c, 0, 52, 71
1, 46980, Note_on_c, 0, 40, 71
1, 47055, Note_on_c, 0, 76, 80
1, 47057, Note_on_c, 0, 52, 0
1, 47065, Note_on_c, 0, 40, 0
1, 47150, Note_on_c, 0, 76, 0
1, 47167, Control_c, 0, 64, 0
1, 47177, Note_on_c, 0, 33, 63
1, 47182, Note_on_c, 0, 79, 80
1, 47192, Note_on_c, 0, 45, 64
1, 47232, Note_on_c, 0, 33, 0
1, 47252, Note_on_c, 0, 45, 0
1, 47267, Note_on_c, 0, 79, 0
1, 47352, Note_on_c, 0, 79, 71
1, 47400, Note_on_c, 0, 78, 68
1, 47460, Note_on_c, 0, 79, 0
1, 47472, Note_on_c, 0, 76, 67
1, 47507, Note_on_c, 0, 78, 0
1, 47692, Note_on_c, 0, 64, 60
1, 47695, Note_on_c, 0, 57, 60
1, 47695, Note_on_c, 0, 60, 65
1, 47755, Note_on_c, 0, 57, 0
1, 47802, Note_on_c, 0, 64, 0
1, 47807, Control_c, 0, 64, 127
1, 47827, Note_on_c, 0, 60, 0
1, 47912, Note_on_c, 0, 67, 65
1, 47917, Note_on_c, 0, 60, 62
1, 47942, Note_on_c, 0, 64, 62
1, 47997, Note_on_c, 0, 76, 0
1, 48022, Note_on_c, 0, 67, 0
1, 48025, Note_on_c, 0, 64, 0
1, 48052, Note_on_c, 0, 60, 0
1, 48170, Note_on_c, 0, 64, 60
1, 48172, Note_on_c, 0, 60, 60
1, 48197, Note_on_c, 0, 57, 55
1, 48257, Note_on_c, 0, 64, 0
1, 48282, Note_on_c, 0, 60, 0
1, 48305, Note_on_c, 0, 57, 0
1, 48520, Control_c, 0, 64, 0
1, 48597, Note_on_c, 0, 38, 41
1, 48662, Note_on_c, 0, 45, 43
1, 48677, Note_on_c, 0, 38, 0
1, 48697, Note_on_c, 0, 60, 47
1, 48707, Note_on_c, 0, 57, 44
1, 48710, Note_on_c, 0, 50, 45
1, 48710, Note_on_c, 0, 54, 46
1, 48722, Note_on_c, 0, 45, 0
1, 48755, Note_on_c, 0, 64, 60
1, 48765, Note_on_c, 0, 57, 0
1, 48767, Note_on_c, 0, 54, 0
1, 48767, Note_on_c, 0, 50, 0
1, 48785, Note_on_c, 0, 60, 0
1, 48810, Note_on_c, 0, 64, 0
1, 49012, Note_on_c, 0, 69, 58
1, 49105, Note_on_c, 0, 71, 52
1, 49117, Note_on_c, 0, 69, 0
1, 49135, Note_on_c, 0, 60, 60
1, 49137, Note_on_c, 0, 57, 55
1, 49160, Note_on_c, 0, 64, 59
1, 49182, Note_on_c, 0, 72, 61
1, 49192, Note_on_c, 0, 71, 0
1, 49195, Note_on_c, 0, 57, 0
1, 49242, Note_on_c, 0, 64, 0
1, 49265, Note_on_c, 0, 60, 0
1, 49275, Note_on_c, 0, 74, 67
1, 49287, Note_on_c, 0, 72, 0
1, 49325, Note_on_c, 0, 66, 68
1, 49327, Note_on_c, 0, 60, 60
1, 49340, Control_c, 0, 64, 127
1, 49347, Note_on_c, 0, 76, 71
1, 49385, Note_on_c, 0, 76, 0
1, 49387, Note_on_c, 0, 74, 0
1, 49440, Note_on_c, 0, 66, 0
1, 49442, Note_on_c, 0, 60, 0
1, 49452, Note_on_c, 0, 76, 72
1, 49492, Note_on_c, 0, 76, 0
1, 49530, Note_on_c, 0, 76, 72
1, 49532, Note_on_c, 0, 57, 55
1, 49587, Note_on_c, 0, 76, 0
1, 49620, Note_on_c, 0, 57, 0
1, 49655, Note_on_c, 0, 76, 72
1, 49692, Note_on_c, 0, 76, 0
1, 49760, Note_on_c, 0, 76, 72
1, 49770, Note_on_c, 0, 50, 55
1, 49775, Note_on_c, 0, 38, 55
1, 49800, Note_on_c, 0, 76, 0
1, 49860, Note_on_c, 0, 50, 0
1, 49862, Note_on_c, 0, 38, 0
1, 49865, Note_on_c, 0, 76, 72
1, 49955, Note_on_c, 0, 76, 0
1, 49985, Note_on_c, 0, 31, 55
1, 49992, Note_on_c, 0, 79, 78
1, 50002, Control_c, 0, 64, 0
1, 50032, Note_on_c, 0, 43, 55
1, 50047, Note_on_c, 0, 31, 0
1, 50092, Note_on_c, 0, 43, 0
1, 50102, Note_on_c, 0, 79, 0
1, 50142, Note_on_c, 0, 78, 71
1, 50177, Note_on_c, 0, 78, 0
1, 50190, Note_on_c, 0, 79, 69
1, 50265, Note_on_c, 0, 78, 69
1, 50312, Note_on_c, 0, 74, 70
1, 50322, Note_on_c, 0, 79, 0
1, 50370, Note_on_c, 0, 78, 0
1, 50485, Note_on_c, 0, 55, 53
1, 50485, Note_on_c, 0, 59, 56
1, 50510, Note_on_c, 0, 62, 62
1, 50570, Note_on_c, 0, 55, 0
1, 50572, Control_c, 0, 64, 127
1, 50592, Note_on_c, 0, 62, 0
1, 50640, Note_on_c, 0, 59, 0
1, 50707, Note_on_c, 0, 74, 0
1, 50745, Note_on_c, 0, 67, 71
1, 50750, Note_on_c, 0, 59, 60
1, 50772, Note_on_c, 0, 62, 67
1, 50832, Note_on_c, 0, 62, 0
1, 50855, Note_on_c, 0, 67, 0
1, 50885, Note_on_c, 0, 59, 0
1, 51000, Note_on_c, 0, 59, 59
1, 51000, Note_on_c, 0, 62, 61
1, 51025, Note_on_c, 0, 55, 54
1, 51042, Note_on_c, 0, 76, 76
1, 51082, Note_on_c, 0, 62, 0
1, 51082, Note_on_c, 0, 59, 0
1, 51110, Note_on_c, 0, 55, 0
1, 51145, Note_on_c, 0, 74, 70
1, 51207, Note_on_c, 0, 76, 0
1, 51252, Note_on_c, 0, 71, 67
1, 51260, Note_on_c, 0, 74, 0
1, 51380, Note_on_c, 0, 69, 67
1, 51387, Note_on_c, 0, 71, 0
1, 51435, Control_c, 0, 64, 0
1, 51505, Note_on_c, 0, 67, 68
1, 51520, Note_on_c, 0, 33, 56
1, 51540, Note_on_c, 0, 69, 0
1, 51817, Control_c, 0, 64, 127
1, 51847, Note_on_c, 0, 71, 61
1, 51852, Note_on_c, 0, 60, 60
1, 51852, Note_on_c, 0, 64, 60
1, 52057, Note_on_c, 0, 67, 0
1, 52142, Note_on_c, 0, 33, 0
1, 52200, Note_on_c, 0, 45, 54
1, 52425, Note_on_c, 0, 45, 0
1, 52437, Control_c, 0, 64, 0
1, 52442, Note_on_c, 0, 64, 0
1, 52442, Note_on_c, 0, 60, 0
1, 52455, Note_on_c, 0, 66, 80
1, 52490, Note_on_c, 0, 71, 0
1, 52492, Note_on_c, 0, 35, 60
1, 52812, Note_on_c, 0, 66, 0
1, 52825, Note_on_c, 0, 71, 60
1, 52830, Note_on_c, 0, 63, 60
1, 52857, Note_on_c, 0, 59, 55
1, 52920, Control_c, 0, 64, 127
1, 53065, Note_on_c, 0, 63, 0
1, 53107, Note_on_c, 0, 47, 55
1, 53167, Note_on_c, 0, 47, 0
1, 53220, Note_on_c, 0, 35, 0
1, 53325, Control_c, 0, 64, 0
1, 53405, Note_on_c, 0, 59, 0
1, 53405, Note_on_c, 0, 28, 55
1, 53467, Note_on_c, 0, 64, 61
1, 53477, Note_on_c, 0, 71, 0
1, 53477, Note_on_c, 0, 40, 51
1, 53492, Note_on_c, 0, 28, 0
1, 53537, Note_on_c, 0, 40, 0
1, 53675, Note_on_c, 0, 64, 0
1, 53702, Control_c, 0, 64, 127
1, 53760, Note_on_c, 0, 64, 64
1, 53765, Note_on_c, 0, 46, 55
1, 53780, Note_on_c, 0, 71, 64
1, 53785, Note_on_c, 0, 59, 55
1, 53790, Note_on_c, 0, 47, 55
1, 53917, Note_on_c, 0, 59, 0
1, 53922, Note_on_c, 0, 46, 0
1, 53922, Note_on_c, 0, 47, 0
1, 54007, Note_on_c, 0, 71, 0
1, 54035, Note_on_c, 0, 64, 0
1, 54057, Note_on_c, 0, 47, 53
1, 54277, Note_on_c, 0, 40, 50
1, 54307, Note_on_c, 0, 47, 0
1, 54425, Note_on_c, 0, 46, 51
1, 54490, Note_on_c, 0, 40, 0
1, 54522, Note_on_c, 0, 59, 54
1, 54522, Note_on_c, 0, 63, 64
1, 54527, Note_on_c, 0, 47, 54
1, 54545, Note_on_c, 0, 66, 56
1, 54617, Note_on_c, 0, 68, 54
1, 54680, Note_on_c, 0, 63, 0
1, 54715, Note_on_c, 0, 69, 59
1, 54725, Note_on_c, 0, 66, 0
1, 54835, Note_on_c, 0, 66, 61
1, 54840, Control_c, 0, 64, 0
1, 54842, Note_on_c, 0, 69, 0
1, 54892, Note_on_c, 0, 68, 0
1, 54930, Note_on_c, 0, 69, 74
1, 54950, Note_on_c, 0, 46, 0
1, 54965, Note_on_c, 0, 66, 0
1, 54965, Note_on_c, 0, 40, 55
1, 54970, Note_on_c, 0, 59, 0
1, 54990, Note_on_c, 0, 69, 0
1, 55020, Note_on_c, 0, 47, 0
1, 55225, Note_on_c, 0, 46, 54
1, 55240, Note_on_c, 0, 40, 0
1, 55250, Note_on_c, 0, 47, 55
1, 55265, Note_on_c, 0, 64, 71
1, 55265, Note_on_c, 0, 68, 71
1, 55267, Note_on_c, 0, 59, 55
1, 55332, Note_on_c, 0, 47, 0
1, 55332, Note_on_c, 0, 46, 0
1, 55425, Control_c, 0, 64, 127
1, 55485, Note_on_c, 0, 47, 55
1, 55490, Note_on_c, 0, 68, 0
1, 55492, Note_on_c, 0, 64, 0
1, 55615, Note_on_c, 0, 59, 0
1, 55732, Note_on_c, 0, 40, 55
1, 55787, Note_on_c, 0, 47, 0
1, 55902, Note_on_c, 0, 46, 55
1, 55915, Note_on_c, 0, 40, 0
1, 55947, Note_on_c, 0, 59, 55
1, 55947, Note_on_c, 0, 63, 60
1, 55950, Note_on_c, 0, 47, 54
1, 55970, Note_on_c, 0, 66, 60
1, 56070, Note_on_c, 0, 68, 59
1, 56105, Note_on_c, 0, 66, 0
1, 56107, Note_on_c, 0, 63, 0
1, 56145, Note_on_c, 0, 69, 60
1, 56230, Note_on_c, 0, 69, 0
1, 56245, Note_on_c, 0, 66, 69
1, 56302, Note_on_c, 0, 68, 0
1, 56337, Note_on_c, 0, 69, 64
1, 56345, Control_c, 0, 64, 0
1, 56350, Note_on_c, 0, 66, 0
1, 56375, Note_on_c, 0, 40, 59
1, 56380, Note_on_c, 0, 59, 0
1, 56385, Note_on_c, 0, 46, 0
1, 56400, Note_on_c, 0, 69, 0
1, 56435, Note_on_c, 0, 47, 0
1, 56587, Note_on_c, 0, 46, 59
1, 56612, Note_on_c, 0, 47, 56
1, 56627, Note_on_c, 0, 40, 0
1, 56652, Note_on_c, 0, 68, 75
1, 56655, Note_on_c, 0, 59, 55
1, 56655, Note_on_c, 0, 64, 76
1, 56697, Note_on_c, 0, 46, 0
1, 56720, Note_on_c, 0, 47, 0
1, 56792, Control_c, 0, 64, 127
1, 56812, Note_on_c, 0, 64, 0
1, 56877, Note_on_c, 0, 47, 54
1, 56880, Note_on_c, 0, 68, 0
1, 56955, Note_on_c, 0, 59, 0
1, 57015, Note_on_c, 0, 64, 68
1, 57085, Note_on_c, 0, 68, 71
1, 57120, Note_on_c, 0, 40, 56
1, 57147, Note_on_c, 0, 64, 0
1, 57170, Note_on_c, 0, 68, 0
1, 57227, Note_on_c, 0, 47, 0
1, 57360, Note_on_c, 0, 66, 67
1, 57387, Note_on_c, 0, 57, 55
1, 57387, Note_on_c, 0, 63, 60
1, 57445, Note_on_c, 0, 66, 0
1, 57472, Note_on_c, 0, 63, 0
1, 57575, Note_on_c, 0, 57, 0
1, 57597, Note_on_c, 0, 46, 55
1, 57610, Note_on_c, 0, 40, 0
1, 57650, Note_on_c, 0, 47, 54
1, 57720, Control_c, 0, 64, 0
1, 57772, Note_on_c, 0, 59, 52
1, 57835, Note_on_c, 0, 46, 0
1, 57840, Note_on_c, 0, 66, 60
1, 57850, Note_on_c, 0, 40, 48
1, 57877, Note_on_c, 0, 59, 0
1, 57882, Note_on_c, 0, 47, 0
1, 57947, Note_on_c, 0, 66, 0
1, 58027, Note_on_c, 0, 40, 0
1, 58140, Note_on_c, 0, 46, 48
1, 58155, Note_on_c, 0, 64, 61
1, 58160, Note_on_c, 0, 47, 48
1, 58180, Note_on_c, 0, 59, 48
1, 58182, Note_on_c, 0, 56, 48
1, 58217, Note_on_c, 0, 47, 0
1, 58220, Note_on_c, 0, 46, 0
1, 58287, Note_on_c, 0, 59, 0
1, 58290, Note_on_c, 0, 56, 0
1, 58357, Note_on_c, 0, 47, 48
1, 58367, Control_c, 0, 64, 127
1, 58650, Note_on_c, 0, 40, 51
1, 58680, Note_on_c, 0, 47, 0
1, 58842, Control_c, 0, 64, 0
1, 58907, Note_on_c, 0, 40, 0
1, 58920, Note_on_c, 0, 46, 55
1, 58940, Note_on_c, 0, 59, 55
1, 58945, Note_on_c, 0, 47, 55
1, 58970, Note_on_c, 0, 52, 55
1, 58970, Note_on_c, 0, 56, 55
1, 59005, Note_on_c, 0, 46, 0
1, 59160, Control_c, 0, 64, 127
1, 59305, Note_on_c, 0, 59, 0
1, 59307, Note_on_c, 0, 52, 0
1, 59307, Note_on_c, 0, 56, 0
1, 59312, Note_on_c, 0, 40, 54
1, 59337, Note_on_c, 0, 47, 0
1, 59485, Note_on_c, 0, 40, 0
1, 59495, Note_on_c, 0, 46, 55
1, 59537, Note_on_c, 0, 59, 54
1, 59540, Note_on_c, 0, 52, 55
1, 59540, Note_on_c, 0, 56, 56
1, 59542, Note_on_c, 0, 47, 57
1, 59602, Note_on_c, 0, 47, 0
1, 59602, Note_on_c, 0, 46, 0
1, 59737, Note_on_c, 0, 47, 59
1, 59870, Note_on_c, 0, 59, 0
1, 59872, Note_on_c, 0, 56, 0
1, 59917, Note_on_c, 0, 52, 0
1, 59960, Note_on_c, 0, 40, 69
1, 59970, Note_on_c, 0, 47, 0
1, 60222, Note_on_c, 0, 46, 70
1, 60257, Note_on_c, 0, 40, 0
1, 60270, Note_on_c, 0, 47, 60
1, 60305, Note_on_c, 0, 46, 0
1, 60317, Note_on_c, 0, 52, 60
1, 60345, Note_on_c, 0, 56, 60
1, 60350, Note_on_c, 0, 64, 0
1, 60355, Note_on_c, 0, 47, 0
1, 60362, Control_c, 0, 64, 0
1, 60375, Note_on_c, 0, 52, 0
1, 60400, Note_on_c, 0, 56, 0
1, 60402, Control_c, 0, 67, 0
1, 60520, Note_on_c, 0, 40, 68
1, 60617, Note_on_c, 0, 47, 74
1, 60717, Note_on_c, 0, 56, 79
1, 60732, Note_on_c, 0, 40, 0
1, 60802, Note_on_c, 0, 47, 0
1, 60805, Control_c, 0, 64, 127
1, 60900, Note_on_c, 0, 56, 0
1, 61010, Note_on_c, 0, 47, 73
1, 61010, Note_on_c, 0, 56, 70
1, 61052, Note_on_c, 0, 59, 68
1, 61157, Note_on_c, 0, 59, 0
1, 61160, Note_on_c, 0, 56, 0
1, 61210, Note_on_c, 0, 47, 0
1, 61277, Note_on_c, 0, 56, 63
1, 61297, Note_on_c, 0, 47, 63
1, 61317, Note_on_c, 0, 59, 63
1, 61400, Note_on_c, 0, 59, 0
1, 61402, Note_on_c, 0, 56, 0
1, 61405, Note_on_c, 0, 47, 0
1, 61495, Control_c, 0, 64, 0
1, 61565, Note_on_c, 0, 47, 73
1, 61587, Note_on_c, 0, 54, 71
1, 61610, Note_on_c, 0, 57, 70
1, 61740, Note_on_c, 0, 54, 0
1, 61760, Note_on_c, 0, 57, 0
1, 61765, Note_on_c, 0, 47, 0
1, 61837, Control_c, 0, 64, 127
1, 61945, Note_on_c, 0, 57, 70
1, 61950, Note_on_c, 0, 47, 69
1, 61995, Note_on_c, 0, 61, 78
1, 62082, Note_on_c, 0, 57, 0
1, 62110, Note_on_c, 0, 47, 0
1, 62175, Control_c, 0, 64, 0
1, 62332, Note_on_c, 0, 40, 75
1, 62380, Note_on_c, 0, 47, 70
1, 62407, Note_on_c, 0, 61, 0
1, 62420, Note_on_c, 0, 59, 75
1, 62440, Note_on_c, 0, 40, 0
1, 62507, Note_on_c, 0, 47, 0
1, 62527, Control_c, 0, 64, 127
1, 62660, Note_on_c, 0, 47, 68
1, 62682, Note_on_c, 0, 56, 64
1, 62740, Note_on_c, 0, 56, 0
1, 62742, Note_on_c, 0, 47, 0
1, 62850, Note_on_c, 0, 56, 63
1, 62875, Note_on_c, 0, 47, 63
1, 62887, Note_on_c, 0, 71, 68
1, 62917, Note_on_c, 0, 68, 68
1, 62920, Note_on_c, 0, 64, 69
1, 62932, Note_on_c, 0, 56, 0
1, 62972, Note_on_c, 0, 71, 0
1, 62975, Note_on_c, 0, 68, 0
1, 63000, Note_on_c, 0, 64, 0
1, 63005, Note_on_c, 0, 47, 0
1, 63165, Note_on_c, 0, 40, 63
1, 63182, Note_on_c, 0, 47, 61
1, 63240, Note_on_c, 0, 47, 0
1, 63247, Note_on_c, 0, 40, 0
1, 63322, Note_on_c, 0, 56, 56
1, 63325, Note_on_c, 0, 47, 54
1, 63332, Note_on_c, 0, 59, 0
1, 63345, Note_on_c, 0, 61, 68
1, 63432, Note_on_c, 0, 47, 0
1, 63455, Note_on_c, 0, 56, 0
1, 63645, Note_on_c, 0, 56, 52
1, 63647, Note_on_c, 0, 47, 65
1, 63652, Note_on_c, 0, 61, 0
1, 63667, Note_on_c, 0, 59, 68
1, 63707, Note_on_c, 0, 56, 0
1, 63752, Note_on_c, 0, 59, 0
1, 63757, Note_on_c, 0, 47, 0
1, 63792, Control_c, 0, 64, 0
1, 63900, Note_on_c, 0, 40, 63
1, 63945, Note_on_c, 0, 47, 59
1, 63990, Note_on_c, 0, 56, 63
1, 64025, Note_on_c, 0, 47, 0
1, 64127, Control_c, 0, 64, 127
1, 64227, Note_on_c, 0, 47, 61
1, 64247, Note_on_c, 0, 57, 64
1, 64267, Note_on_c, 0, 63, 71
1, 64290, Note_on_c, 0, 40, 0
1, 64330, Note_on_c, 0, 47, 0
1, 64487, Note_on_c, 0, 47, 61
1, 64592, Note_on_c, 0, 47, 0
1, 64780, Note_on_c, 0, 56, 0
1, 64795, Note_on_c, 0, 47, 59
1, 64797, Note_on_c, 0, 40, 59
1, 64837, Control_c, 0, 64, 0
1, 64862, Note_on_c, 0, 54, 63
1, 64862, Control_c, 0, 67, 127
1, 64895, Note_on_c, 0, 57, 0
1, 64897, Note_on_c, 0, 63, 0
1, 64925, Note_on_c, 0, 47, 0
1, 65110, Note_on_c, 0, 47, 54
1, 65130, Note_on_c, 0, 57, 59
1, 65130, Note_on_c, 0, 63, 66
1, 65167, Control_c, 0, 64, 127
1, 65172, Note_on_c, 0, 40, 0
1, 65220, Note_on_c, 0, 47, 0
1, 65387, Note_on_c, 0, 47, 55
1, 65467, Note_on_c, 0, 54, 0
1, 65650, Control_c, 0, 64, 0
1, 65655, Note_on_c, 0, 40, 69
1, 65662, Note_on_c, 0, 47, 0
1, 65675, Note_on_c, 0, 52, 70
1, 65682, Note_on_c, 0, 57, 0
1, 65705, Note_on_c, 0, 63, 0
1, 65940, Note_on_c, 0, 47, 69
1, 65975, Control_c, 0, 64, 127
1, 65980, Note_on_c, 0, 40, 0
1, 65985, Note_on_c, 0, 59, 70
1, 66010, Note_on_c, 0, 56, 68
1, 66030, Note_on_c, 0, 64, 64
1, 66050, Note_on_c, 0, 47, 0
1, 66067, Note_on_c, 0, 52, 0
1, 66137, Note_on_c, 0, 59, 0
1, 66140, Note_on_c, 0, 56, 0
1, 66162, Note_on_c, 0, 64, 0
1, 66252, Note_on_c, 0, 47, 68
1, 66300, Control_c, 0, 64, 0
1, 66415, Note_on_c, 0, 47, 0
1, 66480, Note_on_c, 0, 40, 59
1, 66517, Note_on_c, 0, 71, 48
1, 66520, Note_on_c, 0, 68, 47
1, 66522, Note_on_c, 0, 64, 47
1, 66527, Note_on_c, 0, 47, 54
1, 66540, Note_on_c, 0, 40, 0
1, 66610, Note_on_c, 0, 47, 0
1, 66660, Control_c, 0, 64, 127
1, 66732, Note_on_c, 0, 68, 0
1, 66755, Note_on_c, 0, 71, 0
1, 66760, Note_on_c, 0, 64, 0
1, 66852, Note_on_c, 0, 66, 56
1, 66882, Note_on_c, 0, 56, 53
1, 66885, Note_on_c, 0, 47, 54
1, 66907, Note_on_c, 0, 52, 55
1, 66930, Note_on_c, 0, 68, 62
1, 66965, Note_on_c, 0, 66, 0
1, 66997, Note_on_c, 0, 47, 0
1, 67015, Note_on_c, 0, 68, 0
1, 67020, Note_on_c, 0, 56, 0
1, 67025, Note_on_c, 0, 69, 62
1, 67082, Control_c, 0, 64, 0
1, 67110, Note_on_c, 0, 69, 0
1, 67122, Note_on_c, 0, 71, 62
1, 67140, Note_on_c, 0, 52, 0
1, 67192, Note_on_c, 0, 69, 61
1, 67200, Note_on_c, 0, 71, 0
1, 67212, Note_on_c, 0, 73, 58
1, 67212, Note_on_c, 0, 76, 57
1, 67222, Note_on_c, 0, 52, 59
1, 67252, Note_on_c, 0, 45, 60
1, 67310, Note_on_c, 0, 45, 0
1, 67352, Note_on_c, 0, 52, 0
1, 67380, Control_c, 0, 64, 127
1, 67420, Note_on_c, 0, 69, 0
1, 67460, Note_on_c, 0, 61, 65
1, 67462, Note_on_c, 0, 52, 60
1, 67465, Note_on_c, 0, 73, 0
1, 67502, Note_on_c, 0, 71, 67
1, 67512, Note_on_c, 0, 76, 0
1, 67520, Note_on_c, 0, 52, 0
1, 67567, Note_on_c, 0, 61, 0
1, 67577, Note_on_c, 0, 69, 67
1, 67587, Note_on_c, 0, 71, 0
1, 67637, Note_on_c, 0, 69, 0
1, 67705, Control_c, 0, 64, 0
1, 67727, Note_on_c, 0, 68, 65
1, 67775, Note_on_c, 0, 66, 65
1, 67807, Note_on_c, 0, 68, 0
1, 67832, Note_on_c, 0, 66, 0
1, 67857, Note_on_c, 0, 40, 60
1, 67865, Note_on_c, 0, 71, 74
1, 67870, Note_on_c, 0, 64, 74
1, 67875, Note_on_c, 0, 47, 60
1, 67892, Note_on_c, 0, 68, 71
1, 67917, Note_on_c, 0, 40, 0
1, 67957, Note_on_c, 0, 47, 0
1, 68035, Control_c, 0, 64, 127
1, 68045, Note_on_c, 0, 71, 0
1, 68047, Note_on_c, 0, 68, 0
1, 68075, Note_on_c, 0, 64, 0
1, 68137, Note_on_c, 0, 66, 65
1, 68162, Note_on_c, 0, 59, 60
1, 68215, Note_on_c, 0, 52, 60
1, 68232, Note_on_c, 0, 68, 64
1, 68270, Note_on_c, 0, 66, 0
1, 68305, Note_on_c, 0, 69, 67
1, 68317, Note_on_c, 0, 68, 0
1, 68320, Note_on_c, 0, 59, 0
1, 68395, Note_on_c, 0, 52, 0
1, 68397, Note_on_c, 0, 71, 67
1, 68412, Note_on_c, 0, 69, 0
1, 68432, Control_c, 0, 64, 0
1, 68485, Note_on_c, 0, 52, 60
1, 68487, Note_on_c, 0, 71, 0
1, 68505, Note_on_c, 0, 76, 60
1, 68507, Note_on_c, 0, 69, 61
1, 68517, Note_on_c, 0, 45, 60
1, 68522, Note_on_c, 0, 52, 0
1, 68527, Note_on_c, 0, 73, 64
1, 68565, Note_on_c, 0, 69, 0
1, 68575, Note_on_c, 0, 45, 0
1, 68605, Note_on_c, 0, 52, 60
1, 68625, Note_on_c, 0, 71, 67
1, 68652, Note_on_c, 0, 61, 65
1, 68682, Note_on_c, 0, 76, 0
1, 68702, Note_on_c, 0, 71, 0
1, 68710, Note_on_c, 0, 73, 0
1, 68712, Note_on_c, 0, 52, 0
1, 68720, Note_on_c, 0, 69, 67
1, 68735, Note_on_c, 0, 61, 0
1, 68760, Control_c, 0, 64, 127
1, 68777, Note_on_c, 0, 69, 0
1, 68795, Note_on_c, 0, 68, 65
1, 68875, Control_c, 0, 64, 0
1, 68892, Note_on_c, 0, 66, 65
1, 68965, Note_on_c, 0, 64, 65
1, 68975, Note_on_c, 0, 66, 0
1, 68975, Note_on_c, 0, 68, 0
1, 69000, Note_on_c, 0, 35, 60
1, 69030, Note_on_c, 0, 47, 60
1, 69057, Note_on_c, 0, 35, 0
1, 69067, Note_on_c, 0, 64, 0
1, 69105, Note_on_c, 0, 71, 75
1, 69107, Note_on_c, 0, 66, 76
1, 69122, Note_on_c, 0, 47, 0
1, 69165, Note_on_c, 0, 59, 61
1, 69205, Note_on_c, 0, 59, 0
1, 69277, Note_on_c, 0, 54, 56
1, 69290, Control_c, 0, 64, 127
1, 69300, Note_on_c, 0, 63, 57
1, 69357, Note_on_c, 0, 63, 0
1, 69382, Note_on_c, 0, 54, 0
1, 69467, Note_on_c, 0, 63, 50
1, 69472, Note_on_c, 0, 54, 48
1, 69545, Control_c, 0, 64, 0
1, 69555, Note_on_c, 0, 54, 0
1, 69577, Note_on_c, 0, 63, 0
1, 69692, Note_on_c, 0, 54, 54
1, 69695, Note_on_c, 0, 47, 55
1, 69805, Note_on_c, 0, 47, 0
1, 69827, Note_on_c, 0, 54, 0
1, 69880, Control_c, 0, 64, 127
1, 70037, Note_on_c, 0, 63, 61
1, 70042, Note_on_c, 0, 54, 59
1, 70120, Note_on_c, 0, 63, 0
1, 70122, Note_on_c, 0, 54, 0
1, 70280, Note_on_c, 0, 47, 70
1, 70282, Control_c, 0, 64, 0
1, 70305, Note_on_c, 0, 54, 81
1, 70340, Note_on_c, 0, 47, 0
1, 70385, Note_on_c, 0, 54, 0
1, 70492, Note_on_c, 0, 63, 82
1, 70497, Note_on_c, 0, 54, 70
1, 70550, Note_on_c, 0, 63, 0
1, 70555, Control_c, 0, 64, 127
1, 70572, Note_on_c, 0, 54, 0
1, 70632, Note_on_c, 0, 63, 68
1, 70660, Note_on_c, 0, 54, 60
1, 70740, Note_on_c, 0, 54, 0
1, 70740, Note_on_c, 0, 63, 0
1, 70847, Note_on_c, 0, 54, 59
1, 70850, Note_on_c, 0, 47, 61
1, 70902, Note_on_c, 0, 66, 0
1, 70910, Note_on_c, 0, 47, 0
1, 70945, Note_on_c, 0, 71, 0
1, 70950, Note_on_c, 0, 54, 0
1, 71152, Note_on_c, 0, 63, 69
1, 71155, Control_c, 0, 64, 0
1, 71157, Note_on_c, 0, 54, 69
1, 71217, Note_on_c, 0, 54, 0
1, 71245, Note_on_c, 0, 63, 0
1, 71407, Note_on_c, 0, 47, 71
1, 71427, Note_on_c, 0, 54, 64
1, 71447, Note_on_c, 0, 69, 84
1, 71450, Note_on_c, 0, 63, 69
1, 71540, Note_on_c, 0, 47, 0
1, 71560, Note_on_c, 0, 63, 0
1, 71562, Note_on_c, 0, 54, 0
1, 71642, Note_on_c, 0, 73, 74
1, 71647, Note_on_c, 0, 57, 57
1, 71652, Note_on_c, 0, 69, 0
1, 71667, Note_on_c, 0, 66, 64
1, 71702, Note_on_c, 0, 57, 0
1, 71715, Note_on_c, 0, 59, 59
1, 71725, Note_on_c, 0, 73, 0
1, 71750, Note_on_c, 0, 66, 0
1, 71760, Note_on_c, 0, 59, 0
1, 71805, Note_on_c, 0, 73, 65
1, 71830, Note_on_c, 0, 66, 59
1, 71832, Note_on_c, 0, 57, 56
1, 71890, Note_on_c, 0, 57, 0
1, 71912, Note_on_c, 0, 66, 0
1, 71970, Note_on_c, 0, 69, 65
1, 72000, Note_on_c, 0, 63, 64
1, 72002, Note_on_c, 0, 47, 60
1, 72022, Note_on_c, 0, 54, 60
1, 72060, Note_on_c, 0, 47, 0
1, 72072, Note_on_c, 0, 73, 0
1, 72077, Note_on_c, 0, 63, 0
1, 72080, Note_on_c, 0, 54, 0
1, 72120, Note_on_c, 0, 69, 0
1, 72272, Note_on_c, 0, 73, 74
1, 72277, Note_on_c, 0, 57, 66
1, 72300, Note_on_c, 0, 66, 65
1, 72405, Note_on_c, 0, 66, 0
1, 72407, Note_on_c, 0, 57, 0
1, 72450, Note_on_c, 0, 73, 0
1, 72547, Note_on_c, 0, 47, 62
1, 72570, Note_on_c, 0, 54, 61
1, 72587, Note_on_c, 0, 69, 75
1, 72607, Note_on_c, 0, 47, 0
1, 72617, Note_on_c, 0, 63, 62
1, 72630, Note_on_c, 0, 54, 0
1, 72632, Control_c, 0, 64, 127
1, 72647, Note_on_c, 0, 69, 0
1, 72672, Note_on_c, 0, 63, 0
1, 72852, Note_on_c, 0, 85, 70
1, 72855, Note_on_c, 0, 81, 74
1, 72915, Note_on_c, 0, 81, 0
1, 72930, Note_on_c, 0, 80, 71
1, 72930, Note_on_c, 0, 83, 74
1, 72962, Note_on_c, 0, 85, 0
1, 73005, Note_on_c, 0, 78, 71
1, 73005, Note_on_c, 0, 81, 74
1, 73015, Note_on_c, 0, 80, 0
1, 73065, Note_on_c, 0, 83, 0
1, 73085, Note_on_c, 0, 78, 0
1, 73087, Note_on_c, 0, 81, 0
1, 73102, Note_on_c, 0, 76, 71
1, 73105, Note_on_c, 0, 80, 71
1, 73162, Note_on_c, 0, 76, 0
1, 73177, Note_on_c, 0, 78, 71
1, 73180, Note_on_c, 0, 75, 71
1, 73240, Note_on_c, 0, 75, 0
1, 73240, Note_on_c, 0, 80, 0
1, 73252, Note_on_c, 0, 73, 71
1, 73252, Note_on_c, 0, 76, 71
1, 73260, Note_on_c, 0, 78, 0
1, 73320, Note_on_c, 0, 71, 71
1, 73320, Note_on_c, 0, 75, 71
1, 73332, Note_on_c, 0, 76, 0
1, 73332, Note_on_c, 0, 73, 0
1, 73405, Note_on_c, 0, 71, 0
1, 73417, Note_on_c, 0, 73, 72
1, 73427, Note_on_c, 0, 75, 0
1, 73490, Note_on_c, 0, 71, 70
1, 73560, Note_on_c, 0, 69, 75
1, 73570, Note_on_c, 0, 71, 0
1, 73595, Note_on_c, 0, 73, 0
1, 73637, Note_on_c, 0, 64, 81
1, 73642, Note_on_c, 0, 69, 0
1, 73655, Note_on_c, 0, 71, 85
1, 73715, Note_on_c, 0, 47, 73
1, 73720, Note_on_c, 0, 64, 0
1, 73740, Note_on_c, 0, 71, 0
1, 73740, Note_on_c, 0, 56, 73
1, 73777, Note_on_c, 0, 47, 0
1, 73797, Note_on_c, 0, 56, 0
1, 73837, Control_c, 0, 64, 0
1, 73852, Note_on_c, 0, 75, 75
1, 73855, Note_on_c, 0, 68, 72
1, 73857, Note_on_c, 0, 59, 73
1, 73910, Note_on_c, 0, 75, 0
1, 73912, Note_on_c, 0, 68, 0
1, 73915, Note_on_c, 0, 59, 0
1, 73990, Note_on_c, 0, 75, 82
1, 73992, Note_on_c, 0, 68, 80
1, 73995, Note_on_c, 0, 59, 73
1, 74052, Note_on_c, 0, 59, 0
1, 74072, Note_on_c, 0, 68, 0
1, 74095, Note_on_c, 0, 75, 0
1, 74160, Note_on_c, 0, 71, 85
1, 74165, Note_on_c, 0, 56, 73
1, 74167, Note_on_c, 0, 47, 73
1, 74180, Control_c, 0, 64, 127
1, 74185, Note_on_c, 0, 64, 87
1, 74242, Note_on_c, 0, 71, 0
1, 74247, Note_on_c, 0, 64, 0
1, 74400, Note_on_c, 0, 47, 0
1, 74457, Note_on_c, 0, 75, 91
1, 74460, Note_on_c, 0, 59, 73
1, 74482, Note_on_c, 0, 68, 89
1, 74500, Note_on_c, 0, 56, 0
1, 74545, Note_on_c, 0, 59, 0
1, 74620, Note_on_c, 0, 68, 0
1, 74737, Note_on_c, 0, 57, 72
1, 74740, Control_c, 0, 64, 0
1, 74742, Note_on_c, 0, 75, 0
1, 74785, Note_on_c, 0, 64, 87
1, 74805, Note_on_c, 0, 73, 91
1, 74867, Note_on_c, 0, 64, 0
1, 74910, Note_on_c, 0, 73, 0
1, 74947, Note_on_c, 0, 76, 94
1, 74952, Note_on_c, 0, 61, 91
1, 74975, Note_on_c, 0, 69, 91
1, 75010, Note_on_c, 0, 57, 0
1, 75012, Note_on_c, 0, 61, 0
1, 75032, Note_on_c, 0, 76, 0
1, 75035, Note_on_c, 0, 69, 0
1, 75065, Control_c, 0, 64, 127
1, 75100, Note_on_c, 0, 61, 86
1, 75115, Note_on_c, 0, 76, 92
1, 75150, Control_c, 0, 64, 0
1, 75167, Note_on_c, 0, 69, 89
1, 75227, Note_on_c, 0, 69, 0
1, 75302, Note_on_c, 0, 61, 0
1, 75312, Note_on_c, 0, 75, 94
1, 75315, Note_on_c, 0, 66, 94
1, 75317, Note_on_c, 0, 59, 78
1, 75337, Note_on_c, 0, 71, 92
1, 75397, Note_on_c, 0, 76, 0
1, 75400, Note_on_c, 0, 66, 0
1, 75402, Note_on_c, 0, 59, 0
1, 75420, Note_on_c, 0, 71, 0
1, 75470, Control_c, 0, 64, 127
1, 75557, Note_on_c, 0, 63, 85
1, 75587, Note_on_c, 0, 75, 0
1, 75615, Note_on_c, 0, 63, 0
1, 75647, Note_on_c, 0, 78, 89
1, 75650, Note_on_c, 0, 71, 90
1, 75652, Note_on_c, 0, 69, 91
1, 75745, Note_on_c, 0, 71, 0
1, 75787, Note_on_c, 0, 69, 0
1, 75832, Control_c, 0, 64, 0
1, 75917, Note_on_c, 0, 28, 78
1, 75990, Note_on_c, 0, 40, 78
1, 76005, Note_on_c, 0, 28, 0
1, 76022, Note_on_c, 0, 76, 91
1, 76027, Note_on_c, 0, 68, 91
1, 76032, Note_on_c, 0, 47, 80
1, 76072, Note_on_c, 0, 40, 0
1, 76080, Note_on_c, 0, 78, 0
1, 76120, Note_on_c, 0, 47, 0
1, 76135, Note_on_c, 0, 68, 0
1, 76142, Control_c, 0, 64, 127
1, 76180, Note_on_c, 0, 76, 0
1, 76252, Note_on_c, 0, 59, 85
1, 76277, Note_on_c, 0, 56, 85
1, 76280, Note_on_c, 0, 47, 78
1, 76310, Note_on_c, 0, 59, 0
1, 76335, Note_on_c, 0, 56, 0
1, 76337, Note_on_c, 0, 47, 0
1, 76392, Note_on_c, 0, 59, 85
1, 76420, Note_on_c, 0, 56, 85
1, 76445, Note_on_c, 0, 47, 78
1, 76475, Note_on_c, 0, 59, 0
1, 76500, Note_on_c, 0, 56, 0
1, 76552, Note_on_c, 0, 47, 0
1, 76565, Control_c, 0, 64, 0
1, 76632, Note_on_c, 0, 52, 75
1, 76635, Note_on_c, 0, 56, 81
1, 76637, Note_on_c, 0, 47, 74
1, 76642, Note_on_c, 0, 40, 74
1, 76740, Note_on_c, 0, 52, 0
1, 76797, Note_on_c, 0, 40, 0
1, 76817, Control_c, 0, 64, 127
1, 76887, Note_on_c, 0, 47, 0
1, 76932, Note_on_c, 0, 56, 0
1, 77015, Note_on_c, 0, 59, 85
1, 77040, Note_on_c, 0, 56, 85
1, 77042, Note_on_c, 0, 47, 78
1, 77097, Note_on_c, 0, 59, 0
1, 77147, Note_on_c, 0, 56, 0
1, 77197, Note_on_c, 0, 47, 0
1, 77280, Control_c, 0, 64, 0
1, 77362, Note_on_c, 0, 40, 77
1, 77382, Note_on_c, 0, 52, 80
1, 77385, Note_on_c, 0, 47, 81
1, 77430, Note_on_c, 0, 56, 89
1, 77447, Note_on_c, 0, 40, 0
1, 77490, Note_on_c, 0, 52, 0
1, 77517, Note_on_c, 0, 56, 0
1, 77520, Note_on_c, 0, 47, 0
1, 77592, Control_c, 0, 64, 127
1, 77602, Note_on_c, 0, 59, 81
1, 77605, Note_on_c, 0, 56, 80
1, 77607, Note_on_c, 0, 47, 72
1, 77692, Note_on_c, 0, 47, 0
1, 77712, Note_on_c, 0, 56, 0
1, 77737, Note_on_c, 0, 59, 0
1, 77820, Note_on_c, 0, 59, 72
1, 77822, Note_on_c, 0, 56, 70
1, 77825, Note_on_c, 0, 47, 62
1, 77882, Note_on_c, 0, 56, 0
1, 77920, Control_c, 0, 64, 0
1, 77955, Note_on_c, 0, 47, 0
1, 77975, Note_on_c, 0, 59, 0
1, 78035, Note_on_c, 0, 52, 70
1, 78060, Note_on_c, 0, 56, 78
1, 78065, Note_on_c, 0, 40, 71
1, 78087, Note_on_c, 0, 47, 70
1, 78150, Note_on_c, 0, 40, 0
1, 78165, Note_on_c, 0, 52, 0
1, 78192, Note_on_c, 0, 47, 0
1, 78195, Control_c, 0, 64, 127
1, 78287, Note_on_c, 0, 56, 0
1, 78442, Note_on_c, 0, 56, 67
1, 78462, Note_on_c, 0, 59, 63
1, 78490, Note_on_c, 0, 47, 55
1, 78497, Note_on_c, 0, 56, 0
1, 78520, Note_on_c, 0, 59, 0
1, 78655, Control_c, 0, 64, 0
1, 78727, Note_on_c, 0, 40, 57
1, 78735, Note_on_c, 0, 47, 0
1, 78810, Note_on_c, 0, 40, 0
1, 78822, Note_on_c, 0, 47, 60
1, 78882, Note_on_c, 0, 47, 0
1, 78882, Note_on_c, 0, 76, 74
1, 78885, Note_on_c, 0, 80, 75
1, 78887, Note_on_c, 0, 68, 75
1, 78945, Note_on_c, 0, 76, 0
1, 79007, Control_c, 0, 64, 127
1, 79020, Note_on_c, 0, 68, 0
1, 79020, Note_on_c, 0, 80, 0
1, 79232, Note_on_c, 0, 76, 64
1, 79232, Note_on_c, 0, 83, 64
1, 79242, Note_on_c, 0, 56, 55
1, 79260, Note_on_c, 0, 71, 60
1, 79260, Note_on_c, 0, 64, 59
1, 79320, Note_on_c, 0, 56, 0
1, 79342, Note_on_c, 0, 64, 0
1, 79362, Note_on_c, 0, 71, 0
1, 79362, Note_on_c, 0, 76, 0
1, 79385, Note_on_c, 0, 83, 0
1, 79470, Note_on_c, 0, 83, 59
1, 79475, Note_on_c, 0, 64, 57
1, 79492, Note_on_c, 0, 76, 60
1, 79495, Note_on_c, 0, 71, 61
1, 79500, Note_on_c, 0, 56, 55
1, 79595, Control_c, 0, 64, 0
1, 79597, Note_on_c, 0, 71, 0
1, 79602, Note_on_c, 0, 64, 0
1, 79620, Note_on_c, 0, 76, 0
1, 79627, Note_on_c, 0, 56, 0
1, 79645, Note_on_c, 0, 83, 0
1, 79660, Note_on_c, 0, 59, 57
1, 79685, Note_on_c, 0, 54, 57
1, 79700, Note_on_c, 0, 75, 67
1, 79725, Note_on_c, 0, 81, 71
1, 79727, Note_on_c, 0, 69, 70
1, 79765, Note_on_c, 0, 59, 0
1, 79785, Note_on_c, 0, 69, 0
1, 79785, Note_on_c, 0, 75, 0
1, 79805, Note_on_c, 0, 81, 0
1, 79860, Control_c, 0, 64, 127
1, 79940, Note_on_c, 0, 57, 52
1, 79952, Note_on_c, 0, 54, 0
1, 80032, Note_on_c, 0, 63, 52
1, 80065, Note_on_c, 0, 57, 0
1, 80117, Note_on_c, 0, 85, 59
1, 80137, Note_on_c, 0, 63, 0
1, 80142, Note_on_c, 0, 73, 54
1, 80175, Note_on_c, 0, 85, 0
1, 80225, Note_on_c, 0, 73, 0
1, 80325, Control_c, 0, 64, 0
1, 80427, Note_on_c, 0, 40, 51
1, 80472, Note_on_c, 0, 47, 54
1, 80535, Note_on_c, 0, 40, 0
1, 80562, Note_on_c, 0, 47, 0
1, 80615, Note_on_c, 0, 76, 68
1, 80615, Note_on_c, 0, 83, 72
1, 80617, Note_on_c, 0, 71, 71
1, 80640, Note_on_c, 0, 80, 70
1, 80715, Control_c, 0, 64, 127
1, 80872, Note_on_c, 0, 59, 54
1, 80890, Note_on_c, 0, 68, 57
1, 80952, Note_on_c, 0, 59, 0
1, 80995, Note_on_c, 0, 68, 0
1, 81015, Note_on_c, 0, 76, 0
1, 81082, Note_on_c, 0, 59, 52
1, 81105, Note_on_c, 0, 68, 58
1, 81115, Note_on_c, 0, 71, 0
1, 81135, Note_on_c, 0, 80, 0
1, 81167, Note_on_c, 0, 59, 0
1, 81210, Note_on_c, 0, 68, 0
1, 81350, Note_on_c, 0, 56, 52
1, 81370, Note_on_c, 0, 64, 52
1, 81400, Note_on_c, 0, 83, 0
1, 81502, Note_on_c, 0, 56, 0
1, 81547, Note_on_c, 0, 64, 0
1, 81672, Note_on_c, 0, 85, 59
1, 81700, Note_on_c, 0, 73, 62
1, 81825, Note_on_c, 0, 68, 59
1, 81827, Note_on_c, 0, 59, 48
1, 81902, Note_on_c, 0, 85, 0
1, 81905, Note_on_c, 0, 73, 0
1, 81907, Note_on_c, 0, 68, 0
1, 81912, Note_on_c, 0, 59, 0
1, 81995, Note_on_c, 0, 83, 59
1, 82020, Note_on_c, 0, 71, 54
1, 82047, Control_c, 0, 64, 0
1, 82132, Note_on_c, 0, 83, 0
1, 82182, Note_on_c, 0, 71, 0
1, 82187, Note_on_c, 0, 40, 55
1, 82205, Note_on_c, 0, 47, 56
1, 82290, Note_on_c, 0, 47, 0
1, 82295, Note_on_c, 0, 40, 0
1, 82345, Note_on_c, 0, 75, 70
1, 82345, Note_on_c, 0, 80, 72
1, 82347, Note_on_c, 0, 68, 72
1, 82390, Control_c, 0, 64, 127
1, 82635, Note_on_c, 0, 69, 65
1, 82637, Note_on_c, 0, 63, 52
1, 82640, Note_on_c, 0, 59, 48
1, 82740, Note_on_c, 0, 69, 0
1, 82745, Note_on_c, 0, 59, 0
1, 82792, Note_on_c, 0, 63, 0
1, 82900, Note_on_c, 0, 69, 54
1, 82905, Note_on_c, 0, 59, 48
1, 82952, Note_on_c, 0, 63, 52
1, 82987, Note_on_c, 0, 59, 0
1, 83032, Note_on_c, 0, 69, 0
1, 83052, Note_on_c, 0, 80, 0
1, 83082, Note_on_c, 0, 63, 0
1, 83100, Note_on_c, 0, 68, 0
1, 83147, Note_on_c, 0, 75, 0
1, 83170, Control_c, 0, 64, 0
1, 83230, Note_on_c, 0, 66, 52
1, 83250, Note_on_c, 0, 78, 56
1, 83252, Note_on_c, 0, 75, 56
1, 83257, Note_on_c, 0, 63, 52
1, 83280, Note_on_c, 0, 57, 48
1, 83435, Control_c, 0, 64, 127
1, 83452, Note_on_c, 0, 75, 0
1, 83452, Note_on_c, 0, 78, 0
1, 83457, Note_on_c, 0, 57, 0
1, 83507, Note_on_c, 0, 63, 0
1, 83527, Note_on_c, 0, 66, 0
1, 83717, Note_on_c, 0, 69, 57
1, 83720, Note_on_c, 0, 63, 52
1, 83775, Note_on_c, 0, 69, 0
1, 83825, Note_on_c, 0, 63, 0
1, 84055, Control_c, 0, 64, 0
1, 84082, Note_on_c, 0, 40, 48
1, 84105, Note_on_c, 0, 47, 48
1, 84120, Note_on_c, 0, 76, 66
1, 84145, Note_on_c, 0, 68, 64
1, 84147, Note_on_c, 0, 64, 63
1, 84167, Note_on_c, 0, 40, 0
1, 84260, Note_on_c, 0, 47, 0
1, 84365, Note_on_c, 0, 56, 48
1, 84367, Note_on_c, 0, 47, 48
1, 84377, Control_c, 0, 64, 127
1, 84420, Note_on_c, 0, 76, 0
1, 84425, Note_on_c, 0, 56, 0
1, 84427, Note_on_c, 0, 47, 0
1, 84472, Note_on_c, 0, 68, 0
1, 84560, Note_on_c, 0, 56, 48
1, 84567, Note_on_c, 0, 64, 0
1, 84587, Note_on_c, 0, 47, 48
1, 84632, Control_c, 0, 64, 0
1, 84642, Note_on_c, 0, 56, 0
1, 84690, Note_on_c, 0, 47, 0
1, 84780, Note_on_c, 0, 47, 50
1, 84790, Note_on_c, 0, 71, 65
1, 84792, Note_on_c, 0, 68, 65
1, 84795, Note_on_c, 0, 64, 67
1, 84805, Note_on_c, 0, 40, 53
1, 84835, Note_on_c, 0, 47, 0
1, 84887, Note_on_c, 0, 40, 0
1, 84930, Control_c, 0, 64, 127
1, 84995, Note_on_c, 0, 71, 0
1, 84997, Note_on_c, 0, 68, 0
1, 84997, Note_on_c, 0, 64, 0
1, 85085, Note_on_c, 0, 66, 62
1, 85115, Note_on_c, 0, 56, 60
1, 85117, Note_on_c, 0, 47, 60
1, 85190, Note_on_c, 0, 68, 58
1, 85197, Note_on_c, 0, 66, 0
1, 85202, Note_on_c, 0, 47, 0
1, 85227, Note_on_c, 0, 56, 0
1, 85237, Note_on_c, 0, 69, 64
1, 85250, Note_on_c, 0, 68, 0
1, 85332, Note_on_c, 0, 71, 69
1, 85370, Note_on_c, 0, 69, 0
1, 85407, Control_c, 0, 64, 0
1, 85417, Note_on_c, 0, 71, 0
1, 85452, Note_on_c, 0, 76, 69
1, 85455, Note_on_c, 0, 69, 70
1, 85455, Note_on_c, 0, 73, 71
1, 85487, Note_on_c, 0, 52, 60
1, 85512, Note_on_c, 0, 45, 60
1, 85542, Note_on_c, 0, 52, 0
1, 85582, Control_c, 0, 64, 127
1, 85595, Note_on_c, 0, 45, 0
1, 85675, Note_on_c, 0, 69, 0
1, 85710, Note_on_c, 0, 71, 67
1, 85720, Note_on_c, 0, 73, 0
1, 85720, Note_on_c, 0, 76, 0
1, 85740, Note_on_c, 0, 61, 65
1, 85740, Note_on_c, 0, 52, 60
1, 85795, Note_on_c, 0, 71, 0
1, 85800, Note_on_c, 0, 52, 0
1, 85807, Note_on_c, 0, 69, 67
1, 85822, Note_on_c, 0, 61, 0
1, 85887, Note_on_c, 0, 69, 0
1, 85925, Note_on_c, 0, 68, 65
1, 85985, Note_on_c, 0, 68, 0
1, 85997, Note_on_c, 0, 66, 65
1, 86000, Control_c, 0, 64, 0
1, 86065, Note_on_c, 0, 71, 64
1, 86077, Note_on_c, 0, 40, 59
1, 86080, Note_on_c, 0, 66, 0
1, 86092, Note_on_c, 0, 68, 58
1, 86095, Note_on_c, 0, 64, 57
1, 86097, Note_on_c, 0, 52, 60
1, 86135, Note_on_c, 0, 40, 0
1, 86155, Note_on_c, 0, 52, 0
1, 86247, Control_c, 0, 64, 127
1, 86285, Note_on_c, 0, 71, 0
1, 86287, Note_on_c, 0, 68, 0
1, 86287, Note_on_c, 0, 64, 0
1, 86372, Note_on_c, 0, 66, 62
1, 86377, Note_on_c, 0, 52, 60
1, 86380, Note_on_c, 0, 56, 60
1, 86422, Note_on_c, 0, 68, 59
1, 86480, Note_on_c, 0, 66, 0
1, 86492, Note_on_c, 0, 69, 58
1, 86497, Control_c, 0, 64, 0
1, 86510, Note_on_c, 0, 56, 0
1, 86527, Note_on_c, 0, 68, 0
1, 86587, Note_on_c, 0, 71, 65
1, 86600, Note_on_c, 0, 69, 0
1, 86607, Note_on_c, 0, 52, 0
1, 86700, Note_on_c, 0, 71, 0
1, 86712, Note_on_c, 0, 76, 74
1, 86715, Note_on_c, 0, 69, 74
1, 86720, Note_on_c, 0, 52, 66
1, 86725, Note_on_c, 0, 45, 68
1, 86740, Note_on_c, 0, 73, 72
1, 86800, Note_on_c, 0, 69, 0
1, 86805, Note_on_c, 0, 52, 0
1, 86810, Note_on_c, 0, 45, 0
1, 86837, Note_on_c, 0, 71, 78
1, 86857, Control_c, 0, 64, 127
1, 86892, Note_on_c, 0, 61, 76
1, 86895, Note_on_c, 0, 52, 69
1, 86897, Note_on_c, 0, 76, 0
1, 86900, Note_on_c, 0, 73, 0
1, 86940, Note_on_c, 0, 69, 72
1, 86947, Note_on_c, 0, 71, 0
1, 86980, Note_on_c, 0, 52, 0
1, 86997, Note_on_c, 0, 69, 0
1, 87000, Note_on_c, 0, 61, 0
1, 87037, Note_on_c, 0, 68, 68
1, 87107, Note_on_c, 0, 66, 64
1, 87115, Control_c, 0, 64, 0
1, 87180, Note_on_c, 0, 64, 69
1, 87187, Note_on_c, 0, 68, 0
1, 87190, Note_on_c, 0, 35, 72
1, 87212, Note_on_c, 0, 66, 0
1, 87252, Note_on_c, 0, 47, 78
1, 87270, Note_on_c, 0, 35, 0
1, 87282, Note_on_c, 0, 64, 0
1, 87292, Note_on_c, 0, 71, 81
1, 87310, Note_on_c, 0, 47, 0
1, 87315, Note_on_c, 0, 66, 84
1, 87445, Control_c, 0, 64, 127
1, 87480, Note_on_c, 0, 54, 70
1, 87500, Note_on_c, 0, 63, 72
1, 87560, Note_on_c, 0, 54, 0
1, 87585, Note_on_c, 0, 63, 0
1, 87662, Note_on_c, 0, 63, 67
1, 87690, Note_on_c, 0, 54, 59
1, 87745, Note_on_c, 0, 63, 0
1, 87772, Note_on_c, 0, 54, 0
1, 87887, Note_on_c, 0, 47, 61
1, 87907, Note_on_c, 0, 54, 57
1, 87967, Note_on_c, 0, 47, 0
1, 87990, Note_on_c, 0, 66, 0
1, 88010, Note_on_c, 0, 71, 0
1, 88017, Note_on_c, 0, 54, 0
1, 88277, Note_on_c, 0, 63, 64
1, 88282, Note_on_c, 0, 54, 55
1, 88365, Note_on_c, 0, 63, 0
1, 88490, Note_on_c, 0, 54, 0
1, 88527, Note_on_c, 0, 47, 55
1, 88570, Note_on_c, 0, 59, 54
1, 88575, Note_on_c, 0, 54, 57
1, 88612, Note_on_c, 0, 47, 0
1, 88655, Note_on_c, 0, 59, 0
1, 88727, Note_on_c, 0, 54, 0
1, 88782, Note_on_c, 0, 66, 60
1, 88785, Note_on_c, 0, 63, 62
1, 88810, Note_on_c, 0, 54, 59
1, 88862, Note_on_c, 0, 66, 0
1, 88865, Note_on_c, 0, 63, 0
1, 88867, Note_on_c, 0, 54, 0
1, 88947, Note_on_c, 0, 63, 72
1, 88947, Note_on_c, 0, 66, 68
1, 88952, Note_on_c, 0, 54, 68
1, 89082, Note_on_c, 0, 54, 0
1, 89102, Note_on_c, 0, 63, 0
1, 89165, Note_on_c, 0, 61, 67
1, 89167, Note_on_c, 0, 54, 59
1, 89172, Note_on_c, 0, 66, 0
1, 89187, Note_on_c, 0, 64, 77
1, 89275, Note_on_c, 0, 54, 0
1, 89317, Note_on_c, 0, 64, 0
1, 89430, Control_c, 0, 64, 0
1, 89457, Note_on_c, 0, 54, 55
1, 89477, Note_on_c, 0, 64, 77
1, 89487, Note_on_c, 0, 61, 0
1, 89500, Note_on_c, 0, 68, 80
1, 89585, Note_on_c, 0, 54, 0
1, 89610, Note_on_c, 0, 64, 0
1, 89730, Note_on_c, 0, 59, 64
1, 89787, Note_on_c, 0, 68, 0
1, 89877, Note_on_c, 0, 66, 78
1, 89905, Note_on_c, 0, 63, 65
1, 89985, Note_on_c, 0, 66, 0
1, 90010, Note_on_c, 0, 63, 0
1, 90012, Control_c, 0, 64, 127
1, 90142, Note_on_c, 0, 61, 65
1, 90240, Note_on_c, 0, 63, 65
1, 90300, Note_on_c, 0, 61, 0
1, 90310, Note_on_c, 0, 64, 65
1, 90320, Note_on_c, 0, 63, 0
1, 90337, Control_c, 0, 64, 0
1, 90402, Note_on_c, 0, 66, 65
1, 90495, Note_on_c, 0, 71, 69
1, 90497, Note_on_c, 0, 68, 74
1, 90502, Note_on_c, 0, 52, 70
1, 90557, Note_on_c, 0, 66, 0
1, 90560, Note_on_c, 0, 59, 0
1, 90605, Note_on_c, 0, 64, 0
1, 90607, Note_on_c, 0, 52, 0
1, 90680, Control_c, 0, 64, 127
1, 90715, Note_on_c, 0, 66, 67
1, 90785, Note_on_c, 0, 64, 64
1, 90792, Note_on_c, 0, 71, 0
1, 90795, Note_on_c, 0, 68, 0
1, 90795, Note_on_c, 0, 66, 0
1, 90867, Note_on_c, 0, 64, 0
1, 90880, Note_on_c, 0, 63, 65
1, 90927, Control_c, 0, 64, 0
1, 90952, Note_on_c, 0, 61, 65
1, 90960, Note_on_c, 0, 35, 67
1, 90982, Note_on_c, 0, 63, 0
1, 91020, Note_on_c, 0, 59, 60
1, 91025, Note_on_c, 0, 47, 67
1, 91030, Note_on_c, 0, 61, 0
1, 91062, Note_on_c, 0, 35, 0
1, 91077, Note_on_c, 0, 59, 0
1, 91080, Note_on_c, 0, 47, 0
1, 91085, Note_on_c, 0, 71, 66
1, 91142, Note_on_c, 0, 71, 0
1, 91200, Control_c, 0, 64, 127
1, 91257, Note_on_c, 0, 78, 58
1, 91262, Note_on_c, 0, 54, 53
1, 91285, Note_on_c, 0, 66, 58
1, 91340, Note_on_c, 0, 78, 0
1, 91342, Note_on_c, 0, 66, 0
1, 91347, Note_on_c, 0, 54, 0
1, 91407, Note_on_c, 0, 63, 61
1, 91427, Note_on_c, 0, 78, 65
1, 91435, Note_on_c, 0, 66, 64
1, 91437, Note_on_c, 0, 54, 57
1, 91495, Note_on_c, 0, 63, 0
1, 91515, Note_on_c, 0, 66, 0
1, 91520, Note_on_c, 0, 54, 0
1, 91535, Note_on_c, 0, 78, 0
1, 91597, Note_on_c, 0, 76, 58
1, 91602, Note_on_c, 0, 61, 58
1, 91602, Note_on_c, 0, 64, 56
1, 91605, Note_on_c, 0, 54, 52
1, 91660, Note_on_c, 0, 64, 0
1, 91680, Note_on_c, 0, 76, 0
1, 91710, Note_on_c, 0, 54, 0
1, 91732, Note_on_c, 0, 61, 0
1, 91860, Note_on_c, 0, 64, 62
1, 91862, Note_on_c, 0, 54, 55
1, 91877, Note_on_c, 0, 80, 68
1, 91880, Note_on_c, 0, 68, 65
1, 91957, Note_on_c, 0, 80, 0
1, 91960, Note_on_c, 0, 68, 0
1, 91962, Note_on_c, 0, 64, 0
1, 91987, Note_on_c, 0, 54, 0
1, 92100, Control_c, 0, 64, 0
1, 92120, Note_on_c, 0, 54, 64
1, 92122, Note_on_c, 0, 47, 65
1, 92160, Note_on_c, 0, 75, 74
1, 92182, Note_on_c, 0, 78, 70
1, 92185, Note_on_c, 0, 71, 69
1, 92275, Note_on_c, 0, 47, 0
1, 92287, Note_on_c, 0, 75, 0
1, 92307, Note_on_c, 0, 78, 0
1, 92317, Note_on_c, 0, 54, 0
1, 92402, Note_on_c, 0, 71, 0
1, 92410, Control_c, 0, 64, 127
1, 92440, Note_on_c, 0, 73, 61
1, 92445, Note_on_c, 0, 63, 65
1, 92470, Note_on_c, 0, 54, 60
1, 92502, Note_on_c, 0, 63, 0
1, 92510, Note_on_c, 0, 75, 64
1, 92550, Note_on_c, 0, 54, 0
1, 92570, Note_on_c, 0, 75, 0
1, 92570, Note_on_c, 0, 73, 0
1, 92580, Note_on_c, 0, 76, 65
1, 92652, Note_on_c, 0, 78, 67
1, 92660, Control_c, 0, 64, 0
1, 92690, Note_on_c, 0, 76, 0
1, 92735, Note_on_c, 0, 78, 0
1, 92750, Note_on_c, 0, 83, 74
1, 92775, Note_on_c, 0, 76, 71
1, 92775, Note_on_c, 0, 80, 70
1, 92787, Note_on_c, 0, 40, 60
1, 92812, Note_on_c, 0, 47, 60
1, 92872, Note_on_c, 0, 40, 0
1, 92892, Note_on_c, 0, 47, 0
1, 92907, Note_on_c, 0, 76, 0
1, 92940, Control_c, 0, 64, 127
1, 92982, Note_on_c, 0, 47, 60
1, 92997, Note_on_c, 0, 78, 67
1, 93002, Note_on_c, 0, 56, 60
1, 93030, Note_on_c, 0, 80, 0
1, 93030, Note_on_c, 0, 83, 0
1, 93060, Note_on_c, 0, 56, 0
1, 93062, Note_on_c, 0, 47, 0
1, 93065, Note_on_c, 0, 76, 71
1, 93097, Note_on_c, 0, 78, 0
1, 93122, Note_on_c, 0, 76, 0
1, 93160, Note_on_c, 0, 75, 67
1, 93190, Control_c, 0, 64, 0
1, 93252, Note_on_c, 0, 73, 67
1, 93315, Note_on_c, 0, 35, 62
1, 93322, Note_on_c, 0, 75, 0
1, 93335, Note_on_c, 0, 47, 65
1, 93347, Note_on_c, 0, 71, 71
1, 93370, Note_on_c, 0, 35, 0
1, 93380, Note_on_c, 0, 73, 0
1, 93387, Note_on_c, 0, 47, 0
1, 93425, Note_on_c, 0, 71, 0
1, 93480, Control_c, 0, 64, 127
1, 93507, Note_on_c, 0, 71, 81
1, 93507, Note_on_c, 0, 78, 82
1, 93512, Note_on_c, 0, 66, 82
1, 93537, Note_on_c, 0, 63, 85
1, 93560, Note_on_c, 0, 54, 79
1, 93587, Note_on_c, 0, 78, 0
1, 93590, Note_on_c, 0, 71, 0
1, 93592, Note_on_c, 0, 66, 0
1, 93595, Note_on_c, 0, 63, 0
1, 93620, Note_on_c, 0, 54, 0
1, 93672, Note_on_c, 0, 78, 95
1, 93677, Note_on_c, 0, 66, 96
1, 93680, Note_on_c, 0, 63, 94
1, 93700, Note_on_c, 0, 71, 98
1, 93707, Note_on_c, 0, 54, 88
1, 93780, Note_on_c, 0, 71, 0
1, 93780, Note_on_c, 0, 78, 0
1, 93782, Note_on_c, 0, 66, 0
1, 93782, Note_on_c, 0, 63, 0
1, 93810, Note_on_c, 0, 54, 0
1, 93860, Note_on_c, 0, 76, 101
1, 93862, Note_on_c, 0, 71, 104
1, 93867, Note_on_c, 0, 64, 104
1, 93870, Note_on_c, 0, 61, 100
1, 93895, Note_on_c, 0, 54, 92
1, 93947, Note_on_c, 0, 71, 0
1, 93947, Note_on_c, 0, 76, 0
1, 93950, Note_on_c, 0, 64, 0
1, 93977, Note_on_c, 0, 54, 0
1, 94002, Note_on_c, 0, 61, 0
1, 94137, Note_on_c, 0, 64, 90
1, 94140, Note_on_c, 0, 54, 82
1, 94180, Note_on_c, 0, 71, 102
1, 94180, Note_on_c, 0, 80, 105
1, 94182, Note_on_c, 0, 68, 105
1, 94242, Note_on_c, 0, 64, 0
1, 94262, Note_on_c, 0, 71, 0
1, 94295, Note_on_c, 0, 54, 0
1, 94380, Control_c, 0, 64, 0
1, 94410, Note_on_c, 0, 47, 80
1, 94412, Note_on_c, 0, 80, 0
1, 94415, Note_on_c, 0, 68, 0
1, 94487, Note_on_c, 0, 54, 81
1, 94522, Note_on_c, 0, 47, 0
1, 94525, Note_on_c, 0, 78, 107
1, 94552, Note_on_c, 0, 75, 105
1, 94555, Note_on_c, 0, 66, 102
1, 94592, Note_on_c, 0, 54, 0
1, 94687, Control_c, 0, 64, 127
1, 94720, Note_on_c, 0, 63, 84
1, 94722, Note_on_c, 0, 54, 75
1, 94800, Note_on_c, 0, 63, 0
1, 94802, Note_on_c, 0, 54, 0
1, 94885, Note_on_c, 0, 63, 81
1, 94887, Note_on_c, 0, 54, 72
1, 94935, Control_c, 0, 64, 0
1, 94982, Note_on_c, 0, 63, 0
1, 95010, Note_on_c, 0, 54, 0
1, 95030, Note_on_c, 0, 66, 0
1, 95092, Note_on_c, 0, 61, 75
1, 95095, Note_on_c, 0, 54, 71
1, 95242, Note_on_c, 0, 54, 0
1, 95245, Control_c, 0, 64, 127
1, 95265, Note_on_c, 0, 61, 0
1, 95270, Note_on_c, 0, 80, 89
1, 95272, Note_on_c, 0, 68, 89
1, 95330, Note_on_c, 0, 75, 0
1, 95360, Note_on_c, 0, 78, 0
1, 95392, Note_on_c, 0, 64, 84
1, 95420, Note_on_c, 0, 54, 75
1, 95450, Note_on_c, 0, 68, 0
1, 95472, Note_on_c, 0, 80, 0
1, 95475, Note_on_c, 0, 64, 0
1, 95527, Note_on_c, 0, 54, 0
1, 95532, Note_on_c, 0, 78, 84
1, 95562, Note_on_c, 0, 66, 87
1, 95662, Note_on_c, 0, 78, 0
1, 95662, Note_on_c, 0, 47, 66
1, 95667, Note_on_c, 0, 66, 0
1, 95707, Control_c, 0, 64, 0
1, 95735, Note_on_c, 0, 54, 72
1, 95757, Note_on_c, 0, 59, 73
1, 95777, Note_on_c, 0, 69, 85
1, 95777, Note_on_c, 0, 75, 86
1, 95782, Note_on_c, 0, 63, 82
1, 95865, Note_on_c, 0, 69, 0
1, 95867, Note_on_c, 0, 59, 0
1, 95867, Note_on_c, 0, 63, 0
1, 95870, Note_on_c, 0, 54, 0
1, 95902, Note_on_c, 0, 47, 0
1, 95982, Control_c, 0, 64, 127
1, 96007, Note_on_c, 0, 69, 94
1, 96010, Note_on_c, 0, 63, 91
1, 96012, Note_on_c, 0, 54, 82
1, 96015, Note_on_c, 0, 47, 82
1, 96035, Note_on_c, 0, 59, 81
1, 96092, Note_on_c, 0, 59, 0
1, 96092, Note_on_c, 0, 63, 0
1, 96095, Note_on_c, 0, 54, 0
1, 96110, Note_on_c, 0, 69, 0
1, 96197, Note_on_c, 0, 59, 75
1, 96197, Note_on_c, 0, 63, 80
1, 96200, Note_on_c, 0, 54, 72
1, 96215, Note_on_c, 0, 69, 81
1, 96320, Note_on_c, 0, 75, 0
1, 96325, Note_on_c, 0, 59, 0
1, 96327, Note_on_c, 0, 47, 0
1, 96367, Note_on_c, 0, 69, 0
1, 96372, Note_on_c, 0, 63, 0
1, 96375, Note_on_c, 0, 54, 0
1, 96452, Note_on_c, 0, 73, 81
1, 96455, Note_on_c, 0, 69, 86
1, 96457, Note_on_c, 0, 64, 87
1, 96460, Note_on_c, 0, 59, 68
1, 96465, Note_on_c, 0, 49, 69
1, 96470, Control_c, 0, 64, 0
1, 96540, Note_on_c, 0, 64, 0
1, 96540, Note_on_c, 0, 69, 0
1, 96542, Note_on_c, 0, 59, 0
1, 96595, Note_on_c, 0, 49, 0
1, 96715, Control_c, 0, 64, 127
1, 96790, Note_on_c, 0, 69, 75
1, 96792, Note_on_c, 0, 64, 71
1, 96817, Note_on_c, 0, 59, 60
1, 96820, Note_on_c, 0, 49, 59
1, 96845, Note_on_c, 0, 69, 0
1, 96845, Note_on_c, 0, 73, 0
1, 96877, Note_on_c, 0, 49, 0
1, 96897, Note_on_c, 0, 64, 0
1, 96900, Note_on_c, 0, 59, 0
1, 97007, Note_on_c, 0, 50, 55
1, 97102, Note_on_c, 0, 59, 55
1, 97105, Control_c, 0, 64, 0
1, 97145, Note_on_c, 0, 71, 71
1, 97150, Note_on_c, 0, 65, 71
1, 97172, Note_on_c, 0, 68, 71
1, 97210, Note_on_c, 0, 59, 0
1, 97212, Note_on_c, 0, 50, 0
1, 97257, Note_on_c, 0, 68, 0
1, 97285, Note_on_c, 0, 65, 0
1, 97352, Note_on_c, 0, 68, 65
1, 97377, Note_on_c, 0, 65, 62
1, 97380, Note_on_c, 0, 59, 55
1, 97382, Note_on_c, 0, 50, 55
1, 97462, Note_on_c, 0, 68, 0
1, 97465, Note_on_c, 0, 59, 0
1, 97465, Note_on_c, 0, 65, 0
1, 97470, Note_on_c, 0, 50, 0
1, 97552, Note_on_c, 0, 65, 65
1, 97572, Note_on_c, 0, 68, 65
1, 97575, Note_on_c, 0, 59, 60
1, 97602, Note_on_c, 0, 50, 60
1, 97655, Note_on_c, 0, 68, 0
1, 97660, Note_on_c, 0, 59, 0
1, 97682, Note_on_c, 0, 50, 0
1, 97705, Note_on_c, 0, 65, 0
1, 97790, Note_on_c, 0, 66, 64
1, 97792, Note_on_c, 0, 59, 60
1, 97812, Note_on_c, 0, 69, 67
1, 97817, Note_on_c, 0, 51, 60
1, 97847, Note_on_c, 0, 66, 0
1, 97870, Note_on_c, 0, 69, 0
1, 97872, Note_on_c, 0, 59, 0
1, 97875, Note_on_c, 0, 51, 0
1, 98150, Note_on_c, 0, 66, 64
1, 98170, Note_on_c, 0, 69, 61
1, 98175, Note_on_c, 0, 59, 55
1, 98200, Note_on_c, 0, 51, 55
1, 98230, Note_on_c, 0, 66, 0
1, 98250, Note_on_c, 0, 71, 0
1, 98252, Note_on_c, 0, 69, 0
1, 98257, Note_on_c, 0, 59, 0
1, 98280, Control_c, 0, 64, 127
1, 98347, Note_on_c, 0, 51, 0
1, 98362, Control_c, 0, 64, 0
1, 98455, Note_on_c, 0, 52, 47
1, 98525, Note_on_c, 0, 56, 50
1, 98547, Note_on_c, 0, 64, 60
1, 98572, Note_on_c, 0, 62, 58
1, 98700, Note_on_c, 0, 64, 0
1, 98725, Note_on_c, 0, 62, 0
1, 98727, Note_on_c, 0, 52, 0
1, 98730, Control_c, 0, 64, 127
1, 98752, Note_on_c, 0, 56, 0
1, 98860, Note_on_c, 0, 71, 70
1, 98887, Note_on_c, 0, 62, 70
1, 98890, Note_on_c, 0, 52, 64
1, 98890, Note_on_c, 0, 56, 64
1, 98970, Note_on_c, 0, 62, 0
1, 98972, Note_on_c, 0, 52, 0
1, 98997, Note_on_c, 0, 56, 0
1, 99012, Note_on_c, 0, 71, 0
1, 99060, Control_c, 0, 64, 0
1, 99100, Note_on_c, 0, 71, 71
1, 99102, Note_on_c, 0, 62, 70
1, 99127, Note_on_c, 0, 52, 64
1, 99127, Note_on_c, 0, 56, 64
1, 99182, Note_on_c, 0, 62, 0
1, 99185, Note_on_c, 0, 56, 0
1, 99210, Note_on_c, 0, 52, 0
1, 99357, Note_on_c, 0, 69, 70
1, 99360, Note_on_c, 0, 61, 70
1, 99362, Note_on_c, 0, 52, 64
1, 99392, Note_on_c, 0, 71, 0
1, 99392, Note_on_c, 0, 45, 64
1, 99492, Note_on_c, 0, 52, 0
1, 99495, Control_c, 0, 64, 127
1, 99515, Note_on_c, 0, 61, 0
1, 99520, Note_on_c, 0, 45, 0
1, 99580, Note_on_c, 0, 69, 0
1, 99742, Note_on_c, 0, 52, 63
1, 99757, Note_on_c, 0, 73, 71
1, 99762, Note_on_c, 0, 64, 70
1, 99767, Note_on_c, 0, 45, 64
1, 99797, Note_on_c, 0, 52, 0
1, 99847, Control_c, 0, 64, 0
1, 99890, Note_on_c, 0, 64, 0
1, 99965, Note_on_c, 0, 45, 0
1, 99980, Note_on_c, 0, 73, 0
1, 100155, Control_c, 0, 64, 127
1, 100170, Note_on_c, 0, 47, 56
1, 100185, Note_on_c, 0, 71, 67
1, 100190, Note_on_c, 0, 63, 65
1, 100192, Note_on_c, 0, 54, 60
1, 100267, Note_on_c, 0, 63, 0
1, 100287, Note_on_c, 0, 71, 0
1, 100662, Note_on_c, 0, 78, 56
1, 100720, Note_on_c, 0, 78, 0
1, 100752, Note_on_c, 0, 83, 56
1, 100800, Note_on_c, 0, 78, 54
1, 100822, Note_on_c, 0, 47, 0
1, 100852, Note_on_c, 0, 71, 58
1, 100865, Note_on_c, 0, 54, 0
1, 100880, Note_on_c, 0, 78, 0
1, 100882, Note_on_c, 0, 83, 0
1, 100907, Note_on_c, 0, 71, 0
1, 100957, Note_on_c, 0, 71, 61
1, 101060, Note_on_c, 0, 66, 60
1, 101157, Note_on_c, 0, 59, 55
1, 101185, Note_on_c, 0, 71, 0
1, 101212, Note_on_c, 0, 66, 0
1, 101237, Note_on_c, 0, 59, 0
1, 101277, Note_on_c, 0, 54, 55
1, 101280, Note_on_c, 0, 47, 55
1, 101345, Control_c, 0, 64, 0
1, 101400, Note_on_c, 0, 47, 0
1, 101400, Note_on_c, 0, 54, 0
1, 101432, Note_on_c, 0, 52, 61
1, 101477, Note_on_c, 0, 62, 68
1, 101477, Note_on_c, 0, 64, 60
1, 101505, Note_on_c, 0, 56, 63
1, 101560, Note_on_c, 0, 64, 0
1, 101562, Note_on_c, 0, 56, 0
1, 101562, Note_on_c, 0, 62, 0
1, 101585, Note_on_c, 0, 52, 0
1, 101642, Note_on_c, 0, 71, 61
1, 101682, Control_c, 0, 64, 127
1, 101695, Note_on_c, 0, 62, 61
1, 101697, Note_on_c, 0, 56, 55
1, 101717, Note_on_c, 0, 52, 55
1, 101772, Note_on_c, 0, 62, 0
1, 101775, Note_on_c, 0, 56, 0
1, 101795, Note_on_c, 0, 71, 0
1, 101800, Note_on_c, 0, 52, 0
1, 101860, Control_c, 0, 64, 0
1, 101862, Note_on_c, 0, 62, 68
1, 101882, Note_on_c, 0, 71, 70
1, 101887, Note_on_c, 0, 56, 64
1, 101912, Note_on_c, 0, 52, 64
1, 101942, Note_on_c, 0, 62, 0
1, 101970, Note_on_c, 0, 56, 0
1, 101995, Note_on_c, 0, 52, 0
1, 102037, Note_on_c, 0, 71, 0
1, 102097, Note_on_c, 0, 69, 70
1, 102100, Note_on_c, 0, 61, 70
1, 102102, Note_on_c, 0, 52, 64
1, 102127, Note_on_c, 0, 45, 64
1, 102152, Note_on_c, 0, 69, 0
1, 102180, Note_on_c, 0, 52, 0
1, 102202, Note_on_c, 0, 61, 0
1, 102205, Control_c, 0, 64, 127
1, 102207, Note_on_c, 0, 45, 0
1, 102485, Note_on_c, 0, 73, 71
1, 102490, Note_on_c, 0, 64, 70
1, 102492, Note_on_c, 0, 52, 64
1, 102522, Note_on_c, 0, 45, 64
1, 102572, Note_on_c, 0, 52, 0
1, 102595, Note_on_c, 0, 64, 0
1, 102622, Note_on_c, 0, 45, 0
1, 102657, Control_c, 0, 64, 0
1, 102660, Note_on_c, 0, 73, 0
1, 102885, Note_on_c, 0, 71, 70
1, 102890, Note_on_c, 0, 63, 52
1, 102892, Note_on_c, 0, 54, 48
1, 102895, Note_on_c, 0, 47, 48
1, 102965, Note_on_c, 0, 71, 0
1, 102967, Note_on_c, 0, 63, 0
1, 102972, Control_c, 0, 64, 127
1, 103295, Note_on_c, 0, 78, 52
1, 103380, Note_on_c, 0, 78, 0
1, 103397, Note_on_c, 0, 83, 57
1, 103497, Note_on_c, 0, 78, 54
1, 103555, Note_on_c, 0, 83, 0
1, 103572, Note_on_c, 0, 71, 61
1, 103580, Note_on_c, 0, 78, 0
1, 103610, Note_on_c, 0, 71, 0
1, 103615, Note_on_c, 0, 47, 0
1, 103667, Note_on_c, 0, 71, 67
1, 103780, Note_on_c, 0, 54, 0
1, 103787, Note_on_c, 0, 66, 61
1, 103817, Note_on_c, 0, 71, 0
1, 103860, Note_on_c, 0, 59, 52
1, 103890, Note_on_c, 0, 66, 0
1, 103917, Note_on_c, 0, 59, 0
1, 103955, Note_on_c, 0, 54, 56
1, 104050, Note_on_c, 0, 47, 56
1, 104057, Note_on_c, 0, 54, 0
1, 104130, Note_on_c, 0, 47, 0
1, 104162, Control_c, 0, 64, 0
1, 104230, Note_on_c, 0, 66, 52
1, 104232, Note_on_c, 0, 64, 50
1, 104257, Note_on_c, 0, 61, 57
1, 104315, Note_on_c, 0, 33, 53
1, 104335, Note_on_c, 0, 45, 55
1, 104455, Note_on_c, 0, 64, 0
1, 104457, Note_on_c, 0, 61, 0
1, 104537, Note_on_c, 0, 69, 61
1, 104540, Note_on_c, 0, 64, 59
1, 104542, Note_on_c, 0, 61, 62
1, 104575, Note_on_c, 0, 66, 0
1, 104585, Note_on_c, 0, 33, 0
1, 104630, Note_on_c, 0, 45, 0
1, 104652, Control_c, 0, 64, 127
1, 104672, Note_on_c, 0, 64, 0
1, 104717, Note_on_c, 0, 69, 0
1, 104722, Note_on_c, 0, 61, 0
1, 104807, Note_on_c, 0, 69, 62
1, 104810, Note_on_c, 0, 64, 59
1, 104837, Note_on_c, 0, 61, 58
1, 104922, Note_on_c, 0, 61, 0
1, 104922, Note_on_c, 0, 64, 0
1, 104940, Note_on_c, 0, 69, 0
1, 104987, Control_c, 0, 64, 0
1, 105010, Note_on_c, 0, 59, 55
1, 105035, Note_on_c, 0, 68, 65
1, 105037, Note_on_c, 0, 64, 67
1, 105060, Note_on_c, 0, 71, 67
1, 105150, Note_on_c, 0, 76, 65
1, 105187, Note_on_c, 0, 71, 0
1, 105192, Note_on_c, 0, 59, 0
1, 105212, Note_on_c, 0, 76, 0
1, 105265, Note_on_c, 0, 64, 0
1, 105297, Note_on_c, 0, 71, 67
1, 105330, Note_on_c, 0, 71, 0
1, 105342, Note_on_c, 0, 76, 67
1, 105412, Note_on_c, 0, 71, 67
1, 105420, Note_on_c, 0, 76, 0
1, 105447, Note_on_c, 0, 68, 0
1, 105462, Note_on_c, 0, 64, 60
1, 105482, Note_on_c, 0, 59, 57
1, 105490, Note_on_c, 0, 71, 0
1, 105587, Note_on_c, 0, 59, 0
1, 105610, Note_on_c, 0, 64, 0
1, 105720, Note_on_c, 0, 64, 62
1, 105740, Note_on_c, 0, 66, 65
1, 105765, Note_on_c, 0, 61, 58
1, 105797, Note_on_c, 0, 33, 52
1, 105840, Note_on_c, 0, 45, 51
1, 105867, Note_on_c, 0, 64, 0
1, 105892, Note_on_c, 0, 66, 0
1, 105895, Note_on_c, 0, 61, 0
1, 105900, Control_c, 0, 64, 127
1, 105952, Note_on_c, 0, 33, 0
1, 105975, Note_on_c, 0, 69, 60
1, 105977, Note_on_c, 0, 64, 59
1, 105980, Note_on_c, 0, 61, 52
1, 106020, Note_on_c, 0, 45, 0
1, 106107, Note_on_c, 0, 64, 0
1, 106130, Note_on_c, 0, 69, 0
1, 106132, Note_on_c, 0, 61, 0
1, 106240, Note_on_c, 0, 64, 59
1, 106242, Note_on_c, 0, 61, 59
1, 106262, Note_on_c, 0, 69, 57
1, 106325, Note_on_c, 0, 61, 0
1, 106350, Note_on_c, 0, 64, 0
1, 106372, Note_on_c, 0, 69, 0
1, 106487, Note_on_c, 0, 59, 55
1, 106505, Note_on_c, 0, 71, 69
1, 106510, Note_on_c, 0, 64, 69
1, 106515, Control_c, 0, 64, 0
1, 106535, Note_on_c, 0, 68, 71
1, 106622, Note_on_c, 0, 76, 70
1, 106635, Note_on_c, 0, 71, 0
1, 106640, Note_on_c, 0, 59, 0
1, 106680, Note_on_c, 0, 76, 0
1, 106715, Note_on_c, 0, 71, 67
1, 106752, Note_on_c, 0, 64, 0
1, 106775, Note_on_c, 0, 71, 0
1, 106787, Note_on_c, 0, 76, 67
1, 106790, Control_c, 0, 64, 127
1, 106862, Note_on_c, 0, 71, 65
1, 106872, Note_on_c, 0, 76, 0
1, 106942, Note_on_c, 0, 71, 0
1, 106957, Note_on_c, 0, 64, 62
1, 106960, Note_on_c, 0, 59, 57
1, 107015, Note_on_c, 0, 68, 0
1, 107160, Note_on_c, 0, 59, 0
1, 107197, Control_c, 0, 64, 0
1, 107205, Note_on_c, 0, 64, 0
1, 107287, Note_on_c, 0, 64, 75
1, 107295, Note_on_c, 0, 45, 63
1, 107310, Note_on_c, 0, 66, 72
1, 107312, Note_on_c, 0, 61, 68
1, 107350, Note_on_c, 0, 45, 0
1, 107367, Note_on_c, 0, 64, 0
1, 107390, Note_on_c, 0, 66, 0
1, 107412, Note_on_c, 0, 61, 0
1, 107492, Note_on_c, 0, 69, 67
1, 107497, Note_on_c, 0, 64, 64
1, 107500, Note_on_c, 0, 52, 57
1, 107520, Note_on_c, 0, 61, 64
1, 107577, Note_on_c, 0, 69, 0
1, 107580, Note_on_c, 0, 64, 0
1, 107580, Note_on_c, 0, 52, 0
1, 107605, Note_on_c, 0, 61, 0
1, 107665, Note_on_c, 0, 64, 62
1, 107687, Note_on_c, 0, 69, 61
1, 107692, Note_on_c, 0, 52, 54
1, 107692, Note_on_c, 0, 61, 58
1, 107770, Note_on_c, 0, 64, 0
1, 107772, Note_on_c, 0, 61, 0
1, 107797, Note_on_c, 0, 52, 0
1, 107820, Note_on_c, 0, 69, 0
1, 107912, Note_on_c, 0, 64, 59
1, 107915, Note_on_c, 0, 59, 55
1, 107917, Note_on_c, 0, 47, 55
1, 107935, Note_on_c, 0, 68, 62
1, 108000, Note_on_c, 0, 47, 0
1, 108015, Note_on_c, 0, 68, 0
1, 108017, Note_on_c, 0, 59, 0
1, 108017, Note_on_c, 0, 64, 0
1, 108287, Note_on_c, 0, 66, 58
1, 108290, Note_on_c, 0, 63, 60
1, 108292, Note_on_c, 0, 57, 55
1, 108297, Note_on_c, 0, 47, 55
1, 108322, Note_on_c, 0, 35, 55
1, 108377, Note_on_c, 0, 35, 0
1, 108392, Note_on_c, 0, 66, 0
1, 108395, Note_on_c, 0, 57, 0
1, 108397, Note_on_c, 0, 63, 0
1, 108402, Note_on_c, 0, 47, 0
1, 108657, Note_on_c, 0, 28, 55
1, 108677, Note_on_c, 0, 40, 51
1, 108692, Note_on_c, 0, 64, 64
1, 108695, Note_on_c, 0, 56, 52
1, 108717, Note_on_c, 0, 28, 0
1, 108757, Note_on_c, 0, 40, 0
1, 108800, Control_c, 0, 64, 127
1, 108880, Note_on_c, 0, 47, 55
1, 108960, Note_on_c, 0, 47, 0
1, 109037, Note_on_c, 0, 47, 55
1, 109092, Note_on_c, 0, 56, 0
1, 109162, Note_on_c, 0, 64, 0
1, 109215, Note_on_c, 0, 47, 0
1, 109257, Note_on_c, 0, 40, 57
1, 109560, Note_on_c, 0, 40, 0
1, 109617, Note_on_c, 0, 47, 48
1, 109750, Control_c, 0, 64, 0
1, 109810, Note_on_c, 0, 47, 0
1, 109897, Note_on_c, 0, 35, 56
1, 109977, Note_on_c, 0, 35, 0
1, 109977, Note_on_c, 0, 69, 60
1, 109980, Note_on_c, 0, 63, 65
1, 110040, Control_c, 0, 64, 127
1, 110127, Note_on_c, 0, 63, 0
1, 110195, Note_on_c, 0, 69, 0
1, 110205, Note_on_c, 0, 73, 62
1, 110210, Note_on_c, 0, 57, 60
1, 110232, Note_on_c, 0, 66, 61
1, 110267, Note_on_c, 0, 57, 0
1, 110282, Note_on_c, 0, 73, 0
1, 110310, Note_on_c, 0, 66, 0
1, 110367, Note_on_c, 0, 73, 59
1, 110372, Note_on_c, 0, 57, 55
1, 110395, Note_on_c, 0, 66, 60
1, 110472, Note_on_c, 0, 66, 0
1, 110490, Control_c, 0, 64, 0
1, 110497, Note_on_c, 0, 57, 0
1, 110555, Note_on_c, 0, 69, 69
1, 110557, Note_on_c, 0, 63, 68
1, 110560, Note_on_c, 0, 54, 63
1, 110562, Note_on_c, 0, 47, 64
1, 110642, Note_on_c, 0, 47, 0
1, 110657, Note_on_c, 0, 73, 0
1, 110662, Note_on_c, 0, 63, 0
1, 110710, Note_on_c, 0, 54, 0
1, 110730, Note_on_c, 0, 69, 0
1, 110865, Note_on_c, 0, 73, 68
1, 110870, Note_on_c, 0, 57, 64
1, 110890, Note_on_c, 0, 66, 70
1, 110997, Note_on_c, 0, 66, 0
1, 111017, Note_on_c, 0, 73, 0
1, 111022, Note_on_c, 0, 57, 0
1, 111117, Note_on_c, 0, 47, 61
1, 111137, Note_on_c, 0, 54, 64
1, 111175, Note_on_c, 0, 47, 0
1, 111195, Note_on_c, 0, 54, 0
1, 111202, Note_on_c, 0, 69, 74
1, 111205, Note_on_c, 0, 63, 76
1, 111257, Note_on_c, 0, 69, 0
1, 111262, Control_c, 0, 64, 127
1, 111285, Note_on_c, 0, 63, 0
1, 111452, Note_on_c, 0, 85, 79
1, 111480, Note_on_c, 0, 81, 71
1, 111537, Note_on_c, 0, 81, 0
1, 111547, Note_on_c, 0, 83, 69
1, 111572, Note_on_c, 0, 80, 67
1, 111580, Note_on_c, 0, 85, 0
1, 111620, Note_on_c, 0, 81, 69
1, 111632, Note_on_c, 0, 83, 0
1, 111645, Note_on_c, 0, 78, 67
1, 111657, Note_on_c, 0, 80, 0
1, 111705, Note_on_c, 0, 78, 0
1, 111705, Note_on_c, 0, 81, 0
1, 111717, Note_on_c, 0, 76, 65
1, 111720, Note_on_c, 0, 80, 67
1, 111777, Note_on_c, 0, 76, 0
1, 111787, Note_on_c, 0, 78, 67
1, 111790, Note_on_c, 0, 75, 67
1, 111847, Note_on_c, 0, 80, 0
1, 111860, Note_on_c, 0, 73, 67
1, 111860, Note_on_c, 0, 76, 67
1, 111870, Note_on_c, 0, 78, 0
1, 111872, Note_on_c, 0, 75, 0
1, 111930, Note_on_c, 0, 71, 67
1, 111940, Note_on_c, 0, 76, 0
1, 111942, Note_on_c, 0, 73, 0
1, 111955, Note_on_c, 0, 75, 67
1, 112012, Note_on_c, 0, 75, 0
1, 112015, Note_on_c, 0, 71, 0
1, 112052, Note_on_c, 0, 73, 67
1, 112127, Note_on_c, 0, 71, 67
1, 112200, Note_on_c, 0, 69, 65
1, 112207, Note_on_c, 0, 71, 0
1, 112232, Note_on_c, 0, 73, 0
1, 112282, Note_on_c, 0, 69, 0
1, 112295, Note_on_c, 0, 71, 70
1, 112325, Note_on_c, 0, 64, 70
1, 112327, Note_on_c, 0, 56, 62
1, 112330, Note_on_c, 0, 47, 63
1, 112407, Note_on_c, 0, 71, 0
1, 112412, Note_on_c, 0, 64, 0
1, 112492, Note_on_c, 0, 47, 0
1, 112497, Note_on_c, 0, 75, 81
1, 112500, Note_on_c, 0, 68, 81
1, 112500, Note_on_c, 0, 59, 71
1, 112577, Note_on_c, 0, 75, 0
1, 112600, Control_c, 0, 64, 0
1, 112605, Note_on_c, 0, 68, 0
1, 112607, Note_on_c, 0, 59, 0
1, 112657, Note_on_c, 0, 56, 0
1, 112662, Note_on_c, 0, 75, 85
1, 112685, Note_on_c, 0, 68, 79
1, 112690, Note_on_c, 0, 59, 74
1, 112702, Control_c, 0, 67, 0
1, 112745, Note_on_c, 0, 59, 0
1, 112790, Note_on_c, 0, 68, 0
1, 112810, Note_on_c, 0, 75, 0
1, 112832, Note_on_c, 0, 47, 81
1, 112850, Note_on_c, 0, 71, 90
1, 112875, Note_on_c, 0, 64, 90
1, 112880, Note_on_c, 0, 56, 83
1, 112917, Control_c, 0, 64, 127
1, 112977, Note_on_c, 0, 71, 0
1, 112980, Note_on_c, 0, 64, 0
1, 113127, Note_on_c, 0, 47, 0
1, 113180, Note_on_c, 0, 75, 90
1, 113185, Note_on_c, 0, 59, 81
1, 113207, Note_on_c, 0, 68, 89
1, 113245, Note_on_c, 0, 56, 0
1, 113267, Note_on_c, 0, 59, 0
1, 113310, Note_on_c, 0, 68, 0
1, 113417, Note_on_c, 0, 57, 78
1, 113450, Note_on_c, 0, 75, 0
1, 113490, Note_on_c, 0, 64, 84
1, 113510, Note_on_c, 0, 73, 85
1, 113592, Note_on_c, 0, 64, 0
1, 113612, Note_on_c, 0, 73, 0
1, 113650, Note_on_c, 0, 76, 84
1, 113655, Note_on_c, 0, 61, 84
1, 113675, Note_on_c, 0, 69, 85
1, 113710, Note_on_c, 0, 57, 0
1, 113727, Control_c, 0, 64, 0
1, 113737, Note_on_c, 0, 61, 0
1, 113755, Note_on_c, 0, 76, 0
1, 113757, Note_on_c, 0, 69, 0
1, 113822, Note_on_c, 0, 61, 86
1, 113840, Note_on_c, 0, 76, 90
1, 113842, Note_on_c, 0, 69, 90
1, 113947, Note_on_c, 0, 69, 0
1, 114002, Note_on_c, 0, 61, 0
1, 114017, Note_on_c, 0, 59, 81
1, 114035, Note_on_c, 0, 75, 90
1, 114037, Note_on_c, 0, 69, 90
1, 114040, Note_on_c, 0, 66, 89
1, 114070, Note_on_c, 0, 76, 0
1, 114102, Note_on_c, 0, 59, 0
1, 114105, Control_c, 0, 64, 127
1, 114122, Note_on_c, 0, 66, 0
1, 114190, Note_on_c, 0, 69, 0
1, 114282, Note_on_c, 0, 75, 0
1, 114340, Note_on_c, 0, 78, 94
1, 114342, Note_on_c, 0, 69, 96
1, 114347, Note_on_c, 0, 63, 89
1, 114362, Note_on_c, 0, 71, 94
1, 114425, Note_on_c, 0, 63, 0
1, 114442, Note_on_c, 0, 71, 0
1, 114445, Note_on_c, 0, 69, 0
1, 114490, Control_c, 0, 64, 0
1, 114567, Note_on_c, 0, 28, 84
1, 114635, Note_on_c, 0, 40, 88
1, 114667, Note_on_c, 0, 76, 96
1, 114670, Note_on_c, 0, 68, 97
1, 114672, Note_on_c, 0, 28, 0
1, 114700, Note_on_c, 0, 78, 0
1, 114715, Note_on_c, 0, 40, 0
1, 114722, Note_on_c, 0, 76, 0
1, 114780, Control_c, 0, 64, 127
1, 114797, Note_on_c, 0, 68, 0
1, 114877, Note_on_c, 0, 71, 90
1, 114890, Note_on_c, 0, 47, 83
1, 114905, Note_on_c, 0, 62, 90
1, 114907, Note_on_c, 0, 56, 81
1, 114960, Note_on_c, 0, 62, 0
1, 114962, Note_on_c, 0, 56, 0
1, 114965, Note_on_c, 0, 47, 0
1, 114977, Note_on_c, 0, 71, 0
1, 115040, Note_on_c, 0, 62, 89
1, 115042, Note_on_c, 0, 56, 81
1, 115045, Note_on_c, 0, 47, 81
1, 115062, Note_on_c, 0, 71, 90
1, 115090, Control_c, 0, 64, 0
1, 115102, Note_on_c, 0, 56, 0
1, 115125, Note_on_c, 0, 62, 0
1, 115130, Note_on_c, 0, 47, 0
1, 115237, Note_on_c, 0, 61, 89
1, 115257, Note_on_c, 0, 69, 100
1, 115260, Note_on_c, 0, 52, 87
1, 115262, Note_on_c, 0, 71, 0
1, 115262, Note_on_c, 0, 45, 88
1, 115395, Control_c, 0, 64, 127
1, 115500, Note_on_c, 0, 45, 0
1, 115510, Note_on_c, 0, 52, 0
1, 115530, Note_on_c, 0, 61, 0
1, 115560, Note_on_c, 0, 69, 0
1, 115582, Note_on_c, 0, 57, 81
1, 115597, Note_on_c, 0, 52, 81
1, 115615, Note_on_c, 0, 73, 90
1, 115620, Note_on_c, 0, 64, 89
1, 115700, Note_on_c, 0, 52, 0
1, 115767, Note_on_c, 0, 64, 0
1, 115770, Note_on_c, 0, 57, 0
1, 115782, Control_c, 0, 67, 127
1, 115787, Control_c, 0, 64, 0
1, 115835, Note_on_c, 0, 73, 0
1, 115857, Note_on_c, 0, 47, 80
1, 115922, Note_on_c, 0, 54, 81
1, 115980, Control_c, 0, 64, 127
1, 115990, Note_on_c, 0, 59, 88
1, 116010, Note_on_c, 0, 71, 94
1, 116015, Note_on_c, 0, 63, 96
1, 116450, Note_on_c, 0, 78, 81
1, 116505, Note_on_c, 0, 63, 0
1, 116505, Note_on_c, 0, 71, 0
1, 116520, Note_on_c, 0, 59, 0
1, 116527, Note_on_c, 0, 78, 0
1, 116540, Note_on_c, 0, 83, 72
1, 116612, Note_on_c, 0, 78, 68
1, 116672, Note_on_c, 0, 83, 0
1, 116690, Note_on_c, 0, 71, 67
1, 116697, Note_on_c, 0, 78, 0
1, 116747, Note_on_c, 0, 71, 0
1, 116780, Note_on_c, 0, 47, 0
1, 116802, Note_on_c, 0, 54, 0
1, 116810, Note_on_c, 0, 71, 67
1, 116907, Note_on_c, 0, 66, 64
1, 116987, Note_on_c, 0, 71, 0
1, 117030, Note_on_c, 0, 59, 60
1, 117037, Note_on_c, 0, 66, 0
1, 117087, Control_c, 0, 64, 0
1, 117110, Note_on_c, 0, 59, 0
1, 117150, Note_on_c, 0, 54, 57
1, 117197, Note_on_c, 0, 47, 56
1, 117250, Note_on_c, 0, 54, 0
1, 117297, Note_on_c, 0, 47, 0
1, 117317, Note_on_c, 0, 52, 55
1, 117395, Note_on_c, 0, 62, 61
1, 117395, Note_on_c, 0, 64, 65
1, 117420, Note_on_c, 0, 56, 59
1, 117497, Note_on_c, 0, 64, 0
1, 117500, Note_on_c, 0, 52, 0
1, 117525, Control_c, 0, 64, 127
1, 117545, Note_on_c, 0, 56, 0
1, 117567, Note_on_c, 0, 62, 0
1, 117665, Note_on_c, 0, 71, 62
1, 117670, Note_on_c, 0, 52, 51
1, 117692, Note_on_c, 0, 62, 54
1, 117695, Note_on_c, 0, 56, 48
1, 117752, Note_on_c, 0, 52, 0
1, 117775, Note_on_c, 0, 62, 0
1, 117777, Note_on_c, 0, 56, 0
1, 117792, Note_on_c, 0, 71, 0
1, 117837, Control_c, 0, 64, 0
1, 117875, Note_on_c, 0, 71, 57
1, 117880, Note_on_c, 0, 62, 54
1, 117882, Note_on_c, 0, 56, 48
1, 117927, Note_on_c, 0, 52, 46
1, 117960, Note_on_c, 0, 56, 0
1, 117960, Note_on_c, 0, 62, 0
1, 117975, Note_on_c, 0, 71, 0
1, 118007, Note_on_c, 0, 52, 0
1, 118110, Note_on_c, 0, 69, 59
1, 118115, Note_on_c, 0, 60, 57
1, 118140, Note_on_c, 0, 52, 53
1, 118167, Note_on_c, 0, 69, 0
1, 118167, Note_on_c, 0, 45, 54
1, 118197, Note_on_c, 0, 60, 0
1, 118247, Note_on_c, 0, 52, 0
1, 118250, Note_on_c, 0, 45, 0
1, 118300, Control_c, 0, 64, 127
1, 118525, Note_on_c, 0, 72, 62
1, 118527, Note_on_c, 0, 64, 65
1, 118557, Note_on_c, 0, 52, 59
1, 118582, Note_on_c, 0, 45, 60
1, 118612, Note_on_c, 0, 52, 0
1, 118657, Note_on_c, 0, 64, 0
1, 118725, Note_on_c, 0, 72, 0
1, 118735, Note_on_c, 0, 45, 0
1, 118835, Control_c, 0, 64, 0
1, 118950, Note_on_c, 0, 63, 67
1, 118970, Note_on_c, 0, 71, 67
1, 118977, Note_on_c, 0, 54, 60
1, 118980, Note_on_c, 0, 47, 60
1, 119175, Control_c, 0, 64, 127
1, 119480, Note_on_c, 0, 78, 67
1, 119535, Note_on_c, 0, 78, 0
1, 119535, Note_on_c, 0, 63, 0
1, 119550, Note_on_c, 0, 71, 0
1, 119550, Note_on_c, 0, 83, 64
1, 119595, Note_on_c, 0, 78, 61
1, 119695, Note_on_c, 0, 71, 61
1, 119700, Note_on_c, 0, 78, 0
1, 119702, Note_on_c, 0, 83, 0
1, 119752, Note_on_c, 0, 71, 0
1, 119807, Note_on_c, 0, 47, 0
1, 119815, Note_on_c, 0, 71, 61
1, 119880, Note_on_c, 0, 54, 0
1, 119935, Note_on_c, 0, 66, 60
1, 119990, Note_on_c, 0, 71, 0
1, 120010, Note_on_c, 0, 59, 55
1, 120042, Note_on_c, 0, 66, 0
1, 120067, Note_on_c, 0, 59, 0
1, 120130, Note_on_c, 0, 54, 55
1, 120247, Note_on_c, 0, 47, 55
1, 120257, Note_on_c, 0, 54, 0
1, 120327, Note_on_c, 0, 47, 0
1, 120455, Note_on_c, 0, 66, 57
1, 120457, Note_on_c, 0, 60, 60
1, 120457, Note_on_c, 0, 64, 54
1, 120482, Control_c, 0, 64, 0
1, 120515, Note_on_c, 0, 33, 55
1, 120537, Note_on_c, 0, 60, 0
1, 120555, Note_on_c, 0, 45, 55
1, 120750, Note_on_c, 0, 66, 0
1, 120785, Note_on_c, 0, 69, 56
1, 120812, Note_on_c, 0, 60, 60
1, 120835, Note_on_c, 0, 33, 0
1, 120895, Note_on_c, 0, 64, 0
1, 120920, Note_on_c, 0, 45, 0
1, 120942, Control_c, 0, 64, 127
1, 120962, Note_on_c, 0, 60, 0
1, 120985, Note_on_c, 0, 69, 0
1, 121070, Note_on_c, 0, 69, 62
1, 121072, Note_on_c, 0, 64, 64
1, 121120, Note_on_c, 0, 60, 62
1, 121200, Note_on_c, 0, 60, 0
1, 121200, Note_on_c, 0, 64, 0
1, 121222, Note_on_c, 0, 69, 0
1, 121262, Control_c, 0, 64, 0
1, 121355, Note_on_c, 0, 71, 67
1, 121360, Note_on_c, 0, 59, 61
1, 121385, Note_on_c, 0, 64, 67
1, 121385, Note_on_c, 0, 68, 67
1, 121465, Note_on_c, 0, 71, 0
1, 121477, Note_on_c, 0, 76, 67
1, 121492, Note_on_c, 0, 59, 0
1, 121535, Note_on_c, 0, 76, 0
1, 121587, Note_on_c, 0, 64, 0
1, 121600, Note_on_c, 0, 71, 67
1, 121657, Note_on_c, 0, 71, 0
1, 121670, Note_on_c, 0, 76, 67
1, 121737, Note_on_c, 0, 71, 69
1, 121747, Note_on_c, 0, 76, 0
1, 121790, Note_on_c, 0, 59, 60
1, 121797, Note_on_c, 0, 68, 0
1, 121810, Note_on_c, 0, 64, 64
1, 121817, Note_on_c, 0, 71, 0
1, 121870, Note_on_c, 0, 59, 0
1, 121915, Note_on_c, 0, 64, 0
1, 122065, Note_on_c, 0, 64, 56
1, 122090, Note_on_c, 0, 66, 54
1, 122092, Note_on_c, 0, 60, 52
1, 122150, Note_on_c, 0, 33, 48
1, 122167, Note_on_c, 0, 45, 48
1, 122270, Control_c, 0, 64, 127
1, 122285, Note_on_c, 0, 60, 0
1, 122285, Note_on_c, 0, 64, 0
1, 122355, Note_on_c, 0, 66, 0
1, 122367, Note_on_c, 0, 69, 50
1, 122370, Note_on_c, 0, 33, 0
1, 122370, Note_on_c, 0, 60, 48
1, 122370, Note_on_c, 0, 64, 48
1, 122432, Note_on_c, 0, 45, 0
1, 122515, Note_on_c, 0, 60, 0
1, 122527, Note_on_c, 0, 64, 0
1, 122560, Note_on_c, 0, 69, 0
1, 122642, Note_on_c, 0, 69, 59
1, 122647, Note_on_c, 0, 64, 59
1, 122672, Note_on_c, 0, 60, 60
1, 122755, Note_on_c, 0, 60, 0
1, 122775, Note_on_c, 0, 69, 0
1, 122777, Note_on_c, 0, 64, 0
1, 122867, Control_c, 0, 64, 0
1, 122935, Note_on_c, 0, 71, 60
1, 122960, Note_on_c, 0, 68, 57
1, 122962, Note_on_c, 0, 59, 60
1, 122962, Note_on_c, 0, 64, 56
1, 123032, Note_on_c, 0, 76, 60
1, 123042, Note_on_c, 0, 71, 0
1, 123092, Note_on_c, 0, 76, 0
1, 123127, Note_on_c, 0, 71, 67
1, 123232, Note_on_c, 0, 71, 0
1, 123237, Note_on_c, 0, 64, 0
1, 123240, Control_c, 0, 64, 127
1, 123242, Note_on_c, 0, 76, 67
1, 123267, Note_on_c, 0, 59, 0
1, 123310, Note_on_c, 0, 71, 67
1, 123320, Note_on_c, 0, 76, 0
1, 123382, Note_on_c, 0, 64, 62
1, 123385, Note_on_c, 0, 59, 60
1, 123390, Note_on_c, 0, 71, 0
1, 123415, Note_on_c, 0, 68, 0
1, 123462, Note_on_c, 0, 64, 0
1, 123485, Note_on_c, 0, 59, 0
1, 123670, Control_c, 0, 64, 0
1, 123750, Note_on_c, 0, 64, 54
1, 123775, Note_on_c, 0, 66, 54
1, 123777, Note_on_c, 0, 60, 65
1, 123780, Note_on_c, 0, 45, 60
1, 123920, Note_on_c, 0, 66, 0
1, 123920, Note_on_c, 0, 64, 0
1, 123922, Note_on_c, 0, 60, 0
1, 123927, Note_on_c, 0, 45, 0
1, 124007, Note_on_c, 0, 52, 53
1, 124025, Note_on_c, 0, 69, 54
1, 124030, Note_on_c, 0, 64, 52
1, 124052, Note_on_c, 0, 60, 56
1, 124107, Note_on_c, 0, 60, 0
1, 124110, Note_on_c, 0, 52, 0
1, 124132, Note_on_c, 0, 69, 0
1, 124135, Note_on_c, 0, 64, 0
1, 124222, Note_on_c, 0, 52, 46
1, 124245, Note_on_c, 0, 69, 56
1, 124247, Note_on_c, 0, 60, 54
1, 124250, Note_on_c, 0, 64, 56
1, 124327, Note_on_c, 0, 69, 0
1, 124330, Note_on_c, 0, 64, 0
1, 124330, Note_on_c, 0, 60, 0
1, 124382, Note_on_c, 0, 52, 0
1, 124472, Note_on_c, 0, 47, 57
1, 124495, Note_on_c, 0, 59, 55
1, 124515, Note_on_c, 0, 67, 58
1, 124520, Note_on_c, 0, 64, 57
1, 124557, Note_on_c, 0, 47, 0
1, 124597, Note_on_c, 0, 64, 0
1, 124620, Note_on_c, 0, 67, 0
1, 124622, Note_on_c, 0, 59, 0
1, 124955, Note_on_c, 0, 66, 61
1, 124960, Note_on_c, 0, 47, 48
1, 124977, Note_on_c, 0, 63, 52
1, 124980, Note_on_c, 0, 57, 48
1, 124985, Note_on_c, 0, 35, 48
1, 125040, Note_on_c, 0, 47, 0
1, 125057, Note_on_c, 0, 66, 0
1, 125065, Note_on_c, 0, 35, 0
1, 125080, Note_on_c, 0, 63, 0
1, 125102, Note_on_c, 0, 57, 0
1, 125390, Note_on_c, 0, 59, 47
1, 125402, Control_c, 0, 67, 0
1, 125410, Note_on_c, 0, 64, 69
1, 125412, Note_on_c, 0, 55, 63
1, 125420, Note_on_c, 0, 40, 63
1, 125425, Note_on_c, 0, 28, 63
1, 125470, Note_on_c, 0, 59, 0
1, 125492, Note_on_c, 0, 64, 0
1, 125495, Note_on_c, 0, 55, 0
1, 125497, Control_c, 0, 64, 127
1, 125500, Note_on_c, 0, 40, 0
1, 125505, Note_on_c, 0, 28, 0
1, 125672, Control_c, 0, 64, 0
1, 125890, Note_on_c, 0, 59, 53
1, 125892, Note_on_c, 0, 52, 52
1, 125892, Note_on_c, 0, 55, 52
1, 125952, Note_on_c, 0, 52, 0
1, 125955, Note_on_c, 0, 55, 0
1, 125977, Note_on_c, 0, 59, 0
1, 126215, Note_on_c, 0, 59, 56
1, 126227, Note_on_c, 0, 55, 63
1, 126270, Note_on_c, 0, 64, 69
1, 126282, Note_on_c, 0, 55, 0
1, 126305, Note_on_c, 0, 59, 0
1, 126350, Note_on_c, 0, 64, 0
1, 126715, Note_on_c, 0, 55, 59
1, 126715, Note_on_c, 0, 59, 52
1, 126717, Note_on_c, 0, 52, 51
1, 126772, Note_on_c, 0, 52, 0
1, 126772, Note_on_c, 0, 59, 0
1, 126795, Note_on_c, 0, 55, 0
1, 126970, Control_c, 0, 67, 127
1, 127067, Note_on_c, 0, 43, 48
1, 127075, Note_on_c, 0, 31, 48
1, 127147, Note_on_c, 0, 43, 0
1, 127152, Note_on_c, 0, 31, 0
1, 127217, Control_c, 0, 64, 127
1, 127517, Note_on_c, 0, 59, 47
1, 127520, Note_on_c, 0, 50, 60
1, 127545, Note_on_c, 0, 55, 60
1, 127575, Note_on_c, 0, 59, 0
1, 127580, Note_on_c, 0, 50, 0
1, 127602, Note_on_c, 0, 55, 0
1, 127752, Note_on_c, 0, 59, 62
1, 127755, Control_c, 0, 64, 0
1, 127777, Note_on_c, 0, 62, 76
1, 127780, Note_on_c, 0, 55, 71
1, 127812, Note_on_c, 0, 59, 0
1, 127837, Note_on_c, 0, 55, 0
1, 127860, Note_on_c, 0, 62, 0
1, 127965, Note_on_c, 0, 62, 74
1, 127967, Note_on_c, 0, 59, 63
1, 127982, Note_on_c, 0, 67, 57
1, 128022, Note_on_c, 0, 62, 0
1, 128045, Note_on_c, 0, 59, 0
1, 128065, Note_on_c, 0, 67, 0
1, 128177, Note_on_c, 0, 59, 59
1, 128180, Note_on_c, 0, 47, 56
1, 128197, Note_on_c, 0, 66, 58
1, 128200, Note_on_c, 0, 63, 60
1, 128207, Note_on_c, 0, 35, 55
1, 128237, Note_on_c, 0, 47, 0
1, 128255, Note_on_c, 0, 66, 0
1, 128257, Note_on_c, 0, 59, 0
1, 128257, Note_on_c, 0, 63, 0
1, 128285, Note_on_c, 0, 35, 0
1, 128460, Note_on_c, 0, 40, 59
1, 128460, Note_on_c, 0, 28, 60
1, 128517, Note_on_c, 0, 40, 0
1, 128520, Note_on_c, 0, 28, 0
1, 128557, Control_c, 0, 64, 127
1, 128662, Control_c, 0, 64, 0
1, 128827, Note_on_c, 0, 59, 53
1, 128855, Note_on_c, 0, 52, 55
1, 128880, Note_on_c, 0, 55, 55
1, 128912, Note_on_c, 0, 52, 0
1, 128912, Note_on_c, 0, 59, 0
1, 128940, Note_on_c, 0, 55, 0
1, 129165, Note_on_c, 0, 59, 62
1, 129167, Note_on_c, 0, 55, 56
1, 129187, Note_on_c, 0, 64, 61
1, 129222, Note_on_c, 0, 55, 0
1, 129242, Note_on_c, 0, 64, 0
1, 129245, Note_on_c, 0, 59, 0
1, 129635, Note_on_c, 0, 52, 54
1, 129657, Note_on_c, 0, 59, 48
1, 129660, Note_on_c, 0, 55, 48
1, 129692, Note_on_c, 0, 52, 0
1, 129715, Note_on_c, 0, 59, 0
1, 129717, Note_on_c, 0, 55, 0
1, 129967, Note_on_c, 0, 31, 50
1, 129987, Note_on_c, 0, 43, 60
1, 130042, Control_c, 0, 64, 127
1, 130045, Note_on_c, 0, 43, 0
1, 130050, Note_on_c, 0, 31, 0
1, 130367, Note_on_c, 0, 59, 55
1, 130390, Note_on_c, 0, 50, 48
1, 130390, Note_on_c, 0, 55, 48
1, 130445, Note_on_c, 0, 59, 0
1, 130447, Note_on_c, 0, 50, 0
1, 130472, Note_on_c, 0, 55, 0
1, 130672, Note_on_c, 0, 59, 47
1, 130672, Note_on_c, 0, 62, 64
1, 130675, Note_on_c, 0, 55, 60
1, 130727, Note_on_c, 0, 62, 0
1, 130730, Note_on_c, 0, 55, 0
1, 130750, Note_on_c, 0, 59, 0
1, 130855, Note_on_c, 0, 59, 60
1, 130875, Note_on_c, 0, 67, 64
1, 130877, Note_on_c, 0, 62, 65
1, 130932, Note_on_c, 0, 62, 0
1, 130935, Note_on_c, 0, 59, 0
1, 130992, Control_c, 0, 64, 0
1, 130997, Note_on_c, 0, 67, 0
1, 131060, Note_on_c, 0, 63, 59
1, 131062, Note_on_c, 0, 59, 52
1, 131085, Note_on_c, 0, 66, 61
1, 131097, Note_on_c, 0, 35, 51
1, 131112, Note_on_c, 0, 47, 52
1, 131117, Note_on_c, 0, 63, 0
1, 131140, Note_on_c, 0, 66, 0
1, 131142, Note_on_c, 0, 59, 0
1, 131195, Note_on_c, 0, 35, 0
1, 131260, Note_on_c, 0, 47, 0
1, 131340, Note_on_c, 0, 47, 59
1, 131340, Note_on_c, 0, 40, 56
1, 131397, Note_on_c, 0, 83, 79
1, 131415, Note_on_c, 0, 47, 0
1, 131420, Note_on_c, 0, 40, 0
1, 131485, Control_c, 0, 64, 127
1, 131850, Note_on_c, 0, 59, 50
1, 131850, Note_on_c, 0, 64, 46
1, 131852, Note_on_c, 0, 52, 42
1, 131852, Note_on_c, 0, 55, 42
1, 131935, Note_on_c, 0, 52, 0
1, 131935, Note_on_c, 0, 64, 0
1, 131935, Note_on_c, 0, 59, 0
1, 132030, Note_on_c, 0, 55, 0
1, 132107, Note_on_c, 0, 67, 51
1, 132112, Note_on_c, 0, 59, 55
1, 132132, Note_on_c, 0, 64, 56
1, 132135, Note_on_c, 0, 55, 57
1, 132232, Note_on_c, 0, 67, 0
1, 132235, Note_on_c, 0, 64, 0
1, 132237, Note_on_c, 0, 59, 0
1, 132240, Note_on_c, 0, 55, 0
1, 132315, Note_on_c, 0, 55, 60
1, 132317, Note_on_c, 0, 64, 60
1, 132320, Note_on_c, 0, 59, 60
1, 132322, Note_on_c, 0, 52, 60
1, 132400, Note_on_c, 0, 59, 0
1, 132400, Note_on_c, 0, 64, 0
1, 132402, Note_on_c, 0, 52, 0
1, 132425, Note_on_c, 0, 55, 0
1, 132430, Note_on_c, 0, 81, 59
1, 132497, Note_on_c, 0, 79, 56
1, 132580, Note_on_c, 0, 83, 0
1, 132590, Note_on_c, 0, 78, 56
1, 132602, Note_on_c, 0, 79, 0
1, 132602, Note_on_c, 0, 81, 0
1, 132635, Note_on_c, 0, 76, 59
1, 132647, Note_on_c, 0, 78, 0
1, 132695, Note_on_c, 0, 76, 0
1, 132717, Control_c, 0, 64, 0
1, 132720, Note_on_c, 0, 43, 60
1, 132732, Note_on_c, 0, 74, 64
1, 132737, Note_on_c, 0, 50, 60
1, 132795, Note_on_c, 0, 43, 0
1, 132817, Note_on_c, 0, 50, 0
1, 132825, Note_on_c, 0, 72, 67
1, 132857, Note_on_c, 0, 74, 0
1, 132915, Note_on_c, 0, 71, 72
1, 132925, Note_on_c, 0, 72, 0
1, 133157, Note_on_c, 0, 59, 57
1, 133160, Note_on_c, 0, 55, 55
1, 133162, Note_on_c, 0, 50, 55
1, 133217, Note_on_c, 0, 55, 0
1, 133220, Control_c, 0, 64, 127
1, 133227, Note_on_c, 0, 50, 0
1, 133242, Note_on_c, 0, 59, 0
1, 133287, Note_on_c, 0, 71, 0
1, 133380, Note_on_c, 0, 59, 60
1, 133380, Note_on_c, 0, 62, 65
1, 133407, Note_on_c, 0, 55, 59
1, 133440, Note_on_c, 0, 62, 0
1, 133462, Note_on_c, 0, 55, 0
1, 133462, Note_on_c, 0, 59, 0
1, 133477, Control_c, 0, 64, 0
1, 133590, Note_on_c, 0, 67, 64
1, 133595, Note_on_c, 0, 62, 65
1, 133620, Note_on_c, 0, 59, 60
1, 133677, Note_on_c, 0, 59, 0
1, 133677, Note_on_c, 0, 62, 0
1, 133692, Note_on_c, 0, 67, 0
1, 133800, Note_on_c, 0, 66, 61
1, 133800, Note_on_c, 0, 59, 54
1, 133825, Note_on_c, 0, 63, 57
1, 133827, Note_on_c, 0, 47, 51
1, 133857, Note_on_c, 0, 66, 0
1, 133860, Note_on_c, 0, 59, 0
1, 133905, Note_on_c, 0, 63, 0
1, 133977, Note_on_c, 0, 47, 0
1, 134065, Note_on_c, 0, 40, 56
1, 134100, Note_on_c, 0, 83, 72
1, 134122, Note_on_c, 0, 40, 0
1, 134235, Control_c, 0, 64, 127
1, 134545, Note_on_c, 0, 59, 53
1, 134562, Note_on_c, 0, 55, 41
1, 134570, Note_on_c, 0, 64, 48
1, 134572, Note_on_c, 0, 52, 42
1, 134627, Note_on_c, 0, 59, 0
1, 134650, Note_on_c, 0, 64, 0
1, 134652, Note_on_c, 0, 52, 0
1, 134750, Note_on_c, 0, 55, 0
1, 134835, Note_on_c, 0, 67, 57
1, 134837, Note_on_c, 0, 64, 59
1, 134840, Note_on_c, 0, 59, 57
1, 134887, Note_on_c, 0, 55, 59
1, 134915, Note_on_c, 0, 67, 0
1, 134920, Note_on_c, 0, 64, 0
1, 134942, Note_on_c, 0, 59, 0
1, 134945, Note_on_c, 0, 55, 0
1, 135055, Note_on_c, 0, 52, 55
1, 135117, Note_on_c, 0, 81, 58
1, 135132, Note_on_c, 0, 52, 0
1, 135172, Note_on_c, 0, 83, 0
1, 135185, Note_on_c, 0, 79, 51
1, 135260, Note_on_c, 0, 59, 60
1, 135260, Note_on_c, 0, 64, 49
1, 135262, Note_on_c, 0, 55, 60
1, 135280, Note_on_c, 0, 78, 49
1, 135312, Note_on_c, 0, 79, 0
1, 135337, Note_on_c, 0, 81, 0
1, 135342, Note_on_c, 0, 64, 0
1, 135342, Note_on_c, 0, 59, 0
1, 135345, Note_on_c, 0, 55, 0
1, 135352, Note_on_c, 0, 76, 58
1, 135360, Note_on_c, 0, 78, 0
1, 135407, Note_on_c, 0, 76, 0
1, 135422, Note_on_c, 0, 55, 60
1, 135442, Note_on_c, 0, 74, 68
1, 135450, Note_on_c, 0, 50, 60
1, 135452, Note_on_c, 0, 43, 60
1, 135470, Control_c, 0, 64, 0
1, 135497, Note_on_c, 0, 74, 0
1, 135505, Note_on_c, 0, 55, 0
1, 135512, Note_on_c, 0, 76, 69
1, 135527, Note_on_c, 0, 50, 0
1, 135532, Note_on_c, 0, 43, 0
1, 135580, Note_on_c, 0, 74, 67
1, 135635, Note_on_c, 0, 76, 0
1, 135650, Note_on_c, 0, 72, 69
1, 135682, Note_on_c, 0, 74, 0
1, 135695, Note_on_c, 0, 71, 71
1, 135727, Note_on_c, 0, 72, 0
1, 135882, Note_on_c, 0, 59, 55
1, 135885, Note_on_c, 0, 55, 55
1, 135887, Note_on_c, 0, 50, 55
1, 135942, Note_on_c, 0, 50, 0
1, 135942, Note_on_c, 0, 55, 0
1, 135975, Note_on_c, 0, 59, 0
1, 135982, Note_on_c, 0, 71, 0
1, 136012, Control_c, 0, 64, 127
1, 136092, Note_on_c, 0, 59, 54
1, 136115, Note_on_c, 0, 62, 61
1, 136117, Control_c, 0, 64, 0
1, 136117, Note_on_c, 0, 55, 59
1, 136172, Note_on_c, 0, 62, 0
1, 136175, Note_on_c, 0, 55, 0
1, 136175, Note_on_c, 0, 59, 0
1, 136305, Note_on_c, 0, 67, 64
1, 136307, Note_on_c, 0, 62, 65
1, 136310, Note_on_c, 0, 59, 60
1, 136387, Note_on_c, 0, 62, 0
1, 136390, Note_on_c, 0, 59, 0
1, 136410, Note_on_c, 0, 67, 0
1, 136517, Note_on_c, 0, 59, 59
1, 136540, Note_on_c, 0, 66, 78
1, 136542, Note_on_c, 0, 63, 72
1, 136547, Note_on_c, 0, 47, 68
1, 136597, Note_on_c, 0, 66, 0
1, 136600, Note_on_c, 0, 59, 0
1, 136650, Note_on_c, 0, 63, 0
1, 136687, Control_c, 0, 67, 0
1, 136715, Note_on_c, 0, 47, 0
1, 136732, Note_on_c, 0, 40, 68
1, 136757, Control_c, 0, 64, 127
1, 136832, Note_on_c, 0, 40, 0
1, 137025, Note_on_c, 0, 64, 79
1, 137080, Note_on_c, 0, 64, 0
1, 137095, Note_on_c, 0, 66, 59
1, 137162, Note_on_c, 0, 59, 45
1, 137162, Note_on_c, 0, 64, 61
1, 137182, Note_on_c, 0, 67, 62
1, 137187, Note_on_c, 0, 52, 45
1, 137187, Note_on_c, 0, 55, 45
1, 137217, Note_on_c, 0, 66, 0
1, 137240, Note_on_c, 0, 52, 0
1, 137240, Note_on_c, 0, 64, 0
1, 137265, Note_on_c, 0, 59, 0
1, 137280, Note_on_c, 0, 67, 0
1, 137285, Note_on_c, 0, 55, 0
1, 137292, Note_on_c, 0, 69, 64
1, 137340, Note_on_c, 0, 59, 50
1, 137357, Note_on_c, 0, 67, 67
1, 137360, Note_on_c, 0, 64, 68
1, 137367, Note_on_c, 0, 69, 0
1, 137402, Control_c, 0, 64, 0
1, 137460, Note_on_c, 0, 67, 0
1, 137470, Note_on_c, 0, 71, 76
1, 137482, Note_on_c, 0, 64, 0
1, 137485, Note_on_c, 0, 59, 0
1, 137505, Note_on_c, 0, 71, 0
1, 137520, Note_on_c, 0, 52, 59
1, 137522, Control_c, 0, 67, 127
1, 137600, Note_on_c, 0, 52, 0
1, 137617, Control_c, 0, 67, 0
1, 137655, Note_on_c, 0, 71, 76
1, 137690, Note_on_c, 0, 71, 0
1, 137707, Note_on_c, 0, 55, 59
1, 137730, Note_on_c, 0, 64, 74
1, 137732, Note_on_c, 0, 59, 57
1, 137775, Note_on_c, 0, 71, 76
1, 137810, Note_on_c, 0, 71, 0
1, 137812, Note_on_c, 0, 64, 0
1, 137815, Note_on_c, 0, 55, 0
1, 137837, Note_on_c, 0, 59, 0
1, 137870, Note_on_c, 0, 71, 76
1, 137947, Note_on_c, 0, 71, 0
1, 137960, Note_on_c, 0, 74, 79
1, 137972, Note_on_c, 0, 38, 62
1, 138017, Note_on_c, 0, 74, 0
1, 138075, Note_on_c, 0, 38, 0
1, 138117, Control_c, 0, 64, 127
1, 138192, Note_on_c, 0, 69, 76
1, 138195, Note_on_c, 0, 62, 64
1, 138217, Note_on_c, 0, 66, 71
1, 138252, Note_on_c, 0, 62, 0
1, 138272, Note_on_c, 0, 66, 0
1, 138272, Note_on_c, 0, 69, 0
1, 138400, Note_on_c, 0, 57, 57
1, 138402, Note_on_c, 0, 54, 61
1, 138422, Note_on_c, 0, 62, 68
1, 138462, Note_on_c, 0, 57, 0
1, 138480, Note_on_c, 0, 62, 0
1, 138480, Note_on_c, 0, 54, 0
1, 138622, Note_on_c, 0, 78, 74
1, 138625, Note_on_c, 0, 81, 86
1, 138625, Note_on_c, 0, 86, 87
1, 138632, Note_on_c, 0, 74, 86
1, 138650, Note_on_c, 0, 69, 87
1, 138652, Note_on_c, 0, 66, 87
1, 138680, Note_on_c, 0, 86, 0
1, 138702, Note_on_c, 0, 78, 0
1, 138705, Note_on_c, 0, 74, 0
1, 138725, Note_on_c, 0, 81, 0
1, 138842, Note_on_c, 0, 66, 0
1, 138855, Note_on_c, 0, 78, 68
1, 138855, Note_on_c, 0, 81, 69
1, 138857, Note_on_c, 0, 74, 65
1, 138870, Note_on_c, 0, 69, 0
1, 138915, Note_on_c, 0, 78, 0
1, 138940, Note_on_c, 0, 81, 0
1, 138942, Note_on_c, 0, 74, 0
1, 139025, Note_on_c, 0, 69, 58
1, 139027, Note_on_c, 0, 62, 62
1, 139027, Note_on_c, 0, 66, 57
1, 139082, Note_on_c, 0, 69, 0
1, 139085, Note_on_c, 0, 66, 0
1, 139087, Note_on_c, 0, 62, 0
1, 139195, Control_c, 0, 64, 0
1, 139325, Note_on_c, 0, 33, 56
1, 139365, Control_c, 0, 67, 127
1, 139370, Note_on_c, 0, 40, 59
1, 139385, Note_on_c, 0, 60, 65
1, 139387, Note_on_c, 0, 52, 61
1, 139410, Note_on_c, 0, 57, 61
1, 139410, Note_on_c, 0, 64, 67
1, 139430, Note_on_c, 0, 33, 0
1, 139437, Note_on_c, 0, 45, 61
1, 139447, Note_on_c, 0, 40, 0
1, 139465, Note_on_c, 0, 57, 0
1, 139465, Note_on_c, 0, 60, 0
1, 139467, Note_on_c, 0, 52, 0
1, 139497, Note_on_c, 0, 45, 0
1, 139512, Note_on_c, 0, 64, 0
1, 139702, Note_on_c, 0, 69, 62
1, 139802, Note_on_c, 0, 69, 0
1, 139815, Note_on_c, 0, 71, 62
1, 139842, Note_on_c, 0, 64, 65
1, 139852, Note_on_c, 0, 60, 65
1, 139865, Note_on_c, 0, 57, 60
1, 139907, Note_on_c, 0, 72, 69
1, 139917, Note_on_c, 0, 71, 0
1, 139920, Note_on_c, 0, 64, 0
1, 139922, Note_on_c, 0, 57, 0
1, 139945, Note_on_c, 0, 60, 0
1, 139987, Note_on_c, 0, 72, 0
1, 140000, Note_on_c, 0, 74, 72
1, 140040, Control_c, 0, 64, 127
1, 140047, Note_on_c, 0, 64, 75
1, 140067, Note_on_c, 0, 69, 78
1, 140070, Note_on_c, 0, 60, 74
1, 140080, Note_on_c, 0, 76, 79
1, 140100, Note_on_c, 0, 74, 0
1, 140122, Note_on_c, 0, 76, 0
1, 140170, Note_on_c, 0, 69, 0
1, 140182, Note_on_c, 0, 76, 81
1, 140217, Note_on_c, 0, 76, 0
1, 140272, Note_on_c, 0, 76, 81
1, 140287, Note_on_c, 0, 64, 0
1, 140307, Note_on_c, 0, 76, 0
1, 140310, Note_on_c, 0, 60, 0
1, 140367, Note_on_c, 0, 76, 82
1, 140400, Note_on_c, 0, 76, 0
1, 140460, Note_on_c, 0, 76, 80
1, 140490, Note_on_c, 0, 52, 60
1, 140495, Note_on_c, 0, 76, 0
1, 140495, Note_on_c, 0, 40, 60
1, 140555, Note_on_c, 0, 76, 81
1, 140572, Note_on_c, 0, 52, 0
1, 140577, Note_on_c, 0, 40, 0
1, 140637, Note_on_c, 0, 76, 0
1, 140690, Note_on_c, 0, 33, 55
1, 140700, Note_on_c, 0, 79, 85
1, 140702, Control_c, 0, 64, 0
1, 140732, Note_on_c, 0, 45, 54
1, 140750, Note_on_c, 0, 33, 0
1, 140782, Note_on_c, 0, 79, 0
1, 140790, Note_on_c, 0, 45, 0
1, 140820, Note_on_c, 0, 78, 81
1, 140852, Note_on_c, 0, 78, 0
1, 140892, Note_on_c, 0, 79, 78
1, 140937, Note_on_c, 0, 78, 74
1, 140995, Note_on_c, 0, 79, 0
1, 141005, Note_on_c, 0, 76, 78
1, 141040, Note_on_c, 0, 78, 0
1, 141262, Note_on_c, 0, 64, 67
1, 141265, Note_on_c, 0, 57, 42
1, 141265, Note_on_c, 0, 60, 46
1, 141320, Note_on_c, 0, 57, 0
1, 141387, Note_on_c, 0, 60, 0
1, 141390, Note_on_c, 0, 64, 0
1, 141465, Control_c, 0, 64, 127
1, 141497, Note_on_c, 0, 60, 57
1, 141517, Note_on_c, 0, 67, 64
1, 141522, Note_on_c, 0, 64, 65
1, 141527, Note_on_c, 0, 76, 0
1, 141577, Note_on_c, 0, 60, 0
1, 141597, Note_on_c, 0, 64, 0
1, 141617, Note_on_c, 0, 67, 0
1, 141722, Note_on_c, 0, 64, 62
1, 141772, Note_on_c, 0, 60, 60
1, 141795, Note_on_c, 0, 57, 55
1, 141805, Note_on_c, 0, 64, 0
1, 141852, Note_on_c, 0, 60, 0
1, 141877, Note_on_c, 0, 57, 0
1, 142130, Control_c, 0, 64, 0
1, 142212, Note_on_c, 0, 38, 54
1, 142260, Note_on_c, 0, 45, 55
1, 142280, Note_on_c, 0, 54, 59
1, 142295, Note_on_c, 0, 38, 0
1, 142302, Note_on_c, 0, 57, 61
1, 142302, Note_on_c, 0, 60, 68
1, 142305, Note_on_c, 0, 50, 63
1, 142340, Note_on_c, 0, 45, 0
1, 142347, Note_on_c, 0, 64, 71
1, 142360, Note_on_c, 0, 57, 0
1, 142362, Note_on_c, 0, 54, 0
1, 142382, Note_on_c, 0, 60, 0
1, 142382, Note_on_c, 0, 50, 0
1, 142405, Note_on_c, 0, 64, 0
1, 142650, Note_on_c, 0, 69, 68
1, 142730, Note_on_c, 0, 69, 0
1, 142762, Note_on_c, 0, 71, 68
1, 142790, Note_on_c, 0, 60, 59
1, 142807, Note_on_c, 0, 64, 68
1, 142810, Note_on_c, 0, 57, 55
1, 142855, Note_on_c, 0, 72, 71
1, 142860, Note_on_c, 0, 71, 0
1, 142865, Note_on_c, 0, 57, 0
1, 142887, Note_on_c, 0, 64, 0
1, 142890, Note_on_c, 0, 60, 0
1, 142932, Note_on_c, 0, 72, 0
1, 142947, Note_on_c, 0, 74, 78
1, 142995, Note_on_c, 0, 60, 64
1, 142995, Note_on_c, 0, 66, 80
1, 143015, Note_on_c, 0, 76, 82
1, 143027, Note_on_c, 0, 74, 0
1, 143047, Note_on_c, 0, 76, 0
1, 143057, Control_c, 0, 64, 127
1, 143097, Note_on_c, 0, 66, 0
1, 143120, Note_on_c, 0, 60, 0
1, 143127, Note_on_c, 0, 76, 78
1, 143162, Note_on_c, 0, 76, 0
1, 143167, Control_c, 0, 67, 0
1, 143202, Note_on_c, 0, 57, 59
1, 143242, Note_on_c, 0, 76, 79
1, 143280, Note_on_c, 0, 76, 0
1, 143280, Note_on_c, 0, 57, 0
1, 143337, Note_on_c, 0, 76, 78
1, 143370, Note_on_c, 0, 76, 0
1, 143427, Note_on_c, 0, 76, 75
1, 143435, Note_on_c, 0, 50, 59
1, 143462, Note_on_c, 0, 76, 0
1, 143465, Note_on_c, 0, 38, 59
1, 143515, Note_on_c, 0, 50, 0
1, 143520, Note_on_c, 0, 38, 0
1, 143522, Note_on_c, 0, 76, 79
1, 143605, Note_on_c, 0, 76, 0
1, 143605, Note_on_c, 0, 43, 59
1, 143610, Note_on_c, 0, 31, 59
1, 143645, Note_on_c, 0, 79, 80
1, 143647, Control_c, 0, 64, 0
1, 143687, Note_on_c, 0, 43, 0
1, 143692, Note_on_c, 0, 31, 0
1, 143722, Control_c, 0, 67, 127
1, 143750, Note_on_c, 0, 79, 0
1, 143760, Note_on_c, 0, 78, 79
1, 143795, Note_on_c, 0, 78, 0
1, 143830, Note_on_c, 0, 79, 75
1, 143877, Note_on_c, 0, 78, 74
1, 143945, Note_on_c, 0, 74, 78
1, 143980, Note_on_c, 0, 79, 0
1, 144025, Note_on_c, 0, 78, 0
1, 144160, Note_on_c, 0, 55, 46
1, 144180, Note_on_c, 0, 62, 56
1, 144205, Note_on_c, 0, 59, 52
1, 144217, Control_c, 0, 64, 127
1, 144305, Note_on_c, 0, 62, 0
1, 144307, Note_on_c, 0, 55, 0
1, 144325, Note_on_c, 0, 74, 0
1, 144352, Note_on_c, 0, 59, 0
1, 144432, Note_on_c, 0, 59, 57
1, 144432, Note_on_c, 0, 62, 67
1, 144452, Note_on_c, 0, 67, 60
1, 144510, Note_on_c, 0, 59, 0
1, 144550, Note_on_c, 0, 67, 0
1, 144577, Note_on_c, 0, 62, 0
1, 144632, Note_on_c, 0, 55, 55
1, 144660, Note_on_c, 0, 59, 54
1, 144680, Note_on_c, 0, 62, 60
1, 144720, Note_on_c, 0, 76, 58
1, 144735, Note_on_c, 0, 59, 0
1, 144737, Note_on_c, 0, 55, 0
1, 144757, Note_on_c, 0, 62, 0
1, 144790, Note_on_c, 0, 74, 60
1, 144847, Note_on_c, 0, 76, 0
1, 144885, Note_on_c, 0, 71, 68
1, 144897, Note_on_c, 0, 74, 0
1, 144965, Note_on_c, 0, 71, 0
1, 145002, Note_on_c, 0, 69, 72
1, 145007, Control_c, 0, 64, 0
1, 145040, Note_on_c, 0, 33, 60
1, 145060, Note_on_c, 0, 45, 59
1, 145095, Note_on_c, 0, 67, 75
1, 145107, Note_on_c, 0, 69, 0
1, 145177, Note_on_c, 0, 67, 0
1, 145372, Control_c, 0, 64, 127
1, 145427, Note_on_c, 0, 33, 0
1, 145447, Note_on_c, 0, 71, 61
1, 145450, Note_on_c, 0, 60, 60
1, 145467, Note_on_c, 0, 45, 0
1, 145475, Note_on_c, 0, 64, 60
1, 145725, Note_on_c, 0, 64, 0
1, 145725, Note_on_c, 0, 60, 0
1, 145725, Note_on_c, 0, 71, 0
1, 145792, Note_on_c, 0, 69, 61
1, 145860, Note_on_c, 0, 72, 61
1, 145895, Note_on_c, 0, 69, 0
1, 145907, Note_on_c, 0, 76, 61
1, 145952, Note_on_c, 0, 79, 61
1, 145965, Note_on_c, 0, 72, 0
1, 145982, Note_on_c, 0, 76, 0
1, 145995, Note_on_c, 0, 81, 68
1, 146007, Note_on_c, 0, 79, 0
1, 146020, Note_on_c, 0, 83, 69
1, 146062, Note_on_c, 0, 84, 69
1, 146077, Note_on_c, 0, 81, 0
1, 146085, Note_on_c, 0, 86, 69
1, 146125, Note_on_c, 0, 88, 70
1, 146137, Note_on_c, 0, 86, 0
1, 146137, Note_on_c, 0, 84, 0
1, 146140, Note_on_c, 0, 83, 0
1, 146180, Note_on_c, 0, 88, 0
1, 146587, Control_c, 0, 67, 0
1, 146992, Control_c, 0, 67, 127
1, 147015, Control_c, 0, 64, 0
1, 147130, Note_on_c, 0, 47, 72
1, 147157, Note_on_c, 0, 35, 69
1, 147192, Note_on_c, 0, 66, 72
1, 147550, Note_on_c, 0, 35, 0
1, 147555, Note_on_c, 0, 59, 60
1, 147567, Control_c, 0, 64, 127
1, 147580, Note_on_c, 0, 63, 65
1, 147597, Note_on_c, 0, 71, 67
1, 147615, Note_on_c, 0, 47, 0
1, 147702, Note_on_c, 0, 66, 0
1, 147840, Note_on_c, 0, 59, 0
1, 147855, Note_on_c, 0, 71, 0
1, 147870, Note_on_c, 0, 63, 0
1, 148120, Note_on_c, 0, 71, 59
1, 148217, Note_on_c, 0, 75, 60
1, 148262, Note_on_c, 0, 78, 61
1, 148275, Note_on_c, 0, 71, 0
1, 148312, Note_on_c, 0, 81, 62
1, 148357, Note_on_c, 0, 83, 64
1, 148370, Note_on_c, 0, 75, 0
1, 148390, Note_on_c, 0, 78, 0
1, 148415, Note_on_c, 0, 81, 0
1, 148427, Note_on_c, 0, 85, 64
1, 148492, Note_on_c, 0, 87, 62
1, 148552, Note_on_c, 0, 83, 0
1, 148560, Note_on_c, 0, 88, 67
1, 148620, Note_on_c, 0, 85, 0
1, 148630, Note_on_c, 0, 90, 72
1, 148642, Note_on_c, 0, 87, 0
1, 148645, Note_on_c, 0, 88, 0
1, 148710, Note_on_c, 0, 90, 0
1, 149462, Control_c, 0, 67, 0
1, 149720, Control_c, 0, 64, 0
1, 150015, Control_c, 0, 64, 127
1, 150087, Note_on_c, 0, 47, 64
1, 150115, Note_on_c, 0, 40, 66
1, 150120, Note_on_c, 0, 28, 65
1, 150127, Note_on_c, 0, 59, 64
1, 150130, Note_on_c, 0, 52, 63
1, 150142, Note_on_c, 0, 47, 0
1, 150172, Note_on_c, 0, 40, 0
1, 150177, Note_on_c, 0, 28, 0
1, 150187, Note_on_c, 0, 59, 0
1, 150187, Note_on_c, 0, 52, 0
1, 150295, Control_c, 0, 64, 0
1, 150480, Note_on_c, 0, 40, 61
1, 150495, Note_on_c, 0, 64, 52
1, 150560, Note_on_c, 0, 40, 0
1, 150567, Note_on_c, 0, 47, 57
1, 150585, Note_on_c, 0, 66, 54
1, 150617, Note_on_c, 0, 64, 0
1, 150640, Note_on_c, 0, 40, 60
1, 150645, Note_on_c, 0, 47, 0
1, 150675, Note_on_c, 0, 68, 58
1, 150685, Note_on_c, 0, 66, 0
1, 150717, Note_on_c, 0, 40, 0
1, 150725, Note_on_c, 0, 47, 63
1, 150740, Note_on_c, 0, 69, 60
1, 150750, Note_on_c, 0, 68, 0
1, 150795, Note_on_c, 0, 40, 63
1, 150800, Note_on_c, 0, 47, 0
1, 150817, Note_on_c, 0, 69, 0
1, 150832, Note_on_c, 0, 71, 69
1, 150865, Note_on_c, 0, 71, 0
1, 150875, Note_on_c, 0, 40, 0
1, 150887, Note_on_c, 0, 47, 63
1, 150925, Note_on_c, 0, 71, 74
1, 150960, Note_on_c, 0, 71, 0
1, 150962, Note_on_c, 0, 40, 66
1, 150967, Note_on_c, 0, 47, 0
1, 151020, Note_on_c, 0, 71, 78
1, 151055, Note_on_c, 0, 71, 0
1, 151055, Note_on_c, 0, 47, 65
1, 151067, Note_on_c, 0, 40, 0
1, 151115, Note_on_c, 0, 71, 76
1, 151147, Note_on_c, 0, 71, 0
1, 151150, Note_on_c, 0, 40, 63
1, 151157, Note_on_c, 0, 47, 0
1, 151230, Note_on_c, 0, 40, 0
1, 151240, Note_on_c, 0, 47, 63
1, 151297, Note_on_c, 0, 71, 81
1, 151312, Note_on_c, 0, 40, 63
1, 151320, Note_on_c, 0, 47, 0
1, 151377, Note_on_c, 0, 71, 0
1, 151390, Note_on_c, 0, 73, 71
1, 151392, Note_on_c, 0, 40, 0
1, 151395, Note_on_c, 0, 69, 71
1, 151402, Note_on_c, 0, 47, 64
1, 151447, Note_on_c, 0, 73, 0
1, 151457, Note_on_c, 0, 76, 72
1, 151472, Note_on_c, 0, 69, 0
1, 151475, Note_on_c, 0, 40, 63
1, 151500, Note_on_c, 0, 47, 0
1, 151525, Note_on_c, 0, 73, 76
1, 151560, Note_on_c, 0, 76, 0
1, 151572, Note_on_c, 0, 40, 0
1, 151580, Note_on_c, 0, 47, 63
1, 151605, Note_on_c, 0, 73, 0
1, 151655, Note_on_c, 0, 40, 63
1, 151660, Note_on_c, 0, 47, 0
1, 151707, Note_on_c, 0, 40, 0
1, 151735, Note_on_c, 0, 71, 68
1, 151742, Note_on_c, 0, 47, 63
1, 151785, Note_on_c, 0, 66, 69
1, 151787, Note_on_c, 0, 63, 69
1, 151797, Note_on_c, 0, 40, 63
1, 151825, Note_on_c, 0, 47, 0
1, 151840, Note_on_c, 0, 71, 0
1, 151845, Note_on_c, 0, 63, 0
1, 151865, Note_on_c, 0, 66, 0
1, 151875, Note_on_c, 0, 40, 0
1, 152027, Note_on_c, 0, 64, 71
1, 152032, Note_on_c, 0, 68, 80
1, 152035, Note_on_c, 0, 59, 73
1, 152040, Note_on_c, 0, 40, 74
1, 152042, Note_on_c, 0, 28, 75
1, 152097, Note_on_c, 0, 28, 0
1, 152107, Note_on_c, 0, 64, 0
1, 152110, Note_on_c, 0, 59, 0
1, 152117, Note_on_c, 0, 40, 0
1, 152132, Note_on_c, 0, 68, 0
1, 152185, Control_c, 0, 64, 127
1, 152225, Note_on_c, 0, 40, 65
1, 152305, Note_on_c, 0, 40, 0
1, 152315, Note_on_c, 0, 47, 63
1, 152390, Note_on_c, 0, 40, 63
1, 152395, Note_on_c, 0, 47, 0
1, 152470, Note_on_c, 0, 40, 0
1, 152477, Note_on_c, 0, 47, 63
1, 152535, Note_on_c, 0, 47, 0
1, 152577, Note_on_c, 0, 40, 63
1, 152655, Note_on_c, 0, 40, 0
1, 152667, Note_on_c, 0, 47, 63
1, 152747, Note_on_c, 0, 73, 72
1, 152750, Note_on_c, 0, 69, 75
1, 152752, Note_on_c, 0, 64, 75
1, 152760, Note_on_c, 0, 40, 63
1, 152765, Note_on_c, 0, 47, 0
1, 152802, Note_on_c, 0, 73, 0
1, 152805, Note_on_c, 0, 69, 0
1, 152810, Note_on_c, 0, 64, 0
1, 152815, Note_on_c, 0, 76, 81
1, 152837, Note_on_c, 0, 40, 0
1, 152847, Note_on_c, 0, 47, 63
1, 152882, Note_on_c, 0, 73, 81
1, 152917, Note_on_c, 0, 40, 63
1, 152937, Note_on_c, 0, 76, 0
1, 152945, Note_on_c, 0, 47, 0
1, 152982, Note_on_c, 0, 73, 0
1, 153017, Note_on_c, 0, 40, 0
1, 153025, Note_on_c, 0, 47, 63
1, 153107, Note_on_c, 0, 71, 78
1, 153117, Control_c, 0, 64, 0
1, 153120, Note_on_c, 0, 40, 63
1, 153132, Note_on_c, 0, 63, 69
1, 153147, Note_on_c, 0, 47, 0
1, 153155, Note_on_c, 0, 66, 72
1, 153162, Note_on_c, 0, 71, 0
1, 153197, Note_on_c, 0, 40, 0
1, 153212, Note_on_c, 0, 66, 0
1, 153215, Note_on_c, 0, 63, 0
1, 153385, Note_on_c, 0, 59, 68
1, 153392, Note_on_c, 0, 40, 73
1, 153405, Note_on_c, 0, 68, 80
1, 153407, Note_on_c, 0, 64, 80
1, 153417, Note_on_c, 0, 28, 73
1, 153460, Note_on_c, 0, 59, 0
1, 153480, Note_on_c, 0, 64, 0
1, 153487, Note_on_c, 0, 40, 0
1, 153492, Note_on_c, 0, 28, 0
1, 153500, Note_on_c, 0, 68, 0
1, 153530, Control_c, 0, 64, 127
1, 153615, Note_on_c, 0, 40, 65
1, 153695, Note_on_c, 0, 40, 0
1, 153702, Note_on_c, 0, 47, 63
1, 153777, Note_on_c, 0, 40, 63
1, 153782, Note_on_c, 0, 47, 0
1, 153855, Note_on_c, 0, 47, 63
1, 153860, Note_on_c, 0, 40, 0
1, 153917, Control_c, 0, 64, 0
1, 153970, Note_on_c, 0, 40, 63
1, 153975, Note_on_c, 0, 47, 0
1, 154062, Note_on_c, 0, 47, 63
1, 154075, Note_on_c, 0, 40, 0
1, 154080, Note_on_c, 0, 64, 64
1, 154100, Note_on_c, 0, 73, 62
1, 154102, Note_on_c, 0, 69, 61
1, 154157, Note_on_c, 0, 73, 0
1, 154160, Note_on_c, 0, 40, 63
1, 154162, Note_on_c, 0, 64, 0
1, 154167, Note_on_c, 0, 69, 0
1, 154167, Note_on_c, 0, 47, 0
1, 154170, Note_on_c, 0, 76, 68
1, 154232, Control_c, 0, 64, 127
1, 154237, Note_on_c, 0, 40, 0
1, 154237, Note_on_c, 0, 73, 70
1, 154245, Note_on_c, 0, 47, 63
1, 154260, Note_on_c, 0, 69, 69
1, 154260, Note_on_c, 0, 64, 69
1, 154290, Note_on_c, 0, 76, 0
1, 154312, Note_on_c, 0, 73, 0
1, 154315, Note_on_c, 0, 40, 63
1, 154335, Note_on_c, 0, 69, 0
1, 154337, Note_on_c, 0, 64, 0
1, 154342, Note_on_c, 0, 47, 0
1, 154415, Note_on_c, 0, 40, 0
1, 154422, Note_on_c, 0, 47, 63
1, 154482, Note_on_c, 0, 69, 76
1, 154485, Note_on_c, 0, 63, 69
1, 154502, Note_on_c, 0, 71, 81
1, 154512, Note_on_c, 0, 40, 63
1, 154522, Note_on_c, 0, 47, 0
1, 154532, Control_c, 0, 64, 0
1, 154535, Note_on_c, 0, 69, 0
1, 154560, Note_on_c, 0, 63, 0
1, 154577, Note_on_c, 0, 71, 0
1, 154590, Note_on_c, 0, 40, 0
1, 154600, Note_on_c, 0, 47, 63
1, 154692, Note_on_c, 0, 40, 63
1, 154700, Note_on_c, 0, 47, 0
1, 154707, Note_on_c, 0, 64, 82
1, 154710, Note_on_c, 0, 69, 85
1, 154725, Note_on_c, 0, 76, 86
1, 154760, Note_on_c, 0, 64, 0
1, 154777, Note_on_c, 0, 47, 63
1, 154780, Note_on_c, 0, 69, 0
1, 154792, Note_on_c, 0, 40, 0
1, 154832, Control_c, 0, 64, 127
1, 154837, Note_on_c, 0, 73, 81
1, 154842, Note_on_c, 0, 64, 81
1, 154860, Note_on_c, 0, 69, 80
1, 154867, Note_on_c, 0, 76, 0
1, 154870, Note_on_c, 0, 40, 63
1, 154880, Note_on_c, 0, 47, 0
1, 154890, Note_on_c, 0, 73, 0
1, 154917, Note_on_c, 0, 69, 0
1, 154920, Note_on_c, 0, 64, 0
1, 154950, Note_on_c, 0, 40, 0
1, 154957, Note_on_c, 0, 47, 63
1, 155027, Note_on_c, 0, 40, 63
1, 155055, Note_on_c, 0, 47, 0
1, 155060, Note_on_c, 0, 71, 84
1, 155062, Note_on_c, 0, 69, 85
1, 155065, Note_on_c, 0, 63, 69
1, 155140, Note_on_c, 0, 47, 63
1, 155145, Note_on_c, 0, 69, 0
1, 155155, Note_on_c, 0, 40, 0
1, 155170, Note_on_c, 0, 63, 0
1, 155190, Note_on_c, 0, 71, 0
1, 155207, Control_c, 0, 64, 0
1, 155237, Note_on_c, 0, 40, 64
1, 155245, Note_on_c, 0, 47, 0
1, 155317, Note_on_c, 0, 40, 0
1, 155327, Note_on_c, 0, 64, 85
1, 155332, Note_on_c, 0, 47, 68
1, 155347, Note_on_c, 0, 73, 87
1, 155350, Note_on_c, 0, 69, 89
1, 155372, Note_on_c, 0, 76, 91
1, 155382, Note_on_c, 0, 73, 0
1, 155405, Note_on_c, 0, 40, 68
1, 155407, Note_on_c, 0, 69, 0
1, 155410, Note_on_c, 0, 64, 0
1, 155415, Note_on_c, 0, 47, 0
1, 155465, Note_on_c, 0, 73, 90
1, 155470, Note_on_c, 0, 63, 74
1, 155492, Note_on_c, 0, 69, 86
1, 155500, Note_on_c, 0, 47, 66
1, 155512, Note_on_c, 0, 40, 0
1, 155525, Note_on_c, 0, 76, 0
1, 155527, Note_on_c, 0, 63, 0
1, 155532, Control_c, 0, 64, 127
1, 155550, Note_on_c, 0, 73, 0
1, 155552, Note_on_c, 0, 69, 0
1, 155600, Note_on_c, 0, 40, 71
1, 155607, Note_on_c, 0, 47, 0
1, 155677, Note_on_c, 0, 40, 0
1, 155687, Note_on_c, 0, 47, 72
1, 155722, Note_on_c, 0, 71, 86
1, 155750, Note_on_c, 0, 63, 79
1, 155750, Note_on_c, 0, 66, 82
1, 155757, Note_on_c, 0, 40, 72
1, 155765, Note_on_c, 0, 47, 0
1, 155805, Note_on_c, 0, 71, 0
1, 155807, Note_on_c, 0, 66, 0
1, 155810, Note_on_c, 0, 63, 0
1, 155850, Note_on_c, 0, 40, 0
1, 155850, Note_on_c, 0, 47, 72
1, 155922, Note_on_c, 0, 40, 72
1, 155927, Note_on_c, 0, 47, 0
1, 155952, Note_on_c, 0, 73, 87
1, 155955, Note_on_c, 0, 69, 89
1, 155957, Note_on_c, 0, 64, 89
1, 155977, Note_on_c, 0, 76, 91
1, 155990, Note_on_c, 0, 69, 0
1, 156000, Note_on_c, 0, 40, 0
1, 156007, Note_on_c, 0, 47, 78
1, 156010, Note_on_c, 0, 73, 0
1, 156015, Note_on_c, 0, 64, 0
1, 156072, Note_on_c, 0, 69, 92
1, 156082, Note_on_c, 0, 40, 79
1, 156092, Note_on_c, 0, 73, 95
1, 156097, Note_on_c, 0, 64, 95
1, 156112, Note_on_c, 0, 47, 0
1, 156125, Note_on_c, 0, 76, 0
1, 156150, Note_on_c, 0, 69, 0
1, 156152, Note_on_c, 0, 64, 0
1, 156172, Note_on_c, 0, 73, 0
1, 156215, Note_on_c, 0, 47, 81
1, 156225, Note_on_c, 0, 40, 0
1, 156292, Note_on_c, 0, 47, 0
1, 156317, Note_on_c, 0, 71, 95
1, 156320, Note_on_c, 0, 69, 96
1, 156345, Note_on_c, 0, 63, 89
1, 156397, Note_on_c, 0, 69, 0
1, 156400, Note_on_c, 0, 63, 0
1, 156420, Note_on_c, 0, 71, 0
1, 156462, Control_c, 0, 64, 0
1, 156580, Note_on_c, 0, 47, 79
1, 156582, Note_on_c, 0, 40, 84
1, 156597, Note_on_c, 0, 83, 95
1, 156712, Note_on_c, 0, 40, 0
1, 156730, Note_on_c, 0, 47, 0
1, 156790, Note_on_c, 0, 55, 74
1, 156800, Control_c, 0, 64, 127
1, 156817, Note_on_c, 0, 47, 71
1, 156872, Note_on_c, 0, 55, 0
1, 156900, Note_on_c, 0, 47, 0
1, 156987, Note_on_c, 0, 47, 65
1, 157030, Note_on_c, 0, 54, 64
1, 157087, Note_on_c, 0, 54, 0
1, 157145, Note_on_c, 0, 47, 0
1, 157195, Note_on_c, 0, 47, 60
1, 157220, Note_on_c, 0, 40, 57
1, 157320, Note_on_c, 0, 47, 0
1, 157322, Note_on_c, 0, 40, 0
1, 157405, Note_on_c, 0, 83, 0
1, 157425, Note_on_c, 0, 55, 63
1, 157427, Note_on_c, 0, 47, 63
1, 157465, Note_on_c, 0, 81, 68
1, 157502, Note_on_c, 0, 55, 0
1, 157507, Note_on_c, 0, 47, 0
1, 157537, Note_on_c, 0, 79, 70
1, 157590, Note_on_c, 0, 54, 63
1, 157592, Note_on_c, 0, 47, 63
1, 157607, Note_on_c, 0, 78, 72
1, 157647, Note_on_c, 0, 54, 0
1, 157665, Note_on_c, 0, 81, 0
1, 157665, Note_on_c, 0, 79, 0
1, 157700, Note_on_c, 0, 76, 76
1, 157710, Note_on_c, 0, 78, 0
1, 157720, Note_on_c, 0, 47, 0
1, 157750, Control_c, 0, 64, 0
1, 157755, Note_on_c, 0, 76, 0
1, 157767, Note_on_c, 0, 74, 79
1, 157780, Note_on_c, 0, 40, 66
1, 157800, Note_on_c, 0, 47, 68
1, 157857, Note_on_c, 0, 72, 79
1, 157860, Note_on_c, 0, 40, 0
1, 157877, Note_on_c, 0, 47, 0
1, 157887, Note_on_c, 0, 74, 0
1, 157950, Note_on_c, 0, 55, 63
1, 157952, Note_on_c, 0, 47, 63
1, 157967, Note_on_c, 0, 71, 79
1, 157977, Note_on_c, 0, 72, 0
1, 158030, Note_on_c, 0, 55, 0
1, 158055, Note_on_c, 0, 47, 0
1, 158137, Note_on_c, 0, 47, 63
1, 158160, Note_on_c, 0, 54, 63
1, 158215, Note_on_c, 0, 54, 0
1, 158240, Note_on_c, 0, 47, 0
1, 158312, Note_on_c, 0, 40, 63
1, 158347, Note_on_c, 0, 47, 68
1, 158372, Control_c, 0, 67, 127
1, 158410, Note_on_c, 0, 40, 0
1, 158457, Note_on_c, 0, 47, 0
1, 158535, Note_on_c, 0, 55, 60
1, 158537, Note_on_c, 0, 47, 60
1, 158590, Note_on_c, 0, 55, 0
1, 158617, Note_on_c, 0, 47, 0
1, 158700, Note_on_c, 0, 47, 60
1, 158720, Note_on_c, 0, 54, 60
1, 158775, Note_on_c, 0, 54, 0
1, 158777, Note_on_c, 0, 47, 0
1, 158885, Note_on_c, 0, 40, 59
1, 158905, Note_on_c, 0, 47, 56
1, 158917, Note_on_c, 0, 83, 69
1, 158960, Note_on_c, 0, 40, 0
1, 158980, Note_on_c, 0, 47, 0
1, 159060, Note_on_c, 0, 55, 55
1, 159087, Note_on_c, 0, 47, 55
1, 159140, Note_on_c, 0, 55, 0
1, 159165, Note_on_c, 0, 47, 0
1, 159180, Note_on_c, 0, 71, 0
1, 159242, Note_on_c, 0, 54, 55
1, 159245, Note_on_c, 0, 47, 55
1, 159300, Note_on_c, 0, 54, 0
1, 159337, Note_on_c, 0, 83, 0
1, 159347, Note_on_c, 0, 47, 0
1, 159410, Note_on_c, 0, 40, 57
1, 159427, Note_on_c, 0, 47, 59
1, 159462, Note_on_c, 0, 81, 64
1, 159487, Note_on_c, 0, 40, 0
1, 159510, Note_on_c, 0, 83, 64
1, 159530, Note_on_c, 0, 47, 0
1, 159540, Note_on_c, 0, 81, 0
1, 159587, Note_on_c, 0, 55, 60
1, 159612, Note_on_c, 0, 47, 60
1, 159617, Note_on_c, 0, 81, 64
1, 159645, Note_on_c, 0, 55, 0
1, 159670, Note_on_c, 0, 47, 0
1, 159700, Note_on_c, 0, 79, 61
1, 159710, Note_on_c, 0, 83, 0
1, 159747, Note_on_c, 0, 78, 61
1, 159760, Note_on_c, 0, 47, 60
1, 159780, Note_on_c, 0, 81, 0
1, 159780, Note_on_c, 0, 54, 60
1, 159782, Note_on_c, 0, 79, 0
1, 159820, Note_on_c, 0, 76, 65
1, 159827, Note_on_c, 0, 78, 0
1, 159835, Note_on_c, 0, 54, 0
1, 159860, Note_on_c, 0, 47, 0
1, 159875, Note_on_c, 0, 76, 0
1, 159912, Note_on_c, 0, 74, 60
1, 159925, Note_on_c, 0, 40, 60
1, 159990, Note_on_c, 0, 47, 60
1, 160005, Note_on_c, 0, 40, 0
1, 160027, Note_on_c, 0, 72, 69
1, 160035, Note_on_c, 0, 74, 0
1, 160045, Note_on_c, 0, 47, 0
1, 160092, Note_on_c, 0, 71, 74
1, 160122, Note_on_c, 0, 55, 59
1, 160125, Note_on_c, 0, 47, 57
1, 160177, Note_on_c, 0, 55, 0
1, 160202, Note_on_c, 0, 47, 0
1, 160305, Note_on_c, 0, 54, 53
1, 160307, Note_on_c, 0, 47, 55
1, 160360, Note_on_c, 0, 54, 0
1, 160362, Note_on_c, 0, 47, 0
1, 160440, Note_on_c, 0, 47, 60
1, 160442, Note_on_c, 0, 40, 57
1, 160495, Note_on_c, 0, 47, 0
1, 160507, Note_on_c, 0, 72, 0
1, 160520, Note_on_c, 0, 40, 0
1, 160530, Note_on_c, 0, 71, 0
1, 160592, Note_on_c, 0, 55, 57
1, 160597, Note_on_c, 0, 47, 56
1, 160647, Note_on_c, 0, 55, 0
1, 160695, Note_on_c, 0, 47, 0
1, 160770, Note_on_c, 0, 54, 56
1, 160772, Note_on_c, 0, 47, 60
1, 160805, Control_c, 0, 67, 0
1, 160847, Note_on_c, 0, 54, 0
1, 160895, Note_on_c, 0, 47, 0
1, 160962, Control_c, 0, 64, 127
1, 160977, Note_on_c, 0, 47, 74
1, 160980, Note_on_c, 0, 40, 75
1, 160982, Note_on_c, 0, 95, 95
1, 160997, Note_on_c, 0, 52, 77
1, 161037, Note_on_c, 0, 40, 0
1, 161055, Note_on_c, 0, 47, 0
1, 161100, Note_on_c, 0, 52, 0
1, 161460, Note_on_c, 0, 95, 0
1, 161460, Note_on_c, 0, 64, 88
1, 161462, Note_on_c, 0, 59, 105
1, 161565, Note_on_c, 0, 93, 118
1, 161570, Note_on_c, 0, 71, 108
1, 161620, Note_on_c, 0, 93, 0
1, 161632, Note_on_c, 0, 95, 104
1, 161700, Note_on_c, 0, 93, 102
1, 161730, Note_on_c, 0, 95, 0
1, 161775, Note_on_c, 0, 93, 0
1, 161785, Note_on_c, 0, 91, 92
1, 161840, Note_on_c, 0, 91, 0
1, 161852, Note_on_c, 0, 90, 88
1, 161865, Note_on_c, 0, 59, 0
1, 161880, Note_on_c, 0, 71, 0
1, 161895, Note_on_c, 0, 64, 0
1, 161940, Note_on_c, 0, 88, 87
1, 162005, Note_on_c, 0, 86, 82
1, 162037, Note_on_c, 0, 90, 0
1, 162040, Note_on_c, 0, 88, 0
1, 162060, Note_on_c, 0, 86, 0
1, 162075, Note_on_c, 0, 84, 73
1, 162142, Note_on_c, 0, 83, 72
1, 162152, Note_on_c, 0, 84, 0
1, 162187, Note_on_c, 0, 81, 71
1, 162245, Note_on_c, 0, 83, 0
1, 162257, Note_on_c, 0, 79, 66
1, 162267, Note_on_c, 0, 81, 0
1, 162327, Note_on_c, 0, 78, 64
1, 162337, Note_on_c, 0, 79, 0
1, 162395, Note_on_c, 0, 76, 62
1, 162467, Note_on_c, 0, 74, 60
1, 162497, Note_on_c, 0, 78, 0
1, 162520, Note_on_c, 0, 76, 0
1, 162537, Note_on_c, 0, 72, 56
1, 162542, Note_on_c, 0, 74, 0
1, 162592, Note_on_c, 0, 72, 0
1, 162607, Note_on_c, 0, 71, 60
1, 162680, Note_on_c, 0, 69, 61
1, 162712, Note_on_c, 0, 71, 0
1, 162750, Note_on_c, 0, 67, 61
1, 162760, Note_on_c, 0, 69, 0
1, 162807, Note_on_c, 0, 67, 0
1, 162822, Note_on_c, 0, 66, 54
1, 162895, Note_on_c, 0, 64, 55
1, 162950, Note_on_c, 0, 66, 0
1, 162962, Note_on_c, 0, 62, 62
1, 162987, Control_c, 0, 64, 0
1, 162997, Note_on_c, 0, 64, 0
1, 163040, Note_on_c, 0, 62, 0
1, 163052, Note_on_c, 0, 60, 85
1, 163510, Control_c, 0, 67, 127
1, 164270, Note_on_c, 0, 69, 76
1, 164272, Note_on_c, 0, 65, 47
1, 164275, Note_on_c, 0, 63, 60
1, 164372, Note_on_c, 0, 69, 0
1, 164497, Note_on_c, 0, 69, 48
1, 164552, Note_on_c, 0, 69, 0
1, 164637, Note_on_c, 0, 69, 57
1, 164692, Note_on_c, 0, 69, 0
1, 164752, Note_on_c, 0, 69, 60
1, 164807, Note_on_c, 0, 69, 0
1, 164890, Note_on_c, 0, 69, 61
1, 164945, Note_on_c, 0, 69, 0
1, 165030, Note_on_c, 0, 69, 58
1, 165130, Note_on_c, 0, 69, 0
1, 165200, Note_on_c, 0, 60, 0
1, 165257, Note_on_c, 0, 69, 56
1, 165315, Note_on_c, 0, 65, 0
1, 165335, Note_on_c, 0, 69, 0
1, 165407, Note_on_c, 0, 63, 0
1, 165512, Note_on_c, 0, 75, 56
1, 165512, Note_on_c, 0, 83, 60
1, 165517, Note_on_c, 0, 59, 53
1, 165540, Note_on_c, 0, 66, 58
1, 165592, Note_on_c, 0, 83, 0
1, 165592, Note_on_c, 0, 75, 0
1, 165597, Note_on_c, 0, 59, 0
1, 165640, Note_on_c, 0, 66, 0
1, 165742, Note_on_c, 0, 88, 71
1, 165770, Note_on_c, 0, 79, 67
1, 165772, Note_on_c, 0, 71, 65
1, 165775, Note_on_c, 0, 64, 62
1, 165822, Note_on_c, 0, 88, 0
1, 165825, Note_on_c, 0, 79, 0
1, 165825, Note_on_c, 0, 71, 0
1, 165850, Note_on_c, 0, 64, 0
1, 166417, Note_on_c, 0, 28, 47
1, 166452, Note_on_c, 0, 52, 60
1, 166452, Note_on_c, 0, 55, 60
1, 166455, Note_on_c, 0, 47, 59
1, 166460, Note_on_c, 0, 40, 59
1, 166475, Note_on_c, 0, 28, 0
1, 166507, Note_on_c, 0, 55, 0
1, 166510, Note_on_c, 0, 52, 0
1, 166512, Note_on_c, 0, 47, 0
1, 166515, Note_on_c, 0, 40, 0
1, 167085, Control_c, 0, 64, 127
1, 167150, Note_on_c, 0, 47, 57
1, 167170, Note_on_c, 0, 52, 48
1, 167170, Note_on_c, 0, 55, 48
1, 167177, Note_on_c, 0, 40, 48
1, 167182, Note_on_c, 0, 28, 48
1, 167225, Note_on_c, 0, 52, 0
1, 167227, Note_on_c, 0, 55, 0
1, 167230, Note_on_c, 0, 47, 0
1, 167237, Note_on_c, 0, 40, 0
1, 167265, Note_on_c, 0, 28, 0
1, 167400, Control_c, 0, 64, 0
1, 167752, Control_c, 0, 67, 0
1, 167752, End_track
0, 0, End_of_file
