0, 0, Header, 0, 1, 480
1, 0, Start_track
1, 0, Title_t, "L'Ondine  "
1, 0, Title_t, "Op. 101"
1, 0, Text_t, "cb pb Cecile Chamiande"
1, 0, Time_signature, 4, 2, 24, 8
1, 0, Key_signature, 0, "major"
1, 0, Tempo, 500000
1, 0, Program_c, 0, 0
1, 0, Control_c, 0, 7, 115
1, 0, Control_c, 0, 91, 91
1, 0, Control_c, 0, 11, 110
1, 1130, Control_c, 0, 64, 127
1, 1190, Control_c, 0, 64, 0
1, 1360, Control_c, 0, 64, 127
1, 1420, Control_c, 0, 64, 0
1, 2375, Control_c, 0, 64, 127
1, 2435, Control_c, 0, 64, 0
1, 2642, Control_c, 0, 64, 127
1, 2755, Note_on_c, 0, 51, 54
1, 2822, Note_on_c, 0, 58, 56
1, 2830, Note_on_c, 0, 51, 0
1, 2922, Note_on_c, 0, 63, 53
1, 2950, Note_on_c, 0, 58, 0
1, 2997, Note_on_c, 0, 63, 0
1, 3015, Note_on_c, 0, 67, 50
1, 3115, Note_on_c, 0, 70, 53
1, 3122, Note_on_c, 0, 67, 0
1, 3167, Note_on_c, 0, 70, 0
1, 3435, Control_c, 0, 64, 0
1, 3520, Note_on_c, 0, 56, 52
1, 3615, Note_on_c, 0, 63, 55
1, 3707, Control_c, 0, 64, 127
1, 3710, Note_on_c, 0, 65, 60
1, 3785, Note_on_c, 0, 63, 0
1, 3787, Note_on_c, 0, 56, 0
1, 3807, Note_on_c, 0, 68, 59
1, 3840, Note_on_c, 0, 65, 0
1, 3860, Note_on_c, 0, 68, 0
1, 3900, Note_on_c, 0, 72, 59
1, 3955, Note_on_c, 0, 72, 0
1, 4182, Control_c, 0, 64, 0
1, 4337, Note_on_c, 0, 51, 61
1, 4402, Note_on_c, 0, 58, 54
1, 4500, Note_on_c, 0, 63, 57
1, 4570, Control_c, 0, 64, 127
1, 4595, Note_on_c, 0, 67, 55
1, 4600, Note_on_c, 0, 58, 0
1, 4602, Note_on_c, 0, 51, 0
1, 4602, Note_on_c, 0, 63, 0
1, 4677, Note_on_c, 0, 67, 0
1, 4697, Note_on_c, 0, 70, 59
1, 4750, Note_on_c, 0, 70, 0
1, 4962, Control_c, 0, 64, 0
1, 5117, Note_on_c, 0, 56, 52
1, 5190, Note_on_c, 0, 63, 50
1, 5270, Note_on_c, 0, 65, 50
1, 5360, Note_on_c, 0, 68, 54
1, 5362, Control_c, 0, 64, 127
1, 5395, Note_on_c, 0, 56, 0
1, 5417, Note_on_c, 0, 63, 0
1, 5470, Note_on_c, 0, 68, 0
1, 5472, Note_on_c, 0, 65, 0
1, 5480, Note_on_c, 0, 72, 56
1, 5560, Note_on_c, 0, 72, 0
1, 5760, Control_c, 0, 64, 0
1, 5870, Note_on_c, 0, 51, 50
1, 5892, Note_on_c, 0, 87, 67
1, 5967, Note_on_c, 0, 58, 50
1, 6060, Control_c, 0, 64, 127
1, 6082, Note_on_c, 0, 63, 51
1, 6135, Note_on_c, 0, 51, 0
1, 6137, Note_on_c, 0, 58, 0
1, 6162, Note_on_c, 0, 63, 0
1, 6200, Note_on_c, 0, 67, 52
1, 6295, Note_on_c, 0, 70, 55
1, 6325, Note_on_c, 0, 67, 0
1, 6352, Note_on_c, 0, 70, 0
1, 6507, Note_on_c, 0, 82, 68
1, 6587, Control_c, 0, 64, 0
1, 6622, Note_on_c, 0, 56, 62
1, 6650, Note_on_c, 0, 87, 0
1, 6670, Note_on_c, 0, 84, 63
1, 6675, Note_on_c, 0, 82, 0
1, 6695, Note_on_c, 0, 63, 59
1, 6815, Note_on_c, 0, 65, 49
1, 6937, Note_on_c, 0, 68, 54
1, 6940, Control_c, 0, 64, 127
1, 6967, Note_on_c, 0, 63, 0
1, 6970, Note_on_c, 0, 56, 0
1, 7037, Note_on_c, 0, 72, 53
1, 7045, Note_on_c, 0, 65, 0
1, 7092, Note_on_c, 0, 68, 0
1, 7115, Note_on_c, 0, 84, 0
1, 7160, Note_on_c, 0, 72, 0
1, 7252, Note_on_c, 0, 84, 63
1, 7260, Control_c, 0, 64, 0
1, 7417, Note_on_c, 0, 87, 63
1, 7420, Note_on_c, 0, 51, 51
1, 7427, Note_on_c, 0, 84, 0
1, 7487, Note_on_c, 0, 58, 50
1, 7560, Control_c, 0, 64, 127
1, 7587, Note_on_c, 0, 63, 50
1, 7617, Note_on_c, 0, 51, 0
1, 7640, Note_on_c, 0, 58, 0
1, 7662, Note_on_c, 0, 63, 0
1, 7680, Note_on_c, 0, 67, 50
1, 7777, Note_on_c, 0, 70, 52
1, 7807, Note_on_c, 0, 67, 0
1, 7847, Note_on_c, 0, 70, 0
1, 7942, Control_c, 0, 64, 0
1, 7965, Note_on_c, 0, 82, 74
1, 8152, Note_on_c, 0, 84, 70
1, 8155, Note_on_c, 0, 56, 55
1, 8182, Note_on_c, 0, 82, 0
1, 8220, Note_on_c, 0, 63, 55
1, 8222, Note_on_c, 0, 87, 0
1, 8292, Control_c, 0, 64, 127
1, 8320, Note_on_c, 0, 68, 57
1, 8327, Note_on_c, 0, 56, 0
1, 8350, Note_on_c, 0, 63, 0
1, 8350, Note_on_c, 0, 84, 0
1, 8362, Note_on_c, 0, 82, 73
1, 8372, Note_on_c, 0, 68, 0
1, 8407, Note_on_c, 0, 72, 59
1, 8465, Note_on_c, 0, 82, 0
1, 8490, Note_on_c, 0, 75, 56
1, 8520, Note_on_c, 0, 72, 0
1, 8532, Note_on_c, 0, 80, 69
1, 8542, Note_on_c, 0, 75, 0
1, 8717, Note_on_c, 0, 80, 0
1, 8755, Note_on_c, 0, 79, 62
1, 8760, Control_c, 0, 64, 0
1, 8920, Note_on_c, 0, 51, 50
1, 8962, Note_on_c, 0, 77, 61
1, 8975, Note_on_c, 0, 79, 0
1, 9017, Note_on_c, 0, 58, 51
1, 9110, Note_on_c, 0, 62, 53
1, 9157, Control_c, 0, 64, 127
1, 9187, Note_on_c, 0, 51, 0
1, 9212, Note_on_c, 0, 62, 0
1, 9215, Note_on_c, 0, 58, 0
1, 9237, Note_on_c, 0, 65, 50
1, 9325, Note_on_c, 0, 70, 55
1, 9332, Note_on_c, 0, 65, 0
1, 9405, Note_on_c, 0, 77, 0
1, 9407, Note_on_c, 0, 70, 0
1, 9422, Note_on_c, 0, 82, 70
1, 9757, Control_c, 0, 64, 0
1, 9817, Note_on_c, 0, 51, 50
1, 9842, Note_on_c, 0, 79, 61
1, 9917, Note_on_c, 0, 58, 50
1, 9922, Note_on_c, 0, 82, 0
1, 10035, Note_on_c, 0, 63, 49
1, 10107, Control_c, 0, 64, 127
1, 10110, Note_on_c, 0, 77, 67
1, 10115, Note_on_c, 0, 79, 0
1, 10140, Note_on_c, 0, 58, 0
1, 10140, Note_on_c, 0, 51, 0
1, 10157, Note_on_c, 0, 67, 54
1, 10165, Note_on_c, 0, 63, 0
1, 10280, Note_on_c, 0, 70, 56
1, 10312, Note_on_c, 0, 67, 0
1, 10335, Note_on_c, 0, 70, 0
1, 10357, Note_on_c, 0, 77, 0
1, 10395, Note_on_c, 0, 75, 72
1, 10635, Control_c, 0, 64, 0
1, 10637, Note_on_c, 0, 70, 62
1, 10687, Note_on_c, 0, 75, 0
1, 10800, Note_on_c, 0, 44, 50
1, 10805, Note_on_c, 0, 70, 0
1, 10825, Note_on_c, 0, 72, 62
1, 10917, Note_on_c, 0, 51, 50
1, 10962, Control_c, 0, 64, 127
1, 11040, Note_on_c, 0, 56, 50
1, 11045, Note_on_c, 0, 44, 0
1, 11070, Note_on_c, 0, 51, 0
1, 11132, Note_on_c, 0, 60, 52
1, 11142, Note_on_c, 0, 56, 0
1, 11240, Note_on_c, 0, 60, 0
1, 11252, Note_on_c, 0, 63, 53
1, 11300, Note_on_c, 0, 75, 71
1, 11307, Note_on_c, 0, 63, 0
1, 11332, Note_on_c, 0, 72, 0
1, 11577, Control_c, 0, 64, 0
1, 11640, Note_on_c, 0, 34, 62
1, 11697, Note_on_c, 0, 75, 0
1, 11710, Note_on_c, 0, 46, 61
1, 11807, Note_on_c, 0, 75, 60
1, 11840, Note_on_c, 0, 77, 65
1, 11885, Note_on_c, 0, 75, 0
1, 11925, Control_c, 0, 64, 127
1, 11927, Note_on_c, 0, 53, 55
1, 11940, Note_on_c, 0, 77, 0
1, 11957, Note_on_c, 0, 34, 0
1, 11960, Note_on_c, 0, 46, 0
1, 12047, Note_on_c, 0, 58, 54
1, 12055, Note_on_c, 0, 53, 0
1, 12142, Note_on_c, 0, 62, 50
1, 12152, Note_on_c, 0, 58, 0
1, 12217, Note_on_c, 0, 65, 53
1, 12222, Note_on_c, 0, 62, 0
1, 12267, Note_on_c, 0, 74, 58
1, 12322, Note_on_c, 0, 65, 0
1, 12335, Note_on_c, 0, 80, 69
1, 12407, Note_on_c, 0, 82, 69
1, 12437, Note_on_c, 0, 74, 0
1, 12670, Control_c, 0, 64, 0
1, 12752, Note_on_c, 0, 39, 64
1, 12772, Note_on_c, 0, 80, 0
1, 12780, Note_on_c, 0, 27, 60
1, 12782, Note_on_c, 0, 79, 51
1, 12817, Note_on_c, 0, 82, 0
1, 12840, Note_on_c, 0, 87, 73
1, 12877, Note_on_c, 0, 55, 60
1, 12960, Note_on_c, 0, 55, 0
1, 13005, Note_on_c, 0, 58, 59
1, 13042, Control_c, 0, 64, 127
1, 13077, Note_on_c, 0, 39, 0
1, 13077, Note_on_c, 0, 27, 0
1, 13080, Note_on_c, 0, 58, 0
1, 13107, Note_on_c, 0, 79, 0
1, 13127, Note_on_c, 0, 63, 61
1, 13207, Note_on_c, 0, 63, 0
1, 13225, Note_on_c, 0, 67, 61
1, 13305, Note_on_c, 0, 67, 0
1, 13320, Note_on_c, 0, 75, 65
1, 13460, Note_on_c, 0, 82, 75
1, 13505, Control_c, 0, 64, 0
1, 13515, Note_on_c, 0, 82, 0
1, 13537, Note_on_c, 0, 75, 0
1, 13600, Note_on_c, 0, 82, 64
1, 13617, Note_on_c, 0, 32, 60
1, 13640, Note_on_c, 0, 44, 59
1, 13670, Note_on_c, 0, 84, 69
1, 13725, Note_on_c, 0, 87, 0
1, 13737, Note_on_c, 0, 51, 56
1, 13825, Control_c, 0, 64, 127
1, 13830, Note_on_c, 0, 56, 53
1, 13860, Note_on_c, 0, 51, 0
1, 13860, Note_on_c, 0, 44, 0
1, 13882, Note_on_c, 0, 32, 0
1, 13887, Note_on_c, 0, 82, 0
1, 13907, Note_on_c, 0, 60, 50
1, 13912, Note_on_c, 0, 56, 0
1, 14017, Note_on_c, 0, 63, 52
1, 14027, Note_on_c, 0, 84, 0
1, 14045, Note_on_c, 0, 60, 0
1, 14070, Note_on_c, 0, 80, 58
1, 14100, Note_on_c, 0, 63, 0
1, 14217, Note_on_c, 0, 80, 0
1, 14235, Note_on_c, 0, 84, 66
1, 14282, Control_c, 0, 64, 0
1, 14392, Note_on_c, 0, 39, 64
1, 14430, Note_on_c, 0, 84, 0
1, 14470, Note_on_c, 0, 80, 60
1, 14470, Note_on_c, 0, 87, 74
1, 14515, Note_on_c, 0, 46, 61
1, 14612, Control_c, 0, 64, 127
1, 14640, Note_on_c, 0, 51, 59
1, 14675, Note_on_c, 0, 87, 0
1, 14685, Note_on_c, 0, 79, 68
1, 14690, Note_on_c, 0, 46, 0
1, 14695, Note_on_c, 0, 39, 0
1, 14715, Note_on_c, 0, 51, 0
1, 14720, Note_on_c, 0, 80, 0
1, 14735, Note_on_c, 0, 55, 56
1, 14820, Note_on_c, 0, 79, 0
1, 14852, Note_on_c, 0, 58, 58
1, 14855, Note_on_c, 0, 77, 72
1, 14862, Note_on_c, 0, 55, 0
1, 14932, Note_on_c, 0, 58, 0
1, 14957, Note_on_c, 0, 77, 0
1, 15020, Note_on_c, 0, 75, 59
1, 15022, Note_on_c, 0, 82, 69
1, 15065, Control_c, 0, 64, 0
1, 15072, Note_on_c, 0, 75, 0
1, 15140, Note_on_c, 0, 75, 60
1, 15145, Note_on_c, 0, 82, 0
1, 15202, Note_on_c, 0, 44, 61
1, 15207, Note_on_c, 0, 84, 72
1, 15300, Note_on_c, 0, 51, 58
1, 15390, Note_on_c, 0, 56, 60
1, 15405, Control_c, 0, 64, 127
1, 15435, Note_on_c, 0, 79, 72
1, 15462, Note_on_c, 0, 51, 0
1, 15462, Note_on_c, 0, 44, 0
1, 15470, Note_on_c, 0, 84, 0
1, 15487, Note_on_c, 0, 75, 0
1, 15490, Note_on_c, 0, 56, 0
1, 15510, Note_on_c, 0, 60, 54
1, 15600, Note_on_c, 0, 63, 52
1, 15605, Note_on_c, 0, 60, 0
1, 15630, Note_on_c, 0, 79, 0
1, 15647, Note_on_c, 0, 77, 63
1, 15707, Note_on_c, 0, 63, 0
1, 15720, Control_c, 0, 64, 0
1, 15840, Note_on_c, 0, 75, 62
1, 15895, Note_on_c, 0, 75, 0
1, 15897, Note_on_c, 0, 77, 0
1, 15902, Note_on_c, 0, 34, 57
1, 15985, Note_on_c, 0, 75, 61
1, 16005, Note_on_c, 0, 46, 57
1, 16067, Note_on_c, 0, 77, 61
1, 16122, Control_c, 0, 64, 127
1, 16130, Note_on_c, 0, 53, 57
1, 16155, Note_on_c, 0, 34, 0
1, 16157, Note_on_c, 0, 46, 0
1, 16162, Note_on_c, 0, 75, 0
1, 16185, Note_on_c, 0, 53, 0
1, 16277, Note_on_c, 0, 56, 55
1, 16327, Note_on_c, 0, 74, 52
1, 16380, Note_on_c, 0, 56, 0
1, 16425, Note_on_c, 0, 62, 62
1, 16445, Note_on_c, 0, 72, 54
1, 16455, Note_on_c, 0, 74, 0
1, 16457, Note_on_c, 0, 77, 0
1, 16542, Note_on_c, 0, 65, 54
1, 16547, Note_on_c, 0, 62, 0
1, 16570, Note_on_c, 0, 72, 0
1, 16595, Note_on_c, 0, 82, 72
1, 16597, Note_on_c, 0, 65, 0
1, 16670, Note_on_c, 0, 82, 0
1, 16782, Note_on_c, 0, 74, 65
1, 16802, Control_c, 0, 64, 0
1, 16880, Note_on_c, 0, 74, 0
1, 16965, Note_on_c, 0, 48, 57
1, 16970, Note_on_c, 0, 75, 55
1, 16972, Note_on_c, 0, 80, 64
1, 17132, Note_on_c, 0, 55, 56
1, 17145, Control_c, 0, 64, 127
1, 17225, Note_on_c, 0, 48, 0
1, 17227, Note_on_c, 0, 55, 0
1, 17232, Note_on_c, 0, 80, 0
1, 17245, Note_on_c, 0, 60, 58
1, 17272, Note_on_c, 0, 79, 68
1, 17327, Note_on_c, 0, 75, 0
1, 17360, Note_on_c, 0, 63, 60
1, 17367, Note_on_c, 0, 60, 0
1, 17487, Note_on_c, 0, 67, 56
1, 17527, Note_on_c, 0, 77, 73
1, 17557, Note_on_c, 0, 63, 0
1, 17560, Note_on_c, 0, 67, 0
1, 17610, Note_on_c, 0, 79, 0
1, 17700, Note_on_c, 0, 75, 60
1, 17700, Note_on_c, 0, 67, 60
1, 17730, Control_c, 0, 64, 0
1, 17762, Note_on_c, 0, 44, 59
1, 17780, Note_on_c, 0, 67, 0
1, 17802, Note_on_c, 0, 77, 0
1, 17802, Note_on_c, 0, 75, 0
1, 17882, Note_on_c, 0, 51, 58
1, 17885, Note_on_c, 0, 72, 53
1, 17887, Note_on_c, 0, 79, 62
1, 17942, Control_c, 0, 64, 127
1, 18002, Note_on_c, 0, 44, 0
1, 18002, Note_on_c, 0, 56, 56
1, 18005, Note_on_c, 0, 51, 0
1, 18095, Note_on_c, 0, 60, 56
1, 18102, Note_on_c, 0, 56, 0
1, 18150, Note_on_c, 0, 72, 0
1, 18172, Note_on_c, 0, 75, 62
1, 18177, Note_on_c, 0, 79, 0
1, 18190, Control_c, 0, 64, 0
1, 18197, Note_on_c, 0, 60, 0
1, 18300, Note_on_c, 0, 46, 55
1, 18340, Note_on_c, 0, 75, 0
1, 18387, Note_on_c, 0, 46, 0
1, 18390, Note_on_c, 0, 70, 62
1, 18390, Note_on_c, 0, 74, 63
1, 18452, Note_on_c, 0, 62, 62
1, 18455, Note_on_c, 0, 77, 70
1, 18520, Control_c, 0, 64, 127
1, 18537, Note_on_c, 0, 70, 0
1, 18647, Note_on_c, 0, 68, 57
1, 18655, Note_on_c, 0, 74, 0
1, 18692, Control_c, 0, 64, 0
1, 18777, Note_on_c, 0, 62, 0
1, 18797, Note_on_c, 0, 68, 0
1, 18820, Note_on_c, 0, 77, 0
1, 18832, Note_on_c, 0, 51, 60
1, 18835, Note_on_c, 0, 58, 61
1, 18885, Note_on_c, 0, 75, 76
1, 18912, Note_on_c, 0, 58, 0
1, 18982, Note_on_c, 0, 67, 59
1, 19035, Note_on_c, 0, 75, 0
1, 19062, Note_on_c, 0, 67, 0
1, 19072, Control_c, 0, 64, 127
1, 19130, Note_on_c, 0, 63, 62
1, 19135, Note_on_c, 0, 51, 0
1, 19222, Note_on_c, 0, 55, 55
1, 19280, Note_on_c, 0, 63, 0
1, 19307, Note_on_c, 0, 55, 0
1, 19337, Note_on_c, 0, 27, 55
1, 19362, Note_on_c, 0, 39, 53
1, 19417, Note_on_c, 0, 27, 0
1, 19462, Control_c, 0, 64, 0
1, 19465, Note_on_c, 0, 39, 0
1, 19930, Note_on_c, 0, 77, 62
1, 19932, Note_on_c, 0, 74, 52
1, 19935, Note_on_c, 0, 70, 52
1, 19935, Note_on_c, 0, 82, 54
1, 19937, Note_on_c, 0, 89, 63
1, 20110, Note_on_c, 0, 82, 0
1, 20592, Note_on_c, 0, 77, 0
1, 20612, Note_on_c, 0, 70, 0
1, 20615, Note_on_c, 0, 89, 0
1, 20637, Note_on_c, 0, 74, 0
1, 20732, Note_on_c, 0, 74, 71
1, 20732, Note_on_c, 0, 77, 81
1, 20732, Note_on_c, 0, 82, 72
1, 20735, Note_on_c, 0, 70, 71
1, 20735, Note_on_c, 0, 89, 83
1, 20785, Note_on_c, 0, 74, 0
1, 20787, Note_on_c, 0, 70, 0
1, 20810, Note_on_c, 0, 77, 0
1, 20810, Note_on_c, 0, 82, 0
1, 20812, Note_on_c, 0, 89, 0
1, 20877, Note_on_c, 0, 80, 78
1, 20880, Note_on_c, 0, 65, 65
1, 20880, Note_on_c, 0, 74, 65
1, 20880, Note_on_c, 0, 70, 64
1, 20905, Note_on_c, 0, 86, 65
1, 20905, Note_on_c, 0, 92, 74
1, 20972, Control_c, 0, 64, 127
1, 20980, Note_on_c, 0, 86, 0
1, 21000, Note_on_c, 0, 92, 0
1, 21050, Note_on_c, 0, 74, 0
1, 21072, Note_on_c, 0, 80, 0
1, 21120, Note_on_c, 0, 65, 0
1, 21122, Note_on_c, 0, 70, 0
1, 21157, Control_c, 0, 64, 0
1, 21317, Note_on_c, 0, 75, 71
1, 21317, Note_on_c, 0, 79, 86
1, 21320, Note_on_c, 0, 70, 77
1, 21320, Note_on_c, 0, 87, 80
1, 21320, Note_on_c, 0, 91, 91
1, 21322, Note_on_c, 0, 67, 77
1, 21540, Note_on_c, 0, 87, 0
1, 21565, Note_on_c, 0, 79, 0
1, 21587, Note_on_c, 0, 75, 0
1, 21590, Note_on_c, 0, 70, 0
1, 21592, Note_on_c, 0, 67, 0
1, 21612, Note_on_c, 0, 91, 0
1, 21720, Note_on_c, 0, 79, 79
1, 21720, Note_on_c, 0, 87, 67
1, 21720, Note_on_c, 0, 91, 76
1, 21722, Note_on_c, 0, 67, 62
1, 21722, Note_on_c, 0, 70, 62
1, 21735, Control_c, 0, 64, 127
1, 21777, Note_on_c, 0, 91, 0
1, 21800, Note_on_c, 0, 79, 0
1, 21800, Note_on_c, 0, 87, 0
1, 21827, Note_on_c, 0, 67, 0
1, 21840, Control_c, 0, 64, 0
1, 21857, Note_on_c, 0, 68, 68
1, 21865, Note_on_c, 0, 70, 0
1, 21877, Note_on_c, 0, 72, 71
1, 21880, Note_on_c, 0, 87, 83
1, 21900, Note_on_c, 0, 75, 81
1, 21955, Note_on_c, 0, 72, 0
1, 21982, Note_on_c, 0, 75, 0
1, 21985, Note_on_c, 0, 87, 0
1, 21985, Note_on_c, 0, 68, 0
1, 22120, Note_on_c, 0, 74, 69
1, 22120, Note_on_c, 0, 77, 73
1, 22122, Note_on_c, 0, 70, 62
1, 22122, Note_on_c, 0, 86, 63
1, 22147, Note_on_c, 0, 89, 72
1, 22167, Control_c, 0, 64, 127
1, 22225, Note_on_c, 0, 77, 0
1, 22250, Note_on_c, 0, 86, 0
1, 22250, Note_on_c, 0, 89, 0
1, 22272, Note_on_c, 0, 70, 0
1, 22310, Control_c, 0, 64, 0
1, 22317, Note_on_c, 0, 74, 0
1, 22447, Note_on_c, 0, 63, 71
1, 22450, Note_on_c, 0, 67, 74
1, 22500, Note_on_c, 0, 75, 72
1, 22500, Note_on_c, 0, 70, 71
1, 22545, Note_on_c, 0, 79, 81
1, 22545, Note_on_c, 0, 87, 75
1, 22545, Note_on_c, 0, 91, 86
1, 22582, Control_c, 0, 64, 127
1, 22642, Note_on_c, 0, 75, 0
1, 22667, Note_on_c, 0, 70, 0
1, 22695, Note_on_c, 0, 67, 0
1, 22740, Note_on_c, 0, 63, 0
1, 22855, Note_on_c, 0, 91, 0
1, 22882, Note_on_c, 0, 87, 0
1, 22890, Note_on_c, 0, 39, 71
1, 22892, Note_on_c, 0, 27, 70
1, 22907, Note_on_c, 0, 79, 0
1, 22970, Note_on_c, 0, 39, 0
1, 22970, Control_c, 0, 64, 0
1, 22992, Note_on_c, 0, 27, 0
1, 23390, Note_on_c, 0, 51, 65
1, 23392, Note_on_c, 0, 58, 71
1, 23395, Note_on_c, 0, 63, 71
1, 23397, Note_on_c, 0, 67, 81
1, 23950, Note_on_c, 0, 58, 0
1, 23977, Note_on_c, 0, 63, 0
1, 23980, Note_on_c, 0, 67, 0
1, 23997, Note_on_c, 0, 51, 0
1, 24060, Note_on_c, 0, 58, 77
1, 24082, Note_on_c, 0, 51, 76
1, 24085, Note_on_c, 0, 63, 75
1, 24087, Note_on_c, 0, 67, 85
1, 24167, Note_on_c, 0, 63, 0
1, 24187, Note_on_c, 0, 58, 0
1, 24190, Note_on_c, 0, 67, 0
1, 24245, Note_on_c, 0, 48, 72
1, 24250, Note_on_c, 0, 66, 72
1, 24255, Note_on_c, 0, 51, 0
1, 24275, Note_on_c, 0, 57, 69
1, 24342, Note_on_c, 0, 75, 80
1, 24505, Control_c, 0, 64, 127
1, 24540, Note_on_c, 0, 57, 0
1, 24677, Control_c, 0, 64, 0
1, 24690, Note_on_c, 0, 50, 73
1, 24700, Note_on_c, 0, 48, 0
1, 24702, Note_on_c, 0, 75, 0
1, 24715, Note_on_c, 0, 58, 75
1, 24725, Note_on_c, 0, 66, 0
1, 24737, Note_on_c, 0, 74, 88
1, 24740, Note_on_c, 0, 65, 78
1, 24912, Note_on_c, 0, 65, 0
1, 24935, Note_on_c, 0, 58, 0
1, 24962, Note_on_c, 0, 74, 0
1, 25050, Note_on_c, 0, 51, 70
1, 25075, Note_on_c, 0, 58, 70
1, 25097, Note_on_c, 0, 74, 76
1, 25100, Note_on_c, 0, 67, 64
1, 25102, Note_on_c, 0, 50, 0
1, 25220, Control_c, 0, 64, 127
1, 25272, Note_on_c, 0, 58, 0
1, 25277, Note_on_c, 0, 67, 0
1, 25295, Note_on_c, 0, 70, 70
1, 25392, Note_on_c, 0, 51, 0
1, 25392, Control_c, 0, 64, 0
1, 25417, Note_on_c, 0, 74, 0
1, 25440, Note_on_c, 0, 70, 0
1, 25452, Note_on_c, 0, 53, 62
1, 25452, Note_on_c, 0, 57, 62
1, 25477, Note_on_c, 0, 65, 59
1, 25500, Note_on_c, 0, 72, 68
1, 25500, Note_on_c, 0, 69, 57
1, 25582, Note_on_c, 0, 65, 0
1, 25645, Note_on_c, 0, 57, 0
1, 25712, Note_on_c, 0, 63, 56
1, 25790, Note_on_c, 0, 69, 0
1, 25810, Note_on_c, 0, 63, 0
1, 25822, Note_on_c, 0, 46, 62
1, 25825, Note_on_c, 0, 58, 61
1, 25832, Note_on_c, 0, 72, 0
1, 25880, Note_on_c, 0, 53, 0
1, 25902, Note_on_c, 0, 62, 65
1, 25905, Note_on_c, 0, 70, 76
1, 25910, Note_on_c, 0, 58, 0
1, 26017, Control_c, 0, 64, 127
1, 26075, Note_on_c, 0, 46, 0
1, 26217, Note_on_c, 0, 62, 0
1, 26302, Note_on_c, 0, 34, 64
1, 26302, Note_on_c, 0, 46, 63
1, 26337, Note_on_c, 0, 70, 0
1, 26355, Note_on_c, 0, 34, 0
1, 26380, Note_on_c, 0, 46, 0
1, 26620, Note_on_c, 0, 70, 73
1, 26735, Note_on_c, 0, 77, 89
1, 26810, Note_on_c, 0, 83, 77
1, 26877, Note_on_c, 0, 84, 74
1, 26882, Note_on_c, 0, 83, 0
1, 26945, Note_on_c, 0, 85, 71
1, 26952, Note_on_c, 0, 84, 0
1, 26995, Note_on_c, 0, 86, 69
1, 27002, Note_on_c, 0, 85, 0
1, 27060, Note_on_c, 0, 87, 68
1, 27065, Note_on_c, 0, 86, 0
1, 27115, Note_on_c, 0, 77, 0
1, 27117, Note_on_c, 0, 70, 0
1, 27132, Note_on_c, 0, 88, 69
1, 27137, Note_on_c, 0, 87, 0
1, 27180, Note_on_c, 0, 89, 69
1, 27210, Note_on_c, 0, 88, 0
1, 27222, Note_on_c, 0, 77, 77
1, 27245, Note_on_c, 0, 90, 69
1, 27250, Note_on_c, 0, 70, 67
1, 27277, Note_on_c, 0, 77, 0
1, 27280, Note_on_c, 0, 89, 0
1, 27302, Note_on_c, 0, 91, 69
1, 27352, Note_on_c, 0, 90, 0
1, 27385, Note_on_c, 0, 92, 85
1, 27387, Note_on_c, 0, 65, 61
1, 27415, Note_on_c, 0, 91, 0
1, 27432, Note_on_c, 0, 89, 62
1, 27465, Note_on_c, 0, 65, 0
1, 27507, Note_on_c, 0, 86, 64
1, 27540, Note_on_c, 0, 70, 0
1, 27545, Note_on_c, 0, 80, 64
1, 27585, Note_on_c, 0, 74, 65
1, 27600, Note_on_c, 0, 89, 0
1, 27600, Control_c, 0, 64, 0
1, 27612, Control_c, 0, 67, 127
1, 27627, Note_on_c, 0, 92, 0
1, 27630, Note_on_c, 0, 80, 0
1, 27647, Note_on_c, 0, 70, 64
1, 27675, Note_on_c, 0, 86, 0
1, 27717, Note_on_c, 0, 67, 61
1, 27722, Note_on_c, 0, 74, 0
1, 27745, Note_on_c, 0, 91, 78
1, 27767, Note_on_c, 0, 70, 0
1, 27782, Note_on_c, 0, 87, 65
1, 27785, Control_c, 0, 67, 0
1, 27800, Note_on_c, 0, 67, 0
1, 27835, Note_on_c, 0, 82, 68
1, 27882, Control_c, 0, 64, 127
1, 27882, Note_on_c, 0, 79, 67
1, 27925, Note_on_c, 0, 75, 67
1, 27957, Note_on_c, 0, 91, 0
1, 27975, Note_on_c, 0, 70, 66
1, 27980, Note_on_c, 0, 87, 0
1, 27982, Control_c, 0, 64, 0
1, 28005, Note_on_c, 0, 79, 0
1, 28005, Note_on_c, 0, 82, 0
1, 28025, Note_on_c, 0, 68, 65
1, 28050, Note_on_c, 0, 91, 79
1, 28057, Note_on_c, 0, 75, 0
1, 28072, Note_on_c, 0, 87, 67
1, 28082, Note_on_c, 0, 70, 0
1, 28117, Note_on_c, 0, 84, 69
1, 28122, Note_on_c, 0, 87, 0
1, 28140, Note_on_c, 0, 80, 66
1, 28147, Note_on_c, 0, 68, 0
1, 28165, Note_on_c, 0, 75, 67
1, 28192, Note_on_c, 0, 72, 67
1, 28217, Note_on_c, 0, 87, 72
1, 28222, Note_on_c, 0, 80, 0
1, 28250, Note_on_c, 0, 75, 0
1, 28257, Control_c, 0, 67, 127
1, 28270, Note_on_c, 0, 84, 0
1, 28315, Note_on_c, 0, 72, 0
1, 28332, Note_on_c, 0, 58, 70
1, 28340, Note_on_c, 0, 87, 0
1, 28340, Note_on_c, 0, 91, 0
1, 28382, Note_on_c, 0, 89, 84
1, 28427, Control_c, 0, 64, 127
1, 28430, Note_on_c, 0, 86, 77
1, 28500, Note_on_c, 0, 80, 76
1, 28502, Note_on_c, 0, 58, 0
1, 28527, Control_c, 0, 64, 0
1, 28545, Note_on_c, 0, 74, 71
1, 28550, Note_on_c, 0, 89, 0
1, 28550, Note_on_c, 0, 86, 0
1, 28595, Note_on_c, 0, 70, 68
1, 28637, Note_on_c, 0, 65, 66
1, 28642, Note_on_c, 0, 80, 0
1, 28680, Note_on_c, 0, 91, 80
1, 28690, Note_on_c, 0, 74, 0
1, 28692, Note_on_c, 0, 70, 0
1, 28715, Note_on_c, 0, 65, 0
1, 28755, Note_on_c, 0, 87, 70
1, 28800, Note_on_c, 0, 82, 68
1, 28820, Control_c, 0, 64, 127
1, 28820, Note_on_c, 0, 79, 68
1, 28847, Note_on_c, 0, 75, 69
1, 28870, Note_on_c, 0, 70, 72
1, 28877, Note_on_c, 0, 87, 0
1, 28877, Note_on_c, 0, 91, 0
1, 28880, Note_on_c, 0, 82, 0
1, 28902, Note_on_c, 0, 79, 0
1, 28925, Note_on_c, 0, 67, 76
1, 28952, Note_on_c, 0, 75, 0
1, 28987, Note_on_c, 0, 63, 70
1, 28995, Note_on_c, 0, 70, 0
1, 29055, Note_on_c, 0, 58, 71
1, 29127, Note_on_c, 0, 51, 69
1, 29177, Note_on_c, 0, 51, 0
1, 29225, Note_on_c, 0, 58, 0
1, 29230, Note_on_c, 0, 67, 0
1, 29317, Note_on_c, 0, 67, 65
1, 29407, Note_on_c, 0, 70, 69
1, 29415, Note_on_c, 0, 63, 0
1, 29480, Note_on_c, 0, 75, 74
1, 29522, Note_on_c, 0, 79, 63
1, 29570, Note_on_c, 0, 80, 62
1, 29600, Note_on_c, 0, 79, 0
1, 29645, Note_on_c, 0, 81, 62
1, 29677, Note_on_c, 0, 80, 0
1, 29700, Note_on_c, 0, 81, 0
1, 29715, Note_on_c, 0, 82, 60
1, 29760, Note_on_c, 0, 83, 61
1, 29767, Note_on_c, 0, 82, 0
1, 29830, Note_on_c, 0, 84, 64
1, 29862, Note_on_c, 0, 83, 0
1, 29880, Note_on_c, 0, 75, 0
1, 29897, Note_on_c, 0, 85, 64
1, 29950, Note_on_c, 0, 70, 0
1, 29952, Note_on_c, 0, 67, 0
1, 29970, Note_on_c, 0, 86, 66
1, 29972, Note_on_c, 0, 84, 0
1, 29975, Control_c, 0, 64, 0
1, 30017, Note_on_c, 0, 60, 63
1, 30027, Note_on_c, 0, 85, 0
1, 30037, Note_on_c, 0, 87, 79
1, 30050, Note_on_c, 0, 86, 0
1, 30092, Note_on_c, 0, 60, 0
1, 30110, Note_on_c, 0, 81, 67
1, 30182, Note_on_c, 0, 78, 63
1, 30225, Note_on_c, 0, 75, 66
1, 30270, Note_on_c, 0, 69, 63
1, 30300, Note_on_c, 0, 81, 0
1, 30345, Note_on_c, 0, 66, 62
1, 30350, Note_on_c, 0, 75, 0
1, 30352, Note_on_c, 0, 78, 0
1, 30372, Note_on_c, 0, 87, 0
1, 30375, Note_on_c, 0, 69, 0
1, 30385, Note_on_c, 0, 62, 65
1, 30420, Note_on_c, 0, 66, 0
1, 30435, Note_on_c, 0, 86, 79
1, 30465, Note_on_c, 0, 62, 0
1, 30480, Control_c, 0, 64, 127
1, 30480, Note_on_c, 0, 82, 67
1, 30532, Note_on_c, 0, 77, 64
1, 30552, Note_on_c, 0, 74, 62
1, 30582, Control_c, 0, 64, 0
1, 30600, Note_on_c, 0, 70, 60
1, 30625, Note_on_c, 0, 82, 0
1, 30627, Note_on_c, 0, 86, 0
1, 30642, Note_on_c, 0, 65, 56
1, 30650, Note_on_c, 0, 77, 0
1, 30670, Note_on_c, 0, 74, 0
1, 30697, Note_on_c, 0, 70, 0
1, 30712, Note_on_c, 0, 63, 64
1, 30712, Note_on_c, 0, 86, 77
1, 30720, Note_on_c, 0, 65, 0
1, 30755, Note_on_c, 0, 82, 66
1, 30800, Note_on_c, 0, 79, 62
1, 30807, Note_on_c, 0, 82, 0
1, 30875, Control_c, 0, 64, 127
1, 30877, Note_on_c, 0, 75, 63
1, 30885, Note_on_c, 0, 86, 0
1, 30900, Note_on_c, 0, 82, 78
1, 30930, Note_on_c, 0, 79, 0
1, 30930, Note_on_c, 0, 63, 0
1, 30945, Note_on_c, 0, 72, 66
1, 30975, Note_on_c, 0, 75, 0
1, 30975, Note_on_c, 0, 82, 0
1, 31020, Note_on_c, 0, 70, 61
1, 31022, Note_on_c, 0, 72, 0
1, 31080, Note_on_c, 0, 70, 0
1, 31090, Note_on_c, 0, 84, 74
1, 31092, Note_on_c, 0, 65, 62
1, 31140, Note_on_c, 0, 81, 63
1, 31170, Note_on_c, 0, 65, 0
1, 31187, Note_on_c, 0, 77, 63
1, 31190, Control_c, 0, 64, 0
1, 31260, Note_on_c, 0, 75, 64
1, 31272, Note_on_c, 0, 77, 0
1, 31307, Note_on_c, 0, 69, 63
1, 31360, Note_on_c, 0, 75, 0
1, 31362, Note_on_c, 0, 84, 0
1, 31362, Note_on_c, 0, 81, 0
1, 31380, Note_on_c, 0, 65, 62
1, 31382, Control_c, 0, 67, 0
1, 31385, Note_on_c, 0, 69, 0
1, 31447, Note_on_c, 0, 82, 81
1, 31465, Note_on_c, 0, 65, 0
1, 31512, Control_c, 0, 64, 127
1, 31517, Note_on_c, 0, 74, 69
1, 31570, Note_on_c, 0, 70, 68
1, 31617, Note_on_c, 0, 65, 66
1, 31620, Note_on_c, 0, 74, 0
1, 31622, Note_on_c, 0, 82, 0
1, 31657, Note_on_c, 0, 62, 65
1, 31700, Note_on_c, 0, 58, 64
1, 31735, Note_on_c, 0, 65, 0
1, 31750, Note_on_c, 0, 53, 63
1, 31755, Note_on_c, 0, 62, 0
1, 31757, Note_on_c, 0, 70, 0
1, 31795, Note_on_c, 0, 46, 64
1, 31805, Note_on_c, 0, 58, 0
1, 31850, Note_on_c, 0, 53, 0
1, 31870, Note_on_c, 0, 46, 0
1, 32207, Note_on_c, 0, 82, 92
1, 32232, Note_on_c, 0, 58, 100
1, 32235, Note_on_c, 0, 70, 101
1, 32712, Note_on_c, 0, 58, 0
1, 32762, Note_on_c, 0, 70, 0
1, 32785, Note_on_c, 0, 82, 0
1, 32805, Note_on_c, 0, 58, 84
1, 32870, Note_on_c, 0, 58, 0
1, 32917, Note_on_c, 0, 82, 89
1, 32920, Note_on_c, 0, 70, 89
1, 32970, Note_on_c, 0, 70, 0
1, 32970, Note_on_c, 0, 82, 0
1, 33055, Note_on_c, 0, 61, 87
1, 33055, Note_on_c, 0, 78, 94
1, 33055, Note_on_c, 0, 90, 97
1, 33057, Note_on_c, 0, 66, 95
1, 33057, Note_on_c, 0, 82, 99
1, 33057, Note_on_c, 0, 85, 100
1, 33060, Note_on_c, 0, 70, 99
1, 33132, Note_on_c, 0, 82, 0
1, 33132, Note_on_c, 0, 90, 0
1, 33135, Note_on_c, 0, 70, 0
1, 33157, Note_on_c, 0, 78, 0
1, 33160, Note_on_c, 0, 85, 0
1, 33185, Note_on_c, 0, 66, 0
1, 33230, Note_on_c, 0, 61, 0
1, 33500, Note_on_c, 0, 34, 71
1, 33500, Note_on_c, 0, 46, 96
1, 33502, Note_on_c, 0, 58, 95
1, 33577, Note_on_c, 0, 58, 0
1, 33595, Note_on_c, 0, 34, 0
1, 33617, Note_on_c, 0, 46, 0
1, 33987, Note_on_c, 0, 58, 86
1, 33990, Note_on_c, 0, 82, 80
1, 33992, Note_on_c, 0, 70, 78
1, 34435, Note_on_c, 0, 58, 0
1, 34497, Control_c, 0, 64, 0
1, 34500, Note_on_c, 0, 82, 0
1, 34502, Note_on_c, 0, 70, 0
1, 34540, Note_on_c, 0, 58, 94
1, 34660, Note_on_c, 0, 70, 93
1, 34660, Note_on_c, 0, 82, 97
1, 34712, Note_on_c, 0, 82, 0
1, 34715, Note_on_c, 0, 70, 0
1, 34735, Note_on_c, 0, 58, 0
1, 34800, Note_on_c, 0, 77, 94
1, 34800, Note_on_c, 0, 82, 94
1, 34800, Note_on_c, 0, 61, 95
1, 34800, Note_on_c, 0, 85, 93
1, 34800, Note_on_c, 0, 89, 92
1, 34802, Note_on_c, 0, 65, 88
1, 34802, Note_on_c, 0, 70, 88
1, 34865, Control_c, 0, 64, 127
1, 34902, Note_on_c, 0, 89, 0
1, 34920, Note_on_c, 0, 77, 0
1, 34922, Note_on_c, 0, 82, 0
1, 34922, Note_on_c, 0, 85, 0
1, 34950, Note_on_c, 0, 70, 0
1, 34977, Note_on_c, 0, 61, 0
1, 34980, Note_on_c, 0, 65, 0
1, 35240, Note_on_c, 0, 37, 83
1, 35242, Note_on_c, 0, 49, 86
1, 35245, Note_on_c, 0, 61, 86
1, 35325, Note_on_c, 0, 37, 0
1, 35327, Note_on_c, 0, 49, 0
1, 35330, Note_on_c, 0, 61, 0
1, 35510, Control_c, 0, 67, 127
1, 35680, Note_on_c, 0, 58, 90
1, 35702, Note_on_c, 0, 70, 90
1, 35702, Note_on_c, 0, 82, 93
1, 36122, Note_on_c, 0, 58, 0
1, 36212, Note_on_c, 0, 58, 77
1, 36225, Note_on_c, 0, 82, 0
1, 36225, Note_on_c, 0, 70, 0
1, 36265, Note_on_c, 0, 58, 0
1, 36307, Control_c, 0, 64, 0
1, 36382, Note_on_c, 0, 70, 87
1, 36382, Note_on_c, 0, 82, 92
1, 36432, Note_on_c, 0, 82, 0
1, 36432, Note_on_c, 0, 70, 0
1, 36517, Note_on_c, 0, 61, 68
1, 36520, Note_on_c, 0, 64, 88
1, 36520, Note_on_c, 0, 66, 87
1, 36520, Note_on_c, 0, 70, 87
1, 36520, Note_on_c, 0, 76, 86
1, 36522, Note_on_c, 0, 88, 87
1, 36545, Note_on_c, 0, 82, 86
1, 36547, Note_on_c, 0, 85, 84
1, 36620, Note_on_c, 0, 88, 0
1, 36627, Control_c, 0, 64, 127
1, 36642, Note_on_c, 0, 82, 0
1, 36665, Note_on_c, 0, 70, 0
1, 36665, Note_on_c, 0, 76, 0
1, 36687, Note_on_c, 0, 66, 0
1, 36690, Note_on_c, 0, 85, 0
1, 36712, Note_on_c, 0, 64, 0
1, 36737, Note_on_c, 0, 61, 0
1, 37052, Note_on_c, 0, 42, 76
1, 37055, Note_on_c, 0, 54, 64
1, 37057, Note_on_c, 0, 66, 64
1, 37132, Note_on_c, 0, 42, 0
1, 37135, Note_on_c, 0, 54, 0
1, 37137, Note_on_c, 0, 66, 0
1, 37547, Note_on_c, 0, 58, 63
1, 37550, Note_on_c, 0, 82, 71
1, 37572, Note_on_c, 0, 70, 69
1, 38065, Note_on_c, 0, 58, 0
1, 38155, Note_on_c, 0, 58, 82
1, 38162, Note_on_c, 0, 82, 0
1, 38165, Note_on_c, 0, 70, 0
1, 38252, Note_on_c, 0, 58, 0
1, 38272, Control_c, 0, 64, 0
1, 38300, Note_on_c, 0, 70, 80
1, 38300, Note_on_c, 0, 82, 81
1, 38380, Note_on_c, 0, 70, 0
1, 38422, Note_on_c, 0, 82, 0
1, 38462, Note_on_c, 0, 60, 71
1, 38462, Note_on_c, 0, 63, 69
1, 38465, Note_on_c, 0, 66, 69
1, 38465, Note_on_c, 0, 69, 69
1, 38465, Note_on_c, 0, 81, 70
1, 38465, Note_on_c, 0, 84, 69
1, 38492, Note_on_c, 0, 75, 66
1, 38495, Note_on_c, 0, 87, 67
1, 38655, Control_c, 0, 64, 127
1, 38695, Note_on_c, 0, 87, 0
1, 38697, Note_on_c, 0, 84, 0
1, 38697, Note_on_c, 0, 81, 0
1, 38717, Note_on_c, 0, 63, 0
1, 38720, Note_on_c, 0, 66, 0
1, 38720, Note_on_c, 0, 75, 0
1, 38722, Note_on_c, 0, 69, 0
1, 38995, Note_on_c, 0, 60, 0
1, 39010, Note_on_c, 0, 46, 71
1, 39012, Note_on_c, 0, 58, 71
1, 39090, Note_on_c, 0, 46, 0
1, 39115, Note_on_c, 0, 58, 0
1, 39180, Note_on_c, 0, 70, 75
1, 39517, Note_on_c, 0, 34, 66
1, 39520, Note_on_c, 0, 46, 47
1, 39640, Note_on_c, 0, 46, 0
1, 39660, Control_c, 0, 64, 0
1, 39750, Note_on_c, 0, 46, 54
1, 39892, Note_on_c, 0, 53, 58
1, 39952, Control_c, 0, 64, 127
1, 39980, Note_on_c, 0, 58, 53
1, 40010, Note_on_c, 0, 34, 0
1, 40035, Note_on_c, 0, 46, 0
1, 40060, Note_on_c, 0, 53, 0
1, 40062, Note_on_c, 0, 70, 0
1, 40080, Note_on_c, 0, 62, 58
1, 40112, Note_on_c, 0, 58, 0
1, 40175, Note_on_c, 0, 68, 66
1, 40250, Note_on_c, 0, 70, 68
1, 40295, Note_on_c, 0, 74, 70
1, 40360, Note_on_c, 0, 82, 72
1, 40855, Note_on_c, 0, 62, 0
1, 40975, Note_on_c, 0, 68, 0
1, 41025, Note_on_c, 0, 70, 0
1, 41065, Note_on_c, 0, 74, 0
1, 41070, Note_on_c, 0, 82, 0
1, 41150, Note_on_c, 0, 34, 65
1, 41172, Note_on_c, 0, 46, 64
1, 41317, Note_on_c, 0, 34, 0
1, 41347, Note_on_c, 0, 46, 0
1, 41742, Note_on_c, 0, 82, 74
1, 41880, Control_c, 0, 64, 0
1, 42065, Note_on_c, 0, 51, 51
1, 42080, Note_on_c, 0, 82, 0
1, 42185, Note_on_c, 0, 87, 69
1, 42247, Control_c, 0, 64, 127
1, 42250, Note_on_c, 0, 58, 57
1, 42302, Note_on_c, 0, 51, 0
1, 42372, Note_on_c, 0, 63, 59
1, 42427, Note_on_c, 0, 58, 0
1, 42472, Note_on_c, 0, 63, 0
1, 42515, Note_on_c, 0, 67, 59
1, 42605, Note_on_c, 0, 70, 60
1, 42617, Note_on_c, 0, 67, 0
1, 42682, Note_on_c, 0, 70, 0
1, 42887, Note_on_c, 0, 82, 75
1, 42915, Control_c, 0, 64, 0
1, 43057, Note_on_c, 0, 84, 72
1, 43065, Note_on_c, 0, 82, 0
1, 43085, Note_on_c, 0, 56, 58
1, 43177, Note_on_c, 0, 63, 58
1, 43275, Note_on_c, 0, 65, 51
1, 43332, Control_c, 0, 64, 127
1, 43360, Note_on_c, 0, 68, 54
1, 43390, Note_on_c, 0, 63, 0
1, 43412, Note_on_c, 0, 65, 0
1, 43412, Note_on_c, 0, 56, 0
1, 43412, Note_on_c, 0, 68, 0
1, 43455, Note_on_c, 0, 72, 50
1, 43527, Note_on_c, 0, 72, 0
1, 43575, Note_on_c, 0, 84, 0
1, 43600, Note_on_c, 0, 87, 0
1, 43747, Note_on_c, 0, 84, 72
1, 43777, Control_c, 0, 64, 0
1, 43890, Note_on_c, 0, 51, 59
1, 43897, Note_on_c, 0, 84, 0
1, 43935, Note_on_c, 0, 87, 70
1, 43982, Note_on_c, 0, 58, 53
1, 44095, Note_on_c, 0, 63, 53
1, 44115, Control_c, 0, 64, 127
1, 44172, Note_on_c, 0, 51, 0
1, 44197, Note_on_c, 0, 63, 0
1, 44197, Note_on_c, 0, 58, 0
1, 44212, Note_on_c, 0, 67, 63
1, 44310, Note_on_c, 0, 70, 64
1, 44342, Note_on_c, 0, 67, 0
1, 44390, Note_on_c, 0, 70, 0
1, 44567, Note_on_c, 0, 82, 75
1, 44572, Control_c, 0, 64, 0
1, 44732, Note_on_c, 0, 56, 59
1, 44740, Note_on_c, 0, 82, 0
1, 44775, Note_on_c, 0, 84, 64
1, 44822, Note_on_c, 0, 87, 0
1, 44847, Note_on_c, 0, 63, 60
1, 44847, Note_on_c, 0, 82, 61
1, 44865, Note_on_c, 0, 84, 0
1, 44910, Control_c, 0, 64, 127
1, 44912, Note_on_c, 0, 84, 67
1, 44937, Note_on_c, 0, 68, 50
1, 44955, Note_on_c, 0, 82, 0
1, 44967, Note_on_c, 0, 56, 0
1, 45005, Note_on_c, 0, 82, 58
1, 45010, Note_on_c, 0, 63, 0
1, 45030, Note_on_c, 0, 84, 0
1, 45052, Note_on_c, 0, 72, 49
1, 45060, Note_on_c, 0, 68, 0
1, 45105, Note_on_c, 0, 82, 0
1, 45140, Note_on_c, 0, 75, 53
1, 45190, Note_on_c, 0, 80, 69
1, 45192, Note_on_c, 0, 72, 0
1, 45220, Note_on_c, 0, 75, 0
1, 45377, Note_on_c, 0, 80, 0
1, 45395, Note_on_c, 0, 79, 75
1, 45422, Control_c, 0, 64, 0
1, 45532, Note_on_c, 0, 51, 60
1, 45577, Note_on_c, 0, 77, 72
1, 45585, Note_on_c, 0, 79, 0
1, 45620, Note_on_c, 0, 58, 59
1, 45717, Control_c, 0, 64, 127
1, 45742, Note_on_c, 0, 62, 57
1, 45775, Note_on_c, 0, 58, 0
1, 45817, Note_on_c, 0, 62, 0
1, 45837, Note_on_c, 0, 65, 64
1, 45862, Note_on_c, 0, 51, 0
1, 45937, Note_on_c, 0, 70, 63
1, 45965, Note_on_c, 0, 65, 0
1, 45987, Note_on_c, 0, 70, 0
1, 46027, Note_on_c, 0, 82, 81
1, 46367, Note_on_c, 0, 77, 0
1, 46390, Control_c, 0, 64, 0
1, 46475, Note_on_c, 0, 51, 48
1, 46487, Note_on_c, 0, 82, 0
1, 46497, Note_on_c, 0, 79, 69
1, 46592, Note_on_c, 0, 58, 52
1, 46705, Note_on_c, 0, 63, 52
1, 46757, Note_on_c, 0, 79, 0
1, 46777, Control_c, 0, 64, 127
1, 46780, Note_on_c, 0, 77, 67
1, 46807, Note_on_c, 0, 51, 0
1, 46807, Note_on_c, 0, 63, 0
1, 46810, Note_on_c, 0, 58, 0
1, 46827, Note_on_c, 0, 67, 47
1, 46942, Note_on_c, 0, 70, 52
1, 46950, Note_on_c, 0, 67, 0
1, 47020, Note_on_c, 0, 70, 0
1, 47037, Note_on_c, 0, 77, 0
1, 47072, Note_on_c, 0, 75, 68
1, 47285, Note_on_c, 0, 70, 67
1, 47290, Control_c, 0, 64, 0
1, 47360, Note_on_c, 0, 75, 0
1, 47417, Note_on_c, 0, 44, 61
1, 47450, Note_on_c, 0, 70, 0
1, 47462, Note_on_c, 0, 72, 71
1, 47530, Note_on_c, 0, 51, 59
1, 47652, Control_c, 0, 64, 127
1, 47652, Note_on_c, 0, 56, 55
1, 47705, Note_on_c, 0, 51, 0
1, 47705, Note_on_c, 0, 44, 0
1, 47730, Note_on_c, 0, 56, 0
1, 47742, Note_on_c, 0, 60, 60
1, 47845, Note_on_c, 0, 60, 0
1, 47862, Note_on_c, 0, 63, 58
1, 47912, Note_on_c, 0, 63, 0
1, 47947, Note_on_c, 0, 75, 62
1, 48165, Note_on_c, 0, 72, 0
1, 48167, Control_c, 0, 64, 0
1, 48250, Note_on_c, 0, 34, 59
1, 48305, Note_on_c, 0, 75, 0
1, 48350, Note_on_c, 0, 46, 59
1, 48437, Note_on_c, 0, 75, 63
1, 48507, Note_on_c, 0, 77, 69
1, 48510, Control_c, 0, 64, 127
1, 48555, Note_on_c, 0, 53, 54
1, 48562, Note_on_c, 0, 75, 0
1, 48587, Note_on_c, 0, 77, 0
1, 48590, Note_on_c, 0, 34, 0
1, 48605, Note_on_c, 0, 46, 0
1, 48672, Note_on_c, 0, 58, 49
1, 48677, Note_on_c, 0, 53, 0
1, 48770, Note_on_c, 0, 62, 53
1, 48780, Note_on_c, 0, 58, 0
1, 48825, Note_on_c, 0, 62, 0
1, 48870, Note_on_c, 0, 65, 51
1, 48895, Note_on_c, 0, 74, 53
1, 48927, Note_on_c, 0, 65, 0
1, 48940, Note_on_c, 0, 80, 65
1, 49010, Note_on_c, 0, 82, 75
1, 49017, Note_on_c, 0, 74, 0
1, 49320, Control_c, 0, 64, 0
1, 49380, Note_on_c, 0, 27, 61
1, 49397, Note_on_c, 0, 39, 59
1, 49402, Note_on_c, 0, 80, 0
1, 49420, Note_on_c, 0, 79, 67
1, 49450, Note_on_c, 0, 82, 0
1, 49482, Note_on_c, 0, 87, 72
1, 49557, Note_on_c, 0, 55, 57
1, 49647, Control_c, 0, 64, 127
1, 49667, Note_on_c, 0, 58, 54
1, 49695, Note_on_c, 0, 39, 0
1, 49700, Note_on_c, 0, 27, 0
1, 49717, Note_on_c, 0, 79, 0
1, 49742, Note_on_c, 0, 55, 0
1, 49762, Note_on_c, 0, 63, 58
1, 49767, Note_on_c, 0, 58, 0
1, 49855, Note_on_c, 0, 67, 60
1, 49905, Note_on_c, 0, 63, 0
1, 49945, Note_on_c, 0, 75, 58
1, 49980, Note_on_c, 0, 67, 0
1, 50107, Note_on_c, 0, 82, 65
1, 50160, Note_on_c, 0, 82, 0
1, 50167, Control_c, 0, 64, 0
1, 50180, Note_on_c, 0, 75, 0
1, 50247, Note_on_c, 0, 82, 64
1, 50317, Note_on_c, 0, 84, 68
1, 50322, Note_on_c, 0, 44, 56
1, 50347, Note_on_c, 0, 87, 0
1, 50392, Note_on_c, 0, 51, 58
1, 50532, Note_on_c, 0, 56, 53
1, 50562, Control_c, 0, 64, 127
1, 50607, Note_on_c, 0, 82, 0
1, 50632, Note_on_c, 0, 60, 51
1, 50637, Note_on_c, 0, 51, 0
1, 50637, Note_on_c, 0, 44, 0
1, 50662, Note_on_c, 0, 56, 0
1, 50695, Note_on_c, 0, 63, 55
1, 50745, Note_on_c, 0, 84, 0
1, 50750, Note_on_c, 0, 60, 0
1, 50760, Note_on_c, 0, 80, 63
1, 50772, Note_on_c, 0, 63, 0
1, 50935, Note_on_c, 0, 80, 0
1, 50947, Note_on_c, 0, 84, 69
1, 51015, Control_c, 0, 64, 0
1, 51112, Note_on_c, 0, 39, 52
1, 51162, Note_on_c, 0, 84, 0
1, 51200, Note_on_c, 0, 80, 58
1, 51200, Note_on_c, 0, 87, 59
1, 51275, Note_on_c, 0, 46, 49
1, 51352, Control_c, 0, 64, 127
1, 51400, Note_on_c, 0, 39, 0
1, 51410, Note_on_c, 0, 51, 54
1, 51432, Note_on_c, 0, 87, 0
1, 51440, Note_on_c, 0, 46, 0
1, 51447, Note_on_c, 0, 79, 55
1, 51482, Note_on_c, 0, 51, 0
1, 51500, Note_on_c, 0, 80, 0
1, 51525, Note_on_c, 0, 55, 49
1, 51630, Note_on_c, 0, 77, 56
1, 51632, Note_on_c, 0, 58, 54
1, 51637, Note_on_c, 0, 79, 0
1, 51642, Note_on_c, 0, 55, 0
1, 51685, Note_on_c, 0, 77, 0
1, 51715, Note_on_c, 0, 58, 0
1, 51792, Note_on_c, 0, 82, 67
1, 51842, Note_on_c, 0, 75, 66
1, 51857, Control_c, 0, 64, 0
1, 51945, Note_on_c, 0, 82, 0
1, 51990, Note_on_c, 0, 44, 60
1, 51995, Note_on_c, 0, 75, 0
1, 52012, Note_on_c, 0, 84, 67
1, 52062, Note_on_c, 0, 51, 58
1, 52202, Note_on_c, 0, 56, 55
1, 52220, Note_on_c, 0, 79, 59
1, 52227, Control_c, 0, 64, 127
1, 52275, Note_on_c, 0, 44, 0
1, 52295, Note_on_c, 0, 51, 0
1, 52310, Note_on_c, 0, 60, 56
1, 52337, Note_on_c, 0, 84, 0
1, 52342, Note_on_c, 0, 56, 0
1, 52430, Note_on_c, 0, 63, 55
1, 52435, Note_on_c, 0, 79, 0
1, 52440, Note_on_c, 0, 60, 0
1, 52447, Note_on_c, 0, 77, 63
1, 52505, Note_on_c, 0, 63, 0
1, 52655, Note_on_c, 0, 75, 57
1, 52670, Control_c, 0, 64, 0
1, 52705, Note_on_c, 0, 75, 0
1, 52707, Note_on_c, 0, 77, 0
1, 52732, Note_on_c, 0, 34, 63
1, 52820, Note_on_c, 0, 46, 61
1, 52840, Note_on_c, 0, 75, 61
1, 52912, Note_on_c, 0, 77, 60
1, 52982, Note_on_c, 0, 75, 0
1, 53030, Control_c, 0, 64, 127
1, 53057, Note_on_c, 0, 34, 0
1, 53100, Note_on_c, 0, 53, 61
1, 53105, Note_on_c, 0, 46, 0
1, 53175, Note_on_c, 0, 53, 0
1, 53190, Note_on_c, 0, 74, 57
1, 53215, Note_on_c, 0, 58, 61
1, 53292, Note_on_c, 0, 77, 0
1, 53295, Note_on_c, 0, 58, 0
1, 53310, Note_on_c, 0, 62, 57
1, 53340, Note_on_c, 0, 74, 0
1, 53355, Note_on_c, 0, 72, 60
1, 53410, Note_on_c, 0, 62, 0
1, 53435, Note_on_c, 0, 65, 61
1, 53460, Note_on_c, 0, 72, 0
1, 53477, Note_on_c, 0, 82, 70
1, 53512, Note_on_c, 0, 65, 0
1, 53577, Note_on_c, 0, 82, 0
1, 53685, Note_on_c, 0, 74, 63
1, 53765, Control_c, 0, 64, 0
1, 53807, Note_on_c, 0, 74, 0
1, 53887, Note_on_c, 0, 80, 63
1, 53890, Note_on_c, 0, 48, 47
1, 53910, Note_on_c, 0, 75, 61
1, 54030, Note_on_c, 0, 55, 47
1, 54100, Control_c, 0, 64, 127
1, 54127, Note_on_c, 0, 48, 0
1, 54152, Note_on_c, 0, 80, 0
1, 54155, Note_on_c, 0, 55, 0
1, 54167, Note_on_c, 0, 79, 61
1, 54190, Note_on_c, 0, 60, 51
1, 54242, Note_on_c, 0, 75, 0
1, 54285, Note_on_c, 0, 63, 53
1, 54312, Note_on_c, 0, 60, 0
1, 54355, Note_on_c, 0, 67, 53
1, 54417, Note_on_c, 0, 77, 59
1, 54452, Note_on_c, 0, 67, 0
1, 54472, Note_on_c, 0, 63, 0
1, 54582, Note_on_c, 0, 67, 53
1, 54600, Note_on_c, 0, 75, 64
1, 54615, Control_c, 0, 64, 0
1, 54682, Note_on_c, 0, 67, 0
1, 54702, Note_on_c, 0, 75, 0
1, 54702, Note_on_c, 0, 77, 0
1, 54717, Note_on_c, 0, 44, 60
1, 54742, Note_on_c, 0, 79, 0
1, 54832, Note_on_c, 0, 79, 73
1, 54855, Note_on_c, 0, 72, 72
1, 54857, Note_on_c, 0, 51, 59
1, 54950, Note_on_c, 0, 56, 59
1, 54952, Control_c, 0, 64, 127
1, 55025, Note_on_c, 0, 44, 0
1, 55045, Note_on_c, 0, 51, 0
1, 55060, Note_on_c, 0, 60, 59
1, 55072, Note_on_c, 0, 56, 0
1, 55150, Note_on_c, 0, 75, 57
1, 55157, Note_on_c, 0, 60, 0
1, 55182, Note_on_c, 0, 72, 0
1, 55185, Note_on_c, 0, 79, 0
1, 55260, Control_c, 0, 64, 0
1, 55292, Note_on_c, 0, 46, 58
1, 55320, Note_on_c, 0, 75, 0
1, 55367, Note_on_c, 0, 58, 59
1, 55417, Note_on_c, 0, 46, 0
1, 55430, Note_on_c, 0, 77, 65
1, 55432, Note_on_c, 0, 74, 64
1, 55435, Note_on_c, 0, 70, 63
1, 55487, Note_on_c, 0, 58, 0
1, 55532, Control_c, 0, 64, 127
1, 55560, Note_on_c, 0, 70, 0
1, 55620, Note_on_c, 0, 62, 58
1, 55672, Note_on_c, 0, 74, 0
1, 55692, Note_on_c, 0, 68, 59
1, 55700, Control_c, 0, 64, 0
1, 55760, Note_on_c, 0, 58, 59
1, 55770, Note_on_c, 0, 62, 0
1, 55805, Note_on_c, 0, 51, 62
1, 55812, Note_on_c, 0, 58, 0
1, 55840, Note_on_c, 0, 68, 0
1, 55860, Note_on_c, 0, 77, 0
1, 55905, Note_on_c, 0, 58, 60
1, 55922, Note_on_c, 0, 63, 59
1, 55965, Note_on_c, 0, 75, 68
1, 55992, Control_c, 0, 64, 127
1, 55995, Note_on_c, 0, 63, 0
1, 56022, Note_on_c, 0, 58, 0
1, 56070, Note_on_c, 0, 75, 0
1, 56072, Note_on_c, 0, 51, 0
1, 56095, Note_on_c, 0, 67, 62
1, 56145, Note_on_c, 0, 67, 0
1, 56235, Note_on_c, 0, 63, 64
1, 56327, Note_on_c, 0, 55, 59
1, 56405, Note_on_c, 0, 55, 0
1, 56430, Note_on_c, 0, 63, 0
1, 56470, Note_on_c, 0, 27, 61
1, 56490, Note_on_c, 0, 39, 60
1, 56570, Note_on_c, 0, 27, 0
1, 56617, Note_on_c, 0, 39, 0
1, 56697, Control_c, 0, 67, 0
1, 56805, Control_c, 0, 64, 0
1, 56977, Note_on_c, 0, 42, 66
1, 57040, Note_on_c, 0, 90, 75
1, 57112, Note_on_c, 0, 78, 66
1, 57180, Control_c, 0, 64, 127
1, 57180, Note_on_c, 0, 49, 70
1, 57252, Note_on_c, 0, 42, 0
1, 57272, Note_on_c, 0, 58, 70
1, 57305, Note_on_c, 0, 49, 0
1, 57350, Note_on_c, 0, 58, 0
1, 57407, Note_on_c, 0, 61, 70
1, 57522, Note_on_c, 0, 70, 65
1, 57650, Note_on_c, 0, 70, 0
1, 57765, Note_on_c, 0, 61, 0
1, 57812, Note_on_c, 0, 90, 0
1, 57832, Note_on_c, 0, 85, 82
1, 57842, Control_c, 0, 64, 0
1, 57952, Note_on_c, 0, 78, 0
1, 57975, Note_on_c, 0, 85, 0
1, 57992, Note_on_c, 0, 87, 71
1, 57995, Note_on_c, 0, 47, 62
1, 58057, Note_on_c, 0, 75, 61
1, 58102, Note_on_c, 0, 54, 64
1, 58197, Note_on_c, 0, 59, 65
1, 58200, Control_c, 0, 64, 127
1, 58227, Note_on_c, 0, 47, 0
1, 58245, Note_on_c, 0, 75, 0
1, 58247, Note_on_c, 0, 54, 0
1, 58287, Note_on_c, 0, 63, 70
1, 58295, Note_on_c, 0, 59, 0
1, 58380, Note_on_c, 0, 66, 61
1, 58430, Note_on_c, 0, 63, 0
1, 58432, Note_on_c, 0, 66, 0
1, 58500, Note_on_c, 0, 87, 0
1, 58605, Note_on_c, 0, 87, 70
1, 58635, Control_c, 0, 64, 0
1, 58740, Note_on_c, 0, 42, 70
1, 58787, Note_on_c, 0, 90, 78
1, 58795, Note_on_c, 0, 87, 0
1, 58835, Note_on_c, 0, 49, 70
1, 58860, Note_on_c, 0, 78, 75
1, 58947, Note_on_c, 0, 58, 70
1, 58992, Control_c, 0, 64, 127
1, 59087, Note_on_c, 0, 61, 70
1, 59092, Note_on_c, 0, 58, 0
1, 59092, Note_on_c, 0, 90, 0
1, 59092, Control_c, 0, 64, 0
1, 59095, Note_on_c, 0, 49, 0
1, 59117, Note_on_c, 0, 42, 0
1, 59207, Control_c, 0, 64, 127
1, 59210, Note_on_c, 0, 70, 71
1, 59302, Note_on_c, 0, 70, 0
1, 59350, Note_on_c, 0, 61, 0
1, 59400, Note_on_c, 0, 78, 0
1, 59412, Note_on_c, 0, 85, 62
1, 59447, Control_c, 0, 64, 0
1, 59552, Note_on_c, 0, 87, 59
1, 59577, Note_on_c, 0, 47, 64
1, 59582, Note_on_c, 0, 85, 0
1, 59602, Note_on_c, 0, 87, 0
1, 59612, Note_on_c, 0, 89, 67
1, 59637, Note_on_c, 0, 54, 67
1, 59665, Note_on_c, 0, 89, 0
1, 59680, Note_on_c, 0, 87, 66
1, 59732, Note_on_c, 0, 59, 68
1, 59792, Control_c, 0, 64, 127
1, 59820, Note_on_c, 0, 63, 70
1, 59890, Note_on_c, 0, 66, 57
1, 59892, Note_on_c, 0, 87, 0
1, 59892, Note_on_c, 0, 47, 0
1, 59895, Note_on_c, 0, 54, 0
1, 59897, Note_on_c, 0, 59, 0
1, 59912, Note_on_c, 0, 83, 57
1, 59912, Note_on_c, 0, 85, 66
1, 59985, Note_on_c, 0, 63, 0
1, 60030, Note_on_c, 0, 66, 0
1, 60030, Note_on_c, 0, 83, 0
1, 60102, Control_c, 0, 64, 0
1, 60135, Note_on_c, 0, 87, 66
1, 60137, Note_on_c, 0, 82, 55
1, 60240, Note_on_c, 0, 85, 0
1, 60320, Note_on_c, 0, 53, 64
1, 60327, Note_on_c, 0, 82, 0
1, 60352, Note_on_c, 0, 87, 0
1, 60392, Note_on_c, 0, 89, 72
1, 60395, Note_on_c, 0, 81, 61
1, 60460, Control_c, 0, 64, 127
1, 60510, Note_on_c, 0, 60, 58
1, 60540, Note_on_c, 0, 53, 0
1, 60587, Note_on_c, 0, 60, 0
1, 60590, Note_on_c, 0, 89, 0
1, 60612, Note_on_c, 0, 65, 55
1, 60702, Note_on_c, 0, 69, 57
1, 60777, Note_on_c, 0, 72, 55
1, 60800, Note_on_c, 0, 84, 70
1, 60817, Note_on_c, 0, 77, 59
1, 60845, Note_on_c, 0, 72, 0
1, 60847, Note_on_c, 0, 69, 0
1, 60895, Note_on_c, 0, 81, 0
1, 60897, Note_on_c, 0, 65, 0
1, 60987, Control_c, 0, 64, 0
1, 61140, Note_on_c, 0, 46, 56
1, 61147, Note_on_c, 0, 77, 0
1, 61157, Note_on_c, 0, 58, 61
1, 61190, Note_on_c, 0, 84, 0
1, 61225, Note_on_c, 0, 82, 62
1, 61227, Note_on_c, 0, 86, 71
1, 61337, Control_c, 0, 64, 127
1, 61372, Note_on_c, 0, 58, 0
1, 61390, Note_on_c, 0, 46, 0
1, 61395, Note_on_c, 0, 82, 0
1, 61410, Note_on_c, 0, 53, 61
1, 61437, Note_on_c, 0, 77, 62
1, 61437, Note_on_c, 0, 84, 73
1, 61460, Note_on_c, 0, 58, 62
1, 61512, Note_on_c, 0, 53, 0
1, 61535, Note_on_c, 0, 77, 0
1, 61552, Note_on_c, 0, 62, 62
1, 61605, Note_on_c, 0, 86, 0
1, 61620, Note_on_c, 0, 65, 62
1, 61682, Note_on_c, 0, 74, 63
1, 61682, Note_on_c, 0, 82, 75
1, 61712, Note_on_c, 0, 62, 0
1, 61715, Note_on_c, 0, 65, 0
1, 61737, Note_on_c, 0, 58, 0
1, 61780, Control_c, 0, 64, 0
1, 61805, Note_on_c, 0, 84, 0
1, 61832, Note_on_c, 0, 74, 0
1, 61855, Note_on_c, 0, 82, 0
1, 61887, Note_on_c, 0, 77, 71
1, 62012, Note_on_c, 0, 77, 0
1, 62020, Note_on_c, 0, 39, 60
1, 62070, Note_on_c, 0, 78, 67
1, 62117, Note_on_c, 0, 70, 57
1, 62137, Control_c, 0, 64, 127
1, 62205, Note_on_c, 0, 51, 61
1, 62232, Note_on_c, 0, 39, 0
1, 62260, Note_on_c, 0, 78, 0
1, 62262, Note_on_c, 0, 70, 0
1, 62325, Note_on_c, 0, 54, 58
1, 62375, Note_on_c, 0, 51, 0
1, 62410, Note_on_c, 0, 58, 56
1, 62505, Note_on_c, 0, 60, 58
1, 62612, Note_on_c, 0, 80, 61
1, 62620, Note_on_c, 0, 60, 0
1, 62620, Note_on_c, 0, 58, 0
1, 62660, Note_on_c, 0, 72, 51
1, 62667, Note_on_c, 0, 54, 0
1, 62955, Control_c, 0, 67, 127
1, 62982, Control_c, 0, 64, 0
1, 63010, Note_on_c, 0, 72, 0
1, 63025, Note_on_c, 0, 34, 47
1, 63092, Note_on_c, 0, 46, 49
1, 63105, Note_on_c, 0, 80, 0
1, 63190, Note_on_c, 0, 82, 65
1, 63235, Note_on_c, 0, 74, 56
1, 63352, Control_c, 0, 64, 127
1, 63405, Note_on_c, 0, 34, 0
1, 63422, Note_on_c, 0, 46, 0
1, 63470, Note_on_c, 0, 58, 47
1, 63610, Note_on_c, 0, 62, 47
1, 63732, Note_on_c, 0, 65, 59
1, 63737, Note_on_c, 0, 58, 0
1, 63805, Note_on_c, 0, 74, 0
1, 63825, Note_on_c, 0, 70, 53
1, 63830, Note_on_c, 0, 62, 0
1, 63852, Note_on_c, 0, 65, 0
1, 63902, Note_on_c, 0, 70, 0
1, 63950, Note_on_c, 0, 82, 0
1, 64110, Control_c, 0, 67, 0
1, 64145, Control_c, 0, 64, 0
1, 64245, Note_on_c, 0, 70, 53
1, 64330, Note_on_c, 0, 74, 57
1, 64400, Note_on_c, 0, 77, 62
1, 64437, Control_c, 0, 64, 127
1, 64467, Note_on_c, 0, 82, 66
1, 64497, Note_on_c, 0, 70, 0
1, 64512, Note_on_c, 0, 86, 66
1, 64520, Note_on_c, 0, 77, 0
1, 64585, Note_on_c, 0, 89, 66
1, 64590, Note_on_c, 0, 82, 0
1, 64625, Note_on_c, 0, 94, 74
1, 64637, Note_on_c, 0, 86, 0
1, 64637, Note_on_c, 0, 74, 0
1, 64657, Note_on_c, 0, 89, 0
1, 64695, Note_on_c, 0, 91, 69
1, 64767, Note_on_c, 0, 87, 58
1, 64775, Note_on_c, 0, 94, 0
1, 64805, Note_on_c, 0, 84, 62
1, 64855, Note_on_c, 0, 82, 63
1, 64902, Note_on_c, 0, 79, 63
1, 64932, Note_on_c, 0, 82, 0
1, 64950, Note_on_c, 0, 75, 65
1, 64990, Note_on_c, 0, 72, 64
1, 65000, Note_on_c, 0, 87, 0
1, 65022, Note_on_c, 0, 79, 0
1, 65047, Note_on_c, 0, 75, 0
1, 65050, Note_on_c, 0, 84, 0
1, 65070, Note_on_c, 0, 70, 59
1, 65122, Note_on_c, 0, 91, 0
1, 65137, Note_on_c, 0, 74, 63
1, 65145, Note_on_c, 0, 72, 0
1, 65207, Note_on_c, 0, 77, 62
1, 65237, Note_on_c, 0, 70, 0
1, 65255, Note_on_c, 0, 82, 68
1, 65302, Note_on_c, 0, 86, 69
1, 65332, Note_on_c, 0, 77, 0
1, 65340, Note_on_c, 0, 89, 68
1, 65370, Note_on_c, 0, 82, 0
1, 65410, Note_on_c, 0, 94, 79
1, 65417, Note_on_c, 0, 86, 0
1, 65442, Note_on_c, 0, 89, 0
1, 65460, Note_on_c, 0, 91, 79
1, 65462, Note_on_c, 0, 74, 0
1, 65520, Note_on_c, 0, 87, 69
1, 65567, Note_on_c, 0, 84, 69
1, 65597, Note_on_c, 0, 94, 0
1, 65617, Note_on_c, 0, 82, 69
1, 65657, Note_on_c, 0, 79, 66
1, 65690, Note_on_c, 0, 82, 0
1, 65702, Note_on_c, 0, 75, 67
1, 65747, Note_on_c, 0, 72, 66
1, 65757, Note_on_c, 0, 87, 0
1, 65757, Note_on_c, 0, 79, 0
1, 65777, Note_on_c, 0, 75, 0
1, 65802, Note_on_c, 0, 70, 64
1, 65807, Note_on_c, 0, 84, 0
1, 65832, Note_on_c, 0, 91, 0
1, 65865, Note_on_c, 0, 74, 64
1, 65892, Note_on_c, 0, 72, 0
1, 65935, Note_on_c, 0, 77, 66
1, 65965, Note_on_c, 0, 70, 0
1, 66002, Note_on_c, 0, 82, 69
1, 66045, Note_on_c, 0, 86, 69
1, 66052, Note_on_c, 0, 77, 0
1, 66087, Note_on_c, 0, 89, 71
1, 66097, Note_on_c, 0, 82, 0
1, 66142, Note_on_c, 0, 86, 0
1, 66160, Note_on_c, 0, 94, 78
1, 66180, Control_c, 0, 64, 0
1, 66190, Note_on_c, 0, 89, 0
1, 66227, Note_on_c, 0, 92, 80
1, 66255, Note_on_c, 0, 74, 0
1, 66272, Note_on_c, 0, 87, 69
1, 66325, Note_on_c, 0, 84, 68
1, 66332, Note_on_c, 0, 94, 0
1, 66347, Control_c, 0, 67, 127
1, 66367, Note_on_c, 0, 80, 64
1, 66377, Note_on_c, 0, 92, 0
1, 66397, Note_on_c, 0, 87, 0
1, 66415, Note_on_c, 0, 75, 61
1, 66467, Note_on_c, 0, 84, 0
1, 66485, Note_on_c, 0, 72, 63
1, 66517, Note_on_c, 0, 80, 0
1, 66560, Note_on_c, 0, 75, 0
1, 66577, Note_on_c, 0, 91, 71
1, 66580, Note_on_c, 0, 72, 0
1, 66650, Note_on_c, 0, 86, 62
1, 66715, Note_on_c, 0, 82, 65
1, 66745, Note_on_c, 0, 86, 0
1, 66760, Note_on_c, 0, 79, 63
1, 66830, Note_on_c, 0, 74, 61
1, 66835, Note_on_c, 0, 82, 0
1, 66895, Note_on_c, 0, 70, 60
1, 66900, Note_on_c, 0, 79, 0
1, 66902, Note_on_c, 0, 91, 0
1, 66922, Note_on_c, 0, 74, 0
1, 66960, Note_on_c, 0, 90, 71
1, 67017, Note_on_c, 0, 70, 0
1, 67030, Note_on_c, 0, 84, 64
1, 67072, Note_on_c, 0, 81, 66
1, 67117, Note_on_c, 0, 78, 64
1, 67147, Note_on_c, 0, 84, 0
1, 67165, Note_on_c, 0, 72, 64
1, 67220, Note_on_c, 0, 78, 0
1, 67220, Note_on_c, 0, 81, 0
1, 67230, Note_on_c, 0, 69, 63
1, 67260, Control_c, 0, 67, 0
1, 67262, Note_on_c, 0, 90, 0
1, 67302, Note_on_c, 0, 67, 66
1, 67307, Note_on_c, 0, 72, 0
1, 67372, Note_on_c, 0, 71, 66
1, 67380, Note_on_c, 0, 69, 0
1, 67407, Control_c, 0, 64, 127
1, 67437, Note_on_c, 0, 74, 67
1, 67470, Note_on_c, 0, 67, 0
1, 67505, Note_on_c, 0, 79, 67
1, 67575, Note_on_c, 0, 83, 68
1, 67592, Control_c, 0, 64, 0
1, 67605, Note_on_c, 0, 79, 0
1, 67605, Note_on_c, 0, 74, 0
1, 67622, Note_on_c, 0, 86, 61
1, 67627, Note_on_c, 0, 71, 0
1, 67675, Note_on_c, 0, 83, 0
1, 67692, Note_on_c, 0, 91, 74
1, 67697, Note_on_c, 0, 86, 0
1, 67715, Control_c, 0, 67, 127
1, 67740, Note_on_c, 0, 87, 74
1, 67810, Note_on_c, 0, 84, 63
1, 67840, Note_on_c, 0, 91, 0
1, 67882, Note_on_c, 0, 81, 65
1, 67890, Note_on_c, 0, 84, 0
1, 67890, Note_on_c, 0, 87, 0
1, 67925, Note_on_c, 0, 79, 63
1, 67935, Note_on_c, 0, 81, 0
1, 67992, Note_on_c, 0, 75, 64
1, 68002, Note_on_c, 0, 79, 0
1, 68042, Note_on_c, 0, 72, 64
1, 68075, Note_on_c, 0, 75, 0
1, 68097, Control_c, 0, 67, 0
1, 68110, Note_on_c, 0, 67, 61
1, 68137, Note_on_c, 0, 72, 0
1, 68177, Note_on_c, 0, 71, 58
1, 68200, Control_c, 0, 64, 127
1, 68227, Note_on_c, 0, 74, 58
1, 68260, Note_on_c, 0, 67, 0
1, 68290, Note_on_c, 0, 79, 61
1, 68362, Note_on_c, 0, 83, 64
1, 68395, Note_on_c, 0, 74, 0
1, 68410, Note_on_c, 0, 86, 68
1, 68417, Note_on_c, 0, 79, 0
1, 68435, Note_on_c, 0, 91, 80
1, 68460, Note_on_c, 0, 71, 0
1, 68462, Note_on_c, 0, 83, 0
1, 68482, Note_on_c, 0, 86, 0
1, 68520, Note_on_c, 0, 87, 84
1, 68567, Note_on_c, 0, 84, 75
1, 68620, Note_on_c, 0, 91, 0
1, 68635, Note_on_c, 0, 81, 74
1, 68662, Note_on_c, 0, 84, 0
1, 68662, Note_on_c, 0, 87, 0
1, 68680, Note_on_c, 0, 79, 69
1, 68710, Note_on_c, 0, 81, 0
1, 68735, Note_on_c, 0, 79, 0
1, 68755, Note_on_c, 0, 75, 67
1, 68817, Note_on_c, 0, 72, 67
1, 68845, Control_c, 0, 64, 0
1, 68870, Note_on_c, 0, 75, 0
1, 68910, Note_on_c, 0, 67, 62
1, 68912, Note_on_c, 0, 72, 0
1, 68970, Note_on_c, 0, 74, 65
1, 69022, Note_on_c, 0, 67, 0
1, 69037, Note_on_c, 0, 79, 67
1, 69085, Control_c, 0, 67, 127
1, 69090, Note_on_c, 0, 83, 68
1, 69120, Note_on_c, 0, 74, 0
1, 69127, Note_on_c, 0, 86, 70
1, 69157, Note_on_c, 0, 79, 0
1, 69195, Note_on_c, 0, 91, 84
1, 69205, Note_on_c, 0, 83, 0
1, 69227, Note_on_c, 0, 86, 0
1, 69270, Note_on_c, 0, 89, 82
1, 69335, Note_on_c, 0, 84, 70
1, 69340, Note_on_c, 0, 91, 0
1, 69407, Note_on_c, 0, 80, 65
1, 69410, Note_on_c, 0, 89, 0
1, 69437, Note_on_c, 0, 84, 0
1, 69452, Note_on_c, 0, 77, 61
1, 69482, Note_on_c, 0, 80, 0
1, 69495, Note_on_c, 0, 72, 64
1, 69540, Note_on_c, 0, 68, 62
1, 69550, Note_on_c, 0, 77, 0
1, 69617, Note_on_c, 0, 72, 0
1, 69632, Note_on_c, 0, 87, 68
1, 69662, Note_on_c, 0, 68, 0
1, 69702, Note_on_c, 0, 82, 65
1, 69730, Control_c, 0, 64, 127
1, 69770, Control_c, 0, 64, 0
1, 69777, Note_on_c, 0, 79, 54
1, 69780, Note_on_c, 0, 87, 0
1, 69807, Note_on_c, 0, 82, 0
1, 69817, Note_on_c, 0, 75, 56
1, 69845, Note_on_c, 0, 79, 0
1, 69865, Note_on_c, 0, 70, 58
1, 69912, Note_on_c, 0, 75, 0
1, 69937, Note_on_c, 0, 67, 60
1, 70010, Note_on_c, 0, 70, 0
1, 70012, Note_on_c, 0, 67, 0
1, 70020, Note_on_c, 0, 84, 68
1, 70095, Note_on_c, 0, 79, 58
1, 70160, Note_on_c, 0, 75, 57
1, 70207, Note_on_c, 0, 72, 55
1, 70215, Note_on_c, 0, 79, 0
1, 70217, Note_on_c, 0, 84, 0
1, 70260, Note_on_c, 0, 67, 58
1, 70310, Note_on_c, 0, 63, 60
1, 70315, Note_on_c, 0, 75, 0
1, 70320, Note_on_c, 0, 67, 0
1, 70337, Note_on_c, 0, 72, 0
1, 70362, Note_on_c, 0, 63, 0
1, 70397, Note_on_c, 0, 58, 61
1, 70475, Note_on_c, 0, 65, 61
1, 70495, Control_c, 0, 64, 127
1, 70537, Note_on_c, 0, 70, 60
1, 70542, Note_on_c, 0, 58, 0
1, 70590, Note_on_c, 0, 65, 0
1, 70605, Note_on_c, 0, 74, 63
1, 70635, Note_on_c, 0, 70, 0
1, 70675, Note_on_c, 0, 77, 65
1, 70742, Note_on_c, 0, 82, 66
1, 70772, Note_on_c, 0, 77, 0
1, 70775, Note_on_c, 0, 74, 0
1, 70815, Note_on_c, 0, 79, 58
1, 70817, Note_on_c, 0, 84, 68
1, 70870, Note_on_c, 0, 84, 0
1, 70885, Note_on_c, 0, 75, 59
1, 70910, Note_on_c, 0, 72, 60
1, 70917, Note_on_c, 0, 82, 0
1, 71010, Note_on_c, 0, 70, 62
1, 71057, Note_on_c, 0, 70, 0
1, 71072, Note_on_c, 0, 63, 63
1, 71077, Note_on_c, 0, 75, 0
1, 71080, Control_c, 0, 64, 0
1, 71100, Note_on_c, 0, 72, 0
1, 71145, Note_on_c, 0, 70, 66
1, 71197, Note_on_c, 0, 79, 0
1, 71207, Note_on_c, 0, 58, 66
1, 71217, Note_on_c, 0, 63, 0
1, 71252, Control_c, 0, 67, 0
1, 71257, Note_on_c, 0, 70, 0
1, 71275, Note_on_c, 0, 65, 70
1, 71345, Note_on_c, 0, 70, 70
1, 71385, Control_c, 0, 64, 127
1, 71395, Note_on_c, 0, 65, 0
1, 71395, Note_on_c, 0, 58, 0
1, 71407, Note_on_c, 0, 74, 67
1, 71415, Note_on_c, 0, 70, 0
1, 71477, Note_on_c, 0, 77, 67
1, 71545, Note_on_c, 0, 82, 69
1, 71555, Note_on_c, 0, 77, 0
1, 71555, Note_on_c, 0, 74, 0
1, 71615, Note_on_c, 0, 79, 65
1, 71615, Note_on_c, 0, 84, 65
1, 71687, Note_on_c, 0, 75, 63
1, 71695, Note_on_c, 0, 84, 0
1, 71707, Note_on_c, 0, 72, 60
1, 71740, Note_on_c, 0, 82, 0
1, 71800, Note_on_c, 0, 70, 55
1, 71825, Note_on_c, 0, 72, 0
1, 71852, Note_on_c, 0, 75, 0
1, 71855, Note_on_c, 0, 70, 0
1, 71880, Control_c, 0, 67, 127
1, 71892, Note_on_c, 0, 63, 62
1, 71900, Note_on_c, 0, 79, 0
1, 71917, Control_c, 0, 67, 0
1, 71960, Note_on_c, 0, 70, 59
1, 72032, Note_on_c, 0, 58, 68
1, 72037, Note_on_c, 0, 70, 0
1, 72040, Control_c, 0, 64, 0
1, 72060, Note_on_c, 0, 63, 0
1, 72062, Control_c, 0, 67, 127
1, 72095, Note_on_c, 0, 65, 54
1, 72167, Note_on_c, 0, 70, 54
1, 72172, Note_on_c, 0, 58, 0
1, 72195, Note_on_c, 0, 65, 0
1, 72257, Note_on_c, 0, 74, 59
1, 72267, Note_on_c, 0, 70, 0
1, 72327, Note_on_c, 0, 77, 60
1, 72385, Note_on_c, 0, 74, 0
1, 72405, Note_on_c, 0, 82, 64
1, 72412, Note_on_c, 0, 77, 0
1, 72472, Note_on_c, 0, 63, 64
1, 72545, Note_on_c, 0, 82, 0
1, 72545, Note_on_c, 0, 67, 63
1, 72590, Control_c, 0, 64, 127
1, 72602, Note_on_c, 0, 72, 64
1, 72660, Note_on_c, 0, 67, 0
1, 72660, Note_on_c, 0, 63, 0
1, 72700, Note_on_c, 0, 75, 64
1, 72777, Note_on_c, 0, 72, 0
1, 72787, Note_on_c, 0, 79, 64
1, 72795, Note_on_c, 0, 75, 0
1, 72855, Note_on_c, 0, 84, 66
1, 72892, Control_c, 0, 64, 0
1, 72910, Note_on_c, 0, 79, 0
1, 72950, Note_on_c, 0, 65, 56
1, 73000, Note_on_c, 0, 84, 0
1, 73040, Note_on_c, 0, 68, 61
1, 73132, Note_on_c, 0, 74, 61
1, 73157, Control_c, 0, 64, 127
1, 73200, Note_on_c, 0, 77, 63
1, 73277, Note_on_c, 0, 74, 0
1, 73280, Note_on_c, 0, 65, 0
1, 73287, Note_on_c, 0, 80, 64
1, 73302, Note_on_c, 0, 68, 0
1, 73340, Note_on_c, 0, 77, 0
1, 73355, Note_on_c, 0, 86, 65
1, 73392, Control_c, 0, 64, 0
1, 73410, Note_on_c, 0, 80, 0
1, 73437, Note_on_c, 0, 86, 0
1, 73475, Note_on_c, 0, 67, 63
1, 73567, Note_on_c, 0, 70, 63
1, 73630, Note_on_c, 0, 75, 61
1, 73685, Control_c, 0, 64, 127
1, 73700, Note_on_c, 0, 79, 60
1, 73735, Note_on_c, 0, 70, 0
1, 73737, Note_on_c, 0, 67, 0
1, 73752, Note_on_c, 0, 75, 0
1, 73787, Control_c, 0, 64, 0
1, 73797, Note_on_c, 0, 82, 64
1, 73850, Note_on_c, 0, 79, 0
1, 73865, Note_on_c, 0, 87, 62
1, 73897, Note_on_c, 0, 82, 0
1, 73917, Note_on_c, 0, 58, 59
1, 73942, Note_on_c, 0, 87, 0
1, 73982, Note_on_c, 0, 65, 60
1, 74050, Note_on_c, 0, 70, 63
1, 74097, Note_on_c, 0, 74, 64
1, 74100, Control_c, 0, 64, 127
1, 74140, Note_on_c, 0, 77, 64
1, 74160, Control_c, 0, 67, 0
1, 74180, Note_on_c, 0, 82, 70
1, 74187, Note_on_c, 0, 74, 0
1, 74190, Note_on_c, 0, 70, 0
1, 74190, Note_on_c, 0, 58, 0
1, 74190, Note_on_c, 0, 65, 0
1, 74212, Note_on_c, 0, 77, 0
1, 74250, Note_on_c, 0, 86, 69
1, 74280, Note_on_c, 0, 82, 0
1, 74315, Note_on_c, 0, 89, 66
1, 74345, Note_on_c, 0, 86, 0
1, 74367, Note_on_c, 0, 89, 0
1, 75042, Note_on_c, 0, 74, 66
1, 75042, Note_on_c, 0, 77, 73
1, 75045, Note_on_c, 0, 70, 62
1, 75062, Note_on_c, 0, 89, 74
1, 75065, Note_on_c, 0, 82, 65
1, 75120, Note_on_c, 0, 77, 0
1, 75147, Note_on_c, 0, 70, 0
1, 75152, Control_c, 0, 64, 0
1, 75172, Note_on_c, 0, 82, 0
1, 75175, Note_on_c, 0, 74, 0
1, 75212, Note_on_c, 0, 65, 72
1, 75260, Note_on_c, 0, 70, 61
1, 75282, Note_on_c, 0, 74, 60
1, 75305, Note_on_c, 0, 92, 71
1, 75307, Note_on_c, 0, 80, 68
1, 75307, Note_on_c, 0, 86, 60
1, 75310, Note_on_c, 0, 89, 0
1, 75462, Control_c, 0, 64, 127
1, 75600, Note_on_c, 0, 74, 0
1, 75602, Note_on_c, 0, 86, 0
1, 75605, Note_on_c, 0, 65, 0
1, 75657, Note_on_c, 0, 80, 0
1, 75672, Note_on_c, 0, 92, 0
1, 75677, Note_on_c, 0, 70, 0
1, 75800, Note_on_c, 0, 87, 67
1, 75800, Note_on_c, 0, 91, 79
1, 75802, Note_on_c, 0, 75, 66
1, 75802, Note_on_c, 0, 79, 77
1, 75807, Note_on_c, 0, 70, 66
1, 75810, Note_on_c, 0, 67, 76
1, 76087, Note_on_c, 0, 79, 0
1, 76090, Note_on_c, 0, 70, 0
1, 76110, Note_on_c, 0, 75, 0
1, 76130, Note_on_c, 0, 87, 0
1, 76130, Note_on_c, 0, 91, 0
1, 76137, Note_on_c, 0, 67, 0
1, 76205, Note_on_c, 0, 87, 70
1, 76207, Note_on_c, 0, 91, 77
1, 76210, Note_on_c, 0, 79, 74
1, 76212, Note_on_c, 0, 75, 63
1, 76215, Note_on_c, 0, 70, 62
1, 76217, Note_on_c, 0, 67, 69
1, 76282, Note_on_c, 0, 91, 0
1, 76305, Note_on_c, 0, 87, 0
1, 76307, Note_on_c, 0, 75, 0
1, 76307, Note_on_c, 0, 79, 0
1, 76335, Note_on_c, 0, 67, 0
1, 76405, Note_on_c, 0, 70, 0
1, 76412, Note_on_c, 0, 87, 84
1, 76415, Note_on_c, 0, 72, 73
1, 76417, Note_on_c, 0, 68, 83
1, 76437, Note_on_c, 0, 75, 84
1, 76490, Note_on_c, 0, 75, 0
1, 76510, Note_on_c, 0, 72, 0
1, 76537, Note_on_c, 0, 87, 0
1, 76542, Note_on_c, 0, 68, 0
1, 76575, Note_on_c, 0, 74, 69
1, 76577, Note_on_c, 0, 70, 77
1, 76595, Note_on_c, 0, 89, 78
1, 76620, Note_on_c, 0, 86, 70
1, 76620, Note_on_c, 0, 77, 79
1, 76675, Note_on_c, 0, 77, 0
1, 76747, Note_on_c, 0, 86, 0
1, 76770, Note_on_c, 0, 89, 0
1, 76797, Note_on_c, 0, 74, 0
1, 76862, Note_on_c, 0, 70, 0
1, 76902, Note_on_c, 0, 63, 66
1, 76920, Control_c, 0, 64, 0
1, 76947, Note_on_c, 0, 67, 70
1, 76980, Control_c, 0, 67, 127
1, 76985, Note_on_c, 0, 75, 68
1, 76990, Note_on_c, 0, 70, 68
1, 77057, Note_on_c, 0, 79, 80
1, 77075, Note_on_c, 0, 87, 74
1, 77075, Note_on_c, 0, 91, 85
1, 77247, Control_c, 0, 64, 127
1, 77380, Note_on_c, 0, 75, 0
1, 77382, Note_on_c, 0, 70, 0
1, 77432, Note_on_c, 0, 67, 0
1, 77452, Note_on_c, 0, 63, 0
1, 77537, Note_on_c, 0, 91, 0
1, 77565, Note_on_c, 0, 87, 0
1, 77582, Note_on_c, 0, 39, 63
1, 77585, Note_on_c, 0, 27, 62
1, 77590, Note_on_c, 0, 79, 0
1, 77702, Note_on_c, 0, 27, 0
1, 77725, Note_on_c, 0, 39, 0
1, 78160, Note_on_c, 0, 58, 63
1, 78162, Note_on_c, 0, 63, 64
1, 78165, Note_on_c, 0, 67, 74
1, 78185, Note_on_c, 0, 51, 64
1, 78755, Note_on_c, 0, 63, 0
1, 78757, Note_on_c, 0, 51, 0
1, 78782, Note_on_c, 0, 58, 0
1, 78785, Note_on_c, 0, 67, 0
1, 78867, Note_on_c, 0, 58, 78
1, 78887, Note_on_c, 0, 51, 76
1, 78887, Note_on_c, 0, 63, 75
1, 78915, Note_on_c, 0, 67, 77
1, 78925, Control_c, 0, 64, 0
1, 78967, Note_on_c, 0, 63, 0
1, 78967, Note_on_c, 0, 58, 0
1, 78992, Note_on_c, 0, 67, 0
1, 79025, Note_on_c, 0, 66, 72
1, 79060, Note_on_c, 0, 51, 0
1, 79090, Note_on_c, 0, 75, 81
1, 79095, Note_on_c, 0, 48, 66
1, 79095, Note_on_c, 0, 57, 65
1, 79282, Control_c, 0, 64, 127
1, 79350, Note_on_c, 0, 57, 0
1, 79377, Control_c, 0, 64, 0
1, 79460, Note_on_c, 0, 50, 59
1, 79465, Note_on_c, 0, 48, 0
1, 79482, Note_on_c, 0, 58, 59
1, 79490, Note_on_c, 0, 75, 0
1, 79492, Note_on_c, 0, 66, 0
1, 79525, Note_on_c, 0, 74, 75
1, 79527, Note_on_c, 0, 65, 64
1, 79697, Control_c, 0, 64, 127
1, 79745, Note_on_c, 0, 58, 0
1, 79767, Note_on_c, 0, 65, 0
1, 79800, Control_c, 0, 64, 0
1, 79840, Note_on_c, 0, 74, 0
1, 79850, Note_on_c, 0, 51, 59
1, 79870, Note_on_c, 0, 58, 59
1, 79915, Note_on_c, 0, 74, 72
1, 79922, Note_on_c, 0, 50, 0
1, 79940, Note_on_c, 0, 67, 63
1, 80045, Control_c, 0, 64, 127
1, 80165, Note_on_c, 0, 70, 71
1, 80175, Note_on_c, 0, 67, 0
1, 80175, Note_on_c, 0, 58, 0
1, 80205, Control_c, 0, 64, 0
1, 80237, Note_on_c, 0, 51, 0
1, 80262, Note_on_c, 0, 70, 0
1, 80277, Note_on_c, 0, 57, 63
1, 80280, Note_on_c, 0, 53, 63
1, 80282, Note_on_c, 0, 74, 0
1, 80332, Note_on_c, 0, 72, 71
1, 80347, Note_on_c, 0, 65, 59
1, 80365, Note_on_c, 0, 69, 60
1, 80420, Note_on_c, 0, 65, 0
1, 80420, Note_on_c, 0, 57, 0
1, 80545, Note_on_c, 0, 63, 63
1, 80685, Note_on_c, 0, 58, 63
1, 80692, Note_on_c, 0, 63, 0
1, 80692, Note_on_c, 0, 69, 0
1, 80700, Note_on_c, 0, 46, 63
1, 80707, Note_on_c, 0, 72, 0
1, 80755, Note_on_c, 0, 53, 0
1, 80795, Note_on_c, 0, 70, 71
1, 80802, Note_on_c, 0, 58, 0
1, 80820, Note_on_c, 0, 62, 58
1, 80890, Control_c, 0, 64, 127
1, 80995, Note_on_c, 0, 46, 0
1, 81217, Note_on_c, 0, 34, 63
1, 81235, Note_on_c, 0, 46, 59
1, 81242, Note_on_c, 0, 62, 0
1, 81290, Note_on_c, 0, 34, 0
1, 81307, Note_on_c, 0, 46, 0
1, 81320, Control_c, 0, 67, 0
1, 81357, Note_on_c, 0, 70, 0
1, 81512, Note_on_c, 0, 70, 63
1, 81597, Note_on_c, 0, 77, 76
1, 81665, Note_on_c, 0, 83, 65
1, 81755, Note_on_c, 0, 84, 67
1, 81765, Note_on_c, 0, 83, 0
1, 81822, Note_on_c, 0, 85, 69
1, 81852, Note_on_c, 0, 84, 0
1, 81895, Note_on_c, 0, 86, 69
1, 81925, Note_on_c, 0, 85, 0
1, 81945, Note_on_c, 0, 86, 0
1, 81960, Note_on_c, 0, 87, 69
1, 81990, Note_on_c, 0, 77, 0
1, 81995, Note_on_c, 0, 70, 0
1, 82030, Note_on_c, 0, 88, 69
1, 82060, Note_on_c, 0, 87, 0
1, 82092, Note_on_c, 0, 89, 69
1, 82100, Note_on_c, 0, 88, 0
1, 82117, Note_on_c, 0, 77, 77
1, 82120, Note_on_c, 0, 70, 67
1, 82140, Note_on_c, 0, 90, 69
1, 82152, Control_c, 0, 64, 0
1, 82212, Note_on_c, 0, 91, 69
1, 82217, Note_on_c, 0, 89, 0
1, 82242, Note_on_c, 0, 65, 64
1, 82245, Note_on_c, 0, 90, 0
1, 82305, Note_on_c, 0, 92, 75
1, 82332, Note_on_c, 0, 91, 0
1, 82337, Note_on_c, 0, 65, 0
1, 82377, Note_on_c, 0, 89, 68
1, 82435, Note_on_c, 0, 70, 0
1, 82440, Note_on_c, 0, 77, 0
1, 82442, Note_on_c, 0, 86, 64
1, 82450, Control_c, 0, 64, 127
1, 82492, Note_on_c, 0, 80, 60
1, 82540, Note_on_c, 0, 74, 62
1, 82592, Note_on_c, 0, 89, 0
1, 82610, Note_on_c, 0, 70, 63
1, 82617, Note_on_c, 0, 80, 0
1, 82680, Note_on_c, 0, 67, 61
1, 82705, Note_on_c, 0, 92, 0
1, 82707, Note_on_c, 0, 86, 0
1, 82710, Note_on_c, 0, 74, 0
1, 82747, Note_on_c, 0, 91, 75
1, 82757, Note_on_c, 0, 70, 0
1, 82802, Note_on_c, 0, 67, 0
1, 82812, Note_on_c, 0, 87, 69
1, 82860, Note_on_c, 0, 82, 71
1, 82892, Control_c, 0, 64, 0
1, 82910, Note_on_c, 0, 79, 72
1, 82952, Note_on_c, 0, 75, 70
1, 82960, Note_on_c, 0, 87, 0
1, 82980, Note_on_c, 0, 91, 0
1, 82997, Note_on_c, 0, 70, 66
1, 83002, Note_on_c, 0, 79, 0
1, 83002, Note_on_c, 0, 82, 0
1, 83025, Note_on_c, 0, 75, 0
1, 83040, Note_on_c, 0, 68, 60
1, 83047, Note_on_c, 0, 70, 0
1, 83087, Note_on_c, 0, 91, 71
1, 83130, Note_on_c, 0, 87, 63
1, 83177, Note_on_c, 0, 84, 67
1, 83207, Note_on_c, 0, 87, 0
1, 83222, Note_on_c, 0, 80, 66
1, 83247, Note_on_c, 0, 87, 80
1, 83290, Note_on_c, 0, 75, 68
1, 83295, Control_c, 0, 64, 127
1, 83322, Note_on_c, 0, 80, 0
1, 83345, Note_on_c, 0, 84, 0
1, 83347, Note_on_c, 0, 68, 0
1, 83357, Note_on_c, 0, 72, 67
1, 83367, Note_on_c, 0, 75, 0
1, 83387, Note_on_c, 0, 91, 0
1, 83410, Note_on_c, 0, 87, 0
1, 83430, Note_on_c, 0, 58, 62
1, 83435, Note_on_c, 0, 72, 0
1, 83447, Note_on_c, 0, 89, 74
1, 83490, Note_on_c, 0, 86, 66
1, 83497, Note_on_c, 0, 58, 0
1, 83522, Control_c, 0, 64, 0
1, 83557, Note_on_c, 0, 80, 61
1, 83605, Note_on_c, 0, 74, 62
1, 83635, Note_on_c, 0, 89, 0
1, 83637, Note_on_c, 0, 86, 0
1, 83650, Note_on_c, 0, 70, 60
1, 83727, Note_on_c, 0, 80, 0
1, 83747, Note_on_c, 0, 65, 58
1, 83775, Note_on_c, 0, 74, 0
1, 83802, Note_on_c, 0, 70, 0
1, 83807, Note_on_c, 0, 91, 70
1, 83840, Note_on_c, 0, 65, 0
1, 83877, Note_on_c, 0, 87, 63
1, 83930, Note_on_c, 0, 79, 62
1, 83935, Control_c, 0, 64, 127
1, 83957, Note_on_c, 0, 91, 0
1, 83972, Note_on_c, 0, 75, 65
1, 83980, Note_on_c, 0, 87, 0
1, 84017, Note_on_c, 0, 70, 66
1, 84020, Note_on_c, 0, 79, 0
1, 84062, Note_on_c, 0, 67, 66
1, 84067, Note_on_c, 0, 75, 0
1, 84132, Note_on_c, 0, 63, 65
1, 84142, Note_on_c, 0, 70, 0
1, 84195, Note_on_c, 0, 58, 61
1, 84265, Note_on_c, 0, 51, 59
1, 84317, Note_on_c, 0, 63, 0
1, 84360, Note_on_c, 0, 51, 0
1, 84380, Note_on_c, 0, 58, 0
1, 84407, Note_on_c, 0, 67, 0
1, 84535, Note_on_c, 0, 67, 67
1, 84627, Note_on_c, 0, 70, 71
1, 84690, Note_on_c, 0, 75, 79
1, 84735, Note_on_c, 0, 79, 70
1, 84790, Note_on_c, 0, 79, 0
1, 84827, Note_on_c, 0, 80, 66
1, 84895, Note_on_c, 0, 81, 69
1, 84925, Note_on_c, 0, 80, 0
1, 84967, Note_on_c, 0, 82, 67
1, 84975, Note_on_c, 0, 81, 0
1, 85020, Note_on_c, 0, 82, 0
1, 85030, Note_on_c, 0, 83, 64
1, 85100, Note_on_c, 0, 84, 63
1, 85107, Note_on_c, 0, 83, 0
1, 85107, Note_on_c, 0, 75, 0
1, 85172, Note_on_c, 0, 85, 60
1, 85185, Note_on_c, 0, 70, 0
1, 85187, Note_on_c, 0, 67, 0
1, 85202, Note_on_c, 0, 84, 0
1, 85242, Note_on_c, 0, 86, 65
1, 85257, Control_c, 0, 64, 0
1, 85290, Note_on_c, 0, 60, 64
1, 85295, Note_on_c, 0, 85, 0
1, 85335, Note_on_c, 0, 87, 71
1, 85367, Note_on_c, 0, 86, 0
1, 85410, Note_on_c, 0, 60, 0
1, 85467, Control_c, 0, 67, 127
1, 85475, Note_on_c, 0, 81, 63
1, 85540, Note_on_c, 0, 78, 62
1, 85585, Note_on_c, 0, 75, 63
1, 85602, Note_on_c, 0, 87, 0
1, 85617, Note_on_c, 0, 81, 0
1, 85635, Note_on_c, 0, 69, 62
1, 85680, Note_on_c, 0, 66, 59
1, 85685, Note_on_c, 0, 78, 0
1, 85687, Note_on_c, 0, 69, 0
1, 85707, Note_on_c, 0, 75, 0
1, 85722, Note_on_c, 0, 62, 63
1, 85767, Note_on_c, 0, 86, 67
1, 85800, Note_on_c, 0, 66, 0
1, 85840, Note_on_c, 0, 82, 60
1, 85847, Note_on_c, 0, 62, 0
1, 85880, Note_on_c, 0, 77, 62
1, 85885, Control_c, 0, 64, 127
1, 85927, Note_on_c, 0, 74, 63
1, 85977, Note_on_c, 0, 70, 63
1, 85982, Control_c, 0, 64, 0
1, 86005, Note_on_c, 0, 86, 0
1, 86022, Note_on_c, 0, 65, 58
1, 86030, Note_on_c, 0, 82, 0
1, 86050, Note_on_c, 0, 74, 0
1, 86050, Note_on_c, 0, 77, 0
1, 86062, Note_on_c, 0, 63, 61
1, 86072, Note_on_c, 0, 65, 0
1, 86087, Note_on_c, 0, 86, 73
1, 86095, Note_on_c, 0, 70, 0
1, 86160, Note_on_c, 0, 82, 61
1, 86202, Note_on_c, 0, 79, 62
1, 86230, Note_on_c, 0, 82, 0
1, 86245, Note_on_c, 0, 75, 59
1, 86252, Note_on_c, 0, 63, 0
1, 86252, Note_on_c, 0, 86, 0
1, 86290, Control_c, 0, 64, 127
1, 86297, Control_c, 0, 67, 0
1, 86312, Note_on_c, 0, 82, 77
1, 86320, Note_on_c, 0, 75, 0
1, 86360, Note_on_c, 0, 70, 63
1, 86370, Control_c, 0, 67, 127
1, 86387, Note_on_c, 0, 79, 0
1, 86425, Note_on_c, 0, 67, 60
1, 86427, Note_on_c, 0, 82, 0
1, 86430, Note_on_c, 0, 70, 0
1, 86445, Note_on_c, 0, 53, 58
1, 86495, Note_on_c, 0, 65, 63
1, 86497, Note_on_c, 0, 53, 0
1, 86500, Note_on_c, 0, 67, 0
1, 86535, Note_on_c, 0, 84, 73
1, 86587, Note_on_c, 0, 65, 0
1, 86605, Note_on_c, 0, 81, 64
1, 86650, Note_on_c, 0, 77, 60
1, 86657, Control_c, 0, 64, 0
1, 86715, Note_on_c, 0, 75, 60
1, 86790, Note_on_c, 0, 69, 60
1, 86795, Note_on_c, 0, 84, 0
1, 86797, Note_on_c, 0, 77, 0
1, 86867, Note_on_c, 0, 65, 57
1, 86870, Note_on_c, 0, 75, 0
1, 86872, Note_on_c, 0, 81, 0
1, 86895, Note_on_c, 0, 69, 0
1, 86917, Note_on_c, 0, 65, 0
1, 86952, Note_on_c, 0, 82, 73
1, 87025, Control_c, 0, 64, 127
1, 87025, Note_on_c, 0, 74, 63
1, 87097, Note_on_c, 0, 82, 0
1, 87115, Note_on_c, 0, 74, 0
1, 87117, Note_on_c, 0, 70, 64
1, 87162, Note_on_c, 0, 65, 63
1, 87210, Note_on_c, 0, 62, 66
1, 87232, Note_on_c, 0, 58, 69
1, 87237, Control_c, 0, 67, 0
1, 87260, Note_on_c, 0, 65, 0
1, 87270, Note_on_c, 0, 53, 73
1, 87277, Note_on_c, 0, 62, 0
1, 87300, Note_on_c, 0, 70, 0
1, 87315, Note_on_c, 0, 46, 73
1, 87347, Note_on_c, 0, 53, 0
1, 87370, Note_on_c, 0, 58, 0
1, 87395, Note_on_c, 0, 46, 0
1, 87787, Note_on_c, 0, 58, 60
1, 87790, Note_on_c, 0, 82, 100
1, 87792, Note_on_c, 0, 70, 98
1, 88200, Control_c, 0, 64, 0
1, 88312, Control_c, 0, 64, 127
1, 88320, Note_on_c, 0, 58, 0
1, 88390, Note_on_c, 0, 70, 0
1, 88390, Note_on_c, 0, 82, 0
1, 88410, Note_on_c, 0, 58, 80
1, 88502, Note_on_c, 0, 58, 0
1, 88520, Note_on_c, 0, 70, 80
1, 88520, Note_on_c, 0, 82, 83
1, 88597, Note_on_c, 0, 70, 0
1, 88637, Note_on_c, 0, 82, 0
1, 88697, Note_on_c, 0, 61, 106
1, 88700, Note_on_c, 0, 66, 79
1, 88700, Note_on_c, 0, 70, 81
1, 88722, Note_on_c, 0, 90, 85
1, 88725, Note_on_c, 0, 78, 84
1, 88725, Note_on_c, 0, 82, 87
1, 88725, Note_on_c, 0, 85, 88
1, 88800, Note_on_c, 0, 82, 0
1, 88800, Note_on_c, 0, 90, 0
1, 88800, Note_on_c, 0, 78, 0
1, 88802, Note_on_c, 0, 70, 0
1, 88802, Note_on_c, 0, 85, 0
1, 88845, Note_on_c, 0, 66, 0
1, 88890, Note_on_c, 0, 61, 0
1, 89170, Note_on_c, 0, 34, 92
1, 89170, Note_on_c, 0, 46, 69
1, 89172, Note_on_c, 0, 58, 68
1, 89245, Note_on_c, 0, 46, 0
1, 89250, Note_on_c, 0, 58, 0
1, 89475, Note_on_c, 0, 34, 0
1, 89675, Note_on_c, 0, 58, 96
1, 89677, Note_on_c, 0, 82, 100
1, 89680, Note_on_c, 0, 70, 98
1, 90092, Note_on_c, 0, 58, 0
1, 90200, Note_on_c, 0, 58, 77
1, 90210, Note_on_c, 0, 70, 0
1, 90232, Note_on_c, 0, 82, 0
1, 90250, Control_c, 0, 64, 0
1, 90300, Note_on_c, 0, 58, 0
1, 90337, Note_on_c, 0, 82, 85
1, 90340, Note_on_c, 0, 70, 83
1, 90390, Note_on_c, 0, 70, 0
1, 90412, Note_on_c, 0, 82, 0
1, 90495, Note_on_c, 0, 61, 95
1, 90495, Note_on_c, 0, 73, 87
1, 90497, Note_on_c, 0, 65, 87
1, 90497, Note_on_c, 0, 82, 91
1, 90497, Note_on_c, 0, 85, 92
1, 90500, Note_on_c, 0, 70, 91
1, 90520, Note_on_c, 0, 77, 92
1, 90522, Note_on_c, 0, 89, 95
1, 90632, Control_c, 0, 64, 127
1, 90707, Note_on_c, 0, 73, 0
1, 90707, Note_on_c, 0, 61, 0
1, 90710, Note_on_c, 0, 70, 0
1, 90710, Note_on_c, 0, 77, 0
1, 90712, Note_on_c, 0, 85, 0
1, 90712, Note_on_c, 0, 89, 0
1, 90712, Note_on_c, 0, 82, 0
1, 90730, Note_on_c, 0, 65, 0
1, 90990, Note_on_c, 0, 25, 86
1, 90992, Note_on_c, 0, 37, 51
1, 90997, Note_on_c, 0, 49, 81
1, 90997, Note_on_c, 0, 61, 81
1, 91065, Note_on_c, 0, 25, 0
1, 91067, Note_on_c, 0, 37, 0
1, 91070, Note_on_c, 0, 49, 0
1, 91072, Note_on_c, 0, 61, 0
1, 91445, Note_on_c, 0, 58, 80
1, 91447, Note_on_c, 0, 82, 84
1, 91450, Note_on_c, 0, 70, 82
1, 91885, Note_on_c, 0, 58, 0
1, 92012, Note_on_c, 0, 58, 85
1, 92022, Note_on_c, 0, 70, 0
1, 92042, Note_on_c, 0, 82, 0
1, 92107, Note_on_c, 0, 58, 0
1, 92150, Control_c, 0, 64, 0
1, 92150, Note_on_c, 0, 82, 91
1, 92172, Note_on_c, 0, 70, 88
1, 92222, Note_on_c, 0, 70, 0
1, 92242, Note_on_c, 0, 82, 0
1, 92322, Note_on_c, 0, 76, 87
1, 92330, Note_on_c, 0, 61, 82
1, 92330, Note_on_c, 0, 64, 81
1, 92332, Note_on_c, 0, 66, 80
1, 92332, Note_on_c, 0, 82, 82
1, 92332, Note_on_c, 0, 85, 81
1, 92335, Note_on_c, 0, 70, 78
1, 92335, Note_on_c, 0, 88, 79
1, 92510, Control_c, 0, 64, 127
1, 92570, Note_on_c, 0, 64, 0
1, 92570, Note_on_c, 0, 61, 0
1, 92572, Note_on_c, 0, 82, 0
1, 92572, Note_on_c, 0, 76, 0
1, 92572, Note_on_c, 0, 66, 0
1, 92572, Note_on_c, 0, 70, 0
1, 92575, Note_on_c, 0, 88, 0
1, 92575, Note_on_c, 0, 85, 0
1, 92830, Note_on_c, 0, 30, 76
1, 92830, Note_on_c, 0, 42, 72
1, 92857, Note_on_c, 0, 54, 71
1, 92860, Note_on_c, 0, 66, 72
1, 92907, Note_on_c, 0, 54, 0
1, 92925, Note_on_c, 0, 42, 0
1, 92927, Note_on_c, 0, 30, 0
1, 92932, Note_on_c, 0, 66, 0
1, 93355, Note_on_c, 0, 58, 72
1, 93357, Note_on_c, 0, 82, 75
1, 93360, Note_on_c, 0, 70, 73
1, 93900, Note_on_c, 0, 58, 0
1, 94037, Note_on_c, 0, 82, 0
1, 94040, Note_on_c, 0, 70, 0
1, 94147, Note_on_c, 0, 58, 79
1, 94152, Note_on_c, 0, 70, 86
1, 94152, Note_on_c, 0, 82, 89
1, 94175, Control_c, 0, 64, 0
1, 94222, Note_on_c, 0, 58, 0
1, 94225, Note_on_c, 0, 70, 0
1, 94272, Note_on_c, 0, 82, 0
1, 94305, Note_on_c, 0, 69, 82
1, 94307, Note_on_c, 0, 66, 79
1, 94325, Note_on_c, 0, 60, 78
1, 94327, Note_on_c, 0, 63, 77
1, 94327, Note_on_c, 0, 87, 81
1, 94347, Note_on_c, 0, 75, 78
1, 94350, Note_on_c, 0, 81, 79
1, 94375, Note_on_c, 0, 84, 77
1, 94552, Control_c, 0, 64, 127
1, 94610, Note_on_c, 0, 63, 0
1, 94612, Note_on_c, 0, 75, 0
1, 94632, Note_on_c, 0, 87, 0
1, 94632, Note_on_c, 0, 69, 0
1, 94632, Note_on_c, 0, 66, 0
1, 94632, Note_on_c, 0, 81, 0
1, 94650, Note_on_c, 0, 84, 0
1, 94910, Note_on_c, 0, 34, 71
1, 94910, Note_on_c, 0, 46, 60
1, 94912, Note_on_c, 0, 58, 59
1, 94965, Note_on_c, 0, 60, 0
1, 94980, Note_on_c, 0, 46, 0
1, 94982, Note_on_c, 0, 34, 0
1, 95007, Note_on_c, 0, 58, 0
1, 95072, Note_on_c, 0, 70, 64
1, 95452, Note_on_c, 0, 34, 53
1, 95455, Note_on_c, 0, 46, 66
1, 95525, Note_on_c, 0, 34, 0
1, 95550, Note_on_c, 0, 46, 0
1, 95662, Control_c, 0, 64, 0
1, 95675, Note_on_c, 0, 46, 62
1, 95790, Control_c, 0, 67, 127
1, 95877, Note_on_c, 0, 53, 62
1, 95970, Note_on_c, 0, 58, 59
1, 95990, Control_c, 0, 64, 127
1, 96060, Note_on_c, 0, 62, 55
1, 96070, Note_on_c, 0, 70, 0
1, 96115, Note_on_c, 0, 46, 0
1, 96117, Note_on_c, 0, 53, 0
1, 96140, Note_on_c, 0, 58, 0
1, 96150, Note_on_c, 0, 68, 47
1, 96240, Note_on_c, 0, 70, 48
1, 96307, Note_on_c, 0, 74, 61
1, 96352, Note_on_c, 0, 82, 66
1, 96405, Note_on_c, 0, 82, 0
1, 97062, Note_on_c, 0, 62, 0
1, 97180, Note_on_c, 0, 68, 0
1, 97182, Note_on_c, 0, 70, 0
1, 97220, Note_on_c, 0, 74, 0
1, 97365, Note_on_c, 0, 34, 62
1, 97365, Note_on_c, 0, 46, 57
1, 97510, Note_on_c, 0, 34, 0
1, 97532, Note_on_c, 0, 46, 0
1, 98085, Note_on_c, 0, 82, 60
1, 98317, Control_c, 0, 64, 0
1, 98502, Note_on_c, 0, 51, 47
1, 98567, Note_on_c, 0, 82, 0
1, 98650, Note_on_c, 0, 87, 60
1, 98712, Control_c, 0, 64, 127
1, 98782, Note_on_c, 0, 58, 47
1, 98917, Note_on_c, 0, 63, 46
1, 98945, Note_on_c, 0, 51, 0
1, 98967, Note_on_c, 0, 58, 0
1, 98992, Note_on_c, 0, 63, 0
1, 99010, Note_on_c, 0, 67, 56
1, 99120, Note_on_c, 0, 70, 56
1, 99125, Note_on_c, 0, 67, 0
1, 99175, Note_on_c, 0, 70, 0
1, 99452, Note_on_c, 0, 82, 65
1, 99555, Control_c, 0, 64, 0
1, 99635, Note_on_c, 0, 84, 60
1, 99642, Note_on_c, 0, 82, 0
1, 99662, Note_on_c, 0, 56, 48
1, 99752, Note_on_c, 0, 63, 46
1, 99845, Note_on_c, 0, 65, 51
1, 99885, Control_c, 0, 64, 127
1, 99932, Note_on_c, 0, 68, 51
1, 99982, Note_on_c, 0, 63, 0
1, 100007, Note_on_c, 0, 65, 0
1, 100007, Note_on_c, 0, 56, 0
1, 100030, Note_on_c, 0, 68, 0
1, 100042, Note_on_c, 0, 72, 57
1, 100092, Note_on_c, 0, 72, 0
1, 100117, Note_on_c, 0, 87, 0
1, 100117, Note_on_c, 0, 84, 0
1, 100340, Note_on_c, 0, 84, 70
1, 100392, Control_c, 0, 64, 0
1, 100515, Note_on_c, 0, 51, 57
1, 100520, Note_on_c, 0, 84, 0
1, 100577, Note_on_c, 0, 87, 69
1, 100650, Note_on_c, 0, 58, 59
1, 100757, Note_on_c, 0, 63, 57
1, 100782, Control_c, 0, 64, 127
1, 100855, Note_on_c, 0, 51, 0
1, 100875, Note_on_c, 0, 67, 54
1, 100880, Note_on_c, 0, 58, 0
1, 100905, Note_on_c, 0, 63, 0
1, 100985, Note_on_c, 0, 70, 53
1, 100992, Note_on_c, 0, 67, 0
1, 101067, Note_on_c, 0, 70, 0
1, 101195, Note_on_c, 0, 82, 54
1, 101365, Control_c, 0, 64, 0
1, 101385, Note_on_c, 0, 82, 0
1, 101400, Note_on_c, 0, 84, 51
1, 101402, Note_on_c, 0, 56, 59
1, 101450, Note_on_c, 0, 84, 0
1, 101465, Note_on_c, 0, 82, 46
1, 101470, Note_on_c, 0, 87, 0
1, 101517, Note_on_c, 0, 82, 0
1, 101532, Note_on_c, 0, 84, 61
1, 101535, Note_on_c, 0, 63, 61
1, 101595, Note_on_c, 0, 82, 48
1, 101662, Note_on_c, 0, 68, 51
1, 101687, Control_c, 0, 64, 127
1, 101712, Note_on_c, 0, 84, 0
1, 101747, Note_on_c, 0, 72, 55
1, 101760, Note_on_c, 0, 82, 0
1, 101760, Note_on_c, 0, 63, 0
1, 101762, Note_on_c, 0, 56, 0
1, 101802, Note_on_c, 0, 68, 0
1, 101815, Note_on_c, 0, 75, 60
1, 101867, Note_on_c, 0, 72, 0
1, 101887, Note_on_c, 0, 80, 66
1, 101915, Note_on_c, 0, 75, 0
1, 102102, Note_on_c, 0, 79, 58
1, 102120, Control_c, 0, 64, 0
1, 102285, Note_on_c, 0, 51, 53
1, 102290, Note_on_c, 0, 79, 0
1, 102307, Note_on_c, 0, 77, 59
1, 102312, Note_on_c, 0, 80, 0
1, 102405, Note_on_c, 0, 58, 52
1, 102427, Control_c, 0, 64, 127
1, 102537, Note_on_c, 0, 62, 56
1, 102540, Note_on_c, 0, 58, 0
1, 102542, Note_on_c, 0, 51, 0
1, 102625, Note_on_c, 0, 65, 58
1, 102630, Note_on_c, 0, 62, 0
1, 102697, Note_on_c, 0, 65, 0
1, 102740, Note_on_c, 0, 70, 66
1, 102790, Note_on_c, 0, 70, 0
1, 102802, Note_on_c, 0, 82, 73
1, 102965, Note_on_c, 0, 77, 0
1, 103190, Control_c, 0, 64, 0
1, 103230, Note_on_c, 0, 51, 62
1, 103250, Note_on_c, 0, 79, 59
1, 103295, Note_on_c, 0, 82, 0
1, 103312, Note_on_c, 0, 58, 60
1, 103385, Control_c, 0, 64, 127
1, 103465, Note_on_c, 0, 63, 59
1, 103517, Note_on_c, 0, 58, 0
1, 103517, Note_on_c, 0, 51, 0
1, 103530, Note_on_c, 0, 77, 72
1, 103557, Note_on_c, 0, 79, 0
1, 103587, Note_on_c, 0, 63, 0
1, 103602, Note_on_c, 0, 67, 60
1, 103715, Note_on_c, 0, 70, 59
1, 103745, Note_on_c, 0, 67, 0
1, 103792, Note_on_c, 0, 70, 0
1, 103830, Note_on_c, 0, 77, 0
1, 103867, Note_on_c, 0, 75, 68
1, 104130, Note_on_c, 0, 70, 68
1, 104162, Control_c, 0, 64, 0
1, 104222, Note_on_c, 0, 75, 0
1, 104335, Note_on_c, 0, 44, 46
1, 104340, Note_on_c, 0, 70, 0
1, 104352, Note_on_c, 0, 72, 59
1, 104450, Note_on_c, 0, 51, 52
1, 104472, Control_c, 0, 64, 127
1, 104580, Note_on_c, 0, 56, 51
1, 104585, Note_on_c, 0, 51, 0
1, 104587, Note_on_c, 0, 44, 0
1, 104657, Note_on_c, 0, 56, 0
1, 104670, Note_on_c, 0, 60, 57
1, 104782, Note_on_c, 0, 63, 59
1, 104790, Note_on_c, 0, 60, 0
1, 104857, Note_on_c, 0, 63, 0
1, 104890, Note_on_c, 0, 75, 63
1, 104965, Note_on_c, 0, 72, 0
1, 105167, Control_c, 0, 64, 0
1, 105200, Note_on_c, 0, 34, 53
1, 105272, Note_on_c, 0, 75, 0
1, 105310, Note_on_c, 0, 46, 53
1, 105402, Note_on_c, 0, 75, 54
1, 105457, Control_c, 0, 64, 127
1, 105472, Note_on_c, 0, 77, 61
1, 105502, Note_on_c, 0, 46, 0
1, 105505, Note_on_c, 0, 34, 0
1, 105522, Note_on_c, 0, 75, 0
1, 105542, Note_on_c, 0, 77, 0
1, 105560, Note_on_c, 0, 53, 54
1, 105680, Note_on_c, 0, 53, 0
1, 105717, Note_on_c, 0, 58, 55
1, 105765, Note_on_c, 0, 62, 53
1, 105792, Note_on_c, 0, 58, 0
1, 105872, Note_on_c, 0, 65, 63
1, 105877, Note_on_c, 0, 62, 0
1, 105940, Note_on_c, 0, 74, 60
1, 105947, Note_on_c, 0, 65, 0
1, 106000, Note_on_c, 0, 80, 63
1, 106045, Note_on_c, 0, 82, 77
1, 106125, Note_on_c, 0, 74, 0
1, 106422, Control_c, 0, 64, 0
1, 106477, Note_on_c, 0, 79, 64
1, 106487, Note_on_c, 0, 80, 0
1, 106500, Note_on_c, 0, 39, 61
1, 106500, Note_on_c, 0, 87, 73
1, 106505, Note_on_c, 0, 82, 0
1, 106525, Note_on_c, 0, 27, 60
1, 106617, Note_on_c, 0, 46, 59
1, 106682, Control_c, 0, 64, 127
1, 106725, Note_on_c, 0, 51, 59
1, 106802, Note_on_c, 0, 51, 0
1, 106802, Note_on_c, 0, 46, 0
1, 106807, Note_on_c, 0, 27, 0
1, 106825, Note_on_c, 0, 79, 0
1, 106830, Note_on_c, 0, 39, 0
1, 106832, Note_on_c, 0, 55, 59
1, 106935, Note_on_c, 0, 67, 59
1, 106965, Note_on_c, 0, 55, 0
1, 106997, Note_on_c, 0, 75, 56
1, 107012, Note_on_c, 0, 67, 0
1, 107172, Note_on_c, 0, 82, 66
1, 107250, Note_on_c, 0, 82, 0
1, 107330, Control_c, 0, 64, 0
1, 107335, Note_on_c, 0, 82, 56
1, 107340, Note_on_c, 0, 87, 0
1, 107362, Note_on_c, 0, 75, 0
1, 107382, Note_on_c, 0, 44, 54
1, 107400, Note_on_c, 0, 84, 63
1, 107472, Note_on_c, 0, 51, 56
1, 107582, Note_on_c, 0, 56, 57
1, 107610, Control_c, 0, 64, 127
1, 107632, Note_on_c, 0, 82, 0
1, 107635, Note_on_c, 0, 51, 0
1, 107637, Note_on_c, 0, 44, 0
1, 107660, Note_on_c, 0, 56, 0
1, 107695, Note_on_c, 0, 60, 59
1, 107810, Note_on_c, 0, 63, 61
1, 107812, Note_on_c, 0, 84, 0
1, 107817, Note_on_c, 0, 60, 0
1, 107830, Note_on_c, 0, 80, 54
1, 107862, Note_on_c, 0, 63, 0
1, 108027, Note_on_c, 0, 84, 65
1, 108037, Note_on_c, 0, 80, 0
1, 108120, Control_c, 0, 64, 0
1, 108240, Note_on_c, 0, 39, 55
1, 108287, Note_on_c, 0, 84, 0
1, 108312, Note_on_c, 0, 80, 53
1, 108327, Note_on_c, 0, 87, 64
1, 108422, Control_c, 0, 64, 127
1, 108442, Note_on_c, 0, 46, 59
1, 108542, Note_on_c, 0, 39, 0
1, 108580, Note_on_c, 0, 87, 0
1, 108600, Note_on_c, 0, 51, 59
1, 108617, Note_on_c, 0, 79, 65
1, 108650, Note_on_c, 0, 80, 0
1, 108652, Note_on_c, 0, 46, 0
1, 108710, Note_on_c, 0, 55, 62
1, 108720, Note_on_c, 0, 51, 0
1, 108802, Note_on_c, 0, 77, 67
1, 108827, Note_on_c, 0, 79, 0
1, 108845, Note_on_c, 0, 58, 57
1, 108852, Note_on_c, 0, 55, 0
1, 108892, Note_on_c, 0, 77, 0
1, 108912, Note_on_c, 0, 58, 0
1, 108950, Note_on_c, 0, 75, 58
1, 109000, Note_on_c, 0, 82, 67
1, 109005, Note_on_c, 0, 75, 0
1, 109102, Note_on_c, 0, 75, 62
1, 109120, Control_c, 0, 64, 0
1, 109155, Note_on_c, 0, 82, 0
1, 109192, Note_on_c, 0, 84, 68
1, 109215, Note_on_c, 0, 44, 59
1, 109327, Note_on_c, 0, 51, 58
1, 109417, Control_c, 0, 64, 127
1, 109440, Note_on_c, 0, 75, 0
1, 109452, Note_on_c, 0, 79, 65
1, 109457, Note_on_c, 0, 56, 59
1, 109465, Note_on_c, 0, 44, 0
1, 109485, Note_on_c, 0, 84, 0
1, 109510, Note_on_c, 0, 51, 0
1, 109567, Note_on_c, 0, 60, 57
1, 109577, Note_on_c, 0, 56, 0
1, 109667, Note_on_c, 0, 79, 0
1, 109707, Note_on_c, 0, 77, 68
1, 109710, Note_on_c, 0, 63, 58
1, 109717, Note_on_c, 0, 60, 0
1, 109760, Note_on_c, 0, 63, 0
1, 109920, Control_c, 0, 64, 0
1, 109927, Note_on_c, 0, 75, 76
1, 109977, Note_on_c, 0, 77, 0
1, 110000, Note_on_c, 0, 75, 0
1, 110040, Note_on_c, 0, 34, 62
1, 110102, Note_on_c, 0, 75, 68
1, 110105, Note_on_c, 0, 46, 60
1, 110197, Note_on_c, 0, 77, 69
1, 110242, Control_c, 0, 64, 127
1, 110335, Note_on_c, 0, 75, 0
1, 110340, Note_on_c, 0, 34, 0
1, 110362, Note_on_c, 0, 46, 0
1, 110400, Note_on_c, 0, 53, 61
1, 110440, Note_on_c, 0, 74, 60
1, 110492, Note_on_c, 0, 53, 0
1, 110512, Note_on_c, 0, 58, 64
1, 110602, Note_on_c, 0, 58, 0
1, 110612, Note_on_c, 0, 72, 63
1, 110615, Note_on_c, 0, 62, 68
1, 110622, Note_on_c, 0, 74, 0
1, 110622, Note_on_c, 0, 77, 0
1, 110705, Note_on_c, 0, 65, 66
1, 110715, Note_on_c, 0, 62, 0
1, 110732, Note_on_c, 0, 72, 0
1, 110770, Note_on_c, 0, 82, 82
1, 110802, Note_on_c, 0, 65, 0
1, 110822, Note_on_c, 0, 82, 0
1, 110975, Note_on_c, 0, 74, 71
1, 111075, Note_on_c, 0, 74, 0
1, 111080, Control_c, 0, 64, 0
1, 111187, Note_on_c, 0, 80, 74
1, 111210, Note_on_c, 0, 75, 63
1, 111212, Note_on_c, 0, 48, 63
1, 111367, Control_c, 0, 64, 127
1, 111390, Note_on_c, 0, 55, 60
1, 111497, Note_on_c, 0, 79, 73
1, 111505, Note_on_c, 0, 80, 0
1, 111507, Note_on_c, 0, 55, 0
1, 111527, Note_on_c, 0, 60, 59
1, 111532, Note_on_c, 0, 48, 0
1, 111580, Note_on_c, 0, 75, 0
1, 111637, Note_on_c, 0, 63, 59
1, 111665, Note_on_c, 0, 60, 0
1, 111747, Note_on_c, 0, 67, 63
1, 111767, Note_on_c, 0, 77, 76
1, 111842, Note_on_c, 0, 63, 0
1, 111845, Note_on_c, 0, 67, 0
1, 111990, Note_on_c, 0, 75, 76
1, 111995, Note_on_c, 0, 67, 67
1, 112000, Note_on_c, 0, 77, 0
1, 112005, Control_c, 0, 64, 0
1, 112072, Note_on_c, 0, 67, 0
1, 112087, Note_on_c, 0, 75, 0
1, 112087, Note_on_c, 0, 79, 0
1, 112100, Note_on_c, 0, 44, 61
1, 112190, Note_on_c, 0, 79, 72
1, 112230, Note_on_c, 0, 72, 59
1, 112272, Control_c, 0, 64, 127
1, 112340, Note_on_c, 0, 51, 56
1, 112345, Note_on_c, 0, 44, 0
1, 112475, Note_on_c, 0, 56, 52
1, 112480, Note_on_c, 0, 51, 0
1, 112500, Note_on_c, 0, 79, 0
1, 112522, Note_on_c, 0, 75, 61
1, 112575, Note_on_c, 0, 72, 0
1, 112580, Control_c, 0, 64, 0
1, 112590, Note_on_c, 0, 60, 59
1, 112620, Note_on_c, 0, 56, 0
1, 112705, Note_on_c, 0, 60, 0
1, 112722, Note_on_c, 0, 46, 62
1, 112750, Note_on_c, 0, 75, 0
1, 112762, Note_on_c, 0, 58, 61
1, 112852, Note_on_c, 0, 77, 69
1, 112855, Note_on_c, 0, 70, 60
1, 112855, Note_on_c, 0, 74, 60
1, 112875, Control_c, 0, 64, 127
1, 112967, Note_on_c, 0, 46, 0
1, 112970, Note_on_c, 0, 70, 0
1, 112990, Note_on_c, 0, 58, 0
1, 113030, Note_on_c, 0, 62, 53
1, 113115, Note_on_c, 0, 68, 58
1, 113120, Note_on_c, 0, 74, 0
1, 113187, Note_on_c, 0, 62, 0
1, 113237, Control_c, 0, 64, 0
1, 113247, Note_on_c, 0, 51, 61
1, 113280, Note_on_c, 0, 68, 0
1, 113390, Note_on_c, 0, 63, 59
1, 113427, Note_on_c, 0, 75, 69
1, 113437, Note_on_c, 0, 77, 0
1, 113457, Note_on_c, 0, 63, 0
1, 113520, Control_c, 0, 64, 127
1, 113545, Note_on_c, 0, 67, 58
1, 113612, Note_on_c, 0, 51, 0
1, 113635, Note_on_c, 0, 75, 0
1, 113637, Note_on_c, 0, 67, 0
1, 113650, Note_on_c, 0, 63, 55
1, 113742, Note_on_c, 0, 55, 53
1, 113767, Control_c, 0, 67, 0
1, 113815, Note_on_c, 0, 55, 0
1, 113815, Note_on_c, 0, 63, 0
1, 113815, Control_c, 0, 64, 0
1, 113852, Note_on_c, 0, 39, 62
1, 113855, Note_on_c, 0, 27, 61
1, 113922, Control_c, 0, 64, 127
1, 113932, Note_on_c, 0, 39, 0
1, 113935, Note_on_c, 0, 27, 0
1, 114370, Note_on_c, 0, 87, 85
1, 114392, Note_on_c, 0, 75, 72
1, 114395, Note_on_c, 0, 63, 71
1, 115267, Note_on_c, 0, 63, 0
1, 115267, Note_on_c, 0, 87, 0
1, 115287, Note_on_c, 0, 75, 0
1, 115375, Note_on_c, 0, 75, 79
1, 115377, Note_on_c, 0, 63, 76
1, 115377, Note_on_c, 0, 87, 79
1, 115472, Note_on_c, 0, 75, 0
1, 115495, Note_on_c, 0, 63, 0
1, 115497, Note_on_c, 0, 87, 0
1, 115505, Note_on_c, 0, 70, 84
1, 115560, Note_on_c, 0, 94, 88
1, 115585, Note_on_c, 0, 82, 91
1, 115612, Note_on_c, 0, 70, 0
1, 115632, Note_on_c, 0, 94, 0
1, 115652, Note_on_c, 0, 82, 0
1, 116037, Note_on_c, 0, 37, 87
1, 116040, Note_on_c, 0, 49, 97
1, 116040, Note_on_c, 0, 55, 97
1, 116040, Note_on_c, 0, 58, 96
1, 116042, Note_on_c, 0, 63, 97
1, 116117, Note_on_c, 0, 55, 0
1, 116137, Note_on_c, 0, 58, 0
1, 116155, Note_on_c, 0, 37, 0
1, 116182, Note_on_c, 0, 63, 0
1, 116202, Note_on_c, 0, 49, 0
1, 116575, Note_on_c, 0, 63, 88
1, 116595, Note_on_c, 0, 75, 94
1, 116595, Note_on_c, 0, 87, 96
1, 116690, Note_on_c, 0, 75, 0
1, 116825, Note_on_c, 0, 87, 0
1, 117227, Note_on_c, 0, 63, 0
1, 117307, Note_on_c, 0, 75, 85
1, 117330, Note_on_c, 0, 63, 85
1, 117332, Note_on_c, 0, 87, 88
1, 117350, Control_c, 0, 64, 0
1, 117380, Note_on_c, 0, 75, 0
1, 117470, Note_on_c, 0, 63, 0
1, 117512, Note_on_c, 0, 87, 0
1, 117527, Note_on_c, 0, 71, 86
1, 117577, Note_on_c, 0, 83, 86
1, 117577, Note_on_c, 0, 95, 84
1, 117667, Control_c, 0, 64, 127
1, 117730, Note_on_c, 0, 71, 0
1, 117755, Note_on_c, 0, 83, 0
1, 117780, Note_on_c, 0, 95, 0
1, 118102, Note_on_c, 0, 47, 81
1, 118105, Note_on_c, 0, 63, 81
1, 118107, Note_on_c, 0, 59, 81
1, 118120, Note_on_c, 0, 35, 51
1, 118120, Note_on_c, 0, 42, 81
1, 118125, Note_on_c, 0, 54, 80
1, 118222, Note_on_c, 0, 59, 0
1, 118272, Note_on_c, 0, 54, 0
1, 118297, Note_on_c, 0, 63, 0
1, 118312, Note_on_c, 0, 35, 0
1, 118400, Note_on_c, 0, 47, 0
1, 118422, Note_on_c, 0, 42, 0
1, 118812, Note_on_c, 0, 63, 72
1, 118815, Note_on_c, 0, 75, 72
1, 118817, Note_on_c, 0, 87, 74
1, 119565, Control_c, 0, 64, 0
1, 119570, Note_on_c, 0, 63, 0
1, 119597, Note_on_c, 0, 87, 0
1, 119620, Note_on_c, 0, 75, 0
1, 119652, Note_on_c, 0, 63, 81
1, 119700, Note_on_c, 0, 87, 83
1, 119717, Note_on_c, 0, 75, 80
1, 119772, Note_on_c, 0, 63, 0
1, 119817, Note_on_c, 0, 75, 0
1, 119837, Note_on_c, 0, 87, 0
1, 119852, Note_on_c, 0, 73, 86
1, 119912, Control_c, 0, 64, 127
1, 119940, Note_on_c, 0, 97, 90
1, 119942, Note_on_c, 0, 85, 86
1, 119997, Note_on_c, 0, 73, 0
1, 120012, Note_on_c, 0, 85, 0
1, 120035, Note_on_c, 0, 97, 0
1, 120530, Note_on_c, 0, 59, 85
1, 120545, Note_on_c, 0, 32, 94
1, 120547, Note_on_c, 0, 44, 94
1, 120550, Note_on_c, 0, 53, 94
1, 120552, Note_on_c, 0, 56, 93
1, 120552, Note_on_c, 0, 63, 92
1, 120580, Control_c, 0, 67, 127
1, 120667, Note_on_c, 0, 53, 0
1, 120670, Note_on_c, 0, 56, 0
1, 120717, Note_on_c, 0, 59, 0
1, 120730, Note_on_c, 0, 32, 0
1, 120730, Note_on_c, 0, 44, 0
1, 120760, Note_on_c, 0, 63, 0
1, 121362, Note_on_c, 0, 63, 70
1, 121365, Note_on_c, 0, 87, 71
1, 121382, Note_on_c, 0, 75, 69
1, 122277, Note_on_c, 0, 63, 0
1, 122322, Note_on_c, 0, 75, 0
1, 122325, Note_on_c, 0, 87, 0
1, 122457, Note_on_c, 0, 63, 68
1, 122460, Note_on_c, 0, 87, 78
1, 122495, Note_on_c, 0, 75, 77
1, 122525, Note_on_c, 0, 63, 0
1, 122610, Control_c, 0, 64, 0
1, 122640, Note_on_c, 0, 75, 0
1, 122665, Note_on_c, 0, 27, 57
1, 122725, Note_on_c, 0, 87, 0
1, 122800, Note_on_c, 0, 39, 60
1, 122877, Control_c, 0, 67, 0
1, 122940, Note_on_c, 0, 99, 75
1, 122972, Control_c, 0, 64, 127
1, 123000, Note_on_c, 0, 27, 0
1, 123022, Note_on_c, 0, 39, 0
1, 123152, Note_on_c, 0, 94, 59
1, 123220, Note_on_c, 0, 91, 62
1, 123247, Note_on_c, 0, 99, 0
1, 123272, Note_on_c, 0, 94, 0
1, 123290, Note_on_c, 0, 87, 67
1, 123350, Note_on_c, 0, 82, 68
1, 123357, Note_on_c, 0, 91, 0
1, 123377, Note_on_c, 0, 87, 0
1, 123417, Note_on_c, 0, 75, 78
1, 123447, Note_on_c, 0, 82, 0
1, 123460, Note_on_c, 0, 81, 81
1, 123525, Note_on_c, 0, 84, 71
1, 123550, Note_on_c, 0, 75, 0
1, 123570, Note_on_c, 0, 87, 69
1, 123617, Note_on_c, 0, 90, 68
1, 123647, Note_on_c, 0, 81, 0
1, 123660, Control_c, 0, 64, 0
1, 123665, Note_on_c, 0, 84, 0
1, 123680, Note_on_c, 0, 93, 61
1, 123750, Note_on_c, 0, 96, 60
1, 123755, Note_on_c, 0, 90, 0
1, 123802, Note_on_c, 0, 87, 0
1, 123805, Note_on_c, 0, 93, 0
1, 123817, Note_on_c, 0, 99, 57
1, 123827, Note_on_c, 0, 96, 0
1, 123885, Note_on_c, 0, 94, 53
1, 123952, Control_c, 0, 64, 127
1, 123955, Note_on_c, 0, 91, 58
1, 123985, Note_on_c, 0, 99, 0
1, 123995, Note_on_c, 0, 87, 60
1, 124005, Note_on_c, 0, 94, 0
1, 124040, Note_on_c, 0, 82, 57
1, 124047, Note_on_c, 0, 91, 0
1, 124070, Note_on_c, 0, 87, 0
1, 124107, Note_on_c, 0, 75, 69
1, 124137, Note_on_c, 0, 82, 0
1, 124147, Note_on_c, 0, 81, 64
1, 124192, Note_on_c, 0, 84, 58
1, 124237, Note_on_c, 0, 87, 60
1, 124265, Note_on_c, 0, 75, 0
1, 124305, Note_on_c, 0, 90, 64
1, 124345, Note_on_c, 0, 93, 68
1, 124352, Note_on_c, 0, 81, 0
1, 124352, Note_on_c, 0, 84, 0
1, 124412, Note_on_c, 0, 96, 72
1, 124417, Note_on_c, 0, 87, 0
1, 124465, Note_on_c, 0, 90, 0
1, 124487, Note_on_c, 0, 93, 0
1, 124495, Note_on_c, 0, 97, 72
1, 124570, Note_on_c, 0, 92, 67
1, 124630, Note_on_c, 0, 89, 66
1, 124640, Note_on_c, 0, 96, 0
1, 124640, Control_c, 0, 64, 0
1, 124675, Note_on_c, 0, 85, 66
1, 124680, Note_on_c, 0, 92, 0
1, 124717, Note_on_c, 0, 80, 62
1, 124742, Note_on_c, 0, 97, 0
1, 124770, Note_on_c, 0, 89, 0
1, 124797, Note_on_c, 0, 85, 0
1, 124807, Note_on_c, 0, 73, 73
1, 124837, Note_on_c, 0, 80, 0
1, 124870, Note_on_c, 0, 79, 62
1, 124947, Note_on_c, 0, 82, 54
1, 124967, Control_c, 0, 64, 127
1, 124985, Note_on_c, 0, 85, 53
1, 125032, Note_on_c, 0, 88, 54
1, 125037, Note_on_c, 0, 79, 0
1, 125037, Note_on_c, 0, 73, 0
1, 125060, Note_on_c, 0, 82, 0
1, 125075, Note_on_c, 0, 91, 59
1, 125145, Note_on_c, 0, 94, 60
1, 125157, Note_on_c, 0, 88, 0
1, 125165, Note_on_c, 0, 97, 66
1, 125175, Note_on_c, 0, 85, 0
1, 125195, Note_on_c, 0, 91, 0
1, 125262, Note_on_c, 0, 92, 57
1, 125327, Note_on_c, 0, 89, 55
1, 125337, Note_on_c, 0, 94, 0
1, 125372, Note_on_c, 0, 85, 53
1, 125400, Note_on_c, 0, 97, 0
1, 125400, Note_on_c, 0, 92, 0
1, 125412, Note_on_c, 0, 80, 62
1, 125442, Note_on_c, 0, 89, 0
1, 125442, Note_on_c, 0, 85, 0
1, 125480, Note_on_c, 0, 73, 74
1, 125527, Note_on_c, 0, 80, 0
1, 125542, Note_on_c, 0, 79, 69
1, 125592, Note_on_c, 0, 73, 0
1, 125615, Note_on_c, 0, 82, 64
1, 125655, Note_on_c, 0, 85, 64
1, 125665, Control_c, 0, 64, 0
1, 125685, Note_on_c, 0, 79, 0
1, 125700, Note_on_c, 0, 88, 64
1, 125727, Note_on_c, 0, 82, 0
1, 125740, Note_on_c, 0, 91, 66
1, 125765, Control_c, 0, 64, 127
1, 125770, Note_on_c, 0, 85, 0
1, 125785, Note_on_c, 0, 94, 69
1, 125792, Note_on_c, 0, 88, 0
1, 125845, Note_on_c, 0, 95, 67
1, 125855, Note_on_c, 0, 91, 0
1, 125862, Control_c, 0, 64, 0
1, 125915, Note_on_c, 0, 90, 65
1, 125962, Note_on_c, 0, 87, 66
1, 126007, Note_on_c, 0, 83, 66
1, 126022, Control_c, 0, 67, 127
1, 126050, Note_on_c, 0, 78, 58
1, 126057, Note_on_c, 0, 95, 0
1, 126077, Note_on_c, 0, 87, 0
1, 126100, Note_on_c, 0, 94, 0
1, 126120, Note_on_c, 0, 71, 69
1, 126127, Note_on_c, 0, 83, 0
1, 126127, Note_on_c, 0, 90, 0
1, 126150, Note_on_c, 0, 78, 0
1, 126180, Note_on_c, 0, 93, 61
1, 126187, Note_on_c, 0, 71, 0
1, 126245, Note_on_c, 0, 90, 62
1, 126292, Note_on_c, 0, 87, 60
1, 126320, Note_on_c, 0, 93, 0
1, 126332, Note_on_c, 0, 83, 58
1, 126355, Note_on_c, 0, 78, 57
1, 126360, Note_on_c, 0, 90, 0
1, 126400, Note_on_c, 0, 71, 68
1, 126425, Note_on_c, 0, 87, 0
1, 126427, Note_on_c, 0, 83, 0
1, 126472, Note_on_c, 0, 78, 0
1, 126485, Note_on_c, 0, 94, 65
1, 126500, Note_on_c, 0, 71, 0
1, 126532, Note_on_c, 0, 89, 65
1, 126602, Note_on_c, 0, 86, 64
1, 126632, Note_on_c, 0, 94, 0
1, 126647, Note_on_c, 0, 82, 61
1, 126655, Note_on_c, 0, 89, 0
1, 126665, Note_on_c, 0, 77, 57
1, 126695, Note_on_c, 0, 86, 0
1, 126715, Note_on_c, 0, 70, 64
1, 126740, Note_on_c, 0, 77, 0
1, 126740, Note_on_c, 0, 82, 0
1, 126777, Note_on_c, 0, 91, 53
1, 126787, Note_on_c, 0, 70, 0
1, 126840, Note_on_c, 0, 87, 55
1, 126905, Note_on_c, 0, 85, 56
1, 126935, Note_on_c, 0, 91, 0
1, 126955, Note_on_c, 0, 82, 53
1, 126972, Note_on_c, 0, 79, 51
1, 127012, Note_on_c, 0, 87, 0
1, 127017, Note_on_c, 0, 75, 57
1, 127022, Note_on_c, 0, 79, 0
1, 127047, Note_on_c, 0, 85, 0
1, 127070, Note_on_c, 0, 82, 0
1, 127087, Note_on_c, 0, 92, 61
1, 127132, Note_on_c, 0, 87, 63
1, 127140, Note_on_c, 0, 75, 0
1, 127170, Note_on_c, 0, 84, 63
1, 127237, Note_on_c, 0, 80, 60
1, 127245, Note_on_c, 0, 92, 0
1, 127285, Note_on_c, 0, 75, 63
1, 127292, Note_on_c, 0, 87, 0
1, 127327, Note_on_c, 0, 68, 70
1, 127335, Note_on_c, 0, 84, 0
1, 127355, Note_on_c, 0, 80, 0
1, 127370, Note_on_c, 0, 90, 60
1, 127380, Note_on_c, 0, 68, 0
1, 127400, Note_on_c, 0, 75, 0
1, 127440, Note_on_c, 0, 86, 62
1, 127480, Note_on_c, 0, 84, 62
1, 127525, Note_on_c, 0, 81, 60
1, 127552, Note_on_c, 0, 90, 0
1, 127565, Note_on_c, 0, 78, 60
1, 127595, Note_on_c, 0, 86, 0
1, 127595, Note_on_c, 0, 84, 0
1, 127617, Note_on_c, 0, 74, 67
1, 127642, Note_on_c, 0, 81, 0
1, 127665, Note_on_c, 0, 78, 0
1, 127682, Note_on_c, 0, 74, 0
1, 127697, Note_on_c, 0, 91, 61
1, 127742, Note_on_c, 0, 86, 63
1, 127792, Note_on_c, 0, 83, 64
1, 127810, Note_on_c, 0, 79, 60
1, 127857, Note_on_c, 0, 73, 59
1, 127860, Note_on_c, 0, 91, 0
1, 127905, Note_on_c, 0, 67, 66
1, 127927, Note_on_c, 0, 79, 0
1, 127927, Note_on_c, 0, 86, 0
1, 127930, Note_on_c, 0, 83, 0
1, 127955, Note_on_c, 0, 73, 0
1, 127990, Note_on_c, 0, 89, 56
1, 128025, Note_on_c, 0, 67, 0
1, 128040, Note_on_c, 0, 86, 58
1, 128085, Note_on_c, 0, 82, 61
1, 128130, Note_on_c, 0, 80, 58
1, 128160, Note_on_c, 0, 86, 0
1, 128160, Note_on_c, 0, 89, 0
1, 128170, Note_on_c, 0, 74, 51
1, 128177, Note_on_c, 0, 82, 0
1, 128217, Note_on_c, 0, 70, 66
1, 128220, Note_on_c, 0, 74, 0
1, 128262, Note_on_c, 0, 80, 0
1, 128297, Note_on_c, 0, 87, 53
1, 128312, Note_on_c, 0, 70, 0
1, 128362, Note_on_c, 0, 82, 54
1, 128407, Note_on_c, 0, 79, 51
1, 128432, Note_on_c, 0, 75, 53
1, 128435, Note_on_c, 0, 87, 0
1, 128460, Note_on_c, 0, 82, 0
1, 128477, Note_on_c, 0, 70, 56
1, 128522, Note_on_c, 0, 79, 0
1, 128522, Note_on_c, 0, 75, 0
1, 128542, Note_on_c, 0, 63, 71
1, 128572, Note_on_c, 0, 70, 0
1, 128610, Note_on_c, 0, 69, 62
1, 128660, Note_on_c, 0, 63, 0
1, 128670, Note_on_c, 0, 72, 65
1, 128712, Note_on_c, 0, 75, 66
1, 128722, Note_on_c, 0, 69, 0
1, 128760, Note_on_c, 0, 78, 68
1, 128765, Note_on_c, 0, 72, 0
1, 128822, Note_on_c, 0, 81, 71
1, 128832, Note_on_c, 0, 75, 0
1, 128877, Note_on_c, 0, 78, 0
1, 128887, Note_on_c, 0, 84, 75
1, 128952, Note_on_c, 0, 87, 73
1, 128962, Note_on_c, 0, 81, 0
1, 129017, Note_on_c, 0, 82, 69
1, 129060, Note_on_c, 0, 79, 62
1, 129090, Note_on_c, 0, 84, 0
1, 129112, Note_on_c, 0, 75, 64
1, 129137, Note_on_c, 0, 87, 0
1, 129137, Note_on_c, 0, 82, 0
1, 129177, Note_on_c, 0, 70, 61
1, 129180, Note_on_c, 0, 79, 0
1, 129180, Note_on_c, 0, 75, 0
1, 129247, Note_on_c, 0, 63, 67
1, 129277, Note_on_c, 0, 70, 0
1, 129312, Note_on_c, 0, 69, 58
1, 129362, Note_on_c, 0, 63, 0
1, 129377, Note_on_c, 0, 72, 57
1, 129420, Control_c, 0, 67, 0
1, 129427, Note_on_c, 0, 75, 58
1, 129432, Note_on_c, 0, 69, 0
1, 129475, Note_on_c, 0, 78, 59
1, 129502, Note_on_c, 0, 72, 0
1, 129515, Note_on_c, 0, 81, 63
1, 129542, Note_on_c, 0, 75, 0
1, 129557, Note_on_c, 0, 84, 66
1, 129567, Note_on_c, 0, 78, 0
1, 129605, Control_c, 0, 64, 127
1, 129630, Note_on_c, 0, 85, 64
1, 129637, Note_on_c, 0, 81, 0
1, 129692, Note_on_c, 0, 80, 64
1, 129737, Note_on_c, 0, 77, 65
1, 129742, Note_on_c, 0, 84, 0
1, 129782, Note_on_c, 0, 73, 63
1, 129810, Note_on_c, 0, 85, 0
1, 129812, Note_on_c, 0, 80, 0
1, 129825, Note_on_c, 0, 68, 58
1, 129832, Note_on_c, 0, 77, 0
1, 129872, Note_on_c, 0, 61, 76
1, 129875, Note_on_c, 0, 73, 0
1, 129885, Control_c, 0, 64, 0
1, 129920, Note_on_c, 0, 68, 0
1, 129942, Note_on_c, 0, 67, 59
1, 129990, Note_on_c, 0, 61, 0
1, 130000, Note_on_c, 0, 70, 58
1, 130040, Note_on_c, 0, 73, 57
1, 130052, Note_on_c, 0, 67, 0
1, 130052, Control_c, 0, 67, 127
1, 130120, Note_on_c, 0, 70, 0
1, 130132, Note_on_c, 0, 76, 56
1, 130172, Note_on_c, 0, 79, 57
1, 130180, Note_on_c, 0, 73, 0
1, 130215, Note_on_c, 0, 82, 62
1, 130245, Note_on_c, 0, 79, 0
1, 130247, Note_on_c, 0, 76, 0
1, 130287, Note_on_c, 0, 85, 57
1, 130347, Note_on_c, 0, 80, 58
1, 130392, Note_on_c, 0, 77, 60
1, 130400, Note_on_c, 0, 82, 0
1, 130440, Note_on_c, 0, 73, 64
1, 130445, Note_on_c, 0, 80, 0
1, 130467, Note_on_c, 0, 85, 0
1, 130470, Note_on_c, 0, 77, 0
1, 130485, Note_on_c, 0, 68, 63
1, 130510, Note_on_c, 0, 73, 0
1, 130552, Note_on_c, 0, 61, 75
1, 130602, Note_on_c, 0, 67, 65
1, 130627, Note_on_c, 0, 68, 0
1, 130652, Note_on_c, 0, 61, 0
1, 130660, Note_on_c, 0, 70, 68
1, 130725, Note_on_c, 0, 73, 68
1, 130737, Note_on_c, 0, 67, 0
1, 130775, Note_on_c, 0, 76, 68
1, 130780, Note_on_c, 0, 70, 0
1, 130795, Note_on_c, 0, 79, 68
1, 130800, Note_on_c, 0, 73, 0
1, 130860, Note_on_c, 0, 82, 70
1, 130887, Note_on_c, 0, 76, 0
1, 130907, Note_on_c, 0, 79, 0
1, 130925, Note_on_c, 0, 83, 65
1, 130990, Note_on_c, 0, 78, 63
1, 131035, Note_on_c, 0, 75, 62
1, 131077, Note_on_c, 0, 71, 63
1, 131125, Note_on_c, 0, 66, 60
1, 131150, Note_on_c, 0, 75, 0
1, 131150, Note_on_c, 0, 82, 0
1, 131162, Note_on_c, 0, 59, 68
1, 131167, Note_on_c, 0, 83, 0
1, 131167, Note_on_c, 0, 78, 0
1, 131170, Note_on_c, 0, 71, 0
1, 131172, Note_on_c, 0, 66, 0
1, 131227, Note_on_c, 0, 81, 54
1, 131262, Note_on_c, 0, 59, 0
1, 131297, Note_on_c, 0, 78, 55
1, 131340, Note_on_c, 0, 75, 56
1, 131345, Note_on_c, 0, 81, 0
1, 131392, Note_on_c, 0, 78, 0
1, 131405, Note_on_c, 0, 71, 60
1, 131410, Note_on_c, 0, 75, 0
1, 131455, Note_on_c, 0, 66, 56
1, 131495, Note_on_c, 0, 59, 69
1, 131500, Control_c, 0, 64, 127
1, 131520, Note_on_c, 0, 71, 0
1, 131545, Note_on_c, 0, 66, 0
1, 131570, Note_on_c, 0, 59, 0
1, 131595, Control_c, 0, 64, 0
1, 131605, Note_on_c, 0, 82, 51
1, 131667, Note_on_c, 0, 77, 51
1, 131710, Note_on_c, 0, 74, 54
1, 131737, Note_on_c, 0, 82, 0
1, 131760, Note_on_c, 0, 77, 0
1, 131760, Note_on_c, 0, 70, 52
1, 131802, Note_on_c, 0, 65, 51
1, 131842, Note_on_c, 0, 58, 69
1, 131867, Note_on_c, 0, 74, 0
1, 131892, Note_on_c, 0, 70, 0
1, 131892, Note_on_c, 0, 65, 0
1, 131895, Control_c, 0, 64, 127
1, 131907, Note_on_c, 0, 79, 50
1, 131940, Note_on_c, 0, 58, 0
1, 131975, Note_on_c, 0, 75, 52
1, 131997, Control_c, 0, 64, 0
1, 132020, Note_on_c, 0, 73, 54
1, 132065, Note_on_c, 0, 70, 57
1, 132070, Note_on_c, 0, 79, 0
1, 132120, Note_on_c, 0, 75, 0
1, 132120, Note_on_c, 0, 67, 59
1, 132160, Note_on_c, 0, 63, 61
1, 132185, Note_on_c, 0, 73, 0
1, 132190, Note_on_c, 0, 70, 0
1, 132192, Note_on_c, 0, 67, 0
1, 132227, Note_on_c, 0, 80, 65
1, 132262, Control_c, 0, 64, 127
1, 132277, Note_on_c, 0, 75, 61
1, 132285, Note_on_c, 0, 63, 0
1, 132320, Note_on_c, 0, 72, 58
1, 132360, Control_c, 0, 64, 0
1, 132367, Note_on_c, 0, 68, 56
1, 132397, Note_on_c, 0, 80, 0
1, 132417, Note_on_c, 0, 63, 59
1, 132420, Note_on_c, 0, 75, 0
1, 132465, Note_on_c, 0, 56, 69
1, 132487, Note_on_c, 0, 72, 0
1, 132490, Note_on_c, 0, 68, 0
1, 132497, Note_on_c, 0, 78, 55
1, 132510, Note_on_c, 0, 63, 0
1, 132532, Note_on_c, 0, 56, 0
1, 132562, Note_on_c, 0, 74, 57
1, 132592, Control_c, 0, 64, 127
1, 132610, Note_on_c, 0, 72, 60
1, 132655, Note_on_c, 0, 69, 60
1, 132690, Control_c, 0, 64, 0
1, 132700, Note_on_c, 0, 66, 56
1, 132702, Note_on_c, 0, 78, 0
1, 132720, Note_on_c, 0, 62, 67
1, 132747, Note_on_c, 0, 74, 0
1, 132750, Note_on_c, 0, 69, 0
1, 132770, Note_on_c, 0, 72, 0
1, 132795, Note_on_c, 0, 62, 0
1, 132797, Note_on_c, 0, 66, 0
1, 132810, Note_on_c, 0, 79, 58
1, 132850, Note_on_c, 0, 74, 60
1, 132895, Note_on_c, 0, 71, 62
1, 132922, Control_c, 0, 64, 127
1, 132945, Note_on_c, 0, 79, 0
1, 132945, Note_on_c, 0, 67, 58
1, 132985, Note_on_c, 0, 62, 58
1, 133005, Control_c, 0, 67, 0
1, 133017, Note_on_c, 0, 67, 0
1, 133022, Control_c, 0, 64, 0
1, 133030, Note_on_c, 0, 55, 71
1, 133057, Note_on_c, 0, 62, 0
1, 133060, Note_on_c, 0, 71, 0
1, 133077, Note_on_c, 0, 74, 0
1, 133092, Note_on_c, 0, 77, 56
1, 133125, Note_on_c, 0, 55, 0
1, 133127, Control_c, 0, 67, 127
1, 133155, Note_on_c, 0, 74, 52
1, 133172, Control_c, 0, 67, 0
1, 133200, Note_on_c, 0, 70, 59
1, 133242, Note_on_c, 0, 68, 60
1, 133270, Note_on_c, 0, 70, 0
1, 133297, Control_c, 0, 64, 127
1, 133307, Note_on_c, 0, 62, 58
1, 133315, Note_on_c, 0, 77, 0
1, 133332, Note_on_c, 0, 74, 0
1, 133372, Note_on_c, 0, 58, 70
1, 133377, Note_on_c, 0, 62, 0
1, 133382, Control_c, 0, 64, 0
1, 133400, Note_on_c, 0, 68, 0
1, 133440, Note_on_c, 0, 75, 65
1, 133447, Note_on_c, 0, 58, 0
1, 133527, Note_on_c, 0, 70, 62
1, 133622, Note_on_c, 0, 67, 63
1, 133682, Note_on_c, 0, 63, 63
1, 133712, Control_c, 0, 64, 127
1, 133727, Note_on_c, 0, 58, 60
1, 133750, Note_on_c, 0, 75, 0
1, 133755, Note_on_c, 0, 70, 0
1, 133757, Note_on_c, 0, 67, 0
1, 133780, Note_on_c, 0, 55, 57
1, 133827, Note_on_c, 0, 63, 0
1, 133840, Note_on_c, 0, 51, 57
1, 133867, Note_on_c, 0, 58, 0
1, 133930, Note_on_c, 0, 46, 60
1, 133982, Note_on_c, 0, 51, 0
1, 133992, Note_on_c, 0, 39, 65
1, 134022, Note_on_c, 0, 55, 0
1, 134087, Note_on_c, 0, 39, 0
1, 134127, Note_on_c, 0, 51, 59
1, 134175, Note_on_c, 0, 46, 0
1, 134212, Note_on_c, 0, 55, 55
1, 134280, Note_on_c, 0, 58, 56
1, 134332, Note_on_c, 0, 51, 0
1, 134365, Note_on_c, 0, 63, 61
1, 134372, Note_on_c, 0, 55, 0
1, 134437, Note_on_c, 0, 67, 62
1, 134440, Note_on_c, 0, 58, 0
1, 134465, Note_on_c, 0, 63, 0
1, 134497, Note_on_c, 0, 70, 65
1, 134527, Note_on_c, 0, 67, 0
1, 134572, Note_on_c, 0, 70, 0
1, 134582, Note_on_c, 0, 79, 70
1, 134647, Note_on_c, 0, 75, 66
1, 134715, Note_on_c, 0, 70, 64
1, 134767, Note_on_c, 0, 67, 59
1, 134792, Note_on_c, 0, 75, 0
1, 134810, Note_on_c, 0, 63, 59
1, 134820, Note_on_c, 0, 70, 0
1, 134877, Note_on_c, 0, 58, 71
1, 134880, Note_on_c, 0, 79, 0
1, 134882, Note_on_c, 0, 67, 0
1, 134905, Note_on_c, 0, 63, 0
1, 134920, Note_on_c, 0, 82, 60
1, 134950, Note_on_c, 0, 58, 0
1, 134965, Note_on_c, 0, 79, 60
1, 135005, Note_on_c, 0, 75, 61
1, 135055, Note_on_c, 0, 70, 64
1, 135060, Note_on_c, 0, 82, 0
1, 135105, Note_on_c, 0, 79, 0
1, 135105, Note_on_c, 0, 67, 65
1, 135130, Note_on_c, 0, 75, 0
1, 135145, Note_on_c, 0, 63, 74
1, 135177, Note_on_c, 0, 67, 0
1, 135217, Note_on_c, 0, 63, 0
1, 135220, Note_on_c, 0, 70, 0
1, 135227, Note_on_c, 0, 87, 65
1, 135275, Note_on_c, 0, 82, 67
1, 135312, Note_on_c, 0, 79, 64
1, 135357, Note_on_c, 0, 75, 65
1, 135382, Note_on_c, 0, 87, 0
1, 135385, Note_on_c, 0, 82, 0
1, 135402, Note_on_c, 0, 70, 61
1, 135427, Note_on_c, 0, 79, 0
1, 135427, Note_on_c, 0, 75, 0
1, 135450, Note_on_c, 0, 67, 68
1, 135480, Note_on_c, 0, 91, 60
1, 135527, Note_on_c, 0, 87, 63
1, 135540, Note_on_c, 0, 67, 0
1, 135560, Note_on_c, 0, 70, 0
1, 135572, Note_on_c, 0, 82, 65
1, 135622, Note_on_c, 0, 87, 0
1, 135635, Note_on_c, 0, 79, 67
1, 135647, Note_on_c, 0, 82, 0
1, 135680, Note_on_c, 0, 75, 69
1, 135685, Note_on_c, 0, 91, 0
1, 135727, Note_on_c, 0, 70, 81
1, 135732, Note_on_c, 0, 79, 0
1, 135772, Note_on_c, 0, 94, 75
1, 135802, Note_on_c, 0, 75, 0
1, 135827, Note_on_c, 0, 70, 0
1, 135962, Note_on_c, 0, 91, 76
1, 136007, Note_on_c, 0, 87, 77
1, 136057, Note_on_c, 0, 94, 0
1, 136077, Note_on_c, 0, 82, 77
1, 136102, Note_on_c, 0, 91, 0
1, 136120, Note_on_c, 0, 79, 75
1, 136127, Note_on_c, 0, 87, 0
1, 136130, Note_on_c, 0, 82, 0
1, 136187, Note_on_c, 0, 75, 75
1, 136235, Note_on_c, 0, 70, 75
1, 136237, Note_on_c, 0, 79, 0
1, 136287, Note_on_c, 0, 75, 0
1, 136307, Note_on_c, 0, 67, 74
1, 136330, Control_c, 0, 67, 127
1, 136412, Note_on_c, 0, 58, 70
1, 136480, Note_on_c, 0, 51, 75
1, 136555, Note_on_c, 0, 51, 0
1, 136557, Note_on_c, 0, 67, 0
1, 136577, Note_on_c, 0, 70, 0
1, 136625, Note_on_c, 0, 58, 0
1, 136770, Note_on_c, 0, 67, 66
1, 136895, Note_on_c, 0, 70, 67
1, 136975, Note_on_c, 0, 67, 0
1, 136980, Note_on_c, 0, 75, 64
1, 137010, Note_on_c, 0, 70, 0
1, 137022, Note_on_c, 0, 79, 64
1, 137065, Note_on_c, 0, 82, 66
1, 137107, Note_on_c, 0, 87, 67
1, 137130, Note_on_c, 0, 91, 69
1, 137160, Note_on_c, 0, 82, 0
1, 137202, Note_on_c, 0, 87, 0
1, 137202, Note_on_c, 0, 91, 0
1, 137215, Note_on_c, 0, 94, 65
1, 137272, Note_on_c, 0, 79, 0
1, 137272, Note_on_c, 0, 75, 0
1, 137282, Note_on_c, 0, 91, 69
1, 137345, Note_on_c, 0, 87, 70
1, 137412, Note_on_c, 0, 82, 72
1, 137415, Note_on_c, 0, 91, 0
1, 137415, Note_on_c, 0, 94, 0
1, 137442, Note_on_c, 0, 87, 0
1, 137465, Note_on_c, 0, 82, 0
1, 137475, Note_on_c, 0, 79, 68
1, 137520, Note_on_c, 0, 75, 67
1, 137570, Note_on_c, 0, 70, 66
1, 137592, Note_on_c, 0, 79, 0
1, 137637, Note_on_c, 0, 67, 62
1, 137662, Note_on_c, 0, 75, 0
1, 137725, Note_on_c, 0, 58, 66
1, 137815, Note_on_c, 0, 51, 73
1, 137865, Note_on_c, 0, 51, 0
1, 137910, Note_on_c, 0, 58, 0
1, 137937, Note_on_c, 0, 67, 0
1, 138000, Note_on_c, 0, 70, 0
1, 138110, Note_on_c, 0, 67, 58
1, 138170, Note_on_c, 0, 70, 61
1, 138212, Control_c, 0, 67, 0
1, 138222, Note_on_c, 0, 67, 0
1, 138235, Note_on_c, 0, 75, 66
1, 138300, Note_on_c, 0, 79, 67
1, 138332, Note_on_c, 0, 70, 0
1, 138350, Note_on_c, 0, 75, 0
1, 138362, Note_on_c, 0, 82, 67
1, 138395, Note_on_c, 0, 79, 0
1, 138432, Note_on_c, 0, 87, 69
1, 138470, Note_on_c, 0, 91, 68
1, 138532, Note_on_c, 0, 94, 68
1, 138600, Note_on_c, 0, 99, 67
1, 138667, Note_on_c, 0, 99, 0
1, 138750, Control_c, 0, 67, 127
1, 138980, Note_on_c, 0, 94, 0
1, 138982, Note_on_c, 0, 91, 0
1, 138982, Note_on_c, 0, 87, 0
1, 139025, Note_on_c, 0, 82, 0
1, 139622, Note_on_c, 0, 27, 59
1, 139685, Note_on_c, 0, 39, 59
1, 139685, Note_on_c, 0, 46, 59
1, 139707, Note_on_c, 0, 51, 58
1, 139757, Note_on_c, 0, 55, 59
1, 139760, Note_on_c, 0, 27, 0
1, 139787, Note_on_c, 0, 51, 0
1, 139820, Note_on_c, 0, 63, 59
1, 139827, Note_on_c, 0, 46, 0
1, 139845, Note_on_c, 0, 67, 59
1, 139867, Note_on_c, 0, 39, 0
1, 140065, Note_on_c, 0, 55, 0
1, 140112, Note_on_c, 0, 63, 0
1, 140115, Note_on_c, 0, 67, 0
1, 141830, Control_c, 0, 64, 0
1, 141952, Control_c, 0, 67, 0
1, 141952, End_track
0, 0, End_of_file
