0, 0, Header, 1, 2, 480
1, 0, Start_track
1, 0, Title_t, "Minuetto"
1, 0, Title_t, "Op-23"
1, 0, Text_t, "Cecile Chaminade"
1, 0, Text_t, "Cecile Chaminade\012"
1, 0, Time_signature, 3, 2, 24, 8
1, 0, Key_signature, 0, "major"
1, 0, Tempo, 303030
1, 24960, Tempo, 641711
1, 25440, Tempo, 303030
1, 45114, Tempo, 621762
1, 45594, Tempo, 303030
1, 57600, Tempo, 304569
1, 58065, Tempo, 304569
1, 58545, Tempo, 303030
1, 79665, Tempo, 641711
1, 80145, Tempo, 303030
1, 134400, Tempo, 703812
1, 134640, Tempo, 1340782
1, 135360, Tempo, 323015
1, 182880, Tempo, 374415
1, 185760, Tempo, 323015
1, 192960, Tempo, 406780
1, 194400, Tempo, 497925
1, 195840, Tempo, 626632
1, 197280, Tempo, 302267
1, 271680, Tempo, 356083
1, 273000, Tempo, 520607
1, 273000, End_track
2, 0, Start_track
2, 0, Title_t, "Piano"
2, 0, Program_c, 0, 0
2, 0, Control_c, 0, 7, 110
2, 0, Control_c, 0, 10, 63
2, 0, Control_c, 0, 91, 91
2, 0, Control_c, 0, 11, 110
2, 0, Program_c, 0, 0
2, 0, Control_c, 0, 7, 110
2, 0, Control_c, 0, 10, 73
2, 0, Control_c, 0, 91, 91
2, 0, Control_c, 0, 11, 110
2, 0, Program_c, 0, 0
2, 0, Control_c, 0, 7, 110
2, 0, Control_c, 0, 10, 54
2, 0, Control_c, 0, 91, 91
2, 0, Control_c, 0, 11, 110
2, 0, Program_c, 0, 0
2, 0, Control_c, 0, 7, 110
2, 0, Control_c, 0, 10, 45
2, 0, Control_c, 0, 91, 91
2, 0, Control_c, 0, 11, 110
2, 2880, Note_on_c, 0, 47, 79
2, 2880, Note_on_c, 0, 54, 79
2, 3360, Note_on_c, 0, 66, 53
2, 3360, Note_on_c, 0, 62, 53
2, 3360, Note_on_c, 0, 59, 71
2, 3435, Note_on_c, 0, 54, 0
2, 3435, Note_on_c, 0, 47, 0
2, 3480, Note_on_c, 0, 62, 0
2, 3480, Note_on_c, 0, 66, 0
2, 3600, Note_on_c, 0, 59, 0
2, 3840, Note_on_c, 0, 61, 53
2, 3840, Note_on_c, 0, 66, 56
2, 3840, Note_on_c, 0, 58, 69
2, 3960, Note_on_c, 0, 58, 0
2, 3960, Note_on_c, 0, 66, 0
2, 3960, Note_on_c, 0, 61, 0
2, 4320, Note_on_c, 0, 47, 79
2, 4320, Note_on_c, 0, 54, 79
2, 4800, Note_on_c, 0, 66, 59
2, 4800, Note_on_c, 0, 62, 59
2, 4920, Note_on_c, 0, 62, 0
2, 4920, Note_on_c, 0, 66, 0
2, 5280, Note_on_c, 0, 66, 59
2, 5280, Note_on_c, 0, 62, 59
2, 5280, Note_on_c, 0, 56, 65
2, 5355, Note_on_c, 0, 54, 0
2, 5355, Note_on_c, 0, 47, 0
2, 5400, Note_on_c, 0, 62, 0
2, 5400, Note_on_c, 0, 66, 0
2, 5520, Note_on_c, 0, 58, 65
2, 5595, Note_on_c, 0, 56, 0
2, 5760, Note_on_c, 0, 59, 74
2, 5835, Note_on_c, 0, 58, 0
2, 6000, Note_on_c, 0, 61, 73
2, 6075, Note_on_c, 0, 59, 0
2, 6240, Note_on_c, 0, 71, 61
2, 6240, Note_on_c, 0, 66, 61
2, 6240, Note_on_c, 0, 62, 80
2, 6315, Note_on_c, 0, 61, 0
2, 6360, Note_on_c, 0, 71, 0
2, 6360, Note_on_c, 0, 66, 0
2, 6360, Note_on_c, 0, 62, 0
2, 6720, Note_on_c, 0, 64, 61
2, 6720, Note_on_c, 0, 69, 61
2, 6720, Note_on_c, 0, 61, 71
2, 6840, Note_on_c, 0, 61, 0
2, 6840, Note_on_c, 0, 69, 0
2, 6840, Note_on_c, 0, 64, 0
2, 7200, Note_on_c, 0, 57, 80
2, 7680, Note_on_c, 0, 69, 67
2, 7680, Note_on_c, 0, 67, 67
2, 7800, Note_on_c, 0, 67, 0
2, 7800, Note_on_c, 0, 69, 0
2, 8160, Note_on_c, 0, 67, 67
2, 8160, Note_on_c, 0, 69, 56
2, 8160, Note_on_c, 0, 59, 67
2, 8235, Note_on_c, 0, 57, 0
2, 8280, Note_on_c, 0, 67, 0
2, 8280, Note_on_c, 0, 69, 0
2, 8400, Note_on_c, 0, 61, 71
2, 8475, Note_on_c, 0, 59, 0
2, 8640, Note_on_c, 0, 62, 75
2, 8715, Note_on_c, 0, 61, 0
2, 8880, Note_on_c, 0, 64, 74
2, 8955, Note_on_c, 0, 62, 0
2, 9120, Note_on_c, 0, 66, 80
2, 9195, Note_on_c, 0, 64, 0
2, 9600, Note_on_c, 0, 70, 72
2, 9600, Note_on_c, 0, 73, 72
2, 9600, Note_on_c, 0, 64, 75
2, 9675, Note_on_c, 0, 66, 0
2, 9720, Note_on_c, 0, 70, 0
2, 9720, Note_on_c, 0, 73, 0
2, 9720, Note_on_c, 0, 64, 0
2, 10080, Note_on_c, 0, 73, 78
2, 10080, Note_on_c, 0, 70, 78
2, 10080, Note_on_c, 0, 64, 80
2, 10240, Note_on_c, 0, 66, 85
2, 10320, Note_on_c, 0, 64, 0
2, 10400, Note_on_c, 0, 64, 73
2, 10470, Note_on_c, 0, 66, 0
2, 10560, Note_on_c, 0, 78, 67
2, 10560, Note_on_c, 0, 71, 67
2, 10560, Note_on_c, 0, 62, 69
2, 10635, Note_on_c, 0, 73, 0
2, 10635, Note_on_c, 0, 64, 0
2, 10635, Note_on_c, 0, 70, 0
2, 10800, Note_on_c, 0, 78, 0
2, 10800, Note_on_c, 0, 71, 0
2, 10800, Note_on_c, 0, 62, 0
2, 11040, Note_on_c, 0, 66, 59
2, 11040, Note_on_c, 0, 76, 59
2, 11040, Note_on_c, 0, 70, 59
2, 11040, Note_on_c, 0, 61, 64
2, 11160, Note_on_c, 0, 61, 0
2, 11160, Note_on_c, 0, 66, 0
2, 11160, Note_on_c, 0, 76, 0
2, 11160, Note_on_c, 0, 70, 0
2, 11520, Note_on_c, 0, 66, 67
2, 11520, Note_on_c, 0, 76, 67
2, 11520, Note_on_c, 0, 70, 67
2, 11520, Note_on_c, 0, 61, 74
2, 11680, Note_on_c, 0, 62, 82
2, 11760, Note_on_c, 0, 61, 0
2, 11840, Note_on_c, 0, 61, 71
2, 11910, Note_on_c, 0, 62, 0
2, 12000, Note_on_c, 0, 71, 59
2, 12000, Note_on_c, 0, 74, 59
2, 12000, Note_on_c, 0, 59, 68
2, 12075, Note_on_c, 0, 70, 0
2, 12075, Note_on_c, 0, 61, 0
2, 12075, Note_on_c, 0, 76, 0
2, 12225, Note_on_c, 0, 66, 0
2, 12240, Note_on_c, 0, 59, 0
2, 12240, Note_on_c, 0, 74, 0
2, 12240, Note_on_c, 0, 71, 0
2, 12480, Note_on_c, 0, 63, 57
2, 12480, Note_on_c, 0, 72, 57
2, 12480, Note_on_c, 0, 66, 57
2, 12480, Note_on_c, 0, 57, 64
2, 12600, Note_on_c, 0, 57, 0
2, 12600, Note_on_c, 0, 63, 0
2, 12600, Note_on_c, 0, 72, 0
2, 12600, Note_on_c, 0, 66, 0
2, 12960, Note_on_c, 0, 63, 56
2, 12960, Note_on_c, 0, 72, 56
2, 12960, Note_on_c, 0, 66, 56
2, 12960, Note_on_c, 0, 57, 61
2, 13120, Note_on_c, 0, 59, 68
2, 13200, Note_on_c, 0, 57, 0
2, 13280, Note_on_c, 0, 57, 59
2, 13350, Note_on_c, 0, 59, 0
2, 13440, Note_on_c, 0, 67, 48
2, 13440, Note_on_c, 0, 71, 48
2, 13440, Note_on_c, 0, 55, 56
2, 13515, Note_on_c, 0, 66, 0
2, 13515, Note_on_c, 0, 57, 0
2, 13515, Note_on_c, 0, 72, 0
2, 13665, Note_on_c, 0, 63, 0
2, 13680, Note_on_c, 0, 55, 0
2, 13680, Note_on_c, 0, 71, 0
2, 13680, Note_on_c, 0, 67, 0
2, 13920, Note_on_c, 0, 69, 48
2, 13920, Note_on_c, 0, 71, 42
2, 13920, Note_on_c, 0, 63, 32
2, 13920, Note_on_c, 0, 54, 55
2, 14040, Note_on_c, 0, 54, 0
2, 14040, Note_on_c, 0, 69, 0
2, 14040, Note_on_c, 0, 71, 0
2, 14040, Note_on_c, 0, 63, 0
2, 14400, Note_on_c, 0, 71, 74
2, 14400, Note_on_c, 0, 67, 57
2, 14400, Note_on_c, 0, 64, 57
2, 14400, Note_on_c, 0, 52, 67
2, 14400, Note_on_c, 0, 40, 67
2, 14880, Note_on_c, 0, 40, 0
2, 14880, Note_on_c, 0, 64, 0
2, 14880, Note_on_c, 0, 52, 0
2, 14880, Note_on_c, 0, 67, 0
2, 14880, Note_on_c, 0, 76, 69
2, 14940, Note_on_c, 0, 71, 0
2, 15120, Note_on_c, 0, 76, 0
2, 15360, Note_on_c, 0, 75, 70
2, 15360, Note_on_c, 0, 63, 53
2, 15360, Note_on_c, 0, 69, 53
2, 15360, Note_on_c, 0, 42, 57
2, 15360, Note_on_c, 0, 54, 57
2, 15480, Note_on_c, 0, 54, 0
2, 15480, Note_on_c, 0, 69, 0
2, 15480, Note_on_c, 0, 75, 0
2, 15480, Note_on_c, 0, 63, 0
2, 15480, Note_on_c, 0, 42, 0
2, 15840, Note_on_c, 0, 71, 74
2, 15840, Note_on_c, 0, 55, 79
2, 15840, Note_on_c, 0, 43, 79
2, 16320, Note_on_c, 0, 43, 0
2, 16320, Note_on_c, 0, 55, 0
2, 16320, Note_on_c, 0, 59, 67
2, 16320, Note_on_c, 0, 64, 67
2, 16440, Note_on_c, 0, 64, 0
2, 16440, Note_on_c, 0, 59, 0
2, 16800, Note_on_c, 0, 73, 83
2, 16800, Note_on_c, 0, 54, 67
2, 16800, Note_on_c, 0, 42, 67
2, 16860, Note_on_c, 0, 71, 0
2, 16920, Note_on_c, 0, 42, 0
2, 16920, Note_on_c, 0, 54, 0
2, 17040, Note_on_c, 0, 75, 79
2, 17100, Note_on_c, 0, 73, 0
2, 17280, Note_on_c, 0, 76, 91
2, 17280, Note_on_c, 0, 52, 79
2, 17280, Note_on_c, 0, 40, 79
2, 17340, Note_on_c, 0, 75, 0
2, 17520, Note_on_c, 0, 78, 85
2, 17580, Note_on_c, 0, 76, 0
2, 17760, Note_on_c, 0, 40, 0
2, 17760, Note_on_c, 0, 52, 0
2, 17760, Note_on_c, 0, 79, 93
2, 17820, Note_on_c, 0, 78, 0
2, 18000, Note_on_c, 0, 79, 0
2, 18240, Note_on_c, 0, 78, 82
2, 18240, Note_on_c, 0, 66, 72
2, 18240, Note_on_c, 0, 72, 72
2, 18240, Note_on_c, 0, 50, 69
2, 18240, Note_on_c, 0, 38, 69
2, 18360, Note_on_c, 0, 38, 0
2, 18360, Note_on_c, 0, 72, 0
2, 18360, Note_on_c, 0, 50, 0
2, 18360, Note_on_c, 0, 66, 0
2, 18480, Note_on_c, 0, 78, 0
2, 18720, Control_c, 0, 64, 127
2, 18720, Note_on_c, 0, 74, 93
2, 18720, Note_on_c, 0, 57, 79
2, 18720, Note_on_c, 0, 45, 79
2, 19200, Note_on_c, 0, 66, 69
2, 19200, Note_on_c, 0, 62, 69
2, 19200, Note_on_c, 0, 72, 69
2, 19440, Note_on_c, 0, 72, 0
2, 19440, Note_on_c, 0, 66, 0
2, 19440, Note_on_c, 0, 62, 0
2, 19680, Note_on_c, 0, 57, 0
2, 19680, Note_on_c, 0, 45, 0
2, 19680, Note_on_c, 0, 76, 85
2, 19740, Note_on_c, 0, 74, 0
2, 19920, Control_c, 0, 64, 0
2, 19920, Note_on_c, 0, 78, 83
2, 19980, Note_on_c, 0, 76, 0
2, 20160, Control_c, 0, 64, 127
2, 20160, Note_on_c, 0, 79, 93
2, 20160, Note_on_c, 0, 43, 78
2, 20220, Note_on_c, 0, 78, 0
2, 20400, Note_on_c, 0, 81, 88
2, 20460, Note_on_c, 0, 79, 0
2, 20640, Note_on_c, 0, 43, 0
2, 20640, Note_on_c, 0, 83, 95
2, 20640, Note_on_c, 0, 74, 73
2, 20640, Note_on_c, 0, 67, 74
2, 20700, Note_on_c, 0, 81, 0
2, 21120, Note_on_c, 0, 83, 0
2, 21120, Note_on_c, 0, 74, 0
2, 21120, Control_c, 0, 64, 0
2, 21120, Note_on_c, 0, 81, 75
2, 21120, Note_on_c, 0, 75, 54
2, 21120, Note_on_c, 0, 66, 51
2, 21195, Note_on_c, 0, 67, 0
2, 21600, Note_on_c, 0, 75, 0
2, 21600, Note_on_c, 0, 76, 57
2, 21600, Note_on_c, 0, 64, 54
2, 21675, Note_on_c, 0, 66, 0
2, 21760, Note_on_c, 0, 79, 72
2, 21825, Note_on_c, 0, 81, 0
2, 21840, Note_on_c, 0, 64, 0
2, 21840, Note_on_c, 0, 76, 0
2, 21920, Note_on_c, 0, 78, 69
2, 21975, Note_on_c, 0, 79, 0
2, 22080, Note_on_c, 0, 76, 63
2, 22140, Note_on_c, 0, 78, 0
2, 22320, Note_on_c, 0, 76, 0
2, 22560, Note_on_c, 0, 78, 76
2, 22560, Note_on_c, 0, 71, 73
2, 22560, Note_on_c, 0, 62, 71
2, 22560, Note_on_c, 0, 66, 71
2, 23040, Note_on_c, 0, 67, 63
2, 23040, Note_on_c, 0, 61, 63
2, 23115, Note_on_c, 0, 66, 0
2, 23115, Note_on_c, 0, 62, 0
2, 23200, Note_on_c, 0, 79, 82
2, 23265, Note_on_c, 0, 78, 0
2, 23280, Note_on_c, 0, 61, 0
2, 23280, Note_on_c, 0, 67, 0
2, 23360, Note_on_c, 0, 78, 77
2, 23415, Note_on_c, 0, 79, 0
2, 23520, Note_on_c, 0, 76, 75
2, 23580, Note_on_c, 0, 78, 0
2, 23760, Note_on_c, 0, 76, 0
2, 23760, Note_on_c, 0, 71, 0
2, 24000, Note_on_c, 0, 64, 86
2, 24000, Note_on_c, 0, 70, 86
2, 24000, Note_on_c, 0, 66, 86
2, 24000, Note_on_c, 0, 54, 65
2, 24000, Note_on_c, 0, 42, 70
2, 24120, Note_on_c, 0, 42, 0
2, 24120, Note_on_c, 0, 66, 0
2, 24120, Note_on_c, 0, 64, 0
2, 24120, Note_on_c, 0, 70, 0
2, 24120, Note_on_c, 0, 54, 0
2, 24480, Note_on_c, 0, 66, 88
2, 24480, Note_on_c, 0, 62, 88
2, 24480, Note_on_c, 0, 71, 88
2, 24480, Note_on_c, 0, 59, 77
2, 24480, Note_on_c, 0, 47, 77
2, 24720, Note_on_c, 0, 47, 0
2, 24720, Note_on_c, 0, 71, 0
2, 24720, Note_on_c, 0, 66, 0
2, 24720, Note_on_c, 0, 62, 0
2, 24720, Note_on_c, 0, 59, 0
2, 24960, Note_on_c, 0, 35, 81
2, 24960, Note_on_c, 0, 47, 81
2, 25200, Note_on_c, 0, 47, 0
2, 25200, Note_on_c, 0, 35, 0
2, 25440, Note_on_c, 0, 78, 74
2, 25920, Note_on_c, 0, 73, 78
2, 26400, Note_on_c, 0, 85, 75
2, 26400, Note_on_c, 0, 69, 72
2, 26565, Note_on_c, 0, 78, 0
2, 26880, Note_on_c, 0, 83, 71
2, 26880, Note_on_c, 0, 74, 68
2, 26880, Note_on_c, 0, 71, 72
2, 26955, Note_on_c, 0, 73, 0
2, 27000, Note_on_c, 0, 69, 0
2, 27045, Note_on_c, 0, 85, 0
2, 27360, Note_on_c, 0, 80, 75
2, 27360, Note_on_c, 0, 78, 71
2, 27360, Note_on_c, 0, 73, 79
2, 27435, Note_on_c, 0, 74, 0
2, 27480, Note_on_c, 0, 71, 0
2, 27525, Note_on_c, 0, 83, 0
2, 27840, Note_on_c, 0, 76, 68
2, 27915, Note_on_c, 0, 78, 0
2, 28080, Note_on_c, 0, 74, 62
2, 28155, Note_on_c, 0, 76, 0
2, 28320, Note_on_c, 0, 73, 65
2, 28320, Note_on_c, 0, 61, 54
2, 28395, Note_on_c, 0, 74, 0
2, 28560, Note_on_c, 0, 61, 0
2, 28560, Note_on_c, 0, 74, 63
2, 28635, Note_on_c, 0, 73, 0
2, 28800, Note_on_c, 0, 76, 71
2, 28875, Note_on_c, 0, 74, 0
2, 29280, Note_on_c, 0, 73, 0
2, 29280, Note_on_c, 0, 80, 0
2, 29280, Note_on_c, 0, 83, 68
2, 29280, Note_on_c, 0, 68, 69
2, 29760, Note_on_c, 0, 81, 60
2, 29760, Note_on_c, 0, 69, 74
2, 29760, Note_on_c, 0, 59, 60
2, 29880, Note_on_c, 0, 68, 0
2, 29925, Note_on_c, 0, 83, 0
2, 30000, Note_on_c, 0, 59, 0
2, 30180, Note_on_c, 0, 76, 0
2, 30240, Note_on_c, 0, 78, 66
2, 30240, Note_on_c, 0, 76, 67
2, 30240, Note_on_c, 0, 71, 79
2, 30360, Note_on_c, 0, 69, 0
2, 30405, Note_on_c, 0, 81, 0
2, 30720, Note_on_c, 0, 74, 64
2, 30795, Note_on_c, 0, 76, 0
2, 30960, Note_on_c, 0, 73, 60
2, 31035, Note_on_c, 0, 74, 0
2, 31200, Note_on_c, 0, 71, 62
2, 31275, Note_on_c, 0, 73, 0
2, 31440, Note_on_c, 0, 73, 60
2, 31515, Note_on_c, 0, 71, 0
2, 31680, Note_on_c, 0, 74, 66
2, 31755, Note_on_c, 0, 73, 0
2, 32160, Note_on_c, 0, 71, 0
2, 32160, Note_on_c, 0, 78, 0
2, 32160, Note_on_c, 0, 81, 71
2, 32160, Note_on_c, 0, 57, 66
2, 32640, Note_on_c, 0, 80, 67
2, 32640, Note_on_c, 0, 59, 62
2, 32760, Note_on_c, 0, 57, 0
2, 32805, Note_on_c, 0, 81, 0
2, 33075, Note_on_c, 0, 74, 0
2, 33120, Note_on_c, 0, 77, 72
2, 33120, Note_on_c, 0, 74, 71
2, 33120, Note_on_c, 0, 61, 70
2, 33240, Note_on_c, 0, 59, 0
2, 33285, Note_on_c, 0, 80, 0
2, 33600, Note_on_c, 0, 73, 70
2, 33675, Note_on_c, 0, 74, 0
2, 33840, Note_on_c, 0, 71, 67
2, 33915, Note_on_c, 0, 73, 0
2, 34080, Note_on_c, 0, 61, 0
2, 34080, Note_on_c, 0, 69, 71
2, 34080, Note_on_c, 0, 49, 71
2, 34155, Note_on_c, 0, 71, 0
2, 34320, Note_on_c, 0, 68, 66
2, 34395, Note_on_c, 0, 69, 0
2, 34560, Note_on_c, 0, 77, 0
2, 34560, Note_on_c, 0, 68, 0
2, 34560, Note_on_c, 0, 66, 82
2, 34560, Note_on_c, 0, 50, 78
2, 34680, Note_on_c, 0, 49, 0
2, 34800, Note_on_c, 0, 78, 77
2, 34875, Note_on_c, 0, 66, 0
2, 35040, Note_on_c, 0, 81, 84
2, 35115, Note_on_c, 0, 78, 0
2, 35280, Note_on_c, 0, 81, 0
2, 35520, Note_on_c, 0, 50, 0
2, 35520, Note_on_c, 0, 80, 75
2, 35520, Note_on_c, 0, 71, 75
2, 35520, Note_on_c, 0, 47, 69
2, 36000, Note_on_c, 0, 71, 0
2, 36000, Note_on_c, 0, 80, 0
2, 36000, Note_on_c, 0, 77, 80
2, 36000, Note_on_c, 0, 74, 85
2, 36000, Note_on_c, 0, 49, 77
2, 36120, Note_on_c, 0, 47, 0
2, 36480, Note_on_c, 0, 73, 82
2, 36555, Note_on_c, 0, 74, 0
2, 36720, Note_on_c, 0, 71, 76
2, 36795, Note_on_c, 0, 73, 0
2, 36960, Note_on_c, 0, 49, 0
2, 36960, Note_on_c, 0, 69, 82
2, 36960, Note_on_c, 0, 37, 67
2, 37035, Note_on_c, 0, 71, 0
2, 37200, Note_on_c, 0, 68, 78
2, 37275, Note_on_c, 0, 69, 0
2, 37440, Note_on_c, 0, 37, 0
2, 37440, Note_on_c, 0, 77, 0
2, 37440, Note_on_c, 0, 68, 0
2, 37440, Note_on_c, 0, 78, 83
2, 37440, Note_on_c, 0, 66, 83
2, 37440, Note_on_c, 0, 50, 54
2, 37440, Note_on_c, 0, 38, 52
2, 37560, Note_on_c, 0, 38, 0
2, 37560, Note_on_c, 0, 78, 0
2, 37560, Note_on_c, 0, 66, 0
2, 37560, Note_on_c, 0, 50, 0
2, 37920, Note_on_c, 0, 77, 81
2, 37920, Note_on_c, 0, 68, 83
2, 37920, Note_on_c, 0, 49, 59
2, 37920, Note_on_c, 0, 37, 58
2, 38160, Note_on_c, 0, 71, 90
2, 38265, Note_on_c, 0, 68, 0
2, 38400, Note_on_c, 0, 69, 83
2, 38505, Note_on_c, 0, 71, 0
2, 38640, Note_on_c, 0, 68, 77
2, 38745, Note_on_c, 0, 69, 0
2, 38880, Note_on_c, 0, 37, 0
2, 38880, Note_on_c, 0, 77, 0
2, 38880, Note_on_c, 0, 49, 0
2, 38880, Note_on_c, 0, 68, 0
2, 38880, Note_on_c, 0, 78, 87
2, 38880, Note_on_c, 0, 66, 87
2, 38880, Note_on_c, 0, 50, 53
2, 38880, Note_on_c, 0, 38, 58
2, 39000, Note_on_c, 0, 38, 0
2, 39000, Note_on_c, 0, 78, 0
2, 39000, Note_on_c, 0, 66, 0
2, 39000, Note_on_c, 0, 50, 0
2, 39360, Note_on_c, 0, 77, 80
2, 39360, Note_on_c, 0, 68, 81
2, 39360, Note_on_c, 0, 49, 57
2, 39360, Note_on_c, 0, 37, 54
2, 39600, Note_on_c, 0, 71, 87
2, 39705, Note_on_c, 0, 68, 0
2, 39840, Note_on_c, 0, 69, 79
2, 39945, Note_on_c, 0, 71, 0
2, 40080, Note_on_c, 0, 68, 76
2, 40185, Note_on_c, 0, 69, 0
2, 40320, Note_on_c, 0, 37, 0
2, 40320, Note_on_c, 0, 77, 0
2, 40320, Note_on_c, 0, 49, 0
2, 40320, Note_on_c, 0, 68, 0
2, 40320, Note_on_c, 0, 66, 84
2, 40320, Note_on_c, 0, 78, 84
2, 40320, Note_on_c, 0, 50, 53
2, 40320, Note_on_c, 0, 38, 54
2, 40440, Note_on_c, 0, 38, 0
2, 40440, Note_on_c, 0, 66, 0
2, 40440, Note_on_c, 0, 78, 0
2, 40440, Note_on_c, 0, 50, 0
2, 40800, Note_on_c, 0, 68, 69
2, 40800, Note_on_c, 0, 59, 67
2, 40920, Note_on_c, 0, 59, 0
2, 41040, Note_on_c, 0, 71, 65
2, 41145, Note_on_c, 0, 68, 0
2, 41280, Note_on_c, 0, 70, 72
2, 41280, Note_on_c, 0, 61, 71
2, 41385, Note_on_c, 0, 71, 0
2, 41400, Note_on_c, 0, 61, 0
2, 41520, Note_on_c, 0, 73, 67
2, 41625, Note_on_c, 0, 70, 0
2, 41760, Note_on_c, 0, 71, 80
2, 41760, Note_on_c, 0, 62, 79
2, 41865, Note_on_c, 0, 73, 0
2, 41880, Note_on_c, 0, 62, 0
2, 42000, Note_on_c, 0, 74, 72
2, 42105, Note_on_c, 0, 71, 0
2, 42240, Note_on_c, 0, 73, 79
2, 42240, Note_on_c, 0, 65, 80
2, 42345, Note_on_c, 0, 74, 0
2, 42360, Note_on_c, 0, 65, 0
2, 42480, Note_on_c, 0, 71, 73
2, 42585, Note_on_c, 0, 73, 0
2, 42720, Note_on_c, 0, 69, 83
2, 42720, Note_on_c, 0, 66, 82
2, 42825, Note_on_c, 0, 71, 0
2, 42840, Note_on_c, 0, 66, 0
2, 42960, Note_on_c, 0, 66, 82
2, 43065, Note_on_c, 0, 69, 0
2, 43200, Note_on_c, 0, 66, 0
2, 43200, Note_on_c, 0, 59, 69
2, 43200, Note_on_c, 0, 68, 74
2, 43200, Note_on_c, 0, 47, 84
2, 43320, Note_on_c, 0, 47, 0
2, 43440, Note_on_c, 0, 62, 59
2, 43500, Note_on_c, 0, 68, 0
2, 43500, Note_on_c, 0, 59, 0
2, 43680, Note_on_c, 0, 62, 0
2, 43680, Note_on_c, 0, 66, 72
2, 43680, Note_on_c, 0, 57, 67
2, 43680, Note_on_c, 0, 49, 74
2, 43800, Note_on_c, 0, 49, 0
2, 43920, Note_on_c, 0, 61, 56
2, 43980, Note_on_c, 0, 57, 0
2, 43980, Note_on_c, 0, 66, 0
2, 44160, Note_on_c, 0, 61, 0
2, 44160, Note_on_c, 0, 65, 71
2, 44160, Note_on_c, 0, 56, 66
2, 44160, Note_on_c, 0, 37, 73
2, 44280, Note_on_c, 0, 37, 0
2, 44400, Note_on_c, 0, 61, 53
2, 44460, Note_on_c, 0, 56, 0
2, 44460, Note_on_c, 0, 65, 0
2, 44640, Note_on_c, 0, 61, 0
2, 44640, Note_on_c, 0, 66, 71
2, 44640, Note_on_c, 0, 57, 66
2, 44640, Note_on_c, 0, 42, 78
2, 44760, Note_on_c, 0, 42, 0
2, 44880, Note_on_c, 0, 61, 50
2, 44940, Note_on_c, 0, 57, 0
2, 44940, Note_on_c, 0, 66, 0
2, 45120, Note_on_c, 0, 61, 0
2, 45120, Note_on_c, 0, 30, 72
2, 45240, Note_on_c, 0, 30, 0
2, 45600, Note_on_c, 0, 66, 75
2, 46080, Note_on_c, 0, 42, 73
2, 46560, Note_on_c, 0, 42, 0
2, 46560, Note_on_c, 0, 73, 86
2, 46725, Note_on_c, 0, 66, 0
2, 46800, Note_on_c, 0, 73, 0
2, 47040, Note_on_c, 0, 71, 75
2, 47040, Note_on_c, 0, 54, 79
2, 47520, Note_on_c, 0, 70, 83
2, 47685, Note_on_c, 0, 71, 0
2, 48000, Note_on_c, 0, 76, 86
2, 48000, Note_on_c, 0, 61, 81
2, 48120, Note_on_c, 0, 54, 0
2, 48165, Note_on_c, 0, 70, 0
2, 48240, Note_on_c, 0, 76, 0
2, 48240, Note_on_c, 0, 61, 0
2, 48480, Note_on_c, 0, 74, 80
2, 48480, Note_on_c, 0, 59, 81
2, 48480, Note_on_c, 0, 54, 77
2, 48960, Note_on_c, 0, 73, 74
2, 48960, Note_on_c, 0, 58, 72
2, 49080, Note_on_c, 0, 59, 0
2, 49125, Note_on_c, 0, 74, 0
2, 49440, Note_on_c, 0, 79, 86
2, 49440, Note_on_c, 0, 64, 82
2, 49560, Note_on_c, 0, 58, 0
2, 49605, Note_on_c, 0, 73, 0
2, 49680, Note_on_c, 0, 79, 0
2, 49680, Note_on_c, 0, 64, 0
2, 49920, Note_on_c, 0, 54, 0
2, 49920, Note_on_c, 0, 78, 84
2, 49920, Note_on_c, 0, 62, 75
2, 49920, Note_on_c, 0, 54, 71
2, 50400, Note_on_c, 0, 54, 0
2, 50400, Note_on_c, 0, 76, 80
2, 50400, Note_on_c, 0, 61, 72
2, 50400, Note_on_c, 0, 54, 79
2, 50520, Note_on_c, 0, 62, 0
2, 50565, Note_on_c, 0, 78, 0
2, 50760, Note_on_c, 0, 61, 0
2, 50880, Note_on_c, 0, 85, 95
2, 50880, Note_on_c, 0, 64, 80
2, 51045, Note_on_c, 0, 76, 0
2, 51120, Note_on_c, 0, 64, 0
2, 51120, Note_on_c, 0, 85, 0
2, 51360, Note_on_c, 0, 83, 79
2, 51360, Note_on_c, 0, 74, 79
2, 51360, Note_on_c, 0, 65, 78
2, 51600, Note_on_c, 0, 65, 0
2, 51840, Note_on_c, 0, 54, 0
2, 51840, Note_on_c, 0, 83, 0
2, 51840, Note_on_c, 0, 74, 0
2, 51840, Note_on_c, 0, 82, 90
2, 51840, Note_on_c, 0, 78, 90
2, 51840, Note_on_c, 0, 66, 82
2, 51840, Note_on_c, 0, 54, 82
2, 51960, Note_on_c, 0, 54, 0
2, 51960, Note_on_c, 0, 66, 0
2, 52080, Note_on_c, 0, 82, 0
2, 52080, Note_on_c, 0, 77, 77
2, 52185, Note_on_c, 0, 78, 0
2, 52320, Note_on_c, 0, 76, 78
2, 52320, Note_on_c, 0, 42, 79
2, 52425, Note_on_c, 0, 77, 0
2, 52440, Note_on_c, 0, 42, 0
2, 52560, Note_on_c, 0, 75, 70
2, 52665, Note_on_c, 0, 76, 0
2, 52800, Note_on_c, 0, 74, 72
2, 52800, Note_on_c, 0, 49, 79
2, 52905, Note_on_c, 0, 75, 0
2, 52920, Note_on_c, 0, 49, 0
2, 53040, Note_on_c, 0, 73, 67
2, 53145, Note_on_c, 0, 74, 0
2, 53280, Note_on_c, 0, 72, 75
2, 53385, Note_on_c, 0, 73, 0
2, 53520, Note_on_c, 0, 71, 66
2, 53625, Note_on_c, 0, 72, 0
2, 53760, Note_on_c, 0, 70, 71
2, 53760, Note_on_c, 0, 43, 72
2, 53865, Note_on_c, 0, 71, 0
2, 53880, Note_on_c, 0, 43, 0
2, 54000, Note_on_c, 0, 69, 63
2, 54105, Note_on_c, 0, 70, 0
2, 54240, Note_on_c, 0, 68, 68
2, 54240, Note_on_c, 0, 49, 73
2, 54345, Note_on_c, 0, 69, 0
2, 54360, Note_on_c, 0, 49, 0
2, 54480, Note_on_c, 0, 67, 60
2, 54585, Note_on_c, 0, 68, 0
2, 54720, Note_on_c, 0, 66, 69
2, 54825, Note_on_c, 0, 67, 0
2, 54960, Note_on_c, 0, 65, 57
2, 55065, Note_on_c, 0, 66, 0
2, 55200, Note_on_c, 0, 64, 62
2, 55200, Note_on_c, 0, 44, 75
2, 55305, Note_on_c, 0, 65, 0
2, 55320, Note_on_c, 0, 44, 0
2, 55440, Note_on_c, 0, 63, 56
2, 55545, Note_on_c, 0, 64, 0
2, 55680, Note_on_c, 0, 62, 58
2, 55680, Note_on_c, 0, 49, 74
2, 55785, Note_on_c, 0, 63, 0
2, 55800, Note_on_c, 0, 49, 0
2, 55920, Note_on_c, 0, 61, 50
2, 56025, Note_on_c, 0, 62, 0
2, 56160, Note_on_c, 0, 60, 60
2, 56160, Note_on_c, 0, 45, 60
2, 56265, Note_on_c, 0, 61, 0
2, 56400, Note_on_c, 0, 45, 0
2, 56400, Note_on_c, 0, 59, 47
2, 56505, Note_on_c, 0, 60, 0
2, 56640, Note_on_c, 0, 58, 52
2, 56640, Note_on_c, 0, 49, 60
2, 56745, Note_on_c, 0, 59, 0
2, 56880, Note_on_c, 0, 49, 0
2, 56880, Note_on_c, 0, 57, 46
2, 56985, Note_on_c, 0, 58, 0
2, 57120, Note_on_c, 0, 56, 49
2, 57120, Note_on_c, 0, 46, 58
2, 57225, Note_on_c, 0, 57, 0
2, 57360, Note_on_c, 0, 46, 0
2, 57360, Note_on_c, 0, 55, 43
2, 57465, Note_on_c, 0, 56, 0
2, 57600, Note_on_c, 0, 55, 0
2, 57600, Note_on_c, 0, 54, 55
2, 57600, Note_on_c, 0, 35, 58
2, 57600, Note_on_c, 0, 47, 58
2, 58080, Note_on_c, 0, 47, 0
2, 58080, Note_on_c, 0, 35, 0
2, 58080, Note_on_c, 0, 59, 57
2, 58245, Note_on_c, 0, 54, 0
2, 58320, Note_on_c, 0, 59, 0
2, 58560, Note_on_c, 0, 61, 53
2, 58560, Note_on_c, 0, 66, 56
2, 58560, Note_on_c, 0, 58, 56
2, 58680, Note_on_c, 0, 58, 0
2, 58680, Note_on_c, 0, 66, 0
2, 58680, Note_on_c, 0, 61, 0
2, 59040, Note_on_c, 0, 54, 70
2, 59040, Note_on_c, 0, 47, 70
2, 59520, Note_on_c, 0, 66, 57
2, 59520, Note_on_c, 0, 62, 57
2, 59640, Note_on_c, 0, 62, 0
2, 59640, Note_on_c, 0, 66, 0
2, 60000, Note_on_c, 0, 47, 0
2, 60000, Note_on_c, 0, 54, 0
2, 60000, Note_on_c, 0, 66, 55
2, 60000, Note_on_c, 0, 62, 55
2, 60000, Note_on_c, 0, 56, 56
2, 60120, Note_on_c, 0, 62, 0
2, 60120, Note_on_c, 0, 66, 0
2, 60240, Note_on_c, 0, 58, 62
2, 60315, Note_on_c, 0, 56, 0
2, 60480, Note_on_c, 0, 59, 68
2, 60555, Note_on_c, 0, 58, 0
2, 60720, Note_on_c, 0, 61, 58
2, 60795, Note_on_c, 0, 59, 0
2, 60960, Note_on_c, 0, 61, 0
2, 60960, Note_on_c, 0, 71, 62
2, 60960, Note_on_c, 0, 66, 62
2, 60960, Note_on_c, 0, 62, 74
2, 61080, Note_on_c, 0, 62, 0
2, 61080, Note_on_c, 0, 66, 0
2, 61080, Note_on_c, 0, 71, 0
2, 61440, Note_on_c, 0, 69, 64
2, 61440, Note_on_c, 0, 64, 64
2, 61440, Note_on_c, 0, 61, 67
2, 61560, Note_on_c, 0, 61, 0
2, 61560, Note_on_c, 0, 64, 0
2, 61560, Note_on_c, 0, 69, 0
2, 61920, Note_on_c, 0, 57, 80
2, 62400, Note_on_c, 0, 69, 55
2, 62400, Note_on_c, 0, 67, 63
2, 62520, Note_on_c, 0, 67, 0
2, 62520, Note_on_c, 0, 69, 0
2, 62880, Note_on_c, 0, 57, 0
2, 62880, Note_on_c, 0, 69, 66
2, 62880, Note_on_c, 0, 67, 66
2, 62880, Note_on_c, 0, 59, 70
2, 63000, Note_on_c, 0, 67, 0
2, 63000, Note_on_c, 0, 69, 0
2, 63120, Note_on_c, 0, 61, 74
2, 63195, Note_on_c, 0, 59, 0
2, 63360, Note_on_c, 0, 62, 84
2, 63435, Note_on_c, 0, 61, 0
2, 63600, Note_on_c, 0, 64, 81
2, 63675, Note_on_c, 0, 62, 0
2, 63840, Note_on_c, 0, 66, 87
2, 63915, Note_on_c, 0, 64, 0
2, 64320, Note_on_c, 0, 66, 0
2, 64320, Note_on_c, 0, 73, 78
2, 64320, Note_on_c, 0, 70, 78
2, 64320, Note_on_c, 0, 64, 80
2, 64440, Note_on_c, 0, 64, 0
2, 64440, Note_on_c, 0, 70, 0
2, 64440, Note_on_c, 0, 73, 0
2, 64800, Note_on_c, 0, 70, 80
2, 64800, Note_on_c, 0, 73, 80
2, 64800, Note_on_c, 0, 64, 81
2, 64960, Note_on_c, 0, 66, 90
2, 65040, Note_on_c, 0, 64, 0
2, 65120, Note_on_c, 0, 64, 76
2, 65205, Note_on_c, 0, 66, 0
2, 65280, Note_on_c, 0, 78, 73
2, 65280, Note_on_c, 0, 71, 73
2, 65280, Note_on_c, 0, 62, 82
2, 65355, Note_on_c, 0, 64, 0
2, 65400, Note_on_c, 0, 70, 0
2, 65400, Note_on_c, 0, 73, 0
2, 65520, Note_on_c, 0, 78, 0
2, 65520, Note_on_c, 0, 71, 0
2, 65520, Note_on_c, 0, 62, 0
2, 65760, Note_on_c, 0, 66, 73
2, 65760, Note_on_c, 0, 69, 73
2, 65760, Note_on_c, 0, 76, 73
2, 65760, Note_on_c, 0, 61, 69
2, 65880, Note_on_c, 0, 61, 0
2, 65880, Note_on_c, 0, 66, 0
2, 65880, Note_on_c, 0, 69, 0
2, 65880, Note_on_c, 0, 76, 0
2, 66240, Note_on_c, 0, 76, 75
2, 66240, Note_on_c, 0, 66, 75
2, 66240, Note_on_c, 0, 70, 75
2, 66240, Note_on_c, 0, 61, 68
2, 66400, Note_on_c, 0, 62, 74
2, 66480, Note_on_c, 0, 61, 0
2, 66560, Note_on_c, 0, 61, 67
2, 66645, Note_on_c, 0, 62, 0
2, 66720, Note_on_c, 0, 66, 0
2, 66720, Note_on_c, 0, 74, 67
2, 66720, Note_on_c, 0, 71, 67
2, 66720, Note_on_c, 0, 66, 67
2, 66720, Note_on_c, 0, 59, 66
2, 66795, Note_on_c, 0, 61, 0
2, 66840, Note_on_c, 0, 76, 0
2, 66840, Note_on_c, 0, 70, 0
2, 66960, Note_on_c, 0, 71, 0
2, 66960, Note_on_c, 0, 74, 0
2, 66960, Note_on_c, 0, 66, 0
2, 66960, Note_on_c, 0, 59, 0
2, 67200, Note_on_c, 0, 72, 53
2, 67200, Note_on_c, 0, 66, 53
2, 67200, Note_on_c, 0, 63, 53
2, 67200, Note_on_c, 0, 57, 70
2, 67320, Note_on_c, 0, 57, 0
2, 67320, Note_on_c, 0, 72, 0
2, 67320, Note_on_c, 0, 66, 0
2, 67320, Note_on_c, 0, 63, 0
2, 67680, Note_on_c, 0, 72, 59
2, 67680, Note_on_c, 0, 66, 59
2, 67680, Note_on_c, 0, 63, 59
2, 67680, Note_on_c, 0, 57, 62
2, 67840, Note_on_c, 0, 59, 69
2, 67920, Note_on_c, 0, 57, 0
2, 68000, Note_on_c, 0, 57, 59
2, 68085, Note_on_c, 0, 59, 0
2, 68160, Note_on_c, 0, 63, 0
2, 68160, Note_on_c, 0, 71, 53
2, 68160, Note_on_c, 0, 67, 53
2, 68160, Note_on_c, 0, 63, 53
2, 68160, Note_on_c, 0, 55, 56
2, 68235, Note_on_c, 0, 57, 0
2, 68280, Note_on_c, 0, 72, 0
2, 68280, Note_on_c, 0, 66, 0
2, 68400, Note_on_c, 0, 67, 0
2, 68400, Note_on_c, 0, 71, 0
2, 68400, Note_on_c, 0, 63, 0
2, 68400, Note_on_c, 0, 55, 0
2, 68640, Note_on_c, 0, 71, 49
2, 68640, Note_on_c, 0, 69, 49
2, 68640, Note_on_c, 0, 63, 49
2, 68640, Note_on_c, 0, 54, 58
2, 68760, Note_on_c, 0, 54, 0
2, 68760, Note_on_c, 0, 71, 0
2, 68760, Note_on_c, 0, 69, 0
2, 68760, Note_on_c, 0, 63, 0
2, 69120, Note_on_c, 0, 71, 71
2, 69120, Note_on_c, 0, 67, 70
2, 69120, Note_on_c, 0, 64, 70
2, 69120, Note_on_c, 0, 52, 69
2, 69120, Note_on_c, 0, 40, 69
2, 69600, Note_on_c, 0, 40, 0
2, 69600, Note_on_c, 0, 64, 0
2, 69600, Note_on_c, 0, 52, 0
2, 69600, Note_on_c, 0, 67, 0
2, 69600, Note_on_c, 0, 76, 70
2, 69720, Note_on_c, 0, 71, 0
2, 69840, Note_on_c, 0, 76, 0
2, 70080, Note_on_c, 0, 75, 72
2, 70080, Note_on_c, 0, 69, 62
2, 70080, Note_on_c, 0, 63, 62
2, 70080, Note_on_c, 0, 54, 56
2, 70080, Note_on_c, 0, 42, 60
2, 70200, Note_on_c, 0, 42, 0
2, 70200, Note_on_c, 0, 54, 0
2, 70320, Note_on_c, 0, 75, 0
2, 70320, Note_on_c, 0, 69, 0
2, 70320, Note_on_c, 0, 63, 0
2, 70560, Note_on_c, 0, 71, 80
2, 70560, Note_on_c, 0, 55, 69
2, 70560, Note_on_c, 0, 43, 69
2, 71040, Note_on_c, 0, 43, 0
2, 71040, Note_on_c, 0, 55, 0
2, 71040, Note_on_c, 0, 64, 61
2, 71040, Note_on_c, 0, 59, 61
2, 71280, Note_on_c, 0, 59, 0
2, 71280, Note_on_c, 0, 64, 0
2, 71520, Note_on_c, 0, 73, 74
2, 71520, Note_on_c, 0, 54, 58
2, 71520, Note_on_c, 0, 42, 60
2, 71640, Note_on_c, 0, 42, 0
2, 71640, Note_on_c, 0, 54, 0
2, 71640, Note_on_c, 0, 71, 0
2, 71760, Note_on_c, 0, 75, 74
2, 71880, Note_on_c, 0, 73, 0
2, 72000, Note_on_c, 0, 76, 83
2, 72000, Note_on_c, 0, 52, 71
2, 72000, Note_on_c, 0, 40, 71
2, 72120, Note_on_c, 0, 40, 0
2, 72120, Note_on_c, 0, 52, 0
2, 72120, Note_on_c, 0, 75, 0
2, 72240, Note_on_c, 0, 78, 83
2, 72360, Note_on_c, 0, 76, 0
2, 72480, Note_on_c, 0, 79, 90
2, 72600, Note_on_c, 0, 78, 0
2, 72720, Note_on_c, 0, 79, 0
2, 72960, Note_on_c, 0, 78, 78
2, 72960, Note_on_c, 0, 72, 65
2, 72960, Note_on_c, 0, 66, 65
2, 72960, Note_on_c, 0, 38, 67
2, 72960, Note_on_c, 0, 50, 67
2, 73080, Note_on_c, 0, 50, 0
2, 73080, Note_on_c, 0, 66, 0
2, 73080, Note_on_c, 0, 78, 0
2, 73080, Note_on_c, 0, 72, 0
2, 73080, Note_on_c, 0, 38, 0
2, 73440, Note_on_c, 0, 74, 82
2, 73440, Note_on_c, 0, 57, 77
2, 73440, Note_on_c, 0, 45, 77
2, 73920, Note_on_c, 0, 72, 67
2, 73920, Note_on_c, 0, 62, 67
2, 73920, Note_on_c, 0, 66, 67
2, 74160, Note_on_c, 0, 66, 0
2, 74160, Note_on_c, 0, 72, 0
2, 74160, Note_on_c, 0, 62, 0
2, 74400, Note_on_c, 0, 57, 0
2, 74400, Note_on_c, 0, 45, 0
2, 74400, Note_on_c, 0, 76, 79
2, 74520, Note_on_c, 0, 74, 0
2, 74640, Note_on_c, 0, 78, 75
2, 74760, Note_on_c, 0, 76, 0
2, 74880, Note_on_c, 0, 79, 85
2, 74880, Note_on_c, 0, 43, 82
2, 75000, Note_on_c, 0, 78, 0
2, 75120, Note_on_c, 0, 81, 78
2, 75240, Note_on_c, 0, 79, 0
2, 75360, Note_on_c, 0, 43, 0
2, 75360, Note_on_c, 0, 83, 83
2, 75360, Note_on_c, 0, 74, 72
2, 75360, Note_on_c, 0, 67, 74
2, 75480, Note_on_c, 0, 81, 0
2, 75840, Note_on_c, 0, 83, 0
2, 75840, Note_on_c, 0, 74, 0
2, 75840, Note_on_c, 0, 81, 75
2, 75840, Note_on_c, 0, 75, 75
2, 75840, Note_on_c, 0, 66, 71
2, 75975, Note_on_c, 0, 67, 0
2, 76320, Note_on_c, 0, 75, 0
2, 76320, Note_on_c, 0, 76, 78
2, 76320, Note_on_c, 0, 64, 77
2, 76455, Note_on_c, 0, 66, 0
2, 76480, Note_on_c, 0, 83, 82
2, 76560, Note_on_c, 0, 64, 0
2, 76560, Note_on_c, 0, 76, 0
2, 76605, Note_on_c, 0, 81, 0
2, 76640, Note_on_c, 0, 81, 78
2, 76755, Note_on_c, 0, 83, 0
2, 76800, Note_on_c, 0, 79, 75
2, 76920, Note_on_c, 0, 81, 0
2, 77160, Note_on_c, 0, 79, 0
2, 77280, Note_on_c, 0, 78, 55
2, 77280, Note_on_c, 0, 71, 56
2, 77280, Note_on_c, 0, 66, 49
2, 77280, Note_on_c, 0, 62, 49
2, 77760, Note_on_c, 0, 67, 54
2, 77760, Note_on_c, 0, 61, 54
2, 77895, Note_on_c, 0, 62, 0
2, 77895, Note_on_c, 0, 66, 0
2, 77920, Note_on_c, 0, 79, 70
2, 78000, Note_on_c, 0, 67, 0
2, 78000, Note_on_c, 0, 61, 0
2, 78045, Note_on_c, 0, 78, 0
2, 78080, Note_on_c, 0, 78, 64
2, 78195, Note_on_c, 0, 79, 0
2, 78240, Note_on_c, 0, 76, 60
2, 78360, Note_on_c, 0, 78, 0
2, 78480, Note_on_c, 0, 76, 0
2, 78480, Note_on_c, 0, 71, 0
2, 78720, Note_on_c, 0, 64, 79
2, 78720, Note_on_c, 0, 66, 79
2, 78720, Note_on_c, 0, 70, 79
2, 78720, Note_on_c, 0, 54, 74
2, 78720, Note_on_c, 0, 42, 74
2, 78840, Note_on_c, 0, 42, 0
2, 78840, Note_on_c, 0, 70, 0
2, 78840, Note_on_c, 0, 64, 0
2, 78840, Note_on_c, 0, 66, 0
2, 78840, Note_on_c, 0, 54, 0
2, 79200, Note_on_c, 0, 66, 85
2, 79200, Note_on_c, 0, 71, 85
2, 79200, Note_on_c, 0, 62, 85
2, 79200, Note_on_c, 0, 59, 81
2, 79200, Note_on_c, 0, 47, 81
2, 79440, Note_on_c, 0, 47, 0
2, 79440, Note_on_c, 0, 62, 0
2, 79440, Note_on_c, 0, 66, 0
2, 79440, Note_on_c, 0, 71, 0
2, 79440, Note_on_c, 0, 59, 0
2, 79680, Note_on_c, 0, 35, 75
2, 79680, Note_on_c, 0, 47, 75
2, 79920, Note_on_c, 0, 47, 0
2, 79920, Note_on_c, 0, 35, 0
2, 80160, Note_on_c, 0, 78, 80
2, 80640, Note_on_c, 0, 73, 74
2, 81120, Note_on_c, 0, 78, 0
2, 81120, Note_on_c, 0, 85, 84
2, 81120, Note_on_c, 0, 69, 72
2, 81600, Note_on_c, 0, 83, 79
2, 81600, Note_on_c, 0, 74, 68
2, 81600, Note_on_c, 0, 71, 72
2, 81675, Note_on_c, 0, 73, 0
2, 81720, Note_on_c, 0, 69, 0
2, 81765, Note_on_c, 0, 85, 0
2, 82080, Note_on_c, 0, 80, 75
2, 82080, Note_on_c, 0, 78, 77
2, 82080, Note_on_c, 0, 73, 79
2, 82155, Note_on_c, 0, 74, 0
2, 82200, Note_on_c, 0, 71, 0
2, 82245, Note_on_c, 0, 83, 0
2, 82560, Note_on_c, 0, 76, 68
2, 82635, Note_on_c, 0, 78, 0
2, 82800, Note_on_c, 0, 74, 62
2, 82875, Note_on_c, 0, 76, 0
2, 83040, Note_on_c, 0, 73, 73
2, 83040, Note_on_c, 0, 61, 54
2, 83115, Note_on_c, 0, 74, 0
2, 83280, Note_on_c, 0, 61, 0
2, 83280, Note_on_c, 0, 74, 63
2, 83355, Note_on_c, 0, 73, 0
2, 83520, Note_on_c, 0, 76, 71
2, 83595, Note_on_c, 0, 74, 0
2, 84000, Note_on_c, 0, 73, 0
2, 84000, Note_on_c, 0, 80, 0
2, 84000, Note_on_c, 0, 83, 69
2, 84000, Note_on_c, 0, 68, 69
2, 84480, Note_on_c, 0, 81, 62
2, 84480, Note_on_c, 0, 69, 74
2, 84480, Note_on_c, 0, 59, 60
2, 84600, Note_on_c, 0, 68, 0
2, 84645, Note_on_c, 0, 83, 0
2, 84720, Note_on_c, 0, 59, 0
2, 84900, Note_on_c, 0, 76, 0
2, 84960, Note_on_c, 0, 78, 58
2, 84960, Note_on_c, 0, 76, 67
2, 84960, Note_on_c, 0, 71, 79
2, 85080, Note_on_c, 0, 69, 0
2, 85125, Note_on_c, 0, 81, 0
2, 85440, Note_on_c, 0, 74, 64
2, 85515, Note_on_c, 0, 76, 0
2, 85680, Note_on_c, 0, 73, 60
2, 85755, Note_on_c, 0, 74, 0
2, 85920, Note_on_c, 0, 71, 71
2, 85995, Note_on_c, 0, 73, 0
2, 86160, Note_on_c, 0, 73, 60
2, 86235, Note_on_c, 0, 71, 0
2, 86400, Note_on_c, 0, 74, 66
2, 86475, Note_on_c, 0, 73, 0
2, 86880, Note_on_c, 0, 71, 0
2, 86880, Note_on_c, 0, 78, 0
2, 86880, Note_on_c, 0, 81, 70
2, 86880, Note_on_c, 0, 57, 66
2, 87360, Note_on_c, 0, 80, 64
2, 87360, Note_on_c, 0, 59, 62
2, 87480, Note_on_c, 0, 57, 0
2, 87525, Note_on_c, 0, 81, 0
2, 87795, Note_on_c, 0, 74, 0
2, 87840, Note_on_c, 0, 77, 72
2, 87840, Note_on_c, 0, 74, 71
2, 87840, Note_on_c, 0, 61, 70
2, 87960, Note_on_c, 0, 59, 0
2, 88005, Note_on_c, 0, 80, 0
2, 88320, Note_on_c, 0, 73, 70
2, 88395, Note_on_c, 0, 74, 0
2, 88560, Note_on_c, 0, 71, 67
2, 88635, Note_on_c, 0, 73, 0
2, 88800, Note_on_c, 0, 61, 0
2, 88800, Note_on_c, 0, 69, 71
2, 88800, Note_on_c, 0, 49, 71
2, 88875, Note_on_c, 0, 71, 0
2, 89040, Note_on_c, 0, 68, 66
2, 89115, Note_on_c, 0, 69, 0
2, 89280, Note_on_c, 0, 77, 0
2, 89280, Note_on_c, 0, 68, 0
2, 89280, Note_on_c, 0, 66, 82
2, 89280, Note_on_c, 0, 50, 78
2, 89400, Note_on_c, 0, 49, 0
2, 89520, Note_on_c, 0, 78, 79
2, 89595, Note_on_c, 0, 66, 0
2, 89760, Note_on_c, 0, 81, 86
2, 89835, Note_on_c, 0, 78, 0
2, 90000, Note_on_c, 0, 81, 0
2, 90240, Note_on_c, 0, 50, 0
2, 90240, Note_on_c, 0, 71, 75
2, 90240, Note_on_c, 0, 80, 75
2, 90240, Note_on_c, 0, 47, 69
2, 90720, Note_on_c, 0, 80, 0
2, 90720, Note_on_c, 0, 71, 0
2, 90720, Note_on_c, 0, 77, 80
2, 90720, Note_on_c, 0, 74, 85
2, 90720, Note_on_c, 0, 49, 77
2, 90840, Note_on_c, 0, 47, 0
2, 91200, Note_on_c, 0, 73, 82
2, 91275, Note_on_c, 0, 74, 0
2, 91440, Note_on_c, 0, 71, 76
2, 91515, Note_on_c, 0, 73, 0
2, 91680, Note_on_c, 0, 49, 0
2, 91680, Note_on_c, 0, 69, 82
2, 91680, Note_on_c, 0, 37, 67
2, 91755, Note_on_c, 0, 71, 0
2, 91920, Note_on_c, 0, 68, 78
2, 91995, Note_on_c, 0, 69, 0
2, 92160, Note_on_c, 0, 37, 0
2, 92160, Note_on_c, 0, 77, 0
2, 92160, Note_on_c, 0, 68, 0
2, 92160, Note_on_c, 0, 66, 83
2, 92160, Note_on_c, 0, 78, 83
2, 92160, Note_on_c, 0, 50, 54
2, 92160, Note_on_c, 0, 38, 52
2, 92280, Note_on_c, 0, 38, 0
2, 92280, Note_on_c, 0, 66, 0
2, 92280, Note_on_c, 0, 78, 0
2, 92280, Note_on_c, 0, 50, 0
2, 92640, Note_on_c, 0, 77, 81
2, 92640, Note_on_c, 0, 68, 83
2, 92640, Note_on_c, 0, 49, 59
2, 92640, Note_on_c, 0, 37, 58
2, 92880, Note_on_c, 0, 71, 77
2, 92985, Note_on_c, 0, 68, 0
2, 93120, Note_on_c, 0, 69, 83
2, 93225, Note_on_c, 0, 71, 0
2, 93360, Note_on_c, 0, 68, 77
2, 93465, Note_on_c, 0, 69, 0
2, 93600, Note_on_c, 0, 37, 0
2, 93600, Note_on_c, 0, 77, 0
2, 93600, Note_on_c, 0, 49, 0
2, 93600, Note_on_c, 0, 68, 0
2, 93600, Note_on_c, 0, 66, 87
2, 93600, Note_on_c, 0, 78, 87
2, 93600, Note_on_c, 0, 50, 53
2, 93600, Note_on_c, 0, 38, 58
2, 93720, Note_on_c, 0, 38, 0
2, 93720, Note_on_c, 0, 66, 0
2, 93720, Note_on_c, 0, 78, 0
2, 93720, Note_on_c, 0, 50, 0
2, 94080, Note_on_c, 0, 77, 80
2, 94080, Note_on_c, 0, 68, 81
2, 94080, Note_on_c, 0, 49, 57
2, 94080, Note_on_c, 0, 37, 54
2, 94320, Note_on_c, 0, 71, 76
2, 94425, Note_on_c, 0, 68, 0
2, 94560, Note_on_c, 0, 69, 79
2, 94665, Note_on_c, 0, 71, 0
2, 94800, Note_on_c, 0, 68, 76
2, 94905, Note_on_c, 0, 69, 0
2, 95040, Note_on_c, 0, 37, 0
2, 95040, Note_on_c, 0, 77, 0
2, 95040, Note_on_c, 0, 49, 0
2, 95040, Note_on_c, 0, 68, 0
2, 95040, Note_on_c, 0, 78, 84
2, 95040, Note_on_c, 0, 66, 84
2, 95040, Note_on_c, 0, 50, 53
2, 95040, Note_on_c, 0, 38, 54
2, 95160, Note_on_c, 0, 38, 0
2, 95160, Note_on_c, 0, 78, 0
2, 95160, Note_on_c, 0, 66, 0
2, 95160, Note_on_c, 0, 50, 0
2, 95520, Note_on_c, 0, 68, 69
2, 95520, Note_on_c, 0, 59, 67
2, 95640, Note_on_c, 0, 59, 0
2, 95760, Note_on_c, 0, 71, 65
2, 95865, Note_on_c, 0, 68, 0
2, 96000, Note_on_c, 0, 70, 72
2, 96000, Note_on_c, 0, 61, 71
2, 96105, Note_on_c, 0, 71, 0
2, 96120, Note_on_c, 0, 61, 0
2, 96240, Note_on_c, 0, 73, 67
2, 96345, Note_on_c, 0, 70, 0
2, 96480, Note_on_c, 0, 71, 80
2, 96480, Note_on_c, 0, 62, 79
2, 96585, Note_on_c, 0, 73, 0
2, 96600, Note_on_c, 0, 62, 0
2, 96720, Note_on_c, 0, 74, 72
2, 96825, Note_on_c, 0, 71, 0
2, 96960, Note_on_c, 0, 73, 79
2, 96960, Note_on_c, 0, 65, 80
2, 97065, Note_on_c, 0, 74, 0
2, 97080, Note_on_c, 0, 65, 0
2, 97200, Note_on_c, 0, 71, 73
2, 97305, Note_on_c, 0, 73, 0
2, 97440, Note_on_c, 0, 69, 83
2, 97440, Note_on_c, 0, 66, 82
2, 97545, Note_on_c, 0, 71, 0
2, 97560, Note_on_c, 0, 66, 0
2, 97680, Note_on_c, 0, 66, 82
2, 97785, Note_on_c, 0, 69, 0
2, 97920, Note_on_c, 0, 66, 0
2, 97920, Note_on_c, 0, 68, 73
2, 97920, Note_on_c, 0, 59, 69
2, 97920, Note_on_c, 0, 47, 84
2, 98160, Note_on_c, 0, 47, 0
2, 98160, Note_on_c, 0, 62, 59
2, 98220, Note_on_c, 0, 59, 0
2, 98220, Note_on_c, 0, 68, 0
2, 98400, Note_on_c, 0, 62, 0
2, 98400, Note_on_c, 0, 57, 67
2, 98400, Note_on_c, 0, 66, 71
2, 98400, Note_on_c, 0, 49, 74
2, 98640, Note_on_c, 0, 49, 0
2, 98640, Note_on_c, 0, 61, 56
2, 98700, Note_on_c, 0, 66, 0
2, 98700, Note_on_c, 0, 57, 0
2, 98880, Note_on_c, 0, 61, 0
2, 98880, Note_on_c, 0, 56, 66
2, 98880, Note_on_c, 0, 65, 70
2, 98880, Note_on_c, 0, 37, 73
2, 99120, Note_on_c, 0, 37, 0
2, 99120, Note_on_c, 0, 61, 53
2, 99180, Note_on_c, 0, 65, 0
2, 99180, Note_on_c, 0, 56, 0
2, 99360, Note_on_c, 0, 61, 0
2, 99360, Note_on_c, 0, 57, 66
2, 99360, Note_on_c, 0, 66, 70
2, 99360, Note_on_c, 0, 42, 78
2, 99600, Note_on_c, 0, 42, 0
2, 99600, Note_on_c, 0, 61, 50
2, 99660, Note_on_c, 0, 66, 0
2, 99660, Note_on_c, 0, 57, 0
2, 99840, Note_on_c, 0, 61, 0
2, 99840, Note_on_c, 0, 30, 72
2, 100080, Note_on_c, 0, 30, 0
2, 100320, Note_on_c, 0, 66, 75
2, 100800, Note_on_c, 0, 42, 73
2, 101280, Note_on_c, 0, 42, 0
2, 101280, Note_on_c, 0, 73, 82
2, 101445, Note_on_c, 0, 66, 0
2, 101520, Note_on_c, 0, 73, 0
2, 101760, Note_on_c, 0, 71, 75
2, 101760, Note_on_c, 0, 54, 79
2, 102240, Note_on_c, 0, 70, 83
2, 102405, Note_on_c, 0, 71, 0
2, 102720, Note_on_c, 0, 76, 86
2, 102720, Note_on_c, 0, 61, 80
2, 102840, Note_on_c, 0, 54, 0
2, 102885, Note_on_c, 0, 70, 0
2, 102960, Note_on_c, 0, 76, 0
2, 102960, Note_on_c, 0, 61, 0
2, 103200, Note_on_c, 0, 74, 80
2, 103200, Note_on_c, 0, 59, 81
2, 103200, Note_on_c, 0, 54, 77
2, 103680, Note_on_c, 0, 73, 74
2, 103680, Note_on_c, 0, 58, 72
2, 103800, Note_on_c, 0, 59, 0
2, 103845, Note_on_c, 0, 74, 0
2, 104160, Note_on_c, 0, 79, 88
2, 104160, Note_on_c, 0, 64, 83
2, 104280, Note_on_c, 0, 58, 0
2, 104325, Note_on_c, 0, 73, 0
2, 104400, Note_on_c, 0, 79, 0
2, 104400, Note_on_c, 0, 64, 0
2, 104640, Note_on_c, 0, 54, 0
2, 104640, Note_on_c, 0, 78, 84
2, 104640, Note_on_c, 0, 62, 77
2, 104640, Note_on_c, 0, 54, 71
2, 105120, Note_on_c, 0, 54, 0
2, 105120, Note_on_c, 0, 76, 80
2, 105120, Note_on_c, 0, 61, 72
2, 105120, Note_on_c, 0, 54, 79
2, 105240, Note_on_c, 0, 62, 0
2, 105285, Note_on_c, 0, 78, 0
2, 105480, Note_on_c, 0, 61, 0
2, 105600, Note_on_c, 0, 85, 94
2, 105600, Note_on_c, 0, 64, 83
2, 105765, Note_on_c, 0, 76, 0
2, 105840, Note_on_c, 0, 64, 0
2, 105840, Note_on_c, 0, 85, 0
2, 106080, Note_on_c, 0, 74, 79
2, 106080, Note_on_c, 0, 83, 79
2, 106080, Note_on_c, 0, 65, 71
2, 106320, Note_on_c, 0, 65, 0
2, 106560, Note_on_c, 0, 54, 0
2, 106560, Note_on_c, 0, 74, 0
2, 106560, Note_on_c, 0, 83, 0
2, 106560, Note_on_c, 0, 82, 90
2, 106560, Note_on_c, 0, 78, 84
2, 106560, Note_on_c, 0, 66, 82
2, 106560, Note_on_c, 0, 54, 82
2, 106800, Note_on_c, 0, 54, 0
2, 106800, Note_on_c, 0, 66, 0
2, 106800, Note_on_c, 0, 82, 0
2, 106800, Note_on_c, 0, 77, 77
2, 106905, Note_on_c, 0, 78, 0
2, 107040, Note_on_c, 0, 76, 78
2, 107040, Note_on_c, 0, 42, 60
2, 107145, Note_on_c, 0, 77, 0
2, 107160, Note_on_c, 0, 42, 0
2, 107280, Note_on_c, 0, 75, 70
2, 107385, Note_on_c, 0, 76, 0
2, 107520, Note_on_c, 0, 74, 72
2, 107520, Note_on_c, 0, 49, 67
2, 107625, Note_on_c, 0, 75, 0
2, 107640, Note_on_c, 0, 49, 0
2, 107760, Note_on_c, 0, 73, 67
2, 107865, Note_on_c, 0, 74, 0
2, 108000, Note_on_c, 0, 72, 75
2, 108105, Note_on_c, 0, 73, 0
2, 108240, Note_on_c, 0, 71, 62
2, 108345, Note_on_c, 0, 72, 0
2, 108480, Note_on_c, 0, 70, 67
2, 108480, Note_on_c, 0, 43, 59
2, 108585, Note_on_c, 0, 71, 0
2, 108600, Note_on_c, 0, 43, 0
2, 108720, Note_on_c, 0, 69, 59
2, 108825, Note_on_c, 0, 70, 0
2, 108960, Note_on_c, 0, 68, 64
2, 108960, Note_on_c, 0, 49, 71
2, 109065, Note_on_c, 0, 69, 0
2, 109080, Note_on_c, 0, 49, 0
2, 109200, Note_on_c, 0, 67, 56
2, 109305, Note_on_c, 0, 68, 0
2, 109440, Note_on_c, 0, 66, 65
2, 109545, Note_on_c, 0, 67, 0
2, 109680, Note_on_c, 0, 65, 53
2, 109785, Note_on_c, 0, 66, 0
2, 109920, Note_on_c, 0, 64, 58
2, 109920, Note_on_c, 0, 44, 61
2, 110025, Note_on_c, 0, 65, 0
2, 110040, Note_on_c, 0, 44, 0
2, 110160, Note_on_c, 0, 63, 52
2, 110265, Note_on_c, 0, 64, 0
2, 110400, Note_on_c, 0, 62, 54
2, 110400, Note_on_c, 0, 49, 68
2, 110505, Note_on_c, 0, 63, 0
2, 110520, Note_on_c, 0, 49, 0
2, 110640, Note_on_c, 0, 61, 46
2, 110745, Note_on_c, 0, 62, 0
2, 110880, Note_on_c, 0, 60, 56
2, 110880, Note_on_c, 0, 45, 58
2, 110985, Note_on_c, 0, 61, 0
2, 111000, Note_on_c, 0, 45, 0
2, 111120, Note_on_c, 0, 59, 43
2, 111225, Note_on_c, 0, 60, 0
2, 111360, Note_on_c, 0, 58, 48
2, 111360, Note_on_c, 0, 49, 60
2, 111465, Note_on_c, 0, 59, 0
2, 111480, Note_on_c, 0, 49, 0
2, 111600, Note_on_c, 0, 57, 42
2, 111705, Note_on_c, 0, 58, 0
2, 111840, Note_on_c, 0, 56, 45
2, 111840, Note_on_c, 0, 46, 53
2, 111945, Note_on_c, 0, 57, 0
2, 111960, Note_on_c, 0, 46, 0
2, 112080, Note_on_c, 0, 55, 39
2, 112185, Note_on_c, 0, 56, 0
2, 112320, Note_on_c, 0, 55, 0
2, 112320, Note_on_c, 0, 54, 52
2, 112320, Note_on_c, 0, 35, 52
2, 112320, Note_on_c, 0, 47, 46
2, 112800, Note_on_c, 0, 47, 0
2, 112800, Note_on_c, 0, 35, 0
2, 112800, Note_on_c, 0, 59, 54
2, 112965, Note_on_c, 0, 54, 0
2, 113040, Note_on_c, 0, 59, 0
2, 113280, Note_on_c, 0, 66, 56
2, 113280, Note_on_c, 0, 61, 53
2, 113280, Note_on_c, 0, 58, 45
2, 113400, Note_on_c, 0, 58, 0
2, 113400, Note_on_c, 0, 61, 0
2, 113400, Note_on_c, 0, 66, 0
2, 113760, Note_on_c, 0, 54, 70
2, 113760, Note_on_c, 0, 47, 70
2, 114240, Note_on_c, 0, 62, 57
2, 114240, Note_on_c, 0, 66, 57
2, 114360, Note_on_c, 0, 66, 0
2, 114360, Note_on_c, 0, 62, 0
2, 114720, Note_on_c, 0, 47, 0
2, 114720, Note_on_c, 0, 54, 0
2, 114720, Note_on_c, 0, 62, 55
2, 114720, Note_on_c, 0, 66, 55
2, 114720, Note_on_c, 0, 56, 56
2, 114840, Note_on_c, 0, 66, 0
2, 114840, Note_on_c, 0, 62, 0
2, 114960, Note_on_c, 0, 58, 62
2, 115035, Note_on_c, 0, 56, 0
2, 115200, Note_on_c, 0, 59, 70
2, 115275, Note_on_c, 0, 58, 0
2, 115440, Note_on_c, 0, 61, 58
2, 115515, Note_on_c, 0, 59, 0
2, 115680, Note_on_c, 0, 61, 0
2, 115680, Note_on_c, 0, 66, 62
2, 115680, Note_on_c, 0, 71, 62
2, 115680, Note_on_c, 0, 62, 73
2, 115800, Note_on_c, 0, 62, 0
2, 115800, Note_on_c, 0, 71, 0
2, 115800, Note_on_c, 0, 66, 0
2, 116160, Note_on_c, 0, 64, 64
2, 116160, Note_on_c, 0, 69, 64
2, 116160, Note_on_c, 0, 61, 72
2, 116280, Note_on_c, 0, 61, 0
2, 116280, Note_on_c, 0, 69, 0
2, 116280, Note_on_c, 0, 64, 0
2, 116640, Note_on_c, 0, 57, 80
2, 117120, Note_on_c, 0, 67, 63
2, 117120, Note_on_c, 0, 69, 55
2, 117240, Note_on_c, 0, 69, 0
2, 117240, Note_on_c, 0, 67, 0
2, 117600, Note_on_c, 0, 57, 0
2, 117600, Note_on_c, 0, 67, 66
2, 117600, Note_on_c, 0, 69, 66
2, 117600, Note_on_c, 0, 59, 70
2, 117720, Note_on_c, 0, 69, 0
2, 117720, Note_on_c, 0, 67, 0
2, 117840, Note_on_c, 0, 61, 74
2, 117915, Note_on_c, 0, 59, 0
2, 118080, Note_on_c, 0, 62, 84
2, 118155, Note_on_c, 0, 61, 0
2, 118320, Note_on_c, 0, 64, 81
2, 118395, Note_on_c, 0, 62, 0
2, 118560, Note_on_c, 0, 66, 87
2, 118635, Note_on_c, 0, 64, 0
2, 119040, Note_on_c, 0, 66, 0
2, 119040, Note_on_c, 0, 70, 78
2, 119040, Note_on_c, 0, 73, 78
2, 119040, Note_on_c, 0, 64, 80
2, 119160, Note_on_c, 0, 64, 0
2, 119160, Note_on_c, 0, 73, 0
2, 119160, Note_on_c, 0, 70, 0
2, 119520, Note_on_c, 0, 73, 80
2, 119520, Note_on_c, 0, 70, 80
2, 119520, Note_on_c, 0, 64, 87
2, 119680, Note_on_c, 0, 66, 93
2, 119760, Note_on_c, 0, 64, 0
2, 119840, Note_on_c, 0, 64, 85
2, 119925, Note_on_c, 0, 66, 0
2, 120000, Note_on_c, 0, 71, 73
2, 120000, Note_on_c, 0, 78, 73
2, 120000, Note_on_c, 0, 62, 82
2, 120075, Note_on_c, 0, 64, 0
2, 120120, Note_on_c, 0, 73, 0
2, 120120, Note_on_c, 0, 70, 0
2, 120240, Note_on_c, 0, 71, 0
2, 120240, Note_on_c, 0, 78, 0
2, 120240, Note_on_c, 0, 62, 0
2, 120480, Note_on_c, 0, 76, 73
2, 120480, Note_on_c, 0, 69, 73
2, 120480, Note_on_c, 0, 66, 73
2, 120480, Note_on_c, 0, 61, 69
2, 120600, Note_on_c, 0, 61, 0
2, 120600, Note_on_c, 0, 76, 0
2, 120600, Note_on_c, 0, 69, 0
2, 120600, Note_on_c, 0, 66, 0
2, 120960, Note_on_c, 0, 70, 75
2, 120960, Note_on_c, 0, 66, 75
2, 120960, Note_on_c, 0, 76, 75
2, 120960, Note_on_c, 0, 61, 68
2, 121120, Note_on_c, 0, 62, 74
2, 121200, Note_on_c, 0, 61, 0
2, 121280, Note_on_c, 0, 61, 67
2, 121365, Note_on_c, 0, 62, 0
2, 121440, Note_on_c, 0, 66, 0
2, 121440, Note_on_c, 0, 66, 67
2, 121440, Note_on_c, 0, 71, 67
2, 121440, Note_on_c, 0, 74, 67
2, 121440, Note_on_c, 0, 59, 66
2, 121515, Note_on_c, 0, 61, 0
2, 121560, Note_on_c, 0, 70, 0
2, 121560, Note_on_c, 0, 76, 0
2, 121680, Note_on_c, 0, 71, 0
2, 121680, Note_on_c, 0, 66, 0
2, 121680, Note_on_c, 0, 74, 0
2, 121680, Note_on_c, 0, 59, 0
2, 121920, Note_on_c, 0, 63, 53
2, 121920, Note_on_c, 0, 66, 53
2, 121920, Note_on_c, 0, 72, 53
2, 121920, Note_on_c, 0, 57, 70
2, 122040, Note_on_c, 0, 57, 0
2, 122040, Note_on_c, 0, 63, 0
2, 122040, Note_on_c, 0, 66, 0
2, 122040, Note_on_c, 0, 72, 0
2, 122400, Note_on_c, 0, 63, 59
2, 122400, Note_on_c, 0, 66, 59
2, 122400, Note_on_c, 0, 72, 59
2, 122400, Note_on_c, 0, 57, 62
2, 122560, Note_on_c, 0, 59, 68
2, 122640, Note_on_c, 0, 57, 0
2, 122720, Note_on_c, 0, 57, 61
2, 122805, Note_on_c, 0, 59, 0
2, 122880, Note_on_c, 0, 63, 0
2, 122880, Note_on_c, 0, 63, 53
2, 122880, Note_on_c, 0, 67, 53
2, 122880, Note_on_c, 0, 71, 53
2, 122880, Note_on_c, 0, 55, 56
2, 122955, Note_on_c, 0, 57, 0
2, 123000, Note_on_c, 0, 66, 0
2, 123000, Note_on_c, 0, 72, 0
2, 123120, Note_on_c, 0, 67, 0
2, 123120, Note_on_c, 0, 63, 0
2, 123120, Note_on_c, 0, 71, 0
2, 123120, Note_on_c, 0, 55, 0
2, 123360, Note_on_c, 0, 63, 49
2, 123360, Note_on_c, 0, 69, 49
2, 123360, Note_on_c, 0, 71, 49
2, 123360, Note_on_c, 0, 54, 58
2, 123480, Note_on_c, 0, 54, 0
2, 123480, Note_on_c, 0, 63, 0
2, 123480, Note_on_c, 0, 69, 0
2, 123480, Note_on_c, 0, 71, 0
2, 123840, Note_on_c, 0, 71, 71
2, 123840, Note_on_c, 0, 64, 70
2, 123840, Note_on_c, 0, 67, 70
2, 123840, Note_on_c, 0, 52, 69
2, 123840, Note_on_c, 0, 40, 69
2, 124320, Note_on_c, 0, 40, 0
2, 124320, Note_on_c, 0, 67, 0
2, 124320, Note_on_c, 0, 52, 0
2, 124320, Note_on_c, 0, 64, 0
2, 124320, Note_on_c, 0, 76, 70
2, 124440, Note_on_c, 0, 71, 0
2, 124560, Note_on_c, 0, 76, 0
2, 124800, Note_on_c, 0, 75, 72
2, 124800, Note_on_c, 0, 63, 62
2, 124800, Note_on_c, 0, 69, 62
2, 124800, Note_on_c, 0, 54, 56
2, 124800, Note_on_c, 0, 42, 60
2, 124920, Note_on_c, 0, 42, 0
2, 124920, Note_on_c, 0, 69, 0
2, 124920, Note_on_c, 0, 75, 0
2, 124920, Note_on_c, 0, 63, 0
2, 124920, Note_on_c, 0, 54, 0
2, 125280, Note_on_c, 0, 71, 80
2, 125280, Note_on_c, 0, 55, 69
2, 125280, Note_on_c, 0, 43, 69
2, 125760, Note_on_c, 0, 43, 0
2, 125760, Note_on_c, 0, 55, 0
2, 125760, Note_on_c, 0, 59, 61
2, 125760, Note_on_c, 0, 64, 61
2, 126000, Note_on_c, 0, 64, 0
2, 126000, Note_on_c, 0, 59, 0
2, 126240, Note_on_c, 0, 73, 74
2, 126240, Note_on_c, 0, 54, 58
2, 126240, Note_on_c, 0, 42, 60
2, 126360, Note_on_c, 0, 42, 0
2, 126360, Note_on_c, 0, 54, 0
2, 126360, Note_on_c, 0, 71, 0
2, 126480, Note_on_c, 0, 75, 74
2, 126600, Note_on_c, 0, 73, 0
2, 126720, Note_on_c, 0, 76, 83
2, 126720, Note_on_c, 0, 52, 71
2, 126720, Note_on_c, 0, 40, 71
2, 126840, Note_on_c, 0, 40, 0
2, 126840, Note_on_c, 0, 52, 0
2, 126840, Note_on_c, 0, 75, 0
2, 126960, Note_on_c, 0, 78, 82
2, 127080, Note_on_c, 0, 76, 0
2, 127200, Note_on_c, 0, 79, 90
2, 127320, Note_on_c, 0, 78, 0
2, 127440, Note_on_c, 0, 79, 0
2, 127680, Note_on_c, 0, 78, 78
2, 127680, Note_on_c, 0, 66, 65
2, 127680, Note_on_c, 0, 72, 65
2, 127680, Note_on_c, 0, 38, 67
2, 127680, Note_on_c, 0, 50, 67
2, 127800, Note_on_c, 0, 50, 0
2, 127800, Note_on_c, 0, 72, 0
2, 127800, Note_on_c, 0, 78, 0
2, 127800, Note_on_c, 0, 66, 0
2, 127800, Note_on_c, 0, 38, 0
2, 128160, Note_on_c, 0, 74, 82
2, 128160, Note_on_c, 0, 57, 77
2, 128160, Note_on_c, 0, 45, 77
2, 128640, Note_on_c, 0, 66, 67
2, 128640, Note_on_c, 0, 62, 67
2, 128640, Note_on_c, 0, 72, 67
2, 128880, Note_on_c, 0, 72, 0
2, 128880, Note_on_c, 0, 66, 0
2, 128880, Note_on_c, 0, 62, 0
2, 129120, Note_on_c, 0, 57, 0
2, 129120, Note_on_c, 0, 45, 0
2, 129120, Note_on_c, 0, 76, 79
2, 129240, Note_on_c, 0, 74, 0
2, 129360, Note_on_c, 0, 78, 75
2, 129480, Note_on_c, 0, 76, 0
2, 129600, Note_on_c, 0, 79, 85
2, 129600, Note_on_c, 0, 43, 82
2, 129720, Note_on_c, 0, 78, 0
2, 129840, Note_on_c, 0, 81, 78
2, 129960, Note_on_c, 0, 79, 0
2, 130080, Note_on_c, 0, 43, 0
2, 130080, Note_on_c, 0, 83, 83
2, 130080, Note_on_c, 0, 74, 72
2, 130080, Note_on_c, 0, 67, 74
2, 130200, Note_on_c, 0, 81, 0
2, 130560, Note_on_c, 0, 83, 0
2, 130560, Note_on_c, 0, 74, 0
2, 130560, Note_on_c, 0, 81, 75
2, 130560, Note_on_c, 0, 75, 75
2, 130560, Note_on_c, 0, 66, 71
2, 130695, Note_on_c, 0, 67, 0
2, 131040, Note_on_c, 0, 75, 0
2, 131040, Note_on_c, 0, 76, 78
2, 131040, Note_on_c, 0, 64, 77
2, 131175, Note_on_c, 0, 66, 0
2, 131200, Note_on_c, 0, 83, 75
2, 131280, Note_on_c, 0, 64, 0
2, 131280, Note_on_c, 0, 76, 0
2, 131325, Note_on_c, 0, 81, 0
2, 131360, Note_on_c, 0, 81, 84
2, 131475, Note_on_c, 0, 83, 0
2, 131520, Note_on_c, 0, 79, 75
2, 131640, Note_on_c, 0, 81, 0
2, 131880, Note_on_c, 0, 79, 0
2, 132000, Note_on_c, 0, 78, 55
2, 132000, Note_on_c, 0, 71, 56
2, 132000, Note_on_c, 0, 66, 49
2, 132000, Note_on_c, 0, 62, 49
2, 132480, Note_on_c, 0, 67, 54
2, 132480, Note_on_c, 0, 61, 54
2, 132615, Note_on_c, 0, 62, 0
2, 132615, Note_on_c, 0, 66, 0
2, 132640, Note_on_c, 0, 79, 62
2, 132720, Note_on_c, 0, 67, 0
2, 132720, Note_on_c, 0, 61, 0
2, 132765, Note_on_c, 0, 78, 0
2, 132800, Note_on_c, 0, 78, 70
2, 132915, Note_on_c, 0, 79, 0
2, 132960, Note_on_c, 0, 76, 60
2, 133080, Note_on_c, 0, 78, 0
2, 133200, Note_on_c, 0, 76, 0
2, 133200, Note_on_c, 0, 71, 0
2, 133440, Note_on_c, 0, 70, 79
2, 133440, Note_on_c, 0, 66, 79
2, 133440, Note_on_c, 0, 64, 79
2, 133440, Note_on_c, 0, 54, 74
2, 133440, Note_on_c, 0, 42, 74
2, 133560, Note_on_c, 0, 42, 0
2, 133560, Note_on_c, 0, 64, 0
2, 133560, Note_on_c, 0, 70, 0
2, 133560, Note_on_c, 0, 66, 0
2, 133560, Note_on_c, 0, 54, 0
2, 133920, Note_on_c, 0, 66, 82
2, 133920, Note_on_c, 0, 62, 82
2, 133920, Note_on_c, 0, 71, 82
2, 133920, Note_on_c, 0, 59, 83
2, 133920, Note_on_c, 0, 47, 83
2, 134160, Note_on_c, 0, 47, 0
2, 134160, Note_on_c, 0, 71, 0
2, 134160, Note_on_c, 0, 66, 0
2, 134160, Note_on_c, 0, 62, 0
2, 134160, Note_on_c, 0, 59, 0
2, 134400, Note_on_c, 0, 35, 77
2, 134400, Note_on_c, 0, 47, 77
2, 134640, Note_on_c, 0, 47, 0
2, 134640, Note_on_c, 0, 35, 0
2, 135360, Note_on_c, 0, 59, 72
2, 135360, Note_on_c, 0, 62, 76
2, 135360, Note_on_c, 0, 50, 87
2, 135360, Note_on_c, 0, 43, 72
2, 135840, Note_on_c, 0, 55, 80
2, 135975, Note_on_c, 0, 50, 0
2, 136320, Note_on_c, 0, 54, 79
2, 136455, Note_on_c, 0, 55, 0
2, 136800, Note_on_c, 0, 43, 0
2, 136800, Note_on_c, 0, 59, 0
2, 136800, Note_on_c, 0, 62, 0
2, 136800, Note_on_c, 0, 54, 0
2, 136800, Note_on_c, 0, 57, 75
2, 136800, Note_on_c, 0, 62, 75
2, 136800, Note_on_c, 0, 60, 71
2, 136800, Note_on_c, 0, 50, 86
2, 136800, Note_on_c, 0, 43, 72
2, 137760, Note_on_c, 0, 52, 75
2, 137895, Note_on_c, 0, 50, 0
2, 138000, Note_on_c, 0, 54, 77
2, 138135, Note_on_c, 0, 52, 0
2, 138240, Note_on_c, 0, 43, 0
2, 138240, Note_on_c, 0, 60, 0
2, 138240, Note_on_c, 0, 57, 0
2, 138240, Note_on_c, 0, 62, 0
2, 138240, Note_on_c, 0, 67, 81
2, 138240, Note_on_c, 0, 61, 81
2, 138240, Note_on_c, 0, 64, 77
2, 138240, Note_on_c, 0, 55, 82
2, 138375, Note_on_c, 0, 54, 0
2, 138480, Note_on_c, 0, 57, 78
2, 138615, Note_on_c, 0, 55, 0
2, 138720, Note_on_c, 0, 59, 72
2, 138855, Note_on_c, 0, 57, 0
2, 139200, Note_on_c, 0, 57, 71
2, 139335, Note_on_c, 0, 59, 0
2, 139680, Note_on_c, 0, 64, 0
2, 139680, Note_on_c, 0, 67, 0
2, 139680, Note_on_c, 0, 61, 0
2, 139680, Note_on_c, 0, 57, 0
2, 139680, Note_on_c, 0, 62, 74
2, 139680, Note_on_c, 0, 60, 78
2, 139680, Note_on_c, 0, 66, 78
2, 139680, Note_on_c, 0, 57, 82
2, 140640, Note_on_c, 0, 50, 67
2, 140775, Note_on_c, 0, 57, 0
2, 140880, Note_on_c, 0, 50, 0
2, 141120, Note_on_c, 0, 62, 0
2, 141120, Note_on_c, 0, 60, 0
2, 141120, Note_on_c, 0, 66, 0
2, 141120, Note_on_c, 0, 67, 53
2, 141120, Note_on_c, 0, 71, 53
2, 141120, Note_on_c, 0, 55, 79
2, 141360, Note_on_c, 0, 57, 59
2, 141495, Note_on_c, 0, 55, 0
2, 141600, Note_on_c, 0, 59, 66
2, 141735, Note_on_c, 0, 57, 0
2, 141840, Note_on_c, 0, 60, 60
2, 141975, Note_on_c, 0, 59, 0
2, 142080, Note_on_c, 0, 69, 57
2, 142080, Note_on_c, 0, 66, 60
2, 142080, Note_on_c, 0, 62, 75
2, 142155, Note_on_c, 0, 67, 0
2, 142155, Note_on_c, 0, 71, 0
2, 142215, Note_on_c, 0, 60, 0
2, 142320, Note_on_c, 0, 69, 0
2, 142320, Note_on_c, 0, 62, 0
2, 142320, Note_on_c, 0, 66, 0
2, 142560, Note_on_c, 0, 74, 73
2, 142560, Note_on_c, 0, 71, 73
2, 142560, Note_on_c, 0, 59, 88
2, 142800, Note_on_c, 0, 61, 75
2, 142935, Note_on_c, 0, 59, 0
2, 143040, Note_on_c, 0, 62, 78
2, 143175, Note_on_c, 0, 61, 0
2, 143280, Note_on_c, 0, 64, 73
2, 143415, Note_on_c, 0, 62, 0
2, 143520, Note_on_c, 0, 70, 66
2, 143520, Note_on_c, 0, 73, 66
2, 143520, Note_on_c, 0, 66, 85
2, 143595, Note_on_c, 0, 74, 0
2, 143595, Note_on_c, 0, 71, 0
2, 143655, Note_on_c, 0, 64, 0
2, 143760, Note_on_c, 0, 70, 0
2, 143760, Note_on_c, 0, 66, 0
2, 143760, Note_on_c, 0, 73, 0
2, 144000, Note_on_c, 0, 74, 80
2, 144000, Note_on_c, 0, 78, 80
2, 144000, Note_on_c, 0, 62, 88
2, 144240, Note_on_c, 0, 64, 73
2, 144315, Note_on_c, 0, 62, 0
2, 144480, Note_on_c, 0, 66, 77
2, 144555, Note_on_c, 0, 64, 0
2, 144720, Note_on_c, 0, 67, 71
2, 144780, Note_on_c, 0, 66, 0
2, 144960, Note_on_c, 0, 74, 0
2, 144960, Note_on_c, 0, 78, 0
2, 144960, Note_on_c, 0, 76, 71
2, 144960, Note_on_c, 0, 73, 71
2, 144960, Note_on_c, 0, 69, 85
2, 145020, Note_on_c, 0, 67, 0
2, 145200, Note_on_c, 0, 67, 68
2, 145260, Note_on_c, 0, 69, 0
2, 145440, Note_on_c, 0, 76, 0
2, 145440, Note_on_c, 0, 73, 0
2, 145440, Note_on_c, 0, 81, 78
2, 145440, Note_on_c, 0, 72, 75
2, 145440, Note_on_c, 0, 66, 82
2, 145500, Note_on_c, 0, 67, 0
2, 145680, Note_on_c, 0, 67, 70
2, 145740, Note_on_c, 0, 66, 0
2, 145920, Note_on_c, 0, 66, 75
2, 145980, Note_on_c, 0, 67, 0
2, 146160, Note_on_c, 0, 64, 68
2, 146220, Note_on_c, 0, 66, 0
2, 146400, Note_on_c, 0, 64, 0
2, 146400, Note_on_c, 0, 74, 69
2, 146400, Note_on_c, 0, 62, 71
2, 146460, Note_on_c, 0, 81, 0
2, 146640, Note_on_c, 0, 62, 0
2, 146880, Note_on_c, 0, 74, 0
2, 146880, Note_on_c, 0, 72, 0
2, 146880, Note_on_c, 0, 76, 71
2, 146880, Note_on_c, 0, 72, 77
2, 146880, Note_on_c, 0, 43, 70
2, 147120, Note_on_c, 0, 78, 69
2, 147120, Note_on_c, 0, 50, 58
2, 147180, Note_on_c, 0, 76, 0
2, 147210, Note_on_c, 0, 43, 0
2, 147360, Note_on_c, 0, 79, 82
2, 147360, Note_on_c, 0, 43, 61
2, 147420, Note_on_c, 0, 78, 0
2, 147450, Note_on_c, 0, 50, 0
2, 147600, Note_on_c, 0, 50, 55
2, 147690, Note_on_c, 0, 43, 0
2, 147840, Note_on_c, 0, 72, 0
2, 147840, Note_on_c, 0, 78, 75
2, 147840, Note_on_c, 0, 72, 74
2, 147840, Note_on_c, 0, 43, 61
2, 147900, Note_on_c, 0, 79, 0
2, 147930, Note_on_c, 0, 50, 0
2, 148080, Note_on_c, 0, 50, 55
2, 148170, Note_on_c, 0, 43, 0
2, 148320, Note_on_c, 0, 72, 0
2, 148320, Note_on_c, 0, 78, 0
2, 148320, Note_on_c, 0, 50, 0
2, 148320, Note_on_c, 0, 74, 83
2, 148320, Note_on_c, 0, 72, 73
2, 148320, Note_on_c, 0, 43, 67
2, 148560, Note_on_c, 0, 50, 54
2, 148650, Note_on_c, 0, 43, 0
2, 148800, Note_on_c, 0, 71, 77
2, 148800, Note_on_c, 0, 43, 58
2, 148890, Note_on_c, 0, 50, 0
2, 148890, Note_on_c, 0, 72, 0
2, 149040, Note_on_c, 0, 69, 61
2, 149040, Note_on_c, 0, 50, 53
2, 149130, Note_on_c, 0, 43, 0
2, 149130, Note_on_c, 0, 71, 0
2, 149280, Note_on_c, 0, 71, 66
2, 149280, Note_on_c, 0, 43, 56
2, 149370, Note_on_c, 0, 50, 0
2, 149370, Note_on_c, 0, 69, 0
2, 149520, Note_on_c, 0, 67, 58
2, 149520, Note_on_c, 0, 50, 48
2, 149610, Note_on_c, 0, 43, 0
2, 149610, Note_on_c, 0, 71, 0
2, 149760, Note_on_c, 0, 74, 0
2, 149760, Note_on_c, 0, 67, 0
2, 149760, Note_on_c, 0, 50, 0
2, 149760, Note_on_c, 0, 72, 56
2, 149760, Note_on_c, 0, 64, 50
2, 149760, Note_on_c, 0, 43, 55
2, 150000, Note_on_c, 0, 66, 54
2, 150000, Note_on_c, 0, 50, 46
2, 150090, Note_on_c, 0, 43, 0
2, 150090, Note_on_c, 0, 64, 0
2, 150240, Note_on_c, 0, 67, 57
2, 150240, Note_on_c, 0, 43, 50
2, 150330, Note_on_c, 0, 50, 0
2, 150330, Note_on_c, 0, 66, 0
2, 150480, Note_on_c, 0, 50, 44
2, 150570, Note_on_c, 0, 43, 0
2, 150720, Note_on_c, 0, 72, 0
2, 150720, Note_on_c, 0, 72, 55
2, 150720, Note_on_c, 0, 66, 54
2, 150720, Note_on_c, 0, 43, 46
2, 150810, Note_on_c, 0, 67, 0
2, 150810, Note_on_c, 0, 50, 0
2, 150960, Note_on_c, 0, 50, 43
2, 151050, Note_on_c, 0, 43, 0
2, 151200, Note_on_c, 0, 66, 0
2, 151200, Note_on_c, 0, 72, 0
2, 151200, Note_on_c, 0, 50, 0
2, 151200, Note_on_c, 0, 72, 68
2, 151200, Note_on_c, 0, 62, 70
2, 151200, Note_on_c, 0, 43, 50
2, 151440, Note_on_c, 0, 50, 41
2, 151530, Note_on_c, 0, 43, 0
2, 151680, Note_on_c, 0, 72, 0
2, 151680, Note_on_c, 0, 71, 59
2, 151680, Note_on_c, 0, 43, 47
2, 151770, Note_on_c, 0, 50, 0
2, 151920, Note_on_c, 0, 69, 52
2, 151920, Note_on_c, 0, 50, 42
2, 151995, Note_on_c, 0, 71, 0
2, 152010, Note_on_c, 0, 43, 0
2, 152160, Note_on_c, 0, 71, 57
2, 152160, Note_on_c, 0, 43, 47
2, 152235, Note_on_c, 0, 69, 0
2, 152250, Note_on_c, 0, 50, 0
2, 152400, Note_on_c, 0, 67, 55
2, 152400, Note_on_c, 0, 50, 41
2, 152475, Note_on_c, 0, 71, 0
2, 152490, Note_on_c, 0, 43, 0
2, 152640, Note_on_c, 0, 67, 0
2, 152640, Note_on_c, 0, 62, 0
2, 152640, Note_on_c, 0, 50, 0
2, 152640, Note_on_c, 0, 57, 94
2, 152760, Control_c, 0, 64, 127
2, 153120, Note_on_c, 0, 74, 90
2, 153120, Note_on_c, 0, 66, 75
2, 153120, Note_on_c, 0, 38, 69
2, 153120, Note_on_c, 0, 45, 69
2, 153360, Note_on_c, 0, 66, 0
2, 153360, Note_on_c, 0, 69, 58
2, 153600, Note_on_c, 0, 69, 0
2, 153600, Note_on_c, 0, 73, 81
2, 153600, Control_c, 0, 64, 0
2, 153600, Note_on_c, 0, 64, 64
2, 153675, Note_on_c, 0, 74, 0
2, 153840, Note_on_c, 0, 73, 0
2, 153840, Note_on_c, 0, 64, 0
2, 153840, Note_on_c, 0, 69, 55
2, 153960, Note_on_c, 0, 69, 0
2, 154050, Note_on_c, 0, 57, 0
2, 154080, Note_on_c, 0, 45, 0
2, 154080, Note_on_c, 0, 38, 0
2, 154080, Note_on_c, 0, 57, 93
2, 154200, Control_c, 0, 64, 127
2, 154560, Note_on_c, 0, 76, 93
2, 154560, Note_on_c, 0, 67, 79
2, 154560, Note_on_c, 0, 45, 70
2, 154560, Note_on_c, 0, 38, 70
2, 154800, Note_on_c, 0, 67, 0
2, 154800, Note_on_c, 0, 69, 62
2, 155040, Note_on_c, 0, 69, 0
2, 155040, Note_on_c, 0, 74, 85
2, 155040, Control_c, 0, 64, 0
2, 155040, Note_on_c, 0, 66, 68
2, 155115, Note_on_c, 0, 76, 0
2, 155280, Note_on_c, 0, 74, 0
2, 155280, Note_on_c, 0, 66, 0
2, 155280, Note_on_c, 0, 69, 61
2, 155400, Note_on_c, 0, 69, 0
2, 155490, Note_on_c, 0, 57, 0
2, 155520, Note_on_c, 0, 38, 0
2, 155520, Note_on_c, 0, 45, 0
2, 155520, Note_on_c, 0, 57, 93
2, 155640, Control_c, 0, 64, 127
2, 156000, Note_on_c, 0, 78, 98
2, 156000, Note_on_c, 0, 69, 84
2, 156000, Note_on_c, 0, 38, 69
2, 156000, Note_on_c, 0, 45, 69
2, 156240, Note_on_c, 0, 69, 0
2, 156240, Note_on_c, 0, 74, 71
2, 156480, Note_on_c, 0, 74, 0
2, 156480, Note_on_c, 0, 76, 88
2, 156480, Control_c, 0, 64, 0
2, 156480, Note_on_c, 0, 69, 74
2, 156555, Note_on_c, 0, 78, 0
2, 156720, Note_on_c, 0, 76, 0
2, 156720, Note_on_c, 0, 69, 0
2, 156720, Note_on_c, 0, 73, 69
2, 156840, Note_on_c, 0, 73, 0
2, 156930, Note_on_c, 0, 57, 0
2, 156960, Note_on_c, 0, 45, 0
2, 156960, Note_on_c, 0, 38, 0
2, 156960, Control_c, 0, 64, 127
2, 156960, Note_on_c, 0, 57, 89
2, 157440, Note_on_c, 0, 79, 99
2, 157440, Note_on_c, 0, 69, 86
2, 157440, Note_on_c, 0, 45, 69
2, 157440, Note_on_c, 0, 38, 69
2, 157680, Note_on_c, 0, 69, 0
2, 157680, Note_on_c, 0, 76, 72
2, 157800, Control_c, 0, 64, 0
2, 157920, Note_on_c, 0, 76, 0
2, 157920, Note_on_c, 0, 78, 90
2, 157920, Note_on_c, 0, 69, 78
2, 157995, Note_on_c, 0, 79, 0
2, 158160, Note_on_c, 0, 78, 0
2, 158160, Note_on_c, 0, 69, 0
2, 158160, Note_on_c, 0, 74, 74
2, 158280, Note_on_c, 0, 74, 0
2, 158332, Note_on_c, 0, 69, 89
2, 158370, Note_on_c, 0, 57, 0
2, 158400, Note_on_c, 0, 45, 0
2, 158400, Note_on_c, 0, 38, 0
2, 158400, Control_c, 0, 64, 127
2, 158400, Note_on_c, 0, 74, 93
2, 158467, Note_on_c, 0, 81, 99
2, 158490, Note_on_c, 0, 69, 0
2, 158490, Note_on_c, 0, 66, 85
2, 158520, Control_c, 0, 64, 0
2, 158557, Note_on_c, 0, 74, 0
2, 158587, Note_on_c, 0, 81, 0
2, 158610, Note_on_c, 0, 66, 0
2, 158880, Note_on_c, 0, 79, 74
2, 158880, Note_on_c, 0, 64, 65
2, 159120, Note_on_c, 0, 78, 65
2, 159120, Note_on_c, 0, 62, 55
2, 159195, Note_on_c, 0, 64, 0
2, 159210, Note_on_c, 0, 79, 0
2, 159360, Note_on_c, 0, 76, 68
2, 159360, Note_on_c, 0, 61, 59
2, 159435, Note_on_c, 0, 62, 0
2, 159450, Note_on_c, 0, 78, 0
2, 159600, Note_on_c, 0, 74, 61
2, 159600, Note_on_c, 0, 59, 55
2, 159675, Note_on_c, 0, 61, 0
2, 159690, Note_on_c, 0, 76, 0
2, 159840, Note_on_c, 0, 74, 0
2, 159840, Note_on_c, 0, 59, 0
2, 159840, Note_on_c, 0, 73, 69
2, 159840, Note_on_c, 0, 57, 66
2, 160080, Note_on_c, 0, 71, 60
2, 160080, Note_on_c, 0, 55, 57
2, 160155, Note_on_c, 0, 57, 0
2, 160170, Note_on_c, 0, 73, 0
2, 160320, Note_on_c, 0, 69, 64
2, 160320, Note_on_c, 0, 54, 59
2, 160395, Note_on_c, 0, 55, 0
2, 160410, Note_on_c, 0, 71, 0
2, 160560, Note_on_c, 0, 67, 58
2, 160560, Note_on_c, 0, 52, 53
2, 160635, Note_on_c, 0, 54, 0
2, 160650, Note_on_c, 0, 69, 0
2, 160800, Note_on_c, 0, 71, 61
2, 160800, Note_on_c, 0, 55, 55
2, 160875, Note_on_c, 0, 52, 0
2, 160890, Note_on_c, 0, 67, 0
2, 161040, Note_on_c, 0, 74, 57
2, 161040, Note_on_c, 0, 59, 49
2, 161115, Note_on_c, 0, 55, 0
2, 161130, Note_on_c, 0, 71, 0
2, 161280, Note_on_c, 0, 74, 0
2, 161280, Note_on_c, 0, 59, 0
2, 161280, Note_on_c, 0, 78, 73
2, 161280, Control_c, 0, 64, 127
2, 161280, Note_on_c, 0, 62, 58
2, 161760, Note_on_c, 0, 61, 46
2, 161760, Note_on_c, 0, 55, 52
2, 161760, Note_on_c, 0, 45, 55
2, 161880, Note_on_c, 0, 45, 0
2, 161880, Note_on_c, 0, 61, 0
2, 161880, Note_on_c, 0, 55, 0
2, 162240, Note_on_c, 0, 67, 45
2, 162240, Note_on_c, 0, 76, 52
2, 162240, Control_c, 0, 64, 0
2, 162240, Note_on_c, 0, 57, 46
2, 162240, Note_on_c, 0, 61, 46
2, 162315, Note_on_c, 0, 62, 0
2, 162330, Note_on_c, 0, 78, 0
2, 162480, Note_on_c, 0, 57, 0
2, 162480, Note_on_c, 0, 76, 0
2, 162480, Note_on_c, 0, 61, 0
2, 162480, Note_on_c, 0, 67, 0
2, 162720, Note_on_c, 0, 66, 47
2, 162720, Note_on_c, 0, 74, 47
2, 162720, Note_on_c, 0, 57, 51
2, 162720, Note_on_c, 0, 50, 56
2, 162840, Control_c, 0, 64, 127
2, 162960, Note_on_c, 0, 50, 0
2, 162960, Note_on_c, 0, 66, 0
2, 162960, Note_on_c, 0, 74, 0
2, 162960, Note_on_c, 0, 57, 0
2, 163200, Note_on_c, 0, 50, 48
2, 163200, Note_on_c, 0, 38, 47
2, 163440, Note_on_c, 0, 38, 0
2, 163440, Note_on_c, 0, 50, 0
2, 164040, Control_c, 0, 64, 0
2, 164160, Note_on_c, 0, 59, 72
2, 164160, Note_on_c, 0, 62, 76
2, 164160, Note_on_c, 0, 50, 80
2, 164160, Note_on_c, 0, 43, 72
2, 164640, Note_on_c, 0, 55, 73
2, 164775, Note_on_c, 0, 50, 0
2, 165120, Note_on_c, 0, 54, 72
2, 165255, Note_on_c, 0, 55, 0
2, 165600, Note_on_c, 0, 43, 0
2, 165600, Note_on_c, 0, 59, 0
2, 165600, Note_on_c, 0, 62, 0
2, 165600, Note_on_c, 0, 54, 0
2, 165600, Note_on_c, 0, 57, 75
2, 165600, Note_on_c, 0, 62, 75
2, 165600, Note_on_c, 0, 60, 71
2, 165600, Note_on_c, 0, 50, 79
2, 165600, Note_on_c, 0, 43, 72
2, 166560, Note_on_c, 0, 52, 68
2, 166695, Note_on_c, 0, 50, 0
2, 166800, Note_on_c, 0, 54, 70
2, 166935, Note_on_c, 0, 52, 0
2, 167040, Note_on_c, 0, 43, 0
2, 167040, Note_on_c, 0, 60, 0
2, 167040, Note_on_c, 0, 57, 0
2, 167040, Note_on_c, 0, 62, 0
2, 167040, Note_on_c, 0, 67, 81
2, 167040, Note_on_c, 0, 61, 81
2, 167040, Note_on_c, 0, 64, 77
2, 167040, Note_on_c, 0, 55, 75
2, 167175, Note_on_c, 0, 54, 0
2, 167280, Note_on_c, 0, 57, 71
2, 167415, Note_on_c, 0, 55, 0
2, 167520, Note_on_c, 0, 59, 65
2, 167655, Note_on_c, 0, 57, 0
2, 168000, Note_on_c, 0, 57, 64
2, 168135, Note_on_c, 0, 59, 0
2, 168480, Note_on_c, 0, 64, 0
2, 168480, Note_on_c, 0, 67, 0
2, 168480, Note_on_c, 0, 61, 0
2, 168480, Note_on_c, 0, 57, 0
2, 168480, Note_on_c, 0, 62, 74
2, 168480, Note_on_c, 0, 60, 78
2, 168480, Note_on_c, 0, 66, 78
2, 168480, Note_on_c, 0, 57, 75
2, 169440, Note_on_c, 0, 50, 60
2, 169575, Note_on_c, 0, 57, 0
2, 169680, Note_on_c, 0, 50, 0
2, 169920, Note_on_c, 0, 62, 0
2, 169920, Note_on_c, 0, 60, 0
2, 169920, Note_on_c, 0, 66, 0
2, 169920, Note_on_c, 0, 67, 53
2, 169920, Note_on_c, 0, 71, 53
2, 169920, Note_on_c, 0, 55, 72
2, 170160, Note_on_c, 0, 57, 52
2, 170295, Note_on_c, 0, 55, 0
2, 170400, Note_on_c, 0, 59, 59
2, 170535, Note_on_c, 0, 57, 0
2, 170640, Note_on_c, 0, 60, 53
2, 170775, Note_on_c, 0, 59, 0
2, 170880, Note_on_c, 0, 69, 57
2, 170880, Note_on_c, 0, 66, 60
2, 170880, Note_on_c, 0, 62, 69
2, 170955, Note_on_c, 0, 67, 0
2, 170955, Note_on_c, 0, 71, 0
2, 171015, Note_on_c, 0, 60, 0
2, 171120, Note_on_c, 0, 69, 0
2, 171120, Note_on_c, 0, 62, 0
2, 171120, Note_on_c, 0, 66, 0
2, 171360, Note_on_c, 0, 74, 73
2, 171360, Note_on_c, 0, 71, 73
2, 171360, Note_on_c, 0, 59, 81
2, 171600, Note_on_c, 0, 61, 68
2, 171735, Note_on_c, 0, 59, 0
2, 171840, Note_on_c, 0, 62, 71
2, 171975, Note_on_c, 0, 61, 0
2, 172080, Note_on_c, 0, 64, 66
2, 172215, Note_on_c, 0, 62, 0
2, 172320, Note_on_c, 0, 70, 66
2, 172320, Note_on_c, 0, 73, 66
2, 172320, Note_on_c, 0, 66, 83
2, 172395, Note_on_c, 0, 74, 0
2, 172395, Note_on_c, 0, 71, 0
2, 172455, Note_on_c, 0, 64, 0
2, 172560, Note_on_c, 0, 70, 0
2, 172560, Note_on_c, 0, 66, 0
2, 172560, Note_on_c, 0, 73, 0
2, 172800, Note_on_c, 0, 74, 80
2, 172800, Note_on_c, 0, 78, 80
2, 172800, Note_on_c, 0, 62, 81
2, 173040, Note_on_c, 0, 64, 66
2, 173115, Note_on_c, 0, 62, 0
2, 173280, Note_on_c, 0, 66, 70
2, 173355, Note_on_c, 0, 64, 0
2, 173520, Note_on_c, 0, 67, 73
2, 173580, Note_on_c, 0, 66, 0
2, 173760, Note_on_c, 0, 74, 0
2, 173760, Note_on_c, 0, 78, 0
2, 173760, Note_on_c, 0, 76, 71
2, 173760, Note_on_c, 0, 73, 71
2, 173760, Note_on_c, 0, 69, 80
2, 173820, Note_on_c, 0, 67, 0
2, 174000, Note_on_c, 0, 67, 61
2, 174060, Note_on_c, 0, 69, 0
2, 174240, Note_on_c, 0, 76, 0
2, 174240, Note_on_c, 0, 73, 0
2, 174240, Note_on_c, 0, 81, 78
2, 174240, Note_on_c, 0, 72, 75
2, 174240, Note_on_c, 0, 66, 75
2, 174300, Note_on_c, 0, 67, 0
2, 174480, Note_on_c, 0, 67, 63
2, 174540, Note_on_c, 0, 66, 0
2, 174720, Note_on_c, 0, 66, 68
2, 174780, Note_on_c, 0, 67, 0
2, 174960, Note_on_c, 0, 64, 61
2, 175020, Note_on_c, 0, 66, 0
2, 175200, Note_on_c, 0, 74, 69
2, 175200, Note_on_c, 0, 62, 64
2, 175260, Note_on_c, 0, 81, 0
2, 175260, Note_on_c, 0, 64, 0
2, 175440, Note_on_c, 0, 62, 0
2, 175680, Note_on_c, 0, 72, 0
2, 175680, Note_on_c, 0, 74, 0
2, 175680, Note_on_c, 0, 76, 71
2, 175680, Note_on_c, 0, 72, 77
2, 175680, Note_on_c, 0, 43, 70
2, 175920, Note_on_c, 0, 78, 69
2, 175920, Note_on_c, 0, 50, 58
2, 175980, Note_on_c, 0, 76, 0
2, 176010, Note_on_c, 0, 43, 0
2, 176160, Note_on_c, 0, 79, 73
2, 176160, Note_on_c, 0, 43, 61
2, 176220, Note_on_c, 0, 78, 0
2, 176250, Note_on_c, 0, 50, 0
2, 176400, Note_on_c, 0, 50, 55
2, 176490, Note_on_c, 0, 43, 0
2, 176640, Note_on_c, 0, 72, 0
2, 176640, Note_on_c, 0, 78, 69
2, 176640, Note_on_c, 0, 72, 74
2, 176640, Note_on_c, 0, 43, 61
2, 176700, Note_on_c, 0, 79, 0
2, 176730, Note_on_c, 0, 50, 0
2, 176880, Note_on_c, 0, 50, 55
2, 176970, Note_on_c, 0, 43, 0
2, 177120, Note_on_c, 0, 72, 0
2, 177120, Note_on_c, 0, 78, 0
2, 177120, Note_on_c, 0, 50, 0
2, 177120, Note_on_c, 0, 74, 83
2, 177120, Note_on_c, 0, 72, 73
2, 177120, Note_on_c, 0, 43, 67
2, 177360, Note_on_c, 0, 50, 54
2, 177450, Note_on_c, 0, 43, 0
2, 177600, Note_on_c, 0, 71, 77
2, 177600, Note_on_c, 0, 43, 58
2, 177690, Note_on_c, 0, 50, 0
2, 177690, Note_on_c, 0, 72, 0
2, 177840, Note_on_c, 0, 69, 61
2, 177840, Note_on_c, 0, 50, 53
2, 177930, Note_on_c, 0, 43, 0
2, 177930, Note_on_c, 0, 71, 0
2, 178080, Note_on_c, 0, 71, 66
2, 178080, Note_on_c, 0, 43, 56
2, 178170, Note_on_c, 0, 50, 0
2, 178170, Note_on_c, 0, 69, 0
2, 178320, Note_on_c, 0, 67, 58
2, 178320, Note_on_c, 0, 50, 48
2, 178410, Note_on_c, 0, 43, 0
2, 178410, Note_on_c, 0, 71, 0
2, 178500, Note_on_c, 0, 74, 0
2, 178560, Note_on_c, 0, 50, 0
2, 178560, Note_on_c, 0, 67, 0
2, 178560, Note_on_c, 0, 74, 62
2, 178560, Note_on_c, 0, 69, 61
2, 178560, Note_on_c, 0, 36, 57
2, 178800, Note_on_c, 0, 76, 69
2, 178800, Note_on_c, 0, 43, 47
2, 178860, Note_on_c, 0, 74, 0
2, 178905, Note_on_c, 0, 36, 0
2, 179040, Note_on_c, 0, 77, 71
2, 179040, Note_on_c, 0, 36, 53
2, 179100, Note_on_c, 0, 76, 0
2, 179145, Note_on_c, 0, 43, 0
2, 179280, Note_on_c, 0, 43, 47
2, 179385, Note_on_c, 0, 36, 0
2, 179520, Note_on_c, 0, 69, 0
2, 179520, Note_on_c, 0, 76, 63
2, 179520, Note_on_c, 0, 71, 55
2, 179520, Note_on_c, 0, 67, 58
2, 179520, Note_on_c, 0, 36, 53
2, 179580, Note_on_c, 0, 77, 0
2, 179625, Note_on_c, 0, 43, 0
2, 179760, Note_on_c, 0, 43, 46
2, 179865, Note_on_c, 0, 36, 0
2, 180000, Note_on_c, 0, 76, 0
2, 180000, Note_on_c, 0, 71, 0
2, 180000, Note_on_c, 0, 67, 0
2, 180000, Note_on_c, 0, 72, 79
2, 180000, Note_on_c, 0, 67, 79
2, 180000, Note_on_c, 0, 65, 63
2, 180000, Note_on_c, 0, 36, 54
2, 180105, Note_on_c, 0, 43, 0
2, 180240, Note_on_c, 0, 43, 45
2, 180345, Note_on_c, 0, 36, 0
2, 180480, Note_on_c, 0, 64, 55
2, 180480, Note_on_c, 0, 36, 51
2, 180555, Note_on_c, 0, 65, 0
2, 180585, Note_on_c, 0, 43, 0
2, 180720, Note_on_c, 0, 62, 53
2, 180720, Note_on_c, 0, 43, 44
2, 180795, Note_on_c, 0, 64, 0
2, 180825, Note_on_c, 0, 36, 0
2, 180960, Note_on_c, 0, 64, 53
2, 180960, Note_on_c, 0, 36, 48
2, 181035, Note_on_c, 0, 62, 0
2, 181065, Note_on_c, 0, 43, 0
2, 181200, Note_on_c, 0, 36, 0
2, 181200, Note_on_c, 0, 60, 63
2, 181275, Note_on_c, 0, 64, 0
2, 181440, Note_on_c, 0, 72, 0
2, 181440, Note_on_c, 0, 67, 0
2, 181440, Note_on_c, 0, 60, 0
2, 181440, Note_on_c, 0, 66, 64
2, 181440, Note_on_c, 0, 62, 64
2, 181440, Note_on_c, 0, 69, 70
2, 181440, Note_on_c, 0, 60, 52
2, 181560, Control_c, 0, 64, 0
2, 181680, Note_on_c, 0, 60, 0
2, 181680, Note_on_c, 0, 66, 0
2, 181680, Note_on_c, 0, 62, 0
2, 181680, Note_on_c, 0, 69, 0
2, 181680, Note_on_c, 0, 62, 67
2, 181680, Note_on_c, 0, 66, 67
2, 181680, Note_on_c, 0, 71, 73
2, 181680, Note_on_c, 0, 59, 54
2, 181920, Note_on_c, 0, 59, 0
2, 181920, Note_on_c, 0, 62, 0
2, 181920, Note_on_c, 0, 66, 0
2, 181920, Note_on_c, 0, 71, 0
2, 181920, Note_on_c, 0, 72, 79
2, 181920, Note_on_c, 0, 62, 73
2, 181920, Note_on_c, 0, 66, 73
2, 181920, Note_on_c, 0, 57, 59
2, 182400, Note_on_c, 0, 57, 0
2, 182400, Note_on_c, 0, 72, 0
2, 182400, Note_on_c, 0, 62, 0
2, 182400, Note_on_c, 0, 66, 0
2, 182400, Note_on_c, 0, 67, 78
2, 182400, Note_on_c, 0, 71, 84
2, 182400, Note_on_c, 0, 62, 78
2, 182400, Note_on_c, 0, 55, 62
2, 182880, Note_on_c, 0, 55, 0
2, 182880, Note_on_c, 0, 67, 0
2, 182880, Note_on_c, 0, 71, 0
2, 182880, Note_on_c, 0, 62, 0
2, 182880, Note_on_c, 0, 76, 79
2, 182880, Note_on_c, 0, 67, 73
2, 182880, Note_on_c, 0, 48, 70
2, 183360, Note_on_c, 0, 67, 0
2, 183360, Note_on_c, 0, 66, 69
2, 183840, Note_on_c, 0, 66, 0
2, 183840, Note_on_c, 0, 74, 74
2, 183840, Note_on_c, 0, 67, 67
2, 183840, Note_on_c, 0, 47, 64
2, 183930, Note_on_c, 0, 48, 0
2, 183930, Note_on_c, 0, 76, 0
2, 184320, Note_on_c, 0, 67, 0
2, 184320, Note_on_c, 0, 74, 0
2, 184320, Note_on_c, 0, 47, 0
2, 184320, Note_on_c, 0, 74, 79
2, 184320, Note_on_c, 0, 64, 73
2, 184320, Note_on_c, 0, 45, 71
2, 184560, Note_on_c, 0, 72, 72
2, 184635, Note_on_c, 0, 74, 0
2, 184800, Note_on_c, 0, 64, 0
2, 184800, Note_on_c, 0, 71, 72
2, 184800, Note_on_c, 0, 67, 66
2, 184890, Note_on_c, 0, 72, 0
2, 185280, Note_on_c, 0, 45, 0
2, 185280, Note_on_c, 0, 71, 0
2, 185280, Note_on_c, 0, 67, 0
2, 185280, Note_on_c, 0, 69, 67
2, 185280, Note_on_c, 0, 60, 58
2, 185280, Note_on_c, 0, 66, 58
2, 185280, Note_on_c, 0, 50, 57
2, 185730, Note_on_c, 0, 50, 0
2, 185760, Note_on_c, 0, 69, 0
2, 185760, Note_on_c, 0, 60, 0
2, 185760, Note_on_c, 0, 66, 0
2, 185760, Note_on_c, 0, 67, 57
2, 185760, Note_on_c, 0, 59, 64
2, 185760, Note_on_c, 0, 50, 63
2, 185760, Note_on_c, 0, 43, 55
2, 186240, Note_on_c, 0, 55, 73
2, 186300, Note_on_c, 0, 50, 0
2, 186720, Note_on_c, 0, 67, 0
2, 186720, Note_on_c, 0, 59, 0
2, 186720, Note_on_c, 0, 54, 67
2, 186810, Note_on_c, 0, 55, 0
2, 187170, Note_on_c, 0, 43, 0
2, 187200, Note_on_c, 0, 54, 0
2, 187200, Note_on_c, 0, 74, 83
2, 187200, Note_on_c, 0, 69, 75
2, 187200, Note_on_c, 0, 72, 75
2, 187200, Note_on_c, 0, 50, 73
2, 187200, Note_on_c, 0, 43, 70
2, 187680, Note_on_c, 0, 79, 86
2, 187770, Note_on_c, 0, 74, 0
2, 188160, Note_on_c, 0, 50, 0
2, 188160, Note_on_c, 0, 78, 83
2, 188250, Note_on_c, 0, 79, 0
2, 188580, Note_on_c, 0, 43, 0
2, 188640, Note_on_c, 0, 69, 0
2, 188640, Note_on_c, 0, 72, 0
2, 188640, Note_on_c, 0, 78, 0
2, 188640, Note_on_c, 0, 74, 80
2, 188640, Note_on_c, 0, 67, 75
2, 188640, Note_on_c, 0, 71, 75
2, 188640, Note_on_c, 0, 50, 77
2, 188640, Note_on_c, 0, 43, 56
2, 189120, Note_on_c, 0, 55, 79
2, 189195, Note_on_c, 0, 50, 0
2, 189600, Note_on_c, 0, 71, 0
2, 189600, Note_on_c, 0, 67, 0
2, 189600, Note_on_c, 0, 54, 73
2, 189690, Note_on_c, 0, 55, 0
2, 190020, Note_on_c, 0, 43, 0
2, 190080, Note_on_c, 0, 74, 0
2, 190080, Note_on_c, 0, 54, 0
2, 190080, Note_on_c, 0, 62, 60
2, 190080, Note_on_c, 0, 60, 72
2, 190080, Note_on_c, 0, 57, 72
2, 190080, Note_on_c, 0, 50, 64
2, 190080, Note_on_c, 0, 43, 54
2, 190560, Note_on_c, 0, 67, 68
2, 190635, Note_on_c, 0, 62, 0
2, 191040, Note_on_c, 0, 66, 54
2, 191115, Note_on_c, 0, 67, 0
2, 191475, Note_on_c, 0, 43, 0
2, 191475, Note_on_c, 0, 50, 0
2, 191520, Note_on_c, 0, 60, 0
2, 191520, Note_on_c, 0, 66, 0
2, 191520, Note_on_c, 0, 57, 0
2, 191520, Note_on_c, 0, 59, 55
2, 191520, Note_on_c, 0, 62, 55
2, 191520, Note_on_c, 0, 43, 52
2, 191520, Note_on_c, 0, 50, 52
2, 192000, Note_on_c, 0, 55, 61
2, 192480, Note_on_c, 0, 55, 0
2, 192480, Note_on_c, 0, 54, 53
2, 192900, Note_on_c, 0, 50, 0
2, 192915, Note_on_c, 0, 43, 0
2, 192930, Note_on_c, 0, 59, 0
2, 192930, Note_on_c, 0, 62, 0
2, 192960, Note_on_c, 0, 54, 0
2, 192960, Note_on_c, 0, 59, 53
2, 192960, Note_on_c, 0, 62, 53
2, 192960, Note_on_c, 0, 43, 52
2, 192960, Note_on_c, 0, 50, 52
2, 193440, Note_on_c, 0, 55, 65
2, 193920, Note_on_c, 0, 55, 0
2, 193920, Note_on_c, 0, 54, 57
2, 194340, Note_on_c, 0, 43, 0
2, 194355, Note_on_c, 0, 50, 0
2, 194355, Note_on_c, 0, 59, 0
2, 194370, Note_on_c, 0, 62, 0
2, 194400, Note_on_c, 0, 54, 0
2, 194400, Note_on_c, 0, 59, 54
2, 194400, Note_on_c, 0, 62, 49
2, 194400, Note_on_c, 0, 50, 59
2, 194400, Note_on_c, 0, 43, 47
2, 194640, Note_on_c, 0, 50, 0
2, 194640, Note_on_c, 0, 55, 52
2, 194880, Note_on_c, 0, 55, 0
2, 194880, Note_on_c, 0, 54, 58
2, 195120, Note_on_c, 0, 54, 0
2, 195120, Note_on_c, 0, 50, 48
2, 195360, Note_on_c, 0, 50, 0
2, 195360, Note_on_c, 0, 55, 57
2, 195600, Note_on_c, 0, 55, 0
2, 195600, Note_on_c, 0, 54, 45
2, 195840, Note_on_c, 0, 54, 0
2, 195840, Note_on_c, 0, 50, 52
2, 196080, Note_on_c, 0, 50, 0
2, 196080, Note_on_c, 0, 55, 44
2, 196320, Note_on_c, 0, 55, 0
2, 196320, Note_on_c, 0, 54, 48
2, 196560, Note_on_c, 0, 54, 0
2, 196560, Note_on_c, 0, 50, 41
2, 196800, Note_on_c, 0, 50, 0
2, 196800, Note_on_c, 0, 55, 45
2, 197040, Note_on_c, 0, 55, 0
2, 197040, Note_on_c, 0, 54, 39
2, 197280, Note_on_c, 0, 59, 0
2, 197280, Note_on_c, 0, 43, 0
2, 197280, Note_on_c, 0, 62, 0
2, 197280, Note_on_c, 0, 35, 52
2, 197280, Note_on_c, 0, 47, 46
2, 197745, Note_on_c, 0, 54, 0
2, 197760, Note_on_c, 0, 47, 0
2, 197760, Note_on_c, 0, 35, 0
2, 197760, Note_on_c, 0, 59, 39
2, 198000, Note_on_c, 0, 59, 0
2, 198240, Note_on_c, 0, 61, 53
2, 198240, Note_on_c, 0, 66, 56
2, 198240, Note_on_c, 0, 58, 45
2, 198360, Note_on_c, 0, 58, 0
2, 198360, Note_on_c, 0, 66, 0
2, 198360, Note_on_c, 0, 61, 0
2, 198720, Note_on_c, 0, 54, 70
2, 198720, Note_on_c, 0, 47, 70
2, 199200, Note_on_c, 0, 66, 57
2, 199200, Note_on_c, 0, 62, 57
2, 199320, Note_on_c, 0, 62, 0
2, 199320, Note_on_c, 0, 66, 0
2, 199680, Note_on_c, 0, 47, 0
2, 199680, Note_on_c, 0, 54, 0
2, 199680, Note_on_c, 0, 66, 55
2, 199680, Note_on_c, 0, 62, 55
2, 199680, Note_on_c, 0, 56, 56
2, 199800, Note_on_c, 0, 62, 0
2, 199800, Note_on_c, 0, 66, 0
2, 199920, Note_on_c, 0, 58, 62
2, 199995, Note_on_c, 0, 56, 0
2, 200160, Note_on_c, 0, 59, 63
2, 200235, Note_on_c, 0, 58, 0
2, 200400, Note_on_c, 0, 61, 58
2, 200475, Note_on_c, 0, 59, 0
2, 200640, Note_on_c, 0, 61, 0
2, 200640, Note_on_c, 0, 71, 62
2, 200640, Note_on_c, 0, 66, 62
2, 200640, Note_on_c, 0, 62, 67
2, 200760, Note_on_c, 0, 62, 0
2, 200760, Note_on_c, 0, 66, 0
2, 200760, Note_on_c, 0, 71, 0
2, 201120, Note_on_c, 0, 69, 64
2, 201120, Note_on_c, 0, 64, 64
2, 201120, Note_on_c, 0, 61, 67
2, 201240, Note_on_c, 0, 61, 0
2, 201240, Note_on_c, 0, 64, 0
2, 201240, Note_on_c, 0, 69, 0
2, 201600, Note_on_c, 0, 57, 80
2, 202080, Note_on_c, 0, 69, 55
2, 202080, Note_on_c, 0, 67, 63
2, 202200, Note_on_c, 0, 67, 0
2, 202200, Note_on_c, 0, 69, 0
2, 202560, Note_on_c, 0, 57, 0
2, 202560, Note_on_c, 0, 69, 66
2, 202560, Note_on_c, 0, 67, 66
2, 202560, Note_on_c, 0, 59, 70
2, 202680, Note_on_c, 0, 67, 0
2, 202680, Note_on_c, 0, 69, 0
2, 202800, Note_on_c, 0, 61, 74
2, 202875, Note_on_c, 0, 59, 0
2, 203040, Note_on_c, 0, 62, 84
2, 203115, Note_on_c, 0, 61, 0
2, 203280, Note_on_c, 0, 64, 81
2, 203355, Note_on_c, 0, 62, 0
2, 203520, Note_on_c, 0, 66, 87
2, 203595, Note_on_c, 0, 64, 0
2, 204000, Note_on_c, 0, 66, 0
2, 204000, Note_on_c, 0, 73, 78
2, 204000, Note_on_c, 0, 70, 78
2, 204000, Note_on_c, 0, 64, 80
2, 204120, Note_on_c, 0, 64, 0
2, 204120, Note_on_c, 0, 70, 0
2, 204120, Note_on_c, 0, 73, 0
2, 204480, Note_on_c, 0, 70, 80
2, 204480, Note_on_c, 0, 73, 80
2, 204480, Note_on_c, 0, 64, 87
2, 204640, Note_on_c, 0, 66, 79
2, 204720, Note_on_c, 0, 64, 0
2, 204800, Note_on_c, 0, 64, 76
2, 204885, Note_on_c, 0, 66, 0
2, 204960, Note_on_c, 0, 78, 73
2, 204960, Note_on_c, 0, 71, 73
2, 204960, Note_on_c, 0, 62, 82
2, 205035, Note_on_c, 0, 64, 0
2, 205080, Note_on_c, 0, 70, 0
2, 205080, Note_on_c, 0, 73, 0
2, 205200, Note_on_c, 0, 78, 0
2, 205200, Note_on_c, 0, 71, 0
2, 205200, Note_on_c, 0, 62, 0
2, 205440, Note_on_c, 0, 66, 73
2, 205440, Note_on_c, 0, 69, 73
2, 205440, Note_on_c, 0, 76, 73
2, 205440, Note_on_c, 0, 61, 69
2, 205560, Note_on_c, 0, 61, 0
2, 205560, Note_on_c, 0, 66, 0
2, 205560, Note_on_c, 0, 69, 0
2, 205560, Note_on_c, 0, 76, 0
2, 205920, Note_on_c, 0, 76, 75
2, 205920, Note_on_c, 0, 66, 75
2, 205920, Note_on_c, 0, 70, 75
2, 205920, Note_on_c, 0, 61, 68
2, 206080, Note_on_c, 0, 62, 65
2, 206160, Note_on_c, 0, 61, 0
2, 206240, Note_on_c, 0, 61, 67
2, 206325, Note_on_c, 0, 62, 0
2, 206400, Note_on_c, 0, 66, 0
2, 206400, Note_on_c, 0, 74, 67
2, 206400, Note_on_c, 0, 71, 67
2, 206400, Note_on_c, 0, 66, 67
2, 206400, Note_on_c, 0, 59, 66
2, 206475, Note_on_c, 0, 61, 0
2, 206520, Note_on_c, 0, 76, 0
2, 206520, Note_on_c, 0, 70, 0
2, 206640, Note_on_c, 0, 71, 0
2, 206640, Note_on_c, 0, 74, 0
2, 206640, Note_on_c, 0, 66, 0
2, 206640, Note_on_c, 0, 59, 0
2, 206880, Note_on_c, 0, 72, 53
2, 206880, Note_on_c, 0, 66, 53
2, 206880, Note_on_c, 0, 63, 53
2, 206880, Note_on_c, 0, 57, 70
2, 207000, Note_on_c, 0, 57, 0
2, 207000, Note_on_c, 0, 72, 0
2, 207000, Note_on_c, 0, 66, 0
2, 207000, Note_on_c, 0, 63, 0
2, 207360, Note_on_c, 0, 72, 59
2, 207360, Note_on_c, 0, 66, 59
2, 207360, Note_on_c, 0, 63, 59
2, 207360, Note_on_c, 0, 57, 62
2, 207520, Note_on_c, 0, 59, 55
2, 207600, Note_on_c, 0, 57, 0
2, 207680, Note_on_c, 0, 57, 59
2, 207765, Note_on_c, 0, 59, 0
2, 207840, Note_on_c, 0, 63, 0
2, 207840, Note_on_c, 0, 71, 53
2, 207840, Note_on_c, 0, 67, 53
2, 207840, Note_on_c, 0, 63, 53
2, 207840, Note_on_c, 0, 55, 56
2, 207915, Note_on_c, 0, 57, 0
2, 207960, Note_on_c, 0, 72, 0
2, 207960, Note_on_c, 0, 66, 0
2, 208080, Note_on_c, 0, 67, 0
2, 208080, Note_on_c, 0, 71, 0
2, 208080, Note_on_c, 0, 63, 0
2, 208080, Note_on_c, 0, 55, 0
2, 208320, Note_on_c, 0, 71, 49
2, 208320, Note_on_c, 0, 69, 49
2, 208320, Note_on_c, 0, 63, 49
2, 208320, Note_on_c, 0, 54, 58
2, 208440, Note_on_c, 0, 54, 0
2, 208440, Note_on_c, 0, 71, 0
2, 208440, Note_on_c, 0, 69, 0
2, 208440, Note_on_c, 0, 63, 0
2, 208800, Note_on_c, 0, 71, 71
2, 208800, Note_on_c, 0, 67, 70
2, 208800, Note_on_c, 0, 64, 70
2, 208800, Note_on_c, 0, 52, 69
2, 208800, Note_on_c, 0, 40, 69
2, 209280, Note_on_c, 0, 40, 0
2, 209280, Note_on_c, 0, 64, 0
2, 209280, Note_on_c, 0, 52, 0
2, 209280, Note_on_c, 0, 67, 0
2, 209280, Note_on_c, 0, 76, 70
2, 209400, Note_on_c, 0, 71, 0
2, 209520, Note_on_c, 0, 76, 0
2, 209760, Note_on_c, 0, 75, 72
2, 209760, Note_on_c, 0, 69, 62
2, 209760, Note_on_c, 0, 63, 62
2, 209760, Note_on_c, 0, 54, 56
2, 209760, Note_on_c, 0, 42, 60
2, 209880, Note_on_c, 0, 42, 0
2, 209880, Note_on_c, 0, 63, 0
2, 209880, Note_on_c, 0, 75, 0
2, 209880, Note_on_c, 0, 69, 0
2, 209880, Note_on_c, 0, 54, 0
2, 210240, Note_on_c, 0, 71, 80
2, 210240, Note_on_c, 0, 55, 69
2, 210240, Note_on_c, 0, 43, 69
2, 210720, Note_on_c, 0, 43, 0
2, 210720, Note_on_c, 0, 55, 0
2, 210720, Note_on_c, 0, 64, 61
2, 210720, Note_on_c, 0, 59, 61
2, 210960, Note_on_c, 0, 59, 0
2, 210960, Note_on_c, 0, 64, 0
2, 211200, Note_on_c, 0, 73, 74
2, 211200, Note_on_c, 0, 54, 58
2, 211200, Note_on_c, 0, 42, 60
2, 211320, Note_on_c, 0, 42, 0
2, 211320, Note_on_c, 0, 54, 0
2, 211320, Note_on_c, 0, 71, 0
2, 211440, Note_on_c, 0, 75, 74
2, 211560, Note_on_c, 0, 73, 0
2, 211680, Note_on_c, 0, 76, 83
2, 211680, Note_on_c, 0, 52, 71
2, 211680, Note_on_c, 0, 40, 71
2, 211800, Note_on_c, 0, 40, 0
2, 211800, Note_on_c, 0, 52, 0
2, 211800, Note_on_c, 0, 75, 0
2, 211920, Note_on_c, 0, 78, 79
2, 212040, Note_on_c, 0, 76, 0
2, 212160, Note_on_c, 0, 79, 82
2, 212280, Note_on_c, 0, 78, 0
2, 212400, Note_on_c, 0, 79, 0
2, 212640, Note_on_c, 0, 78, 78
2, 212640, Note_on_c, 0, 72, 65
2, 212640, Note_on_c, 0, 66, 65
2, 212640, Note_on_c, 0, 38, 67
2, 212640, Note_on_c, 0, 50, 67
2, 212760, Note_on_c, 0, 50, 0
2, 212760, Note_on_c, 0, 66, 0
2, 212760, Note_on_c, 0, 78, 0
2, 212760, Note_on_c, 0, 72, 0
2, 212760, Note_on_c, 0, 38, 0
2, 213120, Note_on_c, 0, 74, 82
2, 213120, Note_on_c, 0, 57, 77
2, 213120, Note_on_c, 0, 45, 77
2, 213600, Note_on_c, 0, 72, 67
2, 213600, Note_on_c, 0, 62, 67
2, 213600, Note_on_c, 0, 66, 67
2, 213840, Note_on_c, 0, 66, 0
2, 213840, Note_on_c, 0, 72, 0
2, 213840, Note_on_c, 0, 62, 0
2, 214080, Note_on_c, 0, 57, 0
2, 214080, Note_on_c, 0, 45, 0
2, 214080, Note_on_c, 0, 76, 79
2, 214200, Note_on_c, 0, 74, 0
2, 214320, Note_on_c, 0, 78, 75
2, 214440, Note_on_c, 0, 76, 0
2, 214560, Note_on_c, 0, 79, 85
2, 214560, Note_on_c, 0, 43, 82
2, 214680, Note_on_c, 0, 78, 0
2, 214800, Note_on_c, 0, 81, 78
2, 214920, Note_on_c, 0, 79, 0
2, 215040, Note_on_c, 0, 43, 0
2, 215040, Note_on_c, 0, 83, 83
2, 215040, Note_on_c, 0, 74, 72
2, 215040, Note_on_c, 0, 67, 74
2, 215160, Note_on_c, 0, 81, 0
2, 215520, Note_on_c, 0, 83, 0
2, 215520, Note_on_c, 0, 74, 0
2, 215520, Note_on_c, 0, 81, 75
2, 215520, Note_on_c, 0, 75, 75
2, 215520, Note_on_c, 0, 66, 71
2, 215655, Note_on_c, 0, 67, 0
2, 216000, Note_on_c, 0, 75, 0
2, 216000, Note_on_c, 0, 76, 78
2, 216000, Note_on_c, 0, 64, 77
2, 216135, Note_on_c, 0, 66, 0
2, 216160, Note_on_c, 0, 83, 85
2, 216240, Note_on_c, 0, 64, 0
2, 216240, Note_on_c, 0, 76, 0
2, 216285, Note_on_c, 0, 81, 0
2, 216320, Note_on_c, 0, 81, 78
2, 216435, Note_on_c, 0, 83, 0
2, 216480, Note_on_c, 0, 79, 75
2, 216600, Note_on_c, 0, 81, 0
2, 216840, Note_on_c, 0, 79, 0
2, 216960, Note_on_c, 0, 78, 55
2, 216960, Note_on_c, 0, 71, 56
2, 216960, Note_on_c, 0, 66, 49
2, 216960, Note_on_c, 0, 62, 49
2, 217440, Note_on_c, 0, 67, 54
2, 217440, Note_on_c, 0, 61, 54
2, 217575, Note_on_c, 0, 62, 0
2, 217575, Note_on_c, 0, 66, 0
2, 217600, Note_on_c, 0, 79, 72
2, 217680, Note_on_c, 0, 67, 0
2, 217680, Note_on_c, 0, 61, 0
2, 217725, Note_on_c, 0, 78, 0
2, 217760, Note_on_c, 0, 78, 65
2, 217875, Note_on_c, 0, 79, 0
2, 217920, Note_on_c, 0, 76, 60
2, 218040, Note_on_c, 0, 78, 0
2, 218160, Note_on_c, 0, 76, 0
2, 218160, Note_on_c, 0, 71, 0
2, 218400, Note_on_c, 0, 64, 79
2, 218400, Note_on_c, 0, 66, 79
2, 218400, Note_on_c, 0, 70, 79
2, 218400, Note_on_c, 0, 54, 74
2, 218400, Note_on_c, 0, 42, 74
2, 218520, Note_on_c, 0, 42, 0
2, 218520, Note_on_c, 0, 70, 0
2, 218520, Note_on_c, 0, 64, 0
2, 218520, Note_on_c, 0, 66, 0
2, 218520, Note_on_c, 0, 54, 0
2, 218880, Note_on_c, 0, 47, 81
2, 218880, Note_on_c, 0, 59, 81
2, 218895, Note_on_c, 0, 66, 85
2, 218895, Note_on_c, 0, 71, 85
2, 218895, Note_on_c, 0, 62, 85
2, 219120, Note_on_c, 0, 59, 0
2, 219120, Note_on_c, 0, 47, 0
2, 219135, Note_on_c, 0, 71, 0
2, 219135, Note_on_c, 0, 66, 0
2, 219135, Note_on_c, 0, 62, 0
2, 219360, Note_on_c, 0, 47, 82
2, 219360, Note_on_c, 0, 35, 82
2, 219600, Note_on_c, 0, 35, 0
2, 219600, Note_on_c, 0, 47, 0
2, 219840, Note_on_c, 0, 78, 79
2, 220320, Note_on_c, 0, 73, 75
2, 220800, Note_on_c, 0, 85, 83
2, 220800, Note_on_c, 0, 69, 72
2, 220890, Note_on_c, 0, 78, 0
2, 221280, Note_on_c, 0, 83, 85
2, 221280, Note_on_c, 0, 74, 68
2, 221280, Note_on_c, 0, 71, 72
2, 221355, Note_on_c, 0, 73, 0
2, 221400, Note_on_c, 0, 69, 0
2, 221445, Note_on_c, 0, 85, 0
2, 221760, Note_on_c, 0, 80, 75
2, 221760, Note_on_c, 0, 78, 71
2, 221760, Note_on_c, 0, 73, 79
2, 221835, Note_on_c, 0, 74, 0
2, 221880, Note_on_c, 0, 71, 0
2, 221925, Note_on_c, 0, 83, 0
2, 222240, Note_on_c, 0, 76, 68
2, 222315, Note_on_c, 0, 78, 0
2, 222480, Note_on_c, 0, 74, 62
2, 222555, Note_on_c, 0, 76, 0
2, 222720, Note_on_c, 0, 73, 74
2, 222720, Note_on_c, 0, 61, 54
2, 222795, Note_on_c, 0, 74, 0
2, 222960, Note_on_c, 0, 61, 0
2, 222960, Note_on_c, 0, 74, 63
2, 223035, Note_on_c, 0, 73, 0
2, 223200, Note_on_c, 0, 76, 71
2, 223275, Note_on_c, 0, 74, 0
2, 223680, Note_on_c, 0, 73, 0
2, 223680, Note_on_c, 0, 80, 0
2, 223680, Note_on_c, 0, 83, 71
2, 223680, Note_on_c, 0, 68, 69
2, 224160, Note_on_c, 0, 81, 66
2, 224160, Note_on_c, 0, 69, 74
2, 224160, Note_on_c, 0, 59, 60
2, 224280, Note_on_c, 0, 68, 0
2, 224325, Note_on_c, 0, 83, 0
2, 224400, Note_on_c, 0, 59, 0
2, 224580, Note_on_c, 0, 76, 0
2, 224640, Note_on_c, 0, 78, 58
2, 224640, Note_on_c, 0, 76, 67
2, 224640, Note_on_c, 0, 71, 79
2, 224760, Note_on_c, 0, 69, 0
2, 224805, Note_on_c, 0, 81, 0
2, 225120, Note_on_c, 0, 74, 64
2, 225195, Note_on_c, 0, 76, 0
2, 225360, Note_on_c, 0, 73, 60
2, 225435, Note_on_c, 0, 74, 0
2, 225600, Note_on_c, 0, 71, 72
2, 225675, Note_on_c, 0, 73, 0
2, 225840, Note_on_c, 0, 73, 60
2, 225915, Note_on_c, 0, 71, 0
2, 226080, Note_on_c, 0, 74, 66
2, 226155, Note_on_c, 0, 73, 0
2, 226560, Note_on_c, 0, 71, 0
2, 226560, Note_on_c, 0, 78, 0
2, 226560, Note_on_c, 0, 81, 78
2, 226560, Note_on_c, 0, 57, 66
2, 227040, Note_on_c, 0, 80, 64
2, 227040, Note_on_c, 0, 59, 62
2, 227160, Note_on_c, 0, 57, 0
2, 227205, Note_on_c, 0, 81, 0
2, 227475, Note_on_c, 0, 74, 0
2, 227520, Note_on_c, 0, 77, 66
2, 227520, Note_on_c, 0, 74, 71
2, 227520, Note_on_c, 0, 61, 70
2, 227640, Note_on_c, 0, 59, 0
2, 227685, Note_on_c, 0, 80, 0
2, 228000, Note_on_c, 0, 73, 70
2, 228075, Note_on_c, 0, 74, 0
2, 228240, Note_on_c, 0, 71, 67
2, 228315, Note_on_c, 0, 73, 0
2, 228480, Note_on_c, 0, 61, 0
2, 228480, Note_on_c, 0, 69, 71
2, 228480, Note_on_c, 0, 49, 71
2, 228555, Note_on_c, 0, 71, 0
2, 228720, Note_on_c, 0, 68, 66
2, 228795, Note_on_c, 0, 69, 0
2, 228960, Note_on_c, 0, 77, 0
2, 228960, Note_on_c, 0, 68, 0
2, 228960, Note_on_c, 0, 66, 82
2, 228960, Note_on_c, 0, 50, 78
2, 229080, Note_on_c, 0, 49, 0
2, 229200, Note_on_c, 0, 78, 72
2, 229275, Note_on_c, 0, 66, 0
2, 229440, Note_on_c, 0, 81, 72
2, 229515, Note_on_c, 0, 78, 0
2, 229680, Note_on_c, 0, 81, 0
2, 229920, Note_on_c, 0, 50, 0
2, 229920, Note_on_c, 0, 80, 75
2, 229920, Note_on_c, 0, 71, 75
2, 229920, Note_on_c, 0, 47, 69
2, 230400, Note_on_c, 0, 71, 0
2, 230400, Note_on_c, 0, 80, 0
2, 230400, Note_on_c, 0, 77, 80
2, 230400, Note_on_c, 0, 74, 85
2, 230400, Note_on_c, 0, 49, 77
2, 230520, Note_on_c, 0, 47, 0
2, 230880, Note_on_c, 0, 73, 82
2, 230955, Note_on_c, 0, 74, 0
2, 231120, Note_on_c, 0, 71, 76
2, 231195, Note_on_c, 0, 73, 0
2, 231360, Note_on_c, 0, 49, 0
2, 231360, Note_on_c, 0, 69, 82
2, 231360, Note_on_c, 0, 37, 67
2, 231435, Note_on_c, 0, 71, 0
2, 231600, Note_on_c, 0, 68, 78
2, 231675, Note_on_c, 0, 69, 0
2, 231840, Note_on_c, 0, 37, 0
2, 231840, Note_on_c, 0, 77, 0
2, 231840, Note_on_c, 0, 68, 0
2, 231840, Note_on_c, 0, 78, 83
2, 231840, Note_on_c, 0, 66, 83
2, 231840, Note_on_c, 0, 50, 54
2, 231840, Note_on_c, 0, 38, 52
2, 231960, Note_on_c, 0, 38, 0
2, 231960, Note_on_c, 0, 78, 0
2, 231960, Note_on_c, 0, 66, 0
2, 231960, Note_on_c, 0, 50, 0
2, 232320, Note_on_c, 0, 77, 81
2, 232320, Note_on_c, 0, 68, 83
2, 232320, Note_on_c, 0, 49, 59
2, 232320, Note_on_c, 0, 37, 58
2, 232560, Note_on_c, 0, 71, 88
2, 232665, Note_on_c, 0, 68, 0
2, 232800, Note_on_c, 0, 69, 83
2, 232905, Note_on_c, 0, 71, 0
2, 233040, Note_on_c, 0, 68, 77
2, 233145, Note_on_c, 0, 69, 0
2, 233280, Note_on_c, 0, 37, 0
2, 233280, Note_on_c, 0, 77, 0
2, 233280, Note_on_c, 0, 49, 0
2, 233280, Note_on_c, 0, 68, 0
2, 233280, Note_on_c, 0, 78, 87
2, 233280, Note_on_c, 0, 66, 87
2, 233280, Note_on_c, 0, 50, 53
2, 233280, Note_on_c, 0, 38, 58
2, 233400, Note_on_c, 0, 38, 0
2, 233400, Note_on_c, 0, 78, 0
2, 233400, Note_on_c, 0, 66, 0
2, 233400, Note_on_c, 0, 50, 0
2, 233760, Note_on_c, 0, 77, 80
2, 233760, Note_on_c, 0, 68, 81
2, 233760, Note_on_c, 0, 49, 57
2, 233760, Note_on_c, 0, 37, 54
2, 234000, Note_on_c, 0, 71, 87
2, 234105, Note_on_c, 0, 68, 0
2, 234240, Note_on_c, 0, 69, 79
2, 234345, Note_on_c, 0, 71, 0
2, 234480, Note_on_c, 0, 68, 76
2, 234585, Note_on_c, 0, 69, 0
2, 234720, Note_on_c, 0, 37, 0
2, 234720, Note_on_c, 0, 77, 0
2, 234720, Note_on_c, 0, 49, 0
2, 234720, Note_on_c, 0, 68, 0
2, 234720, Note_on_c, 0, 66, 84
2, 234720, Note_on_c, 0, 78, 84
2, 234720, Note_on_c, 0, 50, 53
2, 234720, Note_on_c, 0, 38, 54
2, 234840, Note_on_c, 0, 38, 0
2, 234840, Note_on_c, 0, 66, 0
2, 234840, Note_on_c, 0, 78, 0
2, 234840, Note_on_c, 0, 50, 0
2, 235200, Note_on_c, 0, 68, 69
2, 235200, Note_on_c, 0, 59, 67
2, 235320, Note_on_c, 0, 59, 0
2, 235440, Note_on_c, 0, 71, 65
2, 235545, Note_on_c, 0, 68, 0
2, 235680, Note_on_c, 0, 70, 72
2, 235680, Note_on_c, 0, 61, 71
2, 235785, Note_on_c, 0, 71, 0
2, 235800, Note_on_c, 0, 61, 0
2, 235920, Note_on_c, 0, 73, 67
2, 236025, Note_on_c, 0, 70, 0
2, 236160, Note_on_c, 0, 71, 80
2, 236160, Note_on_c, 0, 62, 79
2, 236265, Note_on_c, 0, 73, 0
2, 236280, Note_on_c, 0, 62, 0
2, 236400, Note_on_c, 0, 74, 72
2, 236505, Note_on_c, 0, 71, 0
2, 236640, Note_on_c, 0, 73, 79
2, 236640, Note_on_c, 0, 65, 80
2, 236745, Note_on_c, 0, 74, 0
2, 236760, Note_on_c, 0, 65, 0
2, 236880, Note_on_c, 0, 71, 73
2, 236985, Note_on_c, 0, 73, 0
2, 237120, Note_on_c, 0, 69, 83
2, 237120, Note_on_c, 0, 66, 82
2, 237225, Note_on_c, 0, 71, 0
2, 237240, Note_on_c, 0, 66, 0
2, 237360, Note_on_c, 0, 66, 82
2, 237465, Note_on_c, 0, 69, 0
2, 237600, Note_on_c, 0, 66, 0
2, 237600, Note_on_c, 0, 59, 69
2, 237600, Note_on_c, 0, 68, 69
2, 237600, Note_on_c, 0, 47, 84
2, 237720, Note_on_c, 0, 47, 0
2, 237840, Note_on_c, 0, 62, 59
2, 237900, Note_on_c, 0, 68, 0
2, 237900, Note_on_c, 0, 59, 0
2, 238080, Note_on_c, 0, 62, 0
2, 238080, Note_on_c, 0, 66, 67
2, 238080, Note_on_c, 0, 57, 67
2, 238080, Note_on_c, 0, 49, 74
2, 238200, Note_on_c, 0, 49, 0
2, 238320, Note_on_c, 0, 61, 56
2, 238380, Note_on_c, 0, 57, 0
2, 238380, Note_on_c, 0, 66, 0
2, 238560, Note_on_c, 0, 61, 0
2, 238560, Note_on_c, 0, 65, 66
2, 238560, Note_on_c, 0, 56, 66
2, 238560, Note_on_c, 0, 37, 73
2, 238680, Note_on_c, 0, 37, 0
2, 238800, Note_on_c, 0, 61, 53
2, 238860, Note_on_c, 0, 56, 0
2, 238860, Note_on_c, 0, 65, 0
2, 239040, Note_on_c, 0, 61, 0
2, 239040, Note_on_c, 0, 66, 66
2, 239040, Note_on_c, 0, 57, 66
2, 239040, Note_on_c, 0, 42, 78
2, 239160, Note_on_c, 0, 42, 0
2, 239280, Note_on_c, 0, 61, 50
2, 239340, Note_on_c, 0, 57, 0
2, 239340, Note_on_c, 0, 66, 0
2, 239520, Note_on_c, 0, 61, 0
2, 239520, Note_on_c, 0, 30, 72
2, 239640, Note_on_c, 0, 30, 0
2, 240000, Note_on_c, 0, 66, 75
2, 240480, Note_on_c, 0, 42, 73
2, 240960, Note_on_c, 0, 42, 0
2, 240960, Note_on_c, 0, 73, 74
2, 241125, Note_on_c, 0, 66, 0
2, 241200, Note_on_c, 0, 73, 0
2, 241440, Note_on_c, 0, 71, 75
2, 241440, Note_on_c, 0, 54, 79
2, 241920, Note_on_c, 0, 70, 83
2, 242085, Note_on_c, 0, 71, 0
2, 242400, Note_on_c, 0, 76, 73
2, 242400, Note_on_c, 0, 61, 70
2, 242520, Note_on_c, 0, 54, 0
2, 242565, Note_on_c, 0, 70, 0
2, 242640, Note_on_c, 0, 76, 0
2, 242640, Note_on_c, 0, 61, 0
2, 242880, Note_on_c, 0, 74, 80
2, 242880, Note_on_c, 0, 59, 81
2, 242880, Note_on_c, 0, 54, 77
2, 243360, Note_on_c, 0, 73, 74
2, 243360, Note_on_c, 0, 58, 72
2, 243480, Note_on_c, 0, 59, 0
2, 243525, Note_on_c, 0, 74, 0
2, 243840, Note_on_c, 0, 79, 75
2, 243840, Note_on_c, 0, 64, 68
2, 243960, Note_on_c, 0, 58, 0
2, 244005, Note_on_c, 0, 73, 0
2, 244080, Note_on_c, 0, 79, 0
2, 244080, Note_on_c, 0, 64, 0
2, 244320, Note_on_c, 0, 54, 0
2, 244320, Note_on_c, 0, 78, 84
2, 244320, Note_on_c, 0, 62, 83
2, 244320, Note_on_c, 0, 54, 71
2, 244800, Note_on_c, 0, 54, 0
2, 244800, Note_on_c, 0, 76, 80
2, 244800, Note_on_c, 0, 61, 72
2, 244800, Note_on_c, 0, 54, 79
2, 244920, Note_on_c, 0, 62, 0
2, 244965, Note_on_c, 0, 78, 0
2, 245160, Note_on_c, 0, 61, 0
2, 245280, Note_on_c, 0, 85, 87
2, 245280, Note_on_c, 0, 64, 80
2, 245445, Note_on_c, 0, 76, 0
2, 245520, Note_on_c, 0, 64, 0
2, 245520, Note_on_c, 0, 85, 0
2, 245760, Note_on_c, 0, 83, 79
2, 245760, Note_on_c, 0, 74, 79
2, 245760, Note_on_c, 0, 65, 71
2, 246000, Note_on_c, 0, 65, 0
2, 246240, Note_on_c, 0, 54, 0
2, 246240, Note_on_c, 0, 83, 0
2, 246240, Note_on_c, 0, 74, 0
2, 246240, Note_on_c, 0, 82, 90
2, 246240, Note_on_c, 0, 78, 84
2, 246240, Note_on_c, 0, 66, 82
2, 246240, Note_on_c, 0, 54, 82
2, 246480, Note_on_c, 0, 54, 0
2, 246480, Note_on_c, 0, 66, 0
2, 246480, Note_on_c, 0, 82, 0
2, 246480, Note_on_c, 0, 77, 77
2, 246585, Note_on_c, 0, 78, 0
2, 246720, Note_on_c, 0, 76, 78
2, 246720, Note_on_c, 0, 42, 78
2, 246825, Note_on_c, 0, 77, 0
2, 246840, Note_on_c, 0, 42, 0
2, 246960, Note_on_c, 0, 75, 70
2, 247065, Note_on_c, 0, 76, 0
2, 247200, Note_on_c, 0, 74, 72
2, 247200, Note_on_c, 0, 49, 79
2, 247305, Note_on_c, 0, 75, 0
2, 247320, Note_on_c, 0, 49, 0
2, 247440, Note_on_c, 0, 73, 67
2, 247545, Note_on_c, 0, 74, 0
2, 247680, Note_on_c, 0, 72, 75
2, 247785, Note_on_c, 0, 73, 0
2, 247920, Note_on_c, 0, 71, 62
2, 248025, Note_on_c, 0, 72, 0
2, 248160, Note_on_c, 0, 70, 67
2, 248160, Note_on_c, 0, 43, 77
2, 248265, Note_on_c, 0, 71, 0
2, 248280, Note_on_c, 0, 43, 0
2, 248400, Note_on_c, 0, 69, 59
2, 248505, Note_on_c, 0, 70, 0
2, 248640, Note_on_c, 0, 68, 64
2, 248640, Note_on_c, 0, 49, 77
2, 248745, Note_on_c, 0, 69, 0
2, 248760, Note_on_c, 0, 49, 0
2, 248880, Note_on_c, 0, 67, 56
2, 248985, Note_on_c, 0, 68, 0
2, 249120, Note_on_c, 0, 66, 65
2, 249225, Note_on_c, 0, 67, 0
2, 249360, Note_on_c, 0, 65, 53
2, 249465, Note_on_c, 0, 66, 0
2, 249600, Note_on_c, 0, 64, 58
2, 249600, Note_on_c, 0, 44, 79
2, 249705, Note_on_c, 0, 65, 0
2, 249720, Note_on_c, 0, 44, 0
2, 249840, Note_on_c, 0, 63, 52
2, 249945, Note_on_c, 0, 64, 0
2, 250080, Note_on_c, 0, 62, 54
2, 250080, Note_on_c, 0, 49, 74
2, 250185, Note_on_c, 0, 63, 0
2, 250200, Note_on_c, 0, 49, 0
2, 250320, Note_on_c, 0, 61, 46
2, 250425, Note_on_c, 0, 62, 0
2, 250560, Note_on_c, 0, 60, 56
2, 250560, Note_on_c, 0, 45, 64
2, 250665, Note_on_c, 0, 61, 0
2, 250680, Note_on_c, 0, 45, 0
2, 250800, Note_on_c, 0, 59, 43
2, 250905, Note_on_c, 0, 60, 0
2, 251040, Note_on_c, 0, 58, 48
2, 251040, Note_on_c, 0, 49, 64
2, 251145, Note_on_c, 0, 59, 0
2, 251160, Note_on_c, 0, 49, 0
2, 251280, Note_on_c, 0, 57, 42
2, 251385, Note_on_c, 0, 58, 0
2, 251520, Note_on_c, 0, 56, 45
2, 251520, Note_on_c, 0, 46, 64
2, 251625, Note_on_c, 0, 57, 0
2, 251640, Note_on_c, 0, 46, 0
2, 251760, Note_on_c, 0, 55, 39
2, 251865, Note_on_c, 0, 56, 0
2, 252000, Note_on_c, 0, 55, 0
2, 252000, Note_on_c, 0, 54, 52
2, 252000, Note_on_c, 0, 35, 64
2, 252000, Note_on_c, 0, 47, 64
2, 252480, Note_on_c, 0, 47, 0
2, 252480, Note_on_c, 0, 35, 0
2, 252480, Note_on_c, 0, 59, 54
2, 252645, Note_on_c, 0, 54, 0
2, 252720, Note_on_c, 0, 59, 0
2, 252960, Note_on_c, 0, 61, 53
2, 252960, Note_on_c, 0, 66, 56
2, 252960, Note_on_c, 0, 58, 45
2, 253080, Note_on_c, 0, 58, 0
2, 253080, Note_on_c, 0, 66, 0
2, 253080, Note_on_c, 0, 61, 0
2, 253440, Note_on_c, 0, 54, 70
2, 253440, Note_on_c, 0, 47, 70
2, 253920, Note_on_c, 0, 66, 57
2, 253920, Note_on_c, 0, 62, 57
2, 254040, Note_on_c, 0, 62, 0
2, 254040, Note_on_c, 0, 66, 0
2, 254400, Note_on_c, 0, 47, 0
2, 254400, Note_on_c, 0, 54, 0
2, 254400, Note_on_c, 0, 66, 55
2, 254400, Note_on_c, 0, 62, 55
2, 254400, Note_on_c, 0, 56, 56
2, 254520, Note_on_c, 0, 62, 0
2, 254520, Note_on_c, 0, 66, 0
2, 254640, Note_on_c, 0, 58, 62
2, 254715, Note_on_c, 0, 56, 0
2, 254880, Note_on_c, 0, 59, 63
2, 254955, Note_on_c, 0, 58, 0
2, 255120, Note_on_c, 0, 61, 62
2, 255195, Note_on_c, 0, 59, 0
2, 255360, Note_on_c, 0, 61, 0
2, 255360, Note_on_c, 0, 71, 62
2, 255360, Note_on_c, 0, 66, 62
2, 255360, Note_on_c, 0, 62, 73
2, 255480, Note_on_c, 0, 62, 0
2, 255480, Note_on_c, 0, 66, 0
2, 255480, Note_on_c, 0, 71, 0
2, 255840, Note_on_c, 0, 69, 64
2, 255840, Note_on_c, 0, 64, 64
2, 255840, Note_on_c, 0, 61, 67
2, 255960, Note_on_c, 0, 61, 0
2, 255960, Note_on_c, 0, 64, 0
2, 255960, Note_on_c, 0, 69, 0
2, 256320, Note_on_c, 0, 57, 80
2, 256800, Note_on_c, 0, 69, 55
2, 256800, Note_on_c, 0, 67, 63
2, 256920, Note_on_c, 0, 67, 0
2, 256920, Note_on_c, 0, 69, 0
2, 257280, Note_on_c, 0, 57, 0
2, 257280, Note_on_c, 0, 69, 66
2, 257280, Note_on_c, 0, 67, 66
2, 257280, Note_on_c, 0, 59, 70
2, 257400, Note_on_c, 0, 67, 0
2, 257400, Note_on_c, 0, 69, 0
2, 257520, Note_on_c, 0, 61, 74
2, 257595, Note_on_c, 0, 59, 0
2, 257760, Note_on_c, 0, 62, 84
2, 257835, Note_on_c, 0, 61, 0
2, 258000, Note_on_c, 0, 64, 81
2, 258075, Note_on_c, 0, 62, 0
2, 258240, Note_on_c, 0, 66, 87
2, 258315, Note_on_c, 0, 64, 0
2, 258720, Note_on_c, 0, 66, 0
2, 258720, Note_on_c, 0, 73, 78
2, 258720, Note_on_c, 0, 70, 78
2, 258720, Note_on_c, 0, 64, 80
2, 258840, Note_on_c, 0, 64, 0
2, 258840, Note_on_c, 0, 70, 0
2, 258840, Note_on_c, 0, 73, 0
2, 259200, Note_on_c, 0, 70, 80
2, 259200, Note_on_c, 0, 73, 80
2, 259200, Note_on_c, 0, 64, 82
2, 259360, Note_on_c, 0, 66, 88
2, 259440, Note_on_c, 0, 64, 0
2, 259520, Note_on_c, 0, 64, 76
2, 259605, Note_on_c, 0, 66, 0
2, 259680, Note_on_c, 0, 78, 73
2, 259680, Note_on_c, 0, 71, 73
2, 259680, Note_on_c, 0, 62, 82
2, 259755, Note_on_c, 0, 64, 0
2, 259800, Note_on_c, 0, 70, 0
2, 259800, Note_on_c, 0, 73, 0
2, 259920, Note_on_c, 0, 78, 0
2, 259920, Note_on_c, 0, 71, 0
2, 259920, Note_on_c, 0, 62, 0
2, 260160, Note_on_c, 0, 66, 73
2, 260160, Note_on_c, 0, 69, 73
2, 260160, Note_on_c, 0, 76, 73
2, 260160, Note_on_c, 0, 61, 69
2, 260280, Note_on_c, 0, 61, 0
2, 260280, Note_on_c, 0, 66, 0
2, 260280, Note_on_c, 0, 69, 0
2, 260280, Note_on_c, 0, 76, 0
2, 260640, Note_on_c, 0, 76, 75
2, 260640, Note_on_c, 0, 66, 75
2, 260640, Note_on_c, 0, 70, 75
2, 260640, Note_on_c, 0, 61, 68
2, 260800, Note_on_c, 0, 62, 75
2, 260880, Note_on_c, 0, 61, 0
2, 260960, Note_on_c, 0, 61, 67
2, 261045, Note_on_c, 0, 62, 0
2, 261120, Note_on_c, 0, 66, 0
2, 261120, Note_on_c, 0, 74, 67
2, 261120, Note_on_c, 0, 71, 67
2, 261120, Note_on_c, 0, 66, 67
2, 261120, Note_on_c, 0, 59, 66
2, 261195, Note_on_c, 0, 61, 0
2, 261240, Note_on_c, 0, 76, 0
2, 261240, Note_on_c, 0, 70, 0
2, 261360, Note_on_c, 0, 71, 0
2, 261360, Note_on_c, 0, 74, 0
2, 261360, Note_on_c, 0, 66, 0
2, 261360, Note_on_c, 0, 59, 0
2, 261600, Note_on_c, 0, 72, 53
2, 261600, Note_on_c, 0, 66, 53
2, 261600, Note_on_c, 0, 63, 53
2, 261600, Note_on_c, 0, 57, 70
2, 261720, Note_on_c, 0, 57, 0
2, 261720, Note_on_c, 0, 72, 0
2, 261720, Note_on_c, 0, 66, 0
2, 261720, Note_on_c, 0, 63, 0
2, 262080, Note_on_c, 0, 72, 59
2, 262080, Note_on_c, 0, 66, 59
2, 262080, Note_on_c, 0, 63, 59
2, 262080, Note_on_c, 0, 57, 62
2, 262240, Note_on_c, 0, 59, 67
2, 262320, Note_on_c, 0, 57, 0
2, 262400, Note_on_c, 0, 57, 59
2, 262485, Note_on_c, 0, 59, 0
2, 262560, Note_on_c, 0, 63, 0
2, 262560, Note_on_c, 0, 71, 53
2, 262560, Note_on_c, 0, 67, 53
2, 262560, Note_on_c, 0, 63, 53
2, 262560, Note_on_c, 0, 55, 56
2, 262635, Note_on_c, 0, 57, 0
2, 262680, Note_on_c, 0, 72, 0
2, 262680, Note_on_c, 0, 66, 0
2, 262800, Note_on_c, 0, 67, 0
2, 262800, Note_on_c, 0, 71, 0
2, 262800, Note_on_c, 0, 63, 0
2, 262800, Note_on_c, 0, 55, 0
2, 263040, Note_on_c, 0, 71, 49
2, 263040, Note_on_c, 0, 69, 49
2, 263040, Note_on_c, 0, 63, 49
2, 263040, Note_on_c, 0, 54, 58
2, 263160, Note_on_c, 0, 54, 0
2, 263160, Note_on_c, 0, 71, 0
2, 263160, Note_on_c, 0, 69, 0
2, 263160, Note_on_c, 0, 63, 0
2, 263520, Note_on_c, 0, 71, 71
2, 263520, Note_on_c, 0, 67, 70
2, 263520, Note_on_c, 0, 64, 70
2, 263520, Note_on_c, 0, 52, 69
2, 263520, Note_on_c, 0, 40, 69
2, 264000, Note_on_c, 0, 40, 0
2, 264000, Note_on_c, 0, 64, 0
2, 264000, Note_on_c, 0, 52, 0
2, 264000, Note_on_c, 0, 67, 0
2, 264000, Note_on_c, 0, 76, 84
2, 264120, Note_on_c, 0, 71, 0
2, 264240, Note_on_c, 0, 76, 0
2, 264480, Note_on_c, 0, 75, 72
2, 264480, Note_on_c, 0, 69, 62
2, 264480, Note_on_c, 0, 63, 62
2, 264480, Note_on_c, 0, 54, 56
2, 264480, Note_on_c, 0, 42, 60
2, 264600, Note_on_c, 0, 42, 0
2, 264600, Note_on_c, 0, 54, 0
2, 264720, Note_on_c, 0, 75, 0
2, 264720, Note_on_c, 0, 69, 0
2, 264720, Note_on_c, 0, 63, 0
2, 264960, Note_on_c, 0, 71, 80
2, 264960, Note_on_c, 0, 55, 69
2, 264960, Note_on_c, 0, 43, 69
2, 265440, Note_on_c, 0, 43, 0
2, 265440, Note_on_c, 0, 55, 0
2, 265440, Note_on_c, 0, 64, 61
2, 265440, Note_on_c, 0, 59, 61
2, 265680, Note_on_c, 0, 59, 0
2, 265680, Note_on_c, 0, 64, 0
2, 265920, Note_on_c, 0, 73, 74
2, 265920, Note_on_c, 0, 54, 58
2, 265920, Note_on_c, 0, 42, 60
2, 266040, Note_on_c, 0, 42, 0
2, 266040, Note_on_c, 0, 54, 0
2, 266040, Note_on_c, 0, 71, 0
2, 266160, Note_on_c, 0, 75, 74
2, 266280, Note_on_c, 0, 73, 0
2, 266400, Note_on_c, 0, 76, 83
2, 266400, Note_on_c, 0, 52, 71
2, 266400, Note_on_c, 0, 40, 71
2, 266520, Note_on_c, 0, 40, 0
2, 266520, Note_on_c, 0, 52, 0
2, 266520, Note_on_c, 0, 75, 0
2, 266640, Note_on_c, 0, 78, 79
2, 266760, Note_on_c, 0, 76, 0
2, 266880, Note_on_c, 0, 79, 88
2, 267000, Note_on_c, 0, 78, 0
2, 267120, Note_on_c, 0, 79, 0
2, 267360, Note_on_c, 0, 78, 78
2, 267360, Note_on_c, 0, 72, 65
2, 267360, Note_on_c, 0, 66, 65
2, 267360, Note_on_c, 0, 38, 67
2, 267360, Note_on_c, 0, 50, 67
2, 267480, Note_on_c, 0, 50, 0
2, 267480, Note_on_c, 0, 66, 0
2, 267480, Note_on_c, 0, 78, 0
2, 267480, Note_on_c, 0, 72, 0
2, 267480, Note_on_c, 0, 38, 0
2, 267840, Note_on_c, 0, 74, 82
2, 267840, Note_on_c, 0, 57, 77
2, 267840, Note_on_c, 0, 45, 77
2, 268320, Note_on_c, 0, 72, 67
2, 268320, Note_on_c, 0, 62, 67
2, 268320, Note_on_c, 0, 66, 67
2, 268560, Note_on_c, 0, 66, 0
2, 268560, Note_on_c, 0, 72, 0
2, 268560, Note_on_c, 0, 62, 0
2, 268800, Note_on_c, 0, 57, 0
2, 268800, Note_on_c, 0, 45, 0
2, 268800, Note_on_c, 0, 76, 79
2, 268920, Note_on_c, 0, 74, 0
2, 269040, Note_on_c, 0, 78, 75
2, 269160, Note_on_c, 0, 76, 0
2, 269280, Note_on_c, 0, 79, 85
2, 269280, Note_on_c, 0, 43, 82
2, 269400, Note_on_c, 0, 78, 0
2, 269520, Note_on_c, 0, 81, 78
2, 269640, Note_on_c, 0, 79, 0
2, 269760, Note_on_c, 0, 43, 0
2, 269760, Note_on_c, 0, 83, 88
2, 269760, Note_on_c, 0, 74, 72
2, 269760, Note_on_c, 0, 67, 74
2, 269880, Note_on_c, 0, 81, 0
2, 270240, Note_on_c, 0, 83, 0
2, 270240, Note_on_c, 0, 74, 0
2, 270240, Note_on_c, 0, 81, 75
2, 270240, Note_on_c, 0, 75, 75
2, 270240, Note_on_c, 0, 66, 71
2, 270375, Note_on_c, 0, 67, 0
2, 270720, Note_on_c, 0, 75, 0
2, 270720, Note_on_c, 0, 76, 78
2, 270720, Note_on_c, 0, 64, 77
2, 270855, Note_on_c, 0, 66, 0
2, 270880, Note_on_c, 0, 83, 85
2, 270960, Note_on_c, 0, 64, 0
2, 270960, Note_on_c, 0, 76, 0
2, 271005, Note_on_c, 0, 81, 0
2, 271040, Note_on_c, 0, 81, 77
2, 271155, Note_on_c, 0, 83, 0
2, 271200, Note_on_c, 0, 79, 75
2, 271320, Note_on_c, 0, 81, 0
2, 271560, Note_on_c, 0, 79, 0
2, 271680, Note_on_c, 0, 78, 75
2, 271680, Note_on_c, 0, 71, 74
2, 271680, Note_on_c, 0, 66, 74
2, 271680, Note_on_c, 0, 62, 74
2, 272160, Note_on_c, 0, 67, 79
2, 272160, Note_on_c, 0, 61, 79
2, 272295, Note_on_c, 0, 62, 0
2, 272295, Note_on_c, 0, 66, 0
2, 272320, Note_on_c, 0, 79, 81
2, 272400, Note_on_c, 0, 67, 0
2, 272400, Note_on_c, 0, 61, 0
2, 272445, Note_on_c, 0, 78, 0
2, 272480, Note_on_c, 0, 78, 78
2, 272595, Note_on_c, 0, 79, 0
2, 272640, Note_on_c, 0, 76, 74
2, 272760, Note_on_c, 0, 78, 0
2, 272880, Note_on_c, 0, 76, 0
2, 272880, Note_on_c, 0, 71, 0
2, 273120, Note_on_c, 0, 64, 86
2, 273120, Note_on_c, 0, 66, 86
2, 273120, Note_on_c, 0, 70, 86
2, 273120, Note_on_c, 0, 54, 84
2, 273120, Note_on_c, 0, 42, 84
2, 273240, Note_on_c, 0, 42, 0
2, 273240, Note_on_c, 0, 70, 0
2, 273240, Note_on_c, 0, 64, 0
2, 273240, Note_on_c, 0, 66, 0
2, 273240, Note_on_c, 0, 54, 0
2, 273600, Note_on_c, 0, 66, 94
2, 273600, Note_on_c, 0, 71, 94
2, 273600, Note_on_c, 0, 62, 94
2, 273600, Note_on_c, 0, 59, 94
2, 273600, Note_on_c, 0, 47, 94
2, 273840, Note_on_c, 0, 47, 0
2, 273840, Note_on_c, 0, 62, 0
2, 273840, Note_on_c, 0, 66, 0
2, 273840, Note_on_c, 0, 71, 0
2, 273840, Note_on_c, 0, 59, 0
2, 274080, Note_on_c, 0, 35, 90
2, 274080, Note_on_c, 0, 47, 86
2, 274320, Note_on_c, 0, 47, 0
2, 274320, Note_on_c, 0, 35, 0
2, 274320, End_track
0, 0, End_of_file
