0, 0, Header, 1, 2, 192
1, 0, Start_track
1, 0, Title_t, "Callirhoe Op.37 No.4 - 71978D"
1, 0, Text_t, "Roll expression/accent tracks, where present, converted to MIDI velocities.\012"
1, 0, Text_t, "/title: Callirhoe Op.37 No.4\012"
1, 0, Text_t, "/subtitle: No. 4, Air De Ballet\012"
1, 0, Text_t, "/roll_type: DUO-ART\012"
1, 0, Text_t, "/roll_manufacturer: Aeolian\012"
1, 0, Text_t, "/roll_number: 71978\012"
1, 0, Text_t, "/original roll #: \012"
1, 0, Text_t, "/Smith_Catalog_Record_Date: 1928 January\012"
1, 0, Text_t, "/performer: Armbruster, Robert\012"
1, 0, Text_t, "/composer: Chaminade\012"
1, 0, Text_t, "/lyricist: \012"
1, 0, Text_t, "/copyright: \012"
1, 0, Text_t, "/scanned_by:  Dave Kerr\012"
1, 0, Text_t, "/scan_system:  MK3a w/Optical Encoder\012"
1, 0, Text_t, "/date_scanned: April 2006\012"
1, 0, Text_t, "/owner: Dave Kerr\012"
1, 0, Time_signature, 4, 2, 24, 8
1, 0, Key_signature, 0, "major"
1, 0, Tempo, 500000
1, 0, Marker_t, "Standard MIDI:LPI 199:Tempo  80: 04-03-2006"
1, 0, End_track
2, 0, Start_track
2, 0, Title_t, "Callirhoe Op.37 No.4 - 71978D"
2, 0, Program_c, 0, 0
2, 782, Note_on_c, 0, 31, 32
2, 850, Control_c, 0, 64, 127
2, 853, Note_on_c, 0, 43, 76
2, 854, Note_on_c, 0, 50, 76
2, 891, Note_on_c, 0, 31, 0
2, 909, Note_on_c, 0, 43, 0
2, 910, Note_on_c, 0, 50, 0
2, 1038, Note_on_c, 0, 50, 67
2, 1038, Note_on_c, 0, 59, 52
2, 1044, Control_c, 0, 64, 0
2, 1061, Note_on_c, 0, 50, 0
2, 1062, Note_on_c, 0, 59, 0
2, 1190, Control_c, 0, 64, 127
2, 1191, Note_on_c, 0, 43, 52
2, 1192, Note_on_c, 0, 50, 52
2, 1229, Note_on_c, 0, 50, 0
2, 1235, Note_on_c, 0, 43, 0
2, 1340, Note_on_c, 0, 50, 52
2, 1343, Note_on_c, 0, 59, 52
2, 1368, Control_c, 0, 64, 0
2, 1379, Note_on_c, 0, 59, 0
2, 1379, Note_on_c, 0, 50, 0
2, 1416, Control_c, 0, 67, 127
2, 1481, Control_c, 0, 64, 127
2, 1490, Note_on_c, 0, 43, 49
2, 1491, Note_on_c, 0, 50, 49
2, 1520, Note_on_c, 0, 43, 0
2, 1521, Note_on_c, 0, 50, 0
2, 1602, Control_c, 0, 64, 0
2, 1620, Note_on_c, 0, 50, 49
2, 1621, Note_on_c, 0, 59, 49
2, 1643, Note_on_c, 0, 59, 0
2, 1643, Note_on_c, 0, 50, 0
2, 1732, Note_on_c, 0, 43, 48
2, 1733, Note_on_c, 0, 50, 49
2, 1763, Note_on_c, 0, 50, 0
2, 1763, Note_on_c, 0, 43, 0
2, 1849, Note_on_c, 0, 50, 48
2, 1849, Note_on_c, 0, 59, 49
2, 1871, Note_on_c, 0, 50, 0
2, 1872, Note_on_c, 0, 59, 0
2, 1976, Note_on_c, 0, 43, 49
2, 1977, Note_on_c, 0, 50, 49
2, 1986, Note_on_c, 0, 83, 52
2, 1987, Note_on_c, 0, 88, 52
2, 2007, Note_on_c, 0, 50, 0
2, 2009, Note_on_c, 0, 83, 0
2, 2010, Note_on_c, 0, 88, 0
2, 2013, Note_on_c, 0, 43, 0
2, 2114, Note_on_c, 0, 79, 50
2, 2114, Note_on_c, 0, 86, 52
2, 2138, Note_on_c, 0, 79, 0
2, 2139, Note_on_c, 0, 86, 0
2, 2219, Note_on_c, 0, 50, 49
2, 2222, Note_on_c, 0, 59, 49
2, 2224, Note_on_c, 0, 83, 52
2, 2224, Note_on_c, 0, 88, 52
2, 2247, Note_on_c, 0, 83, 0
2, 2248, Note_on_c, 0, 88, 0
2, 2251, Note_on_c, 0, 59, 0
2, 2251, Note_on_c, 0, 50, 0
2, 2315, Note_on_c, 0, 79, 49
2, 2316, Note_on_c, 0, 86, 52
2, 2338, Note_on_c, 0, 79, 0
2, 2339, Note_on_c, 0, 86, 0
2, 2387, Note_on_c, 0, 43, 49
2, 2387, Note_on_c, 0, 50, 49
2, 2399, Note_on_c, 0, 79, 54
2, 2399, Note_on_c, 0, 84, 57
2, 2419, Note_on_c, 0, 50, 0
2, 2422, Note_on_c, 0, 79, 0
2, 2423, Note_on_c, 0, 84, 0
2, 2426, Note_on_c, 0, 43, 0
2, 2463, Note_on_c, 0, 74, 50
2, 2464, Note_on_c, 0, 83, 52
2, 2487, Note_on_c, 0, 74, 0
2, 2488, Note_on_c, 0, 83, 0
2, 2521, Note_on_c, 0, 50, 49
2, 2521, Note_on_c, 0, 59, 49
2, 2522, Note_on_c, 0, 74, 50
2, 2523, Note_on_c, 0, 81, 52
2, 2550, Note_on_c, 0, 50, 0
2, 2551, Note_on_c, 0, 59, 0
2, 2552, Note_on_c, 0, 74, 0
2, 2553, Note_on_c, 0, 81, 0
2, 2572, Control_c, 0, 67, 0
2, 2582, Note_on_c, 0, 71, 53
2, 2582, Note_on_c, 0, 79, 53
2, 2605, Note_on_c, 0, 79, 0
2, 2605, Note_on_c, 0, 71, 0
2, 2630, Note_on_c, 0, 43, 52
2, 2630, Note_on_c, 0, 49, 52
2, 2631, Note_on_c, 0, 73, 56
2, 2631, Note_on_c, 0, 78, 57
2, 2658, Note_on_c, 0, 43, 0
2, 2659, Note_on_c, 0, 49, 0
2, 2662, Note_on_c, 0, 73, 0
2, 2662, Note_on_c, 0, 78, 0
2, 2684, Note_on_c, 0, 70, 56
2, 2685, Note_on_c, 0, 76, 57
2, 2707, Note_on_c, 0, 70, 0
2, 2708, Note_on_c, 0, 76, 0
2, 2711, Control_c, 0, 64, 127
2, 2716, Note_on_c, 0, 78, 57
2, 2721, Note_on_c, 0, 49, 56
2, 2724, Note_on_c, 0, 58, 56
2, 2731, Note_on_c, 0, 76, 58
2, 2754, Note_on_c, 0, 58, 0
2, 2757, Control_c, 0, 64, 0
2, 2760, Note_on_c, 0, 49, 0
2, 2763, Note_on_c, 0, 76, 0
2, 2764, Note_on_c, 0, 78, 0
2, 2786, Note_on_c, 0, 75, 57
2, 2816, Note_on_c, 0, 76, 60
2, 2817, Note_on_c, 0, 75, 0
2, 2818, Note_on_c, 0, 43, 54
2, 2819, Note_on_c, 0, 49, 53
2, 2822, Note_on_c, 0, 70, 64
2, 2822, Note_on_c, 0, 73, 65
2, 2824, Control_c, 0, 64, 127
2, 2845, Note_on_c, 0, 76, 0
2, 2864, Note_on_c, 0, 43, 0
2, 2872, Note_on_c, 0, 49, 0
2, 2875, Note_on_c, 0, 70, 0
2, 2875, Note_on_c, 0, 73, 0
2, 2900, Control_c, 0, 64, 0
2, 2925, Note_on_c, 0, 49, 51
2, 2926, Note_on_c, 0, 58, 53
2, 2955, Note_on_c, 0, 49, 0
2, 2956, Note_on_c, 0, 58, 0
2, 3030, Note_on_c, 0, 42, 56
2, 3031, Note_on_c, 0, 54, 56
2, 3033, Note_on_c, 0, 72, 58
2, 3033, Note_on_c, 0, 73, 58
2, 3061, Note_on_c, 0, 42, 0
2, 3062, Note_on_c, 0, 54, 0
2, 3063, Note_on_c, 0, 72, 0
2, 3063, Note_on_c, 0, 73, 0
2, 3083, Note_on_c, 0, 69, 56
2, 3084, Note_on_c, 0, 74, 57
2, 3105, Note_on_c, 0, 74, 0
2, 3113, Note_on_c, 0, 69, 0
2, 3124, Note_on_c, 0, 41, 56
2, 3125, Note_on_c, 0, 53, 56
2, 3126, Note_on_c, 0, 72, 58
2, 3126, Note_on_c, 0, 73, 58
2, 3147, Note_on_c, 0, 53, 0
2, 3153, Note_on_c, 0, 41, 0
2, 3155, Note_on_c, 0, 72, 0
2, 3156, Note_on_c, 0, 73, 0
2, 3170, Note_on_c, 0, 69, 57
2, 3170, Note_on_c, 0, 74, 57
2, 3200, Note_on_c, 0, 74, 0
2, 3200, Note_on_c, 0, 69, 0
2, 3215, Note_on_c, 0, 40, 56
2, 3216, Note_on_c, 0, 52, 56
2, 3217, Note_on_c, 0, 72, 57
2, 3218, Note_on_c, 0, 75, 58
2, 3237, Note_on_c, 0, 40, 0
2, 3238, Note_on_c, 0, 52, 0
2, 3240, Note_on_c, 0, 75, 0
2, 3246, Note_on_c, 0, 72, 0
2, 3262, Note_on_c, 0, 69, 57
2, 3262, Note_on_c, 0, 76, 57
2, 3292, Note_on_c, 0, 76, 0
2, 3298, Note_on_c, 0, 69, 0
2, 3302, Note_on_c, 0, 39, 56
2, 3303, Note_on_c, 0, 51, 56
2, 3304, Note_on_c, 0, 72, 58
2, 3304, Note_on_c, 0, 77, 58
2, 3330, Note_on_c, 0, 39, 0
2, 3331, Note_on_c, 0, 51, 0
2, 3332, Note_on_c, 0, 72, 0
2, 3333, Note_on_c, 0, 77, 0
2, 3348, Note_on_c, 0, 69, 57
2, 3348, Note_on_c, 0, 78, 57
2, 3367, Note_on_c, 0, 40, 56
2, 3377, Note_on_c, 0, 69, 0
2, 3378, Note_on_c, 0, 78, 0
2, 3380, Control_c, 0, 64, 127
2, 3391, Note_on_c, 0, 76, 59
2, 3392, Note_on_c, 0, 81, 62
2, 3397, Note_on_c, 0, 52, 60
2, 3403, Note_on_c, 0, 40, 0
2, 3422, Note_on_c, 0, 76, 0
2, 3422, Note_on_c, 0, 81, 0
2, 3426, Note_on_c, 0, 52, 0
2, 3436, Note_on_c, 0, 71, 57
2, 3436, Note_on_c, 0, 79, 57
2, 3438, Control_c, 0, 64, 0
2, 3456, Note_on_c, 0, 55, 57
2, 3460, Note_on_c, 0, 79, 0
2, 3465, Note_on_c, 0, 59, 56
2, 3467, Note_on_c, 0, 71, 0
2, 3472, Note_on_c, 0, 64, 56
2, 3473, Note_on_c, 0, 81, 59
2, 3480, Note_on_c, 0, 76, 59
2, 3480, Note_on_c, 0, 79, 60
2, 3495, Note_on_c, 0, 59, 0
2, 3496, Note_on_c, 0, 81, 0
2, 3496, Note_on_c, 0, 64, 0
2, 3502, Note_on_c, 0, 55, 0
2, 3503, Note_on_c, 0, 76, 0
2, 3510, Note_on_c, 0, 79, 0
2, 3525, Note_on_c, 0, 78, 58
2, 3556, Note_on_c, 0, 78, 0
2, 3558, Control_c, 0, 64, 127
2, 3560, Note_on_c, 0, 40, 56
2, 3561, Note_on_c, 0, 52, 56
2, 3561, Note_on_c, 0, 71, 64
2, 3562, Note_on_c, 0, 79, 65
2, 3568, Note_on_c, 0, 76, 66
2, 3590, Note_on_c, 0, 52, 0
2, 3595, Note_on_c, 0, 40, 0
2, 3599, Note_on_c, 0, 76, 0
2, 3606, Note_on_c, 0, 71, 0
2, 3607, Note_on_c, 0, 79, 0
2, 3657, Note_on_c, 0, 55, 54
2, 3658, Note_on_c, 0, 59, 52
2, 3659, Note_on_c, 0, 64, 54
2, 3682, Note_on_c, 0, 64, 0
2, 3688, Note_on_c, 0, 59, 0
2, 3695, Note_on_c, 0, 55, 0
2, 3714, Control_c, 0, 64, 0
2, 3754, Note_on_c, 0, 35, 59
2, 3755, Note_on_c, 0, 47, 60
2, 3765, Note_on_c, 0, 74, 61
2, 3765, Note_on_c, 0, 78, 62
2, 3788, Note_on_c, 0, 74, 0
2, 3797, Note_on_c, 0, 78, 0
2, 3799, Control_c, 0, 64, 127
2, 3818, Note_on_c, 0, 74, 61
2, 3819, Note_on_c, 0, 83, 63
2, 3825, Note_on_c, 0, 47, 0
2, 3831, Note_on_c, 0, 35, 0
2, 3835, Control_c, 0, 64, 0
2, 3849, Note_on_c, 0, 74, 0
2, 3850, Note_on_c, 0, 83, 0
2, 3854, Note_on_c, 0, 54, 60
2, 3855, Note_on_c, 0, 66, 62
2, 3863, Note_on_c, 0, 78, 64
2, 3863, Note_on_c, 0, 86, 67
2, 3877, Note_on_c, 0, 54, 0
2, 3878, Note_on_c, 0, 66, 0
2, 3893, Note_on_c, 0, 78, 0
2, 3899, Note_on_c, 0, 74, 63
2, 3900, Note_on_c, 0, 83, 64
2, 3901, Note_on_c, 0, 86, 0
2, 3927, Note_on_c, 0, 74, 0
2, 3928, Note_on_c, 0, 83, 0
2, 3944, Control_c, 0, 64, 127
2, 3945, Note_on_c, 0, 35, 60
2, 3946, Note_on_c, 0, 47, 60
2, 3947, Note_on_c, 0, 78, 64
2, 3947, Note_on_c, 0, 85, 67
2, 3967, Note_on_c, 0, 35, 0
2, 3974, Note_on_c, 0, 47, 0
2, 3977, Note_on_c, 0, 78, 0
2, 3978, Note_on_c, 0, 85, 0
2, 3983, Note_on_c, 0, 73, 61
2, 3984, Note_on_c, 0, 82, 63
2, 4007, Control_c, 0, 64, 0
2, 4024, Note_on_c, 0, 54, 58
2, 4024, Note_on_c, 0, 66, 61
2, 4026, Note_on_c, 0, 73, 0
2, 4026, Note_on_c, 0, 78, 62
2, 4026, Note_on_c, 0, 85, 63
2, 4042, Note_on_c, 0, 82, 0
2, 4053, Note_on_c, 0, 54, 0
2, 4054, Note_on_c, 0, 66, 0
2, 4055, Note_on_c, 0, 78, 0
2, 4056, Note_on_c, 0, 85, 0
2, 4109, Control_c, 0, 64, 127
2, 4109, Note_on_c, 0, 35, 60
2, 4111, Note_on_c, 0, 47, 59
2, 4113, Note_on_c, 0, 74, 62
2, 4113, Note_on_c, 0, 78, 62
2, 4139, Note_on_c, 0, 35, 0
2, 4140, Note_on_c, 0, 47, 0
2, 4144, Note_on_c, 0, 78, 0
2, 4150, Note_on_c, 0, 74, 0
2, 4157, Note_on_c, 0, 83, 63
2, 4187, Note_on_c, 0, 83, 0
2, 4191, Note_on_c, 0, 54, 60
2, 4192, Note_on_c, 0, 66, 61
2, 4192, Note_on_c, 0, 77, 62
2, 4193, Note_on_c, 0, 80, 61
2, 4193, Note_on_c, 0, 86, 64
2, 4214, Note_on_c, 0, 66, 0
2, 4219, Note_on_c, 0, 54, 0
2, 4221, Note_on_c, 0, 80, 0
2, 4230, Note_on_c, 0, 77, 0
2, 4235, Note_on_c, 0, 83, 63
2, 4237, Control_c, 0, 64, 0
2, 4257, Note_on_c, 0, 86, 0
2, 4265, Note_on_c, 0, 83, 0
2, 4275, Note_on_c, 0, 35, 60
2, 4276, Note_on_c, 0, 47, 60
2, 4280, Note_on_c, 0, 78, 62
2, 4280, Note_on_c, 0, 82, 64
2, 4281, Note_on_c, 0, 85, 63
2, 4318, Control_c, 0, 64, 127
2, 4342, Note_on_c, 0, 35, 0
2, 4343, Note_on_c, 0, 47, 0
2, 4345, Note_on_c, 0, 78, 0
2, 4346, Note_on_c, 0, 82, 0
2, 4347, Note_on_c, 0, 85, 0
2, 4416, Control_c, 0, 64, 0
2, 4416, Note_on_c, 0, 101, 61
2, 4417, Note_on_c, 0, 58, 55
2, 4418, Note_on_c, 0, 61, 54
2, 4418, Note_on_c, 0, 66, 57
2, 4420, Note_on_c, 0, 90, 61
2, 4422, Note_on_c, 0, 102, 65
2, 4429, Note_on_c, 0, 97, 66
2, 4437, Note_on_c, 0, 101, 0
2, 4441, Note_on_c, 0, 66, 0
2, 4446, Note_on_c, 0, 58, 0
2, 4447, Note_on_c, 0, 61, 0
2, 4451, Note_on_c, 0, 90, 0
2, 4452, Note_on_c, 0, 102, 0
2, 4458, Note_on_c, 0, 97, 0
2, 4459, Control_c, 0, 67, 127
2, 4540, Note_on_c, 0, 33, 49
2, 4542, Note_on_c, 0, 45, 49
2, 4547, Control_c, 0, 64, 127
2, 4552, Note_on_c, 0, 74, 50
2, 4552, Note_on_c, 0, 78, 50
2, 4571, Note_on_c, 0, 33, 0
2, 4572, Note_on_c, 0, 45, 0
2, 4588, Note_on_c, 0, 74, 0
2, 4589, Note_on_c, 0, 78, 0
2, 4638, Note_on_c, 0, 76, 49
2, 4638, Note_on_c, 0, 79, 50
2, 4668, Note_on_c, 0, 76, 0
2, 4669, Note_on_c, 0, 79, 0
2, 4706, Control_c, 0, 64, 0
2, 4707, Note_on_c, 0, 54, 49
2, 4708, Note_on_c, 0, 57, 49
2, 4708, Note_on_c, 0, 62, 49
2, 4709, Note_on_c, 0, 77, 53
2, 4710, Note_on_c, 0, 80, 54
2, 4730, Note_on_c, 0, 62, 0
2, 4730, Note_on_c, 0, 57, 0
2, 4736, Note_on_c, 0, 54, 0
2, 4738, Note_on_c, 0, 80, 0
2, 4738, Note_on_c, 0, 77, 0
2, 4759, Note_on_c, 0, 78, 54
2, 4759, Note_on_c, 0, 81, 57
2, 4790, Note_on_c, 0, 81, 0
2, 4796, Note_on_c, 0, 78, 0
2, 4808, Note_on_c, 0, 33, 53
2, 4809, Note_on_c, 0, 45, 53
2, 4813, Note_on_c, 0, 79, 56
2, 4813, Note_on_c, 0, 82, 59
2, 4814, Control_c, 0, 64, 127
2, 4824, Control_c, 0, 67, 0
2, 4838, Note_on_c, 0, 33, 0
2, 4840, Note_on_c, 0, 45, 0
2, 4850, Note_on_c, 0, 79, 0
2, 4851, Note_on_c, 0, 82, 0
2, 4864, Note_on_c, 0, 80, 60
2, 4865, Note_on_c, 0, 83, 63
2, 4888, Note_on_c, 0, 80, 0
2, 4897, Note_on_c, 0, 83, 0
2, 4913, Control_c, 0, 64, 0
2, 4915, Note_on_c, 0, 55, 52
2, 4916, Note_on_c, 0, 57, 54
2, 4916, Note_on_c, 0, 61, 55
2, 4917, Note_on_c, 0, 81, 61
2, 4917, Note_on_c, 0, 84, 62
2, 4938, Note_on_c, 0, 57, 0
2, 4940, Note_on_c, 0, 81, 0
2, 4940, Note_on_c, 0, 84, 0
2, 4945, Note_on_c, 0, 61, 0
2, 4945, Note_on_c, 0, 55, 0
2, 4955, Note_on_c, 0, 79, 66
2, 4956, Note_on_c, 0, 85, 69
2, 4988, Note_on_c, 0, 85, 0
2, 4998, Note_on_c, 0, 38, 66
2, 4999, Note_on_c, 0, 50, 68
2, 5001, Note_on_c, 0, 78, 70
2, 5002, Note_on_c, 0, 79, 0
2, 5002, Note_on_c, 0, 84, 72
2, 5002, Note_on_c, 0, 88, 71
2, 5010, Control_c, 0, 64, 127
2, 5027, Note_on_c, 0, 38, 0
2, 5028, Note_on_c, 0, 50, 0
2, 5032, Note_on_c, 0, 88, 0
2, 5032, Note_on_c, 0, 84, 0
2, 5038, Note_on_c, 0, 78, 0
2, 5047, Note_on_c, 0, 86, 77
2, 5070, Note_on_c, 0, 86, 0
2, 5071, Control_c, 0, 64, 0
2, 5099, Note_on_c, 0, 76, 73
2, 5128, Note_on_c, 0, 74, 76
2, 5129, Note_on_c, 0, 76, 0
2, 5140, Control_c, 0, 64, 127
2, 5168, Note_on_c, 0, 74, 0
2, 5170, Control_c, 0, 64, 0
2, 5196, Note_on_c, 0, 54, 86
2, 5196, Note_on_c, 0, 60, 88
2, 5197, Note_on_c, 0, 64, 77
2, 5218, Note_on_c, 0, 54, 0
2, 5219, Note_on_c, 0, 64, 0
2, 5219, Note_on_c, 0, 60, 0
2, 5254, Note_on_c, 0, 62, 87
2, 5284, Note_on_c, 0, 62, 0
2, 5361, Control_c, 0, 64, 127
2, 5361, Note_on_c, 0, 26, 57
2, 5362, Note_on_c, 0, 38, 56
2, 5443, Note_on_c, 0, 38, 0
2, 5449, Note_on_c, 0, 26, 0
2, 5861, Control_c, 0, 67, 127
2, 5969, Control_c, 0, 64, 0
2, 5984, Note_on_c, 0, 43, 43
2, 5985, Note_on_c, 0, 50, 43
2, 5989, Note_on_c, 0, 83, 52
2, 5990, Note_on_c, 0, 88, 52
2, 6006, Note_on_c, 0, 50, 0
2, 6006, Note_on_c, 0, 43, 0
2, 6016, Note_on_c, 0, 83, 0
2, 6016, Note_on_c, 0, 88, 0
2, 6124, Note_on_c, 0, 79, 48
2, 6125, Note_on_c, 0, 86, 51
2, 6155, Note_on_c, 0, 86, 0
2, 6161, Note_on_c, 0, 79, 0
2, 6233, Note_on_c, 0, 50, 49
2, 6234, Note_on_c, 0, 59, 49
2, 6236, Note_on_c, 0, 83, 52
2, 6236, Note_on_c, 0, 88, 52
2, 6256, Note_on_c, 0, 59, 0
2, 6258, Note_on_c, 0, 83, 0
2, 6259, Note_on_c, 0, 88, 0
2, 6263, Note_on_c, 0, 50, 0
2, 6331, Note_on_c, 0, 79, 50
2, 6333, Note_on_c, 0, 86, 52
2, 6354, Note_on_c, 0, 86, 0
2, 6361, Note_on_c, 0, 79, 0
2, 6417, Note_on_c, 0, 43, 49
2, 6419, Note_on_c, 0, 50, 49
2, 6420, Note_on_c, 0, 79, 50
2, 6421, Note_on_c, 0, 84, 52
2, 6440, Note_on_c, 0, 50, 0
2, 6440, Note_on_c, 0, 43, 0
2, 6450, Note_on_c, 0, 79, 0
2, 6450, Note_on_c, 0, 84, 0
2, 6494, Note_on_c, 0, 74, 49
2, 6494, Note_on_c, 0, 83, 52
2, 6518, Note_on_c, 0, 83, 0
2, 6522, Note_on_c, 0, 74, 0
2, 6551, Note_on_c, 0, 50, 49
2, 6552, Note_on_c, 0, 59, 49
2, 6559, Note_on_c, 0, 74, 50
2, 6560, Note_on_c, 0, 81, 51
2, 6579, Note_on_c, 0, 50, 0
2, 6580, Note_on_c, 0, 59, 0
2, 6582, Note_on_c, 0, 81, 0
2, 6589, Note_on_c, 0, 74, 0
2, 6609, Note_on_c, 0, 71, 50
2, 6611, Note_on_c, 0, 79, 50
2, 6640, Note_on_c, 0, 79, 0
2, 6640, Note_on_c, 0, 71, 0
2, 6664, Note_on_c, 0, 43, 51
2, 6664, Note_on_c, 0, 49, 52
2, 6666, Note_on_c, 0, 73, 54
2, 6666, Note_on_c, 0, 78, 55
2, 6692, Note_on_c, 0, 43, 0
2, 6693, Note_on_c, 0, 49, 0
2, 6695, Note_on_c, 0, 73, 0
2, 6695, Note_on_c, 0, 78, 0
2, 6715, Note_on_c, 0, 70, 53
2, 6715, Note_on_c, 0, 76, 54
2, 6731, Note_on_c, 0, 76, 0
2, 6731, Note_on_c, 0, 78, 54
2, 6745, Note_on_c, 0, 70, 0
2, 6760, Note_on_c, 0, 76, 54
2, 6765, Note_on_c, 0, 49, 53
2, 6766, Note_on_c, 0, 58, 53
2, 6768, Note_on_c, 0, 78, 0
2, 6788, Note_on_c, 0, 58, 0
2, 6788, Note_on_c, 0, 49, 0
2, 6798, Note_on_c, 0, 76, 0
2, 6819, Note_on_c, 0, 75, 54
2, 6840, Note_on_c, 0, 75, 0
2, 6850, Note_on_c, 0, 43, 53
2, 6851, Note_on_c, 0, 49, 53
2, 6852, Note_on_c, 0, 70, 57
2, 6852, Note_on_c, 0, 73, 58
2, 6852, Note_on_c, 0, 76, 59
2, 6861, Control_c, 0, 64, 127
2, 6901, Note_on_c, 0, 43, 0
2, 6902, Note_on_c, 0, 49, 0
2, 6903, Note_on_c, 0, 76, 0
2, 6903, Note_on_c, 0, 70, 0
2, 6904, Note_on_c, 0, 73, 0
2, 6943, Control_c, 0, 64, 0
2, 6961, Note_on_c, 0, 49, 53
2, 6968, Note_on_c, 0, 58, 53
2, 6983, Note_on_c, 0, 49, 0
2, 6992, Note_on_c, 0, 58, 0
2, 6997, Control_c, 0, 67, 0
2, 7057, Note_on_c, 0, 42, 59
2, 7058, Note_on_c, 0, 54, 60
2, 7059, Note_on_c, 0, 72, 58
2, 7059, Note_on_c, 0, 73, 58
2, 7080, Note_on_c, 0, 72, 0
2, 7081, Note_on_c, 0, 73, 0
2, 7087, Note_on_c, 0, 54, 0
2, 7094, Note_on_c, 0, 42, 0
2, 7109, Note_on_c, 0, 69, 61
2, 7109, Note_on_c, 0, 74, 61
2, 7140, Note_on_c, 0, 74, 0
2, 7140, Note_on_c, 0, 69, 0
2, 7151, Note_on_c, 0, 41, 60
2, 7152, Note_on_c, 0, 53, 60
2, 7154, Note_on_c, 0, 72, 59
2, 7154, Note_on_c, 0, 73, 58
2, 7173, Note_on_c, 0, 41, 0
2, 7174, Note_on_c, 0, 53, 0
2, 7175, Note_on_c, 0, 72, 0
2, 7176, Note_on_c, 0, 73, 0
2, 7199, Note_on_c, 0, 69, 61
2, 7199, Note_on_c, 0, 74, 61
2, 7230, Note_on_c, 0, 74, 0
2, 7230, Note_on_c, 0, 69, 0
2, 7243, Note_on_c, 0, 40, 60
2, 7252, Note_on_c, 0, 52, 60
2, 7254, Note_on_c, 0, 72, 62
2, 7254, Note_on_c, 0, 75, 62
2, 7274, Note_on_c, 0, 40, 0
2, 7275, Note_on_c, 0, 52, 0
2, 7276, Note_on_c, 0, 75, 0
2, 7283, Note_on_c, 0, 72, 0
2, 7296, Note_on_c, 0, 69, 61
2, 7297, Note_on_c, 0, 76, 61
2, 7321, Note_on_c, 0, 76, 0
2, 7328, Note_on_c, 0, 69, 0
2, 7333, Note_on_c, 0, 39, 60
2, 7333, Note_on_c, 0, 51, 60
2, 7335, Note_on_c, 0, 73, 63
2, 7335, Note_on_c, 0, 77, 64
2, 7362, Note_on_c, 0, 39, 0
2, 7363, Note_on_c, 0, 51, 0
2, 7364, Note_on_c, 0, 73, 0
2, 7364, Note_on_c, 0, 77, 0
2, 7378, Note_on_c, 0, 69, 60
2, 7378, Note_on_c, 0, 78, 61
2, 7408, Note_on_c, 0, 78, 0
2, 7409, Control_c, 0, 64, 127
2, 7411, Note_on_c, 0, 40, 63
2, 7412, Note_on_c, 0, 52, 64
2, 7413, Note_on_c, 0, 69, 0
2, 7428, Note_on_c, 0, 76, 66
2, 7428, Note_on_c, 0, 81, 69
2, 7433, Note_on_c, 0, 40, 0
2, 7440, Note_on_c, 0, 52, 0
2, 7449, Note_on_c, 0, 76, 0
2, 7450, Note_on_c, 0, 81, 0
2, 7463, Note_on_c, 0, 71, 65
2, 7463, Note_on_c, 0, 79, 65
2, 7474, Control_c, 0, 64, 0
2, 7484, Note_on_c, 0, 71, 0
2, 7485, Note_on_c, 0, 79, 0
2, 7497, Note_on_c, 0, 55, 64
2, 7498, Note_on_c, 0, 59, 64
2, 7499, Note_on_c, 0, 81, 67
2, 7505, Note_on_c, 0, 64, 64
2, 7514, Note_on_c, 0, 71, 63
2, 7514, Note_on_c, 0, 79, 62
2, 7523, Note_on_c, 0, 81, 0
2, 7527, Note_on_c, 0, 55, 0
2, 7528, Note_on_c, 0, 64, 0
2, 7528, Note_on_c, 0, 59, 0
2, 7543, Note_on_c, 0, 79, 0
2, 7543, Note_on_c, 0, 71, 0
2, 7549, Note_on_c, 0, 78, 64
2, 7579, Note_on_c, 0, 78, 0
2, 7583, Note_on_c, 0, 38, 64
2, 7584, Note_on_c, 0, 50, 64
2, 7585, Note_on_c, 0, 71, 62
2, 7586, Note_on_c, 0, 79, 62
2, 7588, Control_c, 0, 64, 127
2, 7593, Note_on_c, 0, 77, 62
2, 7604, Note_on_c, 0, 38, 0
2, 7605, Note_on_c, 0, 50, 0
2, 7615, Note_on_c, 0, 71, 0
2, 7616, Note_on_c, 0, 79, 0
2, 7616, Note_on_c, 0, 77, 0
2, 7689, Note_on_c, 0, 55, 64
2, 7689, Note_on_c, 0, 59, 64
2, 7696, Note_on_c, 0, 65, 64
2, 7719, Note_on_c, 0, 59, 0
2, 7719, Note_on_c, 0, 55, 0
2, 7722, Control_c, 0, 64, 0
2, 7726, Note_on_c, 0, 65, 0
2, 7777, Note_on_c, 0, 36, 66
2, 7778, Note_on_c, 0, 48, 63
2, 7780, Note_on_c, 0, 75, 64
2, 7780, Note_on_c, 0, 78, 63
2, 7801, Note_on_c, 0, 75, 0
2, 7802, Note_on_c, 0, 78, 0
2, 7816, Note_on_c, 0, 76, 67
2, 7816, Note_on_c, 0, 79, 68
2, 7819, Control_c, 0, 64, 127
2, 7845, Note_on_c, 0, 79, 0
2, 7845, Note_on_c, 0, 76, 0
2, 7850, Note_on_c, 0, 36, 0
2, 7851, Note_on_c, 0, 48, 0
2, 7860, Note_on_c, 0, 60, 68
2, 7860, Note_on_c, 0, 64, 66
2, 7860, Note_on_c, 0, 75, 66
2, 7860, Note_on_c, 0, 78, 65
2, 7881, Note_on_c, 0, 64, 0
2, 7888, Note_on_c, 0, 60, 0
2, 7888, Note_on_c, 0, 75, 0
2, 7888, Note_on_c, 0, 78, 0
2, 7899, Control_c, 0, 64, 0
2, 7903, Note_on_c, 0, 76, 69
2, 7904, Note_on_c, 0, 79, 69
2, 7934, Note_on_c, 0, 79, 0
2, 7934, Note_on_c, 0, 76, 0
2, 7943, Note_on_c, 0, 35, 68
2, 7945, Note_on_c, 0, 47, 69
2, 7947, Note_on_c, 0, 78, 70
2, 7947, Note_on_c, 0, 81, 72
2, 7976, Note_on_c, 0, 78, 0
2, 7977, Note_on_c, 0, 81, 0
2, 7986, Control_c, 0, 64, 127
2, 7991, Note_on_c, 0, 79, 69
2, 7992, Note_on_c, 0, 83, 71
2, 8018, Note_on_c, 0, 35, 0
2, 8020, Note_on_c, 0, 79, 0
2, 8021, Note_on_c, 0, 83, 0
2, 8026, Note_on_c, 0, 47, 0
2, 8026, Note_on_c, 0, 60, 68
2, 8026, Note_on_c, 0, 64, 69
2, 8035, Note_on_c, 0, 81, 71
2, 8035, Note_on_c, 0, 84, 72
2, 8052, Control_c, 0, 64, 0
2, 8056, Note_on_c, 0, 64, 0
2, 8056, Note_on_c, 0, 60, 0
2, 8063, Note_on_c, 0, 81, 0
2, 8073, Note_on_c, 0, 84, 0
2, 8079, Note_on_c, 0, 83, 71
2, 8080, Note_on_c, 0, 86, 71
2, 8103, Note_on_c, 0, 86, 0
2, 8118, Note_on_c, 0, 83, 0
2, 8118, Note_on_c, 0, 33, 69
2, 8119, Note_on_c, 0, 45, 69
2, 8128, Note_on_c, 0, 86, 71
2, 8129, Note_on_c, 0, 90, 72
2, 8145, Control_c, 0, 64, 127
2, 8152, Note_on_c, 0, 86, 0
2, 8158, Note_on_c, 0, 90, 0
2, 8169, Note_on_c, 0, 45, 0
2, 8170, Note_on_c, 0, 84, 75
2, 8170, Note_on_c, 0, 88, 75
2, 8175, Note_on_c, 0, 33, 0
2, 8200, Note_on_c, 0, 84, 0
2, 8201, Note_on_c, 0, 88, 0
2, 8221, Note_on_c, 0, 90, 75
2, 8226, Note_on_c, 0, 84, 77
2, 8227, Note_on_c, 0, 88, 78
2, 8232, Note_on_c, 0, 57, 72
2, 8232, Note_on_c, 0, 60, 72
2, 8232, Note_on_c, 0, 64, 76
2, 8243, Note_on_c, 0, 90, 0
2, 8254, Note_on_c, 0, 64, 0
2, 8256, Note_on_c, 0, 88, 0
2, 8261, Note_on_c, 0, 60, 0
2, 8261, Note_on_c, 0, 57, 0
2, 8263, Note_on_c, 0, 84, 0
2, 8292, Note_on_c, 0, 83, 75
2, 8293, Note_on_c, 0, 87, 75
2, 8316, Note_on_c, 0, 87, 0
2, 8316, Note_on_c, 0, 83, 0
2, 8351, Note_on_c, 0, 84, 77
2, 8351, Note_on_c, 0, 88, 78
2, 8381, Note_on_c, 0, 88, 0
2, 8381, Note_on_c, 0, 84, 0
2, 8536, Control_c, 0, 64, 0
2, 8536, Note_on_c, 0, 96, 79
2, 8537, Note_on_c, 0, 100, 81
2, 8566, Note_on_c, 0, 96, 0
2, 8567, Note_on_c, 0, 100, 0
2, 8651, Control_c, 0, 67, 127
2, 8815, Control_c, 0, 64, 127
2, 8858, Note_on_c, 0, 64, 43
2, 8863, Note_on_c, 0, 38, 43
2, 8864, Note_on_c, 0, 50, 43
2, 8894, Note_on_c, 0, 38, 0
2, 8895, Note_on_c, 0, 64, 0
2, 8895, Note_on_c, 0, 66, 44
2, 8901, Note_on_c, 0, 50, 0
2, 8930, Note_on_c, 0, 67, 46
2, 8940, Note_on_c, 0, 66, 0
2, 8960, Note_on_c, 0, 55, 48
2, 8960, Note_on_c, 0, 60, 49
2, 8961, Note_on_c, 0, 69, 51
2, 8962, Note_on_c, 0, 67, 0
2, 8972, Control_c, 0, 67, 0
2, 8982, Note_on_c, 0, 60, 0
2, 8989, Note_on_c, 0, 55, 0
2, 8998, Note_on_c, 0, 69, 0
2, 8998, Note_on_c, 0, 71, 58
2, 9027, Note_on_c, 0, 72, 58
2, 9032, Control_c, 0, 64, 0
2, 9036, Note_on_c, 0, 71, 0
2, 9059, Note_on_c, 0, 72, 0
2, 9064, Note_on_c, 0, 38, 52
2, 9064, Note_on_c, 0, 50, 52
2, 9065, Note_on_c, 0, 76, 64
2, 9091, Note_on_c, 0, 38, 0
2, 9092, Note_on_c, 0, 50, 0
2, 9094, Note_on_c, 0, 76, 0
2, 9219, Note_on_c, 0, 50, 54
2, 9220, Note_on_c, 0, 57, 56
2, 9220, Note_on_c, 0, 60, 56
2, 9220, Note_on_c, 0, 66, 61
2, 9250, Note_on_c, 0, 50, 0
2, 9251, Note_on_c, 0, 57, 0
2, 9251, Note_on_c, 0, 60, 0
2, 9251, Note_on_c, 0, 66, 0
2, 9400, Note_on_c, 0, 67, 58
2, 9410, Control_c, 0, 64, 127
2, 9415, Note_on_c, 0, 71, 52
2, 9422, Note_on_c, 0, 67, 0
2, 9423, Note_on_c, 0, 79, 55
2, 9426, Note_on_c, 0, 31, 55
2, 9427, Note_on_c, 0, 43, 56
2, 9437, Note_on_c, 0, 71, 0
2, 9446, Note_on_c, 0, 79, 0
2, 9449, Note_on_c, 0, 31, 0
2, 9449, Note_on_c, 0, 43, 0
2, 9486, Control_c, 0, 67, 127
2, 9595, Note_on_c, 0, 50, 49
2, 9595, Note_on_c, 0, 59, 49
2, 9625, Note_on_c, 0, 59, 0
2, 9634, Note_on_c, 0, 50, 0
2, 9727, Note_on_c, 0, 43, 49
2, 9727, Note_on_c, 0, 50, 53
2, 9763, Note_on_c, 0, 43, 0
2, 9764, Note_on_c, 0, 50, 0
2, 9839, Note_on_c, 0, 50, 50
2, 9839, Note_on_c, 0, 59, 44
2, 9869, Note_on_c, 0, 50, 0
2, 9870, Note_on_c, 0, 59, 0
2, 9918, Control_c, 0, 64, 0
2, 9957, Note_on_c, 0, 35, 49
2, 9958, Note_on_c, 0, 47, 53
2, 10007, Control_c, 0, 64, 127
2, 10062, Note_on_c, 0, 35, 0
2, 10072, Note_on_c, 0, 47, 0
2, 10075, Control_c, 0, 64, 0
2, 10077, Note_on_c, 0, 54, 49
2, 10078, Note_on_c, 0, 62, 49
2, 10099, Note_on_c, 0, 62, 0
2, 10099, Note_on_c, 0, 54, 0
2, 10166, Note_on_c, 0, 47, 48
2, 10166, Note_on_c, 0, 54, 49
2, 10167, Note_on_c, 0, 71, 50
2, 10196, Note_on_c, 0, 73, 50
2, 10203, Note_on_c, 0, 54, 0
2, 10203, Note_on_c, 0, 47, 0
2, 10218, Note_on_c, 0, 71, 0
2, 10233, Note_on_c, 0, 74, 50
2, 10242, Note_on_c, 0, 73, 0
2, 10261, Note_on_c, 0, 54, 50
2, 10262, Note_on_c, 0, 62, 51
2, 10263, Note_on_c, 0, 71, 49
2, 10268, Note_on_c, 0, 74, 0
2, 10291, Note_on_c, 0, 62, 0
2, 10298, Note_on_c, 0, 73, 52
2, 10307, Note_on_c, 0, 71, 0
2, 10312, Note_on_c, 0, 54, 0
2, 10328, Note_on_c, 0, 74, 54
2, 10337, Note_on_c, 0, 73, 0
2, 10356, Note_on_c, 0, 47, 53
2, 10357, Note_on_c, 0, 55, 53
2, 10358, Note_on_c, 0, 76, 55
2, 10364, Note_on_c, 0, 74, 0
2, 10384, Note_on_c, 0, 55, 0
2, 10385, Note_on_c, 0, 76, 0
2, 10391, Note_on_c, 0, 47, 0
2, 10451, Note_on_c, 0, 55, 50
2, 10452, Note_on_c, 0, 64, 53
2, 10452, Note_on_c, 0, 76, 55
2, 10481, Note_on_c, 0, 76, 0
2, 10481, Note_on_c, 0, 64, 0
2, 10487, Note_on_c, 0, 55, 0
2, 10547, Note_on_c, 0, 47, 49
2, 10548, Note_on_c, 0, 71, 55
2, 10553, Note_on_c, 0, 55, 49
2, 10572, Note_on_c, 0, 71, 0
2, 10577, Note_on_c, 0, 47, 0
2, 10584, Note_on_c, 0, 55, 0
2, 10638, Note_on_c, 0, 55, 49
2, 10639, Note_on_c, 0, 71, 55
2, 10645, Note_on_c, 0, 64, 54
2, 10666, Note_on_c, 0, 55, 0
2, 10667, Note_on_c, 0, 64, 0
2, 10667, Note_on_c, 0, 71, 0
2, 10730, Note_on_c, 0, 71, 51
2, 10744, Note_on_c, 0, 47, 49
2, 10744, Note_on_c, 0, 54, 49
2, 10745, Note_on_c, 0, 74, 66
2, 10765, Control_c, 0, 64, 127
2, 10790, Note_on_c, 0, 47, 0
2, 10791, Note_on_c, 0, 71, 0
2, 10791, Note_on_c, 0, 74, 0
2, 10805, Note_on_c, 0, 54, 0
2, 10841, Note_on_c, 0, 54, 49
2, 10842, Note_on_c, 0, 62, 49
2, 10873, Note_on_c, 0, 62, 0
2, 10905, Control_c, 0, 64, 0
2, 10929, Note_on_c, 0, 50, 49
2, 10938, Note_on_c, 0, 54, 0
2, 10939, Note_on_c, 0, 78, 50
2, 10966, Note_on_c, 0, 78, 0
2, 10975, Note_on_c, 0, 79, 50
2, 10984, Control_c, 0, 64, 127
2, 11005, Note_on_c, 0, 79, 0
2, 11005, Note_on_c, 0, 78, 50
2, 11010, Note_on_c, 0, 50, 0
2, 11026, Note_on_c, 0, 59, 49
2, 11032, Note_on_c, 0, 66, 49
2, 11033, Note_on_c, 0, 78, 0
2, 11033, Note_on_c, 0, 83, 54
2, 11069, Note_on_c, 0, 66, 0
2, 11069, Note_on_c, 0, 79, 52
2, 11079, Control_c, 0, 64, 0
2, 11093, Note_on_c, 0, 83, 0
2, 11098, Note_on_c, 0, 78, 54
2, 11111, Note_on_c, 0, 59, 0
2, 11113, Note_on_c, 0, 79, 0
2, 11115, Note_on_c, 0, 49, 53
2, 11119, Note_on_c, 0, 78, 0
2, 11126, Note_on_c, 0, 77, 55
2, 11148, Note_on_c, 0, 77, 0
2, 11154, Note_on_c, 0, 78, 54
2, 11171, Control_c, 0, 64, 127
2, 11182, Note_on_c, 0, 77, 54
2, 11183, Note_on_c, 0, 78, 0
2, 11195, Note_on_c, 0, 49, 0
2, 11209, Note_on_c, 0, 56, 53
2, 11210, Note_on_c, 0, 65, 54
2, 11212, Note_on_c, 0, 83, 57
2, 11218, Note_on_c, 0, 77, 0
2, 11238, Note_on_c, 0, 65, 0
2, 11238, Note_on_c, 0, 78, 54
2, 11245, Note_on_c, 0, 56, 0
2, 11263, Control_c, 0, 64, 0
2, 11268, Note_on_c, 0, 77, 54
2, 11270, Note_on_c, 0, 83, 0
2, 11283, Note_on_c, 0, 78, 0
2, 11294, Note_on_c, 0, 42, 53
2, 11296, Note_on_c, 0, 76, 54
2, 11304, Note_on_c, 0, 77, 0
2, 11320, Note_on_c, 0, 76, 0
2, 11326, Note_on_c, 0, 78, 54
2, 11344, Control_c, 0, 64, 127
2, 11356, Note_on_c, 0, 76, 54
2, 11361, Note_on_c, 0, 42, 0
2, 11363, Note_on_c, 0, 78, 0
2, 11384, Note_on_c, 0, 54, 53
2, 11385, Note_on_c, 0, 64, 55
2, 11386, Note_on_c, 0, 76, 0
2, 11386, Note_on_c, 0, 82, 60
2, 11406, Note_on_c, 0, 64, 0
2, 11413, Note_on_c, 0, 54, 0
2, 11414, Note_on_c, 0, 78, 55
2, 11422, Note_on_c, 0, 82, 0
2, 11424, Control_c, 0, 64, 0
2, 11444, Note_on_c, 0, 76, 54
2, 11451, Note_on_c, 0, 78, 0
2, 11466, Note_on_c, 0, 76, 0
2, 11471, Note_on_c, 0, 47, 53
2, 11473, Note_on_c, 0, 74, 57
2, 11503, Note_on_c, 0, 74, 0
2, 11503, Note_on_c, 0, 76, 53
2, 11513, Control_c, 0, 64, 127
2, 11533, Note_on_c, 0, 78, 52
2, 11538, Note_on_c, 0, 47, 0
2, 11539, Note_on_c, 0, 76, 0
2, 11560, Note_on_c, 0, 54, 49
2, 11561, Note_on_c, 0, 62, 49
2, 11561, Note_on_c, 0, 71, 54
2, 11570, Note_on_c, 0, 78, 0
2, 11585, Note_on_c, 0, 71, 0
2, 11591, Note_on_c, 0, 62, 0
2, 11591, Note_on_c, 0, 54, 0
2, 11635, Control_c, 0, 67, 0
2, 11647, Control_c, 0, 64, 0
2, 11656, Note_on_c, 0, 50, 52
2, 11656, Note_on_c, 0, 71, 60
2, 11679, Note_on_c, 0, 73, 58
2, 11687, Note_on_c, 0, 71, 0
2, 11707, Note_on_c, 0, 74, 55
2, 11711, Control_c, 0, 64, 127
2, 11729, Note_on_c, 0, 59, 55
2, 11731, Note_on_c, 0, 73, 0
2, 11737, Note_on_c, 0, 66, 58
2, 11737, Note_on_c, 0, 71, 60
2, 11744, Note_on_c, 0, 50, 0
2, 11752, Note_on_c, 0, 74, 0
2, 11772, Note_on_c, 0, 73, 59
2, 11780, Note_on_c, 0, 66, 0
2, 11781, Note_on_c, 0, 71, 0
2, 11801, Note_on_c, 0, 74, 57
2, 11813, Control_c, 0, 64, 0
2, 11818, Note_on_c, 0, 73, 0
2, 11829, Note_on_c, 0, 55, 56
2, 11830, Note_on_c, 0, 71, 59
2, 11830, Note_on_c, 0, 76, 60
2, 11837, Note_on_c, 0, 74, 0
2, 11837, Note_on_c, 0, 59, 0
2, 11868, Note_on_c, 0, 76, 0
2, 11933, Note_on_c, 0, 59, 53
2, 11934, Note_on_c, 0, 64, 64
2, 11934, Note_on_c, 0, 76, 66
2, 11936, Control_c, 0, 64, 127
2, 11963, Note_on_c, 0, 76, 0
2, 11968, Note_on_c, 0, 59, 0
2, 11969, Note_on_c, 0, 64, 0
2, 11986, Control_c, 0, 64, 0
2, 12020, Note_on_c, 0, 71, 0
2, 12020, Note_on_c, 0, 73, 57
2, 12026, Note_on_c, 0, 57, 52
2, 12028, Note_on_c, 0, 78, 60
2, 12033, Note_on_c, 0, 55, 0
2, 12064, Note_on_c, 0, 78, 0
2, 12119, Control_c, 0, 64, 127
2, 12123, Note_on_c, 0, 61, 52
2, 12124, Note_on_c, 0, 67, 61
2, 12124, Note_on_c, 0, 78, 62
2, 12154, Note_on_c, 0, 67, 0
2, 12160, Note_on_c, 0, 61, 0
2, 12160, Note_on_c, 0, 57, 0
2, 12161, Note_on_c, 0, 73, 0
2, 12168, Note_on_c, 0, 78, 0
2, 12193, Control_c, 0, 64, 0
2, 12227, Note_on_c, 0, 50, 55
2, 12227, Note_on_c, 0, 62, 58
2, 12228, Note_on_c, 0, 66, 61
2, 12228, Note_on_c, 0, 74, 63
2, 12275, Control_c, 0, 64, 127
2, 12293, Note_on_c, 0, 62, 0
2, 12306, Control_c, 0, 67, 127
2, 12330, Note_on_c, 0, 66, 0
2, 12331, Note_on_c, 0, 74, 0
2, 12337, Note_on_c, 0, 50, 0
2, 12337, Note_on_c, 0, 57, 49
2, 12337, Note_on_c, 0, 62, 48
2, 12367, Note_on_c, 0, 57, 0
2, 12376, Note_on_c, 0, 62, 0
2, 12400, Control_c, 0, 64, 0
2, 12424, Note_on_c, 0, 43, 48
2, 12424, Note_on_c, 0, 55, 49
2, 12425, Note_on_c, 0, 67, 49
2, 12454, Note_on_c, 0, 71, 50
2, 12464, Note_on_c, 0, 67, 0
2, 12484, Note_on_c, 0, 73, 52
2, 12495, Control_c, 0, 64, 127
2, 12499, Note_on_c, 0, 71, 0
2, 12513, Note_on_c, 0, 50, 49
2, 12521, Note_on_c, 0, 55, 0
2, 12522, Note_on_c, 0, 74, 56
2, 12529, Note_on_c, 0, 73, 0
2, 12535, Note_on_c, 0, 50, 0
2, 12535, Note_on_c, 0, 43, 0
2, 12551, Note_on_c, 0, 76, 59
2, 12566, Note_on_c, 0, 74, 0
2, 12569, Control_c, 0, 67, 0
2, 12579, Note_on_c, 0, 78, 63
2, 12594, Note_on_c, 0, 76, 0
2, 12605, Control_c, 0, 64, 0
2, 12610, Note_on_c, 0, 79, 64
2, 12616, Note_on_c, 0, 78, 0
2, 12620, Note_on_c, 0, 40, 54
2, 12621, Note_on_c, 0, 52, 55
2, 12638, Note_on_c, 0, 81, 68
2, 12644, Note_on_c, 0, 79, 0
2, 12666, Note_on_c, 0, 83, 70
2, 12684, Control_c, 0, 64, 127
2, 12689, Note_on_c, 0, 81, 0
2, 12694, Note_on_c, 0, 47, 52
2, 12696, Note_on_c, 0, 85, 70
2, 12702, Note_on_c, 0, 83, 0
2, 12707, Note_on_c, 0, 52, 0
2, 12712, Note_on_c, 0, 40, 0
2, 12722, Note_on_c, 0, 47, 0
2, 12724, Note_on_c, 0, 86, 74
2, 12733, Note_on_c, 0, 85, 0
2, 12747, Note_on_c, 0, 88, 76
2, 12756, Control_c, 0, 64, 0
2, 12771, Note_on_c, 0, 89, 76
2, 12778, Note_on_c, 0, 86, 0
2, 12792, Note_on_c, 0, 78, 76
2, 12793, Note_on_c, 0, 90, 79
2, 12795, Note_on_c, 0, 42, 54
2, 12797, Note_on_c, 0, 54, 55
2, 12808, Note_on_c, 0, 89, 0
2, 12808, Note_on_c, 0, 88, 0
2, 12813, Note_on_c, 0, 78, 0
2, 12823, Note_on_c, 0, 90, 0
2, 12844, Control_c, 0, 64, 127
2, 12904, Control_c, 0, 64, 0
2, 12907, Note_on_c, 0, 54, 0
2, 12914, Note_on_c, 0, 49, 66
2, 12919, Note_on_c, 0, 101, 74
2, 12926, Note_on_c, 0, 90, 73
2, 12927, Note_on_c, 0, 102, 77
2, 12935, Note_on_c, 0, 42, 0
2, 12936, Note_on_c, 0, 49, 0
2, 12951, Note_on_c, 0, 101, 0
2, 12955, Note_on_c, 0, 90, 0
2, 12957, Note_on_c, 0, 102, 0
2, 13068, Note_on_c, 0, 35, 71
2, 13069, Note_on_c, 0, 47, 76
2, 13072, Note_on_c, 0, 83, 79
2, 13072, Note_on_c, 0, 87, 79
2, 13073, Note_on_c, 0, 95, 78
2, 13088, Control_c, 0, 64, 127
2, 13132, Note_on_c, 0, 95, 0
2, 13138, Note_on_c, 0, 87, 0
2, 13153, Note_on_c, 0, 83, 0
2, 13217, Note_on_c, 0, 42, 61
2, 13226, Note_on_c, 0, 47, 0
2, 13240, Note_on_c, 0, 35, 0
2, 13333, Note_on_c, 0, 35, 62
2, 13334, Note_on_c, 0, 47, 69
2, 13344, Note_on_c, 0, 71, 69
2, 13349, Note_on_c, 0, 42, 0
2, 13374, Note_on_c, 0, 73, 68
2, 13383, Note_on_c, 0, 71, 0
2, 13405, Note_on_c, 0, 75, 65
2, 13420, Note_on_c, 0, 73, 0
2, 13425, Note_on_c, 0, 42, 61
2, 13432, Note_on_c, 0, 35, 0
2, 13432, Note_on_c, 0, 47, 0
2, 13433, Note_on_c, 0, 71, 60
2, 13440, Note_on_c, 0, 75, 0
2, 13454, Note_on_c, 0, 42, 0
2, 13464, Note_on_c, 0, 73, 61
2, 13480, Note_on_c, 0, 71, 0
2, 13502, Note_on_c, 0, 75, 61
2, 13511, Control_c, 0, 64, 0
2, 13525, Note_on_c, 0, 73, 0
2, 13528, Note_on_c, 0, 35, 67
2, 13529, Note_on_c, 0, 47, 68
2, 13530, Note_on_c, 0, 68, 64
2, 13530, Note_on_c, 0, 71, 66
2, 13531, Note_on_c, 0, 76, 67
2, 13546, Note_on_c, 0, 75, 0
2, 13554, Note_on_c, 0, 71, 0
2, 13554, Note_on_c, 0, 76, 0
2, 13561, Note_on_c, 0, 68, 0
2, 13586, Control_c, 0, 64, 127
2, 13625, Note_on_c, 0, 42, 63
2, 13627, Note_on_c, 0, 68, 61
2, 13627, Note_on_c, 0, 76, 62
2, 13631, Control_c, 0, 64, 0
2, 13633, Note_on_c, 0, 47, 0
2, 13634, Note_on_c, 0, 71, 62
2, 13640, Note_on_c, 0, 35, 0
2, 13647, Note_on_c, 0, 42, 0
2, 13650, Note_on_c, 0, 68, 0
2, 13650, Note_on_c, 0, 76, 0
2, 13657, Note_on_c, 0, 71, 0
2, 13728, Note_on_c, 0, 35, 63
2, 13729, Note_on_c, 0, 47, 68
2, 13730, Note_on_c, 0, 64, 67
2, 13731, Note_on_c, 0, 68, 68
2, 13731, Note_on_c, 0, 71, 70
2, 13740, Control_c, 0, 64, 127
2, 13759, Note_on_c, 0, 47, 0
2, 13760, Note_on_c, 0, 68, 0
2, 13760, Note_on_c, 0, 71, 0
2, 13760, Note_on_c, 0, 64, 0
2, 13779, Note_on_c, 0, 35, 0
2, 13826, Control_c, 0, 64, 0
2, 13827, Note_on_c, 0, 42, 62
2, 13829, Note_on_c, 0, 64, 58
2, 13829, Note_on_c, 0, 68, 57
2, 13829, Note_on_c, 0, 71, 57
2, 13850, Note_on_c, 0, 42, 0
2, 13851, Note_on_c, 0, 64, 0
2, 13851, Note_on_c, 0, 68, 0
2, 13851, Note_on_c, 0, 71, 0
2, 13933, Control_c, 0, 64, 127
2, 13934, Note_on_c, 0, 35, 69
2, 13935, Note_on_c, 0, 47, 69
2, 13936, Note_on_c, 0, 66, 69
2, 13936, Note_on_c, 0, 71, 70
2, 13936, Note_on_c, 0, 75, 69
2, 13965, Note_on_c, 0, 47, 0
2, 13969, Note_on_c, 0, 35, 0
2, 14032, Note_on_c, 0, 66, 0
2, 14036, Note_on_c, 0, 42, 61
2, 14056, Note_on_c, 0, 75, 0
2, 14060, Note_on_c, 0, 42, 0
2, 14069, Note_on_c, 0, 71, 0
2, 14139, Control_c, 0, 64, 0
2, 14140, Note_on_c, 0, 35, 70
2, 14141, Note_on_c, 0, 47, 71
2, 14141, Note_on_c, 0, 67, 68
2, 14141, Note_on_c, 0, 74, 68
2, 14172, Note_on_c, 0, 73, 68
2, 14194, Note_on_c, 0, 74, 0
2, 14202, Note_on_c, 0, 71, 64
2, 14224, Note_on_c, 0, 73, 0
2, 14234, Control_c, 0, 64, 127
2, 14236, Note_on_c, 0, 42, 60
2, 14238, Note_on_c, 0, 74, 60
2, 14242, Note_on_c, 0, 35, 0
2, 14244, Note_on_c, 0, 67, 0
2, 14250, Note_on_c, 0, 47, 0
2, 14260, Note_on_c, 0, 71, 0
2, 14265, Note_on_c, 0, 42, 0
2, 14266, Note_on_c, 0, 73, 61
2, 14290, Note_on_c, 0, 74, 0
2, 14296, Note_on_c, 0, 71, 61
2, 14318, Note_on_c, 0, 71, 0
2, 14320, Control_c, 0, 64, 0
2, 14325, Note_on_c, 0, 73, 0
2, 14336, Note_on_c, 0, 35, 62
2, 14337, Note_on_c, 0, 47, 63
2, 14339, Note_on_c, 0, 66, 62
2, 14340, Note_on_c, 0, 75, 64
2, 14346, Note_on_c, 0, 71, 65
2, 14414, Control_c, 0, 64, 127
2, 14430, Note_on_c, 0, 42, 56
2, 14439, Note_on_c, 0, 35, 0
2, 14447, Note_on_c, 0, 47, 0
2, 14461, Note_on_c, 0, 42, 0
2, 14463, Note_on_c, 0, 66, 0
2, 14463, Note_on_c, 0, 71, 0
2, 14469, Note_on_c, 0, 75, 0
2, 14515, Control_c, 0, 64, 0
2, 14539, Note_on_c, 0, 35, 56
2, 14540, Note_on_c, 0, 47, 57
2, 14542, Note_on_c, 0, 67, 57
2, 14543, Note_on_c, 0, 74, 58
2, 14572, Note_on_c, 0, 73, 58
2, 14593, Note_on_c, 0, 67, 0
2, 14594, Control_c, 0, 64, 127
2, 14601, Note_on_c, 0, 74, 0
2, 14607, Note_on_c, 0, 71, 57
2, 14627, Note_on_c, 0, 35, 0
2, 14627, Note_on_c, 0, 47, 0
2, 14631, Note_on_c, 0, 73, 0
2, 14656, Note_on_c, 0, 42, 56
2, 14659, Note_on_c, 0, 74, 60
2, 14675, Note_on_c, 0, 71, 0
2, 14686, Note_on_c, 0, 42, 0
2, 14688, Note_on_c, 0, 73, 57
2, 14712, Note_on_c, 0, 74, 0
2, 14726, Note_on_c, 0, 71, 55
2, 14728, Control_c, 0, 64, 0
2, 14749, Note_on_c, 0, 73, 0
2, 14751, Note_on_c, 0, 35, 52
2, 14755, Note_on_c, 0, 71, 0
2, 14775, Note_on_c, 0, 47, 52
2, 14785, Note_on_c, 0, 75, 57
2, 14797, Note_on_c, 0, 59, 57
2, 14798, Note_on_c, 0, 66, 59
2, 14815, Control_c, 0, 64, 127
2, 14826, Note_on_c, 0, 73, 61
2, 14832, Note_on_c, 0, 47, 0
2, 14844, Note_on_c, 0, 35, 0
2, 14854, Note_on_c, 0, 75, 0
2, 14861, Note_on_c, 0, 71, 61
2, 14883, Note_on_c, 0, 73, 0
2, 14894, Control_c, 0, 64, 0
2, 14905, Note_on_c, 0, 71, 0
2, 14905, Note_on_c, 0, 75, 56
2, 14943, Note_on_c, 0, 73, 53
2, 14958, Note_on_c, 0, 75, 0
2, 14979, Note_on_c, 0, 71, 56
2, 14983, Control_c, 0, 64, 127
2, 14994, Note_on_c, 0, 73, 0
2, 15016, Note_on_c, 0, 75, 59
2, 15022, Note_on_c, 0, 71, 0
2, 15052, Note_on_c, 0, 73, 58
2, 15067, Note_on_c, 0, 75, 0
2, 15088, Note_on_c, 0, 71, 57
2, 15097, Note_on_c, 0, 73, 0
2, 15124, Note_on_c, 0, 75, 59
2, 15145, Note_on_c, 0, 71, 0
2, 15160, Note_on_c, 0, 73, 57
2, 15187, Note_on_c, 0, 75, 0
2, 15193, Note_on_c, 0, 59, 0
2, 15200, Note_on_c, 0, 71, 57
2, 15206, Control_c, 0, 67, 127
2, 15216, Note_on_c, 0, 73, 0
2, 15223, Note_on_c, 0, 66, 0
2, 15245, Note_on_c, 0, 75, 54
2, 15259, Note_on_c, 0, 71, 0
2, 15286, Note_on_c, 0, 73, 54
2, 15303, Note_on_c, 0, 75, 0
2, 15328, Note_on_c, 0, 71, 53
2, 15344, Note_on_c, 0, 73, 0
2, 15380, Note_on_c, 0, 71, 0
2, 15395, Note_on_c, 0, 75, 49
2, 15448, Note_on_c, 0, 73, 49
2, 15470, Note_on_c, 0, 75, 0
2, 15505, Note_on_c, 0, 71, 50
2, 15506, Note_on_c, 0, 73, 0
2, 15542, Note_on_c, 0, 71, 0
2, 15544, Control_c, 0, 64, 0
2, 15544, Note_on_c, 0, 38, 49
2, 15569, Note_on_c, 0, 50, 51
2, 15570, Note_on_c, 0, 74, 55
2, 15608, Note_on_c, 0, 74, 0
2, 15653, Note_on_c, 0, 72, 50
2, 15689, Note_on_c, 0, 72, 0
2, 15693, Control_c, 0, 64, 127
2, 15741, Note_on_c, 0, 71, 45
2, 15772, Note_on_c, 0, 71, 0
2, 15820, Note_on_c, 0, 50, 0
2, 15839, Control_c, 0, 64, 0
2, 15843, Note_on_c, 0, 72, 55
2, 15856, Note_on_c, 0, 38, 0
2, 15873, Note_on_c, 0, 72, 0
2, 15951, Control_c, 0, 67, 0
2, 15981, Note_on_c, 0, 71, 53
2, 16012, Note_on_c, 0, 71, 0
2, 16152, Note_on_c, 0, 69, 53
2, 16182, Note_on_c, 0, 69, 0
2, 16318, Control_c, 0, 64, 127
2, 16327, Note_on_c, 0, 31, 56
2, 16336, Note_on_c, 0, 43, 56
2, 16337, Note_on_c, 0, 67, 69
2, 16337, Note_on_c, 0, 71, 70
2, 16337, Note_on_c, 0, 79, 69
2, 16349, Note_on_c, 0, 31, 0
2, 16359, Note_on_c, 0, 43, 0
2, 16360, Note_on_c, 0, 71, 0
2, 16360, Note_on_c, 0, 67, 0
2, 16360, Note_on_c, 0, 79, 0
2, 16371, Control_c, 0, 67, 127
2, 16503, Note_on_c, 0, 50, 53
2, 16503, Note_on_c, 0, 59, 53
2, 16533, Note_on_c, 0, 59, 0
2, 16539, Note_on_c, 0, 50, 0
2, 16642, Control_c, 0, 64, 0
2, 16644, Note_on_c, 0, 43, 49
2, 16645, Note_on_c, 0, 50, 49
2, 16666, Note_on_c, 0, 43, 0
2, 16667, Note_on_c, 0, 50, 0
2, 16760, Note_on_c, 0, 50, 49
2, 16760, Note_on_c, 0, 59, 49
2, 16791, Note_on_c, 0, 50, 0
2, 16792, Note_on_c, 0, 59, 0
2, 16868, Control_c, 0, 64, 127
2, 16870, Note_on_c, 0, 43, 49
2, 16870, Note_on_c, 0, 50, 49
2, 16894, Note_on_c, 0, 50, 0
2, 16900, Note_on_c, 0, 43, 0
2, 16982, Note_on_c, 0, 50, 49
2, 16983, Note_on_c, 0, 59, 49
2, 16984, Control_c, 0, 64, 0
2, 17004, Note_on_c, 0, 50, 0
2, 17005, Note_on_c, 0, 59, 0
2, 17087, Control_c, 0, 64, 127
2, 17091, Note_on_c, 0, 43, 49
2, 17092, Note_on_c, 0, 50, 49
2, 17123, Note_on_c, 0, 50, 0
2, 17128, Note_on_c, 0, 43, 0
2, 17218, Control_c, 0, 64, 0
2, 17228, Note_on_c, 0, 50, 49
2, 17228, Note_on_c, 0, 59, 49
2, 17249, Note_on_c, 0, 50, 0
2, 17250, Note_on_c, 0, 59, 0
2, 17360, Note_on_c, 0, 43, 49
2, 17361, Note_on_c, 0, 50, 49
2, 17363, Note_on_c, 0, 83, 52
2, 17364, Note_on_c, 0, 88, 52
2, 17390, Note_on_c, 0, 50, 0
2, 17390, Note_on_c, 0, 43, 0
2, 17394, Note_on_c, 0, 83, 0
2, 17394, Note_on_c, 0, 88, 0
2, 17473, Note_on_c, 0, 79, 50
2, 17475, Note_on_c, 0, 86, 52
2, 17496, Note_on_c, 0, 79, 0
2, 17497, Note_on_c, 0, 86, 0
2, 17567, Note_on_c, 0, 50, 49
2, 17567, Note_on_c, 0, 59, 49
2, 17571, Note_on_c, 0, 83, 52
2, 17571, Note_on_c, 0, 88, 52
2, 17593, Note_on_c, 0, 88, 0
2, 17597, Note_on_c, 0, 59, 0
2, 17601, Note_on_c, 0, 83, 0
2, 17605, Note_on_c, 0, 50, 0
2, 17666, Note_on_c, 0, 79, 50
2, 17667, Note_on_c, 0, 86, 52
2, 17697, Note_on_c, 0, 79, 0
2, 17698, Note_on_c, 0, 86, 0
2, 17738, Note_on_c, 0, 43, 49
2, 17740, Note_on_c, 0, 50, 49
2, 17750, Note_on_c, 0, 79, 53
2, 17750, Note_on_c, 0, 84, 56
2, 17769, Note_on_c, 0, 50, 0
2, 17775, Note_on_c, 0, 43, 0
2, 17779, Note_on_c, 0, 79, 0
2, 17780, Note_on_c, 0, 84, 0
2, 17813, Note_on_c, 0, 74, 50
2, 17814, Note_on_c, 0, 83, 52
2, 17835, Note_on_c, 0, 74, 0
2, 17836, Note_on_c, 0, 83, 0
2, 17869, Note_on_c, 0, 50, 49
2, 17870, Note_on_c, 0, 59, 49
2, 17871, Note_on_c, 0, 74, 50
2, 17872, Note_on_c, 0, 81, 51
2, 17892, Note_on_c, 0, 59, 0
2, 17898, Note_on_c, 0, 50, 0
2, 17899, Note_on_c, 0, 74, 0
2, 17900, Note_on_c, 0, 81, 0
2, 17920, Note_on_c, 0, 71, 50
2, 17921, Note_on_c, 0, 79, 51
2, 17951, Note_on_c, 0, 71, 0
2, 17958, Note_on_c, 0, 79, 0
2, 17967, Note_on_c, 0, 43, 52
2, 17968, Note_on_c, 0, 49, 53
2, 17977, Note_on_c, 0, 73, 55
2, 17978, Note_on_c, 0, 78, 55
2, 17995, Note_on_c, 0, 43, 0
2, 17999, Note_on_c, 0, 78, 0
2, 18004, Note_on_c, 0, 49, 0
2, 18005, Note_on_c, 0, 73, 0
2, 18026, Note_on_c, 0, 70, 54
2, 18026, Note_on_c, 0, 76, 54
2, 18048, Note_on_c, 0, 76, 0
2, 18048, Note_on_c, 0, 70, 0
2, 18067, Note_on_c, 0, 49, 53
2, 18069, Note_on_c, 0, 78, 54
2, 18075, Note_on_c, 0, 58, 53
2, 18075, Note_on_c, 0, 70, 56
2, 18076, Note_on_c, 0, 76, 57
2, 18091, Note_on_c, 0, 78, 0
2, 18096, Note_on_c, 0, 49, 0
2, 18096, Note_on_c, 0, 58, 0
2, 18105, Note_on_c, 0, 70, 0
2, 18105, Note_on_c, 0, 76, 0
2, 18119, Note_on_c, 0, 75, 54
2, 18156, Note_on_c, 0, 75, 0
2, 18166, Note_on_c, 0, 43, 53
2, 18166, Note_on_c, 0, 49, 53
2, 18168, Note_on_c, 0, 70, 59
2, 18168, Note_on_c, 0, 73, 60
2, 18168, Note_on_c, 0, 76, 61
2, 18170, Control_c, 0, 64, 127
2, 18187, Note_on_c, 0, 49, 0
2, 18193, Note_on_c, 0, 43, 0
2, 18197, Note_on_c, 0, 76, 0
2, 18198, Note_on_c, 0, 73, 0
2, 18205, Note_on_c, 0, 70, 0
2, 18261, Note_on_c, 0, 49, 53
2, 18262, Note_on_c, 0, 58, 53
2, 18292, Note_on_c, 0, 58, 0
2, 18299, Note_on_c, 0, 49, 0
2, 18305, Control_c, 0, 67, 0
2, 18338, Control_c, 0, 64, 0
2, 18369, Note_on_c, 0, 42, 56
2, 18370, Note_on_c, 0, 54, 56
2, 18371, Note_on_c, 0, 72, 58
2, 18371, Note_on_c, 0, 73, 58
2, 18392, Note_on_c, 0, 54, 0
2, 18399, Note_on_c, 0, 42, 0
2, 18400, Note_on_c, 0, 72, 0
2, 18400, Note_on_c, 0, 73, 0
2, 18423, Note_on_c, 0, 69, 56
2, 18423, Note_on_c, 0, 74, 57
2, 18452, Note_on_c, 0, 74, 0
2, 18462, Note_on_c, 0, 69, 0
2, 18466, Note_on_c, 0, 41, 56
2, 18467, Note_on_c, 0, 53, 56
2, 18469, Note_on_c, 0, 72, 60
2, 18469, Note_on_c, 0, 73, 61
2, 18495, Note_on_c, 0, 41, 0
2, 18496, Note_on_c, 0, 53, 0
2, 18497, Note_on_c, 0, 72, 0
2, 18498, Note_on_c, 0, 73, 0
2, 18518, Note_on_c, 0, 69, 57
2, 18519, Note_on_c, 0, 74, 57
2, 18541, Note_on_c, 0, 74, 0
2, 18547, Note_on_c, 0, 69, 0
2, 18559, Note_on_c, 0, 40, 56
2, 18560, Note_on_c, 0, 52, 56
2, 18562, Note_on_c, 0, 72, 59
2, 18562, Note_on_c, 0, 75, 60
2, 18583, Note_on_c, 0, 52, 0
2, 18585, Note_on_c, 0, 75, 0
2, 18589, Note_on_c, 0, 40, 0
2, 18591, Note_on_c, 0, 72, 0
2, 18605, Note_on_c, 0, 69, 57
2, 18605, Note_on_c, 0, 76, 57
2, 18635, Note_on_c, 0, 69, 0
2, 18636, Note_on_c, 0, 76, 0
2, 18645, Note_on_c, 0, 39, 56
2, 18647, Note_on_c, 0, 51, 56
2, 18649, Note_on_c, 0, 73, 59
2, 18649, Note_on_c, 0, 77, 60
2, 18671, Note_on_c, 0, 39, 0
2, 18673, Note_on_c, 0, 51, 0
2, 18675, Note_on_c, 0, 73, 0
2, 18675, Note_on_c, 0, 77, 0
2, 18688, Note_on_c, 0, 69, 56
2, 18688, Note_on_c, 0, 78, 57
2, 18716, Note_on_c, 0, 69, 0
2, 18717, Note_on_c, 0, 78, 0
2, 18726, Control_c, 0, 64, 127
2, 18728, Note_on_c, 0, 40, 61
2, 18730, Note_on_c, 0, 52, 61
2, 18731, Note_on_c, 0, 76, 62
2, 18732, Note_on_c, 0, 81, 65
2, 18763, Note_on_c, 0, 40, 0
2, 18765, Note_on_c, 0, 52, 0
2, 18767, Note_on_c, 0, 81, 0
2, 18779, Note_on_c, 0, 71, 61
2, 18779, Note_on_c, 0, 79, 61
2, 18794, Note_on_c, 0, 76, 0
2, 18795, Note_on_c, 0, 79, 0
2, 18795, Control_c, 0, 64, 0
2, 18801, Note_on_c, 0, 71, 0
2, 18809, Note_on_c, 0, 81, 63
2, 18814, Note_on_c, 0, 55, 60
2, 18814, Note_on_c, 0, 59, 60
2, 18816, Note_on_c, 0, 64, 60
2, 18825, Note_on_c, 0, 76, 61
2, 18825, Note_on_c, 0, 79, 62
2, 18837, Note_on_c, 0, 59, 0
2, 18838, Note_on_c, 0, 64, 0
2, 18839, Note_on_c, 0, 81, 0
2, 18844, Note_on_c, 0, 55, 0
2, 18854, Note_on_c, 0, 76, 0
2, 18862, Note_on_c, 0, 79, 0
2, 18862, Note_on_c, 0, 78, 61
2, 18899, Note_on_c, 0, 78, 0
2, 18901, Note_on_c, 0, 40, 60
2, 18903, Note_on_c, 0, 52, 60
2, 18904, Note_on_c, 0, 71, 62
2, 18904, Note_on_c, 0, 79, 62
2, 18905, Control_c, 0, 64, 127
2, 18911, Note_on_c, 0, 76, 62
2, 18937, Note_on_c, 0, 40, 0
2, 18938, Note_on_c, 0, 52, 0
2, 18940, Note_on_c, 0, 76, 0
2, 18947, Note_on_c, 0, 71, 0
2, 18948, Note_on_c, 0, 79, 0
2, 18992, Control_c, 0, 64, 0
2, 19003, Note_on_c, 0, 55, 60
2, 19003, Note_on_c, 0, 59, 60
2, 19004, Note_on_c, 0, 64, 60
2, 19034, Note_on_c, 0, 59, 0
2, 19035, Note_on_c, 0, 64, 0
2, 19041, Note_on_c, 0, 55, 0
2, 19097, Control_c, 0, 64, 127
2, 19099, Note_on_c, 0, 35, 60
2, 19099, Note_on_c, 0, 47, 60
2, 19103, Note_on_c, 0, 74, 62
2, 19103, Note_on_c, 0, 78, 62
2, 19119, Note_on_c, 0, 74, 0
2, 19129, Note_on_c, 0, 35, 0
2, 19130, Note_on_c, 0, 47, 0
2, 19135, Note_on_c, 0, 78, 0
2, 19149, Note_on_c, 0, 74, 61
2, 19150, Note_on_c, 0, 83, 63
2, 19180, Note_on_c, 0, 74, 0
2, 19189, Note_on_c, 0, 83, 0
2, 19189, Control_c, 0, 64, 0
2, 19198, Note_on_c, 0, 54, 61
2, 19200, Note_on_c, 0, 66, 60
2, 19201, Note_on_c, 0, 78, 61
2, 19201, Note_on_c, 0, 86, 63
2, 19222, Note_on_c, 0, 66, 0
2, 19223, Note_on_c, 0, 78, 0
2, 19224, Note_on_c, 0, 86, 0
2, 19228, Note_on_c, 0, 54, 0
2, 19243, Note_on_c, 0, 74, 61
2, 19244, Note_on_c, 0, 83, 63
2, 19274, Note_on_c, 0, 74, 0
2, 19276, Note_on_c, 0, 83, 0
2, 19291, Note_on_c, 0, 35, 60
2, 19292, Note_on_c, 0, 47, 60
2, 19296, Control_c, 0, 64, 127
2, 19296, Note_on_c, 0, 78, 62
2, 19298, Note_on_c, 0, 85, 63
2, 19321, Note_on_c, 0, 47, 0
2, 19325, Note_on_c, 0, 78, 0
2, 19327, Note_on_c, 0, 35, 0
2, 19327, Note_on_c, 0, 85, 0
2, 19337, Note_on_c, 0, 73, 60
2, 19337, Note_on_c, 0, 82, 63
2, 19365, Note_on_c, 0, 73, 0
2, 19366, Note_on_c, 0, 82, 0
2, 19376, Note_on_c, 0, 54, 61
2, 19378, Note_on_c, 0, 66, 60
2, 19386, Note_on_c, 0, 78, 62
2, 19387, Control_c, 0, 64, 0
2, 19387, Note_on_c, 0, 85, 63
2, 19405, Note_on_c, 0, 54, 0
2, 19407, Note_on_c, 0, 66, 0
2, 19415, Note_on_c, 0, 78, 0
2, 19417, Note_on_c, 0, 85, 0
2, 19468, Note_on_c, 0, 35, 56
2, 19469, Note_on_c, 0, 47, 54
2, 19473, Note_on_c, 0, 74, 62
2, 19474, Control_c, 0, 64, 127
2, 19474, Note_on_c, 0, 78, 63
2, 19507, Note_on_c, 0, 78, 0
2, 19507, Note_on_c, 0, 74, 0
2, 19509, Note_on_c, 0, 35, 0
2, 19510, Note_on_c, 0, 47, 0
2, 19514, Note_on_c, 0, 83, 61
2, 19552, Note_on_c, 0, 83, 0
2, 19562, Note_on_c, 0, 54, 57
2, 19563, Note_on_c, 0, 66, 57
2, 19564, Note_on_c, 0, 77, 58
2, 19564, Note_on_c, 0, 80, 58
2, 19565, Note_on_c, 0, 86, 59
2, 19582, Note_on_c, 0, 54, 0
2, 19584, Note_on_c, 0, 66, 0
2, 19594, Note_on_c, 0, 80, 0
2, 19600, Control_c, 0, 64, 0
2, 19609, Note_on_c, 0, 83, 59
2, 19624, Note_on_c, 0, 77, 0
2, 19624, Note_on_c, 0, 86, 0
2, 19631, Note_on_c, 0, 83, 0
2, 19638, Note_on_c, 0, 35, 56
2, 19640, Note_on_c, 0, 47, 56
2, 19644, Note_on_c, 0, 78, 58
2, 19644, Note_on_c, 0, 82, 60
2, 19645, Note_on_c, 0, 85, 59
2, 19688, Control_c, 0, 64, 127
2, 19715, Note_on_c, 0, 78, 0
2, 19716, Note_on_c, 0, 82, 0
2, 19716, Note_on_c, 0, 85, 0
2, 19725, Note_on_c, 0, 35, 0
2, 19726, Note_on_c, 0, 47, 0
2, 19747, Note_on_c, 0, 101, 58
2, 19752, Control_c, 0, 64, 0
2, 19757, Note_on_c, 0, 58, 56
2, 19757, Note_on_c, 0, 61, 57
2, 19758, Note_on_c, 0, 66, 52
2, 19768, Note_on_c, 0, 90, 57
2, 19769, Note_on_c, 0, 102, 61
2, 19770, Note_on_c, 0, 101, 0
2, 19780, Note_on_c, 0, 66, 0
2, 19787, Note_on_c, 0, 58, 0
2, 19787, Note_on_c, 0, 61, 0
2, 19793, Control_c, 0, 67, 127
2, 19805, Note_on_c, 0, 90, 0
2, 19807, Note_on_c, 0, 102, 0
2, 19871, Control_c, 0, 64, 127
2, 19872, Note_on_c, 0, 33, 49
2, 19873, Note_on_c, 0, 45, 49
2, 19877, Note_on_c, 0, 74, 50
2, 19878, Note_on_c, 0, 78, 50
2, 19894, Note_on_c, 0, 33, 0
2, 19896, Note_on_c, 0, 45, 0
2, 19912, Note_on_c, 0, 74, 0
2, 19913, Note_on_c, 0, 78, 0
2, 19928, Note_on_c, 0, 76, 49
2, 19928, Note_on_c, 0, 79, 50
2, 19960, Note_on_c, 0, 76, 0
2, 19966, Note_on_c, 0, 79, 0
2, 19977, Note_on_c, 0, 54, 48
2, 19978, Note_on_c, 0, 57, 49
2, 19978, Note_on_c, 0, 62, 50
2, 19979, Note_on_c, 0, 77, 50
2, 19980, Note_on_c, 0, 80, 50
2, 20000, Note_on_c, 0, 62, 0
2, 20000, Note_on_c, 0, 57, 0
2, 20008, Note_on_c, 0, 77, 0
2, 20009, Note_on_c, 0, 80, 0
2, 20014, Note_on_c, 0, 54, 0
2, 20023, Control_c, 0, 64, 0
2, 20023, Note_on_c, 0, 78, 55
2, 20024, Note_on_c, 0, 81, 56
2, 20051, Control_c, 0, 67, 0
2, 20053, Note_on_c, 0, 81, 0
2, 20057, Note_on_c, 0, 33, 56
2, 20058, Note_on_c, 0, 78, 0
2, 20058, Note_on_c, 0, 45, 56
2, 20064, Note_on_c, 0, 79, 61
2, 20064, Note_on_c, 0, 82, 64
2, 20100, Note_on_c, 0, 79, 0
2, 20101, Note_on_c, 0, 82, 0
2, 20106, Control_c, 0, 64, 127
2, 20106, Note_on_c, 0, 80, 57
2, 20106, Note_on_c, 0, 83, 58
2, 20131, Note_on_c, 0, 33, 0
2, 20132, Note_on_c, 0, 45, 0
2, 20137, Note_on_c, 0, 83, 0
2, 20144, Note_on_c, 0, 80, 0
2, 20146, Note_on_c, 0, 55, 56
2, 20146, Note_on_c, 0, 57, 56
2, 20146, Note_on_c, 0, 61, 55
2, 20150, Note_on_c, 0, 81, 62
2, 20150, Note_on_c, 0, 84, 63
2, 20156, Control_c, 0, 64, 0
2, 20176, Note_on_c, 0, 61, 0
2, 20176, Note_on_c, 0, 55, 0
2, 20176, Note_on_c, 0, 57, 0
2, 20179, Note_on_c, 0, 84, 0
2, 20188, Note_on_c, 0, 81, 0
2, 20194, Note_on_c, 0, 79, 61
2, 20195, Note_on_c, 0, 85, 64
2, 20224, Note_on_c, 0, 85, 0
2, 20224, Note_on_c, 0, 79, 0
2, 20233, Note_on_c, 0, 38, 60
2, 20235, Note_on_c, 0, 50, 61
2, 20237, Note_on_c, 0, 78, 65
2, 20238, Note_on_c, 0, 84, 68
2, 20239, Note_on_c, 0, 88, 69
2, 20266, Control_c, 0, 64, 127
2, 20267, Note_on_c, 0, 84, 0
2, 20273, Note_on_c, 0, 78, 0
2, 20280, Note_on_c, 0, 86, 71
2, 20284, Note_on_c, 0, 50, 0
2, 20289, Note_on_c, 0, 88, 0
2, 20290, Note_on_c, 0, 38, 0
2, 20312, Note_on_c, 0, 86, 0
2, 20323, Note_on_c, 0, 76, 69
2, 20368, Note_on_c, 0, 76, 0
2, 20368, Note_on_c, 0, 74, 68
2, 20391, Control_c, 0, 64, 0
2, 20396, Note_on_c, 0, 74, 0
2, 20416, Note_on_c, 0, 54, 68
2, 20417, Note_on_c, 0, 60, 68
2, 20417, Note_on_c, 0, 64, 69
2, 20444, Note_on_c, 0, 54, 0
2, 20445, Note_on_c, 0, 60, 0
2, 20446, Note_on_c, 0, 64, 0
2, 20484, Note_on_c, 0, 62, 68
2, 20515, Note_on_c, 0, 62, 0
2, 20597, Control_c, 0, 64, 127
2, 20597, Note_on_c, 0, 26, 76
2, 20599, Note_on_c, 0, 38, 75
2, 20634, Note_on_c, 0, 26, 0
2, 20636, Note_on_c, 0, 38, 0
2, 20784, Control_c, 0, 67, 127
2, 21063, Control_c, 0, 64, 0
2, 21086, Note_on_c, 0, 31, 43
2, 21087, Note_on_c, 0, 43, 43
2, 21091, Note_on_c, 0, 83, 47
2, 21092, Note_on_c, 0, 88, 47
2, 21121, Note_on_c, 0, 83, 0
2, 21121, Note_on_c, 0, 31, 0
2, 21122, Note_on_c, 0, 43, 0
2, 21122, Note_on_c, 0, 88, 0
2, 21224, Note_on_c, 0, 79, 45
2, 21225, Note_on_c, 0, 86, 52
2, 21253, Note_on_c, 0, 79, 0
2, 21254, Note_on_c, 0, 86, 0
2, 21328, Note_on_c, 0, 50, 49
2, 21330, Note_on_c, 0, 59, 49
2, 21331, Note_on_c, 0, 83, 52
2, 21332, Note_on_c, 0, 88, 52
2, 21355, Note_on_c, 0, 50, 0
2, 21357, Note_on_c, 0, 59, 0
2, 21361, Note_on_c, 0, 83, 0
2, 21361, Note_on_c, 0, 88, 0
2, 21425, Note_on_c, 0, 79, 50
2, 21426, Note_on_c, 0, 86, 52
2, 21453, Note_on_c, 0, 79, 0
2, 21454, Note_on_c, 0, 86, 0
2, 21497, Note_on_c, 0, 43, 49
2, 21498, Note_on_c, 0, 50, 49
2, 21510, Note_on_c, 0, 79, 49
2, 21511, Note_on_c, 0, 84, 52
2, 21528, Note_on_c, 0, 50, 0
2, 21534, Note_on_c, 0, 43, 0
2, 21539, Note_on_c, 0, 79, 0
2, 21541, Note_on_c, 0, 84, 0
2, 21572, Note_on_c, 0, 74, 50
2, 21574, Note_on_c, 0, 83, 52
2, 21602, Note_on_c, 0, 74, 0
2, 21603, Note_on_c, 0, 83, 0
2, 21636, Note_on_c, 0, 50, 49
2, 21637, Note_on_c, 0, 59, 49
2, 21638, Note_on_c, 0, 74, 50
2, 21639, Note_on_c, 0, 81, 52
2, 21659, Note_on_c, 0, 59, 0
2, 21665, Note_on_c, 0, 50, 0
2, 21667, Note_on_c, 0, 74, 0
2, 21668, Note_on_c, 0, 81, 0
2, 21690, Note_on_c, 0, 71, 50
2, 21690, Note_on_c, 0, 79, 50
2, 21721, Note_on_c, 0, 79, 0
2, 21727, Note_on_c, 0, 71, 0
2, 21745, Note_on_c, 0, 43, 51
2, 21745, Note_on_c, 0, 49, 52
2, 21750, Note_on_c, 0, 73, 53
2, 21750, Note_on_c, 0, 78, 54
2, 21776, Note_on_c, 0, 49, 0
2, 21780, Note_on_c, 0, 73, 0
2, 21782, Note_on_c, 0, 43, 0
2, 21787, Note_on_c, 0, 78, 0
2, 21793, Note_on_c, 0, 70, 54
2, 21793, Note_on_c, 0, 76, 54
2, 21816, Note_on_c, 0, 76, 0
2, 21831, Note_on_c, 0, 70, 0
2, 21846, Note_on_c, 0, 78, 54
2, 21853, Note_on_c, 0, 76, 56
2, 21857, Note_on_c, 0, 49, 53
2, 21858, Note_on_c, 0, 58, 53
2, 21868, Note_on_c, 0, 78, 0
2, 21877, Note_on_c, 0, 76, 0
2, 21880, Note_on_c, 0, 49, 0
2, 21881, Note_on_c, 0, 58, 0
2, 21906, Note_on_c, 0, 75, 55
2, 21928, Note_on_c, 0, 75, 0
2, 21935, Control_c, 0, 64, 127
2, 21939, Note_on_c, 0, 43, 53
2, 21940, Note_on_c, 0, 49, 53
2, 21942, Note_on_c, 0, 70, 57
2, 21942, Note_on_c, 0, 76, 58
2, 21951, Note_on_c, 0, 73, 59
2, 21976, Note_on_c, 0, 49, 0
2, 21986, Note_on_c, 0, 70, 0
2, 21987, Note_on_c, 0, 73, 0
2, 21987, Note_on_c, 0, 76, 0
2, 21989, Note_on_c, 0, 43, 0
2, 22047, Note_on_c, 0, 49, 53
2, 22048, Note_on_c, 0, 58, 53
2, 22058, Control_c, 0, 64, 0
2, 22076, Note_on_c, 0, 49, 0
2, 22077, Note_on_c, 0, 58, 0
2, 22078, Control_c, 0, 67, 0
2, 22147, Note_on_c, 0, 42, 56
2, 22147, Note_on_c, 0, 54, 56
2, 22149, Note_on_c, 0, 72, 58
2, 22150, Note_on_c, 0, 73, 58
2, 22171, Note_on_c, 0, 72, 0
2, 22172, Note_on_c, 0, 73, 0
2, 22182, Note_on_c, 0, 42, 0
2, 22183, Note_on_c, 0, 54, 0
2, 22199, Note_on_c, 0, 69, 57
2, 22199, Note_on_c, 0, 74, 57
2, 22220, Note_on_c, 0, 74, 0
2, 22220, Note_on_c, 0, 69, 0
2, 22237, Note_on_c, 0, 41, 56
2, 22239, Note_on_c, 0, 53, 56
2, 22240, Note_on_c, 0, 72, 58
2, 22240, Note_on_c, 0, 73, 58
2, 22259, Note_on_c, 0, 53, 0
2, 22261, Note_on_c, 0, 73, 0
2, 22261, Note_on_c, 0, 72, 0
2, 22263, Note_on_c, 0, 41, 0
2, 22279, Note_on_c, 0, 69, 57
2, 22280, Note_on_c, 0, 74, 57
2, 22309, Note_on_c, 0, 69, 0
2, 22310, Note_on_c, 0, 74, 0
2, 22327, Note_on_c, 0, 40, 56
2, 22329, Note_on_c, 0, 52, 56
2, 22330, Note_on_c, 0, 72, 58
2, 22331, Note_on_c, 0, 75, 58
2, 22348, Note_on_c, 0, 40, 0
2, 22349, Note_on_c, 0, 52, 0
2, 22351, Note_on_c, 0, 75, 0
2, 22358, Note_on_c, 0, 72, 0
2, 22372, Note_on_c, 0, 69, 57
2, 22373, Note_on_c, 0, 76, 57
2, 22396, Note_on_c, 0, 76, 0
2, 22403, Note_on_c, 0, 69, 0
2, 22412, Note_on_c, 0, 39, 56
2, 22414, Note_on_c, 0, 51, 56
2, 22416, Note_on_c, 0, 72, 58
2, 22416, Note_on_c, 0, 77, 58
2, 22438, Note_on_c, 0, 77, 0
2, 22440, Note_on_c, 0, 39, 0
2, 22441, Note_on_c, 0, 51, 0
2, 22443, Note_on_c, 0, 72, 0
2, 22456, Note_on_c, 0, 69, 62
2, 22456, Note_on_c, 0, 78, 62
2, 22478, Note_on_c, 0, 69, 0
2, 22479, Note_on_c, 0, 78, 0
2, 22485, Control_c, 0, 64, 127
2, 22489, Note_on_c, 0, 40, 60
2, 22490, Note_on_c, 0, 52, 60
2, 22501, Note_on_c, 0, 76, 61
2, 22501, Note_on_c, 0, 81, 64
2, 22512, Note_on_c, 0, 52, 0
2, 22518, Note_on_c, 0, 40, 0
2, 22529, Note_on_c, 0, 76, 0
2, 22530, Note_on_c, 0, 81, 0
2, 22542, Note_on_c, 0, 71, 61
2, 22543, Note_on_c, 0, 79, 61
2, 22565, Note_on_c, 0, 79, 0
2, 22572, Note_on_c, 0, 71, 0
2, 22576, Note_on_c, 0, 55, 60
2, 22576, Note_on_c, 0, 59, 60
2, 22577, Note_on_c, 0, 64, 60
2, 22578, Control_c, 0, 64, 0
2, 22578, Note_on_c, 0, 81, 63
2, 22584, Note_on_c, 0, 76, 60
2, 22585, Note_on_c, 0, 79, 62
2, 22600, Note_on_c, 0, 81, 0
2, 22605, Note_on_c, 0, 59, 0
2, 22606, Note_on_c, 0, 64, 0
2, 22607, Note_on_c, 0, 76, 0
2, 22611, Note_on_c, 0, 55, 0
2, 22624, Note_on_c, 0, 79, 0
2, 22636, Note_on_c, 0, 78, 61
2, 22667, Note_on_c, 0, 78, 0
2, 22668, Note_on_c, 0, 38, 60
2, 22669, Note_on_c, 0, 50, 60
2, 22671, Note_on_c, 0, 71, 62
2, 22672, Control_c, 0, 64, 127
2, 22672, Note_on_c, 0, 79, 62
2, 22680, Note_on_c, 0, 77, 61
2, 22709, Note_on_c, 0, 71, 0
2, 22713, Note_on_c, 0, 38, 0
2, 22714, Note_on_c, 0, 50, 0
2, 22716, Note_on_c, 0, 77, 0
2, 22716, Note_on_c, 0, 79, 0
2, 22769, Note_on_c, 0, 55, 60
2, 22770, Note_on_c, 0, 59, 60
2, 22770, Note_on_c, 0, 65, 60
2, 22793, Note_on_c, 0, 65, 0
2, 22799, Note_on_c, 0, 59, 0
2, 22805, Note_on_c, 0, 55, 0
2, 22815, Control_c, 0, 64, 0
2, 22860, Note_on_c, 0, 36, 60
2, 22861, Note_on_c, 0, 48, 61
2, 22864, Note_on_c, 0, 75, 62
2, 22864, Note_on_c, 0, 78, 62
2, 22886, Note_on_c, 0, 75, 0
2, 22887, Note_on_c, 0, 78, 0
2, 22893, Control_c, 0, 64, 127
2, 22906, Note_on_c, 0, 76, 61
2, 22906, Note_on_c, 0, 79, 61
2, 22923, Note_on_c, 0, 36, 0
2, 22932, Note_on_c, 0, 48, 0
2, 22936, Note_on_c, 0, 76, 0
2, 22936, Note_on_c, 0, 79, 0
2, 22948, Note_on_c, 0, 60, 60
2, 22948, Note_on_c, 0, 64, 61
2, 22949, Note_on_c, 0, 75, 63
2, 22949, Note_on_c, 0, 78, 64
2, 22970, Note_on_c, 0, 64, 0
2, 22977, Note_on_c, 0, 60, 0
2, 22978, Note_on_c, 0, 75, 0
2, 22978, Note_on_c, 0, 78, 0
2, 22992, Note_on_c, 0, 76, 60
2, 22992, Note_on_c, 0, 79, 61
2, 23001, Control_c, 0, 64, 0
2, 23023, Note_on_c, 0, 79, 0
2, 23023, Note_on_c, 0, 76, 0
2, 23032, Note_on_c, 0, 35, 62
2, 23034, Note_on_c, 0, 47, 63
2, 23038, Note_on_c, 0, 78, 63
2, 23038, Note_on_c, 0, 81, 66
2, 23066, Note_on_c, 0, 81, 0
2, 23066, Note_on_c, 0, 78, 0
2, 23080, Control_c, 0, 64, 127
2, 23087, Note_on_c, 0, 79, 61
2, 23088, Note_on_c, 0, 83, 63
2, 23113, Note_on_c, 0, 35, 0
2, 23114, Note_on_c, 0, 47, 0
2, 23118, Note_on_c, 0, 79, 0
2, 23120, Note_on_c, 0, 83, 0
2, 23130, Note_on_c, 0, 60, 62
2, 23131, Note_on_c, 0, 64, 61
2, 23132, Note_on_c, 0, 81, 64
2, 23132, Note_on_c, 0, 84, 64
2, 23159, Note_on_c, 0, 60, 0
2, 23168, Note_on_c, 0, 64, 0
2, 23169, Note_on_c, 0, 81, 0
2, 23177, Control_c, 0, 64, 0
2, 23179, Note_on_c, 0, 84, 0
2, 23185, Note_on_c, 0, 83, 67
2, 23185, Note_on_c, 0, 86, 67
2, 23208, Note_on_c, 0, 86, 0
2, 23215, Note_on_c, 0, 83, 0
2, 23230, Note_on_c, 0, 33, 67
2, 23231, Note_on_c, 0, 45, 68
2, 23236, Note_on_c, 0, 86, 69
2, 23237, Note_on_c, 0, 90, 70
2, 23265, Note_on_c, 0, 86, 0
2, 23273, Note_on_c, 0, 90, 0
2, 23285, Control_c, 0, 64, 127
2, 23301, Note_on_c, 0, 84, 67
2, 23302, Note_on_c, 0, 88, 67
2, 23324, Note_on_c, 0, 88, 0
2, 23324, Note_on_c, 0, 33, 0
2, 23326, Note_on_c, 0, 45, 0
2, 23331, Note_on_c, 0, 84, 0
2, 23345, Note_on_c, 0, 90, 67
2, 23356, Note_on_c, 0, 57, 64
2, 23357, Note_on_c, 0, 60, 64
2, 23357, Note_on_c, 0, 64, 66
2, 23359, Note_on_c, 0, 84, 70
2, 23359, Note_on_c, 0, 88, 71
2, 23374, Note_on_c, 0, 90, 0
2, 23376, Note_on_c, 0, 57, 0
2, 23377, Note_on_c, 0, 64, 0
2, 23377, Note_on_c, 0, 60, 0
2, 23388, Note_on_c, 0, 88, 0
2, 23388, Note_on_c, 0, 84, 0
2, 23416, Note_on_c, 0, 83, 67
2, 23416, Note_on_c, 0, 87, 67
2, 23438, Note_on_c, 0, 87, 0
2, 23444, Note_on_c, 0, 83, 0
2, 23457, Note_on_c, 0, 84, 69
2, 23458, Note_on_c, 0, 88, 70
2, 23486, Note_on_c, 0, 88, 0
2, 23486, Note_on_c, 0, 84, 0
2, 23569, Note_on_c, 0, 69, 64
2, 23576, Note_on_c, 0, 72, 65
2, 23592, Note_on_c, 0, 76, 65
2, 23598, Note_on_c, 0, 72, 0
2, 23608, Control_c, 0, 64, 0
2, 23612, Note_on_c, 0, 76, 0
2, 23612, Note_on_c, 0, 69, 0
2, 23614, Note_on_c, 0, 96, 71
2, 23614, Note_on_c, 0, 100, 75
2, 23635, Note_on_c, 0, 96, 0
2, 23636, Note_on_c, 0, 100, 0
2, 23812, Control_c, 0, 67, 127
2, 23964, Control_c, 0, 64, 127
2, 24002, Note_on_c, 0, 38, 43
2, 24003, Note_on_c, 0, 50, 43
2, 24005, Note_on_c, 0, 64, 44
2, 24041, Note_on_c, 0, 66, 46
2, 24047, Note_on_c, 0, 38, 0
2, 24055, Note_on_c, 0, 50, 0
2, 24063, Note_on_c, 0, 64, 0
2, 24077, Note_on_c, 0, 67, 45
2, 24099, Note_on_c, 0, 66, 0
2, 24111, Control_c, 0, 67, 0
2, 24112, Note_on_c, 0, 67, 0
2, 24112, Note_on_c, 0, 69, 53
2, 24125, Note_on_c, 0, 55, 49
2, 24125, Note_on_c, 0, 60, 50
2, 24146, Note_on_c, 0, 71, 56
2, 24153, Note_on_c, 0, 60, 0
2, 24153, Note_on_c, 0, 55, 0
2, 24160, Note_on_c, 0, 69, 0
2, 24175, Note_on_c, 0, 72, 62
2, 24177, Control_c, 0, 64, 0
2, 24197, Note_on_c, 0, 71, 0
2, 24202, Note_on_c, 0, 76, 62
2, 24213, Note_on_c, 0, 38, 52
2, 24213, Note_on_c, 0, 50, 52
2, 24217, Note_on_c, 0, 72, 0
2, 24232, Note_on_c, 0, 76, 0
2, 24242, Note_on_c, 0, 38, 0
2, 24243, Note_on_c, 0, 50, 0
2, 24365, Note_on_c, 0, 57, 52
2, 24365, Note_on_c, 0, 60, 52
2, 24372, Note_on_c, 0, 62, 51
2, 24372, Note_on_c, 0, 66, 61
2, 24395, Note_on_c, 0, 66, 0
2, 24395, Note_on_c, 0, 62, 0
2, 24395, Note_on_c, 0, 60, 0
2, 24401, Note_on_c, 0, 57, 0
2, 24532, Note_on_c, 0, 31, 52
2, 24544, Control_c, 0, 64, 127
2, 24557, Note_on_c, 0, 67, 68
2, 24564, Note_on_c, 0, 71, 70
2, 24568, Note_on_c, 0, 43, 52
2, 24572, Note_on_c, 0, 79, 69
2, 24576, Note_on_c, 0, 31, 0
2, 24580, Note_on_c, 0, 67, 0
2, 24587, Note_on_c, 0, 71, 0
2, 24594, Note_on_c, 0, 79, 0
2, 24600, Note_on_c, 0, 43, 0
2, 24615, Control_c, 0, 67, 127
2, 24757, Note_on_c, 0, 50, 49
2, 24758, Note_on_c, 0, 59, 49
2, 24794, Note_on_c, 0, 50, 0
2, 24802, Note_on_c, 0, 59, 0
2, 24879, Note_on_c, 0, 43, 49
2, 24880, Note_on_c, 0, 50, 49
2, 24914, Note_on_c, 0, 50, 0
2, 24914, Note_on_c, 0, 43, 0
2, 24984, Note_on_c, 0, 50, 48
2, 24985, Note_on_c, 0, 59, 49
2, 25013, Note_on_c, 0, 59, 0
2, 25019, Note_on_c, 0, 50, 0
2, 25087, Control_c, 0, 64, 0
2, 25088, Note_on_c, 0, 35, 53
2, 25089, Note_on_c, 0, 47, 53
2, 25117, Note_on_c, 0, 35, 0
2, 25118, Note_on_c, 0, 47, 0
2, 25210, Note_on_c, 0, 54, 52
2, 25217, Note_on_c, 0, 62, 49
2, 25239, Note_on_c, 0, 62, 0
2, 25239, Note_on_c, 0, 54, 0
2, 25312, Note_on_c, 0, 47, 48
2, 25312, Note_on_c, 0, 54, 49
2, 25312, Note_on_c, 0, 71, 54
2, 25317, Control_c, 0, 64, 127
2, 25341, Note_on_c, 0, 73, 52
2, 25356, Note_on_c, 0, 54, 0
2, 25357, Note_on_c, 0, 71, 0
2, 25371, Note_on_c, 0, 47, 0
2, 25372, Note_on_c, 0, 74, 50
2, 25394, Note_on_c, 0, 73, 0
2, 25408, Note_on_c, 0, 71, 54
2, 25414, Note_on_c, 0, 54, 49
2, 25414, Note_on_c, 0, 62, 49
2, 25415, Note_on_c, 0, 74, 0
2, 25438, Note_on_c, 0, 73, 55
2, 25445, Note_on_c, 0, 62, 0
2, 25459, Note_on_c, 0, 71, 0
2, 25465, Note_on_c, 0, 54, 0
2, 25465, Note_on_c, 0, 74, 52
2, 25480, Note_on_c, 0, 73, 0
2, 25491, Control_c, 0, 64, 0
2, 25499, Note_on_c, 0, 47, 49
2, 25499, Note_on_c, 0, 55, 49
2, 25500, Note_on_c, 0, 76, 46
2, 25507, Note_on_c, 0, 74, 0
2, 25529, Note_on_c, 0, 76, 0
2, 25534, Note_on_c, 0, 55, 0
2, 25534, Note_on_c, 0, 47, 0
2, 25567, Control_c, 0, 67, 0
2, 25605, Note_on_c, 0, 55, 52
2, 25605, Note_on_c, 0, 64, 56
2, 25606, Note_on_c, 0, 76, 60
2, 25634, Note_on_c, 0, 64, 0
2, 25635, Note_on_c, 0, 76, 0
2, 25641, Note_on_c, 0, 55, 0
2, 25697, Note_on_c, 0, 47, 52
2, 25697, Note_on_c, 0, 55, 52
2, 25698, Note_on_c, 0, 71, 64
2, 25726, Note_on_c, 0, 71, 0
2, 25731, Note_on_c, 0, 55, 0
2, 25731, Note_on_c, 0, 47, 0
2, 25796, Note_on_c, 0, 55, 51
2, 25797, Note_on_c, 0, 64, 61
2, 25797, Note_on_c, 0, 71, 62
2, 25818, Note_on_c, 0, 55, 0
2, 25819, Note_on_c, 0, 71, 0
2, 25819, Note_on_c, 0, 64, 0
2, 25878, Note_on_c, 0, 71, 57
2, 25882, Control_c, 0, 64, 127
2, 25897, Note_on_c, 0, 47, 52
2, 25898, Note_on_c, 0, 54, 52
2, 25898, Note_on_c, 0, 74, 68
2, 25908, Note_on_c, 0, 71, 0
2, 25920, Note_on_c, 0, 74, 0
2, 25927, Note_on_c, 0, 47, 0
2, 25941, Note_on_c, 0, 54, 0
2, 26001, Note_on_c, 0, 54, 52
2, 26001, Note_on_c, 0, 62, 52
2, 26038, Note_on_c, 0, 62, 0
2, 26043, Control_c, 0, 67, 127
2, 26082, Control_c, 0, 64, 0
2, 26090, Note_on_c, 0, 50, 49
2, 26098, Note_on_c, 0, 54, 0
2, 26104, Note_on_c, 0, 78, 50
2, 26134, Note_on_c, 0, 78, 0
2, 26134, Note_on_c, 0, 79, 50
2, 26141, Note_on_c, 0, 50, 0
2, 26159, Control_c, 0, 64, 127
2, 26170, Note_on_c, 0, 78, 50
2, 26176, Note_on_c, 0, 59, 50
2, 26177, Note_on_c, 0, 79, 0
2, 26205, Note_on_c, 0, 66, 49
2, 26206, Note_on_c, 0, 83, 54
2, 26213, Note_on_c, 0, 78, 0
2, 26228, Note_on_c, 0, 66, 0
2, 26234, Note_on_c, 0, 79, 54
2, 26241, Note_on_c, 0, 59, 0
2, 26268, Note_on_c, 0, 78, 53
2, 26273, Control_c, 0, 64, 0
2, 26278, Note_on_c, 0, 83, 0
2, 26283, Note_on_c, 0, 79, 0
2, 26287, Note_on_c, 0, 49, 50
2, 26298, Note_on_c, 0, 78, 0
2, 26304, Note_on_c, 0, 77, 53
2, 26317, Note_on_c, 0, 49, 0
2, 26332, Note_on_c, 0, 78, 52
2, 26333, Note_on_c, 0, 77, 0
2, 26344, Control_c, 0, 64, 127
2, 26350, Control_c, 0, 67, 0
2, 26361, Note_on_c, 0, 78, 0
2, 26361, Note_on_c, 0, 77, 53
2, 26388, Note_on_c, 0, 56, 53
2, 26389, Note_on_c, 0, 65, 52
2, 26389, Note_on_c, 0, 83, 55
2, 26396, Note_on_c, 0, 77, 0
2, 26409, Note_on_c, 0, 65, 0
2, 26415, Note_on_c, 0, 56, 0
2, 26415, Note_on_c, 0, 78, 57
2, 26437, Note_on_c, 0, 83, 0
2, 26443, Note_on_c, 0, 77, 57
2, 26447, Control_c, 0, 64, 0
2, 26459, Note_on_c, 0, 78, 0
2, 26463, Note_on_c, 0, 42, 56
2, 26464, Note_on_c, 0, 76, 59
2, 26480, Note_on_c, 0, 77, 0
2, 26492, Note_on_c, 0, 42, 0
2, 26493, Note_on_c, 0, 76, 0
2, 26494, Note_on_c, 0, 78, 57
2, 26532, Note_on_c, 0, 76, 57
2, 26536, Control_c, 0, 64, 127
2, 26539, Note_on_c, 0, 78, 0
2, 26560, Note_on_c, 0, 54, 56
2, 26560, Note_on_c, 0, 64, 58
2, 26562, Note_on_c, 0, 76, 0
2, 26562, Note_on_c, 0, 82, 63
2, 26583, Note_on_c, 0, 78, 59
2, 26588, Note_on_c, 0, 54, 0
2, 26589, Note_on_c, 0, 64, 0
2, 26611, Note_on_c, 0, 76, 56
2, 26619, Note_on_c, 0, 82, 0
2, 26632, Note_on_c, 0, 76, 0
2, 26632, Note_on_c, 0, 78, 0
2, 26636, Note_on_c, 0, 35, 53
2, 26638, Note_on_c, 0, 74, 59
2, 26642, Control_c, 0, 64, 0
2, 26652, Note_on_c, 0, 47, 52
2, 26675, Note_on_c, 0, 76, 57
2, 26680, Note_on_c, 0, 35, 0
2, 26681, Note_on_c, 0, 74, 0
2, 26688, Note_on_c, 0, 47, 0
2, 26711, Note_on_c, 0, 78, 54
2, 26718, Note_on_c, 0, 76, 0
2, 26724, Control_c, 0, 64, 127
2, 26739, Note_on_c, 0, 54, 52
2, 26740, Note_on_c, 0, 62, 53
2, 26740, Note_on_c, 0, 71, 56
2, 26747, Note_on_c, 0, 78, 0
2, 26769, Note_on_c, 0, 54, 0
2, 26770, Note_on_c, 0, 62, 0
2, 26770, Note_on_c, 0, 71, 0
2, 26787, Control_c, 0, 67, 127
2, 26824, Control_c, 0, 64, 0
2, 26834, Note_on_c, 0, 50, 53
2, 26834, Note_on_c, 0, 71, 55
2, 26867, Note_on_c, 0, 73, 53
2, 26881, Note_on_c, 0, 71, 0
2, 26901, Control_c, 0, 64, 127
2, 26905, Note_on_c, 0, 74, 54
2, 26912, Note_on_c, 0, 73, 0
2, 26918, Note_on_c, 0, 50, 0
2, 26932, Note_on_c, 0, 71, 55
2, 26940, Note_on_c, 0, 59, 53
2, 26940, Note_on_c, 0, 66, 58
2, 26947, Note_on_c, 0, 74, 0
2, 26966, Note_on_c, 0, 73, 58
2, 26972, Note_on_c, 0, 66, 0
2, 26980, Note_on_c, 0, 71, 0
2, 26991, Control_c, 0, 64, 0
2, 26992, Note_on_c, 0, 74, 55
2, 27013, Note_on_c, 0, 59, 0
2, 27014, Note_on_c, 0, 73, 0
2, 27021, Note_on_c, 0, 55, 56
2, 27021, Note_on_c, 0, 71, 58
2, 27021, Note_on_c, 0, 76, 59
2, 27028, Note_on_c, 0, 74, 0
2, 27051, Note_on_c, 0, 76, 0
2, 27121, Note_on_c, 0, 59, 54
2, 27122, Note_on_c, 0, 67, 58
2, 27122, Note_on_c, 0, 76, 59
2, 27139, Control_c, 0, 67, 0
2, 27143, Note_on_c, 0, 76, 0
2, 27150, Note_on_c, 0, 59, 0
2, 27151, Note_on_c, 0, 67, 0
2, 27214, Note_on_c, 0, 57, 58
2, 27215, Note_on_c, 0, 73, 61
2, 27215, Note_on_c, 0, 78, 62
2, 27223, Note_on_c, 0, 71, 0
2, 27230, Note_on_c, 0, 55, 0
2, 27259, Note_on_c, 0, 78, 0
2, 27282, Control_c, 0, 64, 127
2, 27322, Note_on_c, 0, 61, 56
2, 27322, Note_on_c, 0, 67, 60
2, 27323, Note_on_c, 0, 78, 62
2, 27345, Note_on_c, 0, 67, 0
2, 27345, Note_on_c, 0, 73, 0
2, 27352, Note_on_c, 0, 78, 0
2, 27357, Note_on_c, 0, 57, 0
2, 27358, Note_on_c, 0, 61, 0
2, 27424, Control_c, 0, 64, 0
2, 27424, Note_on_c, 0, 50, 63
2, 27425, Note_on_c, 0, 66, 63
2, 27425, Note_on_c, 0, 74, 65
2, 27511, Control_c, 0, 64, 127
2, 27526, Note_on_c, 0, 57, 56
2, 27526, Note_on_c, 0, 62, 56
2, 27548, Note_on_c, 0, 50, 0
2, 27549, Note_on_c, 0, 66, 0
2, 27556, Note_on_c, 0, 57, 0
2, 27556, Note_on_c, 0, 62, 0
2, 27571, Note_on_c, 0, 74, 0
2, 27620, Control_c, 0, 64, 0
2, 27643, Note_on_c, 0, 43, 62
2, 27644, Note_on_c, 0, 55, 64
2, 27644, Note_on_c, 0, 67, 67
2, 27672, Note_on_c, 0, 67, 0
2, 27672, Note_on_c, 0, 71, 71
2, 27701, Note_on_c, 0, 73, 72
2, 27712, Control_c, 0, 64, 127
2, 27716, Note_on_c, 0, 71, 0
2, 27729, Note_on_c, 0, 50, 58
2, 27736, Note_on_c, 0, 74, 74
2, 27742, Note_on_c, 0, 55, 0
2, 27743, Note_on_c, 0, 73, 0
2, 27750, Note_on_c, 0, 50, 0
2, 27757, Note_on_c, 0, 43, 0
2, 27770, Note_on_c, 0, 76, 70
2, 27785, Note_on_c, 0, 74, 0
2, 27798, Note_on_c, 0, 78, 68
2, 27803, Control_c, 0, 64, 0
2, 27805, Note_on_c, 0, 76, 0
2, 27827, Note_on_c, 0, 79, 64
2, 27832, Note_on_c, 0, 40, 58
2, 27832, Note_on_c, 0, 52, 59
2, 27833, Note_on_c, 0, 78, 0
2, 27856, Note_on_c, 0, 81, 64
2, 27862, Note_on_c, 0, 79, 0
2, 27886, Control_c, 0, 64, 127
2, 27891, Note_on_c, 0, 83, 64
2, 27906, Note_on_c, 0, 81, 0
2, 27910, Note_on_c, 0, 47, 56
2, 27920, Note_on_c, 0, 85, 64
2, 27926, Note_on_c, 0, 52, 0
2, 27928, Note_on_c, 0, 83, 0
2, 27940, Note_on_c, 0, 47, 0
2, 27940, Note_on_c, 0, 40, 0
2, 27950, Note_on_c, 0, 86, 64
2, 27956, Note_on_c, 0, 85, 0
2, 27979, Note_on_c, 0, 86, 0
2, 27979, Note_on_c, 0, 88, 68
2, 28000, Note_on_c, 0, 89, 69
2, 28002, Control_c, 0, 64, 0
2, 28024, Note_on_c, 0, 88, 0
2, 28025, Note_on_c, 0, 42, 55
2, 28026, Note_on_c, 0, 54, 56
2, 28028, Note_on_c, 0, 78, 69
2, 28029, Note_on_c, 0, 90, 72
2, 28043, Note_on_c, 0, 89, 0
2, 28048, Note_on_c, 0, 78, 0
2, 28058, Note_on_c, 0, 90, 0
2, 28096, Control_c, 0, 64, 127
2, 28158, Control_c, 0, 64, 0
2, 28163, Note_on_c, 0, 101, 66
2, 28167, Note_on_c, 0, 54, 0
2, 28167, Note_on_c, 0, 49, 60
2, 28177, Note_on_c, 0, 90, 63
2, 28178, Note_on_c, 0, 102, 67
2, 28189, Note_on_c, 0, 42, 0
2, 28190, Note_on_c, 0, 49, 0
2, 28193, Note_on_c, 0, 101, 0
2, 28207, Note_on_c, 0, 90, 0
2, 28208, Note_on_c, 0, 102, 0
2, 28311, Control_c, 0, 64, 127
2, 28320, Note_on_c, 0, 35, 73
2, 28321, Note_on_c, 0, 47, 73
2, 28323, Note_on_c, 0, 83, 76
2, 28323, Note_on_c, 0, 87, 76
2, 28324, Note_on_c, 0, 95, 75
2, 28352, Note_on_c, 0, 83, 0
2, 28353, Note_on_c, 0, 87, 0
2, 28353, Note_on_c, 0, 95, 0
2, 28453, Note_on_c, 0, 42, 70
2, 28469, Note_on_c, 0, 47, 0
2, 28490, Note_on_c, 0, 35, 0
2, 28531, Control_c, 0, 64, 0
2, 28538, Note_on_c, 0, 35, 55
2, 28539, Note_on_c, 0, 47, 54
2, 28555, Note_on_c, 0, 71, 52
2, 28561, Note_on_c, 0, 42, 0
2, 28583, Note_on_c, 0, 73, 55
2, 28590, Note_on_c, 0, 71, 0
2, 28612, Note_on_c, 0, 75, 58
2, 28623, Control_c, 0, 64, 127
2, 28627, Note_on_c, 0, 73, 0
2, 28639, Note_on_c, 0, 42, 60
2, 28640, Note_on_c, 0, 71, 58
2, 28653, Note_on_c, 0, 47, 0
2, 28654, Note_on_c, 0, 75, 0
2, 28659, Note_on_c, 0, 35, 0
2, 28667, Note_on_c, 0, 42, 0
2, 28683, Note_on_c, 0, 73, 61
2, 28698, Note_on_c, 0, 71, 0
2, 28714, Note_on_c, 0, 75, 61
2, 28724, Control_c, 0, 64, 0
2, 28728, Note_on_c, 0, 73, 0
2, 28740, Note_on_c, 0, 35, 68
2, 28741, Note_on_c, 0, 47, 69
2, 28742, Note_on_c, 0, 68, 62
2, 28742, Note_on_c, 0, 71, 64
2, 28742, Note_on_c, 0, 76, 65
2, 28748, Note_on_c, 0, 75, 0
2, 28764, Note_on_c, 0, 71, 0
2, 28764, Note_on_c, 0, 68, 0
2, 28764, Note_on_c, 0, 76, 0
2, 28825, Control_c, 0, 64, 127
2, 28842, Note_on_c, 0, 42, 63
2, 28844, Note_on_c, 0, 68, 58
2, 28844, Note_on_c, 0, 71, 58
2, 28844, Note_on_c, 0, 76, 57
2, 28857, Note_on_c, 0, 47, 0
2, 28864, Note_on_c, 0, 35, 0
2, 28865, Note_on_c, 0, 68, 0
2, 28870, Note_on_c, 0, 42, 0
2, 28872, Note_on_c, 0, 76, 0
2, 28873, Note_on_c, 0, 71, 0
2, 28919, Control_c, 0, 64, 0
2, 28941, Note_on_c, 0, 35, 57
2, 28942, Note_on_c, 0, 47, 57
2, 28943, Note_on_c, 0, 64, 57
2, 28943, Note_on_c, 0, 68, 57
2, 28943, Note_on_c, 0, 71, 57
2, 28964, Note_on_c, 0, 64, 0
2, 28965, Note_on_c, 0, 68, 0
2, 28965, Note_on_c, 0, 71, 0
2, 29011, Control_c, 0, 64, 127
2, 29039, Control_c, 0, 64, 0
2, 29040, Note_on_c, 0, 42, 60
2, 29041, Note_on_c, 0, 64, 57
2, 29041, Note_on_c, 0, 68, 57
2, 29041, Note_on_c, 0, 71, 57
2, 29060, Note_on_c, 0, 35, 0
2, 29061, Note_on_c, 0, 47, 0
2, 29062, Note_on_c, 0, 68, 0
2, 29062, Note_on_c, 0, 64, 0
2, 29062, Note_on_c, 0, 71, 0
2, 29068, Note_on_c, 0, 42, 0
2, 29146, Note_on_c, 0, 35, 63
2, 29146, Note_on_c, 0, 47, 72
2, 29147, Note_on_c, 0, 66, 72
2, 29148, Note_on_c, 0, 71, 74
2, 29148, Note_on_c, 0, 75, 74
2, 29157, Control_c, 0, 64, 127
2, 29208, Note_on_c, 0, 35, 0
2, 29209, Note_on_c, 0, 47, 0
2, 29226, Note_on_c, 0, 66, 0
2, 29244, Note_on_c, 0, 42, 63
2, 29266, Note_on_c, 0, 42, 0
2, 29268, Note_on_c, 0, 75, 0
2, 29277, Note_on_c, 0, 71, 0
2, 29344, Control_c, 0, 64, 0
2, 29360, Note_on_c, 0, 35, 56
2, 29361, Note_on_c, 0, 47, 57
2, 29362, Note_on_c, 0, 67, 57
2, 29362, Note_on_c, 0, 74, 58
2, 29391, Note_on_c, 0, 73, 56
2, 29412, Note_on_c, 0, 74, 0
2, 29428, Note_on_c, 0, 71, 57
2, 29432, Control_c, 0, 64, 127
2, 29449, Note_on_c, 0, 73, 0
2, 29460, Note_on_c, 0, 42, 56
2, 29462, Note_on_c, 0, 67, 0
2, 29467, Note_on_c, 0, 47, 0
2, 29469, Note_on_c, 0, 74, 57
2, 29473, Note_on_c, 0, 35, 0
2, 29477, Note_on_c, 0, 71, 0
2, 29482, Note_on_c, 0, 42, 0
2, 29497, Note_on_c, 0, 73, 56
2, 29520, Note_on_c, 0, 74, 0
2, 29527, Note_on_c, 0, 71, 57
2, 29545, Control_c, 0, 64, 0
2, 29550, Note_on_c, 0, 73, 0
2, 29560, Note_on_c, 0, 35, 58
2, 29560, Note_on_c, 0, 47, 59
2, 29561, Note_on_c, 0, 66, 56
2, 29562, Note_on_c, 0, 75, 58
2, 29570, Note_on_c, 0, 71, 0
2, 29645, Control_c, 0, 64, 127
2, 29667, Note_on_c, 0, 42, 53
2, 29680, Note_on_c, 0, 35, 0
2, 29681, Note_on_c, 0, 47, 0
2, 29682, Note_on_c, 0, 66, 0
2, 29696, Note_on_c, 0, 42, 0
2, 29697, Note_on_c, 0, 75, 0
2, 29764, Control_c, 0, 64, 0
2, 29780, Note_on_c, 0, 35, 59
2, 29780, Note_on_c, 0, 47, 60
2, 29782, Note_on_c, 0, 67, 59
2, 29782, Note_on_c, 0, 74, 61
2, 29824, Note_on_c, 0, 73, 58
2, 29839, Note_on_c, 0, 74, 0
2, 29857, Control_c, 0, 64, 127
2, 29859, Note_on_c, 0, 71, 57
2, 29872, Note_on_c, 0, 42, 56
2, 29874, Note_on_c, 0, 73, 0
2, 29888, Note_on_c, 0, 47, 0
2, 29889, Note_on_c, 0, 67, 0
2, 29895, Note_on_c, 0, 35, 0
2, 29901, Note_on_c, 0, 42, 0
2, 29902, Note_on_c, 0, 74, 57
2, 29919, Note_on_c, 0, 71, 0
2, 29942, Note_on_c, 0, 73, 57
2, 29971, Note_on_c, 0, 74, 0
2, 29971, Note_on_c, 0, 71, 57
2, 29991, Control_c, 0, 64, 0
2, 29994, Note_on_c, 0, 73, 0
2, 30016, Note_on_c, 0, 71, 0
2, 30016, Note_on_c, 0, 59, 59
2, 30016, Note_on_c, 0, 66, 59
2, 30016, Note_on_c, 0, 75, 61
2, 30062, Note_on_c, 0, 73, 61
2, 30091, Note_on_c, 0, 75, 0
2, 30112, Note_on_c, 0, 71, 58
2, 30114, Note_on_c, 0, 73, 0
2, 30159, Note_on_c, 0, 75, 57
2, 30166, Note_on_c, 0, 71, 0
2, 30195, Note_on_c, 0, 73, 57
2, 30210, Note_on_c, 0, 75, 0
2, 30232, Note_on_c, 0, 71, 57
2, 30238, Control_c, 0, 67, 127
2, 30249, Note_on_c, 0, 73, 0
2, 30253, Control_c, 0, 64, 127
2, 30277, Note_on_c, 0, 75, 51
2, 30293, Note_on_c, 0, 71, 0
2, 30305, Note_on_c, 0, 73, 51
2, 30335, Note_on_c, 0, 75, 0
2, 30349, Note_on_c, 0, 71, 51
2, 30364, Note_on_c, 0, 73, 0
2, 30383, Note_on_c, 0, 75, 50
2, 30399, Note_on_c, 0, 71, 0
2, 30417, Note_on_c, 0, 73, 49
2, 30439, Note_on_c, 0, 75, 0
2, 30458, Note_on_c, 0, 71, 50
2, 30473, Note_on_c, 0, 73, 0
2, 30504, Control_c, 0, 64, 0
2, 30508, Note_on_c, 0, 75, 50
2, 30509, Note_on_c, 0, 71, 0
2, 30556, Note_on_c, 0, 76, 50
2, 30571, Note_on_c, 0, 75, 0
2, 30595, Control_c, 0, 64, 127
2, 30615, Note_on_c, 0, 77, 50
2, 30637, Note_on_c, 0, 76, 0
2, 30656, Note_on_c, 0, 59, 0
2, 30657, Note_on_c, 0, 66, 0
2, 30664, Note_on_c, 0, 78, 50
2, 30673, Note_on_c, 0, 77, 0
2, 30708, Note_on_c, 0, 79, 50
2, 30714, Note_on_c, 0, 78, 0
2, 30742, Note_on_c, 0, 80, 50
2, 30758, Note_on_c, 0, 79, 0
2, 30786, Note_on_c, 0, 81, 53
2, 30802, Note_on_c, 0, 80, 0
2, 30831, Note_on_c, 0, 82, 55
2, 30852, Note_on_c, 0, 81, 0
2, 30873, Note_on_c, 0, 83, 56
2, 30888, Note_on_c, 0, 82, 0
2, 30909, Note_on_c, 0, 84, 56
2, 30910, Note_on_c, 0, 83, 0
2, 30939, Note_on_c, 0, 84, 0
2, 30945, Note_on_c, 0, 85, 56
2, 30980, Note_on_c, 0, 86, 56
2, 30981, Note_on_c, 0, 85, 0
2, 31010, Control_c, 0, 64, 0
2, 31020, Note_on_c, 0, 45, 50
2, 31021, Note_on_c, 0, 57, 49
2, 31025, Note_on_c, 0, 90, 52
2, 31032, Note_on_c, 0, 86, 0
2, 31043, Note_on_c, 0, 45, 0
2, 31049, Note_on_c, 0, 57, 0
2, 31062, Note_on_c, 0, 90, 0
2, 31170, Note_on_c, 0, 57, 49
2, 31170, Note_on_c, 0, 60, 49
2, 31170, Note_on_c, 0, 66, 49
2, 31180, Note_on_c, 0, 86, 51
2, 31182, Note_on_c, 0, 90, 52
2, 31192, Note_on_c, 0, 60, 0
2, 31193, Note_on_c, 0, 66, 0
2, 31199, Note_on_c, 0, 57, 0
2, 31203, Note_on_c, 0, 90, 0
2, 31216, Note_on_c, 0, 86, 0
2, 31317, Control_c, 0, 64, 127
2, 31334, Note_on_c, 0, 38, 49
2, 31336, Note_on_c, 0, 50, 49
2, 31339, Note_on_c, 0, 84, 52
2, 31339, Note_on_c, 0, 88, 52
2, 31361, Note_on_c, 0, 84, 0
2, 31362, Note_on_c, 0, 88, 0
2, 31363, Note_on_c, 0, 38, 0
2, 31364, Note_on_c, 0, 50, 0
2, 31518, Note_on_c, 0, 54, 48
2, 31519, Note_on_c, 0, 60, 53
2, 31526, Note_on_c, 0, 72, 50
2, 31526, Note_on_c, 0, 76, 50
2, 31538, Note_on_c, 0, 54, 0
2, 31539, Note_on_c, 0, 60, 0
2, 31563, Note_on_c, 0, 72, 0
2, 31563, Note_on_c, 0, 76, 0
2, 31563, Note_on_c, 0, 78, 53
2, 31573, Control_c, 0, 64, 0
2, 31598, Note_on_c, 0, 76, 54
2, 31628, Note_on_c, 0, 78, 0
2, 31629, Note_on_c, 0, 31, 50
2, 31630, Note_on_c, 0, 43, 49
2, 31634, Note_on_c, 0, 71, 58
2, 31634, Note_on_c, 0, 74, 59
2, 31635, Note_on_c, 0, 76, 0
2, 31671, Control_c, 0, 64, 127
2, 31694, Note_on_c, 0, 31, 0
2, 31695, Note_on_c, 0, 43, 0
2, 31696, Note_on_c, 0, 74, 0
2, 31706, Note_on_c, 0, 71, 0
2, 31731, Note_on_c, 0, 62, 49
2, 31732, Note_on_c, 0, 79, 51
2, 31733, Control_c, 0, 64, 0
2, 31733, Note_on_c, 0, 83, 52
2, 31752, Note_on_c, 0, 62, 0
2, 31753, Note_on_c, 0, 79, 0
2, 31754, Note_on_c, 0, 83, 0
2, 31824, Control_c, 0, 64, 127
2, 31825, Note_on_c, 0, 38, 52
2, 31826, Note_on_c, 0, 50, 53
2, 31862, Note_on_c, 0, 38, 0
2, 31864, Note_on_c, 0, 50, 0
2, 31879, Note_on_c, 0, 79, 54
2, 31880, Note_on_c, 0, 83, 56
2, 31899, Note_on_c, 0, 79, 0
2, 31900, Note_on_c, 0, 83, 0
2, 31917, Note_on_c, 0, 62, 50
2, 31934, Note_on_c, 0, 79, 54
2, 31934, Note_on_c, 0, 83, 57
2, 31940, Note_on_c, 0, 62, 0
2, 31956, Control_c, 0, 64, 0
2, 31961, Note_on_c, 0, 71, 54
2, 31971, Note_on_c, 0, 83, 0
2, 31984, Note_on_c, 0, 79, 0
2, 31990, Note_on_c, 0, 71, 0
2, 32002, Note_on_c, 0, 45, 53
2, 32003, Note_on_c, 0, 57, 53
2, 32005, Note_on_c, 0, 72, 55
2, 32033, Control_c, 0, 64, 127
2, 32049, Note_on_c, 0, 72, 0
2, 32055, Note_on_c, 0, 78, 54
2, 32056, Note_on_c, 0, 84, 56
2, 32066, Note_on_c, 0, 57, 0
2, 32074, Note_on_c, 0, 45, 0
2, 32078, Note_on_c, 0, 78, 0
2, 32079, Note_on_c, 0, 84, 0
2, 32096, Note_on_c, 0, 62, 54
2, 32104, Control_c, 0, 67, 0
2, 32105, Note_on_c, 0, 78, 61
2, 32105, Note_on_c, 0, 84, 64
2, 32117, Note_on_c, 0, 62, 0
2, 32139, Note_on_c, 0, 72, 60
2, 32141, Note_on_c, 0, 84, 0
2, 32141, Control_c, 0, 64, 0
2, 32153, Note_on_c, 0, 78, 0
2, 32167, Note_on_c, 0, 72, 0
2, 32178, Note_on_c, 0, 46, 56
2, 32179, Note_on_c, 0, 58, 56
2, 32180, Note_on_c, 0, 73, 61
2, 32219, Control_c, 0, 64, 127
2, 32224, Note_on_c, 0, 79, 59
2, 32225, Note_on_c, 0, 85, 60
2, 32232, Note_on_c, 0, 73, 0
2, 32248, Note_on_c, 0, 79, 0
2, 32248, Note_on_c, 0, 85, 0
2, 32250, Note_on_c, 0, 46, 0
2, 32251, Note_on_c, 0, 58, 0
2, 32268, Note_on_c, 0, 62, 58
2, 32275, Note_on_c, 0, 79, 60
2, 32275, Note_on_c, 0, 85, 63
2, 32288, Note_on_c, 0, 62, 0
2, 32301, Note_on_c, 0, 73, 59
2, 32302, Control_c, 0, 64, 0
2, 32318, Note_on_c, 0, 79, 0
2, 32319, Note_on_c, 0, 85, 0
2, 32338, Note_on_c, 0, 73, 0
2, 32344, Note_on_c, 0, 74, 61
2, 32348, Note_on_c, 0, 47, 60
2, 32349, Note_on_c, 0, 59, 61
2, 32388, Note_on_c, 0, 74, 0
2, 32388, Control_c, 0, 64, 127
2, 32394, Note_on_c, 0, 79, 60
2, 32395, Note_on_c, 0, 86, 63
2, 32416, Note_on_c, 0, 79, 0
2, 32417, Note_on_c, 0, 86, 0
2, 32429, Note_on_c, 0, 59, 0
2, 32429, Note_on_c, 0, 47, 0
2, 32436, Note_on_c, 0, 62, 59
2, 32443, Note_on_c, 0, 79, 63
2, 32444, Note_on_c, 0, 86, 66
2, 32464, Note_on_c, 0, 62, 0
2, 32482, Note_on_c, 0, 74, 62
2, 32499, Note_on_c, 0, 86, 0
2, 32517, Note_on_c, 0, 74, 0
2, 32518, Note_on_c, 0, 79, 0
2, 32539, Note_on_c, 0, 75, 63
2, 32575, Note_on_c, 0, 75, 0
2, 32594, Note_on_c, 0, 79, 61
2, 32595, Note_on_c, 0, 87, 63
2, 32616, Note_on_c, 0, 79, 0
2, 32617, Note_on_c, 0, 87, 0
2, 32645, Note_on_c, 0, 79, 59
2, 32646, Note_on_c, 0, 87, 59
2, 32650, Control_c, 0, 67, 127
2, 32682, Note_on_c, 0, 79, 0
2, 32688, Note_on_c, 0, 75, 50
2, 32690, Note_on_c, 0, 87, 0
2, 32704, Control_c, 0, 64, 0
2, 32717, Note_on_c, 0, 75, 0
2, 32746, Note_on_c, 0, 78, 50
2, 32748, Note_on_c, 0, 90, 52
2, 32749, Note_on_c, 0, 45, 43
2, 32751, Note_on_c, 0, 57, 43
2, 32754, Note_on_c, 0, 86, 52
2, 32770, Note_on_c, 0, 90, 0
2, 32772, Note_on_c, 0, 45, 0
2, 32773, Note_on_c, 0, 57, 0
2, 32775, Note_on_c, 0, 78, 0
2, 32776, Note_on_c, 0, 86, 0
2, 32846, Note_on_c, 0, 57, 47
2, 32846, Note_on_c, 0, 60, 49
2, 32846, Note_on_c, 0, 66, 49
2, 32847, Note_on_c, 0, 78, 49
2, 32848, Note_on_c, 0, 86, 52
2, 32848, Note_on_c, 0, 90, 51
2, 32867, Note_on_c, 0, 66, 0
2, 32872, Note_on_c, 0, 57, 0
2, 32873, Note_on_c, 0, 60, 0
2, 32874, Note_on_c, 0, 78, 0
2, 32875, Note_on_c, 0, 86, 0
2, 32876, Note_on_c, 0, 90, 0
2, 32934, Control_c, 0, 64, 127
2, 32936, Note_on_c, 0, 42, 49
2, 32946, Note_on_c, 0, 54, 49
2, 32948, Note_on_c, 0, 76, 54
2, 32948, Note_on_c, 0, 84, 57
2, 32949, Note_on_c, 0, 88, 56
2, 32972, Note_on_c, 0, 88, 0
2, 32973, Note_on_c, 0, 42, 0
2, 32974, Note_on_c, 0, 54, 0
2, 32986, Note_on_c, 0, 84, 0
2, 32992, Note_on_c, 0, 76, 0
2, 33032, Note_on_c, 0, 54, 50
2, 33033, Note_on_c, 0, 57, 52
2, 33033, Note_on_c, 0, 60, 53
2, 33040, Note_on_c, 0, 72, 50
2, 33040, Note_on_c, 0, 76, 50
2, 33041, Control_c, 0, 64, 0
2, 33061, Note_on_c, 0, 60, 0
2, 33061, Note_on_c, 0, 57, 0
2, 33062, Note_on_c, 0, 76, 0
2, 33066, Note_on_c, 0, 54, 0
2, 33068, Note_on_c, 0, 78, 54
2, 33074, Note_on_c, 0, 72, 0
2, 33096, Note_on_c, 0, 76, 54
2, 33119, Note_on_c, 0, 35, 52
2, 33120, Note_on_c, 0, 47, 51
2, 33124, Note_on_c, 0, 71, 57
2, 33125, Note_on_c, 0, 75, 58
2, 33132, Note_on_c, 0, 78, 0
2, 33137, Control_c, 0, 64, 127
2, 33138, Note_on_c, 0, 76, 0
2, 33158, Control_c, 0, 67, 0
2, 33177, Note_on_c, 0, 75, 0
2, 33179, Note_on_c, 0, 35, 0
2, 33181, Note_on_c, 0, 47, 0
2, 33190, Note_on_c, 0, 71, 0
2, 33214, Note_on_c, 0, 54, 58
2, 33215, Note_on_c, 0, 63, 59
2, 33216, Note_on_c, 0, 71, 62
2, 33217, Note_on_c, 0, 83, 64
2, 33225, Note_on_c, 0, 75, 62
2, 33242, Note_on_c, 0, 54, 0
2, 33243, Note_on_c, 0, 63, 0
2, 33251, Note_on_c, 0, 71, 0
2, 33258, Note_on_c, 0, 75, 0
2, 33258, Control_c, 0, 64, 0
2, 33260, Note_on_c, 0, 83, 0
2, 33297, Note_on_c, 0, 51, 60
2, 33301, Note_on_c, 0, 77, 62
2, 33343, Note_on_c, 0, 77, 0
2, 33343, Control_c, 0, 64, 127
2, 33343, Note_on_c, 0, 78, 60
2, 33358, Note_on_c, 0, 78, 0
2, 33376, Note_on_c, 0, 51, 0
2, 33384, Note_on_c, 0, 59, 60
2, 33386, Note_on_c, 0, 78, 62
2, 33392, Note_on_c, 0, 66, 61
2, 33421, Note_on_c, 0, 66, 0
2, 33444, Note_on_c, 0, 78, 0
2, 33444, Control_c, 0, 64, 0
2, 33444, Note_on_c, 0, 83, 62
2, 33471, Note_on_c, 0, 59, 0
2, 33476, Note_on_c, 0, 52, 60
2, 33495, Note_on_c, 0, 79, 63
2, 33518, Note_on_c, 0, 83, 0
2, 33524, Control_c, 0, 64, 127
2, 33531, Note_on_c, 0, 79, 0
2, 33531, Note_on_c, 0, 80, 61
2, 33546, Note_on_c, 0, 80, 0
2, 33558, Note_on_c, 0, 52, 0
2, 33565, Note_on_c, 0, 59, 60
2, 33572, Note_on_c, 0, 68, 63
2, 33574, Note_on_c, 0, 80, 65
2, 33608, Note_on_c, 0, 68, 0
2, 33609, Control_c, 0, 64, 0
2, 33626, Note_on_c, 0, 80, 0
2, 33626, Note_on_c, 0, 85, 63
2, 33664, Note_on_c, 0, 54, 60
2, 33666, Note_on_c, 0, 81, 67
2, 33672, Note_on_c, 0, 59, 0
2, 33677, Note_on_c, 0, 85, 0
2, 33702, Note_on_c, 0, 81, 0
2, 33709, Control_c, 0, 64, 127
2, 33715, Note_on_c, 0, 82, 64
2, 33737, Note_on_c, 0, 82, 0
2, 33741, Note_on_c, 0, 54, 0
2, 33755, Note_on_c, 0, 61, 60
2, 33768, Note_on_c, 0, 64, 56
2, 33769, Note_on_c, 0, 82, 58
2, 33775, Note_on_c, 0, 70, 55
2, 33791, Control_c, 0, 64, 0
2, 33804, Note_on_c, 0, 70, 0
2, 33810, Note_on_c, 0, 64, 0
2, 33812, Note_on_c, 0, 87, 61
2, 33819, Note_on_c, 0, 82, 0
2, 33842, Note_on_c, 0, 87, 0
2, 33846, Control_c, 0, 67, 127
2, 33852, Note_on_c, 0, 59, 53
2, 33853, Note_on_c, 0, 61, 0
2, 33875, Note_on_c, 0, 66, 53
2, 33899, Control_c, 0, 64, 127
2, 33904, Note_on_c, 0, 71, 54
2, 33920, Note_on_c, 0, 83, 54
2, 33926, Note_on_c, 0, 75, 50
2, 33931, Note_on_c, 0, 66, 0
2, 33932, Note_on_c, 0, 71, 0
2, 33938, Note_on_c, 0, 59, 0
2, 33960, Note_on_c, 0, 75, 0
2, 33966, Note_on_c, 0, 76, 45
2, 34009, Note_on_c, 0, 77, 44
2, 34016, Note_on_c, 0, 76, 0
2, 34039, Note_on_c, 0, 83, 0
2, 34045, Note_on_c, 0, 77, 0
2, 34045, Note_on_c, 0, 78, 40
2, 34074, Note_on_c, 0, 79, 43
2, 34088, Note_on_c, 0, 78, 0
2, 34103, Note_on_c, 0, 80, 49
2, 34119, Note_on_c, 0, 79, 0
2, 34141, Note_on_c, 0, 81, 56
2, 34147, Note_on_c, 0, 80, 0
2, 34169, Note_on_c, 0, 82, 59
2, 34176, Note_on_c, 0, 81, 0
2, 34182, Control_c, 0, 67, 0
2, 34199, Note_on_c, 0, 82, 0
2, 34199, Note_on_c, 0, 83, 64
2, 34228, Note_on_c, 0, 84, 63
2, 34244, Note_on_c, 0, 83, 0
2, 34250, Note_on_c, 0, 85, 63
2, 34265, Note_on_c, 0, 84, 0
2, 34281, Note_on_c, 0, 86, 63
2, 34288, Note_on_c, 0, 85, 0
2, 34293, Control_c, 0, 64, 0
2, 34311, Note_on_c, 0, 90, 65
2, 34316, Note_on_c, 0, 86, 0
2, 34318, Note_on_c, 0, 45, 60
2, 34320, Note_on_c, 0, 57, 60
2, 34339, Note_on_c, 0, 90, 0
2, 34349, Note_on_c, 0, 45, 0
2, 34350, Note_on_c, 0, 57, 0
2, 34452, Note_on_c, 0, 57, 60
2, 34453, Note_on_c, 0, 66, 60
2, 34459, Note_on_c, 0, 60, 60
2, 34461, Note_on_c, 0, 86, 61
2, 34462, Note_on_c, 0, 90, 60
2, 34473, Note_on_c, 0, 66, 0
2, 34480, Note_on_c, 0, 57, 0
2, 34480, Note_on_c, 0, 60, 0
2, 34491, Note_on_c, 0, 90, 0
2, 34497, Note_on_c, 0, 86, 0
2, 34579, Control_c, 0, 64, 127
2, 34589, Note_on_c, 0, 38, 60
2, 34590, Note_on_c, 0, 50, 60
2, 34595, Note_on_c, 0, 84, 72
2, 34595, Note_on_c, 0, 88, 72
2, 34623, Note_on_c, 0, 88, 0
2, 34623, Note_on_c, 0, 84, 0
2, 34624, Note_on_c, 0, 38, 0
2, 34646, Note_on_c, 0, 50, 0
2, 34783, Note_on_c, 0, 54, 60
2, 34784, Note_on_c, 0, 60, 60
2, 34807, Note_on_c, 0, 72, 61
2, 34807, Note_on_c, 0, 76, 62
2, 34813, Note_on_c, 0, 60, 0
2, 34819, Note_on_c, 0, 54, 0
2, 34857, Note_on_c, 0, 76, 0
2, 34857, Note_on_c, 0, 78, 61
2, 34863, Note_on_c, 0, 72, 0
2, 34892, Note_on_c, 0, 76, 61
2, 34893, Control_c, 0, 64, 0
2, 34923, Note_on_c, 0, 78, 0
2, 34924, Note_on_c, 0, 31, 60
2, 34936, Note_on_c, 0, 76, 0
2, 34936, Note_on_c, 0, 71, 64
2, 34936, Note_on_c, 0, 74, 65
2, 34940, Note_on_c, 0, 43, 60
2, 34974, Note_on_c, 0, 74, 0
2, 34989, Control_c, 0, 64, 127
2, 35010, Note_on_c, 0, 71, 0
2, 35012, Note_on_c, 0, 31, 0
2, 35022, Note_on_c, 0, 43, 0
2, 35059, Note_on_c, 0, 62, 60
2, 35061, Note_on_c, 0, 79, 62
2, 35061, Note_on_c, 0, 83, 64
2, 35080, Note_on_c, 0, 62, 0
2, 35083, Note_on_c, 0, 83, 0
2, 35089, Note_on_c, 0, 79, 0
2, 35150, Note_on_c, 0, 38, 60
2, 35151, Note_on_c, 0, 50, 60
2, 35179, Note_on_c, 0, 38, 0
2, 35195, Note_on_c, 0, 79, 61
2, 35195, Note_on_c, 0, 83, 63
2, 35200, Note_on_c, 0, 50, 0
2, 35209, Note_on_c, 0, 79, 0
2, 35210, Note_on_c, 0, 83, 0
2, 35235, Note_on_c, 0, 62, 63
2, 35236, Note_on_c, 0, 79, 59
2, 35237, Note_on_c, 0, 83, 60
2, 35256, Note_on_c, 0, 62, 0
2, 35272, Note_on_c, 0, 71, 61
2, 35273, Note_on_c, 0, 83, 0
2, 35280, Note_on_c, 0, 79, 0
2, 35280, Control_c, 0, 64, 0
2, 35299, Note_on_c, 0, 71, 0
2, 35317, Note_on_c, 0, 45, 61
2, 35319, Note_on_c, 0, 57, 60
2, 35319, Note_on_c, 0, 72, 58
2, 35347, Note_on_c, 0, 78, 56
2, 35348, Note_on_c, 0, 84, 59
2, 35354, Note_on_c, 0, 72, 0
2, 35364, Control_c, 0, 64, 127
2, 35369, Note_on_c, 0, 78, 0
2, 35370, Note_on_c, 0, 84, 0
2, 35380, Note_on_c, 0, 45, 0
2, 35390, Note_on_c, 0, 57, 0
2, 35402, Note_on_c, 0, 62, 57
2, 35403, Note_on_c, 0, 78, 58
2, 35404, Note_on_c, 0, 84, 60
2, 35430, Note_on_c, 0, 62, 0
2, 35430, Note_on_c, 0, 72, 57
2, 35440, Note_on_c, 0, 84, 0
2, 35440, Control_c, 0, 64, 0
2, 35454, Note_on_c, 0, 78, 0
2, 35466, Note_on_c, 0, 72, 0
2, 35477, Note_on_c, 0, 46, 56
2, 35478, Note_on_c, 0, 58, 56
2, 35482, Note_on_c, 0, 73, 59
2, 35512, Control_c, 0, 64, 127
2, 35517, Note_on_c, 0, 79, 58
2, 35518, Note_on_c, 0, 85, 59
2, 35524, Note_on_c, 0, 73, 0
2, 35536, Note_on_c, 0, 46, 0
2, 35536, Note_on_c, 0, 58, 0
2, 35538, Note_on_c, 0, 79, 0
2, 35539, Note_on_c, 0, 85, 0
2, 35564, Note_on_c, 0, 62, 58
2, 35565, Note_on_c, 0, 79, 60
2, 35566, Note_on_c, 0, 85, 63
2, 35580, Control_c, 0, 64, 0
2, 35585, Note_on_c, 0, 62, 0
2, 35602, Note_on_c, 0, 73, 61
2, 35625, Note_on_c, 0, 79, 0
2, 35626, Note_on_c, 0, 85, 0
2, 35639, Note_on_c, 0, 73, 0
2, 35651, Note_on_c, 0, 47, 60
2, 35652, Note_on_c, 0, 59, 60
2, 35653, Note_on_c, 0, 74, 64
2, 35670, Control_c, 0, 64, 127
2, 35690, Note_on_c, 0, 74, 0
2, 35690, Note_on_c, 0, 79, 62
2, 35691, Note_on_c, 0, 86, 63
2, 35703, Note_on_c, 0, 59, 0
2, 35703, Note_on_c, 0, 47, 0
2, 35704, Note_on_c, 0, 79, 0
2, 35705, Note_on_c, 0, 86, 0
2, 35730, Note_on_c, 0, 62, 60
2, 35731, Note_on_c, 0, 79, 62
2, 35732, Note_on_c, 0, 86, 64
2, 35752, Note_on_c, 0, 62, 0
2, 35776, Note_on_c, 0, 86, 0
2, 35776, Note_on_c, 0, 74, 60
2, 35799, Note_on_c, 0, 79, 0
2, 35805, Note_on_c, 0, 74, 0
2, 35824, Note_on_c, 0, 75, 63
2, 35853, Note_on_c, 0, 79, 61
2, 35854, Note_on_c, 0, 75, 0
2, 35855, Note_on_c, 0, 87, 63
2, 35868, Note_on_c, 0, 79, 0
2, 35869, Note_on_c, 0, 87, 0
2, 35894, Note_on_c, 0, 79, 64
2, 35895, Note_on_c, 0, 87, 68
2, 35929, Note_on_c, 0, 75, 64
2, 35944, Note_on_c, 0, 79, 0
2, 35954, Note_on_c, 0, 87, 0
2, 35966, Note_on_c, 0, 75, 0
2, 35972, Control_c, 0, 64, 0
2, 35976, Note_on_c, 0, 45, 67
2, 35977, Note_on_c, 0, 57, 68
2, 35979, Note_on_c, 0, 78, 70
2, 35981, Note_on_c, 0, 90, 73
2, 35988, Note_on_c, 0, 86, 74
2, 36001, Note_on_c, 0, 90, 0
2, 36002, Note_on_c, 0, 45, 0
2, 36003, Note_on_c, 0, 57, 0
2, 36005, Note_on_c, 0, 78, 0
2, 36007, Note_on_c, 0, 86, 0
2, 36064, Note_on_c, 0, 57, 67
2, 36064, Note_on_c, 0, 60, 63
2, 36065, Note_on_c, 0, 66, 70
2, 36067, Note_on_c, 0, 78, 72
2, 36067, Note_on_c, 0, 86, 75
2, 36068, Note_on_c, 0, 90, 76
2, 36086, Note_on_c, 0, 66, 0
2, 36086, Note_on_c, 0, 57, 0
2, 36086, Note_on_c, 0, 60, 0
2, 36090, Note_on_c, 0, 90, 0
2, 36095, Note_on_c, 0, 78, 0
2, 36096, Note_on_c, 0, 86, 0
2, 36142, Note_on_c, 0, 42, 60
2, 36143, Note_on_c, 0, 54, 60
2, 36144, Note_on_c, 0, 76, 72
2, 36146, Control_c, 0, 64, 127
2, 36146, Note_on_c, 0, 84, 75
2, 36146, Note_on_c, 0, 88, 76
2, 36171, Note_on_c, 0, 54, 0
2, 36172, Note_on_c, 0, 76, 0
2, 36174, Note_on_c, 0, 88, 0
2, 36174, Note_on_c, 0, 84, 0
2, 36175, Note_on_c, 0, 42, 0
2, 36224, Control_c, 0, 64, 0
2, 36229, Note_on_c, 0, 54, 60
2, 36229, Note_on_c, 0, 57, 60
2, 36230, Note_on_c, 0, 60, 59
2, 36230, Note_on_c, 0, 72, 70
2, 36231, Note_on_c, 0, 76, 71
2, 36253, Note_on_c, 0, 76, 0
2, 36253, Note_on_c, 0, 78, 68
2, 36257, Note_on_c, 0, 54, 0
2, 36257, Note_on_c, 0, 57, 0
2, 36258, Note_on_c, 0, 60, 0
2, 36259, Note_on_c, 0, 72, 0
2, 36281, Note_on_c, 0, 76, 69
2, 36306, Note_on_c, 0, 35, 66
2, 36307, Note_on_c, 0, 47, 67
2, 36309, Note_on_c, 0, 71, 72
2, 36309, Note_on_c, 0, 75, 73
2, 36311, Control_c, 0, 64, 127
2, 36325, Note_on_c, 0, 76, 0
2, 36325, Note_on_c, 0, 78, 0
2, 36338, Note_on_c, 0, 71, 0
2, 36343, Note_on_c, 0, 47, 0
2, 36345, Note_on_c, 0, 75, 0
2, 36350, Note_on_c, 0, 35, 0
2, 36391, Control_c, 0, 64, 0
2, 36395, Note_on_c, 0, 54, 63
2, 36396, Note_on_c, 0, 63, 62
2, 36397, Note_on_c, 0, 71, 62
2, 36397, Note_on_c, 0, 75, 61
2, 36398, Note_on_c, 0, 83, 62
2, 36417, Note_on_c, 0, 63, 0
2, 36419, Note_on_c, 0, 83, 0
2, 36423, Note_on_c, 0, 54, 0
2, 36424, Note_on_c, 0, 71, 0
2, 36424, Control_c, 0, 67, 127
2, 36425, Note_on_c, 0, 75, 0
2, 36474, Note_on_c, 0, 76, 56
2, 36487, Note_on_c, 0, 52, 53
2, 36496, Control_c, 0, 64, 127
2, 36502, Note_on_c, 0, 78, 58
2, 36519, Note_on_c, 0, 76, 0
2, 36524, Note_on_c, 0, 80, 58
2, 36536, Note_on_c, 0, 52, 0
2, 36547, Control_c, 0, 64, 0
2, 36549, Note_on_c, 0, 56, 57
2, 36550, Note_on_c, 0, 62, 57
2, 36551, Note_on_c, 0, 81, 60
2, 36552, Note_on_c, 0, 78, 0
2, 36566, Note_on_c, 0, 80, 0
2, 36570, Note_on_c, 0, 62, 0
2, 36576, Note_on_c, 0, 56, 0
2, 36584, Note_on_c, 0, 83, 60
2, 36599, Note_on_c, 0, 81, 0
2, 36613, Note_on_c, 0, 85, 60
2, 36636, Note_on_c, 0, 83, 0
2, 36638, Note_on_c, 0, 57, 58
2, 36641, Note_on_c, 0, 81, 61
2, 36648, Note_on_c, 0, 85, 0
2, 36668, Control_c, 0, 64, 127
2, 36668, Note_on_c, 0, 83, 60
2, 36675, Note_on_c, 0, 81, 0
2, 36690, Note_on_c, 0, 85, 60
2, 36708, Note_on_c, 0, 61, 58
2, 36709, Note_on_c, 0, 67, 60
2, 36712, Note_on_c, 0, 83, 0
2, 36718, Note_on_c, 0, 86, 65
2, 36723, Note_on_c, 0, 57, 0
2, 36723, Control_c, 0, 67, 0
2, 36731, Note_on_c, 0, 67, 0
2, 36731, Note_on_c, 0, 61, 0
2, 36732, Control_c, 0, 64, 0
2, 36733, Note_on_c, 0, 85, 0
2, 36746, Note_on_c, 0, 88, 71
2, 36760, Note_on_c, 0, 86, 0
2, 36774, Note_on_c, 0, 90, 71
2, 36787, Note_on_c, 0, 88, 0
2, 36789, Note_on_c, 0, 50, 68
2, 36793, Note_on_c, 0, 86, 71
2, 36808, Note_on_c, 0, 90, 0
2, 36821, Note_on_c, 0, 88, 70
2, 36828, Control_c, 0, 64, 127
2, 36834, Note_on_c, 0, 86, 0
2, 36849, Note_on_c, 0, 90, 71
2, 36863, Note_on_c, 0, 88, 0
2, 36874, Note_on_c, 0, 50, 0
2, 36874, Note_on_c, 0, 54, 68
2, 36875, Note_on_c, 0, 60, 67
2, 36879, Control_c, 0, 64, 0
2, 36879, Note_on_c, 0, 91, 71
2, 36880, Note_on_c, 0, 90, 0
2, 36904, Note_on_c, 0, 60, 0
2, 36908, Note_on_c, 0, 93, 71
2, 36912, Note_on_c, 0, 54, 0
2, 36917, Note_on_c, 0, 91, 0
2, 36939, Note_on_c, 0, 93, 0
2, 36939, Note_on_c, 0, 95, 71
2, 36955, Note_on_c, 0, 31, 71
2, 36955, Note_on_c, 0, 43, 72
2, 36961, Note_on_c, 0, 91, 74
2, 36971, Note_on_c, 0, 95, 0
2, 36990, Control_c, 0, 64, 127
2, 37013, Note_on_c, 0, 91, 0
2, 37021, Note_on_c, 0, 31, 0
2, 37022, Note_on_c, 0, 43, 0
2, 37124, Note_on_c, 0, 62, 79
2, 37124, Note_on_c, 0, 67, 93
2, 37125, Note_on_c, 0, 71, 93
2, 37129, Note_on_c, 0, 91, 96
2, 37129, Note_on_c, 0, 95, 96
2, 37130, Note_on_c, 0, 103, 98
2, 37146, Note_on_c, 0, 62, 0
2, 37147, Note_on_c, 0, 67, 0
2, 37147, Note_on_c, 0, 71, 0
2, 37149, Note_on_c, 0, 91, 0
2, 37149, Note_on_c, 0, 95, 0
2, 37150, Note_on_c, 0, 103, 0
2, 37522, Control_c, 0, 64, 0
2, 37522, End_track
0, 0, End_of_file
