0, 0, Header, 1, 2, 480
1, 0, Start_track
1, 0, Title_t, "Rigaudon"
1, 0, Title_t, "Op-55 No-06"
1, 0, Text_t, "Cecile Chaminade"
1, 0, Text_t, "\012"
1, 0, Time_signature, 4, 2, 24, 8
1, 0, Key_signature, 0, "major"
1, 0, Tempo, 288462
1, 20160, Tempo, 305732
1, 24000, Tempo, 291262
1, 26880, Time_signature, 2, 2, 24, 8
1, 27840, Time_signature, 4, 2, 24, 8
1, 49800, Tempo, 306905
1, 53760, Tempo, 286055
1, 56640, Time_signature, 2, 2, 24, 8
1, 57600, Time_signature, 4, 2, 24, 8
1, 79680, Tempo, 316623
1, 87360, Tempo, 304569
1, 95055, Tempo, 316623
1, 102720, Tempo, 304569
1, 111375, Tempo, 297767
1, 125760, Tempo, 309278
1, 133440, Tempo, 297767
1, 142080, Tempo, 309278
1, 164175, Tempo, 296663
1, 172800, Tempo, 288115
1, 187215, Tempo, 300000
1, 191055, Tempo, 286055
1, 193920, Time_signature, 2, 2, 24, 8
1, 194880, Time_signature, 4, 2, 24, 8
1, 194895, Tempo, 300000
1, 216975, Tempo, 316623
1, 220815, Tempo, 300000
1, 223680, Time_signature, 2, 2, 24, 8
1, 224640, Time_signature, 4, 2, 24, 8
1, 242880, Tempo, 336606
1, 243840, Tempo, 404722
1, 244800, Tempo, 458015
1, 245760, Tempo, 501044
1, 245760, End_track
2, 0, Start_track
2, 0, Title_t, "Piano"
2, 0, Program_c, 0, 0
2, 0, Control_c, 0, 7, 105
2, 0, Control_c, 0, 10, 63
2, 0, Control_c, 0, 91, 90
2, 0, Control_c, 0, 11, 110
2, 0, Program_c, 0, 0
2, 0, Control_c, 0, 7, 105
2, 0, Control_c, 0, 10, 73
2, 0, Control_c, 0, 91, 91
2, 0, Control_c, 0, 11, 110
2, 0, Program_c, 0, 0
2, 0, Control_c, 0, 7, 105
2, 0, Control_c, 0, 10, 54
2, 0, Control_c, 0, 91, 91
2, 0, Control_c, 0, 11, 110
2, 0, Program_c, 0, 0
2, 0, Control_c, 0, 7, 105
2, 0, Control_c, 0, 10, 44
2, 0, Control_c, 0, 91, 91
2, 0, Control_c, 0, 11, 110
2, 4800, Note_on_c, 0, 79, 77
2, 5040, Note_on_c, 0, 79, 0
2, 5280, Note_on_c, 0, 84, 86
2, 5520, Note_on_c, 0, 84, 0
2, 5760, Note_on_c, 0, 72, 79
2, 5760, Note_on_c, 0, 76, 79
2, 5760, Control_c, 0, 64, 127
2, 5760, Note_on_c, 0, 36, 74
2, 5760, Note_on_c, 0, 48, 74
2, 6240, Note_on_c, 0, 55, 70
2, 6720, Note_on_c, 0, 48, 0
2, 6720, Note_on_c, 0, 36, 0
2, 6720, Note_on_c, 0, 72, 0
2, 6720, Note_on_c, 0, 76, 0
2, 6720, Note_on_c, 0, 74, 75
2, 6720, Note_on_c, 0, 69, 67
2, 6720, Note_on_c, 0, 59, 76
2, 6720, Note_on_c, 0, 65, 76
2, 6720, Control_c, 0, 64, 0
2, 6840, Note_on_c, 0, 55, 0
2, 6960, Note_on_c, 0, 76, 69
2, 7035, Note_on_c, 0, 74, 0
2, 7200, Note_on_c, 0, 69, 0
2, 7200, Note_on_c, 0, 77, 74
2, 7200, Note_on_c, 0, 71, 71
2, 7200, Note_on_c, 0, 55, 69
2, 7275, Note_on_c, 0, 76, 0
2, 7320, Note_on_c, 0, 59, 0
2, 7320, Note_on_c, 0, 65, 0
2, 7440, Note_on_c, 0, 79, 76
2, 7515, Note_on_c, 0, 77, 0
2, 7680, Note_on_c, 0, 55, 0
2, 7680, Note_on_c, 0, 71, 0
2, 7680, Note_on_c, 0, 79, 0
2, 7680, Note_on_c, 0, 72, 79
2, 7680, Note_on_c, 0, 76, 79
2, 7680, Control_c, 0, 64, 127
2, 7680, Note_on_c, 0, 36, 67
2, 7680, Note_on_c, 0, 48, 73
2, 8160, Note_on_c, 0, 55, 70
2, 8640, Note_on_c, 0, 48, 0
2, 8640, Note_on_c, 0, 36, 0
2, 8640, Note_on_c, 0, 72, 0
2, 8640, Note_on_c, 0, 76, 0
2, 8640, Note_on_c, 0, 77, 76
2, 8640, Note_on_c, 0, 71, 69
2, 8640, Note_on_c, 0, 62, 75
2, 8640, Note_on_c, 0, 67, 75
2, 8640, Control_c, 0, 64, 0
2, 8760, Note_on_c, 0, 55, 0
2, 8880, Note_on_c, 0, 79, 79
2, 8955, Note_on_c, 0, 77, 0
2, 9120, Note_on_c, 0, 71, 0
2, 9120, Note_on_c, 0, 81, 77
2, 9120, Note_on_c, 0, 77, 78
2, 9120, Note_on_c, 0, 55, 66
2, 9195, Note_on_c, 0, 79, 0
2, 9240, Note_on_c, 0, 62, 0
2, 9240, Note_on_c, 0, 67, 0
2, 9360, Note_on_c, 0, 83, 83
2, 9435, Note_on_c, 0, 81, 0
2, 9600, Note_on_c, 0, 55, 0
2, 9600, Note_on_c, 0, 77, 0
2, 9600, Note_on_c, 0, 83, 0
2, 9600, Note_on_c, 0, 79, 85
2, 9600, Note_on_c, 0, 76, 76
2, 9600, Control_c, 0, 64, 127
2, 9600, Note_on_c, 0, 36, 70
2, 9600, Note_on_c, 0, 48, 70
2, 9840, Note_on_c, 0, 81, 78
2, 9915, Note_on_c, 0, 79, 0
2, 10080, Note_on_c, 0, 83, 84
2, 10080, Note_on_c, 0, 55, 66
2, 10155, Note_on_c, 0, 81, 0
2, 10320, Note_on_c, 0, 84, 79
2, 10395, Note_on_c, 0, 83, 0
2, 10500, Note_on_c, 0, 79, 73
2, 10560, Note_on_c, 0, 79, 0
2, 10560, Note_on_c, 0, 84, 0
2, 10560, Note_on_c, 0, 48, 0
2, 10560, Note_on_c, 0, 76, 0
2, 10560, Note_on_c, 0, 36, 0
2, 10560, Note_on_c, 0, 74, 79
2, 10560, Note_on_c, 0, 77, 79
2, 10560, Note_on_c, 0, 67, 74
2, 10560, Control_c, 0, 64, 0
2, 10680, Note_on_c, 0, 55, 0
2, 11040, Note_on_c, 0, 74, 0
2, 11040, Note_on_c, 0, 77, 0
2, 11040, Note_on_c, 0, 72, 73
2, 11040, Note_on_c, 0, 76, 73
2, 11040, Note_on_c, 0, 55, 67
2, 11160, Note_on_c, 0, 67, 0
2, 11520, Note_on_c, 0, 72, 0
2, 11520, Note_on_c, 0, 76, 0
2, 11520, Note_on_c, 0, 55, 0
2, 11520, Note_on_c, 0, 71, 78
2, 11520, Note_on_c, 0, 74, 78
2, 11520, Note_on_c, 0, 67, 69
2, 11520, Control_c, 0, 64, 127
2, 11520, Note_on_c, 0, 48, 72
2, 11760, Note_on_c, 0, 48, 0
2, 11760, Note_on_c, 0, 69, 75
2, 11760, Control_c, 0, 64, 0
2, 11820, Note_on_c, 0, 67, 0
2, 12000, Note_on_c, 0, 76, 71
2, 12000, Note_on_c, 0, 67, 67
2, 12060, Note_on_c, 0, 69, 0
2, 12075, Note_on_c, 0, 71, 0
2, 12075, Note_on_c, 0, 74, 0
2, 12240, Note_on_c, 0, 77, 73
2, 12240, Note_on_c, 0, 65, 71
2, 12300, Note_on_c, 0, 67, 0
2, 12315, Note_on_c, 0, 76, 0
2, 12480, Note_on_c, 0, 77, 0
2, 12480, Note_on_c, 0, 79, 82
2, 12480, Note_on_c, 0, 64, 65
2, 12540, Note_on_c, 0, 65, 0
2, 12720, Note_on_c, 0, 79, 0
2, 12720, Note_on_c, 0, 62, 65
2, 12780, Note_on_c, 0, 64, 0
2, 12960, Note_on_c, 0, 84, 83
2, 12960, Note_on_c, 0, 64, 61
2, 13020, Note_on_c, 0, 62, 0
2, 13200, Note_on_c, 0, 84, 0
2, 13200, Note_on_c, 0, 65, 64
2, 13260, Note_on_c, 0, 64, 0
2, 13440, Note_on_c, 0, 65, 0
2, 13440, Note_on_c, 0, 67, 83
2, 13440, Note_on_c, 0, 72, 83
2, 13440, Note_on_c, 0, 76, 83
2, 13920, Note_on_c, 0, 48, 68
2, 13920, Note_on_c, 0, 55, 63
2, 14400, Note_on_c, 0, 48, 0
2, 14400, Note_on_c, 0, 76, 0
2, 14400, Note_on_c, 0, 67, 0
2, 14400, Note_on_c, 0, 72, 0
2, 14400, Note_on_c, 0, 74, 78
2, 14400, Note_on_c, 0, 69, 71
2, 14400, Note_on_c, 0, 59, 74
2, 14400, Note_on_c, 0, 65, 74
2, 14520, Note_on_c, 0, 55, 0
2, 14640, Note_on_c, 0, 76, 72
2, 14715, Note_on_c, 0, 74, 0
2, 14880, Note_on_c, 0, 69, 0
2, 14880, Note_on_c, 0, 77, 78
2, 14880, Note_on_c, 0, 71, 74
2, 14880, Note_on_c, 0, 55, 70
2, 14955, Note_on_c, 0, 76, 0
2, 15000, Note_on_c, 0, 59, 0
2, 15000, Note_on_c, 0, 65, 0
2, 15120, Note_on_c, 0, 79, 76
2, 15195, Note_on_c, 0, 77, 0
2, 15360, Note_on_c, 0, 55, 0
2, 15360, Note_on_c, 0, 71, 0
2, 15360, Note_on_c, 0, 79, 0
2, 15360, Note_on_c, 0, 72, 84
2, 15360, Note_on_c, 0, 76, 84
2, 15360, Control_c, 0, 64, 127
2, 15360, Note_on_c, 0, 36, 71
2, 15360, Note_on_c, 0, 48, 71
2, 15840, Note_on_c, 0, 55, 70
2, 16320, Note_on_c, 0, 55, 0
2, 16320, Note_on_c, 0, 36, 0
2, 16320, Note_on_c, 0, 72, 0
2, 16320, Note_on_c, 0, 76, 0
2, 16320, Note_on_c, 0, 48, 0
2, 16320, Note_on_c, 0, 77, 80
2, 16320, Note_on_c, 0, 53, 75
2, 16320, Note_on_c, 0, 57, 75
2, 16320, Note_on_c, 0, 60, 75
2, 16320, Control_c, 0, 64, 0
2, 16560, Note_on_c, 0, 81, 79
2, 16635, Note_on_c, 0, 77, 0
2, 16800, Note_on_c, 0, 60, 0
2, 16800, Note_on_c, 0, 53, 0
2, 16800, Note_on_c, 0, 57, 0
2, 16800, Note_on_c, 0, 79, 87
2, 16800, Note_on_c, 0, 53, 69
2, 16800, Note_on_c, 0, 55, 64
2, 16800, Note_on_c, 0, 59, 67
2, 16800, Note_on_c, 0, 62, 62
2, 16875, Note_on_c, 0, 81, 0
2, 17040, Note_on_c, 0, 86, 83
2, 17115, Note_on_c, 0, 79, 0
2, 17235, Note_on_c, 0, 52, 72
2, 17280, Note_on_c, 0, 62, 0
2, 17280, Note_on_c, 0, 53, 0
2, 17280, Note_on_c, 0, 59, 0
2, 17280, Note_on_c, 0, 55, 0
2, 17280, Note_on_c, 0, 86, 0
2, 17280, Control_c, 0, 64, 127
2, 17295, Note_on_c, 0, 60, 78
2, 17355, Note_on_c, 0, 67, 80
2, 17415, Note_on_c, 0, 84, 82
2, 17520, Note_on_c, 0, 79, 78
2, 17730, Note_on_c, 0, 84, 0
2, 17760, Note_on_c, 0, 76, 76
2, 17835, Note_on_c, 0, 79, 0
2, 18000, Note_on_c, 0, 72, 75
2, 18075, Note_on_c, 0, 76, 0
2, 18195, Note_on_c, 0, 52, 0
2, 18240, Note_on_c, 0, 72, 0
2, 18240, Note_on_c, 0, 77, 75
2, 18240, Note_on_c, 0, 69, 72
2, 18240, Control_c, 0, 64, 0
2, 18240, Note_on_c, 0, 50, 72
2, 18240, Note_on_c, 0, 57, 72
2, 18255, Note_on_c, 0, 60, 0
2, 18315, Note_on_c, 0, 67, 0
2, 18360, Note_on_c, 0, 79, 80
2, 18435, Note_on_c, 0, 77, 0
2, 18480, Note_on_c, 0, 77, 75
2, 18555, Note_on_c, 0, 79, 0
2, 18720, Note_on_c, 0, 57, 0
2, 18720, Note_on_c, 0, 69, 0
2, 18720, Note_on_c, 0, 50, 0
2, 18720, Note_on_c, 0, 67, 74
2, 18720, Note_on_c, 0, 71, 74
2, 18720, Note_on_c, 0, 76, 74
2, 18720, Note_on_c, 0, 43, 66
2, 18720, Note_on_c, 0, 55, 66
2, 18795, Note_on_c, 0, 77, 0
2, 18960, Note_on_c, 0, 67, 0
2, 18960, Note_on_c, 0, 71, 0
2, 18960, Note_on_c, 0, 65, 73
2, 18960, Note_on_c, 0, 71, 73
2, 18960, Note_on_c, 0, 74, 73
2, 19035, Note_on_c, 0, 76, 0
2, 19200, Note_on_c, 0, 43, 0
2, 19200, Note_on_c, 0, 65, 0
2, 19200, Note_on_c, 0, 55, 0
2, 19200, Note_on_c, 0, 74, 0
2, 19200, Note_on_c, 0, 71, 0
2, 19200, Note_on_c, 0, 64, 77
2, 19200, Note_on_c, 0, 72, 77
2, 19200, Control_c, 0, 64, 127
2, 19200, Note_on_c, 0, 36, 73
2, 19200, Note_on_c, 0, 48, 73
2, 19920, Note_on_c, 0, 48, 0
2, 19920, Note_on_c, 0, 64, 0
2, 19920, Note_on_c, 0, 72, 0
2, 19920, Note_on_c, 0, 36, 0
2, 19920, Control_c, 0, 64, 0
2, 20160, Note_on_c, 0, 67, 77
2, 20160, Note_on_c, 0, 74, 86
2, 20160, Note_on_c, 0, 58, 80
2, 20160, Note_on_c, 0, 62, 70
2, 20640, Note_on_c, 0, 62, 0
2, 20640, Note_on_c, 0, 67, 0
2, 20640, Note_on_c, 0, 74, 0
2, 20640, Note_on_c, 0, 58, 0
2, 20640, Note_on_c, 0, 64, 87
2, 20640, Note_on_c, 0, 69, 78
2, 20640, Note_on_c, 0, 76, 87
2, 20640, Note_on_c, 0, 57, 77
2, 20640, Note_on_c, 0, 61, 67
2, 21120, Note_on_c, 0, 61, 0
2, 21120, Note_on_c, 0, 76, 0
2, 21120, Note_on_c, 0, 64, 0
2, 21120, Note_on_c, 0, 69, 0
2, 21120, Note_on_c, 0, 57, 0
2, 21120, Note_on_c, 0, 65, 95
2, 21120, Note_on_c, 0, 69, 86
2, 21120, Note_on_c, 0, 74, 86
2, 21120, Note_on_c, 0, 77, 95
2, 21120, Note_on_c, 0, 38, 83
2, 21120, Note_on_c, 0, 45, 83
2, 21120, Note_on_c, 0, 50, 73
2, 21840, Note_on_c, 0, 77, 0
2, 21840, Note_on_c, 0, 74, 0
2, 21840, Note_on_c, 0, 65, 0
2, 21840, Note_on_c, 0, 69, 0
2, 21840, Note_on_c, 0, 76, 84
2, 22080, Note_on_c, 0, 50, 0
2, 22080, Note_on_c, 0, 45, 0
2, 22080, Note_on_c, 0, 38, 0
2, 22080, Note_on_c, 0, 74, 89
2, 22080, Note_on_c, 0, 58, 77
2, 22080, Note_on_c, 0, 62, 67
2, 22125, Note_on_c, 0, 76, 0
2, 22320, Note_on_c, 0, 76, 83
2, 22365, Note_on_c, 0, 74, 0
2, 22560, Note_on_c, 0, 62, 0
2, 22560, Note_on_c, 0, 58, 0
2, 22560, Note_on_c, 0, 74, 88
2, 22560, Note_on_c, 0, 57, 75
2, 22560, Note_on_c, 0, 61, 65
2, 22605, Note_on_c, 0, 76, 0
2, 22800, Note_on_c, 0, 76, 83
2, 22845, Note_on_c, 0, 74, 0
2, 23040, Note_on_c, 0, 61, 0
2, 23040, Note_on_c, 0, 57, 0
2, 23040, Note_on_c, 0, 76, 0
2, 23040, Note_on_c, 0, 65, 88
2, 23040, Note_on_c, 0, 74, 79
2, 23040, Note_on_c, 0, 77, 88
2, 23040, Note_on_c, 0, 38, 80
2, 23040, Note_on_c, 0, 45, 80
2, 23040, Note_on_c, 0, 50, 70
2, 24000, Note_on_c, 0, 50, 0
2, 24000, Note_on_c, 0, 74, 0
2, 24000, Note_on_c, 0, 77, 0
2, 24000, Note_on_c, 0, 65, 0
2, 24000, Note_on_c, 0, 45, 0
2, 24000, Note_on_c, 0, 38, 0
2, 24000, Note_on_c, 0, 89, 60
2, 24120, Note_on_c, 0, 89, 0
2, 24240, Note_on_c, 0, 86, 55
2, 24360, Note_on_c, 0, 86, 0
2, 24480, Note_on_c, 0, 79, 65
2, 24480, Note_on_c, 0, 91, 65
2, 24600, Note_on_c, 0, 91, 0
2, 24600, Note_on_c, 0, 79, 0
2, 24720, Note_on_c, 0, 59, 48
2, 24720, Note_on_c, 0, 62, 46
2, 24720, Note_on_c, 0, 67, 52
2, 24840, Note_on_c, 0, 67, 0
2, 24840, Note_on_c, 0, 62, 0
2, 24840, Note_on_c, 0, 59, 0
2, 24960, Note_on_c, 0, 88, 59
2, 24960, Note_on_c, 0, 60, 64
2, 24960, Note_on_c, 0, 64, 54
2, 24960, Note_on_c, 0, 67, 64
2, 25080, Note_on_c, 0, 67, 0
2, 25080, Note_on_c, 0, 88, 0
2, 25080, Note_on_c, 0, 60, 0
2, 25080, Note_on_c, 0, 64, 0
2, 25200, Note_on_c, 0, 84, 55
2, 25320, Note_on_c, 0, 84, 0
2, 25440, Note_on_c, 0, 77, 66
2, 25440, Note_on_c, 0, 89, 66
2, 25560, Note_on_c, 0, 89, 0
2, 25560, Note_on_c, 0, 77, 0
2, 25680, Note_on_c, 0, 57, 56
2, 25680, Note_on_c, 0, 60, 46
2, 25680, Note_on_c, 0, 65, 56
2, 25800, Note_on_c, 0, 65, 0
2, 25800, Note_on_c, 0, 60, 0
2, 25800, Note_on_c, 0, 57, 0
2, 25920, Note_on_c, 0, 86, 60
2, 25920, Note_on_c, 0, 59, 63
2, 25920, Note_on_c, 0, 62, 53
2, 25920, Note_on_c, 0, 65, 63
2, 26040, Note_on_c, 0, 65, 0
2, 26040, Note_on_c, 0, 86, 0
2, 26040, Note_on_c, 0, 59, 0
2, 26040, Note_on_c, 0, 62, 0
2, 26160, Note_on_c, 0, 83, 55
2, 26280, Note_on_c, 0, 83, 0
2, 26400, Note_on_c, 0, 76, 65
2, 26400, Note_on_c, 0, 88, 65
2, 26520, Note_on_c, 0, 88, 0
2, 26520, Note_on_c, 0, 76, 0
2, 26640, Note_on_c, 0, 56, 55
2, 26640, Note_on_c, 0, 59, 45
2, 26640, Note_on_c, 0, 64, 55
2, 26760, Note_on_c, 0, 64, 0
2, 26760, Note_on_c, 0, 59, 0
2, 26760, Note_on_c, 0, 56, 0
2, 26880, Note_on_c, 0, 84, 60
2, 26880, Note_on_c, 0, 57, 63
2, 26880, Note_on_c, 0, 60, 53
2, 26880, Note_on_c, 0, 64, 63
2, 27000, Note_on_c, 0, 64, 0
2, 27000, Note_on_c, 0, 84, 0
2, 27000, Note_on_c, 0, 57, 0
2, 27000, Note_on_c, 0, 60, 0
2, 27120, Note_on_c, 0, 81, 53
2, 27240, Note_on_c, 0, 81, 0
2, 27360, Note_on_c, 0, 74, 65
2, 27360, Note_on_c, 0, 86, 65
2, 27480, Note_on_c, 0, 86, 0
2, 27480, Note_on_c, 0, 74, 0
2, 27600, Note_on_c, 0, 54, 54
2, 27600, Note_on_c, 0, 57, 44
2, 27600, Note_on_c, 0, 62, 54
2, 27720, Note_on_c, 0, 62, 0
2, 27720, Note_on_c, 0, 57, 0
2, 27720, Note_on_c, 0, 54, 0
2, 27840, Note_on_c, 0, 62, 63
2, 27840, Note_on_c, 0, 71, 63
2, 27840, Note_on_c, 0, 50, 64
2, 27840, Note_on_c, 0, 43, 77
2, 28320, Note_on_c, 0, 50, 0
2, 28320, Note_on_c, 0, 62, 0
2, 28320, Note_on_c, 0, 71, 0
2, 28320, Note_on_c, 0, 64, 64
2, 28320, Note_on_c, 0, 72, 64
2, 28320, Note_on_c, 0, 50, 72
2, 28800, Note_on_c, 0, 50, 0
2, 28800, Note_on_c, 0, 72, 0
2, 28800, Note_on_c, 0, 64, 0
2, 28800, Note_on_c, 0, 66, 60
2, 28800, Note_on_c, 0, 69, 63
2, 28800, Note_on_c, 0, 62, 67
2, 29220, Note_on_c, 0, 88, 71
2, 29280, Note_on_c, 0, 88, 0
2, 29280, Note_on_c, 0, 62, 0
2, 29280, Note_on_c, 0, 81, 56
2, 29280, Note_on_c, 0, 86, 56
2, 29280, Note_on_c, 0, 50, 72
2, 29520, Note_on_c, 0, 86, 0
2, 29520, Note_on_c, 0, 81, 0
2, 29760, Note_on_c, 0, 43, 0
2, 29760, Note_on_c, 0, 69, 0
2, 29760, Note_on_c, 0, 66, 0
2, 29760, Note_on_c, 0, 71, 67
2, 29760, Note_on_c, 0, 62, 66
2, 29760, Note_on_c, 0, 43, 77
2, 30000, Note_on_c, 0, 71, 0
2, 30000, Note_on_c, 0, 72, 62
2, 30240, Note_on_c, 0, 72, 0
2, 30240, Note_on_c, 0, 50, 0
2, 30240, Note_on_c, 0, 62, 0
2, 30240, Note_on_c, 0, 71, 64
2, 30240, Note_on_c, 0, 64, 65
2, 30240, Note_on_c, 0, 50, 69
2, 30480, Note_on_c, 0, 71, 0
2, 30480, Note_on_c, 0, 72, 67
2, 30720, Note_on_c, 0, 72, 0
2, 30720, Note_on_c, 0, 50, 0
2, 30720, Note_on_c, 0, 64, 0
2, 30720, Note_on_c, 0, 66, 59
2, 30720, Note_on_c, 0, 69, 62
2, 30720, Note_on_c, 0, 62, 66
2, 31200, Note_on_c, 0, 62, 0
2, 31200, Note_on_c, 0, 50, 75
2, 31680, Note_on_c, 0, 50, 0
2, 31680, Note_on_c, 0, 69, 0
2, 31680, Note_on_c, 0, 66, 0
2, 31680, Note_on_c, 0, 43, 0
2, 31680, Note_on_c, 0, 79, 83
2, 31680, Note_on_c, 0, 71, 66
2, 31680, Note_on_c, 0, 77, 66
2, 31680, Note_on_c, 0, 59, 80
2, 31680, Note_on_c, 0, 43, 75
2, 31740, Note_on_c, 0, 50, 83
2, 31920, Note_on_c, 0, 59, 0
2, 31920, Note_on_c, 0, 79, 0
2, 31920, Note_on_c, 0, 83, 62
2, 31920, Note_on_c, 0, 62, 55
2, 32160, Note_on_c, 0, 62, 0
2, 32160, Note_on_c, 0, 77, 0
2, 32160, Note_on_c, 0, 71, 0
2, 32160, Note_on_c, 0, 83, 0
2, 32160, Note_on_c, 0, 81, 65
2, 32160, Note_on_c, 0, 60, 59
2, 32400, Note_on_c, 0, 60, 0
2, 32400, Note_on_c, 0, 81, 0
2, 32400, Note_on_c, 0, 84, 69
2, 32400, Note_on_c, 0, 64, 62
2, 32640, Note_on_c, 0, 64, 0
2, 32640, Note_on_c, 0, 84, 0
2, 32640, Note_on_c, 0, 83, 72
2, 32640, Note_on_c, 0, 62, 66
2, 32880, Note_on_c, 0, 62, 0
2, 32880, Note_on_c, 0, 83, 0
2, 32880, Note_on_c, 0, 86, 76
2, 32880, Note_on_c, 0, 65, 69
2, 33120, Note_on_c, 0, 65, 0
2, 33120, Note_on_c, 0, 86, 0
2, 33120, Note_on_c, 0, 84, 79
2, 33120, Note_on_c, 0, 64, 72
2, 33360, Note_on_c, 0, 64, 0
2, 33360, Note_on_c, 0, 84, 0
2, 33360, Note_on_c, 0, 88, 82
2, 33360, Note_on_c, 0, 67, 76
2, 33600, Note_on_c, 0, 67, 0
2, 33600, Note_on_c, 0, 88, 0
2, 33600, Note_on_c, 0, 43, 0
2, 33600, Note_on_c, 0, 86, 85
2, 33600, Note_on_c, 0, 65, 79
2, 33660, Note_on_c, 0, 50, 0
2, 33840, Note_on_c, 0, 65, 0
2, 33840, Note_on_c, 0, 86, 0
2, 33840, Note_on_c, 0, 84, 79
2, 33840, Note_on_c, 0, 64, 77
2, 34080, Note_on_c, 0, 64, 0
2, 34080, Note_on_c, 0, 84, 0
2, 34080, Note_on_c, 0, 83, 73
2, 34080, Note_on_c, 0, 62, 74
2, 34320, Note_on_c, 0, 62, 0
2, 34320, Note_on_c, 0, 83, 0
2, 34320, Note_on_c, 0, 81, 67
2, 34320, Note_on_c, 0, 60, 72
2, 34560, Note_on_c, 0, 60, 0
2, 34560, Note_on_c, 0, 81, 0
2, 34560, Note_on_c, 0, 79, 75
2, 34560, Note_on_c, 0, 59, 69
2, 34800, Note_on_c, 0, 59, 0
2, 34800, Note_on_c, 0, 77, 61
2, 34800, Note_on_c, 0, 57, 66
2, 35040, Note_on_c, 0, 57, 0
2, 35040, Note_on_c, 0, 77, 0
2, 35040, Note_on_c, 0, 79, 0
2, 35040, Note_on_c, 0, 76, 60
2, 35040, Note_on_c, 0, 84, 74
2, 35040, Note_on_c, 0, 55, 64
2, 35280, Note_on_c, 0, 55, 0
2, 35280, Note_on_c, 0, 76, 0
2, 35280, Note_on_c, 0, 74, 60
2, 35280, Note_on_c, 0, 53, 61
2, 35520, Note_on_c, 0, 53, 0
2, 35520, Note_on_c, 0, 74, 0
2, 35520, Note_on_c, 0, 84, 0
2, 35520, Note_on_c, 0, 72, 62
2, 35520, Note_on_c, 0, 76, 70
2, 35520, Note_on_c, 0, 36, 80
2, 35520, Note_on_c, 0, 48, 80
2, 36000, Note_on_c, 0, 67, 41
2, 36240, Note_on_c, 0, 55, 48
2, 36300, Note_on_c, 0, 67, 0
2, 36480, Note_on_c, 0, 76, 0
2, 36480, Note_on_c, 0, 72, 0
2, 36480, Note_on_c, 0, 74, 64
2, 36480, Note_on_c, 0, 69, 52
2, 36480, Note_on_c, 0, 65, 51
2, 36540, Note_on_c, 0, 55, 0
2, 36720, Note_on_c, 0, 76, 58
2, 36720, Note_on_c, 0, 55, 58
2, 36780, Note_on_c, 0, 65, 0
2, 36795, Note_on_c, 0, 74, 0
2, 36960, Note_on_c, 0, 69, 0
2, 36960, Note_on_c, 0, 77, 63
2, 36960, Note_on_c, 0, 71, 56
2, 36960, Note_on_c, 0, 67, 57
2, 37020, Note_on_c, 0, 55, 0
2, 37035, Note_on_c, 0, 76, 0
2, 37200, Note_on_c, 0, 79, 65
2, 37200, Note_on_c, 0, 55, 53
2, 37260, Note_on_c, 0, 67, 0
2, 37275, Note_on_c, 0, 77, 0
2, 37440, Note_on_c, 0, 48, 0
2, 37440, Note_on_c, 0, 71, 0
2, 37440, Note_on_c, 0, 36, 0
2, 37440, Note_on_c, 0, 55, 0
2, 37440, Note_on_c, 0, 79, 0
2, 37440, Note_on_c, 0, 72, 64
2, 37440, Note_on_c, 0, 76, 68
2, 37440, Note_on_c, 0, 36, 60
2, 37440, Note_on_c, 0, 48, 56
2, 37920, Note_on_c, 0, 67, 51
2, 38160, Note_on_c, 0, 55, 53
2, 38220, Note_on_c, 0, 67, 0
2, 38400, Note_on_c, 0, 76, 0
2, 38400, Note_on_c, 0, 72, 0
2, 38400, Note_on_c, 0, 77, 65
2, 38400, Note_on_c, 0, 71, 54
2, 38400, Note_on_c, 0, 62, 51
2, 38460, Note_on_c, 0, 55, 0
2, 38640, Note_on_c, 0, 79, 68
2, 38640, Note_on_c, 0, 55, 53
2, 38700, Note_on_c, 0, 62, 0
2, 38715, Note_on_c, 0, 77, 0
2, 38880, Note_on_c, 0, 71, 0
2, 38880, Note_on_c, 0, 81, 66
2, 38880, Note_on_c, 0, 77, 63
2, 38880, Note_on_c, 0, 67, 56
2, 38940, Note_on_c, 0, 55, 0
2, 38955, Note_on_c, 0, 79, 0
2, 39120, Note_on_c, 0, 83, 72
2, 39120, Note_on_c, 0, 55, 45
2, 39180, Note_on_c, 0, 67, 0
2, 39195, Note_on_c, 0, 81, 0
2, 39360, Note_on_c, 0, 48, 0
2, 39360, Note_on_c, 0, 77, 0
2, 39360, Note_on_c, 0, 36, 0
2, 39360, Note_on_c, 0, 55, 0
2, 39360, Note_on_c, 0, 83, 0
2, 39360, Note_on_c, 0, 79, 74
2, 39360, Note_on_c, 0, 76, 61
2, 39360, Note_on_c, 0, 36, 61
2, 39360, Note_on_c, 0, 48, 59
2, 39600, Note_on_c, 0, 81, 67
2, 39675, Note_on_c, 0, 79, 0
2, 39840, Note_on_c, 0, 83, 73
2, 39840, Note_on_c, 0, 67, 50
2, 39915, Note_on_c, 0, 81, 0
2, 40080, Note_on_c, 0, 84, 68
2, 40080, Note_on_c, 0, 55, 51
2, 40140, Note_on_c, 0, 67, 0
2, 40155, Note_on_c, 0, 83, 0
2, 40320, Note_on_c, 0, 76, 0
2, 40320, Note_on_c, 0, 84, 0
2, 40320, Note_on_c, 0, 71, 64
2, 40320, Note_on_c, 0, 77, 68
2, 40320, Note_on_c, 0, 62, 48
2, 40380, Note_on_c, 0, 55, 0
2, 40560, Note_on_c, 0, 55, 49
2, 40620, Note_on_c, 0, 62, 0
2, 40800, Note_on_c, 0, 77, 0
2, 40800, Note_on_c, 0, 71, 0
2, 40800, Note_on_c, 0, 72, 58
2, 40800, Note_on_c, 0, 76, 62
2, 40800, Note_on_c, 0, 64, 50
2, 40860, Note_on_c, 0, 55, 0
2, 41040, Note_on_c, 0, 55, 55
2, 41100, Note_on_c, 0, 64, 0
2, 41220, Note_on_c, 0, 67, 54
2, 41280, Note_on_c, 0, 48, 0
2, 41280, Note_on_c, 0, 76, 0
2, 41280, Note_on_c, 0, 72, 0
2, 41280, Note_on_c, 0, 36, 0
2, 41280, Note_on_c, 0, 55, 0
2, 41280, Note_on_c, 0, 71, 63
2, 41280, Note_on_c, 0, 48, 71
2, 41340, Note_on_c, 0, 74, 63
2, 41520, Note_on_c, 0, 48, 0
2, 41520, Note_on_c, 0, 67, 0
2, 41520, Note_on_c, 0, 69, 60
2, 41760, Note_on_c, 0, 76, 60
2, 41760, Note_on_c, 0, 67, 52
2, 41820, Note_on_c, 0, 69, 0
2, 41835, Note_on_c, 0, 71, 0
2, 41895, Note_on_c, 0, 74, 0
2, 42000, Note_on_c, 0, 77, 62
2, 42000, Note_on_c, 0, 65, 56
2, 42060, Note_on_c, 0, 67, 0
2, 42075, Note_on_c, 0, 76, 0
2, 42240, Note_on_c, 0, 77, 0
2, 42240, Note_on_c, 0, 79, 71
2, 42240, Note_on_c, 0, 64, 50
2, 42300, Note_on_c, 0, 65, 0
2, 42480, Note_on_c, 0, 79, 0
2, 42480, Note_on_c, 0, 62, 50
2, 42540, Note_on_c, 0, 64, 0
2, 42720, Note_on_c, 0, 72, 59
2, 42720, Note_on_c, 0, 84, 72
2, 42720, Note_on_c, 0, 64, 46
2, 42780, Note_on_c, 0, 62, 0
2, 42960, Note_on_c, 0, 72, 0
2, 42960, Note_on_c, 0, 84, 0
2, 42960, Note_on_c, 0, 65, 49
2, 43020, Note_on_c, 0, 64, 0
2, 43200, Note_on_c, 0, 65, 0
2, 43200, Note_on_c, 0, 67, 68
2, 43200, Note_on_c, 0, 72, 68
2, 43200, Note_on_c, 0, 76, 72
2, 43200, Note_on_c, 0, 48, 70
2, 43440, Note_on_c, 0, 55, 56
2, 43500, Note_on_c, 0, 48, 0
2, 43680, Note_on_c, 0, 67, 62
2, 43740, Note_on_c, 0, 55, 0
2, 43920, Note_on_c, 0, 55, 56
2, 43980, Note_on_c, 0, 67, 0
2, 44160, Note_on_c, 0, 67, 0
2, 44160, Note_on_c, 0, 72, 0
2, 44160, Note_on_c, 0, 76, 0
2, 44160, Note_on_c, 0, 55, 0
2, 44160, Note_on_c, 0, 74, 67
2, 44160, Note_on_c, 0, 69, 56
2, 44160, Note_on_c, 0, 65, 44
2, 44400, Note_on_c, 0, 76, 61
2, 44400, Note_on_c, 0, 55, 47
2, 44460, Note_on_c, 0, 65, 0
2, 44475, Note_on_c, 0, 74, 0
2, 44640, Note_on_c, 0, 69, 0
2, 44640, Note_on_c, 0, 77, 67
2, 44640, Note_on_c, 0, 71, 59
2, 44640, Note_on_c, 0, 62, 53
2, 44700, Note_on_c, 0, 55, 0
2, 44715, Note_on_c, 0, 76, 0
2, 44880, Note_on_c, 0, 79, 65
2, 44880, Note_on_c, 0, 55, 57
2, 44940, Note_on_c, 0, 62, 0
2, 44955, Note_on_c, 0, 77, 0
2, 45120, Note_on_c, 0, 71, 0
2, 45120, Note_on_c, 0, 79, 0
2, 45120, Note_on_c, 0, 55, 0
2, 45120, Note_on_c, 0, 72, 69
2, 45120, Note_on_c, 0, 76, 73
2, 45120, Note_on_c, 0, 36, 63
2, 45120, Note_on_c, 0, 48, 55
2, 45600, Note_on_c, 0, 67, 60
2, 45840, Note_on_c, 0, 67, 0
2, 45840, Note_on_c, 0, 55, 60
2, 46080, Note_on_c, 0, 55, 0
2, 46080, Note_on_c, 0, 48, 0
2, 46080, Note_on_c, 0, 72, 0
2, 46080, Note_on_c, 0, 76, 0
2, 46080, Note_on_c, 0, 36, 0
2, 46080, Note_on_c, 0, 77, 69
2, 46080, Note_on_c, 0, 53, 51
2, 46080, Note_on_c, 0, 57, 44
2, 46080, Note_on_c, 0, 60, 36
2, 46320, Note_on_c, 0, 81, 68
2, 46395, Note_on_c, 0, 77, 0
2, 46560, Note_on_c, 0, 60, 0
2, 46560, Note_on_c, 0, 53, 0
2, 46560, Note_on_c, 0, 57, 0
2, 46560, Note_on_c, 0, 79, 76
2, 46560, Note_on_c, 0, 53, 54
2, 46560, Note_on_c, 0, 55, 54
2, 46560, Note_on_c, 0, 59, 47
2, 46635, Note_on_c, 0, 81, 0
2, 46800, Note_on_c, 0, 86, 72
2, 46875, Note_on_c, 0, 79, 0
2, 46980, Note_on_c, 0, 52, 50
2, 47040, Note_on_c, 0, 59, 0
2, 47040, Note_on_c, 0, 86, 0
2, 47040, Note_on_c, 0, 55, 0
2, 47040, Note_on_c, 0, 53, 0
2, 47040, Note_on_c, 0, 60, 59
2, 47100, Note_on_c, 0, 72, 58
2, 47100, Note_on_c, 0, 67, 45
2, 47175, Note_on_c, 0, 84, 71
2, 47280, Note_on_c, 0, 79, 67
2, 47340, Note_on_c, 0, 72, 0
2, 47490, Note_on_c, 0, 84, 0
2, 47520, Note_on_c, 0, 76, 65
2, 47595, Note_on_c, 0, 79, 0
2, 47760, Note_on_c, 0, 72, 64
2, 47835, Note_on_c, 0, 76, 0
2, 47940, Note_on_c, 0, 52, 0
2, 48000, Note_on_c, 0, 72, 0
2, 48000, Note_on_c, 0, 60, 0
2, 48000, Note_on_c, 0, 77, 64
2, 48000, Note_on_c, 0, 69, 57
2, 48000, Note_on_c, 0, 50, 53
2, 48000, Note_on_c, 0, 53, 51
2, 48000, Note_on_c, 0, 57, 48
2, 48000, Note_on_c, 0, 60, 47
2, 48060, Note_on_c, 0, 67, 0
2, 48120, Note_on_c, 0, 79, 69
2, 48195, Note_on_c, 0, 77, 0
2, 48240, Note_on_c, 0, 77, 64
2, 48315, Note_on_c, 0, 79, 0
2, 48480, Note_on_c, 0, 57, 0
2, 48480, Note_on_c, 0, 69, 0
2, 48480, Note_on_c, 0, 53, 0
2, 48480, Note_on_c, 0, 50, 0
2, 48480, Note_on_c, 0, 60, 0
2, 48480, Note_on_c, 0, 67, 59
2, 48480, Note_on_c, 0, 71, 59
2, 48480, Note_on_c, 0, 76, 63
2, 48480, Note_on_c, 0, 43, 61
2, 48480, Note_on_c, 0, 55, 58
2, 48555, Note_on_c, 0, 77, 0
2, 48720, Note_on_c, 0, 67, 0
2, 48720, Note_on_c, 0, 71, 0
2, 48720, Note_on_c, 0, 65, 58
2, 48720, Note_on_c, 0, 71, 58
2, 48720, Note_on_c, 0, 74, 62
2, 48795, Note_on_c, 0, 76, 0
2, 48960, Note_on_c, 0, 43, 0
2, 48960, Note_on_c, 0, 65, 0
2, 48960, Note_on_c, 0, 55, 0
2, 48960, Note_on_c, 0, 74, 0
2, 48960, Note_on_c, 0, 71, 0
2, 48960, Note_on_c, 0, 64, 62
2, 48960, Note_on_c, 0, 72, 66
2, 48960, Note_on_c, 0, 36, 60
2, 48960, Note_on_c, 0, 48, 55
2, 48960, Note_on_c, 0, 36, 57
2, 48960, Note_on_c, 0, 48, 55
2, 49680, Note_on_c, 0, 72, 0
2, 49680, Note_on_c, 0, 64, 0
2, 49920, Note_on_c, 0, 36, 0
2, 49920, Note_on_c, 0, 48, 0
2, 49920, Note_on_c, 0, 48, 0
2, 49920, Note_on_c, 0, 36, 0
2, 49920, Note_on_c, 0, 74, 64
2, 49920, Note_on_c, 0, 82, 67
2, 49920, Note_on_c, 0, 86, 69
2, 49920, Note_on_c, 0, 58, 63
2, 49920, Note_on_c, 0, 62, 72
2, 49920, Note_on_c, 0, 70, 60
2, 50400, Note_on_c, 0, 70, 0
2, 50400, Note_on_c, 0, 82, 0
2, 50400, Note_on_c, 0, 86, 0
2, 50400, Note_on_c, 0, 74, 0
2, 50400, Note_on_c, 0, 62, 0
2, 50400, Note_on_c, 0, 58, 0
2, 50400, Note_on_c, 0, 76, 73
2, 50400, Note_on_c, 0, 85, 70
2, 50400, Note_on_c, 0, 88, 63
2, 50400, Note_on_c, 0, 57, 70
2, 50400, Note_on_c, 0, 64, 77
2, 50400, Note_on_c, 0, 69, 65
2, 50880, Note_on_c, 0, 69, 0
2, 50880, Note_on_c, 0, 85, 0
2, 50880, Note_on_c, 0, 88, 0
2, 50880, Note_on_c, 0, 76, 0
2, 50880, Note_on_c, 0, 64, 0
2, 50880, Note_on_c, 0, 57, 0
2, 50880, Note_on_c, 0, 77, 77
2, 50880, Note_on_c, 0, 86, 77
2, 50880, Note_on_c, 0, 89, 68
2, 50880, Note_on_c, 0, 50, 69
2, 50880, Note_on_c, 0, 57, 69
2, 50880, Note_on_c, 0, 62, 60
2, 51600, Note_on_c, 0, 89, 0
2, 51600, Note_on_c, 0, 77, 0
2, 51600, Note_on_c, 0, 86, 0
2, 51600, Note_on_c, 0, 88, 69
2, 51840, Note_on_c, 0, 88, 0
2, 51840, Note_on_c, 0, 62, 0
2, 51840, Note_on_c, 0, 57, 0
2, 51840, Note_on_c, 0, 50, 0
2, 51840, Note_on_c, 0, 86, 75
2, 51840, Note_on_c, 0, 46, 61
2, 51840, Note_on_c, 0, 50, 70
2, 51840, Note_on_c, 0, 58, 57
2, 52080, Note_on_c, 0, 86, 0
2, 52080, Note_on_c, 0, 88, 73
2, 52320, Note_on_c, 0, 88, 0
2, 52320, Note_on_c, 0, 58, 0
2, 52320, Note_on_c, 0, 50, 0
2, 52320, Note_on_c, 0, 46, 0
2, 52320, Note_on_c, 0, 86, 71
2, 52320, Note_on_c, 0, 45, 67
2, 52320, Note_on_c, 0, 49, 71
2, 52320, Note_on_c, 0, 57, 59
2, 52560, Note_on_c, 0, 86, 0
2, 52560, Note_on_c, 0, 88, 76
2, 52800, Note_on_c, 0, 88, 0
2, 52800, Note_on_c, 0, 57, 0
2, 52800, Note_on_c, 0, 49, 0
2, 52800, Note_on_c, 0, 45, 0
2, 52800, Note_on_c, 0, 65, 88
2, 52800, Note_on_c, 0, 74, 79
2, 52800, Note_on_c, 0, 77, 88
2, 52800, Note_on_c, 0, 38, 80
2, 52800, Note_on_c, 0, 45, 80
2, 52800, Note_on_c, 0, 50, 70
2, 53760, Note_on_c, 0, 50, 0
2, 53760, Note_on_c, 0, 74, 0
2, 53760, Note_on_c, 0, 77, 0
2, 53760, Note_on_c, 0, 65, 0
2, 53760, Note_on_c, 0, 45, 0
2, 53760, Note_on_c, 0, 38, 0
2, 53760, Note_on_c, 0, 89, 60
2, 53880, Note_on_c, 0, 89, 0
2, 54000, Note_on_c, 0, 86, 55
2, 54120, Note_on_c, 0, 86, 0
2, 54240, Note_on_c, 0, 79, 65
2, 54240, Note_on_c, 0, 91, 65
2, 54360, Note_on_c, 0, 91, 0
2, 54360, Note_on_c, 0, 79, 0
2, 54480, Note_on_c, 0, 59, 48
2, 54480, Note_on_c, 0, 62, 46
2, 54480, Note_on_c, 0, 67, 52
2, 54600, Note_on_c, 0, 67, 0
2, 54600, Note_on_c, 0, 62, 0
2, 54600, Note_on_c, 0, 59, 0
2, 54720, Note_on_c, 0, 88, 59
2, 54720, Note_on_c, 0, 60, 64
2, 54720, Note_on_c, 0, 64, 54
2, 54720, Note_on_c, 0, 67, 64
2, 54840, Note_on_c, 0, 67, 0
2, 54840, Note_on_c, 0, 88, 0
2, 54840, Note_on_c, 0, 60, 0
2, 54840, Note_on_c, 0, 64, 0
2, 54960, Note_on_c, 0, 84, 55
2, 55080, Note_on_c, 0, 84, 0
2, 55200, Note_on_c, 0, 77, 66
2, 55200, Note_on_c, 0, 89, 66
2, 55320, Note_on_c, 0, 89, 0
2, 55320, Note_on_c, 0, 77, 0
2, 55440, Note_on_c, 0, 57, 56
2, 55440, Note_on_c, 0, 60, 46
2, 55440, Note_on_c, 0, 65, 56
2, 55560, Note_on_c, 0, 65, 0
2, 55560, Note_on_c, 0, 60, 0
2, 55560, Note_on_c, 0, 57, 0
2, 55680, Note_on_c, 0, 86, 60
2, 55680, Note_on_c, 0, 59, 63
2, 55680, Note_on_c, 0, 62, 53
2, 55680, Note_on_c, 0, 65, 63
2, 55800, Note_on_c, 0, 65, 0
2, 55800, Note_on_c, 0, 86, 0
2, 55800, Note_on_c, 0, 59, 0
2, 55800, Note_on_c, 0, 62, 0
2, 55920, Note_on_c, 0, 83, 55
2, 56040, Note_on_c, 0, 83, 0
2, 56160, Note_on_c, 0, 76, 65
2, 56160, Note_on_c, 0, 88, 65
2, 56280, Note_on_c, 0, 88, 0
2, 56280, Note_on_c, 0, 76, 0
2, 56400, Note_on_c, 0, 56, 55
2, 56400, Note_on_c, 0, 59, 45
2, 56400, Note_on_c, 0, 64, 55
2, 56520, Note_on_c, 0, 64, 0
2, 56520, Note_on_c, 0, 59, 0
2, 56520, Note_on_c, 0, 56, 0
2, 56640, Note_on_c, 0, 72, 62
2, 56640, Note_on_c, 0, 84, 60
2, 56640, Note_on_c, 0, 57, 63
2, 56640, Note_on_c, 0, 60, 53
2, 56640, Note_on_c, 0, 64, 63
2, 56760, Note_on_c, 0, 64, 0
2, 56760, Note_on_c, 0, 57, 0
2, 56760, Note_on_c, 0, 72, 0
2, 56760, Note_on_c, 0, 84, 0
2, 56760, Note_on_c, 0, 60, 0
2, 56880, Note_on_c, 0, 81, 53
2, 57000, Note_on_c, 0, 81, 0
2, 57120, Note_on_c, 0, 74, 65
2, 57120, Note_on_c, 0, 86, 65
2, 57240, Note_on_c, 0, 86, 0
2, 57240, Note_on_c, 0, 74, 0
2, 57360, Note_on_c, 0, 54, 54
2, 57360, Note_on_c, 0, 57, 44
2, 57360, Note_on_c, 0, 62, 54
2, 57480, Note_on_c, 0, 62, 0
2, 57480, Note_on_c, 0, 57, 0
2, 57480, Note_on_c, 0, 54, 0
2, 57600, Note_on_c, 0, 62, 63
2, 57600, Note_on_c, 0, 71, 63
2, 57600, Note_on_c, 0, 50, 64
2, 57600, Note_on_c, 0, 43, 77
2, 58080, Note_on_c, 0, 50, 0
2, 58080, Note_on_c, 0, 62, 0
2, 58080, Note_on_c, 0, 71, 0
2, 58080, Note_on_c, 0, 64, 64
2, 58080, Note_on_c, 0, 72, 64
2, 58080, Note_on_c, 0, 50, 72
2, 58560, Note_on_c, 0, 50, 0
2, 58560, Note_on_c, 0, 72, 0
2, 58560, Note_on_c, 0, 64, 0
2, 58560, Note_on_c, 0, 66, 60
2, 58560, Note_on_c, 0, 69, 63
2, 58560, Note_on_c, 0, 62, 67
2, 58980, Note_on_c, 0, 88, 71
2, 59040, Note_on_c, 0, 88, 0
2, 59040, Note_on_c, 0, 62, 0
2, 59040, Note_on_c, 0, 81, 56
2, 59040, Note_on_c, 0, 86, 56
2, 59040, Note_on_c, 0, 50, 72
2, 59280, Note_on_c, 0, 86, 0
2, 59280, Note_on_c, 0, 81, 0
2, 59520, Note_on_c, 0, 43, 0
2, 59520, Note_on_c, 0, 69, 0
2, 59520, Note_on_c, 0, 66, 0
2, 59520, Note_on_c, 0, 71, 67
2, 59520, Note_on_c, 0, 62, 66
2, 59520, Note_on_c, 0, 43, 77
2, 59760, Note_on_c, 0, 71, 0
2, 59760, Note_on_c, 0, 72, 62
2, 60000, Note_on_c, 0, 72, 0
2, 60000, Note_on_c, 0, 50, 0
2, 60000, Note_on_c, 0, 62, 0
2, 60000, Note_on_c, 0, 71, 64
2, 60000, Note_on_c, 0, 64, 65
2, 60000, Note_on_c, 0, 50, 69
2, 60240, Note_on_c, 0, 71, 0
2, 60240, Note_on_c, 0, 72, 67
2, 60480, Note_on_c, 0, 72, 0
2, 60480, Note_on_c, 0, 50, 0
2, 60480, Note_on_c, 0, 64, 0
2, 60480, Note_on_c, 0, 66, 59
2, 60480, Note_on_c, 0, 69, 62
2, 60480, Note_on_c, 0, 62, 66
2, 61440, Note_on_c, 0, 62, 0
2, 61440, Note_on_c, 0, 43, 0
2, 61440, Note_on_c, 0, 66, 0
2, 61440, Note_on_c, 0, 69, 0
2, 61440, Note_on_c, 0, 79, 83
2, 61440, Note_on_c, 0, 71, 66
2, 61440, Note_on_c, 0, 77, 66
2, 61440, Note_on_c, 0, 59, 80
2, 61440, Note_on_c, 0, 43, 75
2, 61500, Note_on_c, 0, 50, 83
2, 61680, Note_on_c, 0, 59, 0
2, 61680, Note_on_c, 0, 79, 0
2, 61680, Note_on_c, 0, 83, 62
2, 61680, Note_on_c, 0, 62, 55
2, 61920, Note_on_c, 0, 62, 0
2, 61920, Note_on_c, 0, 77, 0
2, 61920, Note_on_c, 0, 71, 0
2, 61920, Note_on_c, 0, 83, 0
2, 61920, Note_on_c, 0, 81, 65
2, 61920, Note_on_c, 0, 60, 59
2, 62160, Note_on_c, 0, 60, 0
2, 62160, Note_on_c, 0, 81, 0
2, 62160, Note_on_c, 0, 84, 69
2, 62160, Note_on_c, 0, 64, 62
2, 62400, Note_on_c, 0, 64, 0
2, 62400, Note_on_c, 0, 84, 0
2, 62400, Note_on_c, 0, 83, 72
2, 62400, Note_on_c, 0, 62, 66
2, 62640, Note_on_c, 0, 62, 0
2, 62640, Note_on_c, 0, 83, 0
2, 62640, Note_on_c, 0, 86, 76
2, 62640, Note_on_c, 0, 65, 69
2, 62880, Note_on_c, 0, 65, 0
2, 62880, Note_on_c, 0, 86, 0
2, 62880, Note_on_c, 0, 84, 79
2, 62880, Note_on_c, 0, 64, 72
2, 63120, Note_on_c, 0, 64, 0
2, 63120, Note_on_c, 0, 84, 0
2, 63120, Note_on_c, 0, 88, 82
2, 63120, Note_on_c, 0, 67, 76
2, 63360, Note_on_c, 0, 67, 0
2, 63360, Note_on_c, 0, 88, 0
2, 63360, Note_on_c, 0, 43, 0
2, 63360, Note_on_c, 0, 86, 85
2, 63360, Note_on_c, 0, 65, 79
2, 63420, Note_on_c, 0, 50, 0
2, 63600, Note_on_c, 0, 65, 0
2, 63600, Note_on_c, 0, 86, 0
2, 63600, Note_on_c, 0, 84, 79
2, 63600, Note_on_c, 0, 64, 77
2, 63840, Note_on_c, 0, 64, 0
2, 63840, Note_on_c, 0, 84, 0
2, 63840, Note_on_c, 0, 83, 73
2, 63840, Note_on_c, 0, 62, 74
2, 64080, Note_on_c, 0, 62, 0
2, 64080, Note_on_c, 0, 83, 0
2, 64080, Note_on_c, 0, 81, 67
2, 64080, Note_on_c, 0, 60, 72
2, 64320, Note_on_c, 0, 60, 0
2, 64320, Note_on_c, 0, 81, 0
2, 64320, Note_on_c, 0, 79, 75
2, 64320, Note_on_c, 0, 59, 69
2, 64560, Note_on_c, 0, 59, 0
2, 64560, Note_on_c, 0, 77, 61
2, 64560, Note_on_c, 0, 57, 66
2, 64800, Note_on_c, 0, 57, 0
2, 64800, Note_on_c, 0, 77, 0
2, 64800, Note_on_c, 0, 79, 0
2, 64800, Note_on_c, 0, 76, 60
2, 64800, Note_on_c, 0, 84, 74
2, 64800, Note_on_c, 0, 55, 64
2, 65040, Note_on_c, 0, 55, 0
2, 65040, Note_on_c, 0, 76, 0
2, 65040, Note_on_c, 0, 74, 60
2, 65040, Note_on_c, 0, 53, 61
2, 65280, Note_on_c, 0, 53, 0
2, 65280, Note_on_c, 0, 74, 0
2, 65280, Note_on_c, 0, 84, 0
2, 65280, Note_on_c, 0, 64, 73
2, 65280, Note_on_c, 0, 72, 62
2, 65280, Note_on_c, 0, 76, 70
2, 65280, Note_on_c, 0, 36, 80
2, 65280, Note_on_c, 0, 48, 80
2, 65760, Note_on_c, 0, 67, 41
2, 66000, Note_on_c, 0, 55, 48
2, 66060, Note_on_c, 0, 67, 0
2, 66240, Note_on_c, 0, 64, 0
2, 66240, Note_on_c, 0, 72, 0
2, 66240, Note_on_c, 0, 76, 0
2, 66240, Note_on_c, 0, 74, 64
2, 66240, Note_on_c, 0, 69, 52
2, 66240, Note_on_c, 0, 65, 51
2, 66300, Note_on_c, 0, 55, 0
2, 66480, Note_on_c, 0, 76, 58
2, 66480, Note_on_c, 0, 55, 58
2, 66540, Note_on_c, 0, 65, 0
2, 66555, Note_on_c, 0, 74, 0
2, 66720, Note_on_c, 0, 69, 0
2, 66720, Note_on_c, 0, 77, 63
2, 66720, Note_on_c, 0, 71, 56
2, 66720, Note_on_c, 0, 67, 57
2, 66780, Note_on_c, 0, 55, 0
2, 66795, Note_on_c, 0, 76, 0
2, 66960, Note_on_c, 0, 79, 65
2, 66960, Note_on_c, 0, 55, 53
2, 67020, Note_on_c, 0, 67, 0
2, 67035, Note_on_c, 0, 77, 0
2, 67200, Note_on_c, 0, 48, 0
2, 67200, Note_on_c, 0, 71, 0
2, 67200, Note_on_c, 0, 36, 0
2, 67200, Note_on_c, 0, 55, 0
2, 67200, Note_on_c, 0, 79, 0
2, 67200, Note_on_c, 0, 72, 64
2, 67200, Note_on_c, 0, 76, 68
2, 67200, Note_on_c, 0, 36, 60
2, 67200, Note_on_c, 0, 48, 56
2, 67680, Note_on_c, 0, 67, 51
2, 67920, Note_on_c, 0, 55, 53
2, 67980, Note_on_c, 0, 67, 0
2, 68160, Note_on_c, 0, 76, 0
2, 68160, Note_on_c, 0, 72, 0
2, 68160, Note_on_c, 0, 77, 65
2, 68160, Note_on_c, 0, 71, 54
2, 68160, Note_on_c, 0, 62, 51
2, 68220, Note_on_c, 0, 55, 0
2, 68400, Note_on_c, 0, 79, 68
2, 68400, Note_on_c, 0, 55, 53
2, 68460, Note_on_c, 0, 62, 0
2, 68475, Note_on_c, 0, 77, 0
2, 68640, Note_on_c, 0, 71, 0
2, 68640, Note_on_c, 0, 81, 66
2, 68640, Note_on_c, 0, 77, 63
2, 68640, Note_on_c, 0, 67, 56
2, 68700, Note_on_c, 0, 55, 0
2, 68715, Note_on_c, 0, 79, 0
2, 68880, Note_on_c, 0, 83, 72
2, 68880, Note_on_c, 0, 55, 45
2, 68940, Note_on_c, 0, 67, 0
2, 68955, Note_on_c, 0, 81, 0
2, 69120, Note_on_c, 0, 48, 0
2, 69120, Note_on_c, 0, 77, 0
2, 69120, Note_on_c, 0, 36, 0
2, 69120, Note_on_c, 0, 55, 0
2, 69120, Note_on_c, 0, 83, 0
2, 69120, Note_on_c, 0, 79, 74
2, 69120, Note_on_c, 0, 76, 61
2, 69120, Note_on_c, 0, 36, 61
2, 69120, Note_on_c, 0, 48, 59
2, 69360, Note_on_c, 0, 81, 67
2, 69435, Note_on_c, 0, 79, 0
2, 69600, Note_on_c, 0, 83, 73
2, 69600, Note_on_c, 0, 67, 50
2, 69675, Note_on_c, 0, 81, 0
2, 69840, Note_on_c, 0, 84, 68
2, 69840, Note_on_c, 0, 55, 51
2, 69900, Note_on_c, 0, 67, 0
2, 69915, Note_on_c, 0, 83, 0
2, 70020, Note_on_c, 0, 79, 66
2, 70080, Note_on_c, 0, 76, 0
2, 70080, Note_on_c, 0, 84, 0
2, 70080, Note_on_c, 0, 71, 64
2, 70080, Note_on_c, 0, 77, 68
2, 70080, Note_on_c, 0, 62, 48
2, 70140, Note_on_c, 0, 55, 0
2, 70140, Note_on_c, 0, 79, 0
2, 70320, Note_on_c, 0, 55, 49
2, 70380, Note_on_c, 0, 62, 0
2, 70560, Note_on_c, 0, 71, 0
2, 70560, Note_on_c, 0, 77, 0
2, 70560, Note_on_c, 0, 72, 58
2, 70560, Note_on_c, 0, 76, 62
2, 70560, Note_on_c, 0, 64, 50
2, 70620, Note_on_c, 0, 55, 0
2, 70800, Note_on_c, 0, 55, 55
2, 70860, Note_on_c, 0, 64, 0
2, 70980, Note_on_c, 0, 67, 54
2, 71040, Note_on_c, 0, 36, 0
2, 71040, Note_on_c, 0, 76, 0
2, 71040, Note_on_c, 0, 72, 0
2, 71040, Note_on_c, 0, 48, 0
2, 71040, Note_on_c, 0, 55, 0
2, 71040, Note_on_c, 0, 71, 63
2, 71040, Note_on_c, 0, 48, 71
2, 71100, Note_on_c, 0, 74, 63
2, 71280, Note_on_c, 0, 48, 0
2, 71280, Note_on_c, 0, 67, 0
2, 71280, Note_on_c, 0, 69, 60
2, 71520, Note_on_c, 0, 76, 60
2, 71520, Note_on_c, 0, 67, 52
2, 71580, Note_on_c, 0, 69, 0
2, 71595, Note_on_c, 0, 71, 0
2, 71655, Note_on_c, 0, 74, 0
2, 71760, Note_on_c, 0, 77, 62
2, 71760, Note_on_c, 0, 65, 56
2, 71820, Note_on_c, 0, 67, 0
2, 71835, Note_on_c, 0, 76, 0
2, 72000, Note_on_c, 0, 77, 0
2, 72000, Note_on_c, 0, 79, 71
2, 72000, Note_on_c, 0, 64, 50
2, 72060, Note_on_c, 0, 65, 0
2, 72240, Note_on_c, 0, 79, 0
2, 72240, Note_on_c, 0, 62, 50
2, 72300, Note_on_c, 0, 64, 0
2, 72480, Note_on_c, 0, 72, 59
2, 72480, Note_on_c, 0, 84, 72
2, 72480, Note_on_c, 0, 64, 46
2, 72540, Note_on_c, 0, 62, 0
2, 72720, Note_on_c, 0, 72, 0
2, 72720, Note_on_c, 0, 84, 0
2, 72720, Note_on_c, 0, 65, 49
2, 72780, Note_on_c, 0, 64, 0
2, 72960, Note_on_c, 0, 65, 0
2, 72960, Note_on_c, 0, 67, 68
2, 72960, Note_on_c, 0, 72, 68
2, 72960, Note_on_c, 0, 76, 72
2, 72960, Note_on_c, 0, 48, 70
2, 73200, Note_on_c, 0, 55, 56
2, 73260, Note_on_c, 0, 48, 0
2, 73440, Note_on_c, 0, 67, 62
2, 73500, Note_on_c, 0, 55, 0
2, 73680, Note_on_c, 0, 55, 56
2, 73740, Note_on_c, 0, 67, 0
2, 73920, Note_on_c, 0, 67, 0
2, 73920, Note_on_c, 0, 72, 0
2, 73920, Note_on_c, 0, 76, 0
2, 73920, Note_on_c, 0, 55, 0
2, 73920, Note_on_c, 0, 74, 67
2, 73920, Note_on_c, 0, 69, 56
2, 73920, Note_on_c, 0, 65, 44
2, 74160, Note_on_c, 0, 76, 61
2, 74160, Note_on_c, 0, 55, 47
2, 74220, Note_on_c, 0, 65, 0
2, 74235, Note_on_c, 0, 74, 0
2, 74400, Note_on_c, 0, 69, 0
2, 74400, Note_on_c, 0, 77, 67
2, 74400, Note_on_c, 0, 71, 59
2, 74400, Note_on_c, 0, 62, 53
2, 74460, Note_on_c, 0, 55, 0
2, 74475, Note_on_c, 0, 76, 0
2, 74640, Note_on_c, 0, 79, 65
2, 74640, Note_on_c, 0, 55, 57
2, 74700, Note_on_c, 0, 62, 0
2, 74715, Note_on_c, 0, 77, 0
2, 74880, Note_on_c, 0, 71, 0
2, 74880, Note_on_c, 0, 79, 0
2, 74880, Note_on_c, 0, 55, 0
2, 74880, Note_on_c, 0, 72, 69
2, 74880, Note_on_c, 0, 76, 73
2, 74880, Note_on_c, 0, 36, 63
2, 74880, Note_on_c, 0, 48, 55
2, 75360, Note_on_c, 0, 67, 60
2, 75600, Note_on_c, 0, 67, 0
2, 75600, Note_on_c, 0, 55, 60
2, 75840, Note_on_c, 0, 55, 0
2, 75840, Note_on_c, 0, 48, 0
2, 75840, Note_on_c, 0, 72, 0
2, 75840, Note_on_c, 0, 76, 0
2, 75840, Note_on_c, 0, 36, 0
2, 75840, Note_on_c, 0, 77, 69
2, 75840, Note_on_c, 0, 53, 51
2, 75840, Note_on_c, 0, 57, 44
2, 75840, Note_on_c, 0, 60, 36
2, 76080, Note_on_c, 0, 81, 68
2, 76155, Note_on_c, 0, 77, 0
2, 76320, Note_on_c, 0, 60, 0
2, 76320, Note_on_c, 0, 53, 0
2, 76320, Note_on_c, 0, 57, 0
2, 76320, Note_on_c, 0, 79, 76
2, 76320, Note_on_c, 0, 53, 54
2, 76320, Note_on_c, 0, 55, 54
2, 76320, Note_on_c, 0, 59, 47
2, 76395, Note_on_c, 0, 81, 0
2, 76560, Note_on_c, 0, 86, 72
2, 76635, Note_on_c, 0, 79, 0
2, 76740, Note_on_c, 0, 52, 50
2, 76800, Note_on_c, 0, 59, 0
2, 76800, Note_on_c, 0, 86, 0
2, 76800, Note_on_c, 0, 55, 0
2, 76800, Note_on_c, 0, 53, 0
2, 76800, Note_on_c, 0, 60, 59
2, 76860, Note_on_c, 0, 72, 58
2, 76860, Note_on_c, 0, 67, 45
2, 76935, Note_on_c, 0, 84, 71
2, 77040, Note_on_c, 0, 79, 67
2, 77100, Note_on_c, 0, 72, 0
2, 77250, Note_on_c, 0, 84, 0
2, 77280, Note_on_c, 0, 76, 65
2, 77355, Note_on_c, 0, 79, 0
2, 77520, Note_on_c, 0, 72, 64
2, 77595, Note_on_c, 0, 76, 0
2, 77700, Note_on_c, 0, 52, 0
2, 77760, Note_on_c, 0, 72, 0
2, 77760, Note_on_c, 0, 60, 0
2, 77760, Note_on_c, 0, 77, 64
2, 77760, Note_on_c, 0, 69, 57
2, 77760, Note_on_c, 0, 50, 53
2, 77760, Note_on_c, 0, 53, 51
2, 77760, Note_on_c, 0, 57, 48
2, 77760, Note_on_c, 0, 60, 47
2, 77820, Note_on_c, 0, 67, 0
2, 77880, Note_on_c, 0, 79, 69
2, 77955, Note_on_c, 0, 77, 0
2, 78000, Note_on_c, 0, 77, 64
2, 78075, Note_on_c, 0, 79, 0
2, 78240, Note_on_c, 0, 57, 0
2, 78240, Note_on_c, 0, 69, 0
2, 78240, Note_on_c, 0, 53, 0
2, 78240, Note_on_c, 0, 50, 0
2, 78240, Note_on_c, 0, 60, 0
2, 78240, Note_on_c, 0, 67, 59
2, 78240, Note_on_c, 0, 71, 59
2, 78240, Note_on_c, 0, 76, 63
2, 78240, Note_on_c, 0, 43, 61
2, 78240, Note_on_c, 0, 55, 58
2, 78315, Note_on_c, 0, 77, 0
2, 78480, Note_on_c, 0, 67, 0
2, 78480, Note_on_c, 0, 71, 0
2, 78480, Note_on_c, 0, 65, 58
2, 78480, Note_on_c, 0, 71, 58
2, 78480, Note_on_c, 0, 74, 62
2, 78555, Note_on_c, 0, 76, 0
2, 78720, Note_on_c, 0, 43, 0
2, 78720, Note_on_c, 0, 65, 0
2, 78720, Note_on_c, 0, 55, 0
2, 78720, Note_on_c, 0, 74, 0
2, 78720, Note_on_c, 0, 71, 0
2, 78720, Note_on_c, 0, 64, 66
2, 78720, Note_on_c, 0, 72, 63
2, 78720, Note_on_c, 0, 36, 67
2, 78720, Note_on_c, 0, 48, 73
2, 79440, Note_on_c, 0, 48, 0
2, 79440, Note_on_c, 0, 64, 0
2, 79440, Note_on_c, 0, 72, 0
2, 79440, Note_on_c, 0, 36, 0
2, 79620, Note_on_c, 0, 68, 84
2, 79680, Note_on_c, 0, 63, 73
2, 79680, Note_on_c, 0, 67, 78
2, 79740, Note_on_c, 0, 68, 0
2, 79920, Note_on_c, 0, 67, 0
2, 79920, Note_on_c, 0, 63, 0
2, 80160, Note_on_c, 0, 62, 76
2, 80160, Note_on_c, 0, 65, 76
2, 80400, Note_on_c, 0, 65, 0
2, 80400, Note_on_c, 0, 62, 0
2, 80640, Note_on_c, 0, 63, 84
2, 80640, Note_on_c, 0, 67, 84
2, 80640, Note_on_c, 0, 48, 75
2, 80640, Note_on_c, 0, 55, 75
2, 81360, Note_on_c, 0, 67, 0
2, 81360, Note_on_c, 0, 63, 0
2, 81360, Note_on_c, 0, 62, 65
2, 81360, Note_on_c, 0, 65, 70
2, 81600, Note_on_c, 0, 65, 0
2, 81600, Note_on_c, 0, 55, 0
2, 81600, Note_on_c, 0, 48, 0
2, 81600, Note_on_c, 0, 62, 0
2, 81600, Note_on_c, 0, 60, 80
2, 81600, Note_on_c, 0, 63, 80
2, 81600, Note_on_c, 0, 67, 80
2, 81600, Note_on_c, 0, 36, 75
2, 81600, Note_on_c, 0, 48, 75
2, 82320, Note_on_c, 0, 48, 0
2, 82320, Note_on_c, 0, 67, 0
2, 82320, Note_on_c, 0, 60, 0
2, 82320, Note_on_c, 0, 63, 0
2, 82320, Note_on_c, 0, 36, 0
2, 82320, Note_on_c, 0, 65, 74
2, 82320, Note_on_c, 0, 62, 63
2, 82560, Note_on_c, 0, 62, 0
2, 82560, Note_on_c, 0, 65, 0
2, 82560, Note_on_c, 0, 67, 79
2, 82560, Note_on_c, 0, 63, 71
2, 82800, Note_on_c, 0, 63, 0
2, 82800, Note_on_c, 0, 67, 0
2, 82800, Note_on_c, 0, 65, 73
2, 82800, Note_on_c, 0, 62, 64
2, 83040, Note_on_c, 0, 62, 0
2, 83040, Note_on_c, 0, 65, 0
2, 83040, Note_on_c, 0, 67, 76
2, 83040, Note_on_c, 0, 63, 69
2, 83280, Note_on_c, 0, 63, 0
2, 83280, Note_on_c, 0, 67, 0
2, 83280, Note_on_c, 0, 63, 72
2, 83280, Note_on_c, 0, 60, 62
2, 83520, Note_on_c, 0, 60, 0
2, 83520, Note_on_c, 0, 63, 0
2, 83520, Note_on_c, 0, 65, 76
2, 83520, Note_on_c, 0, 62, 66
2, 83760, Note_on_c, 0, 62, 0
2, 83760, Note_on_c, 0, 65, 0
2, 84000, Note_on_c, 0, 63, 70
2, 84000, Note_on_c, 0, 60, 63
2, 84240, Note_on_c, 0, 60, 0
2, 84240, Note_on_c, 0, 63, 0
2, 84480, Note_on_c, 0, 58, 83
2, 84480, Note_on_c, 0, 62, 83
2, 84480, Note_on_c, 0, 65, 83
2, 84480, Note_on_c, 0, 46, 72
2, 84480, Note_on_c, 0, 53, 72
2, 85200, Note_on_c, 0, 65, 0
2, 85200, Note_on_c, 0, 58, 0
2, 85200, Note_on_c, 0, 62, 0
2, 85200, Note_on_c, 0, 60, 67
2, 85200, Note_on_c, 0, 63, 62
2, 85440, Note_on_c, 0, 63, 0
2, 85440, Note_on_c, 0, 53, 0
2, 85440, Note_on_c, 0, 46, 0
2, 85440, Note_on_c, 0, 60, 0
2, 85440, Note_on_c, 0, 58, 79
2, 85440, Note_on_c, 0, 62, 79
2, 85440, Note_on_c, 0, 65, 79
2, 85440, Note_on_c, 0, 34, 61
2, 85440, Note_on_c, 0, 46, 61
2, 86160, Note_on_c, 0, 46, 0
2, 86160, Note_on_c, 0, 65, 0
2, 86160, Note_on_c, 0, 58, 0
2, 86160, Note_on_c, 0, 62, 0
2, 86160, Note_on_c, 0, 34, 0
2, 86160, Note_on_c, 0, 63, 66
2, 86160, Note_on_c, 0, 60, 61
2, 86400, Note_on_c, 0, 60, 0
2, 86400, Note_on_c, 0, 63, 0
2, 86400, Note_on_c, 0, 65, 75
2, 86400, Note_on_c, 0, 62, 65
2, 86640, Note_on_c, 0, 62, 0
2, 86640, Note_on_c, 0, 65, 0
2, 86640, Note_on_c, 0, 63, 64
2, 86640, Note_on_c, 0, 60, 61
2, 86880, Note_on_c, 0, 60, 0
2, 86880, Note_on_c, 0, 63, 0
2, 86880, Note_on_c, 0, 65, 70
2, 86880, Note_on_c, 0, 62, 64
2, 87120, Note_on_c, 0, 62, 0
2, 87120, Note_on_c, 0, 65, 0
2, 87120, Note_on_c, 0, 62, 63
2, 87120, Note_on_c, 0, 58, 59
2, 87360, Note_on_c, 0, 58, 0
2, 87360, Note_on_c, 0, 62, 0
2, 87360, Note_on_c, 0, 60, 58
2, 87360, Note_on_c, 0, 63, 52
2, 87360, Note_on_c, 0, 44, 64
2, 87600, Note_on_c, 0, 63, 0
2, 87600, Note_on_c, 0, 60, 0
2, 87840, Note_on_c, 0, 44, 0
2, 87840, Note_on_c, 0, 60, 61
2, 87840, Note_on_c, 0, 65, 62
2, 87840, Note_on_c, 0, 56, 61
2, 88080, Note_on_c, 0, 65, 0
2, 88080, Note_on_c, 0, 60, 0
2, 88320, Note_on_c, 0, 56, 0
2, 88320, Note_on_c, 0, 67, 70
2, 88320, Note_on_c, 0, 39, 72
2, 88800, Note_on_c, 0, 48, 63
2, 89040, Note_on_c, 0, 67, 0
2, 89040, Note_on_c, 0, 65, 60
2, 89280, Note_on_c, 0, 65, 0
2, 89280, Note_on_c, 0, 48, 0
2, 89280, Note_on_c, 0, 39, 0
2, 89280, Note_on_c, 0, 60, 67
2, 89280, Note_on_c, 0, 63, 64
2, 89280, Note_on_c, 0, 48, 70
2, 89280, Note_on_c, 0, 44, 66
2, 89520, Note_on_c, 0, 63, 0
2, 89520, Note_on_c, 0, 60, 0
2, 89520, Note_on_c, 0, 62, 61
2, 89520, Note_on_c, 0, 65, 61
2, 89760, Note_on_c, 0, 65, 0
2, 89760, Note_on_c, 0, 62, 0
2, 89760, Note_on_c, 0, 48, 0
2, 89760, Note_on_c, 0, 60, 70
2, 89760, Note_on_c, 0, 63, 64
2, 89760, Note_on_c, 0, 48, 61
2, 90000, Note_on_c, 0, 63, 0
2, 90000, Note_on_c, 0, 60, 0
2, 90000, Note_on_c, 0, 62, 61
2, 90000, Note_on_c, 0, 65, 61
2, 90240, Note_on_c, 0, 65, 0
2, 90240, Note_on_c, 0, 48, 0
2, 90240, Note_on_c, 0, 44, 0
2, 90240, Note_on_c, 0, 62, 0
2, 90240, Note_on_c, 0, 67, 73
2, 90240, Note_on_c, 0, 48, 66
2, 90240, Note_on_c, 0, 39, 68
2, 90720, Note_on_c, 0, 48, 0
2, 90720, Note_on_c, 0, 48, 60
2, 90960, Note_on_c, 0, 67, 0
2, 90960, Note_on_c, 0, 65, 59
2, 91200, Note_on_c, 0, 65, 0
2, 91200, Note_on_c, 0, 48, 0
2, 91200, Note_on_c, 0, 39, 0
2, 91200, Note_on_c, 0, 60, 64
2, 91200, Note_on_c, 0, 63, 64
2, 91200, Note_on_c, 0, 48, 63
2, 91200, Note_on_c, 0, 44, 70
2, 91440, Note_on_c, 0, 63, 0
2, 91440, Note_on_c, 0, 60, 0
2, 91440, Note_on_c, 0, 62, 58
2, 91440, Note_on_c, 0, 65, 58
2, 91680, Note_on_c, 0, 65, 0
2, 91680, Note_on_c, 0, 62, 0
2, 91680, Note_on_c, 0, 48, 0
2, 91680, Note_on_c, 0, 60, 63
2, 91680, Note_on_c, 0, 63, 63
2, 91680, Note_on_c, 0, 48, 58
2, 91920, Note_on_c, 0, 63, 0
2, 91920, Note_on_c, 0, 60, 0
2, 91920, Note_on_c, 0, 62, 59
2, 91920, Note_on_c, 0, 65, 59
2, 92160, Note_on_c, 0, 65, 0
2, 92160, Note_on_c, 0, 48, 0
2, 92160, Note_on_c, 0, 44, 0
2, 92160, Note_on_c, 0, 62, 0
2, 92160, Note_on_c, 0, 63, 67
2, 92160, Note_on_c, 0, 67, 65
2, 92160, Note_on_c, 0, 43, 63
2, 92400, Note_on_c, 0, 43, 0
2, 92400, Note_on_c, 0, 67, 0
2, 92400, Note_on_c, 0, 63, 0
2, 92400, Note_on_c, 0, 62, 61
2, 92400, Note_on_c, 0, 65, 61
2, 92640, Note_on_c, 0, 65, 0
2, 92640, Note_on_c, 0, 62, 0
2, 92640, Note_on_c, 0, 60, 60
2, 92640, Note_on_c, 0, 63, 60
2, 92640, Note_on_c, 0, 55, 57
2, 92880, Note_on_c, 0, 55, 0
2, 92880, Note_on_c, 0, 63, 0
2, 92880, Note_on_c, 0, 60, 0
2, 93120, Note_on_c, 0, 62, 63
2, 93120, Note_on_c, 0, 65, 63
2, 93120, Note_on_c, 0, 43, 62
2, 93360, Note_on_c, 0, 43, 0
2, 93360, Note_on_c, 0, 65, 0
2, 93360, Note_on_c, 0, 62, 0
2, 93360, Note_on_c, 0, 60, 58
2, 93360, Note_on_c, 0, 63, 58
2, 93600, Note_on_c, 0, 63, 0
2, 93600, Note_on_c, 0, 60, 0
2, 93600, Note_on_c, 0, 59, 60
2, 93600, Note_on_c, 0, 62, 60
2, 93600, Note_on_c, 0, 31, 57
2, 93840, Note_on_c, 0, 31, 0
2, 93840, Note_on_c, 0, 62, 0
2, 93840, Note_on_c, 0, 59, 0
2, 94080, Note_on_c, 0, 51, 58
2, 94080, Note_on_c, 0, 55, 58
2, 94080, Note_on_c, 0, 60, 58
2, 94080, Note_on_c, 0, 36, 63
2, 94080, Note_on_c, 0, 43, 63
2, 94080, Note_on_c, 0, 48, 63
2, 94800, Note_on_c, 0, 48, 0
2, 94800, Note_on_c, 0, 55, 0
2, 94800, Note_on_c, 0, 60, 0
2, 94800, Note_on_c, 0, 51, 0
2, 94800, Note_on_c, 0, 43, 0
2, 94800, Note_on_c, 0, 36, 0
2, 94860, Note_on_c, 0, 79, 75
2, 94920, Note_on_c, 0, 79, 0
2, 94920, Note_on_c, 0, 81, 77
2, 94980, Note_on_c, 0, 81, 0
2, 94980, Note_on_c, 0, 83, 80
2, 95040, Note_on_c, 0, 83, 0
2, 95040, Note_on_c, 0, 72, 84
2, 95040, Note_on_c, 0, 79, 84
2, 95040, Note_on_c, 0, 84, 84
2, 95040, Note_on_c, 0, 63, 76
2, 95040, Note_on_c, 0, 67, 76
2, 95280, Note_on_c, 0, 67, 0
2, 95280, Note_on_c, 0, 84, 0
2, 95280, Note_on_c, 0, 72, 0
2, 95280, Note_on_c, 0, 79, 0
2, 95280, Note_on_c, 0, 63, 0
2, 95520, Note_on_c, 0, 72, 80
2, 95520, Note_on_c, 0, 77, 80
2, 95520, Note_on_c, 0, 62, 70
2, 95520, Note_on_c, 0, 65, 70
2, 95760, Note_on_c, 0, 65, 0
2, 95760, Note_on_c, 0, 72, 0
2, 95760, Note_on_c, 0, 77, 0
2, 95760, Note_on_c, 0, 62, 0
2, 96000, Note_on_c, 0, 67, 84
2, 96000, Note_on_c, 0, 75, 84
2, 96000, Note_on_c, 0, 79, 84
2, 96000, Note_on_c, 0, 36, 87
2, 96000, Note_on_c, 0, 43, 87
2, 96000, Note_on_c, 0, 48, 87
2, 96720, Note_on_c, 0, 79, 0
2, 96720, Note_on_c, 0, 67, 0
2, 96720, Note_on_c, 0, 75, 0
2, 96720, Note_on_c, 0, 74, 77
2, 96720, Note_on_c, 0, 77, 77
2, 96720, Note_on_c, 0, 62, 57
2, 96720, Note_on_c, 0, 65, 65
2, 96960, Note_on_c, 0, 65, 0
2, 96960, Note_on_c, 0, 77, 0
2, 96960, Note_on_c, 0, 74, 0
2, 96960, Note_on_c, 0, 62, 0
2, 96960, Note_on_c, 0, 75, 86
2, 96960, Note_on_c, 0, 79, 86
2, 96960, Note_on_c, 0, 63, 75
2, 96960, Note_on_c, 0, 67, 75
2, 97680, Note_on_c, 0, 67, 0
2, 97680, Note_on_c, 0, 79, 0
2, 97680, Note_on_c, 0, 75, 0
2, 97680, Note_on_c, 0, 63, 0
2, 97680, Note_on_c, 0, 74, 85
2, 97680, Note_on_c, 0, 77, 85
2, 97680, Note_on_c, 0, 62, 63
2, 97680, Note_on_c, 0, 65, 66
2, 97920, Note_on_c, 0, 65, 0
2, 97920, Note_on_c, 0, 77, 0
2, 97920, Note_on_c, 0, 48, 0
2, 97920, Note_on_c, 0, 43, 0
2, 97920, Note_on_c, 0, 36, 0
2, 97920, Note_on_c, 0, 62, 0
2, 97920, Note_on_c, 0, 74, 0
2, 97920, Note_on_c, 0, 75, 92
2, 97920, Note_on_c, 0, 79, 92
2, 97920, Note_on_c, 0, 63, 78
2, 97920, Note_on_c, 0, 67, 78
2, 98160, Note_on_c, 0, 67, 0
2, 98160, Note_on_c, 0, 75, 0
2, 98160, Note_on_c, 0, 79, 0
2, 98160, Note_on_c, 0, 63, 0
2, 98160, Note_on_c, 0, 74, 85
2, 98160, Note_on_c, 0, 77, 85
2, 98160, Note_on_c, 0, 62, 61
2, 98160, Note_on_c, 0, 65, 69
2, 98400, Note_on_c, 0, 65, 0
2, 98400, Note_on_c, 0, 74, 0
2, 98400, Note_on_c, 0, 77, 0
2, 98400, Note_on_c, 0, 62, 0
2, 98400, Note_on_c, 0, 75, 89
2, 98400, Note_on_c, 0, 79, 89
2, 98400, Note_on_c, 0, 63, 77
2, 98400, Note_on_c, 0, 67, 77
2, 98640, Note_on_c, 0, 67, 0
2, 98640, Note_on_c, 0, 75, 0
2, 98640, Note_on_c, 0, 79, 0
2, 98640, Note_on_c, 0, 63, 0
2, 98640, Note_on_c, 0, 72, 86
2, 98640, Note_on_c, 0, 75, 86
2, 98640, Note_on_c, 0, 60, 73
2, 98640, Note_on_c, 0, 63, 58
2, 98880, Note_on_c, 0, 63, 0
2, 98880, Note_on_c, 0, 72, 0
2, 98880, Note_on_c, 0, 75, 0
2, 98880, Note_on_c, 0, 60, 0
2, 98880, Note_on_c, 0, 74, 90
2, 98880, Note_on_c, 0, 77, 90
2, 98880, Note_on_c, 0, 62, 76
2, 98880, Note_on_c, 0, 65, 76
2, 99120, Note_on_c, 0, 65, 0
2, 99120, Note_on_c, 0, 74, 0
2, 99120, Note_on_c, 0, 77, 0
2, 99120, Note_on_c, 0, 62, 0
2, 99360, Note_on_c, 0, 72, 86
2, 99360, Note_on_c, 0, 75, 86
2, 99360, Note_on_c, 0, 60, 71
2, 99360, Note_on_c, 0, 63, 57
2, 99600, Note_on_c, 0, 63, 0
2, 99600, Note_on_c, 0, 72, 0
2, 99600, Note_on_c, 0, 75, 0
2, 99600, Note_on_c, 0, 60, 0
2, 99840, Note_on_c, 0, 65, 92
2, 99840, Note_on_c, 0, 74, 92
2, 99840, Note_on_c, 0, 77, 92
2, 99840, Note_on_c, 0, 34, 87
2, 99840, Note_on_c, 0, 41, 87
2, 99840, Note_on_c, 0, 46, 87
2, 100560, Note_on_c, 0, 77, 0
2, 100560, Note_on_c, 0, 65, 0
2, 100560, Note_on_c, 0, 74, 0
2, 100560, Note_on_c, 0, 72, 79
2, 100560, Note_on_c, 0, 75, 72
2, 100560, Note_on_c, 0, 60, 70
2, 100560, Note_on_c, 0, 63, 58
2, 100800, Note_on_c, 0, 63, 0
2, 100800, Note_on_c, 0, 75, 0
2, 100800, Note_on_c, 0, 72, 0
2, 100800, Note_on_c, 0, 60, 0
2, 100800, Note_on_c, 0, 74, 88
2, 100800, Note_on_c, 0, 77, 83
2, 100800, Note_on_c, 0, 62, 76
2, 100800, Note_on_c, 0, 65, 76
2, 101520, Note_on_c, 0, 65, 0
2, 101520, Note_on_c, 0, 77, 0
2, 101520, Note_on_c, 0, 74, 0
2, 101520, Note_on_c, 0, 62, 0
2, 101520, Note_on_c, 0, 72, 78
2, 101520, Note_on_c, 0, 75, 79
2, 101520, Note_on_c, 0, 60, 75
2, 101520, Note_on_c, 0, 63, 63
2, 101760, Note_on_c, 0, 63, 0
2, 101760, Note_on_c, 0, 75, 0
2, 101760, Note_on_c, 0, 46, 0
2, 101760, Note_on_c, 0, 41, 0
2, 101760, Note_on_c, 0, 34, 0
2, 101760, Note_on_c, 0, 60, 0
2, 101760, Note_on_c, 0, 72, 0
2, 101760, Note_on_c, 0, 74, 88
2, 101760, Note_on_c, 0, 77, 88
2, 101760, Note_on_c, 0, 62, 80
2, 101760, Note_on_c, 0, 65, 80
2, 102000, Note_on_c, 0, 65, 0
2, 102000, Note_on_c, 0, 74, 0
2, 102000, Note_on_c, 0, 77, 0
2, 102000, Note_on_c, 0, 62, 0
2, 102000, Note_on_c, 0, 72, 75
2, 102000, Note_on_c, 0, 75, 67
2, 102000, Note_on_c, 0, 60, 71
2, 102000, Note_on_c, 0, 63, 61
2, 102240, Note_on_c, 0, 63, 0
2, 102240, Note_on_c, 0, 72, 0
2, 102240, Note_on_c, 0, 75, 0
2, 102240, Note_on_c, 0, 60, 0
2, 102240, Note_on_c, 0, 74, 81
2, 102240, Note_on_c, 0, 77, 81
2, 102240, Note_on_c, 0, 62, 79
2, 102240, Note_on_c, 0, 65, 79
2, 102480, Note_on_c, 0, 65, 0
2, 102480, Note_on_c, 0, 74, 0
2, 102480, Note_on_c, 0, 77, 0
2, 102480, Note_on_c, 0, 62, 0
2, 102480, Note_on_c, 0, 70, 75
2, 102480, Note_on_c, 0, 74, 75
2, 102720, Note_on_c, 0, 74, 0
2, 102720, Note_on_c, 0, 70, 0
2, 102720, Note_on_c, 0, 72, 60
2, 102720, Note_on_c, 0, 75, 60
2, 102720, Note_on_c, 0, 44, 61
2, 102720, Note_on_c, 0, 56, 58
2, 102960, Note_on_c, 0, 56, 0
2, 102960, Note_on_c, 0, 72, 0
2, 102960, Note_on_c, 0, 75, 0
2, 102960, Note_on_c, 0, 44, 0
2, 103200, Note_on_c, 0, 72, 55
2, 103200, Note_on_c, 0, 77, 55
2, 103200, Note_on_c, 0, 56, 55
2, 103200, Note_on_c, 0, 60, 55
2, 103440, Note_on_c, 0, 60, 0
2, 103440, Note_on_c, 0, 72, 0
2, 103440, Note_on_c, 0, 77, 0
2, 103440, Note_on_c, 0, 56, 0
2, 103680, Note_on_c, 0, 79, 61
2, 103680, Note_on_c, 0, 72, 59
2, 103680, Note_on_c, 0, 39, 61
2, 103680, Note_on_c, 0, 51, 61
2, 103920, Note_on_c, 0, 51, 0
2, 103920, Note_on_c, 0, 39, 0
2, 104160, Note_on_c, 0, 55, 53
2, 104160, Note_on_c, 0, 60, 53
2, 104400, Note_on_c, 0, 60, 0
2, 104400, Note_on_c, 0, 55, 0
2, 104400, Note_on_c, 0, 79, 0
2, 104400, Note_on_c, 0, 77, 56
2, 104640, Note_on_c, 0, 77, 0
2, 104640, Note_on_c, 0, 72, 0
2, 104640, Note_on_c, 0, 72, 61
2, 104640, Note_on_c, 0, 75, 62
2, 104640, Note_on_c, 0, 44, 58
2, 104640, Note_on_c, 0, 56, 58
2, 104880, Note_on_c, 0, 56, 0
2, 104880, Note_on_c, 0, 72, 0
2, 104880, Note_on_c, 0, 75, 0
2, 104880, Note_on_c, 0, 44, 0
2, 104880, Note_on_c, 0, 74, 56
2, 104880, Note_on_c, 0, 77, 56
2, 105120, Note_on_c, 0, 77, 0
2, 105120, Note_on_c, 0, 74, 0
2, 105120, Note_on_c, 0, 72, 61
2, 105120, Note_on_c, 0, 75, 59
2, 105120, Note_on_c, 0, 56, 54
2, 105120, Note_on_c, 0, 60, 54
2, 105360, Note_on_c, 0, 60, 0
2, 105360, Note_on_c, 0, 72, 0
2, 105360, Note_on_c, 0, 75, 0
2, 105360, Note_on_c, 0, 56, 0
2, 105360, Note_on_c, 0, 74, 57
2, 105360, Note_on_c, 0, 77, 57
2, 105600, Note_on_c, 0, 77, 0
2, 105600, Note_on_c, 0, 74, 0
2, 105600, Note_on_c, 0, 79, 65
2, 105600, Note_on_c, 0, 72, 75
2, 105600, Note_on_c, 0, 39, 62
2, 105600, Note_on_c, 0, 51, 62
2, 105840, Note_on_c, 0, 51, 0
2, 105840, Note_on_c, 0, 39, 0
2, 106080, Note_on_c, 0, 55, 59
2, 106080, Note_on_c, 0, 60, 59
2, 106320, Note_on_c, 0, 60, 0
2, 106320, Note_on_c, 0, 55, 0
2, 106320, Note_on_c, 0, 79, 0
2, 106320, Note_on_c, 0, 77, 63
2, 106560, Note_on_c, 0, 77, 0
2, 106560, Note_on_c, 0, 72, 0
2, 106560, Note_on_c, 0, 72, 59
2, 106560, Note_on_c, 0, 75, 59
2, 106560, Note_on_c, 0, 44, 62
2, 106560, Note_on_c, 0, 56, 62
2, 106800, Note_on_c, 0, 56, 0
2, 106800, Note_on_c, 0, 72, 0
2, 106800, Note_on_c, 0, 75, 0
2, 106800, Note_on_c, 0, 44, 0
2, 106800, Note_on_c, 0, 74, 61
2, 106800, Note_on_c, 0, 77, 61
2, 107040, Note_on_c, 0, 77, 0
2, 107040, Note_on_c, 0, 74, 0
2, 107040, Note_on_c, 0, 72, 55
2, 107040, Note_on_c, 0, 75, 55
2, 107040, Note_on_c, 0, 56, 59
2, 107040, Note_on_c, 0, 60, 59
2, 107280, Note_on_c, 0, 60, 0
2, 107280, Note_on_c, 0, 72, 0
2, 107280, Note_on_c, 0, 75, 0
2, 107280, Note_on_c, 0, 56, 0
2, 107280, Note_on_c, 0, 74, 61
2, 107280, Note_on_c, 0, 77, 61
2, 107520, Note_on_c, 0, 77, 0
2, 107520, Note_on_c, 0, 74, 0
2, 107520, Note_on_c, 0, 75, 64
2, 107520, Note_on_c, 0, 79, 65
2, 107520, Note_on_c, 0, 43, 59
2, 107760, Note_on_c, 0, 79, 0
2, 107760, Note_on_c, 0, 75, 0
2, 107760, Note_on_c, 0, 74, 62
2, 107760, Note_on_c, 0, 77, 62
2, 108000, Note_on_c, 0, 77, 0
2, 108000, Note_on_c, 0, 74, 0
2, 108000, Note_on_c, 0, 72, 61
2, 108000, Note_on_c, 0, 75, 61
2, 108000, Note_on_c, 0, 55, 60
2, 108240, Note_on_c, 0, 75, 0
2, 108240, Note_on_c, 0, 72, 0
2, 108480, Note_on_c, 0, 43, 0
2, 108480, Note_on_c, 0, 55, 0
2, 108480, Note_on_c, 0, 77, 65
2, 108480, Note_on_c, 0, 71, 66
2, 108480, Note_on_c, 0, 62, 65
2, 108480, Note_on_c, 0, 55, 64
2, 108720, Note_on_c, 0, 62, 0
2, 108720, Note_on_c, 0, 77, 0
2, 108720, Note_on_c, 0, 75, 60
2, 108720, Note_on_c, 0, 60, 60
2, 108960, Note_on_c, 0, 60, 0
2, 108960, Note_on_c, 0, 75, 0
2, 108960, Note_on_c, 0, 71, 0
2, 108960, Note_on_c, 0, 74, 60
2, 108960, Note_on_c, 0, 71, 73
2, 108960, Note_on_c, 0, 59, 60
2, 109200, Note_on_c, 0, 59, 0
2, 109200, Note_on_c, 0, 71, 0
2, 109200, Note_on_c, 0, 74, 0
2, 109440, Note_on_c, 0, 55, 0
2, 109440, Note_on_c, 0, 63, 66
2, 109440, Note_on_c, 0, 67, 66
2, 109440, Note_on_c, 0, 72, 66
2, 109440, Note_on_c, 0, 48, 67
2, 109440, Note_on_c, 0, 55, 67
2, 110160, Note_on_c, 0, 55, 0
2, 110160, Note_on_c, 0, 72, 0
2, 110160, Note_on_c, 0, 63, 0
2, 110160, Note_on_c, 0, 67, 0
2, 110160, Note_on_c, 0, 48, 0
2, 110400, Note_on_c, 0, 71, 77
2, 110400, Note_on_c, 0, 59, 75
2, 110640, Note_on_c, 0, 59, 0
2, 110640, Note_on_c, 0, 71, 0
2, 110880, Note_on_c, 0, 74, 84
2, 110880, Note_on_c, 0, 62, 80
2, 111120, Note_on_c, 0, 62, 0
2, 111120, Note_on_c, 0, 74, 0
2, 111360, Note_on_c, 0, 67, 85
2, 111360, Note_on_c, 0, 59, 90
2, 111360, Control_c, 0, 64, 127
2, 111360, Note_on_c, 0, 43, 85
2, 111360, Note_on_c, 0, 50, 85
2, 111420, Control_c, 0, 64, 127
2, 112080, Note_on_c, 0, 67, 0
2, 112080, Note_on_c, 0, 71, 78
2, 112080, Note_on_c, 0, 59, 76
2, 112320, Note_on_c, 0, 71, 0
2, 112320, Note_on_c, 0, 59, 0
2, 112320, Note_on_c, 0, 74, 85
2, 112320, Note_on_c, 0, 62, 85
2, 112560, Note_on_c, 0, 62, 0
2, 112560, Note_on_c, 0, 74, 0
2, 112560, Note_on_c, 0, 67, 77
2, 112560, Note_on_c, 0, 55, 76
2, 112800, Note_on_c, 0, 55, 0
2, 112800, Note_on_c, 0, 67, 0
2, 112800, Note_on_c, 0, 71, 84
2, 112800, Note_on_c, 0, 59, 84
2, 113040, Note_on_c, 0, 71, 0
2, 113040, Note_on_c, 0, 59, 0
2, 113040, Note_on_c, 0, 74, 76
2, 113040, Note_on_c, 0, 62, 77
2, 113280, Note_on_c, 0, 62, 0
2, 113280, Note_on_c, 0, 50, 0
2, 113280, Note_on_c, 0, 74, 0
2, 113280, Note_on_c, 0, 43, 0
2, 113280, Note_on_c, 0, 67, 83
2, 113280, Note_on_c, 0, 55, 86
2, 113280, Control_c, 0, 64, 0
2, 113520, Note_on_c, 0, 55, 0
2, 113520, Note_on_c, 0, 67, 0
2, 113520, Note_on_c, 0, 71, 74
2, 113520, Note_on_c, 0, 59, 71
2, 113760, Note_on_c, 0, 71, 0
2, 113760, Note_on_c, 0, 59, 0
2, 113760, Note_on_c, 0, 74, 79
2, 113760, Note_on_c, 0, 62, 80
2, 114000, Note_on_c, 0, 62, 0
2, 114000, Note_on_c, 0, 74, 0
2, 114000, Note_on_c, 0, 67, 69
2, 114000, Note_on_c, 0, 55, 71
2, 114240, Note_on_c, 0, 55, 0
2, 114240, Note_on_c, 0, 67, 0
2, 114240, Note_on_c, 0, 71, 77
2, 114240, Note_on_c, 0, 59, 79
2, 114480, Note_on_c, 0, 71, 0
2, 114480, Note_on_c, 0, 59, 0
2, 114720, Note_on_c, 0, 75, 83
2, 114720, Note_on_c, 0, 63, 77
2, 114960, Note_on_c, 0, 63, 0
2, 114960, Note_on_c, 0, 75, 0
2, 115155, Control_c, 0, 64, 0
2, 115200, Note_on_c, 0, 59, 0
2, 115200, Note_on_c, 0, 67, 84
2, 115200, Note_on_c, 0, 55, 88
2, 115200, Note_on_c, 0, 63, 88
2, 115200, Control_c, 0, 64, 127
2, 115200, Note_on_c, 0, 39, 84
2, 115200, Note_on_c, 0, 46, 84
2, 115200, Note_on_c, 0, 51, 84
2, 115260, Control_c, 0, 64, 127
2, 115920, Note_on_c, 0, 67, 0
2, 115920, Note_on_c, 0, 70, 75
2, 115920, Note_on_c, 0, 58, 80
2, 116160, Note_on_c, 0, 58, 0
2, 116160, Note_on_c, 0, 70, 0
2, 116160, Note_on_c, 0, 75, 82
2, 116160, Note_on_c, 0, 63, 88
2, 116400, Note_on_c, 0, 75, 0
2, 116400, Note_on_c, 0, 63, 0
2, 116400, Note_on_c, 0, 67, 75
2, 116400, Note_on_c, 0, 55, 78
2, 116640, Note_on_c, 0, 67, 0
2, 116640, Note_on_c, 0, 55, 0
2, 116640, Note_on_c, 0, 70, 79
2, 116640, Note_on_c, 0, 58, 85
2, 116880, Note_on_c, 0, 58, 0
2, 116880, Note_on_c, 0, 70, 0
2, 116880, Note_on_c, 0, 75, 73
2, 116880, Note_on_c, 0, 63, 79
2, 117120, Note_on_c, 0, 75, 0
2, 117120, Note_on_c, 0, 39, 0
2, 117120, Note_on_c, 0, 51, 0
2, 117120, Note_on_c, 0, 46, 0
2, 117120, Note_on_c, 0, 63, 0
2, 117120, Note_on_c, 0, 67, 83
2, 117120, Note_on_c, 0, 55, 87
2, 117120, Control_c, 0, 64, 0
2, 117360, Note_on_c, 0, 67, 0
2, 117360, Note_on_c, 0, 55, 0
2, 117360, Note_on_c, 0, 70, 74
2, 117360, Note_on_c, 0, 58, 76
2, 117600, Note_on_c, 0, 58, 0
2, 117600, Note_on_c, 0, 70, 0
2, 117600, Note_on_c, 0, 75, 79
2, 117600, Note_on_c, 0, 63, 84
2, 117840, Note_on_c, 0, 75, 0
2, 117840, Note_on_c, 0, 63, 0
2, 117840, Note_on_c, 0, 67, 71
2, 117840, Note_on_c, 0, 55, 77
2, 118080, Note_on_c, 0, 67, 0
2, 118080, Note_on_c, 0, 55, 0
2, 118080, Note_on_c, 0, 74, 78
2, 118080, Note_on_c, 0, 62, 84
2, 118320, Note_on_c, 0, 62, 0
2, 118320, Note_on_c, 0, 74, 0
2, 118560, Note_on_c, 0, 77, 84
2, 118560, Note_on_c, 0, 65, 87
2, 118800, Note_on_c, 0, 65, 0
2, 118800, Note_on_c, 0, 77, 0
2, 118965, Control_c, 0, 64, 0
2, 119040, Note_on_c, 0, 63, 0
2, 119040, Note_on_c, 0, 55, 0
2, 119040, Note_on_c, 0, 59, 87
2, 119040, Note_on_c, 0, 65, 87
2, 119040, Note_on_c, 0, 67, 87
2, 119040, Control_c, 0, 64, 127
2, 119040, Note_on_c, 0, 38, 85
2, 119040, Note_on_c, 0, 43, 85
2, 119040, Note_on_c, 0, 50, 85
2, 119115, Control_c, 0, 64, 127
2, 119760, Note_on_c, 0, 74, 77
2, 119760, Note_on_c, 0, 62, 77
2, 120000, Note_on_c, 0, 62, 0
2, 120000, Note_on_c, 0, 74, 0
2, 120000, Note_on_c, 0, 77, 84
2, 120000, Note_on_c, 0, 65, 86
2, 120240, Note_on_c, 0, 77, 0
2, 120240, Note_on_c, 0, 65, 0
2, 120240, Note_on_c, 0, 67, 77
2, 120240, Note_on_c, 0, 55, 78
2, 120480, Note_on_c, 0, 55, 0
2, 120480, Note_on_c, 0, 67, 0
2, 120480, Note_on_c, 0, 74, 84
2, 120720, Note_on_c, 0, 74, 0
2, 120720, Note_on_c, 0, 77, 77
2, 120870, Control_c, 0, 64, 0
2, 120960, Note_on_c, 0, 77, 0
2, 120960, Note_on_c, 0, 43, 0
2, 120960, Note_on_c, 0, 50, 0
2, 120960, Note_on_c, 0, 38, 0
2, 120960, Note_on_c, 0, 65, 0
2, 120960, Note_on_c, 0, 67, 0
2, 120960, Note_on_c, 0, 59, 0
2, 120960, Note_on_c, 0, 67, 85
2, 120960, Note_on_c, 0, 55, 88
2, 120960, Note_on_c, 0, 63, 88
2, 120960, Control_c, 0, 64, 0
2, 120960, Note_on_c, 0, 36, 85
2, 120960, Note_on_c, 0, 43, 85
2, 120960, Note_on_c, 0, 48, 85
2, 121050, Control_c, 0, 64, 127
2, 121080, Control_c, 0, 64, 127
2, 121680, Note_on_c, 0, 67, 0
2, 121680, Note_on_c, 0, 75, 72
2, 121680, Note_on_c, 0, 60, 73
2, 121920, Note_on_c, 0, 60, 0
2, 121920, Note_on_c, 0, 75, 0
2, 121920, Note_on_c, 0, 78, 80
2, 121920, Note_on_c, 0, 63, 80
2, 122160, Note_on_c, 0, 78, 0
2, 122160, Note_on_c, 0, 63, 0
2, 122160, Note_on_c, 0, 67, 72
2, 122160, Note_on_c, 0, 55, 76
2, 122400, Note_on_c, 0, 67, 0
2, 122400, Note_on_c, 0, 55, 0
2, 122400, Note_on_c, 0, 75, 80
2, 122640, Note_on_c, 0, 75, 0
2, 122640, Note_on_c, 0, 78, 71
2, 122820, Control_c, 0, 64, 0
2, 122820, Control_c, 0, 64, 0
2, 122880, Note_on_c, 0, 78, 0
2, 122880, Note_on_c, 0, 63, 0
2, 122880, Note_on_c, 0, 43, 0
2, 122880, Note_on_c, 0, 36, 0
2, 122880, Note_on_c, 0, 55, 0
2, 122880, Note_on_c, 0, 48, 0
2, 122880, Note_on_c, 0, 59, 78
2, 122880, Note_on_c, 0, 67, 78
2, 122880, Note_on_c, 0, 31, 86
2, 122880, Note_on_c, 0, 43, 86
2, 122925, Control_c, 0, 64, 127
2, 123120, Note_on_c, 0, 67, 0
2, 123120, Note_on_c, 0, 59, 0
2, 123120, Note_on_c, 0, 68, 61
2, 123360, Note_on_c, 0, 68, 0
2, 123360, Note_on_c, 0, 69, 69
2, 123360, Note_on_c, 0, 60, 52
2, 123600, Note_on_c, 0, 60, 0
2, 123600, Note_on_c, 0, 69, 0
2, 123600, Note_on_c, 0, 70, 65
2, 123600, Note_on_c, 0, 61, 50
2, 123840, Note_on_c, 0, 61, 0
2, 123840, Note_on_c, 0, 70, 0
2, 123840, Note_on_c, 0, 71, 75
2, 123840, Note_on_c, 0, 62, 59
2, 124080, Note_on_c, 0, 62, 0
2, 124080, Note_on_c, 0, 71, 0
2, 124080, Note_on_c, 0, 72, 72
2, 124080, Note_on_c, 0, 63, 55
2, 124320, Note_on_c, 0, 63, 0
2, 124320, Note_on_c, 0, 72, 0
2, 124320, Note_on_c, 0, 73, 81
2, 124320, Note_on_c, 0, 64, 65
2, 124560, Note_on_c, 0, 64, 0
2, 124560, Note_on_c, 0, 73, 0
2, 124560, Note_on_c, 0, 74, 75
2, 124560, Note_on_c, 0, 65, 63
2, 124770, Control_c, 0, 64, 0
2, 124800, Note_on_c, 0, 65, 0
2, 124800, Note_on_c, 0, 43, 0
2, 124800, Note_on_c, 0, 31, 0
2, 124800, Note_on_c, 0, 74, 0
2, 124800, Note_on_c, 0, 75, 86
2, 124800, Note_on_c, 0, 67, 71
2, 125040, Note_on_c, 0, 67, 0
2, 125040, Note_on_c, 0, 75, 0
2, 125040, Note_on_c, 0, 76, 80
2, 125040, Note_on_c, 0, 68, 67
2, 125280, Note_on_c, 0, 68, 0
2, 125280, Note_on_c, 0, 76, 0
2, 125280, Note_on_c, 0, 77, 92
2, 125280, Note_on_c, 0, 69, 77
2, 125520, Note_on_c, 0, 69, 0
2, 125520, Note_on_c, 0, 77, 0
2, 125520, Note_on_c, 0, 78, 85
2, 125520, Note_on_c, 0, 70, 74
2, 125760, Note_on_c, 0, 70, 0
2, 125760, Note_on_c, 0, 78, 0
2, 125760, Note_on_c, 0, 79, 98
2, 125760, Note_on_c, 0, 87, 98
2, 125760, Note_on_c, 0, 91, 98
2, 125760, Note_on_c, 0, 68, 84
2, 125760, Note_on_c, 0, 71, 84
2, 126240, Note_on_c, 0, 71, 0
2, 126240, Note_on_c, 0, 91, 0
2, 126240, Note_on_c, 0, 79, 0
2, 126240, Note_on_c, 0, 87, 0
2, 126240, Note_on_c, 0, 68, 0
2, 126240, Note_on_c, 0, 77, 92
2, 126240, Note_on_c, 0, 86, 92
2, 126240, Note_on_c, 0, 89, 92
2, 126240, Note_on_c, 0, 62, 84
2, 126240, Note_on_c, 0, 65, 84
2, 126720, Note_on_c, 0, 65, 0
2, 126720, Note_on_c, 0, 89, 0
2, 126720, Note_on_c, 0, 77, 0
2, 126720, Note_on_c, 0, 86, 0
2, 126720, Note_on_c, 0, 62, 0
2, 126720, Note_on_c, 0, 79, 98
2, 126720, Note_on_c, 0, 87, 98
2, 126720, Note_on_c, 0, 91, 98
2, 126720, Note_on_c, 0, 60, 86
2, 126720, Note_on_c, 0, 63, 86
2, 126720, Note_on_c, 0, 67, 86
2, 126780, Control_c, 0, 64, 127
2, 127440, Note_on_c, 0, 91, 0
2, 127440, Note_on_c, 0, 79, 0
2, 127440, Note_on_c, 0, 87, 0
2, 127440, Note_on_c, 0, 77, 86
2, 127440, Note_on_c, 0, 86, 86
2, 127440, Note_on_c, 0, 89, 86
2, 127680, Note_on_c, 0, 89, 0
2, 127680, Note_on_c, 0, 77, 0
2, 127680, Note_on_c, 0, 86, 0
2, 127680, Note_on_c, 0, 79, 96
2, 127680, Note_on_c, 0, 87, 96
2, 127680, Note_on_c, 0, 91, 96
2, 127680, Note_on_c, 0, 36, 87
2, 127680, Note_on_c, 0, 48, 87
2, 128400, Note_on_c, 0, 91, 0
2, 128400, Note_on_c, 0, 79, 0
2, 128400, Note_on_c, 0, 87, 0
2, 128400, Note_on_c, 0, 77, 85
2, 128400, Note_on_c, 0, 86, 85
2, 128400, Note_on_c, 0, 89, 85
2, 128400, Note_on_c, 0, 62, 69
2, 128400, Note_on_c, 0, 65, 60
2, 128610, Control_c, 0, 64, 0
2, 128640, Note_on_c, 0, 65, 0
2, 128640, Note_on_c, 0, 67, 0
2, 128640, Note_on_c, 0, 63, 0
2, 128640, Note_on_c, 0, 48, 0
2, 128640, Note_on_c, 0, 60, 0
2, 128640, Note_on_c, 0, 36, 0
2, 128640, Note_on_c, 0, 89, 0
2, 128640, Note_on_c, 0, 86, 0
2, 128640, Note_on_c, 0, 77, 0
2, 128640, Note_on_c, 0, 62, 0
2, 128640, Note_on_c, 0, 79, 91
2, 128640, Note_on_c, 0, 91, 91
2, 128640, Note_on_c, 0, 63, 77
2, 128640, Note_on_c, 0, 67, 77
2, 128880, Note_on_c, 0, 67, 0
2, 128880, Note_on_c, 0, 79, 0
2, 128880, Note_on_c, 0, 91, 0
2, 128880, Note_on_c, 0, 63, 0
2, 128880, Note_on_c, 0, 89, 83
2, 128880, Note_on_c, 0, 62, 71
2, 128880, Note_on_c, 0, 65, 71
2, 129120, Note_on_c, 0, 65, 0
2, 129120, Note_on_c, 0, 62, 0
2, 129120, Note_on_c, 0, 89, 0
2, 129120, Note_on_c, 0, 79, 90
2, 129120, Note_on_c, 0, 91, 90
2, 129120, Note_on_c, 0, 63, 76
2, 129120, Note_on_c, 0, 67, 76
2, 129360, Note_on_c, 0, 67, 0
2, 129360, Note_on_c, 0, 79, 0
2, 129360, Note_on_c, 0, 91, 0
2, 129360, Note_on_c, 0, 63, 0
2, 129360, Note_on_c, 0, 87, 83
2, 129360, Note_on_c, 0, 60, 72
2, 129360, Note_on_c, 0, 63, 57
2, 129600, Note_on_c, 0, 63, 0
2, 129600, Note_on_c, 0, 60, 0
2, 129600, Note_on_c, 0, 87, 0
2, 129600, Note_on_c, 0, 77, 90
2, 129600, Note_on_c, 0, 86, 90
2, 129600, Note_on_c, 0, 89, 90
2, 129600, Note_on_c, 0, 62, 77
2, 129600, Note_on_c, 0, 65, 77
2, 130080, Note_on_c, 0, 65, 0
2, 130080, Note_on_c, 0, 89, 0
2, 130080, Note_on_c, 0, 77, 0
2, 130080, Note_on_c, 0, 86, 0
2, 130080, Note_on_c, 0, 62, 0
2, 130080, Note_on_c, 0, 75, 88
2, 130080, Note_on_c, 0, 84, 88
2, 130080, Note_on_c, 0, 87, 88
2, 130080, Note_on_c, 0, 60, 76
2, 130080, Note_on_c, 0, 63, 76
2, 130560, Note_on_c, 0, 63, 0
2, 130560, Note_on_c, 0, 87, 0
2, 130560, Note_on_c, 0, 75, 0
2, 130560, Note_on_c, 0, 84, 0
2, 130560, Note_on_c, 0, 60, 0
2, 130560, Note_on_c, 0, 77, 93
2, 130560, Note_on_c, 0, 86, 93
2, 130560, Note_on_c, 0, 89, 93
2, 130560, Note_on_c, 0, 58, 92
2, 130560, Note_on_c, 0, 62, 92
2, 130560, Note_on_c, 0, 65, 92
2, 131280, Note_on_c, 0, 89, 0
2, 131280, Note_on_c, 0, 77, 0
2, 131280, Note_on_c, 0, 86, 0
2, 131280, Note_on_c, 0, 75, 76
2, 131280, Note_on_c, 0, 84, 76
2, 131280, Note_on_c, 0, 87, 76
2, 131520, Note_on_c, 0, 87, 0
2, 131520, Note_on_c, 0, 75, 0
2, 131520, Note_on_c, 0, 84, 0
2, 131520, Note_on_c, 0, 77, 91
2, 131520, Note_on_c, 0, 86, 91
2, 131520, Note_on_c, 0, 89, 91
2, 131520, Note_on_c, 0, 34, 91
2, 131520, Note_on_c, 0, 41, 91
2, 131520, Note_on_c, 0, 46, 91
2, 132240, Note_on_c, 0, 89, 0
2, 132240, Note_on_c, 0, 77, 0
2, 132240, Note_on_c, 0, 86, 0
2, 132240, Note_on_c, 0, 75, 79
2, 132240, Note_on_c, 0, 84, 79
2, 132240, Note_on_c, 0, 87, 79
2, 132240, Note_on_c, 0, 60, 77
2, 132240, Note_on_c, 0, 63, 77
2, 132480, Note_on_c, 0, 63, 0
2, 132480, Note_on_c, 0, 84, 0
2, 132480, Note_on_c, 0, 65, 0
2, 132480, Note_on_c, 0, 41, 0
2, 132480, Note_on_c, 0, 46, 0
2, 132480, Note_on_c, 0, 62, 0
2, 132480, Note_on_c, 0, 58, 0
2, 132480, Note_on_c, 0, 87, 0
2, 132480, Note_on_c, 0, 75, 0
2, 132480, Note_on_c, 0, 34, 0
2, 132480, Note_on_c, 0, 60, 0
2, 132480, Note_on_c, 0, 77, 86
2, 132480, Note_on_c, 0, 89, 86
2, 132480, Note_on_c, 0, 62, 84
2, 132480, Note_on_c, 0, 65, 84
2, 132720, Note_on_c, 0, 65, 0
2, 132720, Note_on_c, 0, 77, 0
2, 132720, Note_on_c, 0, 89, 0
2, 132720, Note_on_c, 0, 62, 0
2, 132720, Note_on_c, 0, 87, 80
2, 132720, Note_on_c, 0, 60, 78
2, 132720, Note_on_c, 0, 63, 78
2, 132960, Note_on_c, 0, 63, 0
2, 132960, Note_on_c, 0, 60, 0
2, 132960, Note_on_c, 0, 87, 0
2, 132960, Note_on_c, 0, 77, 89
2, 132960, Note_on_c, 0, 89, 89
2, 132960, Note_on_c, 0, 62, 85
2, 132960, Note_on_c, 0, 65, 85
2, 133200, Note_on_c, 0, 65, 0
2, 133200, Note_on_c, 0, 77, 0
2, 133200, Note_on_c, 0, 89, 0
2, 133200, Note_on_c, 0, 62, 0
2, 133200, Note_on_c, 0, 86, 85
2, 133440, Note_on_c, 0, 86, 0
2, 133440, Note_on_c, 0, 87, 60
2, 133440, Note_on_c, 0, 75, 60
2, 133440, Note_on_c, 0, 44, 59
2, 133440, Note_on_c, 0, 56, 59
2, 133680, Note_on_c, 0, 56, 0
2, 133680, Note_on_c, 0, 44, 0
2, 133680, Note_on_c, 0, 75, 0
2, 133920, Note_on_c, 0, 87, 0
2, 133920, Note_on_c, 0, 77, 64
2, 133920, Note_on_c, 0, 56, 62
2, 133920, Note_on_c, 0, 60, 62
2, 134160, Note_on_c, 0, 60, 0
2, 134160, Note_on_c, 0, 56, 0
2, 134160, Note_on_c, 0, 77, 0
2, 134400, Note_on_c, 0, 72, 74
2, 134400, Note_on_c, 0, 84, 74
2, 134400, Note_on_c, 0, 79, 72
2, 134400, Note_on_c, 0, 39, 63
2, 134400, Note_on_c, 0, 51, 63
2, 134640, Note_on_c, 0, 51, 0
2, 134640, Note_on_c, 0, 39, 0
2, 134880, Note_on_c, 0, 55, 57
2, 134880, Note_on_c, 0, 60, 57
2, 135120, Note_on_c, 0, 60, 0
2, 135120, Note_on_c, 0, 79, 0
2, 135120, Note_on_c, 0, 55, 0
2, 135120, Note_on_c, 0, 77, 67
2, 135360, Note_on_c, 0, 77, 0
2, 135360, Note_on_c, 0, 84, 0
2, 135360, Note_on_c, 0, 72, 0
2, 135360, Note_on_c, 0, 72, 65
2, 135360, Note_on_c, 0, 75, 65
2, 135360, Note_on_c, 0, 44, 61
2, 135360, Note_on_c, 0, 56, 63
2, 135600, Note_on_c, 0, 56, 0
2, 135600, Note_on_c, 0, 72, 0
2, 135600, Note_on_c, 0, 75, 0
2, 135600, Note_on_c, 0, 44, 0
2, 135600, Note_on_c, 0, 77, 65
2, 135840, Note_on_c, 0, 77, 0
2, 135840, Note_on_c, 0, 72, 65
2, 135840, Note_on_c, 0, 75, 65
2, 135840, Note_on_c, 0, 56, 54
2, 135840, Note_on_c, 0, 60, 54
2, 136080, Note_on_c, 0, 60, 0
2, 136080, Note_on_c, 0, 72, 0
2, 136080, Note_on_c, 0, 75, 0
2, 136080, Note_on_c, 0, 56, 0
2, 136080, Note_on_c, 0, 77, 66
2, 136320, Note_on_c, 0, 77, 0
2, 136320, Note_on_c, 0, 72, 74
2, 136320, Note_on_c, 0, 84, 74
2, 136320, Note_on_c, 0, 79, 71
2, 136320, Note_on_c, 0, 39, 63
2, 136320, Note_on_c, 0, 51, 63
2, 136560, Note_on_c, 0, 51, 0
2, 136560, Note_on_c, 0, 39, 0
2, 136800, Note_on_c, 0, 55, 54
2, 136800, Note_on_c, 0, 60, 54
2, 137040, Note_on_c, 0, 60, 0
2, 137040, Note_on_c, 0, 79, 0
2, 137040, Note_on_c, 0, 55, 0
2, 137040, Note_on_c, 0, 77, 64
2, 137280, Note_on_c, 0, 77, 0
2, 137280, Note_on_c, 0, 84, 0
2, 137280, Note_on_c, 0, 72, 0
2, 137280, Note_on_c, 0, 72, 63
2, 137280, Note_on_c, 0, 75, 65
2, 137280, Note_on_c, 0, 44, 64
2, 137280, Note_on_c, 0, 56, 64
2, 137520, Note_on_c, 0, 56, 0
2, 137520, Note_on_c, 0, 72, 0
2, 137520, Note_on_c, 0, 75, 0
2, 137520, Note_on_c, 0, 44, 0
2, 137520, Note_on_c, 0, 77, 62
2, 137760, Note_on_c, 0, 77, 0
2, 137760, Note_on_c, 0, 72, 57
2, 137760, Note_on_c, 0, 75, 63
2, 137760, Note_on_c, 0, 56, 53
2, 137760, Note_on_c, 0, 60, 53
2, 138000, Note_on_c, 0, 60, 0
2, 138000, Note_on_c, 0, 72, 0
2, 138000, Note_on_c, 0, 75, 0
2, 138000, Note_on_c, 0, 56, 0
2, 138000, Note_on_c, 0, 77, 64
2, 138240, Note_on_c, 0, 77, 0
2, 138240, Note_on_c, 0, 75, 64
2, 138240, Note_on_c, 0, 79, 71
2, 138240, Note_on_c, 0, 43, 63
2, 138240, Note_on_c, 0, 55, 63
2, 138480, Note_on_c, 0, 55, 0
2, 138480, Note_on_c, 0, 75, 0
2, 138480, Note_on_c, 0, 79, 0
2, 138480, Note_on_c, 0, 43, 0
2, 138480, Note_on_c, 0, 74, 55
2, 138480, Note_on_c, 0, 77, 62
2, 138720, Note_on_c, 0, 77, 0
2, 138720, Note_on_c, 0, 74, 0
2, 138720, Note_on_c, 0, 72, 63
2, 138720, Note_on_c, 0, 75, 70
2, 138720, Note_on_c, 0, 55, 55
2, 138720, Note_on_c, 0, 60, 55
2, 138960, Note_on_c, 0, 60, 0
2, 138960, Note_on_c, 0, 55, 0
2, 139200, Note_on_c, 0, 75, 0
2, 139200, Note_on_c, 0, 72, 0
2, 139200, Note_on_c, 0, 77, 67
2, 139200, Note_on_c, 0, 71, 65
2, 139200, Note_on_c, 0, 43, 62
2, 139200, Note_on_c, 0, 55, 62
2, 139440, Note_on_c, 0, 77, 0
2, 139440, Note_on_c, 0, 75, 60
2, 139680, Note_on_c, 0, 75, 0
2, 139680, Note_on_c, 0, 55, 0
2, 139680, Note_on_c, 0, 43, 0
2, 139680, Note_on_c, 0, 71, 0
2, 139680, Note_on_c, 0, 65, 57
2, 139680, Note_on_c, 0, 71, 57
2, 139680, Note_on_c, 0, 74, 57
2, 139680, Note_on_c, 0, 31, 53
2, 139680, Note_on_c, 0, 43, 53
2, 140160, Note_on_c, 0, 43, 0
2, 140160, Note_on_c, 0, 74, 0
2, 140160, Note_on_c, 0, 65, 0
2, 140160, Note_on_c, 0, 71, 0
2, 140160, Note_on_c, 0, 31, 0
2, 140160, Note_on_c, 0, 63, 63
2, 140160, Note_on_c, 0, 72, 63
2, 140160, Note_on_c, 0, 36, 59
2, 140160, Note_on_c, 0, 48, 59
2, 140880, Note_on_c, 0, 48, 0
2, 140880, Note_on_c, 0, 63, 0
2, 140880, Note_on_c, 0, 72, 0
2, 140880, Note_on_c, 0, 36, 0
2, 141120, Note_on_c, 0, 71, 83
2, 141120, Note_on_c, 0, 59, 71
2, 141360, Note_on_c, 0, 59, 0
2, 141360, Note_on_c, 0, 71, 0
2, 141600, Note_on_c, 0, 74, 85
2, 141600, Note_on_c, 0, 62, 76
2, 141840, Note_on_c, 0, 62, 0
2, 141840, Note_on_c, 0, 74, 0
2, 142080, Note_on_c, 0, 67, 85
2, 142080, Note_on_c, 0, 59, 90
2, 142080, Control_c, 0, 64, 127
2, 142080, Note_on_c, 0, 43, 85
2, 142080, Note_on_c, 0, 50, 85
2, 142140, Control_c, 0, 64, 127
2, 142800, Note_on_c, 0, 67, 0
2, 142800, Note_on_c, 0, 71, 78
2, 142800, Note_on_c, 0, 59, 76
2, 143040, Note_on_c, 0, 71, 0
2, 143040, Note_on_c, 0, 59, 0
2, 143040, Note_on_c, 0, 74, 85
2, 143040, Note_on_c, 0, 62, 85
2, 143280, Note_on_c, 0, 62, 0
2, 143280, Note_on_c, 0, 74, 0
2, 143280, Note_on_c, 0, 67, 77
2, 143280, Note_on_c, 0, 55, 76
2, 143520, Note_on_c, 0, 55, 0
2, 143520, Note_on_c, 0, 67, 0
2, 143520, Note_on_c, 0, 71, 84
2, 143520, Note_on_c, 0, 59, 84
2, 143760, Note_on_c, 0, 71, 0
2, 143760, Note_on_c, 0, 59, 0
2, 143760, Note_on_c, 0, 74, 76
2, 143760, Note_on_c, 0, 62, 77
2, 144000, Note_on_c, 0, 62, 0
2, 144000, Note_on_c, 0, 50, 0
2, 144000, Note_on_c, 0, 74, 0
2, 144000, Note_on_c, 0, 43, 0
2, 144000, Note_on_c, 0, 67, 83
2, 144000, Note_on_c, 0, 55, 86
2, 144000, Control_c, 0, 64, 0
2, 144240, Note_on_c, 0, 55, 0
2, 144240, Note_on_c, 0, 67, 0
2, 144240, Note_on_c, 0, 71, 74
2, 144240, Note_on_c, 0, 59, 71
2, 144480, Note_on_c, 0, 71, 0
2, 144480, Note_on_c, 0, 59, 0
2, 144480, Note_on_c, 0, 74, 79
2, 144480, Note_on_c, 0, 62, 80
2, 144720, Note_on_c, 0, 62, 0
2, 144720, Note_on_c, 0, 74, 0
2, 144720, Note_on_c, 0, 67, 69
2, 144720, Note_on_c, 0, 55, 71
2, 144960, Note_on_c, 0, 55, 0
2, 144960, Note_on_c, 0, 67, 0
2, 144960, Note_on_c, 0, 71, 77
2, 144960, Note_on_c, 0, 59, 79
2, 145200, Note_on_c, 0, 71, 0
2, 145200, Note_on_c, 0, 59, 0
2, 145440, Note_on_c, 0, 75, 83
2, 145440, Note_on_c, 0, 63, 77
2, 145680, Note_on_c, 0, 63, 0
2, 145680, Note_on_c, 0, 75, 0
2, 145875, Control_c, 0, 64, 0
2, 145920, Note_on_c, 0, 59, 0
2, 145920, Note_on_c, 0, 67, 84
2, 145920, Note_on_c, 0, 55, 88
2, 145920, Note_on_c, 0, 63, 88
2, 145920, Control_c, 0, 64, 127
2, 145920, Note_on_c, 0, 39, 84
2, 145920, Note_on_c, 0, 46, 84
2, 145920, Note_on_c, 0, 51, 84
2, 145980, Control_c, 0, 64, 127
2, 146640, Note_on_c, 0, 67, 0
2, 146640, Note_on_c, 0, 70, 75
2, 146640, Note_on_c, 0, 58, 80
2, 146880, Note_on_c, 0, 58, 0
2, 146880, Note_on_c, 0, 70, 0
2, 146880, Note_on_c, 0, 75, 82
2, 146880, Note_on_c, 0, 63, 88
2, 147120, Note_on_c, 0, 75, 0
2, 147120, Note_on_c, 0, 63, 0
2, 147120, Note_on_c, 0, 67, 75
2, 147120, Note_on_c, 0, 55, 78
2, 147360, Note_on_c, 0, 67, 0
2, 147360, Note_on_c, 0, 55, 0
2, 147360, Note_on_c, 0, 70, 79
2, 147360, Note_on_c, 0, 58, 85
2, 147600, Note_on_c, 0, 58, 0
2, 147600, Note_on_c, 0, 70, 0
2, 147600, Note_on_c, 0, 75, 73
2, 147600, Note_on_c, 0, 63, 79
2, 147840, Note_on_c, 0, 75, 0
2, 147840, Note_on_c, 0, 39, 0
2, 147840, Note_on_c, 0, 51, 0
2, 147840, Note_on_c, 0, 46, 0
2, 147840, Note_on_c, 0, 63, 0
2, 147840, Note_on_c, 0, 67, 83
2, 147840, Note_on_c, 0, 55, 87
2, 147840, Control_c, 0, 64, 0
2, 148080, Note_on_c, 0, 67, 0
2, 148080, Note_on_c, 0, 55, 0
2, 148080, Note_on_c, 0, 70, 74
2, 148080, Note_on_c, 0, 58, 76
2, 148320, Note_on_c, 0, 58, 0
2, 148320, Note_on_c, 0, 70, 0
2, 148320, Note_on_c, 0, 75, 79
2, 148320, Note_on_c, 0, 63, 84
2, 148560, Note_on_c, 0, 75, 0
2, 148560, Note_on_c, 0, 63, 0
2, 148560, Note_on_c, 0, 67, 71
2, 148560, Note_on_c, 0, 55, 77
2, 148800, Note_on_c, 0, 67, 0
2, 148800, Note_on_c, 0, 55, 0
2, 148800, Note_on_c, 0, 74, 78
2, 148800, Note_on_c, 0, 62, 84
2, 149040, Note_on_c, 0, 62, 0
2, 149040, Note_on_c, 0, 74, 0
2, 149280, Note_on_c, 0, 77, 84
2, 149280, Note_on_c, 0, 65, 87
2, 149520, Note_on_c, 0, 65, 0
2, 149520, Note_on_c, 0, 77, 0
2, 149685, Control_c, 0, 64, 0
2, 149760, Note_on_c, 0, 63, 0
2, 149760, Note_on_c, 0, 55, 0
2, 149760, Note_on_c, 0, 59, 87
2, 149760, Note_on_c, 0, 65, 87
2, 149760, Note_on_c, 0, 67, 87
2, 149760, Control_c, 0, 64, 127
2, 149760, Note_on_c, 0, 38, 85
2, 149760, Note_on_c, 0, 43, 85
2, 149760, Note_on_c, 0, 50, 85
2, 149835, Control_c, 0, 64, 127
2, 150480, Note_on_c, 0, 74, 77
2, 150480, Note_on_c, 0, 62, 77
2, 150720, Note_on_c, 0, 62, 0
2, 150720, Note_on_c, 0, 74, 0
2, 150720, Note_on_c, 0, 77, 84
2, 150720, Note_on_c, 0, 65, 86
2, 150960, Note_on_c, 0, 77, 0
2, 150960, Note_on_c, 0, 65, 0
2, 150960, Note_on_c, 0, 67, 77
2, 150960, Note_on_c, 0, 55, 78
2, 151200, Note_on_c, 0, 55, 0
2, 151200, Note_on_c, 0, 67, 0
2, 151200, Note_on_c, 0, 74, 84
2, 151440, Note_on_c, 0, 74, 0
2, 151440, Note_on_c, 0, 77, 77
2, 151590, Control_c, 0, 64, 0
2, 151680, Note_on_c, 0, 77, 0
2, 151680, Note_on_c, 0, 43, 0
2, 151680, Note_on_c, 0, 50, 0
2, 151680, Note_on_c, 0, 38, 0
2, 151680, Note_on_c, 0, 65, 0
2, 151680, Note_on_c, 0, 67, 0
2, 151680, Note_on_c, 0, 59, 0
2, 151680, Note_on_c, 0, 67, 85
2, 151680, Note_on_c, 0, 55, 88
2, 151680, Note_on_c, 0, 63, 88
2, 151680, Control_c, 0, 64, 0
2, 151680, Note_on_c, 0, 36, 85
2, 151680, Note_on_c, 0, 43, 85
2, 151680, Note_on_c, 0, 48, 85
2, 151770, Control_c, 0, 64, 127
2, 151800, Control_c, 0, 64, 127
2, 152400, Note_on_c, 0, 67, 0
2, 152400, Note_on_c, 0, 75, 72
2, 152400, Note_on_c, 0, 60, 73
2, 152640, Note_on_c, 0, 60, 0
2, 152640, Note_on_c, 0, 75, 0
2, 152640, Note_on_c, 0, 78, 80
2, 152640, Note_on_c, 0, 63, 80
2, 152880, Note_on_c, 0, 78, 0
2, 152880, Note_on_c, 0, 63, 0
2, 152880, Note_on_c, 0, 67, 72
2, 152880, Note_on_c, 0, 55, 76
2, 153120, Note_on_c, 0, 67, 0
2, 153120, Note_on_c, 0, 55, 0
2, 153120, Note_on_c, 0, 75, 80
2, 153360, Note_on_c, 0, 75, 0
2, 153360, Note_on_c, 0, 78, 71
2, 153540, Control_c, 0, 64, 0
2, 153540, Control_c, 0, 64, 0
2, 153600, Note_on_c, 0, 78, 0
2, 153600, Note_on_c, 0, 63, 0
2, 153600, Note_on_c, 0, 43, 0
2, 153600, Note_on_c, 0, 36, 0
2, 153600, Note_on_c, 0, 55, 0
2, 153600, Note_on_c, 0, 48, 0
2, 153600, Note_on_c, 0, 59, 78
2, 153600, Note_on_c, 0, 67, 78
2, 153600, Note_on_c, 0, 31, 86
2, 153600, Note_on_c, 0, 43, 86
2, 153645, Control_c, 0, 64, 127
2, 153840, Note_on_c, 0, 67, 0
2, 153840, Note_on_c, 0, 59, 0
2, 153840, Note_on_c, 0, 68, 61
2, 154080, Note_on_c, 0, 68, 0
2, 154080, Note_on_c, 0, 69, 69
2, 154080, Note_on_c, 0, 60, 52
2, 154320, Note_on_c, 0, 60, 0
2, 154320, Note_on_c, 0, 69, 0
2, 154320, Note_on_c, 0, 70, 65
2, 154320, Note_on_c, 0, 61, 50
2, 154560, Note_on_c, 0, 61, 0
2, 154560, Note_on_c, 0, 70, 0
2, 154560, Note_on_c, 0, 71, 75
2, 154560, Note_on_c, 0, 62, 59
2, 154800, Note_on_c, 0, 62, 0
2, 154800, Note_on_c, 0, 71, 0
2, 154800, Note_on_c, 0, 72, 72
2, 154800, Note_on_c, 0, 63, 55
2, 155040, Note_on_c, 0, 63, 0
2, 155040, Note_on_c, 0, 72, 0
2, 155040, Note_on_c, 0, 73, 81
2, 155040, Note_on_c, 0, 64, 65
2, 155280, Note_on_c, 0, 64, 0
2, 155280, Note_on_c, 0, 73, 0
2, 155280, Note_on_c, 0, 74, 75
2, 155280, Note_on_c, 0, 65, 63
2, 155490, Control_c, 0, 64, 0
2, 155520, Note_on_c, 0, 65, 0
2, 155520, Note_on_c, 0, 43, 0
2, 155520, Note_on_c, 0, 31, 0
2, 155520, Note_on_c, 0, 74, 0
2, 155520, Note_on_c, 0, 75, 86
2, 155520, Note_on_c, 0, 67, 71
2, 155760, Note_on_c, 0, 67, 0
2, 155760, Note_on_c, 0, 75, 0
2, 155760, Note_on_c, 0, 76, 80
2, 155760, Note_on_c, 0, 68, 67
2, 156000, Note_on_c, 0, 68, 0
2, 156000, Note_on_c, 0, 76, 0
2, 156000, Note_on_c, 0, 77, 92
2, 156000, Note_on_c, 0, 69, 77
2, 156240, Note_on_c, 0, 69, 0
2, 156240, Note_on_c, 0, 77, 0
2, 156240, Note_on_c, 0, 78, 85
2, 156240, Note_on_c, 0, 70, 74
2, 156480, Note_on_c, 0, 70, 0
2, 156480, Note_on_c, 0, 78, 0
2, 156480, Note_on_c, 0, 79, 98
2, 156480, Note_on_c, 0, 87, 98
2, 156480, Note_on_c, 0, 91, 98
2, 156480, Note_on_c, 0, 68, 84
2, 156480, Note_on_c, 0, 71, 84
2, 156960, Note_on_c, 0, 71, 0
2, 156960, Note_on_c, 0, 91, 0
2, 156960, Note_on_c, 0, 79, 0
2, 156960, Note_on_c, 0, 87, 0
2, 156960, Note_on_c, 0, 68, 0
2, 156960, Note_on_c, 0, 77, 92
2, 156960, Note_on_c, 0, 86, 92
2, 156960, Note_on_c, 0, 89, 92
2, 156960, Note_on_c, 0, 62, 84
2, 156960, Note_on_c, 0, 65, 84
2, 157440, Note_on_c, 0, 65, 0
2, 157440, Note_on_c, 0, 89, 0
2, 157440, Note_on_c, 0, 77, 0
2, 157440, Note_on_c, 0, 86, 0
2, 157440, Note_on_c, 0, 62, 0
2, 157440, Note_on_c, 0, 79, 98
2, 157440, Note_on_c, 0, 87, 98
2, 157440, Note_on_c, 0, 91, 98
2, 157440, Note_on_c, 0, 60, 86
2, 157440, Note_on_c, 0, 63, 86
2, 157440, Note_on_c, 0, 67, 86
2, 157500, Control_c, 0, 64, 127
2, 158160, Note_on_c, 0, 91, 0
2, 158160, Note_on_c, 0, 79, 0
2, 158160, Note_on_c, 0, 87, 0
2, 158160, Note_on_c, 0, 77, 86
2, 158160, Note_on_c, 0, 86, 86
2, 158160, Note_on_c, 0, 89, 86
2, 158400, Note_on_c, 0, 89, 0
2, 158400, Note_on_c, 0, 77, 0
2, 158400, Note_on_c, 0, 86, 0
2, 158400, Note_on_c, 0, 79, 96
2, 158400, Note_on_c, 0, 87, 96
2, 158400, Note_on_c, 0, 91, 96
2, 158400, Note_on_c, 0, 36, 87
2, 158400, Note_on_c, 0, 48, 87
2, 159120, Note_on_c, 0, 91, 0
2, 159120, Note_on_c, 0, 79, 0
2, 159120, Note_on_c, 0, 87, 0
2, 159120, Note_on_c, 0, 77, 85
2, 159120, Note_on_c, 0, 86, 85
2, 159120, Note_on_c, 0, 89, 85
2, 159120, Note_on_c, 0, 62, 69
2, 159120, Note_on_c, 0, 65, 60
2, 159330, Control_c, 0, 64, 0
2, 159360, Note_on_c, 0, 65, 0
2, 159360, Note_on_c, 0, 67, 0
2, 159360, Note_on_c, 0, 63, 0
2, 159360, Note_on_c, 0, 48, 0
2, 159360, Note_on_c, 0, 60, 0
2, 159360, Note_on_c, 0, 36, 0
2, 159360, Note_on_c, 0, 89, 0
2, 159360, Note_on_c, 0, 86, 0
2, 159360, Note_on_c, 0, 77, 0
2, 159360, Note_on_c, 0, 62, 0
2, 159360, Note_on_c, 0, 79, 91
2, 159360, Note_on_c, 0, 91, 91
2, 159360, Note_on_c, 0, 63, 77
2, 159360, Note_on_c, 0, 67, 77
2, 159600, Note_on_c, 0, 67, 0
2, 159600, Note_on_c, 0, 79, 0
2, 159600, Note_on_c, 0, 91, 0
2, 159600, Note_on_c, 0, 63, 0
2, 159600, Note_on_c, 0, 89, 83
2, 159600, Note_on_c, 0, 62, 71
2, 159600, Note_on_c, 0, 65, 71
2, 159840, Note_on_c, 0, 65, 0
2, 159840, Note_on_c, 0, 62, 0
2, 159840, Note_on_c, 0, 89, 0
2, 159840, Note_on_c, 0, 79, 90
2, 159840, Note_on_c, 0, 91, 90
2, 159840, Note_on_c, 0, 63, 76
2, 159840, Note_on_c, 0, 67, 76
2, 160080, Note_on_c, 0, 67, 0
2, 160080, Note_on_c, 0, 79, 0
2, 160080, Note_on_c, 0, 91, 0
2, 160080, Note_on_c, 0, 63, 0
2, 160080, Note_on_c, 0, 87, 83
2, 160080, Note_on_c, 0, 60, 72
2, 160080, Note_on_c, 0, 63, 57
2, 160320, Note_on_c, 0, 63, 0
2, 160320, Note_on_c, 0, 60, 0
2, 160320, Note_on_c, 0, 87, 0
2, 160320, Note_on_c, 0, 77, 90
2, 160320, Note_on_c, 0, 86, 90
2, 160320, Note_on_c, 0, 89, 90
2, 160320, Note_on_c, 0, 62, 77
2, 160320, Note_on_c, 0, 65, 77
2, 160800, Note_on_c, 0, 65, 0
2, 160800, Note_on_c, 0, 89, 0
2, 160800, Note_on_c, 0, 77, 0
2, 160800, Note_on_c, 0, 86, 0
2, 160800, Note_on_c, 0, 62, 0
2, 160800, Note_on_c, 0, 75, 88
2, 160800, Note_on_c, 0, 84, 88
2, 160800, Note_on_c, 0, 87, 88
2, 160800, Note_on_c, 0, 60, 76
2, 160800, Note_on_c, 0, 63, 76
2, 161280, Note_on_c, 0, 63, 0
2, 161280, Note_on_c, 0, 87, 0
2, 161280, Note_on_c, 0, 75, 0
2, 161280, Note_on_c, 0, 84, 0
2, 161280, Note_on_c, 0, 60, 0
2, 161280, Note_on_c, 0, 77, 93
2, 161280, Note_on_c, 0, 86, 93
2, 161280, Note_on_c, 0, 89, 93
2, 161280, Note_on_c, 0, 58, 92
2, 161280, Note_on_c, 0, 62, 92
2, 161280, Note_on_c, 0, 65, 92
2, 162000, Note_on_c, 0, 89, 0
2, 162000, Note_on_c, 0, 77, 0
2, 162000, Note_on_c, 0, 86, 0
2, 162000, Note_on_c, 0, 75, 76
2, 162000, Note_on_c, 0, 84, 76
2, 162000, Note_on_c, 0, 87, 76
2, 162240, Note_on_c, 0, 87, 0
2, 162240, Note_on_c, 0, 75, 0
2, 162240, Note_on_c, 0, 84, 0
2, 162240, Note_on_c, 0, 77, 91
2, 162240, Note_on_c, 0, 86, 91
2, 162240, Note_on_c, 0, 89, 91
2, 162240, Note_on_c, 0, 34, 91
2, 162240, Note_on_c, 0, 41, 91
2, 162240, Note_on_c, 0, 46, 91
2, 162960, Note_on_c, 0, 89, 0
2, 162960, Note_on_c, 0, 77, 0
2, 162960, Note_on_c, 0, 86, 0
2, 162960, Note_on_c, 0, 75, 79
2, 162960, Note_on_c, 0, 84, 79
2, 162960, Note_on_c, 0, 87, 79
2, 162960, Note_on_c, 0, 60, 77
2, 162960, Note_on_c, 0, 63, 77
2, 163200, Note_on_c, 0, 63, 0
2, 163200, Note_on_c, 0, 84, 0
2, 163200, Note_on_c, 0, 65, 0
2, 163200, Note_on_c, 0, 41, 0
2, 163200, Note_on_c, 0, 46, 0
2, 163200, Note_on_c, 0, 62, 0
2, 163200, Note_on_c, 0, 58, 0
2, 163200, Note_on_c, 0, 87, 0
2, 163200, Note_on_c, 0, 75, 0
2, 163200, Note_on_c, 0, 34, 0
2, 163200, Note_on_c, 0, 60, 0
2, 163200, Note_on_c, 0, 77, 86
2, 163200, Note_on_c, 0, 89, 86
2, 163200, Note_on_c, 0, 62, 84
2, 163200, Note_on_c, 0, 65, 84
2, 163440, Note_on_c, 0, 65, 0
2, 163440, Note_on_c, 0, 77, 0
2, 163440, Note_on_c, 0, 89, 0
2, 163440, Note_on_c, 0, 62, 0
2, 163440, Note_on_c, 0, 87, 80
2, 163440, Note_on_c, 0, 60, 78
2, 163440, Note_on_c, 0, 63, 78
2, 163680, Note_on_c, 0, 63, 0
2, 163680, Note_on_c, 0, 60, 0
2, 163680, Note_on_c, 0, 87, 0
2, 163680, Note_on_c, 0, 77, 89
2, 163680, Note_on_c, 0, 89, 89
2, 163680, Note_on_c, 0, 62, 85
2, 163680, Note_on_c, 0, 65, 85
2, 163920, Note_on_c, 0, 65, 0
2, 163920, Note_on_c, 0, 77, 0
2, 163920, Note_on_c, 0, 89, 0
2, 163920, Note_on_c, 0, 62, 0
2, 163920, Note_on_c, 0, 86, 85
2, 164160, Note_on_c, 0, 86, 0
2, 164160, Note_on_c, 0, 87, 60
2, 164160, Note_on_c, 0, 75, 60
2, 164160, Note_on_c, 0, 44, 59
2, 164160, Note_on_c, 0, 56, 59
2, 164400, Note_on_c, 0, 56, 0
2, 164400, Note_on_c, 0, 44, 0
2, 164400, Note_on_c, 0, 75, 0
2, 164640, Note_on_c, 0, 87, 0
2, 164640, Note_on_c, 0, 77, 64
2, 164640, Note_on_c, 0, 56, 62
2, 164640, Note_on_c, 0, 60, 62
2, 164880, Note_on_c, 0, 60, 0
2, 164880, Note_on_c, 0, 56, 0
2, 164880, Note_on_c, 0, 77, 0
2, 165120, Note_on_c, 0, 72, 74
2, 165120, Note_on_c, 0, 84, 74
2, 165120, Note_on_c, 0, 79, 72
2, 165120, Note_on_c, 0, 39, 63
2, 165120, Note_on_c, 0, 51, 63
2, 165360, Note_on_c, 0, 51, 0
2, 165360, Note_on_c, 0, 39, 0
2, 165600, Note_on_c, 0, 55, 57
2, 165600, Note_on_c, 0, 60, 57
2, 165840, Note_on_c, 0, 60, 0
2, 165840, Note_on_c, 0, 79, 0
2, 165840, Note_on_c, 0, 55, 0
2, 165840, Note_on_c, 0, 77, 67
2, 166080, Note_on_c, 0, 77, 0
2, 166080, Note_on_c, 0, 84, 0
2, 166080, Note_on_c, 0, 72, 0
2, 166080, Note_on_c, 0, 72, 65
2, 166080, Note_on_c, 0, 75, 65
2, 166080, Note_on_c, 0, 44, 61
2, 166080, Note_on_c, 0, 56, 63
2, 166320, Note_on_c, 0, 56, 0
2, 166320, Note_on_c, 0, 72, 0
2, 166320, Note_on_c, 0, 75, 0
2, 166320, Note_on_c, 0, 44, 0
2, 166320, Note_on_c, 0, 77, 65
2, 166560, Note_on_c, 0, 77, 0
2, 166560, Note_on_c, 0, 72, 65
2, 166560, Note_on_c, 0, 75, 65
2, 166560, Note_on_c, 0, 56, 54
2, 166560, Note_on_c, 0, 60, 54
2, 166800, Note_on_c, 0, 60, 0
2, 166800, Note_on_c, 0, 72, 0
2, 166800, Note_on_c, 0, 75, 0
2, 166800, Note_on_c, 0, 56, 0
2, 166800, Note_on_c, 0, 77, 66
2, 167040, Note_on_c, 0, 77, 0
2, 167040, Note_on_c, 0, 72, 74
2, 167040, Note_on_c, 0, 84, 74
2, 167040, Note_on_c, 0, 79, 71
2, 167040, Note_on_c, 0, 39, 63
2, 167040, Note_on_c, 0, 51, 63
2, 167280, Note_on_c, 0, 51, 0
2, 167280, Note_on_c, 0, 39, 0
2, 167520, Note_on_c, 0, 55, 54
2, 167520, Note_on_c, 0, 60, 54
2, 167760, Note_on_c, 0, 60, 0
2, 167760, Note_on_c, 0, 79, 0
2, 167760, Note_on_c, 0, 55, 0
2, 167760, Note_on_c, 0, 77, 64
2, 168000, Note_on_c, 0, 77, 0
2, 168000, Note_on_c, 0, 84, 0
2, 168000, Note_on_c, 0, 72, 0
2, 168000, Note_on_c, 0, 72, 63
2, 168000, Note_on_c, 0, 75, 65
2, 168000, Note_on_c, 0, 44, 64
2, 168000, Note_on_c, 0, 56, 64
2, 168240, Note_on_c, 0, 56, 0
2, 168240, Note_on_c, 0, 72, 0
2, 168240, Note_on_c, 0, 75, 0
2, 168240, Note_on_c, 0, 44, 0
2, 168240, Note_on_c, 0, 77, 62
2, 168480, Note_on_c, 0, 77, 0
2, 168480, Note_on_c, 0, 72, 57
2, 168480, Note_on_c, 0, 75, 63
2, 168480, Note_on_c, 0, 56, 53
2, 168480, Note_on_c, 0, 60, 53
2, 168720, Note_on_c, 0, 60, 0
2, 168720, Note_on_c, 0, 72, 0
2, 168720, Note_on_c, 0, 75, 0
2, 168720, Note_on_c, 0, 56, 0
2, 168720, Note_on_c, 0, 77, 64
2, 168960, Note_on_c, 0, 77, 0
2, 168960, Note_on_c, 0, 75, 64
2, 168960, Note_on_c, 0, 79, 71
2, 168960, Note_on_c, 0, 43, 63
2, 168960, Note_on_c, 0, 55, 63
2, 169200, Note_on_c, 0, 55, 0
2, 169200, Note_on_c, 0, 75, 0
2, 169200, Note_on_c, 0, 79, 0
2, 169200, Note_on_c, 0, 43, 0
2, 169200, Note_on_c, 0, 74, 55
2, 169200, Note_on_c, 0, 77, 62
2, 169440, Note_on_c, 0, 77, 0
2, 169440, Note_on_c, 0, 74, 0
2, 169440, Note_on_c, 0, 72, 63
2, 169440, Note_on_c, 0, 75, 70
2, 169440, Note_on_c, 0, 55, 55
2, 169440, Note_on_c, 0, 60, 55
2, 169680, Note_on_c, 0, 60, 0
2, 169680, Note_on_c, 0, 55, 0
2, 169920, Note_on_c, 0, 75, 0
2, 169920, Note_on_c, 0, 72, 0
2, 169920, Note_on_c, 0, 77, 67
2, 169920, Note_on_c, 0, 71, 65
2, 169920, Note_on_c, 0, 43, 62
2, 169920, Note_on_c, 0, 55, 62
2, 170160, Note_on_c, 0, 77, 0
2, 170160, Note_on_c, 0, 75, 60
2, 170400, Note_on_c, 0, 75, 0
2, 170400, Note_on_c, 0, 55, 0
2, 170400, Note_on_c, 0, 43, 0
2, 170400, Note_on_c, 0, 71, 0
2, 170400, Note_on_c, 0, 65, 57
2, 170400, Note_on_c, 0, 71, 57
2, 170400, Note_on_c, 0, 74, 57
2, 170400, Note_on_c, 0, 31, 53
2, 170400, Note_on_c, 0, 43, 53
2, 170880, Note_on_c, 0, 43, 0
2, 170880, Note_on_c, 0, 74, 0
2, 170880, Note_on_c, 0, 65, 0
2, 170880, Note_on_c, 0, 71, 0
2, 170880, Note_on_c, 0, 31, 0
2, 170880, Note_on_c, 0, 63, 63
2, 170880, Note_on_c, 0, 72, 63
2, 170880, Note_on_c, 0, 36, 59
2, 170880, Note_on_c, 0, 48, 59
2, 171600, Note_on_c, 0, 48, 0
2, 171600, Note_on_c, 0, 63, 0
2, 171600, Note_on_c, 0, 72, 0
2, 171600, Note_on_c, 0, 36, 0
2, 171840, Note_on_c, 0, 79, 75
2, 172080, Note_on_c, 0, 79, 0
2, 172320, Note_on_c, 0, 84, 79
2, 172560, Note_on_c, 0, 84, 0
2, 172800, Note_on_c, 0, 72, 79
2, 172800, Note_on_c, 0, 76, 79
2, 172800, Control_c, 0, 64, 127
2, 172800, Note_on_c, 0, 36, 74
2, 172800, Note_on_c, 0, 48, 74
2, 173280, Note_on_c, 0, 55, 70
2, 173760, Note_on_c, 0, 48, 0
2, 173760, Note_on_c, 0, 36, 0
2, 173760, Note_on_c, 0, 72, 0
2, 173760, Note_on_c, 0, 76, 0
2, 173760, Note_on_c, 0, 74, 75
2, 173760, Note_on_c, 0, 69, 67
2, 173760, Note_on_c, 0, 59, 76
2, 173760, Note_on_c, 0, 65, 76
2, 173760, Control_c, 0, 64, 0
2, 173880, Note_on_c, 0, 55, 0
2, 174000, Note_on_c, 0, 76, 69
2, 174075, Note_on_c, 0, 74, 0
2, 174240, Note_on_c, 0, 69, 0
2, 174240, Note_on_c, 0, 77, 74
2, 174240, Note_on_c, 0, 71, 71
2, 174240, Note_on_c, 0, 55, 69
2, 174315, Note_on_c, 0, 76, 0
2, 174360, Note_on_c, 0, 59, 0
2, 174360, Note_on_c, 0, 65, 0
2, 174480, Note_on_c, 0, 79, 76
2, 174555, Note_on_c, 0, 77, 0
2, 174720, Note_on_c, 0, 55, 0
2, 174720, Note_on_c, 0, 71, 0
2, 174720, Note_on_c, 0, 79, 0
2, 174720, Note_on_c, 0, 72, 79
2, 174720, Note_on_c, 0, 76, 79
2, 174720, Control_c, 0, 64, 127
2, 174720, Note_on_c, 0, 36, 67
2, 174720, Note_on_c, 0, 48, 73
2, 175200, Note_on_c, 0, 55, 70
2, 175680, Note_on_c, 0, 48, 0
2, 175680, Note_on_c, 0, 36, 0
2, 175680, Note_on_c, 0, 72, 0
2, 175680, Note_on_c, 0, 76, 0
2, 175680, Note_on_c, 0, 77, 76
2, 175680, Note_on_c, 0, 71, 69
2, 175680, Note_on_c, 0, 62, 75
2, 175680, Note_on_c, 0, 67, 75
2, 175680, Control_c, 0, 64, 0
2, 175800, Note_on_c, 0, 55, 0
2, 175920, Note_on_c, 0, 79, 79
2, 175995, Note_on_c, 0, 77, 0
2, 176160, Note_on_c, 0, 71, 0
2, 176160, Note_on_c, 0, 81, 77
2, 176160, Note_on_c, 0, 77, 78
2, 176160, Note_on_c, 0, 55, 66
2, 176235, Note_on_c, 0, 79, 0
2, 176280, Note_on_c, 0, 62, 0
2, 176280, Note_on_c, 0, 67, 0
2, 176400, Note_on_c, 0, 83, 83
2, 176475, Note_on_c, 0, 81, 0
2, 176640, Note_on_c, 0, 55, 0
2, 176640, Note_on_c, 0, 77, 0
2, 176640, Note_on_c, 0, 83, 0
2, 176640, Note_on_c, 0, 79, 85
2, 176640, Note_on_c, 0, 76, 76
2, 176640, Control_c, 0, 64, 127
2, 176640, Note_on_c, 0, 36, 70
2, 176640, Note_on_c, 0, 48, 70
2, 176880, Note_on_c, 0, 81, 78
2, 176955, Note_on_c, 0, 79, 0
2, 177120, Note_on_c, 0, 83, 84
2, 177120, Note_on_c, 0, 55, 66
2, 177195, Note_on_c, 0, 81, 0
2, 177360, Note_on_c, 0, 84, 79
2, 177435, Note_on_c, 0, 83, 0
2, 177540, Note_on_c, 0, 79, 73
2, 177600, Note_on_c, 0, 79, 0
2, 177600, Note_on_c, 0, 84, 0
2, 177600, Note_on_c, 0, 48, 0
2, 177600, Note_on_c, 0, 76, 0
2, 177600, Note_on_c, 0, 36, 0
2, 177600, Note_on_c, 0, 74, 79
2, 177600, Note_on_c, 0, 77, 79
2, 177600, Note_on_c, 0, 67, 74
2, 177600, Control_c, 0, 64, 0
2, 177720, Note_on_c, 0, 55, 0
2, 178080, Note_on_c, 0, 74, 0
2, 178080, Note_on_c, 0, 77, 0
2, 178080, Note_on_c, 0, 72, 73
2, 178080, Note_on_c, 0, 76, 73
2, 178080, Note_on_c, 0, 55, 67
2, 178200, Note_on_c, 0, 67, 0
2, 178560, Note_on_c, 0, 72, 0
2, 178560, Note_on_c, 0, 76, 0
2, 178560, Note_on_c, 0, 55, 0
2, 178560, Note_on_c, 0, 71, 78
2, 178560, Note_on_c, 0, 74, 78
2, 178560, Note_on_c, 0, 67, 69
2, 178560, Control_c, 0, 64, 127
2, 178560, Note_on_c, 0, 48, 72
2, 178800, Note_on_c, 0, 48, 0
2, 178800, Note_on_c, 0, 69, 75
2, 178800, Control_c, 0, 64, 0
2, 178860, Note_on_c, 0, 67, 0
2, 179040, Note_on_c, 0, 76, 71
2, 179040, Note_on_c, 0, 67, 67
2, 179100, Note_on_c, 0, 69, 0
2, 179115, Note_on_c, 0, 71, 0
2, 179115, Note_on_c, 0, 74, 0
2, 179280, Note_on_c, 0, 77, 73
2, 179280, Note_on_c, 0, 65, 71
2, 179340, Note_on_c, 0, 67, 0
2, 179355, Note_on_c, 0, 76, 0
2, 179520, Note_on_c, 0, 77, 0
2, 179520, Note_on_c, 0, 79, 82
2, 179520, Note_on_c, 0, 64, 65
2, 179580, Note_on_c, 0, 65, 0
2, 179760, Note_on_c, 0, 79, 0
2, 179760, Note_on_c, 0, 62, 65
2, 179820, Note_on_c, 0, 64, 0
2, 180000, Note_on_c, 0, 84, 83
2, 180000, Note_on_c, 0, 64, 61
2, 180060, Note_on_c, 0, 62, 0
2, 180240, Note_on_c, 0, 84, 0
2, 180240, Note_on_c, 0, 65, 64
2, 180300, Note_on_c, 0, 64, 0
2, 180480, Note_on_c, 0, 65, 0
2, 180480, Note_on_c, 0, 67, 83
2, 180480, Note_on_c, 0, 72, 83
2, 180480, Note_on_c, 0, 76, 83
2, 180960, Note_on_c, 0, 48, 68
2, 180960, Note_on_c, 0, 55, 63
2, 181440, Note_on_c, 0, 48, 0
2, 181440, Note_on_c, 0, 76, 0
2, 181440, Note_on_c, 0, 67, 0
2, 181440, Note_on_c, 0, 72, 0
2, 181440, Note_on_c, 0, 74, 78
2, 181440, Note_on_c, 0, 69, 71
2, 181440, Note_on_c, 0, 59, 74
2, 181440, Note_on_c, 0, 65, 74
2, 181560, Note_on_c, 0, 55, 0
2, 181680, Note_on_c, 0, 76, 72
2, 181755, Note_on_c, 0, 74, 0
2, 181920, Note_on_c, 0, 69, 0
2, 181920, Note_on_c, 0, 77, 78
2, 181920, Note_on_c, 0, 71, 74
2, 181920, Note_on_c, 0, 55, 70
2, 181995, Note_on_c, 0, 76, 0
2, 182040, Note_on_c, 0, 59, 0
2, 182040, Note_on_c, 0, 65, 0
2, 182160, Note_on_c, 0, 79, 76
2, 182235, Note_on_c, 0, 77, 0
2, 182400, Note_on_c, 0, 55, 0
2, 182400, Note_on_c, 0, 71, 0
2, 182400, Note_on_c, 0, 79, 0
2, 182400, Note_on_c, 0, 72, 84
2, 182400, Note_on_c, 0, 76, 84
2, 182400, Control_c, 0, 64, 127
2, 182400, Note_on_c, 0, 36, 71
2, 182400, Note_on_c, 0, 48, 71
2, 182880, Note_on_c, 0, 55, 70
2, 183360, Note_on_c, 0, 55, 0
2, 183360, Note_on_c, 0, 36, 0
2, 183360, Note_on_c, 0, 72, 0
2, 183360, Note_on_c, 0, 76, 0
2, 183360, Note_on_c, 0, 48, 0
2, 183360, Note_on_c, 0, 77, 80
2, 183360, Note_on_c, 0, 53, 75
2, 183360, Note_on_c, 0, 57, 75
2, 183360, Note_on_c, 0, 60, 75
2, 183360, Control_c, 0, 64, 0
2, 183600, Note_on_c, 0, 81, 79
2, 183675, Note_on_c, 0, 77, 0
2, 183840, Note_on_c, 0, 60, 0
2, 183840, Note_on_c, 0, 53, 0
2, 183840, Note_on_c, 0, 57, 0
2, 183840, Note_on_c, 0, 79, 87
2, 183840, Note_on_c, 0, 53, 69
2, 183840, Note_on_c, 0, 55, 64
2, 183840, Note_on_c, 0, 59, 67
2, 183840, Note_on_c, 0, 62, 62
2, 183915, Note_on_c, 0, 81, 0
2, 184080, Note_on_c, 0, 86, 83
2, 184155, Note_on_c, 0, 79, 0
2, 184275, Note_on_c, 0, 52, 72
2, 184320, Note_on_c, 0, 62, 0
2, 184320, Note_on_c, 0, 53, 0
2, 184320, Note_on_c, 0, 59, 0
2, 184320, Note_on_c, 0, 55, 0
2, 184320, Note_on_c, 0, 86, 0
2, 184320, Control_c, 0, 64, 127
2, 184335, Note_on_c, 0, 60, 78
2, 184395, Note_on_c, 0, 67, 80
2, 184455, Note_on_c, 0, 84, 82
2, 184560, Note_on_c, 0, 79, 78
2, 184770, Note_on_c, 0, 84, 0
2, 184800, Note_on_c, 0, 76, 76
2, 184875, Note_on_c, 0, 79, 0
2, 185040, Note_on_c, 0, 72, 75
2, 185115, Note_on_c, 0, 76, 0
2, 185235, Note_on_c, 0, 52, 0
2, 185280, Note_on_c, 0, 72, 0
2, 185280, Note_on_c, 0, 77, 75
2, 185280, Note_on_c, 0, 69, 72
2, 185280, Control_c, 0, 64, 0
2, 185280, Note_on_c, 0, 50, 72
2, 185280, Note_on_c, 0, 57, 72
2, 185295, Note_on_c, 0, 60, 0
2, 185355, Note_on_c, 0, 67, 0
2, 185400, Note_on_c, 0, 79, 80
2, 185475, Note_on_c, 0, 77, 0
2, 185520, Note_on_c, 0, 77, 75
2, 185595, Note_on_c, 0, 79, 0
2, 185760, Note_on_c, 0, 57, 0
2, 185760, Note_on_c, 0, 69, 0
2, 185760, Note_on_c, 0, 50, 0
2, 185760, Note_on_c, 0, 67, 74
2, 185760, Note_on_c, 0, 71, 74
2, 185760, Note_on_c, 0, 76, 74
2, 185760, Note_on_c, 0, 43, 66
2, 185760, Note_on_c, 0, 55, 66
2, 185835, Note_on_c, 0, 77, 0
2, 186000, Note_on_c, 0, 67, 0
2, 186000, Note_on_c, 0, 71, 0
2, 186000, Note_on_c, 0, 65, 73
2, 186000, Note_on_c, 0, 71, 73
2, 186000, Note_on_c, 0, 74, 73
2, 186075, Note_on_c, 0, 76, 0
2, 186240, Note_on_c, 0, 43, 0
2, 186240, Note_on_c, 0, 65, 0
2, 186240, Note_on_c, 0, 55, 0
2, 186240, Note_on_c, 0, 74, 0
2, 186240, Note_on_c, 0, 71, 0
2, 186240, Note_on_c, 0, 64, 77
2, 186240, Note_on_c, 0, 72, 77
2, 186240, Control_c, 0, 64, 127
2, 186240, Note_on_c, 0, 36, 73
2, 186240, Note_on_c, 0, 48, 73
2, 186960, Note_on_c, 0, 48, 0
2, 186960, Note_on_c, 0, 64, 0
2, 186960, Note_on_c, 0, 72, 0
2, 186960, Note_on_c, 0, 36, 0
2, 186960, Control_c, 0, 64, 0
2, 187200, Note_on_c, 0, 67, 77
2, 187200, Note_on_c, 0, 74, 86
2, 187200, Note_on_c, 0, 58, 80
2, 187200, Note_on_c, 0, 62, 70
2, 187680, Note_on_c, 0, 62, 0
2, 187680, Note_on_c, 0, 67, 0
2, 187680, Note_on_c, 0, 74, 0
2, 187680, Note_on_c, 0, 58, 0
2, 187680, Note_on_c, 0, 64, 87
2, 187680, Note_on_c, 0, 69, 78
2, 187680, Note_on_c, 0, 76, 87
2, 187680, Note_on_c, 0, 57, 77
2, 187680, Note_on_c, 0, 61, 67
2, 188160, Note_on_c, 0, 61, 0
2, 188160, Note_on_c, 0, 76, 0
2, 188160, Note_on_c, 0, 64, 0
2, 188160, Note_on_c, 0, 69, 0
2, 188160, Note_on_c, 0, 57, 0
2, 188160, Note_on_c, 0, 65, 95
2, 188160, Note_on_c, 0, 69, 86
2, 188160, Note_on_c, 0, 74, 86
2, 188160, Note_on_c, 0, 77, 95
2, 188160, Note_on_c, 0, 38, 83
2, 188160, Note_on_c, 0, 45, 83
2, 188160, Note_on_c, 0, 50, 73
2, 188880, Note_on_c, 0, 77, 0
2, 188880, Note_on_c, 0, 74, 0
2, 188880, Note_on_c, 0, 65, 0
2, 188880, Note_on_c, 0, 69, 0
2, 188880, Note_on_c, 0, 76, 84
2, 189120, Note_on_c, 0, 50, 0
2, 189120, Note_on_c, 0, 45, 0
2, 189120, Note_on_c, 0, 38, 0
2, 189120, Note_on_c, 0, 74, 89
2, 189120, Note_on_c, 0, 58, 77
2, 189120, Note_on_c, 0, 62, 67
2, 189165, Note_on_c, 0, 76, 0
2, 189360, Note_on_c, 0, 76, 83
2, 189405, Note_on_c, 0, 74, 0
2, 189600, Note_on_c, 0, 62, 0
2, 189600, Note_on_c, 0, 58, 0
2, 189600, Note_on_c, 0, 74, 88
2, 189600, Note_on_c, 0, 57, 75
2, 189600, Note_on_c, 0, 61, 65
2, 189645, Note_on_c, 0, 76, 0
2, 189840, Note_on_c, 0, 76, 83
2, 189885, Note_on_c, 0, 74, 0
2, 190080, Note_on_c, 0, 61, 0
2, 190080, Note_on_c, 0, 57, 0
2, 190080, Note_on_c, 0, 76, 0
2, 190080, Note_on_c, 0, 65, 88
2, 190080, Note_on_c, 0, 74, 79
2, 190080, Note_on_c, 0, 77, 88
2, 190080, Note_on_c, 0, 38, 80
2, 190080, Note_on_c, 0, 45, 80
2, 190080, Note_on_c, 0, 50, 70
2, 191040, Note_on_c, 0, 50, 0
2, 191040, Note_on_c, 0, 74, 0
2, 191040, Note_on_c, 0, 77, 0
2, 191040, Note_on_c, 0, 65, 0
2, 191040, Note_on_c, 0, 45, 0
2, 191040, Note_on_c, 0, 38, 0
2, 191040, Note_on_c, 0, 89, 60
2, 191160, Note_on_c, 0, 89, 0
2, 191280, Note_on_c, 0, 86, 55
2, 191400, Note_on_c, 0, 86, 0
2, 191520, Note_on_c, 0, 79, 65
2, 191520, Note_on_c, 0, 91, 65
2, 191640, Note_on_c, 0, 91, 0
2, 191640, Note_on_c, 0, 79, 0
2, 191760, Note_on_c, 0, 59, 48
2, 191760, Note_on_c, 0, 62, 46
2, 191760, Note_on_c, 0, 67, 52
2, 191880, Note_on_c, 0, 67, 0
2, 191880, Note_on_c, 0, 62, 0
2, 191880, Note_on_c, 0, 59, 0
2, 192000, Note_on_c, 0, 88, 59
2, 192000, Note_on_c, 0, 60, 64
2, 192000, Note_on_c, 0, 64, 54
2, 192000, Note_on_c, 0, 67, 64
2, 192120, Note_on_c, 0, 67, 0
2, 192120, Note_on_c, 0, 88, 0
2, 192120, Note_on_c, 0, 60, 0
2, 192120, Note_on_c, 0, 64, 0
2, 192240, Note_on_c, 0, 84, 55
2, 192360, Note_on_c, 0, 84, 0
2, 192480, Note_on_c, 0, 77, 66
2, 192480, Note_on_c, 0, 89, 66
2, 192600, Note_on_c, 0, 89, 0
2, 192600, Note_on_c, 0, 77, 0
2, 192720, Note_on_c, 0, 57, 56
2, 192720, Note_on_c, 0, 60, 46
2, 192720, Note_on_c, 0, 65, 56
2, 192840, Note_on_c, 0, 65, 0
2, 192840, Note_on_c, 0, 60, 0
2, 192840, Note_on_c, 0, 57, 0
2, 192960, Note_on_c, 0, 86, 60
2, 192960, Note_on_c, 0, 59, 63
2, 192960, Note_on_c, 0, 62, 53
2, 192960, Note_on_c, 0, 65, 63
2, 193080, Note_on_c, 0, 65, 0
2, 193080, Note_on_c, 0, 86, 0
2, 193080, Note_on_c, 0, 59, 0
2, 193080, Note_on_c, 0, 62, 0
2, 193200, Note_on_c, 0, 83, 55
2, 193320, Note_on_c, 0, 83, 0
2, 193440, Note_on_c, 0, 76, 65
2, 193440, Note_on_c, 0, 88, 65
2, 193560, Note_on_c, 0, 88, 0
2, 193560, Note_on_c, 0, 76, 0
2, 193680, Note_on_c, 0, 56, 55
2, 193680, Note_on_c, 0, 59, 45
2, 193680, Note_on_c, 0, 64, 55
2, 193800, Note_on_c, 0, 64, 0
2, 193800, Note_on_c, 0, 59, 0
2, 193800, Note_on_c, 0, 56, 0
2, 193920, Note_on_c, 0, 84, 60
2, 193920, Note_on_c, 0, 57, 63
2, 193920, Note_on_c, 0, 60, 53
2, 193920, Note_on_c, 0, 64, 63
2, 194040, Note_on_c, 0, 64, 0
2, 194040, Note_on_c, 0, 84, 0
2, 194040, Note_on_c, 0, 57, 0
2, 194040, Note_on_c, 0, 60, 0
2, 194160, Note_on_c, 0, 81, 53
2, 194280, Note_on_c, 0, 81, 0
2, 194400, Note_on_c, 0, 74, 65
2, 194400, Note_on_c, 0, 86, 65
2, 194520, Note_on_c, 0, 86, 0
2, 194520, Note_on_c, 0, 74, 0
2, 194640, Note_on_c, 0, 54, 54
2, 194640, Note_on_c, 0, 57, 44
2, 194640, Note_on_c, 0, 62, 54
2, 194760, Note_on_c, 0, 62, 0
2, 194760, Note_on_c, 0, 57, 0
2, 194760, Note_on_c, 0, 54, 0
2, 194880, Note_on_c, 0, 62, 63
2, 194880, Note_on_c, 0, 71, 63
2, 194880, Note_on_c, 0, 50, 64
2, 194880, Note_on_c, 0, 43, 77
2, 195360, Note_on_c, 0, 50, 0
2, 195360, Note_on_c, 0, 62, 0
2, 195360, Note_on_c, 0, 71, 0
2, 195360, Note_on_c, 0, 64, 64
2, 195360, Note_on_c, 0, 72, 64
2, 195360, Note_on_c, 0, 50, 72
2, 195840, Note_on_c, 0, 50, 0
2, 195840, Note_on_c, 0, 72, 0
2, 195840, Note_on_c, 0, 64, 0
2, 195840, Note_on_c, 0, 66, 60
2, 195840, Note_on_c, 0, 69, 63
2, 195840, Note_on_c, 0, 62, 67
2, 196260, Note_on_c, 0, 88, 71
2, 196320, Note_on_c, 0, 88, 0
2, 196320, Note_on_c, 0, 62, 0
2, 196320, Note_on_c, 0, 81, 56
2, 196320, Note_on_c, 0, 86, 56
2, 196320, Note_on_c, 0, 50, 72
2, 196560, Note_on_c, 0, 86, 0
2, 196560, Note_on_c, 0, 81, 0
2, 196800, Note_on_c, 0, 43, 0
2, 196800, Note_on_c, 0, 69, 0
2, 196800, Note_on_c, 0, 66, 0
2, 196800, Note_on_c, 0, 71, 67
2, 196800, Note_on_c, 0, 62, 66
2, 196800, Note_on_c, 0, 43, 77
2, 197040, Note_on_c, 0, 71, 0
2, 197040, Note_on_c, 0, 72, 62
2, 197280, Note_on_c, 0, 72, 0
2, 197280, Note_on_c, 0, 50, 0
2, 197280, Note_on_c, 0, 62, 0
2, 197280, Note_on_c, 0, 71, 64
2, 197280, Note_on_c, 0, 64, 65
2, 197280, Note_on_c, 0, 50, 69
2, 197520, Note_on_c, 0, 71, 0
2, 197520, Note_on_c, 0, 72, 67
2, 197760, Note_on_c, 0, 72, 0
2, 197760, Note_on_c, 0, 50, 0
2, 197760, Note_on_c, 0, 64, 0
2, 197760, Note_on_c, 0, 66, 59
2, 197760, Note_on_c, 0, 69, 62
2, 197760, Note_on_c, 0, 62, 66
2, 198240, Note_on_c, 0, 62, 0
2, 198240, Note_on_c, 0, 50, 75
2, 198720, Note_on_c, 0, 50, 0
2, 198720, Note_on_c, 0, 69, 0
2, 198720, Note_on_c, 0, 66, 0
2, 198720, Note_on_c, 0, 43, 0
2, 198720, Note_on_c, 0, 79, 83
2, 198720, Note_on_c, 0, 71, 66
2, 198720, Note_on_c, 0, 77, 66
2, 198720, Note_on_c, 0, 59, 80
2, 198720, Note_on_c, 0, 43, 75
2, 198780, Note_on_c, 0, 50, 83
2, 198960, Note_on_c, 0, 59, 0
2, 198960, Note_on_c, 0, 79, 0
2, 198960, Note_on_c, 0, 83, 62
2, 198960, Note_on_c, 0, 62, 55
2, 199200, Note_on_c, 0, 62, 0
2, 199200, Note_on_c, 0, 77, 0
2, 199200, Note_on_c, 0, 71, 0
2, 199200, Note_on_c, 0, 83, 0
2, 199200, Note_on_c, 0, 81, 65
2, 199200, Note_on_c, 0, 60, 59
2, 199440, Note_on_c, 0, 60, 0
2, 199440, Note_on_c, 0, 81, 0
2, 199440, Note_on_c, 0, 84, 69
2, 199440, Note_on_c, 0, 64, 62
2, 199680, Note_on_c, 0, 64, 0
2, 199680, Note_on_c, 0, 84, 0
2, 199680, Note_on_c, 0, 83, 72
2, 199680, Note_on_c, 0, 62, 66
2, 199920, Note_on_c, 0, 62, 0
2, 199920, Note_on_c, 0, 83, 0
2, 199920, Note_on_c, 0, 86, 76
2, 199920, Note_on_c, 0, 65, 69
2, 200160, Note_on_c, 0, 65, 0
2, 200160, Note_on_c, 0, 86, 0
2, 200160, Note_on_c, 0, 84, 79
2, 200160, Note_on_c, 0, 64, 72
2, 200400, Note_on_c, 0, 64, 0
2, 200400, Note_on_c, 0, 84, 0
2, 200400, Note_on_c, 0, 88, 82
2, 200400, Note_on_c, 0, 67, 76
2, 200640, Note_on_c, 0, 67, 0
2, 200640, Note_on_c, 0, 88, 0
2, 200640, Note_on_c, 0, 43, 0
2, 200640, Note_on_c, 0, 86, 85
2, 200640, Note_on_c, 0, 65, 79
2, 200700, Note_on_c, 0, 50, 0
2, 200880, Note_on_c, 0, 65, 0
2, 200880, Note_on_c, 0, 86, 0
2, 200880, Note_on_c, 0, 84, 79
2, 200880, Note_on_c, 0, 64, 77
2, 201120, Note_on_c, 0, 64, 0
2, 201120, Note_on_c, 0, 84, 0
2, 201120, Note_on_c, 0, 83, 73
2, 201120, Note_on_c, 0, 62, 74
2, 201360, Note_on_c, 0, 62, 0
2, 201360, Note_on_c, 0, 83, 0
2, 201360, Note_on_c, 0, 81, 67
2, 201360, Note_on_c, 0, 60, 72
2, 201600, Note_on_c, 0, 60, 0
2, 201600, Note_on_c, 0, 81, 0
2, 201600, Note_on_c, 0, 79, 75
2, 201600, Note_on_c, 0, 59, 69
2, 201840, Note_on_c, 0, 59, 0
2, 201840, Note_on_c, 0, 77, 61
2, 201840, Note_on_c, 0, 57, 66
2, 202080, Note_on_c, 0, 57, 0
2, 202080, Note_on_c, 0, 77, 0
2, 202080, Note_on_c, 0, 79, 0
2, 202080, Note_on_c, 0, 76, 60
2, 202080, Note_on_c, 0, 84, 74
2, 202080, Note_on_c, 0, 55, 64
2, 202320, Note_on_c, 0, 55, 0
2, 202320, Note_on_c, 0, 76, 0
2, 202320, Note_on_c, 0, 74, 60
2, 202320, Note_on_c, 0, 53, 61
2, 202560, Note_on_c, 0, 53, 0
2, 202560, Note_on_c, 0, 74, 0
2, 202560, Note_on_c, 0, 84, 0
2, 202560, Note_on_c, 0, 72, 62
2, 202560, Note_on_c, 0, 76, 70
2, 202560, Note_on_c, 0, 36, 80
2, 202560, Note_on_c, 0, 48, 80
2, 203040, Note_on_c, 0, 67, 41
2, 203280, Note_on_c, 0, 55, 48
2, 203340, Note_on_c, 0, 67, 0
2, 203520, Note_on_c, 0, 76, 0
2, 203520, Note_on_c, 0, 72, 0
2, 203520, Note_on_c, 0, 74, 64
2, 203520, Note_on_c, 0, 69, 52
2, 203520, Note_on_c, 0, 65, 51
2, 203580, Note_on_c, 0, 55, 0
2, 203760, Note_on_c, 0, 76, 58
2, 203760, Note_on_c, 0, 55, 58
2, 203820, Note_on_c, 0, 65, 0
2, 203835, Note_on_c, 0, 74, 0
2, 204000, Note_on_c, 0, 69, 0
2, 204000, Note_on_c, 0, 77, 63
2, 204000, Note_on_c, 0, 71, 56
2, 204000, Note_on_c, 0, 67, 57
2, 204060, Note_on_c, 0, 55, 0
2, 204075, Note_on_c, 0, 76, 0
2, 204240, Note_on_c, 0, 79, 65
2, 204240, Note_on_c, 0, 55, 53
2, 204300, Note_on_c, 0, 67, 0
2, 204315, Note_on_c, 0, 77, 0
2, 204480, Note_on_c, 0, 48, 0
2, 204480, Note_on_c, 0, 71, 0
2, 204480, Note_on_c, 0, 36, 0
2, 204480, Note_on_c, 0, 55, 0
2, 204480, Note_on_c, 0, 79, 0
2, 204480, Note_on_c, 0, 72, 64
2, 204480, Note_on_c, 0, 76, 68
2, 204480, Note_on_c, 0, 36, 60
2, 204480, Note_on_c, 0, 48, 56
2, 204960, Note_on_c, 0, 67, 51
2, 205200, Note_on_c, 0, 55, 53
2, 205260, Note_on_c, 0, 67, 0
2, 205440, Note_on_c, 0, 76, 0
2, 205440, Note_on_c, 0, 72, 0
2, 205440, Note_on_c, 0, 77, 65
2, 205440, Note_on_c, 0, 71, 54
2, 205440, Note_on_c, 0, 62, 51
2, 205500, Note_on_c, 0, 55, 0
2, 205680, Note_on_c, 0, 79, 68
2, 205680, Note_on_c, 0, 55, 53
2, 205740, Note_on_c, 0, 62, 0
2, 205755, Note_on_c, 0, 77, 0
2, 205920, Note_on_c, 0, 71, 0
2, 205920, Note_on_c, 0, 81, 66
2, 205920, Note_on_c, 0, 77, 63
2, 205920, Note_on_c, 0, 67, 56
2, 205980, Note_on_c, 0, 55, 0
2, 205995, Note_on_c, 0, 79, 0
2, 206160, Note_on_c, 0, 83, 72
2, 206160, Note_on_c, 0, 55, 45
2, 206220, Note_on_c, 0, 67, 0
2, 206235, Note_on_c, 0, 81, 0
2, 206400, Note_on_c, 0, 48, 0
2, 206400, Note_on_c, 0, 77, 0
2, 206400, Note_on_c, 0, 36, 0
2, 206400, Note_on_c, 0, 55, 0
2, 206400, Note_on_c, 0, 83, 0
2, 206400, Note_on_c, 0, 79, 74
2, 206400, Note_on_c, 0, 76, 61
2, 206400, Note_on_c, 0, 36, 61
2, 206400, Note_on_c, 0, 48, 59
2, 206640, Note_on_c, 0, 81, 67
2, 206715, Note_on_c, 0, 79, 0
2, 206880, Note_on_c, 0, 83, 73
2, 206880, Note_on_c, 0, 67, 50
2, 206955, Note_on_c, 0, 81, 0
2, 207120, Note_on_c, 0, 84, 68
2, 207120, Note_on_c, 0, 55, 51
2, 207180, Note_on_c, 0, 67, 0
2, 207195, Note_on_c, 0, 83, 0
2, 207360, Note_on_c, 0, 76, 0
2, 207360, Note_on_c, 0, 84, 0
2, 207360, Note_on_c, 0, 71, 64
2, 207360, Note_on_c, 0, 77, 68
2, 207360, Note_on_c, 0, 62, 48
2, 207420, Note_on_c, 0, 55, 0
2, 207600, Note_on_c, 0, 55, 49
2, 207660, Note_on_c, 0, 62, 0
2, 207840, Note_on_c, 0, 77, 0
2, 207840, Note_on_c, 0, 71, 0
2, 207840, Note_on_c, 0, 72, 58
2, 207840, Note_on_c, 0, 76, 62
2, 207840, Note_on_c, 0, 64, 50
2, 207900, Note_on_c, 0, 55, 0
2, 208080, Note_on_c, 0, 55, 55
2, 208140, Note_on_c, 0, 64, 0
2, 208260, Note_on_c, 0, 67, 54
2, 208320, Note_on_c, 0, 48, 0
2, 208320, Note_on_c, 0, 76, 0
2, 208320, Note_on_c, 0, 72, 0
2, 208320, Note_on_c, 0, 36, 0
2, 208320, Note_on_c, 0, 55, 0
2, 208320, Note_on_c, 0, 71, 63
2, 208320, Note_on_c, 0, 48, 71
2, 208380, Note_on_c, 0, 74, 63
2, 208560, Note_on_c, 0, 48, 0
2, 208560, Note_on_c, 0, 67, 0
2, 208560, Note_on_c, 0, 69, 60
2, 208800, Note_on_c, 0, 76, 60
2, 208800, Note_on_c, 0, 67, 52
2, 208860, Note_on_c, 0, 69, 0
2, 208875, Note_on_c, 0, 71, 0
2, 208935, Note_on_c, 0, 74, 0
2, 209040, Note_on_c, 0, 77, 62
2, 209040, Note_on_c, 0, 65, 56
2, 209100, Note_on_c, 0, 67, 0
2, 209115, Note_on_c, 0, 76, 0
2, 209280, Note_on_c, 0, 77, 0
2, 209280, Note_on_c, 0, 79, 71
2, 209280, Note_on_c, 0, 64, 50
2, 209340, Note_on_c, 0, 65, 0
2, 209520, Note_on_c, 0, 79, 0
2, 209520, Note_on_c, 0, 62, 50
2, 209580, Note_on_c, 0, 64, 0
2, 209760, Note_on_c, 0, 72, 59
2, 209760, Note_on_c, 0, 84, 72
2, 209760, Note_on_c, 0, 64, 46
2, 209820, Note_on_c, 0, 62, 0
2, 210000, Note_on_c, 0, 72, 0
2, 210000, Note_on_c, 0, 84, 0
2, 210000, Note_on_c, 0, 65, 49
2, 210060, Note_on_c, 0, 64, 0
2, 210240, Note_on_c, 0, 65, 0
2, 210240, Note_on_c, 0, 67, 68
2, 210240, Note_on_c, 0, 72, 68
2, 210240, Note_on_c, 0, 76, 72
2, 210240, Note_on_c, 0, 48, 70
2, 210480, Note_on_c, 0, 55, 56
2, 210540, Note_on_c, 0, 48, 0
2, 210720, Note_on_c, 0, 67, 62
2, 210780, Note_on_c, 0, 55, 0
2, 210960, Note_on_c, 0, 55, 56
2, 211020, Note_on_c, 0, 67, 0
2, 211200, Note_on_c, 0, 67, 0
2, 211200, Note_on_c, 0, 72, 0
2, 211200, Note_on_c, 0, 76, 0
2, 211200, Note_on_c, 0, 55, 0
2, 211200, Note_on_c, 0, 74, 67
2, 211200, Note_on_c, 0, 69, 56
2, 211200, Note_on_c, 0, 65, 44
2, 211440, Note_on_c, 0, 76, 61
2, 211440, Note_on_c, 0, 55, 47
2, 211500, Note_on_c, 0, 65, 0
2, 211515, Note_on_c, 0, 74, 0
2, 211680, Note_on_c, 0, 69, 0
2, 211680, Note_on_c, 0, 77, 67
2, 211680, Note_on_c, 0, 71, 59
2, 211680, Note_on_c, 0, 62, 53
2, 211740, Note_on_c, 0, 55, 0
2, 211755, Note_on_c, 0, 76, 0
2, 211920, Note_on_c, 0, 79, 65
2, 211920, Note_on_c, 0, 55, 57
2, 211980, Note_on_c, 0, 62, 0
2, 211995, Note_on_c, 0, 77, 0
2, 212160, Note_on_c, 0, 71, 0
2, 212160, Note_on_c, 0, 79, 0
2, 212160, Note_on_c, 0, 55, 0
2, 212160, Note_on_c, 0, 72, 69
2, 212160, Note_on_c, 0, 76, 73
2, 212160, Note_on_c, 0, 36, 63
2, 212160, Note_on_c, 0, 48, 55
2, 212640, Note_on_c, 0, 67, 60
2, 212880, Note_on_c, 0, 67, 0
2, 212880, Note_on_c, 0, 55, 60
2, 213120, Note_on_c, 0, 55, 0
2, 213120, Note_on_c, 0, 48, 0
2, 213120, Note_on_c, 0, 72, 0
2, 213120, Note_on_c, 0, 76, 0
2, 213120, Note_on_c, 0, 36, 0
2, 213120, Note_on_c, 0, 77, 69
2, 213120, Note_on_c, 0, 53, 51
2, 213120, Note_on_c, 0, 57, 44
2, 213120, Note_on_c, 0, 60, 36
2, 213360, Note_on_c, 0, 81, 68
2, 213435, Note_on_c, 0, 77, 0
2, 213600, Note_on_c, 0, 60, 0
2, 213600, Note_on_c, 0, 53, 0
2, 213600, Note_on_c, 0, 57, 0
2, 213600, Note_on_c, 0, 79, 76
2, 213600, Note_on_c, 0, 53, 54
2, 213600, Note_on_c, 0, 55, 54
2, 213600, Note_on_c, 0, 59, 47
2, 213675, Note_on_c, 0, 81, 0
2, 213840, Note_on_c, 0, 86, 72
2, 213915, Note_on_c, 0, 79, 0
2, 214020, Note_on_c, 0, 52, 50
2, 214080, Note_on_c, 0, 59, 0
2, 214080, Note_on_c, 0, 86, 0
2, 214080, Note_on_c, 0, 55, 0
2, 214080, Note_on_c, 0, 53, 0
2, 214080, Note_on_c, 0, 60, 59
2, 214140, Note_on_c, 0, 72, 58
2, 214140, Note_on_c, 0, 67, 45
2, 214215, Note_on_c, 0, 84, 71
2, 214320, Note_on_c, 0, 79, 67
2, 214380, Note_on_c, 0, 72, 0
2, 214530, Note_on_c, 0, 84, 0
2, 214560, Note_on_c, 0, 76, 65
2, 214635, Note_on_c, 0, 79, 0
2, 214800, Note_on_c, 0, 72, 64
2, 214875, Note_on_c, 0, 76, 0
2, 214980, Note_on_c, 0, 52, 0
2, 215040, Note_on_c, 0, 72, 0
2, 215040, Note_on_c, 0, 60, 0
2, 215040, Note_on_c, 0, 77, 64
2, 215040, Note_on_c, 0, 69, 57
2, 215040, Note_on_c, 0, 50, 53
2, 215040, Note_on_c, 0, 53, 51
2, 215040, Note_on_c, 0, 57, 48
2, 215040, Note_on_c, 0, 60, 47
2, 215100, Note_on_c, 0, 67, 0
2, 215160, Note_on_c, 0, 79, 69
2, 215235, Note_on_c, 0, 77, 0
2, 215280, Note_on_c, 0, 77, 64
2, 215355, Note_on_c, 0, 79, 0
2, 215520, Note_on_c, 0, 57, 0
2, 215520, Note_on_c, 0, 69, 0
2, 215520, Note_on_c, 0, 53, 0
2, 215520, Note_on_c, 0, 50, 0
2, 215520, Note_on_c, 0, 60, 0
2, 215520, Note_on_c, 0, 67, 59
2, 215520, Note_on_c, 0, 71, 59
2, 215520, Note_on_c, 0, 76, 63
2, 215520, Note_on_c, 0, 43, 61
2, 215520, Note_on_c, 0, 55, 58
2, 215595, Note_on_c, 0, 77, 0
2, 215760, Note_on_c, 0, 67, 0
2, 215760, Note_on_c, 0, 71, 0
2, 215760, Note_on_c, 0, 65, 58
2, 215760, Note_on_c, 0, 71, 58
2, 215760, Note_on_c, 0, 74, 62
2, 215835, Note_on_c, 0, 76, 0
2, 216000, Note_on_c, 0, 43, 0
2, 216000, Note_on_c, 0, 65, 0
2, 216000, Note_on_c, 0, 55, 0
2, 216000, Note_on_c, 0, 74, 0
2, 216000, Note_on_c, 0, 71, 0
2, 216000, Note_on_c, 0, 64, 62
2, 216000, Note_on_c, 0, 72, 66
2, 216000, Note_on_c, 0, 36, 60
2, 216000, Note_on_c, 0, 48, 55
2, 216000, Note_on_c, 0, 36, 57
2, 216000, Note_on_c, 0, 48, 55
2, 216720, Note_on_c, 0, 72, 0
2, 216720, Note_on_c, 0, 64, 0
2, 216960, Note_on_c, 0, 36, 0
2, 216960, Note_on_c, 0, 48, 0
2, 216960, Note_on_c, 0, 48, 0
2, 216960, Note_on_c, 0, 36, 0
2, 216960, Note_on_c, 0, 74, 80
2, 216960, Note_on_c, 0, 82, 83
2, 216960, Note_on_c, 0, 86, 85
2, 216960, Note_on_c, 0, 58, 73
2, 216960, Note_on_c, 0, 62, 82
2, 216960, Note_on_c, 0, 70, 70
2, 217440, Note_on_c, 0, 70, 0
2, 217440, Note_on_c, 0, 82, 0
2, 217440, Note_on_c, 0, 86, 0
2, 217440, Note_on_c, 0, 74, 0
2, 217440, Note_on_c, 0, 62, 0
2, 217440, Note_on_c, 0, 58, 0
2, 217440, Note_on_c, 0, 76, 89
2, 217440, Note_on_c, 0, 85, 86
2, 217440, Note_on_c, 0, 88, 79
2, 217440, Note_on_c, 0, 57, 80
2, 217440, Note_on_c, 0, 64, 87
2, 217440, Note_on_c, 0, 69, 75
2, 217920, Note_on_c, 0, 69, 0
2, 217920, Note_on_c, 0, 85, 0
2, 217920, Note_on_c, 0, 88, 0
2, 217920, Note_on_c, 0, 76, 0
2, 217920, Note_on_c, 0, 64, 0
2, 217920, Note_on_c, 0, 57, 0
2, 217920, Note_on_c, 0, 77, 93
2, 217920, Note_on_c, 0, 86, 93
2, 217920, Note_on_c, 0, 89, 84
2, 217920, Note_on_c, 0, 50, 79
2, 217920, Note_on_c, 0, 57, 79
2, 217920, Note_on_c, 0, 62, 70
2, 218640, Note_on_c, 0, 89, 0
2, 218640, Note_on_c, 0, 77, 0
2, 218640, Note_on_c, 0, 86, 0
2, 218640, Note_on_c, 0, 88, 85
2, 218880, Note_on_c, 0, 88, 0
2, 218880, Note_on_c, 0, 62, 0
2, 218880, Note_on_c, 0, 57, 0
2, 218880, Note_on_c, 0, 50, 0
2, 218880, Note_on_c, 0, 86, 91
2, 218880, Note_on_c, 0, 46, 71
2, 218880, Note_on_c, 0, 50, 80
2, 218880, Note_on_c, 0, 58, 67
2, 219120, Note_on_c, 0, 86, 0
2, 219120, Note_on_c, 0, 88, 89
2, 219360, Note_on_c, 0, 88, 0
2, 219360, Note_on_c, 0, 58, 0
2, 219360, Note_on_c, 0, 50, 0
2, 219360, Note_on_c, 0, 46, 0
2, 219360, Note_on_c, 0, 86, 87
2, 219360, Note_on_c, 0, 45, 77
2, 219360, Note_on_c, 0, 49, 81
2, 219360, Note_on_c, 0, 57, 69
2, 219600, Note_on_c, 0, 86, 0
2, 219600, Note_on_c, 0, 88, 92
2, 219840, Note_on_c, 0, 88, 0
2, 219840, Note_on_c, 0, 57, 0
2, 219840, Note_on_c, 0, 49, 0
2, 219840, Note_on_c, 0, 45, 0
2, 219840, Note_on_c, 0, 65, 104
2, 219840, Note_on_c, 0, 74, 95
2, 219840, Note_on_c, 0, 77, 104
2, 219840, Note_on_c, 0, 38, 90
2, 219840, Note_on_c, 0, 45, 90
2, 219840, Note_on_c, 0, 50, 80
2, 220800, Note_on_c, 0, 50, 0
2, 220800, Note_on_c, 0, 74, 0
2, 220800, Note_on_c, 0, 77, 0
2, 220800, Note_on_c, 0, 65, 0
2, 220800, Note_on_c, 0, 45, 0
2, 220800, Note_on_c, 0, 38, 0
2, 220800, Note_on_c, 0, 89, 60
2, 220920, Note_on_c, 0, 89, 0
2, 221040, Note_on_c, 0, 86, 55
2, 221160, Note_on_c, 0, 86, 0
2, 221280, Note_on_c, 0, 79, 65
2, 221280, Note_on_c, 0, 91, 65
2, 221400, Note_on_c, 0, 91, 0
2, 221400, Note_on_c, 0, 79, 0
2, 221520, Note_on_c, 0, 59, 48
2, 221520, Note_on_c, 0, 62, 46
2, 221520, Note_on_c, 0, 67, 52
2, 221640, Note_on_c, 0, 67, 0
2, 221640, Note_on_c, 0, 62, 0
2, 221640, Note_on_c, 0, 59, 0
2, 221760, Note_on_c, 0, 88, 59
2, 221760, Note_on_c, 0, 60, 64
2, 221760, Note_on_c, 0, 64, 54
2, 221760, Note_on_c, 0, 67, 64
2, 221880, Note_on_c, 0, 67, 0
2, 221880, Note_on_c, 0, 88, 0
2, 221880, Note_on_c, 0, 60, 0
2, 221880, Note_on_c, 0, 64, 0
2, 222000, Note_on_c, 0, 84, 55
2, 222120, Note_on_c, 0, 84, 0
2, 222240, Note_on_c, 0, 77, 66
2, 222240, Note_on_c, 0, 89, 66
2, 222360, Note_on_c, 0, 89, 0
2, 222360, Note_on_c, 0, 77, 0
2, 222480, Note_on_c, 0, 57, 56
2, 222480, Note_on_c, 0, 60, 46
2, 222480, Note_on_c, 0, 65, 56
2, 222600, Note_on_c, 0, 65, 0
2, 222600, Note_on_c, 0, 60, 0
2, 222600, Note_on_c, 0, 57, 0
2, 222720, Note_on_c, 0, 86, 60
2, 222720, Note_on_c, 0, 59, 63
2, 222720, Note_on_c, 0, 62, 53
2, 222720, Note_on_c, 0, 65, 63
2, 222840, Note_on_c, 0, 65, 0
2, 222840, Note_on_c, 0, 86, 0
2, 222840, Note_on_c, 0, 59, 0
2, 222840, Note_on_c, 0, 62, 0
2, 222960, Note_on_c, 0, 83, 55
2, 223080, Note_on_c, 0, 83, 0
2, 223200, Note_on_c, 0, 76, 65
2, 223200, Note_on_c, 0, 88, 65
2, 223320, Note_on_c, 0, 88, 0
2, 223320, Note_on_c, 0, 76, 0
2, 223440, Note_on_c, 0, 56, 55
2, 223440, Note_on_c, 0, 59, 45
2, 223440, Note_on_c, 0, 64, 55
2, 223560, Note_on_c, 0, 64, 0
2, 223560, Note_on_c, 0, 59, 0
2, 223560, Note_on_c, 0, 56, 0
2, 223680, Note_on_c, 0, 72, 62
2, 223680, Note_on_c, 0, 84, 60
2, 223680, Note_on_c, 0, 57, 63
2, 223680, Note_on_c, 0, 60, 53
2, 223680, Note_on_c, 0, 64, 63
2, 223800, Note_on_c, 0, 64, 0
2, 223800, Note_on_c, 0, 57, 0
2, 223800, Note_on_c, 0, 72, 0
2, 223800, Note_on_c, 0, 84, 0
2, 223800, Note_on_c, 0, 60, 0
2, 223920, Note_on_c, 0, 81, 53
2, 224040, Note_on_c, 0, 81, 0
2, 224160, Note_on_c, 0, 74, 65
2, 224160, Note_on_c, 0, 86, 65
2, 224280, Note_on_c, 0, 86, 0
2, 224280, Note_on_c, 0, 74, 0
2, 224400, Note_on_c, 0, 54, 54
2, 224400, Note_on_c, 0, 57, 44
2, 224400, Note_on_c, 0, 62, 54
2, 224520, Note_on_c, 0, 62, 0
2, 224520, Note_on_c, 0, 57, 0
2, 224520, Note_on_c, 0, 54, 0
2, 224640, Note_on_c, 0, 62, 63
2, 224640, Note_on_c, 0, 71, 63
2, 224640, Note_on_c, 0, 50, 64
2, 224640, Note_on_c, 0, 43, 77
2, 225120, Note_on_c, 0, 50, 0
2, 225120, Note_on_c, 0, 62, 0
2, 225120, Note_on_c, 0, 71, 0
2, 225120, Note_on_c, 0, 64, 64
2, 225120, Note_on_c, 0, 72, 64
2, 225120, Note_on_c, 0, 50, 72
2, 225600, Note_on_c, 0, 50, 0
2, 225600, Note_on_c, 0, 72, 0
2, 225600, Note_on_c, 0, 64, 0
2, 225600, Note_on_c, 0, 66, 60
2, 225600, Note_on_c, 0, 69, 63
2, 225600, Note_on_c, 0, 62, 67
2, 226020, Note_on_c, 0, 88, 71
2, 226080, Note_on_c, 0, 88, 0
2, 226080, Note_on_c, 0, 62, 0
2, 226080, Note_on_c, 0, 81, 56
2, 226080, Note_on_c, 0, 86, 56
2, 226080, Note_on_c, 0, 50, 72
2, 226320, Note_on_c, 0, 86, 0
2, 226320, Note_on_c, 0, 81, 0
2, 226560, Note_on_c, 0, 43, 0
2, 226560, Note_on_c, 0, 69, 0
2, 226560, Note_on_c, 0, 66, 0
2, 226560, Note_on_c, 0, 71, 67
2, 226560, Note_on_c, 0, 62, 66
2, 226560, Note_on_c, 0, 43, 77
2, 226800, Note_on_c, 0, 71, 0
2, 226800, Note_on_c, 0, 72, 62
2, 227040, Note_on_c, 0, 72, 0
2, 227040, Note_on_c, 0, 50, 0
2, 227040, Note_on_c, 0, 62, 0
2, 227040, Note_on_c, 0, 71, 64
2, 227040, Note_on_c, 0, 64, 65
2, 227040, Note_on_c, 0, 50, 69
2, 227280, Note_on_c, 0, 71, 0
2, 227280, Note_on_c, 0, 72, 67
2, 227520, Note_on_c, 0, 72, 0
2, 227520, Note_on_c, 0, 50, 0
2, 227520, Note_on_c, 0, 64, 0
2, 227520, Note_on_c, 0, 66, 59
2, 227520, Note_on_c, 0, 69, 62
2, 227520, Note_on_c, 0, 62, 66
2, 228480, Note_on_c, 0, 62, 0
2, 228480, Note_on_c, 0, 43, 0
2, 228480, Note_on_c, 0, 66, 0
2, 228480, Note_on_c, 0, 69, 0
2, 228480, Note_on_c, 0, 79, 83
2, 228480, Note_on_c, 0, 71, 66
2, 228480, Note_on_c, 0, 77, 66
2, 228480, Note_on_c, 0, 59, 80
2, 228480, Note_on_c, 0, 43, 75
2, 228540, Note_on_c, 0, 50, 83
2, 228720, Note_on_c, 0, 59, 0
2, 228720, Note_on_c, 0, 79, 0
2, 228720, Note_on_c, 0, 83, 62
2, 228720, Note_on_c, 0, 62, 55
2, 228960, Note_on_c, 0, 62, 0
2, 228960, Note_on_c, 0, 77, 0
2, 228960, Note_on_c, 0, 71, 0
2, 228960, Note_on_c, 0, 83, 0
2, 228960, Note_on_c, 0, 81, 65
2, 228960, Note_on_c, 0, 60, 59
2, 229200, Note_on_c, 0, 60, 0
2, 229200, Note_on_c, 0, 81, 0
2, 229200, Note_on_c, 0, 84, 69
2, 229200, Note_on_c, 0, 64, 62
2, 229440, Note_on_c, 0, 64, 0
2, 229440, Note_on_c, 0, 84, 0
2, 229440, Note_on_c, 0, 83, 72
2, 229440, Note_on_c, 0, 62, 66
2, 229680, Note_on_c, 0, 62, 0
2, 229680, Note_on_c, 0, 83, 0
2, 229680, Note_on_c, 0, 86, 76
2, 229680, Note_on_c, 0, 65, 69
2, 229920, Note_on_c, 0, 65, 0
2, 229920, Note_on_c, 0, 86, 0
2, 229920, Note_on_c, 0, 84, 79
2, 229920, Note_on_c, 0, 64, 72
2, 230160, Note_on_c, 0, 64, 0
2, 230160, Note_on_c, 0, 84, 0
2, 230160, Note_on_c, 0, 88, 82
2, 230160, Note_on_c, 0, 67, 76
2, 230400, Note_on_c, 0, 67, 0
2, 230400, Note_on_c, 0, 88, 0
2, 230400, Note_on_c, 0, 43, 0
2, 230400, Note_on_c, 0, 86, 85
2, 230400, Note_on_c, 0, 65, 79
2, 230460, Note_on_c, 0, 50, 0
2, 230640, Note_on_c, 0, 65, 0
2, 230640, Note_on_c, 0, 86, 0
2, 230640, Note_on_c, 0, 84, 79
2, 230640, Note_on_c, 0, 64, 77
2, 230880, Note_on_c, 0, 64, 0
2, 230880, Note_on_c, 0, 84, 0
2, 230880, Note_on_c, 0, 83, 73
2, 230880, Note_on_c, 0, 62, 74
2, 231120, Note_on_c, 0, 62, 0
2, 231120, Note_on_c, 0, 83, 0
2, 231120, Note_on_c, 0, 81, 67
2, 231120, Note_on_c, 0, 60, 72
2, 231360, Note_on_c, 0, 60, 0
2, 231360, Note_on_c, 0, 81, 0
2, 231360, Note_on_c, 0, 79, 75
2, 231360, Note_on_c, 0, 59, 69
2, 231600, Note_on_c, 0, 59, 0
2, 231600, Note_on_c, 0, 77, 61
2, 231600, Note_on_c, 0, 57, 66
2, 231840, Note_on_c, 0, 57, 0
2, 231840, Note_on_c, 0, 77, 0
2, 231840, Note_on_c, 0, 79, 0
2, 231840, Note_on_c, 0, 76, 60
2, 231840, Note_on_c, 0, 84, 74
2, 231840, Note_on_c, 0, 55, 64
2, 232080, Note_on_c, 0, 55, 0
2, 232080, Note_on_c, 0, 76, 0
2, 232080, Note_on_c, 0, 74, 60
2, 232080, Note_on_c, 0, 53, 61
2, 232320, Note_on_c, 0, 53, 0
2, 232320, Note_on_c, 0, 74, 0
2, 232320, Note_on_c, 0, 84, 0
2, 232320, Note_on_c, 0, 64, 73
2, 232320, Note_on_c, 0, 72, 62
2, 232320, Note_on_c, 0, 76, 70
2, 232320, Note_on_c, 0, 36, 80
2, 232320, Note_on_c, 0, 48, 80
2, 232800, Note_on_c, 0, 67, 41
2, 233040, Note_on_c, 0, 55, 48
2, 233100, Note_on_c, 0, 67, 0
2, 233280, Note_on_c, 0, 64, 0
2, 233280, Note_on_c, 0, 72, 0
2, 233280, Note_on_c, 0, 76, 0
2, 233280, Note_on_c, 0, 74, 64
2, 233280, Note_on_c, 0, 69, 52
2, 233280, Note_on_c, 0, 65, 51
2, 233340, Note_on_c, 0, 55, 0
2, 233520, Note_on_c, 0, 76, 58
2, 233520, Note_on_c, 0, 55, 58
2, 233580, Note_on_c, 0, 65, 0
2, 233595, Note_on_c, 0, 74, 0
2, 233760, Note_on_c, 0, 69, 0
2, 233760, Note_on_c, 0, 77, 63
2, 233760, Note_on_c, 0, 71, 56
2, 233760, Note_on_c, 0, 67, 57
2, 233820, Note_on_c, 0, 55, 0
2, 233835, Note_on_c, 0, 76, 0
2, 234000, Note_on_c, 0, 79, 65
2, 234000, Note_on_c, 0, 55, 53
2, 234060, Note_on_c, 0, 67, 0
2, 234075, Note_on_c, 0, 77, 0
2, 234240, Note_on_c, 0, 48, 0
2, 234240, Note_on_c, 0, 71, 0
2, 234240, Note_on_c, 0, 36, 0
2, 234240, Note_on_c, 0, 55, 0
2, 234240, Note_on_c, 0, 79, 0
2, 234240, Note_on_c, 0, 72, 64
2, 234240, Note_on_c, 0, 76, 68
2, 234240, Note_on_c, 0, 36, 60
2, 234240, Note_on_c, 0, 48, 56
2, 234720, Note_on_c, 0, 67, 51
2, 234960, Note_on_c, 0, 55, 53
2, 235020, Note_on_c, 0, 67, 0
2, 235200, Note_on_c, 0, 76, 0
2, 235200, Note_on_c, 0, 72, 0
2, 235200, Note_on_c, 0, 77, 65
2, 235200, Note_on_c, 0, 71, 54
2, 235200, Note_on_c, 0, 62, 51
2, 235260, Note_on_c, 0, 55, 0
2, 235440, Note_on_c, 0, 79, 68
2, 235440, Note_on_c, 0, 55, 53
2, 235500, Note_on_c, 0, 62, 0
2, 235515, Note_on_c, 0, 77, 0
2, 235680, Note_on_c, 0, 71, 0
2, 235680, Note_on_c, 0, 81, 66
2, 235680, Note_on_c, 0, 77, 63
2, 235680, Note_on_c, 0, 67, 56
2, 235740, Note_on_c, 0, 55, 0
2, 235755, Note_on_c, 0, 79, 0
2, 235920, Note_on_c, 0, 83, 72
2, 235920, Note_on_c, 0, 55, 45
2, 235980, Note_on_c, 0, 67, 0
2, 235995, Note_on_c, 0, 81, 0
2, 236160, Note_on_c, 0, 48, 0
2, 236160, Note_on_c, 0, 77, 0
2, 236160, Note_on_c, 0, 36, 0
2, 236160, Note_on_c, 0, 55, 0
2, 236160, Note_on_c, 0, 83, 0
2, 236160, Note_on_c, 0, 79, 74
2, 236160, Note_on_c, 0, 76, 61
2, 236160, Note_on_c, 0, 36, 61
2, 236160, Note_on_c, 0, 48, 59
2, 236400, Note_on_c, 0, 81, 67
2, 236475, Note_on_c, 0, 79, 0
2, 236640, Note_on_c, 0, 83, 73
2, 236640, Note_on_c, 0, 67, 50
2, 236715, Note_on_c, 0, 81, 0
2, 236880, Note_on_c, 0, 84, 68
2, 236880, Note_on_c, 0, 55, 51
2, 236940, Note_on_c, 0, 67, 0
2, 236955, Note_on_c, 0, 83, 0
2, 237060, Note_on_c, 0, 79, 66
2, 237120, Note_on_c, 0, 76, 0
2, 237120, Note_on_c, 0, 84, 0
2, 237120, Note_on_c, 0, 71, 64
2, 237120, Note_on_c, 0, 77, 68
2, 237120, Note_on_c, 0, 62, 48
2, 237180, Note_on_c, 0, 55, 0
2, 237180, Note_on_c, 0, 79, 0
2, 237360, Note_on_c, 0, 55, 49
2, 237420, Note_on_c, 0, 62, 0
2, 237600, Note_on_c, 0, 71, 0
2, 237600, Note_on_c, 0, 77, 0
2, 237600, Note_on_c, 0, 72, 58
2, 237600, Note_on_c, 0, 76, 62
2, 237600, Note_on_c, 0, 64, 50
2, 237660, Note_on_c, 0, 55, 0
2, 237840, Note_on_c, 0, 55, 55
2, 237900, Note_on_c, 0, 64, 0
2, 238020, Note_on_c, 0, 67, 54
2, 238080, Note_on_c, 0, 36, 0
2, 238080, Note_on_c, 0, 76, 0
2, 238080, Note_on_c, 0, 72, 0
2, 238080, Note_on_c, 0, 48, 0
2, 238080, Note_on_c, 0, 55, 0
2, 238080, Note_on_c, 0, 71, 63
2, 238080, Note_on_c, 0, 48, 71
2, 238140, Note_on_c, 0, 74, 63
2, 238320, Note_on_c, 0, 48, 0
2, 238320, Note_on_c, 0, 67, 0
2, 238320, Note_on_c, 0, 69, 60
2, 238560, Note_on_c, 0, 76, 60
2, 238560, Note_on_c, 0, 67, 52
2, 238620, Note_on_c, 0, 69, 0
2, 238635, Note_on_c, 0, 71, 0
2, 238695, Note_on_c, 0, 74, 0
2, 238800, Note_on_c, 0, 77, 62
2, 238800, Note_on_c, 0, 65, 56
2, 238860, Note_on_c, 0, 67, 0
2, 238875, Note_on_c, 0, 76, 0
2, 239040, Note_on_c, 0, 77, 0
2, 239040, Note_on_c, 0, 79, 71
2, 239040, Note_on_c, 0, 64, 50
2, 239100, Note_on_c, 0, 65, 0
2, 239280, Note_on_c, 0, 79, 0
2, 239280, Note_on_c, 0, 62, 50
2, 239340, Note_on_c, 0, 64, 0
2, 239520, Note_on_c, 0, 72, 59
2, 239520, Note_on_c, 0, 84, 72
2, 239520, Note_on_c, 0, 64, 46
2, 239580, Note_on_c, 0, 62, 0
2, 239760, Note_on_c, 0, 72, 0
2, 239760, Note_on_c, 0, 84, 0
2, 239760, Note_on_c, 0, 65, 49
2, 239820, Note_on_c, 0, 64, 0
2, 240000, Note_on_c, 0, 65, 0
2, 240000, Note_on_c, 0, 67, 68
2, 240000, Note_on_c, 0, 72, 68
2, 240000, Note_on_c, 0, 76, 72
2, 240000, Note_on_c, 0, 48, 70
2, 240240, Note_on_c, 0, 55, 56
2, 240300, Note_on_c, 0, 48, 0
2, 240480, Note_on_c, 0, 67, 62
2, 240540, Note_on_c, 0, 55, 0
2, 240720, Note_on_c, 0, 55, 56
2, 240780, Note_on_c, 0, 67, 0
2, 240960, Note_on_c, 0, 67, 0
2, 240960, Note_on_c, 0, 72, 0
2, 240960, Note_on_c, 0, 76, 0
2, 240960, Note_on_c, 0, 55, 0
2, 240960, Note_on_c, 0, 74, 67
2, 240960, Note_on_c, 0, 69, 56
2, 240960, Note_on_c, 0, 65, 44
2, 241200, Note_on_c, 0, 76, 61
2, 241200, Note_on_c, 0, 55, 47
2, 241260, Note_on_c, 0, 65, 0
2, 241275, Note_on_c, 0, 74, 0
2, 241440, Note_on_c, 0, 69, 0
2, 241440, Note_on_c, 0, 77, 67
2, 241440, Note_on_c, 0, 71, 59
2, 241440, Note_on_c, 0, 62, 53
2, 241500, Note_on_c, 0, 55, 0
2, 241515, Note_on_c, 0, 76, 0
2, 241680, Note_on_c, 0, 79, 65
2, 241680, Note_on_c, 0, 55, 57
2, 241740, Note_on_c, 0, 62, 0
2, 241755, Note_on_c, 0, 77, 0
2, 241920, Note_on_c, 0, 71, 0
2, 241920, Note_on_c, 0, 79, 0
2, 241920, Note_on_c, 0, 55, 0
2, 241920, Note_on_c, 0, 72, 69
2, 241920, Note_on_c, 0, 76, 73
2, 241920, Note_on_c, 0, 36, 63
2, 241920, Note_on_c, 0, 48, 55
2, 242400, Note_on_c, 0, 67, 60
2, 242640, Note_on_c, 0, 67, 0
2, 242640, Note_on_c, 0, 55, 60
2, 242880, Note_on_c, 0, 55, 0
2, 242880, Note_on_c, 0, 48, 0
2, 242880, Note_on_c, 0, 72, 0
2, 242880, Note_on_c, 0, 76, 0
2, 242880, Note_on_c, 0, 36, 0
2, 242880, Note_on_c, 0, 77, 79
2, 242880, Note_on_c, 0, 53, 71
2, 242880, Note_on_c, 0, 57, 64
2, 242880, Note_on_c, 0, 60, 56
2, 243120, Note_on_c, 0, 81, 78
2, 243195, Note_on_c, 0, 77, 0
2, 243360, Note_on_c, 0, 60, 0
2, 243360, Note_on_c, 0, 53, 0
2, 243360, Note_on_c, 0, 57, 0
2, 243360, Note_on_c, 0, 79, 86
2, 243360, Note_on_c, 0, 53, 74
2, 243360, Note_on_c, 0, 55, 74
2, 243360, Note_on_c, 0, 59, 67
2, 243435, Note_on_c, 0, 81, 0
2, 243600, Note_on_c, 0, 86, 82
2, 243675, Note_on_c, 0, 79, 0
2, 243780, Note_on_c, 0, 52, 70
2, 243840, Note_on_c, 0, 59, 0
2, 243840, Note_on_c, 0, 86, 0
2, 243840, Note_on_c, 0, 55, 0
2, 243840, Note_on_c, 0, 53, 0
2, 243840, Note_on_c, 0, 60, 79
2, 243900, Note_on_c, 0, 72, 78
2, 243900, Note_on_c, 0, 67, 87
2, 243975, Note_on_c, 0, 84, 91
2, 244080, Note_on_c, 0, 79, 87
2, 244140, Note_on_c, 0, 72, 0
2, 244290, Note_on_c, 0, 84, 0
2, 244320, Note_on_c, 0, 76, 85
2, 244395, Note_on_c, 0, 79, 0
2, 244560, Note_on_c, 0, 72, 84
2, 244635, Note_on_c, 0, 76, 0
2, 244740, Note_on_c, 0, 52, 0
2, 244800, Note_on_c, 0, 72, 0
2, 244800, Note_on_c, 0, 60, 0
2, 244800, Note_on_c, 0, 77, 84
2, 244800, Note_on_c, 0, 69, 57
2, 244800, Note_on_c, 0, 50, 73
2, 244800, Note_on_c, 0, 53, 71
2, 244800, Note_on_c, 0, 57, 68
2, 244800, Note_on_c, 0, 60, 67
2, 244860, Note_on_c, 0, 67, 0
2, 244920, Note_on_c, 0, 79, 89
2, 244995, Note_on_c, 0, 77, 0
2, 245040, Note_on_c, 0, 77, 84
2, 245115, Note_on_c, 0, 79, 0
2, 245280, Note_on_c, 0, 57, 0
2, 245280, Note_on_c, 0, 69, 0
2, 245280, Note_on_c, 0, 53, 0
2, 245280, Note_on_c, 0, 50, 0
2, 245280, Note_on_c, 0, 60, 0
2, 245280, Note_on_c, 0, 67, 86
2, 245280, Note_on_c, 0, 71, 86
2, 245280, Note_on_c, 0, 76, 90
2, 245280, Note_on_c, 0, 43, 81
2, 245280, Note_on_c, 0, 55, 78
2, 245355, Note_on_c, 0, 77, 0
2, 245520, Note_on_c, 0, 67, 0
2, 245520, Note_on_c, 0, 71, 0
2, 245520, Note_on_c, 0, 65, 85
2, 245520, Note_on_c, 0, 71, 85
2, 245520, Note_on_c, 0, 74, 89
2, 245595, Note_on_c, 0, 76, 0
2, 245760, Note_on_c, 0, 43, 0
2, 245760, Note_on_c, 0, 65, 0
2, 245760, Note_on_c, 0, 55, 0
2, 245760, Note_on_c, 0, 74, 0
2, 245760, Note_on_c, 0, 71, 0
2, 245760, Control_c, 0, 64, 127
2, 245760, Note_on_c, 0, 64, 93
2, 245760, Note_on_c, 0, 72, 90
2, 245760, Control_c, 0, 64, 127
2, 245760, Note_on_c, 0, 36, 91
2, 245760, Note_on_c, 0, 48, 93
2, 246720, Note_on_c, 0, 48, 0
2, 246720, Note_on_c, 0, 64, 0
2, 246720, Note_on_c, 0, 72, 0
2, 246720, Note_on_c, 0, 36, 0
2, 246960, Control_c, 0, 64, 0
2, 246960, Control_c, 0, 64, 0
2, 246960, End_track
0, 0, End_of_file
