0, 0, Header, 0, 1, 480
1, 0, Start_track
1, 0, Title_t, "Valse Brillante"
1, 0, Title_t, "Op-80 No-01"
1, 0, Text_t, "Cecile Chaminade "
1, 0, Time_signature, 4, 2, 24, 8
1, 0, Key_signature, 0, "major"
1, 0, Tempo, 500000
1, 0, Program_c, 0, 0
1, 0, Control_c, 0, 7, 115
1, 0, Control_c, 0, 91, 91
1, 0, Control_c, 0, 11, 99
1, 677, Control_c, 0, 64, 127
1, 1325, Note_on_c, 0, 61, 37
1, 1325, Note_on_c, 0, 58, 66
1, 1327, Note_on_c, 0, 51, 36
1, 1345, Note_on_c, 0, 87, 46
1, 1345, Note_on_c, 0, 85, 47
1, 1345, Note_on_c, 0, 67, 37
1, 1347, Note_on_c, 0, 82, 45
1, 1350, Note_on_c, 0, 75, 43
1, 1415, Note_on_c, 0, 51, 0
1, 1415, Note_on_c, 0, 58, 0
1, 1440, Note_on_c, 0, 61, 0
1, 1460, Note_on_c, 0, 67, 0
1, 1487, Note_on_c, 0, 87, 0
1, 1512, Note_on_c, 0, 85, 0
1, 1540, Note_on_c, 0, 82, 0
1, 1542, Note_on_c, 0, 75, 0
1, 1782, Note_on_c, 0, 63, 65
1, 1782, Note_on_c, 0, 51, 52
1, 1812, Note_on_c, 0, 39, 68
1, 1950, Note_on_c, 0, 63, 0
1, 1975, Note_on_c, 0, 51, 0
1, 1977, Note_on_c, 0, 39, 0
1, 2482, Note_on_c, 0, 61, 68
1, 2482, Note_on_c, 0, 55, 62
1, 2485, Note_on_c, 0, 58, 67
1, 2505, Note_on_c, 0, 87, 79
1, 2505, Note_on_c, 0, 85, 80
1, 2505, Note_on_c, 0, 67, 68
1, 2507, Note_on_c, 0, 82, 77
1, 2510, Note_on_c, 0, 75, 75
1, 2595, Note_on_c, 0, 67, 0
1, 2597, Note_on_c, 0, 58, 0
1, 2622, Note_on_c, 0, 87, 0
1, 2645, Note_on_c, 0, 85, 0
1, 2647, Note_on_c, 0, 55, 0
1, 2647, Note_on_c, 0, 75, 0
1, 2647, Note_on_c, 0, 61, 0
1, 2672, Note_on_c, 0, 82, 0
1, 2935, Note_on_c, 0, 63, 64
1, 2935, Note_on_c, 0, 51, 62
1, 2965, Note_on_c, 0, 39, 74
1, 3097, Note_on_c, 0, 63, 0
1, 3100, Note_on_c, 0, 51, 0
1, 3105, Note_on_c, 0, 39, 0
1, 3612, Note_on_c, 0, 55, 62
1, 3615, Note_on_c, 0, 58, 68
1, 3640, Note_on_c, 0, 61, 68
1, 3662, Note_on_c, 0, 67, 68
1, 3687, Note_on_c, 0, 87, 80
1, 3690, Note_on_c, 0, 85, 80
1, 3692, Note_on_c, 0, 82, 77
1, 3692, Note_on_c, 0, 75, 75
1, 3707, Note_on_c, 0, 58, 0
1, 3782, Note_on_c, 0, 67, 0
1, 3807, Note_on_c, 0, 87, 0
1, 3832, Note_on_c, 0, 85, 0
1, 3835, Note_on_c, 0, 55, 0
1, 3837, Note_on_c, 0, 75, 0
1, 3837, Note_on_c, 0, 61, 0
1, 3857, Note_on_c, 0, 82, 0
1, 4125, Note_on_c, 0, 63, 62
1, 4127, Note_on_c, 0, 51, 58
1, 4157, Note_on_c, 0, 39, 66
1, 4262, Note_on_c, 0, 63, 0
1, 4295, Note_on_c, 0, 39, 0
1, 4320, Note_on_c, 0, 51, 0
1, 4450, Control_c, 0, 64, 0
1, 4560, Note_on_c, 0, 55, 62
1, 4560, Note_on_c, 0, 58, 64
1, 4577, Note_on_c, 0, 87, 76
1, 4577, Note_on_c, 0, 85, 75
1, 4577, Note_on_c, 0, 67, 62
1, 4580, Note_on_c, 0, 82, 74
1, 4582, Note_on_c, 0, 75, 73
1, 4582, Note_on_c, 0, 61, 63
1, 4745, Control_c, 0, 64, 127
1, 4800, Note_on_c, 0, 85, 0
1, 4800, Note_on_c, 0, 87, 0
1, 4802, Note_on_c, 0, 61, 0
1, 4802, Note_on_c, 0, 67, 0
1, 4802, Note_on_c, 0, 82, 0
1, 4805, Note_on_c, 0, 55, 0
1, 4805, Note_on_c, 0, 75, 0
1, 4805, Note_on_c, 0, 58, 0
1, 5070, Note_on_c, 0, 63, 70
1, 5072, Note_on_c, 0, 51, 71
1, 5077, Note_on_c, 0, 39, 82
1, 5187, Note_on_c, 0, 63, 0
1, 5192, Note_on_c, 0, 39, 0
1, 5215, Note_on_c, 0, 51, 0
1, 5480, Note_on_c, 0, 85, 88
1, 5502, Note_on_c, 0, 67, 74
1, 5505, Note_on_c, 0, 87, 85
1, 5507, Note_on_c, 0, 82, 81
1, 5510, Note_on_c, 0, 75, 78
1, 5510, Note_on_c, 0, 61, 66
1, 5510, Note_on_c, 0, 55, 66
1, 5512, Note_on_c, 0, 58, 65
1, 5590, Control_c, 0, 67, 127
1, 5595, Note_on_c, 0, 87, 0
1, 5597, Note_on_c, 0, 58, 0
1, 5600, Note_on_c, 0, 55, 0
1, 5620, Note_on_c, 0, 85, 0
1, 5620, Note_on_c, 0, 67, 0
1, 5622, Note_on_c, 0, 82, 0
1, 5622, Note_on_c, 0, 75, 0
1, 5622, Note_on_c, 0, 61, 0
1, 5707, Control_c, 0, 64, 0
1, 5890, Note_on_c, 0, 63, 53
1, 6232, Note_on_c, 0, 63, 0
1, 6265, Note_on_c, 0, 65, 49
1, 6402, Control_c, 0, 64, 127
1, 6790, Note_on_c, 0, 75, 49
1, 6805, Note_on_c, 0, 65, 0
1, 7055, Note_on_c, 0, 75, 0
1, 7085, Note_on_c, 0, 77, 72
1, 7512, Note_on_c, 0, 63, 33
1, 7600, Control_c, 0, 64, 0
1, 7810, Note_on_c, 0, 65, 35
1, 7877, Note_on_c, 0, 63, 0
1, 7892, Control_c, 0, 64, 127
1, 7897, Note_on_c, 0, 77, 0
1, 8027, Note_on_c, 0, 65, 0
1, 8232, Note_on_c, 0, 75, 54
1, 8502, Note_on_c, 0, 75, 0
1, 8540, Note_on_c, 0, 77, 51
1, 8985, Note_on_c, 0, 63, 61
1, 9077, Control_c, 0, 64, 0
1, 9255, Note_on_c, 0, 65, 59
1, 9297, Note_on_c, 0, 63, 0
1, 9312, Control_c, 0, 67, 0
1, 9357, Control_c, 0, 64, 127
1, 9420, Note_on_c, 0, 77, 0
1, 9457, Note_on_c, 0, 75, 66
1, 9675, Note_on_c, 0, 75, 0
1, 9707, Note_on_c, 0, 77, 64
1, 9747, Note_on_c, 0, 65, 0
1, 9810, Note_on_c, 0, 57, 53
1, 9877, Note_on_c, 0, 77, 0
1, 9907, Control_c, 0, 64, 0
1, 9932, Note_on_c, 0, 87, 62
1, 10117, Note_on_c, 0, 63, 53
1, 10122, Control_c, 0, 64, 127
1, 10140, Note_on_c, 0, 72, 59
1, 10140, Note_on_c, 0, 65, 57
1, 10155, Note_on_c, 0, 87, 0
1, 10180, Note_on_c, 0, 57, 0
1, 10215, Note_on_c, 0, 89, 66
1, 10260, Note_on_c, 0, 65, 0
1, 10312, Note_on_c, 0, 72, 0
1, 10335, Note_on_c, 0, 63, 0
1, 10407, Note_on_c, 0, 89, 0
1, 10415, Note_on_c, 0, 99, 78
1, 10517, Control_c, 0, 64, 0
1, 10622, Note_on_c, 0, 58, 52
1, 10655, Note_on_c, 0, 99, 0
1, 10660, Note_on_c, 0, 101, 82
1, 10722, Control_c, 0, 64, 127
1, 10817, Note_on_c, 0, 67, 62
1, 10820, Note_on_c, 0, 73, 65
1, 10822, Note_on_c, 0, 63, 48
1, 10837, Note_on_c, 0, 58, 0
1, 10880, Note_on_c, 0, 101, 0
1, 10892, Note_on_c, 0, 89, 66
1, 10910, Note_on_c, 0, 67, 0
1, 10912, Note_on_c, 0, 73, 0
1, 10985, Note_on_c, 0, 63, 0
1, 11127, Note_on_c, 0, 39, 58
1, 11157, Note_on_c, 0, 89, 0
1, 11197, Note_on_c, 0, 87, 57
1, 11220, Note_on_c, 0, 39, 0
1, 11232, Control_c, 0, 67, 127
1, 11450, Note_on_c, 0, 51, 41
1, 11470, Note_on_c, 0, 77, 39
1, 11472, Note_on_c, 0, 61, 46
1, 11477, Note_on_c, 0, 55, 46
1, 11487, Note_on_c, 0, 87, 0
1, 11570, Note_on_c, 0, 51, 0
1, 11745, Note_on_c, 0, 77, 0
1, 11785, Note_on_c, 0, 75, 45
1, 12000, Note_on_c, 0, 55, 0
1, 12032, Control_c, 0, 64, 0
1, 12037, Note_on_c, 0, 51, 34
1, 12052, Note_on_c, 0, 61, 0
1, 12140, Note_on_c, 0, 63, 35
1, 12385, Note_on_c, 0, 63, 0
1, 12417, Note_on_c, 0, 44, 39
1, 12432, Note_on_c, 0, 75, 0
1, 12540, Note_on_c, 0, 65, 35
1, 12585, Note_on_c, 0, 44, 0
1, 12630, Note_on_c, 0, 65, 0
1, 12697, Note_on_c, 0, 72, 37
1, 12765, Note_on_c, 0, 72, 0
1, 12767, Note_on_c, 0, 51, 0
1, 12822, Note_on_c, 0, 72, 38
1, 12825, Note_on_c, 0, 60, 34
1, 12890, Note_on_c, 0, 72, 0
1, 12925, Note_on_c, 0, 75, 45
1, 12992, Note_on_c, 0, 75, 0
1, 13040, Note_on_c, 0, 60, 0
1, 13055, Note_on_c, 0, 75, 49
1, 13082, Note_on_c, 0, 51, 37
1, 13175, Note_on_c, 0, 75, 0
1, 13180, Note_on_c, 0, 77, 52
1, 13245, Note_on_c, 0, 77, 0
1, 13310, Note_on_c, 0, 77, 54
1, 13315, Note_on_c, 0, 45, 50
1, 13327, Note_on_c, 0, 51, 0
1, 13400, Note_on_c, 0, 45, 0
1, 13405, Note_on_c, 0, 84, 58
1, 13420, Note_on_c, 0, 77, 0
1, 13445, Note_on_c, 0, 84, 0
1, 13505, Note_on_c, 0, 84, 59
1, 13560, Note_on_c, 0, 60, 35
1, 13605, Note_on_c, 0, 87, 62
1, 13620, Note_on_c, 0, 84, 0
1, 13710, Note_on_c, 0, 87, 0
1, 13760, Note_on_c, 0, 51, 35
1, 13800, Note_on_c, 0, 60, 0
1, 13812, Note_on_c, 0, 63, 39
1, 13902, Note_on_c, 0, 63, 0
1, 14060, Note_on_c, 0, 46, 44
1, 14077, Note_on_c, 0, 51, 0
1, 14105, Note_on_c, 0, 65, 55
1, 14212, Note_on_c, 0, 75, 62
1, 14212, Note_on_c, 0, 73, 59
1, 14222, Note_on_c, 0, 65, 0
1, 14277, Note_on_c, 0, 46, 0
1, 14280, Note_on_c, 0, 75, 0
1, 14280, Note_on_c, 0, 73, 0
1, 14335, Note_on_c, 0, 73, 66
1, 14337, Note_on_c, 0, 75, 62
1, 14340, Note_on_c, 0, 55, 55
1, 14362, Note_on_c, 0, 61, 57
1, 14402, Note_on_c, 0, 73, 0
1, 14430, Note_on_c, 0, 75, 0
1, 14437, Note_on_c, 0, 67, 59
1, 14455, Note_on_c, 0, 61, 0
1, 14480, Note_on_c, 0, 55, 0
1, 14490, Note_on_c, 0, 51, 53
1, 14525, Note_on_c, 0, 67, 0
1, 14535, Note_on_c, 0, 63, 55
1, 14630, Note_on_c, 0, 51, 0
1, 14652, Note_on_c, 0, 63, 0
1, 14762, Control_c, 0, 64, 127
1, 14765, Note_on_c, 0, 27, 53
1, 14867, Note_on_c, 0, 39, 51
1, 14882, Note_on_c, 0, 27, 0
1, 14882, Note_on_c, 0, 65, 53
1, 14952, Note_on_c, 0, 39, 0
1, 14962, Note_on_c, 0, 73, 59
1, 14965, Note_on_c, 0, 75, 60
1, 14975, Note_on_c, 0, 65, 0
1, 14980, Control_c, 0, 64, 0
1, 15027, Note_on_c, 0, 73, 0
1, 15030, Note_on_c, 0, 75, 0
1, 15082, Note_on_c, 0, 75, 60
1, 15082, Note_on_c, 0, 73, 62
1, 15162, Note_on_c, 0, 61, 50
1, 15162, Note_on_c, 0, 55, 51
1, 15177, Note_on_c, 0, 73, 0
1, 15177, Note_on_c, 0, 75, 0
1, 15185, Note_on_c, 0, 67, 49
1, 15237, Note_on_c, 0, 51, 49
1, 15250, Note_on_c, 0, 67, 0
1, 15272, Note_on_c, 0, 55, 0
1, 15275, Note_on_c, 0, 61, 0
1, 15282, Note_on_c, 0, 63, 54
1, 15375, Note_on_c, 0, 63, 0
1, 15557, Note_on_c, 0, 44, 54
1, 15582, Note_on_c, 0, 65, 57
1, 15587, Control_c, 0, 64, 127
1, 15670, Note_on_c, 0, 44, 0
1, 15680, Note_on_c, 0, 72, 57
1, 15695, Note_on_c, 0, 65, 0
1, 15750, Note_on_c, 0, 72, 0
1, 15800, Note_on_c, 0, 51, 0
1, 15807, Note_on_c, 0, 72, 57
1, 15810, Note_on_c, 0, 60, 34
1, 15897, Note_on_c, 0, 72, 0
1, 15937, Note_on_c, 0, 75, 66
1, 16005, Note_on_c, 0, 75, 0
1, 16057, Note_on_c, 0, 75, 60
1, 16060, Note_on_c, 0, 51, 38
1, 16075, Note_on_c, 0, 60, 0
1, 16155, Note_on_c, 0, 77, 60
1, 16175, Note_on_c, 0, 75, 0
1, 16220, Note_on_c, 0, 77, 0
1, 16280, Note_on_c, 0, 77, 61
1, 16287, Note_on_c, 0, 45, 46
1, 16350, Note_on_c, 0, 84, 66
1, 16392, Note_on_c, 0, 84, 0
1, 16392, Note_on_c, 0, 77, 0
1, 16395, Note_on_c, 0, 45, 0
1, 16447, Note_on_c, 0, 84, 62
1, 16520, Note_on_c, 0, 51, 0
1, 16530, Note_on_c, 0, 60, 39
1, 16547, Control_c, 0, 64, 0
1, 16552, Note_on_c, 0, 87, 57
1, 16590, Note_on_c, 0, 84, 0
1, 16640, Note_on_c, 0, 87, 0
1, 16705, Note_on_c, 0, 51, 35
1, 16770, Note_on_c, 0, 60, 0
1, 16775, Note_on_c, 0, 63, 44
1, 16890, Note_on_c, 0, 63, 0
1, 16975, Note_on_c, 0, 46, 59
1, 17042, Note_on_c, 0, 51, 0
1, 17047, Note_on_c, 0, 65, 43
1, 17080, Control_c, 0, 64, 127
1, 17150, Note_on_c, 0, 73, 51
1, 17152, Note_on_c, 0, 75, 54
1, 17165, Note_on_c, 0, 65, 0
1, 17190, Note_on_c, 0, 46, 0
1, 17217, Note_on_c, 0, 75, 0
1, 17220, Note_on_c, 0, 73, 0
1, 17252, Note_on_c, 0, 61, 55
1, 17252, Note_on_c, 0, 55, 54
1, 17277, Note_on_c, 0, 73, 60
1, 17280, Note_on_c, 0, 75, 62
1, 17292, Control_c, 0, 64, 0
1, 17340, Note_on_c, 0, 55, 0
1, 17345, Note_on_c, 0, 67, 53
1, 17365, Note_on_c, 0, 75, 0
1, 17365, Note_on_c, 0, 73, 0
1, 17390, Note_on_c, 0, 61, 0
1, 17400, Note_on_c, 0, 51, 54
1, 17452, Note_on_c, 0, 63, 58
1, 17460, Note_on_c, 0, 67, 0
1, 17562, Note_on_c, 0, 51, 0
1, 17585, Note_on_c, 0, 63, 0
1, 17647, Control_c, 0, 64, 127
1, 17700, Note_on_c, 0, 47, 57
1, 17715, Note_on_c, 0, 65, 45
1, 17807, Note_on_c, 0, 65, 0
1, 17835, Note_on_c, 0, 47, 0
1, 17842, Note_on_c, 0, 79, 57
1, 17842, Note_on_c, 0, 77, 55
1, 17907, Note_on_c, 0, 77, 0
1, 17907, Note_on_c, 0, 79, 0
1, 17942, Note_on_c, 0, 55, 54
1, 17967, Note_on_c, 0, 79, 62
1, 17967, Note_on_c, 0, 77, 63
1, 17970, Note_on_c, 0, 62, 54
1, 18035, Note_on_c, 0, 55, 0
1, 18040, Note_on_c, 0, 67, 61
1, 18060, Note_on_c, 0, 62, 0
1, 18062, Note_on_c, 0, 79, 0
1, 18085, Note_on_c, 0, 77, 0
1, 18160, Note_on_c, 0, 67, 0
1, 18162, Control_c, 0, 64, 0
1, 18172, Note_on_c, 0, 62, 54
1, 18240, Note_on_c, 0, 62, 0
1, 18402, Note_on_c, 0, 48, 48
1, 18472, Note_on_c, 0, 63, 54
1, 18522, Control_c, 0, 64, 127
1, 18587, Note_on_c, 0, 63, 0
1, 18590, Note_on_c, 0, 48, 0
1, 18595, Note_on_c, 0, 65, 55
1, 18660, Note_on_c, 0, 65, 0
1, 18695, Note_on_c, 0, 63, 48
1, 18720, Note_on_c, 0, 65, 55
1, 18792, Note_on_c, 0, 66, 57
1, 18810, Note_on_c, 0, 65, 0
1, 18837, Note_on_c, 0, 63, 0
1, 18860, Note_on_c, 0, 66, 0
1, 18900, Note_on_c, 0, 55, 43
1, 18917, Note_on_c, 0, 66, 55
1, 19012, Note_on_c, 0, 66, 0
1, 19017, Note_on_c, 0, 67, 62
1, 19017, Control_c, 0, 64, 0
1, 19052, Control_c, 0, 67, 0
1, 19057, Note_on_c, 0, 55, 0
1, 19080, Note_on_c, 0, 67, 0
1, 19142, Note_on_c, 0, 67, 62
1, 19150, Note_on_c, 0, 47, 44
1, 19242, Note_on_c, 0, 68, 62
1, 19257, Note_on_c, 0, 67, 0
1, 19272, Control_c, 0, 64, 127
1, 19310, Note_on_c, 0, 68, 0
1, 19337, Note_on_c, 0, 47, 0
1, 19370, Note_on_c, 0, 68, 65
1, 19372, Note_on_c, 0, 63, 40
1, 19442, Note_on_c, 0, 69, 62
1, 19487, Note_on_c, 0, 63, 0
1, 19487, Note_on_c, 0, 68, 0
1, 19510, Note_on_c, 0, 69, 0
1, 19547, Note_on_c, 0, 55, 45
1, 19567, Note_on_c, 0, 69, 66
1, 19635, Note_on_c, 0, 69, 0
1, 19635, Note_on_c, 0, 55, 0
1, 19645, Note_on_c, 0, 70, 72
1, 19680, Control_c, 0, 64, 0
1, 19715, Note_on_c, 0, 70, 0
1, 19725, Note_on_c, 0, 46, 58
1, 19767, Note_on_c, 0, 70, 68
1, 19870, Note_on_c, 0, 79, 75
1, 19875, Control_c, 0, 64, 127
1, 19910, Note_on_c, 0, 70, 0
1, 19935, Note_on_c, 0, 79, 0
1, 19937, Note_on_c, 0, 46, 0
1, 19992, Note_on_c, 0, 79, 64
1, 19997, Note_on_c, 0, 55, 49
1, 20025, Note_on_c, 0, 63, 49
1, 20060, Note_on_c, 0, 55, 0
1, 20072, Note_on_c, 0, 82, 67
1, 20110, Note_on_c, 0, 63, 0
1, 20110, Note_on_c, 0, 79, 0
1, 20137, Note_on_c, 0, 82, 0
1, 20195, Note_on_c, 0, 82, 66
1, 20212, Control_c, 0, 64, 0
1, 20287, Note_on_c, 0, 82, 0
1, 20400, Note_on_c, 0, 43, 54
1, 20475, Note_on_c, 0, 55, 49
1, 20505, Control_c, 0, 64, 127
1, 20522, Note_on_c, 0, 71, 58
1, 20587, Note_on_c, 0, 55, 0
1, 20590, Note_on_c, 0, 43, 0
1, 20602, Note_on_c, 0, 75, 64
1, 20615, Note_on_c, 0, 71, 0
1, 20667, Note_on_c, 0, 75, 0
1, 20725, Note_on_c, 0, 55, 52
1, 20727, Note_on_c, 0, 75, 67
1, 20750, Note_on_c, 0, 63, 53
1, 20752, Note_on_c, 0, 59, 53
1, 20805, Note_on_c, 0, 83, 70
1, 20845, Note_on_c, 0, 55, 0
1, 20847, Note_on_c, 0, 75, 0
1, 20850, Note_on_c, 0, 63, 0
1, 20872, Note_on_c, 0, 83, 0
1, 20875, Note_on_c, 0, 59, 0
1, 20930, Note_on_c, 0, 83, 69
1, 21002, Control_c, 0, 64, 0
1, 21050, Note_on_c, 0, 83, 0
1, 21160, Note_on_c, 0, 44, 58
1, 21210, Note_on_c, 0, 56, 49
1, 21240, Note_on_c, 0, 72, 64
1, 21287, Control_c, 0, 64, 127
1, 21302, Note_on_c, 0, 84, 64
1, 21320, Note_on_c, 0, 56, 0
1, 21345, Note_on_c, 0, 72, 0
1, 21347, Note_on_c, 0, 44, 0
1, 21367, Note_on_c, 0, 84, 0
1, 21432, Note_on_c, 0, 84, 64
1, 21435, Note_on_c, 0, 63, 51
1, 21457, Note_on_c, 0, 56, 50
1, 21462, Note_on_c, 0, 60, 49
1, 21522, Note_on_c, 0, 60, 0
1, 21532, Note_on_c, 0, 74, 54
1, 21540, Note_on_c, 0, 84, 0
1, 21570, Note_on_c, 0, 56, 0
1, 21572, Note_on_c, 0, 63, 0
1, 21607, Note_on_c, 0, 80, 51
1, 21677, Control_c, 0, 64, 0
1, 21682, Note_on_c, 0, 75, 57
1, 21695, Note_on_c, 0, 74, 0
1, 21745, Note_on_c, 0, 80, 0
1, 21747, Note_on_c, 0, 75, 0
1, 21932, Note_on_c, 0, 72, 52
1, 21935, Note_on_c, 0, 41, 62
1, 21960, Note_on_c, 0, 53, 53
1, 21960, Control_c, 0, 64, 127
1, 22022, Note_on_c, 0, 72, 0
1, 22027, Note_on_c, 0, 84, 59
1, 22045, Note_on_c, 0, 41, 0
1, 22067, Note_on_c, 0, 53, 0
1, 22087, Note_on_c, 0, 84, 0
1, 22150, Note_on_c, 0, 84, 55
1, 22177, Note_on_c, 0, 56, 52
1, 22180, Note_on_c, 0, 63, 51
1, 22182, Note_on_c, 0, 60, 51
1, 22225, Note_on_c, 0, 74, 58
1, 22242, Note_on_c, 0, 84, 0
1, 22277, Note_on_c, 0, 80, 58
1, 22292, Note_on_c, 0, 63, 0
1, 22295, Note_on_c, 0, 60, 0
1, 22317, Note_on_c, 0, 56, 0
1, 22360, Note_on_c, 0, 75, 58
1, 22372, Note_on_c, 0, 74, 0
1, 22422, Note_on_c, 0, 75, 0
1, 22425, Note_on_c, 0, 80, 0
1, 22450, Control_c, 0, 64, 0
1, 22610, Note_on_c, 0, 46, 53
1, 22655, Note_on_c, 0, 79, 65
1, 22712, Control_c, 0, 64, 127
1, 22757, Note_on_c, 0, 82, 69
1, 22800, Note_on_c, 0, 79, 0
1, 22822, Note_on_c, 0, 82, 0
1, 22830, Note_on_c, 0, 58, 58
1, 22847, Note_on_c, 0, 46, 0
1, 22857, Note_on_c, 0, 56, 58
1, 22860, Note_on_c, 0, 62, 58
1, 22882, Note_on_c, 0, 82, 63
1, 22920, Note_on_c, 0, 58, 0
1, 22922, Note_on_c, 0, 62, 0
1, 22947, Note_on_c, 0, 56, 0
1, 22980, Note_on_c, 0, 77, 64
1, 23042, Note_on_c, 0, 77, 0
1, 23045, Note_on_c, 0, 82, 0
1, 23102, Control_c, 0, 64, 0
1, 23110, Note_on_c, 0, 77, 64
1, 23160, Note_on_c, 0, 51, 48
1, 23195, Note_on_c, 0, 77, 0
1, 23202, Note_on_c, 0, 82, 66
1, 23220, Note_on_c, 0, 51, 0
1, 23295, Note_on_c, 0, 82, 0
1, 23307, Note_on_c, 0, 75, 67
1, 23310, Note_on_c, 0, 51, 43
1, 23337, Note_on_c, 0, 39, 48
1, 23380, Control_c, 0, 64, 127
1, 23400, Note_on_c, 0, 87, 74
1, 23467, Note_on_c, 0, 87, 0
1, 23467, Note_on_c, 0, 75, 0
1, 23520, Note_on_c, 0, 51, 0
1, 23525, Note_on_c, 0, 87, 71
1, 23547, Note_on_c, 0, 39, 0
1, 23622, Note_on_c, 0, 99, 76
1, 23665, Note_on_c, 0, 87, 0
1, 23710, Note_on_c, 0, 99, 0
1, 23745, Control_c, 0, 64, 0
1, 23802, Note_on_c, 0, 63, 40
1, 24015, Control_c, 0, 67, 127
1, 24192, Note_on_c, 0, 65, 35
1, 24197, Control_c, 0, 64, 127
1, 24310, Note_on_c, 0, 65, 0
1, 24317, Note_on_c, 0, 72, 44
1, 24387, Note_on_c, 0, 72, 0
1, 24412, Note_on_c, 0, 63, 0
1, 24447, Note_on_c, 0, 72, 45
1, 24560, Note_on_c, 0, 72, 0
1, 24572, Note_on_c, 0, 75, 57
1, 24637, Note_on_c, 0, 75, 0
1, 24692, Note_on_c, 0, 75, 54
1, 24817, Note_on_c, 0, 77, 54
1, 24835, Note_on_c, 0, 75, 0
1, 24882, Note_on_c, 0, 77, 0
1, 24920, Note_on_c, 0, 45, 45
1, 24940, Note_on_c, 0, 77, 58
1, 24945, Note_on_c, 0, 33, 47
1, 25037, Note_on_c, 0, 84, 62
1, 25057, Note_on_c, 0, 77, 0
1, 25082, Note_on_c, 0, 45, 0
1, 25100, Note_on_c, 0, 84, 0
1, 25162, Note_on_c, 0, 84, 66
1, 25235, Note_on_c, 0, 87, 67
1, 25252, Note_on_c, 0, 84, 0
1, 25322, Note_on_c, 0, 87, 0
1, 25355, Control_c, 0, 64, 0
1, 25450, Note_on_c, 0, 33, 0
1, 25477, Note_on_c, 0, 63, 50
1, 25575, Note_on_c, 0, 63, 0
1, 25612, Note_on_c, 0, 34, 57
1, 25707, Note_on_c, 0, 46, 54
1, 25745, Note_on_c, 0, 34, 0
1, 25750, Note_on_c, 0, 65, 54
1, 25840, Note_on_c, 0, 46, 0
1, 25850, Note_on_c, 0, 73, 62
1, 25852, Note_on_c, 0, 75, 63
1, 25862, Note_on_c, 0, 65, 0
1, 25915, Note_on_c, 0, 75, 0
1, 25920, Note_on_c, 0, 73, 0
1, 25970, Note_on_c, 0, 73, 64
1, 25970, Note_on_c, 0, 61, 52
1, 25972, Note_on_c, 0, 75, 63
1, 25995, Note_on_c, 0, 55, 53
1, 26035, Note_on_c, 0, 73, 0
1, 26037, Note_on_c, 0, 75, 0
1, 26067, Note_on_c, 0, 67, 51
1, 26110, Note_on_c, 0, 61, 0
1, 26120, Note_on_c, 0, 51, 48
1, 26132, Note_on_c, 0, 67, 0
1, 26132, Note_on_c, 0, 55, 0
1, 26167, Note_on_c, 0, 63, 49
1, 26257, Note_on_c, 0, 63, 0
1, 26260, Note_on_c, 0, 51, 0
1, 26450, Note_on_c, 0, 27, 53
1, 26450, Control_c, 0, 64, 127
1, 26492, Note_on_c, 0, 65, 60
1, 26502, Note_on_c, 0, 39, 53
1, 26540, Note_on_c, 0, 27, 0
1, 26560, Note_on_c, 0, 39, 0
1, 26565, Note_on_c, 0, 73, 62
1, 26567, Note_on_c, 0, 75, 61
1, 26605, Note_on_c, 0, 65, 0
1, 26632, Note_on_c, 0, 73, 0
1, 26635, Note_on_c, 0, 75, 0
1, 26692, Control_c, 0, 64, 0
1, 26695, Note_on_c, 0, 73, 60
1, 26697, Note_on_c, 0, 75, 59
1, 26765, Note_on_c, 0, 61, 48
1, 26767, Note_on_c, 0, 55, 46
1, 26785, Note_on_c, 0, 73, 0
1, 26792, Note_on_c, 0, 67, 55
1, 26810, Note_on_c, 0, 75, 0
1, 26852, Note_on_c, 0, 51, 45
1, 26885, Note_on_c, 0, 61, 0
1, 26895, Note_on_c, 0, 63, 49
1, 26910, Note_on_c, 0, 67, 0
1, 26912, Note_on_c, 0, 55, 0
1, 26957, Note_on_c, 0, 63, 0
1, 27192, Note_on_c, 0, 44, 50
1, 27222, Control_c, 0, 64, 127
1, 27240, Note_on_c, 0, 65, 55
1, 27332, Note_on_c, 0, 44, 0
1, 27357, Note_on_c, 0, 65, 0
1, 27367, Note_on_c, 0, 72, 57
1, 27435, Note_on_c, 0, 72, 0
1, 27492, Note_on_c, 0, 72, 57
1, 27495, Note_on_c, 0, 60, 46
1, 27537, Note_on_c, 0, 51, 0
1, 27560, Note_on_c, 0, 72, 0
1, 27600, Note_on_c, 0, 75, 63
1, 27665, Note_on_c, 0, 75, 0
1, 27702, Note_on_c, 0, 51, 46
1, 27712, Note_on_c, 0, 60, 0
1, 27720, Note_on_c, 0, 75, 61
1, 27822, Note_on_c, 0, 77, 61
1, 27837, Note_on_c, 0, 75, 0
1, 27885, Note_on_c, 0, 77, 0
1, 27947, Note_on_c, 0, 77, 66
1, 27975, Note_on_c, 0, 45, 53
1, 28020, Note_on_c, 0, 84, 66
1, 28060, Note_on_c, 0, 77, 0
1, 28065, Note_on_c, 0, 45, 0
1, 28080, Note_on_c, 0, 84, 0
1, 28140, Note_on_c, 0, 84, 62
1, 28200, Note_on_c, 0, 60, 45
1, 28237, Note_on_c, 0, 51, 0
1, 28240, Note_on_c, 0, 87, 69
1, 28275, Note_on_c, 0, 84, 0
1, 28305, Note_on_c, 0, 87, 0
1, 28390, Control_c, 0, 64, 0
1, 28420, Note_on_c, 0, 51, 45
1, 28437, Note_on_c, 0, 60, 0
1, 28470, Note_on_c, 0, 63, 49
1, 28590, Note_on_c, 0, 63, 0
1, 28697, Note_on_c, 0, 46, 53
1, 28722, Note_on_c, 0, 65, 51
1, 28737, Note_on_c, 0, 51, 0
1, 28800, Control_c, 0, 64, 127
1, 28817, Note_on_c, 0, 73, 57
1, 28820, Note_on_c, 0, 75, 58
1, 28860, Note_on_c, 0, 65, 0
1, 28885, Note_on_c, 0, 73, 0
1, 28887, Note_on_c, 0, 46, 0
1, 28887, Note_on_c, 0, 75, 0
1, 28925, Note_on_c, 0, 61, 53
1, 28930, Note_on_c, 0, 55, 54
1, 28950, Note_on_c, 0, 75, 62
1, 28950, Note_on_c, 0, 73, 63
1, 29042, Note_on_c, 0, 67, 59
1, 29060, Note_on_c, 0, 73, 0
1, 29087, Note_on_c, 0, 75, 0
1, 29102, Note_on_c, 0, 51, 49
1, 29115, Note_on_c, 0, 61, 0
1, 29140, Note_on_c, 0, 67, 0
1, 29142, Note_on_c, 0, 55, 0
1, 29157, Note_on_c, 0, 63, 54
1, 29187, Control_c, 0, 67, 0
1, 29245, Note_on_c, 0, 63, 0
1, 29245, Note_on_c, 0, 51, 0
1, 29247, Control_c, 0, 64, 0
1, 29430, Note_on_c, 0, 65, 47
1, 29437, Note_on_c, 0, 47, 46
1, 29537, Control_c, 0, 64, 127
1, 29555, Note_on_c, 0, 77, 48
1, 29557, Note_on_c, 0, 79, 49
1, 29595, Note_on_c, 0, 65, 0
1, 29597, Note_on_c, 0, 47, 0
1, 29617, Note_on_c, 0, 77, 0
1, 29620, Note_on_c, 0, 79, 0
1, 29657, Note_on_c, 0, 62, 51
1, 29660, Note_on_c, 0, 55, 52
1, 29682, Note_on_c, 0, 79, 57
1, 29685, Note_on_c, 0, 77, 58
1, 29747, Note_on_c, 0, 55, 0
1, 29750, Note_on_c, 0, 79, 0
1, 29755, Note_on_c, 0, 67, 55
1, 29772, Note_on_c, 0, 62, 0
1, 29772, Note_on_c, 0, 77, 0
1, 29820, Note_on_c, 0, 67, 0
1, 29855, Note_on_c, 0, 62, 55
1, 29922, Note_on_c, 0, 62, 0
1, 29927, Control_c, 0, 64, 0
1, 30130, Note_on_c, 0, 48, 51
1, 30175, Note_on_c, 0, 63, 38
1, 30250, Note_on_c, 0, 65, 58
1, 30285, Control_c, 0, 64, 127
1, 30320, Note_on_c, 0, 65, 0
1, 30345, Note_on_c, 0, 63, 0
1, 30367, Note_on_c, 0, 48, 0
1, 30372, Note_on_c, 0, 65, 57
1, 30405, Note_on_c, 0, 60, 46
1, 30475, Note_on_c, 0, 66, 59
1, 30492, Note_on_c, 0, 60, 0
1, 30492, Note_on_c, 0, 65, 0
1, 30540, Note_on_c, 0, 66, 0
1, 30600, Note_on_c, 0, 66, 64
1, 30602, Note_on_c, 0, 55, 45
1, 30675, Control_c, 0, 64, 0
1, 30692, Note_on_c, 0, 66, 0
1, 30722, Note_on_c, 0, 67, 59
1, 30767, Note_on_c, 0, 55, 0
1, 30790, Note_on_c, 0, 67, 0
1, 30835, Note_on_c, 0, 47, 49
1, 30850, Note_on_c, 0, 67, 59
1, 30915, Note_on_c, 0, 67, 0
1, 30925, Note_on_c, 0, 68, 63
1, 30957, Control_c, 0, 64, 127
1, 30992, Note_on_c, 0, 68, 0
1, 31020, Note_on_c, 0, 47, 0
1, 31052, Note_on_c, 0, 68, 63
1, 31080, Note_on_c, 0, 63, 49
1, 31145, Note_on_c, 0, 69, 62
1, 31162, Note_on_c, 0, 63, 0
1, 31190, Note_on_c, 0, 68, 0
1, 31212, Note_on_c, 0, 69, 0
1, 31250, Note_on_c, 0, 51, 49
1, 31270, Note_on_c, 0, 69, 66
1, 31315, Note_on_c, 0, 51, 0
1, 31340, Control_c, 0, 64, 0
1, 31365, Note_on_c, 0, 69, 0
1, 31375, Note_on_c, 0, 70, 65
1, 31425, Note_on_c, 0, 46, 58
1, 31440, Note_on_c, 0, 70, 0
1, 31492, Note_on_c, 0, 70, 62
1, 31592, Note_on_c, 0, 79, 71
1, 31607, Note_on_c, 0, 70, 0
1, 31620, Control_c, 0, 64, 127
1, 31657, Note_on_c, 0, 79, 0
1, 31665, Note_on_c, 0, 46, 0
1, 31690, Note_on_c, 0, 55, 52
1, 31715, Note_on_c, 0, 79, 71
1, 31717, Note_on_c, 0, 63, 53
1, 31782, Note_on_c, 0, 55, 0
1, 31792, Note_on_c, 0, 82, 79
1, 31807, Note_on_c, 0, 63, 0
1, 31832, Note_on_c, 0, 79, 0
1, 31857, Note_on_c, 0, 82, 0
1, 31917, Note_on_c, 0, 82, 77
1, 31925, Control_c, 0, 67, 127
1, 31970, Control_c, 0, 67, 0
1, 32007, Note_on_c, 0, 82, 0
1, 32012, Control_c, 0, 64, 0
1, 32112, Note_on_c, 0, 43, 53
1, 32182, Note_on_c, 0, 55, 49
1, 32207, Note_on_c, 0, 71, 62
1, 32285, Control_c, 0, 64, 127
1, 32325, Note_on_c, 0, 71, 0
1, 32335, Note_on_c, 0, 75, 68
1, 32345, Note_on_c, 0, 55, 0
1, 32350, Note_on_c, 0, 43, 0
1, 32400, Note_on_c, 0, 75, 0
1, 32400, Note_on_c, 0, 63, 44
1, 32435, Note_on_c, 0, 59, 48
1, 32457, Note_on_c, 0, 55, 47
1, 32460, Note_on_c, 0, 75, 71
1, 32522, Note_on_c, 0, 63, 0
1, 32525, Note_on_c, 0, 75, 0
1, 32530, Note_on_c, 0, 83, 77
1, 32575, Note_on_c, 0, 59, 0
1, 32595, Note_on_c, 0, 83, 0
1, 32600, Control_c, 0, 64, 0
1, 32605, Note_on_c, 0, 55, 0
1, 32650, Note_on_c, 0, 83, 76
1, 32745, Note_on_c, 0, 83, 0
1, 32825, Note_on_c, 0, 44, 66
1, 32900, Note_on_c, 0, 56, 59
1, 32927, Note_on_c, 0, 72, 65
1, 32980, Control_c, 0, 64, 127
1, 33025, Note_on_c, 0, 84, 62
1, 33037, Note_on_c, 0, 56, 0
1, 33040, Note_on_c, 0, 44, 0
1, 33040, Note_on_c, 0, 72, 0
1, 33087, Note_on_c, 0, 84, 0
1, 33125, Note_on_c, 0, 51, 50
1, 33142, Note_on_c, 0, 84, 60
1, 33145, Note_on_c, 0, 56, 48
1, 33150, Note_on_c, 0, 60, 47
1, 33185, Note_on_c, 0, 51, 0
1, 33210, Note_on_c, 0, 84, 0
1, 33212, Note_on_c, 0, 60, 0
1, 33220, Note_on_c, 0, 74, 63
1, 33285, Note_on_c, 0, 56, 0
1, 33297, Note_on_c, 0, 80, 60
1, 33360, Note_on_c, 0, 74, 0
1, 33370, Note_on_c, 0, 75, 66
1, 33412, Note_on_c, 0, 80, 0
1, 33437, Note_on_c, 0, 75, 0
1, 33440, Control_c, 0, 64, 0
1, 33597, Note_on_c, 0, 41, 46
1, 33622, Note_on_c, 0, 72, 64
1, 33622, Note_on_c, 0, 53, 45
1, 33717, Note_on_c, 0, 84, 70
1, 33720, Control_c, 0, 64, 127
1, 33757, Note_on_c, 0, 53, 0
1, 33760, Note_on_c, 0, 41, 0
1, 33762, Note_on_c, 0, 72, 0
1, 33782, Note_on_c, 0, 84, 0
1, 33845, Note_on_c, 0, 84, 66
1, 33847, Note_on_c, 0, 51, 48
1, 33850, Note_on_c, 0, 60, 49
1, 33867, Note_on_c, 0, 56, 50
1, 33910, Note_on_c, 0, 51, 0
1, 33920, Note_on_c, 0, 74, 66
1, 33932, Note_on_c, 0, 84, 0
1, 33937, Note_on_c, 0, 60, 0
1, 33957, Note_on_c, 0, 56, 0
1, 33995, Note_on_c, 0, 80, 66
1, 34060, Note_on_c, 0, 74, 0
1, 34070, Note_on_c, 0, 75, 65
1, 34107, Note_on_c, 0, 80, 0
1, 34110, Control_c, 0, 64, 0
1, 34135, Note_on_c, 0, 75, 0
1, 34290, Note_on_c, 0, 34, 61
1, 34292, Note_on_c, 0, 46, 59
1, 34315, Note_on_c, 0, 79, 66
1, 34415, Note_on_c, 0, 82, 63
1, 34430, Note_on_c, 0, 79, 0
1, 34462, Control_c, 0, 64, 127
1, 34480, Note_on_c, 0, 82, 0
1, 34510, Note_on_c, 0, 58, 44
1, 34512, Note_on_c, 0, 62, 46
1, 34527, Note_on_c, 0, 46, 0
1, 34530, Note_on_c, 0, 34, 0
1, 34537, Note_on_c, 0, 56, 48
1, 34542, Note_on_c, 0, 82, 67
1, 34605, Note_on_c, 0, 58, 0
1, 34605, Note_on_c, 0, 62, 0
1, 34635, Note_on_c, 0, 77, 68
1, 34647, Note_on_c, 0, 56, 0
1, 34695, Note_on_c, 0, 77, 0
1, 34697, Note_on_c, 0, 82, 0
1, 34760, Note_on_c, 0, 77, 63
1, 34847, Control_c, 0, 64, 0
1, 34857, Note_on_c, 0, 82, 73
1, 34867, Note_on_c, 0, 77, 0
1, 34972, Note_on_c, 0, 82, 0
1, 34980, Note_on_c, 0, 75, 76
1, 34980, Note_on_c, 0, 51, 57
1, 35005, Note_on_c, 0, 39, 64
1, 35067, Note_on_c, 0, 75, 0
1, 35077, Note_on_c, 0, 87, 84
1, 35127, Control_c, 0, 64, 127
1, 35142, Note_on_c, 0, 87, 0
1, 35200, Note_on_c, 0, 87, 83
1, 35215, Note_on_c, 0, 39, 0
1, 35217, Note_on_c, 0, 51, 0
1, 35297, Note_on_c, 0, 99, 85
1, 35362, Note_on_c, 0, 99, 0
1, 35367, Note_on_c, 0, 87, 0
1, 35417, Note_on_c, 0, 99, 73
1, 35420, Note_on_c, 0, 63, 49
1, 35510, Note_on_c, 0, 99, 0
1, 35540, Note_on_c, 0, 63, 0
1, 35695, Control_c, 0, 64, 0
1, 35750, Note_on_c, 0, 71, 51
1, 35752, Note_on_c, 0, 47, 60
1, 35867, Note_on_c, 0, 71, 0
1, 35880, Note_on_c, 0, 83, 63
1, 35942, Note_on_c, 0, 83, 0
1, 36002, Control_c, 0, 64, 127
1, 36027, Note_on_c, 0, 83, 75
1, 36092, Note_on_c, 0, 83, 0
1, 36102, Note_on_c, 0, 95, 83
1, 36145, Note_on_c, 0, 47, 0
1, 36165, Note_on_c, 0, 95, 0
1, 36225, Note_on_c, 0, 95, 81
1, 36225, Note_on_c, 0, 83, 76
1, 36250, Note_on_c, 0, 35, 81
1, 36255, Note_on_c, 0, 47, 80
1, 36612, Note_on_c, 0, 95, 0
1, 36687, Note_on_c, 0, 83, 0
1, 36887, Control_c, 0, 67, 127
1, 36932, Note_on_c, 0, 35, 0
1, 37035, Note_on_c, 0, 47, 0
1, 37085, Control_c, 0, 64, 0
1, 37317, Note_on_c, 0, 63, 40
1, 37320, Note_on_c, 0, 59, 50
1, 37320, Note_on_c, 0, 47, 59
1, 37410, Note_on_c, 0, 47, 0
1, 37412, Note_on_c, 0, 63, 0
1, 37437, Note_on_c, 0, 59, 0
1, 37542, Note_on_c, 0, 64, 51
1, 37542, Note_on_c, 0, 49, 49
1, 37547, Note_on_c, 0, 59, 53
1, 37635, Note_on_c, 0, 59, 0
1, 37655, Note_on_c, 0, 49, 0
1, 37680, Note_on_c, 0, 64, 0
1, 37792, Control_c, 0, 64, 127
1, 37815, Note_on_c, 0, 66, 54
1, 37817, Note_on_c, 0, 59, 57
1, 37842, Note_on_c, 0, 51, 55
1, 37902, Note_on_c, 0, 66, 0
1, 37957, Note_on_c, 0, 59, 0
1, 38157, Note_on_c, 0, 51, 0
1, 38157, Control_c, 0, 64, 0
1, 38215, Note_on_c, 0, 63, 35
1, 38220, Note_on_c, 0, 47, 44
1, 38280, Note_on_c, 0, 63, 0
1, 38317, Note_on_c, 0, 66, 64
1, 38320, Note_on_c, 0, 59, 45
1, 38325, Note_on_c, 0, 51, 46
1, 38360, Note_on_c, 0, 47, 0
1, 38407, Note_on_c, 0, 51, 0
1, 38427, Note_on_c, 0, 66, 0
1, 38430, Note_on_c, 0, 59, 0
1, 38562, Note_on_c, 0, 67, 63
1, 38565, Note_on_c, 0, 52, 53
1, 38567, Note_on_c, 0, 59, 53
1, 38652, Note_on_c, 0, 67, 0
1, 38655, Note_on_c, 0, 59, 0
1, 38655, Note_on_c, 0, 52, 0
1, 38785, Note_on_c, 0, 55, 49
1, 38787, Note_on_c, 0, 71, 52
1, 38787, Note_on_c, 0, 59, 50
1, 38877, Note_on_c, 0, 55, 0
1, 38880, Note_on_c, 0, 59, 0
1, 38957, Control_c, 0, 64, 127
1, 39007, Note_on_c, 0, 54, 46
1, 39010, Note_on_c, 0, 61, 46
1, 39035, Note_on_c, 0, 70, 47
1, 39052, Note_on_c, 0, 71, 0
1, 39100, Note_on_c, 0, 61, 0
1, 39122, Note_on_c, 0, 54, 0
1, 39150, Note_on_c, 0, 70, 0
1, 39280, Note_on_c, 0, 66, 52
1, 39282, Note_on_c, 0, 59, 49
1, 39287, Note_on_c, 0, 51, 49
1, 39365, Note_on_c, 0, 66, 0
1, 39590, Note_on_c, 0, 59, 0
1, 39640, Note_on_c, 0, 51, 0
1, 39675, Note_on_c, 0, 63, 34
1, 39675, Note_on_c, 0, 47, 39
1, 39715, Control_c, 0, 64, 0
1, 39762, Note_on_c, 0, 63, 0
1, 39775, Note_on_c, 0, 51, 39
1, 39797, Note_on_c, 0, 66, 43
1, 39800, Note_on_c, 0, 59, 41
1, 39812, Note_on_c, 0, 47, 0
1, 39887, Note_on_c, 0, 66, 0
1, 39890, Note_on_c, 0, 59, 0
1, 39912, Note_on_c, 0, 51, 0
1, 40022, Note_on_c, 0, 59, 50
1, 40025, Note_on_c, 0, 52, 54
1, 40047, Note_on_c, 0, 67, 53
1, 40110, Note_on_c, 0, 67, 0
1, 40135, Note_on_c, 0, 52, 0
1, 40137, Note_on_c, 0, 59, 0
1, 40240, Note_on_c, 0, 59, 47
1, 40240, Note_on_c, 0, 55, 49
1, 40242, Note_on_c, 0, 71, 50
1, 40327, Note_on_c, 0, 55, 0
1, 40330, Note_on_c, 0, 59, 0
1, 40380, Note_on_c, 0, 71, 0
1, 40432, Note_on_c, 0, 54, 48
1, 40435, Note_on_c, 0, 70, 52
1, 40435, Note_on_c, 0, 61, 50
1, 40522, Note_on_c, 0, 54, 0
1, 40547, Note_on_c, 0, 70, 0
1, 40550, Note_on_c, 0, 61, 0
1, 40620, Control_c, 0, 67, 0
1, 40652, Note_on_c, 0, 66, 50
1, 40652, Control_c, 0, 64, 127
1, 40657, Note_on_c, 0, 59, 54
1, 40680, Note_on_c, 0, 51, 53
1, 40767, Note_on_c, 0, 66, 0
1, 40795, Note_on_c, 0, 59, 0
1, 40817, Note_on_c, 0, 51, 0
1, 40900, Note_on_c, 0, 63, 46
1, 40905, Note_on_c, 0, 47, 57
1, 41060, Note_on_c, 0, 47, 0
1, 41062, Note_on_c, 0, 63, 0
1, 41072, Note_on_c, 0, 59, 61
1, 41095, Note_on_c, 0, 66, 62
1, 41097, Note_on_c, 0, 51, 62
1, 41110, Control_c, 0, 64, 0
1, 41160, Note_on_c, 0, 66, 0
1, 41187, Note_on_c, 0, 59, 0
1, 41212, Note_on_c, 0, 51, 0
1, 41317, Control_c, 0, 64, 127
1, 41320, Note_on_c, 0, 44, 65
1, 41322, Note_on_c, 0, 65, 54
1, 41325, Note_on_c, 0, 71, 54
1, 41482, Note_on_c, 0, 44, 0
1, 41485, Note_on_c, 0, 65, 0
1, 41487, Note_on_c, 0, 71, 0
1, 41542, Note_on_c, 0, 56, 49
1, 41545, Note_on_c, 0, 62, 51
1, 41547, Note_on_c, 0, 68, 48
1, 41610, Note_on_c, 0, 62, 0
1, 41685, Note_on_c, 0, 68, 0
1, 41737, Note_on_c, 0, 65, 51
1, 41740, Note_on_c, 0, 44, 62
1, 41742, Note_on_c, 0, 71, 54
1, 41780, Note_on_c, 0, 56, 0
1, 41807, Note_on_c, 0, 65, 0
1, 41855, Note_on_c, 0, 44, 0
1, 41857, Control_c, 0, 64, 0
1, 41882, Note_on_c, 0, 71, 0
1, 41990, Note_on_c, 0, 64, 59
1, 41992, Note_on_c, 0, 42, 66
1, 41995, Note_on_c, 0, 73, 59
1, 42112, Control_c, 0, 64, 127
1, 42180, Note_on_c, 0, 64, 0
1, 42185, Note_on_c, 0, 66, 46
1, 42185, Note_on_c, 0, 54, 58
1, 42187, Note_on_c, 0, 70, 46
1, 42202, Note_on_c, 0, 42, 0
1, 42207, Note_on_c, 0, 73, 0
1, 42252, Note_on_c, 0, 66, 0
1, 42335, Note_on_c, 0, 42, 65
1, 42375, Note_on_c, 0, 54, 0
1, 42377, Note_on_c, 0, 70, 0
1, 42387, Note_on_c, 0, 64, 59
1, 42390, Note_on_c, 0, 73, 66
1, 42480, Note_on_c, 0, 73, 0
1, 42500, Note_on_c, 0, 64, 0
1, 42502, Note_on_c, 0, 42, 0
1, 42547, Control_c, 0, 64, 0
1, 42660, Note_on_c, 0, 75, 59
1, 42660, Note_on_c, 0, 69, 60
1, 42662, Note_on_c, 0, 35, 62
1, 42807, Control_c, 0, 64, 127
1, 42832, Note_on_c, 0, 47, 63
1, 42835, Note_on_c, 0, 63, 55
1, 42847, Note_on_c, 0, 69, 0
1, 42850, Note_on_c, 0, 75, 0
1, 42855, Note_on_c, 0, 71, 64
1, 42895, Note_on_c, 0, 47, 0
1, 42917, Note_on_c, 0, 63, 0
1, 42917, Note_on_c, 0, 35, 0
1, 42970, Note_on_c, 0, 71, 0
1, 43027, Note_on_c, 0, 69, 66
1, 43030, Note_on_c, 0, 75, 69
1, 43030, Note_on_c, 0, 35, 66
1, 43090, Note_on_c, 0, 35, 0
1, 43115, Note_on_c, 0, 69, 0
1, 43117, Note_on_c, 0, 75, 0
1, 43142, Control_c, 0, 64, 0
1, 43207, Note_on_c, 0, 28, 66
1, 43277, Note_on_c, 0, 40, 66
1, 43280, Note_on_c, 0, 76, 72
1, 43382, Note_on_c, 0, 88, 78
1, 43427, Control_c, 0, 64, 127
1, 43445, Note_on_c, 0, 88, 0
1, 43470, Note_on_c, 0, 76, 0
1, 43495, Note_on_c, 0, 40, 0
1, 43495, Note_on_c, 0, 28, 0
1, 43505, Note_on_c, 0, 88, 81
1, 43577, Note_on_c, 0, 100, 87
1, 43597, Note_on_c, 0, 88, 0
1, 43637, Note_on_c, 0, 100, 0
1, 43727, Note_on_c, 0, 100, 85
1, 43730, Note_on_c, 0, 64, 73
1, 43730, Note_on_c, 0, 55, 83
1, 43732, Note_on_c, 0, 88, 87
1, 43732, Note_on_c, 0, 59, 83
1, 43812, Note_on_c, 0, 100, 0
1, 43817, Note_on_c, 0, 88, 0
1, 43887, Note_on_c, 0, 55, 0
1, 43890, Note_on_c, 0, 59, 0
1, 43917, Note_on_c, 0, 64, 0
1, 44392, Control_c, 0, 64, 0
1, 44525, Note_on_c, 0, 67, 65
1, 44525, Note_on_c, 0, 64, 62
1, 44527, Note_on_c, 0, 52, 65
1, 44530, Note_on_c, 0, 40, 71
1, 44652, Note_on_c, 0, 40, 0
1, 44662, Note_on_c, 0, 52, 0
1, 44690, Note_on_c, 0, 64, 0
1, 44695, Note_on_c, 0, 67, 0
1, 44762, Note_on_c, 0, 69, 64
1, 44762, Note_on_c, 0, 64, 62
1, 44762, Note_on_c, 0, 54, 66
1, 44765, Note_on_c, 0, 42, 70
1, 44880, Note_on_c, 0, 42, 0
1, 44880, Note_on_c, 0, 54, 0
1, 44905, Note_on_c, 0, 69, 0
1, 44930, Note_on_c, 0, 64, 0
1, 44985, Control_c, 0, 64, 127
1, 45037, Note_on_c, 0, 64, 69
1, 45040, Note_on_c, 0, 55, 69
1, 45042, Note_on_c, 0, 71, 68
1, 45042, Note_on_c, 0, 43, 79
1, 45172, Note_on_c, 0, 55, 0
1, 45175, Note_on_c, 0, 43, 0
1, 45200, Note_on_c, 0, 71, 0
1, 45227, Note_on_c, 0, 64, 0
1, 45332, Note_on_c, 0, 52, 62
1, 45347, Control_c, 0, 64, 0
1, 45357, Note_on_c, 0, 40, 63
1, 45407, Note_on_c, 0, 67, 59
1, 45422, Note_on_c, 0, 40, 0
1, 45447, Note_on_c, 0, 52, 0
1, 45470, Note_on_c, 0, 67, 0
1, 45502, Note_on_c, 0, 71, 65
1, 45502, Note_on_c, 0, 64, 63
1, 45502, Note_on_c, 0, 55, 65
1, 45502, Note_on_c, 0, 43, 68
1, 45595, Note_on_c, 0, 43, 0
1, 45617, Note_on_c, 0, 55, 0
1, 45620, Note_on_c, 0, 71, 0
1, 45645, Note_on_c, 0, 64, 0
1, 45720, Note_on_c, 0, 57, 64
1, 45722, Note_on_c, 0, 64, 69
1, 45725, Note_on_c, 0, 72, 69
1, 45727, Note_on_c, 0, 45, 71
1, 45792, Note_on_c, 0, 45, 0
1, 45817, Note_on_c, 0, 64, 0
1, 45837, Note_on_c, 0, 57, 0
1, 45840, Note_on_c, 0, 72, 0
1, 45920, Note_on_c, 0, 64, 64
1, 45922, Note_on_c, 0, 76, 63
1, 45925, Note_on_c, 0, 60, 58
1, 45927, Note_on_c, 0, 48, 57
1, 46017, Note_on_c, 0, 60, 0
1, 46017, Note_on_c, 0, 76, 0
1, 46040, Note_on_c, 0, 48, 0
1, 46062, Note_on_c, 0, 64, 0
1, 46142, Note_on_c, 0, 66, 62
1, 46147, Note_on_c, 0, 75, 63
1, 46147, Note_on_c, 0, 59, 62
1, 46147, Note_on_c, 0, 47, 64
1, 46232, Note_on_c, 0, 66, 0
1, 46235, Note_on_c, 0, 75, 0
1, 46235, Note_on_c, 0, 59, 0
1, 46235, Note_on_c, 0, 47, 0
1, 46345, Control_c, 0, 64, 127
1, 46390, Note_on_c, 0, 64, 64
1, 46392, Note_on_c, 0, 55, 64
1, 46392, Note_on_c, 0, 43, 70
1, 46395, Note_on_c, 0, 71, 63
1, 46557, Note_on_c, 0, 55, 0
1, 46585, Note_on_c, 0, 71, 0
1, 46585, Note_on_c, 0, 43, 0
1, 46605, Note_on_c, 0, 64, 0
1, 46737, Note_on_c, 0, 67, 53
1, 46740, Note_on_c, 0, 52, 62
1, 46740, Note_on_c, 0, 40, 64
1, 46800, Note_on_c, 0, 67, 0
1, 46802, Note_on_c, 0, 52, 0
1, 46805, Note_on_c, 0, 40, 0
1, 46860, Note_on_c, 0, 55, 66
1, 46860, Note_on_c, 0, 64, 62
1, 46862, Note_on_c, 0, 71, 65
1, 46862, Note_on_c, 0, 43, 72
1, 46952, Note_on_c, 0, 43, 0
1, 46975, Note_on_c, 0, 55, 0
1, 46977, Note_on_c, 0, 71, 0
1, 46997, Note_on_c, 0, 64, 0
1, 46997, Control_c, 0, 64, 0
1, 47080, Note_on_c, 0, 64, 71
1, 47082, Note_on_c, 0, 72, 70
1, 47105, Note_on_c, 0, 57, 67
1, 47110, Note_on_c, 0, 45, 77
1, 47170, Note_on_c, 0, 64, 0
1, 47172, Note_on_c, 0, 45, 0
1, 47192, Note_on_c, 0, 57, 0
1, 47195, Note_on_c, 0, 72, 0
1, 47280, Note_on_c, 0, 76, 66
1, 47280, Note_on_c, 0, 64, 66
1, 47282, Note_on_c, 0, 60, 62
1, 47282, Note_on_c, 0, 48, 62
1, 47372, Note_on_c, 0, 60, 0
1, 47395, Note_on_c, 0, 76, 0
1, 47397, Note_on_c, 0, 48, 0
1, 47420, Note_on_c, 0, 64, 0
1, 47480, Note_on_c, 0, 66, 59
1, 47482, Note_on_c, 0, 59, 58
1, 47507, Note_on_c, 0, 75, 62
1, 47510, Note_on_c, 0, 47, 64
1, 47542, Note_on_c, 0, 66, 0
1, 47570, Note_on_c, 0, 47, 0
1, 47570, Note_on_c, 0, 75, 0
1, 47572, Note_on_c, 0, 59, 0
1, 47705, Control_c, 0, 64, 127
1, 47725, Note_on_c, 0, 64, 66
1, 47727, Note_on_c, 0, 55, 66
1, 47730, Note_on_c, 0, 71, 66
1, 47842, Note_on_c, 0, 55, 0
1, 47890, Note_on_c, 0, 64, 0
1, 47917, Note_on_c, 0, 71, 0
1, 47945, Note_on_c, 0, 67, 57
1, 47947, Note_on_c, 0, 52, 51
1, 48015, Note_on_c, 0, 52, 0
1, 48040, Note_on_c, 0, 67, 0
1, 48150, Note_on_c, 0, 71, 65
1, 48155, Note_on_c, 0, 40, 71
1, 48155, Note_on_c, 0, 28, 70
1, 48192, Control_c, 0, 64, 0
1, 48217, Note_on_c, 0, 28, 0
1, 48240, Note_on_c, 0, 40, 0
1, 48310, Note_on_c, 0, 71, 0
1, 48392, Note_on_c, 0, 67, 71
1, 48395, Note_on_c, 0, 72, 70
1, 48397, Note_on_c, 0, 60, 66
1, 48420, Note_on_c, 0, 55, 65
1, 48467, Control_c, 0, 64, 127
1, 48550, Note_on_c, 0, 55, 0
1, 48552, Note_on_c, 0, 72, 0
1, 48555, Note_on_c, 0, 60, 0
1, 48572, Note_on_c, 0, 67, 0
1, 48612, Note_on_c, 0, 71, 62
1, 48612, Note_on_c, 0, 52, 61
1, 48700, Note_on_c, 0, 52, 0
1, 48775, Note_on_c, 0, 71, 0
1, 48832, Note_on_c, 0, 72, 64
1, 48835, Note_on_c, 0, 60, 64
1, 48835, Note_on_c, 0, 40, 75
1, 48837, Note_on_c, 0, 28, 74
1, 48850, Note_on_c, 0, 67, 67
1, 48850, Control_c, 0, 64, 0
1, 48990, Note_on_c, 0, 67, 0
1, 48995, Note_on_c, 0, 60, 0
1, 49020, Note_on_c, 0, 72, 0
1, 49020, Note_on_c, 0, 28, 0
1, 49042, Note_on_c, 0, 40, 0
1, 49052, Control_c, 0, 64, 127
1, 49097, Note_on_c, 0, 67, 77
1, 49100, Note_on_c, 0, 73, 82
1, 49100, Note_on_c, 0, 61, 72
1, 49100, Note_on_c, 0, 55, 72
1, 49212, Note_on_c, 0, 55, 0
1, 49237, Note_on_c, 0, 61, 0
1, 49322, Note_on_c, 0, 71, 73
1, 49322, Note_on_c, 0, 52, 72
1, 49385, Note_on_c, 0, 67, 0
1, 49410, Note_on_c, 0, 52, 0
1, 49412, Note_on_c, 0, 73, 0
1, 49487, Note_on_c, 0, 71, 0
1, 49542, Control_c, 0, 64, 0
1, 49547, Note_on_c, 0, 67, 71
1, 49550, Note_on_c, 0, 61, 74
1, 49552, Note_on_c, 0, 73, 79
1, 49555, Note_on_c, 0, 40, 84
1, 49560, Note_on_c, 0, 28, 83
1, 49737, Note_on_c, 0, 67, 0
1, 49740, Note_on_c, 0, 40, 0
1, 49742, Note_on_c, 0, 28, 0
1, 49762, Note_on_c, 0, 61, 0
1, 49787, Note_on_c, 0, 73, 0
1, 49795, Note_on_c, 0, 62, 80
1, 49795, Note_on_c, 0, 56, 81
1, 49817, Note_on_c, 0, 74, 90
1, 49820, Note_on_c, 0, 68, 80
1, 49822, Control_c, 0, 64, 127
1, 49910, Note_on_c, 0, 56, 0
1, 49960, Note_on_c, 0, 74, 0
1, 49972, Note_on_c, 0, 62, 0
1, 49992, Note_on_c, 0, 52, 69
1, 50010, Note_on_c, 0, 68, 0
1, 50042, Note_on_c, 0, 71, 72
1, 50055, Note_on_c, 0, 52, 0
1, 50220, Note_on_c, 0, 28, 80
1, 50222, Note_on_c, 0, 40, 88
1, 50230, Note_on_c, 0, 74, 90
1, 50232, Note_on_c, 0, 71, 0
1, 50267, Note_on_c, 0, 68, 83
1, 50270, Note_on_c, 0, 62, 76
1, 50312, Note_on_c, 0, 40, 0
1, 50315, Control_c, 0, 64, 0
1, 50337, Note_on_c, 0, 68, 0
1, 50357, Note_on_c, 0, 62, 0
1, 50380, Note_on_c, 0, 74, 0
1, 50445, Note_on_c, 0, 27, 84
1, 50482, Note_on_c, 0, 28, 0
1, 50492, Note_on_c, 0, 39, 88
1, 50532, Note_on_c, 0, 75, 91
1, 50615, Control_c, 0, 64, 127
1, 50625, Note_on_c, 0, 75, 0
1, 50632, Note_on_c, 0, 87, 94
1, 50652, Note_on_c, 0, 39, 0
1, 50655, Note_on_c, 0, 27, 0
1, 50700, Note_on_c, 0, 87, 0
1, 50755, Note_on_c, 0, 87, 88
1, 50822, Note_on_c, 0, 99, 88
1, 50825, Note_on_c, 0, 87, 0
1, 50827, Note_on_c, 0, 65, 70
1, 50882, Note_on_c, 0, 99, 0
1, 50927, Note_on_c, 0, 63, 76
1, 50945, Note_on_c, 0, 99, 79
1, 50950, Note_on_c, 0, 87, 84
1, 50965, Note_on_c, 0, 65, 0
1, 51010, Note_on_c, 0, 99, 0
1, 51015, Note_on_c, 0, 87, 0
1, 51170, Control_c, 0, 64, 0
1, 51200, Note_on_c, 0, 75, 67
1, 51200, Note_on_c, 0, 68, 66
1, 51202, Note_on_c, 0, 71, 63
1, 51205, Note_on_c, 0, 77, 63
1, 51290, Note_on_c, 0, 63, 0
1, 51312, Note_on_c, 0, 71, 0
1, 51340, Note_on_c, 0, 75, 0
1, 51390, Note_on_c, 0, 77, 0
1, 51447, Note_on_c, 0, 80, 71
1, 51450, Note_on_c, 0, 71, 66
1, 51452, Note_on_c, 0, 75, 72
1, 51467, Note_on_c, 0, 68, 0
1, 51515, Note_on_c, 0, 80, 0
1, 51567, Note_on_c, 0, 75, 0
1, 51647, Note_on_c, 0, 70, 63
1, 51665, Note_on_c, 0, 71, 0
1, 51675, Note_on_c, 0, 79, 66
1, 51677, Note_on_c, 0, 75, 67
1, 51740, Note_on_c, 0, 70, 0
1, 51742, Note_on_c, 0, 75, 0
1, 51770, Note_on_c, 0, 79, 0
1, 51780, Note_on_c, 0, 63, 66
1, 51810, Control_c, 0, 64, 127
1, 51880, Note_on_c, 0, 51, 64
1, 51902, Note_on_c, 0, 75, 67
1, 51945, Note_on_c, 0, 51, 0
1, 51977, Note_on_c, 0, 87, 69
1, 52020, Note_on_c, 0, 75, 0
1, 52037, Note_on_c, 0, 87, 0
1, 52097, Note_on_c, 0, 87, 64
1, 52140, Note_on_c, 0, 63, 0
1, 52150, Note_on_c, 0, 65, 61
1, 52167, Note_on_c, 0, 87, 0
1, 52172, Note_on_c, 0, 99, 73
1, 52210, Note_on_c, 0, 99, 0
1, 52215, Note_on_c, 0, 65, 0
1, 52270, Note_on_c, 0, 99, 79
1, 52275, Note_on_c, 0, 87, 77
1, 52277, Note_on_c, 0, 63, 65
1, 52335, Note_on_c, 0, 99, 0
1, 52342, Note_on_c, 0, 63, 0
1, 52367, Note_on_c, 0, 87, 0
1, 52522, Control_c, 0, 64, 0
1, 52570, Note_on_c, 0, 57, 67
1, 52595, Note_on_c, 0, 67, 66
1, 52597, Note_on_c, 0, 64, 65
1, 52600, Note_on_c, 0, 73, 71
1, 52752, Control_c, 0, 64, 127
1, 52795, Control_c, 0, 64, 0
1, 52832, Note_on_c, 0, 57, 0
1, 52860, Note_on_c, 0, 67, 0
1, 52860, Note_on_c, 0, 73, 0
1, 52885, Note_on_c, 0, 64, 0
1, 52895, Note_on_c, 0, 66, 43
1, 52920, Note_on_c, 0, 71, 45
1, 52922, Note_on_c, 0, 75, 50
1, 52960, Note_on_c, 0, 66, 0
1, 52970, Note_on_c, 0, 64, 49
1, 52970, Note_on_c, 0, 57, 57
1, 52987, Note_on_c, 0, 71, 0
1, 52992, Note_on_c, 0, 67, 51
1, 52995, Note_on_c, 0, 73, 58
1, 53002, Control_c, 0, 64, 127
1, 53040, Control_c, 0, 64, 0
1, 53060, Note_on_c, 0, 67, 0
1, 53060, Note_on_c, 0, 57, 0
1, 53062, Note_on_c, 0, 64, 0
1, 53115, Note_on_c, 0, 75, 0
1, 53137, Note_on_c, 0, 73, 0
1, 53250, Note_on_c, 0, 39, 65
1, 53272, Note_on_c, 0, 51, 59
1, 53320, Note_on_c, 0, 75, 68
1, 53345, Control_c, 0, 64, 127
1, 53415, Note_on_c, 0, 87, 70
1, 53432, Note_on_c, 0, 75, 0
1, 53432, Note_on_c, 0, 51, 0
1, 53437, Note_on_c, 0, 39, 0
1, 53482, Note_on_c, 0, 87, 0
1, 53537, Note_on_c, 0, 87, 66
1, 53617, Note_on_c, 0, 53, 53
1, 53637, Note_on_c, 0, 99, 67
1, 53680, Note_on_c, 0, 87, 0
1, 53700, Note_on_c, 0, 99, 0
1, 53712, Note_on_c, 0, 51, 64
1, 53727, Note_on_c, 0, 53, 0
1, 53757, Note_on_c, 0, 99, 75
1, 53760, Note_on_c, 0, 87, 73
1, 53820, Note_on_c, 0, 99, 0
1, 53825, Note_on_c, 0, 87, 0
1, 53927, Control_c, 0, 64, 0
1, 54072, Note_on_c, 0, 56, 59
1, 54097, Note_on_c, 0, 65, 49
1, 54102, Note_on_c, 0, 63, 46
1, 54165, Note_on_c, 0, 51, 0
1, 54262, Note_on_c, 0, 63, 0
1, 54337, Note_on_c, 0, 65, 0
1, 54395, Note_on_c, 0, 68, 49
1, 54397, Note_on_c, 0, 63, 37
1, 54397, Note_on_c, 0, 59, 38
1, 54580, Note_on_c, 0, 59, 0
1, 54582, Note_on_c, 0, 56, 0
1, 54585, Note_on_c, 0, 63, 0
1, 54607, Note_on_c, 0, 68, 0
1, 54662, Note_on_c, 0, 67, 36
1, 54667, Note_on_c, 0, 58, 39
1, 54670, Note_on_c, 0, 63, 38
1, 54797, Note_on_c, 0, 39, 46
1, 54817, Note_on_c, 0, 51, 41
1, 54852, Note_on_c, 0, 63, 0
1, 54852, Note_on_c, 0, 67, 0
1, 54855, Note_on_c, 0, 58, 0
1, 54890, Note_on_c, 0, 55, 45
1, 54892, Control_c, 0, 64, 127
1, 54927, Note_on_c, 0, 51, 0
1, 54930, Note_on_c, 0, 39, 0
1, 54962, Note_on_c, 0, 63, 52
1, 55047, Control_c, 0, 67, 127
1, 55097, Note_on_c, 0, 63, 0
1, 55200, Control_c, 0, 64, 0
1, 55270, Note_on_c, 0, 63, 57
1, 55280, Note_on_c, 0, 61, 54
1, 55327, Note_on_c, 0, 53, 52
1, 55427, Control_c, 0, 64, 127
1, 55440, Note_on_c, 0, 61, 0
1, 55440, Note_on_c, 0, 63, 0
1, 55467, Note_on_c, 0, 55, 0
1, 55515, Note_on_c, 0, 53, 0
1, 55520, Control_c, 0, 64, 0
1, 55570, Note_on_c, 0, 60, 62
1, 55572, Note_on_c, 0, 63, 61
1, 55620, Note_on_c, 0, 51, 58
1, 55697, Control_c, 0, 64, 127
1, 55737, Note_on_c, 0, 60, 0
1, 55807, Control_c, 0, 64, 0
1, 55827, Note_on_c, 0, 63, 0
1, 55830, Note_on_c, 0, 51, 0
1, 55910, Note_on_c, 0, 57, 61
1, 55915, Note_on_c, 0, 63, 58
1, 55917, Note_on_c, 0, 55, 57
1, 55960, Note_on_c, 0, 48, 53
1, 56045, Control_c, 0, 64, 127
1, 56145, Note_on_c, 0, 55, 0
1, 56170, Control_c, 0, 64, 0
1, 56195, Note_on_c, 0, 57, 0
1, 56220, Note_on_c, 0, 63, 0
1, 56297, Note_on_c, 0, 49, 45
1, 56317, Note_on_c, 0, 48, 0
1, 56347, Note_on_c, 0, 55, 44
1, 56372, Note_on_c, 0, 58, 45
1, 56402, Note_on_c, 0, 63, 47
1, 56427, Control_c, 0, 64, 127
1, 56460, Note_on_c, 0, 55, 0
1, 56485, Note_on_c, 0, 49, 0
1, 56487, Note_on_c, 0, 58, 0
1, 56540, Control_c, 0, 64, 0
1, 56670, Note_on_c, 0, 39, 49
1, 56755, Note_on_c, 0, 63, 0
1, 56765, Note_on_c, 0, 51, 35
1, 56835, Note_on_c, 0, 55, 36
1, 56840, Control_c, 0, 64, 127
1, 56902, Note_on_c, 0, 39, 0
1, 56915, Note_on_c, 0, 59, 43
1, 56950, Note_on_c, 0, 55, 0
1, 56987, Note_on_c, 0, 63, 40
1, 57027, Note_on_c, 0, 59, 0
1, 57150, Note_on_c, 0, 63, 0
1, 57322, Control_c, 0, 64, 0
1, 57452, Note_on_c, 0, 44, 40
1, 57550, Note_on_c, 0, 63, 44
1, 57552, Note_on_c, 0, 60, 45
1, 57570, Note_on_c, 0, 65, 35
1, 57660, Note_on_c, 0, 44, 0
1, 57697, Control_c, 0, 64, 127
1, 57760, Note_on_c, 0, 63, 0
1, 57762, Note_on_c, 0, 65, 0
1, 57762, Note_on_c, 0, 60, 0
1, 57785, Note_on_c, 0, 51, 0
1, 57792, Note_on_c, 0, 72, 48
1, 57857, Note_on_c, 0, 72, 0
1, 57930, Note_on_c, 0, 63, 40
1, 57940, Note_on_c, 0, 72, 50
1, 58052, Note_on_c, 0, 72, 0
1, 58065, Note_on_c, 0, 75, 60
1, 58127, Note_on_c, 0, 75, 0
1, 58150, Note_on_c, 0, 63, 0
1, 58185, Note_on_c, 0, 75, 61
1, 58237, Note_on_c, 0, 51, 35
1, 58310, Note_on_c, 0, 77, 62
1, 58322, Note_on_c, 0, 75, 0
1, 58370, Note_on_c, 0, 77, 0
1, 58410, Note_on_c, 0, 33, 48
1, 58430, Note_on_c, 0, 77, 62
1, 58457, Note_on_c, 0, 45, 49
1, 58472, Note_on_c, 0, 33, 0
1, 58522, Note_on_c, 0, 84, 64
1, 58542, Note_on_c, 0, 45, 0
1, 58565, Note_on_c, 0, 77, 0
1, 58590, Note_on_c, 0, 84, 0
1, 58650, Note_on_c, 0, 84, 61
1, 58722, Note_on_c, 0, 87, 64
1, 58760, Note_on_c, 0, 84, 0
1, 58790, Note_on_c, 0, 51, 0
1, 58812, Note_on_c, 0, 87, 0
1, 58865, Control_c, 0, 64, 0
1, 58895, Note_on_c, 0, 51, 35
1, 58945, Note_on_c, 0, 63, 37
1, 59082, Note_on_c, 0, 63, 0
1, 59197, Note_on_c, 0, 34, 64
1, 59217, Note_on_c, 0, 65, 43
1, 59235, Note_on_c, 0, 51, 0
1, 59245, Note_on_c, 0, 46, 59
1, 59257, Note_on_c, 0, 34, 0
1, 59312, Note_on_c, 0, 73, 50
1, 59315, Note_on_c, 0, 75, 52
1, 59350, Note_on_c, 0, 65, 0
1, 59377, Note_on_c, 0, 73, 0
1, 59380, Note_on_c, 0, 75, 0
1, 59400, Note_on_c, 0, 46, 0
1, 59435, Note_on_c, 0, 55, 53
1, 59437, Note_on_c, 0, 75, 60
1, 59437, Note_on_c, 0, 73, 59
1, 59460, Note_on_c, 0, 61, 54
1, 59502, Note_on_c, 0, 73, 0
1, 59525, Note_on_c, 0, 55, 0
1, 59527, Note_on_c, 0, 75, 0
1, 59537, Note_on_c, 0, 67, 54
1, 59580, Note_on_c, 0, 61, 0
1, 59590, Note_on_c, 0, 51, 47
1, 59602, Note_on_c, 0, 67, 0
1, 59637, Note_on_c, 0, 63, 48
1, 59675, Note_on_c, 0, 51, 0
1, 59727, Note_on_c, 0, 63, 0
1, 59835, Control_c, 0, 64, 127
1, 59865, Note_on_c, 0, 27, 53
1, 59960, Note_on_c, 0, 65, 43
1, 59990, Note_on_c, 0, 39, 51
1, 60000, Note_on_c, 0, 27, 0
1, 60047, Note_on_c, 0, 39, 0
1, 60060, Note_on_c, 0, 75, 50
1, 60060, Note_on_c, 0, 73, 49
1, 60067, Note_on_c, 0, 65, 0
1, 60122, Note_on_c, 0, 73, 0
1, 60122, Note_on_c, 0, 75, 0
1, 60152, Note_on_c, 0, 55, 52
1, 60157, Note_on_c, 0, 61, 53
1, 60180, Note_on_c, 0, 75, 57
1, 60180, Note_on_c, 0, 73, 55
1, 60240, Note_on_c, 0, 61, 0
1, 60240, Note_on_c, 0, 55, 0
1, 60242, Note_on_c, 0, 73, 0
1, 60270, Note_on_c, 0, 75, 0
1, 60302, Note_on_c, 0, 67, 50
1, 60330, Control_c, 0, 64, 0
1, 60375, Note_on_c, 0, 51, 44
1, 60412, Note_on_c, 0, 67, 0
1, 60422, Note_on_c, 0, 63, 46
1, 60492, Note_on_c, 0, 63, 0
1, 60697, Control_c, 0, 64, 127
1, 60720, Note_on_c, 0, 44, 53
1, 60745, Note_on_c, 0, 65, 55
1, 60807, Note_on_c, 0, 44, 0
1, 60860, Note_on_c, 0, 65, 0
1, 60872, Note_on_c, 0, 72, 59
1, 60935, Note_on_c, 0, 72, 0
1, 60965, Note_on_c, 0, 60, 46
1, 60990, Note_on_c, 0, 72, 60
1, 61027, Note_on_c, 0, 51, 0
1, 61080, Note_on_c, 0, 72, 0
1, 61115, Note_on_c, 0, 75, 66
1, 61172, Note_on_c, 0, 75, 0
1, 61200, Note_on_c, 0, 60, 0
1, 61210, Note_on_c, 0, 51, 44
1, 61237, Note_on_c, 0, 75, 61
1, 61325, Note_on_c, 0, 77, 62
1, 61342, Note_on_c, 0, 75, 0
1, 61390, Note_on_c, 0, 77, 0
1, 61447, Note_on_c, 0, 77, 60
1, 61452, Note_on_c, 0, 45, 50
1, 61550, Note_on_c, 0, 84, 64
1, 61560, Note_on_c, 0, 45, 0
1, 61590, Note_on_c, 0, 77, 0
1, 61615, Note_on_c, 0, 84, 0
1, 61670, Note_on_c, 0, 84, 60
1, 61720, Note_on_c, 0, 60, 45
1, 61722, Note_on_c, 0, 51, 0
1, 61770, Note_on_c, 0, 87, 61
1, 61782, Note_on_c, 0, 84, 0
1, 61832, Note_on_c, 0, 87, 0
1, 61915, Note_on_c, 0, 51, 39
1, 61922, Control_c, 0, 64, 0
1, 61952, Note_on_c, 0, 60, 0
1, 61962, Note_on_c, 0, 63, 45
1, 62092, Control_c, 0, 67, 0
1, 62120, Note_on_c, 0, 63, 0
1, 62217, Note_on_c, 0, 51, 0
1, 62247, Note_on_c, 0, 65, 54
1, 62247, Note_on_c, 0, 46, 60
1, 62295, Control_c, 0, 64, 127
1, 62345, Note_on_c, 0, 73, 59
1, 62347, Note_on_c, 0, 75, 57
1, 62362, Note_on_c, 0, 65, 0
1, 62382, Note_on_c, 0, 46, 0
1, 62407, Note_on_c, 0, 73, 0
1, 62410, Note_on_c, 0, 75, 0
1, 62412, Note_on_c, 0, 55, 48
1, 62465, Note_on_c, 0, 61, 46
1, 62467, Note_on_c, 0, 73, 53
1, 62470, Note_on_c, 0, 75, 54
1, 62560, Note_on_c, 0, 73, 0
1, 62562, Note_on_c, 0, 67, 54
1, 62582, Note_on_c, 0, 75, 0
1, 62602, Note_on_c, 0, 61, 0
1, 62615, Note_on_c, 0, 51, 40
1, 62625, Note_on_c, 0, 67, 0
1, 62660, Note_on_c, 0, 63, 43
1, 62672, Note_on_c, 0, 55, 0
1, 62672, Control_c, 0, 64, 0
1, 62747, Note_on_c, 0, 63, 0
1, 62812, Note_on_c, 0, 51, 0
1, 62915, Note_on_c, 0, 65, 46
1, 62920, Note_on_c, 0, 47, 58
1, 63040, Control_c, 0, 64, 127
1, 63042, Note_on_c, 0, 77, 58
1, 63045, Note_on_c, 0, 79, 59
1, 63080, Note_on_c, 0, 65, 0
1, 63105, Note_on_c, 0, 47, 0
1, 63107, Note_on_c, 0, 77, 0
1, 63107, Note_on_c, 0, 79, 0
1, 63162, Note_on_c, 0, 77, 62
1, 63162, Note_on_c, 0, 62, 60
1, 63165, Note_on_c, 0, 79, 66
1, 63252, Note_on_c, 0, 79, 0
1, 63272, Note_on_c, 0, 62, 0
1, 63275, Note_on_c, 0, 77, 0
1, 63280, Note_on_c, 0, 67, 64
1, 63300, Note_on_c, 0, 55, 53
1, 63342, Note_on_c, 0, 67, 0
1, 63377, Note_on_c, 0, 62, 55
1, 63415, Control_c, 0, 64, 0
1, 63462, Note_on_c, 0, 62, 0
1, 63595, Note_on_c, 0, 48, 49
1, 63602, Note_on_c, 0, 55, 0
1, 63637, Note_on_c, 0, 63, 51
1, 63657, Control_c, 0, 64, 127
1, 63722, Note_on_c, 0, 63, 0
1, 63757, Note_on_c, 0, 65, 59
1, 63775, Note_on_c, 0, 48, 0
1, 63822, Note_on_c, 0, 65, 0
1, 63855, Note_on_c, 0, 63, 49
1, 63877, Note_on_c, 0, 65, 58
1, 63952, Note_on_c, 0, 66, 59
1, 63965, Note_on_c, 0, 65, 0
1, 64015, Note_on_c, 0, 66, 0
1, 64017, Note_on_c, 0, 63, 0
1, 64042, Note_on_c, 0, 55, 48
1, 64070, Note_on_c, 0, 66, 60
1, 64132, Note_on_c, 0, 66, 0
1, 64152, Control_c, 0, 64, 0
1, 64187, Note_on_c, 0, 67, 61
1, 64225, Note_on_c, 0, 55, 0
1, 64252, Note_on_c, 0, 67, 0
1, 64310, Note_on_c, 0, 67, 60
1, 64312, Note_on_c, 0, 47, 48
1, 64400, Control_c, 0, 64, 127
1, 64430, Note_on_c, 0, 68, 62
1, 64440, Note_on_c, 0, 67, 0
1, 64465, Note_on_c, 0, 47, 0
1, 64492, Note_on_c, 0, 68, 0
1, 64547, Note_on_c, 0, 68, 62
1, 64550, Note_on_c, 0, 63, 45
1, 64620, Note_on_c, 0, 69, 65
1, 64637, Note_on_c, 0, 63, 0
1, 64665, Note_on_c, 0, 68, 0
1, 64687, Note_on_c, 0, 69, 0
1, 64710, Control_c, 0, 64, 0
1, 64717, Note_on_c, 0, 55, 41
1, 64742, Note_on_c, 0, 69, 61
1, 64802, Note_on_c, 0, 55, 0
1, 64842, Note_on_c, 0, 70, 62
1, 64857, Note_on_c, 0, 69, 0
1, 64907, Note_on_c, 0, 70, 0
1, 64915, Note_on_c, 0, 46, 50
1, 64962, Note_on_c, 0, 70, 63
1, 65007, Control_c, 0, 64, 127
1, 65052, Note_on_c, 0, 70, 0
1, 65062, Note_on_c, 0, 79, 71
1, 65072, Note_on_c, 0, 46, 0
1, 65125, Note_on_c, 0, 79, 0
1, 65155, Note_on_c, 0, 55, 45
1, 65157, Note_on_c, 0, 63, 46
1, 65185, Note_on_c, 0, 79, 72
1, 65245, Note_on_c, 0, 55, 0
1, 65247, Note_on_c, 0, 63, 0
1, 65260, Note_on_c, 0, 82, 72
1, 65295, Note_on_c, 0, 79, 0
1, 65320, Note_on_c, 0, 82, 0
1, 65380, Note_on_c, 0, 82, 65
1, 65432, Control_c, 0, 64, 0
1, 65465, Note_on_c, 0, 82, 0
1, 65565, Note_on_c, 0, 43, 53
1, 65637, Note_on_c, 0, 55, 43
1, 65662, Note_on_c, 0, 71, 61
1, 65680, Control_c, 0, 64, 127
1, 65722, Note_on_c, 0, 55, 0
1, 65742, Note_on_c, 0, 75, 65
1, 65750, Note_on_c, 0, 43, 0
1, 65752, Note_on_c, 0, 71, 0
1, 65802, Note_on_c, 0, 75, 0
1, 65852, Note_on_c, 0, 55, 49
1, 65855, Note_on_c, 0, 63, 49
1, 65855, Note_on_c, 0, 59, 49
1, 65860, Note_on_c, 0, 75, 68
1, 65957, Note_on_c, 0, 83, 72
1, 65970, Note_on_c, 0, 63, 0
1, 65995, Note_on_c, 0, 55, 0
1, 65997, Note_on_c, 0, 59, 0
1, 66000, Note_on_c, 0, 75, 0
1, 66020, Note_on_c, 0, 83, 0
1, 66077, Note_on_c, 0, 83, 64
1, 66137, Control_c, 0, 64, 0
1, 66167, Note_on_c, 0, 83, 0
1, 66295, Note_on_c, 0, 44, 59
1, 66342, Note_on_c, 0, 56, 44
1, 66370, Note_on_c, 0, 72, 44
1, 66412, Control_c, 0, 64, 127
1, 66440, Note_on_c, 0, 84, 51
1, 66477, Note_on_c, 0, 56, 0
1, 66480, Note_on_c, 0, 44, 0
1, 66480, Note_on_c, 0, 72, 0
1, 66505, Note_on_c, 0, 84, 0
1, 66562, Note_on_c, 0, 56, 48
1, 66565, Note_on_c, 0, 84, 58
1, 66567, Note_on_c, 0, 51, 50
1, 66592, Note_on_c, 0, 60, 51
1, 66627, Note_on_c, 0, 51, 0
1, 66645, Note_on_c, 0, 74, 60
1, 66680, Note_on_c, 0, 84, 0
1, 66682, Note_on_c, 0, 60, 0
1, 66720, Note_on_c, 0, 80, 57
1, 66727, Note_on_c, 0, 56, 0
1, 66792, Note_on_c, 0, 75, 58
1, 66805, Note_on_c, 0, 74, 0
1, 66827, Control_c, 0, 64, 0
1, 66855, Note_on_c, 0, 80, 0
1, 66880, Note_on_c, 0, 75, 0
1, 67057, Note_on_c, 0, 53, 53
1, 67060, Note_on_c, 0, 41, 59
1, 67062, Note_on_c, 0, 72, 63
1, 67102, Control_c, 0, 64, 127
1, 67160, Note_on_c, 0, 84, 68
1, 67192, Note_on_c, 0, 41, 0
1, 67192, Note_on_c, 0, 53, 0
1, 67195, Note_on_c, 0, 72, 0
1, 67245, Note_on_c, 0, 84, 0
1, 67280, Note_on_c, 0, 60, 50
1, 67282, Note_on_c, 0, 51, 51
1, 67300, Note_on_c, 0, 56, 52
1, 67305, Note_on_c, 0, 84, 66
1, 67367, Note_on_c, 0, 51, 0
1, 67370, Note_on_c, 0, 60, 0
1, 67407, Note_on_c, 0, 74, 63
1, 67420, Note_on_c, 0, 84, 0
1, 67440, Note_on_c, 0, 56, 0
1, 67480, Note_on_c, 0, 80, 62
1, 67512, Control_c, 0, 64, 0
1, 67555, Note_on_c, 0, 75, 62
1, 67565, Note_on_c, 0, 74, 0
1, 67620, Note_on_c, 0, 75, 0
1, 67645, Note_on_c, 0, 80, 0
1, 67772, Note_on_c, 0, 34, 72
1, 67797, Note_on_c, 0, 46, 62
1, 67817, Control_c, 0, 64, 127
1, 67822, Note_on_c, 0, 79, 64
1, 67880, Note_on_c, 0, 34, 0
1, 67920, Note_on_c, 0, 82, 68
1, 67932, Note_on_c, 0, 79, 0
1, 67980, Note_on_c, 0, 46, 0
1, 67985, Note_on_c, 0, 82, 0
1, 68042, Note_on_c, 0, 58, 48
1, 68045, Note_on_c, 0, 62, 47
1, 68047, Note_on_c, 0, 82, 76
1, 68065, Note_on_c, 0, 56, 45
1, 68127, Note_on_c, 0, 58, 0
1, 68130, Note_on_c, 0, 62, 0
1, 68167, Note_on_c, 0, 77, 75
1, 68232, Note_on_c, 0, 56, 0
1, 68237, Note_on_c, 0, 77, 0
1, 68240, Note_on_c, 0, 82, 0
1, 68290, Note_on_c, 0, 77, 70
1, 68302, Control_c, 0, 64, 0
1, 68397, Note_on_c, 0, 82, 74
1, 68407, Note_on_c, 0, 77, 0
1, 68505, Note_on_c, 0, 82, 0
1, 68515, Note_on_c, 0, 51, 55
1, 68515, Note_on_c, 0, 39, 63
1, 68517, Note_on_c, 0, 75, 75
1, 68605, Control_c, 0, 64, 127
1, 68610, Note_on_c, 0, 87, 80
1, 68630, Note_on_c, 0, 75, 0
1, 68675, Note_on_c, 0, 87, 0
1, 68695, Note_on_c, 0, 39, 0
1, 68720, Note_on_c, 0, 51, 0
1, 68735, Note_on_c, 0, 87, 81
1, 68805, Note_on_c, 0, 99, 85
1, 68865, Note_on_c, 0, 99, 0
1, 68892, Note_on_c, 0, 87, 0
1, 68927, Note_on_c, 0, 99, 85
1, 68947, Note_on_c, 0, 63, 41
1, 68985, Note_on_c, 0, 99, 0
1, 69057, Note_on_c, 0, 63, 0
1, 69077, Control_c, 0, 64, 0
1, 69205, Note_on_c, 0, 49, 46
1, 69260, Note_on_c, 0, 65, 64
1, 69352, Control_c, 0, 64, 127
1, 69380, Note_on_c, 0, 77, 73
1, 69417, Note_on_c, 0, 65, 0
1, 69445, Note_on_c, 0, 77, 0
1, 69502, Note_on_c, 0, 77, 74
1, 69572, Note_on_c, 0, 89, 82
1, 69590, Note_on_c, 0, 77, 0
1, 69607, Note_on_c, 0, 49, 0
1, 69637, Note_on_c, 0, 89, 0
1, 69715, Note_on_c, 0, 44, 64
1, 69717, Note_on_c, 0, 49, 65
1, 69717, Note_on_c, 0, 37, 68
1, 69720, Note_on_c, 0, 85, 87
1, 69720, Note_on_c, 0, 77, 80
1, 69720, Note_on_c, 0, 89, 84
1, 70287, Note_on_c, 0, 89, 0
1, 70310, Note_on_c, 0, 77, 0
1, 70335, Note_on_c, 0, 85, 0
1, 70455, Note_on_c, 0, 44, 0
1, 70482, Control_c, 0, 67, 127
1, 70522, Note_on_c, 0, 37, 0
1, 70570, Note_on_c, 0, 49, 0
1, 70597, Control_c, 0, 64, 0
1, 70800, Note_on_c, 0, 61, 44
1, 70820, Note_on_c, 0, 56, 50
1, 70825, Note_on_c, 0, 53, 50
1, 70932, Note_on_c, 0, 56, 0
1, 71032, Note_on_c, 0, 61, 0
1, 71040, Note_on_c, 0, 63, 50
1, 71060, Note_on_c, 0, 56, 49
1, 71067, Note_on_c, 0, 51, 50
1, 71075, Note_on_c, 0, 53, 0
1, 71150, Note_on_c, 0, 56, 0
1, 71280, Note_on_c, 0, 61, 54
1, 71280, Note_on_c, 0, 65, 54
1, 71295, Note_on_c, 0, 63, 0
1, 71295, Note_on_c, 0, 51, 0
1, 71302, Note_on_c, 0, 56, 51
1, 71305, Note_on_c, 0, 49, 52
1, 71322, Control_c, 0, 64, 127
1, 71365, Note_on_c, 0, 61, 0
1, 71385, Note_on_c, 0, 56, 0
1, 71432, Control_c, 0, 64, 0
1, 71537, Note_on_c, 0, 56, 47
1, 71540, Note_on_c, 0, 61, 49
1, 71542, Note_on_c, 0, 53, 50
1, 71627, Note_on_c, 0, 56, 0
1, 71630, Note_on_c, 0, 65, 0
1, 71662, Note_on_c, 0, 49, 0
1, 71702, Note_on_c, 0, 61, 0
1, 71707, Note_on_c, 0, 56, 57
1, 71715, Note_on_c, 0, 51, 58
1, 71727, Note_on_c, 0, 53, 0
1, 71737, Note_on_c, 0, 63, 60
1, 71797, Note_on_c, 0, 56, 0
1, 71847, Note_on_c, 0, 51, 0
1, 71857, Note_on_c, 0, 55, 60
1, 71877, Note_on_c, 0, 63, 0
1, 71902, Control_c, 0, 64, 127
1, 71932, Note_on_c, 0, 61, 61
1, 71977, Note_on_c, 0, 65, 41
1, 71982, Note_on_c, 0, 39, 63
1, 72015, Note_on_c, 0, 55, 0
1, 72042, Note_on_c, 0, 61, 0
1, 72087, Note_on_c, 0, 65, 0
1, 72192, Note_on_c, 0, 65, 44
1, 72195, Note_on_c, 0, 61, 59
1, 72267, Note_on_c, 0, 72, 49
1, 72282, Note_on_c, 0, 61, 0
1, 72282, Note_on_c, 0, 65, 0
1, 72330, Note_on_c, 0, 72, 0
1, 72480, Note_on_c, 0, 51, 50
1, 72492, Note_on_c, 0, 39, 0
1, 72527, Note_on_c, 0, 67, 44
1, 72530, Note_on_c, 0, 61, 46
1, 72565, Control_c, 0, 64, 0
1, 72640, Note_on_c, 0, 61, 0
1, 72647, Note_on_c, 0, 70, 53
1, 72660, Note_on_c, 0, 67, 0
1, 72670, Note_on_c, 0, 44, 60
1, 72750, Note_on_c, 0, 60, 53
1, 72762, Note_on_c, 0, 70, 0
1, 72812, Note_on_c, 0, 60, 0
1, 72817, Note_on_c, 0, 63, 47
1, 72832, Note_on_c, 0, 44, 0
1, 72867, Note_on_c, 0, 60, 44
1, 72882, Note_on_c, 0, 63, 0
1, 72942, Note_on_c, 0, 63, 45
1, 72957, Note_on_c, 0, 51, 0
1, 73017, Note_on_c, 0, 75, 55
1, 73025, Note_on_c, 0, 63, 0
1, 73077, Note_on_c, 0, 75, 0
1, 73102, Control_c, 0, 64, 127
1, 73132, Note_on_c, 0, 51, 57
1, 73135, Note_on_c, 0, 75, 62
1, 73135, Note_on_c, 0, 63, 58
1, 73147, Note_on_c, 0, 60, 0
1, 73195, Control_c, 0, 67, 0
1, 73197, Note_on_c, 0, 75, 0
1, 73240, Note_on_c, 0, 51, 0
1, 73242, Note_on_c, 0, 63, 0
1, 73425, Note_on_c, 0, 39, 65
1, 73682, Note_on_c, 0, 67, 36
1, 73685, Note_on_c, 0, 59, 49
1, 73707, Note_on_c, 0, 51, 49
1, 73710, Note_on_c, 0, 63, 49
1, 73725, Note_on_c, 0, 39, 0
1, 73985, Note_on_c, 0, 59, 0
1, 73987, Note_on_c, 0, 63, 0
1, 74020, Note_on_c, 0, 65, 65
1, 74035, Control_c, 0, 64, 0
1, 74087, Note_on_c, 0, 44, 68
1, 74155, Note_on_c, 0, 67, 0
1, 74167, Note_on_c, 0, 60, 60
1, 74230, Note_on_c, 0, 60, 0
1, 74230, Note_on_c, 0, 65, 0
1, 74260, Note_on_c, 0, 63, 55
1, 74282, Control_c, 0, 64, 127
1, 74312, Note_on_c, 0, 60, 53
1, 74322, Note_on_c, 0, 44, 0
1, 74325, Note_on_c, 0, 63, 0
1, 74387, Note_on_c, 0, 63, 52
1, 74427, Note_on_c, 0, 51, 0
1, 74460, Note_on_c, 0, 75, 64
1, 74522, Note_on_c, 0, 75, 0
1, 74557, Note_on_c, 0, 51, 62
1, 74577, Note_on_c, 0, 63, 0
1, 74585, Note_on_c, 0, 75, 73
1, 74637, Note_on_c, 0, 60, 0
1, 74667, Note_on_c, 0, 51, 0
1, 74670, Note_on_c, 0, 75, 0
1, 74850, Note_on_c, 0, 32, 63
1, 74852, Note_on_c, 0, 44, 63
1, 74967, Note_on_c, 0, 44, 0
1, 74995, Note_on_c, 0, 32, 0
1, 75000, Note_on_c, 0, 64, 57
1, 75025, Note_on_c, 0, 60, 54
1, 75075, Note_on_c, 0, 68, 51
1, 75210, Control_c, 0, 64, 0
1, 75215, Note_on_c, 0, 60, 0
1, 75237, Note_on_c, 0, 64, 0
1, 75340, Note_on_c, 0, 68, 0
1, 75365, Note_on_c, 0, 67, 55
1, 75492, Note_on_c, 0, 25, 64
1, 75505, Note_on_c, 0, 67, 0
1, 75515, Control_c, 0, 64, 127
1, 75540, Note_on_c, 0, 65, 64
1, 75565, Note_on_c, 0, 37, 66
1, 75627, Note_on_c, 0, 65, 0
1, 75627, Note_on_c, 0, 25, 0
1, 75645, Note_on_c, 0, 77, 74
1, 75655, Note_on_c, 0, 37, 0
1, 75707, Note_on_c, 0, 77, 0
1, 75787, Note_on_c, 0, 77, 72
1, 75877, Note_on_c, 0, 77, 0
1, 75887, Note_on_c, 0, 89, 87
1, 75950, Note_on_c, 0, 89, 0
1, 76005, Note_on_c, 0, 56, 83
1, 76010, Note_on_c, 0, 61, 83
1, 76012, Note_on_c, 0, 53, 83
1, 76030, Note_on_c, 0, 89, 87
1, 76030, Note_on_c, 0, 65, 73
1, 76032, Note_on_c, 0, 85, 88
1, 76032, Note_on_c, 0, 77, 82
1, 76092, Note_on_c, 0, 56, 0
1, 76095, Note_on_c, 0, 53, 0
1, 76505, Note_on_c, 0, 89, 0
1, 76527, Note_on_c, 0, 65, 0
1, 76555, Note_on_c, 0, 85, 0
1, 76557, Note_on_c, 0, 77, 0
1, 76605, Note_on_c, 0, 61, 0
1, 76847, Control_c, 0, 64, 0
1, 77100, Note_on_c, 0, 53, 49
1, 77100, Note_on_c, 0, 61, 35
1, 77170, Control_c, 0, 64, 127
1, 77335, Note_on_c, 0, 61, 0
1, 77427, Control_c, 0, 64, 0
1, 77460, Note_on_c, 0, 61, 53
1, 77460, Note_on_c, 0, 54, 53
1, 77462, Note_on_c, 0, 63, 53
1, 77472, Note_on_c, 0, 53, 0
1, 77617, Note_on_c, 0, 61, 0
1, 77692, Note_on_c, 0, 63, 0
1, 77717, Note_on_c, 0, 54, 0
1, 77722, Note_on_c, 0, 65, 63
1, 77722, Note_on_c, 0, 56, 63
1, 77747, Note_on_c, 0, 61, 64
1, 77770, Control_c, 0, 64, 127
1, 77857, Note_on_c, 0, 61, 0
1, 77882, Control_c, 0, 64, 0
1, 77907, Note_on_c, 0, 65, 0
1, 77935, Note_on_c, 0, 57, 66
1, 77940, Note_on_c, 0, 66, 64
1, 77940, Note_on_c, 0, 61, 62
1, 77955, Note_on_c, 0, 56, 0
1, 78102, Note_on_c, 0, 61, 0
1, 78125, Note_on_c, 0, 66, 0
1, 78180, Note_on_c, 0, 61, 62
1, 78180, Note_on_c, 0, 58, 63
1, 78180, Note_on_c, 0, 67, 66
1, 78192, Note_on_c, 0, 57, 0
1, 78295, Note_on_c, 0, 67, 0
1, 78295, Note_on_c, 0, 58, 0
1, 78297, Note_on_c, 0, 61, 0
1, 78317, Control_c, 0, 67, 127
1, 78425, Note_on_c, 0, 59, 54
1, 78517, Note_on_c, 0, 62, 47
1, 78520, Note_on_c, 0, 68, 54
1, 78657, Note_on_c, 0, 68, 0
1, 78680, Note_on_c, 0, 62, 0
1, 78702, Note_on_c, 0, 59, 0
1, 78712, Note_on_c, 0, 73, 62
1, 78732, Note_on_c, 0, 64, 59
1, 78785, Control_c, 0, 64, 127
1, 78847, Note_on_c, 0, 73, 0
1, 78892, Note_on_c, 0, 64, 0
1, 78975, Note_on_c, 0, 52, 43
1, 79002, Note_on_c, 0, 71, 48
1, 79062, Note_on_c, 0, 71, 0
1, 79082, Note_on_c, 0, 52, 0
1, 79085, Control_c, 0, 64, 0
1, 79192, Note_on_c, 0, 45, 61
1, 79260, Note_on_c, 0, 61, 55
1, 79332, Control_c, 0, 64, 127
1, 79355, Note_on_c, 0, 64, 57
1, 79372, Note_on_c, 0, 61, 0
1, 79375, Note_on_c, 0, 45, 0
1, 79417, Note_on_c, 0, 64, 0
1, 79450, Note_on_c, 0, 61, 43
1, 79472, Note_on_c, 0, 64, 53
1, 79567, Note_on_c, 0, 76, 61
1, 79607, Note_on_c, 0, 64, 0
1, 79610, Note_on_c, 0, 61, 0
1, 79635, Note_on_c, 0, 76, 0
1, 79640, Note_on_c, 0, 52, 38
1, 79715, Note_on_c, 0, 76, 53
1, 79752, Note_on_c, 0, 52, 0
1, 79777, Note_on_c, 0, 76, 0
1, 79952, Note_on_c, 0, 40, 48
1, 80040, Note_on_c, 0, 40, 0
1, 80145, Note_on_c, 0, 68, 59
1, 80147, Note_on_c, 0, 73, 63
1, 80147, Note_on_c, 0, 62, 58
1, 80172, Note_on_c, 0, 53, 59
1, 80330, Note_on_c, 0, 73, 0
1, 80375, Note_on_c, 0, 53, 0
1, 80380, Note_on_c, 0, 68, 0
1, 80412, Note_on_c, 0, 52, 41
1, 80427, Note_on_c, 0, 62, 0
1, 80462, Control_c, 0, 64, 0
1, 80507, Note_on_c, 0, 71, 57
1, 80557, Note_on_c, 0, 45, 57
1, 80570, Note_on_c, 0, 71, 0
1, 80570, Note_on_c, 0, 52, 0
1, 80630, Note_on_c, 0, 61, 52
1, 80725, Control_c, 0, 64, 127
1, 80747, Note_on_c, 0, 64, 57
1, 80787, Note_on_c, 0, 61, 0
1, 80790, Note_on_c, 0, 45, 0
1, 80812, Note_on_c, 0, 64, 0
1, 80890, Note_on_c, 0, 64, 54
1, 80892, Note_on_c, 0, 61, 41
1, 80967, Note_on_c, 0, 76, 63
1, 81005, Note_on_c, 0, 64, 0
1, 81032, Note_on_c, 0, 76, 0
1, 81037, Note_on_c, 0, 52, 41
1, 81052, Note_on_c, 0, 61, 0
1, 81085, Note_on_c, 0, 76, 53
1, 81105, Control_c, 0, 64, 0
1, 81117, Control_c, 0, 67, 0
1, 81147, Note_on_c, 0, 52, 0
1, 81175, Note_on_c, 0, 76, 0
1, 81322, Note_on_c, 0, 49, 44
1, 81352, Note_on_c, 0, 37, 58
1, 81397, Control_c, 0, 64, 127
1, 81480, Note_on_c, 0, 37, 0
1, 81480, Note_on_c, 0, 49, 0
1, 81537, Note_on_c, 0, 69, 59
1, 81537, Note_on_c, 0, 64, 60
1, 81540, Note_on_c, 0, 52, 54
1, 81600, Note_on_c, 0, 52, 0
1, 81742, Note_on_c, 0, 64, 0
1, 81787, Note_on_c, 0, 69, 0
1, 81817, Control_c, 0, 64, 0
1, 81825, Note_on_c, 0, 68, 62
1, 81957, Note_on_c, 0, 68, 0
1, 81992, Note_on_c, 0, 34, 51
1, 82035, Note_on_c, 0, 67, 54
1, 82040, Note_on_c, 0, 46, 54
1, 82110, Control_c, 0, 64, 127
1, 82147, Note_on_c, 0, 34, 0
1, 82157, Note_on_c, 0, 73, 66
1, 82170, Note_on_c, 0, 67, 0
1, 82172, Note_on_c, 0, 46, 0
1, 82252, Note_on_c, 0, 73, 0
1, 82305, Note_on_c, 0, 63, 49
1, 82307, Note_on_c, 0, 75, 67
1, 82380, Note_on_c, 0, 87, 77
1, 82392, Note_on_c, 0, 75, 0
1, 82442, Note_on_c, 0, 87, 0
1, 82452, Note_on_c, 0, 51, 50
1, 82492, Note_on_c, 0, 63, 0
1, 82497, Note_on_c, 0, 87, 78
1, 82500, Note_on_c, 0, 75, 72
1, 82560, Note_on_c, 0, 51, 0
1, 82585, Note_on_c, 0, 87, 0
1, 82615, Note_on_c, 0, 75, 0
1, 82740, Note_on_c, 0, 49, 49
1, 82772, Note_on_c, 0, 37, 60
1, 82857, Note_on_c, 0, 37, 0
1, 82872, Note_on_c, 0, 49, 0
1, 82940, Note_on_c, 0, 72, 65
1, 82962, Note_on_c, 0, 67, 66
1, 82985, Note_on_c, 0, 63, 60
1, 83097, Note_on_c, 0, 67, 0
1, 83110, Note_on_c, 0, 51, 58
1, 83150, Note_on_c, 0, 63, 0
1, 83197, Note_on_c, 0, 51, 0
1, 83222, Note_on_c, 0, 70, 63
1, 83267, Control_c, 0, 64, 0
1, 83342, Note_on_c, 0, 72, 0
1, 83375, Note_on_c, 0, 36, 62
1, 83447, Note_on_c, 0, 48, 53
1, 83465, Note_on_c, 0, 67, 59
1, 83467, Note_on_c, 0, 63, 53
1, 83480, Note_on_c, 0, 70, 0
1, 83565, Control_c, 0, 64, 127
1, 83577, Note_on_c, 0, 63, 0
1, 83625, Note_on_c, 0, 36, 0
1, 83627, Note_on_c, 0, 48, 0
1, 83647, Note_on_c, 0, 67, 0
1, 83687, Note_on_c, 0, 63, 53
1, 83707, Note_on_c, 0, 68, 57
1, 83855, Note_on_c, 0, 51, 51
1, 83867, Note_on_c, 0, 63, 0
1, 83870, Note_on_c, 0, 68, 0
1, 83922, Note_on_c, 0, 72, 45
1, 83940, Note_on_c, 0, 51, 0
1, 83945, Control_c, 0, 64, 0
1, 84050, Note_on_c, 0, 33, 49
1, 84085, Note_on_c, 0, 72, 0
1, 84142, Note_on_c, 0, 45, 58
1, 84162, Note_on_c, 0, 67, 49
1, 84165, Note_on_c, 0, 72, 51
1, 84167, Note_on_c, 0, 75, 57
1, 84245, Control_c, 0, 64, 127
1, 84255, Note_on_c, 0, 67, 0
1, 84285, Note_on_c, 0, 33, 0
1, 84305, Note_on_c, 0, 45, 0
1, 84410, Note_on_c, 0, 63, 52
1, 84422, Note_on_c, 0, 75, 0
1, 84432, Note_on_c, 0, 79, 64
1, 84530, Note_on_c, 0, 51, 52
1, 84540, Note_on_c, 0, 63, 0
1, 84615, Note_on_c, 0, 51, 0
1, 84640, Note_on_c, 0, 79, 0
1, 84662, Note_on_c, 0, 72, 0
1, 84670, Note_on_c, 0, 77, 62
1, 84735, Control_c, 0, 64, 0
1, 84757, Note_on_c, 0, 77, 0
1, 84775, Note_on_c, 0, 34, 48
1, 84887, Note_on_c, 0, 46, 50
1, 84915, Note_on_c, 0, 72, 52
1, 84937, Note_on_c, 0, 67, 52
1, 85040, Control_c, 0, 64, 127
1, 85060, Note_on_c, 0, 73, 59
1, 85075, Note_on_c, 0, 67, 0
1, 85077, Note_on_c, 0, 72, 0
1, 85102, Note_on_c, 0, 46, 0
1, 85107, Note_on_c, 0, 34, 0
1, 85167, Note_on_c, 0, 63, 50
1, 85210, Note_on_c, 0, 73, 0
1, 85212, Note_on_c, 0, 75, 64
1, 85310, Note_on_c, 0, 87, 64
1, 85325, Note_on_c, 0, 75, 0
1, 85335, Note_on_c, 0, 51, 49
1, 85372, Note_on_c, 0, 87, 0
1, 85420, Note_on_c, 0, 63, 0
1, 85425, Note_on_c, 0, 87, 63
1, 85425, Note_on_c, 0, 75, 60
1, 85467, Note_on_c, 0, 51, 0
1, 85510, Note_on_c, 0, 87, 0
1, 85562, Note_on_c, 0, 75, 0
1, 85640, Note_on_c, 0, 49, 47
1, 85645, Note_on_c, 0, 37, 57
1, 85732, Note_on_c, 0, 37, 0
1, 85750, Note_on_c, 0, 49, 0
1, 85852, Note_on_c, 0, 67, 52
1, 85855, Note_on_c, 0, 63, 46
1, 85857, Note_on_c, 0, 72, 58
1, 85962, Note_on_c, 0, 67, 0
1, 85982, Note_on_c, 0, 63, 0
1, 86070, Note_on_c, 0, 51, 49
1, 86090, Note_on_c, 0, 70, 62
1, 86105, Note_on_c, 0, 72, 0
1, 86112, Control_c, 0, 64, 0
1, 86157, Note_on_c, 0, 51, 0
1, 86267, Note_on_c, 0, 36, 61
1, 86315, Note_on_c, 0, 48, 50
1, 86327, Note_on_c, 0, 67, 61
1, 86332, Note_on_c, 0, 63, 49
1, 86345, Note_on_c, 0, 70, 0
1, 86410, Control_c, 0, 64, 127
1, 86470, Note_on_c, 0, 36, 0
1, 86495, Note_on_c, 0, 48, 0
1, 86525, Note_on_c, 0, 67, 0
1, 86545, Note_on_c, 0, 56, 43
1, 86547, Note_on_c, 0, 68, 54
1, 86562, Note_on_c, 0, 63, 0
1, 86730, Note_on_c, 0, 68, 0
1, 86765, Note_on_c, 0, 60, 60
1, 86777, Note_on_c, 0, 56, 0
1, 86787, Note_on_c, 0, 72, 63
1, 86950, Control_c, 0, 64, 0
1, 86992, Note_on_c, 0, 72, 0
1, 86997, Note_on_c, 0, 60, 0
1, 87022, Note_on_c, 0, 63, 51
1, 87025, Note_on_c, 0, 75, 64
1, 87220, Control_c, 0, 64, 127
1, 87252, Note_on_c, 0, 75, 0
1, 87257, Note_on_c, 0, 80, 49
1, 87260, Note_on_c, 0, 68, 44
1, 87277, Note_on_c, 0, 63, 0
1, 87487, Note_on_c, 0, 80, 0
1, 87490, Note_on_c, 0, 68, 0
1, 87567, Note_on_c, 0, 79, 57
1, 87567, Note_on_c, 0, 67, 53
1, 87637, Control_c, 0, 64, 0
1, 87775, Note_on_c, 0, 79, 0
1, 87785, Note_on_c, 0, 67, 0
1, 87855, Note_on_c, 0, 66, 63
1, 87857, Note_on_c, 0, 63, 65
1, 87882, Note_on_c, 0, 71, 67
1, 87885, Note_on_c, 0, 78, 73
1, 87885, Note_on_c, 0, 75, 73
1, 87910, Control_c, 0, 64, 127
1, 88015, Note_on_c, 0, 66, 0
1, 88017, Note_on_c, 0, 63, 0
1, 88137, Note_on_c, 0, 75, 0
1, 88147, Note_on_c, 0, 42, 62
1, 88150, Note_on_c, 0, 30, 60
1, 88210, Note_on_c, 0, 78, 0
1, 88260, Note_on_c, 0, 71, 0
1, 88260, Note_on_c, 0, 30, 0
1, 88282, Note_on_c, 0, 42, 0
1, 88310, Note_on_c, 0, 73, 64
1, 88382, Note_on_c, 0, 71, 62
1, 88442, Note_on_c, 0, 73, 0
1, 88512, Note_on_c, 0, 71, 0
1, 88620, Note_on_c, 0, 73, 50
1, 88620, Note_on_c, 0, 70, 47
1, 88620, Note_on_c, 0, 64, 49
1, 88780, Note_on_c, 0, 64, 0
1, 88780, Note_on_c, 0, 70, 0
1, 88807, Note_on_c, 0, 73, 0
1, 88835, Note_on_c, 0, 67, 52
1, 88860, Note_on_c, 0, 76, 59
1, 88860, Note_on_c, 0, 70, 54
1, 88922, Note_on_c, 0, 70, 0
1, 88922, Note_on_c, 0, 67, 0
1, 88995, Note_on_c, 0, 76, 0
1, 89050, Note_on_c, 0, 66, 57
1, 89052, Note_on_c, 0, 75, 62
1, 89052, Note_on_c, 0, 70, 61
1, 89122, Control_c, 0, 64, 0
1, 89160, Note_on_c, 0, 66, 0
1, 89187, Note_on_c, 0, 70, 0
1, 89257, Note_on_c, 0, 75, 0
1, 89315, Note_on_c, 0, 71, 67
1, 89315, Note_on_c, 0, 63, 63
1, 89317, Note_on_c, 0, 78, 74
1, 89320, Note_on_c, 0, 59, 65
1, 89417, Control_c, 0, 64, 127
1, 89502, Note_on_c, 0, 78, 0
1, 89667, Note_on_c, 0, 71, 0
1, 89692, Note_on_c, 0, 63, 0
1, 89697, Note_on_c, 0, 59, 0
1, 89722, Note_on_c, 0, 73, 66
1, 89722, Note_on_c, 0, 64, 59
1, 89767, Note_on_c, 0, 63, 55
1, 89777, Note_on_c, 0, 59, 58
1, 89800, Note_on_c, 0, 71, 61
1, 89915, Note_on_c, 0, 64, 0
1, 89915, Note_on_c, 0, 73, 0
1, 89937, Note_on_c, 0, 59, 0
1, 89957, Note_on_c, 0, 71, 0
1, 90007, Note_on_c, 0, 63, 0
1, 90020, Note_on_c, 0, 59, 64
1, 90042, Note_on_c, 0, 71, 62
1, 90042, Note_on_c, 0, 64, 62
1, 90045, Note_on_c, 0, 73, 66
1, 90130, Note_on_c, 0, 59, 0
1, 90180, Note_on_c, 0, 71, 0
1, 90180, Note_on_c, 0, 64, 0
1, 90202, Note_on_c, 0, 73, 0
1, 90220, Note_on_c, 0, 59, 54
1, 90240, Note_on_c, 0, 67, 52
1, 90285, Note_on_c, 0, 76, 55
1, 90285, Note_on_c, 0, 71, 52
1, 90322, Note_on_c, 0, 67, 0
1, 90375, Note_on_c, 0, 59, 0
1, 90422, Note_on_c, 0, 71, 0
1, 90502, Note_on_c, 0, 66, 54
1, 90505, Note_on_c, 0, 71, 59
1, 90507, Note_on_c, 0, 75, 64
1, 90512, Note_on_c, 0, 59, 59
1, 90545, Note_on_c, 0, 76, 0
1, 90567, Note_on_c, 0, 66, 0
1, 90572, Note_on_c, 0, 59, 0
1, 90575, Control_c, 0, 64, 0
1, 90597, Note_on_c, 0, 71, 0
1, 90645, Note_on_c, 0, 75, 0
1, 90680, Note_on_c, 0, 28, 75
1, 90772, Note_on_c, 0, 83, 72
1, 90775, Note_on_c, 0, 80, 67
1, 90775, Note_on_c, 0, 76, 68
1, 90777, Note_on_c, 0, 40, 79
1, 90872, Control_c, 0, 64, 127
1, 90927, Note_on_c, 0, 83, 0
1, 90935, Note_on_c, 0, 28, 0
1, 90957, Note_on_c, 0, 80, 0
1, 90960, Note_on_c, 0, 76, 0
1, 90960, Note_on_c, 0, 40, 0
1, 91177, Note_on_c, 0, 66, 58
1, 91177, Note_on_c, 0, 57, 61
1, 91222, Note_on_c, 0, 56, 58
1, 91225, Note_on_c, 0, 52, 58
1, 91250, Note_on_c, 0, 64, 53
1, 91260, Note_on_c, 0, 66, 0
1, 91290, Note_on_c, 0, 57, 0
1, 91362, Note_on_c, 0, 56, 0
1, 91365, Note_on_c, 0, 64, 0
1, 91385, Note_on_c, 0, 52, 0
1, 91470, Note_on_c, 0, 57, 55
1, 91472, Note_on_c, 0, 52, 52
1, 91495, Note_on_c, 0, 66, 52
1, 91497, Note_on_c, 0, 64, 51
1, 91580, Note_on_c, 0, 66, 0
1, 91582, Note_on_c, 0, 52, 0
1, 91602, Note_on_c, 0, 57, 0
1, 91605, Note_on_c, 0, 64, 0
1, 91710, Control_c, 0, 64, 0
1, 91712, Note_on_c, 0, 52, 46
1, 91732, Note_on_c, 0, 69, 45
1, 91732, Note_on_c, 0, 64, 44
1, 91737, Note_on_c, 0, 60, 47
1, 91800, Note_on_c, 0, 60, 0
1, 91820, Note_on_c, 0, 64, 0
1, 91837, Control_c, 0, 64, 127
1, 91845, Note_on_c, 0, 52, 0
1, 91875, Control_c, 0, 64, 0
1, 91945, Note_on_c, 0, 64, 46
1, 91945, Note_on_c, 0, 59, 53
1, 91947, Note_on_c, 0, 68, 45
1, 91947, Note_on_c, 0, 52, 53
1, 92002, Control_c, 0, 64, 127
1, 92010, Note_on_c, 0, 69, 0
1, 92040, Control_c, 0, 64, 0
1, 92060, Note_on_c, 0, 64, 0
1, 92087, Note_on_c, 0, 59, 0
1, 92107, Note_on_c, 0, 52, 0
1, 92155, Note_on_c, 0, 68, 0
1, 92182, Note_on_c, 0, 64, 45
1, 92215, Note_on_c, 0, 56, 46
1, 92217, Note_on_c, 0, 52, 45
1, 92262, Control_c, 0, 64, 127
1, 92365, Note_on_c, 0, 64, 0
1, 92417, Note_on_c, 0, 52, 0
1, 92437, Note_on_c, 0, 56, 0
1, 92490, Note_on_c, 0, 66, 54
1, 92492, Note_on_c, 0, 64, 57
1, 92492, Note_on_c, 0, 57, 48
1, 92492, Control_c, 0, 64, 0
1, 92520, Note_on_c, 0, 52, 49
1, 92557, Note_on_c, 0, 66, 0
1, 92622, Control_c, 0, 64, 127
1, 92655, Note_on_c, 0, 64, 0
1, 92657, Note_on_c, 0, 52, 0
1, 92662, Control_c, 0, 64, 0
1, 92700, Note_on_c, 0, 57, 0
1, 92762, Note_on_c, 0, 64, 53
1, 92765, Note_on_c, 0, 68, 57
1, 92767, Note_on_c, 0, 59, 46
1, 92767, Note_on_c, 0, 52, 47
1, 92795, Control_c, 0, 64, 127
1, 92832, Control_c, 0, 64, 0
1, 92895, Note_on_c, 0, 64, 0
1, 92922, Note_on_c, 0, 59, 0
1, 92947, Note_on_c, 0, 52, 0
1, 92970, Note_on_c, 0, 68, 0
1, 93020, Note_on_c, 0, 64, 57
1, 93022, Note_on_c, 0, 69, 61
1, 93022, Note_on_c, 0, 66, 59
1, 93025, Note_on_c, 0, 52, 49
1, 93027, Note_on_c, 0, 60, 51
1, 93027, Control_c, 0, 64, 127
1, 93112, Note_on_c, 0, 66, 0
1, 93140, Note_on_c, 0, 60, 0
1, 93162, Note_on_c, 0, 64, 0
1, 93165, Note_on_c, 0, 52, 0
1, 93167, Control_c, 0, 64, 0
1, 93210, Note_on_c, 0, 69, 0
1, 93267, Note_on_c, 0, 61, 53
1, 93290, Note_on_c, 0, 70, 59
1, 93290, Note_on_c, 0, 67, 57
1, 93292, Note_on_c, 0, 64, 59
1, 93295, Note_on_c, 0, 52, 53
1, 93297, Control_c, 0, 64, 127
1, 93400, Note_on_c, 0, 67, 0
1, 93407, Control_c, 0, 64, 0
1, 93420, Note_on_c, 0, 64, 0
1, 93447, Note_on_c, 0, 52, 0
1, 93472, Note_on_c, 0, 61, 0
1, 93492, Note_on_c, 0, 70, 0
1, 93552, Control_c, 0, 64, 127
1, 93572, Note_on_c, 0, 71, 64
1, 93572, Note_on_c, 0, 68, 62
1, 93572, Note_on_c, 0, 64, 62
1, 93572, Note_on_c, 0, 62, 58
1, 93575, Note_on_c, 0, 52, 59
1, 93667, Control_c, 0, 64, 0
1, 93687, Note_on_c, 0, 62, 0
1, 93735, Note_on_c, 0, 68, 0
1, 93767, Note_on_c, 0, 51, 62
1, 93780, Note_on_c, 0, 71, 0
1, 93780, Note_on_c, 0, 64, 0
1, 93807, Note_on_c, 0, 52, 0
1, 93815, Note_on_c, 0, 56, 63
1, 93840, Note_on_c, 0, 63, 64
1, 93842, Note_on_c, 0, 60, 65
1, 93865, Note_on_c, 0, 72, 64
1, 93865, Note_on_c, 0, 68, 62
1, 93890, Control_c, 0, 64, 127
1, 93947, Note_on_c, 0, 68, 0
1, 93965, Note_on_c, 0, 56, 0
1, 93967, Note_on_c, 0, 72, 0
1, 93967, Note_on_c, 0, 63, 0
1, 93970, Note_on_c, 0, 51, 0
1, 93970, Note_on_c, 0, 60, 0
1, 94095, Note_on_c, 0, 87, 71
1, 94122, Note_on_c, 0, 75, 62
1, 94122, Note_on_c, 0, 51, 62
1, 94127, Note_on_c, 0, 39, 65
1, 94155, Note_on_c, 0, 87, 0
1, 94185, Note_on_c, 0, 75, 0
1, 94212, Note_on_c, 0, 39, 0
1, 94235, Note_on_c, 0, 51, 0
1, 94515, Control_c, 0, 64, 0
1, 94617, Note_on_c, 0, 65, 76
1, 94617, Note_on_c, 0, 56, 63
1, 94620, Note_on_c, 0, 60, 69
1, 94620, Note_on_c, 0, 53, 68
1, 94620, Note_on_c, 0, 77, 82
1, 94620, Note_on_c, 0, 72, 77
1, 94620, Note_on_c, 0, 51, 67
1, 94717, Control_c, 0, 64, 127
1, 94775, Note_on_c, 0, 77, 0
1, 94775, Note_on_c, 0, 56, 0
1, 94777, Note_on_c, 0, 65, 0
1, 94777, Note_on_c, 0, 53, 0
1, 94777, Note_on_c, 0, 72, 0
1, 94780, Note_on_c, 0, 51, 0
1, 94780, Note_on_c, 0, 60, 0
1, 94915, Note_on_c, 0, 89, 79
1, 94932, Note_on_c, 0, 51, 75
1, 94955, Note_on_c, 0, 77, 64
1, 94962, Note_on_c, 0, 39, 88
1, 95010, Note_on_c, 0, 89, 0
1, 95037, Note_on_c, 0, 77, 0
1, 95040, Note_on_c, 0, 39, 0
1, 95060, Note_on_c, 0, 51, 0
1, 95280, Control_c, 0, 64, 0
1, 95337, Note_on_c, 0, 53, 60
1, 95352, Note_on_c, 0, 56, 62
1, 95430, Note_on_c, 0, 61, 61
1, 95452, Note_on_c, 0, 65, 73
1, 95475, Note_on_c, 0, 77, 82
1, 95477, Note_on_c, 0, 84, 77
1, 95477, Note_on_c, 0, 80, 83
1, 95480, Note_on_c, 0, 72, 70
1, 95575, Control_c, 0, 64, 127
1, 95637, Note_on_c, 0, 56, 0
1, 95660, Note_on_c, 0, 65, 0
1, 95660, Note_on_c, 0, 84, 0
1, 95662, Note_on_c, 0, 77, 0
1, 95665, Note_on_c, 0, 61, 0
1, 95665, Note_on_c, 0, 72, 0
1, 95665, Note_on_c, 0, 80, 0
1, 95687, Note_on_c, 0, 53, 0
1, 95902, Note_on_c, 0, 96, 82
1, 95905, Note_on_c, 0, 84, 77
1, 95937, Note_on_c, 0, 39, 79
1, 95937, Note_on_c, 0, 27, 80
1, 96015, Note_on_c, 0, 96, 0
1, 96040, Note_on_c, 0, 84, 0
1, 96087, Note_on_c, 0, 27, 0
1, 96135, Note_on_c, 0, 39, 0
1, 96402, Control_c, 0, 64, 0
1, 96497, Note_on_c, 0, 67, 77
1, 96500, Note_on_c, 0, 55, 70
1, 96502, Note_on_c, 0, 73, 79
1, 96502, Note_on_c, 0, 70, 74
1, 96505, Note_on_c, 0, 82, 79
1, 96505, Note_on_c, 0, 79, 78
1, 96527, Note_on_c, 0, 58, 70
1, 96550, Note_on_c, 0, 61, 69
1, 96647, Control_c, 0, 64, 127
1, 96707, Note_on_c, 0, 67, 0
1, 96710, Note_on_c, 0, 70, 0
1, 96710, Note_on_c, 0, 55, 0
1, 96712, Note_on_c, 0, 73, 0
1, 96712, Note_on_c, 0, 79, 0
1, 96712, Note_on_c, 0, 61, 0
1, 96712, Note_on_c, 0, 58, 0
1, 96715, Note_on_c, 0, 82, 0
1, 96960, Note_on_c, 0, 82, 83
1, 96980, Note_on_c, 0, 94, 88
1, 96985, Note_on_c, 0, 39, 89
1, 96987, Note_on_c, 0, 27, 89
1, 97095, Note_on_c, 0, 94, 0
1, 97170, Note_on_c, 0, 82, 0
1, 97217, Note_on_c, 0, 27, 0
1, 97267, Note_on_c, 0, 39, 0
1, 97340, Control_c, 0, 64, 0
1, 97585, Note_on_c, 0, 32, 88
1, 97660, Control_c, 0, 64, 127
1, 97680, Note_on_c, 0, 80, 88
1, 97680, Note_on_c, 0, 44, 100
1, 97682, Note_on_c, 0, 68, 79
1, 97772, Note_on_c, 0, 32, 0
1, 97792, Note_on_c, 0, 44, 0
1, 97795, Note_on_c, 0, 80, 0
1, 97797, Note_on_c, 0, 68, 0
1, 98117, Note_on_c, 0, 61, 72
1, 98120, Note_on_c, 0, 70, 59
1, 98195, Note_on_c, 0, 68, 62
1, 98195, Note_on_c, 0, 60, 60
1, 98257, Note_on_c, 0, 70, 0
1, 98257, Note_on_c, 0, 61, 0
1, 98330, Note_on_c, 0, 68, 0
1, 98330, Note_on_c, 0, 60, 0
1, 98427, Control_c, 0, 64, 0
1, 98432, Note_on_c, 0, 61, 65
1, 98435, Note_on_c, 0, 70, 69
1, 98457, Note_on_c, 0, 68, 66
1, 98572, Note_on_c, 0, 68, 0
1, 98592, Note_on_c, 0, 70, 0
1, 98595, Note_on_c, 0, 61, 0
1, 98647, Note_on_c, 0, 64, 65
1, 98650, Note_on_c, 0, 68, 65
1, 98680, Note_on_c, 0, 73, 67
1, 98815, Note_on_c, 0, 68, 0
1, 98857, Note_on_c, 0, 64, 0
1, 98862, Note_on_c, 0, 73, 0
1, 98897, Note_on_c, 0, 63, 59
1, 98900, Note_on_c, 0, 72, 60
1, 98900, Note_on_c, 0, 68, 59
1, 98922, Control_c, 0, 64, 127
1, 98987, Note_on_c, 0, 63, 0
1, 99007, Note_on_c, 0, 68, 0
1, 99007, Note_on_c, 0, 72, 0
1, 99160, Note_on_c, 0, 80, 80
1, 99160, Note_on_c, 0, 68, 63
1, 99180, Note_on_c, 0, 32, 85
1, 99182, Note_on_c, 0, 44, 86
1, 99247, Note_on_c, 0, 32, 0
1, 99247, Note_on_c, 0, 80, 0
1, 99272, Note_on_c, 0, 68, 0
1, 99295, Note_on_c, 0, 44, 0
1, 99540, Note_on_c, 0, 70, 65
1, 99540, Note_on_c, 0, 61, 67
1, 99590, Note_on_c, 0, 60, 64
1, 99612, Note_on_c, 0, 68, 66
1, 99650, Note_on_c, 0, 61, 0
1, 99672, Note_on_c, 0, 70, 0
1, 99697, Note_on_c, 0, 60, 0
1, 99720, Note_on_c, 0, 68, 0
1, 99825, Note_on_c, 0, 68, 61
1, 99825, Note_on_c, 0, 61, 64
1, 99827, Note_on_c, 0, 70, 61
1, 99900, Control_c, 0, 64, 0
1, 99952, Note_on_c, 0, 61, 0
1, 99955, Note_on_c, 0, 68, 0
1, 99975, Note_on_c, 0, 70, 0
1, 100030, Note_on_c, 0, 64, 52
1, 100032, Note_on_c, 0, 73, 55
1, 100035, Note_on_c, 0, 68, 49
1, 100117, Note_on_c, 0, 68, 0
1, 100215, Note_on_c, 0, 73, 0
1, 100217, Note_on_c, 0, 63, 36
1, 100237, Note_on_c, 0, 64, 0
1, 100245, Note_on_c, 0, 72, 47
1, 100245, Note_on_c, 0, 68, 45
1, 100262, Control_c, 0, 64, 127
1, 100305, Note_on_c, 0, 63, 0
1, 100327, Note_on_c, 0, 68, 0
1, 100352, Note_on_c, 0, 72, 0
1, 100430, Note_on_c, 0, 80, 63
1, 100450, Note_on_c, 0, 44, 59
1, 100452, Note_on_c, 0, 68, 61
1, 100457, Note_on_c, 0, 32, 60
1, 100585, Note_on_c, 0, 68, 0
1, 100625, Note_on_c, 0, 44, 0
1, 100627, Note_on_c, 0, 32, 0
1, 100630, Note_on_c, 0, 80, 0
1, 100665, Note_on_c, 0, 73, 60
1, 100665, Note_on_c, 0, 68, 57
1, 100685, Note_on_c, 0, 64, 53
1, 100750, Note_on_c, 0, 68, 0
1, 100855, Note_on_c, 0, 72, 46
1, 100855, Note_on_c, 0, 68, 48
1, 100875, Note_on_c, 0, 63, 47
1, 100962, Note_on_c, 0, 73, 0
1, 100980, Note_on_c, 0, 64, 0
1, 100982, Note_on_c, 0, 72, 0
1, 101010, Note_on_c, 0, 68, 0
1, 101085, Note_on_c, 0, 56, 51
1, 101090, Note_on_c, 0, 80, 59
1, 101090, Note_on_c, 0, 68, 52
1, 101145, Note_on_c, 0, 56, 0
1, 101152, Note_on_c, 0, 80, 0
1, 101170, Note_on_c, 0, 63, 0
1, 101195, Note_on_c, 0, 68, 0
1, 101295, Note_on_c, 0, 61, 48
1, 101317, Note_on_c, 0, 56, 46
1, 101342, Note_on_c, 0, 52, 44
1, 101425, Note_on_c, 0, 56, 0
1, 101495, Control_c, 0, 64, 0
1, 101502, Note_on_c, 0, 56, 40
1, 101505, Note_on_c, 0, 51, 39
1, 101507, Note_on_c, 0, 60, 38
1, 101520, Note_on_c, 0, 52, 0
1, 101592, Note_on_c, 0, 61, 0
1, 101640, Note_on_c, 0, 56, 0
1, 101717, Note_on_c, 0, 56, 44
1, 101742, Note_on_c, 0, 44, 54
1, 101747, Note_on_c, 0, 68, 43
1, 101807, Note_on_c, 0, 51, 0
1, 101880, Control_c, 0, 64, 127
1, 101980, Note_on_c, 0, 52, 45
1, 102017, Note_on_c, 0, 44, 0
1, 102212, Note_on_c, 0, 51, 43
1, 102275, Note_on_c, 0, 52, 0
1, 102450, Note_on_c, 0, 44, 49
1, 102520, Note_on_c, 0, 51, 0
1, 102580, Note_on_c, 0, 44, 0
1, 102715, Note_on_c, 0, 40, 51
1, 102812, Control_c, 0, 64, 0
1, 102977, Note_on_c, 0, 39, 48
1, 102985, Control_c, 0, 67, 127
1, 103015, Note_on_c, 0, 40, 0
1, 103025, Control_c, 0, 67, 0
1, 103220, Note_on_c, 0, 32, 48
1, 103275, Note_on_c, 0, 39, 0
1, 103717, Control_c, 0, 67, 127
1, 104222, Note_on_c, 0, 56, 0
1, 104252, Note_on_c, 0, 60, 0
1, 104280, Note_on_c, 0, 68, 0
1, 104312, Note_on_c, 0, 40, 58
1, 104345, Note_on_c, 0, 32, 0
1, 104765, Note_on_c, 0, 39, 53
1, 104777, Note_on_c, 0, 40, 0
1, 105095, Note_on_c, 0, 32, 38
1, 105135, Note_on_c, 0, 39, 0
1, 106802, Note_on_c, 0, 32, 0
1, 106812, Note_on_c, 0, 33, 46
1, 107430, Note_on_c, 0, 32, 46
1, 107437, Note_on_c, 0, 33, 0
1, 107842, Note_on_c, 0, 32, 0
1, 107855, Note_on_c, 0, 28, 46
1, 107917, Control_c, 0, 64, 127
1, 108007, Note_on_c, 0, 28, 0
1, 108120, Note_on_c, 0, 81, 59
1, 108610, Note_on_c, 0, 69, 44
1, 108635, Note_on_c, 0, 71, 44
1, 108660, Note_on_c, 0, 76, 48
1, 108700, Note_on_c, 0, 81, 0
1, 108862, Note_on_c, 0, 76, 0
1, 108885, Note_on_c, 0, 71, 0
1, 108917, Note_on_c, 0, 80, 43
1, 109167, Note_on_c, 0, 68, 39
1, 109192, Note_on_c, 0, 71, 44
1, 109205, Note_on_c, 0, 69, 0
1, 109207, Note_on_c, 0, 80, 0
1, 109252, Note_on_c, 0, 68, 0
1, 109325, Note_on_c, 0, 71, 0
1, 109402, Note_on_c, 0, 71, 46
1, 109587, Note_on_c, 0, 59, 39
1, 109605, Note_on_c, 0, 71, 0
1, 109662, Note_on_c, 0, 68, 43
1, 109785, Control_c, 0, 64, 0
1, 109822, Note_on_c, 0, 56, 39
1, 109865, Note_on_c, 0, 59, 0
1, 109890, Note_on_c, 0, 68, 0
1, 109922, Note_on_c, 0, 78, 48
1, 110072, Control_c, 0, 64, 127
1, 110240, Note_on_c, 0, 66, 41
1, 110242, Note_on_c, 0, 68, 43
1, 110270, Note_on_c, 0, 71, 44
1, 110327, Note_on_c, 0, 66, 0
1, 110357, Note_on_c, 0, 78, 0
1, 110447, Note_on_c, 0, 68, 0
1, 110480, Note_on_c, 0, 76, 45
1, 110517, Note_on_c, 0, 71, 0
1, 110700, Note_on_c, 0, 56, 0
1, 110710, Note_on_c, 0, 64, 38
1, 110712, Note_on_c, 0, 68, 43
1, 110715, Note_on_c, 0, 71, 45
1, 110820, Note_on_c, 0, 71, 0
1, 110897, Note_on_c, 0, 68, 0
1, 110905, Note_on_c, 0, 71, 61
1, 111010, Note_on_c, 0, 76, 0
1, 111110, Note_on_c, 0, 59, 37
1, 111125, Note_on_c, 0, 64, 0
1, 111137, Note_on_c, 0, 68, 47
1, 111215, Control_c, 0, 64, 0
1, 111320, Note_on_c, 0, 55, 38
1, 111342, Note_on_c, 0, 68, 0
1, 111342, Note_on_c, 0, 71, 0
1, 111355, Note_on_c, 0, 75, 62
1, 111362, Note_on_c, 0, 59, 0
1, 111532, Control_c, 0, 64, 127
1, 111635, Note_on_c, 0, 63, 37
1, 111657, Note_on_c, 0, 64, 40
1, 111660, Note_on_c, 0, 70, 44
1, 111722, Note_on_c, 0, 75, 0
1, 111862, Note_on_c, 0, 63, 0
1, 111897, Note_on_c, 0, 73, 52
1, 111907, Note_on_c, 0, 64, 0
1, 111935, Note_on_c, 0, 70, 0
1, 112147, Note_on_c, 0, 55, 0
1, 112157, Note_on_c, 0, 64, 39
1, 112157, Note_on_c, 0, 61, 39
1, 112160, Note_on_c, 0, 70, 43
1, 112342, Note_on_c, 0, 73, 0
1, 112355, Note_on_c, 0, 75, 46
1, 112387, Note_on_c, 0, 64, 0
1, 112410, Note_on_c, 0, 70, 0
1, 112560, Note_on_c, 0, 64, 33
1, 112587, Note_on_c, 0, 70, 41
1, 112587, Note_on_c, 0, 63, 37
1, 112600, Note_on_c, 0, 61, 0
1, 112657, Note_on_c, 0, 75, 0
1, 112722, Control_c, 0, 64, 0
1, 112807, Note_on_c, 0, 73, 49
1, 112822, Note_on_c, 0, 63, 0
1, 112830, Note_on_c, 0, 54, 39
1, 112845, Note_on_c, 0, 64, 0
1, 112847, Note_on_c, 0, 70, 0
1, 113040, Control_c, 0, 64, 127
1, 113140, Note_on_c, 0, 69, 44
1, 113140, Note_on_c, 0, 63, 39
1, 113140, Note_on_c, 0, 61, 39
1, 113255, Note_on_c, 0, 73, 0
1, 113325, Note_on_c, 0, 69, 0
1, 113360, Note_on_c, 0, 71, 41
1, 113372, Note_on_c, 0, 63, 0
1, 113537, Note_on_c, 0, 54, 0
1, 113562, Note_on_c, 0, 61, 0
1, 113575, Note_on_c, 0, 63, 39
1, 113577, Note_on_c, 0, 59, 39
1, 113597, Note_on_c, 0, 69, 44
1, 113700, Control_c, 0, 64, 0
1, 113727, Note_on_c, 0, 63, 0
1, 113755, Note_on_c, 0, 71, 0
1, 113762, Note_on_c, 0, 53, 41
1, 113775, Note_on_c, 0, 59, 0
1, 113777, Note_on_c, 0, 69, 0
1, 113787, Note_on_c, 0, 75, 61
1, 113995, Note_on_c, 0, 68, 46
1, 114015, Note_on_c, 0, 63, 39
1, 114150, Note_on_c, 0, 53, 0
1, 114180, Note_on_c, 0, 54, 47
1, 114220, Note_on_c, 0, 68, 0
1, 114230, Note_on_c, 0, 73, 55
1, 114247, Control_c, 0, 64, 127
1, 114297, Note_on_c, 0, 75, 0
1, 114340, Note_on_c, 0, 63, 0
1, 114510, Note_on_c, 0, 63, 49
1, 114532, Note_on_c, 0, 69, 44
1, 114535, Note_on_c, 0, 61, 40
1, 114670, Note_on_c, 0, 73, 0
1, 114720, Note_on_c, 0, 69, 0
1, 114722, Note_on_c, 0, 71, 41
1, 114762, Note_on_c, 0, 63, 0
1, 114905, Note_on_c, 0, 61, 0
1, 114935, Note_on_c, 0, 69, 38
1, 114935, Note_on_c, 0, 63, 35
1, 114937, Note_on_c, 0, 59, 35
1, 114947, Note_on_c, 0, 54, 0
1, 114972, Control_c, 0, 64, 0
1, 114975, Control_c, 0, 67, 0
1, 115072, Note_on_c, 0, 71, 0
1, 115090, Note_on_c, 0, 63, 0
1, 115115, Note_on_c, 0, 69, 0
1, 115115, Note_on_c, 0, 59, 0
1, 115127, Note_on_c, 0, 53, 43
1, 115130, Note_on_c, 0, 75, 62
1, 115262, Control_c, 0, 64, 127
1, 115325, Control_c, 0, 64, 0
1, 115362, Note_on_c, 0, 63, 45
1, 115365, Note_on_c, 0, 68, 54
1, 115517, Note_on_c, 0, 68, 0
1, 115525, Note_on_c, 0, 54, 50
1, 115540, Note_on_c, 0, 53, 0
1, 115542, Note_on_c, 0, 63, 0
1, 115572, Note_on_c, 0, 73, 63
1, 115595, Control_c, 0, 64, 127
1, 115657, Note_on_c, 0, 75, 0
1, 115852, Note_on_c, 0, 63, 44
1, 115872, Note_on_c, 0, 69, 47
1, 115872, Note_on_c, 0, 61, 43
1, 116027, Note_on_c, 0, 69, 0
1, 116050, Note_on_c, 0, 63, 0
1, 116060, Note_on_c, 0, 71, 58
1, 116215, Note_on_c, 0, 61, 0
1, 116270, Note_on_c, 0, 69, 49
1, 116272, Note_on_c, 0, 59, 43
1, 116292, Note_on_c, 0, 63, 41
1, 116312, Note_on_c, 0, 73, 0
1, 116330, Note_on_c, 0, 54, 0
1, 116355, Note_on_c, 0, 71, 0
1, 116405, Control_c, 0, 64, 0
1, 116452, Note_on_c, 0, 63, 0
1, 116455, Note_on_c, 0, 69, 0
1, 116460, Note_on_c, 0, 73, 62
1, 116475, Note_on_c, 0, 59, 0
1, 116482, Note_on_c, 0, 53, 53
1, 116667, Control_c, 0, 64, 127
1, 116717, Note_on_c, 0, 61, 45
1, 116720, Note_on_c, 0, 68, 46
1, 116742, Note_on_c, 0, 62, 44
1, 116782, Note_on_c, 0, 73, 0
1, 116805, Control_c, 0, 64, 0
1, 116870, Note_on_c, 0, 53, 0
1, 116880, Note_on_c, 0, 54, 51
1, 116895, Note_on_c, 0, 61, 0
1, 116930, Note_on_c, 0, 71, 52
1, 116940, Note_on_c, 0, 62, 0
1, 116967, Note_on_c, 0, 68, 0
1, 117062, Control_c, 0, 64, 127
1, 117180, Note_on_c, 0, 66, 47
1, 117182, Note_on_c, 0, 61, 45
1, 117210, Note_on_c, 0, 59, 45
1, 117267, Note_on_c, 0, 66, 0
1, 117385, Note_on_c, 0, 61, 0
1, 117415, Note_on_c, 0, 69, 41
1, 117455, Note_on_c, 0, 59, 0
1, 117480, Note_on_c, 0, 71, 0
1, 117635, Note_on_c, 0, 54, 0
1, 117647, Note_on_c, 0, 64, 43
1, 117647, Note_on_c, 0, 61, 45
1, 117667, Note_on_c, 0, 57, 44
1, 117750, Note_on_c, 0, 64, 0
1, 117827, Note_on_c, 0, 61, 0
1, 117855, Note_on_c, 0, 64, 44
1, 117962, Note_on_c, 0, 69, 0
1, 117987, Note_on_c, 0, 57, 0
1, 117990, Control_c, 0, 64, 0
1, 118082, Note_on_c, 0, 57, 43
1, 118085, Note_on_c, 0, 61, 43
1, 118110, Note_on_c, 0, 52, 43
1, 118147, Control_c, 0, 67, 127
1, 118217, Note_on_c, 0, 57, 0
1, 118297, Note_on_c, 0, 68, 45
1, 118322, Note_on_c, 0, 47, 47
1, 118332, Note_on_c, 0, 61, 0
1, 118335, Note_on_c, 0, 52, 0
1, 118407, Note_on_c, 0, 64, 0
1, 118440, Control_c, 0, 64, 127
1, 118697, Note_on_c, 0, 57, 44
1, 118722, Note_on_c, 0, 56, 39
1, 118725, Note_on_c, 0, 63, 39
1, 118857, Note_on_c, 0, 68, 0
1, 118925, Note_on_c, 0, 57, 0
1, 118957, Note_on_c, 0, 66, 38
1, 118995, Note_on_c, 0, 63, 0
1, 119112, Note_on_c, 0, 66, 0
1, 119137, Note_on_c, 0, 47, 0
1, 119177, Note_on_c, 0, 56, 0
1, 119215, Note_on_c, 0, 57, 39
1, 119217, Note_on_c, 0, 63, 39
1, 119220, Note_on_c, 0, 54, 39
1, 119300, Note_on_c, 0, 57, 0
1, 119395, Note_on_c, 0, 54, 0
1, 119442, Note_on_c, 0, 63, 0
1, 119450, Note_on_c, 0, 71, 52
1, 119535, Control_c, 0, 64, 0
1, 119732, Note_on_c, 0, 59, 39
1, 119735, Note_on_c, 0, 63, 49
1, 119757, Note_on_c, 0, 69, 55
1, 119810, Note_on_c, 0, 28, 58
1, 119850, Control_c, 0, 64, 127
1, 119935, Note_on_c, 0, 69, 0
1, 119935, Note_on_c, 0, 63, 0
1, 119935, Note_on_c, 0, 59, 0
1, 119952, Note_on_c, 0, 40, 58
1, 119960, Note_on_c, 0, 71, 0
1, 120000, Control_c, 0, 67, 0
1, 120010, Note_on_c, 0, 28, 0
1, 120055, Note_on_c, 0, 40, 0
1, 120085, Note_on_c, 0, 81, 63
1, 120470, Note_on_c, 0, 71, 54
1, 120490, Note_on_c, 0, 74, 59
1, 120510, Note_on_c, 0, 69, 54
1, 120527, Note_on_c, 0, 81, 0
1, 120597, Note_on_c, 0, 74, 0
1, 120677, Control_c, 0, 64, 0
1, 120700, Note_on_c, 0, 71, 0
1, 120705, Note_on_c, 0, 80, 57
1, 120880, Note_on_c, 0, 74, 60
1, 120895, Note_on_c, 0, 68, 48
1, 120907, Note_on_c, 0, 69, 0
1, 120915, Note_on_c, 0, 71, 47
1, 120995, Control_c, 0, 64, 127
1, 121030, Note_on_c, 0, 71, 0
1, 121032, Note_on_c, 0, 80, 0
1, 121055, Note_on_c, 0, 74, 0
1, 121080, Note_on_c, 0, 68, 0
1, 121132, Note_on_c, 0, 71, 48
1, 121270, Note_on_c, 0, 71, 0
1, 121302, Note_on_c, 0, 59, 43
1, 121325, Note_on_c, 0, 68, 46
1, 121395, Control_c, 0, 64, 0
1, 121487, Note_on_c, 0, 56, 41
1, 121557, Note_on_c, 0, 68, 0
1, 121580, Note_on_c, 0, 59, 0
1, 121612, Note_on_c, 0, 78, 60
1, 121680, Control_c, 0, 64, 127
1, 121765, Note_on_c, 0, 56, 0
1, 121892, Note_on_c, 0, 66, 52
1, 121915, Note_on_c, 0, 71, 54
1, 121917, Note_on_c, 0, 68, 51
1, 122017, Note_on_c, 0, 66, 0
1, 122067, Note_on_c, 0, 78, 0
1, 122115, Note_on_c, 0, 68, 0
1, 122147, Note_on_c, 0, 76, 49
1, 122160, Note_on_c, 0, 71, 0
1, 122400, Control_c, 0, 64, 0
1, 122402, Note_on_c, 0, 64, 43
1, 122405, Note_on_c, 0, 71, 47
1, 122432, Note_on_c, 0, 68, 45
1, 122447, Note_on_c, 0, 76, 0
1, 122467, Control_c, 0, 67, 127
1, 122520, Note_on_c, 0, 71, 0
1, 122540, Note_on_c, 0, 68, 0
1, 122622, Note_on_c, 0, 68, 45
1, 122652, Control_c, 0, 64, 127
1, 122707, Note_on_c, 0, 64, 0
1, 122835, Note_on_c, 0, 56, 39
1, 122900, Note_on_c, 0, 64, 39
1, 123020, Note_on_c, 0, 52, 39
1, 123060, Note_on_c, 0, 56, 0
1, 123065, Control_c, 0, 64, 0
1, 123107, Note_on_c, 0, 68, 0
1, 123167, Note_on_c, 0, 74, 48
1, 123180, Note_on_c, 0, 64, 0
1, 123357, Control_c, 0, 64, 127
1, 123480, Note_on_c, 0, 52, 0
1, 123552, Note_on_c, 0, 64, 37
1, 123555, Note_on_c, 0, 62, 39
1, 123580, Note_on_c, 0, 68, 41
1, 123827, Note_on_c, 0, 68, 0
1, 123840, Note_on_c, 0, 73, 46
1, 123850, Note_on_c, 0, 64, 0
1, 123945, Note_on_c, 0, 62, 0
1, 123965, Note_on_c, 0, 74, 0
1, 124090, Note_on_c, 0, 64, 39
1, 124092, Note_on_c, 0, 68, 43
1, 124092, Note_on_c, 0, 61, 39
1, 124200, Note_on_c, 0, 73, 0
1, 124277, Note_on_c, 0, 72, 44
1, 124295, Note_on_c, 0, 68, 0
1, 124337, Note_on_c, 0, 64, 0
1, 124432, Note_on_c, 0, 61, 0
1, 124487, Note_on_c, 0, 60, 39
1, 124505, Note_on_c, 0, 64, 38
1, 124530, Note_on_c, 0, 68, 43
1, 124597, Control_c, 0, 64, 0
1, 124620, Note_on_c, 0, 60, 0
1, 124640, Note_on_c, 0, 68, 0
1, 124662, Note_on_c, 0, 72, 0
1, 124695, Note_on_c, 0, 45, 48
1, 124732, Note_on_c, 0, 64, 0
1, 124762, Note_on_c, 0, 72, 54
1, 124880, Control_c, 0, 64, 127
1, 124965, Note_on_c, 0, 45, 0
1, 125132, Note_on_c, 0, 64, 44
1, 125155, Note_on_c, 0, 69, 40
1, 125160, Note_on_c, 0, 60, 34
1, 125400, Note_on_c, 0, 69, 0
1, 125425, Note_on_c, 0, 72, 0
1, 125437, Note_on_c, 0, 73, 46
1, 125450, Note_on_c, 0, 64, 0
1, 125455, Control_c, 0, 64, 0
1, 125542, Note_on_c, 0, 60, 0
1, 125690, Note_on_c, 0, 61, 39
1, 125710, Note_on_c, 0, 69, 40
1, 125712, Note_on_c, 0, 64, 35
1, 125747, Control_c, 0, 64, 127
1, 125825, Note_on_c, 0, 61, 0
1, 125825, Note_on_c, 0, 73, 0
1, 125847, Note_on_c, 0, 69, 0
1, 125892, Note_on_c, 0, 64, 0
1, 125950, Note_on_c, 0, 61, 40
1, 126060, Control_c, 0, 64, 0
1, 126182, Note_on_c, 0, 49, 39
1, 126255, Note_on_c, 0, 59, 38
1, 126295, Note_on_c, 0, 61, 0
1, 126355, Control_c, 0, 64, 127
1, 126420, Note_on_c, 0, 42, 43
1, 126432, Note_on_c, 0, 59, 0
1, 126452, Note_on_c, 0, 49, 0
1, 126550, Note_on_c, 0, 42, 0
1, 126580, Note_on_c, 0, 71, 63
1, 126995, Note_on_c, 0, 66, 51
1, 127000, Note_on_c, 0, 59, 39
1, 127022, Note_on_c, 0, 61, 39
1, 127130, Note_on_c, 0, 71, 0
1, 127135, Note_on_c, 0, 66, 0
1, 127177, Control_c, 0, 64, 0
1, 127200, Note_on_c, 0, 61, 0
1, 127275, Note_on_c, 0, 69, 50
1, 127482, Note_on_c, 0, 59, 0
1, 127542, Note_on_c, 0, 57, 39
1, 127545, Note_on_c, 0, 66, 43
1, 127547, Note_on_c, 0, 61, 39
1, 127550, Control_c, 0, 64, 127
1, 127652, Note_on_c, 0, 66, 0
1, 127675, Note_on_c, 0, 69, 0
1, 127697, Note_on_c, 0, 61, 0
1, 127762, Note_on_c, 0, 68, 50
1, 127820, Note_on_c, 0, 57, 0
1, 127965, Note_on_c, 0, 56, 39
1, 127987, Note_on_c, 0, 65, 43
1, 128017, Note_on_c, 0, 62, 39
1, 128030, Control_c, 0, 64, 0
1, 128047, Note_on_c, 0, 56, 0
1, 128112, Note_on_c, 0, 30, 51
1, 128170, Note_on_c, 0, 62, 0
1, 128192, Note_on_c, 0, 65, 0
1, 128217, Note_on_c, 0, 68, 0
1, 128222, Note_on_c, 0, 71, 65
1, 128250, Note_on_c, 0, 42, 63
1, 128340, Control_c, 0, 64, 127
1, 128427, Note_on_c, 0, 30, 0
1, 128452, Note_on_c, 0, 42, 0
1, 128597, Note_on_c, 0, 66, 48
1, 128625, Note_on_c, 0, 61, 46
1, 128670, Note_on_c, 0, 59, 46
1, 128685, Note_on_c, 0, 66, 0
1, 128805, Note_on_c, 0, 61, 0
1, 128880, Note_on_c, 0, 71, 0
1, 128922, Control_c, 0, 64, 0
1, 128927, Note_on_c, 0, 69, 47
1, 129235, Control_c, 0, 64, 127
1, 129250, Note_on_c, 0, 59, 0
1, 129255, Note_on_c, 0, 57, 39
1, 129257, Note_on_c, 0, 66, 43
1, 129257, Note_on_c, 0, 61, 39
1, 129392, Note_on_c, 0, 66, 0
1, 129417, Note_on_c, 0, 69, 0
1, 129440, Note_on_c, 0, 61, 0
1, 129542, Note_on_c, 0, 68, 43
1, 129645, Note_on_c, 0, 57, 0
1, 129770, Note_on_c, 0, 68, 0
1, 129817, Note_on_c, 0, 56, 39
1, 129820, Note_on_c, 0, 64, 44
1, 129845, Note_on_c, 0, 61, 43
1, 129905, Note_on_c, 0, 56, 0
1, 129910, Control_c, 0, 64, 0
1, 130047, Note_on_c, 0, 61, 0
1, 130087, Note_on_c, 0, 47, 45
1, 130097, Note_on_c, 0, 64, 0
1, 130107, Note_on_c, 0, 68, 54
1, 130132, Note_on_c, 0, 35, 44
1, 130202, Control_c, 0, 64, 127
1, 130310, Note_on_c, 0, 35, 0
1, 130310, Note_on_c, 0, 47, 0
1, 130500, Note_on_c, 0, 57, 33
1, 130550, Note_on_c, 0, 63, 48
1, 130587, Note_on_c, 0, 68, 0
1, 130617, Note_on_c, 0, 56, 39
1, 130840, Note_on_c, 0, 57, 0
1, 130895, Note_on_c, 0, 66, 47
1, 130935, Control_c, 0, 64, 0
1, 130960, Note_on_c, 0, 63, 0
1, 131185, Note_on_c, 0, 56, 0
1, 131195, Note_on_c, 0, 54, 39
1, 131220, Control_c, 0, 64, 127
1, 131242, Note_on_c, 0, 63, 46
1, 131242, Note_on_c, 0, 57, 37
1, 131302, Note_on_c, 0, 66, 0
1, 131400, Note_on_c, 0, 63, 0
1, 131532, Note_on_c, 0, 57, 0
1, 131580, Note_on_c, 0, 54, 0
1, 131640, Note_on_c, 0, 59, 48
1, 131985, Note_on_c, 0, 57, 38
1, 131987, Note_on_c, 0, 51, 39
1, 131990, Note_on_c, 0, 47, 46
1, 132067, Note_on_c, 0, 47, 0
1, 132090, Note_on_c, 0, 51, 0
1, 132217, Note_on_c, 0, 28, 40
1, 132275, Note_on_c, 0, 57, 0
1, 132347, Control_c, 0, 64, 0
1, 132370, Note_on_c, 0, 59, 0
1, 132400, Note_on_c, 0, 40, 51
1, 132445, Note_on_c, 0, 64, 50
1, 132655, Control_c, 0, 64, 127
1, 132720, Note_on_c, 0, 40, 0
1, 132720, Note_on_c, 0, 28, 0
1, 132720, Note_on_c, 0, 56, 48
1, 132877, Note_on_c, 0, 56, 0
1, 132895, Note_on_c, 0, 47, 61
1, 132905, Note_on_c, 0, 64, 0
1, 132997, Note_on_c, 0, 47, 0
1, 133030, Note_on_c, 0, 52, 47
1, 133165, Note_on_c, 0, 56, 49
1, 133227, Note_on_c, 0, 52, 0
1, 133272, Note_on_c, 0, 56, 0
1, 133285, Note_on_c, 0, 59, 55
1, 133377, Note_on_c, 0, 64, 65
1, 133390, Note_on_c, 0, 59, 0
1, 133515, Note_on_c, 0, 68, 62
1, 133552, Note_on_c, 0, 64, 0
1, 133575, Note_on_c, 0, 68, 0
1, 133607, Note_on_c, 0, 71, 52
1, 133700, Note_on_c, 0, 76, 52
1, 133715, Note_on_c, 0, 71, 0
1, 133772, Note_on_c, 0, 80, 49
1, 133807, Note_on_c, 0, 76, 0
1, 133885, Note_on_c, 0, 83, 48
1, 133900, Note_on_c, 0, 80, 0
1, 133942, Control_c, 0, 64, 0
1, 133967, Note_on_c, 0, 83, 0
1, 133995, Note_on_c, 0, 69, 59
1, 134160, Note_on_c, 0, 71, 44
1, 134252, Control_c, 0, 64, 127
1, 134257, Note_on_c, 0, 76, 51
1, 134340, Note_on_c, 0, 76, 0
1, 134342, Note_on_c, 0, 81, 53
1, 134442, Note_on_c, 0, 83, 54
1, 134460, Note_on_c, 0, 81, 0
1, 134460, Note_on_c, 0, 71, 0
1, 134512, Note_on_c, 0, 88, 50
1, 134525, Note_on_c, 0, 83, 0
1, 134547, Control_c, 0, 64, 0
1, 134550, Note_on_c, 0, 69, 0
1, 134597, Note_on_c, 0, 88, 0
1, 134607, Note_on_c, 0, 68, 56
1, 134677, Note_on_c, 0, 71, 39
1, 134750, Note_on_c, 0, 76, 45
1, 134777, Control_c, 0, 64, 127
1, 134820, Note_on_c, 0, 80, 48
1, 134857, Note_on_c, 0, 71, 0
1, 134857, Note_on_c, 0, 68, 0
1, 134877, Note_on_c, 0, 76, 0
1, 134907, Note_on_c, 0, 83, 54
1, 134925, Note_on_c, 0, 80, 0
1, 134985, Note_on_c, 0, 88, 59
1, 134997, Control_c, 0, 64, 0
1, 135020, Note_on_c, 0, 83, 0
1, 135052, Note_on_c, 0, 59, 67
1, 135067, Note_on_c, 0, 88, 0
1, 135120, Note_on_c, 0, 64, 44
1, 135217, Note_on_c, 0, 68, 43
1, 135237, Control_c, 0, 64, 127
1, 135262, Note_on_c, 0, 71, 47
1, 135300, Note_on_c, 0, 59, 0
1, 135337, Note_on_c, 0, 76, 53
1, 135352, Note_on_c, 0, 64, 0
1, 135352, Note_on_c, 0, 68, 0
1, 135375, Note_on_c, 0, 71, 0
1, 135402, Note_on_c, 0, 80, 55
1, 135440, Note_on_c, 0, 76, 0
1, 135477, Note_on_c, 0, 83, 54
1, 135512, Control_c, 0, 64, 0
1, 135515, Note_on_c, 0, 80, 0
1, 135560, Note_on_c, 0, 83, 0
1, 135567, Note_on_c, 0, 66, 57
1, 135685, Note_on_c, 0, 68, 38
1, 135777, Note_on_c, 0, 71, 40
1, 135797, Control_c, 0, 64, 127
1, 135850, Note_on_c, 0, 78, 40
1, 135860, Note_on_c, 0, 66, 0
1, 135912, Note_on_c, 0, 80, 43
1, 135975, Note_on_c, 0, 68, 0
1, 135987, Note_on_c, 0, 83, 51
1, 136002, Note_on_c, 0, 78, 0
1, 136025, Note_on_c, 0, 71, 0
1, 136050, Control_c, 0, 64, 0
1, 136052, Note_on_c, 0, 80, 0
1, 136097, Note_on_c, 0, 83, 0
1, 136100, Note_on_c, 0, 64, 57
1, 136177, Note_on_c, 0, 68, 38
1, 136247, Note_on_c, 0, 71, 40
1, 136292, Control_c, 0, 64, 127
1, 136317, Note_on_c, 0, 76, 47
1, 136355, Note_on_c, 0, 68, 0
1, 136380, Note_on_c, 0, 64, 0
1, 136412, Note_on_c, 0, 80, 53
1, 136450, Note_on_c, 0, 71, 0
1, 136480, Note_on_c, 0, 83, 60
1, 136492, Control_c, 0, 64, 0
1, 136497, Note_on_c, 0, 76, 0
1, 136542, Note_on_c, 0, 80, 0
1, 136555, Note_on_c, 0, 59, 66
1, 136615, Note_on_c, 0, 83, 0
1, 136617, Note_on_c, 0, 64, 50
1, 136692, Note_on_c, 0, 68, 50
1, 136737, Control_c, 0, 64, 127
1, 136740, Note_on_c, 0, 71, 57
1, 136785, Note_on_c, 0, 76, 63
1, 136800, Note_on_c, 0, 64, 0
1, 136800, Note_on_c, 0, 59, 0
1, 136827, Note_on_c, 0, 80, 64
1, 136865, Note_on_c, 0, 71, 0
1, 136865, Note_on_c, 0, 76, 0
1, 136877, Note_on_c, 0, 83, 60
1, 136965, Note_on_c, 0, 68, 0
1, 136965, Note_on_c, 0, 80, 0
1, 136980, Control_c, 0, 64, 0
1, 136990, Note_on_c, 0, 63, 75
1, 137005, Note_on_c, 0, 83, 0
1, 137085, Note_on_c, 0, 64, 46
1, 137147, Note_on_c, 0, 67, 46
1, 137220, Control_c, 0, 64, 127
1, 137222, Note_on_c, 0, 70, 46
1, 137272, Note_on_c, 0, 75, 51
1, 137285, Note_on_c, 0, 63, 0
1, 137315, Note_on_c, 0, 76, 53
1, 137372, Note_on_c, 0, 67, 0
1, 137385, Note_on_c, 0, 79, 57
1, 137397, Note_on_c, 0, 70, 0
1, 137422, Note_on_c, 0, 75, 0
1, 137457, Note_on_c, 0, 82, 59
1, 137495, Note_on_c, 0, 76, 0
1, 137512, Note_on_c, 0, 64, 0
1, 137535, Control_c, 0, 64, 0
1, 137547, Note_on_c, 0, 61, 63
1, 137562, Note_on_c, 0, 79, 0
1, 137610, Note_on_c, 0, 82, 0
1, 137615, Note_on_c, 0, 64, 54
1, 137657, Note_on_c, 0, 67, 55
1, 137685, Note_on_c, 0, 70, 54
1, 137730, Note_on_c, 0, 73, 58
1, 137775, Control_c, 0, 64, 127
1, 137777, Note_on_c, 0, 76, 59
1, 137835, Note_on_c, 0, 61, 0
1, 137845, Note_on_c, 0, 79, 61
1, 137857, Note_on_c, 0, 73, 0
1, 137900, Note_on_c, 0, 67, 0
1, 137902, Note_on_c, 0, 70, 0
1, 137915, Note_on_c, 0, 82, 60
1, 137927, Note_on_c, 0, 76, 0
1, 137935, Note_on_c, 0, 64, 0
1, 137947, Control_c, 0, 64, 0
1, 137982, Note_on_c, 0, 63, 66
1, 138042, Note_on_c, 0, 79, 0
1, 138047, Note_on_c, 0, 64, 55
1, 138090, Note_on_c, 0, 82, 0
1, 138095, Note_on_c, 0, 67, 55
1, 138145, Note_on_c, 0, 70, 54
1, 138187, Control_c, 0, 64, 127
1, 138190, Note_on_c, 0, 75, 58
1, 138237, Note_on_c, 0, 76, 55
1, 138250, Note_on_c, 0, 63, 0
1, 138255, Note_on_c, 0, 64, 0
1, 138270, Note_on_c, 0, 67, 0
1, 138285, Note_on_c, 0, 79, 60
1, 138322, Note_on_c, 0, 70, 0
1, 138347, Note_on_c, 0, 75, 0
1, 138352, Note_on_c, 0, 82, 58
1, 138367, Note_on_c, 0, 76, 0
1, 138410, Control_c, 0, 64, 0
1, 138432, Note_on_c, 0, 79, 0
1, 138445, Note_on_c, 0, 61, 68
1, 138482, Note_on_c, 0, 82, 0
1, 138515, Note_on_c, 0, 63, 51
1, 138555, Note_on_c, 0, 66, 49
1, 138600, Note_on_c, 0, 69, 49
1, 138650, Control_c, 0, 64, 127
1, 138652, Note_on_c, 0, 73, 51
1, 138720, Note_on_c, 0, 75, 50
1, 138732, Note_on_c, 0, 66, 0
1, 138732, Note_on_c, 0, 61, 0
1, 138757, Note_on_c, 0, 73, 0
1, 138815, Note_on_c, 0, 78, 48
1, 138847, Note_on_c, 0, 69, 0
1, 138857, Note_on_c, 0, 81, 51
1, 138897, Control_c, 0, 64, 0
1, 138900, Note_on_c, 0, 75, 0
1, 138917, Note_on_c, 0, 63, 0
1, 138920, Note_on_c, 0, 78, 0
1, 138930, Note_on_c, 0, 59, 57
1, 138942, Note_on_c, 0, 81, 0
1, 139002, Note_on_c, 0, 63, 41
1, 139047, Note_on_c, 0, 66, 46
1, 139087, Note_on_c, 0, 69, 48
1, 139137, Control_c, 0, 64, 127
1, 139140, Note_on_c, 0, 71, 50
1, 139185, Note_on_c, 0, 75, 58
1, 139197, Note_on_c, 0, 66, 0
1, 139200, Note_on_c, 0, 69, 0
1, 139200, Note_on_c, 0, 59, 0
1, 139255, Note_on_c, 0, 78, 59
1, 139267, Note_on_c, 0, 63, 0
1, 139290, Note_on_c, 0, 71, 0
1, 139322, Note_on_c, 0, 81, 61
1, 139335, Control_c, 0, 64, 0
1, 139337, Note_on_c, 0, 75, 0
1, 139362, Note_on_c, 0, 78, 0
1, 139405, Note_on_c, 0, 81, 0
1, 139412, Note_on_c, 0, 63, 69
1, 139480, Note_on_c, 0, 64, 50
1, 139520, Control_c, 0, 64, 127
1, 139525, Note_on_c, 0, 67, 46
1, 139592, Note_on_c, 0, 70, 47
1, 139630, Note_on_c, 0, 63, 0
1, 139667, Note_on_c, 0, 75, 48
1, 139677, Note_on_c, 0, 67, 0
1, 139710, Note_on_c, 0, 76, 48
1, 139725, Note_on_c, 0, 64, 0
1, 139752, Note_on_c, 0, 79, 50
1, 139790, Note_on_c, 0, 70, 0
1, 139792, Note_on_c, 0, 75, 0
1, 139800, Note_on_c, 0, 82, 50
1, 139835, Note_on_c, 0, 76, 0
1, 139885, Note_on_c, 0, 79, 0
1, 139885, Control_c, 0, 64, 0
1, 139915, Note_on_c, 0, 61, 70
1, 139930, Note_on_c, 0, 82, 0
1, 139987, Note_on_c, 0, 63, 57
1, 140032, Note_on_c, 0, 66, 44
1, 140080, Note_on_c, 0, 69, 47
1, 140125, Control_c, 0, 64, 127
1, 140147, Note_on_c, 0, 73, 54
1, 140185, Note_on_c, 0, 61, 0
1, 140197, Note_on_c, 0, 75, 55
1, 140207, Note_on_c, 0, 66, 0
1, 140235, Note_on_c, 0, 73, 0
1, 140267, Note_on_c, 0, 78, 59
1, 140327, Note_on_c, 0, 69, 0
1, 140340, Note_on_c, 0, 81, 60
1, 140352, Note_on_c, 0, 75, 0
1, 140380, Control_c, 0, 64, 0
1, 140400, Note_on_c, 0, 78, 0
1, 140400, Note_on_c, 0, 63, 0
1, 140430, Note_on_c, 0, 59, 63
1, 140447, Note_on_c, 0, 81, 0
1, 140502, Note_on_c, 0, 63, 45
1, 140545, Note_on_c, 0, 66, 58
1, 140590, Note_on_c, 0, 69, 61
1, 140615, Control_c, 0, 64, 127
1, 140640, Note_on_c, 0, 71, 62
1, 140675, Note_on_c, 0, 66, 0
1, 140677, Note_on_c, 0, 69, 0
1, 140680, Note_on_c, 0, 59, 0
1, 140715, Note_on_c, 0, 75, 62
1, 140775, Note_on_c, 0, 63, 0
1, 140785, Note_on_c, 0, 78, 63
1, 140797, Note_on_c, 0, 71, 0
1, 140825, Note_on_c, 0, 81, 65
1, 140842, Control_c, 0, 64, 0
1, 140885, Note_on_c, 0, 78, 0
1, 140902, Note_on_c, 0, 75, 0
1, 140907, Note_on_c, 0, 81, 0
1, 140920, Note_on_c, 0, 63, 70
1, 140985, Note_on_c, 0, 64, 58
1, 141032, Note_on_c, 0, 67, 60
1, 141077, Note_on_c, 0, 70, 61
1, 141082, Control_c, 0, 64, 127
1, 141127, Note_on_c, 0, 75, 62
1, 141165, Note_on_c, 0, 63, 0
1, 141170, Note_on_c, 0, 76, 66
1, 141182, Note_on_c, 0, 67, 0
1, 141210, Note_on_c, 0, 64, 0
1, 141230, Note_on_c, 0, 70, 0
1, 141242, Note_on_c, 0, 79, 62
1, 141257, Note_on_c, 0, 75, 0
1, 141292, Note_on_c, 0, 82, 66
1, 141327, Note_on_c, 0, 76, 0
1, 141352, Control_c, 0, 64, 0
1, 141367, Note_on_c, 0, 79, 0
1, 141375, Note_on_c, 0, 61, 65
1, 141392, Note_on_c, 0, 82, 0
1, 141432, Note_on_c, 0, 63, 49
1, 141492, Note_on_c, 0, 66, 57
1, 141537, Note_on_c, 0, 69, 55
1, 141587, Note_on_c, 0, 73, 63
1, 141587, Control_c, 0, 64, 127
1, 141645, Note_on_c, 0, 66, 0
1, 141650, Note_on_c, 0, 61, 0
1, 141657, Note_on_c, 0, 75, 62
1, 141670, Note_on_c, 0, 69, 0
1, 141672, Note_on_c, 0, 73, 0
1, 141722, Note_on_c, 0, 78, 64
1, 141775, Note_on_c, 0, 81, 63
1, 141785, Note_on_c, 0, 75, 0
1, 141787, Control_c, 0, 64, 0
1, 141835, Note_on_c, 0, 63, 0
1, 141837, Note_on_c, 0, 78, 0
1, 141842, Note_on_c, 0, 59, 62
1, 141857, Note_on_c, 0, 81, 0
1, 141912, Note_on_c, 0, 63, 45
1, 141960, Note_on_c, 0, 66, 52
1, 142007, Note_on_c, 0, 69, 54
1, 142032, Control_c, 0, 64, 127
1, 142052, Note_on_c, 0, 71, 57
1, 142110, Note_on_c, 0, 66, 0
1, 142125, Note_on_c, 0, 75, 66
1, 142162, Note_on_c, 0, 59, 0
1, 142170, Note_on_c, 0, 78, 63
1, 142207, Note_on_c, 0, 71, 0
1, 142215, Note_on_c, 0, 81, 63
1, 142232, Note_on_c, 0, 69, 0
1, 142252, Note_on_c, 0, 78, 0
1, 142275, Note_on_c, 0, 81, 0
1, 142275, Note_on_c, 0, 75, 0
1, 142280, Control_c, 0, 64, 0
1, 142300, Note_on_c, 0, 63, 0
1, 142312, Note_on_c, 0, 61, 73
1, 142400, Note_on_c, 0, 65, 54
1, 142450, Note_on_c, 0, 68, 57
1, 142497, Control_c, 0, 64, 127
1, 142500, Note_on_c, 0, 71, 55
1, 142547, Note_on_c, 0, 73, 59
1, 142585, Note_on_c, 0, 71, 0
1, 142587, Note_on_c, 0, 68, 0
1, 142587, Note_on_c, 0, 61, 0
1, 142595, Note_on_c, 0, 77, 63
1, 142655, Note_on_c, 0, 73, 0
1, 142667, Note_on_c, 0, 80, 60
1, 142727, Note_on_c, 0, 77, 0
1, 142732, Note_on_c, 0, 85, 61
1, 142750, Note_on_c, 0, 80, 0
1, 142752, Control_c, 0, 64, 0
1, 142762, Note_on_c, 0, 65, 0
1, 142805, Note_on_c, 0, 59, 69
1, 142817, Note_on_c, 0, 85, 0
1, 142882, Note_on_c, 0, 62, 54
1, 142920, Note_on_c, 0, 65, 49
1, 142992, Note_on_c, 0, 68, 49
1, 142995, Control_c, 0, 64, 127
1, 143055, Note_on_c, 0, 59, 0
1, 143062, Note_on_c, 0, 71, 54
1, 143077, Note_on_c, 0, 65, 0
1, 143080, Note_on_c, 0, 62, 0
1, 143105, Note_on_c, 0, 74, 62
1, 143122, Note_on_c, 0, 68, 0
1, 143157, Note_on_c, 0, 77, 66
1, 143217, Note_on_c, 0, 74, 0
1, 143220, Note_on_c, 0, 71, 0
1, 143227, Note_on_c, 0, 80, 62
1, 143292, Note_on_c, 0, 83, 63
1, 143295, Control_c, 0, 64, 0
1, 143312, Note_on_c, 0, 77, 0
1, 143345, Note_on_c, 0, 57, 69
1, 143360, Note_on_c, 0, 80, 0
1, 143385, Note_on_c, 0, 83, 0
1, 143420, Note_on_c, 0, 61, 55
1, 143512, Note_on_c, 0, 66, 53
1, 143537, Control_c, 0, 64, 127
1, 143582, Note_on_c, 0, 69, 49
1, 143595, Note_on_c, 0, 57, 0
1, 143622, Note_on_c, 0, 61, 0
1, 143642, Note_on_c, 0, 66, 0
1, 143650, Note_on_c, 0, 73, 50
1, 143727, Note_on_c, 0, 78, 52
1, 143737, Note_on_c, 0, 69, 0
1, 143795, Note_on_c, 0, 81, 58
1, 143815, Control_c, 0, 64, 0
1, 143832, Note_on_c, 0, 73, 0
1, 143852, Note_on_c, 0, 78, 0
1, 143860, Note_on_c, 0, 52, 59
1, 143875, Note_on_c, 0, 81, 0
1, 143932, Note_on_c, 0, 57, 45
1, 143980, Note_on_c, 0, 61, 47
1, 144047, Note_on_c, 0, 64, 54
1, 144050, Control_c, 0, 64, 127
1, 144110, Note_on_c, 0, 57, 0
1, 144117, Note_on_c, 0, 69, 60
1, 144132, Note_on_c, 0, 52, 0
1, 144180, Note_on_c, 0, 73, 64
1, 144240, Note_on_c, 0, 64, 0
1, 144240, Note_on_c, 0, 69, 0
1, 144252, Note_on_c, 0, 76, 59
1, 144295, Control_c, 0, 64, 0
1, 144312, Note_on_c, 0, 73, 0
1, 144315, Note_on_c, 0, 61, 0
1, 144335, Note_on_c, 0, 76, 0
1, 144340, Note_on_c, 0, 56, 65
1, 144412, Note_on_c, 0, 57, 46
1, 144480, Note_on_c, 0, 63, 48
1, 144522, Note_on_c, 0, 68, 60
1, 144547, Control_c, 0, 64, 127
1, 144595, Note_on_c, 0, 71, 59
1, 144605, Note_on_c, 0, 56, 0
1, 144635, Note_on_c, 0, 63, 0
1, 144642, Note_on_c, 0, 75, 66
1, 144677, Note_on_c, 0, 57, 0
1, 144680, Note_on_c, 0, 71, 0
1, 144705, Note_on_c, 0, 80, 66
1, 144742, Note_on_c, 0, 75, 0
1, 144745, Note_on_c, 0, 68, 0
1, 144747, Control_c, 0, 64, 0
1, 144802, Note_on_c, 0, 54, 72
1, 144867, Note_on_c, 0, 57, 55
1, 144905, Note_on_c, 0, 80, 0
1, 144917, Note_on_c, 0, 59, 53
1, 144967, Note_on_c, 0, 63, 52
1, 144987, Control_c, 0, 64, 127
1, 145002, Note_on_c, 0, 66, 50
1, 145042, Note_on_c, 0, 54, 0
1, 145062, Note_on_c, 0, 57, 0
1, 145065, Note_on_c, 0, 59, 0
1, 145075, Note_on_c, 0, 71, 54
1, 145085, Note_on_c, 0, 66, 0
1, 145112, Note_on_c, 0, 63, 0
1, 145127, Note_on_c, 0, 75, 61
1, 145142, Control_c, 0, 64, 0
1, 145160, Note_on_c, 0, 71, 0
1, 145192, Note_on_c, 0, 78, 59
1, 145275, Note_on_c, 0, 75, 0
1, 145287, Note_on_c, 0, 59, 66
1, 145355, Note_on_c, 0, 63, 44
1, 145372, Note_on_c, 0, 78, 0
1, 145420, Note_on_c, 0, 66, 41
1, 145475, Control_c, 0, 64, 127
1, 145492, Note_on_c, 0, 69, 45
1, 145560, Note_on_c, 0, 71, 47
1, 145570, Note_on_c, 0, 66, 0
1, 145595, Note_on_c, 0, 69, 0
1, 145600, Note_on_c, 0, 59, 0
1, 145620, Note_on_c, 0, 63, 0
1, 145655, Note_on_c, 0, 75, 57
1, 145725, Note_on_c, 0, 78, 58
1, 145782, Note_on_c, 0, 71, 0
1, 145790, Note_on_c, 0, 83, 64
1, 145817, Control_c, 0, 67, 0
1, 145830, Note_on_c, 0, 75, 0
1, 145875, Note_on_c, 0, 78, 0
1, 145895, Note_on_c, 0, 83, 0
1, 145945, Control_c, 0, 64, 0
1, 145955, Note_on_c, 0, 28, 59
1, 145957, Note_on_c, 0, 40, 58
1, 146177, Note_on_c, 0, 81, 70
1, 146182, Control_c, 0, 64, 127
1, 146265, Note_on_c, 0, 40, 0
1, 146267, Note_on_c, 0, 28, 0
1, 146382, Note_on_c, 0, 83, 61
1, 146465, Note_on_c, 0, 81, 0
1, 146500, Note_on_c, 0, 88, 63
1, 146535, Note_on_c, 0, 83, 0
1, 146582, Note_on_c, 0, 88, 0
1, 146590, Control_c, 0, 64, 0
1, 146615, Note_on_c, 0, 68, 71
1, 146687, Note_on_c, 0, 71, 51
1, 146755, Note_on_c, 0, 76, 54
1, 146825, Control_c, 0, 64, 127
1, 146842, Note_on_c, 0, 80, 59
1, 146880, Note_on_c, 0, 76, 0
1, 146880, Note_on_c, 0, 71, 0
1, 146885, Note_on_c, 0, 68, 0
1, 146935, Note_on_c, 0, 83, 61
1, 146950, Note_on_c, 0, 80, 0
1, 147005, Note_on_c, 0, 88, 61
1, 147042, Note_on_c, 0, 83, 0
1, 147097, Control_c, 0, 64, 0
1, 147100, Note_on_c, 0, 59, 69
1, 147120, Note_on_c, 0, 88, 0
1, 147165, Note_on_c, 0, 64, 43
1, 147235, Note_on_c, 0, 68, 41
1, 147300, Note_on_c, 0, 71, 45
1, 147330, Control_c, 0, 64, 127
1, 147387, Note_on_c, 0, 64, 0
1, 147387, Note_on_c, 0, 59, 0
1, 147397, Note_on_c, 0, 76, 55
1, 147415, Note_on_c, 0, 68, 0
1, 147460, Note_on_c, 0, 71, 0
1, 147462, Note_on_c, 0, 80, 59
1, 147502, Note_on_c, 0, 76, 0
1, 147517, Note_on_c, 0, 83, 61
1, 147575, Note_on_c, 0, 80, 0
1, 147605, Control_c, 0, 64, 0
1, 147620, Note_on_c, 0, 83, 0
1, 147677, Note_on_c, 0, 66, 65
1, 147797, Note_on_c, 0, 68, 46
1, 147847, Control_c, 0, 64, 127
1, 147895, Note_on_c, 0, 71, 50
1, 147905, Note_on_c, 0, 66, 0
1, 147985, Note_on_c, 0, 78, 54
1, 148025, Note_on_c, 0, 68, 0
1, 148077, Note_on_c, 0, 80, 59
1, 148147, Control_c, 0, 64, 0
1, 148165, Note_on_c, 0, 78, 0
1, 148167, Note_on_c, 0, 83, 59
1, 148187, Note_on_c, 0, 71, 0
1, 148205, Note_on_c, 0, 80, 0
1, 148240, Note_on_c, 0, 64, 64
1, 148285, Note_on_c, 0, 68, 45
1, 148320, Note_on_c, 0, 83, 0
1, 148380, Control_c, 0, 64, 127
1, 148397, Note_on_c, 0, 71, 50
1, 148467, Note_on_c, 0, 76, 53
1, 148527, Note_on_c, 0, 71, 0
1, 148527, Note_on_c, 0, 64, 0
1, 148530, Note_on_c, 0, 68, 0
1, 148557, Note_on_c, 0, 80, 58
1, 148625, Note_on_c, 0, 83, 61
1, 148645, Note_on_c, 0, 76, 0
1, 148710, Note_on_c, 0, 80, 0
1, 148740, Note_on_c, 0, 56, 67
1, 148752, Note_on_c, 0, 83, 0
1, 148765, Control_c, 0, 64, 0
1, 148860, Note_on_c, 0, 59, 50
1, 148975, Note_on_c, 0, 64, 53
1, 149002, Control_c, 0, 64, 127
1, 149065, Note_on_c, 0, 68, 48
1, 149125, Note_on_c, 0, 56, 0
1, 149130, Note_on_c, 0, 59, 0
1, 149160, Note_on_c, 0, 71, 53
1, 149175, Note_on_c, 0, 64, 0
1, 149177, Note_on_c, 0, 68, 0
1, 149227, Note_on_c, 0, 76, 61
1, 149277, Note_on_c, 0, 80, 60
1, 149290, Note_on_c, 0, 71, 0
1, 149315, Note_on_c, 0, 76, 0
1, 149325, Control_c, 0, 64, 0
1, 149362, Note_on_c, 0, 80, 0
1, 149370, Note_on_c, 0, 62, 66
1, 149460, Note_on_c, 0, 64, 48
1, 149577, Note_on_c, 0, 68, 46
1, 149607, Control_c, 0, 64, 127
1, 149647, Note_on_c, 0, 74, 55
1, 149737, Note_on_c, 0, 76, 53
1, 149775, Note_on_c, 0, 74, 0
1, 149812, Note_on_c, 0, 80, 60
1, 149825, Note_on_c, 0, 68, 0
1, 149852, Note_on_c, 0, 76, 0
1, 149882, Note_on_c, 0, 86, 66
1, 149900, Note_on_c, 0, 80, 0
1, 149925, Note_on_c, 0, 62, 0
1, 149942, Note_on_c, 0, 86, 0
1, 149945, Note_on_c, 0, 64, 0
1, 150000, Control_c, 0, 64, 0
1, 150027, Note_on_c, 0, 61, 64
1, 150117, Note_on_c, 0, 64, 44
1, 150190, Note_on_c, 0, 68, 43
1, 150242, Control_c, 0, 64, 127
1, 150260, Note_on_c, 0, 73, 48
1, 150300, Note_on_c, 0, 61, 0
1, 150327, Note_on_c, 0, 76, 50
1, 150342, Note_on_c, 0, 73, 0
1, 150345, Note_on_c, 0, 68, 0
1, 150400, Note_on_c, 0, 80, 53
1, 150462, Note_on_c, 0, 76, 0
1, 150465, Note_on_c, 0, 85, 52
1, 150552, Note_on_c, 0, 80, 0
1, 150577, Note_on_c, 0, 85, 0
1, 150602, Note_on_c, 0, 64, 0
1, 150612, Control_c, 0, 64, 0
1, 150615, Note_on_c, 0, 60, 67
1, 150677, Note_on_c, 0, 64, 45
1, 150752, Note_on_c, 0, 68, 47
1, 150817, Note_on_c, 0, 72, 49
1, 150845, Control_c, 0, 64, 127
1, 150890, Note_on_c, 0, 76, 51
1, 150902, Note_on_c, 0, 68, 0
1, 150905, Note_on_c, 0, 60, 0
1, 150952, Note_on_c, 0, 72, 0
1, 150960, Note_on_c, 0, 80, 57
1, 151020, Note_on_c, 0, 76, 0
1, 151025, Note_on_c, 0, 84, 61
1, 151045, Control_c, 0, 64, 0
1, 151090, Note_on_c, 0, 64, 0
1, 151100, Note_on_c, 0, 60, 68
1, 151110, Note_on_c, 0, 80, 0
1, 151160, Note_on_c, 0, 64, 48
1, 151172, Note_on_c, 0, 84, 0
1, 151257, Note_on_c, 0, 68, 51
1, 151285, Control_c, 0, 64, 127
1, 151345, Note_on_c, 0, 72, 53
1, 151382, Note_on_c, 0, 60, 0
1, 151422, Note_on_c, 0, 76, 53
1, 151445, Note_on_c, 0, 68, 0
1, 151480, Note_on_c, 0, 72, 0
1, 151485, Note_on_c, 0, 80, 60
1, 151552, Note_on_c, 0, 84, 63
1, 151565, Note_on_c, 0, 76, 0
1, 151617, Note_on_c, 0, 64, 0
1, 151637, Note_on_c, 0, 80, 0
1, 151667, Note_on_c, 0, 61, 70
1, 151670, Control_c, 0, 64, 0
1, 151747, Note_on_c, 0, 84, 0
1, 151762, Note_on_c, 0, 64, 47
1, 151850, Note_on_c, 0, 69, 47
1, 151902, Control_c, 0, 64, 127
1, 151945, Note_on_c, 0, 73, 47
1, 152005, Note_on_c, 0, 61, 0
1, 152010, Note_on_c, 0, 76, 49
1, 152025, Note_on_c, 0, 69, 0
1, 152027, Note_on_c, 0, 64, 0
1, 152045, Note_on_c, 0, 73, 0
1, 152082, Note_on_c, 0, 81, 55
1, 152117, Note_on_c, 0, 76, 0
1, 152150, Note_on_c, 0, 85, 57
1, 152162, Note_on_c, 0, 81, 0
1, 152230, Note_on_c, 0, 85, 0
1, 152337, Note_on_c, 0, 49, 58
1, 152360, Control_c, 0, 64, 0
1, 152427, Note_on_c, 0, 56, 45
1, 152520, Note_on_c, 0, 59, 47
1, 152592, Control_c, 0, 64, 127
1, 152612, Note_on_c, 0, 61, 49
1, 152700, Note_on_c, 0, 65, 49
1, 152715, Note_on_c, 0, 56, 0
1, 152740, Note_on_c, 0, 49, 0
1, 152742, Note_on_c, 0, 59, 0
1, 152787, Note_on_c, 0, 61, 0
1, 152795, Note_on_c, 0, 68, 45
1, 152832, Note_on_c, 0, 65, 0
1, 152862, Note_on_c, 0, 73, 51
1, 152900, Note_on_c, 0, 68, 0
1, 152942, Note_on_c, 0, 73, 0
1, 152987, Control_c, 0, 67, 127
1, 153025, Note_on_c, 0, 30, 48
1, 153042, Control_c, 0, 64, 0
1, 153162, Note_on_c, 0, 42, 46
1, 153202, Note_on_c, 0, 71, 64
1, 153275, Control_c, 0, 64, 127
1, 153295, Note_on_c, 0, 73, 47
1, 153335, Note_on_c, 0, 42, 0
1, 153335, Note_on_c, 0, 30, 0
1, 153382, Note_on_c, 0, 77, 45
1, 153400, Note_on_c, 0, 73, 0
1, 153420, Note_on_c, 0, 71, 0
1, 153485, Note_on_c, 0, 77, 0
1, 153492, Note_on_c, 0, 80, 52
1, 153557, Note_on_c, 0, 83, 55
1, 153642, Note_on_c, 0, 83, 0
1, 153645, Note_on_c, 0, 80, 0
1, 153652, Control_c, 0, 64, 0
1, 153700, Note_on_c, 0, 57, 63
1, 153767, Note_on_c, 0, 61, 49
1, 153840, Note_on_c, 0, 66, 41
1, 153887, Control_c, 0, 64, 127
1, 153925, Note_on_c, 0, 69, 44
1, 153942, Note_on_c, 0, 57, 0
1, 153947, Note_on_c, 0, 61, 0
1, 153962, Note_on_c, 0, 66, 0
1, 154022, Note_on_c, 0, 73, 47
1, 154082, Note_on_c, 0, 69, 0
1, 154090, Note_on_c, 0, 78, 51
1, 154185, Note_on_c, 0, 81, 53
1, 154200, Note_on_c, 0, 73, 0
1, 154252, Note_on_c, 0, 56, 64
1, 154252, Control_c, 0, 64, 0
1, 154290, Note_on_c, 0, 81, 0
1, 154320, Note_on_c, 0, 61, 41
1, 154360, Note_on_c, 0, 78, 0
1, 154410, Note_on_c, 0, 65, 43
1, 154480, Note_on_c, 0, 68, 46
1, 154485, Control_c, 0, 64, 127
1, 154537, Note_on_c, 0, 56, 0
1, 154547, Note_on_c, 0, 73, 54
1, 154562, Note_on_c, 0, 61, 0
1, 154607, Note_on_c, 0, 68, 0
1, 154612, Note_on_c, 0, 77, 58
1, 154627, Note_on_c, 0, 65, 0
1, 154652, Note_on_c, 0, 73, 0
1, 154682, Note_on_c, 0, 80, 54
1, 154705, Control_c, 0, 64, 0
1, 154752, Note_on_c, 0, 59, 65
1, 154790, Note_on_c, 0, 77, 0
1, 154820, Note_on_c, 0, 62, 46
1, 154832, Note_on_c, 0, 80, 0
1, 154890, Note_on_c, 0, 65, 47
1, 154935, Note_on_c, 0, 68, 48
1, 154937, Control_c, 0, 64, 127
1, 155002, Note_on_c, 0, 71, 50
1, 155040, Note_on_c, 0, 65, 0
1, 155040, Note_on_c, 0, 59, 0
1, 155040, Note_on_c, 0, 62, 0
1, 155067, Note_on_c, 0, 68, 0
1, 155075, Note_on_c, 0, 74, 55
1, 155112, Note_on_c, 0, 71, 0
1, 155140, Note_on_c, 0, 77, 53
1, 155190, Note_on_c, 0, 80, 52
1, 155205, Note_on_c, 0, 74, 0
1, 155260, Note_on_c, 0, 83, 58
1, 155275, Note_on_c, 0, 77, 0
1, 155317, Note_on_c, 0, 80, 0
1, 155360, Note_on_c, 0, 83, 0
1, 155397, Note_on_c, 0, 57, 63
1, 155400, Control_c, 0, 64, 0
1, 155462, Note_on_c, 0, 61, 46
1, 155555, Note_on_c, 0, 66, 45
1, 155630, Control_c, 0, 64, 127
1, 155670, Note_on_c, 0, 69, 48
1, 155732, Note_on_c, 0, 66, 0
1, 155735, Note_on_c, 0, 61, 0
1, 155765, Note_on_c, 0, 73, 50
1, 155802, Note_on_c, 0, 69, 0
1, 155832, Note_on_c, 0, 78, 49
1, 155917, Note_on_c, 0, 57, 0
1, 155922, Control_c, 0, 64, 0
1, 155927, Note_on_c, 0, 81, 47
1, 155942, Note_on_c, 0, 73, 0
1, 156012, Note_on_c, 0, 78, 0
1, 156032, Note_on_c, 0, 81, 0
1, 156040, Note_on_c, 0, 56, 56
1, 156112, Note_on_c, 0, 57, 40
1, 156177, Note_on_c, 0, 61, 44
1, 156235, Control_c, 0, 64, 127
1, 156272, Note_on_c, 0, 64, 46
1, 156310, Note_on_c, 0, 57, 0
1, 156312, Note_on_c, 0, 56, 0
1, 156315, Note_on_c, 0, 61, 0
1, 156345, Note_on_c, 0, 68, 49
1, 156360, Note_on_c, 0, 64, 0
1, 156415, Note_on_c, 0, 73, 58
1, 156477, Note_on_c, 0, 73, 0
1, 156482, Note_on_c, 0, 76, 62
1, 156567, Note_on_c, 0, 68, 0
1, 156575, Note_on_c, 0, 80, 62
1, 156645, Control_c, 0, 64, 0
1, 156690, Note_on_c, 0, 76, 0
1, 156745, Note_on_c, 0, 35, 58
1, 156750, Note_on_c, 0, 47, 54
1, 156805, Note_on_c, 0, 80, 0
1, 156885, Control_c, 0, 64, 127
1, 156902, Note_on_c, 0, 68, 62
1, 156942, Note_on_c, 0, 47, 0
1, 156942, Note_on_c, 0, 35, 0
1, 157000, Note_on_c, 0, 69, 40
1, 157070, Note_on_c, 0, 71, 43
1, 157105, Note_on_c, 0, 69, 0
1, 157140, Note_on_c, 0, 75, 51
1, 157155, Note_on_c, 0, 71, 0
1, 157182, Note_on_c, 0, 68, 0
1, 157207, Note_on_c, 0, 80, 50
1, 157392, Note_on_c, 0, 54, 61
1, 157412, Note_on_c, 0, 75, 0
1, 157432, Note_on_c, 0, 80, 0
1, 157435, Control_c, 0, 64, 0
1, 157490, Note_on_c, 0, 57, 37
1, 157560, Note_on_c, 0, 59, 39
1, 157625, Note_on_c, 0, 63, 44
1, 157695, Note_on_c, 0, 66, 53
1, 157725, Control_c, 0, 64, 127
1, 157762, Note_on_c, 0, 69, 57
1, 157780, Note_on_c, 0, 54, 0
1, 157802, Note_on_c, 0, 57, 0
1, 157802, Note_on_c, 0, 59, 0
1, 157825, Note_on_c, 0, 66, 0
1, 157827, Note_on_c, 0, 63, 0
1, 157865, Note_on_c, 0, 75, 59
1, 157875, Note_on_c, 0, 69, 0
1, 157952, Note_on_c, 0, 78, 54
1, 158065, Note_on_c, 0, 75, 0
1, 158090, Note_on_c, 0, 78, 0
1, 158132, Control_c, 0, 64, 0
1, 158142, Note_on_c, 0, 47, 66
1, 158255, Note_on_c, 0, 54, 38
1, 158345, Note_on_c, 0, 57, 43
1, 158420, Control_c, 0, 64, 127
1, 158440, Note_on_c, 0, 59, 47
1, 158497, Note_on_c, 0, 54, 0
1, 158502, Note_on_c, 0, 47, 0
1, 158520, Note_on_c, 0, 57, 0
1, 158537, Note_on_c, 0, 63, 50
1, 158575, Note_on_c, 0, 59, 0
1, 158602, Note_on_c, 0, 69, 51
1, 158672, Note_on_c, 0, 71, 49
1, 158710, Note_on_c, 0, 63, 0
1, 158755, Note_on_c, 0, 69, 0
1, 158845, Control_c, 0, 64, 0
1, 158895, Note_on_c, 0, 64, 39
1, 158930, Note_on_c, 0, 40, 65
1, 159037, Note_on_c, 0, 47, 45
1, 159125, Control_c, 0, 64, 127
1, 159170, Note_on_c, 0, 52, 44
1, 159182, Note_on_c, 0, 64, 0
1, 159185, Note_on_c, 0, 47, 0
1, 159187, Note_on_c, 0, 40, 0
1, 159257, Note_on_c, 0, 52, 0
1, 159265, Note_on_c, 0, 56, 41
1, 159380, Note_on_c, 0, 59, 40
1, 159417, Note_on_c, 0, 56, 0
1, 159470, Note_on_c, 0, 59, 0
1, 159475, Note_on_c, 0, 64, 64
1, 159492, Note_on_c, 0, 71, 0
1, 159510, Note_on_c, 0, 68, 46
1, 159637, Note_on_c, 0, 71, 47
1, 159702, Note_on_c, 0, 76, 46
1, 159980, Note_on_c, 0, 28, 45
1, 160077, Control_c, 0, 67, 0
1, 160080, Note_on_c, 0, 28, 0
1, 160150, Control_c, 0, 64, 0
1, 160152, Note_on_c, 0, 64, 0
1, 160155, Note_on_c, 0, 76, 0
1, 160177, Note_on_c, 0, 71, 0
1, 160180, Note_on_c, 0, 68, 0
1, 160370, Note_on_c, 0, 40, 54
1, 160495, Note_on_c, 0, 40, 0
1, 160617, Note_on_c, 0, 42, 48
1, 160760, Note_on_c, 0, 42, 0
1, 160860, Note_on_c, 0, 44, 54
1, 160917, Note_on_c, 0, 44, 0
1, 161062, Note_on_c, 0, 52, 43
1, 161107, Control_c, 0, 64, 127
1, 161170, Control_c, 0, 64, 0
1, 161215, Note_on_c, 0, 52, 0
1, 161265, Note_on_c, 0, 54, 43
1, 161440, Note_on_c, 0, 54, 0
1, 161492, Note_on_c, 0, 56, 58
1, 161552, Note_on_c, 0, 56, 0
1, 161675, Note_on_c, 0, 64, 43
1, 161677, Note_on_c, 0, 61, 45
1, 161757, Note_on_c, 0, 64, 0
1, 161777, Note_on_c, 0, 61, 0
1, 161877, Note_on_c, 0, 66, 39
1, 161880, Note_on_c, 0, 63, 44
1, 161952, Note_on_c, 0, 66, 0
1, 162002, Note_on_c, 0, 63, 0
1, 162075, Control_c, 0, 64, 127
1, 162122, Note_on_c, 0, 64, 66
1, 162127, Note_on_c, 0, 68, 64
1, 162345, Note_on_c, 0, 64, 0
1, 162435, Note_on_c, 0, 68, 0
1, 162440, Note_on_c, 0, 64, 58
1, 162547, Control_c, 0, 64, 0
1, 162557, Note_on_c, 0, 68, 61
1, 162557, Note_on_c, 0, 61, 47
1, 162597, Note_on_c, 0, 64, 0
1, 162615, Note_on_c, 0, 61, 0
1, 162617, Note_on_c, 0, 68, 0
1, 162737, Note_on_c, 0, 64, 52
1, 162742, Note_on_c, 0, 58, 46
1, 162765, Note_on_c, 0, 73, 52
1, 162825, Note_on_c, 0, 58, 0
1, 162875, Note_on_c, 0, 73, 0
1, 162895, Note_on_c, 0, 64, 0
1, 162947, Note_on_c, 0, 46, 48
1, 162950, Note_on_c, 0, 68, 44
1, 163055, Note_on_c, 0, 68, 0
1, 163097, Note_on_c, 0, 46, 0
1, 163105, Note_on_c, 0, 58, 43
1, 163127, Note_on_c, 0, 64, 52
1, 163152, Note_on_c, 0, 73, 59
1, 163187, Note_on_c, 0, 58, 0
1, 163260, Note_on_c, 0, 73, 0
1, 163277, Note_on_c, 0, 64, 0
1, 163307, Control_c, 0, 64, 127
1, 163332, Note_on_c, 0, 51, 43
1, 163335, Note_on_c, 0, 71, 44
1, 163355, Note_on_c, 0, 63, 45
1, 163440, Note_on_c, 0, 63, 0
1, 163507, Note_on_c, 0, 71, 0
1, 163517, Note_on_c, 0, 68, 51
1, 163527, Note_on_c, 0, 51, 0
1, 163537, Note_on_c, 0, 63, 45
1, 163540, Note_on_c, 0, 50, 44
1, 163620, Note_on_c, 0, 63, 0
1, 163665, Note_on_c, 0, 68, 0
1, 163682, Note_on_c, 0, 50, 0
1, 163697, Note_on_c, 0, 51, 43
1, 163720, Note_on_c, 0, 71, 51
1, 163720, Note_on_c, 0, 63, 43
1, 163780, Note_on_c, 0, 51, 0
1, 163800, Control_c, 0, 64, 0
1, 163847, Note_on_c, 0, 71, 0
1, 163850, Note_on_c, 0, 63, 0
1, 163910, Note_on_c, 0, 70, 48
1, 163927, Note_on_c, 0, 61, 48
1, 163932, Note_on_c, 0, 39, 58
1, 163987, Control_c, 0, 64, 127
1, 164050, Note_on_c, 0, 61, 0
1, 164087, Note_on_c, 0, 58, 48
1, 164090, Note_on_c, 0, 38, 58
1, 164100, Note_on_c, 0, 39, 0
1, 164102, Note_on_c, 0, 67, 43
1, 164162, Note_on_c, 0, 58, 0
1, 164187, Note_on_c, 0, 70, 0
1, 164210, Note_on_c, 0, 67, 0
1, 164222, Note_on_c, 0, 39, 59
1, 164235, Note_on_c, 0, 38, 0
1, 164267, Note_on_c, 0, 70, 53
1, 164267, Note_on_c, 0, 61, 54
1, 164280, Control_c, 0, 64, 0
1, 164312, Note_on_c, 0, 32, 64
1, 164345, Note_on_c, 0, 61, 0
1, 164345, Note_on_c, 0, 39, 0
1, 164420, Note_on_c, 0, 70, 0
1, 164452, Note_on_c, 0, 44, 70
1, 164477, Note_on_c, 0, 68, 61
1, 164520, Control_c, 0, 64, 127
1, 164572, Note_on_c, 0, 80, 65
1, 164580, Note_on_c, 0, 44, 0
1, 164580, Note_on_c, 0, 32, 0
1, 164582, Note_on_c, 0, 68, 0
1, 164637, Note_on_c, 0, 80, 0
1, 164687, Note_on_c, 0, 80, 71
1, 164775, Note_on_c, 0, 80, 0
1, 164785, Note_on_c, 0, 92, 84
1, 164845, Note_on_c, 0, 92, 0
1, 164872, Note_on_c, 0, 56, 70
1, 164875, Note_on_c, 0, 59, 72
1, 164875, Note_on_c, 0, 51, 71
1, 164877, Note_on_c, 0, 63, 73
1, 164902, Note_on_c, 0, 80, 75
1, 164905, Note_on_c, 0, 92, 78
1, 164905, Note_on_c, 0, 87, 79
1, 164965, Note_on_c, 0, 51, 0
1, 164990, Note_on_c, 0, 87, 0
1, 165010, Note_on_c, 0, 92, 0
1, 165012, Note_on_c, 0, 80, 0
1, 165055, Note_on_c, 0, 63, 0
1, 165055, Note_on_c, 0, 59, 0
1, 165072, Note_on_c, 0, 56, 0
1, 165112, Control_c, 0, 67, 127
1, 165260, Control_c, 0, 64, 0
1, 165687, Note_on_c, 0, 44, 62
1, 165867, Control_c, 0, 64, 127
1, 165915, Note_on_c, 0, 46, 53
1, 166067, Note_on_c, 0, 44, 0
1, 166127, Note_on_c, 0, 47, 50
1, 166160, Control_c, 0, 67, 0
1, 166202, Note_on_c, 0, 46, 0
1, 166227, Note_on_c, 0, 47, 0
1, 166247, Control_c, 0, 64, 0
1, 166355, Note_on_c, 0, 59, 41
1, 166357, Note_on_c, 0, 56, 47
1, 166477, Note_on_c, 0, 56, 0
1, 166482, Note_on_c, 0, 59, 0
1, 166560, Note_on_c, 0, 58, 58
1, 166560, Note_on_c, 0, 61, 55
1, 166640, Note_on_c, 0, 58, 0
1, 166690, Note_on_c, 0, 61, 0
1, 166742, Note_on_c, 0, 63, 59
1, 166742, Note_on_c, 0, 59, 60
1, 166822, Note_on_c, 0, 59, 0
1, 166830, Control_c, 0, 64, 127
1, 166880, Note_on_c, 0, 63, 0
1, 166947, Note_on_c, 0, 71, 46
1, 166947, Note_on_c, 0, 68, 47
1, 167052, Note_on_c, 0, 71, 0
1, 167075, Note_on_c, 0, 68, 0
1, 167122, Note_on_c, 0, 70, 51
1, 167127, Note_on_c, 0, 73, 58
1, 167277, Note_on_c, 0, 73, 0
1, 167297, Note_on_c, 0, 70, 0
1, 167332, Note_on_c, 0, 71, 45
1, 167335, Note_on_c, 0, 75, 49
1, 167480, Note_on_c, 0, 71, 0
1, 167620, Note_on_c, 0, 75, 0
1, 167647, Note_on_c, 0, 68, 61
1, 167650, Note_on_c, 0, 71, 63
1, 167707, Note_on_c, 0, 71, 0
1, 167735, Note_on_c, 0, 68, 0
1, 167742, Note_on_c, 0, 71, 61
1, 167745, Note_on_c, 0, 75, 62
1, 167822, Note_on_c, 0, 71, 0
1, 167870, Note_on_c, 0, 75, 0
1, 167940, Note_on_c, 0, 71, 59
1, 167940, Note_on_c, 0, 65, 61
1, 167942, Note_on_c, 0, 80, 62
1, 168095, Note_on_c, 0, 71, 0
1, 168122, Note_on_c, 0, 75, 51
1, 168145, Note_on_c, 0, 53, 50
1, 168155, Control_c, 0, 64, 0
1, 168157, Note_on_c, 0, 65, 0
1, 168182, Note_on_c, 0, 80, 0
1, 168277, Note_on_c, 0, 75, 0
1, 168297, Control_c, 0, 64, 127
1, 168300, Note_on_c, 0, 65, 59
1, 168330, Note_on_c, 0, 71, 61
1, 168332, Note_on_c, 0, 80, 62
1, 168340, Control_c, 0, 64, 0
1, 168402, Note_on_c, 0, 65, 0
1, 168412, Note_on_c, 0, 53, 0
1, 168417, Note_on_c, 0, 71, 0
1, 168462, Note_on_c, 0, 80, 0
1, 168502, Note_on_c, 0, 58, 51
1, 168530, Note_on_c, 0, 70, 54
1, 168532, Note_on_c, 0, 78, 58
1, 168545, Control_c, 0, 64, 127
1, 168590, Note_on_c, 0, 58, 0
1, 168675, Control_c, 0, 64, 0
1, 168732, Note_on_c, 0, 46, 53
1, 168740, Note_on_c, 0, 75, 50
1, 168780, Note_on_c, 0, 78, 0
1, 168797, Note_on_c, 0, 70, 0
1, 168912, Note_on_c, 0, 75, 0
1, 168917, Note_on_c, 0, 58, 47
1, 168922, Note_on_c, 0, 78, 62
1, 168940, Note_on_c, 0, 70, 59
1, 169017, Note_on_c, 0, 58, 0
1, 169037, Note_on_c, 0, 46, 0
1, 169065, Note_on_c, 0, 70, 0
1, 169067, Control_c, 0, 64, 127
1, 169115, Note_on_c, 0, 78, 0
1, 169160, Note_on_c, 0, 46, 64
1, 169165, Note_on_c, 0, 68, 59
1, 169167, Note_on_c, 0, 77, 63
1, 169320, Note_on_c, 0, 68, 0
1, 169347, Note_on_c, 0, 34, 62
1, 169370, Note_on_c, 0, 65, 59
1, 169395, Note_on_c, 0, 74, 64
1, 169430, Note_on_c, 0, 46, 0
1, 169477, Note_on_c, 0, 65, 0
1, 169482, Note_on_c, 0, 77, 0
1, 169520, Note_on_c, 0, 34, 0
1, 169525, Note_on_c, 0, 74, 0
1, 169530, Note_on_c, 0, 46, 66
1, 169580, Note_on_c, 0, 68, 65
1, 169585, Note_on_c, 0, 77, 68
1, 169637, Note_on_c, 0, 46, 0
1, 169642, Note_on_c, 0, 68, 0
1, 169680, Control_c, 0, 64, 0
1, 169757, Note_on_c, 0, 77, 0
1, 169807, Note_on_c, 0, 67, 57
1, 169807, Note_on_c, 0, 58, 64
1, 169877, Note_on_c, 0, 73, 61
1, 169892, Control_c, 0, 64, 127
1, 169902, Note_on_c, 0, 76, 59
1, 169935, Note_on_c, 0, 67, 0
1, 169957, Note_on_c, 0, 58, 0
1, 169982, Note_on_c, 0, 73, 0
1, 169985, Note_on_c, 0, 76, 0
1, 169992, Note_on_c, 0, 79, 63
1, 170085, Note_on_c, 0, 59, 59
1, 170090, Note_on_c, 0, 88, 68
1, 170090, Note_on_c, 0, 85, 67
1, 170127, Note_on_c, 0, 79, 0
1, 170150, Note_on_c, 0, 85, 0
1, 170152, Note_on_c, 0, 88, 0
1, 170175, Note_on_c, 0, 58, 62
1, 170202, Note_on_c, 0, 88, 74
1, 170202, Note_on_c, 0, 85, 75
1, 170235, Note_on_c, 0, 59, 0
1, 170257, Note_on_c, 0, 58, 0
1, 170262, Note_on_c, 0, 85, 0
1, 170265, Note_on_c, 0, 88, 0
1, 170297, Control_c, 0, 64, 0
1, 170422, Note_on_c, 0, 59, 60
1, 170490, Note_on_c, 0, 68, 54
1, 170550, Control_c, 0, 64, 127
1, 170557, Note_on_c, 0, 77, 54
1, 170557, Note_on_c, 0, 74, 54
1, 170617, Note_on_c, 0, 59, 0
1, 170620, Note_on_c, 0, 68, 0
1, 170642, Note_on_c, 0, 77, 0
1, 170645, Note_on_c, 0, 74, 0
1, 170675, Note_on_c, 0, 62, 51
1, 170677, Note_on_c, 0, 80, 58
1, 170757, Note_on_c, 0, 80, 0
1, 170762, Note_on_c, 0, 89, 66
1, 170765, Note_on_c, 0, 86, 62
1, 170822, Note_on_c, 0, 89, 0
1, 170825, Note_on_c, 0, 86, 0
1, 170847, Note_on_c, 0, 62, 0
1, 170875, Note_on_c, 0, 89, 62
1, 170875, Note_on_c, 0, 61, 61
1, 170877, Note_on_c, 0, 86, 66
1, 170882, Control_c, 0, 64, 0
1, 170935, Note_on_c, 0, 89, 0
1, 170940, Note_on_c, 0, 86, 0
1, 171027, Note_on_c, 0, 61, 0
1, 171105, Note_on_c, 0, 58, 58
1, 171127, Note_on_c, 0, 67, 53
1, 171172, Control_c, 0, 64, 127
1, 171200, Note_on_c, 0, 73, 61
1, 171222, Note_on_c, 0, 76, 59
1, 171232, Note_on_c, 0, 58, 0
1, 171235, Note_on_c, 0, 67, 0
1, 171260, Note_on_c, 0, 73, 0
1, 171285, Note_on_c, 0, 76, 0
1, 171322, Note_on_c, 0, 79, 64
1, 171430, Note_on_c, 0, 59, 58
1, 171432, Note_on_c, 0, 85, 69
1, 171435, Note_on_c, 0, 88, 70
1, 171450, Note_on_c, 0, 79, 0
1, 171495, Note_on_c, 0, 85, 0
1, 171497, Note_on_c, 0, 88, 0
1, 171552, Note_on_c, 0, 88, 73
1, 171552, Note_on_c, 0, 85, 75
1, 171587, Note_on_c, 0, 59, 0
1, 171592, Note_on_c, 0, 58, 63
1, 171605, Control_c, 0, 64, 0
1, 171610, Note_on_c, 0, 85, 0
1, 171610, Note_on_c, 0, 88, 0
1, 171675, Note_on_c, 0, 58, 0
1, 171800, Note_on_c, 0, 59, 65
1, 171802, Note_on_c, 0, 68, 55
1, 171890, Control_c, 0, 64, 127
1, 171895, Note_on_c, 0, 77, 66
1, 171895, Note_on_c, 0, 74, 64
1, 171952, Note_on_c, 0, 77, 0
1, 171952, Note_on_c, 0, 68, 0
1, 171955, Note_on_c, 0, 74, 0
1, 171990, Note_on_c, 0, 80, 67
1, 172092, Note_on_c, 0, 80, 0
1, 172097, Note_on_c, 0, 89, 73
1, 172097, Note_on_c, 0, 61, 65
1, 172100, Note_on_c, 0, 86, 72
1, 172137, Note_on_c, 0, 59, 0
1, 172157, Note_on_c, 0, 89, 0
1, 172162, Note_on_c, 0, 86, 0
1, 172182, Note_on_c, 0, 61, 0
1, 172235, Note_on_c, 0, 59, 63
1, 172237, Note_on_c, 0, 89, 70
1, 172240, Note_on_c, 0, 86, 69
1, 172295, Note_on_c, 0, 89, 0
1, 172297, Note_on_c, 0, 86, 0
1, 172315, Control_c, 0, 64, 0
1, 172340, Note_on_c, 0, 59, 0
1, 172512, Note_on_c, 0, 69, 54
1, 172515, Note_on_c, 0, 60, 65
1, 172557, Control_c, 0, 64, 127
1, 172597, Note_on_c, 0, 69, 0
1, 172605, Note_on_c, 0, 75, 54
1, 172607, Note_on_c, 0, 78, 54
1, 172687, Note_on_c, 0, 75, 0
1, 172690, Note_on_c, 0, 78, 0
1, 172725, Note_on_c, 0, 81, 61
1, 172807, Note_on_c, 0, 90, 64
1, 172807, Note_on_c, 0, 61, 64
1, 172810, Note_on_c, 0, 87, 65
1, 172825, Note_on_c, 0, 60, 0
1, 172847, Note_on_c, 0, 81, 0
1, 172870, Note_on_c, 0, 90, 0
1, 172872, Note_on_c, 0, 87, 0
1, 172920, Note_on_c, 0, 61, 0
1, 172947, Note_on_c, 0, 90, 66
1, 172950, Note_on_c, 0, 87, 64
1, 172950, Note_on_c, 0, 60, 66
1, 173007, Note_on_c, 0, 90, 0
1, 173010, Note_on_c, 0, 87, 0
1, 173030, Control_c, 0, 64, 0
1, 173057, Note_on_c, 0, 60, 0
1, 173202, Note_on_c, 0, 61, 63
1, 173227, Note_on_c, 0, 70, 53
1, 173270, Control_c, 0, 64, 127
1, 173272, Note_on_c, 0, 79, 59
1, 173275, Note_on_c, 0, 76, 59
1, 173332, Note_on_c, 0, 70, 0
1, 173340, Note_on_c, 0, 82, 61
1, 173355, Note_on_c, 0, 79, 0
1, 173367, Note_on_c, 0, 76, 0
1, 173410, Note_on_c, 0, 64, 55
1, 173427, Note_on_c, 0, 61, 0
1, 173475, Note_on_c, 0, 82, 0
1, 173480, Note_on_c, 0, 88, 65
1, 173482, Note_on_c, 0, 91, 66
1, 173540, Note_on_c, 0, 91, 0
1, 173542, Note_on_c, 0, 88, 0
1, 173595, Note_on_c, 0, 63, 62
1, 173597, Note_on_c, 0, 88, 66
1, 173600, Note_on_c, 0, 91, 67
1, 173635, Control_c, 0, 64, 0
1, 173655, Note_on_c, 0, 88, 0
1, 173677, Note_on_c, 0, 91, 0
1, 173720, Note_on_c, 0, 64, 0
1, 173795, Note_on_c, 0, 63, 0
1, 173887, Note_on_c, 0, 69, 53
1, 173892, Note_on_c, 0, 60, 66
1, 173937, Control_c, 0, 64, 127
1, 173957, Note_on_c, 0, 75, 59
1, 173975, Note_on_c, 0, 69, 0
1, 173985, Note_on_c, 0, 78, 59
1, 174022, Note_on_c, 0, 75, 0
1, 174067, Note_on_c, 0, 78, 0
1, 174107, Note_on_c, 0, 81, 62
1, 174172, Note_on_c, 0, 61, 65
1, 174185, Note_on_c, 0, 60, 0
1, 174187, Note_on_c, 0, 81, 0
1, 174192, Note_on_c, 0, 90, 70
1, 174195, Note_on_c, 0, 87, 71
1, 174252, Note_on_c, 0, 90, 0
1, 174255, Note_on_c, 0, 87, 0
1, 174277, Note_on_c, 0, 61, 0
1, 174307, Note_on_c, 0, 90, 69
1, 174307, Note_on_c, 0, 87, 71
1, 174310, Note_on_c, 0, 60, 66
1, 174365, Note_on_c, 0, 90, 0
1, 174367, Note_on_c, 0, 87, 0
1, 174410, Control_c, 0, 64, 0
1, 174412, Note_on_c, 0, 60, 0
1, 174532, Note_on_c, 0, 61, 64
1, 174550, Note_on_c, 0, 70, 66
1, 174642, Control_c, 0, 64, 127
1, 174645, Note_on_c, 0, 79, 72
1, 174665, Note_on_c, 0, 76, 73
1, 174702, Note_on_c, 0, 79, 0
1, 174702, Note_on_c, 0, 70, 0
1, 174725, Note_on_c, 0, 76, 0
1, 174755, Note_on_c, 0, 82, 72
1, 174815, Note_on_c, 0, 82, 0
1, 174825, Note_on_c, 0, 91, 78
1, 174842, Note_on_c, 0, 88, 79
1, 174857, Note_on_c, 0, 61, 0
1, 174900, Note_on_c, 0, 88, 0
1, 174912, Note_on_c, 0, 62, 66
1, 174930, Note_on_c, 0, 89, 83
1, 174932, Note_on_c, 0, 92, 85
1, 174932, Note_on_c, 0, 83, 81
1, 174970, Note_on_c, 0, 91, 0
1, 174992, Note_on_c, 0, 89, 0
1, 174995, Note_on_c, 0, 62, 0
1, 175017, Note_on_c, 0, 92, 0
1, 175037, Note_on_c, 0, 83, 0
1, 175040, Control_c, 0, 64, 0
1, 175227, Note_on_c, 0, 63, 74
1, 175230, Note_on_c, 0, 75, 83
1, 175230, Note_on_c, 0, 51, 72
1, 175235, Note_on_c, 0, 39, 83
1, 175275, Control_c, 0, 64, 127
1, 175335, Note_on_c, 0, 51, 0
1, 175342, Note_on_c, 0, 87, 82
1, 175360, Note_on_c, 0, 63, 0
1, 175360, Note_on_c, 0, 75, 0
1, 175362, Note_on_c, 0, 39, 0
1, 175402, Note_on_c, 0, 87, 0
1, 175457, Note_on_c, 0, 87, 82
1, 175520, Note_on_c, 0, 99, 82
1, 175522, Note_on_c, 0, 65, 75
1, 175540, Note_on_c, 0, 87, 0
1, 175580, Note_on_c, 0, 99, 0
1, 175617, Note_on_c, 0, 63, 77
1, 175630, Note_on_c, 0, 65, 0
1, 175637, Note_on_c, 0, 99, 84
1, 175642, Note_on_c, 0, 87, 80
1, 175717, Note_on_c, 0, 99, 0
1, 175745, Note_on_c, 0, 87, 0
1, 175935, Note_on_c, 0, 77, 58
1, 175935, Note_on_c, 0, 68, 64
1, 175960, Note_on_c, 0, 75, 55
1, 175960, Note_on_c, 0, 71, 52
1, 176040, Note_on_c, 0, 63, 0
1, 176042, Note_on_c, 0, 71, 0
1, 176065, Note_on_c, 0, 75, 0
1, 176085, Note_on_c, 0, 77, 0
1, 176180, Note_on_c, 0, 71, 60
1, 176182, Note_on_c, 0, 80, 66
1, 176205, Note_on_c, 0, 75, 64
1, 176260, Note_on_c, 0, 68, 0
1, 176330, Note_on_c, 0, 75, 0
1, 176330, Note_on_c, 0, 80, 0
1, 176380, Note_on_c, 0, 70, 63
1, 176382, Note_on_c, 0, 79, 67
1, 176400, Note_on_c, 0, 71, 0
1, 176405, Note_on_c, 0, 75, 69
1, 176442, Control_c, 0, 64, 0
1, 176485, Note_on_c, 0, 70, 0
1, 176510, Note_on_c, 0, 75, 0
1, 176512, Note_on_c, 0, 79, 0
1, 176520, Note_on_c, 0, 63, 65
1, 176520, Note_on_c, 0, 51, 64
1, 176635, Note_on_c, 0, 75, 68
1, 176680, Control_c, 0, 64, 127
1, 176740, Note_on_c, 0, 75, 0
1, 176740, Note_on_c, 0, 51, 0
1, 176747, Note_on_c, 0, 87, 71
1, 176805, Note_on_c, 0, 87, 0
1, 176862, Note_on_c, 0, 87, 74
1, 176875, Note_on_c, 0, 63, 0
1, 176920, Note_on_c, 0, 87, 0
1, 176925, Note_on_c, 0, 99, 83
1, 176945, Note_on_c, 0, 65, 69
1, 176982, Note_on_c, 0, 99, 0
1, 177037, Note_on_c, 0, 99, 83
1, 177040, Note_on_c, 0, 63, 75
1, 177042, Note_on_c, 0, 87, 77
1, 177077, Note_on_c, 0, 65, 0
1, 177115, Note_on_c, 0, 99, 0
1, 177142, Note_on_c, 0, 87, 0
1, 177212, Note_on_c, 0, 63, 0
1, 177237, Control_c, 0, 64, 0
1, 177355, Note_on_c, 0, 64, 65
1, 177355, Note_on_c, 0, 57, 66
1, 177375, Note_on_c, 0, 67, 66
1, 177377, Note_on_c, 0, 73, 69
1, 177537, Control_c, 0, 64, 127
1, 177592, Note_on_c, 0, 57, 0
1, 177660, Note_on_c, 0, 73, 0
1, 177682, Note_on_c, 0, 64, 0
1, 177685, Note_on_c, 0, 67, 0
1, 177717, Note_on_c, 0, 66, 63
1, 177720, Note_on_c, 0, 75, 63
1, 177720, Note_on_c, 0, 71, 63
1, 177775, Note_on_c, 0, 66, 0
1, 177782, Note_on_c, 0, 64, 60
1, 177782, Note_on_c, 0, 57, 59
1, 177825, Note_on_c, 0, 71, 0
1, 177832, Note_on_c, 0, 67, 63
1, 177835, Note_on_c, 0, 73, 66
1, 177867, Note_on_c, 0, 57, 0
1, 177912, Note_on_c, 0, 67, 0
1, 177935, Note_on_c, 0, 64, 0
1, 177937, Control_c, 0, 64, 0
1, 177940, Note_on_c, 0, 75, 0
1, 177960, Note_on_c, 0, 73, 0
1, 178100, Note_on_c, 0, 75, 63
1, 178102, Note_on_c, 0, 51, 63
1, 178105, Note_on_c, 0, 39, 75
1, 178172, Control_c, 0, 64, 127
1, 178232, Note_on_c, 0, 39, 0
1, 178232, Note_on_c, 0, 51, 0
1, 178240, Note_on_c, 0, 87, 62
1, 178255, Note_on_c, 0, 75, 0
1, 178297, Note_on_c, 0, 87, 0
1, 178377, Note_on_c, 0, 87, 68
1, 178445, Note_on_c, 0, 53, 64
1, 178462, Note_on_c, 0, 99, 76
1, 178480, Note_on_c, 0, 87, 0
1, 178520, Note_on_c, 0, 99, 0
1, 178537, Note_on_c, 0, 51, 67
1, 178572, Note_on_c, 0, 53, 0
1, 178577, Note_on_c, 0, 99, 80
1, 178582, Note_on_c, 0, 87, 76
1, 178657, Note_on_c, 0, 99, 0
1, 178685, Note_on_c, 0, 87, 0
1, 178970, Note_on_c, 0, 56, 60
1, 178992, Note_on_c, 0, 65, 37
1, 179017, Note_on_c, 0, 63, 35
1, 179052, Note_on_c, 0, 51, 0
1, 179187, Note_on_c, 0, 63, 0
1, 179190, Control_c, 0, 64, 0
1, 179232, Note_on_c, 0, 65, 0
1, 179312, Note_on_c, 0, 68, 36
1, 179335, Note_on_c, 0, 63, 36
1, 179335, Note_on_c, 0, 59, 37
1, 179427, Control_c, 0, 64, 127
1, 179525, Note_on_c, 0, 56, 0
1, 179527, Note_on_c, 0, 59, 0
1, 179527, Note_on_c, 0, 63, 0
1, 179552, Note_on_c, 0, 68, 0
1, 179607, Note_on_c, 0, 67, 47
1, 179610, Note_on_c, 0, 58, 46
1, 179630, Note_on_c, 0, 63, 49
1, 179662, Control_c, 0, 67, 127
1, 179665, Note_on_c, 0, 58, 0
1, 179710, Control_c, 0, 64, 0
1, 179755, Note_on_c, 0, 67, 0
1, 179770, Note_on_c, 0, 51, 41
1, 179770, Note_on_c, 0, 39, 47
1, 179780, Note_on_c, 0, 63, 0
1, 179827, Note_on_c, 0, 55, 45
1, 179900, Note_on_c, 0, 63, 50
1, 179945, Control_c, 0, 64, 127
1, 180002, Note_on_c, 0, 51, 0
1, 180005, Note_on_c, 0, 39, 0
1, 180092, Note_on_c, 0, 63, 0
1, 180182, Control_c, 0, 64, 0
1, 180217, Note_on_c, 0, 63, 45
1, 180220, Note_on_c, 0, 61, 46
1, 180267, Note_on_c, 0, 53, 48
1, 180422, Control_c, 0, 64, 127
1, 180432, Note_on_c, 0, 55, 0
1, 180437, Note_on_c, 0, 63, 0
1, 180437, Note_on_c, 0, 61, 0
1, 180502, Note_on_c, 0, 53, 0
1, 180532, Note_on_c, 0, 63, 50
1, 180557, Note_on_c, 0, 60, 50
1, 180595, Control_c, 0, 64, 0
1, 180607, Note_on_c, 0, 51, 53
1, 180765, Control_c, 0, 64, 127
1, 180800, Note_on_c, 0, 63, 0
1, 180822, Note_on_c, 0, 51, 0
1, 180825, Note_on_c, 0, 60, 0
1, 180865, Control_c, 0, 64, 0
1, 180892, Note_on_c, 0, 55, 58
1, 180895, Note_on_c, 0, 63, 57
1, 180915, Note_on_c, 0, 57, 55
1, 180967, Note_on_c, 0, 48, 53
1, 180995, Control_c, 0, 64, 127
1, 181157, Note_on_c, 0, 55, 0
1, 181202, Control_c, 0, 64, 0
1, 181222, Note_on_c, 0, 57, 0
1, 181225, Note_on_c, 0, 63, 0
1, 181347, Note_on_c, 0, 49, 48
1, 181367, Note_on_c, 0, 48, 0
1, 181392, Note_on_c, 0, 55, 45
1, 181415, Note_on_c, 0, 63, 47
1, 181415, Note_on_c, 0, 58, 46
1, 181440, Control_c, 0, 64, 127
1, 181540, Note_on_c, 0, 58, 0
1, 181540, Note_on_c, 0, 49, 0
1, 181540, Note_on_c, 0, 55, 0
1, 181632, Control_c, 0, 64, 0
1, 181735, Note_on_c, 0, 39, 57
1, 181825, Note_on_c, 0, 51, 47
1, 181865, Control_c, 0, 64, 127
1, 181882, Note_on_c, 0, 63, 0
1, 181910, Note_on_c, 0, 55, 46
1, 181972, Note_on_c, 0, 39, 0
1, 182000, Note_on_c, 0, 59, 47
1, 182015, Note_on_c, 0, 55, 0
1, 182067, Note_on_c, 0, 63, 47
1, 182102, Note_on_c, 0, 59, 0
1, 182217, Note_on_c, 0, 63, 0
1, 182635, Note_on_c, 0, 44, 49
1, 182695, Note_on_c, 0, 51, 0
1, 182720, Control_c, 0, 64, 0
1, 182815, Note_on_c, 0, 65, 37
1, 182817, Note_on_c, 0, 63, 39
1, 182820, Note_on_c, 0, 60, 39
1, 182920, Note_on_c, 0, 44, 0
1, 183000, Control_c, 0, 64, 127
1, 183057, Note_on_c, 0, 63, 0
1, 183077, Note_on_c, 0, 60, 0
1, 183097, Note_on_c, 0, 65, 0
1, 183107, Note_on_c, 0, 51, 39
1, 183177, Note_on_c, 0, 72, 47
1, 183252, Note_on_c, 0, 72, 0
1, 183322, Note_on_c, 0, 51, 0
1, 183352, Note_on_c, 0, 63, 39
1, 183355, Note_on_c, 0, 72, 54
1, 183475, Note_on_c, 0, 72, 0
1, 183485, Note_on_c, 0, 75, 64
1, 183542, Note_on_c, 0, 63, 0
1, 183545, Note_on_c, 0, 75, 0
1, 183597, Note_on_c, 0, 75, 64
1, 183625, Note_on_c, 0, 51, 37
1, 183732, Note_on_c, 0, 77, 64
1, 183750, Note_on_c, 0, 75, 0
1, 183792, Note_on_c, 0, 77, 0
1, 183850, Note_on_c, 0, 77, 64
1, 183855, Note_on_c, 0, 33, 65
1, 183875, Note_on_c, 0, 45, 64
1, 183907, Note_on_c, 0, 33, 0
1, 183952, Note_on_c, 0, 45, 0
1, 183960, Note_on_c, 0, 84, 66
1, 183972, Note_on_c, 0, 77, 0
1, 184020, Note_on_c, 0, 84, 0
1, 184075, Note_on_c, 0, 84, 68
1, 184140, Note_on_c, 0, 87, 69
1, 184150, Note_on_c, 0, 84, 0
1, 184175, Note_on_c, 0, 51, 0
1, 184200, Note_on_c, 0, 87, 0
1, 184245, Control_c, 0, 64, 0
1, 184297, Note_on_c, 0, 51, 35
1, 184365, Note_on_c, 0, 63, 39
1, 184560, Note_on_c, 0, 63, 0
1, 184632, Note_on_c, 0, 34, 46
1, 184657, Note_on_c, 0, 46, 46
1, 184670, Note_on_c, 0, 51, 0
1, 184680, Note_on_c, 0, 65, 35
1, 184705, Control_c, 0, 64, 127
1, 184785, Note_on_c, 0, 34, 0
1, 184792, Note_on_c, 0, 73, 45
1, 184795, Note_on_c, 0, 75, 46
1, 184830, Note_on_c, 0, 65, 0
1, 184852, Note_on_c, 0, 46, 0
1, 184855, Note_on_c, 0, 73, 0
1, 184855, Note_on_c, 0, 75, 0
1, 184907, Note_on_c, 0, 73, 44
1, 184910, Note_on_c, 0, 75, 45
1, 184927, Note_on_c, 0, 55, 39
1, 184930, Note_on_c, 0, 61, 39
1, 184990, Note_on_c, 0, 73, 0
1, 184997, Note_on_c, 0, 67, 47
1, 185012, Note_on_c, 0, 55, 0
1, 185015, Note_on_c, 0, 75, 0
1, 185040, Note_on_c, 0, 61, 0
1, 185040, Control_c, 0, 64, 0
1, 185050, Note_on_c, 0, 51, 38
1, 185105, Note_on_c, 0, 67, 0
1, 185112, Note_on_c, 0, 63, 41
1, 185172, Note_on_c, 0, 51, 0
1, 185220, Note_on_c, 0, 63, 0
1, 185362, Control_c, 0, 64, 127
1, 185390, Note_on_c, 0, 27, 46
1, 185467, Note_on_c, 0, 27, 0
1, 185477, Note_on_c, 0, 39, 46
1, 185497, Note_on_c, 0, 65, 45
1, 185562, Note_on_c, 0, 39, 0
1, 185607, Note_on_c, 0, 65, 0
1, 185615, Note_on_c, 0, 75, 54
1, 185615, Note_on_c, 0, 73, 53
1, 185675, Note_on_c, 0, 73, 0
1, 185675, Note_on_c, 0, 75, 0
1, 185730, Note_on_c, 0, 55, 52
1, 185732, Note_on_c, 0, 61, 51
1, 185735, Note_on_c, 0, 75, 57
1, 185735, Note_on_c, 0, 73, 58
1, 185817, Note_on_c, 0, 75, 0
1, 185835, Note_on_c, 0, 73, 0
1, 185842, Note_on_c, 0, 67, 55
1, 185892, Note_on_c, 0, 51, 47
1, 185902, Note_on_c, 0, 55, 0
1, 185905, Note_on_c, 0, 61, 0
1, 185950, Note_on_c, 0, 67, 0
1, 185952, Control_c, 0, 64, 0
1, 185957, Note_on_c, 0, 63, 50
1, 186015, Note_on_c, 0, 63, 0
1, 186252, Note_on_c, 0, 44, 46
1, 186252, Control_c, 0, 64, 127
1, 186340, Note_on_c, 0, 65, 35
1, 186375, Note_on_c, 0, 44, 0
1, 186450, Note_on_c, 0, 65, 0
1, 186460, Note_on_c, 0, 72, 45
1, 186515, Note_on_c, 0, 72, 0
1, 186560, Note_on_c, 0, 51, 0
1, 186572, Note_on_c, 0, 60, 44
1, 186595, Note_on_c, 0, 72, 48
1, 186652, Note_on_c, 0, 72, 0
1, 186707, Note_on_c, 0, 75, 53
1, 186767, Note_on_c, 0, 75, 0
1, 186812, Note_on_c, 0, 60, 0
1, 186822, Note_on_c, 0, 75, 55
1, 186825, Note_on_c, 0, 51, 39
1, 186937, Note_on_c, 0, 77, 57
1, 186955, Note_on_c, 0, 75, 0
1, 186997, Note_on_c, 0, 77, 0
1, 187050, Note_on_c, 0, 77, 61
1, 187075, Note_on_c, 0, 45, 45
1, 187142, Note_on_c, 0, 84, 66
1, 187160, Note_on_c, 0, 45, 0
1, 187182, Note_on_c, 0, 77, 0
1, 187200, Note_on_c, 0, 84, 0
1, 187257, Note_on_c, 0, 84, 62
1, 187320, Note_on_c, 0, 60, 41
1, 187337, Note_on_c, 0, 51, 0
1, 187367, Note_on_c, 0, 87, 63
1, 187380, Note_on_c, 0, 84, 0
1, 187427, Note_on_c, 0, 87, 0
1, 187427, Control_c, 0, 64, 0
1, 187552, Note_on_c, 0, 51, 41
1, 187560, Note_on_c, 0, 60, 0
1, 187595, Note_on_c, 0, 63, 46
1, 187740, Note_on_c, 0, 63, 0
1, 187817, Note_on_c, 0, 46, 65
1, 187820, Control_c, 0, 64, 127
1, 187857, Note_on_c, 0, 51, 0
1, 187860, Note_on_c, 0, 65, 50
1, 187977, Note_on_c, 0, 73, 54
1, 187980, Note_on_c, 0, 75, 60
1, 188012, Note_on_c, 0, 65, 0
1, 188035, Note_on_c, 0, 46, 0
1, 188037, Note_on_c, 0, 73, 0
1, 188037, Note_on_c, 0, 75, 0
1, 188087, Note_on_c, 0, 55, 57
1, 188090, Note_on_c, 0, 73, 63
1, 188092, Note_on_c, 0, 75, 62
1, 188112, Note_on_c, 0, 61, 54
1, 188195, Note_on_c, 0, 67, 58
1, 188217, Note_on_c, 0, 73, 0
1, 188232, Note_on_c, 0, 61, 0
1, 188235, Note_on_c, 0, 75, 0
1, 188242, Note_on_c, 0, 51, 48
1, 188300, Note_on_c, 0, 55, 0
1, 188310, Note_on_c, 0, 63, 44
1, 188330, Note_on_c, 0, 67, 0
1, 188347, Control_c, 0, 64, 0
1, 188392, Note_on_c, 0, 63, 0
1, 188482, Note_on_c, 0, 51, 0
1, 188580, Note_on_c, 0, 65, 41
1, 188585, Note_on_c, 0, 47, 46
1, 188590, Control_c, 0, 64, 127
1, 188665, Note_on_c, 0, 65, 0
1, 188687, Note_on_c, 0, 47, 0
1, 188715, Note_on_c, 0, 79, 53
1, 188715, Note_on_c, 0, 77, 51
1, 188775, Note_on_c, 0, 77, 0
1, 188777, Note_on_c, 0, 79, 0
1, 188810, Note_on_c, 0, 55, 43
1, 188832, Note_on_c, 0, 79, 46
1, 188832, Note_on_c, 0, 77, 47
1, 188835, Note_on_c, 0, 62, 40
1, 188887, Note_on_c, 0, 55, 0
1, 188912, Note_on_c, 0, 79, 0
1, 188932, Note_on_c, 0, 77, 0
1, 188940, Note_on_c, 0, 67, 45
1, 188952, Note_on_c, 0, 62, 0
1, 188987, Note_on_c, 0, 55, 38
1, 189022, Note_on_c, 0, 67, 0
1, 189052, Note_on_c, 0, 62, 43
1, 189112, Control_c, 0, 64, 0
1, 189132, Note_on_c, 0, 62, 0
1, 189155, Control_c, 0, 67, 0
1, 189302, Note_on_c, 0, 48, 44
1, 189335, Note_on_c, 0, 55, 0
1, 189365, Note_on_c, 0, 63, 43
1, 189407, Control_c, 0, 64, 127
1, 189452, Note_on_c, 0, 65, 38
1, 189470, Note_on_c, 0, 63, 0
1, 189490, Note_on_c, 0, 48, 0
1, 189512, Note_on_c, 0, 65, 0
1, 189560, Note_on_c, 0, 65, 44
1, 189607, Note_on_c, 0, 63, 48
1, 189622, Note_on_c, 0, 68, 40
1, 189660, Note_on_c, 0, 68, 0
1, 189672, Note_on_c, 0, 66, 47
1, 189690, Note_on_c, 0, 65, 0
1, 189712, Note_on_c, 0, 63, 0
1, 189730, Note_on_c, 0, 66, 0
1, 189782, Note_on_c, 0, 55, 43
1, 189785, Note_on_c, 0, 66, 48
1, 189797, Control_c, 0, 64, 0
1, 189840, Note_on_c, 0, 66, 0
1, 189892, Note_on_c, 0, 67, 47
1, 189952, Note_on_c, 0, 67, 0
1, 189955, Note_on_c, 0, 55, 0
1, 190027, Note_on_c, 0, 67, 50
1, 190035, Note_on_c, 0, 47, 49
1, 190095, Control_c, 0, 64, 127
1, 190145, Note_on_c, 0, 68, 48
1, 190155, Note_on_c, 0, 67, 0
1, 190202, Note_on_c, 0, 68, 0
1, 190222, Note_on_c, 0, 47, 0
1, 190252, Note_on_c, 0, 63, 43
1, 190257, Note_on_c, 0, 68, 53
1, 190357, Note_on_c, 0, 63, 0
1, 190362, Note_on_c, 0, 69, 58
1, 190400, Note_on_c, 0, 68, 0
1, 190420, Note_on_c, 0, 69, 0
1, 190447, Note_on_c, 0, 55, 48
1, 190472, Note_on_c, 0, 69, 59
1, 190482, Control_c, 0, 64, 0
1, 190552, Note_on_c, 0, 55, 0
1, 190582, Note_on_c, 0, 70, 60
1, 190600, Note_on_c, 0, 69, 0
1, 190630, Note_on_c, 0, 46, 48
1, 190645, Note_on_c, 0, 70, 0
1, 190695, Note_on_c, 0, 70, 61
1, 190717, Control_c, 0, 64, 127
1, 190780, Note_on_c, 0, 70, 0
1, 190815, Note_on_c, 0, 79, 63
1, 190822, Note_on_c, 0, 46, 0
1, 190872, Note_on_c, 0, 79, 0
1, 190920, Note_on_c, 0, 55, 45
1, 190922, Note_on_c, 0, 79, 64
1, 190947, Note_on_c, 0, 63, 44
1, 190980, Note_on_c, 0, 55, 0
1, 191017, Note_on_c, 0, 82, 72
1, 191030, Note_on_c, 0, 63, 0
1, 191052, Note_on_c, 0, 79, 0
1, 191075, Note_on_c, 0, 82, 0
1, 191127, Note_on_c, 0, 82, 71
1, 191182, Control_c, 0, 64, 0
1, 191235, Note_on_c, 0, 82, 0
1, 191352, Note_on_c, 0, 43, 53
1, 191442, Note_on_c, 0, 55, 49
1, 191445, Note_on_c, 0, 71, 60
1, 191482, Control_c, 0, 64, 127
1, 191535, Note_on_c, 0, 75, 62
1, 191585, Note_on_c, 0, 55, 0
1, 191585, Note_on_c, 0, 43, 0
1, 191590, Note_on_c, 0, 71, 0
1, 191590, Note_on_c, 0, 75, 0
1, 191647, Note_on_c, 0, 75, 64
1, 191710, Note_on_c, 0, 63, 41
1, 191710, Note_on_c, 0, 59, 40
1, 191710, Note_on_c, 0, 55, 39
1, 191757, Note_on_c, 0, 83, 67
1, 191772, Note_on_c, 0, 75, 0
1, 191817, Note_on_c, 0, 63, 0
1, 191820, Note_on_c, 0, 83, 0
1, 191840, Note_on_c, 0, 55, 0
1, 191842, Note_on_c, 0, 59, 0
1, 191875, Note_on_c, 0, 83, 68
1, 191907, Control_c, 0, 64, 0
1, 191975, Note_on_c, 0, 83, 0
1, 192090, Note_on_c, 0, 44, 48
1, 192182, Note_on_c, 0, 56, 46
1, 192187, Note_on_c, 0, 72, 48
1, 192227, Control_c, 0, 64, 127
1, 192285, Note_on_c, 0, 56, 0
1, 192287, Note_on_c, 0, 44, 0
1, 192292, Note_on_c, 0, 72, 0
1, 192300, Note_on_c, 0, 84, 61
1, 192360, Note_on_c, 0, 84, 0
1, 192415, Note_on_c, 0, 63, 53
1, 192417, Note_on_c, 0, 84, 61
1, 192432, Note_on_c, 0, 56, 53
1, 192437, Note_on_c, 0, 60, 53
1, 192520, Note_on_c, 0, 84, 0
1, 192522, Note_on_c, 0, 60, 0
1, 192535, Note_on_c, 0, 74, 66
1, 192545, Note_on_c, 0, 63, 0
1, 192567, Note_on_c, 0, 56, 0
1, 192602, Note_on_c, 0, 80, 64
1, 192675, Note_on_c, 0, 75, 66
1, 192685, Note_on_c, 0, 74, 0
1, 192707, Control_c, 0, 64, 0
1, 192735, Note_on_c, 0, 75, 0
1, 192780, Note_on_c, 0, 80, 0
1, 192925, Note_on_c, 0, 41, 58
1, 192947, Note_on_c, 0, 72, 62
1, 192947, Note_on_c, 0, 53, 44
1, 193035, Control_c, 0, 64, 127
1, 193085, Note_on_c, 0, 84, 63
1, 193120, Note_on_c, 0, 41, 0
1, 193122, Note_on_c, 0, 53, 0
1, 193125, Note_on_c, 0, 72, 0
1, 193142, Note_on_c, 0, 84, 0
1, 193200, Note_on_c, 0, 84, 60
1, 193200, Note_on_c, 0, 60, 49
1, 193200, Note_on_c, 0, 63, 49
1, 193220, Note_on_c, 0, 56, 49
1, 193260, Note_on_c, 0, 60, 0
1, 193292, Note_on_c, 0, 74, 61
1, 193307, Note_on_c, 0, 84, 0
1, 193325, Note_on_c, 0, 56, 0
1, 193327, Note_on_c, 0, 63, 0
1, 193362, Note_on_c, 0, 80, 60
1, 193430, Note_on_c, 0, 75, 61
1, 193442, Note_on_c, 0, 74, 0
1, 193487, Note_on_c, 0, 75, 0
1, 193507, Note_on_c, 0, 80, 0
1, 193525, Control_c, 0, 64, 0
1, 193672, Note_on_c, 0, 46, 64
1, 193672, Note_on_c, 0, 34, 62
1, 193697, Note_on_c, 0, 79, 66
1, 193762, Control_c, 0, 64, 127
1, 193790, Note_on_c, 0, 82, 69
1, 193820, Note_on_c, 0, 34, 0
1, 193827, Note_on_c, 0, 79, 0
1, 193845, Note_on_c, 0, 46, 0
1, 193847, Note_on_c, 0, 82, 0
1, 193922, Note_on_c, 0, 56, 49
1, 193925, Note_on_c, 0, 62, 49
1, 193925, Note_on_c, 0, 58, 49
1, 193927, Note_on_c, 0, 82, 68
1, 193985, Note_on_c, 0, 62, 0
1, 194002, Note_on_c, 0, 58, 0
1, 194015, Note_on_c, 0, 77, 67
1, 194045, Note_on_c, 0, 56, 0
1, 194072, Note_on_c, 0, 77, 0
1, 194100, Note_on_c, 0, 82, 0
1, 194147, Note_on_c, 0, 77, 62
1, 194220, Control_c, 0, 64, 0
1, 194252, Note_on_c, 0, 77, 0
1, 194265, Note_on_c, 0, 82, 69
1, 194385, Note_on_c, 0, 82, 0
1, 194397, Note_on_c, 0, 75, 66
1, 194415, Note_on_c, 0, 39, 68
1, 194417, Note_on_c, 0, 51, 63
1, 194452, Control_c, 0, 64, 127
1, 194485, Note_on_c, 0, 87, 69
1, 194500, Note_on_c, 0, 75, 0
1, 194540, Note_on_c, 0, 87, 0
1, 194582, Note_on_c, 0, 39, 0
1, 194597, Note_on_c, 0, 87, 69
1, 194605, Note_on_c, 0, 51, 0
1, 194702, Note_on_c, 0, 99, 75
1, 194762, Note_on_c, 0, 99, 0
1, 194765, Note_on_c, 0, 87, 0
1, 194815, Note_on_c, 0, 63, 46
1, 194817, Note_on_c, 0, 99, 70
1, 194895, Note_on_c, 0, 99, 0
1, 194942, Note_on_c, 0, 63, 0
1, 195005, Control_c, 0, 64, 0
1, 195145, Note_on_c, 0, 49, 59
1, 195150, Note_on_c, 0, 65, 64
1, 195150, Note_on_c, 0, 37, 64
1, 195237, Control_c, 0, 64, 127
1, 195265, Note_on_c, 0, 77, 69
1, 195300, Note_on_c, 0, 37, 0
1, 195325, Note_on_c, 0, 77, 0
1, 195325, Note_on_c, 0, 65, 0
1, 195375, Note_on_c, 0, 77, 66
1, 195480, Note_on_c, 0, 77, 0
1, 195485, Note_on_c, 0, 89, 80
1, 195517, Note_on_c, 0, 49, 0
1, 195545, Note_on_c, 0, 89, 0
1, 195617, Note_on_c, 0, 49, 63
1, 195620, Note_on_c, 0, 44, 72
1, 195622, Note_on_c, 0, 89, 78
1, 195622, Note_on_c, 0, 37, 74
1, 195625, Note_on_c, 0, 85, 80
1, 195625, Note_on_c, 0, 77, 83
1, 196145, Note_on_c, 0, 89, 0
1, 196185, Note_on_c, 0, 44, 0
1, 196192, Note_on_c, 0, 85, 0
1, 196210, Note_on_c, 0, 77, 0
1, 196215, Control_c, 0, 67, 127
1, 196405, Note_on_c, 0, 37, 0
1, 196470, Note_on_c, 0, 49, 0
1, 196580, Control_c, 0, 64, 0
1, 196745, Note_on_c, 0, 56, 44
1, 196750, Note_on_c, 0, 61, 39
1, 196750, Note_on_c, 0, 53, 40
1, 196890, Note_on_c, 0, 56, 0
1, 196917, Note_on_c, 0, 61, 0
1, 196935, Note_on_c, 0, 53, 0
1, 196987, Note_on_c, 0, 63, 43
1, 197007, Note_on_c, 0, 56, 45
1, 197010, Note_on_c, 0, 51, 46
1, 197112, Note_on_c, 0, 56, 0
1, 197180, Note_on_c, 0, 51, 0
1, 197202, Note_on_c, 0, 63, 0
1, 197225, Note_on_c, 0, 49, 62
1, 197227, Note_on_c, 0, 56, 62
1, 197230, Note_on_c, 0, 65, 70
1, 197232, Note_on_c, 0, 61, 63
1, 197337, Note_on_c, 0, 61, 0
1, 197355, Note_on_c, 0, 56, 0
1, 197402, Note_on_c, 0, 65, 0
1, 197455, Note_on_c, 0, 56, 63
1, 197457, Note_on_c, 0, 61, 62
1, 197460, Note_on_c, 0, 53, 62
1, 197490, Note_on_c, 0, 49, 0
1, 197552, Note_on_c, 0, 56, 0
1, 197602, Note_on_c, 0, 61, 0
1, 197642, Note_on_c, 0, 53, 0
1, 197652, Note_on_c, 0, 51, 62
1, 197675, Note_on_c, 0, 56, 65
1, 197677, Note_on_c, 0, 63, 64
1, 197715, Control_c, 0, 67, 0
1, 197755, Note_on_c, 0, 56, 0
1, 197757, Note_on_c, 0, 51, 0
1, 197787, Note_on_c, 0, 55, 62
1, 197825, Control_c, 0, 64, 127
1, 197827, Note_on_c, 0, 63, 0
1, 197855, Note_on_c, 0, 61, 60
1, 197902, Note_on_c, 0, 39, 65
1, 197922, Note_on_c, 0, 65, 60
1, 197960, Note_on_c, 0, 61, 0
1, 197960, Note_on_c, 0, 55, 0
1, 198005, Note_on_c, 0, 65, 0
1, 198147, Note_on_c, 0, 65, 51
1, 198167, Note_on_c, 0, 61, 49
1, 198215, Note_on_c, 0, 72, 63
1, 198270, Note_on_c, 0, 61, 0
1, 198277, Note_on_c, 0, 65, 0
1, 198297, Note_on_c, 0, 72, 0
1, 198402, Note_on_c, 0, 39, 0
1, 198502, Note_on_c, 0, 61, 43
1, 198525, Note_on_c, 0, 67, 49
1, 198580, Control_c, 0, 64, 0
1, 198615, Note_on_c, 0, 70, 55
1, 198627, Note_on_c, 0, 61, 0
1, 198630, Note_on_c, 0, 67, 0
1, 198657, Note_on_c, 0, 44, 58
1, 198727, Note_on_c, 0, 60, 48
1, 198737, Note_on_c, 0, 70, 0
1, 198787, Note_on_c, 0, 60, 0
1, 198822, Note_on_c, 0, 63, 49
1, 198862, Note_on_c, 0, 60, 46
1, 198875, Note_on_c, 0, 63, 0
1, 198927, Note_on_c, 0, 63, 45
1, 198990, Control_c, 0, 64, 127
1, 199012, Note_on_c, 0, 60, 0
1, 199020, Note_on_c, 0, 75, 58
1, 199052, Note_on_c, 0, 63, 0
1, 199077, Note_on_c, 0, 75, 0
1, 199107, Note_on_c, 0, 51, 49
1, 199130, Note_on_c, 0, 63, 49
1, 199135, Note_on_c, 0, 75, 57
1, 199187, Note_on_c, 0, 51, 0
1, 199187, Note_on_c, 0, 44, 0
1, 199212, Note_on_c, 0, 75, 0
1, 199230, Note_on_c, 0, 63, 0
1, 199420, Note_on_c, 0, 39, 51
1, 199645, Note_on_c, 0, 67, 40
1, 199650, Note_on_c, 0, 63, 45
1, 199650, Note_on_c, 0, 59, 46
1, 199650, Note_on_c, 0, 51, 46
1, 199685, Note_on_c, 0, 39, 0
1, 199820, Control_c, 0, 64, 0
1, 199932, Note_on_c, 0, 63, 0
1, 199957, Note_on_c, 0, 59, 0
1, 200002, Note_on_c, 0, 67, 0
1, 200035, Note_on_c, 0, 65, 57
1, 200077, Note_on_c, 0, 44, 57
1, 200145, Control_c, 0, 64, 127
1, 200152, Note_on_c, 0, 60, 54
1, 200227, Note_on_c, 0, 65, 0
1, 200230, Note_on_c, 0, 60, 0
1, 200260, Note_on_c, 0, 63, 55
1, 200280, Note_on_c, 0, 60, 57
1, 200295, Note_on_c, 0, 44, 0
1, 200320, Note_on_c, 0, 63, 0
1, 200375, Note_on_c, 0, 63, 55
1, 200410, Note_on_c, 0, 51, 0
1, 200467, Note_on_c, 0, 75, 62
1, 200477, Note_on_c, 0, 63, 0
1, 200527, Note_on_c, 0, 75, 0
1, 200555, Note_on_c, 0, 51, 49
1, 200572, Note_on_c, 0, 60, 0
1, 200575, Note_on_c, 0, 63, 47
1, 200580, Note_on_c, 0, 75, 66
1, 200655, Note_on_c, 0, 51, 0
1, 200705, Note_on_c, 0, 63, 0
1, 200707, Note_on_c, 0, 75, 0
1, 200725, Control_c, 0, 64, 0
1, 200825, Note_on_c, 0, 44, 62
1, 200827, Note_on_c, 0, 32, 60
1, 200957, Control_c, 0, 64, 127
1, 201005, Note_on_c, 0, 64, 59
1, 201010, Note_on_c, 0, 68, 59
1, 201012, Note_on_c, 0, 60, 57
1, 201020, Note_on_c, 0, 44, 0
1, 201022, Note_on_c, 0, 32, 0
1, 201227, Note_on_c, 0, 64, 0
1, 201247, Note_on_c, 0, 60, 0
1, 201265, Control_c, 0, 64, 0
1, 201335, Note_on_c, 0, 68, 0
1, 201365, Note_on_c, 0, 67, 58
1, 201427, Note_on_c, 0, 25, 64
1, 201512, Note_on_c, 0, 67, 0
1, 201522, Note_on_c, 0, 65, 64
1, 201525, Note_on_c, 0, 37, 66
1, 201560, Control_c, 0, 64, 127
1, 201632, Note_on_c, 0, 77, 67
1, 201640, Note_on_c, 0, 37, 0
1, 201642, Note_on_c, 0, 25, 0
1, 201665, Note_on_c, 0, 65, 0
1, 201690, Note_on_c, 0, 77, 0
1, 201762, Note_on_c, 0, 77, 64
1, 201845, Note_on_c, 0, 77, 0
1, 201877, Note_on_c, 0, 89, 77
1, 201935, Note_on_c, 0, 89, 0
1, 202012, Note_on_c, 0, 65, 71
1, 202015, Note_on_c, 0, 89, 78
1, 202015, Note_on_c, 0, 61, 86
1, 202017, Note_on_c, 0, 77, 75
1, 202017, Note_on_c, 0, 68, 76
1, 202020, Note_on_c, 0, 85, 81
1, 202612, Note_on_c, 0, 89, 0
1, 202680, Note_on_c, 0, 85, 0
1, 202700, Note_on_c, 0, 77, 0
1, 202742, Note_on_c, 0, 68, 0
1, 202747, Control_c, 0, 67, 127
1, 202767, Note_on_c, 0, 65, 0
1, 202830, Note_on_c, 0, 61, 0
1, 202940, Control_c, 0, 64, 0
1, 203190, Note_on_c, 0, 61, 44
1, 203192, Note_on_c, 0, 53, 39
1, 203247, Control_c, 0, 67, 0
1, 203447, Note_on_c, 0, 61, 0
1, 203520, Note_on_c, 0, 63, 51
1, 203542, Note_on_c, 0, 54, 48
1, 203545, Note_on_c, 0, 61, 47
1, 203555, Note_on_c, 0, 53, 0
1, 203737, Note_on_c, 0, 61, 0
1, 203777, Note_on_c, 0, 63, 0
1, 203805, Note_on_c, 0, 65, 64
1, 203820, Note_on_c, 0, 54, 0
1, 203825, Note_on_c, 0, 61, 61
1, 203827, Note_on_c, 0, 56, 60
1, 203852, Control_c, 0, 64, 127
1, 203977, Note_on_c, 0, 61, 0
1, 204022, Note_on_c, 0, 65, 0
1, 204045, Control_c, 0, 64, 0
1, 204055, Note_on_c, 0, 66, 64
1, 204072, Note_on_c, 0, 57, 65
1, 204075, Note_on_c, 0, 61, 66
1, 204090, Note_on_c, 0, 56, 0
1, 204222, Note_on_c, 0, 61, 0
1, 204305, Note_on_c, 0, 66, 0
1, 204312, Note_on_c, 0, 67, 65
1, 204315, Note_on_c, 0, 61, 63
1, 204315, Note_on_c, 0, 58, 64
1, 204325, Note_on_c, 0, 57, 0
1, 204377, Control_c, 0, 67, 127
1, 204395, Note_on_c, 0, 67, 0
1, 204395, Note_on_c, 0, 58, 0
1, 204397, Note_on_c, 0, 61, 0
1, 204540, Note_on_c, 0, 68, 47
1, 204540, Note_on_c, 0, 62, 49
1, 204540, Note_on_c, 0, 59, 53
1, 204750, Note_on_c, 0, 62, 0
1, 204775, Note_on_c, 0, 64, 39
1, 204795, Control_c, 0, 64, 127
1, 204835, Note_on_c, 0, 59, 0
1, 204842, Note_on_c, 0, 73, 49
1, 204882, Note_on_c, 0, 68, 0
1, 204925, Note_on_c, 0, 73, 0
1, 205080, Note_on_c, 0, 64, 0
1, 205130, Note_on_c, 0, 52, 41
1, 205200, Note_on_c, 0, 71, 47
1, 205232, Note_on_c, 0, 52, 0
1, 205295, Control_c, 0, 64, 0
1, 205297, Note_on_c, 0, 71, 0
1, 205392, Note_on_c, 0, 45, 44
1, 205457, Note_on_c, 0, 61, 43
1, 205500, Control_c, 0, 64, 127
1, 205547, Note_on_c, 0, 64, 37
1, 205562, Note_on_c, 0, 61, 0
1, 205562, Note_on_c, 0, 45, 0
1, 205627, Note_on_c, 0, 64, 0
1, 205637, Note_on_c, 0, 61, 38
1, 205650, Control_c, 0, 64, 0
1, 205702, Note_on_c, 0, 64, 35
1, 205792, Note_on_c, 0, 76, 40
1, 205802, Note_on_c, 0, 61, 0
1, 205825, Note_on_c, 0, 64, 0
1, 205855, Note_on_c, 0, 76, 0
1, 205857, Control_c, 0, 64, 127
1, 205860, Note_on_c, 0, 52, 39
1, 205905, Note_on_c, 0, 76, 48
1, 205960, Note_on_c, 0, 52, 0
1, 205985, Note_on_c, 0, 76, 0
1, 206145, Note_on_c, 0, 40, 50
1, 206227, Note_on_c, 0, 40, 0
1, 206325, Note_on_c, 0, 73, 62
1, 206347, Note_on_c, 0, 68, 61
1, 206347, Note_on_c, 0, 62, 57
1, 206372, Note_on_c, 0, 53, 57
1, 206515, Note_on_c, 0, 73, 0
1, 206537, Note_on_c, 0, 68, 0
1, 206557, Note_on_c, 0, 53, 0
1, 206562, Note_on_c, 0, 62, 0
1, 206582, Control_c, 0, 64, 0
1, 206610, Note_on_c, 0, 52, 44
1, 206705, Note_on_c, 0, 71, 55
1, 206760, Note_on_c, 0, 52, 0
1, 206762, Note_on_c, 0, 71, 0
1, 206795, Note_on_c, 0, 45, 47
1, 206862, Note_on_c, 0, 61, 44
1, 206905, Control_c, 0, 64, 127
1, 206970, Note_on_c, 0, 64, 49
1, 206982, Note_on_c, 0, 45, 0
1, 206985, Note_on_c, 0, 61, 0
1, 207032, Note_on_c, 0, 64, 0
1, 207107, Note_on_c, 0, 64, 53
1, 207110, Note_on_c, 0, 61, 48
1, 207202, Note_on_c, 0, 76, 58
1, 207215, Note_on_c, 0, 64, 0
1, 207217, Note_on_c, 0, 61, 0
1, 207265, Note_on_c, 0, 76, 0
1, 207270, Note_on_c, 0, 52, 43
1, 207312, Note_on_c, 0, 76, 61
1, 207347, Control_c, 0, 67, 0
1, 207372, Note_on_c, 0, 76, 0
1, 207395, Note_on_c, 0, 52, 0
1, 207540, Note_on_c, 0, 49, 44
1, 207542, Note_on_c, 0, 37, 58
1, 207600, Note_on_c, 0, 37, 0
1, 207637, Note_on_c, 0, 49, 0
1, 207720, Note_on_c, 0, 64, 51
1, 207787, Note_on_c, 0, 69, 47
1, 207787, Note_on_c, 0, 52, 49
1, 207867, Note_on_c, 0, 52, 0
1, 207980, Note_on_c, 0, 69, 0
1, 207982, Note_on_c, 0, 64, 0
1, 208017, Note_on_c, 0, 68, 49
1, 208027, Control_c, 0, 64, 0
1, 208172, Note_on_c, 0, 34, 64
1, 208207, Note_on_c, 0, 68, 0
1, 208262, Note_on_c, 0, 67, 61
1, 208265, Note_on_c, 0, 46, 63
1, 208357, Control_c, 0, 64, 127
1, 208402, Note_on_c, 0, 73, 65
1, 208440, Note_on_c, 0, 67, 0
1, 208442, Note_on_c, 0, 34, 0
1, 208460, Note_on_c, 0, 46, 0
1, 208485, Note_on_c, 0, 73, 0
1, 208537, Note_on_c, 0, 75, 62
1, 208560, Note_on_c, 0, 63, 53
1, 208620, Note_on_c, 0, 75, 0
1, 208625, Note_on_c, 0, 87, 69
1, 208680, Note_on_c, 0, 87, 0
1, 208690, Note_on_c, 0, 51, 50
1, 208737, Note_on_c, 0, 87, 72
1, 208737, Note_on_c, 0, 75, 65
1, 208745, Note_on_c, 0, 63, 0
1, 208812, Note_on_c, 0, 51, 0
1, 208837, Note_on_c, 0, 87, 0
1, 208907, Note_on_c, 0, 75, 0
1, 208992, Note_on_c, 0, 49, 46
1, 209002, Note_on_c, 0, 37, 50
1, 209057, Note_on_c, 0, 37, 0
1, 209100, Note_on_c, 0, 49, 0
1, 209172, Note_on_c, 0, 67, 49
1, 209222, Note_on_c, 0, 63, 48
1, 209245, Note_on_c, 0, 72, 46
1, 209267, Note_on_c, 0, 51, 50
1, 209362, Note_on_c, 0, 67, 0
1, 209390, Note_on_c, 0, 51, 0
1, 209392, Note_on_c, 0, 63, 0
1, 209460, Control_c, 0, 64, 0
1, 209462, Note_on_c, 0, 70, 60
1, 209547, Note_on_c, 0, 72, 0
1, 209647, Note_on_c, 0, 36, 60
1, 209692, Note_on_c, 0, 67, 55
1, 209695, Note_on_c, 0, 63, 46
1, 209695, Note_on_c, 0, 48, 47
1, 209730, Note_on_c, 0, 70, 0
1, 209765, Control_c, 0, 64, 127
1, 209867, Note_on_c, 0, 63, 0
1, 209870, Note_on_c, 0, 36, 0
1, 209870, Note_on_c, 0, 48, 0
1, 209912, Note_on_c, 0, 67, 0
1, 209965, Note_on_c, 0, 68, 53
1, 209965, Note_on_c, 0, 63, 48
1, 210102, Note_on_c, 0, 51, 53
1, 210135, Note_on_c, 0, 63, 0
1, 210137, Note_on_c, 0, 68, 0
1, 210200, Note_on_c, 0, 51, 0
1, 210210, Note_on_c, 0, 72, 54
1, 210320, Note_on_c, 0, 33, 61
1, 210355, Note_on_c, 0, 72, 0
1, 210357, Control_c, 0, 64, 0
1, 210427, Note_on_c, 0, 67, 53
1, 210430, Note_on_c, 0, 72, 54
1, 210460, Note_on_c, 0, 45, 62
1, 210495, Note_on_c, 0, 75, 62
1, 210570, Control_c, 0, 64, 127
1, 210642, Note_on_c, 0, 33, 0
1, 210645, Note_on_c, 0, 45, 0
1, 210662, Note_on_c, 0, 67, 0
1, 210690, Note_on_c, 0, 63, 50
1, 210707, Note_on_c, 0, 75, 0
1, 210715, Note_on_c, 0, 79, 57
1, 210852, Note_on_c, 0, 51, 53
1, 210885, Note_on_c, 0, 63, 0
1, 210930, Note_on_c, 0, 51, 0
1, 210932, Note_on_c, 0, 79, 0
1, 210985, Note_on_c, 0, 77, 57
1, 211020, Note_on_c, 0, 72, 0
1, 211067, Control_c, 0, 64, 0
1, 211107, Note_on_c, 0, 77, 0
1, 211122, Note_on_c, 0, 34, 51
1, 211200, Note_on_c, 0, 67, 41
1, 211225, Note_on_c, 0, 46, 53
1, 211267, Note_on_c, 0, 72, 48
1, 211292, Control_c, 0, 64, 127
1, 211367, Note_on_c, 0, 67, 0
1, 211370, Note_on_c, 0, 34, 0
1, 211375, Note_on_c, 0, 73, 62
1, 211385, Note_on_c, 0, 72, 0
1, 211387, Note_on_c, 0, 46, 0
1, 211455, Note_on_c, 0, 73, 0
1, 211507, Note_on_c, 0, 75, 54
1, 211530, Note_on_c, 0, 63, 51
1, 211595, Note_on_c, 0, 87, 64
1, 211610, Note_on_c, 0, 75, 0
1, 211652, Note_on_c, 0, 87, 0
1, 211680, Note_on_c, 0, 51, 50
1, 211687, Note_on_c, 0, 75, 63
1, 211702, Note_on_c, 0, 87, 65
1, 211762, Note_on_c, 0, 63, 0
1, 211805, Note_on_c, 0, 51, 0
1, 211845, Note_on_c, 0, 87, 0
1, 211850, Control_c, 0, 64, 0
1, 211890, Note_on_c, 0, 75, 0
1, 211965, Note_on_c, 0, 49, 49
1, 211992, Note_on_c, 0, 37, 58
1, 212080, Control_c, 0, 64, 127
1, 212137, Note_on_c, 0, 37, 0
1, 212142, Note_on_c, 0, 67, 49
1, 212155, Note_on_c, 0, 49, 0
1, 212185, Note_on_c, 0, 63, 49
1, 212207, Note_on_c, 0, 72, 48
1, 212285, Note_on_c, 0, 67, 0
1, 212300, Note_on_c, 0, 51, 46
1, 212362, Note_on_c, 0, 63, 0
1, 212375, Note_on_c, 0, 51, 0
1, 212450, Note_on_c, 0, 70, 54
1, 212525, Note_on_c, 0, 72, 0
1, 212530, Control_c, 0, 64, 0
1, 212670, Note_on_c, 0, 36, 63
1, 212685, Note_on_c, 0, 67, 47
1, 212687, Note_on_c, 0, 63, 53
1, 212692, Note_on_c, 0, 48, 53
1, 212700, Note_on_c, 0, 70, 0
1, 212757, Control_c, 0, 64, 127
1, 212812, Note_on_c, 0, 36, 0
1, 212835, Note_on_c, 0, 48, 0
1, 212872, Note_on_c, 0, 67, 0
1, 212922, Note_on_c, 0, 63, 0
1, 212932, Note_on_c, 0, 68, 55
1, 212952, Note_on_c, 0, 56, 62
1, 213122, Note_on_c, 0, 68, 0
1, 213142, Note_on_c, 0, 56, 0
1, 213172, Note_on_c, 0, 72, 48
1, 213172, Note_on_c, 0, 60, 51
1, 213322, Control_c, 0, 64, 0
1, 213385, Note_on_c, 0, 60, 0
1, 213415, Note_on_c, 0, 63, 66
1, 213417, Note_on_c, 0, 72, 0
1, 213437, Note_on_c, 0, 75, 52
1, 213527, Control_c, 0, 64, 127
1, 213627, Note_on_c, 0, 75, 0
1, 213667, Note_on_c, 0, 63, 0
1, 213697, Note_on_c, 0, 80, 54
1, 213700, Note_on_c, 0, 68, 48
1, 213915, Note_on_c, 0, 68, 0
1, 213937, Note_on_c, 0, 80, 0
1, 214030, Note_on_c, 0, 67, 49
1, 214032, Note_on_c, 0, 79, 57
1, 214097, Control_c, 0, 64, 0
1, 214247, Note_on_c, 0, 67, 0
1, 214272, Note_on_c, 0, 79, 0
1, 214365, Note_on_c, 0, 66, 67
1, 214372, Note_on_c, 0, 78, 76
1, 214372, Note_on_c, 0, 71, 69
1, 214372, Note_on_c, 0, 63, 70
1, 214375, Note_on_c, 0, 75, 75
1, 214425, Control_c, 0, 64, 127
1, 214542, Note_on_c, 0, 66, 0
1, 214545, Note_on_c, 0, 63, 0
1, 214647, Note_on_c, 0, 42, 65
1, 214647, Note_on_c, 0, 30, 64
1, 214657, Note_on_c, 0, 78, 0
1, 214660, Note_on_c, 0, 75, 0
1, 214772, Note_on_c, 0, 71, 0
1, 214775, Note_on_c, 0, 30, 0
1, 214820, Note_on_c, 0, 42, 0
1, 214822, Note_on_c, 0, 73, 55
1, 214892, Note_on_c, 0, 71, 55
1, 214950, Note_on_c, 0, 73, 0
1, 215037, Note_on_c, 0, 71, 0
1, 215135, Note_on_c, 0, 70, 50
1, 215137, Note_on_c, 0, 73, 50
1, 215137, Note_on_c, 0, 64, 46
1, 215282, Note_on_c, 0, 64, 0
1, 215282, Note_on_c, 0, 70, 0
1, 215330, Note_on_c, 0, 73, 0
1, 215355, Note_on_c, 0, 67, 63
1, 215357, Note_on_c, 0, 76, 66
1, 215360, Note_on_c, 0, 70, 65
1, 215440, Note_on_c, 0, 67, 0
1, 215485, Note_on_c, 0, 70, 0
1, 215530, Note_on_c, 0, 76, 0
1, 215580, Note_on_c, 0, 66, 63
1, 215582, Note_on_c, 0, 75, 71
1, 215582, Note_on_c, 0, 70, 65
1, 215640, Note_on_c, 0, 66, 0
1, 215647, Control_c, 0, 64, 0
1, 215752, Note_on_c, 0, 70, 0
1, 215775, Note_on_c, 0, 75, 0
1, 215847, Note_on_c, 0, 63, 66
1, 215850, Note_on_c, 0, 78, 66
1, 215850, Note_on_c, 0, 71, 66
1, 215850, Note_on_c, 0, 59, 64
1, 215942, Control_c, 0, 64, 127
1, 216040, Note_on_c, 0, 78, 0
1, 216195, Note_on_c, 0, 59, 0
1, 216197, Note_on_c, 0, 71, 0
1, 216217, Note_on_c, 0, 63, 0
1, 216272, Note_on_c, 0, 64, 48
1, 216275, Note_on_c, 0, 73, 54
1, 216317, Note_on_c, 0, 59, 50
1, 216337, Note_on_c, 0, 71, 54
1, 216337, Note_on_c, 0, 63, 49
1, 216442, Note_on_c, 0, 64, 0
1, 216470, Note_on_c, 0, 59, 0
1, 216490, Note_on_c, 0, 73, 0
1, 216495, Control_c, 0, 64, 0
1, 216510, Note_on_c, 0, 71, 0
1, 216532, Note_on_c, 0, 63, 0
1, 216585, Note_on_c, 0, 64, 62
1, 216590, Note_on_c, 0, 59, 60
1, 216607, Note_on_c, 0, 73, 63
1, 216607, Note_on_c, 0, 71, 62
1, 216712, Note_on_c, 0, 59, 0
1, 216720, Control_c, 0, 64, 127
1, 216752, Note_on_c, 0, 71, 0
1, 216775, Note_on_c, 0, 64, 0
1, 216777, Note_on_c, 0, 73, 0
1, 216785, Note_on_c, 0, 59, 65
1, 216805, Note_on_c, 0, 67, 63
1, 216810, Note_on_c, 0, 76, 64
1, 216832, Note_on_c, 0, 71, 65
1, 216885, Note_on_c, 0, 67, 0
1, 216887, Note_on_c, 0, 59, 0
1, 216977, Note_on_c, 0, 71, 0
1, 217045, Note_on_c, 0, 66, 71
1, 217047, Note_on_c, 0, 75, 82
1, 217047, Note_on_c, 0, 71, 75
1, 217050, Note_on_c, 0, 59, 72
1, 217127, Note_on_c, 0, 66, 0
1, 217130, Note_on_c, 0, 59, 0
1, 217137, Control_c, 0, 64, 0
1, 217175, Note_on_c, 0, 71, 0
1, 217177, Note_on_c, 0, 76, 0
1, 217217, Note_on_c, 0, 75, 0
1, 217397, Note_on_c, 0, 83, 87
1, 217400, Note_on_c, 0, 80, 63
1, 217400, Note_on_c, 0, 76, 64
1, 217405, Note_on_c, 0, 40, 75
1, 217410, Note_on_c, 0, 28, 74
1, 217450, Control_c, 0, 64, 127
1, 217500, Note_on_c, 0, 83, 0
1, 217510, Note_on_c, 0, 28, 0
1, 217525, Note_on_c, 0, 80, 0
1, 217527, Note_on_c, 0, 76, 0
1, 217572, Note_on_c, 0, 40, 0
1, 217797, Note_on_c, 0, 66, 50
1, 217800, Note_on_c, 0, 57, 49
1, 217867, Note_on_c, 0, 52, 49
1, 217877, Note_on_c, 0, 66, 0
1, 217885, Note_on_c, 0, 56, 49
1, 217887, Note_on_c, 0, 64, 41
1, 217922, Note_on_c, 0, 57, 0
1, 217970, Note_on_c, 0, 52, 0
1, 218032, Note_on_c, 0, 56, 0
1, 218035, Note_on_c, 0, 64, 0
1, 218130, Note_on_c, 0, 66, 43
1, 218130, Note_on_c, 0, 64, 44
1, 218130, Note_on_c, 0, 57, 51
1, 218132, Note_on_c, 0, 52, 49
1, 218205, Note_on_c, 0, 57, 0
1, 218207, Note_on_c, 0, 66, 0
1, 218250, Note_on_c, 0, 52, 0
1, 218272, Note_on_c, 0, 64, 0
1, 218365, Note_on_c, 0, 69, 38
1, 218365, Note_on_c, 0, 64, 38
1, 218370, Note_on_c, 0, 52, 47
1, 218372, Note_on_c, 0, 60, 48
1, 218495, Note_on_c, 0, 52, 0
1, 218495, Note_on_c, 0, 64, 0
1, 218497, Note_on_c, 0, 60, 0
1, 218587, Note_on_c, 0, 64, 39
1, 218590, Note_on_c, 0, 68, 38
1, 218590, Note_on_c, 0, 59, 48
1, 218592, Note_on_c, 0, 52, 49
1, 218627, Note_on_c, 0, 69, 0
1, 218652, Control_c, 0, 64, 0
1, 218735, Note_on_c, 0, 68, 0
1, 218737, Note_on_c, 0, 52, 0
1, 218737, Note_on_c, 0, 59, 0
1, 218760, Note_on_c, 0, 64, 0
1, 218810, Note_on_c, 0, 56, 45
1, 218812, Control_c, 0, 64, 127
1, 218815, Note_on_c, 0, 52, 47
1, 218832, Note_on_c, 0, 76, 52
1, 218877, Note_on_c, 0, 64, 45
1, 218985, Control_c, 0, 64, 0
1, 219025, Note_on_c, 0, 52, 0
1, 219027, Note_on_c, 0, 76, 0
1, 219045, Note_on_c, 0, 56, 0
1, 219047, Note_on_c, 0, 64, 0
1, 219120, Note_on_c, 0, 66, 64
1, 219122, Note_on_c, 0, 76, 64
1, 219122, Note_on_c, 0, 57, 59
1, 219127, Control_c, 0, 64, 127
1, 219147, Note_on_c, 0, 52, 60
1, 219202, Note_on_c, 0, 66, 0
1, 219250, Control_c, 0, 64, 0
1, 219270, Note_on_c, 0, 52, 0
1, 219295, Note_on_c, 0, 76, 0
1, 219337, Note_on_c, 0, 57, 0
1, 219412, Note_on_c, 0, 76, 67
1, 219412, Note_on_c, 0, 59, 63
1, 219412, Note_on_c, 0, 52, 64
1, 219415, Note_on_c, 0, 68, 66
1, 219480, Control_c, 0, 64, 127
1, 219557, Note_on_c, 0, 59, 0
1, 219582, Note_on_c, 0, 76, 0
1, 219582, Note_on_c, 0, 52, 0
1, 219602, Note_on_c, 0, 68, 0
1, 219605, Control_c, 0, 64, 0
1, 219675, Note_on_c, 0, 76, 74
1, 219677, Note_on_c, 0, 60, 68
1, 219695, Note_on_c, 0, 69, 72
1, 219697, Note_on_c, 0, 52, 68
1, 219830, Control_c, 0, 64, 127
1, 219865, Note_on_c, 0, 52, 0
1, 219885, Note_on_c, 0, 69, 0
1, 219890, Note_on_c, 0, 60, 0
1, 219890, Note_on_c, 0, 76, 0
1, 219962, Note_on_c, 0, 61, 66
1, 219982, Note_on_c, 0, 70, 76
1, 219985, Note_on_c, 0, 76, 83
1, 219987, Note_on_c, 0, 52, 72
1, 220135, Note_on_c, 0, 52, 0
1, 220137, Note_on_c, 0, 61, 0
1, 220157, Note_on_c, 0, 76, 0
1, 220200, Note_on_c, 0, 70, 0
1, 220222, Control_c, 0, 64, 0
1, 220227, Note_on_c, 0, 52, 76
1, 220230, Note_on_c, 0, 62, 77
1, 220252, Note_on_c, 0, 76, 84
1, 220275, Note_on_c, 0, 71, 77
1, 220275, Note_on_c, 0, 68, 76
1, 220312, Note_on_c, 0, 52, 0
1, 220380, Note_on_c, 0, 68, 0
1, 220382, Note_on_c, 0, 51, 70
1, 220395, Note_on_c, 0, 71, 0
1, 220397, Note_on_c, 0, 76, 0
1, 220400, Note_on_c, 0, 62, 0
1, 220442, Note_on_c, 0, 51, 0
1, 220517, Note_on_c, 0, 61, 73
1, 220520, Note_on_c, 0, 51, 76
1, 220522, Control_c, 0, 64, 127
1, 220542, Note_on_c, 0, 58, 78
1, 220560, Note_on_c, 0, 67, 75
1, 220565, Note_on_c, 0, 87, 88
1, 220565, Note_on_c, 0, 75, 83
1, 220587, Note_on_c, 0, 85, 88
1, 220590, Note_on_c, 0, 82, 84
1, 220602, Note_on_c, 0, 58, 0
1, 220605, Note_on_c, 0, 51, 0
1, 220647, Note_on_c, 0, 87, 0
1, 220670, Note_on_c, 0, 85, 0
1, 220690, Note_on_c, 0, 67, 0
1, 220692, Note_on_c, 0, 75, 0
1, 220695, Note_on_c, 0, 82, 0
1, 220717, Note_on_c, 0, 61, 0
1, 220762, Control_c, 0, 64, 0
1, 220927, Note_on_c, 0, 39, 86
1, 220930, Note_on_c, 0, 63, 69
1, 220930, Note_on_c, 0, 51, 70
1, 220995, Control_c, 0, 64, 127
1, 221050, Note_on_c, 0, 63, 0
1, 221055, Note_on_c, 0, 39, 0
1, 221075, Note_on_c, 0, 51, 0
1, 221410, Control_c, 0, 64, 0
1, 221547, Note_on_c, 0, 67, 63
1, 221547, Note_on_c, 0, 55, 75
1, 221550, Note_on_c, 0, 87, 76
1, 221550, Note_on_c, 0, 61, 76
1, 221552, Note_on_c, 0, 75, 72
1, 221552, Note_on_c, 0, 58, 76
1, 221572, Note_on_c, 0, 85, 80
1, 221572, Note_on_c, 0, 82, 76
1, 221640, Control_c, 0, 64, 127
1, 221677, Note_on_c, 0, 75, 0
1, 221697, Note_on_c, 0, 67, 0
1, 221700, Note_on_c, 0, 58, 0
1, 221720, Note_on_c, 0, 55, 0
1, 221720, Note_on_c, 0, 87, 0
1, 221722, Note_on_c, 0, 61, 0
1, 221742, Note_on_c, 0, 85, 0
1, 221745, Note_on_c, 0, 82, 0
1, 222000, Note_on_c, 0, 63, 72
1, 222002, Note_on_c, 0, 39, 97
1, 222005, Note_on_c, 0, 51, 83
1, 222100, Note_on_c, 0, 63, 0
1, 222105, Note_on_c, 0, 39, 0
1, 222125, Note_on_c, 0, 51, 0
1, 222567, Control_c, 0, 64, 0
1, 222660, Note_on_c, 0, 61, 79
1, 222660, Note_on_c, 0, 67, 78
1, 222662, Note_on_c, 0, 58, 79
1, 222682, Note_on_c, 0, 87, 92
1, 222682, Note_on_c, 0, 85, 93
1, 222682, Note_on_c, 0, 55, 79
1, 222685, Note_on_c, 0, 82, 89
1, 222687, Note_on_c, 0, 75, 87
1, 222772, Control_c, 0, 64, 127
1, 222832, Note_on_c, 0, 67, 0
1, 222852, Note_on_c, 0, 55, 0
1, 222855, Note_on_c, 0, 85, 0
1, 222855, Note_on_c, 0, 58, 0
1, 222857, Note_on_c, 0, 87, 0
1, 222857, Note_on_c, 0, 82, 0
1, 222877, Note_on_c, 0, 75, 0
1, 222880, Note_on_c, 0, 61, 0
1, 223082, Note_on_c, 0, 63, 75
1, 223085, Note_on_c, 0, 51, 69
1, 223107, Note_on_c, 0, 39, 78
1, 223207, Note_on_c, 0, 39, 0
1, 223207, Note_on_c, 0, 63, 0
1, 223227, Note_on_c, 0, 51, 0
1, 223492, Note_on_c, 0, 67, 76
1, 223500, Note_on_c, 0, 87, 88
1, 223502, Note_on_c, 0, 58, 76
1, 223522, Note_on_c, 0, 55, 75
1, 223525, Note_on_c, 0, 85, 88
1, 223525, Note_on_c, 0, 61, 76
1, 223527, Note_on_c, 0, 82, 84
1, 223530, Note_on_c, 0, 75, 83
1, 223602, Note_on_c, 0, 67, 0
1, 223605, Note_on_c, 0, 87, 0
1, 223605, Note_on_c, 0, 58, 0
1, 223625, Note_on_c, 0, 75, 0
1, 223647, Note_on_c, 0, 85, 0
1, 223647, Note_on_c, 0, 55, 0
1, 223650, Note_on_c, 0, 61, 0
1, 223677, Note_on_c, 0, 82, 0
1, 224015, Note_on_c, 0, 63, 75
1, 224040, Note_on_c, 0, 39, 86
1, 224040, Note_on_c, 0, 51, 75
1, 224157, Note_on_c, 0, 51, 0
1, 224157, Note_on_c, 0, 63, 0
1, 224165, Note_on_c, 0, 39, 0
1, 224527, Note_on_c, 0, 55, 76
1, 224555, Note_on_c, 0, 67, 79
1, 224557, Note_on_c, 0, 87, 92
1, 224557, Note_on_c, 0, 85, 93
1, 224557, Note_on_c, 0, 61, 79
1, 224557, Note_on_c, 0, 58, 79
1, 224560, Note_on_c, 0, 82, 89
1, 224560, Note_on_c, 0, 75, 87
1, 224640, Note_on_c, 0, 58, 0
1, 224682, Note_on_c, 0, 67, 0
1, 224685, Note_on_c, 0, 87, 0
1, 224687, Note_on_c, 0, 75, 0
1, 224705, Note_on_c, 0, 55, 0
1, 224707, Note_on_c, 0, 61, 0
1, 224730, Note_on_c, 0, 85, 0
1, 224732, Note_on_c, 0, 82, 0
1, 225132, Note_on_c, 0, 51, 83
1, 225135, Note_on_c, 0, 63, 82
1, 225162, Note_on_c, 0, 39, 93
1, 225237, Note_on_c, 0, 63, 0
1, 225237, Note_on_c, 0, 51, 0
1, 225280, Note_on_c, 0, 39, 0
1, 225300, Control_c, 0, 64, 0
1, 225637, Note_on_c, 0, 32, 81
1, 225700, Control_c, 0, 64, 127
1, 225742, Note_on_c, 0, 44, 100
1, 225765, Note_on_c, 0, 97, 98
1, 225767, Note_on_c, 0, 85, 93
1, 225770, Note_on_c, 0, 92, 92
1, 225827, Note_on_c, 0, 32, 0
1, 225867, Note_on_c, 0, 44, 0
1, 226210, Note_on_c, 0, 51, 81
1, 226285, Note_on_c, 0, 97, 0
1, 226290, Note_on_c, 0, 85, 0
1, 226345, Note_on_c, 0, 63, 60
1, 226357, Note_on_c, 0, 92, 0
1, 226397, Note_on_c, 0, 51, 0
1, 226405, Note_on_c, 0, 96, 72
1, 226430, Note_on_c, 0, 84, 69
1, 226452, Note_on_c, 0, 92, 73
1, 226465, Note_on_c, 0, 63, 0
1, 226532, Note_on_c, 0, 84, 0
1, 226535, Note_on_c, 0, 96, 0
1, 226557, Note_on_c, 0, 92, 0
1, 226560, Note_on_c, 0, 63, 61
1, 226655, Note_on_c, 0, 75, 64
1, 226665, Note_on_c, 0, 63, 0
1, 226712, Note_on_c, 0, 75, 0
1, 226762, Note_on_c, 0, 75, 66
1, 226887, Note_on_c, 0, 75, 0
1, 227025, Note_on_c, 0, 87, 75
1, 227027, Note_on_c, 0, 75, 73
1, 227105, Note_on_c, 0, 75, 0
1, 227127, Note_on_c, 0, 87, 0
1, 227282, Note_on_c, 0, 39, 67
1, 227285, Note_on_c, 0, 51, 62
1, 227405, Note_on_c, 0, 51, 0
1, 227405, Control_c, 0, 64, 0
1, 227452, Note_on_c, 0, 39, 0
1, 227570, Note_on_c, 0, 48, 65
1, 227572, Note_on_c, 0, 94, 64
1, 227572, Note_on_c, 0, 87, 66
1, 227572, Note_on_c, 0, 82, 64
1, 227595, Note_on_c, 0, 36, 65
1, 227660, Control_c, 0, 64, 127
1, 227737, Note_on_c, 0, 36, 0
1, 227740, Note_on_c, 0, 48, 0
1, 227877, Note_on_c, 0, 94, 0
1, 227930, Note_on_c, 0, 51, 58
1, 227965, Note_on_c, 0, 82, 0
1, 228030, Note_on_c, 0, 87, 0
1, 228057, Note_on_c, 0, 63, 58
1, 228090, Note_on_c, 0, 51, 0
1, 228115, Note_on_c, 0, 63, 0
1, 228125, Note_on_c, 0, 87, 64
1, 228125, Note_on_c, 0, 80, 61
1, 228147, Note_on_c, 0, 92, 63
1, 228212, Note_on_c, 0, 63, 61
1, 228227, Note_on_c, 0, 87, 0
1, 228242, Note_on_c, 0, 92, 0
1, 228245, Note_on_c, 0, 80, 0
1, 228325, Note_on_c, 0, 75, 59
1, 228335, Note_on_c, 0, 63, 0
1, 228380, Note_on_c, 0, 75, 0
1, 228432, Note_on_c, 0, 75, 66
1, 228580, Note_on_c, 0, 75, 0
1, 228677, Note_on_c, 0, 87, 76
1, 228700, Note_on_c, 0, 75, 71
1, 228780, Note_on_c, 0, 75, 0
1, 228872, Note_on_c, 0, 87, 0
1, 228925, Note_on_c, 0, 51, 65
1, 228950, Note_on_c, 0, 39, 70
1, 229022, Control_c, 0, 64, 0
1, 229025, Note_on_c, 0, 51, 0
1, 229067, Note_on_c, 0, 39, 0
1, 229192, Note_on_c, 0, 35, 76
1, 229195, Note_on_c, 0, 47, 70
1, 229210, Note_on_c, 0, 86, 73
1, 229210, Note_on_c, 0, 79, 69
1, 229212, Note_on_c, 0, 91, 72
1, 229252, Control_c, 0, 64, 127
1, 229335, Note_on_c, 0, 35, 0
1, 229337, Note_on_c, 0, 47, 0
1, 229472, Note_on_c, 0, 91, 0
1, 229505, Note_on_c, 0, 51, 60
1, 229540, Note_on_c, 0, 79, 0
1, 229582, Note_on_c, 0, 86, 0
1, 229612, Note_on_c, 0, 63, 60
1, 229672, Note_on_c, 0, 63, 0
1, 229672, Note_on_c, 0, 51, 0
1, 229680, Note_on_c, 0, 89, 68
1, 229682, Note_on_c, 0, 77, 63
1, 229705, Note_on_c, 0, 86, 68
1, 229757, Note_on_c, 0, 77, 0
1, 229767, Note_on_c, 0, 63, 62
1, 229780, Note_on_c, 0, 89, 0
1, 229782, Note_on_c, 0, 86, 0
1, 229882, Note_on_c, 0, 75, 63
1, 229895, Note_on_c, 0, 63, 0
1, 229937, Note_on_c, 0, 75, 0
1, 229995, Note_on_c, 0, 75, 63
1, 230112, Note_on_c, 0, 75, 0
1, 230212, Note_on_c, 0, 86, 71
1, 230230, Note_on_c, 0, 79, 67
1, 230232, Note_on_c, 0, 91, 72
1, 230462, Note_on_c, 0, 86, 0
1, 230475, Note_on_c, 0, 51, 53
1, 230500, Note_on_c, 0, 39, 62
1, 230552, Control_c, 0, 64, 0
1, 230557, Note_on_c, 0, 91, 0
1, 230590, Note_on_c, 0, 51, 0
1, 230592, Note_on_c, 0, 79, 0
1, 230610, Note_on_c, 0, 39, 0
1, 230752, Note_on_c, 0, 34, 63
1, 230755, Note_on_c, 0, 89, 63
1, 230757, Note_on_c, 0, 85, 61
1, 230757, Note_on_c, 0, 77, 58
1, 230757, Note_on_c, 0, 46, 64
1, 230797, Control_c, 0, 64, 127
1, 230877, Note_on_c, 0, 34, 0
1, 230897, Note_on_c, 0, 46, 0
1, 230967, Note_on_c, 0, 89, 0
1, 231012, Note_on_c, 0, 77, 0
1, 231020, Note_on_c, 0, 51, 54
1, 231092, Note_on_c, 0, 51, 0
1, 231097, Note_on_c, 0, 85, 0
1, 231152, Note_on_c, 0, 63, 59
1, 231195, Note_on_c, 0, 85, 47
1, 231217, Note_on_c, 0, 87, 48
1, 231220, Note_on_c, 0, 79, 46
1, 231220, Note_on_c, 0, 75, 45
1, 231232, Note_on_c, 0, 63, 0
1, 231297, Note_on_c, 0, 85, 0
1, 231300, Note_on_c, 0, 79, 0
1, 231300, Note_on_c, 0, 87, 0
1, 231307, Note_on_c, 0, 63, 58
1, 231322, Note_on_c, 0, 75, 0
1, 231417, Note_on_c, 0, 75, 54
1, 231427, Note_on_c, 0, 63, 0
1, 231475, Note_on_c, 0, 75, 0
1, 231527, Note_on_c, 0, 75, 59
1, 231647, Note_on_c, 0, 75, 0
1, 231762, Note_on_c, 0, 84, 66
1, 231765, Note_on_c, 0, 87, 73
1, 231787, Note_on_c, 0, 91, 75
1, 231787, Note_on_c, 0, 79, 69
1, 231887, Note_on_c, 0, 84, 0
1, 231890, Note_on_c, 0, 87, 0
1, 231980, Note_on_c, 0, 33, 43
1, 231982, Note_on_c, 0, 45, 46
1, 232105, Note_on_c, 0, 91, 0
1, 232127, Note_on_c, 0, 45, 0
1, 232127, Control_c, 0, 64, 0
1, 232137, Note_on_c, 0, 34, 59
1, 232170, Note_on_c, 0, 33, 0
1, 232175, Note_on_c, 0, 79, 0
1, 232182, Note_on_c, 0, 81, 68
1, 232212, Note_on_c, 0, 81, 0
1, 232242, Note_on_c, 0, 46, 64
1, 232262, Note_on_c, 0, 89, 75
1, 232265, Note_on_c, 0, 85, 76
1, 232265, Note_on_c, 0, 77, 71
1, 232370, Control_c, 0, 64, 127
1, 232425, Note_on_c, 0, 46, 0
1, 232450, Note_on_c, 0, 34, 0
1, 232502, Note_on_c, 0, 51, 53
1, 232560, Note_on_c, 0, 77, 0
1, 232582, Note_on_c, 0, 89, 0
1, 232612, Note_on_c, 0, 63, 51
1, 232625, Note_on_c, 0, 85, 0
1, 232670, Note_on_c, 0, 51, 0
1, 232697, Note_on_c, 0, 85, 58
1, 232712, Note_on_c, 0, 63, 0
1, 232720, Note_on_c, 0, 79, 50
1, 232720, Note_on_c, 0, 75, 51
1, 232722, Note_on_c, 0, 87, 53
1, 232800, Note_on_c, 0, 85, 0
1, 232802, Note_on_c, 0, 79, 0
1, 232802, Note_on_c, 0, 75, 0
1, 232810, Note_on_c, 0, 63, 53
1, 232825, Note_on_c, 0, 87, 0
1, 232920, Note_on_c, 0, 75, 59
1, 232927, Note_on_c, 0, 63, 0
1, 232977, Note_on_c, 0, 75, 0
1, 233027, Note_on_c, 0, 75, 66
1, 233127, Note_on_c, 0, 75, 0
1, 233170, Control_c, 0, 67, 127
1, 233270, Note_on_c, 0, 87, 65
1, 233270, Note_on_c, 0, 84, 67
1, 233292, Note_on_c, 0, 91, 63
1, 233292, Note_on_c, 0, 79, 60
1, 233390, Note_on_c, 0, 84, 0
1, 233412, Note_on_c, 0, 87, 0
1, 233490, Note_on_c, 0, 45, 54
1, 233490, Note_on_c, 0, 33, 58
1, 233542, Control_c, 0, 64, 0
1, 233590, Note_on_c, 0, 91, 0
1, 233610, Note_on_c, 0, 45, 0
1, 233637, Note_on_c, 0, 79, 0
1, 233640, Note_on_c, 0, 34, 51
1, 233697, Note_on_c, 0, 33, 0
1, 233725, Note_on_c, 0, 46, 49
1, 233770, Note_on_c, 0, 89, 64
1, 233772, Note_on_c, 0, 85, 63
1, 233775, Note_on_c, 0, 77, 58
1, 233790, Control_c, 0, 64, 127
1, 233890, Note_on_c, 0, 46, 0
1, 233890, Note_on_c, 0, 34, 0
1, 233995, Note_on_c, 0, 51, 48
1, 234027, Note_on_c, 0, 77, 0
1, 234067, Note_on_c, 0, 89, 0
1, 234100, Note_on_c, 0, 63, 49
1, 234115, Note_on_c, 0, 85, 0
1, 234157, Note_on_c, 0, 51, 0
1, 234182, Note_on_c, 0, 85, 63
1, 234182, Note_on_c, 0, 79, 60
1, 234197, Note_on_c, 0, 63, 0
1, 234205, Note_on_c, 0, 87, 62
1, 234207, Note_on_c, 0, 75, 57
1, 234265, Note_on_c, 0, 79, 0
1, 234287, Note_on_c, 0, 85, 0
1, 234290, Note_on_c, 0, 87, 0
1, 234297, Note_on_c, 0, 63, 50
1, 234310, Note_on_c, 0, 75, 0
1, 234382, Note_on_c, 0, 75, 55
1, 234417, Note_on_c, 0, 63, 0
1, 234442, Note_on_c, 0, 75, 0
1, 234495, Note_on_c, 0, 75, 50
1, 234600, Control_c, 0, 67, 0
1, 234617, Note_on_c, 0, 75, 0
1, 234760, Note_on_c, 0, 89, 66
1, 234760, Note_on_c, 0, 77, 53
1, 234762, Note_on_c, 0, 81, 64
1, 234905, Note_on_c, 0, 81, 0
1, 234985, Note_on_c, 0, 48, 59
1, 234995, Note_on_c, 0, 77, 0
1, 235002, Note_on_c, 0, 36, 63
1, 235057, Control_c, 0, 64, 0
1, 235125, Note_on_c, 0, 89, 0
1, 235127, Note_on_c, 0, 48, 0
1, 235140, Note_on_c, 0, 37, 66
1, 235192, Note_on_c, 0, 36, 0
1, 235242, Note_on_c, 0, 49, 59
1, 235265, Note_on_c, 0, 84, 58
1, 235267, Note_on_c, 0, 87, 59
1, 235270, Note_on_c, 0, 75, 53
1, 235292, Control_c, 0, 64, 127
1, 235370, Note_on_c, 0, 37, 0
1, 235377, Note_on_c, 0, 49, 0
1, 235437, Note_on_c, 0, 84, 0
1, 235485, Note_on_c, 0, 58, 59
1, 235512, Note_on_c, 0, 65, 49
1, 235515, Note_on_c, 0, 61, 57
1, 235517, Note_on_c, 0, 53, 55
1, 235532, Note_on_c, 0, 87, 0
1, 235535, Note_on_c, 0, 75, 0
1, 235727, Note_on_c, 0, 65, 0
1, 235772, Note_on_c, 0, 58, 0
1, 235785, Note_on_c, 0, 85, 55
1, 235807, Note_on_c, 0, 82, 51
1, 235807, Note_on_c, 0, 73, 50
1, 235905, Note_on_c, 0, 53, 0
1, 235952, Note_on_c, 0, 61, 0
1, 236065, Note_on_c, 0, 70, 53
1, 236065, Note_on_c, 0, 65, 51
1, 236067, Note_on_c, 0, 61, 52
1, 236070, Note_on_c, 0, 58, 53
1, 236082, Note_on_c, 0, 82, 0
1, 236082, Note_on_c, 0, 73, 0
1, 236085, Note_on_c, 0, 85, 0
1, 236172, Note_on_c, 0, 58, 0
1, 236175, Note_on_c, 0, 70, 0
1, 236197, Note_on_c, 0, 65, 0
1, 236270, Note_on_c, 0, 65, 46
1, 236275, Note_on_c, 0, 77, 50
1, 236350, Note_on_c, 0, 65, 0
1, 236415, Note_on_c, 0, 77, 0
1, 236415, Note_on_c, 0, 61, 0
1, 236460, Control_c, 0, 64, 0
1, 236512, Note_on_c, 0, 49, 49
1, 236517, Note_on_c, 0, 37, 58
1, 236610, Note_on_c, 0, 49, 0
1, 236612, Note_on_c, 0, 37, 0
1, 236622, Control_c, 0, 64, 127
1, 236657, Control_c, 0, 64, 0
1, 236772, Note_on_c, 0, 84, 54
1, 236775, Note_on_c, 0, 79, 46
1, 236775, Note_on_c, 0, 75, 47
1, 236775, Note_on_c, 0, 72, 44
1, 236775, Note_on_c, 0, 39, 58
1, 236795, Note_on_c, 0, 27, 58
1, 236900, Control_c, 0, 64, 127
1, 236987, Note_on_c, 0, 39, 0
1, 236990, Note_on_c, 0, 75, 0
1, 237010, Note_on_c, 0, 27, 0
1, 237077, Note_on_c, 0, 55, 49
1, 237080, Note_on_c, 0, 63, 49
1, 237080, Note_on_c, 0, 61, 49
1, 237092, Note_on_c, 0, 84, 0
1, 237117, Note_on_c, 0, 72, 0
1, 237205, Note_on_c, 0, 79, 0
1, 237300, Note_on_c, 0, 79, 45
1, 237300, Note_on_c, 0, 73, 47
1, 237317, Note_on_c, 0, 70, 39
1, 237320, Note_on_c, 0, 82, 45
1, 237437, Note_on_c, 0, 55, 0
1, 237440, Note_on_c, 0, 70, 0
1, 237442, Note_on_c, 0, 73, 0
1, 237470, Note_on_c, 0, 79, 0
1, 237512, Note_on_c, 0, 61, 0
1, 237535, Note_on_c, 0, 63, 0
1, 237537, Note_on_c, 0, 82, 0
1, 237607, Note_on_c, 0, 67, 51
1, 237610, Note_on_c, 0, 63, 50
1, 237612, Note_on_c, 0, 61, 51
1, 237615, Note_on_c, 0, 75, 58
1, 237732, Note_on_c, 0, 75, 0
1, 237810, Note_on_c, 0, 87, 64
1, 237832, Note_on_c, 0, 75, 62
1, 237905, Note_on_c, 0, 75, 0
1, 237925, Note_on_c, 0, 67, 0
1, 237927, Note_on_c, 0, 63, 0
1, 237952, Note_on_c, 0, 61, 0
1, 237975, Note_on_c, 0, 87, 0
1, 238020, Note_on_c, 0, 63, 52
1, 238020, Note_on_c, 0, 61, 53
1, 238020, Note_on_c, 0, 55, 53
1, 238125, Note_on_c, 0, 61, 0
1, 238145, Note_on_c, 0, 55, 0
1, 238147, Note_on_c, 0, 63, 0
1, 238255, Control_c, 0, 64, 0
1, 238285, Note_on_c, 0, 44, 75
1, 238285, Note_on_c, 0, 32, 72
1, 238342, Note_on_c, 0, 97, 81
1, 238345, Note_on_c, 0, 90, 83
1, 238345, Note_on_c, 0, 85, 84
1, 238495, Control_c, 0, 64, 127
1, 238572, Note_on_c, 0, 44, 0
1, 238575, Note_on_c, 0, 32, 0
1, 238595, Note_on_c, 0, 97, 0
1, 238625, Note_on_c, 0, 66, 72
1, 238627, Note_on_c, 0, 63, 71
1, 238630, Note_on_c, 0, 73, 78
1, 238642, Note_on_c, 0, 85, 0
1, 238727, Note_on_c, 0, 90, 0
1, 238835, Note_on_c, 0, 66, 0
1, 238840, Note_on_c, 0, 84, 66
1, 238842, Note_on_c, 0, 96, 68
1, 238862, Note_on_c, 0, 90, 67
1, 238967, Note_on_c, 0, 73, 0
1, 238982, Note_on_c, 0, 63, 0
1, 239067, Note_on_c, 0, 96, 0
1, 239077, Note_on_c, 0, 66, 58
1, 239080, Note_on_c, 0, 63, 57
1, 239102, Note_on_c, 0, 72, 59
1, 239115, Note_on_c, 0, 84, 0
1, 239160, Note_on_c, 0, 90, 0
1, 239220, Note_on_c, 0, 66, 0
1, 239270, Note_on_c, 0, 72, 0
1, 239335, Note_on_c, 0, 63, 0
1, 239340, Note_on_c, 0, 75, 62
1, 239340, Note_on_c, 0, 87, 66
1, 239465, Control_c, 0, 67, 127
1, 239575, Note_on_c, 0, 75, 0
1, 239582, Note_on_c, 0, 63, 46
1, 239585, Note_on_c, 0, 51, 47
1, 239640, Note_on_c, 0, 87, 0
1, 239680, Note_on_c, 0, 51, 0
1, 239700, Note_on_c, 0, 63, 0
1, 239797, Note_on_c, 0, 94, 68
1, 239797, Note_on_c, 0, 87, 70
1, 239800, Note_on_c, 0, 82, 65
1, 239855, Control_c, 0, 64, 0
1, 240047, Note_on_c, 0, 58, 45
1, 240057, Note_on_c, 0, 63, 65
1, 240060, Note_on_c, 0, 60, 66
1, 240060, Note_on_c, 0, 70, 64
1, 240080, Control_c, 0, 64, 127
1, 240180, Note_on_c, 0, 87, 0
1, 240225, Note_on_c, 0, 82, 0
1, 240242, Note_on_c, 0, 94, 0
1, 240245, Note_on_c, 0, 63, 0
1, 240290, Note_on_c, 0, 58, 0
1, 240340, Note_on_c, 0, 87, 64
1, 240340, Note_on_c, 0, 80, 62
1, 240362, Note_on_c, 0, 92, 63
1, 240375, Note_on_c, 0, 70, 0
1, 240487, Note_on_c, 0, 60, 0
1, 240527, Note_on_c, 0, 87, 0
1, 240560, Note_on_c, 0, 63, 51
1, 240562, Note_on_c, 0, 60, 50
1, 240582, Note_on_c, 0, 68, 49
1, 240600, Note_on_c, 0, 56, 52
1, 240635, Note_on_c, 0, 92, 0
1, 240652, Control_c, 0, 67, 0
1, 240660, Note_on_c, 0, 80, 0
1, 240675, Note_on_c, 0, 63, 0
1, 240700, Note_on_c, 0, 60, 0
1, 240722, Note_on_c, 0, 68, 0
1, 240742, Note_on_c, 0, 56, 0
1, 240792, Note_on_c, 0, 84, 59
1, 240795, Note_on_c, 0, 72, 50
1, 240920, Note_on_c, 0, 72, 0
1, 240995, Note_on_c, 0, 60, 52
1, 240997, Note_on_c, 0, 48, 54
1, 241007, Note_on_c, 0, 84, 0
1, 241097, Note_on_c, 0, 60, 0
1, 241097, Control_c, 0, 64, 0
1, 241152, Note_on_c, 0, 48, 0
1, 241255, Note_on_c, 0, 84, 64
1, 241257, Note_on_c, 0, 90, 66
1, 241257, Note_on_c, 0, 44, 62
1, 241260, Note_on_c, 0, 78, 60
1, 241262, Note_on_c, 0, 32, 62
1, 241320, Control_c, 0, 64, 127
1, 241377, Note_on_c, 0, 44, 0
1, 241402, Note_on_c, 0, 32, 0
1, 241422, Note_on_c, 0, 90, 0
1, 241527, Note_on_c, 0, 78, 0
1, 241535, Note_on_c, 0, 66, 59
1, 241537, Note_on_c, 0, 54, 58
1, 241540, Note_on_c, 0, 63, 58
1, 241542, Note_on_c, 0, 60, 58
1, 241680, Note_on_c, 0, 84, 0
1, 241697, Note_on_c, 0, 66, 0
1, 241737, Note_on_c, 0, 89, 64
1, 241750, Note_on_c, 0, 63, 0
1, 241777, Note_on_c, 0, 84, 62
1, 241780, Note_on_c, 0, 77, 59
1, 241795, Note_on_c, 0, 54, 0
1, 241910, Note_on_c, 0, 60, 0
1, 242005, Note_on_c, 0, 53, 58
1, 242022, Note_on_c, 0, 65, 65
1, 242022, Note_on_c, 0, 56, 61
1, 242027, Note_on_c, 0, 60, 62
1, 242060, Note_on_c, 0, 89, 0
1, 242170, Note_on_c, 0, 77, 0
1, 242190, Note_on_c, 0, 84, 0
1, 242192, Note_on_c, 0, 53, 0
1, 242282, Note_on_c, 0, 65, 0
1, 242287, Note_on_c, 0, 84, 67
1, 242290, Note_on_c, 0, 76, 64
1, 242310, Note_on_c, 0, 88, 68
1, 242345, Note_on_c, 0, 60, 0
1, 242367, Note_on_c, 0, 56, 0
1, 242485, Note_on_c, 0, 64, 65
1, 242487, Note_on_c, 0, 52, 65
1, 242490, Note_on_c, 0, 60, 65
1, 242510, Note_on_c, 0, 56, 65
1, 242592, Note_on_c, 0, 52, 0
1, 242595, Note_on_c, 0, 60, 0
1, 242620, Control_c, 0, 64, 0
1, 242655, Note_on_c, 0, 56, 0
1, 242657, Note_on_c, 0, 64, 0
1, 242702, Note_on_c, 0, 88, 0
1, 242705, Note_on_c, 0, 76, 0
1, 242725, Note_on_c, 0, 84, 0
1, 242760, Note_on_c, 0, 37, 71
1, 242762, Note_on_c, 0, 25, 72
1, 242842, Note_on_c, 0, 84, 70
1, 242845, Note_on_c, 0, 88, 69
1, 242847, Note_on_c, 0, 76, 63
1, 242850, Control_c, 0, 64, 127
1, 242935, Note_on_c, 0, 25, 0
1, 242952, Note_on_c, 0, 37, 0
1, 243112, Note_on_c, 0, 56, 64
1, 243115, Note_on_c, 0, 64, 64
1, 243117, Note_on_c, 0, 52, 69
1, 243120, Note_on_c, 0, 60, 70
1, 243310, Note_on_c, 0, 88, 0
1, 243332, Note_on_c, 0, 76, 0
1, 243350, Note_on_c, 0, 84, 0
1, 243395, Note_on_c, 0, 60, 0
1, 243437, Note_on_c, 0, 77, 49
1, 243442, Note_on_c, 0, 52, 0
1, 243467, Note_on_c, 0, 89, 50
1, 243490, Note_on_c, 0, 85, 50
1, 243615, Note_on_c, 0, 56, 0
1, 243640, Note_on_c, 0, 64, 0
1, 243697, Note_on_c, 0, 89, 0
1, 243710, Note_on_c, 0, 56, 46
1, 243715, Note_on_c, 0, 53, 47
1, 243722, Note_on_c, 0, 77, 0
1, 243730, Note_on_c, 0, 65, 48
1, 243732, Note_on_c, 0, 61, 48
1, 243745, Note_on_c, 0, 85, 0
1, 243795, Control_c, 0, 64, 0
1, 243875, Note_on_c, 0, 65, 0
1, 243965, Note_on_c, 0, 65, 57
1, 243967, Note_on_c, 0, 77, 63
1, 244015, Control_c, 0, 64, 127
1, 244020, Note_on_c, 0, 56, 0
1, 244022, Note_on_c, 0, 53, 0
1, 244047, Note_on_c, 0, 61, 0
1, 244072, Note_on_c, 0, 65, 0
1, 244145, Note_on_c, 0, 41, 65
1, 244147, Note_on_c, 0, 53, 54
1, 244157, Note_on_c, 0, 77, 0
1, 244250, Note_on_c, 0, 41, 0
1, 244267, Note_on_c, 0, 53, 0
1, 244315, Control_c, 0, 64, 0
1, 244427, Note_on_c, 0, 84, 60
1, 244430, Note_on_c, 0, 87, 58
1, 244432, Note_on_c, 0, 75, 52
1, 244435, Note_on_c, 0, 46, 65
1, 244455, Note_on_c, 0, 34, 66
1, 244565, Control_c, 0, 64, 127
1, 244640, Note_on_c, 0, 87, 0
1, 244640, Note_on_c, 0, 84, 0
1, 244642, Note_on_c, 0, 46, 0
1, 244670, Note_on_c, 0, 34, 0
1, 244682, Note_on_c, 0, 75, 0
1, 244717, Note_on_c, 0, 53, 51
1, 244797, Note_on_c, 0, 65, 50
1, 244812, Note_on_c, 0, 53, 0
1, 244877, Note_on_c, 0, 65, 0
1, 244887, Note_on_c, 0, 85, 58
1, 244887, Note_on_c, 0, 73, 54
1, 244907, Note_on_c, 0, 82, 54
1, 244982, Note_on_c, 0, 82, 0
1, 244982, Note_on_c, 0, 73, 0
1, 244990, Note_on_c, 0, 65, 52
1, 245010, Note_on_c, 0, 85, 0
1, 245085, Note_on_c, 0, 77, 59
1, 245097, Note_on_c, 0, 65, 0
1, 245137, Note_on_c, 0, 77, 0
1, 245190, Note_on_c, 0, 77, 63
1, 245307, Note_on_c, 0, 77, 0
1, 245422, Note_on_c, 0, 84, 63
1, 245447, Note_on_c, 0, 81, 58
1, 245467, Note_on_c, 0, 72, 53
1, 245570, Note_on_c, 0, 72, 0
1, 245590, Note_on_c, 0, 81, 0
1, 245640, Note_on_c, 0, 53, 61
1, 245640, Note_on_c, 0, 65, 61
1, 245720, Control_c, 0, 67, 127
1, 245727, Control_c, 0, 64, 0
1, 245742, Note_on_c, 0, 65, 0
1, 245782, Note_on_c, 0, 53, 0
1, 245802, Note_on_c, 0, 84, 0
1, 245937, Note_on_c, 0, 84, 62
1, 245940, Note_on_c, 0, 75, 52
1, 245940, Note_on_c, 0, 87, 58
1, 245942, Note_on_c, 0, 34, 63
1, 245945, Note_on_c, 0, 46, 62
1, 245965, Control_c, 0, 64, 127
1, 246107, Note_on_c, 0, 84, 0
1, 246110, Note_on_c, 0, 46, 0
1, 246112, Note_on_c, 0, 34, 0
1, 246127, Note_on_c, 0, 87, 0
1, 246130, Note_on_c, 0, 75, 0
1, 246207, Note_on_c, 0, 53, 55
1, 246287, Note_on_c, 0, 65, 54
1, 246300, Note_on_c, 0, 53, 0
1, 246352, Note_on_c, 0, 82, 57
1, 246357, Note_on_c, 0, 85, 57
1, 246360, Note_on_c, 0, 73, 50
1, 246392, Note_on_c, 0, 65, 0
1, 246435, Note_on_c, 0, 73, 0
1, 246455, Note_on_c, 0, 82, 0
1, 246477, Note_on_c, 0, 85, 0
1, 246482, Note_on_c, 0, 65, 52
1, 246572, Note_on_c, 0, 77, 59
1, 246605, Note_on_c, 0, 65, 0
1, 246625, Note_on_c, 0, 77, 0
1, 246677, Note_on_c, 0, 77, 64
1, 246747, Control_c, 0, 67, 0
1, 246775, Note_on_c, 0, 77, 0
1, 246892, Note_on_c, 0, 77, 65
1, 246907, Note_on_c, 0, 84, 70
1, 246935, Note_on_c, 0, 72, 63
1, 247032, Note_on_c, 0, 77, 0
1, 247105, Note_on_c, 0, 48, 52
1, 247127, Note_on_c, 0, 36, 59
1, 247182, Note_on_c, 0, 84, 0
1, 247230, Note_on_c, 0, 48, 0
1, 247232, Control_c, 0, 64, 0
1, 247247, Note_on_c, 0, 72, 0
1, 247260, Note_on_c, 0, 37, 64
1, 247290, Note_on_c, 0, 36, 0
1, 247365, Note_on_c, 0, 49, 64
1, 247402, Note_on_c, 0, 84, 65
1, 247405, Note_on_c, 0, 77, 66
1, 247407, Note_on_c, 0, 72, 60
1, 247452, Control_c, 0, 64, 127
1, 247530, Note_on_c, 0, 37, 0
1, 247550, Note_on_c, 0, 49, 0
1, 247570, Note_on_c, 0, 84, 0
1, 247572, Note_on_c, 0, 72, 0
1, 247625, Note_on_c, 0, 53, 62
1, 247657, Note_on_c, 0, 77, 0
1, 247685, Note_on_c, 0, 65, 66
1, 247722, Note_on_c, 0, 53, 0
1, 247775, Note_on_c, 0, 77, 62
1, 247787, Note_on_c, 0, 65, 0
1, 247797, Note_on_c, 0, 70, 63
1, 247800, Note_on_c, 0, 82, 66
1, 247875, Note_on_c, 0, 77, 0
1, 247880, Note_on_c, 0, 82, 0
1, 247900, Note_on_c, 0, 70, 0
1, 247905, Note_on_c, 0, 65, 59
1, 248007, Note_on_c, 0, 65, 0
1, 248017, Note_on_c, 0, 77, 62
1, 248072, Note_on_c, 0, 77, 0
1, 248125, Note_on_c, 0, 77, 64
1, 248265, Note_on_c, 0, 77, 0
1, 248362, Note_on_c, 0, 81, 63
1, 248382, Note_on_c, 0, 69, 57
1, 248385, Note_on_c, 0, 77, 60
1, 248570, Note_on_c, 0, 77, 0
1, 248572, Note_on_c, 0, 69, 0
1, 248585, Note_on_c, 0, 48, 51
1, 248605, Note_on_c, 0, 36, 59
1, 248727, Note_on_c, 0, 48, 0
1, 248732, Control_c, 0, 64, 0
1, 248785, Note_on_c, 0, 37, 65
1, 248817, Note_on_c, 0, 81, 0
1, 248820, Note_on_c, 0, 36, 0
1, 248850, Note_on_c, 0, 49, 63
1, 248865, Note_on_c, 0, 84, 78
1, 248867, Note_on_c, 0, 77, 75
1, 248870, Note_on_c, 0, 72, 69
1, 248962, Control_c, 0, 64, 127
1, 249040, Note_on_c, 0, 37, 0
1, 249055, Note_on_c, 0, 49, 0
1, 249077, Note_on_c, 0, 72, 0
1, 249097, Note_on_c, 0, 77, 0
1, 249137, Note_on_c, 0, 53, 61
1, 249142, Note_on_c, 0, 84, 0
1, 249217, Note_on_c, 0, 65, 65
1, 249232, Note_on_c, 0, 53, 0
1, 249307, Note_on_c, 0, 77, 72
1, 249320, Note_on_c, 0, 70, 68
1, 249322, Note_on_c, 0, 65, 0
1, 249332, Note_on_c, 0, 82, 77
1, 249390, Note_on_c, 0, 77, 0
1, 249410, Note_on_c, 0, 70, 0
1, 249412, Note_on_c, 0, 82, 0
1, 249420, Note_on_c, 0, 65, 74
1, 249527, Note_on_c, 0, 77, 82
1, 249542, Note_on_c, 0, 65, 0
1, 249585, Note_on_c, 0, 77, 0
1, 249660, Note_on_c, 0, 77, 81
1, 249737, Note_on_c, 0, 77, 0
1, 249880, Note_on_c, 0, 68, 74
1, 249900, Note_on_c, 0, 80, 77
1, 249900, Note_on_c, 0, 77, 78
1, 249960, Note_on_c, 0, 80, 0
1, 249982, Note_on_c, 0, 77, 0
1, 250052, Note_on_c, 0, 68, 0
1, 250105, Note_on_c, 0, 36, 75
1, 250107, Note_on_c, 0, 48, 66
1, 250207, Note_on_c, 0, 48, 0
1, 250210, Control_c, 0, 64, 0
1, 250227, Note_on_c, 0, 36, 0
1, 250362, Note_on_c, 0, 67, 86
1, 250365, Note_on_c, 0, 79, 96
1, 250367, Note_on_c, 0, 76, 96
1, 250367, Note_on_c, 0, 73, 96
1, 250372, Note_on_c, 0, 34, 80
1, 250375, Note_on_c, 0, 46, 80
1, 250437, Control_c, 0, 64, 127
1, 250467, Note_on_c, 0, 79, 0
1, 250490, Control_c, 0, 67, 127
1, 250492, Note_on_c, 0, 73, 0
1, 250495, Note_on_c, 0, 76, 0
1, 250512, Note_on_c, 0, 67, 0
1, 250580, Note_on_c, 0, 34, 0
1, 250600, Note_on_c, 0, 46, 0
1, 250650, Control_c, 0, 64, 0
1, 250702, Note_on_c, 0, 47, 63
1, 250722, Note_on_c, 0, 35, 62
1, 250737, Note_on_c, 0, 65, 63
1, 250737, Note_on_c, 0, 56, 60
1, 250775, Note_on_c, 0, 47, 0
1, 250777, Note_on_c, 0, 35, 0
1, 250797, Note_on_c, 0, 56, 0
1, 250805, Note_on_c, 0, 64, 66
1, 250807, Note_on_c, 0, 55, 53
1, 250810, Note_on_c, 0, 46, 61
1, 250812, Note_on_c, 0, 34, 60
1, 250865, Note_on_c, 0, 65, 0
1, 250927, Note_on_c, 0, 55, 0
1, 250952, Note_on_c, 0, 34, 0
1, 250995, Note_on_c, 0, 46, 0
1, 251000, Note_on_c, 0, 56, 48
1, 251017, Note_on_c, 0, 64, 0
1, 251022, Note_on_c, 0, 65, 58
1, 251027, Note_on_c, 0, 35, 54
1, 251032, Note_on_c, 0, 47, 53
1, 251102, Note_on_c, 0, 47, 0
1, 251122, Note_on_c, 0, 56, 0
1, 251125, Note_on_c, 0, 65, 0
1, 251127, Note_on_c, 0, 35, 0
1, 251220, Note_on_c, 0, 59, 53
1, 251220, Note_on_c, 0, 68, 57
1, 251222, Note_on_c, 0, 50, 54
1, 251227, Note_on_c, 0, 38, 64
1, 251300, Note_on_c, 0, 50, 0
1, 251302, Note_on_c, 0, 59, 0
1, 251305, Note_on_c, 0, 38, 0
1, 251325, Note_on_c, 0, 68, 0
1, 251392, Note_on_c, 0, 67, 55
1, 251395, Note_on_c, 0, 58, 58
1, 251397, Note_on_c, 0, 49, 59
1, 251422, Note_on_c, 0, 37, 63
1, 251450, Note_on_c, 0, 67, 0
1, 251452, Note_on_c, 0, 58, 0
1, 251472, Note_on_c, 0, 49, 0
1, 251500, Note_on_c, 0, 37, 0
1, 251587, Note_on_c, 0, 64, 62
1, 251592, Note_on_c, 0, 34, 66
1, 251612, Note_on_c, 0, 55, 62
1, 251617, Note_on_c, 0, 46, 64
1, 251692, Note_on_c, 0, 55, 0
1, 251712, Note_on_c, 0, 34, 0
1, 251752, Note_on_c, 0, 64, 0
1, 251752, Note_on_c, 0, 46, 0
1, 251760, Note_on_c, 0, 65, 49
1, 251767, Note_on_c, 0, 47, 61
1, 251782, Note_on_c, 0, 56, 51
1, 251787, Note_on_c, 0, 35, 59
1, 251845, Note_on_c, 0, 35, 0
1, 251865, Note_on_c, 0, 47, 0
1, 251880, Note_on_c, 0, 56, 0
1, 251880, Note_on_c, 0, 65, 0
1, 251952, Note_on_c, 0, 66, 49
1, 251955, Note_on_c, 0, 57, 50
1, 251962, Note_on_c, 0, 36, 59
1, 251965, Note_on_c, 0, 48, 50
1, 252032, Note_on_c, 0, 66, 0
1, 252035, Note_on_c, 0, 48, 0
1, 252035, Note_on_c, 0, 36, 0
1, 252055, Note_on_c, 0, 57, 0
1, 252147, Note_on_c, 0, 67, 50
1, 252150, Note_on_c, 0, 49, 58
1, 252152, Note_on_c, 0, 58, 59
1, 252157, Note_on_c, 0, 37, 63
1, 252212, Control_c, 0, 64, 127
1, 252227, Note_on_c, 0, 58, 0
1, 252247, Control_c, 0, 64, 0
1, 252252, Note_on_c, 0, 37, 0
1, 252270, Note_on_c, 0, 49, 0
1, 252270, Note_on_c, 0, 67, 0
1, 252325, Note_on_c, 0, 50, 58
1, 252327, Note_on_c, 0, 59, 60
1, 252335, Note_on_c, 0, 38, 65
1, 252347, Note_on_c, 0, 68, 60
1, 252385, Note_on_c, 0, 38, 0
1, 252402, Note_on_c, 0, 50, 0
1, 252427, Note_on_c, 0, 59, 0
1, 252450, Note_on_c, 0, 68, 0
1, 252517, Note_on_c, 0, 69, 61
1, 252522, Note_on_c, 0, 60, 61
1, 252525, Note_on_c, 0, 51, 62
1, 252527, Note_on_c, 0, 39, 66
1, 252527, Control_c, 0, 67, 0
1, 252622, Note_on_c, 0, 60, 0
1, 252642, Note_on_c, 0, 51, 0
1, 252645, Note_on_c, 0, 39, 0
1, 252685, Note_on_c, 0, 69, 0
1, 252732, Note_on_c, 0, 70, 64
1, 252735, Note_on_c, 0, 61, 64
1, 252740, Control_c, 0, 64, 127
1, 252760, Note_on_c, 0, 52, 64
1, 252767, Note_on_c, 0, 40, 75
1, 252900, Note_on_c, 0, 40, 0
1, 252900, Note_on_c, 0, 52, 0
1, 252965, Note_on_c, 0, 61, 0
1, 252987, Note_on_c, 0, 70, 0
1, 253030, Control_c, 0, 64, 0
1, 253037, Note_on_c, 0, 41, 63
1, 253040, Note_on_c, 0, 53, 53
1, 253080, Note_on_c, 0, 62, 53
1, 253082, Note_on_c, 0, 71, 52
1, 253095, Note_on_c, 0, 53, 0
1, 253117, Note_on_c, 0, 41, 0
1, 253160, Note_on_c, 0, 62, 0
1, 253207, Note_on_c, 0, 61, 57
1, 253207, Note_on_c, 0, 52, 54
1, 253210, Note_on_c, 0, 70, 59
1, 253210, Note_on_c, 0, 40, 66
1, 253290, Note_on_c, 0, 52, 0
1, 253292, Note_on_c, 0, 71, 0
1, 253295, Note_on_c, 0, 40, 0
1, 253332, Note_on_c, 0, 70, 0
1, 253335, Note_on_c, 0, 61, 0
1, 253365, Note_on_c, 0, 41, 75
1, 253382, Note_on_c, 0, 71, 63
1, 253382, Note_on_c, 0, 53, 63
1, 253385, Note_on_c, 0, 62, 62
1, 253440, Note_on_c, 0, 53, 0
1, 253442, Note_on_c, 0, 41, 0
1, 253462, Note_on_c, 0, 62, 0
1, 253482, Note_on_c, 0, 71, 0
1, 253555, Note_on_c, 0, 56, 61
1, 253557, Note_on_c, 0, 44, 62
1, 253575, Note_on_c, 0, 65, 58
1, 253577, Note_on_c, 0, 74, 62
1, 253632, Note_on_c, 0, 44, 0
1, 253632, Note_on_c, 0, 56, 0
1, 253652, Note_on_c, 0, 65, 0
1, 253675, Note_on_c, 0, 74, 0
1, 253725, Note_on_c, 0, 73, 62
1, 253725, Note_on_c, 0, 64, 60
1, 253725, Note_on_c, 0, 55, 60
1, 253727, Note_on_c, 0, 43, 65
1, 253802, Note_on_c, 0, 55, 0
1, 253825, Note_on_c, 0, 73, 0
1, 253827, Note_on_c, 0, 43, 0
1, 253847, Note_on_c, 0, 64, 0
1, 253855, Control_c, 0, 64, 127
1, 253905, Note_on_c, 0, 40, 71
1, 253920, Note_on_c, 0, 70, 65
1, 253922, Note_on_c, 0, 61, 64
1, 253925, Note_on_c, 0, 52, 63
1, 254000, Note_on_c, 0, 52, 0
1, 254002, Note_on_c, 0, 40, 0
1, 254020, Note_on_c, 0, 61, 0
1, 254040, Note_on_c, 0, 70, 0
1, 254072, Note_on_c, 0, 71, 60
1, 254072, Note_on_c, 0, 62, 54
1, 254075, Note_on_c, 0, 41, 64
1, 254100, Note_on_c, 0, 53, 57
1, 254152, Note_on_c, 0, 53, 0
1, 254155, Note_on_c, 0, 41, 0
1, 254172, Note_on_c, 0, 62, 0
1, 254195, Note_on_c, 0, 71, 0
1, 254200, Control_c, 0, 64, 0
1, 254247, Note_on_c, 0, 54, 62
1, 254250, Note_on_c, 0, 72, 62
1, 254252, Note_on_c, 0, 42, 65
1, 254272, Note_on_c, 0, 63, 62
1, 254345, Note_on_c, 0, 54, 0
1, 254370, Note_on_c, 0, 42, 0
1, 254392, Note_on_c, 0, 63, 0
1, 254422, Note_on_c, 0, 73, 68
1, 254422, Note_on_c, 0, 64, 62
1, 254425, Note_on_c, 0, 55, 65
1, 254425, Note_on_c, 0, 43, 71
1, 254427, Control_c, 0, 64, 127
1, 254480, Note_on_c, 0, 72, 0
1, 254500, Note_on_c, 0, 55, 0
1, 254502, Note_on_c, 0, 43, 0
1, 254522, Control_c, 0, 64, 0
1, 254565, Note_on_c, 0, 64, 0
1, 254567, Note_on_c, 0, 73, 0
1, 254592, Note_on_c, 0, 56, 65
1, 254595, Note_on_c, 0, 65, 66
1, 254597, Note_on_c, 0, 74, 74
1, 254597, Note_on_c, 0, 44, 78
1, 254672, Note_on_c, 0, 56, 0
1, 254675, Note_on_c, 0, 65, 0
1, 254675, Note_on_c, 0, 44, 0
1, 254710, Control_c, 0, 64, 127
1, 254727, Note_on_c, 0, 57, 75
1, 254747, Note_on_c, 0, 66, 74
1, 254772, Note_on_c, 0, 75, 82
1, 254775, Note_on_c, 0, 45, 88
1, 254787, Note_on_c, 0, 74, 0
1, 254817, Control_c, 0, 64, 0
1, 254827, Note_on_c, 0, 66, 0
1, 254847, Note_on_c, 0, 57, 0
1, 254882, Note_on_c, 0, 58, 71
1, 254885, Note_on_c, 0, 46, 81
1, 254920, Note_on_c, 0, 75, 0
1, 254922, Note_on_c, 0, 45, 0
1, 254962, Note_on_c, 0, 58, 0
1, 254965, Note_on_c, 0, 67, 72
1, 254967, Note_on_c, 0, 76, 78
1, 255035, Control_c, 0, 64, 127
1, 255047, Note_on_c, 0, 76, 0
1, 255062, Note_on_c, 0, 67, 0
1, 255065, Note_on_c, 0, 46, 0
1, 255117, Note_on_c, 0, 67, 64
1, 255135, Note_on_c, 0, 76, 69
1, 255237, Note_on_c, 0, 67, 0
1, 255260, Note_on_c, 0, 76, 0
1, 255262, Control_c, 0, 64, 0
1, 255330, Note_on_c, 0, 77, 66
1, 255330, Note_on_c, 0, 68, 62
1, 255435, Note_on_c, 0, 64, 67
1, 255435, Note_on_c, 0, 55, 64
1, 255437, Note_on_c, 0, 58, 69
1, 255452, Note_on_c, 0, 68, 0
1, 255457, Note_on_c, 0, 61, 66
1, 255482, Control_c, 0, 64, 127
1, 255500, Note_on_c, 0, 69, 64
1, 255505, Note_on_c, 0, 78, 69
1, 255560, Note_on_c, 0, 55, 0
1, 255560, Note_on_c, 0, 64, 0
1, 255562, Note_on_c, 0, 61, 0
1, 255562, Note_on_c, 0, 58, 0
1, 255585, Note_on_c, 0, 77, 0
1, 255602, Note_on_c, 0, 69, 0
1, 255655, Note_on_c, 0, 49, 66
1, 255667, Note_on_c, 0, 78, 0
1, 255682, Note_on_c, 0, 37, 70
1, 255697, Note_on_c, 0, 70, 63
1, 255700, Note_on_c, 0, 79, 64
1, 255760, Note_on_c, 0, 37, 0
1, 255777, Note_on_c, 0, 49, 0
1, 255840, Note_on_c, 0, 70, 0
1, 255840, Note_on_c, 0, 79, 0
1, 255897, Note_on_c, 0, 80, 66
1, 255897, Note_on_c, 0, 71, 63
1, 256002, Note_on_c, 0, 52, 62
1, 256015, Note_on_c, 0, 71, 0
1, 256035, Control_c, 0, 64, 0
1, 256047, Note_on_c, 0, 55, 66
1, 256062, Note_on_c, 0, 80, 0
1, 256070, Note_on_c, 0, 61, 68
1, 256087, Note_on_c, 0, 58, 69
1, 256107, Note_on_c, 0, 81, 72
1, 256107, Note_on_c, 0, 72, 65
1, 256200, Control_c, 0, 64, 127
1, 256232, Note_on_c, 0, 81, 0
1, 256235, Note_on_c, 0, 72, 0
1, 256257, Note_on_c, 0, 61, 0
1, 256257, Note_on_c, 0, 58, 0
1, 256260, Note_on_c, 0, 55, 0
1, 256260, Note_on_c, 0, 52, 0
1, 256307, Note_on_c, 0, 82, 67
1, 256310, Note_on_c, 0, 46, 75
1, 256310, Note_on_c, 0, 34, 75
1, 256327, Note_on_c, 0, 73, 63
1, 256387, Note_on_c, 0, 34, 0
1, 256447, Note_on_c, 0, 73, 0
1, 256450, Note_on_c, 0, 46, 0
1, 256472, Note_on_c, 0, 82, 0
1, 256500, Note_on_c, 0, 83, 75
1, 256500, Note_on_c, 0, 74, 72
1, 256607, Note_on_c, 0, 56, 66
1, 256645, Note_on_c, 0, 74, 0
1, 256650, Control_c, 0, 64, 0
1, 256665, Note_on_c, 0, 83, 0
1, 256697, Note_on_c, 0, 62, 74
1, 256700, Note_on_c, 0, 59, 75
1, 256717, Note_on_c, 0, 84, 82
1, 256725, Note_on_c, 0, 52, 70
1, 256740, Note_on_c, 0, 75, 79
1, 256802, Control_c, 0, 64, 127
1, 256860, Note_on_c, 0, 52, 0
1, 256860, Note_on_c, 0, 84, 0
1, 256860, Note_on_c, 0, 56, 0
1, 256862, Note_on_c, 0, 59, 0
1, 256862, Note_on_c, 0, 75, 0
1, 256865, Note_on_c, 0, 62, 0
1, 256942, Note_on_c, 0, 32, 85
1, 256957, Note_on_c, 0, 85, 81
1, 256960, Note_on_c, 0, 76, 77
1, 256960, Note_on_c, 0, 44, 82
1, 257040, Note_on_c, 0, 44, 0
1, 257062, Note_on_c, 0, 32, 0
1, 257082, Note_on_c, 0, 76, 0
1, 257100, Note_on_c, 0, 85, 0
1, 257177, Note_on_c, 0, 86, 83
1, 257177, Note_on_c, 0, 80, 78
1, 257217, Control_c, 0, 64, 0
1, 257285, Note_on_c, 0, 80, 0
1, 257340, Note_on_c, 0, 86, 0
1, 257410, Note_on_c, 0, 56, 72
1, 257412, Note_on_c, 0, 63, 71
1, 257417, Note_on_c, 0, 60, 68
1, 257420, Note_on_c, 0, 51, 67
1, 257435, Note_on_c, 0, 87, 80
1, 257435, Note_on_c, 0, 84, 76
1, 257435, Note_on_c, 0, 80, 82
1, 257437, Note_on_c, 0, 75, 76
1, 257460, Control_c, 0, 64, 127
1, 257515, Note_on_c, 0, 84, 0
1, 257517, Note_on_c, 0, 80, 0
1, 257517, Note_on_c, 0, 87, 0
1, 257560, Note_on_c, 0, 75, 0
1, 257560, Note_on_c, 0, 56, 0
1, 257562, Note_on_c, 0, 51, 0
1, 257565, Note_on_c, 0, 60, 0
1, 257582, Note_on_c, 0, 63, 0
1, 257700, Note_on_c, 0, 63, 65
1, 257705, Note_on_c, 0, 39, 76
1, 257720, Note_on_c, 0, 75, 79
1, 257722, Note_on_c, 0, 27, 77
1, 257795, Note_on_c, 0, 75, 0
1, 257817, Note_on_c, 0, 63, 0
1, 257865, Note_on_c, 0, 27, 0
1, 257907, Note_on_c, 0, 39, 0
1, 258077, Control_c, 0, 64, 0
1, 258195, Control_c, 0, 64, 127
1, 258230, Note_on_c, 0, 65, 75
1, 258230, Note_on_c, 0, 56, 68
1, 258235, Note_on_c, 0, 60, 67
1, 258235, Note_on_c, 0, 53, 67
1, 258247, Note_on_c, 0, 89, 79
1, 258250, Note_on_c, 0, 84, 78
1, 258250, Note_on_c, 0, 77, 75
1, 258252, Note_on_c, 0, 80, 77
1, 258310, Note_on_c, 0, 56, 0
1, 258312, Note_on_c, 0, 65, 0
1, 258315, Note_on_c, 0, 53, 0
1, 258337, Note_on_c, 0, 80, 0
1, 258340, Note_on_c, 0, 60, 0
1, 258357, Note_on_c, 0, 89, 0
1, 258360, Note_on_c, 0, 84, 0
1, 258360, Note_on_c, 0, 77, 0
1, 258597, Note_on_c, 0, 75, 76
1, 258610, Note_on_c, 0, 63, 75
1, 258612, Note_on_c, 0, 27, 86
1, 258617, Note_on_c, 0, 39, 86
1, 258695, Note_on_c, 0, 27, 0
1, 258715, Note_on_c, 0, 39, 0
1, 258715, Note_on_c, 0, 63, 0
1, 258732, Note_on_c, 0, 75, 0
1, 259017, Control_c, 0, 64, 0
1, 259190, Note_on_c, 0, 61, 74
1, 259205, Note_on_c, 0, 65, 75
1, 259207, Note_on_c, 0, 68, 76
1, 259230, Note_on_c, 0, 72, 77
1, 259247, Note_on_c, 0, 96, 88
1, 259247, Note_on_c, 0, 89, 88
1, 259250, Note_on_c, 0, 84, 84
1, 259252, Note_on_c, 0, 92, 88
1, 259260, Control_c, 0, 64, 127
1, 259290, Note_on_c, 0, 65, 0
1, 259292, Note_on_c, 0, 72, 0
1, 259292, Note_on_c, 0, 68, 0
1, 259315, Note_on_c, 0, 61, 0
1, 259330, Note_on_c, 0, 89, 0
1, 259350, Note_on_c, 0, 96, 0
1, 259352, Note_on_c, 0, 84, 0
1, 259395, Note_on_c, 0, 92, 0
1, 259707, Note_on_c, 0, 63, 81
1, 259710, Note_on_c, 0, 75, 85
1, 259712, Note_on_c, 0, 39, 89
1, 259712, Note_on_c, 0, 27, 89
1, 259787, Note_on_c, 0, 63, 0
1, 259830, Note_on_c, 0, 75, 0
1, 259937, Note_on_c, 0, 27, 0
1, 260027, Note_on_c, 0, 39, 0
1, 260237, Control_c, 0, 64, 0
1, 260412, Note_on_c, 0, 58, 86
1, 260432, Note_on_c, 0, 67, 78
1, 260435, Note_on_c, 0, 94, 89
1, 260435, Note_on_c, 0, 91, 91
1, 260437, Note_on_c, 0, 82, 84
1, 260437, Note_on_c, 0, 61, 79
1, 260440, Note_on_c, 0, 85, 88
1, 260440, Note_on_c, 0, 63, 78
1, 260460, Control_c, 0, 64, 127
1, 260517, Note_on_c, 0, 58, 0
1, 260532, Note_on_c, 0, 91, 0
1, 260532, Note_on_c, 0, 85, 0
1, 260552, Note_on_c, 0, 67, 0
1, 260555, Note_on_c, 0, 82, 0
1, 260562, Note_on_c, 0, 94, 0
1, 260632, Note_on_c, 0, 63, 0
1, 260642, Note_on_c, 0, 61, 0
1, 260977, Note_on_c, 0, 39, 97
1, 260995, Note_on_c, 0, 63, 86
1, 260997, Note_on_c, 0, 75, 95
1, 261000, Note_on_c, 0, 27, 100
1, 261095, Note_on_c, 0, 75, 0
1, 261095, Note_on_c, 0, 63, 0
1, 261355, Note_on_c, 0, 27, 0
1, 261437, Note_on_c, 0, 39, 0
1, 261590, Control_c, 0, 64, 0
1, 261730, Note_on_c, 0, 32, 71
1, 261810, Note_on_c, 0, 44, 81
1, 261830, Note_on_c, 0, 68, 69
1, 261832, Control_c, 0, 64, 127
1, 261835, Note_on_c, 0, 48, 66
1, 261837, Note_on_c, 0, 39, 76
1, 261960, Note_on_c, 0, 80, 78
1, 261975, Note_on_c, 0, 68, 0
1, 262017, Note_on_c, 0, 80, 0
1, 262060, Note_on_c, 0, 48, 0
1, 262062, Note_on_c, 0, 39, 0
1, 262097, Note_on_c, 0, 80, 70
1, 262215, Note_on_c, 0, 92, 76
1, 262230, Note_on_c, 0, 80, 0
1, 262270, Note_on_c, 0, 92, 0
1, 262320, Note_on_c, 0, 80, 75
1, 262320, Note_on_c, 0, 92, 79
1, 262400, Note_on_c, 0, 92, 0
1, 262430, Note_on_c, 0, 80, 0
1, 262472, Control_c, 0, 64, 0
1, 262532, Note_on_c, 0, 44, 0
1, 262535, Note_on_c, 0, 32, 0
1, 262645, Note_on_c, 0, 67, 77
1, 262647, Note_on_c, 0, 76, 85
1, 262670, Note_on_c, 0, 70, 79
1, 262670, Note_on_c, 0, 44, 67
1, 262672, Note_on_c, 0, 73, 84
1, 262677, Note_on_c, 0, 32, 68
1, 262720, Control_c, 0, 64, 127
1, 262815, Note_on_c, 0, 44, 0
1, 262840, Note_on_c, 0, 32, 0
1, 262987, Note_on_c, 0, 27, 75
1, 263002, Note_on_c, 0, 39, 75
1, 263060, Note_on_c, 0, 39, 0
1, 263060, Note_on_c, 0, 27, 0
1, 263080, Note_on_c, 0, 67, 0
1, 263102, Note_on_c, 0, 70, 0
1, 263105, Note_on_c, 0, 76, 0
1, 263105, Note_on_c, 0, 73, 0
1, 263152, Note_on_c, 0, 44, 78
1, 263157, Note_on_c, 0, 32, 80
1, 263207, Note_on_c, 0, 44, 0
1, 263277, Note_on_c, 0, 32, 0
1, 263280, Control_c, 0, 64, 0
1, 263417, Note_on_c, 0, 63, 64
1, 263417, Note_on_c, 0, 60, 65
1, 263435, Note_on_c, 0, 56, 63
1, 263437, Note_on_c, 0, 68, 71
1, 263520, Note_on_c, 0, 80, 79
1, 263522, Control_c, 0, 64, 127
1, 263577, Note_on_c, 0, 56, 0
1, 263580, Note_on_c, 0, 80, 0
1, 263597, Note_on_c, 0, 63, 0
1, 263600, Note_on_c, 0, 60, 0
1, 263602, Note_on_c, 0, 68, 0
1, 263647, Note_on_c, 0, 80, 78
1, 263760, Note_on_c, 0, 92, 85
1, 263792, Note_on_c, 0, 80, 0
1, 263810, Note_on_c, 0, 92, 0
1, 263867, Note_on_c, 0, 92, 80
1, 263870, Note_on_c, 0, 80, 77
1, 263942, Note_on_c, 0, 92, 0
1, 263965, Note_on_c, 0, 80, 0
1, 263987, Control_c, 0, 64, 0
1, 264082, Note_on_c, 0, 32, 87
1, 264165, Note_on_c, 0, 67, 75
1, 264167, Note_on_c, 0, 76, 82
1, 264167, Note_on_c, 0, 44, 86
1, 264170, Note_on_c, 0, 73, 82
1, 264170, Note_on_c, 0, 70, 75
1, 264215, Control_c, 0, 64, 127
1, 264270, Note_on_c, 0, 44, 0
1, 264295, Note_on_c, 0, 32, 0
1, 264477, Note_on_c, 0, 27, 81
1, 264480, Note_on_c, 0, 39, 72
1, 264535, Note_on_c, 0, 27, 0
1, 264550, Note_on_c, 0, 67, 0
1, 264552, Note_on_c, 0, 39, 0
1, 264575, Note_on_c, 0, 73, 0
1, 264595, Note_on_c, 0, 70, 0
1, 264597, Note_on_c, 0, 76, 0
1, 264617, Note_on_c, 0, 44, 70
1, 264620, Note_on_c, 0, 32, 71
1, 264675, Note_on_c, 0, 44, 0
1, 264677, Note_on_c, 0, 32, 0
1, 264860, Note_on_c, 0, 68, 66
1, 264880, Note_on_c, 0, 56, 65
1, 264882, Note_on_c, 0, 63, 65
1, 264882, Note_on_c, 0, 60, 65
1, 264960, Note_on_c, 0, 80, 67
1, 264972, Note_on_c, 0, 60, 0
1, 264975, Note_on_c, 0, 63, 0
1, 264975, Note_on_c, 0, 68, 0
1, 264995, Note_on_c, 0, 56, 0
1, 265020, Note_on_c, 0, 80, 0
1, 265085, Note_on_c, 0, 80, 69
1, 265200, Note_on_c, 0, 92, 76
1, 265235, Note_on_c, 0, 80, 0
1, 265252, Note_on_c, 0, 92, 0
1, 265327, Note_on_c, 0, 92, 83
1, 265327, Note_on_c, 0, 80, 74
1, 265402, Note_on_c, 0, 92, 0
1, 265425, Note_on_c, 0, 80, 0
1, 265427, Control_c, 0, 64, 0
1, 265485, Note_on_c, 0, 32, 62
1, 265537, Note_on_c, 0, 64, 74
1, 265540, Note_on_c, 0, 44, 66
1, 265557, Note_on_c, 0, 67, 76
1, 265560, Note_on_c, 0, 76, 77
1, 265577, Note_on_c, 0, 73, 76
1, 265580, Note_on_c, 0, 70, 74
1, 265650, Control_c, 0, 64, 127
1, 265725, Note_on_c, 0, 44, 0
1, 265730, Note_on_c, 0, 32, 0
1, 265745, Note_on_c, 0, 64, 0
1, 265802, Note_on_c, 0, 27, 64
1, 265805, Note_on_c, 0, 39, 65
1, 265902, Note_on_c, 0, 39, 0
1, 265912, Note_on_c, 0, 27, 0
1, 265920, Note_on_c, 0, 76, 0
1, 265992, Note_on_c, 0, 44, 65
1, 265995, Note_on_c, 0, 32, 65
1, 266007, Note_on_c, 0, 73, 0
1, 266030, Control_c, 0, 64, 0
1, 266130, Note_on_c, 0, 67, 0
1, 266155, Note_on_c, 0, 70, 0
1, 266157, Note_on_c, 0, 44, 0
1, 266160, Note_on_c, 0, 32, 0
1, 266225, Note_on_c, 0, 64, 72
1, 266245, Note_on_c, 0, 67, 73
1, 266260, Note_on_c, 0, 76, 79
1, 266272, Note_on_c, 0, 73, 77
1, 266272, Note_on_c, 0, 70, 72
1, 266272, Control_c, 0, 64, 127
1, 266410, Note_on_c, 0, 64, 0
1, 266512, Note_on_c, 0, 27, 63
1, 266515, Note_on_c, 0, 39, 68
1, 266607, Note_on_c, 0, 39, 0
1, 266607, Note_on_c, 0, 27, 0
1, 266745, Note_on_c, 0, 44, 72
1, 266750, Note_on_c, 0, 32, 86
1, 266760, Control_c, 0, 64, 0
1, 266802, Note_on_c, 0, 76, 0
1, 266842, Note_on_c, 0, 70, 0
1, 266845, Note_on_c, 0, 73, 0
1, 266862, Note_on_c, 0, 67, 0
1, 266865, Note_on_c, 0, 44, 0
1, 266885, Note_on_c, 0, 32, 0
1, 266980, Control_c, 0, 64, 127
1, 266997, Note_on_c, 0, 67, 75
1, 266997, Note_on_c, 0, 64, 74
1, 267000, Note_on_c, 0, 76, 83
1, 267017, Note_on_c, 0, 73, 83
1, 267020, Note_on_c, 0, 70, 76
1, 267117, Note_on_c, 0, 64, 0
1, 267300, Note_on_c, 0, 39, 83
1, 267300, Note_on_c, 0, 27, 80
1, 267332, Note_on_c, 0, 73, 0
1, 267352, Note_on_c, 0, 70, 0
1, 267387, Note_on_c, 0, 67, 0
1, 267387, Note_on_c, 0, 38, 80
1, 267412, Note_on_c, 0, 38, 0
1, 267415, Note_on_c, 0, 39, 0
1, 267417, Note_on_c, 0, 27, 0
1, 267575, Note_on_c, 0, 44, 80
1, 267577, Note_on_c, 0, 32, 91
1, 267635, Control_c, 0, 64, 0
1, 267717, Note_on_c, 0, 76, 0
1, 267852, Note_on_c, 0, 75, 94
1, 267852, Note_on_c, 0, 72, 85
1, 267852, Note_on_c, 0, 63, 78
1, 267855, Note_on_c, 0, 68, 86
1, 267875, Control_c, 0, 64, 127
1, 267932, Note_on_c, 0, 44, 0
1, 267935, Note_on_c, 0, 32, 0
1, 267955, Note_on_c, 0, 63, 0
1, 267955, Note_on_c, 0, 72, 0
1, 267957, Note_on_c, 0, 68, 0
1, 268020, Note_on_c, 0, 75, 0
1, 268197, Note_on_c, 0, 84, 93
1, 268217, Note_on_c, 0, 64, 70
1, 268220, Note_on_c, 0, 76, 78
1, 268297, Note_on_c, 0, 84, 0
1, 268300, Note_on_c, 0, 76, 0
1, 268305, Note_on_c, 0, 96, 87
1, 268320, Note_on_c, 0, 64, 0
1, 268325, Note_on_c, 0, 92, 84
1, 268437, Note_on_c, 0, 63, 68
1, 268440, Note_on_c, 0, 75, 76
1, 268457, Note_on_c, 0, 84, 80
1, 268472, Note_on_c, 0, 96, 0
1, 268495, Note_on_c, 0, 92, 0
1, 268510, Note_on_c, 0, 84, 0
1, 268535, Note_on_c, 0, 75, 0
1, 268565, Note_on_c, 0, 84, 74
1, 268580, Note_on_c, 0, 63, 0
1, 268590, Note_on_c, 0, 80, 71
1, 268690, Note_on_c, 0, 56, 69
1, 268692, Note_on_c, 0, 68, 63
1, 268695, Note_on_c, 0, 72, 63
1, 268707, Note_on_c, 0, 84, 0
1, 268755, Note_on_c, 0, 80, 0
1, 268795, Note_on_c, 0, 56, 0
1, 268797, Note_on_c, 0, 68, 0
1, 268797, Note_on_c, 0, 72, 0
1, 268800, Control_c, 0, 64, 0
1, 268825, Note_on_c, 0, 84, 64
1, 268847, Note_on_c, 0, 80, 62
1, 268930, Note_on_c, 0, 64, 65
1, 268930, Note_on_c, 0, 52, 63
1, 268932, Note_on_c, 0, 72, 62
1, 268945, Note_on_c, 0, 84, 0
1, 268967, Note_on_c, 0, 80, 0
1, 269002, Note_on_c, 0, 52, 0
1, 269025, Note_on_c, 0, 72, 0
1, 269035, Note_on_c, 0, 84, 67
1, 269035, Control_c, 0, 64, 127
1, 269045, Note_on_c, 0, 64, 0
1, 269055, Note_on_c, 0, 80, 63
1, 269152, Note_on_c, 0, 84, 0
1, 269160, Note_on_c, 0, 72, 62
1, 269160, Note_on_c, 0, 63, 63
1, 269162, Note_on_c, 0, 51, 65
1, 269220, Note_on_c, 0, 72, 0
1, 269220, Note_on_c, 0, 80, 0
1, 269285, Note_on_c, 0, 51, 0
1, 269287, Note_on_c, 0, 63, 0
1, 269295, Note_on_c, 0, 72, 66
1, 269340, Note_on_c, 0, 68, 66
1, 269422, Note_on_c, 0, 44, 80
1, 269425, Note_on_c, 0, 56, 65
1, 269427, Note_on_c, 0, 60, 64
1, 269480, Note_on_c, 0, 72, 0
1, 269500, Control_c, 0, 64, 0
1, 269502, Note_on_c, 0, 68, 0
1, 269522, Note_on_c, 0, 60, 0
1, 269540, Note_on_c, 0, 56, 0
1, 269542, Note_on_c, 0, 44, 0
1, 269580, Note_on_c, 0, 72, 65
1, 269597, Note_on_c, 0, 68, 63
1, 269705, Note_on_c, 0, 60, 65
1, 269725, Note_on_c, 0, 52, 66
1, 269725, Note_on_c, 0, 40, 76
1, 269745, Control_c, 0, 64, 127
1, 269760, Note_on_c, 0, 72, 0
1, 269780, Note_on_c, 0, 68, 0
1, 269840, Note_on_c, 0, 52, 0
1, 269842, Note_on_c, 0, 60, 0
1, 269845, Note_on_c, 0, 40, 0
1, 269880, Note_on_c, 0, 72, 66
1, 269880, Note_on_c, 0, 68, 64
1, 270032, Note_on_c, 0, 60, 64
1, 270075, Note_on_c, 0, 51, 69
1, 270077, Note_on_c, 0, 39, 82
1, 270090, Note_on_c, 0, 72, 0
1, 270092, Note_on_c, 0, 68, 0
1, 270130, Note_on_c, 0, 60, 0
1, 270150, Note_on_c, 0, 51, 0
1, 270172, Note_on_c, 0, 39, 0
1, 270232, Note_on_c, 0, 60, 75
1, 270247, Note_on_c, 0, 56, 75
1, 270400, Note_on_c, 0, 44, 86
1, 270402, Note_on_c, 0, 32, 87
1, 270405, Note_on_c, 0, 48, 75
1, 270455, Note_on_c, 0, 44, 0
1, 270475, Note_on_c, 0, 32, 0
1, 270477, Note_on_c, 0, 48, 0
1, 270497, Note_on_c, 0, 60, 0
1, 270517, Note_on_c, 0, 56, 0
1, 270565, Control_c, 0, 64, 0
1, 270612, Note_on_c, 0, 64, 78
1, 270760, Note_on_c, 0, 64, 0
1, 270832, Control_c, 0, 64, 127
1, 270850, Note_on_c, 0, 56, 78
1, 270852, Note_on_c, 0, 65, 79
1, 270852, Note_on_c, 0, 61, 78
1, 270855, Note_on_c, 0, 25, 91
1, 270857, Note_on_c, 0, 53, 79
1, 270857, Note_on_c, 0, 37, 91
1, 270967, Note_on_c, 0, 56, 0
1, 270992, Note_on_c, 0, 53, 0
1, 271040, Note_on_c, 0, 61, 0
1, 271125, Note_on_c, 0, 65, 0
1, 271207, Control_c, 0, 64, 0
1, 271232, Note_on_c, 0, 37, 0
1, 271235, Note_on_c, 0, 25, 0
1, 271450, Note_on_c, 0, 61, 79
1, 271450, Note_on_c, 0, 55, 79
1, 271452, Control_c, 0, 64, 127
1, 271455, Note_on_c, 0, 27, 91
1, 271457, Note_on_c, 0, 63, 79
1, 271457, Note_on_c, 0, 39, 91
1, 271460, Note_on_c, 0, 51, 78
1, 271575, Note_on_c, 0, 63, 0
1, 271575, Note_on_c, 0, 55, 0
1, 271575, Note_on_c, 0, 61, 0
1, 271577, Note_on_c, 0, 51, 0
1, 271617, Note_on_c, 0, 27, 0
1, 271620, Note_on_c, 0, 39, 0
1, 271932, Control_c, 0, 64, 0
1, 272045, Note_on_c, 0, 56, 86
1, 272045, Note_on_c, 0, 44, 100
1, 272047, Note_on_c, 0, 32, 100
1, 272050, Note_on_c, 0, 60, 86
1, 272052, Note_on_c, 0, 51, 86
1, 272157, Control_c, 0, 64, 127
1, 272250, Note_on_c, 0, 44, 0
1, 272252, Note_on_c, 0, 51, 0
1, 272512, Note_on_c, 0, 56, 0
1, 272515, Note_on_c, 0, 60, 0
1, 272575, Note_on_c, 0, 32, 0
1, 273135, Note_on_c, 0, 60, 86
1, 273175, Note_on_c, 0, 63, 86
1, 273215, Note_on_c, 0, 68, 86
1, 273227, Note_on_c, 0, 60, 0
1, 273257, Note_on_c, 0, 87, 101
1, 273257, Note_on_c, 0, 84, 98
1, 273257, Note_on_c, 0, 72, 88
1, 273260, Note_on_c, 0, 92, 102
1, 273260, Note_on_c, 0, 80, 96
1, 273315, Note_on_c, 0, 68, 0
1, 273335, Note_on_c, 0, 84, 0
1, 273375, Note_on_c, 0, 63, 0
1, 273375, Note_on_c, 0, 72, 0
1, 273420, Note_on_c, 0, 92, 0
1, 273422, Note_on_c, 0, 80, 0
1, 273445, Note_on_c, 0, 87, 0
1, 275040, Control_c, 0, 64, 0
1, 275040, End_track
0, 0, End_of_file
