0, 0, Header, 0, 1, 480
1, 0, Start_track
1, 0, Title_t, "Haydn: Klaviersonate Hoboken XVI: 43 3. Satz"
1, 0, Copyright_t, "Copyright © 2012 by Bernd Krueger"
1, 0, Text_t, "Bernd Krueger"
1, 0, Text_t, "Rondo. Presto"
1, 0, Text_t, "Erstellt:  25.1.2012\012"
1, 0, Text_t, "Dauer: 5:07 Minuten\012"
1, 0, Time_signature, 2, 2, 24, 8
1, 0, Key_signature, -4, "major"
1, 0, Tempo, 443099
1, 0, Program_c, 0, 0
1, 0, Program_c, 0, 0
1, 0, Program_c, 0, 0
1, 720, Marker_t, "Teil 1"
1, 720, Note_on_c, 0, 72, 60
1, 840, Note_on_c, 0, 72, 0
1, 840, Note_on_c, 0, 73, 55
1, 960, Note_on_c, 0, 73, 0
1, 960, Note_on_c, 0, 75, 60
1, 1050, Note_on_c, 0, 75, 0
1, 1200, Note_on_c, 0, 75, 61
1, 1290, Note_on_c, 0, 75, 0
1, 1440, Tempo, 457701
1, 1440, Note_on_c, 0, 75, 63
1, 1530, Note_on_c, 0, 75, 0
1, 1680, Tempo, 475135
1, 1680, Note_on_c, 0, 80, 69
1, 1770, Note_on_c, 0, 80, 0
1, 1920, Tempo, 441534
1, 1920, Note_on_c, 0, 75, 61
1, 2160, Note_on_c, 0, 60, 51
1, 2400, Tempo, 446263
1, 2400, Note_on_c, 0, 60, 0
1, 2400, Note_on_c, 0, 58, 51
1, 2640, Tempo, 415110
1, 2640, Note_on_c, 0, 58, 0
1, 2640, Note_on_c, 0, 75, 0
1, 2640, Note_on_c, 0, 73, 57
1, 2640, Note_on_c, 0, 56, 48
1, 2760, Note_on_c, 0, 73, 0
1, 2760, Note_on_c, 0, 72, 54
1, 2880, Tempo, 459418
1, 2880, Note_on_c, 0, 72, 0
1, 2880, Note_on_c, 0, 56, 0
1, 2880, Note_on_c, 0, 70, 60
1, 2880, Note_on_c, 0, 55, 53
1, 3120, Note_on_c, 0, 55, 0
1, 3120, Note_on_c, 0, 51, 47
1, 3300, Note_on_c, 0, 51, 0
1, 3360, Note_on_c, 0, 70, 0
1, 3360, Note_on_c, 0, 72, 59
1, 3360, Note_on_c, 0, 56, 49
1, 3600, Tempo, 473335
1, 3600, Note_on_c, 0, 56, 0
1, 3600, Note_on_c, 0, 51, 45
1, 3780, Note_on_c, 0, 51, 0
1, 3840, Tempo, 438436
1, 3840, Note_on_c, 0, 72, 0
1, 3840, Note_on_c, 0, 75, 59
1, 3840, Note_on_c, 0, 58, 49
1, 4080, Tempo, 452728
1, 4080, Note_on_c, 0, 58, 0
1, 4080, Note_on_c, 0, 75, 0
1, 4080, Note_on_c, 0, 73, 51
1, 4080, Note_on_c, 0, 51, 45
1, 4140, Note_on_c, 0, 73, 0
1, 4140, Note_on_c, 0, 75, 46
1, 4200, Note_on_c, 0, 75, 0
1, 4200, Note_on_c, 0, 73, 51
1, 4260, Note_on_c, 0, 51, 0
1, 4320, Tempo, 491965
1, 4320, Note_on_c, 0, 73, 0
1, 4320, Note_on_c, 0, 72, 59
1, 4320, Note_on_c, 0, 56, 49
1, 4440, Note_on_c, 0, 72, 0
1, 4560, Tempo, 435382
1, 4560, Note_on_c, 0, 56, 0
1, 4560, Note_on_c, 0, 72, 60
1, 4680, Note_on_c, 0, 72, 0
1, 4680, Note_on_c, 0, 73, 55
1, 4800, Tempo, 446595
1, 4800, Note_on_c, 0, 73, 0
1, 4800, Note_on_c, 0, 75, 60
1, 4890, Note_on_c, 0, 75, 0
1, 5040, Tempo, 440302
1, 5040, Note_on_c, 0, 75, 59
1, 5130, Note_on_c, 0, 75, 0
1, 5280, Tempo, 447861
1, 5280, Note_on_c, 0, 75, 64
1, 5370, Note_on_c, 0, 75, 0
1, 5520, Tempo, 464540
1, 5520, Note_on_c, 0, 80, 66
1, 5610, Note_on_c, 0, 80, 0
1, 5760, Tempo, 443099
1, 5760, Note_on_c, 0, 75, 61
1, 6000, Note_on_c, 0, 60, 51
1, 6240, Tempo, 446263
1, 6240, Note_on_c, 0, 60, 0
1, 6240, Note_on_c, 0, 58, 51
1, 6480, Tempo, 415110
1, 6480, Note_on_c, 0, 58, 0
1, 6480, Note_on_c, 0, 75, 0
1, 6480, Note_on_c, 0, 73, 57
1, 6480, Note_on_c, 0, 56, 48
1, 6600, Note_on_c, 0, 73, 0
1, 6600, Note_on_c, 0, 72, 54
1, 6720, Tempo, 457701
1, 6720, Note_on_c, 0, 72, 0
1, 6720, Note_on_c, 0, 56, 0
1, 6720, Note_on_c, 0, 70, 60
1, 6720, Note_on_c, 0, 61, 53
1, 6960, Note_on_c, 0, 61, 0
1, 6960, Note_on_c, 0, 70, 0
1, 6960, Note_on_c, 0, 73, 51
1, 6960, Note_on_c, 0, 58, 47
1, 7140, Note_on_c, 0, 58, 0
1, 7140, Note_on_c, 0, 73, 0
1, 7200, Note_on_c, 0, 67, 59
1, 7200, Note_on_c, 0, 63, 49
1, 7440, Tempo, 473335
1, 7440, Note_on_c, 0, 63, 0
1, 7440, Note_on_c, 0, 67, 0
1, 7440, Note_on_c, 0, 70, 50
1, 7440, Note_on_c, 0, 51, 45
1, 7620, Note_on_c, 0, 51, 0
1, 7620, Note_on_c, 0, 70, 0
1, 7680, Tempo, 468019
1, 7680, Note_on_c, 0, 68, 60
1, 7680, Note_on_c, 0, 56, 50
1, 7920, Note_on_c, 0, 56, 0
1, 7920, Note_on_c, 0, 51, 42
1, 8160, Note_on_c, 0, 51, 0
1, 8160, Note_on_c, 0, 68, 0
1, 8160, Note_on_c, 0, 44, 47
1, 8400, Tempo, 443099
1, 8400, Marker_t, "Teil 1 Wiederholung"
1, 8400, Note_on_c, 0, 44, 0
1, 8400, Note_on_c, 0, 72, 60
1, 8520, Note_on_c, 0, 72, 0
1, 8520, Note_on_c, 0, 73, 55
1, 8640, Tempo, 454718
1, 8640, Note_on_c, 0, 73, 0
1, 8640, Note_on_c, 0, 75, 60
1, 8730, Note_on_c, 0, 75, 0
1, 8880, Tempo, 440302
1, 8880, Note_on_c, 0, 75, 58
1, 8970, Note_on_c, 0, 75, 0
1, 9120, Tempo, 454373
1, 9120, Note_on_c, 0, 75, 64
1, 9210, Note_on_c, 0, 75, 0
1, 9360, Tempo, 475135
1, 9360, Note_on_c, 0, 80, 66
1, 9450, Note_on_c, 0, 80, 0
1, 9600, Tempo, 441534
1, 9600, Note_on_c, 0, 75, 61
1, 9840, Note_on_c, 0, 60, 51
1, 10080, Tempo, 446263
1, 10080, Note_on_c, 0, 60, 0
1, 10080, Note_on_c, 0, 58, 51
1, 10320, Tempo, 415110
1, 10320, Note_on_c, 0, 58, 0
1, 10320, Note_on_c, 0, 75, 0
1, 10320, Note_on_c, 0, 73, 57
1, 10320, Note_on_c, 0, 56, 48
1, 10440, Note_on_c, 0, 73, 0
1, 10440, Note_on_c, 0, 72, 54
1, 10560, Tempo, 459418
1, 10560, Note_on_c, 0, 72, 0
1, 10560, Note_on_c, 0, 56, 0
1, 10560, Note_on_c, 0, 70, 60
1, 10560, Note_on_c, 0, 55, 53
1, 10800, Note_on_c, 0, 55, 0
1, 10800, Note_on_c, 0, 51, 47
1, 10980, Note_on_c, 0, 51, 0
1, 11040, Note_on_c, 0, 70, 0
1, 11040, Note_on_c, 0, 72, 59
1, 11040, Note_on_c, 0, 56, 49
1, 11280, Tempo, 473335
1, 11280, Note_on_c, 0, 56, 0
1, 11280, Note_on_c, 0, 51, 45
1, 11460, Note_on_c, 0, 51, 0
1, 11520, Tempo, 438436
1, 11520, Note_on_c, 0, 72, 0
1, 11520, Note_on_c, 0, 75, 59
1, 11520, Note_on_c, 0, 58, 49
1, 11760, Tempo, 452728
1, 11760, Note_on_c, 0, 58, 0
1, 11760, Note_on_c, 0, 75, 0
1, 11760, Note_on_c, 0, 73, 51
1, 11760, Note_on_c, 0, 51, 45
1, 11820, Note_on_c, 0, 73, 0
1, 11820, Note_on_c, 0, 75, 46
1, 11880, Note_on_c, 0, 75, 0
1, 11880, Note_on_c, 0, 73, 51
1, 11940, Note_on_c, 0, 51, 0
1, 12000, Tempo, 491965
1, 12000, Note_on_c, 0, 73, 0
1, 12000, Note_on_c, 0, 72, 59
1, 12000, Note_on_c, 0, 56, 49
1, 12240, Tempo, 435382
1, 12240, Note_on_c, 0, 56, 0
1, 12240, Note_on_c, 0, 72, 0
1, 12240, Note_on_c, 0, 72, 60
1, 12360, Note_on_c, 0, 72, 0
1, 12360, Note_on_c, 0, 73, 55
1, 12480, Tempo, 451433
1, 12480, Note_on_c, 0, 73, 0
1, 12480, Note_on_c, 0, 75, 60
1, 12570, Note_on_c, 0, 75, 0
1, 12720, Tempo, 440302
1, 12720, Note_on_c, 0, 75, 61
1, 12810, Note_on_c, 0, 75, 0
1, 12960, Tempo, 451094
1, 12960, Note_on_c, 0, 75, 61
1, 13050, Note_on_c, 0, 75, 0
1, 13200, Tempo, 464540
1, 13200, Note_on_c, 0, 80, 66
1, 13290, Note_on_c, 0, 80, 0
1, 13440, Tempo, 443099
1, 13440, Note_on_c, 0, 75, 61
1, 13680, Note_on_c, 0, 60, 51
1, 13920, Tempo, 446263
1, 13920, Note_on_c, 0, 60, 0
1, 13920, Note_on_c, 0, 58, 51
1, 14160, Tempo, 415110
1, 14160, Note_on_c, 0, 58, 0
1, 14160, Note_on_c, 0, 75, 0
1, 14160, Note_on_c, 0, 73, 57
1, 14160, Note_on_c, 0, 56, 48
1, 14280, Note_on_c, 0, 73, 0
1, 14280, Note_on_c, 0, 72, 54
1, 14400, Tempo, 457701
1, 14400, Note_on_c, 0, 72, 0
1, 14400, Note_on_c, 0, 56, 0
1, 14400, Note_on_c, 0, 70, 60
1, 14400, Note_on_c, 0, 61, 53
1, 14640, Note_on_c, 0, 61, 0
1, 14640, Note_on_c, 0, 70, 0
1, 14640, Note_on_c, 0, 73, 51
1, 14640, Note_on_c, 0, 58, 47
1, 14820, Note_on_c, 0, 58, 0
1, 14820, Note_on_c, 0, 73, 0
1, 14880, Note_on_c, 0, 67, 59
1, 14880, Note_on_c, 0, 63, 49
1, 15120, Tempo, 473335
1, 15120, Note_on_c, 0, 63, 0
1, 15120, Note_on_c, 0, 67, 0
1, 15120, Note_on_c, 0, 70, 50
1, 15120, Note_on_c, 0, 51, 45
1, 15300, Note_on_c, 0, 51, 0
1, 15300, Note_on_c, 0, 70, 0
1, 15360, Tempo, 468019
1, 15360, Note_on_c, 0, 68, 60
1, 15360, Note_on_c, 0, 56, 50
1, 15600, Note_on_c, 0, 56, 0
1, 15600, Note_on_c, 0, 51, 42
1, 15840, Tempo, 482470
1, 15840, Note_on_c, 0, 51, 0
1, 15840, Note_on_c, 0, 68, 0
1, 15840, Note_on_c, 0, 44, 47
1, 16080, Tempo, 444675
1, 16080, Marker_t, "Teil 2"
1, 16080, Note_on_c, 0, 44, 0
1, 16080, Note_on_c, 0, 75, 53
1, 16320, Tempo, 444675
1, 16320, Note_on_c, 0, 75, 0
1, 16320, Note_on_c, 0, 77, 59
1, 16560, Note_on_c, 0, 77, 0
1, 16560, Note_on_c, 0, 75, 56
1, 16800, Tempo, 457701
1, 16800, Note_on_c, 0, 75, 0
1, 16800, Note_on_c, 0, 74, 56
1, 16980, Note_on_c, 0, 74, 0
1, 17040, Tempo, 446595
1, 17040, Note_on_c, 0, 83, 59
1, 17040, Note_on_c, 0, 74, 41
1, 17040, Note_on_c, 0, 68, 34
1, 17280, Tempo, 444675
1, 17280, Note_on_c, 0, 68, 0
1, 17280, Note_on_c, 0, 74, 0
1, 17280, Note_on_c, 0, 83, 0
1, 17280, Note_on_c, 0, 82, 59
1, 17280, Note_on_c, 0, 67, 38
1, 17280, Note_on_c, 0, 75, 45
1, 17520, Note_on_c, 0, 82, 0
1, 17520, Note_on_c, 0, 79, 53
1, 17757, Note_on_c, 0, 75, 0
1, 17760, Tempo, 452728
1, 17760, Note_on_c, 0, 79, 0
1, 17760, Note_on_c, 0, 67, 0
1, 17760, Note_on_c, 0, 75, 53
1, 17880, Tempo, 454373
1, 18000, Tempo, 433871
1, 18000, Note_on_c, 0, 75, 0
1, 18000, Note_on_c, 0, 72, 59
1, 18180, Note_on_c, 0, 72, 0
1, 18180, Note_on_c, 0, 75, 53
1, 18240, Tempo, 441534
1, 18240, Note_on_c, 0, 75, 0
1, 18240, Note_on_c, 0, 73, 61
1, 18480, Note_on_c, 0, 73, 0
1, 18480, Note_on_c, 0, 72, 55
1, 18720, Tempo, 454373
1, 18720, Note_on_c, 0, 72, 0
1, 18720, Note_on_c, 0, 71, 55
1, 18900, Note_on_c, 0, 71, 0
1, 18960, Tempo, 445005
1, 18960, Note_on_c, 0, 80, 59
1, 18960, Note_on_c, 0, 71, 41
1, 18960, Note_on_c, 0, 65, 34
1, 19200, Tempo, 441534
1, 19200, Note_on_c, 0, 65, 0
1, 19200, Note_on_c, 0, 71, 0
1, 19200, Note_on_c, 0, 80, 0
1, 19200, Note_on_c, 0, 79, 59
1, 19200, Note_on_c, 0, 63, 38
1, 19200, Note_on_c, 0, 72, 45
1, 19440, Note_on_c, 0, 79, 0
1, 19440, Note_on_c, 0, 75, 53
1, 19677, Note_on_c, 0, 72, 0
1, 19680, Tempo, 451094
1, 19680, Note_on_c, 0, 75, 0
1, 19680, Note_on_c, 0, 63, 0
1, 19680, Note_on_c, 0, 72, 53
1, 19920, Tempo, 432370
1, 19920, Note_on_c, 0, 72, 0
1, 19920, Note_on_c, 0, 68, 59
1, 20100, Note_on_c, 0, 68, 0
1, 20100, Note_on_c, 0, 72, 53
1, 20160, Tempo, 441534
1, 20160, Note_on_c, 0, 72, 0
1, 20160, Note_on_c, 0, 70, 61
1, 20400, Tempo, 444675
1, 20400, Note_on_c, 0, 70, 0
1, 20400, Note_on_c, 0, 68, 53
1, 20640, Tempo, 462463
1, 20640, Note_on_c, 0, 68, 0
1, 20640, Note_on_c, 0, 67, 53
1, 20820, Note_on_c, 0, 67, 0
1, 20880, Tempo, 435382
1, 20880, Note_on_c, 0, 77, 59
1, 20880, Note_on_c, 0, 67, 41
1, 20880, Note_on_c, 0, 61, 34
1, 21120, Tempo, 441534
1, 21120, Note_on_c, 0, 61, 0
1, 21120, Note_on_c, 0, 67, 0
1, 21120, Note_on_c, 0, 77, 0
1, 21120, Note_on_c, 0, 75, 59
1, 21120, Note_on_c, 0, 60, 38
1, 21120, Note_on_c, 0, 68, 45
1, 21360, Note_on_c, 0, 75, 0
1, 21360, Note_on_c, 0, 72, 53
1, 21598, Note_on_c, 0, 68, 0
1, 21600, Tempo, 454373
1, 21600, Note_on_c, 0, 72, 0
1, 21600, Note_on_c, 0, 60, 0
1, 21600, Note_on_c, 0, 68, 53
1, 21780, Note_on_c, 0, 68, 0
1, 21840, Tempo, 439979
1, 21840, Note_on_c, 0, 75, 59
1, 22080, Tempo, 444675
1, 22080, Note_on_c, 0, 75, 0
1, 22080, Note_on_c, 0, 74, 59
1, 22080, Note_on_c, 0, 58, 38
1, 22080, Note_on_c, 0, 68, 45
1, 22320, Note_on_c, 0, 74, 0
1, 22320, Note_on_c, 0, 77, 51
1, 22560, Note_on_c, 0, 77, 0
1, 22560, Note_on_c, 0, 68, 0
1, 22560, Note_on_c, 0, 58, 0
1, 22560, Note_on_c, 0, 80, 53
1, 22800, Tempo, 456031
1, 22800, Note_on_c, 0, 80, 0
1, 22800, Note_on_c, 0, 74, 50
1, 23040, Tempo, 444675
1, 23040, Note_on_c, 0, 74, 0
1, 23040, Note_on_c, 0, 75, 59
1, 23040, Note_on_c, 0, 63, 38
1, 23040, Note_on_c, 0, 67, 45
1, 23160, Tempo, 446263
1, 23280, Note_on_c, 0, 75, 0
1, 23280, Note_on_c, 0, 77, 49
1, 23360, Note_on_c, 0, 77, 0
1, 23360, Note_on_c, 0, 75, 47
1, 23440, Note_on_c, 0, 75, 0
1, 23440, Note_on_c, 0, 74, 47
1, 23520, Note_on_c, 0, 74, 0
1, 23520, Note_on_c, 0, 67, 0
1, 23520, Note_on_c, 0, 63, 0
1, 23520, Note_on_c, 0, 75, 59
1, 23610, Note_on_c, 0, 75, 0
1, 23760, Tempo, 466273
1, 23760, Note_on_c, 0, 75, 56
1, 23850, Note_on_c, 0, 75, 0
1, 24000, Tempo, 471550
1, 24000, Note_on_c, 0, 74, 59
1, 24000, Note_on_c, 0, 58, 38
1, 24000, Note_on_c, 0, 68, 45
1, 24240, Note_on_c, 0, 74, 0
1, 24240, Note_on_c, 0, 77, 48
1, 24480, Note_on_c, 0, 77, 0
1, 24480, Note_on_c, 0, 68, 0
1, 24480, Note_on_c, 0, 58, 0
1, 24480, Note_on_c, 0, 80, 51
1, 24720, Tempo, 508001
1, 24720, Note_on_c, 0, 80, 0
1, 24720, Note_on_c, 0, 74, 43
1, 24960, Tempo, 656455
1, 24960, Note_on_c, 0, 74, 0
1, 24960, Note_on_c, 0, 77, 53
1, 25200, Tempo, 1135718
1, 25200, Note_on_c, 0, 77, 0
1, 25200, Note_on_c, 0, 75, 47
1, 25200, Note_on_c, 0, 39, 26
1, 25320, Note_on_c, 0, 75, 0
1, 25440, Tempo, 596837
1, 25440, Note_on_c, 0, 39, 0
1, 25680, Tempo, 443099
1, 25680, Note_on_c, 0, 72, 60
1, 25800, Note_on_c, 0, 72, 0
1, 25800, Note_on_c, 0, 73, 55
1, 25920, Note_on_c, 0, 73, 0
1, 25920, Note_on_c, 0, 75, 60
1, 26010, Note_on_c, 0, 75, 0
1, 26160, Note_on_c, 0, 75, 61
1, 26250, Note_on_c, 0, 75, 0
1, 26400, Note_on_c, 0, 75, 63
1, 26490, Note_on_c, 0, 75, 0
1, 26640, Tempo, 475135
1, 26640, Note_on_c, 0, 80, 66
1, 26730, Note_on_c, 0, 80, 0
1, 26880, Tempo, 441534
1, 26880, Note_on_c, 0, 75, 61
1, 27120, Note_on_c, 0, 60, 51
1, 27360, Tempo, 446263
1, 27360, Note_on_c, 0, 60, 0
1, 27360, Note_on_c, 0, 58, 51
1, 27600, Tempo, 415110
1, 27600, Note_on_c, 0, 58, 0
1, 27600, Note_on_c, 0, 75, 0
1, 27600, Note_on_c, 0, 73, 57
1, 27600, Note_on_c, 0, 56, 48
1, 27720, Note_on_c, 0, 73, 0
1, 27720, Note_on_c, 0, 72, 54
1, 27840, Tempo, 459418
1, 27840, Note_on_c, 0, 72, 0
1, 27840, Note_on_c, 0, 56, 0
1, 27840, Note_on_c, 0, 70, 60
1, 27840, Note_on_c, 0, 55, 53
1, 28020, Note_on_c, 0, 70, 0
1, 28080, Note_on_c, 0, 55, 0
1, 28080, Note_on_c, 0, 70, 53
1, 28080, Note_on_c, 0, 51, 47
1, 28260, Note_on_c, 0, 51, 0
1, 28320, Tempo, 465911
1, 28320, Note_on_c, 0, 70, 0
1, 28320, Note_on_c, 0, 72, 59
1, 28320, Note_on_c, 0, 56, 49
1, 28500, Note_on_c, 0, 72, 0
1, 28560, Tempo, 473335
1, 28560, Note_on_c, 0, 56, 0
1, 28560, Note_on_c, 0, 72, 53
1, 28560, Note_on_c, 0, 51, 45
1, 28740, Note_on_c, 0, 51, 0
1, 28740, Note_on_c, 0, 72, 0
1, 28800, Tempo, 438436
1, 28800, Note_on_c, 0, 75, 59
1, 28800, Note_on_c, 0, 58, 49
1, 29040, Tempo, 452728
1, 29040, Note_on_c, 0, 58, 0
1, 29040, Note_on_c, 0, 75, 0
1, 29040, Note_on_c, 0, 73, 51
1, 29040, Note_on_c, 0, 51, 45
1, 29100, Note_on_c, 0, 73, 0
1, 29100, Note_on_c, 0, 75, 46
1, 29160, Note_on_c, 0, 75, 0
1, 29160, Note_on_c, 0, 73, 51
1, 29220, Note_on_c, 0, 51, 0
1, 29280, Tempo, 491965
1, 29280, Note_on_c, 0, 73, 0
1, 29280, Note_on_c, 0, 72, 59
1, 29280, Note_on_c, 0, 56, 49
1, 29520, Tempo, 435382
1, 29520, Note_on_c, 0, 56, 0
1, 29520, Note_on_c, 0, 72, 0
1, 29520, Note_on_c, 0, 72, 60
1, 29640, Note_on_c, 0, 72, 0
1, 29640, Note_on_c, 0, 73, 55
1, 29760, Tempo, 451433
1, 29760, Note_on_c, 0, 73, 0
1, 29760, Note_on_c, 0, 75, 60
1, 29850, Note_on_c, 0, 75, 0
1, 30000, Tempo, 438757
1, 30000, Note_on_c, 0, 75, 57
1, 30090, Note_on_c, 0, 75, 0
1, 30240, Note_on_c, 0, 75, 59
1, 30330, Note_on_c, 0, 75, 0
1, 30480, Tempo, 464540
1, 30480, Note_on_c, 0, 80, 66
1, 30570, Note_on_c, 0, 80, 0
1, 30720, Tempo, 443099
1, 30720, Note_on_c, 0, 75, 61
1, 30960, Note_on_c, 0, 60, 51
1, 31200, Tempo, 446263
1, 31200, Note_on_c, 0, 60, 0
1, 31200, Note_on_c, 0, 58, 51
1, 31440, Tempo, 415110
1, 31440, Note_on_c, 0, 58, 0
1, 31440, Note_on_c, 0, 75, 0
1, 31440, Note_on_c, 0, 73, 57
1, 31440, Note_on_c, 0, 56, 48
1, 31560, Note_on_c, 0, 73, 0
1, 31560, Note_on_c, 0, 72, 54
1, 31680, Tempo, 457701
1, 31680, Note_on_c, 0, 72, 0
1, 31680, Note_on_c, 0, 56, 0
1, 31680, Note_on_c, 0, 70, 62
1, 31680, Note_on_c, 0, 61, 53
1, 31737, Control_c, 0, 64, 127
1, 31800, Note_on_c, 0, 70, 0
1, 31800, Note_on_c, 0, 73, 43
1, 31920, Note_on_c, 0, 73, 0
1, 31920, Note_on_c, 0, 61, 0
1, 31920, Note_on_c, 0, 70, 55
1, 31920, Note_on_c, 0, 58, 47
1, 31931, Control_c, 0, 64, 0
1, 31963, Control_c, 0, 64, 127
1, 32040, Note_on_c, 0, 70, 0
1, 32040, Note_on_c, 0, 73, 43
1, 32100, Note_on_c, 0, 58, 0
1, 32160, Tempo, 464181
1, 32160, Note_on_c, 0, 73, 0
1, 32160, Note_on_c, 0, 67, 59
1, 32160, Note_on_c, 0, 63, 49
1, 32166, Control_c, 0, 64, 0
1, 32280, Note_on_c, 0, 67, 0
1, 32400, Tempo, 473335
1, 32400, Note_on_c, 0, 63, 0
1, 32400, Note_on_c, 0, 70, 50
1, 32400, Note_on_c, 0, 51, 45
1, 32580, Note_on_c, 0, 51, 0
1, 32580, Note_on_c, 0, 70, 0
1, 32640, Tempo, 468019
1, 32640, Note_on_c, 0, 68, 60
1, 32640, Note_on_c, 0, 56, 50
1, 32880, Note_on_c, 0, 56, 0
1, 32880, Note_on_c, 0, 51, 42
1, 33120, Note_on_c, 0, 51, 0
1, 33120, Note_on_c, 0, 68, 0
1, 33120, Note_on_c, 0, 44, 47
1, 33360, Tempo, 444675
1, 33360, Marker_t, "Teil 2 Wiederholung"
1, 33360, Note_on_c, 0, 44, 0
1, 33360, Note_on_c, 0, 75, 53
1, 33600, Tempo, 444675
1, 33600, Note_on_c, 0, 75, 0
1, 33600, Note_on_c, 0, 77, 59
1, 33840, Note_on_c, 0, 77, 0
1, 33840, Note_on_c, 0, 75, 56
1, 34080, Tempo, 457701
1, 34080, Note_on_c, 0, 75, 0
1, 34080, Note_on_c, 0, 74, 56
1, 34260, Note_on_c, 0, 74, 0
1, 34320, Tempo, 445005
1, 34320, Note_on_c, 0, 83, 59
1, 34320, Note_on_c, 0, 74, 41
1, 34320, Note_on_c, 0, 68, 34
1, 34560, Tempo, 444675
1, 34560, Note_on_c, 0, 68, 0
1, 34560, Note_on_c, 0, 74, 0
1, 34560, Note_on_c, 0, 83, 0
1, 34560, Note_on_c, 0, 82, 59
1, 34560, Note_on_c, 0, 67, 38
1, 34560, Note_on_c, 0, 75, 45
1, 34800, Note_on_c, 0, 82, 0
1, 34800, Note_on_c, 0, 79, 53
1, 35037, Note_on_c, 0, 75, 0
1, 35040, Tempo, 452728
1, 35040, Note_on_c, 0, 79, 0
1, 35040, Note_on_c, 0, 67, 0
1, 35040, Note_on_c, 0, 75, 53
1, 35160, Tempo, 454373
1, 35280, Tempo, 433871
1, 35280, Note_on_c, 0, 75, 0
1, 35280, Note_on_c, 0, 72, 59
1, 35460, Note_on_c, 0, 72, 0
1, 35460, Note_on_c, 0, 75, 53
1, 35520, Tempo, 441534
1, 35520, Note_on_c, 0, 75, 0
1, 35520, Note_on_c, 0, 73, 61
1, 35760, Note_on_c, 0, 73, 0
1, 35760, Note_on_c, 0, 72, 55
1, 36000, Tempo, 454373
1, 36000, Note_on_c, 0, 72, 0
1, 36000, Note_on_c, 0, 71, 55
1, 36180, Note_on_c, 0, 71, 0
1, 36240, Tempo, 440302
1, 36240, Note_on_c, 0, 80, 59
1, 36240, Note_on_c, 0, 71, 41
1, 36240, Note_on_c, 0, 65, 34
1, 36480, Tempo, 441534
1, 36480, Note_on_c, 0, 65, 0
1, 36480, Note_on_c, 0, 71, 0
1, 36480, Note_on_c, 0, 80, 0
1, 36480, Note_on_c, 0, 79, 59
1, 36480, Note_on_c, 0, 63, 38
1, 36480, Note_on_c, 0, 72, 45
1, 36720, Note_on_c, 0, 79, 0
1, 36720, Note_on_c, 0, 75, 53
1, 36957, Note_on_c, 0, 72, 0
1, 36960, Tempo, 451094
1, 36960, Note_on_c, 0, 75, 0
1, 36960, Note_on_c, 0, 63, 0
1, 36960, Note_on_c, 0, 72, 53
1, 37200, Tempo, 432370
1, 37200, Note_on_c, 0, 72, 0
1, 37200, Note_on_c, 0, 68, 59
1, 37380, Note_on_c, 0, 68, 0
1, 37380, Note_on_c, 0, 72, 53
1, 37440, Tempo, 441534
1, 37440, Note_on_c, 0, 72, 0
1, 37440, Note_on_c, 0, 70, 61
1, 37680, Tempo, 444675
1, 37680, Note_on_c, 0, 70, 0
1, 37680, Note_on_c, 0, 68, 53
1, 37920, Tempo, 462463
1, 37920, Note_on_c, 0, 68, 0
1, 37920, Note_on_c, 0, 67, 53
1, 38100, Note_on_c, 0, 67, 0
1, 38160, Tempo, 435382
1, 38160, Note_on_c, 0, 77, 59
1, 38160, Note_on_c, 0, 67, 41
1, 38160, Note_on_c, 0, 61, 34
1, 38400, Tempo, 441534
1, 38400, Note_on_c, 0, 61, 0
1, 38400, Note_on_c, 0, 67, 0
1, 38400, Note_on_c, 0, 77, 0
1, 38400, Note_on_c, 0, 75, 59
1, 38400, Note_on_c, 0, 60, 38
1, 38400, Note_on_c, 0, 68, 45
1, 38640, Note_on_c, 0, 75, 0
1, 38640, Note_on_c, 0, 72, 53
1, 38878, Note_on_c, 0, 68, 0
1, 38880, Tempo, 454373
1, 38880, Note_on_c, 0, 72, 0
1, 38880, Note_on_c, 0, 60, 0
1, 38880, Note_on_c, 0, 68, 53
1, 39060, Note_on_c, 0, 68, 0
1, 39120, Tempo, 439979
1, 39120, Note_on_c, 0, 75, 59
1, 39360, Tempo, 444675
1, 39360, Note_on_c, 0, 75, 0
1, 39360, Note_on_c, 0, 74, 59
1, 39360, Note_on_c, 0, 58, 38
1, 39360, Note_on_c, 0, 68, 45
1, 39600, Note_on_c, 0, 74, 0
1, 39600, Note_on_c, 0, 77, 51
1, 39840, Note_on_c, 0, 77, 0
1, 39840, Note_on_c, 0, 68, 0
1, 39840, Note_on_c, 0, 58, 0
1, 39840, Note_on_c, 0, 80, 53
1, 40080, Tempo, 456031
1, 40080, Note_on_c, 0, 80, 0
1, 40080, Note_on_c, 0, 74, 50
1, 40320, Tempo, 444675
1, 40320, Note_on_c, 0, 74, 0
1, 40320, Note_on_c, 0, 75, 59
1, 40320, Note_on_c, 0, 63, 38
1, 40320, Note_on_c, 0, 67, 45
1, 40440, Tempo, 446263
1, 40560, Note_on_c, 0, 75, 0
1, 40560, Note_on_c, 0, 77, 49
1, 40640, Note_on_c, 0, 77, 0
1, 40640, Note_on_c, 0, 75, 47
1, 40720, Note_on_c, 0, 75, 0
1, 40720, Note_on_c, 0, 74, 47
1, 40800, Note_on_c, 0, 74, 0
1, 40800, Note_on_c, 0, 67, 0
1, 40800, Note_on_c, 0, 63, 0
1, 40800, Note_on_c, 0, 75, 59
1, 40890, Note_on_c, 0, 75, 0
1, 41040, Tempo, 466273
1, 41040, Note_on_c, 0, 75, 56
1, 41130, Note_on_c, 0, 75, 0
1, 41280, Tempo, 471550
1, 41280, Note_on_c, 0, 74, 59
1, 41280, Note_on_c, 0, 58, 38
1, 41280, Note_on_c, 0, 68, 45
1, 41520, Note_on_c, 0, 74, 0
1, 41520, Note_on_c, 0, 77, 48
1, 41760, Note_on_c, 0, 77, 0
1, 41760, Note_on_c, 0, 68, 0
1, 41760, Note_on_c, 0, 58, 0
1, 41760, Note_on_c, 0, 80, 51
1, 42000, Tempo, 508001
1, 42000, Note_on_c, 0, 80, 0
1, 42000, Note_on_c, 0, 74, 43
1, 42240, Tempo, 656455
1, 42240, Note_on_c, 0, 74, 0
1, 42240, Note_on_c, 0, 77, 53
1, 42480, Tempo, 1115449
1, 42480, Note_on_c, 0, 77, 0
1, 42480, Note_on_c, 0, 75, 47
1, 42480, Note_on_c, 0, 39, 26
1, 42600, Note_on_c, 0, 75, 0
1, 42720, Tempo, 596837
1, 42720, Note_on_c, 0, 39, 0
1, 42960, Tempo, 443099
1, 42960, Note_on_c, 0, 72, 60
1, 43080, Note_on_c, 0, 72, 0
1, 43080, Note_on_c, 0, 73, 55
1, 43200, Note_on_c, 0, 73, 0
1, 43200, Note_on_c, 0, 75, 60
1, 43290, Note_on_c, 0, 75, 0
1, 43440, Note_on_c, 0, 75, 61
1, 43530, Note_on_c, 0, 75, 0
1, 43680, Note_on_c, 0, 75, 63
1, 43770, Note_on_c, 0, 75, 0
1, 43920, Tempo, 475135
1, 43920, Note_on_c, 0, 80, 66
1, 44010, Note_on_c, 0, 80, 0
1, 44160, Tempo, 441534
1, 44160, Note_on_c, 0, 75, 61
1, 44400, Note_on_c, 0, 60, 51
1, 44640, Tempo, 446263
1, 44640, Note_on_c, 0, 60, 0
1, 44640, Note_on_c, 0, 58, 51
1, 44880, Tempo, 415110
1, 44880, Note_on_c, 0, 58, 0
1, 44880, Note_on_c, 0, 75, 0
1, 44880, Note_on_c, 0, 73, 57
1, 44880, Note_on_c, 0, 56, 48
1, 45000, Note_on_c, 0, 73, 0
1, 45000, Note_on_c, 0, 72, 54
1, 45120, Tempo, 459418
1, 45120, Note_on_c, 0, 72, 0
1, 45120, Note_on_c, 0, 56, 0
1, 45120, Note_on_c, 0, 70, 60
1, 45120, Note_on_c, 0, 55, 53
1, 45300, Note_on_c, 0, 70, 0
1, 45360, Note_on_c, 0, 55, 0
1, 45360, Note_on_c, 0, 70, 53
1, 45360, Note_on_c, 0, 51, 47
1, 45540, Note_on_c, 0, 51, 0
1, 45600, Tempo, 465911
1, 45600, Note_on_c, 0, 70, 0
1, 45600, Note_on_c, 0, 72, 59
1, 45600, Note_on_c, 0, 56, 49
1, 45780, Note_on_c, 0, 72, 0
1, 45840, Tempo, 473335
1, 45840, Note_on_c, 0, 56, 0
1, 45840, Note_on_c, 0, 72, 53
1, 45840, Note_on_c, 0, 51, 45
1, 46020, Note_on_c, 0, 51, 0
1, 46020, Note_on_c, 0, 72, 0
1, 46080, Tempo, 438436
1, 46080, Note_on_c, 0, 75, 59
1, 46080, Note_on_c, 0, 58, 49
1, 46320, Tempo, 452728
1, 46320, Note_on_c, 0, 58, 0
1, 46320, Note_on_c, 0, 75, 0
1, 46320, Note_on_c, 0, 73, 51
1, 46320, Note_on_c, 0, 51, 45
1, 46380, Note_on_c, 0, 73, 0
1, 46380, Note_on_c, 0, 75, 46
1, 46440, Note_on_c, 0, 75, 0
1, 46440, Note_on_c, 0, 73, 51
1, 46500, Note_on_c, 0, 51, 0
1, 46560, Tempo, 491965
1, 46560, Note_on_c, 0, 73, 0
1, 46560, Note_on_c, 0, 72, 59
1, 46560, Note_on_c, 0, 56, 49
1, 46800, Tempo, 435382
1, 46800, Note_on_c, 0, 56, 0
1, 46800, Note_on_c, 0, 72, 0
1, 46800, Note_on_c, 0, 72, 60
1, 46920, Note_on_c, 0, 72, 0
1, 46920, Note_on_c, 0, 73, 55
1, 47040, Tempo, 449809
1, 47040, Note_on_c, 0, 73, 0
1, 47040, Note_on_c, 0, 75, 60
1, 47130, Note_on_c, 0, 75, 0
1, 47280, Tempo, 440302
1, 47280, Note_on_c, 0, 75, 57
1, 47370, Note_on_c, 0, 75, 0
1, 47520, Note_on_c, 0, 75, 59
1, 47610, Note_on_c, 0, 75, 0
1, 47760, Tempo, 464540
1, 47760, Note_on_c, 0, 80, 66
1, 47850, Note_on_c, 0, 80, 0
1, 48000, Tempo, 443099
1, 48000, Note_on_c, 0, 75, 61
1, 48240, Note_on_c, 0, 60, 51
1, 48480, Tempo, 446263
1, 48480, Note_on_c, 0, 60, 0
1, 48480, Note_on_c, 0, 58, 51
1, 48720, Tempo, 415110
1, 48720, Note_on_c, 0, 58, 0
1, 48720, Note_on_c, 0, 75, 0
1, 48720, Note_on_c, 0, 73, 57
1, 48720, Note_on_c, 0, 56, 48
1, 48840, Note_on_c, 0, 73, 0
1, 48840, Note_on_c, 0, 72, 54
1, 48960, Tempo, 457701
1, 48960, Note_on_c, 0, 72, 0
1, 48960, Note_on_c, 0, 56, 0
1, 48960, Note_on_c, 0, 70, 62
1, 48960, Note_on_c, 0, 61, 53
1, 49017, Control_c, 0, 64, 127
1, 49080, Note_on_c, 0, 70, 0
1, 49080, Note_on_c, 0, 73, 43
1, 49200, Note_on_c, 0, 73, 0
1, 49200, Note_on_c, 0, 61, 0
1, 49200, Note_on_c, 0, 70, 55
1, 49200, Note_on_c, 0, 58, 47
1, 49211, Control_c, 0, 64, 0
1, 49243, Control_c, 0, 64, 127
1, 49320, Note_on_c, 0, 70, 0
1, 49320, Note_on_c, 0, 73, 43
1, 49380, Note_on_c, 0, 58, 0
1, 49440, Tempo, 464181
1, 49440, Note_on_c, 0, 73, 0
1, 49440, Note_on_c, 0, 67, 59
1, 49440, Note_on_c, 0, 63, 49
1, 49446, Control_c, 0, 64, 0
1, 49560, Note_on_c, 0, 67, 0
1, 49680, Tempo, 473335
1, 49680, Note_on_c, 0, 63, 0
1, 49680, Note_on_c, 0, 70, 50
1, 49680, Note_on_c, 0, 51, 45
1, 49860, Note_on_c, 0, 51, 0
1, 49860, Note_on_c, 0, 70, 0
1, 49920, Tempo, 468019
1, 49920, Note_on_c, 0, 68, 60
1, 49920, Note_on_c, 0, 56, 50
1, 50160, Note_on_c, 0, 56, 0
1, 50160, Note_on_c, 0, 51, 42
1, 50400, Note_on_c, 0, 51, 0
1, 50400, Note_on_c, 0, 68, 0
1, 50400, Note_on_c, 0, 44, 47
1, 50640, Tempo, 443099
1, 50640, Marker_t, "Teil 3"
1, 50640, Note_on_c, 0, 44, 0
1, 50640, Note_on_c, 0, 60, 57
1, 50760, Note_on_c, 0, 60, 0
1, 50760, Note_on_c, 0, 61, 52
1, 50880, Tempo, 454718
1, 50880, Note_on_c, 0, 61, 0
1, 50880, Note_on_c, 0, 63, 57
1, 50970, Note_on_c, 0, 63, 0
1, 51120, Tempo, 441859
1, 51120, Note_on_c, 0, 63, 57
1, 51210, Note_on_c, 0, 63, 0
1, 51360, Tempo, 457701
1, 51360, Note_on_c, 0, 63, 59
1, 51450, Note_on_c, 0, 63, 0
1, 51600, Tempo, 475135
1, 51600, Note_on_c, 0, 68, 65
1, 51690, Note_on_c, 0, 68, 0
1, 51840, Tempo, 441534
1, 51840, Note_on_c, 0, 63, 57
1, 52080, Note_on_c, 0, 60, 51
1, 52320, Tempo, 446263
1, 52320, Note_on_c, 0, 60, 0
1, 52320, Note_on_c, 0, 58, 51
1, 52560, Tempo, 435382
1, 52560, Note_on_c, 0, 58, 0
1, 52560, Note_on_c, 0, 63, 0
1, 52560, Note_on_c, 0, 72, 59
1, 52560, Note_on_c, 0, 56, 48
1, 52800, Tempo, 441534
1, 52800, Note_on_c, 0, 56, 0
1, 52800, Note_on_c, 0, 72, 0
1, 52800, Note_on_c, 0, 70, 70
1, 52800, Note_on_c, 0, 55, 45
1, 53040, Note_on_c, 0, 70, 0
1, 53040, Note_on_c, 0, 75, 62
1, 53280, Tempo, 454373
1, 53280, Note_on_c, 0, 75, 0
1, 53280, Note_on_c, 0, 55, 0
1, 53280, Note_on_c, 0, 79, 68
1, 53520, Tempo, 439979
1, 53520, Note_on_c, 0, 79, 0
1, 53520, Note_on_c, 0, 67, 63
1, 53520, Note_on_c, 0, 51, 48
1, 53760, Tempo, 444675
1, 53760, Note_on_c, 0, 51, 0
1, 53760, Note_on_c, 0, 67, 0
1, 53760, Note_on_c, 0, 70, 68
1, 53760, Note_on_c, 0, 53, 45
1, 54000, Note_on_c, 0, 53, 0
1, 54000, Note_on_c, 0, 70, 0
1, 54000, Note_on_c, 0, 68, 59
1, 54000, Note_on_c, 0, 56, 51
1, 54240, Note_on_c, 0, 56, 0
1, 54240, Note_on_c, 0, 68, 0
1, 54240, Note_on_c, 0, 62, 48
1, 54480, Tempo, 435382
1, 54480, Note_on_c, 0, 62, 0
1, 54480, Note_on_c, 0, 65, 59
1, 54480, Note_on_c, 0, 50, 48
1, 54720, Tempo, 441534
1, 54720, Note_on_c, 0, 50, 0
1, 54720, Note_on_c, 0, 65, 0
1, 54720, Note_on_c, 0, 67, 70
1, 54720, Note_on_c, 0, 51, 45
1, 54960, Note_on_c, 0, 51, 0
1, 54960, Note_on_c, 0, 67, 0
1, 54960, Note_on_c, 0, 70, 62
1, 54960, Note_on_c, 0, 43, 51
1, 55200, Tempo, 454373
1, 55200, Note_on_c, 0, 43, 0
1, 55200, Note_on_c, 0, 70, 0
1, 55200, Note_on_c, 0, 72, 70
1, 55200, Note_on_c, 0, 44, 51
1, 55440, Tempo, 439979
1, 55440, Note_on_c, 0, 44, 0
1, 55440, Note_on_c, 0, 72, 0
1, 55440, Note_on_c, 0, 63, 66
1, 55440, Note_on_c, 0, 45, 48
1, 55620, Note_on_c, 0, 63, 0
1, 55680, Tempo, 444675
1, 55680, Note_on_c, 0, 45, 0
1, 55680, Note_on_c, 0, 63, 72
1, 55680, Note_on_c, 0, 46, 45
1, 55920, Note_on_c, 0, 63, 0
1, 55920, Note_on_c, 0, 62, 62
1, 56160, Note_on_c, 0, 62, 0
1, 56160, Note_on_c, 0, 46, 0
1, 56400, Tempo, 435382
1, 56400, Note_on_c, 0, 70, 59
1, 56400, Note_on_c, 0, 67, 48
1, 56640, Tempo, 436904
1, 56640, Note_on_c, 0, 67, 0
1, 56640, Note_on_c, 0, 70, 0
1, 56640, Note_on_c, 0, 68, 70
1, 56640, Note_on_c, 0, 65, 45
1, 56760, Note_on_c, 0, 68, 0
1, 56760, Note_on_c, 0, 70, 63
1, 56880, Note_on_c, 0, 70, 0
1, 56880, Note_on_c, 0, 65, 0
1, 56880, Note_on_c, 0, 67, 70
1, 56880, Note_on_c, 0, 63, 51
1, 57000, Note_on_c, 0, 67, 0
1, 57000, Note_on_c, 0, 70, 62
1, 57120, Tempo, 454373
1, 57120, Note_on_c, 0, 70, 0
1, 57120, Note_on_c, 0, 63, 0
1, 57120, Note_on_c, 0, 65, 70
1, 57120, Note_on_c, 0, 62, 51
1, 57360, Tempo, 449472
1, 57360, Note_on_c, 0, 62, 0
1, 57360, Note_on_c, 0, 65, 0
1, 57360, Note_on_c, 0, 74, 75
1, 57360, Note_on_c, 0, 56, 56
1, 57480, Note_on_c, 0, 56, 0
1, 57480, Note_on_c, 0, 58, 48
1, 57600, Tempo, 446263
1, 57600, Note_on_c, 0, 58, 0
1, 57600, Note_on_c, 0, 74, 0
1, 57600, Note_on_c, 0, 75, 81
1, 57600, Note_on_c, 0, 55, 60
1, 57720, Note_on_c, 0, 55, 0
1, 57720, Note_on_c, 0, 58, 48
1, 57840, Note_on_c, 0, 58, 0
1, 57840, Note_on_c, 0, 75, 0
1, 57840, Note_on_c, 0, 77, 77
1, 57840, Note_on_c, 0, 53, 58
1, 57960, Note_on_c, 0, 53, 0
1, 57960, Note_on_c, 0, 58, 53
1, 58080, Note_on_c, 0, 58, 0
1, 58080, Note_on_c, 0, 77, 0
1, 58080, Note_on_c, 0, 79, 82
1, 58080, Note_on_c, 0, 51, 59
1, 58320, Tempo, 444675
1, 58320, Note_on_c, 0, 51, 0
1, 58320, Note_on_c, 0, 79, 0
1, 58320, Note_on_c, 0, 70, 75
1, 58320, Note_on_c, 0, 67, 55
1, 58560, Tempo, 436904
1, 58560, Note_on_c, 0, 67, 0
1, 58560, Note_on_c, 0, 70, 0
1, 58560, Note_on_c, 0, 68, 70
1, 58560, Note_on_c, 0, 65, 45
1, 58680, Note_on_c, 0, 68, 0
1, 58680, Note_on_c, 0, 70, 63
1, 58800, Note_on_c, 0, 70, 0
1, 58800, Note_on_c, 0, 65, 0
1, 58800, Note_on_c, 0, 67, 70
1, 58800, Note_on_c, 0, 63, 51
1, 58920, Note_on_c, 0, 67, 0
1, 58920, Note_on_c, 0, 70, 62
1, 59040, Tempo, 454373
1, 59040, Note_on_c, 0, 70, 0
1, 59040, Note_on_c, 0, 63, 0
1, 59040, Note_on_c, 0, 65, 70
1, 59040, Note_on_c, 0, 62, 51
1, 59280, Tempo, 447861
1, 59280, Note_on_c, 0, 62, 0
1, 59280, Note_on_c, 0, 65, 0
1, 59280, Note_on_c, 0, 74, 75
1, 59280, Note_on_c, 0, 56, 56
1, 59400, Note_on_c, 0, 56, 0
1, 59400, Note_on_c, 0, 58, 48
1, 59520, Tempo, 441534
1, 59520, Note_on_c, 0, 58, 0
1, 59520, Note_on_c, 0, 74, 0
1, 59520, Note_on_c, 0, 75, 81
1, 59520, Note_on_c, 0, 55, 60
1, 59640, Note_on_c, 0, 55, 0
1, 59640, Note_on_c, 0, 58, 48
1, 59760, Note_on_c, 0, 58, 0
1, 59760, Note_on_c, 0, 75, 0
1, 59760, Note_on_c, 0, 77, 77
1, 59760, Note_on_c, 0, 53, 58
1, 59880, Note_on_c, 0, 53, 0
1, 59880, Note_on_c, 0, 58, 53
1, 60000, Tempo, 459418
1, 60000, Note_on_c, 0, 58, 0
1, 60000, Note_on_c, 0, 77, 0
1, 60000, Note_on_c, 0, 79, 82
1, 60000, Note_on_c, 0, 51, 59
1, 60240, Tempo, 438436
1, 60240, Note_on_c, 0, 51, 0
1, 60240, Note_on_c, 0, 79, 0
1, 60240, Note_on_c, 0, 79, 75
1, 60240, Note_on_c, 0, 63, 51
1, 60360, Note_on_c, 0, 63, 0
1, 60360, Note_on_c, 0, 79, 0
1, 60360, Note_on_c, 0, 80, 73
1, 60360, Note_on_c, 0, 65, 49
1, 60480, Tempo, 452728
1, 60480, Note_on_c, 0, 65, 0
1, 60480, Note_on_c, 0, 80, 0
1, 60480, Note_on_c, 0, 82, 81
1, 60480, Note_on_c, 0, 67, 54
1, 60600, Note_on_c, 0, 67, 0
1, 60600, Note_on_c, 0, 82, 0
1, 60720, Tempo, 436904
1, 60720, Note_on_c, 0, 79, 72
1, 60720, Note_on_c, 0, 63, 48
1, 60840, Note_on_c, 0, 63, 0
1, 60840, Note_on_c, 0, 79, 0
1, 60840, Note_on_c, 0, 80, 69
1, 60840, Note_on_c, 0, 65, 46
1, 60960, Tempo, 447861
1, 60960, Note_on_c, 0, 65, 0
1, 60960, Note_on_c, 0, 80, 0
1, 60960, Note_on_c, 0, 82, 80
1, 60960, Note_on_c, 0, 67, 54
1, 61080, Note_on_c, 0, 67, 0
1, 61080, Note_on_c, 0, 82, 0
1, 61200, Tempo, 435382
1, 61200, Note_on_c, 0, 79, 73
1, 61200, Note_on_c, 0, 63, 49
1, 61320, Note_on_c, 0, 63, 0
1, 61320, Note_on_c, 0, 79, 0
1, 61320, Note_on_c, 0, 80, 69
1, 61320, Note_on_c, 0, 65, 46
1, 61440, Tempo, 446263
1, 61440, Note_on_c, 0, 65, 0
1, 61440, Note_on_c, 0, 80, 0
1, 61440, Note_on_c, 0, 82, 78
1, 61440, Note_on_c, 0, 67, 52
1, 61680, Tempo, 435382
1, 61920, Note_on_c, 0, 67, 0
1, 61920, Note_on_c, 0, 82, 0
1, 62160, Tempo, 438436
1, 62160, Note_on_c, 0, 75, 60
1, 62160, Note_on_c, 0, 67, 40
1, 62280, Note_on_c, 0, 67, 0
1, 62280, Note_on_c, 0, 75, 0
1, 62280, Note_on_c, 0, 77, 58
1, 62280, Note_on_c, 0, 68, 39
1, 62400, Tempo, 452728
1, 62400, Note_on_c, 0, 68, 0
1, 62400, Note_on_c, 0, 77, 0
1, 62400, Note_on_c, 0, 79, 64
1, 62400, Note_on_c, 0, 70, 43
1, 62520, Note_on_c, 0, 70, 0
1, 62520, Note_on_c, 0, 79, 0
1, 62640, Tempo, 436904
1, 62640, Note_on_c, 0, 75, 57
1, 62640, Note_on_c, 0, 67, 38
1, 62760, Note_on_c, 0, 67, 0
1, 62760, Note_on_c, 0, 75, 0
1, 62760, Note_on_c, 0, 77, 55
1, 62760, Note_on_c, 0, 68, 36
1, 62880, Tempo, 447861
1, 62880, Note_on_c, 0, 68, 0
1, 62880, Note_on_c, 0, 77, 0
1, 62880, Note_on_c, 0, 79, 64
1, 62880, Note_on_c, 0, 70, 43
1, 63000, Note_on_c, 0, 70, 0
1, 63000, Note_on_c, 0, 79, 0
1, 63120, Tempo, 435382
1, 63120, Note_on_c, 0, 75, 58
1, 63120, Note_on_c, 0, 67, 39
1, 63240, Note_on_c, 0, 67, 0
1, 63240, Note_on_c, 0, 75, 0
1, 63240, Note_on_c, 0, 77, 55
1, 63240, Note_on_c, 0, 68, 36
1, 63360, Tempo, 446263
1, 63360, Note_on_c, 0, 68, 0
1, 63360, Note_on_c, 0, 77, 0
1, 63360, Note_on_c, 0, 79, 62
1, 63360, Note_on_c, 0, 70, 41
1, 63840, Note_on_c, 0, 70, 0
1, 63840, Note_on_c, 0, 79, 0
1, 64080, Tempo, 438436
1, 64080, Note_on_c, 0, 79, 75
1, 64080, Note_on_c, 0, 63, 51
1, 64200, Note_on_c, 0, 63, 0
1, 64200, Note_on_c, 0, 79, 0
1, 64200, Note_on_c, 0, 80, 73
1, 64200, Note_on_c, 0, 65, 49
1, 64320, Tempo, 452728
1, 64320, Note_on_c, 0, 65, 0
1, 64320, Note_on_c, 0, 80, 0
1, 64320, Note_on_c, 0, 82, 81
1, 64320, Note_on_c, 0, 67, 54
1, 64440, Note_on_c, 0, 67, 0
1, 64440, Note_on_c, 0, 82, 0
1, 64560, Tempo, 436904
1, 64560, Note_on_c, 0, 79, 72
1, 64560, Note_on_c, 0, 63, 48
1, 64680, Note_on_c, 0, 63, 0
1, 64680, Note_on_c, 0, 79, 0
1, 64680, Note_on_c, 0, 80, 69
1, 64680, Note_on_c, 0, 65, 46
1, 64800, Tempo, 447861
1, 64800, Note_on_c, 0, 65, 0
1, 64800, Note_on_c, 0, 80, 0
1, 64800, Note_on_c, 0, 82, 80
1, 64800, Note_on_c, 0, 67, 54
1, 64920, Note_on_c, 0, 67, 0
1, 64920, Note_on_c, 0, 82, 0
1, 65040, Tempo, 435382
1, 65040, Note_on_c, 0, 79, 73
1, 65040, Note_on_c, 0, 63, 49
1, 65160, Note_on_c, 0, 63, 0
1, 65160, Note_on_c, 0, 79, 0
1, 65160, Note_on_c, 0, 80, 69
1, 65160, Note_on_c, 0, 65, 46
1, 65280, Tempo, 471550
1, 65280, Note_on_c, 0, 65, 0
1, 65280, Note_on_c, 0, 80, 0
1, 65280, Note_on_c, 0, 82, 78
1, 65280, Note_on_c, 0, 67, 52
1, 65520, Tempo, 444675
1, 65520, Note_on_c, 0, 82, 0
1, 65520, Note_on_c, 0, 84, 72
1, 65559, Tempo, 435382
1, 65631, Tempo, 436904
1, 65640, Note_on_c, 0, 84, 0
1, 65640, Note_on_c, 0, 82, 65
1, 65703, Tempo, 438436
1, 65751, Tempo, 439979
1, 65760, Note_on_c, 0, 82, 0
1, 65760, Note_on_c, 0, 67, 0
1, 65760, Note_on_c, 0, 80, 69
1, 65823, Tempo, 441534
1, 65871, Tempo, 443099
1, 65880, Note_on_c, 0, 80, 0
1, 65880, Note_on_c, 0, 79, 64
1, 65943, Tempo, 444675
1, 65991, Tempo, 446263
1, 66000, Note_on_c, 0, 79, 0
1, 66000, Note_on_c, 0, 77, 62
1, 66000, Note_on_c, 0, 55, 49
1, 66063, Tempo, 447861
1, 66111, Tempo, 449472
1, 66120, Note_on_c, 0, 77, 0
1, 66120, Note_on_c, 0, 75, 61
1, 66183, Tempo, 451094
1, 66231, Tempo, 452728
1, 66240, Tempo, 471550
1, 66240, Note_on_c, 0, 75, 0
1, 66240, Note_on_c, 0, 55, 0
1, 66240, Note_on_c, 0, 77, 78
1, 66240, Note_on_c, 0, 56, 52
1, 66447, Tempo, 436904
1, 66480, Note_on_c, 0, 77, 0
1, 66480, Note_on_c, 0, 82, 72
1, 66519, Tempo, 438436
1, 66567, Tempo, 439979
1, 66600, Note_on_c, 0, 82, 0
1, 66600, Note_on_c, 0, 80, 65
1, 66639, Tempo, 441534
1, 66687, Tempo, 443099
1, 66720, Note_on_c, 0, 80, 0
1, 66720, Note_on_c, 0, 56, 0
1, 66720, Note_on_c, 0, 79, 69
1, 66759, Tempo, 444675
1, 66807, Tempo, 446263
1, 66840, Note_on_c, 0, 79, 0
1, 66840, Note_on_c, 0, 77, 64
1, 66879, Tempo, 447861
1, 66927, Tempo, 449472
1, 66960, Note_on_c, 0, 77, 0
1, 66960, Note_on_c, 0, 75, 62
1, 66960, Note_on_c, 0, 58, 49
1, 66999, Tempo, 451094
1, 67047, Tempo, 452728
1, 67080, Note_on_c, 0, 75, 0
1, 67080, Note_on_c, 0, 74, 61
1, 67119, Tempo, 454373
1, 67200, Tempo, 473335
1, 67200, Note_on_c, 0, 74, 0
1, 67200, Note_on_c, 0, 58, 0
1, 67200, Note_on_c, 0, 75, 77
1, 67200, Note_on_c, 0, 60, 52
1, 67440, Tempo, 443099
1, 67440, Note_on_c, 0, 75, 0
1, 67440, Note_on_c, 0, 84, 72
1, 67455, Tempo, 439979
1, 67551, Tempo, 441534
1, 67560, Note_on_c, 0, 84, 0
1, 67560, Note_on_c, 0, 82, 65
1, 67623, Tempo, 443099
1, 67680, Note_on_c, 0, 82, 0
1, 67680, Note_on_c, 0, 60, 0
1, 67680, Note_on_c, 0, 80, 69
1, 67695, Tempo, 444675
1, 67767, Tempo, 446263
1, 67800, Note_on_c, 0, 80, 0
1, 67800, Note_on_c, 0, 79, 64
1, 67863, Tempo, 447861
1, 67920, Note_on_c, 0, 79, 0
1, 67920, Note_on_c, 0, 77, 62
1, 67920, Note_on_c, 0, 55, 49
1, 67935, Tempo, 449472
1, 68007, Tempo, 451094
1, 68040, Note_on_c, 0, 77, 0
1, 68040, Note_on_c, 0, 75, 65
1, 68079, Tempo, 452728
1, 68127, Tempo, 452728
1, 68160, Tempo, 469778
1, 68160, Note_on_c, 0, 75, 0
1, 68160, Note_on_c, 0, 55, 0
1, 68160, Note_on_c, 0, 77, 73
1, 68160, Note_on_c, 0, 56, 52
1, 68391, Tempo, 438436
1, 68400, Note_on_c, 0, 77, 0
1, 68400, Note_on_c, 0, 82, 64
1, 68463, Tempo, 439979
1, 68511, Tempo, 441534
1, 68520, Note_on_c, 0, 82, 0
1, 68520, Note_on_c, 0, 80, 58
1, 68583, Tempo, 443099
1, 68631, Tempo, 444675
1, 68640, Note_on_c, 0, 80, 0
1, 68640, Note_on_c, 0, 56, 0
1, 68640, Note_on_c, 0, 79, 62
1, 68703, Tempo, 446263
1, 68751, Tempo, 447861
1, 68760, Note_on_c, 0, 79, 0
1, 68760, Note_on_c, 0, 77, 57
1, 68799, Tempo, 449472
1, 68871, Tempo, 451094
1, 68880, Note_on_c, 0, 77, 0
1, 68880, Note_on_c, 0, 75, 56
1, 68880, Note_on_c, 0, 58, 37
1, 68919, Tempo, 452728
1, 68991, Tempo, 454373
1, 69000, Note_on_c, 0, 75, 0
1, 69000, Note_on_c, 0, 74, 55
1, 69039, Tempo, 456031
1, 69087, Tempo, 457701
1, 69120, Tempo, 462820
1, 69120, Note_on_c, 0, 74, 0
1, 69120, Note_on_c, 0, 58, 0
1, 69120, Note_on_c, 0, 75, 69
1, 69120, Note_on_c, 0, 63, 44
1, 69360, Note_on_c, 0, 63, 0
1, 69360, Note_on_c, 0, 67, 39
1, 69600, Note_on_c, 0, 67, 0
1, 69600, Note_on_c, 0, 70, 43
1, 69840, Tempo, 480615
1, 69840, Note_on_c, 0, 70, 0
1, 69840, Note_on_c, 0, 67, 38
1, 70080, Tempo, 461113
1, 70080, Note_on_c, 0, 67, 0
1, 70080, Note_on_c, 0, 63, 44
1, 70320, Note_on_c, 0, 75, 0
1, 70320, Note_on_c, 0, 79, 57
1, 70560, Note_on_c, 0, 79, 0
1, 70560, Note_on_c, 0, 82, 63
1, 70800, Tempo, 480615
1, 70800, Note_on_c, 0, 82, 0
1, 70800, Note_on_c, 0, 75, 56
1, 71040, Tempo, 461113
1, 71040, Note_on_c, 0, 75, 0
1, 71040, Note_on_c, 0, 74, 69
1, 71040, Note_on_c, 0, 65, 44
1, 71280, Note_on_c, 0, 65, 0
1, 71280, Note_on_c, 0, 68, 39
1, 71520, Note_on_c, 0, 68, 0
1, 71520, Note_on_c, 0, 70, 43
1, 71760, Tempo, 476948
1, 71760, Note_on_c, 0, 70, 0
1, 71760, Note_on_c, 0, 68, 38
1, 72000, Tempo, 461113
1, 72000, Note_on_c, 0, 68, 0
1, 72000, Note_on_c, 0, 65, 44
1, 72240, Note_on_c, 0, 74, 0
1, 72240, Note_on_c, 0, 77, 57
1, 72480, Note_on_c, 0, 77, 0
1, 72480, Note_on_c, 0, 80, 63
1, 72720, Tempo, 480615
1, 72720, Note_on_c, 0, 80, 0
1, 72720, Note_on_c, 0, 74, 56
1, 72960, Tempo, 462820
1, 72960, Note_on_c, 0, 74, 0
1, 72960, Note_on_c, 0, 65, 0
1, 72960, Note_on_c, 0, 63, 0
1, 72960, Note_on_c, 0, 75, 69
1, 72960, Note_on_c, 0, 63, 44
1, 73200, Note_on_c, 0, 63, 0
1, 73200, Note_on_c, 0, 67, 39
1, 73440, Note_on_c, 0, 67, 0
1, 73440, Note_on_c, 0, 70, 43
1, 73680, Tempo, 480615
1, 73680, Note_on_c, 0, 70, 0
1, 73680, Note_on_c, 0, 67, 38
1, 73920, Tempo, 461113
1, 73920, Note_on_c, 0, 67, 0
1, 73920, Note_on_c, 0, 63, 44
1, 74160, Note_on_c, 0, 75, 0
1, 74160, Note_on_c, 0, 79, 57
1, 74400, Note_on_c, 0, 79, 0
1, 74400, Note_on_c, 0, 82, 63
1, 74640, Tempo, 480615
1, 74640, Note_on_c, 0, 82, 0
1, 74640, Note_on_c, 0, 75, 56
1, 74880, Tempo, 461113
1, 74880, Note_on_c, 0, 75, 0
1, 74880, Note_on_c, 0, 74, 69
1, 74880, Note_on_c, 0, 65, 44
1, 75120, Note_on_c, 0, 65, 0
1, 75120, Note_on_c, 0, 68, 39
1, 75360, Note_on_c, 0, 68, 0
1, 75360, Note_on_c, 0, 70, 43
1, 75600, Tempo, 476948
1, 75600, Note_on_c, 0, 70, 0
1, 75600, Note_on_c, 0, 68, 38
1, 75840, Tempo, 461113
1, 75840, Note_on_c, 0, 68, 0
1, 75840, Note_on_c, 0, 65, 53
1, 76080, Note_on_c, 0, 74, 0
1, 76080, Note_on_c, 0, 77, 62
1, 76320, Note_on_c, 0, 77, 0
1, 76320, Note_on_c, 0, 80, 69
1, 76560, Tempo, 480615
1, 76560, Note_on_c, 0, 80, 0
1, 76560, Note_on_c, 0, 74, 70
1, 76800, Tempo, 461113
1, 76800, Note_on_c, 0, 74, 0
1, 76800, Note_on_c, 0, 65, 0
1, 76800, Note_on_c, 0, 63, 0
1, 76800, Note_on_c, 0, 73, 81
1, 76800, Note_on_c, 0, 63, 54
1, 76941, Control_c, 0, 64, 127
1, 77040, Note_on_c, 0, 67, 46
1, 77280, Note_on_c, 0, 70, 55
1, 77510, Note_on_c, 0, 67, 0
1, 77520, Tempo, 490036
1, 77520, Note_on_c, 0, 67, 51
1, 77755, Note_on_c, 0, 63, 0
1, 77760, Tempo, 499833
1, 77760, Note_on_c, 0, 63, 60
1, 78000, Note_on_c, 0, 79, 65
1, 78240, Tempo, 520698
1, 78240, Note_on_c, 0, 79, 0
1, 78240, Note_on_c, 0, 82, 70
1, 78480, Tempo, 686735
1, 78480, Note_on_c, 0, 82, 0
1, 78480, Note_on_c, 0, 79, 65
1, 78720, Tempo, 816438
1, 78720, Note_on_c, 0, 79, 0
1, 78720, Note_on_c, 0, 85, 74
1, 79200, Note_on_c, 0, 85, 0
1, 79200, Note_on_c, 0, 63, 0
1, 79200, Note_on_c, 0, 67, 0
1, 79200, Note_on_c, 0, 73, 0
1, 79200, Note_on_c, 0, 70, 0
1, 79200, Control_c, 0, 64, 0
1, 79440, Tempo, 443099
1, 79440, Note_on_c, 0, 72, 60
1, 79560, Note_on_c, 0, 72, 0
1, 79560, Note_on_c, 0, 73, 55
1, 79680, Note_on_c, 0, 73, 0
1, 79680, Note_on_c, 0, 75, 60
1, 79770, Note_on_c, 0, 75, 0
1, 79920, Note_on_c, 0, 75, 61
1, 80010, Note_on_c, 0, 75, 0
1, 80160, Tempo, 457701
1, 80160, Note_on_c, 0, 75, 63
1, 80250, Note_on_c, 0, 75, 0
1, 80400, Tempo, 475135
1, 80400, Note_on_c, 0, 80, 69
1, 80490, Note_on_c, 0, 80, 0
1, 80640, Tempo, 441534
1, 80640, Note_on_c, 0, 75, 61
1, 80880, Note_on_c, 0, 60, 51
1, 81120, Tempo, 446263
1, 81120, Note_on_c, 0, 60, 0
1, 81120, Note_on_c, 0, 58, 51
1, 81360, Tempo, 415110
1, 81360, Note_on_c, 0, 58, 0
1, 81360, Note_on_c, 0, 75, 0
1, 81360, Note_on_c, 0, 73, 57
1, 81360, Note_on_c, 0, 56, 48
1, 81480, Note_on_c, 0, 73, 0
1, 81480, Note_on_c, 0, 72, 54
1, 81600, Tempo, 459418
1, 81600, Note_on_c, 0, 72, 0
1, 81600, Note_on_c, 0, 56, 0
1, 81600, Note_on_c, 0, 70, 60
1, 81600, Note_on_c, 0, 55, 53
1, 81780, Note_on_c, 0, 70, 0
1, 81840, Note_on_c, 0, 55, 0
1, 81840, Note_on_c, 0, 70, 53
1, 81840, Note_on_c, 0, 51, 47
1, 82020, Note_on_c, 0, 51, 0
1, 82080, Note_on_c, 0, 70, 0
1, 82080, Note_on_c, 0, 72, 59
1, 82080, Note_on_c, 0, 56, 49
1, 82260, Note_on_c, 0, 72, 0
1, 82320, Tempo, 473335
1, 82320, Note_on_c, 0, 56, 0
1, 82320, Note_on_c, 0, 72, 53
1, 82320, Note_on_c, 0, 51, 45
1, 82500, Note_on_c, 0, 51, 0
1, 82500, Note_on_c, 0, 72, 0
1, 82560, Tempo, 438436
1, 82560, Note_on_c, 0, 75, 59
1, 82560, Note_on_c, 0, 58, 49
1, 82800, Tempo, 452728
1, 82800, Note_on_c, 0, 58, 0
1, 82800, Note_on_c, 0, 75, 0
1, 82800, Note_on_c, 0, 73, 51
1, 82800, Note_on_c, 0, 51, 45
1, 82860, Note_on_c, 0, 73, 0
1, 82860, Note_on_c, 0, 75, 46
1, 82920, Note_on_c, 0, 75, 0
1, 82920, Note_on_c, 0, 73, 51
1, 82980, Note_on_c, 0, 51, 0
1, 83040, Tempo, 491965
1, 83040, Note_on_c, 0, 73, 0
1, 83040, Note_on_c, 0, 72, 59
1, 83040, Note_on_c, 0, 56, 49
1, 83280, Tempo, 435382
1, 83280, Note_on_c, 0, 56, 0
1, 83280, Note_on_c, 0, 72, 0
1, 83280, Note_on_c, 0, 72, 60
1, 83400, Note_on_c, 0, 72, 0
1, 83400, Note_on_c, 0, 73, 55
1, 83520, Tempo, 446595
1, 83520, Note_on_c, 0, 73, 0
1, 83520, Note_on_c, 0, 75, 60
1, 83610, Note_on_c, 0, 75, 0
1, 83760, Tempo, 440302
1, 83760, Note_on_c, 0, 75, 59
1, 83850, Note_on_c, 0, 75, 0
1, 84000, Tempo, 447861
1, 84000, Note_on_c, 0, 75, 64
1, 84090, Note_on_c, 0, 75, 0
1, 84240, Tempo, 464540
1, 84240, Note_on_c, 0, 80, 66
1, 84330, Note_on_c, 0, 80, 0
1, 84480, Tempo, 443099
1, 84480, Note_on_c, 0, 75, 61
1, 84720, Note_on_c, 0, 60, 51
1, 84960, Tempo, 446263
1, 84960, Note_on_c, 0, 60, 0
1, 84960, Note_on_c, 0, 58, 51
1, 85200, Tempo, 415110
1, 85200, Note_on_c, 0, 58, 0
1, 85200, Note_on_c, 0, 75, 0
1, 85200, Note_on_c, 0, 73, 57
1, 85200, Note_on_c, 0, 56, 48
1, 85320, Note_on_c, 0, 73, 0
1, 85320, Note_on_c, 0, 72, 54
1, 85440, Tempo, 457701
1, 85440, Note_on_c, 0, 72, 0
1, 85440, Note_on_c, 0, 56, 0
1, 85440, Note_on_c, 0, 70, 60
1, 85440, Note_on_c, 0, 61, 53
1, 85680, Note_on_c, 0, 61, 0
1, 85680, Note_on_c, 0, 70, 0
1, 85680, Note_on_c, 0, 73, 51
1, 85680, Note_on_c, 0, 58, 47
1, 85860, Note_on_c, 0, 58, 0
1, 85860, Note_on_c, 0, 73, 0
1, 85920, Note_on_c, 0, 67, 59
1, 85920, Note_on_c, 0, 63, 49
1, 86160, Tempo, 473335
1, 86160, Note_on_c, 0, 63, 0
1, 86160, Note_on_c, 0, 67, 0
1, 86160, Note_on_c, 0, 70, 50
1, 86160, Note_on_c, 0, 51, 45
1, 86340, Note_on_c, 0, 51, 0
1, 86340, Note_on_c, 0, 70, 0
1, 86400, Tempo, 468019
1, 86400, Note_on_c, 0, 68, 60
1, 86400, Note_on_c, 0, 56, 50
1, 86640, Note_on_c, 0, 56, 0
1, 86640, Note_on_c, 0, 51, 42
1, 86880, Note_on_c, 0, 51, 0
1, 86880, Note_on_c, 0, 68, 0
1, 86880, Note_on_c, 0, 44, 47
1, 87120, Tempo, 443099
1, 87120, Note_on_c, 0, 44, 0
1, 87120, Note_on_c, 0, 72, 60
1, 87240, Note_on_c, 0, 72, 0
1, 87240, Note_on_c, 0, 73, 55
1, 87360, Tempo, 464864
1, 87360, Note_on_c, 0, 73, 0
1, 87360, Note_on_c, 0, 75, 60
1, 87450, Note_on_c, 0, 75, 0
1, 87599, Tempo, 440302
1, 87600, Note_on_c, 0, 80, 61
1, 87687, Tempo, 438757
1, 87720, Note_on_c, 0, 80, 0
1, 87720, Note_on_c, 0, 84, 56
1, 87735, Tempo, 440302
1, 87783, Tempo, 441859
1, 87807, Tempo, 443426
1, 87840, Note_on_c, 0, 84, 0
1, 87840, Note_on_c, 0, 82, 63
1, 87855, Tempo, 445005
1, 87903, Tempo, 446595
1, 87927, Tempo, 448196
1, 87960, Note_on_c, 0, 82, 0
1, 87960, Note_on_c, 0, 80, 63
1, 87975, Tempo, 449809
1, 88023, Tempo, 451433
1, 88047, Tempo, 453070
1, 88080, Tempo, 471884
1, 88080, Note_on_c, 0, 80, 0
1, 88080, Note_on_c, 0, 79, 59
1, 88200, Note_on_c, 0, 79, 0
1, 88200, Note_on_c, 0, 77, 61
1, 88320, Tempo, 441534
1, 88320, Note_on_c, 0, 77, 0
1, 88320, Note_on_c, 0, 75, 61
1, 88560, Note_on_c, 0, 60, 51
1, 88800, Tempo, 446263
1, 88800, Note_on_c, 0, 60, 0
1, 88800, Note_on_c, 0, 58, 51
1, 89040, Tempo, 415110
1, 89040, Note_on_c, 0, 58, 0
1, 89040, Note_on_c, 0, 75, 0
1, 89040, Note_on_c, 0, 73, 57
1, 89040, Note_on_c, 0, 56, 48
1, 89160, Note_on_c, 0, 73, 0
1, 89160, Note_on_c, 0, 72, 54
1, 89280, Tempo, 459418
1, 89280, Note_on_c, 0, 72, 0
1, 89280, Note_on_c, 0, 56, 0
1, 89280, Note_on_c, 0, 70, 60
1, 89280, Note_on_c, 0, 55, 53
1, 89400, Note_on_c, 0, 70, 0
1, 89400, Note_on_c, 0, 75, 50
1, 89520, Note_on_c, 0, 75, 0
1, 89520, Note_on_c, 0, 55, 0
1, 89520, Note_on_c, 0, 70, 56
1, 89520, Note_on_c, 0, 51, 47
1, 89640, Note_on_c, 0, 70, 0
1, 89640, Note_on_c, 0, 75, 50
1, 89700, Note_on_c, 0, 51, 0
1, 89760, Note_on_c, 0, 75, 0
1, 89760, Note_on_c, 0, 72, 56
1, 89760, Note_on_c, 0, 56, 49
1, 89880, Note_on_c, 0, 72, 0
1, 89880, Note_on_c, 0, 75, 47
1, 90000, Tempo, 473335
1, 90000, Note_on_c, 0, 75, 0
1, 90000, Note_on_c, 0, 56, 0
1, 90000, Note_on_c, 0, 72, 54
1, 90000, Note_on_c, 0, 51, 45
1, 90120, Note_on_c, 0, 72, 0
1, 90120, Note_on_c, 0, 75, 48
1, 90180, Note_on_c, 0, 51, 0
1, 90210, Note_on_c, 0, 75, 0
1, 90240, Tempo, 438436
1, 90240, Note_on_c, 0, 75, 59
1, 90240, Note_on_c, 0, 58, 49
1, 90480, Tempo, 452728
1, 90480, Note_on_c, 0, 58, 0
1, 90480, Note_on_c, 0, 75, 0
1, 90480, Note_on_c, 0, 73, 51
1, 90480, Note_on_c, 0, 51, 45
1, 90540, Note_on_c, 0, 73, 0
1, 90540, Note_on_c, 0, 75, 46
1, 90600, Note_on_c, 0, 75, 0
1, 90600, Note_on_c, 0, 73, 51
1, 90660, Note_on_c, 0, 51, 0
1, 90720, Tempo, 491965
1, 90720, Note_on_c, 0, 73, 0
1, 90720, Note_on_c, 0, 72, 59
1, 90720, Note_on_c, 0, 56, 49
1, 90960, Tempo, 435382
1, 90960, Note_on_c, 0, 56, 0
1, 90960, Note_on_c, 0, 72, 0
1, 90960, Note_on_c, 0, 72, 60
1, 91080, Note_on_c, 0, 72, 0
1, 91080, Note_on_c, 0, 73, 55
1, 91200, Tempo, 453070
1, 91200, Note_on_c, 0, 73, 0
1, 91200, Note_on_c, 0, 75, 60
1, 91290, Note_on_c, 0, 75, 0
1, 91431, Tempo, 435667
1, 91440, Note_on_c, 0, 80, 61
1, 91479, Tempo, 437222
1, 91527, Tempo, 438757
1, 91560, Note_on_c, 0, 80, 0
1, 91560, Note_on_c, 0, 84, 56
1, 91575, Tempo, 440302
1, 91623, Tempo, 441859
1, 91671, Tempo, 443426
1, 91680, Note_on_c, 0, 84, 0
1, 91680, Note_on_c, 0, 82, 63
1, 91719, Tempo, 445005
1, 91767, Tempo, 446595
1, 91800, Note_on_c, 0, 82, 0
1, 91800, Note_on_c, 0, 80, 63
1, 91815, Tempo, 448196
1, 91863, Tempo, 449809
1, 91920, Tempo, 464540
1, 91920, Note_on_c, 0, 80, 0
1, 91920, Note_on_c, 0, 79, 59
1, 92040, Note_on_c, 0, 79, 0
1, 92040, Note_on_c, 0, 77, 61
1, 92160, Tempo, 443099
1, 92160, Note_on_c, 0, 77, 0
1, 92160, Note_on_c, 0, 75, 61
1, 92400, Note_on_c, 0, 60, 51
1, 92640, Tempo, 446263
1, 92640, Note_on_c, 0, 60, 0
1, 92640, Note_on_c, 0, 58, 51
1, 92880, Tempo, 415110
1, 92880, Note_on_c, 0, 58, 0
1, 92880, Note_on_c, 0, 75, 0
1, 92880, Note_on_c, 0, 73, 57
1, 92880, Note_on_c, 0, 56, 48
1, 93000, Note_on_c, 0, 73, 0
1, 93000, Note_on_c, 0, 72, 54
1, 93120, Tempo, 457701
1, 93120, Note_on_c, 0, 72, 0
1, 93120, Note_on_c, 0, 56, 0
1, 93120, Note_on_c, 0, 70, 60
1, 93120, Note_on_c, 0, 61, 53
1, 93240, Note_on_c, 0, 70, 0
1, 93240, Note_on_c, 0, 73, 50
1, 93360, Note_on_c, 0, 73, 0
1, 93360, Note_on_c, 0, 61, 0
1, 93360, Note_on_c, 0, 70, 56
1, 93360, Note_on_c, 0, 58, 47
1, 93480, Note_on_c, 0, 70, 0
1, 93480, Note_on_c, 0, 73, 50
1, 93540, Note_on_c, 0, 58, 0
1, 93600, Note_on_c, 0, 73, 0
1, 93600, Note_on_c, 0, 67, 56
1, 93600, Note_on_c, 0, 63, 49
1, 93720, Note_on_c, 0, 67, 0
1, 93840, Tempo, 473335
1, 93840, Note_on_c, 0, 63, 0
1, 93840, Note_on_c, 0, 70, 54
1, 93840, Note_on_c, 0, 51, 45
1, 94020, Note_on_c, 0, 51, 0
1, 94020, Note_on_c, 0, 70, 0
1, 94080, Tempo, 481000
1, 94080, Note_on_c, 0, 68, 60
1, 94080, Note_on_c, 0, 56, 50
1, 94320, Note_on_c, 0, 56, 0
1, 94320, Note_on_c, 0, 51, 42
1, 94560, Note_on_c, 0, 51, 0
1, 94560, Note_on_c, 0, 68, 0
1, 94560, Note_on_c, 0, 44, 47
1, 94800, Tempo, 444675
1, 94800, Note_on_c, 0, 44, 0
1, 94800, Note_on_c, 0, 75, 53
1, 95040, Tempo, 444675
1, 95040, Marker_t, "Teil 4"
1, 95040, Note_on_c, 0, 75, 0
1, 95040, Note_on_c, 0, 77, 59
1, 95160, Note_on_c, 0, 77, 0
1, 95160, Note_on_c, 0, 80, 53
1, 95280, Note_on_c, 0, 80, 0
1, 95280, Note_on_c, 0, 77, 55
1, 95400, Note_on_c, 0, 77, 0
1, 95400, Note_on_c, 0, 75, 51
1, 95520, Tempo, 457701
1, 95520, Note_on_c, 0, 75, 0
1, 95520, Note_on_c, 0, 74, 56
1, 95700, Note_on_c, 0, 74, 0
1, 95760, Tempo, 441859
1, 95760, Note_on_c, 0, 83, 59
1, 95760, Note_on_c, 0, 68, 34
1, 95760, Note_on_c, 0, 74, 41
1, 96000, Tempo, 444675
1, 96000, Note_on_c, 0, 74, 0
1, 96000, Note_on_c, 0, 68, 0
1, 96000, Note_on_c, 0, 83, 0
1, 96000, Note_on_c, 0, 75, 45
1, 96000, Note_on_c, 0, 67, 38
1, 96239, Note_on_c, 0, 75, 0
1, 96240, Note_on_c, 0, 67, 0
1, 96240, Note_on_c, 0, 82, 59
1, 96360, Note_on_c, 0, 82, 0
1, 96360, Note_on_c, 0, 79, 53
1, 96480, Tempo, 452728
1, 96480, Note_on_c, 0, 79, 0
1, 96480, Note_on_c, 0, 75, 53
1, 96600, Tempo, 454373
1, 96720, Tempo, 433871
1, 96720, Note_on_c, 0, 75, 0
1, 96720, Note_on_c, 0, 72, 59
1, 96960, Tempo, 441534
1, 96960, Note_on_c, 0, 72, 0
1, 96960, Note_on_c, 0, 73, 59
1, 97080, Note_on_c, 0, 73, 0
1, 97080, Note_on_c, 0, 77, 53
1, 97200, Note_on_c, 0, 77, 0
1, 97200, Note_on_c, 0, 73, 55
1, 97320, Note_on_c, 0, 73, 0
1, 97320, Note_on_c, 0, 72, 51
1, 97440, Tempo, 454373
1, 97440, Note_on_c, 0, 72, 0
1, 97440, Note_on_c, 0, 71, 55
1, 97620, Note_on_c, 0, 71, 0
1, 97680, Tempo, 441859
1, 97680, Note_on_c, 0, 80, 59
1, 97680, Note_on_c, 0, 65, 34
1, 97680, Note_on_c, 0, 71, 41
1, 97920, Tempo, 441534
1, 97920, Note_on_c, 0, 71, 0
1, 97920, Note_on_c, 0, 65, 0
1, 97920, Note_on_c, 0, 80, 0
1, 97920, Note_on_c, 0, 63, 38
1, 97920, Note_on_c, 0, 72, 45
1, 98159, Note_on_c, 0, 72, 0
1, 98160, Note_on_c, 0, 63, 0
1, 98160, Note_on_c, 0, 79, 59
1, 98280, Note_on_c, 0, 79, 0
1, 98280, Note_on_c, 0, 75, 53
1, 98400, Tempo, 451094
1, 98400, Note_on_c, 0, 75, 0
1, 98400, Note_on_c, 0, 72, 53
1, 98640, Tempo, 432370
1, 98640, Note_on_c, 0, 72, 0
1, 98640, Note_on_c, 0, 68, 59
1, 98880, Tempo, 441534
1, 98880, Note_on_c, 0, 68, 0
1, 98880, Note_on_c, 0, 70, 59
1, 99000, Note_on_c, 0, 70, 0
1, 99000, Note_on_c, 0, 73, 53
1, 99120, Tempo, 444675
1, 99120, Note_on_c, 0, 73, 0
1, 99120, Note_on_c, 0, 70, 55
1, 99240, Note_on_c, 0, 70, 0
1, 99240, Note_on_c, 0, 68, 51
1, 99360, Tempo, 462463
1, 99360, Note_on_c, 0, 68, 0
1, 99360, Note_on_c, 0, 67, 53
1, 99540, Note_on_c, 0, 67, 0
1, 99600, Tempo, 437222
1, 99600, Note_on_c, 0, 77, 59
1, 99600, Note_on_c, 0, 67, 41
1, 99600, Note_on_c, 0, 61, 34
1, 99840, Tempo, 441534
1, 99840, Note_on_c, 0, 61, 0
1, 99840, Note_on_c, 0, 67, 0
1, 99840, Note_on_c, 0, 77, 0
1, 99840, Note_on_c, 0, 60, 38
1, 99840, Note_on_c, 0, 68, 45
1, 100080, Note_on_c, 0, 68, 0
1, 100080, Note_on_c, 0, 60, 0
1, 100080, Note_on_c, 0, 75, 59
1, 100200, Note_on_c, 0, 75, 0
1, 100200, Note_on_c, 0, 72, 53
1, 100320, Tempo, 454373
1, 100320, Note_on_c, 0, 72, 0
1, 100320, Note_on_c, 0, 68, 53
1, 100560, Tempo, 445005
1, 100560, Note_on_c, 0, 68, 0
1, 100560, Note_on_c, 0, 75, 59
1, 100800, Tempo, 459735
1, 100800, Note_on_c, 0, 75, 0
1, 100800, Note_on_c, 0, 58, 38
1, 100800, Note_on_c, 0, 68, 45
1, 101040, Tempo, 437222
1, 101040, Note_on_c, 0, 74, 59
1, 101160, Note_on_c, 0, 74, 0
1, 101160, Note_on_c, 0, 77, 51
1, 101280, Tempo, 445005
1, 101280, Note_on_c, 0, 77, 0
1, 101280, Note_on_c, 0, 68, 0
1, 101280, Note_on_c, 0, 58, 0
1, 101280, Note_on_c, 0, 80, 53
1, 101520, Tempo, 463142
1, 101520, Note_on_c, 0, 80, 0
1, 101520, Note_on_c, 0, 74, 50
1, 101760, Tempo, 456378
1, 101760, Note_on_c, 0, 74, 0
1, 101760, Note_on_c, 0, 67, 45
1, 101760, Note_on_c, 0, 63, 38
1, 101880, Tempo, 446263
1, 102000, Tempo, 445005
1, 102000, Note_on_c, 0, 75, 59
1, 102120, Note_on_c, 0, 75, 0
1, 102120, Note_on_c, 0, 79, 49
1, 102240, Tempo, 451433
1, 102240, Note_on_c, 0, 79, 0
1, 102240, Note_on_c, 0, 63, 0
1, 102240, Note_on_c, 0, 67, 0
1, 102240, Note_on_c, 0, 82, 59
1, 102480, Tempo, 475511
1, 102480, Note_on_c, 0, 82, 0
1, 102480, Note_on_c, 0, 75, 56
1, 102720, Tempo, 471550
1, 102720, Note_on_c, 0, 75, 0
1, 102720, Note_on_c, 0, 58, 38
1, 102720, Note_on_c, 0, 68, 45
1, 102960, Note_on_c, 0, 74, 59
1, 103080, Note_on_c, 0, 74, 0
1, 103080, Note_on_c, 0, 77, 48
1, 103200, Note_on_c, 0, 77, 0
1, 103200, Note_on_c, 0, 68, 0
1, 103200, Note_on_c, 0, 58, 0
1, 103200, Note_on_c, 0, 80, 51
1, 103440, Tempo, 508001
1, 103440, Note_on_c, 0, 80, 0
1, 103440, Note_on_c, 0, 74, 43
1, 103680, Tempo, 656455
1, 103680, Note_on_c, 0, 74, 0
1, 103680, Note_on_c, 0, 77, 53
1, 103920, Tempo, 1167542
1, 103920, Note_on_c, 0, 77, 0
1, 103920, Note_on_c, 0, 75, 47
1, 103920, Note_on_c, 0, 39, 26
1, 104040, Note_on_c, 0, 75, 0
1, 104160, Tempo, 596837
1, 104160, Note_on_c, 0, 39, 0
1, 104400, Tempo, 443099
1, 104400, Note_on_c, 0, 72, 60
1, 104520, Note_on_c, 0, 72, 0
1, 104520, Note_on_c, 0, 73, 55
1, 104640, Tempo, 456378
1, 104640, Note_on_c, 0, 73, 0
1, 104640, Note_on_c, 0, 75, 60
1, 104730, Note_on_c, 0, 75, 0
1, 104880, Tempo, 441859
1, 104880, Note_on_c, 0, 80, 61
1, 104967, Tempo, 438757
1, 105000, Note_on_c, 0, 80, 0
1, 105000, Note_on_c, 0, 84, 56
1, 105015, Tempo, 440302
1, 105063, Tempo, 441859
1, 105087, Tempo, 443426
1, 105120, Note_on_c, 0, 84, 0
1, 105120, Note_on_c, 0, 82, 63
1, 105135, Tempo, 445005
1, 105183, Tempo, 446595
1, 105207, Tempo, 448196
1, 105240, Note_on_c, 0, 82, 0
1, 105240, Note_on_c, 0, 80, 63
1, 105255, Tempo, 449809
1, 105303, Tempo, 451433
1, 105327, Tempo, 453070
1, 105360, Tempo, 471884
1, 105360, Note_on_c, 0, 80, 0
1, 105360, Note_on_c, 0, 79, 59
1, 105480, Note_on_c, 0, 79, 0
1, 105480, Note_on_c, 0, 77, 61
1, 105600, Tempo, 441534
1, 105600, Note_on_c, 0, 77, 0
1, 105600, Note_on_c, 0, 75, 61
1, 105840, Note_on_c, 0, 60, 51
1, 106080, Tempo, 446263
1, 106080, Note_on_c, 0, 60, 0
1, 106080, Note_on_c, 0, 58, 51
1, 106320, Tempo, 415110
1, 106320, Note_on_c, 0, 58, 0
1, 106320, Note_on_c, 0, 75, 0
1, 106320, Note_on_c, 0, 73, 57
1, 106320, Note_on_c, 0, 56, 48
1, 106440, Note_on_c, 0, 73, 0
1, 106440, Note_on_c, 0, 72, 54
1, 106560, Tempo, 459418
1, 106560, Note_on_c, 0, 72, 0
1, 106560, Note_on_c, 0, 56, 0
1, 106560, Note_on_c, 0, 70, 60
1, 106560, Note_on_c, 0, 55, 53
1, 106680, Note_on_c, 0, 70, 0
1, 106680, Note_on_c, 0, 75, 50
1, 106800, Note_on_c, 0, 75, 0
1, 106800, Note_on_c, 0, 55, 0
1, 106800, Note_on_c, 0, 70, 56
1, 106800, Note_on_c, 0, 51, 47
1, 106920, Note_on_c, 0, 70, 0
1, 106920, Note_on_c, 0, 75, 50
1, 106980, Note_on_c, 0, 51, 0
1, 107040, Note_on_c, 0, 75, 0
1, 107040, Note_on_c, 0, 72, 56
1, 107040, Note_on_c, 0, 56, 49
1, 107160, Note_on_c, 0, 72, 0
1, 107160, Note_on_c, 0, 75, 47
1, 107280, Tempo, 473335
1, 107280, Note_on_c, 0, 75, 0
1, 107280, Note_on_c, 0, 56, 0
1, 107280, Note_on_c, 0, 72, 54
1, 107280, Note_on_c, 0, 51, 45
1, 107400, Note_on_c, 0, 72, 0
1, 107400, Note_on_c, 0, 75, 48
1, 107460, Note_on_c, 0, 51, 0
1, 107490, Note_on_c, 0, 75, 0
1, 107520, Tempo, 438436
1, 107520, Note_on_c, 0, 75, 59
1, 107520, Note_on_c, 0, 58, 49
1, 107760, Tempo, 452728
1, 107760, Note_on_c, 0, 58, 0
1, 107760, Note_on_c, 0, 75, 0
1, 107760, Note_on_c, 0, 73, 51
1, 107760, Note_on_c, 0, 51, 45
1, 107820, Note_on_c, 0, 73, 0
1, 107820, Note_on_c, 0, 75, 46
1, 107880, Note_on_c, 0, 75, 0
1, 107880, Note_on_c, 0, 73, 51
1, 107940, Note_on_c, 0, 51, 0
1, 108000, Tempo, 491965
1, 108000, Note_on_c, 0, 73, 0
1, 108000, Note_on_c, 0, 72, 59
1, 108000, Note_on_c, 0, 56, 49
1, 108240, Tempo, 435382
1, 108240, Note_on_c, 0, 56, 0
1, 108240, Note_on_c, 0, 72, 0
1, 108240, Note_on_c, 0, 72, 60
1, 108360, Note_on_c, 0, 72, 0
1, 108360, Note_on_c, 0, 73, 55
1, 108480, Tempo, 446595
1, 108480, Note_on_c, 0, 73, 0
1, 108480, Note_on_c, 0, 75, 60
1, 108570, Note_on_c, 0, 75, 0
1, 108711, Tempo, 435667
1, 108720, Note_on_c, 0, 84, 61
1, 108759, Tempo, 437222
1, 108807, Tempo, 438757
1, 108840, Note_on_c, 0, 84, 0
1, 108840, Note_on_c, 0, 80, 56
1, 108855, Tempo, 440302
1, 108903, Tempo, 441859
1, 108951, Tempo, 443426
1, 108960, Note_on_c, 0, 80, 0
1, 108960, Note_on_c, 0, 82, 63
1, 108999, Tempo, 445005
1, 109047, Tempo, 446595
1, 109080, Note_on_c, 0, 82, 0
1, 109080, Note_on_c, 0, 79, 63
1, 109095, Tempo, 448196
1, 109143, Tempo, 449809
1, 109200, Tempo, 464540
1, 109200, Note_on_c, 0, 79, 0
1, 109200, Note_on_c, 0, 80, 59
1, 109320, Note_on_c, 0, 80, 0
1, 109320, Note_on_c, 0, 77, 61
1, 109440, Tempo, 443099
1, 109440, Note_on_c, 0, 77, 0
1, 109440, Note_on_c, 0, 75, 61
1, 109680, Note_on_c, 0, 60, 51
1, 109920, Tempo, 446263
1, 109920, Note_on_c, 0, 60, 0
1, 109920, Note_on_c, 0, 58, 51
1, 110160, Tempo, 415110
1, 110160, Note_on_c, 0, 58, 0
1, 110160, Note_on_c, 0, 75, 0
1, 110160, Note_on_c, 0, 73, 57
1, 110160, Note_on_c, 0, 56, 48
1, 110280, Note_on_c, 0, 73, 0
1, 110280, Note_on_c, 0, 72, 54
1, 110400, Tempo, 457701
1, 110400, Note_on_c, 0, 72, 0
1, 110400, Note_on_c, 0, 56, 0
1, 110400, Note_on_c, 0, 70, 60
1, 110400, Note_on_c, 0, 61, 53
1, 110520, Note_on_c, 0, 70, 0
1, 110520, Note_on_c, 0, 73, 50
1, 110640, Note_on_c, 0, 73, 0
1, 110640, Note_on_c, 0, 61, 0
1, 110640, Note_on_c, 0, 70, 56
1, 110640, Note_on_c, 0, 58, 47
1, 110760, Note_on_c, 0, 70, 0
1, 110760, Note_on_c, 0, 73, 50
1, 110820, Note_on_c, 0, 58, 0
1, 110880, Note_on_c, 0, 73, 0
1, 110880, Note_on_c, 0, 67, 56
1, 110880, Note_on_c, 0, 63, 49
1, 111000, Note_on_c, 0, 67, 0
1, 111120, Tempo, 473335
1, 111120, Note_on_c, 0, 63, 0
1, 111120, Note_on_c, 0, 70, 54
1, 111120, Note_on_c, 0, 51, 45
1, 111300, Note_on_c, 0, 51, 0
1, 111300, Note_on_c, 0, 70, 0
1, 111360, Tempo, 481000
1, 111360, Note_on_c, 0, 68, 60
1, 111360, Note_on_c, 0, 56, 50
1, 111600, Note_on_c, 0, 56, 0
1, 111600, Note_on_c, 0, 51, 42
1, 111840, Note_on_c, 0, 51, 0
1, 111840, Note_on_c, 0, 68, 0
1, 111840, Note_on_c, 0, 44, 47
1, 112080, Tempo, 444675
1, 112080, Note_on_c, 0, 44, 0
1, 112080, Note_on_c, 0, 75, 53
1, 112320, Tempo, 444675
1, 112320, Marker_t, "Teil 4 Wiederholung"
1, 112320, Note_on_c, 0, 75, 0
1, 112320, Note_on_c, 0, 77, 59
1, 112440, Note_on_c, 0, 77, 0
1, 112440, Note_on_c, 0, 80, 53
1, 112560, Note_on_c, 0, 80, 0
1, 112560, Note_on_c, 0, 77, 55
1, 112680, Note_on_c, 0, 77, 0
1, 112680, Note_on_c, 0, 75, 51
1, 112800, Tempo, 457701
1, 112800, Note_on_c, 0, 75, 0
1, 112800, Note_on_c, 0, 74, 56
1, 112980, Note_on_c, 0, 74, 0
1, 113040, Tempo, 445005
1, 113040, Note_on_c, 0, 83, 59
1, 113040, Note_on_c, 0, 74, 41
1, 113040, Note_on_c, 0, 68, 34
1, 113280, Tempo, 444675
1, 113280, Note_on_c, 0, 68, 0
1, 113280, Note_on_c, 0, 74, 0
1, 113280, Note_on_c, 0, 83, 0
1, 113280, Note_on_c, 0, 67, 38
1, 113280, Note_on_c, 0, 75, 45
1, 113519, Note_on_c, 0, 75, 0
1, 113520, Note_on_c, 0, 67, 0
1, 113520, Note_on_c, 0, 82, 59
1, 113640, Note_on_c, 0, 82, 0
1, 113640, Note_on_c, 0, 79, 53
1, 113760, Tempo, 452728
1, 113760, Note_on_c, 0, 79, 0
1, 113760, Note_on_c, 0, 75, 53
1, 113880, Tempo, 454373
1, 114000, Tempo, 433871
1, 114000, Note_on_c, 0, 75, 0
1, 114000, Note_on_c, 0, 72, 59
1, 114240, Tempo, 441534
1, 114240, Note_on_c, 0, 72, 0
1, 114240, Note_on_c, 0, 73, 59
1, 114360, Note_on_c, 0, 73, 0
1, 114360, Note_on_c, 0, 77, 53
1, 114480, Note_on_c, 0, 77, 0
1, 114480, Note_on_c, 0, 73, 55
1, 114600, Note_on_c, 0, 73, 0
1, 114600, Note_on_c, 0, 72, 51
1, 114720, Tempo, 454373
1, 114720, Note_on_c, 0, 72, 0
1, 114720, Note_on_c, 0, 71, 55
1, 114900, Note_on_c, 0, 71, 0
1, 114960, Tempo, 435066
1, 114960, Note_on_c, 0, 80, 59
1, 114960, Note_on_c, 0, 71, 41
1, 114960, Note_on_c, 0, 65, 34
1, 115200, Tempo, 441534
1, 115200, Note_on_c, 0, 65, 0
1, 115200, Note_on_c, 0, 71, 0
1, 115200, Note_on_c, 0, 80, 0
1, 115200, Note_on_c, 0, 63, 38
1, 115200, Note_on_c, 0, 72, 45
1, 115439, Note_on_c, 0, 72, 0
1, 115440, Note_on_c, 0, 63, 0
1, 115440, Note_on_c, 0, 79, 59
1, 115560, Note_on_c, 0, 79, 0
1, 115560, Note_on_c, 0, 75, 53
1, 115680, Tempo, 451094
1, 115680, Note_on_c, 0, 75, 0
1, 115680, Note_on_c, 0, 72, 53
1, 115920, Tempo, 432370
1, 115920, Note_on_c, 0, 72, 0
1, 115920, Note_on_c, 0, 68, 59
1, 116160, Tempo, 441534
1, 116160, Note_on_c, 0, 68, 0
1, 116160, Note_on_c, 0, 70, 59
1, 116280, Note_on_c, 0, 70, 0
1, 116280, Note_on_c, 0, 73, 53
1, 116400, Tempo, 444675
1, 116400, Note_on_c, 0, 73, 0
1, 116400, Note_on_c, 0, 70, 55
1, 116520, Note_on_c, 0, 70, 0
1, 116520, Note_on_c, 0, 68, 51
1, 116640, Tempo, 462463
1, 116640, Note_on_c, 0, 68, 0
1, 116640, Note_on_c, 0, 67, 53
1, 116820, Note_on_c, 0, 67, 0
1, 116880, Tempo, 448196
1, 116880, Note_on_c, 0, 77, 59
1, 116880, Note_on_c, 0, 67, 41
1, 116880, Note_on_c, 0, 61, 34
1, 117120, Tempo, 441534
1, 117120, Note_on_c, 0, 61, 0
1, 117120, Note_on_c, 0, 67, 0
1, 117120, Note_on_c, 0, 77, 0
1, 117120, Note_on_c, 0, 60, 38
1, 117120, Note_on_c, 0, 68, 45
1, 117359, Note_on_c, 0, 68, 0
1, 117360, Note_on_c, 0, 60, 0
1, 117360, Note_on_c, 0, 75, 59
1, 117480, Note_on_c, 0, 75, 0
1, 117480, Note_on_c, 0, 72, 53
1, 117600, Tempo, 454373
1, 117600, Note_on_c, 0, 72, 0
1, 117600, Note_on_c, 0, 68, 53
1, 117840, Tempo, 445005
1, 117840, Note_on_c, 0, 68, 0
1, 117840, Note_on_c, 0, 75, 59
1, 118080, Tempo, 459735
1, 118080, Note_on_c, 0, 75, 0
1, 118080, Note_on_c, 0, 58, 38
1, 118080, Note_on_c, 0, 68, 45
1, 118320, Tempo, 437222
1, 118320, Note_on_c, 0, 74, 59
1, 118440, Note_on_c, 0, 74, 0
1, 118440, Note_on_c, 0, 77, 51
1, 118560, Tempo, 445005
1, 118560, Note_on_c, 0, 77, 0
1, 118560, Note_on_c, 0, 68, 0
1, 118560, Note_on_c, 0, 58, 0
1, 118560, Note_on_c, 0, 80, 53
1, 118800, Tempo, 463142
1, 118800, Note_on_c, 0, 80, 0
1, 118800, Note_on_c, 0, 74, 50
1, 119040, Tempo, 456378
1, 119040, Note_on_c, 0, 74, 0
1, 119040, Note_on_c, 0, 63, 38
1, 119040, Note_on_c, 0, 67, 45
1, 119160, Tempo, 446263
1, 119280, Tempo, 445005
1, 119280, Note_on_c, 0, 75, 59
1, 119400, Note_on_c, 0, 75, 0
1, 119400, Note_on_c, 0, 79, 49
1, 119520, Tempo, 451433
1, 119520, Note_on_c, 0, 79, 0
1, 119520, Note_on_c, 0, 67, 0
1, 119520, Note_on_c, 0, 63, 0
1, 119520, Note_on_c, 0, 82, 59
1, 119760, Tempo, 475511
1, 119760, Note_on_c, 0, 82, 0
1, 119760, Note_on_c, 0, 75, 56
1, 120000, Tempo, 471550
1, 120000, Note_on_c, 0, 75, 0
1, 120000, Note_on_c, 0, 58, 38
1, 120000, Note_on_c, 0, 68, 45
1, 120240, Note_on_c, 0, 74, 59
1, 120360, Note_on_c, 0, 74, 0
1, 120360, Note_on_c, 0, 77, 48
1, 120480, Note_on_c, 0, 77, 0
1, 120480, Note_on_c, 0, 68, 0
1, 120480, Note_on_c, 0, 58, 0
1, 120480, Note_on_c, 0, 80, 51
1, 120720, Tempo, 508001
1, 120720, Note_on_c, 0, 80, 0
1, 120720, Note_on_c, 0, 74, 43
1, 120960, Tempo, 656455
1, 120960, Note_on_c, 0, 74, 0
1, 120960, Note_on_c, 0, 77, 53
1, 121200, Tempo, 1135718
1, 121200, Note_on_c, 0, 77, 0
1, 121200, Note_on_c, 0, 75, 47
1, 121200, Note_on_c, 0, 39, 26
1, 121320, Note_on_c, 0, 75, 0
1, 121440, Tempo, 596837
1, 121440, Note_on_c, 0, 39, 0
1, 121680, Tempo, 443099
1, 121680, Note_on_c, 0, 72, 60
1, 121800, Note_on_c, 0, 72, 0
1, 121800, Note_on_c, 0, 73, 55
1, 121920, Tempo, 463142
1, 121920, Note_on_c, 0, 73, 0
1, 121920, Note_on_c, 0, 75, 60
1, 122010, Note_on_c, 0, 75, 0
1, 122160, Tempo, 440302
1, 122160, Note_on_c, 0, 80, 61
1, 122247, Tempo, 438757
1, 122280, Note_on_c, 0, 80, 0
1, 122280, Note_on_c, 0, 84, 56
1, 122295, Tempo, 440302
1, 122343, Tempo, 441859
1, 122367, Tempo, 443426
1, 122400, Note_on_c, 0, 84, 0
1, 122400, Note_on_c, 0, 82, 63
1, 122415, Tempo, 445005
1, 122463, Tempo, 446595
1, 122487, Tempo, 448196
1, 122520, Note_on_c, 0, 82, 0
1, 122520, Note_on_c, 0, 80, 63
1, 122535, Tempo, 449809
1, 122583, Tempo, 451433
1, 122607, Tempo, 453070
1, 122640, Tempo, 471884
1, 122640, Note_on_c, 0, 80, 0
1, 122640, Note_on_c, 0, 79, 59
1, 122760, Note_on_c, 0, 79, 0
1, 122760, Note_on_c, 0, 77, 61
1, 122880, Tempo, 441534
1, 122880, Note_on_c, 0, 77, 0
1, 122880, Note_on_c, 0, 75, 61
1, 123120, Note_on_c, 0, 60, 51
1, 123360, Tempo, 446263
1, 123360, Note_on_c, 0, 60, 0
1, 123360, Note_on_c, 0, 58, 51
1, 123600, Tempo, 415110
1, 123600, Note_on_c, 0, 58, 0
1, 123600, Note_on_c, 0, 75, 0
1, 123600, Note_on_c, 0, 73, 57
1, 123600, Note_on_c, 0, 56, 48
1, 123720, Note_on_c, 0, 73, 0
1, 123720, Note_on_c, 0, 72, 54
1, 123840, Tempo, 459418
1, 123840, Note_on_c, 0, 72, 0
1, 123840, Note_on_c, 0, 56, 0
1, 123840, Note_on_c, 0, 70, 60
1, 123840, Note_on_c, 0, 55, 53
1, 123960, Note_on_c, 0, 70, 0
1, 123960, Note_on_c, 0, 75, 50
1, 124080, Note_on_c, 0, 75, 0
1, 124080, Note_on_c, 0, 55, 0
1, 124080, Note_on_c, 0, 70, 56
1, 124080, Note_on_c, 0, 51, 47
1, 124200, Note_on_c, 0, 70, 0
1, 124200, Note_on_c, 0, 75, 50
1, 124260, Note_on_c, 0, 51, 0
1, 124320, Note_on_c, 0, 75, 0
1, 124320, Note_on_c, 0, 72, 56
1, 124320, Note_on_c, 0, 56, 49
1, 124440, Note_on_c, 0, 72, 0
1, 124440, Note_on_c, 0, 75, 47
1, 124560, Tempo, 473335
1, 124560, Note_on_c, 0, 75, 0
1, 124560, Note_on_c, 0, 56, 0
1, 124560, Note_on_c, 0, 72, 54
1, 124560, Note_on_c, 0, 51, 45
1, 124680, Note_on_c, 0, 72, 0
1, 124680, Note_on_c, 0, 75, 48
1, 124740, Note_on_c, 0, 51, 0
1, 124770, Note_on_c, 0, 75, 0
1, 124800, Tempo, 438436
1, 124800, Note_on_c, 0, 75, 59
1, 124800, Note_on_c, 0, 58, 49
1, 125040, Tempo, 452728
1, 125040, Note_on_c, 0, 58, 0
1, 125040, Note_on_c, 0, 75, 0
1, 125040, Note_on_c, 0, 73, 51
1, 125040, Note_on_c, 0, 51, 45
1, 125100, Note_on_c, 0, 73, 0
1, 125100, Note_on_c, 0, 75, 46
1, 125160, Note_on_c, 0, 75, 0
1, 125160, Note_on_c, 0, 73, 51
1, 125220, Note_on_c, 0, 51, 0
1, 125280, Tempo, 491965
1, 125280, Note_on_c, 0, 73, 0
1, 125280, Note_on_c, 0, 72, 59
1, 125280, Note_on_c, 0, 56, 49
1, 125520, Tempo, 435382
1, 125520, Note_on_c, 0, 56, 0
1, 125520, Note_on_c, 0, 72, 0
1, 125520, Note_on_c, 0, 72, 60
1, 125640, Note_on_c, 0, 72, 0
1, 125640, Note_on_c, 0, 73, 55
1, 125760, Tempo, 458050
1, 125760, Note_on_c, 0, 73, 0
1, 125760, Note_on_c, 0, 75, 60
1, 125850, Note_on_c, 0, 75, 0
1, 125991, Tempo, 435667
1, 126000, Note_on_c, 0, 84, 61
1, 126039, Tempo, 437222
1, 126087, Tempo, 438757
1, 126120, Note_on_c, 0, 84, 0
1, 126120, Note_on_c, 0, 80, 56
1, 126135, Tempo, 440302
1, 126183, Tempo, 441859
1, 126231, Tempo, 443426
1, 126240, Note_on_c, 0, 80, 0
1, 126240, Note_on_c, 0, 82, 63
1, 126279, Tempo, 445005
1, 126327, Tempo, 446595
1, 126360, Note_on_c, 0, 82, 0
1, 126360, Note_on_c, 0, 79, 63
1, 126375, Tempo, 448196
1, 126423, Tempo, 449809
1, 126480, Tempo, 464540
1, 126480, Note_on_c, 0, 79, 0
1, 126480, Note_on_c, 0, 80, 59
1, 126600, Note_on_c, 0, 80, 0
1, 126600, Note_on_c, 0, 77, 61
1, 126720, Tempo, 443099
1, 126720, Note_on_c, 0, 77, 0
1, 126720, Note_on_c, 0, 75, 61
1, 126960, Note_on_c, 0, 60, 51
1, 127200, Tempo, 446263
1, 127200, Note_on_c, 0, 60, 0
1, 127200, Note_on_c, 0, 58, 51
1, 127440, Tempo, 415110
1, 127440, Note_on_c, 0, 58, 0
1, 127440, Note_on_c, 0, 75, 0
1, 127440, Note_on_c, 0, 73, 57
1, 127440, Note_on_c, 0, 56, 48
1, 127560, Note_on_c, 0, 73, 0
1, 127560, Note_on_c, 0, 72, 54
1, 127680, Tempo, 457701
1, 127680, Note_on_c, 0, 72, 0
1, 127680, Note_on_c, 0, 56, 0
1, 127680, Note_on_c, 0, 70, 60
1, 127680, Note_on_c, 0, 61, 53
1, 127800, Note_on_c, 0, 70, 0
1, 127800, Note_on_c, 0, 73, 50
1, 127920, Note_on_c, 0, 73, 0
1, 127920, Note_on_c, 0, 61, 0
1, 127920, Note_on_c, 0, 70, 56
1, 127920, Note_on_c, 0, 58, 47
1, 128040, Note_on_c, 0, 70, 0
1, 128040, Note_on_c, 0, 73, 50
1, 128100, Note_on_c, 0, 58, 0
1, 128160, Note_on_c, 0, 73, 0
1, 128160, Note_on_c, 0, 67, 56
1, 128160, Note_on_c, 0, 63, 49
1, 128280, Note_on_c, 0, 67, 0
1, 128400, Tempo, 473335
1, 128400, Note_on_c, 0, 63, 0
1, 128400, Note_on_c, 0, 70, 54
1, 128400, Note_on_c, 0, 51, 45
1, 128580, Note_on_c, 0, 51, 0
1, 128580, Note_on_c, 0, 70, 0
1, 128640, Tempo, 481000
1, 128640, Note_on_c, 0, 68, 60
1, 128640, Note_on_c, 0, 56, 50
1, 128880, Note_on_c, 0, 56, 0
1, 128880, Note_on_c, 0, 51, 42
1, 129120, Note_on_c, 0, 51, 0
1, 129120, Note_on_c, 0, 68, 0
1, 129120, Note_on_c, 0, 44, 47
1, 129360, Tempo, 471884
1, 129360, Marker_t, "Teil 5"
1, 129360, Note_on_c, 0, 44, 0
1, 129360, Note_on_c, 0, 72, 53
1, 129600, Tempo, 459418
1, 129600, Note_on_c, 0, 72, 0
1, 129600, Note_on_c, 0, 77, 60
1, 129600, Note_on_c, 0, 68, 53
1, 129660, Control_c, 0, 64, 127
1, 129720, Note_on_c, 0, 77, 0
1, 129720, Note_on_c, 0, 72, 50
1, 129840, Note_on_c, 0, 72, 0
1, 129840, Note_on_c, 0, 68, 0
1, 129840, Note_on_c, 0, 76, 56
1, 129840, Note_on_c, 0, 67, 47
1, 129848, Control_c, 0, 64, 0
1, 129900, Control_c, 0, 64, 127
1, 129960, Note_on_c, 0, 76, 0
1, 129960, Note_on_c, 0, 72, 50
1, 129967, Control_c, 0, 64, 0
1, 130020, Note_on_c, 0, 67, 0
1, 130080, Note_on_c, 0, 72, 0
1, 130080, Note_on_c, 0, 77, 56
1, 130080, Note_on_c, 0, 68, 49
1, 130140, Control_c, 0, 64, 127
1, 130200, Note_on_c, 0, 77, 0
1, 130200, Note_on_c, 0, 72, 47
1, 130320, Tempo, 473335
1, 130320, Note_on_c, 0, 72, 0
1, 130320, Note_on_c, 0, 68, 0
1, 130320, Note_on_c, 0, 80, 54
1, 130320, Note_on_c, 0, 65, 45
1, 130440, Note_on_c, 0, 80, 0
1, 130440, Note_on_c, 0, 72, 48
1, 130453, Control_c, 0, 64, 0
1, 130500, Note_on_c, 0, 65, 0
1, 130530, Note_on_c, 0, 72, 0
1, 130560, Tempo, 459418
1, 130560, Note_on_c, 0, 79, 60
1, 130560, Note_on_c, 0, 64, 53
1, 130617, Control_c, 0, 64, 127
1, 130680, Note_on_c, 0, 79, 0
1, 130680, Note_on_c, 0, 72, 50
1, 130800, Note_on_c, 0, 72, 0
1, 130800, Note_on_c, 0, 83, 56
1, 130808, Control_c, 0, 64, 0
1, 130920, Note_on_c, 0, 83, 0
1, 130920, Note_on_c, 0, 72, 50
1, 131040, Note_on_c, 0, 72, 0
1, 131040, Note_on_c, 0, 64, 0
1, 131040, Note_on_c, 0, 84, 56
1, 131160, Note_on_c, 0, 84, 0
1, 131160, Note_on_c, 0, 72, 47
1, 131280, Tempo, 473335
1, 131280, Note_on_c, 0, 72, 0
1, 131280, Note_on_c, 0, 82, 54
1, 131400, Note_on_c, 0, 82, 0
1, 131400, Note_on_c, 0, 72, 48
1, 131490, Note_on_c, 0, 72, 0
1, 131520, Tempo, 459418
1, 131520, Note_on_c, 0, 80, 60
1, 131520, Note_on_c, 0, 65, 53
1, 131580, Control_c, 0, 64, 127
1, 131640, Note_on_c, 0, 80, 0
1, 131640, Note_on_c, 0, 72, 50
1, 131760, Note_on_c, 0, 72, 0
1, 131760, Note_on_c, 0, 65, 0
1, 131760, Note_on_c, 0, 79, 56
1, 131760, Note_on_c, 0, 67, 47
1, 131768, Control_c, 0, 64, 0
1, 131820, Control_c, 0, 64, 127
1, 131880, Note_on_c, 0, 79, 0
1, 131880, Note_on_c, 0, 72, 50
1, 132000, Note_on_c, 0, 72, 0
1, 132000, Note_on_c, 0, 67, 0
1, 132000, Note_on_c, 0, 77, 56
1, 132000, Note_on_c, 0, 68, 49
1, 132009, Control_c, 0, 64, 0
1, 132099, Control_c, 0, 64, 127
1, 132120, Note_on_c, 0, 77, 0
1, 132120, Note_on_c, 0, 72, 47
1, 132240, Tempo, 473335
1, 132240, Note_on_c, 0, 72, 0
1, 132240, Note_on_c, 0, 68, 0
1, 132240, Note_on_c, 0, 79, 54
1, 132256, Control_c, 0, 64, 0
1, 132339, Control_c, 0, 64, 127
1, 132360, Note_on_c, 0, 79, 0
1, 132360, Note_on_c, 0, 72, 48
1, 132450, Note_on_c, 0, 72, 0
1, 132480, Tempo, 481116
1, 132480, Note_on_c, 0, 76, 60
1, 132480, Note_on_c, 0, 60, 53
1, 132487, Control_c, 0, 64, 0
1, 132540, Control_c, 0, 64, 127
1, 132600, Note_on_c, 0, 76, 0
1, 132600, Note_on_c, 0, 72, 50
1, 132720, Note_on_c, 0, 72, 0
1, 132720, Note_on_c, 0, 60, 0
1, 132720, Note_on_c, 0, 77, 58
1, 132720, Note_on_c, 0, 62, 47
1, 132728, Control_c, 0, 64, 0
1, 132780, Control_c, 0, 64, 127
1, 132840, Note_on_c, 0, 77, 0
1, 132840, Note_on_c, 0, 72, 52
1, 132960, Tempo, 502428
1, 132960, Note_on_c, 0, 72, 0
1, 132960, Note_on_c, 0, 62, 0
1, 132960, Note_on_c, 0, 79, 56
1, 132960, Note_on_c, 0, 64, 49
1, 132969, Control_c, 0, 64, 0
1, 133059, Control_c, 0, 64, 127
1, 133200, Tempo, 475624
1, 133200, Note_on_c, 0, 64, 0
1, 133200, Note_on_c, 0, 79, 0
1, 133200, Note_on_c, 0, 72, 68
1, 133216, Control_c, 0, 64, 0
1, 133275, Control_c, 0, 64, 127
1, 133320, Note_on_c, 0, 72, 0
1, 133320, Note_on_c, 0, 84, 55
1, 133410, Note_on_c, 0, 84, 0
1, 133440, Tempo, 470109
1, 133440, Note_on_c, 0, 73, 70
1, 133440, Control_c, 0, 64, 0
1, 133560, Note_on_c, 0, 73, 0
1, 133560, Note_on_c, 0, 85, 58
1, 133560, Control_c, 0, 64, 127
1, 133680, Note_on_c, 0, 85, 0
1, 133680, Note_on_c, 0, 72, 69
1, 133687, Control_c, 0, 64, 0
1, 133793, Control_c, 0, 64, 127
1, 133800, Note_on_c, 0, 72, 0
1, 133800, Note_on_c, 0, 84, 60
1, 133920, Note_on_c, 0, 84, 0
1, 133920, Note_on_c, 0, 70, 70
1, 133939, Control_c, 0, 64, 0
1, 134026, Control_c, 0, 64, 127
1, 134040, Note_on_c, 0, 70, 0
1, 134040, Note_on_c, 0, 82, 59
1, 134160, Tempo, 492368
1, 134160, Note_on_c, 0, 82, 0
1, 134160, Note_on_c, 0, 68, 69
1, 134174, Control_c, 0, 64, 0
1, 134266, Control_c, 0, 64, 127
1, 134280, Note_on_c, 0, 68, 0
1, 134280, Note_on_c, 0, 80, 61
1, 134400, Tempo, 471884
1, 134400, Note_on_c, 0, 80, 0
1, 134400, Note_on_c, 0, 67, 74
1, 134400, Note_on_c, 0, 52, 42
1, 134400, Note_on_c, 0, 55, 42
1, 134400, Note_on_c, 0, 60, 53
1, 134408, Control_c, 0, 64, 0
1, 134509, Control_c, 0, 64, 127
1, 134520, Note_on_c, 0, 67, 0
1, 134520, Note_on_c, 0, 79, 64
1, 134640, Note_on_c, 0, 79, 0
1, 134640, Note_on_c, 0, 71, 75
1, 134655, Control_c, 0, 64, 0
1, 134749, Control_c, 0, 64, 127
1, 134760, Note_on_c, 0, 71, 0
1, 134760, Note_on_c, 0, 83, 64
1, 134880, Note_on_c, 0, 83, 0
1, 134880, Note_on_c, 0, 72, 75
1, 134895, Control_c, 0, 64, 0
1, 134972, Control_c, 0, 64, 127
1, 135000, Note_on_c, 0, 72, 0
1, 135000, Note_on_c, 0, 84, 64
1, 135120, Tempo, 492368
1, 135120, Note_on_c, 0, 84, 0
1, 135120, Note_on_c, 0, 70, 75
1, 135134, Control_c, 0, 64, 0
1, 135212, Control_c, 0, 64, 127
1, 135240, Note_on_c, 0, 70, 0
1, 135240, Note_on_c, 0, 82, 64
1, 135360, Tempo, 459735
1, 135360, Note_on_c, 0, 82, 0
1, 135360, Note_on_c, 0, 60, 0
1, 135360, Note_on_c, 0, 55, 0
1, 135360, Note_on_c, 0, 52, 0
1, 135360, Note_on_c, 0, 68, 75
1, 135360, Note_on_c, 0, 53, 45
1, 135360, Note_on_c, 0, 60, 53
1, 135367, Control_c, 0, 64, 0
1, 135406, Control_c, 0, 64, 127
1, 135480, Tempo, 463142
1, 135480, Note_on_c, 0, 68, 0
1, 135480, Note_on_c, 0, 80, 64
1, 135600, Note_on_c, 0, 80, 0
1, 135600, Note_on_c, 0, 65, 72
1, 135720, Note_on_c, 0, 65, 0
1, 135720, Note_on_c, 0, 77, 64
1, 135840, Tempo, 473672
1, 135840, Note_on_c, 0, 77, 0
1, 135840, Note_on_c, 0, 60, 0
1, 135840, Note_on_c, 0, 53, 0
1, 135840, Note_on_c, 0, 67, 74
1, 135840, Note_on_c, 0, 60, 46
1, 135840, Note_on_c, 0, 48, 39
1, 135852, Control_c, 0, 64, 0
1, 135889, Control_c, 0, 64, 127
1, 135960, Note_on_c, 0, 67, 0
1, 135960, Note_on_c, 0, 79, 64
1, 136080, Tempo, 527751
1, 136080, Note_on_c, 0, 79, 0
1, 136080, Note_on_c, 0, 64, 71
1, 136200, Note_on_c, 0, 64, 0
1, 136200, Note_on_c, 0, 76, 64
1, 136260, Note_on_c, 0, 76, 0
1, 136260, Note_on_c, 0, 65, 60
1, 136271, Control_c, 0, 64, 0
1, 136320, Tempo, 481000
1, 136320, Note_on_c, 0, 65, 0
1, 136320, Note_on_c, 0, 48, 0
1, 136320, Note_on_c, 0, 60, 0
1, 136320, Note_on_c, 0, 77, 80
1, 136320, Note_on_c, 0, 41, 45
1, 136320, Note_on_c, 0, 53, 53
1, 136507, Control_c, 0, 64, 127
1, 136800, Note_on_c, 0, 53, 0
1, 136800, Note_on_c, 0, 41, 0
1, 136800, Note_on_c, 0, 77, 0
1, 136960, Control_c, 0, 64, 0
1, 137037, Marker_t, "Teil 5 Wiederholung"
1, 137040, Tempo, 471884
1, 137040, Note_on_c, 0, 72, 53
1, 137280, Tempo, 459418
1, 137280, Note_on_c, 0, 72, 0
1, 137280, Note_on_c, 0, 77, 60
1, 137280, Note_on_c, 0, 68, 53
1, 137340, Control_c, 0, 64, 127
1, 137400, Note_on_c, 0, 77, 0
1, 137400, Note_on_c, 0, 72, 50
1, 137520, Note_on_c, 0, 72, 0
1, 137520, Note_on_c, 0, 68, 0
1, 137520, Note_on_c, 0, 76, 56
1, 137520, Note_on_c, 0, 67, 47
1, 137528, Control_c, 0, 64, 0
1, 137580, Control_c, 0, 64, 127
1, 137640, Note_on_c, 0, 76, 0
1, 137640, Note_on_c, 0, 72, 50
1, 137647, Control_c, 0, 64, 0
1, 137700, Note_on_c, 0, 67, 0
1, 137760, Note_on_c, 0, 72, 0
1, 137760, Note_on_c, 0, 77, 56
1, 137760, Note_on_c, 0, 68, 49
1, 137820, Control_c, 0, 64, 127
1, 137880, Note_on_c, 0, 77, 0
1, 137880, Note_on_c, 0, 72, 47
1, 138000, Tempo, 473335
1, 138000, Note_on_c, 0, 72, 0
1, 138000, Note_on_c, 0, 68, 0
1, 138000, Note_on_c, 0, 80, 54
1, 138000, Note_on_c, 0, 65, 45
1, 138120, Note_on_c, 0, 80, 0
1, 138120, Note_on_c, 0, 72, 48
1, 138133, Control_c, 0, 64, 0
1, 138180, Note_on_c, 0, 65, 0
1, 138210, Note_on_c, 0, 72, 0
1, 138240, Tempo, 459418
1, 138240, Note_on_c, 0, 79, 60
1, 138240, Note_on_c, 0, 64, 53
1, 138297, Control_c, 0, 64, 127
1, 138360, Note_on_c, 0, 79, 0
1, 138360, Note_on_c, 0, 72, 50
1, 138480, Note_on_c, 0, 72, 0
1, 138480, Note_on_c, 0, 83, 56
1, 138488, Control_c, 0, 64, 0
1, 138600, Note_on_c, 0, 83, 0
1, 138600, Note_on_c, 0, 72, 50
1, 138720, Note_on_c, 0, 72, 0
1, 138720, Note_on_c, 0, 64, 0
1, 138720, Note_on_c, 0, 84, 56
1, 138840, Note_on_c, 0, 84, 0
1, 138840, Note_on_c, 0, 72, 47
1, 138960, Tempo, 473335
1, 138960, Note_on_c, 0, 72, 0
1, 138960, Note_on_c, 0, 82, 54
1, 139080, Note_on_c, 0, 82, 0
1, 139080, Note_on_c, 0, 72, 48
1, 139170, Note_on_c, 0, 72, 0
1, 139200, Tempo, 459418
1, 139200, Note_on_c, 0, 80, 60
1, 139200, Note_on_c, 0, 65, 53
1, 139260, Control_c, 0, 64, 127
1, 139320, Note_on_c, 0, 80, 0
1, 139320, Note_on_c, 0, 72, 50
1, 139440, Note_on_c, 0, 72, 0
1, 139440, Note_on_c, 0, 65, 0
1, 139440, Note_on_c, 0, 79, 56
1, 139440, Note_on_c, 0, 67, 47
1, 139448, Control_c, 0, 64, 0
1, 139500, Control_c, 0, 64, 127
1, 139560, Note_on_c, 0, 79, 0
1, 139560, Note_on_c, 0, 72, 50
1, 139680, Note_on_c, 0, 72, 0
1, 139680, Note_on_c, 0, 67, 0
1, 139680, Note_on_c, 0, 77, 56
1, 139680, Note_on_c, 0, 68, 49
1, 139689, Control_c, 0, 64, 0
1, 139779, Control_c, 0, 64, 127
1, 139800, Note_on_c, 0, 77, 0
1, 139800, Note_on_c, 0, 72, 47
1, 139920, Tempo, 473335
1, 139920, Note_on_c, 0, 72, 0
1, 139920, Note_on_c, 0, 68, 0
1, 139920, Note_on_c, 0, 79, 54
1, 139936, Control_c, 0, 64, 0
1, 140005, Control_c, 0, 64, 127
1, 140040, Note_on_c, 0, 79, 0
1, 140040, Note_on_c, 0, 72, 48
1, 140130, Note_on_c, 0, 72, 0
1, 140160, Tempo, 481116
1, 140160, Note_on_c, 0, 76, 60
1, 140160, Note_on_c, 0, 60, 53
1, 140170, Control_c, 0, 64, 0
1, 140220, Control_c, 0, 64, 127
1, 140280, Note_on_c, 0, 76, 0
1, 140280, Note_on_c, 0, 72, 50
1, 140400, Note_on_c, 0, 72, 0
1, 140400, Note_on_c, 0, 60, 0
1, 140400, Note_on_c, 0, 77, 58
1, 140400, Note_on_c, 0, 62, 47
1, 140408, Control_c, 0, 64, 0
1, 140460, Control_c, 0, 64, 127
1, 140520, Note_on_c, 0, 77, 0
1, 140520, Note_on_c, 0, 72, 52
1, 140640, Tempo, 502428
1, 140640, Note_on_c, 0, 72, 0
1, 140640, Note_on_c, 0, 62, 0
1, 140640, Note_on_c, 0, 79, 56
1, 140640, Note_on_c, 0, 64, 49
1, 140649, Control_c, 0, 64, 0
1, 140739, Control_c, 0, 64, 127
1, 140880, Tempo, 475624
1, 140880, Note_on_c, 0, 64, 0
1, 140880, Note_on_c, 0, 79, 0
1, 140880, Note_on_c, 0, 72, 68
1, 140896, Control_c, 0, 64, 0
1, 140955, Control_c, 0, 64, 127
1, 141000, Note_on_c, 0, 72, 0
1, 141000, Note_on_c, 0, 84, 55
1, 141090, Note_on_c, 0, 84, 0
1, 141120, Tempo, 470109
1, 141120, Note_on_c, 0, 73, 70
1, 141120, Control_c, 0, 64, 0
1, 141240, Note_on_c, 0, 73, 0
1, 141240, Note_on_c, 0, 85, 58
1, 141240, Control_c, 0, 64, 127
1, 141360, Note_on_c, 0, 85, 0
1, 141360, Note_on_c, 0, 72, 69
1, 141367, Control_c, 0, 64, 0
1, 141473, Control_c, 0, 64, 127
1, 141480, Note_on_c, 0, 72, 0
1, 141480, Note_on_c, 0, 84, 60
1, 141600, Note_on_c, 0, 84, 0
1, 141600, Note_on_c, 0, 70, 70
1, 141619, Control_c, 0, 64, 0
1, 141706, Control_c, 0, 64, 127
1, 141720, Note_on_c, 0, 70, 0
1, 141720, Note_on_c, 0, 82, 59
1, 141840, Tempo, 492368
1, 141840, Note_on_c, 0, 82, 0
1, 141840, Note_on_c, 0, 68, 69
1, 141854, Control_c, 0, 64, 0
1, 141946, Control_c, 0, 64, 127
1, 141960, Note_on_c, 0, 68, 0
1, 141960, Note_on_c, 0, 80, 61
1, 142080, Tempo, 471884
1, 142080, Note_on_c, 0, 80, 0
1, 142080, Note_on_c, 0, 67, 74
1, 142080, Note_on_c, 0, 52, 42
1, 142080, Note_on_c, 0, 55, 42
1, 142080, Note_on_c, 0, 60, 53
1, 142088, Control_c, 0, 64, 0
1, 142189, Control_c, 0, 64, 127
1, 142200, Note_on_c, 0, 67, 0
1, 142200, Note_on_c, 0, 79, 64
1, 142320, Note_on_c, 0, 79, 0
1, 142320, Note_on_c, 0, 71, 75
1, 142335, Control_c, 0, 64, 0
1, 142429, Control_c, 0, 64, 127
1, 142440, Note_on_c, 0, 71, 0
1, 142440, Note_on_c, 0, 83, 64
1, 142560, Note_on_c, 0, 83, 0
1, 142560, Note_on_c, 0, 72, 75
1, 142575, Control_c, 0, 64, 0
1, 142652, Control_c, 0, 64, 127
1, 142680, Note_on_c, 0, 72, 0
1, 142680, Note_on_c, 0, 84, 64
1, 142800, Tempo, 492368
1, 142800, Note_on_c, 0, 84, 0
1, 142800, Note_on_c, 0, 70, 75
1, 142814, Control_c, 0, 64, 0
1, 142892, Control_c, 0, 64, 127
1, 142920, Note_on_c, 0, 70, 0
1, 142920, Note_on_c, 0, 82, 64
1, 143040, Tempo, 459735
1, 143040, Note_on_c, 0, 82, 0
1, 143040, Note_on_c, 0, 60, 0
1, 143040, Note_on_c, 0, 55, 0
1, 143040, Note_on_c, 0, 52, 0
1, 143040, Note_on_c, 0, 68, 75
1, 143040, Note_on_c, 0, 53, 45
1, 143040, Note_on_c, 0, 60, 53
1, 143047, Control_c, 0, 64, 0
1, 143086, Control_c, 0, 64, 127
1, 143160, Tempo, 463142
1, 143160, Note_on_c, 0, 68, 0
1, 143160, Note_on_c, 0, 80, 64
1, 143280, Note_on_c, 0, 80, 0
1, 143280, Note_on_c, 0, 65, 72
1, 143400, Note_on_c, 0, 65, 0
1, 143400, Note_on_c, 0, 77, 64
1, 143520, Tempo, 473672
1, 143520, Note_on_c, 0, 77, 0
1, 143520, Note_on_c, 0, 60, 0
1, 143520, Note_on_c, 0, 53, 0
1, 143520, Note_on_c, 0, 67, 74
1, 143520, Note_on_c, 0, 60, 46
1, 143520, Note_on_c, 0, 48, 39
1, 143532, Control_c, 0, 64, 0
1, 143569, Control_c, 0, 64, 127
1, 143640, Note_on_c, 0, 67, 0
1, 143640, Note_on_c, 0, 79, 64
1, 143760, Tempo, 527751
1, 143760, Note_on_c, 0, 79, 0
1, 143760, Note_on_c, 0, 64, 71
1, 143880, Note_on_c, 0, 64, 0
1, 143880, Note_on_c, 0, 76, 64
1, 143940, Note_on_c, 0, 76, 0
1, 143940, Note_on_c, 0, 65, 60
1, 143951, Control_c, 0, 64, 0
1, 144000, Tempo, 481000
1, 144000, Note_on_c, 0, 65, 0
1, 144000, Note_on_c, 0, 48, 0
1, 144000, Note_on_c, 0, 60, 0
1, 144000, Note_on_c, 0, 77, 80
1, 144000, Note_on_c, 0, 41, 45
1, 144000, Note_on_c, 0, 53, 53
1, 144187, Control_c, 0, 64, 127
1, 144480, Note_on_c, 0, 53, 0
1, 144480, Note_on_c, 0, 41, 0
1, 144480, Note_on_c, 0, 77, 0
1, 144640, Control_c, 0, 64, 0
1, 144720, Marker_t, "Teil 6"
1, 144720, Note_on_c, 0, 84, 63
1, 144960, Tempo, 459418
1, 144960, Note_on_c, 0, 84, 0
1, 144960, Note_on_c, 0, 82, 69
1, 144960, Note_on_c, 0, 64, 48
1, 145080, Note_on_c, 0, 64, 0
1, 145080, Note_on_c, 0, 72, 40
1, 145200, Note_on_c, 0, 72, 0
1, 145200, Note_on_c, 0, 82, 0
1, 145200, Note_on_c, 0, 79, 60
1, 145200, Note_on_c, 0, 64, 44
1, 145320, Note_on_c, 0, 64, 0
1, 145320, Note_on_c, 0, 72, 40
1, 145440, Note_on_c, 0, 72, 0
1, 145440, Note_on_c, 0, 79, 0
1, 145440, Note_on_c, 0, 80, 66
1, 145440, Note_on_c, 0, 65, 44
1, 145560, Note_on_c, 0, 65, 0
1, 145560, Note_on_c, 0, 72, 37
1, 145680, Tempo, 473335
1, 145680, Note_on_c, 0, 72, 0
1, 145680, Note_on_c, 0, 80, 0
1, 145680, Note_on_c, 0, 77, 57
1, 145680, Note_on_c, 0, 65, 43
1, 145800, Note_on_c, 0, 65, 0
1, 145800, Note_on_c, 0, 72, 38
1, 145890, Note_on_c, 0, 72, 0
1, 145920, Tempo, 465008
1, 145920, Note_on_c, 0, 77, 0
1, 145920, Note_on_c, 0, 76, 68
1, 145920, Note_on_c, 0, 60, 48
1, 146040, Note_on_c, 0, 60, 0
1, 146040, Note_on_c, 0, 72, 40
1, 146160, Note_on_c, 0, 72, 0
1, 146160, Note_on_c, 0, 76, 0
1, 146160, Note_on_c, 0, 77, 55
1, 146160, Note_on_c, 0, 62, 44
1, 146220, Note_on_c, 0, 77, 0
1, 146220, Note_on_c, 0, 79, 55
1, 146280, Note_on_c, 0, 79, 0
1, 146280, Note_on_c, 0, 62, 0
1, 146280, Note_on_c, 0, 77, 55
1, 146280, Note_on_c, 0, 72, 40
1, 146400, Tempo, 468494
1, 146400, Note_on_c, 0, 72, 0
1, 146400, Note_on_c, 0, 77, 0
1, 146400, Note_on_c, 0, 79, 62
1, 146400, Note_on_c, 0, 64, 44
1, 146640, Tempo, 481000
1, 146640, Note_on_c, 0, 64, 0
1, 146640, Note_on_c, 0, 79, 0
1, 146640, Note_on_c, 0, 84, 63
1, 146880, Tempo, 459418
1, 146880, Note_on_c, 0, 84, 0
1, 146880, Note_on_c, 0, 82, 69
1, 146880, Note_on_c, 0, 64, 48
1, 147000, Note_on_c, 0, 64, 0
1, 147000, Note_on_c, 0, 72, 40
1, 147120, Note_on_c, 0, 72, 0
1, 147120, Note_on_c, 0, 82, 0
1, 147120, Note_on_c, 0, 79, 60
1, 147120, Note_on_c, 0, 64, 44
1, 147240, Note_on_c, 0, 64, 0
1, 147240, Note_on_c, 0, 72, 40
1, 147360, Tempo, 470256
1, 147360, Note_on_c, 0, 72, 0
1, 147360, Note_on_c, 0, 79, 0
1, 147360, Note_on_c, 0, 80, 66
1, 147360, Note_on_c, 0, 65, 44
1, 147480, Note_on_c, 0, 65, 0
1, 147480, Note_on_c, 0, 72, 37
1, 147600, Tempo, 500417
1, 147600, Note_on_c, 0, 72, 0
1, 147600, Note_on_c, 0, 80, 0
1, 147600, Note_on_c, 0, 77, 57
1, 147600, Note_on_c, 0, 65, 43
1, 147720, Note_on_c, 0, 65, 0
1, 147720, Note_on_c, 0, 72, 38
1, 147810, Note_on_c, 0, 72, 0
1, 147840, Tempo, 516796
1, 147840, Note_on_c, 0, 77, 0
1, 147840, Note_on_c, 0, 84, 68
1, 147840, Note_on_c, 0, 60, 48
1, 147960, Note_on_c, 0, 60, 0
1, 147960, Note_on_c, 0, 64, 40
1, 148080, Note_on_c, 0, 64, 0
1, 148080, Note_on_c, 0, 67, 44
1, 148200, Note_on_c, 0, 67, 0
1, 148200, Note_on_c, 0, 72, 40
1, 148320, Tempo, 468494
1, 148320, Note_on_c, 0, 72, 0
1, 148320, Note_on_c, 0, 84, 0
1, 148320, Note_on_c, 0, 60, 44
1, 148560, Tempo, 481000
1, 148560, Note_on_c, 0, 60, 0
1, 148560, Note_on_c, 0, 84, 63
1, 148800, Tempo, 459418
1, 148800, Note_on_c, 0, 84, 0
1, 148800, Note_on_c, 0, 82, 69
1, 148800, Note_on_c, 0, 64, 48
1, 148920, Note_on_c, 0, 64, 0
1, 148920, Note_on_c, 0, 72, 40
1, 149040, Note_on_c, 0, 72, 0
1, 149040, Note_on_c, 0, 82, 0
1, 149040, Note_on_c, 0, 79, 60
1, 149040, Note_on_c, 0, 64, 44
1, 149160, Note_on_c, 0, 64, 0
1, 149160, Note_on_c, 0, 72, 40
1, 149280, Note_on_c, 0, 72, 0
1, 149280, Note_on_c, 0, 79, 0
1, 149280, Note_on_c, 0, 80, 66
1, 149280, Note_on_c, 0, 65, 44
1, 149400, Note_on_c, 0, 65, 0
1, 149400, Note_on_c, 0, 72, 37
1, 149520, Tempo, 473335
1, 149520, Note_on_c, 0, 72, 0
1, 149520, Note_on_c, 0, 80, 0
1, 149520, Note_on_c, 0, 77, 57
1, 149520, Note_on_c, 0, 65, 43
1, 149640, Note_on_c, 0, 65, 0
1, 149640, Note_on_c, 0, 72, 38
1, 149730, Note_on_c, 0, 72, 0
1, 149760, Tempo, 465008
1, 149760, Note_on_c, 0, 77, 0
1, 149760, Note_on_c, 0, 76, 68
1, 149760, Note_on_c, 0, 60, 48
1, 149880, Note_on_c, 0, 60, 0
1, 149880, Note_on_c, 0, 72, 40
1, 150000, Note_on_c, 0, 72, 0
1, 150000, Note_on_c, 0, 76, 0
1, 150000, Note_on_c, 0, 77, 55
1, 150000, Note_on_c, 0, 62, 44
1, 150060, Note_on_c, 0, 77, 0
1, 150060, Note_on_c, 0, 79, 53
1, 150120, Note_on_c, 0, 79, 0
1, 150120, Note_on_c, 0, 62, 0
1, 150120, Note_on_c, 0, 77, 55
1, 150120, Note_on_c, 0, 72, 40
1, 150240, Tempo, 468494
1, 150240, Note_on_c, 0, 72, 0
1, 150240, Note_on_c, 0, 77, 0
1, 150240, Note_on_c, 0, 79, 62
1, 150240, Note_on_c, 0, 64, 44
1, 150480, Tempo, 481000
1, 150480, Note_on_c, 0, 64, 0
1, 150480, Note_on_c, 0, 79, 0
1, 150480, Note_on_c, 0, 84, 63
1, 150720, Tempo, 459418
1, 150720, Note_on_c, 0, 84, 0
1, 150720, Note_on_c, 0, 82, 69
1, 150720, Note_on_c, 0, 64, 48
1, 150840, Note_on_c, 0, 64, 0
1, 150840, Note_on_c, 0, 72, 40
1, 150960, Note_on_c, 0, 72, 0
1, 150960, Note_on_c, 0, 82, 0
1, 150960, Note_on_c, 0, 79, 60
1, 150960, Note_on_c, 0, 64, 44
1, 151080, Note_on_c, 0, 64, 0
1, 151080, Note_on_c, 0, 72, 40
1, 151200, Tempo, 483014
1, 151200, Note_on_c, 0, 72, 0
1, 151200, Note_on_c, 0, 79, 0
1, 151200, Note_on_c, 0, 80, 66
1, 151200, Note_on_c, 0, 65, 44
1, 151320, Note_on_c, 0, 65, 0
1, 151320, Note_on_c, 0, 72, 37
1, 151440, Tempo, 537009
1, 151440, Note_on_c, 0, 72, 0
1, 151440, Note_on_c, 0, 80, 0
1, 151440, Note_on_c, 0, 77, 57
1, 151440, Note_on_c, 0, 65, 43
1, 151560, Note_on_c, 0, 65, 0
1, 151560, Note_on_c, 0, 72, 38
1, 151650, Note_on_c, 0, 72, 0
1, 151680, Tempo, 508561
1, 151680, Note_on_c, 0, 77, 0
1, 151680, Note_on_c, 0, 84, 68
1, 151680, Note_on_c, 0, 60, 48
1, 152160, Note_on_c, 0, 60, 0
1, 152160, Note_on_c, 0, 84, 0
1, 152400, Tempo, 477441
1, 152400, Note_on_c, 0, 84, 56
1, 152400, Note_on_c, 0, 80, 47
1, 152640, Tempo, 470256
1, 152640, Note_on_c, 0, 80, 0
1, 152640, Note_on_c, 0, 84, 0
1, 152640, Note_on_c, 0, 85, 57
1, 152640, Note_on_c, 0, 82, 48
1, 152880, Tempo, 472032
1, 152880, Note_on_c, 0, 82, 0
1, 152880, Note_on_c, 0, 85, 0
1, 152880, Note_on_c, 0, 84, 54
1, 152880, Note_on_c, 0, 80, 45
1, 153120, Note_on_c, 0, 80, 0
1, 153120, Note_on_c, 0, 84, 0
1, 153120, Note_on_c, 0, 82, 57
1, 153120, Note_on_c, 0, 79, 48
1, 153360, Tempo, 496442
1, 153360, Note_on_c, 0, 79, 0
1, 153360, Note_on_c, 0, 82, 0
1, 153360, Note_on_c, 0, 80, 53
1, 153360, Note_on_c, 0, 77, 45
1, 153600, Tempo, 477441
1, 153600, Note_on_c, 0, 77, 0
1, 153600, Note_on_c, 0, 80, 0
1, 153600, Note_on_c, 0, 79, 58
1, 153600, Note_on_c, 0, 76, 49
1, 153840, Tempo, 488679
1, 153840, Note_on_c, 0, 76, 0
1, 153840, Note_on_c, 0, 79, 0
1, 153840, Note_on_c, 0, 83, 52
1, 154080, Note_on_c, 0, 83, 0
1, 154080, Note_on_c, 0, 84, 52
1, 154320, Note_on_c, 0, 84, 0
1, 154320, Note_on_c, 0, 68, 63
1, 154440, Note_on_c, 0, 68, 0
1, 154440, Note_on_c, 0, 72, 53
1, 154560, Tempo, 475624
1, 154560, Note_on_c, 0, 72, 0
1, 154560, Note_on_c, 0, 70, 66
1, 154680, Note_on_c, 0, 70, 0
1, 154680, Note_on_c, 0, 73, 56
1, 154800, Note_on_c, 0, 73, 0
1, 154800, Note_on_c, 0, 68, 60
1, 154920, Note_on_c, 0, 68, 0
1, 154920, Note_on_c, 0, 72, 51
1, 155040, Tempo, 484888
1, 155040, Note_on_c, 0, 72, 0
1, 155040, Note_on_c, 0, 67, 66
1, 155160, Note_on_c, 0, 67, 0
1, 155160, Note_on_c, 0, 70, 56
1, 155280, Tempo, 492530
1, 155280, Note_on_c, 0, 70, 0
1, 155280, Note_on_c, 0, 65, 59
1, 155400, Note_on_c, 0, 65, 0
1, 155400, Note_on_c, 0, 68, 50
1, 155520, Tempo, 510638
1, 155520, Note_on_c, 0, 68, 0
1, 155520, Note_on_c, 0, 60, 58
1, 155520, Note_on_c, 0, 64, 66
1, 155640, Tempo, 479272
1, 155640, Note_on_c, 0, 67, 59
1, 155760, Note_on_c, 0, 67, 0
1, 155760, Note_on_c, 0, 68, 69
1, 155880, Note_on_c, 0, 68, 0
1, 155880, Note_on_c, 0, 67, 59
1, 156000, Note_on_c, 0, 67, 0
1, 156000, Note_on_c, 0, 64, 0
1, 156000, Note_on_c, 0, 60, 0
1, 156000, Note_on_c, 0, 72, 67
1, 156120, Note_on_c, 0, 72, 0
1, 156120, Note_on_c, 0, 70, 59
1, 156240, Note_on_c, 0, 70, 0
1, 156240, Note_on_c, 0, 68, 65
1, 156360, Tempo, 500417
1, 156360, Note_on_c, 0, 68, 0
1, 156360, Note_on_c, 0, 67, 59
1, 156480, Tempo, 510638
1, 156480, Note_on_c, 0, 67, 0
1, 156480, Note_on_c, 0, 60, 58
1, 156480, Note_on_c, 0, 65, 66
1, 156600, Tempo, 479272
1, 156600, Note_on_c, 0, 68, 59
1, 156720, Note_on_c, 0, 68, 0
1, 156720, Note_on_c, 0, 70, 69
1, 156840, Note_on_c, 0, 70, 0
1, 156840, Note_on_c, 0, 68, 59
1, 156960, Note_on_c, 0, 68, 0
1, 156960, Note_on_c, 0, 65, 0
1, 156960, Note_on_c, 0, 60, 0
1, 156960, Note_on_c, 0, 73, 67
1, 157080, Note_on_c, 0, 73, 0
1, 157080, Note_on_c, 0, 72, 59
1, 157200, Note_on_c, 0, 72, 0
1, 157200, Note_on_c, 0, 70, 65
1, 157320, Tempo, 500417
1, 157320, Note_on_c, 0, 70, 0
1, 157320, Note_on_c, 0, 68, 59
1, 157440, Tempo, 510638
1, 157440, Note_on_c, 0, 68, 0
1, 157440, Note_on_c, 0, 64, 66
1, 157440, Note_on_c, 0, 60, 58
1, 157560, Tempo, 479272
1, 157560, Note_on_c, 0, 67, 59
1, 157680, Note_on_c, 0, 67, 0
1, 157680, Note_on_c, 0, 68, 69
1, 157800, Note_on_c, 0, 68, 0
1, 157800, Note_on_c, 0, 67, 59
1, 157920, Note_on_c, 0, 67, 0
1, 157920, Note_on_c, 0, 60, 0
1, 157920, Note_on_c, 0, 64, 0
1, 157920, Note_on_c, 0, 72, 67
1, 158040, Note_on_c, 0, 72, 0
1, 158040, Note_on_c, 0, 70, 59
1, 158160, Note_on_c, 0, 70, 0
1, 158160, Note_on_c, 0, 68, 65
1, 158280, Tempo, 500417
1, 158280, Note_on_c, 0, 68, 0
1, 158280, Note_on_c, 0, 67, 59
1, 158400, Tempo, 510638
1, 158400, Note_on_c, 0, 67, 0
1, 158400, Note_on_c, 0, 65, 66
1, 158400, Note_on_c, 0, 60, 58
1, 158520, Tempo, 479272
1, 158520, Note_on_c, 0, 68, 59
1, 158640, Note_on_c, 0, 68, 0
1, 158640, Note_on_c, 0, 70, 69
1, 158760, Note_on_c, 0, 70, 0
1, 158760, Note_on_c, 0, 68, 59
1, 158880, Note_on_c, 0, 68, 0
1, 158880, Note_on_c, 0, 60, 0
1, 158880, Note_on_c, 0, 65, 0
1, 158880, Note_on_c, 0, 73, 67
1, 159000, Note_on_c, 0, 73, 0
1, 159000, Note_on_c, 0, 72, 59
1, 159120, Note_on_c, 0, 72, 0
1, 159120, Note_on_c, 0, 70, 65
1, 159240, Tempo, 500417
1, 159240, Note_on_c, 0, 70, 0
1, 159240, Note_on_c, 0, 68, 59
1, 159360, Tempo, 510638
1, 159360, Note_on_c, 0, 68, 0
1, 159360, Note_on_c, 0, 64, 66
1, 159360, Note_on_c, 0, 60, 58
1, 159480, Tempo, 479272
1, 159480, Note_on_c, 0, 67, 59
1, 159600, Note_on_c, 0, 67, 0
1, 159600, Note_on_c, 0, 68, 69
1, 159720, Note_on_c, 0, 68, 0
1, 159720, Note_on_c, 0, 67, 59
1, 159840, Note_on_c, 0, 67, 0
1, 159840, Note_on_c, 0, 60, 0
1, 159840, Note_on_c, 0, 64, 0
1, 159840, Note_on_c, 0, 72, 67
1, 159960, Note_on_c, 0, 72, 0
1, 159960, Note_on_c, 0, 70, 59
1, 160080, Note_on_c, 0, 70, 0
1, 160080, Note_on_c, 0, 68, 65
1, 160200, Tempo, 500417
1, 160200, Note_on_c, 0, 68, 0
1, 160200, Note_on_c, 0, 67, 59
1, 160320, Tempo, 510638
1, 160320, Note_on_c, 0, 67, 0
1, 160320, Note_on_c, 0, 68, 73
1, 160320, Note_on_c, 0, 62, 66
1, 160320, Note_on_c, 0, 59, 58
1, 160400, Control_c, 0, 64, 127
1, 160440, Tempo, 473821
1, 160440, Note_on_c, 0, 68, 0
1, 160440, Note_on_c, 0, 65, 65
1, 160560, Note_on_c, 0, 65, 0
1, 160560, Note_on_c, 0, 68, 75
1, 160680, Note_on_c, 0, 68, 0
1, 160680, Note_on_c, 0, 71, 66
1, 160800, Note_on_c, 0, 71, 0
1, 160800, Note_on_c, 0, 59, 0
1, 160800, Note_on_c, 0, 62, 0
1, 160800, Note_on_c, 0, 74, 75
1, 160920, Note_on_c, 0, 74, 0
1, 160920, Note_on_c, 0, 71, 67
1, 161040, Note_on_c, 0, 71, 0
1, 161040, Note_on_c, 0, 74, 74
1, 161160, Note_on_c, 0, 74, 0
1, 161160, Note_on_c, 0, 77, 69
1, 161280, Note_on_c, 0, 77, 0
1, 161280, Note_on_c, 0, 80, 78
1, 161400, Note_on_c, 0, 80, 0
1, 161400, Note_on_c, 0, 74, 69
1, 161520, Note_on_c, 0, 74, 0
1, 161520, Note_on_c, 0, 77, 80
1, 161640, Note_on_c, 0, 77, 0
1, 161640, Note_on_c, 0, 80, 70
1, 161691, Tempo, 470256
1, 161739, Tempo, 472032
1, 161760, Note_on_c, 0, 80, 0
1, 161760, Note_on_c, 0, 83, 81
1, 161787, Tempo, 473821
1, 161835, Tempo, 475624
1, 161859, Tempo, 477441
1, 161880, Note_on_c, 0, 83, 0
1, 161880, Note_on_c, 0, 77, 72
1, 161907, Tempo, 479272
1, 161955, Tempo, 481116
1, 161979, Tempo, 483014
1, 162000, Note_on_c, 0, 77, 0
1, 162000, Note_on_c, 0, 80, 86
1, 162027, Tempo, 484888
1, 162075, Tempo, 486776
1, 162099, Tempo, 488679
1, 162120, Note_on_c, 0, 80, 0
1, 162120, Note_on_c, 0, 83, 78
1, 162147, Tempo, 490597
1, 162195, Tempo, 492530
1, 162219, Tempo, 494478
1, 162240, Tempo, 472032
1, 162240, Note_on_c, 0, 83, 0
1, 162240, Note_on_c, 0, 86, 101
1, 162720, Note_on_c, 0, 86, 0
1, 162743, Control_c, 0, 64, 0
1, 164160, Tempo, 510638
1, 164160, Note_on_c, 0, 34, 43
1, 164160, Note_on_c, 0, 46, 49
1, 164212, Control_c, 0, 64, 127
1, 164280, Tempo, 479272
1, 164280, Note_on_c, 0, 64, 44
1, 164400, Note_on_c, 0, 64, 0
1, 164400, Note_on_c, 0, 67, 51
1, 164520, Note_on_c, 0, 67, 0
1, 164520, Note_on_c, 0, 70, 44
1, 164640, Note_on_c, 0, 70, 0
1, 164640, Note_on_c, 0, 46, 0
1, 164640, Note_on_c, 0, 34, 0
1, 164640, Note_on_c, 0, 73, 50
1, 164760, Note_on_c, 0, 73, 0
1, 164760, Note_on_c, 0, 64, 44
1, 164880, Note_on_c, 0, 64, 0
1, 164880, Note_on_c, 0, 67, 48
1, 165000, Note_on_c, 0, 67, 0
1, 165000, Note_on_c, 0, 70, 44
1, 165120, Note_on_c, 0, 70, 0
1, 165120, Note_on_c, 0, 73, 50
1, 165240, Note_on_c, 0, 73, 0
1, 165240, Note_on_c, 0, 64, 44
1, 165360, Note_on_c, 0, 64, 0
1, 165360, Note_on_c, 0, 67, 48
1, 165480, Note_on_c, 0, 67, 0
1, 165480, Note_on_c, 0, 70, 44
1, 165600, Note_on_c, 0, 70, 0
1, 165600, Note_on_c, 0, 73, 50
1, 165720, Note_on_c, 0, 73, 0
1, 165720, Note_on_c, 0, 64, 44
1, 165840, Note_on_c, 0, 64, 0
1, 165840, Note_on_c, 0, 67, 48
1, 165960, Tempo, 500417
1, 165960, Note_on_c, 0, 67, 0
1, 165960, Note_on_c, 0, 70, 44
1, 166080, Tempo, 510638
1, 166080, Note_on_c, 0, 70, 0
1, 166080, Note_on_c, 0, 73, 65
1, 166080, Note_on_c, 0, 31, 55
1, 166080, Note_on_c, 0, 43, 63
1, 166086, Control_c, 0, 64, 0
1, 166144, Control_c, 0, 64, 127
1, 166200, Tempo, 473821
1, 166200, Note_on_c, 0, 73, 0
1, 166200, Note_on_c, 0, 63, 57
1, 166320, Note_on_c, 0, 63, 0
1, 166320, Note_on_c, 0, 67, 66
1, 166440, Note_on_c, 0, 67, 0
1, 166440, Note_on_c, 0, 70, 57
1, 166560, Note_on_c, 0, 70, 0
1, 166560, Note_on_c, 0, 43, 0
1, 166560, Note_on_c, 0, 31, 0
1, 166560, Note_on_c, 0, 73, 65
1, 166680, Note_on_c, 0, 73, 0
1, 166680, Note_on_c, 0, 63, 57
1, 166800, Note_on_c, 0, 63, 0
1, 166800, Note_on_c, 0, 67, 62
1, 166920, Tempo, 500417
1, 166920, Note_on_c, 0, 67, 0
1, 166920, Note_on_c, 0, 70, 57
1, 167040, Tempo, 510638
1, 167040, Note_on_c, 0, 70, 0
1, 167040, Note_on_c, 0, 73, 65
1, 167160, Tempo, 483014
1, 167160, Note_on_c, 0, 73, 0
1, 167160, Note_on_c, 0, 63, 57
1, 167280, Note_on_c, 0, 63, 0
1, 167280, Note_on_c, 0, 67, 67
1, 167400, Note_on_c, 0, 67, 0
1, 167400, Note_on_c, 0, 70, 58
1, 167515, Tempo, 483014
1, 167520, Note_on_c, 0, 70, 0
1, 167520, Note_on_c, 0, 73, 74
1, 167539, Tempo, 484888
1, 167563, Tempo, 486776
1, 167587, Tempo, 488679
1, 167611, Tempo, 490597
1, 167635, Tempo, 494478
1, 167640, Note_on_c, 0, 73, 0
1, 167640, Note_on_c, 0, 63, 65
1, 167659, Tempo, 496442
1, 167683, Tempo, 498422
1, 167707, Tempo, 500417
1, 167731, Tempo, 502428
1, 167755, Tempo, 506500
1, 167760, Note_on_c, 0, 63, 0
1, 167760, Note_on_c, 0, 67, 73
1, 167779, Tempo, 508561
1, 167803, Tempo, 510638
1, 167851, Tempo, 514845
1, 167880, Tempo, 662325
1, 167880, Note_on_c, 0, 67, 0
1, 167880, Note_on_c, 0, 70, 65
1, 168000, Tempo, 508561
1, 168000, Note_on_c, 0, 70, 0
1, 168000, Note_on_c, 0, 73, 84
1, 168427, Control_c, 0, 64, 0
1, 168480, Tempo, 474421
1, 168480, Note_on_c, 0, 73, 0
1, 169680, Tempo, 443099
1, 169680, Note_on_c, 0, 72, 60
1, 169800, Note_on_c, 0, 72, 0
1, 169800, Note_on_c, 0, 73, 55
1, 169920, Tempo, 454718
1, 169920, Note_on_c, 0, 73, 0
1, 169920, Note_on_c, 0, 75, 60
1, 170010, Note_on_c, 0, 75, 0
1, 170160, Tempo, 440302
1, 170160, Note_on_c, 0, 75, 58
1, 170250, Note_on_c, 0, 75, 0
1, 170400, Tempo, 454373
1, 170400, Note_on_c, 0, 75, 64
1, 170490, Note_on_c, 0, 75, 0
1, 170640, Tempo, 475135
1, 170640, Note_on_c, 0, 80, 66
1, 170730, Note_on_c, 0, 80, 0
1, 170880, Tempo, 441534
1, 170880, Note_on_c, 0, 75, 61
1, 171120, Note_on_c, 0, 60, 51
1, 171360, Tempo, 446263
1, 171360, Note_on_c, 0, 60, 0
1, 171360, Note_on_c, 0, 58, 51
1, 171600, Tempo, 415110
1, 171600, Note_on_c, 0, 58, 0
1, 171600, Note_on_c, 0, 75, 0
1, 171600, Note_on_c, 0, 73, 57
1, 171600, Note_on_c, 0, 56, 48
1, 171720, Note_on_c, 0, 73, 0
1, 171720, Note_on_c, 0, 72, 54
1, 171840, Tempo, 459418
1, 171840, Note_on_c, 0, 72, 0
1, 171840, Note_on_c, 0, 56, 0
1, 171840, Note_on_c, 0, 55, 53
1, 172080, Note_on_c, 0, 55, 0
1, 172080, Note_on_c, 0, 70, 60
1, 172080, Note_on_c, 0, 51, 47
1, 172260, Note_on_c, 0, 51, 0
1, 172320, Note_on_c, 0, 70, 0
1, 172320, Note_on_c, 0, 56, 49
1, 172560, Tempo, 473335
1, 172560, Note_on_c, 0, 56, 0
1, 172560, Note_on_c, 0, 72, 59
1, 172560, Note_on_c, 0, 51, 45
1, 172740, Note_on_c, 0, 51, 0
1, 172800, Tempo, 438436
1, 172800, Note_on_c, 0, 72, 0
1, 172800, Note_on_c, 0, 75, 59
1, 172800, Note_on_c, 0, 58, 49
1, 173040, Tempo, 452728
1, 173040, Note_on_c, 0, 58, 0
1, 173040, Note_on_c, 0, 75, 0
1, 173040, Note_on_c, 0, 73, 51
1, 173040, Note_on_c, 0, 51, 45
1, 173100, Note_on_c, 0, 73, 0
1, 173100, Note_on_c, 0, 75, 46
1, 173160, Note_on_c, 0, 75, 0
1, 173160, Note_on_c, 0, 73, 51
1, 173220, Note_on_c, 0, 51, 0
1, 173280, Tempo, 491965
1, 173280, Note_on_c, 0, 73, 0
1, 173280, Note_on_c, 0, 72, 59
1, 173280, Note_on_c, 0, 56, 49
1, 173520, Tempo, 435382
1, 173520, Note_on_c, 0, 56, 0
1, 173520, Note_on_c, 0, 72, 0
1, 173520, Note_on_c, 0, 72, 60
1, 173640, Note_on_c, 0, 72, 0
1, 173640, Note_on_c, 0, 73, 55
1, 173760, Tempo, 451433
1, 173760, Note_on_c, 0, 73, 0
1, 173760, Note_on_c, 0, 75, 60
1, 173850, Note_on_c, 0, 75, 0
1, 174000, Tempo, 440302
1, 174000, Note_on_c, 0, 77, 61
1, 174090, Note_on_c, 0, 77, 0
1, 174240, Tempo, 451094
1, 174240, Note_on_c, 0, 79, 61
1, 174330, Note_on_c, 0, 79, 0
1, 174480, Tempo, 464540
1, 174480, Note_on_c, 0, 80, 66
1, 174570, Note_on_c, 0, 80, 0
1, 174720, Tempo, 443099
1, 174720, Note_on_c, 0, 75, 61
1, 174960, Note_on_c, 0, 60, 51
1, 175200, Tempo, 446263
1, 175200, Note_on_c, 0, 60, 0
1, 175200, Note_on_c, 0, 58, 51
1, 175440, Tempo, 415110
1, 175440, Note_on_c, 0, 58, 0
1, 175440, Note_on_c, 0, 75, 0
1, 175440, Note_on_c, 0, 73, 57
1, 175440, Note_on_c, 0, 56, 48
1, 175560, Note_on_c, 0, 73, 0
1, 175560, Note_on_c, 0, 72, 54
1, 175680, Tempo, 457701
1, 175680, Note_on_c, 0, 72, 0
1, 175680, Note_on_c, 0, 56, 0
1, 175680, Note_on_c, 0, 61, 53
1, 175920, Note_on_c, 0, 61, 0
1, 175920, Note_on_c, 0, 70, 60
1, 175920, Note_on_c, 0, 58, 47
1, 176100, Note_on_c, 0, 58, 0
1, 176160, Note_on_c, 0, 70, 0
1, 176160, Note_on_c, 0, 63, 49
1, 176400, Tempo, 473335
1, 176400, Note_on_c, 0, 63, 0
1, 176400, Note_on_c, 0, 67, 59
1, 176400, Note_on_c, 0, 51, 45
1, 176580, Note_on_c, 0, 51, 0
1, 176640, Tempo, 468019
1, 176640, Note_on_c, 0, 67, 0
1, 176640, Note_on_c, 0, 56, 50
1, 176880, Note_on_c, 0, 56, 0
1, 176880, Note_on_c, 0, 68, 60
1, 176880, Note_on_c, 0, 51, 42
1, 177120, Tempo, 482470
1, 177120, Note_on_c, 0, 51, 0
1, 177120, Note_on_c, 0, 68, 0
1, 177120, Note_on_c, 0, 44, 47
1, 177360, Tempo, 444675
1, 177360, Marker_t, "Teil 7"
1, 177360, Note_on_c, 0, 44, 0
1, 177360, Note_on_c, 0, 75, 53
1, 177600, Tempo, 444675
1, 177600, Note_on_c, 0, 75, 0
1, 177600, Note_on_c, 0, 77, 59
1, 177720, Note_on_c, 0, 77, 0
1, 177720, Note_on_c, 0, 75, 51
1, 177840, Note_on_c, 0, 75, 0
1, 177840, Note_on_c, 0, 74, 56
1, 177960, Note_on_c, 0, 74, 0
1, 177960, Note_on_c, 0, 75, 50
1, 178080, Tempo, 444675
1, 178080, Note_on_c, 0, 75, 0
1, 178080, Note_on_c, 0, 74, 56
1, 178200, Note_on_c, 0, 74, 0
1, 178200, Note_on_c, 0, 77, 55
1, 178320, Tempo, 484731
1, 178320, Note_on_c, 0, 77, 0
1, 178320, Note_on_c, 0, 80, 55
1, 178320, Note_on_c, 0, 68, 41
1, 178440, Note_on_c, 0, 80, 0
1, 178440, Note_on_c, 0, 83, 55
1, 178560, Tempo, 444675
1, 178560, Note_on_c, 0, 83, 0
1, 178560, Note_on_c, 0, 68, 0
1, 178560, Note_on_c, 0, 82, 59
1, 178560, Note_on_c, 0, 67, 45
1, 178800, Tempo, 452728
1, 178800, Note_on_c, 0, 82, 0
1, 178800, Note_on_c, 0, 75, 50
1, 178980, Note_on_c, 0, 75, 0
1, 179037, Note_on_c, 0, 67, 0
1, 179040, Tempo, 443099
1, 179040, Note_on_c, 0, 75, 56
1, 179160, Tempo, 454373
1, 179280, Tempo, 462820
1, 179280, Note_on_c, 0, 75, 0
1, 179280, Note_on_c, 0, 72, 51
1, 179520, Tempo, 444675
1, 179520, Note_on_c, 0, 72, 0
1, 179520, Note_on_c, 0, 73, 59
1, 179640, Note_on_c, 0, 73, 0
1, 179640, Note_on_c, 0, 72, 51
1, 179760, Note_on_c, 0, 72, 0
1, 179760, Note_on_c, 0, 71, 56
1, 179880, Note_on_c, 0, 71, 0
1, 179880, Note_on_c, 0, 72, 50
1, 180000, Tempo, 443099
1, 180000, Note_on_c, 0, 72, 0
1, 180000, Note_on_c, 0, 71, 56
1, 180120, Tempo, 459418
1, 180120, Note_on_c, 0, 71, 0
1, 180120, Note_on_c, 0, 74, 55
1, 180240, Tempo, 496278
1, 180240, Note_on_c, 0, 74, 0
1, 180240, Note_on_c, 0, 77, 55
1, 180240, Note_on_c, 0, 65, 41
1, 180360, Note_on_c, 0, 77, 0
1, 180360, Note_on_c, 0, 80, 55
1, 180480, Tempo, 444675
1, 180480, Note_on_c, 0, 80, 0
1, 180480, Note_on_c, 0, 65, 0
1, 180480, Note_on_c, 0, 79, 59
1, 180480, Note_on_c, 0, 63, 45
1, 180720, Note_on_c, 0, 79, 0
1, 180720, Note_on_c, 0, 72, 50
1, 180900, Note_on_c, 0, 72, 0
1, 180957, Note_on_c, 0, 63, 0
1, 180960, Tempo, 452728
1, 180960, Note_on_c, 0, 72, 56
1, 181080, Tempo, 454373
1, 181200, Tempo, 468019
1, 181200, Note_on_c, 0, 72, 0
1, 181200, Note_on_c, 0, 68, 51
1, 181440, Tempo, 444675
1, 181440, Note_on_c, 0, 68, 0
1, 181440, Note_on_c, 0, 70, 59
1, 181560, Note_on_c, 0, 70, 0
1, 181560, Note_on_c, 0, 68, 51
1, 181680, Note_on_c, 0, 68, 0
1, 181680, Note_on_c, 0, 67, 56
1, 181800, Note_on_c, 0, 67, 0
1, 181800, Note_on_c, 0, 68, 50
1, 181920, Note_on_c, 0, 68, 0
1, 181920, Note_on_c, 0, 67, 56
1, 182040, Note_on_c, 0, 67, 0
1, 182040, Note_on_c, 0, 70, 55
1, 182160, Tempo, 462820
1, 182160, Note_on_c, 0, 70, 0
1, 182160, Note_on_c, 0, 73, 55
1, 182160, Note_on_c, 0, 61, 41
1, 182280, Tempo, 488520
1, 182280, Note_on_c, 0, 73, 0
1, 182280, Note_on_c, 0, 77, 55
1, 182400, Tempo, 446263
1, 182400, Note_on_c, 0, 77, 0
1, 182400, Note_on_c, 0, 61, 0
1, 182400, Note_on_c, 0, 75, 59
1, 182400, Note_on_c, 0, 60, 45
1, 182640, Tempo, 452728
1, 182640, Note_on_c, 0, 75, 0
1, 182640, Note_on_c, 0, 68, 50
1, 182760, Tempo, 452728
1, 182820, Note_on_c, 0, 68, 0
1, 182877, Note_on_c, 0, 60, 0
1, 182880, Tempo, 446263
1, 182880, Note_on_c, 0, 68, 56
1, 183120, Tempo, 457701
1, 183120, Note_on_c, 0, 68, 0
1, 183120, Note_on_c, 0, 75, 51
1, 183360, Tempo, 446263
1, 183360, Note_on_c, 0, 75, 0
1, 183360, Note_on_c, 0, 74, 59
1, 183360, Note_on_c, 0, 58, 38
1, 183360, Note_on_c, 0, 68, 45
1, 183480, Note_on_c, 0, 74, 0
1, 183480, Note_on_c, 0, 77, 55
1, 183600, Note_on_c, 0, 77, 0
1, 183600, Note_on_c, 0, 80, 62
1, 183720, Note_on_c, 0, 80, 0
1, 183720, Note_on_c, 0, 84, 59
1, 183840, Note_on_c, 0, 84, 0
1, 183840, Note_on_c, 0, 68, 0
1, 183840, Note_on_c, 0, 58, 0
1, 183840, Note_on_c, 0, 82, 62
1, 183960, Note_on_c, 0, 82, 0
1, 183960, Note_on_c, 0, 80, 61
1, 184080, Tempo, 456031
1, 184080, Note_on_c, 0, 80, 0
1, 184080, Note_on_c, 0, 79, 56
1, 184200, Note_on_c, 0, 79, 0
1, 184200, Note_on_c, 0, 77, 50
1, 184320, Tempo, 475511
1, 184320, Note_on_c, 0, 77, 0
1, 184320, Note_on_c, 0, 75, 59
1, 184320, Note_on_c, 0, 63, 38
1, 184320, Note_on_c, 0, 67, 45
1, 184440, Tempo, 446263
1, 184440, Note_on_c, 0, 75, 0
1, 184440, Note_on_c, 0, 77, 55
1, 184560, Tempo, 445005
1, 184560, Note_on_c, 0, 77, 0
1, 184560, Note_on_c, 0, 75, 56
1, 184680, Note_on_c, 0, 75, 0
1, 184680, Note_on_c, 0, 74, 56
1, 184800, Note_on_c, 0, 74, 0
1, 184800, Note_on_c, 0, 67, 0
1, 184800, Note_on_c, 0, 63, 0
1, 184800, Note_on_c, 0, 75, 59
1, 184920, Note_on_c, 0, 75, 0
1, 184920, Note_on_c, 0, 79, 59
1, 185040, Tempo, 449472
1, 185040, Note_on_c, 0, 79, 0
1, 185040, Note_on_c, 0, 77, 54
1, 185160, Tempo, 493908
1, 185160, Note_on_c, 0, 77, 0
1, 185160, Note_on_c, 0, 75, 50
1, 185280, Tempo, 444675
1, 185280, Note_on_c, 0, 75, 0
1, 185280, Note_on_c, 0, 74, 59
1, 185280, Note_on_c, 0, 68, 45
1, 185280, Note_on_c, 0, 58, 38
1, 185400, Note_on_c, 0, 74, 0
1, 185400, Note_on_c, 0, 77, 55
1, 185520, Note_on_c, 0, 77, 0
1, 185520, Note_on_c, 0, 80, 62
1, 185640, Note_on_c, 0, 80, 0
1, 185640, Note_on_c, 0, 84, 59
1, 185760, Note_on_c, 0, 84, 0
1, 185760, Note_on_c, 0, 58, 0
1, 185760, Note_on_c, 0, 68, 0
1, 185760, Note_on_c, 0, 82, 62
1, 185880, Note_on_c, 0, 82, 0
1, 185880, Note_on_c, 0, 80, 61
1, 186000, Tempo, 447861
1, 186000, Note_on_c, 0, 80, 0
1, 186000, Note_on_c, 0, 79, 56
1, 186120, Tempo, 499833
1, 186120, Note_on_c, 0, 79, 0
1, 186120, Note_on_c, 0, 77, 50
1, 186240, Tempo, 444675
1, 186240, Note_on_c, 0, 77, 0
1, 186240, Note_on_c, 0, 75, 59
1, 186240, Note_on_c, 0, 63, 38
1, 186240, Note_on_c, 0, 67, 45
1, 186360, Tempo, 446263
1, 186360, Note_on_c, 0, 75, 0
1, 186360, Note_on_c, 0, 77, 55
1, 186480, Note_on_c, 0, 77, 0
1, 186480, Note_on_c, 0, 75, 56
1, 186600, Note_on_c, 0, 75, 0
1, 186600, Note_on_c, 0, 74, 56
1, 186720, Note_on_c, 0, 74, 0
1, 186720, Note_on_c, 0, 67, 0
1, 186720, Note_on_c, 0, 63, 0
1, 186720, Note_on_c, 0, 75, 59
1, 186840, Note_on_c, 0, 75, 0
1, 186840, Note_on_c, 0, 79, 59
1, 186960, Note_on_c, 0, 79, 0
1, 186960, Note_on_c, 0, 77, 54
1, 187080, Tempo, 491965
1, 187080, Note_on_c, 0, 77, 0
1, 187080, Note_on_c, 0, 75, 50
1, 187200, Tempo, 444675
1, 187200, Note_on_c, 0, 75, 0
1, 187200, Note_on_c, 0, 74, 59
1, 187200, Note_on_c, 0, 58, 38
1, 187200, Note_on_c, 0, 68, 45
1, 187320, Note_on_c, 0, 74, 0
1, 187320, Note_on_c, 0, 77, 55
1, 187440, Note_on_c, 0, 77, 0
1, 187440, Note_on_c, 0, 80, 62
1, 187560, Note_on_c, 0, 80, 0
1, 187560, Note_on_c, 0, 84, 59
1, 187680, Note_on_c, 0, 84, 0
1, 187680, Note_on_c, 0, 68, 0
1, 187680, Note_on_c, 0, 58, 0
1, 187680, Note_on_c, 0, 82, 62
1, 187800, Note_on_c, 0, 82, 0
1, 187800, Note_on_c, 0, 80, 61
1, 187920, Tempo, 449472
1, 187920, Note_on_c, 0, 80, 0
1, 187920, Note_on_c, 0, 79, 56
1, 188040, Tempo, 493908
1, 188040, Note_on_c, 0, 79, 0
1, 188040, Note_on_c, 0, 77, 50
1, 188160, Tempo, 444675
1, 188160, Note_on_c, 0, 77, 0
1, 188160, Note_on_c, 0, 75, 59
1, 188160, Note_on_c, 0, 63, 38
1, 188160, Note_on_c, 0, 67, 45
1, 188280, Tempo, 446263
1, 188280, Note_on_c, 0, 75, 0
1, 188280, Note_on_c, 0, 77, 50
1, 188400, Note_on_c, 0, 77, 0
1, 188400, Note_on_c, 0, 74, 56
1, 188520, Note_on_c, 0, 74, 0
1, 188520, Note_on_c, 0, 77, 50
1, 188640, Note_on_c, 0, 77, 0
1, 188640, Note_on_c, 0, 67, 0
1, 188640, Note_on_c, 0, 63, 0
1, 188640, Note_on_c, 0, 75, 56
1, 188760, Note_on_c, 0, 75, 0
1, 188760, Note_on_c, 0, 77, 51
1, 188880, Tempo, 466273
1, 188880, Note_on_c, 0, 77, 0
1, 188880, Note_on_c, 0, 74, 54
1, 189000, Note_on_c, 0, 74, 0
1, 189000, Note_on_c, 0, 77, 50
1, 189120, Note_on_c, 0, 77, 0
1, 189120, Note_on_c, 0, 75, 59
1, 189360, Note_on_c, 0, 51, 36
1, 189600, Note_on_c, 0, 51, 0
1, 189600, Note_on_c, 0, 55, 38
1, 189840, Note_on_c, 0, 55, 0
1, 189840, Note_on_c, 0, 58, 35
1, 190080, Tempo, 503905
1, 190080, Note_on_c, 0, 58, 0
1, 190080, Note_on_c, 0, 75, 0
1, 190080, Note_on_c, 0, 73, 47
1, 190080, Note_on_c, 0, 63, 36
1, 190140, Control_c, 0, 64, 127
1, 190200, Note_on_c, 0, 73, 0
1, 190200, Note_on_c, 0, 75, 40
1, 190320, Note_on_c, 0, 75, 0
1, 190320, Note_on_c, 0, 72, 44
1, 190329, Control_c, 0, 64, 0
1, 190398, Control_c, 0, 64, 127
1, 190440, Note_on_c, 0, 72, 0
1, 190440, Note_on_c, 0, 75, 40
1, 190560, Note_on_c, 0, 75, 0
1, 190560, Note_on_c, 0, 63, 0
1, 190560, Note_on_c, 0, 73, 44
1, 190577, Control_c, 0, 64, 0
1, 190645, Control_c, 0, 64, 127
1, 190680, Note_on_c, 0, 73, 0
1, 190680, Note_on_c, 0, 75, 40
1, 190800, Tempo, 529521
1, 190800, Note_on_c, 0, 75, 0
1, 190800, Note_on_c, 0, 72, 43
1, 190808, Control_c, 0, 64, 0
1, 190864, Control_c, 0, 64, 127
1, 190920, Note_on_c, 0, 72, 0
1, 190920, Note_on_c, 0, 75, 40
1, 191040, Tempo, 811140
1, 191040, Note_on_c, 0, 75, 0
1, 191040, Note_on_c, 0, 73, 47
1, 191042, Control_c, 0, 64, 0
1, 191520, Tempo, 596837
1, 191760, Tempo, 443099
1, 191760, Note_on_c, 0, 73, 0
1, 191760, Note_on_c, 0, 72, 60
1, 191880, Note_on_c, 0, 72, 0
1, 191880, Note_on_c, 0, 73, 55
1, 192000, Note_on_c, 0, 73, 0
1, 192000, Note_on_c, 0, 75, 60
1, 192090, Note_on_c, 0, 75, 0
1, 192240, Note_on_c, 0, 75, 61
1, 192330, Note_on_c, 0, 75, 0
1, 192360, Tempo, 488520
1, 192480, Tempo, 436904
1, 192480, Note_on_c, 0, 75, 63
1, 192593, Control_c, 0, 64, 127
1, 192600, Note_on_c, 0, 75, 0
1, 192600, Note_on_c, 0, 80, 58
1, 192720, Note_on_c, 0, 80, 0
1, 192720, Note_on_c, 0, 84, 66
1, 192840, Tempo, 454373
1, 192840, Note_on_c, 0, 84, 0
1, 192840, Note_on_c, 0, 80, 58
1, 192960, Tempo, 441534
1, 192960, Note_on_c, 0, 80, 0
1, 192960, Note_on_c, 0, 75, 61
1, 192960, Control_c, 0, 64, 0
1, 193200, Note_on_c, 0, 60, 51
1, 193440, Tempo, 446263
1, 193440, Note_on_c, 0, 60, 0
1, 193440, Note_on_c, 0, 58, 51
1, 193680, Tempo, 415110
1, 193680, Note_on_c, 0, 58, 0
1, 193680, Note_on_c, 0, 75, 0
1, 193680, Note_on_c, 0, 73, 57
1, 193680, Note_on_c, 0, 56, 48
1, 193800, Note_on_c, 0, 73, 0
1, 193800, Note_on_c, 0, 72, 54
1, 193920, Tempo, 459418
1, 193920, Note_on_c, 0, 72, 0
1, 193920, Note_on_c, 0, 56, 0
1, 193920, Note_on_c, 0, 55, 53
1, 194160, Note_on_c, 0, 55, 0
1, 194160, Note_on_c, 0, 70, 53
1, 194160, Note_on_c, 0, 51, 47
1, 194340, Note_on_c, 0, 51, 0
1, 194400, Tempo, 465911
1, 194400, Note_on_c, 0, 70, 0
1, 194400, Note_on_c, 0, 56, 49
1, 194640, Tempo, 473335
1, 194640, Note_on_c, 0, 56, 0
1, 194640, Note_on_c, 0, 72, 53
1, 194640, Note_on_c, 0, 51, 45
1, 194820, Note_on_c, 0, 51, 0
1, 194820, Note_on_c, 0, 72, 0
1, 194880, Tempo, 438436
1, 194880, Note_on_c, 0, 75, 59
1, 194880, Note_on_c, 0, 58, 49
1, 195120, Tempo, 452728
1, 195120, Note_on_c, 0, 58, 0
1, 195120, Note_on_c, 0, 75, 0
1, 195120, Note_on_c, 0, 73, 51
1, 195120, Note_on_c, 0, 51, 45
1, 195180, Note_on_c, 0, 73, 0
1, 195180, Note_on_c, 0, 75, 46
1, 195240, Note_on_c, 0, 75, 0
1, 195240, Note_on_c, 0, 73, 51
1, 195300, Note_on_c, 0, 51, 0
1, 195360, Tempo, 491965
1, 195360, Note_on_c, 0, 73, 0
1, 195360, Note_on_c, 0, 72, 59
1, 195360, Note_on_c, 0, 56, 49
1, 195600, Tempo, 435382
1, 195600, Note_on_c, 0, 56, 0
1, 195600, Note_on_c, 0, 72, 0
1, 195600, Note_on_c, 0, 72, 60
1, 195720, Note_on_c, 0, 72, 0
1, 195720, Note_on_c, 0, 73, 55
1, 195840, Tempo, 451433
1, 195840, Note_on_c, 0, 73, 0
1, 195840, Note_on_c, 0, 75, 60
1, 195930, Note_on_c, 0, 75, 0
1, 196080, Tempo, 438757
1, 196080, Note_on_c, 0, 77, 57
1, 196170, Note_on_c, 0, 77, 0
1, 196320, Note_on_c, 0, 79, 59
1, 196410, Note_on_c, 0, 79, 0
1, 196560, Tempo, 464540
1, 196560, Note_on_c, 0, 80, 66
1, 196650, Note_on_c, 0, 80, 0
1, 196800, Tempo, 443099
1, 196800, Note_on_c, 0, 75, 61
1, 197040, Note_on_c, 0, 60, 51
1, 197280, Tempo, 446263
1, 197280, Note_on_c, 0, 60, 0
1, 197280, Note_on_c, 0, 58, 51
1, 197520, Tempo, 415110
1, 197520, Note_on_c, 0, 58, 0
1, 197520, Note_on_c, 0, 75, 0
1, 197520, Note_on_c, 0, 73, 57
1, 197520, Note_on_c, 0, 56, 48
1, 197640, Note_on_c, 0, 73, 0
1, 197640, Note_on_c, 0, 72, 54
1, 197760, Tempo, 457701
1, 197760, Note_on_c, 0, 72, 0
1, 197760, Note_on_c, 0, 56, 0
1, 197760, Note_on_c, 0, 61, 53
1, 198000, Note_on_c, 0, 61, 0
1, 198000, Note_on_c, 0, 70, 43
1, 198000, Note_on_c, 0, 58, 47
1, 198180, Note_on_c, 0, 58, 0
1, 198180, Note_on_c, 0, 70, 0
1, 198240, Tempo, 464181
1, 198240, Note_on_c, 0, 63, 49
1, 198480, Tempo, 473335
1, 198480, Note_on_c, 0, 63, 0
1, 198480, Note_on_c, 0, 67, 50
1, 198480, Note_on_c, 0, 51, 45
1, 198660, Note_on_c, 0, 51, 0
1, 198660, Note_on_c, 0, 67, 0
1, 198720, Tempo, 468019
1, 198720, Note_on_c, 0, 56, 50
1, 198960, Note_on_c, 0, 56, 0
1, 198960, Note_on_c, 0, 68, 60
1, 198960, Note_on_c, 0, 51, 42
1, 199200, Note_on_c, 0, 51, 0
1, 199200, Note_on_c, 0, 68, 0
1, 199200, Note_on_c, 0, 44, 47
1, 199440, Tempo, 444675
1, 199440, Marker_t, "Teil 7 Wiederholung"
1, 199440, Note_on_c, 0, 44, 0
1, 199440, Note_on_c, 0, 75, 53
1, 199680, Tempo, 444675
1, 199680, Note_on_c, 0, 75, 0
1, 199680, Note_on_c, 0, 77, 59
1, 199800, Note_on_c, 0, 77, 0
1, 199800, Note_on_c, 0, 75, 51
1, 199920, Note_on_c, 0, 75, 0
1, 199920, Note_on_c, 0, 74, 56
1, 200040, Note_on_c, 0, 74, 0
1, 200040, Note_on_c, 0, 75, 50
1, 200160, Tempo, 444675
1, 200160, Note_on_c, 0, 75, 0
1, 200160, Note_on_c, 0, 74, 56
1, 200280, Note_on_c, 0, 74, 0
1, 200280, Note_on_c, 0, 77, 55
1, 200400, Tempo, 470109
1, 200400, Note_on_c, 0, 77, 0
1, 200400, Note_on_c, 0, 80, 55
1, 200400, Note_on_c, 0, 68, 41
1, 200520, Note_on_c, 0, 80, 0
1, 200520, Note_on_c, 0, 83, 55
1, 200640, Tempo, 444675
1, 200640, Note_on_c, 0, 83, 0
1, 200640, Note_on_c, 0, 68, 0
1, 200640, Note_on_c, 0, 82, 59
1, 200640, Note_on_c, 0, 67, 45
1, 200880, Tempo, 452728
1, 200880, Note_on_c, 0, 82, 0
1, 200880, Note_on_c, 0, 75, 50
1, 201060, Note_on_c, 0, 75, 0
1, 201117, Note_on_c, 0, 67, 0
1, 201120, Tempo, 443099
1, 201120, Note_on_c, 0, 75, 56
1, 201240, Tempo, 454373
1, 201360, Tempo, 462820
1, 201360, Note_on_c, 0, 75, 0
1, 201360, Note_on_c, 0, 72, 51
1, 201600, Tempo, 444675
1, 201600, Note_on_c, 0, 72, 0
1, 201600, Note_on_c, 0, 73, 59
1, 201720, Note_on_c, 0, 73, 0
1, 201720, Note_on_c, 0, 72, 51
1, 201840, Note_on_c, 0, 72, 0
1, 201840, Note_on_c, 0, 71, 56
1, 201960, Note_on_c, 0, 71, 0
1, 201960, Note_on_c, 0, 72, 50
1, 202080, Tempo, 443099
1, 202080, Note_on_c, 0, 72, 0
1, 202080, Note_on_c, 0, 71, 56
1, 202200, Tempo, 459418
1, 202200, Note_on_c, 0, 71, 0
1, 202200, Note_on_c, 0, 74, 55
1, 202320, Tempo, 473672
1, 202320, Note_on_c, 0, 74, 0
1, 202320, Note_on_c, 0, 77, 55
1, 202320, Note_on_c, 0, 65, 41
1, 202440, Tempo, 543823
1, 202440, Note_on_c, 0, 77, 0
1, 202440, Note_on_c, 0, 80, 55
1, 202560, Tempo, 444675
1, 202560, Note_on_c, 0, 80, 0
1, 202560, Note_on_c, 0, 65, 0
1, 202560, Note_on_c, 0, 79, 59
1, 202560, Note_on_c, 0, 63, 45
1, 202800, Note_on_c, 0, 79, 0
1, 202800, Note_on_c, 0, 72, 50
1, 202980, Note_on_c, 0, 72, 0
1, 203037, Note_on_c, 0, 63, 0
1, 203040, Tempo, 452728
1, 203040, Note_on_c, 0, 72, 56
1, 203160, Tempo, 454373
1, 203280, Tempo, 468019
1, 203280, Note_on_c, 0, 72, 0
1, 203280, Note_on_c, 0, 68, 51
1, 203520, Tempo, 444675
1, 203520, Note_on_c, 0, 68, 0
1, 203520, Note_on_c, 0, 70, 59
1, 203640, Note_on_c, 0, 70, 0
1, 203640, Note_on_c, 0, 68, 51
1, 203760, Note_on_c, 0, 68, 0
1, 203760, Note_on_c, 0, 67, 56
1, 203880, Note_on_c, 0, 67, 0
1, 203880, Note_on_c, 0, 68, 50
1, 204000, Note_on_c, 0, 68, 0
1, 204000, Note_on_c, 0, 67, 56
1, 204120, Note_on_c, 0, 67, 0
1, 204120, Note_on_c, 0, 70, 55
1, 204240, Tempo, 462820
1, 204240, Note_on_c, 0, 70, 0
1, 204240, Note_on_c, 0, 73, 55
1, 204240, Note_on_c, 0, 61, 41
1, 204360, Note_on_c, 0, 73, 0
1, 204360, Note_on_c, 0, 77, 55
1, 204480, Tempo, 446263
1, 204480, Note_on_c, 0, 77, 0
1, 204480, Note_on_c, 0, 61, 0
1, 204480, Note_on_c, 0, 75, 59
1, 204480, Note_on_c, 0, 60, 45
1, 204720, Tempo, 452728
1, 204720, Note_on_c, 0, 75, 0
1, 204720, Note_on_c, 0, 68, 50
1, 204840, Tempo, 452728
1, 204900, Note_on_c, 0, 68, 0
1, 204957, Note_on_c, 0, 60, 0
1, 204960, Tempo, 446263
1, 204960, Note_on_c, 0, 68, 56
1, 205200, Tempo, 457701
1, 205200, Note_on_c, 0, 68, 0
1, 205200, Note_on_c, 0, 75, 51
1, 205440, Tempo, 446263
1, 205440, Note_on_c, 0, 75, 0
1, 205440, Note_on_c, 0, 74, 59
1, 205440, Note_on_c, 0, 58, 38
1, 205440, Note_on_c, 0, 68, 45
1, 205560, Note_on_c, 0, 74, 0
1, 205560, Note_on_c, 0, 77, 55
1, 205680, Note_on_c, 0, 77, 0
1, 205680, Note_on_c, 0, 80, 62
1, 205800, Note_on_c, 0, 80, 0
1, 205800, Note_on_c, 0, 84, 59
1, 205920, Note_on_c, 0, 84, 0
1, 205920, Note_on_c, 0, 68, 0
1, 205920, Note_on_c, 0, 58, 0
1, 205920, Note_on_c, 0, 82, 62
1, 206040, Note_on_c, 0, 82, 0
1, 206040, Note_on_c, 0, 80, 61
1, 206160, Tempo, 456031
1, 206160, Note_on_c, 0, 80, 0
1, 206160, Note_on_c, 0, 79, 56
1, 206280, Note_on_c, 0, 79, 0
1, 206280, Note_on_c, 0, 77, 50
1, 206400, Tempo, 444675
1, 206400, Note_on_c, 0, 77, 0
1, 206400, Note_on_c, 0, 75, 59
1, 206400, Note_on_c, 0, 63, 38
1, 206400, Note_on_c, 0, 67, 45
1, 206520, Tempo, 446263
1, 206520, Note_on_c, 0, 75, 0
1, 206520, Note_on_c, 0, 77, 55
1, 206640, Note_on_c, 0, 77, 0
1, 206640, Note_on_c, 0, 75, 56
1, 206760, Note_on_c, 0, 75, 0
1, 206760, Note_on_c, 0, 74, 56
1, 206880, Note_on_c, 0, 74, 0
1, 206880, Note_on_c, 0, 67, 0
1, 206880, Note_on_c, 0, 63, 0
1, 206880, Note_on_c, 0, 75, 59
1, 207000, Note_on_c, 0, 75, 0
1, 207000, Note_on_c, 0, 79, 59
1, 207120, Tempo, 449472
1, 207120, Note_on_c, 0, 79, 0
1, 207120, Note_on_c, 0, 77, 54
1, 207240, Tempo, 493908
1, 207240, Note_on_c, 0, 77, 0
1, 207240, Note_on_c, 0, 75, 50
1, 207360, Tempo, 444675
1, 207360, Note_on_c, 0, 75, 0
1, 207360, Note_on_c, 0, 74, 59
1, 207360, Note_on_c, 0, 68, 45
1, 207360, Note_on_c, 0, 58, 38
1, 207480, Note_on_c, 0, 74, 0
1, 207480, Note_on_c, 0, 77, 55
1, 207600, Note_on_c, 0, 77, 0
1, 207600, Note_on_c, 0, 80, 62
1, 207720, Note_on_c, 0, 80, 0
1, 207720, Note_on_c, 0, 84, 59
1, 207840, Note_on_c, 0, 84, 0
1, 207840, Note_on_c, 0, 58, 0
1, 207840, Note_on_c, 0, 68, 0
1, 207840, Note_on_c, 0, 82, 62
1, 207960, Note_on_c, 0, 82, 0
1, 207960, Note_on_c, 0, 80, 61
1, 208080, Tempo, 447861
1, 208080, Note_on_c, 0, 80, 0
1, 208080, Note_on_c, 0, 79, 56
1, 208200, Tempo, 499833
1, 208200, Note_on_c, 0, 79, 0
1, 208200, Note_on_c, 0, 77, 50
1, 208320, Tempo, 444675
1, 208320, Note_on_c, 0, 77, 0
1, 208320, Note_on_c, 0, 75, 59
1, 208320, Note_on_c, 0, 63, 38
1, 208320, Note_on_c, 0, 67, 45
1, 208440, Tempo, 446263
1, 208440, Note_on_c, 0, 75, 0
1, 208440, Note_on_c, 0, 77, 55
1, 208560, Note_on_c, 0, 77, 0
1, 208560, Note_on_c, 0, 75, 56
1, 208680, Note_on_c, 0, 75, 0
1, 208680, Note_on_c, 0, 74, 56
1, 208800, Note_on_c, 0, 74, 0
1, 208800, Note_on_c, 0, 67, 0
1, 208800, Note_on_c, 0, 63, 0
1, 208800, Note_on_c, 0, 75, 59
1, 208920, Note_on_c, 0, 75, 0
1, 208920, Note_on_c, 0, 79, 59
1, 209040, Note_on_c, 0, 79, 0
1, 209040, Note_on_c, 0, 77, 54
1, 209160, Tempo, 491965
1, 209160, Note_on_c, 0, 77, 0
1, 209160, Note_on_c, 0, 75, 50
1, 209280, Tempo, 444675
1, 209280, Note_on_c, 0, 75, 0
1, 209280, Note_on_c, 0, 74, 59
1, 209280, Note_on_c, 0, 58, 38
1, 209280, Note_on_c, 0, 68, 45
1, 209400, Note_on_c, 0, 74, 0
1, 209400, Note_on_c, 0, 77, 55
1, 209520, Note_on_c, 0, 77, 0
1, 209520, Note_on_c, 0, 80, 62
1, 209640, Note_on_c, 0, 80, 0
1, 209640, Note_on_c, 0, 84, 59
1, 209760, Note_on_c, 0, 84, 0
1, 209760, Note_on_c, 0, 68, 0
1, 209760, Note_on_c, 0, 58, 0
1, 209760, Note_on_c, 0, 82, 62
1, 209880, Note_on_c, 0, 82, 0
1, 209880, Note_on_c, 0, 80, 61
1, 210000, Tempo, 449472
1, 210000, Note_on_c, 0, 80, 0
1, 210000, Note_on_c, 0, 79, 56
1, 210120, Tempo, 493908
1, 210120, Note_on_c, 0, 79, 0
1, 210120, Note_on_c, 0, 77, 50
1, 210240, Tempo, 444675
1, 210240, Note_on_c, 0, 77, 0
1, 210240, Note_on_c, 0, 75, 59
1, 210240, Note_on_c, 0, 63, 38
1, 210240, Note_on_c, 0, 67, 45
1, 210360, Tempo, 446263
1, 210360, Note_on_c, 0, 75, 0
1, 210360, Note_on_c, 0, 77, 50
1, 210480, Note_on_c, 0, 77, 0
1, 210480, Note_on_c, 0, 74, 56
1, 210600, Note_on_c, 0, 74, 0
1, 210600, Note_on_c, 0, 77, 50
1, 210720, Note_on_c, 0, 77, 0
1, 210720, Note_on_c, 0, 67, 0
1, 210720, Note_on_c, 0, 63, 0
1, 210720, Note_on_c, 0, 75, 56
1, 210840, Note_on_c, 0, 75, 0
1, 210840, Note_on_c, 0, 77, 51
1, 210960, Tempo, 466273
1, 210960, Note_on_c, 0, 77, 0
1, 210960, Note_on_c, 0, 74, 54
1, 211080, Note_on_c, 0, 74, 0
1, 211080, Note_on_c, 0, 77, 50
1, 211200, Note_on_c, 0, 77, 0
1, 211200, Note_on_c, 0, 75, 59
1, 211440, Note_on_c, 0, 51, 36
1, 211680, Note_on_c, 0, 51, 0
1, 211680, Note_on_c, 0, 55, 38
1, 211920, Note_on_c, 0, 55, 0
1, 211920, Note_on_c, 0, 58, 35
1, 212160, Tempo, 503905
1, 212160, Note_on_c, 0, 58, 0
1, 212160, Note_on_c, 0, 75, 0
1, 212160, Note_on_c, 0, 73, 47
1, 212160, Note_on_c, 0, 63, 36
1, 212210, Control_c, 0, 64, 127
1, 212280, Note_on_c, 0, 73, 0
1, 212280, Note_on_c, 0, 75, 40
1, 212400, Note_on_c, 0, 75, 0
1, 212400, Note_on_c, 0, 72, 44
1, 212409, Control_c, 0, 64, 0
1, 212464, Control_c, 0, 64, 127
1, 212520, Note_on_c, 0, 72, 0
1, 212520, Note_on_c, 0, 75, 40
1, 212640, Note_on_c, 0, 75, 0
1, 212640, Note_on_c, 0, 63, 0
1, 212640, Note_on_c, 0, 73, 44
1, 212654, Control_c, 0, 64, 0
1, 212739, Control_c, 0, 64, 127
1, 212760, Note_on_c, 0, 73, 0
1, 212760, Note_on_c, 0, 75, 40
1, 212880, Tempo, 529521
1, 212880, Note_on_c, 0, 75, 0
1, 212880, Note_on_c, 0, 72, 43
1, 212896, Control_c, 0, 64, 0
1, 212965, Control_c, 0, 64, 127
1, 213000, Note_on_c, 0, 72, 0
1, 213000, Note_on_c, 0, 75, 40
1, 213120, Tempo, 827244
1, 213120, Note_on_c, 0, 75, 0
1, 213120, Note_on_c, 0, 73, 47
1, 213120, Control_c, 0, 64, 0
1, 213600, Tempo, 596837
1, 213840, Tempo, 443099
1, 213840, Note_on_c, 0, 73, 0
1, 213840, Note_on_c, 0, 72, 60
1, 213960, Note_on_c, 0, 72, 0
1, 213960, Note_on_c, 0, 73, 55
1, 214080, Tempo, 445005
1, 214080, Note_on_c, 0, 73, 0
1, 214080, Note_on_c, 0, 75, 60
1, 214170, Note_on_c, 0, 75, 0
1, 214320, Tempo, 481000
1, 214320, Note_on_c, 0, 75, 61
1, 214410, Note_on_c, 0, 75, 0
1, 214560, Tempo, 436904
1, 214560, Note_on_c, 0, 75, 63
1, 214680, Note_on_c, 0, 75, 0
1, 214680, Note_on_c, 0, 80, 58
1, 214694, Control_c, 0, 64, 127
1, 214800, Note_on_c, 0, 80, 0
1, 214800, Note_on_c, 0, 84, 66
1, 214920, Tempo, 454373
1, 214920, Note_on_c, 0, 84, 0
1, 214920, Note_on_c, 0, 80, 58
1, 215040, Tempo, 441534
1, 215040, Note_on_c, 0, 80, 0
1, 215040, Note_on_c, 0, 75, 61
1, 215053, Control_c, 0, 64, 0
1, 215280, Note_on_c, 0, 60, 51
1, 215520, Tempo, 446263
1, 215520, Note_on_c, 0, 60, 0
1, 215520, Note_on_c, 0, 58, 51
1, 215760, Tempo, 415110
1, 215760, Note_on_c, 0, 58, 0
1, 215760, Note_on_c, 0, 75, 0
1, 215760, Note_on_c, 0, 73, 57
1, 215760, Note_on_c, 0, 56, 48
1, 215880, Note_on_c, 0, 73, 0
1, 215880, Note_on_c, 0, 72, 54
1, 216000, Tempo, 459418
1, 216000, Note_on_c, 0, 72, 0
1, 216000, Note_on_c, 0, 56, 0
1, 216000, Note_on_c, 0, 55, 53
1, 216240, Note_on_c, 0, 55, 0
1, 216240, Note_on_c, 0, 70, 53
1, 216240, Note_on_c, 0, 51, 47
1, 216420, Note_on_c, 0, 51, 0
1, 216480, Tempo, 465911
1, 216480, Note_on_c, 0, 70, 0
1, 216480, Note_on_c, 0, 56, 49
1, 216720, Tempo, 473335
1, 216720, Note_on_c, 0, 56, 0
1, 216720, Note_on_c, 0, 72, 53
1, 216720, Note_on_c, 0, 51, 45
1, 216900, Note_on_c, 0, 51, 0
1, 216900, Note_on_c, 0, 72, 0
1, 216960, Tempo, 438436
1, 216960, Note_on_c, 0, 75, 59
1, 216960, Note_on_c, 0, 58, 49
1, 217200, Tempo, 452728
1, 217200, Note_on_c, 0, 58, 0
1, 217200, Note_on_c, 0, 75, 0
1, 217200, Note_on_c, 0, 73, 51
1, 217200, Note_on_c, 0, 51, 45
1, 217260, Note_on_c, 0, 73, 0
1, 217260, Note_on_c, 0, 75, 46
1, 217320, Note_on_c, 0, 75, 0
1, 217320, Note_on_c, 0, 73, 51
1, 217380, Note_on_c, 0, 51, 0
1, 217440, Tempo, 491965
1, 217440, Note_on_c, 0, 73, 0
1, 217440, Note_on_c, 0, 72, 59
1, 217440, Note_on_c, 0, 56, 49
1, 217680, Tempo, 435382
1, 217680, Note_on_c, 0, 56, 0
1, 217680, Note_on_c, 0, 72, 0
1, 217680, Note_on_c, 0, 72, 60
1, 217800, Note_on_c, 0, 72, 0
1, 217800, Note_on_c, 0, 73, 55
1, 217920, Tempo, 451433
1, 217920, Note_on_c, 0, 73, 0
1, 217920, Note_on_c, 0, 75, 60
1, 218010, Note_on_c, 0, 75, 0
1, 218160, Tempo, 438757
1, 218160, Note_on_c, 0, 77, 57
1, 218250, Note_on_c, 0, 77, 0
1, 218400, Note_on_c, 0, 79, 59
1, 218490, Note_on_c, 0, 79, 0
1, 218640, Tempo, 464540
1, 218640, Note_on_c, 0, 80, 66
1, 218730, Note_on_c, 0, 80, 0
1, 218880, Tempo, 443099
1, 218880, Note_on_c, 0, 75, 61
1, 219120, Note_on_c, 0, 60, 51
1, 219360, Tempo, 446263
1, 219360, Note_on_c, 0, 60, 0
1, 219360, Note_on_c, 0, 58, 51
1, 219600, Tempo, 415110
1, 219600, Note_on_c, 0, 58, 0
1, 219600, Note_on_c, 0, 75, 0
1, 219600, Note_on_c, 0, 73, 57
1, 219600, Note_on_c, 0, 56, 48
1, 219720, Note_on_c, 0, 73, 0
1, 219720, Note_on_c, 0, 72, 54
1, 219840, Tempo, 457701
1, 219840, Note_on_c, 0, 72, 0
1, 219840, Note_on_c, 0, 56, 0
1, 219840, Note_on_c, 0, 61, 53
1, 220080, Note_on_c, 0, 61, 0
1, 220080, Note_on_c, 0, 70, 43
1, 220080, Note_on_c, 0, 58, 47
1, 220260, Note_on_c, 0, 58, 0
1, 220260, Note_on_c, 0, 70, 0
1, 220320, Tempo, 464181
1, 220320, Note_on_c, 0, 63, 49
1, 220560, Tempo, 473335
1, 220560, Note_on_c, 0, 63, 0
1, 220560, Note_on_c, 0, 67, 50
1, 220560, Note_on_c, 0, 51, 45
1, 220740, Note_on_c, 0, 51, 0
1, 220740, Note_on_c, 0, 67, 0
1, 220800, Tempo, 468019
1, 220800, Note_on_c, 0, 56, 50
1, 221040, Note_on_c, 0, 56, 0
1, 221040, Note_on_c, 0, 68, 60
1, 221040, Note_on_c, 0, 44, 42
1, 221280, Tempo, 444675
1, 221280, Marker_t, "Teil 8"
1, 221280, Note_on_c, 0, 44, 0
1, 221280, Note_on_c, 0, 68, 0
1, 221280, Note_on_c, 0, 77, 63
1, 221280, Note_on_c, 0, 61, 52
1, 221280, Note_on_c, 0, 56, 44
1, 221400, Note_on_c, 0, 56, 0
1, 221400, Note_on_c, 0, 61, 0
1, 221400, Note_on_c, 0, 77, 0
1, 221400, Note_on_c, 0, 80, 57
1, 221407, Control_c, 0, 64, 127
1, 221520, Note_on_c, 0, 80, 0
1, 221520, Note_on_c, 0, 77, 63
1, 221520, Note_on_c, 0, 61, 45
1, 221520, Note_on_c, 0, 56, 37
1, 221640, Note_on_c, 0, 56, 0
1, 221640, Note_on_c, 0, 61, 0
1, 221640, Note_on_c, 0, 77, 0
1, 221640, Note_on_c, 0, 80, 56
1, 221760, Tempo, 459418
1, 221760, Note_on_c, 0, 80, 0
1, 221760, Note_on_c, 0, 75, 63
1, 221760, Note_on_c, 0, 56, 43
1, 221760, Note_on_c, 0, 60, 51
1, 221783, Control_c, 0, 64, 0
1, 221880, Note_on_c, 0, 60, 0
1, 221880, Note_on_c, 0, 56, 0
1, 222000, Note_on_c, 0, 75, 0
1, 222000, Note_on_c, 0, 56, 36
1, 222000, Note_on_c, 0, 60, 44
1, 222120, Note_on_c, 0, 60, 0
1, 222120, Note_on_c, 0, 56, 0
1, 222240, Tempo, 444675
1, 222240, Note_on_c, 0, 73, 63
1, 222240, Note_on_c, 0, 65, 52
1, 222240, Note_on_c, 0, 56, 44
1, 222318, Control_c, 0, 64, 127
1, 222360, Note_on_c, 0, 56, 0
1, 222360, Note_on_c, 0, 65, 0
1, 222360, Note_on_c, 0, 73, 0
1, 222360, Note_on_c, 0, 80, 57
1, 222480, Note_on_c, 0, 80, 0
1, 222480, Note_on_c, 0, 73, 63
1, 222480, Note_on_c, 0, 65, 45
1, 222480, Note_on_c, 0, 56, 37
1, 222600, Note_on_c, 0, 56, 0
1, 222600, Note_on_c, 0, 65, 0
1, 222600, Note_on_c, 0, 73, 0
1, 222600, Note_on_c, 0, 80, 56
1, 222720, Tempo, 459418
1, 222720, Note_on_c, 0, 80, 0
1, 222720, Note_on_c, 0, 72, 63
1, 222720, Note_on_c, 0, 56, 43
1, 222720, Note_on_c, 0, 63, 51
1, 222728, Control_c, 0, 64, 0
1, 222840, Note_on_c, 0, 63, 0
1, 222840, Note_on_c, 0, 56, 0
1, 222960, Note_on_c, 0, 72, 0
1, 222960, Note_on_c, 0, 56, 36
1, 222960, Note_on_c, 0, 63, 44
1, 223080, Note_on_c, 0, 63, 0
1, 223080, Note_on_c, 0, 56, 0
1, 223200, Tempo, 444675
1, 223200, Note_on_c, 0, 77, 63
1, 223200, Note_on_c, 0, 61, 52
1, 223200, Note_on_c, 0, 56, 44
1, 223320, Note_on_c, 0, 56, 0
1, 223320, Note_on_c, 0, 61, 0
1, 223320, Note_on_c, 0, 77, 0
1, 223320, Note_on_c, 0, 80, 57
1, 223327, Control_c, 0, 64, 127
1, 223440, Note_on_c, 0, 80, 0
1, 223440, Note_on_c, 0, 77, 63
1, 223440, Note_on_c, 0, 61, 45
1, 223440, Note_on_c, 0, 56, 37
1, 223560, Note_on_c, 0, 56, 0
1, 223560, Note_on_c, 0, 61, 0
1, 223560, Note_on_c, 0, 77, 0
1, 223560, Note_on_c, 0, 80, 56
1, 223680, Tempo, 459418
1, 223680, Note_on_c, 0, 80, 0
1, 223680, Note_on_c, 0, 75, 63
1, 223680, Note_on_c, 0, 56, 43
1, 223680, Note_on_c, 0, 60, 51
1, 223688, Control_c, 0, 64, 0
1, 223920, Note_on_c, 0, 60, 0
1, 223920, Note_on_c, 0, 56, 0
1, 223920, Note_on_c, 0, 75, 0
1, 224160, Tempo, 446263
1, 224640, Note_on_c, 0, 50, 44
1, 224640, Note_on_c, 0, 58, 51
1, 224760, Note_on_c, 0, 70, 59
1, 224880, Note_on_c, 0, 70, 0
1, 224880, Note_on_c, 0, 69, 66
1, 225000, Tempo, 491965
1, 225000, Note_on_c, 0, 69, 0
1, 225000, Note_on_c, 0, 70, 58
1, 225120, Tempo, 461113
1, 225120, Note_on_c, 0, 70, 0
1, 225120, Note_on_c, 0, 58, 0
1, 225120, Note_on_c, 0, 50, 0
1, 225120, Note_on_c, 0, 77, 67
1, 225360, Note_on_c, 0, 77, 0
1, 225360, Note_on_c, 0, 70, 63
1, 225480, Note_on_c, 0, 70, 0
1, 225600, Tempo, 446263
1, 225600, Note_on_c, 0, 50, 44
1, 225600, Note_on_c, 0, 58, 51
1, 225720, Note_on_c, 0, 68, 59
1, 225840, Note_on_c, 0, 68, 0
1, 225840, Note_on_c, 0, 67, 66
1, 225960, Tempo, 491965
1, 225960, Note_on_c, 0, 67, 0
1, 225960, Note_on_c, 0, 68, 58
1, 226080, Tempo, 461113
1, 226080, Note_on_c, 0, 68, 0
1, 226080, Note_on_c, 0, 58, 0
1, 226080, Note_on_c, 0, 50, 0
1, 226080, Note_on_c, 0, 77, 67
1, 226320, Note_on_c, 0, 77, 0
1, 226320, Note_on_c, 0, 68, 63
1, 226440, Note_on_c, 0, 68, 0
1, 226560, Note_on_c, 0, 67, 68
1, 226560, Note_on_c, 0, 51, 48
1, 226563, Tempo, 449472
1, 226680, Note_on_c, 0, 67, 0
1, 226680, Note_on_c, 0, 75, 59
1, 226707, Tempo, 447861
1, 226800, Note_on_c, 0, 75, 0
1, 226800, Note_on_c, 0, 51, 0
1, 226800, Note_on_c, 0, 68, 65
1, 226800, Note_on_c, 0, 53, 48
1, 226851, Tempo, 446263
1, 226920, Note_on_c, 0, 68, 0
1, 226920, Note_on_c, 0, 75, 59
1, 226995, Tempo, 444675
1, 227040, Note_on_c, 0, 75, 0
1, 227040, Note_on_c, 0, 53, 0
1, 227040, Note_on_c, 0, 70, 67
1, 227040, Note_on_c, 0, 55, 48
1, 227115, Tempo, 443099
1, 227160, Note_on_c, 0, 70, 0
1, 227160, Note_on_c, 0, 75, 59
1, 227259, Tempo, 441534
1, 227280, Note_on_c, 0, 75, 0
1, 227280, Note_on_c, 0, 55, 0
1, 227280, Note_on_c, 0, 72, 67
1, 227280, Note_on_c, 0, 56, 56
1, 227400, Tempo, 488122
1, 227400, Note_on_c, 0, 72, 0
1, 227400, Note_on_c, 0, 75, 59
1, 227499, Tempo, 454373
1, 227520, Note_on_c, 0, 75, 0
1, 227520, Note_on_c, 0, 56, 0
1, 227520, Note_on_c, 0, 73, 72
1, 227520, Note_on_c, 0, 58, 61
1, 227640, Note_on_c, 0, 73, 0
1, 227640, Note_on_c, 0, 75, 59
1, 227760, Note_on_c, 0, 75, 0
1, 227760, Note_on_c, 0, 58, 0
1, 227760, Note_on_c, 0, 72, 65
1, 227760, Note_on_c, 0, 56, 51
1, 227880, Note_on_c, 0, 72, 0
1, 227880, Note_on_c, 0, 75, 59
1, 228000, Note_on_c, 0, 75, 0
1, 228000, Note_on_c, 0, 56, 0
1, 228000, Note_on_c, 0, 73, 67
1, 228000, Note_on_c, 0, 58, 58
1, 228120, Note_on_c, 0, 73, 0
1, 228120, Note_on_c, 0, 75, 59
1, 228240, Note_on_c, 0, 75, 0
1, 228240, Note_on_c, 0, 58, 0
1, 228240, Note_on_c, 0, 70, 65
1, 228240, Note_on_c, 0, 55, 51
1, 228360, Tempo, 469778
1, 228360, Note_on_c, 0, 70, 0
1, 228360, Note_on_c, 0, 75, 59
1, 228480, Note_on_c, 0, 75, 0
1, 228480, Note_on_c, 0, 55, 0
1, 228480, Note_on_c, 0, 72, 69
1, 228480, Note_on_c, 0, 56, 53
1, 228483, Tempo, 452728
1, 228537, Control_c, 0, 64, 127
1, 228600, Note_on_c, 0, 72, 0
1, 228600, Note_on_c, 0, 80, 59
1, 228627, Tempo, 451094
1, 228720, Note_on_c, 0, 80, 0
1, 228720, Note_on_c, 0, 56, 0
1, 228720, Note_on_c, 0, 73, 69
1, 228720, Note_on_c, 0, 58, 58
1, 228730, Control_c, 0, 64, 0
1, 228747, Tempo, 449472
1, 228812, Control_c, 0, 64, 127
1, 228840, Note_on_c, 0, 73, 0
1, 228840, Note_on_c, 0, 80, 60
1, 228891, Tempo, 447861
1, 228960, Note_on_c, 0, 80, 0
1, 228960, Note_on_c, 0, 58, 0
1, 228960, Note_on_c, 0, 75, 71
1, 228960, Note_on_c, 0, 60, 59
1, 228974, Control_c, 0, 64, 0
1, 229011, Tempo, 446263
1, 229031, Control_c, 0, 64, 127
1, 229080, Note_on_c, 0, 75, 0
1, 229080, Note_on_c, 0, 80, 61
1, 229155, Tempo, 444675
1, 229200, Note_on_c, 0, 80, 0
1, 229200, Note_on_c, 0, 60, 0
1, 229200, Note_on_c, 0, 77, 71
1, 229200, Note_on_c, 0, 61, 59
1, 229207, Control_c, 0, 64, 0
1, 229257, Control_c, 0, 64, 127
1, 229275, Tempo, 443099
1, 229320, Tempo, 493908
1, 229320, Note_on_c, 0, 77, 0
1, 229320, Note_on_c, 0, 80, 64
1, 229419, Tempo, 454373
1, 229440, Note_on_c, 0, 80, 0
1, 229440, Note_on_c, 0, 61, 0
1, 229440, Note_on_c, 0, 78, 73
1, 229440, Note_on_c, 0, 63, 64
1, 229452, Control_c, 0, 64, 0
1, 229497, Control_c, 0, 64, 127
1, 229560, Note_on_c, 0, 78, 0
1, 229560, Note_on_c, 0, 80, 64
1, 229680, Note_on_c, 0, 80, 0
1, 229680, Note_on_c, 0, 63, 0
1, 229680, Note_on_c, 0, 77, 69
1, 229680, Note_on_c, 0, 61, 56
1, 229689, Control_c, 0, 64, 0
1, 229743, Control_c, 0, 64, 127
1, 229800, Note_on_c, 0, 77, 0
1, 229800, Note_on_c, 0, 80, 59
1, 229920, Note_on_c, 0, 80, 0
1, 229920, Note_on_c, 0, 61, 0
1, 229920, Note_on_c, 0, 78, 73
1, 229920, Note_on_c, 0, 63, 67
1, 229937, Control_c, 0, 64, 0
1, 229983, Control_c, 0, 64, 127
1, 230040, Note_on_c, 0, 78, 0
1, 230040, Note_on_c, 0, 80, 64
1, 230160, Note_on_c, 0, 80, 0
1, 230160, Note_on_c, 0, 63, 0
1, 230160, Note_on_c, 0, 75, 67
1, 230160, Note_on_c, 0, 60, 57
1, 230172, Control_c, 0, 64, 0
1, 230212, Control_c, 0, 64, 127
1, 230280, Tempo, 484340
1, 230280, Note_on_c, 0, 75, 0
1, 230280, Note_on_c, 0, 80, 59
1, 230400, Tempo, 446263
1, 230400, Note_on_c, 0, 80, 0
1, 230400, Note_on_c, 0, 60, 0
1, 230400, Note_on_c, 0, 61, 71
1, 230407, Control_c, 0, 64, 0
1, 230506, Control_c, 0, 64, 127
1, 230520, Note_on_c, 0, 77, 68
1, 230640, Note_on_c, 0, 77, 0
1, 230640, Note_on_c, 0, 80, 75
1, 230760, Tempo, 491965
1, 230760, Note_on_c, 0, 80, 0
1, 230760, Note_on_c, 0, 77, 67
1, 230880, Tempo, 461113
1, 230880, Note_on_c, 0, 77, 0
1, 230880, Note_on_c, 0, 61, 0
1, 230880, Note_on_c, 0, 85, 80
1, 231000, Note_on_c, 0, 85, 0
1, 231000, Note_on_c, 0, 77, 66
1, 231120, Note_on_c, 0, 77, 0
1, 231120, Note_on_c, 0, 80, 73
1, 231240, Note_on_c, 0, 80, 0
1, 231240, Note_on_c, 0, 77, 66
1, 231360, Tempo, 446263
1, 231360, Note_on_c, 0, 77, 0
1, 231360, Note_on_c, 0, 68, 71
1, 231374, Control_c, 0, 64, 0
1, 231480, Note_on_c, 0, 75, 68
1, 231497, Control_c, 0, 64, 127
1, 231600, Note_on_c, 0, 75, 0
1, 231600, Note_on_c, 0, 68, 0
1, 231600, Note_on_c, 0, 85, 75
1, 231720, Tempo, 491965
1, 231720, Note_on_c, 0, 85, 0
1, 231720, Note_on_c, 0, 75, 67
1, 231840, Tempo, 446263
1, 231840, Note_on_c, 0, 75, 0
1, 231840, Note_on_c, 0, 69, 74
1, 231858, Control_c, 0, 64, 0
1, 231960, Note_on_c, 0, 75, 68
1, 231960, Control_c, 0, 64, 127
1, 232080, Note_on_c, 0, 75, 0
1, 232080, Note_on_c, 0, 69, 0
1, 232080, Note_on_c, 0, 84, 75
1, 232200, Tempo, 491965
1, 232200, Note_on_c, 0, 84, 0
1, 232200, Note_on_c, 0, 75, 67
1, 232320, Tempo, 446263
1, 232320, Note_on_c, 0, 75, 0
1, 232320, Note_on_c, 0, 70, 80
1, 232328, Control_c, 0, 64, 0
1, 232405, Control_c, 0, 64, 127
1, 232440, Note_on_c, 0, 73, 68
1, 232560, Note_on_c, 0, 73, 0
1, 232560, Note_on_c, 0, 77, 75
1, 232680, Tempo, 491965
1, 232680, Note_on_c, 0, 77, 0
1, 232680, Note_on_c, 0, 73, 67
1, 232800, Tempo, 461113
1, 232800, Note_on_c, 0, 73, 0
1, 232800, Note_on_c, 0, 70, 0
1, 232800, Note_on_c, 0, 82, 79
1, 232920, Note_on_c, 0, 82, 0
1, 232920, Note_on_c, 0, 73, 66
1, 233040, Note_on_c, 0, 73, 0
1, 233040, Note_on_c, 0, 77, 73
1, 233160, Note_on_c, 0, 77, 0
1, 233160, Note_on_c, 0, 73, 66
1, 233280, Tempo, 446263
1, 233280, Note_on_c, 0, 73, 0
1, 233280, Note_on_c, 0, 65, 71
1, 233286, Control_c, 0, 64, 0
1, 233355, Control_c, 0, 64, 127
1, 233400, Note_on_c, 0, 72, 68
1, 233520, Note_on_c, 0, 72, 0
1, 233520, Note_on_c, 0, 65, 0
1, 233520, Note_on_c, 0, 82, 75
1, 233640, Tempo, 491965
1, 233640, Note_on_c, 0, 82, 0
1, 233640, Note_on_c, 0, 72, 67
1, 233760, Tempo, 449809
1, 233760, Note_on_c, 0, 72, 0
1, 233760, Note_on_c, 0, 65, 74
1, 233772, Control_c, 0, 64, 0
1, 233846, Control_c, 0, 64, 127
1, 233880, Note_on_c, 0, 71, 68
1, 234000, Note_on_c, 0, 71, 0
1, 234000, Note_on_c, 0, 65, 0
1, 234000, Note_on_c, 0, 80, 75
1, 234120, Tempo, 491965
1, 234120, Note_on_c, 0, 80, 0
1, 234120, Note_on_c, 0, 71, 67
1, 234240, Tempo, 453070
1, 234240, Note_on_c, 0, 71, 0
1, 234240, Note_on_c, 0, 66, 71
1, 234251, Control_c, 0, 64, 0
1, 234309, Control_c, 0, 64, 127
1, 234360, Note_on_c, 0, 70, 68
1, 234480, Note_on_c, 0, 70, 0
1, 234480, Note_on_c, 0, 66, 0
1, 234480, Note_on_c, 0, 80, 75
1, 234600, Tempo, 491965
1, 234600, Note_on_c, 0, 80, 0
1, 234600, Note_on_c, 0, 70, 67
1, 234720, Tempo, 454718
1, 234720, Note_on_c, 0, 70, 0
1, 234720, Note_on_c, 0, 63, 74
1, 234731, Control_c, 0, 64, 0
1, 234800, Control_c, 0, 64, 127
1, 234840, Note_on_c, 0, 70, 68
1, 234960, Note_on_c, 0, 70, 0
1, 234960, Note_on_c, 0, 63, 0
1, 234960, Note_on_c, 0, 78, 75
1, 235080, Tempo, 491965
1, 235080, Note_on_c, 0, 78, 0
1, 235080, Note_on_c, 0, 70, 67
1, 235200, Tempo, 453070
1, 235200, Note_on_c, 0, 70, 0
1, 235200, Note_on_c, 0, 60, 71
1, 235214, Control_c, 0, 64, 0
1, 235263, Control_c, 0, 64, 127
1, 235320, Note_on_c, 0, 68, 68
1, 235440, Note_on_c, 0, 68, 0
1, 235440, Note_on_c, 0, 60, 0
1, 235440, Note_on_c, 0, 78, 75
1, 235560, Tempo, 491965
1, 235560, Note_on_c, 0, 78, 0
1, 235560, Note_on_c, 0, 68, 67
1, 235680, Tempo, 453070
1, 235680, Note_on_c, 0, 68, 0
1, 235680, Note_on_c, 0, 61, 74
1, 235700, Control_c, 0, 64, 0
1, 235772, Control_c, 0, 64, 127
1, 235800, Note_on_c, 0, 68, 68
1, 235920, Note_on_c, 0, 68, 0
1, 235920, Note_on_c, 0, 61, 0
1, 235920, Note_on_c, 0, 77, 75
1, 236040, Tempo, 491965
1, 236040, Note_on_c, 0, 77, 0
1, 236040, Note_on_c, 0, 68, 67
1, 236160, Tempo, 453070
1, 236160, Note_on_c, 0, 68, 0
1, 236160, Note_on_c, 0, 58, 71
1, 236160, Control_c, 0, 64, 0
1, 236229, Control_c, 0, 64, 127
1, 236280, Note_on_c, 0, 66, 68
1, 236400, Note_on_c, 0, 66, 0
1, 236400, Note_on_c, 0, 58, 0
1, 236400, Note_on_c, 0, 77, 75
1, 236520, Tempo, 491965
1, 236520, Note_on_c, 0, 77, 0
1, 236520, Note_on_c, 0, 66, 67
1, 236640, Tempo, 453070
1, 236640, Note_on_c, 0, 66, 0
1, 236640, Note_on_c, 0, 60, 74
1, 236651, Control_c, 0, 64, 0
1, 236732, Control_c, 0, 64, 127
1, 236760, Note_on_c, 0, 66, 68
1, 236880, Note_on_c, 0, 66, 0
1, 236880, Note_on_c, 0, 60, 0
1, 236880, Note_on_c, 0, 75, 75
1, 237000, Tempo, 491965
1, 237000, Note_on_c, 0, 75, 0
1, 237000, Note_on_c, 0, 66, 67
1, 237120, Tempo, 454718
1, 237120, Note_on_c, 0, 66, 0
1, 237120, Note_on_c, 0, 57, 71
1, 237127, Control_c, 0, 64, 0
1, 237198, Control_c, 0, 64, 127
1, 237240, Note_on_c, 0, 65, 68
1, 237360, Note_on_c, 0, 65, 0
1, 237360, Note_on_c, 0, 57, 0
1, 237360, Note_on_c, 0, 75, 74
1, 237480, Tempo, 491965
1, 237480, Note_on_c, 0, 75, 0
1, 237480, Note_on_c, 0, 65, 66
1, 237600, Tempo, 456378
1, 237600, Note_on_c, 0, 65, 0
1, 237600, Note_on_c, 0, 58, 72
1, 237610, Control_c, 0, 64, 0
1, 237699, Control_c, 0, 64, 127
1, 237720, Note_on_c, 0, 65, 66
1, 237840, Note_on_c, 0, 65, 0
1, 237840, Note_on_c, 0, 58, 0
1, 237840, Note_on_c, 0, 73, 72
1, 237960, Tempo, 491965
1, 237960, Note_on_c, 0, 73, 0
1, 237960, Note_on_c, 0, 65, 63
1, 238080, Tempo, 454718
1, 238080, Note_on_c, 0, 65, 0
1, 238080, Note_on_c, 0, 55, 67
1, 238091, Control_c, 0, 64, 0
1, 238172, Control_c, 0, 64, 127
1, 238200, Note_on_c, 0, 63, 63
1, 238320, Note_on_c, 0, 63, 0
1, 238320, Note_on_c, 0, 55, 0
1, 238320, Note_on_c, 0, 73, 69
1, 238440, Tempo, 491965
1, 238440, Note_on_c, 0, 73, 0
1, 238440, Note_on_c, 0, 63, 62
1, 238560, Tempo, 456378
1, 238560, Note_on_c, 0, 63, 0
1, 238560, Note_on_c, 0, 56, 68
1, 238574, Control_c, 0, 64, 0
1, 238652, Control_c, 0, 64, 127
1, 238680, Note_on_c, 0, 63, 62
1, 238800, Note_on_c, 0, 63, 0
1, 238800, Note_on_c, 0, 56, 0
1, 238800, Note_on_c, 0, 72, 68
1, 238920, Tempo, 491965
1, 238920, Note_on_c, 0, 72, 0
1, 238920, Note_on_c, 0, 63, 59
1, 239040, Tempo, 454718
1, 239040, Note_on_c, 0, 63, 0
1, 239040, Note_on_c, 0, 53, 63
1, 239049, Control_c, 0, 64, 0
1, 239132, Control_c, 0, 64, 127
1, 239160, Note_on_c, 0, 62, 59
1, 239280, Note_on_c, 0, 62, 0
1, 239280, Note_on_c, 0, 53, 0
1, 239280, Note_on_c, 0, 71, 66
1, 239400, Tempo, 491965
1, 239400, Note_on_c, 0, 71, 0
1, 239400, Note_on_c, 0, 62, 58
1, 239520, Tempo, 451433
1, 239520, Note_on_c, 0, 62, 0
1, 239520, Note_on_c, 0, 56, 65
1, 239640, Note_on_c, 0, 62, 59
1, 239760, Note_on_c, 0, 62, 0
1, 239760, Note_on_c, 0, 56, 0
1, 239760, Note_on_c, 0, 71, 66
1, 239880, Tempo, 491965
1, 239880, Note_on_c, 0, 71, 0
1, 239880, Note_on_c, 0, 62, 58
1, 240000, Tempo, 446263
1, 240000, Note_on_c, 0, 62, 0
1, 240000, Note_on_c, 0, 59, 62
1, 240120, Note_on_c, 0, 62, 59
1, 240240, Note_on_c, 0, 62, 0
1, 240240, Note_on_c, 0, 59, 0
1, 240240, Note_on_c, 0, 71, 66
1, 240360, Tempo, 491965
1, 240360, Note_on_c, 0, 71, 0
1, 240360, Note_on_c, 0, 62, 57
1, 240480, Tempo, 446263
1, 240480, Note_on_c, 0, 62, 0
1, 240480, Note_on_c, 0, 56, 65
1, 240600, Note_on_c, 0, 62, 58
1, 240720, Note_on_c, 0, 62, 0
1, 240720, Note_on_c, 0, 56, 0
1, 240720, Note_on_c, 0, 71, 66
1, 240840, Tempo, 491965
1, 240840, Note_on_c, 0, 71, 0
1, 240840, Note_on_c, 0, 62, 57
1, 240960, Tempo, 446263
1, 240960, Note_on_c, 0, 62, 0
1, 240960, Note_on_c, 0, 53, 62
1, 241080, Note_on_c, 0, 62, 58
1, 241200, Note_on_c, 0, 62, 0
1, 241200, Note_on_c, 0, 53, 0
1, 241200, Note_on_c, 0, 71, 65
1, 241320, Tempo, 491965
1, 241320, Note_on_c, 0, 71, 0
1, 241320, Note_on_c, 0, 62, 57
1, 241440, Tempo, 446263
1, 241440, Note_on_c, 0, 62, 0
1, 241440, Note_on_c, 0, 56, 64
1, 241560, Note_on_c, 0, 62, 58
1, 241680, Note_on_c, 0, 62, 0
1, 241680, Note_on_c, 0, 56, 0
1, 241680, Note_on_c, 0, 71, 65
1, 241800, Tempo, 491965
1, 241800, Note_on_c, 0, 71, 0
1, 241800, Note_on_c, 0, 62, 57
1, 241920, Tempo, 446263
1, 241920, Note_on_c, 0, 62, 0
1, 241920, Note_on_c, 0, 59, 61
1, 242040, Note_on_c, 0, 62, 58
1, 242160, Note_on_c, 0, 62, 0
1, 242160, Note_on_c, 0, 59, 0
1, 242160, Note_on_c, 0, 71, 65
1, 242280, Tempo, 491965
1, 242280, Note_on_c, 0, 71, 0
1, 242280, Note_on_c, 0, 62, 56
1, 242400, Tempo, 446263
1, 242400, Note_on_c, 0, 62, 0
1, 242400, Note_on_c, 0, 56, 64
1, 242520, Note_on_c, 0, 62, 57
1, 242640, Note_on_c, 0, 62, 0
1, 242640, Note_on_c, 0, 56, 0
1, 242640, Note_on_c, 0, 71, 65
1, 242760, Tempo, 540979
1, 242760, Note_on_c, 0, 71, 0
1, 242760, Note_on_c, 0, 62, 56
1, 242880, Tempo, 452728
1, 242880, Note_on_c, 0, 62, 0
1, 242880, Note_on_c, 0, 39, 48
1, 242880, Note_on_c, 0, 51, 54
1, 242889, Control_c, 0, 64, 0
1, 242965, Control_c, 0, 64, 127
1, 243000, Note_on_c, 0, 61, 51
1, 243120, Note_on_c, 0, 61, 0
1, 243120, Note_on_c, 0, 51, 0
1, 243120, Note_on_c, 0, 39, 0
1, 243120, Note_on_c, 0, 70, 57
1, 243240, Tempo, 491965
1, 243240, Note_on_c, 0, 70, 0
1, 243240, Note_on_c, 0, 61, 49
1, 243360, Tempo, 452728
1, 243360, Note_on_c, 0, 61, 0
1, 243360, Note_on_c, 0, 55, 56
1, 243480, Note_on_c, 0, 61, 50
1, 243600, Note_on_c, 0, 61, 0
1, 243600, Note_on_c, 0, 55, 0
1, 243600, Note_on_c, 0, 70, 57
1, 243720, Tempo, 491965
1, 243720, Note_on_c, 0, 70, 0
1, 243720, Note_on_c, 0, 61, 49
1, 243840, Tempo, 456031
1, 243840, Note_on_c, 0, 61, 0
1, 243840, Note_on_c, 0, 58, 54
1, 243960, Note_on_c, 0, 61, 50
1, 244080, Note_on_c, 0, 61, 0
1, 244080, Note_on_c, 0, 58, 0
1, 244080, Note_on_c, 0, 70, 57
1, 244200, Tempo, 491965
1, 244200, Note_on_c, 0, 70, 0
1, 244200, Note_on_c, 0, 61, 49
1, 244320, Tempo, 457701
1, 244320, Note_on_c, 0, 61, 0
1, 244320, Note_on_c, 0, 55, 55
1, 244440, Note_on_c, 0, 61, 50
1, 244560, Note_on_c, 0, 61, 0
1, 244560, Note_on_c, 0, 55, 0
1, 244560, Note_on_c, 0, 70, 56
1, 244680, Tempo, 491965
1, 244680, Note_on_c, 0, 70, 0
1, 244680, Note_on_c, 0, 61, 49
1, 244800, Tempo, 459418
1, 244800, Note_on_c, 0, 61, 0
1, 244800, Note_on_c, 0, 39, 47
1, 244800, Note_on_c, 0, 51, 53
1, 244920, Note_on_c, 0, 61, 49
1, 245040, Note_on_c, 0, 61, 0
1, 245040, Note_on_c, 0, 51, 0
1, 245040, Note_on_c, 0, 39, 0
1, 245040, Note_on_c, 0, 70, 54
1, 245160, Tempo, 514271
1, 245160, Note_on_c, 0, 70, 0
1, 245160, Note_on_c, 0, 61, 47
1, 245280, Tempo, 462820
1, 245280, Note_on_c, 0, 61, 0
1, 245280, Note_on_c, 0, 55, 52
1, 245400, Note_on_c, 0, 61, 46
1, 245520, Note_on_c, 0, 61, 0
1, 245520, Note_on_c, 0, 55, 0
1, 245520, Note_on_c, 0, 70, 52
1, 245640, Tempo, 527287
1, 245640, Note_on_c, 0, 70, 0
1, 245640, Note_on_c, 0, 61, 44
1, 245760, Tempo, 480615
1, 245760, Note_on_c, 0, 61, 0
1, 245760, Note_on_c, 0, 58, 47
1, 245880, Note_on_c, 0, 61, 44
1, 246000, Note_on_c, 0, 61, 0
1, 246000, Note_on_c, 0, 58, 0
1, 246000, Note_on_c, 0, 70, 49
1, 246120, Tempo, 520698
1, 246120, Note_on_c, 0, 70, 0
1, 246120, Note_on_c, 0, 61, 42
1, 246219, Tempo, 495499
1, 246240, Note_on_c, 0, 61, 0
1, 246240, Note_on_c, 0, 55, 47
1, 246243, Tempo, 497471
1, 246267, Tempo, 501463
1, 246291, Tempo, 505519
1, 246315, Tempo, 507571
1, 246339, Tempo, 511727
1, 246360, Note_on_c, 0, 61, 42
1, 246363, Tempo, 515952
1, 246387, Tempo, 520246
1, 246411, Tempo, 522421
1, 246435, Tempo, 526824
1, 246459, Tempo, 531350
1, 246480, Note_on_c, 0, 61, 0
1, 246480, Note_on_c, 0, 55, 0
1, 246480, Note_on_c, 0, 70, 47
1, 246483, Tempo, 533618
1, 246507, Tempo, 538213
1, 246531, Tempo, 542888
1, 246555, Tempo, 547645
1, 246600, Tempo, 800320
1, 246600, Note_on_c, 0, 70, 0
1, 246600, Note_on_c, 0, 61, 40
1, 246720, Tempo, 1032347
1, 246720, Note_on_c, 0, 61, 0
1, 246720, Note_on_c, 0, 39, 38
1, 246720, Note_on_c, 0, 51, 43
1, 246960, Note_on_c, 0, 51, 0
1, 246960, Note_on_c, 0, 39, 0
1, 247116, Control_c, 0, 64, 0
1, 247440, Tempo, 443099
1, 247440, Note_on_c, 0, 60, 51
1, 247560, Note_on_c, 0, 60, 0
1, 247560, Note_on_c, 0, 61, 46
1, 247680, Note_on_c, 0, 61, 0
1, 247680, Note_on_c, 0, 63, 51
1, 247770, Note_on_c, 0, 63, 0
1, 247920, Note_on_c, 0, 63, 51
1, 248010, Note_on_c, 0, 63, 0
1, 248160, Tempo, 457701
1, 248160, Note_on_c, 0, 63, 53
1, 248250, Note_on_c, 0, 63, 0
1, 248400, Tempo, 475135
1, 248400, Note_on_c, 0, 68, 58
1, 248490, Note_on_c, 0, 68, 0
1, 248640, Tempo, 441534
1, 248640, Note_on_c, 0, 63, 51
1, 248880, Note_on_c, 0, 48, 43
1, 249120, Tempo, 446263
1, 249120, Note_on_c, 0, 48, 0
1, 249120, Note_on_c, 0, 46, 43
1, 249360, Tempo, 415110
1, 249360, Note_on_c, 0, 46, 0
1, 249360, Note_on_c, 0, 63, 0
1, 249360, Note_on_c, 0, 61, 48
1, 249360, Note_on_c, 0, 44, 40
1, 249480, Note_on_c, 0, 61, 0
1, 249480, Note_on_c, 0, 60, 45
1, 249600, Tempo, 459418
1, 249600, Note_on_c, 0, 60, 0
1, 249600, Note_on_c, 0, 44, 0
1, 249600, Note_on_c, 0, 58, 51
1, 249600, Note_on_c, 0, 43, 45
1, 249840, Note_on_c, 0, 43, 0
1, 249840, Note_on_c, 0, 39, 39
1, 250020, Note_on_c, 0, 39, 0
1, 250080, Note_on_c, 0, 58, 0
1, 250080, Note_on_c, 0, 60, 50
1, 250080, Note_on_c, 0, 44, 41
1, 250320, Tempo, 473335
1, 250320, Note_on_c, 0, 44, 0
1, 250320, Note_on_c, 0, 39, 38
1, 250500, Note_on_c, 0, 39, 0
1, 250560, Tempo, 438436
1, 250560, Note_on_c, 0, 60, 0
1, 250560, Note_on_c, 0, 63, 50
1, 250560, Note_on_c, 0, 46, 41
1, 250800, Tempo, 452728
1, 250800, Note_on_c, 0, 46, 0
1, 250800, Note_on_c, 0, 63, 0
1, 250800, Note_on_c, 0, 61, 43
1, 250800, Note_on_c, 0, 39, 38
1, 250860, Note_on_c, 0, 61, 0
1, 250860, Note_on_c, 0, 63, 39
1, 250920, Note_on_c, 0, 63, 0
1, 250920, Note_on_c, 0, 61, 43
1, 250980, Note_on_c, 0, 39, 0
1, 251040, Tempo, 491965
1, 251040, Note_on_c, 0, 61, 0
1, 251040, Note_on_c, 0, 60, 50
1, 251040, Note_on_c, 0, 44, 41
1, 251280, Tempo, 435382
1, 251280, Note_on_c, 0, 44, 0
1, 251280, Note_on_c, 0, 60, 0
1, 251280, Note_on_c, 0, 60, 51
1, 251400, Note_on_c, 0, 60, 0
1, 251400, Note_on_c, 0, 61, 46
1, 251520, Tempo, 446595
1, 251520, Note_on_c, 0, 61, 0
1, 251520, Note_on_c, 0, 63, 51
1, 251610, Note_on_c, 0, 63, 0
1, 251760, Tempo, 440302
1, 251760, Note_on_c, 0, 63, 50
1, 251850, Note_on_c, 0, 63, 0
1, 252000, Tempo, 447861
1, 252000, Note_on_c, 0, 63, 54
1, 252090, Note_on_c, 0, 63, 0
1, 252240, Tempo, 464540
1, 252240, Note_on_c, 0, 68, 56
1, 252330, Note_on_c, 0, 68, 0
1, 252480, Tempo, 443099
1, 252480, Note_on_c, 0, 63, 51
1, 252720, Note_on_c, 0, 48, 43
1, 252960, Tempo, 446263
1, 252960, Note_on_c, 0, 48, 0
1, 252960, Note_on_c, 0, 46, 43
1, 253200, Tempo, 415110
1, 253200, Note_on_c, 0, 46, 0
1, 253200, Note_on_c, 0, 63, 0
1, 253200, Note_on_c, 0, 61, 48
1, 253200, Note_on_c, 0, 44, 40
1, 253320, Note_on_c, 0, 61, 0
1, 253320, Note_on_c, 0, 60, 45
1, 253440, Tempo, 457701
1, 253440, Note_on_c, 0, 60, 0
1, 253440, Note_on_c, 0, 44, 0
1, 253440, Note_on_c, 0, 58, 51
1, 253440, Note_on_c, 0, 49, 45
1, 253680, Note_on_c, 0, 49, 0
1, 253680, Note_on_c, 0, 58, 0
1, 253680, Note_on_c, 0, 61, 43
1, 253680, Note_on_c, 0, 46, 39
1, 253860, Note_on_c, 0, 46, 0
1, 253860, Note_on_c, 0, 61, 0
1, 253920, Note_on_c, 0, 55, 50
1, 253920, Note_on_c, 0, 51, 41
1, 254160, Tempo, 473335
1, 254160, Note_on_c, 0, 51, 0
1, 254160, Note_on_c, 0, 55, 0
1, 254160, Note_on_c, 0, 58, 42
1, 254160, Note_on_c, 0, 39, 38
1, 254340, Note_on_c, 0, 39, 0
1, 254340, Note_on_c, 0, 58, 0
1, 254400, Tempo, 468019
1, 254400, Note_on_c, 0, 56, 51
1, 254400, Note_on_c, 0, 44, 42
1, 254640, Note_on_c, 0, 44, 0
1, 254640, Note_on_c, 0, 39, 35
1, 254880, Note_on_c, 0, 39, 0
1, 254880, Note_on_c, 0, 56, 0
1, 254880, Note_on_c, 0, 32, 39
1, 255120, Tempo, 443099
1, 255120, Note_on_c, 0, 32, 0
1, 255120, Note_on_c, 0, 72, 63
1, 255240, Note_on_c, 0, 72, 0
1, 255240, Note_on_c, 0, 73, 57
1, 255360, Note_on_c, 0, 73, 0
1, 255360, Note_on_c, 0, 75, 63
1, 255450, Note_on_c, 0, 75, 0
1, 255600, Note_on_c, 0, 75, 64
1, 255690, Note_on_c, 0, 75, 0
1, 255840, Tempo, 457701
1, 255840, Note_on_c, 0, 75, 66
1, 255930, Note_on_c, 0, 75, 0
1, 256080, Tempo, 475135
1, 256080, Note_on_c, 0, 87, 82
1, 256170, Note_on_c, 0, 87, 0
1, 256320, Tempo, 441534
1, 256320, Note_on_c, 0, 75, 64
1, 256560, Note_on_c, 0, 60, 53
1, 256800, Tempo, 446263
1, 256800, Note_on_c, 0, 60, 0
1, 256800, Note_on_c, 0, 58, 53
1, 257040, Tempo, 415110
1, 257040, Note_on_c, 0, 58, 0
1, 257040, Note_on_c, 0, 75, 0
1, 257040, Note_on_c, 0, 73, 59
1, 257040, Note_on_c, 0, 56, 50
1, 257160, Note_on_c, 0, 73, 0
1, 257160, Note_on_c, 0, 72, 56
1, 257280, Tempo, 459418
1, 257280, Note_on_c, 0, 72, 0
1, 257280, Note_on_c, 0, 56, 0
1, 257280, Note_on_c, 0, 70, 68
1, 257280, Note_on_c, 0, 55, 55
1, 257520, Tempo, 456378
1, 257520, Note_on_c, 0, 55, 0
1, 257520, Note_on_c, 0, 70, 0
1, 257520, Note_on_c, 0, 87, 74
1, 257520, Note_on_c, 0, 51, 49
1, 257700, Note_on_c, 0, 51, 0
1, 257760, Note_on_c, 0, 87, 0
1, 257760, Note_on_c, 0, 72, 66
1, 257760, Note_on_c, 0, 56, 51
1, 258000, Tempo, 473335
1, 258000, Note_on_c, 0, 56, 0
1, 258000, Note_on_c, 0, 72, 0
1, 258000, Note_on_c, 0, 87, 71
1, 258000, Note_on_c, 0, 51, 47
1, 258180, Note_on_c, 0, 51, 0
1, 258240, Tempo, 438436
1, 258240, Note_on_c, 0, 87, 0
1, 258240, Note_on_c, 0, 75, 61
1, 258240, Note_on_c, 0, 58, 51
1, 258480, Tempo, 452728
1, 258480, Note_on_c, 0, 58, 0
1, 258480, Note_on_c, 0, 75, 0
1, 258480, Note_on_c, 0, 73, 53
1, 258480, Note_on_c, 0, 51, 47
1, 258540, Note_on_c, 0, 73, 0
1, 258540, Note_on_c, 0, 75, 48
1, 258600, Note_on_c, 0, 75, 0
1, 258600, Note_on_c, 0, 73, 53
1, 258660, Note_on_c, 0, 51, 0
1, 258720, Tempo, 491965
1, 258720, Note_on_c, 0, 73, 0
1, 258720, Note_on_c, 0, 72, 61
1, 258720, Note_on_c, 0, 56, 51
1, 258960, Tempo, 435382
1, 258960, Note_on_c, 0, 56, 0
1, 258960, Note_on_c, 0, 72, 0
1, 258960, Note_on_c, 0, 72, 63
1, 259080, Note_on_c, 0, 72, 0
1, 259080, Note_on_c, 0, 73, 57
1, 259200, Tempo, 446595
1, 259200, Note_on_c, 0, 73, 0
1, 259200, Note_on_c, 0, 75, 63
1, 259290, Note_on_c, 0, 75, 0
1, 259440, Tempo, 440302
1, 259440, Note_on_c, 0, 75, 61
1, 259530, Note_on_c, 0, 75, 0
1, 259680, Tempo, 447861
1, 259680, Note_on_c, 0, 75, 67
1, 259770, Note_on_c, 0, 75, 0
1, 259920, Tempo, 464540
1, 259920, Note_on_c, 0, 87, 82
1, 260010, Note_on_c, 0, 87, 0
1, 260160, Tempo, 443099
1, 260160, Note_on_c, 0, 75, 64
1, 260400, Note_on_c, 0, 60, 53
1, 260640, Tempo, 446263
1, 260640, Note_on_c, 0, 60, 0
1, 260640, Note_on_c, 0, 58, 53
1, 260880, Tempo, 415110
1, 260880, Note_on_c, 0, 58, 0
1, 260880, Note_on_c, 0, 75, 0
1, 260880, Note_on_c, 0, 73, 59
1, 260880, Note_on_c, 0, 56, 50
1, 261000, Note_on_c, 0, 73, 0
1, 261000, Note_on_c, 0, 72, 56
1, 261120, Tempo, 457701
1, 261120, Note_on_c, 0, 72, 0
1, 261120, Note_on_c, 0, 56, 0
1, 261120, Note_on_c, 0, 70, 63
1, 261120, Note_on_c, 0, 61, 55
1, 261360, Note_on_c, 0, 61, 0
1, 261360, Note_on_c, 0, 70, 0
1, 261360, Note_on_c, 0, 85, 69
1, 261360, Note_on_c, 0, 58, 49
1, 261540, Note_on_c, 0, 58, 0
1, 261540, Note_on_c, 0, 85, 0
1, 261600, Note_on_c, 0, 67, 61
1, 261600, Note_on_c, 0, 63, 51
1, 261840, Tempo, 473335
1, 261840, Note_on_c, 0, 63, 0
1, 261840, Note_on_c, 0, 67, 0
1, 261840, Note_on_c, 0, 70, 52
1, 261840, Note_on_c, 0, 51, 47
1, 262020, Note_on_c, 0, 51, 0
1, 262020, Note_on_c, 0, 70, 0
1, 262080, Tempo, 468019
1, 262080, Note_on_c, 0, 68, 63
1, 262080, Note_on_c, 0, 56, 52
1, 262320, Note_on_c, 0, 56, 0
1, 262320, Note_on_c, 0, 51, 44
1, 262560, Note_on_c, 0, 51, 0
1, 262560, Note_on_c, 0, 68, 0
1, 262560, Note_on_c, 0, 44, 49
1, 262800, Tempo, 444675
1, 262800, Marker_t, "Teil 9"
1, 262800, Note_on_c, 0, 44, 0
1, 262800, Note_on_c, 0, 75, 53
1, 263040, Tempo, 444675
1, 263040, Note_on_c, 0, 75, 0
1, 263040, Note_on_c, 0, 77, 59
1, 263280, Note_on_c, 0, 77, 0
1, 263280, Note_on_c, 0, 75, 56
1, 263520, Tempo, 457701
1, 263520, Note_on_c, 0, 75, 0
1, 263520, Note_on_c, 0, 74, 56
1, 263700, Note_on_c, 0, 74, 0
1, 263760, Tempo, 449809
1, 263760, Note_on_c, 0, 83, 62
1, 263760, Note_on_c, 0, 68, 34
1, 263760, Note_on_c, 0, 74, 41
1, 264000, Tempo, 444675
1, 264000, Note_on_c, 0, 74, 0
1, 264000, Note_on_c, 0, 68, 0
1, 264000, Note_on_c, 0, 75, 45
1, 264000, Note_on_c, 0, 67, 38
1, 264239, Note_on_c, 0, 75, 0
1, 264240, Note_on_c, 0, 67, 0
1, 264240, Note_on_c, 0, 83, 0
1, 264240, Note_on_c, 0, 81, 53
1, 264480, Tempo, 452728
1, 264480, Note_on_c, 0, 81, 0
1, 264480, Note_on_c, 0, 82, 53
1, 264600, Tempo, 454373
1, 264720, Tempo, 433871
1, 264720, Note_on_c, 0, 82, 0
1, 264720, Note_on_c, 0, 72, 59
1, 264960, Tempo, 441534
1, 264960, Note_on_c, 0, 72, 0
1, 264960, Note_on_c, 0, 73, 61
1, 265200, Note_on_c, 0, 73, 0
1, 265200, Note_on_c, 0, 72, 55
1, 265440, Tempo, 454373
1, 265440, Note_on_c, 0, 72, 0
1, 265440, Note_on_c, 0, 71, 55
1, 265620, Note_on_c, 0, 71, 0
1, 265680, Tempo, 461432
1, 265680, Note_on_c, 0, 80, 63
1, 265680, Note_on_c, 0, 65, 34
1, 265680, Note_on_c, 0, 71, 41
1, 265920, Tempo, 441534
1, 265920, Note_on_c, 0, 71, 0
1, 265920, Note_on_c, 0, 65, 0
1, 265920, Note_on_c, 0, 72, 45
1, 265920, Note_on_c, 0, 63, 38
1, 266160, Note_on_c, 0, 80, 0
1, 266160, Note_on_c, 0, 78, 53
1, 266397, Note_on_c, 0, 72, 0
1, 266400, Tempo, 451094
1, 266400, Note_on_c, 0, 78, 0
1, 266400, Note_on_c, 0, 63, 0
1, 266400, Note_on_c, 0, 79, 53
1, 266520, Note_on_c, 0, 79, 0
1, 266640, Tempo, 432370
1, 266640, Note_on_c, 0, 68, 59
1, 266880, Tempo, 441534
1, 266880, Note_on_c, 0, 68, 0
1, 266880, Note_on_c, 0, 70, 61
1, 267120, Tempo, 444675
1, 267120, Note_on_c, 0, 70, 0
1, 267120, Note_on_c, 0, 68, 53
1, 267360, Tempo, 462463
1, 267360, Note_on_c, 0, 68, 0
1, 267360, Note_on_c, 0, 67, 53
1, 267540, Note_on_c, 0, 67, 0
1, 267600, Tempo, 453070
1, 267600, Note_on_c, 0, 77, 63
1, 267600, Note_on_c, 0, 61, 34
1, 267600, Note_on_c, 0, 67, 41
1, 267840, Tempo, 441534
1, 267840, Note_on_c, 0, 67, 0
1, 267840, Note_on_c, 0, 61, 0
1, 267840, Note_on_c, 0, 68, 45
1, 267840, Note_on_c, 0, 60, 38
1, 268080, Note_on_c, 0, 77, 0
1, 268080, Note_on_c, 0, 74, 56
1, 268318, Note_on_c, 0, 68, 0
1, 268320, Tempo, 454373
1, 268320, Note_on_c, 0, 74, 0
1, 268320, Note_on_c, 0, 60, 0
1, 268320, Note_on_c, 0, 75, 61
1, 268440, Note_on_c, 0, 75, 0
1, 268560, Tempo, 439979
1, 268560, Note_on_c, 0, 75, 64
1, 268800, Tempo, 450450
1, 268800, Note_on_c, 0, 58, 38
1, 268800, Note_on_c, 0, 65, 45
1, 269040, Note_on_c, 0, 75, 0
1, 269040, Note_on_c, 0, 74, 57
1, 269280, Tempo, 470109
1, 269280, Note_on_c, 0, 74, 0
1, 269280, Note_on_c, 0, 65, 0
1, 269280, Note_on_c, 0, 58, 0
1, 269280, Note_on_c, 0, 80, 61
1, 269400, Note_on_c, 0, 80, 0
1, 269520, Tempo, 474421
1, 269520, Note_on_c, 0, 80, 57
1, 269760, Tempo, 460405
1, 269760, Note_on_c, 0, 63, 38
1, 269760, Note_on_c, 0, 67, 45
1, 269880, Tempo, 460405
1, 270000, Note_on_c, 0, 80, 0
1, 270000, Note_on_c, 0, 79, 49
1, 270240, Note_on_c, 0, 79, 0
1, 270240, Note_on_c, 0, 67, 0
1, 270240, Note_on_c, 0, 63, 0
1, 270240, Note_on_c, 0, 82, 59
1, 270480, Tempo, 479885
1, 270480, Note_on_c, 0, 82, 0
1, 270480, Note_on_c, 0, 75, 56
1, 270720, Tempo, 524201
1, 270720, Note_on_c, 0, 58, 38
1, 270720, Note_on_c, 0, 65, 45
1, 270960, Tempo, 561903
1, 270960, Note_on_c, 0, 75, 0
1, 270960, Note_on_c, 0, 74, 48
1, 271200, Note_on_c, 0, 74, 0
1, 271200, Note_on_c, 0, 65, 0
1, 271200, Note_on_c, 0, 58, 0
1, 271200, Note_on_c, 0, 80, 51
1, 271290, Note_on_c, 0, 80, 0
1, 271440, Tempo, 574878
1, 271440, Note_on_c, 0, 80, 43
1, 271680, Tempo, 617475
1, 271920, Tempo, 832755
1, 271920, Note_on_c, 0, 63, 35
1, 271980, Note_on_c, 0, 63, 0
1, 272160, Tempo, 999334
1, 272160, Note_on_c, 0, 51, 33
1, 272220, Note_on_c, 0, 51, 0
1, 272400, Tempo, 1115449
1, 272400, Note_on_c, 0, 39, 33
1, 272520, Tempo, 1125492
1, 272520, Note_on_c, 0, 39, 0
1, 272640, Tempo, 885870
1, 272880, Tempo, 728421
1, 272880, Note_on_c, 0, 80, 0
1, 272880, Note_on_c, 0, 78, 46
1, 273120, Note_on_c, 0, 78, 0
1, 273120, Note_on_c, 0, 79, 53
1, 273360, Tempo, 813890
1, 273360, Note_on_c, 0, 79, 0
1, 273360, Note_on_c, 0, 74, 45
1, 273600, Tempo, 852757
1, 273600, Note_on_c, 0, 74, 0
1, 273600, Note_on_c, 0, 77, 50
1, 273840, Tempo, 950119
1, 273840, Note_on_c, 0, 77, 0
1, 273840, Note_on_c, 0, 75, 43
1, 274060, Note_on_c, 0, 75, 0
1, 274080, Tempo, 2665482
1, 274080, Note_on_c, 0, 75, 43
1, 274300, Note_on_c, 0, 75, 0
1, 274320, Tempo, 443099
1, 274320, Note_on_c, 0, 72, 63
1, 274440, Note_on_c, 0, 72, 0
1, 274440, Note_on_c, 0, 73, 57
1, 274560, Note_on_c, 0, 73, 0
1, 274560, Note_on_c, 0, 75, 63
1, 274650, Note_on_c, 0, 75, 0
1, 274800, Note_on_c, 0, 75, 64
1, 274890, Note_on_c, 0, 75, 0
1, 275040, Tempo, 457701
1, 275040, Note_on_c, 0, 75, 66
1, 275130, Note_on_c, 0, 75, 0
1, 275280, Tempo, 475135
1, 275280, Note_on_c, 0, 87, 82
1, 275370, Note_on_c, 0, 87, 0
1, 275520, Tempo, 441534
1, 275520, Note_on_c, 0, 75, 64
1, 275760, Note_on_c, 0, 60, 53
1, 276000, Tempo, 446263
1, 276000, Note_on_c, 0, 60, 0
1, 276000, Note_on_c, 0, 58, 53
1, 276240, Tempo, 415110
1, 276240, Note_on_c, 0, 58, 0
1, 276240, Note_on_c, 0, 75, 0
1, 276240, Note_on_c, 0, 73, 59
1, 276240, Note_on_c, 0, 56, 50
1, 276360, Note_on_c, 0, 73, 0
1, 276360, Note_on_c, 0, 72, 56
1, 276480, Tempo, 459418
1, 276480, Note_on_c, 0, 72, 0
1, 276480, Note_on_c, 0, 56, 0
1, 276480, Note_on_c, 0, 70, 68
1, 276480, Note_on_c, 0, 55, 55
1, 276720, Note_on_c, 0, 55, 0
1, 276720, Note_on_c, 0, 70, 0
1, 276720, Note_on_c, 0, 87, 74
1, 276720, Note_on_c, 0, 51, 49
1, 276900, Note_on_c, 0, 51, 0
1, 276960, Note_on_c, 0, 87, 0
1, 276960, Note_on_c, 0, 72, 66
1, 276960, Note_on_c, 0, 56, 51
1, 277200, Tempo, 473335
1, 277200, Note_on_c, 0, 56, 0
1, 277200, Note_on_c, 0, 72, 0
1, 277200, Note_on_c, 0, 87, 71
1, 277200, Note_on_c, 0, 51, 47
1, 277380, Note_on_c, 0, 51, 0
1, 277440, Tempo, 438436
1, 277440, Note_on_c, 0, 87, 0
1, 277440, Note_on_c, 0, 75, 61
1, 277440, Note_on_c, 0, 58, 51
1, 277680, Tempo, 452728
1, 277680, Note_on_c, 0, 58, 0
1, 277680, Note_on_c, 0, 75, 0
1, 277680, Note_on_c, 0, 73, 53
1, 277680, Note_on_c, 0, 51, 47
1, 277740, Note_on_c, 0, 73, 0
1, 277740, Note_on_c, 0, 75, 48
1, 277800, Note_on_c, 0, 75, 0
1, 277800, Note_on_c, 0, 73, 53
1, 277860, Note_on_c, 0, 51, 0
1, 277920, Tempo, 491965
1, 277920, Note_on_c, 0, 73, 0
1, 277920, Note_on_c, 0, 72, 61
1, 277920, Note_on_c, 0, 56, 51
1, 278160, Tempo, 435382
1, 278160, Note_on_c, 0, 56, 0
1, 278160, Note_on_c, 0, 72, 0
1, 278160, Note_on_c, 0, 72, 63
1, 278280, Note_on_c, 0, 72, 0
1, 278280, Note_on_c, 0, 73, 57
1, 278400, Tempo, 446595
1, 278400, Note_on_c, 0, 73, 0
1, 278400, Note_on_c, 0, 75, 63
1, 278490, Note_on_c, 0, 75, 0
1, 278640, Tempo, 440302
1, 278640, Note_on_c, 0, 75, 61
1, 278730, Note_on_c, 0, 75, 0
1, 278880, Tempo, 447861
1, 278880, Note_on_c, 0, 75, 67
1, 278970, Note_on_c, 0, 75, 0
1, 279120, Tempo, 464540
1, 279120, Note_on_c, 0, 87, 82
1, 279210, Note_on_c, 0, 87, 0
1, 279360, Tempo, 443099
1, 279360, Note_on_c, 0, 75, 64
1, 279600, Note_on_c, 0, 60, 53
1, 279840, Tempo, 446263
1, 279840, Note_on_c, 0, 60, 0
1, 279840, Note_on_c, 0, 58, 53
1, 280080, Tempo, 415110
1, 280080, Note_on_c, 0, 58, 0
1, 280080, Note_on_c, 0, 75, 0
1, 280080, Note_on_c, 0, 73, 59
1, 280080, Note_on_c, 0, 56, 50
1, 280200, Note_on_c, 0, 73, 0
1, 280200, Note_on_c, 0, 72, 56
1, 280320, Tempo, 457701
1, 280320, Note_on_c, 0, 72, 0
1, 280320, Note_on_c, 0, 56, 0
1, 280320, Note_on_c, 0, 70, 63
1, 280320, Note_on_c, 0, 61, 55
1, 280560, Note_on_c, 0, 61, 0
1, 280560, Note_on_c, 0, 70, 0
1, 280560, Note_on_c, 0, 85, 69
1, 280560, Note_on_c, 0, 58, 49
1, 280740, Note_on_c, 0, 58, 0
1, 280740, Note_on_c, 0, 85, 0
1, 280800, Note_on_c, 0, 67, 61
1, 280800, Note_on_c, 0, 63, 51
1, 281040, Tempo, 473335
1, 281040, Note_on_c, 0, 63, 0
1, 281040, Note_on_c, 0, 67, 0
1, 281040, Note_on_c, 0, 70, 52
1, 281040, Note_on_c, 0, 51, 47
1, 281220, Note_on_c, 0, 51, 0
1, 281220, Note_on_c, 0, 70, 0
1, 281280, Tempo, 468019
1, 281280, Note_on_c, 0, 68, 63
1, 281280, Note_on_c, 0, 56, 52
1, 281520, Note_on_c, 0, 56, 0
1, 281520, Note_on_c, 0, 51, 44
1, 281760, Note_on_c, 0, 51, 0
1, 281760, Note_on_c, 0, 68, 0
1, 281760, Note_on_c, 0, 44, 49
1, 282000, Tempo, 444675
1, 282000, Marker_t, "Teil 9 Wiederholung"
1, 282000, Note_on_c, 0, 44, 0
1, 282000, Note_on_c, 0, 75, 53
1, 282240, Tempo, 444675
1, 282240, Note_on_c, 0, 75, 0
1, 282240, Note_on_c, 0, 77, 59
1, 282480, Note_on_c, 0, 77, 0
1, 282480, Note_on_c, 0, 75, 56
1, 282720, Tempo, 457701
1, 282720, Note_on_c, 0, 75, 0
1, 282720, Note_on_c, 0, 74, 56
1, 282900, Note_on_c, 0, 74, 0
1, 282960, Tempo, 469778
1, 282960, Note_on_c, 0, 83, 62
1, 282960, Note_on_c, 0, 74, 41
1, 282960, Note_on_c, 0, 68, 34
1, 283200, Tempo, 444675
1, 283200, Note_on_c, 0, 68, 0
1, 283200, Note_on_c, 0, 74, 0
1, 283200, Note_on_c, 0, 67, 38
1, 283200, Note_on_c, 0, 75, 45
1, 283440, Note_on_c, 0, 83, 0
1, 283440, Note_on_c, 0, 81, 53
1, 283677, Note_on_c, 0, 75, 0
1, 283680, Tempo, 452728
1, 283680, Note_on_c, 0, 81, 0
1, 283680, Note_on_c, 0, 67, 0
1, 283680, Note_on_c, 0, 82, 53
1, 283800, Tempo, 454373
1, 283920, Tempo, 433871
1, 283920, Note_on_c, 0, 82, 0
1, 283920, Note_on_c, 0, 72, 59
1, 284160, Tempo, 441534
1, 284160, Note_on_c, 0, 72, 0
1, 284160, Note_on_c, 0, 73, 61
1, 284400, Note_on_c, 0, 73, 0
1, 284400, Note_on_c, 0, 72, 55
1, 284640, Tempo, 454373
1, 284640, Note_on_c, 0, 72, 0
1, 284640, Note_on_c, 0, 71, 55
1, 284820, Note_on_c, 0, 71, 0
1, 284880, Tempo, 435066
1, 284880, Note_on_c, 0, 80, 63
1, 284880, Note_on_c, 0, 65, 34
1, 284880, Note_on_c, 0, 71, 41
1, 285120, Tempo, 441534
1, 285120, Note_on_c, 0, 71, 0
1, 285120, Note_on_c, 0, 65, 0
1, 285120, Note_on_c, 0, 72, 45
1, 285120, Note_on_c, 0, 63, 38
1, 285360, Note_on_c, 0, 80, 0
1, 285360, Note_on_c, 0, 78, 53
1, 285597, Note_on_c, 0, 72, 0
1, 285600, Tempo, 451094
1, 285600, Note_on_c, 0, 78, 0
1, 285600, Note_on_c, 0, 63, 0
1, 285600, Note_on_c, 0, 79, 53
1, 285720, Note_on_c, 0, 79, 0
1, 285840, Tempo, 432370
1, 285840, Note_on_c, 0, 68, 59
1, 286080, Tempo, 441534
1, 286080, Note_on_c, 0, 68, 0
1, 286080, Note_on_c, 0, 70, 61
1, 286320, Tempo, 444675
1, 286320, Note_on_c, 0, 70, 0
1, 286320, Note_on_c, 0, 68, 53
1, 286560, Tempo, 462463
1, 286560, Note_on_c, 0, 68, 0
1, 286560, Note_on_c, 0, 67, 53
1, 286740, Note_on_c, 0, 67, 0
1, 286800, Tempo, 452728
1, 286800, Note_on_c, 0, 77, 63
1, 286800, Note_on_c, 0, 61, 34
1, 286800, Note_on_c, 0, 67, 41
1, 287040, Tempo, 441534
1, 287040, Note_on_c, 0, 67, 0
1, 287040, Note_on_c, 0, 61, 0
1, 287040, Note_on_c, 0, 60, 38
1, 287040, Note_on_c, 0, 68, 45
1, 287280, Note_on_c, 0, 77, 0
1, 287280, Note_on_c, 0, 74, 56
1, 287518, Note_on_c, 0, 68, 0
1, 287520, Tempo, 454373
1, 287520, Note_on_c, 0, 74, 0
1, 287520, Note_on_c, 0, 60, 0
1, 287520, Note_on_c, 0, 75, 61
1, 287640, Note_on_c, 0, 75, 0
1, 287760, Tempo, 439979
1, 287760, Note_on_c, 0, 75, 64
1, 288000, Tempo, 450450
1, 288000, Note_on_c, 0, 58, 38
1, 288000, Note_on_c, 0, 65, 45
1, 288240, Note_on_c, 0, 75, 0
1, 288240, Note_on_c, 0, 74, 57
1, 288480, Tempo, 470109
1, 288480, Note_on_c, 0, 74, 0
1, 288480, Note_on_c, 0, 65, 0
1, 288480, Note_on_c, 0, 58, 0
1, 288480, Note_on_c, 0, 80, 61
1, 288600, Note_on_c, 0, 80, 0
1, 288720, Tempo, 474421
1, 288720, Note_on_c, 0, 80, 57
1, 288960, Tempo, 460405
1, 288960, Note_on_c, 0, 63, 38
1, 288960, Note_on_c, 0, 67, 45
1, 289080, Tempo, 460405
1, 289200, Note_on_c, 0, 80, 0
1, 289200, Note_on_c, 0, 79, 49
1, 289440, Note_on_c, 0, 79, 0
1, 289440, Note_on_c, 0, 67, 0
1, 289440, Note_on_c, 0, 63, 0
1, 289440, Note_on_c, 0, 82, 59
1, 289680, Tempo, 479885
1, 289680, Note_on_c, 0, 82, 0
1, 289680, Note_on_c, 0, 75, 56
1, 289920, Tempo, 524201
1, 289920, Note_on_c, 0, 58, 38
1, 289920, Note_on_c, 0, 65, 45
1, 290160, Tempo, 561903
1, 290160, Note_on_c, 0, 75, 0
1, 290160, Note_on_c, 0, 74, 48
1, 290400, Note_on_c, 0, 74, 0
1, 290400, Note_on_c, 0, 65, 0
1, 290400, Note_on_c, 0, 58, 0
1, 290400, Note_on_c, 0, 80, 51
1, 290490, Note_on_c, 0, 80, 0
1, 290640, Tempo, 574878
1, 290640, Note_on_c, 0, 80, 43
1, 290880, Tempo, 617475
1, 291120, Tempo, 864553
1, 291120, Note_on_c, 0, 63, 35
1, 291180, Note_on_c, 0, 63, 0
1, 291360, Tempo, 1043841
1, 291360, Note_on_c, 0, 51, 33
1, 291420, Note_on_c, 0, 51, 0
1, 291600, Tempo, 1105583
1, 291600, Note_on_c, 0, 39, 33
1, 291720, Note_on_c, 0, 39, 0
1, 291840, Tempo, 885870
1, 292080, Tempo, 728421
1, 292080, Note_on_c, 0, 80, 0
1, 292080, Note_on_c, 0, 78, 46
1, 292320, Note_on_c, 0, 78, 0
1, 292320, Note_on_c, 0, 79, 53
1, 292560, Tempo, 813890
1, 292560, Note_on_c, 0, 79, 0
1, 292560, Note_on_c, 0, 74, 45
1, 292800, Tempo, 852757
1, 292800, Note_on_c, 0, 74, 0
1, 292800, Note_on_c, 0, 77, 50
1, 293040, Tempo, 950119
1, 293040, Note_on_c, 0, 77, 0
1, 293040, Note_on_c, 0, 75, 43
1, 293260, Note_on_c, 0, 75, 0
1, 293280, Tempo, 3181336
1, 293280, Note_on_c, 0, 75, 43
1, 293500, Note_on_c, 0, 75, 0
1, 293520, Tempo, 443099
1, 293520, Note_on_c, 0, 72, 63
1, 293640, Note_on_c, 0, 72, 0
1, 293640, Note_on_c, 0, 73, 57
1, 293760, Note_on_c, 0, 73, 0
1, 293760, Note_on_c, 0, 75, 63
1, 293850, Note_on_c, 0, 75, 0
1, 294000, Note_on_c, 0, 75, 64
1, 294090, Note_on_c, 0, 75, 0
1, 294240, Tempo, 457701
1, 294240, Note_on_c, 0, 75, 66
1, 294330, Note_on_c, 0, 75, 0
1, 294480, Tempo, 475135
1, 294480, Note_on_c, 0, 87, 82
1, 294570, Note_on_c, 0, 87, 0
1, 294720, Tempo, 441534
1, 294720, Note_on_c, 0, 75, 64
1, 294960, Note_on_c, 0, 60, 53
1, 295200, Tempo, 446263
1, 295200, Note_on_c, 0, 60, 0
1, 295200, Note_on_c, 0, 58, 53
1, 295440, Tempo, 415110
1, 295440, Note_on_c, 0, 58, 0
1, 295440, Note_on_c, 0, 75, 0
1, 295440, Note_on_c, 0, 73, 59
1, 295440, Note_on_c, 0, 56, 50
1, 295560, Note_on_c, 0, 73, 0
1, 295560, Note_on_c, 0, 72, 56
1, 295680, Tempo, 459418
1, 295680, Note_on_c, 0, 72, 0
1, 295680, Note_on_c, 0, 56, 0
1, 295680, Note_on_c, 0, 70, 68
1, 295680, Note_on_c, 0, 55, 55
1, 295920, Note_on_c, 0, 55, 0
1, 295920, Note_on_c, 0, 70, 0
1, 295920, Note_on_c, 0, 87, 74
1, 295920, Note_on_c, 0, 51, 49
1, 296100, Note_on_c, 0, 51, 0
1, 296160, Note_on_c, 0, 87, 0
1, 296160, Note_on_c, 0, 72, 66
1, 296160, Note_on_c, 0, 56, 51
1, 296400, Tempo, 473335
1, 296400, Note_on_c, 0, 56, 0
1, 296400, Note_on_c, 0, 72, 0
1, 296400, Note_on_c, 0, 87, 71
1, 296400, Note_on_c, 0, 51, 47
1, 296580, Note_on_c, 0, 51, 0
1, 296640, Tempo, 438436
1, 296640, Note_on_c, 0, 87, 0
1, 296640, Note_on_c, 0, 75, 61
1, 296640, Note_on_c, 0, 58, 51
1, 296880, Tempo, 452728
1, 296880, Note_on_c, 0, 58, 0
1, 296880, Note_on_c, 0, 75, 0
1, 296880, Note_on_c, 0, 73, 53
1, 296880, Note_on_c, 0, 51, 47
1, 296940, Note_on_c, 0, 73, 0
1, 296940, Note_on_c, 0, 75, 48
1, 297000, Note_on_c, 0, 75, 0
1, 297000, Note_on_c, 0, 73, 53
1, 297060, Note_on_c, 0, 51, 0
1, 297120, Tempo, 491965
1, 297120, Note_on_c, 0, 73, 0
1, 297120, Note_on_c, 0, 72, 61
1, 297120, Note_on_c, 0, 56, 51
1, 297360, Tempo, 435382
1, 297360, Note_on_c, 0, 56, 0
1, 297360, Note_on_c, 0, 72, 0
1, 297360, Note_on_c, 0, 72, 63
1, 297480, Note_on_c, 0, 72, 0
1, 297480, Note_on_c, 0, 73, 57
1, 297600, Tempo, 446595
1, 297600, Note_on_c, 0, 73, 0
1, 297600, Note_on_c, 0, 75, 63
1, 297690, Note_on_c, 0, 75, 0
1, 297840, Tempo, 440302
1, 297840, Note_on_c, 0, 75, 61
1, 297930, Note_on_c, 0, 75, 0
1, 298080, Tempo, 447861
1, 298080, Note_on_c, 0, 75, 67
1, 298170, Note_on_c, 0, 75, 0
1, 298320, Tempo, 464540
1, 298320, Note_on_c, 0, 87, 82
1, 298410, Note_on_c, 0, 87, 0
1, 298560, Tempo, 443099
1, 298560, Note_on_c, 0, 75, 64
1, 298800, Note_on_c, 0, 60, 53
1, 299040, Tempo, 446263
1, 299040, Note_on_c, 0, 60, 0
1, 299040, Note_on_c, 0, 58, 53
1, 299280, Tempo, 415110
1, 299280, Note_on_c, 0, 58, 0
1, 299280, Note_on_c, 0, 75, 0
1, 299280, Note_on_c, 0, 73, 59
1, 299280, Note_on_c, 0, 56, 50
1, 299400, Note_on_c, 0, 73, 0
1, 299400, Note_on_c, 0, 72, 56
1, 299520, Tempo, 457701
1, 299520, Note_on_c, 0, 72, 0
1, 299520, Note_on_c, 0, 56, 0
1, 299520, Note_on_c, 0, 70, 63
1, 299520, Note_on_c, 0, 61, 55
1, 299760, Note_on_c, 0, 61, 0
1, 299760, Note_on_c, 0, 70, 0
1, 299760, Note_on_c, 0, 85, 69
1, 299760, Note_on_c, 0, 58, 49
1, 299940, Note_on_c, 0, 58, 0
1, 299940, Note_on_c, 0, 85, 0
1, 300000, Note_on_c, 0, 67, 61
1, 300000, Note_on_c, 0, 63, 51
1, 300240, Tempo, 473335
1, 300240, Note_on_c, 0, 63, 0
1, 300240, Note_on_c, 0, 67, 0
1, 300240, Note_on_c, 0, 70, 52
1, 300240, Note_on_c, 0, 51, 47
1, 300420, Note_on_c, 0, 51, 0
1, 300420, Note_on_c, 0, 70, 0
1, 300480, Tempo, 468019
1, 300480, Note_on_c, 0, 68, 63
1, 300480, Note_on_c, 0, 56, 52
1, 300720, Tempo, 510465
1, 300720, Note_on_c, 0, 56, 0
1, 300720, Note_on_c, 0, 44, 44
1, 300960, Tempo, 444675
1, 300960, Marker_t, "Teil 10"
1, 300960, Note_on_c, 0, 44, 0
1, 300960, Note_on_c, 0, 68, 0
1, 300960, Note_on_c, 0, 77, 69
1, 300960, Note_on_c, 0, 56, 48
1, 300960, Note_on_c, 0, 61, 57
1, 301080, Note_on_c, 0, 61, 0
1, 301080, Note_on_c, 0, 56, 0
1, 301080, Note_on_c, 0, 77, 0
1, 301080, Note_on_c, 0, 80, 62
1, 301087, Control_c, 0, 64, 127
1, 301200, Note_on_c, 0, 80, 0
1, 301200, Note_on_c, 0, 77, 69
1, 301200, Note_on_c, 0, 61, 49
1, 301200, Note_on_c, 0, 56, 40
1, 301320, Note_on_c, 0, 56, 0
1, 301320, Note_on_c, 0, 61, 0
1, 301320, Note_on_c, 0, 77, 0
1, 301320, Note_on_c, 0, 80, 61
1, 301440, Tempo, 459418
1, 301440, Note_on_c, 0, 80, 0
1, 301440, Note_on_c, 0, 75, 69
1, 301440, Note_on_c, 0, 56, 47
1, 301440, Note_on_c, 0, 60, 56
1, 301463, Control_c, 0, 64, 0
1, 301560, Note_on_c, 0, 60, 0
1, 301560, Note_on_c, 0, 56, 0
1, 301680, Note_on_c, 0, 75, 0
1, 301680, Note_on_c, 0, 60, 48
1, 301680, Note_on_c, 0, 56, 39
1, 301800, Note_on_c, 0, 56, 0
1, 301800, Note_on_c, 0, 60, 0
1, 301920, Tempo, 444675
1, 301920, Note_on_c, 0, 73, 69
1, 301920, Note_on_c, 0, 65, 57
1, 301920, Note_on_c, 0, 56, 48
1, 301998, Control_c, 0, 64, 127
1, 302040, Note_on_c, 0, 56, 0
1, 302040, Note_on_c, 0, 65, 0
1, 302040, Note_on_c, 0, 73, 0
1, 302040, Note_on_c, 0, 80, 62
1, 302160, Note_on_c, 0, 80, 0
1, 302160, Note_on_c, 0, 73, 69
1, 302160, Note_on_c, 0, 56, 40
1, 302160, Note_on_c, 0, 65, 49
1, 302280, Note_on_c, 0, 65, 0
1, 302280, Note_on_c, 0, 56, 0
1, 302280, Note_on_c, 0, 73, 0
1, 302280, Note_on_c, 0, 80, 61
1, 302400, Tempo, 459418
1, 302400, Note_on_c, 0, 80, 0
1, 302400, Note_on_c, 0, 72, 69
1, 302400, Note_on_c, 0, 56, 47
1, 302400, Note_on_c, 0, 63, 56
1, 302408, Control_c, 0, 64, 0
1, 302520, Note_on_c, 0, 63, 0
1, 302520, Note_on_c, 0, 56, 0
1, 302640, Note_on_c, 0, 72, 0
1, 302640, Note_on_c, 0, 56, 39
1, 302640, Note_on_c, 0, 63, 48
1, 302760, Note_on_c, 0, 63, 0
1, 302760, Note_on_c, 0, 56, 0
1, 302880, Tempo, 444675
1, 302880, Note_on_c, 0, 77, 69
1, 302880, Note_on_c, 0, 56, 48
1, 302880, Note_on_c, 0, 61, 57
1, 303000, Note_on_c, 0, 61, 0
1, 303000, Note_on_c, 0, 56, 0
1, 303000, Note_on_c, 0, 77, 0
1, 303000, Note_on_c, 0, 80, 62
1, 303007, Control_c, 0, 64, 127
1, 303120, Note_on_c, 0, 80, 0
1, 303120, Note_on_c, 0, 77, 69
1, 303120, Note_on_c, 0, 56, 40
1, 303120, Note_on_c, 0, 61, 49
1, 303240, Note_on_c, 0, 61, 0
1, 303240, Note_on_c, 0, 56, 0
1, 303240, Note_on_c, 0, 77, 0
1, 303240, Note_on_c, 0, 80, 61
1, 303360, Tempo, 459418
1, 303360, Note_on_c, 0, 80, 0
1, 303360, Note_on_c, 0, 75, 69
1, 303360, Note_on_c, 0, 56, 47
1, 303360, Note_on_c, 0, 60, 56
1, 303368, Control_c, 0, 64, 0
1, 303600, Note_on_c, 0, 60, 0
1, 303600, Note_on_c, 0, 56, 0
1, 303600, Note_on_c, 0, 75, 0
1, 304000, Note_on_c, 0, 84, 56
1, 304160, Note_on_c, 0, 84, 0
1, 304160, Note_on_c, 0, 82, 56
1, 304320, Tempo, 446263
1, 304320, Note_on_c, 0, 82, 0
1, 304320, Note_on_c, 0, 80, 61
1, 304320, Note_on_c, 0, 36, 25
1, 304320, Note_on_c, 0, 48, 30
1, 304480, Note_on_c, 0, 80, 0
1, 304480, Note_on_c, 0, 79, 56
1, 304640, Note_on_c, 0, 79, 0
1, 304640, Note_on_c, 0, 77, 56
1, 304800, Note_on_c, 0, 77, 0
1, 304800, Note_on_c, 0, 48, 0
1, 304800, Note_on_c, 0, 36, 0
1, 304800, Note_on_c, 0, 75, 61
1, 304960, Note_on_c, 0, 75, 0
1, 304960, Note_on_c, 0, 73, 55
1, 305120, Tempo, 499833
1, 305120, Note_on_c, 0, 73, 0
1, 305120, Note_on_c, 0, 72, 55
1, 305280, Tempo, 451094
1, 305280, Note_on_c, 0, 72, 0
1, 305280, Note_on_c, 0, 70, 61
1, 305280, Note_on_c, 0, 37, 25
1, 305280, Note_on_c, 0, 49, 30
1, 305520, Note_on_c, 0, 70, 0
1, 305760, Tempo, 459418
1, 305760, Note_on_c, 0, 49, 0
1, 305760, Note_on_c, 0, 37, 0
1, 305920, Note_on_c, 0, 70, 47
1, 306080, Note_on_c, 0, 70, 0
1, 306080, Note_on_c, 0, 68, 47
1, 306240, Tempo, 446263
1, 306240, Note_on_c, 0, 68, 0
1, 306240, Note_on_c, 0, 67, 51
1, 306240, Note_on_c, 0, 39, 25
1, 306240, Note_on_c, 0, 51, 30
1, 306400, Note_on_c, 0, 67, 0
1, 306400, Note_on_c, 0, 65, 47
1, 306560, Note_on_c, 0, 65, 0
1, 306560, Note_on_c, 0, 63, 47
1, 306720, Note_on_c, 0, 63, 0
1, 306720, Note_on_c, 0, 51, 0
1, 306720, Note_on_c, 0, 39, 0
1, 306720, Note_on_c, 0, 61, 51
1, 306880, Note_on_c, 0, 61, 0
1, 306880, Note_on_c, 0, 60, 46
1, 307040, Tempo, 499833
1, 307040, Note_on_c, 0, 60, 0
1, 307040, Note_on_c, 0, 58, 46
1, 307200, Tempo, 476569
1, 307200, Note_on_c, 0, 58, 0
1, 307200, Note_on_c, 0, 56, 43
1, 307200, Note_on_c, 0, 32, 25
1, 307200, Note_on_c, 0, 44, 30
1, 307290, Note_on_c, 0, 56, 0
1, 307440, Note_on_c, 0, 56, 38
1, 307530, Note_on_c, 0, 56, 0
1, 307680, Tempo, 460759
1, 307680, Note_on_c, 0, 44, 0
1, 307680, Note_on_c, 0, 32, 0
1, 307680, Note_on_c, 0, 56, 43
1, 307800, Note_on_c, 0, 56, 0
1, 307800, Note_on_c, 0, 60, 39
1, 307920, Note_on_c, 0, 60, 0
1, 307920, Note_on_c, 0, 63, 42
1, 308040, Tempo, 505519
1, 308040, Note_on_c, 0, 63, 0
1, 308040, Note_on_c, 0, 60, 39
1, 308160, Tempo, 474759
1, 308160, Note_on_c, 0, 60, 0
1, 308160, Note_on_c, 0, 56, 43
1, 308250, Note_on_c, 0, 56, 0
1, 308400, Note_on_c, 0, 56, 38
1, 308490, Note_on_c, 0, 56, 0
1, 308640, Tempo, 459067
1, 308640, Note_on_c, 0, 56, 43
1, 308760, Note_on_c, 0, 56, 0
1, 308760, Note_on_c, 0, 60, 39
1, 308880, Note_on_c, 0, 60, 0
1, 308880, Note_on_c, 0, 63, 42
1, 309000, Tempo, 511727
1, 309000, Note_on_c, 0, 63, 0
1, 309000, Note_on_c, 0, 60, 39
1, 309120, Tempo, 588986
1, 309120, Note_on_c, 0, 60, 0
1, 309120, Note_on_c, 0, 56, 49
1, 309240, Note_on_c, 0, 56, 0
1, 309600, Note_on_c, 0, 68, 81
1, 309600, Note_on_c, 0, 63, 67
1, 309600, Note_on_c, 0, 60, 67
1, 309600, Note_on_c, 0, 32, 50
1, 309600, Note_on_c, 0, 44, 59
1, 310080, Tempo, 588986
1, 310080, Note_on_c, 0, 44, 0
1, 310080, Note_on_c, 0, 60, 0
1, 310080, Note_on_c, 0, 68, 0
1, 310080, Note_on_c, 0, 63, 0
1, 310080, Note_on_c, 0, 32, 0
1, 310080, End_track
0, 0, End_of_file
