0, 0, Header, 0, 1, 480
1, 0, Start_track
1, 0, Title_t, "Schubert: Moment Musical No.6 in Ab, Op. 94 - D 780"
1, 0, Title_t, "Allegretto"
1, 0, Copyright_t, "Copyright © 1997 by Krüger"
1, 0, Text_t, "Franz Schubert"
1, 0, Text_t, "Korrekturen am 6.9.98\012"
1, 0, Text_t, "Update am 15.5.99\012"
1, 0, Text_t, "Update am 22.5.99\012"
1, 0, Text_t, "Normierung: 23.12.2002\012"
1, 0, Text_t, "Update am 1.7.2007\012"
1, 0, Text_t, "Update am 16.3.2014\012"
1, 0, Text_t, "Dauer: 5:14 Minuten\012"
1, 0, SMPTE_offset, 96, 0, 3, 0, 0
1, 0, Time_signature, 3, 2, 24, 8
1, 0, Key_signature, -4, "major"
1, 0, Tempo, 465188
1, 0, Marker_t, "Allegretto"
1, 0, Program_c, 0, 0
1, 0, Control_c, 0, 7, 100
1, 0, Control_c, 0, 10, 64
1, 0, Control_c, 0, 91, 127
1, 0, Text_t, "bdca426d104a26ac9dcb070447587523"
1, 0, Program_c, 0, 0
1, 0, Control_c, 0, 7, 100
1, 0, Control_c, 0, 10, 64
1, 0, Control_c, 0, 64, 0
1, 960, Tempo, 599161
1, 960, Note_on_c, 0, 72, 57
1, 960, Control_c, 0, 91, 127
1, 960, Note_on_c, 0, 63, 45
1, 960, Note_on_c, 0, 68, 45
1, 960, Control_c, 0, 91, 127
1, 960, Note_on_c, 0, 56, 40
1, 1067, Control_c, 0, 64, 127
1, 1440, Tempo, 465188
1, 1440, Note_on_c, 0, 56, 0
1, 1440, Note_on_c, 0, 72, 0
1, 1440, Note_on_c, 0, 63, 0
1, 1440, Note_on_c, 0, 68, 0
1, 1440, Note_on_c, 0, 65, 47
1, 1440, Note_on_c, 0, 68, 47
1, 1440, Note_on_c, 0, 72, 59
1, 1440, Note_on_c, 0, 61, 42
1, 1450, Control_c, 0, 64, 0
1, 1840, Control_c, 0, 64, 127
1, 2880, Note_on_c, 0, 72, 0
1, 2880, Note_on_c, 0, 70, 56
1, 2883, Control_c, 0, 64, 0
1, 3360, Note_on_c, 0, 70, 0
1, 3360, Note_on_c, 0, 61, 0
1, 3360, Note_on_c, 0, 68, 0
1, 3360, Note_on_c, 0, 65, 0
1, 3840, Tempo, 608273
1, 3840, Note_on_c, 0, 77, 63
1, 3840, Note_on_c, 0, 67, 50
1, 3840, Note_on_c, 0, 70, 50
1, 3840, Note_on_c, 0, 65, 45
1, 3840, Note_on_c, 0, 61, 40
1, 3967, Control_c, 0, 64, 127
1, 4320, Tempo, 465188
1, 4320, Note_on_c, 0, 61, 0
1, 4320, Note_on_c, 0, 70, 0
1, 4320, Note_on_c, 0, 77, 0
1, 4320, Note_on_c, 0, 67, 0
1, 4320, Note_on_c, 0, 65, 0
1, 4320, Note_on_c, 0, 77, 65
1, 4320, Note_on_c, 0, 72, 52
1, 4320, Note_on_c, 0, 68, 52
1, 4320, Note_on_c, 0, 60, 40
1, 4320, Note_on_c, 0, 65, 45
1, 4333, Control_c, 0, 64, 0
1, 4640, Control_c, 0, 64, 127
1, 5760, Note_on_c, 0, 65, 0
1, 5760, Note_on_c, 0, 77, 0
1, 5760, Note_on_c, 0, 75, 60
1, 5760, Note_on_c, 0, 63, 43
1, 5764, Control_c, 0, 64, 0
1, 6240, Note_on_c, 0, 63, 0
1, 6240, Note_on_c, 0, 72, 0
1, 6240, Note_on_c, 0, 60, 0
1, 6240, Note_on_c, 0, 68, 0
1, 6240, Note_on_c, 0, 75, 0
1, 6368, Control_c, 0, 64, 127
1, 6480, Tempo, 401687
1, 6480, Note_on_c, 0, 60, 43
1, 6480, Note_on_c, 0, 63, 54
1, 6480, Note_on_c, 0, 56, 42
1, 6720, Note_on_c, 0, 56, 0
1, 6720, Note_on_c, 0, 63, 0
1, 6720, Note_on_c, 0, 68, 56
1, 6720, Note_on_c, 0, 51, 44
1, 6960, Note_on_c, 0, 51, 0
1, 6960, Note_on_c, 0, 68, 0
1, 6960, Note_on_c, 0, 72, 58
1, 6960, Note_on_c, 0, 48, 45
1, 7200, Tempo, 446097
1, 7200, Note_on_c, 0, 48, 0
1, 7200, Note_on_c, 0, 72, 0
1, 7200, Note_on_c, 0, 60, 0
1, 7200, Note_on_c, 0, 67, 48
1, 7200, Note_on_c, 0, 73, 60
1, 7200, Note_on_c, 0, 61, 48
1, 7200, Note_on_c, 0, 63, 48
1, 7200, Note_on_c, 0, 46, 37
1, 7200, Note_on_c, 0, 55, 42
1, 7200, Note_on_c, 0, 51, 37
1, 7212, Control_c, 0, 64, 0
1, 7600, Control_c, 0, 64, 127
1, 8160, Tempo, 521739
1, 8160, Note_on_c, 0, 51, 0
1, 8160, Note_on_c, 0, 46, 0
1, 8160, Note_on_c, 0, 73, 0
1, 8160, Note_on_c, 0, 61, 0
1, 8160, Note_on_c, 0, 67, 0
1, 8160, Note_on_c, 0, 55, 0
1, 8160, Note_on_c, 0, 63, 0
1, 8160, Note_on_c, 0, 60, 50
1, 8160, Note_on_c, 0, 72, 63
1, 8160, Note_on_c, 0, 68, 50
1, 8160, Note_on_c, 0, 63, 50
1, 8160, Note_on_c, 0, 44, 40
1, 8160, Note_on_c, 0, 56, 45
1, 8160, Note_on_c, 0, 51, 40
1, 8175, Control_c, 0, 64, 0
1, 8454, Control_c, 0, 64, 127
1, 8640, Tempo, 434468
1, 8640, Note_on_c, 0, 51, 0
1, 8640, Note_on_c, 0, 44, 0
1, 8640, Note_on_c, 0, 72, 0
1, 8640, Note_on_c, 0, 68, 0
1, 8640, Note_on_c, 0, 60, 0
1, 8640, Note_on_c, 0, 56, 0
1, 8640, Note_on_c, 0, 63, 0
1, 8640, Note_on_c, 0, 58, 51
1, 8640, Note_on_c, 0, 70, 64
1, 8640, Note_on_c, 0, 63, 51
1, 8640, Note_on_c, 0, 43, 41
1, 8640, Note_on_c, 0, 51, 41
1, 8640, Note_on_c, 0, 55, 46
1, 8647, Control_c, 0, 64, 0
1, 8839, Control_c, 0, 64, 127
1, 9600, Tempo, 633981
1, 9600, Note_on_c, 0, 55, 0
1, 9600, Note_on_c, 0, 70, 0
1, 9600, Note_on_c, 0, 63, 0
1, 9600, Note_on_c, 0, 58, 0
1, 9600, Note_on_c, 0, 51, 0
1, 9600, Note_on_c, 0, 43, 0
1, 9600, Note_on_c, 0, 68, 54
1, 9600, Note_on_c, 0, 70, 54
1, 9600, Note_on_c, 0, 62, 54
1, 9600, Note_on_c, 0, 74, 67
1, 9600, Note_on_c, 0, 41, 43
1, 9600, Note_on_c, 0, 46, 43
1, 9600, Note_on_c, 0, 53, 48
1, 9616, Control_c, 0, 64, 0
1, 9865, Control_c, 0, 64, 127
1, 10080, Tempo, 506885
1, 10080, Note_on_c, 0, 53, 0
1, 10080, Note_on_c, 0, 41, 0
1, 10080, Note_on_c, 0, 70, 0
1, 10080, Note_on_c, 0, 62, 0
1, 10080, Note_on_c, 0, 68, 0
1, 10080, Note_on_c, 0, 46, 0
1, 10080, Note_on_c, 0, 74, 0
1, 10080, Note_on_c, 0, 68, 56
1, 10080, Note_on_c, 0, 70, 56
1, 10080, Note_on_c, 0, 62, 56
1, 10080, Note_on_c, 0, 74, 70
1, 10080, Note_on_c, 0, 46, 45
1, 10080, Note_on_c, 0, 51, 51
1, 10080, Note_on_c, 0, 39, 45
1, 10093, Control_c, 0, 64, 0
1, 10534, Control_c, 0, 64, 127
1, 11520, Tempo, 465188
1, 11520, Note_on_c, 0, 74, 0
1, 11520, Note_on_c, 0, 62, 0
1, 11520, Note_on_c, 0, 68, 0
1, 11520, Note_on_c, 0, 75, 51
1, 11520, Note_on_c, 0, 67, 40
1, 11520, Note_on_c, 0, 63, 40
1, 11524, Control_c, 0, 64, 0
1, 12000, Note_on_c, 0, 63, 0
1, 12000, Note_on_c, 0, 75, 0
1, 12000, Note_on_c, 0, 51, 0
1, 12000, Note_on_c, 0, 39, 0
1, 12000, Note_on_c, 0, 70, 0
1, 12000, Note_on_c, 0, 67, 0
1, 12000, Note_on_c, 0, 46, 0
1, 12480, Tempo, 602168
1, 12480, Note_on_c, 0, 72, 53
1, 12480, Note_on_c, 0, 68, 42
1, 12480, Note_on_c, 0, 63, 42
1, 12480, Note_on_c, 0, 56, 37
1, 12747, Control_c, 0, 64, 127
1, 12960, Tempo, 465188
1, 12960, Note_on_c, 0, 56, 0
1, 12960, Note_on_c, 0, 72, 0
1, 12960, Note_on_c, 0, 68, 0
1, 12960, Note_on_c, 0, 63, 0
1, 12960, Note_on_c, 0, 72, 58
1, 12960, Note_on_c, 0, 68, 46
1, 12960, Note_on_c, 0, 65, 46
1, 12960, Note_on_c, 0, 61, 41
1, 12974, Control_c, 0, 64, 0
1, 13254, Control_c, 0, 64, 127
1, 14400, Note_on_c, 0, 72, 0
1, 14400, Note_on_c, 0, 70, 50
1, 14406, Control_c, 0, 64, 0
1, 14880, Note_on_c, 0, 70, 0
1, 14880, Note_on_c, 0, 61, 0
1, 14880, Note_on_c, 0, 65, 0
1, 14880, Note_on_c, 0, 68, 0
1, 15360, Tempo, 633981
1, 15360, Note_on_c, 0, 67, 63
1, 15360, Note_on_c, 0, 77, 79
1, 15360, Note_on_c, 0, 71, 63
1, 15360, Note_on_c, 0, 37, 40
1, 15360, Note_on_c, 0, 49, 45
1, 15589, Control_c, 0, 64, 127
1, 15840, Tempo, 461538
1, 15840, Note_on_c, 0, 49, 0
1, 15840, Note_on_c, 0, 71, 0
1, 15840, Note_on_c, 0, 67, 0
1, 15840, Note_on_c, 0, 77, 0
1, 15840, Note_on_c, 0, 37, 0
1, 15840, Note_on_c, 0, 67, 68
1, 15840, Note_on_c, 0, 72, 68
1, 15840, Note_on_c, 0, 77, 85
1, 15840, Note_on_c, 0, 36, 44
1, 15840, Note_on_c, 0, 48, 49
1, 15856, Control_c, 0, 64, 0
1, 16347, Control_c, 0, 64, 127
1, 17280, Tempo, 465188
1, 17280, Note_on_c, 0, 77, 0
1, 17280, Note_on_c, 0, 76, 51
1, 17293, Control_c, 0, 64, 0
1, 17760, Note_on_c, 0, 76, 0
1, 17760, Note_on_c, 0, 48, 0
1, 17760, Note_on_c, 0, 67, 0
1, 17760, Note_on_c, 0, 72, 0
1, 17760, Note_on_c, 0, 36, 0
1, 18240, Tempo, 537634
1, 18240, Note_on_c, 0, 67, 41
1, 18240, Note_on_c, 0, 72, 46
1, 18240, Note_on_c, 0, 76, 52
1, 18240, Note_on_c, 0, 64, 36
1, 18240, Note_on_c, 0, 60, 32
1, 18309, Control_c, 0, 64, 127
1, 18720, Tempo, 473111
1, 18720, Note_on_c, 0, 60, 0
1, 18720, Note_on_c, 0, 76, 0
1, 18720, Note_on_c, 0, 67, 0
1, 18720, Note_on_c, 0, 72, 0
1, 18720, Note_on_c, 0, 64, 0
1, 18720, Note_on_c, 0, 75, 57
1, 18720, Note_on_c, 0, 73, 45
1, 18720, Note_on_c, 0, 67, 45
1, 18720, Note_on_c, 0, 58, 40
1, 18720, Note_on_c, 0, 63, 40
1, 18727, Control_c, 0, 64, 0
1, 19014, Control_c, 0, 64, 127
1, 19680, Tempo, 521785
1, 19680, Note_on_c, 0, 63, 0
1, 19680, Note_on_c, 0, 67, 0
1, 19680, Note_on_c, 0, 75, 0
1, 19680, Note_on_c, 0, 73, 0
1, 19680, Note_on_c, 0, 58, 0
1, 19680, Note_on_c, 0, 68, 47
1, 19680, Note_on_c, 0, 72, 47
1, 19680, Note_on_c, 0, 75, 59
1, 19680, Note_on_c, 0, 63, 42
1, 19680, Note_on_c, 0, 56, 42
1, 19688, Control_c, 0, 64, 0
1, 19894, Control_c, 0, 64, 127
1, 20160, Tempo, 465188
1, 20160, Note_on_c, 0, 56, 0
1, 20160, Note_on_c, 0, 75, 0
1, 20160, Note_on_c, 0, 68, 0
1, 20160, Note_on_c, 0, 72, 0
1, 20160, Note_on_c, 0, 63, 0
1, 20160, Note_on_c, 0, 73, 64
1, 20160, Note_on_c, 0, 70, 51
1, 20160, Note_on_c, 0, 65, 51
1, 20160, Control_c, 0, 64, 0
1, 20160, Note_on_c, 0, 49, 45
1, 20400, Control_c, 0, 64, 127
1, 21120, Tempo, 508431
1, 21120, Note_on_c, 0, 49, 0
1, 21120, Note_on_c, 0, 73, 0
1, 21120, Note_on_c, 0, 70, 0
1, 21120, Note_on_c, 0, 65, 0
1, 21120, Note_on_c, 0, 67, 42
1, 21120, Note_on_c, 0, 72, 53
1, 21120, Note_on_c, 0, 61, 47
1, 21120, Note_on_c, 0, 51, 38
1, 21137, Control_c, 0, 64, 0
1, 21233, Control_c, 0, 64, 127
1, 21360, Tempo, 624415
1, 21360, Note_on_c, 0, 72, 0
1, 21360, Note_on_c, 0, 70, 51
1, 21480, Tempo, 867804
1, 21600, Tempo, 491803
1, 21600, Note_on_c, 0, 70, 0
1, 21600, Note_on_c, 0, 51, 0
1, 21600, Note_on_c, 0, 61, 0
1, 21600, Note_on_c, 0, 67, 0
1, 21600, Note_on_c, 0, 61, 34
1, 21600, Note_on_c, 0, 67, 34
1, 21600, Note_on_c, 0, 70, 44
1, 21600, Note_on_c, 0, 51, 31
1, 21600, Note_on_c, 0, 44, 28
1, 21605, Control_c, 0, 64, 0
1, 22000, Control_c, 0, 64, 127
1, 23040, Note_on_c, 0, 70, 0
1, 23040, Note_on_c, 0, 61, 0
1, 23040, Note_on_c, 0, 67, 0
1, 23040, Note_on_c, 0, 60, 25
1, 23040, Note_on_c, 0, 68, 33
1, 23055, Control_c, 0, 64, 0
1, 23520, Note_on_c, 0, 68, 0
1, 23520, Note_on_c, 0, 44, 0
1, 23520, Note_on_c, 0, 51, 0
1, 23520, Note_on_c, 0, 60, 0
1, 23528, Tempo, 563222
1, 24000, Tempo, 640752
1, 24000, Note_on_c, 0, 62, 32
1, 24000, Note_on_c, 0, 68, 32
1, 24000, Note_on_c, 0, 71, 40
1, 24000, Note_on_c, 0, 52, 25
1, 24000, Note_on_c, 0, 56, 25
1, 24000, Note_on_c, 0, 59, 28
1, 24115, Control_c, 0, 64, 127
1, 24480, Tempo, 462820
1, 24480, Note_on_c, 0, 59, 0
1, 24480, Note_on_c, 0, 68, 0
1, 24480, Note_on_c, 0, 71, 0
1, 24480, Note_on_c, 0, 62, 0
1, 24480, Note_on_c, 0, 56, 0
1, 24480, Note_on_c, 0, 52, 0
1, 24480, Note_on_c, 0, 62, 32
1, 24480, Note_on_c, 0, 68, 32
1, 24480, Note_on_c, 0, 71, 40
1, 24480, Note_on_c, 0, 52, 25
1, 24480, Note_on_c, 0, 56, 25
1, 24480, Note_on_c, 0, 59, 28
1, 25920, Note_on_c, 0, 52, 0
1, 25920, Note_on_c, 0, 62, 0
1, 25920, Note_on_c, 0, 63, 28
1, 25920, Note_on_c, 0, 51, 22
1, 25931, Control_c, 0, 64, 0
1, 26400, Note_on_c, 0, 51, 0
1, 26400, Note_on_c, 0, 59, 0
1, 26400, Note_on_c, 0, 71, 0
1, 26400, Note_on_c, 0, 68, 0
1, 26400, Note_on_c, 0, 63, 0
1, 26400, Note_on_c, 0, 56, 0
1, 26880, Tempo, 549753
1, 26880, Note_on_c, 0, 64, 36
1, 26880, Note_on_c, 0, 68, 36
1, 26880, Note_on_c, 0, 71, 45
1, 26880, Note_on_c, 0, 49, 27
1, 26880, Note_on_c, 0, 56, 27
1, 26880, Note_on_c, 0, 59, 30
1, 27000, Tempo, 581734
1, 27017, Control_c, 0, 64, 127
1, 27360, Tempo, 462820
1, 27360, Note_on_c, 0, 59, 0
1, 27360, Note_on_c, 0, 68, 0
1, 27360, Note_on_c, 0, 71, 0
1, 27360, Note_on_c, 0, 64, 0
1, 27360, Note_on_c, 0, 56, 0
1, 27360, Note_on_c, 0, 49, 0
1, 27360, Note_on_c, 0, 64, 39
1, 27360, Note_on_c, 0, 68, 39
1, 27360, Note_on_c, 0, 71, 49
1, 27360, Note_on_c, 0, 49, 28
1, 27360, Note_on_c, 0, 56, 28
1, 27360, Note_on_c, 0, 59, 32
1, 28800, Note_on_c, 0, 49, 0
1, 28800, Note_on_c, 0, 64, 0
1, 28800, Note_on_c, 0, 63, 29
1, 28800, Note_on_c, 0, 47, 21
1, 28807, Control_c, 0, 64, 0
1, 29280, Note_on_c, 0, 47, 0
1, 29280, Note_on_c, 0, 59, 0
1, 29280, Note_on_c, 0, 71, 0
1, 29280, Note_on_c, 0, 68, 0
1, 29280, Note_on_c, 0, 63, 0
1, 29280, Note_on_c, 0, 56, 0
1, 29760, Tempo, 515021
1, 29760, Note_on_c, 0, 63, 41
1, 29760, Note_on_c, 0, 68, 41
1, 29760, Note_on_c, 0, 71, 52
1, 29760, Control_c, 0, 64, 127
1, 29760, Note_on_c, 0, 47, 33
1, 29760, Note_on_c, 0, 56, 29
1, 29760, Note_on_c, 0, 59, 33
1, 30240, Tempo, 515021
1, 30240, Note_on_c, 0, 59, 0
1, 30240, Note_on_c, 0, 68, 0
1, 30240, Note_on_c, 0, 71, 0
1, 30240, Note_on_c, 0, 63, 0
1, 30240, Note_on_c, 0, 56, 0
1, 30240, Note_on_c, 0, 47, 0
1, 30240, Note_on_c, 0, 70, 58
1, 30240, Note_on_c, 0, 64, 46
1, 30240, Note_on_c, 0, 68, 46
1, 30240, Note_on_c, 0, 49, 35
1, 30240, Note_on_c, 0, 58, 39
1, 30240, Note_on_c, 0, 56, 35
1, 30248, Control_c, 0, 64, 0
1, 30480, Control_c, 0, 64, 127
1, 30720, Tempo, 462820
1, 30720, Note_on_c, 0, 70, 0
1, 30720, Note_on_c, 0, 76, 65
1, 31440, Note_on_c, 0, 76, 0
1, 31440, Note_on_c, 0, 70, 51
1, 31680, Tempo, 475210
1, 31680, Note_on_c, 0, 70, 0
1, 31680, Note_on_c, 0, 49, 0
1, 31680, Note_on_c, 0, 75, 57
1, 31680, Control_c, 0, 64, 0
1, 31680, Note_on_c, 0, 46, 36
1, 31892, Control_c, 0, 64, 127
1, 31920, Note_on_c, 0, 75, 0
1, 31920, Note_on_c, 0, 73, 55
1, 32160, Note_on_c, 0, 73, 0
1, 32160, Note_on_c, 0, 46, 0
1, 32160, Note_on_c, 0, 71, 55
1, 32160, Note_on_c, 0, 47, 37
1, 32168, Control_c, 0, 64, 0
1, 32316, Control_c, 0, 64, 127
1, 32640, Tempo, 552283
1, 32640, Note_on_c, 0, 47, 0
1, 32640, Note_on_c, 0, 56, 0
1, 32640, Note_on_c, 0, 58, 0
1, 32640, Note_on_c, 0, 64, 0
1, 32640, Note_on_c, 0, 71, 0
1, 32640, Note_on_c, 0, 68, 0
1, 32640, Note_on_c, 0, 61, 41
1, 32640, Note_on_c, 0, 64, 41
1, 32640, Note_on_c, 0, 70, 52
1, 32640, Note_on_c, 0, 49, 35
1, 32646, Control_c, 0, 64, 0
1, 32767, Control_c, 0, 64, 127
1, 33120, Tempo, 462820
1, 33120, Note_on_c, 0, 49, 0
1, 33120, Note_on_c, 0, 61, 0
1, 33120, Note_on_c, 0, 64, 0
1, 33120, Note_on_c, 0, 70, 0
1, 33120, Note_on_c, 0, 63, 39
1, 33120, Note_on_c, 0, 59, 39
1, 33120, Note_on_c, 0, 68, 49
1, 33120, Note_on_c, 0, 51, 35
1, 33134, Control_c, 0, 64, 0
1, 33547, Control_c, 0, 64, 127
1, 34560, Note_on_c, 0, 68, 0
1, 34560, Note_on_c, 0, 59, 0
1, 34560, Note_on_c, 0, 58, 27
1, 34560, Note_on_c, 0, 67, 35
1, 34571, Control_c, 0, 64, 0
1, 35040, Note_on_c, 0, 67, 0
1, 35040, Note_on_c, 0, 51, 0
1, 35040, Note_on_c, 0, 63, 0
1, 35040, Note_on_c, 0, 58, 0
1, 35520, Tempo, 573394
1, 35520, Note_on_c, 0, 62, 28
1, 35520, Note_on_c, 0, 68, 28
1, 35520, Note_on_c, 0, 71, 36
1, 35520, Note_on_c, 0, 52, 22
1, 35520, Note_on_c, 0, 56, 22
1, 35520, Note_on_c, 0, 59, 25
1, 35635, Control_c, 0, 64, 127
1, 36000, Tempo, 462820
1, 36000, Note_on_c, 0, 59, 0
1, 36000, Note_on_c, 0, 68, 0
1, 36000, Note_on_c, 0, 71, 0
1, 36000, Note_on_c, 0, 62, 0
1, 36000, Note_on_c, 0, 56, 0
1, 36000, Note_on_c, 0, 52, 0
1, 36000, Note_on_c, 0, 62, 28
1, 36000, Note_on_c, 0, 68, 28
1, 36000, Note_on_c, 0, 71, 36
1, 36000, Note_on_c, 0, 52, 22
1, 36000, Note_on_c, 0, 56, 22
1, 36000, Note_on_c, 0, 59, 25
1, 37440, Note_on_c, 0, 52, 0
1, 37440, Note_on_c, 0, 62, 0
1, 37440, Note_on_c, 0, 63, 25
1, 37440, Note_on_c, 0, 51, 19
1, 37446, Control_c, 0, 64, 0
1, 37920, Note_on_c, 0, 51, 0
1, 37920, Note_on_c, 0, 59, 0
1, 37920, Note_on_c, 0, 71, 0
1, 37920, Note_on_c, 0, 68, 0
1, 37920, Note_on_c, 0, 63, 0
1, 37920, Note_on_c, 0, 56, 0
1, 38400, Tempo, 576147
1, 38400, Note_on_c, 0, 64, 38
1, 38400, Note_on_c, 0, 68, 38
1, 38400, Note_on_c, 0, 71, 48
1, 38400, Note_on_c, 0, 49, 28
1, 38400, Note_on_c, 0, 56, 28
1, 38400, Note_on_c, 0, 59, 32
1, 38606, Control_c, 0, 64, 127
1, 38880, Tempo, 462820
1, 38880, Note_on_c, 0, 59, 0
1, 38880, Note_on_c, 0, 68, 0
1, 38880, Note_on_c, 0, 71, 0
1, 38880, Note_on_c, 0, 64, 0
1, 38880, Note_on_c, 0, 56, 0
1, 38880, Note_on_c, 0, 49, 0
1, 38880, Note_on_c, 0, 64, 35
1, 38880, Note_on_c, 0, 68, 35
1, 38880, Note_on_c, 0, 71, 44
1, 38880, Note_on_c, 0, 49, 27
1, 38880, Note_on_c, 0, 56, 27
1, 38880, Note_on_c, 0, 59, 31
1, 40320, Note_on_c, 0, 49, 0
1, 40320, Note_on_c, 0, 64, 0
1, 40320, Note_on_c, 0, 63, 30
1, 40320, Note_on_c, 0, 47, 18
1, 40333, Control_c, 0, 64, 0
1, 40800, Note_on_c, 0, 47, 0
1, 40800, Note_on_c, 0, 59, 0
1, 40800, Note_on_c, 0, 71, 0
1, 40800, Note_on_c, 0, 68, 0
1, 40800, Note_on_c, 0, 63, 0
1, 40800, Note_on_c, 0, 56, 0
1, 41280, Tempo, 521739
1, 41280, Note_on_c, 0, 64, 40
1, 41280, Note_on_c, 0, 68, 40
1, 41280, Note_on_c, 0, 71, 50
1, 41280, Control_c, 0, 64, 127
1, 41280, Note_on_c, 0, 52, 34
1, 41280, Note_on_c, 0, 47, 34
1, 41280, Note_on_c, 0, 56, 34
1, 41280, Note_on_c, 0, 59, 38
1, 41760, Key_signature, 4, "major"
1, 41760, Tempo, 533333
1, 41760, Note_on_c, 0, 59, 0
1, 41760, Note_on_c, 0, 47, 0
1, 41760, Note_on_c, 0, 68, 0
1, 41760, Note_on_c, 0, 71, 0
1, 41760, Note_on_c, 0, 64, 0
1, 41760, Note_on_c, 0, 56, 0
1, 41760, Note_on_c, 0, 52, 0
1, 41760, Note_on_c, 0, 71, 56
1, 41760, Note_on_c, 0, 64, 45
1, 41760, Note_on_c, 0, 68, 45
1, 41760, Note_on_c, 0, 47, 39
1, 41760, Note_on_c, 0, 52, 39
1, 41760, Note_on_c, 0, 56, 39
1, 41760, Note_on_c, 0, 59, 44
1, 42240, Tempo, 461538
1, 42240, Note_on_c, 0, 71, 0
1, 42240, Note_on_c, 0, 76, 70
1, 42904, Control_c, 0, 64, 0
1, 42960, Tempo, 754717
1, 42960, Note_on_c, 0, 76, 0
1, 42960, Note_on_c, 0, 71, 60
1, 43080, Tempo, 545455
1, 43080, Note_on_c, 0, 71, 0
1, 43080, Note_on_c, 0, 71, 55
1, 43180, Tempo, 474308
1, 43200, Note_on_c, 0, 71, 0
1, 43200, Note_on_c, 0, 59, 0
1, 43200, Note_on_c, 0, 68, 0
1, 43200, Note_on_c, 0, 47, 0
1, 43200, Note_on_c, 0, 52, 0
1, 43200, Note_on_c, 0, 56, 0
1, 43200, Note_on_c, 0, 75, 73
1, 43200, Note_on_c, 0, 47, 37
1, 43200, Note_on_c, 0, 52, 37
1, 43200, Note_on_c, 0, 56, 37
1, 43200, Note_on_c, 0, 59, 42
1, 43299, Control_c, 0, 64, 127
1, 43340, Tempo, 476190
1, 43440, Note_on_c, 0, 75, 0
1, 43440, Note_on_c, 0, 73, 70
1, 43500, Tempo, 478088
1, 43660, Tempo, 480000
1, 43680, Note_on_c, 0, 73, 0
1, 43680, Note_on_c, 0, 71, 67
1, 43820, Tempo, 481928
1, 43960, Tempo, 483871
1, 44120, Tempo, 485830
1, 44160, Note_on_c, 0, 71, 0
1, 44160, Note_on_c, 0, 68, 65
1, 44280, Tempo, 487805
1, 44440, Tempo, 489796
1, 44580, Tempo, 491803
1, 44600, Tempo, 468933
1, 44640, Tempo, 506329
1, 44640, Note_on_c, 0, 68, 0
1, 44640, Note_on_c, 0, 59, 0
1, 44640, Note_on_c, 0, 52, 0
1, 44640, Note_on_c, 0, 64, 0
1, 44640, Note_on_c, 0, 47, 0
1, 44640, Note_on_c, 0, 56, 0
1, 44640, Note_on_c, 0, 65, 62
1, 44640, Note_on_c, 0, 61, 49
1, 44640, Note_on_c, 0, 47, 35
1, 44640, Note_on_c, 0, 53, 35
1, 44640, Note_on_c, 0, 56, 39
1, 44654, Control_c, 0, 64, 0
1, 44866, Control_c, 0, 64, 127
1, 45120, Tempo, 470588
1, 45120, Note_on_c, 0, 65, 0
1, 45120, Note_on_c, 0, 73, 70
1, 45840, Note_on_c, 0, 73, 0
1, 45840, Note_on_c, 0, 65, 58
1, 46060, Tempo, 470588
1, 46080, Note_on_c, 0, 65, 0
1, 46080, Note_on_c, 0, 53, 0
1, 46080, Note_on_c, 0, 61, 0
1, 46080, Note_on_c, 0, 47, 0
1, 46080, Note_on_c, 0, 56, 0
1, 46080, Note_on_c, 0, 61, 56
1, 46080, Note_on_c, 0, 66, 56
1, 46080, Note_on_c, 0, 73, 70
1, 46080, Note_on_c, 0, 47, 38
1, 46080, Note_on_c, 0, 54, 38
1, 46080, Note_on_c, 0, 57, 43
1, 46137, Control_c, 0, 64, 0
1, 46220, Tempo, 472441
1, 46320, Note_on_c, 0, 73, 0
1, 46320, Note_on_c, 0, 69, 70
1, 46377, Control_c, 0, 64, 127
1, 46380, Tempo, 474308
1, 46540, Tempo, 476190
1, 46560, Note_on_c, 0, 69, 0
1, 46560, Note_on_c, 0, 57, 0
1, 46560, Note_on_c, 0, 61, 0
1, 46560, Note_on_c, 0, 54, 0
1, 46560, Note_on_c, 0, 66, 0
1, 46560, Note_on_c, 0, 64, 56
1, 46560, Note_on_c, 0, 68, 70
1, 46560, Note_on_c, 0, 56, 38
1, 46560, Note_on_c, 0, 59, 43
1, 46572, Control_c, 0, 64, 0
1, 46700, Tempo, 478088
1, 46758, Control_c, 0, 64, 127
1, 46860, Tempo, 480000
1, 47020, Tempo, 481928
1, 47040, Note_on_c, 0, 59, 0
1, 47040, Note_on_c, 0, 68, 0
1, 47040, Note_on_c, 0, 56, 0
1, 47040, Note_on_c, 0, 64, 0
1, 47040, Note_on_c, 0, 63, 54
1, 47040, Note_on_c, 0, 66, 67
1, 47040, Note_on_c, 0, 57, 38
1, 47040, Note_on_c, 0, 59, 43
1, 47050, Control_c, 0, 64, 0
1, 47180, Tempo, 483871
1, 47224, Control_c, 0, 64, 127
1, 47340, Tempo, 485830
1, 47500, Tempo, 487805
1, 47520, Note_on_c, 0, 59, 0
1, 47520, Note_on_c, 0, 66, 0
1, 47520, Note_on_c, 0, 47, 0
1, 47520, Note_on_c, 0, 63, 0
1, 47520, Note_on_c, 0, 57, 0
1, 47520, Note_on_c, 0, 56, 53
1, 47520, Note_on_c, 0, 59, 53
1, 47520, Note_on_c, 0, 64, 66
1, 47520, Note_on_c, 0, 40, 41
1, 47520, Note_on_c, 0, 47, 41
1, 47520, Note_on_c, 0, 52, 46
1, 47534, Control_c, 0, 64, 0
1, 47753, Control_c, 0, 64, 127
1, 48480, Tempo, 397193
1, 48480, Note_on_c, 0, 64, 0
1, 48480, Note_on_c, 0, 56, 0
1, 48480, Note_on_c, 0, 59, 0
1, 48480, Note_on_c, 0, 64, 51
1, 48640, Note_on_c, 0, 64, 0
1, 48640, Note_on_c, 0, 68, 55
1, 48800, Tempo, 483832
1, 48800, Note_on_c, 0, 68, 0
1, 48800, Note_on_c, 0, 71, 59
1, 48960, Tempo, 462820
1, 48960, Note_on_c, 0, 71, 0
1, 48960, Note_on_c, 0, 52, 0
1, 48960, Note_on_c, 0, 47, 0
1, 48960, Note_on_c, 0, 40, 0
1, 48960, Note_on_c, 0, 70, 69
1, 48960, Note_on_c, 0, 67, 55
1, 48960, Note_on_c, 0, 64, 55
1, 48960, Note_on_c, 0, 61, 55
1, 48960, Note_on_c, 0, 40, 46
1, 48967, Control_c, 0, 64, 0
1, 49080, Control_c, 0, 64, 127
1, 49920, Tempo, 483871
1, 49920, Note_on_c, 0, 61, 0
1, 49920, Note_on_c, 0, 64, 0
1, 49920, Note_on_c, 0, 70, 0
1, 49920, Note_on_c, 0, 67, 0
1, 49920, Note_on_c, 0, 71, 57
1, 49920, Note_on_c, 0, 68, 45
1, 49920, Note_on_c, 0, 64, 45
1, 49920, Note_on_c, 0, 59, 45
1, 49934, Control_c, 0, 64, 0
1, 50040, Control_c, 0, 64, 127
1, 50160, Note_on_c, 0, 59, 0
1, 50160, Note_on_c, 0, 68, 0
1, 50160, Note_on_c, 0, 64, 0
1, 50160, Note_on_c, 0, 71, 0
1, 50160, Note_on_c, 0, 66, 44
1, 50170, Control_c, 0, 64, 0
1, 50227, Control_c, 0, 64, 127
1, 50280, Note_on_c, 0, 66, 0
1, 50280, Note_on_c, 0, 68, 44
1, 50380, Tempo, 441176
1, 50400, Note_on_c, 0, 68, 0
1, 50400, Note_on_c, 0, 40, 0
1, 50400, Note_on_c, 0, 60, 44
1, 50400, Note_on_c, 0, 69, 49
1, 50400, Note_on_c, 0, 63, 49
1, 50400, Note_on_c, 0, 40, 33
1, 50400, Note_on_c, 0, 45, 37
1, 50406, Control_c, 0, 64, 0
1, 50420, Tempo, 441176
1, 50480, Tempo, 442804
1, 50540, Tempo, 444444
1, 50600, Tempo, 446097
1, 50626, Control_c, 0, 64, 127
1, 50660, Tempo, 447761
1, 50720, Tempo, 449438
1, 50780, Tempo, 451128
1, 50840, Tempo, 452830
1, 50880, Tempo, 454545
1, 50940, Tempo, 456274
1, 51000, Tempo, 458015
1, 51060, Tempo, 459770
1, 51120, Tempo, 461538
1, 51120, Note_on_c, 0, 45, 0
1, 51120, Note_on_c, 0, 60, 0
1, 51120, Note_on_c, 0, 69, 0
1, 51120, Note_on_c, 0, 59, 42
1, 51120, Note_on_c, 0, 68, 47
1, 51120, Note_on_c, 0, 47, 35
1, 51129, Control_c, 0, 64, 0
1, 51180, Tempo, 463320
1, 51240, Tempo, 465116
1, 51300, Tempo, 466926
1, 51340, Tempo, 468750
1, 51360, Note_on_c, 0, 47, 0
1, 51360, Note_on_c, 0, 59, 0
1, 51360, Note_on_c, 0, 68, 0
1, 51360, Note_on_c, 0, 57, 39
1, 51360, Note_on_c, 0, 66, 44
1, 51360, Note_on_c, 0, 48, 33
1, 51400, Tempo, 470588
1, 51460, Tempo, 472441
1, 51487, Control_c, 0, 64, 127
1, 51520, Tempo, 474308
1, 51580, Tempo, 476190
1, 51640, Tempo, 478088
1, 51700, Tempo, 480000
1, 51760, Tempo, 481928
1, 51800, Tempo, 483871
1, 51820, Tempo, 466926
1, 51840, Tempo, 458821
1, 51840, Note_on_c, 0, 48, 0
1, 51840, Note_on_c, 0, 57, 0
1, 51840, Note_on_c, 0, 40, 0
1, 51840, Note_on_c, 0, 63, 0
1, 51840, Note_on_c, 0, 66, 0
1, 51840, Note_on_c, 0, 56, 32
1, 51840, Note_on_c, 0, 64, 41
1, 51840, Note_on_c, 0, 47, 27
1, 51840, Note_on_c, 0, 40, 24
1, 51858, Control_c, 0, 64, 0
1, 51996, Control_c, 0, 64, 127
1, 52800, Tempo, 397193
1, 52800, Note_on_c, 0, 64, 0
1, 52800, Note_on_c, 0, 56, 0
1, 52800, Note_on_c, 0, 64, 51
1, 52960, Note_on_c, 0, 64, 0
1, 52960, Note_on_c, 0, 68, 55
1, 53120, Tempo, 483832
1, 53120, Note_on_c, 0, 68, 0
1, 53120, Note_on_c, 0, 71, 59
1, 53280, Tempo, 462820
1, 53280, Note_on_c, 0, 71, 0
1, 53280, Note_on_c, 0, 47, 0
1, 53280, Note_on_c, 0, 40, 0
1, 53280, Note_on_c, 0, 70, 69
1, 53280, Note_on_c, 0, 67, 62
1, 53280, Note_on_c, 0, 64, 55
1, 53280, Note_on_c, 0, 61, 55
1, 53280, Note_on_c, 0, 40, 46
1, 53330, Control_c, 0, 64, 0
1, 53407, Control_c, 0, 64, 127
1, 54240, Tempo, 489796
1, 54240, Note_on_c, 0, 61, 0
1, 54240, Note_on_c, 0, 64, 0
1, 54240, Note_on_c, 0, 70, 0
1, 54240, Note_on_c, 0, 67, 0
1, 54240, Note_on_c, 0, 71, 51
1, 54240, Note_on_c, 0, 68, 40
1, 54240, Note_on_c, 0, 64, 40
1, 54240, Note_on_c, 0, 59, 40
1, 54254, Control_c, 0, 64, 0
1, 54353, Control_c, 0, 64, 127
1, 54480, Note_on_c, 0, 59, 0
1, 54480, Note_on_c, 0, 68, 0
1, 54480, Note_on_c, 0, 64, 0
1, 54480, Note_on_c, 0, 71, 0
1, 54480, Note_on_c, 0, 66, 43
1, 54491, Control_c, 0, 64, 0
1, 54563, Control_c, 0, 64, 127
1, 54600, Note_on_c, 0, 66, 0
1, 54600, Note_on_c, 0, 68, 43
1, 54720, Tempo, 461538
1, 54720, Note_on_c, 0, 68, 0
1, 54720, Note_on_c, 0, 40, 0
1, 54720, Note_on_c, 0, 60, 41
1, 54720, Note_on_c, 0, 69, 46
1, 54720, Note_on_c, 0, 63, 41
1, 54720, Note_on_c, 0, 40, 31
1, 54720, Note_on_c, 0, 45, 35
1, 54734, Control_c, 0, 64, 0
1, 54760, Tempo, 463320
1, 54800, Tempo, 465116
1, 54840, Tempo, 466926
1, 54880, Tempo, 468750
1, 54890, Control_c, 0, 64, 127
1, 54920, Tempo, 470588
1, 54960, Tempo, 472441
1, 55000, Tempo, 474308
1, 55040, Tempo, 476190
1, 55080, Tempo, 478088
1, 55120, Tempo, 480000
1, 55160, Tempo, 481928
1, 55200, Tempo, 483871
1, 55240, Tempo, 485830
1, 55280, Tempo, 487805
1, 55320, Tempo, 489796
1, 55360, Tempo, 491803
1, 55400, Tempo, 493827
1, 55440, Tempo, 495868
1, 55440, Note_on_c, 0, 45, 0
1, 55440, Note_on_c, 0, 60, 0
1, 55440, Note_on_c, 0, 69, 0
1, 55440, Note_on_c, 0, 59, 36
1, 55440, Note_on_c, 0, 68, 41
1, 55440, Note_on_c, 0, 47, 32
1, 55447, Control_c, 0, 64, 0
1, 55480, Tempo, 497925
1, 55520, Tempo, 500000
1, 55560, Tempo, 502092
1, 55600, Tempo, 504202
1, 55640, Tempo, 506329
1, 55680, Tempo, 508475
1, 55680, Note_on_c, 0, 47, 0
1, 55680, Note_on_c, 0, 59, 0
1, 55680, Note_on_c, 0, 68, 0
1, 55680, Note_on_c, 0, 57, 37
1, 55680, Note_on_c, 0, 66, 37
1, 55680, Note_on_c, 0, 48, 29
1, 55720, Tempo, 510638
1, 55760, Tempo, 512821
1, 55800, Tempo, 515021
1, 55840, Tempo, 517241
1, 55850, Control_c, 0, 64, 127
1, 55880, Tempo, 519481
1, 55920, Tempo, 521739
1, 55960, Tempo, 524017
1, 56000, Tempo, 526316
1, 56040, Tempo, 528634
1, 56080, Tempo, 530973
1, 56120, Tempo, 533333
1, 56140, Tempo, 479501
1, 56160, Tempo, 461538
1, 56160, Note_on_c, 0, 48, 0
1, 56160, Note_on_c, 0, 57, 0
1, 56160, Note_on_c, 0, 40, 0
1, 56160, Note_on_c, 0, 63, 0
1, 56160, Note_on_c, 0, 66, 0
1, 56160, Note_on_c, 0, 56, 31
1, 56160, Note_on_c, 0, 64, 35
1, 56160, Note_on_c, 0, 47, 26
1, 56160, Note_on_c, 0, 40, 23
1, 56163, Control_c, 0, 64, 0
1, 56640, Control_c, 0, 64, 127
1, 57120, Tempo, 487805
1, 57120, Note_on_c, 0, 64, 0
1, 57120, Note_on_c, 0, 56, 0
1, 57120, Note_on_c, 0, 68, 43
1, 57600, Key_signature, -4, "major"
1, 57600, Tempo, 468750
1, 57600, Note_on_c, 0, 68, 0
1, 57600, Note_on_c, 0, 47, 0
1, 57600, Note_on_c, 0, 40, 0
1, 57600, Note_on_c, 0, 64, 39
1, 57600, Note_on_c, 0, 68, 49
1, 57600, Note_on_c, 0, 52, 28
1, 57600, Note_on_c, 0, 59, 32
1, 57607, Control_c, 0, 64, 0
1, 58080, Control_c, 0, 64, 127
1, 58560, Tempo, 512821
1, 58560, Note_on_c, 0, 59, 0
1, 58560, Note_on_c, 0, 64, 0
1, 58560, Note_on_c, 0, 68, 0
1, 58560, Note_on_c, 0, 52, 0
1, 58560, Note_on_c, 0, 64, 35
1, 58560, Note_on_c, 0, 68, 44
1, 58560, Note_on_c, 0, 52, 23
1, 58560, Note_on_c, 0, 59, 26
1, 59040, Tempo, 463320
1, 59040, Note_on_c, 0, 59, 0
1, 59040, Note_on_c, 0, 64, 0
1, 59040, Note_on_c, 0, 68, 0
1, 59040, Note_on_c, 0, 52, 0
1, 59040, Note_on_c, 0, 64, 50
1, 59040, Note_on_c, 0, 68, 50
1, 59040, Note_on_c, 0, 52, 28
1, 59040, Note_on_c, 0, 59, 32
1, 59045, Control_c, 0, 64, 0
1, 59200, Tempo, 465116
1, 59266, Control_c, 0, 64, 127
1, 59360, Tempo, 466926
1, 59500, Tempo, 468750
1, 59660, Tempo, 470588
1, 59760, Note_on_c, 0, 64, 0
1, 59760, Note_on_c, 0, 63, 45
1, 59820, Tempo, 472441
1, 59960, Tempo, 474308
1, 60000, Tempo, 570668
1, 60000, Note_on_c, 0, 63, 0
1, 60000, Note_on_c, 0, 59, 0
1, 60000, Note_on_c, 0, 52, 0
1, 60000, Note_on_c, 0, 68, 0
1, 60000, Note_on_c, 0, 62, 42
1, 60000, Note_on_c, 0, 68, 42
1, 60000, Note_on_c, 0, 52, 22
1, 60000, Note_on_c, 0, 56, 25
1, 60014, Control_c, 0, 64, 0
1, 60198, Control_c, 0, 64, 127
1, 60480, Tempo, 461538
1, 60480, Note_on_c, 0, 56, 0
1, 60480, Note_on_c, 0, 62, 0
1, 60480, Note_on_c, 0, 68, 0
1, 60480, Note_on_c, 0, 52, 0
1, 60480, Note_on_c, 0, 63, 35
1, 60480, Note_on_c, 0, 68, 44
1, 60480, Control_c, 0, 64, 0
1, 60480, Note_on_c, 0, 51, 28
1, 60480, Note_on_c, 0, 58, 32
1, 60827, Control_c, 0, 64, 127
1, 61920, Note_on_c, 0, 68, 0
1, 61920, Note_on_c, 0, 67, 39
1, 61991, Control_c, 0, 64, 0
1, 62640, Tempo, 415225
1, 62640, Note_on_c, 0, 67, 0
1, 62640, Note_on_c, 0, 68, 39
1, 62880, Note_on_c, 0, 68, 0
1, 62880, Note_on_c, 0, 63, 0
1, 62880, Note_on_c, 0, 51, 0
1, 62880, Note_on_c, 0, 58, 0
1, 62880, Note_on_c, 0, 70, 42
1, 63120, Note_on_c, 0, 70, 0
1, 63120, Note_on_c, 0, 72, 45
1, 63360, Tempo, 430108
1, 63360, Note_on_c, 0, 72, 0
1, 63360, Note_on_c, 0, 65, 38
1, 63360, Note_on_c, 0, 68, 38
1, 63360, Note_on_c, 0, 73, 48
1, 63360, Note_on_c, 0, 51, 28
1, 63360, Note_on_c, 0, 53, 28
1, 63360, Note_on_c, 0, 56, 28
1, 63360, Note_on_c, 0, 61, 32
1, 63613, Control_c, 0, 64, 127
1, 64320, Note_on_c, 0, 61, 0
1, 64320, Note_on_c, 0, 53, 0
1, 64320, Note_on_c, 0, 68, 0
1, 64320, Note_on_c, 0, 73, 0
1, 64320, Note_on_c, 0, 65, 0
1, 64320, Note_on_c, 0, 56, 0
1, 64320, Note_on_c, 0, 51, 0
1, 64320, Note_on_c, 0, 65, 39
1, 64320, Note_on_c, 0, 68, 39
1, 64320, Note_on_c, 0, 73, 49
1, 64320, Note_on_c, 0, 51, 28
1, 64320, Note_on_c, 0, 53, 28
1, 64320, Note_on_c, 0, 56, 28
1, 64320, Note_on_c, 0, 61, 32
1, 64800, Tempo, 463320
1, 64800, Note_on_c, 0, 61, 0
1, 64800, Note_on_c, 0, 53, 0
1, 64800, Note_on_c, 0, 68, 0
1, 64800, Note_on_c, 0, 73, 0
1, 64800, Note_on_c, 0, 65, 0
1, 64800, Note_on_c, 0, 56, 0
1, 64800, Note_on_c, 0, 51, 0
1, 64800, Note_on_c, 0, 75, 55
1, 64800, Note_on_c, 0, 67, 40
1, 64800, Note_on_c, 0, 70, 40
1, 64800, Note_on_c, 0, 61, 36
1, 64800, Note_on_c, 0, 58, 32
1, 64800, Note_on_c, 0, 55, 32
1, 64800, Note_on_c, 0, 51, 32
1, 64814, Control_c, 0, 64, 0
1, 64920, Note_on_c, 0, 75, 0
1, 64920, Note_on_c, 0, 73, 50
1, 65040, Note_on_c, 0, 73, 0
1, 65040, Note_on_c, 0, 72, 50
1, 65160, Note_on_c, 0, 72, 0
1, 65160, Note_on_c, 0, 73, 50
1, 65280, Tempo, 430108
1, 65280, Note_on_c, 0, 73, 0
1, 65280, Note_on_c, 0, 75, 51
1, 65760, Tempo, 525670
1, 65760, Note_on_c, 0, 75, 0
1, 65760, Note_on_c, 0, 55, 0
1, 65760, Note_on_c, 0, 70, 0
1, 65760, Note_on_c, 0, 61, 0
1, 65760, Note_on_c, 0, 67, 0
1, 65760, Note_on_c, 0, 51, 0
1, 65760, Note_on_c, 0, 58, 0
1, 65760, Note_on_c, 0, 67, 39
1, 65760, Note_on_c, 0, 70, 49
1, 65760, Note_on_c, 0, 63, 31
1, 65760, Note_on_c, 0, 51, 27
1, 65838, Control_c, 0, 64, 127
1, 66240, Tempo, 463320
1, 66240, Note_on_c, 0, 51, 0
1, 66240, Note_on_c, 0, 67, 0
1, 66240, Note_on_c, 0, 70, 0
1, 66240, Note_on_c, 0, 63, 0
1, 66240, Note_on_c, 0, 67, 40
1, 66240, Note_on_c, 0, 70, 40
1, 66240, Note_on_c, 0, 73, 50
1, 66240, Note_on_c, 0, 63, 33
1, 66240, Note_on_c, 0, 56, 29
1, 66257, Control_c, 0, 64, 0
1, 66694, Control_c, 0, 64, 127
1, 67680, Note_on_c, 0, 73, 0
1, 67680, Note_on_c, 0, 67, 0
1, 67680, Note_on_c, 0, 70, 0
1, 67680, Note_on_c, 0, 68, 36
1, 67680, Note_on_c, 0, 72, 45
1, 67760, Control_c, 0, 64, 0
1, 68160, Note_on_c, 0, 72, 0
1, 68160, Note_on_c, 0, 56, 0
1, 68160, Note_on_c, 0, 63, 0
1, 68160, Note_on_c, 0, 68, 0
1, 68640, Tempo, 521105
1, 68640, Note_on_c, 0, 68, 64
1, 68640, Note_on_c, 0, 72, 64
1, 68640, Note_on_c, 0, 77, 80
1, 68640, Note_on_c, 0, 56, 51
1, 68640, Note_on_c, 0, 60, 51
1, 68640, Note_on_c, 0, 65, 57
1, 68880, Control_c, 0, 64, 127
1, 69120, Tempo, 454545
1, 69120, Note_on_c, 0, 65, 0
1, 69120, Note_on_c, 0, 72, 0
1, 69120, Note_on_c, 0, 77, 0
1, 69120, Note_on_c, 0, 68, 0
1, 69120, Note_on_c, 0, 60, 0
1, 69120, Note_on_c, 0, 56, 0
1, 69120, Note_on_c, 0, 68, 64
1, 69120, Note_on_c, 0, 72, 64
1, 69120, Note_on_c, 0, 77, 80
1, 69120, Note_on_c, 0, 56, 51
1, 69120, Note_on_c, 0, 60, 51
1, 69120, Note_on_c, 0, 65, 57
1, 70080, Tempo, 573394
1, 70080, Note_on_c, 0, 65, 0
1, 70080, Note_on_c, 0, 72, 0
1, 70080, Note_on_c, 0, 77, 0
1, 70080, Note_on_c, 0, 68, 0
1, 70080, Note_on_c, 0, 60, 0
1, 70080, Note_on_c, 0, 56, 0
1, 70080, Note_on_c, 0, 68, 64
1, 70080, Note_on_c, 0, 72, 64
1, 70080, Note_on_c, 0, 77, 80
1, 70080, Note_on_c, 0, 56, 51
1, 70080, Note_on_c, 0, 60, 51
1, 70080, Note_on_c, 0, 65, 57
1, 70560, Tempo, 454545
1, 70560, Note_on_c, 0, 65, 0
1, 70560, Note_on_c, 0, 72, 0
1, 70560, Note_on_c, 0, 77, 0
1, 70560, Note_on_c, 0, 68, 0
1, 70560, Note_on_c, 0, 60, 0
1, 70560, Note_on_c, 0, 56, 0
1, 70560, Note_on_c, 0, 80, 86
1, 70560, Note_on_c, 0, 68, 69
1, 70560, Note_on_c, 0, 72, 69
1, 70560, Control_c, 0, 64, 0
1, 70560, Note_on_c, 0, 56, 54
1, 70560, Note_on_c, 0, 60, 61
1, 70786, Control_c, 0, 64, 127
1, 71280, Note_on_c, 0, 80, 0
1, 71280, Note_on_c, 0, 67, 64
1, 71280, Note_on_c, 0, 79, 80
1, 71520, Tempo, 518852
1, 71520, Note_on_c, 0, 79, 0
1, 71520, Note_on_c, 0, 72, 0
1, 71520, Note_on_c, 0, 60, 0
1, 71520, Note_on_c, 0, 68, 0
1, 71520, Note_on_c, 0, 67, 0
1, 71520, Note_on_c, 0, 56, 0
1, 71520, Note_on_c, 0, 77, 75
1, 71520, Note_on_c, 0, 72, 60
1, 71520, Note_on_c, 0, 68, 60
1, 71520, Note_on_c, 0, 65, 60
1, 71520, Note_on_c, 0, 56, 48
1, 71520, Note_on_c, 0, 60, 54
1, 71548, Control_c, 0, 64, 0
1, 71690, Control_c, 0, 64, 127
1, 72000, Tempo, 454545
1, 72000, Note_on_c, 0, 60, 0
1, 72000, Note_on_c, 0, 72, 0
1, 72000, Note_on_c, 0, 68, 0
1, 72000, Note_on_c, 0, 77, 0
1, 72000, Note_on_c, 0, 56, 0
1, 72000, Note_on_c, 0, 65, 0
1, 72000, Note_on_c, 0, 77, 80
1, 72000, Note_on_c, 0, 73, 64
1, 72000, Note_on_c, 0, 70, 64
1, 72000, Note_on_c, 0, 67, 64
1, 72000, Note_on_c, 0, 65, 57
1, 72000, Note_on_c, 0, 61, 51
1, 72000, Note_on_c, 0, 58, 51
1, 72000, Note_on_c, 0, 55, 51
1, 72080, Control_c, 0, 64, 0
1, 72534, Control_c, 0, 64, 127
1, 74400, Tempo, 562641
1, 74400, Note_on_c, 0, 65, 0
1, 74400, Note_on_c, 0, 77, 0
1, 74400, Note_on_c, 0, 76, 54
1, 74400, Note_on_c, 0, 64, 44
1, 74412, Control_c, 0, 64, 0
1, 74880, Tempo, 508475
1, 74880, Note_on_c, 0, 64, 0
1, 74880, Note_on_c, 0, 55, 0
1, 74880, Note_on_c, 0, 58, 0
1, 74880, Note_on_c, 0, 70, 0
1, 74880, Note_on_c, 0, 67, 0
1, 74880, Note_on_c, 0, 73, 0
1, 74880, Note_on_c, 0, 61, 0
1, 74880, Note_on_c, 0, 76, 0
1, 74880, Note_on_c, 0, 70, 42
1, 74880, Note_on_c, 0, 75, 47
1, 74880, Note_on_c, 0, 63, 36
1, 74880, Note_on_c, 0, 55, 32
1, 75109, Control_c, 0, 64, 127
1, 75840, Tempo, 608273
1, 75840, Note_on_c, 0, 75, 0
1, 75840, Note_on_c, 0, 74, 43
1, 76320, Tempo, 500000
1, 76320, Note_on_c, 0, 74, 0
1, 76320, Note_on_c, 0, 73, 37
1, 76347, Control_c, 0, 64, 0
1, 77280, Tempo, 608273
1, 77280, Note_on_c, 0, 73, 0
1, 77280, Note_on_c, 0, 70, 0
1, 77280, Note_on_c, 0, 63, 0
1, 77280, Note_on_c, 0, 55, 0
1, 77280, Note_on_c, 0, 63, 36
1, 77280, Note_on_c, 0, 68, 36
1, 77280, Note_on_c, 0, 72, 45
1, 77280, Note_on_c, 0, 56, 32
1, 77520, Control_c, 0, 64, 127
1, 77760, Tempo, 465188
1, 77760, Note_on_c, 0, 56, 0
1, 77760, Note_on_c, 0, 63, 0
1, 77760, Note_on_c, 0, 68, 0
1, 77760, Note_on_c, 0, 72, 0
1, 77760, Note_on_c, 0, 65, 37
1, 77760, Note_on_c, 0, 68, 37
1, 77760, Note_on_c, 0, 72, 47
1, 77760, Note_on_c, 0, 61, 33
1, 77773, Control_c, 0, 64, 0
1, 78027, Control_c, 0, 64, 127
1, 79200, Note_on_c, 0, 72, 0
1, 79200, Note_on_c, 0, 70, 44
1, 79203, Control_c, 0, 64, 0
1, 79680, Note_on_c, 0, 70, 0
1, 79680, Note_on_c, 0, 61, 0
1, 79680, Note_on_c, 0, 68, 0
1, 79680, Note_on_c, 0, 65, 0
1, 80160, Tempo, 590319
1, 80160, Note_on_c, 0, 77, 50
1, 80160, Note_on_c, 0, 70, 40
1, 80160, Note_on_c, 0, 67, 40
1, 80160, Note_on_c, 0, 65, 36
1, 80160, Note_on_c, 0, 61, 32
1, 80362, Control_c, 0, 64, 127
1, 80640, Tempo, 465188
1, 80640, Note_on_c, 0, 61, 0
1, 80640, Note_on_c, 0, 67, 0
1, 80640, Note_on_c, 0, 77, 0
1, 80640, Note_on_c, 0, 70, 0
1, 80640, Note_on_c, 0, 65, 0
1, 80640, Note_on_c, 0, 68, 41
1, 80640, Note_on_c, 0, 72, 41
1, 80640, Note_on_c, 0, 77, 52
1, 80640, Note_on_c, 0, 65, 36
1, 80640, Note_on_c, 0, 60, 32
1, 80650, Control_c, 0, 64, 0
1, 80987, Control_c, 0, 64, 127
1, 82080, Note_on_c, 0, 65, 0
1, 82080, Note_on_c, 0, 77, 0
1, 82080, Note_on_c, 0, 75, 48
1, 82080, Note_on_c, 0, 63, 34
1, 82100, Control_c, 0, 64, 0
1, 82560, Note_on_c, 0, 63, 0
1, 82560, Note_on_c, 0, 68, 0
1, 82560, Note_on_c, 0, 60, 0
1, 82560, Note_on_c, 0, 72, 0
1, 82560, Note_on_c, 0, 75, 0
1, 82688, Control_c, 0, 64, 127
1, 82800, Tempo, 401687
1, 82800, Note_on_c, 0, 60, 38
1, 82800, Note_on_c, 0, 63, 48
1, 82800, Note_on_c, 0, 56, 37
1, 83040, Note_on_c, 0, 63, 0
1, 83040, Note_on_c, 0, 68, 50
1, 83040, Note_on_c, 0, 51, 39
1, 83280, Note_on_c, 0, 51, 0
1, 83280, Note_on_c, 0, 68, 0
1, 83280, Note_on_c, 0, 72, 52
1, 83280, Note_on_c, 0, 48, 40
1, 83520, Tempo, 446097
1, 83520, Note_on_c, 0, 48, 0
1, 83520, Note_on_c, 0, 60, 0
1, 83520, Note_on_c, 0, 56, 0
1, 83520, Note_on_c, 0, 72, 0
1, 83520, Note_on_c, 0, 61, 43
1, 83520, Note_on_c, 0, 63, 43
1, 83520, Note_on_c, 0, 67, 43
1, 83520, Note_on_c, 0, 73, 54
1, 83520, Control_c, 0, 64, 0
1, 83520, Note_on_c, 0, 46, 33
1, 83520, Note_on_c, 0, 51, 33
1, 83520, Note_on_c, 0, 55, 37
1, 83840, Control_c, 0, 64, 127
1, 84480, Tempo, 560015
1, 84480, Note_on_c, 0, 55, 0
1, 84480, Note_on_c, 0, 46, 0
1, 84480, Note_on_c, 0, 63, 0
1, 84480, Note_on_c, 0, 67, 0
1, 84480, Note_on_c, 0, 61, 0
1, 84480, Note_on_c, 0, 51, 0
1, 84480, Note_on_c, 0, 73, 0
1, 84480, Note_on_c, 0, 60, 45
1, 84480, Note_on_c, 0, 63, 45
1, 84480, Note_on_c, 0, 68, 45
1, 84480, Note_on_c, 0, 72, 56
1, 84480, Note_on_c, 0, 44, 36
1, 84480, Note_on_c, 0, 51, 36
1, 84480, Note_on_c, 0, 56, 40
1, 84496, Control_c, 0, 64, 0
1, 84774, Control_c, 0, 64, 127
1, 84960, Tempo, 434468
1, 84960, Note_on_c, 0, 56, 0
1, 84960, Note_on_c, 0, 44, 0
1, 84960, Note_on_c, 0, 63, 0
1, 84960, Note_on_c, 0, 68, 0
1, 84960, Note_on_c, 0, 60, 0
1, 84960, Note_on_c, 0, 51, 0
1, 84960, Note_on_c, 0, 72, 0
1, 84960, Note_on_c, 0, 58, 45
1, 84960, Note_on_c, 0, 63, 45
1, 84960, Note_on_c, 0, 70, 57
1, 84960, Note_on_c, 0, 43, 36
1, 84960, Note_on_c, 0, 51, 36
1, 84960, Note_on_c, 0, 55, 41
1, 84973, Control_c, 0, 64, 0
1, 85159, Control_c, 0, 64, 127
1, 85920, Tempo, 627353
1, 85920, Note_on_c, 0, 55, 0
1, 85920, Note_on_c, 0, 63, 0
1, 85920, Note_on_c, 0, 70, 0
1, 85920, Note_on_c, 0, 58, 0
1, 85920, Note_on_c, 0, 51, 0
1, 85920, Note_on_c, 0, 43, 0
1, 85920, Note_on_c, 0, 62, 49
1, 85920, Note_on_c, 0, 70, 49
1, 85920, Note_on_c, 0, 68, 49
1, 85920, Note_on_c, 0, 74, 62
1, 85920, Note_on_c, 0, 41, 40
1, 85920, Note_on_c, 0, 46, 40
1, 85920, Note_on_c, 0, 53, 45
1, 85933, Control_c, 0, 64, 0
1, 86119, Control_c, 0, 64, 127
1, 86400, Tempo, 506885
1, 86400, Note_on_c, 0, 53, 0
1, 86400, Note_on_c, 0, 41, 0
1, 86400, Note_on_c, 0, 70, 0
1, 86400, Note_on_c, 0, 68, 0
1, 86400, Note_on_c, 0, 62, 0
1, 86400, Note_on_c, 0, 46, 0
1, 86400, Note_on_c, 0, 74, 0
1, 86400, Note_on_c, 0, 62, 55
1, 86400, Note_on_c, 0, 70, 55
1, 86400, Note_on_c, 0, 68, 55
1, 86400, Note_on_c, 0, 74, 69
1, 86400, Note_on_c, 0, 39, 43
1, 86400, Note_on_c, 0, 46, 43
1, 86400, Note_on_c, 0, 51, 48
1, 86407, Control_c, 0, 64, 0
1, 86827, Control_c, 0, 64, 127
1, 87840, Tempo, 465188
1, 87840, Note_on_c, 0, 74, 0
1, 87840, Note_on_c, 0, 68, 0
1, 87840, Note_on_c, 0, 62, 0
1, 87840, Note_on_c, 0, 67, 36
1, 87840, Note_on_c, 0, 63, 36
1, 87840, Note_on_c, 0, 75, 45
1, 87843, Control_c, 0, 64, 0
1, 88320, Note_on_c, 0, 75, 0
1, 88320, Note_on_c, 0, 67, 0
1, 88320, Note_on_c, 0, 46, 0
1, 88320, Note_on_c, 0, 51, 0
1, 88320, Note_on_c, 0, 70, 0
1, 88320, Note_on_c, 0, 63, 0
1, 88320, Note_on_c, 0, 39, 0
1, 88800, Tempo, 611372
1, 88800, Note_on_c, 0, 63, 58
1, 88800, Note_on_c, 0, 68, 58
1, 88800, Note_on_c, 0, 72, 73
1, 88800, Note_on_c, 0, 32, 45
1, 88800, Note_on_c, 0, 44, 50
1, 89040, Control_c, 0, 64, 127
1, 89280, Tempo, 451128
1, 89280, Note_on_c, 0, 44, 0
1, 89280, Note_on_c, 0, 72, 0
1, 89280, Note_on_c, 0, 63, 0
1, 89280, Note_on_c, 0, 68, 0
1, 89280, Note_on_c, 0, 32, 0
1, 89280, Note_on_c, 0, 64, 64
1, 89280, Note_on_c, 0, 68, 64
1, 89280, Note_on_c, 0, 72, 81
1, 89280, Note_on_c, 0, 37, 51
1, 89280, Note_on_c, 0, 49, 57
1, 89292, Control_c, 0, 64, 0
1, 89555, Control_c, 0, 64, 127
1, 90480, Note_on_c, 0, 72, 0
1, 90480, Note_on_c, 0, 71, 53
1, 90720, Tempo, 461538
1, 90720, Note_on_c, 0, 71, 0
1, 90720, Note_on_c, 0, 70, 50
1, 90723, Control_c, 0, 64, 0
1, 91200, Note_on_c, 0, 70, 0
1, 91200, Note_on_c, 0, 37, 0
1, 91200, Note_on_c, 0, 64, 0
1, 91200, Note_on_c, 0, 68, 0
1, 91200, Note_on_c, 0, 49, 0
1, 91680, Tempo, 539860
1, 91680, Note_on_c, 0, 63, 58
1, 91680, Note_on_c, 0, 68, 58
1, 91680, Note_on_c, 0, 72, 73
1, 91680, Note_on_c, 0, 32, 45
1, 91680, Note_on_c, 0, 44, 50
1, 91846, Control_c, 0, 64, 127
1, 92160, Tempo, 451128
1, 92160, Note_on_c, 0, 44, 0
1, 92160, Note_on_c, 0, 72, 0
1, 92160, Note_on_c, 0, 63, 0
1, 92160, Note_on_c, 0, 68, 0
1, 92160, Note_on_c, 0, 32, 0
1, 92160, Note_on_c, 0, 64, 64
1, 92160, Note_on_c, 0, 68, 64
1, 92160, Note_on_c, 0, 72, 81
1, 92160, Note_on_c, 0, 37, 51
1, 92160, Note_on_c, 0, 49, 57
1, 92168, Control_c, 0, 64, 0
1, 92457, Control_c, 0, 64, 127
1, 93360, Note_on_c, 0, 72, 0
1, 93360, Note_on_c, 0, 71, 54
1, 93600, Tempo, 442804
1, 93600, Note_on_c, 0, 71, 0
1, 93600, Note_on_c, 0, 70, 51
1, 93604, Control_c, 0, 64, 0
1, 94080, Tempo, 439560
1, 94080, Note_on_c, 0, 70, 0
1, 94080, Note_on_c, 0, 37, 0
1, 94080, Note_on_c, 0, 64, 0
1, 94080, Note_on_c, 0, 68, 0
1, 94080, Note_on_c, 0, 49, 0
1, 94560, Tempo, 461538
1, 94560, Note_on_c, 0, 64, 72
1, 94560, Note_on_c, 0, 68, 72
1, 94560, Note_on_c, 0, 71, 89
1, 94560, Control_c, 0, 64, 127
1, 94560, Note_on_c, 0, 38, 55
1, 94560, Note_on_c, 0, 50, 62
1, 95040, Key_signature, 4, "major"
1, 95511, Note_on_c, 0, 50, 0
1, 95511, Note_on_c, 0, 71, 0
1, 95511, Note_on_c, 0, 64, 0
1, 95511, Note_on_c, 0, 68, 0
1, 95511, Note_on_c, 0, 38, 0
1, 95520, Tempo, 449438
1, 95520, Note_on_c, 0, 64, 72
1, 95520, Note_on_c, 0, 68, 72
1, 95520, Note_on_c, 0, 71, 90
1, 95520, Note_on_c, 0, 38, 56
1, 95520, Note_on_c, 0, 50, 63
1, 95976, Note_on_c, 0, 50, 0
1, 95976, Note_on_c, 0, 71, 0
1, 95976, Note_on_c, 0, 64, 0
1, 95976, Note_on_c, 0, 68, 0
1, 95976, Note_on_c, 0, 38, 0
1, 96000, Note_on_c, 0, 64, 71
1, 96000, Note_on_c, 0, 68, 71
1, 96000, Note_on_c, 0, 71, 88
1, 96000, Note_on_c, 0, 38, 56
1, 96000, Note_on_c, 0, 50, 63
1, 96456, Note_on_c, 0, 50, 0
1, 96456, Note_on_c, 0, 71, 0
1, 96456, Note_on_c, 0, 64, 0
1, 96456, Note_on_c, 0, 68, 0
1, 96456, Note_on_c, 0, 38, 0
1, 96480, Tempo, 439560
1, 96480, Note_on_c, 0, 64, 66
1, 96480, Note_on_c, 0, 68, 68
1, 96480, Note_on_c, 0, 71, 85
1, 96480, Control_c, 0, 64, 0
1, 96480, Note_on_c, 0, 38, 54
1, 96480, Note_on_c, 0, 50, 61
1, 96709, Control_c, 0, 64, 127
1, 96936, Note_on_c, 0, 50, 0
1, 96936, Note_on_c, 0, 71, 0
1, 96936, Note_on_c, 0, 64, 0
1, 96936, Note_on_c, 0, 68, 0
1, 96936, Note_on_c, 0, 38, 0
1, 96960, Tempo, 444444
1, 96960, Note_on_c, 0, 64, 70
1, 96960, Note_on_c, 0, 69, 74
1, 96960, Note_on_c, 0, 73, 93
1, 96960, Note_on_c, 0, 37, 60
1, 96960, Note_on_c, 0, 49, 67
1, 96974, Control_c, 0, 64, 0
1, 97166, Control_c, 0, 64, 127
1, 97440, Tempo, 447761
1, 97440, Note_on_c, 0, 49, 0
1, 97440, Note_on_c, 0, 73, 0
1, 97440, Note_on_c, 0, 64, 0
1, 97440, Note_on_c, 0, 69, 0
1, 97440, Note_on_c, 0, 37, 0
1, 97440, Note_on_c, 0, 64, 73
1, 97440, Note_on_c, 0, 71, 79
1, 97440, Note_on_c, 0, 74, 98
1, 97440, Note_on_c, 0, 35, 63
1, 97440, Note_on_c, 0, 47, 70
1, 97454, Control_c, 0, 64, 0
1, 97669, Control_c, 0, 64, 127
1, 97920, Tempo, 451128
1, 97920, Note_on_c, 0, 47, 0
1, 97920, Note_on_c, 0, 74, 0
1, 97920, Note_on_c, 0, 64, 0
1, 97920, Note_on_c, 0, 71, 0
1, 97920, Note_on_c, 0, 35, 0
1, 97920, Note_on_c, 0, 64, 77
1, 97920, Note_on_c, 0, 73, 79
1, 97920, Note_on_c, 0, 76, 102
1, 97920, Note_on_c, 0, 33, 61
1, 97920, Note_on_c, 0, 45, 72
1, 97929, Control_c, 0, 64, 0
1, 98217, Control_c, 0, 64, 127
1, 98400, Note_on_c, 0, 45, 0
1, 98400, Note_on_c, 0, 76, 0
1, 98400, Note_on_c, 0, 64, 0
1, 98400, Note_on_c, 0, 73, 0
1, 98400, Note_on_c, 0, 33, 0
1, 98400, Note_on_c, 0, 64, 71
1, 98400, Note_on_c, 0, 71, 74
1, 98400, Note_on_c, 0, 74, 93
1, 98400, Note_on_c, 0, 47, 66
1, 98400, Note_on_c, 0, 35, 59
1, 98413, Control_c, 0, 64, 0
1, 98675, Control_c, 0, 64, 127
1, 98880, Tempo, 525670
1, 98880, Note_on_c, 0, 35, 0
1, 98880, Note_on_c, 0, 74, 0
1, 98880, Note_on_c, 0, 64, 0
1, 98880, Note_on_c, 0, 71, 0
1, 98880, Note_on_c, 0, 47, 0
1, 98880, Note_on_c, 0, 64, 64
1, 98880, Note_on_c, 0, 69, 64
1, 98880, Note_on_c, 0, 73, 72
1, 98880, Note_on_c, 0, 37, 51
1, 98880, Note_on_c, 0, 49, 57
1, 98891, Control_c, 0, 64, 0
1, 99177, Control_c, 0, 64, 127
1, 99360, Tempo, 444444
1, 99360, Note_on_c, 0, 49, 0
1, 99360, Note_on_c, 0, 73, 0
1, 99360, Note_on_c, 0, 64, 0
1, 99360, Note_on_c, 0, 69, 0
1, 99360, Note_on_c, 0, 37, 0
1, 99360, Note_on_c, 0, 63, 46
1, 99360, Note_on_c, 0, 68, 46
1, 99360, Note_on_c, 0, 71, 58
1, 99360, Note_on_c, 0, 39, 35
1, 99360, Note_on_c, 0, 51, 39
1, 99373, Control_c, 0, 64, 0
1, 99680, Control_c, 0, 64, 127
1, 100800, Note_on_c, 0, 71, 0
1, 100800, Note_on_c, 0, 68, 0
1, 100800, Note_on_c, 0, 67, 42
1, 100800, Note_on_c, 0, 70, 47
1, 100805, Control_c, 0, 64, 0
1, 101280, Tempo, 485830
1, 101760, Tempo, 461538
1, 101760, Note_on_c, 0, 70, 0
1, 101760, Note_on_c, 0, 63, 0
1, 101760, Note_on_c, 0, 51, 0
1, 101760, Note_on_c, 0, 39, 0
1, 101760, Note_on_c, 0, 67, 0
1, 101760, Note_on_c, 0, 52, 48
1, 101760, Note_on_c, 0, 50, 48
1, 101760, Note_on_c, 0, 56, 48
1, 101760, Note_on_c, 0, 59, 60
1, 101838, Control_c, 0, 64, 127
1, 102701, Note_on_c, 0, 59, 0
1, 102701, Note_on_c, 0, 52, 0
1, 102701, Note_on_c, 0, 50, 0
1, 102701, Note_on_c, 0, 56, 0
1, 102720, Tempo, 449438
1, 102720, Note_on_c, 0, 50, 35
1, 102720, Note_on_c, 0, 52, 35
1, 102720, Note_on_c, 0, 56, 35
1, 102720, Note_on_c, 0, 59, 44
1, 103176, Note_on_c, 0, 59, 0
1, 103176, Note_on_c, 0, 50, 0
1, 103176, Note_on_c, 0, 52, 0
1, 103176, Note_on_c, 0, 56, 0
1, 103200, Note_on_c, 0, 50, 35
1, 103200, Note_on_c, 0, 52, 35
1, 103200, Note_on_c, 0, 56, 35
1, 103200, Note_on_c, 0, 59, 44
1, 103656, Note_on_c, 0, 59, 0
1, 103656, Note_on_c, 0, 50, 0
1, 103656, Note_on_c, 0, 52, 0
1, 103656, Note_on_c, 0, 56, 0
1, 103680, Note_on_c, 0, 50, 32
1, 103680, Note_on_c, 0, 52, 32
1, 103680, Note_on_c, 0, 56, 32
1, 103680, Note_on_c, 0, 59, 41
1, 104160, Tempo, 459770
1, 104160, Note_on_c, 0, 59, 0
1, 104160, Note_on_c, 0, 50, 0
1, 104160, Note_on_c, 0, 52, 0
1, 104160, Note_on_c, 0, 56, 0
1, 104160, Control_c, 0, 64, 0
1, 104160, Note_on_c, 0, 49, 35
1, 104160, Note_on_c, 0, 52, 35
1, 104160, Note_on_c, 0, 57, 35
1, 104160, Note_on_c, 0, 61, 44
1, 104316, Control_c, 0, 64, 127
1, 104640, Tempo, 487805
1, 104640, Note_on_c, 0, 61, 0
1, 104640, Note_on_c, 0, 49, 0
1, 104640, Note_on_c, 0, 52, 0
1, 104640, Note_on_c, 0, 57, 0
1, 104640, Note_on_c, 0, 47, 35
1, 104640, Note_on_c, 0, 52, 35
1, 104640, Note_on_c, 0, 62, 44
1, 104640, Note_on_c, 0, 59, 35
1, 104654, Control_c, 0, 64, 0
1, 104725, Control_c, 0, 64, 127
1, 104880, Tempo, 631579
1, 105000, Tempo, 480000
1, 105000, Note_on_c, 0, 59, 0
1, 105000, Note_on_c, 0, 47, 0
1, 105000, Note_on_c, 0, 52, 0
1, 105000, Note_on_c, 0, 62, 0
1, 105000, Note_on_c, 0, 66, 48
1, 105120, Tempo, 459770
1, 105120, Note_on_c, 0, 66, 0
1, 105120, Note_on_c, 0, 45, 36
1, 105120, Note_on_c, 0, 52, 36
1, 105120, Note_on_c, 0, 61, 41
1, 105120, Note_on_c, 0, 64, 46
1, 105122, Control_c, 0, 64, 0
1, 105303, Control_c, 0, 64, 127
1, 105600, Note_on_c, 0, 64, 0
1, 105600, Note_on_c, 0, 45, 0
1, 105600, Note_on_c, 0, 52, 0
1, 105600, Note_on_c, 0, 61, 0
1, 105600, Note_on_c, 0, 47, 35
1, 105600, Note_on_c, 0, 52, 35
1, 105600, Note_on_c, 0, 59, 35
1, 105600, Note_on_c, 0, 62, 44
1, 105607, Control_c, 0, 64, 0
1, 105806, Control_c, 0, 64, 127
1, 106080, Tempo, 562641
1, 106080, Note_on_c, 0, 62, 0
1, 106080, Note_on_c, 0, 47, 0
1, 106080, Note_on_c, 0, 52, 0
1, 106080, Note_on_c, 0, 59, 0
1, 106080, Note_on_c, 0, 49, 31
1, 106080, Note_on_c, 0, 52, 31
1, 106080, Note_on_c, 0, 57, 31
1, 106080, Note_on_c, 0, 61, 39
1, 106098, Control_c, 0, 64, 0
1, 106286, Control_c, 0, 64, 127
1, 106560, Key_signature, -4, "major"
1, 106560, Tempo, 487805
1, 106560, Note_on_c, 0, 61, 0
1, 106560, Note_on_c, 0, 49, 0
1, 106560, Note_on_c, 0, 52, 0
1, 106560, Note_on_c, 0, 57, 0
1, 106560, Note_on_c, 0, 51, 30
1, 106560, Note_on_c, 0, 56, 30
1, 106560, Note_on_c, 0, 59, 34
1, 106576, Control_c, 0, 64, 0
1, 106960, Control_c, 0, 64, 127
1, 108000, Tempo, 512821
1, 108000, Note_on_c, 0, 59, 0
1, 108000, Note_on_c, 0, 56, 0
1, 108000, Note_on_c, 0, 39, 25
1, 108000, Note_on_c, 0, 55, 25
1, 108000, Note_on_c, 0, 58, 28
1, 108054, Control_c, 0, 64, 0
1, 108480, Control_c, 0, 64, 127
1, 109440, Note_on_c, 0, 58, 0
1, 109440, Note_on_c, 0, 51, 0
1, 109440, Note_on_c, 0, 39, 0
1, 109440, Note_on_c, 0, 55, 0
1, 109440, Note_on_c, 0, 32, 25
1, 109440, Note_on_c, 0, 44, 25
1, 109440, Note_on_c, 0, 56, 28
1, 109520, Control_c, 0, 64, 0
1, 110000, Control_c, 0, 64, 127
1, 111840, Tempo, 489796
1, 111840, Marker_t, "Trio"
1, 111840, Note_on_c, 0, 56, 0
1, 111840, Note_on_c, 0, 44, 0
1, 111840, Note_on_c, 0, 32, 0
1, 111840, Note_on_c, 0, 65, 45
1, 111840, Control_c, 0, 91, 127
1, 111840, Control_c, 0, 64, 0
1, 111840, Note_on_c, 0, 37, 27
1, 111840, Note_on_c, 0, 44, 27
1, 111840, Note_on_c, 0, 49, 27
1, 111840, Note_on_c, 0, 53, 27
1, 111840, Note_on_c, 0, 56, 34
1, 111840, Control_c, 0, 91, 127
1, 112320, Key_signature, -5, "major"
1, 112320, Tempo, 480000
1, 112320, Note_on_c, 0, 56, 0
1, 112320, Note_on_c, 0, 37, 0
1, 112320, Note_on_c, 0, 44, 0
1, 112320, Note_on_c, 0, 65, 0
1, 112320, Note_on_c, 0, 53, 0
1, 112320, Note_on_c, 0, 49, 0
1, 112320, Note_on_c, 0, 65, 45
1, 112320, Control_c, 0, 64, 127
1, 112320, Note_on_c, 0, 37, 27
1, 112320, Note_on_c, 0, 44, 27
1, 112320, Note_on_c, 0, 49, 27
1, 112320, Note_on_c, 0, 53, 27
1, 112320, Note_on_c, 0, 56, 34
1, 113280, Note_on_c, 0, 65, 0
1, 113280, Note_on_c, 0, 66, 47
1, 113520, Note_on_c, 0, 66, 0
1, 113520, Note_on_c, 0, 65, 45
1, 113760, Tempo, 480000
1, 113760, Note_on_c, 0, 65, 0
1, 113760, Note_on_c, 0, 44, 0
1, 113760, Note_on_c, 0, 49, 0
1, 113760, Note_on_c, 0, 37, 0
1, 113760, Note_on_c, 0, 56, 0
1, 113760, Note_on_c, 0, 53, 0
1, 113760, Note_on_c, 0, 63, 46
1, 113760, Note_on_c, 0, 39, 27
1, 113760, Note_on_c, 0, 44, 30
1, 113760, Note_on_c, 0, 48, 27
1, 113760, Note_on_c, 0, 56, 34
1, 113760, Note_on_c, 0, 54, 27
1, 113778, Control_c, 0, 64, 0
1, 113986, Control_c, 0, 64, 127
1, 114720, Note_on_c, 0, 63, 0
1, 114720, Note_on_c, 0, 65, 44
1, 114960, Note_on_c, 0, 65, 0
1, 114960, Note_on_c, 0, 63, 42
1, 115200, Tempo, 476190
1, 115200, Note_on_c, 0, 63, 0
1, 115200, Note_on_c, 0, 44, 0
1, 115200, Note_on_c, 0, 48, 0
1, 115200, Note_on_c, 0, 39, 0
1, 115200, Note_on_c, 0, 54, 0
1, 115200, Note_on_c, 0, 56, 0
1, 115200, Control_c, 0, 64, 0
1, 115200, Note_on_c, 0, 41, 27
1, 115200, Note_on_c, 0, 44, 27
1, 115200, Note_on_c, 0, 49, 30
1, 115200, Note_on_c, 0, 61, 34
1, 115200, Note_on_c, 0, 53, 30
1, 115200, Note_on_c, 0, 56, 30
1, 115560, Note_on_c, 0, 56, 0
1, 115560, Note_on_c, 0, 44, 0
1, 115560, Note_on_c, 0, 49, 0
1, 115560, Note_on_c, 0, 41, 0
1, 115560, Note_on_c, 0, 53, 0
1, 115560, Note_on_c, 0, 61, 0
1, 115680, Note_on_c, 0, 42, 28
1, 115680, Note_on_c, 0, 46, 28
1, 115680, Note_on_c, 0, 49, 28
1, 115680, Note_on_c, 0, 61, 36
1, 115680, Note_on_c, 0, 58, 28
1, 115680, Note_on_c, 0, 54, 28
1, 116040, Note_on_c, 0, 54, 0
1, 116040, Note_on_c, 0, 46, 0
1, 116040, Note_on_c, 0, 49, 0
1, 116040, Note_on_c, 0, 42, 0
1, 116040, Note_on_c, 0, 58, 0
1, 116040, Note_on_c, 0, 61, 0
1, 116160, Tempo, 526316
1, 116160, Note_on_c, 0, 43, 30
1, 116160, Note_on_c, 0, 46, 30
1, 116160, Note_on_c, 0, 49, 30
1, 116160, Note_on_c, 0, 63, 38
1, 116160, Note_on_c, 0, 61, 34
1, 116160, Note_on_c, 0, 58, 30
1, 116160, Note_on_c, 0, 51, 30
1, 116520, Note_on_c, 0, 51, 0
1, 116520, Note_on_c, 0, 61, 0
1, 116520, Note_on_c, 0, 63, 0
1, 116520, Note_on_c, 0, 46, 0
1, 116520, Note_on_c, 0, 43, 0
1, 116520, Note_on_c, 0, 58, 0
1, 116640, Tempo, 502092
1, 116640, Note_on_c, 0, 49, 0
1, 116640, Note_on_c, 0, 44, 31
1, 116640, Note_on_c, 0, 48, 31
1, 116640, Note_on_c, 0, 51, 31
1, 116640, Note_on_c, 0, 56, 35
1, 117600, Tempo, 495868
1, 117600, Note_on_c, 0, 56, 0
1, 117600, Note_on_c, 0, 44, 0
1, 117600, Note_on_c, 0, 48, 0
1, 117600, Note_on_c, 0, 51, 0
1, 117600, Note_on_c, 0, 56, 40
1, 117600, Note_on_c, 0, 61, 40
1, 117600, Note_on_c, 0, 68, 50
1, 117600, Note_on_c, 0, 41, 29
1, 117600, Note_on_c, 0, 49, 29
1, 117600, Note_on_c, 0, 53, 33
1, 117787, Control_c, 0, 64, 127
1, 118056, Note_on_c, 0, 53, 0
1, 118056, Note_on_c, 0, 61, 0
1, 118056, Note_on_c, 0, 68, 0
1, 118056, Note_on_c, 0, 56, 0
1, 118056, Note_on_c, 0, 49, 0
1, 118056, Note_on_c, 0, 41, 0
1, 118080, Tempo, 461538
1, 118080, Note_on_c, 0, 56, 40
1, 118080, Note_on_c, 0, 61, 40
1, 118080, Note_on_c, 0, 68, 50
1, 118080, Note_on_c, 0, 41, 29
1, 118080, Note_on_c, 0, 49, 29
1, 118080, Note_on_c, 0, 53, 33
1, 118560, Control_c, 0, 64, 0
1, 119040, Note_on_c, 0, 53, 0
1, 119040, Note_on_c, 0, 61, 0
1, 119040, Note_on_c, 0, 68, 0
1, 119040, Note_on_c, 0, 56, 0
1, 119040, Note_on_c, 0, 49, 0
1, 119040, Note_on_c, 0, 41, 0
1, 119040, Note_on_c, 0, 58, 44
1, 119040, Note_on_c, 0, 70, 55
1, 119040, Note_on_c, 0, 61, 44
1, 119040, Note_on_c, 0, 42, 32
1, 119040, Note_on_c, 0, 54, 36
1, 119040, Note_on_c, 0, 49, 32
1, 119139, Control_c, 0, 64, 127
1, 119280, Note_on_c, 0, 54, 0
1, 119280, Note_on_c, 0, 42, 0
1, 119280, Note_on_c, 0, 70, 0
1, 119280, Note_on_c, 0, 58, 0
1, 119280, Note_on_c, 0, 56, 40
1, 119280, Note_on_c, 0, 68, 51
1, 119280, Note_on_c, 0, 41, 28
1, 119280, Note_on_c, 0, 53, 32
1, 119520, Tempo, 472441
1, 119520, Note_on_c, 0, 53, 0
1, 119520, Note_on_c, 0, 49, 0
1, 119520, Note_on_c, 0, 56, 0
1, 119520, Note_on_c, 0, 61, 0
1, 119520, Note_on_c, 0, 41, 0
1, 119520, Note_on_c, 0, 68, 0
1, 119520, Note_on_c, 0, 56, 40
1, 119520, Note_on_c, 0, 61, 40
1, 119520, Note_on_c, 0, 68, 51
1, 119520, Note_on_c, 0, 41, 28
1, 119520, Note_on_c, 0, 49, 28
1, 119520, Note_on_c, 0, 53, 32
1, 119523, Control_c, 0, 64, 0
1, 119787, Control_c, 0, 64, 127
1, 120000, Tempo, 461538
1, 120000, Note_on_c, 0, 53, 0
1, 120000, Note_on_c, 0, 61, 0
1, 120000, Note_on_c, 0, 68, 0
1, 120000, Note_on_c, 0, 56, 0
1, 120000, Note_on_c, 0, 49, 0
1, 120000, Note_on_c, 0, 41, 0
1, 120000, Note_on_c, 0, 61, 45
1, 120000, Note_on_c, 0, 73, 56
1, 120000, Note_on_c, 0, 46, 35
1, 120000, Note_on_c, 0, 58, 39
1, 120010, Control_c, 0, 64, 0
1, 120187, Control_c, 0, 64, 127
1, 120480, Note_on_c, 0, 58, 0
1, 120480, Note_on_c, 0, 61, 0
1, 120480, Note_on_c, 0, 73, 0
1, 120480, Note_on_c, 0, 46, 0
1, 120480, Note_on_c, 0, 58, 42
1, 120480, Note_on_c, 0, 70, 53
1, 120480, Note_on_c, 0, 42, 32
1, 120480, Note_on_c, 0, 54, 36
1, 120960, Tempo, 491803
1, 120960, Note_on_c, 0, 54, 0
1, 120960, Note_on_c, 0, 58, 0
1, 120960, Note_on_c, 0, 70, 0
1, 120960, Note_on_c, 0, 42, 0
1, 120960, Note_on_c, 0, 54, 40
1, 120960, Note_on_c, 0, 66, 50
1, 120960, Note_on_c, 0, 39, 30
1, 120960, Note_on_c, 0, 51, 34
1, 120962, Control_c, 0, 64, 0
1, 121171, Control_c, 0, 64, 127
1, 121440, Tempo, 480000
1, 121440, Note_on_c, 0, 51, 0
1, 121440, Note_on_c, 0, 54, 0
1, 121440, Note_on_c, 0, 66, 0
1, 121440, Note_on_c, 0, 39, 0
1, 121440, Note_on_c, 0, 57, 42
1, 121440, Note_on_c, 0, 63, 42
1, 121440, Note_on_c, 0, 66, 42
1, 121440, Note_on_c, 0, 69, 53
1, 121440, Note_on_c, 0, 36, 34
1, 121440, Note_on_c, 0, 48, 38
1, 121452, Control_c, 0, 64, 0
1, 121671, Control_c, 0, 64, 127
1, 121920, Tempo, 500000
1, 121920, Note_on_c, 0, 48, 0
1, 121920, Note_on_c, 0, 63, 0
1, 121920, Note_on_c, 0, 66, 0
1, 121920, Note_on_c, 0, 57, 0
1, 121920, Note_on_c, 0, 36, 0
1, 121920, Note_on_c, 0, 69, 0
1, 121920, Note_on_c, 0, 56, 40
1, 121920, Note_on_c, 0, 60, 40
1, 121920, Note_on_c, 0, 63, 40
1, 121920, Note_on_c, 0, 66, 40
1, 121920, Note_on_c, 0, 68, 51
1, 121920, Note_on_c, 0, 32, 32
1, 121920, Note_on_c, 0, 44, 36
1, 121933, Control_c, 0, 64, 0
1, 122170, Control_c, 0, 64, 127
1, 122400, Note_on_c, 0, 44, 0
1, 122400, Note_on_c, 0, 68, 0
1, 122400, Note_on_c, 0, 60, 0
1, 122400, Note_on_c, 0, 63, 0
1, 122400, Note_on_c, 0, 56, 0
1, 122400, Note_on_c, 0, 32, 0
1, 122400, Note_on_c, 0, 66, 0
1, 122400, Note_on_c, 0, 56, 38
1, 122400, Note_on_c, 0, 61, 38
1, 122400, Note_on_c, 0, 65, 48
1, 122400, Note_on_c, 0, 37, 32
1, 122400, Note_on_c, 0, 49, 36
1, 122403, Control_c, 0, 64, 0
1, 122800, Control_c, 0, 64, 127
1, 122880, Tempo, 533333
1, 123360, Tempo, 489796
1, 123360, Note_on_c, 0, 49, 0
1, 123360, Note_on_c, 0, 65, 0
1, 123360, Note_on_c, 0, 56, 0
1, 123360, Note_on_c, 0, 61, 0
1, 123360, Note_on_c, 0, 37, 0
1, 123360, Note_on_c, 0, 65, 34
1, 123360, Note_on_c, 0, 68, 34
1, 123360, Note_on_c, 0, 77, 45
1, 123360, Control_c, 0, 91, 127
1, 123360, Note_on_c, 0, 49, 27
1, 123360, Note_on_c, 0, 56, 27
1, 123360, Note_on_c, 0, 61, 30
1, 123360, Control_c, 0, 91, 127
1, 123372, Control_c, 0, 64, 0
1, 123707, Control_c, 0, 64, 127
1, 123816, Note_on_c, 0, 61, 0
1, 123816, Note_on_c, 0, 68, 0
1, 123816, Note_on_c, 0, 77, 0
1, 123816, Note_on_c, 0, 65, 0
1, 123816, Note_on_c, 0, 56, 0
1, 123816, Note_on_c, 0, 49, 0
1, 123840, Tempo, 480000
1, 123840, Note_on_c, 0, 65, 34
1, 123840, Note_on_c, 0, 68, 34
1, 123840, Note_on_c, 0, 77, 45
1, 123840, Note_on_c, 0, 49, 27
1, 123840, Note_on_c, 0, 56, 27
1, 123840, Note_on_c, 0, 61, 30
1, 124800, Note_on_c, 0, 77, 0
1, 124800, Note_on_c, 0, 78, 47
1, 125040, Note_on_c, 0, 78, 0
1, 125040, Note_on_c, 0, 77, 45
1, 125280, Tempo, 480000
1, 125280, Note_on_c, 0, 77, 0
1, 125280, Note_on_c, 0, 68, 0
1, 125280, Note_on_c, 0, 49, 0
1, 125280, Note_on_c, 0, 65, 0
1, 125280, Note_on_c, 0, 61, 0
1, 125280, Note_on_c, 0, 56, 0
1, 125280, Note_on_c, 0, 66, 34
1, 125280, Note_on_c, 0, 68, 34
1, 125280, Note_on_c, 0, 75, 46
1, 125280, Note_on_c, 0, 51, 27
1, 125280, Note_on_c, 0, 56, 27
1, 125280, Note_on_c, 0, 60, 30
1, 125285, Control_c, 0, 64, 0
1, 125534, Control_c, 0, 64, 127
1, 126240, Tempo, 481928
1, 126240, Note_on_c, 0, 75, 0
1, 126240, Note_on_c, 0, 77, 44
1, 126480, Note_on_c, 0, 77, 0
1, 126480, Note_on_c, 0, 75, 42
1, 126720, Tempo, 476190
1, 126720, Note_on_c, 0, 75, 0
1, 126720, Note_on_c, 0, 68, 0
1, 126720, Note_on_c, 0, 51, 0
1, 126720, Note_on_c, 0, 66, 0
1, 126720, Note_on_c, 0, 60, 0
1, 126720, Note_on_c, 0, 56, 0
1, 126720, Note_on_c, 0, 65, 34
1, 126720, Note_on_c, 0, 73, 43
1, 126720, Note_on_c, 0, 68, 34
1, 126720, Control_c, 0, 64, 0
1, 126720, Note_on_c, 0, 53, 27
1, 126720, Note_on_c, 0, 56, 27
1, 126720, Note_on_c, 0, 61, 30
1, 127080, Note_on_c, 0, 61, 0
1, 127080, Note_on_c, 0, 73, 0
1, 127080, Note_on_c, 0, 68, 0
1, 127080, Note_on_c, 0, 65, 0
1, 127080, Note_on_c, 0, 56, 0
1, 127080, Note_on_c, 0, 53, 0
1, 127200, Tempo, 470588
1, 127200, Note_on_c, 0, 73, 45
1, 127200, Note_on_c, 0, 70, 36
1, 127200, Note_on_c, 0, 66, 36
1, 127200, Note_on_c, 0, 54, 28
1, 127200, Note_on_c, 0, 58, 28
1, 127200, Note_on_c, 0, 61, 32
1, 127560, Note_on_c, 0, 61, 0
1, 127560, Note_on_c, 0, 70, 0
1, 127560, Note_on_c, 0, 66, 0
1, 127560, Note_on_c, 0, 73, 0
1, 127560, Note_on_c, 0, 58, 0
1, 127560, Note_on_c, 0, 54, 0
1, 127680, Tempo, 526316
1, 127680, Note_on_c, 0, 75, 48
1, 127680, Note_on_c, 0, 73, 38
1, 127680, Note_on_c, 0, 70, 38
1, 127680, Note_on_c, 0, 55, 30
1, 127680, Note_on_c, 0, 58, 30
1, 127680, Note_on_c, 0, 61, 30
1, 127680, Note_on_c, 0, 63, 34
1, 128040, Note_on_c, 0, 63, 0
1, 128040, Note_on_c, 0, 58, 0
1, 128040, Note_on_c, 0, 73, 0
1, 128040, Note_on_c, 0, 70, 0
1, 128040, Note_on_c, 0, 75, 0
1, 128040, Note_on_c, 0, 61, 0
1, 128040, Note_on_c, 0, 55, 0
1, 128160, Tempo, 502092
1, 128160, Note_on_c, 0, 68, 44
1, 128160, Note_on_c, 0, 56, 31
1, 128160, Note_on_c, 0, 60, 31
1, 128160, Note_on_c, 0, 63, 35
1, 128347, Control_c, 0, 64, 127
1, 129120, Tempo, 495868
1, 129120, Note_on_c, 0, 63, 0
1, 129120, Note_on_c, 0, 68, 0
1, 129120, Note_on_c, 0, 56, 0
1, 129120, Note_on_c, 0, 60, 0
1, 129120, Note_on_c, 0, 68, 47
1, 129120, Note_on_c, 0, 73, 47
1, 129120, Note_on_c, 0, 80, 59
1, 129120, Note_on_c, 0, 53, 38
1, 129120, Note_on_c, 0, 61, 38
1, 129120, Note_on_c, 0, 65, 43
1, 129128, Control_c, 0, 64, 0
1, 129387, Control_c, 0, 64, 127
1, 129576, Note_on_c, 0, 65, 0
1, 129576, Note_on_c, 0, 73, 0
1, 129576, Note_on_c, 0, 80, 0
1, 129576, Note_on_c, 0, 68, 0
1, 129576, Note_on_c, 0, 61, 0
1, 129576, Note_on_c, 0, 53, 0
1, 129600, Tempo, 461538
1, 129600, Note_on_c, 0, 68, 47
1, 129600, Note_on_c, 0, 73, 47
1, 129600, Note_on_c, 0, 80, 59
1, 129600, Note_on_c, 0, 53, 38
1, 129600, Note_on_c, 0, 61, 38
1, 129600, Note_on_c, 0, 65, 43
1, 130080, Control_c, 0, 64, 0
1, 130560, Note_on_c, 0, 65, 0
1, 130560, Note_on_c, 0, 73, 0
1, 130560, Note_on_c, 0, 80, 0
1, 130560, Note_on_c, 0, 68, 0
1, 130560, Note_on_c, 0, 61, 0
1, 130560, Note_on_c, 0, 53, 0
1, 130560, Note_on_c, 0, 70, 53
1, 130560, Note_on_c, 0, 82, 66
1, 130560, Note_on_c, 0, 73, 53
1, 130560, Note_on_c, 0, 54, 41
1, 130560, Note_on_c, 0, 66, 46
1, 130560, Note_on_c, 0, 61, 41
1, 130659, Control_c, 0, 64, 127
1, 130800, Note_on_c, 0, 66, 0
1, 130800, Note_on_c, 0, 54, 0
1, 130800, Note_on_c, 0, 82, 0
1, 130800, Note_on_c, 0, 70, 0
1, 130800, Note_on_c, 0, 68, 49
1, 130800, Note_on_c, 0, 80, 62
1, 130800, Note_on_c, 0, 53, 36
1, 130800, Note_on_c, 0, 65, 41
1, 131040, Tempo, 468750
1, 131040, Note_on_c, 0, 65, 0
1, 131040, Note_on_c, 0, 61, 0
1, 131040, Note_on_c, 0, 68, 0
1, 131040, Note_on_c, 0, 73, 0
1, 131040, Note_on_c, 0, 53, 0
1, 131040, Note_on_c, 0, 80, 0
1, 131040, Note_on_c, 0, 68, 49
1, 131040, Note_on_c, 0, 73, 49
1, 131040, Note_on_c, 0, 80, 62
1, 131040, Note_on_c, 0, 53, 36
1, 131040, Note_on_c, 0, 61, 36
1, 131040, Note_on_c, 0, 65, 41
1, 131042, Control_c, 0, 64, 0
1, 131414, Control_c, 0, 64, 127
1, 131520, Tempo, 449438
1, 131520, Note_on_c, 0, 65, 0
1, 131520, Note_on_c, 0, 73, 0
1, 131520, Note_on_c, 0, 80, 0
1, 131520, Note_on_c, 0, 68, 0
1, 131520, Note_on_c, 0, 61, 0
1, 131520, Note_on_c, 0, 53, 0
1, 131520, Note_on_c, 0, 73, 60
1, 131520, Note_on_c, 0, 85, 75
1, 131520, Note_on_c, 0, 58, 46
1, 131520, Note_on_c, 0, 70, 52
1, 132000, Note_on_c, 0, 70, 0
1, 132000, Note_on_c, 0, 73, 0
1, 132000, Note_on_c, 0, 85, 0
1, 132000, Note_on_c, 0, 58, 0
1, 132000, Note_on_c, 0, 70, 55
1, 132000, Note_on_c, 0, 82, 69
1, 132000, Note_on_c, 0, 54, 41
1, 132000, Note_on_c, 0, 66, 46
1, 132480, Tempo, 468750
1, 132480, Note_on_c, 0, 66, 0
1, 132480, Note_on_c, 0, 70, 0
1, 132480, Note_on_c, 0, 82, 0
1, 132480, Note_on_c, 0, 54, 0
1, 132480, Note_on_c, 0, 66, 51
1, 132480, Note_on_c, 0, 78, 64
1, 132480, Note_on_c, 0, 51, 38
1, 132480, Note_on_c, 0, 63, 43
1, 132497, Control_c, 0, 64, 0
1, 132695, Control_c, 0, 64, 127
1, 132960, Tempo, 454545
1, 132960, Note_on_c, 0, 63, 0
1, 132960, Note_on_c, 0, 66, 0
1, 132960, Note_on_c, 0, 78, 0
1, 132960, Note_on_c, 0, 51, 0
1, 132960, Note_on_c, 0, 69, 58
1, 132960, Note_on_c, 0, 75, 58
1, 132960, Note_on_c, 0, 78, 65
1, 132960, Note_on_c, 0, 81, 73
1, 132960, Note_on_c, 0, 48, 45
1, 132960, Note_on_c, 0, 60, 51
1, 132971, Control_c, 0, 64, 0
1, 133142, Control_c, 0, 64, 127
1, 133440, Tempo, 468750
1, 133440, Note_on_c, 0, 60, 0
1, 133440, Note_on_c, 0, 75, 0
1, 133440, Note_on_c, 0, 78, 0
1, 133440, Note_on_c, 0, 69, 0
1, 133440, Note_on_c, 0, 48, 0
1, 133440, Note_on_c, 0, 81, 0
1, 133440, Note_on_c, 0, 68, 55
1, 133440, Note_on_c, 0, 72, 55
1, 133440, Note_on_c, 0, 75, 55
1, 133440, Note_on_c, 0, 78, 62
1, 133440, Note_on_c, 0, 80, 69
1, 133440, Note_on_c, 0, 44, 45
1, 133440, Note_on_c, 0, 56, 50
1, 133446, Control_c, 0, 64, 0
1, 133655, Control_c, 0, 64, 127
1, 133920, Tempo, 480000
1, 133920, Note_on_c, 0, 56, 0
1, 133920, Note_on_c, 0, 80, 0
1, 133920, Note_on_c, 0, 72, 0
1, 133920, Note_on_c, 0, 75, 0
1, 133920, Note_on_c, 0, 68, 0
1, 133920, Note_on_c, 0, 44, 0
1, 133920, Note_on_c, 0, 78, 0
1, 133920, Note_on_c, 0, 68, 51
1, 133920, Note_on_c, 0, 73, 51
1, 133920, Note_on_c, 0, 77, 64
1, 133920, Control_c, 0, 64, 0
1, 133920, Note_on_c, 0, 49, 40
1, 133920, Note_on_c, 0, 61, 45
1, 134294, Control_c, 0, 64, 127
1, 134880, Note_on_c, 0, 61, 0
1, 134880, Note_on_c, 0, 77, 0
1, 134880, Note_on_c, 0, 68, 0
1, 134880, Note_on_c, 0, 73, 0
1, 134880, Note_on_c, 0, 49, 0
1, 134880, Note_on_c, 0, 63, 64
1, 134880, Note_on_c, 0, 75, 80
1, 134880, Note_on_c, 0, 68, 64
1, 134880, Note_on_c, 0, 48, 51
1, 134880, Note_on_c, 0, 56, 51
1, 134880, Note_on_c, 0, 60, 57
1, 134886, Control_c, 0, 64, 0
1, 135067, Control_c, 0, 64, 127
1, 135336, Note_on_c, 0, 60, 0
1, 135336, Note_on_c, 0, 75, 0
1, 135336, Note_on_c, 0, 68, 0
1, 135336, Note_on_c, 0, 63, 0
1, 135336, Note_on_c, 0, 56, 0
1, 135336, Note_on_c, 0, 48, 0
1, 135360, Tempo, 461538
1, 135360, Note_on_c, 0, 63, 64
1, 135360, Note_on_c, 0, 68, 64
1, 135360, Note_on_c, 0, 75, 80
1, 135360, Control_c, 0, 64, 0
1, 135360, Note_on_c, 0, 48, 51
1, 135360, Note_on_c, 0, 56, 51
1, 135360, Note_on_c, 0, 60, 57
1, 135558, Control_c, 0, 64, 127
1, 136320, Tempo, 461538
1, 136320, Note_on_c, 0, 60, 0
1, 136320, Note_on_c, 0, 68, 0
1, 136320, Note_on_c, 0, 75, 0
1, 136320, Note_on_c, 0, 63, 0
1, 136320, Note_on_c, 0, 56, 0
1, 136320, Note_on_c, 0, 48, 0
1, 136320, Note_on_c, 0, 61, 64
1, 136320, Note_on_c, 0, 73, 81
1, 136320, Note_on_c, 0, 68, 64
1, 136320, Note_on_c, 0, 46, 50
1, 136320, Note_on_c, 0, 58, 56
1, 136320, Note_on_c, 0, 56, 56
1, 136324, Control_c, 0, 64, 0
1, 136518, Control_c, 0, 64, 127
1, 136560, Note_on_c, 0, 58, 0
1, 136560, Note_on_c, 0, 46, 0
1, 136560, Note_on_c, 0, 73, 0
1, 136560, Note_on_c, 0, 61, 0
1, 136560, Note_on_c, 0, 63, 64
1, 136560, Note_on_c, 0, 75, 81
1, 136560, Note_on_c, 0, 48, 50
1, 136560, Note_on_c, 0, 60, 56
1, 136800, Note_on_c, 0, 60, 0
1, 136800, Note_on_c, 0, 56, 0
1, 136800, Note_on_c, 0, 63, 0
1, 136800, Note_on_c, 0, 68, 0
1, 136800, Note_on_c, 0, 48, 0
1, 136800, Note_on_c, 0, 75, 0
1, 136800, Note_on_c, 0, 60, 65
1, 136800, Note_on_c, 0, 68, 65
1, 136800, Note_on_c, 0, 72, 82
1, 136800, Control_c, 0, 64, 0
1, 136800, Note_on_c, 0, 44, 51
1, 136800, Note_on_c, 0, 56, 57
1, 137147, Control_c, 0, 64, 127
1, 137280, Note_on_c, 0, 56, 0
1, 137280, Note_on_c, 0, 72, 0
1, 137280, Note_on_c, 0, 60, 0
1, 137280, Note_on_c, 0, 68, 0
1, 137280, Note_on_c, 0, 44, 0
1, 137280, Note_on_c, 0, 63, 68
1, 137280, Note_on_c, 0, 68, 68
1, 137280, Note_on_c, 0, 75, 85
1, 137280, Note_on_c, 0, 48, 54
1, 137280, Note_on_c, 0, 60, 61
1, 137280, Note_on_c, 0, 56, 54
1, 137760, Note_on_c, 0, 56, 0
1, 137760, Note_on_c, 0, 68, 0
1, 137760, Note_on_c, 0, 75, 0
1, 137760, Note_on_c, 0, 63, 0
1, 137760, Note_on_c, 0, 60, 0
1, 137760, Note_on_c, 0, 48, 0
1, 137760, Note_on_c, 0, 65, 70
1, 137760, Note_on_c, 0, 68, 70
1, 137760, Note_on_c, 0, 77, 87
1, 137760, Note_on_c, 0, 61, 61
1, 137760, Note_on_c, 0, 56, 54
1, 137760, Note_on_c, 0, 49, 54
1, 137776, Control_c, 0, 64, 0
1, 138000, Control_c, 0, 64, 127
1, 138240, Note_on_c, 0, 49, 0
1, 138240, Note_on_c, 0, 68, 0
1, 138240, Note_on_c, 0, 77, 0
1, 138240, Note_on_c, 0, 65, 0
1, 138240, Note_on_c, 0, 56, 0
1, 138240, Note_on_c, 0, 61, 0
1, 138240, Note_on_c, 0, 66, 72
1, 138240, Note_on_c, 0, 68, 72
1, 138240, Note_on_c, 0, 78, 89
1, 138240, Control_c, 0, 64, 0
1, 138240, Note_on_c, 0, 63, 63
1, 138240, Note_on_c, 0, 56, 56
1, 138240, Note_on_c, 0, 51, 56
1, 138594, Control_c, 0, 64, 127
1, 138720, Tempo, 478088
1, 138720, Note_on_c, 0, 51, 0
1, 138720, Note_on_c, 0, 68, 0
1, 138720, Note_on_c, 0, 78, 0
1, 138720, Note_on_c, 0, 66, 0
1, 138720, Note_on_c, 0, 56, 0
1, 138720, Note_on_c, 0, 63, 0
1, 138720, Note_on_c, 0, 80, 90
1, 138720, Note_on_c, 0, 68, 72
1, 138720, Note_on_c, 0, 65, 66
1, 138720, Note_on_c, 0, 56, 59
1, 138720, Note_on_c, 0, 53, 59
1, 139200, Tempo, 507872
1, 139200, Note_on_c, 0, 53, 0
1, 139200, Note_on_c, 0, 65, 0
1, 139200, Note_on_c, 0, 80, 0
1, 139200, Note_on_c, 0, 68, 0
1, 139200, Note_on_c, 0, 56, 0
1, 139200, Note_on_c, 0, 82, 95
1, 139200, Note_on_c, 0, 70, 76
1, 139200, Note_on_c, 0, 68, 76
1, 139200, Note_on_c, 0, 54, 54
1, 139200, Note_on_c, 0, 56, 54
1, 139200, Note_on_c, 0, 66, 61
1, 139209, Control_c, 0, 64, 0
1, 139428, Control_c, 0, 64, 127
1, 139680, Tempo, 461538
1, 139680, Note_on_c, 0, 66, 0
1, 139680, Note_on_c, 0, 70, 0
1, 139680, Note_on_c, 0, 68, 0
1, 139680, Note_on_c, 0, 82, 0
1, 139680, Note_on_c, 0, 56, 0
1, 139680, Note_on_c, 0, 54, 0
1, 139680, Note_on_c, 0, 63, 53
1, 139680, Note_on_c, 0, 75, 66
1, 139680, Note_on_c, 0, 68, 53
1, 139680, Control_c, 0, 64, 0
1, 139680, Note_on_c, 0, 48, 44
1, 139680, Note_on_c, 0, 60, 49
1, 139680, Note_on_c, 0, 56, 44
1, 140115, Control_c, 0, 64, 127
1, 140640, Tempo, 547246
1, 140640, Note_on_c, 0, 68, 0
1, 140640, Note_on_c, 0, 63, 0
1, 140640, Note_on_c, 0, 75, 0
1, 140640, Note_on_c, 0, 64, 40
1, 140640, Note_on_c, 0, 68, 40
1, 140640, Note_on_c, 0, 76, 50
1, 140652, Control_c, 0, 64, 0
1, 140891, Control_c, 0, 64, 127
1, 141120, Tempo, 461538
1, 141120, Note_on_c, 0, 76, 0
1, 141120, Note_on_c, 0, 60, 0
1, 141120, Note_on_c, 0, 48, 0
1, 141120, Note_on_c, 0, 56, 0
1, 141120, Note_on_c, 0, 68, 0
1, 141120, Note_on_c, 0, 64, 0
1, 141120, Note_on_c, 0, 77, 56
1, 141120, Note_on_c, 0, 65, 45
1, 141120, Note_on_c, 0, 68, 45
1, 141120, Note_on_c, 0, 49, 35
1, 141120, Note_on_c, 0, 56, 35
1, 141120, Note_on_c, 0, 61, 39
1, 141123, Control_c, 0, 64, 0
1, 141572, Control_c, 0, 64, 127
1, 142080, Tempo, 480000
1, 142080, Note_on_c, 0, 77, 0
1, 142080, Note_on_c, 0, 78, 53
1, 142320, Note_on_c, 0, 78, 0
1, 142320, Note_on_c, 0, 77, 53
1, 142560, Tempo, 461538
1, 142560, Note_on_c, 0, 77, 0
1, 142560, Note_on_c, 0, 68, 0
1, 142560, Note_on_c, 0, 49, 0
1, 142560, Note_on_c, 0, 65, 0
1, 142560, Note_on_c, 0, 61, 0
1, 142560, Note_on_c, 0, 56, 0
1, 142560, Note_on_c, 0, 63, 43
1, 142560, Note_on_c, 0, 75, 54
1, 142560, Note_on_c, 0, 68, 43
1, 142560, Control_c, 0, 64, 0
1, 142560, Note_on_c, 0, 56, 35
1, 142560, Note_on_c, 0, 48, 35
1, 142560, Note_on_c, 0, 60, 39
1, 142903, Control_c, 0, 64, 127
1, 143520, Tempo, 481928
1, 143520, Note_on_c, 0, 60, 0
1, 143520, Note_on_c, 0, 75, 0
1, 143520, Note_on_c, 0, 63, 0
1, 143520, Note_on_c, 0, 48, 0
1, 143520, Note_on_c, 0, 62, 40
1, 143520, Note_on_c, 0, 74, 51
1, 143520, Note_on_c, 0, 47, 32
1, 143520, Note_on_c, 0, 59, 36
1, 143530, Control_c, 0, 64, 0
1, 143795, Control_c, 0, 64, 127
1, 144000, Tempo, 461538
1, 144000, Note_on_c, 0, 59, 0
1, 144000, Note_on_c, 0, 56, 0
1, 144000, Note_on_c, 0, 62, 0
1, 144000, Note_on_c, 0, 68, 0
1, 144000, Note_on_c, 0, 47, 0
1, 144000, Note_on_c, 0, 74, 0
1, 144000, Note_on_c, 0, 61, 42
1, 144000, Note_on_c, 0, 67, 47
1, 144000, Note_on_c, 0, 73, 53
1, 144000, Note_on_c, 0, 46, 33
1, 144000, Note_on_c, 0, 51, 33
1, 144000, Note_on_c, 0, 58, 37
1, 144012, Control_c, 0, 64, 0
1, 144226, Control_c, 0, 64, 127
1, 144960, Tempo, 466926
1, 144960, Note_on_c, 0, 58, 0
1, 144960, Note_on_c, 0, 67, 0
1, 144960, Note_on_c, 0, 73, 0
1, 144960, Note_on_c, 0, 61, 0
1, 144960, Note_on_c, 0, 51, 0
1, 144960, Note_on_c, 0, 46, 0
1, 144960, Note_on_c, 0, 72, 50
1, 144960, Note_on_c, 0, 61, 40
1, 144960, Note_on_c, 0, 67, 45
1, 144960, Note_on_c, 0, 51, 36
1, 145200, Note_on_c, 0, 72, 0
1, 145200, Note_on_c, 0, 70, 49
1, 145440, Tempo, 461538
1, 145440, Note_on_c, 0, 70, 0
1, 145440, Note_on_c, 0, 51, 0
1, 145440, Note_on_c, 0, 67, 0
1, 145440, Note_on_c, 0, 61, 0
1, 145440, Note_on_c, 0, 66, 42
1, 145440, Note_on_c, 0, 63, 42
1, 145440, Note_on_c, 0, 75, 53
1, 145440, Control_c, 0, 64, 0
1, 145440, Note_on_c, 0, 45, 34
1, 145440, Note_on_c, 0, 51, 34
1, 145440, Note_on_c, 0, 57, 38
1, 145694, Control_c, 0, 64, 127
1, 146400, Tempo, 472441
1, 146400, Note_on_c, 0, 57, 0
1, 146400, Note_on_c, 0, 63, 0
1, 146400, Note_on_c, 0, 75, 0
1, 146400, Note_on_c, 0, 66, 0
1, 146400, Note_on_c, 0, 51, 0
1, 146400, Note_on_c, 0, 45, 0
1, 146400, Note_on_c, 0, 73, 48
1, 146400, Note_on_c, 0, 63, 38
1, 146400, Note_on_c, 0, 66, 38
1, 146400, Note_on_c, 0, 51, 29
1, 146400, Note_on_c, 0, 57, 33
1, 146640, Note_on_c, 0, 73, 0
1, 146640, Note_on_c, 0, 72, 48
1, 146880, Tempo, 461538
1, 146880, Note_on_c, 0, 72, 0
1, 146880, Note_on_c, 0, 57, 0
1, 146880, Note_on_c, 0, 63, 0
1, 146880, Note_on_c, 0, 66, 0
1, 146880, Note_on_c, 0, 51, 0
1, 146880, Note_on_c, 0, 61, 41
1, 146880, Note_on_c, 0, 67, 41
1, 146880, Note_on_c, 0, 73, 52
1, 146880, Note_on_c, 0, 46, 32
1, 146880, Note_on_c, 0, 51, 32
1, 146880, Note_on_c, 0, 58, 36
1, 146889, Control_c, 0, 64, 0
1, 147120, Control_c, 0, 64, 127
1, 147840, Tempo, 515021
1, 147840, Note_on_c, 0, 58, 0
1, 147840, Note_on_c, 0, 67, 0
1, 147840, Note_on_c, 0, 73, 0
1, 147840, Note_on_c, 0, 61, 0
1, 147840, Note_on_c, 0, 51, 0
1, 147840, Note_on_c, 0, 46, 0
1, 147840, Note_on_c, 0, 72, 47
1, 147840, Note_on_c, 0, 61, 37
1, 147840, Note_on_c, 0, 67, 42
1, 147840, Note_on_c, 0, 51, 31
1, 148080, Note_on_c, 0, 72, 0
1, 148080, Note_on_c, 0, 70, 47
1, 148320, Note_on_c, 0, 70, 0
1, 148320, Note_on_c, 0, 51, 0
1, 148320, Note_on_c, 0, 67, 0
1, 148320, Note_on_c, 0, 61, 0
1, 148320, Note_on_c, 0, 60, 36
1, 148320, Note_on_c, 0, 68, 45
1, 148320, Note_on_c, 0, 51, 30
1, 148320, Note_on_c, 0, 44, 27
1, 148333, Control_c, 0, 64, 0
1, 148755, Control_c, 0, 64, 127
1, 148800, Tempo, 538117
1, 148800, Note_on_c, 0, 68, 0
1, 148800, Note_on_c, 0, 67, 40
1, 149280, Tempo, 605205
1, 149280, Note_on_c, 0, 67, 0
1, 149280, Note_on_c, 0, 51, 0
1, 149280, Note_on_c, 0, 66, 36
1, 149280, Note_on_c, 0, 56, 29
1, 149760, Tempo, 480000
1, 149760, Note_on_c, 0, 56, 0
1, 149760, Note_on_c, 0, 44, 0
1, 149760, Note_on_c, 0, 60, 0
1, 149760, Note_on_c, 0, 66, 0
1, 149760, Note_on_c, 0, 65, 38
1, 149760, Note_on_c, 0, 53, 22
1, 149760, Note_on_c, 0, 37, 22
1, 149760, Note_on_c, 0, 44, 22
1, 149760, Note_on_c, 0, 49, 22
1, 149760, Note_on_c, 0, 56, 25
1, 149772, Control_c, 0, 64, 0
1, 150127, Control_c, 0, 64, 127
1, 150720, Note_on_c, 0, 65, 0
1, 150720, Note_on_c, 0, 66, 39
1, 150960, Note_on_c, 0, 66, 0
1, 150960, Note_on_c, 0, 65, 38
1, 151200, Tempo, 480000
1, 151200, Note_on_c, 0, 65, 0
1, 151200, Note_on_c, 0, 37, 0
1, 151200, Note_on_c, 0, 44, 0
1, 151200, Note_on_c, 0, 53, 0
1, 151200, Note_on_c, 0, 56, 0
1, 151200, Note_on_c, 0, 49, 0
1, 151200, Note_on_c, 0, 63, 39
1, 151200, Note_on_c, 0, 44, 22
1, 151200, Note_on_c, 0, 39, 22
1, 151200, Note_on_c, 0, 56, 25
1, 151200, Note_on_c, 0, 48, 22
1, 151200, Note_on_c, 0, 54, 22
1, 151212, Control_c, 0, 64, 0
1, 151426, Control_c, 0, 64, 127
1, 152160, Note_on_c, 0, 63, 0
1, 152160, Note_on_c, 0, 65, 37
1, 152400, Note_on_c, 0, 65, 0
1, 152400, Note_on_c, 0, 63, 35
1, 152640, Note_on_c, 0, 63, 0
1, 152640, Note_on_c, 0, 39, 0
1, 152640, Note_on_c, 0, 56, 0
1, 152640, Note_on_c, 0, 44, 0
1, 152640, Note_on_c, 0, 54, 0
1, 152640, Note_on_c, 0, 48, 0
1, 152640, Note_on_c, 0, 56, 22
1, 152640, Note_on_c, 0, 41, 22
1, 152640, Note_on_c, 0, 44, 22
1, 152640, Note_on_c, 0, 49, 22
1, 152640, Note_on_c, 0, 61, 28
1, 152640, Note_on_c, 0, 53, 22
1, 152654, Control_c, 0, 64, 0
1, 153000, Note_on_c, 0, 53, 0
1, 153000, Note_on_c, 0, 41, 0
1, 153000, Note_on_c, 0, 44, 0
1, 153000, Note_on_c, 0, 56, 0
1, 153000, Note_on_c, 0, 61, 0
1, 153000, Note_on_c, 0, 49, 0
1, 153120, Note_on_c, 0, 61, 30
1, 153120, Note_on_c, 0, 42, 24
1, 153120, Note_on_c, 0, 46, 24
1, 153120, Note_on_c, 0, 49, 24
1, 153120, Note_on_c, 0, 54, 24
1, 153120, Note_on_c, 0, 58, 24
1, 153480, Note_on_c, 0, 58, 0
1, 153480, Note_on_c, 0, 42, 0
1, 153480, Note_on_c, 0, 46, 0
1, 153480, Note_on_c, 0, 61, 0
1, 153480, Note_on_c, 0, 54, 0
1, 153480, Note_on_c, 0, 49, 0
1, 153600, Tempo, 547246
1, 153600, Note_on_c, 0, 49, 25
1, 153600, Note_on_c, 0, 43, 25
1, 153600, Note_on_c, 0, 46, 25
1, 153600, Note_on_c, 0, 51, 25
1, 153600, Note_on_c, 0, 63, 32
1, 153600, Note_on_c, 0, 61, 25
1, 153600, Note_on_c, 0, 58, 25
1, 153960, Note_on_c, 0, 58, 0
1, 153960, Note_on_c, 0, 63, 0
1, 153960, Note_on_c, 0, 43, 0
1, 153960, Note_on_c, 0, 46, 0
1, 153960, Note_on_c, 0, 49, 0
1, 153960, Note_on_c, 0, 61, 0
1, 153960, Note_on_c, 0, 51, 0
1, 154080, Tempo, 502092
1, 154080, Note_on_c, 0, 56, 29
1, 154080, Note_on_c, 0, 44, 23
1, 154080, Note_on_c, 0, 48, 23
1, 154080, Note_on_c, 0, 51, 23
1, 154187, Control_c, 0, 64, 127
1, 155040, Tempo, 495868
1, 155040, Note_on_c, 0, 51, 0
1, 155040, Note_on_c, 0, 56, 0
1, 155040, Note_on_c, 0, 44, 0
1, 155040, Note_on_c, 0, 48, 0
1, 155040, Note_on_c, 0, 56, 48
1, 155040, Note_on_c, 0, 61, 48
1, 155040, Note_on_c, 0, 68, 61
1, 155040, Note_on_c, 0, 41, 38
1, 155040, Note_on_c, 0, 53, 43
1, 155040, Note_on_c, 0, 49, 38
1, 155061, Control_c, 0, 64, 0
1, 155360, Control_c, 0, 64, 127
1, 155496, Note_on_c, 0, 49, 0
1, 155496, Note_on_c, 0, 61, 0
1, 155496, Note_on_c, 0, 68, 0
1, 155496, Note_on_c, 0, 56, 0
1, 155496, Note_on_c, 0, 53, 0
1, 155496, Note_on_c, 0, 41, 0
1, 155520, Tempo, 461538
1, 155520, Note_on_c, 0, 56, 48
1, 155520, Note_on_c, 0, 61, 48
1, 155520, Note_on_c, 0, 68, 61
1, 155520, Note_on_c, 0, 49, 38
1, 155520, Note_on_c, 0, 41, 38
1, 155520, Note_on_c, 0, 53, 43
1, 156480, Note_on_c, 0, 53, 0
1, 156480, Note_on_c, 0, 61, 0
1, 156480, Note_on_c, 0, 68, 0
1, 156480, Note_on_c, 0, 56, 0
1, 156480, Note_on_c, 0, 41, 0
1, 156480, Note_on_c, 0, 49, 0
1, 156480, Note_on_c, 0, 58, 54
1, 156480, Note_on_c, 0, 70, 68
1, 156480, Note_on_c, 0, 61, 54
1, 156480, Note_on_c, 0, 49, 38
1, 156480, Note_on_c, 0, 42, 38
1, 156480, Note_on_c, 0, 54, 43
1, 156493, Control_c, 0, 64, 0
1, 156636, Control_c, 0, 64, 127
1, 156720, Note_on_c, 0, 54, 0
1, 156720, Note_on_c, 0, 70, 0
1, 156720, Note_on_c, 0, 58, 0
1, 156720, Note_on_c, 0, 42, 0
1, 156720, Note_on_c, 0, 56, 48
1, 156720, Note_on_c, 0, 68, 60
1, 156720, Note_on_c, 0, 53, 39
1, 156720, Note_on_c, 0, 41, 39
1, 156960, Tempo, 487805
1, 156960, Note_on_c, 0, 41, 0
1, 156960, Note_on_c, 0, 49, 0
1, 156960, Note_on_c, 0, 56, 0
1, 156960, Note_on_c, 0, 61, 0
1, 156960, Note_on_c, 0, 53, 0
1, 156960, Note_on_c, 0, 68, 0
1, 156960, Note_on_c, 0, 56, 47
1, 156960, Note_on_c, 0, 61, 47
1, 156960, Note_on_c, 0, 68, 59
1, 156960, Control_c, 0, 64, 0
1, 156960, Note_on_c, 0, 49, 35
1, 156960, Note_on_c, 0, 41, 39
1, 156960, Note_on_c, 0, 53, 39
1, 157147, Control_c, 0, 64, 127
1, 157440, Tempo, 474308
1, 157440, Note_on_c, 0, 53, 0
1, 157440, Note_on_c, 0, 61, 0
1, 157440, Note_on_c, 0, 68, 0
1, 157440, Note_on_c, 0, 56, 0
1, 157440, Note_on_c, 0, 41, 0
1, 157440, Note_on_c, 0, 49, 0
1, 157440, Note_on_c, 0, 65, 62
1, 157440, Note_on_c, 0, 68, 62
1, 157440, Note_on_c, 0, 77, 77
1, 157440, Note_on_c, 0, 61, 54
1, 157440, Note_on_c, 0, 56, 54
1, 157440, Note_on_c, 0, 49, 48
1, 157920, Note_on_c, 0, 49, 0
1, 157920, Note_on_c, 0, 68, 0
1, 157920, Note_on_c, 0, 77, 0
1, 157920, Note_on_c, 0, 65, 0
1, 157920, Note_on_c, 0, 56, 0
1, 157920, Note_on_c, 0, 61, 0
1, 157920, Note_on_c, 0, 63, 56
1, 157920, Note_on_c, 0, 68, 56
1, 157920, Note_on_c, 0, 75, 71
1, 157920, Note_on_c, 0, 56, 45
1, 157920, Note_on_c, 0, 60, 51
1, 157920, Note_on_c, 0, 48, 45
1, 157923, Control_c, 0, 64, 0
1, 158107, Control_c, 0, 64, 127
1, 158400, Note_on_c, 0, 48, 0
1, 158400, Note_on_c, 0, 68, 0
1, 158400, Note_on_c, 0, 75, 0
1, 158400, Note_on_c, 0, 63, 0
1, 158400, Note_on_c, 0, 60, 0
1, 158400, Note_on_c, 0, 56, 0
1, 158400, Note_on_c, 0, 61, 64
1, 158400, Note_on_c, 0, 65, 64
1, 158400, Note_on_c, 0, 73, 80
1, 158400, Control_c, 0, 64, 0
1, 158400, Note_on_c, 0, 53, 51
1, 158400, Note_on_c, 0, 46, 51
1, 158400, Note_on_c, 0, 58, 57
1, 158703, Control_c, 0, 64, 127
1, 159360, Tempo, 491803
1, 159360, Note_on_c, 0, 58, 0
1, 159360, Note_on_c, 0, 65, 0
1, 159360, Note_on_c, 0, 73, 0
1, 159360, Note_on_c, 0, 61, 0
1, 159360, Note_on_c, 0, 46, 0
1, 159360, Note_on_c, 0, 53, 0
1, 159360, Note_on_c, 0, 60, 61
1, 159360, Note_on_c, 0, 63, 61
1, 159360, Note_on_c, 0, 68, 61
1, 159360, Note_on_c, 0, 72, 76
1, 159360, Note_on_c, 0, 54, 48
1, 159360, Note_on_c, 0, 44, 48
1, 159360, Note_on_c, 0, 56, 54
1, 159379, Control_c, 0, 64, 0
1, 159613, Control_c, 0, 64, 127
1, 159840, Tempo, 461538
1, 159840, Note_on_c, 0, 56, 0
1, 159840, Note_on_c, 0, 54, 0
1, 159840, Note_on_c, 0, 63, 0
1, 159840, Note_on_c, 0, 68, 0
1, 159840, Note_on_c, 0, 60, 0
1, 159840, Note_on_c, 0, 44, 0
1, 159840, Note_on_c, 0, 72, 0
1, 159840, Note_on_c, 0, 61, 64
1, 159840, Note_on_c, 0, 65, 64
1, 159840, Note_on_c, 0, 68, 64
1, 159840, Note_on_c, 0, 73, 81
1, 159840, Note_on_c, 0, 49, 51
1, 159840, Note_on_c, 0, 56, 57
1, 159840, Note_on_c, 0, 53, 51
1, 159849, Control_c, 0, 64, 0
1, 160134, Control_c, 0, 64, 127
1, 160800, Tempo, 481928
1, 160800, Note_on_c, 0, 53, 0
1, 160800, Note_on_c, 0, 49, 0
1, 160800, Note_on_c, 0, 65, 0
1, 160800, Note_on_c, 0, 68, 0
1, 160800, Note_on_c, 0, 61, 0
1, 160800, Note_on_c, 0, 56, 0
1, 160800, Note_on_c, 0, 73, 0
1, 160800, Note_on_c, 0, 68, 66
1, 160800, Note_on_c, 0, 80, 83
1, 160800, Note_on_c, 0, 73, 66
1, 160800, Note_on_c, 0, 61, 53
1, 160800, Note_on_c, 0, 65, 59
1, 160800, Note_on_c, 0, 53, 53
1, 160803, Control_c, 0, 64, 0
1, 161040, Control_c, 0, 64, 127
1, 161256, Note_on_c, 0, 53, 0
1, 161256, Note_on_c, 0, 80, 0
1, 161256, Note_on_c, 0, 73, 0
1, 161256, Note_on_c, 0, 68, 0
1, 161256, Note_on_c, 0, 65, 0
1, 161256, Note_on_c, 0, 61, 0
1, 161280, Tempo, 451128
1, 161280, Note_on_c, 0, 68, 66
1, 161280, Note_on_c, 0, 73, 66
1, 161280, Note_on_c, 0, 80, 83
1, 161280, Note_on_c, 0, 65, 57
1, 161280, Note_on_c, 0, 53, 51
1, 161280, Note_on_c, 0, 61, 51
1, 162240, Tempo, 451128
1, 162240, Note_on_c, 0, 61, 0
1, 162240, Note_on_c, 0, 73, 0
1, 162240, Note_on_c, 0, 80, 0
1, 162240, Note_on_c, 0, 68, 0
1, 162240, Note_on_c, 0, 53, 0
1, 162240, Note_on_c, 0, 65, 0
1, 162240, Note_on_c, 0, 70, 71
1, 162240, Note_on_c, 0, 82, 88
1, 162240, Note_on_c, 0, 73, 71
1, 162240, Note_on_c, 0, 54, 54
1, 162240, Note_on_c, 0, 66, 61
1, 162240, Note_on_c, 0, 61, 54
1, 162247, Control_c, 0, 64, 0
1, 162381, Control_c, 0, 64, 127
1, 162480, Note_on_c, 0, 66, 0
1, 162480, Note_on_c, 0, 54, 0
1, 162480, Note_on_c, 0, 82, 0
1, 162480, Note_on_c, 0, 70, 0
1, 162480, Note_on_c, 0, 68, 66
1, 162480, Note_on_c, 0, 80, 83
1, 162480, Note_on_c, 0, 65, 57
1, 162480, Note_on_c, 0, 53, 51
1, 162720, Tempo, 483871
1, 162720, Note_on_c, 0, 53, 0
1, 162720, Note_on_c, 0, 61, 0
1, 162720, Note_on_c, 0, 68, 0
1, 162720, Note_on_c, 0, 73, 0
1, 162720, Note_on_c, 0, 65, 0
1, 162720, Note_on_c, 0, 80, 0
1, 162720, Note_on_c, 0, 68, 66
1, 162720, Note_on_c, 0, 73, 66
1, 162720, Note_on_c, 0, 80, 83
1, 162720, Note_on_c, 0, 65, 59
1, 162720, Note_on_c, 0, 53, 53
1, 162720, Note_on_c, 0, 61, 53
1, 162774, Control_c, 0, 64, 0
1, 163147, Control_c, 0, 64, 127
1, 163200, Tempo, 461538
1, 163200, Note_on_c, 0, 61, 0
1, 163200, Note_on_c, 0, 73, 0
1, 163200, Note_on_c, 0, 80, 0
1, 163200, Note_on_c, 0, 68, 0
1, 163200, Note_on_c, 0, 53, 0
1, 163200, Note_on_c, 0, 65, 0
1, 163200, Note_on_c, 0, 61, 73
1, 163200, Note_on_c, 0, 68, 73
1, 163200, Note_on_c, 0, 73, 73
1, 163200, Note_on_c, 0, 89, 92
1, 163200, Note_on_c, 0, 80, 73
1, 163200, Note_on_c, 0, 77, 73
1, 163680, Tempo, 478088
1, 163680, Note_on_c, 0, 77, 0
1, 163680, Note_on_c, 0, 68, 0
1, 163680, Note_on_c, 0, 73, 0
1, 163680, Note_on_c, 0, 61, 0
1, 163680, Note_on_c, 0, 80, 0
1, 163680, Note_on_c, 0, 89, 0
1, 163680, Note_on_c, 0, 60, 72
1, 163680, Note_on_c, 0, 68, 72
1, 163680, Note_on_c, 0, 72, 72
1, 163680, Note_on_c, 0, 75, 72
1, 163680, Note_on_c, 0, 80, 72
1, 163680, Note_on_c, 0, 87, 89
1, 163688, Control_c, 0, 64, 0
1, 163894, Control_c, 0, 64, 127
1, 164160, Note_on_c, 0, 87, 0
1, 164160, Note_on_c, 0, 68, 0
1, 164160, Note_on_c, 0, 72, 0
1, 164160, Note_on_c, 0, 60, 0
1, 164160, Note_on_c, 0, 80, 0
1, 164160, Note_on_c, 0, 75, 0
1, 164160, Note_on_c, 0, 58, 72
1, 164160, Note_on_c, 0, 65, 72
1, 164160, Note_on_c, 0, 70, 72
1, 164160, Note_on_c, 0, 73, 72
1, 164160, Note_on_c, 0, 77, 72
1, 164160, Note_on_c, 0, 85, 90
1, 164160, Control_c, 0, 64, 0
1, 164438, Control_c, 0, 64, 127
1, 165120, Tempo, 510638
1, 165120, Note_on_c, 0, 85, 0
1, 165120, Note_on_c, 0, 65, 0
1, 165120, Note_on_c, 0, 70, 0
1, 165120, Note_on_c, 0, 58, 0
1, 165120, Note_on_c, 0, 77, 0
1, 165120, Note_on_c, 0, 73, 0
1, 165120, Note_on_c, 0, 56, 71
1, 165120, Note_on_c, 0, 66, 71
1, 165120, Note_on_c, 0, 68, 71
1, 165120, Note_on_c, 0, 72, 71
1, 165120, Note_on_c, 0, 75, 71
1, 165120, Note_on_c, 0, 80, 71
1, 165120, Note_on_c, 0, 84, 88
1, 165135, Control_c, 0, 64, 0
1, 165322, Control_c, 0, 64, 127
1, 165600, Note_on_c, 0, 84, 0
1, 165600, Note_on_c, 0, 75, 0
1, 165600, Note_on_c, 0, 66, 0
1, 165600, Note_on_c, 0, 68, 0
1, 165600, Note_on_c, 0, 56, 0
1, 165600, Note_on_c, 0, 80, 0
1, 165600, Note_on_c, 0, 72, 0
1, 165600, Note_on_c, 0, 61, 66
1, 165600, Note_on_c, 0, 65, 66
1, 165600, Note_on_c, 0, 68, 72
1, 165600, Note_on_c, 0, 73, 72
1, 165600, Note_on_c, 0, 77, 72
1, 165600, Note_on_c, 0, 80, 72
1, 165600, Note_on_c, 0, 85, 91
1, 165600, Control_c, 0, 64, 0
1, 165840, Control_c, 0, 64, 127
1, 166560, Tempo, 480000
1, 166560, Note_on_c, 0, 85, 0
1, 166560, Note_on_c, 0, 77, 0
1, 166560, Note_on_c, 0, 65, 0
1, 166560, Note_on_c, 0, 68, 0
1, 166560, Note_on_c, 0, 61, 0
1, 166560, Note_on_c, 0, 80, 0
1, 166560, Note_on_c, 0, 73, 0
1, 166560, Note_on_c, 0, 63, 64
1, 166560, Note_on_c, 0, 75, 80
1, 166560, Note_on_c, 0, 68, 64
1, 166560, Note_on_c, 0, 60, 57
1, 166560, Note_on_c, 0, 48, 51
1, 166560, Note_on_c, 0, 56, 51
1, 166569, Control_c, 0, 64, 0
1, 166774, Control_c, 0, 64, 127
1, 167016, Note_on_c, 0, 56, 0
1, 167016, Note_on_c, 0, 75, 0
1, 167016, Note_on_c, 0, 68, 0
1, 167016, Note_on_c, 0, 63, 0
1, 167016, Note_on_c, 0, 48, 0
1, 167016, Note_on_c, 0, 60, 0
1, 167040, Tempo, 461538
1, 167040, Note_on_c, 0, 63, 64
1, 167040, Note_on_c, 0, 68, 64
1, 167040, Note_on_c, 0, 75, 80
1, 167040, Note_on_c, 0, 48, 51
1, 167040, Note_on_c, 0, 56, 51
1, 167040, Note_on_c, 0, 60, 57
1, 168000, Tempo, 461538
1, 168000, Note_on_c, 0, 60, 0
1, 168000, Note_on_c, 0, 68, 0
1, 168000, Note_on_c, 0, 75, 0
1, 168000, Note_on_c, 0, 63, 0
1, 168000, Note_on_c, 0, 56, 0
1, 168000, Note_on_c, 0, 48, 0
1, 168000, Note_on_c, 0, 61, 64
1, 168000, Note_on_c, 0, 73, 81
1, 168000, Note_on_c, 0, 68, 64
1, 168000, Note_on_c, 0, 46, 50
1, 168000, Note_on_c, 0, 58, 56
1, 168000, Note_on_c, 0, 56, 50
1, 168018, Control_c, 0, 64, 0
1, 168127, Control_c, 0, 64, 127
1, 168240, Note_on_c, 0, 58, 0
1, 168240, Note_on_c, 0, 46, 0
1, 168240, Note_on_c, 0, 73, 0
1, 168240, Note_on_c, 0, 61, 0
1, 168240, Note_on_c, 0, 63, 64
1, 168240, Note_on_c, 0, 75, 81
1, 168240, Note_on_c, 0, 48, 50
1, 168240, Note_on_c, 0, 60, 56
1, 168480, Note_on_c, 0, 60, 0
1, 168480, Note_on_c, 0, 56, 0
1, 168480, Note_on_c, 0, 63, 0
1, 168480, Note_on_c, 0, 68, 0
1, 168480, Note_on_c, 0, 48, 0
1, 168480, Note_on_c, 0, 75, 0
1, 168480, Note_on_c, 0, 60, 65
1, 168480, Note_on_c, 0, 68, 65
1, 168480, Note_on_c, 0, 72, 82
1, 168480, Control_c, 0, 64, 0
1, 168480, Note_on_c, 0, 44, 51
1, 168480, Note_on_c, 0, 56, 57
1, 168747, Control_c, 0, 64, 127
1, 168960, Note_on_c, 0, 56, 0
1, 168960, Note_on_c, 0, 72, 0
1, 168960, Note_on_c, 0, 60, 0
1, 168960, Note_on_c, 0, 68, 0
1, 168960, Note_on_c, 0, 44, 0
1, 168960, Note_on_c, 0, 63, 68
1, 168960, Note_on_c, 0, 68, 68
1, 168960, Note_on_c, 0, 75, 85
1, 168960, Note_on_c, 0, 48, 54
1, 168960, Note_on_c, 0, 60, 61
1, 168960, Note_on_c, 0, 56, 54
1, 169440, Note_on_c, 0, 56, 0
1, 169440, Note_on_c, 0, 68, 0
1, 169440, Note_on_c, 0, 75, 0
1, 169440, Note_on_c, 0, 63, 0
1, 169440, Note_on_c, 0, 60, 0
1, 169440, Note_on_c, 0, 48, 0
1, 169440, Note_on_c, 0, 65, 70
1, 169440, Note_on_c, 0, 68, 70
1, 169440, Note_on_c, 0, 77, 87
1, 169440, Note_on_c, 0, 61, 61
1, 169440, Note_on_c, 0, 56, 54
1, 169440, Note_on_c, 0, 49, 54
1, 169448, Control_c, 0, 64, 0
1, 169654, Control_c, 0, 64, 127
1, 169920, Note_on_c, 0, 49, 0
1, 169920, Note_on_c, 0, 68, 0
1, 169920, Note_on_c, 0, 77, 0
1, 169920, Note_on_c, 0, 65, 0
1, 169920, Note_on_c, 0, 56, 0
1, 169920, Note_on_c, 0, 61, 0
1, 169920, Note_on_c, 0, 66, 72
1, 169920, Note_on_c, 0, 68, 72
1, 169920, Note_on_c, 0, 78, 89
1, 169920, Control_c, 0, 64, 0
1, 169920, Note_on_c, 0, 63, 63
1, 169920, Note_on_c, 0, 56, 56
1, 169920, Note_on_c, 0, 51, 56
1, 170198, Control_c, 0, 64, 127
1, 170400, Tempo, 487805
1, 170400, Note_on_c, 0, 51, 0
1, 170400, Note_on_c, 0, 68, 0
1, 170400, Note_on_c, 0, 78, 0
1, 170400, Note_on_c, 0, 66, 0
1, 170400, Note_on_c, 0, 56, 0
1, 170400, Note_on_c, 0, 63, 0
1, 170400, Note_on_c, 0, 80, 90
1, 170400, Note_on_c, 0, 68, 72
1, 170400, Note_on_c, 0, 65, 66
1, 170400, Note_on_c, 0, 56, 59
1, 170400, Note_on_c, 0, 53, 59
1, 170880, Tempo, 581734
1, 170880, Note_on_c, 0, 53, 0
1, 170880, Note_on_c, 0, 65, 0
1, 170880, Note_on_c, 0, 80, 0
1, 170880, Note_on_c, 0, 68, 0
1, 170880, Note_on_c, 0, 56, 0
1, 170880, Note_on_c, 0, 82, 95
1, 170880, Note_on_c, 0, 70, 76
1, 170880, Note_on_c, 0, 68, 76
1, 170880, Note_on_c, 0, 54, 54
1, 170880, Note_on_c, 0, 56, 54
1, 170880, Note_on_c, 0, 66, 61
1, 170887, Control_c, 0, 64, 0
1, 171082, Control_c, 0, 64, 127
1, 171360, Tempo, 461538
1, 171360, Note_on_c, 0, 66, 0
1, 171360, Note_on_c, 0, 70, 0
1, 171360, Note_on_c, 0, 68, 0
1, 171360, Note_on_c, 0, 82, 0
1, 171360, Note_on_c, 0, 56, 0
1, 171360, Note_on_c, 0, 54, 0
1, 171360, Note_on_c, 0, 63, 53
1, 171360, Note_on_c, 0, 75, 66
1, 171360, Note_on_c, 0, 68, 53
1, 171360, Note_on_c, 0, 48, 44
1, 171360, Note_on_c, 0, 60, 49
1, 171360, Note_on_c, 0, 56, 44
1, 171374, Control_c, 0, 64, 0
1, 171749, Control_c, 0, 64, 127
1, 172320, Tempo, 525670
1, 172320, Note_on_c, 0, 68, 0
1, 172320, Note_on_c, 0, 63, 0
1, 172320, Note_on_c, 0, 75, 0
1, 172320, Note_on_c, 0, 64, 40
1, 172320, Note_on_c, 0, 68, 40
1, 172320, Note_on_c, 0, 76, 50
1, 172333, Control_c, 0, 64, 0
1, 172572, Control_c, 0, 64, 127
1, 172800, Tempo, 461538
1, 172800, Note_on_c, 0, 76, 0
1, 172800, Note_on_c, 0, 60, 0
1, 172800, Note_on_c, 0, 48, 0
1, 172800, Note_on_c, 0, 56, 0
1, 172800, Note_on_c, 0, 68, 0
1, 172800, Note_on_c, 0, 64, 0
1, 172800, Note_on_c, 0, 77, 56
1, 172800, Note_on_c, 0, 65, 45
1, 172800, Note_on_c, 0, 68, 45
1, 172800, Note_on_c, 0, 49, 35
1, 172800, Note_on_c, 0, 56, 35
1, 172800, Note_on_c, 0, 61, 39
1, 172802, Control_c, 0, 64, 0
1, 173083, Control_c, 0, 64, 127
1, 173760, Tempo, 480000
1, 173760, Note_on_c, 0, 77, 0
1, 173760, Note_on_c, 0, 78, 53
1, 174000, Note_on_c, 0, 78, 0
1, 174000, Note_on_c, 0, 77, 53
1, 174240, Tempo, 461538
1, 174240, Note_on_c, 0, 77, 0
1, 174240, Note_on_c, 0, 68, 0
1, 174240, Note_on_c, 0, 49, 0
1, 174240, Note_on_c, 0, 65, 0
1, 174240, Note_on_c, 0, 61, 0
1, 174240, Note_on_c, 0, 56, 0
1, 174240, Note_on_c, 0, 63, 43
1, 174240, Note_on_c, 0, 75, 54
1, 174240, Note_on_c, 0, 68, 43
1, 174240, Control_c, 0, 64, 0
1, 174240, Note_on_c, 0, 56, 35
1, 174240, Note_on_c, 0, 48, 35
1, 174240, Note_on_c, 0, 60, 39
1, 174583, Control_c, 0, 64, 127
1, 175200, Tempo, 481928
1, 175200, Note_on_c, 0, 60, 0
1, 175200, Note_on_c, 0, 75, 0
1, 175200, Note_on_c, 0, 63, 0
1, 175200, Note_on_c, 0, 48, 0
1, 175200, Note_on_c, 0, 62, 40
1, 175200, Note_on_c, 0, 74, 51
1, 175200, Note_on_c, 0, 47, 32
1, 175200, Note_on_c, 0, 59, 36
1, 175204, Control_c, 0, 64, 0
1, 175475, Control_c, 0, 64, 127
1, 175680, Tempo, 461538
1, 175680, Note_on_c, 0, 59, 0
1, 175680, Note_on_c, 0, 56, 0
1, 175680, Note_on_c, 0, 62, 0
1, 175680, Note_on_c, 0, 68, 0
1, 175680, Note_on_c, 0, 47, 0
1, 175680, Note_on_c, 0, 74, 0
1, 175680, Note_on_c, 0, 61, 42
1, 175680, Note_on_c, 0, 67, 42
1, 175680, Note_on_c, 0, 73, 53
1, 175680, Note_on_c, 0, 46, 33
1, 175680, Note_on_c, 0, 51, 33
1, 175680, Note_on_c, 0, 58, 37
1, 175693, Control_c, 0, 64, 0
1, 175948, Control_c, 0, 64, 127
1, 176640, Tempo, 466926
1, 176640, Note_on_c, 0, 58, 0
1, 176640, Note_on_c, 0, 67, 0
1, 176640, Note_on_c, 0, 73, 0
1, 176640, Note_on_c, 0, 61, 0
1, 176640, Note_on_c, 0, 51, 0
1, 176640, Note_on_c, 0, 46, 0
1, 176640, Note_on_c, 0, 72, 50
1, 176640, Note_on_c, 0, 61, 40
1, 176640, Note_on_c, 0, 67, 45
1, 176640, Note_on_c, 0, 51, 36
1, 176880, Note_on_c, 0, 72, 0
1, 176880, Note_on_c, 0, 70, 49
1, 177120, Tempo, 461538
1, 177120, Note_on_c, 0, 70, 0
1, 177120, Note_on_c, 0, 51, 0
1, 177120, Note_on_c, 0, 67, 0
1, 177120, Note_on_c, 0, 61, 0
1, 177120, Note_on_c, 0, 66, 42
1, 177120, Note_on_c, 0, 63, 42
1, 177120, Note_on_c, 0, 75, 53
1, 177120, Note_on_c, 0, 45, 34
1, 177120, Note_on_c, 0, 51, 34
1, 177120, Note_on_c, 0, 57, 38
1, 177123, Control_c, 0, 64, 0
1, 177332, Control_c, 0, 64, 127
1, 178080, Tempo, 472441
1, 178080, Note_on_c, 0, 57, 0
1, 178080, Note_on_c, 0, 63, 0
1, 178080, Note_on_c, 0, 75, 0
1, 178080, Note_on_c, 0, 66, 0
1, 178080, Note_on_c, 0, 51, 0
1, 178080, Note_on_c, 0, 45, 0
1, 178080, Note_on_c, 0, 73, 48
1, 178080, Note_on_c, 0, 63, 38
1, 178080, Note_on_c, 0, 66, 38
1, 178080, Note_on_c, 0, 51, 29
1, 178080, Note_on_c, 0, 57, 33
1, 178320, Note_on_c, 0, 73, 0
1, 178320, Note_on_c, 0, 72, 48
1, 178560, Tempo, 461538
1, 178560, Note_on_c, 0, 72, 0
1, 178560, Note_on_c, 0, 57, 0
1, 178560, Note_on_c, 0, 63, 0
1, 178560, Note_on_c, 0, 66, 0
1, 178560, Note_on_c, 0, 51, 0
1, 178560, Note_on_c, 0, 61, 41
1, 178560, Note_on_c, 0, 67, 52
1, 178560, Note_on_c, 0, 73, 52
1, 178560, Note_on_c, 0, 46, 32
1, 178560, Note_on_c, 0, 51, 32
1, 178560, Note_on_c, 0, 58, 36
1, 178573, Control_c, 0, 64, 0
1, 178828, Control_c, 0, 64, 127
1, 179520, Tempo, 515021
1, 179520, Note_on_c, 0, 58, 0
1, 179520, Note_on_c, 0, 67, 0
1, 179520, Note_on_c, 0, 73, 0
1, 179520, Note_on_c, 0, 61, 0
1, 179520, Note_on_c, 0, 51, 0
1, 179520, Note_on_c, 0, 46, 0
1, 179520, Note_on_c, 0, 72, 47
1, 179520, Note_on_c, 0, 61, 37
1, 179520, Note_on_c, 0, 67, 37
1, 179520, Note_on_c, 0, 51, 31
1, 179760, Note_on_c, 0, 72, 0
1, 179760, Note_on_c, 0, 70, 47
1, 180000, Note_on_c, 0, 70, 0
1, 180000, Note_on_c, 0, 51, 0
1, 180000, Note_on_c, 0, 67, 0
1, 180000, Note_on_c, 0, 61, 0
1, 180000, Note_on_c, 0, 60, 36
1, 180000, Note_on_c, 0, 68, 45
1, 180000, Note_on_c, 0, 51, 30
1, 180000, Note_on_c, 0, 44, 27
1, 180009, Control_c, 0, 64, 0
1, 180297, Control_c, 0, 64, 127
1, 180480, Tempo, 563380
1, 180480, Note_on_c, 0, 68, 0
1, 180480, Note_on_c, 0, 67, 40
1, 180960, Tempo, 654736
1, 180960, Note_on_c, 0, 67, 0
1, 180960, Note_on_c, 0, 51, 0
1, 180960, Note_on_c, 0, 66, 36
1, 180960, Note_on_c, 0, 56, 29
1, 181440, Tempo, 480000
1, 181440, Note_on_c, 0, 56, 0
1, 181440, Note_on_c, 0, 44, 0
1, 181440, Note_on_c, 0, 60, 0
1, 181440, Note_on_c, 0, 66, 0
1, 181440, Note_on_c, 0, 65, 38
1, 181440, Note_on_c, 0, 37, 22
1, 181440, Note_on_c, 0, 44, 22
1, 181440, Note_on_c, 0, 49, 22
1, 181440, Note_on_c, 0, 53, 22
1, 181440, Note_on_c, 0, 56, 25
1, 181453, Control_c, 0, 64, 0
1, 181666, Control_c, 0, 64, 127
1, 182400, Note_on_c, 0, 65, 0
1, 182400, Note_on_c, 0, 66, 39
1, 182640, Note_on_c, 0, 66, 0
1, 182640, Note_on_c, 0, 65, 38
1, 182880, Tempo, 480000
1, 182880, Note_on_c, 0, 65, 0
1, 182880, Note_on_c, 0, 44, 0
1, 182880, Note_on_c, 0, 49, 0
1, 182880, Note_on_c, 0, 37, 0
1, 182880, Note_on_c, 0, 56, 0
1, 182880, Note_on_c, 0, 53, 0
1, 182880, Note_on_c, 0, 63, 39
1, 182880, Note_on_c, 0, 39, 22
1, 182880, Note_on_c, 0, 44, 22
1, 182880, Note_on_c, 0, 48, 22
1, 182880, Note_on_c, 0, 56, 25
1, 182880, Note_on_c, 0, 54, 22
1, 182893, Control_c, 0, 64, 0
1, 183120, Control_c, 0, 64, 127
1, 183840, Note_on_c, 0, 63, 0
1, 183840, Note_on_c, 0, 65, 37
1, 184080, Note_on_c, 0, 65, 0
1, 184080, Note_on_c, 0, 63, 35
1, 184320, Note_on_c, 0, 63, 0
1, 184320, Note_on_c, 0, 44, 0
1, 184320, Note_on_c, 0, 48, 0
1, 184320, Note_on_c, 0, 39, 0
1, 184320, Note_on_c, 0, 54, 0
1, 184320, Note_on_c, 0, 56, 0
1, 184320, Note_on_c, 0, 49, 22
1, 184320, Note_on_c, 0, 41, 22
1, 184320, Note_on_c, 0, 44, 22
1, 184320, Note_on_c, 0, 61, 28
1, 184320, Note_on_c, 0, 53, 22
1, 184320, Note_on_c, 0, 56, 22
1, 184332, Control_c, 0, 64, 0
1, 184680, Note_on_c, 0, 56, 0
1, 184680, Note_on_c, 0, 41, 0
1, 184680, Note_on_c, 0, 44, 0
1, 184680, Note_on_c, 0, 49, 0
1, 184680, Note_on_c, 0, 53, 0
1, 184680, Note_on_c, 0, 61, 0
1, 184800, Note_on_c, 0, 49, 24
1, 184800, Note_on_c, 0, 42, 24
1, 184800, Note_on_c, 0, 46, 24
1, 184800, Note_on_c, 0, 61, 30
1, 184800, Note_on_c, 0, 58, 24
1, 184800, Note_on_c, 0, 54, 24
1, 185160, Note_on_c, 0, 54, 0
1, 185160, Note_on_c, 0, 42, 0
1, 185160, Note_on_c, 0, 46, 0
1, 185160, Note_on_c, 0, 49, 0
1, 185160, Note_on_c, 0, 58, 0
1, 185160, Note_on_c, 0, 61, 0
1, 185280, Tempo, 526316
1, 185280, Note_on_c, 0, 43, 25
1, 185280, Note_on_c, 0, 46, 25
1, 185280, Note_on_c, 0, 49, 25
1, 185280, Note_on_c, 0, 63, 32
1, 185280, Note_on_c, 0, 61, 25
1, 185280, Note_on_c, 0, 58, 25
1, 185280, Note_on_c, 0, 51, 25
1, 185640, Note_on_c, 0, 51, 0
1, 185640, Note_on_c, 0, 61, 0
1, 185640, Note_on_c, 0, 46, 0
1, 185640, Note_on_c, 0, 49, 0
1, 185640, Note_on_c, 0, 43, 0
1, 185640, Note_on_c, 0, 58, 0
1, 185640, Note_on_c, 0, 63, 0
1, 185760, Tempo, 502092
1, 185760, Note_on_c, 0, 44, 23
1, 185760, Note_on_c, 0, 48, 23
1, 185760, Note_on_c, 0, 51, 23
1, 185760, Note_on_c, 0, 56, 29
1, 185947, Control_c, 0, 64, 127
1, 186720, Tempo, 495868
1, 186720, Note_on_c, 0, 56, 0
1, 186720, Note_on_c, 0, 44, 0
1, 186720, Note_on_c, 0, 48, 0
1, 186720, Note_on_c, 0, 51, 0
1, 186720, Note_on_c, 0, 56, 48
1, 186720, Note_on_c, 0, 61, 48
1, 186720, Note_on_c, 0, 68, 61
1, 186720, Note_on_c, 0, 41, 38
1, 186720, Note_on_c, 0, 49, 38
1, 186720, Note_on_c, 0, 53, 43
1, 186730, Control_c, 0, 64, 0
1, 186987, Control_c, 0, 64, 127
1, 187176, Note_on_c, 0, 53, 0
1, 187176, Note_on_c, 0, 61, 0
1, 187176, Note_on_c, 0, 68, 0
1, 187176, Note_on_c, 0, 56, 0
1, 187176, Note_on_c, 0, 49, 0
1, 187176, Note_on_c, 0, 41, 0
1, 187200, Tempo, 461538
1, 187200, Note_on_c, 0, 56, 48
1, 187200, Note_on_c, 0, 61, 48
1, 187200, Note_on_c, 0, 68, 61
1, 187200, Note_on_c, 0, 41, 38
1, 187200, Note_on_c, 0, 49, 38
1, 187200, Note_on_c, 0, 53, 43
1, 188160, Note_on_c, 0, 53, 0
1, 188160, Note_on_c, 0, 61, 0
1, 188160, Note_on_c, 0, 68, 0
1, 188160, Note_on_c, 0, 56, 0
1, 188160, Note_on_c, 0, 49, 0
1, 188160, Note_on_c, 0, 41, 0
1, 188160, Note_on_c, 0, 58, 54
1, 188160, Note_on_c, 0, 70, 68
1, 188160, Note_on_c, 0, 61, 54
1, 188160, Note_on_c, 0, 42, 38
1, 188160, Note_on_c, 0, 54, 43
1, 188160, Note_on_c, 0, 49, 38
1, 188166, Control_c, 0, 64, 0
1, 188301, Control_c, 0, 64, 127
1, 188400, Note_on_c, 0, 54, 0
1, 188400, Note_on_c, 0, 42, 0
1, 188400, Note_on_c, 0, 70, 0
1, 188400, Note_on_c, 0, 58, 0
1, 188400, Note_on_c, 0, 56, 48
1, 188400, Note_on_c, 0, 68, 60
1, 188400, Note_on_c, 0, 41, 35
1, 188400, Note_on_c, 0, 53, 39
1, 188640, Tempo, 487805
1, 188640, Note_on_c, 0, 53, 0
1, 188640, Note_on_c, 0, 49, 0
1, 188640, Note_on_c, 0, 56, 0
1, 188640, Note_on_c, 0, 61, 0
1, 188640, Note_on_c, 0, 41, 0
1, 188640, Note_on_c, 0, 68, 0
1, 188640, Note_on_c, 0, 56, 47
1, 188640, Note_on_c, 0, 61, 47
1, 188640, Note_on_c, 0, 68, 59
1, 188640, Note_on_c, 0, 41, 35
1, 188640, Note_on_c, 0, 49, 35
1, 188640, Note_on_c, 0, 53, 39
1, 188645, Control_c, 0, 64, 0
1, 188960, Control_c, 0, 64, 127
1, 189120, Tempo, 474308
1, 189120, Note_on_c, 0, 53, 0
1, 189120, Note_on_c, 0, 61, 0
1, 189120, Note_on_c, 0, 68, 0
1, 189120, Note_on_c, 0, 56, 0
1, 189120, Note_on_c, 0, 49, 0
1, 189120, Note_on_c, 0, 41, 0
1, 189120, Note_on_c, 0, 65, 62
1, 189120, Note_on_c, 0, 68, 62
1, 189120, Note_on_c, 0, 77, 77
1, 189120, Note_on_c, 0, 56, 48
1, 189120, Note_on_c, 0, 49, 48
1, 189120, Note_on_c, 0, 61, 54
1, 189600, Note_on_c, 0, 61, 0
1, 189600, Note_on_c, 0, 68, 0
1, 189600, Note_on_c, 0, 77, 0
1, 189600, Note_on_c, 0, 65, 0
1, 189600, Note_on_c, 0, 49, 0
1, 189600, Note_on_c, 0, 56, 0
1, 189600, Note_on_c, 0, 63, 56
1, 189600, Note_on_c, 0, 68, 56
1, 189600, Note_on_c, 0, 75, 71
1, 189600, Note_on_c, 0, 56, 45
1, 189600, Note_on_c, 0, 48, 45
1, 189600, Note_on_c, 0, 60, 51
1, 189616, Control_c, 0, 64, 0
1, 189787, Control_c, 0, 64, 127
1, 190080, Note_on_c, 0, 60, 0
1, 190080, Note_on_c, 0, 68, 0
1, 190080, Note_on_c, 0, 75, 0
1, 190080, Note_on_c, 0, 63, 0
1, 190080, Note_on_c, 0, 48, 0
1, 190080, Note_on_c, 0, 56, 0
1, 190080, Note_on_c, 0, 61, 64
1, 190080, Note_on_c, 0, 65, 64
1, 190080, Note_on_c, 0, 73, 80
1, 190080, Note_on_c, 0, 46, 51
1, 190080, Note_on_c, 0, 53, 51
1, 190080, Note_on_c, 0, 58, 57
1, 190086, Control_c, 0, 64, 0
1, 190333, Control_c, 0, 64, 127
1, 191040, Tempo, 491803
1, 191040, Note_on_c, 0, 58, 0
1, 191040, Note_on_c, 0, 65, 0
1, 191040, Note_on_c, 0, 73, 0
1, 191040, Note_on_c, 0, 61, 0
1, 191040, Note_on_c, 0, 53, 0
1, 191040, Note_on_c, 0, 46, 0
1, 191040, Note_on_c, 0, 60, 61
1, 191040, Note_on_c, 0, 63, 61
1, 191040, Note_on_c, 0, 68, 61
1, 191040, Note_on_c, 0, 72, 76
1, 191040, Note_on_c, 0, 44, 48
1, 191040, Note_on_c, 0, 56, 54
1, 191040, Note_on_c, 0, 54, 48
1, 191048, Control_c, 0, 64, 0
1, 191268, Control_c, 0, 64, 127
1, 191520, Tempo, 461538
1, 191520, Note_on_c, 0, 54, 0
1, 191520, Note_on_c, 0, 44, 0
1, 191520, Note_on_c, 0, 63, 0
1, 191520, Note_on_c, 0, 68, 0
1, 191520, Note_on_c, 0, 60, 0
1, 191520, Note_on_c, 0, 56, 0
1, 191520, Note_on_c, 0, 72, 0
1, 191520, Note_on_c, 0, 61, 64
1, 191520, Note_on_c, 0, 65, 64
1, 191520, Note_on_c, 0, 68, 64
1, 191520, Note_on_c, 0, 73, 81
1, 191520, Note_on_c, 0, 49, 51
1, 191520, Note_on_c, 0, 53, 51
1, 191520, Note_on_c, 0, 56, 57
1, 191525, Control_c, 0, 64, 0
1, 191734, Control_c, 0, 64, 127
1, 192480, Tempo, 481928
1, 192480, Note_on_c, 0, 56, 0
1, 192480, Note_on_c, 0, 49, 0
1, 192480, Note_on_c, 0, 65, 0
1, 192480, Note_on_c, 0, 68, 0
1, 192480, Note_on_c, 0, 61, 0
1, 192480, Note_on_c, 0, 53, 0
1, 192480, Note_on_c, 0, 73, 0
1, 192480, Note_on_c, 0, 68, 66
1, 192480, Note_on_c, 0, 80, 83
1, 192480, Note_on_c, 0, 73, 66
1, 192480, Note_on_c, 0, 65, 59
1, 192480, Note_on_c, 0, 61, 53
1, 192480, Note_on_c, 0, 53, 53
1, 192486, Control_c, 0, 64, 0
1, 192694, Control_c, 0, 64, 127
1, 192936, Note_on_c, 0, 53, 0
1, 192936, Note_on_c, 0, 80, 0
1, 192936, Note_on_c, 0, 73, 0
1, 192936, Note_on_c, 0, 68, 0
1, 192936, Note_on_c, 0, 61, 0
1, 192936, Note_on_c, 0, 65, 0
1, 192960, Tempo, 451128
1, 192960, Note_on_c, 0, 68, 66
1, 192960, Note_on_c, 0, 73, 66
1, 192960, Note_on_c, 0, 80, 83
1, 192960, Note_on_c, 0, 53, 51
1, 192960, Note_on_c, 0, 61, 51
1, 192960, Note_on_c, 0, 65, 57
1, 193920, Tempo, 451128
1, 193920, Note_on_c, 0, 65, 0
1, 193920, Note_on_c, 0, 73, 0
1, 193920, Note_on_c, 0, 80, 0
1, 193920, Note_on_c, 0, 68, 0
1, 193920, Note_on_c, 0, 61, 0
1, 193920, Note_on_c, 0, 53, 0
1, 193920, Note_on_c, 0, 70, 71
1, 193920, Note_on_c, 0, 82, 88
1, 193920, Note_on_c, 0, 73, 71
1, 193920, Note_on_c, 0, 66, 61
1, 193920, Note_on_c, 0, 54, 54
1, 193920, Note_on_c, 0, 61, 54
1, 193928, Control_c, 0, 64, 0
1, 194090, Control_c, 0, 64, 127
1, 194160, Note_on_c, 0, 54, 0
1, 194160, Note_on_c, 0, 66, 0
1, 194160, Note_on_c, 0, 82, 0
1, 194160, Note_on_c, 0, 70, 0
1, 194160, Note_on_c, 0, 68, 66
1, 194160, Note_on_c, 0, 80, 83
1, 194160, Note_on_c, 0, 65, 57
1, 194160, Note_on_c, 0, 53, 51
1, 194400, Tempo, 493827
1, 194400, Note_on_c, 0, 53, 0
1, 194400, Note_on_c, 0, 61, 0
1, 194400, Note_on_c, 0, 68, 0
1, 194400, Note_on_c, 0, 73, 0
1, 194400, Note_on_c, 0, 65, 0
1, 194400, Note_on_c, 0, 80, 0
1, 194400, Note_on_c, 0, 68, 66
1, 194400, Note_on_c, 0, 73, 66
1, 194400, Note_on_c, 0, 80, 83
1, 194400, Note_on_c, 0, 65, 59
1, 194400, Note_on_c, 0, 61, 53
1, 194400, Note_on_c, 0, 53, 53
1, 194411, Control_c, 0, 64, 0
1, 194614, Control_c, 0, 64, 127
1, 194880, Tempo, 472441
1, 194880, Note_on_c, 0, 53, 0
1, 194880, Note_on_c, 0, 73, 0
1, 194880, Note_on_c, 0, 80, 0
1, 194880, Note_on_c, 0, 68, 0
1, 194880, Note_on_c, 0, 61, 0
1, 194880, Note_on_c, 0, 65, 0
1, 194880, Note_on_c, 0, 61, 73
1, 194880, Note_on_c, 0, 68, 73
1, 194880, Note_on_c, 0, 73, 73
1, 194880, Note_on_c, 0, 89, 92
1, 194880, Note_on_c, 0, 80, 73
1, 194880, Note_on_c, 0, 77, 73
1, 195360, Tempo, 493827
1, 195360, Note_on_c, 0, 77, 0
1, 195360, Note_on_c, 0, 68, 0
1, 195360, Note_on_c, 0, 73, 0
1, 195360, Note_on_c, 0, 61, 0
1, 195360, Note_on_c, 0, 80, 0
1, 195360, Note_on_c, 0, 89, 0
1, 195360, Note_on_c, 0, 60, 72
1, 195360, Note_on_c, 0, 68, 72
1, 195360, Note_on_c, 0, 72, 72
1, 195360, Note_on_c, 0, 75, 72
1, 195360, Note_on_c, 0, 80, 72
1, 195360, Note_on_c, 0, 87, 89
1, 195373, Control_c, 0, 64, 0
1, 195547, Control_c, 0, 64, 127
1, 195840, Note_on_c, 0, 87, 0
1, 195840, Note_on_c, 0, 68, 0
1, 195840, Note_on_c, 0, 72, 0
1, 195840, Note_on_c, 0, 60, 0
1, 195840, Note_on_c, 0, 80, 0
1, 195840, Note_on_c, 0, 75, 0
1, 195840, Note_on_c, 0, 58, 72
1, 195840, Note_on_c, 0, 65, 72
1, 195840, Note_on_c, 0, 70, 72
1, 195840, Note_on_c, 0, 73, 72
1, 195840, Note_on_c, 0, 77, 72
1, 195840, Note_on_c, 0, 85, 90
1, 195851, Control_c, 0, 64, 0
1, 196093, Control_c, 0, 64, 127
1, 196800, Tempo, 530973
1, 196800, Note_on_c, 0, 85, 0
1, 196800, Note_on_c, 0, 65, 0
1, 196800, Note_on_c, 0, 70, 0
1, 196800, Note_on_c, 0, 58, 0
1, 196800, Note_on_c, 0, 77, 0
1, 196800, Note_on_c, 0, 73, 0
1, 196800, Note_on_c, 0, 56, 71
1, 196800, Note_on_c, 0, 66, 71
1, 196800, Note_on_c, 0, 68, 71
1, 196800, Note_on_c, 0, 72, 71
1, 196800, Note_on_c, 0, 75, 71
1, 196800, Note_on_c, 0, 80, 71
1, 196800, Note_on_c, 0, 84, 88
1, 196810, Control_c, 0, 64, 0
1, 197053, Control_c, 0, 64, 127
1, 197280, Tempo, 571429
1, 197280, Note_on_c, 0, 84, 0
1, 197280, Note_on_c, 0, 75, 0
1, 197280, Note_on_c, 0, 66, 0
1, 197280, Note_on_c, 0, 68, 0
1, 197280, Note_on_c, 0, 56, 0
1, 197280, Note_on_c, 0, 80, 0
1, 197280, Note_on_c, 0, 72, 0
1, 197280, Note_on_c, 0, 61, 65
1, 197280, Note_on_c, 0, 65, 65
1, 197280, Note_on_c, 0, 68, 72
1, 197280, Note_on_c, 0, 73, 72
1, 197280, Note_on_c, 0, 77, 72
1, 197280, Note_on_c, 0, 80, 72
1, 197280, Note_on_c, 0, 85, 91
1, 197280, Control_c, 0, 64, 0
1, 197464, Control_c, 0, 64, 127
1, 197930, Control_c, 0, 64, 0
1, 198000, Note_on_c, 0, 85, 0
1, 198000, Note_on_c, 0, 77, 0
1, 198000, Note_on_c, 0, 65, 0
1, 198000, Note_on_c, 0, 68, 0
1, 198000, Note_on_c, 0, 61, 0
1, 198000, Note_on_c, 0, 80, 0
1, 198000, Note_on_c, 0, 73, 0
1, 198240, Tempo, 614502
1, 198240, Marker_t, "Allegretto D.C."
1, 198240, Note_on_c, 0, 63, 38
1, 198240, Note_on_c, 0, 68, 38
1, 198240, Note_on_c, 0, 72, 48
1, 198240, Control_c, 0, 91, 127
1, 198240, Note_on_c, 0, 56, 36
1, 198240, Control_c, 0, 91, 127
1, 198339, Control_c, 0, 64, 127
1, 198720, Key_signature, -4, "major"
1, 198720, Tempo, 465188
1, 198720, Note_on_c, 0, 56, 0
1, 198720, Note_on_c, 0, 63, 0
1, 198720, Note_on_c, 0, 68, 0
1, 198720, Note_on_c, 0, 72, 0
1, 198720, Note_on_c, 0, 65, 43
1, 198720, Note_on_c, 0, 68, 43
1, 198720, Note_on_c, 0, 72, 54
1, 198720, Note_on_c, 0, 61, 38
1, 198733, Control_c, 0, 64, 0
1, 199147, Control_c, 0, 64, 127
1, 200160, Note_on_c, 0, 72, 0
1, 200160, Note_on_c, 0, 70, 51
1, 200174, Control_c, 0, 64, 0
1, 200640, Note_on_c, 0, 70, 0
1, 200640, Note_on_c, 0, 61, 0
1, 200640, Note_on_c, 0, 68, 0
1, 200640, Note_on_c, 0, 65, 0
1, 201120, Tempo, 587429
1, 201120, Note_on_c, 0, 77, 63
1, 201120, Note_on_c, 0, 70, 50
1, 201120, Note_on_c, 0, 67, 50
1, 201120, Note_on_c, 0, 65, 45
1, 201120, Note_on_c, 0, 61, 40
1, 201297, Control_c, 0, 64, 127
1, 201600, Tempo, 465188
1, 201600, Note_on_c, 0, 61, 0
1, 201600, Note_on_c, 0, 67, 0
1, 201600, Note_on_c, 0, 77, 0
1, 201600, Note_on_c, 0, 70, 0
1, 201600, Note_on_c, 0, 65, 0
1, 201600, Note_on_c, 0, 68, 52
1, 201600, Note_on_c, 0, 72, 52
1, 201600, Note_on_c, 0, 77, 65
1, 201600, Note_on_c, 0, 65, 45
1, 201600, Note_on_c, 0, 60, 40
1, 201614, Control_c, 0, 64, 0
1, 201894, Control_c, 0, 64, 127
1, 203040, Note_on_c, 0, 65, 0
1, 203040, Note_on_c, 0, 77, 0
1, 203040, Note_on_c, 0, 75, 60
1, 203040, Note_on_c, 0, 63, 43
1, 203048, Control_c, 0, 64, 0
1, 203520, Note_on_c, 0, 63, 0
1, 203520, Note_on_c, 0, 68, 0
1, 203520, Note_on_c, 0, 60, 0
1, 203520, Note_on_c, 0, 72, 0
1, 203520, Note_on_c, 0, 75, 0
1, 203648, Control_c, 0, 64, 127
1, 203760, Tempo, 401687
1, 203760, Note_on_c, 0, 60, 43
1, 203760, Note_on_c, 0, 63, 48
1, 203760, Note_on_c, 0, 56, 42
1, 204000, Note_on_c, 0, 56, 0
1, 204000, Note_on_c, 0, 63, 0
1, 204000, Note_on_c, 0, 68, 56
1, 204000, Note_on_c, 0, 51, 44
1, 204240, Note_on_c, 0, 51, 0
1, 204240, Note_on_c, 0, 68, 0
1, 204240, Note_on_c, 0, 72, 58
1, 204240, Note_on_c, 0, 48, 45
1, 204480, Tempo, 446097
1, 204480, Note_on_c, 0, 48, 0
1, 204480, Note_on_c, 0, 72, 0
1, 204480, Note_on_c, 0, 60, 0
1, 204480, Note_on_c, 0, 61, 48
1, 204480, Note_on_c, 0, 63, 48
1, 204480, Note_on_c, 0, 67, 48
1, 204480, Note_on_c, 0, 73, 60
1, 204480, Note_on_c, 0, 46, 37
1, 204480, Note_on_c, 0, 51, 37
1, 204480, Note_on_c, 0, 55, 42
1, 204483, Control_c, 0, 64, 0
1, 204800, Control_c, 0, 64, 127
1, 205440, Tempo, 521739
1, 205440, Note_on_c, 0, 55, 0
1, 205440, Note_on_c, 0, 46, 0
1, 205440, Note_on_c, 0, 63, 0
1, 205440, Note_on_c, 0, 67, 0
1, 205440, Note_on_c, 0, 61, 0
1, 205440, Note_on_c, 0, 51, 0
1, 205440, Note_on_c, 0, 73, 0
1, 205440, Note_on_c, 0, 60, 50
1, 205440, Note_on_c, 0, 63, 50
1, 205440, Note_on_c, 0, 68, 50
1, 205440, Note_on_c, 0, 72, 63
1, 205440, Note_on_c, 0, 44, 40
1, 205440, Note_on_c, 0, 51, 40
1, 205440, Note_on_c, 0, 56, 45
1, 205453, Control_c, 0, 64, 0
1, 205734, Control_c, 0, 64, 127
1, 205920, Tempo, 434468
1, 205920, Note_on_c, 0, 56, 0
1, 205920, Note_on_c, 0, 44, 0
1, 205920, Note_on_c, 0, 63, 0
1, 205920, Note_on_c, 0, 68, 0
1, 205920, Note_on_c, 0, 60, 0
1, 205920, Note_on_c, 0, 51, 0
1, 205920, Note_on_c, 0, 72, 0
1, 205920, Note_on_c, 0, 58, 51
1, 205920, Note_on_c, 0, 63, 51
1, 205920, Note_on_c, 0, 70, 64
1, 205920, Note_on_c, 0, 43, 41
1, 205920, Note_on_c, 0, 51, 41
1, 205920, Note_on_c, 0, 55, 46
1, 205931, Control_c, 0, 64, 0
1, 206169, Control_c, 0, 64, 127
1, 206880, Tempo, 627353
1, 206880, Note_on_c, 0, 55, 0
1, 206880, Note_on_c, 0, 63, 0
1, 206880, Note_on_c, 0, 70, 0
1, 206880, Note_on_c, 0, 58, 0
1, 206880, Note_on_c, 0, 51, 0
1, 206880, Note_on_c, 0, 43, 0
1, 206880, Note_on_c, 0, 62, 52
1, 206880, Note_on_c, 0, 70, 52
1, 206880, Note_on_c, 0, 68, 52
1, 206880, Note_on_c, 0, 74, 65
1, 206880, Note_on_c, 0, 41, 43
1, 206880, Note_on_c, 0, 46, 43
1, 206880, Note_on_c, 0, 53, 48
1, 206893, Control_c, 0, 64, 0
1, 207062, Control_c, 0, 64, 127
1, 207360, Tempo, 506885
1, 207360, Note_on_c, 0, 53, 0
1, 207360, Note_on_c, 0, 41, 0
1, 207360, Note_on_c, 0, 70, 0
1, 207360, Note_on_c, 0, 68, 0
1, 207360, Note_on_c, 0, 62, 0
1, 207360, Note_on_c, 0, 46, 0
1, 207360, Note_on_c, 0, 74, 0
1, 207360, Note_on_c, 0, 62, 55
1, 207360, Note_on_c, 0, 70, 55
1, 207360, Note_on_c, 0, 68, 55
1, 207360, Note_on_c, 0, 74, 69
1, 207360, Note_on_c, 0, 39, 45
1, 207360, Note_on_c, 0, 46, 45
1, 207360, Note_on_c, 0, 51, 51
1, 207379, Control_c, 0, 64, 0
1, 207653, Control_c, 0, 64, 127
1, 208800, Tempo, 465188
1, 208800, Note_on_c, 0, 74, 0
1, 208800, Note_on_c, 0, 68, 0
1, 208800, Note_on_c, 0, 62, 0
1, 208800, Note_on_c, 0, 67, 40
1, 208800, Note_on_c, 0, 63, 40
1, 208800, Note_on_c, 0, 75, 51
1, 208806, Control_c, 0, 64, 0
1, 209280, Note_on_c, 0, 75, 0
1, 209280, Note_on_c, 0, 67, 0
1, 209280, Note_on_c, 0, 46, 0
1, 209280, Note_on_c, 0, 51, 0
1, 209280, Note_on_c, 0, 70, 0
1, 209280, Note_on_c, 0, 63, 0
1, 209280, Note_on_c, 0, 39, 0
1, 209760, Tempo, 590319
1, 209760, Note_on_c, 0, 63, 42
1, 209760, Note_on_c, 0, 68, 42
1, 209760, Note_on_c, 0, 72, 53
1, 209760, Note_on_c, 0, 56, 37
1, 209920, Control_c, 0, 64, 127
1, 210240, Tempo, 465188
1, 210240, Note_on_c, 0, 56, 0
1, 210240, Note_on_c, 0, 63, 0
1, 210240, Note_on_c, 0, 68, 0
1, 210240, Note_on_c, 0, 72, 0
1, 210240, Note_on_c, 0, 65, 46
1, 210240, Note_on_c, 0, 68, 46
1, 210240, Note_on_c, 0, 72, 58
1, 210240, Note_on_c, 0, 61, 41
1, 210247, Control_c, 0, 64, 0
1, 210614, Control_c, 0, 64, 127
1, 211680, Note_on_c, 0, 72, 0
1, 211680, Note_on_c, 0, 70, 50
1, 211689, Control_c, 0, 64, 0
1, 212160, Note_on_c, 0, 70, 0
1, 212160, Note_on_c, 0, 61, 0
1, 212160, Note_on_c, 0, 68, 0
1, 212160, Note_on_c, 0, 65, 0
1, 212640, Tempo, 630650
1, 212640, Note_on_c, 0, 77, 79
1, 212640, Note_on_c, 0, 71, 71
1, 212640, Note_on_c, 0, 67, 63
1, 212640, Note_on_c, 0, 37, 40
1, 212640, Note_on_c, 0, 49, 45
1, 212823, Control_c, 0, 64, 127
1, 213120, Tempo, 461538
1, 213120, Note_on_c, 0, 49, 0
1, 213120, Note_on_c, 0, 67, 0
1, 213120, Note_on_c, 0, 77, 0
1, 213120, Note_on_c, 0, 71, 0
1, 213120, Note_on_c, 0, 37, 0
1, 213120, Note_on_c, 0, 67, 68
1, 213120, Note_on_c, 0, 72, 68
1, 213120, Note_on_c, 0, 77, 85
1, 213120, Note_on_c, 0, 36, 44
1, 213120, Note_on_c, 0, 48, 49
1, 213131, Control_c, 0, 64, 0
1, 213440, Control_c, 0, 64, 127
1, 214560, Tempo, 465188
1, 214560, Note_on_c, 0, 77, 0
1, 214560, Note_on_c, 0, 76, 51
1, 214574, Control_c, 0, 64, 0
1, 215040, Note_on_c, 0, 76, 0
1, 215040, Note_on_c, 0, 48, 0
1, 215040, Note_on_c, 0, 67, 0
1, 215040, Note_on_c, 0, 72, 0
1, 215040, Note_on_c, 0, 36, 0
1, 215520, Tempo, 570668
1, 215520, Note_on_c, 0, 67, 41
1, 215520, Note_on_c, 0, 72, 41
1, 215520, Note_on_c, 0, 76, 52
1, 215520, Note_on_c, 0, 64, 36
1, 215520, Note_on_c, 0, 60, 32
1, 215680, Control_c, 0, 64, 127
1, 216000, Tempo, 473111
1, 216000, Note_on_c, 0, 60, 0
1, 216000, Note_on_c, 0, 76, 0
1, 216000, Note_on_c, 0, 67, 0
1, 216000, Note_on_c, 0, 72, 0
1, 216000, Note_on_c, 0, 64, 0
1, 216000, Note_on_c, 0, 67, 45
1, 216000, Note_on_c, 0, 73, 57
1, 216000, Note_on_c, 0, 75, 57
1, 216000, Note_on_c, 0, 63, 40
1, 216000, Note_on_c, 0, 58, 36
1, 216006, Control_c, 0, 64, 0
1, 216400, Control_c, 0, 64, 127
1, 216960, Tempo, 537442
1, 216960, Note_on_c, 0, 58, 0
1, 216960, Note_on_c, 0, 75, 0
1, 216960, Note_on_c, 0, 67, 0
1, 216960, Note_on_c, 0, 73, 0
1, 216960, Note_on_c, 0, 63, 0
1, 216960, Note_on_c, 0, 68, 47
1, 216960, Note_on_c, 0, 72, 47
1, 216960, Note_on_c, 0, 75, 59
1, 216960, Note_on_c, 0, 63, 42
1, 216960, Note_on_c, 0, 56, 37
1, 216973, Control_c, 0, 64, 0
1, 217280, Control_c, 0, 64, 127
1, 217440, Tempo, 465188
1, 217440, Note_on_c, 0, 56, 0
1, 217440, Note_on_c, 0, 75, 0
1, 217440, Note_on_c, 0, 68, 0
1, 217440, Note_on_c, 0, 72, 0
1, 217440, Note_on_c, 0, 63, 0
1, 217440, Note_on_c, 0, 65, 51
1, 217440, Note_on_c, 0, 70, 51
1, 217440, Note_on_c, 0, 73, 64
1, 217440, Note_on_c, 0, 49, 51
1, 217454, Control_c, 0, 64, 0
1, 217624, Control_c, 0, 64, 127
1, 218400, Tempo, 508431
1, 218400, Note_on_c, 0, 49, 0
1, 218400, Note_on_c, 0, 65, 0
1, 218400, Note_on_c, 0, 70, 0
1, 218400, Note_on_c, 0, 73, 0
1, 218400, Note_on_c, 0, 72, 53
1, 218400, Note_on_c, 0, 61, 47
1, 218400, Note_on_c, 0, 67, 47
1, 218400, Note_on_c, 0, 51, 43
1, 218402, Control_c, 0, 64, 0
1, 218640, Tempo, 641711
1, 218640, Note_on_c, 0, 72, 0
1, 218640, Note_on_c, 0, 70, 51
1, 218640, Control_c, 0, 64, 127
1, 218760, Tempo, 831716
1, 218880, Tempo, 491803
1, 218880, Note_on_c, 0, 70, 0
1, 218880, Note_on_c, 0, 51, 0
1, 218880, Note_on_c, 0, 67, 0
1, 218880, Note_on_c, 0, 61, 0
1, 218880, Note_on_c, 0, 61, 39
1, 218880, Note_on_c, 0, 67, 39
1, 218880, Note_on_c, 0, 70, 44
1, 218880, Note_on_c, 0, 44, 31
1, 218880, Note_on_c, 0, 51, 35
1, 218890, Control_c, 0, 64, 0
1, 219200, Control_c, 0, 64, 127
1, 220320, Note_on_c, 0, 70, 0
1, 220320, Note_on_c, 0, 61, 0
1, 220320, Note_on_c, 0, 67, 0
1, 220320, Note_on_c, 0, 60, 28
1, 220320, Note_on_c, 0, 68, 33
1, 220327, Control_c, 0, 64, 0
1, 220800, Note_on_c, 0, 68, 0
1, 220800, Note_on_c, 0, 51, 0
1, 220800, Note_on_c, 0, 44, 0
1, 220800, Note_on_c, 0, 60, 0
1, 220808, Tempo, 563222
1, 221280, Note_on_c, 0, 62, 32
1, 221280, Note_on_c, 0, 68, 32
1, 221280, Note_on_c, 0, 71, 40
1, 221280, Note_on_c, 0, 52, 25
1, 221280, Note_on_c, 0, 56, 25
1, 221280, Note_on_c, 0, 59, 28
1, 221326, Control_c, 0, 64, 127
1, 221400, Tempo, 614502
1, 221736, Note_on_c, 0, 59, 0
1, 221736, Note_on_c, 0, 68, 0
1, 221736, Note_on_c, 0, 71, 0
1, 221736, Note_on_c, 0, 62, 0
1, 221736, Note_on_c, 0, 56, 0
1, 221736, Note_on_c, 0, 52, 0
1, 221760, Tempo, 462820
1, 221760, Note_on_c, 0, 62, 32
1, 221760, Note_on_c, 0, 68, 32
1, 221760, Note_on_c, 0, 71, 40
1, 221760, Note_on_c, 0, 52, 25
1, 221760, Note_on_c, 0, 56, 25
1, 221760, Note_on_c, 0, 59, 28
1, 223200, Note_on_c, 0, 52, 0
1, 223200, Note_on_c, 0, 62, 0
1, 223200, Note_on_c, 0, 63, 28
1, 223200, Note_on_c, 0, 51, 22
1, 223206, Control_c, 0, 64, 0
1, 223680, Note_on_c, 0, 51, 0
1, 223680, Note_on_c, 0, 59, 0
1, 223680, Note_on_c, 0, 71, 0
1, 223680, Note_on_c, 0, 68, 0
1, 223680, Note_on_c, 0, 63, 0
1, 223680, Note_on_c, 0, 56, 0
1, 224160, Tempo, 593237
1, 224160, Note_on_c, 0, 64, 36
1, 224160, Note_on_c, 0, 68, 36
1, 224160, Note_on_c, 0, 71, 45
1, 224160, Note_on_c, 0, 49, 27
1, 224160, Note_on_c, 0, 56, 27
1, 224160, Note_on_c, 0, 59, 30
1, 224320, Control_c, 0, 64, 127
1, 224616, Note_on_c, 0, 59, 0
1, 224616, Note_on_c, 0, 68, 0
1, 224616, Note_on_c, 0, 71, 0
1, 224616, Note_on_c, 0, 64, 0
1, 224616, Note_on_c, 0, 56, 0
1, 224616, Note_on_c, 0, 49, 0
1, 224640, Tempo, 462820
1, 224640, Note_on_c, 0, 64, 39
1, 224640, Note_on_c, 0, 68, 39
1, 224640, Note_on_c, 0, 71, 49
1, 224640, Note_on_c, 0, 49, 28
1, 224640, Note_on_c, 0, 56, 28
1, 224640, Note_on_c, 0, 59, 32
1, 226080, Note_on_c, 0, 49, 0
1, 226080, Note_on_c, 0, 64, 0
1, 226080, Note_on_c, 0, 63, 29
1, 226080, Note_on_c, 0, 47, 21
1, 226094, Control_c, 0, 64, 0
1, 226560, Note_on_c, 0, 47, 0
1, 226560, Note_on_c, 0, 59, 0
1, 226560, Note_on_c, 0, 71, 0
1, 226560, Note_on_c, 0, 68, 0
1, 226560, Note_on_c, 0, 63, 0
1, 226560, Note_on_c, 0, 56, 0
1, 227040, Tempo, 515021
1, 227040, Note_on_c, 0, 63, 41
1, 227040, Note_on_c, 0, 68, 46
1, 227040, Note_on_c, 0, 71, 52
1, 227040, Note_on_c, 0, 47, 29
1, 227040, Note_on_c, 0, 56, 29
1, 227040, Note_on_c, 0, 59, 33
1, 227223, Control_c, 0, 64, 127
1, 227520, Tempo, 515021
1, 227520, Note_on_c, 0, 59, 0
1, 227520, Note_on_c, 0, 68, 0
1, 227520, Note_on_c, 0, 71, 0
1, 227520, Note_on_c, 0, 63, 0
1, 227520, Note_on_c, 0, 56, 0
1, 227520, Note_on_c, 0, 47, 0
1, 227520, Note_on_c, 0, 70, 58
1, 227520, Note_on_c, 0, 64, 46
1, 227520, Note_on_c, 0, 68, 52
1, 227520, Note_on_c, 0, 49, 35
1, 227520, Note_on_c, 0, 58, 39
1, 227520, Note_on_c, 0, 56, 35
1, 227533, Control_c, 0, 64, 0
1, 227845, Control_c, 0, 64, 127
1, 228000, Tempo, 462820
1, 228000, Note_on_c, 0, 70, 0
1, 228000, Note_on_c, 0, 76, 65
1, 228720, Note_on_c, 0, 76, 0
1, 228720, Note_on_c, 0, 70, 51
1, 228960, Tempo, 475210
1, 228960, Note_on_c, 0, 70, 0
1, 228960, Note_on_c, 0, 49, 0
1, 228960, Note_on_c, 0, 75, 57
1, 228960, Note_on_c, 0, 46, 40
1, 228972, Control_c, 0, 64, 0
1, 229144, Control_c, 0, 64, 127
1, 229200, Note_on_c, 0, 75, 0
1, 229200, Note_on_c, 0, 73, 55
1, 229440, Note_on_c, 0, 73, 0
1, 229440, Note_on_c, 0, 46, 0
1, 229440, Note_on_c, 0, 71, 55
1, 229440, Note_on_c, 0, 47, 37
1, 229455, Control_c, 0, 64, 0
1, 229624, Control_c, 0, 64, 127
1, 229920, Tempo, 565291
1, 229920, Note_on_c, 0, 47, 0
1, 229920, Note_on_c, 0, 56, 0
1, 229920, Note_on_c, 0, 58, 0
1, 229920, Note_on_c, 0, 64, 0
1, 229920, Note_on_c, 0, 71, 0
1, 229920, Note_on_c, 0, 68, 0
1, 229920, Note_on_c, 0, 64, 41
1, 229920, Note_on_c, 0, 61, 41
1, 229920, Note_on_c, 0, 70, 52
1, 229920, Note_on_c, 0, 49, 35
1, 229927, Control_c, 0, 64, 0
1, 230076, Control_c, 0, 64, 127
1, 230400, Tempo, 462820
1, 230400, Note_on_c, 0, 49, 0
1, 230400, Note_on_c, 0, 64, 0
1, 230400, Note_on_c, 0, 61, 0
1, 230400, Note_on_c, 0, 70, 0
1, 230400, Note_on_c, 0, 63, 39
1, 230400, Note_on_c, 0, 59, 39
1, 230400, Note_on_c, 0, 68, 49
1, 230400, Note_on_c, 0, 51, 35
1, 230409, Control_c, 0, 64, 0
1, 230694, Control_c, 0, 64, 127
1, 231840, Note_on_c, 0, 68, 0
1, 231840, Note_on_c, 0, 59, 0
1, 231840, Note_on_c, 0, 58, 27
1, 231840, Note_on_c, 0, 67, 35
1, 231857, Control_c, 0, 64, 0
1, 232320, Note_on_c, 0, 67, 0
1, 232320, Note_on_c, 0, 51, 0
1, 232320, Note_on_c, 0, 63, 0
1, 232320, Note_on_c, 0, 58, 0
1, 232800, Tempo, 581734
1, 232800, Note_on_c, 0, 62, 28
1, 232800, Note_on_c, 0, 68, 28
1, 232800, Note_on_c, 0, 71, 36
1, 232800, Note_on_c, 0, 52, 22
1, 232800, Note_on_c, 0, 56, 22
1, 232800, Note_on_c, 0, 59, 25
1, 232983, Control_c, 0, 64, 127
1, 233256, Note_on_c, 0, 59, 0
1, 233256, Note_on_c, 0, 68, 0
1, 233256, Note_on_c, 0, 71, 0
1, 233256, Note_on_c, 0, 62, 0
1, 233256, Note_on_c, 0, 56, 0
1, 233256, Note_on_c, 0, 52, 0
1, 233280, Tempo, 462820
1, 233280, Note_on_c, 0, 62, 28
1, 233280, Note_on_c, 0, 68, 28
1, 233280, Note_on_c, 0, 71, 36
1, 233280, Note_on_c, 0, 52, 22
1, 233280, Note_on_c, 0, 56, 22
1, 233280, Note_on_c, 0, 59, 25
1, 234720, Note_on_c, 0, 52, 0
1, 234720, Note_on_c, 0, 62, 0
1, 234720, Note_on_c, 0, 63, 25
1, 234720, Note_on_c, 0, 51, 19
1, 234735, Control_c, 0, 64, 0
1, 235200, Note_on_c, 0, 51, 0
1, 235200, Note_on_c, 0, 59, 0
1, 235200, Note_on_c, 0, 71, 0
1, 235200, Note_on_c, 0, 68, 0
1, 235200, Note_on_c, 0, 63, 0
1, 235200, Note_on_c, 0, 56, 0
1, 235680, Tempo, 581734
1, 235680, Note_on_c, 0, 64, 38
1, 235680, Note_on_c, 0, 68, 38
1, 235680, Note_on_c, 0, 71, 48
1, 235680, Note_on_c, 0, 49, 28
1, 235680, Note_on_c, 0, 56, 28
1, 235680, Note_on_c, 0, 59, 32
1, 235749, Control_c, 0, 64, 127
1, 236136, Note_on_c, 0, 59, 0
1, 236136, Note_on_c, 0, 68, 0
1, 236136, Note_on_c, 0, 71, 0
1, 236136, Note_on_c, 0, 64, 0
1, 236136, Note_on_c, 0, 56, 0
1, 236136, Note_on_c, 0, 49, 0
1, 236160, Tempo, 462820
1, 236160, Note_on_c, 0, 64, 35
1, 236160, Note_on_c, 0, 68, 35
1, 236160, Note_on_c, 0, 71, 44
1, 236160, Note_on_c, 0, 49, 27
1, 236160, Note_on_c, 0, 56, 27
1, 236160, Note_on_c, 0, 59, 31
1, 237600, Note_on_c, 0, 49, 0
1, 237600, Note_on_c, 0, 64, 0
1, 237600, Note_on_c, 0, 63, 30
1, 237600, Note_on_c, 0, 47, 18
1, 237602, Control_c, 0, 64, 0
1, 238080, Note_on_c, 0, 47, 0
1, 238080, Note_on_c, 0, 59, 0
1, 238080, Note_on_c, 0, 71, 0
1, 238080, Note_on_c, 0, 68, 0
1, 238080, Note_on_c, 0, 63, 0
1, 238080, Note_on_c, 0, 56, 0
1, 238560, Tempo, 521739
1, 238560, Note_on_c, 0, 64, 40
1, 238560, Note_on_c, 0, 68, 40
1, 238560, Note_on_c, 0, 71, 45
1, 238560, Control_c, 0, 64, 127
1, 238560, Note_on_c, 0, 52, 34
1, 238560, Note_on_c, 0, 47, 34
1, 238560, Note_on_c, 0, 56, 34
1, 238560, Note_on_c, 0, 59, 38
1, 239040, Key_signature, 4, "major"
1, 239040, Tempo, 533333
1, 239040, Note_on_c, 0, 59, 0
1, 239040, Note_on_c, 0, 47, 0
1, 239040, Note_on_c, 0, 68, 0
1, 239040, Note_on_c, 0, 71, 0
1, 239040, Note_on_c, 0, 64, 0
1, 239040, Note_on_c, 0, 56, 0
1, 239040, Note_on_c, 0, 52, 0
1, 239040, Note_on_c, 0, 71, 50
1, 239040, Note_on_c, 0, 64, 45
1, 239040, Note_on_c, 0, 68, 45
1, 239040, Note_on_c, 0, 47, 39
1, 239040, Note_on_c, 0, 52, 39
1, 239040, Note_on_c, 0, 56, 39
1, 239040, Note_on_c, 0, 59, 44
1, 239520, Tempo, 461538
1, 239520, Note_on_c, 0, 71, 0
1, 239520, Note_on_c, 0, 76, 70
1, 240184, Control_c, 0, 64, 0
1, 240240, Tempo, 750000
1, 240240, Note_on_c, 0, 76, 0
1, 240240, Note_on_c, 0, 71, 60
1, 240360, Tempo, 545455
1, 240360, Note_on_c, 0, 71, 0
1, 240360, Note_on_c, 0, 71, 55
1, 240460, Tempo, 474308
1, 240480, Note_on_c, 0, 71, 0
1, 240480, Note_on_c, 0, 59, 0
1, 240480, Note_on_c, 0, 68, 0
1, 240480, Note_on_c, 0, 47, 0
1, 240480, Note_on_c, 0, 52, 0
1, 240480, Note_on_c, 0, 56, 0
1, 240480, Note_on_c, 0, 75, 73
1, 240480, Note_on_c, 0, 47, 37
1, 240480, Note_on_c, 0, 52, 37
1, 240480, Note_on_c, 0, 56, 37
1, 240480, Note_on_c, 0, 59, 42
1, 240593, Control_c, 0, 64, 127
1, 240620, Tempo, 476190
1, 240720, Note_on_c, 0, 75, 0
1, 240720, Note_on_c, 0, 73, 70
1, 240780, Tempo, 478088
1, 240940, Tempo, 480000
1, 240960, Note_on_c, 0, 73, 0
1, 240960, Note_on_c, 0, 71, 67
1, 241100, Tempo, 481928
1, 241240, Tempo, 483871
1, 241400, Tempo, 485830
1, 241440, Note_on_c, 0, 71, 0
1, 241440, Note_on_c, 0, 68, 65
1, 241560, Tempo, 487805
1, 241720, Tempo, 489796
1, 241860, Tempo, 491803
1, 241880, Tempo, 468933
1, 241920, Tempo, 506329
1, 241920, Note_on_c, 0, 68, 0
1, 241920, Note_on_c, 0, 59, 0
1, 241920, Note_on_c, 0, 52, 0
1, 241920, Note_on_c, 0, 64, 0
1, 241920, Note_on_c, 0, 47, 0
1, 241920, Note_on_c, 0, 56, 0
1, 241920, Note_on_c, 0, 65, 62
1, 241920, Note_on_c, 0, 61, 55
1, 241920, Note_on_c, 0, 47, 35
1, 241920, Note_on_c, 0, 53, 35
1, 241920, Note_on_c, 0, 56, 39
1, 241924, Control_c, 0, 64, 0
1, 242132, Control_c, 0, 64, 127
1, 242400, Tempo, 470588
1, 242400, Note_on_c, 0, 65, 0
1, 242400, Note_on_c, 0, 73, 70
1, 243120, Note_on_c, 0, 73, 0
1, 243120, Note_on_c, 0, 65, 58
1, 243340, Tempo, 470588
1, 243360, Note_on_c, 0, 65, 0
1, 243360, Note_on_c, 0, 53, 0
1, 243360, Note_on_c, 0, 61, 0
1, 243360, Note_on_c, 0, 47, 0
1, 243360, Note_on_c, 0, 56, 0
1, 243360, Note_on_c, 0, 61, 56
1, 243360, Note_on_c, 0, 66, 56
1, 243360, Note_on_c, 0, 73, 70
1, 243360, Note_on_c, 0, 47, 43
1, 243360, Note_on_c, 0, 54, 38
1, 243360, Note_on_c, 0, 57, 43
1, 243372, Control_c, 0, 64, 0
1, 243500, Tempo, 472441
1, 243572, Control_c, 0, 64, 127
1, 243600, Note_on_c, 0, 73, 0
1, 243600, Note_on_c, 0, 69, 70
1, 243660, Tempo, 474308
1, 243820, Tempo, 476190
1, 243840, Note_on_c, 0, 69, 0
1, 243840, Note_on_c, 0, 57, 0
1, 243840, Note_on_c, 0, 61, 0
1, 243840, Note_on_c, 0, 54, 0
1, 243840, Note_on_c, 0, 66, 0
1, 243840, Note_on_c, 0, 64, 56
1, 243840, Note_on_c, 0, 68, 70
1, 243840, Note_on_c, 0, 56, 38
1, 243840, Note_on_c, 0, 59, 43
1, 243853, Control_c, 0, 64, 0
1, 243980, Tempo, 478088
1, 244038, Control_c, 0, 64, 127
1, 244140, Tempo, 480000
1, 244300, Tempo, 481928
1, 244320, Note_on_c, 0, 59, 0
1, 244320, Note_on_c, 0, 68, 0
1, 244320, Note_on_c, 0, 56, 0
1, 244320, Note_on_c, 0, 64, 0
1, 244320, Note_on_c, 0, 63, 60
1, 244320, Note_on_c, 0, 66, 67
1, 244320, Note_on_c, 0, 57, 38
1, 244320, Note_on_c, 0, 59, 43
1, 244330, Control_c, 0, 64, 0
1, 244460, Tempo, 483871
1, 244504, Control_c, 0, 64, 127
1, 244620, Tempo, 485830
1, 244780, Tempo, 487805
1, 244800, Note_on_c, 0, 59, 0
1, 244800, Note_on_c, 0, 66, 0
1, 244800, Note_on_c, 0, 47, 0
1, 244800, Note_on_c, 0, 63, 0
1, 244800, Note_on_c, 0, 57, 0
1, 244800, Note_on_c, 0, 56, 53
1, 244800, Note_on_c, 0, 59, 53
1, 244800, Note_on_c, 0, 64, 66
1, 244800, Note_on_c, 0, 40, 41
1, 244800, Note_on_c, 0, 47, 41
1, 244800, Note_on_c, 0, 52, 46
1, 244804, Control_c, 0, 64, 0
1, 245033, Control_c, 0, 64, 127
1, 245760, Tempo, 397193
1, 245760, Note_on_c, 0, 64, 0
1, 245760, Note_on_c, 0, 56, 0
1, 245760, Note_on_c, 0, 59, 0
1, 245760, Note_on_c, 0, 64, 51
1, 245920, Note_on_c, 0, 64, 0
1, 245920, Note_on_c, 0, 68, 55
1, 246080, Tempo, 483832
1, 246080, Note_on_c, 0, 68, 0
1, 246080, Note_on_c, 0, 71, 59
1, 246240, Tempo, 459277
1, 246240, Note_on_c, 0, 71, 0
1, 246240, Note_on_c, 0, 52, 0
1, 246240, Note_on_c, 0, 47, 0
1, 246240, Note_on_c, 0, 40, 0
1, 246240, Note_on_c, 0, 70, 69
1, 246240, Note_on_c, 0, 67, 55
1, 246240, Note_on_c, 0, 64, 55
1, 246240, Note_on_c, 0, 61, 55
1, 246240, Note_on_c, 0, 40, 46
1, 246256, Control_c, 0, 64, 0
1, 246360, Control_c, 0, 64, 127
1, 247200, Tempo, 483871
1, 247200, Note_on_c, 0, 61, 0
1, 247200, Note_on_c, 0, 64, 0
1, 247200, Note_on_c, 0, 70, 0
1, 247200, Note_on_c, 0, 67, 0
1, 247200, Note_on_c, 0, 71, 57
1, 247200, Note_on_c, 0, 68, 45
1, 247200, Note_on_c, 0, 64, 45
1, 247200, Note_on_c, 0, 59, 45
1, 247217, Control_c, 0, 64, 0
1, 247292, Control_c, 0, 64, 127
1, 247440, Note_on_c, 0, 59, 0
1, 247440, Note_on_c, 0, 68, 0
1, 247440, Note_on_c, 0, 64, 0
1, 247440, Note_on_c, 0, 71, 0
1, 247440, Note_on_c, 0, 66, 44
1, 247450, Control_c, 0, 64, 0
1, 247511, Control_c, 0, 64, 127
1, 247560, Note_on_c, 0, 66, 0
1, 247560, Note_on_c, 0, 68, 44
1, 247660, Tempo, 441176
1, 247680, Note_on_c, 0, 68, 0
1, 247680, Note_on_c, 0, 40, 0
1, 247680, Note_on_c, 0, 60, 39
1, 247680, Note_on_c, 0, 69, 49
1, 247680, Note_on_c, 0, 63, 44
1, 247680, Note_on_c, 0, 40, 33
1, 247680, Note_on_c, 0, 45, 37
1, 247683, Control_c, 0, 64, 0
1, 247700, Tempo, 441176
1, 247760, Tempo, 442804
1, 247820, Tempo, 444444
1, 247880, Tempo, 446097
1, 247920, Control_c, 0, 64, 127
1, 247940, Tempo, 447761
1, 248000, Tempo, 449438
1, 248060, Tempo, 451128
1, 248120, Tempo, 452830
1, 248160, Tempo, 454545
1, 248220, Tempo, 456274
1, 248280, Tempo, 458015
1, 248340, Tempo, 459770
1, 248400, Tempo, 461538
1, 248400, Note_on_c, 0, 45, 0
1, 248400, Note_on_c, 0, 60, 0
1, 248400, Note_on_c, 0, 69, 0
1, 248400, Note_on_c, 0, 59, 42
1, 248400, Note_on_c, 0, 68, 47
1, 248400, Note_on_c, 0, 47, 35
1, 248410, Control_c, 0, 64, 0
1, 248460, Tempo, 463320
1, 248520, Tempo, 465116
1, 248580, Tempo, 466926
1, 248620, Tempo, 468750
1, 248640, Note_on_c, 0, 47, 0
1, 248640, Note_on_c, 0, 59, 0
1, 248640, Note_on_c, 0, 68, 0
1, 248640, Note_on_c, 0, 57, 39
1, 248640, Note_on_c, 0, 66, 44
1, 248640, Note_on_c, 0, 48, 33
1, 248680, Tempo, 470588
1, 248740, Tempo, 472441
1, 248767, Control_c, 0, 64, 127
1, 248800, Tempo, 474308
1, 248860, Tempo, 476190
1, 248920, Tempo, 478088
1, 248980, Tempo, 480000
1, 249040, Tempo, 481928
1, 249080, Tempo, 483871
1, 249100, Tempo, 466926
1, 249120, Tempo, 458821
1, 249120, Note_on_c, 0, 48, 0
1, 249120, Note_on_c, 0, 57, 0
1, 249120, Note_on_c, 0, 40, 0
1, 249120, Note_on_c, 0, 63, 0
1, 249120, Note_on_c, 0, 66, 0
1, 249120, Note_on_c, 0, 56, 32
1, 249120, Note_on_c, 0, 64, 41
1, 249120, Note_on_c, 0, 47, 27
1, 249120, Note_on_c, 0, 40, 24
1, 249135, Control_c, 0, 64, 0
1, 249339, Control_c, 0, 64, 127
1, 250080, Tempo, 397193
1, 250080, Note_on_c, 0, 64, 0
1, 250080, Note_on_c, 0, 56, 0
1, 250080, Note_on_c, 0, 64, 51
1, 250240, Note_on_c, 0, 64, 0
1, 250240, Note_on_c, 0, 68, 55
1, 250400, Tempo, 483832
1, 250400, Note_on_c, 0, 68, 0
1, 250400, Note_on_c, 0, 71, 59
1, 250560, Tempo, 462820
1, 250560, Note_on_c, 0, 71, 0
1, 250560, Note_on_c, 0, 47, 0
1, 250560, Note_on_c, 0, 40, 0
1, 250560, Note_on_c, 0, 70, 69
1, 250560, Note_on_c, 0, 67, 62
1, 250560, Note_on_c, 0, 64, 55
1, 250560, Note_on_c, 0, 61, 55
1, 250560, Note_on_c, 0, 40, 46
1, 250567, Control_c, 0, 64, 0
1, 250708, Control_c, 0, 64, 127
1, 251520, Tempo, 500000
1, 251520, Note_on_c, 0, 61, 0
1, 251520, Note_on_c, 0, 64, 0
1, 251520, Note_on_c, 0, 70, 0
1, 251520, Note_on_c, 0, 67, 0
1, 251520, Note_on_c, 0, 71, 51
1, 251520, Note_on_c, 0, 68, 45
1, 251520, Note_on_c, 0, 64, 40
1, 251520, Note_on_c, 0, 59, 40
1, 251540, Control_c, 0, 64, 0
1, 251605, Control_c, 0, 64, 127
1, 251760, Note_on_c, 0, 59, 0
1, 251760, Note_on_c, 0, 68, 0
1, 251760, Note_on_c, 0, 64, 0
1, 251760, Note_on_c, 0, 71, 0
1, 251760, Note_on_c, 0, 66, 43
1, 251770, Control_c, 0, 64, 0
1, 251866, Control_c, 0, 64, 127
1, 251880, Note_on_c, 0, 66, 0
1, 251880, Note_on_c, 0, 68, 43
1, 252000, Tempo, 461538
1, 252000, Note_on_c, 0, 68, 0
1, 252000, Note_on_c, 0, 40, 0
1, 252000, Note_on_c, 0, 60, 41
1, 252000, Note_on_c, 0, 69, 46
1, 252000, Note_on_c, 0, 63, 36
1, 252000, Note_on_c, 0, 40, 27
1, 252000, Note_on_c, 0, 45, 35
1, 252014, Control_c, 0, 64, 0
1, 252040, Tempo, 463320
1, 252080, Tempo, 465116
1, 252120, Tempo, 466926
1, 252160, Tempo, 468750
1, 252184, Control_c, 0, 64, 127
1, 252200, Tempo, 470588
1, 252240, Tempo, 472441
1, 252280, Tempo, 474308
1, 252320, Tempo, 476190
1, 252360, Tempo, 478088
1, 252400, Tempo, 480000
1, 252440, Tempo, 481928
1, 252480, Tempo, 483871
1, 252520, Tempo, 485830
1, 252560, Tempo, 487805
1, 252600, Tempo, 489796
1, 252640, Tempo, 491803
1, 252680, Tempo, 493827
1, 252720, Tempo, 495868
1, 252720, Note_on_c, 0, 45, 0
1, 252720, Note_on_c, 0, 60, 0
1, 252720, Note_on_c, 0, 69, 0
1, 252720, Note_on_c, 0, 59, 36
1, 252720, Note_on_c, 0, 68, 41
1, 252720, Note_on_c, 0, 47, 32
1, 252728, Control_c, 0, 64, 0
1, 252760, Tempo, 497925
1, 252800, Tempo, 500000
1, 252840, Tempo, 502092
1, 252880, Tempo, 504202
1, 252920, Tempo, 506329
1, 252960, Tempo, 508475
1, 252960, Note_on_c, 0, 47, 0
1, 252960, Note_on_c, 0, 59, 0
1, 252960, Note_on_c, 0, 68, 0
1, 252960, Note_on_c, 0, 57, 33
1, 252960, Note_on_c, 0, 66, 37
1, 252960, Note_on_c, 0, 48, 29
1, 253000, Tempo, 510638
1, 253040, Tempo, 512821
1, 253080, Tempo, 515021
1, 253120, Tempo, 517241
1, 253144, Control_c, 0, 64, 127
1, 253160, Tempo, 519481
1, 253200, Tempo, 521739
1, 253240, Tempo, 524017
1, 253280, Tempo, 526316
1, 253320, Tempo, 528634
1, 253360, Tempo, 530973
1, 253400, Tempo, 533333
1, 253420, Tempo, 479501
1, 253440, Tempo, 461538
1, 253440, Note_on_c, 0, 48, 0
1, 253440, Note_on_c, 0, 57, 0
1, 253440, Note_on_c, 0, 40, 0
1, 253440, Note_on_c, 0, 63, 0
1, 253440, Note_on_c, 0, 66, 0
1, 253440, Note_on_c, 0, 56, 31
1, 253440, Note_on_c, 0, 64, 35
1, 253440, Note_on_c, 0, 47, 23
1, 253440, Note_on_c, 0, 40, 20
1, 253456, Control_c, 0, 64, 0
1, 253894, Control_c, 0, 64, 127
1, 254400, Tempo, 487805
1, 254400, Note_on_c, 0, 64, 0
1, 254400, Note_on_c, 0, 56, 0
1, 254400, Note_on_c, 0, 68, 43
1, 254880, Key_signature, -4, "major"
1, 254880, Tempo, 468750
1, 254880, Note_on_c, 0, 68, 0
1, 254880, Note_on_c, 0, 47, 0
1, 254880, Note_on_c, 0, 40, 0
1, 254880, Note_on_c, 0, 64, 39
1, 254880, Note_on_c, 0, 68, 49
1, 254880, Note_on_c, 0, 52, 28
1, 254880, Note_on_c, 0, 59, 32
1, 254888, Control_c, 0, 64, 0
1, 255200, Control_c, 0, 64, 127
1, 255840, Tempo, 514403
1, 255840, Note_on_c, 0, 59, 0
1, 255840, Note_on_c, 0, 64, 0
1, 255840, Note_on_c, 0, 68, 0
1, 255840, Note_on_c, 0, 52, 0
1, 255840, Note_on_c, 0, 64, 35
1, 255840, Note_on_c, 0, 68, 44
1, 255840, Note_on_c, 0, 52, 23
1, 255840, Note_on_c, 0, 59, 26
1, 256320, Tempo, 463320
1, 256320, Note_on_c, 0, 59, 0
1, 256320, Note_on_c, 0, 64, 0
1, 256320, Note_on_c, 0, 68, 0
1, 256320, Note_on_c, 0, 52, 0
1, 256320, Note_on_c, 0, 64, 45
1, 256320, Note_on_c, 0, 68, 50
1, 256320, Note_on_c, 0, 52, 28
1, 256320, Note_on_c, 0, 59, 32
1, 256327, Control_c, 0, 64, 0
1, 256480, Tempo, 465116
1, 256532, Control_c, 0, 64, 127
1, 256640, Tempo, 466926
1, 256780, Tempo, 468750
1, 256940, Tempo, 470588
1, 257040, Note_on_c, 0, 64, 0
1, 257040, Note_on_c, 0, 63, 40
1, 257100, Tempo, 472441
1, 257240, Tempo, 474308
1, 257280, Tempo, 581734
1, 257280, Note_on_c, 0, 63, 0
1, 257280, Note_on_c, 0, 59, 0
1, 257280, Note_on_c, 0, 52, 0
1, 257280, Note_on_c, 0, 68, 0
1, 257280, Note_on_c, 0, 62, 33
1, 257280, Note_on_c, 0, 68, 42
1, 257280, Note_on_c, 0, 52, 25
1, 257280, Note_on_c, 0, 56, 25
1, 257292, Control_c, 0, 64, 0
1, 257492, Control_c, 0, 64, 127
1, 257760, Tempo, 461538
1, 257760, Note_on_c, 0, 56, 0
1, 257760, Note_on_c, 0, 62, 0
1, 257760, Note_on_c, 0, 68, 0
1, 257760, Note_on_c, 0, 52, 0
1, 257760, Note_on_c, 0, 63, 35
1, 257760, Note_on_c, 0, 68, 44
1, 257760, Note_on_c, 0, 51, 28
1, 257760, Note_on_c, 0, 58, 32
1, 257776, Control_c, 0, 64, 0
1, 258267, Control_c, 0, 64, 127
1, 259200, Note_on_c, 0, 68, 0
1, 259200, Note_on_c, 0, 67, 39
1, 259213, Control_c, 0, 64, 0
1, 259920, Tempo, 415225
1, 259920, Note_on_c, 0, 67, 0
1, 259920, Note_on_c, 0, 68, 39
1, 260160, Note_on_c, 0, 68, 0
1, 260160, Note_on_c, 0, 63, 0
1, 260160, Note_on_c, 0, 51, 0
1, 260160, Note_on_c, 0, 58, 0
1, 260160, Note_on_c, 0, 70, 42
1, 260400, Note_on_c, 0, 70, 0
1, 260400, Note_on_c, 0, 72, 45
1, 260640, Tempo, 430108
1, 260640, Note_on_c, 0, 72, 0
1, 260640, Note_on_c, 0, 65, 38
1, 260640, Note_on_c, 0, 68, 38
1, 260640, Note_on_c, 0, 73, 48
1, 260640, Note_on_c, 0, 51, 28
1, 260640, Note_on_c, 0, 53, 28
1, 260640, Note_on_c, 0, 56, 28
1, 260640, Note_on_c, 0, 61, 32
1, 260867, Control_c, 0, 64, 127
1, 261600, Note_on_c, 0, 61, 0
1, 261600, Note_on_c, 0, 53, 0
1, 261600, Note_on_c, 0, 68, 0
1, 261600, Note_on_c, 0, 73, 0
1, 261600, Note_on_c, 0, 65, 0
1, 261600, Note_on_c, 0, 56, 0
1, 261600, Note_on_c, 0, 51, 0
1, 261600, Note_on_c, 0, 65, 39
1, 261600, Note_on_c, 0, 68, 39
1, 261600, Note_on_c, 0, 73, 49
1, 261600, Note_on_c, 0, 51, 28
1, 261600, Note_on_c, 0, 53, 28
1, 261600, Note_on_c, 0, 56, 28
1, 261600, Note_on_c, 0, 61, 32
1, 262080, Tempo, 463320
1, 262080, Note_on_c, 0, 61, 0
1, 262080, Note_on_c, 0, 53, 0
1, 262080, Note_on_c, 0, 68, 0
1, 262080, Note_on_c, 0, 73, 0
1, 262080, Note_on_c, 0, 65, 0
1, 262080, Note_on_c, 0, 56, 0
1, 262080, Note_on_c, 0, 51, 0
1, 262080, Note_on_c, 0, 75, 55
1, 262080, Note_on_c, 0, 67, 40
1, 262080, Note_on_c, 0, 70, 45
1, 262080, Control_c, 0, 64, 0
1, 262080, Note_on_c, 0, 61, 36
1, 262080, Note_on_c, 0, 58, 32
1, 262080, Note_on_c, 0, 55, 32
1, 262080, Note_on_c, 0, 51, 32
1, 262200, Note_on_c, 0, 75, 0
1, 262200, Note_on_c, 0, 73, 50
1, 262320, Note_on_c, 0, 73, 0
1, 262320, Note_on_c, 0, 72, 50
1, 262440, Note_on_c, 0, 72, 0
1, 262440, Note_on_c, 0, 73, 50
1, 262560, Tempo, 430108
1, 262560, Note_on_c, 0, 73, 0
1, 262560, Note_on_c, 0, 75, 51
1, 263040, Tempo, 518852
1, 263040, Note_on_c, 0, 75, 0
1, 263040, Note_on_c, 0, 55, 0
1, 263040, Note_on_c, 0, 70, 0
1, 263040, Note_on_c, 0, 61, 0
1, 263040, Note_on_c, 0, 67, 0
1, 263040, Note_on_c, 0, 51, 0
1, 263040, Note_on_c, 0, 58, 0
1, 263040, Note_on_c, 0, 67, 39
1, 263040, Note_on_c, 0, 70, 49
1, 263040, Note_on_c, 0, 63, 31
1, 263040, Note_on_c, 0, 51, 27
1, 263118, Control_c, 0, 64, 127
1, 263520, Tempo, 463320
1, 263520, Note_on_c, 0, 51, 0
1, 263520, Note_on_c, 0, 67, 0
1, 263520, Note_on_c, 0, 70, 0
1, 263520, Note_on_c, 0, 63, 0
1, 263520, Note_on_c, 0, 67, 40
1, 263520, Note_on_c, 0, 70, 40
1, 263520, Note_on_c, 0, 73, 50
1, 263520, Note_on_c, 0, 63, 33
1, 263520, Note_on_c, 0, 56, 29
1, 263530, Control_c, 0, 64, 0
1, 264000, Control_c, 0, 64, 127
1, 264960, Note_on_c, 0, 73, 0
1, 264960, Note_on_c, 0, 67, 0
1, 264960, Note_on_c, 0, 70, 0
1, 264960, Note_on_c, 0, 68, 36
1, 264960, Note_on_c, 0, 72, 45
1, 264963, Control_c, 0, 64, 0
1, 265440, Note_on_c, 0, 72, 0
1, 265440, Note_on_c, 0, 56, 0
1, 265440, Note_on_c, 0, 63, 0
1, 265440, Note_on_c, 0, 68, 0
1, 265920, Tempo, 518852
1, 265920, Note_on_c, 0, 68, 64
1, 265920, Note_on_c, 0, 72, 64
1, 265920, Note_on_c, 0, 77, 80
1, 265920, Control_c, 0, 64, 127
1, 265920, Note_on_c, 0, 56, 51
1, 265920, Note_on_c, 0, 60, 51
1, 265920, Note_on_c, 0, 65, 57
1, 266376, Note_on_c, 0, 65, 0
1, 266376, Note_on_c, 0, 72, 0
1, 266376, Note_on_c, 0, 77, 0
1, 266376, Note_on_c, 0, 68, 0
1, 266376, Note_on_c, 0, 60, 0
1, 266376, Note_on_c, 0, 56, 0
1, 266400, Tempo, 454545
1, 266400, Note_on_c, 0, 68, 64
1, 266400, Note_on_c, 0, 72, 64
1, 266400, Note_on_c, 0, 77, 80
1, 266400, Note_on_c, 0, 56, 51
1, 266400, Note_on_c, 0, 60, 51
1, 266400, Note_on_c, 0, 65, 57
1, 267360, Tempo, 542299
1, 267360, Note_on_c, 0, 65, 0
1, 267360, Note_on_c, 0, 72, 0
1, 267360, Note_on_c, 0, 77, 0
1, 267360, Note_on_c, 0, 68, 0
1, 267360, Note_on_c, 0, 60, 0
1, 267360, Note_on_c, 0, 56, 0
1, 267360, Note_on_c, 0, 68, 64
1, 267360, Note_on_c, 0, 72, 64
1, 267360, Note_on_c, 0, 77, 80
1, 267360, Note_on_c, 0, 56, 51
1, 267360, Note_on_c, 0, 60, 51
1, 267360, Note_on_c, 0, 65, 57
1, 267840, Tempo, 454545
1, 267840, Note_on_c, 0, 65, 0
1, 267840, Note_on_c, 0, 72, 0
1, 267840, Note_on_c, 0, 77, 0
1, 267840, Note_on_c, 0, 68, 0
1, 267840, Note_on_c, 0, 60, 0
1, 267840, Note_on_c, 0, 56, 0
1, 267840, Note_on_c, 0, 80, 86
1, 267840, Note_on_c, 0, 68, 69
1, 267840, Note_on_c, 0, 72, 69
1, 267840, Control_c, 0, 64, 0
1, 267840, Note_on_c, 0, 56, 54
1, 267840, Note_on_c, 0, 60, 61
1, 268024, Control_c, 0, 64, 127
1, 268560, Note_on_c, 0, 80, 0
1, 268560, Note_on_c, 0, 67, 64
1, 268560, Note_on_c, 0, 79, 80
1, 268800, Tempo, 510031
1, 268800, Note_on_c, 0, 79, 0
1, 268800, Note_on_c, 0, 72, 0
1, 268800, Note_on_c, 0, 60, 0
1, 268800, Note_on_c, 0, 68, 0
1, 268800, Note_on_c, 0, 67, 0
1, 268800, Note_on_c, 0, 56, 0
1, 268800, Note_on_c, 0, 77, 75
1, 268800, Note_on_c, 0, 72, 60
1, 268800, Note_on_c, 0, 68, 60
1, 268800, Note_on_c, 0, 65, 60
1, 268800, Note_on_c, 0, 56, 48
1, 268800, Note_on_c, 0, 60, 54
1, 268812, Control_c, 0, 64, 0
1, 269068, Control_c, 0, 64, 127
1, 269280, Tempo, 454545
1, 269280, Note_on_c, 0, 60, 0
1, 269280, Note_on_c, 0, 72, 0
1, 269280, Note_on_c, 0, 68, 0
1, 269280, Note_on_c, 0, 77, 0
1, 269280, Note_on_c, 0, 56, 0
1, 269280, Note_on_c, 0, 65, 0
1, 269280, Note_on_c, 0, 77, 80
1, 269280, Note_on_c, 0, 73, 67
1, 269280, Note_on_c, 0, 70, 64
1, 269280, Note_on_c, 0, 67, 64
1, 269280, Note_on_c, 0, 65, 57
1, 269280, Note_on_c, 0, 61, 51
1, 269280, Note_on_c, 0, 58, 51
1, 269280, Note_on_c, 0, 55, 51
1, 269292, Control_c, 0, 64, 0
1, 269840, Control_c, 0, 64, 127
1, 271680, Tempo, 542299
1, 271680, Note_on_c, 0, 65, 0
1, 271680, Note_on_c, 0, 77, 0
1, 271680, Note_on_c, 0, 76, 54
1, 271680, Note_on_c, 0, 64, 44
1, 271688, Control_c, 0, 64, 0
1, 272160, Tempo, 508475
1, 272160, Note_on_c, 0, 64, 0
1, 272160, Note_on_c, 0, 55, 0
1, 272160, Note_on_c, 0, 58, 0
1, 272160, Note_on_c, 0, 70, 0
1, 272160, Note_on_c, 0, 67, 0
1, 272160, Note_on_c, 0, 73, 0
1, 272160, Note_on_c, 0, 61, 0
1, 272160, Note_on_c, 0, 76, 0
1, 272160, Note_on_c, 0, 70, 37
1, 272160, Note_on_c, 0, 75, 47
1, 272160, Note_on_c, 0, 63, 32
1, 272160, Note_on_c, 0, 55, 28
1, 272435, Control_c, 0, 64, 127
1, 273120, Tempo, 605205
1, 273120, Note_on_c, 0, 75, 0
1, 273120, Note_on_c, 0, 74, 43
1, 273600, Tempo, 500000
1, 273600, Note_on_c, 0, 74, 0
1, 273600, Note_on_c, 0, 73, 37
1, 273614, Control_c, 0, 64, 0
1, 274560, Tempo, 617665
1, 274560, Note_on_c, 0, 73, 0
1, 274560, Note_on_c, 0, 70, 0
1, 274560, Note_on_c, 0, 63, 0
1, 274560, Note_on_c, 0, 55, 0
1, 274560, Note_on_c, 0, 63, 36
1, 274560, Note_on_c, 0, 68, 36
1, 274560, Note_on_c, 0, 72, 45
1, 274560, Note_on_c, 0, 56, 32
1, 274800, Control_c, 0, 64, 127
1, 275040, Tempo, 465188
1, 275040, Note_on_c, 0, 56, 0
1, 275040, Note_on_c, 0, 63, 0
1, 275040, Note_on_c, 0, 68, 0
1, 275040, Note_on_c, 0, 72, 0
1, 275040, Note_on_c, 0, 65, 37
1, 275040, Note_on_c, 0, 68, 37
1, 275040, Note_on_c, 0, 72, 47
1, 275040, Note_on_c, 0, 61, 33
1, 275052, Control_c, 0, 64, 0
1, 275307, Control_c, 0, 64, 127
1, 276480, Note_on_c, 0, 72, 0
1, 276480, Note_on_c, 0, 70, 44
1, 276487, Control_c, 0, 64, 0
1, 276960, Note_on_c, 0, 70, 0
1, 276960, Note_on_c, 0, 61, 0
1, 276960, Note_on_c, 0, 68, 0
1, 276960, Note_on_c, 0, 65, 0
1, 277440, Tempo, 599161
1, 277440, Note_on_c, 0, 77, 50
1, 277440, Note_on_c, 0, 70, 40
1, 277440, Note_on_c, 0, 67, 40
1, 277440, Note_on_c, 0, 65, 36
1, 277440, Note_on_c, 0, 61, 32
1, 277668, Control_c, 0, 64, 127
1, 277920, Tempo, 465188
1, 277920, Note_on_c, 0, 61, 0
1, 277920, Note_on_c, 0, 67, 0
1, 277920, Note_on_c, 0, 77, 0
1, 277920, Note_on_c, 0, 70, 0
1, 277920, Note_on_c, 0, 65, 0
1, 277920, Note_on_c, 0, 68, 41
1, 277920, Note_on_c, 0, 72, 41
1, 277920, Note_on_c, 0, 77, 52
1, 277920, Note_on_c, 0, 65, 36
1, 277920, Note_on_c, 0, 60, 32
1, 277938, Control_c, 0, 64, 0
1, 278320, Control_c, 0, 64, 127
1, 279360, Note_on_c, 0, 65, 0
1, 279360, Note_on_c, 0, 77, 0
1, 279360, Note_on_c, 0, 75, 48
1, 279360, Note_on_c, 0, 63, 34
1, 279374, Control_c, 0, 64, 0
1, 279840, Note_on_c, 0, 63, 0
1, 279840, Note_on_c, 0, 68, 0
1, 279840, Note_on_c, 0, 60, 0
1, 279840, Note_on_c, 0, 72, 0
1, 279840, Note_on_c, 0, 75, 0
1, 280080, Tempo, 401687
1, 280080, Note_on_c, 0, 60, 38
1, 280080, Note_on_c, 0, 63, 43
1, 280080, Note_on_c, 0, 56, 37
1, 280080, Control_c, 0, 64, 127
1, 280320, Note_on_c, 0, 63, 0
1, 280320, Note_on_c, 0, 68, 50
1, 280320, Note_on_c, 0, 51, 39
1, 280560, Note_on_c, 0, 51, 0
1, 280560, Note_on_c, 0, 68, 0
1, 280560, Note_on_c, 0, 72, 52
1, 280560, Note_on_c, 0, 48, 40
1, 280800, Tempo, 446097
1, 280800, Note_on_c, 0, 48, 0
1, 280800, Note_on_c, 0, 60, 0
1, 280800, Note_on_c, 0, 56, 0
1, 280800, Note_on_c, 0, 72, 0
1, 280800, Note_on_c, 0, 61, 43
1, 280800, Note_on_c, 0, 63, 43
1, 280800, Note_on_c, 0, 67, 43
1, 280800, Note_on_c, 0, 73, 54
1, 280800, Note_on_c, 0, 46, 33
1, 280800, Note_on_c, 0, 51, 33
1, 280800, Note_on_c, 0, 55, 37
1, 280820, Control_c, 0, 64, 0
1, 281307, Control_c, 0, 64, 127
1, 281760, Tempo, 565291
1, 281760, Note_on_c, 0, 55, 0
1, 281760, Note_on_c, 0, 46, 0
1, 281760, Note_on_c, 0, 63, 0
1, 281760, Note_on_c, 0, 67, 0
1, 281760, Note_on_c, 0, 61, 0
1, 281760, Note_on_c, 0, 51, 0
1, 281760, Note_on_c, 0, 73, 0
1, 281760, Note_on_c, 0, 60, 45
1, 281760, Note_on_c, 0, 63, 45
1, 281760, Note_on_c, 0, 68, 45
1, 281760, Note_on_c, 0, 72, 56
1, 281760, Note_on_c, 0, 44, 36
1, 281760, Note_on_c, 0, 51, 36
1, 281760, Note_on_c, 0, 56, 40
1, 281770, Control_c, 0, 64, 0
1, 282000, Control_c, 0, 64, 127
1, 282240, Tempo, 434468
1, 282240, Note_on_c, 0, 56, 0
1, 282240, Note_on_c, 0, 44, 0
1, 282240, Note_on_c, 0, 63, 0
1, 282240, Note_on_c, 0, 68, 0
1, 282240, Note_on_c, 0, 60, 0
1, 282240, Note_on_c, 0, 51, 0
1, 282240, Note_on_c, 0, 72, 0
1, 282240, Note_on_c, 0, 58, 45
1, 282240, Note_on_c, 0, 63, 45
1, 282240, Note_on_c, 0, 70, 57
1, 282240, Note_on_c, 0, 43, 36
1, 282240, Note_on_c, 0, 51, 36
1, 282240, Note_on_c, 0, 55, 41
1, 282244, Control_c, 0, 64, 0
1, 282538, Control_c, 0, 64, 127
1, 283200, Tempo, 651183
1, 283200, Note_on_c, 0, 55, 0
1, 283200, Note_on_c, 0, 63, 0
1, 283200, Note_on_c, 0, 70, 0
1, 283200, Note_on_c, 0, 58, 0
1, 283200, Note_on_c, 0, 51, 0
1, 283200, Note_on_c, 0, 43, 0
1, 283200, Note_on_c, 0, 62, 49
1, 283200, Note_on_c, 0, 70, 49
1, 283200, Note_on_c, 0, 68, 49
1, 283200, Note_on_c, 0, 74, 62
1, 283200, Note_on_c, 0, 41, 40
1, 283200, Note_on_c, 0, 46, 40
1, 283200, Note_on_c, 0, 53, 45
1, 283214, Control_c, 0, 64, 0
1, 283349, Control_c, 0, 64, 127
1, 283680, Tempo, 506885
1, 283680, Note_on_c, 0, 53, 0
1, 283680, Note_on_c, 0, 41, 0
1, 283680, Note_on_c, 0, 70, 0
1, 283680, Note_on_c, 0, 68, 0
1, 283680, Note_on_c, 0, 62, 0
1, 283680, Note_on_c, 0, 46, 0
1, 283680, Note_on_c, 0, 74, 0
1, 283680, Note_on_c, 0, 62, 55
1, 283680, Note_on_c, 0, 70, 55
1, 283680, Note_on_c, 0, 68, 55
1, 283680, Note_on_c, 0, 74, 69
1, 283680, Note_on_c, 0, 39, 43
1, 283680, Note_on_c, 0, 46, 43
1, 283680, Note_on_c, 0, 51, 48
1, 283693, Control_c, 0, 64, 0
1, 284107, Control_c, 0, 64, 127
1, 285120, Tempo, 465188
1, 285120, Note_on_c, 0, 74, 0
1, 285120, Note_on_c, 0, 68, 0
1, 285120, Note_on_c, 0, 62, 0
1, 285120, Note_on_c, 0, 67, 36
1, 285120, Note_on_c, 0, 63, 36
1, 285120, Note_on_c, 0, 75, 45
1, 285122, Control_c, 0, 64, 0
1, 285600, Note_on_c, 0, 75, 0
1, 285600, Note_on_c, 0, 67, 0
1, 285600, Note_on_c, 0, 46, 0
1, 285600, Note_on_c, 0, 51, 0
1, 285600, Note_on_c, 0, 70, 0
1, 285600, Note_on_c, 0, 63, 0
1, 285600, Note_on_c, 0, 39, 0
1, 286080, Tempo, 608273
1, 286080, Note_on_c, 0, 63, 58
1, 286080, Note_on_c, 0, 68, 58
1, 286080, Note_on_c, 0, 72, 73
1, 286080, Note_on_c, 0, 32, 45
1, 286080, Note_on_c, 0, 44, 50
1, 286294, Control_c, 0, 64, 127
1, 286560, Tempo, 451128
1, 286560, Note_on_c, 0, 44, 0
1, 286560, Note_on_c, 0, 72, 0
1, 286560, Note_on_c, 0, 63, 0
1, 286560, Note_on_c, 0, 68, 0
1, 286560, Note_on_c, 0, 32, 0
1, 286560, Note_on_c, 0, 64, 64
1, 286560, Note_on_c, 0, 68, 64
1, 286560, Note_on_c, 0, 72, 81
1, 286560, Note_on_c, 0, 37, 51
1, 286560, Note_on_c, 0, 49, 57
1, 286575, Control_c, 0, 64, 0
1, 286755, Control_c, 0, 64, 127
1, 287520, Tempo, 461538
1, 287760, Note_on_c, 0, 72, 0
1, 287760, Note_on_c, 0, 71, 53
1, 288000, Tempo, 461538
1, 288000, Note_on_c, 0, 71, 0
1, 288000, Note_on_c, 0, 70, 50
1, 288004, Control_c, 0, 64, 0
1, 288480, Note_on_c, 0, 70, 0
1, 288480, Note_on_c, 0, 37, 0
1, 288480, Note_on_c, 0, 64, 0
1, 288480, Note_on_c, 0, 68, 0
1, 288480, Note_on_c, 0, 49, 0
1, 288960, Tempo, 549753
1, 288960, Note_on_c, 0, 63, 58
1, 288960, Note_on_c, 0, 68, 58
1, 288960, Note_on_c, 0, 72, 73
1, 288960, Note_on_c, 0, 32, 45
1, 288960, Note_on_c, 0, 44, 50
1, 289093, Control_c, 0, 64, 127
1, 289440, Tempo, 451128
1, 289440, Note_on_c, 0, 44, 0
1, 289440, Note_on_c, 0, 72, 0
1, 289440, Note_on_c, 0, 63, 0
1, 289440, Note_on_c, 0, 68, 0
1, 289440, Note_on_c, 0, 32, 0
1, 289440, Note_on_c, 0, 64, 64
1, 289440, Note_on_c, 0, 68, 64
1, 289440, Note_on_c, 0, 72, 81
1, 289440, Note_on_c, 0, 37, 51
1, 289440, Note_on_c, 0, 49, 57
1, 289453, Control_c, 0, 64, 0
1, 289657, Control_c, 0, 64, 127
1, 290400, Tempo, 465116
1, 290640, Note_on_c, 0, 72, 0
1, 290640, Note_on_c, 0, 71, 54
1, 290880, Tempo, 442804
1, 290880, Note_on_c, 0, 71, 0
1, 290880, Note_on_c, 0, 70, 51
1, 290884, Control_c, 0, 64, 0
1, 291360, Tempo, 439560
1, 291360, Note_on_c, 0, 70, 0
1, 291360, Note_on_c, 0, 37, 0
1, 291360, Note_on_c, 0, 64, 0
1, 291360, Note_on_c, 0, 68, 0
1, 291360, Note_on_c, 0, 49, 0
1, 291840, Tempo, 461538
1, 291840, Note_on_c, 0, 64, 72
1, 291840, Note_on_c, 0, 68, 72
1, 291840, Note_on_c, 0, 71, 89
1, 291840, Control_c, 0, 64, 127
1, 291840, Note_on_c, 0, 38, 55
1, 291840, Note_on_c, 0, 50, 62
1, 292320, Key_signature, 4, "major"
1, 292791, Note_on_c, 0, 50, 0
1, 292791, Note_on_c, 0, 71, 0
1, 292791, Note_on_c, 0, 64, 0
1, 292791, Note_on_c, 0, 68, 0
1, 292791, Note_on_c, 0, 38, 0
1, 292800, Tempo, 449438
1, 292800, Note_on_c, 0, 64, 72
1, 292800, Note_on_c, 0, 68, 72
1, 292800, Note_on_c, 0, 71, 90
1, 292800, Note_on_c, 0, 38, 56
1, 292800, Note_on_c, 0, 50, 63
1, 293256, Note_on_c, 0, 50, 0
1, 293256, Note_on_c, 0, 71, 0
1, 293256, Note_on_c, 0, 64, 0
1, 293256, Note_on_c, 0, 68, 0
1, 293256, Note_on_c, 0, 38, 0
1, 293280, Note_on_c, 0, 64, 71
1, 293280, Note_on_c, 0, 68, 71
1, 293280, Note_on_c, 0, 71, 88
1, 293280, Note_on_c, 0, 38, 56
1, 293280, Note_on_c, 0, 50, 63
1, 293736, Note_on_c, 0, 50, 0
1, 293736, Note_on_c, 0, 71, 0
1, 293736, Note_on_c, 0, 64, 0
1, 293736, Note_on_c, 0, 68, 0
1, 293736, Note_on_c, 0, 38, 0
1, 293760, Tempo, 439560
1, 293760, Note_on_c, 0, 64, 68
1, 293760, Note_on_c, 0, 68, 68
1, 293760, Note_on_c, 0, 71, 85
1, 293760, Control_c, 0, 64, 0
1, 293760, Note_on_c, 0, 38, 54
1, 293760, Note_on_c, 0, 50, 61
1, 294035, Control_c, 0, 64, 127
1, 294216, Note_on_c, 0, 50, 0
1, 294216, Note_on_c, 0, 71, 0
1, 294216, Note_on_c, 0, 64, 0
1, 294216, Note_on_c, 0, 68, 0
1, 294216, Note_on_c, 0, 38, 0
1, 294240, Tempo, 451128
1, 294240, Note_on_c, 0, 64, 72
1, 294240, Note_on_c, 0, 69, 74
1, 294240, Note_on_c, 0, 73, 93
1, 294240, Note_on_c, 0, 37, 60
1, 294240, Note_on_c, 0, 49, 67
1, 294255, Control_c, 0, 64, 0
1, 294469, Control_c, 0, 64, 127
1, 294720, Tempo, 456274
1, 294720, Note_on_c, 0, 49, 0
1, 294720, Note_on_c, 0, 73, 0
1, 294720, Note_on_c, 0, 64, 0
1, 294720, Note_on_c, 0, 69, 0
1, 294720, Note_on_c, 0, 37, 0
1, 294720, Note_on_c, 0, 64, 72
1, 294720, Note_on_c, 0, 71, 79
1, 294720, Note_on_c, 0, 74, 98
1, 294720, Note_on_c, 0, 35, 63
1, 294720, Note_on_c, 0, 47, 70
1, 294731, Control_c, 0, 64, 0
1, 294880, Control_c, 0, 64, 127
1, 295200, Tempo, 451128
1, 295200, Note_on_c, 0, 47, 0
1, 295200, Note_on_c, 0, 74, 0
1, 295200, Note_on_c, 0, 64, 0
1, 295200, Note_on_c, 0, 71, 0
1, 295200, Note_on_c, 0, 35, 0
1, 295200, Note_on_c, 0, 64, 69
1, 295200, Note_on_c, 0, 73, 81
1, 295200, Note_on_c, 0, 76, 102
1, 295200, Note_on_c, 0, 33, 64
1, 295200, Note_on_c, 0, 45, 72
1, 295215, Control_c, 0, 64, 0
1, 295383, Control_c, 0, 64, 127
1, 295680, Note_on_c, 0, 45, 0
1, 295680, Note_on_c, 0, 76, 0
1, 295680, Note_on_c, 0, 64, 0
1, 295680, Note_on_c, 0, 73, 0
1, 295680, Note_on_c, 0, 33, 0
1, 295680, Note_on_c, 0, 64, 63
1, 295680, Note_on_c, 0, 71, 74
1, 295680, Note_on_c, 0, 74, 93
1, 295680, Note_on_c, 0, 47, 66
1, 295680, Note_on_c, 0, 35, 59
1, 295692, Control_c, 0, 64, 0
1, 295909, Control_c, 0, 64, 127
1, 296160, Tempo, 530316
1, 296160, Note_on_c, 0, 35, 0
1, 296160, Note_on_c, 0, 74, 0
1, 296160, Note_on_c, 0, 64, 0
1, 296160, Note_on_c, 0, 71, 0
1, 296160, Note_on_c, 0, 47, 0
1, 296160, Note_on_c, 0, 64, 54
1, 296160, Note_on_c, 0, 69, 64
1, 296160, Note_on_c, 0, 73, 80
1, 296160, Note_on_c, 0, 37, 51
1, 296160, Note_on_c, 0, 49, 57
1, 296172, Control_c, 0, 64, 0
1, 296389, Control_c, 0, 64, 127
1, 296640, Tempo, 444444
1, 296640, Note_on_c, 0, 49, 0
1, 296640, Note_on_c, 0, 73, 0
1, 296640, Note_on_c, 0, 64, 0
1, 296640, Note_on_c, 0, 69, 0
1, 296640, Note_on_c, 0, 37, 0
1, 296640, Note_on_c, 0, 63, 46
1, 296640, Note_on_c, 0, 68, 46
1, 296640, Note_on_c, 0, 71, 58
1, 296640, Control_c, 0, 64, 0
1, 296640, Note_on_c, 0, 39, 35
1, 296640, Note_on_c, 0, 51, 39
1, 296987, Control_c, 0, 64, 127
1, 298080, Note_on_c, 0, 71, 0
1, 298080, Note_on_c, 0, 68, 0
1, 298080, Note_on_c, 0, 67, 37
1, 298080, Note_on_c, 0, 70, 47
1, 298083, Control_c, 0, 64, 0
1, 298560, Tempo, 514403
1, 299040, Tempo, 461538
1, 299040, Note_on_c, 0, 70, 0
1, 299040, Note_on_c, 0, 63, 0
1, 299040, Note_on_c, 0, 51, 0
1, 299040, Note_on_c, 0, 39, 0
1, 299040, Note_on_c, 0, 67, 0
1, 299040, Note_on_c, 0, 52, 48
1, 299040, Note_on_c, 0, 50, 48
1, 299040, Note_on_c, 0, 56, 48
1, 299040, Note_on_c, 0, 59, 60
1, 299131, Control_c, 0, 64, 127
1, 299991, Note_on_c, 0, 59, 0
1, 299991, Note_on_c, 0, 52, 0
1, 299991, Note_on_c, 0, 50, 0
1, 299991, Note_on_c, 0, 56, 0
1, 300000, Tempo, 449438
1, 300000, Note_on_c, 0, 50, 35
1, 300000, Note_on_c, 0, 52, 35
1, 300000, Note_on_c, 0, 56, 35
1, 300000, Note_on_c, 0, 59, 44
1, 300456, Note_on_c, 0, 59, 0
1, 300456, Note_on_c, 0, 50, 0
1, 300456, Note_on_c, 0, 52, 0
1, 300456, Note_on_c, 0, 56, 0
1, 300480, Note_on_c, 0, 50, 35
1, 300480, Note_on_c, 0, 52, 35
1, 300480, Note_on_c, 0, 56, 35
1, 300480, Note_on_c, 0, 59, 44
1, 300936, Note_on_c, 0, 59, 0
1, 300936, Note_on_c, 0, 50, 0
1, 300936, Note_on_c, 0, 52, 0
1, 300936, Note_on_c, 0, 56, 0
1, 300960, Note_on_c, 0, 50, 32
1, 300960, Note_on_c, 0, 52, 32
1, 300960, Note_on_c, 0, 56, 32
1, 300960, Note_on_c, 0, 59, 41
1, 301416, Note_on_c, 0, 59, 0
1, 301416, Note_on_c, 0, 50, 0
1, 301416, Note_on_c, 0, 52, 0
1, 301416, Note_on_c, 0, 56, 0
1, 301440, Tempo, 459770
1, 301440, Note_on_c, 0, 49, 35
1, 301440, Note_on_c, 0, 52, 35
1, 301440, Note_on_c, 0, 57, 35
1, 301440, Note_on_c, 0, 61, 44
1, 301447, Control_c, 0, 64, 0
1, 301581, Control_c, 0, 64, 127
1, 301920, Tempo, 487805
1, 301920, Note_on_c, 0, 61, 0
1, 301920, Note_on_c, 0, 49, 0
1, 301920, Note_on_c, 0, 52, 0
1, 301920, Note_on_c, 0, 57, 0
1, 301920, Note_on_c, 0, 47, 35
1, 301920, Note_on_c, 0, 52, 35
1, 301920, Note_on_c, 0, 62, 44
1, 301920, Note_on_c, 0, 59, 35
1, 301934, Control_c, 0, 64, 0
1, 302160, Tempo, 750000
1, 302280, Tempo, 566038
1, 302280, Note_on_c, 0, 59, 0
1, 302280, Note_on_c, 0, 47, 0
1, 302280, Note_on_c, 0, 52, 0
1, 302280, Note_on_c, 0, 62, 0
1, 302280, Note_on_c, 0, 66, 48
1, 302400, Tempo, 459770
1, 302400, Note_on_c, 0, 66, 0
1, 302400, Note_on_c, 0, 45, 33
1, 302400, Note_on_c, 0, 52, 33
1, 302400, Note_on_c, 0, 61, 33
1, 302400, Note_on_c, 0, 64, 42
1, 302492, Control_c, 0, 64, 127
1, 302880, Tempo, 493259
1, 302880, Note_on_c, 0, 64, 0
1, 302880, Note_on_c, 0, 45, 0
1, 302880, Note_on_c, 0, 52, 0
1, 302880, Note_on_c, 0, 61, 0
1, 302880, Note_on_c, 0, 47, 32
1, 302880, Note_on_c, 0, 52, 32
1, 302880, Note_on_c, 0, 59, 32
1, 302880, Note_on_c, 0, 62, 40
1, 302887, Control_c, 0, 64, 0
1, 303109, Control_c, 0, 64, 127
1, 303360, Tempo, 596184
1, 303360, Note_on_c, 0, 62, 0
1, 303360, Note_on_c, 0, 47, 0
1, 303360, Note_on_c, 0, 52, 0
1, 303360, Note_on_c, 0, 59, 0
1, 303360, Note_on_c, 0, 49, 28
1, 303360, Note_on_c, 0, 52, 28
1, 303360, Note_on_c, 0, 57, 28
1, 303360, Note_on_c, 0, 61, 36
1, 303364, Control_c, 0, 64, 0
1, 303520, Control_c, 0, 64, 127
1, 303840, Key_signature, -4, "major"
1, 303840, Tempo, 542299
1, 303840, Note_on_c, 0, 61, 0
1, 303840, Note_on_c, 0, 49, 0
1, 303840, Note_on_c, 0, 52, 0
1, 303840, Note_on_c, 0, 57, 0
1, 303840, Note_on_c, 0, 51, 27
1, 303840, Note_on_c, 0, 56, 27
1, 303840, Note_on_c, 0, 59, 31
1, 303849, Control_c, 0, 64, 0
1, 304214, Control_c, 0, 64, 127
1, 305280, Tempo, 624090
1, 305280, Note_on_c, 0, 59, 0
1, 305280, Note_on_c, 0, 56, 0
1, 305280, Note_on_c, 0, 39, 25
1, 305280, Note_on_c, 0, 55, 28
1, 305280, Note_on_c, 0, 58, 28
1, 305295, Control_c, 0, 64, 0
1, 305627, Control_c, 0, 64, 127
1, 306720, Note_on_c, 0, 58, 0
1, 306720, Note_on_c, 0, 51, 0
1, 306720, Note_on_c, 0, 39, 0
1, 306720, Note_on_c, 0, 55, 0
1, 306720, Note_on_c, 0, 32, 25
1, 306720, Note_on_c, 0, 44, 25
1, 306720, Note_on_c, 0, 56, 28
1, 306734, Control_c, 0, 64, 0
1, 307120, Control_c, 0, 64, 127
1, 309120, Tempo, 489796
1, 309120, Marker_t, "Fine"
1, 309120, Note_on_c, 0, 56, 0
1, 309120, Note_on_c, 0, 44, 0
1, 309120, Note_on_c, 0, 32, 0
1, 310667, Control_c, 0, 64, 0
1, 310667, End_track
0, 0, End_of_file
