0, 0, Header, 0, 1, 480
1, 0, Start_track
1, 0, Title_t, "Schubert: Sonata D850, 3. movement"
1, 0, Copyright_t, "Copyright © 2010 by Bernd Krueger"
1, 0, Text_t, "Franz Schubert"
1, 0, Text_t, "Scherzo - Allegro vivace"
1, 0, Text_t, "Erstellt: 17.3.2010\012"
1, 0, Text_t, "Update: 13.3.2014\012"
1, 0, Text_t, "Dauer: 9:24 Muniten\012"
1, 0, Time_signature, 3, 2, 24, 8
1, 0, Key_signature, 2, "major"
1, 0, Tempo, 387097
1, 0, Program_c, 0, 0
1, 0, Program_c, 0, 0
1, 0, Program_c, 0, 0
1, 360, Marker_t, "Teil 1"
1, 360, Note_on_c, 0, 57, 59
1, 360, Note_on_c, 0, 61, 70
1, 360, Note_on_c, 0, 55, 59
1, 360, Note_on_c, 0, 33, 51
1, 360, Note_on_c, 0, 45, 60
1, 420, Note_on_c, 0, 45, 0
1, 420, Note_on_c, 0, 55, 0
1, 420, Note_on_c, 0, 57, 0
1, 420, Note_on_c, 0, 61, 0
1, 420, Note_on_c, 0, 33, 0
1, 480, Note_on_c, 0, 61, 76
1, 480, Note_on_c, 0, 55, 64
1, 480, Note_on_c, 0, 57, 64
1, 480, Note_on_c, 0, 33, 54
1, 480, Note_on_c, 0, 45, 64
1, 502, Control_c, 0, 64, 127
1, 840, Note_on_c, 0, 45, 0
1, 840, Note_on_c, 0, 57, 0
1, 840, Note_on_c, 0, 61, 0
1, 840, Note_on_c, 0, 55, 0
1, 840, Note_on_c, 0, 33, 0
1, 840, Note_on_c, 0, 55, 59
1, 840, Note_on_c, 0, 61, 70
1, 840, Note_on_c, 0, 57, 59
1, 840, Note_on_c, 0, 33, 50
1, 840, Note_on_c, 0, 45, 59
1, 850, Control_c, 0, 64, 0
1, 900, Note_on_c, 0, 45, 0
1, 900, Note_on_c, 0, 57, 0
1, 900, Note_on_c, 0, 55, 0
1, 900, Note_on_c, 0, 61, 0
1, 900, Note_on_c, 0, 33, 0
1, 960, Note_on_c, 0, 55, 63
1, 960, Note_on_c, 0, 62, 75
1, 960, Note_on_c, 0, 57, 63
1, 960, Note_on_c, 0, 35, 54
1, 960, Note_on_c, 0, 47, 64
1, 1014, Control_c, 0, 64, 127
1, 1200, Tempo, 412371
1, 1320, Note_on_c, 0, 47, 0
1, 1320, Note_on_c, 0, 57, 0
1, 1320, Note_on_c, 0, 55, 0
1, 1320, Note_on_c, 0, 62, 0
1, 1320, Note_on_c, 0, 35, 0
1, 1320, Note_on_c, 0, 57, 59
1, 1320, Note_on_c, 0, 55, 59
1, 1320, Note_on_c, 0, 64, 70
1, 1320, Note_on_c, 0, 37, 51
1, 1320, Note_on_c, 0, 49, 60
1, 1329, Control_c, 0, 64, 0
1, 1380, Note_on_c, 0, 49, 0
1, 1380, Note_on_c, 0, 64, 0
1, 1380, Note_on_c, 0, 57, 0
1, 1380, Note_on_c, 0, 55, 0
1, 1380, Note_on_c, 0, 37, 0
1, 1440, Tempo, 392157
1, 1440, Note_on_c, 0, 54, 68
1, 1440, Note_on_c, 0, 57, 68
1, 1440, Note_on_c, 0, 66, 80
1, 1440, Note_on_c, 0, 62, 68
1, 1440, Note_on_c, 0, 38, 57
1, 1440, Note_on_c, 0, 45, 57
1, 1440, Note_on_c, 0, 50, 68
1, 1680, Control_c, 0, 64, 127
1, 2371, Note_on_c, 0, 50, 0
1, 2371, Note_on_c, 0, 38, 0
1, 2371, Note_on_c, 0, 57, 0
1, 2371, Note_on_c, 0, 66, 0
1, 2371, Note_on_c, 0, 54, 0
1, 2371, Note_on_c, 0, 45, 0
1, 2371, Note_on_c, 0, 62, 0
1, 2400, Tempo, 387097
1, 2400, Note_on_c, 0, 57, 68
1, 2400, Note_on_c, 0, 54, 68
1, 2400, Note_on_c, 0, 66, 80
1, 2400, Note_on_c, 0, 62, 68
1, 2400, Note_on_c, 0, 38, 57
1, 2400, Note_on_c, 0, 45, 57
1, 2400, Note_on_c, 0, 50, 68
1, 3215, Note_on_c, 0, 62, 0
1, 3215, Note_on_c, 0, 66, 0
1, 3215, Note_on_c, 0, 57, 0
1, 3215, Note_on_c, 0, 54, 0
1, 3240, Note_on_c, 0, 66, 67
1, 3255, Control_c, 0, 64, 0
1, 3331, Note_on_c, 0, 50, 0
1, 3331, Note_on_c, 0, 45, 0
1, 3331, Note_on_c, 0, 38, 0
1, 3360, Tempo, 384615
1, 3360, Note_on_c, 0, 66, 0
1, 3360, Note_on_c, 0, 67, 75
1, 3360, Note_on_c, 0, 57, 66
1, 3360, Note_on_c, 0, 38, 53
1, 3360, Note_on_c, 0, 50, 63
1, 3452, Control_c, 0, 64, 127
1, 3720, Note_on_c, 0, 67, 0
1, 3720, Note_on_c, 0, 66, 70
1, 3826, Note_on_c, 0, 57, 0
1, 3840, Note_on_c, 0, 50, 0
1, 3840, Note_on_c, 0, 38, 0
1, 3840, Note_on_c, 0, 66, 0
1, 3840, Note_on_c, 0, 64, 74
1, 3840, Note_on_c, 0, 57, 66
1, 3840, Note_on_c, 0, 42, 53
1, 3840, Note_on_c, 0, 54, 63
1, 3847, Control_c, 0, 64, 0
1, 3960, Note_on_c, 0, 64, 0
1, 3960, Note_on_c, 0, 66, 66
1, 4080, Tempo, 449438
1, 4080, Note_on_c, 0, 66, 0
1, 4080, Note_on_c, 0, 64, 66
1, 4200, Note_on_c, 0, 64, 0
1, 4200, Note_on_c, 0, 62, 70
1, 4306, Note_on_c, 0, 57, 0
1, 4320, Tempo, 389610
1, 4320, Note_on_c, 0, 54, 0
1, 4320, Note_on_c, 0, 42, 0
1, 4320, Note_on_c, 0, 62, 0
1, 4320, Note_on_c, 0, 69, 80
1, 4320, Note_on_c, 0, 57, 68
1, 4320, Note_on_c, 0, 64, 68
1, 4320, Note_on_c, 0, 37, 57
1, 4320, Note_on_c, 0, 45, 57
1, 4320, Note_on_c, 0, 49, 68
1, 4560, Control_c, 0, 64, 127
1, 5251, Note_on_c, 0, 49, 0
1, 5251, Note_on_c, 0, 57, 0
1, 5251, Note_on_c, 0, 64, 0
1, 5251, Note_on_c, 0, 69, 0
1, 5251, Note_on_c, 0, 45, 0
1, 5251, Note_on_c, 0, 37, 0
1, 5280, Tempo, 387097
1, 5280, Note_on_c, 0, 57, 68
1, 5280, Note_on_c, 0, 69, 80
1, 5280, Note_on_c, 0, 64, 68
1, 5280, Note_on_c, 0, 37, 57
1, 5280, Note_on_c, 0, 45, 57
1, 5280, Note_on_c, 0, 49, 68
1, 6095, Note_on_c, 0, 64, 0
1, 6095, Note_on_c, 0, 57, 0
1, 6095, Note_on_c, 0, 69, 0
1, 6120, Note_on_c, 0, 69, 67
1, 6130, Control_c, 0, 64, 0
1, 6211, Note_on_c, 0, 37, 0
1, 6211, Note_on_c, 0, 49, 0
1, 6211, Note_on_c, 0, 45, 0
1, 6240, Tempo, 382166
1, 6240, Note_on_c, 0, 69, 0
1, 6240, Note_on_c, 0, 71, 75
1, 6240, Note_on_c, 0, 64, 66
1, 6240, Note_on_c, 0, 37, 53
1, 6240, Note_on_c, 0, 49, 63
1, 6360, Note_on_c, 0, 71, 0
1, 6360, Note_on_c, 0, 73, 66
1, 6480, Note_on_c, 0, 73, 0
1, 6480, Note_on_c, 0, 71, 68
1, 6600, Note_on_c, 0, 71, 0
1, 6600, Note_on_c, 0, 69, 70
1, 6706, Note_on_c, 0, 64, 0
1, 6706, Note_on_c, 0, 49, 0
1, 6706, Note_on_c, 0, 37, 0
1, 6720, Note_on_c, 0, 69, 0
1, 6720, Note_on_c, 0, 64, 66
1, 6720, Note_on_c, 0, 71, 74
1, 6720, Note_on_c, 0, 37, 53
1, 6720, Note_on_c, 0, 49, 63
1, 6819, Control_c, 0, 64, 127
1, 6960, Tempo, 452830
1, 7080, Note_on_c, 0, 71, 0
1, 7080, Note_on_c, 0, 73, 70
1, 7200, Tempo, 388350
1, 7200, Note_on_c, 0, 73, 0
1, 7200, Note_on_c, 0, 49, 0
1, 7200, Note_on_c, 0, 37, 0
1, 7200, Note_on_c, 0, 64, 0
1, 7200, Note_on_c, 0, 66, 68
1, 7200, Note_on_c, 0, 71, 68
1, 7200, Note_on_c, 0, 62, 68
1, 7200, Note_on_c, 0, 74, 80
1, 7200, Note_on_c, 0, 35, 57
1, 7200, Note_on_c, 0, 42, 57
1, 7200, Note_on_c, 0, 47, 68
1, 7206, Control_c, 0, 64, 0
1, 7520, Control_c, 0, 64, 127
1, 8131, Note_on_c, 0, 47, 0
1, 8131, Note_on_c, 0, 35, 0
1, 8131, Note_on_c, 0, 71, 0
1, 8131, Note_on_c, 0, 62, 0
1, 8131, Note_on_c, 0, 66, 0
1, 8131, Note_on_c, 0, 42, 0
1, 8131, Note_on_c, 0, 74, 0
1, 8160, Note_on_c, 0, 62, 68
1, 8160, Note_on_c, 0, 66, 68
1, 8160, Note_on_c, 0, 74, 80
1, 8160, Note_on_c, 0, 71, 68
1, 8160, Note_on_c, 0, 35, 57
1, 8160, Note_on_c, 0, 42, 57
1, 8160, Note_on_c, 0, 47, 68
1, 8774, Tempo, 379747
1, 8813, Tempo, 378549
1, 8851, Tempo, 377358
1, 8870, Note_on_c, 0, 47, 0
1, 8870, Note_on_c, 0, 35, 0
1, 8870, Note_on_c, 0, 66, 0
1, 8870, Note_on_c, 0, 74, 0
1, 8870, Note_on_c, 0, 62, 0
1, 8870, Note_on_c, 0, 42, 0
1, 8870, Note_on_c, 0, 71, 0
1, 8880, Note_on_c, 0, 68, 63
1, 8880, Note_on_c, 0, 74, 75
1, 8880, Note_on_c, 0, 40, 52
1, 8880, Note_on_c, 0, 52, 62
1, 8890, Tempo, 376176
1, 8891, Control_c, 0, 64, 0
1, 8928, Tempo, 375000
1, 8966, Tempo, 373832
1, 9000, Note_on_c, 0, 52, 0
1, 9000, Note_on_c, 0, 68, 0
1, 9000, Note_on_c, 0, 74, 0
1, 9000, Note_on_c, 0, 40, 0
1, 9005, Tempo, 372671
1, 9043, Tempo, 371517
1, 9082, Tempo, 370370
1, 9120, Tempo, 369231
1, 9120, Note_on_c, 0, 68, 68
1, 9120, Note_on_c, 0, 74, 80
1, 9120, Note_on_c, 0, 40, 53
1, 9120, Note_on_c, 0, 52, 63
1, 9158, Tempo, 370370
1, 9216, Tempo, 369231
1, 9240, Note_on_c, 0, 52, 0
1, 9240, Note_on_c, 0, 68, 0
1, 9240, Note_on_c, 0, 74, 0
1, 9240, Note_on_c, 0, 40, 0
1, 9254, Tempo, 368098
1, 9312, Tempo, 366972
1, 9350, Tempo, 365854
1, 9360, Note_on_c, 0, 74, 79
1, 9360, Note_on_c, 0, 68, 67
1, 9360, Note_on_c, 0, 76, 79
1, 9360, Note_on_c, 0, 40, 56
1, 9360, Note_on_c, 0, 52, 66
1, 9389, Tempo, 364742
1, 9446, Tempo, 363636
1, 9480, Note_on_c, 0, 52, 0
1, 9480, Note_on_c, 0, 76, 0
1, 9480, Note_on_c, 0, 74, 0
1, 9480, Note_on_c, 0, 68, 0
1, 9480, Note_on_c, 0, 40, 0
1, 9485, Tempo, 362538
1, 9523, Tempo, 361446
1, 9581, Tempo, 360360
1, 9600, Note_on_c, 0, 68, 70
1, 9600, Note_on_c, 0, 74, 70
1, 9600, Note_on_c, 0, 78, 83
1, 9600, Note_on_c, 0, 40, 57
1, 9600, Note_on_c, 0, 52, 68
1, 9619, Tempo, 359281
1, 9658, Tempo, 358209
1, 9720, Note_on_c, 0, 52, 0
1, 9720, Note_on_c, 0, 78, 0
1, 9720, Note_on_c, 0, 68, 0
1, 9720, Note_on_c, 0, 74, 0
1, 9720, Note_on_c, 0, 40, 0
1, 9840, Tempo, 461538
1, 9840, Note_on_c, 0, 68, 73
1, 9840, Note_on_c, 0, 74, 73
1, 9840, Note_on_c, 0, 80, 86
1, 9840, Note_on_c, 0, 40, 59
1, 9840, Note_on_c, 0, 52, 70
1, 9960, Note_on_c, 0, 52, 0
1, 9960, Note_on_c, 0, 80, 0
1, 9960, Note_on_c, 0, 68, 0
1, 9960, Note_on_c, 0, 74, 0
1, 9960, Note_on_c, 0, 40, 0
1, 10080, Tempo, 380952
1, 10080, Note_on_c, 0, 69, 76
1, 10080, Note_on_c, 0, 73, 76
1, 10080, Note_on_c, 0, 81, 90
1, 10080, Note_on_c, 0, 33, 62
1, 10080, Note_on_c, 0, 45, 73
1, 10240, Control_c, 0, 64, 127
1, 11011, Note_on_c, 0, 45, 0
1, 11011, Note_on_c, 0, 81, 0
1, 11011, Note_on_c, 0, 69, 0
1, 11011, Note_on_c, 0, 73, 0
1, 11011, Note_on_c, 0, 33, 0
1, 11040, Note_on_c, 0, 57, 73
1, 11040, Note_on_c, 0, 61, 73
1, 11040, Note_on_c, 0, 69, 87
1, 11040, Note_on_c, 0, 45, 57
1, 11040, Note_on_c, 0, 52, 68
1, 11947, Control_c, 0, 64, 0
1, 11971, Note_on_c, 0, 52, 0
1, 11971, Note_on_c, 0, 45, 0
1, 12000, Note_on_c, 0, 57, 0
1, 12000, Note_on_c, 0, 61, 0
1, 12000, Note_on_c, 0, 69, 0
1, 12000, Note_on_c, 0, 81, 61
1, 12000, Note_on_c, 0, 66, 45
1, 12480, Tempo, 385852
1, 12480, Note_on_c, 0, 66, 0
1, 12480, Note_on_c, 0, 81, 0
1, 12480, Note_on_c, 0, 82, 58
1, 12480, Note_on_c, 0, 62, 37
1, 12960, Tempo, 352941
1, 12960, Note_on_c, 0, 62, 0
1, 12960, Note_on_c, 0, 82, 0
1, 12960, Note_on_c, 0, 83, 62
1, 12960, Note_on_c, 0, 67, 45
1, 13120, Note_on_c, 0, 83, 0
1, 13120, Note_on_c, 0, 82, 57
1, 13280, Note_on_c, 0, 82, 0
1, 13280, Note_on_c, 0, 83, 57
1, 13440, Tempo, 356083
1, 13440, Note_on_c, 0, 83, 0
1, 13440, Note_on_c, 0, 67, 0
1, 13440, Note_on_c, 0, 88, 63
1, 13440, Note_on_c, 0, 71, 39
1, 13600, Note_on_c, 0, 88, 0
1, 13600, Note_on_c, 0, 87, 61
1, 13760, Tempo, 401338
1, 13760, Note_on_c, 0, 87, 0
1, 13760, Note_on_c, 0, 88, 65
1, 13920, Tempo, 364742
1, 13920, Note_on_c, 0, 88, 0
1, 13920, Note_on_c, 0, 71, 0
1, 13920, Note_on_c, 0, 91, 70
1, 13920, Note_on_c, 0, 76, 39
1, 14400, Note_on_c, 0, 76, 0
1, 14400, Note_on_c, 0, 61, 44
1, 14640, Note_on_c, 0, 61, 0
1, 14760, Note_on_c, 0, 91, 0
1, 14760, Note_on_c, 0, 90, 61
1, 14880, Note_on_c, 0, 90, 0
1, 14880, Note_on_c, 0, 88, 69
1, 14880, Note_on_c, 0, 73, 36
1, 15240, Note_on_c, 0, 88, 0
1, 15240, Note_on_c, 0, 86, 62
1, 15360, Tempo, 361446
1, 15360, Note_on_c, 0, 86, 0
1, 15360, Note_on_c, 0, 73, 0
1, 15360, Note_on_c, 0, 85, 70
1, 15360, Note_on_c, 0, 67, 36
1, 15680, Tempo, 400000
1, 15720, Note_on_c, 0, 85, 0
1, 15720, Note_on_c, 0, 83, 62
1, 15840, Tempo, 351906
1, 15840, Note_on_c, 0, 83, 0
1, 15840, Note_on_c, 0, 67, 0
1, 15840, Note_on_c, 0, 81, 69
1, 15840, Note_on_c, 0, 66, 45
1, 16000, Note_on_c, 0, 81, 0
1, 16000, Note_on_c, 0, 80, 60
1, 16160, Note_on_c, 0, 80, 0
1, 16160, Note_on_c, 0, 81, 55
1, 16320, Tempo, 359281
1, 16320, Note_on_c, 0, 81, 0
1, 16320, Note_on_c, 0, 66, 0
1, 16320, Note_on_c, 0, 86, 68
1, 16320, Note_on_c, 0, 69, 39
1, 16480, Note_on_c, 0, 86, 0
1, 16480, Note_on_c, 0, 85, 65
1, 16640, Tempo, 401338
1, 16640, Note_on_c, 0, 85, 0
1, 16640, Note_on_c, 0, 86, 69
1, 16800, Tempo, 364742
1, 16800, Note_on_c, 0, 86, 0
1, 16800, Note_on_c, 0, 69, 0
1, 16800, Note_on_c, 0, 90, 72
1, 16800, Note_on_c, 0, 74, 39
1, 17280, Note_on_c, 0, 74, 0
1, 17280, Note_on_c, 0, 59, 44
1, 17520, Note_on_c, 0, 59, 0
1, 17640, Note_on_c, 0, 90, 0
1, 17640, Note_on_c, 0, 88, 61
1, 17760, Note_on_c, 0, 88, 0
1, 17760, Note_on_c, 0, 86, 69
1, 17760, Note_on_c, 0, 71, 36
1, 18120, Note_on_c, 0, 86, 0
1, 18120, Note_on_c, 0, 85, 62
1, 18240, Tempo, 361446
1, 18240, Note_on_c, 0, 85, 0
1, 18240, Note_on_c, 0, 71, 0
1, 18240, Note_on_c, 0, 83, 70
1, 18240, Note_on_c, 0, 66, 36
1, 18560, Tempo, 400000
1, 18600, Note_on_c, 0, 83, 0
1, 18600, Note_on_c, 0, 81, 62
1, 18720, Tempo, 352941
1, 18720, Note_on_c, 0, 81, 0
1, 18720, Note_on_c, 0, 66, 0
1, 18720, Note_on_c, 0, 79, 67
1, 18720, Note_on_c, 0, 64, 45
1, 18880, Note_on_c, 0, 79, 0
1, 18880, Note_on_c, 0, 78, 58
1, 19040, Note_on_c, 0, 78, 0
1, 19040, Note_on_c, 0, 79, 58
1, 19200, Tempo, 361446
1, 19200, Note_on_c, 0, 79, 0
1, 19200, Note_on_c, 0, 64, 0
1, 19200, Note_on_c, 0, 85, 63
1, 19200, Note_on_c, 0, 67, 39
1, 19360, Note_on_c, 0, 85, 0
1, 19360, Note_on_c, 0, 84, 61
1, 19520, Tempo, 401338
1, 19520, Note_on_c, 0, 84, 0
1, 19520, Note_on_c, 0, 85, 65
1, 19680, Tempo, 364742
1, 19680, Note_on_c, 0, 85, 0
1, 19680, Note_on_c, 0, 67, 0
1, 19680, Note_on_c, 0, 88, 70
1, 19680, Note_on_c, 0, 73, 39
1, 20160, Note_on_c, 0, 73, 0
1, 20160, Note_on_c, 0, 52, 44
1, 20400, Note_on_c, 0, 52, 0
1, 20520, Note_on_c, 0, 88, 0
1, 20520, Note_on_c, 0, 86, 59
1, 20640, Tempo, 370370
1, 20640, Note_on_c, 0, 86, 0
1, 20640, Note_on_c, 0, 85, 68
1, 20640, Note_on_c, 0, 64, 34
1, 21000, Note_on_c, 0, 85, 0
1, 21000, Note_on_c, 0, 86, 57
1, 21120, Tempo, 390879
1, 21120, Note_on_c, 0, 86, 0
1, 21120, Note_on_c, 0, 64, 0
1, 21120, Note_on_c, 0, 85, 67
1, 21120, Note_on_c, 0, 65, 32
1, 21440, Tempo, 489796
1, 21480, Note_on_c, 0, 85, 0
1, 21480, Note_on_c, 0, 83, 58
1, 21600, Tempo, 398671
1, 21600, Note_on_c, 0, 83, 0
1, 21600, Note_on_c, 0, 65, 0
1, 21600, Note_on_c, 0, 78, 53
1, 21600, Note_on_c, 0, 82, 63
1, 21600, Note_on_c, 0, 66, 25
1, 21600, Note_on_c, 0, 73, 30
1, 21960, Control_c, 0, 64, 127
1, 22531, Note_on_c, 0, 73, 0
1, 22531, Note_on_c, 0, 78, 0
1, 22531, Note_on_c, 0, 82, 0
1, 22531, Note_on_c, 0, 66, 0
1, 22560, Tempo, 387097
1, 22560, Note_on_c, 0, 78, 47
1, 22560, Note_on_c, 0, 82, 56
1, 22560, Note_on_c, 0, 66, 39
1, 22560, Note_on_c, 0, 73, 47
1, 23280, Note_on_c, 0, 73, 0
1, 23280, Note_on_c, 0, 66, 0
1, 23375, Note_on_c, 0, 82, 0
1, 23390, Note_on_c, 0, 78, 0
1, 23400, Note_on_c, 0, 82, 46
1, 23415, Control_c, 0, 64, 0
1, 23520, Tempo, 384615
1, 23520, Note_on_c, 0, 82, 0
1, 23520, Note_on_c, 0, 78, 46
1, 23520, Note_on_c, 0, 83, 52
1, 23520, Note_on_c, 0, 66, 37
1, 23520, Note_on_c, 0, 73, 44
1, 23612, Control_c, 0, 64, 127
1, 23880, Note_on_c, 0, 83, 0
1, 23880, Note_on_c, 0, 82, 49
1, 23952, Note_on_c, 0, 73, 0
1, 23952, Note_on_c, 0, 66, 0
1, 23986, Note_on_c, 0, 78, 0
1, 24000, Note_on_c, 0, 82, 0
1, 24000, Note_on_c, 0, 78, 46
1, 24000, Note_on_c, 0, 83, 51
1, 24000, Note_on_c, 0, 66, 37
1, 24000, Note_on_c, 0, 73, 44
1, 24007, Control_c, 0, 64, 0
1, 24097, Control_c, 0, 64, 127
1, 24240, Tempo, 449438
1, 24360, Note_on_c, 0, 83, 0
1, 24360, Note_on_c, 0, 82, 49
1, 24432, Note_on_c, 0, 73, 0
1, 24432, Note_on_c, 0, 66, 0
1, 24466, Note_on_c, 0, 78, 0
1, 24480, Tempo, 389610
1, 24480, Note_on_c, 0, 82, 0
1, 24480, Note_on_c, 0, 77, 47
1, 24480, Note_on_c, 0, 80, 56
1, 24480, Note_on_c, 0, 61, 39
1, 24480, Note_on_c, 0, 71, 47
1, 24482, Control_c, 0, 64, 0
1, 24720, Control_c, 0, 64, 127
1, 25411, Note_on_c, 0, 71, 0
1, 25411, Note_on_c, 0, 77, 0
1, 25411, Note_on_c, 0, 80, 0
1, 25411, Note_on_c, 0, 61, 0
1, 25440, Tempo, 387097
1, 25440, Note_on_c, 0, 80, 56
1, 25440, Note_on_c, 0, 77, 47
1, 25440, Note_on_c, 0, 61, 39
1, 25440, Note_on_c, 0, 71, 47
1, 26255, Note_on_c, 0, 80, 0
1, 26270, Note_on_c, 0, 77, 0
1, 26280, Note_on_c, 0, 80, 46
1, 26295, Control_c, 0, 64, 0
1, 26390, Note_on_c, 0, 61, 0
1, 26390, Note_on_c, 0, 71, 0
1, 26400, Tempo, 384615
1, 26400, Note_on_c, 0, 80, 0
1, 26400, Note_on_c, 0, 82, 52
1, 26400, Note_on_c, 0, 77, 46
1, 26400, Note_on_c, 0, 61, 37
1, 26400, Note_on_c, 0, 71, 44
1, 26492, Control_c, 0, 64, 127
1, 26760, Note_on_c, 0, 82, 0
1, 26760, Note_on_c, 0, 80, 49
1, 26832, Note_on_c, 0, 71, 0
1, 26832, Note_on_c, 0, 61, 0
1, 26865, Note_on_c, 0, 77, 0
1, 26880, Note_on_c, 0, 80, 0
1, 26880, Note_on_c, 0, 82, 51
1, 26880, Note_on_c, 0, 77, 46
1, 26880, Note_on_c, 0, 61, 37
1, 26880, Note_on_c, 0, 71, 44
1, 26887, Control_c, 0, 64, 0
1, 26977, Control_c, 0, 64, 127
1, 27120, Tempo, 449438
1, 27240, Note_on_c, 0, 82, 0
1, 27240, Note_on_c, 0, 80, 49
1, 27312, Note_on_c, 0, 71, 0
1, 27312, Note_on_c, 0, 61, 0
1, 27345, Note_on_c, 0, 77, 0
1, 27360, Tempo, 389610
1, 27360, Note_on_c, 0, 80, 0
1, 27360, Note_on_c, 0, 78, 56
1, 27360, Note_on_c, 0, 66, 39
1, 27360, Note_on_c, 0, 70, 47
1, 27362, Control_c, 0, 64, 0
1, 27600, Control_c, 0, 64, 127
1, 28291, Note_on_c, 0, 70, 0
1, 28291, Note_on_c, 0, 66, 0
1, 28291, Note_on_c, 0, 78, 0
1, 28320, Tempo, 389610
1, 28320, Note_on_c, 0, 78, 56
1, 28320, Note_on_c, 0, 66, 39
1, 28320, Note_on_c, 0, 70, 47
1, 29103, Control_c, 0, 64, 0
1, 29150, Note_on_c, 0, 70, 0
1, 29150, Note_on_c, 0, 66, 0
1, 29150, Note_on_c, 0, 78, 0
1, 29160, Tempo, 387097
1, 29160, Note_on_c, 0, 49, 59
1, 29160, Note_on_c, 0, 55, 59
1, 29160, Note_on_c, 0, 57, 70
1, 29160, Note_on_c, 0, 33, 51
1, 29160, Note_on_c, 0, 45, 60
1, 29220, Note_on_c, 0, 45, 0
1, 29220, Note_on_c, 0, 57, 0
1, 29220, Note_on_c, 0, 49, 0
1, 29220, Note_on_c, 0, 55, 0
1, 29220, Note_on_c, 0, 33, 0
1, 29280, Note_on_c, 0, 55, 64
1, 29280, Note_on_c, 0, 49, 64
1, 29280, Note_on_c, 0, 57, 76
1, 29280, Note_on_c, 0, 33, 54
1, 29280, Note_on_c, 0, 45, 64
1, 29302, Control_c, 0, 64, 127
1, 29640, Note_on_c, 0, 45, 0
1, 29640, Note_on_c, 0, 57, 0
1, 29640, Note_on_c, 0, 55, 0
1, 29640, Note_on_c, 0, 49, 0
1, 29640, Note_on_c, 0, 33, 0
1, 29640, Note_on_c, 0, 55, 59
1, 29640, Note_on_c, 0, 49, 59
1, 29640, Note_on_c, 0, 57, 70
1, 29640, Note_on_c, 0, 33, 50
1, 29640, Note_on_c, 0, 45, 59
1, 29650, Control_c, 0, 64, 0
1, 29700, Note_on_c, 0, 45, 0
1, 29700, Note_on_c, 0, 57, 0
1, 29700, Note_on_c, 0, 55, 0
1, 29700, Note_on_c, 0, 49, 0
1, 29700, Note_on_c, 0, 33, 0
1, 29760, Note_on_c, 0, 59, 75
1, 29760, Note_on_c, 0, 49, 63
1, 29760, Note_on_c, 0, 55, 63
1, 29760, Note_on_c, 0, 33, 54
1, 29760, Note_on_c, 0, 45, 64
1, 29814, Control_c, 0, 64, 127
1, 30000, Tempo, 412371
1, 30120, Note_on_c, 0, 45, 0
1, 30120, Note_on_c, 0, 55, 0
1, 30120, Note_on_c, 0, 59, 0
1, 30120, Note_on_c, 0, 49, 0
1, 30120, Note_on_c, 0, 33, 0
1, 30120, Note_on_c, 0, 49, 59
1, 30120, Note_on_c, 0, 55, 59
1, 30120, Note_on_c, 0, 61, 70
1, 30120, Note_on_c, 0, 33, 51
1, 30120, Note_on_c, 0, 45, 60
1, 30129, Control_c, 0, 64, 0
1, 30180, Note_on_c, 0, 45, 0
1, 30180, Note_on_c, 0, 61, 0
1, 30180, Note_on_c, 0, 49, 0
1, 30180, Note_on_c, 0, 55, 0
1, 30180, Note_on_c, 0, 33, 0
1, 30240, Tempo, 392157
1, 30240, Note_on_c, 0, 50, 68
1, 30240, Note_on_c, 0, 54, 68
1, 30240, Note_on_c, 0, 62, 80
1, 30240, Note_on_c, 0, 35, 57
1, 30240, Note_on_c, 0, 47, 68
1, 30480, Control_c, 0, 64, 127
1, 31171, Note_on_c, 0, 47, 0
1, 31171, Note_on_c, 0, 62, 0
1, 31171, Note_on_c, 0, 50, 0
1, 31171, Note_on_c, 0, 54, 0
1, 31171, Note_on_c, 0, 35, 0
1, 31200, Tempo, 387097
1, 31200, Note_on_c, 0, 50, 68
1, 31200, Note_on_c, 0, 59, 68
1, 31200, Note_on_c, 0, 54, 68
1, 31200, Note_on_c, 0, 62, 80
1, 31200, Note_on_c, 0, 35, 57
1, 31200, Note_on_c, 0, 47, 68
1, 32015, Note_on_c, 0, 62, 0
1, 32040, Note_on_c, 0, 62, 67
1, 32055, Control_c, 0, 64, 0
1, 32131, Note_on_c, 0, 59, 0
1, 32131, Note_on_c, 0, 35, 0
1, 32131, Note_on_c, 0, 54, 0
1, 32131, Note_on_c, 0, 50, 0
1, 32131, Note_on_c, 0, 47, 0
1, 32160, Tempo, 384615
1, 32160, Note_on_c, 0, 62, 0
1, 32160, Note_on_c, 0, 54, 66
1, 32160, Note_on_c, 0, 62, 75
1, 32160, Note_on_c, 0, 35, 53
1, 32160, Note_on_c, 0, 47, 63
1, 32252, Control_c, 0, 64, 127
1, 32520, Note_on_c, 0, 62, 0
1, 32520, Note_on_c, 0, 64, 70
1, 32626, Note_on_c, 0, 54, 0
1, 32640, Note_on_c, 0, 47, 0
1, 32640, Note_on_c, 0, 35, 0
1, 32640, Note_on_c, 0, 64, 0
1, 32640, Note_on_c, 0, 54, 66
1, 32640, Note_on_c, 0, 66, 74
1, 32640, Note_on_c, 0, 35, 53
1, 32640, Note_on_c, 0, 47, 63
1, 32647, Control_c, 0, 64, 0
1, 32880, Tempo, 449438
1, 33000, Note_on_c, 0, 66, 0
1, 33000, Note_on_c, 0, 62, 70
1, 33106, Note_on_c, 0, 54, 0
1, 33120, Tempo, 389610
1, 33120, Note_on_c, 0, 47, 0
1, 33120, Note_on_c, 0, 35, 0
1, 33120, Note_on_c, 0, 62, 0
1, 33120, Note_on_c, 0, 67, 68
1, 33120, Note_on_c, 0, 69, 80
1, 33120, Note_on_c, 0, 57, 68
1, 33120, Note_on_c, 0, 64, 68
1, 33120, Note_on_c, 0, 37, 57
1, 33120, Note_on_c, 0, 45, 57
1, 33120, Note_on_c, 0, 49, 68
1, 33360, Control_c, 0, 64, 127
1, 34051, Note_on_c, 0, 49, 0
1, 34051, Note_on_c, 0, 37, 0
1, 34051, Note_on_c, 0, 69, 0
1, 34051, Note_on_c, 0, 57, 0
1, 34051, Note_on_c, 0, 64, 0
1, 34051, Note_on_c, 0, 45, 0
1, 34080, Tempo, 387097
1, 34080, Note_on_c, 0, 67, 0
1, 34080, Note_on_c, 0, 67, 68
1, 34080, Note_on_c, 0, 69, 80
1, 34080, Note_on_c, 0, 57, 68
1, 34080, Note_on_c, 0, 64, 68
1, 34080, Note_on_c, 0, 37, 57
1, 34080, Note_on_c, 0, 45, 57
1, 34080, Note_on_c, 0, 49, 68
1, 34895, Note_on_c, 0, 64, 0
1, 34895, Note_on_c, 0, 57, 0
1, 34895, Note_on_c, 0, 67, 0
1, 34895, Note_on_c, 0, 69, 0
1, 34920, Note_on_c, 0, 69, 67
1, 34920, Note_on_c, 0, 64, 53
1, 34920, Note_on_c, 0, 67, 53
1, 34930, Control_c, 0, 64, 0
1, 35011, Note_on_c, 0, 49, 0
1, 35011, Note_on_c, 0, 45, 0
1, 35011, Note_on_c, 0, 37, 0
1, 35034, Note_on_c, 0, 69, 0
1, 35034, Note_on_c, 0, 64, 0
1, 35034, Note_on_c, 0, 67, 0
1, 35040, Tempo, 382166
1, 35040, Note_on_c, 0, 69, 75
1, 35040, Note_on_c, 0, 64, 60
1, 35040, Note_on_c, 0, 67, 60
1, 35040, Note_on_c, 0, 37, 53
1, 35040, Note_on_c, 0, 49, 63
1, 35373, Note_on_c, 0, 69, 0
1, 35382, Note_on_c, 0, 64, 0
1, 35382, Note_on_c, 0, 67, 0
1, 35400, Note_on_c, 0, 64, 56
1, 35400, Note_on_c, 0, 67, 56
1, 35400, Note_on_c, 0, 69, 70
1, 35506, Note_on_c, 0, 37, 0
1, 35506, Note_on_c, 0, 49, 0
1, 35514, Note_on_c, 0, 67, 0
1, 35514, Note_on_c, 0, 64, 0
1, 35514, Note_on_c, 0, 69, 0
1, 35520, Note_on_c, 0, 64, 59
1, 35520, Note_on_c, 0, 67, 59
1, 35520, Note_on_c, 0, 71, 74
1, 35520, Note_on_c, 0, 37, 53
1, 35520, Note_on_c, 0, 49, 63
1, 35619, Control_c, 0, 64, 127
1, 35760, Tempo, 452830
1, 35862, Note_on_c, 0, 71, 0
1, 35862, Note_on_c, 0, 64, 0
1, 35862, Note_on_c, 0, 67, 0
1, 35880, Note_on_c, 0, 64, 56
1, 35880, Note_on_c, 0, 67, 56
1, 35880, Note_on_c, 0, 73, 70
1, 36000, Tempo, 388350
1, 36000, Note_on_c, 0, 73, 0
1, 36000, Note_on_c, 0, 64, 0
1, 36000, Note_on_c, 0, 49, 0
1, 36000, Note_on_c, 0, 37, 0
1, 36000, Note_on_c, 0, 67, 0
1, 36000, Note_on_c, 0, 62, 68
1, 36000, Note_on_c, 0, 66, 68
1, 36000, Note_on_c, 0, 69, 68
1, 36000, Note_on_c, 0, 74, 80
1, 36000, Note_on_c, 0, 36, 57
1, 36000, Note_on_c, 0, 48, 68
1, 36006, Control_c, 0, 64, 0
1, 36320, Control_c, 0, 64, 127
1, 36931, Note_on_c, 0, 48, 0
1, 36931, Note_on_c, 0, 66, 0
1, 36931, Note_on_c, 0, 69, 0
1, 36931, Note_on_c, 0, 62, 0
1, 36931, Note_on_c, 0, 36, 0
1, 36931, Note_on_c, 0, 74, 0
1, 36960, Note_on_c, 0, 62, 68
1, 36960, Note_on_c, 0, 67, 68
1, 36960, Note_on_c, 0, 74, 80
1, 36960, Note_on_c, 0, 35, 57
1, 36960, Note_on_c, 0, 47, 68
1, 36970, Control_c, 0, 64, 0
1, 37174, Control_c, 0, 64, 127
1, 37574, Tempo, 379747
1, 37613, Tempo, 378549
1, 37651, Tempo, 377358
1, 37670, Note_on_c, 0, 47, 0
1, 37670, Note_on_c, 0, 74, 0
1, 37670, Note_on_c, 0, 62, 0
1, 37670, Note_on_c, 0, 67, 0
1, 37670, Note_on_c, 0, 35, 0
1, 37680, Note_on_c, 0, 68, 63
1, 37680, Note_on_c, 0, 74, 75
1, 37680, Note_on_c, 0, 34, 52
1, 37680, Note_on_c, 0, 46, 62
1, 37690, Tempo, 376176
1, 37691, Control_c, 0, 64, 0
1, 37728, Tempo, 375000
1, 37766, Tempo, 373832
1, 37800, Note_on_c, 0, 46, 0
1, 37800, Note_on_c, 0, 68, 0
1, 37800, Note_on_c, 0, 74, 0
1, 37800, Note_on_c, 0, 34, 0
1, 37805, Tempo, 372671
1, 37843, Tempo, 371517
1, 37882, Tempo, 370370
1, 37920, Tempo, 369231
1, 37920, Note_on_c, 0, 68, 68
1, 37920, Note_on_c, 0, 74, 80
1, 37920, Note_on_c, 0, 34, 53
1, 37920, Note_on_c, 0, 46, 63
1, 37958, Tempo, 370370
1, 38016, Tempo, 369231
1, 38040, Note_on_c, 0, 46, 0
1, 38040, Note_on_c, 0, 68, 0
1, 38040, Note_on_c, 0, 74, 0
1, 38040, Note_on_c, 0, 34, 0
1, 38054, Tempo, 368098
1, 38112, Tempo, 366972
1, 38150, Tempo, 365854
1, 38160, Note_on_c, 0, 68, 67
1, 38160, Note_on_c, 0, 74, 79
1, 38160, Note_on_c, 0, 76, 79
1, 38160, Note_on_c, 0, 34, 56
1, 38160, Note_on_c, 0, 46, 66
1, 38189, Tempo, 364742
1, 38246, Tempo, 363636
1, 38280, Note_on_c, 0, 46, 0
1, 38280, Note_on_c, 0, 76, 0
1, 38280, Note_on_c, 0, 68, 0
1, 38280, Note_on_c, 0, 74, 0
1, 38280, Note_on_c, 0, 34, 0
1, 38285, Tempo, 362538
1, 38323, Tempo, 361446
1, 38381, Tempo, 360360
1, 38400, Note_on_c, 0, 68, 70
1, 38400, Note_on_c, 0, 74, 70
1, 38400, Note_on_c, 0, 78, 83
1, 38400, Note_on_c, 0, 34, 57
1, 38400, Note_on_c, 0, 46, 68
1, 38419, Tempo, 359281
1, 38458, Tempo, 358209
1, 38520, Note_on_c, 0, 46, 0
1, 38520, Note_on_c, 0, 78, 0
1, 38520, Note_on_c, 0, 68, 0
1, 38520, Note_on_c, 0, 74, 0
1, 38520, Note_on_c, 0, 34, 0
1, 38640, Tempo, 461538
1, 38640, Note_on_c, 0, 68, 73
1, 38640, Note_on_c, 0, 74, 73
1, 38640, Note_on_c, 0, 80, 86
1, 38640, Note_on_c, 0, 34, 59
1, 38640, Note_on_c, 0, 46, 70
1, 38760, Note_on_c, 0, 46, 0
1, 38760, Note_on_c, 0, 80, 0
1, 38760, Note_on_c, 0, 68, 0
1, 38760, Note_on_c, 0, 74, 0
1, 38760, Note_on_c, 0, 34, 0
1, 38880, Tempo, 380952
1, 38880, Note_on_c, 0, 69, 76
1, 38880, Note_on_c, 0, 73, 76
1, 38880, Note_on_c, 0, 81, 90
1, 38880, Note_on_c, 0, 33, 62
1, 38880, Note_on_c, 0, 45, 73
1, 39040, Control_c, 0, 64, 127
1, 39811, Note_on_c, 0, 45, 0
1, 39811, Note_on_c, 0, 81, 0
1, 39811, Note_on_c, 0, 69, 0
1, 39811, Note_on_c, 0, 73, 0
1, 39811, Note_on_c, 0, 33, 0
1, 39840, Note_on_c, 0, 57, 73
1, 39840, Note_on_c, 0, 61, 73
1, 39840, Note_on_c, 0, 69, 87
1, 39840, Note_on_c, 0, 45, 57
1, 39840, Note_on_c, 0, 52, 68
1, 40747, Control_c, 0, 64, 0
1, 40771, Note_on_c, 0, 52, 0
1, 40771, Note_on_c, 0, 45, 0
1, 40800, Note_on_c, 0, 57, 0
1, 40800, Note_on_c, 0, 61, 0
1, 40800, Note_on_c, 0, 69, 0
1, 40800, Note_on_c, 0, 76, 61
1, 40800, Note_on_c, 0, 61, 45
1, 41280, Tempo, 385852
1, 41280, Note_on_c, 0, 61, 0
1, 41280, Note_on_c, 0, 76, 0
1, 41280, Note_on_c, 0, 77, 58
1, 41280, Note_on_c, 0, 57, 37
1, 41760, Tempo, 352941
1, 41760, Note_on_c, 0, 57, 0
1, 41760, Note_on_c, 0, 77, 0
1, 41760, Note_on_c, 0, 78, 62
1, 41760, Note_on_c, 0, 62, 45
1, 41920, Note_on_c, 0, 78, 0
1, 41920, Note_on_c, 0, 77, 57
1, 42080, Note_on_c, 0, 77, 0
1, 42080, Note_on_c, 0, 78, 57
1, 42240, Tempo, 356083
1, 42240, Note_on_c, 0, 78, 0
1, 42240, Note_on_c, 0, 62, 0
1, 42240, Note_on_c, 0, 83, 63
1, 42240, Note_on_c, 0, 66, 39
1, 42400, Note_on_c, 0, 83, 0
1, 42400, Note_on_c, 0, 82, 61
1, 42560, Tempo, 401338
1, 42560, Note_on_c, 0, 82, 0
1, 42560, Note_on_c, 0, 83, 65
1, 42720, Tempo, 364742
1, 42720, Note_on_c, 0, 83, 0
1, 42720, Note_on_c, 0, 66, 0
1, 42720, Note_on_c, 0, 86, 70
1, 42720, Note_on_c, 0, 71, 39
1, 43200, Note_on_c, 0, 71, 0
1, 43200, Note_on_c, 0, 56, 44
1, 43440, Note_on_c, 0, 56, 0
1, 43560, Note_on_c, 0, 86, 0
1, 43560, Note_on_c, 0, 85, 61
1, 43680, Note_on_c, 0, 85, 0
1, 43680, Note_on_c, 0, 83, 69
1, 43680, Note_on_c, 0, 68, 36
1, 43800, Note_on_c, 0, 83, 0
1, 43800, Note_on_c, 0, 85, 63
1, 43920, Note_on_c, 0, 85, 0
1, 43920, Note_on_c, 0, 83, 63
1, 44040, Note_on_c, 0, 83, 0
1, 44040, Note_on_c, 0, 81, 62
1, 44160, Tempo, 361446
1, 44160, Note_on_c, 0, 81, 0
1, 44160, Note_on_c, 0, 68, 0
1, 44160, Note_on_c, 0, 80, 70
1, 44160, Note_on_c, 0, 62, 36
1, 44280, Note_on_c, 0, 80, 0
1, 44280, Note_on_c, 0, 81, 65
1, 44400, Note_on_c, 0, 81, 0
1, 44400, Note_on_c, 0, 80, 66
1, 44480, Tempo, 400000
1, 44520, Note_on_c, 0, 80, 0
1, 44520, Note_on_c, 0, 78, 62
1, 44640, Tempo, 351906
1, 44640, Note_on_c, 0, 78, 0
1, 44640, Note_on_c, 0, 62, 0
1, 44640, Note_on_c, 0, 76, 69
1, 44640, Note_on_c, 0, 61, 45
1, 44800, Note_on_c, 0, 76, 0
1, 44800, Note_on_c, 0, 75, 60
1, 44960, Note_on_c, 0, 75, 0
1, 44960, Note_on_c, 0, 76, 55
1, 45120, Tempo, 359281
1, 45120, Note_on_c, 0, 76, 0
1, 45120, Note_on_c, 0, 61, 0
1, 45120, Note_on_c, 0, 81, 68
1, 45120, Note_on_c, 0, 64, 39
1, 45280, Note_on_c, 0, 81, 0
1, 45280, Note_on_c, 0, 80, 65
1, 45440, Tempo, 401338
1, 45440, Note_on_c, 0, 80, 0
1, 45440, Note_on_c, 0, 81, 69
1, 45600, Tempo, 364742
1, 45600, Note_on_c, 0, 81, 0
1, 45600, Note_on_c, 0, 64, 0
1, 45600, Note_on_c, 0, 85, 72
1, 45600, Note_on_c, 0, 69, 39
1, 46080, Note_on_c, 0, 69, 0
1, 46080, Note_on_c, 0, 54, 44
1, 46320, Note_on_c, 0, 54, 0
1, 46440, Note_on_c, 0, 85, 0
1, 46440, Note_on_c, 0, 83, 61
1, 46560, Note_on_c, 0, 83, 0
1, 46560, Note_on_c, 0, 81, 69
1, 46560, Note_on_c, 0, 66, 36
1, 46680, Note_on_c, 0, 81, 0
1, 46680, Note_on_c, 0, 83, 63
1, 46800, Note_on_c, 0, 83, 0
1, 46800, Note_on_c, 0, 81, 63
1, 46920, Note_on_c, 0, 81, 0
1, 46920, Note_on_c, 0, 80, 62
1, 47040, Tempo, 361446
1, 47040, Note_on_c, 0, 80, 0
1, 47040, Note_on_c, 0, 66, 0
1, 47040, Note_on_c, 0, 78, 70
1, 47040, Note_on_c, 0, 61, 36
1, 47160, Note_on_c, 0, 78, 0
1, 47160, Note_on_c, 0, 80, 65
1, 47280, Note_on_c, 0, 80, 0
1, 47280, Note_on_c, 0, 78, 65
1, 47360, Tempo, 400000
1, 47400, Note_on_c, 0, 78, 0
1, 47400, Note_on_c, 0, 76, 62
1, 47520, Tempo, 352941
1, 47520, Note_on_c, 0, 76, 0
1, 47520, Note_on_c, 0, 61, 0
1, 47520, Note_on_c, 0, 74, 67
1, 47520, Note_on_c, 0, 59, 45
1, 47680, Note_on_c, 0, 74, 0
1, 47680, Note_on_c, 0, 73, 58
1, 47840, Note_on_c, 0, 73, 0
1, 47840, Note_on_c, 0, 74, 58
1, 48000, Tempo, 361446
1, 48000, Note_on_c, 0, 74, 0
1, 48000, Note_on_c, 0, 59, 0
1, 48000, Note_on_c, 0, 80, 63
1, 48000, Note_on_c, 0, 62, 39
1, 48160, Note_on_c, 0, 80, 0
1, 48160, Note_on_c, 0, 79, 61
1, 48320, Tempo, 401338
1, 48320, Note_on_c, 0, 79, 0
1, 48320, Note_on_c, 0, 80, 65
1, 48480, Tempo, 364742
1, 48480, Note_on_c, 0, 80, 0
1, 48480, Note_on_c, 0, 62, 0
1, 48480, Note_on_c, 0, 83, 70
1, 48480, Note_on_c, 0, 68, 39
1, 48960, Note_on_c, 0, 68, 0
1, 48960, Note_on_c, 0, 47, 44
1, 49200, Note_on_c, 0, 47, 0
1, 49320, Note_on_c, 0, 83, 0
1, 49320, Note_on_c, 0, 81, 59
1, 49440, Tempo, 370370
1, 49440, Note_on_c, 0, 81, 0
1, 49440, Note_on_c, 0, 80, 68
1, 49440, Note_on_c, 0, 59, 34
1, 49800, Note_on_c, 0, 80, 0
1, 49800, Note_on_c, 0, 81, 57
1, 49920, Tempo, 390879
1, 49920, Note_on_c, 0, 81, 0
1, 49920, Note_on_c, 0, 59, 0
1, 49920, Note_on_c, 0, 80, 67
1, 49920, Note_on_c, 0, 60, 32
1, 50240, Tempo, 489796
1, 50280, Note_on_c, 0, 80, 0
1, 50280, Note_on_c, 0, 78, 58
1, 50400, Tempo, 398671
1, 50400, Note_on_c, 0, 78, 0
1, 50400, Note_on_c, 0, 60, 0
1, 50400, Note_on_c, 0, 77, 63
1, 50400, Note_on_c, 0, 73, 53
1, 50400, Note_on_c, 0, 61, 25
1, 50400, Note_on_c, 0, 68, 30
1, 50760, Control_c, 0, 64, 127
1, 51331, Note_on_c, 0, 68, 0
1, 51331, Note_on_c, 0, 77, 0
1, 51331, Note_on_c, 0, 73, 0
1, 51331, Note_on_c, 0, 61, 0
1, 51360, Tempo, 387097
1, 51360, Note_on_c, 0, 73, 47
1, 51360, Note_on_c, 0, 77, 56
1, 51360, Note_on_c, 0, 61, 39
1, 51360, Note_on_c, 0, 68, 47
1, 52175, Note_on_c, 0, 77, 0
1, 52200, Note_on_c, 0, 77, 46
1, 52215, Control_c, 0, 64, 0
1, 52310, Note_on_c, 0, 73, 0
1, 52310, Note_on_c, 0, 68, 0
1, 52310, Note_on_c, 0, 61, 0
1, 52320, Tempo, 384615
1, 52320, Note_on_c, 0, 77, 0
1, 52320, Note_on_c, 0, 73, 46
1, 52320, Note_on_c, 0, 78, 52
1, 52320, Note_on_c, 0, 61, 37
1, 52320, Note_on_c, 0, 68, 44
1, 52412, Control_c, 0, 64, 127
1, 52680, Note_on_c, 0, 78, 0
1, 52680, Note_on_c, 0, 77, 49
1, 52752, Note_on_c, 0, 68, 0
1, 52752, Note_on_c, 0, 61, 0
1, 52786, Note_on_c, 0, 73, 0
1, 52800, Note_on_c, 0, 77, 0
1, 52800, Note_on_c, 0, 78, 51
1, 52800, Note_on_c, 0, 73, 46
1, 52800, Note_on_c, 0, 61, 37
1, 52800, Note_on_c, 0, 68, 44
1, 52807, Control_c, 0, 64, 0
1, 52897, Control_c, 0, 64, 127
1, 53040, Tempo, 449438
1, 53160, Note_on_c, 0, 78, 0
1, 53160, Note_on_c, 0, 77, 49
1, 53232, Note_on_c, 0, 68, 0
1, 53232, Note_on_c, 0, 61, 0
1, 53266, Note_on_c, 0, 73, 0
1, 53280, Tempo, 389610
1, 53280, Note_on_c, 0, 77, 0
1, 53280, Note_on_c, 0, 80, 61
1, 53280, Note_on_c, 0, 74, 51
1, 53280, Note_on_c, 0, 76, 51
1, 53280, Note_on_c, 0, 59, 39
1, 53280, Note_on_c, 0, 64, 39
1, 53280, Note_on_c, 0, 68, 47
1, 53282, Control_c, 0, 64, 0
1, 53786, Control_c, 0, 64, 127
1, 54211, Note_on_c, 0, 68, 0
1, 54211, Note_on_c, 0, 74, 0
1, 54211, Note_on_c, 0, 76, 0
1, 54211, Note_on_c, 0, 80, 0
1, 54211, Note_on_c, 0, 64, 0
1, 54211, Note_on_c, 0, 59, 0
1, 54240, Tempo, 387097
1, 54240, Note_on_c, 0, 74, 51
1, 54240, Note_on_c, 0, 80, 61
1, 54240, Note_on_c, 0, 76, 51
1, 54240, Note_on_c, 0, 59, 39
1, 54240, Note_on_c, 0, 64, 39
1, 54240, Note_on_c, 0, 68, 47
1, 55070, Note_on_c, 0, 68, 0
1, 55070, Note_on_c, 0, 80, 0
1, 55070, Note_on_c, 0, 76, 0
1, 55070, Note_on_c, 0, 74, 0
1, 55070, Note_on_c, 0, 64, 0
1, 55070, Note_on_c, 0, 59, 0
1, 55080, Note_on_c, 0, 76, 50
1, 55080, Note_on_c, 0, 68, 39
1, 55095, Control_c, 0, 64, 0
1, 55200, Tempo, 384615
1, 55200, Note_on_c, 0, 68, 0
1, 55200, Note_on_c, 0, 76, 0
1, 55200, Note_on_c, 0, 78, 57
1, 55200, Note_on_c, 0, 74, 50
1, 55200, Note_on_c, 0, 69, 44
1, 55200, Note_on_c, 0, 64, 39
1, 55292, Control_c, 0, 64, 127
1, 55560, Note_on_c, 0, 69, 0
1, 55560, Note_on_c, 0, 78, 0
1, 55560, Note_on_c, 0, 76, 53
1, 55560, Note_on_c, 0, 68, 41
1, 55665, Note_on_c, 0, 74, 0
1, 55665, Note_on_c, 0, 64, 0
1, 55680, Note_on_c, 0, 76, 0
1, 55680, Note_on_c, 0, 68, 0
1, 55680, Note_on_c, 0, 74, 50
1, 55680, Note_on_c, 0, 78, 56
1, 55680, Note_on_c, 0, 64, 39
1, 55680, Note_on_c, 0, 69, 43
1, 55687, Control_c, 0, 64, 0
1, 55777, Control_c, 0, 64, 127
1, 55920, Tempo, 449438
1, 56040, Note_on_c, 0, 69, 0
1, 56040, Note_on_c, 0, 78, 0
1, 56040, Note_on_c, 0, 80, 53
1, 56040, Note_on_c, 0, 71, 41
1, 56145, Note_on_c, 0, 64, 0
1, 56145, Note_on_c, 0, 74, 0
1, 56160, Tempo, 389610
1, 56160, Note_on_c, 0, 80, 0
1, 56160, Note_on_c, 0, 71, 0
1, 56160, Note_on_c, 0, 69, 51
1, 56160, Note_on_c, 0, 81, 61
1, 56160, Note_on_c, 0, 73, 51
1, 56160, Note_on_c, 0, 64, 47
1, 56160, Note_on_c, 0, 57, 39
1, 56162, Control_c, 0, 64, 0
1, 56400, Control_c, 0, 64, 127
1, 57091, Note_on_c, 0, 57, 0
1, 57091, Note_on_c, 0, 73, 0
1, 57091, Note_on_c, 0, 69, 0
1, 57091, Note_on_c, 0, 81, 0
1, 57091, Note_on_c, 0, 64, 0
1, 57120, Tempo, 389610
1, 57120, Note_on_c, 0, 73, 51
1, 57120, Note_on_c, 0, 69, 51
1, 57120, Note_on_c, 0, 81, 61
1, 57120, Note_on_c, 0, 57, 39
1, 57120, Note_on_c, 0, 64, 47
1, 57903, Control_c, 0, 64, 0
1, 57950, Note_on_c, 0, 64, 0
1, 57950, Note_on_c, 0, 81, 0
1, 57950, Note_on_c, 0, 73, 0
1, 57950, Note_on_c, 0, 69, 0
1, 57950, Note_on_c, 0, 57, 0
1, 57960, Tempo, 387097
1, 57960, Marker_t, "Teil 2"
1, 57960, Note_on_c, 0, 57, 70
1, 57960, Note_on_c, 0, 45, 60
1, 58020, Note_on_c, 0, 45, 0
1, 58020, Note_on_c, 0, 57, 0
1, 58080, Note_on_c, 0, 57, 76
1, 58080, Note_on_c, 0, 45, 64
1, 58133, Control_c, 0, 64, 127
1, 58200, Note_on_c, 0, 45, 0
1, 58200, Note_on_c, 0, 57, 0
1, 58310, Control_c, 0, 64, 0
1, 58320, Tempo, 372671
1, 58440, Note_on_c, 0, 57, 70
1, 58440, Note_on_c, 0, 45, 59
1, 58500, Note_on_c, 0, 45, 0
1, 58500, Note_on_c, 0, 57, 0
1, 58560, Tempo, 366972
1, 58560, Note_on_c, 0, 55, 75
1, 58560, Note_on_c, 0, 43, 64
1, 58614, Control_c, 0, 64, 127
1, 58680, Note_on_c, 0, 43, 0
1, 58680, Note_on_c, 0, 55, 0
1, 58751, Control_c, 0, 64, 0
1, 58800, Tempo, 412371
1, 58920, Note_on_c, 0, 57, 70
1, 58920, Note_on_c, 0, 45, 60
1, 58980, Note_on_c, 0, 45, 0
1, 58980, Note_on_c, 0, 57, 0
1, 59040, Tempo, 392157
1, 59040, Note_on_c, 0, 55, 68
1, 59040, Note_on_c, 0, 61, 80
1, 59040, Note_on_c, 0, 58, 68
1, 59040, Note_on_c, 0, 52, 68
1, 59040, Note_on_c, 0, 34, 57
1, 59040, Note_on_c, 0, 46, 68
1, 59280, Control_c, 0, 64, 127
1, 59971, Note_on_c, 0, 46, 0
1, 59971, Note_on_c, 0, 52, 0
1, 59971, Note_on_c, 0, 61, 0
1, 59971, Note_on_c, 0, 55, 0
1, 59971, Note_on_c, 0, 34, 0
1, 60000, Tempo, 387097
1, 60000, Note_on_c, 0, 58, 0
1, 60000, Note_on_c, 0, 52, 68
1, 60000, Note_on_c, 0, 55, 68
1, 60000, Note_on_c, 0, 61, 80
1, 60000, Note_on_c, 0, 58, 68
1, 60000, Note_on_c, 0, 34, 57
1, 60000, Note_on_c, 0, 46, 68
1, 60815, Note_on_c, 0, 46, 0
1, 60815, Note_on_c, 0, 55, 0
1, 60815, Note_on_c, 0, 61, 0
1, 60815, Note_on_c, 0, 52, 0
1, 60815, Note_on_c, 0, 34, 0
1, 60815, Note_on_c, 0, 58, 0
1, 60840, Tempo, 387097
1, 60840, Note_on_c, 0, 69, 70
1, 60840, Note_on_c, 0, 57, 60
1, 60855, Control_c, 0, 64, 0
1, 60900, Note_on_c, 0, 57, 0
1, 60900, Note_on_c, 0, 69, 0
1, 60960, Tempo, 373832
1, 60960, Note_on_c, 0, 69, 76
1, 60960, Note_on_c, 0, 57, 64
1, 61020, Control_c, 0, 64, 127
1, 61080, Note_on_c, 0, 57, 0
1, 61080, Note_on_c, 0, 69, 0
1, 61179, Control_c, 0, 64, 0
1, 61320, Note_on_c, 0, 69, 70
1, 61320, Note_on_c, 0, 57, 59
1, 61380, Note_on_c, 0, 57, 0
1, 61380, Note_on_c, 0, 69, 0
1, 61440, Tempo, 365854
1, 61440, Note_on_c, 0, 67, 75
1, 61440, Note_on_c, 0, 55, 64
1, 61494, Control_c, 0, 64, 127
1, 61560, Note_on_c, 0, 55, 0
1, 61560, Note_on_c, 0, 67, 0
1, 61641, Control_c, 0, 64, 0
1, 61680, Tempo, 412371
1, 61800, Note_on_c, 0, 69, 70
1, 61800, Note_on_c, 0, 57, 60
1, 61860, Note_on_c, 0, 57, 0
1, 61860, Note_on_c, 0, 69, 0
1, 61920, Tempo, 392157
1, 61920, Note_on_c, 0, 70, 68
1, 61920, Note_on_c, 0, 62, 68
1, 61920, Note_on_c, 0, 74, 80
1, 61920, Note_on_c, 0, 65, 68
1, 61920, Note_on_c, 0, 53, 57
1, 61920, Note_on_c, 0, 46, 57
1, 61920, Note_on_c, 0, 58, 68
1, 62160, Control_c, 0, 64, 127
1, 62851, Note_on_c, 0, 58, 0
1, 62851, Note_on_c, 0, 65, 0
1, 62851, Note_on_c, 0, 62, 0
1, 62851, Note_on_c, 0, 74, 0
1, 62851, Note_on_c, 0, 46, 0
1, 62880, Tempo, 387097
1, 62880, Note_on_c, 0, 70, 0
1, 62880, Note_on_c, 0, 53, 0
1, 62880, Note_on_c, 0, 70, 68
1, 62880, Note_on_c, 0, 62, 68
1, 62880, Note_on_c, 0, 74, 80
1, 62880, Note_on_c, 0, 65, 68
1, 62880, Note_on_c, 0, 53, 57
1, 62880, Note_on_c, 0, 46, 57
1, 62880, Note_on_c, 0, 58, 68
1, 63695, Note_on_c, 0, 58, 0
1, 63695, Note_on_c, 0, 53, 0
1, 63695, Note_on_c, 0, 62, 0
1, 63695, Note_on_c, 0, 74, 0
1, 63695, Note_on_c, 0, 70, 0
1, 63695, Note_on_c, 0, 46, 0
1, 63695, Note_on_c, 0, 65, 0
1, 63720, Tempo, 387097
1, 63720, Note_on_c, 0, 74, 59
1, 63720, Note_on_c, 0, 77, 70
1, 63720, Note_on_c, 0, 62, 51
1, 63720, Note_on_c, 0, 65, 60
1, 63735, Control_c, 0, 64, 0
1, 63780, Note_on_c, 0, 65, 0
1, 63780, Note_on_c, 0, 74, 0
1, 63780, Note_on_c, 0, 77, 0
1, 63780, Note_on_c, 0, 62, 0
1, 63840, Tempo, 377358
1, 63840, Note_on_c, 0, 77, 76
1, 63840, Note_on_c, 0, 74, 64
1, 63840, Note_on_c, 0, 62, 54
1, 63840, Note_on_c, 0, 65, 64
1, 63900, Control_c, 0, 64, 127
1, 63960, Note_on_c, 0, 65, 0
1, 63960, Note_on_c, 0, 77, 0
1, 63960, Note_on_c, 0, 74, 0
1, 63960, Note_on_c, 0, 62, 0
1, 64026, Control_c, 0, 64, 0
1, 64200, Note_on_c, 0, 74, 59
1, 64200, Note_on_c, 0, 77, 70
1, 64200, Note_on_c, 0, 62, 50
1, 64200, Note_on_c, 0, 65, 59
1, 64260, Note_on_c, 0, 65, 0
1, 64260, Note_on_c, 0, 74, 0
1, 64260, Note_on_c, 0, 77, 0
1, 64260, Note_on_c, 0, 62, 0
1, 64320, Tempo, 368098
1, 64320, Note_on_c, 0, 73, 63
1, 64320, Note_on_c, 0, 76, 75
1, 64320, Note_on_c, 0, 61, 54
1, 64320, Note_on_c, 0, 64, 64
1, 64374, Control_c, 0, 64, 127
1, 64440, Note_on_c, 0, 64, 0
1, 64440, Note_on_c, 0, 73, 0
1, 64440, Note_on_c, 0, 76, 0
1, 64440, Note_on_c, 0, 61, 0
1, 64515, Control_c, 0, 64, 0
1, 64560, Tempo, 397351
1, 64680, Note_on_c, 0, 77, 70
1, 64680, Note_on_c, 0, 74, 59
1, 64680, Note_on_c, 0, 62, 51
1, 64680, Note_on_c, 0, 65, 60
1, 64740, Note_on_c, 0, 65, 0
1, 64740, Note_on_c, 0, 77, 0
1, 64740, Note_on_c, 0, 74, 0
1, 64740, Note_on_c, 0, 62, 0
1, 64800, Tempo, 376176
1, 64800, Note_on_c, 0, 70, 64
1, 64800, Note_on_c, 0, 74, 76
1, 64800, Note_on_c, 0, 58, 54
1, 64800, Note_on_c, 0, 62, 64
1, 64860, Control_c, 0, 64, 127
1, 64920, Note_on_c, 0, 62, 0
1, 64920, Note_on_c, 0, 70, 0
1, 64920, Note_on_c, 0, 74, 0
1, 64920, Note_on_c, 0, 58, 0
1, 64986, Control_c, 0, 64, 0
1, 65160, Note_on_c, 0, 74, 70
1, 65160, Note_on_c, 0, 70, 59
1, 65160, Note_on_c, 0, 58, 50
1, 65160, Note_on_c, 0, 62, 59
1, 65220, Note_on_c, 0, 62, 0
1, 65220, Note_on_c, 0, 74, 0
1, 65220, Note_on_c, 0, 70, 0
1, 65220, Note_on_c, 0, 58, 0
1, 65280, Tempo, 368098
1, 65280, Note_on_c, 0, 69, 63
1, 65280, Note_on_c, 0, 73, 75
1, 65280, Note_on_c, 0, 57, 54
1, 65280, Note_on_c, 0, 61, 64
1, 65323, Control_c, 0, 64, 127
1, 65400, Note_on_c, 0, 61, 0
1, 65400, Note_on_c, 0, 69, 0
1, 65400, Note_on_c, 0, 73, 0
1, 65400, Note_on_c, 0, 57, 0
1, 65449, Control_c, 0, 64, 0
1, 65520, Tempo, 397351
1, 65640, Note_on_c, 0, 74, 70
1, 65640, Note_on_c, 0, 70, 59
1, 65640, Note_on_c, 0, 58, 51
1, 65640, Note_on_c, 0, 62, 60
1, 65700, Note_on_c, 0, 62, 0
1, 65700, Note_on_c, 0, 74, 0
1, 65700, Note_on_c, 0, 70, 0
1, 65700, Note_on_c, 0, 58, 0
1, 65751, Tempo, 387097
1, 65760, Tempo, 378549
1, 65760, Note_on_c, 0, 70, 76
1, 65760, Note_on_c, 0, 67, 64
1, 65760, Note_on_c, 0, 55, 54
1, 65760, Note_on_c, 0, 58, 64
1, 65811, Control_c, 0, 64, 127
1, 65880, Note_on_c, 0, 58, 0
1, 65880, Note_on_c, 0, 70, 0
1, 65880, Note_on_c, 0, 67, 0
1, 65880, Note_on_c, 0, 55, 0
1, 65937, Control_c, 0, 64, 0
1, 66120, Note_on_c, 0, 67, 59
1, 66120, Note_on_c, 0, 70, 70
1, 66120, Note_on_c, 0, 58, 59
1, 66120, Note_on_c, 0, 55, 50
1, 66180, Note_on_c, 0, 55, 0
1, 66180, Note_on_c, 0, 67, 0
1, 66180, Note_on_c, 0, 70, 0
1, 66180, Note_on_c, 0, 58, 0
1, 66240, Tempo, 369231
1, 66240, Note_on_c, 0, 69, 75
1, 66240, Note_on_c, 0, 66, 63
1, 66240, Note_on_c, 0, 57, 64
1, 66240, Note_on_c, 0, 54, 54
1, 66285, Control_c, 0, 64, 127
1, 66360, Note_on_c, 0, 54, 0
1, 66360, Note_on_c, 0, 69, 0
1, 66360, Note_on_c, 0, 66, 0
1, 66360, Note_on_c, 0, 57, 0
1, 66448, Control_c, 0, 64, 0
1, 66471, Tempo, 412371
1, 66480, Tempo, 402685
1, 66600, Note_on_c, 0, 67, 59
1, 66600, Note_on_c, 0, 70, 70
1, 66600, Note_on_c, 0, 58, 60
1, 66600, Note_on_c, 0, 55, 51
1, 66660, Note_on_c, 0, 55, 0
1, 66660, Note_on_c, 0, 67, 0
1, 66660, Note_on_c, 0, 70, 0
1, 66660, Note_on_c, 0, 58, 0
1, 66720, Tempo, 392157
1, 66720, Note_on_c, 0, 63, 68
1, 66720, Note_on_c, 0, 67, 80
1, 66720, Note_on_c, 0, 51, 57
1, 66720, Note_on_c, 0, 55, 68
1, 66960, Control_c, 0, 64, 127
1, 67651, Note_on_c, 0, 55, 0
1, 67651, Note_on_c, 0, 67, 0
1, 67680, Tempo, 401338
1, 67680, Note_on_c, 0, 51, 0
1, 67680, Note_on_c, 0, 63, 0
1, 67680, Note_on_c, 0, 75, 74
1, 67680, Note_on_c, 0, 67, 74
1, 67680, Note_on_c, 0, 79, 88
1, 67680, Note_on_c, 0, 71, 74
1, 67680, Note_on_c, 0, 38, 57
1, 67680, Note_on_c, 0, 50, 68
1, 67696, Control_c, 0, 64, 0
1, 67864, Control_c, 0, 64, 127
1, 68630, Note_on_c, 0, 50, 0
1, 68630, Note_on_c, 0, 67, 0
1, 68630, Note_on_c, 0, 79, 0
1, 68630, Note_on_c, 0, 75, 0
1, 68630, Note_on_c, 0, 38, 0
1, 68630, Note_on_c, 0, 71, 0
1, 68640, Tempo, 402685
1, 68640, Note_on_c, 0, 75, 74
1, 68640, Note_on_c, 0, 67, 74
1, 68640, Note_on_c, 0, 79, 88
1, 68640, Note_on_c, 0, 72, 74
1, 68640, Note_on_c, 0, 36, 57
1, 68640, Note_on_c, 0, 48, 68
1, 68656, Control_c, 0, 64, 0
1, 68824, Control_c, 0, 64, 127
1, 69590, Note_on_c, 0, 48, 0
1, 69590, Note_on_c, 0, 67, 0
1, 69590, Note_on_c, 0, 79, 0
1, 69590, Note_on_c, 0, 75, 0
1, 69590, Note_on_c, 0, 36, 0
1, 69590, Note_on_c, 0, 72, 0
1, 69600, Tempo, 412371
1, 69600, Note_on_c, 0, 65, 74
1, 69600, Note_on_c, 0, 77, 88
1, 69600, Note_on_c, 0, 74, 74
1, 69600, Note_on_c, 0, 41, 57
1, 69600, Note_on_c, 0, 53, 68
1, 69613, Control_c, 0, 64, 0
1, 69720, Note_on_c, 0, 53, 0
1, 69720, Note_on_c, 0, 74, 0
1, 69720, Note_on_c, 0, 65, 0
1, 69720, Note_on_c, 0, 77, 0
1, 69720, Note_on_c, 0, 41, 0
1, 70080, Tempo, 436364
1, 70080, Note_on_c, 0, 69, 74
1, 70080, Note_on_c, 0, 72, 74
1, 70080, Note_on_c, 0, 81, 88
1, 70080, Note_on_c, 0, 75, 74
1, 70080, Note_on_c, 0, 41, 57
1, 70080, Note_on_c, 0, 53, 68
1, 70200, Note_on_c, 0, 53, 0
1, 70200, Note_on_c, 0, 72, 0
1, 70200, Note_on_c, 0, 81, 0
1, 70200, Note_on_c, 0, 69, 0
1, 70200, Note_on_c, 0, 41, 0
1, 70200, Note_on_c, 0, 75, 0
1, 70560, Tempo, 424028
1, 70560, Note_on_c, 0, 74, 85
1, 70560, Note_on_c, 0, 70, 85
1, 70560, Note_on_c, 0, 82, 101
1, 70560, Note_on_c, 0, 34, 57
1, 70560, Note_on_c, 0, 46, 68
1, 70744, Control_c, 0, 64, 127
1, 71510, Note_on_c, 0, 46, 0
1, 71510, Note_on_c, 0, 82, 0
1, 71510, Note_on_c, 0, 74, 0
1, 71510, Note_on_c, 0, 70, 0
1, 71510, Note_on_c, 0, 34, 0
1, 71520, Tempo, 463320
1, 71520, Note_on_c, 0, 58, 74
1, 71520, Note_on_c, 0, 62, 74
1, 71520, Note_on_c, 0, 70, 88
1, 71520, Note_on_c, 0, 46, 57
1, 71520, Note_on_c, 0, 53, 68
1, 71536, Control_c, 0, 64, 0
1, 71704, Control_c, 0, 64, 127
1, 72335, Note_on_c, 0, 53, 0
1, 72335, Note_on_c, 0, 70, 0
1, 72335, Note_on_c, 0, 58, 0
1, 72335, Note_on_c, 0, 62, 0
1, 72335, Note_on_c, 0, 46, 0
1, 72360, Tempo, 387097
1, 72360, Note_on_c, 0, 74, 47
1, 72360, Note_on_c, 0, 77, 56
1, 72375, Control_c, 0, 64, 0
1, 72412, Control_c, 0, 64, 127
1, 72420, Note_on_c, 0, 77, 0
1, 72420, Note_on_c, 0, 74, 0
1, 72480, Tempo, 377358
1, 72480, Note_on_c, 0, 74, 51
1, 72480, Note_on_c, 0, 77, 60
1, 72600, Note_on_c, 0, 77, 0
1, 72600, Note_on_c, 0, 74, 0
1, 72840, Note_on_c, 0, 74, 47
1, 72840, Note_on_c, 0, 77, 56
1, 72900, Note_on_c, 0, 77, 0
1, 72900, Note_on_c, 0, 74, 0
1, 72960, Tempo, 368098
1, 72960, Note_on_c, 0, 73, 50
1, 72960, Note_on_c, 0, 76, 60
1, 72977, Control_c, 0, 64, 0
1, 73029, Control_c, 0, 64, 127
1, 73080, Note_on_c, 0, 76, 0
1, 73080, Note_on_c, 0, 73, 0
1, 73200, Tempo, 442804
1, 73320, Note_on_c, 0, 74, 47
1, 73320, Note_on_c, 0, 77, 56
1, 73380, Note_on_c, 0, 77, 0
1, 73380, Note_on_c, 0, 74, 0
1, 73440, Tempo, 404040
1, 73440, Note_on_c, 0, 70, 51
1, 73440, Note_on_c, 0, 74, 60
1, 73440, Note_on_c, 0, 46, 55
1, 73440, Control_c, 0, 64, 0
1, 73646, Control_c, 0, 64, 127
1, 73680, Note_on_c, 0, 46, 0
1, 73920, Tempo, 465116
1, 73920, Note_on_c, 0, 53, 42
1, 74160, Note_on_c, 0, 53, 0
1, 74400, Tempo, 419580
1, 74400, Note_on_c, 0, 74, 0
1, 74400, Note_on_c, 0, 70, 0
1, 74400, Note_on_c, 0, 70, 51
1, 74400, Note_on_c, 0, 74, 60
1, 74400, Note_on_c, 0, 62, 42
1, 74400, Note_on_c, 0, 58, 35
1, 74640, Note_on_c, 0, 58, 0
1, 74640, Note_on_c, 0, 62, 0
1, 74880, Note_on_c, 0, 46, 55
1, 75120, Note_on_c, 0, 46, 0
1, 75215, Note_on_c, 0, 74, 0
1, 75215, Note_on_c, 0, 70, 0
1, 75240, Tempo, 387097
1, 75240, Note_on_c, 0, 70, 47
1, 75240, Note_on_c, 0, 74, 56
1, 75300, Note_on_c, 0, 74, 0
1, 75300, Note_on_c, 0, 70, 0
1, 75360, Tempo, 377358
1, 75360, Note_on_c, 0, 70, 51
1, 75360, Note_on_c, 0, 74, 60
1, 75360, Note_on_c, 0, 53, 42
1, 75480, Note_on_c, 0, 74, 0
1, 75480, Note_on_c, 0, 70, 0
1, 75600, Note_on_c, 0, 53, 0
1, 75720, Note_on_c, 0, 70, 47
1, 75720, Note_on_c, 0, 74, 56
1, 75780, Note_on_c, 0, 74, 0
1, 75780, Note_on_c, 0, 70, 0
1, 75840, Tempo, 368098
1, 75840, Note_on_c, 0, 69, 50
1, 75840, Note_on_c, 0, 73, 60
1, 75840, Note_on_c, 0, 58, 35
1, 75840, Note_on_c, 0, 62, 42
1, 75960, Note_on_c, 0, 73, 0
1, 75960, Note_on_c, 0, 69, 0
1, 76080, Tempo, 442804
1, 76080, Note_on_c, 0, 58, 0
1, 76080, Note_on_c, 0, 62, 0
1, 76200, Note_on_c, 0, 70, 47
1, 76200, Note_on_c, 0, 74, 56
1, 76260, Note_on_c, 0, 74, 0
1, 76260, Note_on_c, 0, 70, 0
1, 76320, Tempo, 404040
1, 76320, Note_on_c, 0, 74, 51
1, 76320, Note_on_c, 0, 77, 60
1, 76320, Note_on_c, 0, 45, 55
1, 76320, Control_c, 0, 64, 0
1, 76526, Control_c, 0, 64, 127
1, 76560, Note_on_c, 0, 45, 0
1, 76800, Tempo, 465116
1, 76800, Note_on_c, 0, 53, 42
1, 77040, Note_on_c, 0, 53, 0
1, 77280, Tempo, 419580
1, 77280, Note_on_c, 0, 77, 0
1, 77280, Note_on_c, 0, 74, 0
1, 77280, Note_on_c, 0, 72, 51
1, 77280, Note_on_c, 0, 75, 60
1, 77280, Note_on_c, 0, 63, 42
1, 77280, Note_on_c, 0, 60, 35
1, 77520, Note_on_c, 0, 60, 0
1, 77520, Note_on_c, 0, 63, 0
1, 77760, Note_on_c, 0, 45, 55
1, 78000, Note_on_c, 0, 45, 0
1, 78095, Note_on_c, 0, 75, 0
1, 78095, Note_on_c, 0, 72, 0
1, 78120, Tempo, 387097
1, 78120, Note_on_c, 0, 77, 47
1, 78120, Note_on_c, 0, 72, 47
1, 78120, Note_on_c, 0, 75, 56
1, 78180, Note_on_c, 0, 75, 0
1, 78180, Note_on_c, 0, 72, 0
1, 78180, Note_on_c, 0, 77, 0
1, 78240, Tempo, 377358
1, 78240, Note_on_c, 0, 77, 51
1, 78240, Note_on_c, 0, 72, 51
1, 78240, Note_on_c, 0, 75, 60
1, 78240, Note_on_c, 0, 53, 42
1, 78240, Control_c, 0, 64, 0
1, 78294, Control_c, 0, 64, 127
1, 78360, Note_on_c, 0, 75, 0
1, 78360, Note_on_c, 0, 77, 0
1, 78360, Note_on_c, 0, 72, 0
1, 78480, Note_on_c, 0, 53, 0
1, 78600, Note_on_c, 0, 77, 47
1, 78600, Note_on_c, 0, 72, 47
1, 78600, Note_on_c, 0, 75, 56
1, 78660, Note_on_c, 0, 75, 0
1, 78660, Note_on_c, 0, 72, 0
1, 78660, Note_on_c, 0, 77, 0
1, 78720, Tempo, 368098
1, 78720, Note_on_c, 0, 77, 50
1, 78720, Note_on_c, 0, 71, 50
1, 78720, Note_on_c, 0, 74, 60
1, 78720, Note_on_c, 0, 60, 35
1, 78720, Note_on_c, 0, 63, 42
1, 78840, Note_on_c, 0, 74, 0
1, 78840, Note_on_c, 0, 77, 0
1, 78840, Note_on_c, 0, 71, 0
1, 78960, Tempo, 442804
1, 78960, Note_on_c, 0, 60, 0
1, 78960, Note_on_c, 0, 63, 0
1, 79080, Note_on_c, 0, 77, 56
1, 79080, Note_on_c, 0, 72, 47
1, 79080, Note_on_c, 0, 75, 56
1, 79140, Note_on_c, 0, 75, 0
1, 79140, Note_on_c, 0, 72, 0
1, 79140, Note_on_c, 0, 77, 0
1, 79200, Tempo, 404040
1, 79200, Note_on_c, 0, 69, 51
1, 79200, Note_on_c, 0, 72, 51
1, 79200, Note_on_c, 0, 77, 60
1, 79200, Note_on_c, 0, 41, 55
1, 79213, Control_c, 0, 64, 0
1, 79406, Control_c, 0, 64, 127
1, 79440, Note_on_c, 0, 41, 0
1, 79680, Tempo, 439560
1, 79680, Note_on_c, 0, 53, 42
1, 79920, Note_on_c, 0, 53, 0
1, 80151, Note_on_c, 0, 77, 0
1, 80151, Note_on_c, 0, 72, 0
1, 80151, Note_on_c, 0, 69, 0
1, 80160, Tempo, 419580
1, 80160, Note_on_c, 0, 69, 51
1, 80160, Note_on_c, 0, 72, 51
1, 80160, Note_on_c, 0, 77, 60
1, 80160, Note_on_c, 0, 63, 42
1, 80160, Note_on_c, 0, 60, 35
1, 80400, Note_on_c, 0, 60, 0
1, 80400, Note_on_c, 0, 63, 0
1, 80640, Note_on_c, 0, 41, 55
1, 80880, Note_on_c, 0, 41, 0
1, 80975, Note_on_c, 0, 77, 0
1, 80975, Note_on_c, 0, 72, 0
1, 80975, Note_on_c, 0, 69, 0
1, 81000, Tempo, 387097
1, 81000, Note_on_c, 0, 77, 47
1, 81000, Note_on_c, 0, 69, 47
1, 81000, Note_on_c, 0, 72, 56
1, 81060, Note_on_c, 0, 72, 0
1, 81060, Note_on_c, 0, 69, 0
1, 81060, Note_on_c, 0, 77, 0
1, 81120, Tempo, 377358
1, 81120, Note_on_c, 0, 77, 51
1, 81120, Note_on_c, 0, 69, 51
1, 81120, Note_on_c, 0, 72, 60
1, 81120, Note_on_c, 0, 53, 42
1, 81240, Note_on_c, 0, 72, 0
1, 81240, Note_on_c, 0, 77, 0
1, 81240, Note_on_c, 0, 69, 0
1, 81360, Note_on_c, 0, 53, 0
1, 81480, Note_on_c, 0, 69, 47
1, 81480, Note_on_c, 0, 72, 56
1, 81480, Note_on_c, 0, 77, 47
1, 81540, Note_on_c, 0, 77, 0
1, 81540, Note_on_c, 0, 72, 0
1, 81540, Note_on_c, 0, 69, 0
1, 81600, Tempo, 368098
1, 81600, Note_on_c, 0, 68, 50
1, 81600, Note_on_c, 0, 71, 60
1, 81600, Note_on_c, 0, 77, 50
1, 81600, Note_on_c, 0, 60, 35
1, 81600, Note_on_c, 0, 63, 42
1, 81720, Note_on_c, 0, 77, 0
1, 81720, Note_on_c, 0, 68, 0
1, 81720, Note_on_c, 0, 71, 0
1, 81840, Tempo, 510638
1, 81840, Note_on_c, 0, 60, 0
1, 81840, Note_on_c, 0, 63, 0
1, 81960, Note_on_c, 0, 69, 47
1, 81960, Note_on_c, 0, 72, 56
1, 81960, Note_on_c, 0, 77, 56
1, 82020, Note_on_c, 0, 77, 0
1, 82020, Note_on_c, 0, 72, 0
1, 82020, Note_on_c, 0, 69, 0
1, 82080, Tempo, 449438
1, 82080, Note_on_c, 0, 73, 45
1, 82080, Note_on_c, 0, 77, 54
1, 82080, Note_on_c, 0, 69, 45
1, 82080, Note_on_c, 0, 46, 49
1, 82093, Control_c, 0, 64, 0
1, 82286, Control_c, 0, 64, 127
1, 82320, Note_on_c, 0, 46, 0
1, 82560, Tempo, 465116
1, 82560, Note_on_c, 0, 53, 37
1, 82800, Note_on_c, 0, 53, 0
1, 83030, Note_on_c, 0, 73, 0
1, 83031, Note_on_c, 0, 69, 0
1, 83031, Note_on_c, 0, 77, 0
1, 83040, Tempo, 419580
1, 83040, Note_on_c, 0, 70, 45
1, 83040, Note_on_c, 0, 77, 54
1, 83040, Note_on_c, 0, 74, 45
1, 83040, Note_on_c, 0, 62, 37
1, 83040, Note_on_c, 0, 58, 31
1, 83051, Control_c, 0, 64, 0
1, 83223, Control_c, 0, 64, 127
1, 83280, Note_on_c, 0, 58, 0
1, 83280, Note_on_c, 0, 62, 0
1, 83520, Note_on_c, 0, 46, 55
1, 83760, Note_on_c, 0, 46, 0
1, 83855, Note_on_c, 0, 74, 0
1, 83855, Note_on_c, 0, 77, 0
1, 83855, Note_on_c, 0, 70, 0
1, 83880, Tempo, 387097
1, 83880, Note_on_c, 0, 70, 47
1, 83880, Note_on_c, 0, 77, 56
1, 83880, Note_on_c, 0, 74, 47
1, 83895, Control_c, 0, 64, 0
1, 83932, Control_c, 0, 64, 127
1, 83940, Note_on_c, 0, 74, 0
1, 83940, Note_on_c, 0, 77, 0
1, 83940, Note_on_c, 0, 70, 0
1, 84000, Tempo, 377358
1, 84000, Note_on_c, 0, 70, 51
1, 84000, Note_on_c, 0, 74, 51
1, 84000, Note_on_c, 0, 77, 60
1, 84000, Note_on_c, 0, 53, 37
1, 84120, Note_on_c, 0, 77, 0
1, 84120, Note_on_c, 0, 70, 0
1, 84120, Note_on_c, 0, 74, 0
1, 84240, Note_on_c, 0, 53, 0
1, 84360, Note_on_c, 0, 70, 48
1, 84360, Note_on_c, 0, 74, 48
1, 84360, Note_on_c, 0, 77, 57
1, 84420, Note_on_c, 0, 77, 0
1, 84420, Note_on_c, 0, 74, 0
1, 84420, Note_on_c, 0, 70, 0
1, 84480, Tempo, 368098
1, 84480, Note_on_c, 0, 74, 52
1, 84480, Note_on_c, 0, 76, 63
1, 84480, Note_on_c, 0, 70, 52
1, 84480, Note_on_c, 0, 62, 38
1, 84480, Note_on_c, 0, 58, 32
1, 84497, Control_c, 0, 64, 0
1, 84549, Control_c, 0, 64, 127
1, 84600, Note_on_c, 0, 70, 0
1, 84600, Note_on_c, 0, 74, 0
1, 84600, Note_on_c, 0, 76, 0
1, 84720, Tempo, 442804
1, 84720, Note_on_c, 0, 62, 0
1, 84720, Note_on_c, 0, 58, 0
1, 84840, Note_on_c, 0, 74, 50
1, 84840, Note_on_c, 0, 77, 60
1, 84840, Note_on_c, 0, 70, 50
1, 84900, Note_on_c, 0, 70, 0
1, 84900, Note_on_c, 0, 77, 0
1, 84900, Note_on_c, 0, 74, 0
1, 84960, Tempo, 404040
1, 84960, Note_on_c, 0, 70, 56
1, 84960, Note_on_c, 0, 79, 66
1, 84960, Note_on_c, 0, 74, 56
1, 84960, Note_on_c, 0, 43, 60
1, 84960, Control_c, 0, 64, 0
1, 85166, Control_c, 0, 64, 127
1, 85200, Note_on_c, 0, 43, 0
1, 85440, Tempo, 465116
1, 85440, Note_on_c, 0, 55, 46
1, 85680, Note_on_c, 0, 55, 0
1, 85911, Note_on_c, 0, 74, 0
1, 85911, Note_on_c, 0, 79, 0
1, 85911, Note_on_c, 0, 70, 0
1, 85920, Tempo, 419580
1, 85920, Note_on_c, 0, 74, 56
1, 85920, Note_on_c, 0, 70, 56
1, 85920, Note_on_c, 0, 79, 66
1, 85920, Note_on_c, 0, 62, 46
1, 85920, Note_on_c, 0, 58, 38
1, 86160, Note_on_c, 0, 58, 0
1, 86160, Note_on_c, 0, 62, 0
1, 86400, Tempo, 410959
1, 86400, Note_on_c, 0, 43, 55
1, 86640, Note_on_c, 0, 43, 0
1, 86735, Note_on_c, 0, 79, 0
1, 86735, Note_on_c, 0, 70, 0
1, 86735, Note_on_c, 0, 74, 0
1, 86760, Tempo, 387097
1, 86760, Note_on_c, 0, 74, 51
1, 86760, Note_on_c, 0, 70, 51
1, 86760, Note_on_c, 0, 79, 61
1, 86820, Note_on_c, 0, 79, 0
1, 86820, Note_on_c, 0, 70, 0
1, 86820, Note_on_c, 0, 74, 0
1, 86880, Tempo, 377358
1, 86880, Note_on_c, 0, 70, 56
1, 86880, Note_on_c, 0, 79, 66
1, 86880, Note_on_c, 0, 74, 56
1, 86880, Note_on_c, 0, 55, 46
1, 87000, Note_on_c, 0, 74, 0
1, 87000, Note_on_c, 0, 70, 0
1, 87000, Note_on_c, 0, 79, 0
1, 87120, Note_on_c, 0, 55, 0
1, 87240, Note_on_c, 0, 70, 50
1, 87240, Note_on_c, 0, 82, 60
1, 87240, Note_on_c, 0, 74, 50
1, 87300, Note_on_c, 0, 74, 0
1, 87300, Note_on_c, 0, 82, 0
1, 87300, Note_on_c, 0, 70, 0
1, 87360, Tempo, 368098
1, 87360, Note_on_c, 0, 70, 54
1, 87360, Note_on_c, 0, 81, 64
1, 87360, Note_on_c, 0, 74, 54
1, 87360, Note_on_c, 0, 58, 37
1, 87360, Note_on_c, 0, 62, 45
1, 87480, Note_on_c, 0, 74, 0
1, 87480, Note_on_c, 0, 70, 0
1, 87480, Note_on_c, 0, 81, 0
1, 87600, Tempo, 442804
1, 87600, Note_on_c, 0, 58, 0
1, 87600, Note_on_c, 0, 62, 0
1, 87720, Note_on_c, 0, 74, 49
1, 87720, Note_on_c, 0, 79, 59
1, 87720, Note_on_c, 0, 70, 49
1, 87780, Note_on_c, 0, 70, 0
1, 87780, Note_on_c, 0, 79, 0
1, 87780, Note_on_c, 0, 74, 0
1, 87840, Tempo, 404040
1, 87840, Note_on_c, 0, 70, 51
1, 87840, Note_on_c, 0, 77, 60
1, 87840, Note_on_c, 0, 74, 51
1, 87840, Note_on_c, 0, 46, 55
1, 87840, Control_c, 0, 64, 0
1, 88046, Control_c, 0, 64, 127
1, 88080, Note_on_c, 0, 46, 0
1, 88320, Tempo, 465116
1, 88320, Note_on_c, 0, 53, 42
1, 88560, Note_on_c, 0, 53, 0
1, 88791, Note_on_c, 0, 74, 0
1, 88791, Note_on_c, 0, 77, 0
1, 88791, Note_on_c, 0, 70, 0
1, 88800, Tempo, 419580
1, 88800, Note_on_c, 0, 70, 60
1, 88800, Note_on_c, 0, 74, 51
1, 88800, Note_on_c, 0, 77, 60
1, 88800, Note_on_c, 0, 62, 42
1, 88800, Note_on_c, 0, 58, 35
1, 89040, Note_on_c, 0, 58, 0
1, 89040, Note_on_c, 0, 62, 0
1, 89280, Note_on_c, 0, 46, 55
1, 89520, Note_on_c, 0, 46, 0
1, 89615, Note_on_c, 0, 77, 0
1, 89615, Note_on_c, 0, 74, 0
1, 89615, Note_on_c, 0, 70, 0
1, 89640, Tempo, 387097
1, 89640, Note_on_c, 0, 77, 47
1, 89640, Note_on_c, 0, 70, 47
1, 89640, Note_on_c, 0, 74, 56
1, 89700, Note_on_c, 0, 74, 0
1, 89700, Note_on_c, 0, 70, 0
1, 89700, Note_on_c, 0, 77, 0
1, 89760, Tempo, 377358
1, 89760, Note_on_c, 0, 77, 51
1, 89760, Note_on_c, 0, 70, 51
1, 89760, Note_on_c, 0, 74, 60
1, 89760, Note_on_c, 0, 53, 42
1, 89760, Control_c, 0, 64, 0
1, 89814, Control_c, 0, 64, 127
1, 89880, Note_on_c, 0, 74, 0
1, 89880, Note_on_c, 0, 77, 0
1, 89880, Note_on_c, 0, 70, 0
1, 90000, Note_on_c, 0, 53, 0
1, 90120, Note_on_c, 0, 70, 47
1, 90120, Note_on_c, 0, 74, 56
1, 90120, Note_on_c, 0, 77, 47
1, 90180, Note_on_c, 0, 77, 0
1, 90180, Note_on_c, 0, 74, 0
1, 90180, Note_on_c, 0, 70, 0
1, 90240, Tempo, 368098
1, 90240, Note_on_c, 0, 70, 50
1, 90240, Note_on_c, 0, 75, 60
1, 90240, Note_on_c, 0, 79, 50
1, 90240, Note_on_c, 0, 62, 42
1, 90240, Note_on_c, 0, 58, 35
1, 90360, Note_on_c, 0, 79, 0
1, 90360, Note_on_c, 0, 70, 0
1, 90360, Note_on_c, 0, 75, 0
1, 90480, Tempo, 442804
1, 90480, Note_on_c, 0, 62, 0
1, 90480, Note_on_c, 0, 58, 0
1, 90600, Note_on_c, 0, 74, 56
1, 90600, Note_on_c, 0, 77, 56
1, 90600, Note_on_c, 0, 70, 47
1, 90660, Note_on_c, 0, 70, 0
1, 90660, Note_on_c, 0, 77, 0
1, 90660, Note_on_c, 0, 74, 0
1, 90720, Tempo, 404040
1, 90720, Note_on_c, 0, 69, 51
1, 90720, Note_on_c, 0, 77, 60
1, 90720, Note_on_c, 0, 72, 51
1, 90720, Note_on_c, 0, 41, 55
1, 90733, Control_c, 0, 64, 0
1, 90926, Control_c, 0, 64, 127
1, 90960, Note_on_c, 0, 41, 0
1, 91200, Tempo, 465116
1, 91200, Note_on_c, 0, 53, 42
1, 91440, Note_on_c, 0, 53, 0
1, 91680, Tempo, 419580
1, 91680, Note_on_c, 0, 72, 0
1, 91680, Note_on_c, 0, 77, 0
1, 91680, Note_on_c, 0, 69, 0
1, 91680, Note_on_c, 0, 69, 48
1, 91680, Note_on_c, 0, 75, 57
1, 91680, Note_on_c, 0, 72, 48
1, 91680, Note_on_c, 0, 60, 33
1, 91680, Note_on_c, 0, 63, 39
1, 91920, Note_on_c, 0, 63, 0
1, 91920, Note_on_c, 0, 60, 0
1, 92160, Note_on_c, 0, 41, 52
1, 92400, Note_on_c, 0, 41, 0
1, 92495, Note_on_c, 0, 72, 0
1, 92495, Note_on_c, 0, 75, 0
1, 92495, Note_on_c, 0, 69, 0
1, 92520, Tempo, 397351
1, 92520, Note_on_c, 0, 65, 44
1, 92520, Note_on_c, 0, 75, 44
1, 92520, Note_on_c, 0, 72, 53
1, 92580, Note_on_c, 0, 72, 0
1, 92580, Note_on_c, 0, 75, 0
1, 92580, Note_on_c, 0, 65, 0
1, 92640, Tempo, 385852
1, 92640, Note_on_c, 0, 75, 48
1, 92640, Note_on_c, 0, 65, 48
1, 92640, Note_on_c, 0, 72, 57
1, 92640, Note_on_c, 0, 53, 39
1, 92760, Note_on_c, 0, 72, 0
1, 92760, Note_on_c, 0, 75, 0
1, 92760, Note_on_c, 0, 65, 0
1, 92880, Note_on_c, 0, 53, 0
1, 93000, Note_on_c, 0, 72, 53
1, 93000, Note_on_c, 0, 65, 44
1, 93000, Note_on_c, 0, 75, 44
1, 93060, Note_on_c, 0, 75, 0
1, 93060, Note_on_c, 0, 65, 0
1, 93060, Note_on_c, 0, 72, 0
1, 93120, Tempo, 377358
1, 93120, Note_on_c, 0, 74, 47
1, 93120, Note_on_c, 0, 71, 57
1, 93120, Note_on_c, 0, 65, 47
1, 93120, Note_on_c, 0, 63, 39
1, 93120, Note_on_c, 0, 60, 33
1, 93240, Note_on_c, 0, 65, 0
1, 93240, Note_on_c, 0, 74, 0
1, 93240, Note_on_c, 0, 71, 0
1, 93360, Tempo, 510638
1, 93360, Note_on_c, 0, 63, 0
1, 93360, Note_on_c, 0, 60, 0
1, 93480, Note_on_c, 0, 72, 53
1, 93480, Note_on_c, 0, 69, 53
1, 93480, Note_on_c, 0, 65, 44
1, 93540, Note_on_c, 0, 65, 0
1, 93540, Note_on_c, 0, 69, 0
1, 93540, Note_on_c, 0, 72, 0
1, 93600, Tempo, 449438
1, 93600, Note_on_c, 0, 65, 40
1, 93600, Note_on_c, 0, 62, 40
1, 93600, Note_on_c, 0, 70, 48
1, 93600, Note_on_c, 0, 46, 44
1, 93613, Control_c, 0, 64, 0
1, 93806, Control_c, 0, 64, 127
1, 93840, Note_on_c, 0, 46, 0
1, 94080, Tempo, 465116
1, 94080, Note_on_c, 0, 50, 33
1, 94320, Note_on_c, 0, 50, 0
1, 94560, Tempo, 419580
1, 94560, Note_on_c, 0, 70, 0
1, 94560, Note_on_c, 0, 62, 0
1, 94560, Note_on_c, 0, 65, 0
1, 94560, Note_on_c, 0, 62, 40
1, 94560, Note_on_c, 0, 65, 40
1, 94560, Note_on_c, 0, 70, 48
1, 94560, Note_on_c, 0, 58, 33
1, 94560, Note_on_c, 0, 53, 27
1, 94571, Control_c, 0, 64, 0
1, 94743, Control_c, 0, 64, 127
1, 94800, Note_on_c, 0, 53, 0
1, 94800, Note_on_c, 0, 58, 0
1, 95040, Note_on_c, 0, 41, 49
1, 95280, Note_on_c, 0, 41, 0
1, 95375, Note_on_c, 0, 70, 0
1, 95375, Note_on_c, 0, 65, 0
1, 95375, Note_on_c, 0, 62, 0
1, 95400, Tempo, 402685
1, 95400, Note_on_c, 0, 65, 39
1, 95400, Note_on_c, 0, 72, 47
1, 95400, Note_on_c, 0, 75, 39
1, 95460, Note_on_c, 0, 75, 0
1, 95460, Note_on_c, 0, 72, 0
1, 95460, Note_on_c, 0, 65, 0
1, 95520, Tempo, 392157
1, 95520, Note_on_c, 0, 65, 43
1, 95520, Note_on_c, 0, 72, 51
1, 95520, Note_on_c, 0, 75, 43
1, 95520, Note_on_c, 0, 51, 35
1, 95640, Note_on_c, 0, 75, 0
1, 95640, Note_on_c, 0, 65, 0
1, 95640, Note_on_c, 0, 72, 0
1, 95760, Note_on_c, 0, 51, 0
1, 95880, Note_on_c, 0, 72, 47
1, 95880, Note_on_c, 0, 75, 39
1, 95880, Note_on_c, 0, 65, 39
1, 95940, Note_on_c, 0, 65, 0
1, 95940, Note_on_c, 0, 75, 0
1, 95940, Note_on_c, 0, 72, 0
1, 96000, Tempo, 384615
1, 96000, Note_on_c, 0, 74, 42
1, 96000, Note_on_c, 0, 70, 51
1, 96000, Note_on_c, 0, 65, 42
1, 96000, Note_on_c, 0, 57, 35
1, 96000, Note_on_c, 0, 53, 29
1, 96120, Note_on_c, 0, 65, 0
1, 96120, Note_on_c, 0, 74, 0
1, 96120, Note_on_c, 0, 70, 0
1, 96240, Tempo, 510638
1, 96240, Note_on_c, 0, 57, 0
1, 96240, Note_on_c, 0, 53, 0
1, 96360, Note_on_c, 0, 72, 47
1, 96360, Note_on_c, 0, 69, 47
1, 96360, Note_on_c, 0, 65, 39
1, 96420, Note_on_c, 0, 65, 0
1, 96420, Note_on_c, 0, 69, 0
1, 96420, Note_on_c, 0, 72, 0
1, 96480, Tempo, 449438
1, 96480, Note_on_c, 0, 65, 38
1, 96480, Note_on_c, 0, 70, 45
1, 96480, Note_on_c, 0, 62, 38
1, 96480, Note_on_c, 0, 46, 41
1, 96493, Control_c, 0, 64, 0
1, 96686, Control_c, 0, 64, 127
1, 96720, Note_on_c, 0, 46, 0
1, 96960, Tempo, 465116
1, 96960, Note_on_c, 0, 50, 31
1, 97200, Note_on_c, 0, 50, 0
1, 97440, Tempo, 419580
1, 97440, Note_on_c, 0, 62, 0
1, 97440, Note_on_c, 0, 70, 0
1, 97440, Note_on_c, 0, 65, 0
1, 97440, Note_on_c, 0, 70, 45
1, 97440, Note_on_c, 0, 65, 38
1, 97440, Note_on_c, 0, 62, 38
1, 97440, Note_on_c, 0, 58, 31
1, 97440, Note_on_c, 0, 53, 25
1, 97451, Control_c, 0, 64, 0
1, 97623, Control_c, 0, 64, 127
1, 97680, Note_on_c, 0, 53, 0
1, 97680, Note_on_c, 0, 58, 0
1, 97920, Note_on_c, 0, 41, 46
1, 98160, Note_on_c, 0, 41, 0
1, 98255, Note_on_c, 0, 62, 0
1, 98255, Note_on_c, 0, 65, 0
1, 98255, Note_on_c, 0, 70, 0
1, 98280, Tempo, 415225
1, 98280, Note_on_c, 0, 75, 35
1, 98280, Note_on_c, 0, 65, 35
1, 98280, Note_on_c, 0, 72, 42
1, 98340, Note_on_c, 0, 72, 0
1, 98340, Note_on_c, 0, 65, 0
1, 98340, Note_on_c, 0, 75, 0
1, 98400, Tempo, 402685
1, 98400, Note_on_c, 0, 75, 38
1, 98400, Note_on_c, 0, 65, 38
1, 98400, Note_on_c, 0, 72, 45
1, 98400, Note_on_c, 0, 51, 31
1, 98520, Note_on_c, 0, 72, 0
1, 98520, Note_on_c, 0, 75, 0
1, 98520, Note_on_c, 0, 65, 0
1, 98640, Note_on_c, 0, 51, 0
1, 98760, Note_on_c, 0, 75, 34
1, 98760, Note_on_c, 0, 65, 34
1, 98760, Note_on_c, 0, 72, 41
1, 98820, Note_on_c, 0, 72, 0
1, 98820, Note_on_c, 0, 65, 0
1, 98820, Note_on_c, 0, 75, 0
1, 98880, Tempo, 393443
1, 98880, Note_on_c, 0, 74, 36
1, 98880, Note_on_c, 0, 65, 36
1, 98880, Note_on_c, 0, 70, 44
1, 98880, Note_on_c, 0, 57, 30
1, 98880, Note_on_c, 0, 53, 25
1, 99000, Note_on_c, 0, 70, 0
1, 99000, Note_on_c, 0, 74, 0
1, 99000, Note_on_c, 0, 65, 0
1, 99120, Tempo, 510638
1, 99120, Note_on_c, 0, 57, 0
1, 99120, Note_on_c, 0, 53, 0
1, 99240, Note_on_c, 0, 72, 39
1, 99240, Note_on_c, 0, 65, 33
1, 99240, Note_on_c, 0, 69, 39
1, 99300, Note_on_c, 0, 69, 0
1, 99300, Note_on_c, 0, 65, 0
1, 99300, Note_on_c, 0, 72, 0
1, 99360, Tempo, 449438
1, 99360, Note_on_c, 0, 62, 31
1, 99360, Note_on_c, 0, 65, 31
1, 99360, Note_on_c, 0, 70, 37
1, 99360, Note_on_c, 0, 46, 34
1, 99373, Control_c, 0, 64, 0
1, 99452, Control_c, 0, 64, 127
1, 99710, Note_on_c, 0, 46, 0
1, 99710, Note_on_c, 0, 62, 0
1, 99710, Note_on_c, 0, 65, 0
1, 99710, Note_on_c, 0, 70, 0
1, 99720, Tempo, 387097
1, 99720, Note_on_c, 0, 46, 70
1, 99720, Note_on_c, 0, 34, 60
1, 99727, Control_c, 0, 64, 0
1, 99780, Note_on_c, 0, 34, 0
1, 99780, Note_on_c, 0, 46, 0
1, 99840, Note_on_c, 0, 46, 76
1, 99840, Note_on_c, 0, 34, 64
1, 99893, Control_c, 0, 64, 127
1, 99960, Note_on_c, 0, 34, 0
1, 99960, Note_on_c, 0, 46, 0
1, 100070, Control_c, 0, 64, 0
1, 100080, Tempo, 372671
1, 100200, Note_on_c, 0, 46, 70
1, 100200, Note_on_c, 0, 34, 59
1, 100260, Note_on_c, 0, 34, 0
1, 100260, Note_on_c, 0, 46, 0
1, 100320, Tempo, 366972
1, 100320, Note_on_c, 0, 46, 75
1, 100320, Note_on_c, 0, 34, 64
1, 100374, Control_c, 0, 64, 127
1, 100440, Note_on_c, 0, 34, 0
1, 100440, Note_on_c, 0, 46, 0
1, 100511, Control_c, 0, 64, 0
1, 100560, Tempo, 373832
1, 100680, Note_on_c, 0, 48, 70
1, 100680, Note_on_c, 0, 36, 60
1, 100740, Note_on_c, 0, 36, 0
1, 100740, Note_on_c, 0, 48, 0
1, 100800, Tempo, 393443
1, 100800, Note_on_c, 0, 50, 75
1, 100800, Note_on_c, 0, 38, 67
1, 100892, Control_c, 0, 64, 127
1, 101150, Note_on_c, 0, 38, 0
1, 101150, Note_on_c, 0, 50, 0
1, 101160, Tempo, 387097
1, 101160, Note_on_c, 0, 50, 59
1, 101160, Note_on_c, 0, 62, 70
1, 101160, Note_on_c, 0, 38, 60
1, 101167, Control_c, 0, 64, 0
1, 101220, Note_on_c, 0, 38, 0
1, 101220, Note_on_c, 0, 62, 0
1, 101220, Note_on_c, 0, 50, 0
1, 101280, Note_on_c, 0, 50, 64
1, 101280, Note_on_c, 0, 62, 76
1, 101280, Note_on_c, 0, 38, 64
1, 101333, Control_c, 0, 64, 127
1, 101400, Note_on_c, 0, 38, 0
1, 101400, Note_on_c, 0, 62, 0
1, 101400, Note_on_c, 0, 50, 0
1, 101510, Control_c, 0, 64, 0
1, 101520, Tempo, 372671
1, 101640, Note_on_c, 0, 50, 59
1, 101640, Note_on_c, 0, 62, 70
1, 101640, Note_on_c, 0, 38, 59
1, 101700, Note_on_c, 0, 38, 0
1, 101700, Note_on_c, 0, 62, 0
1, 101700, Note_on_c, 0, 50, 0
1, 101760, Tempo, 366972
1, 101760, Note_on_c, 0, 50, 63
1, 101760, Note_on_c, 0, 62, 75
1, 101760, Note_on_c, 0, 38, 64
1, 101814, Control_c, 0, 64, 127
1, 101880, Note_on_c, 0, 38, 0
1, 101880, Note_on_c, 0, 62, 0
1, 101880, Note_on_c, 0, 50, 0
1, 101951, Control_c, 0, 64, 0
1, 102000, Tempo, 377358
1, 102120, Note_on_c, 0, 52, 59
1, 102120, Note_on_c, 0, 64, 70
1, 102120, Note_on_c, 0, 40, 60
1, 102180, Note_on_c, 0, 40, 0
1, 102180, Note_on_c, 0, 64, 0
1, 102180, Note_on_c, 0, 52, 0
1, 102240, Tempo, 393443
1, 102240, Note_on_c, 0, 53, 69
1, 102240, Note_on_c, 0, 65, 82
1, 102240, Note_on_c, 0, 41, 73
1, 102332, Control_c, 0, 64, 127
1, 102590, Note_on_c, 0, 41, 0
1, 102590, Note_on_c, 0, 65, 0
1, 102600, Tempo, 387097
1, 102600, Note_on_c, 0, 53, 0
1, 102600, Note_on_c, 0, 53, 77
1, 102600, Note_on_c, 0, 41, 66
1, 102607, Control_c, 0, 64, 0
1, 102660, Note_on_c, 0, 41, 0
1, 102660, Note_on_c, 0, 53, 0
1, 102720, Note_on_c, 0, 53, 83
1, 102720, Note_on_c, 0, 41, 70
1, 102773, Control_c, 0, 64, 127
1, 102840, Note_on_c, 0, 41, 0
1, 102840, Note_on_c, 0, 53, 0
1, 102950, Control_c, 0, 64, 0
1, 102960, Tempo, 372671
1, 103080, Note_on_c, 0, 53, 77
1, 103080, Note_on_c, 0, 41, 64
1, 103140, Note_on_c, 0, 41, 0
1, 103140, Note_on_c, 0, 53, 0
1, 103200, Tempo, 366972
1, 103200, Note_on_c, 0, 53, 82
1, 103200, Note_on_c, 0, 41, 70
1, 103254, Control_c, 0, 64, 127
1, 103320, Note_on_c, 0, 41, 0
1, 103320, Note_on_c, 0, 53, 0
1, 103391, Control_c, 0, 64, 0
1, 103440, Tempo, 377358
1, 103560, Note_on_c, 0, 55, 77
1, 103560, Note_on_c, 0, 43, 66
1, 103620, Note_on_c, 0, 43, 0
1, 103620, Note_on_c, 0, 55, 0
1, 103680, Tempo, 393443
1, 103680, Note_on_c, 0, 57, 90
1, 103680, Note_on_c, 0, 45, 80
1, 103772, Control_c, 0, 64, 127
1, 104030, Note_on_c, 0, 45, 0
1, 104030, Note_on_c, 0, 57, 0
1, 104040, Tempo, 387097
1, 104040, Note_on_c, 0, 57, 60
1, 104040, Note_on_c, 0, 69, 71
1, 104040, Note_on_c, 0, 33, 52
1, 104040, Note_on_c, 0, 45, 61
1, 104047, Control_c, 0, 64, 0
1, 104100, Note_on_c, 0, 45, 0
1, 104100, Note_on_c, 0, 57, 0
1, 104100, Note_on_c, 0, 69, 0
1, 104100, Note_on_c, 0, 33, 0
1, 104160, Note_on_c, 0, 57, 65
1, 104160, Note_on_c, 0, 69, 78
1, 104160, Note_on_c, 0, 33, 55
1, 104160, Note_on_c, 0, 45, 65
1, 104213, Control_c, 0, 64, 127
1, 104280, Note_on_c, 0, 45, 0
1, 104280, Note_on_c, 0, 57, 0
1, 104280, Note_on_c, 0, 69, 0
1, 104280, Note_on_c, 0, 33, 0
1, 104390, Control_c, 0, 64, 0
1, 104400, Tempo, 372671
1, 104520, Note_on_c, 0, 59, 61
1, 104520, Note_on_c, 0, 71, 73
1, 104520, Note_on_c, 0, 35, 52
1, 104520, Note_on_c, 0, 47, 61
1, 104580, Note_on_c, 0, 47, 0
1, 104580, Note_on_c, 0, 59, 0
1, 104580, Note_on_c, 0, 71, 0
1, 104580, Note_on_c, 0, 35, 0
1, 104640, Tempo, 366972
1, 104640, Note_on_c, 0, 61, 66
1, 104640, Note_on_c, 0, 73, 79
1, 104640, Note_on_c, 0, 37, 57
1, 104640, Note_on_c, 0, 49, 67
1, 104694, Control_c, 0, 64, 127
1, 104760, Note_on_c, 0, 49, 0
1, 104760, Note_on_c, 0, 61, 0
1, 104760, Note_on_c, 0, 73, 0
1, 104760, Note_on_c, 0, 37, 0
1, 104831, Control_c, 0, 64, 0
1, 104880, Tempo, 377358
1, 105000, Note_on_c, 0, 62, 64
1, 105000, Note_on_c, 0, 74, 76
1, 105000, Note_on_c, 0, 38, 55
1, 105000, Note_on_c, 0, 50, 65
1, 105060, Note_on_c, 0, 50, 0
1, 105060, Note_on_c, 0, 62, 0
1, 105060, Note_on_c, 0, 74, 0
1, 105060, Note_on_c, 0, 38, 0
1, 105120, Tempo, 389610
1, 105120, Note_on_c, 0, 73, 70
1, 105120, Note_on_c, 0, 64, 70
1, 105120, Note_on_c, 0, 69, 70
1, 105120, Note_on_c, 0, 76, 83
1, 105120, Note_on_c, 0, 45, 58
1, 105120, Note_on_c, 0, 40, 58
1, 105120, Note_on_c, 0, 49, 58
1, 105120, Note_on_c, 0, 52, 70
1, 105360, Control_c, 0, 64, 127
1, 106051, Note_on_c, 0, 52, 0
1, 106051, Note_on_c, 0, 49, 0
1, 106051, Note_on_c, 0, 76, 0
1, 106051, Note_on_c, 0, 64, 0
1, 106051, Note_on_c, 0, 69, 0
1, 106051, Note_on_c, 0, 40, 0
1, 106080, Tempo, 387097
1, 106080, Note_on_c, 0, 73, 0
1, 106080, Note_on_c, 0, 45, 0
1, 106080, Note_on_c, 0, 76, 83
1, 106080, Note_on_c, 0, 73, 70
1, 106080, Note_on_c, 0, 64, 70
1, 106080, Note_on_c, 0, 69, 70
1, 106080, Note_on_c, 0, 45, 58
1, 106080, Note_on_c, 0, 40, 58
1, 106080, Note_on_c, 0, 49, 58
1, 106080, Note_on_c, 0, 52, 70
1, 106895, Note_on_c, 0, 52, 0
1, 106895, Note_on_c, 0, 76, 0
1, 106895, Note_on_c, 0, 45, 0
1, 106895, Note_on_c, 0, 73, 0
1, 106895, Note_on_c, 0, 64, 0
1, 106895, Note_on_c, 0, 69, 0
1, 106895, Note_on_c, 0, 40, 0
1, 106895, Note_on_c, 0, 49, 0
1, 106920, Note_on_c, 0, 74, 58
1, 106920, Note_on_c, 0, 68, 58
1, 106920, Note_on_c, 0, 76, 73
1, 106920, Note_on_c, 0, 40, 56
1, 106920, Note_on_c, 0, 52, 66
1, 106930, Control_c, 0, 64, 0
1, 107034, Note_on_c, 0, 76, 0
1, 107034, Note_on_c, 0, 74, 0
1, 107034, Note_on_c, 0, 68, 0
1, 107040, Tempo, 382166
1, 107040, Note_on_c, 0, 40, 0
1, 107040, Note_on_c, 0, 52, 0
1, 107040, Note_on_c, 0, 76, 82
1, 107040, Note_on_c, 0, 68, 66
1, 107040, Note_on_c, 0, 74, 66
1, 107040, Note_on_c, 0, 40, 58
1, 107040, Note_on_c, 0, 52, 69
1, 107131, Control_c, 0, 64, 127
1, 107372, Note_on_c, 0, 52, 0
1, 107372, Note_on_c, 0, 40, 0
1, 107373, Note_on_c, 0, 76, 0
1, 107382, Note_on_c, 0, 74, 0
1, 107382, Note_on_c, 0, 68, 0
1, 107400, Note_on_c, 0, 76, 80
1, 107400, Note_on_c, 0, 68, 63
1, 107400, Note_on_c, 0, 74, 63
1, 107400, Note_on_c, 0, 38, 55
1, 107400, Note_on_c, 0, 50, 65
1, 107514, Note_on_c, 0, 74, 0
1, 107514, Note_on_c, 0, 76, 0
1, 107514, Note_on_c, 0, 68, 0
1, 107520, Tempo, 375000
1, 107520, Note_on_c, 0, 38, 0
1, 107520, Note_on_c, 0, 50, 0
1, 107520, Note_on_c, 0, 78, 85
1, 107520, Note_on_c, 0, 68, 67
1, 107520, Note_on_c, 0, 74, 67
1, 107520, Note_on_c, 0, 37, 60
1, 107520, Note_on_c, 0, 49, 72
1, 107527, Control_c, 0, 64, 0
1, 107619, Control_c, 0, 64, 127
1, 107760, Tempo, 452830
1, 107852, Note_on_c, 0, 49, 0
1, 107852, Note_on_c, 0, 37, 0
1, 107862, Note_on_c, 0, 78, 0
1, 107862, Note_on_c, 0, 68, 0
1, 107862, Note_on_c, 0, 74, 0
1, 107880, Note_on_c, 0, 68, 65
1, 107880, Note_on_c, 0, 74, 65
1, 107880, Note_on_c, 0, 80, 83
1, 107880, Note_on_c, 0, 35, 62
1, 107880, Note_on_c, 0, 47, 74
1, 108000, Tempo, 388350
1, 108000, Note_on_c, 0, 47, 0
1, 108000, Note_on_c, 0, 80, 0
1, 108000, Note_on_c, 0, 68, 0
1, 108000, Note_on_c, 0, 74, 0
1, 108000, Note_on_c, 0, 35, 0
1, 108000, Note_on_c, 0, 69, 78
1, 108000, Note_on_c, 0, 73, 78
1, 108000, Note_on_c, 0, 81, 93
1, 108000, Note_on_c, 0, 33, 65
1, 108000, Note_on_c, 0, 45, 74
1, 108006, Control_c, 0, 64, 0
1, 108320, Control_c, 0, 64, 127
1, 108931, Note_on_c, 0, 45, 0
1, 108931, Note_on_c, 0, 81, 0
1, 108931, Note_on_c, 0, 69, 0
1, 108931, Note_on_c, 0, 73, 0
1, 108931, Note_on_c, 0, 33, 0
1, 108960, Note_on_c, 0, 73, 78
1, 108960, Note_on_c, 0, 69, 78
1, 108960, Note_on_c, 0, 81, 93
1, 108960, Note_on_c, 0, 40, 65
1, 108960, Note_on_c, 0, 33, 65
1, 108960, Note_on_c, 0, 45, 74
1, 109780, Note_on_c, 0, 45, 0
1, 109780, Note_on_c, 0, 69, 0
1, 109780, Note_on_c, 0, 81, 0
1, 109780, Note_on_c, 0, 73, 0
1, 109780, Note_on_c, 0, 33, 0
1, 109780, Note_on_c, 0, 40, 0
1, 109800, Tempo, 387097
1, 109800, Note_on_c, 0, 57, 47
1, 109800, Note_on_c, 0, 55, 47
1, 109800, Note_on_c, 0, 61, 56
1, 109800, Note_on_c, 0, 45, 48
1, 109805, Control_c, 0, 64, 0
1, 109860, Note_on_c, 0, 45, 0
1, 109860, Note_on_c, 0, 57, 0
1, 109860, Note_on_c, 0, 55, 0
1, 109860, Note_on_c, 0, 61, 0
1, 109920, Tempo, 380952
1, 109920, Note_on_c, 0, 62, 60
1, 109920, Note_on_c, 0, 55, 51
1, 109920, Note_on_c, 0, 57, 51
1, 109920, Note_on_c, 0, 47, 51
1, 109977, Control_c, 0, 64, 127
1, 110040, Note_on_c, 0, 47, 0
1, 110040, Note_on_c, 0, 62, 0
1, 110040, Note_on_c, 0, 55, 0
1, 110040, Note_on_c, 0, 57, 0
1, 110100, Control_c, 0, 64, 0
1, 110280, Note_on_c, 0, 55, 47
1, 110280, Note_on_c, 0, 57, 47
1, 110280, Note_on_c, 0, 61, 56
1, 110280, Note_on_c, 0, 45, 47
1, 110340, Note_on_c, 0, 45, 0
1, 110340, Note_on_c, 0, 55, 0
1, 110340, Note_on_c, 0, 57, 0
1, 110340, Note_on_c, 0, 61, 0
1, 110400, Tempo, 372671
1, 110400, Note_on_c, 0, 55, 50
1, 110400, Note_on_c, 0, 57, 50
1, 110400, Note_on_c, 0, 62, 60
1, 110400, Note_on_c, 0, 47, 51
1, 110454, Control_c, 0, 64, 127
1, 110520, Note_on_c, 0, 47, 0
1, 110520, Note_on_c, 0, 55, 0
1, 110520, Note_on_c, 0, 57, 0
1, 110520, Note_on_c, 0, 62, 0
1, 110593, Control_c, 0, 64, 0
1, 110640, Tempo, 412371
1, 110760, Note_on_c, 0, 57, 47
1, 110760, Note_on_c, 0, 55, 47
1, 110760, Note_on_c, 0, 64, 56
1, 110760, Note_on_c, 0, 49, 48
1, 110820, Note_on_c, 0, 49, 0
1, 110820, Note_on_c, 0, 57, 0
1, 110820, Note_on_c, 0, 55, 0
1, 110820, Note_on_c, 0, 64, 0
1, 110880, Tempo, 392157
1, 110880, Note_on_c, 0, 57, 64
1, 110880, Note_on_c, 0, 54, 54
1, 110880, Note_on_c, 0, 50, 54
1, 111120, Control_c, 0, 64, 127
1, 111811, Note_on_c, 0, 50, 0
1, 111811, Note_on_c, 0, 54, 0
1, 111811, Note_on_c, 0, 57, 0
1, 111840, Tempo, 387097
1, 111840, Note_on_c, 0, 57, 54
1, 111840, Note_on_c, 0, 66, 64
1, 111840, Note_on_c, 0, 50, 45
1, 111840, Note_on_c, 0, 54, 54
1, 112655, Note_on_c, 0, 54, 0
1, 112655, Note_on_c, 0, 57, 0
1, 112655, Note_on_c, 0, 66, 0
1, 112655, Note_on_c, 0, 50, 0
1, 112680, Note_on_c, 0, 66, 53
1, 112680, Note_on_c, 0, 57, 53
1, 112680, Note_on_c, 0, 50, 44
1, 112695, Control_c, 0, 64, 0
1, 112790, Note_on_c, 0, 50, 0
1, 112800, Tempo, 384615
1, 112800, Note_on_c, 0, 57, 0
1, 112800, Note_on_c, 0, 66, 0
1, 112800, Note_on_c, 0, 55, 60
1, 112800, Note_on_c, 0, 67, 60
1, 112800, Note_on_c, 0, 50, 50
1, 112800, Note_on_c, 0, 47, 42
1, 112892, Control_c, 0, 64, 127
1, 112920, Note_on_c, 0, 47, 0
1, 112920, Note_on_c, 0, 55, 0
1, 112920, Note_on_c, 0, 67, 0
1, 112920, Note_on_c, 0, 50, 0
1, 113069, Control_c, 0, 64, 0
1, 113160, Note_on_c, 0, 55, 56
1, 113160, Note_on_c, 0, 66, 56
1, 113160, Note_on_c, 0, 50, 47
1, 113160, Note_on_c, 0, 47, 40
1, 113274, Note_on_c, 0, 46, 41
1, 113280, Tempo, 376176
1, 113280, Note_on_c, 0, 47, 0
1, 113280, Note_on_c, 0, 50, 0
1, 113280, Note_on_c, 0, 55, 0
1, 113280, Note_on_c, 0, 66, 0
1, 113280, Note_on_c, 0, 64, 59
1, 113280, Note_on_c, 0, 56, 59
1, 113286, Note_on_c, 0, 50, 49
1, 113349, Control_c, 0, 64, 127
1, 113394, Note_on_c, 0, 46, 0
1, 113400, Note_on_c, 0, 64, 0
1, 113400, Note_on_c, 0, 56, 0
1, 113406, Note_on_c, 0, 50, 0
1, 113463, Control_c, 0, 64, 0
1, 113520, Tempo, 436364
1, 113640, Note_on_c, 0, 56, 56
1, 113640, Note_on_c, 0, 62, 56
1, 113640, Note_on_c, 0, 46, 40
1, 113640, Note_on_c, 0, 50, 47
1, 113760, Tempo, 389610
1, 113760, Note_on_c, 0, 50, 0
1, 113760, Note_on_c, 0, 56, 0
1, 113760, Note_on_c, 0, 62, 0
1, 113760, Note_on_c, 0, 46, 0
1, 113760, Note_on_c, 0, 61, 54
1, 113760, Note_on_c, 0, 57, 54
1, 113760, Note_on_c, 0, 69, 64
1, 113760, Note_on_c, 0, 45, 45
1, 113760, Note_on_c, 0, 52, 54
1, 114000, Control_c, 0, 64, 127
1, 114691, Note_on_c, 0, 52, 0
1, 114691, Note_on_c, 0, 69, 0
1, 114691, Note_on_c, 0, 61, 0
1, 114691, Note_on_c, 0, 57, 0
1, 114691, Note_on_c, 0, 45, 0
1, 114720, Tempo, 387097
1, 114720, Note_on_c, 0, 61, 54
1, 114720, Note_on_c, 0, 64, 64
1, 114720, Note_on_c, 0, 45, 45
1, 114720, Note_on_c, 0, 57, 54
1, 115535, Note_on_c, 0, 57, 0
1, 115535, Note_on_c, 0, 61, 0
1, 115535, Note_on_c, 0, 64, 0
1, 115535, Note_on_c, 0, 45, 0
1, 115560, Tempo, 387097
1, 115560, Note_on_c, 0, 69, 53
1, 115560, Note_on_c, 0, 64, 53
1, 115560, Note_on_c, 0, 49, 35
1, 115560, Note_on_c, 0, 57, 44
1, 115575, Control_c, 0, 64, 0
1, 115620, Note_on_c, 0, 69, 0
1, 115620, Note_on_c, 0, 73, 53
1, 115670, Note_on_c, 0, 57, 0
1, 115670, Note_on_c, 0, 49, 0
1, 115680, Tempo, 382166
1, 115680, Note_on_c, 0, 64, 0
1, 115680, Note_on_c, 0, 73, 0
1, 115680, Note_on_c, 0, 64, 60
1, 115680, Note_on_c, 0, 71, 60
1, 115680, Note_on_c, 0, 57, 50
1, 115680, Note_on_c, 0, 49, 42
1, 115772, Control_c, 0, 64, 127
1, 115800, Note_on_c, 0, 49, 0
1, 115800, Note_on_c, 0, 64, 0
1, 115800, Note_on_c, 0, 71, 0
1, 115800, Note_on_c, 0, 57, 0
1, 115899, Control_c, 0, 64, 0
1, 116040, Note_on_c, 0, 64, 56
1, 116040, Note_on_c, 0, 69, 56
1, 116040, Note_on_c, 0, 57, 47
1, 116040, Note_on_c, 0, 49, 40
1, 116160, Tempo, 377358
1, 116160, Note_on_c, 0, 49, 0
1, 116160, Note_on_c, 0, 64, 0
1, 116160, Note_on_c, 0, 69, 0
1, 116160, Note_on_c, 0, 57, 0
1, 116160, Note_on_c, 0, 64, 59
1, 116160, Note_on_c, 0, 71, 59
1, 116160, Note_on_c, 0, 49, 41
1, 116160, Note_on_c, 0, 57, 49
1, 116229, Control_c, 0, 64, 127
1, 116280, Note_on_c, 0, 57, 0
1, 116280, Note_on_c, 0, 64, 0
1, 116280, Note_on_c, 0, 71, 0
1, 116280, Note_on_c, 0, 49, 0
1, 116343, Control_c, 0, 64, 0
1, 116400, Tempo, 449438
1, 116520, Note_on_c, 0, 64, 56
1, 116520, Note_on_c, 0, 73, 56
1, 116520, Note_on_c, 0, 49, 40
1, 116520, Note_on_c, 0, 57, 47
1, 116640, Tempo, 389610
1, 116640, Note_on_c, 0, 57, 0
1, 116640, Note_on_c, 0, 64, 0
1, 116640, Note_on_c, 0, 73, 0
1, 116640, Note_on_c, 0, 49, 0
1, 116640, Note_on_c, 0, 62, 54
1, 116640, Note_on_c, 0, 66, 54
1, 116640, Note_on_c, 0, 74, 64
1, 116640, Note_on_c, 0, 54, 45
1, 116640, Note_on_c, 0, 47, 45
1, 116640, Note_on_c, 0, 59, 54
1, 116880, Control_c, 0, 64, 127
1, 117571, Note_on_c, 0, 59, 0
1, 117571, Note_on_c, 0, 66, 0
1, 117571, Note_on_c, 0, 62, 0
1, 117571, Note_on_c, 0, 74, 0
1, 117571, Note_on_c, 0, 47, 0
1, 117600, Tempo, 387097
1, 117600, Note_on_c, 0, 54, 0
1, 117600, Note_on_c, 0, 66, 64
1, 117600, Note_on_c, 0, 62, 54
1, 117600, Note_on_c, 0, 50, 45
1, 117600, Note_on_c, 0, 59, 54
1, 118415, Note_on_c, 0, 59, 0
1, 118415, Note_on_c, 0, 66, 0
1, 118415, Note_on_c, 0, 62, 0
1, 118415, Note_on_c, 0, 50, 0
1, 118440, Tempo, 387097
1, 118440, Note_on_c, 0, 62, 53
1, 118440, Note_on_c, 0, 66, 53
1, 118440, Note_on_c, 0, 52, 35
1, 118440, Note_on_c, 0, 59, 44
1, 118455, Control_c, 0, 64, 0
1, 118500, Note_on_c, 0, 66, 0
1, 118500, Note_on_c, 0, 69, 53
1, 118550, Note_on_c, 0, 59, 0
1, 118550, Note_on_c, 0, 52, 0
1, 118560, Tempo, 384615
1, 118560, Note_on_c, 0, 62, 0
1, 118560, Note_on_c, 0, 69, 0
1, 118560, Note_on_c, 0, 62, 60
1, 118560, Note_on_c, 0, 68, 60
1, 118560, Note_on_c, 0, 59, 50
1, 118560, Note_on_c, 0, 52, 42
1, 118652, Control_c, 0, 64, 127
1, 118680, Note_on_c, 0, 52, 0
1, 118680, Note_on_c, 0, 62, 0
1, 118680, Note_on_c, 0, 68, 0
1, 118680, Note_on_c, 0, 59, 0
1, 118783, Control_c, 0, 64, 0
1, 118920, Note_on_c, 0, 62, 56
1, 118920, Note_on_c, 0, 66, 56
1, 118920, Note_on_c, 0, 59, 47
1, 118920, Note_on_c, 0, 52, 40
1, 119040, Tempo, 376176
1, 119040, Note_on_c, 0, 52, 0
1, 119040, Note_on_c, 0, 62, 0
1, 119040, Note_on_c, 0, 66, 0
1, 119040, Note_on_c, 0, 59, 0
1, 119040, Note_on_c, 0, 62, 59
1, 119040, Note_on_c, 0, 68, 59
1, 119040, Note_on_c, 0, 52, 41
1, 119040, Note_on_c, 0, 59, 49
1, 119109, Control_c, 0, 64, 127
1, 119160, Note_on_c, 0, 59, 0
1, 119160, Note_on_c, 0, 62, 0
1, 119160, Note_on_c, 0, 68, 0
1, 119160, Note_on_c, 0, 52, 0
1, 119223, Control_c, 0, 64, 0
1, 119280, Tempo, 449438
1, 119400, Note_on_c, 0, 62, 56
1, 119400, Note_on_c, 0, 64, 56
1, 119400, Note_on_c, 0, 52, 40
1, 119400, Note_on_c, 0, 59, 47
1, 119520, Tempo, 401338
1, 119520, Note_on_c, 0, 59, 0
1, 119520, Note_on_c, 0, 62, 0
1, 119520, Note_on_c, 0, 64, 0
1, 119520, Note_on_c, 0, 52, 0
1, 119520, Note_on_c, 0, 61, 54
1, 119520, Note_on_c, 0, 71, 64
1, 119520, Note_on_c, 0, 52, 45
1, 119520, Note_on_c, 0, 45, 45
1, 119520, Note_on_c, 0, 57, 54
1, 119760, Control_c, 0, 64, 127
1, 120451, Note_on_c, 0, 57, 0
1, 120451, Note_on_c, 0, 71, 0
1, 120451, Note_on_c, 0, 61, 0
1, 120451, Note_on_c, 0, 45, 0
1, 120480, Tempo, 387097
1, 120480, Note_on_c, 0, 52, 0
1, 120480, Note_on_c, 0, 69, 64
1, 120480, Note_on_c, 0, 61, 54
1, 120480, Note_on_c, 0, 45, 45
1, 120480, Note_on_c, 0, 52, 45
1, 120480, Note_on_c, 0, 57, 54
1, 120490, Control_c, 0, 64, 0
1, 120747, Control_c, 0, 64, 127
1, 121430, Note_on_c, 0, 57, 0
1, 121430, Note_on_c, 0, 45, 0
1, 121430, Note_on_c, 0, 69, 0
1, 121430, Note_on_c, 0, 61, 0
1, 121430, Note_on_c, 0, 52, 0
1, 121440, Tempo, 380952
1, 121440, Note_on_c, 0, 62, 56
1, 121440, Note_on_c, 0, 66, 56
1, 121440, Note_on_c, 0, 69, 67
1, 121440, Note_on_c, 0, 50, 45
1, 121444, Control_c, 0, 64, 0
1, 121906, Note_on_c, 0, 50, 0
1, 121906, Note_on_c, 0, 62, 0
1, 121906, Note_on_c, 0, 66, 0
1, 121906, Note_on_c, 0, 69, 0
1, 121920, Tempo, 385852
1, 121920, Note_on_c, 0, 62, 53
1, 121920, Note_on_c, 0, 66, 53
1, 121920, Note_on_c, 0, 70, 63
1, 121920, Note_on_c, 0, 49, 37
1, 122386, Note_on_c, 0, 49, 0
1, 122386, Note_on_c, 0, 62, 0
1, 122386, Note_on_c, 0, 66, 0
1, 122386, Note_on_c, 0, 70, 0
1, 122400, Tempo, 352941
1, 122400, Note_on_c, 0, 62, 51
1, 122400, Note_on_c, 0, 67, 51
1, 122400, Note_on_c, 0, 71, 60
1, 122400, Note_on_c, 0, 47, 67
1, 122560, Note_on_c, 0, 47, 0
1, 122560, Note_on_c, 0, 46, 57
1, 122720, Note_on_c, 0, 46, 0
1, 122720, Note_on_c, 0, 47, 57
1, 122880, Tempo, 356083
1, 122880, Note_on_c, 0, 47, 0
1, 122880, Note_on_c, 0, 43, 68
1, 123040, Note_on_c, 0, 43, 0
1, 123040, Note_on_c, 0, 42, 61
1, 123200, Tempo, 401338
1, 123200, Note_on_c, 0, 42, 0
1, 123200, Note_on_c, 0, 43, 65
1, 123360, Tempo, 364742
1, 123360, Note_on_c, 0, 43, 0
1, 123360, Note_on_c, 0, 71, 0
1, 123360, Note_on_c, 0, 67, 0
1, 123360, Note_on_c, 0, 62, 0
1, 123360, Note_on_c, 0, 67, 56
1, 123360, Note_on_c, 0, 71, 56
1, 123360, Note_on_c, 0, 76, 67
1, 123360, Note_on_c, 0, 40, 74
1, 123826, Note_on_c, 0, 76, 0
1, 123826, Note_on_c, 0, 67, 0
1, 123826, Note_on_c, 0, 71, 0
1, 123840, Note_on_c, 0, 71, 62
1, 123840, Note_on_c, 0, 76, 62
1, 123840, Note_on_c, 0, 79, 74
1, 124080, Note_on_c, 0, 79, 0
1, 124080, Note_on_c, 0, 76, 0
1, 124080, Note_on_c, 0, 71, 0
1, 124200, Note_on_c, 0, 40, 0
1, 124200, Note_on_c, 0, 42, 61
1, 124320, Note_on_c, 0, 42, 0
1, 124320, Note_on_c, 0, 67, 53
1, 124320, Note_on_c, 0, 71, 53
1, 124320, Note_on_c, 0, 76, 63
1, 124320, Note_on_c, 0, 43, 69
1, 124560, Note_on_c, 0, 71, 0
1, 124560, Note_on_c, 0, 67, 0
1, 124570, Note_on_c, 0, 76, 0
1, 124680, Note_on_c, 0, 43, 0
1, 124680, Note_on_c, 0, 45, 62
1, 124800, Tempo, 361446
1, 124800, Note_on_c, 0, 45, 0
1, 124800, Note_on_c, 0, 61, 49
1, 124800, Note_on_c, 0, 64, 49
1, 124800, Note_on_c, 0, 67, 58
1, 124800, Note_on_c, 0, 47, 70
1, 125040, Note_on_c, 0, 67, 0
1, 125040, Note_on_c, 0, 61, 0
1, 125040, Note_on_c, 0, 64, 0
1, 125120, Tempo, 400000
1, 125160, Note_on_c, 0, 47, 0
1, 125160, Note_on_c, 0, 49, 62
1, 125280, Tempo, 351906
1, 125280, Note_on_c, 0, 49, 0
1, 125280, Note_on_c, 0, 61, 55
1, 125280, Note_on_c, 0, 66, 55
1, 125280, Note_on_c, 0, 69, 65
1, 125280, Note_on_c, 0, 45, 69
1, 125440, Note_on_c, 0, 45, 0
1, 125440, Note_on_c, 0, 44, 63
1, 125600, Note_on_c, 0, 44, 0
1, 125600, Note_on_c, 0, 45, 59
1, 125760, Tempo, 359281
1, 125760, Note_on_c, 0, 45, 0
1, 125760, Note_on_c, 0, 42, 68
1, 125920, Note_on_c, 0, 42, 0
1, 125920, Note_on_c, 0, 41, 65
1, 126080, Tempo, 401338
1, 126080, Note_on_c, 0, 41, 0
1, 126080, Note_on_c, 0, 42, 69
1, 126240, Tempo, 364742
1, 126240, Note_on_c, 0, 42, 0
1, 126240, Note_on_c, 0, 69, 0
1, 126240, Note_on_c, 0, 66, 0
1, 126240, Note_on_c, 0, 61, 0
1, 126240, Note_on_c, 0, 66, 59
1, 126240, Note_on_c, 0, 69, 59
1, 126240, Note_on_c, 0, 74, 70
1, 126240, Note_on_c, 0, 38, 74
1, 126706, Note_on_c, 0, 74, 0
1, 126706, Note_on_c, 0, 66, 0
1, 126706, Note_on_c, 0, 69, 0
1, 126720, Note_on_c, 0, 69, 59
1, 126720, Note_on_c, 0, 74, 59
1, 126720, Note_on_c, 0, 78, 71
1, 126960, Note_on_c, 0, 78, 0
1, 126960, Note_on_c, 0, 74, 0
1, 126960, Note_on_c, 0, 69, 0
1, 127080, Note_on_c, 0, 38, 0
1, 127080, Note_on_c, 0, 40, 61
1, 127200, Note_on_c, 0, 40, 0
1, 127200, Note_on_c, 0, 66, 51
1, 127200, Note_on_c, 0, 69, 51
1, 127200, Note_on_c, 0, 74, 60
1, 127200, Note_on_c, 0, 42, 69
1, 127440, Note_on_c, 0, 74, 0
1, 127440, Note_on_c, 0, 66, 0
1, 127440, Note_on_c, 0, 69, 0
1, 127560, Note_on_c, 0, 42, 0
1, 127560, Note_on_c, 0, 43, 62
1, 127680, Tempo, 361446
1, 127680, Note_on_c, 0, 43, 0
1, 127680, Note_on_c, 0, 59, 47
1, 127680, Note_on_c, 0, 62, 47
1, 127680, Note_on_c, 0, 66, 56
1, 127680, Note_on_c, 0, 45, 70
1, 127920, Note_on_c, 0, 66, 0
1, 127920, Note_on_c, 0, 59, 0
1, 127920, Note_on_c, 0, 62, 0
1, 128000, Tempo, 400000
1, 128040, Note_on_c, 0, 45, 0
1, 128040, Note_on_c, 0, 47, 62
1, 128160, Tempo, 352941
1, 128160, Note_on_c, 0, 47, 0
1, 128160, Note_on_c, 0, 64, 56
1, 128160, Note_on_c, 0, 67, 67
1, 128160, Note_on_c, 0, 59, 56
1, 128160, Note_on_c, 0, 43, 70
1, 128320, Note_on_c, 0, 43, 0
1, 128320, Note_on_c, 0, 42, 58
1, 128480, Note_on_c, 0, 42, 0
1, 128480, Note_on_c, 0, 43, 58
1, 128640, Tempo, 361446
1, 128640, Note_on_c, 0, 43, 0
1, 128640, Note_on_c, 0, 40, 63
1, 128800, Note_on_c, 0, 40, 0
1, 128800, Note_on_c, 0, 39, 65
1, 128960, Tempo, 401338
1, 128960, Note_on_c, 0, 39, 0
1, 128960, Note_on_c, 0, 40, 68
1, 129120, Tempo, 364742
1, 129120, Note_on_c, 0, 40, 0
1, 129120, Note_on_c, 0, 59, 0
1, 129120, Note_on_c, 0, 67, 0
1, 129120, Note_on_c, 0, 64, 0
1, 129120, Note_on_c, 0, 67, 57
1, 129120, Note_on_c, 0, 73, 68
1, 129120, Note_on_c, 0, 64, 57
1, 129120, Note_on_c, 0, 37, 72
1, 129586, Note_on_c, 0, 64, 0
1, 129586, Note_on_c, 0, 67, 0
1, 129586, Note_on_c, 0, 73, 0
1, 129600, Note_on_c, 0, 76, 70
1, 129600, Note_on_c, 0, 67, 59
1, 129600, Note_on_c, 0, 73, 70
1, 129840, Note_on_c, 0, 73, 0
1, 129840, Note_on_c, 0, 67, 0
1, 129840, Note_on_c, 0, 76, 0
1, 129960, Note_on_c, 0, 37, 0
1, 129960, Note_on_c, 0, 38, 59
1, 130080, Tempo, 370370
1, 130080, Note_on_c, 0, 38, 0
1, 130080, Note_on_c, 0, 64, 55
1, 130080, Note_on_c, 0, 73, 65
1, 130080, Note_on_c, 0, 67, 55
1, 130080, Note_on_c, 0, 40, 73
1, 130320, Note_on_c, 0, 67, 0
1, 130320, Note_on_c, 0, 64, 0
1, 130320, Note_on_c, 0, 73, 0
1, 130440, Note_on_c, 0, 40, 0
1, 130440, Note_on_c, 0, 37, 57
1, 130560, Tempo, 390879
1, 130560, Note_on_c, 0, 37, 0
1, 130560, Note_on_c, 0, 61, 50
1, 130560, Note_on_c, 0, 71, 59
1, 130560, Note_on_c, 0, 68, 59
1, 130560, Note_on_c, 0, 41, 71
1, 130800, Note_on_c, 0, 68, 0
1, 130800, Note_on_c, 0, 61, 0
1, 130800, Note_on_c, 0, 71, 0
1, 130880, Tempo, 489796
1, 130920, Note_on_c, 0, 41, 0
1, 130920, Note_on_c, 0, 37, 58
1, 131040, Tempo, 398671
1, 131040, Note_on_c, 0, 37, 0
1, 131040, Note_on_c, 0, 61, 55
1, 131040, Note_on_c, 0, 66, 55
1, 131040, Note_on_c, 0, 70, 65
1, 131040, Note_on_c, 0, 42, 71
1, 131360, Control_c, 0, 64, 127
1, 131971, Note_on_c, 0, 42, 0
1, 131971, Note_on_c, 0, 70, 0
1, 131971, Note_on_c, 0, 61, 0
1, 132000, Tempo, 387097
1, 132000, Note_on_c, 0, 66, 0
1, 132000, Note_on_c, 0, 66, 51
1, 132000, Note_on_c, 0, 61, 51
1, 132000, Note_on_c, 0, 70, 60
1, 132000, Note_on_c, 0, 42, 68
1, 132815, Note_on_c, 0, 42, 0
1, 132815, Note_on_c, 0, 66, 0
1, 132815, Note_on_c, 0, 61, 0
1, 132815, Note_on_c, 0, 70, 0
1, 132840, Tempo, 387097
1, 132840, Note_on_c, 0, 73, 71
1, 132840, Note_on_c, 0, 66, 60
1, 132840, Note_on_c, 0, 46, 61
1, 132847, Control_c, 0, 64, 0
1, 132900, Note_on_c, 0, 46, 0
1, 132900, Note_on_c, 0, 66, 0
1, 132900, Note_on_c, 0, 73, 0
1, 132960, Note_on_c, 0, 75, 78
1, 132960, Note_on_c, 0, 66, 65
1, 132960, Note_on_c, 0, 47, 65
1, 133013, Control_c, 0, 64, 127
1, 133080, Note_on_c, 0, 47, 0
1, 133080, Note_on_c, 0, 66, 0
1, 133080, Note_on_c, 0, 75, 0
1, 133190, Control_c, 0, 64, 0
1, 133200, Tempo, 372671
1, 133320, Note_on_c, 0, 73, 73
1, 133320, Note_on_c, 0, 66, 61
1, 133320, Note_on_c, 0, 46, 61
1, 133380, Note_on_c, 0, 46, 0
1, 133380, Note_on_c, 0, 66, 0
1, 133380, Note_on_c, 0, 73, 0
1, 133440, Tempo, 366972
1, 133440, Note_on_c, 0, 66, 66
1, 133440, Note_on_c, 0, 75, 79
1, 133440, Note_on_c, 0, 47, 67
1, 133494, Control_c, 0, 64, 127
1, 133560, Note_on_c, 0, 47, 0
1, 133560, Note_on_c, 0, 75, 0
1, 133560, Note_on_c, 0, 66, 0
1, 133631, Control_c, 0, 64, 0
1, 133680, Tempo, 377358
1, 133800, Note_on_c, 0, 73, 76
1, 133800, Note_on_c, 0, 66, 64
1, 133800, Note_on_c, 0, 46, 65
1, 133860, Note_on_c, 0, 46, 0
1, 133860, Note_on_c, 0, 66, 0
1, 133860, Note_on_c, 0, 73, 0
1, 133920, Tempo, 389610
1, 133920, Note_on_c, 0, 71, 70
1, 133920, Note_on_c, 0, 77, 83
1, 133920, Note_on_c, 0, 65, 70
1, 133920, Note_on_c, 0, 44, 58
1, 133920, Note_on_c, 0, 49, 70
1, 134160, Control_c, 0, 64, 127
1, 134851, Note_on_c, 0, 49, 0
1, 134851, Note_on_c, 0, 65, 0
1, 134851, Note_on_c, 0, 77, 0
1, 134880, Tempo, 387097
1, 134880, Note_on_c, 0, 71, 0
1, 134880, Note_on_c, 0, 44, 0
1, 134880, Note_on_c, 0, 77, 83
1, 134880, Note_on_c, 0, 65, 70
1, 134880, Note_on_c, 0, 71, 70
1, 134880, Note_on_c, 0, 44, 58
1, 134880, Note_on_c, 0, 49, 70
1, 135695, Note_on_c, 0, 49, 0
1, 135695, Note_on_c, 0, 71, 0
1, 135695, Note_on_c, 0, 77, 0
1, 135695, Note_on_c, 0, 65, 0
1, 135695, Note_on_c, 0, 44, 0
1, 135720, Note_on_c, 0, 73, 58
1, 135720, Note_on_c, 0, 65, 58
1, 135720, Note_on_c, 0, 77, 73
1, 135720, Note_on_c, 0, 44, 56
1, 135720, Note_on_c, 0, 49, 66
1, 135730, Control_c, 0, 64, 0
1, 135834, Note_on_c, 0, 77, 0
1, 135834, Note_on_c, 0, 73, 0
1, 135834, Note_on_c, 0, 65, 0
1, 135840, Tempo, 382166
1, 135840, Note_on_c, 0, 44, 0
1, 135840, Note_on_c, 0, 49, 0
1, 135840, Note_on_c, 0, 65, 66
1, 135840, Note_on_c, 0, 73, 66
1, 135840, Note_on_c, 0, 77, 82
1, 135840, Note_on_c, 0, 46, 58
1, 135840, Note_on_c, 0, 49, 69
1, 135931, Control_c, 0, 64, 127
1, 136172, Note_on_c, 0, 49, 0
1, 136172, Note_on_c, 0, 77, 0
1, 136172, Note_on_c, 0, 46, 0
1, 136182, Note_on_c, 0, 73, 0
1, 136182, Note_on_c, 0, 65, 0
1, 136200, Note_on_c, 0, 73, 63
1, 136200, Note_on_c, 0, 77, 80
1, 136200, Note_on_c, 0, 65, 63
1, 136200, Note_on_c, 0, 44, 55
1, 136200, Note_on_c, 0, 49, 65
1, 136314, Note_on_c, 0, 65, 0
1, 136314, Note_on_c, 0, 73, 0
1, 136314, Note_on_c, 0, 77, 0
1, 136320, Tempo, 375000
1, 136320, Note_on_c, 0, 44, 0
1, 136320, Note_on_c, 0, 49, 0
1, 136320, Note_on_c, 0, 73, 67
1, 136320, Note_on_c, 0, 77, 85
1, 136320, Note_on_c, 0, 65, 67
1, 136320, Note_on_c, 0, 46, 60
1, 136320, Note_on_c, 0, 49, 72
1, 136327, Control_c, 0, 64, 0
1, 136419, Control_c, 0, 64, 127
1, 136560, Tempo, 452830
1, 136652, Note_on_c, 0, 49, 0
1, 136652, Note_on_c, 0, 46, 0
1, 136662, Note_on_c, 0, 73, 0
1, 136662, Note_on_c, 0, 77, 0
1, 136662, Note_on_c, 0, 65, 0
1, 136680, Note_on_c, 0, 77, 83
1, 136680, Note_on_c, 0, 65, 65
1, 136680, Note_on_c, 0, 73, 65
1, 136680, Note_on_c, 0, 44, 62
1, 136680, Note_on_c, 0, 49, 74
1, 136800, Tempo, 388350
1, 136800, Note_on_c, 0, 49, 0
1, 136800, Note_on_c, 0, 73, 0
1, 136800, Note_on_c, 0, 77, 0
1, 136800, Note_on_c, 0, 65, 0
1, 136800, Note_on_c, 0, 44, 0
1, 136800, Note_on_c, 0, 70, 78
1, 136800, Note_on_c, 0, 78, 93
1, 136800, Note_on_c, 0, 66, 78
1, 136800, Note_on_c, 0, 42, 65
1, 136800, Note_on_c, 0, 49, 74
1, 136806, Control_c, 0, 64, 0
1, 137120, Control_c, 0, 64, 127
1, 137731, Note_on_c, 0, 49, 0
1, 137731, Note_on_c, 0, 66, 0
1, 137731, Note_on_c, 0, 70, 0
1, 137731, Note_on_c, 0, 78, 0
1, 137731, Note_on_c, 0, 42, 0
1, 137760, Note_on_c, 0, 70, 78
1, 137760, Note_on_c, 0, 78, 93
1, 137760, Note_on_c, 0, 66, 78
1, 137760, Note_on_c, 0, 42, 65
1, 137760, Note_on_c, 0, 49, 74
1, 138580, Note_on_c, 0, 49, 0
1, 138580, Note_on_c, 0, 66, 0
1, 138580, Note_on_c, 0, 70, 0
1, 138580, Note_on_c, 0, 78, 0
1, 138580, Note_on_c, 0, 42, 0
1, 138600, Tempo, 387097
1, 138600, Note_on_c, 0, 73, 56
1, 138600, Note_on_c, 0, 67, 47
1, 138600, Note_on_c, 0, 69, 47
1, 138600, Note_on_c, 0, 57, 48
1, 138605, Control_c, 0, 64, 0
1, 138660, Note_on_c, 0, 57, 0
1, 138660, Note_on_c, 0, 73, 0
1, 138660, Note_on_c, 0, 67, 0
1, 138660, Note_on_c, 0, 69, 0
1, 138720, Tempo, 380952
1, 138720, Note_on_c, 0, 73, 60
1, 138720, Note_on_c, 0, 69, 51
1, 138720, Note_on_c, 0, 67, 51
1, 138720, Note_on_c, 0, 57, 51
1, 138742, Control_c, 0, 64, 127
1, 139069, Note_on_c, 0, 57, 0
1, 139069, Note_on_c, 0, 73, 0
1, 139069, Note_on_c, 0, 69, 0
1, 139069, Note_on_c, 0, 67, 0
1, 139080, Note_on_c, 0, 67, 47
1, 139080, Note_on_c, 0, 69, 47
1, 139080, Note_on_c, 0, 73, 56
1, 139080, Note_on_c, 0, 57, 47
1, 139090, Control_c, 0, 64, 0
1, 139140, Note_on_c, 0, 57, 0
1, 139140, Note_on_c, 0, 67, 0
1, 139140, Note_on_c, 0, 69, 0
1, 139140, Note_on_c, 0, 73, 0
1, 139186, Note_on_c, 0, 67, 50
1, 139186, Note_on_c, 0, 74, 60
1, 139186, Note_on_c, 0, 69, 50
1, 139186, Note_on_c, 0, 59, 51
1, 139200, Tempo, 372671
1, 139254, Control_c, 0, 64, 127
1, 139440, Tempo, 412371
1, 139535, Note_on_c, 0, 59, 0
1, 139535, Note_on_c, 0, 67, 0
1, 139535, Note_on_c, 0, 74, 0
1, 139535, Note_on_c, 0, 69, 0
1, 139560, Note_on_c, 0, 69, 47
1, 139560, Note_on_c, 0, 67, 47
1, 139560, Note_on_c, 0, 76, 56
1, 139560, Note_on_c, 0, 61, 48
1, 139569, Control_c, 0, 64, 0
1, 139620, Note_on_c, 0, 61, 0
1, 139620, Note_on_c, 0, 69, 0
1, 139620, Note_on_c, 0, 67, 0
1, 139620, Note_on_c, 0, 76, 0
1, 139680, Tempo, 392157
1, 139680, Note_on_c, 0, 69, 64
1, 139680, Note_on_c, 0, 66, 54
1, 139680, Note_on_c, 0, 62, 54
1, 139920, Control_c, 0, 64, 127
1, 140611, Note_on_c, 0, 62, 0
1, 140611, Note_on_c, 0, 66, 0
1, 140611, Note_on_c, 0, 69, 0
1, 140640, Tempo, 387097
1, 140640, Note_on_c, 0, 78, 64
1, 140640, Note_on_c, 0, 66, 54
1, 140640, Note_on_c, 0, 69, 54
1, 140640, Note_on_c, 0, 62, 54
1, 141455, Note_on_c, 0, 62, 0
1, 141455, Note_on_c, 0, 78, 0
1, 141455, Note_on_c, 0, 66, 0
1, 141455, Note_on_c, 0, 69, 0
1, 141480, Note_on_c, 0, 66, 53
1, 141480, Note_on_c, 0, 78, 53
1, 141480, Note_on_c, 0, 62, 44
1, 141495, Control_c, 0, 64, 0
1, 141587, Note_on_c, 0, 62, 0
1, 141596, Note_on_c, 0, 78, 0
1, 141597, Note_on_c, 0, 66, 0
1, 141600, Tempo, 384615
1, 141600, Note_on_c, 0, 78, 60
1, 141600, Note_on_c, 0, 66, 60
1, 141600, Note_on_c, 0, 62, 50
1, 141692, Control_c, 0, 64, 127
1, 141720, Note_on_c, 0, 62, 0
1, 141720, Note_on_c, 0, 66, 0
1, 141720, Note_on_c, 0, 78, 0
1, 141869, Control_c, 0, 64, 0
1, 141946, Note_on_c, 0, 78, 56
1, 141946, Note_on_c, 0, 66, 56
1, 141946, Note_on_c, 0, 62, 47
1, 142062, Note_on_c, 0, 62, 0
1, 142062, Note_on_c, 0, 66, 0
1, 142062, Note_on_c, 0, 78, 0
1, 142080, Tempo, 376176
1, 142080, Note_on_c, 0, 76, 59
1, 142080, Note_on_c, 0, 68, 59
1, 142080, Note_on_c, 0, 59, 41
1, 142080, Note_on_c, 0, 62, 49
1, 142149, Control_c, 0, 64, 127
1, 142200, Note_on_c, 0, 62, 0
1, 142200, Note_on_c, 0, 76, 0
1, 142200, Note_on_c, 0, 68, 0
1, 142200, Note_on_c, 0, 59, 0
1, 142263, Control_c, 0, 64, 0
1, 142320, Tempo, 436364
1, 142440, Note_on_c, 0, 68, 56
1, 142440, Note_on_c, 0, 74, 56
1, 142440, Note_on_c, 0, 59, 40
1, 142440, Note_on_c, 0, 62, 47
1, 142560, Tempo, 389610
1, 142560, Note_on_c, 0, 62, 0
1, 142560, Note_on_c, 0, 68, 0
1, 142560, Note_on_c, 0, 74, 0
1, 142560, Note_on_c, 0, 59, 0
1, 142560, Note_on_c, 0, 69, 54
1, 142560, Note_on_c, 0, 73, 64
1, 142560, Note_on_c, 0, 57, 45
1, 142560, Note_on_c, 0, 64, 54
1, 142800, Control_c, 0, 64, 127
1, 143491, Note_on_c, 0, 64, 0
1, 143491, Note_on_c, 0, 69, 0
1, 143491, Note_on_c, 0, 73, 0
1, 143491, Note_on_c, 0, 57, 0
1, 143520, Tempo, 387097
1, 143520, Note_on_c, 0, 76, 64
1, 143520, Note_on_c, 0, 69, 54
1, 143520, Note_on_c, 0, 57, 45
1, 143520, Note_on_c, 0, 61, 54
1, 144335, Note_on_c, 0, 61, 0
1, 144335, Note_on_c, 0, 76, 0
1, 144335, Note_on_c, 0, 69, 0
1, 144335, Note_on_c, 0, 57, 0
1, 144360, Tempo, 387097
1, 144360, Note_on_c, 0, 76, 53
1, 144360, Note_on_c, 0, 70, 53
1, 144360, Note_on_c, 0, 54, 35
1, 144360, Note_on_c, 0, 61, 44
1, 144375, Control_c, 0, 64, 0
1, 144467, Note_on_c, 0, 61, 0
1, 144467, Note_on_c, 0, 54, 0
1, 144477, Note_on_c, 0, 70, 0
1, 144477, Note_on_c, 0, 76, 0
1, 144480, Tempo, 382166
1, 144480, Note_on_c, 0, 70, 60
1, 144480, Note_on_c, 0, 76, 60
1, 144480, Note_on_c, 0, 61, 50
1, 144480, Note_on_c, 0, 54, 42
1, 144572, Control_c, 0, 64, 127
1, 144600, Note_on_c, 0, 54, 0
1, 144600, Note_on_c, 0, 70, 0
1, 144600, Note_on_c, 0, 76, 0
1, 144600, Note_on_c, 0, 61, 0
1, 144699, Control_c, 0, 64, 0
1, 144826, Note_on_c, 0, 70, 56
1, 144826, Note_on_c, 0, 76, 56
1, 144826, Note_on_c, 0, 61, 47
1, 144826, Note_on_c, 0, 54, 40
1, 144942, Note_on_c, 0, 54, 0
1, 144942, Note_on_c, 0, 70, 0
1, 144942, Note_on_c, 0, 76, 0
1, 144942, Note_on_c, 0, 61, 0
1, 144960, Tempo, 377358
1, 144960, Note_on_c, 0, 74, 59
1, 144960, Note_on_c, 0, 70, 59
1, 144960, Note_on_c, 0, 54, 41
1, 144960, Note_on_c, 0, 62, 49
1, 145029, Control_c, 0, 64, 127
1, 145080, Note_on_c, 0, 62, 0
1, 145080, Note_on_c, 0, 74, 0
1, 145080, Note_on_c, 0, 70, 0
1, 145080, Note_on_c, 0, 54, 0
1, 145143, Control_c, 0, 64, 0
1, 145200, Tempo, 449438
1, 145320, Note_on_c, 0, 70, 56
1, 145320, Note_on_c, 0, 73, 56
1, 145320, Note_on_c, 0, 54, 40
1, 145320, Note_on_c, 0, 64, 47
1, 145440, Tempo, 389610
1, 145440, Note_on_c, 0, 64, 0
1, 145440, Note_on_c, 0, 70, 0
1, 145440, Note_on_c, 0, 73, 0
1, 145440, Note_on_c, 0, 54, 0
1, 145440, Note_on_c, 0, 71, 64
1, 145440, Note_on_c, 0, 55, 45
1, 145440, Note_on_c, 0, 62, 54
1, 145680, Control_c, 0, 64, 127
1, 146371, Note_on_c, 0, 62, 0
1, 146371, Note_on_c, 0, 71, 0
1, 146400, Tempo, 387097
1, 146400, Note_on_c, 0, 55, 0
1, 146400, Note_on_c, 0, 74, 64
1, 146400, Note_on_c, 0, 67, 54
1, 146400, Note_on_c, 0, 55, 45
1, 146400, Note_on_c, 0, 59, 54
1, 147215, Note_on_c, 0, 59, 0
1, 147215, Note_on_c, 0, 74, 0
1, 147215, Note_on_c, 0, 67, 0
1, 147215, Note_on_c, 0, 55, 0
1, 147240, Tempo, 387097
1, 147240, Note_on_c, 0, 67, 53
1, 147240, Note_on_c, 0, 71, 53
1, 147240, Note_on_c, 0, 61, 53
1, 147240, Note_on_c, 0, 45, 44
1, 147255, Control_c, 0, 64, 0
1, 147350, Note_on_c, 0, 45, 0
1, 147360, Tempo, 384615
1, 147360, Note_on_c, 0, 67, 0
1, 147360, Note_on_c, 0, 71, 0
1, 147360, Note_on_c, 0, 61, 0
1, 147360, Note_on_c, 0, 71, 60
1, 147360, Note_on_c, 0, 61, 60
1, 147360, Note_on_c, 0, 67, 60
1, 147360, Note_on_c, 0, 45, 50
1, 147452, Control_c, 0, 64, 127
1, 147480, Note_on_c, 0, 45, 0
1, 147480, Note_on_c, 0, 71, 0
1, 147480, Note_on_c, 0, 61, 0
1, 147480, Note_on_c, 0, 67, 0
1, 147583, Control_c, 0, 64, 0
1, 147720, Note_on_c, 0, 71, 56
1, 147720, Note_on_c, 0, 61, 56
1, 147720, Note_on_c, 0, 67, 56
1, 147720, Note_on_c, 0, 45, 47
1, 147840, Tempo, 376176
1, 147840, Note_on_c, 0, 45, 0
1, 147840, Note_on_c, 0, 71, 0
1, 147840, Note_on_c, 0, 61, 0
1, 147840, Note_on_c, 0, 67, 0
1, 147840, Note_on_c, 0, 61, 59
1, 147840, Note_on_c, 0, 66, 59
1, 147840, Note_on_c, 0, 69, 59
1, 147840, Note_on_c, 0, 45, 49
1, 147909, Control_c, 0, 64, 127
1, 147960, Note_on_c, 0, 45, 0
1, 147960, Note_on_c, 0, 61, 0
1, 147960, Note_on_c, 0, 66, 0
1, 147960, Note_on_c, 0, 69, 0
1, 148023, Control_c, 0, 64, 0
1, 148080, Tempo, 449438
1, 148200, Note_on_c, 0, 61, 56
1, 148200, Note_on_c, 0, 67, 56
1, 148200, Note_on_c, 0, 64, 56
1, 148200, Note_on_c, 0, 45, 47
1, 148320, Tempo, 401338
1, 148320, Note_on_c, 0, 45, 0
1, 148320, Note_on_c, 0, 61, 0
1, 148320, Note_on_c, 0, 67, 0
1, 148320, Note_on_c, 0, 64, 0
1, 148320, Note_on_c, 0, 57, 54
1, 148320, Note_on_c, 0, 67, 64
1, 148320, Note_on_c, 0, 64, 54
1, 148320, Note_on_c, 0, 50, 54
1, 148560, Control_c, 0, 64, 127
1, 149251, Note_on_c, 0, 50, 0
1, 149251, Note_on_c, 0, 57, 0
1, 149251, Note_on_c, 0, 67, 0
1, 149280, Tempo, 387097
1, 149280, Note_on_c, 0, 64, 0
1, 149280, Note_on_c, 0, 57, 54
1, 149280, Note_on_c, 0, 62, 54
1, 149280, Note_on_c, 0, 66, 64
1, 149280, Note_on_c, 0, 50, 54
1, 149290, Control_c, 0, 64, 0
1, 149547, Control_c, 0, 64, 127
1, 150230, Note_on_c, 0, 50, 0
1, 150230, Note_on_c, 0, 57, 0
1, 150230, Note_on_c, 0, 62, 0
1, 150230, Note_on_c, 0, 66, 0
1, 150240, Tempo, 380952
1, 150240, Note_on_c, 0, 62, 56
1, 150240, Note_on_c, 0, 69, 67
1, 150240, Note_on_c, 0, 66, 56
1, 150240, Note_on_c, 0, 50, 45
1, 150244, Control_c, 0, 64, 0
1, 150696, Note_on_c, 0, 50, 0
1, 150696, Note_on_c, 0, 62, 0
1, 150696, Note_on_c, 0, 69, 0
1, 150696, Note_on_c, 0, 66, 0
1, 150720, Tempo, 385852
1, 150720, Note_on_c, 0, 62, 53
1, 150720, Note_on_c, 0, 66, 53
1, 150720, Note_on_c, 0, 70, 63
1, 150720, Note_on_c, 0, 49, 37
1, 151200, Tempo, 352941
1, 151200, Note_on_c, 0, 49, 0
1, 151200, Note_on_c, 0, 62, 0
1, 151200, Note_on_c, 0, 66, 0
1, 151200, Note_on_c, 0, 70, 0
1, 151200, Note_on_c, 0, 62, 51
1, 151200, Note_on_c, 0, 67, 51
1, 151200, Note_on_c, 0, 71, 60
1, 151200, Note_on_c, 0, 47, 67
1, 151360, Note_on_c, 0, 47, 0
1, 151360, Note_on_c, 0, 46, 57
1, 151520, Note_on_c, 0, 46, 0
1, 151520, Note_on_c, 0, 47, 57
1, 151680, Tempo, 356083
1, 151680, Note_on_c, 0, 47, 0
1, 151680, Note_on_c, 0, 43, 68
1, 151840, Note_on_c, 0, 43, 0
1, 151840, Note_on_c, 0, 42, 61
1, 152000, Tempo, 401338
1, 152000, Note_on_c, 0, 42, 0
1, 152000, Note_on_c, 0, 43, 65
1, 152160, Tempo, 364742
1, 152160, Note_on_c, 0, 43, 0
1, 152160, Note_on_c, 0, 71, 0
1, 152160, Note_on_c, 0, 67, 0
1, 152160, Note_on_c, 0, 62, 0
1, 152160, Note_on_c, 0, 71, 56
1, 152160, Note_on_c, 0, 76, 67
1, 152160, Note_on_c, 0, 67, 56
1, 152160, Note_on_c, 0, 40, 74
1, 152626, Note_on_c, 0, 67, 0
1, 152626, Note_on_c, 0, 71, 0
1, 152626, Note_on_c, 0, 76, 0
1, 152640, Note_on_c, 0, 76, 58
1, 152640, Note_on_c, 0, 79, 70
1, 152640, Note_on_c, 0, 71, 58
1, 152880, Note_on_c, 0, 71, 0
1, 152880, Note_on_c, 0, 79, 0
1, 152880, Note_on_c, 0, 76, 0
1, 153000, Note_on_c, 0, 40, 0
1, 153000, Note_on_c, 0, 42, 61
1, 153120, Note_on_c, 0, 42, 0
1, 153120, Note_on_c, 0, 71, 53
1, 153120, Note_on_c, 0, 76, 63
1, 153120, Note_on_c, 0, 67, 53
1, 153120, Note_on_c, 0, 43, 69
1, 153360, Note_on_c, 0, 67, 0
1, 153360, Note_on_c, 0, 71, 0
1, 153370, Note_on_c, 0, 76, 0
1, 153480, Note_on_c, 0, 43, 0
1, 153480, Note_on_c, 0, 45, 62
1, 153600, Tempo, 361446
1, 153600, Note_on_c, 0, 45, 0
1, 153600, Note_on_c, 0, 64, 49
1, 153600, Note_on_c, 0, 67, 58
1, 153600, Note_on_c, 0, 47, 70
1, 153840, Note_on_c, 0, 67, 0
1, 153840, Note_on_c, 0, 64, 0
1, 153920, Tempo, 400000
1, 153960, Note_on_c, 0, 47, 0
1, 153960, Note_on_c, 0, 50, 62
1, 154080, Tempo, 351906
1, 154080, Note_on_c, 0, 50, 0
1, 154080, Note_on_c, 0, 64, 55
1, 154080, Note_on_c, 0, 69, 55
1, 154080, Note_on_c, 0, 73, 65
1, 154080, Note_on_c, 0, 49, 69
1, 154240, Note_on_c, 0, 49, 0
1, 154240, Note_on_c, 0, 48, 63
1, 154400, Note_on_c, 0, 48, 0
1, 154400, Note_on_c, 0, 49, 59
1, 154560, Tempo, 359281
1, 154560, Note_on_c, 0, 49, 0
1, 154560, Note_on_c, 0, 45, 68
1, 154720, Note_on_c, 0, 45, 0
1, 154720, Note_on_c, 0, 44, 65
1, 154880, Tempo, 401338
1, 154880, Note_on_c, 0, 44, 0
1, 154880, Note_on_c, 0, 45, 69
1, 155040, Tempo, 364742
1, 155040, Note_on_c, 0, 45, 0
1, 155040, Note_on_c, 0, 73, 0
1, 155040, Note_on_c, 0, 69, 0
1, 155040, Note_on_c, 0, 64, 0
1, 155040, Note_on_c, 0, 73, 59
1, 155040, Note_on_c, 0, 78, 70
1, 155040, Note_on_c, 0, 69, 59
1, 155040, Note_on_c, 0, 42, 74
1, 155506, Note_on_c, 0, 69, 0
1, 155506, Note_on_c, 0, 73, 0
1, 155506, Note_on_c, 0, 78, 0
1, 155520, Note_on_c, 0, 73, 59
1, 155520, Note_on_c, 0, 81, 71
1, 155520, Note_on_c, 0, 78, 59
1, 155760, Note_on_c, 0, 78, 0
1, 155760, Note_on_c, 0, 81, 0
1, 155760, Note_on_c, 0, 73, 0
1, 155880, Note_on_c, 0, 42, 0
1, 155880, Note_on_c, 0, 44, 61
1, 156000, Note_on_c, 0, 44, 0
1, 156000, Note_on_c, 0, 69, 51
1, 156000, Note_on_c, 0, 78, 60
1, 156000, Note_on_c, 0, 73, 51
1, 156000, Note_on_c, 0, 45, 69
1, 156240, Note_on_c, 0, 73, 0
1, 156240, Note_on_c, 0, 69, 0
1, 156240, Note_on_c, 0, 78, 0
1, 156360, Note_on_c, 0, 45, 0
1, 156360, Note_on_c, 0, 47, 62
1, 156480, Tempo, 361446
1, 156480, Note_on_c, 0, 47, 0
1, 156480, Note_on_c, 0, 66, 47
1, 156480, Note_on_c, 0, 69, 56
1, 156480, Note_on_c, 0, 49, 70
1, 156720, Note_on_c, 0, 69, 0
1, 156720, Note_on_c, 0, 66, 0
1, 156800, Tempo, 400000
1, 156840, Note_on_c, 0, 49, 0
1, 156840, Note_on_c, 0, 52, 62
1, 156960, Tempo, 352941
1, 156960, Note_on_c, 0, 52, 0
1, 156960, Note_on_c, 0, 71, 56
1, 156960, Note_on_c, 0, 74, 67
1, 156960, Note_on_c, 0, 66, 56
1, 156960, Note_on_c, 0, 50, 70
1, 157120, Note_on_c, 0, 50, 0
1, 157120, Note_on_c, 0, 49, 58
1, 157280, Note_on_c, 0, 49, 0
1, 157280, Note_on_c, 0, 50, 58
1, 157440, Tempo, 361446
1, 157440, Note_on_c, 0, 50, 0
1, 157440, Note_on_c, 0, 47, 63
1, 157600, Note_on_c, 0, 47, 0
1, 157600, Note_on_c, 0, 46, 65
1, 157760, Tempo, 401338
1, 157760, Note_on_c, 0, 46, 0
1, 157760, Note_on_c, 0, 47, 68
1, 157920, Tempo, 364742
1, 157920, Note_on_c, 0, 47, 0
1, 157920, Note_on_c, 0, 66, 0
1, 157920, Note_on_c, 0, 74, 0
1, 157920, Note_on_c, 0, 71, 0
1, 157920, Note_on_c, 0, 74, 63
1, 157920, Note_on_c, 0, 79, 74
1, 157920, Note_on_c, 0, 71, 63
1, 157920, Note_on_c, 0, 43, 72
1, 158386, Note_on_c, 0, 71, 0
1, 158386, Note_on_c, 0, 74, 0
1, 158386, Note_on_c, 0, 79, 0
1, 158400, Note_on_c, 0, 74, 63
1, 158400, Note_on_c, 0, 83, 74
1, 158400, Note_on_c, 0, 79, 74
1, 158640, Note_on_c, 0, 79, 0
1, 158640, Note_on_c, 0, 83, 0
1, 158640, Note_on_c, 0, 74, 0
1, 158760, Note_on_c, 0, 43, 0
1, 158760, Note_on_c, 0, 45, 59
1, 158880, Tempo, 370370
1, 158880, Note_on_c, 0, 45, 0
1, 158880, Note_on_c, 0, 71, 60
1, 158880, Note_on_c, 0, 79, 71
1, 158880, Note_on_c, 0, 74, 60
1, 158880, Note_on_c, 0, 47, 73
1, 159120, Note_on_c, 0, 74, 0
1, 159120, Note_on_c, 0, 71, 0
1, 159120, Note_on_c, 0, 79, 0
1, 159240, Note_on_c, 0, 47, 0
1, 159240, Note_on_c, 0, 49, 57
1, 159360, Tempo, 390879
1, 159360, Note_on_c, 0, 49, 0
1, 159360, Note_on_c, 0, 67, 68
1, 159360, Note_on_c, 0, 71, 75
1, 159360, Note_on_c, 0, 50, 71
1, 159600, Note_on_c, 0, 71, 0
1, 159600, Note_on_c, 0, 67, 0
1, 159680, Tempo, 489796
1, 159720, Note_on_c, 0, 50, 0
1, 159720, Note_on_c, 0, 54, 58
1, 159840, Tempo, 398671
1, 159840, Note_on_c, 0, 54, 0
1, 159840, Note_on_c, 0, 79, 66
1, 159840, Note_on_c, 0, 73, 66
1, 159840, Note_on_c, 0, 69, 66
1, 159840, Note_on_c, 0, 81, 78
1, 159840, Note_on_c, 0, 52, 85
1, 160042, Control_c, 0, 64, 127
1, 160771, Note_on_c, 0, 52, 0
1, 160771, Note_on_c, 0, 69, 0
1, 160771, Note_on_c, 0, 81, 0
1, 160771, Note_on_c, 0, 73, 0
1, 160800, Tempo, 387097
1, 160800, Note_on_c, 0, 79, 0
1, 160800, Note_on_c, 0, 73, 61
1, 160800, Note_on_c, 0, 81, 72
1, 160800, Note_on_c, 0, 69, 61
1, 160800, Note_on_c, 0, 79, 61
1, 160800, Note_on_c, 0, 52, 68
1, 160800, Note_on_c, 0, 57, 81
1, 161615, Note_on_c, 0, 57, 0
1, 161615, Note_on_c, 0, 81, 0
1, 161615, Note_on_c, 0, 69, 0
1, 161615, Note_on_c, 0, 73, 0
1, 161615, Note_on_c, 0, 52, 0
1, 161615, Note_on_c, 0, 79, 0
1, 161640, Tempo, 387097
1, 161640, Note_on_c, 0, 79, 58
1, 161640, Note_on_c, 0, 73, 58
1, 161640, Note_on_c, 0, 81, 73
1, 161640, Note_on_c, 0, 45, 56
1, 161640, Note_on_c, 0, 57, 66
1, 161650, Control_c, 0, 64, 0
1, 161754, Note_on_c, 0, 81, 0
1, 161754, Note_on_c, 0, 79, 0
1, 161754, Note_on_c, 0, 73, 0
1, 161760, Tempo, 382166
1, 161760, Note_on_c, 0, 45, 0
1, 161760, Note_on_c, 0, 57, 0
1, 161760, Note_on_c, 0, 79, 66
1, 161760, Note_on_c, 0, 73, 66
1, 161760, Note_on_c, 0, 81, 82
1, 161760, Note_on_c, 0, 45, 58
1, 161760, Note_on_c, 0, 57, 69
1, 161851, Control_c, 0, 64, 127
1, 162092, Note_on_c, 0, 57, 0
1, 162092, Note_on_c, 0, 45, 0
1, 162093, Note_on_c, 0, 81, 0
1, 162102, Note_on_c, 0, 73, 0
1, 162102, Note_on_c, 0, 79, 0
1, 162120, Note_on_c, 0, 79, 63
1, 162120, Note_on_c, 0, 81, 80
1, 162120, Note_on_c, 0, 73, 63
1, 162120, Note_on_c, 0, 43, 55
1, 162120, Note_on_c, 0, 55, 65
1, 162234, Note_on_c, 0, 73, 0
1, 162234, Note_on_c, 0, 79, 0
1, 162234, Note_on_c, 0, 81, 0
1, 162240, Tempo, 375000
1, 162240, Note_on_c, 0, 43, 0
1, 162240, Note_on_c, 0, 55, 0
1, 162240, Note_on_c, 0, 83, 85
1, 162240, Note_on_c, 0, 73, 67
1, 162240, Note_on_c, 0, 79, 67
1, 162240, Note_on_c, 0, 42, 60
1, 162240, Note_on_c, 0, 54, 72
1, 162247, Control_c, 0, 64, 0
1, 162339, Control_c, 0, 64, 127
1, 162480, Tempo, 452830
1, 162572, Note_on_c, 0, 54, 0
1, 162572, Note_on_c, 0, 42, 0
1, 162582, Note_on_c, 0, 83, 0
1, 162582, Note_on_c, 0, 73, 0
1, 162582, Note_on_c, 0, 79, 0
1, 162600, Note_on_c, 0, 85, 83
1, 162600, Note_on_c, 0, 73, 65
1, 162600, Note_on_c, 0, 79, 65
1, 162600, Note_on_c, 0, 40, 62
1, 162600, Note_on_c, 0, 52, 74
1, 162720, Tempo, 388350
1, 162720, Note_on_c, 0, 52, 0
1, 162720, Note_on_c, 0, 79, 0
1, 162720, Note_on_c, 0, 85, 0
1, 162720, Note_on_c, 0, 73, 0
1, 162720, Note_on_c, 0, 40, 0
1, 162720, Note_on_c, 0, 74, 78
1, 162720, Note_on_c, 0, 78, 78
1, 162720, Note_on_c, 0, 86, 93
1, 162720, Note_on_c, 0, 38, 65
1, 162720, Note_on_c, 0, 45, 65
1, 162720, Note_on_c, 0, 50, 74
1, 162726, Control_c, 0, 64, 0
1, 163040, Control_c, 0, 64, 127
1, 163651, Note_on_c, 0, 50, 0
1, 163651, Note_on_c, 0, 78, 0
1, 163651, Note_on_c, 0, 86, 0
1, 163651, Note_on_c, 0, 74, 0
1, 163651, Note_on_c, 0, 45, 0
1, 163651, Note_on_c, 0, 38, 0
1, 163680, Note_on_c, 0, 74, 78
1, 163680, Note_on_c, 0, 86, 93
1, 163680, Note_on_c, 0, 78, 78
1, 163680, Note_on_c, 0, 45, 65
1, 163680, Note_on_c, 0, 38, 65
1, 163680, Note_on_c, 0, 50, 74
1, 164500, Note_on_c, 0, 50, 0
1, 164500, Note_on_c, 0, 86, 0
1, 164500, Note_on_c, 0, 78, 0
1, 164500, Note_on_c, 0, 74, 0
1, 164500, Note_on_c, 0, 38, 0
1, 164500, Note_on_c, 0, 45, 0
1, 164520, Tempo, 387097
1, 164520, Note_on_c, 0, 69, 56
1, 164520, Note_on_c, 0, 66, 47
1, 164525, Control_c, 0, 64, 0
1, 164580, Note_on_c, 0, 66, 0
1, 164580, Note_on_c, 0, 69, 0
1, 164640, Tempo, 380952
1, 164640, Note_on_c, 0, 66, 51
1, 164640, Note_on_c, 0, 69, 60
1, 164662, Control_c, 0, 64, 127
1, 164989, Note_on_c, 0, 69, 0
1, 164989, Note_on_c, 0, 66, 0
1, 165000, Note_on_c, 0, 66, 47
1, 165000, Note_on_c, 0, 69, 56
1, 165010, Control_c, 0, 64, 0
1, 165060, Note_on_c, 0, 69, 0
1, 165060, Note_on_c, 0, 66, 0
1, 165120, Tempo, 372671
1, 165120, Note_on_c, 0, 67, 60
1, 165120, Note_on_c, 0, 64, 50
1, 165174, Control_c, 0, 64, 127
1, 165360, Tempo, 412371
1, 165469, Note_on_c, 0, 64, 0
1, 165469, Note_on_c, 0, 67, 0
1, 165480, Note_on_c, 0, 66, 56
1, 165480, Note_on_c, 0, 62, 47
1, 165489, Control_c, 0, 64, 0
1, 165540, Note_on_c, 0, 62, 0
1, 165540, Note_on_c, 0, 66, 0
1, 165600, Tempo, 392157
1, 165600, Note_on_c, 0, 57, 54
1, 165600, Note_on_c, 0, 64, 64
1, 165600, Note_on_c, 0, 45, 45
1, 165600, Note_on_c, 0, 49, 45
1, 165600, Note_on_c, 0, 55, 54
1, 165840, Control_c, 0, 64, 127
1, 166531, Note_on_c, 0, 55, 0
1, 166531, Note_on_c, 0, 57, 0
1, 166531, Note_on_c, 0, 64, 0
1, 166560, Tempo, 387097
1, 166560, Note_on_c, 0, 45, 0
1, 166560, Note_on_c, 0, 49, 0
1, 166560, Note_on_c, 0, 57, 54
1, 166560, Note_on_c, 0, 64, 64
1, 166560, Note_on_c, 0, 45, 45
1, 166560, Note_on_c, 0, 49, 45
1, 166560, Note_on_c, 0, 55, 54
1, 167040, Tempo, 396040
1, 167375, Note_on_c, 0, 64, 0
1, 167375, Note_on_c, 0, 57, 0
1, 167400, Tempo, 396040
1, 167400, Note_on_c, 0, 71, 50
1, 167400, Note_on_c, 0, 67, 41
1, 167405, Control_c, 0, 64, 0
1, 167460, Note_on_c, 0, 67, 0
1, 167460, Note_on_c, 0, 71, 0
1, 167520, Tempo, 388350
1, 167520, Note_on_c, 0, 55, 0
1, 167520, Note_on_c, 0, 45, 0
1, 167520, Note_on_c, 0, 49, 0
1, 167520, Note_on_c, 0, 66, 44
1, 167520, Note_on_c, 0, 69, 53
1, 167542, Control_c, 0, 64, 127
1, 167869, Note_on_c, 0, 69, 0
1, 167869, Note_on_c, 0, 66, 0
1, 167880, Note_on_c, 0, 67, 47
1, 167880, Note_on_c, 0, 64, 39
1, 167890, Control_c, 0, 64, 0
1, 167940, Note_on_c, 0, 64, 0
1, 167940, Note_on_c, 0, 67, 0
1, 168000, Tempo, 384615
1, 168000, Note_on_c, 0, 62, 41
1, 168000, Note_on_c, 0, 66, 50
1, 168054, Control_c, 0, 64, 127
1, 168240, Tempo, 487805
1, 168349, Note_on_c, 0, 66, 0
1, 168349, Note_on_c, 0, 62, 0
1, 168360, Note_on_c, 0, 64, 44
1, 168360, Note_on_c, 0, 57, 36
1, 168369, Control_c, 0, 64, 0
1, 168420, Note_on_c, 0, 57, 0
1, 168420, Note_on_c, 0, 64, 0
1, 168480, Tempo, 419580
1, 168480, Note_on_c, 0, 54, 39
1, 168480, Note_on_c, 0, 62, 46
1, 168480, Note_on_c, 0, 38, 33
1, 168480, Note_on_c, 0, 45, 33
1, 168480, Note_on_c, 0, 50, 39
1, 168720, Control_c, 0, 64, 127
1, 169411, Note_on_c, 0, 50, 0
1, 169411, Note_on_c, 0, 54, 0
1, 169411, Note_on_c, 0, 62, 0
1, 169440, Tempo, 416667
1, 169440, Note_on_c, 0, 38, 0
1, 169440, Note_on_c, 0, 45, 0
1, 169440, Note_on_c, 0, 54, 37
1, 169440, Note_on_c, 0, 62, 44
1, 169440, Note_on_c, 0, 38, 31
1, 169440, Note_on_c, 0, 45, 31
1, 169440, Note_on_c, 0, 50, 37
1, 170255, Note_on_c, 0, 50, 0
1, 170255, Note_on_c, 0, 38, 0
1, 170255, Note_on_c, 0, 54, 0
1, 170255, Note_on_c, 0, 62, 0
1, 170255, Note_on_c, 0, 45, 0
1, 170280, Tempo, 387097
1, 170280, Marker_t, "Teil 2 Wiederholung"
1, 170280, Note_on_c, 0, 57, 70
1, 170280, Note_on_c, 0, 45, 60
1, 170283, Control_c, 0, 64, 0
1, 170340, Note_on_c, 0, 45, 0
1, 170340, Note_on_c, 0, 57, 0
1, 170400, Note_on_c, 0, 57, 76
1, 170400, Note_on_c, 0, 45, 64
1, 170436, Control_c, 0, 64, 127
1, 170520, Note_on_c, 0, 45, 0
1, 170520, Note_on_c, 0, 57, 0
1, 170630, Control_c, 0, 64, 0
1, 170640, Tempo, 366972
1, 170760, Note_on_c, 0, 57, 70
1, 170760, Note_on_c, 0, 45, 59
1, 170820, Note_on_c, 0, 45, 0
1, 170820, Note_on_c, 0, 57, 0
1, 170880, Tempo, 361446
1, 170880, Note_on_c, 0, 55, 75
1, 170880, Note_on_c, 0, 43, 64
1, 170934, Control_c, 0, 64, 127
1, 171000, Note_on_c, 0, 43, 0
1, 171000, Note_on_c, 0, 55, 0
1, 171071, Control_c, 0, 64, 0
1, 171120, Tempo, 412371
1, 171240, Note_on_c, 0, 57, 70
1, 171240, Note_on_c, 0, 45, 60
1, 171300, Note_on_c, 0, 45, 0
1, 171300, Note_on_c, 0, 57, 0
1, 171360, Tempo, 392157
1, 171360, Note_on_c, 0, 58, 68
1, 171360, Note_on_c, 0, 55, 68
1, 171360, Note_on_c, 0, 61, 80
1, 171360, Note_on_c, 0, 52, 68
1, 171360, Note_on_c, 0, 34, 57
1, 171360, Note_on_c, 0, 46, 68
1, 171600, Control_c, 0, 64, 127
1, 172291, Note_on_c, 0, 46, 0
1, 172291, Note_on_c, 0, 55, 0
1, 172291, Note_on_c, 0, 61, 0
1, 172291, Note_on_c, 0, 52, 0
1, 172291, Note_on_c, 0, 34, 0
1, 172320, Tempo, 387097
1, 172320, Note_on_c, 0, 58, 0
1, 172320, Note_on_c, 0, 55, 68
1, 172320, Note_on_c, 0, 61, 80
1, 172320, Note_on_c, 0, 58, 68
1, 172320, Note_on_c, 0, 52, 68
1, 172320, Note_on_c, 0, 34, 57
1, 172320, Note_on_c, 0, 46, 68
1, 173135, Note_on_c, 0, 46, 0
1, 173135, Note_on_c, 0, 61, 0
1, 173135, Note_on_c, 0, 58, 0
1, 173135, Note_on_c, 0, 55, 0
1, 173135, Note_on_c, 0, 34, 0
1, 173135, Note_on_c, 0, 52, 0
1, 173160, Tempo, 387097
1, 173160, Note_on_c, 0, 69, 70
1, 173160, Note_on_c, 0, 57, 60
1, 173175, Control_c, 0, 64, 0
1, 173220, Note_on_c, 0, 57, 0
1, 173220, Note_on_c, 0, 69, 0
1, 173280, Tempo, 373832
1, 173280, Note_on_c, 0, 69, 76
1, 173280, Note_on_c, 0, 57, 64
1, 173340, Control_c, 0, 64, 127
1, 173400, Note_on_c, 0, 57, 0
1, 173400, Note_on_c, 0, 69, 0
1, 173499, Control_c, 0, 64, 0
1, 173640, Note_on_c, 0, 69, 70
1, 173640, Note_on_c, 0, 57, 59
1, 173700, Note_on_c, 0, 57, 0
1, 173700, Note_on_c, 0, 69, 0
1, 173760, Tempo, 362538
1, 173760, Note_on_c, 0, 67, 75
1, 173760, Note_on_c, 0, 55, 64
1, 173814, Control_c, 0, 64, 127
1, 173880, Note_on_c, 0, 55, 0
1, 173880, Note_on_c, 0, 67, 0
1, 173961, Control_c, 0, 64, 0
1, 174000, Tempo, 412371
1, 174120, Note_on_c, 0, 69, 70
1, 174120, Note_on_c, 0, 57, 60
1, 174180, Note_on_c, 0, 57, 0
1, 174180, Note_on_c, 0, 69, 0
1, 174240, Tempo, 392157
1, 174240, Note_on_c, 0, 62, 68
1, 174240, Note_on_c, 0, 70, 68
1, 174240, Note_on_c, 0, 74, 80
1, 174240, Note_on_c, 0, 65, 68
1, 174240, Note_on_c, 0, 53, 57
1, 174240, Note_on_c, 0, 46, 57
1, 174240, Note_on_c, 0, 58, 68
1, 174480, Control_c, 0, 64, 127
1, 175171, Note_on_c, 0, 58, 0
1, 175171, Note_on_c, 0, 65, 0
1, 175171, Note_on_c, 0, 62, 0
1, 175171, Note_on_c, 0, 74, 0
1, 175171, Note_on_c, 0, 46, 0
1, 175200, Tempo, 387097
1, 175200, Note_on_c, 0, 70, 0
1, 175200, Note_on_c, 0, 53, 0
1, 175200, Note_on_c, 0, 70, 68
1, 175200, Note_on_c, 0, 74, 80
1, 175200, Note_on_c, 0, 62, 68
1, 175200, Note_on_c, 0, 65, 68
1, 175200, Note_on_c, 0, 53, 57
1, 175200, Note_on_c, 0, 46, 57
1, 175200, Note_on_c, 0, 58, 68
1, 176015, Note_on_c, 0, 58, 0
1, 176015, Note_on_c, 0, 53, 0
1, 176015, Note_on_c, 0, 74, 0
1, 176015, Note_on_c, 0, 62, 0
1, 176015, Note_on_c, 0, 70, 0
1, 176015, Note_on_c, 0, 46, 0
1, 176015, Note_on_c, 0, 65, 0
1, 176040, Tempo, 387097
1, 176040, Note_on_c, 0, 74, 59
1, 176040, Note_on_c, 0, 77, 70
1, 176040, Note_on_c, 0, 62, 51
1, 176040, Note_on_c, 0, 65, 60
1, 176055, Control_c, 0, 64, 0
1, 176100, Note_on_c, 0, 65, 0
1, 176100, Note_on_c, 0, 74, 0
1, 176100, Note_on_c, 0, 77, 0
1, 176100, Note_on_c, 0, 62, 0
1, 176160, Tempo, 377358
1, 176160, Note_on_c, 0, 74, 64
1, 176160, Note_on_c, 0, 77, 76
1, 176160, Note_on_c, 0, 62, 54
1, 176160, Note_on_c, 0, 65, 64
1, 176220, Control_c, 0, 64, 127
1, 176280, Note_on_c, 0, 65, 0
1, 176280, Note_on_c, 0, 74, 0
1, 176280, Note_on_c, 0, 77, 0
1, 176280, Note_on_c, 0, 62, 0
1, 176346, Control_c, 0, 64, 0
1, 176520, Note_on_c, 0, 77, 70
1, 176520, Note_on_c, 0, 74, 59
1, 176520, Note_on_c, 0, 62, 50
1, 176520, Note_on_c, 0, 65, 59
1, 176580, Note_on_c, 0, 65, 0
1, 176580, Note_on_c, 0, 77, 0
1, 176580, Note_on_c, 0, 74, 0
1, 176580, Note_on_c, 0, 62, 0
1, 176640, Tempo, 365854
1, 176640, Note_on_c, 0, 73, 63
1, 176640, Note_on_c, 0, 76, 75
1, 176640, Note_on_c, 0, 61, 54
1, 176640, Note_on_c, 0, 64, 64
1, 176694, Control_c, 0, 64, 127
1, 176760, Note_on_c, 0, 64, 0
1, 176760, Note_on_c, 0, 73, 0
1, 176760, Note_on_c, 0, 76, 0
1, 176760, Note_on_c, 0, 61, 0
1, 176835, Control_c, 0, 64, 0
1, 176880, Tempo, 397351
1, 177000, Note_on_c, 0, 74, 59
1, 177000, Note_on_c, 0, 77, 70
1, 177000, Note_on_c, 0, 62, 51
1, 177000, Note_on_c, 0, 65, 60
1, 177060, Note_on_c, 0, 65, 0
1, 177060, Note_on_c, 0, 74, 0
1, 177060, Note_on_c, 0, 77, 0
1, 177060, Note_on_c, 0, 62, 0
1, 177120, Tempo, 376176
1, 177120, Note_on_c, 0, 70, 64
1, 177120, Note_on_c, 0, 74, 76
1, 177120, Note_on_c, 0, 58, 54
1, 177120, Note_on_c, 0, 62, 64
1, 177180, Control_c, 0, 64, 127
1, 177240, Note_on_c, 0, 62, 0
1, 177240, Note_on_c, 0, 70, 0
1, 177240, Note_on_c, 0, 74, 0
1, 177240, Note_on_c, 0, 58, 0
1, 177306, Control_c, 0, 64, 0
1, 177480, Note_on_c, 0, 74, 70
1, 177480, Note_on_c, 0, 70, 59
1, 177480, Note_on_c, 0, 58, 50
1, 177480, Note_on_c, 0, 62, 59
1, 177540, Note_on_c, 0, 62, 0
1, 177540, Note_on_c, 0, 74, 0
1, 177540, Note_on_c, 0, 70, 0
1, 177540, Note_on_c, 0, 58, 0
1, 177600, Tempo, 364742
1, 177600, Note_on_c, 0, 73, 75
1, 177600, Note_on_c, 0, 69, 63
1, 177600, Note_on_c, 0, 57, 54
1, 177600, Note_on_c, 0, 61, 64
1, 177643, Control_c, 0, 64, 127
1, 177720, Note_on_c, 0, 61, 0
1, 177720, Note_on_c, 0, 73, 0
1, 177720, Note_on_c, 0, 69, 0
1, 177720, Note_on_c, 0, 57, 0
1, 177769, Control_c, 0, 64, 0
1, 177840, Tempo, 397351
1, 177960, Note_on_c, 0, 74, 70
1, 177960, Note_on_c, 0, 70, 59
1, 177960, Note_on_c, 0, 58, 51
1, 177960, Note_on_c, 0, 62, 60
1, 178020, Note_on_c, 0, 62, 0
1, 178020, Note_on_c, 0, 74, 0
1, 178020, Note_on_c, 0, 70, 0
1, 178020, Note_on_c, 0, 58, 0
1, 178071, Tempo, 387097
1, 178080, Tempo, 378549
1, 178080, Note_on_c, 0, 70, 76
1, 178080, Note_on_c, 0, 67, 64
1, 178080, Note_on_c, 0, 55, 54
1, 178080, Note_on_c, 0, 58, 64
1, 178131, Control_c, 0, 64, 127
1, 178200, Note_on_c, 0, 58, 0
1, 178200, Note_on_c, 0, 70, 0
1, 178200, Note_on_c, 0, 67, 0
1, 178200, Note_on_c, 0, 55, 0
1, 178257, Control_c, 0, 64, 0
1, 178440, Note_on_c, 0, 67, 59
1, 178440, Note_on_c, 0, 70, 70
1, 178440, Note_on_c, 0, 58, 59
1, 178440, Note_on_c, 0, 55, 50
1, 178500, Note_on_c, 0, 55, 0
1, 178500, Note_on_c, 0, 67, 0
1, 178500, Note_on_c, 0, 70, 0
1, 178500, Note_on_c, 0, 58, 0
1, 178560, Tempo, 369231
1, 178560, Note_on_c, 0, 69, 75
1, 178560, Note_on_c, 0, 66, 63
1, 178560, Note_on_c, 0, 57, 64
1, 178560, Note_on_c, 0, 54, 54
1, 178605, Control_c, 0, 64, 127
1, 178680, Note_on_c, 0, 54, 0
1, 178680, Note_on_c, 0, 69, 0
1, 178680, Note_on_c, 0, 66, 0
1, 178680, Note_on_c, 0, 57, 0
1, 178768, Control_c, 0, 64, 0
1, 178791, Tempo, 412371
1, 178800, Tempo, 402685
1, 178920, Note_on_c, 0, 70, 70
1, 178920, Note_on_c, 0, 67, 59
1, 178920, Note_on_c, 0, 58, 60
1, 178920, Note_on_c, 0, 55, 51
1, 178980, Note_on_c, 0, 55, 0
1, 178980, Note_on_c, 0, 70, 0
1, 178980, Note_on_c, 0, 67, 0
1, 178980, Note_on_c, 0, 58, 0
1, 179040, Tempo, 392157
1, 179040, Note_on_c, 0, 67, 80
1, 179040, Note_on_c, 0, 63, 68
1, 179040, Note_on_c, 0, 51, 57
1, 179040, Note_on_c, 0, 55, 68
1, 179280, Control_c, 0, 64, 127
1, 179971, Note_on_c, 0, 55, 0
1, 179971, Note_on_c, 0, 67, 0
1, 180000, Tempo, 401338
1, 180000, Note_on_c, 0, 51, 0
1, 180000, Note_on_c, 0, 63, 0
1, 180000, Note_on_c, 0, 67, 74
1, 180000, Note_on_c, 0, 75, 74
1, 180000, Note_on_c, 0, 79, 88
1, 180000, Note_on_c, 0, 71, 74
1, 180000, Note_on_c, 0, 38, 57
1, 180000, Note_on_c, 0, 50, 68
1, 180016, Control_c, 0, 64, 0
1, 180184, Control_c, 0, 64, 127
1, 180950, Note_on_c, 0, 50, 0
1, 180950, Note_on_c, 0, 75, 0
1, 180950, Note_on_c, 0, 79, 0
1, 180950, Note_on_c, 0, 67, 0
1, 180950, Note_on_c, 0, 38, 0
1, 180950, Note_on_c, 0, 71, 0
1, 180960, Tempo, 402685
1, 180960, Note_on_c, 0, 75, 74
1, 180960, Note_on_c, 0, 79, 88
1, 180960, Note_on_c, 0, 67, 74
1, 180960, Note_on_c, 0, 72, 74
1, 180960, Note_on_c, 0, 36, 57
1, 180960, Note_on_c, 0, 48, 68
1, 180976, Control_c, 0, 64, 0
1, 181144, Control_c, 0, 64, 127
1, 181910, Note_on_c, 0, 48, 0
1, 181910, Note_on_c, 0, 79, 0
1, 181910, Note_on_c, 0, 67, 0
1, 181910, Note_on_c, 0, 75, 0
1, 181910, Note_on_c, 0, 36, 0
1, 181910, Note_on_c, 0, 72, 0
1, 181920, Tempo, 412371
1, 181920, Note_on_c, 0, 74, 74
1, 181920, Note_on_c, 0, 77, 88
1, 181920, Note_on_c, 0, 65, 74
1, 181920, Note_on_c, 0, 41, 57
1, 181920, Note_on_c, 0, 53, 68
1, 181933, Control_c, 0, 64, 0
1, 182040, Note_on_c, 0, 53, 0
1, 182040, Note_on_c, 0, 65, 0
1, 182040, Note_on_c, 0, 74, 0
1, 182040, Note_on_c, 0, 77, 0
1, 182040, Note_on_c, 0, 41, 0
1, 182400, Tempo, 436364
1, 182400, Note_on_c, 0, 72, 74
1, 182400, Note_on_c, 0, 69, 74
1, 182400, Note_on_c, 0, 75, 74
1, 182400, Note_on_c, 0, 81, 88
1, 182400, Note_on_c, 0, 41, 57
1, 182400, Note_on_c, 0, 53, 68
1, 182520, Note_on_c, 0, 53, 0
1, 182520, Note_on_c, 0, 69, 0
1, 182520, Note_on_c, 0, 75, 0
1, 182520, Note_on_c, 0, 72, 0
1, 182520, Note_on_c, 0, 41, 0
1, 182520, Note_on_c, 0, 81, 0
1, 182880, Tempo, 424028
1, 182880, Note_on_c, 0, 74, 85
1, 182880, Note_on_c, 0, 70, 85
1, 182880, Note_on_c, 0, 82, 101
1, 182880, Note_on_c, 0, 34, 57
1, 182880, Note_on_c, 0, 46, 68
1, 183064, Control_c, 0, 64, 127
1, 183830, Note_on_c, 0, 46, 0
1, 183830, Note_on_c, 0, 82, 0
1, 183830, Note_on_c, 0, 74, 0
1, 183830, Note_on_c, 0, 70, 0
1, 183830, Note_on_c, 0, 34, 0
1, 183840, Tempo, 463320
1, 183840, Note_on_c, 0, 58, 74
1, 183840, Note_on_c, 0, 62, 74
1, 183840, Note_on_c, 0, 70, 88
1, 183840, Note_on_c, 0, 46, 57
1, 183840, Note_on_c, 0, 53, 68
1, 184655, Note_on_c, 0, 53, 0
1, 184655, Note_on_c, 0, 70, 0
1, 184655, Note_on_c, 0, 58, 0
1, 184655, Note_on_c, 0, 62, 0
1, 184655, Note_on_c, 0, 46, 0
1, 184680, Tempo, 387097
1, 184680, Note_on_c, 0, 74, 47
1, 184680, Note_on_c, 0, 77, 56
1, 184695, Control_c, 0, 64, 0
1, 184732, Control_c, 0, 64, 127
1, 184740, Note_on_c, 0, 77, 0
1, 184740, Note_on_c, 0, 74, 0
1, 184800, Tempo, 377358
1, 184800, Note_on_c, 0, 74, 51
1, 184800, Note_on_c, 0, 77, 60
1, 184920, Note_on_c, 0, 77, 0
1, 184920, Note_on_c, 0, 74, 0
1, 185160, Note_on_c, 0, 74, 47
1, 185160, Note_on_c, 0, 77, 56
1, 185220, Note_on_c, 0, 77, 0
1, 185220, Note_on_c, 0, 74, 0
1, 185280, Tempo, 368098
1, 185280, Note_on_c, 0, 73, 50
1, 185280, Note_on_c, 0, 76, 60
1, 185297, Control_c, 0, 64, 0
1, 185349, Control_c, 0, 64, 127
1, 185400, Note_on_c, 0, 76, 0
1, 185400, Note_on_c, 0, 73, 0
1, 185520, Tempo, 442804
1, 185640, Note_on_c, 0, 74, 47
1, 185640, Note_on_c, 0, 77, 56
1, 185700, Note_on_c, 0, 77, 0
1, 185700, Note_on_c, 0, 74, 0
1, 185760, Tempo, 404040
1, 185760, Note_on_c, 0, 70, 51
1, 185760, Note_on_c, 0, 74, 60
1, 185760, Note_on_c, 0, 46, 55
1, 185760, Control_c, 0, 64, 0
1, 185966, Control_c, 0, 64, 127
1, 186000, Note_on_c, 0, 46, 0
1, 186240, Tempo, 465116
1, 186240, Note_on_c, 0, 53, 42
1, 186480, Note_on_c, 0, 53, 0
1, 186720, Tempo, 419580
1, 186720, Note_on_c, 0, 74, 0
1, 186720, Note_on_c, 0, 70, 0
1, 186720, Note_on_c, 0, 70, 51
1, 186720, Note_on_c, 0, 74, 60
1, 186720, Note_on_c, 0, 62, 42
1, 186720, Note_on_c, 0, 58, 35
1, 186960, Note_on_c, 0, 58, 0
1, 186960, Note_on_c, 0, 62, 0
1, 187200, Note_on_c, 0, 46, 55
1, 187440, Note_on_c, 0, 46, 0
1, 187535, Note_on_c, 0, 74, 0
1, 187535, Note_on_c, 0, 70, 0
1, 187560, Tempo, 387097
1, 187560, Note_on_c, 0, 70, 47
1, 187560, Note_on_c, 0, 74, 56
1, 187620, Note_on_c, 0, 74, 0
1, 187620, Note_on_c, 0, 70, 0
1, 187680, Tempo, 377358
1, 187680, Note_on_c, 0, 70, 51
1, 187680, Note_on_c, 0, 74, 60
1, 187680, Note_on_c, 0, 53, 42
1, 187800, Note_on_c, 0, 74, 0
1, 187800, Note_on_c, 0, 70, 0
1, 187920, Note_on_c, 0, 53, 0
1, 188040, Note_on_c, 0, 70, 47
1, 188040, Note_on_c, 0, 74, 56
1, 188100, Note_on_c, 0, 74, 0
1, 188100, Note_on_c, 0, 70, 0
1, 188160, Tempo, 368098
1, 188160, Note_on_c, 0, 69, 50
1, 188160, Note_on_c, 0, 73, 60
1, 188160, Note_on_c, 0, 58, 35
1, 188160, Note_on_c, 0, 62, 42
1, 188280, Note_on_c, 0, 73, 0
1, 188280, Note_on_c, 0, 69, 0
1, 188400, Tempo, 463320
1, 188400, Note_on_c, 0, 58, 0
1, 188400, Note_on_c, 0, 62, 0
1, 188520, Note_on_c, 0, 70, 47
1, 188520, Note_on_c, 0, 74, 56
1, 188580, Note_on_c, 0, 74, 0
1, 188580, Note_on_c, 0, 70, 0
1, 188640, Tempo, 404040
1, 188640, Note_on_c, 0, 74, 51
1, 188640, Note_on_c, 0, 77, 60
1, 188640, Note_on_c, 0, 45, 55
1, 188640, Control_c, 0, 64, 0
1, 188846, Control_c, 0, 64, 127
1, 188880, Note_on_c, 0, 45, 0
1, 189120, Tempo, 465116
1, 189120, Note_on_c, 0, 53, 42
1, 189360, Note_on_c, 0, 53, 0
1, 189600, Tempo, 419580
1, 189600, Note_on_c, 0, 77, 0
1, 189600, Note_on_c, 0, 74, 0
1, 189600, Note_on_c, 0, 72, 51
1, 189600, Note_on_c, 0, 75, 60
1, 189600, Note_on_c, 0, 63, 42
1, 189600, Note_on_c, 0, 60, 35
1, 189840, Note_on_c, 0, 60, 0
1, 189840, Note_on_c, 0, 63, 0
1, 190080, Note_on_c, 0, 45, 55
1, 190320, Note_on_c, 0, 45, 0
1, 190415, Note_on_c, 0, 75, 0
1, 190415, Note_on_c, 0, 72, 0
1, 190440, Tempo, 387097
1, 190440, Note_on_c, 0, 77, 47
1, 190440, Note_on_c, 0, 72, 47
1, 190440, Note_on_c, 0, 75, 56
1, 190500, Note_on_c, 0, 75, 0
1, 190500, Note_on_c, 0, 72, 0
1, 190500, Note_on_c, 0, 77, 0
1, 190560, Tempo, 371517
1, 190560, Note_on_c, 0, 77, 51
1, 190560, Note_on_c, 0, 72, 51
1, 190560, Note_on_c, 0, 75, 60
1, 190560, Note_on_c, 0, 53, 42
1, 190560, Control_c, 0, 64, 0
1, 190614, Control_c, 0, 64, 127
1, 190680, Note_on_c, 0, 75, 0
1, 190680, Note_on_c, 0, 77, 0
1, 190680, Note_on_c, 0, 72, 0
1, 190800, Note_on_c, 0, 53, 0
1, 190920, Note_on_c, 0, 77, 47
1, 190920, Note_on_c, 0, 72, 47
1, 190920, Note_on_c, 0, 75, 56
1, 190980, Note_on_c, 0, 75, 0
1, 190980, Note_on_c, 0, 72, 0
1, 190980, Note_on_c, 0, 77, 0
1, 191040, Tempo, 362538
1, 191040, Note_on_c, 0, 77, 50
1, 191040, Note_on_c, 0, 71, 50
1, 191040, Note_on_c, 0, 74, 60
1, 191040, Note_on_c, 0, 60, 35
1, 191040, Note_on_c, 0, 63, 42
1, 191160, Note_on_c, 0, 74, 0
1, 191160, Note_on_c, 0, 77, 0
1, 191160, Note_on_c, 0, 71, 0
1, 191280, Tempo, 442804
1, 191280, Note_on_c, 0, 60, 0
1, 191280, Note_on_c, 0, 63, 0
1, 191400, Note_on_c, 0, 77, 56
1, 191400, Note_on_c, 0, 72, 47
1, 191400, Note_on_c, 0, 75, 56
1, 191460, Note_on_c, 0, 75, 0
1, 191460, Note_on_c, 0, 72, 0
1, 191460, Note_on_c, 0, 77, 0
1, 191520, Tempo, 404040
1, 191520, Note_on_c, 0, 69, 51
1, 191520, Note_on_c, 0, 72, 51
1, 191520, Note_on_c, 0, 77, 60
1, 191520, Note_on_c, 0, 41, 55
1, 191533, Control_c, 0, 64, 0
1, 191726, Control_c, 0, 64, 127
1, 191760, Note_on_c, 0, 41, 0
1, 192000, Tempo, 439560
1, 192000, Note_on_c, 0, 53, 42
1, 192240, Note_on_c, 0, 53, 0
1, 192471, Note_on_c, 0, 77, 0
1, 192471, Note_on_c, 0, 72, 0
1, 192471, Note_on_c, 0, 69, 0
1, 192480, Tempo, 419580
1, 192480, Note_on_c, 0, 69, 51
1, 192480, Note_on_c, 0, 72, 51
1, 192480, Note_on_c, 0, 77, 60
1, 192480, Note_on_c, 0, 63, 42
1, 192480, Note_on_c, 0, 60, 35
1, 192720, Note_on_c, 0, 60, 0
1, 192720, Note_on_c, 0, 63, 0
1, 192960, Note_on_c, 0, 41, 55
1, 193200, Note_on_c, 0, 41, 0
1, 193295, Note_on_c, 0, 77, 0
1, 193295, Note_on_c, 0, 72, 0
1, 193295, Note_on_c, 0, 69, 0
1, 193320, Tempo, 387097
1, 193320, Note_on_c, 0, 77, 47
1, 193320, Note_on_c, 0, 69, 47
1, 193320, Note_on_c, 0, 72, 56
1, 193380, Note_on_c, 0, 72, 0
1, 193380, Note_on_c, 0, 69, 0
1, 193380, Note_on_c, 0, 77, 0
1, 193440, Tempo, 377358
1, 193440, Note_on_c, 0, 69, 51
1, 193440, Note_on_c, 0, 77, 51
1, 193440, Note_on_c, 0, 72, 60
1, 193440, Note_on_c, 0, 53, 42
1, 193560, Note_on_c, 0, 72, 0
1, 193560, Note_on_c, 0, 69, 0
1, 193560, Note_on_c, 0, 77, 0
1, 193680, Note_on_c, 0, 53, 0
1, 193800, Note_on_c, 0, 72, 56
1, 193800, Note_on_c, 0, 77, 47
1, 193800, Note_on_c, 0, 69, 47
1, 193860, Note_on_c, 0, 69, 0
1, 193860, Note_on_c, 0, 77, 0
1, 193860, Note_on_c, 0, 72, 0
1, 193920, Tempo, 368098
1, 193920, Note_on_c, 0, 71, 60
1, 193920, Note_on_c, 0, 77, 50
1, 193920, Note_on_c, 0, 68, 50
1, 193920, Note_on_c, 0, 60, 35
1, 193920, Note_on_c, 0, 63, 42
1, 194040, Note_on_c, 0, 68, 0
1, 194040, Note_on_c, 0, 71, 0
1, 194040, Note_on_c, 0, 77, 0
1, 194160, Tempo, 540541
1, 194160, Note_on_c, 0, 60, 0
1, 194160, Note_on_c, 0, 63, 0
1, 194280, Note_on_c, 0, 72, 56
1, 194280, Note_on_c, 0, 77, 56
1, 194280, Note_on_c, 0, 69, 47
1, 194340, Note_on_c, 0, 69, 0
1, 194340, Note_on_c, 0, 77, 0
1, 194340, Note_on_c, 0, 72, 0
1, 194400, Tempo, 437956
1, 194400, Note_on_c, 0, 69, 45
1, 194400, Note_on_c, 0, 73, 45
1, 194400, Note_on_c, 0, 77, 54
1, 194400, Note_on_c, 0, 46, 49
1, 194413, Control_c, 0, 64, 0
1, 194606, Control_c, 0, 64, 127
1, 194640, Note_on_c, 0, 46, 0
1, 194880, Tempo, 470588
1, 194880, Note_on_c, 0, 53, 37
1, 195120, Note_on_c, 0, 53, 0
1, 195350, Note_on_c, 0, 73, 0
1, 195351, Note_on_c, 0, 77, 0
1, 195351, Note_on_c, 0, 69, 0
1, 195360, Tempo, 419580
1, 195360, Note_on_c, 0, 70, 45
1, 195360, Note_on_c, 0, 74, 45
1, 195360, Note_on_c, 0, 77, 54
1, 195360, Note_on_c, 0, 62, 37
1, 195360, Note_on_c, 0, 58, 31
1, 195371, Control_c, 0, 64, 0
1, 195543, Control_c, 0, 64, 127
1, 195600, Note_on_c, 0, 58, 0
1, 195600, Note_on_c, 0, 62, 0
1, 195840, Note_on_c, 0, 46, 55
1, 196080, Note_on_c, 0, 46, 0
1, 196175, Note_on_c, 0, 77, 0
1, 196175, Note_on_c, 0, 74, 0
1, 196175, Note_on_c, 0, 70, 0
1, 196200, Tempo, 387097
1, 196200, Note_on_c, 0, 74, 47
1, 196200, Note_on_c, 0, 70, 47
1, 196200, Note_on_c, 0, 77, 56
1, 196215, Control_c, 0, 64, 0
1, 196252, Control_c, 0, 64, 127
1, 196260, Note_on_c, 0, 77, 0
1, 196260, Note_on_c, 0, 70, 0
1, 196260, Note_on_c, 0, 74, 0
1, 196320, Tempo, 377358
1, 196320, Note_on_c, 0, 74, 51
1, 196320, Note_on_c, 0, 70, 51
1, 196320, Note_on_c, 0, 77, 60
1, 196320, Note_on_c, 0, 53, 37
1, 196440, Note_on_c, 0, 77, 0
1, 196440, Note_on_c, 0, 74, 0
1, 196440, Note_on_c, 0, 70, 0
1, 196560, Note_on_c, 0, 53, 0
1, 196680, Note_on_c, 0, 77, 57
1, 196680, Note_on_c, 0, 70, 48
1, 196680, Note_on_c, 0, 74, 48
1, 196740, Note_on_c, 0, 74, 0
1, 196740, Note_on_c, 0, 70, 0
1, 196740, Note_on_c, 0, 77, 0
1, 196800, Tempo, 368098
1, 196800, Note_on_c, 0, 70, 52
1, 196800, Note_on_c, 0, 74, 52
1, 196800, Note_on_c, 0, 76, 63
1, 196800, Note_on_c, 0, 62, 38
1, 196800, Note_on_c, 0, 58, 32
1, 196817, Control_c, 0, 64, 0
1, 196869, Control_c, 0, 64, 127
1, 196920, Note_on_c, 0, 76, 0
1, 196920, Note_on_c, 0, 70, 0
1, 196920, Note_on_c, 0, 74, 0
1, 197040, Tempo, 442804
1, 197040, Note_on_c, 0, 62, 0
1, 197040, Note_on_c, 0, 58, 0
1, 197160, Note_on_c, 0, 70, 50
1, 197160, Note_on_c, 0, 74, 50
1, 197160, Note_on_c, 0, 77, 60
1, 197220, Note_on_c, 0, 77, 0
1, 197220, Note_on_c, 0, 74, 0
1, 197220, Note_on_c, 0, 70, 0
1, 197280, Tempo, 404040
1, 197280, Note_on_c, 0, 70, 56
1, 197280, Note_on_c, 0, 74, 56
1, 197280, Note_on_c, 0, 79, 66
1, 197280, Note_on_c, 0, 43, 60
1, 197280, Control_c, 0, 64, 0
1, 197486, Control_c, 0, 64, 127
1, 197520, Note_on_c, 0, 43, 0
1, 197760, Tempo, 465116
1, 197760, Note_on_c, 0, 55, 46
1, 198000, Note_on_c, 0, 55, 0
1, 198231, Note_on_c, 0, 79, 0
1, 198231, Note_on_c, 0, 74, 0
1, 198231, Note_on_c, 0, 70, 0
1, 198240, Tempo, 419580
1, 198240, Note_on_c, 0, 70, 56
1, 198240, Note_on_c, 0, 74, 56
1, 198240, Note_on_c, 0, 79, 66
1, 198240, Note_on_c, 0, 62, 46
1, 198240, Note_on_c, 0, 58, 38
1, 198480, Note_on_c, 0, 58, 0
1, 198480, Note_on_c, 0, 62, 0
1, 198720, Tempo, 410959
1, 198720, Note_on_c, 0, 43, 55
1, 198960, Note_on_c, 0, 43, 0
1, 199055, Note_on_c, 0, 79, 0
1, 199055, Note_on_c, 0, 74, 0
1, 199055, Note_on_c, 0, 70, 0
1, 199080, Tempo, 387097
1, 199080, Note_on_c, 0, 79, 61
1, 199080, Note_on_c, 0, 74, 51
1, 199080, Note_on_c, 0, 70, 51
1, 199140, Note_on_c, 0, 70, 0
1, 199140, Note_on_c, 0, 74, 0
1, 199140, Note_on_c, 0, 79, 0
1, 199200, Tempo, 377358
1, 199200, Note_on_c, 0, 79, 66
1, 199200, Note_on_c, 0, 74, 56
1, 199200, Note_on_c, 0, 70, 56
1, 199200, Note_on_c, 0, 55, 46
1, 199320, Note_on_c, 0, 70, 0
1, 199320, Note_on_c, 0, 79, 0
1, 199320, Note_on_c, 0, 74, 0
1, 199440, Note_on_c, 0, 55, 0
1, 199560, Note_on_c, 0, 82, 60
1, 199560, Note_on_c, 0, 74, 50
1, 199560, Note_on_c, 0, 70, 50
1, 199620, Note_on_c, 0, 70, 0
1, 199620, Note_on_c, 0, 74, 0
1, 199620, Note_on_c, 0, 82, 0
1, 199680, Tempo, 368098
1, 199680, Note_on_c, 0, 74, 54
1, 199680, Note_on_c, 0, 70, 54
1, 199680, Note_on_c, 0, 81, 64
1, 199680, Note_on_c, 0, 58, 37
1, 199680, Note_on_c, 0, 62, 45
1, 199800, Note_on_c, 0, 81, 0
1, 199800, Note_on_c, 0, 74, 0
1, 199800, Note_on_c, 0, 70, 0
1, 199920, Tempo, 442804
1, 199920, Note_on_c, 0, 58, 0
1, 199920, Note_on_c, 0, 62, 0
1, 200040, Note_on_c, 0, 74, 49
1, 200040, Note_on_c, 0, 70, 49
1, 200040, Note_on_c, 0, 79, 59
1, 200100, Note_on_c, 0, 79, 0
1, 200100, Note_on_c, 0, 70, 0
1, 200100, Note_on_c, 0, 74, 0
1, 200160, Tempo, 404040
1, 200160, Note_on_c, 0, 77, 60
1, 200160, Note_on_c, 0, 70, 51
1, 200160, Note_on_c, 0, 74, 51
1, 200160, Note_on_c, 0, 46, 55
1, 200160, Control_c, 0, 64, 0
1, 200366, Control_c, 0, 64, 127
1, 200400, Note_on_c, 0, 46, 0
1, 200640, Tempo, 465116
1, 200640, Note_on_c, 0, 53, 42
1, 200880, Note_on_c, 0, 53, 0
1, 201111, Note_on_c, 0, 74, 0
1, 201111, Note_on_c, 0, 70, 0
1, 201111, Note_on_c, 0, 77, 0
1, 201120, Tempo, 419580
1, 201120, Note_on_c, 0, 74, 51
1, 201120, Note_on_c, 0, 70, 60
1, 201120, Note_on_c, 0, 77, 60
1, 201120, Note_on_c, 0, 62, 42
1, 201120, Note_on_c, 0, 58, 35
1, 201360, Note_on_c, 0, 58, 0
1, 201360, Note_on_c, 0, 62, 0
1, 201600, Note_on_c, 0, 46, 55
1, 201840, Note_on_c, 0, 46, 0
1, 201935, Note_on_c, 0, 77, 0
1, 201935, Note_on_c, 0, 70, 0
1, 201935, Note_on_c, 0, 74, 0
1, 201960, Tempo, 387097
1, 201960, Note_on_c, 0, 77, 47
1, 201960, Note_on_c, 0, 70, 47
1, 201960, Note_on_c, 0, 74, 56
1, 202020, Note_on_c, 0, 74, 0
1, 202020, Note_on_c, 0, 70, 0
1, 202020, Note_on_c, 0, 77, 0
1, 202080, Tempo, 377358
1, 202080, Note_on_c, 0, 77, 51
1, 202080, Note_on_c, 0, 70, 51
1, 202080, Note_on_c, 0, 74, 60
1, 202080, Note_on_c, 0, 53, 42
1, 202080, Control_c, 0, 64, 0
1, 202134, Control_c, 0, 64, 127
1, 202200, Note_on_c, 0, 74, 0
1, 202200, Note_on_c, 0, 77, 0
1, 202200, Note_on_c, 0, 70, 0
1, 202320, Note_on_c, 0, 53, 0
1, 202440, Note_on_c, 0, 77, 47
1, 202440, Note_on_c, 0, 70, 47
1, 202440, Note_on_c, 0, 74, 56
1, 202500, Note_on_c, 0, 74, 0
1, 202500, Note_on_c, 0, 70, 0
1, 202500, Note_on_c, 0, 77, 0
1, 202560, Tempo, 368098
1, 202560, Note_on_c, 0, 79, 50
1, 202560, Note_on_c, 0, 70, 50
1, 202560, Note_on_c, 0, 75, 60
1, 202560, Note_on_c, 0, 62, 42
1, 202560, Note_on_c, 0, 58, 35
1, 202680, Note_on_c, 0, 75, 0
1, 202680, Note_on_c, 0, 79, 0
1, 202680, Note_on_c, 0, 70, 0
1, 202800, Tempo, 442804
1, 202800, Note_on_c, 0, 62, 0
1, 202800, Note_on_c, 0, 58, 0
1, 202920, Note_on_c, 0, 77, 56
1, 202920, Note_on_c, 0, 70, 47
1, 202920, Note_on_c, 0, 74, 56
1, 202980, Note_on_c, 0, 74, 0
1, 202980, Note_on_c, 0, 70, 0
1, 202980, Note_on_c, 0, 77, 0
1, 203040, Tempo, 404040
1, 203040, Note_on_c, 0, 69, 51
1, 203040, Note_on_c, 0, 72, 51
1, 203040, Note_on_c, 0, 77, 60
1, 203040, Note_on_c, 0, 41, 55
1, 203053, Control_c, 0, 64, 0
1, 203246, Control_c, 0, 64, 127
1, 203280, Note_on_c, 0, 41, 0
1, 203520, Tempo, 465116
1, 203520, Note_on_c, 0, 53, 42
1, 203760, Note_on_c, 0, 53, 0
1, 204000, Tempo, 419580
1, 204000, Note_on_c, 0, 77, 0
1, 204000, Note_on_c, 0, 72, 0
1, 204000, Note_on_c, 0, 69, 0
1, 204000, Note_on_c, 0, 69, 48
1, 204000, Note_on_c, 0, 72, 48
1, 204000, Note_on_c, 0, 75, 57
1, 204000, Note_on_c, 0, 60, 33
1, 204000, Note_on_c, 0, 63, 39
1, 204240, Note_on_c, 0, 63, 0
1, 204240, Note_on_c, 0, 60, 0
1, 204480, Note_on_c, 0, 41, 52
1, 204720, Note_on_c, 0, 41, 0
1, 204815, Note_on_c, 0, 75, 0
1, 204815, Note_on_c, 0, 72, 0
1, 204815, Note_on_c, 0, 69, 0
1, 204840, Tempo, 397351
1, 204840, Note_on_c, 0, 75, 44
1, 204840, Note_on_c, 0, 65, 44
1, 204840, Note_on_c, 0, 72, 53
1, 204900, Note_on_c, 0, 72, 0
1, 204900, Note_on_c, 0, 65, 0
1, 204900, Note_on_c, 0, 75, 0
1, 204960, Tempo, 385852
1, 204960, Note_on_c, 0, 75, 48
1, 204960, Note_on_c, 0, 65, 48
1, 204960, Note_on_c, 0, 72, 57
1, 204960, Note_on_c, 0, 53, 39
1, 205080, Note_on_c, 0, 72, 0
1, 205080, Note_on_c, 0, 75, 0
1, 205080, Note_on_c, 0, 65, 0
1, 205200, Note_on_c, 0, 53, 0
1, 205320, Note_on_c, 0, 75, 44
1, 205320, Note_on_c, 0, 65, 44
1, 205320, Note_on_c, 0, 72, 53
1, 205380, Note_on_c, 0, 72, 0
1, 205380, Note_on_c, 0, 65, 0
1, 205380, Note_on_c, 0, 75, 0
1, 205440, Tempo, 377358
1, 205440, Note_on_c, 0, 74, 47
1, 205440, Note_on_c, 0, 65, 47
1, 205440, Note_on_c, 0, 71, 57
1, 205440, Note_on_c, 0, 63, 39
1, 205440, Note_on_c, 0, 60, 33
1, 205560, Note_on_c, 0, 71, 0
1, 205560, Note_on_c, 0, 74, 0
1, 205560, Note_on_c, 0, 65, 0
1, 205680, Tempo, 510638
1, 205680, Note_on_c, 0, 63, 0
1, 205680, Note_on_c, 0, 60, 0
1, 205800, Note_on_c, 0, 72, 53
1, 205800, Note_on_c, 0, 65, 44
1, 205800, Note_on_c, 0, 69, 53
1, 205860, Note_on_c, 0, 69, 0
1, 205860, Note_on_c, 0, 65, 0
1, 205860, Note_on_c, 0, 72, 0
1, 205920, Tempo, 449438
1, 205920, Note_on_c, 0, 62, 40
1, 205920, Note_on_c, 0, 65, 40
1, 205920, Note_on_c, 0, 70, 48
1, 205920, Note_on_c, 0, 46, 44
1, 205933, Control_c, 0, 64, 0
1, 206126, Control_c, 0, 64, 127
1, 206160, Note_on_c, 0, 46, 0
1, 206400, Tempo, 465116
1, 206400, Note_on_c, 0, 50, 33
1, 206640, Note_on_c, 0, 50, 0
1, 206880, Tempo, 419580
1, 206880, Note_on_c, 0, 70, 0
1, 206880, Note_on_c, 0, 65, 0
1, 206880, Note_on_c, 0, 62, 0
1, 206880, Note_on_c, 0, 62, 40
1, 206880, Note_on_c, 0, 65, 40
1, 206880, Note_on_c, 0, 70, 48
1, 206880, Note_on_c, 0, 58, 33
1, 206880, Note_on_c, 0, 53, 27
1, 206891, Control_c, 0, 64, 0
1, 207063, Control_c, 0, 64, 127
1, 207120, Note_on_c, 0, 53, 0
1, 207120, Note_on_c, 0, 58, 0
1, 207360, Note_on_c, 0, 41, 49
1, 207600, Note_on_c, 0, 41, 0
1, 207695, Note_on_c, 0, 70, 0
1, 207695, Note_on_c, 0, 65, 0
1, 207695, Note_on_c, 0, 62, 0
1, 207720, Tempo, 402685
1, 207720, Note_on_c, 0, 75, 39
1, 207720, Note_on_c, 0, 65, 39
1, 207720, Note_on_c, 0, 72, 47
1, 207780, Note_on_c, 0, 72, 0
1, 207780, Note_on_c, 0, 65, 0
1, 207780, Note_on_c, 0, 75, 0
1, 207840, Tempo, 392157
1, 207840, Note_on_c, 0, 75, 43
1, 207840, Note_on_c, 0, 65, 43
1, 207840, Note_on_c, 0, 72, 51
1, 207840, Note_on_c, 0, 51, 35
1, 207960, Note_on_c, 0, 72, 0
1, 207960, Note_on_c, 0, 75, 0
1, 207960, Note_on_c, 0, 65, 0
1, 208080, Note_on_c, 0, 51, 0
1, 208200, Note_on_c, 0, 75, 39
1, 208200, Note_on_c, 0, 65, 39
1, 208200, Note_on_c, 0, 72, 47
1, 208260, Note_on_c, 0, 72, 0
1, 208260, Note_on_c, 0, 65, 0
1, 208260, Note_on_c, 0, 75, 0
1, 208320, Tempo, 384615
1, 208320, Note_on_c, 0, 74, 42
1, 208320, Note_on_c, 0, 65, 42
1, 208320, Note_on_c, 0, 70, 51
1, 208320, Note_on_c, 0, 57, 35
1, 208320, Note_on_c, 0, 53, 29
1, 208440, Note_on_c, 0, 70, 0
1, 208440, Note_on_c, 0, 74, 0
1, 208440, Note_on_c, 0, 65, 0
1, 208560, Tempo, 510638
1, 208560, Note_on_c, 0, 57, 0
1, 208560, Note_on_c, 0, 53, 0
1, 208680, Note_on_c, 0, 72, 47
1, 208680, Note_on_c, 0, 65, 39
1, 208680, Note_on_c, 0, 69, 47
1, 208740, Note_on_c, 0, 69, 0
1, 208740, Note_on_c, 0, 65, 0
1, 208740, Note_on_c, 0, 72, 0
1, 208800, Tempo, 449438
1, 208800, Note_on_c, 0, 62, 38
1, 208800, Note_on_c, 0, 70, 45
1, 208800, Note_on_c, 0, 65, 38
1, 208800, Note_on_c, 0, 46, 41
1, 208813, Control_c, 0, 64, 0
1, 209006, Control_c, 0, 64, 127
1, 209040, Note_on_c, 0, 46, 0
1, 209280, Tempo, 465116
1, 209280, Note_on_c, 0, 50, 31
1, 209520, Note_on_c, 0, 50, 0
1, 209760, Tempo, 419580
1, 209760, Note_on_c, 0, 65, 0
1, 209760, Note_on_c, 0, 70, 0
1, 209760, Note_on_c, 0, 62, 0
1, 209760, Note_on_c, 0, 62, 38
1, 209760, Note_on_c, 0, 70, 45
1, 209760, Note_on_c, 0, 65, 38
1, 209760, Note_on_c, 0, 58, 31
1, 209760, Note_on_c, 0, 53, 25
1, 209771, Control_c, 0, 64, 0
1, 209943, Control_c, 0, 64, 127
1, 210000, Note_on_c, 0, 53, 0
1, 210000, Note_on_c, 0, 58, 0
1, 210240, Note_on_c, 0, 41, 46
1, 210480, Note_on_c, 0, 41, 0
1, 210575, Note_on_c, 0, 65, 0
1, 210575, Note_on_c, 0, 70, 0
1, 210575, Note_on_c, 0, 62, 0
1, 210600, Tempo, 415225
1, 210600, Note_on_c, 0, 65, 35
1, 210600, Note_on_c, 0, 75, 35
1, 210600, Note_on_c, 0, 72, 42
1, 210660, Note_on_c, 0, 72, 0
1, 210660, Note_on_c, 0, 75, 0
1, 210660, Note_on_c, 0, 65, 0
1, 210720, Tempo, 402685
1, 210720, Note_on_c, 0, 75, 38
1, 210720, Note_on_c, 0, 65, 38
1, 210720, Note_on_c, 0, 72, 45
1, 210720, Note_on_c, 0, 51, 31
1, 210840, Note_on_c, 0, 72, 0
1, 210840, Note_on_c, 0, 75, 0
1, 210840, Note_on_c, 0, 65, 0
1, 210960, Note_on_c, 0, 51, 0
1, 211080, Note_on_c, 0, 65, 34
1, 211080, Note_on_c, 0, 72, 41
1, 211080, Note_on_c, 0, 75, 34
1, 211140, Note_on_c, 0, 75, 0
1, 211140, Note_on_c, 0, 72, 0
1, 211140, Note_on_c, 0, 65, 0
1, 211200, Tempo, 393443
1, 211200, Note_on_c, 0, 65, 36
1, 211200, Note_on_c, 0, 70, 44
1, 211200, Note_on_c, 0, 74, 36
1, 211200, Note_on_c, 0, 57, 30
1, 211200, Note_on_c, 0, 53, 25
1, 211320, Note_on_c, 0, 74, 0
1, 211320, Note_on_c, 0, 65, 0
1, 211320, Note_on_c, 0, 70, 0
1, 211440, Tempo, 510638
1, 211440, Note_on_c, 0, 57, 0
1, 211440, Note_on_c, 0, 53, 0
1, 211560, Note_on_c, 0, 69, 39
1, 211560, Note_on_c, 0, 72, 39
1, 211560, Note_on_c, 0, 65, 33
1, 211620, Note_on_c, 0, 65, 0
1, 211620, Note_on_c, 0, 72, 0
1, 211620, Note_on_c, 0, 69, 0
1, 211680, Tempo, 449438
1, 211680, Note_on_c, 0, 62, 31
1, 211680, Note_on_c, 0, 70, 37
1, 211680, Note_on_c, 0, 65, 31
1, 211680, Note_on_c, 0, 46, 34
1, 211693, Control_c, 0, 64, 0
1, 211772, Control_c, 0, 64, 127
1, 212030, Note_on_c, 0, 46, 0
1, 212030, Note_on_c, 0, 62, 0
1, 212030, Note_on_c, 0, 70, 0
1, 212030, Note_on_c, 0, 65, 0
1, 212040, Tempo, 387097
1, 212040, Note_on_c, 0, 46, 70
1, 212040, Note_on_c, 0, 34, 60
1, 212047, Control_c, 0, 64, 0
1, 212100, Note_on_c, 0, 34, 0
1, 212100, Note_on_c, 0, 46, 0
1, 212160, Note_on_c, 0, 46, 76
1, 212160, Note_on_c, 0, 34, 64
1, 212213, Control_c, 0, 64, 127
1, 212280, Note_on_c, 0, 34, 0
1, 212280, Note_on_c, 0, 46, 0
1, 212390, Control_c, 0, 64, 0
1, 212400, Tempo, 368098
1, 212520, Note_on_c, 0, 46, 70
1, 212520, Note_on_c, 0, 34, 59
1, 212580, Note_on_c, 0, 34, 0
1, 212580, Note_on_c, 0, 46, 0
1, 212640, Tempo, 362538
1, 212640, Note_on_c, 0, 46, 75
1, 212640, Note_on_c, 0, 34, 64
1, 212694, Control_c, 0, 64, 127
1, 212760, Note_on_c, 0, 34, 0
1, 212760, Note_on_c, 0, 46, 0
1, 212831, Control_c, 0, 64, 0
1, 212880, Tempo, 373832
1, 213000, Note_on_c, 0, 48, 70
1, 213000, Note_on_c, 0, 36, 60
1, 213060, Note_on_c, 0, 36, 0
1, 213060, Note_on_c, 0, 48, 0
1, 213120, Tempo, 393443
1, 213120, Note_on_c, 0, 50, 75
1, 213120, Note_on_c, 0, 38, 67
1, 213212, Control_c, 0, 64, 127
1, 213470, Note_on_c, 0, 38, 0
1, 213470, Note_on_c, 0, 50, 0
1, 213480, Tempo, 387097
1, 213480, Note_on_c, 0, 62, 70
1, 213480, Note_on_c, 0, 50, 59
1, 213480, Note_on_c, 0, 38, 60
1, 213487, Control_c, 0, 64, 0
1, 213540, Note_on_c, 0, 38, 0
1, 213540, Note_on_c, 0, 50, 0
1, 213540, Note_on_c, 0, 62, 0
1, 213600, Note_on_c, 0, 50, 64
1, 213600, Note_on_c, 0, 62, 76
1, 213600, Note_on_c, 0, 38, 64
1, 213653, Control_c, 0, 64, 127
1, 213720, Note_on_c, 0, 38, 0
1, 213720, Note_on_c, 0, 62, 0
1, 213720, Note_on_c, 0, 50, 0
1, 213830, Control_c, 0, 64, 0
1, 213840, Tempo, 368098
1, 213960, Note_on_c, 0, 62, 70
1, 213960, Note_on_c, 0, 50, 59
1, 213960, Note_on_c, 0, 38, 59
1, 214020, Note_on_c, 0, 38, 0
1, 214020, Note_on_c, 0, 50, 0
1, 214020, Note_on_c, 0, 62, 0
1, 214080, Tempo, 362538
1, 214080, Note_on_c, 0, 50, 63
1, 214080, Note_on_c, 0, 62, 75
1, 214080, Note_on_c, 0, 38, 64
1, 214134, Control_c, 0, 64, 127
1, 214200, Note_on_c, 0, 38, 0
1, 214200, Note_on_c, 0, 62, 0
1, 214200, Note_on_c, 0, 50, 0
1, 214271, Control_c, 0, 64, 0
1, 214320, Tempo, 377358
1, 214440, Note_on_c, 0, 52, 59
1, 214440, Note_on_c, 0, 64, 70
1, 214440, Note_on_c, 0, 40, 60
1, 214500, Note_on_c, 0, 40, 0
1, 214500, Note_on_c, 0, 64, 0
1, 214500, Note_on_c, 0, 52, 0
1, 214560, Tempo, 393443
1, 214560, Note_on_c, 0, 65, 82
1, 214560, Note_on_c, 0, 53, 69
1, 214560, Note_on_c, 0, 41, 73
1, 214652, Control_c, 0, 64, 127
1, 214910, Note_on_c, 0, 41, 0
1, 214910, Note_on_c, 0, 65, 0
1, 214920, Tempo, 387097
1, 214920, Note_on_c, 0, 53, 0
1, 214920, Note_on_c, 0, 53, 77
1, 214920, Note_on_c, 0, 41, 66
1, 214927, Control_c, 0, 64, 0
1, 214980, Note_on_c, 0, 41, 0
1, 214980, Note_on_c, 0, 53, 0
1, 215040, Note_on_c, 0, 53, 83
1, 215040, Note_on_c, 0, 41, 70
1, 215093, Control_c, 0, 64, 127
1, 215160, Note_on_c, 0, 41, 0
1, 215160, Note_on_c, 0, 53, 0
1, 215270, Control_c, 0, 64, 0
1, 215280, Tempo, 369231
1, 215400, Note_on_c, 0, 53, 77
1, 215400, Note_on_c, 0, 41, 64
1, 215460, Note_on_c, 0, 41, 0
1, 215460, Note_on_c, 0, 53, 0
1, 215520, Tempo, 362538
1, 215520, Note_on_c, 0, 53, 82
1, 215520, Note_on_c, 0, 41, 70
1, 215574, Control_c, 0, 64, 127
1, 215640, Note_on_c, 0, 41, 0
1, 215640, Note_on_c, 0, 53, 0
1, 215711, Control_c, 0, 64, 0
1, 215760, Tempo, 377358
1, 215880, Note_on_c, 0, 55, 77
1, 215880, Note_on_c, 0, 43, 66
1, 215940, Note_on_c, 0, 43, 0
1, 215940, Note_on_c, 0, 55, 0
1, 216000, Tempo, 393443
1, 216000, Note_on_c, 0, 57, 90
1, 216000, Note_on_c, 0, 45, 80
1, 216092, Control_c, 0, 64, 127
1, 216350, Note_on_c, 0, 45, 0
1, 216350, Note_on_c, 0, 57, 0
1, 216360, Tempo, 387097
1, 216360, Note_on_c, 0, 69, 71
1, 216360, Note_on_c, 0, 57, 60
1, 216360, Note_on_c, 0, 33, 52
1, 216360, Note_on_c, 0, 45, 61
1, 216367, Control_c, 0, 64, 0
1, 216420, Note_on_c, 0, 45, 0
1, 216420, Note_on_c, 0, 69, 0
1, 216420, Note_on_c, 0, 57, 0
1, 216420, Note_on_c, 0, 33, 0
1, 216480, Note_on_c, 0, 57, 65
1, 216480, Note_on_c, 0, 69, 78
1, 216480, Note_on_c, 0, 33, 55
1, 216480, Note_on_c, 0, 45, 65
1, 216533, Control_c, 0, 64, 127
1, 216600, Note_on_c, 0, 45, 0
1, 216600, Note_on_c, 0, 57, 0
1, 216600, Note_on_c, 0, 69, 0
1, 216600, Note_on_c, 0, 33, 0
1, 216710, Control_c, 0, 64, 0
1, 216720, Tempo, 372671
1, 216840, Note_on_c, 0, 59, 61
1, 216840, Note_on_c, 0, 71, 73
1, 216840, Note_on_c, 0, 35, 52
1, 216840, Note_on_c, 0, 47, 61
1, 216900, Note_on_c, 0, 47, 0
1, 216900, Note_on_c, 0, 59, 0
1, 216900, Note_on_c, 0, 71, 0
1, 216900, Note_on_c, 0, 35, 0
1, 216960, Tempo, 362538
1, 216960, Note_on_c, 0, 73, 79
1, 216960, Note_on_c, 0, 61, 66
1, 216960, Note_on_c, 0, 37, 57
1, 216960, Note_on_c, 0, 49, 67
1, 217014, Control_c, 0, 64, 127
1, 217080, Note_on_c, 0, 49, 0
1, 217080, Note_on_c, 0, 73, 0
1, 217080, Note_on_c, 0, 61, 0
1, 217080, Note_on_c, 0, 37, 0
1, 217151, Control_c, 0, 64, 0
1, 217200, Tempo, 377358
1, 217320, Note_on_c, 0, 62, 64
1, 217320, Note_on_c, 0, 74, 76
1, 217320, Note_on_c, 0, 38, 55
1, 217320, Note_on_c, 0, 50, 65
1, 217380, Note_on_c, 0, 50, 0
1, 217380, Note_on_c, 0, 62, 0
1, 217380, Note_on_c, 0, 74, 0
1, 217380, Note_on_c, 0, 38, 0
1, 217440, Tempo, 389610
1, 217440, Note_on_c, 0, 69, 70
1, 217440, Note_on_c, 0, 76, 83
1, 217440, Note_on_c, 0, 73, 70
1, 217440, Note_on_c, 0, 64, 70
1, 217440, Note_on_c, 0, 45, 58
1, 217440, Note_on_c, 0, 40, 58
1, 217440, Note_on_c, 0, 49, 58
1, 217440, Note_on_c, 0, 52, 70
1, 217680, Control_c, 0, 64, 127
1, 218371, Note_on_c, 0, 52, 0
1, 218371, Note_on_c, 0, 69, 0
1, 218371, Note_on_c, 0, 64, 0
1, 218371, Note_on_c, 0, 49, 0
1, 218371, Note_on_c, 0, 76, 0
1, 218371, Note_on_c, 0, 40, 0
1, 218400, Tempo, 387097
1, 218400, Note_on_c, 0, 73, 0
1, 218400, Note_on_c, 0, 45, 0
1, 218400, Note_on_c, 0, 73, 70
1, 218400, Note_on_c, 0, 64, 70
1, 218400, Note_on_c, 0, 69, 70
1, 218400, Note_on_c, 0, 76, 83
1, 218400, Note_on_c, 0, 45, 58
1, 218400, Note_on_c, 0, 40, 58
1, 218400, Note_on_c, 0, 49, 58
1, 218400, Note_on_c, 0, 52, 70
1, 219215, Note_on_c, 0, 52, 0
1, 219215, Note_on_c, 0, 73, 0
1, 219215, Note_on_c, 0, 45, 0
1, 219215, Note_on_c, 0, 64, 0
1, 219215, Note_on_c, 0, 69, 0
1, 219215, Note_on_c, 0, 76, 0
1, 219215, Note_on_c, 0, 40, 0
1, 219215, Note_on_c, 0, 49, 0
1, 219240, Note_on_c, 0, 74, 58
1, 219240, Note_on_c, 0, 76, 73
1, 219240, Note_on_c, 0, 68, 58
1, 219240, Note_on_c, 0, 40, 56
1, 219240, Note_on_c, 0, 52, 66
1, 219250, Control_c, 0, 64, 0
1, 219354, Note_on_c, 0, 68, 0
1, 219354, Note_on_c, 0, 74, 0
1, 219354, Note_on_c, 0, 76, 0
1, 219360, Tempo, 373832
1, 219360, Note_on_c, 0, 40, 0
1, 219360, Note_on_c, 0, 52, 0
1, 219360, Note_on_c, 0, 74, 66
1, 219360, Note_on_c, 0, 76, 82
1, 219360, Note_on_c, 0, 68, 66
1, 219360, Note_on_c, 0, 40, 58
1, 219360, Note_on_c, 0, 52, 69
1, 219451, Control_c, 0, 64, 127
1, 219692, Note_on_c, 0, 52, 0
1, 219692, Note_on_c, 0, 40, 0
1, 219693, Note_on_c, 0, 76, 0
1, 219702, Note_on_c, 0, 68, 0
1, 219702, Note_on_c, 0, 74, 0
1, 219720, Note_on_c, 0, 74, 63
1, 219720, Note_on_c, 0, 76, 80
1, 219720, Note_on_c, 0, 68, 63
1, 219720, Note_on_c, 0, 38, 55
1, 219720, Note_on_c, 0, 50, 65
1, 219834, Note_on_c, 0, 68, 0
1, 219834, Note_on_c, 0, 74, 0
1, 219834, Note_on_c, 0, 76, 0
1, 219840, Tempo, 364742
1, 219840, Note_on_c, 0, 38, 0
1, 219840, Note_on_c, 0, 50, 0
1, 219840, Note_on_c, 0, 68, 67
1, 219840, Note_on_c, 0, 78, 85
1, 219840, Note_on_c, 0, 74, 67
1, 219840, Note_on_c, 0, 37, 60
1, 219840, Note_on_c, 0, 49, 72
1, 219847, Control_c, 0, 64, 0
1, 219939, Control_c, 0, 64, 127
1, 220080, Tempo, 452830
1, 220172, Note_on_c, 0, 49, 0
1, 220172, Note_on_c, 0, 37, 0
1, 220182, Note_on_c, 0, 68, 0
1, 220182, Note_on_c, 0, 78, 0
1, 220182, Note_on_c, 0, 74, 0
1, 220200, Note_on_c, 0, 68, 65
1, 220200, Note_on_c, 0, 80, 83
1, 220200, Note_on_c, 0, 74, 65
1, 220200, Note_on_c, 0, 35, 62
1, 220200, Note_on_c, 0, 47, 74
1, 220320, Tempo, 388350
1, 220320, Note_on_c, 0, 47, 0
1, 220320, Note_on_c, 0, 74, 0
1, 220320, Note_on_c, 0, 68, 0
1, 220320, Note_on_c, 0, 80, 0
1, 220320, Note_on_c, 0, 35, 0
1, 220320, Note_on_c, 0, 69, 78
1, 220320, Note_on_c, 0, 73, 78
1, 220320, Note_on_c, 0, 81, 93
1, 220320, Note_on_c, 0, 33, 65
1, 220320, Note_on_c, 0, 45, 74
1, 220326, Control_c, 0, 64, 0
1, 220640, Control_c, 0, 64, 127
1, 221251, Note_on_c, 0, 45, 0
1, 221251, Note_on_c, 0, 81, 0
1, 221251, Note_on_c, 0, 69, 0
1, 221251, Note_on_c, 0, 73, 0
1, 221251, Note_on_c, 0, 33, 0
1, 221280, Note_on_c, 0, 69, 78
1, 221280, Note_on_c, 0, 73, 78
1, 221280, Note_on_c, 0, 81, 93
1, 221280, Note_on_c, 0, 40, 65
1, 221280, Note_on_c, 0, 33, 65
1, 221280, Note_on_c, 0, 45, 74
1, 222100, Note_on_c, 0, 45, 0
1, 222100, Note_on_c, 0, 73, 0
1, 222100, Note_on_c, 0, 81, 0
1, 222100, Note_on_c, 0, 69, 0
1, 222100, Note_on_c, 0, 33, 0
1, 222100, Note_on_c, 0, 40, 0
1, 222120, Tempo, 387097
1, 222120, Note_on_c, 0, 57, 47
1, 222120, Note_on_c, 0, 61, 56
1, 222120, Note_on_c, 0, 55, 47
1, 222120, Note_on_c, 0, 45, 48
1, 222125, Control_c, 0, 64, 0
1, 222180, Note_on_c, 0, 45, 0
1, 222180, Note_on_c, 0, 57, 0
1, 222180, Note_on_c, 0, 61, 0
1, 222180, Note_on_c, 0, 55, 0
1, 222240, Tempo, 375000
1, 222240, Note_on_c, 0, 57, 51
1, 222240, Note_on_c, 0, 62, 60
1, 222240, Note_on_c, 0, 55, 51
1, 222240, Note_on_c, 0, 47, 51
1, 222297, Control_c, 0, 64, 127
1, 222360, Note_on_c, 0, 47, 0
1, 222360, Note_on_c, 0, 57, 0
1, 222360, Note_on_c, 0, 62, 0
1, 222360, Note_on_c, 0, 55, 0
1, 222442, Control_c, 0, 64, 0
1, 222600, Note_on_c, 0, 57, 47
1, 222600, Note_on_c, 0, 61, 56
1, 222600, Note_on_c, 0, 55, 47
1, 222600, Note_on_c, 0, 45, 47
1, 222660, Note_on_c, 0, 45, 0
1, 222660, Note_on_c, 0, 57, 0
1, 222660, Note_on_c, 0, 61, 0
1, 222660, Note_on_c, 0, 55, 0
1, 222720, Tempo, 366972
1, 222720, Note_on_c, 0, 55, 50
1, 222720, Note_on_c, 0, 57, 50
1, 222720, Note_on_c, 0, 62, 60
1, 222720, Note_on_c, 0, 47, 51
1, 222774, Control_c, 0, 64, 127
1, 222840, Note_on_c, 0, 47, 0
1, 222840, Note_on_c, 0, 55, 0
1, 222840, Note_on_c, 0, 57, 0
1, 222840, Note_on_c, 0, 62, 0
1, 222913, Control_c, 0, 64, 0
1, 222960, Tempo, 412371
1, 223080, Note_on_c, 0, 55, 47
1, 223080, Note_on_c, 0, 57, 47
1, 223080, Note_on_c, 0, 64, 56
1, 223080, Note_on_c, 0, 49, 48
1, 223140, Note_on_c, 0, 49, 0
1, 223140, Note_on_c, 0, 55, 0
1, 223140, Note_on_c, 0, 57, 0
1, 223140, Note_on_c, 0, 64, 0
1, 223200, Tempo, 392157
1, 223200, Note_on_c, 0, 57, 64
1, 223200, Note_on_c, 0, 54, 54
1, 223200, Note_on_c, 0, 50, 54
1, 223440, Control_c, 0, 64, 127
1, 224131, Note_on_c, 0, 50, 0
1, 224131, Note_on_c, 0, 54, 0
1, 224131, Note_on_c, 0, 57, 0
1, 224160, Tempo, 387097
1, 224160, Note_on_c, 0, 57, 54
1, 224160, Note_on_c, 0, 66, 64
1, 224160, Note_on_c, 0, 50, 45
1, 224160, Note_on_c, 0, 54, 54
1, 224975, Note_on_c, 0, 54, 0
1, 224975, Note_on_c, 0, 57, 0
1, 224975, Note_on_c, 0, 66, 0
1, 224975, Note_on_c, 0, 50, 0
1, 225000, Note_on_c, 0, 57, 53
1, 225000, Note_on_c, 0, 66, 53
1, 225000, Note_on_c, 0, 50, 44
1, 225015, Control_c, 0, 64, 0
1, 225110, Note_on_c, 0, 50, 0
1, 225120, Tempo, 384615
1, 225120, Note_on_c, 0, 66, 0
1, 225120, Note_on_c, 0, 57, 0
1, 225120, Note_on_c, 0, 67, 60
1, 225120, Note_on_c, 0, 55, 60
1, 225120, Note_on_c, 0, 50, 50
1, 225120, Note_on_c, 0, 47, 42
1, 225212, Control_c, 0, 64, 127
1, 225240, Note_on_c, 0, 47, 0
1, 225240, Note_on_c, 0, 67, 0
1, 225240, Note_on_c, 0, 55, 0
1, 225240, Note_on_c, 0, 50, 0
1, 225389, Control_c, 0, 64, 0
1, 225480, Note_on_c, 0, 55, 56
1, 225480, Note_on_c, 0, 66, 56
1, 225480, Note_on_c, 0, 50, 47
1, 225480, Note_on_c, 0, 47, 40
1, 225594, Note_on_c, 0, 46, 41
1, 225600, Tempo, 376176
1, 225600, Note_on_c, 0, 47, 0
1, 225600, Note_on_c, 0, 50, 0
1, 225600, Note_on_c, 0, 55, 0
1, 225600, Note_on_c, 0, 66, 0
1, 225600, Note_on_c, 0, 64, 59
1, 225600, Note_on_c, 0, 56, 59
1, 225606, Note_on_c, 0, 50, 49
1, 225669, Control_c, 0, 64, 127
1, 225714, Note_on_c, 0, 46, 0
1, 225720, Note_on_c, 0, 64, 0
1, 225720, Note_on_c, 0, 56, 0
1, 225726, Note_on_c, 0, 50, 0
1, 225783, Control_c, 0, 64, 0
1, 225840, Tempo, 436364
1, 225960, Note_on_c, 0, 56, 56
1, 225960, Note_on_c, 0, 62, 56
1, 225960, Note_on_c, 0, 46, 40
1, 225960, Note_on_c, 0, 50, 47
1, 226080, Tempo, 389610
1, 226080, Note_on_c, 0, 50, 0
1, 226080, Note_on_c, 0, 56, 0
1, 226080, Note_on_c, 0, 62, 0
1, 226080, Note_on_c, 0, 46, 0
1, 226080, Note_on_c, 0, 61, 54
1, 226080, Note_on_c, 0, 69, 64
1, 226080, Note_on_c, 0, 57, 54
1, 226080, Note_on_c, 0, 45, 45
1, 226080, Note_on_c, 0, 52, 54
1, 226320, Control_c, 0, 64, 127
1, 227011, Note_on_c, 0, 52, 0
1, 227011, Note_on_c, 0, 57, 0
1, 227011, Note_on_c, 0, 61, 0
1, 227011, Note_on_c, 0, 69, 0
1, 227011, Note_on_c, 0, 45, 0
1, 227040, Tempo, 387097
1, 227040, Note_on_c, 0, 61, 54
1, 227040, Note_on_c, 0, 64, 64
1, 227040, Note_on_c, 0, 45, 45
1, 227040, Note_on_c, 0, 57, 54
1, 227855, Note_on_c, 0, 57, 0
1, 227855, Note_on_c, 0, 61, 0
1, 227855, Note_on_c, 0, 64, 0
1, 227855, Note_on_c, 0, 45, 0
1, 227880, Tempo, 387097
1, 227880, Note_on_c, 0, 64, 53
1, 227880, Note_on_c, 0, 69, 53
1, 227880, Note_on_c, 0, 49, 35
1, 227880, Note_on_c, 0, 57, 44
1, 227895, Control_c, 0, 64, 0
1, 227940, Note_on_c, 0, 69, 0
1, 227940, Note_on_c, 0, 73, 53
1, 227990, Note_on_c, 0, 57, 0
1, 227990, Note_on_c, 0, 49, 0
1, 228000, Tempo, 382166
1, 228000, Note_on_c, 0, 64, 0
1, 228000, Note_on_c, 0, 73, 0
1, 228000, Note_on_c, 0, 64, 60
1, 228000, Note_on_c, 0, 71, 60
1, 228000, Note_on_c, 0, 57, 50
1, 228000, Note_on_c, 0, 49, 42
1, 228092, Control_c, 0, 64, 127
1, 228120, Note_on_c, 0, 49, 0
1, 228120, Note_on_c, 0, 64, 0
1, 228120, Note_on_c, 0, 71, 0
1, 228120, Note_on_c, 0, 57, 0
1, 228219, Control_c, 0, 64, 0
1, 228360, Note_on_c, 0, 64, 56
1, 228360, Note_on_c, 0, 69, 56
1, 228360, Note_on_c, 0, 57, 47
1, 228360, Note_on_c, 0, 49, 40
1, 228480, Tempo, 377358
1, 228480, Note_on_c, 0, 49, 0
1, 228480, Note_on_c, 0, 64, 0
1, 228480, Note_on_c, 0, 69, 0
1, 228480, Note_on_c, 0, 57, 0
1, 228480, Note_on_c, 0, 64, 59
1, 228480, Note_on_c, 0, 71, 59
1, 228480, Note_on_c, 0, 49, 41
1, 228480, Note_on_c, 0, 57, 49
1, 228549, Control_c, 0, 64, 127
1, 228600, Note_on_c, 0, 57, 0
1, 228600, Note_on_c, 0, 64, 0
1, 228600, Note_on_c, 0, 71, 0
1, 228600, Note_on_c, 0, 49, 0
1, 228663, Control_c, 0, 64, 0
1, 228720, Tempo, 449438
1, 228840, Note_on_c, 0, 64, 56
1, 228840, Note_on_c, 0, 73, 56
1, 228840, Note_on_c, 0, 49, 40
1, 228840, Note_on_c, 0, 57, 47
1, 228960, Tempo, 389610
1, 228960, Note_on_c, 0, 57, 0
1, 228960, Note_on_c, 0, 64, 0
1, 228960, Note_on_c, 0, 73, 0
1, 228960, Note_on_c, 0, 49, 0
1, 228960, Note_on_c, 0, 62, 54
1, 228960, Note_on_c, 0, 66, 54
1, 228960, Note_on_c, 0, 74, 64
1, 228960, Note_on_c, 0, 54, 45
1, 228960, Note_on_c, 0, 47, 45
1, 228960, Note_on_c, 0, 59, 54
1, 229200, Control_c, 0, 64, 127
1, 229891, Note_on_c, 0, 59, 0
1, 229891, Note_on_c, 0, 66, 0
1, 229891, Note_on_c, 0, 62, 0
1, 229891, Note_on_c, 0, 74, 0
1, 229891, Note_on_c, 0, 47, 0
1, 229920, Tempo, 387097
1, 229920, Note_on_c, 0, 54, 0
1, 229920, Note_on_c, 0, 66, 64
1, 229920, Note_on_c, 0, 62, 54
1, 229920, Note_on_c, 0, 50, 45
1, 229920, Note_on_c, 0, 59, 54
1, 230735, Note_on_c, 0, 59, 0
1, 230735, Note_on_c, 0, 66, 0
1, 230735, Note_on_c, 0, 62, 0
1, 230735, Note_on_c, 0, 50, 0
1, 230760, Tempo, 387097
1, 230760, Note_on_c, 0, 62, 53
1, 230760, Note_on_c, 0, 66, 53
1, 230760, Note_on_c, 0, 52, 35
1, 230760, Note_on_c, 0, 59, 44
1, 230775, Control_c, 0, 64, 0
1, 230820, Note_on_c, 0, 66, 0
1, 230820, Note_on_c, 0, 69, 53
1, 230870, Note_on_c, 0, 59, 0
1, 230870, Note_on_c, 0, 52, 0
1, 230880, Tempo, 384615
1, 230880, Note_on_c, 0, 62, 0
1, 230880, Note_on_c, 0, 69, 0
1, 230880, Note_on_c, 0, 62, 60
1, 230880, Note_on_c, 0, 68, 60
1, 230880, Note_on_c, 0, 59, 50
1, 230880, Note_on_c, 0, 52, 42
1, 230972, Control_c, 0, 64, 127
1, 231000, Note_on_c, 0, 52, 0
1, 231000, Note_on_c, 0, 62, 0
1, 231000, Note_on_c, 0, 68, 0
1, 231000, Note_on_c, 0, 59, 0
1, 231103, Control_c, 0, 64, 0
1, 231240, Note_on_c, 0, 62, 56
1, 231240, Note_on_c, 0, 66, 56
1, 231240, Note_on_c, 0, 59, 47
1, 231240, Note_on_c, 0, 52, 40
1, 231360, Tempo, 376176
1, 231360, Note_on_c, 0, 52, 0
1, 231360, Note_on_c, 0, 62, 0
1, 231360, Note_on_c, 0, 66, 0
1, 231360, Note_on_c, 0, 59, 0
1, 231360, Note_on_c, 0, 62, 59
1, 231360, Note_on_c, 0, 68, 59
1, 231360, Note_on_c, 0, 52, 41
1, 231360, Note_on_c, 0, 59, 49
1, 231429, Control_c, 0, 64, 127
1, 231480, Note_on_c, 0, 59, 0
1, 231480, Note_on_c, 0, 62, 0
1, 231480, Note_on_c, 0, 68, 0
1, 231480, Note_on_c, 0, 52, 0
1, 231543, Control_c, 0, 64, 0
1, 231600, Tempo, 463320
1, 231720, Note_on_c, 0, 62, 56
1, 231720, Note_on_c, 0, 64, 56
1, 231720, Note_on_c, 0, 52, 40
1, 231720, Note_on_c, 0, 59, 47
1, 231840, Tempo, 401338
1, 231840, Note_on_c, 0, 59, 0
1, 231840, Note_on_c, 0, 62, 0
1, 231840, Note_on_c, 0, 64, 0
1, 231840, Note_on_c, 0, 52, 0
1, 231840, Note_on_c, 0, 61, 54
1, 231840, Note_on_c, 0, 71, 64
1, 231840, Note_on_c, 0, 52, 45
1, 231840, Note_on_c, 0, 45, 45
1, 231840, Note_on_c, 0, 57, 54
1, 232080, Control_c, 0, 64, 127
1, 232771, Note_on_c, 0, 57, 0
1, 232771, Note_on_c, 0, 71, 0
1, 232771, Note_on_c, 0, 61, 0
1, 232771, Note_on_c, 0, 45, 0
1, 232800, Tempo, 387097
1, 232800, Note_on_c, 0, 52, 0
1, 232800, Note_on_c, 0, 69, 64
1, 232800, Note_on_c, 0, 61, 54
1, 232800, Note_on_c, 0, 45, 45
1, 232800, Note_on_c, 0, 52, 45
1, 232800, Note_on_c, 0, 57, 54
1, 232810, Control_c, 0, 64, 0
1, 233067, Control_c, 0, 64, 127
1, 233750, Note_on_c, 0, 57, 0
1, 233750, Note_on_c, 0, 45, 0
1, 233750, Note_on_c, 0, 69, 0
1, 233750, Note_on_c, 0, 61, 0
1, 233750, Note_on_c, 0, 52, 0
1, 233760, Tempo, 380952
1, 233760, Note_on_c, 0, 62, 56
1, 233760, Note_on_c, 0, 66, 56
1, 233760, Note_on_c, 0, 69, 67
1, 233760, Note_on_c, 0, 50, 45
1, 233764, Control_c, 0, 64, 0
1, 234216, Note_on_c, 0, 50, 0
1, 234216, Note_on_c, 0, 62, 0
1, 234216, Note_on_c, 0, 66, 0
1, 234216, Note_on_c, 0, 69, 0
1, 234240, Tempo, 385852
1, 234240, Note_on_c, 0, 62, 53
1, 234240, Note_on_c, 0, 66, 53
1, 234240, Note_on_c, 0, 70, 63
1, 234240, Note_on_c, 0, 49, 37
1, 234706, Note_on_c, 0, 49, 0
1, 234706, Note_on_c, 0, 62, 0
1, 234706, Note_on_c, 0, 66, 0
1, 234706, Note_on_c, 0, 70, 0
1, 234720, Tempo, 349854
1, 234720, Note_on_c, 0, 62, 51
1, 234720, Note_on_c, 0, 67, 51
1, 234720, Note_on_c, 0, 71, 60
1, 234720, Note_on_c, 0, 47, 67
1, 234880, Note_on_c, 0, 47, 0
1, 234880, Note_on_c, 0, 46, 57
1, 235040, Note_on_c, 0, 46, 0
1, 235040, Note_on_c, 0, 47, 57
1, 235200, Tempo, 356083
1, 235200, Note_on_c, 0, 47, 0
1, 235200, Note_on_c, 0, 43, 68
1, 235360, Note_on_c, 0, 43, 0
1, 235360, Note_on_c, 0, 42, 61
1, 235520, Tempo, 401338
1, 235520, Note_on_c, 0, 42, 0
1, 235520, Note_on_c, 0, 43, 65
1, 235680, Tempo, 364742
1, 235680, Note_on_c, 0, 43, 0
1, 235680, Note_on_c, 0, 71, 0
1, 235680, Note_on_c, 0, 67, 0
1, 235680, Note_on_c, 0, 62, 0
1, 235680, Note_on_c, 0, 67, 56
1, 235680, Note_on_c, 0, 71, 56
1, 235680, Note_on_c, 0, 76, 67
1, 235680, Note_on_c, 0, 40, 74
1, 236146, Note_on_c, 0, 76, 0
1, 236146, Note_on_c, 0, 67, 0
1, 236146, Note_on_c, 0, 71, 0
1, 236160, Note_on_c, 0, 71, 57
1, 236160, Note_on_c, 0, 76, 57
1, 236160, Note_on_c, 0, 79, 68
1, 236400, Note_on_c, 0, 79, 0
1, 236400, Note_on_c, 0, 76, 0
1, 236400, Note_on_c, 0, 71, 0
1, 236520, Note_on_c, 0, 40, 0
1, 236520, Note_on_c, 0, 42, 61
1, 236640, Note_on_c, 0, 42, 0
1, 236640, Note_on_c, 0, 67, 53
1, 236640, Note_on_c, 0, 71, 53
1, 236640, Note_on_c, 0, 76, 63
1, 236640, Note_on_c, 0, 43, 69
1, 236880, Note_on_c, 0, 71, 0
1, 236880, Note_on_c, 0, 67, 0
1, 236890, Note_on_c, 0, 76, 0
1, 237000, Note_on_c, 0, 43, 0
1, 237000, Note_on_c, 0, 45, 62
1, 237120, Tempo, 361446
1, 237120, Note_on_c, 0, 45, 0
1, 237120, Note_on_c, 0, 61, 49
1, 237120, Note_on_c, 0, 64, 49
1, 237120, Note_on_c, 0, 67, 58
1, 237120, Note_on_c, 0, 47, 70
1, 237360, Note_on_c, 0, 67, 0
1, 237360, Note_on_c, 0, 61, 0
1, 237360, Note_on_c, 0, 64, 0
1, 237440, Tempo, 400000
1, 237480, Note_on_c, 0, 47, 0
1, 237480, Note_on_c, 0, 49, 62
1, 237600, Tempo, 346821
1, 237600, Note_on_c, 0, 49, 0
1, 237600, Note_on_c, 0, 61, 55
1, 237600, Note_on_c, 0, 66, 55
1, 237600, Note_on_c, 0, 69, 65
1, 237600, Note_on_c, 0, 45, 69
1, 237760, Note_on_c, 0, 45, 0
1, 237760, Note_on_c, 0, 44, 63
1, 237920, Note_on_c, 0, 44, 0
1, 237920, Note_on_c, 0, 45, 59
1, 238080, Tempo, 359281
1, 238080, Note_on_c, 0, 45, 0
1, 238080, Note_on_c, 0, 42, 68
1, 238240, Note_on_c, 0, 42, 0
1, 238240, Note_on_c, 0, 41, 65
1, 238400, Tempo, 401338
1, 238400, Note_on_c, 0, 41, 0
1, 238400, Note_on_c, 0, 42, 69
1, 238560, Tempo, 369231
1, 238560, Note_on_c, 0, 42, 0
1, 238560, Note_on_c, 0, 69, 0
1, 238560, Note_on_c, 0, 66, 0
1, 238560, Note_on_c, 0, 61, 0
1, 238560, Note_on_c, 0, 66, 59
1, 238560, Note_on_c, 0, 69, 59
1, 238560, Note_on_c, 0, 74, 70
1, 238560, Note_on_c, 0, 38, 74
1, 239026, Note_on_c, 0, 74, 0
1, 239026, Note_on_c, 0, 66, 0
1, 239026, Note_on_c, 0, 69, 0
1, 239040, Tempo, 362538
1, 239040, Note_on_c, 0, 69, 58
1, 239040, Note_on_c, 0, 74, 58
1, 239040, Note_on_c, 0, 78, 69
1, 239280, Note_on_c, 0, 78, 0
1, 239280, Note_on_c, 0, 74, 0
1, 239280, Note_on_c, 0, 69, 0
1, 239400, Note_on_c, 0, 38, 0
1, 239400, Note_on_c, 0, 40, 61
1, 239520, Note_on_c, 0, 40, 0
1, 239520, Note_on_c, 0, 69, 51
1, 239520, Note_on_c, 0, 74, 60
1, 239520, Note_on_c, 0, 66, 51
1, 239520, Note_on_c, 0, 42, 69
1, 239760, Note_on_c, 0, 66, 0
1, 239760, Note_on_c, 0, 69, 0
1, 239760, Note_on_c, 0, 74, 0
1, 239880, Note_on_c, 0, 42, 0
1, 239880, Note_on_c, 0, 43, 62
1, 240000, Tempo, 361446
1, 240000, Note_on_c, 0, 43, 0
1, 240000, Note_on_c, 0, 62, 47
1, 240000, Note_on_c, 0, 66, 56
1, 240000, Note_on_c, 0, 59, 47
1, 240000, Note_on_c, 0, 45, 70
1, 240240, Note_on_c, 0, 59, 0
1, 240240, Note_on_c, 0, 62, 0
1, 240240, Note_on_c, 0, 66, 0
1, 240320, Tempo, 400000
1, 240360, Note_on_c, 0, 45, 0
1, 240360, Note_on_c, 0, 47, 62
1, 240480, Tempo, 352941
1, 240480, Note_on_c, 0, 47, 0
1, 240480, Note_on_c, 0, 64, 56
1, 240480, Note_on_c, 0, 67, 67
1, 240480, Note_on_c, 0, 59, 56
1, 240480, Note_on_c, 0, 43, 70
1, 240640, Note_on_c, 0, 43, 0
1, 240640, Note_on_c, 0, 42, 58
1, 240800, Note_on_c, 0, 42, 0
1, 240800, Note_on_c, 0, 43, 58
1, 240960, Tempo, 361446
1, 240960, Note_on_c, 0, 43, 0
1, 240960, Note_on_c, 0, 40, 63
1, 241120, Note_on_c, 0, 40, 0
1, 241120, Note_on_c, 0, 39, 65
1, 241280, Tempo, 401338
1, 241280, Note_on_c, 0, 39, 0
1, 241280, Note_on_c, 0, 40, 68
1, 241440, Tempo, 364742
1, 241440, Note_on_c, 0, 40, 0
1, 241440, Note_on_c, 0, 59, 0
1, 241440, Note_on_c, 0, 67, 0
1, 241440, Note_on_c, 0, 64, 0
1, 241440, Note_on_c, 0, 67, 60
1, 241440, Note_on_c, 0, 73, 71
1, 241440, Note_on_c, 0, 64, 60
1, 241440, Note_on_c, 0, 37, 72
1, 241906, Note_on_c, 0, 64, 0
1, 241906, Note_on_c, 0, 67, 0
1, 241906, Note_on_c, 0, 73, 0
1, 241920, Note_on_c, 0, 67, 60
1, 241920, Note_on_c, 0, 76, 71
1, 241920, Note_on_c, 0, 73, 71
1, 242160, Note_on_c, 0, 73, 0
1, 242160, Note_on_c, 0, 76, 0
1, 242160, Note_on_c, 0, 67, 0
1, 242280, Note_on_c, 0, 37, 0
1, 242280, Note_on_c, 0, 38, 59
1, 242400, Tempo, 370370
1, 242400, Note_on_c, 0, 38, 0
1, 242400, Note_on_c, 0, 64, 55
1, 242400, Note_on_c, 0, 73, 65
1, 242400, Note_on_c, 0, 67, 55
1, 242400, Note_on_c, 0, 40, 73
1, 242640, Note_on_c, 0, 67, 0
1, 242640, Note_on_c, 0, 64, 0
1, 242640, Note_on_c, 0, 73, 0
1, 242760, Note_on_c, 0, 40, 0
1, 242760, Note_on_c, 0, 37, 57
1, 242880, Tempo, 390879
1, 242880, Note_on_c, 0, 37, 0
1, 242880, Note_on_c, 0, 61, 50
1, 242880, Note_on_c, 0, 68, 59
1, 242880, Note_on_c, 0, 71, 59
1, 242880, Note_on_c, 0, 41, 71
1, 243120, Note_on_c, 0, 71, 0
1, 243120, Note_on_c, 0, 61, 0
1, 243120, Note_on_c, 0, 68, 0
1, 243200, Tempo, 489796
1, 243240, Note_on_c, 0, 41, 0
1, 243240, Note_on_c, 0, 37, 58
1, 243360, Tempo, 398671
1, 243360, Note_on_c, 0, 37, 0
1, 243360, Note_on_c, 0, 66, 55
1, 243360, Note_on_c, 0, 61, 55
1, 243360, Note_on_c, 0, 70, 65
1, 243360, Note_on_c, 0, 42, 71
1, 243680, Control_c, 0, 64, 127
1, 244291, Note_on_c, 0, 42, 0
1, 244291, Note_on_c, 0, 70, 0
1, 244291, Note_on_c, 0, 61, 0
1, 244320, Tempo, 387097
1, 244320, Note_on_c, 0, 66, 0
1, 244320, Note_on_c, 0, 61, 51
1, 244320, Note_on_c, 0, 70, 60
1, 244320, Note_on_c, 0, 66, 51
1, 244320, Note_on_c, 0, 42, 68
1, 245135, Note_on_c, 0, 42, 0
1, 245135, Note_on_c, 0, 61, 0
1, 245135, Note_on_c, 0, 70, 0
1, 245135, Note_on_c, 0, 66, 0
1, 245160, Tempo, 387097
1, 245160, Note_on_c, 0, 73, 71
1, 245160, Note_on_c, 0, 66, 60
1, 245160, Note_on_c, 0, 46, 61
1, 245167, Control_c, 0, 64, 0
1, 245220, Note_on_c, 0, 46, 0
1, 245220, Note_on_c, 0, 66, 0
1, 245220, Note_on_c, 0, 73, 0
1, 245280, Note_on_c, 0, 66, 65
1, 245280, Note_on_c, 0, 75, 78
1, 245280, Note_on_c, 0, 47, 65
1, 245333, Control_c, 0, 64, 127
1, 245400, Note_on_c, 0, 47, 0
1, 245400, Note_on_c, 0, 75, 0
1, 245400, Note_on_c, 0, 66, 0
1, 245510, Control_c, 0, 64, 0
1, 245520, Tempo, 369231
1, 245640, Note_on_c, 0, 73, 73
1, 245640, Note_on_c, 0, 66, 61
1, 245640, Note_on_c, 0, 46, 61
1, 245700, Note_on_c, 0, 46, 0
1, 245700, Note_on_c, 0, 66, 0
1, 245700, Note_on_c, 0, 73, 0
1, 245760, Tempo, 361446
1, 245760, Note_on_c, 0, 66, 66
1, 245760, Note_on_c, 0, 75, 79
1, 245760, Note_on_c, 0, 47, 67
1, 245814, Control_c, 0, 64, 127
1, 245880, Note_on_c, 0, 47, 0
1, 245880, Note_on_c, 0, 75, 0
1, 245880, Note_on_c, 0, 66, 0
1, 245951, Control_c, 0, 64, 0
1, 246000, Tempo, 377358
1, 246120, Note_on_c, 0, 73, 76
1, 246120, Note_on_c, 0, 66, 64
1, 246120, Note_on_c, 0, 46, 65
1, 246180, Note_on_c, 0, 46, 0
1, 246180, Note_on_c, 0, 66, 0
1, 246180, Note_on_c, 0, 73, 0
1, 246240, Tempo, 389610
1, 246240, Note_on_c, 0, 71, 70
1, 246240, Note_on_c, 0, 77, 83
1, 246240, Note_on_c, 0, 65, 70
1, 246240, Note_on_c, 0, 44, 58
1, 246240, Note_on_c, 0, 49, 70
1, 246480, Control_c, 0, 64, 127
1, 247171, Note_on_c, 0, 49, 0
1, 247171, Note_on_c, 0, 65, 0
1, 247171, Note_on_c, 0, 77, 0
1, 247200, Tempo, 387097
1, 247200, Note_on_c, 0, 71, 0
1, 247200, Note_on_c, 0, 44, 0
1, 247200, Note_on_c, 0, 77, 83
1, 247200, Note_on_c, 0, 71, 70
1, 247200, Note_on_c, 0, 65, 70
1, 247200, Note_on_c, 0, 44, 58
1, 247200, Note_on_c, 0, 49, 70
1, 248015, Note_on_c, 0, 49, 0
1, 248015, Note_on_c, 0, 65, 0
1, 248015, Note_on_c, 0, 77, 0
1, 248015, Note_on_c, 0, 71, 0
1, 248015, Note_on_c, 0, 44, 0
1, 248040, Note_on_c, 0, 65, 58
1, 248040, Note_on_c, 0, 73, 58
1, 248040, Note_on_c, 0, 77, 73
1, 248040, Note_on_c, 0, 44, 56
1, 248040, Note_on_c, 0, 49, 66
1, 248050, Control_c, 0, 64, 0
1, 248154, Note_on_c, 0, 77, 0
1, 248154, Note_on_c, 0, 65, 0
1, 248154, Note_on_c, 0, 73, 0
1, 248160, Tempo, 382166
1, 248160, Note_on_c, 0, 44, 0
1, 248160, Note_on_c, 0, 49, 0
1, 248160, Note_on_c, 0, 73, 66
1, 248160, Note_on_c, 0, 77, 82
1, 248160, Note_on_c, 0, 65, 66
1, 248160, Note_on_c, 0, 46, 58
1, 248160, Note_on_c, 0, 49, 69
1, 248251, Control_c, 0, 64, 127
1, 248492, Note_on_c, 0, 49, 0
1, 248492, Note_on_c, 0, 77, 0
1, 248492, Note_on_c, 0, 46, 0
1, 248502, Note_on_c, 0, 65, 0
1, 248502, Note_on_c, 0, 73, 0
1, 248520, Note_on_c, 0, 73, 63
1, 248520, Note_on_c, 0, 77, 80
1, 248520, Note_on_c, 0, 65, 63
1, 248520, Note_on_c, 0, 44, 55
1, 248520, Note_on_c, 0, 49, 65
1, 248634, Note_on_c, 0, 65, 0
1, 248634, Note_on_c, 0, 73, 0
1, 248634, Note_on_c, 0, 77, 0
1, 248640, Tempo, 375000
1, 248640, Note_on_c, 0, 44, 0
1, 248640, Note_on_c, 0, 49, 0
1, 248640, Note_on_c, 0, 73, 67
1, 248640, Note_on_c, 0, 77, 85
1, 248640, Note_on_c, 0, 65, 67
1, 248640, Note_on_c, 0, 46, 60
1, 248640, Note_on_c, 0, 49, 72
1, 248647, Control_c, 0, 64, 0
1, 248739, Control_c, 0, 64, 127
1, 248880, Tempo, 452830
1, 248972, Note_on_c, 0, 49, 0
1, 248972, Note_on_c, 0, 46, 0
1, 248982, Note_on_c, 0, 73, 0
1, 248982, Note_on_c, 0, 77, 0
1, 248982, Note_on_c, 0, 65, 0
1, 249000, Note_on_c, 0, 65, 65
1, 249000, Note_on_c, 0, 77, 83
1, 249000, Note_on_c, 0, 73, 65
1, 249000, Note_on_c, 0, 44, 62
1, 249000, Note_on_c, 0, 49, 74
1, 249120, Tempo, 388350
1, 249120, Note_on_c, 0, 49, 0
1, 249120, Note_on_c, 0, 73, 0
1, 249120, Note_on_c, 0, 65, 0
1, 249120, Note_on_c, 0, 77, 0
1, 249120, Note_on_c, 0, 44, 0
1, 249120, Note_on_c, 0, 66, 78
1, 249120, Note_on_c, 0, 78, 93
1, 249120, Note_on_c, 0, 70, 78
1, 249120, Note_on_c, 0, 42, 65
1, 249120, Note_on_c, 0, 49, 74
1, 249126, Control_c, 0, 64, 0
1, 249440, Control_c, 0, 64, 127
1, 250051, Note_on_c, 0, 49, 0
1, 250051, Note_on_c, 0, 70, 0
1, 250051, Note_on_c, 0, 66, 0
1, 250051, Note_on_c, 0, 78, 0
1, 250051, Note_on_c, 0, 42, 0
1, 250080, Note_on_c, 0, 66, 78
1, 250080, Note_on_c, 0, 78, 93
1, 250080, Note_on_c, 0, 70, 78
1, 250080, Note_on_c, 0, 42, 65
1, 250080, Note_on_c, 0, 49, 74
1, 250900, Note_on_c, 0, 49, 0
1, 250900, Note_on_c, 0, 70, 0
1, 250900, Note_on_c, 0, 66, 0
1, 250900, Note_on_c, 0, 78, 0
1, 250900, Note_on_c, 0, 42, 0
1, 250920, Tempo, 387097
1, 250920, Note_on_c, 0, 69, 47
1, 250920, Note_on_c, 0, 67, 47
1, 250920, Note_on_c, 0, 73, 56
1, 250920, Note_on_c, 0, 57, 48
1, 250925, Control_c, 0, 64, 0
1, 250980, Note_on_c, 0, 57, 0
1, 250980, Note_on_c, 0, 69, 0
1, 250980, Note_on_c, 0, 67, 0
1, 250980, Note_on_c, 0, 73, 0
1, 251040, Tempo, 380952
1, 251040, Note_on_c, 0, 67, 51
1, 251040, Note_on_c, 0, 69, 51
1, 251040, Note_on_c, 0, 73, 60
1, 251040, Note_on_c, 0, 57, 51
1, 251062, Control_c, 0, 64, 127
1, 251389, Note_on_c, 0, 57, 0
1, 251389, Note_on_c, 0, 67, 0
1, 251389, Note_on_c, 0, 69, 0
1, 251389, Note_on_c, 0, 73, 0
1, 251400, Note_on_c, 0, 69, 47
1, 251400, Note_on_c, 0, 73, 56
1, 251400, Note_on_c, 0, 67, 47
1, 251400, Note_on_c, 0, 57, 47
1, 251410, Control_c, 0, 64, 0
1, 251460, Note_on_c, 0, 57, 0
1, 251460, Note_on_c, 0, 69, 0
1, 251460, Note_on_c, 0, 73, 0
1, 251460, Note_on_c, 0, 67, 0
1, 251506, Note_on_c, 0, 69, 50
1, 251506, Note_on_c, 0, 74, 60
1, 251506, Note_on_c, 0, 67, 50
1, 251506, Note_on_c, 0, 59, 51
1, 251520, Tempo, 372671
1, 251574, Control_c, 0, 64, 127
1, 251760, Tempo, 412371
1, 251855, Note_on_c, 0, 59, 0
1, 251855, Note_on_c, 0, 69, 0
1, 251855, Note_on_c, 0, 74, 0
1, 251855, Note_on_c, 0, 67, 0
1, 251880, Note_on_c, 0, 76, 56
1, 251880, Note_on_c, 0, 67, 47
1, 251880, Note_on_c, 0, 69, 47
1, 251880, Note_on_c, 0, 61, 48
1, 251889, Control_c, 0, 64, 0
1, 251940, Note_on_c, 0, 61, 0
1, 251940, Note_on_c, 0, 76, 0
1, 251940, Note_on_c, 0, 67, 0
1, 251940, Note_on_c, 0, 69, 0
1, 252000, Tempo, 392157
1, 252000, Note_on_c, 0, 66, 54
1, 252000, Note_on_c, 0, 69, 64
1, 252000, Note_on_c, 0, 62, 54
1, 252240, Control_c, 0, 64, 127
1, 252931, Note_on_c, 0, 62, 0
1, 252931, Note_on_c, 0, 69, 0
1, 252931, Note_on_c, 0, 66, 0
1, 252960, Tempo, 387097
1, 252960, Note_on_c, 0, 66, 54
1, 252960, Note_on_c, 0, 69, 54
1, 252960, Note_on_c, 0, 78, 64
1, 252960, Note_on_c, 0, 62, 54
1, 253775, Note_on_c, 0, 62, 0
1, 253775, Note_on_c, 0, 66, 0
1, 253775, Note_on_c, 0, 69, 0
1, 253775, Note_on_c, 0, 78, 0
1, 253800, Note_on_c, 0, 78, 53
1, 253800, Note_on_c, 0, 66, 53
1, 253800, Note_on_c, 0, 62, 44
1, 253815, Control_c, 0, 64, 0
1, 253907, Note_on_c, 0, 62, 0
1, 253916, Note_on_c, 0, 78, 0
1, 253917, Note_on_c, 0, 66, 0
1, 253920, Tempo, 384615
1, 253920, Note_on_c, 0, 78, 60
1, 253920, Note_on_c, 0, 66, 60
1, 253920, Note_on_c, 0, 62, 50
1, 254012, Control_c, 0, 64, 127
1, 254040, Note_on_c, 0, 62, 0
1, 254040, Note_on_c, 0, 66, 0
1, 254040, Note_on_c, 0, 78, 0
1, 254189, Control_c, 0, 64, 0
1, 254266, Note_on_c, 0, 78, 56
1, 254266, Note_on_c, 0, 66, 56
1, 254266, Note_on_c, 0, 62, 47
1, 254382, Note_on_c, 0, 62, 0
1, 254382, Note_on_c, 0, 66, 0
1, 254382, Note_on_c, 0, 78, 0
1, 254400, Tempo, 376176
1, 254400, Note_on_c, 0, 68, 59
1, 254400, Note_on_c, 0, 76, 59
1, 254400, Note_on_c, 0, 59, 41
1, 254400, Note_on_c, 0, 62, 49
1, 254469, Control_c, 0, 64, 127
1, 254520, Note_on_c, 0, 62, 0
1, 254520, Note_on_c, 0, 68, 0
1, 254520, Note_on_c, 0, 76, 0
1, 254520, Note_on_c, 0, 59, 0
1, 254583, Control_c, 0, 64, 0
1, 254640, Tempo, 436364
1, 254760, Note_on_c, 0, 74, 56
1, 254760, Note_on_c, 0, 68, 56
1, 254760, Note_on_c, 0, 59, 40
1, 254760, Note_on_c, 0, 62, 47
1, 254880, Tempo, 389610
1, 254880, Note_on_c, 0, 62, 0
1, 254880, Note_on_c, 0, 74, 0
1, 254880, Note_on_c, 0, 68, 0
1, 254880, Note_on_c, 0, 59, 0
1, 254880, Note_on_c, 0, 69, 54
1, 254880, Note_on_c, 0, 73, 64
1, 254880, Note_on_c, 0, 57, 45
1, 254880, Note_on_c, 0, 64, 54
1, 255120, Control_c, 0, 64, 127
1, 255811, Note_on_c, 0, 64, 0
1, 255811, Note_on_c, 0, 69, 0
1, 255811, Note_on_c, 0, 73, 0
1, 255811, Note_on_c, 0, 57, 0
1, 255840, Tempo, 387097
1, 255840, Note_on_c, 0, 76, 64
1, 255840, Note_on_c, 0, 69, 54
1, 255840, Note_on_c, 0, 57, 45
1, 255840, Note_on_c, 0, 61, 54
1, 256655, Note_on_c, 0, 61, 0
1, 256655, Note_on_c, 0, 76, 0
1, 256655, Note_on_c, 0, 69, 0
1, 256655, Note_on_c, 0, 57, 0
1, 256680, Tempo, 387097
1, 256680, Note_on_c, 0, 76, 53
1, 256680, Note_on_c, 0, 70, 53
1, 256680, Note_on_c, 0, 54, 35
1, 256680, Note_on_c, 0, 61, 44
1, 256695, Control_c, 0, 64, 0
1, 256787, Note_on_c, 0, 61, 0
1, 256787, Note_on_c, 0, 54, 0
1, 256797, Note_on_c, 0, 70, 0
1, 256797, Note_on_c, 0, 76, 0
1, 256800, Tempo, 382166
1, 256800, Note_on_c, 0, 76, 60
1, 256800, Note_on_c, 0, 70, 60
1, 256800, Note_on_c, 0, 61, 50
1, 256800, Note_on_c, 0, 54, 42
1, 256892, Control_c, 0, 64, 127
1, 256920, Note_on_c, 0, 54, 0
1, 256920, Note_on_c, 0, 76, 0
1, 256920, Note_on_c, 0, 70, 0
1, 256920, Note_on_c, 0, 61, 0
1, 257019, Control_c, 0, 64, 0
1, 257146, Note_on_c, 0, 76, 56
1, 257146, Note_on_c, 0, 70, 56
1, 257146, Note_on_c, 0, 61, 47
1, 257146, Note_on_c, 0, 54, 40
1, 257262, Note_on_c, 0, 54, 0
1, 257262, Note_on_c, 0, 76, 0
1, 257262, Note_on_c, 0, 70, 0
1, 257262, Note_on_c, 0, 61, 0
1, 257280, Tempo, 377358
1, 257280, Note_on_c, 0, 70, 59
1, 257280, Note_on_c, 0, 74, 59
1, 257280, Note_on_c, 0, 54, 41
1, 257280, Note_on_c, 0, 62, 49
1, 257349, Control_c, 0, 64, 127
1, 257400, Note_on_c, 0, 62, 0
1, 257400, Note_on_c, 0, 70, 0
1, 257400, Note_on_c, 0, 74, 0
1, 257400, Note_on_c, 0, 54, 0
1, 257463, Control_c, 0, 64, 0
1, 257520, Tempo, 449438
1, 257640, Note_on_c, 0, 73, 56
1, 257640, Note_on_c, 0, 70, 56
1, 257640, Note_on_c, 0, 54, 40
1, 257640, Note_on_c, 0, 64, 47
1, 257760, Tempo, 389610
1, 257760, Note_on_c, 0, 64, 0
1, 257760, Note_on_c, 0, 73, 0
1, 257760, Note_on_c, 0, 70, 0
1, 257760, Note_on_c, 0, 54, 0
1, 257760, Note_on_c, 0, 71, 64
1, 257760, Note_on_c, 0, 55, 45
1, 257760, Note_on_c, 0, 62, 54
1, 258000, Control_c, 0, 64, 127
1, 258691, Note_on_c, 0, 62, 0
1, 258691, Note_on_c, 0, 71, 0
1, 258720, Tempo, 387097
1, 258720, Note_on_c, 0, 55, 0
1, 258720, Note_on_c, 0, 67, 54
1, 258720, Note_on_c, 0, 74, 64
1, 258720, Note_on_c, 0, 55, 45
1, 258720, Note_on_c, 0, 59, 54
1, 259535, Note_on_c, 0, 59, 0
1, 259535, Note_on_c, 0, 67, 0
1, 259535, Note_on_c, 0, 74, 0
1, 259535, Note_on_c, 0, 55, 0
1, 259560, Tempo, 387097
1, 259560, Note_on_c, 0, 61, 53
1, 259560, Note_on_c, 0, 71, 53
1, 259560, Note_on_c, 0, 67, 53
1, 259560, Note_on_c, 0, 45, 44
1, 259575, Control_c, 0, 64, 0
1, 259670, Note_on_c, 0, 45, 0
1, 259680, Tempo, 384615
1, 259680, Note_on_c, 0, 61, 0
1, 259680, Note_on_c, 0, 71, 0
1, 259680, Note_on_c, 0, 67, 0
1, 259680, Note_on_c, 0, 67, 60
1, 259680, Note_on_c, 0, 71, 60
1, 259680, Note_on_c, 0, 61, 60
1, 259680, Note_on_c, 0, 45, 50
1, 259772, Control_c, 0, 64, 127
1, 259800, Note_on_c, 0, 45, 0
1, 259800, Note_on_c, 0, 67, 0
1, 259800, Note_on_c, 0, 71, 0
1, 259800, Note_on_c, 0, 61, 0
1, 259903, Control_c, 0, 64, 0
1, 260040, Note_on_c, 0, 71, 56
1, 260040, Note_on_c, 0, 67, 56
1, 260040, Note_on_c, 0, 61, 56
1, 260040, Note_on_c, 0, 45, 47
1, 260160, Tempo, 376176
1, 260160, Note_on_c, 0, 45, 0
1, 260160, Note_on_c, 0, 71, 0
1, 260160, Note_on_c, 0, 67, 0
1, 260160, Note_on_c, 0, 61, 0
1, 260160, Note_on_c, 0, 61, 59
1, 260160, Note_on_c, 0, 66, 59
1, 260160, Note_on_c, 0, 69, 59
1, 260160, Note_on_c, 0, 45, 49
1, 260229, Control_c, 0, 64, 127
1, 260280, Note_on_c, 0, 45, 0
1, 260280, Note_on_c, 0, 61, 0
1, 260280, Note_on_c, 0, 66, 0
1, 260280, Note_on_c, 0, 69, 0
1, 260343, Control_c, 0, 64, 0
1, 260400, Tempo, 449438
1, 260520, Note_on_c, 0, 61, 56
1, 260520, Note_on_c, 0, 64, 56
1, 260520, Note_on_c, 0, 67, 56
1, 260520, Note_on_c, 0, 45, 47
1, 260640, Tempo, 401338
1, 260640, Note_on_c, 0, 45, 0
1, 260640, Note_on_c, 0, 61, 0
1, 260640, Note_on_c, 0, 64, 0
1, 260640, Note_on_c, 0, 67, 0
1, 260640, Note_on_c, 0, 64, 54
1, 260640, Note_on_c, 0, 57, 54
1, 260640, Note_on_c, 0, 67, 64
1, 260640, Note_on_c, 0, 50, 54
1, 260880, Control_c, 0, 64, 127
1, 261571, Note_on_c, 0, 50, 0
1, 261571, Note_on_c, 0, 67, 0
1, 261571, Note_on_c, 0, 57, 0
1, 261600, Tempo, 387097
1, 261600, Note_on_c, 0, 64, 0
1, 261600, Note_on_c, 0, 57, 54
1, 261600, Note_on_c, 0, 66, 64
1, 261600, Note_on_c, 0, 62, 54
1, 261600, Note_on_c, 0, 50, 54
1, 261610, Control_c, 0, 64, 0
1, 261867, Control_c, 0, 64, 127
1, 262550, Note_on_c, 0, 50, 0
1, 262550, Note_on_c, 0, 57, 0
1, 262550, Note_on_c, 0, 66, 0
1, 262550, Note_on_c, 0, 62, 0
1, 262560, Tempo, 380952
1, 262560, Note_on_c, 0, 62, 56
1, 262560, Note_on_c, 0, 66, 56
1, 262560, Note_on_c, 0, 69, 67
1, 262560, Note_on_c, 0, 50, 45
1, 262564, Control_c, 0, 64, 0
1, 263016, Note_on_c, 0, 50, 0
1, 263016, Note_on_c, 0, 62, 0
1, 263016, Note_on_c, 0, 66, 0
1, 263016, Note_on_c, 0, 69, 0
1, 263040, Tempo, 385852
1, 263040, Note_on_c, 0, 62, 53
1, 263040, Note_on_c, 0, 66, 53
1, 263040, Note_on_c, 0, 70, 63
1, 263040, Note_on_c, 0, 49, 37
1, 263506, Note_on_c, 0, 49, 0
1, 263506, Note_on_c, 0, 62, 0
1, 263506, Note_on_c, 0, 66, 0
1, 263506, Note_on_c, 0, 70, 0
1, 263520, Tempo, 346821
1, 263520, Note_on_c, 0, 62, 51
1, 263520, Note_on_c, 0, 67, 51
1, 263520, Note_on_c, 0, 71, 60
1, 263520, Note_on_c, 0, 47, 67
1, 263680, Note_on_c, 0, 47, 0
1, 263680, Note_on_c, 0, 46, 57
1, 263840, Note_on_c, 0, 46, 0
1, 263840, Note_on_c, 0, 47, 57
1, 264000, Tempo, 350877
1, 264000, Note_on_c, 0, 47, 0
1, 264000, Note_on_c, 0, 43, 68
1, 264160, Note_on_c, 0, 43, 0
1, 264160, Note_on_c, 0, 42, 61
1, 264320, Tempo, 401338
1, 264320, Note_on_c, 0, 42, 0
1, 264320, Note_on_c, 0, 43, 65
1, 264480, Tempo, 364742
1, 264480, Note_on_c, 0, 43, 0
1, 264480, Note_on_c, 0, 71, 0
1, 264480, Note_on_c, 0, 67, 0
1, 264480, Note_on_c, 0, 62, 0
1, 264480, Note_on_c, 0, 67, 56
1, 264480, Note_on_c, 0, 71, 56
1, 264480, Note_on_c, 0, 76, 67
1, 264480, Note_on_c, 0, 40, 74
1, 264960, Note_on_c, 0, 76, 0
1, 264960, Note_on_c, 0, 67, 0
1, 264960, Note_on_c, 0, 71, 0
1, 264960, Note_on_c, 0, 71, 57
1, 264960, Note_on_c, 0, 76, 57
1, 264960, Note_on_c, 0, 79, 68
1, 265200, Note_on_c, 0, 79, 0
1, 265200, Note_on_c, 0, 76, 0
1, 265200, Note_on_c, 0, 71, 0
1, 265320, Note_on_c, 0, 40, 0
1, 265320, Note_on_c, 0, 42, 61
1, 265440, Note_on_c, 0, 42, 0
1, 265440, Note_on_c, 0, 67, 53
1, 265440, Note_on_c, 0, 71, 53
1, 265440, Note_on_c, 0, 76, 63
1, 265440, Note_on_c, 0, 43, 69
1, 265680, Note_on_c, 0, 71, 0
1, 265680, Note_on_c, 0, 67, 0
1, 265690, Note_on_c, 0, 76, 0
1, 265800, Note_on_c, 0, 43, 0
1, 265800, Note_on_c, 0, 45, 62
1, 265920, Tempo, 361446
1, 265920, Note_on_c, 0, 45, 0
1, 265920, Note_on_c, 0, 64, 49
1, 265920, Note_on_c, 0, 67, 58
1, 265920, Note_on_c, 0, 47, 70
1, 266160, Note_on_c, 0, 67, 0
1, 266160, Note_on_c, 0, 64, 0
1, 266240, Tempo, 400000
1, 266280, Note_on_c, 0, 47, 0
1, 266280, Note_on_c, 0, 50, 62
1, 266400, Tempo, 346821
1, 266400, Note_on_c, 0, 50, 0
1, 266400, Note_on_c, 0, 64, 55
1, 266400, Note_on_c, 0, 69, 55
1, 266400, Note_on_c, 0, 73, 65
1, 266400, Note_on_c, 0, 49, 69
1, 266560, Note_on_c, 0, 49, 0
1, 266560, Note_on_c, 0, 48, 63
1, 266720, Note_on_c, 0, 48, 0
1, 266720, Note_on_c, 0, 49, 59
1, 266880, Tempo, 353982
1, 266880, Note_on_c, 0, 49, 0
1, 266880, Note_on_c, 0, 45, 68
1, 267040, Note_on_c, 0, 45, 0
1, 267040, Note_on_c, 0, 44, 65
1, 267200, Tempo, 401338
1, 267200, Note_on_c, 0, 44, 0
1, 267200, Note_on_c, 0, 45, 69
1, 267360, Tempo, 364742
1, 267360, Note_on_c, 0, 45, 0
1, 267360, Note_on_c, 0, 73, 0
1, 267360, Note_on_c, 0, 69, 0
1, 267360, Note_on_c, 0, 64, 0
1, 267360, Note_on_c, 0, 69, 59
1, 267360, Note_on_c, 0, 73, 59
1, 267360, Note_on_c, 0, 78, 70
1, 267360, Note_on_c, 0, 42, 74
1, 267840, Note_on_c, 0, 78, 0
1, 267840, Note_on_c, 0, 69, 0
1, 267840, Note_on_c, 0, 73, 0
1, 267840, Note_on_c, 0, 73, 58
1, 267840, Note_on_c, 0, 78, 58
1, 267840, Note_on_c, 0, 81, 69
1, 268080, Note_on_c, 0, 81, 0
1, 268080, Note_on_c, 0, 78, 0
1, 268080, Note_on_c, 0, 73, 0
1, 268200, Note_on_c, 0, 42, 0
1, 268200, Note_on_c, 0, 44, 61
1, 268320, Note_on_c, 0, 44, 0
1, 268320, Note_on_c, 0, 69, 51
1, 268320, Note_on_c, 0, 73, 51
1, 268320, Note_on_c, 0, 78, 60
1, 268320, Note_on_c, 0, 45, 69
1, 268560, Note_on_c, 0, 78, 0
1, 268560, Note_on_c, 0, 69, 0
1, 268560, Note_on_c, 0, 73, 0
1, 268680, Note_on_c, 0, 45, 0
1, 268680, Note_on_c, 0, 47, 62
1, 268800, Tempo, 361446
1, 268800, Note_on_c, 0, 47, 0
1, 268800, Note_on_c, 0, 66, 47
1, 268800, Note_on_c, 0, 69, 56
1, 268800, Note_on_c, 0, 49, 70
1, 269040, Note_on_c, 0, 69, 0
1, 269040, Note_on_c, 0, 66, 0
1, 269120, Tempo, 400000
1, 269160, Note_on_c, 0, 49, 0
1, 269160, Note_on_c, 0, 52, 62
1, 269280, Tempo, 347826
1, 269280, Note_on_c, 0, 52, 0
1, 269280, Note_on_c, 0, 66, 56
1, 269280, Note_on_c, 0, 71, 56
1, 269280, Note_on_c, 0, 74, 67
1, 269280, Note_on_c, 0, 50, 70
1, 269440, Note_on_c, 0, 50, 0
1, 269440, Note_on_c, 0, 49, 58
1, 269600, Note_on_c, 0, 49, 0
1, 269600, Note_on_c, 0, 50, 58
1, 269760, Tempo, 361446
1, 269760, Note_on_c, 0, 50, 0
1, 269760, Note_on_c, 0, 47, 63
1, 269920, Note_on_c, 0, 47, 0
1, 269920, Note_on_c, 0, 46, 65
1, 270080, Tempo, 401338
1, 270080, Note_on_c, 0, 46, 0
1, 270080, Note_on_c, 0, 47, 68
1, 270240, Tempo, 364742
1, 270240, Note_on_c, 0, 47, 0
1, 270240, Note_on_c, 0, 74, 0
1, 270240, Note_on_c, 0, 71, 0
1, 270240, Note_on_c, 0, 66, 0
1, 270240, Note_on_c, 0, 71, 60
1, 270240, Note_on_c, 0, 74, 60
1, 270240, Note_on_c, 0, 79, 71
1, 270240, Note_on_c, 0, 43, 72
1, 270720, Note_on_c, 0, 79, 0
1, 270720, Note_on_c, 0, 71, 0
1, 270720, Note_on_c, 0, 74, 0
1, 270720, Note_on_c, 0, 74, 60
1, 270720, Note_on_c, 0, 79, 71
1, 270720, Note_on_c, 0, 83, 71
1, 270960, Note_on_c, 0, 83, 0
1, 270960, Note_on_c, 0, 79, 0
1, 270960, Note_on_c, 0, 74, 0
1, 271080, Note_on_c, 0, 43, 0
1, 271080, Note_on_c, 0, 45, 59
1, 271200, Tempo, 373832
1, 271200, Note_on_c, 0, 45, 0
1, 271200, Note_on_c, 0, 71, 60
1, 271200, Note_on_c, 0, 74, 60
1, 271200, Note_on_c, 0, 79, 71
1, 271200, Note_on_c, 0, 47, 73
1, 271440, Note_on_c, 0, 79, 0
1, 271440, Note_on_c, 0, 71, 0
1, 271440, Note_on_c, 0, 74, 0
1, 271560, Note_on_c, 0, 47, 0
1, 271560, Note_on_c, 0, 49, 57
1, 271680, Tempo, 390879
1, 271680, Note_on_c, 0, 49, 0
1, 271680, Note_on_c, 0, 67, 68
1, 271680, Note_on_c, 0, 71, 75
1, 271680, Note_on_c, 0, 50, 71
1, 271920, Note_on_c, 0, 71, 0
1, 271920, Note_on_c, 0, 67, 0
1, 272000, Tempo, 489796
1, 272040, Note_on_c, 0, 50, 0
1, 272040, Note_on_c, 0, 54, 58
1, 272160, Tempo, 398671
1, 272160, Note_on_c, 0, 54, 0
1, 272160, Note_on_c, 0, 79, 66
1, 272160, Note_on_c, 0, 69, 66
1, 272160, Note_on_c, 0, 73, 66
1, 272160, Note_on_c, 0, 81, 78
1, 272160, Note_on_c, 0, 52, 85
1, 272362, Control_c, 0, 64, 127
1, 273091, Note_on_c, 0, 52, 0
1, 273091, Note_on_c, 0, 73, 0
1, 273091, Note_on_c, 0, 81, 0
1, 273091, Note_on_c, 0, 69, 0
1, 273120, Tempo, 387097
1, 273120, Note_on_c, 0, 79, 0
1, 273120, Note_on_c, 0, 79, 61
1, 273120, Note_on_c, 0, 69, 61
1, 273120, Note_on_c, 0, 73, 61
1, 273120, Note_on_c, 0, 81, 72
1, 273120, Note_on_c, 0, 52, 68
1, 273120, Note_on_c, 0, 57, 81
1, 273935, Note_on_c, 0, 57, 0
1, 273935, Note_on_c, 0, 69, 0
1, 273935, Note_on_c, 0, 73, 0
1, 273935, Note_on_c, 0, 79, 0
1, 273935, Note_on_c, 0, 52, 0
1, 273935, Note_on_c, 0, 81, 0
1, 273960, Tempo, 387097
1, 273960, Note_on_c, 0, 73, 58
1, 273960, Note_on_c, 0, 79, 58
1, 273960, Note_on_c, 0, 81, 73
1, 273960, Note_on_c, 0, 45, 56
1, 273960, Note_on_c, 0, 57, 66
1, 273970, Control_c, 0, 64, 0
1, 274074, Note_on_c, 0, 81, 0
1, 274074, Note_on_c, 0, 73, 0
1, 274074, Note_on_c, 0, 79, 0
1, 274080, Tempo, 382166
1, 274080, Note_on_c, 0, 45, 0
1, 274080, Note_on_c, 0, 57, 0
1, 274080, Note_on_c, 0, 79, 66
1, 274080, Note_on_c, 0, 73, 66
1, 274080, Note_on_c, 0, 81, 82
1, 274080, Note_on_c, 0, 45, 58
1, 274080, Note_on_c, 0, 57, 69
1, 274171, Control_c, 0, 64, 127
1, 274412, Note_on_c, 0, 57, 0
1, 274412, Note_on_c, 0, 45, 0
1, 274413, Note_on_c, 0, 81, 0
1, 274422, Note_on_c, 0, 73, 0
1, 274422, Note_on_c, 0, 79, 0
1, 274440, Note_on_c, 0, 79, 63
1, 274440, Note_on_c, 0, 73, 63
1, 274440, Note_on_c, 0, 81, 80
1, 274440, Note_on_c, 0, 43, 55
1, 274440, Note_on_c, 0, 55, 65
1, 274554, Note_on_c, 0, 81, 0
1, 274554, Note_on_c, 0, 79, 0
1, 274554, Note_on_c, 0, 73, 0
1, 274560, Tempo, 375000
1, 274560, Note_on_c, 0, 43, 0
1, 274560, Note_on_c, 0, 55, 0
1, 274560, Note_on_c, 0, 83, 85
1, 274560, Note_on_c, 0, 73, 67
1, 274560, Note_on_c, 0, 79, 67
1, 274560, Note_on_c, 0, 42, 60
1, 274560, Note_on_c, 0, 54, 72
1, 274567, Control_c, 0, 64, 0
1, 274659, Control_c, 0, 64, 127
1, 274800, Tempo, 452830
1, 274892, Note_on_c, 0, 54, 0
1, 274892, Note_on_c, 0, 42, 0
1, 274902, Note_on_c, 0, 83, 0
1, 274902, Note_on_c, 0, 73, 0
1, 274902, Note_on_c, 0, 79, 0
1, 274920, Note_on_c, 0, 85, 83
1, 274920, Note_on_c, 0, 73, 65
1, 274920, Note_on_c, 0, 79, 65
1, 274920, Note_on_c, 0, 40, 62
1, 274920, Note_on_c, 0, 52, 74
1, 275040, Tempo, 388350
1, 275040, Note_on_c, 0, 52, 0
1, 275040, Note_on_c, 0, 79, 0
1, 275040, Note_on_c, 0, 85, 0
1, 275040, Note_on_c, 0, 73, 0
1, 275040, Note_on_c, 0, 40, 0
1, 275040, Note_on_c, 0, 86, 93
1, 275040, Note_on_c, 0, 74, 78
1, 275040, Note_on_c, 0, 78, 78
1, 275040, Note_on_c, 0, 38, 65
1, 275040, Note_on_c, 0, 45, 65
1, 275040, Note_on_c, 0, 50, 74
1, 275046, Control_c, 0, 64, 0
1, 275360, Control_c, 0, 64, 127
1, 275971, Note_on_c, 0, 50, 0
1, 275971, Note_on_c, 0, 74, 0
1, 275971, Note_on_c, 0, 78, 0
1, 275971, Note_on_c, 0, 86, 0
1, 275971, Note_on_c, 0, 45, 0
1, 275971, Note_on_c, 0, 38, 0
1, 276000, Note_on_c, 0, 78, 78
1, 276000, Note_on_c, 0, 74, 78
1, 276000, Note_on_c, 0, 86, 93
1, 276000, Note_on_c, 0, 45, 65
1, 276000, Note_on_c, 0, 38, 65
1, 276000, Note_on_c, 0, 50, 74
1, 276820, Note_on_c, 0, 50, 0
1, 276820, Note_on_c, 0, 74, 0
1, 276820, Note_on_c, 0, 86, 0
1, 276820, Note_on_c, 0, 78, 0
1, 276820, Note_on_c, 0, 38, 0
1, 276820, Note_on_c, 0, 45, 0
1, 276840, Tempo, 387097
1, 276840, Note_on_c, 0, 69, 56
1, 276840, Note_on_c, 0, 66, 47
1, 276845, Control_c, 0, 64, 0
1, 276900, Note_on_c, 0, 66, 0
1, 276900, Note_on_c, 0, 69, 0
1, 276960, Tempo, 380952
1, 276960, Note_on_c, 0, 66, 51
1, 276960, Note_on_c, 0, 69, 60
1, 276982, Control_c, 0, 64, 127
1, 277309, Note_on_c, 0, 69, 0
1, 277309, Note_on_c, 0, 66, 0
1, 277320, Note_on_c, 0, 69, 56
1, 277320, Note_on_c, 0, 66, 47
1, 277330, Control_c, 0, 64, 0
1, 277380, Note_on_c, 0, 66, 0
1, 277380, Note_on_c, 0, 69, 0
1, 277440, Tempo, 372671
1, 277440, Note_on_c, 0, 67, 60
1, 277440, Note_on_c, 0, 64, 50
1, 277494, Control_c, 0, 64, 127
1, 277680, Tempo, 412371
1, 277789, Note_on_c, 0, 64, 0
1, 277789, Note_on_c, 0, 67, 0
1, 277800, Note_on_c, 0, 62, 47
1, 277800, Note_on_c, 0, 66, 56
1, 277809, Control_c, 0, 64, 0
1, 277860, Note_on_c, 0, 66, 0
1, 277860, Note_on_c, 0, 62, 0
1, 277920, Tempo, 392157
1, 277920, Note_on_c, 0, 64, 64
1, 277920, Note_on_c, 0, 57, 54
1, 277920, Note_on_c, 0, 45, 45
1, 277920, Note_on_c, 0, 49, 45
1, 277920, Note_on_c, 0, 55, 54
1, 278160, Control_c, 0, 64, 127
1, 278851, Note_on_c, 0, 55, 0
1, 278851, Note_on_c, 0, 45, 0
1, 278851, Note_on_c, 0, 64, 0
1, 278851, Note_on_c, 0, 57, 0
1, 278851, Note_on_c, 0, 49, 0
1, 278880, Tempo, 387097
1, 278880, Note_on_c, 0, 57, 54
1, 278880, Note_on_c, 0, 64, 64
1, 278880, Note_on_c, 0, 45, 45
1, 278880, Note_on_c, 0, 49, 45
1, 278880, Note_on_c, 0, 55, 54
1, 279360, Tempo, 396040
1, 279695, Note_on_c, 0, 64, 0
1, 279695, Note_on_c, 0, 57, 0
1, 279720, Tempo, 396040
1, 279720, Note_on_c, 0, 71, 50
1, 279720, Note_on_c, 0, 67, 41
1, 279725, Control_c, 0, 64, 0
1, 279780, Note_on_c, 0, 67, 0
1, 279780, Note_on_c, 0, 71, 0
1, 279840, Tempo, 388350
1, 279840, Note_on_c, 0, 55, 0
1, 279840, Note_on_c, 0, 45, 0
1, 279840, Note_on_c, 0, 49, 0
1, 279840, Note_on_c, 0, 66, 44
1, 279840, Note_on_c, 0, 69, 53
1, 279862, Control_c, 0, 64, 127
1, 280189, Note_on_c, 0, 69, 0
1, 280189, Note_on_c, 0, 66, 0
1, 280200, Note_on_c, 0, 67, 47
1, 280200, Note_on_c, 0, 64, 39
1, 280210, Control_c, 0, 64, 0
1, 280260, Note_on_c, 0, 64, 0
1, 280260, Note_on_c, 0, 67, 0
1, 280320, Tempo, 384615
1, 280320, Note_on_c, 0, 66, 50
1, 280320, Note_on_c, 0, 62, 41
1, 280374, Control_c, 0, 64, 127
1, 280560, Tempo, 487805
1, 280669, Note_on_c, 0, 62, 0
1, 280669, Note_on_c, 0, 66, 0
1, 280680, Note_on_c, 0, 57, 36
1, 280680, Note_on_c, 0, 64, 44
1, 280689, Control_c, 0, 64, 0
1, 280740, Note_on_c, 0, 64, 0
1, 280740, Note_on_c, 0, 57, 0
1, 280800, Tempo, 419580
1, 280800, Note_on_c, 0, 62, 46
1, 280800, Note_on_c, 0, 54, 39
1, 280800, Note_on_c, 0, 38, 33
1, 280800, Note_on_c, 0, 45, 33
1, 280800, Note_on_c, 0, 50, 39
1, 281040, Control_c, 0, 64, 127
1, 281731, Note_on_c, 0, 50, 0
1, 281731, Note_on_c, 0, 62, 0
1, 281731, Note_on_c, 0, 54, 0
1, 281760, Tempo, 416667
1, 281760, Note_on_c, 0, 38, 0
1, 281760, Note_on_c, 0, 45, 0
1, 281760, Note_on_c, 0, 62, 44
1, 281760, Note_on_c, 0, 54, 37
1, 281760, Note_on_c, 0, 38, 31
1, 281760, Note_on_c, 0, 45, 31
1, 281760, Note_on_c, 0, 50, 37
1, 282240, Key_signature, 1, "major"
1, 282710, Note_on_c, 0, 50, 0
1, 282710, Note_on_c, 0, 38, 0
1, 282710, Note_on_c, 0, 62, 0
1, 282710, Note_on_c, 0, 54, 0
1, 282710, Note_on_c, 0, 45, 0
1, 282720, Tempo, 421053
1, 282720, Marker_t, "Trio Teil1"
1, 282720, Note_on_c, 0, 62, 44
1, 282720, Note_on_c, 0, 50, 35
1, 282720, Control_c, 0, 64, 0
1, 282960, Control_c, 0, 64, 127
1, 283176, Note_on_c, 0, 50, 0
1, 283176, Note_on_c, 0, 62, 0
1, 283200, Tempo, 452830
1, 283200, Note_on_c, 0, 62, 41
1, 283200, Note_on_c, 0, 50, 32
1, 283656, Note_on_c, 0, 50, 0
1, 283656, Note_on_c, 0, 62, 0
1, 283680, Tempo, 422535
1, 283680, Note_on_c, 0, 59, 37
1, 283680, Note_on_c, 0, 62, 37
1, 283680, Note_on_c, 0, 71, 44
1, 283680, Note_on_c, 0, 43, 29
1, 283680, Note_on_c, 0, 50, 29
1, 283680, Note_on_c, 0, 55, 35
1, 284631, Note_on_c, 0, 55, 0
1, 284631, Note_on_c, 0, 62, 0
1, 284631, Note_on_c, 0, 71, 0
1, 284631, Note_on_c, 0, 59, 0
1, 284631, Note_on_c, 0, 50, 0
1, 284631, Note_on_c, 0, 43, 0
1, 284640, Tempo, 413793
1, 284640, Note_on_c, 0, 59, 37
1, 284640, Note_on_c, 0, 62, 37
1, 284640, Note_on_c, 0, 71, 44
1, 284640, Note_on_c, 0, 43, 29
1, 284640, Note_on_c, 0, 50, 29
1, 284640, Note_on_c, 0, 55, 35
1, 285096, Note_on_c, 0, 55, 0
1, 285096, Note_on_c, 0, 62, 0
1, 285096, Note_on_c, 0, 71, 0
1, 285096, Note_on_c, 0, 59, 0
1, 285096, Note_on_c, 0, 50, 0
1, 285096, Note_on_c, 0, 43, 0
1, 285120, Tempo, 394737
1, 285120, Note_on_c, 0, 59, 37
1, 285120, Note_on_c, 0, 62, 37
1, 285120, Note_on_c, 0, 71, 44
1, 285120, Note_on_c, 0, 43, 29
1, 285120, Note_on_c, 0, 50, 29
1, 285120, Note_on_c, 0, 55, 35
1, 285576, Note_on_c, 0, 55, 0
1, 285576, Note_on_c, 0, 62, 0
1, 285576, Note_on_c, 0, 71, 0
1, 285576, Note_on_c, 0, 59, 0
1, 285576, Note_on_c, 0, 50, 0
1, 285576, Note_on_c, 0, 43, 0
1, 285600, Tempo, 384615
1, 285600, Note_on_c, 0, 59, 35
1, 285600, Note_on_c, 0, 62, 35
1, 285600, Note_on_c, 0, 71, 42
1, 285600, Note_on_c, 0, 43, 28
1, 285600, Note_on_c, 0, 50, 28
1, 285600, Note_on_c, 0, 55, 33
1, 286056, Note_on_c, 0, 55, 0
1, 286056, Note_on_c, 0, 62, 0
1, 286056, Note_on_c, 0, 71, 0
1, 286056, Note_on_c, 0, 59, 0
1, 286056, Note_on_c, 0, 50, 0
1, 286056, Note_on_c, 0, 43, 0
1, 286080, Tempo, 408163
1, 286080, Note_on_c, 0, 59, 35
1, 286080, Note_on_c, 0, 62, 35
1, 286080, Note_on_c, 0, 71, 42
1, 286080, Note_on_c, 0, 43, 28
1, 286080, Note_on_c, 0, 50, 28
1, 286080, Note_on_c, 0, 55, 33
1, 286536, Note_on_c, 0, 55, 0
1, 286536, Note_on_c, 0, 62, 0
1, 286536, Note_on_c, 0, 71, 0
1, 286536, Note_on_c, 0, 59, 0
1, 286536, Note_on_c, 0, 50, 0
1, 286536, Note_on_c, 0, 43, 0
1, 286560, Tempo, 401338
1, 286560, Note_on_c, 0, 59, 37
1, 286560, Note_on_c, 0, 62, 37
1, 286560, Note_on_c, 0, 71, 44
1, 286560, Note_on_c, 0, 43, 29
1, 286560, Note_on_c, 0, 50, 29
1, 286560, Note_on_c, 0, 55, 35
1, 287016, Note_on_c, 0, 55, 0
1, 287016, Note_on_c, 0, 62, 0
1, 287016, Note_on_c, 0, 71, 0
1, 287016, Note_on_c, 0, 59, 0
1, 287016, Note_on_c, 0, 50, 0
1, 287016, Note_on_c, 0, 43, 0
1, 287040, Tempo, 388350
1, 287040, Note_on_c, 0, 64, 40
1, 287040, Note_on_c, 0, 67, 40
1, 287040, Note_on_c, 0, 76, 48
1, 287040, Note_on_c, 0, 48, 32
1, 287040, Note_on_c, 0, 50, 32
1, 287040, Note_on_c, 0, 60, 38
1, 287050, Control_c, 0, 64, 0
1, 287343, Control_c, 0, 64, 127
1, 287505, Note_on_c, 0, 60, 0
1, 287505, Note_on_c, 0, 48, 0
1, 287506, Note_on_c, 0, 76, 0
1, 287506, Note_on_c, 0, 64, 0
1, 287506, Note_on_c, 0, 67, 0
1, 287506, Note_on_c, 0, 50, 0
1, 287520, Tempo, 408163
1, 287520, Note_on_c, 0, 62, 37
1, 287520, Note_on_c, 0, 67, 37
1, 287520, Note_on_c, 0, 74, 44
1, 287520, Note_on_c, 0, 50, 29
1, 287520, Note_on_c, 0, 47, 29
1, 287520, Note_on_c, 0, 59, 35
1, 287533, Control_c, 0, 64, 0
1, 287722, Control_c, 0, 64, 127
1, 287976, Note_on_c, 0, 59, 0
1, 287976, Note_on_c, 0, 67, 0
1, 287976, Note_on_c, 0, 74, 0
1, 287976, Note_on_c, 0, 62, 0
1, 287976, Note_on_c, 0, 47, 0
1, 287976, Note_on_c, 0, 50, 0
1, 288000, Tempo, 385852
1, 288000, Note_on_c, 0, 62, 37
1, 288000, Note_on_c, 0, 67, 37
1, 288000, Note_on_c, 0, 74, 44
1, 288000, Note_on_c, 0, 47, 29
1, 288000, Note_on_c, 0, 50, 29
1, 288000, Note_on_c, 0, 59, 35
1, 288456, Note_on_c, 0, 59, 0
1, 288456, Note_on_c, 0, 67, 0
1, 288456, Note_on_c, 0, 74, 0
1, 288456, Note_on_c, 0, 62, 0
1, 288456, Note_on_c, 0, 50, 0
1, 288456, Note_on_c, 0, 47, 0
1, 288480, Tempo, 382166
1, 288480, Note_on_c, 0, 62, 34
1, 288480, Note_on_c, 0, 67, 34
1, 288480, Note_on_c, 0, 74, 40
1, 288480, Note_on_c, 0, 47, 27
1, 288480, Note_on_c, 0, 50, 27
1, 288480, Note_on_c, 0, 59, 32
1, 288936, Note_on_c, 0, 59, 0
1, 288936, Note_on_c, 0, 67, 0
1, 288936, Note_on_c, 0, 74, 0
1, 288936, Note_on_c, 0, 62, 0
1, 288936, Note_on_c, 0, 50, 0
1, 288936, Note_on_c, 0, 47, 0
1, 288960, Tempo, 413793
1, 288960, Note_on_c, 0, 62, 34
1, 288960, Note_on_c, 0, 67, 34
1, 288960, Note_on_c, 0, 74, 40
1, 288960, Note_on_c, 0, 47, 27
1, 288960, Note_on_c, 0, 50, 27
1, 288960, Note_on_c, 0, 59, 32
1, 289416, Note_on_c, 0, 59, 0
1, 289416, Note_on_c, 0, 67, 0
1, 289416, Note_on_c, 0, 74, 0
1, 289416, Note_on_c, 0, 62, 0
1, 289416, Note_on_c, 0, 50, 0
1, 289416, Note_on_c, 0, 47, 0
1, 289440, Tempo, 387097
1, 289440, Note_on_c, 0, 62, 37
1, 289440, Note_on_c, 0, 67, 37
1, 289440, Note_on_c, 0, 74, 44
1, 289440, Note_on_c, 0, 47, 29
1, 289440, Note_on_c, 0, 50, 29
1, 289440, Note_on_c, 0, 59, 35
1, 289920, Tempo, 401338
1, 289920, Note_on_c, 0, 59, 0
1, 289920, Note_on_c, 0, 67, 0
1, 289920, Note_on_c, 0, 74, 0
1, 289920, Note_on_c, 0, 62, 0
1, 289920, Note_on_c, 0, 50, 0
1, 289920, Note_on_c, 0, 47, 0
1, 289920, Note_on_c, 0, 57, 33
1, 289920, Note_on_c, 0, 62, 33
1, 289920, Note_on_c, 0, 69, 39
1, 289920, Note_on_c, 0, 42, 26
1, 289920, Note_on_c, 0, 50, 26
1, 289920, Note_on_c, 0, 54, 31
1, 289932, Control_c, 0, 64, 0
1, 290072, Control_c, 0, 64, 127
1, 290386, Note_on_c, 0, 54, 0
1, 290386, Note_on_c, 0, 62, 0
1, 290386, Note_on_c, 0, 69, 0
1, 290386, Note_on_c, 0, 57, 0
1, 290386, Note_on_c, 0, 50, 0
1, 290386, Note_on_c, 0, 42, 0
1, 290400, Tempo, 418118
1, 290400, Note_on_c, 0, 60, 33
1, 290400, Note_on_c, 0, 62, 33
1, 290400, Note_on_c, 0, 72, 39
1, 290400, Note_on_c, 0, 45, 26
1, 290400, Note_on_c, 0, 50, 26
1, 290400, Note_on_c, 0, 57, 31
1, 290410, Control_c, 0, 64, 0
1, 290577, Control_c, 0, 64, 127
1, 290865, Note_on_c, 0, 72, 0
1, 290865, Note_on_c, 0, 60, 0
1, 290866, Note_on_c, 0, 45, 0
1, 290866, Note_on_c, 0, 62, 0
1, 290866, Note_on_c, 0, 57, 0
1, 290866, Note_on_c, 0, 50, 0
1, 290880, Tempo, 387097
1, 290880, Note_on_c, 0, 60, 37
1, 290880, Note_on_c, 0, 62, 37
1, 290880, Note_on_c, 0, 72, 44
1, 290880, Note_on_c, 0, 45, 29
1, 290880, Note_on_c, 0, 50, 29
1, 290880, Note_on_c, 0, 57, 35
1, 291345, Note_on_c, 0, 72, 0
1, 291345, Note_on_c, 0, 60, 0
1, 291346, Note_on_c, 0, 45, 0
1, 291346, Note_on_c, 0, 62, 0
1, 291346, Note_on_c, 0, 57, 0
1, 291346, Note_on_c, 0, 50, 0
1, 291360, Tempo, 400000
1, 291360, Note_on_c, 0, 59, 35
1, 291360, Note_on_c, 0, 62, 35
1, 291360, Note_on_c, 0, 71, 42
1, 291360, Note_on_c, 0, 43, 28
1, 291360, Note_on_c, 0, 50, 28
1, 291360, Note_on_c, 0, 55, 33
1, 291369, Control_c, 0, 64, 0
1, 291613, Control_c, 0, 64, 127
1, 291826, Note_on_c, 0, 55, 0
1, 291826, Note_on_c, 0, 62, 0
1, 291826, Note_on_c, 0, 71, 0
1, 291826, Note_on_c, 0, 59, 0
1, 291826, Note_on_c, 0, 50, 0
1, 291826, Note_on_c, 0, 43, 0
1, 291840, Tempo, 419580
1, 291840, Note_on_c, 0, 57, 35
1, 291840, Note_on_c, 0, 62, 35
1, 291840, Note_on_c, 0, 69, 42
1, 291840, Note_on_c, 0, 42, 28
1, 291840, Note_on_c, 0, 50, 28
1, 291840, Note_on_c, 0, 54, 33
1, 291852, Control_c, 0, 64, 0
1, 292068, Control_c, 0, 64, 127
1, 292306, Note_on_c, 0, 54, 0
1, 292306, Note_on_c, 0, 62, 0
1, 292306, Note_on_c, 0, 69, 0
1, 292306, Note_on_c, 0, 57, 0
1, 292306, Note_on_c, 0, 50, 0
1, 292306, Note_on_c, 0, 42, 0
1, 292320, Tempo, 412371
1, 292320, Note_on_c, 0, 57, 37
1, 292320, Note_on_c, 0, 62, 37
1, 292320, Note_on_c, 0, 69, 44
1, 292320, Note_on_c, 0, 42, 29
1, 292320, Note_on_c, 0, 50, 29
1, 292320, Note_on_c, 0, 54, 35
1, 292786, Note_on_c, 0, 54, 0
1, 292786, Note_on_c, 0, 62, 0
1, 292786, Note_on_c, 0, 69, 0
1, 292786, Note_on_c, 0, 57, 0
1, 292786, Note_on_c, 0, 50, 0
1, 292786, Note_on_c, 0, 42, 0
1, 292800, Tempo, 400000
1, 292800, Note_on_c, 0, 59, 33
1, 292800, Note_on_c, 0, 62, 33
1, 292800, Note_on_c, 0, 71, 39
1, 292800, Note_on_c, 0, 43, 26
1, 292800, Note_on_c, 0, 50, 26
1, 292800, Note_on_c, 0, 55, 31
1, 292803, Control_c, 0, 64, 0
1, 293094, Control_c, 0, 64, 127
1, 293266, Note_on_c, 0, 55, 0
1, 293266, Note_on_c, 0, 62, 0
1, 293266, Note_on_c, 0, 71, 0
1, 293266, Note_on_c, 0, 59, 0
1, 293266, Note_on_c, 0, 50, 0
1, 293266, Note_on_c, 0, 43, 0
1, 293280, Tempo, 425532
1, 293280, Note_on_c, 0, 59, 33
1, 293280, Note_on_c, 0, 62, 33
1, 293280, Note_on_c, 0, 71, 39
1, 293280, Note_on_c, 0, 43, 26
1, 293280, Note_on_c, 0, 50, 26
1, 293280, Note_on_c, 0, 55, 31
1, 293746, Note_on_c, 0, 55, 0
1, 293746, Note_on_c, 0, 62, 0
1, 293746, Note_on_c, 0, 71, 0
1, 293746, Note_on_c, 0, 59, 0
1, 293746, Note_on_c, 0, 50, 0
1, 293746, Note_on_c, 0, 43, 0
1, 293760, Tempo, 401338
1, 293760, Note_on_c, 0, 59, 37
1, 293760, Note_on_c, 0, 62, 37
1, 293760, Note_on_c, 0, 71, 44
1, 293760, Note_on_c, 0, 43, 29
1, 293760, Note_on_c, 0, 50, 29
1, 293760, Note_on_c, 0, 55, 35
1, 294226, Note_on_c, 0, 55, 0
1, 294226, Note_on_c, 0, 62, 0
1, 294226, Note_on_c, 0, 71, 0
1, 294226, Note_on_c, 0, 59, 0
1, 294226, Note_on_c, 0, 50, 0
1, 294226, Note_on_c, 0, 43, 0
1, 294240, Tempo, 413793
1, 294240, Note_on_c, 0, 62, 43
1, 294240, Note_on_c, 0, 69, 51
1, 294240, Note_on_c, 0, 57, 43
1, 294240, Note_on_c, 0, 42, 33
1, 294240, Note_on_c, 0, 50, 33
1, 294240, Note_on_c, 0, 54, 40
1, 294255, Control_c, 0, 64, 0
1, 294468, Control_c, 0, 64, 127
1, 294706, Note_on_c, 0, 54, 0
1, 294706, Note_on_c, 0, 69, 0
1, 294706, Note_on_c, 0, 57, 0
1, 294706, Note_on_c, 0, 62, 0
1, 294706, Note_on_c, 0, 50, 0
1, 294706, Note_on_c, 0, 42, 0
1, 294720, Tempo, 430108
1, 294720, Note_on_c, 0, 62, 50
1, 294720, Note_on_c, 0, 67, 60
1, 294720, Note_on_c, 0, 55, 50
1, 294720, Note_on_c, 0, 40, 39
1, 294720, Note_on_c, 0, 50, 39
1, 294720, Note_on_c, 0, 52, 47
1, 294734, Control_c, 0, 64, 0
1, 294948, Control_c, 0, 64, 127
1, 295186, Note_on_c, 0, 52, 0
1, 295186, Note_on_c, 0, 67, 0
1, 295186, Note_on_c, 0, 55, 0
1, 295186, Note_on_c, 0, 62, 0
1, 295186, Note_on_c, 0, 50, 0
1, 295186, Note_on_c, 0, 40, 0
1, 295200, Tempo, 415225
1, 295200, Note_on_c, 0, 62, 55
1, 295200, Note_on_c, 0, 69, 66
1, 295200, Note_on_c, 0, 66, 55
1, 295200, Note_on_c, 0, 57, 55
1, 295200, Note_on_c, 0, 38, 43
1, 295200, Note_on_c, 0, 50, 52
1, 295254, Control_c, 0, 64, 0
1, 295574, Control_c, 0, 64, 127
1, 296150, Note_on_c, 0, 66, 0
1, 296150, Note_on_c, 0, 62, 0
1, 296151, Note_on_c, 0, 57, 0
1, 296151, Note_on_c, 0, 69, 0
1, 296151, Note_on_c, 0, 50, 0
1, 296151, Note_on_c, 0, 38, 0
1, 296160, Note_on_c, 0, 57, 44
1, 296160, Note_on_c, 0, 62, 44
1, 296160, Note_on_c, 0, 66, 44
1, 296160, Note_on_c, 0, 69, 52
1, 296160, Note_on_c, 0, 38, 34
1, 296160, Note_on_c, 0, 50, 42
1, 296616, Note_on_c, 0, 50, 0
1, 296616, Note_on_c, 0, 62, 0
1, 296616, Note_on_c, 0, 66, 0
1, 296616, Note_on_c, 0, 57, 0
1, 296616, Note_on_c, 0, 38, 0
1, 296616, Note_on_c, 0, 69, 0
1, 296640, Tempo, 390879
1, 296640, Note_on_c, 0, 57, 44
1, 296640, Note_on_c, 0, 62, 44
1, 296640, Note_on_c, 0, 66, 44
1, 296640, Note_on_c, 0, 69, 52
1, 296640, Note_on_c, 0, 38, 34
1, 296640, Note_on_c, 0, 50, 42
1, 297096, Note_on_c, 0, 50, 0
1, 297096, Note_on_c, 0, 62, 0
1, 297096, Note_on_c, 0, 66, 0
1, 297096, Note_on_c, 0, 57, 0
1, 297096, Note_on_c, 0, 38, 0
1, 297096, Note_on_c, 0, 69, 0
1, 297120, Tempo, 404040
1, 297120, Note_on_c, 0, 66, 42
1, 297120, Note_on_c, 0, 57, 42
1, 297120, Note_on_c, 0, 69, 50
1, 297120, Note_on_c, 0, 62, 42
1, 297120, Note_on_c, 0, 38, 33
1, 297120, Note_on_c, 0, 50, 39
1, 297576, Note_on_c, 0, 50, 0
1, 297576, Note_on_c, 0, 57, 0
1, 297576, Note_on_c, 0, 69, 0
1, 297576, Note_on_c, 0, 66, 0
1, 297576, Note_on_c, 0, 38, 0
1, 297576, Note_on_c, 0, 62, 0
1, 297600, Tempo, 413793
1, 297600, Note_on_c, 0, 62, 42
1, 297600, Note_on_c, 0, 57, 42
1, 297600, Note_on_c, 0, 67, 42
1, 297600, Note_on_c, 0, 69, 50
1, 297600, Note_on_c, 0, 40, 33
1, 297600, Note_on_c, 0, 50, 33
1, 297600, Note_on_c, 0, 52, 39
1, 297606, Control_c, 0, 64, 0
1, 297853, Control_c, 0, 64, 127
1, 298056, Note_on_c, 0, 52, 0
1, 298056, Note_on_c, 0, 40, 0
1, 298056, Note_on_c, 0, 57, 0
1, 298056, Note_on_c, 0, 67, 0
1, 298056, Note_on_c, 0, 62, 0
1, 298056, Note_on_c, 0, 50, 0
1, 298056, Note_on_c, 0, 69, 0
1, 298080, Note_on_c, 0, 57, 45
1, 298080, Note_on_c, 0, 62, 45
1, 298080, Note_on_c, 0, 69, 54
1, 298080, Note_on_c, 0, 42, 28
1, 298080, Note_on_c, 0, 50, 28
1, 298080, Note_on_c, 0, 54, 42
1, 298096, Control_c, 0, 64, 0
1, 298347, Control_c, 0, 64, 127
1, 298536, Note_on_c, 0, 54, 0
1, 298536, Note_on_c, 0, 62, 0
1, 298536, Note_on_c, 0, 69, 0
1, 298536, Note_on_c, 0, 57, 0
1, 298536, Note_on_c, 0, 50, 0
1, 298536, Note_on_c, 0, 42, 0
1, 298560, Tempo, 393443
1, 298560, Note_on_c, 0, 66, 53
1, 298560, Note_on_c, 0, 74, 63
1, 298560, Note_on_c, 0, 62, 53
1, 298560, Note_on_c, 0, 45, 36
1, 298560, Note_on_c, 0, 54, 36
1, 298560, Note_on_c, 0, 57, 50
1, 299026, Note_on_c, 0, 57, 0
1, 299026, Note_on_c, 0, 74, 0
1, 299026, Note_on_c, 0, 62, 0
1, 299026, Note_on_c, 0, 66, 0
1, 299026, Note_on_c, 0, 54, 0
1, 299026, Note_on_c, 0, 45, 0
1, 299040, Tempo, 408163
1, 299040, Note_on_c, 0, 69, 56
1, 299040, Note_on_c, 0, 78, 66
1, 299040, Note_on_c, 0, 66, 56
1, 299040, Note_on_c, 0, 57, 36
1, 299040, Note_on_c, 0, 50, 36
1, 299040, Note_on_c, 0, 62, 52
1, 299496, Note_on_c, 0, 62, 0
1, 299496, Note_on_c, 0, 78, 0
1, 299496, Note_on_c, 0, 66, 0
1, 299496, Note_on_c, 0, 69, 0
1, 299496, Note_on_c, 0, 50, 0
1, 299496, Note_on_c, 0, 57, 0
1, 299520, Tempo, 404040
1, 299520, Note_on_c, 0, 78, 66
1, 299520, Note_on_c, 0, 66, 56
1, 299520, Note_on_c, 0, 69, 56
1, 299520, Note_on_c, 0, 50, 51
1, 299520, Note_on_c, 0, 57, 51
1, 299520, Note_on_c, 0, 62, 60
1, 299976, Note_on_c, 0, 62, 0
1, 299976, Note_on_c, 0, 66, 0
1, 299976, Note_on_c, 0, 69, 0
1, 299976, Note_on_c, 0, 78, 0
1, 299976, Note_on_c, 0, 57, 0
1, 299976, Note_on_c, 0, 50, 0
1, 300000, Tempo, 413793
1, 300000, Note_on_c, 0, 66, 58
1, 300000, Note_on_c, 0, 78, 69
1, 300000, Note_on_c, 0, 69, 58
1, 300000, Note_on_c, 0, 50, 52
1, 300000, Note_on_c, 0, 57, 52
1, 300000, Note_on_c, 0, 62, 62
1, 300456, Note_on_c, 0, 62, 0
1, 300456, Note_on_c, 0, 78, 0
1, 300456, Note_on_c, 0, 69, 0
1, 300456, Note_on_c, 0, 66, 0
1, 300456, Note_on_c, 0, 57, 0
1, 300456, Note_on_c, 0, 50, 0
1, 300480, Tempo, 456274
1, 300480, Note_on_c, 0, 66, 61
1, 300480, Note_on_c, 0, 78, 72
1, 300480, Note_on_c, 0, 69, 61
1, 300480, Note_on_c, 0, 50, 54
1, 300480, Note_on_c, 0, 57, 54
1, 300480, Note_on_c, 0, 62, 64
1, 300936, Note_on_c, 0, 62, 0
1, 300936, Note_on_c, 0, 78, 0
1, 300936, Note_on_c, 0, 69, 0
1, 300936, Note_on_c, 0, 66, 0
1, 300936, Note_on_c, 0, 57, 0
1, 300936, Note_on_c, 0, 50, 0
1, 300960, Tempo, 419580
1, 300960, Note_on_c, 0, 70, 63
1, 300960, Note_on_c, 0, 66, 63
1, 300960, Note_on_c, 0, 78, 75
1, 300960, Note_on_c, 0, 49, 56
1, 300960, Note_on_c, 0, 58, 56
1, 300960, Note_on_c, 0, 61, 66
1, 300966, Control_c, 0, 64, 0
1, 301212, Control_c, 0, 64, 127
1, 301416, Note_on_c, 0, 61, 0
1, 301416, Note_on_c, 0, 66, 0
1, 301416, Note_on_c, 0, 78, 0
1, 301416, Note_on_c, 0, 70, 0
1, 301416, Note_on_c, 0, 58, 0
1, 301416, Note_on_c, 0, 49, 0
1, 301440, Tempo, 439560
1, 301440, Note_on_c, 0, 66, 56
1, 301440, Note_on_c, 0, 70, 56
1, 301440, Note_on_c, 0, 78, 66
1, 301440, Note_on_c, 0, 49, 47
1, 301440, Note_on_c, 0, 58, 47
1, 301440, Note_on_c, 0, 61, 56
1, 301896, Note_on_c, 0, 61, 0
1, 301896, Note_on_c, 0, 70, 0
1, 301896, Note_on_c, 0, 78, 0
1, 301896, Note_on_c, 0, 66, 0
1, 301896, Note_on_c, 0, 58, 0
1, 301896, Note_on_c, 0, 49, 0
1, 301920, Note_on_c, 0, 78, 61
1, 301920, Note_on_c, 0, 70, 52
1, 301920, Note_on_c, 0, 66, 52
1, 301920, Note_on_c, 0, 49, 44
1, 301920, Note_on_c, 0, 58, 44
1, 301920, Note_on_c, 0, 61, 52
1, 302376, Note_on_c, 0, 61, 0
1, 302376, Note_on_c, 0, 70, 0
1, 302376, Note_on_c, 0, 66, 0
1, 302376, Note_on_c, 0, 78, 0
1, 302376, Note_on_c, 0, 58, 0
1, 302376, Note_on_c, 0, 49, 0
1, 302400, Tempo, 415225
1, 302400, Note_on_c, 0, 70, 44
1, 302400, Note_on_c, 0, 78, 52
1, 302400, Note_on_c, 0, 66, 44
1, 302400, Note_on_c, 0, 49, 37
1, 302400, Note_on_c, 0, 58, 37
1, 302400, Note_on_c, 0, 61, 44
1, 302856, Note_on_c, 0, 61, 0
1, 302856, Note_on_c, 0, 78, 0
1, 302856, Note_on_c, 0, 66, 0
1, 302856, Note_on_c, 0, 70, 0
1, 302856, Note_on_c, 0, 58, 0
1, 302856, Note_on_c, 0, 49, 0
1, 302880, Tempo, 430108
1, 302880, Note_on_c, 0, 78, 48
1, 302880, Note_on_c, 0, 66, 40
1, 302880, Note_on_c, 0, 70, 40
1, 302880, Note_on_c, 0, 49, 33
1, 302880, Note_on_c, 0, 58, 33
1, 302880, Note_on_c, 0, 61, 40
1, 303336, Note_on_c, 0, 61, 0
1, 303336, Note_on_c, 0, 66, 0
1, 303336, Note_on_c, 0, 70, 0
1, 303336, Note_on_c, 0, 78, 0
1, 303336, Note_on_c, 0, 58, 0
1, 303336, Note_on_c, 0, 49, 0
1, 303360, Tempo, 463320
1, 303360, Note_on_c, 0, 78, 43
1, 303360, Note_on_c, 0, 66, 36
1, 303360, Note_on_c, 0, 70, 36
1, 303360, Note_on_c, 0, 49, 29
1, 303360, Note_on_c, 0, 58, 29
1, 303360, Note_on_c, 0, 61, 36
1, 303816, Note_on_c, 0, 61, 0
1, 303816, Note_on_c, 0, 66, 0
1, 303816, Note_on_c, 0, 70, 0
1, 303816, Note_on_c, 0, 78, 0
1, 303816, Note_on_c, 0, 58, 0
1, 303816, Note_on_c, 0, 49, 0
1, 303840, Tempo, 451128
1, 303840, Note_on_c, 0, 69, 32
1, 303840, Note_on_c, 0, 78, 39
1, 303840, Note_on_c, 0, 66, 32
1, 303840, Note_on_c, 0, 50, 28
1, 303840, Note_on_c, 0, 57, 28
1, 303840, Note_on_c, 0, 62, 33
1, 303855, Control_c, 0, 64, 0
1, 304068, Control_c, 0, 64, 127
1, 304306, Note_on_c, 0, 62, 0
1, 304306, Note_on_c, 0, 78, 0
1, 304306, Note_on_c, 0, 66, 0
1, 304306, Note_on_c, 0, 69, 0
1, 304306, Note_on_c, 0, 57, 0
1, 304306, Note_on_c, 0, 50, 0
1, 304320, Tempo, 485830
1, 304320, Note_on_c, 0, 79, 36
1, 304320, Note_on_c, 0, 67, 31
1, 304320, Note_on_c, 0, 69, 31
1, 304320, Note_on_c, 0, 52, 25
1, 304320, Note_on_c, 0, 57, 25
1, 304320, Note_on_c, 0, 64, 30
1, 304333, Control_c, 0, 64, 0
1, 304522, Control_c, 0, 64, 127
1, 304786, Note_on_c, 0, 64, 0
1, 304786, Note_on_c, 0, 67, 0
1, 304786, Note_on_c, 0, 69, 0
1, 304786, Note_on_c, 0, 79, 0
1, 304786, Note_on_c, 0, 57, 0
1, 304786, Note_on_c, 0, 52, 0
1, 304800, Tempo, 745342
1, 304800, Note_on_c, 0, 81, 38
1, 304800, Note_on_c, 0, 69, 32
1, 304800, Note_on_c, 0, 54, 25
1, 304800, Note_on_c, 0, 57, 25
1, 304800, Note_on_c, 0, 66, 30
1, 304816, Control_c, 0, 64, 0
1, 305078, Control_c, 0, 64, 127
1, 305266, Note_on_c, 0, 66, 0
1, 305266, Note_on_c, 0, 54, 0
1, 305266, Note_on_c, 0, 81, 0
1, 305266, Note_on_c, 0, 69, 0
1, 305266, Note_on_c, 0, 57, 0
1, 305280, Tempo, 406780
1, 305280, Note_on_c, 0, 66, 36
1, 305280, Note_on_c, 0, 62, 36
1, 305280, Note_on_c, 0, 74, 43
1, 305280, Note_on_c, 0, 47, 29
1, 305280, Note_on_c, 0, 59, 35
1, 305280, Control_c, 0, 64, 0
1, 305463, Control_c, 0, 64, 127
1, 305746, Note_on_c, 0, 59, 0
1, 305746, Note_on_c, 0, 74, 0
1, 305746, Note_on_c, 0, 66, 0
1, 305746, Note_on_c, 0, 62, 0
1, 305746, Note_on_c, 0, 47, 0
1, 305760, Tempo, 400000
1, 305760, Note_on_c, 0, 67, 30
1, 305760, Note_on_c, 0, 64, 30
1, 305760, Note_on_c, 0, 76, 36
1, 305760, Note_on_c, 0, 73, 30
1, 305760, Note_on_c, 0, 45, 25
1, 305760, Note_on_c, 0, 57, 30
1, 305773, Control_c, 0, 64, 0
1, 305943, Control_c, 0, 64, 127
1, 306226, Note_on_c, 0, 57, 0
1, 306226, Note_on_c, 0, 64, 0
1, 306226, Note_on_c, 0, 76, 0
1, 306226, Note_on_c, 0, 67, 0
1, 306226, Note_on_c, 0, 45, 0
1, 306226, Note_on_c, 0, 73, 0
1, 306240, Tempo, 428571
1, 306240, Note_on_c, 0, 69, 30
1, 306240, Note_on_c, 0, 66, 30
1, 306240, Note_on_c, 0, 74, 30
1, 306240, Note_on_c, 0, 78, 36
1, 306240, Note_on_c, 0, 42, 25
1, 306240, Note_on_c, 0, 54, 30
1, 306254, Control_c, 0, 64, 0
1, 306446, Control_c, 0, 64, 127
1, 306706, Note_on_c, 0, 54, 0
1, 306706, Note_on_c, 0, 66, 0
1, 306706, Note_on_c, 0, 74, 0
1, 306706, Note_on_c, 0, 69, 0
1, 306706, Note_on_c, 0, 42, 0
1, 306706, Note_on_c, 0, 78, 0
1, 306720, Tempo, 408163
1, 306720, Note_on_c, 0, 67, 34
1, 306720, Note_on_c, 0, 76, 41
1, 306720, Note_on_c, 0, 69, 34
1, 306720, Note_on_c, 0, 73, 34
1, 306720, Note_on_c, 0, 45, 31
1, 306720, Note_on_c, 0, 57, 37
1, 306728, Control_c, 0, 64, 0
1, 307014, Control_c, 0, 64, 127
1, 307671, Note_on_c, 0, 57, 0
1, 307671, Note_on_c, 0, 76, 0
1, 307671, Note_on_c, 0, 69, 0
1, 307671, Note_on_c, 0, 67, 0
1, 307671, Note_on_c, 0, 45, 0
1, 307671, Note_on_c, 0, 73, 0
1, 307680, Tempo, 456274
1, 307680, Note_on_c, 0, 66, 32
1, 307680, Note_on_c, 0, 69, 32
1, 307680, Note_on_c, 0, 74, 38
1, 307680, Note_on_c, 0, 50, 26
1, 307680, Note_on_c, 0, 57, 26
1, 307680, Note_on_c, 0, 62, 31
1, 307690, Control_c, 0, 64, 0
1, 307867, Control_c, 0, 64, 127
1, 308146, Note_on_c, 0, 62, 0
1, 308146, Note_on_c, 0, 69, 0
1, 308146, Note_on_c, 0, 74, 0
1, 308146, Note_on_c, 0, 66, 0
1, 308146, Note_on_c, 0, 57, 0
1, 308146, Note_on_c, 0, 50, 0
1, 308160, Tempo, 524017
1, 308160, Note_on_c, 0, 66, 36
1, 308160, Note_on_c, 0, 74, 43
1, 308160, Note_on_c, 0, 69, 36
1, 308160, Note_on_c, 0, 50, 30
1, 308160, Note_on_c, 0, 57, 30
1, 308160, Note_on_c, 0, 62, 36
1, 308626, Note_on_c, 0, 62, 0
1, 308626, Note_on_c, 0, 74, 0
1, 308626, Note_on_c, 0, 69, 0
1, 308626, Note_on_c, 0, 66, 0
1, 308626, Note_on_c, 0, 57, 0
1, 308626, Note_on_c, 0, 50, 0
1, 308640, Tempo, 421053
1, 308640, Marker_t, "Trio Teil1 Wiederholung"
1, 308640, Note_on_c, 0, 62, 44
1, 308640, Note_on_c, 0, 50, 35
1, 308640, Control_c, 0, 64, 0
1, 308880, Control_c, 0, 64, 127
1, 309096, Note_on_c, 0, 50, 0
1, 309096, Note_on_c, 0, 62, 0
1, 309120, Tempo, 442804
1, 309120, Note_on_c, 0, 62, 41
1, 309120, Note_on_c, 0, 50, 32
1, 309576, Note_on_c, 0, 50, 0
1, 309576, Note_on_c, 0, 62, 0
1, 309600, Tempo, 422535
1, 309600, Note_on_c, 0, 59, 37
1, 309600, Note_on_c, 0, 62, 37
1, 309600, Note_on_c, 0, 71, 44
1, 309600, Note_on_c, 0, 43, 29
1, 309600, Note_on_c, 0, 50, 29
1, 309600, Note_on_c, 0, 55, 35
1, 310551, Note_on_c, 0, 55, 0
1, 310551, Note_on_c, 0, 62, 0
1, 310551, Note_on_c, 0, 71, 0
1, 310551, Note_on_c, 0, 59, 0
1, 310551, Note_on_c, 0, 50, 0
1, 310551, Note_on_c, 0, 43, 0
1, 310560, Tempo, 408163
1, 310560, Note_on_c, 0, 59, 37
1, 310560, Note_on_c, 0, 71, 44
1, 310560, Note_on_c, 0, 62, 37
1, 310560, Note_on_c, 0, 43, 29
1, 310560, Note_on_c, 0, 50, 29
1, 310560, Note_on_c, 0, 55, 35
1, 311016, Note_on_c, 0, 55, 0
1, 311016, Note_on_c, 0, 71, 0
1, 311016, Note_on_c, 0, 62, 0
1, 311016, Note_on_c, 0, 59, 0
1, 311016, Note_on_c, 0, 50, 0
1, 311016, Note_on_c, 0, 43, 0
1, 311040, Tempo, 393443
1, 311040, Note_on_c, 0, 62, 37
1, 311040, Note_on_c, 0, 59, 37
1, 311040, Note_on_c, 0, 71, 44
1, 311040, Note_on_c, 0, 43, 29
1, 311040, Note_on_c, 0, 50, 29
1, 311040, Note_on_c, 0, 55, 35
1, 311496, Note_on_c, 0, 55, 0
1, 311496, Note_on_c, 0, 59, 0
1, 311496, Note_on_c, 0, 71, 0
1, 311496, Note_on_c, 0, 62, 0
1, 311496, Note_on_c, 0, 50, 0
1, 311496, Note_on_c, 0, 43, 0
1, 311520, Tempo, 383387
1, 311520, Note_on_c, 0, 62, 35
1, 311520, Note_on_c, 0, 59, 35
1, 311520, Note_on_c, 0, 71, 42
1, 311520, Note_on_c, 0, 43, 28
1, 311520, Note_on_c, 0, 50, 28
1, 311520, Note_on_c, 0, 55, 33
1, 311976, Note_on_c, 0, 55, 0
1, 311976, Note_on_c, 0, 59, 0
1, 311976, Note_on_c, 0, 71, 0
1, 311976, Note_on_c, 0, 62, 0
1, 311976, Note_on_c, 0, 50, 0
1, 311976, Note_on_c, 0, 43, 0
1, 312000, Tempo, 406780
1, 312000, Note_on_c, 0, 62, 35
1, 312000, Note_on_c, 0, 71, 42
1, 312000, Note_on_c, 0, 59, 35
1, 312000, Note_on_c, 0, 43, 28
1, 312000, Note_on_c, 0, 50, 28
1, 312000, Note_on_c, 0, 55, 33
1, 312456, Note_on_c, 0, 55, 0
1, 312456, Note_on_c, 0, 71, 0
1, 312456, Note_on_c, 0, 59, 0
1, 312456, Note_on_c, 0, 62, 0
1, 312456, Note_on_c, 0, 50, 0
1, 312456, Note_on_c, 0, 43, 0
1, 312480, Note_on_c, 0, 71, 44
1, 312480, Note_on_c, 0, 59, 37
1, 312480, Note_on_c, 0, 62, 37
1, 312480, Note_on_c, 0, 43, 29
1, 312480, Note_on_c, 0, 50, 29
1, 312480, Note_on_c, 0, 55, 35
1, 312936, Note_on_c, 0, 55, 0
1, 312936, Note_on_c, 0, 59, 0
1, 312936, Note_on_c, 0, 62, 0
1, 312936, Note_on_c, 0, 71, 0
1, 312936, Note_on_c, 0, 50, 0
1, 312936, Note_on_c, 0, 43, 0
1, 312960, Tempo, 392157
1, 312960, Note_on_c, 0, 76, 48
1, 312960, Note_on_c, 0, 64, 40
1, 312960, Note_on_c, 0, 67, 40
1, 312960, Note_on_c, 0, 48, 32
1, 312960, Note_on_c, 0, 50, 32
1, 312960, Note_on_c, 0, 60, 38
1, 312970, Control_c, 0, 64, 0
1, 313263, Control_c, 0, 64, 127
1, 313425, Note_on_c, 0, 60, 0
1, 313425, Note_on_c, 0, 48, 0
1, 313426, Note_on_c, 0, 67, 0
1, 313426, Note_on_c, 0, 76, 0
1, 313426, Note_on_c, 0, 64, 0
1, 313426, Note_on_c, 0, 50, 0
1, 313440, Tempo, 408163
1, 313440, Note_on_c, 0, 62, 37
1, 313440, Note_on_c, 0, 67, 37
1, 313440, Note_on_c, 0, 74, 44
1, 313440, Note_on_c, 0, 50, 29
1, 313440, Note_on_c, 0, 47, 29
1, 313440, Note_on_c, 0, 59, 35
1, 313453, Control_c, 0, 64, 0
1, 313642, Control_c, 0, 64, 127
1, 313896, Note_on_c, 0, 59, 0
1, 313896, Note_on_c, 0, 67, 0
1, 313896, Note_on_c, 0, 74, 0
1, 313896, Note_on_c, 0, 62, 0
1, 313896, Note_on_c, 0, 47, 0
1, 313896, Note_on_c, 0, 50, 0
1, 313920, Tempo, 385852
1, 313920, Note_on_c, 0, 62, 37
1, 313920, Note_on_c, 0, 74, 44
1, 313920, Note_on_c, 0, 67, 37
1, 313920, Note_on_c, 0, 47, 29
1, 313920, Note_on_c, 0, 50, 29
1, 313920, Note_on_c, 0, 59, 35
1, 314376, Note_on_c, 0, 59, 0
1, 314376, Note_on_c, 0, 74, 0
1, 314376, Note_on_c, 0, 67, 0
1, 314376, Note_on_c, 0, 62, 0
1, 314376, Note_on_c, 0, 50, 0
1, 314376, Note_on_c, 0, 47, 0
1, 314400, Tempo, 378549
1, 314400, Note_on_c, 0, 67, 34
1, 314400, Note_on_c, 0, 74, 40
1, 314400, Note_on_c, 0, 62, 34
1, 314400, Note_on_c, 0, 47, 27
1, 314400, Note_on_c, 0, 50, 27
1, 314400, Note_on_c, 0, 59, 32
1, 314856, Note_on_c, 0, 59, 0
1, 314856, Note_on_c, 0, 74, 0
1, 314856, Note_on_c, 0, 62, 0
1, 314856, Note_on_c, 0, 67, 0
1, 314856, Note_on_c, 0, 50, 0
1, 314856, Note_on_c, 0, 47, 0
1, 314880, Tempo, 413793
1, 314880, Note_on_c, 0, 62, 34
1, 314880, Note_on_c, 0, 74, 40
1, 314880, Note_on_c, 0, 67, 34
1, 314880, Note_on_c, 0, 47, 27
1, 314880, Note_on_c, 0, 50, 27
1, 314880, Note_on_c, 0, 59, 32
1, 315336, Note_on_c, 0, 59, 0
1, 315336, Note_on_c, 0, 74, 0
1, 315336, Note_on_c, 0, 67, 0
1, 315336, Note_on_c, 0, 62, 0
1, 315336, Note_on_c, 0, 50, 0
1, 315336, Note_on_c, 0, 47, 0
1, 315360, Tempo, 390879
1, 315360, Note_on_c, 0, 62, 37
1, 315360, Note_on_c, 0, 74, 44
1, 315360, Note_on_c, 0, 67, 37
1, 315360, Note_on_c, 0, 47, 29
1, 315360, Note_on_c, 0, 50, 29
1, 315360, Note_on_c, 0, 59, 35
1, 315840, Tempo, 400000
1, 315840, Note_on_c, 0, 59, 0
1, 315840, Note_on_c, 0, 74, 0
1, 315840, Note_on_c, 0, 67, 0
1, 315840, Note_on_c, 0, 62, 0
1, 315840, Note_on_c, 0, 50, 0
1, 315840, Note_on_c, 0, 47, 0
1, 315840, Note_on_c, 0, 57, 33
1, 315840, Note_on_c, 0, 62, 33
1, 315840, Note_on_c, 0, 69, 39
1, 315840, Note_on_c, 0, 42, 26
1, 315840, Note_on_c, 0, 50, 26
1, 315840, Note_on_c, 0, 54, 31
1, 315852, Control_c, 0, 64, 0
1, 315992, Control_c, 0, 64, 127
1, 316306, Note_on_c, 0, 54, 0
1, 316306, Note_on_c, 0, 62, 0
1, 316306, Note_on_c, 0, 69, 0
1, 316306, Note_on_c, 0, 57, 0
1, 316306, Note_on_c, 0, 50, 0
1, 316306, Note_on_c, 0, 42, 0
1, 316320, Tempo, 409556
1, 316320, Note_on_c, 0, 60, 33
1, 316320, Note_on_c, 0, 62, 33
1, 316320, Note_on_c, 0, 72, 39
1, 316320, Note_on_c, 0, 45, 26
1, 316320, Note_on_c, 0, 50, 26
1, 316320, Note_on_c, 0, 57, 31
1, 316330, Control_c, 0, 64, 0
1, 316497, Control_c, 0, 64, 127
1, 316785, Note_on_c, 0, 72, 0
1, 316785, Note_on_c, 0, 60, 0
1, 316786, Note_on_c, 0, 45, 0
1, 316786, Note_on_c, 0, 62, 0
1, 316786, Note_on_c, 0, 57, 0
1, 316786, Note_on_c, 0, 50, 0
1, 316800, Tempo, 393443
1, 316800, Note_on_c, 0, 62, 37
1, 316800, Note_on_c, 0, 72, 44
1, 316800, Note_on_c, 0, 60, 37
1, 316800, Note_on_c, 0, 45, 29
1, 316800, Note_on_c, 0, 50, 29
1, 316800, Note_on_c, 0, 57, 35
1, 317265, Note_on_c, 0, 60, 0
1, 317265, Note_on_c, 0, 72, 0
1, 317266, Note_on_c, 0, 45, 0
1, 317266, Note_on_c, 0, 62, 0
1, 317266, Note_on_c, 0, 57, 0
1, 317266, Note_on_c, 0, 50, 0
1, 317280, Tempo, 404040
1, 317280, Note_on_c, 0, 62, 35
1, 317280, Note_on_c, 0, 71, 42
1, 317280, Note_on_c, 0, 59, 35
1, 317280, Note_on_c, 0, 43, 28
1, 317280, Note_on_c, 0, 50, 28
1, 317280, Note_on_c, 0, 55, 33
1, 317289, Control_c, 0, 64, 0
1, 317533, Control_c, 0, 64, 127
1, 317746, Note_on_c, 0, 55, 0
1, 317746, Note_on_c, 0, 71, 0
1, 317746, Note_on_c, 0, 59, 0
1, 317746, Note_on_c, 0, 62, 0
1, 317746, Note_on_c, 0, 50, 0
1, 317746, Note_on_c, 0, 43, 0
1, 317760, Tempo, 428571
1, 317760, Note_on_c, 0, 62, 35
1, 317760, Note_on_c, 0, 69, 42
1, 317760, Note_on_c, 0, 57, 35
1, 317760, Note_on_c, 0, 42, 28
1, 317760, Note_on_c, 0, 50, 28
1, 317760, Note_on_c, 0, 54, 33
1, 317772, Control_c, 0, 64, 0
1, 317988, Control_c, 0, 64, 127
1, 318226, Note_on_c, 0, 54, 0
1, 318226, Note_on_c, 0, 69, 0
1, 318226, Note_on_c, 0, 57, 0
1, 318226, Note_on_c, 0, 62, 0
1, 318226, Note_on_c, 0, 50, 0
1, 318226, Note_on_c, 0, 42, 0
1, 318240, Tempo, 412371
1, 318240, Note_on_c, 0, 57, 37
1, 318240, Note_on_c, 0, 69, 44
1, 318240, Note_on_c, 0, 62, 37
1, 318240, Note_on_c, 0, 42, 29
1, 318240, Note_on_c, 0, 50, 29
1, 318240, Note_on_c, 0, 54, 35
1, 318706, Note_on_c, 0, 54, 0
1, 318706, Note_on_c, 0, 69, 0
1, 318706, Note_on_c, 0, 62, 0
1, 318706, Note_on_c, 0, 57, 0
1, 318706, Note_on_c, 0, 50, 0
1, 318706, Note_on_c, 0, 42, 0
1, 318720, Tempo, 400000
1, 318720, Note_on_c, 0, 59, 33
1, 318720, Note_on_c, 0, 71, 39
1, 318720, Note_on_c, 0, 62, 33
1, 318720, Note_on_c, 0, 43, 26
1, 318720, Note_on_c, 0, 50, 26
1, 318720, Note_on_c, 0, 55, 31
1, 318723, Control_c, 0, 64, 0
1, 319014, Control_c, 0, 64, 127
1, 319186, Note_on_c, 0, 55, 0
1, 319186, Note_on_c, 0, 71, 0
1, 319186, Note_on_c, 0, 62, 0
1, 319186, Note_on_c, 0, 59, 0
1, 319186, Note_on_c, 0, 50, 0
1, 319186, Note_on_c, 0, 43, 0
1, 319200, Tempo, 425532
1, 319200, Note_on_c, 0, 62, 33
1, 319200, Note_on_c, 0, 71, 39
1, 319200, Note_on_c, 0, 59, 33
1, 319200, Note_on_c, 0, 43, 26
1, 319200, Note_on_c, 0, 50, 26
1, 319200, Note_on_c, 0, 55, 31
1, 319666, Note_on_c, 0, 55, 0
1, 319666, Note_on_c, 0, 71, 0
1, 319666, Note_on_c, 0, 59, 0
1, 319666, Note_on_c, 0, 62, 0
1, 319666, Note_on_c, 0, 50, 0
1, 319666, Note_on_c, 0, 43, 0
1, 319680, Tempo, 401338
1, 319680, Note_on_c, 0, 62, 37
1, 319680, Note_on_c, 0, 71, 44
1, 319680, Note_on_c, 0, 59, 37
1, 319680, Note_on_c, 0, 43, 29
1, 319680, Note_on_c, 0, 50, 29
1, 319680, Note_on_c, 0, 55, 35
1, 320146, Note_on_c, 0, 55, 0
1, 320146, Note_on_c, 0, 71, 0
1, 320146, Note_on_c, 0, 59, 0
1, 320146, Note_on_c, 0, 62, 0
1, 320146, Note_on_c, 0, 50, 0
1, 320146, Note_on_c, 0, 43, 0
1, 320160, Tempo, 413793
1, 320160, Note_on_c, 0, 62, 43
1, 320160, Note_on_c, 0, 69, 51
1, 320160, Note_on_c, 0, 57, 43
1, 320160, Note_on_c, 0, 42, 33
1, 320160, Note_on_c, 0, 50, 33
1, 320160, Note_on_c, 0, 54, 40
1, 320175, Control_c, 0, 64, 0
1, 320388, Control_c, 0, 64, 127
1, 320626, Note_on_c, 0, 54, 0
1, 320626, Note_on_c, 0, 69, 0
1, 320626, Note_on_c, 0, 57, 0
1, 320626, Note_on_c, 0, 62, 0
1, 320626, Note_on_c, 0, 50, 0
1, 320626, Note_on_c, 0, 42, 0
1, 320640, Tempo, 430108
1, 320640, Note_on_c, 0, 55, 50
1, 320640, Note_on_c, 0, 67, 60
1, 320640, Note_on_c, 0, 62, 50
1, 320640, Note_on_c, 0, 40, 39
1, 320640, Note_on_c, 0, 50, 39
1, 320640, Note_on_c, 0, 52, 47
1, 320654, Control_c, 0, 64, 0
1, 320868, Control_c, 0, 64, 127
1, 321106, Note_on_c, 0, 52, 0
1, 321106, Note_on_c, 0, 67, 0
1, 321106, Note_on_c, 0, 62, 0
1, 321106, Note_on_c, 0, 55, 0
1, 321106, Note_on_c, 0, 50, 0
1, 321106, Note_on_c, 0, 40, 0
1, 321120, Tempo, 415225
1, 321120, Note_on_c, 0, 66, 55
1, 321120, Note_on_c, 0, 62, 55
1, 321120, Note_on_c, 0, 69, 66
1, 321120, Note_on_c, 0, 57, 55
1, 321120, Note_on_c, 0, 38, 43
1, 321120, Note_on_c, 0, 50, 52
1, 321174, Control_c, 0, 64, 0
1, 321494, Control_c, 0, 64, 127
1, 322070, Note_on_c, 0, 62, 0
1, 322070, Note_on_c, 0, 66, 0
1, 322071, Note_on_c, 0, 38, 0
1, 322071, Note_on_c, 0, 57, 0
1, 322071, Note_on_c, 0, 50, 0
1, 322071, Note_on_c, 0, 69, 0
1, 322080, Note_on_c, 0, 66, 44
1, 322080, Note_on_c, 0, 62, 44
1, 322080, Note_on_c, 0, 69, 52
1, 322080, Note_on_c, 0, 57, 44
1, 322080, Note_on_c, 0, 38, 34
1, 322080, Note_on_c, 0, 50, 42
1, 322536, Note_on_c, 0, 50, 0
1, 322536, Note_on_c, 0, 62, 0
1, 322536, Note_on_c, 0, 69, 0
1, 322536, Note_on_c, 0, 66, 0
1, 322536, Note_on_c, 0, 38, 0
1, 322536, Note_on_c, 0, 57, 0
1, 322560, Tempo, 392157
1, 322560, Note_on_c, 0, 57, 44
1, 322560, Note_on_c, 0, 62, 44
1, 322560, Note_on_c, 0, 69, 52
1, 322560, Note_on_c, 0, 66, 44
1, 322560, Note_on_c, 0, 38, 34
1, 322560, Note_on_c, 0, 50, 42
1, 323016, Note_on_c, 0, 50, 0
1, 323016, Note_on_c, 0, 62, 0
1, 323016, Note_on_c, 0, 69, 0
1, 323016, Note_on_c, 0, 57, 0
1, 323016, Note_on_c, 0, 38, 0
1, 323016, Note_on_c, 0, 66, 0
1, 323040, Tempo, 404040
1, 323040, Note_on_c, 0, 57, 42
1, 323040, Note_on_c, 0, 62, 42
1, 323040, Note_on_c, 0, 66, 42
1, 323040, Note_on_c, 0, 69, 50
1, 323040, Note_on_c, 0, 38, 33
1, 323040, Note_on_c, 0, 50, 39
1, 323496, Note_on_c, 0, 50, 0
1, 323496, Note_on_c, 0, 62, 0
1, 323496, Note_on_c, 0, 66, 0
1, 323496, Note_on_c, 0, 57, 0
1, 323496, Note_on_c, 0, 38, 0
1, 323496, Note_on_c, 0, 69, 0
1, 323520, Tempo, 413793
1, 323520, Note_on_c, 0, 62, 42
1, 323520, Note_on_c, 0, 69, 50
1, 323520, Note_on_c, 0, 67, 42
1, 323520, Note_on_c, 0, 57, 42
1, 323520, Note_on_c, 0, 40, 33
1, 323520, Note_on_c, 0, 50, 33
1, 323520, Note_on_c, 0, 52, 39
1, 323526, Control_c, 0, 64, 0
1, 323773, Control_c, 0, 64, 127
1, 323976, Note_on_c, 0, 52, 0
1, 323976, Note_on_c, 0, 40, 0
1, 323976, Note_on_c, 0, 69, 0
1, 323976, Note_on_c, 0, 67, 0
1, 323976, Note_on_c, 0, 62, 0
1, 323976, Note_on_c, 0, 50, 0
1, 323976, Note_on_c, 0, 57, 0
1, 324000, Note_on_c, 0, 62, 49
1, 324000, Note_on_c, 0, 57, 49
1, 324000, Note_on_c, 0, 69, 59
1, 324000, Note_on_c, 0, 42, 30
1, 324000, Note_on_c, 0, 50, 30
1, 324000, Note_on_c, 0, 54, 46
1, 324016, Control_c, 0, 64, 0
1, 324267, Control_c, 0, 64, 127
1, 324456, Note_on_c, 0, 54, 0
1, 324456, Note_on_c, 0, 57, 0
1, 324456, Note_on_c, 0, 69, 0
1, 324456, Note_on_c, 0, 62, 0
1, 324456, Note_on_c, 0, 50, 0
1, 324456, Note_on_c, 0, 42, 0
1, 324480, Tempo, 397351
1, 324480, Note_on_c, 0, 66, 58
1, 324480, Note_on_c, 0, 62, 58
1, 324480, Note_on_c, 0, 74, 69
1, 324480, Note_on_c, 0, 45, 39
1, 324480, Note_on_c, 0, 54, 39
1, 324480, Note_on_c, 0, 57, 55
1, 324946, Note_on_c, 0, 57, 0
1, 324946, Note_on_c, 0, 62, 0
1, 324946, Note_on_c, 0, 74, 0
1, 324946, Note_on_c, 0, 66, 0
1, 324946, Note_on_c, 0, 54, 0
1, 324946, Note_on_c, 0, 45, 0
1, 324960, Tempo, 408163
1, 324960, Note_on_c, 0, 69, 63
1, 324960, Note_on_c, 0, 78, 74
1, 324960, Note_on_c, 0, 66, 63
1, 324960, Note_on_c, 0, 57, 40
1, 324960, Note_on_c, 0, 50, 40
1, 324960, Note_on_c, 0, 62, 58
1, 325416, Note_on_c, 0, 62, 0
1, 325416, Note_on_c, 0, 78, 0
1, 325416, Note_on_c, 0, 66, 0
1, 325416, Note_on_c, 0, 69, 0
1, 325416, Note_on_c, 0, 50, 0
1, 325416, Note_on_c, 0, 57, 0
1, 325440, Tempo, 398671
1, 325440, Note_on_c, 0, 78, 75
1, 325440, Note_on_c, 0, 66, 63
1, 325440, Note_on_c, 0, 69, 63
1, 325440, Note_on_c, 0, 50, 58
1, 325440, Note_on_c, 0, 57, 58
1, 325440, Note_on_c, 0, 62, 68
1, 325896, Note_on_c, 0, 62, 0
1, 325896, Note_on_c, 0, 66, 0
1, 325896, Note_on_c, 0, 69, 0
1, 325896, Note_on_c, 0, 78, 0
1, 325896, Note_on_c, 0, 57, 0
1, 325896, Note_on_c, 0, 50, 0
1, 325920, Tempo, 422535
1, 325920, Note_on_c, 0, 78, 80
1, 325920, Note_on_c, 0, 66, 67
1, 325920, Note_on_c, 0, 69, 67
1, 325920, Note_on_c, 0, 50, 60
1, 325920, Note_on_c, 0, 57, 60
1, 325920, Note_on_c, 0, 62, 71
1, 326376, Note_on_c, 0, 62, 0
1, 326376, Note_on_c, 0, 66, 0
1, 326376, Note_on_c, 0, 69, 0
1, 326376, Note_on_c, 0, 78, 0
1, 326376, Note_on_c, 0, 57, 0
1, 326376, Note_on_c, 0, 50, 0
1, 326400, Tempo, 487805
1, 326400, Note_on_c, 0, 66, 71
1, 326400, Note_on_c, 0, 69, 71
1, 326400, Note_on_c, 0, 78, 84
1, 326400, Note_on_c, 0, 50, 63
1, 326400, Note_on_c, 0, 57, 63
1, 326400, Note_on_c, 0, 62, 74
1, 326856, Note_on_c, 0, 62, 0
1, 326856, Note_on_c, 0, 69, 0
1, 326856, Note_on_c, 0, 78, 0
1, 326856, Note_on_c, 0, 66, 0
1, 326856, Note_on_c, 0, 57, 0
1, 326856, Note_on_c, 0, 50, 0
1, 326880, Tempo, 419580
1, 326880, Note_on_c, 0, 66, 70
1, 326880, Note_on_c, 0, 78, 84
1, 326880, Note_on_c, 0, 70, 70
1, 326880, Note_on_c, 0, 49, 62
1, 326880, Note_on_c, 0, 58, 62
1, 326880, Note_on_c, 0, 61, 74
1, 326886, Control_c, 0, 64, 0
1, 327132, Control_c, 0, 64, 127
1, 327336, Note_on_c, 0, 61, 0
1, 327336, Note_on_c, 0, 78, 0
1, 327336, Note_on_c, 0, 70, 0
1, 327336, Note_on_c, 0, 66, 0
1, 327336, Note_on_c, 0, 58, 0
1, 327336, Note_on_c, 0, 49, 0
1, 327360, Tempo, 431655
1, 327360, Note_on_c, 0, 70, 61
1, 327360, Note_on_c, 0, 66, 61
1, 327360, Note_on_c, 0, 78, 72
1, 327360, Note_on_c, 0, 49, 51
1, 327360, Note_on_c, 0, 58, 51
1, 327360, Note_on_c, 0, 61, 61
1, 327816, Note_on_c, 0, 61, 0
1, 327816, Note_on_c, 0, 66, 0
1, 327816, Note_on_c, 0, 78, 0
1, 327816, Note_on_c, 0, 70, 0
1, 327816, Note_on_c, 0, 58, 0
1, 327816, Note_on_c, 0, 49, 0
1, 327840, Tempo, 439560
1, 327840, Note_on_c, 0, 70, 56
1, 327840, Note_on_c, 0, 66, 56
1, 327840, Note_on_c, 0, 78, 65
1, 327840, Note_on_c, 0, 49, 47
1, 327840, Note_on_c, 0, 58, 47
1, 327840, Note_on_c, 0, 61, 56
1, 328296, Note_on_c, 0, 61, 0
1, 328296, Note_on_c, 0, 66, 0
1, 328296, Note_on_c, 0, 78, 0
1, 328296, Note_on_c, 0, 70, 0
1, 328296, Note_on_c, 0, 58, 0
1, 328296, Note_on_c, 0, 49, 0
1, 328320, Tempo, 415225
1, 328320, Note_on_c, 0, 78, 55
1, 328320, Note_on_c, 0, 70, 46
1, 328320, Note_on_c, 0, 66, 46
1, 328320, Note_on_c, 0, 49, 39
1, 328320, Note_on_c, 0, 58, 39
1, 328320, Note_on_c, 0, 61, 46
1, 328776, Note_on_c, 0, 61, 0
1, 328776, Note_on_c, 0, 70, 0
1, 328776, Note_on_c, 0, 66, 0
1, 328776, Note_on_c, 0, 78, 0
1, 328776, Note_on_c, 0, 58, 0
1, 328776, Note_on_c, 0, 49, 0
1, 328800, Tempo, 430108
1, 328800, Note_on_c, 0, 66, 41
1, 328800, Note_on_c, 0, 70, 41
1, 328800, Note_on_c, 0, 78, 49
1, 328800, Note_on_c, 0, 49, 34
1, 328800, Note_on_c, 0, 58, 34
1, 328800, Note_on_c, 0, 61, 41
1, 329256, Note_on_c, 0, 61, 0
1, 329256, Note_on_c, 0, 70, 0
1, 329256, Note_on_c, 0, 78, 0
1, 329256, Note_on_c, 0, 66, 0
1, 329256, Note_on_c, 0, 58, 0
1, 329256, Note_on_c, 0, 49, 0
1, 329280, Tempo, 463320
1, 329280, Note_on_c, 0, 66, 36
1, 329280, Note_on_c, 0, 78, 43
1, 329280, Note_on_c, 0, 70, 36
1, 329280, Note_on_c, 0, 49, 29
1, 329280, Note_on_c, 0, 58, 29
1, 329280, Note_on_c, 0, 61, 36
1, 329736, Note_on_c, 0, 61, 0
1, 329736, Note_on_c, 0, 78, 0
1, 329736, Note_on_c, 0, 70, 0
1, 329736, Note_on_c, 0, 66, 0
1, 329736, Note_on_c, 0, 58, 0
1, 329736, Note_on_c, 0, 49, 0
1, 329760, Tempo, 451128
1, 329760, Note_on_c, 0, 69, 32
1, 329760, Note_on_c, 0, 66, 32
1, 329760, Note_on_c, 0, 78, 39
1, 329760, Note_on_c, 0, 50, 28
1, 329760, Note_on_c, 0, 57, 28
1, 329760, Note_on_c, 0, 62, 33
1, 329775, Control_c, 0, 64, 0
1, 329988, Control_c, 0, 64, 127
1, 330226, Note_on_c, 0, 62, 0
1, 330226, Note_on_c, 0, 66, 0
1, 330226, Note_on_c, 0, 78, 0
1, 330226, Note_on_c, 0, 69, 0
1, 330226, Note_on_c, 0, 57, 0
1, 330226, Note_on_c, 0, 50, 0
1, 330240, Tempo, 485830
1, 330240, Note_on_c, 0, 69, 31
1, 330240, Note_on_c, 0, 67, 31
1, 330240, Note_on_c, 0, 79, 36
1, 330240, Note_on_c, 0, 52, 25
1, 330240, Note_on_c, 0, 57, 25
1, 330240, Note_on_c, 0, 64, 30
1, 330253, Control_c, 0, 64, 0
1, 330442, Control_c, 0, 64, 127
1, 330706, Note_on_c, 0, 64, 0
1, 330706, Note_on_c, 0, 67, 0
1, 330706, Note_on_c, 0, 79, 0
1, 330706, Note_on_c, 0, 69, 0
1, 330706, Note_on_c, 0, 57, 0
1, 330706, Note_on_c, 0, 52, 0
1, 330720, Tempo, 745342
1, 330720, Note_on_c, 0, 81, 38
1, 330720, Note_on_c, 0, 69, 32
1, 330720, Note_on_c, 0, 54, 25
1, 330720, Note_on_c, 0, 57, 25
1, 330720, Note_on_c, 0, 66, 30
1, 330736, Control_c, 0, 64, 0
1, 330998, Control_c, 0, 64, 127
1, 331186, Note_on_c, 0, 66, 0
1, 331186, Note_on_c, 0, 54, 0
1, 331186, Note_on_c, 0, 81, 0
1, 331186, Note_on_c, 0, 69, 0
1, 331186, Note_on_c, 0, 57, 0
1, 331200, Tempo, 406780
1, 331200, Note_on_c, 0, 62, 36
1, 331200, Note_on_c, 0, 66, 36
1, 331200, Note_on_c, 0, 74, 43
1, 331200, Note_on_c, 0, 47, 29
1, 331200, Note_on_c, 0, 59, 35
1, 331200, Control_c, 0, 64, 0
1, 331383, Control_c, 0, 64, 127
1, 331666, Note_on_c, 0, 59, 0
1, 331666, Note_on_c, 0, 74, 0
1, 331666, Note_on_c, 0, 62, 0
1, 331666, Note_on_c, 0, 66, 0
1, 331666, Note_on_c, 0, 47, 0
1, 331680, Note_on_c, 0, 64, 30
1, 331680, Note_on_c, 0, 76, 36
1, 331680, Note_on_c, 0, 67, 30
1, 331680, Note_on_c, 0, 73, 30
1, 331680, Note_on_c, 0, 45, 25
1, 331680, Note_on_c, 0, 57, 30
1, 331693, Control_c, 0, 64, 0
1, 331863, Control_c, 0, 64, 127
1, 332146, Note_on_c, 0, 57, 0
1, 332146, Note_on_c, 0, 76, 0
1, 332146, Note_on_c, 0, 67, 0
1, 332146, Note_on_c, 0, 64, 0
1, 332146, Note_on_c, 0, 45, 0
1, 332146, Note_on_c, 0, 73, 0
1, 332160, Tempo, 428571
1, 332160, Note_on_c, 0, 66, 30
1, 332160, Note_on_c, 0, 78, 36
1, 332160, Note_on_c, 0, 69, 30
1, 332160, Note_on_c, 0, 74, 30
1, 332160, Note_on_c, 0, 42, 25
1, 332160, Note_on_c, 0, 54, 30
1, 332174, Control_c, 0, 64, 0
1, 332366, Control_c, 0, 64, 127
1, 332626, Note_on_c, 0, 54, 0
1, 332626, Note_on_c, 0, 78, 0
1, 332626, Note_on_c, 0, 69, 0
1, 332626, Note_on_c, 0, 66, 0
1, 332626, Note_on_c, 0, 42, 0
1, 332626, Note_on_c, 0, 74, 0
1, 332640, Tempo, 408163
1, 332640, Note_on_c, 0, 69, 34
1, 332640, Note_on_c, 0, 73, 34
1, 332640, Note_on_c, 0, 67, 34
1, 332640, Note_on_c, 0, 76, 41
1, 332640, Note_on_c, 0, 45, 31
1, 332640, Note_on_c, 0, 57, 37
1, 332648, Control_c, 0, 64, 0
1, 332934, Control_c, 0, 64, 127
1, 333591, Note_on_c, 0, 57, 0
1, 333591, Note_on_c, 0, 73, 0
1, 333591, Note_on_c, 0, 67, 0
1, 333591, Note_on_c, 0, 69, 0
1, 333591, Note_on_c, 0, 45, 0
1, 333591, Note_on_c, 0, 76, 0
1, 333600, Tempo, 456274
1, 333600, Note_on_c, 0, 69, 32
1, 333600, Note_on_c, 0, 74, 38
1, 333600, Note_on_c, 0, 66, 32
1, 333600, Note_on_c, 0, 50, 26
1, 333600, Note_on_c, 0, 57, 26
1, 333600, Note_on_c, 0, 62, 31
1, 333610, Control_c, 0, 64, 0
1, 333787, Control_c, 0, 64, 127
1, 334066, Note_on_c, 0, 62, 0
1, 334066, Note_on_c, 0, 74, 0
1, 334066, Note_on_c, 0, 66, 0
1, 334066, Note_on_c, 0, 69, 0
1, 334066, Note_on_c, 0, 57, 0
1, 334066, Note_on_c, 0, 50, 0
1, 334080, Tempo, 524017
1, 334080, Note_on_c, 0, 69, 36
1, 334080, Note_on_c, 0, 74, 43
1, 334080, Note_on_c, 0, 66, 36
1, 334080, Note_on_c, 0, 50, 30
1, 334080, Note_on_c, 0, 57, 30
1, 334080, Note_on_c, 0, 62, 36
1, 334546, Note_on_c, 0, 62, 0
1, 334546, Note_on_c, 0, 74, 0
1, 334546, Note_on_c, 0, 66, 0
1, 334546, Note_on_c, 0, 69, 0
1, 334546, Note_on_c, 0, 57, 0
1, 334546, Note_on_c, 0, 50, 0
1, 334560, Tempo, 421053
1, 334560, Marker_t, "Trio Teil2"
1, 334560, Note_on_c, 0, 74, 44
1, 334560, Note_on_c, 0, 50, 35
1, 334560, Note_on_c, 0, 62, 35
1, 334560, Control_c, 0, 64, 0
1, 334800, Control_c, 0, 64, 127
1, 335016, Note_on_c, 0, 62, 0
1, 335016, Note_on_c, 0, 50, 0
1, 335016, Note_on_c, 0, 74, 0
1, 335040, Tempo, 442804
1, 335040, Note_on_c, 0, 74, 46
1, 335040, Note_on_c, 0, 50, 36
1, 335040, Note_on_c, 0, 62, 36
1, 335496, Note_on_c, 0, 62, 0
1, 335496, Note_on_c, 0, 50, 0
1, 335496, Note_on_c, 0, 74, 0
1, 335520, Tempo, 410959
1, 335520, Note_on_c, 0, 64, 48
1, 335520, Note_on_c, 0, 67, 48
1, 335520, Note_on_c, 0, 76, 57
1, 335520, Note_on_c, 0, 72, 48
1, 335520, Note_on_c, 0, 48, 37
1, 335520, Note_on_c, 0, 55, 37
1, 335520, Note_on_c, 0, 60, 46
1, 335524, Control_c, 0, 64, 0
1, 335894, Control_c, 0, 64, 127
1, 336470, Note_on_c, 0, 67, 0
1, 336470, Note_on_c, 0, 64, 0
1, 336471, Note_on_c, 0, 76, 0
1, 336471, Note_on_c, 0, 48, 0
1, 336471, Note_on_c, 0, 72, 0
1, 336471, Note_on_c, 0, 60, 0
1, 336471, Note_on_c, 0, 55, 0
1, 336480, Tempo, 394737
1, 336480, Note_on_c, 0, 67, 37
1, 336480, Note_on_c, 0, 76, 44
1, 336480, Note_on_c, 0, 64, 37
1, 336480, Note_on_c, 0, 72, 37
1, 336480, Note_on_c, 0, 48, 29
1, 336480, Note_on_c, 0, 55, 29
1, 336480, Note_on_c, 0, 60, 35
1, 336936, Note_on_c, 0, 60, 0
1, 336936, Note_on_c, 0, 48, 0
1, 336936, Note_on_c, 0, 76, 0
1, 336936, Note_on_c, 0, 64, 0
1, 336936, Note_on_c, 0, 67, 0
1, 336936, Note_on_c, 0, 55, 0
1, 336936, Note_on_c, 0, 72, 0
1, 336960, Tempo, 385852
1, 336960, Note_on_c, 0, 64, 37
1, 336960, Note_on_c, 0, 72, 37
1, 336960, Note_on_c, 0, 76, 44
1, 336960, Note_on_c, 0, 67, 37
1, 336960, Note_on_c, 0, 48, 29
1, 336960, Note_on_c, 0, 55, 29
1, 336960, Note_on_c, 0, 60, 35
1, 337416, Note_on_c, 0, 60, 0
1, 337416, Note_on_c, 0, 48, 0
1, 337416, Note_on_c, 0, 72, 0
1, 337416, Note_on_c, 0, 76, 0
1, 337416, Note_on_c, 0, 64, 0
1, 337416, Note_on_c, 0, 55, 0
1, 337416, Note_on_c, 0, 67, 0
1, 337440, Tempo, 376176
1, 337440, Note_on_c, 0, 76, 42
1, 337440, Note_on_c, 0, 67, 35
1, 337440, Note_on_c, 0, 72, 35
1, 337440, Note_on_c, 0, 64, 35
1, 337440, Note_on_c, 0, 48, 28
1, 337440, Note_on_c, 0, 55, 28
1, 337440, Note_on_c, 0, 60, 33
1, 337896, Note_on_c, 0, 60, 0
1, 337896, Note_on_c, 0, 48, 0
1, 337896, Note_on_c, 0, 67, 0
1, 337896, Note_on_c, 0, 72, 0
1, 337896, Note_on_c, 0, 76, 0
1, 337896, Note_on_c, 0, 55, 0
1, 337896, Note_on_c, 0, 64, 0
1, 337920, Tempo, 387097
1, 337920, Note_on_c, 0, 64, 35
1, 337920, Note_on_c, 0, 72, 35
1, 337920, Note_on_c, 0, 76, 42
1, 337920, Note_on_c, 0, 67, 35
1, 337920, Note_on_c, 0, 48, 28
1, 337920, Note_on_c, 0, 55, 28
1, 337920, Note_on_c, 0, 60, 33
1, 338376, Note_on_c, 0, 60, 0
1, 338376, Note_on_c, 0, 48, 0
1, 338376, Note_on_c, 0, 72, 0
1, 338376, Note_on_c, 0, 76, 0
1, 338376, Note_on_c, 0, 64, 0
1, 338376, Note_on_c, 0, 55, 0
1, 338376, Note_on_c, 0, 67, 0
1, 338400, Note_on_c, 0, 76, 44
1, 338400, Note_on_c, 0, 64, 37
1, 338400, Note_on_c, 0, 67, 37
1, 338400, Note_on_c, 0, 48, 29
1, 338400, Note_on_c, 0, 55, 29
1, 338400, Note_on_c, 0, 60, 35
1, 338856, Note_on_c, 0, 60, 0
1, 338856, Note_on_c, 0, 64, 0
1, 338856, Note_on_c, 0, 67, 0
1, 338856, Note_on_c, 0, 76, 0
1, 338856, Note_on_c, 0, 55, 0
1, 338856, Note_on_c, 0, 48, 0
1, 338880, Tempo, 372671
1, 338880, Note_on_c, 0, 62, 40
1, 338880, Note_on_c, 0, 74, 48
1, 338880, Note_on_c, 0, 67, 40
1, 338880, Note_on_c, 0, 43, 32
1, 338880, Note_on_c, 0, 55, 38
1, 338890, Control_c, 0, 64, 0
1, 339183, Control_c, 0, 64, 127
1, 339345, Note_on_c, 0, 55, 0
1, 339345, Note_on_c, 0, 43, 0
1, 339346, Note_on_c, 0, 62, 0
1, 339346, Note_on_c, 0, 74, 0
1, 339346, Note_on_c, 0, 67, 0
1, 339360, Tempo, 388350
1, 339360, Note_on_c, 0, 60, 37
1, 339360, Note_on_c, 0, 72, 44
1, 339360, Note_on_c, 0, 67, 37
1, 339360, Note_on_c, 0, 43, 29
1, 339360, Note_on_c, 0, 40, 29
1, 339360, Note_on_c, 0, 52, 35
1, 339373, Control_c, 0, 64, 0
1, 339480, Tempo, 385852
1, 339562, Control_c, 0, 64, 127
1, 339816, Note_on_c, 0, 52, 0
1, 339816, Note_on_c, 0, 72, 0
1, 339816, Note_on_c, 0, 67, 0
1, 339816, Note_on_c, 0, 60, 0
1, 339816, Note_on_c, 0, 40, 0
1, 339816, Note_on_c, 0, 43, 0
1, 339840, Tempo, 377358
1, 339840, Note_on_c, 0, 67, 37
1, 339840, Note_on_c, 0, 60, 37
1, 339840, Note_on_c, 0, 72, 44
1, 339840, Note_on_c, 0, 40, 29
1, 339840, Note_on_c, 0, 43, 29
1, 339840, Note_on_c, 0, 52, 35
1, 340296, Note_on_c, 0, 52, 0
1, 340296, Note_on_c, 0, 60, 0
1, 340296, Note_on_c, 0, 72, 0
1, 340296, Note_on_c, 0, 67, 0
1, 340296, Note_on_c, 0, 43, 0
1, 340296, Note_on_c, 0, 40, 0
1, 340320, Tempo, 380952
1, 340320, Note_on_c, 0, 62, 40
1, 340320, Note_on_c, 0, 67, 40
1, 340320, Note_on_c, 0, 74, 48
1, 340320, Note_on_c, 0, 43, 32
1, 340320, Note_on_c, 0, 55, 38
1, 340776, Note_on_c, 0, 55, 0
1, 340776, Note_on_c, 0, 74, 0
1, 340776, Note_on_c, 0, 62, 0
1, 340776, Note_on_c, 0, 67, 0
1, 340776, Note_on_c, 0, 43, 0
1, 340800, Tempo, 385852
1, 340800, Note_on_c, 0, 67, 46
1, 340800, Note_on_c, 0, 76, 54
1, 340800, Note_on_c, 0, 64, 46
1, 340800, Note_on_c, 0, 48, 36
1, 340800, Note_on_c, 0, 55, 36
1, 340800, Note_on_c, 0, 60, 42
1, 340920, Tempo, 385852
1, 341256, Note_on_c, 0, 60, 0
1, 341256, Note_on_c, 0, 76, 0
1, 341256, Note_on_c, 0, 64, 0
1, 341256, Note_on_c, 0, 67, 0
1, 341256, Note_on_c, 0, 55, 0
1, 341256, Note_on_c, 0, 48, 0
1, 341280, Tempo, 394737
1, 341280, Note_on_c, 0, 70, 56
1, 341280, Note_on_c, 0, 79, 67
1, 341280, Note_on_c, 0, 67, 56
1, 341280, Note_on_c, 0, 51, 44
1, 341280, Note_on_c, 0, 58, 44
1, 341280, Note_on_c, 0, 63, 53
1, 341284, Control_c, 0, 64, 0
1, 341400, Tempo, 393443
1, 341654, Control_c, 0, 64, 127
1, 342230, Note_on_c, 0, 63, 0
1, 342230, Note_on_c, 0, 70, 0
1, 342230, Note_on_c, 0, 67, 0
1, 342230, Note_on_c, 0, 51, 0
1, 342230, Note_on_c, 0, 58, 0
1, 342231, Note_on_c, 0, 79, 0
1, 342240, Tempo, 392157
1, 342240, Note_on_c, 0, 79, 60
1, 342240, Note_on_c, 0, 67, 50
1, 342240, Note_on_c, 0, 70, 50
1, 342240, Note_on_c, 0, 51, 39
1, 342240, Note_on_c, 0, 58, 39
1, 342240, Note_on_c, 0, 63, 47
1, 342696, Note_on_c, 0, 63, 0
1, 342696, Note_on_c, 0, 67, 0
1, 342696, Note_on_c, 0, 70, 0
1, 342696, Note_on_c, 0, 79, 0
1, 342696, Note_on_c, 0, 58, 0
1, 342696, Note_on_c, 0, 51, 0
1, 342720, Tempo, 378549
1, 342720, Note_on_c, 0, 70, 50
1, 342720, Note_on_c, 0, 79, 60
1, 342720, Note_on_c, 0, 67, 50
1, 342720, Note_on_c, 0, 51, 39
1, 342720, Note_on_c, 0, 58, 39
1, 342720, Note_on_c, 0, 63, 47
1, 343176, Note_on_c, 0, 63, 0
1, 343176, Note_on_c, 0, 79, 0
1, 343176, Note_on_c, 0, 67, 0
1, 343176, Note_on_c, 0, 70, 0
1, 343176, Note_on_c, 0, 58, 0
1, 343176, Note_on_c, 0, 51, 0
1, 343200, Tempo, 372671
1, 343200, Note_on_c, 0, 67, 47
1, 343200, Note_on_c, 0, 70, 47
1, 343200, Note_on_c, 0, 79, 57
1, 343200, Note_on_c, 0, 51, 38
1, 343200, Note_on_c, 0, 58, 38
1, 343200, Note_on_c, 0, 63, 45
1, 343656, Note_on_c, 0, 63, 0
1, 343656, Note_on_c, 0, 70, 0
1, 343656, Note_on_c, 0, 79, 0
1, 343656, Note_on_c, 0, 67, 0
1, 343656, Note_on_c, 0, 58, 0
1, 343656, Note_on_c, 0, 51, 0
1, 343680, Tempo, 385852
1, 343680, Note_on_c, 0, 67, 47
1, 343680, Note_on_c, 0, 70, 47
1, 343680, Note_on_c, 0, 79, 57
1, 343680, Note_on_c, 0, 51, 38
1, 343680, Note_on_c, 0, 58, 38
1, 343680, Note_on_c, 0, 63, 45
1, 343800, Tempo, 383387
1, 344136, Note_on_c, 0, 63, 0
1, 344136, Note_on_c, 0, 70, 0
1, 344136, Note_on_c, 0, 79, 0
1, 344136, Note_on_c, 0, 67, 0
1, 344136, Note_on_c, 0, 58, 0
1, 344136, Note_on_c, 0, 51, 0
1, 344160, Tempo, 378549
1, 344160, Note_on_c, 0, 67, 50
1, 344160, Note_on_c, 0, 70, 50
1, 344160, Note_on_c, 0, 79, 60
1, 344160, Note_on_c, 0, 51, 39
1, 344160, Note_on_c, 0, 58, 39
1, 344160, Note_on_c, 0, 63, 47
1, 344616, Note_on_c, 0, 63, 0
1, 344616, Note_on_c, 0, 70, 0
1, 344616, Note_on_c, 0, 79, 0
1, 344616, Note_on_c, 0, 67, 0
1, 344616, Note_on_c, 0, 58, 0
1, 344616, Note_on_c, 0, 51, 0
1, 344640, Tempo, 379747
1, 344640, Note_on_c, 0, 65, 55
1, 344640, Note_on_c, 0, 70, 55
1, 344640, Note_on_c, 0, 77, 66
1, 344640, Note_on_c, 0, 46, 44
1, 344640, Note_on_c, 0, 58, 51
1, 344650, Control_c, 0, 64, 0
1, 344943, Control_c, 0, 64, 127
1, 345105, Note_on_c, 0, 58, 0
1, 345105, Note_on_c, 0, 77, 0
1, 345105, Note_on_c, 0, 65, 0
1, 345105, Note_on_c, 0, 70, 0
1, 345105, Note_on_c, 0, 46, 0
1, 345120, Tempo, 390879
1, 345120, Note_on_c, 0, 63, 50
1, 345120, Note_on_c, 0, 70, 50
1, 345120, Note_on_c, 0, 75, 60
1, 345120, Note_on_c, 0, 43, 39
1, 345120, Note_on_c, 0, 46, 39
1, 345120, Note_on_c, 0, 55, 47
1, 345133, Control_c, 0, 64, 0
1, 345322, Control_c, 0, 64, 127
1, 345576, Note_on_c, 0, 55, 0
1, 345576, Note_on_c, 0, 70, 0
1, 345576, Note_on_c, 0, 75, 0
1, 345576, Note_on_c, 0, 63, 0
1, 345576, Note_on_c, 0, 46, 0
1, 345576, Note_on_c, 0, 43, 0
1, 345600, Tempo, 376176
1, 345600, Note_on_c, 0, 63, 50
1, 345600, Note_on_c, 0, 70, 50
1, 345600, Note_on_c, 0, 75, 60
1, 345600, Note_on_c, 0, 43, 39
1, 345600, Note_on_c, 0, 46, 39
1, 345600, Note_on_c, 0, 55, 47
1, 346056, Note_on_c, 0, 55, 0
1, 346056, Note_on_c, 0, 70, 0
1, 346056, Note_on_c, 0, 75, 0
1, 346056, Note_on_c, 0, 63, 0
1, 346056, Note_on_c, 0, 46, 0
1, 346056, Note_on_c, 0, 43, 0
1, 346080, Tempo, 369231
1, 346080, Note_on_c, 0, 65, 55
1, 346080, Note_on_c, 0, 70, 55
1, 346080, Note_on_c, 0, 77, 66
1, 346080, Note_on_c, 0, 46, 42
1, 346080, Note_on_c, 0, 58, 52
1, 346536, Note_on_c, 0, 58, 0
1, 346536, Note_on_c, 0, 77, 0
1, 346536, Note_on_c, 0, 65, 0
1, 346536, Note_on_c, 0, 70, 0
1, 346536, Note_on_c, 0, 46, 0
1, 346560, Tempo, 394737
1, 346560, Note_on_c, 0, 67, 59
1, 346560, Note_on_c, 0, 70, 59
1, 346560, Note_on_c, 0, 79, 71
1, 346560, Note_on_c, 0, 51, 46
1, 346560, Note_on_c, 0, 58, 46
1, 346560, Note_on_c, 0, 63, 57
1, 347016, Note_on_c, 0, 63, 0
1, 347016, Note_on_c, 0, 70, 0
1, 347016, Note_on_c, 0, 79, 0
1, 347016, Note_on_c, 0, 67, 0
1, 347016, Note_on_c, 0, 58, 0
1, 347016, Note_on_c, 0, 51, 0
1, 347040, Tempo, 385852
1, 347040, Note_on_c, 0, 73, 63
1, 347040, Note_on_c, 0, 70, 63
1, 347040, Note_on_c, 0, 82, 76
1, 347040, Note_on_c, 0, 42, 50
1, 347040, Note_on_c, 0, 49, 50
1, 347040, Note_on_c, 0, 54, 61
1, 347044, Control_c, 0, 64, 0
1, 347414, Control_c, 0, 64, 127
1, 347990, Note_on_c, 0, 54, 0
1, 347990, Note_on_c, 0, 70, 0
1, 347990, Note_on_c, 0, 82, 0
1, 347990, Note_on_c, 0, 73, 0
1, 347990, Note_on_c, 0, 49, 0
1, 347990, Note_on_c, 0, 42, 0
1, 348000, Tempo, 384615
1, 348000, Note_on_c, 0, 73, 57
1, 348000, Note_on_c, 0, 70, 57
1, 348000, Note_on_c, 0, 82, 68
1, 348000, Note_on_c, 0, 42, 45
1, 348000, Note_on_c, 0, 49, 45
1, 348000, Note_on_c, 0, 54, 53
1, 348456, Note_on_c, 0, 54, 0
1, 348456, Note_on_c, 0, 70, 0
1, 348456, Note_on_c, 0, 82, 0
1, 348456, Note_on_c, 0, 73, 0
1, 348456, Note_on_c, 0, 49, 0
1, 348456, Note_on_c, 0, 42, 0
1, 348480, Tempo, 372671
1, 348480, Note_on_c, 0, 73, 57
1, 348480, Note_on_c, 0, 70, 57
1, 348480, Note_on_c, 0, 82, 68
1, 348480, Note_on_c, 0, 42, 45
1, 348480, Note_on_c, 0, 49, 45
1, 348480, Note_on_c, 0, 54, 53
1, 348936, Note_on_c, 0, 54, 0
1, 348936, Note_on_c, 0, 70, 0
1, 348936, Note_on_c, 0, 82, 0
1, 348936, Note_on_c, 0, 73, 0
1, 348936, Note_on_c, 0, 49, 0
1, 348936, Note_on_c, 0, 42, 0
1, 348960, Tempo, 375000
1, 348960, Note_on_c, 0, 70, 53
1, 348960, Note_on_c, 0, 73, 53
1, 348960, Note_on_c, 0, 82, 65
1, 348960, Note_on_c, 0, 42, 43
1, 348960, Note_on_c, 0, 49, 43
1, 348960, Note_on_c, 0, 54, 51
1, 349416, Note_on_c, 0, 54, 0
1, 349416, Note_on_c, 0, 73, 0
1, 349416, Note_on_c, 0, 82, 0
1, 349416, Note_on_c, 0, 70, 0
1, 349416, Note_on_c, 0, 49, 0
1, 349416, Note_on_c, 0, 42, 0
1, 349440, Tempo, 388350
1, 349440, Note_on_c, 0, 73, 53
1, 349440, Note_on_c, 0, 70, 53
1, 349440, Note_on_c, 0, 82, 65
1, 349440, Note_on_c, 0, 42, 43
1, 349440, Note_on_c, 0, 49, 43
1, 349440, Note_on_c, 0, 54, 51
1, 349560, Tempo, 385852
1, 349896, Note_on_c, 0, 54, 0
1, 349896, Note_on_c, 0, 70, 0
1, 349896, Note_on_c, 0, 82, 0
1, 349896, Note_on_c, 0, 73, 0
1, 349896, Note_on_c, 0, 49, 0
1, 349896, Note_on_c, 0, 42, 0
1, 349920, Note_on_c, 0, 73, 57
1, 349920, Note_on_c, 0, 70, 57
1, 349920, Note_on_c, 0, 82, 68
1, 349920, Note_on_c, 0, 42, 45
1, 349920, Note_on_c, 0, 49, 45
1, 349920, Note_on_c, 0, 54, 53
1, 350376, Note_on_c, 0, 54, 0
1, 350376, Note_on_c, 0, 70, 0
1, 350376, Note_on_c, 0, 82, 0
1, 350376, Note_on_c, 0, 73, 0
1, 350376, Note_on_c, 0, 49, 0
1, 350376, Note_on_c, 0, 42, 0
1, 350400, Tempo, 373832
1, 350400, Note_on_c, 0, 68, 56
1, 350400, Note_on_c, 0, 73, 56
1, 350400, Note_on_c, 0, 80, 67
1, 350400, Note_on_c, 0, 37, 45
1, 350400, Note_on_c, 0, 49, 53
1, 350865, Note_on_c, 0, 49, 0
1, 350865, Note_on_c, 0, 80, 0
1, 350865, Note_on_c, 0, 68, 0
1, 350865, Note_on_c, 0, 73, 0
1, 350865, Note_on_c, 0, 37, 0
1, 350880, Tempo, 385852
1, 350880, Note_on_c, 0, 66, 57
1, 350880, Note_on_c, 0, 73, 57
1, 350880, Note_on_c, 0, 78, 68
1, 350880, Note_on_c, 0, 34, 45
1, 350880, Note_on_c, 0, 46, 53
1, 350893, Control_c, 0, 64, 0
1, 351155, Control_c, 0, 64, 127
1, 351336, Note_on_c, 0, 46, 0
1, 351336, Note_on_c, 0, 78, 0
1, 351336, Note_on_c, 0, 66, 0
1, 351336, Note_on_c, 0, 73, 0
1, 351336, Note_on_c, 0, 34, 0
1, 351360, Tempo, 377358
1, 351360, Note_on_c, 0, 70, 57
1, 351360, Note_on_c, 0, 78, 57
1, 351360, Note_on_c, 0, 82, 68
1, 351360, Note_on_c, 0, 42, 45
1, 351360, Note_on_c, 0, 54, 53
1, 351816, Note_on_c, 0, 54, 0
1, 351816, Note_on_c, 0, 82, 0
1, 351816, Note_on_c, 0, 70, 0
1, 351816, Note_on_c, 0, 78, 0
1, 351816, Note_on_c, 0, 42, 0
1, 351840, Tempo, 371517
1, 351840, Note_on_c, 0, 71, 65
1, 351840, Note_on_c, 0, 78, 65
1, 351840, Note_on_c, 0, 83, 78
1, 351840, Note_on_c, 0, 54, 50
1, 351840, Note_on_c, 0, 44, 50
1, 351840, Note_on_c, 0, 56, 63
1, 351960, Tempo, 371517
1, 352296, Note_on_c, 0, 56, 0
1, 352296, Note_on_c, 0, 78, 0
1, 352296, Note_on_c, 0, 71, 0
1, 352296, Note_on_c, 0, 83, 0
1, 352296, Note_on_c, 0, 44, 0
1, 352320, Tempo, 397351
1, 352320, Note_on_c, 0, 54, 0
1, 352320, Note_on_c, 0, 73, 73
1, 352320, Note_on_c, 0, 78, 73
1, 352320, Note_on_c, 0, 85, 89
1, 352320, Note_on_c, 0, 46, 57
1, 352320, Note_on_c, 0, 54, 57
1, 352320, Note_on_c, 0, 58, 71
1, 352776, Note_on_c, 0, 58, 0
1, 352776, Note_on_c, 0, 78, 0
1, 352776, Note_on_c, 0, 85, 0
1, 352776, Note_on_c, 0, 73, 0
1, 352776, Note_on_c, 0, 54, 0
1, 352776, Note_on_c, 0, 46, 0
1, 352800, Tempo, 389610
1, 352800, Note_on_c, 0, 78, 82
1, 352800, Note_on_c, 0, 74, 82
1, 352800, Note_on_c, 0, 86, 100
1, 352800, Note_on_c, 0, 47, 65
1, 352800, Note_on_c, 0, 54, 65
1, 352800, Note_on_c, 0, 59, 80
1, 352804, Control_c, 0, 64, 0
1, 352920, Tempo, 385852
1, 353174, Control_c, 0, 64, 127
1, 353750, Note_on_c, 0, 59, 0
1, 353750, Note_on_c, 0, 74, 0
1, 353750, Note_on_c, 0, 86, 0
1, 353750, Note_on_c, 0, 78, 0
1, 353750, Note_on_c, 0, 54, 0
1, 353750, Note_on_c, 0, 47, 0
1, 353760, Tempo, 392157
1, 353760, Note_on_c, 0, 78, 74
1, 353760, Note_on_c, 0, 74, 74
1, 353760, Note_on_c, 0, 86, 89
1, 353760, Note_on_c, 0, 47, 58
1, 353760, Note_on_c, 0, 54, 58
1, 353760, Note_on_c, 0, 59, 69
1, 354216, Note_on_c, 0, 59, 0
1, 354216, Note_on_c, 0, 74, 0
1, 354216, Note_on_c, 0, 86, 0
1, 354216, Note_on_c, 0, 78, 0
1, 354216, Note_on_c, 0, 54, 0
1, 354216, Note_on_c, 0, 47, 0
1, 354240, Tempo, 378549
1, 354240, Note_on_c, 0, 78, 74
1, 354240, Note_on_c, 0, 74, 74
1, 354240, Note_on_c, 0, 86, 89
1, 354240, Note_on_c, 0, 47, 58
1, 354240, Note_on_c, 0, 54, 58
1, 354240, Note_on_c, 0, 59, 69
1, 354696, Note_on_c, 0, 59, 0
1, 354696, Note_on_c, 0, 74, 0
1, 354696, Note_on_c, 0, 86, 0
1, 354696, Note_on_c, 0, 78, 0
1, 354696, Note_on_c, 0, 54, 0
1, 354696, Note_on_c, 0, 47, 0
1, 354720, Tempo, 372671
1, 354720, Note_on_c, 0, 78, 69
1, 354720, Note_on_c, 0, 74, 69
1, 354720, Note_on_c, 0, 86, 85
1, 354720, Note_on_c, 0, 47, 56
1, 354720, Note_on_c, 0, 54, 56
1, 354720, Note_on_c, 0, 59, 66
1, 355176, Note_on_c, 0, 59, 0
1, 355176, Note_on_c, 0, 74, 0
1, 355176, Note_on_c, 0, 86, 0
1, 355176, Note_on_c, 0, 78, 0
1, 355176, Note_on_c, 0, 54, 0
1, 355176, Note_on_c, 0, 47, 0
1, 355200, Tempo, 393443
1, 355200, Note_on_c, 0, 74, 69
1, 355200, Note_on_c, 0, 78, 69
1, 355200, Note_on_c, 0, 86, 85
1, 355200, Note_on_c, 0, 47, 56
1, 355200, Note_on_c, 0, 54, 56
1, 355200, Note_on_c, 0, 59, 66
1, 355656, Note_on_c, 0, 59, 0
1, 355656, Note_on_c, 0, 78, 0
1, 355656, Note_on_c, 0, 86, 0
1, 355656, Note_on_c, 0, 74, 0
1, 355656, Note_on_c, 0, 54, 0
1, 355656, Note_on_c, 0, 47, 0
1, 355680, Tempo, 401338
1, 355680, Note_on_c, 0, 86, 82
1, 355680, Note_on_c, 0, 77, 82
1, 355680, Note_on_c, 0, 79, 82
1, 355680, Note_on_c, 0, 83, 82
1, 355680, Note_on_c, 0, 91, 100
1, 355680, Note_on_c, 0, 31, 65
1, 355680, Note_on_c, 0, 43, 80
1, 355684, Control_c, 0, 64, 0
1, 356054, Control_c, 0, 64, 127
1, 356630, Note_on_c, 0, 43, 0
1, 356630, Note_on_c, 0, 91, 0
1, 356630, Note_on_c, 0, 77, 0
1, 356630, Note_on_c, 0, 79, 0
1, 356630, Note_on_c, 0, 86, 0
1, 356630, Note_on_c, 0, 31, 0
1, 356630, Note_on_c, 0, 83, 0
1, 356640, Tempo, 410959
1, 356640, Note_on_c, 0, 91, 89
1, 356640, Note_on_c, 0, 77, 74
1, 356640, Note_on_c, 0, 79, 74
1, 356640, Note_on_c, 0, 86, 74
1, 356640, Note_on_c, 0, 83, 74
1, 356640, Note_on_c, 0, 31, 58
1, 356640, Note_on_c, 0, 43, 69
1, 356760, Tempo, 412371
1, 357096, Note_on_c, 0, 43, 0
1, 357096, Note_on_c, 0, 83, 0
1, 357096, Note_on_c, 0, 77, 0
1, 357096, Note_on_c, 0, 79, 0
1, 357096, Note_on_c, 0, 91, 0
1, 357096, Note_on_c, 0, 31, 0
1, 357096, Note_on_c, 0, 86, 0
1, 357120, Tempo, 415225
1, 357120, Note_on_c, 0, 86, 74
1, 357120, Note_on_c, 0, 77, 74
1, 357120, Note_on_c, 0, 79, 74
1, 357120, Note_on_c, 0, 83, 74
1, 357120, Note_on_c, 0, 91, 89
1, 357120, Note_on_c, 0, 35, 58
1, 357120, Note_on_c, 0, 47, 69
1, 357480, Tempo, 413793
1, 357576, Note_on_c, 0, 47, 0
1, 357576, Note_on_c, 0, 91, 0
1, 357576, Note_on_c, 0, 77, 0
1, 357576, Note_on_c, 0, 79, 0
1, 357576, Note_on_c, 0, 86, 0
1, 357576, Note_on_c, 0, 35, 0
1, 357576, Note_on_c, 0, 83, 0
1, 357600, Tempo, 421053
1, 357600, Note_on_c, 0, 83, 64
1, 357600, Note_on_c, 0, 77, 64
1, 357600, Note_on_c, 0, 79, 64
1, 357600, Note_on_c, 0, 86, 64
1, 357600, Note_on_c, 0, 91, 79
1, 357600, Note_on_c, 0, 38, 52
1, 357600, Note_on_c, 0, 50, 62
1, 358056, Note_on_c, 0, 50, 0
1, 358056, Note_on_c, 0, 91, 0
1, 358056, Note_on_c, 0, 77, 0
1, 358056, Note_on_c, 0, 79, 0
1, 358056, Note_on_c, 0, 83, 0
1, 358056, Note_on_c, 0, 38, 0
1, 358056, Note_on_c, 0, 86, 0
1, 358080, Tempo, 442804
1, 358080, Note_on_c, 0, 91, 73
1, 358080, Note_on_c, 0, 77, 60
1, 358080, Note_on_c, 0, 79, 60
1, 358080, Note_on_c, 0, 86, 60
1, 358080, Note_on_c, 0, 83, 60
1, 358080, Note_on_c, 0, 43, 48
1, 358080, Note_on_c, 0, 55, 57
1, 358536, Note_on_c, 0, 55, 0
1, 358536, Note_on_c, 0, 83, 0
1, 358536, Note_on_c, 0, 77, 0
1, 358536, Note_on_c, 0, 79, 0
1, 358536, Note_on_c, 0, 91, 0
1, 358536, Note_on_c, 0, 43, 0
1, 358536, Note_on_c, 0, 86, 0
1, 358560, Tempo, 433213
1, 358560, Note_on_c, 0, 84, 58
1, 358560, Note_on_c, 0, 76, 58
1, 358560, Note_on_c, 0, 79, 58
1, 358560, Note_on_c, 0, 88, 69
1, 358560, Note_on_c, 0, 36, 46
1, 358560, Note_on_c, 0, 48, 55
1, 358575, Control_c, 0, 64, 0
1, 359147, Control_c, 0, 64, 127
1, 359491, Note_on_c, 0, 48, 0
1, 359491, Note_on_c, 0, 76, 0
1, 359491, Note_on_c, 0, 79, 0
1, 359491, Note_on_c, 0, 84, 0
1, 359491, Note_on_c, 0, 36, 0
1, 359491, Note_on_c, 0, 88, 0
1, 359520, Tempo, 413793
1, 359520, Note_on_c, 0, 76, 38
1, 359520, Note_on_c, 0, 64, 32
1, 359520, Note_on_c, 0, 72, 32
1, 359520, Note_on_c, 0, 36, 27
1, 359520, Note_on_c, 0, 48, 32
1, 359976, Note_on_c, 0, 48, 0
1, 359976, Note_on_c, 0, 72, 0
1, 359976, Note_on_c, 0, 76, 0
1, 359976, Note_on_c, 0, 64, 0
1, 359976, Note_on_c, 0, 36, 0
1, 360000, Tempo, 394737
1, 360000, Note_on_c, 0, 76, 43
1, 360000, Note_on_c, 0, 64, 36
1, 360000, Note_on_c, 0, 72, 36
1, 360000, Note_on_c, 0, 36, 23
1, 360000, Note_on_c, 0, 48, 33
1, 360456, Note_on_c, 0, 48, 0
1, 360456, Note_on_c, 0, 72, 0
1, 360456, Note_on_c, 0, 76, 0
1, 360456, Note_on_c, 0, 64, 0
1, 360456, Note_on_c, 0, 36, 0
1, 360480, Tempo, 385852
1, 360480, Note_on_c, 0, 76, 38
1, 360480, Note_on_c, 0, 64, 32
1, 360480, Note_on_c, 0, 72, 32
1, 360480, Note_on_c, 0, 36, 23
1, 360480, Note_on_c, 0, 48, 28
1, 360936, Note_on_c, 0, 48, 0
1, 360936, Note_on_c, 0, 72, 0
1, 360936, Note_on_c, 0, 76, 0
1, 360936, Note_on_c, 0, 64, 0
1, 360936, Note_on_c, 0, 36, 0
1, 360960, Tempo, 419580
1, 360960, Note_on_c, 0, 64, 32
1, 360960, Note_on_c, 0, 72, 32
1, 360960, Note_on_c, 0, 76, 38
1, 360960, Note_on_c, 0, 36, 23
1, 360960, Note_on_c, 0, 48, 28
1, 361416, Note_on_c, 0, 48, 0
1, 361416, Note_on_c, 0, 76, 0
1, 361416, Note_on_c, 0, 64, 0
1, 361416, Note_on_c, 0, 72, 0
1, 361416, Note_on_c, 0, 36, 0
1, 361440, Tempo, 393108
1, 361440, Note_on_c, 0, 64, 36
1, 361440, Note_on_c, 0, 72, 36
1, 361440, Note_on_c, 0, 76, 43
1, 361440, Note_on_c, 0, 36, 30
1, 361440, Note_on_c, 0, 48, 36
1, 361447, Control_c, 0, 64, 0
1, 361760, Control_c, 0, 64, 127
1, 362371, Note_on_c, 0, 48, 0
1, 362371, Note_on_c, 0, 76, 0
1, 362371, Note_on_c, 0, 36, 0
1, 362371, Note_on_c, 0, 72, 0
1, 362400, Tempo, 406421
1, 362400, Note_on_c, 0, 74, 38
1, 362400, Note_on_c, 0, 71, 32
1, 362400, Note_on_c, 0, 36, 23
1, 362400, Note_on_c, 0, 48, 28
1, 362856, Note_on_c, 0, 48, 0
1, 362856, Note_on_c, 0, 71, 0
1, 362856, Note_on_c, 0, 36, 0
1, 362856, Note_on_c, 0, 74, 0
1, 362880, Tempo, 395700
1, 362880, Note_on_c, 0, 64, 0
1, 362880, Note_on_c, 0, 64, 37
1, 362880, Note_on_c, 0, 71, 37
1, 362880, Note_on_c, 0, 74, 44
1, 362880, Note_on_c, 0, 36, 29
1, 362880, Note_on_c, 0, 48, 35
1, 362887, Control_c, 0, 64, 0
1, 363120, Control_c, 0, 64, 127
1, 363811, Note_on_c, 0, 48, 0
1, 363811, Note_on_c, 0, 74, 0
1, 363811, Note_on_c, 0, 36, 0
1, 363811, Note_on_c, 0, 71, 0
1, 363840, Tempo, 410593
1, 363840, Note_on_c, 0, 69, 31
1, 363840, Note_on_c, 0, 72, 36
1, 363840, Note_on_c, 0, 36, 21
1, 363840, Note_on_c, 0, 48, 26
1, 364296, Note_on_c, 0, 48, 0
1, 364296, Note_on_c, 0, 72, 0
1, 364296, Note_on_c, 0, 36, 0
1, 364296, Note_on_c, 0, 69, 0
1, 364320, Tempo, 395700
1, 364320, Note_on_c, 0, 64, 0
1, 364320, Note_on_c, 0, 64, 35
1, 364320, Note_on_c, 0, 69, 35
1, 364320, Note_on_c, 0, 72, 41
1, 364320, Note_on_c, 0, 36, 28
1, 364320, Note_on_c, 0, 48, 34
1, 364331, Control_c, 0, 64, 0
1, 364667, Control_c, 0, 64, 127
1, 365251, Note_on_c, 0, 48, 0
1, 365251, Note_on_c, 0, 72, 0
1, 365251, Note_on_c, 0, 64, 0
1, 365251, Note_on_c, 0, 69, 0
1, 365251, Note_on_c, 0, 36, 0
1, 365280, Tempo, 413422
1, 365280, Note_on_c, 0, 67, 27
1, 365280, Note_on_c, 0, 71, 32
1, 365280, Note_on_c, 0, 36, 21
1, 365280, Note_on_c, 0, 48, 26
1, 365736, Note_on_c, 0, 48, 0
1, 365736, Note_on_c, 0, 67, 0
1, 365736, Note_on_c, 0, 71, 0
1, 365736, Note_on_c, 0, 36, 0
1, 365760, Tempo, 393108
1, 365760, Note_on_c, 0, 67, 32
1, 365760, Note_on_c, 0, 71, 38
1, 365760, Note_on_c, 0, 36, 25
1, 365760, Note_on_c, 0, 48, 30
1, 365771, Control_c, 0, 64, 0
1, 366107, Control_c, 0, 64, 127
1, 366691, Note_on_c, 0, 48, 0
1, 366691, Note_on_c, 0, 67, 0
1, 366691, Note_on_c, 0, 71, 0
1, 366691, Note_on_c, 0, 36, 0
1, 366720, Tempo, 416291
1, 366720, Note_on_c, 0, 62, 26
1, 366720, Note_on_c, 0, 66, 26
1, 366720, Note_on_c, 0, 69, 30
1, 366720, Note_on_c, 0, 36, 22
1, 366720, Note_on_c, 0, 48, 26
1, 367176, Note_on_c, 0, 48, 0
1, 367176, Note_on_c, 0, 69, 0
1, 367176, Note_on_c, 0, 62, 0
1, 367176, Note_on_c, 0, 66, 0
1, 367176, Note_on_c, 0, 36, 0
1, 367200, Tempo, 393108
1, 367200, Note_on_c, 0, 66, 29
1, 367200, Note_on_c, 0, 62, 29
1, 367200, Note_on_c, 0, 69, 35
1, 367200, Note_on_c, 0, 36, 23
1, 367200, Note_on_c, 0, 48, 28
1, 367206, Control_c, 0, 64, 0
1, 367600, Control_c, 0, 64, 127
1, 368131, Note_on_c, 0, 48, 0
1, 368131, Note_on_c, 0, 69, 0
1, 368131, Note_on_c, 0, 66, 0
1, 368131, Note_on_c, 0, 62, 0
1, 368131, Note_on_c, 0, 36, 0
1, 368160, Tempo, 400989
1, 368160, Note_on_c, 0, 62, 25
1, 368160, Note_on_c, 0, 66, 25
1, 368160, Note_on_c, 0, 69, 29
1, 368160, Note_on_c, 0, 36, 21
1, 368160, Note_on_c, 0, 48, 25
1, 368616, Note_on_c, 0, 48, 0
1, 368616, Note_on_c, 0, 69, 0
1, 368616, Note_on_c, 0, 62, 0
1, 368616, Note_on_c, 0, 66, 0
1, 368616, Note_on_c, 0, 36, 0
1, 368640, Tempo, 390549
1, 368640, Note_on_c, 0, 62, 27
1, 368640, Note_on_c, 0, 66, 27
1, 368640, Note_on_c, 0, 69, 31
1, 368640, Note_on_c, 0, 36, 23
1, 368640, Note_on_c, 0, 48, 27
1, 369096, Note_on_c, 0, 48, 0
1, 369096, Note_on_c, 0, 69, 0
1, 369096, Note_on_c, 0, 62, 0
1, 369096, Note_on_c, 0, 66, 0
1, 369096, Note_on_c, 0, 36, 0
1, 369120, Tempo, 378549
1, 369120, Note_on_c, 0, 62, 25
1, 369120, Note_on_c, 0, 66, 25
1, 369120, Note_on_c, 0, 69, 29
1, 369120, Note_on_c, 0, 36, 21
1, 369120, Note_on_c, 0, 48, 25
1, 369576, Note_on_c, 0, 48, 0
1, 369576, Note_on_c, 0, 69, 0
1, 369576, Note_on_c, 0, 62, 0
1, 369576, Note_on_c, 0, 66, 0
1, 369576, Note_on_c, 0, 36, 0
1, 369600, Tempo, 400989
1, 369600, Note_on_c, 0, 62, 25
1, 369600, Note_on_c, 0, 66, 25
1, 369600, Note_on_c, 0, 69, 29
1, 369600, Note_on_c, 0, 36, 21
1, 369600, Note_on_c, 0, 48, 25
1, 370056, Note_on_c, 0, 48, 0
1, 370056, Note_on_c, 0, 69, 0
1, 370056, Note_on_c, 0, 62, 0
1, 370056, Note_on_c, 0, 66, 0
1, 370056, Note_on_c, 0, 36, 0
1, 370080, Tempo, 390549
1, 370080, Note_on_c, 0, 66, 29
1, 370080, Note_on_c, 0, 62, 29
1, 370080, Note_on_c, 0, 69, 35
1, 370080, Note_on_c, 0, 36, 23
1, 370080, Note_on_c, 0, 48, 28
1, 371011, Note_on_c, 0, 48, 0
1, 371011, Note_on_c, 0, 69, 0
1, 371011, Note_on_c, 0, 66, 0
1, 371011, Note_on_c, 0, 62, 0
1, 371011, Note_on_c, 0, 36, 0
1, 371040, Tempo, 403687
1, 371040, Note_on_c, 0, 62, 25
1, 371040, Note_on_c, 0, 66, 25
1, 371040, Note_on_c, 0, 69, 29
1, 371040, Note_on_c, 0, 36, 21
1, 371040, Note_on_c, 0, 48, 25
1, 371496, Note_on_c, 0, 48, 0
1, 371496, Note_on_c, 0, 69, 0
1, 371496, Note_on_c, 0, 62, 0
1, 371496, Note_on_c, 0, 66, 0
1, 371496, Note_on_c, 0, 36, 0
1, 371520, Tempo, 397009
1, 371520, Note_on_c, 0, 62, 27
1, 371520, Note_on_c, 0, 66, 27
1, 371520, Note_on_c, 0, 69, 31
1, 371520, Note_on_c, 0, 36, 23
1, 371520, Note_on_c, 0, 48, 27
1, 371680, Tempo, 397009
1, 371976, Note_on_c, 0, 48, 0
1, 371976, Note_on_c, 0, 69, 0
1, 371976, Note_on_c, 0, 62, 0
1, 371976, Note_on_c, 0, 66, 0
1, 371976, Note_on_c, 0, 36, 0
1, 372000, Tempo, 384615
1, 372000, Note_on_c, 0, 62, 25
1, 372000, Note_on_c, 0, 66, 25
1, 372000, Note_on_c, 0, 69, 29
1, 372000, Note_on_c, 0, 36, 21
1, 372000, Note_on_c, 0, 48, 25
1, 372456, Note_on_c, 0, 48, 0
1, 372456, Note_on_c, 0, 69, 0
1, 372456, Note_on_c, 0, 62, 0
1, 372456, Note_on_c, 0, 66, 0
1, 372456, Note_on_c, 0, 36, 0
1, 372480, Tempo, 390879
1, 372480, Note_on_c, 0, 62, 25
1, 372480, Note_on_c, 0, 66, 25
1, 372480, Note_on_c, 0, 69, 29
1, 372480, Note_on_c, 0, 36, 21
1, 372480, Note_on_c, 0, 48, 25
1, 372936, Note_on_c, 0, 48, 0
1, 372936, Note_on_c, 0, 69, 0
1, 372936, Note_on_c, 0, 62, 0
1, 372936, Note_on_c, 0, 66, 0
1, 372936, Note_on_c, 0, 36, 0
1, 372960, Tempo, 422535
1, 372960, Note_on_c, 0, 63, 29
1, 372960, Note_on_c, 0, 66, 29
1, 372960, Note_on_c, 0, 71, 35
1, 372960, Note_on_c, 0, 35, 23
1, 372960, Note_on_c, 0, 47, 28
1, 372960, Control_c, 0, 64, 0
1, 373440, Control_c, 0, 64, 127
1, 373910, Note_on_c, 0, 63, 0
1, 373911, Note_on_c, 0, 35, 0
1, 373911, Note_on_c, 0, 66, 0
1, 373911, Note_on_c, 0, 71, 0
1, 373911, Note_on_c, 0, 47, 0
1, 373920, Tempo, 413793
1, 373920, Note_on_c, 0, 63, 29
1, 373920, Note_on_c, 0, 66, 29
1, 373920, Note_on_c, 0, 71, 35
1, 373920, Note_on_c, 0, 47, 28
1, 374376, Note_on_c, 0, 47, 0
1, 374376, Note_on_c, 0, 63, 0
1, 374376, Note_on_c, 0, 66, 0
1, 374376, Note_on_c, 0, 71, 0
1, 374400, Tempo, 398671
1, 374400, Note_on_c, 0, 66, 29
1, 374400, Note_on_c, 0, 63, 29
1, 374400, Note_on_c, 0, 71, 35
1, 374400, Note_on_c, 0, 47, 28
1, 374856, Note_on_c, 0, 47, 0
1, 374856, Note_on_c, 0, 66, 0
1, 374856, Note_on_c, 0, 63, 0
1, 374856, Note_on_c, 0, 71, 0
1, 374880, Tempo, 388350
1, 374880, Note_on_c, 0, 63, 28
1, 374880, Note_on_c, 0, 66, 28
1, 374880, Note_on_c, 0, 71, 33
1, 374880, Note_on_c, 0, 47, 26
1, 375336, Note_on_c, 0, 47, 0
1, 375336, Note_on_c, 0, 63, 0
1, 375336, Note_on_c, 0, 66, 0
1, 375336, Note_on_c, 0, 71, 0
1, 375360, Tempo, 413793
1, 375360, Note_on_c, 0, 63, 28
1, 375360, Note_on_c, 0, 66, 28
1, 375360, Note_on_c, 0, 71, 33
1, 375360, Note_on_c, 0, 45, 22
1, 375360, Note_on_c, 0, 47, 26
1, 375816, Note_on_c, 0, 47, 0
1, 375816, Note_on_c, 0, 71, 0
1, 375816, Note_on_c, 0, 63, 0
1, 375816, Note_on_c, 0, 66, 0
1, 375816, Note_on_c, 0, 45, 0
1, 375840, Note_on_c, 0, 62, 33
1, 375840, Note_on_c, 0, 67, 33
1, 375840, Note_on_c, 0, 71, 39
1, 375840, Note_on_c, 0, 43, 26
1, 375840, Note_on_c, 0, 47, 26
1, 375840, Note_on_c, 0, 55, 31
1, 375840, Control_c, 0, 64, 0
1, 376017, Control_c, 0, 64, 127
1, 376296, Note_on_c, 0, 55, 0
1, 376296, Note_on_c, 0, 67, 0
1, 376296, Note_on_c, 0, 71, 0
1, 376296, Note_on_c, 0, 62, 0
1, 376296, Note_on_c, 0, 47, 0
1, 376296, Note_on_c, 0, 43, 0
1, 376320, Tempo, 388350
1, 376320, Note_on_c, 0, 64, 36
1, 376320, Note_on_c, 0, 67, 36
1, 376320, Note_on_c, 0, 76, 43
1, 376320, Note_on_c, 0, 48, 28
1, 376320, Note_on_c, 0, 50, 28
1, 376320, Note_on_c, 0, 60, 34
1, 376330, Control_c, 0, 64, 0
1, 376623, Control_c, 0, 64, 127
1, 376785, Note_on_c, 0, 60, 0
1, 376785, Note_on_c, 0, 48, 0
1, 376786, Note_on_c, 0, 76, 0
1, 376786, Note_on_c, 0, 64, 0
1, 376786, Note_on_c, 0, 67, 0
1, 376786, Note_on_c, 0, 50, 0
1, 376800, Tempo, 408163
1, 376800, Note_on_c, 0, 67, 33
1, 376800, Note_on_c, 0, 74, 39
1, 376800, Note_on_c, 0, 62, 33
1, 376800, Note_on_c, 0, 50, 26
1, 376800, Note_on_c, 0, 47, 26
1, 376800, Note_on_c, 0, 59, 31
1, 376813, Control_c, 0, 64, 0
1, 377002, Control_c, 0, 64, 127
1, 377256, Note_on_c, 0, 59, 0
1, 377256, Note_on_c, 0, 74, 0
1, 377256, Note_on_c, 0, 62, 0
1, 377256, Note_on_c, 0, 67, 0
1, 377256, Note_on_c, 0, 47, 0
1, 377256, Note_on_c, 0, 50, 0
1, 377280, Tempo, 389610
1, 377280, Note_on_c, 0, 67, 33
1, 377280, Note_on_c, 0, 74, 39
1, 377280, Note_on_c, 0, 62, 33
1, 377280, Note_on_c, 0, 47, 26
1, 377280, Note_on_c, 0, 50, 26
1, 377280, Note_on_c, 0, 59, 31
1, 377736, Note_on_c, 0, 59, 0
1, 377736, Note_on_c, 0, 74, 0
1, 377736, Note_on_c, 0, 62, 0
1, 377736, Note_on_c, 0, 67, 0
1, 377736, Note_on_c, 0, 50, 0
1, 377736, Note_on_c, 0, 47, 0
1, 377760, Tempo, 383387
1, 377760, Note_on_c, 0, 74, 36
1, 377760, Note_on_c, 0, 62, 30
1, 377760, Note_on_c, 0, 67, 30
1, 377760, Note_on_c, 0, 47, 24
1, 377760, Note_on_c, 0, 50, 24
1, 377760, Note_on_c, 0, 59, 28
1, 378216, Note_on_c, 0, 59, 0
1, 378216, Note_on_c, 0, 62, 0
1, 378216, Note_on_c, 0, 67, 0
1, 378216, Note_on_c, 0, 74, 0
1, 378216, Note_on_c, 0, 50, 0
1, 378216, Note_on_c, 0, 47, 0
1, 378240, Tempo, 413793
1, 378240, Note_on_c, 0, 62, 30
1, 378240, Note_on_c, 0, 74, 36
1, 378240, Note_on_c, 0, 67, 30
1, 378240, Note_on_c, 0, 47, 24
1, 378240, Note_on_c, 0, 50, 24
1, 378240, Note_on_c, 0, 59, 28
1, 378696, Note_on_c, 0, 59, 0
1, 378696, Note_on_c, 0, 74, 0
1, 378696, Note_on_c, 0, 67, 0
1, 378696, Note_on_c, 0, 62, 0
1, 378696, Note_on_c, 0, 50, 0
1, 378696, Note_on_c, 0, 47, 0
1, 378720, Tempo, 394400
1, 378720, Note_on_c, 0, 62, 33
1, 378720, Note_on_c, 0, 74, 39
1, 378720, Note_on_c, 0, 67, 33
1, 378720, Note_on_c, 0, 47, 26
1, 378720, Note_on_c, 0, 50, 26
1, 378720, Note_on_c, 0, 59, 31
1, 379200, Tempo, 403687
1, 379200, Note_on_c, 0, 59, 0
1, 379200, Note_on_c, 0, 74, 0
1, 379200, Note_on_c, 0, 67, 0
1, 379200, Note_on_c, 0, 62, 0
1, 379200, Note_on_c, 0, 50, 0
1, 379200, Note_on_c, 0, 47, 0
1, 379200, Note_on_c, 0, 62, 29
1, 379200, Note_on_c, 0, 57, 29
1, 379200, Note_on_c, 0, 69, 35
1, 379200, Note_on_c, 0, 42, 23
1, 379200, Note_on_c, 0, 50, 23
1, 379200, Note_on_c, 0, 54, 27
1, 379212, Control_c, 0, 64, 0
1, 379352, Control_c, 0, 64, 127
1, 379666, Note_on_c, 0, 54, 0
1, 379666, Note_on_c, 0, 57, 0
1, 379666, Note_on_c, 0, 69, 0
1, 379666, Note_on_c, 0, 62, 0
1, 379666, Note_on_c, 0, 50, 0
1, 379666, Note_on_c, 0, 42, 0
1, 379680, Tempo, 418118
1, 379680, Note_on_c, 0, 60, 29
1, 379680, Note_on_c, 0, 62, 29
1, 379680, Note_on_c, 0, 72, 35
1, 379680, Note_on_c, 0, 45, 23
1, 379680, Note_on_c, 0, 50, 23
1, 379680, Note_on_c, 0, 57, 27
1, 379690, Control_c, 0, 64, 0
1, 379857, Control_c, 0, 64, 127
1, 380145, Note_on_c, 0, 72, 0
1, 380145, Note_on_c, 0, 60, 0
1, 380146, Note_on_c, 0, 45, 0
1, 380146, Note_on_c, 0, 62, 0
1, 380146, Note_on_c, 0, 57, 0
1, 380146, Note_on_c, 0, 50, 0
1, 380160, Tempo, 394400
1, 380160, Note_on_c, 0, 72, 39
1, 380160, Note_on_c, 0, 62, 33
1, 380160, Note_on_c, 0, 60, 33
1, 380160, Note_on_c, 0, 45, 26
1, 380160, Note_on_c, 0, 50, 26
1, 380160, Note_on_c, 0, 57, 31
1, 380625, Note_on_c, 0, 60, 0
1, 380625, Note_on_c, 0, 72, 0
1, 380626, Note_on_c, 0, 45, 0
1, 380626, Note_on_c, 0, 62, 0
1, 380626, Note_on_c, 0, 57, 0
1, 380626, Note_on_c, 0, 50, 0
1, 380640, Tempo, 403687
1, 380640, Note_on_c, 0, 59, 31
1, 380640, Note_on_c, 0, 71, 37
1, 380640, Note_on_c, 0, 62, 31
1, 380640, Note_on_c, 0, 43, 25
1, 380640, Note_on_c, 0, 50, 25
1, 380640, Note_on_c, 0, 55, 29
1, 380649, Control_c, 0, 64, 0
1, 380893, Control_c, 0, 64, 127
1, 381106, Note_on_c, 0, 55, 0
1, 381106, Note_on_c, 0, 71, 0
1, 381106, Note_on_c, 0, 62, 0
1, 381106, Note_on_c, 0, 59, 0
1, 381106, Note_on_c, 0, 50, 0
1, 381106, Note_on_c, 0, 43, 0
1, 381120, Tempo, 419580
1, 381120, Note_on_c, 0, 57, 31
1, 381120, Note_on_c, 0, 69, 37
1, 381120, Note_on_c, 0, 62, 31
1, 381120, Note_on_c, 0, 42, 25
1, 381120, Note_on_c, 0, 50, 25
1, 381120, Note_on_c, 0, 54, 29
1, 381132, Control_c, 0, 64, 0
1, 381348, Control_c, 0, 64, 127
1, 381586, Note_on_c, 0, 54, 0
1, 381586, Note_on_c, 0, 69, 0
1, 381586, Note_on_c, 0, 62, 0
1, 381586, Note_on_c, 0, 57, 0
1, 381586, Note_on_c, 0, 50, 0
1, 381586, Note_on_c, 0, 42, 0
1, 381600, Tempo, 412371
1, 381600, Note_on_c, 0, 62, 33
1, 381600, Note_on_c, 0, 57, 33
1, 381600, Note_on_c, 0, 69, 39
1, 381600, Note_on_c, 0, 42, 26
1, 381600, Note_on_c, 0, 50, 26
1, 381600, Note_on_c, 0, 54, 31
1, 382066, Note_on_c, 0, 54, 0
1, 382066, Note_on_c, 0, 57, 0
1, 382066, Note_on_c, 0, 69, 0
1, 382066, Note_on_c, 0, 62, 0
1, 382066, Note_on_c, 0, 50, 0
1, 382066, Note_on_c, 0, 42, 0
1, 382080, Tempo, 400000
1, 382080, Note_on_c, 0, 59, 33
1, 382080, Note_on_c, 0, 62, 33
1, 382080, Note_on_c, 0, 71, 39
1, 382080, Note_on_c, 0, 43, 26
1, 382080, Note_on_c, 0, 50, 26
1, 382080, Note_on_c, 0, 55, 31
1, 382083, Control_c, 0, 64, 0
1, 382374, Control_c, 0, 64, 127
1, 382546, Note_on_c, 0, 55, 0
1, 382546, Note_on_c, 0, 62, 0
1, 382546, Note_on_c, 0, 71, 0
1, 382546, Note_on_c, 0, 59, 0
1, 382546, Note_on_c, 0, 50, 0
1, 382546, Note_on_c, 0, 43, 0
1, 382560, Tempo, 425532
1, 382560, Note_on_c, 0, 62, 33
1, 382560, Note_on_c, 0, 71, 39
1, 382560, Note_on_c, 0, 59, 33
1, 382560, Note_on_c, 0, 43, 26
1, 382560, Note_on_c, 0, 50, 26
1, 382560, Note_on_c, 0, 55, 31
1, 383026, Note_on_c, 0, 55, 0
1, 383026, Note_on_c, 0, 71, 0
1, 383026, Note_on_c, 0, 59, 0
1, 383026, Note_on_c, 0, 62, 0
1, 383026, Note_on_c, 0, 50, 0
1, 383026, Note_on_c, 0, 43, 0
1, 383040, Tempo, 398327
1, 383040, Note_on_c, 0, 62, 37
1, 383040, Note_on_c, 0, 71, 44
1, 383040, Note_on_c, 0, 59, 37
1, 383040, Note_on_c, 0, 43, 29
1, 383040, Note_on_c, 0, 50, 29
1, 383040, Note_on_c, 0, 55, 35
1, 383506, Note_on_c, 0, 55, 0
1, 383506, Note_on_c, 0, 71, 0
1, 383506, Note_on_c, 0, 59, 0
1, 383506, Note_on_c, 0, 62, 0
1, 383506, Note_on_c, 0, 50, 0
1, 383506, Note_on_c, 0, 43, 0
1, 383520, Tempo, 413793
1, 383520, Note_on_c, 0, 71, 51
1, 383520, Note_on_c, 0, 59, 43
1, 383520, Note_on_c, 0, 67, 43
1, 383520, Note_on_c, 0, 43, 33
1, 383520, Note_on_c, 0, 50, 33
1, 383520, Note_on_c, 0, 55, 40
1, 383535, Control_c, 0, 64, 0
1, 383748, Control_c, 0, 64, 127
1, 383986, Note_on_c, 0, 55, 0
1, 383986, Note_on_c, 0, 59, 0
1, 383986, Note_on_c, 0, 67, 0
1, 383986, Note_on_c, 0, 71, 0
1, 383986, Note_on_c, 0, 50, 0
1, 383986, Note_on_c, 0, 43, 0
1, 384000, Tempo, 430108
1, 384000, Note_on_c, 0, 60, 50
1, 384000, Note_on_c, 0, 72, 60
1, 384000, Note_on_c, 0, 67, 50
1, 384000, Note_on_c, 0, 45, 39
1, 384000, Note_on_c, 0, 50, 39
1, 384000, Note_on_c, 0, 57, 47
1, 384014, Control_c, 0, 64, 0
1, 384228, Control_c, 0, 64, 127
1, 384466, Note_on_c, 0, 57, 0
1, 384466, Note_on_c, 0, 72, 0
1, 384466, Note_on_c, 0, 67, 0
1, 384466, Note_on_c, 0, 60, 0
1, 384466, Note_on_c, 0, 50, 0
1, 384466, Note_on_c, 0, 45, 0
1, 384480, Tempo, 415225
1, 384480, Note_on_c, 0, 67, 55
1, 384480, Note_on_c, 0, 74, 66
1, 384480, Note_on_c, 0, 62, 55
1, 384480, Note_on_c, 0, 50, 43
1, 384480, Note_on_c, 0, 47, 43
1, 384480, Note_on_c, 0, 59, 52
1, 384534, Control_c, 0, 64, 0
1, 384854, Control_c, 0, 64, 127
1, 385430, Note_on_c, 0, 47, 0
1, 385430, Note_on_c, 0, 50, 0
1, 385430, Note_on_c, 0, 62, 0
1, 385430, Note_on_c, 0, 67, 0
1, 385431, Note_on_c, 0, 74, 0
1, 385431, Note_on_c, 0, 59, 0
1, 385440, Note_on_c, 0, 62, 44
1, 385440, Note_on_c, 0, 74, 52
1, 385440, Note_on_c, 0, 67, 44
1, 385440, Note_on_c, 0, 50, 34
1, 385440, Note_on_c, 0, 47, 34
1, 385440, Note_on_c, 0, 59, 42
1, 385896, Note_on_c, 0, 59, 0
1, 385896, Note_on_c, 0, 74, 0
1, 385896, Note_on_c, 0, 67, 0
1, 385896, Note_on_c, 0, 62, 0
1, 385896, Note_on_c, 0, 47, 0
1, 385896, Note_on_c, 0, 50, 0
1, 385920, Tempo, 396040
1, 385920, Note_on_c, 0, 62, 44
1, 385920, Note_on_c, 0, 74, 52
1, 385920, Note_on_c, 0, 67, 44
1, 385920, Note_on_c, 0, 50, 34
1, 385920, Note_on_c, 0, 47, 34
1, 385920, Note_on_c, 0, 59, 42
1, 386376, Note_on_c, 0, 59, 0
1, 386376, Note_on_c, 0, 74, 0
1, 386376, Note_on_c, 0, 67, 0
1, 386376, Note_on_c, 0, 62, 0
1, 386376, Note_on_c, 0, 47, 0
1, 386376, Note_on_c, 0, 50, 0
1, 386400, Tempo, 404040
1, 386400, Note_on_c, 0, 60, 42
1, 386400, Note_on_c, 0, 72, 50
1, 386400, Note_on_c, 0, 67, 42
1, 386400, Note_on_c, 0, 50, 33
1, 386400, Note_on_c, 0, 45, 33
1, 386400, Note_on_c, 0, 57, 39
1, 386856, Note_on_c, 0, 57, 0
1, 386856, Note_on_c, 0, 72, 0
1, 386856, Note_on_c, 0, 67, 0
1, 386856, Note_on_c, 0, 60, 0
1, 386856, Note_on_c, 0, 45, 0
1, 386856, Note_on_c, 0, 50, 0
1, 386880, Tempo, 413793
1, 386880, Note_on_c, 0, 59, 42
1, 386880, Note_on_c, 0, 71, 50
1, 386880, Note_on_c, 0, 67, 42
1, 386880, Note_on_c, 0, 43, 33
1, 386880, Note_on_c, 0, 50, 33
1, 386880, Note_on_c, 0, 55, 39
1, 386886, Control_c, 0, 64, 0
1, 387133, Control_c, 0, 64, 127
1, 387336, Note_on_c, 0, 55, 0
1, 387336, Note_on_c, 0, 71, 0
1, 387336, Note_on_c, 0, 67, 0
1, 387336, Note_on_c, 0, 59, 0
1, 387336, Note_on_c, 0, 50, 0
1, 387336, Note_on_c, 0, 43, 0
1, 387360, Note_on_c, 0, 62, 45
1, 387360, Note_on_c, 0, 74, 54
1, 387360, Note_on_c, 0, 67, 45
1, 387360, Note_on_c, 0, 47, 28
1, 387360, Note_on_c, 0, 55, 28
1, 387360, Note_on_c, 0, 59, 42
1, 387376, Control_c, 0, 64, 0
1, 387627, Control_c, 0, 64, 127
1, 387816, Note_on_c, 0, 59, 0
1, 387816, Note_on_c, 0, 74, 0
1, 387816, Note_on_c, 0, 67, 0
1, 387816, Note_on_c, 0, 62, 0
1, 387816, Note_on_c, 0, 55, 0
1, 387816, Note_on_c, 0, 47, 0
1, 387840, Tempo, 397351
1, 387840, Note_on_c, 0, 67, 53
1, 387840, Note_on_c, 0, 79, 63
1, 387840, Note_on_c, 0, 71, 53
1, 387840, Note_on_c, 0, 50, 36
1, 387840, Note_on_c, 0, 59, 36
1, 387840, Note_on_c, 0, 62, 50
1, 388306, Note_on_c, 0, 62, 0
1, 388306, Note_on_c, 0, 79, 0
1, 388306, Note_on_c, 0, 71, 0
1, 388306, Note_on_c, 0, 67, 0
1, 388306, Note_on_c, 0, 59, 0
1, 388306, Note_on_c, 0, 50, 0
1, 388320, Tempo, 408163
1, 388320, Note_on_c, 0, 71, 56
1, 388320, Note_on_c, 0, 74, 56
1, 388320, Note_on_c, 0, 83, 66
1, 388320, Note_on_c, 0, 62, 36
1, 388320, Note_on_c, 0, 55, 36
1, 388320, Note_on_c, 0, 67, 52
1, 388776, Note_on_c, 0, 67, 0
1, 388776, Note_on_c, 0, 74, 0
1, 388776, Note_on_c, 0, 83, 0
1, 388776, Note_on_c, 0, 71, 0
1, 388776, Note_on_c, 0, 55, 0
1, 388776, Note_on_c, 0, 62, 0
1, 388800, Tempo, 404040
1, 388800, Note_on_c, 0, 71, 56
1, 388800, Note_on_c, 0, 74, 56
1, 388800, Note_on_c, 0, 83, 66
1, 388800, Note_on_c, 0, 55, 51
1, 388800, Note_on_c, 0, 62, 51
1, 388800, Note_on_c, 0, 67, 60
1, 389256, Note_on_c, 0, 67, 0
1, 389256, Note_on_c, 0, 74, 0
1, 389256, Note_on_c, 0, 83, 0
1, 389256, Note_on_c, 0, 71, 0
1, 389256, Note_on_c, 0, 62, 0
1, 389256, Note_on_c, 0, 55, 0
1, 389280, Tempo, 413793
1, 389280, Note_on_c, 0, 74, 58
1, 389280, Note_on_c, 0, 83, 69
1, 389280, Note_on_c, 0, 71, 58
1, 389280, Note_on_c, 0, 55, 52
1, 389280, Note_on_c, 0, 62, 52
1, 389280, Note_on_c, 0, 67, 62
1, 389736, Note_on_c, 0, 67, 0
1, 389736, Note_on_c, 0, 83, 0
1, 389736, Note_on_c, 0, 71, 0
1, 389736, Note_on_c, 0, 74, 0
1, 389736, Note_on_c, 0, 62, 0
1, 389736, Note_on_c, 0, 55, 0
1, 389760, Tempo, 456274
1, 389760, Note_on_c, 0, 74, 61
1, 389760, Note_on_c, 0, 83, 72
1, 389760, Note_on_c, 0, 71, 61
1, 389760, Note_on_c, 0, 55, 54
1, 389760, Note_on_c, 0, 62, 54
1, 389760, Note_on_c, 0, 67, 64
1, 390216, Note_on_c, 0, 67, 0
1, 390216, Note_on_c, 0, 83, 0
1, 390216, Note_on_c, 0, 71, 0
1, 390216, Note_on_c, 0, 74, 0
1, 390216, Note_on_c, 0, 62, 0
1, 390216, Note_on_c, 0, 55, 0
1, 390240, Tempo, 419580
1, 390240, Note_on_c, 0, 75, 63
1, 390240, Note_on_c, 0, 83, 75
1, 390240, Note_on_c, 0, 71, 63
1, 390240, Note_on_c, 0, 54, 56
1, 390240, Note_on_c, 0, 63, 56
1, 390240, Note_on_c, 0, 66, 66
1, 390246, Control_c, 0, 64, 0
1, 390492, Control_c, 0, 64, 127
1, 390696, Note_on_c, 0, 66, 0
1, 390696, Note_on_c, 0, 83, 0
1, 390696, Note_on_c, 0, 71, 0
1, 390696, Note_on_c, 0, 75, 0
1, 390696, Note_on_c, 0, 63, 0
1, 390696, Note_on_c, 0, 54, 0
1, 390720, Tempo, 439560
1, 390720, Note_on_c, 0, 71, 56
1, 390720, Note_on_c, 0, 83, 66
1, 390720, Note_on_c, 0, 75, 56
1, 390720, Note_on_c, 0, 54, 47
1, 390720, Note_on_c, 0, 63, 47
1, 390720, Note_on_c, 0, 66, 56
1, 391176, Note_on_c, 0, 66, 0
1, 391176, Note_on_c, 0, 83, 0
1, 391176, Note_on_c, 0, 75, 0
1, 391176, Note_on_c, 0, 71, 0
1, 391176, Note_on_c, 0, 63, 0
1, 391176, Note_on_c, 0, 54, 0
1, 391200, Note_on_c, 0, 71, 52
1, 391200, Note_on_c, 0, 83, 61
1, 391200, Note_on_c, 0, 75, 52
1, 391200, Note_on_c, 0, 54, 44
1, 391200, Note_on_c, 0, 63, 44
1, 391200, Note_on_c, 0, 66, 52
1, 391656, Note_on_c, 0, 66, 0
1, 391656, Note_on_c, 0, 83, 0
1, 391656, Note_on_c, 0, 75, 0
1, 391656, Note_on_c, 0, 71, 0
1, 391656, Note_on_c, 0, 63, 0
1, 391656, Note_on_c, 0, 54, 0
1, 391680, Tempo, 415225
1, 391680, Note_on_c, 0, 75, 44
1, 391680, Note_on_c, 0, 83, 52
1, 391680, Note_on_c, 0, 71, 44
1, 391680, Note_on_c, 0, 54, 37
1, 391680, Note_on_c, 0, 63, 37
1, 391680, Note_on_c, 0, 66, 44
1, 392136, Note_on_c, 0, 66, 0
1, 392136, Note_on_c, 0, 83, 0
1, 392136, Note_on_c, 0, 71, 0
1, 392136, Note_on_c, 0, 75, 0
1, 392136, Note_on_c, 0, 63, 0
1, 392136, Note_on_c, 0, 54, 0
1, 392160, Tempo, 430108
1, 392160, Note_on_c, 0, 75, 40
1, 392160, Note_on_c, 0, 83, 48
1, 392160, Note_on_c, 0, 71, 40
1, 392160, Note_on_c, 0, 54, 33
1, 392160, Note_on_c, 0, 63, 33
1, 392160, Note_on_c, 0, 66, 40
1, 392616, Note_on_c, 0, 66, 0
1, 392616, Note_on_c, 0, 83, 0
1, 392616, Note_on_c, 0, 71, 0
1, 392616, Note_on_c, 0, 75, 0
1, 392616, Note_on_c, 0, 63, 0
1, 392616, Note_on_c, 0, 54, 0
1, 392640, Tempo, 463320
1, 392640, Note_on_c, 0, 75, 36
1, 392640, Note_on_c, 0, 83, 43
1, 392640, Note_on_c, 0, 71, 36
1, 392640, Note_on_c, 0, 54, 29
1, 392640, Note_on_c, 0, 63, 29
1, 392640, Note_on_c, 0, 66, 36
1, 393096, Note_on_c, 0, 66, 0
1, 393096, Note_on_c, 0, 83, 0
1, 393096, Note_on_c, 0, 71, 0
1, 393096, Note_on_c, 0, 75, 0
1, 393096, Note_on_c, 0, 63, 0
1, 393096, Note_on_c, 0, 54, 0
1, 393120, Tempo, 451128
1, 393120, Note_on_c, 0, 71, 32
1, 393120, Note_on_c, 0, 83, 39
1, 393120, Note_on_c, 0, 74, 32
1, 393120, Note_on_c, 0, 55, 28
1, 393120, Note_on_c, 0, 62, 28
1, 393120, Note_on_c, 0, 67, 33
1, 393135, Control_c, 0, 64, 0
1, 393348, Control_c, 0, 64, 127
1, 393586, Note_on_c, 0, 67, 0
1, 393586, Note_on_c, 0, 83, 0
1, 393586, Note_on_c, 0, 74, 0
1, 393586, Note_on_c, 0, 71, 0
1, 393586, Note_on_c, 0, 62, 0
1, 393586, Note_on_c, 0, 55, 0
1, 393600, Tempo, 485830
1, 393600, Note_on_c, 0, 72, 31
1, 393600, Note_on_c, 0, 84, 36
1, 393600, Note_on_c, 0, 74, 31
1, 393600, Note_on_c, 0, 57, 25
1, 393600, Note_on_c, 0, 62, 25
1, 393600, Note_on_c, 0, 69, 30
1, 393613, Control_c, 0, 64, 0
1, 393802, Control_c, 0, 64, 127
1, 394066, Note_on_c, 0, 69, 0
1, 394066, Note_on_c, 0, 84, 0
1, 394066, Note_on_c, 0, 74, 0
1, 394066, Note_on_c, 0, 72, 0
1, 394066, Note_on_c, 0, 62, 0
1, 394066, Note_on_c, 0, 57, 0
1, 394080, Tempo, 745342
1, 394080, Note_on_c, 0, 74, 32
1, 394080, Note_on_c, 0, 86, 38
1, 394080, Note_on_c, 0, 59, 25
1, 394080, Note_on_c, 0, 62, 25
1, 394080, Note_on_c, 0, 71, 30
1, 394096, Control_c, 0, 64, 0
1, 394358, Control_c, 0, 64, 127
1, 394546, Note_on_c, 0, 71, 0
1, 394546, Note_on_c, 0, 59, 0
1, 394546, Note_on_c, 0, 74, 0
1, 394546, Note_on_c, 0, 86, 0
1, 394546, Note_on_c, 0, 62, 0
1, 394560, Tempo, 398671
1, 394560, Note_on_c, 0, 71, 36
1, 394560, Note_on_c, 0, 79, 43
1, 394560, Note_on_c, 0, 67, 36
1, 394560, Note_on_c, 0, 52, 29
1, 394560, Note_on_c, 0, 64, 35
1, 394560, Control_c, 0, 64, 0
1, 394743, Control_c, 0, 64, 127
1, 395026, Note_on_c, 0, 64, 0
1, 395026, Note_on_c, 0, 67, 0
1, 395026, Note_on_c, 0, 71, 0
1, 395026, Note_on_c, 0, 79, 0
1, 395026, Note_on_c, 0, 52, 0
1, 395040, Tempo, 402685
1, 395040, Note_on_c, 0, 74, 30
1, 395040, Note_on_c, 0, 78, 30
1, 395040, Note_on_c, 0, 81, 36
1, 395040, Note_on_c, 0, 69, 30
1, 395040, Note_on_c, 0, 50, 25
1, 395040, Note_on_c, 0, 62, 30
1, 395053, Control_c, 0, 64, 0
1, 395223, Control_c, 0, 64, 127
1, 395506, Note_on_c, 0, 62, 0
1, 395506, Note_on_c, 0, 78, 0
1, 395506, Note_on_c, 0, 81, 0
1, 395506, Note_on_c, 0, 74, 0
1, 395506, Note_on_c, 0, 50, 0
1, 395506, Note_on_c, 0, 69, 0
1, 395520, Tempo, 428571
1, 395520, Note_on_c, 0, 74, 30
1, 395520, Note_on_c, 0, 79, 30
1, 395520, Note_on_c, 0, 71, 30
1, 395520, Note_on_c, 0, 83, 36
1, 395520, Note_on_c, 0, 50, 25
1, 395520, Note_on_c, 0, 47, 25
1, 395520, Note_on_c, 0, 59, 30
1, 395534, Control_c, 0, 64, 0
1, 395726, Control_c, 0, 64, 127
1, 395976, Note_on_c, 0, 50, 0
1, 395986, Note_on_c, 0, 47, 0
1, 395986, Note_on_c, 0, 79, 0
1, 395986, Note_on_c, 0, 71, 0
1, 395986, Note_on_c, 0, 74, 0
1, 395986, Note_on_c, 0, 59, 0
1, 395986, Note_on_c, 0, 83, 0
1, 396000, Tempo, 408163
1, 396000, Note_on_c, 0, 72, 34
1, 396000, Note_on_c, 0, 74, 34
1, 396000, Note_on_c, 0, 78, 34
1, 396000, Note_on_c, 0, 81, 41
1, 396000, Note_on_c, 0, 50, 31
1, 396000, Note_on_c, 0, 62, 37
1, 396008, Control_c, 0, 64, 0
1, 396294, Control_c, 0, 64, 127
1, 396951, Note_on_c, 0, 62, 0
1, 396951, Note_on_c, 0, 74, 0
1, 396951, Note_on_c, 0, 78, 0
1, 396951, Note_on_c, 0, 72, 0
1, 396951, Note_on_c, 0, 50, 0
1, 396951, Note_on_c, 0, 81, 0
1, 396960, Tempo, 456274
1, 396960, Note_on_c, 0, 71, 32
1, 396960, Note_on_c, 0, 74, 32
1, 396960, Note_on_c, 0, 79, 38
1, 396960, Note_on_c, 0, 55, 26
1, 396960, Note_on_c, 0, 62, 31
1, 396970, Control_c, 0, 64, 0
1, 397147, Control_c, 0, 64, 127
1, 397426, Note_on_c, 0, 62, 0
1, 397426, Note_on_c, 0, 79, 0
1, 397426, Note_on_c, 0, 71, 0
1, 397426, Note_on_c, 0, 74, 0
1, 397426, Note_on_c, 0, 55, 0
1, 397440, Tempo, 524017
1, 397440, Note_on_c, 0, 71, 36
1, 397440, Note_on_c, 0, 74, 36
1, 397440, Note_on_c, 0, 79, 43
1, 397440, Note_on_c, 0, 55, 30
1, 397440, Note_on_c, 0, 62, 36
1, 397906, Note_on_c, 0, 62, 0
1, 397906, Note_on_c, 0, 79, 0
1, 397906, Note_on_c, 0, 71, 0
1, 397906, Note_on_c, 0, 74, 0
1, 397906, Note_on_c, 0, 55, 0
1, 397920, Tempo, 421053
1, 397920, Marker_t, "Trio Teil2 Wiederholung"
1, 397920, Note_on_c, 0, 74, 44
1, 397920, Note_on_c, 0, 50, 35
1, 397920, Note_on_c, 0, 62, 35
1, 397920, Control_c, 0, 64, 0
1, 398160, Control_c, 0, 64, 127
1, 398376, Note_on_c, 0, 62, 0
1, 398376, Note_on_c, 0, 50, 0
1, 398376, Note_on_c, 0, 74, 0
1, 398400, Tempo, 442804
1, 398400, Note_on_c, 0, 74, 46
1, 398400, Note_on_c, 0, 50, 36
1, 398400, Note_on_c, 0, 62, 36
1, 398856, Note_on_c, 0, 62, 0
1, 398856, Note_on_c, 0, 50, 0
1, 398856, Note_on_c, 0, 74, 0
1, 398880, Tempo, 410959
1, 398880, Note_on_c, 0, 67, 46
1, 398880, Note_on_c, 0, 64, 46
1, 398880, Note_on_c, 0, 72, 46
1, 398880, Note_on_c, 0, 76, 55
1, 398880, Note_on_c, 0, 48, 36
1, 398880, Note_on_c, 0, 55, 36
1, 398880, Note_on_c, 0, 60, 44
1, 398884, Control_c, 0, 64, 0
1, 399254, Control_c, 0, 64, 127
1, 399830, Note_on_c, 0, 64, 0
1, 399830, Note_on_c, 0, 67, 0
1, 399831, Note_on_c, 0, 72, 0
1, 399831, Note_on_c, 0, 48, 0
1, 399831, Note_on_c, 0, 76, 0
1, 399831, Note_on_c, 0, 60, 0
1, 399831, Note_on_c, 0, 55, 0
1, 399840, Tempo, 398671
1, 399840, Note_on_c, 0, 67, 37
1, 399840, Note_on_c, 0, 64, 37
1, 399840, Note_on_c, 0, 72, 37
1, 399840, Note_on_c, 0, 76, 44
1, 399840, Note_on_c, 0, 48, 29
1, 399840, Note_on_c, 0, 55, 29
1, 399840, Note_on_c, 0, 60, 35
1, 400296, Note_on_c, 0, 60, 0
1, 400296, Note_on_c, 0, 48, 0
1, 400296, Note_on_c, 0, 64, 0
1, 400296, Note_on_c, 0, 72, 0
1, 400296, Note_on_c, 0, 67, 0
1, 400296, Note_on_c, 0, 55, 0
1, 400296, Note_on_c, 0, 76, 0
1, 400320, Tempo, 383387
1, 400320, Note_on_c, 0, 64, 37
1, 400320, Note_on_c, 0, 67, 37
1, 400320, Note_on_c, 0, 72, 37
1, 400320, Note_on_c, 0, 76, 44
1, 400320, Note_on_c, 0, 48, 29
1, 400320, Note_on_c, 0, 55, 29
1, 400320, Note_on_c, 0, 60, 35
1, 400776, Note_on_c, 0, 60, 0
1, 400776, Note_on_c, 0, 48, 0
1, 400776, Note_on_c, 0, 67, 0
1, 400776, Note_on_c, 0, 72, 0
1, 400776, Note_on_c, 0, 64, 0
1, 400776, Note_on_c, 0, 55, 0
1, 400776, Note_on_c, 0, 76, 0
1, 400800, Tempo, 376176
1, 400800, Note_on_c, 0, 72, 35
1, 400800, Note_on_c, 0, 64, 35
1, 400800, Note_on_c, 0, 67, 35
1, 400800, Note_on_c, 0, 76, 42
1, 400800, Note_on_c, 0, 48, 28
1, 400800, Note_on_c, 0, 55, 28
1, 400800, Note_on_c, 0, 60, 33
1, 401256, Note_on_c, 0, 60, 0
1, 401256, Note_on_c, 0, 48, 0
1, 401256, Note_on_c, 0, 64, 0
1, 401256, Note_on_c, 0, 67, 0
1, 401256, Note_on_c, 0, 72, 0
1, 401256, Note_on_c, 0, 55, 0
1, 401256, Note_on_c, 0, 76, 0
1, 401280, Tempo, 387097
1, 401280, Note_on_c, 0, 64, 35
1, 401280, Note_on_c, 0, 67, 35
1, 401280, Note_on_c, 0, 72, 35
1, 401280, Note_on_c, 0, 76, 42
1, 401280, Note_on_c, 0, 48, 28
1, 401280, Note_on_c, 0, 55, 28
1, 401280, Note_on_c, 0, 60, 33
1, 401736, Note_on_c, 0, 60, 0
1, 401736, Note_on_c, 0, 48, 0
1, 401736, Note_on_c, 0, 67, 0
1, 401736, Note_on_c, 0, 72, 0
1, 401736, Note_on_c, 0, 64, 0
1, 401736, Note_on_c, 0, 55, 0
1, 401736, Note_on_c, 0, 76, 0
1, 401760, Note_on_c, 0, 64, 37
1, 401760, Note_on_c, 0, 67, 37
1, 401760, Note_on_c, 0, 76, 44
1, 401760, Note_on_c, 0, 48, 29
1, 401760, Note_on_c, 0, 55, 29
1, 401760, Note_on_c, 0, 60, 35
1, 402216, Note_on_c, 0, 60, 0
1, 402216, Note_on_c, 0, 67, 0
1, 402216, Note_on_c, 0, 76, 0
1, 402216, Note_on_c, 0, 64, 0
1, 402216, Note_on_c, 0, 55, 0
1, 402216, Note_on_c, 0, 48, 0
1, 402240, Tempo, 372671
1, 402240, Note_on_c, 0, 62, 40
1, 402240, Note_on_c, 0, 67, 40
1, 402240, Note_on_c, 0, 74, 48
1, 402240, Note_on_c, 0, 43, 32
1, 402240, Note_on_c, 0, 55, 38
1, 402250, Control_c, 0, 64, 0
1, 402543, Control_c, 0, 64, 127
1, 402705, Note_on_c, 0, 55, 0
1, 402705, Note_on_c, 0, 43, 0
1, 402706, Note_on_c, 0, 62, 0
1, 402706, Note_on_c, 0, 67, 0
1, 402706, Note_on_c, 0, 74, 0
1, 402720, Tempo, 388350
1, 402720, Note_on_c, 0, 60, 37
1, 402720, Note_on_c, 0, 67, 37
1, 402720, Note_on_c, 0, 72, 44
1, 402720, Note_on_c, 0, 43, 29
1, 402720, Note_on_c, 0, 40, 29
1, 402720, Note_on_c, 0, 52, 35
1, 402733, Control_c, 0, 64, 0
1, 402840, Tempo, 385852
1, 402922, Control_c, 0, 64, 127
1, 403176, Note_on_c, 0, 52, 0
1, 403176, Note_on_c, 0, 67, 0
1, 403176, Note_on_c, 0, 72, 0
1, 403176, Note_on_c, 0, 60, 0
1, 403176, Note_on_c, 0, 40, 0
1, 403176, Note_on_c, 0, 43, 0
1, 403200, Tempo, 377358
1, 403200, Note_on_c, 0, 60, 37
1, 403200, Note_on_c, 0, 67, 37
1, 403200, Note_on_c, 0, 72, 44
1, 403200, Note_on_c, 0, 40, 29
1, 403200, Note_on_c, 0, 43, 29
1, 403200, Note_on_c, 0, 52, 35
1, 403656, Note_on_c, 0, 52, 0
1, 403656, Note_on_c, 0, 67, 0
1, 403656, Note_on_c, 0, 72, 0
1, 403656, Note_on_c, 0, 60, 0
1, 403656, Note_on_c, 0, 43, 0
1, 403656, Note_on_c, 0, 40, 0
1, 403680, Tempo, 380952
1, 403680, Note_on_c, 0, 62, 40
1, 403680, Note_on_c, 0, 67, 40
1, 403680, Note_on_c, 0, 74, 48
1, 403680, Note_on_c, 0, 43, 32
1, 403680, Note_on_c, 0, 55, 38
1, 404136, Note_on_c, 0, 55, 0
1, 404136, Note_on_c, 0, 74, 0
1, 404136, Note_on_c, 0, 62, 0
1, 404136, Note_on_c, 0, 67, 0
1, 404136, Note_on_c, 0, 43, 0
1, 404160, Tempo, 385852
1, 404160, Note_on_c, 0, 64, 46
1, 404160, Note_on_c, 0, 67, 46
1, 404160, Note_on_c, 0, 76, 54
1, 404160, Note_on_c, 0, 48, 36
1, 404160, Note_on_c, 0, 55, 36
1, 404160, Note_on_c, 0, 60, 42
1, 404280, Tempo, 385852
1, 404616, Note_on_c, 0, 60, 0
1, 404616, Note_on_c, 0, 67, 0
1, 404616, Note_on_c, 0, 76, 0
1, 404616, Note_on_c, 0, 64, 0
1, 404616, Note_on_c, 0, 55, 0
1, 404616, Note_on_c, 0, 48, 0
1, 404640, Tempo, 394737
1, 404640, Note_on_c, 0, 67, 56
1, 404640, Note_on_c, 0, 70, 56
1, 404640, Note_on_c, 0, 79, 67
1, 404640, Note_on_c, 0, 51, 44
1, 404640, Note_on_c, 0, 58, 44
1, 404640, Note_on_c, 0, 63, 53
1, 404644, Control_c, 0, 64, 0
1, 404760, Tempo, 393443
1, 405014, Control_c, 0, 64, 127
1, 405590, Note_on_c, 0, 63, 0
1, 405590, Note_on_c, 0, 51, 0
1, 405590, Note_on_c, 0, 70, 0
1, 405590, Note_on_c, 0, 67, 0
1, 405590, Note_on_c, 0, 58, 0
1, 405591, Note_on_c, 0, 79, 0
1, 405600, Tempo, 392157
1, 405600, Note_on_c, 0, 67, 50
1, 405600, Note_on_c, 0, 70, 50
1, 405600, Note_on_c, 0, 79, 60
1, 405600, Note_on_c, 0, 51, 39
1, 405600, Note_on_c, 0, 58, 39
1, 405600, Note_on_c, 0, 63, 47
1, 406056, Note_on_c, 0, 63, 0
1, 406056, Note_on_c, 0, 70, 0
1, 406056, Note_on_c, 0, 79, 0
1, 406056, Note_on_c, 0, 67, 0
1, 406056, Note_on_c, 0, 58, 0
1, 406056, Note_on_c, 0, 51, 0
1, 406080, Tempo, 376176
1, 406080, Note_on_c, 0, 67, 50
1, 406080, Note_on_c, 0, 70, 50
1, 406080, Note_on_c, 0, 79, 60
1, 406080, Note_on_c, 0, 51, 39
1, 406080, Note_on_c, 0, 58, 39
1, 406080, Note_on_c, 0, 63, 47
1, 406536, Note_on_c, 0, 63, 0
1, 406536, Note_on_c, 0, 70, 0
1, 406536, Note_on_c, 0, 79, 0
1, 406536, Note_on_c, 0, 67, 0
1, 406536, Note_on_c, 0, 58, 0
1, 406536, Note_on_c, 0, 51, 0
1, 406560, Tempo, 368098
1, 406560, Note_on_c, 0, 67, 47
1, 406560, Note_on_c, 0, 79, 57
1, 406560, Note_on_c, 0, 70, 47
1, 406560, Note_on_c, 0, 51, 38
1, 406560, Note_on_c, 0, 58, 38
1, 406560, Note_on_c, 0, 63, 45
1, 407016, Note_on_c, 0, 63, 0
1, 407016, Note_on_c, 0, 79, 0
1, 407016, Note_on_c, 0, 70, 0
1, 407016, Note_on_c, 0, 67, 0
1, 407016, Note_on_c, 0, 58, 0
1, 407016, Note_on_c, 0, 51, 0
1, 407040, Tempo, 385852
1, 407040, Note_on_c, 0, 70, 47
1, 407040, Note_on_c, 0, 79, 57
1, 407040, Note_on_c, 0, 67, 47
1, 407040, Note_on_c, 0, 51, 38
1, 407040, Note_on_c, 0, 58, 38
1, 407040, Note_on_c, 0, 63, 45
1, 407160, Tempo, 383387
1, 407496, Note_on_c, 0, 63, 0
1, 407496, Note_on_c, 0, 79, 0
1, 407496, Note_on_c, 0, 67, 0
1, 407496, Note_on_c, 0, 70, 0
1, 407496, Note_on_c, 0, 58, 0
1, 407496, Note_on_c, 0, 51, 0
1, 407520, Tempo, 378549
1, 407520, Note_on_c, 0, 70, 50
1, 407520, Note_on_c, 0, 79, 60
1, 407520, Note_on_c, 0, 67, 50
1, 407520, Note_on_c, 0, 51, 39
1, 407520, Note_on_c, 0, 58, 39
1, 407520, Note_on_c, 0, 63, 47
1, 407976, Note_on_c, 0, 63, 0
1, 407976, Note_on_c, 0, 79, 0
1, 407976, Note_on_c, 0, 67, 0
1, 407976, Note_on_c, 0, 70, 0
1, 407976, Note_on_c, 0, 58, 0
1, 407976, Note_on_c, 0, 51, 0
1, 408000, Tempo, 379747
1, 408000, Note_on_c, 0, 70, 55
1, 408000, Note_on_c, 0, 77, 66
1, 408000, Note_on_c, 0, 65, 55
1, 408000, Note_on_c, 0, 46, 44
1, 408000, Note_on_c, 0, 58, 51
1, 408010, Control_c, 0, 64, 0
1, 408303, Control_c, 0, 64, 127
1, 408465, Note_on_c, 0, 58, 0
1, 408465, Note_on_c, 0, 65, 0
1, 408465, Note_on_c, 0, 70, 0
1, 408465, Note_on_c, 0, 77, 0
1, 408465, Note_on_c, 0, 46, 0
1, 408480, Tempo, 390879
1, 408480, Note_on_c, 0, 63, 50
1, 408480, Note_on_c, 0, 75, 60
1, 408480, Note_on_c, 0, 70, 50
1, 408480, Note_on_c, 0, 43, 39
1, 408480, Note_on_c, 0, 46, 39
1, 408480, Note_on_c, 0, 55, 47
1, 408493, Control_c, 0, 64, 0
1, 408682, Control_c, 0, 64, 127
1, 408936, Note_on_c, 0, 55, 0
1, 408936, Note_on_c, 0, 75, 0
1, 408936, Note_on_c, 0, 70, 0
1, 408936, Note_on_c, 0, 63, 0
1, 408936, Note_on_c, 0, 46, 0
1, 408936, Note_on_c, 0, 43, 0
1, 408960, Tempo, 376176
1, 408960, Note_on_c, 0, 63, 50
1, 408960, Note_on_c, 0, 75, 60
1, 408960, Note_on_c, 0, 70, 50
1, 408960, Note_on_c, 0, 43, 39
1, 408960, Note_on_c, 0, 46, 39
1, 408960, Note_on_c, 0, 55, 47
1, 409416, Note_on_c, 0, 55, 0
1, 409416, Note_on_c, 0, 75, 0
1, 409416, Note_on_c, 0, 70, 0
1, 409416, Note_on_c, 0, 63, 0
1, 409416, Note_on_c, 0, 46, 0
1, 409416, Note_on_c, 0, 43, 0
1, 409440, Tempo, 371517
1, 409440, Note_on_c, 0, 65, 55
1, 409440, Note_on_c, 0, 70, 55
1, 409440, Note_on_c, 0, 77, 66
1, 409440, Note_on_c, 0, 46, 42
1, 409440, Note_on_c, 0, 58, 52
1, 409896, Note_on_c, 0, 58, 0
1, 409896, Note_on_c, 0, 77, 0
1, 409896, Note_on_c, 0, 65, 0
1, 409896, Note_on_c, 0, 70, 0
1, 409896, Note_on_c, 0, 46, 0
1, 409920, Tempo, 394737
1, 409920, Note_on_c, 0, 67, 59
1, 409920, Note_on_c, 0, 70, 59
1, 409920, Note_on_c, 0, 79, 71
1, 409920, Note_on_c, 0, 51, 46
1, 409920, Note_on_c, 0, 58, 46
1, 409920, Note_on_c, 0, 63, 57
1, 410376, Note_on_c, 0, 63, 0
1, 410376, Note_on_c, 0, 70, 0
1, 410376, Note_on_c, 0, 79, 0
1, 410376, Note_on_c, 0, 67, 0
1, 410376, Note_on_c, 0, 58, 0
1, 410376, Note_on_c, 0, 51, 0
1, 410400, Tempo, 385852
1, 410400, Note_on_c, 0, 70, 63
1, 410400, Note_on_c, 0, 82, 76
1, 410400, Note_on_c, 0, 73, 63
1, 410400, Note_on_c, 0, 42, 50
1, 410400, Note_on_c, 0, 49, 50
1, 410400, Note_on_c, 0, 54, 61
1, 410404, Control_c, 0, 64, 0
1, 410774, Control_c, 0, 64, 127
1, 411350, Note_on_c, 0, 54, 0
1, 411350, Note_on_c, 0, 82, 0
1, 411350, Note_on_c, 0, 73, 0
1, 411350, Note_on_c, 0, 70, 0
1, 411350, Note_on_c, 0, 49, 0
1, 411350, Note_on_c, 0, 42, 0
1, 411360, Tempo, 384615
1, 411360, Note_on_c, 0, 70, 57
1, 411360, Note_on_c, 0, 82, 68
1, 411360, Note_on_c, 0, 73, 57
1, 411360, Note_on_c, 0, 42, 45
1, 411360, Note_on_c, 0, 49, 45
1, 411360, Note_on_c, 0, 54, 53
1, 411816, Note_on_c, 0, 54, 0
1, 411816, Note_on_c, 0, 82, 0
1, 411816, Note_on_c, 0, 73, 0
1, 411816, Note_on_c, 0, 70, 0
1, 411816, Note_on_c, 0, 49, 0
1, 411816, Note_on_c, 0, 42, 0
1, 411840, Tempo, 382166
1, 411840, Note_on_c, 0, 70, 57
1, 411840, Note_on_c, 0, 82, 68
1, 411840, Note_on_c, 0, 73, 57
1, 411840, Note_on_c, 0, 42, 45
1, 411840, Note_on_c, 0, 49, 45
1, 411840, Note_on_c, 0, 54, 53
1, 412296, Note_on_c, 0, 54, 0
1, 412296, Note_on_c, 0, 82, 0
1, 412296, Note_on_c, 0, 73, 0
1, 412296, Note_on_c, 0, 70, 0
1, 412296, Note_on_c, 0, 49, 0
1, 412296, Note_on_c, 0, 42, 0
1, 412320, Tempo, 372671
1, 412320, Note_on_c, 0, 70, 53
1, 412320, Note_on_c, 0, 73, 53
1, 412320, Note_on_c, 0, 82, 65
1, 412320, Note_on_c, 0, 42, 43
1, 412320, Note_on_c, 0, 49, 43
1, 412320, Note_on_c, 0, 54, 51
1, 412776, Note_on_c, 0, 54, 0
1, 412776, Note_on_c, 0, 73, 0
1, 412776, Note_on_c, 0, 82, 0
1, 412776, Note_on_c, 0, 70, 0
1, 412776, Note_on_c, 0, 49, 0
1, 412776, Note_on_c, 0, 42, 0
1, 412800, Tempo, 388350
1, 412800, Note_on_c, 0, 73, 53
1, 412800, Note_on_c, 0, 70, 53
1, 412800, Note_on_c, 0, 82, 65
1, 412800, Note_on_c, 0, 42, 43
1, 412800, Note_on_c, 0, 49, 43
1, 412800, Note_on_c, 0, 54, 51
1, 412920, Tempo, 385852
1, 413256, Note_on_c, 0, 54, 0
1, 413256, Note_on_c, 0, 70, 0
1, 413256, Note_on_c, 0, 82, 0
1, 413256, Note_on_c, 0, 73, 0
1, 413256, Note_on_c, 0, 49, 0
1, 413256, Note_on_c, 0, 42, 0
1, 413280, Note_on_c, 0, 70, 57
1, 413280, Note_on_c, 0, 82, 68
1, 413280, Note_on_c, 0, 73, 57
1, 413280, Note_on_c, 0, 42, 45
1, 413280, Note_on_c, 0, 49, 45
1, 413280, Note_on_c, 0, 54, 53
1, 413736, Note_on_c, 0, 54, 0
1, 413736, Note_on_c, 0, 82, 0
1, 413736, Note_on_c, 0, 73, 0
1, 413736, Note_on_c, 0, 70, 0
1, 413736, Note_on_c, 0, 49, 0
1, 413736, Note_on_c, 0, 42, 0
1, 413760, Tempo, 373832
1, 413760, Note_on_c, 0, 73, 56
1, 413760, Note_on_c, 0, 80, 67
1, 413760, Note_on_c, 0, 68, 56
1, 413760, Note_on_c, 0, 37, 45
1, 413760, Note_on_c, 0, 49, 53
1, 414225, Note_on_c, 0, 49, 0
1, 414225, Note_on_c, 0, 68, 0
1, 414225, Note_on_c, 0, 73, 0
1, 414225, Note_on_c, 0, 80, 0
1, 414225, Note_on_c, 0, 37, 0
1, 414240, Tempo, 385852
1, 414240, Note_on_c, 0, 73, 57
1, 414240, Note_on_c, 0, 78, 68
1, 414240, Note_on_c, 0, 66, 57
1, 414240, Note_on_c, 0, 34, 45
1, 414240, Note_on_c, 0, 46, 53
1, 414253, Control_c, 0, 64, 0
1, 414515, Control_c, 0, 64, 127
1, 414696, Note_on_c, 0, 46, 0
1, 414696, Note_on_c, 0, 66, 0
1, 414696, Note_on_c, 0, 73, 0
1, 414696, Note_on_c, 0, 78, 0
1, 414696, Note_on_c, 0, 34, 0
1, 414720, Tempo, 377358
1, 414720, Note_on_c, 0, 70, 57
1, 414720, Note_on_c, 0, 82, 68
1, 414720, Note_on_c, 0, 78, 57
1, 414720, Note_on_c, 0, 42, 45
1, 414720, Note_on_c, 0, 54, 53
1, 415176, Note_on_c, 0, 54, 0
1, 415176, Note_on_c, 0, 78, 0
1, 415176, Note_on_c, 0, 70, 0
1, 415176, Note_on_c, 0, 82, 0
1, 415176, Note_on_c, 0, 42, 0
1, 415200, Tempo, 371517
1, 415200, Note_on_c, 0, 71, 65
1, 415200, Note_on_c, 0, 83, 78
1, 415200, Note_on_c, 0, 78, 65
1, 415200, Note_on_c, 0, 54, 50
1, 415200, Note_on_c, 0, 44, 50
1, 415200, Note_on_c, 0, 56, 63
1, 415320, Tempo, 371517
1, 415656, Note_on_c, 0, 56, 0
1, 415656, Note_on_c, 0, 83, 0
1, 415656, Note_on_c, 0, 71, 0
1, 415656, Note_on_c, 0, 78, 0
1, 415656, Note_on_c, 0, 44, 0
1, 415680, Tempo, 397351
1, 415680, Note_on_c, 0, 54, 0
1, 415680, Note_on_c, 0, 73, 73
1, 415680, Note_on_c, 0, 78, 73
1, 415680, Note_on_c, 0, 85, 89
1, 415680, Note_on_c, 0, 46, 57
1, 415680, Note_on_c, 0, 54, 57
1, 415680, Note_on_c, 0, 58, 71
1, 416136, Note_on_c, 0, 58, 0
1, 416136, Note_on_c, 0, 78, 0
1, 416136, Note_on_c, 0, 85, 0
1, 416136, Note_on_c, 0, 73, 0
1, 416136, Note_on_c, 0, 54, 0
1, 416136, Note_on_c, 0, 46, 0
1, 416160, Tempo, 389610
1, 416160, Note_on_c, 0, 78, 82
1, 416160, Note_on_c, 0, 74, 82
1, 416160, Note_on_c, 0, 86, 100
1, 416160, Note_on_c, 0, 47, 65
1, 416160, Note_on_c, 0, 54, 65
1, 416160, Note_on_c, 0, 59, 80
1, 416164, Control_c, 0, 64, 0
1, 416280, Tempo, 385852
1, 416534, Control_c, 0, 64, 127
1, 417110, Note_on_c, 0, 59, 0
1, 417110, Note_on_c, 0, 74, 0
1, 417110, Note_on_c, 0, 86, 0
1, 417110, Note_on_c, 0, 78, 0
1, 417110, Note_on_c, 0, 54, 0
1, 417110, Note_on_c, 0, 47, 0
1, 417120, Tempo, 392157
1, 417120, Note_on_c, 0, 78, 74
1, 417120, Note_on_c, 0, 74, 74
1, 417120, Note_on_c, 0, 86, 89
1, 417120, Note_on_c, 0, 47, 58
1, 417120, Note_on_c, 0, 54, 58
1, 417120, Note_on_c, 0, 59, 69
1, 417576, Note_on_c, 0, 59, 0
1, 417576, Note_on_c, 0, 74, 0
1, 417576, Note_on_c, 0, 86, 0
1, 417576, Note_on_c, 0, 78, 0
1, 417576, Note_on_c, 0, 54, 0
1, 417576, Note_on_c, 0, 47, 0
1, 417600, Tempo, 378549
1, 417600, Note_on_c, 0, 74, 74
1, 417600, Note_on_c, 0, 86, 89
1, 417600, Note_on_c, 0, 78, 74
1, 417600, Note_on_c, 0, 47, 58
1, 417600, Note_on_c, 0, 54, 58
1, 417600, Note_on_c, 0, 59, 69
1, 418056, Note_on_c, 0, 59, 0
1, 418056, Note_on_c, 0, 86, 0
1, 418056, Note_on_c, 0, 78, 0
1, 418056, Note_on_c, 0, 74, 0
1, 418056, Note_on_c, 0, 54, 0
1, 418056, Note_on_c, 0, 47, 0
1, 418080, Tempo, 372671
1, 418080, Note_on_c, 0, 78, 69
1, 418080, Note_on_c, 0, 86, 85
1, 418080, Note_on_c, 0, 74, 69
1, 418080, Note_on_c, 0, 47, 56
1, 418080, Note_on_c, 0, 54, 56
1, 418080, Note_on_c, 0, 59, 66
1, 418536, Note_on_c, 0, 59, 0
1, 418536, Note_on_c, 0, 86, 0
1, 418536, Note_on_c, 0, 74, 0
1, 418536, Note_on_c, 0, 78, 0
1, 418536, Note_on_c, 0, 54, 0
1, 418536, Note_on_c, 0, 47, 0
1, 418560, Tempo, 393443
1, 418560, Note_on_c, 0, 86, 85
1, 418560, Note_on_c, 0, 78, 69
1, 418560, Note_on_c, 0, 74, 69
1, 418560, Note_on_c, 0, 47, 56
1, 418560, Note_on_c, 0, 54, 56
1, 418560, Note_on_c, 0, 59, 66
1, 419016, Note_on_c, 0, 59, 0
1, 419016, Note_on_c, 0, 78, 0
1, 419016, Note_on_c, 0, 74, 0
1, 419016, Note_on_c, 0, 86, 0
1, 419016, Note_on_c, 0, 54, 0
1, 419016, Note_on_c, 0, 47, 0
1, 419040, Tempo, 401338
1, 419040, Note_on_c, 0, 77, 82
1, 419040, Note_on_c, 0, 86, 82
1, 419040, Note_on_c, 0, 83, 82
1, 419040, Note_on_c, 0, 79, 82
1, 419040, Note_on_c, 0, 91, 100
1, 419040, Note_on_c, 0, 31, 65
1, 419040, Note_on_c, 0, 43, 80
1, 419044, Control_c, 0, 64, 0
1, 419414, Control_c, 0, 64, 127
1, 419990, Note_on_c, 0, 43, 0
1, 419990, Note_on_c, 0, 91, 0
1, 419990, Note_on_c, 0, 86, 0
1, 419990, Note_on_c, 0, 83, 0
1, 419990, Note_on_c, 0, 77, 0
1, 419990, Note_on_c, 0, 31, 0
1, 419990, Note_on_c, 0, 79, 0
1, 420000, Tempo, 410959
1, 420000, Note_on_c, 0, 79, 74
1, 420000, Note_on_c, 0, 86, 74
1, 420000, Note_on_c, 0, 77, 74
1, 420000, Note_on_c, 0, 91, 89
1, 420000, Note_on_c, 0, 83, 74
1, 420000, Note_on_c, 0, 31, 58
1, 420000, Note_on_c, 0, 43, 69
1, 420120, Tempo, 412371
1, 420456, Note_on_c, 0, 43, 0
1, 420456, Note_on_c, 0, 83, 0
1, 420456, Note_on_c, 0, 86, 0
1, 420456, Note_on_c, 0, 77, 0
1, 420456, Note_on_c, 0, 79, 0
1, 420456, Note_on_c, 0, 31, 0
1, 420456, Note_on_c, 0, 91, 0
1, 420480, Tempo, 415225
1, 420480, Note_on_c, 0, 77, 74
1, 420480, Note_on_c, 0, 91, 89
1, 420480, Note_on_c, 0, 83, 74
1, 420480, Note_on_c, 0, 79, 74
1, 420480, Note_on_c, 0, 86, 74
1, 420480, Note_on_c, 0, 35, 58
1, 420480, Note_on_c, 0, 47, 69
1, 420840, Tempo, 413793
1, 420936, Note_on_c, 0, 47, 0
1, 420936, Note_on_c, 0, 86, 0
1, 420936, Note_on_c, 0, 91, 0
1, 420936, Note_on_c, 0, 83, 0
1, 420936, Note_on_c, 0, 77, 0
1, 420936, Note_on_c, 0, 35, 0
1, 420936, Note_on_c, 0, 79, 0
1, 420960, Tempo, 421053
1, 420960, Note_on_c, 0, 77, 64
1, 420960, Note_on_c, 0, 83, 64
1, 420960, Note_on_c, 0, 86, 64
1, 420960, Note_on_c, 0, 79, 64
1, 420960, Note_on_c, 0, 91, 79
1, 420960, Note_on_c, 0, 38, 52
1, 420960, Note_on_c, 0, 50, 62
1, 421416, Note_on_c, 0, 50, 0
1, 421416, Note_on_c, 0, 91, 0
1, 421416, Note_on_c, 0, 83, 0
1, 421416, Note_on_c, 0, 86, 0
1, 421416, Note_on_c, 0, 77, 0
1, 421416, Note_on_c, 0, 38, 0
1, 421416, Note_on_c, 0, 79, 0
1, 421440, Tempo, 439560
1, 421440, Note_on_c, 0, 79, 60
1, 421440, Note_on_c, 0, 86, 60
1, 421440, Note_on_c, 0, 77, 60
1, 421440, Note_on_c, 0, 91, 73
1, 421440, Note_on_c, 0, 83, 60
1, 421440, Note_on_c, 0, 43, 48
1, 421440, Note_on_c, 0, 55, 57
1, 421896, Note_on_c, 0, 55, 0
1, 421896, Note_on_c, 0, 83, 0
1, 421896, Note_on_c, 0, 86, 0
1, 421896, Note_on_c, 0, 77, 0
1, 421896, Note_on_c, 0, 79, 0
1, 421896, Note_on_c, 0, 43, 0
1, 421896, Note_on_c, 0, 91, 0
1, 421920, Tempo, 433213
1, 421920, Note_on_c, 0, 76, 58
1, 421920, Note_on_c, 0, 88, 69
1, 421920, Note_on_c, 0, 79, 58
1, 421920, Note_on_c, 0, 84, 58
1, 421920, Note_on_c, 0, 36, 46
1, 421920, Note_on_c, 0, 48, 55
1, 421935, Control_c, 0, 64, 0
1, 422507, Control_c, 0, 64, 127
1, 422851, Note_on_c, 0, 48, 0
1, 422851, Note_on_c, 0, 88, 0
1, 422851, Note_on_c, 0, 79, 0
1, 422851, Note_on_c, 0, 76, 0
1, 422851, Note_on_c, 0, 36, 0
1, 422851, Note_on_c, 0, 84, 0
1, 422880, Tempo, 413793
1, 422880, Note_on_c, 0, 64, 32
1, 422880, Note_on_c, 0, 76, 38
1, 422880, Note_on_c, 0, 72, 32
1, 422880, Note_on_c, 0, 36, 27
1, 422880, Note_on_c, 0, 48, 32
1, 423336, Note_on_c, 0, 48, 0
1, 423336, Note_on_c, 0, 72, 0
1, 423336, Note_on_c, 0, 64, 0
1, 423336, Note_on_c, 0, 76, 0
1, 423336, Note_on_c, 0, 36, 0
1, 423360, Tempo, 388350
1, 423360, Note_on_c, 0, 64, 36
1, 423360, Note_on_c, 0, 76, 43
1, 423360, Note_on_c, 0, 72, 36
1, 423360, Note_on_c, 0, 36, 23
1, 423360, Note_on_c, 0, 48, 33
1, 423816, Note_on_c, 0, 48, 0
1, 423816, Note_on_c, 0, 72, 0
1, 423816, Note_on_c, 0, 64, 0
1, 423816, Note_on_c, 0, 76, 0
1, 423816, Note_on_c, 0, 36, 0
1, 423840, Tempo, 379747
1, 423840, Note_on_c, 0, 72, 32
1, 423840, Note_on_c, 0, 64, 32
1, 423840, Note_on_c, 0, 76, 38
1, 423840, Note_on_c, 0, 36, 23
1, 423840, Note_on_c, 0, 48, 28
1, 424296, Note_on_c, 0, 48, 0
1, 424296, Note_on_c, 0, 76, 0
1, 424296, Note_on_c, 0, 72, 0
1, 424296, Note_on_c, 0, 64, 0
1, 424296, Note_on_c, 0, 36, 0
1, 424320, Tempo, 413793
1, 424320, Note_on_c, 0, 64, 32
1, 424320, Note_on_c, 0, 72, 32
1, 424320, Note_on_c, 0, 76, 38
1, 424320, Note_on_c, 0, 36, 23
1, 424320, Note_on_c, 0, 48, 28
1, 424776, Note_on_c, 0, 48, 0
1, 424776, Note_on_c, 0, 76, 0
1, 424776, Note_on_c, 0, 64, 0
1, 424776, Note_on_c, 0, 72, 0
1, 424776, Note_on_c, 0, 36, 0
1, 424800, Tempo, 393108
1, 424800, Note_on_c, 0, 76, 43
1, 424800, Note_on_c, 0, 72, 36
1, 424800, Note_on_c, 0, 64, 36
1, 424800, Note_on_c, 0, 36, 30
1, 424800, Note_on_c, 0, 48, 36
1, 424807, Control_c, 0, 64, 0
1, 425120, Control_c, 0, 64, 127
1, 425731, Note_on_c, 0, 48, 0
1, 425731, Note_on_c, 0, 72, 0
1, 425731, Note_on_c, 0, 76, 0
1, 425731, Note_on_c, 0, 36, 0
1, 425760, Tempo, 406421
1, 425760, Note_on_c, 0, 71, 32
1, 425760, Note_on_c, 0, 74, 38
1, 425760, Note_on_c, 0, 36, 23
1, 425760, Note_on_c, 0, 48, 28
1, 426216, Note_on_c, 0, 48, 0
1, 426216, Note_on_c, 0, 74, 0
1, 426216, Note_on_c, 0, 36, 0
1, 426216, Note_on_c, 0, 71, 0
1, 426240, Tempo, 395700
1, 426240, Note_on_c, 0, 64, 0
1, 426240, Note_on_c, 0, 74, 44
1, 426240, Note_on_c, 0, 71, 37
1, 426240, Note_on_c, 0, 64, 37
1, 426240, Note_on_c, 0, 36, 29
1, 426240, Note_on_c, 0, 48, 35
1, 426247, Control_c, 0, 64, 0
1, 426480, Control_c, 0, 64, 127
1, 427171, Note_on_c, 0, 48, 0
1, 427171, Note_on_c, 0, 71, 0
1, 427171, Note_on_c, 0, 74, 0
1, 427171, Note_on_c, 0, 36, 0
1, 427200, Tempo, 410593
1, 427200, Note_on_c, 0, 69, 31
1, 427200, Note_on_c, 0, 72, 36
1, 427200, Note_on_c, 0, 36, 21
1, 427200, Note_on_c, 0, 48, 26
1, 427656, Note_on_c, 0, 48, 0
1, 427656, Note_on_c, 0, 72, 0
1, 427656, Note_on_c, 0, 36, 0
1, 427656, Note_on_c, 0, 69, 0
1, 427680, Tempo, 395700
1, 427680, Note_on_c, 0, 64, 0
1, 427680, Note_on_c, 0, 64, 35
1, 427680, Note_on_c, 0, 69, 35
1, 427680, Note_on_c, 0, 72, 41
1, 427680, Note_on_c, 0, 36, 28
1, 427680, Note_on_c, 0, 48, 34
1, 427691, Control_c, 0, 64, 0
1, 428027, Control_c, 0, 64, 127
1, 428611, Note_on_c, 0, 48, 0
1, 428611, Note_on_c, 0, 72, 0
1, 428611, Note_on_c, 0, 64, 0
1, 428611, Note_on_c, 0, 69, 0
1, 428611, Note_on_c, 0, 36, 0
1, 428640, Tempo, 413422
1, 428640, Note_on_c, 0, 67, 27
1, 428640, Note_on_c, 0, 71, 32
1, 428640, Note_on_c, 0, 36, 21
1, 428640, Note_on_c, 0, 48, 26
1, 429096, Note_on_c, 0, 48, 0
1, 429096, Note_on_c, 0, 67, 0
1, 429096, Note_on_c, 0, 71, 0
1, 429096, Note_on_c, 0, 36, 0
1, 429120, Tempo, 393108
1, 429120, Note_on_c, 0, 67, 32
1, 429120, Note_on_c, 0, 71, 38
1, 429120, Note_on_c, 0, 36, 25
1, 429120, Note_on_c, 0, 48, 30
1, 429131, Control_c, 0, 64, 0
1, 429467, Control_c, 0, 64, 127
1, 430051, Note_on_c, 0, 48, 0
1, 430051, Note_on_c, 0, 67, 0
1, 430051, Note_on_c, 0, 71, 0
1, 430051, Note_on_c, 0, 36, 0
1, 430080, Tempo, 416291
1, 430080, Note_on_c, 0, 62, 26
1, 430080, Note_on_c, 0, 66, 26
1, 430080, Note_on_c, 0, 69, 30
1, 430080, Note_on_c, 0, 36, 22
1, 430080, Note_on_c, 0, 48, 26
1, 430536, Note_on_c, 0, 48, 0
1, 430536, Note_on_c, 0, 69, 0
1, 430536, Note_on_c, 0, 62, 0
1, 430536, Note_on_c, 0, 66, 0
1, 430536, Note_on_c, 0, 36, 0
1, 430560, Tempo, 393108
1, 430560, Note_on_c, 0, 66, 29
1, 430560, Note_on_c, 0, 62, 29
1, 430560, Note_on_c, 0, 69, 35
1, 430560, Note_on_c, 0, 36, 23
1, 430560, Note_on_c, 0, 48, 28
1, 430566, Control_c, 0, 64, 0
1, 430960, Control_c, 0, 64, 127
1, 431491, Note_on_c, 0, 48, 0
1, 431491, Note_on_c, 0, 69, 0
1, 431491, Note_on_c, 0, 66, 0
1, 431491, Note_on_c, 0, 62, 0
1, 431491, Note_on_c, 0, 36, 0
1, 431520, Tempo, 400989
1, 431520, Note_on_c, 0, 62, 25
1, 431520, Note_on_c, 0, 66, 25
1, 431520, Note_on_c, 0, 69, 29
1, 431520, Note_on_c, 0, 36, 21
1, 431520, Note_on_c, 0, 48, 25
1, 431976, Note_on_c, 0, 48, 0
1, 431976, Note_on_c, 0, 69, 0
1, 431976, Note_on_c, 0, 62, 0
1, 431976, Note_on_c, 0, 66, 0
1, 431976, Note_on_c, 0, 36, 0
1, 432000, Tempo, 383387
1, 432000, Note_on_c, 0, 62, 27
1, 432000, Note_on_c, 0, 66, 27
1, 432000, Note_on_c, 0, 69, 31
1, 432000, Note_on_c, 0, 36, 23
1, 432000, Note_on_c, 0, 48, 27
1, 432456, Note_on_c, 0, 48, 0
1, 432456, Note_on_c, 0, 69, 0
1, 432456, Note_on_c, 0, 62, 0
1, 432456, Note_on_c, 0, 66, 0
1, 432456, Note_on_c, 0, 36, 0
1, 432480, Tempo, 379747
1, 432480, Note_on_c, 0, 62, 25
1, 432480, Note_on_c, 0, 66, 25
1, 432480, Note_on_c, 0, 69, 29
1, 432480, Note_on_c, 0, 36, 21
1, 432480, Note_on_c, 0, 48, 25
1, 432936, Note_on_c, 0, 48, 0
1, 432936, Note_on_c, 0, 69, 0
1, 432936, Note_on_c, 0, 62, 0
1, 432936, Note_on_c, 0, 66, 0
1, 432936, Note_on_c, 0, 36, 0
1, 432960, Tempo, 400989
1, 432960, Note_on_c, 0, 62, 25
1, 432960, Note_on_c, 0, 66, 25
1, 432960, Note_on_c, 0, 69, 29
1, 432960, Note_on_c, 0, 36, 21
1, 432960, Note_on_c, 0, 48, 25
1, 433416, Note_on_c, 0, 48, 0
1, 433416, Note_on_c, 0, 69, 0
1, 433416, Note_on_c, 0, 62, 0
1, 433416, Note_on_c, 0, 66, 0
1, 433416, Note_on_c, 0, 36, 0
1, 433440, Tempo, 390549
1, 433440, Note_on_c, 0, 66, 29
1, 433440, Note_on_c, 0, 62, 29
1, 433440, Note_on_c, 0, 69, 35
1, 433440, Note_on_c, 0, 36, 23
1, 433440, Note_on_c, 0, 48, 28
1, 434371, Note_on_c, 0, 48, 0
1, 434371, Note_on_c, 0, 69, 0
1, 434371, Note_on_c, 0, 66, 0
1, 434371, Note_on_c, 0, 62, 0
1, 434371, Note_on_c, 0, 36, 0
1, 434400, Tempo, 403687
1, 434400, Note_on_c, 0, 62, 25
1, 434400, Note_on_c, 0, 66, 25
1, 434400, Note_on_c, 0, 69, 29
1, 434400, Note_on_c, 0, 36, 21
1, 434400, Note_on_c, 0, 48, 25
1, 434856, Note_on_c, 0, 48, 0
1, 434856, Note_on_c, 0, 69, 0
1, 434856, Note_on_c, 0, 62, 0
1, 434856, Note_on_c, 0, 66, 0
1, 434856, Note_on_c, 0, 36, 0
1, 434880, Tempo, 397009
1, 434880, Note_on_c, 0, 62, 27
1, 434880, Note_on_c, 0, 66, 27
1, 434880, Note_on_c, 0, 69, 31
1, 434880, Note_on_c, 0, 36, 23
1, 434880, Note_on_c, 0, 48, 27
1, 435040, Tempo, 397009
1, 435336, Note_on_c, 0, 48, 0
1, 435336, Note_on_c, 0, 69, 0
1, 435336, Note_on_c, 0, 62, 0
1, 435336, Note_on_c, 0, 66, 0
1, 435336, Note_on_c, 0, 36, 0
1, 435360, Tempo, 384615
1, 435360, Note_on_c, 0, 62, 25
1, 435360, Note_on_c, 0, 66, 25
1, 435360, Note_on_c, 0, 69, 29
1, 435360, Note_on_c, 0, 36, 21
1, 435360, Note_on_c, 0, 48, 25
1, 435816, Note_on_c, 0, 48, 0
1, 435816, Note_on_c, 0, 69, 0
1, 435816, Note_on_c, 0, 62, 0
1, 435816, Note_on_c, 0, 66, 0
1, 435816, Note_on_c, 0, 36, 0
1, 435840, Tempo, 415225
1, 435840, Note_on_c, 0, 62, 25
1, 435840, Note_on_c, 0, 66, 25
1, 435840, Note_on_c, 0, 69, 29
1, 435840, Note_on_c, 0, 36, 21
1, 435840, Note_on_c, 0, 48, 25
1, 436296, Note_on_c, 0, 48, 0
1, 436296, Note_on_c, 0, 69, 0
1, 436296, Note_on_c, 0, 62, 0
1, 436296, Note_on_c, 0, 66, 0
1, 436296, Note_on_c, 0, 36, 0
1, 436320, Tempo, 422535
1, 436320, Note_on_c, 0, 63, 29
1, 436320, Note_on_c, 0, 66, 29
1, 436320, Note_on_c, 0, 71, 35
1, 436320, Note_on_c, 0, 35, 23
1, 436320, Note_on_c, 0, 47, 28
1, 436320, Control_c, 0, 64, 0
1, 436800, Control_c, 0, 64, 127
1, 437270, Note_on_c, 0, 63, 0
1, 437271, Note_on_c, 0, 35, 0
1, 437271, Note_on_c, 0, 66, 0
1, 437271, Note_on_c, 0, 71, 0
1, 437271, Note_on_c, 0, 47, 0
1, 437280, Tempo, 413793
1, 437280, Note_on_c, 0, 63, 29
1, 437280, Note_on_c, 0, 66, 29
1, 437280, Note_on_c, 0, 71, 35
1, 437280, Note_on_c, 0, 47, 28
1, 437736, Note_on_c, 0, 47, 0
1, 437736, Note_on_c, 0, 63, 0
1, 437736, Note_on_c, 0, 66, 0
1, 437736, Note_on_c, 0, 71, 0
1, 437760, Tempo, 398671
1, 437760, Note_on_c, 0, 66, 29
1, 437760, Note_on_c, 0, 63, 29
1, 437760, Note_on_c, 0, 71, 35
1, 437760, Note_on_c, 0, 47, 28
1, 438216, Note_on_c, 0, 47, 0
1, 438216, Note_on_c, 0, 66, 0
1, 438216, Note_on_c, 0, 63, 0
1, 438216, Note_on_c, 0, 71, 0
1, 438240, Tempo, 390879
1, 438240, Note_on_c, 0, 63, 28
1, 438240, Note_on_c, 0, 66, 28
1, 438240, Note_on_c, 0, 71, 33
1, 438240, Note_on_c, 0, 47, 26
1, 438696, Note_on_c, 0, 47, 0
1, 438696, Note_on_c, 0, 63, 0
1, 438696, Note_on_c, 0, 66, 0
1, 438696, Note_on_c, 0, 71, 0
1, 438720, Tempo, 413793
1, 438720, Note_on_c, 0, 63, 28
1, 438720, Note_on_c, 0, 66, 28
1, 438720, Note_on_c, 0, 71, 33
1, 438720, Note_on_c, 0, 45, 22
1, 438720, Note_on_c, 0, 47, 26
1, 439176, Note_on_c, 0, 47, 0
1, 439176, Note_on_c, 0, 71, 0
1, 439176, Note_on_c, 0, 63, 0
1, 439176, Note_on_c, 0, 66, 0
1, 439176, Note_on_c, 0, 45, 0
1, 439200, Tempo, 404040
1, 439200, Note_on_c, 0, 62, 33
1, 439200, Note_on_c, 0, 67, 33
1, 439200, Note_on_c, 0, 71, 39
1, 439200, Note_on_c, 0, 43, 26
1, 439200, Note_on_c, 0, 47, 26
1, 439200, Note_on_c, 0, 55, 31
1, 439200, Control_c, 0, 64, 0
1, 439377, Control_c, 0, 64, 127
1, 439656, Note_on_c, 0, 55, 0
1, 439656, Note_on_c, 0, 67, 0
1, 439656, Note_on_c, 0, 71, 0
1, 439656, Note_on_c, 0, 62, 0
1, 439656, Note_on_c, 0, 47, 0
1, 439656, Note_on_c, 0, 43, 0
1, 439680, Tempo, 391824
1, 439680, Note_on_c, 0, 64, 36
1, 439680, Note_on_c, 0, 67, 36
1, 439680, Note_on_c, 0, 76, 43
1, 439680, Note_on_c, 0, 48, 28
1, 439680, Note_on_c, 0, 50, 28
1, 439680, Note_on_c, 0, 60, 34
1, 439690, Control_c, 0, 64, 0
1, 439983, Control_c, 0, 64, 127
1, 440145, Note_on_c, 0, 60, 0
1, 440145, Note_on_c, 0, 48, 0
1, 440146, Note_on_c, 0, 76, 0
1, 440146, Note_on_c, 0, 64, 0
1, 440146, Note_on_c, 0, 67, 0
1, 440146, Note_on_c, 0, 50, 0
1, 440160, Tempo, 408163
1, 440160, Note_on_c, 0, 67, 33
1, 440160, Note_on_c, 0, 62, 33
1, 440160, Note_on_c, 0, 74, 39
1, 440160, Note_on_c, 0, 50, 26
1, 440160, Note_on_c, 0, 47, 26
1, 440160, Note_on_c, 0, 59, 31
1, 440173, Control_c, 0, 64, 0
1, 440362, Control_c, 0, 64, 127
1, 440616, Note_on_c, 0, 59, 0
1, 440616, Note_on_c, 0, 62, 0
1, 440616, Note_on_c, 0, 74, 0
1, 440616, Note_on_c, 0, 67, 0
1, 440616, Note_on_c, 0, 47, 0
1, 440616, Note_on_c, 0, 50, 0
1, 440640, Tempo, 389610
1, 440640, Note_on_c, 0, 67, 33
1, 440640, Note_on_c, 0, 62, 33
1, 440640, Note_on_c, 0, 74, 39
1, 440640, Note_on_c, 0, 47, 26
1, 440640, Note_on_c, 0, 50, 26
1, 440640, Note_on_c, 0, 59, 31
1, 441096, Note_on_c, 0, 59, 0
1, 441096, Note_on_c, 0, 62, 0
1, 441096, Note_on_c, 0, 74, 0
1, 441096, Note_on_c, 0, 67, 0
1, 441096, Note_on_c, 0, 50, 0
1, 441096, Note_on_c, 0, 47, 0
1, 441120, Tempo, 387097
1, 441120, Note_on_c, 0, 74, 36
1, 441120, Note_on_c, 0, 62, 30
1, 441120, Note_on_c, 0, 67, 30
1, 441120, Note_on_c, 0, 47, 24
1, 441120, Note_on_c, 0, 50, 24
1, 441120, Note_on_c, 0, 59, 28
1, 441576, Note_on_c, 0, 59, 0
1, 441576, Note_on_c, 0, 62, 0
1, 441576, Note_on_c, 0, 67, 0
1, 441576, Note_on_c, 0, 74, 0
1, 441576, Note_on_c, 0, 50, 0
1, 441576, Note_on_c, 0, 47, 0
1, 441600, Tempo, 413793
1, 441600, Note_on_c, 0, 74, 36
1, 441600, Note_on_c, 0, 62, 30
1, 441600, Note_on_c, 0, 67, 30
1, 441600, Note_on_c, 0, 47, 24
1, 441600, Note_on_c, 0, 50, 24
1, 441600, Note_on_c, 0, 59, 28
1, 442056, Note_on_c, 0, 59, 0
1, 442056, Note_on_c, 0, 62, 0
1, 442056, Note_on_c, 0, 67, 0
1, 442056, Note_on_c, 0, 74, 0
1, 442056, Note_on_c, 0, 50, 0
1, 442056, Note_on_c, 0, 47, 0
1, 442080, Tempo, 394400
1, 442080, Note_on_c, 0, 74, 39
1, 442080, Note_on_c, 0, 62, 33
1, 442080, Note_on_c, 0, 67, 33
1, 442080, Note_on_c, 0, 47, 26
1, 442080, Note_on_c, 0, 50, 26
1, 442080, Note_on_c, 0, 59, 31
1, 442560, Tempo, 403687
1, 442560, Note_on_c, 0, 59, 0
1, 442560, Note_on_c, 0, 62, 0
1, 442560, Note_on_c, 0, 67, 0
1, 442560, Note_on_c, 0, 74, 0
1, 442560, Note_on_c, 0, 50, 0
1, 442560, Note_on_c, 0, 47, 0
1, 442560, Note_on_c, 0, 57, 29
1, 442560, Note_on_c, 0, 62, 29
1, 442560, Note_on_c, 0, 69, 35
1, 442560, Note_on_c, 0, 42, 23
1, 442560, Note_on_c, 0, 50, 23
1, 442560, Note_on_c, 0, 54, 27
1, 442572, Control_c, 0, 64, 0
1, 442712, Control_c, 0, 64, 127
1, 443026, Note_on_c, 0, 54, 0
1, 443026, Note_on_c, 0, 62, 0
1, 443026, Note_on_c, 0, 69, 0
1, 443026, Note_on_c, 0, 57, 0
1, 443026, Note_on_c, 0, 50, 0
1, 443026, Note_on_c, 0, 42, 0
1, 443040, Tempo, 418118
1, 443040, Note_on_c, 0, 60, 29
1, 443040, Note_on_c, 0, 62, 29
1, 443040, Note_on_c, 0, 72, 35
1, 443040, Note_on_c, 0, 45, 23
1, 443040, Note_on_c, 0, 50, 23
1, 443040, Note_on_c, 0, 57, 27
1, 443050, Control_c, 0, 64, 0
1, 443217, Control_c, 0, 64, 127
1, 443505, Note_on_c, 0, 72, 0
1, 443505, Note_on_c, 0, 60, 0
1, 443506, Note_on_c, 0, 45, 0
1, 443506, Note_on_c, 0, 62, 0
1, 443506, Note_on_c, 0, 57, 0
1, 443506, Note_on_c, 0, 50, 0
1, 443520, Tempo, 394400
1, 443520, Note_on_c, 0, 72, 39
1, 443520, Note_on_c, 0, 60, 33
1, 443520, Note_on_c, 0, 62, 33
1, 443520, Note_on_c, 0, 45, 26
1, 443520, Note_on_c, 0, 50, 26
1, 443520, Note_on_c, 0, 57, 31
1, 443985, Note_on_c, 0, 60, 0
1, 443985, Note_on_c, 0, 72, 0
1, 443986, Note_on_c, 0, 50, 0
1, 443986, Note_on_c, 0, 45, 0
1, 443986, Note_on_c, 0, 57, 0
1, 443986, Note_on_c, 0, 62, 0
1, 444000, Tempo, 403687
1, 444000, Note_on_c, 0, 71, 37
1, 444000, Note_on_c, 0, 59, 31
1, 444000, Note_on_c, 0, 62, 31
1, 444000, Note_on_c, 0, 43, 25
1, 444000, Note_on_c, 0, 50, 25
1, 444000, Note_on_c, 0, 55, 29
1, 444009, Control_c, 0, 64, 0
1, 444253, Control_c, 0, 64, 127
1, 444466, Note_on_c, 0, 55, 0
1, 444466, Note_on_c, 0, 59, 0
1, 444466, Note_on_c, 0, 62, 0
1, 444466, Note_on_c, 0, 71, 0
1, 444466, Note_on_c, 0, 50, 0
1, 444466, Note_on_c, 0, 43, 0
1, 444480, Tempo, 419580
1, 444480, Note_on_c, 0, 69, 37
1, 444480, Note_on_c, 0, 57, 31
1, 444480, Note_on_c, 0, 62, 31
1, 444480, Note_on_c, 0, 42, 25
1, 444480, Note_on_c, 0, 50, 25
1, 444480, Note_on_c, 0, 54, 29
1, 444492, Control_c, 0, 64, 0
1, 444708, Control_c, 0, 64, 127
1, 444946, Note_on_c, 0, 54, 0
1, 444946, Note_on_c, 0, 57, 0
1, 444946, Note_on_c, 0, 62, 0
1, 444946, Note_on_c, 0, 69, 0
1, 444946, Note_on_c, 0, 50, 0
1, 444946, Note_on_c, 0, 42, 0
1, 444960, Tempo, 412371
1, 444960, Note_on_c, 0, 57, 33
1, 444960, Note_on_c, 0, 62, 33
1, 444960, Note_on_c, 0, 69, 39
1, 444960, Note_on_c, 0, 42, 26
1, 444960, Note_on_c, 0, 50, 26
1, 444960, Note_on_c, 0, 54, 31
1, 445426, Note_on_c, 0, 54, 0
1, 445426, Note_on_c, 0, 62, 0
1, 445426, Note_on_c, 0, 69, 0
1, 445426, Note_on_c, 0, 57, 0
1, 445426, Note_on_c, 0, 50, 0
1, 445426, Note_on_c, 0, 42, 0
1, 445440, Tempo, 400000
1, 445440, Note_on_c, 0, 59, 33
1, 445440, Note_on_c, 0, 62, 33
1, 445440, Note_on_c, 0, 71, 39
1, 445440, Note_on_c, 0, 43, 26
1, 445440, Note_on_c, 0, 50, 26
1, 445440, Note_on_c, 0, 55, 31
1, 445443, Control_c, 0, 64, 0
1, 445734, Control_c, 0, 64, 127
1, 445906, Note_on_c, 0, 55, 0
1, 445906, Note_on_c, 0, 62, 0
1, 445906, Note_on_c, 0, 71, 0
1, 445906, Note_on_c, 0, 59, 0
1, 445906, Note_on_c, 0, 50, 0
1, 445906, Note_on_c, 0, 43, 0
1, 445920, Tempo, 425532
1, 445920, Note_on_c, 0, 62, 33
1, 445920, Note_on_c, 0, 59, 33
1, 445920, Note_on_c, 0, 71, 39
1, 445920, Note_on_c, 0, 43, 26
1, 445920, Note_on_c, 0, 50, 26
1, 445920, Note_on_c, 0, 55, 31
1, 446386, Note_on_c, 0, 55, 0
1, 446386, Note_on_c, 0, 59, 0
1, 446386, Note_on_c, 0, 71, 0
1, 446386, Note_on_c, 0, 62, 0
1, 446386, Note_on_c, 0, 50, 0
1, 446386, Note_on_c, 0, 43, 0
1, 446400, Tempo, 392157
1, 446400, Note_on_c, 0, 62, 37
1, 446400, Note_on_c, 0, 59, 37
1, 446400, Note_on_c, 0, 71, 44
1, 446400, Note_on_c, 0, 43, 29
1, 446400, Note_on_c, 0, 50, 29
1, 446400, Note_on_c, 0, 55, 35
1, 446866, Note_on_c, 0, 55, 0
1, 446866, Note_on_c, 0, 59, 0
1, 446866, Note_on_c, 0, 71, 0
1, 446866, Note_on_c, 0, 62, 0
1, 446866, Note_on_c, 0, 50, 0
1, 446866, Note_on_c, 0, 43, 0
1, 446880, Tempo, 413793
1, 446880, Note_on_c, 0, 71, 51
1, 446880, Note_on_c, 0, 59, 43
1, 446880, Note_on_c, 0, 67, 43
1, 446880, Note_on_c, 0, 43, 33
1, 446880, Note_on_c, 0, 50, 33
1, 446880, Note_on_c, 0, 55, 40
1, 446895, Control_c, 0, 64, 0
1, 447108, Control_c, 0, 64, 127
1, 447346, Note_on_c, 0, 55, 0
1, 447346, Note_on_c, 0, 59, 0
1, 447346, Note_on_c, 0, 67, 0
1, 447346, Note_on_c, 0, 71, 0
1, 447346, Note_on_c, 0, 50, 0
1, 447346, Note_on_c, 0, 43, 0
1, 447360, Tempo, 433213
1, 447360, Note_on_c, 0, 72, 60
1, 447360, Note_on_c, 0, 60, 50
1, 447360, Note_on_c, 0, 67, 50
1, 447360, Note_on_c, 0, 45, 39
1, 447360, Note_on_c, 0, 50, 39
1, 447360, Note_on_c, 0, 57, 47
1, 447374, Control_c, 0, 64, 0
1, 447588, Control_c, 0, 64, 127
1, 447826, Note_on_c, 0, 57, 0
1, 447826, Note_on_c, 0, 60, 0
1, 447826, Note_on_c, 0, 67, 0
1, 447826, Note_on_c, 0, 72, 0
1, 447826, Note_on_c, 0, 50, 0
1, 447826, Note_on_c, 0, 45, 0
1, 447840, Tempo, 415225
1, 447840, Note_on_c, 0, 74, 66
1, 447840, Note_on_c, 0, 67, 55
1, 447840, Note_on_c, 0, 62, 55
1, 447840, Note_on_c, 0, 50, 43
1, 447840, Note_on_c, 0, 47, 43
1, 447840, Note_on_c, 0, 59, 52
1, 447894, Control_c, 0, 64, 0
1, 448214, Control_c, 0, 64, 127
1, 448790, Note_on_c, 0, 47, 0
1, 448790, Note_on_c, 0, 50, 0
1, 448790, Note_on_c, 0, 62, 0
1, 448790, Note_on_c, 0, 67, 0
1, 448791, Note_on_c, 0, 74, 0
1, 448791, Note_on_c, 0, 59, 0
1, 448800, Note_on_c, 0, 74, 52
1, 448800, Note_on_c, 0, 67, 44
1, 448800, Note_on_c, 0, 62, 44
1, 448800, Note_on_c, 0, 50, 34
1, 448800, Note_on_c, 0, 47, 34
1, 448800, Note_on_c, 0, 59, 42
1, 449256, Note_on_c, 0, 59, 0
1, 449256, Note_on_c, 0, 67, 0
1, 449256, Note_on_c, 0, 62, 0
1, 449256, Note_on_c, 0, 74, 0
1, 449256, Note_on_c, 0, 47, 0
1, 449256, Note_on_c, 0, 50, 0
1, 449280, Tempo, 396040
1, 449280, Note_on_c, 0, 67, 44
1, 449280, Note_on_c, 0, 62, 44
1, 449280, Note_on_c, 0, 74, 52
1, 449280, Note_on_c, 0, 50, 34
1, 449280, Note_on_c, 0, 47, 34
1, 449280, Note_on_c, 0, 59, 42
1, 449736, Note_on_c, 0, 59, 0
1, 449736, Note_on_c, 0, 62, 0
1, 449736, Note_on_c, 0, 74, 0
1, 449736, Note_on_c, 0, 67, 0
1, 449736, Note_on_c, 0, 47, 0
1, 449736, Note_on_c, 0, 50, 0
1, 449760, Tempo, 404040
1, 449760, Note_on_c, 0, 67, 42
1, 449760, Note_on_c, 0, 60, 42
1, 449760, Note_on_c, 0, 72, 50
1, 449760, Note_on_c, 0, 50, 33
1, 449760, Note_on_c, 0, 45, 33
1, 449760, Note_on_c, 0, 57, 39
1, 450216, Note_on_c, 0, 57, 0
1, 450216, Note_on_c, 0, 60, 0
1, 450216, Note_on_c, 0, 72, 0
1, 450216, Note_on_c, 0, 67, 0
1, 450216, Note_on_c, 0, 45, 0
1, 450216, Note_on_c, 0, 50, 0
1, 450240, Tempo, 413793
1, 450240, Note_on_c, 0, 67, 42
1, 450240, Note_on_c, 0, 59, 42
1, 450240, Note_on_c, 0, 71, 50
1, 450240, Note_on_c, 0, 43, 33
1, 450240, Note_on_c, 0, 50, 33
1, 450240, Note_on_c, 0, 55, 39
1, 450246, Control_c, 0, 64, 0
1, 450493, Control_c, 0, 64, 127
1, 450696, Note_on_c, 0, 55, 0
1, 450696, Note_on_c, 0, 59, 0
1, 450696, Note_on_c, 0, 71, 0
1, 450696, Note_on_c, 0, 67, 0
1, 450696, Note_on_c, 0, 50, 0
1, 450696, Note_on_c, 0, 43, 0
1, 450720, Note_on_c, 0, 62, 45
1, 450720, Note_on_c, 0, 67, 45
1, 450720, Note_on_c, 0, 74, 54
1, 450720, Note_on_c, 0, 47, 28
1, 450720, Note_on_c, 0, 55, 28
1, 450720, Note_on_c, 0, 59, 42
1, 450736, Control_c, 0, 64, 0
1, 450987, Control_c, 0, 64, 127
1, 451176, Note_on_c, 0, 59, 0
1, 451176, Note_on_c, 0, 67, 0
1, 451176, Note_on_c, 0, 74, 0
1, 451176, Note_on_c, 0, 62, 0
1, 451176, Note_on_c, 0, 55, 0
1, 451176, Note_on_c, 0, 47, 0
1, 451200, Tempo, 397351
1, 451200, Note_on_c, 0, 67, 53
1, 451200, Note_on_c, 0, 71, 53
1, 451200, Note_on_c, 0, 79, 63
1, 451200, Note_on_c, 0, 50, 36
1, 451200, Note_on_c, 0, 59, 36
1, 451200, Note_on_c, 0, 62, 50
1, 451666, Note_on_c, 0, 62, 0
1, 451666, Note_on_c, 0, 71, 0
1, 451666, Note_on_c, 0, 79, 0
1, 451666, Note_on_c, 0, 67, 0
1, 451666, Note_on_c, 0, 59, 0
1, 451666, Note_on_c, 0, 50, 0
1, 451680, Tempo, 408163
1, 451680, Note_on_c, 0, 71, 56
1, 451680, Note_on_c, 0, 74, 56
1, 451680, Note_on_c, 0, 83, 66
1, 451680, Note_on_c, 0, 62, 36
1, 451680, Note_on_c, 0, 55, 36
1, 451680, Note_on_c, 0, 67, 52
1, 452136, Note_on_c, 0, 67, 0
1, 452136, Note_on_c, 0, 74, 0
1, 452136, Note_on_c, 0, 83, 0
1, 452136, Note_on_c, 0, 71, 0
1, 452136, Note_on_c, 0, 55, 0
1, 452136, Note_on_c, 0, 62, 0
1, 452160, Tempo, 404040
1, 452160, Note_on_c, 0, 71, 56
1, 452160, Note_on_c, 0, 74, 56
1, 452160, Note_on_c, 0, 83, 66
1, 452160, Note_on_c, 0, 55, 51
1, 452160, Note_on_c, 0, 62, 51
1, 452160, Note_on_c, 0, 67, 60
1, 452616, Note_on_c, 0, 67, 0
1, 452616, Note_on_c, 0, 74, 0
1, 452616, Note_on_c, 0, 83, 0
1, 452616, Note_on_c, 0, 71, 0
1, 452616, Note_on_c, 0, 62, 0
1, 452616, Note_on_c, 0, 55, 0
1, 452640, Tempo, 413793
1, 452640, Note_on_c, 0, 71, 58
1, 452640, Note_on_c, 0, 74, 58
1, 452640, Note_on_c, 0, 83, 69
1, 452640, Note_on_c, 0, 55, 52
1, 452640, Note_on_c, 0, 62, 52
1, 452640, Note_on_c, 0, 67, 62
1, 453096, Note_on_c, 0, 67, 0
1, 453096, Note_on_c, 0, 74, 0
1, 453096, Note_on_c, 0, 83, 0
1, 453096, Note_on_c, 0, 71, 0
1, 453096, Note_on_c, 0, 62, 0
1, 453096, Note_on_c, 0, 55, 0
1, 453120, Tempo, 456274
1, 453120, Note_on_c, 0, 71, 61
1, 453120, Note_on_c, 0, 74, 61
1, 453120, Note_on_c, 0, 83, 72
1, 453120, Note_on_c, 0, 55, 54
1, 453120, Note_on_c, 0, 62, 54
1, 453120, Note_on_c, 0, 67, 64
1, 453576, Note_on_c, 0, 67, 0
1, 453576, Note_on_c, 0, 74, 0
1, 453576, Note_on_c, 0, 83, 0
1, 453576, Note_on_c, 0, 71, 0
1, 453576, Note_on_c, 0, 62, 0
1, 453576, Note_on_c, 0, 55, 0
1, 453600, Tempo, 419580
1, 453600, Note_on_c, 0, 71, 63
1, 453600, Note_on_c, 0, 75, 63
1, 453600, Note_on_c, 0, 83, 75
1, 453600, Note_on_c, 0, 54, 56
1, 453600, Note_on_c, 0, 63, 56
1, 453600, Note_on_c, 0, 66, 66
1, 453606, Control_c, 0, 64, 0
1, 453852, Control_c, 0, 64, 127
1, 454056, Note_on_c, 0, 66, 0
1, 454056, Note_on_c, 0, 75, 0
1, 454056, Note_on_c, 0, 83, 0
1, 454056, Note_on_c, 0, 71, 0
1, 454056, Note_on_c, 0, 63, 0
1, 454056, Note_on_c, 0, 54, 0
1, 454080, Tempo, 439560
1, 454080, Note_on_c, 0, 71, 56
1, 454080, Note_on_c, 0, 75, 56
1, 454080, Note_on_c, 0, 83, 66
1, 454080, Note_on_c, 0, 54, 47
1, 454080, Note_on_c, 0, 63, 47
1, 454080, Note_on_c, 0, 66, 56
1, 454536, Note_on_c, 0, 66, 0
1, 454536, Note_on_c, 0, 75, 0
1, 454536, Note_on_c, 0, 83, 0
1, 454536, Note_on_c, 0, 71, 0
1, 454536, Note_on_c, 0, 63, 0
1, 454536, Note_on_c, 0, 54, 0
1, 454560, Note_on_c, 0, 71, 52
1, 454560, Note_on_c, 0, 75, 52
1, 454560, Note_on_c, 0, 83, 61
1, 454560, Note_on_c, 0, 54, 44
1, 454560, Note_on_c, 0, 63, 44
1, 454560, Note_on_c, 0, 66, 52
1, 455016, Note_on_c, 0, 66, 0
1, 455016, Note_on_c, 0, 75, 0
1, 455016, Note_on_c, 0, 83, 0
1, 455016, Note_on_c, 0, 71, 0
1, 455016, Note_on_c, 0, 63, 0
1, 455016, Note_on_c, 0, 54, 0
1, 455040, Tempo, 415225
1, 455040, Note_on_c, 0, 71, 44
1, 455040, Note_on_c, 0, 75, 44
1, 455040, Note_on_c, 0, 83, 52
1, 455040, Note_on_c, 0, 54, 37
1, 455040, Note_on_c, 0, 63, 37
1, 455040, Note_on_c, 0, 66, 44
1, 455496, Note_on_c, 0, 66, 0
1, 455496, Note_on_c, 0, 75, 0
1, 455496, Note_on_c, 0, 83, 0
1, 455496, Note_on_c, 0, 71, 0
1, 455496, Note_on_c, 0, 63, 0
1, 455496, Note_on_c, 0, 54, 0
1, 455520, Tempo, 430108
1, 455520, Note_on_c, 0, 71, 40
1, 455520, Note_on_c, 0, 75, 40
1, 455520, Note_on_c, 0, 83, 48
1, 455520, Note_on_c, 0, 54, 33
1, 455520, Note_on_c, 0, 63, 33
1, 455520, Note_on_c, 0, 66, 40
1, 455976, Note_on_c, 0, 66, 0
1, 455976, Note_on_c, 0, 75, 0
1, 455976, Note_on_c, 0, 83, 0
1, 455976, Note_on_c, 0, 71, 0
1, 455976, Note_on_c, 0, 63, 0
1, 455976, Note_on_c, 0, 54, 0
1, 456000, Tempo, 463320
1, 456000, Note_on_c, 0, 71, 36
1, 456000, Note_on_c, 0, 75, 36
1, 456000, Note_on_c, 0, 83, 43
1, 456000, Note_on_c, 0, 54, 29
1, 456000, Note_on_c, 0, 63, 29
1, 456000, Note_on_c, 0, 66, 36
1, 456456, Note_on_c, 0, 66, 0
1, 456456, Note_on_c, 0, 75, 0
1, 456456, Note_on_c, 0, 83, 0
1, 456456, Note_on_c, 0, 71, 0
1, 456456, Note_on_c, 0, 63, 0
1, 456456, Note_on_c, 0, 54, 0
1, 456480, Tempo, 451128
1, 456480, Note_on_c, 0, 71, 32
1, 456480, Note_on_c, 0, 74, 32
1, 456480, Note_on_c, 0, 83, 39
1, 456480, Note_on_c, 0, 55, 28
1, 456480, Note_on_c, 0, 62, 28
1, 456480, Note_on_c, 0, 67, 33
1, 456495, Control_c, 0, 64, 0
1, 456708, Control_c, 0, 64, 127
1, 456946, Note_on_c, 0, 67, 0
1, 456946, Note_on_c, 0, 74, 0
1, 456946, Note_on_c, 0, 83, 0
1, 456946, Note_on_c, 0, 71, 0
1, 456946, Note_on_c, 0, 62, 0
1, 456946, Note_on_c, 0, 55, 0
1, 456960, Tempo, 485830
1, 456960, Note_on_c, 0, 72, 31
1, 456960, Note_on_c, 0, 74, 31
1, 456960, Note_on_c, 0, 84, 36
1, 456960, Note_on_c, 0, 57, 25
1, 456960, Note_on_c, 0, 62, 25
1, 456960, Note_on_c, 0, 69, 30
1, 456973, Control_c, 0, 64, 0
1, 457162, Control_c, 0, 64, 127
1, 457426, Note_on_c, 0, 69, 0
1, 457426, Note_on_c, 0, 74, 0
1, 457426, Note_on_c, 0, 84, 0
1, 457426, Note_on_c, 0, 72, 0
1, 457426, Note_on_c, 0, 62, 0
1, 457426, Note_on_c, 0, 57, 0
1, 457440, Tempo, 745342
1, 457440, Note_on_c, 0, 74, 32
1, 457440, Note_on_c, 0, 86, 38
1, 457440, Note_on_c, 0, 59, 25
1, 457440, Note_on_c, 0, 62, 25
1, 457440, Note_on_c, 0, 71, 30
1, 457456, Control_c, 0, 64, 0
1, 457718, Control_c, 0, 64, 127
1, 457906, Note_on_c, 0, 71, 0
1, 457906, Note_on_c, 0, 59, 0
1, 457906, Note_on_c, 0, 74, 0
1, 457906, Note_on_c, 0, 86, 0
1, 457906, Note_on_c, 0, 62, 0
1, 457920, Tempo, 406780
1, 457920, Note_on_c, 0, 67, 36
1, 457920, Note_on_c, 0, 71, 36
1, 457920, Note_on_c, 0, 79, 43
1, 457920, Note_on_c, 0, 52, 29
1, 457920, Note_on_c, 0, 64, 35
1, 457920, Control_c, 0, 64, 0
1, 458103, Control_c, 0, 64, 127
1, 458386, Note_on_c, 0, 64, 0
1, 458386, Note_on_c, 0, 79, 0
1, 458386, Note_on_c, 0, 67, 0
1, 458386, Note_on_c, 0, 71, 0
1, 458386, Note_on_c, 0, 52, 0
1, 458400, Note_on_c, 0, 69, 30
1, 458400, Note_on_c, 0, 74, 30
1, 458400, Note_on_c, 0, 78, 30
1, 458400, Note_on_c, 0, 81, 36
1, 458400, Note_on_c, 0, 50, 25
1, 458400, Note_on_c, 0, 62, 30
1, 458413, Control_c, 0, 64, 0
1, 458583, Control_c, 0, 64, 127
1, 458866, Note_on_c, 0, 62, 0
1, 458866, Note_on_c, 0, 74, 0
1, 458866, Note_on_c, 0, 78, 0
1, 458866, Note_on_c, 0, 69, 0
1, 458866, Note_on_c, 0, 50, 0
1, 458866, Note_on_c, 0, 81, 0
1, 458880, Tempo, 428571
1, 458880, Note_on_c, 0, 74, 30
1, 458880, Note_on_c, 0, 79, 30
1, 458880, Note_on_c, 0, 71, 30
1, 458880, Note_on_c, 0, 83, 36
1, 458880, Note_on_c, 0, 50, 25
1, 458880, Note_on_c, 0, 47, 25
1, 458880, Note_on_c, 0, 59, 30
1, 458894, Control_c, 0, 64, 0
1, 459086, Control_c, 0, 64, 127
1, 459336, Note_on_c, 0, 50, 0
1, 459346, Note_on_c, 0, 47, 0
1, 459346, Note_on_c, 0, 79, 0
1, 459346, Note_on_c, 0, 71, 0
1, 459346, Note_on_c, 0, 74, 0
1, 459346, Note_on_c, 0, 59, 0
1, 459346, Note_on_c, 0, 83, 0
1, 459360, Tempo, 408163
1, 459360, Note_on_c, 0, 74, 34
1, 459360, Note_on_c, 0, 78, 34
1, 459360, Note_on_c, 0, 72, 34
1, 459360, Note_on_c, 0, 81, 41
1, 459360, Note_on_c, 0, 50, 31
1, 459360, Note_on_c, 0, 62, 37
1, 459368, Control_c, 0, 64, 0
1, 459654, Control_c, 0, 64, 127
1, 460311, Note_on_c, 0, 62, 0
1, 460311, Note_on_c, 0, 78, 0
1, 460311, Note_on_c, 0, 72, 0
1, 460311, Note_on_c, 0, 74, 0
1, 460311, Note_on_c, 0, 50, 0
1, 460311, Note_on_c, 0, 81, 0
1, 460320, Tempo, 456274
1, 460320, Note_on_c, 0, 71, 32
1, 460320, Note_on_c, 0, 74, 32
1, 460320, Note_on_c, 0, 79, 38
1, 460320, Note_on_c, 0, 55, 26
1, 460320, Note_on_c, 0, 62, 31
1, 460330, Control_c, 0, 64, 0
1, 460507, Control_c, 0, 64, 127
1, 460786, Note_on_c, 0, 62, 0
1, 460786, Note_on_c, 0, 79, 0
1, 460786, Note_on_c, 0, 71, 0
1, 460786, Note_on_c, 0, 74, 0
1, 460786, Note_on_c, 0, 55, 0
1, 460800, Key_signature, 2, "major"
1, 460800, Tempo, 468750
1, 460800, Note_on_c, 0, 74, 30
1, 460800, Note_on_c, 0, 79, 36
1, 460800, Note_on_c, 0, 71, 30
1, 460800, Note_on_c, 0, 55, 25
1, 460800, Note_on_c, 0, 62, 30
1, 461266, Note_on_c, 0, 62, 0
1, 461266, Note_on_c, 0, 71, 0
1, 461266, Note_on_c, 0, 74, 0
1, 461266, Note_on_c, 0, 79, 0
1, 461266, Note_on_c, 0, 55, 0
1, 461280, Tempo, 397009
1, 461280, Marker_t, "Trio Teil3"
1, 461280, Note_on_c, 0, 74, 21
1, 461280, Note_on_c, 0, 79, 29
1, 461280, Note_on_c, 0, 71, 21
1, 461280, Note_on_c, 0, 43, 25
1, 461736, Note_on_c, 0, 43, 0
1, 461736, Note_on_c, 0, 74, 0
1, 461736, Note_on_c, 0, 79, 0
1, 461736, Note_on_c, 0, 71, 0
1, 461760, Note_on_c, 0, 79, 29
1, 461760, Note_on_c, 0, 71, 21
1, 461760, Note_on_c, 0, 74, 21
1, 461760, Note_on_c, 0, 43, 25
1, 462216, Note_on_c, 0, 43, 0
1, 462216, Note_on_c, 0, 79, 0
1, 462216, Note_on_c, 0, 71, 0
1, 462216, Note_on_c, 0, 74, 0
1, 462240, Tempo, 409556
1, 462240, Note_on_c, 0, 71, 31
1, 462240, Note_on_c, 0, 79, 37
1, 462240, Note_on_c, 0, 74, 31
1, 462240, Note_on_c, 0, 43, 32
1, 462360, Tempo, 412371
1, 463190, Note_on_c, 0, 71, 0
1, 463191, Note_on_c, 0, 79, 0
1, 463191, Note_on_c, 0, 74, 0
1, 463191, Note_on_c, 0, 43, 0
1, 463200, Tempo, 397351
1, 463200, Note_on_c, 0, 67, 27
1, 463200, Note_on_c, 0, 76, 32
1, 463200, Note_on_c, 0, 71, 27
1, 463200, Note_on_c, 0, 43, 25
1, 463211, Control_c, 0, 64, 0
1, 463387, Control_c, 0, 64, 127
1, 463656, Note_on_c, 0, 43, 0
1, 463656, Note_on_c, 0, 67, 0
1, 463656, Note_on_c, 0, 76, 0
1, 463656, Note_on_c, 0, 71, 0
1, 463680, Tempo, 387097
1, 463680, Note_on_c, 0, 76, 36
1, 463680, Note_on_c, 0, 67, 30
1, 463680, Note_on_c, 0, 71, 30
1, 463680, Note_on_c, 0, 43, 33
1, 464136, Note_on_c, 0, 43, 0
1, 464136, Note_on_c, 0, 76, 0
1, 464136, Note_on_c, 0, 67, 0
1, 464136, Note_on_c, 0, 71, 0
1, 464160, Tempo, 356083
1, 464160, Note_on_c, 0, 67, 28
1, 464160, Note_on_c, 0, 73, 33
1, 464160, Note_on_c, 0, 64, 28
1, 464160, Note_on_c, 0, 43, 50
1, 464400, Note_on_c, 0, 43, 0
1, 464400, Note_on_c, 0, 40, 42
1, 464616, Note_on_c, 0, 67, 0
1, 464616, Note_on_c, 0, 64, 0
1, 464616, Note_on_c, 0, 73, 0
1, 464640, Tempo, 365854
1, 464640, Note_on_c, 0, 40, 0
1, 464640, Note_on_c, 0, 71, 33
1, 464640, Note_on_c, 0, 62, 28
1, 464640, Note_on_c, 0, 67, 28
1, 464640, Note_on_c, 0, 42, 47
1, 464651, Control_c, 0, 64, 0
1, 464810, Control_c, 0, 64, 127
1, 464880, Tempo, 384615
1, 464880, Note_on_c, 0, 42, 0
1, 464880, Note_on_c, 0, 43, 52
1, 465096, Note_on_c, 0, 71, 0
1, 465096, Note_on_c, 0, 67, 0
1, 465096, Note_on_c, 0, 62, 0
1, 465120, Tempo, 409556
1, 465120, Note_on_c, 0, 43, 0
1, 465120, Note_on_c, 0, 61, 31
1, 465120, Note_on_c, 0, 71, 37
1, 465120, Note_on_c, 0, 67, 31
1, 465120, Note_on_c, 0, 45, 53
1, 465125, Control_c, 0, 64, 0
1, 465240, Tempo, 412371
1, 465499, Control_c, 0, 64, 127
1, 466070, Note_on_c, 0, 61, 0
1, 466071, Note_on_c, 0, 71, 0
1, 466071, Note_on_c, 0, 67, 0
1, 466071, Note_on_c, 0, 45, 0
1, 466080, Tempo, 397351
1, 466080, Note_on_c, 0, 61, 27
1, 466080, Note_on_c, 0, 69, 32
1, 466080, Note_on_c, 0, 67, 27
1, 466080, Note_on_c, 0, 45, 25
1, 466536, Note_on_c, 0, 45, 0
1, 466536, Note_on_c, 0, 61, 0
1, 466536, Note_on_c, 0, 69, 0
1, 466536, Note_on_c, 0, 67, 0
1, 466560, Tempo, 387097
1, 466560, Note_on_c, 0, 61, 30
1, 466560, Note_on_c, 0, 67, 30
1, 466560, Note_on_c, 0, 69, 36
1, 466560, Note_on_c, 0, 45, 33
1, 467016, Note_on_c, 0, 45, 0
1, 467016, Note_on_c, 0, 61, 0
1, 467016, Note_on_c, 0, 67, 0
1, 467016, Note_on_c, 0, 69, 0
1, 467040, Tempo, 355030
1, 467040, Note_on_c, 0, 62, 28
1, 467040, Note_on_c, 0, 67, 28
1, 467040, Note_on_c, 0, 71, 33
1, 467040, Note_on_c, 0, 43, 54
1, 467054, Control_c, 0, 64, 0
1, 467224, Control_c, 0, 64, 127
1, 467280, Note_on_c, 0, 43, 0
1, 467280, Note_on_c, 0, 40, 43
1, 467496, Note_on_c, 0, 62, 0
1, 467496, Note_on_c, 0, 71, 0
1, 467496, Note_on_c, 0, 67, 0
1, 467520, Tempo, 371517
1, 467520, Note_on_c, 0, 40, 0
1, 467520, Note_on_c, 0, 67, 28
1, 467520, Note_on_c, 0, 71, 33
1, 467520, Note_on_c, 0, 62, 28
1, 467520, Note_on_c, 0, 42, 47
1, 467760, Tempo, 388350
1, 467760, Note_on_c, 0, 42, 0
1, 467760, Note_on_c, 0, 43, 50
1, 467976, Note_on_c, 0, 67, 0
1, 467976, Note_on_c, 0, 62, 0
1, 467976, Note_on_c, 0, 71, 0
1, 468000, Tempo, 409556
1, 468000, Note_on_c, 0, 43, 0
1, 468000, Note_on_c, 0, 67, 31
1, 468000, Note_on_c, 0, 71, 37
1, 468000, Note_on_c, 0, 61, 31
1, 468000, Note_on_c, 0, 45, 52
1, 468005, Control_c, 0, 64, 0
1, 468120, Tempo, 412371
1, 468379, Control_c, 0, 64, 127
1, 468950, Note_on_c, 0, 61, 0
1, 468951, Note_on_c, 0, 67, 0
1, 468951, Note_on_c, 0, 71, 0
1, 468951, Note_on_c, 0, 45, 0
1, 468960, Tempo, 397351
1, 468960, Note_on_c, 0, 69, 31
1, 468960, Note_on_c, 0, 61, 26
1, 468960, Note_on_c, 0, 67, 26
1, 468960, Note_on_c, 0, 45, 24
1, 469416, Note_on_c, 0, 45, 0
1, 469416, Note_on_c, 0, 69, 0
1, 469416, Note_on_c, 0, 61, 0
1, 469416, Note_on_c, 0, 67, 0
1, 469440, Tempo, 394737
1, 469440, Note_on_c, 0, 61, 29
1, 469440, Note_on_c, 0, 69, 34
1, 469440, Note_on_c, 0, 67, 29
1, 469440, Note_on_c, 0, 45, 32
1, 469896, Note_on_c, 0, 45, 0
1, 469896, Note_on_c, 0, 61, 0
1, 469896, Note_on_c, 0, 69, 0
1, 469896, Note_on_c, 0, 67, 0
1, 469920, Tempo, 384615
1, 469920, Note_on_c, 0, 67, 26
1, 469920, Note_on_c, 0, 70, 31
1, 469920, Note_on_c, 0, 62, 26
1, 469920, Note_on_c, 0, 43, 50
1, 469934, Control_c, 0, 64, 0
1, 470104, Control_c, 0, 64, 127
1, 470160, Tempo, 401338
1, 470160, Note_on_c, 0, 43, 0
1, 470160, Note_on_c, 0, 40, 39
1, 470280, Tempo, 404040
1, 470376, Note_on_c, 0, 67, 0
1, 470376, Note_on_c, 0, 62, 0
1, 470376, Note_on_c, 0, 70, 0
1, 470400, Tempo, 409556
1, 470400, Note_on_c, 0, 40, 0
1, 470400, Note_on_c, 0, 70, 31
1, 470400, Note_on_c, 0, 62, 26
1, 470400, Note_on_c, 0, 67, 26
1, 470400, Note_on_c, 0, 42, 45
1, 470640, Tempo, 441176
1, 470640, Note_on_c, 0, 42, 0
1, 470640, Note_on_c, 0, 43, 38
1, 470856, Note_on_c, 0, 70, 0
1, 470856, Note_on_c, 0, 67, 0
1, 470856, Note_on_c, 0, 62, 0
1, 470880, Tempo, 419580
1, 470880, Note_on_c, 0, 43, 0
1, 470880, Note_on_c, 0, 70, 34
1, 470880, Note_on_c, 0, 67, 28
1, 470880, Note_on_c, 0, 61, 28
1, 470880, Note_on_c, 0, 45, 41
1, 470885, Control_c, 0, 64, 0
1, 471000, Tempo, 421053
1, 471259, Control_c, 0, 64, 127
1, 471830, Note_on_c, 0, 61, 0
1, 471830, Note_on_c, 0, 70, 0
1, 471831, Note_on_c, 0, 67, 0
1, 471831, Note_on_c, 0, 45, 0
1, 471840, Tempo, 397351
1, 471840, Note_on_c, 0, 61, 24
1, 471840, Note_on_c, 0, 67, 24
1, 471840, Note_on_c, 0, 69, 28
1, 471840, Note_on_c, 0, 45, 22
1, 472296, Note_on_c, 0, 45, 0
1, 472296, Note_on_c, 0, 61, 0
1, 472296, Note_on_c, 0, 67, 0
1, 472296, Note_on_c, 0, 69, 0
1, 472320, Tempo, 418118
1, 472320, Note_on_c, 0, 61, 27
1, 472320, Note_on_c, 0, 69, 32
1, 472320, Note_on_c, 0, 67, 27
1, 472320, Note_on_c, 0, 45, 28
1, 472325, Control_c, 0, 64, 0
1, 472699, Control_c, 0, 64, 127
1, 473270, Note_on_c, 0, 69, 0
1, 473270, Note_on_c, 0, 61, 0
1, 473271, Note_on_c, 0, 67, 0
1, 473271, Note_on_c, 0, 45, 0
1, 473280, Tempo, 397351
1, 473280, Note_on_c, 0, 67, 23
1, 473280, Note_on_c, 0, 61, 23
1, 473280, Note_on_c, 0, 69, 27
1, 473280, Note_on_c, 0, 45, 21
1, 473736, Note_on_c, 0, 45, 0
1, 473736, Note_on_c, 0, 67, 0
1, 473736, Note_on_c, 0, 61, 0
1, 473736, Note_on_c, 0, 69, 0
1, 473760, Tempo, 413793
1, 473760, Note_on_c, 0, 67, 26
1, 473760, Note_on_c, 0, 61, 26
1, 473760, Note_on_c, 0, 69, 31
1, 473760, Note_on_c, 0, 45, 27
1, 474710, Note_on_c, 0, 69, 0
1, 474710, Note_on_c, 0, 61, 0
1, 474711, Note_on_c, 0, 67, 0
1, 474711, Note_on_c, 0, 45, 0
1, 474720, Tempo, 421053
1, 474720, Note_on_c, 0, 67, 22
1, 474720, Note_on_c, 0, 69, 26
1, 474720, Note_on_c, 0, 61, 22
1, 474720, Note_on_c, 0, 45, 20
1, 475176, Note_on_c, 0, 45, 0
1, 475176, Note_on_c, 0, 67, 0
1, 475176, Note_on_c, 0, 69, 0
1, 475176, Note_on_c, 0, 61, 0
1, 475200, Tempo, 433213
1, 475200, Note_on_c, 0, 69, 29
1, 475200, Note_on_c, 0, 61, 25
1, 475200, Note_on_c, 0, 67, 25
1, 475200, Note_on_c, 0, 45, 25
1, 475546, Control_c, 0, 64, 0
1, 475550, Note_on_c, 0, 45, 0
1, 475550, Note_on_c, 0, 69, 0
1, 475550, Note_on_c, 0, 61, 0
1, 475550, Note_on_c, 0, 67, 0
1, 475560, Tempo, 387097
1, 475560, Marker_t, "Teil 1"
1, 475560, Note_on_c, 0, 61, 70
1, 475560, Note_on_c, 0, 55, 59
1, 475560, Note_on_c, 0, 57, 59
1, 475560, Note_on_c, 0, 33, 51
1, 475560, Note_on_c, 0, 45, 60
1, 475620, Note_on_c, 0, 45, 0
1, 475620, Note_on_c, 0, 57, 0
1, 475620, Note_on_c, 0, 61, 0
1, 475620, Note_on_c, 0, 55, 0
1, 475620, Note_on_c, 0, 33, 0
1, 475680, Note_on_c, 0, 55, 64
1, 475680, Note_on_c, 0, 57, 64
1, 475680, Note_on_c, 0, 61, 76
1, 475680, Note_on_c, 0, 33, 54
1, 475680, Note_on_c, 0, 45, 64
1, 475702, Control_c, 0, 64, 127
1, 476040, Note_on_c, 0, 45, 0
1, 476040, Note_on_c, 0, 61, 0
1, 476040, Note_on_c, 0, 55, 0
1, 476040, Note_on_c, 0, 57, 0
1, 476040, Note_on_c, 0, 33, 0
1, 476040, Note_on_c, 0, 55, 59
1, 476040, Note_on_c, 0, 61, 70
1, 476040, Note_on_c, 0, 57, 59
1, 476040, Note_on_c, 0, 33, 50
1, 476040, Note_on_c, 0, 45, 59
1, 476050, Control_c, 0, 64, 0
1, 476100, Note_on_c, 0, 45, 0
1, 476100, Note_on_c, 0, 57, 0
1, 476100, Note_on_c, 0, 55, 0
1, 476100, Note_on_c, 0, 61, 0
1, 476100, Note_on_c, 0, 33, 0
1, 476160, Note_on_c, 0, 57, 63
1, 476160, Note_on_c, 0, 62, 75
1, 476160, Note_on_c, 0, 55, 63
1, 476160, Note_on_c, 0, 35, 54
1, 476160, Note_on_c, 0, 47, 64
1, 476214, Control_c, 0, 64, 127
1, 476400, Tempo, 412371
1, 476520, Note_on_c, 0, 47, 0
1, 476520, Note_on_c, 0, 55, 0
1, 476520, Note_on_c, 0, 57, 0
1, 476520, Note_on_c, 0, 62, 0
1, 476520, Note_on_c, 0, 35, 0
1, 476520, Note_on_c, 0, 64, 70
1, 476520, Note_on_c, 0, 55, 59
1, 476520, Note_on_c, 0, 57, 59
1, 476520, Note_on_c, 0, 37, 51
1, 476520, Note_on_c, 0, 49, 60
1, 476529, Control_c, 0, 64, 0
1, 476580, Note_on_c, 0, 49, 0
1, 476580, Note_on_c, 0, 57, 0
1, 476580, Note_on_c, 0, 64, 0
1, 476580, Note_on_c, 0, 55, 0
1, 476580, Note_on_c, 0, 37, 0
1, 476640, Tempo, 392157
1, 476640, Note_on_c, 0, 62, 68
1, 476640, Note_on_c, 0, 66, 80
1, 476640, Note_on_c, 0, 54, 68
1, 476640, Note_on_c, 0, 57, 68
1, 476640, Note_on_c, 0, 38, 57
1, 476640, Note_on_c, 0, 45, 57
1, 476640, Note_on_c, 0, 50, 68
1, 476880, Control_c, 0, 64, 127
1, 477571, Note_on_c, 0, 50, 0
1, 477571, Note_on_c, 0, 38, 0
1, 477571, Note_on_c, 0, 66, 0
1, 477571, Note_on_c, 0, 54, 0
1, 477571, Note_on_c, 0, 62, 0
1, 477571, Note_on_c, 0, 45, 0
1, 477571, Note_on_c, 0, 57, 0
1, 477600, Tempo, 387097
1, 477600, Note_on_c, 0, 62, 68
1, 477600, Note_on_c, 0, 54, 68
1, 477600, Note_on_c, 0, 57, 68
1, 477600, Note_on_c, 0, 66, 80
1, 477600, Note_on_c, 0, 38, 57
1, 477600, Note_on_c, 0, 45, 57
1, 477600, Note_on_c, 0, 50, 68
1, 478415, Note_on_c, 0, 66, 0
1, 478415, Note_on_c, 0, 57, 0
1, 478415, Note_on_c, 0, 62, 0
1, 478415, Note_on_c, 0, 54, 0
1, 478440, Note_on_c, 0, 66, 67
1, 478455, Control_c, 0, 64, 0
1, 478531, Note_on_c, 0, 50, 0
1, 478531, Note_on_c, 0, 45, 0
1, 478531, Note_on_c, 0, 38, 0
1, 478560, Tempo, 384615
1, 478560, Note_on_c, 0, 66, 0
1, 478560, Note_on_c, 0, 67, 75
1, 478560, Note_on_c, 0, 57, 66
1, 478560, Note_on_c, 0, 38, 53
1, 478560, Note_on_c, 0, 50, 63
1, 478652, Control_c, 0, 64, 127
1, 478920, Note_on_c, 0, 67, 0
1, 478920, Note_on_c, 0, 66, 70
1, 479026, Note_on_c, 0, 57, 0
1, 479040, Note_on_c, 0, 50, 0
1, 479040, Note_on_c, 0, 38, 0
1, 479040, Note_on_c, 0, 66, 0
1, 479040, Note_on_c, 0, 64, 74
1, 479040, Note_on_c, 0, 57, 66
1, 479040, Note_on_c, 0, 42, 53
1, 479040, Note_on_c, 0, 54, 63
1, 479047, Control_c, 0, 64, 0
1, 479160, Note_on_c, 0, 64, 0
1, 479160, Note_on_c, 0, 66, 66
1, 479280, Tempo, 449438
1, 479280, Note_on_c, 0, 66, 0
1, 479280, Note_on_c, 0, 64, 66
1, 479400, Note_on_c, 0, 64, 0
1, 479400, Note_on_c, 0, 62, 70
1, 479506, Note_on_c, 0, 57, 0
1, 479520, Tempo, 389610
1, 479520, Note_on_c, 0, 54, 0
1, 479520, Note_on_c, 0, 42, 0
1, 479520, Note_on_c, 0, 62, 0
1, 479520, Note_on_c, 0, 57, 68
1, 479520, Note_on_c, 0, 64, 68
1, 479520, Note_on_c, 0, 69, 80
1, 479520, Note_on_c, 0, 37, 57
1, 479520, Note_on_c, 0, 45, 57
1, 479520, Note_on_c, 0, 49, 68
1, 479760, Control_c, 0, 64, 127
1, 480451, Note_on_c, 0, 49, 0
1, 480451, Note_on_c, 0, 64, 0
1, 480451, Note_on_c, 0, 69, 0
1, 480451, Note_on_c, 0, 57, 0
1, 480451, Note_on_c, 0, 45, 0
1, 480451, Note_on_c, 0, 37, 0
1, 480480, Tempo, 387097
1, 480480, Note_on_c, 0, 57, 68
1, 480480, Note_on_c, 0, 69, 80
1, 480480, Note_on_c, 0, 64, 68
1, 480480, Note_on_c, 0, 37, 57
1, 480480, Note_on_c, 0, 45, 57
1, 480480, Note_on_c, 0, 49, 68
1, 481295, Note_on_c, 0, 64, 0
1, 481295, Note_on_c, 0, 57, 0
1, 481295, Note_on_c, 0, 69, 0
1, 481320, Note_on_c, 0, 69, 67
1, 481330, Control_c, 0, 64, 0
1, 481411, Note_on_c, 0, 37, 0
1, 481411, Note_on_c, 0, 49, 0
1, 481411, Note_on_c, 0, 45, 0
1, 481440, Tempo, 382166
1, 481440, Note_on_c, 0, 69, 0
1, 481440, Note_on_c, 0, 71, 75
1, 481440, Note_on_c, 0, 64, 66
1, 481440, Note_on_c, 0, 37, 53
1, 481440, Note_on_c, 0, 49, 63
1, 481560, Note_on_c, 0, 71, 0
1, 481560, Note_on_c, 0, 73, 66
1, 481680, Note_on_c, 0, 73, 0
1, 481680, Note_on_c, 0, 71, 68
1, 481800, Note_on_c, 0, 71, 0
1, 481800, Note_on_c, 0, 69, 70
1, 481906, Note_on_c, 0, 64, 0
1, 481906, Note_on_c, 0, 49, 0
1, 481906, Note_on_c, 0, 37, 0
1, 481920, Note_on_c, 0, 69, 0
1, 481920, Note_on_c, 0, 64, 66
1, 481920, Note_on_c, 0, 71, 74
1, 481920, Note_on_c, 0, 37, 53
1, 481920, Note_on_c, 0, 49, 63
1, 482019, Control_c, 0, 64, 127
1, 482160, Tempo, 452830
1, 482280, Note_on_c, 0, 71, 0
1, 482280, Note_on_c, 0, 73, 70
1, 482400, Tempo, 388350
1, 482400, Note_on_c, 0, 73, 0
1, 482400, Note_on_c, 0, 49, 0
1, 482400, Note_on_c, 0, 37, 0
1, 482400, Note_on_c, 0, 64, 0
1, 482400, Note_on_c, 0, 62, 68
1, 482400, Note_on_c, 0, 66, 68
1, 482400, Note_on_c, 0, 74, 80
1, 482400, Note_on_c, 0, 71, 68
1, 482400, Note_on_c, 0, 35, 57
1, 482400, Note_on_c, 0, 42, 57
1, 482400, Note_on_c, 0, 47, 68
1, 482406, Control_c, 0, 64, 0
1, 482720, Control_c, 0, 64, 127
1, 483331, Note_on_c, 0, 47, 0
1, 483331, Note_on_c, 0, 35, 0
1, 483331, Note_on_c, 0, 66, 0
1, 483331, Note_on_c, 0, 74, 0
1, 483331, Note_on_c, 0, 62, 0
1, 483331, Note_on_c, 0, 42, 0
1, 483331, Note_on_c, 0, 71, 0
1, 483360, Note_on_c, 0, 62, 68
1, 483360, Note_on_c, 0, 71, 68
1, 483360, Note_on_c, 0, 74, 80
1, 483360, Note_on_c, 0, 66, 68
1, 483360, Note_on_c, 0, 35, 57
1, 483360, Note_on_c, 0, 42, 57
1, 483360, Note_on_c, 0, 47, 68
1, 483974, Tempo, 379747
1, 484013, Tempo, 378549
1, 484051, Tempo, 377358
1, 484070, Note_on_c, 0, 47, 0
1, 484070, Note_on_c, 0, 35, 0
1, 484070, Note_on_c, 0, 71, 0
1, 484070, Note_on_c, 0, 74, 0
1, 484070, Note_on_c, 0, 62, 0
1, 484070, Note_on_c, 0, 42, 0
1, 484070, Note_on_c, 0, 66, 0
1, 484080, Note_on_c, 0, 68, 63
1, 484080, Note_on_c, 0, 74, 75
1, 484080, Note_on_c, 0, 40, 52
1, 484080, Note_on_c, 0, 52, 62
1, 484090, Tempo, 376176
1, 484091, Control_c, 0, 64, 0
1, 484128, Tempo, 375000
1, 484166, Tempo, 373832
1, 484200, Note_on_c, 0, 52, 0
1, 484200, Note_on_c, 0, 68, 0
1, 484200, Note_on_c, 0, 74, 0
1, 484200, Note_on_c, 0, 40, 0
1, 484205, Tempo, 372671
1, 484243, Tempo, 371517
1, 484282, Tempo, 370370
1, 484320, Tempo, 369231
1, 484320, Note_on_c, 0, 68, 68
1, 484320, Note_on_c, 0, 74, 80
1, 484320, Note_on_c, 0, 40, 53
1, 484320, Note_on_c, 0, 52, 63
1, 484358, Tempo, 370370
1, 484416, Tempo, 369231
1, 484440, Note_on_c, 0, 52, 0
1, 484440, Note_on_c, 0, 68, 0
1, 484440, Note_on_c, 0, 74, 0
1, 484440, Note_on_c, 0, 40, 0
1, 484454, Tempo, 368098
1, 484512, Tempo, 366972
1, 484550, Tempo, 365854
1, 484560, Note_on_c, 0, 74, 79
1, 484560, Note_on_c, 0, 76, 79
1, 484560, Note_on_c, 0, 68, 67
1, 484560, Note_on_c, 0, 40, 56
1, 484560, Note_on_c, 0, 52, 66
1, 484589, Tempo, 364742
1, 484646, Tempo, 363636
1, 484680, Note_on_c, 0, 52, 0
1, 484680, Note_on_c, 0, 68, 0
1, 484680, Note_on_c, 0, 74, 0
1, 484680, Note_on_c, 0, 76, 0
1, 484680, Note_on_c, 0, 40, 0
1, 484685, Tempo, 362538
1, 484723, Tempo, 361446
1, 484781, Tempo, 360360
1, 484800, Note_on_c, 0, 68, 70
1, 484800, Note_on_c, 0, 78, 83
1, 484800, Note_on_c, 0, 74, 70
1, 484800, Note_on_c, 0, 40, 57
1, 484800, Note_on_c, 0, 52, 68
1, 484819, Tempo, 359281
1, 484858, Tempo, 358209
1, 484920, Note_on_c, 0, 52, 0
1, 484920, Note_on_c, 0, 74, 0
1, 484920, Note_on_c, 0, 68, 0
1, 484920, Note_on_c, 0, 78, 0
1, 484920, Note_on_c, 0, 40, 0
1, 485040, Tempo, 461538
1, 485040, Note_on_c, 0, 68, 73
1, 485040, Note_on_c, 0, 80, 86
1, 485040, Note_on_c, 0, 74, 73
1, 485040, Note_on_c, 0, 40, 59
1, 485040, Note_on_c, 0, 52, 70
1, 485160, Note_on_c, 0, 52, 0
1, 485160, Note_on_c, 0, 74, 0
1, 485160, Note_on_c, 0, 68, 0
1, 485160, Note_on_c, 0, 80, 0
1, 485160, Note_on_c, 0, 40, 0
1, 485280, Tempo, 380952
1, 485280, Note_on_c, 0, 73, 76
1, 485280, Note_on_c, 0, 81, 90
1, 485280, Note_on_c, 0, 69, 76
1, 485280, Note_on_c, 0, 33, 62
1, 485280, Note_on_c, 0, 45, 73
1, 485440, Control_c, 0, 64, 127
1, 486211, Note_on_c, 0, 45, 0
1, 486211, Note_on_c, 0, 69, 0
1, 486211, Note_on_c, 0, 73, 0
1, 486211, Note_on_c, 0, 81, 0
1, 486211, Note_on_c, 0, 33, 0
1, 486240, Note_on_c, 0, 61, 73
1, 486240, Note_on_c, 0, 69, 87
1, 486240, Note_on_c, 0, 57, 73
1, 486240, Note_on_c, 0, 45, 57
1, 486240, Note_on_c, 0, 52, 68
1, 487147, Control_c, 0, 64, 0
1, 487171, Note_on_c, 0, 52, 0
1, 487171, Note_on_c, 0, 45, 0
1, 487200, Note_on_c, 0, 61, 0
1, 487200, Note_on_c, 0, 69, 0
1, 487200, Note_on_c, 0, 57, 0
1, 487200, Note_on_c, 0, 81, 61
1, 487200, Note_on_c, 0, 66, 45
1, 487680, Tempo, 385852
1, 487680, Note_on_c, 0, 66, 0
1, 487680, Note_on_c, 0, 81, 0
1, 487680, Note_on_c, 0, 82, 58
1, 487680, Note_on_c, 0, 62, 37
1, 488160, Tempo, 352941
1, 488160, Note_on_c, 0, 62, 0
1, 488160, Note_on_c, 0, 82, 0
1, 488160, Note_on_c, 0, 83, 62
1, 488160, Note_on_c, 0, 67, 45
1, 488320, Note_on_c, 0, 83, 0
1, 488320, Note_on_c, 0, 82, 57
1, 488480, Note_on_c, 0, 82, 0
1, 488480, Note_on_c, 0, 83, 57
1, 488640, Tempo, 356083
1, 488640, Note_on_c, 0, 83, 0
1, 488640, Note_on_c, 0, 67, 0
1, 488640, Note_on_c, 0, 88, 63
1, 488640, Note_on_c, 0, 71, 39
1, 488800, Note_on_c, 0, 88, 0
1, 488800, Note_on_c, 0, 87, 61
1, 488960, Tempo, 401338
1, 488960, Note_on_c, 0, 87, 0
1, 488960, Note_on_c, 0, 88, 65
1, 489120, Tempo, 364742
1, 489120, Note_on_c, 0, 88, 0
1, 489120, Note_on_c, 0, 71, 0
1, 489120, Note_on_c, 0, 91, 70
1, 489120, Note_on_c, 0, 76, 39
1, 489600, Note_on_c, 0, 76, 0
1, 489600, Note_on_c, 0, 61, 44
1, 489840, Note_on_c, 0, 61, 0
1, 489960, Note_on_c, 0, 91, 0
1, 489960, Note_on_c, 0, 90, 61
1, 490080, Note_on_c, 0, 90, 0
1, 490080, Note_on_c, 0, 88, 69
1, 490080, Note_on_c, 0, 73, 36
1, 490440, Note_on_c, 0, 88, 0
1, 490440, Note_on_c, 0, 86, 62
1, 490560, Tempo, 361446
1, 490560, Note_on_c, 0, 86, 0
1, 490560, Note_on_c, 0, 73, 0
1, 490560, Note_on_c, 0, 85, 70
1, 490560, Note_on_c, 0, 67, 36
1, 490880, Tempo, 400000
1, 490920, Note_on_c, 0, 85, 0
1, 490920, Note_on_c, 0, 83, 62
1, 491040, Tempo, 351906
1, 491040, Note_on_c, 0, 83, 0
1, 491040, Note_on_c, 0, 67, 0
1, 491040, Note_on_c, 0, 81, 69
1, 491040, Note_on_c, 0, 66, 45
1, 491200, Note_on_c, 0, 81, 0
1, 491200, Note_on_c, 0, 80, 60
1, 491360, Note_on_c, 0, 80, 0
1, 491360, Note_on_c, 0, 81, 55
1, 491520, Tempo, 359281
1, 491520, Note_on_c, 0, 81, 0
1, 491520, Note_on_c, 0, 66, 0
1, 491520, Note_on_c, 0, 86, 68
1, 491520, Note_on_c, 0, 69, 39
1, 491680, Note_on_c, 0, 86, 0
1, 491680, Note_on_c, 0, 85, 65
1, 491840, Tempo, 401338
1, 491840, Note_on_c, 0, 85, 0
1, 491840, Note_on_c, 0, 86, 69
1, 492000, Tempo, 364742
1, 492000, Note_on_c, 0, 86, 0
1, 492000, Note_on_c, 0, 69, 0
1, 492000, Note_on_c, 0, 90, 72
1, 492000, Note_on_c, 0, 74, 39
1, 492480, Note_on_c, 0, 74, 0
1, 492480, Note_on_c, 0, 59, 44
1, 492720, Note_on_c, 0, 59, 0
1, 492840, Note_on_c, 0, 90, 0
1, 492840, Note_on_c, 0, 88, 61
1, 492960, Note_on_c, 0, 88, 0
1, 492960, Note_on_c, 0, 86, 69
1, 492960, Note_on_c, 0, 71, 36
1, 493320, Note_on_c, 0, 86, 0
1, 493320, Note_on_c, 0, 85, 62
1, 493440, Tempo, 361446
1, 493440, Note_on_c, 0, 85, 0
1, 493440, Note_on_c, 0, 71, 0
1, 493440, Note_on_c, 0, 83, 70
1, 493440, Note_on_c, 0, 66, 36
1, 493760, Tempo, 400000
1, 493800, Note_on_c, 0, 83, 0
1, 493800, Note_on_c, 0, 81, 62
1, 493920, Tempo, 352941
1, 493920, Note_on_c, 0, 81, 0
1, 493920, Note_on_c, 0, 66, 0
1, 493920, Note_on_c, 0, 79, 67
1, 493920, Note_on_c, 0, 64, 45
1, 494080, Note_on_c, 0, 79, 0
1, 494080, Note_on_c, 0, 78, 58
1, 494240, Note_on_c, 0, 78, 0
1, 494240, Note_on_c, 0, 79, 58
1, 494400, Tempo, 361446
1, 494400, Note_on_c, 0, 79, 0
1, 494400, Note_on_c, 0, 64, 0
1, 494400, Note_on_c, 0, 85, 63
1, 494400, Note_on_c, 0, 67, 39
1, 494560, Note_on_c, 0, 85, 0
1, 494560, Note_on_c, 0, 84, 61
1, 494720, Tempo, 401338
1, 494720, Note_on_c, 0, 84, 0
1, 494720, Note_on_c, 0, 85, 65
1, 494880, Tempo, 364742
1, 494880, Note_on_c, 0, 85, 0
1, 494880, Note_on_c, 0, 67, 0
1, 494880, Note_on_c, 0, 88, 70
1, 494880, Note_on_c, 0, 73, 39
1, 495360, Note_on_c, 0, 73, 0
1, 495360, Note_on_c, 0, 52, 44
1, 495600, Note_on_c, 0, 52, 0
1, 495720, Note_on_c, 0, 88, 0
1, 495720, Note_on_c, 0, 86, 59
1, 495840, Tempo, 370370
1, 495840, Note_on_c, 0, 86, 0
1, 495840, Note_on_c, 0, 85, 68
1, 495840, Note_on_c, 0, 64, 34
1, 496200, Note_on_c, 0, 85, 0
1, 496200, Note_on_c, 0, 86, 57
1, 496320, Tempo, 390879
1, 496320, Note_on_c, 0, 86, 0
1, 496320, Note_on_c, 0, 64, 0
1, 496320, Note_on_c, 0, 85, 67
1, 496320, Note_on_c, 0, 65, 32
1, 496640, Tempo, 489796
1, 496680, Note_on_c, 0, 85, 0
1, 496680, Note_on_c, 0, 83, 58
1, 496800, Tempo, 398671
1, 496800, Note_on_c, 0, 83, 0
1, 496800, Note_on_c, 0, 65, 0
1, 496800, Note_on_c, 0, 82, 63
1, 496800, Note_on_c, 0, 78, 53
1, 496800, Note_on_c, 0, 66, 25
1, 496800, Note_on_c, 0, 73, 30
1, 497160, Control_c, 0, 64, 127
1, 497731, Note_on_c, 0, 73, 0
1, 497731, Note_on_c, 0, 82, 0
1, 497731, Note_on_c, 0, 78, 0
1, 497731, Note_on_c, 0, 66, 0
1, 497760, Tempo, 387097
1, 497760, Note_on_c, 0, 82, 56
1, 497760, Note_on_c, 0, 78, 47
1, 497760, Note_on_c, 0, 66, 39
1, 497760, Note_on_c, 0, 73, 47
1, 498480, Note_on_c, 0, 73, 0
1, 498480, Note_on_c, 0, 66, 0
1, 498575, Note_on_c, 0, 82, 0
1, 498600, Note_on_c, 0, 82, 46
1, 498615, Control_c, 0, 64, 0
1, 498710, Note_on_c, 0, 78, 0
1, 498720, Tempo, 384615
1, 498720, Note_on_c, 0, 82, 0
1, 498720, Note_on_c, 0, 83, 52
1, 498720, Note_on_c, 0, 78, 46
1, 498720, Note_on_c, 0, 66, 37
1, 498720, Note_on_c, 0, 73, 44
1, 498812, Control_c, 0, 64, 127
1, 499080, Note_on_c, 0, 83, 0
1, 499080, Note_on_c, 0, 82, 49
1, 499152, Note_on_c, 0, 73, 0
1, 499152, Note_on_c, 0, 66, 0
1, 499186, Note_on_c, 0, 78, 0
1, 499200, Note_on_c, 0, 82, 0
1, 499200, Note_on_c, 0, 83, 51
1, 499200, Note_on_c, 0, 78, 46
1, 499200, Note_on_c, 0, 66, 37
1, 499200, Note_on_c, 0, 73, 44
1, 499207, Control_c, 0, 64, 0
1, 499297, Control_c, 0, 64, 127
1, 499440, Tempo, 449438
1, 499560, Note_on_c, 0, 83, 0
1, 499560, Note_on_c, 0, 82, 49
1, 499632, Note_on_c, 0, 73, 0
1, 499632, Note_on_c, 0, 66, 0
1, 499666, Note_on_c, 0, 78, 0
1, 499680, Tempo, 389610
1, 499680, Note_on_c, 0, 82, 0
1, 499680, Note_on_c, 0, 77, 47
1, 499680, Note_on_c, 0, 80, 56
1, 499680, Note_on_c, 0, 61, 39
1, 499680, Note_on_c, 0, 71, 47
1, 499682, Control_c, 0, 64, 0
1, 499920, Control_c, 0, 64, 127
1, 500611, Note_on_c, 0, 71, 0
1, 500611, Note_on_c, 0, 77, 0
1, 500611, Note_on_c, 0, 80, 0
1, 500611, Note_on_c, 0, 61, 0
1, 500640, Tempo, 387097
1, 500640, Note_on_c, 0, 77, 47
1, 500640, Note_on_c, 0, 80, 56
1, 500640, Note_on_c, 0, 61, 39
1, 500640, Note_on_c, 0, 71, 47
1, 501455, Note_on_c, 0, 80, 0
1, 501480, Note_on_c, 0, 80, 46
1, 501495, Control_c, 0, 64, 0
1, 501590, Note_on_c, 0, 77, 0
1, 501590, Note_on_c, 0, 71, 0
1, 501590, Note_on_c, 0, 61, 0
1, 501600, Tempo, 384615
1, 501600, Note_on_c, 0, 80, 0
1, 501600, Note_on_c, 0, 82, 52
1, 501600, Note_on_c, 0, 77, 46
1, 501600, Note_on_c, 0, 61, 37
1, 501600, Note_on_c, 0, 71, 44
1, 501692, Control_c, 0, 64, 127
1, 501960, Note_on_c, 0, 82, 0
1, 501960, Note_on_c, 0, 80, 49
1, 502032, Note_on_c, 0, 71, 0
1, 502032, Note_on_c, 0, 61, 0
1, 502065, Note_on_c, 0, 77, 0
1, 502080, Note_on_c, 0, 80, 0
1, 502080, Note_on_c, 0, 77, 46
1, 502080, Note_on_c, 0, 82, 51
1, 502080, Note_on_c, 0, 61, 37
1, 502080, Note_on_c, 0, 71, 44
1, 502087, Control_c, 0, 64, 0
1, 502177, Control_c, 0, 64, 127
1, 502320, Tempo, 449438
1, 502440, Note_on_c, 0, 82, 0
1, 502440, Note_on_c, 0, 80, 49
1, 502512, Note_on_c, 0, 71, 0
1, 502512, Note_on_c, 0, 61, 0
1, 502545, Note_on_c, 0, 77, 0
1, 502560, Tempo, 389610
1, 502560, Note_on_c, 0, 80, 0
1, 502560, Note_on_c, 0, 78, 56
1, 502560, Note_on_c, 0, 66, 39
1, 502560, Note_on_c, 0, 70, 47
1, 502562, Control_c, 0, 64, 0
1, 502800, Control_c, 0, 64, 127
1, 503491, Note_on_c, 0, 70, 0
1, 503491, Note_on_c, 0, 66, 0
1, 503491, Note_on_c, 0, 78, 0
1, 503520, Tempo, 389610
1, 503520, Note_on_c, 0, 78, 56
1, 503520, Note_on_c, 0, 66, 39
1, 503520, Note_on_c, 0, 70, 47
1, 504303, Control_c, 0, 64, 0
1, 504350, Note_on_c, 0, 70, 0
1, 504350, Note_on_c, 0, 66, 0
1, 504350, Note_on_c, 0, 78, 0
1, 504360, Tempo, 387097
1, 504360, Note_on_c, 0, 55, 59
1, 504360, Note_on_c, 0, 49, 59
1, 504360, Note_on_c, 0, 57, 70
1, 504360, Note_on_c, 0, 33, 51
1, 504360, Note_on_c, 0, 45, 60
1, 504420, Note_on_c, 0, 45, 0
1, 504420, Note_on_c, 0, 57, 0
1, 504420, Note_on_c, 0, 55, 0
1, 504420, Note_on_c, 0, 49, 0
1, 504420, Note_on_c, 0, 33, 0
1, 504480, Note_on_c, 0, 55, 64
1, 504480, Note_on_c, 0, 49, 64
1, 504480, Note_on_c, 0, 57, 76
1, 504480, Note_on_c, 0, 33, 54
1, 504480, Note_on_c, 0, 45, 64
1, 504502, Control_c, 0, 64, 127
1, 504840, Note_on_c, 0, 45, 0
1, 504840, Note_on_c, 0, 57, 0
1, 504840, Note_on_c, 0, 55, 0
1, 504840, Note_on_c, 0, 49, 0
1, 504840, Note_on_c, 0, 33, 0
1, 504840, Note_on_c, 0, 55, 59
1, 504840, Note_on_c, 0, 57, 70
1, 504840, Note_on_c, 0, 49, 59
1, 504840, Note_on_c, 0, 33, 50
1, 504840, Note_on_c, 0, 45, 59
1, 504850, Control_c, 0, 64, 0
1, 504900, Note_on_c, 0, 45, 0
1, 504900, Note_on_c, 0, 49, 0
1, 504900, Note_on_c, 0, 55, 0
1, 504900, Note_on_c, 0, 57, 0
1, 504900, Note_on_c, 0, 33, 0
1, 504960, Note_on_c, 0, 59, 75
1, 504960, Note_on_c, 0, 49, 63
1, 504960, Note_on_c, 0, 55, 63
1, 504960, Note_on_c, 0, 33, 54
1, 504960, Note_on_c, 0, 45, 64
1, 505014, Control_c, 0, 64, 127
1, 505200, Tempo, 412371
1, 505320, Note_on_c, 0, 45, 0
1, 505320, Note_on_c, 0, 55, 0
1, 505320, Note_on_c, 0, 59, 0
1, 505320, Note_on_c, 0, 49, 0
1, 505320, Note_on_c, 0, 33, 0
1, 505320, Note_on_c, 0, 61, 70
1, 505320, Note_on_c, 0, 49, 59
1, 505320, Note_on_c, 0, 55, 59
1, 505320, Note_on_c, 0, 33, 51
1, 505320, Note_on_c, 0, 45, 60
1, 505329, Control_c, 0, 64, 0
1, 505380, Note_on_c, 0, 45, 0
1, 505380, Note_on_c, 0, 55, 0
1, 505380, Note_on_c, 0, 61, 0
1, 505380, Note_on_c, 0, 49, 0
1, 505380, Note_on_c, 0, 33, 0
1, 505440, Tempo, 392157
1, 505440, Note_on_c, 0, 50, 68
1, 505440, Note_on_c, 0, 54, 68
1, 505440, Note_on_c, 0, 62, 80
1, 505440, Note_on_c, 0, 35, 57
1, 505440, Note_on_c, 0, 47, 68
1, 505680, Control_c, 0, 64, 127
1, 506371, Note_on_c, 0, 47, 0
1, 506371, Note_on_c, 0, 62, 0
1, 506371, Note_on_c, 0, 50, 0
1, 506371, Note_on_c, 0, 54, 0
1, 506371, Note_on_c, 0, 35, 0
1, 506400, Tempo, 387097
1, 506400, Note_on_c, 0, 59, 68
1, 506400, Note_on_c, 0, 54, 68
1, 506400, Note_on_c, 0, 62, 80
1, 506400, Note_on_c, 0, 50, 68
1, 506400, Note_on_c, 0, 35, 57
1, 506400, Note_on_c, 0, 47, 68
1, 507215, Note_on_c, 0, 62, 0
1, 507240, Note_on_c, 0, 62, 67
1, 507255, Control_c, 0, 64, 0
1, 507331, Note_on_c, 0, 54, 0
1, 507331, Note_on_c, 0, 35, 0
1, 507331, Note_on_c, 0, 50, 0
1, 507331, Note_on_c, 0, 59, 0
1, 507331, Note_on_c, 0, 47, 0
1, 507360, Tempo, 384615
1, 507360, Note_on_c, 0, 62, 0
1, 507360, Note_on_c, 0, 62, 75
1, 507360, Note_on_c, 0, 54, 66
1, 507360, Note_on_c, 0, 35, 53
1, 507360, Note_on_c, 0, 47, 63
1, 507452, Control_c, 0, 64, 127
1, 507720, Note_on_c, 0, 62, 0
1, 507720, Note_on_c, 0, 64, 70
1, 507826, Note_on_c, 0, 54, 0
1, 507840, Note_on_c, 0, 47, 0
1, 507840, Note_on_c, 0, 35, 0
1, 507840, Note_on_c, 0, 64, 0
1, 507840, Note_on_c, 0, 66, 74
1, 507840, Note_on_c, 0, 54, 66
1, 507840, Note_on_c, 0, 35, 53
1, 507840, Note_on_c, 0, 47, 63
1, 507847, Control_c, 0, 64, 0
1, 508080, Tempo, 449438
1, 508200, Note_on_c, 0, 66, 0
1, 508200, Note_on_c, 0, 62, 70
1, 508306, Note_on_c, 0, 54, 0
1, 508320, Tempo, 389610
1, 508320, Note_on_c, 0, 47, 0
1, 508320, Note_on_c, 0, 35, 0
1, 508320, Note_on_c, 0, 62, 0
1, 508320, Note_on_c, 0, 64, 68
1, 508320, Note_on_c, 0, 69, 80
1, 508320, Note_on_c, 0, 67, 68
1, 508320, Note_on_c, 0, 57, 68
1, 508320, Note_on_c, 0, 37, 57
1, 508320, Note_on_c, 0, 45, 57
1, 508320, Note_on_c, 0, 49, 68
1, 508560, Control_c, 0, 64, 127
1, 509251, Note_on_c, 0, 49, 0
1, 509251, Note_on_c, 0, 37, 0
1, 509251, Note_on_c, 0, 57, 0
1, 509251, Note_on_c, 0, 69, 0
1, 509251, Note_on_c, 0, 64, 0
1, 509251, Note_on_c, 0, 45, 0
1, 509280, Tempo, 387097
1, 509280, Note_on_c, 0, 67, 0
1, 509280, Note_on_c, 0, 57, 68
1, 509280, Note_on_c, 0, 64, 68
1, 509280, Note_on_c, 0, 67, 68
1, 509280, Note_on_c, 0, 69, 80
1, 509280, Note_on_c, 0, 37, 57
1, 509280, Note_on_c, 0, 45, 57
1, 509280, Note_on_c, 0, 49, 68
1, 510095, Note_on_c, 0, 69, 0
1, 510095, Note_on_c, 0, 67, 0
1, 510095, Note_on_c, 0, 57, 0
1, 510095, Note_on_c, 0, 64, 0
1, 510120, Note_on_c, 0, 67, 53
1, 510120, Note_on_c, 0, 69, 67
1, 510120, Note_on_c, 0, 64, 53
1, 510130, Control_c, 0, 64, 0
1, 510211, Note_on_c, 0, 49, 0
1, 510211, Note_on_c, 0, 45, 0
1, 510211, Note_on_c, 0, 37, 0
1, 510234, Note_on_c, 0, 67, 0
1, 510234, Note_on_c, 0, 69, 0
1, 510234, Note_on_c, 0, 64, 0
1, 510240, Tempo, 382166
1, 510240, Note_on_c, 0, 67, 60
1, 510240, Note_on_c, 0, 69, 75
1, 510240, Note_on_c, 0, 64, 60
1, 510240, Note_on_c, 0, 37, 53
1, 510240, Note_on_c, 0, 49, 63
1, 510573, Note_on_c, 0, 69, 0
1, 510582, Note_on_c, 0, 67, 0
1, 510582, Note_on_c, 0, 64, 0
1, 510600, Note_on_c, 0, 69, 70
1, 510600, Note_on_c, 0, 64, 56
1, 510600, Note_on_c, 0, 67, 56
1, 510706, Note_on_c, 0, 37, 0
1, 510706, Note_on_c, 0, 49, 0
1, 510714, Note_on_c, 0, 64, 0
1, 510714, Note_on_c, 0, 69, 0
1, 510714, Note_on_c, 0, 67, 0
1, 510720, Note_on_c, 0, 67, 59
1, 510720, Note_on_c, 0, 64, 59
1, 510720, Note_on_c, 0, 71, 74
1, 510720, Note_on_c, 0, 37, 53
1, 510720, Note_on_c, 0, 49, 63
1, 510819, Control_c, 0, 64, 127
1, 510960, Tempo, 452830
1, 511062, Note_on_c, 0, 71, 0
1, 511062, Note_on_c, 0, 67, 0
1, 511062, Note_on_c, 0, 64, 0
1, 511080, Note_on_c, 0, 64, 56
1, 511080, Note_on_c, 0, 67, 56
1, 511080, Note_on_c, 0, 73, 70
1, 511200, Tempo, 388350
1, 511200, Note_on_c, 0, 73, 0
1, 511200, Note_on_c, 0, 64, 0
1, 511200, Note_on_c, 0, 49, 0
1, 511200, Note_on_c, 0, 37, 0
1, 511200, Note_on_c, 0, 67, 0
1, 511200, Note_on_c, 0, 66, 68
1, 511200, Note_on_c, 0, 69, 68
1, 511200, Note_on_c, 0, 62, 68
1, 511200, Note_on_c, 0, 74, 80
1, 511200, Note_on_c, 0, 36, 57
1, 511200, Note_on_c, 0, 48, 68
1, 511206, Control_c, 0, 64, 0
1, 511520, Control_c, 0, 64, 127
1, 512131, Note_on_c, 0, 48, 0
1, 512131, Note_on_c, 0, 69, 0
1, 512131, Note_on_c, 0, 62, 0
1, 512131, Note_on_c, 0, 66, 0
1, 512131, Note_on_c, 0, 36, 0
1, 512131, Note_on_c, 0, 74, 0
1, 512160, Note_on_c, 0, 62, 68
1, 512160, Note_on_c, 0, 67, 68
1, 512160, Note_on_c, 0, 74, 80
1, 512160, Note_on_c, 0, 35, 57
1, 512160, Note_on_c, 0, 47, 68
1, 512170, Control_c, 0, 64, 0
1, 512374, Control_c, 0, 64, 127
1, 512774, Tempo, 379747
1, 512813, Tempo, 378549
1, 512851, Tempo, 377358
1, 512870, Note_on_c, 0, 47, 0
1, 512870, Note_on_c, 0, 74, 0
1, 512870, Note_on_c, 0, 62, 0
1, 512870, Note_on_c, 0, 67, 0
1, 512870, Note_on_c, 0, 35, 0
1, 512880, Note_on_c, 0, 74, 75
1, 512880, Note_on_c, 0, 68, 63
1, 512880, Note_on_c, 0, 34, 52
1, 512880, Note_on_c, 0, 46, 62
1, 512890, Tempo, 376176
1, 512891, Control_c, 0, 64, 0
1, 512928, Tempo, 375000
1, 512966, Tempo, 373832
1, 513000, Note_on_c, 0, 46, 0
1, 513000, Note_on_c, 0, 74, 0
1, 513000, Note_on_c, 0, 68, 0
1, 513000, Note_on_c, 0, 34, 0
1, 513005, Tempo, 372671
1, 513043, Tempo, 371517
1, 513082, Tempo, 370370
1, 513120, Tempo, 369231
1, 513120, Note_on_c, 0, 68, 68
1, 513120, Note_on_c, 0, 74, 80
1, 513120, Note_on_c, 0, 34, 53
1, 513120, Note_on_c, 0, 46, 63
1, 513158, Tempo, 370370
1, 513216, Tempo, 369231
1, 513240, Note_on_c, 0, 46, 0
1, 513240, Note_on_c, 0, 68, 0
1, 513240, Note_on_c, 0, 74, 0
1, 513240, Note_on_c, 0, 34, 0
1, 513254, Tempo, 368098
1, 513312, Tempo, 366972
1, 513350, Tempo, 365854
1, 513360, Note_on_c, 0, 68, 67
1, 513360, Note_on_c, 0, 74, 79
1, 513360, Note_on_c, 0, 76, 79
1, 513360, Note_on_c, 0, 34, 56
1, 513360, Note_on_c, 0, 46, 66
1, 513389, Tempo, 364742
1, 513446, Tempo, 363636
1, 513480, Note_on_c, 0, 46, 0
1, 513480, Note_on_c, 0, 76, 0
1, 513480, Note_on_c, 0, 68, 0
1, 513480, Note_on_c, 0, 74, 0
1, 513480, Note_on_c, 0, 34, 0
1, 513485, Tempo, 362538
1, 513523, Tempo, 361446
1, 513581, Tempo, 360360
1, 513600, Note_on_c, 0, 74, 70
1, 513600, Note_on_c, 0, 78, 83
1, 513600, Note_on_c, 0, 68, 70
1, 513600, Note_on_c, 0, 34, 57
1, 513600, Note_on_c, 0, 46, 68
1, 513619, Tempo, 359281
1, 513658, Tempo, 358209
1, 513720, Note_on_c, 0, 46, 0
1, 513720, Note_on_c, 0, 68, 0
1, 513720, Note_on_c, 0, 74, 0
1, 513720, Note_on_c, 0, 78, 0
1, 513720, Note_on_c, 0, 34, 0
1, 513840, Tempo, 461538
1, 513840, Note_on_c, 0, 74, 73
1, 513840, Note_on_c, 0, 80, 86
1, 513840, Note_on_c, 0, 68, 73
1, 513840, Note_on_c, 0, 34, 59
1, 513840, Note_on_c, 0, 46, 70
1, 513960, Note_on_c, 0, 46, 0
1, 513960, Note_on_c, 0, 68, 0
1, 513960, Note_on_c, 0, 74, 0
1, 513960, Note_on_c, 0, 80, 0
1, 513960, Note_on_c, 0, 34, 0
1, 514080, Tempo, 380952
1, 514080, Note_on_c, 0, 81, 90
1, 514080, Note_on_c, 0, 69, 76
1, 514080, Note_on_c, 0, 73, 76
1, 514080, Note_on_c, 0, 33, 62
1, 514080, Note_on_c, 0, 45, 73
1, 514240, Control_c, 0, 64, 127
1, 515011, Note_on_c, 0, 45, 0
1, 515011, Note_on_c, 0, 73, 0
1, 515011, Note_on_c, 0, 81, 0
1, 515011, Note_on_c, 0, 69, 0
1, 515011, Note_on_c, 0, 33, 0
1, 515040, Note_on_c, 0, 61, 73
1, 515040, Note_on_c, 0, 69, 87
1, 515040, Note_on_c, 0, 57, 73
1, 515040, Note_on_c, 0, 45, 57
1, 515040, Note_on_c, 0, 52, 68
1, 515947, Control_c, 0, 64, 0
1, 515971, Note_on_c, 0, 52, 0
1, 515971, Note_on_c, 0, 45, 0
1, 516000, Note_on_c, 0, 61, 0
1, 516000, Note_on_c, 0, 69, 0
1, 516000, Note_on_c, 0, 57, 0
1, 516000, Note_on_c, 0, 76, 61
1, 516000, Note_on_c, 0, 61, 45
1, 516480, Tempo, 385852
1, 516480, Note_on_c, 0, 61, 0
1, 516480, Note_on_c, 0, 76, 0
1, 516480, Note_on_c, 0, 77, 58
1, 516480, Note_on_c, 0, 57, 37
1, 516960, Tempo, 352941
1, 516960, Note_on_c, 0, 57, 0
1, 516960, Note_on_c, 0, 77, 0
1, 516960, Note_on_c, 0, 78, 62
1, 516960, Note_on_c, 0, 62, 45
1, 517120, Note_on_c, 0, 78, 0
1, 517120, Note_on_c, 0, 77, 57
1, 517280, Note_on_c, 0, 77, 0
1, 517280, Note_on_c, 0, 78, 57
1, 517440, Tempo, 356083
1, 517440, Note_on_c, 0, 78, 0
1, 517440, Note_on_c, 0, 62, 0
1, 517440, Note_on_c, 0, 83, 63
1, 517440, Note_on_c, 0, 66, 39
1, 517600, Note_on_c, 0, 83, 0
1, 517600, Note_on_c, 0, 82, 61
1, 517760, Tempo, 401338
1, 517760, Note_on_c, 0, 82, 0
1, 517760, Note_on_c, 0, 83, 65
1, 517920, Tempo, 364742
1, 517920, Note_on_c, 0, 83, 0
1, 517920, Note_on_c, 0, 66, 0
1, 517920, Note_on_c, 0, 86, 70
1, 517920, Note_on_c, 0, 71, 39
1, 518400, Note_on_c, 0, 71, 0
1, 518400, Note_on_c, 0, 56, 44
1, 518640, Note_on_c, 0, 56, 0
1, 518760, Note_on_c, 0, 86, 0
1, 518760, Note_on_c, 0, 85, 61
1, 518880, Note_on_c, 0, 85, 0
1, 518880, Note_on_c, 0, 83, 69
1, 518880, Note_on_c, 0, 68, 36
1, 519000, Note_on_c, 0, 83, 0
1, 519000, Note_on_c, 0, 85, 63
1, 519120, Note_on_c, 0, 85, 0
1, 519120, Note_on_c, 0, 83, 63
1, 519240, Note_on_c, 0, 83, 0
1, 519240, Note_on_c, 0, 81, 62
1, 519360, Tempo, 361446
1, 519360, Note_on_c, 0, 81, 0
1, 519360, Note_on_c, 0, 68, 0
1, 519360, Note_on_c, 0, 80, 70
1, 519360, Note_on_c, 0, 62, 36
1, 519480, Note_on_c, 0, 80, 0
1, 519480, Note_on_c, 0, 81, 65
1, 519600, Note_on_c, 0, 81, 0
1, 519600, Note_on_c, 0, 80, 66
1, 519680, Tempo, 400000
1, 519720, Note_on_c, 0, 80, 0
1, 519720, Note_on_c, 0, 78, 62
1, 519840, Tempo, 351906
1, 519840, Note_on_c, 0, 78, 0
1, 519840, Note_on_c, 0, 62, 0
1, 519840, Note_on_c, 0, 76, 69
1, 519840, Note_on_c, 0, 61, 45
1, 520000, Note_on_c, 0, 76, 0
1, 520000, Note_on_c, 0, 75, 60
1, 520160, Note_on_c, 0, 75, 0
1, 520160, Note_on_c, 0, 76, 55
1, 520320, Tempo, 359281
1, 520320, Note_on_c, 0, 76, 0
1, 520320, Note_on_c, 0, 61, 0
1, 520320, Note_on_c, 0, 81, 68
1, 520320, Note_on_c, 0, 64, 39
1, 520480, Note_on_c, 0, 81, 0
1, 520480, Note_on_c, 0, 80, 65
1, 520640, Tempo, 401338
1, 520640, Note_on_c, 0, 80, 0
1, 520640, Note_on_c, 0, 81, 69
1, 520800, Tempo, 364742
1, 520800, Note_on_c, 0, 81, 0
1, 520800, Note_on_c, 0, 64, 0
1, 520800, Note_on_c, 0, 85, 72
1, 520800, Note_on_c, 0, 69, 39
1, 521280, Note_on_c, 0, 69, 0
1, 521280, Note_on_c, 0, 54, 44
1, 521520, Note_on_c, 0, 54, 0
1, 521640, Note_on_c, 0, 85, 0
1, 521640, Note_on_c, 0, 83, 61
1, 521760, Note_on_c, 0, 83, 0
1, 521760, Note_on_c, 0, 81, 69
1, 521760, Note_on_c, 0, 66, 36
1, 521880, Note_on_c, 0, 81, 0
1, 521880, Note_on_c, 0, 83, 63
1, 522000, Note_on_c, 0, 83, 0
1, 522000, Note_on_c, 0, 81, 63
1, 522120, Note_on_c, 0, 81, 0
1, 522120, Note_on_c, 0, 80, 62
1, 522240, Tempo, 361446
1, 522240, Note_on_c, 0, 80, 0
1, 522240, Note_on_c, 0, 66, 0
1, 522240, Note_on_c, 0, 78, 70
1, 522240, Note_on_c, 0, 61, 36
1, 522360, Note_on_c, 0, 78, 0
1, 522360, Note_on_c, 0, 80, 65
1, 522480, Note_on_c, 0, 80, 0
1, 522480, Note_on_c, 0, 78, 65
1, 522560, Tempo, 400000
1, 522600, Note_on_c, 0, 78, 0
1, 522600, Note_on_c, 0, 76, 62
1, 522720, Tempo, 352941
1, 522720, Note_on_c, 0, 76, 0
1, 522720, Note_on_c, 0, 61, 0
1, 522720, Note_on_c, 0, 74, 67
1, 522720, Note_on_c, 0, 59, 45
1, 522880, Note_on_c, 0, 74, 0
1, 522880, Note_on_c, 0, 73, 58
1, 523040, Note_on_c, 0, 73, 0
1, 523040, Note_on_c, 0, 74, 58
1, 523200, Tempo, 361446
1, 523200, Note_on_c, 0, 74, 0
1, 523200, Note_on_c, 0, 59, 0
1, 523200, Note_on_c, 0, 80, 63
1, 523200, Note_on_c, 0, 62, 39
1, 523360, Note_on_c, 0, 80, 0
1, 523360, Note_on_c, 0, 79, 61
1, 523520, Tempo, 401338
1, 523520, Note_on_c, 0, 79, 0
1, 523520, Note_on_c, 0, 80, 65
1, 523680, Tempo, 364742
1, 523680, Note_on_c, 0, 80, 0
1, 523680, Note_on_c, 0, 62, 0
1, 523680, Note_on_c, 0, 83, 70
1, 523680, Note_on_c, 0, 68, 39
1, 524160, Note_on_c, 0, 68, 0
1, 524160, Note_on_c, 0, 47, 44
1, 524400, Note_on_c, 0, 47, 0
1, 524520, Note_on_c, 0, 83, 0
1, 524520, Note_on_c, 0, 81, 59
1, 524640, Tempo, 370370
1, 524640, Note_on_c, 0, 81, 0
1, 524640, Note_on_c, 0, 80, 68
1, 524640, Note_on_c, 0, 59, 34
1, 525000, Note_on_c, 0, 80, 0
1, 525000, Note_on_c, 0, 81, 57
1, 525120, Tempo, 390879
1, 525120, Note_on_c, 0, 81, 0
1, 525120, Note_on_c, 0, 59, 0
1, 525120, Note_on_c, 0, 80, 67
1, 525120, Note_on_c, 0, 60, 32
1, 525440, Tempo, 489796
1, 525480, Note_on_c, 0, 80, 0
1, 525480, Note_on_c, 0, 78, 58
1, 525600, Tempo, 398671
1, 525600, Note_on_c, 0, 78, 0
1, 525600, Note_on_c, 0, 60, 0
1, 525600, Note_on_c, 0, 73, 53
1, 525600, Note_on_c, 0, 77, 63
1, 525600, Note_on_c, 0, 61, 25
1, 525600, Note_on_c, 0, 68, 30
1, 525960, Control_c, 0, 64, 127
1, 526531, Note_on_c, 0, 68, 0
1, 526531, Note_on_c, 0, 73, 0
1, 526531, Note_on_c, 0, 77, 0
1, 526531, Note_on_c, 0, 61, 0
1, 526560, Tempo, 387097
1, 526560, Note_on_c, 0, 73, 47
1, 526560, Note_on_c, 0, 77, 56
1, 526560, Note_on_c, 0, 61, 39
1, 526560, Note_on_c, 0, 68, 47
1, 527375, Note_on_c, 0, 77, 0
1, 527400, Note_on_c, 0, 77, 46
1, 527415, Control_c, 0, 64, 0
1, 527510, Note_on_c, 0, 73, 0
1, 527510, Note_on_c, 0, 68, 0
1, 527510, Note_on_c, 0, 61, 0
1, 527520, Tempo, 384615
1, 527520, Note_on_c, 0, 77, 0
1, 527520, Note_on_c, 0, 73, 46
1, 527520, Note_on_c, 0, 78, 52
1, 527520, Note_on_c, 0, 61, 37
1, 527520, Note_on_c, 0, 68, 44
1, 527612, Control_c, 0, 64, 127
1, 527880, Note_on_c, 0, 78, 0
1, 527880, Note_on_c, 0, 77, 49
1, 527952, Note_on_c, 0, 68, 0
1, 527952, Note_on_c, 0, 61, 0
1, 527986, Note_on_c, 0, 73, 0
1, 528000, Note_on_c, 0, 77, 0
1, 528000, Note_on_c, 0, 73, 46
1, 528000, Note_on_c, 0, 78, 51
1, 528000, Note_on_c, 0, 61, 37
1, 528000, Note_on_c, 0, 68, 44
1, 528007, Control_c, 0, 64, 0
1, 528097, Control_c, 0, 64, 127
1, 528240, Tempo, 449438
1, 528360, Note_on_c, 0, 78, 0
1, 528360, Note_on_c, 0, 77, 49
1, 528432, Note_on_c, 0, 68, 0
1, 528432, Note_on_c, 0, 61, 0
1, 528466, Note_on_c, 0, 73, 0
1, 528480, Tempo, 389610
1, 528480, Note_on_c, 0, 77, 0
1, 528480, Note_on_c, 0, 74, 51
1, 528480, Note_on_c, 0, 76, 51
1, 528480, Note_on_c, 0, 80, 61
1, 528480, Note_on_c, 0, 59, 39
1, 528480, Note_on_c, 0, 64, 39
1, 528480, Note_on_c, 0, 68, 47
1, 528482, Control_c, 0, 64, 0
1, 528720, Control_c, 0, 64, 127
1, 529411, Note_on_c, 0, 68, 0
1, 529411, Note_on_c, 0, 76, 0
1, 529411, Note_on_c, 0, 80, 0
1, 529411, Note_on_c, 0, 74, 0
1, 529411, Note_on_c, 0, 64, 0
1, 529411, Note_on_c, 0, 59, 0
1, 529440, Tempo, 387097
1, 529440, Note_on_c, 0, 74, 51
1, 529440, Note_on_c, 0, 76, 51
1, 529440, Note_on_c, 0, 80, 61
1, 529440, Note_on_c, 0, 59, 39
1, 529440, Note_on_c, 0, 64, 39
1, 529440, Note_on_c, 0, 68, 47
1, 530270, Note_on_c, 0, 68, 0
1, 530270, Note_on_c, 0, 76, 0
1, 530270, Note_on_c, 0, 80, 0
1, 530270, Note_on_c, 0, 64, 0
1, 530280, Note_on_c, 0, 76, 50
1, 530280, Note_on_c, 0, 68, 39
1, 530295, Control_c, 0, 64, 0
1, 530390, Note_on_c, 0, 74, 0
1, 530390, Note_on_c, 0, 59, 0
1, 530400, Tempo, 384615
1, 530400, Note_on_c, 0, 76, 0
1, 530400, Note_on_c, 0, 68, 0
1, 530400, Note_on_c, 0, 74, 50
1, 530400, Note_on_c, 0, 78, 57
1, 530400, Note_on_c, 0, 69, 44
1, 530400, Note_on_c, 0, 64, 39
1, 530492, Control_c, 0, 64, 127
1, 530760, Note_on_c, 0, 69, 0
1, 530760, Note_on_c, 0, 78, 0
1, 530760, Note_on_c, 0, 76, 53
1, 530760, Note_on_c, 0, 68, 41
1, 530865, Note_on_c, 0, 74, 0
1, 530865, Note_on_c, 0, 64, 0
1, 530880, Note_on_c, 0, 76, 0
1, 530880, Note_on_c, 0, 68, 0
1, 530880, Note_on_c, 0, 74, 50
1, 530880, Note_on_c, 0, 78, 56
1, 530880, Note_on_c, 0, 64, 39
1, 530880, Note_on_c, 0, 69, 43
1, 530887, Control_c, 0, 64, 0
1, 530977, Control_c, 0, 64, 127
1, 531120, Tempo, 449438
1, 531240, Note_on_c, 0, 69, 0
1, 531240, Note_on_c, 0, 78, 0
1, 531240, Note_on_c, 0, 80, 53
1, 531240, Note_on_c, 0, 71, 41
1, 531345, Note_on_c, 0, 64, 0
1, 531345, Note_on_c, 0, 74, 0
1, 531360, Tempo, 389610
1, 531360, Note_on_c, 0, 80, 0
1, 531360, Note_on_c, 0, 71, 0
1, 531360, Note_on_c, 0, 69, 51
1, 531360, Note_on_c, 0, 73, 51
1, 531360, Note_on_c, 0, 81, 61
1, 531360, Note_on_c, 0, 64, 47
1, 531360, Note_on_c, 0, 57, 39
1, 531362, Control_c, 0, 64, 0
1, 531600, Control_c, 0, 64, 127
1, 532291, Note_on_c, 0, 57, 0
1, 532291, Note_on_c, 0, 81, 0
1, 532291, Note_on_c, 0, 69, 0
1, 532291, Note_on_c, 0, 73, 0
1, 532291, Note_on_c, 0, 64, 0
1, 532320, Tempo, 389610
1, 532320, Note_on_c, 0, 73, 51
1, 532320, Note_on_c, 0, 69, 51
1, 532320, Note_on_c, 0, 81, 61
1, 532320, Note_on_c, 0, 57, 39
1, 532320, Note_on_c, 0, 64, 47
1, 533103, Control_c, 0, 64, 0
1, 533150, Note_on_c, 0, 64, 0
1, 533150, Note_on_c, 0, 81, 0
1, 533150, Note_on_c, 0, 73, 0
1, 533150, Note_on_c, 0, 69, 0
1, 533150, Note_on_c, 0, 57, 0
1, 533160, Tempo, 387097
1, 533160, Marker_t, "Teil 2"
1, 533160, Note_on_c, 0, 57, 70
1, 533160, Note_on_c, 0, 45, 60
1, 533220, Note_on_c, 0, 45, 0
1, 533220, Note_on_c, 0, 57, 0
1, 533280, Note_on_c, 0, 57, 76
1, 533280, Note_on_c, 0, 45, 64
1, 533333, Control_c, 0, 64, 127
1, 533400, Note_on_c, 0, 45, 0
1, 533400, Note_on_c, 0, 57, 0
1, 533510, Control_c, 0, 64, 0
1, 533520, Tempo, 372671
1, 533640, Note_on_c, 0, 57, 70
1, 533640, Note_on_c, 0, 45, 59
1, 533700, Note_on_c, 0, 45, 0
1, 533700, Note_on_c, 0, 57, 0
1, 533760, Tempo, 366972
1, 533760, Note_on_c, 0, 55, 75
1, 533760, Note_on_c, 0, 43, 64
1, 533814, Control_c, 0, 64, 127
1, 533880, Note_on_c, 0, 43, 0
1, 533880, Note_on_c, 0, 55, 0
1, 533951, Control_c, 0, 64, 0
1, 534000, Tempo, 412371
1, 534120, Note_on_c, 0, 57, 70
1, 534120, Note_on_c, 0, 45, 60
1, 534180, Note_on_c, 0, 45, 0
1, 534180, Note_on_c, 0, 57, 0
1, 534240, Tempo, 392157
1, 534240, Note_on_c, 0, 58, 68
1, 534240, Note_on_c, 0, 61, 80
1, 534240, Note_on_c, 0, 52, 68
1, 534240, Note_on_c, 0, 55, 68
1, 534240, Note_on_c, 0, 34, 57
1, 534240, Note_on_c, 0, 46, 68
1, 534480, Control_c, 0, 64, 127
1, 535171, Note_on_c, 0, 46, 0
1, 535171, Note_on_c, 0, 61, 0
1, 535171, Note_on_c, 0, 52, 0
1, 535171, Note_on_c, 0, 55, 0
1, 535171, Note_on_c, 0, 34, 0
1, 535200, Tempo, 387097
1, 535200, Note_on_c, 0, 58, 0
1, 535200, Note_on_c, 0, 61, 80
1, 535200, Note_on_c, 0, 58, 68
1, 535200, Note_on_c, 0, 52, 68
1, 535200, Note_on_c, 0, 55, 68
1, 535200, Note_on_c, 0, 34, 57
1, 535200, Note_on_c, 0, 46, 68
1, 536015, Note_on_c, 0, 46, 0
1, 536015, Note_on_c, 0, 58, 0
1, 536015, Note_on_c, 0, 52, 0
1, 536015, Note_on_c, 0, 61, 0
1, 536015, Note_on_c, 0, 34, 0
1, 536015, Note_on_c, 0, 55, 0
1, 536040, Tempo, 387097
1, 536040, Note_on_c, 0, 69, 70
1, 536040, Note_on_c, 0, 57, 60
1, 536055, Control_c, 0, 64, 0
1, 536100, Note_on_c, 0, 57, 0
1, 536100, Note_on_c, 0, 69, 0
1, 536160, Tempo, 373832
1, 536160, Note_on_c, 0, 69, 76
1, 536160, Note_on_c, 0, 57, 64
1, 536220, Control_c, 0, 64, 127
1, 536280, Note_on_c, 0, 57, 0
1, 536280, Note_on_c, 0, 69, 0
1, 536379, Control_c, 0, 64, 0
1, 536520, Note_on_c, 0, 69, 70
1, 536520, Note_on_c, 0, 57, 59
1, 536580, Note_on_c, 0, 57, 0
1, 536580, Note_on_c, 0, 69, 0
1, 536640, Tempo, 365854
1, 536640, Note_on_c, 0, 67, 75
1, 536640, Note_on_c, 0, 55, 64
1, 536694, Control_c, 0, 64, 127
1, 536760, Note_on_c, 0, 55, 0
1, 536760, Note_on_c, 0, 67, 0
1, 536841, Control_c, 0, 64, 0
1, 536880, Tempo, 412371
1, 537000, Note_on_c, 0, 69, 70
1, 537000, Note_on_c, 0, 57, 60
1, 537060, Note_on_c, 0, 57, 0
1, 537060, Note_on_c, 0, 69, 0
1, 537120, Tempo, 392157
1, 537120, Note_on_c, 0, 65, 68
1, 537120, Note_on_c, 0, 70, 68
1, 537120, Note_on_c, 0, 62, 68
1, 537120, Note_on_c, 0, 74, 80
1, 537120, Note_on_c, 0, 53, 57
1, 537120, Note_on_c, 0, 46, 57
1, 537120, Note_on_c, 0, 58, 68
1, 537360, Control_c, 0, 64, 127
1, 538051, Note_on_c, 0, 58, 0
1, 538051, Note_on_c, 0, 74, 0
1, 538051, Note_on_c, 0, 65, 0
1, 538051, Note_on_c, 0, 62, 0
1, 538051, Note_on_c, 0, 46, 0
1, 538080, Tempo, 387097
1, 538080, Note_on_c, 0, 70, 0
1, 538080, Note_on_c, 0, 53, 0
1, 538080, Note_on_c, 0, 62, 68
1, 538080, Note_on_c, 0, 70, 68
1, 538080, Note_on_c, 0, 65, 68
1, 538080, Note_on_c, 0, 74, 80
1, 538080, Note_on_c, 0, 53, 57
1, 538080, Note_on_c, 0, 46, 57
1, 538080, Note_on_c, 0, 58, 68
1, 538895, Note_on_c, 0, 58, 0
1, 538895, Note_on_c, 0, 53, 0
1, 538895, Note_on_c, 0, 70, 0
1, 538895, Note_on_c, 0, 65, 0
1, 538895, Note_on_c, 0, 62, 0
1, 538895, Note_on_c, 0, 46, 0
1, 538895, Note_on_c, 0, 74, 0
1, 538920, Tempo, 387097
1, 538920, Note_on_c, 0, 77, 70
1, 538920, Note_on_c, 0, 74, 59
1, 538920, Note_on_c, 0, 62, 51
1, 538920, Note_on_c, 0, 65, 60
1, 538935, Control_c, 0, 64, 0
1, 538980, Note_on_c, 0, 65, 0
1, 538980, Note_on_c, 0, 77, 0
1, 538980, Note_on_c, 0, 74, 0
1, 538980, Note_on_c, 0, 62, 0
1, 539040, Tempo, 377358
1, 539040, Note_on_c, 0, 74, 64
1, 539040, Note_on_c, 0, 77, 76
1, 539040, Note_on_c, 0, 62, 54
1, 539040, Note_on_c, 0, 65, 64
1, 539100, Control_c, 0, 64, 127
1, 539160, Note_on_c, 0, 65, 0
1, 539160, Note_on_c, 0, 74, 0
1, 539160, Note_on_c, 0, 77, 0
1, 539160, Note_on_c, 0, 62, 0
1, 539226, Control_c, 0, 64, 0
1, 539400, Note_on_c, 0, 74, 59
1, 539400, Note_on_c, 0, 77, 70
1, 539400, Note_on_c, 0, 62, 50
1, 539400, Note_on_c, 0, 65, 59
1, 539460, Note_on_c, 0, 65, 0
1, 539460, Note_on_c, 0, 74, 0
1, 539460, Note_on_c, 0, 77, 0
1, 539460, Note_on_c, 0, 62, 0
1, 539520, Tempo, 368098
1, 539520, Note_on_c, 0, 76, 75
1, 539520, Note_on_c, 0, 73, 63
1, 539520, Note_on_c, 0, 61, 54
1, 539520, Note_on_c, 0, 64, 64
1, 539574, Control_c, 0, 64, 127
1, 539640, Note_on_c, 0, 64, 0
1, 539640, Note_on_c, 0, 76, 0
1, 539640, Note_on_c, 0, 73, 0
1, 539640, Note_on_c, 0, 61, 0
1, 539715, Control_c, 0, 64, 0
1, 539760, Tempo, 397351
1, 539880, Note_on_c, 0, 74, 59
1, 539880, Note_on_c, 0, 77, 70
1, 539880, Note_on_c, 0, 62, 51
1, 539880, Note_on_c, 0, 65, 60
1, 539940, Note_on_c, 0, 65, 0
1, 539940, Note_on_c, 0, 74, 0
1, 539940, Note_on_c, 0, 77, 0
1, 539940, Note_on_c, 0, 62, 0
1, 540000, Tempo, 376176
1, 540000, Note_on_c, 0, 74, 76
1, 540000, Note_on_c, 0, 70, 64
1, 540000, Note_on_c, 0, 58, 54
1, 540000, Note_on_c, 0, 62, 64
1, 540060, Control_c, 0, 64, 127
1, 540120, Note_on_c, 0, 62, 0
1, 540120, Note_on_c, 0, 74, 0
1, 540120, Note_on_c, 0, 70, 0
1, 540120, Note_on_c, 0, 58, 0
1, 540186, Control_c, 0, 64, 0
1, 540360, Note_on_c, 0, 70, 59
1, 540360, Note_on_c, 0, 74, 70
1, 540360, Note_on_c, 0, 58, 50
1, 540360, Note_on_c, 0, 62, 59
1, 540420, Note_on_c, 0, 62, 0
1, 540420, Note_on_c, 0, 70, 0
1, 540420, Note_on_c, 0, 74, 0
1, 540420, Note_on_c, 0, 58, 0
1, 540480, Tempo, 368098
1, 540480, Note_on_c, 0, 73, 75
1, 540480, Note_on_c, 0, 69, 63
1, 540480, Note_on_c, 0, 57, 54
1, 540480, Note_on_c, 0, 61, 64
1, 540523, Control_c, 0, 64, 127
1, 540600, Note_on_c, 0, 61, 0
1, 540600, Note_on_c, 0, 73, 0
1, 540600, Note_on_c, 0, 69, 0
1, 540600, Note_on_c, 0, 57, 0
1, 540649, Control_c, 0, 64, 0
1, 540720, Tempo, 397351
1, 540840, Note_on_c, 0, 74, 70
1, 540840, Note_on_c, 0, 70, 59
1, 540840, Note_on_c, 0, 58, 51
1, 540840, Note_on_c, 0, 62, 60
1, 540900, Note_on_c, 0, 62, 0
1, 540900, Note_on_c, 0, 74, 0
1, 540900, Note_on_c, 0, 70, 0
1, 540900, Note_on_c, 0, 58, 0
1, 540951, Tempo, 387097
1, 540960, Tempo, 378549
1, 540960, Note_on_c, 0, 70, 76
1, 540960, Note_on_c, 0, 67, 64
1, 540960, Note_on_c, 0, 55, 54
1, 540960, Note_on_c, 0, 58, 64
1, 541011, Control_c, 0, 64, 127
1, 541080, Note_on_c, 0, 58, 0
1, 541080, Note_on_c, 0, 70, 0
1, 541080, Note_on_c, 0, 67, 0
1, 541080, Note_on_c, 0, 55, 0
1, 541137, Control_c, 0, 64, 0
1, 541320, Note_on_c, 0, 70, 70
1, 541320, Note_on_c, 0, 67, 59
1, 541320, Note_on_c, 0, 58, 59
1, 541320, Note_on_c, 0, 55, 50
1, 541380, Note_on_c, 0, 55, 0
1, 541380, Note_on_c, 0, 70, 0
1, 541380, Note_on_c, 0, 67, 0
1, 541380, Note_on_c, 0, 58, 0
1, 541440, Tempo, 369231
1, 541440, Note_on_c, 0, 69, 75
1, 541440, Note_on_c, 0, 66, 63
1, 541440, Note_on_c, 0, 57, 64
1, 541440, Note_on_c, 0, 54, 54
1, 541485, Control_c, 0, 64, 127
1, 541560, Note_on_c, 0, 54, 0
1, 541560, Note_on_c, 0, 69, 0
1, 541560, Note_on_c, 0, 66, 0
1, 541560, Note_on_c, 0, 57, 0
1, 541648, Control_c, 0, 64, 0
1, 541671, Tempo, 412371
1, 541680, Tempo, 402685
1, 541800, Note_on_c, 0, 70, 70
1, 541800, Note_on_c, 0, 67, 59
1, 541800, Note_on_c, 0, 58, 60
1, 541800, Note_on_c, 0, 55, 51
1, 541860, Note_on_c, 0, 55, 0
1, 541860, Note_on_c, 0, 70, 0
1, 541860, Note_on_c, 0, 67, 0
1, 541860, Note_on_c, 0, 58, 0
1, 541920, Tempo, 392157
1, 541920, Note_on_c, 0, 63, 68
1, 541920, Note_on_c, 0, 67, 80
1, 541920, Note_on_c, 0, 51, 57
1, 541920, Note_on_c, 0, 55, 68
1, 542160, Control_c, 0, 64, 127
1, 542851, Note_on_c, 0, 55, 0
1, 542851, Note_on_c, 0, 67, 0
1, 542880, Tempo, 401338
1, 542880, Note_on_c, 0, 51, 0
1, 542880, Note_on_c, 0, 63, 0
1, 542880, Note_on_c, 0, 75, 74
1, 542880, Note_on_c, 0, 67, 74
1, 542880, Note_on_c, 0, 71, 74
1, 542880, Note_on_c, 0, 79, 88
1, 542880, Note_on_c, 0, 38, 57
1, 542880, Note_on_c, 0, 50, 68
1, 542896, Control_c, 0, 64, 0
1, 543064, Control_c, 0, 64, 127
1, 543830, Note_on_c, 0, 50, 0
1, 543830, Note_on_c, 0, 67, 0
1, 543830, Note_on_c, 0, 71, 0
1, 543830, Note_on_c, 0, 75, 0
1, 543830, Note_on_c, 0, 38, 0
1, 543830, Note_on_c, 0, 79, 0
1, 543840, Tempo, 402685
1, 543840, Note_on_c, 0, 75, 74
1, 543840, Note_on_c, 0, 67, 74
1, 543840, Note_on_c, 0, 72, 74
1, 543840, Note_on_c, 0, 79, 88
1, 543840, Note_on_c, 0, 36, 57
1, 543840, Note_on_c, 0, 48, 68
1, 543856, Control_c, 0, 64, 0
1, 544024, Control_c, 0, 64, 127
1, 544790, Note_on_c, 0, 48, 0
1, 544790, Note_on_c, 0, 67, 0
1, 544790, Note_on_c, 0, 72, 0
1, 544790, Note_on_c, 0, 75, 0
1, 544790, Note_on_c, 0, 36, 0
1, 544790, Note_on_c, 0, 79, 0
1, 544800, Tempo, 412371
1, 544800, Note_on_c, 0, 65, 74
1, 544800, Note_on_c, 0, 74, 74
1, 544800, Note_on_c, 0, 77, 88
1, 544800, Note_on_c, 0, 41, 57
1, 544800, Note_on_c, 0, 53, 68
1, 544813, Control_c, 0, 64, 0
1, 544920, Note_on_c, 0, 53, 0
1, 544920, Note_on_c, 0, 77, 0
1, 544920, Note_on_c, 0, 65, 0
1, 544920, Note_on_c, 0, 74, 0
1, 544920, Note_on_c, 0, 41, 0
1, 545280, Tempo, 436364
1, 545280, Note_on_c, 0, 69, 74
1, 545280, Note_on_c, 0, 72, 74
1, 545280, Note_on_c, 0, 75, 74
1, 545280, Note_on_c, 0, 81, 88
1, 545280, Note_on_c, 0, 41, 57
1, 545280, Note_on_c, 0, 53, 68
1, 545400, Note_on_c, 0, 53, 0
1, 545400, Note_on_c, 0, 72, 0
1, 545400, Note_on_c, 0, 75, 0
1, 545400, Note_on_c, 0, 69, 0
1, 545400, Note_on_c, 0, 41, 0
1, 545400, Note_on_c, 0, 81, 0
1, 545760, Tempo, 424028
1, 545760, Note_on_c, 0, 74, 85
1, 545760, Note_on_c, 0, 70, 85
1, 545760, Note_on_c, 0, 82, 101
1, 545760, Note_on_c, 0, 34, 57
1, 545760, Note_on_c, 0, 46, 68
1, 545944, Control_c, 0, 64, 127
1, 546710, Note_on_c, 0, 46, 0
1, 546710, Note_on_c, 0, 82, 0
1, 546710, Note_on_c, 0, 74, 0
1, 546710, Note_on_c, 0, 70, 0
1, 546710, Note_on_c, 0, 34, 0
1, 546720, Tempo, 463320
1, 546720, Note_on_c, 0, 58, 74
1, 546720, Note_on_c, 0, 62, 74
1, 546720, Note_on_c, 0, 70, 88
1, 546720, Note_on_c, 0, 46, 57
1, 546720, Note_on_c, 0, 53, 68
1, 546736, Control_c, 0, 64, 0
1, 546904, Control_c, 0, 64, 127
1, 547440, Tempo, 419580
1, 547535, Note_on_c, 0, 53, 0
1, 547535, Note_on_c, 0, 70, 0
1, 547535, Note_on_c, 0, 58, 0
1, 547535, Note_on_c, 0, 62, 0
1, 547535, Note_on_c, 0, 46, 0
1, 547560, Tempo, 406780
1, 547560, Note_on_c, 0, 74, 47
1, 547560, Note_on_c, 0, 77, 56
1, 547575, Control_c, 0, 64, 0
1, 547612, Control_c, 0, 64, 127
1, 547620, Note_on_c, 0, 77, 0
1, 547620, Note_on_c, 0, 74, 0
1, 547680, Tempo, 406780
1, 547680, Note_on_c, 0, 74, 51
1, 547680, Note_on_c, 0, 77, 60
1, 547800, Note_on_c, 0, 77, 0
1, 547800, Note_on_c, 0, 74, 0
1, 548040, Note_on_c, 0, 74, 47
1, 548040, Note_on_c, 0, 77, 56
1, 548100, Note_on_c, 0, 77, 0
1, 548100, Note_on_c, 0, 74, 0
1, 548160, Tempo, 368098
1, 548160, Note_on_c, 0, 73, 50
1, 548160, Note_on_c, 0, 76, 60
1, 548177, Control_c, 0, 64, 0
1, 548229, Control_c, 0, 64, 127
1, 548280, Note_on_c, 0, 76, 0
1, 548280, Note_on_c, 0, 73, 0
1, 548400, Tempo, 458015
1, 548520, Note_on_c, 0, 74, 47
1, 548520, Note_on_c, 0, 77, 56
1, 548580, Note_on_c, 0, 77, 0
1, 548580, Note_on_c, 0, 74, 0
1, 548640, Tempo, 416667
1, 548640, Note_on_c, 0, 70, 51
1, 548640, Note_on_c, 0, 74, 60
1, 548640, Note_on_c, 0, 46, 55
1, 548640, Control_c, 0, 64, 0
1, 548846, Control_c, 0, 64, 127
1, 548880, Note_on_c, 0, 46, 0
1, 549120, Tempo, 465116
1, 549120, Note_on_c, 0, 53, 42
1, 549360, Note_on_c, 0, 53, 0
1, 549600, Tempo, 419580
1, 549600, Note_on_c, 0, 74, 0
1, 549600, Note_on_c, 0, 70, 0
1, 549600, Note_on_c, 0, 70, 51
1, 549600, Note_on_c, 0, 74, 60
1, 549600, Note_on_c, 0, 62, 42
1, 549600, Note_on_c, 0, 58, 35
1, 549840, Note_on_c, 0, 58, 0
1, 549840, Note_on_c, 0, 62, 0
1, 550080, Note_on_c, 0, 46, 55
1, 550320, Note_on_c, 0, 46, 0
1, 550415, Note_on_c, 0, 74, 0
1, 550415, Note_on_c, 0, 70, 0
1, 550440, Tempo, 387097
1, 550440, Note_on_c, 0, 70, 47
1, 550440, Note_on_c, 0, 74, 56
1, 550500, Note_on_c, 0, 74, 0
1, 550500, Note_on_c, 0, 70, 0
1, 550560, Tempo, 377358
1, 550560, Note_on_c, 0, 70, 51
1, 550560, Note_on_c, 0, 74, 60
1, 550560, Note_on_c, 0, 53, 42
1, 550680, Note_on_c, 0, 74, 0
1, 550680, Note_on_c, 0, 70, 0
1, 550800, Note_on_c, 0, 53, 0
1, 550920, Note_on_c, 0, 70, 47
1, 550920, Note_on_c, 0, 74, 56
1, 550980, Note_on_c, 0, 74, 0
1, 550980, Note_on_c, 0, 70, 0
1, 551040, Tempo, 368098
1, 551040, Note_on_c, 0, 69, 50
1, 551040, Note_on_c, 0, 73, 60
1, 551040, Note_on_c, 0, 58, 35
1, 551040, Note_on_c, 0, 62, 42
1, 551160, Note_on_c, 0, 73, 0
1, 551160, Note_on_c, 0, 69, 0
1, 551280, Tempo, 442804
1, 551280, Note_on_c, 0, 58, 0
1, 551280, Note_on_c, 0, 62, 0
1, 551400, Note_on_c, 0, 70, 47
1, 551400, Note_on_c, 0, 74, 56
1, 551460, Note_on_c, 0, 74, 0
1, 551460, Note_on_c, 0, 70, 0
1, 551520, Tempo, 404040
1, 551520, Note_on_c, 0, 74, 51
1, 551520, Note_on_c, 0, 77, 60
1, 551520, Note_on_c, 0, 45, 55
1, 551520, Control_c, 0, 64, 0
1, 551726, Control_c, 0, 64, 127
1, 551760, Note_on_c, 0, 45, 0
1, 552000, Tempo, 465116
1, 552000, Note_on_c, 0, 53, 42
1, 552240, Note_on_c, 0, 53, 0
1, 552480, Tempo, 419580
1, 552480, Note_on_c, 0, 77, 0
1, 552480, Note_on_c, 0, 74, 0
1, 552480, Note_on_c, 0, 72, 51
1, 552480, Note_on_c, 0, 75, 60
1, 552480, Note_on_c, 0, 63, 42
1, 552480, Note_on_c, 0, 60, 35
1, 552720, Note_on_c, 0, 60, 0
1, 552720, Note_on_c, 0, 63, 0
1, 552960, Note_on_c, 0, 45, 55
1, 553200, Note_on_c, 0, 45, 0
1, 553295, Note_on_c, 0, 75, 0
1, 553295, Note_on_c, 0, 72, 0
1, 553320, Tempo, 387097
1, 553320, Note_on_c, 0, 77, 47
1, 553320, Note_on_c, 0, 75, 56
1, 553320, Note_on_c, 0, 72, 47
1, 553380, Note_on_c, 0, 72, 0
1, 553380, Note_on_c, 0, 75, 0
1, 553380, Note_on_c, 0, 77, 0
1, 553440, Tempo, 377358
1, 553440, Note_on_c, 0, 77, 51
1, 553440, Note_on_c, 0, 75, 60
1, 553440, Note_on_c, 0, 72, 51
1, 553440, Note_on_c, 0, 53, 42
1, 553440, Control_c, 0, 64, 0
1, 553494, Control_c, 0, 64, 127
1, 553560, Note_on_c, 0, 72, 0
1, 553560, Note_on_c, 0, 77, 0
1, 553560, Note_on_c, 0, 75, 0
1, 553680, Note_on_c, 0, 53, 0
1, 553800, Note_on_c, 0, 72, 47
1, 553800, Note_on_c, 0, 77, 47
1, 553800, Note_on_c, 0, 75, 56
1, 553860, Note_on_c, 0, 75, 0
1, 553860, Note_on_c, 0, 77, 0
1, 553860, Note_on_c, 0, 72, 0
1, 553920, Tempo, 368098
1, 553920, Note_on_c, 0, 77, 50
1, 553920, Note_on_c, 0, 71, 50
1, 553920, Note_on_c, 0, 74, 60
1, 553920, Note_on_c, 0, 60, 35
1, 553920, Note_on_c, 0, 63, 42
1, 554040, Note_on_c, 0, 74, 0
1, 554040, Note_on_c, 0, 77, 0
1, 554040, Note_on_c, 0, 71, 0
1, 554160, Tempo, 442804
1, 554160, Note_on_c, 0, 60, 0
1, 554160, Note_on_c, 0, 63, 0
1, 554280, Note_on_c, 0, 72, 47
1, 554280, Note_on_c, 0, 75, 56
1, 554280, Note_on_c, 0, 77, 56
1, 554340, Note_on_c, 0, 77, 0
1, 554340, Note_on_c, 0, 75, 0
1, 554340, Note_on_c, 0, 72, 0
1, 554400, Tempo, 404040
1, 554400, Note_on_c, 0, 72, 51
1, 554400, Note_on_c, 0, 77, 60
1, 554400, Note_on_c, 0, 69, 51
1, 554400, Note_on_c, 0, 41, 55
1, 554413, Control_c, 0, 64, 0
1, 554606, Control_c, 0, 64, 127
1, 554640, Note_on_c, 0, 41, 0
1, 554880, Tempo, 439560
1, 554880, Note_on_c, 0, 53, 42
1, 555120, Note_on_c, 0, 53, 0
1, 555351, Note_on_c, 0, 69, 0
1, 555351, Note_on_c, 0, 77, 0
1, 555351, Note_on_c, 0, 72, 0
1, 555360, Tempo, 419580
1, 555360, Note_on_c, 0, 77, 60
1, 555360, Note_on_c, 0, 69, 51
1, 555360, Note_on_c, 0, 72, 51
1, 555360, Note_on_c, 0, 63, 42
1, 555360, Note_on_c, 0, 60, 35
1, 555600, Note_on_c, 0, 60, 0
1, 555600, Note_on_c, 0, 63, 0
1, 555840, Note_on_c, 0, 41, 55
1, 556080, Note_on_c, 0, 41, 0
1, 556175, Note_on_c, 0, 72, 0
1, 556175, Note_on_c, 0, 69, 0
1, 556175, Note_on_c, 0, 77, 0
1, 556200, Tempo, 387097
1, 556200, Note_on_c, 0, 77, 47
1, 556200, Note_on_c, 0, 72, 56
1, 556200, Note_on_c, 0, 69, 47
1, 556260, Note_on_c, 0, 69, 0
1, 556260, Note_on_c, 0, 72, 0
1, 556260, Note_on_c, 0, 77, 0
1, 556320, Tempo, 377358
1, 556320, Note_on_c, 0, 77, 51
1, 556320, Note_on_c, 0, 72, 60
1, 556320, Note_on_c, 0, 69, 51
1, 556320, Note_on_c, 0, 53, 42
1, 556440, Note_on_c, 0, 69, 0
1, 556440, Note_on_c, 0, 77, 0
1, 556440, Note_on_c, 0, 72, 0
1, 556560, Note_on_c, 0, 53, 0
1, 556680, Note_on_c, 0, 72, 56
1, 556680, Note_on_c, 0, 69, 47
1, 556680, Note_on_c, 0, 77, 47
1, 556740, Note_on_c, 0, 77, 0
1, 556740, Note_on_c, 0, 69, 0
1, 556740, Note_on_c, 0, 72, 0
1, 556800, Tempo, 368098
1, 556800, Note_on_c, 0, 68, 50
1, 556800, Note_on_c, 0, 71, 60
1, 556800, Note_on_c, 0, 77, 50
1, 556800, Note_on_c, 0, 60, 35
1, 556800, Note_on_c, 0, 63, 42
1, 556920, Note_on_c, 0, 77, 0
1, 556920, Note_on_c, 0, 68, 0
1, 556920, Note_on_c, 0, 71, 0
1, 557040, Tempo, 510638
1, 557040, Note_on_c, 0, 60, 0
1, 557040, Note_on_c, 0, 63, 0
1, 557160, Note_on_c, 0, 72, 56
1, 557160, Note_on_c, 0, 77, 56
1, 557160, Note_on_c, 0, 69, 47
1, 557220, Note_on_c, 0, 69, 0
1, 557220, Note_on_c, 0, 77, 0
1, 557220, Note_on_c, 0, 72, 0
1, 557280, Tempo, 449438
1, 557280, Note_on_c, 0, 69, 45
1, 557280, Note_on_c, 0, 77, 54
1, 557280, Note_on_c, 0, 73, 45
1, 557280, Note_on_c, 0, 46, 49
1, 557293, Control_c, 0, 64, 0
1, 557486, Control_c, 0, 64, 127
1, 557520, Note_on_c, 0, 46, 0
1, 557760, Tempo, 465116
1, 557760, Note_on_c, 0, 53, 37
1, 558000, Note_on_c, 0, 53, 0
1, 558230, Note_on_c, 0, 73, 0
1, 558231, Note_on_c, 0, 77, 0
1, 558231, Note_on_c, 0, 69, 0
1, 558240, Tempo, 419580
1, 558240, Note_on_c, 0, 70, 45
1, 558240, Note_on_c, 0, 77, 54
1, 558240, Note_on_c, 0, 74, 45
1, 558240, Note_on_c, 0, 62, 37
1, 558240, Note_on_c, 0, 58, 31
1, 558251, Control_c, 0, 64, 0
1, 558423, Control_c, 0, 64, 127
1, 558480, Note_on_c, 0, 58, 0
1, 558480, Note_on_c, 0, 62, 0
1, 558720, Note_on_c, 0, 46, 55
1, 558960, Note_on_c, 0, 46, 0
1, 559055, Note_on_c, 0, 74, 0
1, 559055, Note_on_c, 0, 77, 0
1, 559055, Note_on_c, 0, 70, 0
1, 559080, Tempo, 387097
1, 559080, Note_on_c, 0, 74, 47
1, 559080, Note_on_c, 0, 70, 47
1, 559080, Note_on_c, 0, 77, 56
1, 559095, Control_c, 0, 64, 0
1, 559132, Control_c, 0, 64, 127
1, 559140, Note_on_c, 0, 77, 0
1, 559140, Note_on_c, 0, 70, 0
1, 559140, Note_on_c, 0, 74, 0
1, 559200, Tempo, 377358
1, 559200, Note_on_c, 0, 70, 51
1, 559200, Note_on_c, 0, 74, 51
1, 559200, Note_on_c, 0, 77, 60
1, 559200, Note_on_c, 0, 53, 37
1, 559320, Note_on_c, 0, 77, 0
1, 559320, Note_on_c, 0, 70, 0
1, 559320, Note_on_c, 0, 74, 0
1, 559440, Note_on_c, 0, 53, 0
1, 559560, Note_on_c, 0, 74, 48
1, 559560, Note_on_c, 0, 77, 57
1, 559560, Note_on_c, 0, 70, 48
1, 559620, Note_on_c, 0, 70, 0
1, 559620, Note_on_c, 0, 77, 0
1, 559620, Note_on_c, 0, 74, 0
1, 559680, Tempo, 368098
1, 559680, Note_on_c, 0, 74, 52
1, 559680, Note_on_c, 0, 76, 63
1, 559680, Note_on_c, 0, 70, 52
1, 559680, Note_on_c, 0, 62, 38
1, 559680, Note_on_c, 0, 58, 32
1, 559697, Control_c, 0, 64, 0
1, 559749, Control_c, 0, 64, 127
1, 559800, Note_on_c, 0, 70, 0
1, 559800, Note_on_c, 0, 74, 0
1, 559800, Note_on_c, 0, 76, 0
1, 559920, Tempo, 442804
1, 559920, Note_on_c, 0, 62, 0
1, 559920, Note_on_c, 0, 58, 0
1, 560040, Note_on_c, 0, 77, 60
1, 560040, Note_on_c, 0, 70, 50
1, 560040, Note_on_c, 0, 74, 50
1, 560100, Note_on_c, 0, 74, 0
1, 560100, Note_on_c, 0, 70, 0
1, 560100, Note_on_c, 0, 77, 0
1, 560160, Tempo, 404040
1, 560160, Note_on_c, 0, 70, 56
1, 560160, Note_on_c, 0, 79, 66
1, 560160, Note_on_c, 0, 74, 56
1, 560160, Note_on_c, 0, 43, 60
1, 560160, Control_c, 0, 64, 0
1, 560366, Control_c, 0, 64, 127
1, 560400, Note_on_c, 0, 43, 0
1, 560640, Tempo, 465116
1, 560640, Note_on_c, 0, 55, 46
1, 560880, Note_on_c, 0, 55, 0
1, 561111, Note_on_c, 0, 74, 0
1, 561111, Note_on_c, 0, 79, 0
1, 561111, Note_on_c, 0, 70, 0
1, 561120, Tempo, 419580
1, 561120, Note_on_c, 0, 79, 66
1, 561120, Note_on_c, 0, 70, 56
1, 561120, Note_on_c, 0, 74, 56
1, 561120, Note_on_c, 0, 62, 46
1, 561120, Note_on_c, 0, 58, 38
1, 561360, Note_on_c, 0, 58, 0
1, 561360, Note_on_c, 0, 62, 0
1, 561600, Tempo, 410959
1, 561600, Note_on_c, 0, 43, 55
1, 561840, Note_on_c, 0, 43, 0
1, 561935, Note_on_c, 0, 74, 0
1, 561935, Note_on_c, 0, 70, 0
1, 561935, Note_on_c, 0, 79, 0
1, 561960, Tempo, 387097
1, 561960, Note_on_c, 0, 70, 51
1, 561960, Note_on_c, 0, 79, 61
1, 561960, Note_on_c, 0, 74, 51
1, 562020, Note_on_c, 0, 74, 0
1, 562020, Note_on_c, 0, 79, 0
1, 562020, Note_on_c, 0, 70, 0
1, 562080, Tempo, 377358
1, 562080, Note_on_c, 0, 70, 56
1, 562080, Note_on_c, 0, 79, 66
1, 562080, Note_on_c, 0, 74, 56
1, 562080, Note_on_c, 0, 55, 46
1, 562200, Note_on_c, 0, 74, 0
1, 562200, Note_on_c, 0, 70, 0
1, 562200, Note_on_c, 0, 79, 0
1, 562320, Note_on_c, 0, 55, 0
1, 562440, Note_on_c, 0, 70, 50
1, 562440, Note_on_c, 0, 82, 60
1, 562440, Note_on_c, 0, 74, 50
1, 562500, Note_on_c, 0, 74, 0
1, 562500, Note_on_c, 0, 82, 0
1, 562500, Note_on_c, 0, 70, 0
1, 562560, Tempo, 368098
1, 562560, Note_on_c, 0, 70, 54
1, 562560, Note_on_c, 0, 81, 64
1, 562560, Note_on_c, 0, 74, 54
1, 562560, Note_on_c, 0, 58, 37
1, 562560, Note_on_c, 0, 62, 45
1, 562680, Note_on_c, 0, 74, 0
1, 562680, Note_on_c, 0, 70, 0
1, 562680, Note_on_c, 0, 81, 0
1, 562800, Tempo, 442804
1, 562800, Note_on_c, 0, 58, 0
1, 562800, Note_on_c, 0, 62, 0
1, 562920, Note_on_c, 0, 74, 49
1, 562920, Note_on_c, 0, 79, 59
1, 562920, Note_on_c, 0, 70, 49
1, 562980, Note_on_c, 0, 70, 0
1, 562980, Note_on_c, 0, 79, 0
1, 562980, Note_on_c, 0, 74, 0
1, 563040, Tempo, 404040
1, 563040, Note_on_c, 0, 70, 51
1, 563040, Note_on_c, 0, 77, 60
1, 563040, Note_on_c, 0, 74, 51
1, 563040, Note_on_c, 0, 46, 55
1, 563040, Control_c, 0, 64, 0
1, 563246, Control_c, 0, 64, 127
1, 563280, Note_on_c, 0, 46, 0
1, 563520, Tempo, 465116
1, 563520, Note_on_c, 0, 53, 42
1, 563760, Note_on_c, 0, 53, 0
1, 563991, Note_on_c, 0, 74, 0
1, 563991, Note_on_c, 0, 77, 0
1, 563991, Note_on_c, 0, 70, 0
1, 564000, Tempo, 419580
1, 564000, Note_on_c, 0, 70, 60
1, 564000, Note_on_c, 0, 74, 51
1, 564000, Note_on_c, 0, 77, 60
1, 564000, Note_on_c, 0, 62, 42
1, 564000, Note_on_c, 0, 58, 35
1, 564240, Note_on_c, 0, 58, 0
1, 564240, Note_on_c, 0, 62, 0
1, 564480, Note_on_c, 0, 46, 55
1, 564720, Note_on_c, 0, 46, 0
1, 564815, Note_on_c, 0, 77, 0
1, 564815, Note_on_c, 0, 74, 0
1, 564815, Note_on_c, 0, 70, 0
1, 564840, Tempo, 387097
1, 564840, Note_on_c, 0, 77, 47
1, 564840, Note_on_c, 0, 70, 47
1, 564840, Note_on_c, 0, 74, 56
1, 564900, Note_on_c, 0, 74, 0
1, 564900, Note_on_c, 0, 70, 0
1, 564900, Note_on_c, 0, 77, 0
1, 564960, Tempo, 377358
1, 564960, Note_on_c, 0, 70, 51
1, 564960, Note_on_c, 0, 74, 60
1, 564960, Note_on_c, 0, 77, 51
1, 564960, Note_on_c, 0, 53, 42
1, 564960, Control_c, 0, 64, 0
1, 565014, Control_c, 0, 64, 127
1, 565080, Note_on_c, 0, 77, 0
1, 565080, Note_on_c, 0, 70, 0
1, 565080, Note_on_c, 0, 74, 0
1, 565200, Note_on_c, 0, 53, 0
1, 565320, Note_on_c, 0, 70, 47
1, 565320, Note_on_c, 0, 74, 56
1, 565320, Note_on_c, 0, 77, 47
1, 565380, Note_on_c, 0, 77, 0
1, 565380, Note_on_c, 0, 74, 0
1, 565380, Note_on_c, 0, 70, 0
1, 565440, Tempo, 368098
1, 565440, Note_on_c, 0, 70, 50
1, 565440, Note_on_c, 0, 75, 60
1, 565440, Note_on_c, 0, 79, 50
1, 565440, Note_on_c, 0, 62, 42
1, 565440, Note_on_c, 0, 58, 35
1, 565560, Note_on_c, 0, 79, 0
1, 565560, Note_on_c, 0, 70, 0
1, 565560, Note_on_c, 0, 75, 0
1, 565680, Tempo, 442804
1, 565680, Note_on_c, 0, 62, 0
1, 565680, Note_on_c, 0, 58, 0
1, 565800, Note_on_c, 0, 77, 56
1, 565800, Note_on_c, 0, 70, 47
1, 565800, Note_on_c, 0, 74, 56
1, 565860, Note_on_c, 0, 74, 0
1, 565860, Note_on_c, 0, 70, 0
1, 565860, Note_on_c, 0, 77, 0
1, 565920, Tempo, 404040
1, 565920, Note_on_c, 0, 69, 51
1, 565920, Note_on_c, 0, 72, 51
1, 565920, Note_on_c, 0, 77, 60
1, 565920, Note_on_c, 0, 41, 55
1, 565933, Control_c, 0, 64, 0
1, 566126, Control_c, 0, 64, 127
1, 566160, Note_on_c, 0, 41, 0
1, 566400, Tempo, 465116
1, 566400, Note_on_c, 0, 53, 42
1, 566640, Note_on_c, 0, 53, 0
1, 566880, Tempo, 419580
1, 566880, Note_on_c, 0, 77, 0
1, 566880, Note_on_c, 0, 72, 0
1, 566880, Note_on_c, 0, 69, 0
1, 566880, Note_on_c, 0, 72, 48
1, 566880, Note_on_c, 0, 75, 57
1, 566880, Note_on_c, 0, 69, 48
1, 566880, Note_on_c, 0, 60, 33
1, 566880, Note_on_c, 0, 63, 39
1, 567120, Note_on_c, 0, 63, 0
1, 567120, Note_on_c, 0, 60, 0
1, 567360, Note_on_c, 0, 41, 52
1, 567600, Note_on_c, 0, 41, 0
1, 567695, Note_on_c, 0, 69, 0
1, 567695, Note_on_c, 0, 75, 0
1, 567695, Note_on_c, 0, 72, 0
1, 567720, Tempo, 397351
1, 567720, Note_on_c, 0, 65, 44
1, 567720, Note_on_c, 0, 72, 53
1, 567720, Note_on_c, 0, 75, 44
1, 567780, Note_on_c, 0, 75, 0
1, 567780, Note_on_c, 0, 72, 0
1, 567780, Note_on_c, 0, 65, 0
1, 567840, Tempo, 385852
1, 567840, Note_on_c, 0, 65, 48
1, 567840, Note_on_c, 0, 72, 57
1, 567840, Note_on_c, 0, 75, 48
1, 567840, Note_on_c, 0, 53, 39
1, 567960, Note_on_c, 0, 75, 0
1, 567960, Note_on_c, 0, 65, 0
1, 567960, Note_on_c, 0, 72, 0
1, 568080, Note_on_c, 0, 53, 0
1, 568200, Note_on_c, 0, 75, 44
1, 568200, Note_on_c, 0, 72, 53
1, 568200, Note_on_c, 0, 65, 44
1, 568260, Note_on_c, 0, 65, 0
1, 568260, Note_on_c, 0, 72, 0
1, 568260, Note_on_c, 0, 75, 0
1, 568320, Tempo, 377358
1, 568320, Note_on_c, 0, 74, 47
1, 568320, Note_on_c, 0, 71, 57
1, 568320, Note_on_c, 0, 65, 47
1, 568320, Note_on_c, 0, 63, 39
1, 568320, Note_on_c, 0, 60, 33
1, 568440, Note_on_c, 0, 65, 0
1, 568440, Note_on_c, 0, 74, 0
1, 568440, Note_on_c, 0, 71, 0
1, 568560, Tempo, 510638
1, 568560, Note_on_c, 0, 63, 0
1, 568560, Note_on_c, 0, 60, 0
1, 568680, Note_on_c, 0, 72, 53
1, 568680, Note_on_c, 0, 65, 44
1, 568680, Note_on_c, 0, 69, 53
1, 568740, Note_on_c, 0, 69, 0
1, 568740, Note_on_c, 0, 65, 0
1, 568740, Note_on_c, 0, 72, 0
1, 568800, Tempo, 449438
1, 568800, Note_on_c, 0, 62, 40
1, 568800, Note_on_c, 0, 65, 40
1, 568800, Note_on_c, 0, 70, 48
1, 568800, Note_on_c, 0, 46, 44
1, 568813, Control_c, 0, 64, 0
1, 569006, Control_c, 0, 64, 127
1, 569040, Note_on_c, 0, 46, 0
1, 569280, Tempo, 465116
1, 569280, Note_on_c, 0, 50, 33
1, 569520, Note_on_c, 0, 50, 0
1, 569760, Tempo, 419580
1, 569760, Note_on_c, 0, 70, 0
1, 569760, Note_on_c, 0, 65, 0
1, 569760, Note_on_c, 0, 62, 0
1, 569760, Note_on_c, 0, 62, 40
1, 569760, Note_on_c, 0, 65, 40
1, 569760, Note_on_c, 0, 70, 48
1, 569760, Note_on_c, 0, 58, 33
1, 569760, Note_on_c, 0, 53, 27
1, 569771, Control_c, 0, 64, 0
1, 569943, Control_c, 0, 64, 127
1, 570000, Note_on_c, 0, 53, 0
1, 570000, Note_on_c, 0, 58, 0
1, 570240, Note_on_c, 0, 41, 49
1, 570480, Note_on_c, 0, 41, 0
1, 570575, Note_on_c, 0, 70, 0
1, 570575, Note_on_c, 0, 65, 0
1, 570575, Note_on_c, 0, 62, 0
1, 570600, Tempo, 402685
1, 570600, Note_on_c, 0, 75, 39
1, 570600, Note_on_c, 0, 65, 39
1, 570600, Note_on_c, 0, 72, 47
1, 570660, Note_on_c, 0, 72, 0
1, 570660, Note_on_c, 0, 65, 0
1, 570660, Note_on_c, 0, 75, 0
1, 570720, Tempo, 392157
1, 570720, Note_on_c, 0, 75, 43
1, 570720, Note_on_c, 0, 65, 43
1, 570720, Note_on_c, 0, 72, 51
1, 570720, Note_on_c, 0, 51, 35
1, 570840, Note_on_c, 0, 72, 0
1, 570840, Note_on_c, 0, 75, 0
1, 570840, Note_on_c, 0, 65, 0
1, 570960, Note_on_c, 0, 51, 0
1, 571080, Note_on_c, 0, 75, 39
1, 571080, Note_on_c, 0, 65, 39
1, 571080, Note_on_c, 0, 72, 47
1, 571140, Note_on_c, 0, 72, 0
1, 571140, Note_on_c, 0, 65, 0
1, 571140, Note_on_c, 0, 75, 0
1, 571200, Tempo, 384615
1, 571200, Note_on_c, 0, 74, 42
1, 571200, Note_on_c, 0, 65, 42
1, 571200, Note_on_c, 0, 70, 51
1, 571200, Note_on_c, 0, 57, 35
1, 571200, Note_on_c, 0, 53, 29
1, 571320, Note_on_c, 0, 70, 0
1, 571320, Note_on_c, 0, 74, 0
1, 571320, Note_on_c, 0, 65, 0
1, 571440, Tempo, 510638
1, 571440, Note_on_c, 0, 57, 0
1, 571440, Note_on_c, 0, 53, 0
1, 571560, Note_on_c, 0, 72, 47
1, 571560, Note_on_c, 0, 65, 39
1, 571560, Note_on_c, 0, 69, 47
1, 571620, Note_on_c, 0, 69, 0
1, 571620, Note_on_c, 0, 65, 0
1, 571620, Note_on_c, 0, 72, 0
1, 571680, Tempo, 449438
1, 571680, Note_on_c, 0, 62, 38
1, 571680, Note_on_c, 0, 65, 38
1, 571680, Note_on_c, 0, 70, 45
1, 571680, Note_on_c, 0, 46, 41
1, 571693, Control_c, 0, 64, 0
1, 571886, Control_c, 0, 64, 127
1, 571920, Note_on_c, 0, 46, 0
1, 572160, Tempo, 465116
1, 572160, Note_on_c, 0, 50, 31
1, 572400, Note_on_c, 0, 50, 0
1, 572640, Tempo, 419580
1, 572640, Note_on_c, 0, 70, 0
1, 572640, Note_on_c, 0, 65, 0
1, 572640, Note_on_c, 0, 62, 0
1, 572640, Note_on_c, 0, 62, 38
1, 572640, Note_on_c, 0, 65, 38
1, 572640, Note_on_c, 0, 70, 45
1, 572640, Note_on_c, 0, 58, 31
1, 572640, Note_on_c, 0, 53, 25
1, 572651, Control_c, 0, 64, 0
1, 572823, Control_c, 0, 64, 127
1, 572880, Note_on_c, 0, 53, 0
1, 572880, Note_on_c, 0, 58, 0
1, 573120, Note_on_c, 0, 41, 46
1, 573360, Note_on_c, 0, 41, 0
1, 573455, Note_on_c, 0, 70, 0
1, 573455, Note_on_c, 0, 65, 0
1, 573455, Note_on_c, 0, 62, 0
1, 573480, Tempo, 415225
1, 573480, Note_on_c, 0, 75, 35
1, 573480, Note_on_c, 0, 65, 35
1, 573480, Note_on_c, 0, 72, 42
1, 573540, Note_on_c, 0, 72, 0
1, 573540, Note_on_c, 0, 65, 0
1, 573540, Note_on_c, 0, 75, 0
1, 573600, Tempo, 402685
1, 573600, Note_on_c, 0, 75, 38
1, 573600, Note_on_c, 0, 65, 38
1, 573600, Note_on_c, 0, 72, 45
1, 573600, Note_on_c, 0, 51, 31
1, 573720, Note_on_c, 0, 72, 0
1, 573720, Note_on_c, 0, 75, 0
1, 573720, Note_on_c, 0, 65, 0
1, 573840, Note_on_c, 0, 51, 0
1, 573960, Note_on_c, 0, 75, 34
1, 573960, Note_on_c, 0, 65, 34
1, 573960, Note_on_c, 0, 72, 41
1, 574020, Note_on_c, 0, 72, 0
1, 574020, Note_on_c, 0, 65, 0
1, 574020, Note_on_c, 0, 75, 0
1, 574080, Tempo, 393443
1, 574080, Note_on_c, 0, 74, 36
1, 574080, Note_on_c, 0, 65, 36
1, 574080, Note_on_c, 0, 70, 44
1, 574080, Note_on_c, 0, 57, 30
1, 574080, Note_on_c, 0, 53, 25
1, 574200, Note_on_c, 0, 70, 0
1, 574200, Note_on_c, 0, 74, 0
1, 574200, Note_on_c, 0, 65, 0
1, 574320, Tempo, 510638
1, 574320, Note_on_c, 0, 57, 0
1, 574320, Note_on_c, 0, 53, 0
1, 574440, Note_on_c, 0, 72, 39
1, 574440, Note_on_c, 0, 65, 33
1, 574440, Note_on_c, 0, 69, 39
1, 574500, Note_on_c, 0, 69, 0
1, 574500, Note_on_c, 0, 65, 0
1, 574500, Note_on_c, 0, 72, 0
1, 574560, Tempo, 449438
1, 574560, Note_on_c, 0, 62, 31
1, 574560, Note_on_c, 0, 65, 31
1, 574560, Note_on_c, 0, 70, 37
1, 574560, Note_on_c, 0, 46, 34
1, 574573, Control_c, 0, 64, 0
1, 574652, Control_c, 0, 64, 127
1, 574910, Note_on_c, 0, 46, 0
1, 574910, Note_on_c, 0, 62, 0
1, 574910, Note_on_c, 0, 65, 0
1, 574910, Note_on_c, 0, 70, 0
1, 574920, Tempo, 387097
1, 574920, Note_on_c, 0, 46, 70
1, 574920, Note_on_c, 0, 34, 60
1, 574927, Control_c, 0, 64, 0
1, 574980, Note_on_c, 0, 34, 0
1, 574980, Note_on_c, 0, 46, 0
1, 575040, Note_on_c, 0, 46, 76
1, 575040, Note_on_c, 0, 34, 64
1, 575093, Control_c, 0, 64, 127
1, 575160, Note_on_c, 0, 34, 0
1, 575160, Note_on_c, 0, 46, 0
1, 575270, Control_c, 0, 64, 0
1, 575280, Tempo, 370370
1, 575400, Note_on_c, 0, 46, 70
1, 575400, Note_on_c, 0, 34, 59
1, 575460, Note_on_c, 0, 34, 0
1, 575460, Note_on_c, 0, 46, 0
1, 575520, Tempo, 362538
1, 575520, Note_on_c, 0, 46, 75
1, 575520, Note_on_c, 0, 34, 64
1, 575574, Control_c, 0, 64, 127
1, 575640, Note_on_c, 0, 34, 0
1, 575640, Note_on_c, 0, 46, 0
1, 575711, Control_c, 0, 64, 0
1, 575760, Tempo, 373832
1, 575880, Note_on_c, 0, 48, 70
1, 575880, Note_on_c, 0, 36, 60
1, 575940, Note_on_c, 0, 36, 0
1, 575940, Note_on_c, 0, 48, 0
1, 576000, Tempo, 393443
1, 576000, Note_on_c, 0, 50, 75
1, 576000, Note_on_c, 0, 38, 67
1, 576092, Control_c, 0, 64, 127
1, 576350, Note_on_c, 0, 38, 0
1, 576350, Note_on_c, 0, 50, 0
1, 576360, Tempo, 387097
1, 576360, Note_on_c, 0, 50, 59
1, 576360, Note_on_c, 0, 62, 70
1, 576360, Note_on_c, 0, 38, 60
1, 576367, Control_c, 0, 64, 0
1, 576420, Note_on_c, 0, 38, 0
1, 576420, Note_on_c, 0, 62, 0
1, 576420, Note_on_c, 0, 50, 0
1, 576480, Note_on_c, 0, 50, 64
1, 576480, Note_on_c, 0, 62, 76
1, 576480, Note_on_c, 0, 38, 64
1, 576533, Control_c, 0, 64, 127
1, 576600, Note_on_c, 0, 38, 0
1, 576600, Note_on_c, 0, 62, 0
1, 576600, Note_on_c, 0, 50, 0
1, 576710, Control_c, 0, 64, 0
1, 576720, Tempo, 369231
1, 576840, Note_on_c, 0, 50, 59
1, 576840, Note_on_c, 0, 62, 70
1, 576840, Note_on_c, 0, 38, 59
1, 576900, Note_on_c, 0, 38, 0
1, 576900, Note_on_c, 0, 62, 0
1, 576900, Note_on_c, 0, 50, 0
1, 576960, Tempo, 363636
1, 576960, Note_on_c, 0, 50, 63
1, 576960, Note_on_c, 0, 62, 75
1, 576960, Note_on_c, 0, 38, 64
1, 577014, Control_c, 0, 64, 127
1, 577080, Note_on_c, 0, 38, 0
1, 577080, Note_on_c, 0, 62, 0
1, 577080, Note_on_c, 0, 50, 0
1, 577151, Control_c, 0, 64, 0
1, 577200, Tempo, 377358
1, 577320, Note_on_c, 0, 52, 59
1, 577320, Note_on_c, 0, 64, 70
1, 577320, Note_on_c, 0, 40, 60
1, 577380, Note_on_c, 0, 40, 0
1, 577380, Note_on_c, 0, 64, 0
1, 577380, Note_on_c, 0, 52, 0
1, 577440, Tempo, 393443
1, 577440, Note_on_c, 0, 65, 82
1, 577440, Note_on_c, 0, 53, 69
1, 577440, Note_on_c, 0, 41, 73
1, 577532, Control_c, 0, 64, 127
1, 577790, Note_on_c, 0, 41, 0
1, 577790, Note_on_c, 0, 65, 0
1, 577800, Tempo, 387097
1, 577800, Note_on_c, 0, 53, 0
1, 577800, Note_on_c, 0, 53, 77
1, 577800, Note_on_c, 0, 41, 66
1, 577807, Control_c, 0, 64, 0
1, 577860, Note_on_c, 0, 41, 0
1, 577860, Note_on_c, 0, 53, 0
1, 577920, Note_on_c, 0, 53, 83
1, 577920, Note_on_c, 0, 41, 70
1, 577973, Control_c, 0, 64, 127
1, 578040, Note_on_c, 0, 41, 0
1, 578040, Note_on_c, 0, 53, 0
1, 578150, Control_c, 0, 64, 0
1, 578160, Tempo, 371517
1, 578280, Note_on_c, 0, 53, 77
1, 578280, Note_on_c, 0, 41, 64
1, 578340, Note_on_c, 0, 41, 0
1, 578340, Note_on_c, 0, 53, 0
1, 578400, Tempo, 363636
1, 578400, Note_on_c, 0, 53, 82
1, 578400, Note_on_c, 0, 41, 70
1, 578454, Control_c, 0, 64, 127
1, 578520, Note_on_c, 0, 41, 0
1, 578520, Note_on_c, 0, 53, 0
1, 578591, Control_c, 0, 64, 0
1, 578640, Tempo, 377358
1, 578760, Note_on_c, 0, 55, 77
1, 578760, Note_on_c, 0, 43, 66
1, 578820, Note_on_c, 0, 43, 0
1, 578820, Note_on_c, 0, 55, 0
1, 578880, Tempo, 393443
1, 578880, Note_on_c, 0, 57, 90
1, 578880, Note_on_c, 0, 45, 80
1, 578972, Control_c, 0, 64, 127
1, 579230, Note_on_c, 0, 45, 0
1, 579230, Note_on_c, 0, 57, 0
1, 579240, Tempo, 387097
1, 579240, Note_on_c, 0, 57, 60
1, 579240, Note_on_c, 0, 69, 71
1, 579240, Note_on_c, 0, 33, 52
1, 579240, Note_on_c, 0, 45, 61
1, 579247, Control_c, 0, 64, 0
1, 579300, Note_on_c, 0, 45, 0
1, 579300, Note_on_c, 0, 57, 0
1, 579300, Note_on_c, 0, 69, 0
1, 579300, Note_on_c, 0, 33, 0
1, 579360, Note_on_c, 0, 69, 78
1, 579360, Note_on_c, 0, 57, 65
1, 579360, Note_on_c, 0, 33, 55
1, 579360, Note_on_c, 0, 45, 65
1, 579413, Control_c, 0, 64, 127
1, 579480, Note_on_c, 0, 45, 0
1, 579480, Note_on_c, 0, 69, 0
1, 579480, Note_on_c, 0, 57, 0
1, 579480, Note_on_c, 0, 33, 0
1, 579590, Control_c, 0, 64, 0
1, 579600, Tempo, 371517
1, 579720, Note_on_c, 0, 59, 61
1, 579720, Note_on_c, 0, 71, 73
1, 579720, Note_on_c, 0, 35, 52
1, 579720, Note_on_c, 0, 47, 61
1, 579780, Note_on_c, 0, 47, 0
1, 579780, Note_on_c, 0, 59, 0
1, 579780, Note_on_c, 0, 71, 0
1, 579780, Note_on_c, 0, 35, 0
1, 579840, Tempo, 363636
1, 579840, Note_on_c, 0, 73, 79
1, 579840, Note_on_c, 0, 61, 66
1, 579840, Note_on_c, 0, 37, 57
1, 579840, Note_on_c, 0, 49, 67
1, 579894, Control_c, 0, 64, 127
1, 579960, Note_on_c, 0, 49, 0
1, 579960, Note_on_c, 0, 73, 0
1, 579960, Note_on_c, 0, 61, 0
1, 579960, Note_on_c, 0, 37, 0
1, 580031, Control_c, 0, 64, 0
1, 580080, Tempo, 377358
1, 580200, Note_on_c, 0, 62, 64
1, 580200, Note_on_c, 0, 74, 76
1, 580200, Note_on_c, 0, 38, 55
1, 580200, Note_on_c, 0, 50, 65
1, 580260, Note_on_c, 0, 50, 0
1, 580260, Note_on_c, 0, 62, 0
1, 580260, Note_on_c, 0, 74, 0
1, 580260, Note_on_c, 0, 38, 0
1, 580320, Tempo, 389610
1, 580320, Note_on_c, 0, 64, 70
1, 580320, Note_on_c, 0, 69, 70
1, 580320, Note_on_c, 0, 73, 70
1, 580320, Note_on_c, 0, 76, 83
1, 580320, Note_on_c, 0, 45, 58
1, 580320, Note_on_c, 0, 40, 58
1, 580320, Note_on_c, 0, 49, 58
1, 580320, Note_on_c, 0, 52, 70
1, 580560, Control_c, 0, 64, 127
1, 581251, Note_on_c, 0, 52, 0
1, 581251, Note_on_c, 0, 64, 0
1, 581251, Note_on_c, 0, 76, 0
1, 581251, Note_on_c, 0, 49, 0
1, 581251, Note_on_c, 0, 69, 0
1, 581251, Note_on_c, 0, 40, 0
1, 581280, Tempo, 387097
1, 581280, Note_on_c, 0, 73, 0
1, 581280, Note_on_c, 0, 45, 0
1, 581280, Note_on_c, 0, 76, 83
1, 581280, Note_on_c, 0, 73, 70
1, 581280, Note_on_c, 0, 69, 70
1, 581280, Note_on_c, 0, 64, 70
1, 581280, Note_on_c, 0, 45, 58
1, 581280, Note_on_c, 0, 40, 58
1, 581280, Note_on_c, 0, 49, 58
1, 581280, Note_on_c, 0, 52, 70
1, 582095, Note_on_c, 0, 52, 0
1, 582095, Note_on_c, 0, 76, 0
1, 582095, Note_on_c, 0, 45, 0
1, 582095, Note_on_c, 0, 73, 0
1, 582095, Note_on_c, 0, 69, 0
1, 582095, Note_on_c, 0, 64, 0
1, 582095, Note_on_c, 0, 40, 0
1, 582095, Note_on_c, 0, 49, 0
1, 582120, Note_on_c, 0, 68, 58
1, 582120, Note_on_c, 0, 74, 58
1, 582120, Note_on_c, 0, 76, 73
1, 582120, Note_on_c, 0, 40, 56
1, 582120, Note_on_c, 0, 52, 66
1, 582130, Control_c, 0, 64, 0
1, 582234, Note_on_c, 0, 76, 0
1, 582234, Note_on_c, 0, 68, 0
1, 582234, Note_on_c, 0, 74, 0
1, 582240, Tempo, 382166
1, 582240, Note_on_c, 0, 40, 0
1, 582240, Note_on_c, 0, 52, 0
1, 582240, Note_on_c, 0, 68, 66
1, 582240, Note_on_c, 0, 74, 66
1, 582240, Note_on_c, 0, 76, 82
1, 582240, Note_on_c, 0, 40, 58
1, 582240, Note_on_c, 0, 52, 69
1, 582331, Control_c, 0, 64, 127
1, 582572, Note_on_c, 0, 52, 0
1, 582572, Note_on_c, 0, 40, 0
1, 582573, Note_on_c, 0, 76, 0
1, 582582, Note_on_c, 0, 74, 0
1, 582582, Note_on_c, 0, 68, 0
1, 582600, Note_on_c, 0, 74, 63
1, 582600, Note_on_c, 0, 76, 80
1, 582600, Note_on_c, 0, 68, 63
1, 582600, Note_on_c, 0, 38, 55
1, 582600, Note_on_c, 0, 50, 65
1, 582714, Note_on_c, 0, 68, 0
1, 582714, Note_on_c, 0, 74, 0
1, 582714, Note_on_c, 0, 76, 0
1, 582720, Tempo, 375000
1, 582720, Note_on_c, 0, 38, 0
1, 582720, Note_on_c, 0, 50, 0
1, 582720, Note_on_c, 0, 68, 67
1, 582720, Note_on_c, 0, 78, 85
1, 582720, Note_on_c, 0, 74, 67
1, 582720, Note_on_c, 0, 37, 60
1, 582720, Note_on_c, 0, 49, 72
1, 582727, Control_c, 0, 64, 0
1, 582819, Control_c, 0, 64, 127
1, 582960, Tempo, 452830
1, 583052, Note_on_c, 0, 49, 0
1, 583052, Note_on_c, 0, 37, 0
1, 583062, Note_on_c, 0, 68, 0
1, 583062, Note_on_c, 0, 78, 0
1, 583062, Note_on_c, 0, 74, 0
1, 583080, Note_on_c, 0, 68, 65
1, 583080, Note_on_c, 0, 80, 83
1, 583080, Note_on_c, 0, 74, 65
1, 583080, Note_on_c, 0, 35, 62
1, 583080, Note_on_c, 0, 47, 74
1, 583200, Tempo, 388350
1, 583200, Note_on_c, 0, 47, 0
1, 583200, Note_on_c, 0, 74, 0
1, 583200, Note_on_c, 0, 68, 0
1, 583200, Note_on_c, 0, 80, 0
1, 583200, Note_on_c, 0, 35, 0
1, 583200, Note_on_c, 0, 69, 78
1, 583200, Note_on_c, 0, 73, 78
1, 583200, Note_on_c, 0, 81, 93
1, 583200, Note_on_c, 0, 33, 65
1, 583200, Note_on_c, 0, 45, 74
1, 583206, Control_c, 0, 64, 0
1, 583520, Control_c, 0, 64, 127
1, 584131, Note_on_c, 0, 45, 0
1, 584131, Note_on_c, 0, 81, 0
1, 584131, Note_on_c, 0, 69, 0
1, 584131, Note_on_c, 0, 73, 0
1, 584131, Note_on_c, 0, 33, 0
1, 584160, Note_on_c, 0, 69, 78
1, 584160, Note_on_c, 0, 73, 78
1, 584160, Note_on_c, 0, 81, 93
1, 584160, Note_on_c, 0, 40, 65
1, 584160, Note_on_c, 0, 33, 65
1, 584160, Note_on_c, 0, 45, 74
1, 584170, Control_c, 0, 64, 0
1, 584374, Control_c, 0, 64, 127
1, 584980, Note_on_c, 0, 45, 0
1, 584980, Note_on_c, 0, 73, 0
1, 584980, Note_on_c, 0, 81, 0
1, 584980, Note_on_c, 0, 69, 0
1, 584980, Note_on_c, 0, 33, 0
1, 584980, Note_on_c, 0, 40, 0
1, 585000, Tempo, 387097
1, 585000, Note_on_c, 0, 57, 47
1, 585000, Note_on_c, 0, 61, 56
1, 585000, Note_on_c, 0, 55, 47
1, 585000, Note_on_c, 0, 45, 48
1, 585005, Control_c, 0, 64, 0
1, 585060, Note_on_c, 0, 45, 0
1, 585060, Note_on_c, 0, 57, 0
1, 585060, Note_on_c, 0, 61, 0
1, 585060, Note_on_c, 0, 55, 0
1, 585120, Tempo, 380952
1, 585120, Note_on_c, 0, 57, 51
1, 585120, Note_on_c, 0, 62, 60
1, 585120, Note_on_c, 0, 55, 51
1, 585120, Note_on_c, 0, 47, 51
1, 585142, Control_c, 0, 64, 127
1, 585480, Note_on_c, 0, 47, 0
1, 585480, Note_on_c, 0, 57, 0
1, 585480, Note_on_c, 0, 62, 0
1, 585480, Note_on_c, 0, 55, 0
1, 585480, Note_on_c, 0, 57, 47
1, 585480, Note_on_c, 0, 61, 56
1, 585480, Note_on_c, 0, 55, 47
1, 585480, Note_on_c, 0, 45, 47
1, 585490, Control_c, 0, 64, 0
1, 585540, Note_on_c, 0, 45, 0
1, 585540, Note_on_c, 0, 57, 0
1, 585540, Note_on_c, 0, 61, 0
1, 585540, Note_on_c, 0, 55, 0
1, 585600, Tempo, 372671
1, 585600, Note_on_c, 0, 55, 50
1, 585600, Note_on_c, 0, 62, 60
1, 585600, Note_on_c, 0, 57, 50
1, 585600, Note_on_c, 0, 47, 51
1, 585654, Control_c, 0, 64, 127
1, 585840, Tempo, 412371
1, 585960, Note_on_c, 0, 47, 0
1, 585960, Note_on_c, 0, 55, 0
1, 585960, Note_on_c, 0, 62, 0
1, 585960, Note_on_c, 0, 57, 0
1, 585960, Note_on_c, 0, 55, 47
1, 585960, Note_on_c, 0, 64, 56
1, 585960, Note_on_c, 0, 57, 47
1, 585960, Note_on_c, 0, 49, 48
1, 585969, Control_c, 0, 64, 0
1, 586020, Note_on_c, 0, 49, 0
1, 586020, Note_on_c, 0, 55, 0
1, 586020, Note_on_c, 0, 64, 0
1, 586020, Note_on_c, 0, 57, 0
1, 586080, Tempo, 392157
1, 586080, Note_on_c, 0, 54, 54
1, 586080, Note_on_c, 0, 57, 64
1, 586080, Note_on_c, 0, 50, 54
1, 586320, Control_c, 0, 64, 127
1, 587011, Note_on_c, 0, 50, 0
1, 587011, Note_on_c, 0, 57, 0
1, 587011, Note_on_c, 0, 54, 0
1, 587040, Tempo, 387097
1, 587040, Note_on_c, 0, 66, 64
1, 587040, Note_on_c, 0, 57, 54
1, 587040, Note_on_c, 0, 50, 45
1, 587040, Note_on_c, 0, 54, 54
1, 587855, Note_on_c, 0, 54, 0
1, 587855, Note_on_c, 0, 66, 0
1, 587855, Note_on_c, 0, 57, 0
1, 587855, Note_on_c, 0, 50, 0
1, 587880, Note_on_c, 0, 57, 53
1, 587880, Note_on_c, 0, 66, 53
1, 587880, Note_on_c, 0, 50, 44
1, 587895, Control_c, 0, 64, 0
1, 587990, Note_on_c, 0, 50, 0
1, 588000, Tempo, 384615
1, 588000, Note_on_c, 0, 66, 0
1, 588000, Note_on_c, 0, 57, 0
1, 588000, Note_on_c, 0, 55, 60
1, 588000, Note_on_c, 0, 67, 60
1, 588000, Note_on_c, 0, 50, 50
1, 588000, Note_on_c, 0, 47, 42
1, 588092, Control_c, 0, 64, 127
1, 588120, Note_on_c, 0, 47, 0
1, 588120, Note_on_c, 0, 55, 0
1, 588120, Note_on_c, 0, 67, 0
1, 588120, Note_on_c, 0, 50, 0
1, 588269, Control_c, 0, 64, 0
1, 588360, Note_on_c, 0, 66, 56
1, 588360, Note_on_c, 0, 55, 56
1, 588360, Note_on_c, 0, 50, 47
1, 588360, Note_on_c, 0, 47, 40
1, 588474, Note_on_c, 0, 46, 41
1, 588480, Tempo, 376176
1, 588480, Note_on_c, 0, 47, 0
1, 588480, Note_on_c, 0, 50, 0
1, 588480, Note_on_c, 0, 66, 0
1, 588480, Note_on_c, 0, 55, 0
1, 588480, Note_on_c, 0, 64, 59
1, 588480, Note_on_c, 0, 56, 59
1, 588486, Note_on_c, 0, 50, 49
1, 588549, Control_c, 0, 64, 127
1, 588594, Note_on_c, 0, 46, 0
1, 588600, Note_on_c, 0, 64, 0
1, 588600, Note_on_c, 0, 56, 0
1, 588606, Note_on_c, 0, 50, 0
1, 588663, Control_c, 0, 64, 0
1, 588720, Tempo, 436364
1, 588840, Note_on_c, 0, 62, 56
1, 588840, Note_on_c, 0, 56, 56
1, 588840, Note_on_c, 0, 46, 40
1, 588840, Note_on_c, 0, 50, 47
1, 588960, Tempo, 389610
1, 588960, Note_on_c, 0, 50, 0
1, 588960, Note_on_c, 0, 62, 0
1, 588960, Note_on_c, 0, 56, 0
1, 588960, Note_on_c, 0, 46, 0
1, 588960, Note_on_c, 0, 57, 54
1, 588960, Note_on_c, 0, 69, 64
1, 588960, Note_on_c, 0, 61, 54
1, 588960, Note_on_c, 0, 45, 45
1, 588960, Note_on_c, 0, 52, 54
1, 589200, Control_c, 0, 64, 127
1, 589891, Note_on_c, 0, 52, 0
1, 589891, Note_on_c, 0, 61, 0
1, 589891, Note_on_c, 0, 57, 0
1, 589891, Note_on_c, 0, 69, 0
1, 589891, Note_on_c, 0, 45, 0
1, 589920, Tempo, 387097
1, 589920, Note_on_c, 0, 61, 54
1, 589920, Note_on_c, 0, 64, 64
1, 589920, Note_on_c, 0, 45, 45
1, 589920, Note_on_c, 0, 57, 54
1, 590735, Note_on_c, 0, 57, 0
1, 590735, Note_on_c, 0, 61, 0
1, 590735, Note_on_c, 0, 64, 0
1, 590735, Note_on_c, 0, 45, 0
1, 590760, Tempo, 387097
1, 590760, Note_on_c, 0, 69, 53
1, 590760, Note_on_c, 0, 64, 53
1, 590760, Note_on_c, 0, 49, 35
1, 590760, Note_on_c, 0, 57, 44
1, 590775, Control_c, 0, 64, 0
1, 590820, Note_on_c, 0, 69, 0
1, 590820, Note_on_c, 0, 73, 53
1, 590870, Note_on_c, 0, 57, 0
1, 590870, Note_on_c, 0, 49, 0
1, 590880, Tempo, 382166
1, 590880, Note_on_c, 0, 64, 0
1, 590880, Note_on_c, 0, 73, 0
1, 590880, Note_on_c, 0, 71, 60
1, 590880, Note_on_c, 0, 64, 60
1, 590880, Note_on_c, 0, 57, 50
1, 590880, Note_on_c, 0, 49, 42
1, 590972, Control_c, 0, 64, 127
1, 591000, Note_on_c, 0, 49, 0
1, 591000, Note_on_c, 0, 71, 0
1, 591000, Note_on_c, 0, 64, 0
1, 591000, Note_on_c, 0, 57, 0
1, 591099, Control_c, 0, 64, 0
1, 591240, Note_on_c, 0, 64, 56
1, 591240, Note_on_c, 0, 69, 56
1, 591240, Note_on_c, 0, 57, 47
1, 591240, Note_on_c, 0, 49, 40
1, 591360, Tempo, 377358
1, 591360, Note_on_c, 0, 49, 0
1, 591360, Note_on_c, 0, 64, 0
1, 591360, Note_on_c, 0, 69, 0
1, 591360, Note_on_c, 0, 57, 0
1, 591360, Note_on_c, 0, 64, 59
1, 591360, Note_on_c, 0, 71, 59
1, 591360, Note_on_c, 0, 49, 41
1, 591360, Note_on_c, 0, 57, 49
1, 591429, Control_c, 0, 64, 127
1, 591480, Note_on_c, 0, 57, 0
1, 591480, Note_on_c, 0, 64, 0
1, 591480, Note_on_c, 0, 71, 0
1, 591480, Note_on_c, 0, 49, 0
1, 591543, Control_c, 0, 64, 0
1, 591600, Tempo, 449438
1, 591720, Note_on_c, 0, 64, 56
1, 591720, Note_on_c, 0, 73, 56
1, 591720, Note_on_c, 0, 49, 40
1, 591720, Note_on_c, 0, 57, 47
1, 591840, Tempo, 389610
1, 591840, Note_on_c, 0, 57, 0
1, 591840, Note_on_c, 0, 64, 0
1, 591840, Note_on_c, 0, 73, 0
1, 591840, Note_on_c, 0, 49, 0
1, 591840, Note_on_c, 0, 74, 64
1, 591840, Note_on_c, 0, 62, 54
1, 591840, Note_on_c, 0, 66, 54
1, 591840, Note_on_c, 0, 54, 45
1, 591840, Note_on_c, 0, 47, 45
1, 591840, Note_on_c, 0, 59, 54
1, 592080, Control_c, 0, 64, 127
1, 592771, Note_on_c, 0, 59, 0
1, 592771, Note_on_c, 0, 62, 0
1, 592771, Note_on_c, 0, 74, 0
1, 592771, Note_on_c, 0, 66, 0
1, 592771, Note_on_c, 0, 47, 0
1, 592800, Tempo, 387097
1, 592800, Note_on_c, 0, 54, 0
1, 592800, Note_on_c, 0, 66, 64
1, 592800, Note_on_c, 0, 62, 54
1, 592800, Note_on_c, 0, 50, 45
1, 592800, Note_on_c, 0, 59, 54
1, 593615, Note_on_c, 0, 59, 0
1, 593615, Note_on_c, 0, 66, 0
1, 593615, Note_on_c, 0, 62, 0
1, 593615, Note_on_c, 0, 50, 0
1, 593640, Tempo, 387097
1, 593640, Note_on_c, 0, 62, 53
1, 593640, Note_on_c, 0, 66, 53
1, 593640, Note_on_c, 0, 52, 35
1, 593640, Note_on_c, 0, 59, 44
1, 593655, Control_c, 0, 64, 0
1, 593700, Note_on_c, 0, 66, 0
1, 593700, Note_on_c, 0, 69, 53
1, 593750, Note_on_c, 0, 59, 0
1, 593750, Note_on_c, 0, 52, 0
1, 593760, Tempo, 384615
1, 593760, Note_on_c, 0, 62, 0
1, 593760, Note_on_c, 0, 69, 0
1, 593760, Note_on_c, 0, 68, 60
1, 593760, Note_on_c, 0, 62, 60
1, 593760, Note_on_c, 0, 59, 50
1, 593760, Note_on_c, 0, 52, 42
1, 593852, Control_c, 0, 64, 127
1, 593880, Note_on_c, 0, 52, 0
1, 593880, Note_on_c, 0, 68, 0
1, 593880, Note_on_c, 0, 62, 0
1, 593880, Note_on_c, 0, 59, 0
1, 593983, Control_c, 0, 64, 0
1, 594120, Note_on_c, 0, 62, 56
1, 594120, Note_on_c, 0, 66, 56
1, 594120, Note_on_c, 0, 59, 47
1, 594120, Note_on_c, 0, 52, 40
1, 594240, Tempo, 376176
1, 594240, Note_on_c, 0, 52, 0
1, 594240, Note_on_c, 0, 62, 0
1, 594240, Note_on_c, 0, 66, 0
1, 594240, Note_on_c, 0, 59, 0
1, 594240, Note_on_c, 0, 62, 59
1, 594240, Note_on_c, 0, 68, 59
1, 594240, Note_on_c, 0, 52, 41
1, 594240, Note_on_c, 0, 59, 49
1, 594309, Control_c, 0, 64, 127
1, 594360, Note_on_c, 0, 59, 0
1, 594360, Note_on_c, 0, 62, 0
1, 594360, Note_on_c, 0, 68, 0
1, 594360, Note_on_c, 0, 52, 0
1, 594423, Control_c, 0, 64, 0
1, 594480, Tempo, 449438
1, 594600, Note_on_c, 0, 64, 56
1, 594600, Note_on_c, 0, 62, 56
1, 594600, Note_on_c, 0, 52, 40
1, 594600, Note_on_c, 0, 59, 47
1, 594720, Tempo, 401338
1, 594720, Note_on_c, 0, 59, 0
1, 594720, Note_on_c, 0, 64, 0
1, 594720, Note_on_c, 0, 62, 0
1, 594720, Note_on_c, 0, 52, 0
1, 594720, Note_on_c, 0, 71, 64
1, 594720, Note_on_c, 0, 61, 54
1, 594720, Note_on_c, 0, 52, 45
1, 594720, Note_on_c, 0, 45, 45
1, 594720, Note_on_c, 0, 57, 54
1, 594960, Control_c, 0, 64, 127
1, 595651, Note_on_c, 0, 57, 0
1, 595651, Note_on_c, 0, 61, 0
1, 595651, Note_on_c, 0, 71, 0
1, 595651, Note_on_c, 0, 45, 0
1, 595680, Tempo, 387097
1, 595680, Note_on_c, 0, 52, 0
1, 595680, Note_on_c, 0, 61, 54
1, 595680, Note_on_c, 0, 69, 64
1, 595680, Note_on_c, 0, 45, 45
1, 595680, Note_on_c, 0, 52, 45
1, 595680, Note_on_c, 0, 57, 54
1, 595690, Control_c, 0, 64, 0
1, 595947, Control_c, 0, 64, 127
1, 596630, Note_on_c, 0, 57, 0
1, 596630, Note_on_c, 0, 45, 0
1, 596630, Note_on_c, 0, 61, 0
1, 596630, Note_on_c, 0, 69, 0
1, 596630, Note_on_c, 0, 52, 0
1, 596640, Tempo, 380952
1, 596640, Note_on_c, 0, 62, 56
1, 596640, Note_on_c, 0, 69, 67
1, 596640, Note_on_c, 0, 66, 56
1, 596640, Note_on_c, 0, 50, 45
1, 596644, Control_c, 0, 64, 0
1, 597096, Note_on_c, 0, 50, 0
1, 597096, Note_on_c, 0, 62, 0
1, 597096, Note_on_c, 0, 69, 0
1, 597096, Note_on_c, 0, 66, 0
1, 597120, Tempo, 385852
1, 597120, Note_on_c, 0, 66, 53
1, 597120, Note_on_c, 0, 70, 63
1, 597120, Note_on_c, 0, 62, 53
1, 597120, Note_on_c, 0, 49, 37
1, 597586, Note_on_c, 0, 49, 0
1, 597586, Note_on_c, 0, 66, 0
1, 597586, Note_on_c, 0, 70, 0
1, 597586, Note_on_c, 0, 62, 0
1, 597600, Tempo, 352941
1, 597600, Note_on_c, 0, 71, 60
1, 597600, Note_on_c, 0, 67, 51
1, 597600, Note_on_c, 0, 62, 51
1, 597600, Note_on_c, 0, 47, 67
1, 597760, Note_on_c, 0, 47, 0
1, 597760, Note_on_c, 0, 46, 57
1, 597920, Note_on_c, 0, 46, 0
1, 597920, Note_on_c, 0, 47, 57
1, 598080, Tempo, 356083
1, 598080, Note_on_c, 0, 47, 0
1, 598080, Note_on_c, 0, 43, 68
1, 598240, Note_on_c, 0, 43, 0
1, 598240, Note_on_c, 0, 42, 61
1, 598400, Tempo, 401338
1, 598400, Note_on_c, 0, 42, 0
1, 598400, Note_on_c, 0, 43, 65
1, 598560, Tempo, 364742
1, 598560, Note_on_c, 0, 43, 0
1, 598560, Note_on_c, 0, 62, 0
1, 598560, Note_on_c, 0, 67, 0
1, 598560, Note_on_c, 0, 71, 0
1, 598560, Note_on_c, 0, 67, 56
1, 598560, Note_on_c, 0, 71, 56
1, 598560, Note_on_c, 0, 76, 67
1, 598560, Note_on_c, 0, 40, 74
1, 599026, Note_on_c, 0, 76, 0
1, 599026, Note_on_c, 0, 67, 0
1, 599026, Note_on_c, 0, 71, 0
1, 599040, Note_on_c, 0, 71, 57
1, 599040, Note_on_c, 0, 76, 57
1, 599040, Note_on_c, 0, 79, 68
1, 599280, Note_on_c, 0, 79, 0
1, 599280, Note_on_c, 0, 76, 0
1, 599280, Note_on_c, 0, 71, 0
1, 599400, Note_on_c, 0, 40, 0
1, 599400, Note_on_c, 0, 42, 61
1, 599520, Note_on_c, 0, 42, 0
1, 599520, Note_on_c, 0, 67, 53
1, 599520, Note_on_c, 0, 71, 53
1, 599520, Note_on_c, 0, 76, 63
1, 599520, Note_on_c, 0, 43, 69
1, 599760, Note_on_c, 0, 71, 0
1, 599760, Note_on_c, 0, 67, 0
1, 599770, Note_on_c, 0, 76, 0
1, 599880, Note_on_c, 0, 43, 0
1, 599880, Note_on_c, 0, 45, 62
1, 600000, Tempo, 361446
1, 600000, Note_on_c, 0, 45, 0
1, 600000, Note_on_c, 0, 61, 49
1, 600000, Note_on_c, 0, 64, 49
1, 600000, Note_on_c, 0, 67, 58
1, 600000, Note_on_c, 0, 47, 70
1, 600240, Note_on_c, 0, 67, 0
1, 600240, Note_on_c, 0, 61, 0
1, 600240, Note_on_c, 0, 64, 0
1, 600320, Tempo, 400000
1, 600360, Note_on_c, 0, 47, 0
1, 600360, Note_on_c, 0, 49, 62
1, 600480, Tempo, 351906
1, 600480, Note_on_c, 0, 49, 0
1, 600480, Note_on_c, 0, 61, 55
1, 600480, Note_on_c, 0, 66, 55
1, 600480, Note_on_c, 0, 69, 65
1, 600480, Note_on_c, 0, 45, 69
1, 600640, Note_on_c, 0, 45, 0
1, 600640, Note_on_c, 0, 44, 63
1, 600800, Note_on_c, 0, 44, 0
1, 600800, Note_on_c, 0, 45, 59
1, 600960, Tempo, 359281
1, 600960, Note_on_c, 0, 45, 0
1, 600960, Note_on_c, 0, 42, 68
1, 601120, Note_on_c, 0, 42, 0
1, 601120, Note_on_c, 0, 41, 65
1, 601280, Tempo, 401338
1, 601280, Note_on_c, 0, 41, 0
1, 601280, Note_on_c, 0, 42, 69
1, 601440, Tempo, 364742
1, 601440, Note_on_c, 0, 42, 0
1, 601440, Note_on_c, 0, 69, 0
1, 601440, Note_on_c, 0, 66, 0
1, 601440, Note_on_c, 0, 61, 0
1, 601440, Note_on_c, 0, 66, 59
1, 601440, Note_on_c, 0, 69, 59
1, 601440, Note_on_c, 0, 74, 70
1, 601440, Note_on_c, 0, 38, 74
1, 601906, Note_on_c, 0, 74, 0
1, 601906, Note_on_c, 0, 66, 0
1, 601906, Note_on_c, 0, 69, 0
1, 601920, Note_on_c, 0, 69, 58
1, 601920, Note_on_c, 0, 74, 58
1, 601920, Note_on_c, 0, 78, 69
1, 602160, Note_on_c, 0, 78, 0
1, 602160, Note_on_c, 0, 74, 0
1, 602160, Note_on_c, 0, 69, 0
1, 602280, Note_on_c, 0, 38, 0
1, 602280, Note_on_c, 0, 40, 61
1, 602400, Note_on_c, 0, 40, 0
1, 602400, Note_on_c, 0, 66, 51
1, 602400, Note_on_c, 0, 69, 51
1, 602400, Note_on_c, 0, 74, 60
1, 602400, Note_on_c, 0, 42, 69
1, 602640, Note_on_c, 0, 74, 0
1, 602640, Note_on_c, 0, 66, 0
1, 602640, Note_on_c, 0, 69, 0
1, 602760, Note_on_c, 0, 42, 0
1, 602760, Note_on_c, 0, 43, 62
1, 602880, Tempo, 361446
1, 602880, Note_on_c, 0, 43, 0
1, 602880, Note_on_c, 0, 59, 47
1, 602880, Note_on_c, 0, 62, 47
1, 602880, Note_on_c, 0, 66, 56
1, 602880, Note_on_c, 0, 45, 70
1, 603120, Note_on_c, 0, 66, 0
1, 603120, Note_on_c, 0, 59, 0
1, 603120, Note_on_c, 0, 62, 0
1, 603200, Tempo, 400000
1, 603240, Note_on_c, 0, 45, 0
1, 603240, Note_on_c, 0, 47, 62
1, 603360, Tempo, 352941
1, 603360, Note_on_c, 0, 47, 0
1, 603360, Note_on_c, 0, 59, 56
1, 603360, Note_on_c, 0, 64, 56
1, 603360, Note_on_c, 0, 67, 67
1, 603360, Note_on_c, 0, 43, 70
1, 603520, Note_on_c, 0, 43, 0
1, 603520, Note_on_c, 0, 42, 58
1, 603680, Note_on_c, 0, 42, 0
1, 603680, Note_on_c, 0, 43, 58
1, 603840, Tempo, 361446
1, 603840, Note_on_c, 0, 43, 0
1, 603840, Note_on_c, 0, 40, 63
1, 604000, Note_on_c, 0, 40, 0
1, 604000, Note_on_c, 0, 39, 65
1, 604160, Tempo, 401338
1, 604160, Note_on_c, 0, 39, 0
1, 604160, Note_on_c, 0, 40, 68
1, 604320, Tempo, 364742
1, 604320, Note_on_c, 0, 40, 0
1, 604320, Note_on_c, 0, 67, 0
1, 604320, Note_on_c, 0, 64, 0
1, 604320, Note_on_c, 0, 59, 0
1, 604320, Note_on_c, 0, 64, 60
1, 604320, Note_on_c, 0, 67, 60
1, 604320, Note_on_c, 0, 73, 71
1, 604320, Note_on_c, 0, 37, 72
1, 604786, Note_on_c, 0, 73, 0
1, 604786, Note_on_c, 0, 64, 0
1, 604786, Note_on_c, 0, 67, 0
1, 604800, Note_on_c, 0, 67, 60
1, 604800, Note_on_c, 0, 73, 71
1, 604800, Note_on_c, 0, 76, 71
1, 605040, Note_on_c, 0, 76, 0
1, 605040, Note_on_c, 0, 73, 0
1, 605040, Note_on_c, 0, 67, 0
1, 605160, Note_on_c, 0, 37, 0
1, 605160, Note_on_c, 0, 38, 59
1, 605280, Tempo, 370370
1, 605280, Note_on_c, 0, 38, 0
1, 605280, Note_on_c, 0, 64, 55
1, 605280, Note_on_c, 0, 67, 55
1, 605280, Note_on_c, 0, 73, 65
1, 605280, Note_on_c, 0, 40, 73
1, 605520, Note_on_c, 0, 73, 0
1, 605520, Note_on_c, 0, 64, 0
1, 605520, Note_on_c, 0, 67, 0
1, 605640, Note_on_c, 0, 40, 0
1, 605640, Note_on_c, 0, 37, 57
1, 605760, Tempo, 390879
1, 605760, Note_on_c, 0, 37, 0
1, 605760, Note_on_c, 0, 61, 50
1, 605760, Note_on_c, 0, 68, 59
1, 605760, Note_on_c, 0, 71, 59
1, 605760, Note_on_c, 0, 41, 71
1, 606000, Note_on_c, 0, 71, 0
1, 606000, Note_on_c, 0, 61, 0
1, 606000, Note_on_c, 0, 68, 0
1, 606080, Tempo, 489796
1, 606120, Note_on_c, 0, 41, 0
1, 606120, Note_on_c, 0, 37, 58
1, 606240, Tempo, 398671
1, 606240, Note_on_c, 0, 37, 0
1, 606240, Note_on_c, 0, 66, 55
1, 606240, Note_on_c, 0, 61, 55
1, 606240, Note_on_c, 0, 70, 65
1, 606240, Note_on_c, 0, 42, 71
1, 606560, Control_c, 0, 64, 127
1, 607171, Note_on_c, 0, 42, 0
1, 607171, Note_on_c, 0, 70, 0
1, 607171, Note_on_c, 0, 61, 0
1, 607200, Tempo, 387097
1, 607200, Note_on_c, 0, 66, 0
1, 607200, Note_on_c, 0, 66, 51
1, 607200, Note_on_c, 0, 61, 51
1, 607200, Note_on_c, 0, 70, 60
1, 607200, Note_on_c, 0, 42, 68
1, 608015, Note_on_c, 0, 42, 0
1, 608015, Note_on_c, 0, 66, 0
1, 608015, Note_on_c, 0, 61, 0
1, 608015, Note_on_c, 0, 70, 0
1, 608040, Tempo, 387097
1, 608040, Note_on_c, 0, 66, 60
1, 608040, Note_on_c, 0, 73, 71
1, 608040, Note_on_c, 0, 46, 61
1, 608047, Control_c, 0, 64, 0
1, 608100, Note_on_c, 0, 46, 0
1, 608100, Note_on_c, 0, 73, 0
1, 608100, Note_on_c, 0, 66, 0
1, 608160, Note_on_c, 0, 66, 65
1, 608160, Note_on_c, 0, 75, 78
1, 608160, Note_on_c, 0, 47, 65
1, 608213, Control_c, 0, 64, 127
1, 608280, Note_on_c, 0, 47, 0
1, 608280, Note_on_c, 0, 75, 0
1, 608280, Note_on_c, 0, 66, 0
1, 608390, Control_c, 0, 64, 0
1, 608400, Tempo, 372671
1, 608520, Note_on_c, 0, 66, 61
1, 608520, Note_on_c, 0, 73, 73
1, 608520, Note_on_c, 0, 46, 61
1, 608580, Note_on_c, 0, 46, 0
1, 608580, Note_on_c, 0, 73, 0
1, 608580, Note_on_c, 0, 66, 0
1, 608640, Tempo, 366972
1, 608640, Note_on_c, 0, 66, 66
1, 608640, Note_on_c, 0, 75, 79
1, 608640, Note_on_c, 0, 47, 67
1, 608694, Control_c, 0, 64, 127
1, 608760, Note_on_c, 0, 47, 0
1, 608760, Note_on_c, 0, 75, 0
1, 608760, Note_on_c, 0, 66, 0
1, 608831, Control_c, 0, 64, 0
1, 608880, Tempo, 377358
1, 609000, Note_on_c, 0, 66, 64
1, 609000, Note_on_c, 0, 73, 76
1, 609000, Note_on_c, 0, 46, 65
1, 609060, Note_on_c, 0, 46, 0
1, 609060, Note_on_c, 0, 73, 0
1, 609060, Note_on_c, 0, 66, 0
1, 609120, Tempo, 389610
1, 609120, Note_on_c, 0, 71, 70
1, 609120, Note_on_c, 0, 65, 70
1, 609120, Note_on_c, 0, 77, 83
1, 609120, Note_on_c, 0, 44, 58
1, 609120, Note_on_c, 0, 49, 70
1, 609360, Control_c, 0, 64, 127
1, 610051, Note_on_c, 0, 49, 0
1, 610051, Note_on_c, 0, 77, 0
1, 610051, Note_on_c, 0, 65, 0
1, 610080, Tempo, 387097
1, 610080, Note_on_c, 0, 71, 0
1, 610080, Note_on_c, 0, 44, 0
1, 610080, Note_on_c, 0, 77, 83
1, 610080, Note_on_c, 0, 71, 70
1, 610080, Note_on_c, 0, 65, 70
1, 610080, Note_on_c, 0, 44, 58
1, 610080, Note_on_c, 0, 49, 70
1, 610895, Note_on_c, 0, 49, 0
1, 610895, Note_on_c, 0, 65, 0
1, 610895, Note_on_c, 0, 77, 0
1, 610895, Note_on_c, 0, 71, 0
1, 610895, Note_on_c, 0, 44, 0
1, 610920, Note_on_c, 0, 73, 58
1, 610920, Note_on_c, 0, 65, 58
1, 610920, Note_on_c, 0, 77, 73
1, 610920, Note_on_c, 0, 44, 56
1, 610920, Note_on_c, 0, 49, 66
1, 610930, Control_c, 0, 64, 0
1, 611034, Note_on_c, 0, 77, 0
1, 611034, Note_on_c, 0, 73, 0
1, 611034, Note_on_c, 0, 65, 0
1, 611040, Tempo, 382166
1, 611040, Note_on_c, 0, 44, 0
1, 611040, Note_on_c, 0, 49, 0
1, 611040, Note_on_c, 0, 73, 66
1, 611040, Note_on_c, 0, 65, 66
1, 611040, Note_on_c, 0, 77, 82
1, 611040, Note_on_c, 0, 46, 58
1, 611040, Note_on_c, 0, 49, 69
1, 611131, Control_c, 0, 64, 127
1, 611372, Note_on_c, 0, 49, 0
1, 611372, Note_on_c, 0, 77, 0
1, 611372, Note_on_c, 0, 46, 0
1, 611382, Note_on_c, 0, 65, 0
1, 611382, Note_on_c, 0, 73, 0
1, 611400, Note_on_c, 0, 77, 80
1, 611400, Note_on_c, 0, 65, 63
1, 611400, Note_on_c, 0, 73, 63
1, 611400, Note_on_c, 0, 44, 55
1, 611400, Note_on_c, 0, 49, 65
1, 611514, Note_on_c, 0, 73, 0
1, 611514, Note_on_c, 0, 77, 0
1, 611514, Note_on_c, 0, 65, 0
1, 611520, Tempo, 375000
1, 611520, Note_on_c, 0, 44, 0
1, 611520, Note_on_c, 0, 49, 0
1, 611520, Note_on_c, 0, 77, 85
1, 611520, Note_on_c, 0, 65, 67
1, 611520, Note_on_c, 0, 73, 67
1, 611520, Note_on_c, 0, 46, 60
1, 611520, Note_on_c, 0, 49, 72
1, 611527, Control_c, 0, 64, 0
1, 611619, Control_c, 0, 64, 127
1, 611760, Tempo, 452830
1, 611852, Note_on_c, 0, 49, 0
1, 611852, Note_on_c, 0, 46, 0
1, 611862, Note_on_c, 0, 77, 0
1, 611862, Note_on_c, 0, 65, 0
1, 611862, Note_on_c, 0, 73, 0
1, 611880, Note_on_c, 0, 77, 83
1, 611880, Note_on_c, 0, 65, 65
1, 611880, Note_on_c, 0, 73, 65
1, 611880, Note_on_c, 0, 44, 62
1, 611880, Note_on_c, 0, 49, 74
1, 612000, Tempo, 388350
1, 612000, Note_on_c, 0, 49, 0
1, 612000, Note_on_c, 0, 73, 0
1, 612000, Note_on_c, 0, 77, 0
1, 612000, Note_on_c, 0, 65, 0
1, 612000, Note_on_c, 0, 44, 0
1, 612000, Note_on_c, 0, 66, 78
1, 612000, Note_on_c, 0, 70, 78
1, 612000, Note_on_c, 0, 78, 93
1, 612000, Note_on_c, 0, 42, 65
1, 612000, Note_on_c, 0, 49, 74
1, 612006, Control_c, 0, 64, 0
1, 612320, Control_c, 0, 64, 127
1, 612931, Note_on_c, 0, 49, 0
1, 612931, Note_on_c, 0, 78, 0
1, 612931, Note_on_c, 0, 66, 0
1, 612931, Note_on_c, 0, 70, 0
1, 612931, Note_on_c, 0, 42, 0
1, 612960, Note_on_c, 0, 66, 78
1, 612960, Note_on_c, 0, 70, 78
1, 612960, Note_on_c, 0, 78, 93
1, 612960, Note_on_c, 0, 42, 65
1, 612960, Note_on_c, 0, 49, 74
1, 613780, Note_on_c, 0, 49, 0
1, 613780, Note_on_c, 0, 78, 0
1, 613780, Note_on_c, 0, 66, 0
1, 613780, Note_on_c, 0, 70, 0
1, 613780, Note_on_c, 0, 42, 0
1, 613800, Tempo, 387097
1, 613800, Note_on_c, 0, 73, 56
1, 613800, Note_on_c, 0, 67, 47
1, 613800, Note_on_c, 0, 69, 47
1, 613800, Note_on_c, 0, 57, 48
1, 613805, Control_c, 0, 64, 0
1, 613860, Note_on_c, 0, 57, 0
1, 613860, Note_on_c, 0, 73, 0
1, 613860, Note_on_c, 0, 67, 0
1, 613860, Note_on_c, 0, 69, 0
1, 613920, Tempo, 380952
1, 613920, Note_on_c, 0, 73, 60
1, 613920, Note_on_c, 0, 67, 51
1, 613920, Note_on_c, 0, 69, 51
1, 613920, Note_on_c, 0, 57, 51
1, 613942, Control_c, 0, 64, 127
1, 614269, Note_on_c, 0, 57, 0
1, 614269, Note_on_c, 0, 73, 0
1, 614269, Note_on_c, 0, 67, 0
1, 614269, Note_on_c, 0, 69, 0
1, 614280, Note_on_c, 0, 73, 56
1, 614280, Note_on_c, 0, 67, 47
1, 614280, Note_on_c, 0, 69, 47
1, 614280, Note_on_c, 0, 57, 47
1, 614290, Control_c, 0, 64, 0
1, 614340, Note_on_c, 0, 57, 0
1, 614340, Note_on_c, 0, 73, 0
1, 614340, Note_on_c, 0, 67, 0
1, 614340, Note_on_c, 0, 69, 0
1, 614386, Note_on_c, 0, 67, 50
1, 614386, Note_on_c, 0, 69, 50
1, 614386, Note_on_c, 0, 74, 60
1, 614386, Note_on_c, 0, 59, 51
1, 614400, Tempo, 372671
1, 614454, Control_c, 0, 64, 127
1, 614640, Tempo, 412371
1, 614735, Note_on_c, 0, 59, 0
1, 614735, Note_on_c, 0, 67, 0
1, 614735, Note_on_c, 0, 69, 0
1, 614735, Note_on_c, 0, 74, 0
1, 614760, Note_on_c, 0, 67, 47
1, 614760, Note_on_c, 0, 69, 47
1, 614760, Note_on_c, 0, 76, 56
1, 614760, Note_on_c, 0, 61, 48
1, 614769, Control_c, 0, 64, 0
1, 614820, Note_on_c, 0, 61, 0
1, 614820, Note_on_c, 0, 67, 0
1, 614820, Note_on_c, 0, 69, 0
1, 614820, Note_on_c, 0, 76, 0
1, 614880, Tempo, 392157
1, 614880, Note_on_c, 0, 69, 64
1, 614880, Note_on_c, 0, 66, 54
1, 614880, Note_on_c, 0, 62, 54
1, 615120, Control_c, 0, 64, 127
1, 615811, Note_on_c, 0, 62, 0
1, 615811, Note_on_c, 0, 66, 0
1, 615811, Note_on_c, 0, 69, 0
1, 615840, Tempo, 387097
1, 615840, Note_on_c, 0, 78, 64
1, 615840, Note_on_c, 0, 66, 54
1, 615840, Note_on_c, 0, 69, 54
1, 615840, Note_on_c, 0, 62, 54
1, 616655, Note_on_c, 0, 62, 0
1, 616655, Note_on_c, 0, 78, 0
1, 616655, Note_on_c, 0, 66, 0
1, 616655, Note_on_c, 0, 69, 0
1, 616680, Note_on_c, 0, 66, 53
1, 616680, Note_on_c, 0, 78, 53
1, 616680, Note_on_c, 0, 62, 44
1, 616695, Control_c, 0, 64, 0
1, 616787, Note_on_c, 0, 62, 0
1, 616796, Note_on_c, 0, 78, 0
1, 616797, Note_on_c, 0, 66, 0
1, 616800, Tempo, 384615
1, 616800, Note_on_c, 0, 78, 60
1, 616800, Note_on_c, 0, 66, 60
1, 616800, Note_on_c, 0, 62, 50
1, 616892, Control_c, 0, 64, 127
1, 616920, Note_on_c, 0, 62, 0
1, 616920, Note_on_c, 0, 66, 0
1, 616920, Note_on_c, 0, 78, 0
1, 617069, Control_c, 0, 64, 0
1, 617146, Note_on_c, 0, 66, 56
1, 617146, Note_on_c, 0, 78, 56
1, 617146, Note_on_c, 0, 62, 47
1, 617262, Note_on_c, 0, 62, 0
1, 617262, Note_on_c, 0, 78, 0
1, 617262, Note_on_c, 0, 66, 0
1, 617280, Tempo, 376176
1, 617280, Note_on_c, 0, 68, 59
1, 617280, Note_on_c, 0, 76, 59
1, 617280, Note_on_c, 0, 59, 41
1, 617280, Note_on_c, 0, 62, 49
1, 617349, Control_c, 0, 64, 127
1, 617400, Note_on_c, 0, 62, 0
1, 617400, Note_on_c, 0, 68, 0
1, 617400, Note_on_c, 0, 76, 0
1, 617400, Note_on_c, 0, 59, 0
1, 617463, Control_c, 0, 64, 0
1, 617520, Tempo, 436364
1, 617640, Note_on_c, 0, 74, 56
1, 617640, Note_on_c, 0, 68, 56
1, 617640, Note_on_c, 0, 59, 40
1, 617640, Note_on_c, 0, 62, 47
1, 617760, Tempo, 389610
1, 617760, Note_on_c, 0, 62, 0
1, 617760, Note_on_c, 0, 74, 0
1, 617760, Note_on_c, 0, 68, 0
1, 617760, Note_on_c, 0, 59, 0
1, 617760, Note_on_c, 0, 73, 64
1, 617760, Note_on_c, 0, 69, 54
1, 617760, Note_on_c, 0, 57, 45
1, 617760, Note_on_c, 0, 64, 54
1, 618000, Control_c, 0, 64, 127
1, 618691, Note_on_c, 0, 64, 0
1, 618691, Note_on_c, 0, 73, 0
1, 618691, Note_on_c, 0, 69, 0
1, 618691, Note_on_c, 0, 57, 0
1, 618720, Tempo, 387097
1, 618720, Note_on_c, 0, 69, 54
1, 618720, Note_on_c, 0, 76, 64
1, 618720, Note_on_c, 0, 57, 45
1, 618720, Note_on_c, 0, 61, 54
1, 619535, Note_on_c, 0, 61, 0
1, 619535, Note_on_c, 0, 69, 0
1, 619535, Note_on_c, 0, 76, 0
1, 619535, Note_on_c, 0, 57, 0
1, 619560, Tempo, 387097
1, 619560, Note_on_c, 0, 70, 53
1, 619560, Note_on_c, 0, 76, 53
1, 619560, Note_on_c, 0, 54, 35
1, 619560, Note_on_c, 0, 61, 44
1, 619575, Control_c, 0, 64, 0
1, 619667, Note_on_c, 0, 61, 0
1, 619667, Note_on_c, 0, 54, 0
1, 619677, Note_on_c, 0, 76, 0
1, 619677, Note_on_c, 0, 70, 0
1, 619680, Tempo, 382166
1, 619680, Note_on_c, 0, 70, 60
1, 619680, Note_on_c, 0, 76, 60
1, 619680, Note_on_c, 0, 61, 50
1, 619680, Note_on_c, 0, 54, 42
1, 619772, Control_c, 0, 64, 127
1, 619800, Note_on_c, 0, 54, 0
1, 619800, Note_on_c, 0, 70, 0
1, 619800, Note_on_c, 0, 76, 0
1, 619800, Note_on_c, 0, 61, 0
1, 619899, Control_c, 0, 64, 0
1, 620026, Note_on_c, 0, 70, 56
1, 620026, Note_on_c, 0, 76, 56
1, 620026, Note_on_c, 0, 61, 47
1, 620026, Note_on_c, 0, 54, 40
1, 620142, Note_on_c, 0, 54, 0
1, 620142, Note_on_c, 0, 70, 0
1, 620142, Note_on_c, 0, 76, 0
1, 620142, Note_on_c, 0, 61, 0
1, 620160, Tempo, 377358
1, 620160, Note_on_c, 0, 70, 59
1, 620160, Note_on_c, 0, 74, 59
1, 620160, Note_on_c, 0, 54, 41
1, 620160, Note_on_c, 0, 62, 49
1, 620229, Control_c, 0, 64, 127
1, 620280, Note_on_c, 0, 62, 0
1, 620280, Note_on_c, 0, 70, 0
1, 620280, Note_on_c, 0, 74, 0
1, 620280, Note_on_c, 0, 54, 0
1, 620343, Control_c, 0, 64, 0
1, 620400, Tempo, 449438
1, 620520, Note_on_c, 0, 70, 56
1, 620520, Note_on_c, 0, 73, 56
1, 620520, Note_on_c, 0, 54, 40
1, 620520, Note_on_c, 0, 64, 47
1, 620640, Tempo, 389610
1, 620640, Note_on_c, 0, 64, 0
1, 620640, Note_on_c, 0, 70, 0
1, 620640, Note_on_c, 0, 73, 0
1, 620640, Note_on_c, 0, 54, 0
1, 620640, Note_on_c, 0, 71, 64
1, 620640, Note_on_c, 0, 55, 45
1, 620640, Note_on_c, 0, 62, 54
1, 620880, Control_c, 0, 64, 127
1, 621571, Note_on_c, 0, 62, 0
1, 621571, Note_on_c, 0, 71, 0
1, 621600, Tempo, 387097
1, 621600, Note_on_c, 0, 55, 0
1, 621600, Note_on_c, 0, 74, 64
1, 621600, Note_on_c, 0, 67, 54
1, 621600, Note_on_c, 0, 55, 45
1, 621600, Note_on_c, 0, 59, 54
1, 622415, Note_on_c, 0, 59, 0
1, 622415, Note_on_c, 0, 74, 0
1, 622415, Note_on_c, 0, 67, 0
1, 622415, Note_on_c, 0, 55, 0
1, 622440, Tempo, 387097
1, 622440, Note_on_c, 0, 61, 53
1, 622440, Note_on_c, 0, 67, 53
1, 622440, Note_on_c, 0, 71, 53
1, 622440, Note_on_c, 0, 45, 44
1, 622455, Control_c, 0, 64, 0
1, 622550, Note_on_c, 0, 45, 0
1, 622560, Tempo, 384615
1, 622560, Note_on_c, 0, 61, 0
1, 622560, Note_on_c, 0, 67, 0
1, 622560, Note_on_c, 0, 71, 0
1, 622560, Note_on_c, 0, 61, 60
1, 622560, Note_on_c, 0, 67, 60
1, 622560, Note_on_c, 0, 71, 60
1, 622560, Note_on_c, 0, 45, 50
1, 622652, Control_c, 0, 64, 127
1, 622680, Note_on_c, 0, 45, 0
1, 622680, Note_on_c, 0, 61, 0
1, 622680, Note_on_c, 0, 67, 0
1, 622680, Note_on_c, 0, 71, 0
1, 622783, Control_c, 0, 64, 0
1, 622920, Note_on_c, 0, 61, 56
1, 622920, Note_on_c, 0, 67, 56
1, 622920, Note_on_c, 0, 71, 56
1, 622920, Note_on_c, 0, 45, 47
1, 623040, Tempo, 376176
1, 623040, Note_on_c, 0, 45, 0
1, 623040, Note_on_c, 0, 61, 0
1, 623040, Note_on_c, 0, 67, 0
1, 623040, Note_on_c, 0, 71, 0
1, 623040, Note_on_c, 0, 61, 59
1, 623040, Note_on_c, 0, 66, 59
1, 623040, Note_on_c, 0, 69, 59
1, 623040, Note_on_c, 0, 45, 49
1, 623109, Control_c, 0, 64, 127
1, 623160, Note_on_c, 0, 45, 0
1, 623160, Note_on_c, 0, 61, 0
1, 623160, Note_on_c, 0, 66, 0
1, 623160, Note_on_c, 0, 69, 0
1, 623223, Control_c, 0, 64, 0
1, 623280, Tempo, 449438
1, 623400, Note_on_c, 0, 61, 56
1, 623400, Note_on_c, 0, 64, 56
1, 623400, Note_on_c, 0, 67, 56
1, 623400, Note_on_c, 0, 45, 47
1, 623520, Tempo, 401338
1, 623520, Note_on_c, 0, 45, 0
1, 623520, Note_on_c, 0, 61, 0
1, 623520, Note_on_c, 0, 64, 0
1, 623520, Note_on_c, 0, 67, 0
1, 623520, Note_on_c, 0, 64, 54
1, 623520, Note_on_c, 0, 57, 54
1, 623520, Note_on_c, 0, 67, 64
1, 623520, Note_on_c, 0, 50, 54
1, 623760, Control_c, 0, 64, 127
1, 624451, Note_on_c, 0, 50, 0
1, 624451, Note_on_c, 0, 67, 0
1, 624451, Note_on_c, 0, 57, 0
1, 624480, Tempo, 387097
1, 624480, Note_on_c, 0, 64, 0
1, 624480, Note_on_c, 0, 57, 54
1, 624480, Note_on_c, 0, 66, 64
1, 624480, Note_on_c, 0, 62, 54
1, 624480, Note_on_c, 0, 50, 54
1, 624490, Control_c, 0, 64, 0
1, 624747, Control_c, 0, 64, 127
1, 625430, Note_on_c, 0, 50, 0
1, 625430, Note_on_c, 0, 57, 0
1, 625430, Note_on_c, 0, 66, 0
1, 625430, Note_on_c, 0, 62, 0
1, 625440, Tempo, 380952
1, 625440, Note_on_c, 0, 62, 56
1, 625440, Note_on_c, 0, 66, 56
1, 625440, Note_on_c, 0, 69, 67
1, 625440, Note_on_c, 0, 50, 45
1, 625444, Control_c, 0, 64, 0
1, 625896, Note_on_c, 0, 50, 0
1, 625896, Note_on_c, 0, 62, 0
1, 625896, Note_on_c, 0, 66, 0
1, 625896, Note_on_c, 0, 69, 0
1, 625920, Tempo, 385852
1, 625920, Note_on_c, 0, 62, 53
1, 625920, Note_on_c, 0, 66, 53
1, 625920, Note_on_c, 0, 70, 63
1, 625920, Note_on_c, 0, 49, 37
1, 626376, Note_on_c, 0, 49, 0
1, 626376, Note_on_c, 0, 62, 0
1, 626376, Note_on_c, 0, 66, 0
1, 626376, Note_on_c, 0, 70, 0
1, 626400, Tempo, 352941
1, 626400, Note_on_c, 0, 62, 51
1, 626400, Note_on_c, 0, 67, 51
1, 626400, Note_on_c, 0, 71, 60
1, 626400, Note_on_c, 0, 47, 67
1, 626560, Note_on_c, 0, 47, 0
1, 626560, Note_on_c, 0, 46, 57
1, 626720, Note_on_c, 0, 46, 0
1, 626720, Note_on_c, 0, 47, 57
1, 626880, Tempo, 356083
1, 626880, Note_on_c, 0, 47, 0
1, 626880, Note_on_c, 0, 43, 68
1, 627040, Note_on_c, 0, 43, 0
1, 627040, Note_on_c, 0, 42, 61
1, 627200, Tempo, 401338
1, 627200, Note_on_c, 0, 42, 0
1, 627200, Note_on_c, 0, 43, 65
1, 627360, Tempo, 364742
1, 627360, Note_on_c, 0, 43, 0
1, 627360, Note_on_c, 0, 71, 0
1, 627360, Note_on_c, 0, 67, 0
1, 627360, Note_on_c, 0, 62, 0
1, 627360, Note_on_c, 0, 67, 56
1, 627360, Note_on_c, 0, 71, 56
1, 627360, Note_on_c, 0, 76, 67
1, 627360, Note_on_c, 0, 40, 74
1, 627826, Note_on_c, 0, 76, 0
1, 627826, Note_on_c, 0, 67, 0
1, 627826, Note_on_c, 0, 71, 0
1, 627840, Note_on_c, 0, 71, 57
1, 627840, Note_on_c, 0, 76, 57
1, 627840, Note_on_c, 0, 79, 68
1, 628080, Note_on_c, 0, 79, 0
1, 628080, Note_on_c, 0, 76, 0
1, 628080, Note_on_c, 0, 71, 0
1, 628200, Note_on_c, 0, 40, 0
1, 628200, Note_on_c, 0, 42, 61
1, 628320, Note_on_c, 0, 42, 0
1, 628320, Note_on_c, 0, 67, 53
1, 628320, Note_on_c, 0, 71, 53
1, 628320, Note_on_c, 0, 76, 63
1, 628320, Note_on_c, 0, 43, 69
1, 628560, Note_on_c, 0, 71, 0
1, 628560, Note_on_c, 0, 67, 0
1, 628570, Note_on_c, 0, 76, 0
1, 628680, Note_on_c, 0, 43, 0
1, 628680, Note_on_c, 0, 45, 62
1, 628800, Tempo, 361446
1, 628800, Note_on_c, 0, 45, 0
1, 628800, Note_on_c, 0, 64, 49
1, 628800, Note_on_c, 0, 67, 58
1, 628800, Note_on_c, 0, 47, 70
1, 629040, Note_on_c, 0, 67, 0
1, 629040, Note_on_c, 0, 64, 0
1, 629120, Tempo, 400000
1, 629160, Note_on_c, 0, 47, 0
1, 629160, Note_on_c, 0, 50, 62
1, 629280, Tempo, 351906
1, 629280, Note_on_c, 0, 50, 0
1, 629280, Note_on_c, 0, 64, 55
1, 629280, Note_on_c, 0, 69, 55
1, 629280, Note_on_c, 0, 73, 65
1, 629280, Note_on_c, 0, 49, 69
1, 629440, Note_on_c, 0, 49, 0
1, 629440, Note_on_c, 0, 48, 63
1, 629600, Note_on_c, 0, 48, 0
1, 629600, Note_on_c, 0, 49, 59
1, 629760, Tempo, 359281
1, 629760, Note_on_c, 0, 49, 0
1, 629760, Note_on_c, 0, 45, 68
1, 629920, Note_on_c, 0, 45, 0
1, 629920, Note_on_c, 0, 44, 65
1, 630080, Tempo, 401338
1, 630080, Note_on_c, 0, 44, 0
1, 630080, Note_on_c, 0, 45, 69
1, 630240, Tempo, 364742
1, 630240, Note_on_c, 0, 45, 0
1, 630240, Note_on_c, 0, 73, 0
1, 630240, Note_on_c, 0, 69, 0
1, 630240, Note_on_c, 0, 64, 0
1, 630240, Note_on_c, 0, 69, 59
1, 630240, Note_on_c, 0, 73, 59
1, 630240, Note_on_c, 0, 78, 70
1, 630240, Note_on_c, 0, 42, 74
1, 630706, Note_on_c, 0, 78, 0
1, 630706, Note_on_c, 0, 69, 0
1, 630706, Note_on_c, 0, 73, 0
1, 630720, Note_on_c, 0, 73, 58
1, 630720, Note_on_c, 0, 78, 58
1, 630720, Note_on_c, 0, 81, 69
1, 630960, Note_on_c, 0, 81, 0
1, 630960, Note_on_c, 0, 78, 0
1, 630960, Note_on_c, 0, 73, 0
1, 631080, Note_on_c, 0, 42, 0
1, 631080, Note_on_c, 0, 44, 61
1, 631200, Note_on_c, 0, 44, 0
1, 631200, Note_on_c, 0, 73, 51
1, 631200, Note_on_c, 0, 78, 60
1, 631200, Note_on_c, 0, 69, 51
1, 631200, Note_on_c, 0, 45, 69
1, 631440, Note_on_c, 0, 69, 0
1, 631440, Note_on_c, 0, 73, 0
1, 631440, Note_on_c, 0, 78, 0
1, 631560, Note_on_c, 0, 45, 0
1, 631560, Note_on_c, 0, 47, 62
1, 631680, Tempo, 361446
1, 631680, Note_on_c, 0, 47, 0
1, 631680, Note_on_c, 0, 69, 56
1, 631680, Note_on_c, 0, 66, 47
1, 631680, Note_on_c, 0, 49, 70
1, 631920, Note_on_c, 0, 66, 0
1, 631920, Note_on_c, 0, 69, 0
1, 632000, Tempo, 400000
1, 632040, Note_on_c, 0, 49, 0
1, 632040, Note_on_c, 0, 52, 62
1, 632160, Tempo, 352941
1, 632160, Note_on_c, 0, 52, 0
1, 632160, Note_on_c, 0, 66, 56
1, 632160, Note_on_c, 0, 74, 67
1, 632160, Note_on_c, 0, 71, 56
1, 632160, Note_on_c, 0, 50, 70
1, 632320, Note_on_c, 0, 50, 0
1, 632320, Note_on_c, 0, 49, 58
1, 632480, Note_on_c, 0, 49, 0
1, 632480, Note_on_c, 0, 50, 58
1, 632640, Tempo, 361446
1, 632640, Note_on_c, 0, 50, 0
1, 632640, Note_on_c, 0, 47, 63
1, 632800, Note_on_c, 0, 47, 0
1, 632800, Note_on_c, 0, 46, 65
1, 632960, Tempo, 401338
1, 632960, Note_on_c, 0, 46, 0
1, 632960, Note_on_c, 0, 47, 68
1, 633120, Tempo, 364742
1, 633120, Note_on_c, 0, 47, 0
1, 633120, Note_on_c, 0, 71, 0
1, 633120, Note_on_c, 0, 74, 0
1, 633120, Note_on_c, 0, 66, 0
1, 633120, Note_on_c, 0, 74, 66
1, 633120, Note_on_c, 0, 71, 66
1, 633120, Note_on_c, 0, 79, 78
1, 633120, Note_on_c, 0, 43, 72
1, 633586, Note_on_c, 0, 79, 0
1, 633586, Note_on_c, 0, 74, 0
1, 633586, Note_on_c, 0, 71, 0
1, 633600, Note_on_c, 0, 74, 60
1, 633600, Note_on_c, 0, 79, 71
1, 633600, Note_on_c, 0, 83, 71
1, 633840, Note_on_c, 0, 83, 0
1, 633840, Note_on_c, 0, 79, 0
1, 633840, Note_on_c, 0, 74, 0
1, 633960, Note_on_c, 0, 43, 0
1, 633960, Note_on_c, 0, 45, 59
1, 634080, Tempo, 370370
1, 634080, Note_on_c, 0, 45, 0
1, 634080, Note_on_c, 0, 74, 60
1, 634080, Note_on_c, 0, 79, 71
1, 634080, Note_on_c, 0, 71, 60
1, 634080, Note_on_c, 0, 47, 73
1, 634320, Note_on_c, 0, 71, 0
1, 634320, Note_on_c, 0, 74, 0
1, 634320, Note_on_c, 0, 79, 0
1, 634440, Note_on_c, 0, 47, 0
1, 634440, Note_on_c, 0, 49, 57
1, 634560, Tempo, 390879
1, 634560, Note_on_c, 0, 49, 0
1, 634560, Note_on_c, 0, 71, 75
1, 634560, Note_on_c, 0, 67, 68
1, 634560, Note_on_c, 0, 50, 71
1, 634800, Note_on_c, 0, 67, 0
1, 634800, Note_on_c, 0, 71, 0
1, 634880, Tempo, 489796
1, 634920, Note_on_c, 0, 50, 0
1, 634920, Note_on_c, 0, 54, 58
1, 635040, Tempo, 398671
1, 635040, Note_on_c, 0, 54, 0
1, 635040, Note_on_c, 0, 69, 66
1, 635040, Note_on_c, 0, 81, 78
1, 635040, Note_on_c, 0, 79, 66
1, 635040, Note_on_c, 0, 73, 66
1, 635040, Note_on_c, 0, 52, 85
1, 635242, Control_c, 0, 64, 127
1, 635971, Note_on_c, 0, 52, 0
1, 635971, Note_on_c, 0, 81, 0
1, 635971, Note_on_c, 0, 69, 0
1, 635971, Note_on_c, 0, 73, 0
1, 636000, Tempo, 387097
1, 636000, Note_on_c, 0, 79, 0
1, 636000, Note_on_c, 0, 79, 61
1, 636000, Note_on_c, 0, 69, 61
1, 636000, Note_on_c, 0, 81, 72
1, 636000, Note_on_c, 0, 73, 61
1, 636000, Note_on_c, 0, 52, 68
1, 636000, Note_on_c, 0, 57, 81
1, 636815, Note_on_c, 0, 57, 0
1, 636815, Note_on_c, 0, 69, 0
1, 636815, Note_on_c, 0, 81, 0
1, 636815, Note_on_c, 0, 79, 0
1, 636815, Note_on_c, 0, 52, 0
1, 636815, Note_on_c, 0, 73, 0
1, 636840, Tempo, 387097
1, 636840, Note_on_c, 0, 73, 58
1, 636840, Note_on_c, 0, 81, 73
1, 636840, Note_on_c, 0, 79, 58
1, 636840, Note_on_c, 0, 45, 56
1, 636840, Note_on_c, 0, 57, 66
1, 636850, Control_c, 0, 64, 0
1, 636954, Note_on_c, 0, 79, 0
1, 636954, Note_on_c, 0, 73, 0
1, 636954, Note_on_c, 0, 81, 0
1, 636960, Tempo, 382166
1, 636960, Note_on_c, 0, 45, 0
1, 636960, Note_on_c, 0, 57, 0
1, 636960, Note_on_c, 0, 79, 66
1, 636960, Note_on_c, 0, 73, 66
1, 636960, Note_on_c, 0, 81, 82
1, 636960, Note_on_c, 0, 45, 58
1, 636960, Note_on_c, 0, 57, 69
1, 637051, Control_c, 0, 64, 127
1, 637292, Note_on_c, 0, 57, 0
1, 637292, Note_on_c, 0, 45, 0
1, 637293, Note_on_c, 0, 81, 0
1, 637302, Note_on_c, 0, 73, 0
1, 637302, Note_on_c, 0, 79, 0
1, 637320, Note_on_c, 0, 73, 63
1, 637320, Note_on_c, 0, 79, 63
1, 637320, Note_on_c, 0, 81, 80
1, 637320, Note_on_c, 0, 43, 55
1, 637320, Note_on_c, 0, 55, 65
1, 637434, Note_on_c, 0, 81, 0
1, 637434, Note_on_c, 0, 73, 0
1, 637434, Note_on_c, 0, 79, 0
1, 637440, Tempo, 375000
1, 637440, Note_on_c, 0, 43, 0
1, 637440, Note_on_c, 0, 55, 0
1, 637440, Note_on_c, 0, 79, 67
1, 637440, Note_on_c, 0, 83, 85
1, 637440, Note_on_c, 0, 73, 67
1, 637440, Note_on_c, 0, 42, 60
1, 637440, Note_on_c, 0, 54, 72
1, 637447, Control_c, 0, 64, 0
1, 637539, Control_c, 0, 64, 127
1, 637680, Tempo, 452830
1, 637772, Note_on_c, 0, 54, 0
1, 637772, Note_on_c, 0, 42, 0
1, 637782, Note_on_c, 0, 79, 0
1, 637782, Note_on_c, 0, 83, 0
1, 637782, Note_on_c, 0, 73, 0
1, 637800, Note_on_c, 0, 79, 65
1, 637800, Note_on_c, 0, 85, 83
1, 637800, Note_on_c, 0, 73, 65
1, 637800, Note_on_c, 0, 40, 62
1, 637800, Note_on_c, 0, 52, 74
1, 637920, Tempo, 388350
1, 637920, Note_on_c, 0, 52, 0
1, 637920, Note_on_c, 0, 73, 0
1, 637920, Note_on_c, 0, 79, 0
1, 637920, Note_on_c, 0, 85, 0
1, 637920, Note_on_c, 0, 40, 0
1, 637920, Note_on_c, 0, 86, 93
1, 637920, Note_on_c, 0, 74, 78
1, 637920, Note_on_c, 0, 78, 78
1, 637920, Note_on_c, 0, 38, 65
1, 637920, Note_on_c, 0, 45, 65
1, 637920, Note_on_c, 0, 50, 74
1, 637926, Control_c, 0, 64, 0
1, 638240, Control_c, 0, 64, 127
1, 638851, Note_on_c, 0, 50, 0
1, 638851, Note_on_c, 0, 74, 0
1, 638851, Note_on_c, 0, 78, 0
1, 638851, Note_on_c, 0, 86, 0
1, 638851, Note_on_c, 0, 45, 0
1, 638851, Note_on_c, 0, 38, 0
1, 638880, Note_on_c, 0, 74, 78
1, 638880, Note_on_c, 0, 86, 93
1, 638880, Note_on_c, 0, 78, 78
1, 638880, Note_on_c, 0, 45, 65
1, 638880, Note_on_c, 0, 38, 65
1, 638880, Note_on_c, 0, 50, 74
1, 639360, Tempo, 394737
1, 639700, Note_on_c, 0, 50, 0
1, 639700, Note_on_c, 0, 86, 0
1, 639700, Note_on_c, 0, 78, 0
1, 639700, Note_on_c, 0, 74, 0
1, 639700, Note_on_c, 0, 38, 0
1, 639700, Note_on_c, 0, 45, 0
1, 639720, Tempo, 393443
1, 639720, Note_on_c, 0, 78, 42
1, 639720, Note_on_c, 0, 81, 50
1, 639725, Control_c, 0, 64, 0
1, 639780, Note_on_c, 0, 81, 0
1, 639780, Note_on_c, 0, 78, 0
1, 639840, Tempo, 389610
1, 639840, Note_on_c, 0, 81, 54
1, 639840, Note_on_c, 0, 78, 45
1, 639862, Control_c, 0, 64, 127
1, 640189, Note_on_c, 0, 78, 0
1, 640189, Note_on_c, 0, 81, 0
1, 640200, Note_on_c, 0, 78, 42
1, 640200, Note_on_c, 0, 81, 50
1, 640210, Control_c, 0, 64, 0
1, 640260, Note_on_c, 0, 81, 0
1, 640260, Note_on_c, 0, 78, 0
1, 640320, Tempo, 372671
1, 640320, Note_on_c, 0, 80, 54
1, 640320, Note_on_c, 0, 77, 45
1, 640374, Control_c, 0, 64, 127
1, 640560, Tempo, 430108
1, 640669, Note_on_c, 0, 77, 0
1, 640669, Note_on_c, 0, 80, 0
1, 640680, Note_on_c, 0, 78, 42
1, 640680, Note_on_c, 0, 81, 50
1, 640689, Control_c, 0, 64, 0
1, 640740, Note_on_c, 0, 81, 0
1, 640740, Note_on_c, 0, 78, 0
1, 640800, Tempo, 404040
1, 640800, Note_on_c, 0, 78, 48
1, 640800, Note_on_c, 0, 74, 40
1, 640800, Note_on_c, 0, 50, 44
1, 640800, Control_c, 0, 64, 0
1, 641006, Control_c, 0, 64, 127
1, 641040, Note_on_c, 0, 50, 0
1, 641280, Tempo, 465116
1, 641280, Note_on_c, 0, 57, 33
1, 641520, Note_on_c, 0, 57, 0
1, 641760, Tempo, 419580
1, 641760, Note_on_c, 0, 74, 0
1, 641760, Note_on_c, 0, 78, 0
1, 641760, Note_on_c, 0, 78, 48
1, 641760, Note_on_c, 0, 74, 40
1, 641760, Note_on_c, 0, 66, 33
1, 641760, Note_on_c, 0, 62, 28
1, 642000, Note_on_c, 0, 62, 0
1, 642000, Note_on_c, 0, 66, 0
1, 642240, Note_on_c, 0, 50, 44
1, 642480, Note_on_c, 0, 50, 0
1, 642575, Note_on_c, 0, 74, 0
1, 642575, Note_on_c, 0, 78, 0
1, 642600, Tempo, 387097
1, 642600, Note_on_c, 0, 74, 37
1, 642600, Note_on_c, 0, 78, 44
1, 642660, Note_on_c, 0, 78, 0
1, 642660, Note_on_c, 0, 74, 0
1, 642720, Tempo, 377358
1, 642720, Note_on_c, 0, 78, 48
1, 642720, Note_on_c, 0, 74, 40
1, 642720, Note_on_c, 0, 57, 33
1, 642840, Note_on_c, 0, 74, 0
1, 642840, Note_on_c, 0, 78, 0
1, 642960, Note_on_c, 0, 57, 0
1, 643080, Note_on_c, 0, 74, 37
1, 643080, Note_on_c, 0, 78, 44
1, 643140, Note_on_c, 0, 78, 0
1, 643140, Note_on_c, 0, 74, 0
1, 643200, Tempo, 368098
1, 643200, Note_on_c, 0, 73, 40
1, 643200, Note_on_c, 0, 77, 48
1, 643200, Note_on_c, 0, 62, 28
1, 643200, Note_on_c, 0, 66, 33
1, 643320, Note_on_c, 0, 77, 0
1, 643320, Note_on_c, 0, 73, 0
1, 643440, Tempo, 442804
1, 643440, Note_on_c, 0, 62, 0
1, 643440, Note_on_c, 0, 66, 0
1, 643560, Note_on_c, 0, 78, 44
1, 643560, Note_on_c, 0, 74, 37
1, 643620, Note_on_c, 0, 74, 0
1, 643620, Note_on_c, 0, 78, 0
1, 643680, Tempo, 404040
1, 643680, Note_on_c, 0, 78, 40
1, 643680, Note_on_c, 0, 81, 48
1, 643680, Note_on_c, 0, 49, 44
1, 643680, Control_c, 0, 64, 0
1, 643886, Control_c, 0, 64, 127
1, 643920, Note_on_c, 0, 49, 0
1, 644160, Tempo, 465116
1, 644160, Note_on_c, 0, 57, 33
1, 644400, Note_on_c, 0, 57, 0
1, 644640, Tempo, 419580
1, 644640, Note_on_c, 0, 81, 0
1, 644640, Note_on_c, 0, 78, 0
1, 644640, Note_on_c, 0, 76, 40
1, 644640, Note_on_c, 0, 79, 48
1, 644640, Note_on_c, 0, 67, 33
1, 644640, Note_on_c, 0, 64, 28
1, 644880, Note_on_c, 0, 64, 0
1, 644880, Note_on_c, 0, 67, 0
1, 645120, Note_on_c, 0, 49, 44
1, 645360, Note_on_c, 0, 49, 0
1, 645455, Note_on_c, 0, 79, 0
1, 645455, Note_on_c, 0, 76, 0
1, 645480, Tempo, 387097
1, 645480, Note_on_c, 0, 79, 44
1, 645480, Note_on_c, 0, 81, 37
1, 645480, Note_on_c, 0, 76, 37
1, 645540, Note_on_c, 0, 76, 0
1, 645540, Note_on_c, 0, 81, 0
1, 645540, Note_on_c, 0, 79, 0
1, 645600, Tempo, 372671
1, 645600, Note_on_c, 0, 81, 40
1, 645600, Note_on_c, 0, 76, 40
1, 645600, Note_on_c, 0, 79, 48
1, 645600, Note_on_c, 0, 57, 33
1, 645600, Control_c, 0, 64, 0
1, 645654, Control_c, 0, 64, 127
1, 645720, Note_on_c, 0, 79, 0
1, 645720, Note_on_c, 0, 81, 0
1, 645720, Note_on_c, 0, 76, 0
1, 645840, Note_on_c, 0, 57, 0
1, 645960, Note_on_c, 0, 81, 37
1, 645960, Note_on_c, 0, 76, 37
1, 645960, Note_on_c, 0, 79, 44
1, 646020, Note_on_c, 0, 79, 0
1, 646020, Note_on_c, 0, 76, 0
1, 646020, Note_on_c, 0, 81, 0
1, 646080, Tempo, 363636
1, 646080, Note_on_c, 0, 75, 40
1, 646080, Note_on_c, 0, 81, 40
1, 646080, Note_on_c, 0, 78, 48
1, 646080, Note_on_c, 0, 64, 28
1, 646080, Note_on_c, 0, 67, 33
1, 646200, Note_on_c, 0, 78, 0
1, 646200, Note_on_c, 0, 75, 0
1, 646200, Note_on_c, 0, 81, 0
1, 646320, Tempo, 442804
1, 646320, Note_on_c, 0, 64, 0
1, 646320, Note_on_c, 0, 67, 0
1, 646440, Note_on_c, 0, 81, 44
1, 646440, Note_on_c, 0, 76, 37
1, 646440, Note_on_c, 0, 79, 44
1, 646500, Note_on_c, 0, 79, 0
1, 646500, Note_on_c, 0, 76, 0
1, 646500, Note_on_c, 0, 81, 0
1, 646560, Tempo, 404040
1, 646560, Note_on_c, 0, 81, 48
1, 646560, Note_on_c, 0, 76, 40
1, 646560, Note_on_c, 0, 73, 40
1, 646560, Note_on_c, 0, 45, 44
1, 646573, Control_c, 0, 64, 0
1, 646766, Control_c, 0, 64, 127
1, 646800, Note_on_c, 0, 45, 0
1, 647040, Tempo, 439560
1, 647040, Note_on_c, 0, 57, 33
1, 647280, Note_on_c, 0, 57, 0
1, 647511, Note_on_c, 0, 73, 0
1, 647511, Note_on_c, 0, 76, 0
1, 647511, Note_on_c, 0, 81, 0
1, 647520, Tempo, 419580
1, 647520, Note_on_c, 0, 73, 40
1, 647520, Note_on_c, 0, 76, 40
1, 647520, Note_on_c, 0, 81, 48
1, 647520, Note_on_c, 0, 67, 33
1, 647520, Note_on_c, 0, 64, 28
1, 647760, Note_on_c, 0, 64, 0
1, 647760, Note_on_c, 0, 67, 0
1, 648000, Note_on_c, 0, 45, 44
1, 648240, Note_on_c, 0, 45, 0
1, 648335, Note_on_c, 0, 81, 0
1, 648335, Note_on_c, 0, 76, 0
1, 648335, Note_on_c, 0, 73, 0
1, 648360, Tempo, 387097
1, 648360, Note_on_c, 0, 81, 37
1, 648360, Note_on_c, 0, 73, 37
1, 648360, Note_on_c, 0, 76, 44
1, 648420, Note_on_c, 0, 76, 0
1, 648420, Note_on_c, 0, 73, 0
1, 648420, Note_on_c, 0, 81, 0
1, 648480, Tempo, 377358
1, 648480, Note_on_c, 0, 73, 40
1, 648480, Note_on_c, 0, 81, 40
1, 648480, Note_on_c, 0, 76, 48
1, 648480, Note_on_c, 0, 57, 33
1, 648600, Note_on_c, 0, 76, 0
1, 648600, Note_on_c, 0, 73, 0
1, 648600, Note_on_c, 0, 81, 0
1, 648720, Note_on_c, 0, 57, 0
1, 648840, Note_on_c, 0, 81, 37
1, 648840, Note_on_c, 0, 73, 37
1, 648840, Note_on_c, 0, 76, 44
1, 648900, Note_on_c, 0, 76, 0
1, 648900, Note_on_c, 0, 73, 0
1, 648900, Note_on_c, 0, 81, 0
1, 648960, Tempo, 368098
1, 648960, Note_on_c, 0, 74, 48
1, 648960, Note_on_c, 0, 81, 40
1, 648960, Note_on_c, 0, 71, 40
1, 648960, Note_on_c, 0, 64, 28
1, 648960, Note_on_c, 0, 67, 33
1, 649080, Note_on_c, 0, 71, 0
1, 649080, Note_on_c, 0, 74, 0
1, 649080, Note_on_c, 0, 81, 0
1, 649200, Tempo, 510638
1, 649200, Note_on_c, 0, 64, 0
1, 649200, Note_on_c, 0, 67, 0
1, 649320, Note_on_c, 0, 81, 44
1, 649320, Note_on_c, 0, 73, 37
1, 649320, Note_on_c, 0, 76, 44
1, 649380, Note_on_c, 0, 76, 0
1, 649380, Note_on_c, 0, 73, 0
1, 649380, Note_on_c, 0, 81, 0
1, 649440, Tempo, 449438
1, 649440, Note_on_c, 0, 81, 43
1, 649440, Note_on_c, 0, 73, 36
1, 649440, Note_on_c, 0, 77, 36
1, 649440, Note_on_c, 0, 50, 39
1, 649453, Control_c, 0, 64, 0
1, 649646, Control_c, 0, 64, 127
1, 649680, Note_on_c, 0, 50, 0
1, 649920, Tempo, 465116
1, 649920, Note_on_c, 0, 57, 29
1, 650160, Note_on_c, 0, 57, 0
1, 650390, Note_on_c, 0, 77, 0
1, 650391, Note_on_c, 0, 73, 0
1, 650391, Note_on_c, 0, 81, 0
1, 650400, Tempo, 419580
1, 650400, Note_on_c, 0, 74, 36
1, 650400, Note_on_c, 0, 78, 36
1, 650400, Note_on_c, 0, 81, 43
1, 650400, Note_on_c, 0, 66, 29
1, 650400, Note_on_c, 0, 62, 24
1, 650411, Control_c, 0, 64, 0
1, 650583, Control_c, 0, 64, 127
1, 650640, Note_on_c, 0, 62, 0
1, 650640, Note_on_c, 0, 66, 0
1, 650880, Note_on_c, 0, 50, 44
1, 651120, Note_on_c, 0, 50, 0
1, 651215, Note_on_c, 0, 81, 0
1, 651215, Note_on_c, 0, 78, 0
1, 651215, Note_on_c, 0, 74, 0
1, 651240, Tempo, 387097
1, 651240, Note_on_c, 0, 74, 37
1, 651240, Note_on_c, 0, 81, 44
1, 651240, Note_on_c, 0, 78, 37
1, 651255, Control_c, 0, 64, 0
1, 651292, Control_c, 0, 64, 127
1, 651300, Note_on_c, 0, 78, 0
1, 651300, Note_on_c, 0, 81, 0
1, 651300, Note_on_c, 0, 74, 0
1, 651360, Tempo, 377358
1, 651360, Note_on_c, 0, 81, 48
1, 651360, Note_on_c, 0, 78, 40
1, 651360, Note_on_c, 0, 74, 40
1, 651360, Note_on_c, 0, 57, 29
1, 651480, Note_on_c, 0, 74, 0
1, 651480, Note_on_c, 0, 81, 0
1, 651480, Note_on_c, 0, 78, 0
1, 651600, Note_on_c, 0, 57, 0
1, 651720, Note_on_c, 0, 74, 38
1, 651720, Note_on_c, 0, 78, 38
1, 651720, Note_on_c, 0, 81, 45
1, 651780, Note_on_c, 0, 81, 0
1, 651780, Note_on_c, 0, 78, 0
1, 651780, Note_on_c, 0, 74, 0
1, 651840, Tempo, 368098
1, 651840, Note_on_c, 0, 74, 41
1, 651840, Note_on_c, 0, 80, 50
1, 651840, Note_on_c, 0, 78, 41
1, 651840, Note_on_c, 0, 66, 30
1, 651840, Note_on_c, 0, 62, 25
1, 651857, Control_c, 0, 64, 0
1, 651909, Control_c, 0, 64, 127
1, 651960, Note_on_c, 0, 78, 0
1, 651960, Note_on_c, 0, 74, 0
1, 651960, Note_on_c, 0, 80, 0
1, 652080, Tempo, 442804
1, 652080, Note_on_c, 0, 66, 0
1, 652080, Note_on_c, 0, 62, 0
1, 652200, Note_on_c, 0, 78, 40
1, 652200, Note_on_c, 0, 74, 40
1, 652200, Note_on_c, 0, 81, 48
1, 652260, Note_on_c, 0, 81, 0
1, 652260, Note_on_c, 0, 74, 0
1, 652260, Note_on_c, 0, 78, 0
1, 652320, Tempo, 404040
1, 652320, Note_on_c, 0, 74, 44
1, 652320, Note_on_c, 0, 78, 44
1, 652320, Note_on_c, 0, 83, 52
1, 652320, Note_on_c, 0, 47, 48
1, 652320, Control_c, 0, 64, 0
1, 652526, Control_c, 0, 64, 127
1, 652560, Note_on_c, 0, 47, 0
1, 652800, Tempo, 465116
1, 652800, Note_on_c, 0, 59, 36
1, 653040, Note_on_c, 0, 59, 0
1, 653271, Note_on_c, 0, 83, 0
1, 653271, Note_on_c, 0, 78, 0
1, 653271, Note_on_c, 0, 74, 0
1, 653280, Tempo, 419580
1, 653280, Note_on_c, 0, 74, 44
1, 653280, Note_on_c, 0, 83, 52
1, 653280, Note_on_c, 0, 78, 44
1, 653280, Note_on_c, 0, 66, 36
1, 653280, Note_on_c, 0, 62, 30
1, 653520, Note_on_c, 0, 62, 0
1, 653520, Note_on_c, 0, 66, 0
1, 653760, Tempo, 410959
1, 653760, Note_on_c, 0, 47, 44
1, 654000, Note_on_c, 0, 47, 0
1, 654095, Note_on_c, 0, 78, 0
1, 654095, Note_on_c, 0, 83, 0
1, 654095, Note_on_c, 0, 74, 0
1, 654120, Tempo, 387097
1, 654120, Note_on_c, 0, 83, 48
1, 654120, Note_on_c, 0, 78, 40
1, 654120, Note_on_c, 0, 74, 40
1, 654180, Note_on_c, 0, 74, 0
1, 654180, Note_on_c, 0, 78, 0
1, 654180, Note_on_c, 0, 83, 0
1, 654240, Tempo, 377358
1, 654240, Note_on_c, 0, 83, 52
1, 654240, Note_on_c, 0, 78, 44
1, 654240, Note_on_c, 0, 74, 44
1, 654240, Note_on_c, 0, 59, 36
1, 654360, Note_on_c, 0, 74, 0
1, 654360, Note_on_c, 0, 83, 0
1, 654360, Note_on_c, 0, 78, 0
1, 654480, Note_on_c, 0, 59, 0
1, 654600, Note_on_c, 0, 78, 40
1, 654600, Note_on_c, 0, 74, 40
1, 654600, Note_on_c, 0, 86, 48
1, 654660, Note_on_c, 0, 86, 0
1, 654660, Note_on_c, 0, 74, 0
1, 654660, Note_on_c, 0, 78, 0
1, 654720, Tempo, 368098
1, 654720, Note_on_c, 0, 78, 43
1, 654720, Note_on_c, 0, 85, 51
1, 654720, Note_on_c, 0, 74, 43
1, 654720, Note_on_c, 0, 62, 29
1, 654720, Note_on_c, 0, 66, 36
1, 654840, Note_on_c, 0, 74, 0
1, 654840, Note_on_c, 0, 78, 0
1, 654840, Note_on_c, 0, 85, 0
1, 654960, Tempo, 442804
1, 654960, Note_on_c, 0, 62, 0
1, 654960, Note_on_c, 0, 66, 0
1, 655080, Note_on_c, 0, 74, 39
1, 655080, Note_on_c, 0, 83, 47
1, 655080, Note_on_c, 0, 78, 39
1, 655140, Note_on_c, 0, 78, 0
1, 655140, Note_on_c, 0, 83, 0
1, 655140, Note_on_c, 0, 74, 0
1, 655200, Tempo, 404040
1, 655200, Note_on_c, 0, 81, 48
1, 655200, Note_on_c, 0, 74, 40
1, 655200, Note_on_c, 0, 78, 40
1, 655200, Note_on_c, 0, 50, 44
1, 655200, Control_c, 0, 64, 0
1, 655406, Control_c, 0, 64, 127
1, 655440, Note_on_c, 0, 50, 0
1, 655680, Tempo, 465116
1, 655680, Note_on_c, 0, 57, 33
1, 655920, Note_on_c, 0, 57, 0
1, 656151, Note_on_c, 0, 78, 0
1, 656151, Note_on_c, 0, 74, 0
1, 656151, Note_on_c, 0, 81, 0
1, 656160, Tempo, 419580
1, 656160, Note_on_c, 0, 81, 48
1, 656160, Note_on_c, 0, 74, 48
1, 656160, Note_on_c, 0, 78, 40
1, 656160, Note_on_c, 0, 66, 33
1, 656160, Note_on_c, 0, 62, 28
1, 656400, Note_on_c, 0, 62, 0
1, 656400, Note_on_c, 0, 66, 0
1, 656640, Note_on_c, 0, 50, 44
1, 656880, Note_on_c, 0, 50, 0
1, 656975, Note_on_c, 0, 78, 0
1, 656975, Note_on_c, 0, 74, 0
1, 656975, Note_on_c, 0, 81, 0
1, 657000, Tempo, 387097
1, 657000, Note_on_c, 0, 81, 37
1, 657000, Note_on_c, 0, 74, 37
1, 657000, Note_on_c, 0, 78, 44
1, 657060, Note_on_c, 0, 78, 0
1, 657060, Note_on_c, 0, 74, 0
1, 657060, Note_on_c, 0, 81, 0
1, 657120, Tempo, 377358
1, 657120, Note_on_c, 0, 81, 40
1, 657120, Note_on_c, 0, 78, 48
1, 657120, Note_on_c, 0, 74, 40
1, 657120, Note_on_c, 0, 57, 33
1, 657120, Control_c, 0, 64, 0
1, 657174, Control_c, 0, 64, 127
1, 657240, Note_on_c, 0, 74, 0
1, 657240, Note_on_c, 0, 81, 0
1, 657240, Note_on_c, 0, 78, 0
1, 657360, Note_on_c, 0, 57, 0
1, 657480, Note_on_c, 0, 74, 37
1, 657480, Note_on_c, 0, 81, 37
1, 657480, Note_on_c, 0, 78, 44
1, 657540, Note_on_c, 0, 78, 0
1, 657540, Note_on_c, 0, 81, 0
1, 657540, Note_on_c, 0, 74, 0
1, 657600, Tempo, 368098
1, 657600, Note_on_c, 0, 74, 40
1, 657600, Note_on_c, 0, 83, 40
1, 657600, Note_on_c, 0, 79, 48
1, 657600, Note_on_c, 0, 66, 33
1, 657600, Note_on_c, 0, 62, 28
1, 657720, Note_on_c, 0, 79, 0
1, 657720, Note_on_c, 0, 74, 0
1, 657720, Note_on_c, 0, 83, 0
1, 657840, Tempo, 442804
1, 657840, Note_on_c, 0, 66, 0
1, 657840, Note_on_c, 0, 62, 0
1, 657960, Note_on_c, 0, 74, 37
1, 657960, Note_on_c, 0, 78, 44
1, 657960, Note_on_c, 0, 81, 44
1, 658020, Note_on_c, 0, 81, 0
1, 658020, Note_on_c, 0, 78, 0
1, 658020, Note_on_c, 0, 74, 0
1, 658080, Tempo, 404040
1, 658080, Note_on_c, 0, 81, 48
1, 658080, Note_on_c, 0, 73, 40
1, 658080, Note_on_c, 0, 78, 40
1, 658080, Note_on_c, 0, 45, 44
1, 658093, Control_c, 0, 64, 0
1, 658286, Control_c, 0, 64, 127
1, 658320, Note_on_c, 0, 45, 0
1, 658560, Tempo, 465116
1, 658560, Note_on_c, 0, 57, 33
1, 658800, Note_on_c, 0, 57, 0
1, 659011, Note_on_c, 0, 78, 0
1, 659011, Note_on_c, 0, 73, 0
1, 659011, Note_on_c, 0, 81, 0
1, 659040, Tempo, 419580
1, 659040, Note_on_c, 0, 79, 45
1, 659040, Note_on_c, 0, 76, 38
1, 659040, Note_on_c, 0, 73, 38
1, 659040, Note_on_c, 0, 64, 26
1, 659040, Note_on_c, 0, 67, 31
1, 659052, Control_c, 0, 64, 0
1, 659280, Note_on_c, 0, 67, 0
1, 659280, Note_on_c, 0, 64, 0
1, 659294, Control_c, 0, 64, 127
1, 659520, Note_on_c, 0, 45, 41
1, 659760, Note_on_c, 0, 45, 0
1, 659855, Note_on_c, 0, 73, 0
1, 659855, Note_on_c, 0, 76, 0
1, 659855, Note_on_c, 0, 79, 0
1, 659880, Tempo, 397351
1, 659880, Note_on_c, 0, 76, 42
1, 659880, Note_on_c, 0, 79, 35
1, 659880, Note_on_c, 0, 69, 35
1, 659940, Note_on_c, 0, 69, 0
1, 659940, Note_on_c, 0, 79, 0
1, 659940, Note_on_c, 0, 76, 0
1, 660000, Tempo, 385852
1, 660000, Note_on_c, 0, 79, 38
1, 660000, Note_on_c, 0, 69, 38
1, 660000, Note_on_c, 0, 76, 45
1, 660000, Note_on_c, 0, 57, 31
1, 660120, Note_on_c, 0, 76, 0
1, 660120, Note_on_c, 0, 79, 0
1, 660120, Note_on_c, 0, 69, 0
1, 660240, Note_on_c, 0, 57, 0
1, 660360, Note_on_c, 0, 79, 35
1, 660360, Note_on_c, 0, 69, 35
1, 660360, Note_on_c, 0, 76, 42
1, 660420, Note_on_c, 0, 76, 0
1, 660420, Note_on_c, 0, 69, 0
1, 660420, Note_on_c, 0, 79, 0
1, 660480, Tempo, 377358
1, 660480, Note_on_c, 0, 69, 37
1, 660480, Note_on_c, 0, 78, 37
1, 660480, Note_on_c, 0, 74, 45
1, 660480, Note_on_c, 0, 67, 31
1, 660480, Note_on_c, 0, 64, 26
1, 660600, Note_on_c, 0, 74, 0
1, 660600, Note_on_c, 0, 69, 0
1, 660600, Note_on_c, 0, 78, 0
1, 660720, Tempo, 510638
1, 660720, Note_on_c, 0, 67, 0
1, 660720, Note_on_c, 0, 64, 0
1, 660840, Note_on_c, 0, 76, 42
1, 660840, Note_on_c, 0, 69, 35
1, 660840, Note_on_c, 0, 73, 42
1, 660900, Note_on_c, 0, 73, 0
1, 660900, Note_on_c, 0, 69, 0
1, 660900, Note_on_c, 0, 76, 0
1, 660960, Tempo, 449438
1, 660960, Note_on_c, 0, 74, 38
1, 660960, Note_on_c, 0, 66, 32
1, 660960, Note_on_c, 0, 69, 32
1, 660960, Note_on_c, 0, 50, 35
1, 660973, Control_c, 0, 64, 0
1, 661166, Control_c, 0, 64, 127
1, 661200, Note_on_c, 0, 50, 0
1, 661440, Tempo, 465116
1, 661440, Note_on_c, 0, 54, 26
1, 661680, Note_on_c, 0, 54, 0
1, 661891, Note_on_c, 0, 69, 0
1, 661891, Note_on_c, 0, 66, 0
1, 661891, Note_on_c, 0, 74, 0
1, 661920, Tempo, 419580
1, 661920, Note_on_c, 0, 66, 32
1, 661920, Note_on_c, 0, 69, 32
1, 661920, Note_on_c, 0, 74, 38
1, 661920, Note_on_c, 0, 62, 26
1, 661920, Note_on_c, 0, 57, 21
1, 662160, Note_on_c, 0, 57, 0
1, 662160, Note_on_c, 0, 62, 0
1, 662400, Note_on_c, 0, 66, 0
1, 662400, Note_on_c, 0, 69, 0
1, 662400, Note_on_c, 0, 74, 0
1, 662400, Note_on_c, 0, 45, 39
1, 662414, Control_c, 0, 64, 0
1, 662460, Control_c, 0, 64, 127
1, 662640, Note_on_c, 0, 45, 0
1, 662760, Tempo, 402685
1, 662760, Note_on_c, 0, 76, 36
1, 662760, Note_on_c, 0, 79, 30
1, 662760, Note_on_c, 0, 69, 30
1, 662820, Note_on_c, 0, 69, 0
1, 662820, Note_on_c, 0, 79, 0
1, 662820, Note_on_c, 0, 76, 0
1, 662880, Tempo, 392157
1, 662880, Note_on_c, 0, 79, 33
1, 662880, Note_on_c, 0, 69, 33
1, 662880, Note_on_c, 0, 76, 39
1, 662880, Note_on_c, 0, 55, 27
1, 663000, Note_on_c, 0, 76, 0
1, 663000, Note_on_c, 0, 79, 0
1, 663000, Note_on_c, 0, 69, 0
1, 663120, Note_on_c, 0, 55, 0
1, 663240, Note_on_c, 0, 79, 30
1, 663240, Note_on_c, 0, 76, 35
1, 663240, Note_on_c, 0, 69, 30
1, 663300, Note_on_c, 0, 69, 0
1, 663300, Note_on_c, 0, 76, 0
1, 663300, Note_on_c, 0, 79, 0
1, 663360, Tempo, 384615
1, 663360, Note_on_c, 0, 74, 38
1, 663360, Note_on_c, 0, 69, 31
1, 663360, Note_on_c, 0, 78, 31
1, 663360, Note_on_c, 0, 61, 26
1, 663360, Note_on_c, 0, 57, 22
1, 663480, Note_on_c, 0, 78, 0
1, 663480, Note_on_c, 0, 74, 0
1, 663480, Note_on_c, 0, 69, 0
1, 663600, Tempo, 510638
1, 663600, Note_on_c, 0, 61, 0
1, 663600, Note_on_c, 0, 57, 0
1, 663720, Note_on_c, 0, 76, 34
1, 663720, Note_on_c, 0, 69, 29
1, 663720, Note_on_c, 0, 73, 34
1, 663780, Note_on_c, 0, 73, 0
1, 663780, Note_on_c, 0, 69, 0
1, 663780, Note_on_c, 0, 76, 0
1, 663840, Tempo, 449438
1, 663840, Note_on_c, 0, 74, 33
1, 663840, Note_on_c, 0, 66, 28
1, 663840, Note_on_c, 0, 69, 28
1, 663840, Note_on_c, 0, 50, 30
1, 663853, Control_c, 0, 64, 0
1, 664046, Control_c, 0, 64, 127
1, 664080, Note_on_c, 0, 50, 0
1, 664320, Tempo, 465116
1, 664320, Note_on_c, 0, 54, 22
1, 664560, Note_on_c, 0, 54, 0
1, 664771, Note_on_c, 0, 69, 0
1, 664771, Note_on_c, 0, 66, 0
1, 664771, Note_on_c, 0, 74, 0
1, 664800, Tempo, 419580
1, 664800, Note_on_c, 0, 66, 26
1, 664800, Note_on_c, 0, 69, 26
1, 664800, Note_on_c, 0, 74, 32
1, 664800, Note_on_c, 0, 62, 21
1, 664800, Note_on_c, 0, 57, 17
1, 665040, Note_on_c, 0, 57, 0
1, 665040, Note_on_c, 0, 62, 0
1, 665280, Note_on_c, 0, 66, 0
1, 665280, Note_on_c, 0, 69, 0
1, 665280, Note_on_c, 0, 74, 0
1, 665280, Note_on_c, 0, 45, 31
1, 665283, Control_c, 0, 64, 0
1, 665379, Control_c, 0, 64, 127
1, 665520, Note_on_c, 0, 45, 0
1, 665640, Tempo, 415225
1, 665640, Note_on_c, 0, 79, 23
1, 665640, Note_on_c, 0, 69, 23
1, 665640, Note_on_c, 0, 76, 28
1, 665700, Note_on_c, 0, 76, 0
1, 665700, Note_on_c, 0, 69, 0
1, 665700, Note_on_c, 0, 79, 0
1, 665760, Tempo, 402685
1, 665760, Note_on_c, 0, 69, 25
1, 665760, Note_on_c, 0, 79, 25
1, 665760, Note_on_c, 0, 76, 30
1, 665760, Note_on_c, 0, 55, 20
1, 665880, Note_on_c, 0, 76, 0
1, 665880, Note_on_c, 0, 69, 0
1, 665880, Note_on_c, 0, 79, 0
1, 666000, Note_on_c, 0, 55, 0
1, 666120, Note_on_c, 0, 79, 22
1, 666120, Note_on_c, 0, 69, 22
1, 666120, Note_on_c, 0, 76, 26
1, 666180, Note_on_c, 0, 76, 0
1, 666180, Note_on_c, 0, 69, 0
1, 666180, Note_on_c, 0, 79, 0
1, 666240, Tempo, 393443
1, 666240, Note_on_c, 0, 74, 29
1, 666240, Note_on_c, 0, 78, 23
1, 666240, Note_on_c, 0, 69, 23
1, 666240, Note_on_c, 0, 61, 19
1, 666240, Note_on_c, 0, 57, 16
1, 666360, Note_on_c, 0, 69, 0
1, 666360, Note_on_c, 0, 74, 0
1, 666360, Note_on_c, 0, 78, 0
1, 666480, Tempo, 510638
1, 666480, Note_on_c, 0, 61, 0
1, 666480, Note_on_c, 0, 57, 0
1, 666600, Note_on_c, 0, 76, 25
1, 666600, Note_on_c, 0, 69, 21
1, 666600, Note_on_c, 0, 73, 25
1, 666660, Note_on_c, 0, 73, 0
1, 666660, Note_on_c, 0, 69, 0
1, 666660, Note_on_c, 0, 76, 0
1, 666720, Tempo, 449438
1, 666720, Note_on_c, 0, 69, 24
1, 666720, Note_on_c, 0, 74, 28
1, 666720, Note_on_c, 0, 66, 24
1, 666720, Note_on_c, 0, 50, 25
1, 666733, Control_c, 0, 64, 0
1, 666926, Control_c, 0, 64, 127
1, 666960, Note_on_c, 0, 50, 0
1, 667200, Tempo, 465116
1, 667200, Note_on_c, 0, 54, 19
1, 667440, Note_on_c, 0, 54, 0
1, 667651, Note_on_c, 0, 66, 0
1, 667651, Note_on_c, 0, 74, 0
1, 667651, Note_on_c, 0, 69, 0
1, 667680, Tempo, 436364
1, 667680, Note_on_c, 0, 66, 24
1, 667680, Note_on_c, 0, 69, 24
1, 667680, Note_on_c, 0, 74, 28
1, 667680, Note_on_c, 0, 62, 19
1, 667680, Note_on_c, 0, 57, 16
1, 667920, Note_on_c, 0, 57, 0
1, 667920, Note_on_c, 0, 74, 0
1, 667920, Note_on_c, 0, 66, 0
1, 667920, Note_on_c, 0, 69, 0
1, 667920, Note_on_c, 0, 62, 0
1, 668160, Tempo, 449438
1, 668160, Note_on_c, 0, 50, 25
1, 668400, Note_on_c, 0, 50, 0
1, 668640, Tempo, 424028
1, 668640, Note_on_c, 0, 69, 24
1, 668640, Note_on_c, 0, 74, 28
1, 668640, Note_on_c, 0, 66, 24
1, 668640, Note_on_c, 0, 54, 19
1, 668880, Note_on_c, 0, 54, 0
1, 668880, Note_on_c, 0, 69, 0
1, 668880, Note_on_c, 0, 74, 0
1, 668880, Note_on_c, 0, 66, 0
1, 669120, Tempo, 447761
1, 669120, Note_on_c, 0, 69, 28
1, 669120, Note_on_c, 0, 66, 24
1, 669120, Note_on_c, 0, 57, 16
1, 669120, Note_on_c, 0, 62, 19
1, 669360, Note_on_c, 0, 62, 0
1, 669360, Note_on_c, 0, 69, 0
1, 669360, Note_on_c, 0, 66, 0
1, 669360, Note_on_c, 0, 57, 0
1, 669600, Tempo, 481928
1, 669600, Note_on_c, 0, 69, 24
1, 669600, Note_on_c, 0, 66, 24
1, 669600, Note_on_c, 0, 74, 28
1, 669600, Note_on_c, 0, 50, 25
1, 669840, Note_on_c, 0, 50, 0
1, 670080, Tempo, 465116
1, 670080, Note_on_c, 0, 54, 19
1, 670320, Note_on_c, 0, 54, 0
1, 670531, Note_on_c, 0, 74, 0
1, 670531, Note_on_c, 0, 66, 0
1, 670531, Note_on_c, 0, 69, 0
1, 670560, Tempo, 437956
1, 670560, Note_on_c, 0, 74, 28
1, 670560, Note_on_c, 0, 69, 24
1, 670560, Note_on_c, 0, 66, 24
1, 670560, Note_on_c, 0, 62, 19
1, 670560, Note_on_c, 0, 57, 16
1, 670800, Note_on_c, 0, 57, 0
1, 670800, Note_on_c, 0, 66, 0
1, 670800, Note_on_c, 0, 74, 0
1, 670800, Note_on_c, 0, 69, 0
1, 670800, Note_on_c, 0, 62, 0
1, 671040, Tempo, 449438
1, 671040, Note_on_c, 0, 50, 25
1, 671280, Note_on_c, 0, 50, 0
1, 671520, Tempo, 424028
1, 671520, Note_on_c, 0, 74, 28
1, 671520, Note_on_c, 0, 69, 24
1, 671520, Note_on_c, 0, 66, 24
1, 671520, Note_on_c, 0, 54, 19
1, 671760, Note_on_c, 0, 54, 0
1, 671760, Note_on_c, 0, 74, 0
1, 671760, Note_on_c, 0, 69, 0
1, 671760, Note_on_c, 0, 66, 0
1, 672000, Tempo, 451128
1, 672000, Note_on_c, 0, 66, 24
1, 672000, Note_on_c, 0, 69, 28
1, 672000, Note_on_c, 0, 57, 16
1, 672000, Note_on_c, 0, 62, 19
1, 672240, Note_on_c, 0, 62, 0
1, 672240, Note_on_c, 0, 66, 0
1, 672240, Note_on_c, 0, 69, 0
1, 672240, Note_on_c, 0, 57, 0
1, 672480, Tempo, 449438
1, 672480, Note_on_c, 0, 74, 28
1, 672480, Note_on_c, 0, 66, 24
1, 672480, Note_on_c, 0, 69, 24
1, 672480, Note_on_c, 0, 50, 25
1, 672493, Control_c, 0, 64, 0
1, 672706, Control_c, 0, 64, 127
1, 672720, Note_on_c, 0, 50, 0
1, 672720, Note_on_c, 0, 74, 0
1, 672720, Note_on_c, 0, 66, 0
1, 672720, Note_on_c, 0, 69, 0
1, 673920, Tempo, 481928
1, 673920, Note_on_c, 0, 66, 23
1, 673920, Note_on_c, 0, 69, 23
1, 673920, Note_on_c, 0, 74, 26
1, 673920, Note_on_c, 0, 62, 24
1, 673920, Note_on_c, 0, 50, 20
1, 673920, Note_on_c, 0, 57, 20
1, 674160, Note_on_c, 0, 57, 0
1, 674160, Note_on_c, 0, 69, 0
1, 674160, Note_on_c, 0, 74, 0
1, 674160, Note_on_c, 0, 66, 0
1, 674160, Note_on_c, 0, 50, 0
1, 674160, Note_on_c, 0, 62, 0
1, 675360, Tempo, 540541
1, 675360, Note_on_c, 0, 69, 21
1, 675360, Note_on_c, 0, 74, 25
1, 675360, Note_on_c, 0, 66, 21
1, 675360, Note_on_c, 0, 50, 19
1, 675360, Note_on_c, 0, 57, 19
1, 675360, Note_on_c, 0, 62, 22
1, 677280, Note_on_c, 0, 62, 0
1, 677280, Note_on_c, 0, 74, 0
1, 677280, Note_on_c, 0, 66, 0
1, 677280, Note_on_c, 0, 69, 0
1, 677280, Note_on_c, 0, 57, 0
1, 677280, Note_on_c, 0, 50, 0
1, 677787, Control_c, 0, 64, 0
1, 677787, End_track
0, 0, End_of_file
