0, 0, Header, 0, 1, 480
1, 0, Start_track
1, 0, Title_t, "Sonata D850, 2. movement"
1, 0, Copyright_t, "Copyright © 2010 by Bernd Krueger"
1, 0, Text_t, "Franz Schubert"
1, 0, Text_t, "Con moto"
1, 0, Text_t, "Erstellt am 19.2.2010\012"
1, 0, Text_t, "Update am 13.3.2014\012"
1, 0, Text_t, "Dauer: 10:09 Minuten\012"
1, 0, Time_signature, 3, 2, 24, 8
1, 0, Key_signature, 3, "major"
1, 0, Tempo, 857143
1, 0, Program_c, 0, 0
1, 0, Program_c, 0, 0
1, 0, Program_c, 0, 0
1, 720, Marker_t, "Teil 1"
1, 720, Note_on_c, 0, 61, 39
1, 720, Note_on_c, 0, 64, 46
1, 720, Note_on_c, 0, 45, 28
1, 720, Note_on_c, 0, 52, 34
1, 780, Control_c, 0, 64, 127
1, 960, Note_on_c, 0, 52, 0
1, 960, Note_on_c, 0, 61, 0
1, 960, Note_on_c, 0, 64, 0
1, 960, Note_on_c, 0, 45, 0
1, 960, Note_on_c, 0, 62, 42
1, 960, Note_on_c, 0, 66, 50
1, 960, Note_on_c, 0, 45, 34
1, 960, Note_on_c, 0, 54, 40
1, 969, Control_c, 0, 64, 0
1, 1086, Control_c, 0, 64, 127
1, 1176, Note_on_c, 0, 54, 0
1, 1176, Note_on_c, 0, 62, 0
1, 1176, Note_on_c, 0, 66, 0
1, 1176, Note_on_c, 0, 45, 0
1, 1200, Tempo, 1034483
1, 1200, Note_on_c, 0, 60, 34
1, 1200, Note_on_c, 0, 63, 40
1, 1200, Note_on_c, 0, 45, 24
1, 1200, Note_on_c, 0, 51, 29
1, 1211, Control_c, 0, 64, 0
1, 1326, Control_c, 0, 64, 127
1, 1416, Note_on_c, 0, 51, 0
1, 1416, Note_on_c, 0, 60, 0
1, 1416, Note_on_c, 0, 63, 0
1, 1416, Note_on_c, 0, 45, 0
1, 1440, Tempo, 863309
1, 1440, Note_on_c, 0, 61, 39
1, 1440, Note_on_c, 0, 64, 47
1, 1440, Note_on_c, 0, 45, 31
1, 1440, Note_on_c, 0, 52, 37
1, 1440, Control_c, 0, 64, 0
1, 1600, Control_c, 0, 64, 127
1, 2150, Note_on_c, 0, 52, 0
1, 2150, Note_on_c, 0, 61, 0
1, 2150, Note_on_c, 0, 64, 0
1, 2150, Note_on_c, 0, 45, 0
1, 2160, Note_on_c, 0, 61, 42
1, 2160, Note_on_c, 0, 64, 42
1, 2160, Note_on_c, 0, 69, 55
1, 2160, Note_on_c, 0, 45, 34
1, 2160, Note_on_c, 0, 52, 34
1, 2160, Note_on_c, 0, 57, 41
1, 2168, Control_c, 0, 64, 0
1, 2297, Control_c, 0, 64, 127
1, 2400, Tempo, 833333
1, 2400, Note_on_c, 0, 57, 0
1, 2400, Note_on_c, 0, 69, 0
1, 2400, Note_on_c, 0, 71, 57
1, 2400, Note_on_c, 0, 59, 43
1, 2640, Tempo, 1100917
1, 2640, Note_on_c, 0, 59, 0
1, 2640, Note_on_c, 0, 64, 0
1, 2640, Note_on_c, 0, 52, 0
1, 2640, Note_on_c, 0, 61, 0
1, 2640, Note_on_c, 0, 71, 0
1, 2640, Note_on_c, 0, 45, 0
1, 2640, Note_on_c, 0, 61, 47
1, 2640, Note_on_c, 0, 65, 47
1, 2640, Note_on_c, 0, 73, 61
1, 2640, Note_on_c, 0, 45, 38
1, 2640, Note_on_c, 0, 53, 38
1, 2640, Note_on_c, 0, 57, 45
1, 2650, Control_c, 0, 64, 0
1, 2856, Note_on_c, 0, 57, 0
1, 2856, Note_on_c, 0, 65, 0
1, 2856, Note_on_c, 0, 73, 0
1, 2856, Note_on_c, 0, 61, 0
1, 2856, Note_on_c, 0, 53, 0
1, 2856, Note_on_c, 0, 45, 0
1, 2880, Tempo, 916031
1, 2880, Note_on_c, 0, 62, 38
1, 2880, Note_on_c, 0, 66, 45
1, 2880, Note_on_c, 0, 73, 58
1, 2880, Note_on_c, 0, 50, 29
1, 2880, Note_on_c, 0, 54, 35
1, 2880, Note_on_c, 0, 58, 42
1, 2949, Control_c, 0, 64, 127
1, 3360, Tempo, 983607
1, 3360, Note_on_c, 0, 58, 0
1, 3360, Note_on_c, 0, 73, 0
1, 3360, Note_on_c, 0, 71, 44
1, 3360, Note_on_c, 0, 59, 37
1, 3369, Control_c, 0, 64, 0
1, 3600, Tempo, 863309
1, 3600, Note_on_c, 0, 59, 0
1, 3600, Note_on_c, 0, 66, 0
1, 3600, Note_on_c, 0, 54, 0
1, 3600, Note_on_c, 0, 62, 0
1, 3600, Note_on_c, 0, 71, 0
1, 3600, Note_on_c, 0, 50, 0
1, 3600, Note_on_c, 0, 62, 40
1, 3600, Note_on_c, 0, 69, 56
1, 3600, Note_on_c, 0, 50, 32
1, 3600, Note_on_c, 0, 54, 38
1, 3668, Control_c, 0, 64, 127
1, 3840, Tempo, 902256
1, 3840, Note_on_c, 0, 54, 0
1, 3840, Note_on_c, 0, 50, 0
1, 3840, Note_on_c, 0, 69, 0
1, 3840, Note_on_c, 0, 68, 53
1, 3840, Note_on_c, 0, 52, 29
1, 3840, Note_on_c, 0, 56, 35
1, 3853, Control_c, 0, 64, 0
1, 3966, Control_c, 0, 64, 127
1, 4080, Tempo, 960000
1, 4080, Note_on_c, 0, 56, 0
1, 4080, Note_on_c, 0, 62, 0
1, 4080, Note_on_c, 0, 68, 0
1, 4080, Note_on_c, 0, 52, 0
1, 4080, Note_on_c, 0, 62, 37
1, 4080, Note_on_c, 0, 66, 48
1, 4080, Note_on_c, 0, 54, 28
1, 4080, Note_on_c, 0, 57, 34
1, 4095, Control_c, 0, 64, 0
1, 4183, Control_c, 0, 64, 127
1, 4296, Note_on_c, 0, 57, 0
1, 4296, Note_on_c, 0, 62, 0
1, 4296, Note_on_c, 0, 66, 0
1, 4296, Note_on_c, 0, 54, 0
1, 4320, Tempo, 851064
1, 4320, Note_on_c, 0, 62, 42
1, 4320, Note_on_c, 0, 64, 50
1, 4320, Note_on_c, 0, 44, 31
1, 4320, Note_on_c, 0, 52, 37
1, 4326, Control_c, 0, 64, 0
1, 4374, Control_c, 0, 64, 127
1, 5030, Note_on_c, 0, 52, 0
1, 5030, Note_on_c, 0, 62, 0
1, 5030, Note_on_c, 0, 64, 0
1, 5030, Note_on_c, 0, 44, 0
1, 5040, Tempo, 944882
1, 5040, Note_on_c, 0, 62, 42
1, 5040, Note_on_c, 0, 64, 50
1, 5040, Note_on_c, 0, 44, 34
1, 5040, Note_on_c, 0, 52, 40
1, 5049, Control_c, 0, 64, 0
1, 5094, Control_c, 0, 64, 127
1, 5150, Note_on_c, 0, 64, 0
1, 5160, Tempo, 740741
1, 5160, Note_on_c, 0, 62, 0
1, 5160, Note_on_c, 0, 64, 40
1, 5200, Note_on_c, 0, 64, 0
1, 5200, Note_on_c, 0, 66, 40
1, 5240, Note_on_c, 0, 66, 0
1, 5240, Note_on_c, 0, 68, 40
1, 5280, Tempo, 857143
1, 5280, Note_on_c, 0, 68, 0
1, 5280, Note_on_c, 0, 44, 0
1, 5280, Note_on_c, 0, 52, 0
1, 5280, Note_on_c, 0, 62, 42
1, 5280, Note_on_c, 0, 66, 50
1, 5280, Note_on_c, 0, 44, 31
1, 5280, Note_on_c, 0, 54, 37
1, 5294, Control_c, 0, 64, 0
1, 5372, Control_c, 0, 64, 127
1, 5496, Note_on_c, 0, 54, 0
1, 5496, Note_on_c, 0, 62, 0
1, 5496, Note_on_c, 0, 66, 0
1, 5496, Note_on_c, 0, 44, 0
1, 5520, Tempo, 1008403
1, 5520, Note_on_c, 0, 62, 35
1, 5520, Note_on_c, 0, 64, 42
1, 5520, Note_on_c, 0, 44, 29
1, 5520, Note_on_c, 0, 52, 35
1, 5535, Control_c, 0, 64, 0
1, 5580, Control_c, 0, 64, 127
1, 5736, Note_on_c, 0, 52, 0
1, 5736, Note_on_c, 0, 62, 0
1, 5736, Note_on_c, 0, 64, 0
1, 5736, Note_on_c, 0, 44, 0
1, 5760, Tempo, 902256
1, 5760, Note_on_c, 0, 62, 42
1, 5760, Note_on_c, 0, 66, 50
1, 5760, Note_on_c, 0, 45, 34
1, 5760, Note_on_c, 0, 54, 40
1, 5760, Control_c, 0, 64, 0
1, 5897, Control_c, 0, 64, 127
1, 6240, Tempo, 1075269
1, 6240, Note_on_c, 0, 54, 0
1, 6240, Note_on_c, 0, 62, 0
1, 6240, Note_on_c, 0, 66, 0
1, 6240, Note_on_c, 0, 61, 37
1, 6240, Note_on_c, 0, 64, 44
1, 6240, Note_on_c, 0, 52, 36
1, 6254, Control_c, 0, 64, 0
1, 6470, Note_on_c, 0, 52, 0
1, 6470, Note_on_c, 0, 64, 0
1, 6470, Note_on_c, 0, 61, 0
1, 6480, Tempo, 857143
1, 6480, Note_on_c, 0, 45, 0
1, 6480, Note_on_c, 0, 57, 48
1, 6480, Note_on_c, 0, 61, 57
1, 6480, Note_on_c, 0, 45, 35
1, 6480, Note_on_c, 0, 49, 42
1, 6540, Control_c, 0, 64, 127
1, 6720, Note_on_c, 0, 49, 0
1, 6720, Note_on_c, 0, 57, 0
1, 6720, Note_on_c, 0, 61, 0
1, 6720, Note_on_c, 0, 45, 0
1, 6720, Note_on_c, 0, 62, 52
1, 6720, Note_on_c, 0, 66, 62
1, 6720, Note_on_c, 0, 45, 42
1, 6720, Note_on_c, 0, 54, 50
1, 6729, Control_c, 0, 64, 0
1, 6835, Control_c, 0, 64, 127
1, 6936, Note_on_c, 0, 54, 0
1, 6936, Note_on_c, 0, 62, 0
1, 6936, Note_on_c, 0, 66, 0
1, 6936, Note_on_c, 0, 45, 0
1, 6960, Tempo, 1034483
1, 6960, Note_on_c, 0, 60, 42
1, 6960, Note_on_c, 0, 63, 50
1, 6960, Note_on_c, 0, 45, 29
1, 6960, Note_on_c, 0, 51, 36
1, 6974, Control_c, 0, 64, 0
1, 7063, Control_c, 0, 64, 127
1, 7176, Note_on_c, 0, 51, 0
1, 7176, Note_on_c, 0, 60, 0
1, 7176, Note_on_c, 0, 63, 0
1, 7176, Note_on_c, 0, 45, 0
1, 7200, Tempo, 863309
1, 7200, Note_on_c, 0, 61, 48
1, 7200, Note_on_c, 0, 64, 59
1, 7200, Note_on_c, 0, 45, 38
1, 7200, Note_on_c, 0, 52, 46
1, 7204, Control_c, 0, 64, 0
1, 7341, Control_c, 0, 64, 127
1, 7910, Note_on_c, 0, 52, 0
1, 7910, Note_on_c, 0, 61, 0
1, 7910, Note_on_c, 0, 64, 0
1, 7910, Note_on_c, 0, 45, 0
1, 7920, Note_on_c, 0, 64, 59
1, 7920, Note_on_c, 0, 69, 69
1, 7920, Note_on_c, 0, 61, 57
1, 7928, Control_c, 0, 64, 0
1, 8057, Control_c, 0, 64, 127
1, 8160, Tempo, 833333
1, 8160, Note_on_c, 0, 61, 0
1, 8160, Note_on_c, 0, 73, 78
1, 8160, Note_on_c, 0, 57, 61
1, 8390, Note_on_c, 0, 69, 0
1, 8390, Note_on_c, 0, 64, 0
1, 8400, Tempo, 1100917
1, 8400, Note_on_c, 0, 73, 0
1, 8400, Note_on_c, 0, 57, 0
1, 8400, Note_on_c, 0, 69, 63
1, 8400, Note_on_c, 0, 64, 63
1, 8400, Note_on_c, 0, 73, 63
1, 8400, Note_on_c, 0, 76, 75
1, 8400, Note_on_c, 0, 45, 54
1, 8400, Note_on_c, 0, 52, 64
1, 8410, Control_c, 0, 64, 0
1, 8616, Note_on_c, 0, 52, 0
1, 8616, Note_on_c, 0, 64, 0
1, 8616, Note_on_c, 0, 73, 0
1, 8616, Note_on_c, 0, 69, 0
1, 8616, Note_on_c, 0, 45, 0
1, 8616, Note_on_c, 0, 76, 0
1, 8640, Tempo, 916031
1, 8640, Note_on_c, 0, 73, 67
1, 8640, Note_on_c, 0, 64, 67
1, 8640, Note_on_c, 0, 68, 67
1, 8640, Note_on_c, 0, 76, 79
1, 8640, Note_on_c, 0, 44, 59
1, 8640, Note_on_c, 0, 52, 59
1, 8640, Note_on_c, 0, 56, 70
1, 8709, Control_c, 0, 64, 127
1, 9120, Tempo, 983607
1, 9350, Note_on_c, 0, 76, 0
1, 9350, Note_on_c, 0, 68, 0
1, 9350, Note_on_c, 0, 73, 0
1, 9360, Tempo, 863309
1, 9360, Note_on_c, 0, 44, 0
1, 9360, Note_on_c, 0, 64, 0
1, 9360, Note_on_c, 0, 52, 0
1, 9360, Note_on_c, 0, 56, 0
1, 9360, Note_on_c, 0, 64, 40
1, 9360, Note_on_c, 0, 68, 40
1, 9360, Note_on_c, 0, 76, 56
1, 9360, Note_on_c, 0, 56, 32
1, 9360, Note_on_c, 0, 61, 38
1, 9365, Control_c, 0, 64, 0
1, 9468, Control_c, 0, 64, 127
1, 9590, Note_on_c, 0, 56, 0
1, 9590, Note_on_c, 0, 68, 0
1, 9600, Tempo, 902256
1, 9600, Note_on_c, 0, 64, 0
1, 9600, Note_on_c, 0, 76, 0
1, 9600, Note_on_c, 0, 61, 0
1, 9600, Note_on_c, 0, 66, 42
1, 9600, Note_on_c, 0, 68, 42
1, 9600, Note_on_c, 0, 75, 53
1, 9600, Note_on_c, 0, 56, 29
1, 9600, Note_on_c, 0, 60, 35
1, 9613, Control_c, 0, 64, 0
1, 9700, Control_c, 0, 64, 127
1, 9830, Note_on_c, 0, 56, 0
1, 9830, Note_on_c, 0, 68, 0
1, 9830, Note_on_c, 0, 66, 0
1, 9840, Tempo, 960000
1, 9840, Note_on_c, 0, 75, 0
1, 9840, Note_on_c, 0, 60, 0
1, 9840, Note_on_c, 0, 66, 37
1, 9840, Note_on_c, 0, 68, 48
1, 9840, Note_on_c, 0, 56, 28
1, 9840, Note_on_c, 0, 63, 34
1, 10056, Note_on_c, 0, 63, 0
1, 10056, Note_on_c, 0, 66, 0
1, 10056, Note_on_c, 0, 68, 0
1, 10056, Note_on_c, 0, 56, 0
1, 10080, Tempo, 851064
1, 10080, Note_on_c, 0, 68, 42
1, 10080, Note_on_c, 0, 64, 42
1, 10080, Note_on_c, 0, 73, 55
1, 10080, Note_on_c, 0, 56, 31
1, 10080, Note_on_c, 0, 49, 31
1, 10080, Note_on_c, 0, 61, 37
1, 10088, Control_c, 0, 64, 0
1, 10244, Control_c, 0, 64, 127
1, 10790, Note_on_c, 0, 61, 0
1, 10790, Note_on_c, 0, 64, 0
1, 10790, Note_on_c, 0, 73, 0
1, 10790, Note_on_c, 0, 49, 0
1, 10800, Tempo, 895522
1, 10800, Note_on_c, 0, 68, 0
1, 10800, Note_on_c, 0, 56, 0
1, 10800, Note_on_c, 0, 61, 42
1, 10800, Note_on_c, 0, 64, 42
1, 10800, Note_on_c, 0, 73, 50
1, 10800, Note_on_c, 0, 52, 34
1, 10800, Note_on_c, 0, 57, 40
1, 10809, Control_c, 0, 64, 0
1, 10870, Control_c, 0, 64, 127
1, 11030, Note_on_c, 0, 52, 0
1, 11030, Note_on_c, 0, 64, 0
1, 11040, Tempo, 944882
1, 11040, Note_on_c, 0, 61, 0
1, 11040, Note_on_c, 0, 73, 0
1, 11040, Note_on_c, 0, 57, 0
1, 11040, Note_on_c, 0, 62, 42
1, 11040, Note_on_c, 0, 64, 42
1, 11040, Note_on_c, 0, 71, 50
1, 11040, Note_on_c, 0, 52, 31
1, 11040, Note_on_c, 0, 56, 37
1, 11054, Control_c, 0, 64, 0
1, 11141, Control_c, 0, 64, 127
1, 11256, Note_on_c, 0, 56, 0
1, 11256, Note_on_c, 0, 71, 0
1, 11256, Note_on_c, 0, 52, 0
1, 11256, Note_on_c, 0, 64, 0
1, 11280, Tempo, 1192843
1, 11280, Note_on_c, 0, 62, 0
1, 11280, Note_on_c, 0, 62, 35
1, 11280, Note_on_c, 0, 64, 42
1, 11280, Note_on_c, 0, 52, 29
1, 11280, Note_on_c, 0, 59, 35
1, 11496, Note_on_c, 0, 59, 0
1, 11496, Note_on_c, 0, 62, 0
1, 11496, Note_on_c, 0, 64, 0
1, 11496, Note_on_c, 0, 52, 0
1, 11520, Tempo, 952381
1, 11520, Note_on_c, 0, 61, 42
1, 11520, Note_on_c, 0, 69, 50
1, 11520, Note_on_c, 0, 52, 34
1, 11520, Note_on_c, 0, 45, 34
1, 11520, Note_on_c, 0, 57, 40
1, 11520, Control_c, 0, 64, 0
1, 11707, Control_c, 0, 64, 127
1, 12000, Tempo, 937500
1, 12000, Note_on_c, 0, 57, 0
1, 12000, Note_on_c, 0, 52, 0
1, 12000, Note_on_c, 0, 61, 0
1, 12000, Note_on_c, 0, 69, 0
1, 12000, Note_on_c, 0, 45, 0
1, 12014, Control_c, 0, 64, 0
1, 12240, Tempo, 857143
1, 12240, Marker_t, "Teil 1 Wiederholung"
1, 12240, Note_on_c, 0, 61, 39
1, 12240, Note_on_c, 0, 64, 46
1, 12240, Note_on_c, 0, 45, 28
1, 12240, Note_on_c, 0, 52, 34
1, 12300, Control_c, 0, 64, 127
1, 12480, Note_on_c, 0, 52, 0
1, 12480, Note_on_c, 0, 61, 0
1, 12480, Note_on_c, 0, 64, 0
1, 12480, Note_on_c, 0, 45, 0
1, 12480, Note_on_c, 0, 62, 42
1, 12480, Note_on_c, 0, 66, 50
1, 12480, Note_on_c, 0, 45, 34
1, 12480, Note_on_c, 0, 54, 40
1, 12489, Control_c, 0, 64, 0
1, 12606, Control_c, 0, 64, 127
1, 12696, Note_on_c, 0, 54, 0
1, 12696, Note_on_c, 0, 62, 0
1, 12696, Note_on_c, 0, 66, 0
1, 12696, Note_on_c, 0, 45, 0
1, 12720, Tempo, 1034483
1, 12720, Note_on_c, 0, 60, 34
1, 12720, Note_on_c, 0, 63, 40
1, 12720, Note_on_c, 0, 45, 24
1, 12720, Note_on_c, 0, 51, 29
1, 12731, Control_c, 0, 64, 0
1, 12846, Control_c, 0, 64, 127
1, 12936, Note_on_c, 0, 51, 0
1, 12936, Note_on_c, 0, 60, 0
1, 12936, Note_on_c, 0, 63, 0
1, 12936, Note_on_c, 0, 45, 0
1, 12960, Tempo, 863309
1, 12960, Note_on_c, 0, 61, 39
1, 12960, Note_on_c, 0, 64, 47
1, 12960, Note_on_c, 0, 45, 31
1, 12960, Note_on_c, 0, 52, 37
1, 12960, Control_c, 0, 64, 0
1, 13120, Control_c, 0, 64, 127
1, 13670, Note_on_c, 0, 52, 0
1, 13670, Note_on_c, 0, 61, 0
1, 13670, Note_on_c, 0, 64, 0
1, 13670, Note_on_c, 0, 45, 0
1, 13680, Note_on_c, 0, 61, 42
1, 13680, Note_on_c, 0, 64, 42
1, 13680, Note_on_c, 0, 69, 55
1, 13680, Note_on_c, 0, 45, 34
1, 13680, Note_on_c, 0, 52, 34
1, 13680, Note_on_c, 0, 57, 41
1, 13688, Control_c, 0, 64, 0
1, 13817, Control_c, 0, 64, 127
1, 13920, Tempo, 833333
1, 13920, Note_on_c, 0, 57, 0
1, 13920, Note_on_c, 0, 69, 0
1, 13920, Note_on_c, 0, 71, 57
1, 13920, Note_on_c, 0, 59, 43
1, 14160, Tempo, 1061947
1, 14160, Note_on_c, 0, 59, 0
1, 14160, Note_on_c, 0, 64, 0
1, 14160, Note_on_c, 0, 52, 0
1, 14160, Note_on_c, 0, 61, 0
1, 14160, Note_on_c, 0, 71, 0
1, 14160, Note_on_c, 0, 45, 0
1, 14160, Note_on_c, 0, 61, 47
1, 14160, Note_on_c, 0, 65, 47
1, 14160, Note_on_c, 0, 73, 61
1, 14160, Note_on_c, 0, 45, 38
1, 14160, Note_on_c, 0, 53, 38
1, 14160, Note_on_c, 0, 57, 45
1, 14170, Control_c, 0, 64, 0
1, 14376, Note_on_c, 0, 57, 0
1, 14376, Note_on_c, 0, 65, 0
1, 14376, Note_on_c, 0, 73, 0
1, 14376, Note_on_c, 0, 61, 0
1, 14376, Note_on_c, 0, 53, 0
1, 14376, Note_on_c, 0, 45, 0
1, 14400, Tempo, 916031
1, 14400, Note_on_c, 0, 62, 38
1, 14400, Note_on_c, 0, 66, 45
1, 14400, Note_on_c, 0, 73, 58
1, 14400, Note_on_c, 0, 50, 29
1, 14400, Note_on_c, 0, 54, 35
1, 14400, Note_on_c, 0, 58, 42
1, 14469, Control_c, 0, 64, 127
1, 14880, Tempo, 967742
1, 14880, Note_on_c, 0, 58, 0
1, 14880, Note_on_c, 0, 73, 0
1, 14880, Note_on_c, 0, 71, 44
1, 14880, Note_on_c, 0, 59, 37
1, 14889, Control_c, 0, 64, 0
1, 15120, Tempo, 863309
1, 15120, Note_on_c, 0, 59, 0
1, 15120, Note_on_c, 0, 66, 0
1, 15120, Note_on_c, 0, 54, 0
1, 15120, Note_on_c, 0, 62, 0
1, 15120, Note_on_c, 0, 71, 0
1, 15120, Note_on_c, 0, 50, 0
1, 15120, Note_on_c, 0, 62, 40
1, 15120, Note_on_c, 0, 69, 56
1, 15120, Note_on_c, 0, 50, 32
1, 15120, Note_on_c, 0, 54, 38
1, 15188, Control_c, 0, 64, 127
1, 15360, Tempo, 902256
1, 15360, Note_on_c, 0, 54, 0
1, 15360, Note_on_c, 0, 50, 0
1, 15360, Note_on_c, 0, 69, 0
1, 15360, Note_on_c, 0, 68, 53
1, 15360, Note_on_c, 0, 52, 29
1, 15360, Note_on_c, 0, 56, 35
1, 15373, Control_c, 0, 64, 0
1, 15486, Control_c, 0, 64, 127
1, 15600, Tempo, 960000
1, 15600, Note_on_c, 0, 56, 0
1, 15600, Note_on_c, 0, 62, 0
1, 15600, Note_on_c, 0, 68, 0
1, 15600, Note_on_c, 0, 52, 0
1, 15600, Note_on_c, 0, 62, 37
1, 15600, Note_on_c, 0, 66, 48
1, 15600, Note_on_c, 0, 54, 28
1, 15600, Note_on_c, 0, 57, 34
1, 15615, Control_c, 0, 64, 0
1, 15703, Control_c, 0, 64, 127
1, 15816, Note_on_c, 0, 57, 0
1, 15816, Note_on_c, 0, 62, 0
1, 15816, Note_on_c, 0, 66, 0
1, 15816, Note_on_c, 0, 54, 0
1, 15840, Tempo, 851064
1, 15840, Note_on_c, 0, 62, 42
1, 15840, Note_on_c, 0, 64, 50
1, 15840, Note_on_c, 0, 44, 31
1, 15840, Note_on_c, 0, 52, 37
1, 15846, Control_c, 0, 64, 0
1, 15894, Control_c, 0, 64, 127
1, 16550, Note_on_c, 0, 52, 0
1, 16550, Note_on_c, 0, 62, 0
1, 16550, Note_on_c, 0, 64, 0
1, 16550, Note_on_c, 0, 44, 0
1, 16560, Tempo, 944882
1, 16560, Note_on_c, 0, 62, 42
1, 16560, Note_on_c, 0, 64, 50
1, 16560, Note_on_c, 0, 44, 34
1, 16560, Note_on_c, 0, 52, 40
1, 16569, Control_c, 0, 64, 0
1, 16614, Control_c, 0, 64, 127
1, 16670, Note_on_c, 0, 64, 0
1, 16680, Tempo, 740741
1, 16680, Note_on_c, 0, 62, 0
1, 16680, Note_on_c, 0, 64, 40
1, 16720, Note_on_c, 0, 64, 0
1, 16720, Note_on_c, 0, 66, 40
1, 16760, Note_on_c, 0, 66, 0
1, 16760, Note_on_c, 0, 68, 40
1, 16800, Tempo, 857143
1, 16800, Note_on_c, 0, 68, 0
1, 16800, Note_on_c, 0, 44, 0
1, 16800, Note_on_c, 0, 52, 0
1, 16800, Note_on_c, 0, 62, 42
1, 16800, Note_on_c, 0, 66, 50
1, 16800, Note_on_c, 0, 44, 31
1, 16800, Note_on_c, 0, 54, 37
1, 16814, Control_c, 0, 64, 0
1, 16892, Control_c, 0, 64, 127
1, 17016, Note_on_c, 0, 54, 0
1, 17016, Note_on_c, 0, 62, 0
1, 17016, Note_on_c, 0, 66, 0
1, 17016, Note_on_c, 0, 44, 0
1, 17040, Tempo, 1008403
1, 17040, Note_on_c, 0, 62, 35
1, 17040, Note_on_c, 0, 64, 42
1, 17040, Note_on_c, 0, 44, 29
1, 17040, Note_on_c, 0, 52, 35
1, 17055, Control_c, 0, 64, 0
1, 17100, Control_c, 0, 64, 127
1, 17256, Note_on_c, 0, 52, 0
1, 17256, Note_on_c, 0, 62, 0
1, 17256, Note_on_c, 0, 64, 0
1, 17256, Note_on_c, 0, 44, 0
1, 17280, Tempo, 902256
1, 17280, Note_on_c, 0, 62, 42
1, 17280, Note_on_c, 0, 66, 50
1, 17280, Note_on_c, 0, 45, 34
1, 17280, Note_on_c, 0, 54, 40
1, 17280, Control_c, 0, 64, 0
1, 17417, Control_c, 0, 64, 127
1, 17760, Tempo, 1100917
1, 17760, Note_on_c, 0, 54, 0
1, 17760, Note_on_c, 0, 62, 0
1, 17760, Note_on_c, 0, 66, 0
1, 17760, Note_on_c, 0, 61, 37
1, 17760, Note_on_c, 0, 64, 44
1, 17760, Note_on_c, 0, 52, 36
1, 17774, Control_c, 0, 64, 0
1, 17990, Note_on_c, 0, 52, 0
1, 17990, Note_on_c, 0, 64, 0
1, 17990, Note_on_c, 0, 61, 0
1, 18000, Tempo, 857143
1, 18000, Note_on_c, 0, 45, 0
1, 18000, Note_on_c, 0, 57, 48
1, 18000, Note_on_c, 0, 61, 57
1, 18000, Note_on_c, 0, 45, 35
1, 18000, Note_on_c, 0, 49, 42
1, 18060, Control_c, 0, 64, 127
1, 18240, Tempo, 839161
1, 18240, Note_on_c, 0, 49, 0
1, 18240, Note_on_c, 0, 57, 0
1, 18240, Note_on_c, 0, 61, 0
1, 18240, Note_on_c, 0, 45, 0
1, 18240, Note_on_c, 0, 62, 52
1, 18240, Note_on_c, 0, 66, 62
1, 18240, Note_on_c, 0, 45, 42
1, 18240, Note_on_c, 0, 54, 50
1, 18249, Control_c, 0, 64, 0
1, 18355, Control_c, 0, 64, 127
1, 18456, Note_on_c, 0, 54, 0
1, 18456, Note_on_c, 0, 62, 0
1, 18456, Note_on_c, 0, 66, 0
1, 18456, Note_on_c, 0, 45, 0
1, 18480, Tempo, 1034483
1, 18480, Note_on_c, 0, 60, 42
1, 18480, Note_on_c, 0, 63, 50
1, 18480, Note_on_c, 0, 45, 29
1, 18480, Note_on_c, 0, 51, 36
1, 18494, Control_c, 0, 64, 0
1, 18583, Control_c, 0, 64, 127
1, 18696, Note_on_c, 0, 51, 0
1, 18696, Note_on_c, 0, 60, 0
1, 18696, Note_on_c, 0, 63, 0
1, 18696, Note_on_c, 0, 45, 0
1, 18720, Tempo, 863309
1, 18720, Note_on_c, 0, 61, 48
1, 18720, Note_on_c, 0, 64, 59
1, 18720, Note_on_c, 0, 45, 38
1, 18720, Note_on_c, 0, 52, 46
1, 18724, Control_c, 0, 64, 0
1, 18861, Control_c, 0, 64, 127
1, 19430, Note_on_c, 0, 52, 0
1, 19430, Note_on_c, 0, 61, 0
1, 19430, Note_on_c, 0, 64, 0
1, 19430, Note_on_c, 0, 45, 0
1, 19440, Note_on_c, 0, 64, 59
1, 19440, Note_on_c, 0, 69, 69
1, 19440, Note_on_c, 0, 61, 57
1, 19448, Control_c, 0, 64, 0
1, 19577, Control_c, 0, 64, 127
1, 19680, Tempo, 833333
1, 19680, Note_on_c, 0, 61, 0
1, 19680, Note_on_c, 0, 73, 78
1, 19680, Note_on_c, 0, 57, 61
1, 19910, Note_on_c, 0, 69, 0
1, 19910, Note_on_c, 0, 64, 0
1, 19920, Tempo, 1100917
1, 19920, Note_on_c, 0, 73, 0
1, 19920, Note_on_c, 0, 57, 0
1, 19920, Note_on_c, 0, 69, 63
1, 19920, Note_on_c, 0, 64, 63
1, 19920, Note_on_c, 0, 73, 63
1, 19920, Note_on_c, 0, 76, 75
1, 19920, Note_on_c, 0, 45, 54
1, 19920, Note_on_c, 0, 52, 64
1, 19930, Control_c, 0, 64, 0
1, 20136, Note_on_c, 0, 52, 0
1, 20136, Note_on_c, 0, 64, 0
1, 20136, Note_on_c, 0, 73, 0
1, 20136, Note_on_c, 0, 69, 0
1, 20136, Note_on_c, 0, 45, 0
1, 20136, Note_on_c, 0, 76, 0
1, 20160, Tempo, 916031
1, 20160, Note_on_c, 0, 73, 67
1, 20160, Note_on_c, 0, 64, 67
1, 20160, Note_on_c, 0, 68, 67
1, 20160, Note_on_c, 0, 76, 79
1, 20160, Note_on_c, 0, 44, 59
1, 20160, Note_on_c, 0, 52, 59
1, 20160, Note_on_c, 0, 56, 70
1, 20229, Control_c, 0, 64, 127
1, 20640, Tempo, 983607
1, 20870, Note_on_c, 0, 76, 0
1, 20870, Note_on_c, 0, 68, 0
1, 20870, Note_on_c, 0, 73, 0
1, 20880, Tempo, 863309
1, 20880, Note_on_c, 0, 44, 0
1, 20880, Note_on_c, 0, 64, 0
1, 20880, Note_on_c, 0, 52, 0
1, 20880, Note_on_c, 0, 56, 0
1, 20880, Note_on_c, 0, 64, 40
1, 20880, Note_on_c, 0, 68, 40
1, 20880, Note_on_c, 0, 76, 56
1, 20880, Note_on_c, 0, 56, 32
1, 20880, Note_on_c, 0, 61, 38
1, 20885, Control_c, 0, 64, 0
1, 20988, Control_c, 0, 64, 127
1, 21110, Note_on_c, 0, 56, 0
1, 21110, Note_on_c, 0, 68, 0
1, 21120, Tempo, 882353
1, 21120, Note_on_c, 0, 64, 0
1, 21120, Note_on_c, 0, 76, 0
1, 21120, Note_on_c, 0, 61, 0
1, 21120, Note_on_c, 0, 66, 42
1, 21120, Note_on_c, 0, 68, 42
1, 21120, Note_on_c, 0, 75, 53
1, 21120, Note_on_c, 0, 56, 29
1, 21120, Note_on_c, 0, 60, 35
1, 21133, Control_c, 0, 64, 0
1, 21220, Control_c, 0, 64, 127
1, 21350, Note_on_c, 0, 60, 0
1, 21350, Note_on_c, 0, 68, 0
1, 21350, Note_on_c, 0, 66, 0
1, 21350, Note_on_c, 0, 56, 0
1, 21360, Tempo, 967742
1, 21360, Note_on_c, 0, 75, 0
1, 21360, Note_on_c, 0, 66, 37
1, 21360, Note_on_c, 0, 68, 48
1, 21360, Note_on_c, 0, 56, 28
1, 21360, Note_on_c, 0, 63, 34
1, 21576, Note_on_c, 0, 63, 0
1, 21576, Note_on_c, 0, 66, 0
1, 21576, Note_on_c, 0, 68, 0
1, 21576, Note_on_c, 0, 56, 0
1, 21600, Tempo, 851064
1, 21600, Note_on_c, 0, 68, 42
1, 21600, Note_on_c, 0, 64, 42
1, 21600, Note_on_c, 0, 73, 55
1, 21600, Note_on_c, 0, 56, 31
1, 21600, Note_on_c, 0, 49, 31
1, 21600, Note_on_c, 0, 61, 37
1, 21608, Control_c, 0, 64, 0
1, 21764, Control_c, 0, 64, 127
1, 22310, Note_on_c, 0, 61, 0
1, 22310, Note_on_c, 0, 64, 0
1, 22310, Note_on_c, 0, 73, 0
1, 22310, Note_on_c, 0, 49, 0
1, 22320, Tempo, 895522
1, 22320, Note_on_c, 0, 68, 0
1, 22320, Note_on_c, 0, 56, 0
1, 22320, Note_on_c, 0, 61, 42
1, 22320, Note_on_c, 0, 64, 42
1, 22320, Note_on_c, 0, 73, 50
1, 22320, Note_on_c, 0, 52, 34
1, 22320, Note_on_c, 0, 57, 40
1, 22329, Control_c, 0, 64, 0
1, 22390, Control_c, 0, 64, 127
1, 22550, Note_on_c, 0, 52, 0
1, 22550, Note_on_c, 0, 64, 0
1, 22560, Tempo, 944882
1, 22560, Note_on_c, 0, 61, 0
1, 22560, Note_on_c, 0, 73, 0
1, 22560, Note_on_c, 0, 57, 0
1, 22560, Note_on_c, 0, 62, 42
1, 22560, Note_on_c, 0, 64, 42
1, 22560, Note_on_c, 0, 71, 50
1, 22560, Note_on_c, 0, 52, 31
1, 22560, Note_on_c, 0, 56, 37
1, 22574, Control_c, 0, 64, 0
1, 22661, Control_c, 0, 64, 127
1, 22776, Note_on_c, 0, 56, 0
1, 22776, Note_on_c, 0, 71, 0
1, 22776, Note_on_c, 0, 52, 0
1, 22776, Note_on_c, 0, 64, 0
1, 22800, Tempo, 1192843
1, 22800, Note_on_c, 0, 62, 0
1, 22800, Note_on_c, 0, 62, 35
1, 22800, Note_on_c, 0, 64, 42
1, 22800, Note_on_c, 0, 52, 29
1, 22800, Note_on_c, 0, 59, 35
1, 23016, Note_on_c, 0, 59, 0
1, 23016, Note_on_c, 0, 62, 0
1, 23016, Note_on_c, 0, 64, 0
1, 23016, Note_on_c, 0, 52, 0
1, 23040, Tempo, 952381
1, 23040, Note_on_c, 0, 61, 42
1, 23040, Note_on_c, 0, 69, 50
1, 23040, Note_on_c, 0, 54, 34
1, 23040, Note_on_c, 0, 57, 40
1, 23040, Control_c, 0, 64, 0
1, 23227, Control_c, 0, 64, 127
1, 23760, Tempo, 882353
1, 23760, Marker_t, "Teil 2"
1, 23760, Note_on_c, 0, 57, 0
1, 23760, Note_on_c, 0, 61, 0
1, 23760, Note_on_c, 0, 69, 0
1, 23760, Note_on_c, 0, 54, 0
1, 23760, Note_on_c, 0, 61, 50
1, 23760, Note_on_c, 0, 67, 50
1, 23760, Note_on_c, 0, 70, 59
1, 23760, Note_on_c, 0, 52, 36
1, 23760, Note_on_c, 0, 55, 43
1, 23773, Control_c, 0, 64, 0
1, 23864, Control_c, 0, 64, 127
1, 23990, Note_on_c, 0, 55, 0
1, 23990, Note_on_c, 0, 70, 0
1, 23990, Note_on_c, 0, 61, 0
1, 23990, Note_on_c, 0, 67, 0
1, 23990, Note_on_c, 0, 52, 0
1, 24000, Note_on_c, 0, 62, 54
1, 24000, Note_on_c, 0, 67, 54
1, 24000, Note_on_c, 0, 71, 64
1, 24000, Note_on_c, 0, 50, 39
1, 24000, Note_on_c, 0, 55, 46
1, 24014, Control_c, 0, 64, 0
1, 24072, Control_c, 0, 64, 127
1, 24240, Tempo, 1200000
1, 24240, Note_on_c, 0, 55, 0
1, 24240, Note_on_c, 0, 71, 0
1, 24240, Note_on_c, 0, 62, 0
1, 24240, Note_on_c, 0, 67, 0
1, 24240, Note_on_c, 0, 50, 0
1, 24240, Note_on_c, 0, 64, 57
1, 24240, Note_on_c, 0, 70, 68
1, 24240, Note_on_c, 0, 67, 57
1, 24240, Note_on_c, 0, 73, 68
1, 24240, Note_on_c, 0, 49, 40
1, 24240, Note_on_c, 0, 55, 48
1, 24246, Control_c, 0, 64, 0
1, 24312, Control_c, 0, 64, 127
1, 24456, Note_on_c, 0, 55, 0
1, 24456, Note_on_c, 0, 70, 0
1, 24456, Note_on_c, 0, 67, 0
1, 24456, Note_on_c, 0, 64, 0
1, 24456, Note_on_c, 0, 49, 0
1, 24456, Note_on_c, 0, 73, 0
1, 24480, Tempo, 863309
1, 24480, Note_on_c, 0, 62, 61
1, 24480, Note_on_c, 0, 67, 61
1, 24480, Note_on_c, 0, 71, 61
1, 24480, Note_on_c, 0, 74, 72
1, 24480, Note_on_c, 0, 47, 43
1, 24480, Note_on_c, 0, 55, 51
1, 24483, Control_c, 0, 64, 0
1, 24623, Control_c, 0, 64, 127
1, 25200, Tempo, 863309
1, 25200, Note_on_c, 0, 55, 0
1, 25200, Note_on_c, 0, 67, 0
1, 25200, Note_on_c, 0, 71, 0
1, 25200, Note_on_c, 0, 62, 0
1, 25200, Note_on_c, 0, 47, 0
1, 25200, Note_on_c, 0, 74, 0
1, 25200, Note_on_c, 0, 62, 40
1, 25200, Note_on_c, 0, 71, 56
1, 25200, Note_on_c, 0, 50, 32
1, 25200, Note_on_c, 0, 55, 38
1, 25205, Control_c, 0, 64, 0
1, 25308, Control_c, 0, 64, 127
1, 25430, Note_on_c, 0, 55, 0
1, 25430, Note_on_c, 0, 50, 0
1, 25430, Note_on_c, 0, 62, 0
1, 25440, Tempo, 902256
1, 25440, Note_on_c, 0, 71, 0
1, 25440, Note_on_c, 0, 62, 40
1, 25440, Note_on_c, 0, 67, 51
1, 25440, Note_on_c, 0, 53, 28
1, 25440, Note_on_c, 0, 55, 34
1, 25453, Control_c, 0, 64, 0
1, 25540, Control_c, 0, 64, 127
1, 25670, Note_on_c, 0, 53, 0
1, 25670, Note_on_c, 0, 62, 0
1, 25680, Tempo, 1111111
1, 25680, Note_on_c, 0, 67, 0
1, 25680, Note_on_c, 0, 55, 0
1, 25680, Note_on_c, 0, 59, 37
1, 25680, Note_on_c, 0, 62, 48
1, 25680, Note_on_c, 0, 55, 34
1, 25896, Note_on_c, 0, 55, 0
1, 25896, Note_on_c, 0, 62, 0
1, 25896, Note_on_c, 0, 59, 0
1, 25920, Tempo, 851064
1, 25920, Note_on_c, 0, 60, 37
1, 25920, Note_on_c, 0, 64, 49
1, 25920, Note_on_c, 0, 48, 27
1, 25920, Note_on_c, 0, 55, 33
1, 25928, Control_c, 0, 64, 0
1, 26084, Control_c, 0, 64, 127
1, 26630, Note_on_c, 0, 55, 0
1, 26630, Note_on_c, 0, 60, 0
1, 26630, Note_on_c, 0, 64, 0
1, 26630, Note_on_c, 0, 48, 0
1, 26640, Tempo, 863309
1, 26640, Note_on_c, 0, 59, 34
1, 26640, Note_on_c, 0, 62, 47
1, 26640, Note_on_c, 0, 43, 27
1, 26640, Note_on_c, 0, 55, 32
1, 26645, Control_c, 0, 64, 0
1, 26748, Control_c, 0, 64, 127
1, 26870, Note_on_c, 0, 43, 0
1, 26880, Tempo, 875912
1, 26880, Note_on_c, 0, 59, 0
1, 26880, Note_on_c, 0, 62, 0
1, 26880, Note_on_c, 0, 55, 0
1, 26880, Note_on_c, 0, 60, 34
1, 26880, Note_on_c, 0, 64, 43
1, 26880, Note_on_c, 0, 48, 23
1, 26880, Note_on_c, 0, 55, 28
1, 26893, Control_c, 0, 64, 0
1, 26980, Control_c, 0, 64, 127
1, 27110, Note_on_c, 0, 48, 0
1, 27110, Note_on_c, 0, 60, 0
1, 27120, Tempo, 902256
1, 27120, Note_on_c, 0, 64, 0
1, 27120, Note_on_c, 0, 55, 0
1, 27120, Note_on_c, 0, 59, 31
1, 27120, Note_on_c, 0, 65, 40
1, 27120, Note_on_c, 0, 50, 23
1, 27120, Note_on_c, 0, 55, 28
1, 27133, Control_c, 0, 64, 0
1, 27212, Control_c, 0, 64, 127
1, 27336, Note_on_c, 0, 55, 0
1, 27336, Note_on_c, 0, 59, 0
1, 27336, Note_on_c, 0, 65, 0
1, 27360, Tempo, 851064
1, 27360, Note_on_c, 0, 50, 0
1, 27360, Note_on_c, 0, 60, 35
1, 27360, Note_on_c, 0, 64, 46
1, 27360, Note_on_c, 0, 48, 26
1, 27360, Note_on_c, 0, 55, 31
1, 27368, Control_c, 0, 64, 0
1, 27524, Control_c, 0, 64, 127
1, 27580, Note_on_c, 0, 55, 0
1, 27580, Note_on_c, 0, 60, 0
1, 27580, Note_on_c, 0, 64, 0
1, 27580, Note_on_c, 0, 48, 0
1, 27600, Tempo, 863309
1, 27600, Note_on_c, 0, 71, 34
1, 27600, Note_on_c, 0, 74, 47
1, 27600, Note_on_c, 0, 55, 27
1, 27600, Note_on_c, 0, 67, 32
1, 27605, Control_c, 0, 64, 0
1, 27708, Control_c, 0, 64, 127
1, 27830, Note_on_c, 0, 55, 0
1, 27840, Tempo, 882353
1, 27840, Note_on_c, 0, 71, 0
1, 27840, Note_on_c, 0, 74, 0
1, 27840, Note_on_c, 0, 67, 0
1, 27840, Note_on_c, 0, 72, 34
1, 27840, Note_on_c, 0, 76, 43
1, 27840, Note_on_c, 0, 60, 23
1, 27840, Note_on_c, 0, 67, 28
1, 27853, Control_c, 0, 64, 0
1, 27940, Control_c, 0, 64, 127
1, 28070, Note_on_c, 0, 60, 0
1, 28070, Note_on_c, 0, 72, 0
1, 28080, Tempo, 888889
1, 28080, Note_on_c, 0, 76, 0
1, 28080, Note_on_c, 0, 67, 0
1, 28080, Note_on_c, 0, 71, 31
1, 28080, Note_on_c, 0, 77, 40
1, 28080, Note_on_c, 0, 62, 23
1, 28080, Note_on_c, 0, 67, 28
1, 28093, Control_c, 0, 64, 0
1, 28172, Control_c, 0, 64, 127
1, 28296, Note_on_c, 0, 67, 0
1, 28296, Note_on_c, 0, 71, 0
1, 28296, Note_on_c, 0, 77, 0
1, 28320, Tempo, 833333
1, 28320, Note_on_c, 0, 62, 0
1, 28320, Note_on_c, 0, 72, 35
1, 28320, Note_on_c, 0, 76, 46
1, 28320, Note_on_c, 0, 60, 26
1, 28320, Note_on_c, 0, 67, 31
1, 28328, Control_c, 0, 64, 0
1, 28484, Control_c, 0, 64, 127
1, 28540, Note_on_c, 0, 67, 0
1, 28540, Note_on_c, 0, 72, 0
1, 28540, Note_on_c, 0, 76, 0
1, 28540, Note_on_c, 0, 60, 0
1, 28560, Tempo, 923077
1, 28560, Note_on_c, 0, 59, 34
1, 28560, Note_on_c, 0, 62, 47
1, 28560, Note_on_c, 0, 43, 27
1, 28560, Note_on_c, 0, 55, 32
1, 28565, Control_c, 0, 64, 0
1, 28668, Control_c, 0, 64, 127
1, 28790, Note_on_c, 0, 43, 0
1, 28800, Tempo, 975610
1, 28800, Note_on_c, 0, 59, 0
1, 28800, Note_on_c, 0, 62, 0
1, 28800, Note_on_c, 0, 55, 0
1, 28800, Note_on_c, 0, 60, 34
1, 28800, Note_on_c, 0, 64, 43
1, 28800, Note_on_c, 0, 48, 23
1, 28800, Note_on_c, 0, 55, 28
1, 28813, Control_c, 0, 64, 0
1, 28900, Control_c, 0, 64, 127
1, 28980, Note_on_c, 0, 67, 37
1, 29030, Note_on_c, 0, 48, 0
1, 29030, Note_on_c, 0, 60, 0
1, 29040, Tempo, 1081081
1, 29040, Note_on_c, 0, 64, 0
1, 29040, Note_on_c, 0, 55, 0
1, 29040, Note_on_c, 0, 67, 0
1, 29040, Note_on_c, 0, 59, 31
1, 29040, Note_on_c, 0, 65, 40
1, 29040, Note_on_c, 0, 50, 23
1, 29040, Note_on_c, 0, 55, 28
1, 29053, Control_c, 0, 64, 0
1, 29132, Control_c, 0, 64, 127
1, 29256, Note_on_c, 0, 55, 0
1, 29256, Note_on_c, 0, 59, 0
1, 29256, Note_on_c, 0, 65, 0
1, 29280, Tempo, 895522
1, 29280, Note_on_c, 0, 50, 0
1, 29280, Note_on_c, 0, 60, 35
1, 29280, Note_on_c, 0, 64, 46
1, 29280, Note_on_c, 0, 48, 26
1, 29280, Note_on_c, 0, 55, 31
1, 29288, Control_c, 0, 64, 0
1, 29360, Control_c, 0, 64, 127
1, 29500, Note_on_c, 0, 55, 0
1, 29500, Note_on_c, 0, 60, 0
1, 29500, Note_on_c, 0, 64, 0
1, 29500, Note_on_c, 0, 48, 0
1, 29520, Note_on_c, 0, 62, 45
1, 29520, Note_on_c, 0, 64, 53
1, 29520, Note_on_c, 0, 47, 29
1, 29520, Note_on_c, 0, 52, 29
1, 29520, Note_on_c, 0, 56, 35
1, 29526, Control_c, 0, 64, 0
1, 29580, Control_c, 0, 64, 127
1, 29760, Tempo, 882353
1, 29760, Note_on_c, 0, 56, 0
1, 29760, Note_on_c, 0, 47, 0
1, 29760, Note_on_c, 0, 62, 0
1, 29760, Note_on_c, 0, 64, 0
1, 29760, Note_on_c, 0, 52, 0
1, 29760, Note_on_c, 0, 62, 45
1, 29760, Note_on_c, 0, 64, 45
1, 29760, Note_on_c, 0, 66, 53
1, 29760, Note_on_c, 0, 47, 31
1, 29760, Note_on_c, 0, 52, 31
1, 29760, Note_on_c, 0, 56, 38
1, 30000, Note_on_c, 0, 56, 0
1, 30000, Note_on_c, 0, 64, 0
1, 30000, Note_on_c, 0, 66, 0
1, 30000, Note_on_c, 0, 62, 0
1, 30000, Note_on_c, 0, 52, 0
1, 30000, Note_on_c, 0, 47, 0
1, 30000, Note_on_c, 0, 68, 60
1, 30000, Note_on_c, 0, 62, 48
1, 30000, Note_on_c, 0, 64, 48
1, 30000, Note_on_c, 0, 47, 37
1, 30000, Note_on_c, 0, 52, 37
1, 30000, Note_on_c, 0, 56, 44
1, 30240, Note_on_c, 0, 56, 0
1, 30240, Note_on_c, 0, 62, 0
1, 30240, Note_on_c, 0, 64, 0
1, 30240, Note_on_c, 0, 68, 0
1, 30240, Note_on_c, 0, 52, 0
1, 30240, Note_on_c, 0, 47, 0
1, 30240, Note_on_c, 0, 57, 56
1, 30240, Note_on_c, 0, 61, 56
1, 30240, Note_on_c, 0, 69, 66
1, 30240, Note_on_c, 0, 49, 42
1, 30240, Note_on_c, 0, 52, 42
1, 30240, Note_on_c, 0, 57, 51
1, 30273, Control_c, 0, 64, 0
1, 30364, Control_c, 0, 64, 127
1, 30480, Tempo, 983607
1, 30480, Note_on_c, 0, 57, 0
1, 30480, Note_on_c, 0, 61, 0
1, 30480, Note_on_c, 0, 69, 0
1, 30480, Note_on_c, 0, 57, 0
1, 30480, Note_on_c, 0, 52, 0
1, 30480, Note_on_c, 0, 49, 0
1, 30480, Note_on_c, 0, 63, 59
1, 30480, Note_on_c, 0, 71, 70
1, 30480, Note_on_c, 0, 69, 59
1, 30480, Note_on_c, 0, 54, 47
1, 30480, Note_on_c, 0, 57, 47
1, 30480, Note_on_c, 0, 59, 56
1, 30488, Control_c, 0, 64, 0
1, 30571, Control_c, 0, 64, 127
1, 30720, Tempo, 944882
1, 30720, Note_on_c, 0, 59, 0
1, 30720, Note_on_c, 0, 71, 0
1, 30720, Note_on_c, 0, 69, 0
1, 30720, Note_on_c, 0, 63, 0
1, 30720, Note_on_c, 0, 57, 0
1, 30720, Note_on_c, 0, 54, 0
1, 30720, Note_on_c, 0, 64, 62
1, 30720, Note_on_c, 0, 69, 62
1, 30720, Note_on_c, 0, 73, 74
1, 30720, Note_on_c, 0, 52, 49
1, 30720, Note_on_c, 0, 57, 49
1, 30720, Note_on_c, 0, 61, 59
1, 30729, Control_c, 0, 64, 0
1, 30833, Control_c, 0, 64, 127
1, 31200, Tempo, 916031
1, 31200, Note_on_c, 0, 61, 0
1, 31200, Note_on_c, 0, 69, 0
1, 31200, Note_on_c, 0, 73, 0
1, 31200, Note_on_c, 0, 64, 0
1, 31200, Note_on_c, 0, 57, 0
1, 31200, Note_on_c, 0, 52, 0
1, 31200, Note_on_c, 0, 62, 62
1, 31200, Note_on_c, 0, 64, 62
1, 31200, Note_on_c, 0, 68, 62
1, 31200, Note_on_c, 0, 73, 74
1, 31200, Note_on_c, 0, 40, 42
1, 31200, Note_on_c, 0, 52, 50
1, 31214, Control_c, 0, 64, 0
1, 31348, Control_c, 0, 64, 127
1, 31560, Tempo, 1081081
1, 31560, Note_on_c, 0, 73, 0
1, 31560, Note_on_c, 0, 71, 61
1, 31680, Tempo, 857143
1, 31680, Note_on_c, 0, 71, 0
1, 31680, Note_on_c, 0, 52, 0
1, 31680, Note_on_c, 0, 68, 0
1, 31680, Note_on_c, 0, 62, 0
1, 31680, Note_on_c, 0, 64, 0
1, 31680, Note_on_c, 0, 40, 0
1, 31680, Note_on_c, 0, 61, 44
1, 31680, Note_on_c, 0, 64, 44
1, 31680, Note_on_c, 0, 69, 52
1, 31680, Note_on_c, 0, 45, 34
1, 31680, Note_on_c, 0, 52, 41
1, 31680, Control_c, 0, 64, 0
1, 32400, Tempo, 863309
1, 32400, Note_on_c, 0, 52, 0
1, 32400, Note_on_c, 0, 69, 0
1, 32400, Note_on_c, 0, 61, 0
1, 32400, Note_on_c, 0, 64, 0
1, 32400, Note_on_c, 0, 45, 0
1, 32400, Note_on_c, 0, 64, 47
1, 32400, Note_on_c, 0, 52, 30
1, 32405, Control_c, 0, 64, 0
1, 32508, Control_c, 0, 64, 127
1, 32630, Note_on_c, 0, 52, 0
1, 32640, Tempo, 902256
1, 32640, Note_on_c, 0, 64, 0
1, 32640, Note_on_c, 0, 61, 51
1, 32640, Note_on_c, 0, 49, 34
1, 32880, Tempo, 1000000
1, 32880, Note_on_c, 0, 49, 0
1, 32880, Note_on_c, 0, 61, 0
1, 32880, Note_on_c, 0, 57, 43
1, 32880, Note_on_c, 0, 45, 34
1, 33050, Note_on_c, 0, 45, 0
1, 33050, Note_on_c, 0, 57, 0
1, 33060, Note_on_c, 0, 57, 37
1, 33060, Note_on_c, 0, 45, 27
1, 33120, Tempo, 851064
1, 33120, Note_on_c, 0, 45, 0
1, 33120, Note_on_c, 0, 64, 49
1, 33120, Note_on_c, 0, 52, 33
1, 33129, Note_on_c, 0, 57, 0
1, 33130, Control_c, 0, 64, 0
1, 33284, Control_c, 0, 64, 127
1, 33720, Control_c, 0, 64, 0
1, 33830, Note_on_c, 0, 52, 0
1, 33830, Note_on_c, 0, 64, 0
1, 33840, Tempo, 863309
1, 33840, Note_on_c, 0, 64, 51
1, 33840, Note_on_c, 0, 52, 33
1, 33948, Control_c, 0, 64, 127
1, 34070, Note_on_c, 0, 52, 0
1, 34080, Tempo, 902256
1, 34080, Note_on_c, 0, 64, 0
1, 34080, Note_on_c, 0, 61, 56
1, 34080, Note_on_c, 0, 49, 37
1, 34320, Tempo, 1008403
1, 34320, Note_on_c, 0, 49, 0
1, 34320, Note_on_c, 0, 61, 0
1, 34320, Note_on_c, 0, 58, 47
1, 34320, Note_on_c, 0, 46, 37
1, 34490, Note_on_c, 0, 46, 0
1, 34490, Note_on_c, 0, 58, 0
1, 34500, Note_on_c, 0, 58, 40
1, 34500, Note_on_c, 0, 46, 29
1, 34560, Tempo, 851064
1, 34560, Note_on_c, 0, 46, 0
1, 34560, Note_on_c, 0, 64, 53
1, 34560, Note_on_c, 0, 52, 36
1, 34569, Note_on_c, 0, 58, 0
1, 34570, Control_c, 0, 64, 0
1, 34800, Control_c, 0, 64, 127
1, 35100, Control_c, 0, 64, 0
1, 35270, Note_on_c, 0, 52, 0
1, 35270, Note_on_c, 0, 64, 0
1, 35280, Tempo, 863309
1, 35280, Note_on_c, 0, 64, 56
1, 35280, Note_on_c, 0, 52, 36
1, 35388, Control_c, 0, 64, 127
1, 35510, Note_on_c, 0, 52, 0
1, 35520, Tempo, 902256
1, 35520, Note_on_c, 0, 64, 0
1, 35520, Note_on_c, 0, 62, 65
1, 35520, Note_on_c, 0, 50, 43
1, 35760, Tempo, 952381
1, 35760, Note_on_c, 0, 50, 0
1, 35760, Note_on_c, 0, 62, 0
1, 35760, Note_on_c, 0, 59, 58
1, 35760, Note_on_c, 0, 47, 46
1, 35930, Note_on_c, 0, 47, 0
1, 35930, Note_on_c, 0, 59, 0
1, 35940, Note_on_c, 0, 59, 52
1, 35940, Note_on_c, 0, 47, 37
1, 36000, Tempo, 930233
1, 36000, Note_on_c, 0, 47, 0
1, 36000, Note_on_c, 0, 66, 69
1, 36000, Note_on_c, 0, 54, 54
1, 36009, Note_on_c, 0, 59, 0
1, 36010, Control_c, 0, 64, 0
1, 36137, Control_c, 0, 64, 127
1, 36216, Note_on_c, 0, 54, 0
1, 36216, Note_on_c, 0, 66, 0
1, 36240, Tempo, 857143
1, 36240, Note_on_c, 0, 61, 56
1, 36240, Note_on_c, 0, 66, 56
1, 36240, Note_on_c, 0, 70, 67
1, 36240, Note_on_c, 0, 52, 45
1, 36240, Note_on_c, 0, 54, 54
1, 36250, Control_c, 0, 64, 0
1, 36343, Control_c, 0, 64, 127
1, 36456, Note_on_c, 0, 54, 0
1, 36456, Note_on_c, 0, 70, 0
1, 36456, Note_on_c, 0, 61, 0
1, 36456, Note_on_c, 0, 66, 0
1, 36456, Note_on_c, 0, 52, 0
1, 36480, Note_on_c, 0, 59, 54
1, 36480, Note_on_c, 0, 66, 54
1, 36480, Note_on_c, 0, 71, 64
1, 36480, Note_on_c, 0, 50, 44
1, 36480, Note_on_c, 0, 54, 52
1, 36493, Control_c, 0, 64, 0
1, 36595, Control_c, 0, 64, 127
1, 36696, Note_on_c, 0, 54, 0
1, 36696, Note_on_c, 0, 71, 0
1, 36696, Note_on_c, 0, 59, 0
1, 36696, Note_on_c, 0, 66, 0
1, 36696, Note_on_c, 0, 50, 0
1, 36720, Note_on_c, 0, 61, 51
1, 36720, Note_on_c, 0, 66, 51
1, 36720, Note_on_c, 0, 73, 61
1, 36720, Note_on_c, 0, 46, 41
1, 36720, Note_on_c, 0, 54, 49
1, 36735, Control_c, 0, 64, 0
1, 36835, Control_c, 0, 64, 127
1, 36936, Note_on_c, 0, 54, 0
1, 36936, Note_on_c, 0, 73, 0
1, 36936, Note_on_c, 0, 61, 0
1, 36936, Note_on_c, 0, 66, 0
1, 36936, Note_on_c, 0, 46, 0
1, 36960, Tempo, 888889
1, 36960, Note_on_c, 0, 62, 49
1, 36960, Note_on_c, 0, 66, 49
1, 36960, Note_on_c, 0, 74, 58
1, 36960, Note_on_c, 0, 47, 38
1, 36960, Note_on_c, 0, 54, 45
1, 36975, Control_c, 0, 64, 0
1, 37086, Control_c, 0, 64, 127
1, 37176, Note_on_c, 0, 54, 0
1, 37176, Note_on_c, 0, 74, 0
1, 37176, Note_on_c, 0, 62, 0
1, 37176, Note_on_c, 0, 66, 0
1, 37176, Note_on_c, 0, 47, 0
1, 37200, Tempo, 1121495
1, 37200, Note_on_c, 0, 71, 57
1, 37200, Note_on_c, 0, 74, 57
1, 37200, Note_on_c, 0, 83, 69
1, 37200, Note_on_c, 0, 41, 45
1, 37200, Note_on_c, 0, 50, 53
1, 37416, Note_on_c, 0, 50, 0
1, 37416, Note_on_c, 0, 83, 0
1, 37416, Note_on_c, 0, 71, 0
1, 37416, Note_on_c, 0, 74, 0
1, 37416, Note_on_c, 0, 41, 0
1, 37440, Tempo, 952381
1, 37440, Note_on_c, 0, 71, 53
1, 37440, Note_on_c, 0, 74, 53
1, 37440, Note_on_c, 0, 81, 63
1, 37440, Note_on_c, 0, 40, 39
1, 37440, Note_on_c, 0, 52, 46
1, 37440, Control_c, 0, 64, 0
1, 37577, Control_c, 0, 64, 127
1, 37920, Note_on_c, 0, 81, 0
1, 37920, Note_on_c, 0, 80, 55
1, 37926, Control_c, 0, 64, 0
1, 38160, Tempo, 863309
1, 38160, Note_on_c, 0, 80, 0
1, 38160, Note_on_c, 0, 52, 0
1, 38160, Note_on_c, 0, 71, 0
1, 38160, Note_on_c, 0, 74, 0
1, 38160, Note_on_c, 0, 40, 0
1, 38160, Note_on_c, 0, 64, 47
1, 38160, Note_on_c, 0, 52, 30
1, 38165, Control_c, 0, 64, 0
1, 38268, Control_c, 0, 64, 127
1, 38390, Note_on_c, 0, 52, 0
1, 38400, Tempo, 902256
1, 38400, Note_on_c, 0, 64, 0
1, 38400, Note_on_c, 0, 59, 51
1, 38400, Note_on_c, 0, 47, 34
1, 38640, Tempo, 1000000
1, 38640, Note_on_c, 0, 47, 0
1, 38640, Note_on_c, 0, 59, 0
1, 38640, Note_on_c, 0, 56, 43
1, 38640, Note_on_c, 0, 44, 34
1, 38810, Note_on_c, 0, 44, 0
1, 38810, Note_on_c, 0, 56, 0
1, 38820, Note_on_c, 0, 56, 37
1, 38820, Note_on_c, 0, 44, 27
1, 38880, Tempo, 851064
1, 38880, Note_on_c, 0, 44, 0
1, 38880, Note_on_c, 0, 64, 49
1, 38880, Note_on_c, 0, 52, 33
1, 38889, Note_on_c, 0, 56, 0
1, 38890, Control_c, 0, 64, 0
1, 39044, Control_c, 0, 64, 127
1, 39480, Control_c, 0, 64, 0
1, 39590, Note_on_c, 0, 52, 0
1, 39590, Note_on_c, 0, 64, 0
1, 39600, Tempo, 863309
1, 39600, Note_on_c, 0, 64, 51
1, 39600, Note_on_c, 0, 52, 33
1, 39708, Control_c, 0, 64, 127
1, 39830, Note_on_c, 0, 52, 0
1, 39840, Tempo, 902256
1, 39840, Note_on_c, 0, 64, 0
1, 39840, Note_on_c, 0, 60, 56
1, 39840, Note_on_c, 0, 48, 37
1, 40080, Tempo, 1008403
1, 40080, Note_on_c, 0, 48, 0
1, 40080, Note_on_c, 0, 60, 0
1, 40080, Note_on_c, 0, 57, 47
1, 40080, Note_on_c, 0, 45, 37
1, 40250, Note_on_c, 0, 45, 0
1, 40250, Note_on_c, 0, 57, 0
1, 40260, Note_on_c, 0, 57, 40
1, 40260, Note_on_c, 0, 45, 29
1, 40320, Tempo, 851064
1, 40320, Note_on_c, 0, 45, 0
1, 40320, Note_on_c, 0, 64, 53
1, 40320, Note_on_c, 0, 52, 36
1, 40329, Note_on_c, 0, 57, 0
1, 40330, Control_c, 0, 64, 0
1, 40560, Control_c, 0, 64, 127
1, 40860, Control_c, 0, 64, 0
1, 41030, Note_on_c, 0, 52, 0
1, 41030, Note_on_c, 0, 64, 0
1, 41040, Tempo, 863309
1, 41040, Note_on_c, 0, 64, 56
1, 41040, Note_on_c, 0, 52, 36
1, 41148, Control_c, 0, 64, 127
1, 41270, Note_on_c, 0, 52, 0
1, 41280, Tempo, 902256
1, 41280, Note_on_c, 0, 64, 0
1, 41280, Note_on_c, 0, 61, 65
1, 41280, Note_on_c, 0, 49, 43
1, 41520, Tempo, 952381
1, 41520, Note_on_c, 0, 49, 0
1, 41520, Note_on_c, 0, 61, 0
1, 41520, Note_on_c, 0, 58, 58
1, 41520, Note_on_c, 0, 46, 46
1, 41690, Note_on_c, 0, 46, 0
1, 41690, Note_on_c, 0, 58, 0
1, 41700, Note_on_c, 0, 58, 52
1, 41700, Note_on_c, 0, 46, 37
1, 41760, Tempo, 930233
1, 41760, Note_on_c, 0, 46, 0
1, 41760, Note_on_c, 0, 65, 69
1, 41760, Note_on_c, 0, 53, 54
1, 41769, Note_on_c, 0, 58, 0
1, 41770, Control_c, 0, 64, 0
1, 41897, Control_c, 0, 64, 127
1, 41976, Note_on_c, 0, 53, 0
1, 41976, Note_on_c, 0, 65, 0
1, 42000, Tempo, 888889
1, 42000, Note_on_c, 0, 60, 56
1, 42000, Note_on_c, 0, 65, 56
1, 42000, Note_on_c, 0, 69, 67
1, 42000, Note_on_c, 0, 51, 45
1, 42000, Note_on_c, 0, 53, 54
1, 42010, Control_c, 0, 64, 0
1, 42103, Control_c, 0, 64, 127
1, 42216, Note_on_c, 0, 53, 0
1, 42216, Note_on_c, 0, 69, 0
1, 42216, Note_on_c, 0, 60, 0
1, 42216, Note_on_c, 0, 65, 0
1, 42216, Note_on_c, 0, 51, 0
1, 42240, Tempo, 851064
1, 42240, Note_on_c, 0, 58, 54
1, 42240, Note_on_c, 0, 65, 54
1, 42240, Note_on_c, 0, 70, 64
1, 42240, Note_on_c, 0, 50, 44
1, 42240, Note_on_c, 0, 53, 52
1, 42253, Control_c, 0, 64, 0
1, 42355, Control_c, 0, 64, 127
1, 42456, Note_on_c, 0, 53, 0
1, 42456, Note_on_c, 0, 70, 0
1, 42456, Note_on_c, 0, 58, 0
1, 42456, Note_on_c, 0, 65, 0
1, 42456, Note_on_c, 0, 50, 0
1, 42480, Note_on_c, 0, 60, 51
1, 42480, Note_on_c, 0, 65, 51
1, 42480, Note_on_c, 0, 72, 61
1, 42480, Note_on_c, 0, 45, 41
1, 42480, Note_on_c, 0, 53, 49
1, 42495, Control_c, 0, 64, 0
1, 42595, Control_c, 0, 64, 127
1, 42696, Note_on_c, 0, 53, 0
1, 42696, Note_on_c, 0, 72, 0
1, 42696, Note_on_c, 0, 60, 0
1, 42696, Note_on_c, 0, 65, 0
1, 42696, Note_on_c, 0, 45, 0
1, 42720, Tempo, 888889
1, 42720, Note_on_c, 0, 62, 49
1, 42720, Note_on_c, 0, 65, 49
1, 42720, Note_on_c, 0, 74, 58
1, 42720, Note_on_c, 0, 46, 38
1, 42720, Note_on_c, 0, 53, 45
1, 42735, Control_c, 0, 64, 0
1, 42846, Control_c, 0, 64, 127
1, 42936, Note_on_c, 0, 53, 0
1, 42936, Note_on_c, 0, 74, 0
1, 42936, Note_on_c, 0, 62, 0
1, 42936, Note_on_c, 0, 65, 0
1, 42936, Note_on_c, 0, 46, 0
1, 42960, Tempo, 916031
1, 42960, Note_on_c, 0, 65, 57
1, 42960, Note_on_c, 0, 69, 57
1, 42960, Note_on_c, 0, 77, 68
1, 42960, Note_on_c, 0, 48, 45
1, 42960, Note_on_c, 0, 53, 53
1, 43080, Tempo, 1481481
1, 43080, Note_on_c, 0, 77, 0
1, 43080, Note_on_c, 0, 75, 65
1, 43176, Note_on_c, 0, 48, 0
1, 43176, Note_on_c, 0, 53, 0
1, 43176, Note_on_c, 0, 65, 0
1, 43176, Note_on_c, 0, 69, 0
1, 43190, Note_on_c, 0, 75, 0
1, 43200, Tempo, 952381
1, 43200, Note_on_c, 0, 65, 53
1, 43200, Note_on_c, 0, 69, 53
1, 43200, Note_on_c, 0, 75, 63
1, 43200, Note_on_c, 0, 48, 39
1, 43200, Note_on_c, 0, 53, 46
1, 43200, Control_c, 0, 64, 0
1, 43337, Control_c, 0, 64, 127
1, 43680, Note_on_c, 0, 48, 0
1, 43680, Note_on_c, 0, 75, 0
1, 43680, Note_on_c, 0, 69, 0
1, 43680, Note_on_c, 0, 70, 52
1, 43680, Note_on_c, 0, 74, 55
1, 43680, Note_on_c, 0, 46, 39
1, 43686, Control_c, 0, 64, 0
1, 43900, Note_on_c, 0, 46, 0
1, 43900, Note_on_c, 0, 70, 0
1, 43900, Note_on_c, 0, 74, 0
1, 43920, Tempo, 857143
1, 43920, Note_on_c, 0, 65, 0
1, 43920, Note_on_c, 0, 53, 0
1, 43920, Note_on_c, 0, 65, 65
1, 43920, Note_on_c, 0, 74, 65
1, 43920, Note_on_c, 0, 77, 78
1, 43920, Note_on_c, 0, 41, 50
1, 43920, Note_on_c, 0, 53, 59
1, 43978, Control_c, 0, 64, 127
1, 44148, Note_on_c, 0, 53, 0
1, 44148, Note_on_c, 0, 77, 0
1, 44148, Note_on_c, 0, 65, 0
1, 44148, Note_on_c, 0, 74, 0
1, 44148, Note_on_c, 0, 41, 0
1, 44154, Tempo, 882353
1, 44160, Note_on_c, 0, 70, 72
1, 44160, Note_on_c, 0, 77, 72
1, 44160, Note_on_c, 0, 82, 86
1, 44160, Note_on_c, 0, 43, 54
1, 44160, Note_on_c, 0, 53, 54
1, 44160, Note_on_c, 0, 55, 64
1, 44175, Control_c, 0, 64, 0
1, 44235, Control_c, 0, 64, 127
1, 44388, Note_on_c, 0, 55, 0
1, 44388, Note_on_c, 0, 77, 0
1, 44388, Note_on_c, 0, 82, 0
1, 44388, Note_on_c, 0, 70, 0
1, 44388, Note_on_c, 0, 53, 0
1, 44388, Note_on_c, 0, 43, 0
1, 44400, Note_on_c, 0, 84, 88
1, 44400, Note_on_c, 0, 77, 74
1, 44400, Note_on_c, 0, 72, 74
1, 44400, Note_on_c, 0, 45, 58
1, 44400, Note_on_c, 0, 53, 58
1, 44400, Note_on_c, 0, 57, 69
1, 44412, Control_c, 0, 64, 0
1, 44442, Tempo, 1081081
1, 44500, Control_c, 0, 64, 127
1, 44616, Note_on_c, 0, 57, 0
1, 44616, Note_on_c, 0, 77, 0
1, 44616, Note_on_c, 0, 72, 0
1, 44616, Note_on_c, 0, 84, 0
1, 44616, Note_on_c, 0, 53, 0
1, 44616, Note_on_c, 0, 45, 0
1, 44640, Note_on_c, 0, 74, 78
1, 44640, Note_on_c, 0, 77, 78
1, 44640, Note_on_c, 0, 86, 92
1, 44640, Note_on_c, 0, 46, 63
1, 44640, Note_on_c, 0, 53, 63
1, 44640, Note_on_c, 0, 58, 74
1, 44640, Control_c, 0, 64, 0
1, 44653, Tempo, 869565
1, 44846, Control_c, 0, 64, 127
1, 45350, Note_on_c, 0, 58, 0
1, 45350, Note_on_c, 0, 77, 0
1, 45350, Note_on_c, 0, 86, 0
1, 45350, Note_on_c, 0, 74, 0
1, 45350, Note_on_c, 0, 46, 0
1, 45360, Tempo, 937500
1, 45360, Note_on_c, 0, 53, 0
1, 45360, Note_on_c, 0, 70, 56
1, 45360, Note_on_c, 0, 74, 56
1, 45360, Note_on_c, 0, 82, 78
1, 45360, Note_on_c, 0, 50, 44
1, 45360, Note_on_c, 0, 58, 44
1, 45360, Note_on_c, 0, 62, 53
1, 45365, Control_c, 0, 64, 0
1, 45468, Control_c, 0, 64, 127
1, 45600, Tempo, 944882
1, 45600, Note_on_c, 0, 50, 0
1, 45600, Note_on_c, 0, 82, 0
1, 45600, Note_on_c, 0, 77, 69
1, 45600, Note_on_c, 0, 53, 46
1, 45613, Control_c, 0, 64, 0
1, 45700, Control_c, 0, 64, 127
1, 45840, Tempo, 1034483
1, 45840, Note_on_c, 0, 53, 0
1, 45840, Note_on_c, 0, 62, 0
1, 45840, Note_on_c, 0, 74, 0
1, 45840, Note_on_c, 0, 70, 0
1, 45840, Note_on_c, 0, 77, 0
1, 45840, Note_on_c, 0, 58, 0
1, 45840, Note_on_c, 0, 69, 49
1, 45840, Note_on_c, 0, 72, 49
1, 45840, Note_on_c, 0, 75, 64
1, 45840, Note_on_c, 0, 53, 38
1, 45840, Note_on_c, 0, 60, 38
1, 45840, Note_on_c, 0, 63, 45
1, 46056, Note_on_c, 0, 63, 0
1, 46056, Note_on_c, 0, 72, 0
1, 46056, Note_on_c, 0, 75, 0
1, 46080, Tempo, 851064
1, 46080, Note_on_c, 0, 69, 0
1, 46080, Note_on_c, 0, 53, 0
1, 46080, Note_on_c, 0, 60, 0
1, 46080, Note_on_c, 0, 70, 48
1, 46080, Note_on_c, 0, 74, 63
1, 46080, Note_on_c, 0, 55, 35
1, 46080, Note_on_c, 0, 58, 35
1, 46080, Note_on_c, 0, 62, 42
1, 46088, Control_c, 0, 64, 0
1, 46244, Control_c, 0, 64, 127
1, 46790, Note_on_c, 0, 62, 0
1, 46790, Note_on_c, 0, 74, 0
1, 46790, Note_on_c, 0, 70, 0
1, 46790, Note_on_c, 0, 58, 0
1, 46800, Tempo, 960000
1, 46800, Note_on_c, 0, 55, 0
1, 46800, Note_on_c, 0, 63, 40
1, 46800, Note_on_c, 0, 65, 40
1, 46800, Note_on_c, 0, 72, 56
1, 46800, Note_on_c, 0, 45, 32
1, 46800, Note_on_c, 0, 53, 38
1, 46805, Control_c, 0, 64, 0
1, 46908, Control_c, 0, 64, 127
1, 47030, Note_on_c, 0, 45, 0
1, 47040, Tempo, 1034483
1, 47040, Note_on_c, 0, 72, 0
1, 47040, Note_on_c, 0, 63, 0
1, 47040, Note_on_c, 0, 62, 40
1, 47040, Note_on_c, 0, 70, 51
1, 47040, Note_on_c, 0, 46, 28
1, 47053, Control_c, 0, 64, 0
1, 47140, Control_c, 0, 64, 127
1, 47270, Note_on_c, 0, 46, 0
1, 47270, Note_on_c, 0, 53, 0
1, 47270, Note_on_c, 0, 62, 0
1, 47270, Note_on_c, 0, 65, 0
1, 47280, Tempo, 1237113
1, 47280, Note_on_c, 0, 70, 0
1, 47280, Note_on_c, 0, 57, 34
1, 47280, Note_on_c, 0, 65, 48
1, 47280, Note_on_c, 0, 48, 25
1, 47280, Note_on_c, 0, 53, 31
1, 47496, Note_on_c, 0, 53, 0
1, 47496, Note_on_c, 0, 57, 0
1, 47496, Note_on_c, 0, 65, 0
1, 47520, Tempo, 851064
1, 47520, Note_on_c, 0, 48, 0
1, 47520, Note_on_c, 0, 58, 37
1, 47520, Note_on_c, 0, 62, 49
1, 47520, Note_on_c, 0, 46, 27
1, 47520, Note_on_c, 0, 53, 33
1, 47528, Control_c, 0, 64, 0
1, 47684, Control_c, 0, 64, 127
1, 48230, Note_on_c, 0, 53, 0
1, 48230, Note_on_c, 0, 58, 0
1, 48230, Note_on_c, 0, 62, 0
1, 48230, Note_on_c, 0, 46, 0
1, 48240, Tempo, 863309
1, 48240, Note_on_c, 0, 57, 34
1, 48240, Note_on_c, 0, 60, 47
1, 48240, Note_on_c, 0, 41, 27
1, 48240, Note_on_c, 0, 53, 32
1, 48245, Control_c, 0, 64, 0
1, 48348, Control_c, 0, 64, 127
1, 48470, Note_on_c, 0, 41, 0
1, 48480, Tempo, 875912
1, 48480, Note_on_c, 0, 57, 0
1, 48480, Note_on_c, 0, 60, 0
1, 48480, Note_on_c, 0, 53, 0
1, 48480, Note_on_c, 0, 58, 34
1, 48480, Note_on_c, 0, 62, 43
1, 48480, Note_on_c, 0, 46, 23
1, 48480, Note_on_c, 0, 53, 28
1, 48493, Control_c, 0, 64, 0
1, 48580, Control_c, 0, 64, 127
1, 48710, Note_on_c, 0, 46, 0
1, 48710, Note_on_c, 0, 58, 0
1, 48720, Tempo, 902256
1, 48720, Note_on_c, 0, 62, 0
1, 48720, Note_on_c, 0, 53, 0
1, 48720, Note_on_c, 0, 57, 31
1, 48720, Note_on_c, 0, 63, 40
1, 48720, Note_on_c, 0, 48, 23
1, 48720, Note_on_c, 0, 53, 28
1, 48733, Control_c, 0, 64, 0
1, 48812, Control_c, 0, 64, 127
1, 48936, Note_on_c, 0, 53, 0
1, 48936, Note_on_c, 0, 57, 0
1, 48936, Note_on_c, 0, 63, 0
1, 48960, Tempo, 851064
1, 48960, Note_on_c, 0, 48, 0
1, 48960, Note_on_c, 0, 58, 35
1, 48960, Note_on_c, 0, 62, 46
1, 48960, Note_on_c, 0, 46, 26
1, 48960, Note_on_c, 0, 53, 31
1, 48968, Control_c, 0, 64, 0
1, 49124, Control_c, 0, 64, 127
1, 49180, Note_on_c, 0, 53, 0
1, 49180, Note_on_c, 0, 58, 0
1, 49180, Note_on_c, 0, 62, 0
1, 49180, Note_on_c, 0, 46, 0
1, 49200, Tempo, 863309
1, 49200, Note_on_c, 0, 69, 34
1, 49200, Note_on_c, 0, 72, 47
1, 49200, Note_on_c, 0, 53, 27
1, 49200, Note_on_c, 0, 65, 32
1, 49205, Control_c, 0, 64, 0
1, 49308, Control_c, 0, 64, 127
1, 49430, Note_on_c, 0, 53, 0
1, 49440, Tempo, 882353
1, 49440, Note_on_c, 0, 69, 0
1, 49440, Note_on_c, 0, 72, 0
1, 49440, Note_on_c, 0, 65, 0
1, 49440, Note_on_c, 0, 70, 34
1, 49440, Note_on_c, 0, 74, 43
1, 49440, Note_on_c, 0, 58, 23
1, 49440, Note_on_c, 0, 65, 28
1, 49453, Control_c, 0, 64, 0
1, 49540, Control_c, 0, 64, 127
1, 49670, Note_on_c, 0, 58, 0
1, 49670, Note_on_c, 0, 70, 0
1, 49680, Tempo, 888889
1, 49680, Note_on_c, 0, 74, 0
1, 49680, Note_on_c, 0, 65, 0
1, 49680, Note_on_c, 0, 69, 31
1, 49680, Note_on_c, 0, 75, 40
1, 49680, Note_on_c, 0, 60, 23
1, 49680, Note_on_c, 0, 65, 28
1, 49693, Control_c, 0, 64, 0
1, 49772, Control_c, 0, 64, 127
1, 49896, Note_on_c, 0, 65, 0
1, 49896, Note_on_c, 0, 69, 0
1, 49896, Note_on_c, 0, 75, 0
1, 49920, Tempo, 851064
1, 49920, Note_on_c, 0, 60, 0
1, 49920, Note_on_c, 0, 70, 35
1, 49920, Note_on_c, 0, 74, 46
1, 49920, Note_on_c, 0, 58, 26
1, 49920, Note_on_c, 0, 65, 31
1, 49928, Control_c, 0, 64, 0
1, 50084, Control_c, 0, 64, 127
1, 50140, Note_on_c, 0, 65, 0
1, 50140, Note_on_c, 0, 70, 0
1, 50140, Note_on_c, 0, 74, 0
1, 50140, Note_on_c, 0, 58, 0
1, 50160, Tempo, 857143
1, 50160, Note_on_c, 0, 57, 51
1, 50160, Note_on_c, 0, 60, 61
1, 50160, Note_on_c, 0, 41, 41
1, 50160, Note_on_c, 0, 53, 49
1, 50175, Control_c, 0, 64, 0
1, 50275, Control_c, 0, 64, 127
1, 50376, Note_on_c, 0, 41, 0
1, 50376, Note_on_c, 0, 57, 0
1, 50376, Note_on_c, 0, 60, 0
1, 50400, Tempo, 888889
1, 50400, Note_on_c, 0, 58, 49
1, 50400, Note_on_c, 0, 62, 58
1, 50400, Note_on_c, 0, 46, 45
1, 50415, Control_c, 0, 64, 0
1, 50526, Control_c, 0, 64, 127
1, 50616, Note_on_c, 0, 46, 0
1, 50616, Note_on_c, 0, 62, 0
1, 50616, Note_on_c, 0, 58, 0
1, 50630, Note_on_c, 0, 53, 0
1, 50640, Tempo, 916031
1, 50640, Note_on_c, 0, 57, 57
1, 50640, Note_on_c, 0, 65, 68
1, 50640, Note_on_c, 0, 48, 45
1, 50640, Note_on_c, 0, 53, 53
1, 50760, Note_on_c, 0, 65, 0
1, 50760, Note_on_c, 0, 63, 65
1, 50856, Note_on_c, 0, 57, 0
1, 50856, Note_on_c, 0, 48, 0
1, 50880, Tempo, 952381
1, 50880, Note_on_c, 0, 63, 0
1, 50880, Note_on_c, 0, 58, 53
1, 50880, Note_on_c, 0, 62, 63
1, 50880, Note_on_c, 0, 46, 46
1, 50880, Control_c, 0, 64, 0
1, 51017, Control_c, 0, 64, 127
1, 51110, Note_on_c, 0, 46, 0
1, 51110, Note_on_c, 0, 62, 0
1, 51110, Note_on_c, 0, 58, 0
1, 51120, Tempo, 895522
1, 51120, Note_on_c, 0, 53, 0
1, 51120, Note_on_c, 0, 53, 52
1, 51120, Note_on_c, 0, 56, 52
1, 51120, Note_on_c, 0, 62, 62
1, 51120, Note_on_c, 0, 46, 47
1, 51126, Control_c, 0, 64, 0
1, 51336, Note_on_c, 0, 46, 0
1, 51336, Note_on_c, 0, 53, 0
1, 51336, Note_on_c, 0, 56, 0
1, 51336, Note_on_c, 0, 62, 0
1, 51360, Tempo, 916031
1, 51360, Note_on_c, 0, 53, 56
1, 51360, Note_on_c, 0, 57, 56
1, 51360, Note_on_c, 0, 62, 66
1, 51360, Note_on_c, 0, 45, 50
1, 51576, Note_on_c, 0, 45, 0
1, 51576, Note_on_c, 0, 53, 0
1, 51576, Note_on_c, 0, 57, 0
1, 51576, Note_on_c, 0, 62, 0
1, 51600, Tempo, 991736
1, 51600, Note_on_c, 0, 62, 69
1, 51600, Note_on_c, 0, 52, 58
1, 51600, Note_on_c, 0, 59, 58
1, 51600, Note_on_c, 0, 44, 53
1, 51816, Note_on_c, 0, 44, 0
1, 51816, Note_on_c, 0, 62, 0
1, 51816, Note_on_c, 0, 52, 0
1, 51816, Note_on_c, 0, 59, 0
1, 51840, Note_on_c, 0, 62, 66
1, 51840, Note_on_c, 0, 52, 56
1, 51840, Note_on_c, 0, 57, 56
1, 51840, Note_on_c, 0, 45, 51
1, 51873, Control_c, 0, 64, 0
1, 51960, Note_on_c, 0, 62, 0
1, 51960, Note_on_c, 0, 61, 64
1, 51964, Control_c, 0, 64, 127
1, 52080, Tempo, 983607
1, 52080, Note_on_c, 0, 61, 0
1, 52080, Note_on_c, 0, 45, 0
1, 52080, Note_on_c, 0, 57, 0
1, 52080, Note_on_c, 0, 52, 0
1, 52080, Note_on_c, 0, 54, 59
1, 52080, Note_on_c, 0, 59, 70
1, 52080, Note_on_c, 0, 38, 47
1, 52080, Note_on_c, 0, 50, 56
1, 52088, Control_c, 0, 64, 0
1, 52171, Control_c, 0, 64, 127
1, 52200, Note_on_c, 0, 59, 0
1, 52200, Note_on_c, 0, 54, 0
1, 52200, Note_on_c, 0, 66, 68
1, 52320, Tempo, 944882
1, 52320, Note_on_c, 0, 66, 0
1, 52320, Note_on_c, 0, 38, 0
1, 52320, Note_on_c, 0, 50, 0
1, 52320, Note_on_c, 0, 52, 62
1, 52320, Note_on_c, 0, 57, 62
1, 52320, Note_on_c, 0, 61, 74
1, 52320, Note_on_c, 0, 40, 49
1, 52320, Note_on_c, 0, 49, 59
1, 52329, Control_c, 0, 64, 0
1, 52433, Control_c, 0, 64, 127
1, 52800, Tempo, 916031
1, 52800, Note_on_c, 0, 49, 0
1, 52800, Note_on_c, 0, 61, 0
1, 52800, Note_on_c, 0, 52, 0
1, 52800, Note_on_c, 0, 57, 0
1, 52800, Note_on_c, 0, 40, 0
1, 52800, Note_on_c, 0, 56, 57
1, 52800, Note_on_c, 0, 61, 68
1, 52800, Note_on_c, 0, 40, 42
1, 52800, Note_on_c, 0, 50, 50
1, 52814, Control_c, 0, 64, 0
1, 52948, Control_c, 0, 64, 127
1, 53040, Note_on_c, 0, 61, 0
1, 53040, Note_on_c, 0, 59, 61
1, 53160, Tempo, 1263158
1, 53220, Note_on_c, 0, 59, 0
1, 53220, Note_on_c, 0, 57, 57
1, 53280, Tempo, 1025641
1, 53280, Note_on_c, 0, 57, 0
1, 53280, Note_on_c, 0, 56, 0
1, 53280, Note_on_c, 0, 40, 0
1, 53280, Note_on_c, 0, 50, 0
1, 53280, Note_on_c, 0, 49, 44
1, 53280, Note_on_c, 0, 57, 52
1, 53280, Note_on_c, 0, 33, 34
1, 53280, Note_on_c, 0, 45, 41
1, 53280, Control_c, 0, 64, 0
1, 53393, Control_c, 0, 64, 127
1, 53640, Tempo, 857143
1, 53640, Note_on_c, 0, 57, 0
1, 53640, Note_on_c, 0, 61, 51
1, 53760, Tempo, 821918
1, 53760, Note_on_c, 0, 61, 0
1, 53760, Note_on_c, 0, 49, 0
1, 53760, Note_on_c, 0, 64, 58
1, 53880, Note_on_c, 0, 64, 0
1, 53880, Note_on_c, 0, 69, 51
1, 54000, Tempo, 839161
1, 54000, Note_on_c, 0, 69, 0
1, 54000, Note_on_c, 0, 33, 0
1, 54000, Note_on_c, 0, 45, 0
1, 54000, Note_on_c, 0, 73, 56
1, 54000, Note_on_c, 0, 64, 39
1, 54000, Note_on_c, 0, 57, 33
1, 54120, Note_on_c, 0, 73, 0
1, 54120, Note_on_c, 0, 76, 52
1, 54240, Tempo, 857143
1, 54240, Note_on_c, 0, 76, 0
1, 54240, Note_on_c, 0, 57, 0
1, 54240, Note_on_c, 0, 64, 0
1, 54240, Note_on_c, 0, 74, 51
1, 54240, Note_on_c, 0, 78, 60
1, 54240, Note_on_c, 0, 66, 41
1, 54240, Note_on_c, 0, 57, 34
1, 54246, Control_c, 0, 64, 0
1, 54325, Control_c, 0, 64, 127
1, 54456, Note_on_c, 0, 57, 0
1, 54456, Note_on_c, 0, 74, 0
1, 54456, Note_on_c, 0, 78, 0
1, 54456, Note_on_c, 0, 66, 0
1, 54480, Tempo, 975610
1, 54480, Note_on_c, 0, 72, 45
1, 54480, Note_on_c, 0, 75, 54
1, 54480, Note_on_c, 0, 63, 38
1, 54480, Note_on_c, 0, 57, 32
1, 54485, Control_c, 0, 64, 0
1, 54558, Control_c, 0, 64, 127
1, 54696, Note_on_c, 0, 57, 0
1, 54696, Note_on_c, 0, 72, 0
1, 54696, Note_on_c, 0, 75, 0
1, 54696, Note_on_c, 0, 63, 0
1, 54720, Tempo, 857143
1, 54720, Note_on_c, 0, 73, 47
1, 54720, Note_on_c, 0, 76, 56
1, 54720, Note_on_c, 0, 64, 41
1, 54720, Note_on_c, 0, 57, 34
1, 54723, Control_c, 0, 64, 0
1, 55440, Tempo, 863309
1, 55440, Note_on_c, 0, 57, 0
1, 55440, Note_on_c, 0, 73, 0
1, 55440, Note_on_c, 0, 76, 0
1, 55440, Note_on_c, 0, 64, 0
1, 55440, Note_on_c, 0, 73, 50
1, 55440, Note_on_c, 0, 76, 50
1, 55440, Note_on_c, 0, 81, 66
1, 55440, Note_on_c, 0, 57, 40
1, 55440, Note_on_c, 0, 64, 40
1, 55440, Note_on_c, 0, 69, 49
1, 55448, Control_c, 0, 64, 0
1, 55577, Control_c, 0, 64, 127
1, 55680, Tempo, 833333
1, 55680, Note_on_c, 0, 69, 0
1, 55680, Note_on_c, 0, 81, 0
1, 55680, Note_on_c, 0, 83, 68
1, 55680, Note_on_c, 0, 71, 51
1, 55920, Tempo, 1100917
1, 55920, Note_on_c, 0, 71, 0
1, 55920, Note_on_c, 0, 76, 0
1, 55920, Note_on_c, 0, 64, 0
1, 55920, Note_on_c, 0, 73, 0
1, 55920, Note_on_c, 0, 83, 0
1, 55920, Note_on_c, 0, 57, 0
1, 55920, Note_on_c, 0, 73, 56
1, 55920, Note_on_c, 0, 77, 56
1, 55920, Note_on_c, 0, 85, 73
1, 55920, Note_on_c, 0, 57, 45
1, 55920, Note_on_c, 0, 65, 45
1, 55920, Note_on_c, 0, 69, 54
1, 55930, Control_c, 0, 64, 0
1, 56136, Note_on_c, 0, 69, 0
1, 56136, Note_on_c, 0, 77, 0
1, 56136, Note_on_c, 0, 85, 0
1, 56136, Note_on_c, 0, 73, 0
1, 56136, Note_on_c, 0, 65, 0
1, 56136, Note_on_c, 0, 57, 0
1, 56160, Tempo, 916031
1, 56160, Note_on_c, 0, 74, 45
1, 56160, Note_on_c, 0, 78, 54
1, 56160, Note_on_c, 0, 85, 71
1, 56160, Note_on_c, 0, 62, 34
1, 56160, Note_on_c, 0, 66, 42
1, 56160, Note_on_c, 0, 70, 50
1, 56229, Control_c, 0, 64, 127
1, 56640, Tempo, 983607
1, 56640, Note_on_c, 0, 70, 0
1, 56640, Note_on_c, 0, 85, 0
1, 56640, Note_on_c, 0, 83, 52
1, 56640, Note_on_c, 0, 71, 44
1, 56649, Control_c, 0, 64, 0
1, 56880, Tempo, 863309
1, 56880, Note_on_c, 0, 71, 0
1, 56880, Note_on_c, 0, 78, 0
1, 56880, Note_on_c, 0, 66, 0
1, 56880, Note_on_c, 0, 74, 0
1, 56880, Note_on_c, 0, 83, 0
1, 56880, Note_on_c, 0, 62, 0
1, 56880, Note_on_c, 0, 62, 40
1, 56880, Note_on_c, 0, 69, 56
1, 56880, Note_on_c, 0, 50, 32
1, 56880, Note_on_c, 0, 54, 38
1, 56948, Control_c, 0, 64, 127
1, 57120, Tempo, 902256
1, 57120, Note_on_c, 0, 54, 0
1, 57120, Note_on_c, 0, 50, 0
1, 57120, Note_on_c, 0, 69, 0
1, 57120, Note_on_c, 0, 68, 51
1, 57120, Note_on_c, 0, 52, 28
1, 57120, Note_on_c, 0, 56, 34
1, 57133, Control_c, 0, 64, 0
1, 57246, Control_c, 0, 64, 127
1, 57360, Tempo, 960000
1, 57360, Note_on_c, 0, 56, 0
1, 57360, Note_on_c, 0, 62, 0
1, 57360, Note_on_c, 0, 68, 0
1, 57360, Note_on_c, 0, 52, 0
1, 57360, Note_on_c, 0, 62, 37
1, 57360, Note_on_c, 0, 66, 48
1, 57360, Note_on_c, 0, 54, 28
1, 57360, Note_on_c, 0, 57, 34
1, 57375, Control_c, 0, 64, 0
1, 57463, Control_c, 0, 64, 127
1, 57576, Note_on_c, 0, 57, 0
1, 57576, Note_on_c, 0, 62, 0
1, 57576, Note_on_c, 0, 66, 0
1, 57576, Note_on_c, 0, 54, 0
1, 57600, Tempo, 851064
1, 57600, Note_on_c, 0, 62, 42
1, 57600, Note_on_c, 0, 64, 50
1, 57600, Note_on_c, 0, 44, 31
1, 57600, Note_on_c, 0, 52, 37
1, 57606, Control_c, 0, 64, 0
1, 57654, Control_c, 0, 64, 127
1, 58310, Note_on_c, 0, 52, 0
1, 58310, Note_on_c, 0, 62, 0
1, 58310, Note_on_c, 0, 64, 0
1, 58310, Note_on_c, 0, 44, 0
1, 58320, Tempo, 944882
1, 58320, Note_on_c, 0, 74, 48
1, 58320, Note_on_c, 0, 76, 57
1, 58320, Note_on_c, 0, 56, 39
1, 58320, Note_on_c, 0, 64, 46
1, 58329, Control_c, 0, 64, 0
1, 58374, Control_c, 0, 64, 127
1, 58430, Note_on_c, 0, 76, 0
1, 58440, Tempo, 740741
1, 58440, Note_on_c, 0, 74, 0
1, 58440, Note_on_c, 0, 76, 46
1, 58480, Note_on_c, 0, 76, 0
1, 58480, Note_on_c, 0, 78, 46
1, 58520, Note_on_c, 0, 78, 0
1, 58520, Note_on_c, 0, 80, 46
1, 58560, Tempo, 857143
1, 58560, Note_on_c, 0, 80, 0
1, 58560, Note_on_c, 0, 56, 0
1, 58560, Note_on_c, 0, 64, 0
1, 58560, Note_on_c, 0, 74, 48
1, 58560, Note_on_c, 0, 78, 57
1, 58560, Note_on_c, 0, 56, 35
1, 58560, Note_on_c, 0, 66, 42
1, 58574, Control_c, 0, 64, 0
1, 58652, Control_c, 0, 64, 127
1, 58776, Note_on_c, 0, 66, 0
1, 58776, Note_on_c, 0, 74, 0
1, 58776, Note_on_c, 0, 78, 0
1, 58776, Note_on_c, 0, 56, 0
1, 58800, Tempo, 1008403
1, 58800, Note_on_c, 0, 74, 40
1, 58800, Note_on_c, 0, 76, 48
1, 58800, Note_on_c, 0, 56, 33
1, 58800, Note_on_c, 0, 64, 40
1, 58815, Control_c, 0, 64, 0
1, 58860, Control_c, 0, 64, 127
1, 59016, Note_on_c, 0, 64, 0
1, 59016, Note_on_c, 0, 74, 0
1, 59016, Note_on_c, 0, 76, 0
1, 59016, Note_on_c, 0, 56, 0
1, 59040, Tempo, 902256
1, 59040, Note_on_c, 0, 74, 48
1, 59040, Note_on_c, 0, 78, 57
1, 59040, Note_on_c, 0, 57, 39
1, 59040, Note_on_c, 0, 66, 46
1, 59040, Control_c, 0, 64, 0
1, 59177, Control_c, 0, 64, 127
1, 59520, Tempo, 1000000
1, 59520, Note_on_c, 0, 66, 0
1, 59520, Note_on_c, 0, 74, 0
1, 59520, Note_on_c, 0, 78, 0
1, 59520, Note_on_c, 0, 73, 42
1, 59520, Note_on_c, 0, 76, 50
1, 59520, Note_on_c, 0, 64, 41
1, 59534, Control_c, 0, 64, 0
1, 59750, Note_on_c, 0, 64, 0
1, 59750, Note_on_c, 0, 76, 0
1, 59750, Note_on_c, 0, 73, 0
1, 59760, Tempo, 909091
1, 59760, Note_on_c, 0, 57, 0
1, 59760, Note_on_c, 0, 59, 63
1, 59760, Note_on_c, 0, 61, 75
1, 59760, Note_on_c, 0, 47, 48
1, 59760, Note_on_c, 0, 49, 57
1, 59820, Control_c, 0, 64, 127
1, 59990, Note_on_c, 0, 61, 0
1, 60000, Tempo, 882353
1, 60000, Note_on_c, 0, 59, 0
1, 60000, Note_on_c, 0, 47, 0
1, 60000, Note_on_c, 0, 49, 0
1, 60000, Note_on_c, 0, 57, 68
1, 60000, Note_on_c, 0, 61, 68
1, 60000, Note_on_c, 0, 66, 81
1, 60000, Note_on_c, 0, 49, 51
1, 60000, Note_on_c, 0, 45, 51
1, 60000, Note_on_c, 0, 54, 61
1, 60009, Control_c, 0, 64, 0
1, 60115, Control_c, 0, 64, 127
1, 60216, Note_on_c, 0, 54, 0
1, 60216, Note_on_c, 0, 61, 0
1, 60216, Note_on_c, 0, 66, 0
1, 60216, Note_on_c, 0, 45, 0
1, 60230, Note_on_c, 0, 49, 0
1, 60240, Tempo, 1034483
1, 60240, Note_on_c, 0, 57, 0
1, 60240, Note_on_c, 0, 59, 61
1, 60240, Note_on_c, 0, 61, 61
1, 60240, Note_on_c, 0, 65, 72
1, 60240, Note_on_c, 0, 49, 45
1, 60240, Note_on_c, 0, 44, 45
1, 60240, Note_on_c, 0, 53, 53
1, 60254, Control_c, 0, 64, 0
1, 60343, Control_c, 0, 64, 127
1, 60456, Note_on_c, 0, 53, 0
1, 60456, Note_on_c, 0, 61, 0
1, 60456, Note_on_c, 0, 65, 0
1, 60456, Note_on_c, 0, 44, 0
1, 60480, Tempo, 1071429
1, 60480, Note_on_c, 0, 59, 0
1, 60480, Note_on_c, 0, 49, 0
1, 60480, Note_on_c, 0, 57, 66
1, 60480, Note_on_c, 0, 62, 66
1, 60480, Note_on_c, 0, 66, 78
1, 60480, Note_on_c, 0, 50, 56
1, 60480, Note_on_c, 0, 42, 56
1, 60480, Note_on_c, 0, 45, 56
1, 60480, Note_on_c, 0, 54, 66
1, 60484, Control_c, 0, 64, 0
1, 60621, Control_c, 0, 64, 127
1, 61190, Note_on_c, 0, 54, 0
1, 61190, Note_on_c, 0, 66, 0
1, 61190, Note_on_c, 0, 62, 0
1, 61190, Note_on_c, 0, 45, 0
1, 61200, Tempo, 869565
1, 61200, Note_on_c, 0, 57, 0
1, 61200, Note_on_c, 0, 50, 0
1, 61200, Note_on_c, 0, 42, 0
1, 61200, Note_on_c, 0, 69, 55
1, 61200, Note_on_c, 0, 54, 44
1, 61200, Note_on_c, 0, 57, 44
1, 61208, Control_c, 0, 64, 0
1, 61337, Control_c, 0, 64, 127
1, 61440, Tempo, 833333
1, 61440, Note_on_c, 0, 54, 0
1, 61440, Note_on_c, 0, 69, 0
1, 61440, Note_on_c, 0, 67, 63
1, 61440, Note_on_c, 0, 71, 63
1, 61440, Note_on_c, 0, 52, 49
1, 61670, Note_on_c, 0, 57, 0
1, 61680, Tempo, 1100917
1, 61680, Note_on_c, 0, 67, 0
1, 61680, Note_on_c, 0, 71, 0
1, 61680, Note_on_c, 0, 52, 0
1, 61680, Note_on_c, 0, 67, 56
1, 61680, Note_on_c, 0, 69, 56
1, 61680, Note_on_c, 0, 73, 56
1, 61680, Note_on_c, 0, 57, 45
1, 61690, Control_c, 0, 64, 0
1, 61896, Note_on_c, 0, 57, 0
1, 61896, Note_on_c, 0, 67, 0
1, 61896, Note_on_c, 0, 69, 0
1, 61896, Note_on_c, 0, 73, 0
1, 61920, Tempo, 821918
1, 61920, Note_on_c, 0, 73, 58
1, 61920, Note_on_c, 0, 67, 58
1, 61920, Note_on_c, 0, 70, 58
1, 61920, Note_on_c, 0, 76, 69
1, 61920, Note_on_c, 0, 50, 48
1, 61920, Note_on_c, 0, 58, 48
1, 61920, Note_on_c, 0, 61, 57
1, 61989, Control_c, 0, 64, 127
1, 63360, Tempo, 821918
1, 63360, Note_on_c, 0, 61, 0
1, 63360, Note_on_c, 0, 76, 0
1, 63360, Note_on_c, 0, 73, 0
1, 63360, Note_on_c, 0, 70, 0
1, 63360, Note_on_c, 0, 58, 0
1, 63360, Note_on_c, 0, 71, 47
1, 63360, Note_on_c, 0, 74, 56
1, 63360, Note_on_c, 0, 62, 39
1, 63360, Note_on_c, 0, 59, 33
1, 63375, Control_c, 0, 64, 0
1, 63600, Note_on_c, 0, 59, 0
1, 63600, Note_on_c, 0, 67, 0
1, 63600, Note_on_c, 0, 71, 0
1, 63600, Note_on_c, 0, 50, 0
1, 63600, Note_on_c, 0, 62, 0
1, 63600, Note_on_c, 0, 74, 0
1, 64800, Tempo, 845070
1, 64800, Note_on_c, 0, 62, 36
1, 64800, Note_on_c, 0, 66, 36
1, 64800, Note_on_c, 0, 72, 56
1, 64800, Note_on_c, 0, 50, 29
1, 64800, Note_on_c, 0, 57, 29
1, 64832, Control_c, 0, 64, 127
1, 65520, Tempo, 789474
1, 65520, Note_on_c, 0, 72, 0
1, 65520, Note_on_c, 0, 74, 45
1, 65580, Note_on_c, 0, 74, 0
1, 65580, Note_on_c, 0, 72, 42
1, 65640, Note_on_c, 0, 72, 0
1, 65640, Note_on_c, 0, 71, 45
1, 65700, Tempo, 1061947
1, 65700, Note_on_c, 0, 71, 0
1, 65700, Note_on_c, 0, 72, 42
1, 65760, Tempo, 1043478
1, 65760, Note_on_c, 0, 72, 0
1, 65760, Note_on_c, 0, 71, 53
1, 65772, Control_c, 0, 64, 0
1, 65880, Note_on_c, 0, 71, 0
1, 65880, Note_on_c, 0, 72, 49
1, 66000, Tempo, 1111111
1, 66000, Note_on_c, 0, 72, 0
1, 66000, Note_on_c, 0, 76, 56
1, 66120, Tempo, 1445783
1, 66120, Note_on_c, 0, 76, 0
1, 66120, Note_on_c, 0, 74, 50
1, 66240, Tempo, 851064
1, 66240, Note_on_c, 0, 74, 0
1, 66240, Note_on_c, 0, 50, 0
1, 66240, Note_on_c, 0, 57, 0
1, 66240, Note_on_c, 0, 66, 0
1, 66240, Note_on_c, 0, 67, 40
1, 66240, Note_on_c, 0, 71, 46
1, 66240, Note_on_c, 0, 43, 29
1, 66240, Note_on_c, 0, 55, 32
1, 66480, Note_on_c, 0, 55, 0
1, 66480, Note_on_c, 0, 71, 0
1, 66480, Note_on_c, 0, 62, 0
1, 66480, Note_on_c, 0, 67, 0
1, 66480, Note_on_c, 0, 43, 0
1, 66900, Note_on_c, 0, 71, 53
1, 66960, Tempo, 863309
1, 66960, Note_on_c, 0, 71, 0
1, 66960, Note_on_c, 0, 67, 59
1, 66960, Note_on_c, 0, 62, 59
1, 66960, Note_on_c, 0, 74, 69
1, 66960, Note_on_c, 0, 47, 57
1, 66968, Control_c, 0, 64, 0
1, 67097, Control_c, 0, 64, 127
1, 67200, Tempo, 833333
1, 67200, Note_on_c, 0, 47, 0
1, 67200, Note_on_c, 0, 74, 0
1, 67200, Note_on_c, 0, 67, 0
1, 67200, Note_on_c, 0, 69, 59
1, 67200, Note_on_c, 0, 73, 78
1, 67200, Note_on_c, 0, 45, 54
1, 67200, Note_on_c, 0, 49, 61
1, 67213, Control_c, 0, 64, 0
1, 67278, Control_c, 0, 64, 127
1, 67430, Note_on_c, 0, 62, 0
1, 67440, Tempo, 1100917
1, 67440, Note_on_c, 0, 45, 0
1, 67440, Note_on_c, 0, 69, 0
1, 67440, Note_on_c, 0, 73, 0
1, 67440, Note_on_c, 0, 49, 0
1, 67440, Note_on_c, 0, 62, 61
1, 67440, Note_on_c, 0, 71, 72
1, 67440, Note_on_c, 0, 43, 52
1, 67440, Note_on_c, 0, 50, 62
1, 67449, Control_c, 0, 64, 0
1, 67511, Control_c, 0, 64, 127
1, 67656, Note_on_c, 0, 50, 0
1, 67656, Note_on_c, 0, 62, 0
1, 67656, Note_on_c, 0, 71, 0
1, 67656, Note_on_c, 0, 43, 0
1, 67680, Tempo, 916031
1, 67680, Note_on_c, 0, 62, 67
1, 67680, Note_on_c, 0, 69, 79
1, 67680, Note_on_c, 0, 42, 59
1, 67680, Note_on_c, 0, 50, 70
1, 67680, Control_c, 0, 64, 0
1, 67813, Control_c, 0, 64, 127
1, 68160, Tempo, 983607
1, 68390, Note_on_c, 0, 69, 0
1, 68390, Note_on_c, 0, 62, 0
1, 68400, Tempo, 863309
1, 68400, Note_on_c, 0, 42, 0
1, 68400, Note_on_c, 0, 50, 0
1, 68400, Note_on_c, 0, 62, 56
1, 68400, Note_on_c, 0, 69, 66
1, 68400, Note_on_c, 0, 54, 29
1, 68400, Note_on_c, 0, 57, 41
1, 68405, Control_c, 0, 64, 0
1, 68508, Control_c, 0, 64, 127
1, 68630, Note_on_c, 0, 54, 0
1, 68640, Tempo, 902256
1, 68640, Note_on_c, 0, 62, 0
1, 68640, Note_on_c, 0, 69, 0
1, 68640, Note_on_c, 0, 64, 58
1, 68640, Note_on_c, 0, 68, 69
1, 68640, Note_on_c, 0, 52, 25
1, 68640, Note_on_c, 0, 56, 37
1, 68653, Control_c, 0, 64, 0
1, 68740, Control_c, 0, 64, 127
1, 68870, Note_on_c, 0, 52, 0
1, 68870, Note_on_c, 0, 64, 0
1, 68870, Note_on_c, 0, 57, 0
1, 68880, Tempo, 960000
1, 68880, Note_on_c, 0, 68, 0
1, 68880, Note_on_c, 0, 56, 0
1, 68880, Note_on_c, 0, 66, 75
1, 68880, Note_on_c, 0, 50, 38
1, 68880, Note_on_c, 0, 57, 47
1, 68883, Control_c, 0, 64, 0
1, 68955, Control_c, 0, 64, 127
1, 69096, Note_on_c, 0, 57, 0
1, 69096, Note_on_c, 0, 50, 0
1, 69096, Note_on_c, 0, 66, 0
1, 69120, Tempo, 902256
1, 69120, Note_on_c, 0, 64, 66
1, 69120, Note_on_c, 0, 49, 42
1, 69120, Note_on_c, 0, 57, 50
1, 69128, Control_c, 0, 64, 0
1, 69180, Control_c, 0, 64, 127
1, 69360, Tempo, 1016949
1, 69360, Note_on_c, 0, 57, 0
1, 69360, Note_on_c, 0, 49, 0
1, 69360, Note_on_c, 0, 64, 0
1, 69360, Note_on_c, 0, 63, 62
1, 69360, Note_on_c, 0, 69, 74
1, 69360, Note_on_c, 0, 54, 40
1, 69360, Note_on_c, 0, 59, 48
1, 69360, Note_on_c, 0, 57, 40
1, 69366, Control_c, 0, 64, 0
1, 69420, Control_c, 0, 64, 127
1, 69600, Tempo, 960000
1, 69600, Note_on_c, 0, 57, 0
1, 69600, Note_on_c, 0, 54, 0
1, 69600, Note_on_c, 0, 63, 0
1, 69600, Note_on_c, 0, 69, 0
1, 69600, Note_on_c, 0, 59, 0
1, 69600, Note_on_c, 0, 64, 67
1, 69600, Note_on_c, 0, 69, 67
1, 69600, Note_on_c, 0, 73, 80
1, 69600, Note_on_c, 0, 57, 46
1, 69600, Note_on_c, 0, 52, 46
1, 69600, Note_on_c, 0, 61, 54
1, 69610, Control_c, 0, 64, 0
1, 69688, Control_c, 0, 64, 127
1, 70070, Note_on_c, 0, 52, 0
1, 70080, Tempo, 983607
1, 70080, Note_on_c, 0, 69, 0
1, 70080, Note_on_c, 0, 73, 0
1, 70080, Note_on_c, 0, 64, 0
1, 70080, Note_on_c, 0, 61, 0
1, 70080, Note_on_c, 0, 57, 0
1, 70080, Note_on_c, 0, 64, 64
1, 70080, Note_on_c, 0, 62, 64
1, 70080, Note_on_c, 0, 68, 64
1, 70080, Note_on_c, 0, 73, 76
1, 70080, Note_on_c, 0, 52, 47
1, 70080, Note_on_c, 0, 40, 39
1, 70094, Control_c, 0, 64, 0
1, 70181, Control_c, 0, 64, 127
1, 70260, Tempo, 983607
1, 70440, Tempo, 1263158
1, 70440, Note_on_c, 0, 73, 0
1, 70440, Note_on_c, 0, 71, 69
1, 70550, Note_on_c, 0, 52, 0
1, 70560, Tempo, 952381
1, 70560, Note_on_c, 0, 40, 0
1, 70560, Note_on_c, 0, 68, 0
1, 70560, Note_on_c, 0, 64, 0
1, 70560, Note_on_c, 0, 71, 0
1, 70560, Note_on_c, 0, 62, 0
1, 70560, Note_on_c, 0, 64, 50
1, 70560, Note_on_c, 0, 61, 50
1, 70560, Note_on_c, 0, 69, 59
1, 70560, Note_on_c, 0, 45, 28
1, 70560, Note_on_c, 0, 52, 40
1, 70560, Control_c, 0, 64, 0
1, 70747, Control_c, 0, 64, 127
1, 71280, Marker_t, "Teil 3"
1, 71280, Note_on_c, 0, 52, 0
1, 71280, Note_on_c, 0, 69, 0
1, 71280, Note_on_c, 0, 64, 0
1, 71280, Note_on_c, 0, 61, 0
1, 71280, Note_on_c, 0, 45, 0
1, 71280, Note_on_c, 0, 69, 76
1, 71290, Control_c, 0, 64, 0
1, 71386, Control_c, 0, 64, 127
1, 71520, Tempo, 952381
1, 71520, Note_on_c, 0, 69, 0
1, 71520, Note_on_c, 0, 66, 68
1, 71520, Note_on_c, 0, 74, 81
1, 71628, Note_on_c, 0, 74, 0
1, 71628, Note_on_c, 0, 66, 0
1, 71640, Tempo, 857143
1, 71640, Note_on_c, 0, 74, 75
1, 71640, Note_on_c, 0, 66, 63
1, 71760, Tempo, 930233
1, 71760, Note_on_c, 0, 57, 66
1, 71880, Note_on_c, 0, 57, 0
1, 71880, Note_on_c, 0, 66, 0
1, 71880, Note_on_c, 0, 74, 0
1, 71880, Note_on_c, 0, 69, 64
1, 71880, Note_on_c, 0, 76, 76
1, 71880, Note_on_c, 0, 61, 61
1, 71890, Control_c, 0, 64, 0
1, 72000, Tempo, 991736
1, 72000, Note_on_c, 0, 61, 0
1, 72000, Note_on_c, 0, 76, 0
1, 72000, Note_on_c, 0, 69, 0
1, 72000, Note_on_c, 0, 74, 73
1, 72000, Note_on_c, 0, 78, 86
1, 72000, Note_on_c, 0, 62, 66
1, 72071, Control_c, 0, 64, 127
1, 72120, Tempo, 916031
1, 72120, Note_on_c, 0, 62, 0
1, 72120, Note_on_c, 0, 50, 77
1, 72216, Note_on_c, 0, 78, 0
1, 72216, Note_on_c, 0, 74, 0
1, 72240, Tempo, 1043478
1, 72240, Note_on_c, 0, 74, 72
1, 72240, Note_on_c, 0, 78, 85
1, 72360, Tempo, 930233
1, 72360, Note_on_c, 0, 50, 0
1, 72360, Note_on_c, 0, 38, 59
1, 72480, Note_on_c, 0, 38, 0
1, 72480, Note_on_c, 0, 50, 65
1, 72597, Note_on_c, 0, 78, 0
1, 72597, Note_on_c, 0, 74, 0
1, 72600, Note_on_c, 0, 50, 0
1, 72600, Note_on_c, 0, 74, 73
1, 72600, Note_on_c, 0, 78, 86
1, 72720, Note_on_c, 0, 57, 73
1, 72840, Note_on_c, 0, 57, 0
1, 72840, Note_on_c, 0, 78, 0
1, 72840, Note_on_c, 0, 74, 0
1, 72840, Note_on_c, 0, 69, 61
1, 72840, Note_on_c, 0, 76, 73
1, 72840, Note_on_c, 0, 61, 61
1, 72850, Control_c, 0, 64, 0
1, 72960, Note_on_c, 0, 61, 0
1, 72960, Note_on_c, 0, 76, 0
1, 72960, Note_on_c, 0, 69, 0
1, 72960, Note_on_c, 0, 66, 65
1, 72960, Note_on_c, 0, 74, 77
1, 72960, Note_on_c, 0, 59, 65
1, 72981, Control_c, 0, 64, 127
1, 73068, Note_on_c, 0, 74, 0
1, 73068, Note_on_c, 0, 66, 0
1, 73080, Tempo, 851064
1, 73080, Note_on_c, 0, 59, 0
1, 73080, Note_on_c, 0, 71, 73
1, 73080, Note_on_c, 0, 74, 86
1, 73200, Tempo, 1008403
1, 73200, Note_on_c, 0, 54, 71
1, 73320, Tempo, 923077
1, 73320, Note_on_c, 0, 54, 0
1, 73320, Note_on_c, 0, 74, 0
1, 73320, Note_on_c, 0, 71, 0
1, 73320, Note_on_c, 0, 66, 64
1, 73320, Note_on_c, 0, 73, 76
1, 73320, Note_on_c, 0, 57, 63
1, 73329, Control_c, 0, 64, 0
1, 73440, Tempo, 1008403
1, 73440, Note_on_c, 0, 57, 0
1, 73440, Note_on_c, 0, 73, 0
1, 73440, Note_on_c, 0, 66, 0
1, 73440, Note_on_c, 0, 62, 68
1, 73440, Note_on_c, 0, 71, 80
1, 73440, Note_on_c, 0, 55, 65
1, 73475, Control_c, 0, 64, 127
1, 73560, Tempo, 1000000
1, 73560, Note_on_c, 0, 55, 0
1, 73560, Note_on_c, 0, 43, 74
1, 73656, Note_on_c, 0, 71, 0
1, 73656, Note_on_c, 0, 62, 0
1, 73680, Tempo, 923077
1, 73680, Note_on_c, 0, 62, 73
1, 73680, Note_on_c, 0, 71, 86
1, 73789, Control_c, 0, 64, 0
1, 73800, Note_on_c, 0, 43, 0
1, 73800, Note_on_c, 0, 31, 65
1, 73920, Note_on_c, 0, 31, 0
1, 73920, Note_on_c, 0, 43, 65
1, 74040, Note_on_c, 0, 43, 0
1, 74040, Note_on_c, 0, 47, 58
1, 74160, Tempo, 952381
1, 74160, Note_on_c, 0, 47, 0
1, 74160, Note_on_c, 0, 71, 0
1, 74160, Note_on_c, 0, 62, 0
1, 74160, Note_on_c, 0, 71, 76
1, 74160, Note_on_c, 0, 43, 61
1, 74170, Control_c, 0, 64, 0
1, 74266, Control_c, 0, 64, 127
1, 74280, Note_on_c, 0, 43, 0
1, 74280, Note_on_c, 0, 42, 64
1, 74400, Tempo, 952381
1, 74400, Note_on_c, 0, 42, 0
1, 74400, Note_on_c, 0, 71, 0
1, 74400, Note_on_c, 0, 67, 68
1, 74400, Note_on_c, 0, 76, 81
1, 74400, Note_on_c, 0, 40, 68
1, 74508, Note_on_c, 0, 76, 0
1, 74508, Note_on_c, 0, 67, 0
1, 74520, Tempo, 810811
1, 74520, Note_on_c, 0, 40, 0
1, 74520, Note_on_c, 0, 76, 75
1, 74520, Note_on_c, 0, 67, 63
1, 74640, Tempo, 930233
1, 74640, Note_on_c, 0, 59, 66
1, 74760, Note_on_c, 0, 59, 0
1, 74760, Note_on_c, 0, 67, 0
1, 74760, Note_on_c, 0, 76, 0
1, 74760, Note_on_c, 0, 71, 64
1, 74760, Note_on_c, 0, 78, 76
1, 74760, Note_on_c, 0, 63, 61
1, 74770, Control_c, 0, 64, 0
1, 74880, Tempo, 1052632
1, 74880, Note_on_c, 0, 63, 0
1, 74880, Note_on_c, 0, 78, 0
1, 74880, Note_on_c, 0, 71, 0
1, 74880, Note_on_c, 0, 76, 73
1, 74880, Note_on_c, 0, 79, 86
1, 74880, Note_on_c, 0, 64, 66
1, 74951, Control_c, 0, 64, 127
1, 75000, Tempo, 916031
1, 75000, Note_on_c, 0, 64, 0
1, 75000, Note_on_c, 0, 52, 77
1, 75096, Note_on_c, 0, 79, 0
1, 75096, Note_on_c, 0, 76, 0
1, 75120, Tempo, 1043478
1, 75120, Note_on_c, 0, 76, 72
1, 75120, Note_on_c, 0, 79, 85
1, 75240, Tempo, 930233
1, 75240, Note_on_c, 0, 52, 0
1, 75240, Note_on_c, 0, 40, 59
1, 75360, Note_on_c, 0, 40, 0
1, 75360, Note_on_c, 0, 52, 65
1, 75477, Note_on_c, 0, 79, 0
1, 75477, Note_on_c, 0, 76, 0
1, 75480, Note_on_c, 0, 52, 0
1, 75480, Note_on_c, 0, 76, 73
1, 75480, Note_on_c, 0, 79, 86
1, 75600, Note_on_c, 0, 59, 73
1, 75720, Note_on_c, 0, 59, 0
1, 75720, Note_on_c, 0, 79, 0
1, 75720, Note_on_c, 0, 76, 0
1, 75720, Note_on_c, 0, 71, 61
1, 75720, Note_on_c, 0, 78, 73
1, 75720, Note_on_c, 0, 62, 62
1, 75730, Control_c, 0, 64, 0
1, 75840, Tempo, 895522
1, 75840, Note_on_c, 0, 62, 0
1, 75840, Note_on_c, 0, 78, 0
1, 75840, Note_on_c, 0, 71, 0
1, 75840, Note_on_c, 0, 67, 65
1, 75840, Note_on_c, 0, 76, 77
1, 75840, Note_on_c, 0, 61, 65
1, 75948, Note_on_c, 0, 76, 0
1, 75948, Note_on_c, 0, 67, 0
1, 75960, Tempo, 851064
1, 75960, Note_on_c, 0, 61, 0
1, 75960, Note_on_c, 0, 73, 73
1, 75960, Note_on_c, 0, 76, 86
1, 75963, Control_c, 0, 64, 127
1, 76080, Tempo, 875912
1, 76080, Note_on_c, 0, 56, 71
1, 76200, Tempo, 923077
1, 76200, Note_on_c, 0, 56, 0
1, 76200, Note_on_c, 0, 76, 0
1, 76200, Note_on_c, 0, 73, 0
1, 76200, Note_on_c, 0, 68, 64
1, 76200, Note_on_c, 0, 74, 76
1, 76200, Note_on_c, 0, 59, 63
1, 76209, Control_c, 0, 64, 0
1, 76320, Tempo, 1016949
1, 76320, Note_on_c, 0, 59, 0
1, 76320, Note_on_c, 0, 74, 0
1, 76320, Note_on_c, 0, 68, 0
1, 76320, Note_on_c, 0, 64, 68
1, 76320, Note_on_c, 0, 73, 80
1, 76320, Note_on_c, 0, 57, 65
1, 76355, Control_c, 0, 64, 127
1, 76428, Note_on_c, 0, 73, 0
1, 76428, Note_on_c, 0, 64, 0
1, 76440, Tempo, 1000000
1, 76440, Note_on_c, 0, 57, 0
1, 76440, Note_on_c, 0, 45, 74
1, 76560, Tempo, 923077
1, 76560, Note_on_c, 0, 64, 73
1, 76560, Note_on_c, 0, 73, 86
1, 76669, Control_c, 0, 64, 0
1, 76680, Note_on_c, 0, 45, 0
1, 76680, Note_on_c, 0, 33, 65
1, 76800, Note_on_c, 0, 33, 0
1, 76800, Note_on_c, 0, 45, 70
1, 76917, Note_on_c, 0, 73, 0
1, 76917, Note_on_c, 0, 64, 0
1, 76920, Tempo, 930233
1, 76920, Note_on_c, 0, 69, 73
1, 76920, Note_on_c, 0, 73, 86
1, 77040, Note_on_c, 0, 57, 73
1, 77158, Note_on_c, 0, 69, 0
1, 77160, Note_on_c, 0, 45, 0
1, 77160, Note_on_c, 0, 73, 0
1, 77160, Note_on_c, 0, 57, 0
1, 77160, Note_on_c, 0, 69, 61
1, 77160, Note_on_c, 0, 74, 73
1, 77160, Note_on_c, 0, 47, 58
1, 77160, Note_on_c, 0, 57, 58
1, 77160, Note_on_c, 0, 59, 65
1, 77170, Control_c, 0, 64, 0
1, 77280, Tempo, 895522
1, 77280, Note_on_c, 0, 59, 0
1, 77280, Note_on_c, 0, 47, 0
1, 77280, Note_on_c, 0, 74, 0
1, 77280, Note_on_c, 0, 64, 65
1, 77280, Note_on_c, 0, 76, 77
1, 77280, Note_on_c, 0, 49, 55
1, 77280, Note_on_c, 0, 61, 65
1, 77285, Control_c, 0, 64, 127
1, 77388, Note_on_c, 0, 76, 0
1, 77388, Note_on_c, 0, 64, 0
1, 77400, Tempo, 851064
1, 77400, Note_on_c, 0, 49, 0
1, 77400, Note_on_c, 0, 57, 0
1, 77400, Note_on_c, 0, 61, 0
1, 77400, Note_on_c, 0, 69, 0
1, 77400, Note_on_c, 0, 66, 73
1, 77400, Note_on_c, 0, 74, 73
1, 77400, Note_on_c, 0, 78, 86
1, 77400, Note_on_c, 0, 50, 63
1, 77411, Control_c, 0, 64, 0
1, 77492, Control_c, 0, 64, 127
1, 77520, Tempo, 875912
1, 77520, Note_on_c, 0, 62, 71
1, 77640, Tempo, 923077
1, 77640, Note_on_c, 0, 62, 0
1, 77640, Note_on_c, 0, 78, 0
1, 77640, Note_on_c, 0, 66, 0
1, 77640, Note_on_c, 0, 74, 0
1, 77640, Note_on_c, 0, 50, 0
1, 77640, Note_on_c, 0, 74, 64
1, 77640, Note_on_c, 0, 67, 64
1, 77640, Note_on_c, 0, 79, 76
1, 77640, Note_on_c, 0, 62, 61
1, 77640, Note_on_c, 0, 52, 61
1, 77640, Note_on_c, 0, 64, 63
1, 77645, Control_c, 0, 64, 0
1, 77697, Control_c, 0, 64, 127
1, 77760, Tempo, 1008403
1, 77760, Note_on_c, 0, 64, 0
1, 77760, Note_on_c, 0, 67, 0
1, 77760, Note_on_c, 0, 79, 0
1, 77760, Note_on_c, 0, 74, 0
1, 77760, Note_on_c, 0, 52, 0
1, 77760, Note_on_c, 0, 62, 0
1, 77760, Note_on_c, 0, 69, 68
1, 77760, Note_on_c, 0, 74, 68
1, 77760, Note_on_c, 0, 81, 80
1, 77760, Note_on_c, 0, 54, 55
1, 77760, Note_on_c, 0, 62, 55
1, 77760, Note_on_c, 0, 66, 65
1, 77760, Control_c, 0, 64, 0
1, 77831, Control_c, 0, 64, 127
1, 77868, Note_on_c, 0, 81, 0
1, 77868, Note_on_c, 0, 74, 0
1, 77880, Tempo, 1000000
1, 77880, Note_on_c, 0, 54, 0
1, 77880, Note_on_c, 0, 69, 0
1, 77880, Note_on_c, 0, 66, 0
1, 77880, Note_on_c, 0, 62, 0
1, 78000, Tempo, 923077
1, 78000, Note_on_c, 0, 69, 73
1, 78000, Note_on_c, 0, 74, 73
1, 78000, Note_on_c, 0, 81, 86
1, 78000, Note_on_c, 0, 54, 62
1, 78000, Note_on_c, 0, 62, 62
1, 78000, Note_on_c, 0, 66, 74
1, 78064, Control_c, 0, 64, 0
1, 78148, Control_c, 0, 64, 127
1, 78240, Tempo, 895522
1, 78357, Note_on_c, 0, 66, 0
1, 78357, Note_on_c, 0, 74, 0
1, 78357, Note_on_c, 0, 81, 0
1, 78357, Note_on_c, 0, 69, 0
1, 78357, Note_on_c, 0, 62, 0
1, 78357, Note_on_c, 0, 54, 0
1, 78360, Note_on_c, 0, 74, 70
1, 78360, Note_on_c, 0, 81, 83
1, 78360, Note_on_c, 0, 66, 71
1, 78360, Note_on_c, 0, 54, 60
1, 78478, Note_on_c, 0, 81, 0
1, 78478, Note_on_c, 0, 74, 0
1, 78480, Tempo, 863309
1, 78480, Note_on_c, 0, 66, 0
1, 78480, Note_on_c, 0, 54, 0
1, 78480, Note_on_c, 0, 74, 73
1, 78480, Note_on_c, 0, 78, 73
1, 78480, Note_on_c, 0, 86, 86
1, 78480, Note_on_c, 0, 69, 74
1, 78480, Note_on_c, 0, 57, 62
1, 78598, Note_on_c, 0, 86, 0
1, 78598, Note_on_c, 0, 74, 0
1, 78598, Note_on_c, 0, 78, 0
1, 78600, Note_on_c, 0, 69, 0
1, 78600, Note_on_c, 0, 57, 0
1, 78600, Note_on_c, 0, 74, 69
1, 78600, Note_on_c, 0, 81, 82
1, 78600, Note_on_c, 0, 66, 70
1, 78600, Note_on_c, 0, 54, 59
1, 78718, Note_on_c, 0, 81, 0
1, 78718, Note_on_c, 0, 74, 0
1, 78720, Note_on_c, 0, 66, 0
1, 78720, Note_on_c, 0, 54, 0
1, 78720, Note_on_c, 0, 74, 73
1, 78720, Note_on_c, 0, 78, 86
1, 78720, Note_on_c, 0, 50, 62
1, 78720, Note_on_c, 0, 62, 74
1, 78727, Control_c, 0, 64, 0
1, 78784, Control_c, 0, 64, 127
1, 78838, Note_on_c, 0, 78, 0
1, 78838, Note_on_c, 0, 74, 0
1, 78840, Note_on_c, 0, 50, 0
1, 78840, Note_on_c, 0, 62, 0
1, 78840, Note_on_c, 0, 74, 83
1, 78840, Note_on_c, 0, 49, 58
1, 78840, Note_on_c, 0, 61, 68
1, 78958, Note_on_c, 0, 74, 0
1, 78960, Tempo, 916031
1, 78960, Note_on_c, 0, 61, 0
1, 78960, Note_on_c, 0, 49, 0
1, 78960, Note_on_c, 0, 74, 70
1, 78960, Note_on_c, 0, 78, 83
1, 78960, Note_on_c, 0, 47, 60
1, 78960, Note_on_c, 0, 59, 71
1, 79078, Note_on_c, 0, 78, 0
1, 79078, Note_on_c, 0, 74, 0
1, 79080, Note_on_c, 0, 47, 0
1, 79080, Note_on_c, 0, 59, 0
1, 79080, Note_on_c, 0, 74, 70
1, 79080, Note_on_c, 0, 81, 83
1, 79080, Note_on_c, 0, 78, 70
1, 79080, Note_on_c, 0, 45, 58
1, 79080, Note_on_c, 0, 57, 68
1, 79200, Tempo, 1034483
1, 79200, Note_on_c, 0, 57, 0
1, 79200, Note_on_c, 0, 78, 0
1, 79200, Note_on_c, 0, 74, 0
1, 79200, Note_on_c, 0, 81, 0
1, 79200, Note_on_c, 0, 45, 0
1, 79200, Note_on_c, 0, 79, 68
1, 79200, Note_on_c, 0, 71, 68
1, 79200, Note_on_c, 0, 74, 68
1, 79200, Note_on_c, 0, 83, 80
1, 79200, Note_on_c, 0, 43, 55
1, 79200, Note_on_c, 0, 50, 55
1, 79200, Note_on_c, 0, 55, 65
1, 79200, Control_c, 0, 64, 0
1, 79271, Control_c, 0, 64, 127
1, 79308, Note_on_c, 0, 83, 0
1, 79308, Note_on_c, 0, 74, 0
1, 79320, Tempo, 1000000
1, 79320, Note_on_c, 0, 71, 0
1, 79320, Note_on_c, 0, 43, 0
1, 79320, Note_on_c, 0, 79, 0
1, 79320, Note_on_c, 0, 55, 0
1, 79320, Note_on_c, 0, 50, 0
1, 79440, Tempo, 923077
1, 79440, Note_on_c, 0, 79, 73
1, 79440, Note_on_c, 0, 71, 73
1, 79440, Note_on_c, 0, 74, 73
1, 79440, Note_on_c, 0, 83, 86
1, 79440, Note_on_c, 0, 43, 62
1, 79440, Note_on_c, 0, 50, 62
1, 79440, Note_on_c, 0, 55, 74
1, 79504, Control_c, 0, 64, 0
1, 79588, Control_c, 0, 64, 127
1, 79680, Tempo, 895522
1, 79797, Note_on_c, 0, 55, 0
1, 79797, Note_on_c, 0, 43, 0
1, 79797, Note_on_c, 0, 71, 0
1, 79797, Note_on_c, 0, 74, 0
1, 79797, Note_on_c, 0, 79, 0
1, 79797, Note_on_c, 0, 50, 0
1, 79797, Note_on_c, 0, 83, 0
1, 79800, Note_on_c, 0, 71, 77
1, 79800, Note_on_c, 0, 74, 77
1, 79800, Note_on_c, 0, 83, 91
1, 79800, Note_on_c, 0, 50, 71
1, 79800, Note_on_c, 0, 43, 60
1, 79920, Tempo, 863309
1, 79920, Note_on_c, 0, 43, 0
1, 79920, Note_on_c, 0, 50, 0
1, 79920, Note_on_c, 0, 55, 82
1, 80038, Note_on_c, 0, 74, 0
1, 80040, Note_on_c, 0, 71, 0
1, 80040, Note_on_c, 0, 83, 0
1, 80040, Note_on_c, 0, 55, 0
1, 80040, Note_on_c, 0, 69, 69
1, 80040, Note_on_c, 0, 74, 69
1, 80040, Note_on_c, 0, 81, 82
1, 80040, Note_on_c, 0, 50, 59
1, 80040, Note_on_c, 0, 54, 70
1, 80040, Note_on_c, 0, 42, 59
1, 80160, Note_on_c, 0, 42, 0
1, 80160, Note_on_c, 0, 74, 0
1, 80160, Note_on_c, 0, 81, 0
1, 80160, Note_on_c, 0, 69, 0
1, 80160, Note_on_c, 0, 54, 0
1, 80160, Note_on_c, 0, 50, 0
1, 80160, Note_on_c, 0, 71, 73
1, 80160, Note_on_c, 0, 74, 73
1, 80160, Note_on_c, 0, 83, 86
1, 80160, Note_on_c, 0, 43, 62
1, 80160, Note_on_c, 0, 50, 62
1, 80160, Note_on_c, 0, 55, 74
1, 80167, Control_c, 0, 64, 0
1, 80224, Control_c, 0, 64, 127
1, 80274, Note_on_c, 0, 55, 0
1, 80274, Note_on_c, 0, 74, 0
1, 80274, Note_on_c, 0, 83, 0
1, 80274, Note_on_c, 0, 71, 0
1, 80274, Note_on_c, 0, 50, 0
1, 80274, Note_on_c, 0, 43, 0
1, 80280, Note_on_c, 0, 71, 83
1, 80280, Note_on_c, 0, 74, 83
1, 80280, Note_on_c, 0, 83, 83
1, 80280, Note_on_c, 0, 43, 60
1, 80280, Note_on_c, 0, 50, 71
1, 80400, Tempo, 916031
1, 80400, Note_on_c, 0, 50, 0
1, 80400, Note_on_c, 0, 55, 71
1, 80520, Note_on_c, 0, 55, 0
1, 80520, Note_on_c, 0, 43, 0
1, 80520, Note_on_c, 0, 71, 0
1, 80520, Note_on_c, 0, 74, 0
1, 80520, Note_on_c, 0, 83, 0
1, 80520, Note_on_c, 0, 72, 70
1, 80520, Note_on_c, 0, 84, 83
1, 80520, Note_on_c, 0, 74, 70
1, 80520, Note_on_c, 0, 50, 67
1, 80520, Note_on_c, 0, 45, 65
1, 80520, Note_on_c, 0, 57, 71
1, 80640, Tempo, 1034483
1, 80640, Note_on_c, 0, 57, 0
1, 80640, Note_on_c, 0, 84, 0
1, 80640, Note_on_c, 0, 74, 0
1, 80640, Note_on_c, 0, 72, 0
1, 80640, Note_on_c, 0, 45, 0
1, 80640, Note_on_c, 0, 50, 0
1, 80640, Note_on_c, 0, 71, 68
1, 80640, Note_on_c, 0, 74, 68
1, 80640, Note_on_c, 0, 83, 80
1, 80640, Note_on_c, 0, 43, 55
1, 80640, Note_on_c, 0, 50, 55
1, 80640, Note_on_c, 0, 55, 65
1, 80640, Control_c, 0, 64, 0
1, 80711, Control_c, 0, 64, 127
1, 80748, Note_on_c, 0, 83, 0
1, 80748, Note_on_c, 0, 74, 0
1, 80760, Tempo, 1000000
1, 80760, Note_on_c, 0, 43, 0
1, 80760, Note_on_c, 0, 71, 0
1, 80760, Note_on_c, 0, 55, 0
1, 80760, Note_on_c, 0, 50, 0
1, 80880, Tempo, 923077
1, 80880, Note_on_c, 0, 71, 73
1, 80880, Note_on_c, 0, 74, 73
1, 80880, Note_on_c, 0, 83, 86
1, 80880, Note_on_c, 0, 43, 62
1, 80880, Note_on_c, 0, 50, 62
1, 80880, Note_on_c, 0, 55, 74
1, 80944, Control_c, 0, 64, 0
1, 81028, Control_c, 0, 64, 127
1, 81120, Tempo, 895522
1, 81240, Note_on_c, 0, 55, 0
1, 81240, Note_on_c, 0, 74, 0
1, 81240, Note_on_c, 0, 83, 0
1, 81240, Note_on_c, 0, 71, 0
1, 81240, Note_on_c, 0, 50, 0
1, 81240, Note_on_c, 0, 43, 0
1, 81240, Note_on_c, 0, 67, 70
1, 81240, Note_on_c, 0, 74, 83
1, 81240, Note_on_c, 0, 59, 71
1, 81240, Note_on_c, 0, 47, 60
1, 81358, Note_on_c, 0, 74, 0
1, 81358, Note_on_c, 0, 67, 0
1, 81360, Tempo, 863309
1, 81360, Note_on_c, 0, 59, 0
1, 81360, Note_on_c, 0, 47, 0
1, 81360, Note_on_c, 0, 67, 73
1, 81360, Note_on_c, 0, 71, 73
1, 81360, Note_on_c, 0, 79, 86
1, 81360, Note_on_c, 0, 62, 74
1, 81360, Note_on_c, 0, 50, 62
1, 81478, Note_on_c, 0, 79, 0
1, 81478, Note_on_c, 0, 67, 0
1, 81478, Note_on_c, 0, 71, 0
1, 81480, Note_on_c, 0, 62, 0
1, 81480, Note_on_c, 0, 50, 0
1, 81480, Note_on_c, 0, 67, 69
1, 81480, Note_on_c, 0, 74, 82
1, 81480, Note_on_c, 0, 59, 70
1, 81480, Note_on_c, 0, 47, 59
1, 81598, Note_on_c, 0, 74, 0
1, 81598, Note_on_c, 0, 67, 0
1, 81600, Note_on_c, 0, 59, 0
1, 81600, Note_on_c, 0, 47, 0
1, 81600, Note_on_c, 0, 67, 73
1, 81600, Note_on_c, 0, 71, 86
1, 81600, Note_on_c, 0, 43, 62
1, 81600, Note_on_c, 0, 55, 74
1, 81607, Control_c, 0, 64, 0
1, 81664, Control_c, 0, 64, 127
1, 81718, Note_on_c, 0, 71, 0
1, 81718, Note_on_c, 0, 67, 0
1, 81720, Note_on_c, 0, 43, 0
1, 81720, Note_on_c, 0, 55, 0
1, 81720, Note_on_c, 0, 67, 69
1, 81720, Note_on_c, 0, 74, 78
1, 81720, Note_on_c, 0, 47, 58
1, 81720, Note_on_c, 0, 59, 68
1, 81838, Note_on_c, 0, 74, 0
1, 81838, Note_on_c, 0, 67, 0
1, 81840, Tempo, 916031
1, 81840, Note_on_c, 0, 47, 0
1, 81840, Note_on_c, 0, 59, 0
1, 81840, Note_on_c, 0, 71, 70
1, 81840, Note_on_c, 0, 67, 70
1, 81840, Note_on_c, 0, 79, 83
1, 81840, Note_on_c, 0, 43, 60
1, 81840, Note_on_c, 0, 55, 71
1, 81958, Note_on_c, 0, 79, 0
1, 81958, Note_on_c, 0, 71, 0
1, 81958, Note_on_c, 0, 67, 0
1, 81960, Note_on_c, 0, 43, 0
1, 81960, Note_on_c, 0, 55, 0
1, 81960, Note_on_c, 0, 69, 70
1, 81960, Note_on_c, 0, 81, 83
1, 81960, Note_on_c, 0, 74, 70
1, 81960, Note_on_c, 0, 42, 58
1, 81960, Note_on_c, 0, 54, 68
1, 82080, Tempo, 1043478
1, 82080, Note_on_c, 0, 54, 0
1, 82080, Note_on_c, 0, 74, 0
1, 82080, Note_on_c, 0, 69, 0
1, 82080, Note_on_c, 0, 81, 0
1, 82080, Note_on_c, 0, 42, 0
1, 82080, Note_on_c, 0, 79, 68
1, 82080, Note_on_c, 0, 71, 68
1, 82080, Note_on_c, 0, 83, 80
1, 82080, Note_on_c, 0, 40, 55
1, 82080, Note_on_c, 0, 47, 55
1, 82080, Note_on_c, 0, 52, 65
1, 82080, Control_c, 0, 64, 0
1, 82151, Control_c, 0, 64, 127
1, 82188, Note_on_c, 0, 83, 0
1, 82200, Tempo, 1000000
1, 82200, Note_on_c, 0, 71, 0
1, 82200, Note_on_c, 0, 40, 0
1, 82200, Note_on_c, 0, 79, 0
1, 82200, Note_on_c, 0, 52, 0
1, 82200, Note_on_c, 0, 47, 0
1, 82320, Tempo, 923077
1, 82320, Note_on_c, 0, 79, 73
1, 82320, Note_on_c, 0, 71, 73
1, 82320, Note_on_c, 0, 83, 86
1, 82320, Note_on_c, 0, 40, 62
1, 82320, Note_on_c, 0, 47, 62
1, 82320, Note_on_c, 0, 52, 74
1, 82384, Control_c, 0, 64, 0
1, 82468, Control_c, 0, 64, 127
1, 82560, Tempo, 895522
1, 82677, Note_on_c, 0, 52, 0
1, 82677, Note_on_c, 0, 71, 0
1, 82677, Note_on_c, 0, 83, 0
1, 82677, Note_on_c, 0, 79, 0
1, 82677, Note_on_c, 0, 47, 0
1, 82677, Note_on_c, 0, 40, 0
1, 82680, Tempo, 827586
1, 82680, Note_on_c, 0, 79, 78
1, 82680, Note_on_c, 0, 83, 78
1, 82680, Note_on_c, 0, 91, 92
1, 82680, Note_on_c, 0, 40, 55
1, 82680, Note_on_c, 0, 47, 55
1, 82680, Note_on_c, 0, 52, 65
1, 82680, Control_c, 0, 64, 0
1, 82751, Control_c, 0, 64, 127
1, 82800, Tempo, 1000000
1, 82910, Note_on_c, 0, 52, 0
1, 82910, Note_on_c, 0, 83, 0
1, 82910, Note_on_c, 0, 91, 0
1, 82910, Note_on_c, 0, 79, 0
1, 82910, Note_on_c, 0, 47, 0
1, 82910, Note_on_c, 0, 40, 0
1, 82920, Tempo, 923077
1, 82920, Note_on_c, 0, 79, 83
1, 82920, Note_on_c, 0, 83, 83
1, 82920, Note_on_c, 0, 91, 98
1, 82920, Note_on_c, 0, 40, 62
1, 82920, Note_on_c, 0, 47, 62
1, 82920, Note_on_c, 0, 52, 74
1, 83040, Tempo, 1052632
1, 83040, Note_on_c, 0, 52, 0
1, 83040, Note_on_c, 0, 83, 0
1, 83040, Note_on_c, 0, 91, 0
1, 83040, Note_on_c, 0, 79, 0
1, 83040, Note_on_c, 0, 47, 0
1, 83040, Note_on_c, 0, 40, 0
1, 83040, Note_on_c, 0, 79, 68
1, 83040, Note_on_c, 0, 73, 68
1, 83040, Note_on_c, 0, 85, 80
1, 83040, Note_on_c, 0, 45, 55
1, 83040, Note_on_c, 0, 52, 55
1, 83040, Note_on_c, 0, 57, 65
1, 83040, Control_c, 0, 64, 0
1, 83111, Control_c, 0, 64, 127
1, 83148, Note_on_c, 0, 85, 0
1, 83160, Tempo, 1000000
1, 83160, Note_on_c, 0, 73, 0
1, 83160, Note_on_c, 0, 45, 0
1, 83160, Note_on_c, 0, 79, 0
1, 83160, Note_on_c, 0, 57, 0
1, 83160, Note_on_c, 0, 52, 0
1, 83280, Tempo, 923077
1, 83280, Note_on_c, 0, 79, 73
1, 83280, Note_on_c, 0, 73, 73
1, 83280, Note_on_c, 0, 85, 86
1, 83280, Note_on_c, 0, 45, 62
1, 83280, Note_on_c, 0, 52, 62
1, 83280, Note_on_c, 0, 57, 74
1, 83344, Control_c, 0, 64, 0
1, 83428, Control_c, 0, 64, 127
1, 83640, Tempo, 827586
1, 83640, Note_on_c, 0, 57, 0
1, 83640, Note_on_c, 0, 73, 0
1, 83640, Note_on_c, 0, 85, 0
1, 83640, Note_on_c, 0, 79, 0
1, 83640, Note_on_c, 0, 52, 0
1, 83640, Note_on_c, 0, 45, 0
1, 83640, Note_on_c, 0, 74, 78
1, 83640, Note_on_c, 0, 78, 78
1, 83640, Note_on_c, 0, 86, 92
1, 83640, Note_on_c, 0, 38, 55
1, 83640, Note_on_c, 0, 45, 55
1, 83640, Note_on_c, 0, 50, 65
1, 83640, Control_c, 0, 64, 0
1, 83711, Control_c, 0, 64, 127
1, 83760, Tempo, 1000000
1, 83870, Note_on_c, 0, 50, 0
1, 83870, Note_on_c, 0, 78, 0
1, 83870, Note_on_c, 0, 86, 0
1, 83870, Note_on_c, 0, 74, 0
1, 83870, Note_on_c, 0, 45, 0
1, 83870, Note_on_c, 0, 38, 0
1, 83880, Tempo, 923077
1, 83880, Note_on_c, 0, 74, 83
1, 83880, Note_on_c, 0, 78, 83
1, 83880, Note_on_c, 0, 86, 98
1, 83880, Note_on_c, 0, 38, 62
1, 83880, Note_on_c, 0, 45, 62
1, 83880, Note_on_c, 0, 50, 74
1, 84000, Tempo, 1071429
1, 84000, Note_on_c, 0, 50, 0
1, 84000, Note_on_c, 0, 78, 0
1, 84000, Note_on_c, 0, 86, 0
1, 84000, Note_on_c, 0, 74, 0
1, 84000, Note_on_c, 0, 45, 0
1, 84000, Note_on_c, 0, 38, 0
1, 84000, Note_on_c, 0, 66, 68
1, 84000, Note_on_c, 0, 62, 68
1, 84000, Note_on_c, 0, 74, 80
1, 84000, Note_on_c, 0, 50, 55
1, 84000, Note_on_c, 0, 57, 65
1, 84108, Note_on_c, 0, 74, 0
1, 84120, Tempo, 1061947
1, 84120, Note_on_c, 0, 50, 0
1, 84120, Note_on_c, 0, 66, 0
1, 84120, Note_on_c, 0, 62, 0
1, 84120, Note_on_c, 0, 57, 0
1, 84240, Tempo, 2752294
1, 84240, Note_on_c, 0, 66, 73
1, 84240, Note_on_c, 0, 62, 73
1, 84240, Note_on_c, 0, 74, 86
1, 84240, Note_on_c, 0, 50, 62
1, 84240, Note_on_c, 0, 57, 74
1, 84480, Tempo, 1003344
1, 84600, Note_on_c, 0, 57, 0
1, 84600, Note_on_c, 0, 74, 0
1, 84600, Note_on_c, 0, 66, 0
1, 84600, Note_on_c, 0, 62, 0
1, 84600, Note_on_c, 0, 50, 0
1, 84600, Note_on_c, 0, 62, 37
1, 84600, Control_c, 0, 64, 0
1, 84692, Control_c, 0, 64, 127
1, 84720, Tempo, 1056338
1, 84720, Note_on_c, 0, 62, 0
1, 84720, Note_on_c, 0, 59, 37
1, 84720, Note_on_c, 0, 67, 37
1, 84840, Tempo, 1115242
1, 84840, Note_on_c, 0, 67, 0
1, 84840, Note_on_c, 0, 59, 0
1, 84840, Note_on_c, 0, 62, 37
1, 84840, Note_on_c, 0, 69, 37
1, 84960, Tempo, 1034483
1, 84960, Note_on_c, 0, 69, 0
1, 84960, Note_on_c, 0, 62, 0
1, 84960, Note_on_c, 0, 67, 34
1, 84960, Note_on_c, 0, 71, 40
1, 84978, Control_c, 0, 64, 0
1, 85057, Control_c, 0, 64, 127
1, 85068, Note_on_c, 0, 71, 0
1, 85068, Note_on_c, 0, 67, 0
1, 85080, Tempo, 1000000
1, 85080, Note_on_c, 0, 43, 32
1, 85200, Tempo, 955414
1, 85200, Note_on_c, 0, 43, 0
1, 85200, Note_on_c, 0, 67, 39
1, 85200, Note_on_c, 0, 71, 47
1, 85200, Note_on_c, 0, 50, 35
1, 85320, Note_on_c, 0, 50, 0
1, 85320, Note_on_c, 0, 43, 32
1, 85440, Tempo, 925926
1, 85440, Note_on_c, 0, 50, 36
1, 85445, Control_c, 0, 64, 0
1, 85526, Control_c, 0, 64, 127
1, 85550, Note_on_c, 0, 71, 0
1, 85550, Note_on_c, 0, 67, 0
1, 85560, Note_on_c, 0, 62, 35
1, 85560, Note_on_c, 0, 69, 41
1, 85670, Note_on_c, 0, 43, 0
1, 85670, Note_on_c, 0, 50, 0
1, 85678, Note_on_c, 0, 62, 0
1, 85678, Note_on_c, 0, 69, 0
1, 85680, Tempo, 891530
1, 85680, Note_on_c, 0, 67, 36
1, 85680, Note_on_c, 0, 71, 43
1, 85680, Note_on_c, 0, 50, 37
1, 85680, Note_on_c, 0, 43, 31
1, 85798, Note_on_c, 0, 71, 0
1, 85798, Note_on_c, 0, 67, 0
1, 85800, Note_on_c, 0, 69, 34
1, 85800, Note_on_c, 0, 74, 41
1, 85918, Note_on_c, 0, 74, 0
1, 85918, Note_on_c, 0, 69, 0
1, 85920, Note_on_c, 0, 67, 36
1, 85920, Note_on_c, 0, 71, 43
1, 85927, Control_c, 0, 64, 0
1, 85984, Control_c, 0, 64, 127
1, 86038, Note_on_c, 0, 71, 0
1, 86038, Note_on_c, 0, 67, 0
1, 86040, Note_on_c, 0, 62, 38
1, 86040, Note_on_c, 0, 69, 38
1, 86158, Note_on_c, 0, 69, 0
1, 86158, Note_on_c, 0, 62, 0
1, 86160, Tempo, 918836
1, 86160, Note_on_c, 0, 67, 35
1, 86160, Note_on_c, 0, 71, 41
1, 86278, Note_on_c, 0, 71, 0
1, 86278, Note_on_c, 0, 67, 0
1, 86280, Tempo, 940439
1, 86280, Note_on_c, 0, 69, 38
1, 86280, Note_on_c, 0, 74, 38
1, 86400, Tempo, 955414
1, 86400, Note_on_c, 0, 74, 0
1, 86400, Note_on_c, 0, 43, 0
1, 86400, Note_on_c, 0, 50, 0
1, 86400, Note_on_c, 0, 69, 0
1, 86400, Note_on_c, 0, 67, 34
1, 86400, Note_on_c, 0, 71, 40
1, 86418, Control_c, 0, 64, 0
1, 86497, Control_c, 0, 64, 127
1, 86508, Note_on_c, 0, 71, 0
1, 86508, Note_on_c, 0, 67, 0
1, 86520, Tempo, 940439
1, 86520, Note_on_c, 0, 43, 32
1, 86640, Tempo, 933126
1, 86640, Note_on_c, 0, 43, 0
1, 86640, Note_on_c, 0, 67, 39
1, 86640, Note_on_c, 0, 71, 47
1, 86640, Note_on_c, 0, 50, 35
1, 86760, Note_on_c, 0, 50, 0
1, 86760, Note_on_c, 0, 43, 32
1, 86880, Tempo, 925926
1, 86880, Note_on_c, 0, 50, 36
1, 86885, Control_c, 0, 64, 0
1, 86966, Control_c, 0, 64, 127
1, 86990, Note_on_c, 0, 71, 0
1, 86990, Note_on_c, 0, 67, 0
1, 87000, Note_on_c, 0, 62, 35
1, 87000, Note_on_c, 0, 69, 41
1, 87110, Note_on_c, 0, 43, 0
1, 87110, Note_on_c, 0, 50, 0
1, 87118, Note_on_c, 0, 62, 0
1, 87118, Note_on_c, 0, 69, 0
1, 87120, Tempo, 891530
1, 87120, Note_on_c, 0, 67, 37
1, 87120, Note_on_c, 0, 71, 44
1, 87120, Note_on_c, 0, 50, 38
1, 87120, Note_on_c, 0, 43, 31
1, 87238, Note_on_c, 0, 71, 0
1, 87238, Note_on_c, 0, 67, 0
1, 87240, Note_on_c, 0, 69, 35
1, 87240, Note_on_c, 0, 74, 43
1, 87358, Note_on_c, 0, 74, 0
1, 87358, Note_on_c, 0, 69, 0
1, 87360, Note_on_c, 0, 67, 38
1, 87360, Note_on_c, 0, 71, 46
1, 87367, Control_c, 0, 64, 0
1, 87424, Control_c, 0, 64, 127
1, 87478, Note_on_c, 0, 71, 0
1, 87478, Note_on_c, 0, 67, 0
1, 87480, Note_on_c, 0, 43, 0
1, 87480, Note_on_c, 0, 62, 41
1, 87480, Note_on_c, 0, 69, 41
1, 87480, Note_on_c, 0, 42, 32
1, 87598, Note_on_c, 0, 69, 0
1, 87598, Note_on_c, 0, 62, 0
1, 87600, Tempo, 918836
1, 87600, Note_on_c, 0, 42, 0
1, 87600, Note_on_c, 0, 67, 38
1, 87600, Note_on_c, 0, 71, 45
1, 87600, Note_on_c, 0, 40, 35
1, 87718, Note_on_c, 0, 71, 0
1, 87718, Note_on_c, 0, 67, 0
1, 87720, Tempo, 1008403
1, 87720, Note_on_c, 0, 40, 0
1, 87720, Note_on_c, 0, 69, 42
1, 87720, Note_on_c, 0, 74, 42
1, 87720, Note_on_c, 0, 38, 39
1, 87840, Tempo, 1034483
1, 87840, Note_on_c, 0, 38, 0
1, 87840, Note_on_c, 0, 50, 0
1, 87840, Note_on_c, 0, 69, 0
1, 87840, Note_on_c, 0, 74, 0
1, 87840, Note_on_c, 0, 72, 39
1, 87840, Note_on_c, 0, 76, 46
1, 87858, Control_c, 0, 64, 0
1, 87937, Control_c, 0, 64, 127
1, 87948, Note_on_c, 0, 76, 0
1, 87948, Note_on_c, 0, 72, 0
1, 87960, Tempo, 1000000
1, 87960, Note_on_c, 0, 36, 36
1, 88080, Tempo, 955414
1, 88080, Note_on_c, 0, 36, 0
1, 88080, Note_on_c, 0, 76, 49
1, 88080, Note_on_c, 0, 72, 41
1, 88080, Note_on_c, 0, 43, 40
1, 88200, Note_on_c, 0, 43, 0
1, 88200, Note_on_c, 0, 36, 36
1, 88320, Tempo, 925926
1, 88320, Note_on_c, 0, 43, 41
1, 88325, Control_c, 0, 64, 0
1, 88406, Control_c, 0, 64, 127
1, 88430, Note_on_c, 0, 72, 0
1, 88430, Note_on_c, 0, 76, 0
1, 88440, Note_on_c, 0, 67, 40
1, 88440, Note_on_c, 0, 74, 47
1, 88550, Note_on_c, 0, 36, 0
1, 88550, Note_on_c, 0, 43, 0
1, 88557, Note_on_c, 0, 67, 0
1, 88558, Note_on_c, 0, 74, 0
1, 88560, Tempo, 891530
1, 88560, Note_on_c, 0, 72, 41
1, 88560, Note_on_c, 0, 76, 49
1, 88560, Note_on_c, 0, 43, 42
1, 88560, Note_on_c, 0, 36, 35
1, 88677, Note_on_c, 0, 72, 0
1, 88678, Note_on_c, 0, 76, 0
1, 88680, Note_on_c, 0, 67, 39
1, 88680, Note_on_c, 0, 74, 47
1, 88797, Note_on_c, 0, 67, 0
1, 88798, Note_on_c, 0, 74, 0
1, 88800, Note_on_c, 0, 64, 41
1, 88800, Note_on_c, 0, 72, 49
1, 88807, Control_c, 0, 64, 0
1, 88864, Control_c, 0, 64, 127
1, 88917, Note_on_c, 0, 72, 0
1, 88918, Note_on_c, 0, 64, 0
1, 88920, Note_on_c, 0, 62, 43
1, 88920, Note_on_c, 0, 67, 43
1, 89037, Note_on_c, 0, 67, 0
1, 89038, Note_on_c, 0, 62, 0
1, 89040, Tempo, 918836
1, 89040, Note_on_c, 0, 64, 40
1, 89040, Note_on_c, 0, 72, 47
1, 89157, Note_on_c, 0, 72, 0
1, 89158, Note_on_c, 0, 64, 0
1, 89160, Tempo, 940439
1, 89160, Note_on_c, 0, 67, 43
1, 89160, Note_on_c, 0, 77, 43
1, 89280, Tempo, 1034483
1, 89280, Note_on_c, 0, 77, 0
1, 89280, Note_on_c, 0, 36, 0
1, 89280, Note_on_c, 0, 43, 0
1, 89280, Note_on_c, 0, 67, 0
1, 89280, Note_on_c, 0, 72, 39
1, 89280, Note_on_c, 0, 76, 46
1, 89298, Control_c, 0, 64, 0
1, 89377, Control_c, 0, 64, 127
1, 89388, Note_on_c, 0, 76, 0
1, 89388, Note_on_c, 0, 72, 0
1, 89400, Tempo, 1000000
1, 89400, Note_on_c, 0, 36, 36
1, 89520, Tempo, 955414
1, 89520, Note_on_c, 0, 36, 0
1, 89520, Note_on_c, 0, 76, 49
1, 89520, Note_on_c, 0, 72, 41
1, 89520, Note_on_c, 0, 43, 40
1, 89640, Note_on_c, 0, 43, 0
1, 89640, Note_on_c, 0, 36, 36
1, 89760, Tempo, 925926
1, 89760, Note_on_c, 0, 43, 41
1, 89765, Control_c, 0, 64, 0
1, 89846, Control_c, 0, 64, 127
1, 89870, Note_on_c, 0, 72, 0
1, 89870, Note_on_c, 0, 76, 0
1, 89880, Note_on_c, 0, 72, 45
1, 89880, Note_on_c, 0, 76, 53
1, 89990, Note_on_c, 0, 36, 0
1, 89990, Note_on_c, 0, 43, 0
1, 89997, Note_on_c, 0, 72, 0
1, 89998, Note_on_c, 0, 76, 0
1, 90000, Tempo, 891530
1, 90000, Note_on_c, 0, 76, 49
1, 90000, Note_on_c, 0, 79, 58
1, 90000, Note_on_c, 0, 43, 42
1, 90000, Note_on_c, 0, 36, 35
1, 90117, Note_on_c, 0, 79, 0
1, 90117, Note_on_c, 0, 76, 0
1, 90120, Note_on_c, 0, 74, 45
1, 90120, Note_on_c, 0, 78, 54
1, 90237, Note_on_c, 0, 74, 0
1, 90238, Note_on_c, 0, 78, 0
1, 90240, Note_on_c, 0, 72, 50
1, 90240, Note_on_c, 0, 76, 59
1, 90247, Control_c, 0, 64, 0
1, 90304, Control_c, 0, 64, 127
1, 90357, Note_on_c, 0, 76, 0
1, 90357, Note_on_c, 0, 72, 0
1, 90360, Note_on_c, 0, 69, 43
1, 90360, Note_on_c, 0, 72, 51
1, 90477, Note_on_c, 0, 72, 0
1, 90478, Note_on_c, 0, 69, 0
1, 90480, Tempo, 918836
1, 90480, Note_on_c, 0, 43, 0
1, 90480, Note_on_c, 0, 72, 47
1, 90480, Note_on_c, 0, 76, 56
1, 90480, Note_on_c, 0, 45, 39
1, 90493, Control_c, 0, 64, 0
1, 90572, Control_c, 0, 64, 127
1, 90597, Note_on_c, 0, 76, 0
1, 90597, Note_on_c, 0, 72, 0
1, 90600, Tempo, 940439
1, 90600, Note_on_c, 0, 69, 43
1, 90600, Note_on_c, 0, 72, 51
1, 90720, Tempo, 1034483
1, 90720, Note_on_c, 0, 72, 0
1, 90720, Note_on_c, 0, 45, 0
1, 90720, Note_on_c, 0, 36, 0
1, 90720, Note_on_c, 0, 69, 0
1, 90720, Note_on_c, 0, 66, 39
1, 90720, Note_on_c, 0, 69, 46
1, 90738, Control_c, 0, 64, 0
1, 90817, Control_c, 0, 64, 127
1, 90828, Note_on_c, 0, 69, 0
1, 90828, Note_on_c, 0, 66, 0
1, 90840, Tempo, 1000000
1, 90840, Note_on_c, 0, 36, 36
1, 90960, Tempo, 955414
1, 90960, Note_on_c, 0, 36, 0
1, 90960, Note_on_c, 0, 69, 53
1, 90960, Note_on_c, 0, 66, 45
1, 90960, Note_on_c, 0, 45, 40
1, 91080, Note_on_c, 0, 45, 0
1, 91080, Note_on_c, 0, 36, 36
1, 91200, Tempo, 925926
1, 91200, Note_on_c, 0, 45, 41
1, 91205, Control_c, 0, 64, 0
1, 91286, Control_c, 0, 64, 127
1, 91310, Note_on_c, 0, 66, 0
1, 91310, Note_on_c, 0, 69, 0
1, 91320, Note_on_c, 0, 66, 45
1, 91320, Note_on_c, 0, 69, 53
1, 91430, Note_on_c, 0, 36, 0
1, 91430, Note_on_c, 0, 45, 0
1, 91437, Note_on_c, 0, 66, 0
1, 91438, Note_on_c, 0, 69, 0
1, 91440, Tempo, 891530
1, 91440, Note_on_c, 0, 69, 49
1, 91440, Note_on_c, 0, 72, 58
1, 91440, Note_on_c, 0, 45, 42
1, 91440, Note_on_c, 0, 36, 35
1, 91557, Note_on_c, 0, 72, 0
1, 91557, Note_on_c, 0, 69, 0
1, 91560, Note_on_c, 0, 67, 45
1, 91560, Note_on_c, 0, 71, 54
1, 91677, Note_on_c, 0, 67, 0
1, 91678, Note_on_c, 0, 71, 0
1, 91680, Note_on_c, 0, 66, 50
1, 91680, Note_on_c, 0, 69, 59
1, 91687, Control_c, 0, 64, 0
1, 91744, Control_c, 0, 64, 127
1, 91797, Note_on_c, 0, 69, 0
1, 91797, Note_on_c, 0, 66, 0
1, 91800, Note_on_c, 0, 67, 43
1, 91800, Note_on_c, 0, 71, 51
1, 91917, Note_on_c, 0, 71, 0
1, 91917, Note_on_c, 0, 67, 0
1, 91920, Tempo, 918836
1, 91920, Note_on_c, 0, 45, 0
1, 91920, Note_on_c, 0, 36, 0
1, 91920, Note_on_c, 0, 66, 47
1, 91920, Note_on_c, 0, 69, 56
1, 91920, Note_on_c, 0, 48, 35
1, 91920, Note_on_c, 0, 57, 42
1, 92037, Note_on_c, 0, 69, 0
1, 92037, Note_on_c, 0, 66, 0
1, 92040, Tempo, 940439
1, 92040, Note_on_c, 0, 64, 43
1, 92040, Note_on_c, 0, 66, 51
1, 92160, Tempo, 1034483
1, 92160, Note_on_c, 0, 66, 0
1, 92160, Note_on_c, 0, 57, 0
1, 92160, Note_on_c, 0, 48, 0
1, 92160, Note_on_c, 0, 64, 0
1, 92160, Note_on_c, 0, 63, 39
1, 92160, Note_on_c, 0, 71, 46
1, 92178, Control_c, 0, 64, 0
1, 92257, Control_c, 0, 64, 127
1, 92268, Note_on_c, 0, 71, 0
1, 92268, Note_on_c, 0, 63, 0
1, 92280, Tempo, 1000000
1, 92280, Note_on_c, 0, 47, 36
1, 92400, Tempo, 955414
1, 92400, Note_on_c, 0, 47, 0
1, 92400, Note_on_c, 0, 71, 49
1, 92400, Note_on_c, 0, 63, 41
1, 92400, Note_on_c, 0, 57, 40
1, 92520, Note_on_c, 0, 57, 0
1, 92520, Note_on_c, 0, 47, 36
1, 92640, Tempo, 925926
1, 92640, Note_on_c, 0, 57, 41
1, 92645, Control_c, 0, 64, 0
1, 92726, Control_c, 0, 64, 127
1, 92750, Note_on_c, 0, 63, 0
1, 92750, Note_on_c, 0, 71, 0
1, 92760, Note_on_c, 0, 66, 45
1, 92760, Note_on_c, 0, 69, 53
1, 92870, Note_on_c, 0, 47, 0
1, 92870, Note_on_c, 0, 57, 0
1, 92877, Note_on_c, 0, 66, 0
1, 92878, Note_on_c, 0, 69, 0
1, 92880, Tempo, 891530
1, 92880, Note_on_c, 0, 69, 49
1, 92880, Note_on_c, 0, 72, 58
1, 92880, Note_on_c, 0, 57, 42
1, 92880, Note_on_c, 0, 47, 35
1, 92997, Note_on_c, 0, 72, 0
1, 92997, Note_on_c, 0, 69, 0
1, 93000, Note_on_c, 0, 67, 45
1, 93000, Note_on_c, 0, 71, 54
1, 93117, Note_on_c, 0, 67, 0
1, 93118, Note_on_c, 0, 71, 0
1, 93120, Note_on_c, 0, 66, 50
1, 93120, Note_on_c, 0, 69, 59
1, 93127, Control_c, 0, 64, 0
1, 93184, Control_c, 0, 64, 127
1, 93237, Note_on_c, 0, 69, 0
1, 93237, Note_on_c, 0, 66, 0
1, 93240, Note_on_c, 0, 67, 43
1, 93240, Note_on_c, 0, 71, 51
1, 93357, Note_on_c, 0, 71, 0
1, 93357, Note_on_c, 0, 67, 0
1, 93360, Tempo, 918836
1, 93360, Note_on_c, 0, 57, 0
1, 93360, Note_on_c, 0, 47, 0
1, 93360, Note_on_c, 0, 66, 47
1, 93360, Note_on_c, 0, 69, 56
1, 93360, Note_on_c, 0, 48, 35
1, 93360, Note_on_c, 0, 57, 42
1, 93477, Note_on_c, 0, 69, 0
1, 93477, Note_on_c, 0, 66, 0
1, 93480, Tempo, 940439
1, 93480, Note_on_c, 0, 64, 43
1, 93480, Note_on_c, 0, 66, 51
1, 93600, Tempo, 1034483
1, 93600, Note_on_c, 0, 66, 0
1, 93600, Note_on_c, 0, 57, 0
1, 93600, Note_on_c, 0, 48, 0
1, 93600, Note_on_c, 0, 64, 0
1, 93600, Note_on_c, 0, 63, 39
1, 93600, Note_on_c, 0, 71, 46
1, 93618, Control_c, 0, 64, 0
1, 93697, Control_c, 0, 64, 127
1, 93708, Note_on_c, 0, 71, 0
1, 93708, Note_on_c, 0, 63, 0
1, 93720, Tempo, 1000000
1, 93720, Note_on_c, 0, 47, 36
1, 93840, Tempo, 955414
1, 93840, Note_on_c, 0, 47, 0
1, 93840, Note_on_c, 0, 71, 49
1, 93840, Note_on_c, 0, 63, 41
1, 93840, Note_on_c, 0, 57, 40
1, 93960, Note_on_c, 0, 57, 0
1, 93960, Note_on_c, 0, 47, 36
1, 94080, Tempo, 925926
1, 94080, Note_on_c, 0, 57, 41
1, 94085, Control_c, 0, 64, 0
1, 94166, Control_c, 0, 64, 127
1, 94190, Note_on_c, 0, 63, 0
1, 94190, Note_on_c, 0, 71, 0
1, 94200, Note_on_c, 0, 66, 45
1, 94200, Note_on_c, 0, 69, 53
1, 94310, Note_on_c, 0, 47, 0
1, 94310, Note_on_c, 0, 57, 0
1, 94317, Note_on_c, 0, 66, 0
1, 94318, Note_on_c, 0, 69, 0
1, 94320, Tempo, 891530
1, 94320, Note_on_c, 0, 69, 49
1, 94320, Note_on_c, 0, 72, 58
1, 94320, Note_on_c, 0, 57, 42
1, 94320, Note_on_c, 0, 47, 35
1, 94437, Note_on_c, 0, 72, 0
1, 94437, Note_on_c, 0, 69, 0
1, 94440, Note_on_c, 0, 67, 45
1, 94440, Note_on_c, 0, 71, 54
1, 94557, Note_on_c, 0, 67, 0
1, 94558, Note_on_c, 0, 71, 0
1, 94560, Note_on_c, 0, 66, 50
1, 94560, Note_on_c, 0, 69, 59
1, 94567, Control_c, 0, 64, 0
1, 94624, Control_c, 0, 64, 127
1, 94677, Note_on_c, 0, 69, 0
1, 94677, Note_on_c, 0, 66, 0
1, 94680, Note_on_c, 0, 67, 43
1, 94680, Note_on_c, 0, 71, 51
1, 94797, Note_on_c, 0, 71, 0
1, 94797, Note_on_c, 0, 67, 0
1, 94800, Tempo, 918836
1, 94800, Note_on_c, 0, 57, 0
1, 94800, Note_on_c, 0, 47, 0
1, 94800, Note_on_c, 0, 66, 47
1, 94800, Note_on_c, 0, 69, 56
1, 94800, Note_on_c, 0, 48, 35
1, 94800, Note_on_c, 0, 57, 42
1, 94917, Note_on_c, 0, 69, 0
1, 94917, Note_on_c, 0, 66, 0
1, 94920, Tempo, 1016949
1, 94920, Note_on_c, 0, 64, 43
1, 94920, Note_on_c, 0, 66, 51
1, 95040, Tempo, 1034483
1, 95040, Note_on_c, 0, 66, 0
1, 95040, Note_on_c, 0, 57, 0
1, 95040, Note_on_c, 0, 48, 0
1, 95040, Note_on_c, 0, 64, 0
1, 95040, Note_on_c, 0, 63, 39
1, 95040, Note_on_c, 0, 71, 46
1, 95058, Control_c, 0, 64, 0
1, 95137, Control_c, 0, 64, 127
1, 95148, Note_on_c, 0, 71, 0
1, 95148, Note_on_c, 0, 63, 0
1, 95160, Tempo, 1000000
1, 95160, Note_on_c, 0, 47, 36
1, 95280, Tempo, 978793
1, 95280, Note_on_c, 0, 47, 0
1, 95280, Note_on_c, 0, 71, 48
1, 95280, Note_on_c, 0, 63, 40
1, 95280, Note_on_c, 0, 57, 39
1, 95400, Note_on_c, 0, 57, 0
1, 95400, Note_on_c, 0, 47, 35
1, 95520, Tempo, 947867
1, 95520, Note_on_c, 0, 57, 39
1, 95750, Note_on_c, 0, 57, 0
1, 95750, Note_on_c, 0, 71, 0
1, 95750, Note_on_c, 0, 63, 0
1, 95750, Note_on_c, 0, 47, 0
1, 95760, Tempo, 918836
1, 95760, Note_on_c, 0, 63, 46
1, 95760, Note_on_c, 0, 71, 46
1, 95760, Note_on_c, 0, 57, 39
1, 95760, Note_on_c, 0, 47, 33
1, 96230, Note_on_c, 0, 47, 0
1, 96230, Note_on_c, 0, 57, 0
1, 96240, Tempo, 1011804
1, 96240, Note_on_c, 0, 71, 0
1, 96240, Note_on_c, 0, 63, 0
1, 96240, Note_on_c, 0, 63, 45
1, 96240, Note_on_c, 0, 71, 45
1, 96240, Note_on_c, 0, 47, 32
1, 96240, Note_on_c, 0, 57, 38
1, 96480, Tempo, 1056338
1, 96480, Note_on_c, 0, 57, 0
1, 96480, Note_on_c, 0, 63, 0
1, 96480, Note_on_c, 0, 71, 0
1, 96480, Note_on_c, 0, 47, 0
1, 96480, Note_on_c, 0, 63, 35
1, 96480, Note_on_c, 0, 71, 41
1, 96588, Note_on_c, 0, 71, 0
1, 96588, Note_on_c, 0, 63, 0
1, 96600, Tempo, 1029160
1, 96600, Note_on_c, 0, 47, 32
1, 96720, Tempo, 978793
1, 96720, Note_on_c, 0, 47, 0
1, 96720, Note_on_c, 0, 71, 43
1, 96720, Note_on_c, 0, 63, 36
1, 96720, Note_on_c, 0, 57, 35
1, 96840, Note_on_c, 0, 57, 0
1, 96840, Note_on_c, 0, 47, 31
1, 96960, Tempo, 970874
1, 96960, Note_on_c, 0, 57, 35
1, 97190, Note_on_c, 0, 57, 0
1, 97190, Note_on_c, 0, 71, 0
1, 97190, Note_on_c, 0, 63, 0
1, 97190, Note_on_c, 0, 47, 0
1, 97200, Tempo, 947867
1, 97200, Note_on_c, 0, 63, 41
1, 97200, Note_on_c, 0, 71, 41
1, 97200, Note_on_c, 0, 57, 35
1, 97200, Note_on_c, 0, 47, 29
1, 97670, Note_on_c, 0, 47, 0
1, 97670, Note_on_c, 0, 57, 0
1, 97680, Tempo, 1003344
1, 97680, Note_on_c, 0, 71, 0
1, 97680, Note_on_c, 0, 63, 0
1, 97680, Note_on_c, 0, 63, 40
1, 97680, Note_on_c, 0, 71, 40
1, 97680, Note_on_c, 0, 47, 28
1, 97680, Note_on_c, 0, 57, 34
1, 97800, Tempo, 1075269
1, 97920, Tempo, 1034483
1, 97920, Note_on_c, 0, 57, 0
1, 97920, Note_on_c, 0, 63, 0
1, 97920, Note_on_c, 0, 71, 0
1, 97920, Note_on_c, 0, 47, 0
1, 97920, Note_on_c, 0, 67, 34
1, 97920, Note_on_c, 0, 71, 40
1, 97920, Control_c, 0, 64, 0
1, 97938, Control_c, 0, 64, 0
1, 98017, Control_c, 0, 64, 127
1, 98028, Note_on_c, 0, 71, 0
1, 98028, Note_on_c, 0, 67, 0
1, 98040, Tempo, 1000000
1, 98040, Note_on_c, 0, 43, 32
1, 98160, Tempo, 955414
1, 98160, Note_on_c, 0, 43, 0
1, 98160, Note_on_c, 0, 67, 39
1, 98160, Note_on_c, 0, 71, 47
1, 98160, Note_on_c, 0, 50, 35
1, 98280, Note_on_c, 0, 50, 0
1, 98280, Note_on_c, 0, 43, 32
1, 98400, Tempo, 925926
1, 98400, Note_on_c, 0, 50, 36
1, 98405, Control_c, 0, 64, 0
1, 98486, Control_c, 0, 64, 127
1, 98510, Note_on_c, 0, 71, 0
1, 98510, Note_on_c, 0, 67, 0
1, 98520, Note_on_c, 0, 62, 35
1, 98520, Note_on_c, 0, 69, 41
1, 98630, Note_on_c, 0, 43, 0
1, 98630, Note_on_c, 0, 50, 0
1, 98638, Note_on_c, 0, 62, 0
1, 98638, Note_on_c, 0, 69, 0
1, 98640, Tempo, 891530
1, 98640, Note_on_c, 0, 67, 36
1, 98640, Note_on_c, 0, 71, 43
1, 98640, Note_on_c, 0, 50, 37
1, 98640, Note_on_c, 0, 43, 31
1, 98758, Note_on_c, 0, 71, 0
1, 98758, Note_on_c, 0, 67, 0
1, 98760, Note_on_c, 0, 74, 41
1, 98760, Note_on_c, 0, 69, 34
1, 98877, Note_on_c, 0, 74, 0
1, 98878, Note_on_c, 0, 69, 0
1, 98880, Note_on_c, 0, 67, 36
1, 98880, Note_on_c, 0, 71, 43
1, 98887, Control_c, 0, 64, 0
1, 98944, Control_c, 0, 64, 127
1, 98998, Note_on_c, 0, 71, 0
1, 98998, Note_on_c, 0, 67, 0
1, 99000, Note_on_c, 0, 62, 38
1, 99000, Note_on_c, 0, 69, 38
1, 99118, Note_on_c, 0, 69, 0
1, 99118, Note_on_c, 0, 62, 0
1, 99120, Tempo, 918836
1, 99120, Note_on_c, 0, 67, 35
1, 99120, Note_on_c, 0, 71, 41
1, 99238, Note_on_c, 0, 71, 0
1, 99238, Note_on_c, 0, 67, 0
1, 99240, Tempo, 940439
1, 99240, Note_on_c, 0, 69, 38
1, 99240, Note_on_c, 0, 74, 38
1, 99360, Tempo, 955414
1, 99360, Note_on_c, 0, 74, 0
1, 99360, Note_on_c, 0, 43, 0
1, 99360, Note_on_c, 0, 50, 0
1, 99360, Note_on_c, 0, 69, 0
1, 99360, Note_on_c, 0, 67, 34
1, 99360, Note_on_c, 0, 71, 40
1, 99378, Control_c, 0, 64, 0
1, 99457, Control_c, 0, 64, 127
1, 99468, Note_on_c, 0, 71, 0
1, 99468, Note_on_c, 0, 67, 0
1, 99480, Tempo, 940439
1, 99480, Note_on_c, 0, 43, 32
1, 99600, Tempo, 933126
1, 99600, Note_on_c, 0, 43, 0
1, 99600, Note_on_c, 0, 67, 39
1, 99600, Note_on_c, 0, 71, 47
1, 99600, Note_on_c, 0, 50, 35
1, 99720, Note_on_c, 0, 50, 0
1, 99720, Note_on_c, 0, 43, 32
1, 99840, Tempo, 925926
1, 99840, Note_on_c, 0, 50, 36
1, 99845, Control_c, 0, 64, 0
1, 99926, Control_c, 0, 64, 127
1, 99950, Note_on_c, 0, 71, 0
1, 99950, Note_on_c, 0, 67, 0
1, 99960, Note_on_c, 0, 62, 35
1, 99960, Note_on_c, 0, 69, 41
1, 100070, Note_on_c, 0, 43, 0
1, 100070, Note_on_c, 0, 50, 0
1, 100078, Note_on_c, 0, 62, 0
1, 100078, Note_on_c, 0, 69, 0
1, 100080, Tempo, 891530
1, 100080, Note_on_c, 0, 67, 37
1, 100080, Note_on_c, 0, 71, 44
1, 100080, Note_on_c, 0, 50, 38
1, 100080, Note_on_c, 0, 43, 31
1, 100198, Note_on_c, 0, 71, 0
1, 100198, Note_on_c, 0, 67, 0
1, 100200, Note_on_c, 0, 69, 35
1, 100200, Note_on_c, 0, 74, 43
1, 100318, Note_on_c, 0, 74, 0
1, 100318, Note_on_c, 0, 69, 0
1, 100320, Note_on_c, 0, 67, 38
1, 100320, Note_on_c, 0, 71, 46
1, 100327, Control_c, 0, 64, 0
1, 100384, Control_c, 0, 64, 127
1, 100438, Note_on_c, 0, 71, 0
1, 100438, Note_on_c, 0, 67, 0
1, 100440, Note_on_c, 0, 43, 0
1, 100440, Note_on_c, 0, 62, 41
1, 100440, Note_on_c, 0, 69, 41
1, 100440, Note_on_c, 0, 42, 32
1, 100558, Note_on_c, 0, 69, 0
1, 100558, Note_on_c, 0, 62, 0
1, 100560, Tempo, 918836
1, 100560, Note_on_c, 0, 42, 0
1, 100560, Note_on_c, 0, 67, 38
1, 100560, Note_on_c, 0, 71, 45
1, 100560, Note_on_c, 0, 40, 35
1, 100678, Note_on_c, 0, 71, 0
1, 100678, Note_on_c, 0, 67, 0
1, 100680, Tempo, 1132075
1, 100680, Note_on_c, 0, 40, 0
1, 100680, Note_on_c, 0, 69, 42
1, 100680, Note_on_c, 0, 74, 42
1, 100680, Note_on_c, 0, 38, 39
1, 100800, Tempo, 1034483
1, 100800, Note_on_c, 0, 38, 0
1, 100800, Note_on_c, 0, 50, 0
1, 100800, Note_on_c, 0, 69, 0
1, 100800, Note_on_c, 0, 74, 0
1, 100800, Note_on_c, 0, 72, 39
1, 100800, Note_on_c, 0, 76, 46
1, 100818, Control_c, 0, 64, 0
1, 100897, Control_c, 0, 64, 127
1, 100908, Note_on_c, 0, 76, 0
1, 100908, Note_on_c, 0, 72, 0
1, 100920, Tempo, 1000000
1, 100920, Note_on_c, 0, 36, 36
1, 101040, Tempo, 955414
1, 101040, Note_on_c, 0, 36, 0
1, 101040, Note_on_c, 0, 76, 49
1, 101040, Note_on_c, 0, 72, 41
1, 101040, Note_on_c, 0, 43, 40
1, 101160, Note_on_c, 0, 43, 0
1, 101160, Note_on_c, 0, 36, 36
1, 101280, Tempo, 925926
1, 101280, Note_on_c, 0, 43, 41
1, 101285, Control_c, 0, 64, 0
1, 101366, Control_c, 0, 64, 127
1, 101390, Note_on_c, 0, 72, 0
1, 101390, Note_on_c, 0, 76, 0
1, 101400, Note_on_c, 0, 67, 40
1, 101400, Note_on_c, 0, 74, 47
1, 101510, Note_on_c, 0, 36, 0
1, 101510, Note_on_c, 0, 43, 0
1, 101517, Note_on_c, 0, 67, 0
1, 101518, Note_on_c, 0, 74, 0
1, 101520, Tempo, 891530
1, 101520, Note_on_c, 0, 72, 41
1, 101520, Note_on_c, 0, 76, 49
1, 101520, Note_on_c, 0, 43, 42
1, 101520, Note_on_c, 0, 36, 35
1, 101637, Note_on_c, 0, 72, 0
1, 101638, Note_on_c, 0, 76, 0
1, 101640, Note_on_c, 0, 67, 39
1, 101640, Note_on_c, 0, 74, 47
1, 101757, Note_on_c, 0, 67, 0
1, 101758, Note_on_c, 0, 74, 0
1, 101760, Note_on_c, 0, 64, 41
1, 101760, Note_on_c, 0, 72, 49
1, 101767, Control_c, 0, 64, 0
1, 101824, Control_c, 0, 64, 127
1, 101877, Note_on_c, 0, 72, 0
1, 101878, Note_on_c, 0, 64, 0
1, 101880, Note_on_c, 0, 62, 43
1, 101880, Note_on_c, 0, 67, 43
1, 101997, Note_on_c, 0, 67, 0
1, 101998, Note_on_c, 0, 62, 0
1, 102000, Tempo, 918836
1, 102000, Note_on_c, 0, 64, 40
1, 102000, Note_on_c, 0, 72, 47
1, 102117, Note_on_c, 0, 72, 0
1, 102118, Note_on_c, 0, 64, 0
1, 102120, Tempo, 940439
1, 102120, Note_on_c, 0, 67, 43
1, 102120, Note_on_c, 0, 77, 43
1, 102240, Tempo, 1034483
1, 102240, Note_on_c, 0, 77, 0
1, 102240, Note_on_c, 0, 36, 0
1, 102240, Note_on_c, 0, 43, 0
1, 102240, Note_on_c, 0, 67, 0
1, 102240, Note_on_c, 0, 72, 39
1, 102240, Note_on_c, 0, 76, 46
1, 102258, Control_c, 0, 64, 0
1, 102337, Control_c, 0, 64, 127
1, 102348, Note_on_c, 0, 76, 0
1, 102348, Note_on_c, 0, 72, 0
1, 102360, Tempo, 1000000
1, 102360, Note_on_c, 0, 36, 36
1, 102480, Tempo, 955414
1, 102480, Note_on_c, 0, 36, 0
1, 102480, Note_on_c, 0, 76, 49
1, 102480, Note_on_c, 0, 72, 41
1, 102480, Note_on_c, 0, 43, 40
1, 102600, Note_on_c, 0, 43, 0
1, 102600, Note_on_c, 0, 36, 36
1, 102720, Tempo, 925926
1, 102720, Note_on_c, 0, 43, 41
1, 102725, Control_c, 0, 64, 0
1, 102806, Control_c, 0, 64, 127
1, 102830, Note_on_c, 0, 72, 0
1, 102830, Note_on_c, 0, 76, 0
1, 102840, Note_on_c, 0, 72, 45
1, 102840, Note_on_c, 0, 76, 53
1, 102950, Note_on_c, 0, 36, 0
1, 102950, Note_on_c, 0, 43, 0
1, 102957, Note_on_c, 0, 72, 0
1, 102958, Note_on_c, 0, 76, 0
1, 102960, Tempo, 891530
1, 102960, Note_on_c, 0, 72, 49
1, 102960, Note_on_c, 0, 76, 58
1, 102960, Note_on_c, 0, 43, 45
1, 102960, Note_on_c, 0, 36, 45
1, 103077, Note_on_c, 0, 76, 0
1, 103077, Note_on_c, 0, 72, 0
1, 103080, Note_on_c, 0, 72, 45
1, 103080, Note_on_c, 0, 76, 54
1, 103197, Note_on_c, 0, 72, 0
1, 103198, Note_on_c, 0, 76, 0
1, 103200, Note_on_c, 0, 43, 0
1, 103200, Note_on_c, 0, 36, 0
1, 103200, Note_on_c, 0, 74, 58
1, 103200, Note_on_c, 0, 76, 61
1, 103200, Note_on_c, 0, 35, 44
1, 103200, Note_on_c, 0, 44, 48
1, 103207, Control_c, 0, 64, 0
1, 103264, Control_c, 0, 64, 127
1, 103317, Note_on_c, 0, 74, 0
1, 103320, Note_on_c, 0, 71, 55
1, 103437, Note_on_c, 0, 71, 0
1, 103440, Tempo, 918836
1, 103440, Note_on_c, 0, 35, 0
1, 103440, Note_on_c, 0, 73, 56
1, 103440, Note_on_c, 0, 40, 42
1, 103557, Note_on_c, 0, 73, 0
1, 103560, Tempo, 940439
1, 103560, Note_on_c, 0, 74, 53
1, 103670, Note_on_c, 0, 76, 0
1, 103680, Tempo, 1034483
1, 103680, Note_on_c, 0, 40, 0
1, 103680, Note_on_c, 0, 44, 0
1, 103680, Note_on_c, 0, 74, 0
1, 103680, Note_on_c, 0, 73, 60
1, 103680, Note_on_c, 0, 76, 60
1, 103680, Note_on_c, 0, 33, 41
1, 103680, Note_on_c, 0, 45, 46
1, 103698, Control_c, 0, 64, 0
1, 103777, Control_c, 0, 64, 127
1, 103788, Note_on_c, 0, 76, 0
1, 103788, Note_on_c, 0, 73, 0
1, 103790, Note_on_c, 0, 45, 0
1, 103800, Tempo, 1000000
1, 103800, Note_on_c, 0, 33, 0
1, 103800, Note_on_c, 0, 45, 36
1, 103920, Tempo, 955414
1, 103920, Note_on_c, 0, 45, 0
1, 103920, Note_on_c, 0, 76, 63
1, 103920, Note_on_c, 0, 73, 63
1, 103920, Note_on_c, 0, 55, 46
1, 104040, Note_on_c, 0, 55, 0
1, 104040, Note_on_c, 0, 45, 41
1, 104160, Tempo, 925926
1, 104160, Note_on_c, 0, 55, 45
1, 104165, Control_c, 0, 64, 0
1, 104246, Control_c, 0, 64, 127
1, 104270, Note_on_c, 0, 73, 0
1, 104270, Note_on_c, 0, 76, 0
1, 104280, Note_on_c, 0, 76, 49
1, 104280, Note_on_c, 0, 79, 58
1, 104390, Note_on_c, 0, 45, 0
1, 104390, Note_on_c, 0, 55, 0
1, 104397, Note_on_c, 0, 76, 0
1, 104397, Note_on_c, 0, 79, 0
1, 104400, Tempo, 891530
1, 104400, Note_on_c, 0, 79, 53
1, 104400, Note_on_c, 0, 82, 63
1, 104400, Note_on_c, 0, 55, 45
1, 104400, Note_on_c, 0, 45, 38
1, 104517, Note_on_c, 0, 82, 0
1, 104517, Note_on_c, 0, 79, 0
1, 104520, Note_on_c, 0, 77, 48
1, 104520, Note_on_c, 0, 81, 58
1, 104637, Note_on_c, 0, 77, 0
1, 104638, Note_on_c, 0, 81, 0
1, 104640, Note_on_c, 0, 76, 53
1, 104640, Note_on_c, 0, 79, 62
1, 104647, Control_c, 0, 64, 0
1, 104704, Control_c, 0, 64, 127
1, 104757, Note_on_c, 0, 79, 0
1, 104757, Note_on_c, 0, 76, 0
1, 104760, Note_on_c, 0, 77, 45
1, 104760, Note_on_c, 0, 81, 53
1, 104877, Note_on_c, 0, 81, 0
1, 104877, Note_on_c, 0, 77, 0
1, 104880, Tempo, 918836
1, 104880, Note_on_c, 0, 55, 0
1, 104880, Note_on_c, 0, 45, 0
1, 104880, Note_on_c, 0, 76, 48
1, 104880, Note_on_c, 0, 79, 57
1, 104880, Note_on_c, 0, 46, 36
1, 104880, Note_on_c, 0, 55, 43
1, 104997, Note_on_c, 0, 79, 0
1, 104997, Note_on_c, 0, 76, 0
1, 105000, Tempo, 940439
1, 105000, Note_on_c, 0, 74, 43
1, 105000, Note_on_c, 0, 76, 52
1, 105120, Tempo, 1034483
1, 105120, Note_on_c, 0, 76, 0
1, 105120, Note_on_c, 0, 55, 0
1, 105120, Note_on_c, 0, 46, 0
1, 105120, Note_on_c, 0, 74, 0
1, 105120, Note_on_c, 0, 73, 39
1, 105120, Note_on_c, 0, 81, 46
1, 105138, Control_c, 0, 64, 0
1, 105217, Control_c, 0, 64, 127
1, 105228, Note_on_c, 0, 81, 0
1, 105228, Note_on_c, 0, 73, 0
1, 105240, Tempo, 1000000
1, 105240, Note_on_c, 0, 45, 36
1, 105360, Tempo, 955414
1, 105360, Note_on_c, 0, 45, 0
1, 105360, Note_on_c, 0, 81, 53
1, 105360, Note_on_c, 0, 73, 45
1, 105360, Note_on_c, 0, 55, 40
1, 105480, Note_on_c, 0, 55, 0
1, 105480, Note_on_c, 0, 45, 36
1, 105600, Tempo, 925926
1, 105600, Note_on_c, 0, 55, 41
1, 105605, Control_c, 0, 64, 0
1, 105686, Control_c, 0, 64, 127
1, 105710, Note_on_c, 0, 73, 0
1, 105710, Note_on_c, 0, 81, 0
1, 105720, Note_on_c, 0, 76, 45
1, 105720, Note_on_c, 0, 79, 53
1, 105830, Note_on_c, 0, 45, 0
1, 105830, Note_on_c, 0, 55, 0
1, 105837, Note_on_c, 0, 76, 0
1, 105837, Note_on_c, 0, 79, 0
1, 105840, Tempo, 891530
1, 105840, Note_on_c, 0, 79, 49
1, 105840, Note_on_c, 0, 82, 58
1, 105840, Note_on_c, 0, 55, 42
1, 105840, Note_on_c, 0, 45, 35
1, 105957, Note_on_c, 0, 82, 0
1, 105957, Note_on_c, 0, 79, 0
1, 105960, Note_on_c, 0, 77, 45
1, 105960, Note_on_c, 0, 81, 54
1, 106077, Note_on_c, 0, 77, 0
1, 106078, Note_on_c, 0, 81, 0
1, 106080, Note_on_c, 0, 76, 50
1, 106080, Note_on_c, 0, 79, 59
1, 106087, Control_c, 0, 64, 0
1, 106144, Control_c, 0, 64, 127
1, 106197, Note_on_c, 0, 79, 0
1, 106197, Note_on_c, 0, 76, 0
1, 106200, Note_on_c, 0, 77, 43
1, 106200, Note_on_c, 0, 81, 51
1, 106317, Note_on_c, 0, 81, 0
1, 106317, Note_on_c, 0, 77, 0
1, 106320, Tempo, 918836
1, 106320, Note_on_c, 0, 55, 0
1, 106320, Note_on_c, 0, 45, 0
1, 106320, Note_on_c, 0, 76, 47
1, 106320, Note_on_c, 0, 79, 56
1, 106320, Note_on_c, 0, 46, 35
1, 106320, Note_on_c, 0, 55, 42
1, 106437, Note_on_c, 0, 79, 0
1, 106437, Note_on_c, 0, 76, 0
1, 106440, Tempo, 1025641
1, 106440, Note_on_c, 0, 74, 43
1, 106440, Note_on_c, 0, 76, 51
1, 106560, Tempo, 1034483
1, 106560, Note_on_c, 0, 76, 0
1, 106560, Note_on_c, 0, 55, 0
1, 106560, Note_on_c, 0, 46, 0
1, 106560, Note_on_c, 0, 74, 0
1, 106560, Note_on_c, 0, 73, 39
1, 106560, Note_on_c, 0, 81, 46
1, 106560, Note_on_c, 0, 45, 29
1, 106560, Note_on_c, 0, 55, 37
1, 106578, Control_c, 0, 64, 0
1, 106657, Control_c, 0, 64, 127
1, 106668, Note_on_c, 0, 81, 0
1, 106668, Note_on_c, 0, 73, 0
1, 106676, Note_on_c, 0, 45, 0
1, 106680, Tempo, 1000000
1, 106680, Note_on_c, 0, 55, 0
1, 106680, Note_on_c, 0, 45, 34
1, 106800, Tempo, 978793
1, 106800, Note_on_c, 0, 45, 0
1, 106800, Note_on_c, 0, 81, 48
1, 106800, Note_on_c, 0, 73, 40
1, 106800, Note_on_c, 0, 55, 37
1, 106920, Note_on_c, 0, 55, 0
1, 106920, Note_on_c, 0, 45, 33
1, 107040, Tempo, 947867
1, 107040, Note_on_c, 0, 55, 37
1, 107270, Note_on_c, 0, 55, 0
1, 107270, Note_on_c, 0, 81, 0
1, 107270, Note_on_c, 0, 73, 0
1, 107270, Note_on_c, 0, 45, 0
1, 107280, Tempo, 918836
1, 107280, Note_on_c, 0, 73, 46
1, 107280, Note_on_c, 0, 81, 46
1, 107280, Note_on_c, 0, 55, 37
1, 107280, Note_on_c, 0, 45, 31
1, 107750, Note_on_c, 0, 45, 0
1, 107750, Note_on_c, 0, 55, 0
1, 107760, Tempo, 1011804
1, 107760, Note_on_c, 0, 81, 0
1, 107760, Note_on_c, 0, 73, 0
1, 107760, Note_on_c, 0, 73, 45
1, 107760, Note_on_c, 0, 81, 45
1, 107760, Note_on_c, 0, 45, 30
1, 107760, Note_on_c, 0, 55, 36
1, 108000, Tempo, 1056338
1, 108000, Note_on_c, 0, 55, 0
1, 108000, Note_on_c, 0, 73, 0
1, 108000, Note_on_c, 0, 81, 0
1, 108000, Note_on_c, 0, 45, 0
1, 108000, Note_on_c, 0, 73, 40
1, 108000, Note_on_c, 0, 81, 48
1, 108108, Note_on_c, 0, 81, 0
1, 108108, Note_on_c, 0, 73, 0
1, 108120, Tempo, 1029160
1, 108120, Note_on_c, 0, 57, 38
1, 108240, Tempo, 978793
1, 108240, Note_on_c, 0, 57, 0
1, 108240, Note_on_c, 0, 81, 56
1, 108240, Note_on_c, 0, 73, 47
1, 108240, Note_on_c, 0, 67, 43
1, 108360, Note_on_c, 0, 67, 0
1, 108360, Note_on_c, 0, 57, 38
1, 108480, Tempo, 970874
1, 108480, Note_on_c, 0, 67, 47
1, 108710, Note_on_c, 0, 67, 0
1, 108710, Note_on_c, 0, 81, 0
1, 108710, Note_on_c, 0, 73, 0
1, 108710, Note_on_c, 0, 57, 0
1, 108720, Tempo, 952381
1, 108720, Note_on_c, 0, 57, 30
1, 108720, Note_on_c, 0, 67, 39
1, 108840, Note_on_c, 0, 69, 76
1, 108854, Control_c, 0, 64, 0
1, 108936, Note_on_c, 0, 67, 0
1, 108936, Note_on_c, 0, 57, 0
1, 108949, Control_c, 0, 64, 127
1, 108960, Tempo, 952381
1, 108960, Note_on_c, 0, 69, 0
1, 108960, Note_on_c, 0, 66, 68
1, 108960, Note_on_c, 0, 74, 81
1, 109068, Note_on_c, 0, 74, 0
1, 109068, Note_on_c, 0, 66, 0
1, 109080, Tempo, 857143
1, 109080, Note_on_c, 0, 74, 75
1, 109080, Note_on_c, 0, 66, 63
1, 109200, Tempo, 930233
1, 109200, Note_on_c, 0, 57, 66
1, 109320, Note_on_c, 0, 57, 0
1, 109320, Note_on_c, 0, 66, 0
1, 109320, Note_on_c, 0, 74, 0
1, 109320, Note_on_c, 0, 69, 64
1, 109320, Note_on_c, 0, 76, 76
1, 109320, Note_on_c, 0, 61, 61
1, 109330, Control_c, 0, 64, 0
1, 109440, Tempo, 991736
1, 109440, Note_on_c, 0, 61, 0
1, 109440, Note_on_c, 0, 76, 0
1, 109440, Note_on_c, 0, 69, 0
1, 109440, Note_on_c, 0, 74, 73
1, 109440, Note_on_c, 0, 78, 86
1, 109440, Note_on_c, 0, 62, 66
1, 109511, Control_c, 0, 64, 127
1, 109560, Tempo, 916031
1, 109560, Note_on_c, 0, 62, 0
1, 109560, Note_on_c, 0, 50, 77
1, 109656, Note_on_c, 0, 78, 0
1, 109656, Note_on_c, 0, 74, 0
1, 109680, Tempo, 1043478
1, 109680, Note_on_c, 0, 74, 72
1, 109680, Note_on_c, 0, 78, 85
1, 109800, Tempo, 930233
1, 109800, Note_on_c, 0, 50, 0
1, 109800, Note_on_c, 0, 38, 59
1, 109920, Note_on_c, 0, 38, 0
1, 109920, Note_on_c, 0, 50, 65
1, 110037, Note_on_c, 0, 78, 0
1, 110037, Note_on_c, 0, 74, 0
1, 110040, Note_on_c, 0, 50, 0
1, 110040, Note_on_c, 0, 74, 73
1, 110040, Note_on_c, 0, 78, 86
1, 110160, Note_on_c, 0, 57, 73
1, 110280, Note_on_c, 0, 57, 0
1, 110280, Note_on_c, 0, 78, 0
1, 110280, Note_on_c, 0, 74, 0
1, 110280, Note_on_c, 0, 69, 65
1, 110280, Note_on_c, 0, 76, 77
1, 110280, Note_on_c, 0, 61, 65
1, 110290, Control_c, 0, 64, 0
1, 110400, Note_on_c, 0, 61, 0
1, 110400, Note_on_c, 0, 76, 0
1, 110400, Note_on_c, 0, 69, 0
1, 110400, Note_on_c, 0, 66, 65
1, 110400, Note_on_c, 0, 74, 77
1, 110400, Note_on_c, 0, 59, 65
1, 110421, Control_c, 0, 64, 127
1, 110508, Note_on_c, 0, 74, 0
1, 110508, Note_on_c, 0, 66, 0
1, 110520, Tempo, 789474
1, 110520, Note_on_c, 0, 59, 0
1, 110520, Note_on_c, 0, 71, 73
1, 110520, Note_on_c, 0, 74, 86
1, 110640, Tempo, 1008403
1, 110640, Note_on_c, 0, 54, 71
1, 110760, Tempo, 923077
1, 110760, Note_on_c, 0, 54, 0
1, 110760, Note_on_c, 0, 74, 0
1, 110760, Note_on_c, 0, 71, 0
1, 110760, Note_on_c, 0, 66, 64
1, 110760, Note_on_c, 0, 73, 76
1, 110760, Note_on_c, 0, 57, 65
1, 110769, Control_c, 0, 64, 0
1, 110880, Tempo, 1008403
1, 110880, Note_on_c, 0, 57, 0
1, 110880, Note_on_c, 0, 73, 0
1, 110880, Note_on_c, 0, 66, 0
1, 110880, Note_on_c, 0, 62, 68
1, 110880, Note_on_c, 0, 71, 80
1, 110880, Note_on_c, 0, 55, 65
1, 110915, Control_c, 0, 64, 127
1, 111000, Tempo, 1000000
1, 111000, Note_on_c, 0, 55, 0
1, 111000, Note_on_c, 0, 43, 74
1, 111096, Note_on_c, 0, 71, 0
1, 111096, Note_on_c, 0, 62, 0
1, 111120, Tempo, 923077
1, 111120, Note_on_c, 0, 67, 73
1, 111120, Note_on_c, 0, 71, 86
1, 111229, Control_c, 0, 64, 0
1, 111240, Note_on_c, 0, 43, 0
1, 111240, Note_on_c, 0, 31, 65
1, 111360, Note_on_c, 0, 31, 0
1, 111360, Note_on_c, 0, 43, 65
1, 111480, Note_on_c, 0, 43, 0
1, 111480, Note_on_c, 0, 47, 58
1, 111600, Tempo, 952381
1, 111600, Note_on_c, 0, 47, 0
1, 111600, Note_on_c, 0, 71, 0
1, 111600, Note_on_c, 0, 67, 0
1, 111600, Note_on_c, 0, 71, 76
1, 111600, Note_on_c, 0, 43, 61
1, 111610, Control_c, 0, 64, 0
1, 111706, Control_c, 0, 64, 127
1, 111720, Note_on_c, 0, 43, 0
1, 111720, Note_on_c, 0, 42, 64
1, 111840, Tempo, 952381
1, 111840, Note_on_c, 0, 42, 0
1, 111840, Note_on_c, 0, 71, 0
1, 111840, Note_on_c, 0, 67, 68
1, 111840, Note_on_c, 0, 76, 81
1, 111840, Note_on_c, 0, 40, 68
1, 111948, Note_on_c, 0, 76, 0
1, 111948, Note_on_c, 0, 67, 0
1, 111960, Tempo, 857143
1, 111960, Note_on_c, 0, 40, 0
1, 111960, Note_on_c, 0, 76, 75
1, 111960, Note_on_c, 0, 67, 63
1, 112080, Tempo, 930233
1, 112080, Note_on_c, 0, 59, 66
1, 112200, Note_on_c, 0, 59, 0
1, 112200, Note_on_c, 0, 67, 0
1, 112200, Note_on_c, 0, 76, 0
1, 112200, Note_on_c, 0, 71, 64
1, 112200, Note_on_c, 0, 78, 76
1, 112200, Note_on_c, 0, 63, 61
1, 112210, Control_c, 0, 64, 0
1, 112320, Tempo, 1052632
1, 112320, Note_on_c, 0, 63, 0
1, 112320, Note_on_c, 0, 78, 0
1, 112320, Note_on_c, 0, 71, 0
1, 112320, Note_on_c, 0, 76, 73
1, 112320, Note_on_c, 0, 79, 86
1, 112320, Note_on_c, 0, 64, 66
1, 112391, Control_c, 0, 64, 127
1, 112440, Tempo, 916031
1, 112440, Note_on_c, 0, 64, 0
1, 112440, Note_on_c, 0, 52, 77
1, 112536, Note_on_c, 0, 79, 0
1, 112536, Note_on_c, 0, 76, 0
1, 112560, Tempo, 1043478
1, 112560, Note_on_c, 0, 76, 72
1, 112560, Note_on_c, 0, 79, 85
1, 112680, Tempo, 930233
1, 112680, Note_on_c, 0, 52, 0
1, 112680, Note_on_c, 0, 40, 59
1, 112800, Note_on_c, 0, 40, 0
1, 112800, Note_on_c, 0, 52, 65
1, 112917, Note_on_c, 0, 79, 0
1, 112917, Note_on_c, 0, 76, 0
1, 112920, Note_on_c, 0, 52, 0
1, 112920, Note_on_c, 0, 76, 73
1, 112920, Note_on_c, 0, 79, 86
1, 113040, Note_on_c, 0, 59, 70
1, 113160, Note_on_c, 0, 59, 0
1, 113160, Note_on_c, 0, 79, 0
1, 113160, Note_on_c, 0, 76, 0
1, 113160, Note_on_c, 0, 71, 63
1, 113160, Note_on_c, 0, 77, 74
1, 113160, Note_on_c, 0, 62, 63
1, 113170, Control_c, 0, 64, 0
1, 113280, Tempo, 895522
1, 113280, Note_on_c, 0, 62, 0
1, 113280, Note_on_c, 0, 77, 0
1, 113280, Note_on_c, 0, 71, 0
1, 113280, Note_on_c, 0, 67, 65
1, 113280, Note_on_c, 0, 76, 77
1, 113280, Note_on_c, 0, 60, 65
1, 113388, Note_on_c, 0, 76, 0
1, 113388, Note_on_c, 0, 67, 0
1, 113400, Tempo, 851064
1, 113400, Note_on_c, 0, 60, 0
1, 113400, Note_on_c, 0, 72, 73
1, 113400, Note_on_c, 0, 76, 86
1, 113403, Control_c, 0, 64, 127
1, 113520, Tempo, 875912
1, 113520, Note_on_c, 0, 56, 71
1, 113640, Tempo, 923077
1, 113640, Note_on_c, 0, 56, 0
1, 113640, Note_on_c, 0, 76, 0
1, 113640, Note_on_c, 0, 72, 0
1, 113640, Note_on_c, 0, 68, 62
1, 113640, Note_on_c, 0, 74, 73
1, 113640, Note_on_c, 0, 59, 63
1, 113649, Control_c, 0, 64, 0
1, 113760, Tempo, 1016949
1, 113760, Note_on_c, 0, 59, 0
1, 113760, Note_on_c, 0, 74, 0
1, 113760, Note_on_c, 0, 68, 0
1, 113760, Note_on_c, 0, 64, 68
1, 113760, Note_on_c, 0, 72, 80
1, 113760, Note_on_c, 0, 57, 65
1, 113795, Control_c, 0, 64, 127
1, 113868, Note_on_c, 0, 72, 0
1, 113868, Note_on_c, 0, 64, 0
1, 113880, Tempo, 1000000
1, 113880, Note_on_c, 0, 57, 0
1, 113880, Note_on_c, 0, 45, 74
1, 114000, Tempo, 923077
1, 114000, Note_on_c, 0, 64, 73
1, 114000, Note_on_c, 0, 72, 86
1, 114109, Control_c, 0, 64, 0
1, 114120, Note_on_c, 0, 45, 0
1, 114120, Note_on_c, 0, 33, 65
1, 114240, Note_on_c, 0, 33, 0
1, 114240, Note_on_c, 0, 45, 65
1, 114356, Note_on_c, 0, 72, 0
1, 114357, Note_on_c, 0, 64, 0
1, 114360, Tempo, 930233
1, 114360, Note_on_c, 0, 60, 73
1, 114360, Note_on_c, 0, 69, 73
1, 114360, Note_on_c, 0, 72, 86
1, 114480, Note_on_c, 0, 57, 73
1, 114598, Note_on_c, 0, 69, 0
1, 114600, Note_on_c, 0, 72, 0
1, 114600, Note_on_c, 0, 45, 0
1, 114600, Note_on_c, 0, 60, 0
1, 114600, Note_on_c, 0, 57, 0
1, 114600, Note_on_c, 0, 62, 63
1, 114600, Note_on_c, 0, 69, 63
1, 114600, Note_on_c, 0, 74, 74
1, 114600, Note_on_c, 0, 47, 56
1, 114600, Note_on_c, 0, 57, 56
1, 114600, Note_on_c, 0, 59, 63
1, 114610, Control_c, 0, 64, 0
1, 114720, Tempo, 895522
1, 114720, Note_on_c, 0, 59, 0
1, 114720, Note_on_c, 0, 62, 0
1, 114720, Note_on_c, 0, 74, 0
1, 114720, Note_on_c, 0, 47, 0
1, 114720, Note_on_c, 0, 64, 65
1, 114720, Note_on_c, 0, 76, 77
1, 114720, Note_on_c, 0, 48, 55
1, 114720, Note_on_c, 0, 60, 65
1, 114725, Control_c, 0, 64, 127
1, 114828, Note_on_c, 0, 76, 0
1, 114828, Note_on_c, 0, 64, 0
1, 114840, Tempo, 851064
1, 114840, Note_on_c, 0, 48, 0
1, 114840, Note_on_c, 0, 57, 0
1, 114840, Note_on_c, 0, 60, 0
1, 114840, Note_on_c, 0, 69, 0
1, 114840, Note_on_c, 0, 65, 73
1, 114840, Note_on_c, 0, 74, 73
1, 114840, Note_on_c, 0, 77, 86
1, 114840, Note_on_c, 0, 57, 58
1, 114840, Note_on_c, 0, 50, 63
1, 114851, Control_c, 0, 64, 0
1, 114932, Control_c, 0, 64, 127
1, 114960, Tempo, 875912
1, 114960, Note_on_c, 0, 62, 71
1, 115080, Tempo, 923077
1, 115080, Note_on_c, 0, 62, 0
1, 115080, Note_on_c, 0, 74, 0
1, 115080, Note_on_c, 0, 77, 0
1, 115080, Note_on_c, 0, 65, 0
1, 115080, Note_on_c, 0, 50, 0
1, 115080, Note_on_c, 0, 57, 0
1, 115080, Note_on_c, 0, 74, 64
1, 115080, Note_on_c, 0, 67, 64
1, 115080, Note_on_c, 0, 79, 76
1, 115080, Note_on_c, 0, 60, 63
1, 115080, Note_on_c, 0, 52, 63
1, 115080, Note_on_c, 0, 64, 65
1, 115085, Control_c, 0, 64, 0
1, 115137, Control_c, 0, 64, 127
1, 115200, Tempo, 1008403
1, 115200, Note_on_c, 0, 64, 0
1, 115200, Note_on_c, 0, 67, 0
1, 115200, Note_on_c, 0, 79, 0
1, 115200, Note_on_c, 0, 74, 0
1, 115200, Note_on_c, 0, 52, 0
1, 115200, Note_on_c, 0, 60, 0
1, 115200, Note_on_c, 0, 69, 68
1, 115200, Note_on_c, 0, 72, 68
1, 115200, Note_on_c, 0, 81, 80
1, 115200, Note_on_c, 0, 53, 55
1, 115200, Note_on_c, 0, 60, 55
1, 115200, Note_on_c, 0, 65, 65
1, 115200, Control_c, 0, 64, 0
1, 115271, Control_c, 0, 64, 127
1, 115308, Note_on_c, 0, 81, 0
1, 115308, Note_on_c, 0, 72, 0
1, 115320, Tempo, 1000000
1, 115320, Note_on_c, 0, 53, 0
1, 115320, Note_on_c, 0, 69, 0
1, 115320, Note_on_c, 0, 65, 0
1, 115320, Note_on_c, 0, 60, 0
1, 115440, Tempo, 923077
1, 115440, Note_on_c, 0, 69, 73
1, 115440, Note_on_c, 0, 72, 73
1, 115440, Note_on_c, 0, 81, 86
1, 115440, Note_on_c, 0, 53, 62
1, 115440, Note_on_c, 0, 60, 62
1, 115440, Note_on_c, 0, 65, 74
1, 115504, Control_c, 0, 64, 0
1, 115588, Control_c, 0, 64, 127
1, 115680, Tempo, 895522
1, 115796, Note_on_c, 0, 65, 0
1, 115796, Note_on_c, 0, 53, 0
1, 115796, Note_on_c, 0, 72, 0
1, 115796, Note_on_c, 0, 60, 0
1, 115797, Note_on_c, 0, 69, 0
1, 115797, Note_on_c, 0, 81, 0
1, 115800, Note_on_c, 0, 65, 70
1, 115800, Note_on_c, 0, 72, 83
1, 115800, Note_on_c, 0, 57, 71
1, 115800, Note_on_c, 0, 45, 60
1, 115917, Note_on_c, 0, 72, 0
1, 115917, Note_on_c, 0, 65, 0
1, 115920, Tempo, 863309
1, 115920, Note_on_c, 0, 57, 0
1, 115920, Note_on_c, 0, 45, 0
1, 115920, Note_on_c, 0, 65, 73
1, 115920, Note_on_c, 0, 69, 73
1, 115920, Note_on_c, 0, 77, 86
1, 115920, Note_on_c, 0, 60, 74
1, 115920, Note_on_c, 0, 48, 62
1, 116037, Note_on_c, 0, 77, 0
1, 116037, Note_on_c, 0, 65, 0
1, 116038, Note_on_c, 0, 69, 0
1, 116040, Note_on_c, 0, 48, 0
1, 116040, Note_on_c, 0, 60, 0
1, 116040, Note_on_c, 0, 65, 69
1, 116040, Note_on_c, 0, 72, 82
1, 116040, Note_on_c, 0, 57, 70
1, 116040, Note_on_c, 0, 45, 59
1, 116157, Note_on_c, 0, 72, 0
1, 116157, Note_on_c, 0, 65, 0
1, 116160, Note_on_c, 0, 57, 0
1, 116160, Note_on_c, 0, 45, 0
1, 116160, Note_on_c, 0, 65, 73
1, 116160, Note_on_c, 0, 69, 86
1, 116160, Note_on_c, 0, 41, 62
1, 116160, Note_on_c, 0, 53, 74
1, 116167, Control_c, 0, 64, 0
1, 116224, Control_c, 0, 64, 127
1, 116277, Note_on_c, 0, 65, 0
1, 116278, Note_on_c, 0, 69, 0
1, 116280, Note_on_c, 0, 41, 0
1, 116280, Note_on_c, 0, 53, 0
1, 116280, Note_on_c, 0, 65, 80
1, 116280, Note_on_c, 0, 40, 58
1, 116280, Note_on_c, 0, 52, 68
1, 116397, Note_on_c, 0, 65, 0
1, 116400, Tempo, 916031
1, 116400, Note_on_c, 0, 52, 0
1, 116400, Note_on_c, 0, 40, 0
1, 116400, Note_on_c, 0, 65, 70
1, 116400, Note_on_c, 0, 69, 83
1, 116400, Note_on_c, 0, 38, 60
1, 116400, Note_on_c, 0, 50, 71
1, 116517, Note_on_c, 0, 65, 0
1, 116518, Note_on_c, 0, 69, 0
1, 116520, Note_on_c, 0, 38, 0
1, 116520, Note_on_c, 0, 50, 0
1, 116520, Note_on_c, 0, 65, 67
1, 116520, Note_on_c, 0, 72, 80
1, 116520, Note_on_c, 0, 69, 67
1, 116520, Note_on_c, 0, 36, 58
1, 116520, Note_on_c, 0, 48, 68
1, 116640, Tempo, 1034483
1, 116640, Note_on_c, 0, 48, 0
1, 116640, Note_on_c, 0, 69, 0
1, 116640, Note_on_c, 0, 65, 0
1, 116640, Note_on_c, 0, 72, 0
1, 116640, Note_on_c, 0, 36, 0
1, 116640, Note_on_c, 0, 70, 68
1, 116640, Note_on_c, 0, 62, 68
1, 116640, Note_on_c, 0, 65, 68
1, 116640, Note_on_c, 0, 74, 80
1, 116640, Note_on_c, 0, 34, 55
1, 116640, Note_on_c, 0, 46, 65
1, 116640, Control_c, 0, 64, 0
1, 116711, Control_c, 0, 64, 127
1, 116748, Note_on_c, 0, 74, 0
1, 116748, Note_on_c, 0, 65, 0
1, 116760, Tempo, 1000000
1, 116760, Note_on_c, 0, 34, 0
1, 116760, Note_on_c, 0, 70, 0
1, 116760, Note_on_c, 0, 46, 0
1, 116760, Note_on_c, 0, 62, 0
1, 116880, Tempo, 923077
1, 116880, Note_on_c, 0, 70, 73
1, 116880, Note_on_c, 0, 62, 73
1, 116880, Note_on_c, 0, 65, 73
1, 116880, Note_on_c, 0, 74, 86
1, 116880, Note_on_c, 0, 46, 62
1, 116880, Note_on_c, 0, 53, 62
1, 116880, Note_on_c, 0, 58, 74
1, 116944, Control_c, 0, 64, 0
1, 117028, Control_c, 0, 64, 127
1, 117120, Tempo, 895522
1, 117236, Note_on_c, 0, 58, 0
1, 117236, Note_on_c, 0, 46, 0
1, 117236, Note_on_c, 0, 70, 0
1, 117236, Note_on_c, 0, 65, 0
1, 117236, Note_on_c, 0, 53, 0
1, 117237, Note_on_c, 0, 62, 0
1, 117237, Note_on_c, 0, 74, 0
1, 117240, Note_on_c, 0, 62, 77
1, 117240, Note_on_c, 0, 65, 77
1, 117240, Note_on_c, 0, 74, 91
1, 117240, Note_on_c, 0, 53, 71
1, 117240, Note_on_c, 0, 46, 60
1, 117360, Tempo, 863309
1, 117360, Note_on_c, 0, 46, 0
1, 117360, Note_on_c, 0, 53, 0
1, 117360, Note_on_c, 0, 58, 82
1, 117478, Note_on_c, 0, 65, 0
1, 117480, Note_on_c, 0, 62, 0
1, 117480, Note_on_c, 0, 74, 0
1, 117480, Note_on_c, 0, 58, 0
1, 117480, Note_on_c, 0, 60, 69
1, 117480, Note_on_c, 0, 65, 69
1, 117480, Note_on_c, 0, 72, 82
1, 117480, Note_on_c, 0, 53, 59
1, 117480, Note_on_c, 0, 57, 70
1, 117480, Note_on_c, 0, 45, 59
1, 117600, Note_on_c, 0, 45, 0
1, 117600, Note_on_c, 0, 65, 0
1, 117600, Note_on_c, 0, 72, 0
1, 117600, Note_on_c, 0, 60, 0
1, 117600, Note_on_c, 0, 57, 0
1, 117600, Note_on_c, 0, 53, 0
1, 117600, Note_on_c, 0, 62, 73
1, 117600, Note_on_c, 0, 65, 73
1, 117600, Note_on_c, 0, 74, 86
1, 117600, Note_on_c, 0, 46, 62
1, 117600, Note_on_c, 0, 53, 62
1, 117600, Note_on_c, 0, 58, 74
1, 117607, Control_c, 0, 64, 0
1, 117664, Control_c, 0, 64, 127
1, 117714, Note_on_c, 0, 58, 0
1, 117714, Note_on_c, 0, 65, 0
1, 117714, Note_on_c, 0, 74, 0
1, 117714, Note_on_c, 0, 62, 0
1, 117714, Note_on_c, 0, 53, 0
1, 117714, Note_on_c, 0, 46, 0
1, 117720, Note_on_c, 0, 62, 83
1, 117720, Note_on_c, 0, 65, 83
1, 117720, Note_on_c, 0, 74, 83
1, 117720, Note_on_c, 0, 46, 60
1, 117720, Note_on_c, 0, 53, 71
1, 117840, Tempo, 916031
1, 117840, Note_on_c, 0, 53, 0
1, 117840, Note_on_c, 0, 58, 71
1, 117960, Note_on_c, 0, 58, 0
1, 117960, Note_on_c, 0, 46, 0
1, 117960, Note_on_c, 0, 62, 0
1, 117960, Note_on_c, 0, 65, 0
1, 117960, Note_on_c, 0, 74, 0
1, 117960, Note_on_c, 0, 63, 70
1, 117960, Note_on_c, 0, 75, 83
1, 117960, Note_on_c, 0, 65, 70
1, 117960, Note_on_c, 0, 53, 60
1, 117960, Note_on_c, 0, 48, 60
1, 117960, Note_on_c, 0, 60, 71
1, 118080, Tempo, 1034483
1, 118080, Note_on_c, 0, 60, 0
1, 118080, Note_on_c, 0, 75, 0
1, 118080, Note_on_c, 0, 65, 0
1, 118080, Note_on_c, 0, 63, 0
1, 118080, Note_on_c, 0, 48, 0
1, 118080, Note_on_c, 0, 53, 0
1, 118080, Note_on_c, 0, 62, 68
1, 118080, Note_on_c, 0, 65, 68
1, 118080, Note_on_c, 0, 74, 80
1, 118080, Note_on_c, 0, 46, 55
1, 118080, Note_on_c, 0, 53, 55
1, 118080, Note_on_c, 0, 58, 65
1, 118080, Control_c, 0, 64, 0
1, 118151, Control_c, 0, 64, 127
1, 118188, Note_on_c, 0, 74, 0
1, 118188, Note_on_c, 0, 65, 0
1, 118200, Tempo, 1000000
1, 118200, Note_on_c, 0, 46, 0
1, 118200, Note_on_c, 0, 62, 0
1, 118200, Note_on_c, 0, 58, 0
1, 118200, Note_on_c, 0, 53, 0
1, 118320, Tempo, 923077
1, 118320, Note_on_c, 0, 62, 73
1, 118320, Note_on_c, 0, 65, 73
1, 118320, Note_on_c, 0, 74, 86
1, 118320, Note_on_c, 0, 46, 62
1, 118320, Note_on_c, 0, 53, 62
1, 118320, Note_on_c, 0, 58, 74
1, 118384, Control_c, 0, 64, 0
1, 118468, Control_c, 0, 64, 127
1, 118560, Tempo, 895522
1, 118680, Note_on_c, 0, 58, 0
1, 118680, Note_on_c, 0, 65, 0
1, 118680, Note_on_c, 0, 74, 0
1, 118680, Note_on_c, 0, 62, 0
1, 118680, Note_on_c, 0, 53, 0
1, 118680, Note_on_c, 0, 46, 0
1, 118680, Note_on_c, 0, 70, 70
1, 118680, Note_on_c, 0, 77, 83
1, 118680, Note_on_c, 0, 62, 71
1, 118680, Note_on_c, 0, 50, 60
1, 118797, Note_on_c, 0, 77, 0
1, 118797, Note_on_c, 0, 70, 0
1, 118800, Tempo, 863309
1, 118800, Note_on_c, 0, 62, 0
1, 118800, Note_on_c, 0, 50, 0
1, 118800, Note_on_c, 0, 70, 73
1, 118800, Note_on_c, 0, 74, 73
1, 118800, Note_on_c, 0, 82, 86
1, 118800, Note_on_c, 0, 65, 74
1, 118800, Note_on_c, 0, 53, 62
1, 118917, Note_on_c, 0, 82, 0
1, 118917, Note_on_c, 0, 70, 0
1, 118918, Note_on_c, 0, 74, 0
1, 118920, Note_on_c, 0, 53, 0
1, 118920, Note_on_c, 0, 65, 0
1, 118920, Note_on_c, 0, 70, 69
1, 118920, Note_on_c, 0, 77, 82
1, 118920, Note_on_c, 0, 62, 70
1, 118920, Note_on_c, 0, 50, 59
1, 119037, Note_on_c, 0, 77, 0
1, 119037, Note_on_c, 0, 70, 0
1, 119040, Note_on_c, 0, 62, 0
1, 119040, Note_on_c, 0, 50, 0
1, 119040, Note_on_c, 0, 70, 73
1, 119040, Note_on_c, 0, 74, 86
1, 119040, Note_on_c, 0, 46, 62
1, 119040, Note_on_c, 0, 58, 74
1, 119047, Control_c, 0, 64, 0
1, 119104, Control_c, 0, 64, 127
1, 119157, Note_on_c, 0, 70, 0
1, 119158, Note_on_c, 0, 74, 0
1, 119160, Note_on_c, 0, 46, 0
1, 119160, Note_on_c, 0, 58, 0
1, 119160, Note_on_c, 0, 70, 70
1, 119160, Note_on_c, 0, 77, 80
1, 119160, Note_on_c, 0, 50, 58
1, 119160, Note_on_c, 0, 62, 68
1, 119277, Note_on_c, 0, 77, 0
1, 119277, Note_on_c, 0, 70, 0
1, 119280, Tempo, 916031
1, 119280, Note_on_c, 0, 50, 0
1, 119280, Note_on_c, 0, 62, 0
1, 119280, Note_on_c, 0, 74, 70
1, 119280, Note_on_c, 0, 70, 70
1, 119280, Note_on_c, 0, 82, 83
1, 119280, Note_on_c, 0, 46, 60
1, 119280, Note_on_c, 0, 58, 71
1, 119397, Note_on_c, 0, 82, 0
1, 119397, Note_on_c, 0, 70, 0
1, 119398, Note_on_c, 0, 74, 0
1, 119400, Note_on_c, 0, 58, 0
1, 119400, Note_on_c, 0, 46, 0
1, 119400, Note_on_c, 0, 72, 70
1, 119400, Note_on_c, 0, 84, 84
1, 119400, Note_on_c, 0, 77, 70
1, 119400, Note_on_c, 0, 45, 60
1, 119400, Note_on_c, 0, 57, 71
1, 119520, Tempo, 1043478
1, 119520, Note_on_c, 0, 57, 0
1, 119520, Note_on_c, 0, 77, 0
1, 119520, Note_on_c, 0, 72, 0
1, 119520, Note_on_c, 0, 84, 0
1, 119520, Note_on_c, 0, 45, 0
1, 119520, Note_on_c, 0, 82, 78
1, 119520, Note_on_c, 0, 74, 78
1, 119520, Note_on_c, 0, 86, 92
1, 119520, Note_on_c, 0, 43, 63
1, 119520, Note_on_c, 0, 55, 74
1, 119520, Control_c, 0, 64, 0
1, 119591, Control_c, 0, 64, 127
1, 119628, Note_on_c, 0, 86, 0
1, 119640, Tempo, 1000000
1, 119640, Note_on_c, 0, 43, 0
1, 119640, Note_on_c, 0, 82, 0
1, 119640, Note_on_c, 0, 74, 0
1, 119640, Note_on_c, 0, 55, 0
1, 119760, Tempo, 923077
1, 119760, Note_on_c, 0, 82, 83
1, 119760, Note_on_c, 0, 74, 83
1, 119760, Note_on_c, 0, 86, 98
1, 119760, Note_on_c, 0, 43, 71
1, 119760, Note_on_c, 0, 55, 85
1, 119824, Control_c, 0, 64, 0
1, 119908, Control_c, 0, 64, 127
1, 120000, Tempo, 895522
1, 120116, Note_on_c, 0, 55, 0
1, 120116, Note_on_c, 0, 82, 0
1, 120116, Note_on_c, 0, 43, 0
1, 120117, Note_on_c, 0, 86, 0
1, 120117, Note_on_c, 0, 74, 0
1, 120120, Tempo, 827586
1, 120120, Note_on_c, 0, 82, 90
1, 120120, Note_on_c, 0, 86, 90
1, 120120, Note_on_c, 0, 94, 106
1, 120120, Note_on_c, 0, 31, 64
1, 120120, Note_on_c, 0, 43, 74
1, 120120, Control_c, 0, 64, 0
1, 120191, Control_c, 0, 64, 127
1, 120240, Tempo, 1000000
1, 120350, Note_on_c, 0, 43, 0
1, 120350, Note_on_c, 0, 94, 0
1, 120350, Note_on_c, 0, 82, 0
1, 120350, Note_on_c, 0, 86, 0
1, 120350, Note_on_c, 0, 31, 0
1, 120360, Tempo, 923077
1, 120360, Note_on_c, 0, 82, 87
1, 120360, Note_on_c, 0, 86, 87
1, 120360, Note_on_c, 0, 94, 102
1, 120360, Note_on_c, 0, 31, 64
1, 120360, Note_on_c, 0, 43, 77
1, 120480, Tempo, 1052632
1, 120480, Note_on_c, 0, 43, 0
1, 120480, Note_on_c, 0, 94, 0
1, 120480, Note_on_c, 0, 82, 0
1, 120480, Note_on_c, 0, 86, 0
1, 120480, Note_on_c, 0, 31, 0
1, 120480, Note_on_c, 0, 82, 78
1, 120480, Note_on_c, 0, 76, 78
1, 120480, Note_on_c, 0, 88, 92
1, 120480, Note_on_c, 0, 36, 63
1, 120480, Note_on_c, 0, 48, 74
1, 120480, Control_c, 0, 64, 0
1, 120551, Control_c, 0, 64, 127
1, 120588, Note_on_c, 0, 88, 0
1, 120600, Tempo, 1000000
1, 120600, Note_on_c, 0, 36, 0
1, 120600, Note_on_c, 0, 82, 0
1, 120600, Note_on_c, 0, 76, 0
1, 120600, Note_on_c, 0, 48, 0
1, 120720, Tempo, 923077
1, 120720, Note_on_c, 0, 82, 83
1, 120720, Note_on_c, 0, 76, 83
1, 120720, Note_on_c, 0, 88, 98
1, 120720, Note_on_c, 0, 36, 71
1, 120720, Note_on_c, 0, 48, 85
1, 120784, Control_c, 0, 64, 0
1, 120868, Control_c, 0, 64, 127
1, 121080, Tempo, 827586
1, 121080, Note_on_c, 0, 48, 0
1, 121080, Note_on_c, 0, 88, 0
1, 121080, Note_on_c, 0, 82, 0
1, 121080, Note_on_c, 0, 76, 0
1, 121080, Note_on_c, 0, 36, 0
1, 121080, Note_on_c, 0, 77, 90
1, 121080, Note_on_c, 0, 81, 90
1, 121080, Note_on_c, 0, 89, 106
1, 121080, Note_on_c, 0, 29, 64
1, 121080, Note_on_c, 0, 41, 74
1, 121080, Control_c, 0, 64, 0
1, 121151, Control_c, 0, 64, 127
1, 121200, Tempo, 1000000
1, 121310, Note_on_c, 0, 41, 0
1, 121310, Note_on_c, 0, 89, 0
1, 121310, Note_on_c, 0, 77, 0
1, 121310, Note_on_c, 0, 81, 0
1, 121310, Note_on_c, 0, 29, 0
1, 121320, Tempo, 923077
1, 121320, Note_on_c, 0, 77, 87
1, 121320, Note_on_c, 0, 81, 87
1, 121320, Note_on_c, 0, 89, 102
1, 121320, Note_on_c, 0, 29, 64
1, 121320, Note_on_c, 0, 41, 77
1, 121440, Tempo, 1034483
1, 121440, Note_on_c, 0, 41, 0
1, 121440, Note_on_c, 0, 89, 0
1, 121440, Note_on_c, 0, 77, 0
1, 121440, Note_on_c, 0, 81, 0
1, 121440, Note_on_c, 0, 29, 0
1, 121440, Note_on_c, 0, 69, 68
1, 121440, Note_on_c, 0, 65, 68
1, 121440, Note_on_c, 0, 77, 80
1, 121440, Note_on_c, 0, 41, 55
1, 121440, Note_on_c, 0, 48, 55
1, 121440, Note_on_c, 0, 53, 65
1, 121548, Note_on_c, 0, 77, 0
1, 121548, Note_on_c, 0, 65, 0
1, 121560, Tempo, 1000000
1, 121560, Note_on_c, 0, 41, 0
1, 121560, Note_on_c, 0, 69, 0
1, 121560, Note_on_c, 0, 53, 0
1, 121560, Note_on_c, 0, 48, 0
1, 121680, Tempo, 923077
1, 121680, Note_on_c, 0, 65, 73
1, 121680, Note_on_c, 0, 69, 73
1, 121680, Note_on_c, 0, 77, 86
1, 121680, Note_on_c, 0, 41, 62
1, 121680, Note_on_c, 0, 48, 62
1, 121680, Note_on_c, 0, 53, 74
1, 121920, Tempo, 1699717
1, 122035, Note_on_c, 0, 53, 0
1, 122035, Note_on_c, 0, 65, 0
1, 122035, Note_on_c, 0, 77, 0
1, 122035, Note_on_c, 0, 41, 0
1, 122035, Note_on_c, 0, 48, 0
1, 122040, Tempo, 1165049
1, 122040, Note_on_c, 0, 69, 0
1, 122040, Note_on_c, 0, 69, 47
1, 122040, Note_on_c, 0, 65, 47
1, 122040, Note_on_c, 0, 77, 56
1, 122040, Note_on_c, 0, 53, 38
1, 122040, Note_on_c, 0, 60, 45
1, 122040, Control_c, 0, 64, 0
1, 122111, Control_c, 0, 64, 127
1, 122160, Tempo, 1100917
1, 122270, Note_on_c, 0, 60, 0
1, 122270, Note_on_c, 0, 77, 0
1, 122270, Note_on_c, 0, 69, 0
1, 122270, Note_on_c, 0, 65, 0
1, 122270, Note_on_c, 0, 53, 0
1, 122280, Tempo, 1200000
1, 122280, Note_on_c, 0, 65, 51
1, 122280, Note_on_c, 0, 69, 51
1, 122280, Note_on_c, 0, 77, 60
1, 122280, Note_on_c, 0, 51, 43
1, 122280, Note_on_c, 0, 60, 51
1, 122396, Note_on_c, 0, 60, 0
1, 122400, Tempo, 1158301
1, 122400, Note_on_c, 0, 77, 0
1, 122400, Note_on_c, 0, 65, 0
1, 122400, Note_on_c, 0, 69, 0
1, 122400, Note_on_c, 0, 51, 0
1, 122400, Note_on_c, 0, 69, 47
1, 122400, Note_on_c, 0, 66, 47
1, 122400, Note_on_c, 0, 78, 56
1, 122400, Note_on_c, 0, 50, 38
1, 122400, Note_on_c, 0, 60, 45
1, 122400, Control_c, 0, 64, 0
1, 122471, Control_c, 0, 64, 127
1, 122508, Note_on_c, 0, 78, 0
1, 122508, Note_on_c, 0, 66, 0
1, 122520, Tempo, 1047120
1, 122520, Note_on_c, 0, 69, 0
1, 122520, Note_on_c, 0, 50, 0
1, 122520, Note_on_c, 0, 60, 0
1, 122640, Tempo, 937500
1, 122640, Note_on_c, 0, 66, 51
1, 122640, Note_on_c, 0, 69, 51
1, 122640, Note_on_c, 0, 78, 60
1, 122640, Note_on_c, 0, 50, 43
1, 122640, Note_on_c, 0, 60, 51
1, 122995, Note_on_c, 0, 60, 0
1, 122995, Note_on_c, 0, 78, 0
1, 122995, Note_on_c, 0, 50, 0
1, 122995, Note_on_c, 0, 66, 0
1, 123000, Note_on_c, 0, 69, 0
1, 123000, Note_on_c, 0, 69, 40
1, 123000, Note_on_c, 0, 78, 48
1, 123000, Note_on_c, 0, 66, 40
1, 123008, Control_c, 0, 64, 0
1, 123086, Control_c, 0, 64, 127
1, 123120, Tempo, 902256
1, 123120, Note_on_c, 0, 66, 0
1, 123120, Note_on_c, 0, 78, 0
1, 123120, Note_on_c, 0, 69, 0
1, 123120, Note_on_c, 0, 69, 44
1, 123120, Note_on_c, 0, 72, 44
1, 123120, Note_on_c, 0, 81, 52
1, 123240, Note_on_c, 0, 81, 0
1, 123240, Note_on_c, 0, 72, 0
1, 123240, Note_on_c, 0, 69, 0
1, 123240, Note_on_c, 0, 67, 40
1, 123240, Note_on_c, 0, 70, 40
1, 123240, Note_on_c, 0, 79, 48
1, 123360, Tempo, 869565
1, 123360, Note_on_c, 0, 79, 0
1, 123360, Note_on_c, 0, 70, 0
1, 123360, Note_on_c, 0, 67, 0
1, 123360, Note_on_c, 0, 66, 44
1, 123360, Note_on_c, 0, 69, 44
1, 123360, Note_on_c, 0, 78, 52
1, 123368, Control_c, 0, 64, 0
1, 123417, Control_c, 0, 64, 127
1, 123480, Note_on_c, 0, 78, 0
1, 123480, Note_on_c, 0, 69, 0
1, 123480, Note_on_c, 0, 66, 0
1, 123480, Note_on_c, 0, 67, 39
1, 123480, Note_on_c, 0, 70, 39
1, 123480, Note_on_c, 0, 79, 47
1, 123600, Note_on_c, 0, 79, 0
1, 123600, Note_on_c, 0, 70, 0
1, 123600, Note_on_c, 0, 67, 0
1, 123600, Note_on_c, 0, 66, 39
1, 123600, Note_on_c, 0, 69, 39
1, 123600, Note_on_c, 0, 78, 47
1, 123720, Tempo, 967742
1, 123720, Note_on_c, 0, 78, 0
1, 123720, Note_on_c, 0, 69, 0
1, 123720, Note_on_c, 0, 66, 0
1, 123720, Note_on_c, 0, 63, 37
1, 123720, Note_on_c, 0, 67, 37
1, 123720, Note_on_c, 0, 75, 45
1, 123720, Note_on_c, 0, 48, 38
1, 123720, Note_on_c, 0, 57, 38
1, 123840, Tempo, 1142857
1, 123840, Note_on_c, 0, 57, 0
1, 123840, Note_on_c, 0, 75, 0
1, 123840, Note_on_c, 0, 63, 0
1, 123840, Note_on_c, 0, 67, 0
1, 123840, Note_on_c, 0, 48, 0
1, 123840, Note_on_c, 0, 66, 39
1, 123840, Note_on_c, 0, 62, 39
1, 123840, Note_on_c, 0, 74, 46
1, 123840, Note_on_c, 0, 50, 33
1, 123840, Note_on_c, 0, 60, 39
1, 123847, Control_c, 0, 64, 0
1, 123909, Control_c, 0, 64, 127
1, 123948, Note_on_c, 0, 74, 0
1, 123948, Note_on_c, 0, 62, 0
1, 123960, Note_on_c, 0, 66, 0
1, 123960, Note_on_c, 0, 50, 0
1, 123960, Note_on_c, 0, 60, 0
1, 124080, Note_on_c, 0, 62, 42
1, 124080, Note_on_c, 0, 66, 42
1, 124080, Note_on_c, 0, 74, 51
1, 124080, Note_on_c, 0, 50, 36
1, 124080, Note_on_c, 0, 60, 42
1, 124320, Tempo, 1699717
1, 124435, Note_on_c, 0, 60, 0
1, 124435, Note_on_c, 0, 74, 0
1, 124435, Note_on_c, 0, 50, 0
1, 124435, Note_on_c, 0, 62, 0
1, 124440, Tempo, 1034483
1, 124440, Note_on_c, 0, 66, 0
1, 124440, Note_on_c, 0, 69, 40
1, 124440, Note_on_c, 0, 78, 48
1, 124440, Note_on_c, 0, 66, 40
1, 124450, Control_c, 0, 64, 0
1, 124560, Tempo, 967742
1, 124560, Note_on_c, 0, 66, 0
1, 124560, Note_on_c, 0, 78, 0
1, 124560, Note_on_c, 0, 69, 0
1, 124560, Note_on_c, 0, 69, 44
1, 124560, Note_on_c, 0, 72, 44
1, 124560, Note_on_c, 0, 81, 52
1, 124572, Control_c, 0, 64, 127
1, 124680, Note_on_c, 0, 81, 0
1, 124680, Note_on_c, 0, 72, 0
1, 124680, Note_on_c, 0, 69, 0
1, 124680, Note_on_c, 0, 67, 40
1, 124680, Note_on_c, 0, 70, 40
1, 124680, Note_on_c, 0, 79, 48
1, 124800, Tempo, 916031
1, 124800, Note_on_c, 0, 79, 0
1, 124800, Note_on_c, 0, 70, 0
1, 124800, Note_on_c, 0, 67, 0
1, 124800, Note_on_c, 0, 66, 44
1, 124800, Note_on_c, 0, 69, 44
1, 124800, Note_on_c, 0, 78, 52
1, 124808, Control_c, 0, 64, 0
1, 124857, Control_c, 0, 64, 127
1, 124920, Note_on_c, 0, 78, 0
1, 124920, Note_on_c, 0, 69, 0
1, 124920, Note_on_c, 0, 66, 0
1, 124920, Note_on_c, 0, 67, 39
1, 124920, Note_on_c, 0, 70, 39
1, 124920, Note_on_c, 0, 79, 47
1, 125040, Note_on_c, 0, 79, 0
1, 125040, Note_on_c, 0, 70, 0
1, 125040, Note_on_c, 0, 67, 0
1, 125040, Note_on_c, 0, 66, 39
1, 125040, Note_on_c, 0, 69, 39
1, 125040, Note_on_c, 0, 78, 47
1, 125160, Tempo, 1016949
1, 125160, Note_on_c, 0, 78, 0
1, 125160, Note_on_c, 0, 69, 0
1, 125160, Note_on_c, 0, 66, 0
1, 125160, Note_on_c, 0, 63, 37
1, 125160, Note_on_c, 0, 67, 37
1, 125160, Note_on_c, 0, 75, 45
1, 125160, Note_on_c, 0, 48, 38
1, 125160, Note_on_c, 0, 57, 38
1, 125280, Tempo, 1142857
1, 125280, Note_on_c, 0, 57, 0
1, 125280, Note_on_c, 0, 75, 0
1, 125280, Note_on_c, 0, 63, 0
1, 125280, Note_on_c, 0, 67, 0
1, 125280, Note_on_c, 0, 48, 0
1, 125280, Note_on_c, 0, 66, 39
1, 125280, Note_on_c, 0, 62, 39
1, 125280, Note_on_c, 0, 74, 46
1, 125280, Note_on_c, 0, 50, 33
1, 125280, Note_on_c, 0, 60, 39
1, 125287, Control_c, 0, 64, 0
1, 125349, Control_c, 0, 64, 127
1, 125388, Note_on_c, 0, 74, 0
1, 125388, Note_on_c, 0, 62, 0
1, 125400, Note_on_c, 0, 66, 0
1, 125400, Note_on_c, 0, 50, 0
1, 125400, Note_on_c, 0, 60, 0
1, 125520, Note_on_c, 0, 62, 42
1, 125520, Note_on_c, 0, 66, 42
1, 125520, Note_on_c, 0, 74, 51
1, 125520, Note_on_c, 0, 50, 36
1, 125520, Note_on_c, 0, 60, 42
1, 125875, Note_on_c, 0, 60, 0
1, 125875, Note_on_c, 0, 74, 0
1, 125875, Note_on_c, 0, 50, 0
1, 125875, Note_on_c, 0, 62, 0
1, 125880, Tempo, 967742
1, 125880, Note_on_c, 0, 66, 0
1, 125880, Note_on_c, 0, 66, 44
1, 125880, Note_on_c, 0, 62, 44
1, 125880, Note_on_c, 0, 74, 52
1, 125880, Note_on_c, 0, 50, 37
1, 125880, Note_on_c, 0, 60, 44
1, 126100, Note_on_c, 0, 60, 0
1, 126100, Note_on_c, 0, 74, 0
1, 126100, Note_on_c, 0, 66, 0
1, 126100, Note_on_c, 0, 62, 0
1, 126100, Note_on_c, 0, 50, 0
1, 126120, Note_on_c, 0, 62, 39
1, 126120, Note_on_c, 0, 66, 39
1, 126120, Note_on_c, 0, 74, 47
1, 126120, Note_on_c, 0, 50, 33
1, 126120, Note_on_c, 0, 60, 39
1, 126230, Note_on_c, 0, 60, 0
1, 126230, Note_on_c, 0, 74, 0
1, 126230, Note_on_c, 0, 62, 0
1, 126230, Note_on_c, 0, 66, 0
1, 126230, Note_on_c, 0, 50, 0
1, 126240, Tempo, 1142857
1, 126240, Note_on_c, 0, 66, 44
1, 126240, Note_on_c, 0, 62, 44
1, 126240, Note_on_c, 0, 74, 52
1, 126240, Note_on_c, 0, 50, 37
1, 126240, Note_on_c, 0, 60, 44
1, 126348, Note_on_c, 0, 74, 0
1, 126348, Note_on_c, 0, 62, 0
1, 126360, Note_on_c, 0, 66, 0
1, 126360, Note_on_c, 0, 50, 0
1, 126360, Note_on_c, 0, 60, 0
1, 126480, Note_on_c, 0, 62, 39
1, 126480, Note_on_c, 0, 66, 39
1, 126480, Note_on_c, 0, 74, 47
1, 126480, Note_on_c, 0, 50, 33
1, 126480, Note_on_c, 0, 60, 39
1, 126835, Note_on_c, 0, 60, 0
1, 126835, Note_on_c, 0, 74, 0
1, 126835, Note_on_c, 0, 50, 0
1, 126835, Note_on_c, 0, 62, 0
1, 126840, Tempo, 967742
1, 126840, Note_on_c, 0, 66, 0
1, 126840, Note_on_c, 0, 66, 44
1, 126840, Note_on_c, 0, 63, 44
1, 126840, Note_on_c, 0, 75, 52
1, 126840, Note_on_c, 0, 47, 37
1, 126840, Note_on_c, 0, 57, 44
1, 126848, Control_c, 0, 64, 0
1, 126926, Control_c, 0, 64, 127
1, 126948, Note_on_c, 0, 75, 0
1, 126948, Note_on_c, 0, 63, 0
1, 126960, Note_on_c, 0, 66, 0
1, 126960, Note_on_c, 0, 47, 0
1, 126960, Note_on_c, 0, 57, 0
1, 127080, Note_on_c, 0, 63, 39
1, 127080, Note_on_c, 0, 66, 39
1, 127080, Note_on_c, 0, 75, 47
1, 127080, Note_on_c, 0, 47, 33
1, 127080, Note_on_c, 0, 57, 39
1, 127190, Note_on_c, 0, 57, 0
1, 127190, Note_on_c, 0, 75, 0
1, 127190, Note_on_c, 0, 63, 0
1, 127190, Note_on_c, 0, 66, 0
1, 127190, Note_on_c, 0, 47, 0
1, 127200, Tempo, 1212121
1, 127200, Note_on_c, 0, 66, 44
1, 127200, Note_on_c, 0, 63, 44
1, 127200, Note_on_c, 0, 75, 52
1, 127200, Note_on_c, 0, 47, 37
1, 127200, Note_on_c, 0, 57, 44
1, 127420, Note_on_c, 0, 57, 0
1, 127420, Note_on_c, 0, 75, 0
1, 127420, Note_on_c, 0, 66, 0
1, 127420, Note_on_c, 0, 63, 0
1, 127420, Note_on_c, 0, 47, 0
1, 127440, Note_on_c, 0, 63, 39
1, 127440, Note_on_c, 0, 66, 39
1, 127440, Note_on_c, 0, 75, 47
1, 127440, Note_on_c, 0, 47, 33
1, 127440, Note_on_c, 0, 57, 39
1, 127795, Note_on_c, 0, 57, 0
1, 127795, Note_on_c, 0, 75, 0
1, 127795, Note_on_c, 0, 47, 0
1, 127795, Note_on_c, 0, 63, 0
1, 127800, Tempo, 1043478
1, 127800, Note_on_c, 0, 66, 0
1, 127800, Note_on_c, 0, 78, 48
1, 127800, Note_on_c, 0, 75, 48
1, 127800, Note_on_c, 0, 87, 57
1, 127800, Note_on_c, 0, 46, 40
1, 127800, Note_on_c, 0, 58, 48
1, 127808, Control_c, 0, 64, 0
1, 127886, Control_c, 0, 64, 127
1, 127908, Note_on_c, 0, 87, 0
1, 127908, Note_on_c, 0, 75, 0
1, 127920, Note_on_c, 0, 78, 0
1, 127920, Note_on_c, 0, 46, 0
1, 127920, Note_on_c, 0, 58, 0
1, 128040, Note_on_c, 0, 75, 39
1, 128040, Note_on_c, 0, 78, 39
1, 128040, Note_on_c, 0, 87, 47
1, 128040, Note_on_c, 0, 46, 33
1, 128040, Note_on_c, 0, 58, 39
1, 128150, Note_on_c, 0, 58, 0
1, 128150, Note_on_c, 0, 87, 0
1, 128150, Note_on_c, 0, 75, 0
1, 128150, Note_on_c, 0, 78, 0
1, 128150, Note_on_c, 0, 46, 0
1, 128160, Tempo, 1318681
1, 128160, Note_on_c, 0, 78, 44
1, 128160, Note_on_c, 0, 75, 44
1, 128160, Note_on_c, 0, 87, 52
1, 128160, Note_on_c, 0, 46, 37
1, 128160, Note_on_c, 0, 58, 44
1, 128380, Note_on_c, 0, 58, 0
1, 128380, Note_on_c, 0, 87, 0
1, 128380, Note_on_c, 0, 78, 0
1, 128380, Note_on_c, 0, 75, 0
1, 128380, Note_on_c, 0, 46, 0
1, 128400, Note_on_c, 0, 75, 39
1, 128400, Note_on_c, 0, 78, 39
1, 128400, Note_on_c, 0, 87, 47
1, 128400, Note_on_c, 0, 46, 33
1, 128400, Note_on_c, 0, 58, 39
1, 128755, Note_on_c, 0, 58, 0
1, 128755, Note_on_c, 0, 87, 0
1, 128755, Note_on_c, 0, 46, 0
1, 128755, Note_on_c, 0, 75, 0
1, 128760, Tempo, 1100917
1, 128760, Note_on_c, 0, 78, 0
1, 128760, Note_on_c, 0, 64, 40
1, 128760, Note_on_c, 0, 61, 40
1, 128760, Note_on_c, 0, 73, 48
1, 128760, Note_on_c, 0, 45, 34
1, 128760, Note_on_c, 0, 55, 40
1, 128768, Control_c, 0, 64, 0
1, 128846, Control_c, 0, 64, 127
1, 128868, Note_on_c, 0, 73, 0
1, 128868, Note_on_c, 0, 61, 0
1, 128880, Note_on_c, 0, 64, 0
1, 128880, Note_on_c, 0, 45, 0
1, 128880, Note_on_c, 0, 55, 0
1, 129000, Note_on_c, 0, 61, 33
1, 129000, Note_on_c, 0, 64, 33
1, 129000, Note_on_c, 0, 73, 39
1, 129000, Note_on_c, 0, 45, 28
1, 129000, Note_on_c, 0, 55, 33
1, 129110, Note_on_c, 0, 55, 0
1, 129110, Note_on_c, 0, 73, 0
1, 129110, Note_on_c, 0, 61, 0
1, 129110, Note_on_c, 0, 64, 0
1, 129110, Note_on_c, 0, 45, 0
1, 129120, Tempo, 1379310
1, 129120, Note_on_c, 0, 64, 37
1, 129120, Note_on_c, 0, 61, 37
1, 129120, Note_on_c, 0, 73, 44
1, 129120, Note_on_c, 0, 45, 31
1, 129120, Note_on_c, 0, 55, 37
1, 129340, Note_on_c, 0, 55, 0
1, 129340, Note_on_c, 0, 73, 0
1, 129340, Note_on_c, 0, 64, 0
1, 129340, Note_on_c, 0, 61, 0
1, 129340, Note_on_c, 0, 45, 0
1, 129360, Note_on_c, 0, 61, 33
1, 129360, Note_on_c, 0, 64, 33
1, 129360, Note_on_c, 0, 73, 39
1, 129360, Note_on_c, 0, 45, 28
1, 129360, Note_on_c, 0, 55, 33
1, 129715, Note_on_c, 0, 55, 0
1, 129715, Note_on_c, 0, 73, 0
1, 129715, Note_on_c, 0, 45, 0
1, 129715, Note_on_c, 0, 61, 0
1, 129720, Tempo, 1121495
1, 129720, Note_on_c, 0, 64, 0
1, 129720, Note_on_c, 0, 77, 37
1, 129720, Note_on_c, 0, 73, 37
1, 129720, Note_on_c, 0, 85, 44
1, 129720, Note_on_c, 0, 44, 31
1, 129720, Note_on_c, 0, 56, 37
1, 129728, Control_c, 0, 64, 0
1, 129806, Control_c, 0, 64, 127
1, 129828, Note_on_c, 0, 85, 0
1, 129828, Note_on_c, 0, 73, 0
1, 129840, Note_on_c, 0, 77, 0
1, 129840, Note_on_c, 0, 44, 0
1, 129840, Note_on_c, 0, 56, 0
1, 129960, Note_on_c, 0, 73, 33
1, 129960, Note_on_c, 0, 77, 33
1, 129960, Note_on_c, 0, 85, 39
1, 129960, Note_on_c, 0, 44, 28
1, 129960, Note_on_c, 0, 56, 33
1, 130070, Note_on_c, 0, 56, 0
1, 130070, Note_on_c, 0, 85, 0
1, 130070, Note_on_c, 0, 73, 0
1, 130070, Note_on_c, 0, 77, 0
1, 130070, Note_on_c, 0, 44, 0
1, 130080, Tempo, 1621622
1, 130080, Note_on_c, 0, 77, 37
1, 130080, Note_on_c, 0, 73, 37
1, 130080, Note_on_c, 0, 85, 44
1, 130080, Note_on_c, 0, 44, 31
1, 130080, Note_on_c, 0, 56, 37
1, 130300, Note_on_c, 0, 56, 0
1, 130300, Note_on_c, 0, 85, 0
1, 130300, Note_on_c, 0, 77, 0
1, 130300, Note_on_c, 0, 73, 0
1, 130300, Note_on_c, 0, 44, 0
1, 130320, Note_on_c, 0, 73, 33
1, 130320, Note_on_c, 0, 77, 33
1, 130320, Note_on_c, 0, 85, 39
1, 130320, Note_on_c, 0, 44, 28
1, 130320, Note_on_c, 0, 56, 33
1, 130675, Note_on_c, 0, 56, 0
1, 130675, Note_on_c, 0, 85, 0
1, 130675, Note_on_c, 0, 44, 0
1, 130675, Note_on_c, 0, 73, 0
1, 130680, Tempo, 1263158
1, 130680, Note_on_c, 0, 77, 0
1, 130680, Note_on_c, 0, 62, 31
1, 130680, Note_on_c, 0, 59, 31
1, 130680, Note_on_c, 0, 71, 37
1, 130680, Note_on_c, 0, 43, 26
1, 130680, Note_on_c, 0, 53, 31
1, 130688, Control_c, 0, 64, 0
1, 130766, Control_c, 0, 64, 127
1, 130788, Note_on_c, 0, 71, 0
1, 130788, Note_on_c, 0, 59, 0
1, 130800, Note_on_c, 0, 62, 0
1, 130800, Note_on_c, 0, 43, 0
1, 130800, Note_on_c, 0, 53, 0
1, 130920, Note_on_c, 0, 59, 28
1, 130920, Note_on_c, 0, 62, 28
1, 130920, Note_on_c, 0, 71, 33
1, 130920, Note_on_c, 0, 43, 23
1, 130920, Note_on_c, 0, 53, 28
1, 131030, Note_on_c, 0, 53, 0
1, 131030, Note_on_c, 0, 71, 0
1, 131030, Note_on_c, 0, 59, 0
1, 131030, Note_on_c, 0, 62, 0
1, 131030, Note_on_c, 0, 43, 0
1, 131040, Tempo, 1558442
1, 131160, Note_on_c, 0, 75, 31
1, 131160, Note_on_c, 0, 71, 31
1, 131160, Note_on_c, 0, 83, 37
1, 131160, Note_on_c, 0, 42, 26
1, 131160, Note_on_c, 0, 54, 31
1, 131163, Control_c, 0, 64, 0
1, 131246, Control_c, 0, 64, 127
1, 131268, Note_on_c, 0, 83, 0
1, 131268, Note_on_c, 0, 71, 0
1, 131280, Note_on_c, 0, 75, 0
1, 131280, Note_on_c, 0, 42, 0
1, 131280, Note_on_c, 0, 54, 0
1, 131400, Note_on_c, 0, 71, 28
1, 131400, Note_on_c, 0, 75, 28
1, 131400, Note_on_c, 0, 83, 33
1, 131400, Note_on_c, 0, 42, 23
1, 131400, Note_on_c, 0, 54, 28
1, 131510, Note_on_c, 0, 54, 0
1, 131510, Note_on_c, 0, 83, 0
1, 131510, Note_on_c, 0, 71, 0
1, 131510, Note_on_c, 0, 75, 0
1, 131510, Note_on_c, 0, 42, 0
1, 131640, Note_on_c, 0, 60, 26
1, 131640, Note_on_c, 0, 57, 26
1, 131640, Note_on_c, 0, 69, 31
1, 131640, Note_on_c, 0, 41, 22
1, 131640, Note_on_c, 0, 51, 26
1, 131648, Control_c, 0, 64, 0
1, 131726, Control_c, 0, 64, 127
1, 131748, Note_on_c, 0, 69, 0
1, 131748, Note_on_c, 0, 57, 0
1, 131760, Note_on_c, 0, 60, 0
1, 131760, Note_on_c, 0, 41, 0
1, 131760, Note_on_c, 0, 51, 0
1, 131880, Note_on_c, 0, 57, 23
1, 131880, Note_on_c, 0, 60, 23
1, 131880, Note_on_c, 0, 69, 28
1, 131880, Note_on_c, 0, 41, 19
1, 131880, Note_on_c, 0, 51, 23
1, 131990, Note_on_c, 0, 51, 0
1, 131990, Note_on_c, 0, 69, 0
1, 131990, Note_on_c, 0, 57, 0
1, 131990, Note_on_c, 0, 60, 0
1, 131990, Note_on_c, 0, 41, 0
1, 132120, Note_on_c, 0, 73, 26
1, 132120, Note_on_c, 0, 69, 26
1, 132120, Note_on_c, 0, 81, 31
1, 132120, Note_on_c, 0, 40, 22
1, 132120, Note_on_c, 0, 52, 26
1, 132123, Control_c, 0, 64, 0
1, 132206, Control_c, 0, 64, 127
1, 132228, Note_on_c, 0, 81, 0
1, 132228, Note_on_c, 0, 69, 0
1, 132240, Note_on_c, 0, 73, 0
1, 132240, Note_on_c, 0, 40, 0
1, 132240, Note_on_c, 0, 52, 0
1, 132360, Note_on_c, 0, 69, 23
1, 132360, Note_on_c, 0, 73, 23
1, 132360, Note_on_c, 0, 81, 28
1, 132360, Note_on_c, 0, 40, 19
1, 132360, Note_on_c, 0, 52, 23
1, 132470, Note_on_c, 0, 52, 0
1, 132470, Note_on_c, 0, 81, 0
1, 132470, Note_on_c, 0, 69, 0
1, 132470, Note_on_c, 0, 73, 0
1, 132470, Note_on_c, 0, 40, 0
1, 132480, Control_c, 0, 64, 0
1, 132720, Note_on_c, 0, 59, 60
1, 132720, Note_on_c, 0, 62, 60
1, 132720, Note_on_c, 0, 65, 60
1, 132720, Note_on_c, 0, 69, 72
1, 132720, Note_on_c, 0, 40, 51
1, 132720, Note_on_c, 0, 52, 60
1, 132974, Control_c, 0, 64, 127
1, 133176, Note_on_c, 0, 52, 0
1, 133176, Note_on_c, 0, 62, 0
1, 133176, Note_on_c, 0, 65, 0
1, 133176, Note_on_c, 0, 59, 0
1, 133176, Note_on_c, 0, 40, 0
1, 133176, Note_on_c, 0, 69, 0
1, 133200, Note_on_c, 0, 59, 41
1, 133200, Note_on_c, 0, 62, 41
1, 133200, Note_on_c, 0, 65, 41
1, 133200, Note_on_c, 0, 69, 49
1, 133200, Note_on_c, 0, 40, 34
1, 133200, Note_on_c, 0, 52, 41
1, 133440, Tempo, 2000000
1, 133440, Note_on_c, 0, 52, 0
1, 133440, Note_on_c, 0, 62, 0
1, 133440, Note_on_c, 0, 65, 0
1, 133440, Note_on_c, 0, 59, 0
1, 133440, Note_on_c, 0, 40, 0
1, 133440, Note_on_c, 0, 69, 0
1, 133445, Control_c, 0, 64, 0
1, 133680, Note_on_c, 0, 59, 28
1, 133680, Note_on_c, 0, 62, 28
1, 133680, Note_on_c, 0, 64, 28
1, 133680, Note_on_c, 0, 68, 33
1, 133680, Note_on_c, 0, 40, 25
1, 133680, Note_on_c, 0, 52, 30
1, 133756, Control_c, 0, 64, 127
1, 134160, Note_on_c, 0, 52, 0
1, 134160, Note_on_c, 0, 62, 0
1, 134160, Note_on_c, 0, 64, 0
1, 134160, Note_on_c, 0, 59, 0
1, 134160, Note_on_c, 0, 40, 0
1, 134160, Note_on_c, 0, 68, 0
1, 134160, Note_on_c, 0, 59, 24
1, 134160, Note_on_c, 0, 62, 24
1, 134160, Note_on_c, 0, 64, 24
1, 134160, Note_on_c, 0, 68, 29
1, 134160, Note_on_c, 0, 40, 22
1, 134160, Note_on_c, 0, 52, 26
1, 134356, Control_c, 0, 64, 0
1, 134376, Note_on_c, 0, 52, 0
1, 134376, Note_on_c, 0, 62, 0
1, 134376, Note_on_c, 0, 64, 0
1, 134376, Note_on_c, 0, 59, 0
1, 134376, Note_on_c, 0, 40, 0
1, 134376, Note_on_c, 0, 68, 0
1, 134400, Tempo, 2926829
1, 134640, Tempo, 930233
1, 134640, Marker_t, "Teil 4"
1, 134640, Note_on_c, 0, 57, 39
1, 134640, Note_on_c, 0, 61, 39
1, 134640, Note_on_c, 0, 64, 46
1, 134700, Control_c, 0, 64, 127
1, 134760, Note_on_c, 0, 76, 52
1, 134850, Note_on_c, 0, 76, 0
1, 134856, Note_on_c, 0, 57, 0
1, 134880, Note_on_c, 0, 64, 0
1, 134880, Note_on_c, 0, 61, 0
1, 134880, Note_on_c, 0, 57, 42
1, 134880, Note_on_c, 0, 62, 42
1, 134880, Note_on_c, 0, 66, 50
1, 134889, Control_c, 0, 64, 0
1, 134955, Control_c, 0, 64, 127
1, 135000, Note_on_c, 0, 80, 52
1, 135060, Note_on_c, 0, 80, 0
1, 135060, Note_on_c, 0, 78, 46
1, 135096, Note_on_c, 0, 57, 0
1, 135096, Note_on_c, 0, 66, 0
1, 135096, Note_on_c, 0, 62, 0
1, 135120, Tempo, 902256
1, 135120, Note_on_c, 0, 78, 0
1, 135120, Note_on_c, 0, 57, 28
1, 135120, Note_on_c, 0, 60, 28
1, 135120, Note_on_c, 0, 63, 34
1, 135131, Control_c, 0, 64, 0
1, 135175, Control_c, 0, 64, 127
1, 135240, Tempo, 1016949
1, 135240, Note_on_c, 0, 76, 54
1, 135300, Note_on_c, 0, 76, 0
1, 135300, Note_on_c, 0, 75, 46
1, 135336, Note_on_c, 0, 57, 0
1, 135336, Note_on_c, 0, 63, 0
1, 135336, Note_on_c, 0, 60, 0
1, 135360, Tempo, 909091
1, 135360, Note_on_c, 0, 75, 0
1, 135360, Note_on_c, 0, 57, 37
1, 135360, Note_on_c, 0, 61, 37
1, 135360, Note_on_c, 0, 64, 44
1, 135360, Control_c, 0, 64, 0
1, 135480, Note_on_c, 0, 76, 50
1, 135520, Control_c, 0, 64, 127
1, 135720, Note_on_c, 0, 76, 0
1, 135720, Note_on_c, 0, 73, 54
1, 135840, Note_on_c, 0, 73, 0
1, 135840, Note_on_c, 0, 76, 55
1, 135960, Note_on_c, 0, 76, 0
1, 135960, Note_on_c, 0, 81, 55
1, 136050, Note_on_c, 0, 81, 0
1, 136070, Note_on_c, 0, 64, 0
1, 136070, Note_on_c, 0, 61, 0
1, 136080, Note_on_c, 0, 57, 0
1, 136080, Note_on_c, 0, 61, 42
1, 136080, Note_on_c, 0, 64, 42
1, 136080, Note_on_c, 0, 69, 55
1, 136088, Control_c, 0, 64, 0
1, 136200, Note_on_c, 0, 81, 61
1, 136217, Control_c, 0, 64, 127
1, 136290, Note_on_c, 0, 81, 0
1, 136310, Note_on_c, 0, 61, 0
1, 136310, Note_on_c, 0, 64, 0
1, 136320, Tempo, 851064
1, 136320, Note_on_c, 0, 69, 0
1, 136320, Note_on_c, 0, 61, 42
1, 136320, Note_on_c, 0, 64, 42
1, 136320, Note_on_c, 0, 71, 57
1, 136440, Tempo, 895522
1, 136440, Note_on_c, 0, 80, 65
1, 136530, Note_on_c, 0, 80, 0
1, 136550, Note_on_c, 0, 61, 0
1, 136560, Tempo, 902256
1, 136560, Note_on_c, 0, 71, 0
1, 136560, Note_on_c, 0, 64, 0
1, 136560, Note_on_c, 0, 61, 47
1, 136560, Note_on_c, 0, 64, 47
1, 136560, Note_on_c, 0, 73, 61
1, 136570, Control_c, 0, 64, 0
1, 136652, Control_c, 0, 64, 127
1, 136680, Tempo, 1052632
1, 136680, Note_on_c, 0, 81, 67
1, 136770, Note_on_c, 0, 81, 0
1, 136776, Note_on_c, 0, 61, 0
1, 136776, Note_on_c, 0, 64, 0
1, 136776, Note_on_c, 0, 73, 0
1, 136800, Tempo, 833333
1, 136800, Note_on_c, 0, 62, 38
1, 136800, Note_on_c, 0, 66, 45
1, 136800, Note_on_c, 0, 73, 58
1, 136800, Control_c, 0, 64, 0
1, 136886, Control_c, 0, 64, 127
1, 136920, Tempo, 863309
1, 137040, Tempo, 902256
1, 137040, Note_on_c, 0, 82, 69
1, 137280, Tempo, 944882
1, 137280, Note_on_c, 0, 73, 0
1, 137280, Note_on_c, 0, 71, 44
1, 137289, Control_c, 0, 64, 0
1, 137355, Control_c, 0, 64, 127
1, 137400, Note_on_c, 0, 82, 0
1, 137400, Note_on_c, 0, 83, 63
1, 137520, Tempo, 863309
1, 137520, Note_on_c, 0, 83, 0
1, 137520, Note_on_c, 0, 71, 0
1, 137520, Note_on_c, 0, 66, 0
1, 137520, Note_on_c, 0, 62, 0
1, 137520, Note_on_c, 0, 61, 40
1, 137520, Note_on_c, 0, 64, 40
1, 137520, Note_on_c, 0, 69, 56
1, 137535, Control_c, 0, 64, 0
1, 137612, Control_c, 0, 64, 127
1, 137640, Note_on_c, 0, 85, 64
1, 137730, Note_on_c, 0, 85, 0
1, 137760, Tempo, 888889
1, 137760, Note_on_c, 0, 61, 0
1, 137760, Note_on_c, 0, 64, 0
1, 137760, Note_on_c, 0, 69, 0
1, 137760, Note_on_c, 0, 59, 40
1, 137760, Note_on_c, 0, 62, 40
1, 137760, Note_on_c, 0, 68, 51
1, 137773, Control_c, 0, 64, 0
1, 137880, Note_on_c, 0, 86, 72
1, 137886, Control_c, 0, 64, 127
1, 137970, Note_on_c, 0, 86, 0
1, 138000, Tempo, 902256
1, 138000, Note_on_c, 0, 59, 0
1, 138000, Note_on_c, 0, 62, 0
1, 138000, Note_on_c, 0, 68, 0
1, 138000, Note_on_c, 0, 57, 37
1, 138000, Note_on_c, 0, 61, 37
1, 138000, Note_on_c, 0, 66, 48
1, 138015, Control_c, 0, 64, 0
1, 138103, Control_c, 0, 64, 127
1, 138120, Tempo, 960000
1, 138120, Note_on_c, 0, 87, 78
1, 138210, Note_on_c, 0, 87, 0
1, 138216, Note_on_c, 0, 66, 0
1, 138216, Note_on_c, 0, 61, 0
1, 138240, Tempo, 810811
1, 138240, Note_on_c, 0, 57, 0
1, 138240, Note_on_c, 0, 59, 42
1, 138240, Note_on_c, 0, 56, 42
1, 138240, Note_on_c, 0, 64, 50
1, 138246, Control_c, 0, 64, 0
1, 138294, Control_c, 0, 64, 127
1, 138480, Tempo, 851064
1, 138480, Note_on_c, 0, 88, 77
1, 138600, Note_on_c, 0, 59, 0
1, 138600, Note_on_c, 0, 61, 42
1, 138720, Note_on_c, 0, 61, 0
1, 138720, Note_on_c, 0, 62, 42
1, 138840, Note_on_c, 0, 88, 0
1, 138840, Note_on_c, 0, 90, 68
1, 138950, Note_on_c, 0, 56, 0
1, 138950, Note_on_c, 0, 64, 0
1, 138960, Tempo, 916031
1, 138960, Note_on_c, 0, 62, 0
1, 138960, Note_on_c, 0, 90, 0
1, 138960, Note_on_c, 0, 56, 42
1, 138960, Note_on_c, 0, 62, 42
1, 138960, Note_on_c, 0, 64, 50
1, 138969, Control_c, 0, 64, 0
1, 139014, Control_c, 0, 64, 127
1, 139070, Note_on_c, 0, 64, 0
1, 139070, Note_on_c, 0, 56, 0
1, 139080, Tempo, 863309
1, 139080, Note_on_c, 0, 62, 0
1, 139080, Note_on_c, 0, 88, 71
1, 139080, Note_on_c, 0, 66, 40
1, 139140, Note_on_c, 0, 66, 0
1, 139140, Note_on_c, 0, 68, 40
1, 139170, Note_on_c, 0, 88, 0
1, 139200, Tempo, 909091
1, 139200, Note_on_c, 0, 68, 0
1, 139200, Note_on_c, 0, 56, 42
1, 139200, Note_on_c, 0, 62, 42
1, 139200, Note_on_c, 0, 66, 50
1, 139214, Control_c, 0, 64, 0
1, 139292, Control_c, 0, 64, 127
1, 139320, Note_on_c, 0, 86, 66
1, 139410, Note_on_c, 0, 86, 0
1, 139416, Note_on_c, 0, 56, 0
1, 139416, Note_on_c, 0, 62, 0
1, 139416, Note_on_c, 0, 66, 0
1, 139440, Tempo, 930233
1, 139440, Note_on_c, 0, 56, 35
1, 139440, Note_on_c, 0, 62, 35
1, 139440, Note_on_c, 0, 64, 42
1, 139455, Control_c, 0, 64, 0
1, 139500, Control_c, 0, 64, 127
1, 139560, Tempo, 1081081
1, 139560, Note_on_c, 0, 83, 62
1, 139650, Note_on_c, 0, 83, 0
1, 139656, Note_on_c, 0, 56, 0
1, 139656, Note_on_c, 0, 62, 0
1, 139656, Note_on_c, 0, 64, 0
1, 139680, Tempo, 902256
1, 139680, Note_on_c, 0, 81, 62
1, 139680, Note_on_c, 0, 57, 42
1, 139680, Note_on_c, 0, 62, 42
1, 139680, Note_on_c, 0, 66, 50
1, 139680, Control_c, 0, 64, 0
1, 139800, Tempo, 1621622
1, 139800, Note_on_c, 0, 81, 0
1, 139800, Note_on_c, 0, 93, 75
1, 139817, Control_c, 0, 64, 127
1, 139945, Tempo, 1000000
1, 139964, Tempo, 1008403
1, 139980, Note_on_c, 0, 93, 0
1, 139980, Note_on_c, 0, 92, 54
1, 139983, Tempo, 1025641
1, 140003, Tempo, 1034483
1, 140010, Note_on_c, 0, 92, 0
1, 140010, Note_on_c, 0, 90, 53
1, 140022, Tempo, 1043478
1, 140040, Tempo, 1025641
1, 140040, Note_on_c, 0, 90, 0
1, 140040, Note_on_c, 0, 88, 51
1, 140041, Tempo, 1052632
1, 140060, Tempo, 1071429
1, 140070, Note_on_c, 0, 88, 0
1, 140070, Note_on_c, 0, 86, 50
1, 140079, Tempo, 1081081
1, 140099, Tempo, 1090909
1, 140100, Note_on_c, 0, 86, 0
1, 140100, Note_on_c, 0, 85, 48
1, 140118, Tempo, 1111111
1, 140130, Note_on_c, 0, 85, 0
1, 140130, Note_on_c, 0, 83, 46
1, 140160, Tempo, 1016949
1, 140160, Note_on_c, 0, 83, 0
1, 140160, Note_on_c, 0, 66, 0
1, 140160, Note_on_c, 0, 62, 0
1, 140160, Note_on_c, 0, 81, 53
1, 140160, Note_on_c, 0, 61, 37
1, 140160, Note_on_c, 0, 64, 44
1, 140174, Control_c, 0, 64, 0
1, 140250, Note_on_c, 0, 81, 0
1, 140390, Note_on_c, 0, 57, 0
1, 140390, Note_on_c, 0, 61, 0
1, 140390, Note_on_c, 0, 64, 0
1, 140400, Tempo, 930233
1, 140400, Note_on_c, 0, 57, 48
1, 140400, Note_on_c, 0, 61, 57
1, 140460, Control_c, 0, 64, 127
1, 140520, Note_on_c, 0, 76, 62
1, 140610, Note_on_c, 0, 76, 0
1, 140640, Tempo, 916031
1, 140640, Note_on_c, 0, 61, 0
1, 140640, Note_on_c, 0, 57, 0
1, 140640, Note_on_c, 0, 57, 52
1, 140640, Note_on_c, 0, 62, 52
1, 140640, Note_on_c, 0, 66, 62
1, 140649, Control_c, 0, 64, 0
1, 140715, Control_c, 0, 64, 127
1, 140760, Tempo, 895522
1, 140760, Note_on_c, 0, 80, 62
1, 140820, Note_on_c, 0, 80, 0
1, 140820, Note_on_c, 0, 78, 59
1, 140856, Note_on_c, 0, 57, 0
1, 140856, Note_on_c, 0, 66, 0
1, 140856, Note_on_c, 0, 62, 0
1, 140880, Tempo, 895522
1, 140880, Note_on_c, 0, 78, 0
1, 140880, Note_on_c, 0, 57, 37
1, 140880, Note_on_c, 0, 60, 37
1, 140880, Note_on_c, 0, 63, 45
1, 140894, Control_c, 0, 64, 0
1, 140949, Control_c, 0, 64, 127
1, 141000, Tempo, 1081081
1, 141000, Note_on_c, 0, 76, 62
1, 141060, Note_on_c, 0, 76, 0
1, 141060, Note_on_c, 0, 75, 57
1, 141096, Note_on_c, 0, 57, 0
1, 141096, Note_on_c, 0, 63, 0
1, 141096, Note_on_c, 0, 60, 0
1, 141120, Tempo, 895522
1, 141120, Note_on_c, 0, 75, 0
1, 141120, Note_on_c, 0, 57, 43
1, 141120, Note_on_c, 0, 61, 43
1, 141120, Note_on_c, 0, 64, 53
1, 141124, Control_c, 0, 64, 0
1, 141223, Control_c, 0, 64, 127
1, 141240, Note_on_c, 0, 76, 66
1, 141480, Tempo, 937500
1, 141480, Note_on_c, 0, 76, 0
1, 141480, Note_on_c, 0, 73, 66
1, 141600, Tempo, 916031
1, 141600, Note_on_c, 0, 73, 0
1, 141600, Note_on_c, 0, 76, 69
1, 141720, Tempo, 895522
1, 141720, Note_on_c, 0, 76, 0
1, 141720, Note_on_c, 0, 81, 66
1, 141810, Note_on_c, 0, 81, 0
1, 141830, Note_on_c, 0, 64, 0
1, 141830, Note_on_c, 0, 61, 0
1, 141840, Note_on_c, 0, 57, 0
1, 141840, Note_on_c, 0, 57, 53
1, 141840, Note_on_c, 0, 61, 62
1, 141848, Control_c, 0, 64, 0
1, 141960, Note_on_c, 0, 81, 75
1, 141977, Control_c, 0, 64, 127
1, 142050, Note_on_c, 0, 81, 0
1, 142070, Note_on_c, 0, 61, 0
1, 142070, Note_on_c, 0, 57, 0
1, 142080, Tempo, 857143
1, 142080, Note_on_c, 0, 57, 62
1, 142080, Note_on_c, 0, 61, 62
1, 142080, Note_on_c, 0, 64, 70
1, 142200, Note_on_c, 0, 85, 81
1, 142290, Note_on_c, 0, 85, 0
1, 142310, Note_on_c, 0, 57, 0
1, 142310, Note_on_c, 0, 61, 0
1, 142320, Tempo, 916031
1, 142320, Note_on_c, 0, 64, 0
1, 142320, Note_on_c, 0, 61, 56
1, 142320, Note_on_c, 0, 57, 56
1, 142320, Note_on_c, 0, 63, 56
1, 142320, Note_on_c, 0, 66, 67
1, 142330, Control_c, 0, 64, 0
1, 142400, Control_c, 0, 64, 127
1, 142440, Tempo, 1061947
1, 142440, Note_on_c, 0, 87, 85
1, 142530, Note_on_c, 0, 87, 0
1, 142536, Note_on_c, 0, 63, 0
1, 142536, Note_on_c, 0, 61, 0
1, 142536, Note_on_c, 0, 57, 0
1, 142536, Note_on_c, 0, 66, 0
1, 142560, Tempo, 916031
1, 142560, Note_on_c, 0, 64, 60
1, 142560, Note_on_c, 0, 56, 60
1, 142560, Note_on_c, 0, 61, 60
1, 142560, Note_on_c, 0, 68, 71
1, 142565, Control_c, 0, 64, 0
1, 142629, Control_c, 0, 64, 127
1, 142680, Note_on_c, 0, 88, 80
1, 142800, Tempo, 960000
1, 142920, Tempo, 975610
1, 142920, Note_on_c, 0, 88, 0
1, 142920, Note_on_c, 0, 90, 76
1, 143040, Tempo, 1052632
1, 143040, Note_on_c, 0, 90, 0
1, 143040, Note_on_c, 0, 92, 82
1, 143160, Tempo, 1132075
1, 143160, Note_on_c, 0, 92, 0
1, 143160, Note_on_c, 0, 97, 75
1, 143250, Note_on_c, 0, 97, 0
1, 143270, Note_on_c, 0, 68, 0
1, 143270, Note_on_c, 0, 61, 0
1, 143270, Note_on_c, 0, 64, 0
1, 143280, Tempo, 895522
1, 143280, Note_on_c, 0, 56, 0
1, 143280, Note_on_c, 0, 56, 32
1, 143280, Note_on_c, 0, 64, 32
1, 143280, Note_on_c, 0, 68, 44
1, 143285, Control_c, 0, 64, 0
1, 143388, Control_c, 0, 64, 127
1, 143400, Note_on_c, 0, 85, 62
1, 143460, Note_on_c, 0, 85, 0
1, 143460, Note_on_c, 0, 88, 56
1, 143510, Note_on_c, 0, 64, 0
1, 143520, Tempo, 937500
1, 143520, Note_on_c, 0, 56, 0
1, 143520, Note_on_c, 0, 68, 0
1, 143520, Note_on_c, 0, 88, 0
1, 143520, Note_on_c, 0, 56, 32
1, 143520, Note_on_c, 0, 66, 32
1, 143520, Note_on_c, 0, 68, 40
1, 143533, Control_c, 0, 64, 0
1, 143620, Control_c, 0, 64, 127
1, 143640, Note_on_c, 0, 88, 62
1, 143700, Note_on_c, 0, 88, 0
1, 143700, Note_on_c, 0, 87, 57
1, 143750, Note_on_c, 0, 56, 0
1, 143750, Note_on_c, 0, 66, 0
1, 143760, Tempo, 991736
1, 143760, Note_on_c, 0, 68, 0
1, 143760, Note_on_c, 0, 87, 0
1, 143760, Note_on_c, 0, 56, 29
1, 143760, Note_on_c, 0, 63, 29
1, 143760, Note_on_c, 0, 68, 38
1, 143880, Note_on_c, 0, 87, 62
1, 143940, Note_on_c, 0, 87, 0
1, 143940, Note_on_c, 0, 80, 56
1, 143976, Note_on_c, 0, 56, 0
1, 143976, Note_on_c, 0, 68, 0
1, 143976, Note_on_c, 0, 63, 0
1, 144000, Tempo, 895522
1, 144000, Note_on_c, 0, 80, 0
1, 144000, Note_on_c, 0, 64, 33
1, 144000, Note_on_c, 0, 61, 33
1, 144000, Note_on_c, 0, 68, 44
1, 144008, Control_c, 0, 64, 0
1, 144120, Tempo, 1090909
1, 144120, Note_on_c, 0, 80, 62
1, 144164, Control_c, 0, 64, 127
1, 144240, Tempo, 975610
1, 144300, Note_on_c, 0, 80, 0
1, 144300, Note_on_c, 0, 81, 57
1, 144360, Note_on_c, 0, 81, 0
1, 144360, Note_on_c, 0, 83, 59
1, 144420, Note_on_c, 0, 83, 0
1, 144420, Note_on_c, 0, 84, 60
1, 144480, Tempo, 888889
1, 144480, Note_on_c, 0, 84, 0
1, 144480, Note_on_c, 0, 85, 62
1, 144570, Note_on_c, 0, 85, 0
1, 144600, Note_on_c, 0, 85, 62
1, 144690, Note_on_c, 0, 85, 0
1, 144710, Note_on_c, 0, 68, 0
1, 144710, Note_on_c, 0, 61, 0
1, 144720, Tempo, 937500
1, 144720, Note_on_c, 0, 64, 0
1, 144720, Note_on_c, 0, 52, 33
1, 144720, Note_on_c, 0, 61, 33
1, 144720, Note_on_c, 0, 64, 40
1, 144729, Control_c, 0, 64, 0
1, 144790, Control_c, 0, 64, 127
1, 144840, Note_on_c, 0, 93, 62
1, 144900, Note_on_c, 0, 93, 0
1, 144900, Note_on_c, 0, 97, 57
1, 144950, Note_on_c, 0, 61, 0
1, 144960, Tempo, 975610
1, 144960, Note_on_c, 0, 52, 0
1, 144960, Note_on_c, 0, 64, 0
1, 144960, Note_on_c, 0, 97, 0
1, 144960, Note_on_c, 0, 52, 33
1, 144960, Note_on_c, 0, 62, 33
1, 144960, Note_on_c, 0, 64, 40
1, 144974, Control_c, 0, 64, 0
1, 145061, Control_c, 0, 64, 127
1, 145080, Note_on_c, 0, 97, 62
1, 145140, Note_on_c, 0, 97, 0
1, 145140, Note_on_c, 0, 95, 57
1, 145176, Note_on_c, 0, 64, 0
1, 145176, Note_on_c, 0, 62, 0
1, 145200, Tempo, 983607
1, 145200, Note_on_c, 0, 52, 0
1, 145200, Note_on_c, 0, 95, 0
1, 145200, Note_on_c, 0, 52, 28
1, 145200, Note_on_c, 0, 59, 28
1, 145200, Note_on_c, 0, 64, 33
1, 145320, Tempo, 1188119
1, 145320, Note_on_c, 0, 95, 62
1, 145380, Note_on_c, 0, 95, 0
1, 145380, Note_on_c, 0, 88, 57
1, 145416, Note_on_c, 0, 52, 0
1, 145416, Note_on_c, 0, 64, 0
1, 145416, Note_on_c, 0, 59, 0
1, 145440, Tempo, 975610
1, 145440, Note_on_c, 0, 88, 0
1, 145440, Note_on_c, 0, 57, 33
1, 145440, Note_on_c, 0, 61, 33
1, 145440, Note_on_c, 0, 64, 40
1, 145440, Control_c, 0, 64, 0
1, 145526, Control_c, 0, 64, 127
1, 145560, Note_on_c, 0, 88, 62
1, 145680, Tempo, 1061947
1, 145740, Note_on_c, 0, 88, 0
1, 145740, Note_on_c, 0, 90, 56
1, 145800, Note_on_c, 0, 90, 0
1, 145800, Note_on_c, 0, 91, 58
1, 145860, Note_on_c, 0, 91, 0
1, 145860, Note_on_c, 0, 92, 60
1, 145920, Tempo, 991736
1, 145920, Note_on_c, 0, 92, 0
1, 145920, Note_on_c, 0, 93, 62
1, 146029, Control_c, 0, 64, 0
1, 146040, Note_on_c, 0, 93, 0
1, 146160, Tempo, 967742
1, 146160, Note_on_c, 0, 57, 0
1, 146160, Note_on_c, 0, 61, 0
1, 146160, Note_on_c, 0, 64, 0
1, 146160, Note_on_c, 0, 81, 44
1, 146160, Note_on_c, 0, 73, 44
1, 146160, Note_on_c, 0, 76, 52
1, 146220, Control_c, 0, 64, 127
1, 146280, Note_on_c, 0, 71, 52
1, 146370, Note_on_c, 0, 71, 0
1, 146400, Tempo, 944882
1, 146400, Note_on_c, 0, 81, 0
1, 146400, Note_on_c, 0, 73, 0
1, 146400, Note_on_c, 0, 76, 0
1, 146400, Note_on_c, 0, 81, 48
1, 146400, Note_on_c, 0, 74, 48
1, 146400, Note_on_c, 0, 78, 57
1, 146409, Control_c, 0, 64, 0
1, 146475, Control_c, 0, 64, 127
1, 146520, Note_on_c, 0, 69, 48
1, 146610, Note_on_c, 0, 69, 0
1, 146616, Note_on_c, 0, 78, 0
1, 146616, Note_on_c, 0, 74, 0
1, 146640, Tempo, 944882
1, 146640, Note_on_c, 0, 81, 0
1, 146640, Note_on_c, 0, 81, 39
1, 146640, Note_on_c, 0, 72, 39
1, 146640, Note_on_c, 0, 75, 46
1, 146651, Control_c, 0, 64, 0
1, 146695, Control_c, 0, 64, 127
1, 146760, Tempo, 1025641
1, 146760, Note_on_c, 0, 66, 52
1, 146850, Note_on_c, 0, 66, 0
1, 146856, Note_on_c, 0, 75, 0
1, 146856, Note_on_c, 0, 72, 0
1, 146880, Tempo, 923077
1, 146880, Note_on_c, 0, 81, 0
1, 146880, Note_on_c, 0, 81, 44
1, 146880, Note_on_c, 0, 73, 44
1, 146880, Note_on_c, 0, 76, 54
1, 146880, Control_c, 0, 64, 0
1, 147000, Note_on_c, 0, 64, 54
1, 147040, Control_c, 0, 64, 127
1, 147120, Tempo, 895522
1, 147180, Note_on_c, 0, 64, 0
1, 147180, Note_on_c, 0, 69, 47
1, 147240, Note_on_c, 0, 69, 0
1, 147240, Note_on_c, 0, 64, 44
1, 147300, Note_on_c, 0, 64, 0
1, 147300, Note_on_c, 0, 61, 44
1, 147360, Tempo, 916031
1, 147360, Note_on_c, 0, 61, 0
1, 147360, Note_on_c, 0, 57, 52
1, 147450, Note_on_c, 0, 57, 0
1, 147480, Note_on_c, 0, 57, 52
1, 147570, Note_on_c, 0, 57, 0
1, 147590, Note_on_c, 0, 76, 0
1, 147590, Note_on_c, 0, 73, 0
1, 147590, Note_on_c, 0, 81, 0
1, 147600, Tempo, 983607
1, 147600, Note_on_c, 0, 73, 48
1, 147600, Note_on_c, 0, 76, 48
1, 147600, Note_on_c, 0, 81, 63
1, 147608, Control_c, 0, 64, 0
1, 147703, Control_c, 0, 64, 127
1, 147720, Note_on_c, 0, 61, 48
1, 147810, Note_on_c, 0, 61, 0
1, 147840, Tempo, 930233
1, 147840, Note_on_c, 0, 81, 0
1, 147840, Note_on_c, 0, 83, 65
1, 147960, Note_on_c, 0, 64, 52
1, 148050, Note_on_c, 0, 64, 0
1, 148080, Tempo, 944882
1, 148080, Note_on_c, 0, 73, 0
1, 148080, Note_on_c, 0, 76, 0
1, 148080, Note_on_c, 0, 83, 0
1, 148080, Note_on_c, 0, 73, 54
1, 148080, Note_on_c, 0, 76, 54
1, 148080, Note_on_c, 0, 85, 70
1, 148090, Control_c, 0, 64, 0
1, 148144, Control_c, 0, 64, 127
1, 148200, Tempo, 1071429
1, 148200, Note_on_c, 0, 69, 54
1, 148290, Note_on_c, 0, 69, 0
1, 148296, Note_on_c, 0, 73, 0
1, 148296, Note_on_c, 0, 76, 0
1, 148296, Note_on_c, 0, 85, 0
1, 148320, Tempo, 888889
1, 148320, Note_on_c, 0, 74, 43
1, 148320, Note_on_c, 0, 78, 51
1, 148320, Note_on_c, 0, 85, 66
1, 148320, Control_c, 0, 64, 0
1, 148406, Control_c, 0, 64, 127
1, 148440, Tempo, 875912
1, 148440, Note_on_c, 0, 70, 58
1, 148560, Tempo, 930233
1, 148620, Note_on_c, 0, 70, 0
1, 148620, Note_on_c, 0, 73, 47
1, 148680, Note_on_c, 0, 73, 0
1, 148680, Note_on_c, 0, 71, 48
1, 148740, Note_on_c, 0, 71, 0
1, 148740, Note_on_c, 0, 70, 48
1, 148800, Tempo, 991736
1, 148800, Note_on_c, 0, 70, 0
1, 148800, Note_on_c, 0, 85, 0
1, 148800, Note_on_c, 0, 83, 50
1, 148800, Note_on_c, 0, 71, 52
1, 148809, Control_c, 0, 64, 0
1, 148875, Control_c, 0, 64, 127
1, 148890, Note_on_c, 0, 71, 0
1, 148920, Note_on_c, 0, 71, 51
1, 149010, Note_on_c, 0, 71, 0
1, 149040, Tempo, 902256
1, 149040, Note_on_c, 0, 83, 0
1, 149040, Note_on_c, 0, 78, 0
1, 149040, Note_on_c, 0, 74, 0
1, 149040, Note_on_c, 0, 74, 46
1, 149040, Note_on_c, 0, 81, 64
1, 149055, Control_c, 0, 64, 0
1, 149132, Control_c, 0, 64, 127
1, 149160, Note_on_c, 0, 62, 39
1, 149160, Note_on_c, 0, 66, 46
1, 149250, Note_on_c, 0, 66, 0
1, 149250, Note_on_c, 0, 62, 0
1, 149270, Note_on_c, 0, 74, 0
1, 149280, Tempo, 916031
1, 149280, Note_on_c, 0, 81, 0
1, 149280, Note_on_c, 0, 74, 46
1, 149280, Note_on_c, 0, 80, 58
1, 149293, Control_c, 0, 64, 0
1, 149400, Note_on_c, 0, 64, 35
1, 149400, Note_on_c, 0, 68, 42
1, 149406, Control_c, 0, 64, 127
1, 149490, Note_on_c, 0, 68, 0
1, 149490, Note_on_c, 0, 64, 0
1, 149510, Note_on_c, 0, 74, 0
1, 149520, Tempo, 960000
1, 149520, Note_on_c, 0, 80, 0
1, 149520, Note_on_c, 0, 74, 42
1, 149520, Note_on_c, 0, 78, 55
1, 149535, Control_c, 0, 64, 0
1, 149623, Control_c, 0, 64, 127
1, 149640, Tempo, 1025641
1, 149640, Note_on_c, 0, 66, 39
1, 149640, Note_on_c, 0, 69, 46
1, 149730, Note_on_c, 0, 69, 0
1, 149730, Note_on_c, 0, 66, 0
1, 149736, Note_on_c, 0, 78, 0
1, 149736, Note_on_c, 0, 74, 0
1, 149760, Tempo, 888889
1, 149760, Note_on_c, 0, 74, 48
1, 149760, Note_on_c, 0, 76, 57
1, 149766, Control_c, 0, 64, 0
1, 149814, Control_c, 0, 64, 127
1, 149880, Note_on_c, 0, 68, 39
1, 149880, Note_on_c, 0, 71, 46
1, 150000, Tempo, 916031
1, 150060, Note_on_c, 0, 71, 0
1, 150060, Note_on_c, 0, 68, 0
1, 150060, Note_on_c, 0, 69, 35
1, 150060, Note_on_c, 0, 73, 41
1, 150120, Note_on_c, 0, 73, 0
1, 150120, Note_on_c, 0, 69, 0
1, 150120, Note_on_c, 0, 68, 35
1, 150120, Note_on_c, 0, 71, 41
1, 150180, Note_on_c, 0, 71, 0
1, 150180, Note_on_c, 0, 68, 0
1, 150180, Note_on_c, 0, 66, 35
1, 150180, Note_on_c, 0, 69, 41
1, 150240, Note_on_c, 0, 69, 0
1, 150240, Note_on_c, 0, 66, 0
1, 150240, Note_on_c, 0, 68, 38
1, 150240, Note_on_c, 0, 71, 45
1, 150250, Control_c, 0, 64, 0
1, 150283, Control_c, 0, 64, 127
1, 150330, Note_on_c, 0, 71, 0
1, 150330, Note_on_c, 0, 68, 0
1, 150360, Note_on_c, 0, 68, 39
1, 150360, Note_on_c, 0, 71, 46
1, 150450, Note_on_c, 0, 71, 0
1, 150450, Note_on_c, 0, 68, 0
1, 150470, Note_on_c, 0, 76, 0
1, 150470, Note_on_c, 0, 74, 0
1, 150480, Tempo, 975610
1, 150480, Note_on_c, 0, 68, 50
1, 150480, Note_on_c, 0, 74, 50
1, 150480, Note_on_c, 0, 76, 59
1, 150489, Control_c, 0, 64, 0
1, 150534, Control_c, 0, 64, 127
1, 150600, Tempo, 916031
1, 150600, Note_on_c, 0, 64, 52
1, 150690, Note_on_c, 0, 64, 0
1, 150710, Note_on_c, 0, 68, 0
1, 150710, Note_on_c, 0, 74, 0
1, 150710, Note_on_c, 0, 76, 0
1, 150720, Tempo, 916031
1, 150720, Note_on_c, 0, 68, 55
1, 150720, Note_on_c, 0, 74, 56
1, 150720, Note_on_c, 0, 78, 65
1, 150734, Control_c, 0, 64, 0
1, 150812, Control_c, 0, 64, 127
1, 150840, Note_on_c, 0, 62, 54
1, 150930, Note_on_c, 0, 62, 0
1, 150936, Note_on_c, 0, 68, 0
1, 150936, Note_on_c, 0, 74, 0
1, 150936, Note_on_c, 0, 78, 0
1, 150960, Tempo, 882353
1, 150960, Note_on_c, 0, 68, 50
1, 150960, Note_on_c, 0, 74, 50
1, 150960, Note_on_c, 0, 76, 59
1, 150975, Control_c, 0, 64, 0
1, 151020, Control_c, 0, 64, 127
1, 151080, Tempo, 1016949
1, 151080, Note_on_c, 0, 59, 59
1, 151170, Note_on_c, 0, 59, 0
1, 151176, Note_on_c, 0, 68, 0
1, 151176, Note_on_c, 0, 74, 0
1, 151176, Note_on_c, 0, 76, 0
1, 151200, Tempo, 952381
1, 151200, Note_on_c, 0, 74, 58
1, 151200, Note_on_c, 0, 78, 69
1, 151200, Note_on_c, 0, 57, 62
1, 151200, Control_c, 0, 64, 0
1, 151320, Tempo, 1363636
1, 151320, Note_on_c, 0, 57, 0
1, 151320, Note_on_c, 0, 69, 71
1, 151337, Control_c, 0, 64, 127
1, 151440, Tempo, 1111111
1, 151500, Note_on_c, 0, 69, 0
1, 151500, Note_on_c, 0, 68, 46
1, 151530, Note_on_c, 0, 68, 0
1, 151530, Note_on_c, 0, 66, 45
1, 151560, Note_on_c, 0, 66, 0
1, 151560, Note_on_c, 0, 64, 44
1, 151590, Note_on_c, 0, 64, 0
1, 151590, Note_on_c, 0, 62, 43
1, 151620, Note_on_c, 0, 62, 0
1, 151620, Note_on_c, 0, 61, 42
1, 151650, Note_on_c, 0, 61, 0
1, 151650, Note_on_c, 0, 59, 40
1, 151680, Tempo, 975610
1, 151680, Note_on_c, 0, 59, 0
1, 151680, Note_on_c, 0, 78, 0
1, 151680, Note_on_c, 0, 74, 0
1, 151680, Note_on_c, 0, 73, 42
1, 151680, Note_on_c, 0, 76, 50
1, 151680, Note_on_c, 0, 57, 47
1, 151694, Control_c, 0, 64, 0
1, 151748, Note_on_c, 0, 57, 0
1, 151800, Note_on_c, 0, 57, 52
1, 151890, Note_on_c, 0, 57, 0
1, 151910, Note_on_c, 0, 76, 0
1, 151910, Note_on_c, 0, 73, 0
1, 151920, Tempo, 944882
1, 151920, Note_on_c, 0, 76, 60
1, 151920, Note_on_c, 0, 69, 60
1, 151920, Note_on_c, 0, 73, 71
1, 151980, Control_c, 0, 64, 127
1, 152040, Note_on_c, 0, 47, 53
1, 152040, Note_on_c, 0, 59, 63
1, 152130, Note_on_c, 0, 59, 0
1, 152130, Note_on_c, 0, 47, 0
1, 152150, Note_on_c, 0, 69, 0
1, 152160, Tempo, 930233
1, 152160, Note_on_c, 0, 73, 0
1, 152160, Note_on_c, 0, 76, 0
1, 152160, Note_on_c, 0, 69, 64
1, 152160, Note_on_c, 0, 74, 64
1, 152160, Note_on_c, 0, 78, 78
1, 152169, Control_c, 0, 64, 0
1, 152235, Control_c, 0, 64, 127
1, 152280, Note_on_c, 0, 45, 60
1, 152280, Note_on_c, 0, 57, 71
1, 152370, Note_on_c, 0, 57, 0
1, 152370, Note_on_c, 0, 45, 0
1, 152376, Note_on_c, 0, 69, 0
1, 152376, Note_on_c, 0, 74, 0
1, 152376, Note_on_c, 0, 78, 0
1, 152400, Tempo, 923077
1, 152400, Note_on_c, 0, 69, 59
1, 152400, Note_on_c, 0, 72, 59
1, 152400, Note_on_c, 0, 75, 71
1, 152414, Control_c, 0, 64, 0
1, 152469, Control_c, 0, 64, 127
1, 152520, Tempo, 1025641
1, 152520, Note_on_c, 0, 42, 62
1, 152520, Note_on_c, 0, 54, 66
1, 152610, Note_on_c, 0, 54, 0
1, 152610, Note_on_c, 0, 42, 0
1, 152616, Note_on_c, 0, 69, 0
1, 152616, Note_on_c, 0, 72, 0
1, 152616, Note_on_c, 0, 75, 0
1, 152640, Tempo, 888889
1, 152640, Note_on_c, 0, 69, 66
1, 152640, Note_on_c, 0, 73, 66
1, 152640, Note_on_c, 0, 76, 82
1, 152644, Control_c, 0, 64, 0
1, 152743, Control_c, 0, 64, 127
1, 152760, Note_on_c, 0, 40, 60
1, 152760, Note_on_c, 0, 52, 71
1, 153000, Note_on_c, 0, 52, 0
1, 153000, Note_on_c, 0, 40, 0
1, 153000, Note_on_c, 0, 37, 51
1, 153000, Note_on_c, 0, 49, 60
1, 153090, Note_on_c, 0, 49, 0
1, 153090, Note_on_c, 0, 37, 0
1, 153120, Tempo, 944882
1, 153120, Note_on_c, 0, 40, 56
1, 153120, Note_on_c, 0, 52, 66
1, 153210, Note_on_c, 0, 52, 0
1, 153210, Note_on_c, 0, 40, 0
1, 153240, Note_on_c, 0, 45, 51
1, 153240, Note_on_c, 0, 57, 60
1, 153330, Note_on_c, 0, 57, 0
1, 153330, Note_on_c, 0, 45, 0
1, 153350, Note_on_c, 0, 76, 0
1, 153350, Note_on_c, 0, 73, 0
1, 153360, Tempo, 916031
1, 153360, Note_on_c, 0, 69, 0
1, 153360, Note_on_c, 0, 69, 66
1, 153360, Note_on_c, 0, 73, 66
1, 153360, Note_on_c, 0, 76, 78
1, 153368, Control_c, 0, 64, 0
1, 153480, Note_on_c, 0, 61, 60
1, 153480, Note_on_c, 0, 49, 51
1, 153497, Control_c, 0, 64, 127
1, 153570, Note_on_c, 0, 49, 0
1, 153570, Note_on_c, 0, 61, 0
1, 153590, Note_on_c, 0, 69, 0
1, 153590, Note_on_c, 0, 73, 0
1, 153590, Note_on_c, 0, 76, 0
1, 153600, Tempo, 930233
1, 153600, Note_on_c, 0, 73, 78
1, 153600, Note_on_c, 0, 76, 78
1, 153600, Note_on_c, 0, 81, 88
1, 153720, Note_on_c, 0, 47, 56
1, 153720, Note_on_c, 0, 59, 66
1, 153810, Note_on_c, 0, 59, 0
1, 153810, Note_on_c, 0, 47, 0
1, 153830, Note_on_c, 0, 73, 0
1, 153830, Note_on_c, 0, 76, 0
1, 153840, Tempo, 1111111
1, 153840, Note_on_c, 0, 81, 0
1, 153840, Note_on_c, 0, 76, 70
1, 153840, Note_on_c, 0, 81, 70
1, 153840, Note_on_c, 0, 85, 84
1, 153850, Control_c, 0, 64, 0
1, 153920, Control_c, 0, 64, 127
1, 153960, Tempo, 991736
1, 153960, Note_on_c, 0, 45, 57
1, 153960, Note_on_c, 0, 57, 68
1, 154050, Note_on_c, 0, 57, 0
1, 154050, Note_on_c, 0, 45, 0
1, 154056, Note_on_c, 0, 76, 0
1, 154056, Note_on_c, 0, 81, 0
1, 154056, Note_on_c, 0, 85, 0
1, 154080, Tempo, 937500
1, 154080, Note_on_c, 0, 85, 75
1, 154080, Note_on_c, 0, 76, 75
1, 154080, Note_on_c, 0, 80, 75
1, 154080, Note_on_c, 0, 88, 89
1, 154085, Control_c, 0, 64, 0
1, 154149, Control_c, 0, 64, 127
1, 154200, Note_on_c, 0, 44, 61
1, 154200, Note_on_c, 0, 56, 72
1, 154320, Tempo, 967742
1, 154440, Note_on_c, 0, 56, 0
1, 154440, Note_on_c, 0, 44, 0
1, 154440, Note_on_c, 0, 40, 49
1, 154440, Note_on_c, 0, 52, 58
1, 154560, Tempo, 1043478
1, 154560, Note_on_c, 0, 52, 0
1, 154560, Note_on_c, 0, 40, 0
1, 154560, Note_on_c, 0, 44, 51
1, 154560, Note_on_c, 0, 56, 61
1, 154650, Note_on_c, 0, 56, 0
1, 154650, Note_on_c, 0, 44, 0
1, 154680, Note_on_c, 0, 61, 57
1, 154680, Note_on_c, 0, 49, 48
1, 154770, Note_on_c, 0, 49, 0
1, 154770, Note_on_c, 0, 61, 0
1, 154790, Note_on_c, 0, 88, 0
1, 154790, Note_on_c, 0, 80, 0
1, 154790, Note_on_c, 0, 85, 0
1, 154800, Tempo, 909091
1, 154800, Note_on_c, 0, 76, 0
1, 154800, Note_on_c, 0, 73, 61
1, 154800, Note_on_c, 0, 80, 61
1, 154800, Note_on_c, 0, 85, 84
1, 154805, Control_c, 0, 64, 0
1, 154857, Control_c, 0, 64, 127
1, 154920, Note_on_c, 0, 64, 61
1, 154920, Note_on_c, 0, 52, 51
1, 155010, Note_on_c, 0, 52, 0
1, 155010, Note_on_c, 0, 64, 0
1, 155030, Note_on_c, 0, 80, 0
1, 155040, Tempo, 944882
1, 155040, Note_on_c, 0, 85, 0
1, 155040, Note_on_c, 0, 73, 0
1, 155040, Note_on_c, 0, 75, 68
1, 155040, Note_on_c, 0, 78, 73
1, 155040, Note_on_c, 0, 87, 84
1, 155051, Control_c, 0, 64, 0
1, 155118, Control_c, 0, 64, 127
1, 155160, Note_on_c, 0, 69, 56
1, 155160, Note_on_c, 0, 57, 47
1, 155250, Note_on_c, 0, 57, 0
1, 155250, Note_on_c, 0, 69, 0
1, 155270, Note_on_c, 0, 75, 0
1, 155270, Note_on_c, 0, 78, 0
1, 155270, Note_on_c, 0, 87, 0
1, 155280, Tempo, 1000000
1, 155280, Note_on_c, 0, 84, 56
1, 155280, Note_on_c, 0, 78, 56
1, 155280, Note_on_c, 0, 87, 56
1, 155280, Note_on_c, 0, 92, 72
1, 155287, Control_c, 0, 64, 0
1, 155351, Control_c, 0, 64, 127
1, 155400, Note_on_c, 0, 44, 51
1, 155400, Note_on_c, 0, 56, 61
1, 155490, Note_on_c, 0, 56, 0
1, 155490, Note_on_c, 0, 44, 0
1, 155496, Note_on_c, 0, 87, 0
1, 155496, Note_on_c, 0, 92, 0
1, 155496, Note_on_c, 0, 78, 0
1, 155520, Tempo, 851064
1, 155520, Note_on_c, 0, 84, 0
1, 155520, Note_on_c, 0, 80, 62
1, 155520, Note_on_c, 0, 76, 62
1, 155520, Note_on_c, 0, 73, 62
1, 155520, Note_on_c, 0, 85, 84
1, 155528, Control_c, 0, 64, 0
1, 155640, Tempo, 975610
1, 155640, Note_on_c, 0, 49, 59
1, 155640, Note_on_c, 0, 61, 70
1, 155684, Control_c, 0, 64, 127
1, 155760, Tempo, 895522
1, 155880, Note_on_c, 0, 61, 0
1, 155880, Note_on_c, 0, 49, 0
1, 155880, Note_on_c, 0, 44, 50
1, 155880, Note_on_c, 0, 56, 59
1, 156000, Note_on_c, 0, 56, 0
1, 156000, Note_on_c, 0, 44, 0
1, 156000, Note_on_c, 0, 40, 53
1, 156000, Note_on_c, 0, 52, 63
1, 156090, Note_on_c, 0, 52, 0
1, 156090, Note_on_c, 0, 40, 0
1, 156120, Note_on_c, 0, 37, 51
1, 156120, Note_on_c, 0, 49, 60
1, 156210, Note_on_c, 0, 49, 0
1, 156210, Note_on_c, 0, 37, 0
1, 156230, Note_on_c, 0, 85, 0
1, 156230, Note_on_c, 0, 73, 0
1, 156240, Tempo, 937500
1, 156240, Note_on_c, 0, 76, 0
1, 156240, Note_on_c, 0, 80, 0
1, 156240, Note_on_c, 0, 64, 37
1, 156240, Note_on_c, 0, 69, 46
1, 156249, Control_c, 0, 64, 0
1, 156310, Control_c, 0, 64, 127
1, 156360, Note_on_c, 0, 49, 39
1, 156450, Note_on_c, 0, 49, 0
1, 156480, Tempo, 967742
1, 156480, Note_on_c, 0, 69, 0
1, 156480, Note_on_c, 0, 64, 0
1, 156480, Note_on_c, 0, 63, 37
1, 156480, Note_on_c, 0, 69, 37
1, 156480, Note_on_c, 0, 71, 46
1, 156494, Control_c, 0, 64, 0
1, 156581, Control_c, 0, 64, 127
1, 156600, Note_on_c, 0, 54, 44
1, 156690, Note_on_c, 0, 54, 0
1, 156696, Note_on_c, 0, 71, 0
1, 156696, Note_on_c, 0, 69, 0
1, 156720, Tempo, 983607
1, 156720, Note_on_c, 0, 63, 0
1, 156720, Note_on_c, 0, 68, 32
1, 156720, Note_on_c, 0, 62, 32
1, 156720, Note_on_c, 0, 71, 32
1, 156720, Note_on_c, 0, 76, 37
1, 156725, Control_c, 0, 64, 0
1, 156833, Control_c, 0, 64, 127
1, 156840, Tempo, 1132075
1, 156840, Note_on_c, 0, 52, 41
1, 156930, Note_on_c, 0, 52, 0
1, 156936, Note_on_c, 0, 71, 0
1, 156936, Note_on_c, 0, 76, 0
1, 156936, Note_on_c, 0, 62, 0
1, 156960, Tempo, 967742
1, 156960, Note_on_c, 0, 68, 0
1, 156960, Note_on_c, 0, 61, 37
1, 156960, Note_on_c, 0, 69, 46
1, 156960, Control_c, 0, 64, 0
1, 157046, Control_c, 0, 64, 127
1, 157080, Note_on_c, 0, 54, 51
1, 157320, Note_on_c, 0, 54, 0
1, 157320, Note_on_c, 0, 49, 39
1, 157410, Note_on_c, 0, 49, 0
1, 157440, Note_on_c, 0, 45, 44
1, 157549, Control_c, 0, 64, 0
1, 157560, Note_on_c, 0, 45, 0
1, 157560, Note_on_c, 0, 42, 39
1, 157680, Tempo, 1008403
1, 157680, Note_on_c, 0, 42, 0
1, 157680, Note_on_c, 0, 69, 0
1, 157680, Note_on_c, 0, 61, 0
1, 157680, Note_on_c, 0, 73, 47
1, 157680, Note_on_c, 0, 79, 47
1, 157680, Note_on_c, 0, 82, 77
1, 157745, Control_c, 0, 64, 127
1, 157800, Note_on_c, 0, 40, 50
1, 157800, Note_on_c, 0, 52, 59
1, 157910, Note_on_c, 0, 79, 0
1, 157920, Tempo, 1071429
1, 157920, Note_on_c, 0, 40, 0
1, 157920, Note_on_c, 0, 73, 0
1, 157920, Note_on_c, 0, 82, 0
1, 157920, Note_on_c, 0, 52, 0
1, 157920, Note_on_c, 0, 74, 68
1, 157920, Note_on_c, 0, 79, 68
1, 157920, Note_on_c, 0, 83, 80
1, 157935, Control_c, 0, 64, 0
1, 157985, Control_c, 0, 64, 127
1, 158040, Note_on_c, 0, 38, 52
1, 158040, Note_on_c, 0, 50, 62
1, 158150, Note_on_c, 0, 79, 0
1, 158150, Note_on_c, 0, 74, 0
1, 158160, Tempo, 1142857
1, 158160, Note_on_c, 0, 38, 0
1, 158160, Note_on_c, 0, 83, 0
1, 158160, Note_on_c, 0, 50, 0
1, 158160, Note_on_c, 0, 79, 71
1, 158160, Note_on_c, 0, 76, 71
1, 158160, Note_on_c, 0, 85, 84
1, 158170, Control_c, 0, 64, 0
1, 158245, Control_c, 0, 64, 127
1, 158280, Note_on_c, 0, 37, 56
1, 158280, Note_on_c, 0, 49, 67
1, 158376, Note_on_c, 0, 85, 0
1, 158376, Note_on_c, 0, 76, 0
1, 158400, Note_on_c, 0, 79, 0
1, 158400, Note_on_c, 0, 37, 0
1, 158400, Note_on_c, 0, 49, 0
1, 158400, Note_on_c, 0, 79, 69
1, 158400, Note_on_c, 0, 83, 76
1, 158400, Note_on_c, 0, 74, 69
1, 158400, Note_on_c, 0, 86, 102
1, 158400, Control_c, 0, 64, 0
1, 158492, Control_c, 0, 64, 127
1, 158640, Note_on_c, 0, 35, 56
1, 158640, Note_on_c, 0, 38, 56
1, 158640, Note_on_c, 0, 43, 56
1, 158640, Note_on_c, 0, 47, 67
1, 158880, Tempo, 1008403
1, 158880, Note_on_c, 0, 47, 0
1, 158880, Note_on_c, 0, 43, 0
1, 158880, Note_on_c, 0, 35, 0
1, 158880, Note_on_c, 0, 38, 0
1, 158990, Note_on_c, 0, 74, 0
1, 158990, Note_on_c, 0, 86, 0
1, 158990, Note_on_c, 0, 83, 0
1, 158990, Note_on_c, 0, 79, 0
1, 159000, Note_on_c, 0, 83, 52
1, 159000, Note_on_c, 0, 86, 62
1, 159010, Control_c, 0, 64, 0
1, 159080, Control_c, 0, 64, 127
1, 159090, Note_on_c, 0, 86, 0
1, 159090, Note_on_c, 0, 83, 0
1, 159120, Note_on_c, 0, 79, 58
1, 159120, Note_on_c, 0, 83, 69
1, 159210, Note_on_c, 0, 83, 0
1, 159210, Note_on_c, 0, 79, 0
1, 159240, Note_on_c, 0, 74, 51
1, 159240, Note_on_c, 0, 79, 61
1, 159330, Note_on_c, 0, 79, 0
1, 159330, Note_on_c, 0, 74, 0
1, 159360, Note_on_c, 0, 71, 56
1, 159360, Note_on_c, 0, 74, 66
1, 159450, Note_on_c, 0, 74, 0
1, 159450, Note_on_c, 0, 71, 0
1, 159480, Note_on_c, 0, 67, 46
1, 159480, Note_on_c, 0, 71, 55
1, 159570, Note_on_c, 0, 71, 0
1, 159570, Note_on_c, 0, 67, 0
1, 159600, Tempo, 1043478
1, 159600, Note_on_c, 0, 62, 52
1, 159600, Note_on_c, 0, 67, 62
1, 159690, Note_on_c, 0, 67, 0
1, 159690, Note_on_c, 0, 62, 0
1, 159720, Tempo, 1363636
1, 159720, Note_on_c, 0, 59, 45
1, 159720, Note_on_c, 0, 62, 53
1, 159720, Note_on_c, 0, 43, 45
1, 159720, Note_on_c, 0, 55, 53
1, 159810, Note_on_c, 0, 55, 0
1, 159810, Note_on_c, 0, 59, 0
1, 159810, Note_on_c, 0, 62, 0
1, 159810, Note_on_c, 0, 43, 0
1, 159840, Tempo, 1025641
1, 159840, Note_on_c, 0, 60, 52
1, 159840, Note_on_c, 0, 64, 62
1, 159840, Note_on_c, 0, 48, 45
1, 159840, Note_on_c, 0, 55, 53
1, 159840, Control_c, 0, 64, 0
1, 159949, Control_c, 0, 64, 127
1, 160560, Note_on_c, 0, 55, 0
1, 160560, Note_on_c, 0, 60, 0
1, 160560, Note_on_c, 0, 64, 0
1, 160560, Note_on_c, 0, 48, 0
1, 160560, Note_on_c, 0, 59, 41
1, 160560, Note_on_c, 0, 62, 49
1, 160560, Note_on_c, 0, 43, 33
1, 160560, Note_on_c, 0, 55, 39
1, 160573, Control_c, 0, 64, 0
1, 160640, Control_c, 0, 64, 127
1, 160650, Note_on_c, 0, 55, 0
1, 160650, Note_on_c, 0, 59, 0
1, 160650, Note_on_c, 0, 62, 0
1, 160650, Note_on_c, 0, 43, 0
1, 160680, Note_on_c, 0, 62, 36
1, 160680, Note_on_c, 0, 67, 43
1, 160680, Note_on_c, 0, 47, 28
1, 160680, Note_on_c, 0, 55, 33
1, 160770, Note_on_c, 0, 55, 0
1, 160770, Note_on_c, 0, 62, 0
1, 160770, Note_on_c, 0, 67, 0
1, 160770, Note_on_c, 0, 47, 0
1, 160800, Tempo, 1000000
1, 160800, Note_on_c, 0, 60, 41
1, 160800, Note_on_c, 0, 64, 49
1, 160800, Note_on_c, 0, 48, 33
1, 160800, Note_on_c, 0, 55, 39
1, 160813, Control_c, 0, 64, 0
1, 160875, Control_c, 0, 64, 127
1, 160890, Note_on_c, 0, 55, 0
1, 160890, Note_on_c, 0, 60, 0
1, 160890, Note_on_c, 0, 64, 0
1, 160890, Note_on_c, 0, 48, 0
1, 160920, Note_on_c, 0, 64, 34
1, 160920, Note_on_c, 0, 72, 40
1, 160920, Note_on_c, 0, 48, 27
1, 160920, Note_on_c, 0, 55, 32
1, 161010, Note_on_c, 0, 55, 0
1, 161010, Note_on_c, 0, 64, 0
1, 161010, Note_on_c, 0, 72, 0
1, 161010, Note_on_c, 0, 48, 0
1, 161040, Tempo, 1071429
1, 161040, Note_on_c, 0, 71, 49
1, 161040, Note_on_c, 0, 65, 41
1, 161040, Note_on_c, 0, 50, 33
1, 161040, Note_on_c, 0, 55, 39
1, 161045, Control_c, 0, 64, 0
1, 161103, Control_c, 0, 64, 127
1, 161130, Note_on_c, 0, 55, 0
1, 161130, Note_on_c, 0, 71, 0
1, 161130, Note_on_c, 0, 65, 0
1, 161130, Note_on_c, 0, 50, 0
1, 161160, Tempo, 1411765
1, 161160, Note_on_c, 0, 71, 36
1, 161160, Note_on_c, 0, 77, 43
1, 161160, Note_on_c, 0, 43, 28
1, 161160, Note_on_c, 0, 55, 33
1, 161250, Note_on_c, 0, 55, 0
1, 161250, Note_on_c, 0, 71, 0
1, 161250, Note_on_c, 0, 77, 0
1, 161250, Note_on_c, 0, 43, 0
1, 161280, Tempo, 1025641
1, 161280, Note_on_c, 0, 72, 41
1, 161280, Note_on_c, 0, 76, 49
1, 161280, Note_on_c, 0, 48, 33
1, 161280, Note_on_c, 0, 55, 39
1, 161280, Control_c, 0, 64, 0
1, 161340, Control_c, 0, 64, 127
1, 161460, Note_on_c, 0, 55, 0
1, 161460, Note_on_c, 0, 72, 0
1, 161460, Note_on_c, 0, 76, 0
1, 161460, Note_on_c, 0, 48, 0
1, 161520, Tempo, 1025641
1, 161520, Note_on_c, 0, 59, 41
1, 161520, Note_on_c, 0, 62, 49
1, 161520, Note_on_c, 0, 43, 33
1, 161520, Note_on_c, 0, 55, 39
1, 161533, Control_c, 0, 64, 0
1, 161600, Control_c, 0, 64, 127
1, 161610, Note_on_c, 0, 55, 0
1, 161610, Note_on_c, 0, 59, 0
1, 161610, Note_on_c, 0, 62, 0
1, 161610, Note_on_c, 0, 43, 0
1, 161640, Note_on_c, 0, 62, 36
1, 161640, Note_on_c, 0, 67, 43
1, 161640, Note_on_c, 0, 47, 28
1, 161640, Note_on_c, 0, 55, 33
1, 161730, Note_on_c, 0, 55, 0
1, 161730, Note_on_c, 0, 62, 0
1, 161730, Note_on_c, 0, 67, 0
1, 161730, Note_on_c, 0, 47, 0
1, 161760, Tempo, 1000000
1, 161760, Note_on_c, 0, 60, 41
1, 161760, Note_on_c, 0, 64, 49
1, 161760, Note_on_c, 0, 48, 33
1, 161760, Note_on_c, 0, 55, 39
1, 161773, Control_c, 0, 64, 0
1, 161835, Control_c, 0, 64, 127
1, 161850, Note_on_c, 0, 55, 0
1, 161850, Note_on_c, 0, 60, 0
1, 161850, Note_on_c, 0, 64, 0
1, 161850, Note_on_c, 0, 48, 0
1, 161880, Note_on_c, 0, 64, 34
1, 161880, Note_on_c, 0, 72, 40
1, 161880, Note_on_c, 0, 48, 27
1, 161880, Note_on_c, 0, 55, 32
1, 161970, Note_on_c, 0, 55, 0
1, 161970, Note_on_c, 0, 64, 0
1, 161970, Note_on_c, 0, 72, 0
1, 161970, Note_on_c, 0, 48, 0
1, 162000, Tempo, 1071429
1, 162000, Note_on_c, 0, 71, 49
1, 162000, Note_on_c, 0, 65, 41
1, 162000, Note_on_c, 0, 50, 33
1, 162000, Note_on_c, 0, 55, 39
1, 162005, Control_c, 0, 64, 0
1, 162063, Control_c, 0, 64, 127
1, 162090, Note_on_c, 0, 55, 0
1, 162090, Note_on_c, 0, 71, 0
1, 162090, Note_on_c, 0, 65, 0
1, 162090, Note_on_c, 0, 50, 0
1, 162120, Tempo, 1224490
1, 162120, Note_on_c, 0, 71, 36
1, 162120, Note_on_c, 0, 77, 43
1, 162120, Note_on_c, 0, 43, 28
1, 162120, Note_on_c, 0, 55, 33
1, 162210, Note_on_c, 0, 55, 0
1, 162210, Note_on_c, 0, 71, 0
1, 162210, Note_on_c, 0, 77, 0
1, 162210, Note_on_c, 0, 43, 0
1, 162240, Tempo, 1025641
1, 162240, Note_on_c, 0, 72, 41
1, 162240, Note_on_c, 0, 76, 49
1, 162240, Note_on_c, 0, 48, 33
1, 162240, Note_on_c, 0, 55, 39
1, 162240, Control_c, 0, 64, 0
1, 162300, Control_c, 0, 64, 127
1, 162420, Note_on_c, 0, 55, 0
1, 162420, Note_on_c, 0, 72, 0
1, 162420, Note_on_c, 0, 76, 0
1, 162420, Note_on_c, 0, 48, 0
1, 162480, Tempo, 1025641
1, 162480, Note_on_c, 0, 77, 54
1, 162480, Note_on_c, 0, 83, 64
1, 162480, Note_on_c, 0, 50, 33
1, 162480, Note_on_c, 0, 55, 39
1, 162493, Control_c, 0, 64, 0
1, 162560, Control_c, 0, 64, 127
1, 162570, Note_on_c, 0, 55, 0
1, 162570, Note_on_c, 0, 77, 0
1, 162570, Note_on_c, 0, 83, 0
1, 162570, Note_on_c, 0, 50, 0
1, 162600, Note_on_c, 0, 83, 47
1, 162600, Note_on_c, 0, 89, 56
1, 162600, Note_on_c, 0, 43, 28
1, 162600, Note_on_c, 0, 55, 33
1, 162690, Note_on_c, 0, 55, 0
1, 162690, Note_on_c, 0, 83, 0
1, 162690, Note_on_c, 0, 89, 0
1, 162690, Note_on_c, 0, 43, 0
1, 162720, Tempo, 1000000
1, 162720, Note_on_c, 0, 84, 51
1, 162720, Note_on_c, 0, 88, 61
1, 162720, Note_on_c, 0, 48, 33
1, 162720, Note_on_c, 0, 55, 39
1, 162733, Control_c, 0, 64, 0
1, 162795, Control_c, 0, 64, 127
1, 162810, Note_on_c, 0, 55, 0
1, 162810, Note_on_c, 0, 84, 0
1, 162810, Note_on_c, 0, 88, 0
1, 162810, Note_on_c, 0, 48, 0
1, 162840, Note_on_c, 0, 76, 45
1, 162840, Note_on_c, 0, 84, 54
1, 162840, Note_on_c, 0, 48, 27
1, 162840, Note_on_c, 0, 55, 32
1, 162930, Note_on_c, 0, 55, 0
1, 162930, Note_on_c, 0, 76, 0
1, 162930, Note_on_c, 0, 84, 0
1, 162930, Note_on_c, 0, 48, 0
1, 162960, Tempo, 1071429
1, 162960, Note_on_c, 0, 83, 49
1, 162960, Note_on_c, 0, 77, 41
1, 162960, Note_on_c, 0, 50, 33
1, 162960, Note_on_c, 0, 55, 39
1, 162965, Control_c, 0, 64, 0
1, 163023, Control_c, 0, 64, 127
1, 163050, Note_on_c, 0, 55, 0
1, 163050, Note_on_c, 0, 83, 0
1, 163050, Note_on_c, 0, 77, 0
1, 163050, Note_on_c, 0, 50, 0
1, 163080, Tempo, 1290323
1, 163080, Note_on_c, 0, 71, 36
1, 163080, Note_on_c, 0, 77, 43
1, 163080, Note_on_c, 0, 43, 28
1, 163080, Note_on_c, 0, 55, 33
1, 163170, Note_on_c, 0, 55, 0
1, 163170, Note_on_c, 0, 71, 0
1, 163170, Note_on_c, 0, 77, 0
1, 163170, Note_on_c, 0, 43, 0
1, 163200, Tempo, 1025641
1, 163200, Note_on_c, 0, 72, 41
1, 163200, Note_on_c, 0, 76, 49
1, 163200, Note_on_c, 0, 48, 33
1, 163200, Note_on_c, 0, 55, 39
1, 163200, Control_c, 0, 64, 0
1, 163260, Control_c, 0, 64, 127
1, 163380, Note_on_c, 0, 55, 0
1, 163380, Note_on_c, 0, 72, 0
1, 163380, Note_on_c, 0, 76, 0
1, 163380, Note_on_c, 0, 48, 0
1, 163440, Tempo, 975610
1, 163440, Note_on_c, 0, 68, 55
1, 163440, Note_on_c, 0, 64, 55
1, 163440, Note_on_c, 0, 74, 55
1, 163440, Note_on_c, 0, 76, 65
1, 163451, Control_c, 0, 64, 0
1, 163505, Control_c, 0, 64, 127
1, 163560, Note_on_c, 0, 35, 53
1, 163560, Note_on_c, 0, 47, 63
1, 163613, Note_on_c, 0, 74, 0
1, 163620, Note_on_c, 0, 76, 0
1, 163620, Note_on_c, 0, 68, 0
1, 163620, Note_on_c, 0, 64, 0
1, 163680, Tempo, 967742
1, 163680, Note_on_c, 0, 47, 0
1, 163680, Note_on_c, 0, 35, 0
1, 163680, Note_on_c, 0, 69, 58
1, 163680, Note_on_c, 0, 66, 58
1, 163680, Note_on_c, 0, 74, 58
1, 163680, Note_on_c, 0, 78, 69
1, 163695, Control_c, 0, 64, 0
1, 163745, Control_c, 0, 64, 127
1, 163800, Note_on_c, 0, 40, 56
1, 163800, Note_on_c, 0, 52, 66
1, 163853, Note_on_c, 0, 74, 0
1, 163853, Note_on_c, 0, 66, 0
1, 163860, Note_on_c, 0, 78, 0
1, 163860, Note_on_c, 0, 69, 0
1, 163920, Tempo, 937500
1, 163920, Note_on_c, 0, 52, 0
1, 163920, Note_on_c, 0, 40, 0
1, 163920, Note_on_c, 0, 71, 63
1, 163920, Note_on_c, 0, 76, 63
1, 163920, Note_on_c, 0, 68, 63
1, 163920, Note_on_c, 0, 80, 75
1, 163930, Control_c, 0, 64, 0
1, 164005, Control_c, 0, 64, 127
1, 164040, Note_on_c, 0, 38, 47
1, 164040, Note_on_c, 0, 50, 67
1, 164082, Note_on_c, 0, 80, 0
1, 164082, Note_on_c, 0, 68, 0
1, 164100, Note_on_c, 0, 71, 0
1, 164100, Note_on_c, 0, 76, 0
1, 164160, Tempo, 1000000
1, 164160, Note_on_c, 0, 50, 0
1, 164160, Note_on_c, 0, 38, 0
1, 164160, Note_on_c, 0, 73, 68
1, 164160, Note_on_c, 0, 76, 68
1, 164160, Note_on_c, 0, 69, 68
1, 164160, Note_on_c, 0, 81, 81
1, 164160, Control_c, 0, 64, 0
1, 164252, Control_c, 0, 64, 127
1, 164280, Note_on_c, 0, 37, 56
1, 164280, Note_on_c, 0, 49, 66
1, 164340, Note_on_c, 0, 81, 0
1, 164340, Note_on_c, 0, 69, 0
1, 164340, Note_on_c, 0, 73, 0
1, 164340, Note_on_c, 0, 76, 0
1, 164400, Tempo, 1090909
1, 164400, Note_on_c, 0, 49, 0
1, 164400, Note_on_c, 0, 37, 0
1, 164400, Note_on_c, 0, 71, 73
1, 164400, Note_on_c, 0, 75, 73
1, 164400, Note_on_c, 0, 83, 87
1, 164400, Note_on_c, 0, 81, 73
1, 164410, Control_c, 0, 64, 0
1, 164457, Control_c, 0, 64, 127
1, 164520, Tempo, 1348315
1, 164520, Note_on_c, 0, 42, 56
1, 164520, Note_on_c, 0, 54, 67
1, 164580, Note_on_c, 0, 81, 0
1, 164580, Note_on_c, 0, 83, 0
1, 164580, Note_on_c, 0, 71, 0
1, 164580, Note_on_c, 0, 75, 0
1, 164640, Tempo, 1081081
1, 164640, Note_on_c, 0, 54, 0
1, 164640, Note_on_c, 0, 42, 0
1, 164640, Note_on_c, 0, 85, 92
1, 164640, Note_on_c, 0, 81, 78
1, 164640, Note_on_c, 0, 73, 78
1, 164640, Note_on_c, 0, 76, 78
1, 164640, Note_on_c, 0, 40, 64
1, 164640, Note_on_c, 0, 52, 76
1, 164654, Control_c, 0, 64, 0
1, 164711, Control_c, 0, 64, 127
1, 165000, Note_on_c, 0, 76, 0
1, 165000, Note_on_c, 0, 73, 0
1, 165000, Note_on_c, 0, 85, 0
1, 165000, Note_on_c, 0, 81, 0
1, 165000, Note_on_c, 0, 69, 66
1, 165120, Tempo, 1052632
1, 165120, Note_on_c, 0, 69, 0
1, 165120, Note_on_c, 0, 52, 0
1, 165120, Note_on_c, 0, 40, 0
1, 165120, Note_on_c, 0, 62, 63
1, 165120, Note_on_c, 0, 64, 63
1, 165120, Note_on_c, 0, 68, 63
1, 165120, Note_on_c, 0, 73, 75
1, 165120, Note_on_c, 0, 40, 52
1, 165120, Note_on_c, 0, 52, 62
1, 165129, Control_c, 0, 64, 0
1, 165205, Control_c, 0, 64, 127
1, 165480, Tempo, 1250000
1, 165480, Note_on_c, 0, 73, 0
1, 165480, Note_on_c, 0, 71, 64
1, 165600, Tempo, 1111111
1, 165600, Note_on_c, 0, 71, 0
1, 165600, Note_on_c, 0, 52, 0
1, 165600, Note_on_c, 0, 68, 0
1, 165600, Note_on_c, 0, 62, 0
1, 165600, Note_on_c, 0, 64, 0
1, 165600, Note_on_c, 0, 40, 0
1, 165600, Note_on_c, 0, 61, 53
1, 165600, Note_on_c, 0, 64, 53
1, 165600, Note_on_c, 0, 69, 63
1, 165600, Note_on_c, 0, 45, 41
1, 165600, Note_on_c, 0, 52, 49
1, 165605, Control_c, 0, 64, 0
1, 165664, Control_c, 0, 64, 127
1, 166320, Tempo, 960000
1, 166320, Note_on_c, 0, 52, 0
1, 166320, Note_on_c, 0, 69, 0
1, 166320, Note_on_c, 0, 61, 0
1, 166320, Note_on_c, 0, 64, 0
1, 166320, Note_on_c, 0, 45, 0
1, 166320, Note_on_c, 0, 76, 53
1, 166320, Note_on_c, 0, 64, 45
1, 166327, Control_c, 0, 64, 0
1, 166380, Control_c, 0, 64, 127
1, 166440, Note_on_c, 0, 64, 0
1, 166440, Note_on_c, 0, 76, 0
1, 166440, Note_on_c, 0, 74, 48
1, 166440, Note_on_c, 0, 62, 40
1, 166530, Note_on_c, 0, 62, 0
1, 166530, Note_on_c, 0, 74, 0
1, 166560, Note_on_c, 0, 74, 53
1, 166560, Note_on_c, 0, 62, 45
1, 166566, Control_c, 0, 64, 0
1, 166617, Control_c, 0, 64, 127
1, 166680, Note_on_c, 0, 62, 0
1, 166680, Note_on_c, 0, 74, 0
1, 166680, Note_on_c, 0, 73, 47
1, 166680, Note_on_c, 0, 61, 39
1, 166800, Note_on_c, 0, 61, 0
1, 166800, Note_on_c, 0, 73, 0
1, 166800, Note_on_c, 0, 71, 53
1, 166800, Note_on_c, 0, 59, 45
1, 166803, Control_c, 0, 64, 0
1, 166920, Tempo, 1111111
1, 166920, Note_on_c, 0, 59, 0
1, 166920, Note_on_c, 0, 71, 0
1, 166920, Note_on_c, 0, 69, 49
1, 166920, Note_on_c, 0, 57, 41
1, 166965, Note_on_c, 0, 57, 0
1, 166965, Note_on_c, 0, 69, 0
1, 166980, Note_on_c, 0, 69, 45
1, 166980, Note_on_c, 0, 57, 38
1, 167040, Tempo, 952381
1, 167040, Note_on_c, 0, 57, 0
1, 167040, Note_on_c, 0, 69, 0
1, 167040, Note_on_c, 0, 76, 56
1, 167040, Note_on_c, 0, 64, 47
1, 167072, Control_c, 0, 64, 127
1, 167760, Tempo, 960000
1, 167760, Note_on_c, 0, 64, 0
1, 167760, Note_on_c, 0, 76, 0
1, 167760, Note_on_c, 0, 76, 53
1, 167760, Note_on_c, 0, 64, 45
1, 167770, Control_c, 0, 64, 0
1, 167815, Control_c, 0, 64, 127
1, 167880, Note_on_c, 0, 64, 0
1, 167880, Note_on_c, 0, 76, 0
1, 167880, Note_on_c, 0, 74, 48
1, 167880, Note_on_c, 0, 62, 40
1, 167970, Note_on_c, 0, 62, 0
1, 167970, Note_on_c, 0, 74, 0
1, 168000, Note_on_c, 0, 74, 53
1, 168000, Note_on_c, 0, 62, 45
1, 168012, Control_c, 0, 64, 0
1, 168046, Control_c, 0, 64, 127
1, 168080, Note_on_c, 0, 62, 0
1, 168080, Note_on_c, 0, 74, 0
1, 168080, Note_on_c, 0, 73, 47
1, 168080, Note_on_c, 0, 61, 39
1, 168160, Note_on_c, 0, 61, 0
1, 168160, Note_on_c, 0, 73, 0
1, 168160, Note_on_c, 0, 71, 47
1, 168160, Note_on_c, 0, 59, 39
1, 168240, Note_on_c, 0, 59, 0
1, 168240, Note_on_c, 0, 71, 0
1, 168240, Note_on_c, 0, 70, 53
1, 168240, Note_on_c, 0, 58, 45
1, 168320, Note_on_c, 0, 58, 0
1, 168320, Note_on_c, 0, 70, 0
1, 168320, Note_on_c, 0, 73, 47
1, 168320, Note_on_c, 0, 61, 39
1, 168360, Tempo, 1111111
1, 168400, Note_on_c, 0, 61, 0
1, 168400, Note_on_c, 0, 73, 0
1, 168400, Note_on_c, 0, 74, 47
1, 168400, Note_on_c, 0, 62, 39
1, 168440, Note_on_c, 0, 73, 45
1, 168440, Note_on_c, 0, 61, 38
1, 168480, Tempo, 952381
1, 168480, Note_on_c, 0, 61, 0
1, 168480, Note_on_c, 0, 74, 0
1, 168480, Note_on_c, 0, 62, 0
1, 168480, Note_on_c, 0, 73, 0
1, 168480, Note_on_c, 0, 76, 53
1, 168480, Note_on_c, 0, 64, 45
1, 168482, Control_c, 0, 64, 0
1, 168547, Control_c, 0, 64, 127
1, 169200, Tempo, 960000
1, 169200, Note_on_c, 0, 64, 0
1, 169200, Note_on_c, 0, 76, 0
1, 169200, Note_on_c, 0, 70, 62
1, 169200, Note_on_c, 0, 58, 52
1, 169206, Control_c, 0, 64, 0
1, 169257, Control_c, 0, 64, 127
1, 169320, Note_on_c, 0, 58, 0
1, 169320, Note_on_c, 0, 70, 0
1, 169320, Note_on_c, 0, 78, 57
1, 169320, Note_on_c, 0, 66, 48
1, 169440, Note_on_c, 0, 66, 0
1, 169440, Note_on_c, 0, 78, 0
1, 169440, Note_on_c, 0, 74, 61
1, 169440, Note_on_c, 0, 62, 52
1, 169451, Control_c, 0, 64, 0
1, 169500, Note_on_c, 0, 62, 0
1, 169500, Note_on_c, 0, 74, 0
1, 169500, Note_on_c, 0, 76, 59
1, 169500, Note_on_c, 0, 64, 49
1, 169504, Control_c, 0, 64, 127
1, 169560, Note_on_c, 0, 64, 0
1, 169560, Note_on_c, 0, 76, 0
1, 169560, Note_on_c, 0, 74, 59
1, 169560, Note_on_c, 0, 62, 50
1, 169593, Tempo, 952381
1, 169620, Note_on_c, 0, 62, 0
1, 169620, Note_on_c, 0, 74, 0
1, 169620, Note_on_c, 0, 73, 60
1, 169620, Note_on_c, 0, 61, 51
1, 169631, Tempo, 960000
1, 169670, Tempo, 967742
1, 169680, Note_on_c, 0, 61, 0
1, 169680, Note_on_c, 0, 73, 0
1, 169680, Note_on_c, 0, 71, 63
1, 169680, Note_on_c, 0, 59, 53
1, 169686, Control_c, 0, 64, 0
1, 169708, Tempo, 975610
1, 169730, Control_c, 0, 64, 127
1, 169740, Note_on_c, 0, 59, 0
1, 169740, Note_on_c, 0, 71, 0
1, 169740, Note_on_c, 0, 73, 65
1, 169740, Note_on_c, 0, 61, 55
1, 169746, Tempo, 983607
1, 169785, Tempo, 991736
1, 169800, Note_on_c, 0, 61, 0
1, 169800, Note_on_c, 0, 73, 0
1, 169800, Note_on_c, 0, 74, 68
1, 169800, Note_on_c, 0, 62, 57
1, 169823, Tempo, 1000000
1, 169860, Note_on_c, 0, 62, 0
1, 169860, Note_on_c, 0, 74, 0
1, 169860, Note_on_c, 0, 76, 71
1, 169860, Note_on_c, 0, 64, 60
1, 169862, Tempo, 1008403
1, 169920, Tempo, 1000000
1, 169920, Note_on_c, 0, 64, 0
1, 169920, Note_on_c, 0, 76, 0
1, 169920, Note_on_c, 0, 78, 78
1, 169920, Note_on_c, 0, 66, 66
1, 169930, Control_c, 0, 64, 0
1, 170019, Control_c, 0, 64, 127
1, 170160, Tempo, 952381
1, 170160, Note_on_c, 0, 70, 68
1, 170160, Note_on_c, 0, 64, 45
1, 170400, Tempo, 937500
1, 170400, Note_on_c, 0, 64, 0
1, 170400, Note_on_c, 0, 70, 0
1, 170400, Note_on_c, 0, 71, 70
1, 170400, Note_on_c, 0, 62, 38
1, 170406, Control_c, 0, 64, 0
1, 170478, Control_c, 0, 64, 127
1, 170520, Tempo, 944882
1, 170640, Tempo, 1043478
1, 170640, Note_on_c, 0, 62, 0
1, 170640, Note_on_c, 0, 78, 0
1, 170640, Note_on_c, 0, 66, 0
1, 170640, Note_on_c, 0, 71, 0
1, 170640, Note_on_c, 0, 82, 77
1, 170640, Note_on_c, 0, 73, 65
1, 170640, Note_on_c, 0, 66, 38
1, 170640, Note_on_c, 0, 64, 32
1, 170640, Note_on_c, 0, 61, 32
1, 170652, Control_c, 0, 64, 0
1, 170697, Control_c, 0, 64, 127
1, 170870, Note_on_c, 0, 66, 0
1, 170880, Tempo, 944882
1, 170880, Note_on_c, 0, 64, 0
1, 170880, Note_on_c, 0, 82, 0
1, 170880, Note_on_c, 0, 73, 0
1, 170880, Note_on_c, 0, 61, 0
1, 170880, Note_on_c, 0, 83, 81
1, 170880, Note_on_c, 0, 74, 68
1, 170880, Note_on_c, 0, 62, 38
1, 170880, Note_on_c, 0, 66, 45
1, 170880, Note_on_c, 0, 59, 38
1, 170890, Control_c, 0, 64, 0
1, 170986, Control_c, 0, 64, 127
1, 171110, Note_on_c, 0, 62, 0
1, 171120, Tempo, 1000000
1, 171120, Note_on_c, 0, 83, 0
1, 171120, Note_on_c, 0, 59, 0
1, 171120, Note_on_c, 0, 74, 0
1, 171120, Note_on_c, 0, 78, 60
1, 171120, Note_on_c, 0, 71, 51
1, 171120, Note_on_c, 0, 62, 37
1, 171240, Tempo, 1121495
1, 171240, Note_on_c, 0, 78, 0
1, 171240, Note_on_c, 0, 74, 45
1, 171360, Tempo, 1034483
1, 171360, Note_on_c, 0, 74, 0
1, 171360, Note_on_c, 0, 62, 0
1, 171360, Note_on_c, 0, 71, 0
1, 171360, Note_on_c, 0, 66, 0
1, 171360, Note_on_c, 0, 69, 46
1, 171360, Note_on_c, 0, 73, 55
1, 171360, Note_on_c, 0, 63, 42
1, 171360, Control_c, 0, 64, 0
1, 171558, Control_c, 0, 64, 127
1, 171840, Note_on_c, 0, 63, 0
1, 171840, Note_on_c, 0, 73, 0
1, 171840, Note_on_c, 0, 69, 0
1, 171840, Note_on_c, 0, 68, 43
1, 171840, Note_on_c, 0, 71, 51
1, 171840, Note_on_c, 0, 64, 39
1, 171855, Control_c, 0, 64, 0
1, 171900, Control_c, 0, 64, 127
1, 172080, Tempo, 960000
1, 172080, Note_on_c, 0, 64, 0
1, 172080, Note_on_c, 0, 71, 0
1, 172080, Note_on_c, 0, 68, 0
1, 172080, Note_on_c, 0, 64, 60
1, 172080, Note_on_c, 0, 52, 51
1, 172087, Control_c, 0, 64, 0
1, 172200, Note_on_c, 0, 63, 55
1, 172200, Note_on_c, 0, 51, 46
1, 172220, Note_on_c, 0, 52, 0
1, 172220, Note_on_c, 0, 64, 0
1, 172290, Note_on_c, 0, 63, 0
1, 172290, Note_on_c, 0, 51, 0
1, 172320, Note_on_c, 0, 64, 60
1, 172320, Note_on_c, 0, 52, 51
1, 172330, Control_c, 0, 64, 0
1, 172377, Control_c, 0, 64, 127
1, 172440, Note_on_c, 0, 52, 0
1, 172440, Note_on_c, 0, 64, 0
1, 172440, Note_on_c, 0, 59, 54
1, 172440, Note_on_c, 0, 47, 44
1, 172560, Note_on_c, 0, 47, 0
1, 172560, Note_on_c, 0, 59, 0
1, 172560, Note_on_c, 0, 57, 55
1, 172560, Note_on_c, 0, 45, 47
1, 172563, Control_c, 0, 64, 0
1, 172590, Note_on_c, 0, 45, 0
1, 172590, Note_on_c, 0, 57, 0
1, 172590, Note_on_c, 0, 59, 56
1, 172590, Note_on_c, 0, 47, 47
1, 172601, Control_c, 0, 64, 127
1, 172620, Note_on_c, 0, 47, 0
1, 172620, Note_on_c, 0, 59, 0
1, 172620, Note_on_c, 0, 57, 60
1, 172620, Note_on_c, 0, 45, 51
1, 172680, Tempo, 1008403
1, 172680, Note_on_c, 0, 45, 0
1, 172680, Note_on_c, 0, 57, 0
1, 172680, Note_on_c, 0, 56, 56
1, 172680, Note_on_c, 0, 44, 47
1, 172686, Control_c, 0, 64, 0
1, 172725, Note_on_c, 0, 44, 0
1, 172725, Note_on_c, 0, 56, 0
1, 172740, Note_on_c, 0, 56, 51
1, 172740, Note_on_c, 0, 44, 43
1, 172800, Tempo, 1061947
1, 172800, Note_on_c, 0, 44, 0
1, 172800, Note_on_c, 0, 56, 0
1, 172800, Note_on_c, 0, 64, 64
1, 172800, Note_on_c, 0, 52, 54
1, 172832, Control_c, 0, 64, 127
1, 172920, Note_on_c, 0, 52, 0
1, 172920, Note_on_c, 0, 64, 0
1, 173040, Note_on_c, 0, 64, 68
1, 173040, Note_on_c, 0, 52, 56
1, 173510, Note_on_c, 0, 52, 0
1, 173510, Note_on_c, 0, 64, 0
1, 173520, Tempo, 960000
1, 173520, Note_on_c, 0, 64, 60
1, 173520, Note_on_c, 0, 52, 51
1, 173527, Control_c, 0, 64, 0
1, 173640, Note_on_c, 0, 63, 55
1, 173640, Note_on_c, 0, 51, 46
1, 173660, Note_on_c, 0, 52, 0
1, 173660, Note_on_c, 0, 64, 0
1, 173730, Note_on_c, 0, 63, 0
1, 173730, Note_on_c, 0, 51, 0
1, 173760, Note_on_c, 0, 64, 60
1, 173760, Note_on_c, 0, 52, 51
1, 173770, Control_c, 0, 64, 0
1, 173817, Control_c, 0, 64, 127
1, 173880, Note_on_c, 0, 52, 0
1, 173880, Note_on_c, 0, 64, 0
1, 173880, Note_on_c, 0, 60, 54
1, 173880, Note_on_c, 0, 48, 44
1, 174000, Note_on_c, 0, 48, 0
1, 174000, Note_on_c, 0, 60, 0
1, 174000, Note_on_c, 0, 59, 55
1, 174000, Note_on_c, 0, 47, 47
1, 174003, Control_c, 0, 64, 0
1, 174030, Note_on_c, 0, 47, 0
1, 174030, Note_on_c, 0, 59, 0
1, 174030, Note_on_c, 0, 60, 56
1, 174030, Note_on_c, 0, 48, 47
1, 174041, Control_c, 0, 64, 127
1, 174060, Note_on_c, 0, 48, 0
1, 174060, Note_on_c, 0, 60, 0
1, 174060, Note_on_c, 0, 59, 60
1, 174060, Note_on_c, 0, 47, 51
1, 174120, Tempo, 1008403
1, 174120, Note_on_c, 0, 47, 0
1, 174120, Note_on_c, 0, 59, 0
1, 174120, Note_on_c, 0, 57, 56
1, 174120, Note_on_c, 0, 45, 47
1, 174126, Control_c, 0, 64, 0
1, 174165, Note_on_c, 0, 45, 0
1, 174165, Note_on_c, 0, 57, 0
1, 174180, Note_on_c, 0, 57, 51
1, 174180, Note_on_c, 0, 45, 43
1, 174240, Tempo, 1061947
1, 174240, Note_on_c, 0, 45, 0
1, 174240, Note_on_c, 0, 57, 0
1, 174240, Note_on_c, 0, 65, 64
1, 174240, Note_on_c, 0, 53, 54
1, 174272, Control_c, 0, 64, 127
1, 174360, Note_on_c, 0, 53, 0
1, 174360, Note_on_c, 0, 65, 0
1, 174480, Note_on_c, 0, 65, 68
1, 174480, Note_on_c, 0, 53, 56
1, 174950, Note_on_c, 0, 53, 0
1, 174950, Note_on_c, 0, 65, 0
1, 174960, Tempo, 960000
1, 174960, Note_on_c, 0, 65, 66
1, 174960, Note_on_c, 0, 53, 56
1, 174967, Control_c, 0, 64, 0
1, 175080, Note_on_c, 0, 64, 61
1, 175080, Note_on_c, 0, 52, 51
1, 175100, Note_on_c, 0, 53, 0
1, 175100, Note_on_c, 0, 65, 0
1, 175170, Note_on_c, 0, 64, 0
1, 175170, Note_on_c, 0, 52, 0
1, 175200, Note_on_c, 0, 65, 68
1, 175200, Note_on_c, 0, 53, 58
1, 175210, Control_c, 0, 64, 0
1, 175257, Control_c, 0, 64, 127
1, 175320, Note_on_c, 0, 53, 0
1, 175320, Note_on_c, 0, 65, 0
1, 175320, Note_on_c, 0, 62, 62
1, 175320, Note_on_c, 0, 50, 51
1, 175440, Note_on_c, 0, 50, 0
1, 175440, Note_on_c, 0, 62, 0
1, 175440, Note_on_c, 0, 60, 65
1, 175440, Note_on_c, 0, 48, 55
1, 175443, Control_c, 0, 64, 0
1, 175470, Note_on_c, 0, 48, 0
1, 175470, Note_on_c, 0, 60, 0
1, 175470, Note_on_c, 0, 62, 66
1, 175470, Note_on_c, 0, 50, 55
1, 175481, Control_c, 0, 64, 127
1, 175500, Note_on_c, 0, 50, 0
1, 175500, Note_on_c, 0, 62, 0
1, 175500, Note_on_c, 0, 60, 72
1, 175500, Note_on_c, 0, 48, 61
1, 175560, Tempo, 1008403
1, 175560, Note_on_c, 0, 48, 0
1, 175560, Note_on_c, 0, 60, 0
1, 175560, Note_on_c, 0, 59, 67
1, 175560, Note_on_c, 0, 47, 56
1, 175566, Control_c, 0, 64, 0
1, 175605, Note_on_c, 0, 47, 0
1, 175605, Note_on_c, 0, 59, 0
1, 175620, Note_on_c, 0, 59, 62
1, 175620, Note_on_c, 0, 47, 52
1, 175680, Tempo, 1034483
1, 175680, Note_on_c, 0, 47, 0
1, 175680, Note_on_c, 0, 59, 0
1, 175680, Note_on_c, 0, 67, 78
1, 175680, Note_on_c, 0, 55, 66
1, 175712, Control_c, 0, 64, 127
1, 175910, Note_on_c, 0, 55, 0
1, 175910, Note_on_c, 0, 67, 0
1, 175920, Tempo, 1081081
1, 175920, Note_on_c, 0, 62, 42
1, 175920, Note_on_c, 0, 67, 42
1, 175920, Note_on_c, 0, 71, 50
1, 175920, Note_on_c, 0, 53, 34
1, 175920, Note_on_c, 0, 55, 40
1, 176148, Note_on_c, 0, 55, 0
1, 176148, Note_on_c, 0, 71, 0
1, 176148, Note_on_c, 0, 62, 0
1, 176148, Note_on_c, 0, 67, 0
1, 176148, Note_on_c, 0, 53, 0
1, 176160, Note_on_c, 0, 60, 42
1, 176160, Note_on_c, 0, 67, 42
1, 176160, Note_on_c, 0, 72, 50
1, 176160, Note_on_c, 0, 52, 34
1, 176160, Note_on_c, 0, 55, 40
1, 176171, Control_c, 0, 64, 0
1, 176229, Control_c, 0, 64, 127
1, 176388, Note_on_c, 0, 55, 0
1, 176388, Note_on_c, 0, 72, 0
1, 176388, Note_on_c, 0, 60, 0
1, 176388, Note_on_c, 0, 67, 0
1, 176388, Note_on_c, 0, 52, 0
1, 176400, Tempo, 1034483
1, 176400, Note_on_c, 0, 62, 46
1, 176400, Note_on_c, 0, 67, 46
1, 176400, Note_on_c, 0, 74, 55
1, 176400, Note_on_c, 0, 47, 38
1, 176400, Note_on_c, 0, 55, 45
1, 176411, Control_c, 0, 64, 0
1, 176469, Control_c, 0, 64, 127
1, 176628, Note_on_c, 0, 55, 0
1, 176628, Note_on_c, 0, 74, 0
1, 176628, Note_on_c, 0, 62, 0
1, 176628, Note_on_c, 0, 67, 0
1, 176628, Note_on_c, 0, 47, 0
1, 176640, Tempo, 1061947
1, 176640, Note_on_c, 0, 64, 53
1, 176640, Note_on_c, 0, 67, 53
1, 176640, Note_on_c, 0, 76, 63
1, 176640, Note_on_c, 0, 48, 43
1, 176640, Note_on_c, 0, 55, 51
1, 176648, Control_c, 0, 64, 0
1, 176692, Control_c, 0, 64, 127
1, 176868, Note_on_c, 0, 55, 0
1, 176868, Note_on_c, 0, 76, 0
1, 176868, Note_on_c, 0, 64, 0
1, 176868, Note_on_c, 0, 67, 0
1, 176868, Note_on_c, 0, 48, 0
1, 176880, Tempo, 1090909
1, 176880, Note_on_c, 0, 79, 59
1, 176880, Note_on_c, 0, 67, 50
1, 176880, Note_on_c, 0, 71, 50
1, 176880, Note_on_c, 0, 50, 34
1, 176880, Note_on_c, 0, 55, 41
1, 176888, Control_c, 0, 64, 0
1, 176926, Control_c, 0, 64, 127
1, 177000, Tempo, 1348315
1, 177000, Note_on_c, 0, 79, 0
1, 177000, Note_on_c, 0, 77, 52
1, 177108, Note_on_c, 0, 50, 0
1, 177108, Note_on_c, 0, 55, 0
1, 177108, Note_on_c, 0, 67, 0
1, 177108, Note_on_c, 0, 71, 0
1, 177110, Note_on_c, 0, 77, 0
1, 177120, Tempo, 1142857
1, 177120, Note_on_c, 0, 67, 42
1, 177120, Note_on_c, 0, 71, 42
1, 177120, Note_on_c, 0, 77, 50
1, 177120, Note_on_c, 0, 50, 34
1, 177120, Note_on_c, 0, 55, 40
1, 177120, Control_c, 0, 64, 0
1, 177269, Control_c, 0, 64, 127
1, 177600, Tempo, 1034483
1, 177600, Note_on_c, 0, 50, 0
1, 177600, Note_on_c, 0, 77, 0
1, 177600, Note_on_c, 0, 71, 0
1, 177600, Note_on_c, 0, 72, 37
1, 177600, Note_on_c, 0, 76, 44
1, 177600, Note_on_c, 0, 48, 35
1, 177611, Control_c, 0, 64, 0
1, 177840, Tempo, 952381
1, 177840, Note_on_c, 0, 48, 0
1, 177840, Note_on_c, 0, 72, 0
1, 177840, Note_on_c, 0, 55, 0
1, 177840, Note_on_c, 0, 67, 0
1, 177840, Note_on_c, 0, 76, 0
1, 177840, Note_on_c, 0, 67, 62
1, 177840, Note_on_c, 0, 76, 62
1, 177840, Note_on_c, 0, 79, 73
1, 177840, Note_on_c, 0, 43, 45
1, 177840, Note_on_c, 0, 55, 53
1, 177853, Control_c, 0, 64, 0
1, 177944, Control_c, 0, 64, 127
1, 178070, Note_on_c, 0, 43, 0
1, 178070, Note_on_c, 0, 79, 0
1, 178070, Note_on_c, 0, 67, 0
1, 178070, Note_on_c, 0, 76, 0
1, 178080, Note_on_c, 0, 72, 67
1, 178080, Note_on_c, 0, 79, 67
1, 178080, Note_on_c, 0, 84, 80
1, 178080, Note_on_c, 0, 45, 48
1, 178080, Note_on_c, 0, 57, 57
1, 178094, Control_c, 0, 64, 0
1, 178152, Control_c, 0, 64, 127
1, 178310, Note_on_c, 0, 79, 0
1, 178310, Note_on_c, 0, 55, 0
1, 178320, Tempo, 975610
1, 178320, Note_on_c, 0, 84, 0
1, 178320, Note_on_c, 0, 72, 0
1, 178320, Note_on_c, 0, 57, 0
1, 178320, Note_on_c, 0, 45, 0
1, 178320, Note_on_c, 0, 79, 85
1, 178320, Note_on_c, 0, 74, 71
1, 178320, Note_on_c, 0, 86, 85
1, 178320, Note_on_c, 0, 47, 50
1, 178320, Note_on_c, 0, 55, 50
1, 178320, Note_on_c, 0, 59, 60
1, 178326, Control_c, 0, 64, 0
1, 178392, Control_c, 0, 64, 127
1, 178536, Note_on_c, 0, 59, 0
1, 178536, Note_on_c, 0, 74, 0
1, 178536, Note_on_c, 0, 79, 0
1, 178536, Note_on_c, 0, 86, 0
1, 178536, Note_on_c, 0, 55, 0
1, 178560, Tempo, 1052632
1, 178560, Note_on_c, 0, 47, 0
1, 178560, Note_on_c, 0, 76, 80
1, 178560, Note_on_c, 0, 79, 80
1, 178560, Note_on_c, 0, 88, 96
1, 178560, Note_on_c, 0, 48, 56
1, 178560, Note_on_c, 0, 55, 56
1, 178560, Note_on_c, 0, 60, 66
1, 178563, Control_c, 0, 64, 0
1, 178652, Control_c, 0, 64, 127
1, 178740, Note_on_c, 0, 60, 0
1, 178740, Note_on_c, 0, 79, 0
1, 178740, Note_on_c, 0, 88, 0
1, 178740, Note_on_c, 0, 76, 0
1, 178740, Note_on_c, 0, 55, 0
1, 178740, Note_on_c, 0, 48, 0
1, 178800, Tempo, 967742
1, 178800, Note_on_c, 0, 76, 75
1, 178800, Note_on_c, 0, 79, 75
1, 178800, Note_on_c, 0, 88, 89
1, 178800, Note_on_c, 0, 48, 52
1, 178800, Note_on_c, 0, 55, 52
1, 178800, Note_on_c, 0, 60, 61
1, 179260, Note_on_c, 0, 60, 0
1, 179260, Note_on_c, 0, 79, 0
1, 179260, Note_on_c, 0, 88, 0
1, 179260, Note_on_c, 0, 76, 0
1, 179260, Note_on_c, 0, 55, 0
1, 179260, Note_on_c, 0, 48, 0
1, 179280, Tempo, 923077
1, 179280, Note_on_c, 0, 72, 40
1, 179280, Note_on_c, 0, 76, 40
1, 179280, Note_on_c, 0, 84, 56
1, 179280, Note_on_c, 0, 52, 32
1, 179280, Note_on_c, 0, 60, 32
1, 179280, Note_on_c, 0, 64, 38
1, 179285, Control_c, 0, 64, 0
1, 179388, Control_c, 0, 64, 127
1, 179520, Tempo, 902256
1, 179520, Note_on_c, 0, 52, 0
1, 179520, Note_on_c, 0, 84, 0
1, 179520, Note_on_c, 0, 79, 55
1, 179520, Note_on_c, 0, 55, 35
1, 179750, Note_on_c, 0, 55, 0
1, 179750, Note_on_c, 0, 76, 0
1, 179760, Tempo, 967742
1, 179760, Note_on_c, 0, 64, 0
1, 179760, Note_on_c, 0, 72, 0
1, 179760, Note_on_c, 0, 60, 0
1, 179760, Note_on_c, 0, 79, 0
1, 179760, Note_on_c, 0, 71, 37
1, 179760, Note_on_c, 0, 74, 37
1, 179760, Note_on_c, 0, 77, 48
1, 179760, Note_on_c, 0, 62, 34
1, 179760, Note_on_c, 0, 59, 28
1, 179760, Note_on_c, 0, 55, 28
1, 179770, Control_c, 0, 64, 0
1, 179848, Control_c, 0, 64, 127
1, 179976, Note_on_c, 0, 55, 0
1, 179976, Note_on_c, 0, 74, 0
1, 179976, Note_on_c, 0, 77, 0
1, 180000, Tempo, 1061947
1, 180000, Note_on_c, 0, 71, 0
1, 180000, Note_on_c, 0, 62, 0
1, 180000, Note_on_c, 0, 59, 0
1, 180000, Note_on_c, 0, 72, 55
1, 180000, Note_on_c, 0, 76, 73
1, 180000, Note_on_c, 0, 57, 39
1, 180000, Note_on_c, 0, 60, 49
1, 180008, Control_c, 0, 64, 0
1, 180096, Control_c, 0, 64, 127
1, 180180, Note_on_c, 0, 60, 0
1, 180180, Note_on_c, 0, 72, 0
1, 180180, Note_on_c, 0, 76, 0
1, 180180, Note_on_c, 0, 57, 0
1, 180240, Tempo, 1025641
1, 180240, Note_on_c, 0, 72, 38
1, 180240, Note_on_c, 0, 76, 50
1, 180240, Note_on_c, 0, 57, 27
1, 180240, Note_on_c, 0, 60, 34
1, 180720, Tempo, 991736
1, 180720, Note_on_c, 0, 60, 0
1, 180720, Note_on_c, 0, 72, 0
1, 180720, Note_on_c, 0, 76, 0
1, 180720, Note_on_c, 0, 57, 0
1, 180720, Note_on_c, 0, 65, 34
1, 180720, Note_on_c, 0, 67, 34
1, 180720, Note_on_c, 0, 74, 47
1, 180720, Note_on_c, 0, 47, 27
1, 180720, Note_on_c, 0, 55, 32
1, 180725, Control_c, 0, 64, 0
1, 180828, Control_c, 0, 64, 127
1, 180960, Tempo, 991736
1, 180960, Note_on_c, 0, 47, 0
1, 180960, Note_on_c, 0, 74, 0
1, 180960, Note_on_c, 0, 65, 0
1, 180960, Note_on_c, 0, 64, 34
1, 180960, Note_on_c, 0, 72, 43
1, 180960, Note_on_c, 0, 48, 23
1, 180975, Control_c, 0, 64, 0
1, 181038, Control_c, 0, 64, 127
1, 181190, Note_on_c, 0, 48, 0
1, 181190, Note_on_c, 0, 67, 0
1, 181200, Tempo, 1142857
1, 181200, Note_on_c, 0, 55, 0
1, 181200, Note_on_c, 0, 64, 0
1, 181200, Note_on_c, 0, 72, 0
1, 181200, Note_on_c, 0, 59, 31
1, 181200, Note_on_c, 0, 67, 40
1, 181200, Note_on_c, 0, 55, 28
1, 181200, Note_on_c, 0, 50, 23
1, 181207, Control_c, 0, 64, 0
1, 181264, Control_c, 0, 64, 127
1, 181416, Note_on_c, 0, 67, 0
1, 181440, Tempo, 1061947
1, 181440, Note_on_c, 0, 59, 0
1, 181440, Note_on_c, 0, 50, 0
1, 181440, Note_on_c, 0, 60, 31
1, 181440, Note_on_c, 0, 64, 41
1, 181440, Note_on_c, 0, 48, 28
1, 181448, Control_c, 0, 64, 0
1, 181536, Control_c, 0, 64, 127
1, 181620, Note_on_c, 0, 48, 0
1, 181620, Note_on_c, 0, 55, 0
1, 181620, Note_on_c, 0, 60, 0
1, 181620, Note_on_c, 0, 64, 0
1, 181680, Tempo, 1025641
1, 181680, Note_on_c, 0, 60, 30
1, 181680, Note_on_c, 0, 64, 39
1, 181680, Note_on_c, 0, 48, 21
1, 181680, Note_on_c, 0, 55, 27
1, 181920, Tempo, 1052632
1, 182160, Tempo, 991736
1, 182160, Note_on_c, 0, 55, 0
1, 182160, Note_on_c, 0, 60, 0
1, 182160, Note_on_c, 0, 64, 0
1, 182160, Note_on_c, 0, 48, 0
1, 182160, Note_on_c, 0, 64, 41
1, 182160, Note_on_c, 0, 60, 34
1, 182160, Note_on_c, 0, 55, 38
1, 182160, Note_on_c, 0, 48, 38
1, 182164, Control_c, 0, 64, 0
1, 182206, Control_c, 0, 64, 127
1, 182280, Note_on_c, 0, 48, 0
1, 182280, Note_on_c, 0, 64, 0
1, 182280, Note_on_c, 0, 60, 0
1, 182280, Note_on_c, 0, 59, 29
1, 182280, Note_on_c, 0, 62, 35
1, 182280, Note_on_c, 0, 43, 34
1, 182294, Control_c, 0, 64, 0
1, 182388, Note_on_c, 0, 43, 0
1, 182388, Note_on_c, 0, 62, 0
1, 182388, Note_on_c, 0, 59, 0
1, 182390, Note_on_c, 0, 55, 0
1, 182400, Tempo, 975610
1, 182400, Note_on_c, 0, 59, 34
1, 182400, Note_on_c, 0, 62, 41
1, 182400, Note_on_c, 0, 55, 38
1, 182400, Note_on_c, 0, 43, 40
1, 182428, Control_c, 0, 64, 127
1, 182520, Note_on_c, 0, 43, 0
1, 182520, Note_on_c, 0, 59, 0
1, 182520, Note_on_c, 0, 62, 0
1, 182520, Note_on_c, 0, 60, 30
1, 182520, Note_on_c, 0, 64, 36
1, 182520, Note_on_c, 0, 48, 35
1, 182531, Control_c, 0, 64, 0
1, 182628, Note_on_c, 0, 48, 0
1, 182628, Note_on_c, 0, 64, 0
1, 182628, Note_on_c, 0, 60, 0
1, 182630, Note_on_c, 0, 55, 0
1, 182640, Tempo, 1034483
1, 182640, Note_on_c, 0, 60, 34
1, 182640, Note_on_c, 0, 64, 41
1, 182640, Note_on_c, 0, 55, 38
1, 182640, Note_on_c, 0, 48, 40
1, 182693, Control_c, 0, 64, 127
1, 182760, Tempo, 1212121
1, 182760, Note_on_c, 0, 48, 0
1, 182760, Note_on_c, 0, 60, 0
1, 182760, Note_on_c, 0, 64, 0
1, 182760, Note_on_c, 0, 59, 29
1, 182760, Note_on_c, 0, 65, 35
1, 182760, Note_on_c, 0, 50, 34
1, 182774, Control_c, 0, 64, 0
1, 182817, Control_c, 0, 64, 127
1, 182870, Note_on_c, 0, 55, 0
1, 182880, Tempo, 1025641
1, 182880, Note_on_c, 0, 59, 0
1, 182880, Note_on_c, 0, 65, 0
1, 182880, Note_on_c, 0, 50, 0
1, 182880, Note_on_c, 0, 60, 34
1, 182880, Note_on_c, 0, 64, 41
1, 182880, Note_on_c, 0, 48, 34
1, 182880, Note_on_c, 0, 55, 40
1, 182880, Control_c, 0, 64, 0
1, 183120, Tempo, 991736
1, 183120, Note_on_c, 0, 55, 0
1, 183120, Note_on_c, 0, 60, 0
1, 183120, Note_on_c, 0, 64, 0
1, 183120, Note_on_c, 0, 48, 0
1, 183120, Note_on_c, 0, 76, 45
1, 183120, Note_on_c, 0, 72, 37
1, 183120, Note_on_c, 0, 67, 41
1, 183120, Note_on_c, 0, 60, 41
1, 183124, Control_c, 0, 64, 0
1, 183166, Control_c, 0, 64, 127
1, 183240, Note_on_c, 0, 60, 0
1, 183240, Note_on_c, 0, 76, 0
1, 183240, Note_on_c, 0, 72, 0
1, 183240, Note_on_c, 0, 71, 31
1, 183240, Note_on_c, 0, 74, 38
1, 183240, Note_on_c, 0, 55, 37
1, 183254, Control_c, 0, 64, 0
1, 183348, Note_on_c, 0, 55, 0
1, 183348, Note_on_c, 0, 74, 0
1, 183348, Note_on_c, 0, 71, 0
1, 183350, Note_on_c, 0, 67, 0
1, 183360, Tempo, 975610
1, 183360, Note_on_c, 0, 71, 37
1, 183360, Note_on_c, 0, 74, 45
1, 183360, Note_on_c, 0, 67, 41
1, 183360, Note_on_c, 0, 55, 44
1, 183388, Control_c, 0, 64, 127
1, 183480, Note_on_c, 0, 55, 0
1, 183480, Note_on_c, 0, 71, 0
1, 183480, Note_on_c, 0, 74, 0
1, 183480, Note_on_c, 0, 72, 33
1, 183480, Note_on_c, 0, 76, 39
1, 183480, Note_on_c, 0, 60, 38
1, 183491, Control_c, 0, 64, 0
1, 183588, Note_on_c, 0, 60, 0
1, 183588, Note_on_c, 0, 76, 0
1, 183588, Note_on_c, 0, 72, 0
1, 183590, Note_on_c, 0, 67, 0
1, 183600, Tempo, 1034483
1, 183600, Note_on_c, 0, 71, 37
1, 183600, Note_on_c, 0, 79, 49
1, 183600, Note_on_c, 0, 67, 41
1, 183600, Note_on_c, 0, 64, 44
1, 183653, Control_c, 0, 64, 127
1, 183720, Tempo, 1212121
1, 183720, Note_on_c, 0, 64, 0
1, 183720, Note_on_c, 0, 79, 0
1, 183720, Note_on_c, 0, 77, 41
1, 183720, Note_on_c, 0, 62, 37
1, 183734, Control_c, 0, 64, 0
1, 183777, Control_c, 0, 64, 127
1, 183830, Note_on_c, 0, 67, 0
1, 183840, Tempo, 1034483
1, 183840, Note_on_c, 0, 71, 0
1, 183840, Note_on_c, 0, 77, 0
1, 183840, Note_on_c, 0, 62, 0
1, 183840, Note_on_c, 0, 72, 37
1, 183840, Note_on_c, 0, 76, 45
1, 183840, Note_on_c, 0, 60, 37
1, 183840, Note_on_c, 0, 67, 44
1, 183840, Control_c, 0, 64, 0
1, 184080, Tempo, 991736
1, 184080, Note_on_c, 0, 67, 0
1, 184080, Note_on_c, 0, 72, 0
1, 184080, Note_on_c, 0, 76, 0
1, 184080, Note_on_c, 0, 60, 0
1, 184080, Note_on_c, 0, 64, 38
1, 184080, Note_on_c, 0, 60, 31
1, 184080, Note_on_c, 0, 55, 34
1, 184080, Note_on_c, 0, 48, 34
1, 184084, Control_c, 0, 64, 0
1, 184126, Control_c, 0, 64, 127
1, 184200, Note_on_c, 0, 48, 0
1, 184200, Note_on_c, 0, 64, 0
1, 184200, Note_on_c, 0, 60, 0
1, 184200, Note_on_c, 0, 59, 26
1, 184200, Note_on_c, 0, 62, 32
1, 184200, Note_on_c, 0, 43, 31
1, 184214, Control_c, 0, 64, 0
1, 184308, Note_on_c, 0, 43, 0
1, 184308, Note_on_c, 0, 62, 0
1, 184308, Note_on_c, 0, 59, 0
1, 184310, Note_on_c, 0, 55, 0
1, 184320, Tempo, 975610
1, 184320, Note_on_c, 0, 59, 31
1, 184320, Note_on_c, 0, 62, 38
1, 184320, Note_on_c, 0, 55, 34
1, 184320, Note_on_c, 0, 43, 37
1, 184348, Control_c, 0, 64, 127
1, 184440, Note_on_c, 0, 43, 0
1, 184440, Note_on_c, 0, 59, 0
1, 184440, Note_on_c, 0, 62, 0
1, 184440, Note_on_c, 0, 60, 28
1, 184440, Note_on_c, 0, 64, 33
1, 184440, Note_on_c, 0, 48, 32
1, 184451, Control_c, 0, 64, 0
1, 184548, Note_on_c, 0, 48, 0
1, 184548, Note_on_c, 0, 64, 0
1, 184548, Note_on_c, 0, 60, 0
1, 184550, Note_on_c, 0, 55, 0
1, 184560, Tempo, 1034483
1, 184560, Note_on_c, 0, 59, 31
1, 184560, Note_on_c, 0, 67, 41
1, 184560, Note_on_c, 0, 55, 34
1, 184560, Note_on_c, 0, 52, 37
1, 184613, Control_c, 0, 64, 127
1, 184680, Tempo, 1212121
1, 184680, Note_on_c, 0, 52, 0
1, 184680, Note_on_c, 0, 67, 0
1, 184680, Note_on_c, 0, 65, 34
1, 184680, Note_on_c, 0, 50, 31
1, 184694, Control_c, 0, 64, 0
1, 184737, Control_c, 0, 64, 127
1, 184790, Note_on_c, 0, 55, 0
1, 184800, Tempo, 960000
1, 184800, Note_on_c, 0, 59, 0
1, 184800, Note_on_c, 0, 65, 0
1, 184800, Note_on_c, 0, 50, 0
1, 184800, Note_on_c, 0, 60, 31
1, 184800, Note_on_c, 0, 64, 38
1, 184800, Note_on_c, 0, 48, 31
1, 184800, Note_on_c, 0, 55, 37
1, 184800, Control_c, 0, 64, 0
1, 184844, Control_c, 0, 64, 127
1, 185040, Note_on_c, 0, 55, 0
1, 185040, Note_on_c, 0, 60, 0
1, 185040, Note_on_c, 0, 64, 0
1, 185040, Note_on_c, 0, 48, 0
1, 185040, Note_on_c, 0, 72, 45
1, 185040, Note_on_c, 0, 76, 45
1, 185040, Note_on_c, 0, 60, 31
1, 185040, Note_on_c, 0, 67, 37
1, 185048, Control_c, 0, 64, 0
1, 185091, Control_c, 0, 64, 127
1, 185256, Note_on_c, 0, 67, 0
1, 185256, Note_on_c, 0, 60, 0
1, 185280, Tempo, 1052632
1, 185280, Note_on_c, 0, 76, 0
1, 185280, Note_on_c, 0, 72, 0
1, 185280, Note_on_c, 0, 74, 49
1, 185280, Note_on_c, 0, 76, 49
1, 185280, Note_on_c, 0, 59, 32
1, 185280, Note_on_c, 0, 68, 38
1, 185286, Control_c, 0, 64, 0
1, 185337, Control_c, 0, 64, 127
1, 185400, Note_on_c, 0, 76, 0
1, 185400, Note_on_c, 0, 74, 0
1, 185400, Note_on_c, 0, 78, 48
1, 185430, Note_on_c, 0, 78, 0
1, 185430, Note_on_c, 0, 76, 48
1, 185460, Note_on_c, 0, 76, 0
1, 185460, Note_on_c, 0, 74, 48
1, 185463, Note_on_c, 0, 74, 0
1, 185490, Note_on_c, 0, 76, 48
1, 185496, Note_on_c, 0, 59, 0
1, 185496, Note_on_c, 0, 68, 0
1, 185520, Tempo, 960000
1, 185520, Note_on_c, 0, 76, 0
1, 185520, Note_on_c, 0, 78, 61
1, 185520, Note_on_c, 0, 74, 51
1, 185520, Note_on_c, 0, 59, 35
1, 185520, Note_on_c, 0, 68, 42
1, 185526, Control_c, 0, 64, 0
1, 185571, Control_c, 0, 64, 127
1, 185700, Note_on_c, 0, 78, 0
1, 185700, Note_on_c, 0, 76, 53
1, 185736, Note_on_c, 0, 68, 0
1, 185736, Note_on_c, 0, 59, 0
1, 185760, Tempo, 952381
1, 185760, Note_on_c, 0, 74, 0
1, 185760, Note_on_c, 0, 76, 0
1, 185760, Note_on_c, 0, 73, 49
1, 185760, Note_on_c, 0, 76, 68
1, 185760, Note_on_c, 0, 57, 34
1, 185760, Note_on_c, 0, 69, 40
1, 185760, Control_c, 0, 64, 0
1, 185820, Control_c, 0, 64, 127
1, 185880, Tempo, 944882
1, 185880, Note_on_c, 0, 76, 0
1, 185880, Note_on_c, 0, 81, 61
1, 185976, Note_on_c, 0, 69, 0
1, 185976, Note_on_c, 0, 57, 0
1, 185990, Note_on_c, 0, 73, 0
1, 186000, Note_on_c, 0, 81, 0
1, 186000, Note_on_c, 0, 73, 45
1, 186000, Note_on_c, 0, 76, 64
1, 186000, Note_on_c, 0, 57, 28
1, 186000, Note_on_c, 0, 64, 28
1, 186000, Note_on_c, 0, 69, 34
1, 186120, Tempo, 1071429
1, 186120, Note_on_c, 0, 76, 0
1, 186120, Note_on_c, 0, 85, 59
1, 186216, Note_on_c, 0, 64, 0
1, 186216, Note_on_c, 0, 69, 0
1, 186216, Note_on_c, 0, 57, 0
1, 186240, Tempo, 944882
1, 186240, Note_on_c, 0, 73, 0
1, 186240, Note_on_c, 0, 85, 0
1, 186240, Note_on_c, 0, 71, 39
1, 186240, Note_on_c, 0, 76, 39
1, 186240, Note_on_c, 0, 80, 56
1, 186240, Note_on_c, 0, 59, 28
1, 186240, Note_on_c, 0, 64, 28
1, 186240, Note_on_c, 0, 68, 33
1, 186252, Control_c, 0, 64, 0
1, 186364, Control_c, 0, 64, 127
1, 186720, Tempo, 944882
1, 186720, Note_on_c, 0, 68, 0
1, 186720, Note_on_c, 0, 76, 0
1, 186720, Note_on_c, 0, 80, 0
1, 186720, Note_on_c, 0, 71, 0
1, 186720, Note_on_c, 0, 64, 0
1, 186720, Note_on_c, 0, 59, 0
1, 186720, Note_on_c, 0, 69, 39
1, 186720, Note_on_c, 0, 75, 39
1, 186720, Note_on_c, 0, 80, 55
1, 186720, Note_on_c, 0, 47, 28
1, 186720, Note_on_c, 0, 59, 33
1, 186727, Control_c, 0, 64, 0
1, 186808, Control_c, 0, 64, 127
1, 186960, Note_on_c, 0, 80, 0
1, 186960, Note_on_c, 0, 78, 48
1, 187080, Tempo, 1111111
1, 187140, Note_on_c, 0, 78, 0
1, 187140, Note_on_c, 0, 76, 45
1, 187200, Tempo, 952381
1, 187200, Note_on_c, 0, 76, 0
1, 187200, Note_on_c, 0, 47, 0
1, 187200, Note_on_c, 0, 69, 0
1, 187200, Note_on_c, 0, 75, 0
1, 187200, Note_on_c, 0, 59, 0
1, 187200, Note_on_c, 0, 68, 48
1, 187200, Note_on_c, 0, 76, 48
1, 187200, Note_on_c, 0, 52, 28
1, 187200, Note_on_c, 0, 59, 34
1, 187210, Control_c, 0, 64, 0
1, 187299, Control_c, 0, 64, 127
1, 187560, Note_on_c, 0, 76, 0
1, 187560, Note_on_c, 0, 68, 0
1, 187560, Note_on_c, 0, 56, 34
1, 187668, Note_on_c, 0, 56, 0
1, 187680, Tempo, 916031
1, 187680, Note_on_c, 0, 52, 0
1, 187680, Note_on_c, 0, 59, 0
1, 187680, Note_on_c, 0, 59, 41
1, 187788, Note_on_c, 0, 59, 0
1, 187800, Note_on_c, 0, 64, 35
1, 187908, Note_on_c, 0, 64, 0
1, 187920, Tempo, 875912
1, 187920, Note_on_c, 0, 68, 41
1, 187920, Note_on_c, 0, 52, 31
1, 187920, Note_on_c, 0, 59, 31
1, 188040, Tempo, 1016949
1, 188040, Note_on_c, 0, 71, 33
1, 188160, Tempo, 937500
1, 188160, Note_on_c, 0, 71, 0
1, 188160, Note_on_c, 0, 68, 0
1, 188160, Note_on_c, 0, 52, 0
1, 188160, Note_on_c, 0, 59, 0
1, 188160, Note_on_c, 0, 69, 41
1, 188160, Note_on_c, 0, 73, 41
1, 188160, Note_on_c, 0, 61, 36
1, 188160, Note_on_c, 0, 52, 36
1, 188165, Control_c, 0, 64, 0
1, 188266, Control_c, 0, 64, 127
1, 188376, Note_on_c, 0, 52, 0
1, 188376, Note_on_c, 0, 69, 0
1, 188376, Note_on_c, 0, 73, 0
1, 188376, Note_on_c, 0, 61, 0
1, 188400, Tempo, 983607
1, 188400, Note_on_c, 0, 67, 36
1, 188400, Note_on_c, 0, 70, 36
1, 188400, Note_on_c, 0, 52, 33
1, 188400, Note_on_c, 0, 58, 33
1, 188406, Control_c, 0, 64, 0
1, 188485, Control_c, 0, 64, 127
1, 188616, Note_on_c, 0, 58, 0
1, 188616, Note_on_c, 0, 67, 0
1, 188616, Note_on_c, 0, 70, 0
1, 188616, Note_on_c, 0, 52, 0
1, 188640, Tempo, 952381
1, 188640, Note_on_c, 0, 68, 48
1, 188640, Note_on_c, 0, 71, 48
1, 188640, Note_on_c, 0, 52, 28
1, 188640, Note_on_c, 0, 59, 34
1, 188650, Control_c, 0, 64, 0
1, 188739, Control_c, 0, 64, 127
1, 188990, Note_on_c, 0, 59, 0
1, 189000, Note_on_c, 0, 68, 0
1, 189000, Note_on_c, 0, 71, 0
1, 189000, Note_on_c, 0, 59, 34
1, 189108, Note_on_c, 0, 59, 0
1, 189120, Tempo, 888889
1, 189120, Note_on_c, 0, 64, 41
1, 189228, Note_on_c, 0, 64, 0
1, 189240, Tempo, 857143
1, 189240, Note_on_c, 0, 68, 35
1, 189348, Note_on_c, 0, 68, 0
1, 189350, Note_on_c, 0, 52, 0
1, 189360, Note_on_c, 0, 68, 41
1, 189360, Note_on_c, 0, 71, 41
1, 189360, Note_on_c, 0, 59, 31
1, 189360, Note_on_c, 0, 52, 31
1, 189360, Note_on_c, 0, 64, 31
1, 189480, Tempo, 1016949
1, 189480, Note_on_c, 0, 71, 0
1, 189480, Note_on_c, 0, 76, 33
1, 189590, Note_on_c, 0, 68, 0
1, 189590, Note_on_c, 0, 59, 0
1, 189600, Tempo, 937500
1, 189600, Note_on_c, 0, 52, 0
1, 189600, Note_on_c, 0, 64, 0
1, 189600, Note_on_c, 0, 76, 0
1, 189600, Note_on_c, 0, 68, 41
1, 189600, Note_on_c, 0, 71, 41
1, 189600, Note_on_c, 0, 78, 45
1, 189600, Note_on_c, 0, 59, 36
1, 189600, Note_on_c, 0, 66, 36
1, 189600, Note_on_c, 0, 52, 36
1, 189605, Control_c, 0, 64, 0
1, 189706, Control_c, 0, 64, 127
1, 189816, Note_on_c, 0, 52, 0
1, 189816, Note_on_c, 0, 71, 0
1, 189816, Note_on_c, 0, 78, 0
1, 189816, Note_on_c, 0, 66, 0
1, 189830, Note_on_c, 0, 68, 0
1, 189830, Note_on_c, 0, 59, 0
1, 189840, Tempo, 1111111
1, 189840, Note_on_c, 0, 68, 36
1, 189840, Note_on_c, 0, 72, 36
1, 189840, Note_on_c, 0, 80, 43
1, 189840, Note_on_c, 0, 60, 33
1, 189840, Note_on_c, 0, 52, 33
1, 189840, Note_on_c, 0, 64, 33
1, 189846, Control_c, 0, 64, 0
1, 189925, Control_c, 0, 64, 127
1, 190056, Note_on_c, 0, 64, 0
1, 190056, Note_on_c, 0, 72, 0
1, 190056, Note_on_c, 0, 80, 0
1, 190056, Note_on_c, 0, 52, 0
1, 190070, Tempo, 983607
1, 190080, Note_on_c, 0, 68, 0
1, 190080, Note_on_c, 0, 60, 0
1, 190080, Note_on_c, 0, 69, 43
1, 190080, Note_on_c, 0, 73, 43
1, 190080, Note_on_c, 0, 80, 51
1, 190080, Note_on_c, 0, 57, 37
1, 190080, Note_on_c, 0, 61, 37
1, 190080, Note_on_c, 0, 65, 44
1, 190087, Control_c, 0, 64, 0
1, 190172, Control_c, 0, 64, 127
1, 190560, Note_on_c, 0, 65, 0
1, 190560, Note_on_c, 0, 80, 0
1, 190560, Note_on_c, 0, 78, 47
1, 190574, Control_c, 0, 64, 0
1, 190680, Tempo, 916031
1, 190680, Note_on_c, 0, 78, 0
1, 190680, Note_on_c, 0, 61, 0
1, 190680, Note_on_c, 0, 69, 0
1, 190680, Note_on_c, 0, 73, 0
1, 190680, Note_on_c, 0, 57, 0
1, 190680, Note_on_c, 0, 69, 41
1, 190788, Note_on_c, 0, 69, 0
1, 190800, Tempo, 875912
1, 190800, Note_on_c, 0, 69, 38
1, 190800, Note_on_c, 0, 73, 45
1, 190800, Note_on_c, 0, 57, 31
1, 190800, Note_on_c, 0, 61, 31
1, 190800, Control_c, 0, 64, 127
1, 190920, Tempo, 1016949
1, 190920, Note_on_c, 0, 76, 36
1, 191022, Note_on_c, 0, 69, 0
1, 191040, Tempo, 937500
1, 191040, Note_on_c, 0, 61, 0
1, 191040, Note_on_c, 0, 73, 0
1, 191040, Note_on_c, 0, 57, 0
1, 191040, Note_on_c, 0, 76, 0
1, 191040, Note_on_c, 0, 69, 39
1, 191040, Note_on_c, 0, 75, 46
1, 191040, Note_on_c, 0, 63, 36
1, 191040, Note_on_c, 0, 59, 36
1, 191045, Control_c, 0, 64, 0
1, 191146, Control_c, 0, 64, 127
1, 191256, Note_on_c, 0, 59, 0
1, 191256, Note_on_c, 0, 69, 0
1, 191256, Note_on_c, 0, 75, 0
1, 191256, Note_on_c, 0, 63, 0
1, 191280, Tempo, 983607
1, 191280, Note_on_c, 0, 69, 35
1, 191280, Note_on_c, 0, 73, 42
1, 191280, Note_on_c, 0, 61, 33
1, 191280, Note_on_c, 0, 64, 33
1, 191286, Control_c, 0, 64, 0
1, 191365, Control_c, 0, 64, 127
1, 191496, Note_on_c, 0, 64, 0
1, 191496, Note_on_c, 0, 69, 0
1, 191496, Note_on_c, 0, 73, 0
1, 191496, Note_on_c, 0, 61, 0
1, 191520, Tempo, 952381
1, 191520, Note_on_c, 0, 69, 45
1, 191520, Note_on_c, 0, 71, 53
1, 191520, Note_on_c, 0, 51, 28
1, 191520, Note_on_c, 0, 59, 34
1, 191530, Control_c, 0, 64, 0
1, 191619, Control_c, 0, 64, 127
1, 191760, Note_on_c, 0, 69, 0
1, 191880, Note_on_c, 0, 71, 0
1, 191880, Note_on_c, 0, 71, 40
1, 191988, Note_on_c, 0, 71, 0
1, 192000, Tempo, 888889
1, 192000, Note_on_c, 0, 75, 43
1, 192108, Note_on_c, 0, 75, 0
1, 192120, Tempo, 857143
1, 192120, Note_on_c, 0, 78, 45
1, 192228, Note_on_c, 0, 78, 0
1, 192230, Note_on_c, 0, 51, 0
1, 192230, Note_on_c, 0, 59, 0
1, 192240, Note_on_c, 0, 81, 47
1, 192240, Note_on_c, 0, 63, 31
1, 192240, Note_on_c, 0, 71, 31
1, 192360, Tempo, 1016949
1, 192360, Note_on_c, 0, 83, 49
1, 192420, Note_on_c, 0, 83, 0
1, 192420, Note_on_c, 0, 85, 44
1, 192450, Note_on_c, 0, 85, 0
1, 192450, Note_on_c, 0, 87, 44
1, 192470, Note_on_c, 0, 63, 0
1, 192470, Note_on_c, 0, 81, 0
1, 192480, Tempo, 937500
1, 192480, Note_on_c, 0, 71, 0
1, 192480, Note_on_c, 0, 87, 0
1, 192480, Note_on_c, 0, 81, 44
1, 192480, Note_on_c, 0, 85, 52
1, 192480, Note_on_c, 0, 63, 36
1, 192480, Note_on_c, 0, 73, 36
1, 192485, Control_c, 0, 64, 0
1, 192586, Control_c, 0, 64, 127
1, 192696, Note_on_c, 0, 73, 0
1, 192696, Note_on_c, 0, 81, 0
1, 192696, Note_on_c, 0, 85, 0
1, 192710, Note_on_c, 0, 63, 0
1, 192720, Tempo, 1111111
1, 192720, Note_on_c, 0, 81, 39
1, 192720, Note_on_c, 0, 83, 46
1, 192720, Note_on_c, 0, 63, 33
1, 192720, Note_on_c, 0, 71, 33
1, 192726, Control_c, 0, 64, 0
1, 192805, Control_c, 0, 64, 127
1, 192936, Note_on_c, 0, 71, 0
1, 192936, Note_on_c, 0, 81, 0
1, 192936, Note_on_c, 0, 83, 0
1, 192950, Tempo, 983607
1, 192960, Note_on_c, 0, 63, 0
1, 192960, Note_on_c, 0, 81, 45
1, 192960, Note_on_c, 0, 85, 54
1, 192960, Note_on_c, 0, 64, 37
1, 192960, Note_on_c, 0, 73, 44
1, 192967, Control_c, 0, 64, 0
1, 193080, Control_c, 0, 64, 127
1, 193440, Note_on_c, 0, 73, 0
1, 193440, Note_on_c, 0, 81, 0
1, 193440, Note_on_c, 0, 85, 0
1, 193440, Note_on_c, 0, 83, 56
1, 193440, Note_on_c, 0, 71, 44
1, 193449, Control_c, 0, 64, 0
1, 193553, Control_c, 0, 64, 127
1, 193560, Note_on_c, 0, 71, 0
1, 193560, Note_on_c, 0, 83, 0
1, 193560, Note_on_c, 0, 64, 0
1, 193560, Note_on_c, 0, 59, 55
1, 193680, Tempo, 937500
1, 193680, Note_on_c, 0, 59, 0
1, 193680, Note_on_c, 0, 64, 52
1, 193680, Note_on_c, 0, 68, 62
1, 193680, Note_on_c, 0, 56, 57
1, 193800, Tempo, 923077
1, 193800, Note_on_c, 0, 54, 60
1, 193920, Tempo, 923077
1, 193920, Note_on_c, 0, 54, 0
1, 193920, Note_on_c, 0, 73, 74
1, 193920, Note_on_c, 0, 52, 51
1, 193929, Control_c, 0, 64, 0
1, 194005, Control_c, 0, 64, 127
1, 194160, Tempo, 1081081
1, 194160, Note_on_c, 0, 52, 0
1, 194160, Note_on_c, 0, 64, 0
1, 194160, Note_on_c, 0, 56, 0
1, 194160, Note_on_c, 0, 68, 0
1, 194160, Note_on_c, 0, 73, 0
1, 194160, Note_on_c, 0, 66, 64
1, 194160, Note_on_c, 0, 68, 64
1, 194160, Note_on_c, 0, 72, 77
1, 194160, Note_on_c, 0, 60, 61
1, 194160, Note_on_c, 0, 56, 51
1, 194160, Note_on_c, 0, 51, 51
1, 194175, Control_c, 0, 64, 0
1, 194231, Control_c, 0, 64, 127
1, 194400, Tempo, 1061947
1, 194400, Note_on_c, 0, 51, 0
1, 194400, Note_on_c, 0, 68, 0
1, 194400, Note_on_c, 0, 72, 0
1, 194400, Note_on_c, 0, 66, 0
1, 194400, Note_on_c, 0, 56, 0
1, 194400, Note_on_c, 0, 60, 0
1, 194400, Note_on_c, 0, 64, 71
1, 194400, Note_on_c, 0, 69, 71
1, 194400, Note_on_c, 0, 73, 84
1, 194400, Note_on_c, 0, 49, 58
1, 194400, Note_on_c, 0, 52, 58
1, 194400, Note_on_c, 0, 57, 58
1, 194400, Note_on_c, 0, 61, 70
1, 194400, Control_c, 0, 64, 0
1, 194463, Control_c, 0, 64, 127
1, 194760, Tempo, 916031
1, 194760, Note_on_c, 0, 73, 0
1, 194760, Note_on_c, 0, 64, 0
1, 194760, Note_on_c, 0, 69, 0
1, 194760, Note_on_c, 0, 63, 50
1, 194880, Note_on_c, 0, 63, 0
1, 194880, Note_on_c, 0, 64, 57
1, 194891, Control_c, 0, 64, 0
1, 194966, Control_c, 0, 64, 127
1, 195000, Note_on_c, 0, 64, 0
1, 195000, Note_on_c, 0, 69, 55
1, 195120, Note_on_c, 0, 69, 0
1, 195120, Note_on_c, 0, 61, 0
1, 195120, Note_on_c, 0, 49, 0
1, 195120, Note_on_c, 0, 57, 0
1, 195120, Note_on_c, 0, 52, 0
1, 195120, Note_on_c, 0, 73, 57
1, 195240, Note_on_c, 0, 73, 0
1, 195240, Note_on_c, 0, 76, 59
1, 195240, Note_on_c, 0, 64, 54
1, 195240, Note_on_c, 0, 61, 45
1, 195350, Note_on_c, 0, 76, 0
1, 195360, Note_on_c, 0, 61, 0
1, 195360, Note_on_c, 0, 78, 62
1, 195360, Note_on_c, 0, 76, 52
1, 195360, Note_on_c, 0, 59, 60
1, 195371, Control_c, 0, 64, 0
1, 195429, Control_c, 0, 64, 127
1, 195590, Note_on_c, 0, 76, 0
1, 195600, Tempo, 1061947
1, 195600, Note_on_c, 0, 64, 0
1, 195600, Note_on_c, 0, 78, 0
1, 195600, Note_on_c, 0, 59, 0
1, 195600, Note_on_c, 0, 74, 55
1, 195600, Note_on_c, 0, 80, 65
1, 195600, Note_on_c, 0, 76, 55
1, 195600, Note_on_c, 0, 64, 58
1, 195604, Control_c, 0, 64, 0
1, 195657, Control_c, 0, 64, 127
1, 195780, Note_on_c, 0, 64, 0
1, 195780, Note_on_c, 0, 74, 0
1, 195780, Note_on_c, 0, 80, 0
1, 195780, Note_on_c, 0, 76, 0
1, 195840, Tempo, 888889
1, 195840, Note_on_c, 0, 74, 68
1, 195840, Note_on_c, 0, 83, 81
1, 195840, Note_on_c, 0, 80, 68
1, 195840, Note_on_c, 0, 68, 69
1, 195840, Note_on_c, 0, 65, 58
1, 195840, Note_on_c, 0, 57, 58
1, 195846, Control_c, 0, 64, 0
1, 196134, Control_c, 0, 64, 127
1, 197280, Tempo, 923077
1, 197280, Note_on_c, 0, 65, 0
1, 197280, Note_on_c, 0, 68, 0
1, 197280, Note_on_c, 0, 80, 0
1, 197280, Note_on_c, 0, 83, 0
1, 197280, Note_on_c, 0, 78, 50
1, 197280, Note_on_c, 0, 81, 50
1, 197280, Note_on_c, 0, 69, 44
1, 197280, Note_on_c, 0, 66, 37
1, 197280, Control_c, 0, 64, 0
1, 197520, Note_on_c, 0, 66, 0
1, 197520, Note_on_c, 0, 74, 0
1, 197520, Note_on_c, 0, 78, 0
1, 197520, Note_on_c, 0, 57, 0
1, 197520, Note_on_c, 0, 69, 0
1, 197520, Note_on_c, 0, 81, 0
1, 197760, Tempo, 895522
1, 198720, Tempo, 937500
1, 198720, Note_on_c, 0, 69, 39
1, 198720, Note_on_c, 0, 73, 39
1, 198720, Note_on_c, 0, 79, 47
1, 198720, Note_on_c, 0, 64, 39
1, 198720, Note_on_c, 0, 57, 33
1, 198720, Control_c, 0, 64, 127
1, 199440, Tempo, 769231
1, 199440, Note_on_c, 0, 79, 0
1, 199440, Note_on_c, 0, 81, 39
1, 199500, Note_on_c, 0, 81, 0
1, 199500, Note_on_c, 0, 79, 36
1, 199560, Note_on_c, 0, 79, 0
1, 199560, Note_on_c, 0, 78, 39
1, 199620, Note_on_c, 0, 78, 0
1, 199620, Note_on_c, 0, 79, 36
1, 199680, Tempo, 902256
1, 199680, Note_on_c, 0, 79, 0
1, 199680, Note_on_c, 0, 78, 46
1, 199687, Control_c, 0, 64, 0
1, 199751, Control_c, 0, 64, 127
1, 199800, Note_on_c, 0, 78, 0
1, 199800, Note_on_c, 0, 79, 39
1, 199920, Tempo, 944882
1, 199920, Note_on_c, 0, 79, 0
1, 199920, Note_on_c, 0, 83, 47
1, 200040, Tempo, 1212121
1, 200040, Note_on_c, 0, 83, 0
1, 200040, Note_on_c, 0, 81, 37
1, 200160, Tempo, 991736
1, 200160, Note_on_c, 0, 81, 0
1, 200160, Note_on_c, 0, 64, 0
1, 200160, Note_on_c, 0, 73, 0
1, 200160, Note_on_c, 0, 74, 39
1, 200160, Note_on_c, 0, 78, 46
1, 200160, Note_on_c, 0, 50, 30
1, 200160, Note_on_c, 0, 62, 36
1, 200188, Control_c, 0, 64, 0
1, 200400, Note_on_c, 0, 62, 0
1, 200400, Note_on_c, 0, 69, 0
1, 200400, Note_on_c, 0, 74, 0
1, 200400, Note_on_c, 0, 57, 0
1, 200400, Note_on_c, 0, 50, 0
1, 200400, Note_on_c, 0, 78, 0
1, 200520, Tempo, 916031
1, 200520, Note_on_c, 0, 66, 50
1, 200640, Note_on_c, 0, 66, 0
1, 200640, Note_on_c, 0, 69, 57
1, 200651, Control_c, 0, 64, 0
1, 200726, Control_c, 0, 64, 127
1, 200760, Note_on_c, 0, 69, 0
1, 200760, Note_on_c, 0, 74, 55
1, 200880, Note_on_c, 0, 74, 0
1, 200880, Note_on_c, 0, 78, 57
1, 201000, Note_on_c, 0, 78, 0
1, 201000, Note_on_c, 0, 69, 51
1, 201000, Note_on_c, 0, 74, 51
1, 201000, Note_on_c, 0, 81, 59
1, 201000, Note_on_c, 0, 54, 45
1, 201120, Note_on_c, 0, 54, 0
1, 201120, Note_on_c, 0, 81, 0
1, 201120, Note_on_c, 0, 74, 0
1, 201120, Note_on_c, 0, 80, 62
1, 201120, Note_on_c, 0, 76, 52
1, 201120, Note_on_c, 0, 52, 60
1, 201120, Note_on_c, 0, 56, 60
1, 201131, Control_c, 0, 64, 0
1, 201200, Control_c, 0, 64, 127
1, 201350, Note_on_c, 0, 69, 0
1, 201360, Tempo, 1061947
1, 201360, Note_on_c, 0, 52, 0
1, 201360, Note_on_c, 0, 80, 0
1, 201360, Note_on_c, 0, 76, 0
1, 201360, Note_on_c, 0, 56, 0
1, 201360, Note_on_c, 0, 69, 46
1, 201360, Note_on_c, 0, 78, 65
1, 201360, Note_on_c, 0, 50, 49
1, 201360, Note_on_c, 0, 57, 58
1, 201364, Control_c, 0, 64, 0
1, 201417, Control_c, 0, 64, 127
1, 201540, Note_on_c, 0, 57, 0
1, 201540, Note_on_c, 0, 69, 0
1, 201540, Note_on_c, 0, 78, 0
1, 201540, Note_on_c, 0, 50, 0
1, 201600, Note_on_c, 0, 69, 58
1, 201600, Note_on_c, 0, 76, 69
1, 201600, Note_on_c, 0, 49, 55
1, 201600, Note_on_c, 0, 57, 65
1, 201600, Control_c, 0, 64, 0
1, 201713, Control_c, 0, 64, 127
1, 201960, Tempo, 962001
1, 201960, Note_on_c, 0, 76, 0
1, 201960, Note_on_c, 0, 69, 0
1, 201960, Note_on_c, 0, 61, 50
1, 202080, Tempo, 910885
1, 202080, Note_on_c, 0, 61, 0
1, 202080, Note_on_c, 0, 64, 57
1, 202091, Control_c, 0, 64, 0
1, 202166, Control_c, 0, 64, 127
1, 202200, Note_on_c, 0, 64, 0
1, 202200, Note_on_c, 0, 69, 55
1, 202320, Note_on_c, 0, 69, 0
1, 202320, Note_on_c, 0, 49, 0
1, 202320, Note_on_c, 0, 57, 0
1, 202320, Note_on_c, 0, 73, 57
1, 202440, Note_on_c, 0, 73, 0
1, 202440, Note_on_c, 0, 64, 51
1, 202440, Note_on_c, 0, 69, 51
1, 202440, Note_on_c, 0, 76, 59
1, 202440, Note_on_c, 0, 61, 45
1, 202560, Note_on_c, 0, 61, 0
1, 202560, Note_on_c, 0, 76, 0
1, 202560, Note_on_c, 0, 69, 0
1, 202560, Note_on_c, 0, 75, 62
1, 202560, Note_on_c, 0, 71, 52
1, 202560, Note_on_c, 0, 59, 60
1, 202560, Note_on_c, 0, 63, 60
1, 202571, Control_c, 0, 64, 0
1, 202640, Control_c, 0, 64, 127
1, 202800, Tempo, 946820
1, 202800, Note_on_c, 0, 63, 0
1, 202800, Note_on_c, 0, 71, 0
1, 202800, Note_on_c, 0, 64, 0
1, 202800, Note_on_c, 0, 75, 0
1, 202800, Note_on_c, 0, 59, 0
1, 202800, Note_on_c, 0, 64, 46
1, 202800, Note_on_c, 0, 73, 65
1, 202800, Note_on_c, 0, 57, 49
1, 202800, Note_on_c, 0, 64, 58
1, 202804, Control_c, 0, 64, 0
1, 202857, Control_c, 0, 64, 127
1, 202980, Note_on_c, 0, 64, 0
1, 202980, Note_on_c, 0, 64, 0
1, 202980, Note_on_c, 0, 73, 0
1, 202980, Note_on_c, 0, 57, 0
1, 203040, Tempo, 962001
1, 203040, Note_on_c, 0, 64, 58
1, 203040, Note_on_c, 0, 71, 69
1, 203040, Note_on_c, 0, 56, 65
1, 203040, Control_c, 0, 64, 0
1, 203177, Control_c, 0, 64, 127
1, 203220, Note_on_c, 0, 56, 0
1, 203220, Note_on_c, 0, 71, 0
1, 203220, Note_on_c, 0, 64, 0
1, 203280, Tempo, 1083619
1, 203280, Note_on_c, 0, 66, 73
1, 203280, Note_on_c, 0, 70, 73
1, 203280, Note_on_c, 0, 76, 73
1, 203280, Note_on_c, 0, 64, 67
1, 203280, Note_on_c, 0, 61, 67
1, 203290, Control_c, 0, 64, 0
1, 203372, Control_c, 0, 64, 127
1, 203460, Note_on_c, 0, 61, 0
1, 203460, Note_on_c, 0, 76, 0
1, 203460, Note_on_c, 0, 66, 0
1, 203460, Note_on_c, 0, 70, 0
1, 203460, Note_on_c, 0, 64, 0
1, 203520, Tempo, 1045843
1, 203520, Note_on_c, 0, 68, 65
1, 203520, Note_on_c, 0, 71, 65
1, 203520, Note_on_c, 0, 80, 77
1, 203520, Note_on_c, 0, 76, 65
1, 203520, Note_on_c, 0, 59, 61
1, 203520, Note_on_c, 0, 64, 72
1, 203534, Control_c, 0, 64, 0
1, 203635, Control_c, 0, 64, 127
1, 204000, Tempo, 1124227
1, 204000, Note_on_c, 0, 64, 0
1, 204000, Note_on_c, 0, 71, 0
1, 204000, Note_on_c, 0, 80, 0
1, 204000, Note_on_c, 0, 68, 0
1, 204000, Note_on_c, 0, 59, 0
1, 204000, Note_on_c, 0, 76, 0
1, 204000, Note_on_c, 0, 69, 52
1, 204000, Note_on_c, 0, 71, 52
1, 204000, Note_on_c, 0, 75, 52
1, 204000, Note_on_c, 0, 80, 62
1, 204000, Note_on_c, 0, 47, 38
1, 204000, Note_on_c, 0, 59, 45
1, 204035, Control_c, 0, 64, 0
1, 204085, Control_c, 0, 64, 127
1, 204360, Tempo, 1280137
1, 204360, Note_on_c, 0, 80, 0
1, 204360, Note_on_c, 0, 78, 42
1, 204470, Note_on_c, 0, 47, 0
1, 204470, Note_on_c, 0, 71, 0
1, 204470, Note_on_c, 0, 59, 0
1, 204480, Tempo, 1134859
1, 204480, Note_on_c, 0, 69, 0
1, 204480, Note_on_c, 0, 75, 0
1, 204480, Note_on_c, 0, 78, 0
1, 204480, Note_on_c, 0, 68, 41
1, 204480, Note_on_c, 0, 71, 41
1, 204480, Note_on_c, 0, 76, 49
1, 204480, Note_on_c, 0, 52, 31
1, 204480, Note_on_c, 0, 59, 37
1, 204490, Control_c, 0, 64, 0
1, 204678, Control_c, 0, 64, 127
1, 205200, Tempo, 952381
1, 205200, Marker_t, "Teil 5"
1, 205200, Note_on_c, 0, 59, 0
1, 205200, Note_on_c, 0, 76, 0
1, 205200, Note_on_c, 0, 68, 0
1, 205200, Note_on_c, 0, 71, 0
1, 205200, Note_on_c, 0, 52, 0
1, 205200, Note_on_c, 0, 64, 76
1, 205210, Control_c, 0, 64, 0
1, 205306, Control_c, 0, 64, 127
1, 205440, Tempo, 952381
1, 205440, Note_on_c, 0, 64, 0
1, 205440, Note_on_c, 0, 61, 68
1, 205440, Note_on_c, 0, 69, 81
1, 205548, Note_on_c, 0, 69, 0
1, 205548, Note_on_c, 0, 61, 0
1, 205560, Tempo, 857143
1, 205560, Note_on_c, 0, 69, 75
1, 205560, Note_on_c, 0, 61, 63
1, 205680, Tempo, 930233
1, 205680, Note_on_c, 0, 52, 66
1, 205800, Note_on_c, 0, 52, 0
1, 205800, Note_on_c, 0, 61, 0
1, 205800, Note_on_c, 0, 69, 0
1, 205800, Note_on_c, 0, 64, 64
1, 205800, Note_on_c, 0, 71, 76
1, 205800, Note_on_c, 0, 56, 61
1, 205810, Control_c, 0, 64, 0
1, 205920, Tempo, 991736
1, 205920, Note_on_c, 0, 56, 0
1, 205920, Note_on_c, 0, 71, 0
1, 205920, Note_on_c, 0, 64, 0
1, 205920, Note_on_c, 0, 69, 73
1, 205920, Note_on_c, 0, 73, 86
1, 205920, Note_on_c, 0, 57, 66
1, 205991, Control_c, 0, 64, 127
1, 206040, Tempo, 916031
1, 206040, Note_on_c, 0, 57, 0
1, 206040, Note_on_c, 0, 45, 77
1, 206136, Note_on_c, 0, 73, 0
1, 206136, Note_on_c, 0, 69, 0
1, 206160, Tempo, 1043478
1, 206160, Note_on_c, 0, 69, 72
1, 206160, Note_on_c, 0, 73, 85
1, 206280, Tempo, 930233
1, 206280, Note_on_c, 0, 45, 0
1, 206280, Note_on_c, 0, 33, 59
1, 206400, Note_on_c, 0, 33, 0
1, 206400, Note_on_c, 0, 45, 65
1, 206517, Note_on_c, 0, 73, 0
1, 206517, Note_on_c, 0, 69, 0
1, 206520, Note_on_c, 0, 45, 0
1, 206520, Note_on_c, 0, 69, 73
1, 206520, Note_on_c, 0, 73, 86
1, 206640, Note_on_c, 0, 52, 73
1, 206760, Note_on_c, 0, 52, 0
1, 206760, Note_on_c, 0, 73, 0
1, 206760, Note_on_c, 0, 69, 0
1, 206760, Note_on_c, 0, 64, 63
1, 206760, Note_on_c, 0, 71, 74
1, 206760, Note_on_c, 0, 56, 63
1, 206770, Control_c, 0, 64, 0
1, 206880, Note_on_c, 0, 56, 0
1, 206880, Note_on_c, 0, 71, 0
1, 206880, Note_on_c, 0, 64, 0
1, 206880, Note_on_c, 0, 61, 65
1, 206880, Note_on_c, 0, 69, 77
1, 206880, Note_on_c, 0, 54, 65
1, 206901, Control_c, 0, 64, 127
1, 206988, Note_on_c, 0, 69, 0
1, 206988, Note_on_c, 0, 61, 0
1, 207000, Tempo, 851064
1, 207000, Note_on_c, 0, 54, 0
1, 207000, Note_on_c, 0, 66, 73
1, 207000, Note_on_c, 0, 69, 86
1, 207120, Tempo, 1008403
1, 207120, Note_on_c, 0, 49, 71
1, 207240, Tempo, 923077
1, 207240, Note_on_c, 0, 49, 0
1, 207240, Note_on_c, 0, 69, 0
1, 207240, Note_on_c, 0, 66, 0
1, 207240, Note_on_c, 0, 61, 64
1, 207240, Note_on_c, 0, 68, 76
1, 207240, Note_on_c, 0, 52, 62
1, 207249, Control_c, 0, 64, 0
1, 207360, Tempo, 1008403
1, 207360, Note_on_c, 0, 52, 0
1, 207360, Note_on_c, 0, 68, 0
1, 207360, Note_on_c, 0, 61, 0
1, 207360, Note_on_c, 0, 57, 68
1, 207360, Note_on_c, 0, 66, 80
1, 207360, Note_on_c, 0, 50, 65
1, 207395, Control_c, 0, 64, 127
1, 207480, Tempo, 1000000
1, 207480, Note_on_c, 0, 50, 0
1, 207480, Note_on_c, 0, 38, 74
1, 207576, Note_on_c, 0, 66, 0
1, 207576, Note_on_c, 0, 57, 0
1, 207600, Tempo, 923077
1, 207600, Note_on_c, 0, 57, 73
1, 207600, Note_on_c, 0, 66, 86
1, 207709, Control_c, 0, 64, 0
1, 207720, Note_on_c, 0, 38, 0
1, 207720, Note_on_c, 0, 33, 65
1, 207840, Note_on_c, 0, 33, 0
1, 207840, Note_on_c, 0, 38, 65
1, 207960, Note_on_c, 0, 38, 0
1, 207960, Note_on_c, 0, 42, 58
1, 208080, Tempo, 952381
1, 208080, Note_on_c, 0, 42, 0
1, 208080, Note_on_c, 0, 66, 0
1, 208080, Note_on_c, 0, 57, 0
1, 208080, Note_on_c, 0, 66, 76
1, 208080, Note_on_c, 0, 38, 61
1, 208090, Control_c, 0, 64, 0
1, 208186, Control_c, 0, 64, 127
1, 208200, Note_on_c, 0, 38, 0
1, 208200, Note_on_c, 0, 37, 64
1, 208320, Tempo, 952381
1, 208320, Note_on_c, 0, 37, 0
1, 208320, Note_on_c, 0, 66, 0
1, 208320, Note_on_c, 0, 62, 68
1, 208320, Note_on_c, 0, 71, 81
1, 208320, Note_on_c, 0, 35, 68
1, 208428, Note_on_c, 0, 71, 0
1, 208428, Note_on_c, 0, 62, 0
1, 208440, Tempo, 805369
1, 208440, Note_on_c, 0, 35, 0
1, 208440, Note_on_c, 0, 71, 75
1, 208440, Note_on_c, 0, 62, 63
1, 208560, Tempo, 975610
1, 208560, Note_on_c, 0, 54, 66
1, 208680, Note_on_c, 0, 54, 0
1, 208680, Note_on_c, 0, 62, 0
1, 208680, Note_on_c, 0, 71, 0
1, 208680, Note_on_c, 0, 66, 64
1, 208680, Note_on_c, 0, 73, 76
1, 208680, Note_on_c, 0, 58, 61
1, 208690, Control_c, 0, 64, 0
1, 208800, Tempo, 1052632
1, 208800, Note_on_c, 0, 58, 0
1, 208800, Note_on_c, 0, 73, 0
1, 208800, Note_on_c, 0, 66, 0
1, 208800, Note_on_c, 0, 71, 73
1, 208800, Note_on_c, 0, 74, 86
1, 208800, Note_on_c, 0, 59, 66
1, 208871, Control_c, 0, 64, 127
1, 208920, Tempo, 916031
1, 208920, Note_on_c, 0, 59, 0
1, 208920, Note_on_c, 0, 47, 77
1, 209016, Note_on_c, 0, 74, 0
1, 209016, Note_on_c, 0, 71, 0
1, 209040, Tempo, 1043478
1, 209040, Note_on_c, 0, 71, 72
1, 209040, Note_on_c, 0, 74, 85
1, 209160, Tempo, 930233
1, 209160, Note_on_c, 0, 47, 0
1, 209160, Note_on_c, 0, 35, 59
1, 209280, Note_on_c, 0, 35, 0
1, 209280, Note_on_c, 0, 47, 65
1, 209397, Note_on_c, 0, 74, 0
1, 209397, Note_on_c, 0, 71, 0
1, 209400, Note_on_c, 0, 47, 0
1, 209400, Note_on_c, 0, 71, 73
1, 209400, Note_on_c, 0, 74, 86
1, 209520, Note_on_c, 0, 54, 73
1, 209640, Note_on_c, 0, 54, 0
1, 209640, Note_on_c, 0, 74, 0
1, 209640, Note_on_c, 0, 71, 0
1, 209640, Note_on_c, 0, 66, 63
1, 209640, Note_on_c, 0, 73, 74
1, 209640, Note_on_c, 0, 57, 63
1, 209650, Control_c, 0, 64, 0
1, 209760, Tempo, 895522
1, 209760, Note_on_c, 0, 57, 0
1, 209760, Note_on_c, 0, 73, 0
1, 209760, Note_on_c, 0, 66, 0
1, 209760, Note_on_c, 0, 62, 65
1, 209760, Note_on_c, 0, 71, 77
1, 209760, Note_on_c, 0, 56, 65
1, 209868, Note_on_c, 0, 71, 0
1, 209868, Note_on_c, 0, 62, 0
1, 209880, Tempo, 851064
1, 209880, Note_on_c, 0, 56, 0
1, 209880, Note_on_c, 0, 68, 73
1, 209880, Note_on_c, 0, 71, 86
1, 209883, Control_c, 0, 64, 127
1, 210000, Tempo, 875912
1, 210000, Note_on_c, 0, 51, 71
1, 210120, Tempo, 923077
1, 210120, Note_on_c, 0, 51, 0
1, 210120, Note_on_c, 0, 71, 0
1, 210120, Note_on_c, 0, 68, 0
1, 210120, Note_on_c, 0, 63, 64
1, 210120, Note_on_c, 0, 69, 76
1, 210120, Note_on_c, 0, 54, 65
1, 210129, Control_c, 0, 64, 0
1, 210240, Tempo, 1016949
1, 210240, Note_on_c, 0, 54, 0
1, 210240, Note_on_c, 0, 69, 0
1, 210240, Note_on_c, 0, 63, 0
1, 210240, Note_on_c, 0, 59, 68
1, 210240, Note_on_c, 0, 68, 80
1, 210240, Note_on_c, 0, 52, 65
1, 210275, Control_c, 0, 64, 127
1, 210348, Note_on_c, 0, 68, 0
1, 210348, Note_on_c, 0, 59, 0
1, 210360, Tempo, 1000000
1, 210360, Note_on_c, 0, 52, 0
1, 210360, Note_on_c, 0, 40, 74
1, 210480, Tempo, 923077
1, 210480, Note_on_c, 0, 59, 73
1, 210480, Note_on_c, 0, 68, 86
1, 210589, Control_c, 0, 64, 0
1, 210600, Note_on_c, 0, 40, 0
1, 210600, Note_on_c, 0, 35, 65
1, 210720, Note_on_c, 0, 35, 0
1, 210720, Note_on_c, 0, 40, 65
1, 210837, Note_on_c, 0, 68, 0
1, 210837, Note_on_c, 0, 59, 0
1, 210840, Tempo, 930233
1, 210840, Note_on_c, 0, 56, 73
1, 210840, Note_on_c, 0, 64, 73
1, 210840, Note_on_c, 0, 68, 86
1, 210840, Note_on_c, 0, 40, 73
1, 210840, Note_on_c, 0, 52, 73
1, 210950, Note_on_c, 0, 40, 0
1, 211070, Note_on_c, 0, 40, 0
1, 211070, Note_on_c, 0, 52, 0
1, 211078, Note_on_c, 0, 64, 0
1, 211080, Note_on_c, 0, 68, 0
1, 211080, Note_on_c, 0, 56, 0
1, 211080, Note_on_c, 0, 57, 63
1, 211080, Note_on_c, 0, 64, 63
1, 211080, Note_on_c, 0, 69, 74
1, 211080, Note_on_c, 0, 42, 56
1, 211080, Note_on_c, 0, 52, 56
1, 211080, Note_on_c, 0, 54, 63
1, 211090, Control_c, 0, 64, 0
1, 211190, Note_on_c, 0, 64, 0
1, 211200, Tempo, 895522
1, 211200, Note_on_c, 0, 69, 0
1, 211200, Note_on_c, 0, 42, 0
1, 211200, Note_on_c, 0, 57, 0
1, 211200, Note_on_c, 0, 54, 0
1, 211200, Note_on_c, 0, 64, 65
1, 211200, Note_on_c, 0, 59, 65
1, 211200, Note_on_c, 0, 71, 77
1, 211200, Note_on_c, 0, 44, 55
1, 211200, Note_on_c, 0, 56, 65
1, 211205, Control_c, 0, 64, 127
1, 211308, Note_on_c, 0, 71, 0
1, 211308, Note_on_c, 0, 59, 0
1, 211320, Tempo, 851064
1, 211320, Note_on_c, 0, 44, 0
1, 211320, Note_on_c, 0, 52, 0
1, 211320, Note_on_c, 0, 56, 0
1, 211320, Note_on_c, 0, 64, 0
1, 211320, Note_on_c, 0, 61, 73
1, 211320, Note_on_c, 0, 69, 73
1, 211320, Note_on_c, 0, 73, 86
1, 211320, Note_on_c, 0, 57, 71
1, 211320, Note_on_c, 0, 45, 63
1, 211331, Control_c, 0, 64, 0
1, 211412, Control_c, 0, 64, 127
1, 211440, Tempo, 875912
1, 211550, Note_on_c, 0, 57, 0
1, 211560, Tempo, 923077
1, 211560, Note_on_c, 0, 73, 0
1, 211560, Note_on_c, 0, 61, 0
1, 211560, Note_on_c, 0, 69, 0
1, 211560, Note_on_c, 0, 45, 0
1, 211560, Note_on_c, 0, 69, 64
1, 211560, Note_on_c, 0, 62, 64
1, 211560, Note_on_c, 0, 74, 76
1, 211560, Note_on_c, 0, 57, 63
1, 211560, Note_on_c, 0, 47, 63
1, 211560, Note_on_c, 0, 59, 65
1, 211565, Control_c, 0, 64, 0
1, 211617, Control_c, 0, 64, 127
1, 211680, Tempo, 1008403
1, 211680, Note_on_c, 0, 59, 0
1, 211680, Note_on_c, 0, 62, 0
1, 211680, Note_on_c, 0, 74, 0
1, 211680, Note_on_c, 0, 69, 0
1, 211680, Note_on_c, 0, 47, 0
1, 211680, Note_on_c, 0, 57, 0
1, 211680, Note_on_c, 0, 64, 68
1, 211680, Note_on_c, 0, 69, 68
1, 211680, Note_on_c, 0, 76, 80
1, 211680, Note_on_c, 0, 49, 55
1, 211680, Note_on_c, 0, 57, 55
1, 211680, Note_on_c, 0, 61, 65
1, 211680, Control_c, 0, 64, 0
1, 211751, Control_c, 0, 64, 127
1, 211788, Note_on_c, 0, 76, 0
1, 211788, Note_on_c, 0, 69, 0
1, 211800, Tempo, 1000000
1, 211800, Note_on_c, 0, 49, 0
1, 211800, Note_on_c, 0, 64, 0
1, 211800, Note_on_c, 0, 61, 0
1, 211800, Note_on_c, 0, 57, 0
1, 211920, Tempo, 923077
1, 211920, Note_on_c, 0, 64, 73
1, 211920, Note_on_c, 0, 69, 73
1, 211920, Note_on_c, 0, 76, 86
1, 211920, Note_on_c, 0, 49, 62
1, 211920, Note_on_c, 0, 57, 62
1, 211920, Note_on_c, 0, 61, 74
1, 211984, Control_c, 0, 64, 0
1, 212068, Control_c, 0, 64, 127
1, 212160, Tempo, 895522
1, 212277, Note_on_c, 0, 61, 0
1, 212277, Note_on_c, 0, 69, 0
1, 212277, Note_on_c, 0, 76, 0
1, 212277, Note_on_c, 0, 64, 0
1, 212277, Note_on_c, 0, 57, 0
1, 212277, Note_on_c, 0, 49, 0
1, 212280, Note_on_c, 0, 69, 70
1, 212280, Note_on_c, 0, 76, 83
1, 212280, Note_on_c, 0, 61, 71
1, 212280, Note_on_c, 0, 49, 60
1, 212398, Note_on_c, 0, 76, 0
1, 212398, Note_on_c, 0, 69, 0
1, 212400, Tempo, 863309
1, 212400, Note_on_c, 0, 61, 0
1, 212400, Note_on_c, 0, 49, 0
1, 212400, Note_on_c, 0, 69, 73
1, 212400, Note_on_c, 0, 73, 73
1, 212400, Note_on_c, 0, 81, 86
1, 212400, Note_on_c, 0, 64, 74
1, 212400, Note_on_c, 0, 52, 62
1, 212518, Note_on_c, 0, 81, 0
1, 212518, Note_on_c, 0, 69, 0
1, 212518, Note_on_c, 0, 73, 0
1, 212520, Note_on_c, 0, 64, 0
1, 212520, Note_on_c, 0, 52, 0
1, 212520, Note_on_c, 0, 69, 69
1, 212520, Note_on_c, 0, 76, 82
1, 212520, Note_on_c, 0, 61, 70
1, 212520, Note_on_c, 0, 49, 59
1, 212638, Note_on_c, 0, 76, 0
1, 212638, Note_on_c, 0, 69, 0
1, 212640, Note_on_c, 0, 61, 0
1, 212640, Note_on_c, 0, 49, 0
1, 212640, Note_on_c, 0, 69, 73
1, 212640, Note_on_c, 0, 73, 86
1, 212640, Note_on_c, 0, 45, 62
1, 212640, Note_on_c, 0, 57, 74
1, 212647, Control_c, 0, 64, 0
1, 212704, Control_c, 0, 64, 127
1, 212758, Note_on_c, 0, 73, 0
1, 212758, Note_on_c, 0, 69, 0
1, 212760, Note_on_c, 0, 45, 0
1, 212760, Note_on_c, 0, 57, 0
1, 212760, Note_on_c, 0, 69, 80
1, 212760, Note_on_c, 0, 44, 58
1, 212760, Note_on_c, 0, 56, 68
1, 212878, Note_on_c, 0, 69, 0
1, 212880, Tempo, 916031
1, 212880, Note_on_c, 0, 56, 0
1, 212880, Note_on_c, 0, 44, 0
1, 212880, Note_on_c, 0, 69, 70
1, 212880, Note_on_c, 0, 73, 83
1, 212880, Note_on_c, 0, 42, 60
1, 212880, Note_on_c, 0, 54, 71
1, 212998, Note_on_c, 0, 73, 0
1, 212998, Note_on_c, 0, 69, 0
1, 213000, Note_on_c, 0, 42, 0
1, 213000, Note_on_c, 0, 54, 0
1, 213000, Note_on_c, 0, 69, 70
1, 213000, Note_on_c, 0, 76, 83
1, 213000, Note_on_c, 0, 40, 60
1, 213000, Note_on_c, 0, 52, 71
1, 213120, Tempo, 1034483
1, 213120, Note_on_c, 0, 52, 0
1, 213120, Note_on_c, 0, 69, 0
1, 213120, Note_on_c, 0, 76, 0
1, 213120, Note_on_c, 0, 40, 0
1, 213120, Note_on_c, 0, 74, 68
1, 213120, Note_on_c, 0, 66, 68
1, 213120, Note_on_c, 0, 69, 68
1, 213120, Note_on_c, 0, 78, 80
1, 213120, Note_on_c, 0, 38, 55
1, 213120, Note_on_c, 0, 45, 55
1, 213120, Note_on_c, 0, 50, 65
1, 213120, Control_c, 0, 64, 0
1, 213191, Control_c, 0, 64, 127
1, 213228, Note_on_c, 0, 78, 0
1, 213228, Note_on_c, 0, 69, 0
1, 213240, Tempo, 1000000
1, 213240, Note_on_c, 0, 66, 0
1, 213240, Note_on_c, 0, 38, 0
1, 213240, Note_on_c, 0, 74, 0
1, 213240, Note_on_c, 0, 50, 0
1, 213240, Note_on_c, 0, 45, 0
1, 213360, Tempo, 923077
1, 213360, Note_on_c, 0, 74, 73
1, 213360, Note_on_c, 0, 66, 73
1, 213360, Note_on_c, 0, 69, 73
1, 213360, Note_on_c, 0, 78, 86
1, 213360, Note_on_c, 0, 38, 62
1, 213360, Note_on_c, 0, 45, 62
1, 213360, Note_on_c, 0, 50, 74
1, 213424, Control_c, 0, 64, 0
1, 213508, Control_c, 0, 64, 127
1, 213600, Tempo, 895522
1, 213717, Note_on_c, 0, 50, 0
1, 213717, Note_on_c, 0, 38, 0
1, 213717, Note_on_c, 0, 66, 0
1, 213717, Note_on_c, 0, 69, 0
1, 213717, Note_on_c, 0, 74, 0
1, 213717, Note_on_c, 0, 45, 0
1, 213717, Note_on_c, 0, 78, 0
1, 213720, Note_on_c, 0, 66, 77
1, 213720, Note_on_c, 0, 69, 77
1, 213720, Note_on_c, 0, 78, 91
1, 213720, Note_on_c, 0, 45, 71
1, 213720, Note_on_c, 0, 38, 60
1, 213840, Tempo, 863309
1, 213840, Note_on_c, 0, 45, 0
1, 213840, Note_on_c, 0, 50, 82
1, 213958, Note_on_c, 0, 69, 0
1, 213960, Note_on_c, 0, 38, 0
1, 213960, Note_on_c, 0, 66, 0
1, 213960, Note_on_c, 0, 78, 0
1, 213960, Note_on_c, 0, 50, 0
1, 213960, Note_on_c, 0, 64, 69
1, 213960, Note_on_c, 0, 69, 69
1, 213960, Note_on_c, 0, 76, 82
1, 213960, Note_on_c, 0, 45, 59
1, 213960, Note_on_c, 0, 49, 70
1, 213960, Note_on_c, 0, 37, 59
1, 214080, Note_on_c, 0, 37, 0
1, 214080, Note_on_c, 0, 69, 0
1, 214080, Note_on_c, 0, 76, 0
1, 214080, Note_on_c, 0, 64, 0
1, 214080, Note_on_c, 0, 49, 0
1, 214080, Note_on_c, 0, 45, 0
1, 214080, Note_on_c, 0, 66, 73
1, 214080, Note_on_c, 0, 69, 73
1, 214080, Note_on_c, 0, 78, 86
1, 214080, Note_on_c, 0, 38, 62
1, 214080, Note_on_c, 0, 45, 62
1, 214080, Note_on_c, 0, 50, 74
1, 214087, Control_c, 0, 64, 0
1, 214144, Control_c, 0, 64, 127
1, 214194, Note_on_c, 0, 50, 0
1, 214194, Note_on_c, 0, 69, 0
1, 214194, Note_on_c, 0, 78, 0
1, 214194, Note_on_c, 0, 66, 0
1, 214194, Note_on_c, 0, 45, 0
1, 214194, Note_on_c, 0, 38, 0
1, 214200, Note_on_c, 0, 66, 83
1, 214200, Note_on_c, 0, 69, 83
1, 214200, Note_on_c, 0, 78, 83
1, 214200, Note_on_c, 0, 38, 60
1, 214200, Note_on_c, 0, 45, 71
1, 214320, Tempo, 916031
1, 214320, Note_on_c, 0, 45, 0
1, 214320, Note_on_c, 0, 50, 68
1, 214440, Note_on_c, 0, 50, 0
1, 214440, Note_on_c, 0, 38, 0
1, 214440, Note_on_c, 0, 66, 0
1, 214440, Note_on_c, 0, 69, 0
1, 214440, Note_on_c, 0, 78, 0
1, 214440, Note_on_c, 0, 67, 70
1, 214440, Note_on_c, 0, 79, 83
1, 214440, Note_on_c, 0, 69, 70
1, 214440, Note_on_c, 0, 47, 60
1, 214440, Note_on_c, 0, 40, 60
1, 214440, Note_on_c, 0, 52, 71
1, 214560, Tempo, 1034483
1, 214560, Note_on_c, 0, 52, 0
1, 214560, Note_on_c, 0, 79, 0
1, 214560, Note_on_c, 0, 69, 0
1, 214560, Note_on_c, 0, 67, 0
1, 214560, Note_on_c, 0, 40, 0
1, 214560, Note_on_c, 0, 47, 0
1, 214560, Note_on_c, 0, 66, 74
1, 214560, Note_on_c, 0, 74, 74
1, 214560, Note_on_c, 0, 78, 88
1, 214560, Note_on_c, 0, 38, 60
1, 214560, Note_on_c, 0, 45, 60
1, 214560, Note_on_c, 0, 50, 71
1, 214560, Control_c, 0, 64, 0
1, 214631, Control_c, 0, 64, 127
1, 214668, Note_on_c, 0, 78, 0
1, 214668, Note_on_c, 0, 74, 0
1, 214680, Tempo, 1000000
1, 214680, Note_on_c, 0, 38, 0
1, 214680, Note_on_c, 0, 66, 0
1, 214680, Note_on_c, 0, 50, 0
1, 214680, Note_on_c, 0, 45, 0
1, 214800, Tempo, 923077
1, 214800, Note_on_c, 0, 66, 73
1, 214800, Note_on_c, 0, 74, 73
1, 214800, Note_on_c, 0, 78, 86
1, 214800, Note_on_c, 0, 38, 62
1, 214800, Note_on_c, 0, 45, 62
1, 214800, Note_on_c, 0, 50, 74
1, 214864, Control_c, 0, 64, 0
1, 214948, Control_c, 0, 64, 127
1, 215040, Tempo, 895522
1, 215160, Note_on_c, 0, 50, 0
1, 215160, Note_on_c, 0, 74, 0
1, 215160, Note_on_c, 0, 78, 0
1, 215160, Note_on_c, 0, 66, 0
1, 215160, Note_on_c, 0, 45, 0
1, 215160, Note_on_c, 0, 38, 0
1, 215160, Note_on_c, 0, 62, 70
1, 215160, Note_on_c, 0, 69, 83
1, 215160, Note_on_c, 0, 54, 71
1, 215160, Note_on_c, 0, 42, 60
1, 215278, Note_on_c, 0, 69, 0
1, 215278, Note_on_c, 0, 62, 0
1, 215280, Tempo, 863309
1, 215280, Note_on_c, 0, 54, 0
1, 215280, Note_on_c, 0, 42, 0
1, 215280, Note_on_c, 0, 62, 73
1, 215280, Note_on_c, 0, 66, 73
1, 215280, Note_on_c, 0, 74, 86
1, 215280, Note_on_c, 0, 57, 74
1, 215280, Note_on_c, 0, 45, 62
1, 215398, Note_on_c, 0, 74, 0
1, 215398, Note_on_c, 0, 62, 0
1, 215398, Note_on_c, 0, 66, 0
1, 215400, Note_on_c, 0, 57, 0
1, 215400, Note_on_c, 0, 45, 0
1, 215400, Note_on_c, 0, 62, 69
1, 215400, Note_on_c, 0, 69, 82
1, 215400, Note_on_c, 0, 54, 70
1, 215400, Note_on_c, 0, 42, 59
1, 215518, Note_on_c, 0, 69, 0
1, 215518, Note_on_c, 0, 62, 0
1, 215520, Note_on_c, 0, 54, 0
1, 215520, Note_on_c, 0, 42, 0
1, 215520, Note_on_c, 0, 62, 70
1, 215520, Note_on_c, 0, 66, 83
1, 215520, Note_on_c, 0, 38, 60
1, 215520, Note_on_c, 0, 50, 71
1, 215527, Control_c, 0, 64, 0
1, 215584, Control_c, 0, 64, 127
1, 215638, Note_on_c, 0, 66, 0
1, 215638, Note_on_c, 0, 62, 0
1, 215640, Note_on_c, 0, 38, 0
1, 215640, Note_on_c, 0, 50, 0
1, 215640, Note_on_c, 0, 62, 73
1, 215640, Note_on_c, 0, 69, 83
1, 215640, Note_on_c, 0, 42, 60
1, 215640, Note_on_c, 0, 54, 71
1, 215758, Note_on_c, 0, 69, 0
1, 215758, Note_on_c, 0, 62, 0
1, 215760, Tempo, 916031
1, 215760, Note_on_c, 0, 42, 0
1, 215760, Note_on_c, 0, 54, 0
1, 215760, Note_on_c, 0, 66, 67
1, 215760, Note_on_c, 0, 62, 67
1, 215760, Note_on_c, 0, 74, 80
1, 215760, Note_on_c, 0, 38, 58
1, 215760, Note_on_c, 0, 50, 68
1, 215878, Note_on_c, 0, 74, 0
1, 215878, Note_on_c, 0, 66, 0
1, 215878, Note_on_c, 0, 62, 0
1, 215880, Note_on_c, 0, 38, 0
1, 215880, Note_on_c, 0, 50, 0
1, 215880, Note_on_c, 0, 64, 70
1, 215880, Note_on_c, 0, 76, 83
1, 215880, Note_on_c, 0, 69, 70
1, 215880, Note_on_c, 0, 37, 60
1, 215880, Note_on_c, 0, 49, 71
1, 216000, Tempo, 1043478
1, 216000, Note_on_c, 0, 49, 0
1, 216000, Note_on_c, 0, 69, 0
1, 216000, Note_on_c, 0, 64, 0
1, 216000, Note_on_c, 0, 76, 0
1, 216000, Note_on_c, 0, 37, 0
1, 216000, Note_on_c, 0, 74, 68
1, 216000, Note_on_c, 0, 66, 68
1, 216000, Note_on_c, 0, 78, 80
1, 216000, Note_on_c, 0, 35, 55
1, 216000, Note_on_c, 0, 47, 65
1, 216000, Control_c, 0, 64, 0
1, 216071, Control_c, 0, 64, 127
1, 216108, Note_on_c, 0, 78, 0
1, 216120, Tempo, 1000000
1, 216120, Note_on_c, 0, 35, 0
1, 216120, Note_on_c, 0, 74, 0
1, 216120, Note_on_c, 0, 66, 0
1, 216120, Note_on_c, 0, 47, 0
1, 216240, Tempo, 923077
1, 216240, Note_on_c, 0, 74, 73
1, 216240, Note_on_c, 0, 66, 73
1, 216240, Note_on_c, 0, 78, 86
1, 216240, Note_on_c, 0, 35, 62
1, 216240, Note_on_c, 0, 42, 62
1, 216240, Note_on_c, 0, 47, 74
1, 216304, Control_c, 0, 64, 0
1, 216388, Control_c, 0, 64, 127
1, 216480, Tempo, 895522
1, 216597, Note_on_c, 0, 47, 0
1, 216597, Note_on_c, 0, 66, 0
1, 216597, Note_on_c, 0, 78, 0
1, 216597, Note_on_c, 0, 74, 0
1, 216597, Note_on_c, 0, 42, 0
1, 216597, Note_on_c, 0, 35, 0
1, 216600, Tempo, 827586
1, 216600, Note_on_c, 0, 74, 85
1, 216600, Note_on_c, 0, 78, 85
1, 216600, Note_on_c, 0, 86, 101
1, 216600, Note_on_c, 0, 35, 60
1, 216600, Note_on_c, 0, 42, 60
1, 216600, Note_on_c, 0, 47, 71
1, 216600, Control_c, 0, 64, 0
1, 216671, Control_c, 0, 64, 127
1, 216720, Tempo, 1000000
1, 216830, Note_on_c, 0, 47, 0
1, 216830, Note_on_c, 0, 78, 0
1, 216830, Note_on_c, 0, 86, 0
1, 216830, Note_on_c, 0, 74, 0
1, 216830, Note_on_c, 0, 42, 0
1, 216830, Note_on_c, 0, 35, 0
1, 216840, Tempo, 923077
1, 216840, Note_on_c, 0, 74, 83
1, 216840, Note_on_c, 0, 78, 83
1, 216840, Note_on_c, 0, 86, 98
1, 216840, Note_on_c, 0, 35, 62
1, 216840, Note_on_c, 0, 42, 62
1, 216840, Note_on_c, 0, 47, 74
1, 216960, Tempo, 1052632
1, 216960, Note_on_c, 0, 47, 0
1, 216960, Note_on_c, 0, 78, 0
1, 216960, Note_on_c, 0, 86, 0
1, 216960, Note_on_c, 0, 74, 0
1, 216960, Note_on_c, 0, 42, 0
1, 216960, Note_on_c, 0, 35, 0
1, 216960, Note_on_c, 0, 74, 68
1, 216960, Note_on_c, 0, 68, 68
1, 216960, Note_on_c, 0, 80, 80
1, 216960, Note_on_c, 0, 40, 55
1, 216960, Note_on_c, 0, 47, 55
1, 216960, Note_on_c, 0, 52, 65
1, 216960, Control_c, 0, 64, 0
1, 217031, Control_c, 0, 64, 127
1, 217068, Note_on_c, 0, 80, 0
1, 217080, Tempo, 1000000
1, 217080, Note_on_c, 0, 68, 0
1, 217080, Note_on_c, 0, 40, 0
1, 217080, Note_on_c, 0, 74, 0
1, 217080, Note_on_c, 0, 52, 0
1, 217080, Note_on_c, 0, 47, 0
1, 217200, Tempo, 923077
1, 217200, Note_on_c, 0, 74, 73
1, 217200, Note_on_c, 0, 68, 73
1, 217200, Note_on_c, 0, 80, 86
1, 217200, Note_on_c, 0, 40, 62
1, 217200, Note_on_c, 0, 47, 62
1, 217200, Note_on_c, 0, 52, 74
1, 217264, Control_c, 0, 64, 0
1, 217348, Control_c, 0, 64, 127
1, 217560, Tempo, 827586
1, 217560, Note_on_c, 0, 52, 0
1, 217560, Note_on_c, 0, 68, 0
1, 217560, Note_on_c, 0, 80, 0
1, 217560, Note_on_c, 0, 74, 0
1, 217560, Note_on_c, 0, 47, 0
1, 217560, Note_on_c, 0, 40, 0
1, 217560, Note_on_c, 0, 69, 85
1, 217560, Note_on_c, 0, 73, 85
1, 217560, Note_on_c, 0, 81, 101
1, 217560, Note_on_c, 0, 33, 60
1, 217560, Note_on_c, 0, 40, 60
1, 217560, Note_on_c, 0, 45, 71
1, 217560, Control_c, 0, 64, 0
1, 217631, Control_c, 0, 64, 127
1, 217680, Tempo, 1000000
1, 217790, Note_on_c, 0, 45, 0
1, 217790, Note_on_c, 0, 73, 0
1, 217790, Note_on_c, 0, 81, 0
1, 217790, Note_on_c, 0, 69, 0
1, 217790, Note_on_c, 0, 40, 0
1, 217790, Note_on_c, 0, 33, 0
1, 217800, Tempo, 923077
1, 217800, Note_on_c, 0, 69, 74
1, 217800, Note_on_c, 0, 73, 74
1, 217800, Note_on_c, 0, 81, 88
1, 217800, Note_on_c, 0, 33, 55
1, 217800, Note_on_c, 0, 40, 55
1, 217800, Note_on_c, 0, 45, 66
1, 217920, Tempo, 1071429
1, 217920, Note_on_c, 0, 45, 0
1, 217920, Note_on_c, 0, 73, 0
1, 217920, Note_on_c, 0, 81, 0
1, 217920, Note_on_c, 0, 69, 0
1, 217920, Note_on_c, 0, 40, 0
1, 217920, Note_on_c, 0, 33, 0
1, 217920, Note_on_c, 0, 61, 68
1, 217920, Note_on_c, 0, 57, 68
1, 217920, Note_on_c, 0, 69, 80
1, 217920, Note_on_c, 0, 45, 55
1, 217920, Note_on_c, 0, 52, 65
1, 218028, Note_on_c, 0, 69, 0
1, 218040, Tempo, 1061947
1, 218040, Note_on_c, 0, 45, 0
1, 218040, Note_on_c, 0, 61, 0
1, 218040, Note_on_c, 0, 57, 0
1, 218040, Note_on_c, 0, 52, 0
1, 218160, Tempo, 2752294
1, 218160, Note_on_c, 0, 61, 73
1, 218160, Note_on_c, 0, 57, 73
1, 218160, Note_on_c, 0, 69, 86
1, 218160, Note_on_c, 0, 45, 62
1, 218160, Note_on_c, 0, 52, 74
1, 218400, Tempo, 1003344
1, 218520, Note_on_c, 0, 52, 0
1, 218520, Note_on_c, 0, 69, 0
1, 218520, Note_on_c, 0, 61, 0
1, 218520, Note_on_c, 0, 57, 0
1, 218520, Note_on_c, 0, 45, 0
1, 218520, Note_on_c, 0, 69, 37
1, 218520, Control_c, 0, 64, 0
1, 218612, Control_c, 0, 64, 127
1, 218640, Tempo, 1056338
1, 218640, Note_on_c, 0, 69, 0
1, 218640, Note_on_c, 0, 66, 37
1, 218640, Note_on_c, 0, 74, 37
1, 218760, Tempo, 1115242
1, 218760, Note_on_c, 0, 74, 0
1, 218760, Note_on_c, 0, 66, 0
1, 218760, Note_on_c, 0, 69, 37
1, 218760, Note_on_c, 0, 76, 37
1, 218880, Tempo, 1034483
1, 218880, Note_on_c, 0, 76, 0
1, 218880, Note_on_c, 0, 69, 0
1, 218880, Note_on_c, 0, 74, 34
1, 218880, Note_on_c, 0, 78, 40
1, 218898, Control_c, 0, 64, 0
1, 218977, Control_c, 0, 64, 127
1, 218988, Note_on_c, 0, 78, 0
1, 218988, Note_on_c, 0, 74, 0
1, 219000, Tempo, 1000000
1, 219000, Note_on_c, 0, 50, 32
1, 219120, Tempo, 955414
1, 219120, Note_on_c, 0, 50, 0
1, 219120, Note_on_c, 0, 74, 36
1, 219120, Note_on_c, 0, 78, 43
1, 219120, Note_on_c, 0, 57, 35
1, 219240, Note_on_c, 0, 57, 0
1, 219240, Note_on_c, 0, 50, 32
1, 219360, Tempo, 925926
1, 219360, Note_on_c, 0, 57, 36
1, 219365, Control_c, 0, 64, 0
1, 219446, Control_c, 0, 64, 127
1, 219470, Note_on_c, 0, 78, 0
1, 219470, Note_on_c, 0, 74, 0
1, 219480, Note_on_c, 0, 69, 35
1, 219480, Note_on_c, 0, 76, 41
1, 219570, Note_on_c, 0, 50, 0
1, 219570, Note_on_c, 0, 57, 0
1, 219598, Note_on_c, 0, 69, 0
1, 219598, Note_on_c, 0, 76, 0
1, 219600, Tempo, 891530
1, 219600, Note_on_c, 0, 74, 36
1, 219600, Note_on_c, 0, 78, 43
1, 219600, Note_on_c, 0, 57, 37
1, 219600, Note_on_c, 0, 50, 31
1, 219718, Note_on_c, 0, 78, 0
1, 219718, Note_on_c, 0, 74, 0
1, 219720, Note_on_c, 0, 76, 34
1, 219720, Note_on_c, 0, 81, 41
1, 219838, Note_on_c, 0, 81, 0
1, 219838, Note_on_c, 0, 76, 0
1, 219840, Note_on_c, 0, 74, 36
1, 219840, Note_on_c, 0, 78, 43
1, 219847, Control_c, 0, 64, 0
1, 219904, Control_c, 0, 64, 127
1, 219958, Note_on_c, 0, 78, 0
1, 219958, Note_on_c, 0, 74, 0
1, 219960, Note_on_c, 0, 69, 38
1, 219960, Note_on_c, 0, 76, 38
1, 220078, Note_on_c, 0, 76, 0
1, 220078, Note_on_c, 0, 69, 0
1, 220080, Tempo, 918836
1, 220080, Note_on_c, 0, 74, 35
1, 220080, Note_on_c, 0, 78, 41
1, 220198, Note_on_c, 0, 78, 0
1, 220198, Note_on_c, 0, 74, 0
1, 220200, Tempo, 940439
1, 220200, Note_on_c, 0, 76, 38
1, 220200, Note_on_c, 0, 81, 38
1, 220320, Tempo, 955414
1, 220320, Note_on_c, 0, 81, 0
1, 220320, Note_on_c, 0, 50, 0
1, 220320, Note_on_c, 0, 57, 0
1, 220320, Note_on_c, 0, 76, 0
1, 220320, Note_on_c, 0, 74, 34
1, 220320, Note_on_c, 0, 78, 40
1, 220338, Control_c, 0, 64, 0
1, 220417, Control_c, 0, 64, 127
1, 220428, Note_on_c, 0, 78, 0
1, 220428, Note_on_c, 0, 74, 0
1, 220440, Tempo, 940439
1, 220440, Note_on_c, 0, 50, 32
1, 220560, Tempo, 933126
1, 220560, Note_on_c, 0, 50, 0
1, 220560, Note_on_c, 0, 74, 36
1, 220560, Note_on_c, 0, 78, 43
1, 220560, Note_on_c, 0, 57, 35
1, 220680, Note_on_c, 0, 57, 0
1, 220680, Note_on_c, 0, 50, 32
1, 220800, Tempo, 925926
1, 220800, Note_on_c, 0, 57, 36
1, 220805, Control_c, 0, 64, 0
1, 220886, Control_c, 0, 64, 127
1, 220910, Note_on_c, 0, 78, 0
1, 220910, Note_on_c, 0, 74, 0
1, 220920, Note_on_c, 0, 69, 35
1, 220920, Note_on_c, 0, 76, 41
1, 221010, Note_on_c, 0, 50, 0
1, 221010, Note_on_c, 0, 57, 0
1, 221038, Note_on_c, 0, 69, 0
1, 221038, Note_on_c, 0, 76, 0
1, 221040, Tempo, 891530
1, 221040, Note_on_c, 0, 74, 37
1, 221040, Note_on_c, 0, 78, 44
1, 221040, Note_on_c, 0, 57, 38
1, 221040, Note_on_c, 0, 50, 31
1, 221158, Note_on_c, 0, 78, 0
1, 221158, Note_on_c, 0, 74, 0
1, 221160, Note_on_c, 0, 76, 35
1, 221160, Note_on_c, 0, 81, 43
1, 221278, Note_on_c, 0, 81, 0
1, 221278, Note_on_c, 0, 76, 0
1, 221280, Note_on_c, 0, 74, 38
1, 221280, Note_on_c, 0, 78, 46
1, 221287, Control_c, 0, 64, 0
1, 221344, Control_c, 0, 64, 127
1, 221398, Note_on_c, 0, 78, 0
1, 221398, Note_on_c, 0, 74, 0
1, 221400, Note_on_c, 0, 50, 0
1, 221400, Note_on_c, 0, 69, 41
1, 221400, Note_on_c, 0, 76, 41
1, 221400, Note_on_c, 0, 49, 32
1, 221518, Note_on_c, 0, 76, 0
1, 221518, Note_on_c, 0, 69, 0
1, 221520, Tempo, 918836
1, 221520, Note_on_c, 0, 49, 0
1, 221520, Note_on_c, 0, 74, 38
1, 221520, Note_on_c, 0, 78, 45
1, 221520, Note_on_c, 0, 47, 35
1, 221638, Note_on_c, 0, 78, 0
1, 221638, Note_on_c, 0, 74, 0
1, 221640, Tempo, 955414
1, 221640, Note_on_c, 0, 47, 0
1, 221640, Note_on_c, 0, 76, 42
1, 221640, Note_on_c, 0, 81, 42
1, 221640, Note_on_c, 0, 45, 39
1, 221760, Tempo, 1034483
1, 221760, Note_on_c, 0, 45, 0
1, 221760, Note_on_c, 0, 57, 0
1, 221760, Note_on_c, 0, 76, 0
1, 221760, Note_on_c, 0, 81, 0
1, 221760, Note_on_c, 0, 79, 39
1, 221760, Note_on_c, 0, 83, 46
1, 221778, Control_c, 0, 64, 0
1, 221857, Control_c, 0, 64, 127
1, 221868, Note_on_c, 0, 83, 0
1, 221868, Note_on_c, 0, 79, 0
1, 221880, Tempo, 1000000
1, 221880, Note_on_c, 0, 43, 36
1, 222000, Tempo, 955414
1, 222000, Note_on_c, 0, 43, 0
1, 222000, Note_on_c, 0, 83, 49
1, 222000, Note_on_c, 0, 79, 41
1, 222000, Note_on_c, 0, 50, 40
1, 222120, Note_on_c, 0, 50, 0
1, 222120, Note_on_c, 0, 43, 36
1, 222240, Tempo, 925926
1, 222240, Note_on_c, 0, 50, 41
1, 222245, Control_c, 0, 64, 0
1, 222326, Control_c, 0, 64, 127
1, 222350, Note_on_c, 0, 79, 0
1, 222350, Note_on_c, 0, 83, 0
1, 222360, Note_on_c, 0, 74, 40
1, 222360, Note_on_c, 0, 81, 47
1, 222450, Note_on_c, 0, 43, 0
1, 222450, Note_on_c, 0, 50, 0
1, 222477, Note_on_c, 0, 74, 0
1, 222478, Note_on_c, 0, 81, 0
1, 222480, Tempo, 891530
1, 222480, Note_on_c, 0, 79, 41
1, 222480, Note_on_c, 0, 83, 49
1, 222480, Note_on_c, 0, 50, 42
1, 222480, Note_on_c, 0, 43, 35
1, 222597, Note_on_c, 0, 79, 0
1, 222598, Note_on_c, 0, 83, 0
1, 222600, Note_on_c, 0, 74, 39
1, 222600, Note_on_c, 0, 81, 47
1, 222717, Note_on_c, 0, 74, 0
1, 222718, Note_on_c, 0, 81, 0
1, 222720, Note_on_c, 0, 71, 41
1, 222720, Note_on_c, 0, 79, 49
1, 222727, Control_c, 0, 64, 0
1, 222784, Control_c, 0, 64, 127
1, 222837, Note_on_c, 0, 79, 0
1, 222838, Note_on_c, 0, 71, 0
1, 222840, Note_on_c, 0, 69, 43
1, 222840, Note_on_c, 0, 74, 43
1, 222957, Note_on_c, 0, 74, 0
1, 222958, Note_on_c, 0, 69, 0
1, 222960, Tempo, 918836
1, 222960, Note_on_c, 0, 71, 40
1, 222960, Note_on_c, 0, 79, 47
1, 223077, Note_on_c, 0, 79, 0
1, 223078, Note_on_c, 0, 71, 0
1, 223080, Tempo, 940439
1, 223080, Note_on_c, 0, 74, 43
1, 223080, Note_on_c, 0, 84, 43
1, 223200, Tempo, 1034483
1, 223200, Note_on_c, 0, 84, 0
1, 223200, Note_on_c, 0, 43, 0
1, 223200, Note_on_c, 0, 50, 0
1, 223200, Note_on_c, 0, 74, 0
1, 223200, Note_on_c, 0, 79, 39
1, 223200, Note_on_c, 0, 83, 46
1, 223218, Control_c, 0, 64, 0
1, 223297, Control_c, 0, 64, 127
1, 223308, Note_on_c, 0, 83, 0
1, 223308, Note_on_c, 0, 79, 0
1, 223320, Tempo, 1000000
1, 223320, Note_on_c, 0, 43, 36
1, 223440, Tempo, 955414
1, 223440, Note_on_c, 0, 43, 0
1, 223440, Note_on_c, 0, 83, 49
1, 223440, Note_on_c, 0, 79, 41
1, 223440, Note_on_c, 0, 50, 40
1, 223560, Note_on_c, 0, 50, 0
1, 223560, Note_on_c, 0, 43, 36
1, 223680, Tempo, 925926
1, 223680, Note_on_c, 0, 50, 41
1, 223685, Control_c, 0, 64, 0
1, 223766, Control_c, 0, 64, 127
1, 223790, Note_on_c, 0, 79, 0
1, 223790, Note_on_c, 0, 83, 0
1, 223800, Note_on_c, 0, 79, 45
1, 223800, Note_on_c, 0, 83, 53
1, 223890, Note_on_c, 0, 43, 0
1, 223890, Note_on_c, 0, 50, 0
1, 223917, Note_on_c, 0, 79, 0
1, 223918, Note_on_c, 0, 83, 0
1, 223920, Tempo, 891530
1, 223920, Note_on_c, 0, 83, 49
1, 223920, Note_on_c, 0, 86, 58
1, 223920, Note_on_c, 0, 50, 42
1, 223920, Note_on_c, 0, 43, 35
1, 224037, Note_on_c, 0, 86, 0
1, 224037, Note_on_c, 0, 83, 0
1, 224040, Note_on_c, 0, 81, 45
1, 224040, Note_on_c, 0, 85, 54
1, 224157, Note_on_c, 0, 81, 0
1, 224158, Note_on_c, 0, 85, 0
1, 224160, Note_on_c, 0, 79, 50
1, 224160, Note_on_c, 0, 83, 59
1, 224167, Control_c, 0, 64, 0
1, 224224, Control_c, 0, 64, 127
1, 224277, Note_on_c, 0, 83, 0
1, 224277, Note_on_c, 0, 79, 0
1, 224280, Note_on_c, 0, 76, 43
1, 224280, Note_on_c, 0, 79, 51
1, 224397, Note_on_c, 0, 79, 0
1, 224398, Note_on_c, 0, 76, 0
1, 224400, Tempo, 918836
1, 224400, Note_on_c, 0, 79, 47
1, 224400, Note_on_c, 0, 83, 56
1, 224517, Note_on_c, 0, 83, 0
1, 224517, Note_on_c, 0, 79, 0
1, 224518, Note_on_c, 0, 43, 0
1, 224520, Tempo, 940439
1, 224520, Note_on_c, 0, 50, 0
1, 224520, Note_on_c, 0, 76, 43
1, 224520, Note_on_c, 0, 79, 51
1, 224520, Note_on_c, 0, 43, 31
1, 224520, Note_on_c, 0, 52, 39
1, 224640, Tempo, 1034483
1, 224640, Note_on_c, 0, 52, 0
1, 224640, Note_on_c, 0, 76, 0
1, 224640, Note_on_c, 0, 79, 0
1, 224640, Note_on_c, 0, 43, 0
1, 224640, Note_on_c, 0, 73, 39
1, 224640, Note_on_c, 0, 76, 46
1, 224658, Control_c, 0, 64, 0
1, 224737, Control_c, 0, 64, 127
1, 224748, Note_on_c, 0, 76, 0
1, 224748, Note_on_c, 0, 73, 0
1, 224760, Tempo, 1000000
1, 224760, Note_on_c, 0, 43, 36
1, 224880, Tempo, 955414
1, 224880, Note_on_c, 0, 43, 0
1, 224880, Note_on_c, 0, 76, 49
1, 224880, Note_on_c, 0, 73, 41
1, 224880, Note_on_c, 0, 52, 40
1, 225000, Note_on_c, 0, 52, 0
1, 225000, Note_on_c, 0, 43, 36
1, 225120, Tempo, 925926
1, 225120, Note_on_c, 0, 52, 41
1, 225125, Control_c, 0, 64, 0
1, 225206, Control_c, 0, 64, 127
1, 225230, Note_on_c, 0, 73, 0
1, 225230, Note_on_c, 0, 76, 0
1, 225240, Note_on_c, 0, 73, 45
1, 225240, Note_on_c, 0, 76, 53
1, 225330, Note_on_c, 0, 43, 0
1, 225330, Note_on_c, 0, 52, 0
1, 225357, Note_on_c, 0, 73, 0
1, 225358, Note_on_c, 0, 76, 0
1, 225360, Tempo, 891530
1, 225360, Note_on_c, 0, 76, 49
1, 225360, Note_on_c, 0, 79, 58
1, 225360, Note_on_c, 0, 52, 42
1, 225360, Note_on_c, 0, 43, 35
1, 225477, Note_on_c, 0, 79, 0
1, 225477, Note_on_c, 0, 76, 0
1, 225480, Note_on_c, 0, 74, 45
1, 225480, Note_on_c, 0, 78, 54
1, 225597, Note_on_c, 0, 74, 0
1, 225598, Note_on_c, 0, 78, 0
1, 225600, Note_on_c, 0, 73, 50
1, 225600, Note_on_c, 0, 76, 59
1, 225607, Control_c, 0, 64, 0
1, 225664, Control_c, 0, 64, 127
1, 225717, Note_on_c, 0, 76, 0
1, 225717, Note_on_c, 0, 73, 0
1, 225720, Note_on_c, 0, 74, 43
1, 225720, Note_on_c, 0, 78, 51
1, 225837, Note_on_c, 0, 78, 0
1, 225837, Note_on_c, 0, 74, 0
1, 225840, Tempo, 918836
1, 225840, Note_on_c, 0, 52, 0
1, 225840, Note_on_c, 0, 43, 0
1, 225840, Note_on_c, 0, 73, 47
1, 225840, Note_on_c, 0, 76, 56
1, 225840, Note_on_c, 0, 55, 35
1, 225840, Note_on_c, 0, 64, 42
1, 225957, Note_on_c, 0, 76, 0
1, 225957, Note_on_c, 0, 73, 0
1, 225960, Tempo, 940439
1, 225960, Note_on_c, 0, 71, 43
1, 225960, Note_on_c, 0, 73, 51
1, 226080, Tempo, 1034483
1, 226080, Note_on_c, 0, 73, 0
1, 226080, Note_on_c, 0, 64, 0
1, 226080, Note_on_c, 0, 55, 0
1, 226080, Note_on_c, 0, 71, 0
1, 226080, Note_on_c, 0, 70, 39
1, 226080, Note_on_c, 0, 78, 46
1, 226098, Control_c, 0, 64, 0
1, 226177, Control_c, 0, 64, 127
1, 226188, Note_on_c, 0, 78, 0
1, 226188, Note_on_c, 0, 70, 0
1, 226200, Tempo, 1000000
1, 226200, Note_on_c, 0, 54, 36
1, 226320, Tempo, 955414
1, 226320, Note_on_c, 0, 54, 0
1, 226320, Note_on_c, 0, 78, 49
1, 226320, Note_on_c, 0, 70, 41
1, 226320, Note_on_c, 0, 64, 40
1, 226440, Note_on_c, 0, 64, 0
1, 226440, Note_on_c, 0, 54, 36
1, 226560, Tempo, 925926
1, 226560, Note_on_c, 0, 64, 41
1, 226565, Control_c, 0, 64, 0
1, 226646, Control_c, 0, 64, 127
1, 226670, Note_on_c, 0, 70, 0
1, 226670, Note_on_c, 0, 78, 0
1, 226680, Note_on_c, 0, 73, 45
1, 226680, Note_on_c, 0, 76, 53
1, 226770, Note_on_c, 0, 54, 0
1, 226770, Note_on_c, 0, 64, 0
1, 226797, Note_on_c, 0, 73, 0
1, 226798, Note_on_c, 0, 76, 0
1, 226800, Tempo, 909091
1, 226800, Note_on_c, 0, 76, 49
1, 226800, Note_on_c, 0, 79, 58
1, 226800, Note_on_c, 0, 64, 42
1, 226800, Note_on_c, 0, 54, 35
1, 226917, Note_on_c, 0, 79, 0
1, 226917, Note_on_c, 0, 76, 0
1, 226920, Note_on_c, 0, 74, 45
1, 226920, Note_on_c, 0, 78, 54
1, 227037, Note_on_c, 0, 74, 0
1, 227038, Note_on_c, 0, 78, 0
1, 227040, Note_on_c, 0, 73, 50
1, 227040, Note_on_c, 0, 76, 59
1, 227047, Control_c, 0, 64, 0
1, 227104, Control_c, 0, 64, 127
1, 227157, Note_on_c, 0, 76, 0
1, 227157, Note_on_c, 0, 73, 0
1, 227160, Note_on_c, 0, 74, 43
1, 227160, Note_on_c, 0, 78, 51
1, 227277, Note_on_c, 0, 78, 0
1, 227277, Note_on_c, 0, 74, 0
1, 227280, Tempo, 952381
1, 227280, Note_on_c, 0, 64, 0
1, 227280, Note_on_c, 0, 54, 0
1, 227280, Note_on_c, 0, 73, 47
1, 227280, Note_on_c, 0, 76, 56
1, 227280, Note_on_c, 0, 55, 35
1, 227280, Note_on_c, 0, 64, 42
1, 227397, Note_on_c, 0, 76, 0
1, 227397, Note_on_c, 0, 73, 0
1, 227400, Tempo, 1000000
1, 227400, Note_on_c, 0, 71, 43
1, 227400, Note_on_c, 0, 73, 51
1, 227520, Tempo, 1034483
1, 227520, Note_on_c, 0, 73, 0
1, 227520, Note_on_c, 0, 64, 0
1, 227520, Note_on_c, 0, 55, 0
1, 227520, Note_on_c, 0, 71, 0
1, 227520, Note_on_c, 0, 70, 39
1, 227520, Note_on_c, 0, 78, 46
1, 227538, Control_c, 0, 64, 0
1, 227617, Control_c, 0, 64, 127
1, 227628, Note_on_c, 0, 78, 0
1, 227628, Note_on_c, 0, 70, 0
1, 227640, Tempo, 1000000
1, 227640, Note_on_c, 0, 54, 36
1, 227760, Tempo, 955414
1, 227760, Note_on_c, 0, 54, 0
1, 227760, Note_on_c, 0, 78, 49
1, 227760, Note_on_c, 0, 70, 41
1, 227760, Note_on_c, 0, 64, 40
1, 227880, Note_on_c, 0, 64, 0
1, 227880, Note_on_c, 0, 54, 36
1, 228000, Tempo, 925926
1, 228000, Note_on_c, 0, 64, 41
1, 228005, Control_c, 0, 64, 0
1, 228086, Control_c, 0, 64, 127
1, 228210, Note_on_c, 0, 64, 0
1, 228210, Note_on_c, 0, 54, 0
1, 228230, Note_on_c, 0, 70, 0
1, 228230, Note_on_c, 0, 78, 0
1, 228240, Tempo, 891530
1, 228240, Note_on_c, 0, 70, 46
1, 228240, Note_on_c, 0, 78, 46
1, 228240, Note_on_c, 0, 64, 42
1, 228240, Note_on_c, 0, 54, 35
1, 228487, Control_c, 0, 64, 0
1, 228544, Control_c, 0, 64, 127
1, 228710, Note_on_c, 0, 78, 0
1, 228710, Note_on_c, 0, 70, 0
1, 228720, Tempo, 918836
1, 228720, Note_on_c, 0, 64, 0
1, 228720, Note_on_c, 0, 54, 0
1, 228720, Note_on_c, 0, 70, 45
1, 228720, Note_on_c, 0, 78, 45
1, 228720, Note_on_c, 0, 54, 35
1, 228720, Note_on_c, 0, 64, 42
1, 228840, Tempo, 1200000
1, 228936, Note_on_c, 0, 64, 0
1, 228936, Note_on_c, 0, 70, 0
1, 228936, Note_on_c, 0, 78, 0
1, 228936, Note_on_c, 0, 54, 0
1, 228960, Tempo, 1034483
1, 228960, Note_on_c, 0, 69, 39
1, 228960, Note_on_c, 0, 78, 46
1, 228978, Control_c, 0, 64, 0
1, 229057, Control_c, 0, 64, 127
1, 229068, Note_on_c, 0, 78, 0
1, 229068, Note_on_c, 0, 69, 0
1, 229080, Tempo, 1000000
1, 229080, Note_on_c, 0, 47, 36
1, 229200, Tempo, 978793
1, 229200, Note_on_c, 0, 47, 0
1, 229200, Note_on_c, 0, 78, 48
1, 229200, Note_on_c, 0, 69, 40
1, 229200, Note_on_c, 0, 63, 39
1, 229320, Note_on_c, 0, 63, 0
1, 229320, Note_on_c, 0, 47, 35
1, 229440, Tempo, 947867
1, 229440, Note_on_c, 0, 63, 39
1, 229650, Note_on_c, 0, 63, 0
1, 229650, Note_on_c, 0, 47, 0
1, 229670, Note_on_c, 0, 69, 0
1, 229670, Note_on_c, 0, 78, 0
1, 229680, Tempo, 918836
1, 229680, Note_on_c, 0, 69, 46
1, 229680, Note_on_c, 0, 78, 46
1, 229680, Note_on_c, 0, 63, 39
1, 229680, Note_on_c, 0, 47, 33
1, 230150, Note_on_c, 0, 47, 0
1, 230150, Note_on_c, 0, 69, 0
1, 230150, Note_on_c, 0, 78, 0
1, 230150, Note_on_c, 0, 63, 0
1, 230160, Tempo, 1011804
1, 230160, Note_on_c, 0, 69, 45
1, 230160, Note_on_c, 0, 78, 45
1, 230160, Note_on_c, 0, 47, 32
1, 230160, Note_on_c, 0, 63, 38
1, 230376, Note_on_c, 0, 63, 0
1, 230376, Note_on_c, 0, 69, 0
1, 230376, Note_on_c, 0, 78, 0
1, 230376, Note_on_c, 0, 47, 0
1, 230400, Tempo, 1056338
1, 230400, Note_on_c, 0, 68, 35
1, 230400, Note_on_c, 0, 76, 41
1, 230411, Control_c, 0, 64, 0
1, 230480, Control_c, 0, 64, 127
1, 230508, Note_on_c, 0, 76, 0
1, 230508, Note_on_c, 0, 68, 0
1, 230520, Tempo, 1029160
1, 230520, Note_on_c, 0, 52, 32
1, 230640, Tempo, 978793
1, 230640, Note_on_c, 0, 52, 0
1, 230640, Note_on_c, 0, 76, 43
1, 230640, Note_on_c, 0, 68, 36
1, 230640, Note_on_c, 0, 62, 35
1, 230760, Note_on_c, 0, 62, 0
1, 230760, Note_on_c, 0, 52, 31
1, 230880, Tempo, 970874
1, 230880, Note_on_c, 0, 62, 35
1, 231000, Tempo, 925926
1, 231000, Note_on_c, 0, 71, 39
1, 231000, Note_on_c, 0, 74, 46
1, 231086, Control_c, 0, 64, 0
1, 231090, Note_on_c, 0, 62, 0
1, 231090, Note_on_c, 0, 52, 0
1, 231110, Note_on_c, 0, 76, 0
1, 231110, Note_on_c, 0, 68, 0
1, 231117, Note_on_c, 0, 74, 0
1, 231117, Note_on_c, 0, 71, 0
1, 231120, Tempo, 891530
1, 231120, Note_on_c, 0, 74, 42
1, 231120, Note_on_c, 0, 77, 50
1, 231120, Note_on_c, 0, 62, 36
1, 231120, Note_on_c, 0, 52, 30
1, 231237, Note_on_c, 0, 77, 0
1, 231237, Note_on_c, 0, 74, 0
1, 231240, Note_on_c, 0, 72, 38
1, 231240, Note_on_c, 0, 76, 46
1, 231357, Note_on_c, 0, 72, 0
1, 231358, Note_on_c, 0, 76, 0
1, 231360, Note_on_c, 0, 71, 42
1, 231360, Note_on_c, 0, 74, 49
1, 231367, Control_c, 0, 64, 0
1, 231424, Control_c, 0, 64, 127
1, 231477, Note_on_c, 0, 74, 0
1, 231477, Note_on_c, 0, 71, 0
1, 231480, Note_on_c, 0, 72, 36
1, 231480, Note_on_c, 0, 76, 42
1, 231597, Note_on_c, 0, 76, 0
1, 231597, Note_on_c, 0, 72, 0
1, 231600, Tempo, 918836
1, 231600, Note_on_c, 0, 62, 0
1, 231600, Note_on_c, 0, 52, 0
1, 231600, Note_on_c, 0, 71, 38
1, 231600, Note_on_c, 0, 74, 45
1, 231600, Note_on_c, 0, 53, 28
1, 231600, Note_on_c, 0, 62, 34
1, 231717, Note_on_c, 0, 74, 0
1, 231717, Note_on_c, 0, 71, 0
1, 231720, Tempo, 940439
1, 231720, Note_on_c, 0, 69, 34
1, 231720, Note_on_c, 0, 71, 41
1, 231840, Tempo, 1034483
1, 231840, Note_on_c, 0, 71, 0
1, 231840, Note_on_c, 0, 62, 0
1, 231840, Note_on_c, 0, 53, 0
1, 231840, Note_on_c, 0, 69, 0
1, 231840, Note_on_c, 0, 68, 31
1, 231840, Note_on_c, 0, 76, 36
1, 231858, Control_c, 0, 64, 0
1, 231937, Control_c, 0, 64, 127
1, 231948, Note_on_c, 0, 76, 0
1, 231948, Note_on_c, 0, 68, 0
1, 231960, Tempo, 1000000
1, 231960, Note_on_c, 0, 52, 28
1, 232080, Tempo, 955414
1, 232080, Note_on_c, 0, 52, 0
1, 232080, Note_on_c, 0, 76, 39
1, 232080, Note_on_c, 0, 68, 32
1, 232080, Note_on_c, 0, 62, 32
1, 232200, Note_on_c, 0, 62, 0
1, 232200, Note_on_c, 0, 52, 28
1, 232320, Tempo, 925926
1, 232320, Note_on_c, 0, 62, 32
1, 232325, Control_c, 0, 64, 0
1, 232406, Control_c, 0, 64, 127
1, 232430, Note_on_c, 0, 68, 0
1, 232430, Note_on_c, 0, 76, 0
1, 232440, Note_on_c, 0, 71, 36
1, 232440, Note_on_c, 0, 74, 42
1, 232530, Note_on_c, 0, 52, 0
1, 232530, Note_on_c, 0, 62, 0
1, 232557, Note_on_c, 0, 71, 0
1, 232557, Note_on_c, 0, 74, 0
1, 232560, Tempo, 891530
1, 232560, Note_on_c, 0, 74, 39
1, 232560, Note_on_c, 0, 77, 46
1, 232560, Note_on_c, 0, 62, 33
1, 232560, Note_on_c, 0, 52, 28
1, 232677, Note_on_c, 0, 77, 0
1, 232677, Note_on_c, 0, 74, 0
1, 232680, Note_on_c, 0, 72, 36
1, 232680, Note_on_c, 0, 76, 43
1, 232797, Note_on_c, 0, 72, 0
1, 232798, Note_on_c, 0, 76, 0
1, 232800, Note_on_c, 0, 71, 40
1, 232800, Note_on_c, 0, 74, 47
1, 232807, Control_c, 0, 64, 0
1, 232864, Control_c, 0, 64, 127
1, 232917, Note_on_c, 0, 74, 0
1, 232917, Note_on_c, 0, 71, 0
1, 232920, Note_on_c, 0, 72, 34
1, 232920, Note_on_c, 0, 76, 40
1, 233037, Note_on_c, 0, 76, 0
1, 233037, Note_on_c, 0, 72, 0
1, 233040, Tempo, 918836
1, 233040, Note_on_c, 0, 62, 0
1, 233040, Note_on_c, 0, 52, 0
1, 233040, Note_on_c, 0, 71, 37
1, 233040, Note_on_c, 0, 74, 44
1, 233040, Note_on_c, 0, 53, 28
1, 233040, Note_on_c, 0, 62, 33
1, 233157, Note_on_c, 0, 74, 0
1, 233157, Note_on_c, 0, 71, 0
1, 233160, Tempo, 940439
1, 233160, Note_on_c, 0, 69, 34
1, 233160, Note_on_c, 0, 71, 40
1, 233280, Tempo, 1034483
1, 233280, Note_on_c, 0, 71, 0
1, 233280, Note_on_c, 0, 62, 0
1, 233280, Note_on_c, 0, 53, 0
1, 233280, Note_on_c, 0, 69, 0
1, 233280, Note_on_c, 0, 68, 31
1, 233280, Note_on_c, 0, 76, 36
1, 233298, Control_c, 0, 64, 0
1, 233377, Control_c, 0, 64, 127
1, 233388, Note_on_c, 0, 76, 0
1, 233388, Note_on_c, 0, 68, 0
1, 233400, Tempo, 1000000
1, 233400, Note_on_c, 0, 52, 28
1, 233520, Tempo, 978793
1, 233520, Note_on_c, 0, 52, 0
1, 233520, Note_on_c, 0, 76, 38
1, 233520, Note_on_c, 0, 68, 32
1, 233520, Note_on_c, 0, 62, 31
1, 233640, Note_on_c, 0, 62, 0
1, 233640, Note_on_c, 0, 52, 28
1, 233760, Tempo, 947867
1, 233760, Note_on_c, 0, 62, 31
1, 233970, Note_on_c, 0, 62, 0
1, 233970, Note_on_c, 0, 52, 0
1, 233990, Note_on_c, 0, 68, 0
1, 233990, Note_on_c, 0, 76, 0
1, 234000, Tempo, 952381
1, 234000, Note_on_c, 0, 52, 31
1, 234000, Note_on_c, 0, 62, 35
1, 234116, Note_on_c, 0, 52, 0
1, 234120, Note_on_c, 0, 62, 0
1, 234120, Note_on_c, 0, 64, 76
1, 234131, Control_c, 0, 64, 0
1, 234240, Tempo, 952381
1, 234240, Note_on_c, 0, 64, 0
1, 234240, Note_on_c, 0, 61, 68
1, 234240, Note_on_c, 0, 69, 81
1, 234247, Control_c, 0, 64, 127
1, 234348, Note_on_c, 0, 69, 0
1, 234348, Note_on_c, 0, 61, 0
1, 234360, Tempo, 857143
1, 234360, Note_on_c, 0, 69, 75
1, 234360, Note_on_c, 0, 61, 63
1, 234480, Tempo, 930233
1, 234480, Note_on_c, 0, 52, 66
1, 234600, Note_on_c, 0, 52, 0
1, 234600, Note_on_c, 0, 61, 0
1, 234600, Note_on_c, 0, 69, 0
1, 234600, Note_on_c, 0, 64, 64
1, 234600, Note_on_c, 0, 71, 76
1, 234600, Note_on_c, 0, 56, 61
1, 234610, Control_c, 0, 64, 0
1, 234720, Tempo, 991736
1, 234720, Note_on_c, 0, 56, 0
1, 234720, Note_on_c, 0, 71, 0
1, 234720, Note_on_c, 0, 64, 0
1, 234720, Note_on_c, 0, 69, 73
1, 234720, Note_on_c, 0, 73, 86
1, 234720, Note_on_c, 0, 57, 66
1, 234791, Control_c, 0, 64, 127
1, 234840, Tempo, 916031
1, 234840, Note_on_c, 0, 57, 0
1, 234840, Note_on_c, 0, 45, 77
1, 234936, Note_on_c, 0, 73, 0
1, 234936, Note_on_c, 0, 69, 0
1, 234960, Tempo, 1043478
1, 234960, Note_on_c, 0, 69, 72
1, 234960, Note_on_c, 0, 73, 85
1, 235080, Tempo, 930233
1, 235080, Note_on_c, 0, 45, 0
1, 235080, Note_on_c, 0, 33, 59
1, 235200, Note_on_c, 0, 33, 0
1, 235200, Note_on_c, 0, 45, 65
1, 235317, Note_on_c, 0, 73, 0
1, 235317, Note_on_c, 0, 69, 0
1, 235320, Note_on_c, 0, 45, 0
1, 235320, Note_on_c, 0, 69, 73
1, 235320, Note_on_c, 0, 73, 86
1, 235440, Note_on_c, 0, 52, 73
1, 235560, Note_on_c, 0, 52, 0
1, 235560, Note_on_c, 0, 73, 0
1, 235560, Note_on_c, 0, 69, 0
1, 235560, Note_on_c, 0, 64, 63
1, 235560, Note_on_c, 0, 71, 74
1, 235560, Note_on_c, 0, 56, 63
1, 235570, Control_c, 0, 64, 0
1, 235680, Note_on_c, 0, 56, 0
1, 235680, Note_on_c, 0, 71, 0
1, 235680, Note_on_c, 0, 64, 0
1, 235680, Note_on_c, 0, 61, 65
1, 235680, Note_on_c, 0, 69, 77
1, 235680, Note_on_c, 0, 54, 65
1, 235701, Control_c, 0, 64, 127
1, 235788, Note_on_c, 0, 69, 0
1, 235788, Note_on_c, 0, 61, 0
1, 235800, Tempo, 827586
1, 235800, Note_on_c, 0, 54, 0
1, 235800, Note_on_c, 0, 66, 73
1, 235800, Note_on_c, 0, 69, 86
1, 235920, Tempo, 1000000
1, 235920, Note_on_c, 0, 49, 71
1, 236040, Tempo, 923077
1, 236040, Note_on_c, 0, 49, 0
1, 236040, Note_on_c, 0, 69, 0
1, 236040, Note_on_c, 0, 66, 0
1, 236040, Note_on_c, 0, 61, 64
1, 236040, Note_on_c, 0, 68, 76
1, 236040, Note_on_c, 0, 52, 65
1, 236049, Control_c, 0, 64, 0
1, 236160, Tempo, 1008403
1, 236160, Note_on_c, 0, 52, 0
1, 236160, Note_on_c, 0, 68, 0
1, 236160, Note_on_c, 0, 61, 0
1, 236160, Note_on_c, 0, 57, 68
1, 236160, Note_on_c, 0, 66, 80
1, 236160, Note_on_c, 0, 50, 65
1, 236195, Control_c, 0, 64, 127
1, 236280, Tempo, 1000000
1, 236280, Note_on_c, 0, 50, 0
1, 236280, Note_on_c, 0, 38, 74
1, 236376, Note_on_c, 0, 66, 0
1, 236376, Note_on_c, 0, 57, 0
1, 236400, Tempo, 923077
1, 236400, Note_on_c, 0, 57, 73
1, 236400, Note_on_c, 0, 66, 86
1, 236509, Control_c, 0, 64, 0
1, 236520, Note_on_c, 0, 38, 0
1, 236520, Note_on_c, 0, 33, 65
1, 236640, Note_on_c, 0, 33, 0
1, 236640, Note_on_c, 0, 38, 65
1, 236760, Note_on_c, 0, 38, 0
1, 236760, Note_on_c, 0, 42, 58
1, 236880, Tempo, 952381
1, 236880, Note_on_c, 0, 42, 0
1, 236880, Note_on_c, 0, 66, 0
1, 236880, Note_on_c, 0, 57, 0
1, 236880, Note_on_c, 0, 66, 76
1, 236880, Note_on_c, 0, 38, 61
1, 236890, Control_c, 0, 64, 0
1, 236986, Control_c, 0, 64, 127
1, 237000, Note_on_c, 0, 38, 0
1, 237000, Note_on_c, 0, 37, 64
1, 237120, Tempo, 952381
1, 237120, Note_on_c, 0, 37, 0
1, 237120, Note_on_c, 0, 66, 0
1, 237120, Note_on_c, 0, 62, 68
1, 237120, Note_on_c, 0, 71, 81
1, 237120, Note_on_c, 0, 35, 68
1, 237228, Note_on_c, 0, 71, 0
1, 237228, Note_on_c, 0, 62, 0
1, 237240, Tempo, 857143
1, 237240, Note_on_c, 0, 35, 0
1, 237240, Note_on_c, 0, 71, 75
1, 237240, Note_on_c, 0, 62, 63
1, 237360, Tempo, 930233
1, 237360, Note_on_c, 0, 54, 66
1, 237480, Note_on_c, 0, 54, 0
1, 237480, Note_on_c, 0, 62, 0
1, 237480, Note_on_c, 0, 71, 0
1, 237480, Note_on_c, 0, 66, 64
1, 237480, Note_on_c, 0, 73, 76
1, 237480, Note_on_c, 0, 58, 61
1, 237490, Control_c, 0, 64, 0
1, 237600, Tempo, 1052632
1, 237600, Note_on_c, 0, 58, 0
1, 237600, Note_on_c, 0, 73, 0
1, 237600, Note_on_c, 0, 66, 0
1, 237600, Note_on_c, 0, 71, 73
1, 237600, Note_on_c, 0, 74, 86
1, 237600, Note_on_c, 0, 59, 66
1, 237671, Control_c, 0, 64, 127
1, 237720, Tempo, 916031
1, 237720, Note_on_c, 0, 59, 0
1, 237720, Note_on_c, 0, 47, 77
1, 237816, Note_on_c, 0, 74, 0
1, 237816, Note_on_c, 0, 71, 0
1, 237840, Tempo, 1043478
1, 237840, Note_on_c, 0, 71, 72
1, 237840, Note_on_c, 0, 74, 85
1, 237960, Tempo, 930233
1, 237960, Note_on_c, 0, 47, 0
1, 237960, Note_on_c, 0, 35, 59
1, 238080, Note_on_c, 0, 35, 0
1, 238080, Note_on_c, 0, 47, 65
1, 238197, Note_on_c, 0, 74, 0
1, 238197, Note_on_c, 0, 71, 0
1, 238200, Note_on_c, 0, 47, 0
1, 238200, Note_on_c, 0, 71, 73
1, 238200, Note_on_c, 0, 74, 86
1, 238320, Note_on_c, 0, 54, 73
1, 238440, Note_on_c, 0, 54, 0
1, 238440, Note_on_c, 0, 74, 0
1, 238440, Note_on_c, 0, 71, 0
1, 238440, Note_on_c, 0, 66, 63
1, 238440, Note_on_c, 0, 72, 74
1, 238440, Note_on_c, 0, 57, 63
1, 238450, Control_c, 0, 64, 0
1, 238560, Tempo, 895522
1, 238560, Note_on_c, 0, 57, 0
1, 238560, Note_on_c, 0, 72, 0
1, 238560, Note_on_c, 0, 66, 0
1, 238560, Note_on_c, 0, 62, 65
1, 238560, Note_on_c, 0, 71, 77
1, 238560, Note_on_c, 0, 55, 65
1, 238566, Control_c, 0, 64, 127
1, 238668, Note_on_c, 0, 71, 0
1, 238668, Note_on_c, 0, 62, 0
1, 238680, Tempo, 851064
1, 238680, Note_on_c, 0, 55, 0
1, 238680, Note_on_c, 0, 67, 73
1, 238680, Note_on_c, 0, 71, 86
1, 238800, Tempo, 875912
1, 238800, Note_on_c, 0, 51, 71
1, 238920, Tempo, 923077
1, 238920, Note_on_c, 0, 51, 0
1, 238920, Note_on_c, 0, 71, 0
1, 238920, Note_on_c, 0, 67, 0
1, 238920, Note_on_c, 0, 63, 64
1, 238920, Note_on_c, 0, 69, 76
1, 238920, Note_on_c, 0, 54, 65
1, 238929, Control_c, 0, 64, 0
1, 239040, Tempo, 1016949
1, 239040, Note_on_c, 0, 54, 0
1, 239040, Note_on_c, 0, 69, 0
1, 239040, Note_on_c, 0, 63, 0
1, 239040, Note_on_c, 0, 59, 68
1, 239040, Note_on_c, 0, 67, 80
1, 239040, Note_on_c, 0, 52, 65
1, 239075, Control_c, 0, 64, 127
1, 239148, Note_on_c, 0, 67, 0
1, 239148, Note_on_c, 0, 59, 0
1, 239160, Tempo, 1000000
1, 239160, Note_on_c, 0, 52, 0
1, 239160, Note_on_c, 0, 40, 74
1, 239280, Tempo, 923077
1, 239280, Note_on_c, 0, 59, 73
1, 239280, Note_on_c, 0, 67, 86
1, 239400, Note_on_c, 0, 40, 0
1, 239400, Note_on_c, 0, 35, 65
1, 239520, Note_on_c, 0, 35, 0
1, 239520, Note_on_c, 0, 40, 65
1, 239636, Note_on_c, 0, 67, 0
1, 239637, Note_on_c, 0, 59, 0
1, 239640, Tempo, 930233
1, 239640, Note_on_c, 0, 55, 73
1, 239640, Note_on_c, 0, 64, 73
1, 239640, Note_on_c, 0, 67, 86
1, 239640, Note_on_c, 0, 40, 73
1, 239640, Note_on_c, 0, 52, 73
1, 239750, Note_on_c, 0, 40, 0
1, 239870, Note_on_c, 0, 40, 0
1, 239870, Note_on_c, 0, 52, 0
1, 239878, Note_on_c, 0, 64, 0
1, 239880, Note_on_c, 0, 67, 0
1, 239880, Note_on_c, 0, 55, 0
1, 239880, Note_on_c, 0, 57, 64
1, 239880, Note_on_c, 0, 64, 64
1, 239880, Note_on_c, 0, 69, 77
1, 239880, Note_on_c, 0, 42, 60
1, 239880, Note_on_c, 0, 52, 58
1, 239880, Note_on_c, 0, 54, 64
1, 239890, Control_c, 0, 64, 0
1, 239998, Note_on_c, 0, 52, 0
1, 239998, Note_on_c, 0, 64, 0
1, 240000, Tempo, 895522
1, 240000, Note_on_c, 0, 42, 0
1, 240000, Note_on_c, 0, 57, 0
1, 240000, Note_on_c, 0, 54, 0
1, 240000, Note_on_c, 0, 69, 0
1, 240000, Note_on_c, 0, 64, 67
1, 240000, Note_on_c, 0, 59, 68
1, 240000, Note_on_c, 0, 71, 81
1, 240000, Note_on_c, 0, 52, 60
1, 240000, Note_on_c, 0, 43, 58
1, 240000, Note_on_c, 0, 55, 68
1, 240005, Control_c, 0, 64, 127
1, 240108, Note_on_c, 0, 71, 0
1, 240108, Note_on_c, 0, 59, 0
1, 240120, Tempo, 851064
1, 240120, Note_on_c, 0, 52, 0
1, 240120, Note_on_c, 0, 64, 0
1, 240120, Note_on_c, 0, 55, 0
1, 240120, Note_on_c, 0, 43, 0
1, 240120, Note_on_c, 0, 60, 75
1, 240120, Note_on_c, 0, 69, 75
1, 240120, Note_on_c, 0, 72, 89
1, 240120, Note_on_c, 0, 52, 65
1, 240120, Note_on_c, 0, 57, 73
1, 240120, Note_on_c, 0, 45, 65
1, 240131, Control_c, 0, 64, 0
1, 240212, Control_c, 0, 64, 127
1, 240240, Tempo, 875912
1, 240350, Note_on_c, 0, 57, 0
1, 240360, Tempo, 923077
1, 240360, Note_on_c, 0, 69, 0
1, 240360, Note_on_c, 0, 72, 0
1, 240360, Note_on_c, 0, 60, 0
1, 240360, Note_on_c, 0, 45, 0
1, 240360, Note_on_c, 0, 52, 0
1, 240360, Note_on_c, 0, 67, 71
1, 240360, Note_on_c, 0, 62, 71
1, 240360, Note_on_c, 0, 74, 85
1, 240360, Note_on_c, 0, 55, 70
1, 240360, Note_on_c, 0, 47, 70
1, 240360, Note_on_c, 0, 59, 72
1, 240365, Control_c, 0, 64, 0
1, 240417, Control_c, 0, 64, 127
1, 240480, Tempo, 1008403
1, 240480, Note_on_c, 0, 59, 0
1, 240480, Note_on_c, 0, 62, 0
1, 240480, Note_on_c, 0, 74, 0
1, 240480, Note_on_c, 0, 67, 0
1, 240480, Note_on_c, 0, 47, 0
1, 240480, Note_on_c, 0, 55, 0
1, 240480, Note_on_c, 0, 64, 78
1, 240480, Note_on_c, 0, 67, 78
1, 240480, Note_on_c, 0, 76, 92
1, 240480, Note_on_c, 0, 48, 63
1, 240480, Note_on_c, 0, 55, 63
1, 240480, Note_on_c, 0, 60, 74
1, 240480, Control_c, 0, 64, 0
1, 240551, Control_c, 0, 64, 127
1, 240588, Note_on_c, 0, 76, 0
1, 240588, Note_on_c, 0, 67, 0
1, 240600, Tempo, 1000000
1, 240600, Note_on_c, 0, 48, 0
1, 240600, Note_on_c, 0, 64, 0
1, 240600, Note_on_c, 0, 60, 0
1, 240600, Note_on_c, 0, 55, 0
1, 240720, Tempo, 923077
1, 240720, Note_on_c, 0, 64, 83
1, 240720, Note_on_c, 0, 67, 83
1, 240720, Note_on_c, 0, 76, 98
1, 240720, Note_on_c, 0, 48, 71
1, 240720, Note_on_c, 0, 55, 71
1, 240720, Note_on_c, 0, 60, 85
1, 240784, Control_c, 0, 64, 0
1, 240868, Control_c, 0, 64, 127
1, 240960, Tempo, 895522
1, 241076, Note_on_c, 0, 60, 0
1, 241076, Note_on_c, 0, 48, 0
1, 241076, Note_on_c, 0, 67, 0
1, 241076, Note_on_c, 0, 55, 0
1, 241077, Note_on_c, 0, 64, 0
1, 241077, Note_on_c, 0, 76, 0
1, 241080, Note_on_c, 0, 72, 80
1, 241080, Note_on_c, 0, 79, 95
1, 241080, Note_on_c, 0, 64, 81
1, 241080, Note_on_c, 0, 52, 69
1, 241197, Note_on_c, 0, 79, 0
1, 241197, Note_on_c, 0, 72, 0
1, 241200, Tempo, 863309
1, 241200, Note_on_c, 0, 64, 0
1, 241200, Note_on_c, 0, 52, 0
1, 241200, Note_on_c, 0, 72, 83
1, 241200, Note_on_c, 0, 76, 83
1, 241200, Note_on_c, 0, 84, 98
1, 241200, Note_on_c, 0, 67, 85
1, 241200, Note_on_c, 0, 55, 71
1, 241317, Note_on_c, 0, 84, 0
1, 241317, Note_on_c, 0, 72, 0
1, 241318, Note_on_c, 0, 76, 0
1, 241320, Note_on_c, 0, 55, 0
1, 241320, Note_on_c, 0, 67, 0
1, 241320, Note_on_c, 0, 72, 79
1, 241320, Note_on_c, 0, 79, 94
1, 241320, Note_on_c, 0, 64, 80
1, 241320, Note_on_c, 0, 52, 67
1, 241437, Note_on_c, 0, 79, 0
1, 241437, Note_on_c, 0, 72, 0
1, 241440, Note_on_c, 0, 64, 0
1, 241440, Note_on_c, 0, 52, 0
1, 241440, Note_on_c, 0, 72, 83
1, 241440, Note_on_c, 0, 76, 98
1, 241440, Note_on_c, 0, 48, 71
1, 241440, Note_on_c, 0, 60, 85
1, 241447, Control_c, 0, 64, 0
1, 241504, Control_c, 0, 64, 127
1, 241557, Note_on_c, 0, 72, 0
1, 241558, Note_on_c, 0, 76, 0
1, 241560, Note_on_c, 0, 48, 0
1, 241560, Note_on_c, 0, 60, 0
1, 241560, Note_on_c, 0, 72, 92
1, 241560, Note_on_c, 0, 47, 66
1, 241560, Note_on_c, 0, 59, 78
1, 241677, Note_on_c, 0, 72, 0
1, 241680, Tempo, 916031
1, 241680, Note_on_c, 0, 59, 0
1, 241680, Note_on_c, 0, 47, 0
1, 241680, Note_on_c, 0, 72, 80
1, 241680, Note_on_c, 0, 76, 95
1, 241680, Note_on_c, 0, 45, 69
1, 241680, Note_on_c, 0, 57, 81
1, 241797, Note_on_c, 0, 72, 0
1, 241798, Note_on_c, 0, 76, 0
1, 241800, Note_on_c, 0, 45, 0
1, 241800, Note_on_c, 0, 57, 0
1, 241800, Note_on_c, 0, 79, 95
1, 241800, Note_on_c, 0, 72, 80
1, 241800, Note_on_c, 0, 43, 69
1, 241800, Note_on_c, 0, 55, 81
1, 241920, Tempo, 1034483
1, 241920, Note_on_c, 0, 55, 0
1, 241920, Note_on_c, 0, 79, 0
1, 241920, Note_on_c, 0, 72, 0
1, 241920, Note_on_c, 0, 43, 0
1, 241920, Note_on_c, 0, 77, 78
1, 241920, Note_on_c, 0, 69, 78
1, 241920, Note_on_c, 0, 72, 78
1, 241920, Note_on_c, 0, 81, 92
1, 241920, Note_on_c, 0, 41, 63
1, 241920, Note_on_c, 0, 48, 63
1, 241920, Note_on_c, 0, 53, 74
1, 241920, Control_c, 0, 64, 0
1, 241991, Control_c, 0, 64, 127
1, 242028, Note_on_c, 0, 81, 0
1, 242028, Note_on_c, 0, 72, 0
1, 242040, Tempo, 1000000
1, 242040, Note_on_c, 0, 69, 0
1, 242040, Note_on_c, 0, 41, 0
1, 242040, Note_on_c, 0, 77, 0
1, 242040, Note_on_c, 0, 53, 0
1, 242040, Note_on_c, 0, 48, 0
1, 242160, Tempo, 923077
1, 242160, Note_on_c, 0, 77, 78
1, 242160, Note_on_c, 0, 69, 78
1, 242160, Note_on_c, 0, 72, 78
1, 242160, Note_on_c, 0, 81, 93
1, 242160, Note_on_c, 0, 41, 67
1, 242160, Note_on_c, 0, 48, 67
1, 242160, Note_on_c, 0, 53, 80
1, 242224, Control_c, 0, 64, 0
1, 242308, Control_c, 0, 64, 127
1, 242400, Tempo, 895522
1, 242516, Note_on_c, 0, 53, 0
1, 242516, Note_on_c, 0, 41, 0
1, 242516, Note_on_c, 0, 77, 0
1, 242516, Note_on_c, 0, 72, 0
1, 242516, Note_on_c, 0, 48, 0
1, 242517, Note_on_c, 0, 69, 0
1, 242517, Note_on_c, 0, 81, 0
1, 242520, Note_on_c, 0, 69, 80
1, 242520, Note_on_c, 0, 72, 80
1, 242520, Note_on_c, 0, 81, 95
1, 242520, Note_on_c, 0, 48, 76
1, 242520, Note_on_c, 0, 41, 55
1, 242640, Tempo, 863309
1, 242640, Note_on_c, 0, 48, 0
1, 242640, Note_on_c, 0, 53, 81
1, 242758, Note_on_c, 0, 72, 0
1, 242760, Note_on_c, 0, 41, 0
1, 242760, Note_on_c, 0, 69, 0
1, 242760, Note_on_c, 0, 81, 0
1, 242760, Note_on_c, 0, 53, 0
1, 242760, Note_on_c, 0, 70, 75
1, 242760, Note_on_c, 0, 72, 75
1, 242760, Note_on_c, 0, 82, 89
1, 242760, Note_on_c, 0, 48, 63
1, 242760, Note_on_c, 0, 55, 76
1, 242760, Note_on_c, 0, 43, 63
1, 242870, Note_on_c, 0, 43, 0
1, 242870, Note_on_c, 0, 48, 0
1, 242880, Note_on_c, 0, 82, 0
1, 242880, Note_on_c, 0, 70, 0
1, 242880, Note_on_c, 0, 72, 0
1, 242880, Note_on_c, 0, 55, 0
1, 242880, Note_on_c, 0, 69, 78
1, 242880, Note_on_c, 0, 72, 78
1, 242880, Note_on_c, 0, 81, 93
1, 242880, Note_on_c, 0, 41, 67
1, 242880, Note_on_c, 0, 48, 67
1, 242880, Note_on_c, 0, 53, 80
1, 242887, Control_c, 0, 64, 0
1, 242944, Control_c, 0, 64, 127
1, 242994, Note_on_c, 0, 53, 0
1, 242994, Note_on_c, 0, 72, 0
1, 242994, Note_on_c, 0, 81, 0
1, 242994, Note_on_c, 0, 69, 0
1, 242994, Note_on_c, 0, 48, 0
1, 242994, Note_on_c, 0, 41, 0
1, 243000, Note_on_c, 0, 69, 90
1, 243000, Note_on_c, 0, 72, 90
1, 243000, Note_on_c, 0, 81, 90
1, 243000, Note_on_c, 0, 41, 65
1, 243000, Note_on_c, 0, 48, 76
1, 243120, Tempo, 916031
1, 243120, Note_on_c, 0, 48, 0
1, 243120, Note_on_c, 0, 53, 76
1, 243240, Note_on_c, 0, 53, 0
1, 243240, Note_on_c, 0, 41, 0
1, 243240, Note_on_c, 0, 69, 0
1, 243240, Note_on_c, 0, 72, 0
1, 243240, Note_on_c, 0, 81, 0
1, 243240, Note_on_c, 0, 67, 80
1, 243240, Note_on_c, 0, 79, 95
1, 243240, Note_on_c, 0, 73, 80
1, 243240, Note_on_c, 0, 39, 69
1, 243240, Note_on_c, 0, 51, 81
1, 243360, Tempo, 1034483
1, 243360, Note_on_c, 0, 51, 0
1, 243360, Note_on_c, 0, 73, 0
1, 243360, Note_on_c, 0, 67, 0
1, 243360, Note_on_c, 0, 79, 0
1, 243360, Note_on_c, 0, 39, 0
1, 243360, Note_on_c, 0, 74, 78
1, 243360, Note_on_c, 0, 69, 78
1, 243360, Note_on_c, 0, 78, 78
1, 243360, Note_on_c, 0, 81, 92
1, 243360, Note_on_c, 0, 38, 63
1, 243360, Note_on_c, 0, 50, 74
1, 243360, Control_c, 0, 64, 0
1, 243431, Control_c, 0, 64, 127
1, 243468, Note_on_c, 0, 81, 0
1, 243468, Note_on_c, 0, 78, 0
1, 243468, Note_on_c, 0, 74, 0
1, 243480, Tempo, 1000000
1, 243480, Note_on_c, 0, 69, 0
1, 243480, Note_on_c, 0, 38, 0
1, 243480, Note_on_c, 0, 50, 0
1, 243600, Tempo, 923077
1, 243600, Note_on_c, 0, 74, 83
1, 243600, Note_on_c, 0, 69, 83
1, 243600, Note_on_c, 0, 78, 83
1, 243600, Note_on_c, 0, 81, 98
1, 243600, Note_on_c, 0, 38, 71
1, 243600, Note_on_c, 0, 50, 85
1, 243664, Control_c, 0, 64, 0
1, 243748, Control_c, 0, 64, 127
1, 243840, Tempo, 895522
1, 243950, Note_on_c, 0, 81, 0
1, 243950, Note_on_c, 0, 74, 0
1, 243960, Note_on_c, 0, 38, 0
1, 243960, Note_on_c, 0, 69, 0
1, 243960, Note_on_c, 0, 50, 0
1, 243960, Note_on_c, 0, 78, 0
1, 243960, Note_on_c, 0, 74, 80
1, 243960, Note_on_c, 0, 81, 95
1, 243960, Note_on_c, 0, 66, 81
1, 243960, Note_on_c, 0, 54, 69
1, 244078, Note_on_c, 0, 81, 0
1, 244078, Note_on_c, 0, 74, 0
1, 244080, Tempo, 863309
1, 244080, Note_on_c, 0, 66, 0
1, 244080, Note_on_c, 0, 54, 0
1, 244080, Note_on_c, 0, 74, 83
1, 244080, Note_on_c, 0, 78, 83
1, 244080, Note_on_c, 0, 86, 98
1, 244080, Note_on_c, 0, 69, 85
1, 244080, Note_on_c, 0, 57, 71
1, 244197, Note_on_c, 0, 74, 0
1, 244198, Note_on_c, 0, 78, 0
1, 244198, Note_on_c, 0, 86, 0
1, 244200, Note_on_c, 0, 69, 0
1, 244200, Note_on_c, 0, 57, 0
1, 244200, Note_on_c, 0, 74, 79
1, 244200, Note_on_c, 0, 81, 94
1, 244200, Note_on_c, 0, 66, 80
1, 244200, Note_on_c, 0, 54, 67
1, 244318, Note_on_c, 0, 81, 0
1, 244318, Note_on_c, 0, 74, 0
1, 244320, Note_on_c, 0, 66, 0
1, 244320, Note_on_c, 0, 54, 0
1, 244320, Note_on_c, 0, 74, 83
1, 244320, Note_on_c, 0, 78, 98
1, 244320, Note_on_c, 0, 50, 71
1, 244320, Note_on_c, 0, 62, 85
1, 244327, Control_c, 0, 64, 0
1, 244384, Control_c, 0, 64, 127
1, 244437, Note_on_c, 0, 74, 0
1, 244438, Note_on_c, 0, 78, 0
1, 244440, Note_on_c, 0, 50, 0
1, 244440, Note_on_c, 0, 62, 0
1, 244440, Note_on_c, 0, 74, 92
1, 244440, Note_on_c, 0, 49, 66
1, 244440, Note_on_c, 0, 61, 78
1, 244558, Note_on_c, 0, 74, 0
1, 244560, Tempo, 916031
1, 244560, Note_on_c, 0, 61, 0
1, 244560, Note_on_c, 0, 49, 0
1, 244560, Note_on_c, 0, 74, 80
1, 244560, Note_on_c, 0, 78, 95
1, 244560, Note_on_c, 0, 47, 69
1, 244560, Note_on_c, 0, 59, 81
1, 244677, Note_on_c, 0, 78, 0
1, 244677, Note_on_c, 0, 74, 0
1, 244680, Note_on_c, 0, 47, 0
1, 244680, Note_on_c, 0, 59, 0
1, 244680, Note_on_c, 0, 74, 77
1, 244680, Note_on_c, 0, 81, 92
1, 244680, Note_on_c, 0, 78, 77
1, 244680, Note_on_c, 0, 45, 66
1, 244680, Note_on_c, 0, 57, 78
1, 244800, Tempo, 1043478
1, 244800, Note_on_c, 0, 57, 0
1, 244800, Note_on_c, 0, 78, 0
1, 244800, Note_on_c, 0, 74, 0
1, 244800, Note_on_c, 0, 81, 0
1, 244800, Note_on_c, 0, 45, 0
1, 244800, Note_on_c, 0, 74, 78
1, 244800, Note_on_c, 0, 79, 78
1, 244800, Note_on_c, 0, 71, 78
1, 244800, Note_on_c, 0, 83, 92
1, 244800, Note_on_c, 0, 50, 63
1, 244800, Note_on_c, 0, 43, 63
1, 244800, Note_on_c, 0, 55, 74
1, 244800, Control_c, 0, 64, 0
1, 244871, Control_c, 0, 64, 127
1, 244908, Note_on_c, 0, 83, 0
1, 244920, Tempo, 1000000
1, 244920, Note_on_c, 0, 43, 0
1, 244920, Note_on_c, 0, 79, 0
1, 244920, Note_on_c, 0, 71, 0
1, 244920, Note_on_c, 0, 74, 0
1, 244920, Note_on_c, 0, 55, 0
1, 244920, Note_on_c, 0, 50, 0
1, 245040, Tempo, 923077
1, 245040, Note_on_c, 0, 74, 83
1, 245040, Note_on_c, 0, 79, 83
1, 245040, Note_on_c, 0, 71, 83
1, 245040, Note_on_c, 0, 83, 98
1, 245040, Note_on_c, 0, 43, 71
1, 245040, Note_on_c, 0, 50, 71
1, 245040, Note_on_c, 0, 55, 85
1, 245280, Tempo, 895522
1, 245396, Note_on_c, 0, 55, 0
1, 245396, Note_on_c, 0, 79, 0
1, 245396, Note_on_c, 0, 43, 0
1, 245397, Note_on_c, 0, 83, 0
1, 245397, Note_on_c, 0, 50, 0
1, 245397, Note_on_c, 0, 71, 0
1, 245400, Tempo, 827586
1, 245400, Note_on_c, 0, 74, 0
1, 245400, Note_on_c, 0, 71, 81
1, 245400, Note_on_c, 0, 74, 81
1, 245400, Note_on_c, 0, 83, 96
1, 245400, Note_on_c, 0, 43, 53
1, 245400, Note_on_c, 0, 50, 53
1, 245400, Note_on_c, 0, 55, 74
1, 245400, Control_c, 0, 64, 0
1, 245471, Control_c, 0, 64, 127
1, 245520, Tempo, 1000000
1, 245630, Note_on_c, 0, 55, 0
1, 245630, Note_on_c, 0, 74, 0
1, 245630, Note_on_c, 0, 83, 0
1, 245630, Note_on_c, 0, 43, 0
1, 245630, Note_on_c, 0, 50, 0
1, 245640, Tempo, 923077
1, 245640, Note_on_c, 0, 71, 0
1, 245640, Note_on_c, 0, 72, 79
1, 245640, Note_on_c, 0, 74, 79
1, 245640, Note_on_c, 0, 84, 93
1, 245640, Note_on_c, 0, 45, 68
1, 245640, Note_on_c, 0, 50, 68
1, 245640, Note_on_c, 0, 57, 80
1, 245760, Tempo, 863309
1, 245760, Note_on_c, 0, 57, 0
1, 245760, Note_on_c, 0, 74, 0
1, 245760, Note_on_c, 0, 84, 0
1, 245760, Note_on_c, 0, 72, 0
1, 245760, Note_on_c, 0, 50, 0
1, 245760, Note_on_c, 0, 45, 0
1, 245760, Note_on_c, 0, 71, 84
1, 245760, Note_on_c, 0, 74, 84
1, 245760, Note_on_c, 0, 83, 99
1, 245760, Note_on_c, 0, 43, 60
1, 245760, Note_on_c, 0, 50, 60
1, 245760, Note_on_c, 0, 55, 85
1, 245767, Control_c, 0, 64, 0
1, 245824, Control_c, 0, 64, 127
1, 245874, Note_on_c, 0, 55, 0
1, 245874, Note_on_c, 0, 74, 0
1, 245874, Note_on_c, 0, 83, 0
1, 245874, Note_on_c, 0, 71, 0
1, 245874, Note_on_c, 0, 50, 0
1, 245874, Note_on_c, 0, 43, 0
1, 245880, Note_on_c, 0, 71, 80
1, 245880, Note_on_c, 0, 74, 80
1, 245880, Note_on_c, 0, 83, 95
1, 245880, Note_on_c, 0, 50, 58
1, 245880, Note_on_c, 0, 43, 58
1, 245880, Note_on_c, 0, 55, 81
1, 246000, Tempo, 916031
1, 246120, Note_on_c, 0, 55, 0
1, 246120, Note_on_c, 0, 74, 0
1, 246120, Note_on_c, 0, 83, 0
1, 246120, Note_on_c, 0, 71, 0
1, 246120, Note_on_c, 0, 43, 0
1, 246120, Note_on_c, 0, 50, 0
1, 246120, Note_on_c, 0, 69, 80
1, 246120, Note_on_c, 0, 81, 95
1, 246120, Note_on_c, 0, 75, 80
1, 246120, Note_on_c, 0, 41, 69
1, 246120, Note_on_c, 0, 53, 81
1, 246240, Tempo, 1034483
1, 246240, Note_on_c, 0, 53, 0
1, 246240, Note_on_c, 0, 75, 0
1, 246240, Note_on_c, 0, 69, 0
1, 246240, Note_on_c, 0, 81, 0
1, 246240, Note_on_c, 0, 41, 0
1, 246240, Note_on_c, 0, 76, 78
1, 246240, Note_on_c, 0, 71, 78
1, 246240, Note_on_c, 0, 80, 78
1, 246240, Note_on_c, 0, 83, 92
1, 246240, Note_on_c, 0, 40, 63
1, 246240, Note_on_c, 0, 52, 74
1, 246240, Control_c, 0, 64, 0
1, 246311, Control_c, 0, 64, 127
1, 246348, Note_on_c, 0, 83, 0
1, 246348, Note_on_c, 0, 80, 0
1, 246348, Note_on_c, 0, 76, 0
1, 246360, Tempo, 1000000
1, 246360, Note_on_c, 0, 71, 0
1, 246360, Note_on_c, 0, 40, 0
1, 246360, Note_on_c, 0, 52, 0
1, 246480, Tempo, 923077
1, 246480, Note_on_c, 0, 76, 83
1, 246480, Note_on_c, 0, 71, 83
1, 246480, Note_on_c, 0, 80, 83
1, 246480, Note_on_c, 0, 83, 98
1, 246480, Note_on_c, 0, 40, 71
1, 246480, Note_on_c, 0, 52, 85
1, 246720, Tempo, 1071429
1, 246830, Note_on_c, 0, 83, 0
1, 246830, Note_on_c, 0, 76, 0
1, 246840, Tempo, 895522
1, 246840, Note_on_c, 0, 40, 0
1, 246840, Note_on_c, 0, 71, 0
1, 246840, Note_on_c, 0, 52, 0
1, 246840, Note_on_c, 0, 80, 0
1, 246840, Note_on_c, 0, 76, 80
1, 246840, Note_on_c, 0, 83, 95
1, 246840, Note_on_c, 0, 64, 81
1, 246840, Note_on_c, 0, 56, 69
1, 246958, Note_on_c, 0, 83, 0
1, 246958, Note_on_c, 0, 76, 0
1, 246960, Tempo, 863309
1, 246960, Note_on_c, 0, 64, 0
1, 246960, Note_on_c, 0, 56, 0
1, 246960, Note_on_c, 0, 76, 83
1, 246960, Note_on_c, 0, 80, 83
1, 246960, Note_on_c, 0, 88, 98
1, 246960, Note_on_c, 0, 71, 85
1, 246960, Note_on_c, 0, 59, 71
1, 247077, Note_on_c, 0, 76, 0
1, 247078, Note_on_c, 0, 80, 0
1, 247078, Note_on_c, 0, 88, 0
1, 247080, Note_on_c, 0, 71, 0
1, 247080, Note_on_c, 0, 59, 0
1, 247080, Note_on_c, 0, 76, 79
1, 247080, Note_on_c, 0, 83, 94
1, 247080, Note_on_c, 0, 68, 80
1, 247080, Note_on_c, 0, 56, 67
1, 247198, Note_on_c, 0, 83, 0
1, 247198, Note_on_c, 0, 76, 0
1, 247200, Note_on_c, 0, 68, 0
1, 247200, Note_on_c, 0, 56, 0
1, 247200, Note_on_c, 0, 76, 83
1, 247200, Note_on_c, 0, 80, 98
1, 247200, Note_on_c, 0, 52, 71
1, 247200, Note_on_c, 0, 64, 85
1, 247207, Control_c, 0, 64, 0
1, 247264, Control_c, 0, 64, 127
1, 247317, Note_on_c, 0, 76, 0
1, 247318, Note_on_c, 0, 80, 0
1, 247320, Note_on_c, 0, 52, 0
1, 247320, Note_on_c, 0, 64, 0
1, 247320, Note_on_c, 0, 76, 95
1, 247320, Note_on_c, 0, 50, 69
1, 247320, Note_on_c, 0, 62, 81
1, 247438, Note_on_c, 0, 76, 0
1, 247440, Tempo, 916031
1, 247440, Note_on_c, 0, 62, 0
1, 247440, Note_on_c, 0, 50, 0
1, 247440, Note_on_c, 0, 76, 80
1, 247440, Note_on_c, 0, 80, 95
1, 247440, Note_on_c, 0, 48, 69
1, 247440, Note_on_c, 0, 60, 81
1, 247444, Control_c, 0, 64, 0
1, 247526, Control_c, 0, 64, 127
1, 247557, Note_on_c, 0, 80, 0
1, 247557, Note_on_c, 0, 76, 0
1, 247560, Note_on_c, 0, 48, 0
1, 247560, Note_on_c, 0, 60, 0
1, 247560, Note_on_c, 0, 76, 77
1, 247560, Note_on_c, 0, 83, 92
1, 247560, Note_on_c, 0, 80, 77
1, 247560, Note_on_c, 0, 47, 66
1, 247560, Note_on_c, 0, 59, 78
1, 247680, Tempo, 970874
1, 247680, Note_on_c, 0, 59, 0
1, 247680, Note_on_c, 0, 80, 0
1, 247680, Note_on_c, 0, 76, 0
1, 247680, Note_on_c, 0, 83, 0
1, 247680, Note_on_c, 0, 47, 0
1, 247680, Note_on_c, 0, 76, 78
1, 247680, Note_on_c, 0, 81, 78
1, 247680, Note_on_c, 0, 72, 78
1, 247680, Note_on_c, 0, 84, 92
1, 247680, Note_on_c, 0, 52, 63
1, 247680, Note_on_c, 0, 45, 63
1, 247680, Note_on_c, 0, 57, 74
1, 247680, Control_c, 0, 64, 0
1, 247751, Control_c, 0, 64, 127
1, 247788, Note_on_c, 0, 84, 0
1, 247800, Note_on_c, 0, 45, 0
1, 247800, Note_on_c, 0, 81, 0
1, 247800, Note_on_c, 0, 72, 0
1, 247800, Note_on_c, 0, 76, 0
1, 247800, Note_on_c, 0, 57, 0
1, 247800, Note_on_c, 0, 52, 0
1, 247920, Tempo, 923077
1, 247920, Note_on_c, 0, 76, 80
1, 247920, Note_on_c, 0, 81, 80
1, 247920, Note_on_c, 0, 72, 80
1, 247920, Note_on_c, 0, 84, 95
1, 247920, Note_on_c, 0, 45, 69
1, 247920, Note_on_c, 0, 52, 69
1, 247920, Note_on_c, 0, 57, 81
1, 248276, Note_on_c, 0, 57, 0
1, 248276, Note_on_c, 0, 81, 0
1, 248276, Note_on_c, 0, 84, 0
1, 248276, Note_on_c, 0, 72, 0
1, 248276, Note_on_c, 0, 45, 0
1, 248277, Note_on_c, 0, 52, 0
1, 248280, Tempo, 853485
1, 248280, Note_on_c, 0, 76, 0
1, 248280, Note_on_c, 0, 81, 80
1, 248280, Note_on_c, 0, 72, 80
1, 248280, Note_on_c, 0, 76, 80
1, 248280, Note_on_c, 0, 84, 95
1, 248280, Note_on_c, 0, 52, 60
1, 248280, Note_on_c, 0, 45, 60
1, 248280, Note_on_c, 0, 57, 85
1, 248400, Tempo, 853485
1, 248510, Note_on_c, 0, 57, 0
1, 248510, Note_on_c, 0, 52, 0
1, 248510, Note_on_c, 0, 72, 0
1, 248510, Note_on_c, 0, 76, 0
1, 248510, Note_on_c, 0, 81, 0
1, 248510, Note_on_c, 0, 45, 0
1, 248510, Note_on_c, 0, 84, 0
1, 248520, Note_on_c, 0, 81, 75
1, 248520, Note_on_c, 0, 72, 75
1, 248520, Note_on_c, 0, 76, 75
1, 248520, Note_on_c, 0, 84, 89
1, 248520, Note_on_c, 0, 52, 65
1, 248520, Note_on_c, 0, 45, 65
1, 248520, Note_on_c, 0, 57, 76
1, 248632, Note_on_c, 0, 76, 0
1, 248640, Tempo, 1020408
1, 248640, Note_on_c, 0, 45, 0
1, 248640, Note_on_c, 0, 72, 0
1, 248640, Note_on_c, 0, 84, 0
1, 248640, Note_on_c, 0, 81, 0
1, 248640, Note_on_c, 0, 57, 0
1, 248640, Note_on_c, 0, 52, 0
1, 248640, Note_on_c, 0, 72, 77
1, 248640, Note_on_c, 0, 81, 77
1, 248640, Note_on_c, 0, 76, 77
1, 248640, Note_on_c, 0, 84, 92
1, 248640, Note_on_c, 0, 52, 71
1, 248640, Note_on_c, 0, 45, 71
1, 248640, Note_on_c, 0, 57, 83
1, 248748, Note_on_c, 0, 84, 0
1, 248760, Note_on_c, 0, 45, 0
1, 248760, Note_on_c, 0, 81, 0
1, 248760, Note_on_c, 0, 76, 0
1, 248760, Note_on_c, 0, 72, 0
1, 248760, Note_on_c, 0, 57, 0
1, 248760, Note_on_c, 0, 52, 0
1, 248880, Tempo, 925926
1, 248880, Note_on_c, 0, 81, 78
1, 248880, Note_on_c, 0, 76, 78
1, 248880, Note_on_c, 0, 72, 78
1, 248880, Note_on_c, 0, 84, 93
1, 248880, Note_on_c, 0, 52, 74
1, 248880, Note_on_c, 0, 45, 74
1, 248880, Note_on_c, 0, 57, 88
1, 249240, Tempo, 891530
1, 249240, Note_on_c, 0, 57, 0
1, 249240, Note_on_c, 0, 52, 0
1, 249240, Note_on_c, 0, 76, 0
1, 249240, Note_on_c, 0, 72, 0
1, 249240, Note_on_c, 0, 81, 0
1, 249240, Note_on_c, 0, 45, 0
1, 249240, Note_on_c, 0, 84, 0
1, 249240, Note_on_c, 0, 81, 83
1, 249240, Note_on_c, 0, 72, 83
1, 249240, Note_on_c, 0, 76, 83
1, 249240, Note_on_c, 0, 84, 98
1, 249240, Note_on_c, 0, 52, 62
1, 249240, Note_on_c, 0, 45, 62
1, 249240, Note_on_c, 0, 57, 88
1, 249470, Note_on_c, 0, 57, 0
1, 249470, Note_on_c, 0, 52, 0
1, 249470, Note_on_c, 0, 72, 0
1, 249470, Note_on_c, 0, 76, 0
1, 249470, Note_on_c, 0, 81, 0
1, 249470, Note_on_c, 0, 45, 0
1, 249470, Note_on_c, 0, 84, 0
1, 249480, Tempo, 955414
1, 249480, Note_on_c, 0, 72, 76
1, 249480, Note_on_c, 0, 76, 76
1, 249480, Note_on_c, 0, 81, 76
1, 249480, Note_on_c, 0, 84, 91
1, 249480, Note_on_c, 0, 52, 70
1, 249480, Note_on_c, 0, 45, 70
1, 249480, Note_on_c, 0, 57, 84
1, 249600, Tempo, 1003344
1, 249600, Note_on_c, 0, 57, 0
1, 249600, Note_on_c, 0, 52, 0
1, 249600, Note_on_c, 0, 76, 0
1, 249600, Note_on_c, 0, 81, 0
1, 249600, Note_on_c, 0, 72, 0
1, 249600, Note_on_c, 0, 45, 0
1, 249600, Note_on_c, 0, 84, 0
1, 249600, Note_on_c, 0, 83, 74
1, 249600, Note_on_c, 0, 74, 74
1, 249600, Note_on_c, 0, 79, 74
1, 249600, Note_on_c, 0, 86, 93
1, 249600, Note_on_c, 0, 43, 71
1, 249600, Note_on_c, 0, 50, 71
1, 249600, Note_on_c, 0, 55, 86
1, 249609, Control_c, 0, 64, 0
1, 249686, Control_c, 0, 64, 127
1, 249708, Note_on_c, 0, 86, 0
1, 249708, Note_on_c, 0, 79, 0
1, 249720, Note_on_c, 0, 74, 0
1, 249720, Note_on_c, 0, 43, 0
1, 249720, Note_on_c, 0, 83, 0
1, 249720, Note_on_c, 0, 55, 0
1, 249720, Note_on_c, 0, 50, 0
1, 249840, Tempo, 978793
1, 249840, Note_on_c, 0, 83, 80
1, 249840, Note_on_c, 0, 74, 80
1, 249840, Note_on_c, 0, 79, 80
1, 249840, Note_on_c, 0, 86, 96
1, 249840, Note_on_c, 0, 43, 85
1, 249840, Note_on_c, 0, 50, 85
1, 249840, Note_on_c, 0, 55, 99
1, 250195, Note_on_c, 0, 55, 0
1, 250195, Note_on_c, 0, 43, 0
1, 250195, Note_on_c, 0, 86, 0
1, 250195, Note_on_c, 0, 74, 0
1, 250195, Note_on_c, 0, 50, 0
1, 250200, Tempo, 898204
1, 250200, Note_on_c, 0, 83, 0
1, 250200, Note_on_c, 0, 79, 0
1, 250200, Note_on_c, 0, 83, 84
1, 250200, Note_on_c, 0, 79, 84
1, 250200, Note_on_c, 0, 74, 84
1, 250200, Note_on_c, 0, 86, 99
1, 250200, Note_on_c, 0, 50, 84
1, 250200, Note_on_c, 0, 43, 84
1, 250200, Note_on_c, 0, 55, 99
1, 250308, Note_on_c, 0, 86, 0
1, 250308, Note_on_c, 0, 74, 0
1, 250320, Note_on_c, 0, 79, 0
1, 250320, Note_on_c, 0, 50, 0
1, 250320, Note_on_c, 0, 83, 0
1, 250320, Note_on_c, 0, 55, 0
1, 250320, Note_on_c, 0, 43, 0
1, 250440, Tempo, 978793
1, 250440, Note_on_c, 0, 83, 81
1, 250440, Note_on_c, 0, 74, 81
1, 250440, Note_on_c, 0, 79, 81
1, 250440, Note_on_c, 0, 86, 96
1, 250440, Note_on_c, 0, 50, 81
1, 250440, Note_on_c, 0, 43, 81
1, 250440, Note_on_c, 0, 55, 96
1, 250556, Note_on_c, 0, 55, 0
1, 250560, Tempo, 1029160
1, 250560, Note_on_c, 0, 50, 0
1, 250560, Note_on_c, 0, 74, 0
1, 250560, Note_on_c, 0, 79, 0
1, 250560, Note_on_c, 0, 83, 0
1, 250560, Note_on_c, 0, 43, 0
1, 250560, Note_on_c, 0, 86, 0
1, 250560, Note_on_c, 0, 79, 84
1, 250560, Note_on_c, 0, 83, 84
1, 250560, Note_on_c, 0, 74, 84
1, 250560, Note_on_c, 0, 86, 99
1, 250560, Note_on_c, 0, 50, 68
1, 250560, Note_on_c, 0, 43, 68
1, 250560, Note_on_c, 0, 55, 79
1, 250668, Note_on_c, 0, 86, 0
1, 250680, Note_on_c, 0, 43, 0
1, 250680, Note_on_c, 0, 83, 0
1, 250680, Note_on_c, 0, 74, 0
1, 250680, Note_on_c, 0, 79, 0
1, 250680, Note_on_c, 0, 55, 0
1, 250680, Note_on_c, 0, 50, 0
1, 250800, Tempo, 963082
1, 250800, Note_on_c, 0, 79, 87
1, 250800, Note_on_c, 0, 83, 87
1, 250800, Note_on_c, 0, 74, 87
1, 250800, Note_on_c, 0, 86, 103
1, 250800, Note_on_c, 0, 43, 75
1, 250800, Note_on_c, 0, 50, 75
1, 250800, Note_on_c, 0, 55, 88
1, 251156, Note_on_c, 0, 55, 0
1, 251156, Note_on_c, 0, 83, 0
1, 251156, Note_on_c, 0, 86, 0
1, 251156, Note_on_c, 0, 74, 0
1, 251156, Note_on_c, 0, 43, 0
1, 251157, Note_on_c, 0, 50, 0
1, 251160, Tempo, 911854
1, 251160, Note_on_c, 0, 79, 0
1, 251160, Note_on_c, 0, 83, 88
1, 251160, Note_on_c, 0, 74, 88
1, 251160, Note_on_c, 0, 79, 88
1, 251160, Note_on_c, 0, 86, 104
1, 251160, Note_on_c, 0, 50, 66
1, 251160, Note_on_c, 0, 43, 66
1, 251160, Note_on_c, 0, 55, 93
1, 251280, Tempo, 918836
1, 251390, Note_on_c, 0, 55, 0
1, 251390, Note_on_c, 0, 50, 0
1, 251390, Note_on_c, 0, 74, 0
1, 251390, Note_on_c, 0, 79, 0
1, 251390, Note_on_c, 0, 83, 0
1, 251390, Note_on_c, 0, 43, 0
1, 251390, Note_on_c, 0, 86, 0
1, 251400, Tempo, 1065719
1, 251400, Note_on_c, 0, 83, 81
1, 251400, Note_on_c, 0, 74, 81
1, 251400, Note_on_c, 0, 79, 81
1, 251400, Note_on_c, 0, 86, 96
1, 251400, Note_on_c, 0, 50, 70
1, 251400, Note_on_c, 0, 43, 70
1, 251400, Note_on_c, 0, 55, 82
1, 251512, Note_on_c, 0, 79, 0
1, 251520, Tempo, 1020408
1, 251520, Note_on_c, 0, 43, 0
1, 251520, Note_on_c, 0, 74, 0
1, 251520, Note_on_c, 0, 86, 0
1, 251520, Note_on_c, 0, 83, 0
1, 251520, Note_on_c, 0, 55, 0
1, 251520, Note_on_c, 0, 50, 0
1, 251520, Note_on_c, 0, 88, 100
1, 251520, Note_on_c, 0, 76, 84
1, 251520, Note_on_c, 0, 84, 84
1, 251520, Note_on_c, 0, 79, 84
1, 251520, Note_on_c, 0, 43, 74
1, 251520, Note_on_c, 0, 36, 74
1, 251520, Note_on_c, 0, 48, 88
1, 251534, Control_c, 0, 64, 0
1, 251628, Note_on_c, 0, 88, 0
1, 251635, Control_c, 0, 64, 127
1, 251640, Note_on_c, 0, 36, 0
1, 251640, Note_on_c, 0, 84, 0
1, 251640, Note_on_c, 0, 79, 0
1, 251640, Note_on_c, 0, 76, 0
1, 251640, Note_on_c, 0, 48, 0
1, 251640, Note_on_c, 0, 43, 0
1, 251760, Tempo, 995025
1, 251760, Note_on_c, 0, 84, 86
1, 251760, Note_on_c, 0, 79, 86
1, 251760, Note_on_c, 0, 76, 86
1, 251760, Note_on_c, 0, 88, 101
1, 251760, Note_on_c, 0, 43, 83
1, 251760, Note_on_c, 0, 36, 83
1, 251760, Note_on_c, 0, 48, 100
1, 252120, Tempo, 970874
1, 252120, Note_on_c, 0, 48, 0
1, 252120, Note_on_c, 0, 43, 0
1, 252120, Note_on_c, 0, 79, 0
1, 252120, Note_on_c, 0, 76, 0
1, 252120, Note_on_c, 0, 84, 0
1, 252120, Note_on_c, 0, 36, 0
1, 252120, Note_on_c, 0, 88, 0
1, 252120, Note_on_c, 0, 84, 89
1, 252120, Note_on_c, 0, 76, 89
1, 252120, Note_on_c, 0, 79, 89
1, 252120, Note_on_c, 0, 88, 106
1, 252120, Note_on_c, 0, 43, 67
1, 252120, Note_on_c, 0, 36, 67
1, 252120, Note_on_c, 0, 48, 95
1, 252350, Note_on_c, 0, 48, 0
1, 252350, Note_on_c, 0, 43, 0
1, 252350, Note_on_c, 0, 76, 0
1, 252350, Note_on_c, 0, 79, 0
1, 252350, Note_on_c, 0, 84, 0
1, 252350, Note_on_c, 0, 36, 0
1, 252350, Note_on_c, 0, 88, 0
1, 252360, Tempo, 1104972
1, 252360, Note_on_c, 0, 76, 82
1, 252360, Note_on_c, 0, 79, 82
1, 252360, Note_on_c, 0, 84, 82
1, 252360, Note_on_c, 0, 88, 98
1, 252360, Note_on_c, 0, 43, 75
1, 252360, Note_on_c, 0, 36, 75
1, 252360, Note_on_c, 0, 48, 90
1, 252480, Tempo, 1181102
1, 252480, Note_on_c, 0, 48, 0
1, 252480, Note_on_c, 0, 43, 0
1, 252480, Note_on_c, 0, 79, 0
1, 252480, Note_on_c, 0, 84, 0
1, 252480, Note_on_c, 0, 76, 0
1, 252480, Note_on_c, 0, 36, 0
1, 252480, Note_on_c, 0, 88, 0
1, 252480, Note_on_c, 0, 84, 73
1, 252480, Note_on_c, 0, 76, 73
1, 252480, Note_on_c, 0, 79, 73
1, 252480, Note_on_c, 0, 88, 103
1, 252480, Note_on_c, 0, 36, 80
1, 252480, Note_on_c, 0, 43, 80
1, 252480, Note_on_c, 0, 48, 96
1, 252588, Note_on_c, 0, 88, 0
1, 252588, Note_on_c, 0, 79, 0
1, 252600, Note_on_c, 0, 76, 0
1, 252600, Note_on_c, 0, 36, 0
1, 252600, Note_on_c, 0, 84, 0
1, 252600, Note_on_c, 0, 48, 0
1, 252600, Note_on_c, 0, 43, 0
1, 252720, Tempo, 1354402
1, 252720, Note_on_c, 0, 84, 83
1, 252720, Note_on_c, 0, 76, 83
1, 252720, Note_on_c, 0, 79, 83
1, 252720, Note_on_c, 0, 88, 99
1, 252720, Note_on_c, 0, 36, 87
1, 252720, Note_on_c, 0, 43, 87
1, 252720, Note_on_c, 0, 48, 102
1, 253075, Note_on_c, 0, 48, 0
1, 253075, Note_on_c, 0, 36, 0
1, 253075, Note_on_c, 0, 88, 0
1, 253075, Note_on_c, 0, 76, 0
1, 253075, Note_on_c, 0, 43, 0
1, 253080, Tempo, 1003344
1, 253080, Note_on_c, 0, 84, 0
1, 253080, Note_on_c, 0, 79, 0
1, 253080, Note_on_c, 0, 72, 48
1, 253080, Note_on_c, 0, 67, 48
1, 253080, Note_on_c, 0, 64, 48
1, 253080, Note_on_c, 0, 76, 57
1, 253080, Note_on_c, 0, 55, 48
1, 253080, Note_on_c, 0, 48, 48
1, 253080, Note_on_c, 0, 60, 57
1, 253091, Control_c, 0, 64, 0
1, 253166, Control_c, 0, 64, 127
1, 253188, Note_on_c, 0, 76, 0
1, 253188, Note_on_c, 0, 64, 0
1, 253200, Note_on_c, 0, 67, 0
1, 253200, Note_on_c, 0, 55, 0
1, 253200, Note_on_c, 0, 72, 0
1, 253200, Note_on_c, 0, 60, 0
1, 253200, Note_on_c, 0, 48, 0
1, 253320, Tempo, 1065719
1, 253320, Note_on_c, 0, 72, 45
1, 253320, Note_on_c, 0, 64, 45
1, 253320, Note_on_c, 0, 67, 45
1, 253320, Note_on_c, 0, 76, 54
1, 253320, Note_on_c, 0, 55, 45
1, 253320, Note_on_c, 0, 48, 45
1, 253320, Note_on_c, 0, 60, 54
1, 253425, Note_on_c, 0, 60, 0
1, 253428, Note_on_c, 0, 55, 0
1, 253428, Note_on_c, 0, 64, 0
1, 253428, Note_on_c, 0, 67, 0
1, 253428, Note_on_c, 0, 72, 0
1, 253428, Note_on_c, 0, 48, 0
1, 253428, Note_on_c, 0, 76, 0
1, 253440, Tempo, 1181102
1, 253440, Note_on_c, 0, 67, 45
1, 253440, Note_on_c, 0, 72, 45
1, 253440, Note_on_c, 0, 64, 45
1, 253440, Note_on_c, 0, 76, 53
1, 253440, Note_on_c, 0, 55, 36
1, 253440, Note_on_c, 0, 48, 36
1, 253440, Note_on_c, 0, 60, 42
1, 253548, Note_on_c, 0, 76, 0
1, 253560, Note_on_c, 0, 48, 0
1, 253560, Note_on_c, 0, 72, 0
1, 253560, Note_on_c, 0, 64, 0
1, 253560, Note_on_c, 0, 67, 0
1, 253560, Note_on_c, 0, 60, 0
1, 253560, Note_on_c, 0, 55, 0
1, 253680, Tempo, 1075269
1, 253680, Note_on_c, 0, 67, 45
1, 253680, Note_on_c, 0, 72, 45
1, 253680, Note_on_c, 0, 64, 45
1, 253680, Note_on_c, 0, 76, 53
1, 253680, Note_on_c, 0, 48, 39
1, 253680, Note_on_c, 0, 55, 39
1, 253680, Note_on_c, 0, 60, 45
1, 254036, Note_on_c, 0, 60, 0
1, 254036, Note_on_c, 0, 48, 0
1, 254036, Note_on_c, 0, 72, 0
1, 254036, Note_on_c, 0, 64, 0
1, 254036, Note_on_c, 0, 76, 0
1, 254036, Note_on_c, 0, 55, 0
1, 254040, Tempo, 1047120
1, 254040, Note_on_c, 0, 67, 0
1, 254040, Note_on_c, 0, 72, 44
1, 254040, Note_on_c, 0, 64, 44
1, 254040, Note_on_c, 0, 67, 44
1, 254040, Note_on_c, 0, 76, 52
1, 254040, Note_on_c, 0, 55, 33
1, 254040, Note_on_c, 0, 48, 33
1, 254040, Note_on_c, 0, 60, 46
1, 254160, Tempo, 1038062
1, 254270, Note_on_c, 0, 60, 0
1, 254270, Note_on_c, 0, 55, 0
1, 254270, Note_on_c, 0, 64, 0
1, 254270, Note_on_c, 0, 67, 0
1, 254270, Note_on_c, 0, 72, 0
1, 254270, Note_on_c, 0, 48, 0
1, 254270, Note_on_c, 0, 76, 0
1, 254280, Tempo, 1268499
1, 254280, Note_on_c, 0, 72, 39
1, 254280, Note_on_c, 0, 64, 39
1, 254280, Note_on_c, 0, 67, 39
1, 254280, Note_on_c, 0, 76, 47
1, 254280, Note_on_c, 0, 55, 34
1, 254280, Note_on_c, 0, 48, 34
1, 254280, Note_on_c, 0, 60, 40
1, 254381, Note_on_c, 0, 67, 0
1, 254388, Note_on_c, 0, 48, 0
1, 254388, Note_on_c, 0, 64, 0
1, 254388, Note_on_c, 0, 76, 0
1, 254388, Note_on_c, 0, 72, 0
1, 254388, Note_on_c, 0, 60, 0
1, 254388, Note_on_c, 0, 55, 0
1, 254400, Tempo, 1136364
1, 254400, Note_on_c, 0, 76, 50
1, 254400, Note_on_c, 0, 65, 42
1, 254400, Note_on_c, 0, 72, 42
1, 254400, Note_on_c, 0, 59, 37
1, 254400, Note_on_c, 0, 50, 37
1, 254400, Note_on_c, 0, 62, 44
1, 254414, Control_c, 0, 64, 0
1, 254508, Note_on_c, 0, 76, 0
1, 254515, Control_c, 0, 64, 127
1, 254520, Note_on_c, 0, 72, 0
1, 254520, Note_on_c, 0, 59, 0
1, 254520, Note_on_c, 0, 65, 0
1, 254520, Note_on_c, 0, 62, 0
1, 254520, Note_on_c, 0, 50, 0
1, 254640, Tempo, 1094891
1, 254640, Note_on_c, 0, 71, 38
1, 254640, Note_on_c, 0, 65, 38
1, 254640, Note_on_c, 0, 74, 45
1, 254640, Note_on_c, 0, 59, 37
1, 254640, Note_on_c, 0, 50, 37
1, 254640, Note_on_c, 0, 62, 45
1, 254651, Control_c, 0, 64, 0
1, 254749, Control_c, 0, 64, 127
1, 254997, Note_on_c, 0, 62, 0
1, 254997, Note_on_c, 0, 65, 0
1, 254997, Note_on_c, 0, 74, 0
1, 254997, Note_on_c, 0, 71, 0
1, 254997, Note_on_c, 0, 50, 0
1, 254997, Note_on_c, 0, 59, 0
1, 255000, Tempo, 1020408
1, 255000, Note_on_c, 0, 71, 40
1, 255000, Note_on_c, 0, 65, 40
1, 255000, Note_on_c, 0, 74, 47
1, 255000, Note_on_c, 0, 59, 30
1, 255000, Note_on_c, 0, 50, 30
1, 255000, Note_on_c, 0, 62, 42
1, 255005, Control_c, 0, 64, 0
1, 255057, Control_c, 0, 64, 127
1, 255120, Tempo, 1020408
1, 255230, Note_on_c, 0, 62, 0
1, 255230, Note_on_c, 0, 65, 0
1, 255230, Note_on_c, 0, 74, 0
1, 255230, Note_on_c, 0, 71, 0
1, 255230, Note_on_c, 0, 50, 0
1, 255230, Note_on_c, 0, 59, 0
1, 255240, Tempo, 1158301
1, 255240, Note_on_c, 0, 71, 36
1, 255240, Note_on_c, 0, 65, 36
1, 255240, Note_on_c, 0, 74, 42
1, 255240, Note_on_c, 0, 59, 31
1, 255240, Note_on_c, 0, 50, 31
1, 255240, Note_on_c, 0, 62, 36
1, 255352, Note_on_c, 0, 65, 0
1, 255360, Tempo, 1268499
1, 255360, Note_on_c, 0, 74, 0
1, 255360, Note_on_c, 0, 59, 0
1, 255360, Note_on_c, 0, 71, 0
1, 255360, Note_on_c, 0, 62, 0
1, 255360, Note_on_c, 0, 50, 0
1, 255360, Note_on_c, 0, 74, 45
1, 255360, Note_on_c, 0, 64, 38
1, 255360, Note_on_c, 0, 71, 38
1, 255360, Note_on_c, 0, 57, 34
1, 255360, Note_on_c, 0, 52, 34
1, 255360, Note_on_c, 0, 60, 39
1, 255374, Control_c, 0, 64, 0
1, 255468, Note_on_c, 0, 74, 0
1, 255475, Control_c, 0, 64, 127
1, 255480, Note_on_c, 0, 71, 0
1, 255480, Note_on_c, 0, 57, 0
1, 255480, Note_on_c, 0, 64, 0
1, 255480, Note_on_c, 0, 60, 0
1, 255480, Note_on_c, 0, 52, 0
1, 255600, Tempo, 1192843
1, 255600, Note_on_c, 0, 69, 34
1, 255600, Note_on_c, 0, 64, 34
1, 255600, Note_on_c, 0, 72, 41
1, 255600, Note_on_c, 0, 57, 33
1, 255600, Note_on_c, 0, 52, 33
1, 255600, Note_on_c, 0, 60, 41
1, 255611, Control_c, 0, 64, 0
1, 255709, Control_c, 0, 64, 127
1, 255957, Note_on_c, 0, 60, 0
1, 255957, Note_on_c, 0, 64, 0
1, 255957, Note_on_c, 0, 72, 0
1, 255957, Note_on_c, 0, 69, 0
1, 255957, Note_on_c, 0, 52, 0
1, 255957, Note_on_c, 0, 57, 0
1, 255960, Tempo, 1147228
1, 255960, Note_on_c, 0, 69, 35
1, 255960, Note_on_c, 0, 64, 35
1, 255960, Note_on_c, 0, 72, 42
1, 255960, Note_on_c, 0, 57, 26
1, 255960, Note_on_c, 0, 52, 26
1, 255960, Note_on_c, 0, 60, 37
1, 255965, Control_c, 0, 64, 0
1, 256017, Control_c, 0, 64, 127
1, 256080, Tempo, 1147228
1, 256190, Note_on_c, 0, 60, 0
1, 256190, Note_on_c, 0, 64, 0
1, 256190, Note_on_c, 0, 72, 0
1, 256190, Note_on_c, 0, 69, 0
1, 256190, Note_on_c, 0, 52, 0
1, 256190, Note_on_c, 0, 57, 0
1, 256200, Tempo, 1608579
1, 256200, Note_on_c, 0, 69, 32
1, 256200, Note_on_c, 0, 64, 32
1, 256200, Note_on_c, 0, 72, 38
1, 256200, Note_on_c, 0, 57, 28
1, 256200, Note_on_c, 0, 52, 28
1, 256200, Note_on_c, 0, 60, 32
1, 256312, Note_on_c, 0, 64, 0
1, 256320, Tempo, 1630435
1, 256320, Note_on_c, 0, 72, 0
1, 256320, Note_on_c, 0, 57, 0
1, 256320, Note_on_c, 0, 69, 0
1, 256320, Note_on_c, 0, 60, 0
1, 256320, Note_on_c, 0, 52, 0
1, 256320, Note_on_c, 0, 72, 40
1, 256320, Note_on_c, 0, 64, 34
1, 256320, Note_on_c, 0, 69, 34
1, 256320, Note_on_c, 0, 52, 30
1, 256320, Note_on_c, 0, 62, 35
1, 256334, Control_c, 0, 64, 0
1, 256383, Control_c, 0, 64, 127
1, 256428, Note_on_c, 0, 72, 0
1, 256440, Note_on_c, 0, 52, 0
1, 256440, Note_on_c, 0, 64, 0
1, 256440, Note_on_c, 0, 69, 0
1, 256440, Note_on_c, 0, 62, 0
1, 256560, Tempo, 1801802
1, 256560, Note_on_c, 0, 68, 30
1, 256560, Note_on_c, 0, 64, 30
1, 256560, Note_on_c, 0, 71, 36
1, 256560, Note_on_c, 0, 52, 30
1, 256560, Note_on_c, 0, 62, 36
1, 256571, Control_c, 0, 64, 0
1, 256669, Control_c, 0, 64, 127
1, 256800, Tempo, 5454545
1, 256920, Note_on_c, 0, 62, 0
1, 256920, Note_on_c, 0, 71, 0
1, 256920, Note_on_c, 0, 68, 0
1, 256920, Note_on_c, 0, 64, 0
1, 256920, Note_on_c, 0, 52, 0
1, 256920, Control_c, 0, 64, 0
1, 257040, Tempo, 960000
1, 257040, Note_on_c, 0, 61, 39
1, 257040, Note_on_c, 0, 64, 46
1, 257040, Note_on_c, 0, 57, 34
1, 257100, Control_c, 0, 64, 127
1, 257256, Note_on_c, 0, 57, 0
1, 257256, Note_on_c, 0, 64, 0
1, 257256, Note_on_c, 0, 61, 0
1, 257280, Note_on_c, 0, 62, 42
1, 257280, Note_on_c, 0, 66, 50
1, 257280, Note_on_c, 0, 57, 40
1, 257289, Control_c, 0, 64, 0
1, 257406, Control_c, 0, 64, 127
1, 257496, Note_on_c, 0, 57, 0
1, 257496, Note_on_c, 0, 66, 0
1, 257496, Note_on_c, 0, 62, 0
1, 257520, Tempo, 1165049
1, 257520, Note_on_c, 0, 60, 34
1, 257520, Note_on_c, 0, 63, 40
1, 257520, Note_on_c, 0, 57, 29
1, 257531, Control_c, 0, 64, 0
1, 257646, Control_c, 0, 64, 127
1, 257736, Note_on_c, 0, 57, 0
1, 257736, Note_on_c, 0, 63, 0
1, 257736, Note_on_c, 0, 60, 0
1, 257760, Tempo, 960000
1, 257760, Note_on_c, 0, 61, 39
1, 257760, Note_on_c, 0, 64, 47
1, 257760, Note_on_c, 0, 57, 37
1, 257760, Control_c, 0, 64, 0
1, 257880, Note_on_c, 0, 69, 38
1, 257880, Note_on_c, 0, 73, 38
1, 257880, Note_on_c, 0, 45, 31
1, 257880, Note_on_c, 0, 52, 31
1, 257920, Control_c, 0, 64, 127
1, 258110, Note_on_c, 0, 52, 0
1, 258110, Note_on_c, 0, 73, 0
1, 258110, Note_on_c, 0, 69, 0
1, 258110, Note_on_c, 0, 45, 0
1, 258120, Note_on_c, 0, 69, 38
1, 258120, Note_on_c, 0, 73, 38
1, 258120, Note_on_c, 0, 45, 31
1, 258120, Note_on_c, 0, 52, 31
1, 258240, Note_on_c, 0, 52, 0
1, 258240, Note_on_c, 0, 73, 0
1, 258240, Note_on_c, 0, 69, 0
1, 258240, Note_on_c, 0, 45, 0
1, 258240, Note_on_c, 0, 69, 38
1, 258240, Note_on_c, 0, 73, 38
1, 258240, Note_on_c, 0, 45, 31
1, 258240, Note_on_c, 0, 52, 31
1, 258470, Note_on_c, 0, 52, 0
1, 258470, Note_on_c, 0, 64, 0
1, 258470, Note_on_c, 0, 61, 0
1, 258470, Note_on_c, 0, 57, 0
1, 258470, Note_on_c, 0, 45, 0
1, 258480, Note_on_c, 0, 69, 0
1, 258480, Note_on_c, 0, 73, 0
1, 258480, Note_on_c, 0, 73, 31
1, 258480, Note_on_c, 0, 61, 42
1, 258480, Note_on_c, 0, 64, 42
1, 258480, Note_on_c, 0, 69, 55
1, 258480, Note_on_c, 0, 45, 34
1, 258480, Note_on_c, 0, 52, 34
1, 258480, Note_on_c, 0, 57, 41
1, 258488, Control_c, 0, 64, 0
1, 258617, Control_c, 0, 64, 127
1, 258710, Note_on_c, 0, 64, 0
1, 258710, Note_on_c, 0, 61, 0
1, 258720, Tempo, 937500
1, 258720, Note_on_c, 0, 52, 0
1, 258720, Note_on_c, 0, 69, 0
1, 258720, Note_on_c, 0, 73, 0
1, 258720, Note_on_c, 0, 57, 0
1, 258720, Note_on_c, 0, 45, 0
1, 258720, Note_on_c, 0, 61, 42
1, 258720, Note_on_c, 0, 64, 42
1, 258720, Note_on_c, 0, 71, 57
1, 258720, Note_on_c, 0, 57, 43
1, 258960, Tempo, 1008403
1, 258960, Note_on_c, 0, 57, 0
1, 258960, Note_on_c, 0, 61, 0
1, 258960, Note_on_c, 0, 64, 0
1, 258960, Note_on_c, 0, 71, 0
1, 258960, Note_on_c, 0, 61, 47
1, 258960, Note_on_c, 0, 65, 47
1, 258960, Note_on_c, 0, 73, 61
1, 258960, Note_on_c, 0, 57, 45
1, 258988, Control_c, 0, 64, 0
1, 259108, Control_c, 0, 64, 127
1, 259176, Note_on_c, 0, 57, 0
1, 259176, Note_on_c, 0, 61, 0
1, 259176, Note_on_c, 0, 65, 0
1, 259176, Note_on_c, 0, 73, 0
1, 259200, Tempo, 967742
1, 259200, Note_on_c, 0, 66, 45
1, 259200, Note_on_c, 0, 73, 58
1, 259200, Note_on_c, 0, 62, 38
1, 259200, Control_c, 0, 64, 0
1, 259269, Control_c, 0, 64, 127
1, 259320, Note_on_c, 0, 78, 48
1, 259320, Note_on_c, 0, 76, 48
1, 259320, Note_on_c, 0, 50, 29
1, 259320, Note_on_c, 0, 58, 35
1, 259550, Note_on_c, 0, 76, 0
1, 259550, Note_on_c, 0, 78, 0
1, 259560, Note_on_c, 0, 50, 0
1, 259560, Note_on_c, 0, 58, 0
1, 259560, Note_on_c, 0, 78, 41
1, 259560, Note_on_c, 0, 76, 41
1, 259560, Note_on_c, 0, 50, 31
1, 259560, Note_on_c, 0, 58, 31
1, 259680, Tempo, 1071429
1, 259680, Note_on_c, 0, 58, 0
1, 259680, Note_on_c, 0, 76, 0
1, 259680, Note_on_c, 0, 78, 0
1, 259680, Note_on_c, 0, 73, 0
1, 259680, Note_on_c, 0, 50, 0
1, 259680, Note_on_c, 0, 74, 38
1, 259680, Note_on_c, 0, 78, 38
1, 259680, Note_on_c, 0, 71, 48
1, 259680, Note_on_c, 0, 50, 32
1, 259680, Note_on_c, 0, 59, 38
1, 259689, Control_c, 0, 64, 0
1, 259910, Note_on_c, 0, 78, 0
1, 259910, Note_on_c, 0, 74, 0
1, 259910, Note_on_c, 0, 66, 0
1, 259920, Tempo, 937500
1, 259920, Note_on_c, 0, 71, 0
1, 259920, Note_on_c, 0, 62, 0
1, 259920, Note_on_c, 0, 50, 0
1, 259920, Note_on_c, 0, 59, 0
1, 259920, Note_on_c, 0, 66, 56
1, 259920, Note_on_c, 0, 74, 35
1, 259920, Note_on_c, 0, 78, 35
1, 259920, Note_on_c, 0, 71, 51
1, 259920, Note_on_c, 0, 50, 28
1, 259920, Note_on_c, 0, 59, 34
1, 259920, Note_on_c, 0, 62, 40
1, 259958, Control_c, 0, 64, 127
1, 260040, Note_on_c, 0, 71, 0
1, 260040, Note_on_c, 0, 69, 48
1, 260160, Tempo, 991736
1, 260160, Note_on_c, 0, 69, 0
1, 260160, Note_on_c, 0, 62, 0
1, 260160, Note_on_c, 0, 74, 0
1, 260160, Note_on_c, 0, 78, 0
1, 260160, Note_on_c, 0, 66, 0
1, 260160, Note_on_c, 0, 59, 0
1, 260160, Note_on_c, 0, 50, 0
1, 260160, Note_on_c, 0, 62, 37
1, 260160, Note_on_c, 0, 68, 51
1, 260160, Note_on_c, 0, 59, 34
1, 260173, Control_c, 0, 64, 0
1, 260286, Control_c, 0, 64, 127
1, 260400, Tempo, 1081081
1, 260400, Note_on_c, 0, 59, 0
1, 260400, Note_on_c, 0, 68, 0
1, 260400, Note_on_c, 0, 62, 0
1, 260400, Note_on_c, 0, 62, 37
1, 260400, Note_on_c, 0, 66, 48
1, 260400, Note_on_c, 0, 57, 34
1, 260415, Control_c, 0, 64, 0
1, 260503, Control_c, 0, 64, 127
1, 260616, Note_on_c, 0, 57, 0
1, 260616, Note_on_c, 0, 66, 0
1, 260616, Note_on_c, 0, 62, 0
1, 260640, Tempo, 975610
1, 260640, Note_on_c, 0, 62, 42
1, 260640, Note_on_c, 0, 64, 50
1, 260640, Note_on_c, 0, 56, 37
1, 260646, Control_c, 0, 64, 0
1, 260694, Control_c, 0, 64, 127
1, 260760, Note_on_c, 0, 74, 40
1, 260760, Note_on_c, 0, 76, 40
1, 260760, Note_on_c, 0, 47, 35
1, 260760, Note_on_c, 0, 52, 35
1, 260990, Note_on_c, 0, 76, 0
1, 260990, Note_on_c, 0, 74, 0
1, 261000, Note_on_c, 0, 47, 0
1, 261000, Note_on_c, 0, 52, 0
1, 261000, Note_on_c, 0, 74, 35
1, 261000, Note_on_c, 0, 76, 35
1, 261000, Note_on_c, 0, 47, 31
1, 261000, Note_on_c, 0, 52, 31
1, 261110, Note_on_c, 0, 76, 0
1, 261110, Note_on_c, 0, 74, 0
1, 261120, Note_on_c, 0, 47, 0
1, 261120, Note_on_c, 0, 52, 0
1, 261120, Note_on_c, 0, 74, 40
1, 261120, Note_on_c, 0, 76, 40
1, 261120, Note_on_c, 0, 47, 35
1, 261120, Note_on_c, 0, 52, 35
1, 261350, Note_on_c, 0, 76, 0
1, 261350, Note_on_c, 0, 74, 0
1, 261350, Note_on_c, 0, 56, 0
1, 261350, Note_on_c, 0, 64, 0
1, 261350, Note_on_c, 0, 62, 0
1, 261360, Tempo, 944882
1, 261360, Note_on_c, 0, 52, 0
1, 261360, Note_on_c, 0, 47, 0
1, 261360, Note_on_c, 0, 74, 40
1, 261360, Note_on_c, 0, 76, 40
1, 261360, Note_on_c, 0, 62, 42
1, 261360, Note_on_c, 0, 64, 50
1, 261360, Note_on_c, 0, 52, 35
1, 261360, Note_on_c, 0, 47, 34
1, 261360, Note_on_c, 0, 56, 40
1, 261369, Control_c, 0, 64, 0
1, 261414, Control_c, 0, 64, 127
1, 261470, Note_on_c, 0, 64, 0
1, 261480, Tempo, 794702
1, 261480, Note_on_c, 0, 62, 0
1, 261520, Note_on_c, 0, 66, 40
1, 261560, Note_on_c, 0, 66, 0
1, 261560, Note_on_c, 0, 68, 40
1, 261600, Tempo, 937500
1, 261600, Note_on_c, 0, 68, 0
1, 261600, Note_on_c, 0, 76, 0
1, 261600, Note_on_c, 0, 52, 0
1, 261600, Note_on_c, 0, 74, 0
1, 261600, Note_on_c, 0, 56, 0
1, 261600, Note_on_c, 0, 47, 0
1, 261600, Note_on_c, 0, 62, 42
1, 261600, Note_on_c, 0, 66, 50
1, 261600, Note_on_c, 0, 56, 37
1, 261614, Control_c, 0, 64, 0
1, 261692, Control_c, 0, 64, 127
1, 261816, Note_on_c, 0, 56, 0
1, 261816, Note_on_c, 0, 66, 0
1, 261816, Note_on_c, 0, 62, 0
1, 261840, Tempo, 1100917
1, 261840, Note_on_c, 0, 62, 35
1, 261840, Note_on_c, 0, 64, 42
1, 261840, Note_on_c, 0, 56, 35
1, 261855, Control_c, 0, 64, 0
1, 261900, Control_c, 0, 64, 127
1, 262056, Note_on_c, 0, 56, 0
1, 262056, Note_on_c, 0, 64, 0
1, 262056, Note_on_c, 0, 62, 0
1, 262080, Tempo, 1008403
1, 262080, Note_on_c, 0, 62, 42
1, 262080, Note_on_c, 0, 66, 50
1, 262080, Note_on_c, 0, 57, 40
1, 262080, Control_c, 0, 64, 0
1, 262200, Note_on_c, 0, 69, 35
1, 262200, Note_on_c, 0, 45, 29
1, 262200, Note_on_c, 0, 50, 29
1, 262200, Note_on_c, 0, 54, 35
1, 262217, Control_c, 0, 64, 127
1, 262430, Note_on_c, 0, 69, 0
1, 262440, Note_on_c, 0, 50, 0
1, 262440, Note_on_c, 0, 45, 0
1, 262440, Note_on_c, 0, 54, 0
1, 262440, Note_on_c, 0, 69, 31
1, 262440, Note_on_c, 0, 45, 26
1, 262440, Note_on_c, 0, 50, 26
1, 262440, Note_on_c, 0, 54, 31
1, 262550, Note_on_c, 0, 45, 0
1, 262550, Note_on_c, 0, 69, 0
1, 262560, Tempo, 1111111
1, 262560, Note_on_c, 0, 66, 0
1, 262560, Note_on_c, 0, 62, 0
1, 262560, Note_on_c, 0, 50, 0
1, 262560, Note_on_c, 0, 54, 0
1, 262560, Note_on_c, 0, 69, 36
1, 262560, Note_on_c, 0, 61, 37
1, 262560, Note_on_c, 0, 64, 44
1, 262560, Note_on_c, 0, 45, 29
1, 262560, Note_on_c, 0, 49, 35
1, 262560, Note_on_c, 0, 52, 36
1, 262574, Control_c, 0, 64, 0
1, 262584, Note_on_c, 0, 57, 0
1, 262790, Note_on_c, 0, 61, 0
1, 262790, Note_on_c, 0, 64, 0
1, 262790, Note_on_c, 0, 52, 0
1, 262800, Tempo, 1000000
1, 262800, Note_on_c, 0, 69, 0
1, 262800, Note_on_c, 0, 45, 0
1, 262800, Note_on_c, 0, 49, 0
1, 262800, Note_on_c, 0, 69, 65
1, 262800, Note_on_c, 0, 73, 65
1, 262800, Note_on_c, 0, 76, 77
1, 262800, Note_on_c, 0, 45, 48
1, 262800, Note_on_c, 0, 57, 57
1, 262860, Control_c, 0, 64, 127
1, 263030, Note_on_c, 0, 69, 0
1, 263040, Note_on_c, 0, 45, 0
1, 263040, Note_on_c, 0, 73, 0
1, 263040, Note_on_c, 0, 76, 0
1, 263040, Note_on_c, 0, 57, 0
1, 263040, Note_on_c, 0, 69, 72
1, 263040, Note_on_c, 0, 74, 72
1, 263040, Note_on_c, 0, 78, 85
1, 263040, Note_on_c, 0, 38, 47
1, 263040, Note_on_c, 0, 50, 67
1, 263049, Control_c, 0, 64, 0
1, 263155, Control_c, 0, 64, 127
1, 263256, Note_on_c, 0, 50, 0
1, 263256, Note_on_c, 0, 78, 0
1, 263256, Note_on_c, 0, 38, 0
1, 263256, Note_on_c, 0, 74, 0
1, 263270, Note_on_c, 0, 69, 0
1, 263280, Tempo, 1111111
1, 263280, Note_on_c, 0, 69, 63
1, 263280, Note_on_c, 0, 72, 63
1, 263280, Note_on_c, 0, 75, 75
1, 263280, Note_on_c, 0, 42, 48
1, 263280, Note_on_c, 0, 54, 57
1, 263294, Control_c, 0, 64, 0
1, 263383, Control_c, 0, 64, 127
1, 263496, Note_on_c, 0, 54, 0
1, 263496, Note_on_c, 0, 75, 0
1, 263496, Note_on_c, 0, 42, 0
1, 263496, Note_on_c, 0, 72, 0
1, 263520, Tempo, 1052632
1, 263520, Note_on_c, 0, 69, 0
1, 263520, Note_on_c, 0, 69, 71
1, 263520, Note_on_c, 0, 73, 71
1, 263520, Note_on_c, 0, 76, 84
1, 263520, Note_on_c, 0, 45, 60
1, 263520, Note_on_c, 0, 57, 60
1, 263524, Control_c, 0, 64, 0
1, 263630, Note_on_c, 0, 57, 0
1, 263630, Note_on_c, 0, 76, 0
1, 263630, Note_on_c, 0, 69, 0
1, 263630, Note_on_c, 0, 73, 0
1, 263630, Note_on_c, 0, 45, 0
1, 263640, Tempo, 983607
1, 263640, Note_on_c, 0, 85, 77
1, 263640, Note_on_c, 0, 81, 65
1, 263640, Note_on_c, 0, 76, 65
1, 263640, Note_on_c, 0, 73, 65
1, 263640, Note_on_c, 0, 33, 46
1, 263640, Note_on_c, 0, 40, 46
1, 263640, Note_on_c, 0, 45, 55
1, 263661, Control_c, 0, 64, 127
1, 263880, Note_on_c, 0, 45, 0
1, 263880, Note_on_c, 0, 33, 0
1, 263880, Note_on_c, 0, 81, 0
1, 263880, Note_on_c, 0, 76, 0
1, 263880, Note_on_c, 0, 85, 0
1, 263880, Note_on_c, 0, 40, 0
1, 263880, Note_on_c, 0, 73, 0
1, 263880, Note_on_c, 0, 73, 57
1, 263880, Note_on_c, 0, 76, 57
1, 263880, Note_on_c, 0, 81, 57
1, 263880, Note_on_c, 0, 85, 68
1, 263880, Note_on_c, 0, 33, 39
1, 263880, Note_on_c, 0, 40, 39
1, 263880, Note_on_c, 0, 45, 47
1, 264000, Note_on_c, 0, 45, 0
1, 264000, Note_on_c, 0, 33, 0
1, 264000, Note_on_c, 0, 76, 0
1, 264000, Note_on_c, 0, 81, 0
1, 264000, Note_on_c, 0, 73, 0
1, 264000, Note_on_c, 0, 40, 0
1, 264000, Note_on_c, 0, 85, 0
1, 264000, Note_on_c, 0, 73, 66
1, 264000, Note_on_c, 0, 76, 66
1, 264000, Note_on_c, 0, 81, 66
1, 264000, Note_on_c, 0, 85, 78
1, 264000, Note_on_c, 0, 33, 46
1, 264000, Note_on_c, 0, 40, 46
1, 264000, Note_on_c, 0, 45, 55
1, 264240, Tempo, 1111111
1, 264240, Note_on_c, 0, 45, 0
1, 264240, Note_on_c, 0, 33, 0
1, 264240, Note_on_c, 0, 76, 0
1, 264240, Note_on_c, 0, 81, 0
1, 264240, Note_on_c, 0, 73, 0
1, 264240, Note_on_c, 0, 40, 0
1, 264240, Note_on_c, 0, 85, 0
1, 264240, Note_on_c, 0, 73, 60
1, 264240, Note_on_c, 0, 76, 60
1, 264240, Note_on_c, 0, 81, 60
1, 264240, Note_on_c, 0, 85, 71
1, 264240, Note_on_c, 0, 33, 43
1, 264240, Note_on_c, 0, 40, 43
1, 264240, Note_on_c, 0, 45, 51
1, 264360, Tempo, 909091
1, 264360, Note_on_c, 0, 45, 0
1, 264360, Note_on_c, 0, 33, 0
1, 264360, Note_on_c, 0, 76, 0
1, 264360, Note_on_c, 0, 81, 0
1, 264360, Note_on_c, 0, 73, 0
1, 264360, Note_on_c, 0, 40, 0
1, 264360, Note_on_c, 0, 85, 0
1, 264360, Note_on_c, 0, 69, 50
1, 264360, Note_on_c, 0, 64, 50
1, 264360, Note_on_c, 0, 73, 50
1, 264360, Note_on_c, 0, 49, 41
1, 264360, Note_on_c, 0, 61, 49
1, 264367, Control_c, 0, 64, 0
1, 264403, Control_c, 0, 64, 127
1, 264475, Note_on_c, 0, 73, 0
1, 264475, Note_on_c, 0, 69, 0
1, 264475, Note_on_c, 0, 64, 0
1, 264480, Tempo, 930233
1, 264480, Note_on_c, 0, 49, 0
1, 264480, Note_on_c, 0, 61, 0
1, 264480, Note_on_c, 0, 64, 56
1, 264480, Note_on_c, 0, 69, 56
1, 264480, Note_on_c, 0, 73, 56
1, 264480, Note_on_c, 0, 76, 78
1, 264480, Note_on_c, 0, 47, 55
1, 264480, Note_on_c, 0, 59, 65
1, 264495, Control_c, 0, 64, 0
1, 264586, Control_c, 0, 64, 127
1, 264696, Note_on_c, 0, 76, 0
1, 264696, Note_on_c, 0, 73, 0
1, 264696, Note_on_c, 0, 64, 0
1, 264696, Note_on_c, 0, 69, 0
1, 264720, Tempo, 1000000
1, 264720, Note_on_c, 0, 59, 0
1, 264720, Note_on_c, 0, 47, 0
1, 264720, Note_on_c, 0, 73, 65
1, 264720, Note_on_c, 0, 66, 65
1, 264720, Note_on_c, 0, 75, 65
1, 264720, Note_on_c, 0, 78, 77
1, 264720, Note_on_c, 0, 45, 45
1, 264720, Note_on_c, 0, 57, 64
1, 264730, Control_c, 0, 64, 0
1, 264812, Control_c, 0, 64, 127
1, 264936, Note_on_c, 0, 57, 0
1, 264936, Note_on_c, 0, 66, 0
1, 264936, Note_on_c, 0, 75, 0
1, 264936, Note_on_c, 0, 73, 0
1, 264936, Note_on_c, 0, 45, 0
1, 264936, Note_on_c, 0, 78, 0
1, 264960, Tempo, 1052632
1, 264960, Note_on_c, 0, 73, 71
1, 264960, Note_on_c, 0, 68, 71
1, 264960, Note_on_c, 0, 76, 71
1, 264960, Note_on_c, 0, 80, 84
1, 264960, Note_on_c, 0, 44, 51
1, 264960, Note_on_c, 0, 56, 60
1, 264964, Control_c, 0, 64, 0
1, 265070, Note_on_c, 0, 56, 0
1, 265070, Note_on_c, 0, 68, 0
1, 265070, Note_on_c, 0, 76, 0
1, 265070, Note_on_c, 0, 80, 0
1, 265070, Note_on_c, 0, 44, 0
1, 265080, Tempo, 983607
1, 265080, Note_on_c, 0, 73, 0
1, 265080, Note_on_c, 0, 92, 77
1, 265080, Note_on_c, 0, 88, 65
1, 265080, Note_on_c, 0, 85, 65
1, 265080, Note_on_c, 0, 80, 65
1, 265080, Note_on_c, 0, 32, 46
1, 265080, Note_on_c, 0, 37, 46
1, 265080, Note_on_c, 0, 44, 55
1, 265101, Control_c, 0, 64, 127
1, 265320, Note_on_c, 0, 44, 0
1, 265320, Note_on_c, 0, 32, 0
1, 265320, Note_on_c, 0, 88, 0
1, 265320, Note_on_c, 0, 85, 0
1, 265320, Note_on_c, 0, 92, 0
1, 265320, Note_on_c, 0, 37, 0
1, 265320, Note_on_c, 0, 80, 0
1, 265320, Note_on_c, 0, 80, 57
1, 265320, Note_on_c, 0, 85, 57
1, 265320, Note_on_c, 0, 88, 57
1, 265320, Note_on_c, 0, 92, 68
1, 265320, Note_on_c, 0, 32, 39
1, 265320, Note_on_c, 0, 37, 39
1, 265320, Note_on_c, 0, 44, 47
1, 265440, Note_on_c, 0, 44, 0
1, 265440, Note_on_c, 0, 32, 0
1, 265440, Note_on_c, 0, 85, 0
1, 265440, Note_on_c, 0, 88, 0
1, 265440, Note_on_c, 0, 80, 0
1, 265440, Note_on_c, 0, 37, 0
1, 265440, Note_on_c, 0, 92, 0
1, 265440, Note_on_c, 0, 80, 66
1, 265440, Note_on_c, 0, 85, 66
1, 265440, Note_on_c, 0, 88, 66
1, 265440, Note_on_c, 0, 92, 78
1, 265440, Note_on_c, 0, 32, 46
1, 265440, Note_on_c, 0, 37, 46
1, 265440, Note_on_c, 0, 44, 55
1, 265680, Tempo, 1111111
1, 265680, Note_on_c, 0, 44, 0
1, 265680, Note_on_c, 0, 32, 0
1, 265680, Note_on_c, 0, 85, 0
1, 265680, Note_on_c, 0, 88, 0
1, 265680, Note_on_c, 0, 80, 0
1, 265680, Note_on_c, 0, 37, 0
1, 265680, Note_on_c, 0, 92, 0
1, 265680, Note_on_c, 0, 80, 60
1, 265680, Note_on_c, 0, 85, 60
1, 265680, Note_on_c, 0, 88, 60
1, 265680, Note_on_c, 0, 92, 71
1, 265680, Note_on_c, 0, 32, 43
1, 265680, Note_on_c, 0, 37, 43
1, 265680, Note_on_c, 0, 44, 51
1, 265800, Tempo, 909091
1, 265800, Note_on_c, 0, 44, 0
1, 265800, Note_on_c, 0, 32, 0
1, 265800, Note_on_c, 0, 85, 0
1, 265800, Note_on_c, 0, 88, 0
1, 265800, Note_on_c, 0, 80, 0
1, 265800, Note_on_c, 0, 37, 0
1, 265800, Note_on_c, 0, 92, 0
1, 265800, Note_on_c, 0, 68, 56
1, 265800, Note_on_c, 0, 64, 56
1, 265800, Note_on_c, 0, 76, 67
1, 265800, Note_on_c, 0, 56, 46
1, 265800, Note_on_c, 0, 61, 55
1, 265804, Control_c, 0, 64, 0
1, 265850, Control_c, 0, 64, 127
1, 265915, Note_on_c, 0, 76, 0
1, 265915, Note_on_c, 0, 68, 0
1, 265915, Note_on_c, 0, 64, 0
1, 265920, Tempo, 930233
1, 265920, Note_on_c, 0, 56, 0
1, 265920, Note_on_c, 0, 61, 0
1, 265920, Note_on_c, 0, 66, 56
1, 265920, Note_on_c, 0, 68, 56
1, 265920, Note_on_c, 0, 75, 78
1, 265920, Note_on_c, 0, 56, 55
1, 265920, Note_on_c, 0, 60, 65
1, 265935, Control_c, 0, 64, 0
1, 266026, Control_c, 0, 64, 127
1, 266136, Note_on_c, 0, 75, 0
1, 266136, Note_on_c, 0, 66, 0
1, 266136, Note_on_c, 0, 68, 0
1, 266160, Tempo, 1000000
1, 266160, Note_on_c, 0, 56, 0
1, 266160, Note_on_c, 0, 60, 0
1, 266160, Note_on_c, 0, 66, 62
1, 266160, Note_on_c, 0, 68, 75
1, 266160, Note_on_c, 0, 56, 45
1, 266160, Note_on_c, 0, 63, 64
1, 266170, Control_c, 0, 64, 0
1, 266252, Control_c, 0, 64, 127
1, 266376, Note_on_c, 0, 63, 0
1, 266376, Note_on_c, 0, 66, 0
1, 266376, Note_on_c, 0, 68, 0
1, 266376, Note_on_c, 0, 56, 0
1, 266400, Tempo, 1052632
1, 266400, Note_on_c, 0, 64, 63
1, 266400, Note_on_c, 0, 68, 63
1, 266400, Note_on_c, 0, 73, 75
1, 266400, Note_on_c, 0, 56, 45
1, 266400, Note_on_c, 0, 49, 45
1, 266400, Note_on_c, 0, 61, 54
1, 266404, Control_c, 0, 64, 0
1, 266510, Note_on_c, 0, 61, 0
1, 266510, Note_on_c, 0, 68, 0
1, 266510, Note_on_c, 0, 73, 0
1, 266510, Note_on_c, 0, 64, 0
1, 266510, Note_on_c, 0, 49, 0
1, 266510, Note_on_c, 0, 56, 0
1, 266520, Tempo, 983607
1, 266520, Note_on_c, 0, 85, 69
1, 266520, Note_on_c, 0, 80, 58
1, 266520, Note_on_c, 0, 76, 58
1, 266520, Note_on_c, 0, 73, 58
1, 266520, Note_on_c, 0, 37, 41
1, 266520, Note_on_c, 0, 40, 41
1, 266520, Note_on_c, 0, 44, 41
1, 266520, Note_on_c, 0, 49, 49
1, 266541, Control_c, 0, 64, 127
1, 266760, Note_on_c, 0, 49, 0
1, 266760, Note_on_c, 0, 85, 0
1, 266760, Note_on_c, 0, 37, 0
1, 266760, Note_on_c, 0, 80, 0
1, 266760, Note_on_c, 0, 76, 0
1, 266760, Note_on_c, 0, 73, 0
1, 266760, Note_on_c, 0, 40, 0
1, 266760, Note_on_c, 0, 44, 0
1, 266760, Note_on_c, 0, 73, 51
1, 266760, Note_on_c, 0, 76, 51
1, 266760, Note_on_c, 0, 80, 51
1, 266760, Note_on_c, 0, 85, 61
1, 266760, Note_on_c, 0, 37, 35
1, 266760, Note_on_c, 0, 40, 35
1, 266760, Note_on_c, 0, 44, 35
1, 266760, Note_on_c, 0, 49, 42
1, 266880, Note_on_c, 0, 49, 0
1, 266880, Note_on_c, 0, 73, 0
1, 266880, Note_on_c, 0, 37, 0
1, 266880, Note_on_c, 0, 76, 0
1, 266880, Note_on_c, 0, 80, 0
1, 266880, Note_on_c, 0, 85, 0
1, 266880, Note_on_c, 0, 40, 0
1, 266880, Note_on_c, 0, 44, 0
1, 266880, Note_on_c, 0, 73, 59
1, 266880, Note_on_c, 0, 76, 59
1, 266880, Note_on_c, 0, 80, 59
1, 266880, Note_on_c, 0, 85, 70
1, 266880, Note_on_c, 0, 37, 41
1, 266880, Note_on_c, 0, 40, 41
1, 266880, Note_on_c, 0, 44, 41
1, 266880, Note_on_c, 0, 49, 49
1, 267120, Tempo, 1111111
1, 267120, Note_on_c, 0, 49, 0
1, 267120, Note_on_c, 0, 73, 0
1, 267120, Note_on_c, 0, 37, 0
1, 267120, Note_on_c, 0, 76, 0
1, 267120, Note_on_c, 0, 80, 0
1, 267120, Note_on_c, 0, 85, 0
1, 267120, Note_on_c, 0, 40, 0
1, 267120, Note_on_c, 0, 44, 0
1, 267120, Note_on_c, 0, 73, 53
1, 267120, Note_on_c, 0, 76, 53
1, 267120, Note_on_c, 0, 80, 53
1, 267120, Note_on_c, 0, 85, 63
1, 267120, Note_on_c, 0, 37, 38
1, 267120, Note_on_c, 0, 40, 38
1, 267120, Note_on_c, 0, 44, 38
1, 267120, Note_on_c, 0, 49, 45
1, 267240, Tempo, 909091
1, 267240, Note_on_c, 0, 49, 0
1, 267240, Note_on_c, 0, 73, 0
1, 267240, Note_on_c, 0, 37, 0
1, 267240, Note_on_c, 0, 76, 0
1, 267240, Note_on_c, 0, 80, 0
1, 267240, Note_on_c, 0, 85, 0
1, 267240, Note_on_c, 0, 40, 0
1, 267240, Note_on_c, 0, 44, 0
1, 267240, Note_on_c, 0, 64, 39
1, 267240, Note_on_c, 0, 61, 39
1, 267240, Note_on_c, 0, 73, 46
1, 267240, Note_on_c, 0, 52, 38
1, 267240, Note_on_c, 0, 57, 38
1, 267250, Control_c, 0, 64, 0
1, 267304, Control_c, 0, 64, 127
1, 267355, Note_on_c, 0, 73, 0
1, 267355, Note_on_c, 0, 64, 0
1, 267355, Note_on_c, 0, 61, 0
1, 267360, Tempo, 930233
1, 267360, Note_on_c, 0, 52, 0
1, 267360, Note_on_c, 0, 57, 0
1, 267360, Note_on_c, 0, 62, 39
1, 267360, Note_on_c, 0, 64, 39
1, 267360, Note_on_c, 0, 71, 54
1, 267360, Note_on_c, 0, 52, 45
1, 267360, Note_on_c, 0, 56, 38
1, 267376, Control_c, 0, 64, 0
1, 267508, Control_c, 0, 64, 127
1, 267576, Note_on_c, 0, 71, 0
1, 267576, Note_on_c, 0, 62, 0
1, 267576, Note_on_c, 0, 64, 0
1, 267600, Tempo, 1000000
1, 267600, Note_on_c, 0, 52, 0
1, 267600, Note_on_c, 0, 56, 0
1, 267600, Note_on_c, 0, 62, 45
1, 267600, Note_on_c, 0, 64, 53
1, 267600, Note_on_c, 0, 52, 37
1, 267600, Note_on_c, 0, 59, 44
1, 267610, Control_c, 0, 64, 0
1, 267692, Control_c, 0, 64, 127
1, 267816, Note_on_c, 0, 59, 0
1, 267816, Note_on_c, 0, 62, 0
1, 267816, Note_on_c, 0, 64, 0
1, 267816, Note_on_c, 0, 52, 0
1, 267840, Tempo, 1052632
1, 267840, Note_on_c, 0, 61, 49
1, 267840, Note_on_c, 0, 69, 58
1, 267840, Note_on_c, 0, 54, 35
1, 267840, Note_on_c, 0, 57, 42
1, 267844, Control_c, 0, 64, 0
1, 267950, Note_on_c, 0, 57, 0
1, 267950, Note_on_c, 0, 61, 0
1, 267950, Note_on_c, 0, 69, 0
1, 267950, Note_on_c, 0, 54, 0
1, 267960, Tempo, 983607
1, 267960, Note_on_c, 0, 81, 53
1, 267960, Note_on_c, 0, 78, 53
1, 267960, Note_on_c, 0, 73, 45
1, 267960, Note_on_c, 0, 69, 45
1, 267960, Note_on_c, 0, 42, 32
1, 267960, Note_on_c, 0, 49, 32
1, 267960, Note_on_c, 0, 54, 38
1, 267981, Control_c, 0, 64, 127
1, 268200, Note_on_c, 0, 54, 0
1, 268200, Note_on_c, 0, 42, 0
1, 268200, Note_on_c, 0, 78, 0
1, 268200, Note_on_c, 0, 73, 0
1, 268200, Note_on_c, 0, 81, 0
1, 268200, Note_on_c, 0, 49, 0
1, 268200, Note_on_c, 0, 69, 0
1, 268200, Note_on_c, 0, 69, 39
1, 268200, Note_on_c, 0, 73, 39
1, 268200, Note_on_c, 0, 78, 47
1, 268200, Note_on_c, 0, 81, 47
1, 268200, Note_on_c, 0, 42, 27
1, 268200, Note_on_c, 0, 49, 27
1, 268200, Note_on_c, 0, 54, 32
1, 268320, Note_on_c, 0, 54, 0
1, 268320, Note_on_c, 0, 42, 0
1, 268320, Note_on_c, 0, 73, 0
1, 268320, Note_on_c, 0, 78, 0
1, 268320, Note_on_c, 0, 69, 0
1, 268320, Note_on_c, 0, 49, 0
1, 268320, Note_on_c, 0, 81, 0
1, 268320, Note_on_c, 0, 69, 45
1, 268320, Note_on_c, 0, 73, 45
1, 268320, Note_on_c, 0, 78, 54
1, 268320, Note_on_c, 0, 81, 54
1, 268320, Note_on_c, 0, 42, 32
1, 268320, Note_on_c, 0, 49, 32
1, 268320, Note_on_c, 0, 54, 38
1, 268560, Tempo, 1111111
1, 268560, Note_on_c, 0, 54, 0
1, 268560, Note_on_c, 0, 42, 0
1, 268560, Note_on_c, 0, 73, 0
1, 268560, Note_on_c, 0, 78, 0
1, 268560, Note_on_c, 0, 69, 0
1, 268560, Note_on_c, 0, 49, 0
1, 268560, Note_on_c, 0, 81, 0
1, 268560, Note_on_c, 0, 69, 41
1, 268560, Note_on_c, 0, 73, 41
1, 268560, Note_on_c, 0, 78, 49
1, 268560, Note_on_c, 0, 81, 49
1, 268560, Note_on_c, 0, 42, 29
1, 268560, Note_on_c, 0, 49, 29
1, 268560, Note_on_c, 0, 54, 35
1, 268680, Tempo, 909091
1, 268680, Note_on_c, 0, 54, 0
1, 268680, Note_on_c, 0, 42, 0
1, 268680, Note_on_c, 0, 73, 0
1, 268680, Note_on_c, 0, 78, 0
1, 268680, Note_on_c, 0, 69, 0
1, 268680, Note_on_c, 0, 49, 0
1, 268680, Note_on_c, 0, 81, 0
1, 268680, Note_on_c, 0, 68, 56
1, 268680, Note_on_c, 0, 61, 56
1, 268680, Note_on_c, 0, 70, 67
1, 268680, Note_on_c, 0, 40, 46
1, 268680, Note_on_c, 0, 52, 55
1, 268692, Control_c, 0, 64, 0
1, 268746, Control_c, 0, 64, 127
1, 268795, Note_on_c, 0, 70, 0
1, 268795, Note_on_c, 0, 68, 0
1, 268795, Note_on_c, 0, 61, 0
1, 268800, Tempo, 930233
1, 268800, Note_on_c, 0, 40, 0
1, 268800, Note_on_c, 0, 52, 0
1, 268800, Note_on_c, 0, 62, 56
1, 268800, Note_on_c, 0, 68, 56
1, 268800, Note_on_c, 0, 71, 80
1, 268800, Note_on_c, 0, 38, 56
1, 268800, Note_on_c, 0, 50, 66
1, 268815, Control_c, 0, 64, 0
1, 268906, Control_c, 0, 64, 127
1, 269016, Note_on_c, 0, 71, 0
1, 269016, Note_on_c, 0, 62, 0
1, 269016, Note_on_c, 0, 68, 0
1, 269040, Tempo, 1000000
1, 269040, Note_on_c, 0, 38, 0
1, 269040, Note_on_c, 0, 50, 0
1, 269040, Note_on_c, 0, 68, 70
1, 269040, Note_on_c, 0, 64, 70
1, 269040, Note_on_c, 0, 70, 70
1, 269040, Note_on_c, 0, 73, 83
1, 269040, Note_on_c, 0, 37, 49
1, 269040, Note_on_c, 0, 49, 69
1, 269050, Control_c, 0, 64, 0
1, 269132, Control_c, 0, 64, 127
1, 269256, Note_on_c, 0, 49, 0
1, 269256, Note_on_c, 0, 64, 0
1, 269256, Note_on_c, 0, 70, 0
1, 269256, Note_on_c, 0, 68, 0
1, 269256, Note_on_c, 0, 37, 0
1, 269256, Note_on_c, 0, 73, 0
1, 269280, Tempo, 1052632
1, 269280, Note_on_c, 0, 67, 85
1, 269280, Note_on_c, 0, 62, 85
1, 269280, Note_on_c, 0, 71, 85
1, 269280, Note_on_c, 0, 74, 100
1, 269280, Note_on_c, 0, 35, 61
1, 269280, Note_on_c, 0, 47, 72
1, 269284, Control_c, 0, 64, 0
1, 269390, Note_on_c, 0, 47, 0
1, 269390, Note_on_c, 0, 62, 0
1, 269390, Note_on_c, 0, 71, 0
1, 269390, Note_on_c, 0, 74, 0
1, 269390, Note_on_c, 0, 35, 0
1, 269400, Tempo, 960000
1, 269400, Note_on_c, 0, 67, 0
1, 269400, Note_on_c, 0, 86, 101
1, 269400, Note_on_c, 0, 83, 85
1, 269400, Note_on_c, 0, 79, 85
1, 269400, Note_on_c, 0, 74, 85
1, 269400, Note_on_c, 0, 35, 56
1, 269400, Note_on_c, 0, 43, 56
1, 269400, Note_on_c, 0, 38, 56
1, 269400, Note_on_c, 0, 47, 66
1, 269421, Control_c, 0, 64, 127
1, 269640, Note_on_c, 0, 47, 0
1, 269640, Note_on_c, 0, 86, 0
1, 269640, Note_on_c, 0, 35, 0
1, 269640, Note_on_c, 0, 83, 0
1, 269640, Note_on_c, 0, 79, 0
1, 269640, Note_on_c, 0, 74, 0
1, 269640, Note_on_c, 0, 43, 0
1, 269640, Note_on_c, 0, 38, 0
1, 269640, Note_on_c, 0, 74, 74
1, 269640, Note_on_c, 0, 79, 74
1, 269640, Note_on_c, 0, 83, 74
1, 269640, Note_on_c, 0, 86, 89
1, 269640, Note_on_c, 0, 43, 47
1, 269640, Note_on_c, 0, 38, 47
1, 269640, Note_on_c, 0, 35, 47
1, 269640, Note_on_c, 0, 47, 56
1, 269760, Note_on_c, 0, 47, 0
1, 269760, Note_on_c, 0, 74, 0
1, 269760, Note_on_c, 0, 43, 0
1, 269760, Note_on_c, 0, 79, 0
1, 269760, Note_on_c, 0, 83, 0
1, 269760, Note_on_c, 0, 86, 0
1, 269760, Note_on_c, 0, 38, 0
1, 269760, Note_on_c, 0, 35, 0
1, 269760, Note_on_c, 0, 74, 86
1, 269760, Note_on_c, 0, 79, 86
1, 269760, Note_on_c, 0, 83, 86
1, 269760, Note_on_c, 0, 86, 102
1, 269760, Note_on_c, 0, 43, 56
1, 269760, Note_on_c, 0, 38, 56
1, 269760, Note_on_c, 0, 35, 56
1, 269760, Note_on_c, 0, 47, 66
1, 270000, Tempo, 1025641
1, 270000, Note_on_c, 0, 47, 0
1, 270000, Note_on_c, 0, 74, 0
1, 270000, Note_on_c, 0, 43, 0
1, 270000, Note_on_c, 0, 79, 0
1, 270000, Note_on_c, 0, 83, 0
1, 270000, Note_on_c, 0, 86, 0
1, 270000, Note_on_c, 0, 38, 0
1, 270000, Note_on_c, 0, 35, 0
1, 270000, Note_on_c, 0, 74, 79
1, 270000, Note_on_c, 0, 79, 79
1, 270000, Note_on_c, 0, 83, 79
1, 270000, Note_on_c, 0, 86, 93
1, 270000, Note_on_c, 0, 43, 51
1, 270000, Note_on_c, 0, 35, 51
1, 270000, Note_on_c, 0, 38, 51
1, 270000, Note_on_c, 0, 47, 61
1, 270350, Note_on_c, 0, 47, 0
1, 270350, Note_on_c, 0, 74, 0
1, 270350, Note_on_c, 0, 43, 0
1, 270350, Note_on_c, 0, 79, 0
1, 270350, Note_on_c, 0, 83, 0
1, 270350, Note_on_c, 0, 86, 0
1, 270350, Note_on_c, 0, 35, 0
1, 270350, Note_on_c, 0, 38, 0
1, 270360, Tempo, 952381
1, 270360, Note_on_c, 0, 74, 50
1, 270360, Note_on_c, 0, 66, 42
1, 270360, Note_on_c, 0, 62, 42
1, 270360, Note_on_c, 0, 48, 30
1, 270360, Note_on_c, 0, 54, 30
1, 270360, Note_on_c, 0, 50, 30
1, 270360, Note_on_c, 0, 57, 36
1, 270366, Note_on_c, 0, 69, 42
1, 270375, Control_c, 0, 64, 0
1, 270475, Control_c, 0, 64, 127
1, 270600, Note_on_c, 0, 57, 0
1, 270600, Note_on_c, 0, 48, 0
1, 270600, Note_on_c, 0, 54, 0
1, 270600, Note_on_c, 0, 66, 0
1, 270600, Note_on_c, 0, 62, 0
1, 270600, Note_on_c, 0, 74, 0
1, 270600, Note_on_c, 0, 50, 0
1, 270600, Note_on_c, 0, 62, 37
1, 270600, Note_on_c, 0, 66, 37
1, 270600, Note_on_c, 0, 69, 37
1, 270600, Note_on_c, 0, 74, 44
1, 270600, Note_on_c, 0, 54, 25
1, 270600, Note_on_c, 0, 50, 25
1, 270600, Note_on_c, 0, 48, 25
1, 270600, Note_on_c, 0, 57, 30
1, 270606, Note_on_c, 0, 69, 0
1, 270720, Note_on_c, 0, 74, 0
1, 270720, Note_on_c, 0, 62, 0
1, 270720, Note_on_c, 0, 54, 0
1, 270720, Note_on_c, 0, 66, 0
1, 270720, Note_on_c, 0, 69, 0
1, 270720, Note_on_c, 0, 48, 0
1, 270720, Note_on_c, 0, 50, 0
1, 270720, Note_on_c, 0, 57, 0
1, 270720, Note_on_c, 0, 62, 43
1, 270720, Note_on_c, 0, 66, 43
1, 270720, Note_on_c, 0, 69, 43
1, 270720, Note_on_c, 0, 74, 51
1, 270720, Note_on_c, 0, 54, 30
1, 270720, Note_on_c, 0, 50, 30
1, 270720, Note_on_c, 0, 48, 30
1, 270720, Note_on_c, 0, 57, 36
1, 270960, Tempo, 975610
1, 270960, Note_on_c, 0, 57, 0
1, 270960, Note_on_c, 0, 62, 0
1, 270960, Note_on_c, 0, 54, 0
1, 270960, Note_on_c, 0, 66, 0
1, 270960, Note_on_c, 0, 69, 0
1, 270960, Note_on_c, 0, 74, 0
1, 270960, Note_on_c, 0, 50, 0
1, 270960, Note_on_c, 0, 48, 0
1, 270960, Note_on_c, 0, 69, 39
1, 270960, Note_on_c, 0, 62, 39
1, 270960, Note_on_c, 0, 66, 39
1, 270960, Note_on_c, 0, 74, 46
1, 270960, Note_on_c, 0, 54, 28
1, 270960, Note_on_c, 0, 48, 28
1, 270960, Note_on_c, 0, 50, 28
1, 270960, Note_on_c, 0, 57, 33
1, 271310, Note_on_c, 0, 57, 0
1, 271310, Note_on_c, 0, 69, 0
1, 271310, Note_on_c, 0, 54, 0
1, 271310, Note_on_c, 0, 62, 0
1, 271310, Note_on_c, 0, 66, 0
1, 271310, Note_on_c, 0, 74, 0
1, 271310, Note_on_c, 0, 48, 0
1, 271310, Note_on_c, 0, 50, 0
1, 271320, Tempo, 960000
1, 271320, Note_on_c, 0, 86, 101
1, 271320, Note_on_c, 0, 83, 85
1, 271320, Note_on_c, 0, 79, 85
1, 271320, Note_on_c, 0, 74, 85
1, 271320, Note_on_c, 0, 35, 56
1, 271320, Note_on_c, 0, 43, 56
1, 271320, Note_on_c, 0, 38, 56
1, 271320, Note_on_c, 0, 47, 66
1, 271330, Control_c, 0, 64, 0
1, 271447, Control_c, 0, 64, 127
1, 271560, Note_on_c, 0, 47, 0
1, 271560, Note_on_c, 0, 86, 0
1, 271560, Note_on_c, 0, 35, 0
1, 271560, Note_on_c, 0, 83, 0
1, 271560, Note_on_c, 0, 79, 0
1, 271560, Note_on_c, 0, 74, 0
1, 271560, Note_on_c, 0, 43, 0
1, 271560, Note_on_c, 0, 38, 0
1, 271560, Note_on_c, 0, 74, 74
1, 271560, Note_on_c, 0, 79, 74
1, 271560, Note_on_c, 0, 83, 74
1, 271560, Note_on_c, 0, 86, 89
1, 271560, Note_on_c, 0, 43, 47
1, 271560, Note_on_c, 0, 38, 47
1, 271560, Note_on_c, 0, 35, 47
1, 271560, Note_on_c, 0, 47, 56
1, 271680, Note_on_c, 0, 47, 0
1, 271680, Note_on_c, 0, 74, 0
1, 271680, Note_on_c, 0, 43, 0
1, 271680, Note_on_c, 0, 79, 0
1, 271680, Note_on_c, 0, 83, 0
1, 271680, Note_on_c, 0, 86, 0
1, 271680, Note_on_c, 0, 38, 0
1, 271680, Note_on_c, 0, 35, 0
1, 271680, Note_on_c, 0, 74, 86
1, 271680, Note_on_c, 0, 79, 86
1, 271680, Note_on_c, 0, 83, 86
1, 271680, Note_on_c, 0, 86, 102
1, 271680, Note_on_c, 0, 43, 56
1, 271680, Note_on_c, 0, 38, 56
1, 271680, Note_on_c, 0, 35, 56
1, 271680, Note_on_c, 0, 47, 66
1, 271920, Tempo, 1025641
1, 271920, Note_on_c, 0, 47, 0
1, 271920, Note_on_c, 0, 74, 0
1, 271920, Note_on_c, 0, 43, 0
1, 271920, Note_on_c, 0, 79, 0
1, 271920, Note_on_c, 0, 83, 0
1, 271920, Note_on_c, 0, 86, 0
1, 271920, Note_on_c, 0, 38, 0
1, 271920, Note_on_c, 0, 35, 0
1, 271920, Note_on_c, 0, 74, 79
1, 271920, Note_on_c, 0, 79, 79
1, 271920, Note_on_c, 0, 83, 79
1, 271920, Note_on_c, 0, 86, 93
1, 271920, Note_on_c, 0, 43, 51
1, 271920, Note_on_c, 0, 35, 51
1, 271920, Note_on_c, 0, 38, 51
1, 271920, Note_on_c, 0, 47, 61
1, 272270, Note_on_c, 0, 47, 0
1, 272270, Note_on_c, 0, 74, 0
1, 272270, Note_on_c, 0, 43, 0
1, 272270, Note_on_c, 0, 79, 0
1, 272270, Note_on_c, 0, 83, 0
1, 272270, Note_on_c, 0, 86, 0
1, 272270, Note_on_c, 0, 35, 0
1, 272270, Note_on_c, 0, 38, 0
1, 272280, Tempo, 952381
1, 272280, Note_on_c, 0, 74, 50
1, 272280, Note_on_c, 0, 66, 42
1, 272280, Note_on_c, 0, 62, 42
1, 272280, Note_on_c, 0, 48, 30
1, 272280, Note_on_c, 0, 54, 30
1, 272280, Note_on_c, 0, 50, 30
1, 272280, Note_on_c, 0, 57, 36
1, 272286, Note_on_c, 0, 69, 42
1, 272295, Control_c, 0, 64, 0
1, 272395, Control_c, 0, 64, 127
1, 272520, Note_on_c, 0, 57, 0
1, 272520, Note_on_c, 0, 48, 0
1, 272520, Note_on_c, 0, 54, 0
1, 272520, Note_on_c, 0, 66, 0
1, 272520, Note_on_c, 0, 62, 0
1, 272520, Note_on_c, 0, 74, 0
1, 272520, Note_on_c, 0, 50, 0
1, 272520, Note_on_c, 0, 62, 37
1, 272520, Note_on_c, 0, 66, 37
1, 272520, Note_on_c, 0, 69, 37
1, 272520, Note_on_c, 0, 74, 44
1, 272520, Note_on_c, 0, 54, 25
1, 272520, Note_on_c, 0, 50, 25
1, 272520, Note_on_c, 0, 48, 25
1, 272520, Note_on_c, 0, 57, 30
1, 272526, Note_on_c, 0, 69, 0
1, 272640, Note_on_c, 0, 74, 0
1, 272640, Note_on_c, 0, 62, 0
1, 272640, Note_on_c, 0, 54, 0
1, 272640, Note_on_c, 0, 66, 0
1, 272640, Note_on_c, 0, 69, 0
1, 272640, Note_on_c, 0, 48, 0
1, 272640, Note_on_c, 0, 50, 0
1, 272640, Note_on_c, 0, 57, 0
1, 272640, Note_on_c, 0, 62, 43
1, 272640, Note_on_c, 0, 66, 43
1, 272640, Note_on_c, 0, 69, 43
1, 272640, Note_on_c, 0, 74, 51
1, 272640, Note_on_c, 0, 54, 30
1, 272640, Note_on_c, 0, 50, 30
1, 272640, Note_on_c, 0, 48, 30
1, 272640, Note_on_c, 0, 57, 36
1, 272880, Tempo, 975610
1, 272880, Note_on_c, 0, 57, 0
1, 272880, Note_on_c, 0, 62, 0
1, 272880, Note_on_c, 0, 54, 0
1, 272880, Note_on_c, 0, 66, 0
1, 272880, Note_on_c, 0, 69, 0
1, 272880, Note_on_c, 0, 74, 0
1, 272880, Note_on_c, 0, 50, 0
1, 272880, Note_on_c, 0, 48, 0
1, 272880, Note_on_c, 0, 69, 39
1, 272880, Note_on_c, 0, 62, 39
1, 272880, Note_on_c, 0, 66, 39
1, 272880, Note_on_c, 0, 74, 46
1, 272880, Note_on_c, 0, 54, 28
1, 272880, Note_on_c, 0, 48, 28
1, 272880, Note_on_c, 0, 50, 28
1, 272880, Note_on_c, 0, 57, 33
1, 273230, Note_on_c, 0, 57, 0
1, 273230, Note_on_c, 0, 69, 0
1, 273230, Note_on_c, 0, 54, 0
1, 273230, Note_on_c, 0, 62, 0
1, 273230, Note_on_c, 0, 66, 0
1, 273230, Note_on_c, 0, 74, 0
1, 273230, Note_on_c, 0, 48, 0
1, 273230, Note_on_c, 0, 50, 0
1, 273240, Tempo, 960000
1, 273240, Note_on_c, 0, 86, 101
1, 273240, Note_on_c, 0, 83, 72
1, 273240, Note_on_c, 0, 79, 72
1, 273240, Note_on_c, 0, 74, 72
1, 273240, Note_on_c, 0, 35, 47
1, 273240, Note_on_c, 0, 43, 47
1, 273240, Note_on_c, 0, 38, 47
1, 273240, Note_on_c, 0, 47, 66
1, 273246, Control_c, 0, 64, 0
1, 273326, Control_c, 0, 64, 127
1, 273468, Note_on_c, 0, 47, 0
1, 273468, Note_on_c, 0, 86, 0
1, 273468, Note_on_c, 0, 35, 0
1, 273468, Note_on_c, 0, 83, 0
1, 273468, Note_on_c, 0, 79, 0
1, 273468, Note_on_c, 0, 74, 0
1, 273468, Note_on_c, 0, 43, 0
1, 273468, Note_on_c, 0, 38, 0
1, 273480, Note_on_c, 0, 74, 62
1, 273480, Note_on_c, 0, 79, 62
1, 273480, Note_on_c, 0, 83, 62
1, 273480, Note_on_c, 0, 86, 89
1, 273480, Note_on_c, 0, 43, 39
1, 273480, Note_on_c, 0, 38, 39
1, 273480, Note_on_c, 0, 35, 39
1, 273480, Note_on_c, 0, 47, 56
1, 273594, Note_on_c, 0, 47, 0
1, 273594, Note_on_c, 0, 74, 0
1, 273594, Note_on_c, 0, 43, 0
1, 273594, Note_on_c, 0, 79, 0
1, 273594, Note_on_c, 0, 83, 0
1, 273594, Note_on_c, 0, 86, 0
1, 273594, Note_on_c, 0, 38, 0
1, 273594, Note_on_c, 0, 35, 0
1, 273600, Tempo, 779221
1, 273600, Note_on_c, 0, 74, 78
1, 273600, Note_on_c, 0, 79, 78
1, 273600, Note_on_c, 0, 83, 78
1, 273600, Note_on_c, 0, 86, 92
1, 273600, Note_on_c, 0, 35, 56
1, 273600, Note_on_c, 0, 38, 56
1, 273600, Note_on_c, 0, 43, 56
1, 273600, Note_on_c, 0, 47, 66
1, 273720, Note_on_c, 0, 47, 0
1, 273720, Note_on_c, 0, 74, 0
1, 273720, Note_on_c, 0, 35, 0
1, 273720, Note_on_c, 0, 79, 0
1, 273720, Note_on_c, 0, 83, 0
1, 273720, Note_on_c, 0, 86, 0
1, 273720, Note_on_c, 0, 38, 0
1, 273720, Note_on_c, 0, 43, 0
1, 273840, Tempo, 722892
1, 273840, Note_on_c, 0, 74, 74
1, 273840, Note_on_c, 0, 79, 74
1, 273840, Note_on_c, 0, 83, 88
1, 273840, Note_on_c, 0, 35, 56
1, 273840, Note_on_c, 0, 47, 66
1, 273960, Note_on_c, 0, 47, 0
1, 273960, Note_on_c, 0, 83, 0
1, 273960, Note_on_c, 0, 74, 0
1, 273960, Note_on_c, 0, 79, 0
1, 273960, Note_on_c, 0, 35, 0
1, 274080, Tempo, 685714
1, 274080, Note_on_c, 0, 71, 72
1, 274080, Note_on_c, 0, 74, 72
1, 274080, Note_on_c, 0, 79, 85
1, 274080, Note_on_c, 0, 35, 54
1, 274080, Note_on_c, 0, 47, 64
1, 274200, Note_on_c, 0, 47, 0
1, 274200, Note_on_c, 0, 79, 0
1, 274200, Note_on_c, 0, 71, 0
1, 274200, Note_on_c, 0, 74, 0
1, 274200, Note_on_c, 0, 35, 0
1, 274320, Tempo, 674157
1, 274320, Note_on_c, 0, 67, 69
1, 274320, Note_on_c, 0, 71, 69
1, 274320, Note_on_c, 0, 74, 82
1, 274320, Note_on_c, 0, 35, 52
1, 274320, Note_on_c, 0, 47, 62
1, 274440, Note_on_c, 0, 47, 0
1, 274440, Note_on_c, 0, 74, 0
1, 274440, Note_on_c, 0, 67, 0
1, 274440, Note_on_c, 0, 71, 0
1, 274440, Note_on_c, 0, 35, 0
1, 274560, Tempo, 648649
1, 274560, Note_on_c, 0, 62, 67
1, 274560, Note_on_c, 0, 67, 67
1, 274560, Note_on_c, 0, 71, 79
1, 274560, Note_on_c, 0, 35, 51
1, 274560, Note_on_c, 0, 47, 60
1, 274680, Note_on_c, 0, 47, 0
1, 274680, Note_on_c, 0, 71, 0
1, 274680, Note_on_c, 0, 62, 0
1, 274680, Note_on_c, 0, 67, 0
1, 274680, Note_on_c, 0, 35, 0
1, 274800, Tempo, 1081081
1, 274800, Note_on_c, 0, 59, 64
1, 274800, Note_on_c, 0, 62, 64
1, 274800, Note_on_c, 0, 67, 76
1, 274800, Note_on_c, 0, 35, 49
1, 274800, Note_on_c, 0, 47, 58
1, 274920, Note_on_c, 0, 47, 0
1, 274920, Note_on_c, 0, 67, 0
1, 274920, Note_on_c, 0, 59, 0
1, 274920, Note_on_c, 0, 62, 0
1, 274920, Note_on_c, 0, 35, 0
1, 275040, Tempo, 714286
1, 275040, Note_on_c, 0, 55, 80
1, 275040, Note_on_c, 0, 62, 80
1, 275040, Note_on_c, 0, 65, 95
1, 275040, Note_on_c, 0, 35, 60
1, 275040, Note_on_c, 0, 47, 71
1, 276480, Note_on_c, 0, 47, 0
1, 276480, Note_on_c, 0, 65, 0
1, 276480, Note_on_c, 0, 55, 0
1, 276480, Note_on_c, 0, 62, 0
1, 276480, Note_on_c, 0, 35, 0
1, 276480, Note_on_c, 0, 55, 75
1, 276480, Note_on_c, 0, 62, 75
1, 276480, Note_on_c, 0, 65, 89
1, 276480, Note_on_c, 0, 35, 56
1, 276480, Note_on_c, 0, 47, 66
1, 277920, Tempo, 794702
1, 277920, Note_on_c, 0, 47, 0
1, 277920, Note_on_c, 0, 65, 0
1, 277920, Note_on_c, 0, 55, 0
1, 277920, Note_on_c, 0, 62, 0
1, 277920, Note_on_c, 0, 35, 0
1, 277920, Note_on_c, 0, 56, 39
1, 277920, Note_on_c, 0, 62, 47
1, 277920, Note_on_c, 0, 64, 47
1, 277920, Note_on_c, 0, 47, 33
1, 277920, Note_on_c, 0, 50, 33
1, 277920, Note_on_c, 0, 52, 39
1, 277920, Control_c, 0, 64, 0
1, 277977, Control_c, 0, 64, 127
1, 278695, Note_on_c, 0, 64, 0
1, 278700, Note_on_c, 0, 64, 42
1, 278760, Note_on_c, 0, 64, 0
1, 278760, Note_on_c, 0, 66, 42
1, 278820, Note_on_c, 0, 66, 0
1, 278820, Note_on_c, 0, 68, 42
1, 278880, Tempo, 759494
1, 278880, Note_on_c, 0, 68, 0
1, 278880, Note_on_c, 0, 62, 0
1, 278880, Note_on_c, 0, 56, 0
1, 278880, Note_on_c, 0, 66, 49
1, 278895, Control_c, 0, 64, 0
1, 278944, Control_c, 0, 64, 127
1, 279240, Tempo, 983607
1, 279240, Note_on_c, 0, 66, 0
1, 279240, Note_on_c, 0, 64, 48
1, 279350, Note_on_c, 0, 64, 0
1, 279360, Tempo, 769231
1, 279360, Note_on_c, 0, 47, 0
1, 279360, Note_on_c, 0, 50, 0
1, 279360, Note_on_c, 0, 52, 0
1, 279360, Note_on_c, 0, 56, 39
1, 279360, Note_on_c, 0, 62, 47
1, 279360, Note_on_c, 0, 64, 47
1, 279360, Note_on_c, 0, 47, 33
1, 279360, Note_on_c, 0, 50, 33
1, 279360, Note_on_c, 0, 52, 39
1, 279360, Control_c, 0, 64, 0
1, 279417, Control_c, 0, 64, 127
1, 280135, Note_on_c, 0, 64, 0
1, 280140, Note_on_c, 0, 64, 42
1, 280200, Note_on_c, 0, 64, 0
1, 280200, Note_on_c, 0, 66, 42
1, 280260, Note_on_c, 0, 66, 0
1, 280260, Note_on_c, 0, 68, 42
1, 280320, Tempo, 750000
1, 280320, Note_on_c, 0, 68, 0
1, 280320, Note_on_c, 0, 62, 0
1, 280320, Note_on_c, 0, 56, 0
1, 280320, Note_on_c, 0, 66, 49
1, 280335, Control_c, 0, 64, 0
1, 280384, Control_c, 0, 64, 127
1, 280680, Tempo, 952381
1, 280680, Note_on_c, 0, 66, 0
1, 280680, Note_on_c, 0, 64, 42
1, 280790, Note_on_c, 0, 64, 0
1, 280800, Tempo, 916031
1, 280800, Note_on_c, 0, 47, 0
1, 280800, Note_on_c, 0, 50, 0
1, 280800, Note_on_c, 0, 52, 0
1, 280800, Note_on_c, 0, 61, 40
1, 280800, Note_on_c, 0, 64, 48
1, 280800, Note_on_c, 0, 49, 36
1, 280800, Note_on_c, 0, 52, 36
1, 280800, Note_on_c, 0, 57, 43
1, 280800, Control_c, 0, 64, 0
1, 280892, Control_c, 0, 64, 127
1, 280920, Tempo, 991736
1, 280920, Note_on_c, 0, 64, 0
1, 280920, Note_on_c, 0, 69, 42
1, 281040, Tempo, 916031
1, 281040, Note_on_c, 0, 69, 0
1, 281040, Note_on_c, 0, 57, 0
1, 281040, Note_on_c, 0, 61, 0
1, 281040, Note_on_c, 0, 49, 0
1, 281040, Note_on_c, 0, 52, 0
1, 281040, Note_on_c, 0, 63, 40
1, 281040, Note_on_c, 0, 68, 48
1, 281040, Note_on_c, 0, 57, 30
1, 281040, Note_on_c, 0, 59, 36
1, 281040, Note_on_c, 0, 54, 30
1, 281048, Control_c, 0, 64, 0
1, 281104, Control_c, 0, 64, 127
1, 281160, Tempo, 983607
1, 281160, Note_on_c, 0, 68, 0
1, 281160, Note_on_c, 0, 69, 43
1, 281280, Tempo, 923077
1, 281280, Note_on_c, 0, 69, 0
1, 281280, Note_on_c, 0, 54, 0
1, 281280, Note_on_c, 0, 63, 0
1, 281280, Note_on_c, 0, 57, 0
1, 281280, Note_on_c, 0, 59, 0
1, 281280, Note_on_c, 0, 64, 40
1, 281280, Note_on_c, 0, 69, 40
1, 281280, Note_on_c, 0, 73, 48
1, 281280, Note_on_c, 0, 61, 43
1, 281280, Note_on_c, 0, 52, 36
1, 281280, Note_on_c, 0, 57, 36
1, 281295, Control_c, 0, 64, 0
1, 281379, Control_c, 0, 64, 127
1, 281760, Note_on_c, 0, 57, 0
1, 281760, Note_on_c, 0, 69, 0
1, 281760, Note_on_c, 0, 73, 0
1, 281760, Note_on_c, 0, 64, 0
1, 281760, Note_on_c, 0, 52, 0
1, 281760, Note_on_c, 0, 61, 0
1, 281760, Note_on_c, 0, 62, 38
1, 281760, Note_on_c, 0, 64, 38
1, 281760, Note_on_c, 0, 68, 38
1, 281760, Note_on_c, 0, 73, 45
1, 281760, Note_on_c, 0, 40, 34
1, 281760, Note_on_c, 0, 52, 41
1, 281775, Control_c, 0, 64, 0
1, 281859, Control_c, 0, 64, 127
1, 282120, Tempo, 1153846
1, 282120, Note_on_c, 0, 73, 0
1, 282120, Note_on_c, 0, 71, 41
1, 282240, Tempo, 1081081
1, 282240, Note_on_c, 0, 71, 0
1, 282240, Note_on_c, 0, 52, 0
1, 282240, Note_on_c, 0, 68, 0
1, 282240, Note_on_c, 0, 62, 0
1, 282240, Note_on_c, 0, 64, 0
1, 282240, Note_on_c, 0, 40, 0
1, 282240, Note_on_c, 0, 61, 31
1, 282240, Note_on_c, 0, 64, 31
1, 282240, Note_on_c, 0, 69, 37
1, 282240, Note_on_c, 0, 45, 28
1, 282240, Note_on_c, 0, 52, 33
1, 282240, Control_c, 0, 64, 0
1, 282272, Control_c, 0, 64, 127
1, 282360, Note_on_c, 0, 52, 0
1, 282360, Note_on_c, 0, 69, 0
1, 282360, Note_on_c, 0, 61, 0
1, 282360, Note_on_c, 0, 64, 0
1, 282360, Note_on_c, 0, 45, 0
1, 282360, Note_on_c, 0, 57, 34
1, 282360, Note_on_c, 0, 61, 34
1, 282360, Note_on_c, 0, 64, 34
1, 282360, Note_on_c, 0, 69, 41
1, 282370, Control_c, 0, 64, 0
1, 282410, Control_c, 0, 64, 127
1, 282480, Tempo, 1000000
1, 282540, Note_on_c, 0, 69, 0
1, 282540, Note_on_c, 0, 57, 0
1, 282540, Note_on_c, 0, 61, 0
1, 282540, Note_on_c, 0, 64, 0
1, 282600, Note_on_c, 0, 57, 27
1, 282600, Note_on_c, 0, 61, 27
1, 282600, Note_on_c, 0, 64, 27
1, 282600, Note_on_c, 0, 69, 32
1, 282690, Note_on_c, 0, 69, 0
1, 282690, Note_on_c, 0, 57, 0
1, 282690, Note_on_c, 0, 61, 0
1, 282690, Note_on_c, 0, 64, 0
1, 282720, Note_on_c, 0, 57, 29
1, 282720, Note_on_c, 0, 61, 29
1, 282720, Note_on_c, 0, 64, 29
1, 282720, Note_on_c, 0, 69, 35
1, 282900, Note_on_c, 0, 69, 0
1, 282900, Note_on_c, 0, 57, 0
1, 282900, Note_on_c, 0, 61, 0
1, 282900, Note_on_c, 0, 64, 0
1, 282960, Tempo, 1043478
1, 282960, Note_on_c, 0, 57, 27
1, 282960, Note_on_c, 0, 61, 27
1, 282960, Note_on_c, 0, 64, 27
1, 282960, Note_on_c, 0, 69, 32
1, 282960, Note_on_c, 0, 45, 36
1, 283140, Note_on_c, 0, 69, 0
1, 283140, Note_on_c, 0, 64, 0
1, 283140, Note_on_c, 0, 57, 0
1, 283140, Note_on_c, 0, 61, 0
1, 283176, Note_on_c, 0, 45, 0
1, 283200, Note_on_c, 0, 47, 44
1, 283215, Control_c, 0, 64, 0
1, 283274, Control_c, 0, 64, 127
1, 283416, Note_on_c, 0, 47, 0
1, 283440, Note_on_c, 0, 44, 40
1, 283656, Note_on_c, 0, 44, 0
1, 283680, Tempo, 1081081
1, 283680, Note_on_c, 0, 45, 48
1, 283680, Control_c, 0, 64, 0
1, 283712, Control_c, 0, 64, 127
1, 283800, Note_on_c, 0, 57, 34
1, 283800, Note_on_c, 0, 61, 34
1, 283800, Note_on_c, 0, 67, 34
1, 283800, Note_on_c, 0, 69, 41
1, 283920, Tempo, 1000000
1, 283980, Note_on_c, 0, 69, 0
1, 283980, Note_on_c, 0, 61, 0
1, 283980, Note_on_c, 0, 67, 0
1, 283980, Note_on_c, 0, 57, 0
1, 284040, Note_on_c, 0, 57, 27
1, 284040, Note_on_c, 0, 61, 27
1, 284040, Note_on_c, 0, 67, 27
1, 284040, Note_on_c, 0, 69, 32
1, 284130, Note_on_c, 0, 69, 0
1, 284130, Note_on_c, 0, 61, 0
1, 284130, Note_on_c, 0, 67, 0
1, 284130, Note_on_c, 0, 57, 0
1, 284160, Note_on_c, 0, 57, 29
1, 284160, Note_on_c, 0, 61, 29
1, 284160, Note_on_c, 0, 67, 29
1, 284160, Note_on_c, 0, 69, 35
1, 284340, Note_on_c, 0, 69, 0
1, 284340, Note_on_c, 0, 61, 0
1, 284340, Note_on_c, 0, 67, 0
1, 284340, Note_on_c, 0, 57, 0
1, 284400, Tempo, 1043478
1, 284400, Note_on_c, 0, 45, 0
1, 284400, Note_on_c, 0, 57, 27
1, 284400, Note_on_c, 0, 61, 27
1, 284400, Note_on_c, 0, 67, 27
1, 284400, Note_on_c, 0, 69, 32
1, 284400, Note_on_c, 0, 55, 39
1, 284580, Note_on_c, 0, 69, 0
1, 284580, Note_on_c, 0, 67, 0
1, 284580, Note_on_c, 0, 57, 0
1, 284580, Note_on_c, 0, 61, 0
1, 284616, Note_on_c, 0, 55, 0
1, 284640, Note_on_c, 0, 52, 48
1, 284655, Control_c, 0, 64, 0
1, 284714, Control_c, 0, 64, 127
1, 284856, Note_on_c, 0, 52, 0
1, 284880, Note_on_c, 0, 49, 44
1, 285096, Note_on_c, 0, 49, 0
1, 285120, Tempo, 1081081
1, 285120, Note_on_c, 0, 45, 48
1, 285120, Control_c, 0, 64, 0
1, 285152, Control_c, 0, 64, 127
1, 285240, Note_on_c, 0, 57, 34
1, 285240, Note_on_c, 0, 62, 34
1, 285240, Note_on_c, 0, 66, 34
1, 285240, Note_on_c, 0, 69, 41
1, 285360, Tempo, 1000000
1, 285420, Note_on_c, 0, 69, 0
1, 285420, Note_on_c, 0, 62, 0
1, 285420, Note_on_c, 0, 66, 0
1, 285420, Note_on_c, 0, 57, 0
1, 285480, Note_on_c, 0, 57, 27
1, 285480, Note_on_c, 0, 62, 27
1, 285480, Note_on_c, 0, 66, 27
1, 285480, Note_on_c, 0, 69, 32
1, 285570, Note_on_c, 0, 69, 0
1, 285570, Note_on_c, 0, 62, 0
1, 285570, Note_on_c, 0, 66, 0
1, 285570, Note_on_c, 0, 57, 0
1, 285600, Note_on_c, 0, 57, 29
1, 285600, Note_on_c, 0, 62, 29
1, 285600, Note_on_c, 0, 66, 29
1, 285600, Note_on_c, 0, 69, 35
1, 285780, Note_on_c, 0, 69, 0
1, 285780, Note_on_c, 0, 62, 0
1, 285780, Note_on_c, 0, 66, 0
1, 285780, Note_on_c, 0, 57, 0
1, 285840, Tempo, 1043478
1, 285840, Note_on_c, 0, 45, 0
1, 285840, Note_on_c, 0, 57, 27
1, 285840, Note_on_c, 0, 62, 27
1, 285840, Note_on_c, 0, 66, 27
1, 285840, Note_on_c, 0, 69, 32
1, 285840, Note_on_c, 0, 45, 36
1, 286020, Note_on_c, 0, 69, 0
1, 286020, Note_on_c, 0, 66, 0
1, 286020, Note_on_c, 0, 57, 0
1, 286020, Note_on_c, 0, 62, 0
1, 286056, Note_on_c, 0, 45, 0
1, 286080, Note_on_c, 0, 47, 44
1, 286095, Control_c, 0, 64, 0
1, 286154, Control_c, 0, 64, 127
1, 286296, Note_on_c, 0, 47, 0
1, 286320, Note_on_c, 0, 44, 40
1, 286536, Note_on_c, 0, 44, 0
1, 286560, Tempo, 1081081
1, 286560, Note_on_c, 0, 45, 44
1, 286560, Control_c, 0, 64, 0
1, 286592, Control_c, 0, 64, 127
1, 286680, Note_on_c, 0, 57, 34
1, 286680, Note_on_c, 0, 62, 34
1, 286680, Note_on_c, 0, 65, 34
1, 286680, Note_on_c, 0, 68, 41
1, 286800, Tempo, 1000000
1, 286860, Note_on_c, 0, 68, 0
1, 286860, Note_on_c, 0, 62, 0
1, 286860, Note_on_c, 0, 65, 0
1, 286860, Note_on_c, 0, 57, 0
1, 286920, Note_on_c, 0, 57, 27
1, 286920, Note_on_c, 0, 62, 27
1, 286920, Note_on_c, 0, 65, 27
1, 286920, Note_on_c, 0, 68, 32
1, 287010, Note_on_c, 0, 68, 0
1, 287010, Note_on_c, 0, 62, 0
1, 287010, Note_on_c, 0, 65, 0
1, 287010, Note_on_c, 0, 57, 0
1, 287040, Note_on_c, 0, 57, 29
1, 287040, Note_on_c, 0, 62, 29
1, 287040, Note_on_c, 0, 65, 29
1, 287040, Note_on_c, 0, 68, 35
1, 287220, Note_on_c, 0, 68, 0
1, 287220, Note_on_c, 0, 62, 0
1, 287220, Note_on_c, 0, 65, 0
1, 287220, Note_on_c, 0, 57, 0
1, 287280, Tempo, 1043478
1, 287280, Note_on_c, 0, 45, 0
1, 287280, Note_on_c, 0, 57, 27
1, 287280, Note_on_c, 0, 62, 27
1, 287280, Note_on_c, 0, 65, 27
1, 287280, Note_on_c, 0, 68, 32
1, 287280, Note_on_c, 0, 53, 39
1, 287460, Note_on_c, 0, 68, 0
1, 287460, Note_on_c, 0, 65, 0
1, 287460, Note_on_c, 0, 57, 0
1, 287460, Note_on_c, 0, 62, 0
1, 287496, Note_on_c, 0, 53, 0
1, 287520, Note_on_c, 0, 50, 45
1, 287535, Control_c, 0, 64, 0
1, 287594, Control_c, 0, 64, 127
1, 287880, Note_on_c, 0, 50, 0
1, 287880, Note_on_c, 0, 47, 37
1, 288000, Tempo, 1081081
1, 288000, Note_on_c, 0, 47, 0
1, 288000, Note_on_c, 0, 45, 42
1, 288000, Control_c, 0, 64, 0
1, 288032, Control_c, 0, 64, 127
1, 288120, Note_on_c, 0, 57, 30
1, 288120, Note_on_c, 0, 61, 30
1, 288120, Note_on_c, 0, 64, 30
1, 288120, Note_on_c, 0, 69, 36
1, 288240, Tempo, 1000000
1, 288300, Note_on_c, 0, 69, 0
1, 288300, Note_on_c, 0, 61, 0
1, 288300, Note_on_c, 0, 64, 0
1, 288300, Note_on_c, 0, 57, 0
1, 288360, Note_on_c, 0, 57, 23
1, 288360, Note_on_c, 0, 61, 23
1, 288360, Note_on_c, 0, 64, 23
1, 288360, Note_on_c, 0, 69, 27
1, 288450, Note_on_c, 0, 69, 0
1, 288450, Note_on_c, 0, 61, 0
1, 288450, Note_on_c, 0, 64, 0
1, 288450, Note_on_c, 0, 57, 0
1, 288480, Note_on_c, 0, 57, 25
1, 288480, Note_on_c, 0, 61, 25
1, 288480, Note_on_c, 0, 64, 25
1, 288480, Note_on_c, 0, 69, 30
1, 288660, Note_on_c, 0, 69, 0
1, 288660, Note_on_c, 0, 61, 0
1, 288660, Note_on_c, 0, 64, 0
1, 288660, Note_on_c, 0, 57, 0
1, 288720, Tempo, 1043478
1, 288720, Note_on_c, 0, 45, 0
1, 288720, Note_on_c, 0, 57, 23
1, 288720, Note_on_c, 0, 61, 23
1, 288720, Note_on_c, 0, 64, 23
1, 288720, Note_on_c, 0, 69, 27
1, 288720, Note_on_c, 0, 33, 31
1, 288900, Note_on_c, 0, 69, 0
1, 288900, Note_on_c, 0, 64, 0
1, 288900, Note_on_c, 0, 57, 0
1, 288900, Note_on_c, 0, 61, 0
1, 288936, Note_on_c, 0, 33, 0
1, 288960, Note_on_c, 0, 35, 37
1, 288975, Control_c, 0, 64, 0
1, 289034, Control_c, 0, 64, 127
1, 289176, Note_on_c, 0, 35, 0
1, 289200, Note_on_c, 0, 32, 34
1, 289416, Note_on_c, 0, 32, 0
1, 289440, Tempo, 1081081
1, 289440, Note_on_c, 0, 33, 37
1, 289440, Control_c, 0, 64, 0
1, 289472, Control_c, 0, 64, 127
1, 289560, Note_on_c, 0, 58, 23
1, 289560, Note_on_c, 0, 61, 23
1, 289560, Note_on_c, 0, 64, 28
1, 289560, Note_on_c, 0, 67, 34
1, 289680, Tempo, 1000000
1, 289740, Note_on_c, 0, 67, 0
1, 289740, Note_on_c, 0, 61, 0
1, 289740, Note_on_c, 0, 64, 0
1, 289740, Note_on_c, 0, 58, 0
1, 289800, Note_on_c, 0, 58, 18
1, 289800, Note_on_c, 0, 61, 18
1, 289800, Note_on_c, 0, 64, 22
1, 289800, Note_on_c, 0, 67, 26
1, 289890, Note_on_c, 0, 67, 0
1, 289890, Note_on_c, 0, 61, 0
1, 289890, Note_on_c, 0, 64, 0
1, 289890, Note_on_c, 0, 58, 0
1, 289920, Note_on_c, 0, 58, 20
1, 289920, Note_on_c, 0, 61, 20
1, 289920, Note_on_c, 0, 64, 24
1, 289920, Note_on_c, 0, 67, 29
1, 290100, Note_on_c, 0, 67, 0
1, 290100, Note_on_c, 0, 61, 0
1, 290100, Note_on_c, 0, 64, 0
1, 290100, Note_on_c, 0, 58, 0
1, 290160, Tempo, 1043478
1, 290160, Note_on_c, 0, 33, 0
1, 290160, Note_on_c, 0, 58, 18
1, 290160, Note_on_c, 0, 61, 18
1, 290160, Note_on_c, 0, 64, 22
1, 290160, Note_on_c, 0, 67, 26
1, 290160, Note_on_c, 0, 37, 36
1, 290340, Note_on_c, 0, 37, 0
1, 290340, Note_on_c, 0, 64, 0
1, 290340, Note_on_c, 0, 58, 0
1, 290340, Note_on_c, 0, 61, 0
1, 290340, Note_on_c, 0, 67, 0
1, 290340, Note_on_c, 0, 40, 28
1, 290400, Note_on_c, 0, 40, 0
1, 290400, Note_on_c, 0, 43, 40
1, 290415, Control_c, 0, 64, 0
1, 290474, Control_c, 0, 64, 127
1, 290616, Note_on_c, 0, 43, 0
1, 290640, Note_on_c, 0, 46, 32
1, 290856, Note_on_c, 0, 46, 0
1, 290880, Tempo, 1081081
1, 290880, Note_on_c, 0, 33, 35
1, 290880, Control_c, 0, 64, 0
1, 290912, Control_c, 0, 64, 127
1, 291000, Note_on_c, 0, 57, 22
1, 291000, Note_on_c, 0, 62, 27
1, 291000, Note_on_c, 0, 66, 32
1, 291120, Tempo, 1000000
1, 291180, Note_on_c, 0, 66, 0
1, 291180, Note_on_c, 0, 62, 0
1, 291180, Note_on_c, 0, 57, 0
1, 291240, Note_on_c, 0, 57, 17
1, 291240, Note_on_c, 0, 62, 21
1, 291240, Note_on_c, 0, 66, 24
1, 291330, Note_on_c, 0, 66, 0
1, 291330, Note_on_c, 0, 62, 0
1, 291330, Note_on_c, 0, 57, 0
1, 291360, Note_on_c, 0, 57, 19
1, 291360, Note_on_c, 0, 62, 23
1, 291360, Note_on_c, 0, 66, 27
1, 291540, Note_on_c, 0, 66, 0
1, 291540, Note_on_c, 0, 62, 0
1, 291540, Note_on_c, 0, 57, 0
1, 291600, Tempo, 1043478
1, 291600, Note_on_c, 0, 33, 0
1, 291600, Note_on_c, 0, 57, 17
1, 291600, Note_on_c, 0, 62, 21
1, 291600, Note_on_c, 0, 66, 24
1, 291600, Note_on_c, 0, 33, 28
1, 291780, Note_on_c, 0, 66, 0
1, 291780, Note_on_c, 0, 57, 0
1, 291780, Note_on_c, 0, 62, 0
1, 291816, Note_on_c, 0, 33, 0
1, 291840, Tempo, 1071429
1, 291840, Note_on_c, 0, 35, 33
1, 291855, Control_c, 0, 64, 0
1, 291914, Control_c, 0, 64, 127
1, 292056, Note_on_c, 0, 35, 0
1, 292080, Note_on_c, 0, 32, 30
1, 292296, Note_on_c, 0, 32, 0
1, 292320, Tempo, 1176471
1, 292320, Note_on_c, 0, 33, 33
1, 292320, Control_c, 0, 64, 0
1, 292352, Control_c, 0, 64, 127
1, 292440, Note_on_c, 0, 56, 25
1, 292440, Note_on_c, 0, 59, 25
1, 292440, Note_on_c, 0, 62, 25
1, 292440, Note_on_c, 0, 65, 30
1, 292560, Tempo, 1081081
1, 292620, Note_on_c, 0, 65, 0
1, 292620, Note_on_c, 0, 59, 0
1, 292620, Note_on_c, 0, 62, 0
1, 292620, Note_on_c, 0, 56, 0
1, 292680, Note_on_c, 0, 56, 20
1, 292680, Note_on_c, 0, 59, 20
1, 292680, Note_on_c, 0, 62, 20
1, 292680, Note_on_c, 0, 65, 23
1, 292770, Note_on_c, 0, 65, 0
1, 292770, Note_on_c, 0, 59, 0
1, 292770, Note_on_c, 0, 62, 0
1, 292770, Note_on_c, 0, 56, 0
1, 292800, Note_on_c, 0, 56, 21
1, 292800, Note_on_c, 0, 59, 21
1, 292800, Note_on_c, 0, 62, 21
1, 292800, Note_on_c, 0, 65, 26
1, 292980, Note_on_c, 0, 65, 0
1, 292980, Note_on_c, 0, 59, 0
1, 292980, Note_on_c, 0, 62, 0
1, 292980, Note_on_c, 0, 56, 0
1, 293040, Tempo, 1142857
1, 293040, Note_on_c, 0, 33, 0
1, 293040, Note_on_c, 0, 56, 19
1, 293040, Note_on_c, 0, 59, 19
1, 293040, Note_on_c, 0, 62, 19
1, 293040, Note_on_c, 0, 65, 23
1, 293040, Note_on_c, 0, 41, 32
1, 293220, Note_on_c, 0, 41, 0
1, 293220, Note_on_c, 0, 62, 0
1, 293220, Note_on_c, 0, 56, 0
1, 293220, Note_on_c, 0, 59, 0
1, 293220, Note_on_c, 0, 65, 0
1, 293220, Note_on_c, 0, 40, 27
1, 293236, Tempo, 1153846
1, 293266, Note_on_c, 0, 38, 31
1, 293274, Tempo, 1071429
1, 293280, Note_on_c, 0, 40, 0
1, 293294, Tempo, 1081081
1, 293295, Control_c, 0, 64, 0
1, 293296, Note_on_c, 0, 38, 0
1, 293296, Note_on_c, 0, 40, 24
1, 293313, Tempo, 1090909
1, 293326, Note_on_c, 0, 40, 0
1, 293326, Note_on_c, 0, 38, 31
1, 293332, Tempo, 1100917
1, 293351, Tempo, 1111111
1, 293354, Control_c, 0, 64, 127
1, 293356, Note_on_c, 0, 38, 0
1, 293356, Note_on_c, 0, 40, 25
1, 293370, Tempo, 1121495
1, 293386, Note_on_c, 0, 40, 0
1, 293386, Note_on_c, 0, 38, 31
1, 293390, Tempo, 1132075
1, 293409, Tempo, 1142857
1, 293426, Note_on_c, 0, 38, 0
1, 293426, Note_on_c, 0, 40, 26
1, 293428, Tempo, 1165049
1, 293430, Note_on_c, 0, 40, 0
1, 293466, Tempo, 1212121
1, 293466, Note_on_c, 0, 38, 31
1, 293506, Note_on_c, 0, 38, 0
1, 293520, Note_on_c, 0, 37, 25
1, 293524, Tempo, 1224490
1, 293535, Control_c, 0, 64, 0
1, 293562, Tempo, 1237113
1, 293583, Control_c, 0, 64, 127
1, 293601, Tempo, 1250000
1, 293640, Tempo, 1558442
1, 293700, Note_on_c, 0, 37, 0
1, 293700, Note_on_c, 0, 35, 23
1, 293760, Tempo, 1333333
1, 293760, Note_on_c, 0, 35, 0
1, 293760, Note_on_c, 0, 33, 33
1, 293766, Control_c, 0, 64, 0
1, 293863, Control_c, 0, 64, 127
1, 293880, Tempo, 1250000
1, 293880, Note_on_c, 0, 52, 22
1, 293880, Note_on_c, 0, 57, 22
1, 293880, Note_on_c, 0, 61, 22
1, 293880, Note_on_c, 0, 64, 27
1, 294000, Tempo, 1121495
1, 294060, Note_on_c, 0, 64, 0
1, 294060, Note_on_c, 0, 57, 0
1, 294060, Note_on_c, 0, 61, 0
1, 294060, Note_on_c, 0, 52, 0
1, 294120, Note_on_c, 0, 52, 17
1, 294120, Note_on_c, 0, 57, 17
1, 294120, Note_on_c, 0, 61, 17
1, 294120, Note_on_c, 0, 64, 19
1, 294210, Note_on_c, 0, 64, 0
1, 294210, Note_on_c, 0, 57, 0
1, 294210, Note_on_c, 0, 61, 0
1, 294210, Note_on_c, 0, 52, 0
1, 294240, Note_on_c, 0, 33, 0
1, 294240, Note_on_c, 0, 52, 20
1, 294240, Note_on_c, 0, 57, 20
1, 294240, Note_on_c, 0, 61, 20
1, 294240, Note_on_c, 0, 64, 24
1, 294240, Note_on_c, 0, 37, 31
1, 294420, Note_on_c, 0, 64, 0
1, 294420, Note_on_c, 0, 61, 0
1, 294420, Note_on_c, 0, 52, 0
1, 294420, Note_on_c, 0, 57, 0
1, 294480, Tempo, 1212121
1, 294480, Note_on_c, 0, 52, 18
1, 294480, Note_on_c, 0, 57, 18
1, 294480, Note_on_c, 0, 61, 18
1, 294480, Note_on_c, 0, 64, 21
1, 294660, Note_on_c, 0, 64, 0
1, 294660, Note_on_c, 0, 57, 0
1, 294660, Note_on_c, 0, 61, 0
1, 294660, Note_on_c, 0, 52, 0
1, 294720, Tempo, 1290323
1, 294720, Note_on_c, 0, 37, 0
1, 294720, Note_on_c, 0, 52, 19
1, 294720, Note_on_c, 0, 57, 19
1, 294720, Note_on_c, 0, 61, 23
1, 294720, Note_on_c, 0, 40, 29
1, 294900, Note_on_c, 0, 61, 0
1, 294900, Note_on_c, 0, 52, 0
1, 294900, Note_on_c, 0, 57, 0
1, 294960, Tempo, 1764706
1, 294960, Note_on_c, 0, 52, 17
1, 294960, Note_on_c, 0, 57, 17
1, 294960, Note_on_c, 0, 61, 20
1, 295140, Note_on_c, 0, 61, 0
1, 295140, Note_on_c, 0, 57, 0
1, 295140, Note_on_c, 0, 52, 0
1, 295200, Note_on_c, 0, 40, 0
1, 295200, Note_on_c, 0, 49, 16
1, 295200, Note_on_c, 0, 52, 16
1, 295200, Note_on_c, 0, 57, 19
1, 295200, Note_on_c, 0, 33, 18
1, 295200, Note_on_c, 0, 37, 18
1, 295200, Note_on_c, 0, 40, 18
1, 295200, Note_on_c, 0, 45, 21
1, 296640, Note_on_c, 0, 45, 0
1, 296640, Note_on_c, 0, 37, 0
1, 296640, Note_on_c, 0, 52, 0
1, 296640, Note_on_c, 0, 57, 0
1, 296640, Note_on_c, 0, 49, 0
1, 296640, Note_on_c, 0, 40, 0
1, 296640, Note_on_c, 0, 33, 0
1, 297840, Control_c, 0, 64, 0
1, 297840, End_track
0, 0, End_of_file
