0, 0, Header, 0, 1, 480
1, 0, Start_track
1, 0, Title_t, "Kinderszenen Opus 15"
1, 0, Title_t, "Wichtige Begebenheit"
1, 0, Copyright_t, "Copyright © 1997 von Bernd Krüger."
1, 0, Text_t, "Robert Schumann"
1, 0, Text_t, "Fertiggestelle am 6.12.97\012"
1, 0, Text_t, "Korrekturen am 4.9.98\012"
1, 0, Text_t, "Anpassungen an Digitalpiano\012"
1, 0, Text_t, "Update am 16.6.99\012"
1, 0, Text_t, "Update am 9.7.99\012"
1, 0, Text_t, "Normierung: 23.12.2002\012"
1, 0, Text_t, "Update am 9.10.2008\012"
1, 0, Text_t, "Update am 26.3.14 (keine Änderungen)\012"
1, 0, Text_t, "Dauer: 0:47 Minuten\012"
1, 0, Time_signature, 3, 2, 24, 8
1, 0, Key_signature, 3, "major"
1, 0, Tempo, 417072
1, 0, Marker_t, "Great Adventure"
1, 0, Program_c, 0, 0
1, 0, Control_c, 0, 7, 100
1, 0, Control_c, 0, 10, 64
1, 0, Control_c, 0, 91, 127
1, 0, Text_t, "bdca426d104a26ac9dcb070447587523"
1, 0, Program_c, 0, 0
1, 0, Control_c, 0, 7, 100
1, 0, Control_c, 0, 10, 64
1, 0, Control_c, 0, 64, 0
1, 959, Control_c, 0, 91, 127
1, 959, Control_c, 0, 91, 127
1, 960, Tempo, 485712
1, 960, Note_on_c, 0, 73, 90
1, 960, Note_on_c, 0, 81, 100
1, 960, Note_on_c, 0, 76, 90
1, 960, Note_on_c, 0, 57, 77
1, 960, Note_on_c, 0, 45, 69
1, 967, Control_c, 0, 64, 127
1, 1080, Note_on_c, 0, 45, 0
1, 1080, Note_on_c, 0, 57, 0
1, 1200, Note_on_c, 0, 61, 77
1, 1200, Note_on_c, 0, 49, 69
1, 1320, Note_on_c, 0, 49, 0
1, 1320, Note_on_c, 0, 61, 0
1, 1440, Note_on_c, 0, 76, 0
1, 1440, Note_on_c, 0, 81, 0
1, 1440, Note_on_c, 0, 73, 0
1, 1440, Note_on_c, 0, 71, 90
1, 1440, Note_on_c, 0, 80, 100
1, 1440, Note_on_c, 0, 76, 90
1, 1440, Note_on_c, 0, 64, 81
1, 1440, Note_on_c, 0, 52, 72
1, 1451, Control_c, 0, 64, 0
1, 1520, Control_c, 0, 64, 127
1, 1800, Note_on_c, 0, 52, 0
1, 1800, Note_on_c, 0, 76, 0
1, 1800, Note_on_c, 0, 71, 0
1, 1800, Note_on_c, 0, 80, 0
1, 1800, Note_on_c, 0, 64, 0
1, 1800, Note_on_c, 0, 69, 81
1, 1800, Note_on_c, 0, 75, 81
1, 1800, Note_on_c, 0, 78, 90
1, 1800, Note_on_c, 0, 60, 68
1, 1800, Note_on_c, 0, 48, 61
1, 1806, Control_c, 0, 64, 0
1, 1920, Note_on_c, 0, 48, 0
1, 1920, Note_on_c, 0, 78, 0
1, 1920, Note_on_c, 0, 69, 0
1, 1920, Note_on_c, 0, 75, 0
1, 1920, Note_on_c, 0, 60, 0
1, 1920, Note_on_c, 0, 76, 94
1, 1920, Note_on_c, 0, 73, 84
1, 1920, Note_on_c, 0, 68, 84
1, 1920, Note_on_c, 0, 49, 65
1, 1920, Note_on_c, 0, 61, 73
1, 2069, Control_c, 0, 64, 127
1, 2380, Note_on_c, 0, 61, 0
1, 2380, Note_on_c, 0, 68, 0
1, 2380, Note_on_c, 0, 76, 0
1, 2380, Note_on_c, 0, 73, 0
1, 2380, Note_on_c, 0, 49, 0
1, 2400, Note_on_c, 0, 69, 79
1, 2400, Note_on_c, 0, 73, 79
1, 2400, Note_on_c, 0, 78, 88
1, 2400, Note_on_c, 0, 45, 63
1, 2400, Note_on_c, 0, 57, 71
1, 2407, Control_c, 0, 64, 0
1, 2463, Control_c, 0, 64, 127
1, 2860, Note_on_c, 0, 57, 0
1, 2860, Note_on_c, 0, 78, 0
1, 2860, Note_on_c, 0, 69, 0
1, 2860, Note_on_c, 0, 73, 0
1, 2860, Note_on_c, 0, 45, 0
1, 2880, Tempo, 479616
1, 2880, Note_on_c, 0, 75, 89
1, 2880, Note_on_c, 0, 66, 80
1, 2880, Note_on_c, 0, 71, 80
1, 2880, Control_c, 0, 64, 0
1, 2880, Note_on_c, 0, 59, 70
1, 2880, Note_on_c, 0, 47, 63
1, 2972, Control_c, 0, 64, 127
1, 3340, Note_on_c, 0, 47, 0
1, 3340, Note_on_c, 0, 71, 0
1, 3340, Note_on_c, 0, 75, 0
1, 3340, Note_on_c, 0, 66, 0
1, 3340, Note_on_c, 0, 59, 0
1, 3360, Note_on_c, 0, 68, 81
1, 3360, Note_on_c, 0, 71, 81
1, 3360, Note_on_c, 0, 76, 91
1, 3360, Note_on_c, 0, 52, 68
1, 3360, Note_on_c, 0, 40, 61
1, 3367, Control_c, 0, 64, 0
1, 3459, Control_c, 0, 64, 127
1, 3600, Tempo, 464145
1, 3685, Control_c, 0, 64, 0
1, 3720, Note_on_c, 0, 40, 0
1, 3720, Note_on_c, 0, 76, 0
1, 3720, Note_on_c, 0, 68, 0
1, 3720, Note_on_c, 0, 71, 0
1, 3720, Note_on_c, 0, 52, 0
1, 3840, Tempo, 471772
1, 3840, Note_on_c, 0, 74, 91
1, 3840, Note_on_c, 0, 71, 81
1, 3840, Note_on_c, 0, 66, 91
1, 3840, Note_on_c, 0, 54, 69
1, 3840, Note_on_c, 0, 42, 62
1, 3896, Control_c, 0, 64, 127
1, 3960, Note_on_c, 0, 42, 0
1, 3960, Note_on_c, 0, 66, 0
1, 3960, Note_on_c, 0, 54, 0
1, 4080, Tempo, 494030
1, 4080, Note_on_c, 0, 64, 91
1, 4080, Note_on_c, 0, 56, 69
1, 4080, Note_on_c, 0, 44, 62
1, 4200, Note_on_c, 0, 44, 0
1, 4200, Note_on_c, 0, 64, 0
1, 4200, Note_on_c, 0, 56, 0
1, 4320, Tempo, 477631
1, 4320, Note_on_c, 0, 71, 0
1, 4320, Note_on_c, 0, 74, 0
1, 4320, Note_on_c, 0, 64, 82
1, 4320, Note_on_c, 0, 73, 92
1, 4320, Note_on_c, 0, 69, 82
1, 4320, Note_on_c, 0, 57, 73
1, 4320, Note_on_c, 0, 45, 65
1, 4331, Control_c, 0, 64, 0
1, 4423, Control_c, 0, 64, 127
1, 4680, Note_on_c, 0, 45, 0
1, 4680, Note_on_c, 0, 69, 0
1, 4680, Note_on_c, 0, 64, 0
1, 4680, Note_on_c, 0, 73, 0
1, 4680, Note_on_c, 0, 57, 0
1, 4680, Note_on_c, 0, 62, 78
1, 4680, Note_on_c, 0, 68, 78
1, 4680, Note_on_c, 0, 71, 87
1, 4680, Note_on_c, 0, 53, 65
1, 4680, Note_on_c, 0, 41, 58
1, 4691, Control_c, 0, 64, 0
1, 4800, Note_on_c, 0, 41, 0
1, 4800, Note_on_c, 0, 71, 0
1, 4800, Note_on_c, 0, 62, 0
1, 4800, Note_on_c, 0, 68, 0
1, 4800, Note_on_c, 0, 53, 0
1, 4800, Note_on_c, 0, 69, 87
1, 4800, Note_on_c, 0, 66, 78
1, 4800, Note_on_c, 0, 61, 78
1, 4800, Note_on_c, 0, 42, 58
1, 4800, Note_on_c, 0, 54, 65
1, 4949, Control_c, 0, 64, 127
1, 5260, Note_on_c, 0, 54, 0
1, 5260, Note_on_c, 0, 61, 0
1, 5260, Note_on_c, 0, 69, 0
1, 5260, Note_on_c, 0, 66, 0
1, 5260, Note_on_c, 0, 42, 0
1, 5280, Tempo, 485712
1, 5280, Note_on_c, 0, 62, 81
1, 5280, Note_on_c, 0, 66, 81
1, 5280, Note_on_c, 0, 71, 90
1, 5280, Note_on_c, 0, 38, 61
1, 5280, Note_on_c, 0, 50, 68
1, 5291, Control_c, 0, 64, 0
1, 5400, Control_c, 0, 64, 127
1, 5740, Note_on_c, 0, 50, 0
1, 5740, Note_on_c, 0, 71, 0
1, 5740, Note_on_c, 0, 62, 0
1, 5740, Note_on_c, 0, 66, 0
1, 5740, Note_on_c, 0, 38, 0
1, 5760, Tempo, 481657
1, 5760, Note_on_c, 0, 68, 87
1, 5760, Note_on_c, 0, 59, 78
1, 5760, Note_on_c, 0, 64, 78
1, 5760, Control_c, 0, 64, 0
1, 5760, Note_on_c, 0, 52, 64
1, 5760, Note_on_c, 0, 40, 57
1, 5873, Control_c, 0, 64, 127
1, 6220, Note_on_c, 0, 40, 0
1, 6220, Note_on_c, 0, 64, 0
1, 6220, Note_on_c, 0, 68, 0
1, 6220, Note_on_c, 0, 59, 0
1, 6220, Note_on_c, 0, 52, 0
1, 6240, Note_on_c, 0, 61, 78
1, 6240, Note_on_c, 0, 64, 78
1, 6240, Note_on_c, 0, 69, 87
1, 6240, Note_on_c, 0, 45, 64
1, 6240, Note_on_c, 0, 33, 57
1, 6247, Control_c, 0, 64, 0
1, 6311, Control_c, 0, 64, 127
1, 6501, Control_c, 0, 64, 0
1, 6600, Note_on_c, 0, 33, 0
1, 6600, Note_on_c, 0, 69, 0
1, 6600, Note_on_c, 0, 61, 0
1, 6600, Note_on_c, 0, 64, 0
1, 6600, Note_on_c, 0, 45, 0
1, 6720, Tempo, 477631
1, 6720, Note_on_c, 0, 64, 76
1, 6720, Note_on_c, 0, 61, 76
1, 6720, Note_on_c, 0, 69, 85
1, 6720, Note_on_c, 0, 45, 65
1, 6720, Note_on_c, 0, 33, 58
1, 6776, Control_c, 0, 64, 127
1, 6840, Note_on_c, 0, 33, 0
1, 6840, Note_on_c, 0, 45, 0
1, 6960, Note_on_c, 0, 37, 58
1, 6960, Note_on_c, 0, 49, 65
1, 7080, Note_on_c, 0, 49, 0
1, 7080, Note_on_c, 0, 37, 0
1, 7200, Note_on_c, 0, 69, 0
1, 7200, Note_on_c, 0, 61, 0
1, 7200, Note_on_c, 0, 64, 0
1, 7200, Note_on_c, 0, 59, 76
1, 7200, Note_on_c, 0, 64, 85
1, 7200, Note_on_c, 0, 68, 85
1, 7200, Control_c, 0, 64, 0
1, 7200, Note_on_c, 0, 40, 61
1, 7200, Note_on_c, 0, 52, 68
1, 7274, Control_c, 0, 64, 127
1, 7560, Note_on_c, 0, 52, 0
1, 7560, Note_on_c, 0, 68, 0
1, 7560, Note_on_c, 0, 59, 0
1, 7560, Note_on_c, 0, 64, 0
1, 7560, Note_on_c, 0, 40, 0
1, 7560, Note_on_c, 0, 63, 76
1, 7560, Note_on_c, 0, 57, 68
1, 7560, Note_on_c, 0, 66, 76
1, 7560, Note_on_c, 0, 36, 51
1, 7560, Note_on_c, 0, 48, 57
1, 7564, Control_c, 0, 64, 0
1, 7680, Tempo, 485712
1, 7680, Note_on_c, 0, 48, 0
1, 7680, Note_on_c, 0, 66, 0
1, 7680, Note_on_c, 0, 63, 0
1, 7680, Note_on_c, 0, 57, 0
1, 7680, Note_on_c, 0, 36, 0
1, 7680, Note_on_c, 0, 56, 71
1, 7680, Note_on_c, 0, 64, 79
1, 7680, Note_on_c, 0, 61, 71
1, 7680, Note_on_c, 0, 37, 55
1, 7680, Note_on_c, 0, 49, 62
1, 7777, Control_c, 0, 64, 127
1, 8140, Note_on_c, 0, 49, 0
1, 8140, Note_on_c, 0, 61, 0
1, 8140, Note_on_c, 0, 56, 0
1, 8140, Note_on_c, 0, 64, 0
1, 8140, Note_on_c, 0, 37, 0
1, 8160, Note_on_c, 0, 61, 66
1, 8160, Note_on_c, 0, 57, 66
1, 8160, Note_on_c, 0, 66, 74
1, 8160, Note_on_c, 0, 33, 54
1, 8160, Note_on_c, 0, 45, 60
1, 8176, Control_c, 0, 64, 0
1, 8320, Control_c, 0, 64, 127
1, 8620, Note_on_c, 0, 45, 0
1, 8620, Note_on_c, 0, 66, 0
1, 8620, Note_on_c, 0, 61, 0
1, 8620, Note_on_c, 0, 57, 0
1, 8620, Note_on_c, 0, 33, 0
1, 8640, Tempo, 479616
1, 8640, Note_on_c, 0, 54, 67
1, 8640, Note_on_c, 0, 63, 75
1, 8640, Note_on_c, 0, 59, 67
1, 8640, Control_c, 0, 64, 0
1, 8640, Note_on_c, 0, 35, 53
1, 8640, Note_on_c, 0, 47, 59
1, 8704, Control_c, 0, 64, 127
1, 9100, Note_on_c, 0, 47, 0
1, 9100, Note_on_c, 0, 59, 0
1, 9100, Note_on_c, 0, 54, 0
1, 9100, Note_on_c, 0, 63, 0
1, 9100, Note_on_c, 0, 35, 0
1, 9120, Note_on_c, 0, 56, 69
1, 9120, Note_on_c, 0, 59, 69
1, 9120, Note_on_c, 0, 64, 77
1, 9120, Note_on_c, 0, 28, 51
1, 9120, Note_on_c, 0, 40, 57
1, 9139, Control_c, 0, 64, 0
1, 9226, Control_c, 0, 64, 127
1, 9360, Tempo, 464145
1, 9431, Control_c, 0, 64, 0
1, 9480, Note_on_c, 0, 40, 0
1, 9480, Note_on_c, 0, 64, 0
1, 9480, Note_on_c, 0, 56, 0
1, 9480, Note_on_c, 0, 59, 0
1, 9480, Note_on_c, 0, 28, 0
1, 9600, Tempo, 471772
1, 9600, Note_on_c, 0, 62, 74
1, 9600, Note_on_c, 0, 59, 66
1, 9600, Note_on_c, 0, 54, 74
1, 9600, Note_on_c, 0, 42, 54
1, 9600, Note_on_c, 0, 30, 48
1, 9621, Control_c, 0, 64, 127
1, 9720, Note_on_c, 0, 30, 0
1, 9720, Note_on_c, 0, 54, 0
1, 9720, Note_on_c, 0, 42, 0
1, 9840, Tempo, 494030
1, 9840, Note_on_c, 0, 52, 74
1, 9840, Note_on_c, 0, 32, 48
1, 9840, Note_on_c, 0, 44, 54
1, 9960, Note_on_c, 0, 44, 0
1, 9960, Note_on_c, 0, 52, 0
1, 9960, Note_on_c, 0, 32, 0
1, 10080, Tempo, 477631
1, 10080, Note_on_c, 0, 59, 0
1, 10080, Note_on_c, 0, 62, 0
1, 10080, Note_on_c, 0, 52, 68
1, 10080, Note_on_c, 0, 57, 76
1, 10080, Note_on_c, 0, 61, 76
1, 10080, Control_c, 0, 64, 0
1, 10080, Note_on_c, 0, 33, 57
1, 10080, Note_on_c, 0, 45, 57
1, 10183, Control_c, 0, 64, 127
1, 10440, Note_on_c, 0, 45, 0
1, 10440, Note_on_c, 0, 61, 0
1, 10440, Note_on_c, 0, 52, 0
1, 10440, Note_on_c, 0, 57, 0
1, 10440, Note_on_c, 0, 33, 0
1, 10440, Note_on_c, 0, 56, 60
1, 10440, Note_on_c, 0, 50, 60
1, 10440, Note_on_c, 0, 59, 67
1, 10440, Note_on_c, 0, 29, 43
1, 10440, Note_on_c, 0, 41, 48
1, 10445, Control_c, 0, 64, 0
1, 10560, Note_on_c, 0, 41, 0
1, 10560, Note_on_c, 0, 59, 0
1, 10560, Note_on_c, 0, 56, 0
1, 10560, Note_on_c, 0, 50, 0
1, 10560, Note_on_c, 0, 29, 0
1, 10560, Note_on_c, 0, 49, 60
1, 10560, Note_on_c, 0, 57, 67
1, 10560, Note_on_c, 0, 54, 60
1, 10560, Note_on_c, 0, 30, 43
1, 10560, Note_on_c, 0, 42, 48
1, 10789, Control_c, 0, 64, 127
1, 11020, Note_on_c, 0, 42, 0
1, 11020, Note_on_c, 0, 54, 0
1, 11020, Note_on_c, 0, 49, 0
1, 11020, Note_on_c, 0, 57, 0
1, 11020, Note_on_c, 0, 30, 0
1, 11040, Note_on_c, 0, 54, 63
1, 11040, Note_on_c, 0, 50, 63
1, 11040, Note_on_c, 0, 59, 71
1, 11040, Note_on_c, 0, 26, 44
1, 11040, Note_on_c, 0, 38, 49
1, 11048, Control_c, 0, 64, 0
1, 11229, Control_c, 0, 64, 127
1, 11500, Note_on_c, 0, 38, 0
1, 11500, Note_on_c, 0, 59, 0
1, 11500, Note_on_c, 0, 54, 0
1, 11500, Note_on_c, 0, 50, 0
1, 11500, Note_on_c, 0, 26, 0
1, 11520, Tempo, 485712
1, 11520, Note_on_c, 0, 47, 60
1, 11520, Note_on_c, 0, 56, 67
1, 11520, Note_on_c, 0, 52, 60
1, 11520, Control_c, 0, 64, 0
1, 11520, Note_on_c, 0, 28, 41
1, 11520, Note_on_c, 0, 40, 46
1, 11668, Control_c, 0, 64, 127
1, 11980, Note_on_c, 0, 40, 0
1, 11980, Note_on_c, 0, 52, 0
1, 11980, Note_on_c, 0, 47, 0
1, 11980, Note_on_c, 0, 56, 0
1, 11980, Note_on_c, 0, 28, 0
1, 12000, Note_on_c, 0, 49, 56
1, 12000, Note_on_c, 0, 52, 56
1, 12000, Note_on_c, 0, 57, 63
1, 12000, Note_on_c, 0, 33, 36
1, 12000, Note_on_c, 0, 40, 41
1, 12021, Control_c, 0, 64, 0
1, 12162, Control_c, 0, 64, 127
1, 12304, Control_c, 0, 64, 0
1, 12360, Note_on_c, 0, 40, 0
1, 12360, Note_on_c, 0, 57, 0
1, 12360, Note_on_c, 0, 49, 0
1, 12360, Note_on_c, 0, 52, 0
1, 12360, Note_on_c, 0, 33, 0
1, 12480, Tempo, 455789
1, 12480, Note_on_c, 0, 57, 66
1, 12480, Note_on_c, 0, 61, 66
1, 12480, Note_on_c, 0, 64, 66
1, 12480, Note_on_c, 0, 69, 74
1, 12480, Note_on_c, 0, 33, 67
1, 12480, Note_on_c, 0, 45, 75
1, 12600, Note_on_c, 0, 45, 0
1, 12600, Note_on_c, 0, 33, 0
1, 12628, Control_c, 0, 64, 127
1, 12720, Note_on_c, 0, 49, 75
1, 12840, Note_on_c, 0, 49, 0
1, 12889, Control_c, 0, 64, 0
1, 12960, Tempo, 455789
1, 12960, Note_on_c, 0, 69, 0
1, 12960, Note_on_c, 0, 57, 0
1, 12960, Note_on_c, 0, 61, 0
1, 12960, Note_on_c, 0, 64, 0
1, 12960, Note_on_c, 0, 57, 72
1, 12960, Note_on_c, 0, 62, 72
1, 12960, Note_on_c, 0, 66, 72
1, 12960, Note_on_c, 0, 69, 80
1, 12960, Note_on_c, 0, 38, 81
1, 12960, Note_on_c, 0, 50, 91
1, 13080, Note_on_c, 0, 50, 0
1, 13080, Note_on_c, 0, 38, 0
1, 13200, Tempo, 470146
1, 13200, Note_on_c, 0, 33, 72
1, 13200, Note_on_c, 0, 45, 81
1, 13320, Note_on_c, 0, 45, 0
1, 13320, Note_on_c, 0, 33, 0
1, 13440, Tempo, 479578
1, 13440, Note_on_c, 0, 31, 72
1, 13440, Note_on_c, 0, 43, 81
1, 13560, Note_on_c, 0, 43, 0
1, 13560, Note_on_c, 0, 31, 0
1, 13680, Tempo, 489436
1, 13680, Note_on_c, 0, 30, 72
1, 13680, Note_on_c, 0, 42, 81
1, 13800, Note_on_c, 0, 42, 0
1, 13800, Note_on_c, 0, 30, 0
1, 13920, Tempo, 466454
1, 13920, Note_on_c, 0, 69, 0
1, 13920, Note_on_c, 0, 57, 0
1, 13920, Note_on_c, 0, 62, 0
1, 13920, Note_on_c, 0, 66, 0
1, 13920, Note_on_c, 0, 57, 64
1, 13920, Note_on_c, 0, 62, 64
1, 13920, Note_on_c, 0, 66, 64
1, 13920, Note_on_c, 0, 69, 72
1, 13920, Note_on_c, 0, 30, 78
1, 13920, Note_on_c, 0, 42, 87
1, 13971, Control_c, 0, 64, 127
1, 14400, Tempo, 455789
1, 14400, Note_on_c, 0, 42, 0
1, 14400, Note_on_c, 0, 62, 0
1, 14400, Note_on_c, 0, 66, 0
1, 14400, Note_on_c, 0, 57, 0
1, 14400, Note_on_c, 0, 30, 0
1, 14400, Note_on_c, 0, 69, 0
1, 14400, Note_on_c, 0, 71, 79
1, 14400, Note_on_c, 0, 62, 71
1, 14400, Note_on_c, 0, 64, 71
1, 14400, Note_on_c, 0, 67, 71
1, 14400, Control_c, 0, 64, 0
1, 14400, Note_on_c, 0, 38, 81
1, 14400, Note_on_c, 0, 50, 90
1, 14520, Note_on_c, 0, 50, 0
1, 14520, Note_on_c, 0, 38, 0
1, 14640, Tempo, 466454
1, 14640, Note_on_c, 0, 35, 70
1, 14640, Note_on_c, 0, 47, 78
1, 14760, Note_on_c, 0, 47, 0
1, 14760, Note_on_c, 0, 35, 0
1, 14880, Tempo, 473859
1, 14880, Note_on_c, 0, 33, 69
1, 14880, Note_on_c, 0, 45, 77
1, 15000, Note_on_c, 0, 45, 0
1, 15000, Note_on_c, 0, 33, 0
1, 15120, Tempo, 483442
1, 15120, Note_on_c, 0, 31, 69
1, 15120, Note_on_c, 0, 43, 77
1, 15240, Note_on_c, 0, 43, 0
1, 15240, Note_on_c, 0, 31, 0
1, 15360, Tempo, 468274
1, 15360, Note_on_c, 0, 67, 0
1, 15360, Note_on_c, 0, 71, 0
1, 15360, Note_on_c, 0, 62, 0
1, 15360, Note_on_c, 0, 64, 0
1, 15360, Note_on_c, 0, 62, 64
1, 15360, Note_on_c, 0, 64, 64
1, 15360, Note_on_c, 0, 67, 64
1, 15360, Note_on_c, 0, 71, 72
1, 15360, Note_on_c, 0, 31, 77
1, 15360, Note_on_c, 0, 43, 86
1, 15417, Control_c, 0, 64, 127
1, 15840, Tempo, 457526
1, 15840, Note_on_c, 0, 43, 0
1, 15840, Note_on_c, 0, 64, 0
1, 15840, Note_on_c, 0, 67, 0
1, 15840, Note_on_c, 0, 62, 0
1, 15840, Note_on_c, 0, 31, 0
1, 15840, Note_on_c, 0, 71, 0
1, 15840, Note_on_c, 0, 55, 55
1, 15840, Note_on_c, 0, 57, 55
1, 15840, Note_on_c, 0, 61, 55
1, 15840, Note_on_c, 0, 64, 62
1, 15840, Control_c, 0, 64, 0
1, 15840, Note_on_c, 0, 33, 78
1, 15840, Note_on_c, 0, 45, 87
1, 15960, Note_on_c, 0, 45, 0
1, 15960, Note_on_c, 0, 33, 0
1, 16080, Note_on_c, 0, 61, 0
1, 16080, Note_on_c, 0, 55, 0
1, 16080, Note_on_c, 0, 57, 0
1, 16080, Note_on_c, 0, 64, 0
1, 16080, Note_on_c, 0, 28, 69
1, 16080, Note_on_c, 0, 40, 77
1, 16200, Note_on_c, 0, 40, 0
1, 16200, Note_on_c, 0, 28, 0
1, 16320, Tempo, 473859
1, 16320, Note_on_c, 0, 55, 55
1, 16320, Note_on_c, 0, 57, 55
1, 16320, Note_on_c, 0, 61, 55
1, 16320, Note_on_c, 0, 64, 62
1, 16320, Note_on_c, 0, 26, 69
1, 16320, Note_on_c, 0, 38, 77
1, 16440, Note_on_c, 0, 38, 0
1, 16440, Note_on_c, 0, 26, 0
1, 16560, Note_on_c, 0, 61, 0
1, 16560, Note_on_c, 0, 55, 0
1, 16560, Note_on_c, 0, 57, 0
1, 16560, Note_on_c, 0, 64, 0
1, 16560, Note_on_c, 0, 25, 69
1, 16560, Note_on_c, 0, 37, 77
1, 16680, Note_on_c, 0, 37, 0
1, 16680, Note_on_c, 0, 25, 0
1, 16800, Tempo, 464648
1, 16800, Note_on_c, 0, 55, 55
1, 16800, Note_on_c, 0, 57, 55
1, 16800, Note_on_c, 0, 61, 55
1, 16800, Note_on_c, 0, 64, 62
1, 16800, Note_on_c, 0, 25, 75
1, 16800, Note_on_c, 0, 37, 84
1, 16858, Control_c, 0, 64, 127
1, 17040, Note_on_c, 0, 64, 0
1, 17040, Note_on_c, 0, 61, 0
1, 17040, Note_on_c, 0, 55, 0
1, 17040, Note_on_c, 0, 57, 0
1, 17280, Tempo, 455789
1, 17280, Note_on_c, 0, 37, 0
1, 17280, Note_on_c, 0, 25, 0
1, 17280, Note_on_c, 0, 60, 64
1, 17280, Note_on_c, 0, 62, 64
1, 17280, Note_on_c, 0, 69, 72
1, 17280, Control_c, 0, 64, 0
1, 17280, Note_on_c, 0, 38, 81
1, 17280, Note_on_c, 0, 50, 90
1, 17400, Note_on_c, 0, 50, 0
1, 17400, Note_on_c, 0, 38, 0
1, 17520, Tempo, 462856
1, 17520, Note_on_c, 0, 33, 71
1, 17520, Note_on_c, 0, 45, 79
1, 17640, Note_on_c, 0, 45, 0
1, 17640, Note_on_c, 0, 33, 0
1, 17760, Tempo, 470146
1, 17760, Note_on_c, 0, 31, 71
1, 17760, Note_on_c, 0, 43, 79
1, 17880, Note_on_c, 0, 43, 0
1, 17880, Note_on_c, 0, 31, 0
1, 18000, Note_on_c, 0, 30, 71
1, 18000, Note_on_c, 0, 42, 79
1, 18120, Note_on_c, 0, 42, 0
1, 18120, Note_on_c, 0, 30, 0
1, 18240, Tempo, 477631
1, 18240, Note_on_c, 0, 30, 76
1, 18240, Note_on_c, 0, 42, 85
1, 18297, Control_c, 0, 64, 127
1, 18720, Tempo, 446163
1, 18720, Note_on_c, 0, 42, 0
1, 18720, Note_on_c, 0, 69, 0
1, 18720, Note_on_c, 0, 60, 0
1, 18720, Note_on_c, 0, 62, 0
1, 18720, Note_on_c, 0, 30, 0
1, 18720, Note_on_c, 0, 55, 53
1, 18720, Note_on_c, 0, 60, 53
1, 18720, Note_on_c, 0, 62, 59
1, 18720, Control_c, 0, 64, 0
1, 18720, Note_on_c, 0, 31, 64
1, 18720, Note_on_c, 0, 43, 72
1, 18740, Tempo, 457213
1, 18840, Note_on_c, 0, 43, 0
1, 18840, Note_on_c, 0, 31, 0
1, 18960, Note_on_c, 0, 55, 0
1, 18960, Note_on_c, 0, 60, 0
1, 18960, Note_on_c, 0, 62, 0
1, 18960, Note_on_c, 0, 33, 66
1, 18960, Note_on_c, 0, 45, 74
1, 19080, Note_on_c, 0, 45, 0
1, 19080, Note_on_c, 0, 33, 0
1, 19200, Note_on_c, 0, 55, 55
1, 19200, Note_on_c, 0, 60, 55
1, 19200, Note_on_c, 0, 62, 62
1, 19200, Note_on_c, 0, 35, 69
1, 19200, Note_on_c, 0, 47, 77
1, 19320, Note_on_c, 0, 47, 0
1, 19320, Note_on_c, 0, 35, 0
1, 19440, Note_on_c, 0, 55, 0
1, 19440, Note_on_c, 0, 60, 0
1, 19440, Note_on_c, 0, 62, 0
1, 19440, Note_on_c, 0, 36, 71
1, 19440, Note_on_c, 0, 48, 79
1, 19560, Note_on_c, 0, 48, 0
1, 19560, Note_on_c, 0, 36, 0
1, 19680, Note_on_c, 0, 55, 58
1, 19680, Note_on_c, 0, 60, 58
1, 19680, Note_on_c, 0, 62, 65
1, 19680, Note_on_c, 0, 38, 72
1, 19680, Note_on_c, 0, 50, 81
1, 19800, Note_on_c, 0, 50, 0
1, 19800, Note_on_c, 0, 38, 0
1, 19920, Note_on_c, 0, 55, 0
1, 19920, Note_on_c, 0, 60, 0
1, 19920, Note_on_c, 0, 62, 0
1, 19920, Note_on_c, 0, 40, 74
1, 19920, Note_on_c, 0, 52, 83
1, 20040, Note_on_c, 0, 52, 0
1, 20040, Note_on_c, 0, 40, 0
1, 20160, Note_on_c, 0, 55, 63
1, 20160, Note_on_c, 0, 59, 63
1, 20160, Note_on_c, 0, 62, 71
1, 20160, Note_on_c, 0, 38, 77
1, 20160, Note_on_c, 0, 50, 86
1, 20640, Tempo, 468128
1, 20640, Note_on_c, 0, 50, 0
1, 20640, Note_on_c, 0, 62, 0
1, 20640, Note_on_c, 0, 55, 0
1, 20640, Note_on_c, 0, 59, 0
1, 20640, Note_on_c, 0, 38, 0
1, 20640, Note_on_c, 0, 55, 72
1, 20640, Note_on_c, 0, 62, 72
1, 20640, Note_on_c, 0, 67, 80
1, 20640, Note_on_c, 0, 35, 74
1, 20640, Note_on_c, 0, 47, 83
1, 20880, Note_on_c, 0, 47, 0
1, 20880, Note_on_c, 0, 67, 0
1, 20880, Note_on_c, 0, 55, 0
1, 20880, Note_on_c, 0, 62, 0
1, 20880, Note_on_c, 0, 35, 0
1, 21120, Note_on_c, 0, 57, 66
1, 21120, Note_on_c, 0, 62, 66
1, 21120, Note_on_c, 0, 66, 74
1, 21120, Note_on_c, 0, 33, 65
1, 21120, Note_on_c, 0, 45, 73
1, 21360, Note_on_c, 0, 45, 0
1, 21360, Note_on_c, 0, 66, 0
1, 21360, Note_on_c, 0, 57, 0
1, 21360, Note_on_c, 0, 62, 0
1, 21360, Note_on_c, 0, 33, 0
1, 21600, Tempo, 473747
1, 21600, Note_on_c, 0, 59, 65
1, 21600, Note_on_c, 0, 62, 65
1, 21600, Note_on_c, 0, 64, 73
1, 21600, Note_on_c, 0, 31, 66
1, 21600, Note_on_c, 0, 43, 74
1, 21621, Control_c, 0, 64, 127
1, 21840, Note_on_c, 0, 43, 0
1, 21840, Note_on_c, 0, 64, 0
1, 21840, Note_on_c, 0, 59, 0
1, 21840, Note_on_c, 0, 62, 0
1, 21840, Note_on_c, 0, 31, 0
1, 21918, Control_c, 0, 64, 0
1, 21960, Tempo, 455443
1, 21960, Note_on_c, 0, 59, 68
1, 21960, Note_on_c, 0, 62, 68
1, 21960, Note_on_c, 0, 66, 76
1, 21960, Note_on_c, 0, 30, 68
1, 21960, Note_on_c, 0, 42, 76
1, 22080, Tempo, 462642
1, 22080, Note_on_c, 0, 42, 0
1, 22080, Note_on_c, 0, 66, 0
1, 22080, Note_on_c, 0, 59, 0
1, 22080, Note_on_c, 0, 62, 0
1, 22080, Note_on_c, 0, 30, 0
1, 22080, Note_on_c, 0, 59, 80
1, 22080, Note_on_c, 0, 62, 80
1, 22080, Note_on_c, 0, 67, 89
1, 22080, Note_on_c, 0, 28, 79
1, 22080, Note_on_c, 0, 40, 88
1, 22136, Control_c, 0, 64, 127
1, 22320, Note_on_c, 0, 40, 0
1, 22320, Note_on_c, 0, 67, 0
1, 22320, Note_on_c, 0, 59, 0
1, 22320, Note_on_c, 0, 62, 0
1, 22320, Note_on_c, 0, 28, 0
1, 22334, Control_c, 0, 64, 0
1, 22560, Tempo, 512821
1, 22560, Note_on_c, 0, 55, 61
1, 22560, Note_on_c, 0, 57, 61
1, 22560, Note_on_c, 0, 61, 61
1, 22560, Note_on_c, 0, 64, 68
1, 22560, Note_on_c, 0, 33, 63
1, 22560, Note_on_c, 0, 45, 70
1, 22616, Control_c, 0, 64, 127
1, 23040, Tempo, 470588
1, 23040, Note_on_c, 0, 45, 0
1, 23040, Note_on_c, 0, 57, 0
1, 23040, Note_on_c, 0, 61, 0
1, 23040, Note_on_c, 0, 55, 0
1, 23040, Note_on_c, 0, 33, 0
1, 23040, Note_on_c, 0, 64, 0
1, 23040, Note_on_c, 0, 54, 70
1, 23040, Note_on_c, 0, 57, 70
1, 23040, Note_on_c, 0, 62, 78
1, 23040, Note_on_c, 0, 38, 70
1, 23040, Note_on_c, 0, 50, 78
1, 23042, Control_c, 0, 64, 0
1, 23167, Control_c, 0, 64, 127
1, 23520, Note_on_c, 0, 50, 0
1, 23520, Note_on_c, 0, 62, 0
1, 23520, Note_on_c, 0, 54, 0
1, 23520, Note_on_c, 0, 57, 0
1, 23520, Note_on_c, 0, 38, 0
1, 23527, Control_c, 0, 64, 0
1, 24000, Tempo, 455789
1, 24000, Note_on_c, 0, 57, 66
1, 24000, Note_on_c, 0, 61, 66
1, 24000, Note_on_c, 0, 64, 66
1, 24000, Note_on_c, 0, 69, 74
1, 24000, Note_on_c, 0, 33, 67
1, 24000, Note_on_c, 0, 45, 75
1, 24028, Control_c, 0, 64, 127
1, 24120, Note_on_c, 0, 45, 0
1, 24120, Note_on_c, 0, 33, 0
1, 24240, Note_on_c, 0, 49, 75
1, 24360, Note_on_c, 0, 49, 0
1, 24480, Tempo, 455789
1, 24480, Note_on_c, 0, 69, 0
1, 24480, Note_on_c, 0, 57, 0
1, 24480, Note_on_c, 0, 61, 0
1, 24480, Note_on_c, 0, 64, 0
1, 24480, Note_on_c, 0, 57, 72
1, 24480, Note_on_c, 0, 62, 72
1, 24480, Note_on_c, 0, 66, 72
1, 24480, Note_on_c, 0, 69, 80
1, 24480, Control_c, 0, 64, 0
1, 24480, Note_on_c, 0, 38, 81
1, 24480, Note_on_c, 0, 50, 91
1, 24600, Note_on_c, 0, 50, 0
1, 24600, Note_on_c, 0, 38, 0
1, 24720, Tempo, 470146
1, 24720, Note_on_c, 0, 33, 72
1, 24720, Note_on_c, 0, 45, 81
1, 24840, Note_on_c, 0, 45, 0
1, 24840, Note_on_c, 0, 33, 0
1, 24960, Tempo, 479578
1, 24960, Note_on_c, 0, 31, 72
1, 24960, Note_on_c, 0, 43, 81
1, 25080, Note_on_c, 0, 43, 0
1, 25080, Note_on_c, 0, 31, 0
1, 25200, Tempo, 489436
1, 25200, Note_on_c, 0, 30, 72
1, 25200, Note_on_c, 0, 42, 81
1, 25320, Note_on_c, 0, 42, 0
1, 25320, Note_on_c, 0, 30, 0
1, 25440, Tempo, 466454
1, 25440, Note_on_c, 0, 69, 0
1, 25440, Note_on_c, 0, 57, 0
1, 25440, Note_on_c, 0, 62, 0
1, 25440, Note_on_c, 0, 66, 0
1, 25440, Note_on_c, 0, 57, 64
1, 25440, Note_on_c, 0, 62, 64
1, 25440, Note_on_c, 0, 66, 64
1, 25440, Note_on_c, 0, 69, 72
1, 25440, Note_on_c, 0, 30, 78
1, 25440, Note_on_c, 0, 42, 87
1, 25480, Control_c, 0, 64, 127
1, 25920, Tempo, 455789
1, 25920, Note_on_c, 0, 42, 0
1, 25920, Note_on_c, 0, 62, 0
1, 25920, Note_on_c, 0, 66, 0
1, 25920, Note_on_c, 0, 57, 0
1, 25920, Note_on_c, 0, 30, 0
1, 25920, Note_on_c, 0, 69, 0
1, 25920, Note_on_c, 0, 71, 79
1, 25920, Note_on_c, 0, 62, 71
1, 25920, Note_on_c, 0, 64, 71
1, 25920, Note_on_c, 0, 67, 71
1, 25920, Control_c, 0, 64, 0
1, 25920, Note_on_c, 0, 38, 81
1, 25920, Note_on_c, 0, 50, 90
1, 26040, Note_on_c, 0, 50, 0
1, 26040, Note_on_c, 0, 38, 0
1, 26160, Tempo, 466454
1, 26160, Note_on_c, 0, 35, 70
1, 26160, Note_on_c, 0, 47, 78
1, 26280, Note_on_c, 0, 47, 0
1, 26280, Note_on_c, 0, 35, 0
1, 26400, Tempo, 473859
1, 26400, Note_on_c, 0, 33, 69
1, 26400, Note_on_c, 0, 45, 77
1, 26520, Note_on_c, 0, 45, 0
1, 26520, Note_on_c, 0, 33, 0
1, 26640, Tempo, 483442
1, 26640, Note_on_c, 0, 31, 69
1, 26640, Note_on_c, 0, 43, 77
1, 26760, Note_on_c, 0, 43, 0
1, 26760, Note_on_c, 0, 31, 0
1, 26880, Tempo, 468274
1, 26880, Note_on_c, 0, 67, 0
1, 26880, Note_on_c, 0, 71, 0
1, 26880, Note_on_c, 0, 62, 0
1, 26880, Note_on_c, 0, 64, 0
1, 26880, Note_on_c, 0, 62, 64
1, 26880, Note_on_c, 0, 64, 64
1, 26880, Note_on_c, 0, 67, 64
1, 26880, Note_on_c, 0, 71, 72
1, 26880, Note_on_c, 0, 31, 77
1, 26880, Note_on_c, 0, 43, 86
1, 26931, Control_c, 0, 64, 127
1, 27360, Tempo, 457526
1, 27360, Note_on_c, 0, 43, 0
1, 27360, Note_on_c, 0, 64, 0
1, 27360, Note_on_c, 0, 67, 0
1, 27360, Note_on_c, 0, 62, 0
1, 27360, Note_on_c, 0, 31, 0
1, 27360, Note_on_c, 0, 71, 0
1, 27360, Note_on_c, 0, 55, 54
1, 27360, Note_on_c, 0, 57, 54
1, 27360, Note_on_c, 0, 61, 54
1, 27360, Note_on_c, 0, 64, 61
1, 27360, Control_c, 0, 64, 0
1, 27360, Note_on_c, 0, 33, 78
1, 27360, Note_on_c, 0, 45, 87
1, 27480, Note_on_c, 0, 45, 0
1, 27480, Note_on_c, 0, 33, 0
1, 27600, Note_on_c, 0, 61, 0
1, 27600, Note_on_c, 0, 55, 0
1, 27600, Note_on_c, 0, 57, 0
1, 27600, Note_on_c, 0, 64, 0
1, 27600, Note_on_c, 0, 28, 69
1, 27600, Note_on_c, 0, 40, 77
1, 27720, Note_on_c, 0, 40, 0
1, 27720, Note_on_c, 0, 28, 0
1, 27840, Tempo, 473859
1, 27840, Note_on_c, 0, 55, 54
1, 27840, Note_on_c, 0, 57, 54
1, 27840, Note_on_c, 0, 61, 54
1, 27840, Note_on_c, 0, 64, 61
1, 27840, Note_on_c, 0, 26, 69
1, 27840, Note_on_c, 0, 38, 77
1, 27960, Note_on_c, 0, 38, 0
1, 27960, Note_on_c, 0, 26, 0
1, 28080, Note_on_c, 0, 61, 0
1, 28080, Note_on_c, 0, 55, 0
1, 28080, Note_on_c, 0, 57, 0
1, 28080, Note_on_c, 0, 64, 0
1, 28080, Note_on_c, 0, 25, 69
1, 28080, Note_on_c, 0, 37, 77
1, 28200, Note_on_c, 0, 37, 0
1, 28200, Note_on_c, 0, 25, 0
1, 28320, Tempo, 464648
1, 28320, Note_on_c, 0, 55, 54
1, 28320, Note_on_c, 0, 57, 54
1, 28320, Note_on_c, 0, 61, 54
1, 28320, Note_on_c, 0, 64, 61
1, 28320, Note_on_c, 0, 25, 75
1, 28320, Note_on_c, 0, 37, 84
1, 28372, Control_c, 0, 64, 127
1, 28560, Note_on_c, 0, 64, 0
1, 28560, Note_on_c, 0, 61, 0
1, 28560, Note_on_c, 0, 55, 0
1, 28560, Note_on_c, 0, 57, 0
1, 28800, Tempo, 455789
1, 28800, Note_on_c, 0, 37, 0
1, 28800, Note_on_c, 0, 25, 0
1, 28800, Note_on_c, 0, 60, 64
1, 28800, Note_on_c, 0, 62, 64
1, 28800, Note_on_c, 0, 69, 72
1, 28800, Control_c, 0, 64, 0
1, 28800, Note_on_c, 0, 38, 81
1, 28800, Note_on_c, 0, 50, 90
1, 28920, Note_on_c, 0, 50, 0
1, 28920, Note_on_c, 0, 38, 0
1, 29040, Tempo, 462856
1, 29040, Note_on_c, 0, 33, 71
1, 29040, Note_on_c, 0, 45, 79
1, 29160, Note_on_c, 0, 45, 0
1, 29160, Note_on_c, 0, 33, 0
1, 29280, Tempo, 470146
1, 29280, Note_on_c, 0, 31, 71
1, 29280, Note_on_c, 0, 43, 79
1, 29400, Note_on_c, 0, 43, 0
1, 29400, Note_on_c, 0, 31, 0
1, 29520, Note_on_c, 0, 30, 71
1, 29520, Note_on_c, 0, 42, 79
1, 29640, Note_on_c, 0, 42, 0
1, 29640, Note_on_c, 0, 30, 0
1, 29760, Tempo, 477631
1, 29760, Note_on_c, 0, 30, 76
1, 29760, Note_on_c, 0, 42, 85
1, 29829, Control_c, 0, 64, 127
1, 30240, Tempo, 446163
1, 30240, Note_on_c, 0, 42, 0
1, 30240, Note_on_c, 0, 69, 0
1, 30240, Note_on_c, 0, 60, 0
1, 30240, Note_on_c, 0, 62, 0
1, 30240, Note_on_c, 0, 30, 0
1, 30240, Note_on_c, 0, 55, 53
1, 30240, Note_on_c, 0, 60, 53
1, 30240, Note_on_c, 0, 62, 59
1, 30240, Control_c, 0, 64, 0
1, 30240, Note_on_c, 0, 31, 64
1, 30240, Note_on_c, 0, 43, 72
1, 30260, Tempo, 457213
1, 30360, Note_on_c, 0, 43, 0
1, 30360, Note_on_c, 0, 31, 0
1, 30480, Note_on_c, 0, 55, 0
1, 30480, Note_on_c, 0, 60, 0
1, 30480, Note_on_c, 0, 62, 0
1, 30480, Note_on_c, 0, 33, 66
1, 30480, Note_on_c, 0, 45, 74
1, 30600, Note_on_c, 0, 45, 0
1, 30600, Note_on_c, 0, 33, 0
1, 30720, Note_on_c, 0, 55, 55
1, 30720, Note_on_c, 0, 60, 55
1, 30720, Note_on_c, 0, 62, 62
1, 30720, Note_on_c, 0, 35, 69
1, 30720, Note_on_c, 0, 47, 77
1, 30840, Note_on_c, 0, 47, 0
1, 30840, Note_on_c, 0, 35, 0
1, 30960, Note_on_c, 0, 55, 0
1, 30960, Note_on_c, 0, 60, 0
1, 30960, Note_on_c, 0, 62, 0
1, 30960, Note_on_c, 0, 36, 71
1, 30960, Note_on_c, 0, 48, 79
1, 31080, Note_on_c, 0, 48, 0
1, 31080, Note_on_c, 0, 36, 0
1, 31200, Note_on_c, 0, 55, 58
1, 31200, Note_on_c, 0, 60, 58
1, 31200, Note_on_c, 0, 62, 65
1, 31200, Note_on_c, 0, 38, 72
1, 31200, Note_on_c, 0, 50, 81
1, 31320, Note_on_c, 0, 50, 0
1, 31320, Note_on_c, 0, 38, 0
1, 31440, Note_on_c, 0, 55, 0
1, 31440, Note_on_c, 0, 60, 0
1, 31440, Note_on_c, 0, 62, 0
1, 31440, Note_on_c, 0, 40, 74
1, 31440, Note_on_c, 0, 52, 83
1, 31560, Note_on_c, 0, 52, 0
1, 31560, Note_on_c, 0, 40, 0
1, 31680, Note_on_c, 0, 55, 63
1, 31680, Note_on_c, 0, 59, 63
1, 31680, Note_on_c, 0, 62, 71
1, 31680, Note_on_c, 0, 38, 77
1, 31680, Note_on_c, 0, 50, 86
1, 32160, Tempo, 468128
1, 32160, Note_on_c, 0, 50, 0
1, 32160, Note_on_c, 0, 62, 0
1, 32160, Note_on_c, 0, 55, 0
1, 32160, Note_on_c, 0, 59, 0
1, 32160, Note_on_c, 0, 38, 0
1, 32160, Note_on_c, 0, 55, 72
1, 32160, Note_on_c, 0, 62, 72
1, 32160, Note_on_c, 0, 67, 80
1, 32160, Note_on_c, 0, 35, 74
1, 32160, Note_on_c, 0, 47, 83
1, 32400, Note_on_c, 0, 47, 0
1, 32400, Note_on_c, 0, 67, 0
1, 32400, Note_on_c, 0, 55, 0
1, 32400, Note_on_c, 0, 62, 0
1, 32400, Note_on_c, 0, 35, 0
1, 32640, Note_on_c, 0, 57, 66
1, 32640, Note_on_c, 0, 62, 66
1, 32640, Note_on_c, 0, 66, 74
1, 32640, Note_on_c, 0, 33, 65
1, 32640, Note_on_c, 0, 45, 73
1, 32880, Note_on_c, 0, 45, 0
1, 32880, Note_on_c, 0, 66, 0
1, 32880, Note_on_c, 0, 57, 0
1, 32880, Note_on_c, 0, 62, 0
1, 32880, Note_on_c, 0, 33, 0
1, 33120, Tempo, 473747
1, 33120, Note_on_c, 0, 59, 65
1, 33120, Note_on_c, 0, 62, 65
1, 33120, Note_on_c, 0, 64, 73
1, 33120, Note_on_c, 0, 31, 66
1, 33120, Note_on_c, 0, 43, 74
1, 33141, Control_c, 0, 64, 127
1, 33360, Note_on_c, 0, 43, 0
1, 33360, Note_on_c, 0, 64, 0
1, 33360, Note_on_c, 0, 59, 0
1, 33360, Note_on_c, 0, 62, 0
1, 33360, Note_on_c, 0, 31, 0
1, 33473, Control_c, 0, 64, 0
1, 33480, Tempo, 455443
1, 33480, Note_on_c, 0, 59, 68
1, 33480, Note_on_c, 0, 62, 68
1, 33480, Note_on_c, 0, 66, 76
1, 33480, Note_on_c, 0, 30, 68
1, 33480, Note_on_c, 0, 42, 76
1, 33600, Tempo, 462642
1, 33600, Note_on_c, 0, 42, 0
1, 33600, Note_on_c, 0, 66, 0
1, 33600, Note_on_c, 0, 59, 0
1, 33600, Note_on_c, 0, 62, 0
1, 33600, Note_on_c, 0, 30, 0
1, 33600, Note_on_c, 0, 59, 80
1, 33600, Note_on_c, 0, 62, 80
1, 33600, Note_on_c, 0, 67, 89
1, 33600, Note_on_c, 0, 28, 79
1, 33600, Note_on_c, 0, 40, 88
1, 33678, Control_c, 0, 64, 127
1, 33791, Control_c, 0, 64, 0
1, 33840, Note_on_c, 0, 40, 0
1, 33840, Note_on_c, 0, 67, 0
1, 33840, Note_on_c, 0, 59, 0
1, 33840, Note_on_c, 0, 62, 0
1, 33840, Note_on_c, 0, 28, 0
1, 34080, Tempo, 512821
1, 34080, Note_on_c, 0, 55, 61
1, 34080, Note_on_c, 0, 57, 61
1, 34080, Note_on_c, 0, 61, 61
1, 34080, Note_on_c, 0, 64, 68
1, 34080, Note_on_c, 0, 33, 63
1, 34080, Note_on_c, 0, 45, 70
1, 34129, Control_c, 0, 64, 127
1, 34560, Note_on_c, 0, 45, 0
1, 34560, Note_on_c, 0, 57, 0
1, 34560, Note_on_c, 0, 61, 0
1, 34560, Note_on_c, 0, 55, 0
1, 34560, Note_on_c, 0, 33, 0
1, 34560, Note_on_c, 0, 64, 0
1, 34560, Note_on_c, 0, 54, 70
1, 34560, Note_on_c, 0, 57, 70
1, 34560, Note_on_c, 0, 62, 78
1, 34560, Note_on_c, 0, 38, 70
1, 34560, Note_on_c, 0, 50, 78
1, 34565, Control_c, 0, 64, 0
1, 34645, Control_c, 0, 64, 127
1, 34927, Control_c, 0, 64, 0
1, 35040, Note_on_c, 0, 50, 0
1, 35040, Note_on_c, 0, 62, 0
1, 35040, Note_on_c, 0, 54, 0
1, 35040, Note_on_c, 0, 57, 0
1, 35040, Note_on_c, 0, 38, 0
1, 35520, Tempo, 486697
1, 35520, Note_on_c, 0, 81, 90
1, 35520, Note_on_c, 0, 73, 81
1, 35520, Note_on_c, 0, 76, 81
1, 35520, Note_on_c, 0, 45, 62
1, 35520, Note_on_c, 0, 57, 69
1, 35548, Control_c, 0, 64, 127
1, 35640, Note_on_c, 0, 57, 0
1, 35640, Note_on_c, 0, 45, 0
1, 35760, Note_on_c, 0, 49, 62
1, 35760, Note_on_c, 0, 61, 69
1, 35880, Note_on_c, 0, 61, 0
1, 35880, Note_on_c, 0, 49, 0
1, 36000, Note_on_c, 0, 76, 0
1, 36000, Note_on_c, 0, 73, 0
1, 36000, Note_on_c, 0, 81, 0
1, 36000, Note_on_c, 0, 71, 81
1, 36000, Note_on_c, 0, 76, 81
1, 36000, Note_on_c, 0, 80, 90
1, 36000, Control_c, 0, 64, 0
1, 36000, Note_on_c, 0, 52, 64
1, 36000, Note_on_c, 0, 64, 72
1, 36091, Control_c, 0, 64, 127
1, 36360, Note_on_c, 0, 64, 0
1, 36360, Note_on_c, 0, 80, 0
1, 36360, Note_on_c, 0, 71, 0
1, 36360, Note_on_c, 0, 76, 0
1, 36360, Note_on_c, 0, 52, 0
1, 36360, Note_on_c, 0, 69, 72
1, 36360, Note_on_c, 0, 75, 72
1, 36360, Note_on_c, 0, 78, 81
1, 36360, Note_on_c, 0, 48, 54
1, 36360, Note_on_c, 0, 60, 61
1, 36369, Control_c, 0, 64, 0
1, 36480, Tempo, 486697
1, 36480, Note_on_c, 0, 60, 0
1, 36480, Note_on_c, 0, 78, 0
1, 36480, Note_on_c, 0, 69, 0
1, 36480, Note_on_c, 0, 75, 0
1, 36480, Note_on_c, 0, 48, 0
1, 36480, Note_on_c, 0, 68, 75
1, 36480, Note_on_c, 0, 73, 75
1, 36480, Note_on_c, 0, 76, 84
1, 36480, Note_on_c, 0, 49, 58
1, 36480, Note_on_c, 0, 61, 65
1, 36611, Control_c, 0, 64, 127
1, 36940, Note_on_c, 0, 61, 0
1, 36940, Note_on_c, 0, 76, 0
1, 36940, Note_on_c, 0, 68, 0
1, 36940, Note_on_c, 0, 73, 0
1, 36940, Note_on_c, 0, 49, 0
1, 36960, Note_on_c, 0, 69, 71
1, 36960, Note_on_c, 0, 73, 71
1, 36960, Note_on_c, 0, 78, 79
1, 36960, Note_on_c, 0, 45, 56
1, 36960, Note_on_c, 0, 57, 63
1, 36979, Control_c, 0, 64, 0
1, 37091, Control_c, 0, 64, 127
1, 37420, Note_on_c, 0, 57, 0
1, 37420, Note_on_c, 0, 78, 0
1, 37420, Note_on_c, 0, 69, 0
1, 37420, Note_on_c, 0, 73, 0
1, 37420, Note_on_c, 0, 45, 0
1, 37440, Tempo, 480615
1, 37440, Note_on_c, 0, 66, 72
1, 37440, Note_on_c, 0, 71, 72
1, 37440, Note_on_c, 0, 75, 80
1, 37440, Control_c, 0, 64, 0
1, 37440, Note_on_c, 0, 47, 56
1, 37440, Note_on_c, 0, 59, 63
1, 37560, Control_c, 0, 64, 127
1, 37900, Note_on_c, 0, 59, 0
1, 37900, Note_on_c, 0, 75, 0
1, 37900, Note_on_c, 0, 66, 0
1, 37900, Note_on_c, 0, 71, 0
1, 37900, Note_on_c, 0, 47, 0
1, 37920, Note_on_c, 0, 68, 72
1, 37920, Note_on_c, 0, 71, 72
1, 37920, Note_on_c, 0, 76, 81
1, 37920, Note_on_c, 0, 40, 54
1, 37920, Note_on_c, 0, 52, 61
1, 37938, Control_c, 0, 64, 0
1, 38047, Control_c, 0, 64, 127
1, 38160, Tempo, 465116
1, 38195, Control_c, 0, 64, 0
1, 38280, Note_on_c, 0, 52, 0
1, 38280, Note_on_c, 0, 76, 0
1, 38280, Note_on_c, 0, 68, 0
1, 38280, Note_on_c, 0, 71, 0
1, 38280, Note_on_c, 0, 40, 0
1, 38400, Tempo, 472739
1, 38400, Note_on_c, 0, 66, 81
1, 38400, Note_on_c, 0, 71, 72
1, 38400, Note_on_c, 0, 74, 81
1, 38400, Note_on_c, 0, 42, 55
1, 38400, Note_on_c, 0, 54, 62
1, 38428, Control_c, 0, 64, 127
1, 38520, Note_on_c, 0, 54, 0
1, 38520, Note_on_c, 0, 66, 0
1, 38520, Note_on_c, 0, 42, 0
1, 38640, Tempo, 495050
1, 38640, Note_on_c, 0, 64, 81
1, 38640, Note_on_c, 0, 44, 55
1, 38640, Note_on_c, 0, 56, 62
1, 38760, Note_on_c, 0, 56, 0
1, 38760, Note_on_c, 0, 64, 0
1, 38760, Note_on_c, 0, 44, 0
1, 38880, Tempo, 478583
1, 38880, Note_on_c, 0, 74, 0
1, 38880, Note_on_c, 0, 71, 0
1, 38880, Note_on_c, 0, 64, 73
1, 38880, Note_on_c, 0, 69, 73
1, 38880, Note_on_c, 0, 73, 82
1, 38880, Control_c, 0, 64, 0
1, 38880, Note_on_c, 0, 45, 58
1, 38880, Note_on_c, 0, 57, 65
1, 38937, Control_c, 0, 64, 127
1, 39240, Note_on_c, 0, 57, 0
1, 39240, Note_on_c, 0, 73, 0
1, 39240, Note_on_c, 0, 64, 0
1, 39240, Note_on_c, 0, 69, 0
1, 39240, Note_on_c, 0, 45, 0
1, 39240, Note_on_c, 0, 62, 70
1, 39240, Note_on_c, 0, 68, 70
1, 39240, Note_on_c, 0, 71, 78
1, 39240, Note_on_c, 0, 41, 52
1, 39240, Note_on_c, 0, 53, 58
1, 39244, Control_c, 0, 64, 0
1, 39360, Note_on_c, 0, 53, 0
1, 39360, Note_on_c, 0, 71, 0
1, 39360, Note_on_c, 0, 62, 0
1, 39360, Note_on_c, 0, 68, 0
1, 39360, Note_on_c, 0, 41, 0
1, 39360, Note_on_c, 0, 61, 70
1, 39360, Note_on_c, 0, 66, 70
1, 39360, Note_on_c, 0, 69, 78
1, 39360, Note_on_c, 0, 42, 52
1, 39360, Note_on_c, 0, 54, 58
1, 39514, Control_c, 0, 64, 127
1, 39820, Note_on_c, 0, 54, 0
1, 39820, Note_on_c, 0, 69, 0
1, 39820, Note_on_c, 0, 61, 0
1, 39820, Note_on_c, 0, 66, 0
1, 39820, Note_on_c, 0, 42, 0
1, 39840, Tempo, 486697
1, 39840, Note_on_c, 0, 62, 72
1, 39840, Note_on_c, 0, 66, 72
1, 39840, Note_on_c, 0, 71, 81
1, 39840, Note_on_c, 0, 38, 54
1, 39840, Note_on_c, 0, 50, 61
1, 39856, Control_c, 0, 64, 0
1, 39960, Control_c, 0, 64, 127
1, 40300, Note_on_c, 0, 50, 0
1, 40300, Note_on_c, 0, 71, 0
1, 40300, Note_on_c, 0, 62, 0
1, 40300, Note_on_c, 0, 66, 0
1, 40300, Note_on_c, 0, 38, 0
1, 40320, Tempo, 482625
1, 40320, Note_on_c, 0, 59, 70
1, 40320, Note_on_c, 0, 64, 70
1, 40320, Note_on_c, 0, 68, 78
1, 40320, Control_c, 0, 64, 0
1, 40320, Note_on_c, 0, 40, 51
1, 40320, Note_on_c, 0, 52, 57
1, 40419, Control_c, 0, 64, 127
1, 40780, Note_on_c, 0, 52, 0
1, 40780, Note_on_c, 0, 68, 0
1, 40780, Note_on_c, 0, 59, 0
1, 40780, Note_on_c, 0, 64, 0
1, 40780, Note_on_c, 0, 40, 0
1, 40800, Note_on_c, 0, 61, 70
1, 40800, Note_on_c, 0, 64, 70
1, 40800, Note_on_c, 0, 69, 78
1, 40800, Note_on_c, 0, 33, 51
1, 40800, Note_on_c, 0, 45, 57
1, 40806, Control_c, 0, 64, 0
1, 40906, Control_c, 0, 64, 127
1, 41026, Control_c, 0, 64, 0
1, 41160, Note_on_c, 0, 45, 0
1, 41160, Note_on_c, 0, 69, 0
1, 41160, Note_on_c, 0, 61, 0
1, 41160, Note_on_c, 0, 64, 0
1, 41160, Note_on_c, 0, 33, 0
1, 41280, Tempo, 478583
1, 41280, Note_on_c, 0, 69, 76
1, 41280, Note_on_c, 0, 61, 68
1, 41280, Note_on_c, 0, 64, 68
1, 41280, Note_on_c, 0, 33, 52
1, 41280, Note_on_c, 0, 45, 58
1, 41294, Control_c, 0, 64, 127
1, 41400, Note_on_c, 0, 45, 0
1, 41400, Note_on_c, 0, 33, 0
1, 41520, Note_on_c, 0, 37, 52
1, 41520, Note_on_c, 0, 49, 58
1, 41640, Note_on_c, 0, 49, 0
1, 41640, Note_on_c, 0, 37, 0
1, 41760, Note_on_c, 0, 64, 0
1, 41760, Note_on_c, 0, 61, 0
1, 41760, Note_on_c, 0, 69, 0
1, 41760, Note_on_c, 0, 59, 68
1, 41760, Note_on_c, 0, 64, 68
1, 41760, Note_on_c, 0, 68, 76
1, 41760, Control_c, 0, 64, 0
1, 41760, Note_on_c, 0, 40, 54
1, 41760, Note_on_c, 0, 52, 61
1, 41852, Control_c, 0, 64, 127
1, 42120, Note_on_c, 0, 52, 0
1, 42120, Note_on_c, 0, 68, 0
1, 42120, Note_on_c, 0, 59, 0
1, 42120, Note_on_c, 0, 64, 0
1, 42120, Note_on_c, 0, 40, 0
1, 42120, Note_on_c, 0, 57, 61
1, 42120, Note_on_c, 0, 63, 61
1, 42120, Note_on_c, 0, 66, 68
1, 42120, Note_on_c, 0, 36, 45
1, 42120, Note_on_c, 0, 48, 51
1, 42128, Control_c, 0, 64, 0
1, 42240, Tempo, 486697
1, 42240, Note_on_c, 0, 48, 0
1, 42240, Note_on_c, 0, 66, 0
1, 42240, Note_on_c, 0, 57, 0
1, 42240, Note_on_c, 0, 63, 0
1, 42240, Note_on_c, 0, 36, 0
1, 42240, Note_on_c, 0, 56, 63
1, 42240, Note_on_c, 0, 61, 63
1, 42240, Note_on_c, 0, 64, 71
1, 42240, Note_on_c, 0, 37, 49
1, 42240, Note_on_c, 0, 49, 55
1, 42389, Control_c, 0, 64, 127
1, 42700, Note_on_c, 0, 49, 0
1, 42700, Note_on_c, 0, 64, 0
1, 42700, Note_on_c, 0, 56, 0
1, 42700, Note_on_c, 0, 61, 0
1, 42700, Note_on_c, 0, 37, 0
1, 42720, Note_on_c, 0, 57, 59
1, 42720, Note_on_c, 0, 61, 59
1, 42720, Note_on_c, 0, 66, 66
1, 42720, Note_on_c, 0, 33, 48
1, 42720, Note_on_c, 0, 45, 54
1, 42733, Control_c, 0, 64, 0
1, 42886, Control_c, 0, 64, 127
1, 43180, Note_on_c, 0, 45, 0
1, 43180, Note_on_c, 0, 66, 0
1, 43180, Note_on_c, 0, 57, 0
1, 43180, Note_on_c, 0, 61, 0
1, 43180, Note_on_c, 0, 33, 0
1, 43200, Tempo, 488759
1, 43200, Note_on_c, 0, 54, 60
1, 43200, Note_on_c, 0, 59, 60
1, 43200, Note_on_c, 0, 63, 67
1, 43200, Control_c, 0, 64, 0
1, 43200, Note_on_c, 0, 35, 47
1, 43200, Note_on_c, 0, 47, 53
1, 43306, Control_c, 0, 64, 127
1, 43660, Note_on_c, 0, 47, 0
1, 43660, Note_on_c, 0, 63, 0
1, 43660, Note_on_c, 0, 54, 0
1, 43660, Note_on_c, 0, 59, 0
1, 43660, Note_on_c, 0, 35, 0
1, 43680, Tempo, 480808
1, 43680, Note_on_c, 0, 56, 62
1, 43680, Note_on_c, 0, 59, 62
1, 43680, Note_on_c, 0, 64, 69
1, 43680, Note_on_c, 0, 28, 45
1, 43680, Note_on_c, 0, 40, 51
1, 43694, Control_c, 0, 64, 0
1, 43828, Control_c, 0, 64, 127
1, 43920, Tempo, 467472
1, 43984, Control_c, 0, 64, 0
1, 44040, Note_on_c, 0, 40, 0
1, 44040, Note_on_c, 0, 64, 0
1, 44040, Note_on_c, 0, 56, 0
1, 44040, Note_on_c, 0, 59, 0
1, 44040, Note_on_c, 0, 28, 0
1, 44160, Tempo, 476948
1, 44160, Note_on_c, 0, 54, 59
1, 44160, Note_on_c, 0, 59, 53
1, 44160, Note_on_c, 0, 62, 59
1, 44160, Note_on_c, 0, 30, 38
1, 44160, Note_on_c, 0, 42, 43
1, 44202, Control_c, 0, 64, 127
1, 44280, Note_on_c, 0, 42, 0
1, 44280, Note_on_c, 0, 54, 0
1, 44280, Note_on_c, 0, 30, 0
1, 44400, Tempo, 510638
1, 44400, Note_on_c, 0, 52, 59
1, 44400, Note_on_c, 0, 32, 38
1, 44400, Note_on_c, 0, 44, 43
1, 44520, Note_on_c, 0, 44, 0
1, 44520, Note_on_c, 0, 52, 0
1, 44520, Note_on_c, 0, 32, 0
1, 44640, Tempo, 495868
1, 44640, Note_on_c, 0, 62, 0
1, 44640, Note_on_c, 0, 59, 0
1, 44640, Note_on_c, 0, 52, 54
1, 44640, Note_on_c, 0, 57, 54
1, 44640, Note_on_c, 0, 61, 61
1, 44640, Note_on_c, 0, 33, 40
1, 44640, Note_on_c, 0, 45, 45
1, 44657, Control_c, 0, 64, 0
1, 44749, Control_c, 0, 64, 127
1, 45000, Note_on_c, 0, 45, 0
1, 45000, Note_on_c, 0, 61, 0
1, 45000, Note_on_c, 0, 52, 0
1, 45000, Note_on_c, 0, 57, 0
1, 45000, Note_on_c, 0, 33, 0
1, 45000, Note_on_c, 0, 50, 45
1, 45000, Note_on_c, 0, 56, 45
1, 45000, Note_on_c, 0, 59, 50
1, 45000, Note_on_c, 0, 29, 30
1, 45000, Note_on_c, 0, 41, 34
1, 45008, Control_c, 0, 64, 0
1, 45120, Tempo, 566038
1, 45120, Note_on_c, 0, 41, 0
1, 45120, Note_on_c, 0, 59, 0
1, 45120, Note_on_c, 0, 50, 0
1, 45120, Note_on_c, 0, 56, 0
1, 45120, Note_on_c, 0, 29, 0
1, 45120, Note_on_c, 0, 49, 48
1, 45120, Note_on_c, 0, 54, 48
1, 45120, Note_on_c, 0, 57, 54
1, 45120, Note_on_c, 0, 30, 35
1, 45120, Note_on_c, 0, 42, 39
1, 45303, Control_c, 0, 64, 127
1, 45580, Note_on_c, 0, 42, 0
1, 45580, Note_on_c, 0, 57, 0
1, 45580, Note_on_c, 0, 49, 0
1, 45580, Note_on_c, 0, 54, 0
1, 45580, Note_on_c, 0, 30, 0
1, 45600, Tempo, 628272
1, 45600, Note_on_c, 0, 50, 49
1, 45600, Note_on_c, 0, 54, 49
1, 45600, Note_on_c, 0, 59, 55
1, 45600, Note_on_c, 0, 26, 33
1, 45600, Note_on_c, 0, 38, 37
1, 45614, Control_c, 0, 64, 0
1, 45766, Control_c, 0, 64, 127
1, 46060, Note_on_c, 0, 38, 0
1, 46060, Note_on_c, 0, 59, 0
1, 46060, Note_on_c, 0, 50, 0
1, 46060, Note_on_c, 0, 54, 0
1, 46060, Note_on_c, 0, 26, 0
1, 46080, Tempo, 816327
1, 46080, Note_on_c, 0, 47, 42
1, 46080, Note_on_c, 0, 52, 42
1, 46080, Note_on_c, 0, 56, 47
1, 46080, Note_on_c, 0, 28, 29
1, 46080, Note_on_c, 0, 40, 33
1, 46086, Control_c, 0, 64, 0
1, 46267, Control_c, 0, 64, 127
1, 46540, Note_on_c, 0, 40, 0
1, 46540, Note_on_c, 0, 56, 0
1, 46540, Note_on_c, 0, 47, 0
1, 46540, Note_on_c, 0, 52, 0
1, 46540, Note_on_c, 0, 28, 0
1, 46560, Note_on_c, 0, 49, 38
1, 46560, Note_on_c, 0, 52, 38
1, 46560, Note_on_c, 0, 57, 43
1, 46560, Note_on_c, 0, 33, 27
1, 46560, Note_on_c, 0, 40, 30
1, 46573, Control_c, 0, 64, 0
1, 46920, Marker_t, "Fine"
1, 46921, Tempo, 697674
1, 47014, Control_c, 0, 64, 127
1, 47040, Note_on_c, 0, 40, 0
1, 47040, Note_on_c, 0, 57, 0
1, 47040, Note_on_c, 0, 49, 0
1, 47040, Note_on_c, 0, 52, 0
1, 47040, Note_on_c, 0, 33, 0
1, 47520, Control_c, 0, 64, 0
1, 47520, End_track
0, 0, End_of_file
