0, 0, Header, 0, 1, 480
1, 0, Start_track
1, 0, Title_t, "Die Jahreszeiten"
1, 0, Title_t, "August"
1, 0, Copyright_t, "Copyright © 2004 by Bernd Krueger"
1, 0, Text_t, "Peter Tschaikowsky"
1, 0, Text_t, "Allegro vivace"
1, 0, Text_t, "Fertiggestellt am 22.10.2000\012"
1, 0, Text_t, "Normierung: 23.12.2002\012"
1, 0, Text_t, "Update am 2.9.2004\012"
1, 0, Text_t, "Update am 21.9.2008\012"
1, 0, Text_t, "Dauer: 3:13 Minuten\012"
1, 0, SMPTE_offset, 96, 0, 3, 0, 0
1, 0, Time_signature, 6, 3, 12, 8
1, 0, Key_signature, 2, "major"
1, 0, Tempo, 322702
1, 0, Marker_t, "Allegro vivace"
1, 0, Program_c, 0, 0
1, 0, Control_c, 0, 7, 100
1, 0, Control_c, 0, 10, 64
1, 0, Control_c, 0, 91, 127
1, 0, Text_t, "bdca426d104a26ac9dcb070447587523"
1, 0, Program_c, 0, 0
1, 0, Control_c, 0, 7, 100
1, 0, Control_c, 0, 10, 64
1, 0, Control_c, 0, 64, 0
1, 960, Tempo, 298507
1, 960, Note_on_c, 0, 66, 45
1, 960, Note_on_c, 0, 71, 49
1, 960, Note_on_c, 0, 62, 45
1, 960, Control_c, 0, 64, 127
1, 1200, Note_on_c, 0, 62, 0
1, 1200, Note_on_c, 0, 71, 0
1, 1200, Note_on_c, 0, 66, 0
1, 1200, Note_on_c, 0, 65, 46
1, 1200, Note_on_c, 0, 61, 43
1, 1440, Tempo, 299252
1, 1440, Note_on_c, 0, 61, 0
1, 1440, Note_on_c, 0, 65, 0
1, 1440, Note_on_c, 0, 66, 45
1, 1440, Note_on_c, 0, 71, 49
1, 1440, Note_on_c, 0, 62, 45
1, 1460, Control_c, 0, 64, 0
1, 1517, Control_c, 0, 64, 127
1, 1680, Note_on_c, 0, 47, 38
1, 1920, Tempo, 305312
1, 1920, Note_on_c, 0, 47, 0
1, 1920, Note_on_c, 0, 66, 0
1, 1920, Note_on_c, 0, 71, 0
1, 1920, Note_on_c, 0, 62, 0
1, 1920, Note_on_c, 0, 64, 45
1, 1920, Note_on_c, 0, 70, 49
1, 1920, Note_on_c, 0, 61, 43
1, 1935, Control_c, 0, 64, 0
1, 2160, Note_on_c, 0, 61, 0
1, 2160, Note_on_c, 0, 70, 0
1, 2160, Note_on_c, 0, 64, 0
1, 2160, Note_on_c, 0, 47, 37
1, 2360, Tempo, 298507
1, 2400, Tempo, 299252
1, 2400, Note_on_c, 0, 47, 0
1, 2400, Note_on_c, 0, 62, 45
1, 2400, Note_on_c, 0, 67, 49
1, 2400, Note_on_c, 0, 59, 44
1, 2503, Control_c, 0, 64, 127
1, 2640, Note_on_c, 0, 59, 0
1, 2640, Note_on_c, 0, 67, 0
1, 2640, Note_on_c, 0, 62, 0
1, 2640, Note_on_c, 0, 61, 45
1, 2640, Note_on_c, 0, 58, 42
1, 2880, Tempo, 300752
1, 2880, Note_on_c, 0, 58, 0
1, 2880, Note_on_c, 0, 61, 0
1, 2880, Note_on_c, 0, 67, 49
1, 2880, Note_on_c, 0, 62, 45
1, 2880, Note_on_c, 0, 59, 45
1, 2896, Control_c, 0, 64, 0
1, 2971, Control_c, 0, 64, 127
1, 3120, Note_on_c, 0, 47, 39
1, 3360, Tempo, 306905
1, 3360, Note_on_c, 0, 47, 0
1, 3360, Note_on_c, 0, 67, 0
1, 3360, Note_on_c, 0, 62, 0
1, 3360, Note_on_c, 0, 59, 0
1, 3360, Note_on_c, 0, 61, 44
1, 3360, Note_on_c, 0, 66, 47
1, 3360, Note_on_c, 0, 58, 44
1, 3371, Control_c, 0, 64, 0
1, 3600, Note_on_c, 0, 58, 0
1, 3600, Note_on_c, 0, 66, 0
1, 3600, Note_on_c, 0, 61, 0
1, 3600, Note_on_c, 0, 47, 38
1, 3840, Tempo, 299252
1, 3840, Note_on_c, 0, 47, 0
1, 3840, Note_on_c, 0, 60, 45
1, 3840, Note_on_c, 0, 66, 49
1, 3840, Note_on_c, 0, 57, 44
1, 3920, Control_c, 0, 64, 127
1, 4080, Note_on_c, 0, 57, 0
1, 4080, Note_on_c, 0, 66, 0
1, 4080, Note_on_c, 0, 60, 0
1, 4080, Note_on_c, 0, 59, 46
1, 4080, Note_on_c, 0, 56, 41
1, 4320, Tempo, 301508
1, 4320, Note_on_c, 0, 56, 0
1, 4320, Note_on_c, 0, 59, 0
1, 4320, Note_on_c, 0, 60, 45
1, 4320, Note_on_c, 0, 66, 49
1, 4320, Note_on_c, 0, 57, 45
1, 4330, Control_c, 0, 64, 0
1, 4434, Control_c, 0, 64, 127
1, 4560, Note_on_c, 0, 47, 38
1, 4800, Tempo, 299835
1, 4800, Note_on_c, 0, 47, 0
1, 4800, Note_on_c, 0, 60, 0
1, 4800, Note_on_c, 0, 66, 0
1, 4800, Note_on_c, 0, 57, 0
1, 4800, Note_on_c, 0, 64, 46
1, 4800, Note_on_c, 0, 59, 43
1, 4800, Note_on_c, 0, 56, 44
1, 4811, Control_c, 0, 64, 0
1, 5040, Note_on_c, 0, 56, 0
1, 5040, Note_on_c, 0, 59, 0
1, 5040, Note_on_c, 0, 64, 0
1, 5040, Note_on_c, 0, 47, 35
1, 5280, Tempo, 302160
1, 5280, Note_on_c, 0, 47, 0
1, 5280, Note_on_c, 0, 64, 49
1, 5280, Note_on_c, 0, 58, 45
1, 5280, Note_on_c, 0, 55, 45
1, 5303, Control_c, 0, 64, 127
1, 5520, Note_on_c, 0, 55, 0
1, 5520, Note_on_c, 0, 58, 0
1, 5520, Note_on_c, 0, 64, 0
1, 5520, Note_on_c, 0, 47, 43
1, 5760, Note_on_c, 0, 47, 0
1, 5760, Note_on_c, 0, 58, 47
1, 5760, Note_on_c, 0, 62, 52
1, 5760, Note_on_c, 0, 54, 49
1, 5770, Control_c, 0, 64, 0
1, 5874, Control_c, 0, 64, 127
1, 6000, Note_on_c, 0, 54, 0
1, 6000, Note_on_c, 0, 62, 0
1, 6000, Note_on_c, 0, 58, 0
1, 6000, Note_on_c, 0, 47, 50
1, 6240, Note_on_c, 0, 47, 0
1, 6240, Note_on_c, 0, 58, 45
1, 6240, Note_on_c, 0, 61, 50
1, 6240, Note_on_c, 0, 52, 47
1, 6257, Control_c, 0, 64, 0
1, 6480, Tempo, 303721
1, 6480, Note_on_c, 0, 52, 0
1, 6480, Note_on_c, 0, 61, 0
1, 6480, Note_on_c, 0, 58, 0
1, 6480, Note_on_c, 0, 59, 47
1, 6480, Note_on_c, 0, 47, 44
1, 6480, Note_on_c, 0, 50, 44
1, 6720, Tempo, 299835
1, 6720, Note_on_c, 0, 50, 0
1, 6720, Note_on_c, 0, 47, 0
1, 6720, Note_on_c, 0, 59, 0
1, 6720, Note_on_c, 0, 53, 52
1, 6840, Note_on_c, 0, 53, 0
1, 6960, Tempo, 308515
1, 6960, Note_on_c, 0, 54, 54
1, 7080, Note_on_c, 0, 54, 0
1, 7200, Tempo, 302160
1, 7200, Note_on_c, 0, 55, 59
1, 7269, Control_c, 0, 64, 127
1, 7440, Tempo, 302160
1, 7440, Note_on_c, 0, 62, 47
1, 7440, Note_on_c, 0, 74, 47
1, 7440, Note_on_c, 0, 71, 47
1, 7560, Note_on_c, 0, 71, 0
1, 7560, Note_on_c, 0, 74, 0
1, 7560, Note_on_c, 0, 62, 0
1, 7680, Note_on_c, 0, 74, 49
1, 7680, Note_on_c, 0, 71, 49
1, 7680, Note_on_c, 0, 64, 49
1, 7800, Note_on_c, 0, 64, 0
1, 7800, Note_on_c, 0, 71, 0
1, 7800, Note_on_c, 0, 74, 0
1, 7920, Tempo, 303721
1, 7920, Note_on_c, 0, 55, 0
1, 7920, Note_on_c, 0, 74, 46
1, 7920, Note_on_c, 0, 71, 46
1, 7920, Note_on_c, 0, 65, 46
1, 7920, Note_on_c, 0, 43, 49
1, 7937, Control_c, 0, 64, 0
1, 8040, Note_on_c, 0, 65, 0
1, 8040, Note_on_c, 0, 74, 0
1, 8040, Note_on_c, 0, 71, 0
1, 8160, Tempo, 302160
1, 8160, Note_on_c, 0, 43, 0
1, 8160, Note_on_c, 0, 45, 51
1, 8280, Note_on_c, 0, 45, 0
1, 8400, Note_on_c, 0, 43, 49
1, 8520, Note_on_c, 0, 43, 0
1, 8640, Note_on_c, 0, 42, 51
1, 8714, Control_c, 0, 64, 127
1, 8880, Tempo, 303721
1, 8880, Note_on_c, 0, 56, 45
1, 8880, Note_on_c, 0, 66, 45
1, 8880, Note_on_c, 0, 59, 45
1, 9000, Note_on_c, 0, 59, 0
1, 9000, Note_on_c, 0, 66, 0
1, 9000, Note_on_c, 0, 56, 0
1, 9120, Note_on_c, 0, 61, 46
1, 9120, Note_on_c, 0, 58, 46
1, 9120, Note_on_c, 0, 64, 46
1, 9240, Note_on_c, 0, 64, 0
1, 9240, Note_on_c, 0, 58, 0
1, 9240, Note_on_c, 0, 61, 0
1, 9360, Tempo, 304507
1, 9360, Note_on_c, 0, 42, 0
1, 9360, Note_on_c, 0, 59, 46
1, 9360, Note_on_c, 0, 62, 46
1, 9360, Note_on_c, 0, 47, 48
1, 9376, Control_c, 0, 64, 0
1, 9480, Note_on_c, 0, 62, 0
1, 9480, Note_on_c, 0, 59, 0
1, 9600, Tempo, 299835
1, 9600, Note_on_c, 0, 47, 0
1, 9600, Note_on_c, 0, 53, 51
1, 9720, Note_on_c, 0, 53, 0
1, 9840, Note_on_c, 0, 54, 54
1, 9960, Note_on_c, 0, 54, 0
1, 10080, Tempo, 303721
1, 10080, Note_on_c, 0, 55, 58
1, 10166, Control_c, 0, 64, 127
1, 10320, Tempo, 302160
1, 10320, Note_on_c, 0, 74, 47
1, 10320, Note_on_c, 0, 71, 47
1, 10320, Note_on_c, 0, 62, 47
1, 10440, Note_on_c, 0, 62, 0
1, 10440, Note_on_c, 0, 71, 0
1, 10440, Note_on_c, 0, 74, 0
1, 10560, Note_on_c, 0, 74, 49
1, 10560, Note_on_c, 0, 64, 49
1, 10560, Note_on_c, 0, 71, 49
1, 10680, Note_on_c, 0, 71, 0
1, 10680, Note_on_c, 0, 64, 0
1, 10680, Note_on_c, 0, 74, 0
1, 10800, Tempo, 305312
1, 10800, Note_on_c, 0, 55, 0
1, 10800, Note_on_c, 0, 65, 45
1, 10800, Note_on_c, 0, 71, 45
1, 10800, Note_on_c, 0, 74, 45
1, 10800, Note_on_c, 0, 43, 49
1, 10809, Control_c, 0, 64, 0
1, 10920, Note_on_c, 0, 74, 0
1, 10920, Note_on_c, 0, 65, 0
1, 10920, Note_on_c, 0, 71, 0
1, 11040, Tempo, 302160
1, 11040, Note_on_c, 0, 43, 0
1, 11040, Note_on_c, 0, 45, 51
1, 11160, Note_on_c, 0, 45, 0
1, 11280, Note_on_c, 0, 43, 49
1, 11400, Note_on_c, 0, 43, 0
1, 11520, Note_on_c, 0, 42, 49
1, 11617, Control_c, 0, 64, 127
1, 11760, Tempo, 303721
1, 11760, Note_on_c, 0, 66, 47
1, 11760, Note_on_c, 0, 59, 47
1, 11760, Note_on_c, 0, 56, 47
1, 11880, Note_on_c, 0, 56, 0
1, 11880, Note_on_c, 0, 59, 0
1, 11880, Note_on_c, 0, 66, 0
1, 12000, Note_on_c, 0, 64, 46
1, 12000, Note_on_c, 0, 61, 46
1, 12000, Note_on_c, 0, 58, 46
1, 12120, Note_on_c, 0, 58, 0
1, 12120, Note_on_c, 0, 61, 0
1, 12120, Note_on_c, 0, 64, 0
1, 12240, Tempo, 497925
1, 12240, Note_on_c, 0, 42, 0
1, 12240, Note_on_c, 0, 59, 46
1, 12240, Note_on_c, 0, 62, 46
1, 12240, Note_on_c, 0, 47, 49
1, 12251, Control_c, 0, 64, 0
1, 12360, Note_on_c, 0, 47, 0
1, 12360, Note_on_c, 0, 62, 0
1, 12360, Note_on_c, 0, 59, 0
1, 12480, Tempo, 298507
1, 12480, Note_on_c, 0, 66, 45
1, 12480, Note_on_c, 0, 71, 49
1, 12480, Note_on_c, 0, 62, 45
1, 12606, Control_c, 0, 64, 127
1, 12720, Note_on_c, 0, 62, 0
1, 12720, Note_on_c, 0, 71, 0
1, 12720, Note_on_c, 0, 66, 0
1, 12720, Note_on_c, 0, 65, 46
1, 12720, Note_on_c, 0, 61, 43
1, 12960, Tempo, 299252
1, 12960, Note_on_c, 0, 61, 0
1, 12960, Note_on_c, 0, 65, 0
1, 12960, Note_on_c, 0, 66, 45
1, 12960, Note_on_c, 0, 71, 49
1, 12960, Note_on_c, 0, 62, 45
1, 12975, Control_c, 0, 64, 0
1, 13044, Control_c, 0, 64, 127
1, 13200, Note_on_c, 0, 47, 41
1, 13440, Tempo, 305312
1, 13440, Note_on_c, 0, 47, 0
1, 13440, Note_on_c, 0, 66, 0
1, 13440, Note_on_c, 0, 71, 0
1, 13440, Note_on_c, 0, 62, 0
1, 13440, Note_on_c, 0, 70, 49
1, 13440, Note_on_c, 0, 64, 45
1, 13440, Note_on_c, 0, 61, 43
1, 13445, Control_c, 0, 64, 0
1, 13680, Note_on_c, 0, 61, 0
1, 13680, Note_on_c, 0, 64, 0
1, 13680, Note_on_c, 0, 70, 0
1, 13680, Note_on_c, 0, 47, 37
1, 13920, Tempo, 298507
1, 13920, Note_on_c, 0, 47, 0
1, 13920, Note_on_c, 0, 62, 45
1, 13920, Note_on_c, 0, 67, 49
1, 13920, Note_on_c, 0, 59, 44
1, 14023, Control_c, 0, 64, 127
1, 14160, Note_on_c, 0, 59, 0
1, 14160, Note_on_c, 0, 67, 0
1, 14160, Note_on_c, 0, 62, 0
1, 14160, Note_on_c, 0, 61, 45
1, 14160, Note_on_c, 0, 58, 42
1, 14400, Tempo, 300000
1, 14400, Note_on_c, 0, 58, 0
1, 14400, Note_on_c, 0, 61, 0
1, 14400, Note_on_c, 0, 62, 45
1, 14400, Note_on_c, 0, 67, 49
1, 14400, Note_on_c, 0, 59, 45
1, 14417, Control_c, 0, 64, 0
1, 14491, Control_c, 0, 64, 127
1, 14640, Note_on_c, 0, 47, 40
1, 14880, Tempo, 306905
1, 14880, Note_on_c, 0, 47, 0
1, 14880, Note_on_c, 0, 62, 0
1, 14880, Note_on_c, 0, 67, 0
1, 14880, Note_on_c, 0, 59, 0
1, 14880, Note_on_c, 0, 61, 44
1, 14880, Note_on_c, 0, 66, 47
1, 14880, Note_on_c, 0, 58, 44
1, 14894, Control_c, 0, 64, 0
1, 15120, Note_on_c, 0, 58, 0
1, 15120, Note_on_c, 0, 66, 0
1, 15120, Note_on_c, 0, 61, 0
1, 15120, Note_on_c, 0, 47, 36
1, 15360, Tempo, 299252
1, 15360, Note_on_c, 0, 47, 0
1, 15360, Note_on_c, 0, 66, 49
1, 15360, Note_on_c, 0, 60, 45
1, 15360, Note_on_c, 0, 57, 44
1, 15440, Control_c, 0, 64, 127
1, 15600, Note_on_c, 0, 57, 0
1, 15600, Note_on_c, 0, 60, 0
1, 15600, Note_on_c, 0, 66, 0
1, 15600, Note_on_c, 0, 59, 46
1, 15600, Note_on_c, 0, 56, 41
1, 15840, Tempo, 301508
1, 15840, Note_on_c, 0, 56, 0
1, 15840, Note_on_c, 0, 59, 0
1, 15840, Note_on_c, 0, 66, 49
1, 15840, Note_on_c, 0, 60, 45
1, 15840, Note_on_c, 0, 57, 45
1, 15852, Control_c, 0, 64, 0
1, 15954, Control_c, 0, 64, 127
1, 16080, Note_on_c, 0, 47, 42
1, 16320, Tempo, 299835
1, 16320, Note_on_c, 0, 47, 0
1, 16320, Note_on_c, 0, 66, 0
1, 16320, Note_on_c, 0, 60, 0
1, 16320, Note_on_c, 0, 57, 0
1, 16320, Note_on_c, 0, 59, 43
1, 16320, Note_on_c, 0, 64, 46
1, 16320, Note_on_c, 0, 56, 44
1, 16334, Control_c, 0, 64, 0
1, 16560, Note_on_c, 0, 56, 0
1, 16560, Note_on_c, 0, 64, 0
1, 16560, Note_on_c, 0, 59, 0
1, 16560, Note_on_c, 0, 47, 38
1, 16800, Tempo, 302160
1, 16800, Note_on_c, 0, 47, 0
1, 16800, Note_on_c, 0, 58, 45
1, 16800, Note_on_c, 0, 64, 49
1, 16800, Note_on_c, 0, 55, 45
1, 16823, Control_c, 0, 64, 127
1, 17040, Note_on_c, 0, 55, 0
1, 17040, Note_on_c, 0, 64, 0
1, 17040, Note_on_c, 0, 58, 0
1, 17040, Note_on_c, 0, 47, 43
1, 17280, Note_on_c, 0, 47, 0
1, 17280, Note_on_c, 0, 58, 47
1, 17280, Note_on_c, 0, 62, 52
1, 17280, Note_on_c, 0, 54, 49
1, 17294, Control_c, 0, 64, 0
1, 17394, Control_c, 0, 64, 127
1, 17520, Note_on_c, 0, 54, 0
1, 17520, Note_on_c, 0, 62, 0
1, 17520, Note_on_c, 0, 58, 0
1, 17520, Note_on_c, 0, 47, 50
1, 17760, Note_on_c, 0, 47, 0
1, 17760, Note_on_c, 0, 61, 50
1, 17760, Note_on_c, 0, 58, 45
1, 17760, Note_on_c, 0, 52, 47
1, 18000, Tempo, 303721
1, 18000, Note_on_c, 0, 52, 0
1, 18000, Note_on_c, 0, 58, 0
1, 18000, Note_on_c, 0, 61, 0
1, 18000, Note_on_c, 0, 59, 47
1, 18000, Note_on_c, 0, 50, 44
1, 18000, Note_on_c, 0, 47, 44
1, 18004, Control_c, 0, 64, 0
1, 18240, Tempo, 299835
1, 18240, Note_on_c, 0, 47, 0
1, 18240, Note_on_c, 0, 50, 0
1, 18240, Note_on_c, 0, 59, 0
1, 18240, Note_on_c, 0, 53, 52
1, 18360, Note_on_c, 0, 53, 0
1, 18480, Tempo, 308515
1, 18480, Note_on_c, 0, 54, 54
1, 18600, Note_on_c, 0, 54, 0
1, 18720, Tempo, 302160
1, 18720, Note_on_c, 0, 55, 59
1, 18817, Control_c, 0, 64, 127
1, 18960, Tempo, 302160
1, 18960, Note_on_c, 0, 62, 47
1, 18960, Note_on_c, 0, 71, 47
1, 18960, Note_on_c, 0, 74, 47
1, 19080, Note_on_c, 0, 74, 0
1, 19080, Note_on_c, 0, 71, 0
1, 19080, Note_on_c, 0, 62, 0
1, 19200, Note_on_c, 0, 74, 49
1, 19200, Note_on_c, 0, 71, 49
1, 19200, Note_on_c, 0, 64, 49
1, 19320, Note_on_c, 0, 64, 0
1, 19320, Note_on_c, 0, 71, 0
1, 19320, Note_on_c, 0, 74, 0
1, 19440, Tempo, 303721
1, 19440, Note_on_c, 0, 55, 0
1, 19440, Note_on_c, 0, 74, 46
1, 19440, Note_on_c, 0, 71, 46
1, 19440, Note_on_c, 0, 65, 46
1, 19440, Note_on_c, 0, 43, 49
1, 19456, Control_c, 0, 64, 0
1, 19560, Note_on_c, 0, 65, 0
1, 19560, Note_on_c, 0, 74, 0
1, 19560, Note_on_c, 0, 71, 0
1, 19680, Tempo, 302160
1, 19680, Note_on_c, 0, 43, 0
1, 19680, Note_on_c, 0, 45, 51
1, 19800, Note_on_c, 0, 45, 0
1, 19920, Note_on_c, 0, 43, 49
1, 20040, Note_on_c, 0, 43, 0
1, 20160, Note_on_c, 0, 42, 51
1, 20234, Control_c, 0, 64, 127
1, 20400, Tempo, 303721
1, 20400, Note_on_c, 0, 66, 45
1, 20400, Note_on_c, 0, 59, 45
1, 20400, Note_on_c, 0, 56, 45
1, 20520, Note_on_c, 0, 56, 0
1, 20520, Note_on_c, 0, 59, 0
1, 20520, Note_on_c, 0, 66, 0
1, 20640, Note_on_c, 0, 64, 44
1, 20640, Note_on_c, 0, 61, 44
1, 20640, Note_on_c, 0, 58, 44
1, 20760, Note_on_c, 0, 58, 0
1, 20760, Note_on_c, 0, 61, 0
1, 20760, Note_on_c, 0, 64, 0
1, 20880, Tempo, 304507
1, 20880, Note_on_c, 0, 42, 0
1, 20880, Note_on_c, 0, 59, 46
1, 20880, Note_on_c, 0, 62, 46
1, 20880, Note_on_c, 0, 47, 48
1, 20890, Control_c, 0, 64, 0
1, 21000, Note_on_c, 0, 62, 0
1, 21000, Note_on_c, 0, 59, 0
1, 21120, Tempo, 299835
1, 21120, Note_on_c, 0, 47, 0
1, 21120, Note_on_c, 0, 53, 51
1, 21240, Note_on_c, 0, 53, 0
1, 21360, Note_on_c, 0, 54, 54
1, 21480, Note_on_c, 0, 54, 0
1, 21600, Tempo, 303721
1, 21600, Note_on_c, 0, 55, 60
1, 21706, Control_c, 0, 64, 127
1, 21840, Tempo, 302160
1, 21840, Note_on_c, 0, 71, 50
1, 21840, Note_on_c, 0, 62, 50
1, 21840, Note_on_c, 0, 74, 50
1, 21960, Note_on_c, 0, 74, 0
1, 21960, Note_on_c, 0, 62, 0
1, 21960, Note_on_c, 0, 71, 0
1, 22080, Note_on_c, 0, 64, 53
1, 22080, Note_on_c, 0, 71, 53
1, 22080, Note_on_c, 0, 74, 53
1, 22200, Note_on_c, 0, 74, 0
1, 22200, Note_on_c, 0, 71, 0
1, 22200, Note_on_c, 0, 64, 0
1, 22320, Tempo, 305312
1, 22320, Note_on_c, 0, 65, 58
1, 22320, Note_on_c, 0, 71, 58
1, 22320, Note_on_c, 0, 74, 58
1, 22329, Control_c, 0, 64, 0
1, 22560, Tempo, 304507
1, 22560, Note_on_c, 0, 55, 0
1, 22560, Note_on_c, 0, 56, 66
1, 22800, Note_on_c, 0, 65, 0
1, 22800, Note_on_c, 0, 74, 0
1, 22800, Note_on_c, 0, 71, 0
1, 22800, Note_on_c, 0, 65, 62
1, 22800, Note_on_c, 0, 71, 62
1, 22800, Note_on_c, 0, 73, 62
1, 22864, Control_c, 0, 64, 127
1, 23040, Tempo, 306107
1, 23040, Note_on_c, 0, 56, 0
1, 23040, Note_on_c, 0, 61, 66
1, 23280, Tempo, 308515
1, 23280, Note_on_c, 0, 65, 0
1, 23280, Note_on_c, 0, 73, 0
1, 23280, Note_on_c, 0, 71, 0
1, 23280, Note_on_c, 0, 71, 68
1, 23280, Note_on_c, 0, 73, 68
1, 23280, Note_on_c, 0, 77, 68
1, 23297, Control_c, 0, 64, 0
1, 23404, Control_c, 0, 64, 127
1, 23520, Tempo, 302160
1, 23520, Note_on_c, 0, 61, 0
1, 23520, Note_on_c, 0, 68, 68
1, 23760, Tempo, 500000
1, 23760, Note_on_c, 0, 68, 0
1, 23760, Note_on_c, 0, 77, 0
1, 23760, Note_on_c, 0, 73, 0
1, 23760, Note_on_c, 0, 71, 0
1, 23760, Note_on_c, 0, 78, 69
1, 23760, Note_on_c, 0, 73, 69
1, 23760, Note_on_c, 0, 70, 69
1, 23760, Note_on_c, 0, 66, 61
1, 23777, Control_c, 0, 64, 0
1, 23940, Note_on_c, 0, 66, 0
1, 23940, Note_on_c, 0, 78, 0
1, 23940, Note_on_c, 0, 73, 0
1, 23940, Note_on_c, 0, 70, 0
1, 24000, Tempo, 297767
1, 24000, Note_on_c, 0, 83, 49
1, 24000, Note_on_c, 0, 78, 45
1, 24000, Note_on_c, 0, 74, 45
1, 24149, Control_c, 0, 64, 127
1, 24240, Note_on_c, 0, 74, 0
1, 24240, Note_on_c, 0, 78, 0
1, 24240, Note_on_c, 0, 83, 0
1, 24240, Note_on_c, 0, 77, 46
1, 24240, Note_on_c, 0, 73, 43
1, 24480, Tempo, 299252
1, 24480, Note_on_c, 0, 73, 0
1, 24480, Note_on_c, 0, 77, 0
1, 24480, Note_on_c, 0, 78, 45
1, 24480, Note_on_c, 0, 83, 49
1, 24480, Note_on_c, 0, 74, 45
1, 24494, Control_c, 0, 64, 0
1, 24574, Control_c, 0, 64, 127
1, 24720, Note_on_c, 0, 66, 36
1, 24960, Tempo, 305312
1, 24960, Note_on_c, 0, 66, 0
1, 24960, Note_on_c, 0, 78, 0
1, 24960, Note_on_c, 0, 83, 0
1, 24960, Note_on_c, 0, 74, 0
1, 24960, Note_on_c, 0, 76, 45
1, 24960, Note_on_c, 0, 82, 49
1, 24960, Note_on_c, 0, 73, 43
1, 24975, Control_c, 0, 64, 0
1, 25200, Note_on_c, 0, 73, 0
1, 25200, Note_on_c, 0, 82, 0
1, 25200, Note_on_c, 0, 76, 0
1, 25200, Note_on_c, 0, 66, 33
1, 25440, Tempo, 298507
1, 25440, Note_on_c, 0, 74, 45
1, 25440, Note_on_c, 0, 79, 49
1, 25440, Note_on_c, 0, 71, 44
1, 25543, Control_c, 0, 64, 127
1, 25680, Note_on_c, 0, 71, 0
1, 25680, Note_on_c, 0, 79, 0
1, 25680, Note_on_c, 0, 74, 0
1, 25680, Note_on_c, 0, 73, 45
1, 25680, Note_on_c, 0, 70, 42
1, 25920, Tempo, 300752
1, 25920, Note_on_c, 0, 70, 0
1, 25920, Note_on_c, 0, 73, 0
1, 25920, Note_on_c, 0, 74, 45
1, 25920, Note_on_c, 0, 79, 49
1, 25920, Note_on_c, 0, 71, 45
1, 25934, Control_c, 0, 64, 0
1, 26011, Control_c, 0, 64, 127
1, 26160, Note_on_c, 0, 66, 0
1, 26160, Note_on_c, 0, 66, 39
1, 26400, Tempo, 306905
1, 26400, Note_on_c, 0, 66, 0
1, 26400, Note_on_c, 0, 71, 0
1, 26400, Note_on_c, 0, 79, 0
1, 26400, Note_on_c, 0, 74, 0
1, 26400, Note_on_c, 0, 73, 44
1, 26400, Note_on_c, 0, 78, 47
1, 26400, Note_on_c, 0, 70, 44
1, 26411, Control_c, 0, 64, 0
1, 26640, Tempo, 320000
1, 26640, Note_on_c, 0, 70, 0
1, 26640, Note_on_c, 0, 78, 0
1, 26640, Note_on_c, 0, 73, 0
1, 26640, Note_on_c, 0, 66, 37
1, 26880, Tempo, 294840
1, 26880, Note_on_c, 0, 66, 0
1, 26880, Note_on_c, 0, 72, 62
1, 26880, Note_on_c, 0, 78, 69
1, 26880, Note_on_c, 0, 69, 60
1, 26880, Note_on_c, 0, 64, 60
1, 26960, Control_c, 0, 64, 127
1, 27120, Tempo, 297767
1, 27120, Note_on_c, 0, 78, 0
1, 27120, Note_on_c, 0, 72, 0
1, 27120, Note_on_c, 0, 71, 64
1, 27360, Tempo, 303721
1, 27360, Note_on_c, 0, 71, 0
1, 27360, Note_on_c, 0, 72, 62
1, 27360, Note_on_c, 0, 78, 69
1, 27600, Tempo, 294840
1, 27600, Note_on_c, 0, 78, 0
1, 27600, Note_on_c, 0, 64, 0
1, 27600, Note_on_c, 0, 69, 0
1, 27600, Note_on_c, 0, 72, 0
1, 27600, Note_on_c, 0, 72, 67
1, 27600, Note_on_c, 0, 66, 67
1, 27600, Note_on_c, 0, 64, 53
1, 27600, Note_on_c, 0, 57, 53
1, 27610, Control_c, 0, 64, 0
1, 27703, Control_c, 0, 64, 127
1, 27840, Tempo, 297767
1, 27840, Note_on_c, 0, 66, 0
1, 27840, Note_on_c, 0, 72, 0
1, 27840, Note_on_c, 0, 65, 60
1, 28080, Tempo, 304507
1, 28080, Note_on_c, 0, 65, 0
1, 28080, Note_on_c, 0, 66, 64
1, 28080, Note_on_c, 0, 72, 64
1, 28320, Tempo, 299835
1, 28320, Note_on_c, 0, 72, 0
1, 28320, Note_on_c, 0, 57, 0
1, 28320, Note_on_c, 0, 64, 0
1, 28320, Note_on_c, 0, 66, 0
1, 28320, Note_on_c, 0, 60, 67
1, 28320, Note_on_c, 0, 64, 67
1, 28320, Note_on_c, 0, 57, 53
1, 28320, Note_on_c, 0, 54, 53
1, 28338, Control_c, 0, 64, 0
1, 28491, Control_c, 0, 64, 127
1, 28560, Note_on_c, 0, 64, 0
1, 28560, Note_on_c, 0, 60, 0
1, 28560, Note_on_c, 0, 59, 67
1, 28800, Tempo, 300601
1, 28800, Note_on_c, 0, 59, 0
1, 28800, Note_on_c, 0, 60, 64
1, 28800, Note_on_c, 0, 64, 64
1, 28800, Control_c, 0, 64, 0
1, 29040, Tempo, 309342
1, 29040, Note_on_c, 0, 64, 0
1, 29040, Note_on_c, 0, 54, 0
1, 29040, Note_on_c, 0, 57, 0
1, 29040, Note_on_c, 0, 60, 0
1, 29040, Note_on_c, 0, 48, 53
1, 29160, Note_on_c, 0, 48, 0
1, 29274, Control_c, 0, 64, 127
1, 29280, Tempo, 304507
1, 29280, Note_on_c, 0, 63, 66
1, 29280, Note_on_c, 0, 54, 66
1, 29280, Note_on_c, 0, 57, 66
1, 29280, Note_on_c, 0, 47, 46
1, 29400, Note_on_c, 0, 47, 0
1, 29400, Note_on_c, 0, 63, 0
1, 29400, Note_on_c, 0, 54, 0
1, 29400, Note_on_c, 0, 57, 0
1, 29520, Tempo, 401338
1, 29520, Note_on_c, 0, 64, 70
1, 29520, Note_on_c, 0, 59, 70
1, 29520, Note_on_c, 0, 55, 70
1, 29520, Note_on_c, 0, 52, 53
1, 29535, Control_c, 0, 64, 0
1, 29640, Note_on_c, 0, 52, 0
1, 29640, Note_on_c, 0, 64, 0
1, 29640, Note_on_c, 0, 59, 0
1, 29640, Note_on_c, 0, 55, 0
1, 29760, Tempo, 298507
1, 29760, Note_on_c, 0, 83, 50
1, 29760, Note_on_c, 0, 88, 55
1, 29760, Note_on_c, 0, 79, 50
1, 29869, Control_c, 0, 64, 127
1, 30000, Note_on_c, 0, 79, 0
1, 30000, Note_on_c, 0, 88, 0
1, 30000, Note_on_c, 0, 83, 0
1, 30000, Note_on_c, 0, 82, 52
1, 30000, Note_on_c, 0, 78, 48
1, 30240, Tempo, 299252
1, 30240, Note_on_c, 0, 78, 0
1, 30240, Note_on_c, 0, 82, 0
1, 30240, Note_on_c, 0, 83, 50
1, 30240, Note_on_c, 0, 88, 55
1, 30240, Note_on_c, 0, 79, 50
1, 30252, Control_c, 0, 64, 0
1, 30326, Control_c, 0, 64, 127
1, 30480, Note_on_c, 0, 71, 46
1, 30720, Tempo, 305312
1, 30720, Note_on_c, 0, 71, 0
1, 30720, Note_on_c, 0, 83, 0
1, 30720, Note_on_c, 0, 88, 0
1, 30720, Note_on_c, 0, 79, 0
1, 30720, Note_on_c, 0, 87, 55
1, 30720, Note_on_c, 0, 81, 50
1, 30720, Note_on_c, 0, 78, 48
1, 30738, Control_c, 0, 64, 0
1, 30960, Note_on_c, 0, 78, 0
1, 30960, Note_on_c, 0, 81, 0
1, 30960, Note_on_c, 0, 87, 0
1, 30960, Note_on_c, 0, 71, 43
1, 31200, Tempo, 298507
1, 31200, Note_on_c, 0, 79, 50
1, 31200, Note_on_c, 0, 84, 55
1, 31200, Note_on_c, 0, 76, 49
1, 31303, Control_c, 0, 64, 127
1, 31440, Note_on_c, 0, 76, 0
1, 31440, Note_on_c, 0, 84, 0
1, 31440, Note_on_c, 0, 79, 0
1, 31440, Note_on_c, 0, 78, 51
1, 31440, Note_on_c, 0, 75, 47
1, 31680, Tempo, 299252
1, 31680, Note_on_c, 0, 75, 0
1, 31680, Note_on_c, 0, 78, 0
1, 31680, Note_on_c, 0, 79, 50
1, 31680, Note_on_c, 0, 84, 55
1, 31680, Note_on_c, 0, 76, 50
1, 31694, Control_c, 0, 64, 0
1, 31771, Control_c, 0, 64, 127
1, 31920, Note_on_c, 0, 71, 0
1, 31920, Note_on_c, 0, 71, 44
1, 32160, Tempo, 306905
1, 32160, Note_on_c, 0, 71, 0
1, 32160, Note_on_c, 0, 76, 0
1, 32160, Note_on_c, 0, 84, 0
1, 32160, Note_on_c, 0, 79, 0
1, 32160, Note_on_c, 0, 78, 49
1, 32160, Note_on_c, 0, 83, 53
1, 32160, Note_on_c, 0, 75, 49
1, 32171, Control_c, 0, 64, 0
1, 32400, Tempo, 314961
1, 32400, Note_on_c, 0, 75, 0
1, 32400, Note_on_c, 0, 83, 0
1, 32400, Note_on_c, 0, 78, 0
1, 32400, Note_on_c, 0, 71, 38
1, 32640, Tempo, 296296
1, 32640, Note_on_c, 0, 71, 0
1, 32640, Note_on_c, 0, 77, 62
1, 32640, Note_on_c, 0, 83, 69
1, 32640, Note_on_c, 0, 69, 60
1, 32640, Note_on_c, 0, 74, 60
1, 32720, Control_c, 0, 64, 127
1, 32880, Tempo, 298507
1, 32880, Note_on_c, 0, 83, 0
1, 32880, Note_on_c, 0, 77, 0
1, 32880, Note_on_c, 0, 76, 64
1, 33120, Tempo, 303721
1, 33120, Note_on_c, 0, 76, 0
1, 33120, Note_on_c, 0, 77, 62
1, 33120, Note_on_c, 0, 83, 69
1, 33360, Tempo, 296296
1, 33360, Note_on_c, 0, 83, 0
1, 33360, Note_on_c, 0, 74, 0
1, 33360, Note_on_c, 0, 69, 0
1, 33360, Note_on_c, 0, 77, 0
1, 33360, Note_on_c, 0, 71, 67
1, 33360, Note_on_c, 0, 77, 67
1, 33360, Note_on_c, 0, 62, 53
1, 33360, Note_on_c, 0, 69, 53
1, 33383, Control_c, 0, 64, 0
1, 33463, Control_c, 0, 64, 127
1, 33600, Tempo, 302160
1, 33600, Note_on_c, 0, 77, 0
1, 33600, Note_on_c, 0, 71, 0
1, 33600, Note_on_c, 0, 70, 60
1, 33840, Tempo, 304507
1, 33840, Note_on_c, 0, 70, 0
1, 33840, Note_on_c, 0, 71, 64
1, 33840, Note_on_c, 0, 77, 64
1, 34080, Tempo, 299835
1, 34080, Note_on_c, 0, 77, 0
1, 34080, Note_on_c, 0, 69, 0
1, 34080, Note_on_c, 0, 62, 0
1, 34080, Note_on_c, 0, 71, 0
1, 34080, Note_on_c, 0, 69, 67
1, 34080, Note_on_c, 0, 65, 67
1, 34080, Note_on_c, 0, 59, 53
1, 34080, Note_on_c, 0, 62, 53
1, 34090, Control_c, 0, 64, 0
1, 34120, Tempo, 297030
1, 34251, Control_c, 0, 64, 127
1, 34320, Note_on_c, 0, 65, 0
1, 34320, Note_on_c, 0, 69, 0
1, 34320, Note_on_c, 0, 64, 67
1, 34560, Tempo, 300601
1, 34560, Note_on_c, 0, 64, 0
1, 34560, Note_on_c, 0, 65, 64
1, 34560, Note_on_c, 0, 69, 64
1, 34560, Control_c, 0, 64, 0
1, 34800, Tempo, 309342
1, 34800, Note_on_c, 0, 69, 0
1, 34800, Note_on_c, 0, 62, 0
1, 34800, Note_on_c, 0, 59, 0
1, 34800, Note_on_c, 0, 65, 0
1, 34800, Note_on_c, 0, 53, 53
1, 34920, Note_on_c, 0, 53, 0
1, 35034, Control_c, 0, 64, 127
1, 35040, Tempo, 304507
1, 35040, Note_on_c, 0, 68, 58
1, 35040, Note_on_c, 0, 62, 58
1, 35040, Note_on_c, 0, 59, 52
1, 35040, Note_on_c, 0, 52, 40
1, 35160, Note_on_c, 0, 52, 0
1, 35280, Note_on_c, 0, 68, 0
1, 35280, Note_on_c, 0, 62, 0
1, 35280, Note_on_c, 0, 59, 0
1, 35280, Note_on_c, 0, 69, 58
1, 35280, Note_on_c, 0, 60, 52
1, 35280, Note_on_c, 0, 45, 47
1, 35297, Control_c, 0, 64, 0
1, 35400, Note_on_c, 0, 45, 0
1, 35520, Tempo, 302160
1, 35520, Note_on_c, 0, 60, 0
1, 35520, Note_on_c, 0, 69, 0
1, 35520, Note_on_c, 0, 69, 56
1, 35520, Note_on_c, 0, 60, 50
1, 35520, Note_on_c, 0, 53, 37
1, 35583, Control_c, 0, 64, 127
1, 35640, Note_on_c, 0, 53, 0
1, 35760, Note_on_c, 0, 52, 37
1, 35880, Note_on_c, 0, 52, 0
1, 36000, Note_on_c, 0, 60, 0
1, 36000, Note_on_c, 0, 69, 0
1, 36000, Note_on_c, 0, 62, 49
1, 36000, Note_on_c, 0, 68, 55
1, 36000, Note_on_c, 0, 71, 55
1, 36000, Note_on_c, 0, 45, 43
1, 36009, Control_c, 0, 64, 0
1, 36091, Control_c, 0, 64, 127
1, 36120, Note_on_c, 0, 45, 0
1, 36240, Note_on_c, 0, 53, 37
1, 36360, Note_on_c, 0, 53, 0
1, 36480, Note_on_c, 0, 71, 0
1, 36480, Note_on_c, 0, 68, 0
1, 36480, Note_on_c, 0, 62, 0
1, 36480, Note_on_c, 0, 72, 57
1, 36480, Note_on_c, 0, 69, 57
1, 36480, Note_on_c, 0, 64, 51
1, 36480, Note_on_c, 0, 52, 37
1, 36600, Note_on_c, 0, 52, 0
1, 36720, Tempo, 305312
1, 36720, Note_on_c, 0, 72, 0
1, 36720, Note_on_c, 0, 69, 0
1, 36720, Note_on_c, 0, 64, 0
1, 36720, Note_on_c, 0, 45, 43
1, 36730, Control_c, 0, 64, 0
1, 36840, Note_on_c, 0, 45, 0
1, 36960, Tempo, 303721
1, 36960, Note_on_c, 0, 69, 57
1, 36960, Note_on_c, 0, 60, 51
1, 36960, Note_on_c, 0, 53, 37
1, 37040, Control_c, 0, 64, 127
1, 37080, Note_on_c, 0, 53, 0
1, 37200, Note_on_c, 0, 52, 37
1, 37320, Note_on_c, 0, 52, 0
1, 37440, Note_on_c, 0, 60, 0
1, 37440, Note_on_c, 0, 69, 0
1, 37440, Note_on_c, 0, 68, 55
1, 37440, Note_on_c, 0, 62, 55
1, 37440, Note_on_c, 0, 59, 49
1, 37440, Note_on_c, 0, 45, 43
1, 37451, Control_c, 0, 64, 0
1, 37457, Control_c, 0, 64, 0
1, 37549, Control_c, 0, 64, 127
1, 37560, Note_on_c, 0, 45, 0
1, 37680, Note_on_c, 0, 53, 38
1, 37687, Control_c, 0, 64, 0
1, 37800, Note_on_c, 0, 53, 0
1, 37920, Note_on_c, 0, 59, 0
1, 37920, Note_on_c, 0, 62, 0
1, 37920, Note_on_c, 0, 68, 0
1, 37920, Note_on_c, 0, 69, 55
1, 37920, Note_on_c, 0, 60, 55
1, 37920, Note_on_c, 0, 57, 49
1, 37920, Note_on_c, 0, 52, 38
1, 38040, Note_on_c, 0, 52, 0
1, 38160, Tempo, 306107
1, 38160, Note_on_c, 0, 69, 0
1, 38160, Note_on_c, 0, 60, 0
1, 38160, Note_on_c, 0, 57, 0
1, 38160, Note_on_c, 0, 45, 45
1, 38280, Note_on_c, 0, 45, 0
1, 38400, Tempo, 302160
1, 38400, Note_on_c, 0, 64, 52
1, 38400, Note_on_c, 0, 72, 58
1, 38400, Note_on_c, 0, 57, 39
1, 38474, Control_c, 0, 64, 127
1, 38520, Note_on_c, 0, 57, 0
1, 38640, Note_on_c, 0, 56, 39
1, 38760, Note_on_c, 0, 56, 0
1, 38880, Note_on_c, 0, 72, 0
1, 38880, Note_on_c, 0, 64, 0
1, 38880, Note_on_c, 0, 74, 61
1, 38880, Note_on_c, 0, 71, 61
1, 38880, Note_on_c, 0, 65, 54
1, 38880, Note_on_c, 0, 48, 48
1, 38880, Control_c, 0, 64, 0
1, 38914, Control_c, 0, 64, 127
1, 39000, Note_on_c, 0, 48, 0
1, 39120, Note_on_c, 0, 57, 44
1, 39240, Note_on_c, 0, 57, 0
1, 39360, Note_on_c, 0, 65, 0
1, 39360, Note_on_c, 0, 71, 0
1, 39360, Note_on_c, 0, 74, 0
1, 39360, Note_on_c, 0, 64, 56
1, 39360, Note_on_c, 0, 72, 63
1, 39360, Note_on_c, 0, 76, 63
1, 39360, Note_on_c, 0, 56, 44
1, 39480, Note_on_c, 0, 56, 0
1, 39600, Tempo, 306107
1, 39600, Note_on_c, 0, 64, 0
1, 39600, Note_on_c, 0, 72, 0
1, 39600, Note_on_c, 0, 76, 0
1, 39600, Note_on_c, 0, 48, 47
1, 39611, Control_c, 0, 64, 0
1, 39720, Note_on_c, 0, 48, 0
1, 39840, Tempo, 303721
1, 39840, Note_on_c, 0, 64, 53
1, 39840, Note_on_c, 0, 72, 59
1, 39840, Note_on_c, 0, 57, 44
1, 39886, Control_c, 0, 64, 127
1, 39960, Note_on_c, 0, 57, 0
1, 40080, Note_on_c, 0, 56, 44
1, 40200, Note_on_c, 0, 56, 0
1, 40320, Note_on_c, 0, 72, 0
1, 40320, Note_on_c, 0, 64, 0
1, 40320, Note_on_c, 0, 62, 51
1, 40320, Note_on_c, 0, 71, 57
1, 40320, Note_on_c, 0, 65, 51
1, 40320, Note_on_c, 0, 48, 47
1, 40327, Control_c, 0, 64, 0
1, 40406, Control_c, 0, 64, 127
1, 40440, Note_on_c, 0, 48, 0
1, 40560, Note_on_c, 0, 57, 43
1, 40680, Note_on_c, 0, 57, 0
1, 40800, Note_on_c, 0, 65, 0
1, 40800, Note_on_c, 0, 71, 0
1, 40800, Note_on_c, 0, 62, 0
1, 40800, Note_on_c, 0, 72, 58
1, 40800, Note_on_c, 0, 64, 58
1, 40800, Note_on_c, 0, 60, 52
1, 40800, Note_on_c, 0, 56, 43
1, 40920, Note_on_c, 0, 56, 0
1, 41040, Tempo, 306107
1, 41040, Note_on_c, 0, 72, 0
1, 41040, Note_on_c, 0, 64, 0
1, 41040, Note_on_c, 0, 60, 0
1, 41040, Note_on_c, 0, 48, 49
1, 41057, Control_c, 0, 64, 0
1, 41160, Note_on_c, 0, 48, 0
1, 41280, Tempo, 302160
1, 41280, Note_on_c, 0, 67, 55
1, 41280, Note_on_c, 0, 76, 62
1, 41280, Note_on_c, 0, 60, 44
1, 41331, Control_c, 0, 64, 127
1, 41400, Note_on_c, 0, 60, 0
1, 41520, Note_on_c, 0, 59, 44
1, 41640, Note_on_c, 0, 59, 0
1, 41760, Note_on_c, 0, 76, 0
1, 41760, Note_on_c, 0, 67, 0
1, 41760, Note_on_c, 0, 69, 54
1, 41760, Note_on_c, 0, 75, 55
1, 41760, Note_on_c, 0, 78, 61
1, 41760, Note_on_c, 0, 52, 48
1, 41768, Control_c, 0, 64, 0
1, 41880, Note_on_c, 0, 52, 0
1, 41880, Control_c, 0, 64, 127
1, 42000, Note_on_c, 0, 60, 43
1, 42120, Note_on_c, 0, 60, 0
1, 42240, Note_on_c, 0, 78, 0
1, 42240, Note_on_c, 0, 75, 0
1, 42240, Note_on_c, 0, 69, 0
1, 42240, Note_on_c, 0, 79, 61
1, 42240, Note_on_c, 0, 67, 54
1, 42240, Note_on_c, 0, 76, 61
1, 42240, Note_on_c, 0, 59, 43
1, 42246, Control_c, 0, 64, 0
1, 42360, Note_on_c, 0, 59, 0
1, 42480, Tempo, 304507
1, 42480, Note_on_c, 0, 79, 0
1, 42480, Note_on_c, 0, 67, 0
1, 42480, Note_on_c, 0, 76, 0
1, 42480, Note_on_c, 0, 52, 49
1, 42600, Note_on_c, 0, 52, 0
1, 42720, Tempo, 302160
1, 42720, Note_on_c, 0, 71, 60
1, 42720, Note_on_c, 0, 79, 67
1, 42720, Note_on_c, 0, 64, 44
1, 42789, Control_c, 0, 64, 127
1, 42840, Note_on_c, 0, 64, 0
1, 42960, Note_on_c, 0, 63, 44
1, 43080, Note_on_c, 0, 63, 0
1, 43200, Note_on_c, 0, 79, 0
1, 43200, Note_on_c, 0, 71, 0
1, 43200, Note_on_c, 0, 72, 57
1, 43200, Note_on_c, 0, 81, 64
1, 43200, Note_on_c, 0, 78, 57
1, 43200, Note_on_c, 0, 55, 51
1, 43207, Control_c, 0, 64, 0
1, 43291, Control_c, 0, 64, 127
1, 43320, Note_on_c, 0, 55, 0
1, 43440, Note_on_c, 0, 64, 46
1, 43560, Note_on_c, 0, 64, 0
1, 43680, Note_on_c, 0, 78, 0
1, 43680, Note_on_c, 0, 81, 0
1, 43680, Note_on_c, 0, 72, 0
1, 43680, Note_on_c, 0, 71, 57
1, 43680, Note_on_c, 0, 79, 64
1, 43680, Note_on_c, 0, 83, 64
1, 43680, Note_on_c, 0, 63, 47
1, 43800, Note_on_c, 0, 63, 0
1, 43920, Tempo, 306107
1, 43920, Note_on_c, 0, 71, 0
1, 43920, Note_on_c, 0, 79, 0
1, 43920, Note_on_c, 0, 83, 0
1, 43920, Note_on_c, 0, 55, 51
1, 43925, Control_c, 0, 64, 0
1, 44040, Note_on_c, 0, 55, 0
1, 44160, Tempo, 302160
1, 44160, Note_on_c, 0, 83, 69
1, 44160, Note_on_c, 0, 74, 62
1, 44160, Note_on_c, 0, 67, 46
1, 44280, Note_on_c, 0, 67, 0
1, 44286, Control_c, 0, 64, 127
1, 44400, Note_on_c, 0, 66, 46
1, 44520, Note_on_c, 0, 66, 0
1, 44640, Note_on_c, 0, 74, 0
1, 44640, Note_on_c, 0, 83, 0
1, 44640, Note_on_c, 0, 85, 67
1, 44640, Note_on_c, 0, 82, 60
1, 44640, Note_on_c, 0, 76, 60
1, 44640, Note_on_c, 0, 59, 54
1, 44648, Control_c, 0, 64, 0
1, 44737, Control_c, 0, 64, 127
1, 44760, Note_on_c, 0, 59, 0
1, 44880, Note_on_c, 0, 67, 49
1, 45000, Note_on_c, 0, 67, 0
1, 45120, Note_on_c, 0, 76, 0
1, 45120, Note_on_c, 0, 82, 0
1, 45120, Note_on_c, 0, 85, 0
1, 45120, Note_on_c, 0, 74, 65
1, 45120, Note_on_c, 0, 83, 72
1, 45120, Note_on_c, 0, 86, 72
1, 45120, Note_on_c, 0, 66, 51
1, 45126, Control_c, 0, 64, 0
1, 45240, Note_on_c, 0, 66, 0
1, 45360, Tempo, 305312
1, 45360, Note_on_c, 0, 74, 0
1, 45360, Note_on_c, 0, 83, 0
1, 45360, Note_on_c, 0, 86, 0
1, 45360, Note_on_c, 0, 59, 57
1, 45480, Note_on_c, 0, 59, 0
1, 45600, Tempo, 302160
1, 45600, Note_on_c, 0, 78, 74
1, 45600, Note_on_c, 0, 86, 83
1, 45600, Note_on_c, 0, 71, 53
1, 45669, Control_c, 0, 64, 127
1, 45720, Note_on_c, 0, 71, 0
1, 45840, Note_on_c, 0, 70, 51
1, 45960, Note_on_c, 0, 70, 0
1, 46080, Note_on_c, 0, 86, 0
1, 46080, Note_on_c, 0, 78, 0
1, 46080, Note_on_c, 0, 85, 71
1, 46080, Note_on_c, 0, 88, 79
1, 46080, Note_on_c, 0, 79, 71
1, 46080, Note_on_c, 0, 62, 62
1, 46088, Control_c, 0, 64, 0
1, 46160, Control_c, 0, 64, 127
1, 46200, Note_on_c, 0, 62, 0
1, 46320, Note_on_c, 0, 71, 52
1, 46440, Note_on_c, 0, 71, 0
1, 46560, Note_on_c, 0, 79, 0
1, 46560, Note_on_c, 0, 88, 0
1, 46560, Note_on_c, 0, 85, 0
1, 46560, Note_on_c, 0, 90, 81
1, 46560, Note_on_c, 0, 86, 81
1, 46560, Note_on_c, 0, 78, 72
1, 46560, Note_on_c, 0, 70, 61
1, 46680, Note_on_c, 0, 70, 0
1, 46800, Tempo, 306905
1, 46800, Note_on_c, 0, 90, 0
1, 46800, Note_on_c, 0, 86, 0
1, 46800, Note_on_c, 0, 78, 0
1, 46800, Note_on_c, 0, 62, 49
1, 46808, Control_c, 0, 64, 0
1, 46920, Note_on_c, 0, 62, 0
1, 47040, Tempo, 302160
1, 47040, Note_on_c, 0, 78, 74
1, 47040, Note_on_c, 0, 86, 83
1, 47040, Note_on_c, 0, 90, 83
1, 47040, Note_on_c, 0, 70, 62
1, 47086, Control_c, 0, 64, 127
1, 47280, Note_on_c, 0, 70, 0
1, 47280, Note_on_c, 0, 62, 48
1, 47520, Note_on_c, 0, 62, 0
1, 47520, Note_on_c, 0, 90, 0
1, 47520, Note_on_c, 0, 86, 0
1, 47520, Note_on_c, 0, 78, 0
1, 47520, Note_on_c, 0, 86, 80
1, 47520, Note_on_c, 0, 78, 71
1, 47520, Note_on_c, 0, 90, 80
1, 47520, Note_on_c, 0, 70, 61
1, 47760, Note_on_c, 0, 70, 0
1, 47760, Note_on_c, 0, 62, 48
1, 48000, Note_on_c, 0, 62, 0
1, 48000, Note_on_c, 0, 90, 0
1, 48000, Note_on_c, 0, 78, 0
1, 48000, Note_on_c, 0, 86, 0
1, 48000, Note_on_c, 0, 90, 81
1, 48000, Note_on_c, 0, 86, 81
1, 48000, Note_on_c, 0, 78, 72
1, 48000, Note_on_c, 0, 70, 61
1, 48240, Tempo, 306107
1, 48240, Note_on_c, 0, 70, 0
1, 48240, Note_on_c, 0, 62, 48
1, 48480, Tempo, 302160
1, 48480, Note_on_c, 0, 62, 0
1, 48480, Note_on_c, 0, 78, 0
1, 48480, Note_on_c, 0, 86, 0
1, 48480, Note_on_c, 0, 90, 0
1, 48480, Note_on_c, 0, 88, 82
1, 48480, Note_on_c, 0, 90, 82
1, 48480, Note_on_c, 0, 78, 73
1, 48480, Note_on_c, 0, 70, 61
1, 48499, Control_c, 0, 64, 0
1, 48629, Control_c, 0, 64, 127
1, 48720, Note_on_c, 0, 70, 0
1, 48720, Note_on_c, 0, 61, 48
1, 48960, Note_on_c, 0, 61, 0
1, 48960, Note_on_c, 0, 78, 0
1, 48960, Note_on_c, 0, 90, 0
1, 48960, Note_on_c, 0, 88, 0
1, 48960, Note_on_c, 0, 90, 78
1, 48960, Note_on_c, 0, 88, 78
1, 48960, Note_on_c, 0, 78, 69
1, 48960, Note_on_c, 0, 70, 58
1, 49200, Note_on_c, 0, 70, 0
1, 49200, Note_on_c, 0, 61, 46
1, 49440, Note_on_c, 0, 61, 0
1, 49440, Note_on_c, 0, 78, 0
1, 49440, Note_on_c, 0, 88, 0
1, 49440, Note_on_c, 0, 90, 0
1, 49440, Note_on_c, 0, 78, 70
1, 49440, Note_on_c, 0, 88, 79
1, 49440, Note_on_c, 0, 90, 79
1, 49440, Note_on_c, 0, 70, 57
1, 49680, Tempo, 306107
1, 49680, Note_on_c, 0, 70, 0
1, 49680, Note_on_c, 0, 61, 46
1, 49920, Tempo, 302267
1, 49920, Note_on_c, 0, 61, 0
1, 49920, Note_on_c, 0, 90, 0
1, 49920, Note_on_c, 0, 88, 0
1, 49920, Note_on_c, 0, 78, 0
1, 49920, Note_on_c, 0, 76, 79
1, 49920, Note_on_c, 0, 70, 70
1, 49920, Note_on_c, 0, 78, 79
1, 49920, Note_on_c, 0, 61, 57
1, 49937, Control_c, 0, 64, 0
1, 50012, Control_c, 0, 64, 127
1, 50160, Note_on_c, 0, 61, 0
1, 50160, Note_on_c, 0, 54, 46
1, 50400, Note_on_c, 0, 54, 0
1, 50400, Note_on_c, 0, 78, 0
1, 50400, Note_on_c, 0, 70, 0
1, 50400, Note_on_c, 0, 76, 0
1, 50400, Note_on_c, 0, 76, 79
1, 50400, Note_on_c, 0, 70, 70
1, 50400, Note_on_c, 0, 78, 79
1, 50400, Note_on_c, 0, 61, 56
1, 50640, Note_on_c, 0, 61, 0
1, 50640, Note_on_c, 0, 54, 42
1, 50880, Note_on_c, 0, 54, 0
1, 50880, Note_on_c, 0, 78, 0
1, 50880, Note_on_c, 0, 70, 0
1, 50880, Note_on_c, 0, 76, 0
1, 50880, Note_on_c, 0, 70, 69
1, 50880, Note_on_c, 0, 76, 77
1, 50880, Note_on_c, 0, 78, 77
1, 50880, Note_on_c, 0, 61, 57
1, 51120, Tempo, 338983
1, 51120, Note_on_c, 0, 61, 0
1, 51120, Note_on_c, 0, 54, 44
1, 51360, Tempo, 303030
1, 51360, Note_on_c, 0, 54, 0
1, 51360, Note_on_c, 0, 78, 0
1, 51360, Note_on_c, 0, 76, 0
1, 51360, Note_on_c, 0, 70, 0
1, 51360, Note_on_c, 0, 64, 70
1, 51360, Note_on_c, 0, 66, 70
1, 51360, Note_on_c, 0, 58, 63
1, 51360, Note_on_c, 0, 49, 50
1, 51379, Control_c, 0, 64, 0
1, 51512, Control_c, 0, 64, 127
1, 51560, Tempo, 303797
1, 51600, Note_on_c, 0, 49, 0
1, 51600, Note_on_c, 0, 42, 40
1, 51760, Tempo, 304569
1, 51820, Tempo, 305344
1, 51840, Tempo, 306122
1, 51840, Note_on_c, 0, 42, 0
1, 51840, Note_on_c, 0, 58, 0
1, 51840, Note_on_c, 0, 66, 0
1, 51840, Note_on_c, 0, 64, 0
1, 51840, Note_on_c, 0, 66, 70
1, 51840, Note_on_c, 0, 64, 70
1, 51840, Note_on_c, 0, 58, 63
1, 51840, Note_on_c, 0, 49, 50
1, 51860, Tempo, 306905
1, 51880, Tempo, 307692
1, 51900, Tempo, 308483
1, 51920, Tempo, 309278
1, 51940, Tempo, 310078
1, 51960, Tempo, 310881
1, 51980, Tempo, 311688
1, 52000, Tempo, 312500
1, 52020, Tempo, 313316
1, 52040, Tempo, 314136
1, 52060, Tempo, 315789
1, 52080, Tempo, 316623
1, 52080, Note_on_c, 0, 49, 0
1, 52080, Note_on_c, 0, 42, 41
1, 52100, Tempo, 317460
1, 52120, Tempo, 318302
1, 52140, Tempo, 319149
1, 52160, Tempo, 320000
1, 52180, Tempo, 320856
1, 52200, Tempo, 321716
1, 52220, Tempo, 322581
1, 52240, Tempo, 323450
1, 52260, Tempo, 324324
1, 52280, Tempo, 325203
1, 52300, Tempo, 326975
1, 52320, Tempo, 327869
1, 52320, Note_on_c, 0, 42, 0
1, 52320, Note_on_c, 0, 58, 0
1, 52320, Note_on_c, 0, 64, 0
1, 52320, Note_on_c, 0, 66, 0
1, 52320, Note_on_c, 0, 64, 69
1, 52320, Note_on_c, 0, 66, 69
1, 52320, Note_on_c, 0, 58, 62
1, 52320, Note_on_c, 0, 49, 49
1, 52340, Tempo, 328767
1, 52360, Tempo, 329670
1, 52380, Tempo, 330579
1, 52400, Tempo, 331492
1, 52420, Tempo, 332410
1, 52440, Tempo, 333333
1, 52460, Tempo, 334262
1, 52480, Tempo, 335196
1, 52500, Tempo, 336134
1, 52520, Tempo, 337079
1, 52540, Tempo, 338983
1, 52560, Tempo, 497925
1, 52560, Note_on_c, 0, 49, 0
1, 52560, Note_on_c, 0, 42, 41
1, 52569, Control_c, 0, 64, 0
1, 52740, Note_on_c, 0, 42, 0
1, 52740, Note_on_c, 0, 58, 0
1, 52740, Note_on_c, 0, 66, 0
1, 52740, Note_on_c, 0, 64, 0
1, 52800, Tempo, 298507
1, 52800, Note_on_c, 0, 66, 45
1, 52800, Note_on_c, 0, 71, 49
1, 52800, Note_on_c, 0, 62, 45
1, 52869, Control_c, 0, 64, 127
1, 53040, Note_on_c, 0, 62, 0
1, 53040, Note_on_c, 0, 71, 0
1, 53040, Note_on_c, 0, 66, 0
1, 53040, Note_on_c, 0, 65, 46
1, 53040, Note_on_c, 0, 61, 43
1, 53280, Tempo, 299252
1, 53280, Note_on_c, 0, 61, 0
1, 53280, Note_on_c, 0, 65, 0
1, 53280, Note_on_c, 0, 66, 45
1, 53280, Note_on_c, 0, 71, 49
1, 53280, Note_on_c, 0, 62, 45
1, 53294, Control_c, 0, 64, 0
1, 53362, Control_c, 0, 64, 127
1, 53520, Note_on_c, 0, 47, 40
1, 53760, Tempo, 305312
1, 53760, Note_on_c, 0, 47, 0
1, 53760, Note_on_c, 0, 66, 0
1, 53760, Note_on_c, 0, 71, 0
1, 53760, Note_on_c, 0, 62, 0
1, 53760, Note_on_c, 0, 70, 49
1, 53760, Note_on_c, 0, 64, 45
1, 53760, Note_on_c, 0, 61, 43
1, 53771, Control_c, 0, 64, 0
1, 54000, Note_on_c, 0, 61, 0
1, 54000, Note_on_c, 0, 64, 0
1, 54000, Note_on_c, 0, 70, 0
1, 54000, Note_on_c, 0, 47, 36
1, 54240, Tempo, 302160
1, 54240, Note_on_c, 0, 47, 0
1, 54240, Note_on_c, 0, 62, 45
1, 54240, Note_on_c, 0, 67, 49
1, 54240, Note_on_c, 0, 59, 44
1, 54280, Tempo, 298507
1, 54343, Control_c, 0, 64, 127
1, 54480, Note_on_c, 0, 59, 0
1, 54480, Note_on_c, 0, 67, 0
1, 54480, Note_on_c, 0, 62, 0
1, 54480, Note_on_c, 0, 61, 45
1, 54480, Note_on_c, 0, 58, 42
1, 54720, Tempo, 299252
1, 54720, Note_on_c, 0, 58, 0
1, 54720, Note_on_c, 0, 61, 0
1, 54720, Note_on_c, 0, 62, 45
1, 54720, Note_on_c, 0, 67, 49
1, 54720, Note_on_c, 0, 59, 45
1, 54733, Control_c, 0, 64, 0
1, 54811, Control_c, 0, 64, 127
1, 54960, Note_on_c, 0, 47, 39
1, 55200, Tempo, 306905
1, 55200, Note_on_c, 0, 47, 0
1, 55200, Note_on_c, 0, 62, 0
1, 55200, Note_on_c, 0, 67, 0
1, 55200, Note_on_c, 0, 59, 0
1, 55200, Note_on_c, 0, 61, 44
1, 55200, Note_on_c, 0, 66, 47
1, 55200, Note_on_c, 0, 58, 44
1, 55215, Control_c, 0, 64, 0
1, 55440, Note_on_c, 0, 58, 0
1, 55440, Note_on_c, 0, 66, 0
1, 55440, Note_on_c, 0, 61, 0
1, 55440, Note_on_c, 0, 47, 36
1, 55680, Tempo, 298507
1, 55680, Note_on_c, 0, 47, 0
1, 55680, Note_on_c, 0, 60, 45
1, 55680, Note_on_c, 0, 66, 49
1, 55680, Note_on_c, 0, 57, 44
1, 55760, Control_c, 0, 64, 127
1, 55920, Note_on_c, 0, 57, 0
1, 55920, Note_on_c, 0, 66, 0
1, 55920, Note_on_c, 0, 60, 0
1, 55920, Note_on_c, 0, 59, 46
1, 55920, Note_on_c, 0, 56, 41
1, 56160, Tempo, 300752
1, 56160, Note_on_c, 0, 56, 0
1, 56160, Note_on_c, 0, 59, 0
1, 56160, Note_on_c, 0, 66, 49
1, 56160, Note_on_c, 0, 60, 45
1, 56160, Note_on_c, 0, 57, 45
1, 56176, Control_c, 0, 64, 0
1, 56274, Control_c, 0, 64, 127
1, 56400, Note_on_c, 0, 47, 40
1, 56640, Tempo, 299835
1, 56640, Note_on_c, 0, 47, 0
1, 56640, Note_on_c, 0, 66, 0
1, 56640, Note_on_c, 0, 60, 0
1, 56640, Note_on_c, 0, 57, 0
1, 56640, Note_on_c, 0, 59, 43
1, 56640, Note_on_c, 0, 64, 46
1, 56640, Note_on_c, 0, 56, 44
1, 56656, Control_c, 0, 64, 0
1, 56880, Note_on_c, 0, 56, 0
1, 56880, Note_on_c, 0, 64, 0
1, 56880, Note_on_c, 0, 59, 0
1, 56880, Note_on_c, 0, 47, 37
1, 57120, Tempo, 302160
1, 57120, Note_on_c, 0, 47, 0
1, 57120, Note_on_c, 0, 58, 45
1, 57120, Note_on_c, 0, 64, 49
1, 57120, Note_on_c, 0, 55, 45
1, 57143, Control_c, 0, 64, 127
1, 57360, Note_on_c, 0, 55, 0
1, 57360, Note_on_c, 0, 64, 0
1, 57360, Note_on_c, 0, 58, 0
1, 57360, Note_on_c, 0, 47, 43
1, 57600, Note_on_c, 0, 47, 0
1, 57600, Note_on_c, 0, 58, 47
1, 57600, Note_on_c, 0, 62, 52
1, 57600, Note_on_c, 0, 54, 49
1, 57609, Control_c, 0, 64, 0
1, 57714, Control_c, 0, 64, 127
1, 57840, Note_on_c, 0, 54, 0
1, 57840, Note_on_c, 0, 62, 0
1, 57840, Note_on_c, 0, 58, 0
1, 57840, Note_on_c, 0, 47, 50
1, 58080, Note_on_c, 0, 47, 0
1, 58080, Note_on_c, 0, 61, 50
1, 58080, Note_on_c, 0, 58, 45
1, 58080, Note_on_c, 0, 52, 47
1, 58320, Tempo, 303721
1, 58320, Note_on_c, 0, 52, 0
1, 58320, Note_on_c, 0, 58, 0
1, 58320, Note_on_c, 0, 61, 0
1, 58320, Note_on_c, 0, 59, 47
1, 58320, Note_on_c, 0, 47, 44
1, 58320, Note_on_c, 0, 50, 44
1, 58323, Control_c, 0, 64, 0
1, 58560, Tempo, 299835
1, 58560, Note_on_c, 0, 50, 0
1, 58560, Note_on_c, 0, 47, 0
1, 58560, Note_on_c, 0, 59, 0
1, 58560, Note_on_c, 0, 53, 52
1, 58680, Note_on_c, 0, 53, 0
1, 58800, Tempo, 308515
1, 58800, Note_on_c, 0, 54, 54
1, 58920, Note_on_c, 0, 54, 0
1, 59040, Tempo, 302160
1, 59040, Note_on_c, 0, 55, 59
1, 59103, Control_c, 0, 64, 127
1, 59280, Tempo, 302160
1, 59280, Note_on_c, 0, 62, 47
1, 59280, Note_on_c, 0, 71, 47
1, 59280, Note_on_c, 0, 74, 47
1, 59400, Note_on_c, 0, 74, 0
1, 59400, Note_on_c, 0, 71, 0
1, 59400, Note_on_c, 0, 62, 0
1, 59520, Note_on_c, 0, 74, 49
1, 59520, Note_on_c, 0, 71, 49
1, 59520, Note_on_c, 0, 64, 49
1, 59640, Note_on_c, 0, 64, 0
1, 59640, Note_on_c, 0, 71, 0
1, 59640, Note_on_c, 0, 74, 0
1, 59760, Tempo, 303721
1, 59760, Note_on_c, 0, 55, 0
1, 59760, Note_on_c, 0, 74, 46
1, 59760, Note_on_c, 0, 71, 46
1, 59760, Note_on_c, 0, 65, 46
1, 59760, Note_on_c, 0, 43, 49
1, 59778, Control_c, 0, 64, 0
1, 59880, Note_on_c, 0, 65, 0
1, 59880, Note_on_c, 0, 74, 0
1, 59880, Note_on_c, 0, 71, 0
1, 60000, Tempo, 302160
1, 60000, Note_on_c, 0, 43, 0
1, 60000, Note_on_c, 0, 45, 51
1, 60120, Note_on_c, 0, 45, 0
1, 60240, Note_on_c, 0, 43, 49
1, 60360, Note_on_c, 0, 43, 0
1, 60480, Note_on_c, 0, 42, 51
1, 60543, Control_c, 0, 64, 127
1, 60720, Tempo, 303721
1, 60720, Note_on_c, 0, 66, 45
1, 60720, Note_on_c, 0, 59, 45
1, 60720, Note_on_c, 0, 56, 45
1, 60840, Note_on_c, 0, 56, 0
1, 60840, Note_on_c, 0, 59, 0
1, 60840, Note_on_c, 0, 66, 0
1, 60960, Note_on_c, 0, 64, 46
1, 60960, Note_on_c, 0, 61, 46
1, 60960, Note_on_c, 0, 58, 46
1, 61080, Note_on_c, 0, 58, 0
1, 61080, Note_on_c, 0, 61, 0
1, 61080, Note_on_c, 0, 64, 0
1, 61200, Tempo, 304507
1, 61200, Note_on_c, 0, 42, 0
1, 61200, Note_on_c, 0, 59, 46
1, 61200, Note_on_c, 0, 62, 46
1, 61200, Note_on_c, 0, 47, 48
1, 61217, Control_c, 0, 64, 0
1, 61320, Note_on_c, 0, 62, 0
1, 61320, Note_on_c, 0, 59, 0
1, 61440, Tempo, 299835
1, 61440, Note_on_c, 0, 47, 0
1, 61440, Note_on_c, 0, 53, 51
1, 61560, Note_on_c, 0, 53, 0
1, 61680, Note_on_c, 0, 54, 54
1, 61800, Note_on_c, 0, 54, 0
1, 61920, Tempo, 303721
1, 61920, Note_on_c, 0, 55, 58
1, 61954, Control_c, 0, 64, 127
1, 62160, Tempo, 302160
1, 62160, Note_on_c, 0, 71, 47
1, 62160, Note_on_c, 0, 62, 47
1, 62160, Note_on_c, 0, 74, 47
1, 62280, Note_on_c, 0, 74, 0
1, 62280, Note_on_c, 0, 62, 0
1, 62280, Note_on_c, 0, 71, 0
1, 62400, Note_on_c, 0, 64, 49
1, 62400, Note_on_c, 0, 71, 49
1, 62400, Note_on_c, 0, 74, 49
1, 62520, Note_on_c, 0, 74, 0
1, 62520, Note_on_c, 0, 71, 0
1, 62520, Note_on_c, 0, 64, 0
1, 62640, Tempo, 305312
1, 62640, Note_on_c, 0, 55, 0
1, 62640, Note_on_c, 0, 65, 45
1, 62640, Note_on_c, 0, 71, 45
1, 62640, Note_on_c, 0, 74, 45
1, 62640, Note_on_c, 0, 43, 49
1, 62651, Control_c, 0, 64, 0
1, 62760, Note_on_c, 0, 74, 0
1, 62760, Note_on_c, 0, 65, 0
1, 62760, Note_on_c, 0, 71, 0
1, 62880, Tempo, 302160
1, 62880, Note_on_c, 0, 43, 0
1, 62880, Note_on_c, 0, 45, 54
1, 63000, Note_on_c, 0, 45, 0
1, 63120, Note_on_c, 0, 43, 51
1, 63240, Note_on_c, 0, 43, 0
1, 63360, Tempo, 306107
1, 63360, Note_on_c, 0, 42, 52
1, 63400, Control_c, 0, 64, 127
1, 63600, Tempo, 303721
1, 63600, Note_on_c, 0, 66, 47
1, 63600, Note_on_c, 0, 59, 47
1, 63600, Note_on_c, 0, 56, 47
1, 63720, Note_on_c, 0, 56, 0
1, 63720, Note_on_c, 0, 59, 0
1, 63720, Note_on_c, 0, 66, 0
1, 63840, Note_on_c, 0, 58, 46
1, 63840, Note_on_c, 0, 61, 46
1, 63840, Note_on_c, 0, 64, 46
1, 63960, Note_on_c, 0, 64, 0
1, 63960, Note_on_c, 0, 61, 0
1, 63960, Note_on_c, 0, 58, 0
1, 64080, Tempo, 312630
1, 64080, Note_on_c, 0, 42, 0
1, 64080, Note_on_c, 0, 59, 46
1, 64080, Note_on_c, 0, 62, 46
1, 64080, Note_on_c, 0, 47, 49
1, 64095, Control_c, 0, 64, 0
1, 64200, Note_on_c, 0, 62, 0
1, 64200, Note_on_c, 0, 59, 0
1, 64320, Tempo, 302160
1, 64320, Note_on_c, 0, 47, 0
1, 64320, Note_on_c, 0, 52, 55
1, 64440, Note_on_c, 0, 52, 0
1, 64560, Note_on_c, 0, 50, 52
1, 64680, Note_on_c, 0, 50, 0
1, 64800, Tempo, 305312
1, 64800, Note_on_c, 0, 49, 51
1, 64840, Control_c, 0, 64, 127
1, 65040, Tempo, 303721
1, 65040, Note_on_c, 0, 57, 47
1, 65040, Note_on_c, 0, 69, 47
1, 65040, Note_on_c, 0, 64, 47
1, 65160, Note_on_c, 0, 64, 0
1, 65160, Note_on_c, 0, 69, 0
1, 65160, Note_on_c, 0, 57, 0
1, 65280, Note_on_c, 0, 67, 46
1, 65280, Note_on_c, 0, 64, 46
1, 65280, Note_on_c, 0, 57, 46
1, 65400, Note_on_c, 0, 57, 0
1, 65400, Note_on_c, 0, 64, 0
1, 65400, Note_on_c, 0, 67, 0
1, 65520, Tempo, 312630
1, 65520, Note_on_c, 0, 49, 0
1, 65520, Note_on_c, 0, 66, 47
1, 65520, Note_on_c, 0, 62, 47
1, 65520, Note_on_c, 0, 57, 47
1, 65520, Note_on_c, 0, 50, 50
1, 65534, Control_c, 0, 64, 0
1, 65640, Note_on_c, 0, 57, 0
1, 65640, Note_on_c, 0, 66, 0
1, 65640, Note_on_c, 0, 62, 0
1, 65760, Tempo, 302160
1, 65760, Note_on_c, 0, 50, 0
1, 65760, Note_on_c, 0, 56, 58
1, 65880, Note_on_c, 0, 56, 0
1, 66000, Note_on_c, 0, 54, 56
1, 66120, Note_on_c, 0, 54, 0
1, 66240, Tempo, 305312
1, 66240, Note_on_c, 0, 53, 55
1, 66280, Control_c, 0, 64, 127
1, 66480, Tempo, 303721
1, 66480, Note_on_c, 0, 61, 55
1, 66480, Note_on_c, 0, 73, 55
1, 66480, Note_on_c, 0, 68, 55
1, 66600, Note_on_c, 0, 68, 0
1, 66600, Note_on_c, 0, 73, 0
1, 66600, Note_on_c, 0, 61, 0
1, 66720, Note_on_c, 0, 68, 55
1, 66720, Note_on_c, 0, 61, 55
1, 66720, Note_on_c, 0, 71, 55
1, 66840, Note_on_c, 0, 71, 0
1, 66840, Note_on_c, 0, 61, 0
1, 66840, Note_on_c, 0, 68, 0
1, 66960, Tempo, 312630
1, 66960, Note_on_c, 0, 53, 0
1, 66960, Note_on_c, 0, 61, 55
1, 66960, Note_on_c, 0, 66, 55
1, 66960, Note_on_c, 0, 70, 55
1, 66960, Note_on_c, 0, 54, 52
1, 66977, Control_c, 0, 64, 0
1, 67080, Note_on_c, 0, 70, 0
1, 67080, Note_on_c, 0, 61, 0
1, 67080, Note_on_c, 0, 66, 0
1, 67194, Control_c, 0, 64, 127
1, 67200, Tempo, 300601
1, 67200, Note_on_c, 0, 54, 0
1, 67200, Note_on_c, 0, 73, 66
1, 67200, Note_on_c, 0, 78, 66
1, 67200, Note_on_c, 0, 66, 56
1, 67200, Note_on_c, 0, 58, 56
1, 67440, Note_on_c, 0, 78, 0
1, 67440, Note_on_c, 0, 76, 66
1, 67680, Tempo, 303721
1, 67680, Note_on_c, 0, 76, 0
1, 67680, Note_on_c, 0, 58, 0
1, 67680, Note_on_c, 0, 73, 0
1, 67680, Note_on_c, 0, 74, 64
1, 67680, Note_on_c, 0, 71, 64
1, 67680, Note_on_c, 0, 56, 60
1, 67920, Tempo, 300601
1, 67920, Note_on_c, 0, 56, 0
1, 67920, Note_on_c, 0, 66, 0
1, 67920, Note_on_c, 0, 74, 0
1, 67920, Note_on_c, 0, 71, 0
1, 67920, Note_on_c, 0, 73, 72
1, 67920, Note_on_c, 0, 78, 72
1, 67920, Note_on_c, 0, 66, 60
1, 67920, Note_on_c, 0, 58, 60
1, 67936, Control_c, 0, 64, 0
1, 68034, Control_c, 0, 64, 127
1, 68160, Note_on_c, 0, 78, 0
1, 68160, Note_on_c, 0, 76, 69
1, 68400, Tempo, 304507
1, 68400, Note_on_c, 0, 76, 0
1, 68400, Note_on_c, 0, 58, 0
1, 68400, Note_on_c, 0, 73, 0
1, 68400, Note_on_c, 0, 71, 70
1, 68400, Note_on_c, 0, 74, 70
1, 68400, Note_on_c, 0, 56, 65
1, 68640, Tempo, 300601
1, 68640, Note_on_c, 0, 56, 0
1, 68640, Note_on_c, 0, 66, 0
1, 68640, Note_on_c, 0, 71, 0
1, 68640, Note_on_c, 0, 74, 0
1, 68640, Note_on_c, 0, 73, 77
1, 68640, Note_on_c, 0, 78, 77
1, 68640, Note_on_c, 0, 66, 65
1, 68640, Note_on_c, 0, 58, 65
1, 68659, Control_c, 0, 64, 0
1, 68777, Control_c, 0, 64, 127
1, 68880, Note_on_c, 0, 78, 0
1, 68880, Note_on_c, 0, 76, 78
1, 69120, Tempo, 309342
1, 69120, Note_on_c, 0, 76, 0
1, 69120, Note_on_c, 0, 58, 0
1, 69120, Note_on_c, 0, 73, 0
1, 69120, Note_on_c, 0, 71, 80
1, 69120, Note_on_c, 0, 74, 80
1, 69120, Note_on_c, 0, 56, 71
1, 69360, Tempo, 313480
1, 69360, Note_on_c, 0, 56, 0
1, 69360, Note_on_c, 0, 66, 0
1, 69360, Note_on_c, 0, 71, 0
1, 69360, Note_on_c, 0, 74, 0
1, 69360, Note_on_c, 0, 78, 82
1, 69360, Note_on_c, 0, 73, 82
1, 69360, Control_c, 0, 64, 0
1, 69360, Note_on_c, 0, 58, 72
1, 69360, Note_on_c, 0, 66, 72
1, 69480, Note_on_c, 0, 66, 0
1, 69480, Note_on_c, 0, 78, 0
1, 69480, Note_on_c, 0, 73, 0
1, 69480, Note_on_c, 0, 58, 0
1, 69600, Tempo, 317460
1, 69600, Note_on_c, 0, 71, 78
1, 69600, Note_on_c, 0, 74, 78
1, 69600, Note_on_c, 0, 66, 69
1, 69600, Note_on_c, 0, 59, 69
1, 69720, Note_on_c, 0, 59, 0
1, 69720, Note_on_c, 0, 71, 0
1, 69720, Note_on_c, 0, 74, 0
1, 69720, Note_on_c, 0, 66, 0
1, 69840, Note_on_c, 0, 76, 88
1, 69840, Note_on_c, 0, 71, 74
1, 69840, Note_on_c, 0, 67, 74
1, 69840, Note_on_c, 0, 79, 88
1, 69840, Note_on_c, 0, 59, 63
1, 69840, Note_on_c, 0, 52, 63
1, 69840, Note_on_c, 0, 64, 75
1, 69937, Control_c, 0, 64, 127
1, 70080, Tempo, 322963
1, 70540, Tempo, 307708
1, 70560, Tempo, 313316
1, 70560, Note_on_c, 0, 64, 0
1, 70560, Note_on_c, 0, 59, 0
1, 70560, Note_on_c, 0, 71, 0
1, 70560, Note_on_c, 0, 67, 0
1, 70560, Note_on_c, 0, 76, 0
1, 70560, Note_on_c, 0, 52, 0
1, 70560, Note_on_c, 0, 79, 0
1, 70560, Control_c, 0, 64, 0
1, 70560, Note_on_c, 0, 52, 54
1, 70640, Tempo, 312500
1, 70680, Tempo, 311688
1, 70680, Control_c, 0, 64, 127
1, 70680, Note_on_c, 0, 55, 56
1, 70760, Tempo, 310881
1, 70800, Tempo, 310078
1, 70800, Note_on_c, 0, 55, 0
1, 70800, Note_on_c, 0, 59, 57
1, 70880, Tempo, 309278
1, 70920, Tempo, 308483
1, 70920, Note_on_c, 0, 59, 0
1, 70920, Note_on_c, 0, 61, 59
1, 71000, Tempo, 307692
1, 71040, Tempo, 306905
1, 71040, Note_on_c, 0, 61, 0
1, 71040, Note_on_c, 0, 52, 0
1, 71040, Note_on_c, 0, 64, 64
1, 71120, Tempo, 306122
1, 71160, Tempo, 305344
1, 71160, Note_on_c, 0, 64, 0
1, 71160, Note_on_c, 0, 67, 63
1, 71240, Tempo, 304569
1, 71280, Tempo, 303797
1, 71280, Note_on_c, 0, 67, 0
1, 71280, Note_on_c, 0, 76, 61
1, 71300, Tempo, 302939
1, 71380, Tempo, 302160
1, 71400, Note_on_c, 0, 76, 0
1, 71400, Note_on_c, 0, 73, 60
1, 71520, Note_on_c, 0, 73, 0
1, 71520, Note_on_c, 0, 71, 59
1, 71640, Note_on_c, 0, 71, 0
1, 71640, Note_on_c, 0, 67, 58
1, 71700, Tempo, 302939
1, 71760, Note_on_c, 0, 67, 0
1, 71760, Note_on_c, 0, 64, 56
1, 71880, Note_on_c, 0, 64, 0
1, 71880, Note_on_c, 0, 61, 57
1, 71920, Tempo, 302160
1, 72000, Tempo, 302939
1, 72000, Note_on_c, 0, 61, 0
1, 72000, Note_on_c, 0, 59, 57
1, 72013, Control_c, 0, 64, 0
1, 72064, Control_c, 0, 64, 127
1, 72080, Tempo, 303721
1, 72120, Tempo, 304507
1, 72120, Note_on_c, 0, 59, 0
1, 72120, Note_on_c, 0, 55, 56
1, 72200, Tempo, 305312
1, 72240, Note_on_c, 0, 55, 0
1, 72240, Note_on_c, 0, 52, 56
1, 72280, Tempo, 306107
1, 72320, Tempo, 306905
1, 72360, Note_on_c, 0, 52, 0
1, 72360, Note_on_c, 0, 49, 58
1, 72400, Tempo, 307708
1, 72480, Tempo, 308515
1, 72480, Note_on_c, 0, 49, 0
1, 72480, Note_on_c, 0, 47, 58
1, 72520, Tempo, 309342
1, 72600, Tempo, 310142
1, 72600, Note_on_c, 0, 47, 0
1, 72600, Note_on_c, 0, 43, 58
1, 72640, Tempo, 310978
1, 72700, Tempo, 305312
1, 72720, Tempo, 311802
1, 72720, Note_on_c, 0, 43, 0
1, 72720, Note_on_c, 0, 40, 57
1, 72960, Note_on_c, 0, 40, 0
1, 72960, Note_on_c, 0, 49, 57
1, 73200, Note_on_c, 0, 49, 0
1, 73200, Note_on_c, 0, 59, 56
1, 73200, Note_on_c, 0, 55, 56
1, 73200, Note_on_c, 0, 64, 56
1, 73207, Control_c, 0, 64, 0
1, 73320, Note_on_c, 0, 64, 0
1, 73320, Note_on_c, 0, 55, 0
1, 73320, Note_on_c, 0, 59, 0
1, 73440, Tempo, 310078
1, 73440, Note_on_c, 0, 52, 53
1, 73482, Control_c, 0, 64, 127
1, 73520, Tempo, 309278
1, 73560, Note_on_c, 0, 52, 0
1, 73560, Note_on_c, 0, 59, 55
1, 73600, Tempo, 308483
1, 73680, Tempo, 307692
1, 73680, Note_on_c, 0, 59, 0
1, 73680, Note_on_c, 0, 61, 56
1, 73760, Tempo, 306905
1, 73800, Tempo, 306122
1, 73800, Note_on_c, 0, 61, 0
1, 73800, Note_on_c, 0, 64, 58
1, 73880, Tempo, 305344
1, 73920, Note_on_c, 0, 64, 0
1, 73920, Note_on_c, 0, 67, 63
1, 73960, Tempo, 304569
1, 74040, Tempo, 303797
1, 74040, Note_on_c, 0, 67, 0
1, 74040, Note_on_c, 0, 71, 63
1, 74120, Tempo, 303030
1, 74160, Tempo, 302267
1, 74160, Note_on_c, 0, 71, 0
1, 74160, Note_on_c, 0, 79, 61
1, 74280, Note_on_c, 0, 79, 0
1, 74280, Note_on_c, 0, 76, 60
1, 74400, Note_on_c, 0, 76, 0
1, 74400, Note_on_c, 0, 73, 59
1, 74520, Note_on_c, 0, 73, 0
1, 74520, Note_on_c, 0, 71, 58
1, 74640, Note_on_c, 0, 71, 0
1, 74640, Note_on_c, 0, 67, 57
1, 74760, Note_on_c, 0, 67, 0
1, 74760, Note_on_c, 0, 64, 58
1, 74840, Tempo, 301386
1, 74880, Note_on_c, 0, 64, 0
1, 74880, Note_on_c, 0, 61, 57
1, 74883, Control_c, 0, 64, 0
1, 74960, Tempo, 302160
1, 74986, Control_c, 0, 64, 127
1, 75000, Note_on_c, 0, 61, 0
1, 75000, Note_on_c, 0, 59, 56
1, 75040, Tempo, 302939
1, 75120, Tempo, 303721
1, 75120, Note_on_c, 0, 59, 0
1, 75120, Note_on_c, 0, 55, 56
1, 75200, Tempo, 304507
1, 75240, Note_on_c, 0, 55, 0
1, 75240, Note_on_c, 0, 52, 58
1, 75280, Tempo, 305312
1, 75360, Tempo, 306107
1, 75360, Note_on_c, 0, 52, 0
1, 75360, Note_on_c, 0, 49, 58
1, 75440, Tempo, 306905
1, 75480, Note_on_c, 0, 49, 0
1, 75480, Note_on_c, 0, 47, 58
1, 75520, Tempo, 307708
1, 75560, Tempo, 306107
1, 75600, Tempo, 310978
1, 75600, Note_on_c, 0, 47, 0
1, 75600, Note_on_c, 0, 43, 60
1, 75840, Note_on_c, 0, 43, 0
1, 75840, Note_on_c, 0, 49, 57
1, 76080, Note_on_c, 0, 49, 0
1, 76080, Note_on_c, 0, 64, 62
1, 76080, Note_on_c, 0, 67, 62
1, 76080, Note_on_c, 0, 71, 62
1, 76080, Note_on_c, 0, 59, 62
1, 76085, Control_c, 0, 64, 0
1, 76200, Note_on_c, 0, 59, 0
1, 76200, Note_on_c, 0, 64, 0
1, 76200, Note_on_c, 0, 67, 0
1, 76200, Note_on_c, 0, 71, 0
1, 76320, Tempo, 310978
1, 76320, Control_c, 0, 64, 127
1, 76320, Note_on_c, 0, 42, 63
1, 76440, Note_on_c, 0, 42, 0
1, 76440, Note_on_c, 0, 47, 65
1, 76480, Tempo, 310142
1, 76560, Note_on_c, 0, 47, 0
1, 76560, Note_on_c, 0, 50, 68
1, 76600, Tempo, 309342
1, 76680, Note_on_c, 0, 50, 0
1, 76680, Note_on_c, 0, 54, 70
1, 76720, Tempo, 308515
1, 76800, Note_on_c, 0, 54, 0
1, 76800, Note_on_c, 0, 59, 71
1, 76880, Tempo, 307708
1, 76920, Note_on_c, 0, 59, 0
1, 76920, Note_on_c, 0, 62, 73
1, 77000, Tempo, 306905
1, 77040, Note_on_c, 0, 62, 0
1, 77040, Note_on_c, 0, 66, 75
1, 77040, Note_on_c, 0, 54, 75
1, 77120, Tempo, 306107
1, 77160, Note_on_c, 0, 54, 0
1, 77160, Note_on_c, 0, 66, 0
1, 77160, Note_on_c, 0, 71, 78
1, 77160, Note_on_c, 0, 59, 77
1, 77240, Tempo, 305312
1, 77280, Note_on_c, 0, 59, 0
1, 77280, Note_on_c, 0, 71, 0
1, 77280, Note_on_c, 0, 62, 79
1, 77280, Note_on_c, 0, 74, 79
1, 77400, Note_on_c, 0, 74, 0
1, 77400, Note_on_c, 0, 62, 0
1, 77400, Note_on_c, 0, 66, 81
1, 77400, Note_on_c, 0, 78, 81
1, 77520, Note_on_c, 0, 78, 0
1, 77520, Note_on_c, 0, 66, 0
1, 77520, Note_on_c, 0, 71, 84
1, 77520, Note_on_c, 0, 83, 84
1, 77640, Note_on_c, 0, 83, 0
1, 77640, Note_on_c, 0, 71, 0
1, 77640, Note_on_c, 0, 86, 86
1, 77640, Note_on_c, 0, 74, 86
1, 77760, Tempo, 437956
1, 77760, Note_on_c, 0, 74, 0
1, 77760, Note_on_c, 0, 86, 0
1, 77760, Note_on_c, 0, 90, 90
1, 77760, Note_on_c, 0, 78, 81
1, 77767, Control_c, 0, 64, 0
1, 78000, Tempo, 299252
1, 78000, Note_on_c, 0, 78, 0
1, 78000, Note_on_c, 0, 90, 0
1, 78000, Note_on_c, 0, 64, 72
1, 78000, Note_on_c, 0, 91, 95
1, 78000, Note_on_c, 0, 79, 85
1, 78000, Note_on_c, 0, 76, 80
1, 78120, Note_on_c, 0, 76, 0
1, 78120, Note_on_c, 0, 64, 0
1, 78120, Note_on_c, 0, 91, 0
1, 78120, Note_on_c, 0, 79, 0
1, 78240, Note_on_c, 0, 61, 68
1, 78240, Note_on_c, 0, 88, 90
1, 78240, Note_on_c, 0, 76, 81
1, 78240, Note_on_c, 0, 73, 76
1, 78360, Note_on_c, 0, 73, 0
1, 78360, Note_on_c, 0, 61, 0
1, 78360, Note_on_c, 0, 88, 0
1, 78360, Note_on_c, 0, 76, 0
1, 78440, Tempo, 300000
1, 78480, Note_on_c, 0, 90, 95
1, 78480, Note_on_c, 0, 74, 80
1, 78480, Note_on_c, 0, 62, 72
1, 78480, Note_on_c, 0, 78, 85
1, 78600, Note_on_c, 0, 78, 0
1, 78600, Note_on_c, 0, 90, 0
1, 78600, Note_on_c, 0, 74, 0
1, 78600, Note_on_c, 0, 62, 0
1, 78720, Note_on_c, 0, 74, 81
1, 78720, Note_on_c, 0, 71, 76
1, 78720, Note_on_c, 0, 59, 68
1, 78720, Note_on_c, 0, 86, 90
1, 78840, Note_on_c, 0, 86, 0
1, 78840, Note_on_c, 0, 74, 0
1, 78840, Note_on_c, 0, 71, 0
1, 78840, Note_on_c, 0, 59, 0
1, 78880, Tempo, 300752
1, 78960, Note_on_c, 0, 73, 80
1, 78960, Note_on_c, 0, 76, 85
1, 78960, Note_on_c, 0, 88, 95
1, 78960, Note_on_c, 0, 61, 80
1, 79080, Note_on_c, 0, 61, 0
1, 79080, Note_on_c, 0, 73, 0
1, 79080, Note_on_c, 0, 76, 0
1, 79080, Note_on_c, 0, 88, 0
1, 79200, Note_on_c, 0, 73, 81
1, 79200, Note_on_c, 0, 85, 90
1, 79200, Note_on_c, 0, 58, 68
1, 79200, Note_on_c, 0, 70, 76
1, 79320, Tempo, 301508
1, 79320, Note_on_c, 0, 70, 0
1, 79320, Note_on_c, 0, 73, 0
1, 79320, Note_on_c, 0, 85, 0
1, 79320, Note_on_c, 0, 58, 0
1, 79440, Note_on_c, 0, 86, 94
1, 79440, Note_on_c, 0, 74, 84
1, 79440, Note_on_c, 0, 71, 79
1, 79440, Note_on_c, 0, 59, 71
1, 79560, Note_on_c, 0, 59, 0
1, 79560, Note_on_c, 0, 86, 0
1, 79560, Note_on_c, 0, 74, 0
1, 79560, Note_on_c, 0, 71, 0
1, 79680, Note_on_c, 0, 70, 77
1, 79680, Note_on_c, 0, 66, 73
1, 79680, Note_on_c, 0, 54, 65
1, 79680, Note_on_c, 0, 82, 86
1, 79760, Tempo, 302267
1, 79800, Note_on_c, 0, 82, 0
1, 79800, Note_on_c, 0, 70, 0
1, 79800, Note_on_c, 0, 66, 0
1, 79800, Note_on_c, 0, 54, 0
1, 79920, Note_on_c, 0, 71, 82
1, 79920, Note_on_c, 0, 83, 92
1, 79920, Note_on_c, 0, 55, 70
1, 79920, Note_on_c, 0, 67, 78
1, 80040, Note_on_c, 0, 67, 0
1, 80040, Note_on_c, 0, 71, 0
1, 80040, Note_on_c, 0, 83, 0
1, 80040, Note_on_c, 0, 55, 0
1, 80160, Note_on_c, 0, 78, 85
1, 80160, Note_on_c, 0, 66, 76
1, 80160, Note_on_c, 0, 62, 72
1, 80160, Note_on_c, 0, 50, 64
1, 80200, Tempo, 303030
1, 80280, Note_on_c, 0, 50, 0
1, 80280, Note_on_c, 0, 78, 0
1, 80280, Note_on_c, 0, 66, 0
1, 80280, Note_on_c, 0, 62, 0
1, 80400, Note_on_c, 0, 79, 90
1, 80400, Note_on_c, 0, 67, 81
1, 80400, Note_on_c, 0, 64, 76
1, 80400, Note_on_c, 0, 52, 68
1, 80520, Note_on_c, 0, 52, 0
1, 80520, Note_on_c, 0, 79, 0
1, 80520, Note_on_c, 0, 67, 0
1, 80520, Note_on_c, 0, 64, 0
1, 80600, Tempo, 303797
1, 80640, Tempo, 304569
1, 80640, Note_on_c, 0, 64, 75
1, 80640, Note_on_c, 0, 76, 84
1, 80640, Note_on_c, 0, 49, 63
1, 80640, Note_on_c, 0, 61, 71
1, 80760, Note_on_c, 0, 61, 0
1, 80760, Note_on_c, 0, 64, 0
1, 80760, Note_on_c, 0, 76, 0
1, 80760, Note_on_c, 0, 49, 0
1, 80880, Note_on_c, 0, 66, 81
1, 80880, Note_on_c, 0, 78, 91
1, 80880, Note_on_c, 0, 50, 69
1, 80880, Note_on_c, 0, 62, 77
1, 81000, Note_on_c, 0, 62, 0
1, 81000, Note_on_c, 0, 66, 0
1, 81000, Note_on_c, 0, 78, 0
1, 81000, Note_on_c, 0, 50, 0
1, 81120, Note_on_c, 0, 62, 74
1, 81120, Note_on_c, 0, 74, 83
1, 81120, Note_on_c, 0, 59, 70
1, 81120, Note_on_c, 0, 47, 63
1, 81240, Note_on_c, 0, 47, 0
1, 81240, Note_on_c, 0, 62, 0
1, 81240, Note_on_c, 0, 74, 0
1, 81240, Note_on_c, 0, 59, 0
1, 81360, Note_on_c, 0, 76, 90
1, 81360, Note_on_c, 0, 64, 81
1, 81360, Note_on_c, 0, 49, 68
1, 81360, Note_on_c, 0, 61, 76
1, 81480, Note_on_c, 0, 61, 0
1, 81480, Note_on_c, 0, 76, 0
1, 81480, Note_on_c, 0, 64, 0
1, 81480, Note_on_c, 0, 49, 0
1, 81600, Note_on_c, 0, 73, 82
1, 81600, Note_on_c, 0, 61, 73
1, 81600, Note_on_c, 0, 58, 69
1, 81600, Note_on_c, 0, 46, 62
1, 81720, Note_on_c, 0, 46, 0
1, 81720, Note_on_c, 0, 73, 0
1, 81720, Note_on_c, 0, 61, 0
1, 81720, Note_on_c, 0, 58, 0
1, 81840, Note_on_c, 0, 62, 81
1, 81840, Note_on_c, 0, 74, 90
1, 81840, Note_on_c, 0, 59, 68
1, 81840, Note_on_c, 0, 47, 68
1, 81960, Note_on_c, 0, 47, 0
1, 81960, Note_on_c, 0, 62, 0
1, 81960, Note_on_c, 0, 74, 0
1, 81960, Note_on_c, 0, 59, 0
1, 82080, Tempo, 304507
1, 82080, Note_on_c, 0, 58, 75
1, 82080, Note_on_c, 0, 70, 84
1, 82080, Note_on_c, 0, 54, 71
1, 82080, Note_on_c, 0, 42, 63
1, 82160, Tempo, 305312
1, 82200, Note_on_c, 0, 42, 0
1, 82200, Note_on_c, 0, 58, 0
1, 82200, Note_on_c, 0, 70, 0
1, 82200, Note_on_c, 0, 54, 0
1, 82240, Tempo, 306107
1, 82320, Tempo, 306905
1, 82320, Note_on_c, 0, 59, 81
1, 82320, Note_on_c, 0, 71, 91
1, 82320, Note_on_c, 0, 43, 69
1, 82320, Note_on_c, 0, 55, 77
1, 82400, Tempo, 307708
1, 82440, Note_on_c, 0, 55, 0
1, 82440, Note_on_c, 0, 59, 0
1, 82440, Note_on_c, 0, 71, 0
1, 82440, Note_on_c, 0, 43, 0
1, 82480, Tempo, 308515
1, 82560, Tempo, 325662
1, 82560, Note_on_c, 0, 66, 82
1, 82560, Note_on_c, 0, 54, 73
1, 82560, Note_on_c, 0, 38, 62
1, 82560, Note_on_c, 0, 50, 62
1, 82680, Note_on_c, 0, 50, 0
1, 82680, Note_on_c, 0, 66, 0
1, 82680, Note_on_c, 0, 54, 0
1, 82680, Note_on_c, 0, 38, 0
1, 82800, Tempo, 310978
1, 82800, Note_on_c, 0, 55, 80
1, 82800, Note_on_c, 0, 67, 89
1, 82800, Note_on_c, 0, 40, 67
1, 82800, Note_on_c, 0, 52, 75
1, 82926, Control_c, 0, 64, 127
1, 83280, Note_on_c, 0, 52, 0
1, 83280, Note_on_c, 0, 55, 0
1, 83280, Note_on_c, 0, 67, 0
1, 83280, Note_on_c, 0, 40, 0
1, 83280, Note_on_c, 0, 61, 72
1, 83280, Note_on_c, 0, 64, 72
1, 83280, Note_on_c, 0, 70, 80
1, 83280, Note_on_c, 0, 42, 61
1, 83280, Note_on_c, 0, 54, 68
1, 83297, Control_c, 0, 64, 0
1, 83377, Control_c, 0, 64, 127
1, 83520, Tempo, 318573
1, 83520, Note_on_c, 0, 54, 0
1, 83520, Note_on_c, 0, 70, 0
1, 83520, Note_on_c, 0, 61, 0
1, 83520, Note_on_c, 0, 64, 0
1, 83520, Note_on_c, 0, 42, 0
1, 83520, Note_on_c, 0, 62, 77
1, 83520, Note_on_c, 0, 66, 77
1, 83520, Note_on_c, 0, 71, 86
1, 83520, Note_on_c, 0, 47, 68
1, 83533, Control_c, 0, 64, 0
1, 83760, Tempo, 299835
1, 83760, Note_on_c, 0, 47, 0
1, 83760, Note_on_c, 0, 62, 0
1, 83760, Note_on_c, 0, 66, 0
1, 83760, Note_on_c, 0, 71, 0
1, 83760, Note_on_c, 0, 52, 58
1, 83880, Note_on_c, 0, 52, 0
1, 84000, Tempo, 308515
1, 84000, Note_on_c, 0, 54, 60
1, 84120, Note_on_c, 0, 54, 0
1, 84240, Tempo, 302160
1, 84240, Note_on_c, 0, 55, 66
1, 84303, Control_c, 0, 64, 127
1, 84480, Tempo, 302160
1, 84480, Note_on_c, 0, 74, 56
1, 84480, Note_on_c, 0, 73, 56
1, 84480, Note_on_c, 0, 61, 56
1, 84600, Note_on_c, 0, 61, 0
1, 84600, Note_on_c, 0, 73, 0
1, 84600, Note_on_c, 0, 74, 0
1, 84720, Note_on_c, 0, 62, 53
1, 84720, Note_on_c, 0, 73, 53
1, 84720, Note_on_c, 0, 74, 53
1, 84840, Note_on_c, 0, 74, 0
1, 84840, Note_on_c, 0, 73, 0
1, 84840, Note_on_c, 0, 62, 0
1, 84960, Tempo, 303721
1, 84960, Note_on_c, 0, 74, 52
1, 84960, Note_on_c, 0, 73, 52
1, 84960, Note_on_c, 0, 64, 52
1, 84977, Control_c, 0, 64, 0
1, 85080, Note_on_c, 0, 64, 0
1, 85080, Note_on_c, 0, 73, 0
1, 85080, Note_on_c, 0, 74, 0
1, 85200, Tempo, 302160
1, 85200, Note_on_c, 0, 55, 0
1, 85200, Note_on_c, 0, 45, 57
1, 85320, Note_on_c, 0, 45, 0
1, 85440, Note_on_c, 0, 43, 55
1, 85560, Note_on_c, 0, 43, 0
1, 85680, Note_on_c, 0, 42, 57
1, 85743, Control_c, 0, 64, 127
1, 85920, Tempo, 303721
1, 85920, Note_on_c, 0, 66, 53
1, 85920, Note_on_c, 0, 56, 53
1, 85920, Note_on_c, 0, 59, 53
1, 86040, Note_on_c, 0, 59, 0
1, 86040, Note_on_c, 0, 56, 0
1, 86040, Note_on_c, 0, 66, 0
1, 86160, Note_on_c, 0, 58, 52
1, 86160, Note_on_c, 0, 61, 52
1, 86160, Note_on_c, 0, 66, 52
1, 86280, Note_on_c, 0, 66, 0
1, 86280, Note_on_c, 0, 61, 0
1, 86280, Note_on_c, 0, 58, 0
1, 86400, Tempo, 304507
1, 86400, Note_on_c, 0, 42, 0
1, 86400, Note_on_c, 0, 62, 52
1, 86400, Note_on_c, 0, 59, 52
1, 86400, Note_on_c, 0, 66, 52
1, 86400, Note_on_c, 0, 47, 54
1, 86419, Control_c, 0, 64, 0
1, 86520, Note_on_c, 0, 66, 0
1, 86520, Note_on_c, 0, 62, 0
1, 86520, Note_on_c, 0, 59, 0
1, 86640, Tempo, 299835
1, 86640, Note_on_c, 0, 47, 0
1, 86640, Note_on_c, 0, 52, 57
1, 86760, Note_on_c, 0, 52, 0
1, 86880, Note_on_c, 0, 54, 60
1, 87000, Note_on_c, 0, 54, 0
1, 87120, Tempo, 303721
1, 87120, Note_on_c, 0, 55, 65
1, 87154, Control_c, 0, 64, 127
1, 87360, Tempo, 302160
1, 87360, Note_on_c, 0, 74, 54
1, 87360, Note_on_c, 0, 73, 54
1, 87360, Note_on_c, 0, 61, 54
1, 87480, Note_on_c, 0, 61, 0
1, 87480, Note_on_c, 0, 73, 0
1, 87480, Note_on_c, 0, 74, 0
1, 87600, Note_on_c, 0, 74, 55
1, 87600, Note_on_c, 0, 73, 55
1, 87600, Note_on_c, 0, 62, 55
1, 87720, Note_on_c, 0, 62, 0
1, 87720, Note_on_c, 0, 73, 0
1, 87720, Note_on_c, 0, 74, 0
1, 87840, Tempo, 305312
1, 87840, Note_on_c, 0, 74, 51
1, 87840, Note_on_c, 0, 73, 51
1, 87840, Note_on_c, 0, 64, 51
1, 87861, Control_c, 0, 64, 0
1, 87960, Note_on_c, 0, 64, 0
1, 87960, Note_on_c, 0, 73, 0
1, 87960, Note_on_c, 0, 74, 0
1, 88080, Tempo, 302160
1, 88080, Note_on_c, 0, 55, 0
1, 88080, Note_on_c, 0, 45, 61
1, 88200, Note_on_c, 0, 45, 0
1, 88320, Note_on_c, 0, 43, 57
1, 88440, Note_on_c, 0, 43, 0
1, 88560, Tempo, 306107
1, 88560, Note_on_c, 0, 42, 58
1, 88629, Control_c, 0, 64, 127
1, 88800, Tempo, 303721
1, 88800, Note_on_c, 0, 56, 55
1, 88800, Note_on_c, 0, 66, 55
1, 88800, Note_on_c, 0, 59, 55
1, 88920, Note_on_c, 0, 59, 0
1, 88920, Note_on_c, 0, 66, 0
1, 88920, Note_on_c, 0, 56, 0
1, 89040, Note_on_c, 0, 66, 55
1, 89040, Note_on_c, 0, 61, 55
1, 89040, Note_on_c, 0, 58, 55
1, 89160, Note_on_c, 0, 58, 0
1, 89160, Note_on_c, 0, 61, 0
1, 89160, Note_on_c, 0, 66, 0
1, 89280, Tempo, 306905
1, 89280, Note_on_c, 0, 42, 0
1, 89280, Note_on_c, 0, 66, 52
1, 89280, Note_on_c, 0, 62, 52
1, 89280, Note_on_c, 0, 59, 52
1, 89280, Note_on_c, 0, 47, 58
1, 89280, Control_c, 0, 64, 0
1, 89400, Note_on_c, 0, 47, 0
1, 89400, Note_on_c, 0, 66, 0
1, 89400, Note_on_c, 0, 62, 0
1, 89400, Note_on_c, 0, 59, 0
1, 89520, Tempo, 303721
1, 89520, Note_on_c, 0, 62, 60
1, 89520, Note_on_c, 0, 71, 66
1, 89520, Note_on_c, 0, 66, 60
1, 89520, Note_on_c, 0, 54, 49
1, 89520, Note_on_c, 0, 50, 49
1, 89520, Note_on_c, 0, 59, 55
1, 89589, Control_c, 0, 64, 127
1, 89640, Note_on_c, 0, 59, 0
1, 89640, Note_on_c, 0, 71, 0
1, 89640, Note_on_c, 0, 66, 0
1, 89640, Note_on_c, 0, 62, 0
1, 89640, Note_on_c, 0, 50, 0
1, 89640, Note_on_c, 0, 54, 0
1, 89760, Note_on_c, 0, 70, 62
1, 89760, Note_on_c, 0, 66, 57
1, 89760, Note_on_c, 0, 62, 57
1, 89760, Note_on_c, 0, 50, 45
1, 89760, Note_on_c, 0, 58, 50
1, 89760, Note_on_c, 0, 54, 45
1, 89880, Note_on_c, 0, 54, 0
1, 89880, Note_on_c, 0, 66, 0
1, 89880, Note_on_c, 0, 62, 0
1, 89880, Note_on_c, 0, 70, 0
1, 89880, Note_on_c, 0, 58, 0
1, 89880, Note_on_c, 0, 50, 0
1, 90000, Tempo, 306107
1, 90000, Note_on_c, 0, 62, 60
1, 90000, Note_on_c, 0, 66, 60
1, 90000, Note_on_c, 0, 71, 66
1, 90000, Note_on_c, 0, 54, 48
1, 90000, Note_on_c, 0, 59, 54
1, 90000, Note_on_c, 0, 50, 48
1, 90120, Note_on_c, 0, 50, 0
1, 90120, Note_on_c, 0, 66, 0
1, 90120, Note_on_c, 0, 71, 0
1, 90120, Note_on_c, 0, 62, 0
1, 90120, Note_on_c, 0, 59, 0
1, 90120, Note_on_c, 0, 54, 0
1, 90240, Tempo, 303721
1, 90240, Note_on_c, 0, 74, 67
1, 90240, Note_on_c, 0, 71, 61
1, 90240, Note_on_c, 0, 66, 61
1, 90240, Note_on_c, 0, 54, 50
1, 90240, Note_on_c, 0, 62, 56
1, 90240, Note_on_c, 0, 59, 50
1, 90243, Control_c, 0, 64, 0
1, 90360, Note_on_c, 0, 59, 0
1, 90360, Note_on_c, 0, 71, 0
1, 90360, Note_on_c, 0, 66, 0
1, 90360, Note_on_c, 0, 74, 0
1, 90360, Note_on_c, 0, 62, 0
1, 90360, Note_on_c, 0, 54, 0
1, 90360, Control_c, 0, 64, 127
1, 90480, Note_on_c, 0, 73, 63
1, 90480, Note_on_c, 0, 66, 58
1, 90480, Note_on_c, 0, 71, 58
1, 90480, Note_on_c, 0, 59, 48
1, 90480, Note_on_c, 0, 54, 48
1, 90480, Note_on_c, 0, 61, 54
1, 90600, Note_on_c, 0, 61, 0
1, 90600, Note_on_c, 0, 66, 0
1, 90600, Note_on_c, 0, 71, 0
1, 90600, Note_on_c, 0, 73, 0
1, 90600, Note_on_c, 0, 54, 0
1, 90600, Note_on_c, 0, 59, 0
1, 90720, Tempo, 306107
1, 90720, Note_on_c, 0, 66, 63
1, 90720, Note_on_c, 0, 71, 63
1, 90720, Note_on_c, 0, 74, 69
1, 90720, Note_on_c, 0, 59, 52
1, 90720, Note_on_c, 0, 54, 52
1, 90720, Note_on_c, 0, 62, 58
1, 90840, Note_on_c, 0, 62, 0
1, 90840, Note_on_c, 0, 71, 0
1, 90840, Note_on_c, 0, 74, 0
1, 90840, Note_on_c, 0, 66, 0
1, 90840, Note_on_c, 0, 54, 0
1, 90840, Note_on_c, 0, 59, 0
1, 90960, Tempo, 303721
1, 90960, Note_on_c, 0, 78, 69
1, 90960, Note_on_c, 0, 74, 63
1, 90960, Note_on_c, 0, 71, 63
1, 90960, Note_on_c, 0, 62, 48
1, 90960, Note_on_c, 0, 59, 48
1, 90960, Note_on_c, 0, 66, 54
1, 90963, Control_c, 0, 64, 0
1, 91018, Control_c, 0, 64, 127
1, 91080, Note_on_c, 0, 66, 0
1, 91080, Note_on_c, 0, 74, 0
1, 91080, Note_on_c, 0, 71, 0
1, 91080, Note_on_c, 0, 78, 0
1, 91080, Note_on_c, 0, 59, 0
1, 91080, Note_on_c, 0, 62, 0
1, 91200, Note_on_c, 0, 77, 67
1, 91200, Note_on_c, 0, 74, 61
1, 91200, Note_on_c, 0, 71, 61
1, 91200, Note_on_c, 0, 65, 59
1, 91200, Note_on_c, 0, 59, 53
1, 91200, Note_on_c, 0, 62, 53
1, 91320, Note_on_c, 0, 62, 0
1, 91320, Note_on_c, 0, 74, 0
1, 91320, Note_on_c, 0, 71, 0
1, 91320, Note_on_c, 0, 77, 0
1, 91320, Note_on_c, 0, 59, 0
1, 91320, Note_on_c, 0, 65, 0
1, 91440, Tempo, 305312
1, 91440, Note_on_c, 0, 78, 72
1, 91440, Note_on_c, 0, 74, 66
1, 91440, Note_on_c, 0, 71, 66
1, 91440, Note_on_c, 0, 62, 54
1, 91440, Note_on_c, 0, 66, 60
1, 91440, Note_on_c, 0, 59, 54
1, 91560, Note_on_c, 0, 59, 0
1, 91560, Note_on_c, 0, 74, 0
1, 91560, Note_on_c, 0, 71, 0
1, 91560, Note_on_c, 0, 78, 0
1, 91560, Note_on_c, 0, 66, 0
1, 91560, Note_on_c, 0, 62, 0
1, 91680, Tempo, 303721
1, 91680, Note_on_c, 0, 83, 73
1, 91680, Note_on_c, 0, 78, 67
1, 91680, Note_on_c, 0, 74, 67
1, 91680, Note_on_c, 0, 66, 51
1, 91680, Note_on_c, 0, 71, 57
1, 91680, Note_on_c, 0, 62, 51
1, 91681, Control_c, 0, 64, 0
1, 91783, Control_c, 0, 64, 127
1, 91800, Note_on_c, 0, 62, 0
1, 91800, Note_on_c, 0, 78, 0
1, 91800, Note_on_c, 0, 74, 0
1, 91800, Note_on_c, 0, 83, 0
1, 91800, Note_on_c, 0, 71, 0
1, 91800, Note_on_c, 0, 66, 0
1, 91920, Note_on_c, 0, 74, 63
1, 91920, Note_on_c, 0, 82, 69
1, 91920, Note_on_c, 0, 78, 63
1, 91920, Note_on_c, 0, 62, 55
1, 91920, Note_on_c, 0, 70, 62
1, 91920, Note_on_c, 0, 66, 55
1, 92040, Note_on_c, 0, 66, 0
1, 92040, Note_on_c, 0, 82, 0
1, 92040, Note_on_c, 0, 78, 0
1, 92040, Note_on_c, 0, 74, 0
1, 92040, Note_on_c, 0, 70, 0
1, 92040, Note_on_c, 0, 62, 0
1, 92160, Tempo, 306107
1, 92160, Note_on_c, 0, 83, 74
1, 92160, Note_on_c, 0, 78, 68
1, 92160, Note_on_c, 0, 74, 68
1, 92160, Note_on_c, 0, 62, 55
1, 92160, Note_on_c, 0, 71, 62
1, 92160, Note_on_c, 0, 66, 55
1, 92280, Note_on_c, 0, 66, 0
1, 92280, Note_on_c, 0, 78, 0
1, 92280, Note_on_c, 0, 74, 0
1, 92280, Note_on_c, 0, 83, 0
1, 92280, Note_on_c, 0, 71, 0
1, 92280, Note_on_c, 0, 62, 0
1, 92400, Tempo, 303721
1, 92400, Note_on_c, 0, 86, 75
1, 92400, Note_on_c, 0, 83, 69
1, 92400, Note_on_c, 0, 78, 69
1, 92400, Note_on_c, 0, 71, 55
1, 92400, Note_on_c, 0, 66, 55
1, 92400, Note_on_c, 0, 74, 62
1, 92402, Control_c, 0, 64, 0
1, 92466, Control_c, 0, 64, 127
1, 92520, Note_on_c, 0, 74, 0
1, 92520, Note_on_c, 0, 83, 0
1, 92520, Note_on_c, 0, 78, 0
1, 92520, Note_on_c, 0, 86, 0
1, 92520, Note_on_c, 0, 66, 0
1, 92520, Note_on_c, 0, 71, 0
1, 92640, Note_on_c, 0, 78, 63
1, 92640, Note_on_c, 0, 85, 69
1, 92640, Note_on_c, 0, 83, 63
1, 92640, Note_on_c, 0, 71, 52
1, 92640, Note_on_c, 0, 73, 58
1, 92640, Note_on_c, 0, 66, 52
1, 92760, Note_on_c, 0, 66, 0
1, 92760, Note_on_c, 0, 85, 0
1, 92760, Note_on_c, 0, 83, 0
1, 92760, Note_on_c, 0, 78, 0
1, 92760, Note_on_c, 0, 73, 0
1, 92760, Note_on_c, 0, 71, 0
1, 92880, Tempo, 306107
1, 92880, Note_on_c, 0, 83, 70
1, 92880, Note_on_c, 0, 78, 70
1, 92880, Note_on_c, 0, 86, 77
1, 92880, Note_on_c, 0, 71, 57
1, 92880, Note_on_c, 0, 66, 57
1, 92880, Note_on_c, 0, 74, 64
1, 93000, Note_on_c, 0, 74, 0
1, 93000, Note_on_c, 0, 78, 0
1, 93000, Note_on_c, 0, 86, 0
1, 93000, Note_on_c, 0, 83, 0
1, 93000, Note_on_c, 0, 66, 0
1, 93000, Note_on_c, 0, 71, 0
1, 93120, Tempo, 303721
1, 93120, Note_on_c, 0, 83, 71
1, 93120, Note_on_c, 0, 86, 71
1, 93120, Note_on_c, 0, 90, 78
1, 93120, Note_on_c, 0, 71, 58
1, 93120, Note_on_c, 0, 78, 65
1, 93120, Note_on_c, 0, 74, 58
1, 93122, Control_c, 0, 64, 0
1, 93190, Control_c, 0, 64, 127
1, 93240, Note_on_c, 0, 74, 0
1, 93240, Note_on_c, 0, 86, 0
1, 93240, Note_on_c, 0, 90, 0
1, 93240, Note_on_c, 0, 83, 0
1, 93240, Note_on_c, 0, 78, 0
1, 93240, Note_on_c, 0, 71, 0
1, 93360, Note_on_c, 0, 83, 66
1, 93360, Note_on_c, 0, 86, 66
1, 93360, Note_on_c, 0, 89, 72
1, 93360, Note_on_c, 0, 74, 56
1, 93360, Note_on_c, 0, 71, 56
1, 93360, Note_on_c, 0, 77, 63
1, 93480, Note_on_c, 0, 77, 0
1, 93480, Note_on_c, 0, 86, 0
1, 93480, Note_on_c, 0, 89, 0
1, 93480, Note_on_c, 0, 83, 0
1, 93480, Note_on_c, 0, 71, 0
1, 93480, Note_on_c, 0, 74, 0
1, 93600, Note_on_c, 0, 86, 73
1, 93600, Note_on_c, 0, 83, 73
1, 93600, Note_on_c, 0, 90, 80
1, 93600, Note_on_c, 0, 71, 60
1, 93600, Note_on_c, 0, 78, 67
1, 93600, Note_on_c, 0, 74, 60
1, 93720, Note_on_c, 0, 74, 0
1, 93720, Note_on_c, 0, 83, 0
1, 93720, Note_on_c, 0, 90, 0
1, 93720, Note_on_c, 0, 86, 0
1, 93720, Note_on_c, 0, 78, 0
1, 93720, Note_on_c, 0, 71, 0
1, 93800, Tempo, 303721
1, 93840, Note_on_c, 0, 86, 73
1, 93840, Note_on_c, 0, 90, 73
1, 93840, Note_on_c, 0, 95, 80
1, 93840, Control_c, 0, 64, 0
1, 93840, Note_on_c, 0, 74, 60
1, 93840, Note_on_c, 0, 71, 60
1, 93840, Note_on_c, 0, 83, 67
1, 93840, Note_on_c, 0, 78, 67
1, 93931, Control_c, 0, 64, 127
1, 93960, Note_on_c, 0, 78, 0
1, 93960, Note_on_c, 0, 71, 0
1, 93960, Note_on_c, 0, 90, 0
1, 93960, Note_on_c, 0, 95, 0
1, 93960, Note_on_c, 0, 86, 0
1, 93960, Note_on_c, 0, 83, 0
1, 93960, Note_on_c, 0, 74, 0
1, 94000, Tempo, 302939
1, 94080, Note_on_c, 0, 86, 70
1, 94080, Note_on_c, 0, 90, 70
1, 94080, Note_on_c, 0, 94, 76
1, 94080, Note_on_c, 0, 74, 57
1, 94080, Note_on_c, 0, 71, 57
1, 94080, Note_on_c, 0, 82, 64
1, 94080, Note_on_c, 0, 78, 64
1, 94200, Tempo, 302160
1, 94200, Note_on_c, 0, 78, 0
1, 94200, Note_on_c, 0, 71, 0
1, 94200, Note_on_c, 0, 90, 0
1, 94200, Note_on_c, 0, 94, 0
1, 94200, Note_on_c, 0, 86, 0
1, 94200, Note_on_c, 0, 82, 0
1, 94200, Note_on_c, 0, 74, 0
1, 94320, Note_on_c, 0, 95, 86
1, 94320, Note_on_c, 0, 90, 78
1, 94320, Note_on_c, 0, 86, 78
1, 94320, Note_on_c, 0, 71, 65
1, 94320, Note_on_c, 0, 78, 72
1, 94320, Note_on_c, 0, 74, 65
1, 94320, Note_on_c, 0, 83, 72
1, 94400, Tempo, 301386
1, 94440, Note_on_c, 0, 83, 0
1, 94440, Note_on_c, 0, 78, 0
1, 94440, Note_on_c, 0, 90, 0
1, 94440, Note_on_c, 0, 86, 0
1, 94440, Note_on_c, 0, 95, 0
1, 94440, Note_on_c, 0, 74, 0
1, 94440, Note_on_c, 0, 71, 0
1, 94560, Tempo, 300601
1, 94560, Note_on_c, 0, 86, 82
1, 94560, Note_on_c, 0, 90, 82
1, 94560, Note_on_c, 0, 95, 90
1, 94560, Note_on_c, 0, 71, 65
1, 94560, Note_on_c, 0, 78, 73
1, 94560, Note_on_c, 0, 74, 65
1, 94560, Note_on_c, 0, 83, 73
1, 94566, Control_c, 0, 64, 0
1, 94651, Control_c, 0, 64, 127
1, 94680, Note_on_c, 0, 83, 0
1, 94680, Note_on_c, 0, 78, 0
1, 94680, Note_on_c, 0, 90, 0
1, 94680, Note_on_c, 0, 95, 0
1, 94680, Note_on_c, 0, 86, 0
1, 94680, Note_on_c, 0, 74, 0
1, 94680, Note_on_c, 0, 71, 0
1, 94800, Tempo, 308515
1, 94800, Note_on_c, 0, 94, 85
1, 94800, Note_on_c, 0, 90, 77
1, 94800, Note_on_c, 0, 86, 77
1, 94800, Note_on_c, 0, 71, 63
1, 94800, Note_on_c, 0, 78, 71
1, 94800, Note_on_c, 0, 74, 63
1, 94800, Note_on_c, 0, 82, 71
1, 94920, Note_on_c, 0, 82, 0
1, 94920, Note_on_c, 0, 78, 0
1, 94920, Note_on_c, 0, 90, 0
1, 94920, Note_on_c, 0, 86, 0
1, 94920, Note_on_c, 0, 94, 0
1, 94920, Note_on_c, 0, 74, 0
1, 94920, Note_on_c, 0, 71, 0
1, 95040, Tempo, 303721
1, 95040, Note_on_c, 0, 95, 93
1, 95040, Note_on_c, 0, 86, 85
1, 95040, Note_on_c, 0, 90, 85
1, 95040, Note_on_c, 0, 74, 69
1, 95040, Note_on_c, 0, 71, 69
1, 95040, Note_on_c, 0, 83, 78
1, 95040, Note_on_c, 0, 78, 78
1, 95160, Note_on_c, 0, 78, 0
1, 95160, Note_on_c, 0, 71, 0
1, 95160, Note_on_c, 0, 86, 0
1, 95160, Note_on_c, 0, 90, 0
1, 95160, Note_on_c, 0, 95, 0
1, 95160, Note_on_c, 0, 83, 0
1, 95160, Note_on_c, 0, 74, 0
1, 95760, Tempo, 330579
1, 95760, Note_on_c, 0, 74, 81
1, 95760, Note_on_c, 0, 78, 81
1, 95760, Note_on_c, 0, 83, 89
1, 95760, Note_on_c, 0, 66, 66
1, 95760, Note_on_c, 0, 71, 74
1, 95760, Note_on_c, 0, 59, 66
1, 95769, Control_c, 0, 64, 0
1, 95880, Note_on_c, 0, 59, 0
1, 95880, Note_on_c, 0, 78, 0
1, 95880, Note_on_c, 0, 83, 0
1, 95880, Note_on_c, 0, 74, 0
1, 95880, Note_on_c, 0, 71, 0
1, 95880, Note_on_c, 0, 66, 0
1, 95887, Control_c, 0, 64, 127
1, 96480, Tempo, 353982
1, 96480, Note_on_c, 0, 71, 89
1, 96480, Note_on_c, 0, 66, 81
1, 96480, Note_on_c, 0, 62, 81
1, 96480, Note_on_c, 0, 54, 66
1, 96480, Note_on_c, 0, 59, 74
1, 96480, Note_on_c, 0, 47, 66
1, 96600, Note_on_c, 0, 47, 0
1, 96600, Note_on_c, 0, 66, 0
1, 96600, Note_on_c, 0, 62, 0
1, 96600, Note_on_c, 0, 71, 0
1, 96600, Note_on_c, 0, 59, 0
1, 96600, Note_on_c, 0, 54, 0
1, 97200, Tempo, 425532
1, 97200, Note_on_c, 0, 42, 66
1, 97200, Note_on_c, 0, 35, 66
1, 97200, Note_on_c, 0, 50, 74
1, 97200, Note_on_c, 0, 54, 74
1, 97200, Note_on_c, 0, 59, 81
1, 97200, Note_on_c, 0, 47, 74
1, 97320, Note_on_c, 0, 47, 0
1, 97320, Note_on_c, 0, 35, 0
1, 97320, Note_on_c, 0, 50, 0
1, 97320, Note_on_c, 0, 42, 0
1, 97320, Note_on_c, 0, 59, 0
1, 97320, Note_on_c, 0, 54, 0
1, 97650, Tempo, 497925
1, 97680, Tempo, 1200000
1, 97701, Control_c, 0, 64, 0
1, 97920, Tempo, 324377
1, 97920, Marker_t, "Dolce cantabile"
1, 97920, Note_on_c, 0, 66, 42
1, 97920, Note_on_c, 0, 74, 55
1, 97920, Note_on_c, 0, 57, 36
1, 97920, Note_on_c, 0, 50, 36
1, 98133, Control_c, 0, 64, 127
1, 98640, Tempo, 321871
1, 98640, Note_on_c, 0, 74, 0
1, 98640, Note_on_c, 0, 73, 51
1, 99360, Tempo, 324377
1, 99360, Note_on_c, 0, 73, 0
1, 99360, Note_on_c, 0, 71, 52
1, 99372, Control_c, 0, 64, 0
1, 99600, Control_c, 0, 64, 127
1, 99840, Note_on_c, 0, 71, 0
1, 99840, Note_on_c, 0, 69, 47
1, 100080, Tempo, 321871
1, 100080, Note_on_c, 0, 69, 0
1, 100080, Note_on_c, 0, 69, 47
1, 100800, Tempo, 318302
1, 100800, Note_on_c, 0, 69, 0
1, 100800, Note_on_c, 0, 66, 0
1, 100800, Note_on_c, 0, 57, 0
1, 100800, Note_on_c, 0, 50, 0
1, 100800, Note_on_c, 0, 64, 42
1, 100800, Note_on_c, 0, 71, 55
1, 100800, Control_c, 0, 64, 0
1, 100800, Note_on_c, 0, 49, 36
1, 100800, Note_on_c, 0, 57, 36
1, 101040, Control_c, 0, 64, 127
1, 101520, Tempo, 321044
1, 101520, Note_on_c, 0, 71, 0
1, 101520, Note_on_c, 0, 69, 51
1, 102240, Tempo, 324377
1, 102240, Note_on_c, 0, 69, 0
1, 102240, Note_on_c, 0, 64, 0
1, 102240, Note_on_c, 0, 49, 0
1, 102240, Note_on_c, 0, 63, 42
1, 102240, Note_on_c, 0, 67, 55
1, 102240, Note_on_c, 0, 48, 36
1, 102252, Control_c, 0, 64, 0
1, 102400, Control_c, 0, 64, 127
1, 102720, Note_on_c, 0, 67, 0
1, 102720, Note_on_c, 0, 66, 51
1, 102960, Tempo, 321871
1, 102960, Note_on_c, 0, 66, 0
1, 102960, Note_on_c, 0, 66, 51
1, 103440, Tempo, 330579
1, 103680, Tempo, 318302
1, 103680, Note_on_c, 0, 66, 0
1, 103680, Note_on_c, 0, 57, 0
1, 103680, Note_on_c, 0, 63, 0
1, 103680, Note_on_c, 0, 48, 0
1, 103680, Note_on_c, 0, 69, 55
1, 103680, Note_on_c, 0, 62, 42
1, 103680, Control_c, 0, 64, 0
1, 103680, Note_on_c, 0, 47, 36
1, 103680, Note_on_c, 0, 54, 36
1, 103827, Control_c, 0, 64, 127
1, 104400, Tempo, 321871
1, 104400, Note_on_c, 0, 62, 0
1, 104400, Note_on_c, 0, 69, 0
1, 104400, Note_on_c, 0, 62, 51
1, 105120, Tempo, 324377
1, 105120, Note_on_c, 0, 62, 0
1, 105120, Note_on_c, 0, 54, 0
1, 105120, Note_on_c, 0, 62, 42
1, 105120, Note_on_c, 0, 66, 55
1, 105120, Note_on_c, 0, 56, 36
1, 105136, Control_c, 0, 64, 0
1, 105293, Control_c, 0, 64, 127
1, 105600, Note_on_c, 0, 66, 0
1, 105600, Note_on_c, 0, 64, 51
1, 105840, Tempo, 328623
1, 105840, Note_on_c, 0, 64, 0
1, 105840, Note_on_c, 0, 64, 51
1, 106320, Tempo, 344828
1, 106560, Tempo, 328767
1, 106560, Note_on_c, 0, 64, 0
1, 106560, Note_on_c, 0, 47, 0
1, 106560, Note_on_c, 0, 62, 0
1, 106560, Note_on_c, 0, 56, 0
1, 106560, Note_on_c, 0, 66, 55
1, 106560, Note_on_c, 0, 59, 42
1, 106560, Control_c, 0, 64, 0
1, 106560, Note_on_c, 0, 44, 36
1, 106560, Note_on_c, 0, 50, 36
1, 106707, Control_c, 0, 64, 127
1, 107280, Tempo, 332410
1, 107280, Note_on_c, 0, 59, 0
1, 107280, Note_on_c, 0, 66, 0
1, 107280, Note_on_c, 0, 59, 51
1, 108000, Tempo, 330579
1, 108000, Note_on_c, 0, 59, 0
1, 108000, Note_on_c, 0, 44, 0
1, 108000, Note_on_c, 0, 50, 0
1, 108000, Note_on_c, 0, 58, 40
1, 108000, Note_on_c, 0, 62, 53
1, 108000, Note_on_c, 0, 43, 36
1, 108000, Note_on_c, 0, 52, 36
1, 108015, Control_c, 0, 64, 0
1, 108160, Control_c, 0, 64, 127
1, 108480, Note_on_c, 0, 62, 0
1, 108480, Note_on_c, 0, 61, 49
1, 108720, Note_on_c, 0, 61, 0
1, 108720, Note_on_c, 0, 61, 49
1, 109200, Tempo, 352941
1, 109440, Tempo, 323537
1, 109440, Note_on_c, 0, 61, 0
1, 109440, Note_on_c, 0, 58, 0
1, 109440, Note_on_c, 0, 43, 0
1, 109440, Note_on_c, 0, 52, 0
1, 109440, Note_on_c, 0, 57, 47
1, 109440, Note_on_c, 0, 69, 47
1, 109440, Note_on_c, 0, 62, 47
1, 109440, Control_c, 0, 64, 0
1, 109440, Note_on_c, 0, 42, 47
1, 109440, Note_on_c, 0, 45, 58
1, 109560, Control_c, 0, 64, 127
1, 110160, Tempo, 321871
1, 110160, Note_on_c, 0, 45, 0
1, 110160, Note_on_c, 0, 47, 55
1, 110170, Control_c, 0, 64, 0
1, 110200, Tempo, 321044
1, 110280, Control_c, 0, 64, 127
1, 110880, Tempo, 323537
1, 110880, Note_on_c, 0, 47, 0
1, 110880, Note_on_c, 0, 42, 0
1, 110880, Note_on_c, 0, 57, 0
1, 110880, Note_on_c, 0, 69, 0
1, 110880, Note_on_c, 0, 62, 0
1, 110880, Note_on_c, 0, 54, 46
1, 110880, Note_on_c, 0, 57, 46
1, 110880, Note_on_c, 0, 45, 46
1, 110880, Note_on_c, 0, 49, 57
1, 110893, Control_c, 0, 64, 0
1, 111067, Control_c, 0, 64, 127
1, 111360, Note_on_c, 0, 49, 0
1, 111360, Note_on_c, 0, 50, 54
1, 111600, Tempo, 321044
1, 111600, Note_on_c, 0, 50, 0
1, 111600, Note_on_c, 0, 50, 54
1, 111614, Control_c, 0, 64, 0
1, 111827, Control_c, 0, 64, 127
1, 112320, Tempo, 319149
1, 112320, Note_on_c, 0, 50, 0
1, 112320, Note_on_c, 0, 54, 0
1, 112320, Note_on_c, 0, 57, 0
1, 112320, Note_on_c, 0, 45, 0
1, 112320, Note_on_c, 0, 64, 49
1, 112320, Note_on_c, 0, 71, 49
1, 112320, Note_on_c, 0, 74, 49
1, 112320, Control_c, 0, 64, 0
1, 112320, Note_on_c, 0, 44, 49
1, 112320, Note_on_c, 0, 52, 58
1, 112520, Control_c, 0, 64, 127
1, 113040, Tempo, 319404
1, 113040, Note_on_c, 0, 52, 0
1, 113040, Note_on_c, 0, 54, 57
1, 113050, Control_c, 0, 64, 0
1, 113213, Control_c, 0, 64, 127
1, 113760, Tempo, 322702
1, 113760, Note_on_c, 0, 54, 0
1, 113760, Note_on_c, 0, 44, 0
1, 113760, Note_on_c, 0, 64, 0
1, 113760, Note_on_c, 0, 71, 0
1, 113760, Note_on_c, 0, 74, 0
1, 113760, Note_on_c, 0, 59, 52
1, 113760, Note_on_c, 0, 64, 52
1, 113760, Note_on_c, 0, 50, 52
1, 113760, Note_on_c, 0, 55, 67
1, 113772, Control_c, 0, 64, 0
1, 113886, Control_c, 0, 64, 127
1, 114240, Note_on_c, 0, 55, 0
1, 114240, Note_on_c, 0, 56, 59
1, 114480, Tempo, 319404
1, 114480, Note_on_c, 0, 56, 0
1, 114480, Note_on_c, 0, 56, 59
1, 114492, Control_c, 0, 64, 0
1, 114640, Control_c, 0, 64, 127
1, 115200, Tempo, 318302
1, 115200, Note_on_c, 0, 56, 0
1, 115200, Note_on_c, 0, 59, 0
1, 115200, Note_on_c, 0, 64, 0
1, 115200, Note_on_c, 0, 50, 0
1, 115200, Note_on_c, 0, 64, 52
1, 115200, Note_on_c, 0, 76, 52
1, 115200, Control_c, 0, 64, 0
1, 115200, Note_on_c, 0, 49, 54
1, 115200, Note_on_c, 0, 56, 70
1, 115333, Control_c, 0, 64, 127
1, 115920, Tempo, 325203
1, 115920, Note_on_c, 0, 56, 0
1, 115920, Note_on_c, 0, 57, 66
1, 115932, Control_c, 0, 64, 0
1, 116120, Control_c, 0, 64, 127
1, 116640, Tempo, 330579
1, 116640, Note_on_c, 0, 57, 0
1, 116640, Note_on_c, 0, 49, 0
1, 116640, Note_on_c, 0, 76, 0
1, 116640, Note_on_c, 0, 64, 0
1, 116640, Note_on_c, 0, 63, 50
1, 116640, Note_on_c, 0, 69, 50
1, 116640, Note_on_c, 0, 54, 69
1, 116640, Note_on_c, 0, 59, 69
1, 116652, Control_c, 0, 64, 0
1, 116766, Control_c, 0, 64, 127
1, 117120, Note_on_c, 0, 59, 0
1, 117120, Note_on_c, 0, 60, 63
1, 117360, Tempo, 324324
1, 117360, Note_on_c, 0, 60, 0
1, 117360, Note_on_c, 0, 60, 63
1, 117370, Control_c, 0, 64, 0
1, 117577, Control_c, 0, 64, 127
1, 117840, Tempo, 348837
1, 118080, Tempo, 333333
1, 118080, Note_on_c, 0, 60, 0
1, 118080, Note_on_c, 0, 63, 0
1, 118080, Note_on_c, 0, 69, 0
1, 118080, Note_on_c, 0, 54, 0
1, 118080, Note_on_c, 0, 69, 56
1, 118080, Note_on_c, 0, 76, 56
1, 118080, Note_on_c, 0, 81, 56
1, 118080, Control_c, 0, 64, 0
1, 118080, Note_on_c, 0, 52, 60
1, 118080, Note_on_c, 0, 61, 68
1, 118253, Control_c, 0, 64, 127
1, 118800, Tempo, 326975
1, 118800, Note_on_c, 0, 61, 0
1, 118800, Note_on_c, 0, 69, 0
1, 118800, Note_on_c, 0, 81, 0
1, 118800, Note_on_c, 0, 76, 0
1, 118800, Note_on_c, 0, 69, 56
1, 118800, Note_on_c, 0, 73, 56
1, 118800, Note_on_c, 0, 66, 68
1, 118809, Control_c, 0, 64, 0
1, 118960, Control_c, 0, 64, 127
1, 119280, Tempo, 323450
1, 119280, Note_on_c, 0, 66, 0
1, 119280, Note_on_c, 0, 64, 55
1, 119520, Tempo, 329670
1, 119520, Note_on_c, 0, 64, 0
1, 119520, Note_on_c, 0, 73, 0
1, 119520, Note_on_c, 0, 69, 0
1, 119520, Note_on_c, 0, 52, 0
1, 119520, Note_on_c, 0, 68, 53
1, 119520, Note_on_c, 0, 73, 69
1, 119520, Note_on_c, 0, 52, 45
1, 119520, Note_on_c, 0, 62, 49
1, 119534, Control_c, 0, 64, 0
1, 119707, Control_c, 0, 64, 127
1, 120000, Note_on_c, 0, 73, 0
1, 120000, Note_on_c, 0, 71, 60
1, 120240, Note_on_c, 0, 71, 0
1, 120240, Note_on_c, 0, 62, 0
1, 120240, Note_on_c, 0, 52, 0
1, 120240, Note_on_c, 0, 68, 0
1, 120240, Note_on_c, 0, 69, 60
1, 120240, Note_on_c, 0, 57, 43
1, 120240, Note_on_c, 0, 61, 46
1, 120255, Control_c, 0, 64, 0
1, 120493, Control_c, 0, 64, 127
1, 120720, Tempo, 376176
1, 120960, Tempo, 324377
1, 120960, Note_on_c, 0, 61, 0
1, 120960, Note_on_c, 0, 57, 0
1, 120960, Note_on_c, 0, 69, 0
1, 120960, Note_on_c, 0, 67, 47
1, 120960, Note_on_c, 0, 76, 55
1, 120960, Control_c, 0, 64, 0
1, 120960, Note_on_c, 0, 57, 41
1, 120960, Note_on_c, 0, 49, 41
1, 121173, Control_c, 0, 64, 127
1, 121680, Tempo, 321871
1, 121680, Note_on_c, 0, 76, 0
1, 121680, Note_on_c, 0, 69, 51
1, 122400, Tempo, 324377
1, 122400, Note_on_c, 0, 69, 0
1, 122400, Note_on_c, 0, 49, 0
1, 122400, Note_on_c, 0, 67, 0
1, 122400, Note_on_c, 0, 66, 47
1, 122400, Note_on_c, 0, 71, 55
1, 122400, Note_on_c, 0, 50, 41
1, 122412, Control_c, 0, 64, 0
1, 122547, Control_c, 0, 64, 127
1, 122880, Note_on_c, 0, 71, 0
1, 122880, Note_on_c, 0, 69, 51
1, 123120, Tempo, 321871
1, 123120, Note_on_c, 0, 69, 0
1, 123120, Note_on_c, 0, 69, 51
1, 123600, Tempo, 330579
1, 123840, Tempo, 320000
1, 123840, Note_on_c, 0, 69, 0
1, 123840, Note_on_c, 0, 57, 0
1, 123840, Note_on_c, 0, 66, 0
1, 123840, Note_on_c, 0, 50, 0
1, 123840, Note_on_c, 0, 71, 47
1, 123840, Note_on_c, 0, 69, 47
1, 123840, Control_c, 0, 64, 0
1, 123840, Note_on_c, 0, 66, 55
1, 123840, Note_on_c, 0, 51, 41
1, 123973, Control_c, 0, 64, 127
1, 124560, Tempo, 321871
1, 124560, Note_on_c, 0, 66, 0
1, 124560, Note_on_c, 0, 59, 51
1, 125280, Tempo, 324377
1, 125280, Note_on_c, 0, 59, 0
1, 125280, Note_on_c, 0, 51, 0
1, 125280, Note_on_c, 0, 69, 0
1, 125280, Note_on_c, 0, 71, 0
1, 125280, Note_on_c, 0, 69, 47
1, 125280, Note_on_c, 0, 67, 47
1, 125280, Note_on_c, 0, 61, 53
1, 125280, Note_on_c, 0, 52, 48
1, 125292, Control_c, 0, 64, 0
1, 125427, Control_c, 0, 64, 127
1, 125760, Note_on_c, 0, 61, 0
1, 125760, Note_on_c, 0, 59, 50
1, 126000, Tempo, 321871
1, 126000, Note_on_c, 0, 59, 0
1, 126000, Note_on_c, 0, 69, 0
1, 126000, Note_on_c, 0, 67, 0
1, 126000, Note_on_c, 0, 68, 36
1, 126000, Note_on_c, 0, 71, 36
1, 126000, Note_on_c, 0, 59, 50
1, 126016, Control_c, 0, 64, 0
1, 126213, Control_c, 0, 64, 127
1, 126480, Tempo, 332410
1, 126720, Tempo, 320856
1, 126720, Note_on_c, 0, 59, 0
1, 126720, Note_on_c, 0, 52, 0
1, 126720, Note_on_c, 0, 68, 0
1, 126720, Note_on_c, 0, 71, 0
1, 126720, Note_on_c, 0, 71, 49
1, 126720, Note_on_c, 0, 80, 57
1, 126720, Control_c, 0, 64, 0
1, 126720, Note_on_c, 0, 61, 43
1, 126720, Note_on_c, 0, 53, 43
1, 126960, Control_c, 0, 64, 127
1, 127440, Tempo, 321871
1, 127440, Note_on_c, 0, 80, 0
1, 127440, Note_on_c, 0, 73, 53
1, 128160, Tempo, 324377
1, 128160, Note_on_c, 0, 73, 0
1, 128160, Note_on_c, 0, 53, 0
1, 128160, Note_on_c, 0, 71, 0
1, 128160, Note_on_c, 0, 74, 57
1, 128160, Note_on_c, 0, 69, 49
1, 128160, Note_on_c, 0, 54, 43
1, 128175, Control_c, 0, 64, 0
1, 128307, Control_c, 0, 64, 127
1, 128640, Note_on_c, 0, 74, 0
1, 128653, Note_on_c, 0, 73, 53
1, 128880, Tempo, 321871
1, 128880, Note_on_c, 0, 73, 53
1, 128893, Note_on_c, 0, 73, 0
1, 129600, Tempo, 323450
1, 129600, Note_on_c, 0, 61, 0
1, 129600, Note_on_c, 0, 54, 0
1, 129600, Note_on_c, 0, 69, 0
1, 129600, Note_on_c, 0, 73, 0
1, 129600, Note_on_c, 0, 74, 49
1, 129600, Note_on_c, 0, 72, 49
1, 129600, Control_c, 0, 64, 0
1, 129600, Note_on_c, 0, 69, 57
1, 129600, Note_on_c, 0, 54, 43
1, 129827, Control_c, 0, 64, 127
1, 130320, Tempo, 326087
1, 130320, Note_on_c, 0, 69, 0
1, 130320, Note_on_c, 0, 62, 53
1, 131040, Tempo, 334262
1, 131040, Note_on_c, 0, 62, 0
1, 131040, Note_on_c, 0, 54, 0
1, 131040, Note_on_c, 0, 72, 0
1, 131040, Note_on_c, 0, 74, 0
1, 131040, Note_on_c, 0, 73, 49
1, 131040, Note_on_c, 0, 70, 49
1, 131040, Note_on_c, 0, 64, 55
1, 131040, Note_on_c, 0, 55, 50
1, 131049, Control_c, 0, 64, 0
1, 131187, Control_c, 0, 64, 127
1, 131520, Note_on_c, 0, 64, 0
1, 131520, Note_on_c, 0, 62, 52
1, 131760, Tempo, 327869
1, 131760, Note_on_c, 0, 62, 0
1, 131760, Note_on_c, 0, 73, 0
1, 131760, Note_on_c, 0, 70, 0
1, 131760, Note_on_c, 0, 71, 45
1, 131760, Note_on_c, 0, 74, 45
1, 131760, Note_on_c, 0, 62, 52
1, 131777, Control_c, 0, 64, 0
1, 132027, Control_c, 0, 64, 127
1, 132480, Tempo, 324377
1, 132480, Note_on_c, 0, 62, 0
1, 132480, Note_on_c, 0, 55, 0
1, 132480, Note_on_c, 0, 71, 0
1, 132480, Note_on_c, 0, 74, 0
1, 132480, Note_on_c, 0, 74, 53
1, 132480, Note_on_c, 0, 83, 62
1, 132480, Control_c, 0, 64, 0
1, 132480, Note_on_c, 0, 64, 47
1, 132480, Note_on_c, 0, 56, 47
1, 132720, Control_c, 0, 64, 127
1, 133200, Tempo, 321871
1, 133200, Note_on_c, 0, 83, 0
1, 133200, Note_on_c, 0, 76, 58
1, 133920, Tempo, 324377
1, 133920, Note_on_c, 0, 76, 0
1, 133920, Note_on_c, 0, 56, 0
1, 133920, Note_on_c, 0, 74, 0
1, 133920, Note_on_c, 0, 75, 65
1, 133920, Note_on_c, 0, 73, 56
1, 133920, Note_on_c, 0, 57, 47
1, 133933, Control_c, 0, 64, 0
1, 134107, Control_c, 0, 64, 127
1, 134400, Note_on_c, 0, 75, 0
1, 134400, Note_on_c, 0, 76, 63
1, 134640, Tempo, 321871
1, 134640, Note_on_c, 0, 76, 0
1, 134640, Note_on_c, 0, 76, 63
1, 135120, Tempo, 333333
1, 135360, Tempo, 321716
1, 135360, Note_on_c, 0, 76, 0
1, 135360, Note_on_c, 0, 64, 0
1, 135360, Note_on_c, 0, 73, 0
1, 135360, Note_on_c, 0, 57, 0
1, 135360, Note_on_c, 0, 76, 54
1, 135360, Note_on_c, 0, 85, 68
1, 135360, Note_on_c, 0, 66, 51
1, 135360, Note_on_c, 0, 58, 46
1, 135387, Control_c, 0, 64, 0
1, 135600, Control_c, 0, 64, 127
1, 136080, Tempo, 322581
1, 136080, Note_on_c, 0, 85, 0
1, 136080, Note_on_c, 0, 78, 63
1, 136560, Tempo, 324324
1, 136800, Tempo, 331492
1, 136800, Note_on_c, 0, 78, 0
1, 136800, Note_on_c, 0, 58, 0
1, 136800, Note_on_c, 0, 76, 0
1, 136800, Note_on_c, 0, 77, 71
1, 136800, Note_on_c, 0, 74, 61
1, 136800, Note_on_c, 0, 59, 47
1, 136812, Control_c, 0, 64, 0
1, 136947, Control_c, 0, 64, 127
1, 137280, Note_on_c, 0, 77, 0
1, 137280, Note_on_c, 0, 78, 69
1, 137520, Tempo, 326087
1, 137520, Note_on_c, 0, 78, 0
1, 137520, Note_on_c, 0, 78, 69
1, 138240, Tempo, 330579
1, 138240, Note_on_c, 0, 78, 0
1, 138240, Note_on_c, 0, 66, 0
1, 138240, Note_on_c, 0, 74, 0
1, 138240, Note_on_c, 0, 59, 0
1, 138240, Note_on_c, 0, 68, 58
1, 138240, Note_on_c, 0, 71, 58
1, 138240, Control_c, 0, 64, 0
1, 138240, Note_on_c, 0, 66, 63
1, 138240, Note_on_c, 0, 52, 51
1, 138480, Control_c, 0, 64, 127
1, 138960, Tempo, 326975
1, 138960, Note_on_c, 0, 66, 0
1, 138960, Note_on_c, 0, 59, 56
1, 139680, Tempo, 334262
1, 139680, Note_on_c, 0, 59, 0
1, 139680, Note_on_c, 0, 66, 60
1, 139693, Control_c, 0, 64, 0
1, 139827, Control_c, 0, 64, 127
1, 140160, Note_on_c, 0, 66, 0
1, 140160, Note_on_c, 0, 64, 54
1, 140400, Tempo, 327869
1, 140400, Note_on_c, 0, 64, 0
1, 140400, Note_on_c, 0, 64, 54
1, 140880, Tempo, 343840
1, 141120, Tempo, 343840
1, 141120, Note_on_c, 0, 64, 0
1, 141120, Note_on_c, 0, 68, 0
1, 141120, Note_on_c, 0, 71, 0
1, 141120, Note_on_c, 0, 52, 0
1, 141120, Note_on_c, 0, 67, 57
1, 141120, Note_on_c, 0, 74, 64
1, 141120, Control_c, 0, 64, 0
1, 141120, Note_on_c, 0, 52, 45
1, 141120, Note_on_c, 0, 46, 45
1, 141347, Control_c, 0, 64, 127
1, 141840, Tempo, 340909
1, 141840, Note_on_c, 0, 74, 0
1, 141840, Note_on_c, 0, 67, 0
1, 141840, Note_on_c, 0, 67, 57
1, 142320, Tempo, 384615
1, 142560, Tempo, 349854
1, 142560, Note_on_c, 0, 67, 0
1, 142560, Note_on_c, 0, 46, 0
1, 142560, Note_on_c, 0, 67, 58
1, 142560, Note_on_c, 0, 74, 58
1, 142560, Note_on_c, 0, 45, 39
1, 142573, Control_c, 0, 64, 0
1, 142707, Control_c, 0, 64, 127
1, 143040, Note_on_c, 0, 74, 0
1, 143040, Note_on_c, 0, 73, 51
1, 143280, Tempo, 346821
1, 143280, Note_on_c, 0, 73, 0
1, 143280, Note_on_c, 0, 73, 53
1, 143760, Tempo, 497925
1, 144000, Tempo, 324377
1, 144000, Note_on_c, 0, 73, 0
1, 144000, Note_on_c, 0, 52, 0
1, 144000, Note_on_c, 0, 67, 0
1, 144000, Note_on_c, 0, 45, 0
1, 144000, Note_on_c, 0, 66, 42
1, 144000, Note_on_c, 0, 74, 55
1, 144000, Control_c, 0, 64, 0
1, 144000, Note_on_c, 0, 57, 36
1, 144000, Note_on_c, 0, 50, 36
1, 144240, Control_c, 0, 64, 127
1, 144720, Tempo, 321871
1, 144720, Note_on_c, 0, 74, 0
1, 144720, Note_on_c, 0, 73, 51
1, 145440, Tempo, 324377
1, 145440, Note_on_c, 0, 73, 0
1, 145440, Note_on_c, 0, 71, 52
1, 145452, Control_c, 0, 64, 0
1, 145707, Control_c, 0, 64, 127
1, 145920, Note_on_c, 0, 71, 0
1, 145920, Note_on_c, 0, 69, 47
1, 146160, Tempo, 321871
1, 146160, Note_on_c, 0, 69, 0
1, 146160, Note_on_c, 0, 69, 47
1, 146880, Tempo, 320000
1, 146880, Note_on_c, 0, 69, 0
1, 146880, Note_on_c, 0, 66, 0
1, 146880, Note_on_c, 0, 57, 0
1, 146880, Note_on_c, 0, 50, 0
1, 146880, Note_on_c, 0, 64, 42
1, 146880, Note_on_c, 0, 71, 55
1, 146880, Control_c, 0, 64, 0
1, 146880, Note_on_c, 0, 49, 36
1, 146880, Note_on_c, 0, 57, 36
1, 147080, Control_c, 0, 64, 127
1, 147600, Tempo, 325203
1, 147600, Note_on_c, 0, 71, 0
1, 147600, Note_on_c, 0, 69, 51
1, 148320, Tempo, 324377
1, 148320, Note_on_c, 0, 69, 0
1, 148320, Note_on_c, 0, 64, 0
1, 148320, Note_on_c, 0, 49, 0
1, 148320, Note_on_c, 0, 63, 42
1, 148320, Note_on_c, 0, 67, 55
1, 148320, Note_on_c, 0, 48, 36
1, 148330, Control_c, 0, 64, 0
1, 148520, Control_c, 0, 64, 127
1, 148800, Note_on_c, 0, 67, 0
1, 148800, Note_on_c, 0, 66, 51
1, 149040, Tempo, 321871
1, 149040, Note_on_c, 0, 66, 0
1, 149040, Note_on_c, 0, 66, 51
1, 149520, Tempo, 345821
1, 149760, Tempo, 320000
1, 149760, Note_on_c, 0, 66, 0
1, 149760, Note_on_c, 0, 57, 0
1, 149760, Note_on_c, 0, 63, 0
1, 149760, Note_on_c, 0, 48, 0
1, 149760, Note_on_c, 0, 69, 55
1, 149760, Note_on_c, 0, 62, 42
1, 149760, Control_c, 0, 64, 0
1, 149760, Note_on_c, 0, 47, 36
1, 149760, Note_on_c, 0, 54, 36
1, 150080, Control_c, 0, 64, 127
1, 150480, Tempo, 321871
1, 150480, Note_on_c, 0, 62, 0
1, 150480, Note_on_c, 0, 69, 0
1, 150480, Note_on_c, 0, 62, 51
1, 151200, Tempo, 324377
1, 151200, Note_on_c, 0, 62, 0
1, 151200, Note_on_c, 0, 54, 0
1, 151200, Note_on_c, 0, 62, 42
1, 151200, Note_on_c, 0, 66, 55
1, 151200, Note_on_c, 0, 56, 36
1, 151214, Control_c, 0, 64, 0
1, 151373, Control_c, 0, 64, 127
1, 151680, Note_on_c, 0, 66, 0
1, 151680, Note_on_c, 0, 64, 51
1, 151920, Tempo, 328623
1, 151920, Note_on_c, 0, 64, 0
1, 151920, Note_on_c, 0, 64, 51
1, 152640, Tempo, 325203
1, 152640, Note_on_c, 0, 64, 0
1, 152640, Note_on_c, 0, 47, 0
1, 152640, Note_on_c, 0, 62, 0
1, 152640, Note_on_c, 0, 56, 0
1, 152640, Note_on_c, 0, 66, 55
1, 152640, Note_on_c, 0, 59, 42
1, 152640, Control_c, 0, 64, 0
1, 152640, Note_on_c, 0, 44, 36
1, 152640, Note_on_c, 0, 50, 36
1, 152787, Control_c, 0, 64, 127
1, 153360, Tempo, 332410
1, 153360, Note_on_c, 0, 59, 0
1, 153360, Note_on_c, 0, 66, 0
1, 153360, Note_on_c, 0, 59, 51
1, 154080, Tempo, 337079
1, 154080, Note_on_c, 0, 59, 0
1, 154080, Note_on_c, 0, 44, 0
1, 154080, Note_on_c, 0, 50, 0
1, 154080, Note_on_c, 0, 58, 40
1, 154080, Note_on_c, 0, 62, 53
1, 154080, Note_on_c, 0, 43, 36
1, 154080, Note_on_c, 0, 52, 36
1, 154094, Control_c, 0, 64, 0
1, 154280, Control_c, 0, 64, 127
1, 154560, Note_on_c, 0, 62, 0
1, 154560, Note_on_c, 0, 61, 49
1, 154800, Note_on_c, 0, 61, 0
1, 154800, Note_on_c, 0, 61, 49
1, 155280, Tempo, 350877
1, 155520, Tempo, 326975
1, 155520, Note_on_c, 0, 61, 0
1, 155520, Note_on_c, 0, 58, 0
1, 155520, Note_on_c, 0, 43, 0
1, 155520, Note_on_c, 0, 52, 0
1, 155520, Note_on_c, 0, 57, 47
1, 155520, Note_on_c, 0, 69, 47
1, 155520, Note_on_c, 0, 62, 47
1, 155520, Control_c, 0, 64, 0
1, 155520, Note_on_c, 0, 42, 47
1, 155520, Note_on_c, 0, 45, 58
1, 155693, Control_c, 0, 64, 127
1, 156240, Tempo, 323450
1, 156240, Note_on_c, 0, 45, 0
1, 156240, Note_on_c, 0, 47, 55
1, 156258, Control_c, 0, 64, 0
1, 156280, Tempo, 321044
1, 156453, Control_c, 0, 64, 127
1, 156960, Tempo, 329670
1, 156960, Note_on_c, 0, 47, 0
1, 156960, Note_on_c, 0, 42, 0
1, 156960, Note_on_c, 0, 57, 0
1, 156960, Note_on_c, 0, 69, 0
1, 156960, Note_on_c, 0, 62, 0
1, 156960, Note_on_c, 0, 62, 46
1, 156960, Note_on_c, 0, 54, 46
1, 156960, Note_on_c, 0, 57, 46
1, 156960, Note_on_c, 0, 45, 46
1, 156960, Note_on_c, 0, 47, 57
1, 156971, Control_c, 0, 64, 0
1, 157147, Control_c, 0, 64, 127
1, 157440, Note_on_c, 0, 47, 0
1, 157440, Note_on_c, 0, 48, 54
1, 157680, Tempo, 325203
1, 157680, Note_on_c, 0, 48, 0
1, 157680, Note_on_c, 0, 48, 54
1, 157696, Control_c, 0, 64, 0
1, 157886, Control_c, 0, 64, 127
1, 158400, Tempo, 320856
1, 158400, Note_on_c, 0, 48, 0
1, 158400, Note_on_c, 0, 57, 0
1, 158400, Note_on_c, 0, 62, 0
1, 158400, Note_on_c, 0, 54, 0
1, 158400, Note_on_c, 0, 45, 0
1, 158400, Note_on_c, 0, 62, 49
1, 158400, Note_on_c, 0, 74, 49
1, 158400, Note_on_c, 0, 67, 49
1, 158400, Control_c, 0, 64, 0
1, 158400, Note_on_c, 0, 43, 49
1, 158400, Note_on_c, 0, 46, 61
1, 158600, Control_c, 0, 64, 127
1, 159120, Tempo, 324324
1, 159120, Note_on_c, 0, 46, 0
1, 159120, Note_on_c, 0, 47, 57
1, 159137, Control_c, 0, 64, 0
1, 159320, Control_c, 0, 64, 127
1, 159840, Tempo, 327869
1, 159840, Note_on_c, 0, 47, 0
1, 159840, Note_on_c, 0, 43, 0
1, 159840, Note_on_c, 0, 62, 0
1, 159840, Note_on_c, 0, 74, 0
1, 159840, Note_on_c, 0, 67, 0
1, 159840, Note_on_c, 0, 71, 48
1, 159840, Note_on_c, 0, 59, 48
1, 159840, Note_on_c, 0, 65, 48
1, 159840, Note_on_c, 0, 44, 48
1, 159840, Note_on_c, 0, 49, 60
1, 159851, Control_c, 0, 64, 0
1, 160027, Control_c, 0, 64, 127
1, 160320, Note_on_c, 0, 49, 0
1, 160320, Note_on_c, 0, 50, 56
1, 160560, Tempo, 325203
1, 160560, Note_on_c, 0, 50, 0
1, 160560, Note_on_c, 0, 50, 56
1, 160577, Control_c, 0, 64, 0
1, 160720, Control_c, 0, 64, 127
1, 161280, Tempo, 329670
1, 161280, Note_on_c, 0, 50, 0
1, 161280, Note_on_c, 0, 65, 0
1, 161280, Note_on_c, 0, 71, 0
1, 161280, Note_on_c, 0, 59, 0
1, 161280, Note_on_c, 0, 44, 0
1, 161280, Note_on_c, 0, 57, 51
1, 161280, Note_on_c, 0, 69, 51
1, 161280, Note_on_c, 0, 66, 51
1, 161280, Control_c, 0, 64, 0
1, 161280, Note_on_c, 0, 45, 51
1, 161280, Note_on_c, 0, 50, 64
1, 161480, Control_c, 0, 64, 127
1, 162000, Tempo, 324324
1, 162000, Note_on_c, 0, 50, 0
1, 162000, Note_on_c, 0, 51, 59
1, 162015, Control_c, 0, 64, 0
1, 162227, Control_c, 0, 64, 127
1, 162720, Tempo, 323537
1, 162720, Note_on_c, 0, 51, 0
1, 162720, Note_on_c, 0, 45, 0
1, 162720, Note_on_c, 0, 57, 0
1, 162720, Note_on_c, 0, 69, 0
1, 162720, Note_on_c, 0, 66, 0
1, 162720, Note_on_c, 0, 59, 50
1, 162720, Note_on_c, 0, 64, 50
1, 162720, Note_on_c, 0, 43, 50
1, 162720, Note_on_c, 0, 57, 63
1, 162730, Control_c, 0, 64, 0
1, 162907, Control_c, 0, 64, 127
1, 163200, Note_on_c, 0, 57, 0
1, 163200, Note_on_c, 0, 55, 57
1, 163440, Tempo, 321044
1, 163440, Note_on_c, 0, 55, 0
1, 163440, Note_on_c, 0, 55, 57
1, 163452, Control_c, 0, 64, 0
1, 163627, Control_c, 0, 64, 127
1, 164160, Tempo, 330579
1, 164160, Note_on_c, 0, 55, 0
1, 164160, Note_on_c, 0, 59, 0
1, 164160, Note_on_c, 0, 64, 0
1, 164160, Note_on_c, 0, 43, 0
1, 164160, Note_on_c, 0, 55, 45
1, 164160, Note_on_c, 0, 61, 45
1, 164160, Control_c, 0, 64, 0
1, 164160, Note_on_c, 0, 45, 45
1, 164160, Note_on_c, 0, 54, 54
1, 164347, Control_c, 0, 64, 127
1, 164640, Note_on_c, 0, 54, 0
1, 164640, Note_on_c, 0, 52, 50
1, 164880, Tempo, 326087
1, 164880, Note_on_c, 0, 52, 0
1, 164880, Note_on_c, 0, 52, 50
1, 164895, Control_c, 0, 64, 0
1, 165067, Control_c, 0, 64, 127
1, 165360, Tempo, 353982
1, 165600, Tempo, 340909
1, 165600, Note_on_c, 0, 52, 0
1, 165600, Note_on_c, 0, 55, 0
1, 165600, Note_on_c, 0, 61, 0
1, 165600, Note_on_c, 0, 45, 0
1, 165600, Note_on_c, 0, 54, 40
1, 165600, Note_on_c, 0, 62, 40
1, 165600, Note_on_c, 0, 38, 40
1, 165600, Note_on_c, 0, 46, 48
1, 165615, Control_c, 0, 64, 0
1, 165787, Control_c, 0, 64, 127
1, 166080, Note_on_c, 0, 46, 0
1, 166080, Note_on_c, 0, 45, 44
1, 166320, Tempo, 335196
1, 166320, Note_on_c, 0, 45, 0
1, 166320, Note_on_c, 0, 45, 44
1, 166330, Control_c, 0, 64, 0
1, 166493, Control_c, 0, 64, 127
1, 166800, Tempo, 456274
1, 167040, Tempo, 330579
1, 167040, Note_on_c, 0, 45, 0
1, 167040, Note_on_c, 0, 54, 0
1, 167040, Note_on_c, 0, 62, 0
1, 167040, Note_on_c, 0, 38, 0
1, 167040, Note_on_c, 0, 66, 39
1, 167040, Note_on_c, 0, 71, 55
1, 167040, Control_c, 0, 64, 0
1, 167040, Note_on_c, 0, 62, 46
1, 167040, Note_on_c, 0, 54, 34
1, 167267, Control_c, 0, 64, 127
1, 167760, Tempo, 325203
1, 167760, Note_on_c, 0, 62, 0
1, 167760, Note_on_c, 0, 71, 0
1, 167760, Note_on_c, 0, 70, 51
1, 167760, Note_on_c, 0, 61, 43
1, 167775, Control_c, 0, 64, 0
1, 167947, Control_c, 0, 64, 127
1, 168480, Tempo, 333333
1, 168480, Note_on_c, 0, 61, 0
1, 168480, Note_on_c, 0, 70, 0
1, 168480, Note_on_c, 0, 66, 0
1, 168480, Note_on_c, 0, 61, 36
1, 168480, Note_on_c, 0, 67, 55
1, 168480, Note_on_c, 0, 59, 44
1, 168492, Control_c, 0, 64, 0
1, 168627, Control_c, 0, 64, 127
1, 168960, Note_on_c, 0, 67, 0
1, 168960, Note_on_c, 0, 66, 51
1, 169200, Tempo, 327869
1, 169200, Note_on_c, 0, 66, 0
1, 169200, Note_on_c, 0, 59, 0
1, 169200, Note_on_c, 0, 66, 51
1, 169200, Note_on_c, 0, 58, 41
1, 169213, Control_c, 0, 64, 0
1, 169373, Control_c, 0, 64, 127
1, 169680, Tempo, 339943
1, 169920, Tempo, 326087
1, 169920, Note_on_c, 0, 58, 0
1, 169920, Note_on_c, 0, 54, 0
1, 169920, Note_on_c, 0, 61, 0
1, 169920, Note_on_c, 0, 66, 0
1, 169920, Note_on_c, 0, 64, 35
1, 169920, Note_on_c, 0, 66, 37
1, 169920, Note_on_c, 0, 74, 49
1, 169920, Control_c, 0, 64, 0
1, 169920, Note_on_c, 0, 54, 55
1, 169920, Note_on_c, 0, 56, 34
1, 170080, Control_c, 0, 64, 127
1, 170640, Tempo, 326975
1, 170640, Note_on_c, 0, 56, 0
1, 170640, Note_on_c, 0, 74, 0
1, 170640, Note_on_c, 0, 73, 45
1, 170640, Note_on_c, 0, 58, 51
1, 170659, Control_c, 0, 64, 0
1, 170813, Control_c, 0, 64, 127
1, 171360, Tempo, 333333
1, 171360, Note_on_c, 0, 58, 0
1, 171360, Note_on_c, 0, 64, 0
1, 171360, Note_on_c, 0, 73, 0
1, 171360, Note_on_c, 0, 66, 0
1, 171360, Note_on_c, 0, 62, 44
1, 171360, Note_on_c, 0, 66, 43
1, 171360, Note_on_c, 0, 71, 47
1, 171360, Note_on_c, 0, 59, 53
1, 171375, Control_c, 0, 64, 0
1, 171507, Control_c, 0, 64, 127
1, 171840, Note_on_c, 0, 59, 0
1, 171840, Note_on_c, 0, 61, 49
1, 172080, Tempo, 326975
1, 172080, Note_on_c, 0, 61, 0
1, 172080, Note_on_c, 0, 71, 0
1, 172080, Note_on_c, 0, 66, 0
1, 172080, Note_on_c, 0, 62, 0
1, 172080, Note_on_c, 0, 66, 44
1, 172080, Note_on_c, 0, 70, 44
1, 172080, Note_on_c, 0, 61, 49
1, 172090, Control_c, 0, 64, 0
1, 172227, Control_c, 0, 64, 127
1, 172800, Tempo, 333333
1, 172800, Note_on_c, 0, 61, 0
1, 172800, Note_on_c, 0, 54, 0
1, 172800, Note_on_c, 0, 66, 0
1, 172800, Note_on_c, 0, 70, 0
1, 172800, Note_on_c, 0, 78, 39
1, 172800, Note_on_c, 0, 83, 55
1, 172800, Control_c, 0, 64, 0
1, 172800, Note_on_c, 0, 74, 46
1, 172800, Note_on_c, 0, 66, 34
1, 173027, Control_c, 0, 64, 127
1, 173520, Tempo, 326087
1, 173520, Note_on_c, 0, 74, 0
1, 173520, Note_on_c, 0, 83, 0
1, 173520, Note_on_c, 0, 82, 51
1, 173520, Note_on_c, 0, 73, 43
1, 173530, Control_c, 0, 64, 0
1, 173747, Control_c, 0, 64, 127
1, 174240, Tempo, 334262
1, 174240, Note_on_c, 0, 73, 0
1, 174240, Note_on_c, 0, 82, 0
1, 174240, Note_on_c, 0, 78, 0
1, 174240, Note_on_c, 0, 73, 36
1, 174240, Note_on_c, 0, 79, 55
1, 174240, Note_on_c, 0, 71, 44
1, 174251, Control_c, 0, 64, 0
1, 174387, Control_c, 0, 64, 127
1, 174720, Note_on_c, 0, 71, 0
1, 174720, Note_on_c, 0, 79, 0
1, 174720, Note_on_c, 0, 78, 51
1, 174720, Note_on_c, 0, 70, 41
1, 174960, Tempo, 327869
1, 174960, Note_on_c, 0, 70, 0
1, 174960, Note_on_c, 0, 78, 0
1, 174960, Note_on_c, 0, 78, 51
1, 174960, Note_on_c, 0, 70, 41
1, 174976, Control_c, 0, 64, 0
1, 175143, Control_c, 0, 64, 127
1, 175440, Tempo, 344828
1, 175680, Tempo, 321716
1, 175680, Note_on_c, 0, 70, 0
1, 175680, Note_on_c, 0, 66, 0
1, 175680, Note_on_c, 0, 73, 0
1, 175680, Note_on_c, 0, 78, 0
1, 175680, Note_on_c, 0, 76, 39
1, 175680, Note_on_c, 0, 78, 39
1, 175680, Note_on_c, 0, 86, 49
1, 175680, Control_c, 0, 64, 0
1, 175680, Note_on_c, 0, 66, 55
1, 175680, Note_on_c, 0, 68, 34
1, 175760, Control_c, 0, 64, 127
1, 176400, Tempo, 327869
1, 176400, Note_on_c, 0, 68, 0
1, 176400, Note_on_c, 0, 86, 0
1, 176400, Note_on_c, 0, 85, 45
1, 176400, Note_on_c, 0, 70, 51
1, 176421, Control_c, 0, 64, 0
1, 176600, Control_c, 0, 64, 127
1, 177120, Tempo, 336134
1, 177120, Note_on_c, 0, 70, 0
1, 177120, Note_on_c, 0, 76, 0
1, 177120, Note_on_c, 0, 85, 0
1, 177120, Note_on_c, 0, 78, 0
1, 177120, Note_on_c, 0, 74, 44
1, 177120, Note_on_c, 0, 78, 43
1, 177120, Note_on_c, 0, 83, 47
1, 177120, Note_on_c, 0, 71, 55
1, 177130, Control_c, 0, 64, 0
1, 177267, Control_c, 0, 64, 127
1, 177600, Note_on_c, 0, 71, 0
1, 177600, Note_on_c, 0, 73, 51
1, 177840, Tempo, 327869
1, 177840, Note_on_c, 0, 73, 0
1, 177840, Note_on_c, 0, 83, 0
1, 177840, Note_on_c, 0, 78, 0
1, 177840, Note_on_c, 0, 74, 0
1, 177840, Note_on_c, 0, 78, 44
1, 177840, Note_on_c, 0, 82, 44
1, 177840, Note_on_c, 0, 73, 51
1, 177857, Control_c, 0, 64, 0
1, 177987, Control_c, 0, 64, 127
1, 178560, Tempo, 333333
1, 178560, Note_on_c, 0, 73, 0
1, 178560, Note_on_c, 0, 66, 0
1, 178560, Note_on_c, 0, 78, 0
1, 178560, Note_on_c, 0, 82, 0
1, 178560, Note_on_c, 0, 76, 31
1, 178560, Note_on_c, 0, 83, 44
1, 178560, Control_c, 0, 64, 0
1, 178560, Note_on_c, 0, 67, 36
1, 178560, Note_on_c, 0, 73, 27
1, 178787, Control_c, 0, 64, 127
1, 179040, Note_on_c, 0, 83, 0
1, 179040, Note_on_c, 0, 82, 40
1, 179280, Tempo, 327869
1, 179280, Note_on_c, 0, 82, 0
1, 179280, Note_on_c, 0, 67, 0
1, 179280, Note_on_c, 0, 82, 40
1, 179280, Note_on_c, 0, 66, 34
1, 179298, Control_c, 0, 64, 0
1, 179406, Control_c, 0, 64, 127
1, 180000, Tempo, 338983
1, 180000, Note_on_c, 0, 66, 0
1, 180000, Note_on_c, 0, 73, 0
1, 180000, Note_on_c, 0, 76, 0
1, 180000, Note_on_c, 0, 82, 0
1, 180000, Control_c, 0, 64, 0
1, 180000, Note_on_c, 0, 67, 39
1, 180160, Control_c, 0, 64, 127
1, 180480, Note_on_c, 0, 67, 0
1, 180480, Note_on_c, 0, 66, 35
1, 180720, Tempo, 332410
1, 180720, Note_on_c, 0, 66, 0
1, 180720, Note_on_c, 0, 66, 35
1, 180733, Control_c, 0, 64, 0
1, 180813, Control_c, 0, 64, 127
1, 181440, Tempo, 341880
1, 181440, Note_on_c, 0, 66, 0
1, 181440, Note_on_c, 0, 64, 31
1, 181440, Note_on_c, 0, 71, 44
1, 181440, Control_c, 0, 64, 0
1, 181440, Note_on_c, 0, 55, 36
1, 181440, Note_on_c, 0, 61, 27
1, 181667, Control_c, 0, 64, 127
1, 181920, Note_on_c, 0, 71, 0
1, 181920, Note_on_c, 0, 70, 40
1, 182160, Tempo, 335196
1, 182160, Note_on_c, 0, 70, 0
1, 182160, Note_on_c, 0, 55, 0
1, 182160, Note_on_c, 0, 70, 40
1, 182160, Note_on_c, 0, 54, 34
1, 182176, Control_c, 0, 64, 0
1, 182286, Control_c, 0, 64, 127
1, 182640, Tempo, 352941
1, 182880, Tempo, 344828
1, 182880, Note_on_c, 0, 54, 0
1, 182880, Note_on_c, 0, 61, 0
1, 182880, Note_on_c, 0, 64, 0
1, 182880, Note_on_c, 0, 70, 0
1, 182880, Control_c, 0, 64, 0
1, 182880, Note_on_c, 0, 55, 35
1, 183040, Control_c, 0, 64, 127
1, 183360, Note_on_c, 0, 55, 0
1, 183360, Note_on_c, 0, 54, 29
1, 183600, Tempo, 339943
1, 183600, Note_on_c, 0, 54, 0
1, 183600, Note_on_c, 0, 54, 30
1, 183612, Control_c, 0, 64, 0
1, 183747, Control_c, 0, 64, 127
1, 184320, Tempo, 358209
1, 184320, Note_on_c, 0, 54, 0
1, 184320, Control_c, 0, 64, 0
1, 184320, Note_on_c, 0, 55, 33
1, 184480, Control_c, 0, 64, 127
1, 184800, Note_on_c, 0, 55, 0
1, 184800, Note_on_c, 0, 54, 29
1, 185040, Tempo, 350877
1, 185040, Note_on_c, 0, 54, 0
1, 185040, Note_on_c, 0, 54, 29
1, 185048, Control_c, 0, 64, 0
1, 185187, Control_c, 0, 64, 127
1, 185760, Tempo, 388350
1, 185760, Note_on_c, 0, 54, 0
1, 185760, Control_c, 0, 64, 0
1, 185760, Note_on_c, 0, 55, 31
1, 185920, Control_c, 0, 64, 127
1, 186240, Tempo, 416667
1, 186240, Note_on_c, 0, 55, 0
1, 186240, Note_on_c, 0, 54, 26
1, 186480, Tempo, 2926829
1, 186480, Note_on_c, 0, 54, 0
1, 186480, Control_c, 0, 64, 0
1, 186480, Note_on_c, 0, 54, 26
1, 186720, Tempo, 304569
1, 186720, Note_on_c, 0, 54, 0
1, 186720, Note_on_c, 0, 66, 45
1, 186720, Note_on_c, 0, 71, 49
1, 186720, Control_c, 0, 64, 127
1, 186720, Note_on_c, 0, 62, 45
1, 186960, Note_on_c, 0, 62, 0
1, 186960, Note_on_c, 0, 71, 0
1, 186960, Note_on_c, 0, 66, 0
1, 186960, Note_on_c, 0, 65, 46
1, 186960, Note_on_c, 0, 61, 43
1, 187200, Tempo, 307692
1, 187200, Marker_t, "Tempo1"
1, 187200, Note_on_c, 0, 61, 0
1, 187200, Note_on_c, 0, 65, 0
1, 187200, Note_on_c, 0, 66, 45
1, 187200, Note_on_c, 0, 71, 49
1, 187200, Note_on_c, 0, 62, 45
1, 187213, Control_c, 0, 64, 0
1, 187280, Control_c, 0, 64, 127
1, 187440, Note_on_c, 0, 47, 38
1, 187680, Tempo, 305312
1, 187680, Note_on_c, 0, 47, 0
1, 187680, Note_on_c, 0, 66, 0
1, 187680, Note_on_c, 0, 71, 0
1, 187680, Note_on_c, 0, 62, 0
1, 187680, Note_on_c, 0, 64, 45
1, 187680, Note_on_c, 0, 70, 49
1, 187680, Note_on_c, 0, 61, 43
1, 187690, Control_c, 0, 64, 0
1, 187920, Note_on_c, 0, 61, 0
1, 187920, Note_on_c, 0, 70, 0
1, 187920, Note_on_c, 0, 64, 0
1, 187920, Note_on_c, 0, 47, 37
1, 188120, Tempo, 298507
1, 188160, Tempo, 302267
1, 188160, Note_on_c, 0, 47, 0
1, 188160, Note_on_c, 0, 62, 45
1, 188160, Note_on_c, 0, 67, 49
1, 188160, Note_on_c, 0, 59, 44
1, 188263, Control_c, 0, 64, 127
1, 188400, Note_on_c, 0, 59, 0
1, 188400, Note_on_c, 0, 67, 0
1, 188400, Note_on_c, 0, 62, 0
1, 188400, Note_on_c, 0, 61, 45
1, 188400, Note_on_c, 0, 58, 42
1, 188640, Tempo, 304569
1, 188640, Note_on_c, 0, 58, 0
1, 188640, Note_on_c, 0, 61, 0
1, 188640, Note_on_c, 0, 62, 45
1, 188640, Note_on_c, 0, 67, 49
1, 188640, Note_on_c, 0, 59, 45
1, 188654, Control_c, 0, 64, 0
1, 188731, Control_c, 0, 64, 127
1, 188880, Note_on_c, 0, 47, 39
1, 189120, Tempo, 306905
1, 189120, Note_on_c, 0, 47, 0
1, 189120, Note_on_c, 0, 62, 0
1, 189120, Note_on_c, 0, 67, 0
1, 189120, Note_on_c, 0, 59, 0
1, 189120, Note_on_c, 0, 61, 44
1, 189120, Note_on_c, 0, 66, 47
1, 189120, Note_on_c, 0, 58, 44
1, 189131, Control_c, 0, 64, 0
1, 189360, Note_on_c, 0, 58, 0
1, 189360, Note_on_c, 0, 66, 0
1, 189360, Note_on_c, 0, 61, 0
1, 189360, Note_on_c, 0, 47, 38
1, 189600, Tempo, 300000
1, 189600, Note_on_c, 0, 47, 0
1, 189600, Note_on_c, 0, 60, 45
1, 189600, Note_on_c, 0, 66, 49
1, 189600, Note_on_c, 0, 57, 44
1, 189680, Control_c, 0, 64, 127
1, 189840, Note_on_c, 0, 57, 0
1, 189840, Note_on_c, 0, 66, 0
1, 189840, Note_on_c, 0, 60, 0
1, 189840, Note_on_c, 0, 59, 46
1, 189840, Note_on_c, 0, 56, 41
1, 190080, Tempo, 302267
1, 190080, Note_on_c, 0, 56, 0
1, 190080, Note_on_c, 0, 59, 0
1, 190080, Note_on_c, 0, 60, 45
1, 190080, Note_on_c, 0, 66, 49
1, 190080, Note_on_c, 0, 57, 45
1, 190092, Control_c, 0, 64, 0
1, 190194, Control_c, 0, 64, 127
1, 190320, Note_on_c, 0, 47, 38
1, 190560, Tempo, 299835
1, 190560, Note_on_c, 0, 47, 0
1, 190560, Note_on_c, 0, 60, 0
1, 190560, Note_on_c, 0, 66, 0
1, 190560, Note_on_c, 0, 57, 0
1, 190560, Note_on_c, 0, 59, 43
1, 190560, Note_on_c, 0, 64, 46
1, 190560, Note_on_c, 0, 56, 44
1, 190575, Control_c, 0, 64, 0
1, 190800, Note_on_c, 0, 56, 0
1, 190800, Note_on_c, 0, 64, 0
1, 190800, Note_on_c, 0, 59, 0
1, 190800, Note_on_c, 0, 47, 35
1, 191040, Tempo, 302160
1, 191040, Note_on_c, 0, 47, 0
1, 191040, Note_on_c, 0, 58, 45
1, 191040, Note_on_c, 0, 64, 49
1, 191040, Note_on_c, 0, 55, 45
1, 191063, Control_c, 0, 64, 127
1, 191280, Note_on_c, 0, 55, 0
1, 191280, Note_on_c, 0, 64, 0
1, 191280, Note_on_c, 0, 58, 0
1, 191280, Note_on_c, 0, 47, 43
1, 191520, Note_on_c, 0, 47, 0
1, 191520, Note_on_c, 0, 58, 47
1, 191520, Note_on_c, 0, 62, 52
1, 191520, Note_on_c, 0, 54, 49
1, 191532, Control_c, 0, 64, 0
1, 191634, Control_c, 0, 64, 127
1, 191760, Note_on_c, 0, 54, 0
1, 191760, Note_on_c, 0, 62, 0
1, 191760, Note_on_c, 0, 58, 0
1, 191760, Note_on_c, 0, 47, 50
1, 192000, Note_on_c, 0, 47, 0
1, 192000, Note_on_c, 0, 58, 45
1, 192000, Note_on_c, 0, 61, 50
1, 192000, Note_on_c, 0, 52, 47
1, 192017, Control_c, 0, 64, 0
1, 192240, Tempo, 303721
1, 192240, Note_on_c, 0, 52, 0
1, 192240, Note_on_c, 0, 61, 0
1, 192240, Note_on_c, 0, 58, 0
1, 192240, Note_on_c, 0, 59, 47
1, 192240, Note_on_c, 0, 47, 44
1, 192240, Note_on_c, 0, 50, 44
1, 192480, Tempo, 299835
1, 192480, Note_on_c, 0, 50, 0
1, 192480, Note_on_c, 0, 47, 0
1, 192480, Note_on_c, 0, 59, 0
1, 192480, Note_on_c, 0, 53, 52
1, 192600, Note_on_c, 0, 53, 0
1, 192720, Tempo, 308515
1, 192720, Note_on_c, 0, 54, 54
1, 192840, Note_on_c, 0, 54, 0
1, 192960, Tempo, 302160
1, 192960, Note_on_c, 0, 55, 59
1, 193023, Control_c, 0, 64, 127
1, 193200, Tempo, 302160
1, 193200, Note_on_c, 0, 62, 47
1, 193200, Note_on_c, 0, 71, 47
1, 193200, Note_on_c, 0, 74, 47
1, 193320, Note_on_c, 0, 74, 0
1, 193320, Note_on_c, 0, 71, 0
1, 193320, Note_on_c, 0, 62, 0
1, 193440, Note_on_c, 0, 64, 49
1, 193440, Note_on_c, 0, 71, 49
1, 193440, Note_on_c, 0, 74, 49
1, 193560, Note_on_c, 0, 74, 0
1, 193560, Note_on_c, 0, 71, 0
1, 193560, Note_on_c, 0, 64, 0
1, 193680, Tempo, 303721
1, 193680, Note_on_c, 0, 55, 0
1, 193680, Note_on_c, 0, 65, 46
1, 193680, Note_on_c, 0, 71, 46
1, 193680, Note_on_c, 0, 74, 46
1, 193680, Note_on_c, 0, 43, 49
1, 193685, Control_c, 0, 64, 0
1, 193800, Note_on_c, 0, 74, 0
1, 193800, Note_on_c, 0, 65, 0
1, 193800, Note_on_c, 0, 71, 0
1, 193920, Tempo, 302160
1, 193920, Note_on_c, 0, 43, 0
1, 193920, Note_on_c, 0, 45, 51
1, 194040, Note_on_c, 0, 45, 0
1, 194160, Note_on_c, 0, 43, 49
1, 194280, Note_on_c, 0, 43, 0
1, 194400, Note_on_c, 0, 42, 51
1, 194463, Control_c, 0, 64, 127
1, 194640, Tempo, 303721
1, 194640, Note_on_c, 0, 56, 45
1, 194640, Note_on_c, 0, 59, 45
1, 194640, Note_on_c, 0, 66, 45
1, 194760, Note_on_c, 0, 66, 0
1, 194760, Note_on_c, 0, 59, 0
1, 194760, Note_on_c, 0, 56, 0
1, 194880, Note_on_c, 0, 58, 46
1, 194880, Note_on_c, 0, 61, 46
1, 194880, Note_on_c, 0, 64, 46
1, 195000, Note_on_c, 0, 64, 0
1, 195000, Note_on_c, 0, 61, 0
1, 195000, Note_on_c, 0, 58, 0
1, 195120, Tempo, 304507
1, 195120, Note_on_c, 0, 42, 0
1, 195120, Note_on_c, 0, 59, 46
1, 195120, Note_on_c, 0, 62, 46
1, 195120, Note_on_c, 0, 47, 48
1, 195138, Control_c, 0, 64, 0
1, 195240, Note_on_c, 0, 62, 0
1, 195240, Note_on_c, 0, 59, 0
1, 195360, Tempo, 299835
1, 195360, Note_on_c, 0, 47, 0
1, 195360, Note_on_c, 0, 53, 51
1, 195480, Note_on_c, 0, 53, 0
1, 195600, Note_on_c, 0, 54, 54
1, 195720, Note_on_c, 0, 54, 0
1, 195840, Tempo, 303721
1, 195840, Note_on_c, 0, 55, 58
1, 195874, Control_c, 0, 64, 127
1, 196080, Tempo, 302160
1, 196080, Note_on_c, 0, 62, 47
1, 196080, Note_on_c, 0, 71, 47
1, 196080, Note_on_c, 0, 74, 47
1, 196200, Note_on_c, 0, 74, 0
1, 196200, Note_on_c, 0, 71, 0
1, 196200, Note_on_c, 0, 62, 0
1, 196320, Note_on_c, 0, 64, 49
1, 196320, Note_on_c, 0, 71, 49
1, 196320, Note_on_c, 0, 74, 49
1, 196440, Note_on_c, 0, 74, 0
1, 196440, Note_on_c, 0, 71, 0
1, 196440, Note_on_c, 0, 64, 0
1, 196560, Tempo, 305312
1, 196560, Note_on_c, 0, 55, 0
1, 196560, Note_on_c, 0, 65, 45
1, 196560, Note_on_c, 0, 71, 45
1, 196560, Note_on_c, 0, 74, 45
1, 196560, Note_on_c, 0, 43, 49
1, 196578, Control_c, 0, 64, 0
1, 196680, Note_on_c, 0, 74, 0
1, 196680, Note_on_c, 0, 65, 0
1, 196680, Note_on_c, 0, 71, 0
1, 196800, Tempo, 302160
1, 196800, Note_on_c, 0, 43, 0
1, 196800, Note_on_c, 0, 45, 51
1, 196920, Note_on_c, 0, 45, 0
1, 197040, Note_on_c, 0, 43, 49
1, 197160, Note_on_c, 0, 43, 0
1, 197280, Note_on_c, 0, 42, 49
1, 197320, Control_c, 0, 64, 127
1, 197520, Tempo, 303721
1, 197520, Note_on_c, 0, 56, 47
1, 197520, Note_on_c, 0, 59, 47
1, 197520, Note_on_c, 0, 66, 47
1, 197640, Note_on_c, 0, 66, 0
1, 197640, Note_on_c, 0, 59, 0
1, 197640, Note_on_c, 0, 56, 0
1, 197760, Note_on_c, 0, 58, 46
1, 197760, Note_on_c, 0, 61, 46
1, 197760, Note_on_c, 0, 64, 46
1, 197880, Note_on_c, 0, 64, 0
1, 197880, Note_on_c, 0, 61, 0
1, 197880, Note_on_c, 0, 58, 0
1, 198000, Tempo, 497925
1, 198000, Note_on_c, 0, 42, 0
1, 198000, Note_on_c, 0, 59, 46
1, 198000, Note_on_c, 0, 62, 46
1, 198000, Note_on_c, 0, 47, 49
1, 198004, Control_c, 0, 64, 0
1, 198120, Note_on_c, 0, 47, 0
1, 198120, Note_on_c, 0, 62, 0
1, 198120, Note_on_c, 0, 59, 0
1, 198240, Tempo, 298507
1, 198240, Note_on_c, 0, 66, 45
1, 198240, Note_on_c, 0, 71, 49
1, 198240, Note_on_c, 0, 62, 45
1, 198366, Control_c, 0, 64, 127
1, 198480, Note_on_c, 0, 62, 0
1, 198480, Note_on_c, 0, 71, 0
1, 198480, Note_on_c, 0, 66, 0
1, 198480, Note_on_c, 0, 65, 46
1, 198480, Note_on_c, 0, 61, 43
1, 198720, Tempo, 299252
1, 198720, Note_on_c, 0, 61, 0
1, 198720, Note_on_c, 0, 65, 0
1, 198720, Note_on_c, 0, 66, 45
1, 198720, Note_on_c, 0, 71, 49
1, 198720, Note_on_c, 0, 62, 45
1, 198732, Control_c, 0, 64, 0
1, 198804, Control_c, 0, 64, 127
1, 198960, Note_on_c, 0, 47, 41
1, 199200, Tempo, 305312
1, 199200, Note_on_c, 0, 47, 0
1, 199200, Note_on_c, 0, 66, 0
1, 199200, Note_on_c, 0, 71, 0
1, 199200, Note_on_c, 0, 62, 0
1, 199200, Note_on_c, 0, 64, 45
1, 199200, Note_on_c, 0, 70, 49
1, 199200, Note_on_c, 0, 61, 43
1, 199216, Control_c, 0, 64, 0
1, 199440, Note_on_c, 0, 61, 0
1, 199440, Note_on_c, 0, 70, 0
1, 199440, Note_on_c, 0, 64, 0
1, 199440, Note_on_c, 0, 47, 37
1, 199680, Tempo, 298507
1, 199680, Note_on_c, 0, 47, 0
1, 199680, Note_on_c, 0, 62, 45
1, 199680, Note_on_c, 0, 67, 49
1, 199680, Note_on_c, 0, 59, 44
1, 199783, Control_c, 0, 64, 127
1, 199920, Note_on_c, 0, 59, 0
1, 199920, Note_on_c, 0, 67, 0
1, 199920, Note_on_c, 0, 62, 0
1, 199920, Note_on_c, 0, 61, 45
1, 199920, Note_on_c, 0, 58, 42
1, 200160, Tempo, 300000
1, 200160, Note_on_c, 0, 58, 0
1, 200160, Note_on_c, 0, 61, 0
1, 200160, Note_on_c, 0, 62, 45
1, 200160, Note_on_c, 0, 67, 49
1, 200160, Note_on_c, 0, 59, 45
1, 200172, Control_c, 0, 64, 0
1, 200251, Control_c, 0, 64, 127
1, 200400, Note_on_c, 0, 47, 40
1, 200640, Tempo, 306905
1, 200640, Note_on_c, 0, 47, 0
1, 200640, Note_on_c, 0, 62, 0
1, 200640, Note_on_c, 0, 67, 0
1, 200640, Note_on_c, 0, 59, 0
1, 200640, Note_on_c, 0, 61, 44
1, 200640, Note_on_c, 0, 66, 47
1, 200640, Note_on_c, 0, 58, 44
1, 200651, Control_c, 0, 64, 0
1, 200880, Note_on_c, 0, 58, 0
1, 200880, Note_on_c, 0, 66, 0
1, 200880, Note_on_c, 0, 61, 0
1, 200880, Note_on_c, 0, 47, 36
1, 201120, Tempo, 299252
1, 201120, Note_on_c, 0, 47, 0
1, 201120, Note_on_c, 0, 60, 45
1, 201120, Note_on_c, 0, 66, 49
1, 201120, Note_on_c, 0, 57, 44
1, 201200, Control_c, 0, 64, 127
1, 201360, Note_on_c, 0, 57, 0
1, 201360, Note_on_c, 0, 66, 0
1, 201360, Note_on_c, 0, 60, 0
1, 201360, Note_on_c, 0, 59, 46
1, 201360, Note_on_c, 0, 56, 41
1, 201600, Tempo, 301508
1, 201600, Note_on_c, 0, 56, 0
1, 201600, Note_on_c, 0, 59, 0
1, 201600, Note_on_c, 0, 60, 45
1, 201600, Note_on_c, 0, 66, 49
1, 201600, Note_on_c, 0, 57, 45
1, 201613, Control_c, 0, 64, 0
1, 201714, Control_c, 0, 64, 127
1, 201840, Note_on_c, 0, 47, 42
1, 202080, Tempo, 299835
1, 202080, Note_on_c, 0, 47, 0
1, 202080, Note_on_c, 0, 60, 0
1, 202080, Note_on_c, 0, 66, 0
1, 202080, Note_on_c, 0, 57, 0
1, 202080, Note_on_c, 0, 59, 43
1, 202080, Note_on_c, 0, 64, 46
1, 202080, Note_on_c, 0, 56, 44
1, 202096, Control_c, 0, 64, 0
1, 202320, Note_on_c, 0, 56, 0
1, 202320, Note_on_c, 0, 64, 0
1, 202320, Note_on_c, 0, 59, 0
1, 202320, Note_on_c, 0, 47, 38
1, 202560, Tempo, 302160
1, 202560, Note_on_c, 0, 47, 0
1, 202560, Note_on_c, 0, 58, 45
1, 202560, Note_on_c, 0, 64, 49
1, 202560, Note_on_c, 0, 55, 45
1, 202583, Control_c, 0, 64, 127
1, 202800, Note_on_c, 0, 55, 0
1, 202800, Note_on_c, 0, 64, 0
1, 202800, Note_on_c, 0, 58, 0
1, 202800, Note_on_c, 0, 47, 43
1, 203040, Note_on_c, 0, 47, 0
1, 203040, Note_on_c, 0, 58, 47
1, 203040, Note_on_c, 0, 62, 52
1, 203040, Note_on_c, 0, 54, 49
1, 203047, Control_c, 0, 64, 0
1, 203154, Control_c, 0, 64, 127
1, 203280, Note_on_c, 0, 54, 0
1, 203280, Note_on_c, 0, 62, 0
1, 203280, Note_on_c, 0, 58, 0
1, 203280, Note_on_c, 0, 47, 50
1, 203520, Note_on_c, 0, 47, 0
1, 203520, Note_on_c, 0, 58, 45
1, 203520, Note_on_c, 0, 61, 50
1, 203520, Note_on_c, 0, 52, 47
1, 203526, Control_c, 0, 64, 0
1, 203760, Tempo, 303721
1, 203760, Note_on_c, 0, 52, 0
1, 203760, Note_on_c, 0, 61, 0
1, 203760, Note_on_c, 0, 58, 0
1, 203760, Note_on_c, 0, 59, 47
1, 203760, Note_on_c, 0, 47, 44
1, 203760, Note_on_c, 0, 50, 44
1, 204000, Tempo, 299835
1, 204000, Note_on_c, 0, 50, 0
1, 204000, Note_on_c, 0, 47, 0
1, 204000, Note_on_c, 0, 59, 0
1, 204000, Note_on_c, 0, 53, 52
1, 204120, Note_on_c, 0, 53, 0
1, 204240, Tempo, 308515
1, 204240, Note_on_c, 0, 54, 54
1, 204360, Note_on_c, 0, 54, 0
1, 204480, Tempo, 302160
1, 204480, Note_on_c, 0, 55, 59
1, 204543, Control_c, 0, 64, 127
1, 204720, Tempo, 302160
1, 204720, Note_on_c, 0, 62, 47
1, 204720, Note_on_c, 0, 71, 47
1, 204720, Note_on_c, 0, 74, 47
1, 204840, Note_on_c, 0, 74, 0
1, 204840, Note_on_c, 0, 71, 0
1, 204840, Note_on_c, 0, 62, 0
1, 204960, Note_on_c, 0, 64, 49
1, 204960, Note_on_c, 0, 71, 49
1, 204960, Note_on_c, 0, 74, 49
1, 205080, Note_on_c, 0, 74, 0
1, 205080, Note_on_c, 0, 71, 0
1, 205080, Note_on_c, 0, 64, 0
1, 205200, Tempo, 303721
1, 205200, Note_on_c, 0, 55, 0
1, 205200, Note_on_c, 0, 65, 46
1, 205200, Note_on_c, 0, 71, 46
1, 205200, Note_on_c, 0, 74, 46
1, 205200, Note_on_c, 0, 43, 49
1, 205207, Control_c, 0, 64, 0
1, 205320, Note_on_c, 0, 74, 0
1, 205320, Note_on_c, 0, 65, 0
1, 205320, Note_on_c, 0, 71, 0
1, 205440, Tempo, 302160
1, 205440, Note_on_c, 0, 43, 0
1, 205440, Note_on_c, 0, 45, 51
1, 205560, Note_on_c, 0, 45, 0
1, 205680, Note_on_c, 0, 43, 49
1, 205800, Note_on_c, 0, 43, 0
1, 205920, Note_on_c, 0, 42, 51
1, 205983, Control_c, 0, 64, 127
1, 206160, Tempo, 303721
1, 206160, Note_on_c, 0, 56, 45
1, 206160, Note_on_c, 0, 59, 45
1, 206160, Note_on_c, 0, 66, 45
1, 206280, Note_on_c, 0, 66, 0
1, 206280, Note_on_c, 0, 59, 0
1, 206280, Note_on_c, 0, 56, 0
1, 206400, Note_on_c, 0, 58, 44
1, 206400, Note_on_c, 0, 61, 44
1, 206400, Note_on_c, 0, 64, 44
1, 206520, Note_on_c, 0, 64, 0
1, 206520, Note_on_c, 0, 61, 0
1, 206520, Note_on_c, 0, 58, 0
1, 206640, Tempo, 304507
1, 206640, Note_on_c, 0, 42, 0
1, 206640, Note_on_c, 0, 59, 46
1, 206640, Note_on_c, 0, 62, 46
1, 206640, Note_on_c, 0, 47, 48
1, 206650, Control_c, 0, 64, 0
1, 206760, Note_on_c, 0, 62, 0
1, 206760, Note_on_c, 0, 59, 0
1, 206880, Tempo, 299835
1, 206880, Note_on_c, 0, 47, 0
1, 206880, Note_on_c, 0, 53, 51
1, 207000, Note_on_c, 0, 53, 0
1, 207120, Note_on_c, 0, 54, 54
1, 207240, Note_on_c, 0, 54, 0
1, 207360, Tempo, 303721
1, 207360, Note_on_c, 0, 55, 60
1, 207394, Control_c, 0, 64, 127
1, 207600, Tempo, 302160
1, 207600, Note_on_c, 0, 62, 50
1, 207600, Note_on_c, 0, 71, 50
1, 207600, Note_on_c, 0, 74, 50
1, 207720, Note_on_c, 0, 74, 0
1, 207720, Note_on_c, 0, 71, 0
1, 207720, Note_on_c, 0, 62, 0
1, 207840, Note_on_c, 0, 64, 54
1, 207840, Note_on_c, 0, 71, 54
1, 207840, Note_on_c, 0, 74, 54
1, 207960, Note_on_c, 0, 74, 0
1, 207960, Note_on_c, 0, 71, 0
1, 207960, Note_on_c, 0, 64, 0
1, 208080, Tempo, 305312
1, 208080, Note_on_c, 0, 65, 58
1, 208080, Note_on_c, 0, 71, 58
1, 208080, Note_on_c, 0, 74, 58
1, 208094, Control_c, 0, 64, 0
1, 208320, Tempo, 304507
1, 208320, Note_on_c, 0, 55, 0
1, 208320, Note_on_c, 0, 56, 67
1, 208560, Note_on_c, 0, 65, 0
1, 208560, Note_on_c, 0, 74, 0
1, 208560, Note_on_c, 0, 71, 0
1, 208560, Note_on_c, 0, 73, 63
1, 208560, Note_on_c, 0, 71, 63
1, 208560, Note_on_c, 0, 65, 63
1, 208624, Control_c, 0, 64, 127
1, 208800, Tempo, 306107
1, 208800, Note_on_c, 0, 56, 0
1, 208800, Note_on_c, 0, 61, 66
1, 209040, Tempo, 308515
1, 209040, Note_on_c, 0, 73, 0
1, 209040, Note_on_c, 0, 65, 0
1, 209040, Note_on_c, 0, 71, 0
1, 209040, Note_on_c, 0, 71, 68
1, 209040, Note_on_c, 0, 73, 68
1, 209040, Note_on_c, 0, 77, 68
1, 209057, Control_c, 0, 64, 0
1, 209164, Control_c, 0, 64, 127
1, 209280, Tempo, 302160
1, 209280, Note_on_c, 0, 61, 0
1, 209280, Note_on_c, 0, 68, 68
1, 209520, Tempo, 500000
1, 209520, Note_on_c, 0, 68, 0
1, 209520, Note_on_c, 0, 77, 0
1, 209520, Note_on_c, 0, 73, 0
1, 209520, Note_on_c, 0, 71, 0
1, 209520, Note_on_c, 0, 70, 69
1, 209520, Note_on_c, 0, 73, 69
1, 209520, Note_on_c, 0, 78, 69
1, 209520, Note_on_c, 0, 66, 61
1, 209528, Control_c, 0, 64, 0
1, 209700, Note_on_c, 0, 66, 0
1, 209700, Note_on_c, 0, 70, 0
1, 209700, Note_on_c, 0, 73, 0
1, 209700, Note_on_c, 0, 78, 0
1, 209760, Tempo, 297767
1, 209760, Note_on_c, 0, 78, 45
1, 209760, Note_on_c, 0, 83, 49
1, 209760, Note_on_c, 0, 74, 45
1, 209843, Control_c, 0, 64, 127
1, 210000, Note_on_c, 0, 74, 0
1, 210000, Note_on_c, 0, 83, 0
1, 210000, Note_on_c, 0, 78, 0
1, 210000, Note_on_c, 0, 77, 46
1, 210000, Note_on_c, 0, 73, 43
1, 210240, Tempo, 299252
1, 210240, Note_on_c, 0, 73, 0
1, 210240, Note_on_c, 0, 77, 0
1, 210240, Note_on_c, 0, 78, 45
1, 210240, Note_on_c, 0, 83, 49
1, 210240, Note_on_c, 0, 74, 45
1, 210254, Control_c, 0, 64, 0
1, 210366, Control_c, 0, 64, 127
1, 210480, Note_on_c, 0, 66, 36
1, 210720, Tempo, 305312
1, 210720, Note_on_c, 0, 66, 0
1, 210720, Note_on_c, 0, 78, 0
1, 210720, Note_on_c, 0, 83, 0
1, 210720, Note_on_c, 0, 74, 0
1, 210720, Note_on_c, 0, 76, 45
1, 210720, Note_on_c, 0, 82, 49
1, 210720, Note_on_c, 0, 73, 43
1, 210731, Control_c, 0, 64, 0
1, 210960, Note_on_c, 0, 73, 0
1, 210960, Note_on_c, 0, 82, 0
1, 210960, Note_on_c, 0, 76, 0
1, 210960, Note_on_c, 0, 66, 33
1, 211200, Tempo, 298507
1, 211200, Note_on_c, 0, 74, 45
1, 211200, Note_on_c, 0, 79, 49
1, 211200, Note_on_c, 0, 71, 44
1, 211303, Control_c, 0, 64, 127
1, 211440, Note_on_c, 0, 71, 0
1, 211440, Note_on_c, 0, 79, 0
1, 211440, Note_on_c, 0, 74, 0
1, 211440, Note_on_c, 0, 73, 45
1, 211440, Note_on_c, 0, 70, 42
1, 211680, Tempo, 300752
1, 211680, Note_on_c, 0, 70, 0
1, 211680, Note_on_c, 0, 73, 0
1, 211680, Note_on_c, 0, 74, 45
1, 211680, Note_on_c, 0, 79, 49
1, 211680, Note_on_c, 0, 71, 45
1, 211688, Control_c, 0, 64, 0
1, 211771, Control_c, 0, 64, 127
1, 211920, Note_on_c, 0, 66, 0
1, 211920, Note_on_c, 0, 66, 39
1, 212160, Tempo, 306905
1, 212160, Note_on_c, 0, 66, 0
1, 212160, Note_on_c, 0, 71, 0
1, 212160, Note_on_c, 0, 79, 0
1, 212160, Note_on_c, 0, 74, 0
1, 212160, Note_on_c, 0, 73, 44
1, 212160, Note_on_c, 0, 78, 47
1, 212160, Note_on_c, 0, 70, 44
1, 212176, Control_c, 0, 64, 0
1, 212400, Tempo, 335196
1, 212400, Note_on_c, 0, 70, 0
1, 212400, Note_on_c, 0, 78, 0
1, 212400, Note_on_c, 0, 73, 0
1, 212400, Note_on_c, 0, 66, 37
1, 212640, Tempo, 294840
1, 212640, Note_on_c, 0, 66, 0
1, 212640, Note_on_c, 0, 72, 62
1, 212640, Note_on_c, 0, 78, 69
1, 212640, Note_on_c, 0, 64, 60
1, 212640, Note_on_c, 0, 69, 60
1, 212720, Control_c, 0, 64, 127
1, 212880, Tempo, 297767
1, 212880, Note_on_c, 0, 78, 0
1, 212880, Note_on_c, 0, 72, 0
1, 212880, Note_on_c, 0, 71, 64
1, 213120, Tempo, 303721
1, 213120, Note_on_c, 0, 71, 0
1, 213120, Note_on_c, 0, 72, 62
1, 213120, Note_on_c, 0, 78, 69
1, 213360, Tempo, 295567
1, 213360, Note_on_c, 0, 78, 0
1, 213360, Note_on_c, 0, 69, 0
1, 213360, Note_on_c, 0, 64, 0
1, 213360, Note_on_c, 0, 72, 0
1, 213360, Note_on_c, 0, 66, 67
1, 213360, Note_on_c, 0, 72, 67
1, 213360, Note_on_c, 0, 64, 53
1, 213360, Note_on_c, 0, 57, 53
1, 213370, Control_c, 0, 64, 0
1, 213474, Control_c, 0, 64, 127
1, 213600, Tempo, 302160
1, 213600, Note_on_c, 0, 72, 0
1, 213600, Note_on_c, 0, 66, 0
1, 213600, Note_on_c, 0, 65, 60
1, 213840, Tempo, 304507
1, 213840, Note_on_c, 0, 65, 0
1, 213840, Note_on_c, 0, 66, 64
1, 213840, Note_on_c, 0, 72, 64
1, 214080, Tempo, 299835
1, 214080, Note_on_c, 0, 72, 0
1, 214080, Note_on_c, 0, 57, 0
1, 214080, Note_on_c, 0, 64, 0
1, 214080, Note_on_c, 0, 66, 0
1, 214080, Note_on_c, 0, 60, 67
1, 214080, Note_on_c, 0, 64, 67
1, 214080, Note_on_c, 0, 54, 53
1, 214080, Note_on_c, 0, 57, 53
1, 214091, Control_c, 0, 64, 0
1, 214251, Control_c, 0, 64, 127
1, 214320, Note_on_c, 0, 64, 0
1, 214320, Note_on_c, 0, 60, 0
1, 214320, Note_on_c, 0, 59, 67
1, 214560, Tempo, 300601
1, 214560, Note_on_c, 0, 59, 0
1, 214560, Note_on_c, 0, 60, 64
1, 214560, Note_on_c, 0, 64, 64
1, 214560, Control_c, 0, 64, 0
1, 214800, Tempo, 309342
1, 214800, Note_on_c, 0, 64, 0
1, 214800, Note_on_c, 0, 57, 0
1, 214800, Note_on_c, 0, 54, 0
1, 214800, Note_on_c, 0, 60, 0
1, 214800, Note_on_c, 0, 48, 53
1, 214920, Note_on_c, 0, 48, 0
1, 215034, Control_c, 0, 64, 127
1, 215040, Tempo, 304507
1, 215040, Note_on_c, 0, 54, 66
1, 215040, Note_on_c, 0, 57, 66
1, 215040, Note_on_c, 0, 63, 66
1, 215040, Note_on_c, 0, 47, 46
1, 215160, Note_on_c, 0, 47, 0
1, 215160, Note_on_c, 0, 54, 0
1, 215160, Note_on_c, 0, 57, 0
1, 215160, Note_on_c, 0, 63, 0
1, 215280, Tempo, 402685
1, 215280, Note_on_c, 0, 55, 70
1, 215280, Note_on_c, 0, 59, 70
1, 215280, Note_on_c, 0, 64, 70
1, 215280, Note_on_c, 0, 52, 53
1, 215290, Control_c, 0, 64, 0
1, 215400, Note_on_c, 0, 52, 0
1, 215400, Note_on_c, 0, 55, 0
1, 215400, Note_on_c, 0, 59, 0
1, 215400, Note_on_c, 0, 64, 0
1, 215520, Tempo, 298507
1, 215520, Note_on_c, 0, 83, 45
1, 215520, Note_on_c, 0, 88, 49
1, 215520, Note_on_c, 0, 79, 45
1, 215691, Control_c, 0, 64, 127
1, 215760, Note_on_c, 0, 79, 0
1, 215760, Note_on_c, 0, 88, 0
1, 215760, Note_on_c, 0, 83, 0
1, 215760, Note_on_c, 0, 82, 46
1, 215760, Note_on_c, 0, 78, 43
1, 216000, Tempo, 299252
1, 216000, Note_on_c, 0, 78, 0
1, 216000, Note_on_c, 0, 82, 0
1, 216000, Note_on_c, 0, 83, 45
1, 216000, Note_on_c, 0, 88, 49
1, 216000, Note_on_c, 0, 79, 45
1, 216011, Control_c, 0, 64, 0
1, 216088, Control_c, 0, 64, 127
1, 216240, Note_on_c, 0, 71, 41
1, 216480, Tempo, 305312
1, 216480, Note_on_c, 0, 71, 0
1, 216480, Note_on_c, 0, 83, 0
1, 216480, Note_on_c, 0, 88, 0
1, 216480, Note_on_c, 0, 79, 0
1, 216480, Note_on_c, 0, 81, 45
1, 216480, Note_on_c, 0, 87, 49
1, 216480, Note_on_c, 0, 78, 43
1, 216488, Control_c, 0, 64, 0
1, 216720, Note_on_c, 0, 78, 0
1, 216720, Note_on_c, 0, 87, 0
1, 216720, Note_on_c, 0, 81, 0
1, 216720, Note_on_c, 0, 71, 38
1, 216960, Tempo, 298507
1, 216960, Note_on_c, 0, 79, 45
1, 216960, Note_on_c, 0, 84, 49
1, 216960, Note_on_c, 0, 76, 44
1, 217040, Control_c, 0, 64, 127
1, 217200, Note_on_c, 0, 76, 0
1, 217200, Note_on_c, 0, 84, 0
1, 217200, Note_on_c, 0, 79, 0
1, 217200, Note_on_c, 0, 78, 45
1, 217200, Note_on_c, 0, 75, 42
1, 217440, Tempo, 299252
1, 217440, Note_on_c, 0, 75, 0
1, 217440, Note_on_c, 0, 78, 0
1, 217440, Note_on_c, 0, 79, 45
1, 217440, Note_on_c, 0, 84, 49
1, 217440, Note_on_c, 0, 76, 45
1, 217456, Control_c, 0, 64, 0
1, 217531, Control_c, 0, 64, 127
1, 217680, Note_on_c, 0, 71, 0
1, 217680, Note_on_c, 0, 71, 39
1, 217920, Tempo, 306905
1, 217920, Note_on_c, 0, 71, 0
1, 217920, Note_on_c, 0, 76, 0
1, 217920, Note_on_c, 0, 84, 0
1, 217920, Note_on_c, 0, 79, 0
1, 217920, Note_on_c, 0, 78, 44
1, 217920, Note_on_c, 0, 83, 47
1, 217920, Note_on_c, 0, 75, 44
1, 217938, Control_c, 0, 64, 0
1, 218160, Tempo, 326087
1, 218160, Note_on_c, 0, 75, 0
1, 218160, Note_on_c, 0, 83, 0
1, 218160, Note_on_c, 0, 78, 0
1, 218160, Note_on_c, 0, 71, 34
1, 218400, Tempo, 296296
1, 218400, Note_on_c, 0, 71, 0
1, 218400, Note_on_c, 0, 77, 62
1, 218400, Note_on_c, 0, 83, 69
1, 218400, Note_on_c, 0, 69, 60
1, 218400, Note_on_c, 0, 74, 60
1, 218480, Control_c, 0, 64, 127
1, 218640, Tempo, 299252
1, 218640, Note_on_c, 0, 83, 0
1, 218640, Note_on_c, 0, 77, 0
1, 218640, Note_on_c, 0, 76, 64
1, 218880, Tempo, 303721
1, 218880, Note_on_c, 0, 76, 0
1, 218880, Note_on_c, 0, 77, 62
1, 218880, Note_on_c, 0, 83, 69
1, 219120, Tempo, 297030
1, 219120, Note_on_c, 0, 83, 0
1, 219120, Note_on_c, 0, 74, 0
1, 219120, Note_on_c, 0, 69, 0
1, 219120, Note_on_c, 0, 77, 0
1, 219120, Note_on_c, 0, 71, 67
1, 219120, Note_on_c, 0, 77, 67
1, 219120, Note_on_c, 0, 69, 53
1, 219120, Note_on_c, 0, 62, 53
1, 219134, Control_c, 0, 64, 0
1, 219223, Control_c, 0, 64, 127
1, 219360, Tempo, 302160
1, 219360, Note_on_c, 0, 77, 0
1, 219360, Note_on_c, 0, 71, 0
1, 219360, Note_on_c, 0, 70, 60
1, 219600, Tempo, 304507
1, 219600, Note_on_c, 0, 70, 0
1, 219600, Note_on_c, 0, 71, 64
1, 219600, Note_on_c, 0, 77, 64
1, 219840, Tempo, 299835
1, 219840, Note_on_c, 0, 77, 0
1, 219840, Note_on_c, 0, 62, 0
1, 219840, Note_on_c, 0, 69, 0
1, 219840, Note_on_c, 0, 71, 0
1, 219840, Note_on_c, 0, 65, 67
1, 219840, Note_on_c, 0, 69, 67
1, 219840, Note_on_c, 0, 59, 53
1, 219840, Note_on_c, 0, 62, 53
1, 219846, Control_c, 0, 64, 0
1, 220011, Control_c, 0, 64, 127
1, 220080, Note_on_c, 0, 69, 0
1, 220080, Note_on_c, 0, 65, 0
1, 220080, Note_on_c, 0, 64, 67
1, 220320, Tempo, 300601
1, 220320, Note_on_c, 0, 64, 0
1, 220320, Note_on_c, 0, 65, 64
1, 220320, Note_on_c, 0, 69, 64
1, 220320, Control_c, 0, 64, 0
1, 220560, Tempo, 309342
1, 220560, Note_on_c, 0, 69, 0
1, 220560, Note_on_c, 0, 62, 0
1, 220560, Note_on_c, 0, 59, 0
1, 220560, Note_on_c, 0, 65, 0
1, 220560, Note_on_c, 0, 53, 53
1, 220680, Note_on_c, 0, 53, 0
1, 220794, Control_c, 0, 64, 127
1, 220800, Tempo, 304507
1, 220800, Note_on_c, 0, 59, 52
1, 220800, Note_on_c, 0, 62, 58
1, 220800, Note_on_c, 0, 68, 58
1, 220800, Note_on_c, 0, 52, 40
1, 220920, Note_on_c, 0, 52, 0
1, 221040, Note_on_c, 0, 59, 0
1, 221040, Note_on_c, 0, 62, 0
1, 221040, Note_on_c, 0, 68, 0
1, 221040, Note_on_c, 0, 60, 52
1, 221040, Note_on_c, 0, 69, 58
1, 221040, Note_on_c, 0, 45, 47
1, 221051, Control_c, 0, 64, 0
1, 221160, Note_on_c, 0, 45, 0
1, 221280, Tempo, 302160
1, 221280, Note_on_c, 0, 69, 0
1, 221280, Note_on_c, 0, 60, 0
1, 221280, Note_on_c, 0, 60, 50
1, 221280, Note_on_c, 0, 69, 56
1, 221280, Note_on_c, 0, 53, 37
1, 221343, Control_c, 0, 64, 127
1, 221400, Note_on_c, 0, 53, 0
1, 221520, Note_on_c, 0, 52, 37
1, 221640, Note_on_c, 0, 52, 0
1, 221760, Note_on_c, 0, 69, 0
1, 221760, Note_on_c, 0, 60, 0
1, 221760, Note_on_c, 0, 62, 49
1, 221760, Note_on_c, 0, 68, 55
1, 221760, Note_on_c, 0, 71, 55
1, 221760, Note_on_c, 0, 45, 43
1, 221769, Control_c, 0, 64, 0
1, 221857, Control_c, 0, 64, 127
1, 221880, Note_on_c, 0, 45, 0
1, 222000, Note_on_c, 0, 53, 37
1, 222120, Note_on_c, 0, 53, 0
1, 222240, Note_on_c, 0, 71, 0
1, 222240, Note_on_c, 0, 68, 0
1, 222240, Note_on_c, 0, 62, 0
1, 222240, Note_on_c, 0, 64, 51
1, 222240, Note_on_c, 0, 69, 57
1, 222240, Note_on_c, 0, 72, 57
1, 222240, Note_on_c, 0, 52, 37
1, 222360, Note_on_c, 0, 52, 0
1, 222480, Tempo, 305312
1, 222480, Note_on_c, 0, 64, 0
1, 222480, Note_on_c, 0, 69, 0
1, 222480, Note_on_c, 0, 72, 0
1, 222480, Note_on_c, 0, 45, 43
1, 222497, Control_c, 0, 64, 0
1, 222600, Note_on_c, 0, 45, 0
1, 222720, Tempo, 303721
1, 222720, Note_on_c, 0, 60, 51
1, 222720, Note_on_c, 0, 69, 57
1, 222720, Note_on_c, 0, 53, 37
1, 222800, Control_c, 0, 64, 127
1, 222840, Note_on_c, 0, 53, 0
1, 222960, Note_on_c, 0, 52, 37
1, 223080, Note_on_c, 0, 52, 0
1, 223200, Note_on_c, 0, 69, 0
1, 223200, Note_on_c, 0, 60, 0
1, 223200, Note_on_c, 0, 59, 46
1, 223200, Note_on_c, 0, 62, 52
1, 223200, Note_on_c, 0, 68, 52
1, 223200, Note_on_c, 0, 45, 43
1, 223211, Control_c, 0, 64, 0
1, 223217, Control_c, 0, 64, 0
1, 223251, Control_c, 0, 64, 127
1, 223320, Note_on_c, 0, 45, 0
1, 223440, Note_on_c, 0, 53, 38
1, 223560, Note_on_c, 0, 53, 0
1, 223680, Note_on_c, 0, 68, 0
1, 223680, Note_on_c, 0, 62, 0
1, 223680, Note_on_c, 0, 59, 0
1, 223680, Note_on_c, 0, 57, 46
1, 223680, Note_on_c, 0, 60, 52
1, 223680, Note_on_c, 0, 69, 52
1, 223680, Note_on_c, 0, 52, 38
1, 223686, Control_c, 0, 64, 0
1, 223800, Note_on_c, 0, 52, 0
1, 223920, Tempo, 306107
1, 223920, Note_on_c, 0, 57, 0
1, 223920, Note_on_c, 0, 60, 0
1, 223920, Note_on_c, 0, 69, 0
1, 223920, Note_on_c, 0, 45, 45
1, 224040, Note_on_c, 0, 45, 0
1, 224160, Tempo, 302160
1, 224160, Note_on_c, 0, 64, 52
1, 224160, Note_on_c, 0, 72, 58
1, 224160, Note_on_c, 0, 57, 39
1, 224234, Control_c, 0, 64, 127
1, 224280, Note_on_c, 0, 57, 0
1, 224400, Note_on_c, 0, 56, 39
1, 224520, Note_on_c, 0, 56, 0
1, 224640, Note_on_c, 0, 72, 0
1, 224640, Note_on_c, 0, 64, 0
1, 224640, Note_on_c, 0, 65, 54
1, 224640, Note_on_c, 0, 71, 61
1, 224640, Note_on_c, 0, 74, 61
1, 224640, Note_on_c, 0, 48, 48
1, 224648, Control_c, 0, 64, 0
1, 224694, Control_c, 0, 64, 127
1, 224760, Note_on_c, 0, 48, 0
1, 224880, Note_on_c, 0, 57, 44
1, 225000, Note_on_c, 0, 57, 0
1, 225120, Note_on_c, 0, 74, 0
1, 225120, Note_on_c, 0, 71, 0
1, 225120, Note_on_c, 0, 65, 0
1, 225120, Note_on_c, 0, 64, 56
1, 225120, Note_on_c, 0, 72, 63
1, 225120, Note_on_c, 0, 76, 63
1, 225120, Note_on_c, 0, 56, 44
1, 225240, Note_on_c, 0, 56, 0
1, 225360, Tempo, 306107
1, 225360, Note_on_c, 0, 64, 0
1, 225360, Note_on_c, 0, 72, 0
1, 225360, Note_on_c, 0, 76, 0
1, 225360, Note_on_c, 0, 48, 47
1, 225377, Control_c, 0, 64, 0
1, 225480, Note_on_c, 0, 48, 0
1, 225600, Tempo, 303721
1, 225600, Note_on_c, 0, 64, 53
1, 225600, Note_on_c, 0, 72, 59
1, 225600, Note_on_c, 0, 57, 44
1, 225646, Control_c, 0, 64, 127
1, 225720, Note_on_c, 0, 57, 0
1, 225840, Note_on_c, 0, 56, 44
1, 225960, Note_on_c, 0, 56, 0
1, 226080, Note_on_c, 0, 72, 0
1, 226080, Note_on_c, 0, 64, 0
1, 226080, Note_on_c, 0, 62, 51
1, 226080, Note_on_c, 0, 65, 51
1, 226080, Note_on_c, 0, 71, 57
1, 226080, Note_on_c, 0, 48, 47
1, 226095, Control_c, 0, 64, 0
1, 226156, Control_c, 0, 64, 127
1, 226200, Note_on_c, 0, 48, 0
1, 226320, Note_on_c, 0, 57, 43
1, 226440, Note_on_c, 0, 57, 0
1, 226560, Note_on_c, 0, 71, 0
1, 226560, Note_on_c, 0, 65, 0
1, 226560, Note_on_c, 0, 62, 0
1, 226560, Note_on_c, 0, 60, 52
1, 226560, Note_on_c, 0, 64, 58
1, 226560, Note_on_c, 0, 72, 58
1, 226560, Note_on_c, 0, 56, 43
1, 226567, Control_c, 0, 64, 0
1, 226680, Note_on_c, 0, 56, 0
1, 226800, Tempo, 306107
1, 226800, Note_on_c, 0, 60, 0
1, 226800, Note_on_c, 0, 64, 0
1, 226800, Note_on_c, 0, 72, 0
1, 226800, Note_on_c, 0, 48, 49
1, 226920, Note_on_c, 0, 48, 0
1, 227040, Tempo, 302160
1, 227040, Note_on_c, 0, 67, 55
1, 227040, Note_on_c, 0, 76, 62
1, 227040, Note_on_c, 0, 60, 44
1, 227091, Control_c, 0, 64, 127
1, 227160, Note_on_c, 0, 60, 0
1, 227280, Note_on_c, 0, 59, 44
1, 227400, Note_on_c, 0, 59, 0
1, 227520, Note_on_c, 0, 76, 0
1, 227520, Note_on_c, 0, 67, 0
1, 227520, Note_on_c, 0, 69, 54
1, 227520, Note_on_c, 0, 75, 55
1, 227520, Note_on_c, 0, 78, 61
1, 227520, Note_on_c, 0, 52, 48
1, 227533, Control_c, 0, 64, 0
1, 227606, Control_c, 0, 64, 127
1, 227640, Note_on_c, 0, 52, 0
1, 227760, Note_on_c, 0, 60, 43
1, 227880, Note_on_c, 0, 60, 0
1, 228000, Note_on_c, 0, 78, 0
1, 228000, Note_on_c, 0, 75, 0
1, 228000, Note_on_c, 0, 69, 0
1, 228000, Note_on_c, 0, 67, 54
1, 228000, Note_on_c, 0, 76, 61
1, 228000, Note_on_c, 0, 79, 61
1, 228000, Note_on_c, 0, 59, 43
1, 228006, Control_c, 0, 64, 0
1, 228120, Note_on_c, 0, 59, 0
1, 228240, Tempo, 304507
1, 228240, Note_on_c, 0, 67, 0
1, 228240, Note_on_c, 0, 76, 0
1, 228240, Note_on_c, 0, 79, 0
1, 228240, Note_on_c, 0, 52, 49
1, 228360, Note_on_c, 0, 52, 0
1, 228480, Tempo, 302160
1, 228480, Note_on_c, 0, 71, 60
1, 228480, Note_on_c, 0, 79, 67
1, 228480, Note_on_c, 0, 64, 44
1, 228549, Control_c, 0, 64, 127
1, 228600, Note_on_c, 0, 64, 0
1, 228720, Note_on_c, 0, 63, 44
1, 228840, Note_on_c, 0, 63, 0
1, 228960, Note_on_c, 0, 79, 0
1, 228960, Note_on_c, 0, 71, 0
1, 228960, Note_on_c, 0, 72, 57
1, 228960, Note_on_c, 0, 81, 64
1, 228960, Note_on_c, 0, 78, 57
1, 228960, Note_on_c, 0, 55, 51
1, 228967, Control_c, 0, 64, 0
1, 229033, Control_c, 0, 64, 127
1, 229080, Note_on_c, 0, 55, 0
1, 229200, Note_on_c, 0, 64, 46
1, 229320, Note_on_c, 0, 64, 0
1, 229440, Note_on_c, 0, 78, 0
1, 229440, Note_on_c, 0, 81, 0
1, 229440, Note_on_c, 0, 72, 0
1, 229440, Note_on_c, 0, 71, 57
1, 229440, Note_on_c, 0, 79, 64
1, 229440, Note_on_c, 0, 83, 64
1, 229440, Control_c, 0, 64, 0
1, 229440, Note_on_c, 0, 63, 47
1, 229560, Note_on_c, 0, 63, 0
1, 229680, Tempo, 306107
1, 229680, Note_on_c, 0, 71, 0
1, 229680, Note_on_c, 0, 79, 0
1, 229680, Note_on_c, 0, 83, 0
1, 229680, Note_on_c, 0, 55, 51
1, 229800, Note_on_c, 0, 55, 0
1, 229920, Tempo, 302160
1, 229920, Note_on_c, 0, 74, 62
1, 229920, Note_on_c, 0, 83, 69
1, 229920, Note_on_c, 0, 67, 46
1, 230040, Note_on_c, 0, 67, 0
1, 230046, Control_c, 0, 64, 127
1, 230160, Note_on_c, 0, 66, 46
1, 230280, Note_on_c, 0, 66, 0
1, 230400, Note_on_c, 0, 83, 0
1, 230400, Note_on_c, 0, 74, 0
1, 230400, Note_on_c, 0, 85, 66
1, 230400, Note_on_c, 0, 82, 59
1, 230400, Note_on_c, 0, 76, 59
1, 230400, Note_on_c, 0, 59, 53
1, 230409, Control_c, 0, 64, 0
1, 230464, Control_c, 0, 64, 127
1, 230520, Note_on_c, 0, 59, 0
1, 230640, Note_on_c, 0, 67, 47
1, 230760, Note_on_c, 0, 67, 0
1, 230880, Note_on_c, 0, 76, 0
1, 230880, Note_on_c, 0, 82, 0
1, 230880, Note_on_c, 0, 85, 0
1, 230880, Note_on_c, 0, 86, 68
1, 230880, Note_on_c, 0, 83, 68
1, 230880, Note_on_c, 0, 74, 61
1, 230880, Note_on_c, 0, 66, 48
1, 230886, Control_c, 0, 64, 0
1, 231000, Note_on_c, 0, 66, 0
1, 231120, Tempo, 305312
1, 231120, Note_on_c, 0, 86, 0
1, 231120, Note_on_c, 0, 83, 0
1, 231120, Note_on_c, 0, 74, 0
1, 231120, Note_on_c, 0, 59, 53
1, 231240, Note_on_c, 0, 59, 0
1, 231360, Tempo, 302160
1, 231360, Note_on_c, 0, 86, 76
1, 231360, Note_on_c, 0, 78, 68
1, 231360, Note_on_c, 0, 71, 49
1, 231429, Control_c, 0, 64, 127
1, 231480, Note_on_c, 0, 71, 0
1, 231600, Note_on_c, 0, 70, 47
1, 231720, Note_on_c, 0, 70, 0
1, 231840, Note_on_c, 0, 78, 0
1, 231840, Note_on_c, 0, 86, 0
1, 231840, Note_on_c, 0, 88, 74
1, 231840, Note_on_c, 0, 85, 66
1, 231840, Note_on_c, 0, 79, 66
1, 231840, Note_on_c, 0, 62, 58
1, 231855, Control_c, 0, 64, 0
1, 231914, Control_c, 0, 64, 127
1, 231960, Note_on_c, 0, 62, 0
1, 232080, Note_on_c, 0, 71, 50
1, 232200, Note_on_c, 0, 71, 0
1, 232320, Note_on_c, 0, 79, 0
1, 232320, Note_on_c, 0, 85, 0
1, 232320, Note_on_c, 0, 88, 0
1, 232320, Note_on_c, 0, 90, 79
1, 232320, Note_on_c, 0, 86, 79
1, 232320, Note_on_c, 0, 78, 70
1, 232320, Note_on_c, 0, 70, 59
1, 232440, Note_on_c, 0, 70, 0
1, 232560, Tempo, 306905
1, 232560, Note_on_c, 0, 90, 0
1, 232560, Note_on_c, 0, 86, 0
1, 232560, Note_on_c, 0, 78, 0
1, 232560, Note_on_c, 0, 62, 48
1, 232568, Control_c, 0, 64, 0
1, 232680, Note_on_c, 0, 62, 0
1, 232800, Tempo, 302160
1, 232800, Note_on_c, 0, 78, 74
1, 232800, Note_on_c, 0, 86, 83
1, 232800, Note_on_c, 0, 90, 83
1, 232800, Note_on_c, 0, 70, 62
1, 232806, Control_c, 0, 64, 127
1, 233040, Note_on_c, 0, 70, 0
1, 233040, Note_on_c, 0, 62, 48
1, 233280, Note_on_c, 0, 62, 0
1, 233280, Note_on_c, 0, 90, 0
1, 233280, Note_on_c, 0, 86, 0
1, 233280, Note_on_c, 0, 78, 0
1, 233280, Note_on_c, 0, 78, 71
1, 233280, Note_on_c, 0, 86, 80
1, 233280, Note_on_c, 0, 90, 80
1, 233280, Note_on_c, 0, 70, 61
1, 233520, Note_on_c, 0, 70, 0
1, 233520, Note_on_c, 0, 62, 48
1, 233760, Note_on_c, 0, 62, 0
1, 233760, Note_on_c, 0, 90, 0
1, 233760, Note_on_c, 0, 86, 0
1, 233760, Note_on_c, 0, 78, 0
1, 233760, Note_on_c, 0, 90, 81
1, 233760, Note_on_c, 0, 86, 81
1, 233760, Note_on_c, 0, 78, 72
1, 233760, Note_on_c, 0, 70, 61
1, 234000, Tempo, 306107
1, 234000, Note_on_c, 0, 70, 0
1, 234000, Note_on_c, 0, 62, 48
1, 234240, Tempo, 302160
1, 234240, Note_on_c, 0, 62, 0
1, 234240, Note_on_c, 0, 78, 0
1, 234240, Note_on_c, 0, 86, 0
1, 234240, Note_on_c, 0, 90, 0
1, 234240, Note_on_c, 0, 88, 82
1, 234240, Note_on_c, 0, 90, 82
1, 234240, Note_on_c, 0, 78, 73
1, 234240, Note_on_c, 0, 70, 61
1, 234260, Control_c, 0, 64, 0
1, 234389, Control_c, 0, 64, 127
1, 234480, Note_on_c, 0, 70, 0
1, 234480, Note_on_c, 0, 61, 48
1, 234720, Note_on_c, 0, 61, 0
1, 234720, Note_on_c, 0, 78, 0
1, 234720, Note_on_c, 0, 90, 0
1, 234720, Note_on_c, 0, 88, 0
1, 234720, Note_on_c, 0, 78, 69
1, 234720, Note_on_c, 0, 88, 78
1, 234720, Note_on_c, 0, 90, 78
1, 234720, Note_on_c, 0, 70, 58
1, 234960, Note_on_c, 0, 70, 0
1, 234960, Note_on_c, 0, 61, 46
1, 235200, Note_on_c, 0, 61, 0
1, 235200, Note_on_c, 0, 90, 0
1, 235200, Note_on_c, 0, 88, 0
1, 235200, Note_on_c, 0, 78, 0
1, 235200, Note_on_c, 0, 78, 70
1, 235200, Note_on_c, 0, 88, 79
1, 235200, Note_on_c, 0, 90, 79
1, 235200, Note_on_c, 0, 70, 57
1, 235440, Tempo, 306107
1, 235440, Note_on_c, 0, 70, 0
1, 235440, Note_on_c, 0, 61, 46
1, 235680, Tempo, 302267
1, 235680, Note_on_c, 0, 61, 0
1, 235680, Note_on_c, 0, 90, 0
1, 235680, Note_on_c, 0, 88, 0
1, 235680, Note_on_c, 0, 78, 0
1, 235680, Note_on_c, 0, 78, 79
1, 235680, Note_on_c, 0, 70, 70
1, 235680, Note_on_c, 0, 76, 79
1, 235680, Note_on_c, 0, 61, 57
1, 235695, Control_c, 0, 64, 0
1, 235771, Control_c, 0, 64, 127
1, 235920, Note_on_c, 0, 61, 0
1, 235920, Note_on_c, 0, 54, 46
1, 236160, Tempo, 306122
1, 236160, Note_on_c, 0, 54, 0
1, 236160, Note_on_c, 0, 76, 0
1, 236160, Note_on_c, 0, 70, 0
1, 236160, Note_on_c, 0, 78, 0
1, 236160, Note_on_c, 0, 70, 70
1, 236160, Note_on_c, 0, 78, 79
1, 236160, Note_on_c, 0, 76, 79
1, 236160, Note_on_c, 0, 61, 56
1, 236400, Note_on_c, 0, 61, 0
1, 236400, Note_on_c, 0, 54, 42
1, 236640, Note_on_c, 0, 54, 0
1, 236640, Note_on_c, 0, 76, 0
1, 236640, Note_on_c, 0, 78, 0
1, 236640, Note_on_c, 0, 70, 0
1, 236640, Note_on_c, 0, 70, 69
1, 236640, Note_on_c, 0, 76, 77
1, 236640, Note_on_c, 0, 78, 77
1, 236640, Note_on_c, 0, 61, 57
1, 236880, Tempo, 320856
1, 236880, Note_on_c, 0, 61, 0
1, 236880, Note_on_c, 0, 54, 44
1, 237120, Tempo, 304569
1, 237120, Note_on_c, 0, 54, 0
1, 237120, Note_on_c, 0, 78, 0
1, 237120, Note_on_c, 0, 76, 0
1, 237120, Note_on_c, 0, 70, 0
1, 237120, Note_on_c, 0, 58, 63
1, 237120, Note_on_c, 0, 66, 70
1, 237120, Note_on_c, 0, 64, 70
1, 237120, Note_on_c, 0, 49, 50
1, 237129, Control_c, 0, 64, 0
1, 237180, Tempo, 305344
1, 237200, Control_c, 0, 64, 127
1, 237240, Tempo, 306122
1, 237300, Tempo, 306905
1, 237360, Tempo, 307692
1, 237360, Note_on_c, 0, 49, 0
1, 237360, Note_on_c, 0, 42, 40
1, 237420, Tempo, 308483
1, 237480, Tempo, 309278
1, 237540, Tempo, 310078
1, 237580, Tempo, 310881
1, 237600, Note_on_c, 0, 42, 0
1, 237600, Note_on_c, 0, 64, 0
1, 237600, Note_on_c, 0, 66, 0
1, 237600, Note_on_c, 0, 58, 0
1, 237600, Note_on_c, 0, 58, 63
1, 237600, Note_on_c, 0, 64, 70
1, 237600, Note_on_c, 0, 66, 70
1, 237600, Note_on_c, 0, 49, 50
1, 237620, Tempo, 311688
1, 237640, Tempo, 312500
1, 237660, Tempo, 313316
1, 237680, Tempo, 314136
1, 237700, Tempo, 314961
1, 237720, Tempo, 315789
1, 237740, Tempo, 316623
1, 237760, Tempo, 317460
1, 237780, Tempo, 318302
1, 237800, Tempo, 319149
1, 237820, Tempo, 320000
1, 237840, Tempo, 320856
1, 237840, Note_on_c, 0, 49, 0
1, 237840, Note_on_c, 0, 42, 41
1, 237860, Tempo, 321716
1, 237880, Tempo, 322581
1, 237900, Tempo, 323450
1, 237920, Tempo, 324324
1, 237940, Tempo, 325203
1, 237980, Tempo, 326087
1, 238000, Tempo, 326975
1, 238020, Tempo, 327869
1, 238040, Tempo, 328767
1, 238060, Tempo, 329670
1, 238080, Tempo, 330579
1, 238080, Note_on_c, 0, 42, 0
1, 238080, Note_on_c, 0, 66, 0
1, 238080, Note_on_c, 0, 64, 0
1, 238080, Note_on_c, 0, 58, 0
1, 238080, Note_on_c, 0, 58, 62
1, 238080, Note_on_c, 0, 66, 69
1, 238080, Note_on_c, 0, 64, 69
1, 238080, Note_on_c, 0, 49, 49
1, 238100, Tempo, 331492
1, 238120, Tempo, 332410
1, 238140, Tempo, 333333
1, 238160, Tempo, 334262
1, 238180, Tempo, 335196
1, 238200, Tempo, 336134
1, 238220, Tempo, 337079
1, 238240, Tempo, 338028
1, 238260, Tempo, 338983
1, 238280, Tempo, 339943
1, 238300, Tempo, 340909
1, 238320, Tempo, 500000
1, 238320, Note_on_c, 0, 49, 0
1, 238320, Control_c, 0, 64, 0
1, 238320, Note_on_c, 0, 42, 41
1, 238500, Note_on_c, 0, 42, 0
1, 238500, Note_on_c, 0, 64, 0
1, 238500, Note_on_c, 0, 66, 0
1, 238500, Note_on_c, 0, 58, 0
1, 238560, Tempo, 298507
1, 238560, Note_on_c, 0, 66, 45
1, 238560, Note_on_c, 0, 71, 49
1, 238560, Note_on_c, 0, 62, 45
1, 238740, Control_c, 0, 64, 127
1, 238800, Note_on_c, 0, 62, 0
1, 238800, Note_on_c, 0, 71, 0
1, 238800, Note_on_c, 0, 66, 0
1, 238800, Note_on_c, 0, 65, 46
1, 238800, Note_on_c, 0, 61, 43
1, 239040, Tempo, 299252
1, 239040, Note_on_c, 0, 61, 0
1, 239040, Note_on_c, 0, 65, 0
1, 239040, Note_on_c, 0, 66, 45
1, 239040, Note_on_c, 0, 71, 49
1, 239040, Note_on_c, 0, 62, 45
1, 239053, Control_c, 0, 64, 0
1, 239134, Control_c, 0, 64, 127
1, 239280, Note_on_c, 0, 47, 40
1, 239520, Tempo, 305312
1, 239520, Note_on_c, 0, 47, 0
1, 239520, Note_on_c, 0, 66, 0
1, 239520, Note_on_c, 0, 71, 0
1, 239520, Note_on_c, 0, 62, 0
1, 239520, Note_on_c, 0, 64, 45
1, 239520, Note_on_c, 0, 70, 49
1, 239520, Note_on_c, 0, 61, 43
1, 239531, Control_c, 0, 64, 0
1, 239760, Note_on_c, 0, 61, 0
1, 239760, Note_on_c, 0, 70, 0
1, 239760, Note_on_c, 0, 64, 0
1, 239760, Note_on_c, 0, 47, 36
1, 240000, Tempo, 302160
1, 240000, Note_on_c, 0, 47, 0
1, 240000, Note_on_c, 0, 62, 45
1, 240000, Note_on_c, 0, 67, 49
1, 240000, Note_on_c, 0, 59, 44
1, 240040, Tempo, 298507
1, 240103, Control_c, 0, 64, 127
1, 240240, Note_on_c, 0, 59, 0
1, 240240, Note_on_c, 0, 67, 0
1, 240240, Note_on_c, 0, 62, 0
1, 240240, Note_on_c, 0, 61, 45
1, 240240, Note_on_c, 0, 58, 42
1, 240480, Tempo, 299252
1, 240480, Note_on_c, 0, 58, 0
1, 240480, Note_on_c, 0, 61, 0
1, 240480, Note_on_c, 0, 62, 45
1, 240480, Note_on_c, 0, 67, 49
1, 240480, Note_on_c, 0, 59, 45
1, 240492, Control_c, 0, 64, 0
1, 240571, Control_c, 0, 64, 127
1, 240720, Note_on_c, 0, 47, 39
1, 240960, Tempo, 306905
1, 240960, Note_on_c, 0, 47, 0
1, 240960, Note_on_c, 0, 62, 0
1, 240960, Note_on_c, 0, 67, 0
1, 240960, Note_on_c, 0, 59, 0
1, 240960, Note_on_c, 0, 61, 44
1, 240960, Note_on_c, 0, 66, 47
1, 240960, Note_on_c, 0, 58, 44
1, 240968, Control_c, 0, 64, 0
1, 241200, Note_on_c, 0, 58, 0
1, 241200, Note_on_c, 0, 66, 0
1, 241200, Note_on_c, 0, 61, 0
1, 241200, Note_on_c, 0, 47, 36
1, 241440, Tempo, 298507
1, 241440, Note_on_c, 0, 47, 0
1, 241440, Note_on_c, 0, 60, 45
1, 241440, Note_on_c, 0, 66, 49
1, 241440, Note_on_c, 0, 57, 44
1, 241520, Control_c, 0, 64, 127
1, 241680, Note_on_c, 0, 57, 0
1, 241680, Note_on_c, 0, 66, 0
1, 241680, Note_on_c, 0, 60, 0
1, 241680, Note_on_c, 0, 59, 46
1, 241680, Note_on_c, 0, 56, 41
1, 241920, Tempo, 300752
1, 241920, Note_on_c, 0, 56, 0
1, 241920, Note_on_c, 0, 59, 0
1, 241920, Note_on_c, 0, 60, 45
1, 241920, Note_on_c, 0, 66, 49
1, 241920, Note_on_c, 0, 57, 45
1, 241932, Control_c, 0, 64, 0
1, 242034, Control_c, 0, 64, 127
1, 242160, Note_on_c, 0, 47, 40
1, 242400, Tempo, 299835
1, 242400, Note_on_c, 0, 47, 0
1, 242400, Note_on_c, 0, 60, 0
1, 242400, Note_on_c, 0, 66, 0
1, 242400, Note_on_c, 0, 57, 0
1, 242400, Note_on_c, 0, 59, 43
1, 242400, Note_on_c, 0, 64, 46
1, 242400, Note_on_c, 0, 56, 44
1, 242414, Control_c, 0, 64, 0
1, 242640, Note_on_c, 0, 56, 0
1, 242640, Note_on_c, 0, 64, 0
1, 242640, Note_on_c, 0, 59, 0
1, 242640, Note_on_c, 0, 47, 37
1, 242880, Tempo, 302160
1, 242880, Note_on_c, 0, 47, 0
1, 242880, Note_on_c, 0, 58, 45
1, 242880, Note_on_c, 0, 64, 49
1, 242880, Note_on_c, 0, 55, 45
1, 242903, Control_c, 0, 64, 127
1, 243120, Note_on_c, 0, 55, 0
1, 243120, Note_on_c, 0, 64, 0
1, 243120, Note_on_c, 0, 58, 0
1, 243120, Note_on_c, 0, 47, 43
1, 243360, Note_on_c, 0, 47, 0
1, 243360, Note_on_c, 0, 58, 47
1, 243360, Note_on_c, 0, 62, 52
1, 243360, Note_on_c, 0, 54, 49
1, 243375, Control_c, 0, 64, 0
1, 243474, Control_c, 0, 64, 127
1, 243600, Note_on_c, 0, 54, 0
1, 243600, Note_on_c, 0, 62, 0
1, 243600, Note_on_c, 0, 58, 0
1, 243600, Note_on_c, 0, 47, 50
1, 243840, Note_on_c, 0, 47, 0
1, 243840, Note_on_c, 0, 58, 45
1, 243840, Note_on_c, 0, 61, 50
1, 243840, Note_on_c, 0, 52, 47
1, 244080, Tempo, 303721
1, 244080, Note_on_c, 0, 52, 0
1, 244080, Note_on_c, 0, 61, 0
1, 244080, Note_on_c, 0, 58, 0
1, 244080, Note_on_c, 0, 59, 47
1, 244080, Note_on_c, 0, 47, 44
1, 244080, Note_on_c, 0, 50, 44
1, 244087, Control_c, 0, 64, 0
1, 244320, Tempo, 299835
1, 244320, Note_on_c, 0, 50, 0
1, 244320, Note_on_c, 0, 47, 0
1, 244320, Note_on_c, 0, 59, 0
1, 244320, Note_on_c, 0, 53, 52
1, 244440, Note_on_c, 0, 53, 0
1, 244560, Tempo, 308515
1, 244560, Note_on_c, 0, 54, 54
1, 244680, Note_on_c, 0, 54, 0
1, 244800, Tempo, 302160
1, 244800, Note_on_c, 0, 55, 59
1, 244863, Control_c, 0, 64, 127
1, 245040, Tempo, 302160
1, 245040, Note_on_c, 0, 62, 47
1, 245040, Note_on_c, 0, 71, 47
1, 245040, Note_on_c, 0, 74, 47
1, 245160, Note_on_c, 0, 74, 0
1, 245160, Note_on_c, 0, 71, 0
1, 245160, Note_on_c, 0, 62, 0
1, 245280, Note_on_c, 0, 64, 49
1, 245280, Note_on_c, 0, 71, 49
1, 245280, Note_on_c, 0, 74, 49
1, 245400, Note_on_c, 0, 74, 0
1, 245400, Note_on_c, 0, 71, 0
1, 245400, Note_on_c, 0, 64, 0
1, 245520, Tempo, 303721
1, 245520, Note_on_c, 0, 55, 0
1, 245520, Note_on_c, 0, 65, 46
1, 245520, Note_on_c, 0, 71, 46
1, 245520, Note_on_c, 0, 74, 46
1, 245520, Note_on_c, 0, 43, 49
1, 245535, Control_c, 0, 64, 0
1, 245640, Note_on_c, 0, 74, 0
1, 245640, Note_on_c, 0, 65, 0
1, 245640, Note_on_c, 0, 71, 0
1, 245760, Tempo, 302160
1, 245760, Note_on_c, 0, 43, 0
1, 245760, Note_on_c, 0, 45, 51
1, 245880, Note_on_c, 0, 45, 0
1, 246000, Note_on_c, 0, 43, 49
1, 246120, Note_on_c, 0, 43, 0
1, 246240, Note_on_c, 0, 42, 51
1, 246303, Control_c, 0, 64, 127
1, 246480, Tempo, 303721
1, 246480, Note_on_c, 0, 56, 45
1, 246480, Note_on_c, 0, 59, 45
1, 246480, Note_on_c, 0, 66, 45
1, 246600, Note_on_c, 0, 66, 0
1, 246600, Note_on_c, 0, 59, 0
1, 246600, Note_on_c, 0, 56, 0
1, 246720, Note_on_c, 0, 58, 46
1, 246720, Note_on_c, 0, 61, 46
1, 246720, Note_on_c, 0, 64, 46
1, 246840, Note_on_c, 0, 64, 0
1, 246840, Note_on_c, 0, 61, 0
1, 246840, Note_on_c, 0, 58, 0
1, 246960, Tempo, 304507
1, 246960, Note_on_c, 0, 42, 0
1, 246960, Note_on_c, 0, 59, 46
1, 246960, Note_on_c, 0, 62, 46
1, 246960, Note_on_c, 0, 47, 48
1, 246974, Control_c, 0, 64, 0
1, 247080, Note_on_c, 0, 62, 0
1, 247080, Note_on_c, 0, 59, 0
1, 247200, Tempo, 299835
1, 247200, Note_on_c, 0, 47, 0
1, 247200, Note_on_c, 0, 53, 51
1, 247320, Note_on_c, 0, 53, 0
1, 247440, Note_on_c, 0, 54, 54
1, 247560, Note_on_c, 0, 54, 0
1, 247680, Tempo, 303721
1, 247680, Note_on_c, 0, 55, 58
1, 247714, Control_c, 0, 64, 127
1, 247920, Tempo, 302160
1, 247920, Note_on_c, 0, 62, 47
1, 247920, Note_on_c, 0, 71, 47
1, 247920, Note_on_c, 0, 74, 47
1, 248040, Note_on_c, 0, 74, 0
1, 248040, Note_on_c, 0, 71, 0
1, 248040, Note_on_c, 0, 62, 0
1, 248160, Note_on_c, 0, 64, 49
1, 248160, Note_on_c, 0, 71, 49
1, 248160, Note_on_c, 0, 74, 49
1, 248280, Note_on_c, 0, 74, 0
1, 248280, Note_on_c, 0, 71, 0
1, 248280, Note_on_c, 0, 64, 0
1, 248400, Tempo, 305312
1, 248400, Note_on_c, 0, 55, 0
1, 248400, Note_on_c, 0, 65, 45
1, 248400, Note_on_c, 0, 71, 45
1, 248400, Note_on_c, 0, 74, 45
1, 248400, Note_on_c, 0, 43, 49
1, 248417, Control_c, 0, 64, 0
1, 248520, Note_on_c, 0, 74, 0
1, 248520, Note_on_c, 0, 65, 0
1, 248520, Note_on_c, 0, 71, 0
1, 248640, Tempo, 302160
1, 248640, Note_on_c, 0, 43, 0
1, 248640, Note_on_c, 0, 45, 54
1, 248760, Note_on_c, 0, 45, 0
1, 248880, Note_on_c, 0, 43, 51
1, 249000, Note_on_c, 0, 43, 0
1, 249120, Tempo, 306107
1, 249120, Note_on_c, 0, 42, 52
1, 249160, Control_c, 0, 64, 127
1, 249360, Tempo, 303721
1, 249360, Note_on_c, 0, 56, 47
1, 249360, Note_on_c, 0, 59, 47
1, 249360, Note_on_c, 0, 66, 47
1, 249480, Note_on_c, 0, 66, 0
1, 249480, Note_on_c, 0, 59, 0
1, 249480, Note_on_c, 0, 56, 0
1, 249600, Note_on_c, 0, 58, 46
1, 249600, Note_on_c, 0, 61, 46
1, 249600, Note_on_c, 0, 64, 46
1, 249720, Note_on_c, 0, 64, 0
1, 249720, Note_on_c, 0, 61, 0
1, 249720, Note_on_c, 0, 58, 0
1, 249840, Tempo, 312630
1, 249840, Note_on_c, 0, 42, 0
1, 249840, Note_on_c, 0, 59, 46
1, 249840, Note_on_c, 0, 62, 46
1, 249840, Note_on_c, 0, 47, 49
1, 249858, Control_c, 0, 64, 0
1, 249960, Note_on_c, 0, 62, 0
1, 249960, Note_on_c, 0, 59, 0
1, 250080, Tempo, 302160
1, 250080, Note_on_c, 0, 47, 0
1, 250080, Note_on_c, 0, 52, 55
1, 250200, Note_on_c, 0, 52, 0
1, 250320, Note_on_c, 0, 50, 52
1, 250440, Note_on_c, 0, 50, 0
1, 250560, Tempo, 305312
1, 250560, Note_on_c, 0, 49, 51
1, 250600, Control_c, 0, 64, 127
1, 250800, Tempo, 303721
1, 250800, Note_on_c, 0, 57, 47
1, 250800, Note_on_c, 0, 64, 47
1, 250800, Note_on_c, 0, 69, 47
1, 250920, Note_on_c, 0, 69, 0
1, 250920, Note_on_c, 0, 64, 0
1, 250920, Note_on_c, 0, 57, 0
1, 251040, Note_on_c, 0, 57, 46
1, 251040, Note_on_c, 0, 64, 46
1, 251040, Note_on_c, 0, 67, 46
1, 251160, Note_on_c, 0, 67, 0
1, 251160, Note_on_c, 0, 64, 0
1, 251160, Note_on_c, 0, 57, 0
1, 251280, Tempo, 312630
1, 251280, Note_on_c, 0, 49, 0
1, 251280, Note_on_c, 0, 57, 47
1, 251280, Note_on_c, 0, 62, 47
1, 251280, Note_on_c, 0, 66, 47
1, 251280, Note_on_c, 0, 50, 50
1, 251291, Control_c, 0, 64, 0
1, 251400, Note_on_c, 0, 66, 0
1, 251400, Note_on_c, 0, 57, 0
1, 251400, Note_on_c, 0, 62, 0
1, 251520, Tempo, 302160
1, 251520, Note_on_c, 0, 50, 0
1, 251520, Note_on_c, 0, 56, 58
1, 251640, Note_on_c, 0, 56, 0
1, 251760, Note_on_c, 0, 54, 56
1, 251880, Note_on_c, 0, 54, 0
1, 252000, Tempo, 305312
1, 252000, Note_on_c, 0, 53, 55
1, 252040, Control_c, 0, 64, 127
1, 252240, Tempo, 303721
1, 252240, Note_on_c, 0, 61, 55
1, 252240, Note_on_c, 0, 68, 55
1, 252240, Note_on_c, 0, 73, 55
1, 252360, Note_on_c, 0, 73, 0
1, 252360, Note_on_c, 0, 68, 0
1, 252360, Note_on_c, 0, 61, 0
1, 252480, Note_on_c, 0, 61, 55
1, 252480, Note_on_c, 0, 68, 55
1, 252480, Note_on_c, 0, 71, 55
1, 252600, Note_on_c, 0, 71, 0
1, 252600, Note_on_c, 0, 68, 0
1, 252600, Note_on_c, 0, 61, 0
1, 252720, Tempo, 312630
1, 252720, Note_on_c, 0, 53, 0
1, 252720, Note_on_c, 0, 61, 55
1, 252720, Note_on_c, 0, 66, 55
1, 252720, Note_on_c, 0, 70, 55
1, 252720, Note_on_c, 0, 54, 52
1, 252731, Control_c, 0, 64, 0
1, 252840, Note_on_c, 0, 70, 0
1, 252840, Note_on_c, 0, 61, 0
1, 252840, Note_on_c, 0, 66, 0
1, 252954, Control_c, 0, 64, 127
1, 252960, Tempo, 300601
1, 252960, Note_on_c, 0, 54, 0
1, 252960, Note_on_c, 0, 73, 66
1, 252960, Note_on_c, 0, 78, 66
1, 252960, Note_on_c, 0, 58, 56
1, 252960, Note_on_c, 0, 66, 56
1, 253200, Note_on_c, 0, 78, 0
1, 253200, Note_on_c, 0, 76, 66
1, 253440, Tempo, 303721
1, 253440, Note_on_c, 0, 76, 0
1, 253440, Note_on_c, 0, 73, 0
1, 253440, Note_on_c, 0, 58, 0
1, 253440, Note_on_c, 0, 71, 64
1, 253440, Note_on_c, 0, 74, 64
1, 253440, Note_on_c, 0, 56, 60
1, 253680, Tempo, 300601
1, 253680, Note_on_c, 0, 56, 0
1, 253680, Note_on_c, 0, 66, 0
1, 253680, Note_on_c, 0, 71, 0
1, 253680, Note_on_c, 0, 74, 0
1, 253680, Note_on_c, 0, 73, 72
1, 253680, Note_on_c, 0, 78, 72
1, 253680, Note_on_c, 0, 58, 60
1, 253680, Note_on_c, 0, 66, 60
1, 253689, Control_c, 0, 64, 0
1, 253794, Control_c, 0, 64, 127
1, 253920, Note_on_c, 0, 78, 0
1, 253920, Note_on_c, 0, 76, 69
1, 254160, Tempo, 304507
1, 254160, Note_on_c, 0, 76, 0
1, 254160, Note_on_c, 0, 73, 0
1, 254160, Note_on_c, 0, 58, 0
1, 254160, Note_on_c, 0, 71, 70
1, 254160, Note_on_c, 0, 74, 70
1, 254160, Note_on_c, 0, 56, 65
1, 254400, Tempo, 300601
1, 254400, Note_on_c, 0, 56, 0
1, 254400, Note_on_c, 0, 66, 0
1, 254400, Note_on_c, 0, 71, 0
1, 254400, Note_on_c, 0, 74, 0
1, 254400, Note_on_c, 0, 73, 77
1, 254400, Note_on_c, 0, 78, 77
1, 254400, Note_on_c, 0, 58, 65
1, 254400, Note_on_c, 0, 66, 65
1, 254413, Control_c, 0, 64, 0
1, 254537, Control_c, 0, 64, 127
1, 254640, Note_on_c, 0, 78, 0
1, 254640, Note_on_c, 0, 76, 78
1, 254880, Tempo, 309342
1, 254880, Note_on_c, 0, 76, 0
1, 254880, Note_on_c, 0, 73, 0
1, 254880, Note_on_c, 0, 58, 0
1, 254880, Note_on_c, 0, 71, 80
1, 254880, Note_on_c, 0, 74, 80
1, 254880, Note_on_c, 0, 56, 71
1, 254914, Control_c, 0, 64, 0
1, 255120, Tempo, 313480
1, 255120, Note_on_c, 0, 56, 0
1, 255120, Note_on_c, 0, 66, 0
1, 255120, Note_on_c, 0, 71, 0
1, 255120, Note_on_c, 0, 74, 0
1, 255120, Note_on_c, 0, 78, 82
1, 255120, Note_on_c, 0, 73, 82
1, 255120, Note_on_c, 0, 58, 72
1, 255120, Note_on_c, 0, 66, 72
1, 255240, Note_on_c, 0, 66, 0
1, 255240, Note_on_c, 0, 78, 0
1, 255240, Note_on_c, 0, 73, 0
1, 255240, Note_on_c, 0, 58, 0
1, 255360, Tempo, 317460
1, 255360, Note_on_c, 0, 71, 78
1, 255360, Note_on_c, 0, 74, 78
1, 255360, Note_on_c, 0, 59, 69
1, 255360, Note_on_c, 0, 66, 69
1, 255480, Note_on_c, 0, 66, 0
1, 255480, Note_on_c, 0, 71, 0
1, 255480, Note_on_c, 0, 74, 0
1, 255480, Note_on_c, 0, 59, 0
1, 255600, Note_on_c, 0, 67, 74
1, 255600, Note_on_c, 0, 71, 74
1, 255600, Note_on_c, 0, 76, 88
1, 255600, Note_on_c, 0, 79, 88
1, 255600, Note_on_c, 0, 52, 63
1, 255600, Note_on_c, 0, 59, 63
1, 255600, Note_on_c, 0, 64, 75
1, 255697, Control_c, 0, 64, 127
1, 255840, Tempo, 322963
1, 256300, Tempo, 307708
1, 256320, Tempo, 313316
1, 256320, Note_on_c, 0, 64, 0
1, 256320, Note_on_c, 0, 52, 0
1, 256320, Note_on_c, 0, 71, 0
1, 256320, Note_on_c, 0, 76, 0
1, 256320, Note_on_c, 0, 67, 0
1, 256320, Note_on_c, 0, 59, 0
1, 256320, Note_on_c, 0, 79, 0
1, 256320, Note_on_c, 0, 52, 54
1, 256327, Control_c, 0, 64, 0
1, 256385, Control_c, 0, 64, 127
1, 256400, Tempo, 312500
1, 256440, Tempo, 311688
1, 256440, Note_on_c, 0, 55, 56
1, 256520, Tempo, 310881
1, 256560, Tempo, 310078
1, 256560, Note_on_c, 0, 55, 0
1, 256560, Note_on_c, 0, 59, 57
1, 256640, Tempo, 309278
1, 256680, Tempo, 308483
1, 256680, Note_on_c, 0, 59, 0
1, 256680, Note_on_c, 0, 61, 59
1, 256760, Tempo, 307692
1, 256800, Tempo, 306905
1, 256800, Note_on_c, 0, 61, 0
1, 256800, Note_on_c, 0, 52, 0
1, 256800, Note_on_c, 0, 64, 64
1, 256880, Tempo, 306122
1, 256920, Tempo, 305344
1, 256920, Note_on_c, 0, 64, 0
1, 256920, Note_on_c, 0, 67, 63
1, 257000, Tempo, 304569
1, 257040, Tempo, 303797
1, 257040, Note_on_c, 0, 67, 0
1, 257040, Note_on_c, 0, 76, 61
1, 257060, Tempo, 302939
1, 257140, Tempo, 302160
1, 257160, Note_on_c, 0, 76, 0
1, 257160, Note_on_c, 0, 73, 60
1, 257280, Note_on_c, 0, 73, 0
1, 257280, Note_on_c, 0, 71, 59
1, 257400, Note_on_c, 0, 71, 0
1, 257400, Note_on_c, 0, 67, 58
1, 257460, Tempo, 302939
1, 257520, Note_on_c, 0, 67, 0
1, 257520, Note_on_c, 0, 64, 56
1, 257640, Note_on_c, 0, 64, 0
1, 257640, Note_on_c, 0, 61, 57
1, 257680, Tempo, 302160
1, 257760, Tempo, 302939
1, 257760, Note_on_c, 0, 61, 0
1, 257760, Note_on_c, 0, 59, 57
1, 257776, Control_c, 0, 64, 0
1, 257813, Control_c, 0, 64, 127
1, 257840, Tempo, 303721
1, 257880, Tempo, 304507
1, 257880, Note_on_c, 0, 59, 0
1, 257880, Note_on_c, 0, 55, 56
1, 257960, Tempo, 305312
1, 258000, Note_on_c, 0, 55, 0
1, 258000, Note_on_c, 0, 52, 56
1, 258040, Tempo, 306107
1, 258080, Tempo, 306905
1, 258120, Note_on_c, 0, 52, 0
1, 258120, Note_on_c, 0, 49, 58
1, 258160, Tempo, 307708
1, 258240, Tempo, 308515
1, 258240, Note_on_c, 0, 49, 0
1, 258240, Note_on_c, 0, 47, 58
1, 258280, Tempo, 309342
1, 258360, Tempo, 310142
1, 258360, Note_on_c, 0, 47, 0
1, 258360, Note_on_c, 0, 43, 58
1, 258400, Tempo, 310978
1, 258460, Tempo, 305312
1, 258480, Tempo, 311802
1, 258480, Note_on_c, 0, 43, 0
1, 258480, Note_on_c, 0, 40, 57
1, 258720, Note_on_c, 0, 40, 0
1, 258720, Note_on_c, 0, 49, 57
1, 258960, Note_on_c, 0, 49, 0
1, 258960, Note_on_c, 0, 55, 56
1, 258960, Note_on_c, 0, 59, 56
1, 258960, Note_on_c, 0, 64, 56
1, 258967, Control_c, 0, 64, 0
1, 259080, Note_on_c, 0, 64, 0
1, 259080, Note_on_c, 0, 59, 0
1, 259080, Note_on_c, 0, 55, 0
1, 259200, Tempo, 310078
1, 259200, Note_on_c, 0, 52, 53
1, 259242, Control_c, 0, 64, 127
1, 259280, Tempo, 309278
1, 259320, Note_on_c, 0, 52, 0
1, 259320, Note_on_c, 0, 59, 55
1, 259360, Tempo, 308483
1, 259440, Tempo, 307692
1, 259440, Note_on_c, 0, 59, 0
1, 259440, Note_on_c, 0, 61, 56
1, 259520, Tempo, 306905
1, 259560, Tempo, 306122
1, 259560, Note_on_c, 0, 61, 0
1, 259560, Note_on_c, 0, 64, 58
1, 259640, Tempo, 305344
1, 259680, Note_on_c, 0, 64, 0
1, 259680, Note_on_c, 0, 67, 63
1, 259720, Tempo, 304569
1, 259800, Tempo, 303797
1, 259800, Note_on_c, 0, 67, 0
1, 259800, Note_on_c, 0, 71, 63
1, 259880, Tempo, 303030
1, 259920, Tempo, 302267
1, 259920, Note_on_c, 0, 71, 0
1, 259920, Note_on_c, 0, 79, 61
1, 260040, Note_on_c, 0, 79, 0
1, 260040, Note_on_c, 0, 76, 60
1, 260160, Note_on_c, 0, 76, 0
1, 260160, Note_on_c, 0, 73, 59
1, 260280, Note_on_c, 0, 73, 0
1, 260280, Note_on_c, 0, 71, 58
1, 260400, Note_on_c, 0, 71, 0
1, 260400, Note_on_c, 0, 67, 57
1, 260520, Note_on_c, 0, 67, 0
1, 260520, Note_on_c, 0, 64, 58
1, 260600, Tempo, 301386
1, 260640, Note_on_c, 0, 64, 0
1, 260640, Note_on_c, 0, 61, 57
1, 260650, Control_c, 0, 64, 0
1, 260698, Control_c, 0, 64, 127
1, 260720, Tempo, 302160
1, 260760, Note_on_c, 0, 61, 0
1, 260760, Note_on_c, 0, 59, 56
1, 260800, Tempo, 302939
1, 260880, Tempo, 303721
1, 260880, Note_on_c, 0, 59, 0
1, 260880, Note_on_c, 0, 55, 56
1, 260960, Tempo, 304507
1, 261000, Note_on_c, 0, 55, 0
1, 261000, Note_on_c, 0, 52, 58
1, 261040, Tempo, 305312
1, 261120, Tempo, 306107
1, 261120, Note_on_c, 0, 52, 0
1, 261120, Note_on_c, 0, 49, 58
1, 261200, Tempo, 306905
1, 261240, Note_on_c, 0, 49, 0
1, 261240, Note_on_c, 0, 47, 58
1, 261280, Tempo, 307708
1, 261320, Tempo, 306107
1, 261360, Tempo, 310978
1, 261360, Note_on_c, 0, 47, 0
1, 261360, Note_on_c, 0, 43, 60
1, 261600, Note_on_c, 0, 43, 0
1, 261600, Note_on_c, 0, 49, 57
1, 261840, Note_on_c, 0, 49, 0
1, 261840, Note_on_c, 0, 71, 62
1, 261840, Note_on_c, 0, 59, 62
1, 261840, Note_on_c, 0, 64, 62
1, 261840, Note_on_c, 0, 67, 62
1, 261842, Control_c, 0, 64, 0
1, 261960, Note_on_c, 0, 67, 0
1, 261960, Note_on_c, 0, 71, 0
1, 261960, Note_on_c, 0, 59, 0
1, 261960, Note_on_c, 0, 64, 0
1, 262080, Tempo, 310978
1, 262080, Control_c, 0, 64, 127
1, 262080, Note_on_c, 0, 42, 63
1, 262200, Note_on_c, 0, 42, 0
1, 262200, Note_on_c, 0, 47, 65
1, 262240, Tempo, 310142
1, 262320, Note_on_c, 0, 47, 0
1, 262320, Note_on_c, 0, 50, 68
1, 262360, Tempo, 309342
1, 262440, Note_on_c, 0, 50, 0
1, 262440, Note_on_c, 0, 54, 70
1, 262480, Tempo, 308515
1, 262560, Note_on_c, 0, 54, 0
1, 262560, Note_on_c, 0, 59, 71
1, 262640, Tempo, 307708
1, 262680, Note_on_c, 0, 59, 0
1, 262680, Note_on_c, 0, 62, 73
1, 262760, Tempo, 306905
1, 262800, Note_on_c, 0, 62, 0
1, 262800, Note_on_c, 0, 66, 75
1, 262800, Note_on_c, 0, 54, 75
1, 262880, Tempo, 306107
1, 262920, Note_on_c, 0, 54, 0
1, 262920, Note_on_c, 0, 66, 0
1, 262920, Note_on_c, 0, 71, 78
1, 262920, Note_on_c, 0, 59, 77
1, 263000, Tempo, 305312
1, 263040, Note_on_c, 0, 59, 0
1, 263040, Note_on_c, 0, 71, 0
1, 263040, Note_on_c, 0, 62, 79
1, 263040, Note_on_c, 0, 74, 79
1, 263160, Note_on_c, 0, 74, 0
1, 263160, Note_on_c, 0, 62, 0
1, 263160, Note_on_c, 0, 66, 81
1, 263160, Note_on_c, 0, 78, 81
1, 263280, Note_on_c, 0, 78, 0
1, 263280, Note_on_c, 0, 66, 0
1, 263280, Note_on_c, 0, 71, 84
1, 263280, Note_on_c, 0, 83, 84
1, 263400, Note_on_c, 0, 83, 0
1, 263400, Note_on_c, 0, 71, 0
1, 263400, Note_on_c, 0, 74, 86
1, 263400, Note_on_c, 0, 86, 86
1, 263520, Tempo, 459770
1, 263520, Note_on_c, 0, 86, 0
1, 263520, Note_on_c, 0, 74, 0
1, 263520, Note_on_c, 0, 90, 90
1, 263520, Note_on_c, 0, 78, 81
1, 263520, Control_c, 0, 64, 0
1, 263760, Tempo, 297767
1, 263760, Note_on_c, 0, 78, 0
1, 263760, Note_on_c, 0, 90, 0
1, 263760, Note_on_c, 0, 64, 72
1, 263760, Note_on_c, 0, 76, 80
1, 263760, Note_on_c, 0, 79, 85
1, 263760, Note_on_c, 0, 91, 95
1, 263880, Note_on_c, 0, 91, 0
1, 263880, Note_on_c, 0, 64, 0
1, 263880, Note_on_c, 0, 76, 0
1, 263880, Note_on_c, 0, 79, 0
1, 264000, Note_on_c, 0, 61, 68
1, 264000, Note_on_c, 0, 73, 76
1, 264000, Note_on_c, 0, 76, 81
1, 264000, Note_on_c, 0, 88, 90
1, 264120, Tempo, 298507
1, 264120, Note_on_c, 0, 88, 0
1, 264120, Note_on_c, 0, 61, 0
1, 264120, Note_on_c, 0, 73, 0
1, 264120, Note_on_c, 0, 76, 0
1, 264240, Note_on_c, 0, 62, 72
1, 264240, Note_on_c, 0, 74, 80
1, 264240, Note_on_c, 0, 90, 95
1, 264240, Note_on_c, 0, 78, 85
1, 264360, Note_on_c, 0, 78, 0
1, 264360, Note_on_c, 0, 62, 0
1, 264360, Note_on_c, 0, 74, 0
1, 264360, Note_on_c, 0, 90, 0
1, 264440, Tempo, 299252
1, 264480, Note_on_c, 0, 59, 68
1, 264480, Note_on_c, 0, 71, 76
1, 264480, Note_on_c, 0, 74, 81
1, 264480, Note_on_c, 0, 86, 90
1, 264600, Note_on_c, 0, 86, 0
1, 264600, Note_on_c, 0, 59, 0
1, 264600, Note_on_c, 0, 71, 0
1, 264600, Note_on_c, 0, 74, 0
1, 264720, Note_on_c, 0, 61, 80
1, 264720, Note_on_c, 0, 73, 80
1, 264720, Note_on_c, 0, 88, 95
1, 264720, Note_on_c, 0, 76, 85
1, 264760, Tempo, 300000
1, 264840, Note_on_c, 0, 76, 0
1, 264840, Note_on_c, 0, 61, 0
1, 264840, Note_on_c, 0, 73, 0
1, 264840, Note_on_c, 0, 88, 0
1, 264960, Note_on_c, 0, 58, 68
1, 264960, Note_on_c, 0, 70, 76
1, 264960, Note_on_c, 0, 73, 81
1, 264960, Note_on_c, 0, 85, 90
1, 265080, Tempo, 300752
1, 265080, Note_on_c, 0, 85, 0
1, 265080, Note_on_c, 0, 58, 0
1, 265080, Note_on_c, 0, 70, 0
1, 265080, Note_on_c, 0, 73, 0
1, 265200, Note_on_c, 0, 59, 71
1, 265200, Note_on_c, 0, 71, 79
1, 265200, Note_on_c, 0, 86, 94
1, 265200, Note_on_c, 0, 74, 84
1, 265320, Note_on_c, 0, 74, 0
1, 265320, Note_on_c, 0, 59, 0
1, 265320, Note_on_c, 0, 71, 0
1, 265320, Note_on_c, 0, 86, 0
1, 265400, Tempo, 301508
1, 265440, Note_on_c, 0, 54, 65
1, 265440, Note_on_c, 0, 66, 73
1, 265440, Note_on_c, 0, 70, 77
1, 265440, Note_on_c, 0, 82, 86
1, 265560, Note_on_c, 0, 82, 0
1, 265560, Note_on_c, 0, 54, 0
1, 265560, Note_on_c, 0, 66, 0
1, 265560, Note_on_c, 0, 70, 0
1, 265680, Note_on_c, 0, 71, 82
1, 265680, Note_on_c, 0, 83, 92
1, 265680, Note_on_c, 0, 67, 78
1, 265680, Note_on_c, 0, 55, 70
1, 265720, Tempo, 302267
1, 265800, Note_on_c, 0, 55, 0
1, 265800, Note_on_c, 0, 71, 0
1, 265800, Note_on_c, 0, 83, 0
1, 265800, Note_on_c, 0, 67, 0
1, 265920, Note_on_c, 0, 78, 85
1, 265920, Note_on_c, 0, 66, 76
1, 265920, Note_on_c, 0, 50, 64
1, 265920, Note_on_c, 0, 62, 72
1, 266040, Tempo, 303030
1, 266040, Note_on_c, 0, 62, 0
1, 266040, Note_on_c, 0, 78, 0
1, 266040, Note_on_c, 0, 66, 0
1, 266040, Note_on_c, 0, 50, 0
1, 266160, Note_on_c, 0, 67, 81
1, 266160, Note_on_c, 0, 79, 90
1, 266160, Note_on_c, 0, 52, 68
1, 266160, Note_on_c, 0, 64, 76
1, 266280, Note_on_c, 0, 64, 0
1, 266280, Note_on_c, 0, 67, 0
1, 266280, Note_on_c, 0, 79, 0
1, 266280, Note_on_c, 0, 52, 0
1, 266360, Tempo, 303797
1, 266400, Note_on_c, 0, 64, 75
1, 266400, Note_on_c, 0, 76, 84
1, 266400, Note_on_c, 0, 49, 63
1, 266400, Note_on_c, 0, 61, 71
1, 266520, Note_on_c, 0, 61, 0
1, 266520, Note_on_c, 0, 64, 0
1, 266520, Note_on_c, 0, 76, 0
1, 266520, Note_on_c, 0, 49, 0
1, 266640, Note_on_c, 0, 66, 81
1, 266640, Note_on_c, 0, 78, 91
1, 266640, Note_on_c, 0, 50, 69
1, 266640, Note_on_c, 0, 62, 77
1, 266760, Note_on_c, 0, 62, 0
1, 266760, Note_on_c, 0, 66, 0
1, 266760, Note_on_c, 0, 78, 0
1, 266760, Note_on_c, 0, 50, 0
1, 266880, Note_on_c, 0, 62, 74
1, 266880, Note_on_c, 0, 74, 83
1, 266880, Note_on_c, 0, 47, 63
1, 266880, Note_on_c, 0, 59, 70
1, 267000, Note_on_c, 0, 59, 0
1, 267000, Note_on_c, 0, 62, 0
1, 267000, Note_on_c, 0, 74, 0
1, 267000, Note_on_c, 0, 47, 0
1, 267120, Note_on_c, 0, 64, 81
1, 267120, Note_on_c, 0, 76, 90
1, 267120, Note_on_c, 0, 49, 68
1, 267120, Note_on_c, 0, 61, 76
1, 267240, Note_on_c, 0, 61, 0
1, 267240, Note_on_c, 0, 64, 0
1, 267240, Note_on_c, 0, 76, 0
1, 267240, Note_on_c, 0, 49, 0
1, 267360, Note_on_c, 0, 61, 73
1, 267360, Note_on_c, 0, 73, 82
1, 267360, Note_on_c, 0, 46, 62
1, 267360, Note_on_c, 0, 58, 69
1, 267480, Note_on_c, 0, 58, 0
1, 267480, Note_on_c, 0, 61, 0
1, 267480, Note_on_c, 0, 73, 0
1, 267480, Note_on_c, 0, 46, 0
1, 267600, Note_on_c, 0, 62, 81
1, 267600, Note_on_c, 0, 74, 90
1, 267600, Note_on_c, 0, 47, 68
1, 267600, Note_on_c, 0, 59, 68
1, 267720, Note_on_c, 0, 59, 0
1, 267720, Note_on_c, 0, 62, 0
1, 267720, Note_on_c, 0, 74, 0
1, 267720, Note_on_c, 0, 47, 0
1, 267840, Tempo, 304507
1, 267840, Note_on_c, 0, 58, 75
1, 267840, Note_on_c, 0, 70, 84
1, 267840, Note_on_c, 0, 42, 63
1, 267840, Note_on_c, 0, 54, 71
1, 267920, Tempo, 305312
1, 267960, Note_on_c, 0, 54, 0
1, 267960, Note_on_c, 0, 58, 0
1, 267960, Note_on_c, 0, 70, 0
1, 267960, Note_on_c, 0, 42, 0
1, 268000, Tempo, 306107
1, 268080, Tempo, 306905
1, 268080, Note_on_c, 0, 59, 81
1, 268080, Note_on_c, 0, 71, 91
1, 268080, Note_on_c, 0, 43, 69
1, 268080, Note_on_c, 0, 55, 77
1, 268160, Tempo, 307708
1, 268200, Note_on_c, 0, 55, 0
1, 268200, Note_on_c, 0, 59, 0
1, 268200, Note_on_c, 0, 71, 0
1, 268200, Note_on_c, 0, 43, 0
1, 268240, Tempo, 308515
1, 268320, Tempo, 325662
1, 268320, Note_on_c, 0, 54, 73
1, 268320, Note_on_c, 0, 66, 82
1, 268320, Note_on_c, 0, 38, 62
1, 268320, Note_on_c, 0, 50, 62
1, 268440, Note_on_c, 0, 50, 0
1, 268440, Note_on_c, 0, 54, 0
1, 268440, Note_on_c, 0, 66, 0
1, 268440, Note_on_c, 0, 38, 0
1, 268560, Tempo, 310978
1, 268560, Note_on_c, 0, 55, 80
1, 268560, Note_on_c, 0, 67, 89
1, 268560, Note_on_c, 0, 40, 67
1, 268560, Note_on_c, 0, 52, 75
1, 268634, Control_c, 0, 64, 127
1, 269040, Note_on_c, 0, 52, 0
1, 269040, Note_on_c, 0, 55, 0
1, 269040, Note_on_c, 0, 67, 0
1, 269040, Note_on_c, 0, 40, 0
1, 269040, Note_on_c, 0, 61, 72
1, 269040, Note_on_c, 0, 64, 72
1, 269040, Note_on_c, 0, 70, 80
1, 269040, Note_on_c, 0, 42, 61
1, 269040, Note_on_c, 0, 54, 68
1, 269054, Control_c, 0, 64, 0
1, 269131, Control_c, 0, 64, 127
1, 269280, Tempo, 318573
1, 269280, Note_on_c, 0, 54, 0
1, 269280, Note_on_c, 0, 70, 0
1, 269280, Note_on_c, 0, 61, 0
1, 269280, Note_on_c, 0, 64, 0
1, 269280, Note_on_c, 0, 42, 0
1, 269280, Note_on_c, 0, 62, 77
1, 269280, Note_on_c, 0, 66, 77
1, 269280, Note_on_c, 0, 71, 86
1, 269280, Control_c, 0, 64, 0
1, 269280, Note_on_c, 0, 47, 68
1, 269520, Tempo, 299835
1, 269520, Note_on_c, 0, 47, 0
1, 269520, Note_on_c, 0, 62, 0
1, 269520, Note_on_c, 0, 66, 0
1, 269520, Note_on_c, 0, 71, 0
1, 269520, Note_on_c, 0, 52, 58
1, 269640, Note_on_c, 0, 52, 0
1, 269760, Tempo, 308515
1, 269760, Note_on_c, 0, 54, 60
1, 269880, Note_on_c, 0, 54, 0
1, 270000, Tempo, 302160
1, 270000, Note_on_c, 0, 55, 66
1, 270063, Control_c, 0, 64, 127
1, 270240, Tempo, 302160
1, 270240, Note_on_c, 0, 61, 56
1, 270240, Note_on_c, 0, 73, 56
1, 270240, Note_on_c, 0, 74, 56
1, 270360, Note_on_c, 0, 74, 0
1, 270360, Note_on_c, 0, 73, 0
1, 270360, Note_on_c, 0, 61, 0
1, 270480, Note_on_c, 0, 62, 53
1, 270480, Note_on_c, 0, 73, 53
1, 270480, Note_on_c, 0, 74, 53
1, 270600, Note_on_c, 0, 74, 0
1, 270600, Note_on_c, 0, 73, 0
1, 270600, Note_on_c, 0, 62, 0
1, 270720, Tempo, 303721
1, 270720, Note_on_c, 0, 64, 52
1, 270720, Note_on_c, 0, 73, 52
1, 270720, Note_on_c, 0, 74, 52
1, 270724, Control_c, 0, 64, 0
1, 270840, Note_on_c, 0, 74, 0
1, 270840, Note_on_c, 0, 73, 0
1, 270840, Note_on_c, 0, 64, 0
1, 270960, Tempo, 302160
1, 270960, Note_on_c, 0, 55, 0
1, 270960, Note_on_c, 0, 45, 57
1, 271080, Note_on_c, 0, 45, 0
1, 271200, Note_on_c, 0, 43, 55
1, 271320, Note_on_c, 0, 43, 0
1, 271440, Note_on_c, 0, 42, 57
1, 271503, Control_c, 0, 64, 127
1, 271680, Tempo, 303721
1, 271680, Note_on_c, 0, 56, 53
1, 271680, Note_on_c, 0, 59, 53
1, 271680, Note_on_c, 0, 66, 53
1, 271800, Note_on_c, 0, 66, 0
1, 271800, Note_on_c, 0, 59, 0
1, 271800, Note_on_c, 0, 56, 0
1, 271920, Note_on_c, 0, 58, 52
1, 271920, Note_on_c, 0, 61, 52
1, 271920, Note_on_c, 0, 66, 52
1, 272040, Note_on_c, 0, 66, 0
1, 272040, Note_on_c, 0, 61, 0
1, 272040, Note_on_c, 0, 58, 0
1, 272160, Tempo, 304507
1, 272160, Note_on_c, 0, 42, 0
1, 272160, Note_on_c, 0, 66, 52
1, 272160, Note_on_c, 0, 59, 52
1, 272160, Note_on_c, 0, 62, 52
1, 272160, Note_on_c, 0, 47, 54
1, 272177, Control_c, 0, 64, 0
1, 272280, Note_on_c, 0, 62, 0
1, 272280, Note_on_c, 0, 66, 0
1, 272280, Note_on_c, 0, 59, 0
1, 272400, Tempo, 299835
1, 272400, Note_on_c, 0, 47, 0
1, 272400, Note_on_c, 0, 52, 57
1, 272520, Note_on_c, 0, 52, 0
1, 272640, Note_on_c, 0, 54, 60
1, 272760, Note_on_c, 0, 54, 0
1, 272880, Tempo, 303721
1, 272880, Note_on_c, 0, 55, 65
1, 272914, Control_c, 0, 64, 127
1, 273120, Tempo, 302160
1, 273120, Note_on_c, 0, 61, 54
1, 273120, Note_on_c, 0, 73, 54
1, 273120, Note_on_c, 0, 74, 54
1, 273240, Note_on_c, 0, 74, 0
1, 273240, Note_on_c, 0, 73, 0
1, 273240, Note_on_c, 0, 61, 0
1, 273360, Note_on_c, 0, 62, 55
1, 273360, Note_on_c, 0, 73, 55
1, 273360, Note_on_c, 0, 74, 55
1, 273480, Note_on_c, 0, 74, 0
1, 273480, Note_on_c, 0, 73, 0
1, 273480, Note_on_c, 0, 62, 0
1, 273600, Tempo, 305312
1, 273600, Note_on_c, 0, 64, 51
1, 273600, Note_on_c, 0, 73, 51
1, 273600, Note_on_c, 0, 74, 51
1, 273618, Control_c, 0, 64, 0
1, 273720, Note_on_c, 0, 74, 0
1, 273720, Note_on_c, 0, 73, 0
1, 273720, Note_on_c, 0, 64, 0
1, 273840, Tempo, 302160
1, 273840, Note_on_c, 0, 55, 0
1, 273840, Note_on_c, 0, 45, 61
1, 273960, Note_on_c, 0, 45, 0
1, 274080, Note_on_c, 0, 43, 57
1, 274200, Note_on_c, 0, 43, 0
1, 274320, Tempo, 306107
1, 274320, Note_on_c, 0, 42, 58
1, 274389, Control_c, 0, 64, 127
1, 274560, Tempo, 303721
1, 274560, Note_on_c, 0, 56, 55
1, 274560, Note_on_c, 0, 59, 55
1, 274560, Note_on_c, 0, 66, 55
1, 274680, Note_on_c, 0, 66, 0
1, 274680, Note_on_c, 0, 59, 0
1, 274680, Note_on_c, 0, 56, 0
1, 274800, Note_on_c, 0, 58, 55
1, 274800, Note_on_c, 0, 61, 55
1, 274800, Note_on_c, 0, 66, 55
1, 274920, Note_on_c, 0, 66, 0
1, 274920, Note_on_c, 0, 61, 0
1, 274920, Note_on_c, 0, 58, 0
1, 275040, Tempo, 306905
1, 275040, Note_on_c, 0, 42, 0
1, 275040, Note_on_c, 0, 59, 52
1, 275040, Note_on_c, 0, 62, 52
1, 275040, Note_on_c, 0, 66, 52
1, 275040, Control_c, 0, 64, 0
1, 275040, Note_on_c, 0, 47, 58
1, 275160, Note_on_c, 0, 47, 0
1, 275160, Note_on_c, 0, 59, 0
1, 275160, Note_on_c, 0, 62, 0
1, 275160, Note_on_c, 0, 66, 0
1, 275280, Tempo, 303721
1, 275280, Note_on_c, 0, 62, 60
1, 275280, Note_on_c, 0, 66, 60
1, 275280, Note_on_c, 0, 71, 66
1, 275280, Note_on_c, 0, 50, 49
1, 275280, Note_on_c, 0, 54, 49
1, 275280, Note_on_c, 0, 59, 55
1, 275349, Control_c, 0, 64, 127
1, 275400, Note_on_c, 0, 59, 0
1, 275400, Note_on_c, 0, 66, 0
1, 275400, Note_on_c, 0, 71, 0
1, 275400, Note_on_c, 0, 62, 0
1, 275400, Note_on_c, 0, 54, 0
1, 275400, Note_on_c, 0, 50, 0
1, 275520, Note_on_c, 0, 62, 57
1, 275520, Note_on_c, 0, 66, 57
1, 275520, Note_on_c, 0, 70, 62
1, 275520, Note_on_c, 0, 50, 45
1, 275520, Note_on_c, 0, 54, 45
1, 275520, Note_on_c, 0, 58, 50
1, 275640, Note_on_c, 0, 58, 0
1, 275640, Note_on_c, 0, 66, 0
1, 275640, Note_on_c, 0, 70, 0
1, 275640, Note_on_c, 0, 62, 0
1, 275640, Note_on_c, 0, 54, 0
1, 275640, Note_on_c, 0, 50, 0
1, 275760, Tempo, 306107
1, 275760, Note_on_c, 0, 62, 60
1, 275760, Note_on_c, 0, 66, 60
1, 275760, Note_on_c, 0, 71, 66
1, 275760, Note_on_c, 0, 50, 48
1, 275760, Note_on_c, 0, 54, 48
1, 275760, Note_on_c, 0, 59, 54
1, 275880, Note_on_c, 0, 59, 0
1, 275880, Note_on_c, 0, 66, 0
1, 275880, Note_on_c, 0, 71, 0
1, 275880, Note_on_c, 0, 62, 0
1, 275880, Note_on_c, 0, 54, 0
1, 275880, Note_on_c, 0, 50, 0
1, 276000, Tempo, 303721
1, 276000, Note_on_c, 0, 66, 61
1, 276000, Note_on_c, 0, 71, 61
1, 276000, Note_on_c, 0, 74, 67
1, 276000, Note_on_c, 0, 54, 50
1, 276000, Note_on_c, 0, 59, 50
1, 276000, Note_on_c, 0, 62, 56
1, 276012, Control_c, 0, 64, 0
1, 276097, Control_c, 0, 64, 127
1, 276120, Note_on_c, 0, 62, 0
1, 276120, Note_on_c, 0, 71, 0
1, 276120, Note_on_c, 0, 74, 0
1, 276120, Note_on_c, 0, 66, 0
1, 276120, Note_on_c, 0, 59, 0
1, 276120, Note_on_c, 0, 54, 0
1, 276240, Note_on_c, 0, 66, 58
1, 276240, Note_on_c, 0, 71, 58
1, 276240, Note_on_c, 0, 73, 63
1, 276240, Note_on_c, 0, 54, 48
1, 276240, Note_on_c, 0, 59, 48
1, 276240, Note_on_c, 0, 61, 54
1, 276360, Note_on_c, 0, 61, 0
1, 276360, Note_on_c, 0, 71, 0
1, 276360, Note_on_c, 0, 73, 0
1, 276360, Note_on_c, 0, 66, 0
1, 276360, Note_on_c, 0, 59, 0
1, 276360, Note_on_c, 0, 54, 0
1, 276480, Tempo, 306107
1, 276480, Note_on_c, 0, 66, 63
1, 276480, Note_on_c, 0, 71, 63
1, 276480, Note_on_c, 0, 74, 69
1, 276480, Note_on_c, 0, 54, 52
1, 276480, Note_on_c, 0, 59, 52
1, 276480, Note_on_c, 0, 62, 58
1, 276600, Note_on_c, 0, 62, 0
1, 276600, Note_on_c, 0, 71, 0
1, 276600, Note_on_c, 0, 74, 0
1, 276600, Note_on_c, 0, 66, 0
1, 276600, Note_on_c, 0, 59, 0
1, 276600, Note_on_c, 0, 54, 0
1, 276720, Tempo, 303721
1, 276720, Note_on_c, 0, 71, 63
1, 276720, Note_on_c, 0, 74, 63
1, 276720, Note_on_c, 0, 78, 69
1, 276720, Note_on_c, 0, 66, 54
1, 276720, Note_on_c, 0, 62, 48
1, 276720, Note_on_c, 0, 59, 48
1, 276731, Control_c, 0, 64, 0
1, 276778, Control_c, 0, 64, 127
1, 276840, Note_on_c, 0, 59, 0
1, 276840, Note_on_c, 0, 74, 0
1, 276840, Note_on_c, 0, 78, 0
1, 276840, Note_on_c, 0, 71, 0
1, 276840, Note_on_c, 0, 62, 0
1, 276840, Note_on_c, 0, 66, 0
1, 276960, Note_on_c, 0, 71, 61
1, 276960, Note_on_c, 0, 74, 61
1, 276960, Note_on_c, 0, 77, 67
1, 276960, Note_on_c, 0, 65, 59
1, 276960, Note_on_c, 0, 62, 53
1, 276960, Note_on_c, 0, 59, 53
1, 277080, Note_on_c, 0, 59, 0
1, 277080, Note_on_c, 0, 74, 0
1, 277080, Note_on_c, 0, 77, 0
1, 277080, Note_on_c, 0, 71, 0
1, 277080, Note_on_c, 0, 62, 0
1, 277080, Note_on_c, 0, 65, 0
1, 277200, Tempo, 305312
1, 277200, Note_on_c, 0, 71, 66
1, 277200, Note_on_c, 0, 74, 66
1, 277200, Note_on_c, 0, 78, 72
1, 277200, Note_on_c, 0, 66, 60
1, 277200, Note_on_c, 0, 62, 54
1, 277200, Note_on_c, 0, 59, 54
1, 277320, Note_on_c, 0, 59, 0
1, 277320, Note_on_c, 0, 74, 0
1, 277320, Note_on_c, 0, 78, 0
1, 277320, Note_on_c, 0, 71, 0
1, 277320, Note_on_c, 0, 62, 0
1, 277320, Note_on_c, 0, 66, 0
1, 277440, Tempo, 303721
1, 277440, Note_on_c, 0, 74, 67
1, 277440, Note_on_c, 0, 78, 67
1, 277440, Note_on_c, 0, 83, 73
1, 277440, Note_on_c, 0, 62, 51
1, 277440, Note_on_c, 0, 66, 51
1, 277440, Note_on_c, 0, 71, 57
1, 277451, Control_c, 0, 64, 0
1, 277506, Control_c, 0, 64, 127
1, 277560, Note_on_c, 0, 71, 0
1, 277560, Note_on_c, 0, 78, 0
1, 277560, Note_on_c, 0, 83, 0
1, 277560, Note_on_c, 0, 74, 0
1, 277560, Note_on_c, 0, 66, 0
1, 277560, Note_on_c, 0, 62, 0
1, 277680, Note_on_c, 0, 74, 63
1, 277680, Note_on_c, 0, 78, 63
1, 277680, Note_on_c, 0, 82, 69
1, 277680, Note_on_c, 0, 62, 55
1, 277680, Note_on_c, 0, 66, 55
1, 277680, Note_on_c, 0, 70, 62
1, 277800, Note_on_c, 0, 70, 0
1, 277800, Note_on_c, 0, 78, 0
1, 277800, Note_on_c, 0, 82, 0
1, 277800, Note_on_c, 0, 74, 0
1, 277800, Note_on_c, 0, 66, 0
1, 277800, Note_on_c, 0, 62, 0
1, 277920, Tempo, 306107
1, 277920, Note_on_c, 0, 74, 68
1, 277920, Note_on_c, 0, 78, 68
1, 277920, Note_on_c, 0, 83, 74
1, 277920, Note_on_c, 0, 62, 55
1, 277920, Note_on_c, 0, 66, 55
1, 277920, Note_on_c, 0, 71, 62
1, 278040, Note_on_c, 0, 71, 0
1, 278040, Note_on_c, 0, 78, 0
1, 278040, Note_on_c, 0, 83, 0
1, 278040, Note_on_c, 0, 74, 0
1, 278040, Note_on_c, 0, 66, 0
1, 278040, Note_on_c, 0, 62, 0
1, 278160, Tempo, 303721
1, 278160, Note_on_c, 0, 78, 69
1, 278160, Note_on_c, 0, 83, 69
1, 278160, Note_on_c, 0, 86, 75
1, 278160, Note_on_c, 0, 66, 55
1, 278160, Note_on_c, 0, 71, 55
1, 278160, Note_on_c, 0, 74, 62
1, 278169, Control_c, 0, 64, 0
1, 278222, Control_c, 0, 64, 127
1, 278280, Note_on_c, 0, 74, 0
1, 278280, Note_on_c, 0, 83, 0
1, 278280, Note_on_c, 0, 86, 0
1, 278280, Note_on_c, 0, 78, 0
1, 278280, Note_on_c, 0, 71, 0
1, 278280, Note_on_c, 0, 66, 0
1, 278400, Note_on_c, 0, 78, 63
1, 278400, Note_on_c, 0, 83, 63
1, 278400, Note_on_c, 0, 85, 69
1, 278400, Note_on_c, 0, 66, 52
1, 278400, Note_on_c, 0, 71, 52
1, 278400, Note_on_c, 0, 73, 58
1, 278520, Note_on_c, 0, 73, 0
1, 278520, Note_on_c, 0, 83, 0
1, 278520, Note_on_c, 0, 85, 0
1, 278520, Note_on_c, 0, 78, 0
1, 278520, Note_on_c, 0, 71, 0
1, 278520, Note_on_c, 0, 66, 0
1, 278640, Tempo, 306107
1, 278640, Note_on_c, 0, 78, 70
1, 278640, Note_on_c, 0, 83, 70
1, 278640, Note_on_c, 0, 86, 77
1, 278640, Note_on_c, 0, 66, 57
1, 278640, Note_on_c, 0, 71, 57
1, 278640, Note_on_c, 0, 74, 64
1, 278760, Note_on_c, 0, 74, 0
1, 278760, Note_on_c, 0, 83, 0
1, 278760, Note_on_c, 0, 86, 0
1, 278760, Note_on_c, 0, 78, 0
1, 278760, Note_on_c, 0, 71, 0
1, 278760, Note_on_c, 0, 66, 0
1, 278880, Tempo, 303721
1, 278880, Note_on_c, 0, 83, 71
1, 278880, Note_on_c, 0, 86, 71
1, 278880, Note_on_c, 0, 90, 78
1, 278880, Note_on_c, 0, 71, 58
1, 278880, Note_on_c, 0, 74, 58
1, 278880, Note_on_c, 0, 78, 65
1, 278892, Control_c, 0, 64, 0
1, 278950, Control_c, 0, 64, 127
1, 279000, Note_on_c, 0, 78, 0
1, 279000, Note_on_c, 0, 86, 0
1, 279000, Note_on_c, 0, 90, 0
1, 279000, Note_on_c, 0, 83, 0
1, 279000, Note_on_c, 0, 74, 0
1, 279000, Note_on_c, 0, 71, 0
1, 279120, Note_on_c, 0, 83, 66
1, 279120, Note_on_c, 0, 86, 66
1, 279120, Note_on_c, 0, 89, 72
1, 279120, Note_on_c, 0, 71, 56
1, 279120, Note_on_c, 0, 74, 56
1, 279120, Note_on_c, 0, 77, 63
1, 279240, Note_on_c, 0, 77, 0
1, 279240, Note_on_c, 0, 86, 0
1, 279240, Note_on_c, 0, 89, 0
1, 279240, Note_on_c, 0, 83, 0
1, 279240, Note_on_c, 0, 74, 0
1, 279240, Note_on_c, 0, 71, 0
1, 279360, Note_on_c, 0, 83, 73
1, 279360, Note_on_c, 0, 86, 73
1, 279360, Note_on_c, 0, 90, 80
1, 279360, Note_on_c, 0, 71, 60
1, 279360, Note_on_c, 0, 74, 60
1, 279360, Note_on_c, 0, 78, 67
1, 279480, Note_on_c, 0, 78, 0
1, 279480, Note_on_c, 0, 86, 0
1, 279480, Note_on_c, 0, 90, 0
1, 279480, Note_on_c, 0, 83, 0
1, 279480, Note_on_c, 0, 74, 0
1, 279480, Note_on_c, 0, 71, 0
1, 279560, Tempo, 303721
1, 279600, Note_on_c, 0, 86, 73
1, 279600, Note_on_c, 0, 90, 73
1, 279600, Note_on_c, 0, 95, 80
1, 279600, Note_on_c, 0, 71, 60
1, 279600, Note_on_c, 0, 74, 60
1, 279600, Note_on_c, 0, 78, 67
1, 279600, Note_on_c, 0, 83, 67
1, 279611, Control_c, 0, 64, 0
1, 279691, Control_c, 0, 64, 127
1, 279720, Note_on_c, 0, 83, 0
1, 279720, Note_on_c, 0, 74, 0
1, 279720, Note_on_c, 0, 90, 0
1, 279720, Note_on_c, 0, 95, 0
1, 279720, Note_on_c, 0, 86, 0
1, 279720, Note_on_c, 0, 78, 0
1, 279720, Note_on_c, 0, 71, 0
1, 279760, Tempo, 302939
1, 279840, Note_on_c, 0, 86, 70
1, 279840, Note_on_c, 0, 90, 70
1, 279840, Note_on_c, 0, 94, 76
1, 279840, Note_on_c, 0, 71, 57
1, 279840, Note_on_c, 0, 74, 57
1, 279840, Note_on_c, 0, 78, 64
1, 279840, Note_on_c, 0, 82, 64
1, 279960, Tempo, 302160
1, 279960, Note_on_c, 0, 82, 0
1, 279960, Note_on_c, 0, 74, 0
1, 279960, Note_on_c, 0, 90, 0
1, 279960, Note_on_c, 0, 94, 0
1, 279960, Note_on_c, 0, 86, 0
1, 279960, Note_on_c, 0, 78, 0
1, 279960, Note_on_c, 0, 71, 0
1, 280080, Note_on_c, 0, 86, 78
1, 280080, Note_on_c, 0, 90, 78
1, 280080, Note_on_c, 0, 95, 86
1, 280080, Note_on_c, 0, 71, 65
1, 280080, Note_on_c, 0, 74, 65
1, 280080, Note_on_c, 0, 78, 72
1, 280080, Note_on_c, 0, 83, 72
1, 280160, Tempo, 301386
1, 280200, Note_on_c, 0, 83, 0
1, 280200, Note_on_c, 0, 74, 0
1, 280200, Note_on_c, 0, 90, 0
1, 280200, Note_on_c, 0, 95, 0
1, 280200, Note_on_c, 0, 86, 0
1, 280200, Note_on_c, 0, 78, 0
1, 280200, Note_on_c, 0, 71, 0
1, 280320, Tempo, 300601
1, 280320, Note_on_c, 0, 86, 82
1, 280320, Note_on_c, 0, 90, 82
1, 280320, Note_on_c, 0, 95, 90
1, 280320, Note_on_c, 0, 71, 65
1, 280320, Note_on_c, 0, 74, 65
1, 280320, Note_on_c, 0, 78, 73
1, 280320, Note_on_c, 0, 83, 73
1, 280331, Control_c, 0, 64, 0
1, 280411, Control_c, 0, 64, 127
1, 280440, Note_on_c, 0, 83, 0
1, 280440, Note_on_c, 0, 74, 0
1, 280440, Note_on_c, 0, 90, 0
1, 280440, Note_on_c, 0, 95, 0
1, 280440, Note_on_c, 0, 86, 0
1, 280440, Note_on_c, 0, 78, 0
1, 280440, Note_on_c, 0, 71, 0
1, 280560, Tempo, 308515
1, 280560, Note_on_c, 0, 86, 77
1, 280560, Note_on_c, 0, 90, 77
1, 280560, Note_on_c, 0, 94, 85
1, 280560, Note_on_c, 0, 71, 63
1, 280560, Note_on_c, 0, 74, 63
1, 280560, Note_on_c, 0, 78, 71
1, 280560, Note_on_c, 0, 82, 71
1, 280680, Note_on_c, 0, 82, 0
1, 280680, Note_on_c, 0, 74, 0
1, 280680, Note_on_c, 0, 90, 0
1, 280680, Note_on_c, 0, 94, 0
1, 280680, Note_on_c, 0, 86, 0
1, 280680, Note_on_c, 0, 78, 0
1, 280680, Note_on_c, 0, 71, 0
1, 280800, Tempo, 303721
1, 280800, Note_on_c, 0, 86, 85
1, 280800, Note_on_c, 0, 90, 85
1, 280800, Note_on_c, 0, 95, 93
1, 280800, Note_on_c, 0, 71, 69
1, 280800, Note_on_c, 0, 74, 69
1, 280800, Note_on_c, 0, 78, 78
1, 280800, Note_on_c, 0, 83, 78
1, 280920, Note_on_c, 0, 83, 0
1, 280920, Note_on_c, 0, 74, 0
1, 280920, Note_on_c, 0, 90, 0
1, 280920, Note_on_c, 0, 95, 0
1, 280920, Note_on_c, 0, 86, 0
1, 280920, Note_on_c, 0, 78, 0
1, 280920, Note_on_c, 0, 71, 0
1, 281520, Note_on_c, 0, 74, 81
1, 281520, Note_on_c, 0, 78, 81
1, 281520, Note_on_c, 0, 83, 89
1, 281520, Note_on_c, 0, 59, 66
1, 281520, Note_on_c, 0, 66, 66
1, 281520, Note_on_c, 0, 71, 74
1, 281534, Control_c, 0, 64, 0
1, 281633, Control_c, 0, 64, 127
1, 281640, Note_on_c, 0, 71, 0
1, 281640, Note_on_c, 0, 78, 0
1, 281640, Note_on_c, 0, 83, 0
1, 281640, Note_on_c, 0, 74, 0
1, 281640, Note_on_c, 0, 66, 0
1, 281640, Note_on_c, 0, 59, 0
1, 282240, Note_on_c, 0, 62, 81
1, 282240, Note_on_c, 0, 66, 81
1, 282240, Note_on_c, 0, 71, 89
1, 282240, Note_on_c, 0, 47, 66
1, 282240, Note_on_c, 0, 54, 66
1, 282240, Note_on_c, 0, 59, 74
1, 282360, Note_on_c, 0, 59, 0
1, 282360, Note_on_c, 0, 66, 0
1, 282360, Note_on_c, 0, 71, 0
1, 282360, Note_on_c, 0, 62, 0
1, 282360, Note_on_c, 0, 54, 0
1, 282360, Note_on_c, 0, 47, 0
1, 282960, Tempo, 308483
1, 282960, Note_on_c, 0, 35, 66
1, 282960, Note_on_c, 0, 42, 66
1, 282960, Note_on_c, 0, 47, 74
1, 282960, Note_on_c, 0, 50, 74
1, 282960, Note_on_c, 0, 54, 74
1, 282960, Note_on_c, 0, 59, 81
1, 283080, Note_on_c, 0, 59, 0
1, 283080, Note_on_c, 0, 42, 0
1, 283080, Note_on_c, 0, 47, 0
1, 283080, Note_on_c, 0, 35, 0
1, 283080, Note_on_c, 0, 54, 0
1, 283080, Note_on_c, 0, 50, 0
1, 283680, Tempo, 310881
1, 283680, Note_on_c, 0, 62, 81
1, 283680, Note_on_c, 0, 66, 81
1, 283680, Note_on_c, 0, 71, 89
1, 283680, Note_on_c, 0, 47, 66
1, 283680, Note_on_c, 0, 54, 66
1, 283680, Note_on_c, 0, 59, 74
1, 283800, Note_on_c, 0, 59, 0
1, 283800, Note_on_c, 0, 66, 0
1, 283800, Note_on_c, 0, 71, 0
1, 283800, Note_on_c, 0, 62, 0
1, 283800, Note_on_c, 0, 54, 0
1, 283800, Note_on_c, 0, 47, 0
1, 284160, Tempo, 322581
1, 284220, Note_on_c, 0, 47, 63
1, 284280, Note_on_c, 0, 54, 63
1, 284340, Note_on_c, 0, 59, 70
1, 284400, Tempo, 320856
1, 284400, Note_on_c, 0, 71, 80
1, 284400, Note_on_c, 0, 74, 80
1, 284400, Note_on_c, 0, 78, 89
1, 284400, Note_on_c, 0, 83, 89
1, 284400, Note_on_c, 0, 62, 70
1, 284520, Note_on_c, 0, 62, 0
1, 284520, Note_on_c, 0, 47, 0
1, 284520, Note_on_c, 0, 74, 0
1, 284520, Note_on_c, 0, 54, 0
1, 284520, Note_on_c, 0, 59, 0
1, 284520, Note_on_c, 0, 71, 0
1, 284520, Note_on_c, 0, 78, 0
1, 284520, Note_on_c, 0, 83, 0
1, 284880, Tempo, 430108
1, 285120, Note_on_c, 0, 59, 94
1, 285120, Note_on_c, 0, 35, 75
1, 285120, Note_on_c, 0, 47, 75
1, 286560, Tempo, 333333
1, 286560, Note_on_c, 0, 47, 0
1, 286560, Note_on_c, 0, 35, 0
1, 286560, Note_on_c, 0, 59, 0
1, 287280, Control_c, 0, 64, 0
1, 287280, End_track
0, 0, End_of_file
