0, 0, Header, 1, 5, 384
1, 0, Start_track
1, 0, Title_t, "untitled"
1, 0, Copyright_t, "Adaptation for Disklavier pianos, by: Robert C. Kuhmann (c) 2012."
1, 0, Sequencer_specific, 3, 0, 0, 65
1, 0, Time_signature, 2, 2, 24, 8
1, 0, Key_signature, 0, "major"
1, 0, Tempo, 500000
1, 0, End_track
2, 0, Start_track
2, 0, Title_t, "Allegro moderato"
2, 0, Control_c, 0, 0, 0
2, 0, Control_c, 0, 7, 115
2, 0, Control_c, 0, 10, 79
2, 0, Control_c, 0, 32, 0
2, 1, Program_c, 0, 0
2, 768, Note_on_c, 0, 76, 85
2, 1152, Note_on_c, 0, 75, 85
2, 1408, Note_on_c, 0, 75, 0
2, 1792, Note_on_c, 0, 76, 0
2, 1920, Note_on_c, 0, 74, 85
2, 2048, Note_on_c, 0, 74, 0
2, 2112, Note_on_c, 0, 72, 85
2, 2240, Note_on_c, 0, 72, 0
2, 2304, Note_on_c, 0, 71, 85
2, 2560, Note_on_c, 0, 71, 0
2, 2688, Note_on_c, 0, 69, 85
2, 2816, Note_on_c, 0, 69, 0
2, 2880, Note_on_c, 0, 71, 85
2, 3008, Note_on_c, 0, 71, 0
2, 3072, Note_on_c, 0, 72, 85
2, 3328, Note_on_c, 0, 72, 0
2, 3456, Note_on_c, 0, 71, 85
2, 3584, Note_on_c, 0, 71, 0
2, 3648, Note_on_c, 0, 69, 85
2, 3776, Note_on_c, 0, 69, 0
2, 3840, Note_on_c, 0, 71, 85
2, 4096, Note_on_c, 0, 71, 0
2, 4224, Note_on_c, 0, 69, 85
2, 4352, Note_on_c, 0, 69, 0
2, 4416, Note_on_c, 0, 71, 85
2, 4544, Note_on_c, 0, 71, 0
2, 4608, Note_on_c, 0, 72, 85
2, 4864, Note_on_c, 0, 72, 0
2, 4992, Note_on_c, 0, 71, 85
2, 5120, Note_on_c, 0, 71, 0
2, 5184, Note_on_c, 0, 69, 85
2, 5312, Note_on_c, 0, 69, 0
2, 5376, Note_on_c, 0, 76, 85
2, 5504, Note_on_c, 0, 76, 0
2, 5568, Note_on_c, 0, 69, 85
2, 5696, Note_on_c, 0, 69, 0
2, 5760, Note_on_c, 0, 69, 85
2, 5888, Note_on_c, 0, 69, 0
2, 5952, Note_on_c, 0, 71, 85
2, 6080, Note_on_c, 0, 71, 0
2, 6144, Note_on_c, 0, 69, 85
2, 6400, Note_on_c, 0, 69, 0
2, 6528, Note_on_c, 0, 68, 85
2, 6784, Note_on_c, 0, 68, 0
2, 6912, Note_on_c, 0, 76, 85
2, 7296, Note_on_c, 0, 75, 85
2, 7552, Note_on_c, 0, 75, 0
2, 7936, Note_on_c, 0, 76, 0
2, 8064, Note_on_c, 0, 74, 85
2, 8192, Note_on_c, 0, 74, 0
2, 8256, Note_on_c, 0, 72, 85
2, 8384, Note_on_c, 0, 72, 0
2, 8448, Note_on_c, 0, 71, 85
2, 8704, Note_on_c, 0, 71, 0
2, 8832, Note_on_c, 0, 69, 85
2, 8960, Note_on_c, 0, 69, 0
2, 9024, Note_on_c, 0, 71, 85
2, 9152, Note_on_c, 0, 71, 0
2, 9216, Note_on_c, 0, 72, 85
2, 9472, Note_on_c, 0, 72, 0
2, 9600, Note_on_c, 0, 71, 85
2, 9728, Note_on_c, 0, 71, 0
2, 9792, Note_on_c, 0, 69, 85
2, 9920, Note_on_c, 0, 69, 0
2, 9984, Note_on_c, 0, 71, 85
2, 10240, Note_on_c, 0, 71, 0
2, 10368, Note_on_c, 0, 69, 85
2, 10496, Note_on_c, 0, 69, 0
2, 10560, Note_on_c, 0, 71, 85
2, 10688, Note_on_c, 0, 71, 0
2, 10752, Note_on_c, 0, 72, 85
2, 11008, Note_on_c, 0, 72, 0
2, 11136, Note_on_c, 0, 71, 85
2, 11264, Note_on_c, 0, 71, 0
2, 11328, Note_on_c, 0, 69, 85
2, 11456, Note_on_c, 0, 69, 0
2, 11520, Note_on_c, 0, 67, 85
2, 11648, Note_on_c, 0, 67, 0
2, 11712, Note_on_c, 0, 69, 85
2, 11840, Note_on_c, 0, 69, 0
2, 11904, Note_on_c, 0, 67, 85
2, 12096, Note_on_c, 0, 67, 0
2, 12192, Note_on_c, 0, 65, 85
2, 12256, Note_on_c, 0, 65, 0
2, 12288, Note_on_c, 0, 65, 85
2, 12544, Note_on_c, 0, 65, 0
2, 12672, Note_on_c, 0, 64, 85
2, 12800, Note_on_c, 0, 64, 0
2, 13056, Note_on_c, 0, 79, 85
2, 13312, Note_on_c, 0, 79, 0
2, 13440, Note_on_c, 0, 72, 85
2, 13696, Note_on_c, 0, 72, 0
2, 13824, Note_on_c, 0, 74, 85
2, 14080, Note_on_c, 0, 74, 0
2, 14208, Note_on_c, 0, 73, 85
2, 14336, Note_on_c, 0, 73, 0
2, 14400, Note_on_c, 0, 74, 85
2, 14528, Note_on_c, 0, 74, 0
2, 14592, Note_on_c, 0, 79, 85
2, 14848, Note_on_c, 0, 79, 0
2, 14976, Note_on_c, 0, 72, 85
2, 15232, Note_on_c, 0, 72, 0
2, 15360, Note_on_c, 0, 74, 85
2, 15616, Note_on_c, 0, 74, 0
2, 15744, Note_on_c, 0, 73, 85
2, 15872, Note_on_c, 0, 73, 0
2, 15936, Note_on_c, 0, 74, 85
2, 16064, Note_on_c, 0, 74, 0
2, 16128, Note_on_c, 0, 79, 85
2, 16384, Note_on_c, 0, 79, 0
2, 16512, Note_on_c, 0, 79, 85
2, 16640, Note_on_c, 0, 79, 0
2, 16704, Note_on_c, 0, 81, 85
2, 16832, Note_on_c, 0, 81, 0
2, 16896, Note_on_c, 0, 79, 85
2, 17024, Note_on_c, 0, 79, 0
2, 17088, Note_on_c, 0, 77, 85
2, 17216, Note_on_c, 0, 77, 0
2, 17280, Note_on_c, 0, 76, 85
2, 17408, Note_on_c, 0, 76, 0
2, 17472, Note_on_c, 0, 74, 85
2, 17600, Note_on_c, 0, 74, 0
2, 17664, Note_on_c, 0, 72, 85
2, 17920, Note_on_c, 0, 72, 0
2, 18048, Note_on_c, 0, 76, 85
2, 18176, Note_on_c, 0, 76, 0
2, 18240, Note_on_c, 0, 74, 85
2, 18368, Note_on_c, 0, 74, 0
2, 18432, Note_on_c, 0, 72, 85
2, 18560, Note_on_c, 0, 72, 0
2, 18624, Note_on_c, 0, 71, 85
2, 18752, Note_on_c, 0, 71, 0
2, 18816, Note_on_c, 0, 69, 85
2, 18944, Note_on_c, 0, 69, 0
2, 19008, Note_on_c, 0, 67, 85
2, 19136, Note_on_c, 0, 67, 0
2, 19200, Note_on_c, 0, 79, 85
2, 19456, Note_on_c, 0, 79, 0
2, 19584, Note_on_c, 0, 72, 85
2, 19840, Note_on_c, 0, 72, 0
2, 19968, Note_on_c, 0, 74, 85
2, 20224, Note_on_c, 0, 74, 0
2, 20352, Note_on_c, 0, 73, 85
2, 20480, Note_on_c, 0, 73, 0
2, 20544, Note_on_c, 0, 74, 85
2, 20672, Note_on_c, 0, 74, 0
2, 20736, Note_on_c, 0, 79, 85
2, 20992, Note_on_c, 0, 79, 0
2, 21120, Note_on_c, 0, 72, 85
2, 21376, Note_on_c, 0, 72, 0
2, 21504, Note_on_c, 0, 74, 85
2, 21760, Note_on_c, 0, 74, 0
2, 21888, Note_on_c, 0, 73, 85
2, 22016, Note_on_c, 0, 73, 0
2, 22080, Note_on_c, 0, 74, 85
2, 22208, Note_on_c, 0, 74, 0
2, 22272, Note_on_c, 0, 79, 85
2, 22528, Note_on_c, 0, 79, 0
2, 22656, Note_on_c, 0, 79, 85
2, 22784, Note_on_c, 0, 79, 0
2, 22848, Note_on_c, 0, 81, 85
2, 22976, Note_on_c, 0, 81, 0
2, 23040, Note_on_c, 0, 79, 85
2, 23168, Note_on_c, 0, 79, 0
2, 23232, Note_on_c, 0, 77, 85
2, 23360, Note_on_c, 0, 77, 0
2, 23424, Note_on_c, 0, 76, 85
2, 23552, Note_on_c, 0, 76, 0
2, 23616, Note_on_c, 0, 74, 85
2, 23744, Note_on_c, 0, 74, 0
2, 23808, Note_on_c, 0, 81, 85
2, 24064, Note_on_c, 0, 81, 0
2, 24192, Note_on_c, 0, 81, 85
2, 24320, Note_on_c, 0, 81, 0
2, 24384, Note_on_c, 0, 83, 85
2, 24512, Note_on_c, 0, 83, 0
2, 24576, Note_on_c, 0, 81, 85
2, 24704, Note_on_c, 0, 81, 0
2, 24768, Note_on_c, 0, 80, 85
2, 24896, Note_on_c, 0, 80, 0
2, 24960, Note_on_c, 0, 77, 85
2, 25088, Note_on_c, 0, 77, 0
2, 25152, Note_on_c, 0, 76, 85
2, 25280, Note_on_c, 0, 76, 0
2, 25344, Note_on_c, 0, 69, 85
2, 25344, Note_on_c, 0, 76, 85
2, 25344, Note_on_c, 0, 81, 85
2, 25600, Note_on_c, 0, 81, 0
2, 25600, Note_on_c, 0, 76, 0
2, 25600, Note_on_c, 0, 69, 0
2, 25728, Note_on_c, 0, 81, 85
2, 25856, Note_on_c, 0, 81, 0
2, 25920, Note_on_c, 0, 83, 85
2, 26048, Note_on_c, 0, 83, 0
2, 26112, Note_on_c, 0, 81, 85
2, 26112, Note_on_c, 0, 76, 85
2, 26112, Note_on_c, 0, 71, 85
2, 26240, Note_on_c, 0, 81, 0
2, 26304, Note_on_c, 0, 80, 85
2, 26368, Note_on_c, 0, 71, 0
2, 26368, Note_on_c, 0, 76, 0
2, 26432, Note_on_c, 0, 80, 0
2, 26496, Note_on_c, 0, 77, 85
2, 26496, Note_on_c, 0, 71, 85
2, 26496, Note_on_c, 0, 68, 85
2, 26624, Note_on_c, 0, 77, 0
2, 26688, Note_on_c, 0, 76, 85
2, 26752, Note_on_c, 0, 68, 0
2, 26752, Note_on_c, 0, 71, 0
2, 26816, Note_on_c, 0, 76, 0
2, 26880, Note_on_c, 0, 81, 85
2, 26880, Note_on_c, 0, 76, 85
2, 26880, Note_on_c, 0, 69, 85
2, 27136, Note_on_c, 0, 69, 0
2, 27136, Note_on_c, 0, 76, 0
2, 27136, Note_on_c, 0, 81, 0
2, 27264, Note_on_c, 0, 76, 85
2, 27264, Note_on_c, 0, 81, 85
2, 27456, Note_on_c, 0, 83, 85
2, 27520, Note_on_c, 0, 81, 0
2, 27520, Note_on_c, 0, 76, 0
2, 27584, Note_on_c, 0, 83, 0
2, 27648, Note_on_c, 0, 81, 85
2, 27648, Note_on_c, 0, 76, 85
2, 27648, Note_on_c, 0, 71, 85
2, 27776, Note_on_c, 0, 71, 0
2, 27776, Note_on_c, 0, 76, 0
2, 27776, Note_on_c, 0, 81, 0
2, 27840, Note_on_c, 0, 80, 85
2, 27968, Note_on_c, 0, 80, 0
2, 28032, Note_on_c, 0, 77, 85
2, 28032, Note_on_c, 0, 71, 85
2, 28032, Note_on_c, 0, 68, 85
2, 28160, Note_on_c, 0, 68, 0
2, 28160, Note_on_c, 0, 71, 0
2, 28160, Note_on_c, 0, 77, 0
2, 28224, Note_on_c, 0, 76, 85
2, 28352, Note_on_c, 0, 76, 0
2, 28416, Note_on_c, 0, 79, 85
2, 28416, Note_on_c, 0, 76, 85
2, 28416, Note_on_c, 0, 70, 85
2, 28672, Note_on_c, 0, 70, 0
2, 28672, Note_on_c, 0, 76, 0
2, 28672, Note_on_c, 0, 79, 0
2, 28800, Note_on_c, 0, 79, 85
2, 28800, Note_on_c, 0, 74, 85
2, 28928, Note_on_c, 0, 74, 0
2, 28928, Note_on_c, 0, 79, 0
2, 28992, Note_on_c, 0, 81, 85
2, 28992, Note_on_c, 0, 73, 85
2, 29120, Note_on_c, 0, 73, 0
2, 29120, Note_on_c, 0, 81, 0
2, 29184, Note_on_c, 0, 79, 85
2, 29184, Note_on_c, 0, 74, 85
2, 29184, Note_on_c, 0, 69, 85
2, 29312, Note_on_c, 0, 69, 0
2, 29312, Note_on_c, 0, 74, 0
2, 29312, Note_on_c, 0, 79, 0
2, 29376, Note_on_c, 0, 77, 85
2, 29504, Note_on_c, 0, 77, 0
2, 29568, Note_on_c, 0, 77, 85
2, 29568, Note_on_c, 0, 74, 85
2, 29568, Note_on_c, 0, 68, 85
2, 29696, Note_on_c, 0, 68, 0
2, 29696, Note_on_c, 0, 74, 0
2, 29696, Note_on_c, 0, 77, 0
2, 29760, Note_on_c, 0, 79, 85
2, 29888, Note_on_c, 0, 79, 0
2, 29952, Note_on_c, 0, 77, 85
2, 29952, Note_on_c, 0, 72, 85
2, 29952, Note_on_c, 0, 69, 85
2, 30080, Note_on_c, 0, 69, 0
2, 30080, Note_on_c, 0, 72, 0
2, 30080, Note_on_c, 0, 77, 0
2, 30144, Note_on_c, 0, 76, 85
2, 30272, Note_on_c, 0, 76, 0
2, 30336, Note_on_c, 0, 66, 85
2, 30336, Note_on_c, 0, 72, 85
2, 30336, Note_on_c, 0, 76, 85
2, 30464, Note_on_c, 0, 76, 0
2, 30464, Note_on_c, 0, 72, 0
2, 30464, Note_on_c, 0, 66, 0
2, 30528, Note_on_c, 0, 78, 85
2, 30656, Note_on_c, 0, 78, 0
2, 30720, Note_on_c, 0, 66, 85
2, 30720, Note_on_c, 0, 71, 85
2, 30720, Note_on_c, 0, 76, 85
2, 30848, Note_on_c, 0, 76, 0
2, 30848, Note_on_c, 0, 71, 0
2, 30848, Note_on_c, 0, 66, 0
2, 30912, Note_on_c, 0, 75, 85
2, 31040, Note_on_c, 0, 75, 0
2, 31104, Note_on_c, 0, 74, 85
2, 31104, Note_on_c, 0, 71, 85
2, 31104, Note_on_c, 0, 64, 85
2, 31232, Note_on_c, 0, 64, 0
2, 31232, Note_on_c, 0, 71, 0
2, 31232, Note_on_c, 0, 74, 0
2, 31296, Note_on_c, 0, 76, 85
2, 31424, Note_on_c, 0, 76, 0
2, 31488, Note_on_c, 0, 74, 85
2, 31488, Note_on_c, 0, 69, 85
2, 31488, Note_on_c, 0, 63, 85
2, 31616, Note_on_c, 0, 63, 0
2, 31616, Note_on_c, 0, 69, 0
2, 31616, Note_on_c, 0, 74, 0
2, 31680, Note_on_c, 0, 72, 85
2, 31808, Note_on_c, 0, 72, 0
2, 31872, Note_on_c, 0, 71, 85
2, 32000, Note_on_c, 0, 71, 0
2, 32064, Note_on_c, 0, 69, 85
2, 32192, Note_on_c, 0, 69, 0
2, 32256, Note_on_c, 0, 68, 85
2, 32384, Note_on_c, 0, 68, 0
2, 32448, Note_on_c, 0, 69, 85
2, 32576, Note_on_c, 0, 69, 0
2, 32640, Note_on_c, 0, 71, 85
2, 32640, Note_on_c, 0, 63, 85
2, 32768, Note_on_c, 0, 63, 0
2, 32768, Note_on_c, 0, 71, 0
2, 32832, Note_on_c, 0, 72, 85
2, 32960, Note_on_c, 0, 72, 0
2, 33024, Note_on_c, 0, 71, 85
2, 33024, Note_on_c, 0, 63, 85
2, 33152, Note_on_c, 0, 63, 0
2, 33152, Note_on_c, 0, 71, 0
2, 33216, Note_on_c, 0, 69, 85
2, 33344, Note_on_c, 0, 69, 0
2, 33408, Note_on_c, 0, 68, 85
2, 33536, Note_on_c, 0, 68, 0
2, 33600, Note_on_c, 0, 66, 85
2, 33728, Note_on_c, 0, 66, 0
2, 33792, Note_on_c, 0, 65, 85
2, 33920, Note_on_c, 0, 65, 0
2, 33984, Note_on_c, 0, 66, 85
2, 34112, Note_on_c, 0, 66, 0
2, 34176, Note_on_c, 0, 68, 85
2, 34176, Note_on_c, 0, 63, 85
2, 34304, Note_on_c, 0, 63, 0
2, 34304, Note_on_c, 0, 68, 0
2, 34368, Note_on_c, 0, 69, 85
2, 34496, Note_on_c, 0, 69, 0
2, 34560, Note_on_c, 0, 71, 85
2, 34816, Note_on_c, 0, 71, 0
2, 34944, Note_on_c, 0, 64, 85
2, 34944, Note_on_c, 0, 59, 85
2, 35200, Note_on_c, 0, 59, 0
2, 35200, Note_on_c, 0, 64, 0
2, 35328, Note_on_c, 0, 76, 85
2, 35584, Note_on_c, 0, 76, 0
2, 35712, Note_on_c, 0, 75, 85
2, 35712, Note_on_c, 0, 72, 85
2, 35712, Note_on_c, 0, 55, 85
2, 35968, Note_on_c, 0, 55, 0
2, 35968, Note_on_c, 0, 72, 0
2, 35968, Note_on_c, 0, 75, 0
2, 36096, Note_on_c, 0, 71, 85
2, 36352, Note_on_c, 0, 71, 0
2, 36480, Note_on_c, 0, 64, 85
2, 36480, Note_on_c, 0, 59, 85
2, 36736, Note_on_c, 0, 59, 0
2, 36736, Note_on_c, 0, 64, 0
2, 36864, Note_on_c, 0, 76, 85
2, 37120, Note_on_c, 0, 76, 0
2, 37248, Note_on_c, 0, 75, 85
2, 37248, Note_on_c, 0, 72, 85
2, 37248, Note_on_c, 0, 55, 85
2, 37504, Note_on_c, 0, 55, 0
2, 37504, Note_on_c, 0, 72, 0
2, 37504, Note_on_c, 0, 75, 0
2, 37632, Note_on_c, 0, 76, 85
2, 37888, Note_on_c, 0, 76, 0
2, 38016, Note_on_c, 0, 75, 85
2, 38016, Note_on_c, 0, 72, 85
2, 38016, Note_on_c, 0, 55, 85
2, 38272, Note_on_c, 0, 55, 0
2, 38272, Note_on_c, 0, 72, 0
2, 38272, Note_on_c, 0, 75, 0
2, 38400, Note_on_c, 0, 76, 85
2, 38656, Note_on_c, 0, 76, 0
2, 38784, Note_on_c, 0, 75, 85
2, 38784, Note_on_c, 0, 71, 85
2, 38784, Note_on_c, 0, 54, 85
2, 39040, Note_on_c, 0, 54, 0
2, 39040, Note_on_c, 0, 71, 0
2, 39040, Note_on_c, 0, 75, 0
2, 39168, Note_on_c, 0, 76, 85
2, 39424, Note_on_c, 0, 76, 0
2, 39552, Note_on_c, 0, 75, 85
2, 39552, Note_on_c, 0, 69, 85
2, 39808, Note_on_c, 0, 69, 0
2, 39808, Note_on_c, 0, 75, 0
2, 39936, Note_on_c, 0, 76, 85
2, 40192, Note_on_c, 0, 76, 0
2, 40320, Note_on_c, 0, 75, 85
2, 40320, Note_on_c, 0, 68, 85
2, 40576, Note_on_c, 0, 68, 0
2, 40576, Note_on_c, 0, 75, 0
2, 40704, Note_on_c, 0, 76, 85
2, 41088, Note_on_c, 0, 75, 85
2, 41344, Note_on_c, 0, 75, 0
2, 41728, Note_on_c, 0, 76, 0
2, 41856, Note_on_c, 0, 74, 85
2, 41984, Note_on_c, 0, 74, 0
2, 42048, Note_on_c, 0, 72, 85
2, 42176, Note_on_c, 0, 72, 0
2, 42240, Note_on_c, 0, 71, 85
2, 42496, Note_on_c, 0, 71, 0
2, 42624, Note_on_c, 0, 69, 85
2, 42752, Note_on_c, 0, 69, 0
2, 42816, Note_on_c, 0, 71, 85
2, 42944, Note_on_c, 0, 71, 0
2, 43008, Note_on_c, 0, 72, 85
2, 43264, Note_on_c, 0, 72, 0
2, 43392, Note_on_c, 0, 71, 85
2, 43520, Note_on_c, 0, 71, 0
2, 43584, Note_on_c, 0, 69, 85
2, 43712, Note_on_c, 0, 69, 0
2, 43776, Note_on_c, 0, 71, 85
2, 44032, Note_on_c, 0, 71, 0
2, 44160, Note_on_c, 0, 69, 85
2, 44288, Note_on_c, 0, 69, 0
2, 44352, Note_on_c, 0, 71, 85
2, 44480, Note_on_c, 0, 71, 0
2, 44544, Note_on_c, 0, 72, 85
2, 44800, Note_on_c, 0, 72, 0
2, 44928, Note_on_c, 0, 71, 85
2, 45056, Note_on_c, 0, 71, 0
2, 45120, Note_on_c, 0, 69, 85
2, 45248, Note_on_c, 0, 69, 0
2, 45312, Note_on_c, 0, 76, 85
2, 45440, Note_on_c, 0, 76, 0
2, 45504, Note_on_c, 0, 69, 85
2, 45632, Note_on_c, 0, 69, 0
2, 45696, Note_on_c, 0, 69, 85
2, 45824, Note_on_c, 0, 69, 0
2, 45888, Note_on_c, 0, 71, 85
2, 46016, Note_on_c, 0, 71, 0
2, 46080, Note_on_c, 0, 69, 85
2, 46336, Note_on_c, 0, 69, 0
2, 46464, Note_on_c, 0, 68, 85
2, 46720, Note_on_c, 0, 68, 0
2, 46848, Note_on_c, 0, 76, 85
2, 47232, Note_on_c, 0, 75, 85
2, 47488, Note_on_c, 0, 75, 0
2, 47872, Note_on_c, 0, 76, 0
2, 48000, Note_on_c, 0, 74, 85
2, 48128, Note_on_c, 0, 74, 0
2, 48192, Note_on_c, 0, 72, 85
2, 48320, Note_on_c, 0, 72, 0
2, 48384, Note_on_c, 0, 71, 85
2, 48640, Note_on_c, 0, 71, 0
2, 48768, Note_on_c, 0, 69, 85
2, 48896, Note_on_c, 0, 69, 0
2, 48960, Note_on_c, 0, 71, 85
2, 49088, Note_on_c, 0, 71, 0
2, 49152, Note_on_c, 0, 72, 85
2, 49408, Note_on_c, 0, 72, 0
2, 49536, Note_on_c, 0, 71, 85
2, 49664, Note_on_c, 0, 71, 0
2, 49728, Note_on_c, 0, 69, 85
2, 49856, Note_on_c, 0, 69, 0
2, 49920, Note_on_c, 0, 71, 85
2, 50176, Note_on_c, 0, 71, 0
2, 50304, Note_on_c, 0, 69, 85
2, 50432, Note_on_c, 0, 69, 0
2, 50496, Note_on_c, 0, 71, 85
2, 50624, Note_on_c, 0, 71, 0
2, 50688, Note_on_c, 0, 72, 85
2, 50944, Note_on_c, 0, 72, 0
2, 51072, Note_on_c, 0, 71, 85
2, 51200, Note_on_c, 0, 71, 0
2, 51264, Note_on_c, 0, 69, 85
2, 51392, Note_on_c, 0, 69, 0
2, 51456, Note_on_c, 0, 67, 85
2, 51584, Note_on_c, 0, 67, 0
2, 51648, Note_on_c, 0, 69, 85
2, 51776, Note_on_c, 0, 69, 0
2, 51840, Note_on_c, 0, 67, 85
2, 52032, Note_on_c, 0, 67, 0
2, 52128, Note_on_c, 0, 65, 85
2, 52192, Note_on_c, 0, 65, 0
2, 52224, Note_on_c, 0, 65, 85
2, 52480, Note_on_c, 0, 65, 0
2, 52608, Note_on_c, 0, 64, 85
2, 52736, Note_on_c, 0, 64, 0
2, 52992, Note_on_c, 0, 79, 85
2, 53248, Note_on_c, 0, 79, 0
2, 53376, Note_on_c, 0, 72, 85
2, 53632, Note_on_c, 0, 72, 0
2, 53760, Note_on_c, 0, 74, 85
2, 54016, Note_on_c, 0, 74, 0
2, 54144, Note_on_c, 0, 73, 85
2, 54272, Note_on_c, 0, 73, 0
2, 54336, Note_on_c, 0, 74, 85
2, 54464, Note_on_c, 0, 74, 0
2, 54528, Note_on_c, 0, 79, 85
2, 54784, Note_on_c, 0, 79, 0
2, 54912, Note_on_c, 0, 72, 85
2, 55168, Note_on_c, 0, 72, 0
2, 55296, Note_on_c, 0, 74, 85
2, 55552, Note_on_c, 0, 74, 0
2, 55680, Note_on_c, 0, 73, 85
2, 55808, Note_on_c, 0, 73, 0
2, 55872, Note_on_c, 0, 74, 85
2, 56000, Note_on_c, 0, 74, 0
2, 56064, Note_on_c, 0, 79, 85
2, 56320, Note_on_c, 0, 79, 0
2, 56448, Note_on_c, 0, 79, 85
2, 56576, Note_on_c, 0, 79, 0
2, 56640, Note_on_c, 0, 81, 85
2, 56768, Note_on_c, 0, 81, 0
2, 56832, Note_on_c, 0, 79, 85
2, 56960, Note_on_c, 0, 79, 0
2, 57024, Note_on_c, 0, 77, 85
2, 57152, Note_on_c, 0, 77, 0
2, 57216, Note_on_c, 0, 76, 85
2, 57344, Note_on_c, 0, 76, 0
2, 57408, Note_on_c, 0, 74, 85
2, 57536, Note_on_c, 0, 74, 0
2, 57600, Note_on_c, 0, 72, 85
2, 57856, Note_on_c, 0, 72, 0
2, 57984, Note_on_c, 0, 76, 85
2, 58112, Note_on_c, 0, 76, 0
2, 58176, Note_on_c, 0, 74, 85
2, 58304, Note_on_c, 0, 74, 0
2, 58368, Note_on_c, 0, 72, 85
2, 58496, Note_on_c, 0, 72, 0
2, 58560, Note_on_c, 0, 71, 85
2, 58688, Note_on_c, 0, 71, 0
2, 58752, Note_on_c, 0, 69, 85
2, 58880, Note_on_c, 0, 69, 0
2, 58944, Note_on_c, 0, 67, 85
2, 59072, Note_on_c, 0, 67, 0
2, 59136, Note_on_c, 0, 79, 85
2, 59392, Note_on_c, 0, 79, 0
2, 59520, Note_on_c, 0, 72, 85
2, 59776, Note_on_c, 0, 72, 0
2, 59904, Note_on_c, 0, 74, 85
2, 60160, Note_on_c, 0, 74, 0
2, 60288, Note_on_c, 0, 73, 85
2, 60416, Note_on_c, 0, 73, 0
2, 60480, Note_on_c, 0, 74, 85
2, 60608, Note_on_c, 0, 74, 0
2, 60672, Note_on_c, 0, 79, 85
2, 60928, Note_on_c, 0, 79, 0
2, 61056, Note_on_c, 0, 72, 85
2, 61312, Note_on_c, 0, 72, 0
2, 61440, Note_on_c, 0, 74, 85
2, 61696, Note_on_c, 0, 74, 0
2, 61824, Note_on_c, 0, 73, 85
2, 61952, Note_on_c, 0, 73, 0
2, 62016, Note_on_c, 0, 74, 85
2, 62144, Note_on_c, 0, 74, 0
2, 62208, Note_on_c, 0, 79, 85
2, 62464, Note_on_c, 0, 79, 0
2, 62592, Note_on_c, 0, 79, 85
2, 62720, Note_on_c, 0, 79, 0
2, 62784, Note_on_c, 0, 81, 85
2, 62912, Note_on_c, 0, 81, 0
2, 62976, Note_on_c, 0, 79, 85
2, 63104, Note_on_c, 0, 79, 0
2, 63168, Note_on_c, 0, 77, 85
2, 63296, Note_on_c, 0, 77, 0
2, 63360, Note_on_c, 0, 76, 85
2, 63488, Note_on_c, 0, 76, 0
2, 63552, Note_on_c, 0, 74, 85
2, 63680, Note_on_c, 0, 74, 0
2, 63744, Note_on_c, 0, 81, 85
2, 64000, Note_on_c, 0, 81, 0
2, 64128, Note_on_c, 0, 81, 85
2, 64256, Note_on_c, 0, 81, 0
2, 64320, Note_on_c, 0, 83, 85
2, 64448, Note_on_c, 0, 83, 0
2, 64512, Note_on_c, 0, 81, 85
2, 64640, Note_on_c, 0, 81, 0
2, 64704, Note_on_c, 0, 80, 85
2, 64832, Note_on_c, 0, 80, 0
2, 64896, Note_on_c, 0, 77, 85
2, 65024, Note_on_c, 0, 77, 0
2, 65088, Note_on_c, 0, 76, 85
2, 65216, Note_on_c, 0, 76, 0
2, 65280, Note_on_c, 0, 84, 85
2, 65536, Note_on_c, 0, 84, 0
2, 65664, Note_on_c, 0, 83, 85
2, 65920, Note_on_c, 0, 83, 0
2, 66048, Note_on_c, 0, 81, 85
2, 66304, Note_on_c, 0, 81, 0
2, 66432, Note_on_c, 0, 79, 85
2, 66560, Note_on_c, 0, 79, 0
2, 66624, Note_on_c, 0, 81, 85
2, 66752, Note_on_c, 0, 81, 0
2, 66816, Note_on_c, 0, 79, 85
2, 67072, Note_on_c, 0, 79, 0
2, 67200, Note_on_c, 0, 77, 85
2, 67328, Note_on_c, 0, 77, 0
2, 67392, Note_on_c, 0, 79, 85
2, 67520, Note_on_c, 0, 79, 0
2, 67584, Note_on_c, 0, 77, 85
2, 67712, Note_on_c, 0, 77, 0
2, 67776, Note_on_c, 0, 76, 85
2, 67904, Note_on_c, 0, 76, 0
2, 67968, Note_on_c, 0, 75, 85
2, 68096, Note_on_c, 0, 75, 0
2, 68160, Note_on_c, 0, 76, 85
2, 68288, Note_on_c, 0, 76, 0
2, 68352, Note_on_c, 0, 77, 85
2, 68608, Note_on_c, 0, 77, 0
2, 68736, Note_on_c, 0, 76, 85
2, 68992, Note_on_c, 0, 76, 0
2, 69120, Note_on_c, 0, 75, 85
2, 69376, Note_on_c, 0, 75, 0
2, 69504, Note_on_c, 0, 74, 85
2, 69632, Note_on_c, 0, 74, 0
2, 69696, Note_on_c, 0, 76, 85
2, 69824, Note_on_c, 0, 76, 0
2, 69888, Note_on_c, 0, 74, 85
2, 70144, Note_on_c, 0, 74, 0
2, 70272, Note_on_c, 0, 72, 85
2, 70400, Note_on_c, 0, 72, 0
2, 70464, Note_on_c, 0, 74, 85
2, 70592, Note_on_c, 0, 74, 0
2, 70656, Note_on_c, 0, 72, 85
2, 70784, Note_on_c, 0, 72, 0
2, 70848, Note_on_c, 0, 71, 85
2, 70976, Note_on_c, 0, 71, 0
2, 71040, Note_on_c, 0, 69, 85
2, 71168, Note_on_c, 0, 69, 0
2, 71232, Note_on_c, 0, 71, 85
2, 71360, Note_on_c, 0, 71, 0
2, 71424, Note_on_c, 0, 76, 85
2, 71680, Note_on_c, 0, 76, 0
2, 71808, Note_on_c, 0, 69, 85
2, 72064, Note_on_c, 0, 69, 0
2, 72384, Note_on_c, 0, 69, 85
2, 72512, Note_on_c, 0, 69, 0
2, 72576, Note_on_c, 0, 72, 85
2, 72704, Note_on_c, 0, 72, 0
2, 72768, Note_on_c, 0, 75, 85
2, 72896, Note_on_c, 0, 75, 0
2, 72960, Note_on_c, 0, 76, 85
2, 73216, Note_on_c, 0, 76, 0
2, 73344, Note_on_c, 0, 69, 85
2, 73600, Note_on_c, 0, 69, 0
2, 73920, Note_on_c, 0, 69, 85
2, 74048, Note_on_c, 0, 69, 0
2, 74112, Note_on_c, 0, 72, 85
2, 74240, Note_on_c, 0, 72, 0
2, 74304, Note_on_c, 0, 75, 85
2, 74432, Note_on_c, 0, 75, 0
2, 74496, Note_on_c, 0, 76, 85
2, 74688, Note_on_c, 0, 66, 85
2, 74688, Note_on_c, 0, 69, 85
2, 74752, Note_on_c, 0, 76, 0
2, 74816, Note_on_c, 0, 69, 0
2, 74816, Note_on_c, 0, 66, 0
2, 74880, Note_on_c, 0, 75, 85
2, 75008, Note_on_c, 0, 75, 0
2, 75072, Note_on_c, 0, 69, 85
2, 75072, Note_on_c, 0, 66, 85
2, 75200, Note_on_c, 0, 66, 0
2, 75200, Note_on_c, 0, 69, 0
2, 75264, Note_on_c, 0, 76, 85
2, 75456, Note_on_c, 0, 71, 85
2, 75456, Note_on_c, 0, 64, 85
2, 75520, Note_on_c, 0, 76, 0
2, 75584, Note_on_c, 0, 64, 0
2, 75584, Note_on_c, 0, 71, 0
2, 75648, Note_on_c, 0, 69, 85
2, 75776, Note_on_c, 0, 69, 0
2, 75840, Note_on_c, 0, 71, 85
2, 75840, Note_on_c, 0, 69, 85
2, 75968, Note_on_c, 0, 69, 0
2, 75968, Note_on_c, 0, 71, 0
2, 76032, Note_on_c, 0, 72, 85
2, 76160, Note_on_c, 0, 72, 0
2, 76224, Note_on_c, 0, 69, 85
2, 76224, Note_on_c, 0, 64, 85
2, 76352, Note_on_c, 0, 64, 0
2, 76352, Note_on_c, 0, 69, 0
2, 76416, Note_on_c, 0, 71, 85
2, 76544, Note_on_c, 0, 71, 0
2, 76608, Note_on_c, 0, 68, 85
2, 76608, Note_on_c, 0, 62, 85
2, 76736, Note_on_c, 0, 62, 0
2, 76736, Note_on_c, 0, 68, 0
2, 76800, Note_on_c, 0, 69, 85
2, 77184, Note_on_c, 0, 64, 85
2, 77184, Note_on_c, 0, 60, 85
2, 77440, Note_on_c, 0, 60, 0
2, 77440, Note_on_c, 0, 64, 0
2, 77568, Note_on_c, 0, 69, 85
2, 77696, Note_on_c, 0, 69, 0
2, 77696, Note_on_c, 0, 69, 0
2, 77760, Note_on_c, 0, 69, 85
2, 77888, Note_on_c, 0, 69, 0
2, 77952, Note_on_c, 0, 72, 85
2, 77952, Note_on_c, 0, 81, 85
2, 78080, Note_on_c, 0, 81, 0
2, 78080, Note_on_c, 0, 72, 0
2, 78144, Note_on_c, 0, 69, 85
2, 78272, Note_on_c, 0, 69, 0
2, 78336, Note_on_c, 0, 69, 85
2, 78720, Note_on_c, 0, 64, 85
2, 78720, Note_on_c, 0, 60, 85
2, 78976, Note_on_c, 0, 60, 0
2, 78976, Note_on_c, 0, 64, 0
2, 79104, Note_on_c, 0, 69, 85
2, 79232, Note_on_c, 0, 69, 0
2, 79232, Note_on_c, 0, 69, 0
2, 79296, Note_on_c, 0, 69, 85
2, 79424, Note_on_c, 0, 69, 0
2, 79488, Note_on_c, 0, 72, 85
2, 79488, Note_on_c, 0, 81, 85
2, 79616, Note_on_c, 0, 81, 0
2, 79616, Note_on_c, 0, 72, 0
2, 79680, Note_on_c, 0, 69, 85
2, 79808, Note_on_c, 0, 69, 0
2, 79872, Note_on_c, 0, 64, 85
2, 80064, Note_on_c, 0, 52, 85
2, 80064, Note_on_c, 0, 57, 85
2, 80192, Note_on_c, 0, 57, 0
2, 80192, Note_on_c, 0, 52, 0
2, 80256, Note_on_c, 0, 63, 85
2, 80384, Note_on_c, 0, 63, 0
2, 80448, Note_on_c, 0, 54, 85
2, 80448, Note_on_c, 0, 57, 85
2, 80576, Note_on_c, 0, 57, 0
2, 80576, Note_on_c, 0, 54, 0
2, 80640, Note_on_c, 0, 64, 85
2, 80768, Note_on_c, 0, 64, 0
2, 80768, Note_on_c, 0, 64, 0
2, 80832, Note_on_c, 0, 52, 85
2, 80832, Note_on_c, 0, 59, 85
2, 80960, Note_on_c, 0, 59, 0
2, 80960, Note_on_c, 0, 52, 0
2, 81024, Note_on_c, 0, 57, 85
2, 81152, Note_on_c, 0, 57, 0
2, 81216, Note_on_c, 0, 59, 85
2, 81216, Note_on_c, 0, 57, 85
2, 81344, Note_on_c, 0, 57, 0
2, 81344, Note_on_c, 0, 59, 0
2, 81408, Note_on_c, 0, 57, 85
2, 81408, Note_on_c, 0, 60, 85
2, 81664, Note_on_c, 0, 60, 0
2, 81664, Note_on_c, 0, 57, 0
2, 81792, Note_on_c, 0, 56, 85
2, 81792, Note_on_c, 0, 59, 85
2, 82048, Note_on_c, 0, 59, 0
2, 82048, Note_on_c, 0, 56, 0
2, 82176, Note_on_c, 0, 57, 85
2, 82176, Note_on_c, 0, 52, 85
2, 82304, Note_on_c, 0, 52, 0
2, 82304, Note_on_c, 0, 57, 0
2, 82560, Note_on_c, 0, 64, 85
2, 82944, Note_on_c, 0, 64, 85
2, 83200, Note_on_c, 0, 64, 0
2, 83200, Note_on_c, 0, 64, 0
2, 83328, Note_on_c, 0, 69, 85
2, 83712, Note_on_c, 0, 69, 85
2, 83776, Note_on_c, 0, 69, 0
2, 83776, Note_on_c, 0, 69, 0
2, 83904, Note_on_c, 0, 71, 85
2, 83968, Note_on_c, 0, 71, 0
2, 84096, Note_on_c, 0, 72, 85
2, 84160, Note_on_c, 0, 72, 0
2, 84288, Note_on_c, 0, 76, 85
2, 84352, Note_on_c, 0, 76, 0
2, 84480, Note_on_c, 0, 72, 85
2, 84480, Note_on_c, 0, 81, 85
2, 84992, Note_on_c, 0, 81, 0
2, 84992, Note_on_c, 0, 72, 0
2, 84992, End_track
3, 0, Start_track
3, 0, Title_t, "Grand Piano"
3, 0, Control_c, 0, 0, 0
3, 0, Control_c, 0, 7, 115
3, 0, Control_c, 0, 10, 48
3, 0, Control_c, 0, 32, 0
3, 1, Program_c, 0, 0
3, 960, Note_on_c, 0, 57, 85
3, 960, Note_on_c, 0, 60, 85
3, 960, Note_on_c, 0, 64, 85
3, 1088, Note_on_c, 0, 64, 0
3, 1088, Note_on_c, 0, 60, 0
3, 1088, Note_on_c, 0, 57, 0
3, 1344, Note_on_c, 0, 57, 85
3, 1344, Note_on_c, 0, 60, 85
3, 1344, Note_on_c, 0, 65, 85
3, 1472, Note_on_c, 0, 65, 0
3, 1472, Note_on_c, 0, 60, 0
3, 1472, Note_on_c, 0, 57, 0
3, 1728, Note_on_c, 0, 57, 85
3, 1728, Note_on_c, 0, 60, 85
3, 1728, Note_on_c, 0, 64, 85
3, 1856, Note_on_c, 0, 64, 0
3, 1856, Note_on_c, 0, 60, 0
3, 1856, Note_on_c, 0, 57, 0
3, 2112, Note_on_c, 0, 57, 85
3, 2112, Note_on_c, 0, 60, 85
3, 2112, Note_on_c, 0, 64, 85
3, 2240, Note_on_c, 0, 64, 0
3, 2240, Note_on_c, 0, 60, 0
3, 2240, Note_on_c, 0, 57, 0
3, 2496, Note_on_c, 0, 57, 85
3, 2496, Note_on_c, 0, 62, 85
3, 2496, Note_on_c, 0, 65, 85
3, 2624, Note_on_c, 0, 65, 0
3, 2624, Note_on_c, 0, 62, 0
3, 2624, Note_on_c, 0, 57, 0
3, 2880, Note_on_c, 0, 57, 85
3, 2880, Note_on_c, 0, 62, 85
3, 2880, Note_on_c, 0, 65, 85
3, 3008, Note_on_c, 0, 65, 0
3, 3008, Note_on_c, 0, 62, 0
3, 3008, Note_on_c, 0, 57, 0
3, 3264, Note_on_c, 0, 57, 85
3, 3264, Note_on_c, 0, 63, 85
3, 3264, Note_on_c, 0, 66, 85
3, 3392, Note_on_c, 0, 66, 0
3, 3392, Note_on_c, 0, 63, 0
3, 3392, Note_on_c, 0, 57, 0
3, 3648, Note_on_c, 0, 57, 85
3, 3648, Note_on_c, 0, 63, 85
3, 3648, Note_on_c, 0, 66, 85
3, 3776, Note_on_c, 0, 66, 0
3, 3776, Note_on_c, 0, 63, 0
3, 3776, Note_on_c, 0, 57, 0
3, 4032, Note_on_c, 0, 57, 85
3, 4032, Note_on_c, 0, 62, 85
3, 4032, Note_on_c, 0, 65, 85
3, 4160, Note_on_c, 0, 65, 0
3, 4160, Note_on_c, 0, 62, 0
3, 4160, Note_on_c, 0, 57, 0
3, 4416, Note_on_c, 0, 57, 85
3, 4416, Note_on_c, 0, 62, 85
3, 4416, Note_on_c, 0, 65, 85
3, 4544, Note_on_c, 0, 65, 0
3, 4544, Note_on_c, 0, 62, 0
3, 4544, Note_on_c, 0, 57, 0
3, 4800, Note_on_c, 0, 57, 85
3, 4800, Note_on_c, 0, 60, 85
3, 4800, Note_on_c, 0, 64, 85
3, 4928, Note_on_c, 0, 64, 0
3, 4928, Note_on_c, 0, 60, 0
3, 4928, Note_on_c, 0, 57, 0
3, 5184, Note_on_c, 0, 53, 85
3, 5184, Note_on_c, 0, 57, 85
3, 5184, Note_on_c, 0, 60, 85
3, 5184, Note_on_c, 0, 63, 85
3, 5312, Note_on_c, 0, 63, 0
3, 5312, Note_on_c, 0, 53, 0
3, 5312, Note_on_c, 0, 57, 0
3, 5312, Note_on_c, 0, 60, 0
3, 5568, Note_on_c, 0, 52, 85
3, 5568, Note_on_c, 0, 57, 85
3, 5568, Note_on_c, 0, 60, 85
3, 5568, Note_on_c, 0, 64, 85
3, 5696, Note_on_c, 0, 64, 0
3, 5696, Note_on_c, 0, 52, 0
3, 5696, Note_on_c, 0, 57, 0
3, 5696, Note_on_c, 0, 60, 0
3, 5952, Note_on_c, 0, 50, 85
3, 5952, Note_on_c, 0, 53, 85
3, 5952, Note_on_c, 0, 57, 85
3, 6080, Note_on_c, 0, 57, 0
3, 6080, Note_on_c, 0, 53, 0
3, 6080, Note_on_c, 0, 50, 0
3, 6336, Note_on_c, 0, 52, 85
3, 6464, Note_on_c, 0, 52, 0
3, 6528, Note_on_c, 0, 60, 85
3, 6528, Note_on_c, 0, 64, 85
3, 6656, Note_on_c, 0, 64, 0
3, 6656, Note_on_c, 0, 60, 0
3, 6720, Note_on_c, 0, 59, 85
3, 6848, Note_on_c, 0, 59, 0
3, 7104, Note_on_c, 0, 57, 85
3, 7104, Note_on_c, 0, 60, 85
3, 7104, Note_on_c, 0, 64, 85
3, 7232, Note_on_c, 0, 64, 0
3, 7232, Note_on_c, 0, 60, 0
3, 7232, Note_on_c, 0, 57, 0
3, 7488, Note_on_c, 0, 57, 85
3, 7488, Note_on_c, 0, 60, 85
3, 7488, Note_on_c, 0, 65, 85
3, 7616, Note_on_c, 0, 65, 0
3, 7616, Note_on_c, 0, 60, 0
3, 7616, Note_on_c, 0, 57, 0
3, 7872, Note_on_c, 0, 57, 85
3, 7872, Note_on_c, 0, 60, 85
3, 7872, Note_on_c, 0, 64, 85
3, 8000, Note_on_c, 0, 64, 0
3, 8000, Note_on_c, 0, 60, 0
3, 8000, Note_on_c, 0, 57, 0
3, 8256, Note_on_c, 0, 57, 85
3, 8256, Note_on_c, 0, 60, 85
3, 8256, Note_on_c, 0, 64, 85
3, 8384, Note_on_c, 0, 64, 0
3, 8384, Note_on_c, 0, 60, 0
3, 8384, Note_on_c, 0, 57, 0
3, 8640, Note_on_c, 0, 57, 85
3, 8640, Note_on_c, 0, 62, 85
3, 8640, Note_on_c, 0, 65, 85
3, 8768, Note_on_c, 0, 65, 0
3, 8768, Note_on_c, 0, 62, 0
3, 8768, Note_on_c, 0, 57, 0
3, 9024, Note_on_c, 0, 57, 85
3, 9024, Note_on_c, 0, 62, 85
3, 9024, Note_on_c, 0, 65, 85
3, 9152, Note_on_c, 0, 65, 0
3, 9152, Note_on_c, 0, 62, 0
3, 9152, Note_on_c, 0, 57, 0
3, 9408, Note_on_c, 0, 57, 85
3, 9408, Note_on_c, 0, 63, 85
3, 9408, Note_on_c, 0, 66, 85
3, 9536, Note_on_c, 0, 66, 0
3, 9536, Note_on_c, 0, 63, 0
3, 9536, Note_on_c, 0, 57, 0
3, 9792, Note_on_c, 0, 57, 85
3, 9792, Note_on_c, 0, 63, 85
3, 9792, Note_on_c, 0, 66, 85
3, 9920, Note_on_c, 0, 66, 0
3, 9920, Note_on_c, 0, 63, 0
3, 9920, Note_on_c, 0, 57, 0
3, 10176, Note_on_c, 0, 57, 85
3, 10176, Note_on_c, 0, 62, 85
3, 10176, Note_on_c, 0, 65, 85
3, 10304, Note_on_c, 0, 65, 0
3, 10304, Note_on_c, 0, 62, 0
3, 10304, Note_on_c, 0, 57, 0
3, 10560, Note_on_c, 0, 57, 85
3, 10560, Note_on_c, 0, 62, 85
3, 10560, Note_on_c, 0, 65, 85
3, 10688, Note_on_c, 0, 65, 0
3, 10688, Note_on_c, 0, 62, 0
3, 10688, Note_on_c, 0, 57, 0
3, 10944, Note_on_c, 0, 57, 85
3, 10944, Note_on_c, 0, 60, 85
3, 10944, Note_on_c, 0, 63, 85
3, 10944, Note_on_c, 0, 66, 85
3, 11072, Note_on_c, 0, 66, 0
3, 11072, Note_on_c, 0, 57, 0
3, 11072, Note_on_c, 0, 60, 0
3, 11072, Note_on_c, 0, 63, 0
3, 11328, Note_on_c, 0, 57, 85
3, 11328, Note_on_c, 0, 60, 85
3, 11328, Note_on_c, 0, 63, 85
3, 11328, Note_on_c, 0, 66, 85
3, 11456, Note_on_c, 0, 66, 0
3, 11456, Note_on_c, 0, 57, 0
3, 11456, Note_on_c, 0, 60, 0
3, 11456, Note_on_c, 0, 63, 0
3, 11712, Note_on_c, 0, 55, 85
3, 11712, Note_on_c, 0, 60, 85
3, 11712, Note_on_c, 0, 64, 85
3, 11840, Note_on_c, 0, 64, 0
3, 11840, Note_on_c, 0, 60, 0
3, 11840, Note_on_c, 0, 55, 0
3, 12096, Note_on_c, 0, 55, 85
3, 12096, Note_on_c, 0, 59, 85
3, 12096, Note_on_c, 0, 62, 85
3, 12224, Note_on_c, 0, 62, 0
3, 12224, Note_on_c, 0, 59, 0
3, 12224, Note_on_c, 0, 55, 0
3, 12480, Note_on_c, 0, 48, 85
3, 12608, Note_on_c, 0, 48, 0
3, 12672, Note_on_c, 0, 55, 85
3, 12800, Note_on_c, 0, 55, 0
3, 12864, Note_on_c, 0, 60, 85
3, 12864, Note_on_c, 0, 64, 85
3, 12992, Note_on_c, 0, 64, 0
3, 12992, Note_on_c, 0, 60, 0
3, 13248, Note_on_c, 0, 48, 85
3, 13376, Note_on_c, 0, 48, 0
3, 13440, Note_on_c, 0, 55, 85
3, 13568, Note_on_c, 0, 55, 0
3, 13632, Note_on_c, 0, 60, 85
3, 13632, Note_on_c, 0, 64, 85
3, 13760, Note_on_c, 0, 64, 0
3, 13760, Note_on_c, 0, 60, 0
3, 14016, Note_on_c, 0, 48, 85
3, 14144, Note_on_c, 0, 48, 0
3, 14208, Note_on_c, 0, 56, 85
3, 14336, Note_on_c, 0, 56, 0
3, 14400, Note_on_c, 0, 59, 85
3, 14400, Note_on_c, 0, 65, 85
3, 14528, Note_on_c, 0, 65, 0
3, 14528, Note_on_c, 0, 59, 0
3, 14784, Note_on_c, 0, 48, 85
3, 14912, Note_on_c, 0, 48, 0
3, 14976, Note_on_c, 0, 55, 85
3, 15104, Note_on_c, 0, 55, 0
3, 15168, Note_on_c, 0, 60, 85
3, 15168, Note_on_c, 0, 64, 85
3, 15296, Note_on_c, 0, 64, 0
3, 15296, Note_on_c, 0, 60, 0
3, 15552, Note_on_c, 0, 48, 85
3, 15680, Note_on_c, 0, 48, 0
3, 15744, Note_on_c, 0, 56, 85
3, 15872, Note_on_c, 0, 56, 0
3, 15936, Note_on_c, 0, 59, 85
3, 15936, Note_on_c, 0, 65, 85
3, 16064, Note_on_c, 0, 65, 0
3, 16064, Note_on_c, 0, 59, 0
3, 16320, Note_on_c, 0, 48, 85
3, 16448, Note_on_c, 0, 48, 0
3, 16512, Note_on_c, 0, 55, 85
3, 16512, Note_on_c, 0, 64, 85
3, 16640, Note_on_c, 0, 64, 0
3, 16640, Note_on_c, 0, 55, 0
3, 16704, Note_on_c, 0, 49, 85
3, 16832, Note_on_c, 0, 49, 0
3, 17088, Note_on_c, 0, 50, 85
3, 17216, Note_on_c, 0, 50, 0
3, 17280, Note_on_c, 0, 53, 85
3, 17280, Note_on_c, 0, 57, 85
3, 17408, Note_on_c, 0, 57, 0
3, 17408, Note_on_c, 0, 53, 0
3, 17472, Note_on_c, 0, 62, 85
3, 17600, Note_on_c, 0, 62, 0
3, 17856, Note_on_c, 0, 50, 85
3, 17984, Note_on_c, 0, 50, 0
3, 18048, Note_on_c, 0, 54, 85
3, 18048, Note_on_c, 0, 57, 85
3, 18176, Note_on_c, 0, 57, 0
3, 18176, Note_on_c, 0, 54, 0
3, 18240, Note_on_c, 0, 62, 85
3, 18368, Note_on_c, 0, 62, 0
3, 18624, Note_on_c, 0, 55, 85
3, 18752, Note_on_c, 0, 55, 0
3, 18816, Note_on_c, 0, 59, 85
3, 18816, Note_on_c, 0, 62, 85
3, 18944, Note_on_c, 0, 62, 0
3, 18944, Note_on_c, 0, 59, 0
3, 19008, Note_on_c, 0, 55, 85
3, 19136, Note_on_c, 0, 55, 0
3, 19392, Note_on_c, 0, 48, 85
3, 19520, Note_on_c, 0, 48, 0
3, 19584, Note_on_c, 0, 55, 85
3, 19712, Note_on_c, 0, 55, 0
3, 19776, Note_on_c, 0, 60, 85
3, 19776, Note_on_c, 0, 64, 85
3, 19904, Note_on_c, 0, 64, 0
3, 19904, Note_on_c, 0, 60, 0
3, 20160, Note_on_c, 0, 48, 85
3, 20288, Note_on_c, 0, 48, 0
3, 20352, Note_on_c, 0, 56, 85
3, 20480, Note_on_c, 0, 56, 0
3, 20544, Note_on_c, 0, 59, 85
3, 20544, Note_on_c, 0, 65, 85
3, 20672, Note_on_c, 0, 65, 0
3, 20672, Note_on_c, 0, 59, 0
3, 20928, Note_on_c, 0, 48, 85
3, 21056, Note_on_c, 0, 48, 0
3, 21120, Note_on_c, 0, 55, 85
3, 21248, Note_on_c, 0, 55, 0
3, 21312, Note_on_c, 0, 60, 85
3, 21312, Note_on_c, 0, 64, 85
3, 21440, Note_on_c, 0, 64, 0
3, 21440, Note_on_c, 0, 60, 0
3, 21696, Note_on_c, 0, 48, 85
3, 21824, Note_on_c, 0, 48, 0
3, 21888, Note_on_c, 0, 56, 85
3, 22016, Note_on_c, 0, 56, 0
3, 22080, Note_on_c, 0, 59, 85
3, 22080, Note_on_c, 0, 65, 85
3, 22208, Note_on_c, 0, 65, 0
3, 22208, Note_on_c, 0, 59, 0
3, 22464, Note_on_c, 0, 48, 85
3, 22592, Note_on_c, 0, 48, 0
3, 22656, Note_on_c, 0, 55, 85
3, 22656, Note_on_c, 0, 64, 85
3, 22784, Note_on_c, 0, 64, 0
3, 22784, Note_on_c, 0, 55, 0
3, 22848, Note_on_c, 0, 49, 85
3, 22976, Note_on_c, 0, 49, 0
3, 23232, Note_on_c, 0, 50, 85
3, 23360, Note_on_c, 0, 50, 0
3, 23424, Note_on_c, 0, 53, 85
3, 23424, Note_on_c, 0, 57, 85
3, 23552, Note_on_c, 0, 57, 0
3, 23552, Note_on_c, 0, 53, 0
3, 23616, Note_on_c, 0, 62, 85
3, 23744, Note_on_c, 0, 62, 0
3, 24000, Note_on_c, 0, 50, 85
3, 24128, Note_on_c, 0, 50, 0
3, 24192, Note_on_c, 0, 57, 85
3, 24192, Note_on_c, 0, 65, 85
3, 24320, Note_on_c, 0, 65, 0
3, 24320, Note_on_c, 0, 57, 0
3, 24384, Note_on_c, 0, 51, 85
3, 24512, Note_on_c, 0, 51, 0
3, 24768, Note_on_c, 0, 52, 85
3, 24896, Note_on_c, 0, 52, 0
3, 24960, Note_on_c, 0, 56, 85
3, 24960, Note_on_c, 0, 59, 85
3, 25088, Note_on_c, 0, 59, 0
3, 25088, Note_on_c, 0, 56, 0
3, 25152, Note_on_c, 0, 64, 85
3, 25280, Note_on_c, 0, 64, 0
3, 25344, Note_on_c, 0, 52, 85
3, 25344, Note_on_c, 0, 60, 85
3, 25856, Note_on_c, 0, 60, 0
3, 25856, Note_on_c, 0, 52, 0
3, 26112, Note_on_c, 0, 52, 85
3, 26112, Note_on_c, 0, 62, 85
3, 26368, Note_on_c, 0, 62, 0
3, 26368, Note_on_c, 0, 52, 0
3, 26496, Note_on_c, 0, 62, 85
3, 26624, Note_on_c, 0, 62, 0
3, 26688, Note_on_c, 0, 64, 85
3, 26816, Note_on_c, 0, 64, 0
3, 26880, Note_on_c, 0, 62, 85
3, 26880, Note_on_c, 0, 52, 85
3, 27008, Note_on_c, 0, 52, 0
3, 27008, Note_on_c, 0, 62, 0
3, 27072, Note_on_c, 0, 60, 85
3, 27200, Note_on_c, 0, 60, 0
3, 27264, Note_on_c, 0, 59, 85
3, 27392, Note_on_c, 0, 59, 0
3, 27456, Note_on_c, 0, 57, 85
3, 27584, Note_on_c, 0, 57, 0
3, 27648, Note_on_c, 0, 62, 85
3, 27648, Note_on_c, 0, 52, 85
3, 27904, Note_on_c, 0, 52, 0
3, 27904, Note_on_c, 0, 62, 0
3, 28032, Note_on_c, 0, 62, 85
3, 28160, Note_on_c, 0, 62, 0
3, 28224, Note_on_c, 0, 64, 85
3, 28352, Note_on_c, 0, 64, 0
3, 28416, Note_on_c, 0, 62, 85
3, 28416, Note_on_c, 0, 52, 85
3, 28544, Note_on_c, 0, 52, 0
3, 28544, Note_on_c, 0, 62, 0
3, 28608, Note_on_c, 0, 61, 85
3, 28736, Note_on_c, 0, 61, 0
3, 28800, Note_on_c, 0, 58, 85
3, 28928, Note_on_c, 0, 58, 0
3, 28992, Note_on_c, 0, 57, 85
3, 29120, Note_on_c, 0, 57, 0
3, 29184, Note_on_c, 0, 62, 85
3, 29184, Note_on_c, 0, 52, 85
3, 29440, Note_on_c, 0, 52, 0
3, 29440, Note_on_c, 0, 62, 0
3, 29568, Note_on_c, 0, 59, 85
3, 29824, Note_on_c, 0, 59, 0
3, 29952, Note_on_c, 0, 60, 85
3, 29952, Note_on_c, 0, 52, 85
3, 30208, Note_on_c, 0, 52, 0
3, 30208, Note_on_c, 0, 60, 0
3, 30336, Note_on_c, 0, 57, 85
3, 30592, Note_on_c, 0, 57, 0
3, 30720, Note_on_c, 0, 52, 85
3, 30720, Note_on_c, 0, 59, 85
3, 30976, Note_on_c, 0, 59, 0
3, 30976, Note_on_c, 0, 52, 0
3, 31104, Note_on_c, 0, 56, 85
3, 31360, Note_on_c, 0, 56, 0
3, 31488, Note_on_c, 0, 53, 85
3, 31488, Note_on_c, 0, 57, 85
3, 31744, Note_on_c, 0, 57, 0
3, 31744, Note_on_c, 0, 53, 0
3, 32640, Note_on_c, 0, 53, 85
3, 32640, Note_on_c, 0, 57, 85
3, 32896, Note_on_c, 0, 57, 0
3, 32896, Note_on_c, 0, 53, 0
3, 33024, Note_on_c, 0, 47, 85
3, 33024, Note_on_c, 0, 54, 85
3, 33024, Note_on_c, 0, 57, 85
3, 33280, Note_on_c, 0, 57, 0
3, 33280, Note_on_c, 0, 54, 0
3, 33280, Note_on_c, 0, 47, 0
3, 34176, Note_on_c, 0, 54, 85
3, 34176, Note_on_c, 0, 47, 85
3, 34432, Note_on_c, 0, 47, 0
3, 34432, Note_on_c, 0, 54, 0
3, 34944, Note_on_c, 0, 52, 85
3, 34944, Note_on_c, 0, 56, 85
3, 35200, Note_on_c, 0, 56, 0
3, 35200, Note_on_c, 0, 52, 0
3, 35712, Note_on_c, 0, 65, 85
3, 35968, Note_on_c, 0, 65, 0
3, 36480, Note_on_c, 0, 52, 85
3, 36480, Note_on_c, 0, 56, 85
3, 36736, Note_on_c, 0, 56, 0
3, 36736, Note_on_c, 0, 52, 0
3, 37248, Note_on_c, 0, 65, 85
3, 37504, Note_on_c, 0, 65, 0
3, 38016, Note_on_c, 0, 64, 85
3, 38272, Note_on_c, 0, 64, 0
3, 38784, Note_on_c, 0, 62, 85
3, 39040, Note_on_c, 0, 62, 0
3, 39552, Note_on_c, 0, 60, 85
3, 39552, Note_on_c, 0, 66, 85
3, 39808, Note_on_c, 0, 66, 0
3, 39808, Note_on_c, 0, 60, 0
3, 40320, Note_on_c, 0, 52, 85
3, 40320, Note_on_c, 0, 59, 85
3, 40320, Note_on_c, 0, 64, 85
3, 40576, Note_on_c, 0, 64, 0
3, 40576, Note_on_c, 0, 59, 0
3, 40576, Note_on_c, 0, 52, 0
3, 40896, Note_on_c, 0, 57, 85
3, 40896, Note_on_c, 0, 60, 85
3, 40896, Note_on_c, 0, 64, 85
3, 41024, Note_on_c, 0, 64, 0
3, 41024, Note_on_c, 0, 60, 0
3, 41024, Note_on_c, 0, 57, 0
3, 41280, Note_on_c, 0, 57, 85
3, 41280, Note_on_c, 0, 60, 85
3, 41280, Note_on_c, 0, 65, 85
3, 41408, Note_on_c, 0, 65, 0
3, 41408, Note_on_c, 0, 60, 0
3, 41408, Note_on_c, 0, 57, 0
3, 41664, Note_on_c, 0, 57, 85
3, 41664, Note_on_c, 0, 60, 85
3, 41664, Note_on_c, 0, 64, 85
3, 41792, Note_on_c, 0, 64, 0
3, 41792, Note_on_c, 0, 60, 0
3, 41792, Note_on_c, 0, 57, 0
3, 42048, Note_on_c, 0, 57, 85
3, 42048, Note_on_c, 0, 60, 85
3, 42048, Note_on_c, 0, 64, 85
3, 42176, Note_on_c, 0, 64, 0
3, 42176, Note_on_c, 0, 60, 0
3, 42176, Note_on_c, 0, 57, 0
3, 42432, Note_on_c, 0, 57, 85
3, 42432, Note_on_c, 0, 62, 85
3, 42432, Note_on_c, 0, 65, 85
3, 42560, Note_on_c, 0, 65, 0
3, 42560, Note_on_c, 0, 62, 0
3, 42560, Note_on_c, 0, 57, 0
3, 42816, Note_on_c, 0, 57, 85
3, 42816, Note_on_c, 0, 62, 85
3, 42816, Note_on_c, 0, 65, 85
3, 42944, Note_on_c, 0, 65, 0
3, 42944, Note_on_c, 0, 62, 0
3, 42944, Note_on_c, 0, 57, 0
3, 43200, Note_on_c, 0, 57, 85
3, 43200, Note_on_c, 0, 63, 85
3, 43200, Note_on_c, 0, 66, 85
3, 43328, Note_on_c, 0, 66, 0
3, 43328, Note_on_c, 0, 63, 0
3, 43328, Note_on_c, 0, 57, 0
3, 43584, Note_on_c, 0, 57, 85
3, 43584, Note_on_c, 0, 63, 85
3, 43584, Note_on_c, 0, 66, 85
3, 43712, Note_on_c, 0, 66, 0
3, 43712, Note_on_c, 0, 63, 0
3, 43712, Note_on_c, 0, 57, 0
3, 43968, Note_on_c, 0, 57, 85
3, 43968, Note_on_c, 0, 62, 85
3, 43968, Note_on_c, 0, 65, 85
3, 44096, Note_on_c, 0, 65, 0
3, 44096, Note_on_c, 0, 62, 0
3, 44096, Note_on_c, 0, 57, 0
3, 44352, Note_on_c, 0, 57, 85
3, 44352, Note_on_c, 0, 62, 85
3, 44352, Note_on_c, 0, 65, 85
3, 44480, Note_on_c, 0, 65, 0
3, 44480, Note_on_c, 0, 62, 0
3, 44480, Note_on_c, 0, 57, 0
3, 44736, Note_on_c, 0, 57, 85
3, 44736, Note_on_c, 0, 60, 85
3, 44736, Note_on_c, 0, 64, 85
3, 44864, Note_on_c, 0, 64, 0
3, 44864, Note_on_c, 0, 60, 0
3, 44864, Note_on_c, 0, 57, 0
3, 45120, Note_on_c, 0, 53, 85
3, 45120, Note_on_c, 0, 57, 85
3, 45120, Note_on_c, 0, 60, 85
3, 45120, Note_on_c, 0, 63, 85
3, 45248, Note_on_c, 0, 63, 0
3, 45248, Note_on_c, 0, 53, 0
3, 45248, Note_on_c, 0, 57, 0
3, 45248, Note_on_c, 0, 60, 0
3, 45504, Note_on_c, 0, 52, 85
3, 45504, Note_on_c, 0, 57, 85
3, 45504, Note_on_c, 0, 60, 85
3, 45504, Note_on_c, 0, 64, 85
3, 45632, Note_on_c, 0, 64, 0
3, 45632, Note_on_c, 0, 52, 0
3, 45632, Note_on_c, 0, 57, 0
3, 45632, Note_on_c, 0, 60, 0
3, 45888, Note_on_c, 0, 50, 85
3, 45888, Note_on_c, 0, 53, 85
3, 45888, Note_on_c, 0, 57, 85
3, 46016, Note_on_c, 0, 57, 0
3, 46016, Note_on_c, 0, 53, 0
3, 46016, Note_on_c, 0, 50, 0
3, 46272, Note_on_c, 0, 52, 85
3, 46400, Note_on_c, 0, 52, 0
3, 46464, Note_on_c, 0, 60, 85
3, 46464, Note_on_c, 0, 64, 85
3, 46592, Note_on_c, 0, 64, 0
3, 46592, Note_on_c, 0, 60, 0
3, 46656, Note_on_c, 0, 59, 85
3, 46784, Note_on_c, 0, 59, 0
3, 47040, Note_on_c, 0, 57, 85
3, 47040, Note_on_c, 0, 60, 85
3, 47040, Note_on_c, 0, 64, 85
3, 47168, Note_on_c, 0, 64, 0
3, 47168, Note_on_c, 0, 60, 0
3, 47168, Note_on_c, 0, 57, 0
3, 47424, Note_on_c, 0, 57, 85
3, 47424, Note_on_c, 0, 60, 85
3, 47424, Note_on_c, 0, 65, 85
3, 47552, Note_on_c, 0, 65, 0
3, 47552, Note_on_c, 0, 60, 0
3, 47552, Note_on_c, 0, 57, 0
3, 47808, Note_on_c, 0, 57, 85
3, 47808, Note_on_c, 0, 60, 85
3, 47808, Note_on_c, 0, 64, 85
3, 47936, Note_on_c, 0, 64, 0
3, 47936, Note_on_c, 0, 60, 0
3, 47936, Note_on_c, 0, 57, 0
3, 48192, Note_on_c, 0, 57, 85
3, 48192, Note_on_c, 0, 60, 85
3, 48192, Note_on_c, 0, 64, 85
3, 48320, Note_on_c, 0, 64, 0
3, 48320, Note_on_c, 0, 60, 0
3, 48320, Note_on_c, 0, 57, 0
3, 48576, Note_on_c, 0, 57, 85
3, 48576, Note_on_c, 0, 62, 85
3, 48576, Note_on_c, 0, 65, 85
3, 48704, Note_on_c, 0, 65, 0
3, 48704, Note_on_c, 0, 62, 0
3, 48704, Note_on_c, 0, 57, 0
3, 48960, Note_on_c, 0, 57, 85
3, 48960, Note_on_c, 0, 62, 85
3, 48960, Note_on_c, 0, 65, 85
3, 49088, Note_on_c, 0, 65, 0
3, 49088, Note_on_c, 0, 62, 0
3, 49088, Note_on_c, 0, 57, 0
3, 49344, Note_on_c, 0, 57, 85
3, 49344, Note_on_c, 0, 63, 85
3, 49344, Note_on_c, 0, 66, 85
3, 49472, Note_on_c, 0, 66, 0
3, 49472, Note_on_c, 0, 63, 0
3, 49472, Note_on_c, 0, 57, 0
3, 49728, Note_on_c, 0, 57, 85
3, 49728, Note_on_c, 0, 63, 85
3, 49728, Note_on_c, 0, 66, 85
3, 49856, Note_on_c, 0, 66, 0
3, 49856, Note_on_c, 0, 63, 0
3, 49856, Note_on_c, 0, 57, 0
3, 50112, Note_on_c, 0, 57, 85
3, 50112, Note_on_c, 0, 62, 85
3, 50112, Note_on_c, 0, 65, 85
3, 50240, Note_on_c, 0, 65, 0
3, 50240, Note_on_c, 0, 62, 0
3, 50240, Note_on_c, 0, 57, 0
3, 50496, Note_on_c, 0, 57, 85
3, 50496, Note_on_c, 0, 62, 85
3, 50496, Note_on_c, 0, 65, 85
3, 50624, Note_on_c, 0, 65, 0
3, 50624, Note_on_c, 0, 62, 0
3, 50624, Note_on_c, 0, 57, 0
3, 50880, Note_on_c, 0, 57, 85
3, 50880, Note_on_c, 0, 60, 85
3, 50880, Note_on_c, 0, 63, 85
3, 50880, Note_on_c, 0, 66, 85
3, 51008, Note_on_c, 0, 66, 0
3, 51008, Note_on_c, 0, 57, 0
3, 51008, Note_on_c, 0, 60, 0
3, 51008, Note_on_c, 0, 63, 0
3, 51264, Note_on_c, 0, 57, 85
3, 51264, Note_on_c, 0, 60, 85
3, 51264, Note_on_c, 0, 63, 85
3, 51264, Note_on_c, 0, 66, 85
3, 51392, Note_on_c, 0, 66, 0
3, 51392, Note_on_c, 0, 57, 0
3, 51392, Note_on_c, 0, 60, 0
3, 51392, Note_on_c, 0, 63, 0
3, 51648, Note_on_c, 0, 55, 85
3, 51648, Note_on_c, 0, 60, 85
3, 51648, Note_on_c, 0, 64, 85
3, 51776, Note_on_c, 0, 64, 0
3, 51776, Note_on_c, 0, 60, 0
3, 51776, Note_on_c, 0, 55, 0
3, 52032, Note_on_c, 0, 55, 85
3, 52032, Note_on_c, 0, 59, 85
3, 52032, Note_on_c, 0, 62, 85
3, 52160, Note_on_c, 0, 62, 0
3, 52160, Note_on_c, 0, 59, 0
3, 52160, Note_on_c, 0, 55, 0
3, 52416, Note_on_c, 0, 48, 85
3, 52544, Note_on_c, 0, 48, 0
3, 52608, Note_on_c, 0, 55, 85
3, 52736, Note_on_c, 0, 55, 0
3, 52800, Note_on_c, 0, 60, 85
3, 52800, Note_on_c, 0, 64, 85
3, 52928, Note_on_c, 0, 64, 0
3, 52928, Note_on_c, 0, 60, 0
3, 53184, Note_on_c, 0, 48, 85
3, 53312, Note_on_c, 0, 48, 0
3, 53376, Note_on_c, 0, 55, 85
3, 53504, Note_on_c, 0, 55, 0
3, 53568, Note_on_c, 0, 60, 85
3, 53568, Note_on_c, 0, 64, 85
3, 53696, Note_on_c, 0, 64, 0
3, 53696, Note_on_c, 0, 60, 0
3, 53952, Note_on_c, 0, 48, 85
3, 54080, Note_on_c, 0, 48, 0
3, 54144, Note_on_c, 0, 56, 85
3, 54272, Note_on_c, 0, 56, 0
3, 54336, Note_on_c, 0, 59, 85
3, 54336, Note_on_c, 0, 65, 85
3, 54464, Note_on_c, 0, 65, 0
3, 54464, Note_on_c, 0, 59, 0
3, 54720, Note_on_c, 0, 48, 85
3, 54848, Note_on_c, 0, 48, 0
3, 54912, Note_on_c, 0, 55, 85
3, 55040, Note_on_c, 0, 55, 0
3, 55104, Note_on_c, 0, 60, 85
3, 55104, Note_on_c, 0, 64, 85
3, 55232, Note_on_c, 0, 64, 0
3, 55232, Note_on_c, 0, 60, 0
3, 55488, Note_on_c, 0, 48, 85
3, 55616, Note_on_c, 0, 48, 0
3, 55680, Note_on_c, 0, 56, 85
3, 55808, Note_on_c, 0, 56, 0
3, 55872, Note_on_c, 0, 59, 85
3, 55872, Note_on_c, 0, 65, 85
3, 56000, Note_on_c, 0, 65, 0
3, 56000, Note_on_c, 0, 59, 0
3, 56256, Note_on_c, 0, 48, 85
3, 56384, Note_on_c, 0, 48, 0
3, 56448, Note_on_c, 0, 55, 85
3, 56448, Note_on_c, 0, 64, 85
3, 56576, Note_on_c, 0, 64, 0
3, 56576, Note_on_c, 0, 55, 0
3, 56640, Note_on_c, 0, 49, 85
3, 56768, Note_on_c, 0, 49, 0
3, 57024, Note_on_c, 0, 50, 85
3, 57152, Note_on_c, 0, 50, 0
3, 57216, Note_on_c, 0, 53, 85
3, 57216, Note_on_c, 0, 57, 85
3, 57344, Note_on_c, 0, 57, 0
3, 57344, Note_on_c, 0, 53, 0
3, 57408, Note_on_c, 0, 62, 85
3, 57536, Note_on_c, 0, 62, 0
3, 57792, Note_on_c, 0, 50, 85
3, 57920, Note_on_c, 0, 50, 0
3, 57984, Note_on_c, 0, 54, 85
3, 57984, Note_on_c, 0, 57, 85
3, 58112, Note_on_c, 0, 57, 0
3, 58112, Note_on_c, 0, 54, 0
3, 58176, Note_on_c, 0, 62, 85
3, 58304, Note_on_c, 0, 62, 0
3, 58560, Note_on_c, 0, 55, 85
3, 58688, Note_on_c, 0, 55, 0
3, 58752, Note_on_c, 0, 59, 85
3, 58752, Note_on_c, 0, 62, 85
3, 58880, Note_on_c, 0, 62, 0
3, 58880, Note_on_c, 0, 59, 0
3, 58944, Note_on_c, 0, 55, 85
3, 59072, Note_on_c, 0, 55, 0
3, 59328, Note_on_c, 0, 48, 85
3, 59456, Note_on_c, 0, 48, 0
3, 59520, Note_on_c, 0, 55, 85
3, 59648, Note_on_c, 0, 55, 0
3, 59712, Note_on_c, 0, 60, 85
3, 59712, Note_on_c, 0, 64, 85
3, 59840, Note_on_c, 0, 64, 0
3, 59840, Note_on_c, 0, 60, 0
3, 60096, Note_on_c, 0, 48, 85
3, 60224, Note_on_c, 0, 48, 0
3, 60288, Note_on_c, 0, 56, 85
3, 60416, Note_on_c, 0, 56, 0
3, 60480, Note_on_c, 0, 59, 85
3, 60480, Note_on_c, 0, 65, 85
3, 60608, Note_on_c, 0, 65, 0
3, 60608, Note_on_c, 0, 59, 0
3, 60864, Note_on_c, 0, 48, 85
3, 60992, Note_on_c, 0, 48, 0
3, 61056, Note_on_c, 0, 55, 85
3, 61184, Note_on_c, 0, 55, 0
3, 61248, Note_on_c, 0, 60, 85
3, 61248, Note_on_c, 0, 64, 85
3, 61376, Note_on_c, 0, 64, 0
3, 61376, Note_on_c, 0, 60, 0
3, 61632, Note_on_c, 0, 48, 85
3, 61760, Note_on_c, 0, 48, 0
3, 61824, Note_on_c, 0, 56, 85
3, 61952, Note_on_c, 0, 56, 0
3, 62016, Note_on_c, 0, 59, 85
3, 62016, Note_on_c, 0, 65, 85
3, 62144, Note_on_c, 0, 65, 0
3, 62144, Note_on_c, 0, 59, 0
3, 62400, Note_on_c, 0, 48, 85
3, 62528, Note_on_c, 0, 48, 0
3, 62592, Note_on_c, 0, 55, 85
3, 62592, Note_on_c, 0, 64, 85
3, 62720, Note_on_c, 0, 64, 0
3, 62720, Note_on_c, 0, 55, 0
3, 62784, Note_on_c, 0, 49, 85
3, 62912, Note_on_c, 0, 49, 0
3, 63168, Note_on_c, 0, 50, 85
3, 63296, Note_on_c, 0, 50, 0
3, 63360, Note_on_c, 0, 53, 85
3, 63360, Note_on_c, 0, 57, 85
3, 63488, Note_on_c, 0, 57, 0
3, 63488, Note_on_c, 0, 53, 0
3, 63552, Note_on_c, 0, 62, 85
3, 63680, Note_on_c, 0, 62, 0
3, 63936, Note_on_c, 0, 50, 85
3, 64064, Note_on_c, 0, 50, 0
3, 64128, Note_on_c, 0, 57, 85
3, 64128, Note_on_c, 0, 65, 85
3, 64256, Note_on_c, 0, 65, 0
3, 64256, Note_on_c, 0, 57, 0
3, 64320, Note_on_c, 0, 51, 85
3, 64448, Note_on_c, 0, 51, 0
3, 64704, Note_on_c, 0, 52, 85
3, 64832, Note_on_c, 0, 52, 0
3, 64896, Note_on_c, 0, 56, 85
3, 64896, Note_on_c, 0, 59, 85
3, 65024, Note_on_c, 0, 59, 0
3, 65024, Note_on_c, 0, 56, 0
3, 65088, Note_on_c, 0, 64, 85
3, 65216, Note_on_c, 0, 64, 0
3, 65472, Note_on_c, 0, 57, 85
3, 65472, Note_on_c, 0, 60, 85
3, 65472, Note_on_c, 0, 64, 85
3, 65600, Note_on_c, 0, 64, 0
3, 65600, Note_on_c, 0, 60, 0
3, 65600, Note_on_c, 0, 57, 0
3, 65856, Note_on_c, 0, 59, 85
3, 65856, Note_on_c, 0, 62, 85
3, 65856, Note_on_c, 0, 64, 85
3, 65856, Note_on_c, 0, 68, 85
3, 65984, Note_on_c, 0, 68, 0
3, 65984, Note_on_c, 0, 59, 0
3, 65984, Note_on_c, 0, 62, 0
3, 65984, Note_on_c, 0, 64, 0
3, 66240, Note_on_c, 0, 60, 85
3, 66240, Note_on_c, 0, 64, 85
3, 66240, Note_on_c, 0, 69, 85
3, 66368, Note_on_c, 0, 69, 0
3, 66368, Note_on_c, 0, 64, 0
3, 66368, Note_on_c, 0, 60, 0
3, 66624, Note_on_c, 0, 61, 85
3, 66624, Note_on_c, 0, 64, 85
3, 66624, Note_on_c, 0, 69, 85
3, 66752, Note_on_c, 0, 69, 0
3, 66752, Note_on_c, 0, 64, 0
3, 66752, Note_on_c, 0, 61, 0
3, 67008, Note_on_c, 0, 62, 85
3, 67008, Note_on_c, 0, 65, 85
3, 67008, Note_on_c, 0, 69, 85
3, 67136, Note_on_c, 0, 69, 0
3, 67136, Note_on_c, 0, 65, 0
3, 67136, Note_on_c, 0, 62, 0
3, 67392, Note_on_c, 0, 59, 85
3, 67392, Note_on_c, 0, 62, 85
3, 67392, Note_on_c, 0, 67, 85
3, 67520, Note_on_c, 0, 67, 0
3, 67520, Note_on_c, 0, 62, 0
3, 67520, Note_on_c, 0, 59, 0
3, 67776, Note_on_c, 0, 60, 85
3, 67776, Note_on_c, 0, 64, 85
3, 67776, Note_on_c, 0, 67, 85
3, 67904, Note_on_c, 0, 67, 0
3, 67904, Note_on_c, 0, 64, 0
3, 67904, Note_on_c, 0, 60, 0
3, 68160, Note_on_c, 0, 58, 85
3, 68160, Note_on_c, 0, 60, 85
3, 68160, Note_on_c, 0, 67, 85
3, 68288, Note_on_c, 0, 67, 0
3, 68288, Note_on_c, 0, 60, 0
3, 68288, Note_on_c, 0, 58, 0
3, 68544, Note_on_c, 0, 57, 85
3, 68544, Note_on_c, 0, 60, 85
3, 68544, Note_on_c, 0, 65, 85
3, 68672, Note_on_c, 0, 65, 0
3, 68672, Note_on_c, 0, 60, 0
3, 68672, Note_on_c, 0, 57, 0
3, 68928, Note_on_c, 0, 57, 85
3, 68928, Note_on_c, 0, 60, 85
3, 68928, Note_on_c, 0, 66, 85
3, 69056, Note_on_c, 0, 66, 0
3, 69056, Note_on_c, 0, 60, 0
3, 69056, Note_on_c, 0, 57, 0
3, 69120, Note_on_c, 0, 59, 85
3, 69120, Note_on_c, 0, 66, 85
3, 69120, Note_on_c, 0, 63, 85
3, 69248, Note_on_c, 0, 63, 0
3, 69248, Note_on_c, 0, 66, 0
3, 69248, Note_on_c, 0, 59, 0
3, 69696, Note_on_c, 0, 56, 85
3, 69696, Note_on_c, 0, 59, 85
3, 69696, Note_on_c, 0, 64, 85
3, 69824, Note_on_c, 0, 64, 0
3, 69824, Note_on_c, 0, 59, 0
3, 69824, Note_on_c, 0, 56, 0
3, 70080, Note_on_c, 0, 57, 85
3, 70080, Note_on_c, 0, 60, 85
3, 70080, Note_on_c, 0, 64, 85
3, 70208, Note_on_c, 0, 64, 0
3, 70208, Note_on_c, 0, 60, 0
3, 70208, Note_on_c, 0, 57, 0
3, 70464, Note_on_c, 0, 54, 85
3, 70464, Note_on_c, 0, 57, 85
3, 70464, Note_on_c, 0, 62, 85
3, 70592, Note_on_c, 0, 62, 0
3, 70592, Note_on_c, 0, 57, 0
3, 70592, Note_on_c, 0, 54, 0
3, 70848, Note_on_c, 0, 53, 85
3, 70848, Note_on_c, 0, 57, 85
3, 70848, Note_on_c, 0, 62, 85
3, 71232, Note_on_c, 0, 62, 0
3, 71232, Note_on_c, 0, 57, 0
3, 71232, Note_on_c, 0, 53, 0
3, 71616, Note_on_c, 0, 52, 85
3, 71744, Note_on_c, 0, 52, 0
3, 71808, Note_on_c, 0, 57, 85
3, 71808, Note_on_c, 0, 60, 85
3, 71936, Note_on_c, 0, 60, 0
3, 71936, Note_on_c, 0, 57, 0
3, 72000, Note_on_c, 0, 64, 85
3, 72128, Note_on_c, 0, 64, 0
3, 72192, Note_on_c, 0, 64, 85
3, 72448, Note_on_c, 0, 64, 0
3, 72576, Note_on_c, 0, 57, 85
3, 72576, Note_on_c, 0, 53, 85
3, 72832, Note_on_c, 0, 53, 0
3, 72832, Note_on_c, 0, 57, 0
3, 73152, Note_on_c, 0, 52, 85
3, 73280, Note_on_c, 0, 52, 0
3, 73344, Note_on_c, 0, 57, 85
3, 73344, Note_on_c, 0, 60, 85
3, 73472, Note_on_c, 0, 60, 0
3, 73472, Note_on_c, 0, 57, 0
3, 73536, Note_on_c, 0, 64, 85
3, 73664, Note_on_c, 0, 64, 0
3, 73728, Note_on_c, 0, 64, 85
3, 73984, Note_on_c, 0, 64, 0
3, 74112, Note_on_c, 0, 57, 85
3, 74112, Note_on_c, 0, 53, 85
3, 74368, Note_on_c, 0, 53, 0
3, 74368, Note_on_c, 0, 57, 0
3, 74496, Note_on_c, 0, 52, 85
3, 74496, Note_on_c, 0, 48, 85
3, 74752, Note_on_c, 0, 48, 0
3, 74752, Note_on_c, 0, 52, 0
3, 74880, Note_on_c, 0, 54, 85
3, 75136, Note_on_c, 0, 54, 0
3, 75264, Note_on_c, 0, 55, 85
3, 75264, Note_on_c, 0, 47, 85
3, 75392, Note_on_c, 0, 47, 0
3, 75392, Note_on_c, 0, 55, 0
3, 75456, Note_on_c, 0, 55, 85
3, 75456, Note_on_c, 0, 62, 85
3, 75584, Note_on_c, 0, 62, 0
3, 75584, Note_on_c, 0, 55, 0
3, 75648, Note_on_c, 0, 57, 85
3, 75648, Note_on_c, 0, 60, 85
3, 75776, Note_on_c, 0, 60, 0
3, 75776, Note_on_c, 0, 57, 0
3, 75840, Note_on_c, 0, 53, 85
3, 75840, Note_on_c, 0, 62, 85
3, 75968, Note_on_c, 0, 62, 0
3, 75968, Note_on_c, 0, 53, 0
3, 76224, Note_on_c, 0, 52, 85
3, 76352, Note_on_c, 0, 52, 0
3, 76608, Note_on_c, 0, 52, 85
3, 76736, Note_on_c, 0, 52, 0
3, 76992, Note_on_c, 0, 45, 85
3, 77120, Note_on_c, 0, 45, 0
3, 77184, Note_on_c, 0, 52, 85
3, 77312, Note_on_c, 0, 52, 0
3, 77376, Note_on_c, 0, 57, 85
3, 77504, Note_on_c, 0, 57, 0
3, 77568, Note_on_c, 0, 53, 85
3, 77568, Note_on_c, 0, 57, 85
3, 77568, Note_on_c, 0, 64, 85
3, 77824, Note_on_c, 0, 64, 0
3, 77824, Note_on_c, 0, 57, 0
3, 77824, Note_on_c, 0, 53, 0
3, 77952, Note_on_c, 0, 63, 85
3, 78208, Note_on_c, 0, 63, 0
3, 78528, Note_on_c, 0, 45, 85
3, 78656, Note_on_c, 0, 45, 0
3, 78720, Note_on_c, 0, 52, 85
3, 78848, Note_on_c, 0, 52, 0
3, 78912, Note_on_c, 0, 57, 85
3, 79040, Note_on_c, 0, 57, 0
3, 79104, Note_on_c, 0, 53, 85
3, 79104, Note_on_c, 0, 57, 85
3, 79104, Note_on_c, 0, 64, 85
3, 79360, Note_on_c, 0, 64, 0
3, 79360, Note_on_c, 0, 57, 0
3, 79360, Note_on_c, 0, 53, 0
3, 79488, Note_on_c, 0, 63, 85
3, 79744, Note_on_c, 0, 63, 0
3, 80064, Note_on_c, 0, 48, 85
3, 80192, Note_on_c, 0, 48, 0
3, 80448, Note_on_c, 0, 48, 85
3, 80576, Note_on_c, 0, 48, 0
3, 80832, Note_on_c, 0, 44, 85
3, 80832, Note_on_c, 0, 50, 85
3, 80960, Note_on_c, 0, 50, 0
3, 80960, Note_on_c, 0, 44, 0
3, 81024, Note_on_c, 0, 45, 85
3, 81024, Note_on_c, 0, 48, 85
3, 81152, Note_on_c, 0, 48, 0
3, 81152, Note_on_c, 0, 45, 0
3, 81216, Note_on_c, 0, 41, 85
3, 81216, Note_on_c, 0, 50, 85
3, 81344, Note_on_c, 0, 50, 0
3, 81344, Note_on_c, 0, 41, 0
3, 81600, Note_on_c, 0, 40, 85
3, 81792, Note_on_c, 0, 52, 85
3, 81920, Note_on_c, 0, 52, 0
3, 81984, Note_on_c, 0, 40, 0
3, 81984, Note_on_c, 0, 50, 85
3, 82112, Note_on_c, 0, 50, 0
3, 82176, Note_on_c, 0, 45, 85
3, 82176, Note_on_c, 0, 48, 85
3, 82304, Note_on_c, 0, 48, 0
3, 82304, Note_on_c, 0, 45, 0
3, 84480, Note_on_c, 0, 57, 85
3, 84480, Note_on_c, 0, 64, 85
3, 84992, Note_on_c, 0, 64, 0
3, 84992, Note_on_c, 0, 57, 0
3, 84992, End_track
4, 0, Start_track
4, 0, Title_t, "Chant sans paroles di"
4, 0, End_track
5, 0, Start_track
5, 0, Title_t, "Piotr I.Tschaikowsky"
5, 0, End_track
0, 0, End_of_file
