0, 0, Header, 1, 5, 480
1, 0, Start_track
1, 0, Title_t, "tchaikovsky nutcracker act1 6 scene"
1, 0, Copyright_t, "Adaptation for Disklavier pianos, by: Robert C. Kuhmann (c) 2012."
1, 0, Text_t, "Seq. (c) by: Segundo G. Yogore,  2007\012"
1, 0, Time_signature, 4, 2, 24, 8
1, 0, Key_signature, 0, "major"
1, 0, Tempo, 454545
1, 7680, Tempo, 454545
1, 38400, Tempo, 454545
1, 61680, Tempo, 465116
1, 61920, Tempo, 476190
1, 62160, Tempo, 487805
1, 62400, Tempo, 504202
1, 62640, Tempo, 517241
1, 62880, Tempo, 530973
1, 63120, Tempo, 545455
1, 63360, Tempo, 566038
1, 67200, Tempo, 454545
1, 92160, Tempo, 535714
1, 134400, Tempo, 454545
1, 136320, Tempo, 454545
1, 151680, Tempo, 394737
1, 203520, Tempo, 652174
1, 286080, Key_signature, 3, "major"
1, 309120, Key_signature, 0, "major"
1, 309120, Tempo, 416667
1, 318720, Time_signature, 8, 2, 24, 8
1, 318720, End_track
2, 0, Start_track
2, 0, Title_t, "Grand Piano"
2, 0, Program_c, 0, 0
2, 0, Control_c, 0, 7, 115
2, 0, Control_c, 0, 10, 86
2, 0, Note_on_c, 0, 72, 62
2, 0, Note_on_c, 0, 76, 62
2, 0, Note_on_c, 0, 79, 62
2, 960, Note_on_c, 0, 79, 0
2, 960, Note_on_c, 0, 76, 0
2, 960, Note_on_c, 0, 72, 0
2, 960, Note_on_c, 0, 71, 62
2, 960, Note_on_c, 0, 77, 62
2, 960, Note_on_c, 0, 81, 62
2, 1920, Note_on_c, 0, 81, 0
2, 1920, Note_on_c, 0, 77, 0
2, 1920, Note_on_c, 0, 71, 0
2, 1920, Note_on_c, 0, 72, 62
2, 1920, Note_on_c, 0, 76, 62
2, 1920, Note_on_c, 0, 79, 62
2, 2880, Note_on_c, 0, 79, 0
2, 2880, Note_on_c, 0, 76, 0
2, 2880, Note_on_c, 0, 72, 0
2, 2880, Note_on_c, 0, 71, 62
2, 2880, Note_on_c, 0, 77, 62
2, 2880, Note_on_c, 0, 81, 62
2, 3840, Note_on_c, 0, 81, 0
2, 3840, Note_on_c, 0, 77, 0
2, 3840, Note_on_c, 0, 71, 0
2, 3840, Note_on_c, 0, 79, 62
2, 4320, Note_on_c, 0, 79, 0
2, 4320, Note_on_c, 0, 84, 62
2, 4560, Note_on_c, 0, 84, 0
2, 4560, Note_on_c, 0, 81, 62
2, 4800, Note_on_c, 0, 81, 0
2, 4800, Note_on_c, 0, 79, 62
2, 5280, Note_on_c, 0, 79, 0
2, 5280, Note_on_c, 0, 81, 62
2, 5520, Note_on_c, 0, 81, 0
2, 5520, Note_on_c, 0, 78, 62
2, 5760, Note_on_c, 0, 78, 0
2, 5760, Note_on_c, 0, 79, 62
2, 7440, Note_on_c, 0, 79, 0
2, 7440, Note_on_c, 0, 78, 62
2, 7520, Note_on_c, 0, 78, 0
2, 7520, Note_on_c, 0, 79, 62
2, 7599, Note_on_c, 0, 79, 0
2, 7599, Note_on_c, 0, 81, 62
2, 7680, Note_on_c, 0, 81, 0
2, 7680, Note_on_c, 0, 72, 62
2, 7680, Note_on_c, 0, 76, 62
2, 7680, Note_on_c, 0, 79, 62
2, 8640, Note_on_c, 0, 79, 0
2, 8640, Note_on_c, 0, 76, 0
2, 8640, Note_on_c, 0, 72, 0
2, 8640, Note_on_c, 0, 71, 62
2, 8640, Note_on_c, 0, 77, 62
2, 8640, Note_on_c, 0, 81, 62
2, 9600, Note_on_c, 0, 81, 0
2, 9600, Note_on_c, 0, 77, 0
2, 9600, Note_on_c, 0, 71, 0
2, 9600, Note_on_c, 0, 72, 62
2, 9600, Note_on_c, 0, 76, 62
2, 9600, Note_on_c, 0, 79, 62
2, 10560, Note_on_c, 0, 79, 0
2, 10560, Note_on_c, 0, 76, 0
2, 10560, Note_on_c, 0, 72, 0
2, 10560, Note_on_c, 0, 71, 62
2, 10560, Note_on_c, 0, 77, 62
2, 10560, Note_on_c, 0, 81, 62
2, 11520, Note_on_c, 0, 81, 0
2, 11520, Note_on_c, 0, 77, 0
2, 11520, Note_on_c, 0, 71, 0
2, 11520, Note_on_c, 0, 79, 62
2, 12000, Note_on_c, 0, 79, 0
2, 12000, Note_on_c, 0, 84, 62
2, 12240, Note_on_c, 0, 84, 0
2, 12240, Note_on_c, 0, 81, 62
2, 12480, Note_on_c, 0, 81, 0
2, 12480, Note_on_c, 0, 79, 62
2, 12960, Note_on_c, 0, 79, 0
2, 12960, Note_on_c, 0, 81, 62
2, 13200, Note_on_c, 0, 81, 0
2, 13200, Note_on_c, 0, 78, 62
2, 13440, Note_on_c, 0, 78, 0
2, 13440, Note_on_c, 0, 79, 62
2, 14640, Note_on_c, 0, 79, 0
2, 14640, Control_c, 0, 64, 127
2, 14640, Note_on_c, 0, 81, 62
2, 14760, Note_on_c, 0, 81, 0
2, 14760, Note_on_c, 0, 79, 62
2, 14880, Note_on_c, 0, 79, 0
2, 14880, Note_on_c, 0, 78, 75
2, 15120, Note_on_c, 0, 78, 0
2, 15120, Control_c, 0, 64, 0
2, 15120, Note_on_c, 0, 79, 75
2, 15360, Note_on_c, 0, 79, 0
2, 15360, Note_on_c, 0, 88, 101
2, 15840, Note_on_c, 0, 88, 0
2, 15840, Note_on_c, 0, 88, 101
2, 16320, Note_on_c, 0, 88, 0
2, 16320, Note_on_c, 0, 86, 75
2, 17280, Note_on_c, 0, 86, 0
2, 17280, Note_on_c, 0, 79, 75
2, 17280, Note_on_c, 0, 84, 75
2, 18000, Note_on_c, 0, 84, 0
2, 18000, Note_on_c, 0, 79, 0
2, 18000, Note_on_c, 0, 79, 75
2, 18240, Note_on_c, 0, 79, 0
2, 18720, Control_c, 0, 64, 127
2, 18720, Note_on_c, 0, 79, 75
2, 18816, Note_on_c, 0, 79, 0
2, 18816, Note_on_c, 0, 81, 75
2, 18912, Note_on_c, 0, 81, 0
2, 18912, Note_on_c, 0, 79, 75
2, 19007, Note_on_c, 0, 79, 0
2, 19007, Note_on_c, 0, 78, 75
2, 19103, Note_on_c, 0, 78, 0
2, 19103, Control_c, 0, 64, 0
2, 19103, Note_on_c, 0, 79, 75
2, 19200, Note_on_c, 0, 79, 0
2, 19200, Note_on_c, 0, 88, 101
2, 19680, Note_on_c, 0, 88, 0
2, 19680, Note_on_c, 0, 88, 101
2, 20160, Note_on_c, 0, 88, 0
2, 20160, Note_on_c, 0, 86, 75
2, 20880, Note_on_c, 0, 86, 0
2, 20880, Note_on_c, 0, 88, 75
2, 21000, Note_on_c, 0, 88, 0
2, 21000, Note_on_c, 0, 86, 75
2, 21120, Note_on_c, 0, 86, 0
2, 21120, Control_c, 0, 64, 127
2, 21120, Note_on_c, 0, 84, 75
2, 22320, Note_on_c, 0, 84, 0
2, 22320, Note_on_c, 0, 83, 75
2, 22560, Note_on_c, 0, 83, 0
2, 22560, Note_on_c, 0, 81, 75
2, 22800, Note_on_c, 0, 81, 0
2, 22800, Control_c, 0, 64, 0
2, 22800, Note_on_c, 0, 79, 75
2, 23040, Note_on_c, 0, 79, 0
2, 23040, Note_on_c, 0, 88, 101
2, 23520, Note_on_c, 0, 88, 0
2, 23520, Note_on_c, 0, 88, 101
2, 24000, Note_on_c, 0, 88, 0
2, 24000, Note_on_c, 0, 86, 75
2, 24720, Note_on_c, 0, 86, 0
2, 24720, Note_on_c, 0, 88, 75
2, 24840, Note_on_c, 0, 88, 0
2, 24840, Note_on_c, 0, 86, 75
2, 24960, Note_on_c, 0, 86, 0
2, 24960, Note_on_c, 0, 79, 75
2, 24960, Note_on_c, 0, 84, 75
2, 25680, Note_on_c, 0, 84, 0
2, 25680, Note_on_c, 0, 79, 0
2, 25680, Note_on_c, 0, 79, 75
2, 25920, Note_on_c, 0, 79, 0
2, 26400, Note_on_c, 0, 79, 75
2, 26880, Note_on_c, 0, 79, 0
2, 26880, Note_on_c, 0, 88, 101
2, 27200, Note_on_c, 0, 88, 0
2, 27200, Note_on_c, 0, 88, 101
2, 27519, Note_on_c, 0, 88, 0
2, 27519, Note_on_c, 0, 88, 101
2, 27840, Note_on_c, 0, 88, 0
2, 27840, Control_c, 0, 64, 127
2, 27840, Note_on_c, 0, 86, 75
2, 28440, Note_on_c, 0, 86, 0
2, 28440, Note_on_c, 0, 86, 75
2, 28560, Note_on_c, 0, 86, 0
2, 28560, Note_on_c, 0, 88, 75
2, 28680, Note_on_c, 0, 88, 0
2, 28680, Note_on_c, 0, 86, 75
2, 28800, Note_on_c, 0, 86, 0
2, 28800, Control_c, 0, 64, 0
2, 28800, Note_on_c, 0, 84, 75
2, 29040, Note_on_c, 0, 84, 0
2, 29040, Note_on_c, 0, 79, 75
2, 29280, Note_on_c, 0, 79, 0
2, 29280, Note_on_c, 0, 76, 75
2, 29520, Note_on_c, 0, 76, 0
2, 29520, Note_on_c, 0, 72, 75
2, 29760, Note_on_c, 0, 72, 0
2, 29760, Note_on_c, 0, 72, 75
2, 29760, Note_on_c, 0, 75, 75
2, 29760, Note_on_c, 0, 80, 75
2, 30000, Note_on_c, 0, 80, 0
2, 30000, Note_on_c, 0, 75, 0
2, 30000, Note_on_c, 0, 72, 0
2, 30000, Note_on_c, 0, 75, 75
2, 30240, Note_on_c, 0, 75, 0
2, 30240, Note_on_c, 0, 72, 62
2, 30480, Note_on_c, 0, 72, 0
2, 30480, Note_on_c, 0, 68, 62
2, 30720, Note_on_c, 0, 68, 0
2, 30720, Note_on_c, 0, 60, 62
2, 30720, Note_on_c, 0, 64, 62
2, 30720, Note_on_c, 0, 67, 62
2, 31680, Note_on_c, 0, 67, 0
2, 31680, Note_on_c, 0, 64, 0
2, 31680, Note_on_c, 0, 60, 0
2, 31680, Note_on_c, 0, 59, 62
2, 31680, Note_on_c, 0, 65, 62
2, 31680, Note_on_c, 0, 69, 62
2, 32640, Note_on_c, 0, 69, 0
2, 32640, Note_on_c, 0, 65, 0
2, 32640, Note_on_c, 0, 59, 0
2, 32640, Note_on_c, 0, 60, 62
2, 32640, Note_on_c, 0, 64, 62
2, 32640, Note_on_c, 0, 67, 62
2, 33600, Note_on_c, 0, 67, 0
2, 33600, Note_on_c, 0, 64, 0
2, 33600, Note_on_c, 0, 60, 0
2, 33600, Note_on_c, 0, 59, 62
2, 33600, Note_on_c, 0, 65, 62
2, 33600, Note_on_c, 0, 69, 62
2, 34560, Note_on_c, 0, 69, 0
2, 34560, Note_on_c, 0, 65, 0
2, 34560, Note_on_c, 0, 59, 0
2, 34560, Note_on_c, 0, 67, 62
2, 35040, Note_on_c, 0, 67, 0
2, 35040, Note_on_c, 0, 72, 62
2, 35280, Note_on_c, 0, 72, 0
2, 35280, Note_on_c, 0, 69, 62
2, 35520, Note_on_c, 0, 69, 0
2, 35520, Note_on_c, 0, 67, 62
2, 36000, Note_on_c, 0, 67, 0
2, 36000, Note_on_c, 0, 69, 62
2, 36240, Note_on_c, 0, 69, 0
2, 36240, Note_on_c, 0, 66, 62
2, 36480, Note_on_c, 0, 66, 0
2, 36480, Note_on_c, 0, 67, 62
2, 38160, Note_on_c, 0, 67, 0
2, 38160, Note_on_c, 0, 66, 62
2, 38240, Note_on_c, 0, 66, 0
2, 38240, Note_on_c, 0, 67, 62
2, 38319, Note_on_c, 0, 67, 0
2, 38319, Note_on_c, 0, 69, 62
2, 38400, Note_on_c, 0, 69, 0
2, 38400, Note_on_c, 0, 60, 62
2, 38400, Note_on_c, 0, 64, 62
2, 38400, Note_on_c, 0, 67, 62
2, 39360, Note_on_c, 0, 67, 0
2, 39360, Note_on_c, 0, 64, 0
2, 39360, Note_on_c, 0, 60, 0
2, 39360, Note_on_c, 0, 59, 62
2, 39360, Note_on_c, 0, 65, 62
2, 39360, Note_on_c, 0, 69, 62
2, 40320, Note_on_c, 0, 69, 0
2, 40320, Note_on_c, 0, 65, 0
2, 40320, Note_on_c, 0, 59, 0
2, 40320, Note_on_c, 0, 60, 62
2, 40320, Note_on_c, 0, 64, 62
2, 40320, Note_on_c, 0, 67, 62
2, 41280, Note_on_c, 0, 67, 0
2, 41280, Note_on_c, 0, 64, 0
2, 41280, Note_on_c, 0, 60, 0
2, 41280, Note_on_c, 0, 59, 62
2, 41280, Note_on_c, 0, 65, 62
2, 41280, Note_on_c, 0, 69, 62
2, 42240, Note_on_c, 0, 69, 0
2, 42240, Note_on_c, 0, 65, 0
2, 42240, Note_on_c, 0, 59, 0
2, 42240, Note_on_c, 0, 67, 62
2, 42720, Note_on_c, 0, 67, 0
2, 42720, Note_on_c, 0, 72, 62
2, 42960, Note_on_c, 0, 72, 0
2, 42960, Note_on_c, 0, 69, 62
2, 43200, Note_on_c, 0, 69, 0
2, 43200, Note_on_c, 0, 67, 62
2, 43680, Note_on_c, 0, 67, 0
2, 43680, Note_on_c, 0, 69, 62
2, 43920, Note_on_c, 0, 69, 0
2, 43920, Note_on_c, 0, 66, 62
2, 44160, Note_on_c, 0, 66, 0
2, 44160, Note_on_c, 0, 67, 62
2, 45360, Note_on_c, 0, 67, 0
2, 45360, Control_c, 0, 64, 127
2, 45360, Note_on_c, 0, 69, 62
2, 45480, Note_on_c, 0, 69, 0
2, 45480, Note_on_c, 0, 67, 62
2, 45600, Note_on_c, 0, 67, 0
2, 45600, Note_on_c, 0, 66, 75
2, 45840, Note_on_c, 0, 66, 0
2, 45840, Control_c, 0, 64, 0
2, 45840, Note_on_c, 0, 67, 75
2, 46080, Note_on_c, 0, 67, 0
2, 46080, Note_on_c, 0, 76, 101
2, 46560, Note_on_c, 0, 76, 0
2, 46560, Note_on_c, 0, 76, 101
2, 47040, Note_on_c, 0, 76, 0
2, 47040, Note_on_c, 0, 74, 75
2, 48000, Note_on_c, 0, 74, 0
2, 48000, Note_on_c, 0, 67, 75
2, 48000, Note_on_c, 0, 72, 75
2, 48720, Note_on_c, 0, 72, 0
2, 48720, Note_on_c, 0, 67, 0
2, 48720, Note_on_c, 0, 67, 75
2, 48960, Note_on_c, 0, 67, 0
2, 49200, Control_c, 0, 64, 127
2, 49200, Note_on_c, 0, 67, 75
2, 49440, Note_on_c, 0, 67, 0
2, 49440, Note_on_c, 0, 69, 75
2, 49560, Note_on_c, 0, 69, 0
2, 49560, Note_on_c, 0, 67, 75
2, 49680, Note_on_c, 0, 67, 0
2, 49680, Note_on_c, 0, 66, 75
2, 49800, Note_on_c, 0, 66, 0
2, 49800, Control_c, 0, 64, 0
2, 49800, Note_on_c, 0, 67, 75
2, 49920, Note_on_c, 0, 67, 0
2, 49920, Note_on_c, 0, 76, 101
2, 50400, Note_on_c, 0, 76, 0
2, 50400, Note_on_c, 0, 76, 101
2, 50880, Note_on_c, 0, 76, 0
2, 50880, Note_on_c, 0, 74, 75
2, 51600, Note_on_c, 0, 74, 0
2, 51600, Note_on_c, 0, 76, 75
2, 51720, Note_on_c, 0, 76, 0
2, 51720, Note_on_c, 0, 74, 75
2, 51840, Note_on_c, 0, 74, 0
2, 51840, Note_on_c, 0, 72, 75
2, 52920, Note_on_c, 0, 72, 0
2, 52920, Note_on_c, 0, 74, 75
2, 52980, Note_on_c, 0, 74, 0
2, 52980, Note_on_c, 0, 72, 75
2, 53040, Note_on_c, 0, 72, 0
2, 53040, Note_on_c, 0, 71, 75
2, 53280, Note_on_c, 0, 71, 0
2, 53280, Note_on_c, 0, 72, 75
2, 53520, Note_on_c, 0, 72, 0
2, 53520, Note_on_c, 0, 74, 75
2, 53760, Note_on_c, 0, 74, 0
2, 53760, Note_on_c, 0, 76, 101
2, 54240, Note_on_c, 0, 76, 0
2, 54240, Note_on_c, 0, 76, 101
2, 54720, Note_on_c, 0, 76, 0
2, 54720, Note_on_c, 0, 74, 75
2, 55440, Note_on_c, 0, 74, 0
2, 55440, Note_on_c, 0, 76, 75
2, 55560, Note_on_c, 0, 76, 0
2, 55560, Note_on_c, 0, 74, 75
2, 55680, Note_on_c, 0, 74, 0
2, 55680, Note_on_c, 0, 72, 62
2, 56640, Note_on_c, 0, 67, 62
2, 56880, Note_on_c, 0, 67, 0
2, 56880, Note_on_c, 0, 72, 0
2, 56880, Control_c, 0, 64, 127
2, 56880, Note_on_c, 0, 67, 62
2, 57120, Note_on_c, 0, 67, 0
2, 57120, Note_on_c, 0, 69, 62
2, 57240, Note_on_c, 0, 69, 0
2, 57240, Note_on_c, 0, 67, 62
2, 57360, Note_on_c, 0, 67, 0
2, 57360, Note_on_c, 0, 66, 62
2, 57480, Note_on_c, 0, 66, 0
2, 57480, Control_c, 0, 64, 0
2, 57480, Note_on_c, 0, 67, 62
2, 57600, Note_on_c, 0, 67, 0
2, 57600, Note_on_c, 0, 76, 88
2, 57840, Note_on_c, 0, 76, 0
2, 57840, Note_on_c, 0, 76, 88
2, 58080, Note_on_c, 0, 76, 0
2, 58080, Note_on_c, 0, 76, 62
2, 58320, Note_on_c, 0, 76, 0
2, 58320, Note_on_c, 0, 79, 62
2, 58560, Note_on_c, 0, 79, 0
2, 58560, Note_on_c, 0, 74, 88
2, 58800, Note_on_c, 0, 74, 0
2, 58800, Note_on_c, 0, 74, 88
2, 59040, Note_on_c, 0, 74, 0
2, 59040, Note_on_c, 0, 74, 62
2, 59280, Note_on_c, 0, 74, 0
2, 59280, Note_on_c, 0, 79, 62
2, 59520, Note_on_c, 0, 79, 0
2, 59520, Note_on_c, 0, 64, 62
2, 59520, Note_on_c, 0, 67, 62
2, 59520, Note_on_c, 0, 72, 62
2, 60480, Note_on_c, 0, 72, 0
2, 60480, Note_on_c, 0, 67, 0
2, 60480, Note_on_c, 0, 64, 0
2, 60720, Control_c, 0, 64, 127
2, 60720, Note_on_c, 0, 62, 62
2, 60800, Note_on_c, 0, 62, 0
2, 60800, Note_on_c, 0, 60, 62
2, 60879, Note_on_c, 0, 60, 0
2, 60879, Note_on_c, 0, 59, 62
2, 60960, Note_on_c, 0, 59, 0
2, 60960, Note_on_c, 0, 60, 62
2, 61200, Note_on_c, 0, 60, 0
2, 61200, Control_c, 0, 64, 0
2, 61200, Note_on_c, 0, 62, 62
2, 61440, Note_on_c, 0, 62, 0
2, 61440, Note_on_c, 0, 64, 88
2, 61920, Note_on_c, 0, 64, 0
2, 61920, Note_on_c, 0, 64, 88
2, 62400, Note_on_c, 0, 64, 0
2, 62400, Note_on_c, 0, 62, 62
2, 63120, Note_on_c, 0, 62, 0
2, 63120, Note_on_c, 0, 64, 62
2, 63240, Note_on_c, 0, 64, 0
2, 63240, Note_on_c, 0, 62, 62
2, 63360, Note_on_c, 0, 62, 0
2, 63360, Note_on_c, 0, 60, 49
2, 64560, Note_on_c, 0, 60, 0
2, 64560, Note_on_c, 0, 55, 49
2, 64800, Note_on_c, 0, 55, 0
2, 64800, Note_on_c, 0, 57, 49
2, 64920, Note_on_c, 0, 57, 0
2, 64920, Note_on_c, 0, 55, 49
2, 65040, Note_on_c, 0, 55, 0
2, 65040, Note_on_c, 0, 54, 62
2, 65160, Note_on_c, 0, 54, 0
2, 65160, Note_on_c, 0, 55, 62
2, 65280, Note_on_c, 0, 55, 0
2, 65280, Note_on_c, 0, 64, 88
2, 65520, Note_on_c, 0, 64, 0
2, 65520, Note_on_c, 0, 64, 88
2, 65760, Note_on_c, 0, 64, 0
2, 65760, Note_on_c, 0, 64, 62
2, 66720, Note_on_c, 0, 64, 0
2, 66720, Note_on_c, 0, 62, 62
2, 67200, Note_on_c, 0, 62, 0
2, 67200, Note_on_c, 0, 60, 62
2, 68160, Note_on_c, 0, 60, 0
2, 69120, Control_c, 0, 64, 127
2, 69120, Note_on_c, 0, 57, 49
2, 69279, Note_on_c, 0, 57, 0
2, 69279, Note_on_c, 0, 55, 49
2, 69440, Note_on_c, 0, 55, 0
2, 69440, Note_on_c, 0, 57, 49
2, 69600, Note_on_c, 0, 57, 0
2, 69600, Note_on_c, 0, 55, 49
2, 69759, Note_on_c, 0, 55, 0
2, 69759, Note_on_c, 0, 57, 49
2, 69920, Note_on_c, 0, 57, 0
2, 69920, Note_on_c, 0, 55, 49
2, 70080, Note_on_c, 0, 55, 0
2, 70080, Note_on_c, 0, 57, 49
2, 70239, Note_on_c, 0, 57, 0
2, 70239, Note_on_c, 0, 55, 49
2, 70400, Note_on_c, 0, 55, 0
2, 70400, Note_on_c, 0, 57, 49
2, 70560, Note_on_c, 0, 57, 0
2, 70560, Note_on_c, 0, 55, 49
2, 70719, Note_on_c, 0, 55, 0
2, 70719, Note_on_c, 0, 57, 49
2, 70880, Note_on_c, 0, 57, 0
2, 70880, Control_c, 0, 64, 0
2, 70880, Note_on_c, 0, 55, 49
2, 71040, Note_on_c, 0, 55, 0
2, 71040, Control_c, 0, 64, 127
2, 71040, Note_on_c, 0, 57, 49
2, 71199, Note_on_c, 0, 57, 0
2, 71199, Note_on_c, 0, 55, 49
2, 71360, Note_on_c, 0, 55, 0
2, 71360, Note_on_c, 0, 57, 49
2, 71520, Note_on_c, 0, 57, 0
2, 71520, Note_on_c, 0, 55, 49
2, 71679, Note_on_c, 0, 55, 0
2, 71679, Note_on_c, 0, 57, 49
2, 71840, Note_on_c, 0, 57, 0
2, 71840, Note_on_c, 0, 55, 49
2, 72000, Note_on_c, 0, 55, 0
2, 72000, Note_on_c, 0, 57, 49
2, 72159, Note_on_c, 0, 57, 0
2, 72159, Note_on_c, 0, 55, 49
2, 72320, Note_on_c, 0, 55, 0
2, 72320, Note_on_c, 0, 57, 49
2, 72480, Note_on_c, 0, 57, 0
2, 72480, Control_c, 0, 64, 0
2, 72480, Note_on_c, 0, 55, 49
2, 72720, Note_on_c, 0, 55, 0
2, 72960, Control_c, 0, 64, 127
2, 72960, Note_on_c, 0, 57, 49
2, 73119, Note_on_c, 0, 57, 0
2, 73119, Note_on_c, 0, 55, 49
2, 73280, Note_on_c, 0, 55, 0
2, 73280, Note_on_c, 0, 57, 49
2, 73440, Note_on_c, 0, 57, 0
2, 73440, Note_on_c, 0, 55, 49
2, 73599, Note_on_c, 0, 55, 0
2, 73599, Note_on_c, 0, 57, 49
2, 73760, Note_on_c, 0, 57, 0
2, 73760, Note_on_c, 0, 55, 49
2, 73920, Note_on_c, 0, 55, 0
2, 73920, Note_on_c, 0, 57, 49
2, 74079, Note_on_c, 0, 57, 0
2, 74079, Note_on_c, 0, 55, 49
2, 74240, Note_on_c, 0, 55, 0
2, 74240, Note_on_c, 0, 57, 49
2, 74400, Note_on_c, 0, 57, 0
2, 74400, Note_on_c, 0, 55, 49
2, 74559, Note_on_c, 0, 55, 0
2, 74559, Note_on_c, 0, 57, 49
2, 74720, Note_on_c, 0, 57, 0
2, 74720, Control_c, 0, 64, 0
2, 74720, Note_on_c, 0, 55, 49
2, 74880, Note_on_c, 0, 55, 0
2, 74880, Control_c, 0, 64, 127
2, 74880, Note_on_c, 0, 57, 49
2, 75039, Note_on_c, 0, 57, 0
2, 75039, Note_on_c, 0, 55, 49
2, 75200, Note_on_c, 0, 55, 0
2, 75200, Note_on_c, 0, 57, 49
2, 75360, Note_on_c, 0, 57, 0
2, 75360, Note_on_c, 0, 55, 49
2, 75519, Note_on_c, 0, 55, 0
2, 75519, Note_on_c, 0, 57, 49
2, 75680, Note_on_c, 0, 57, 0
2, 75680, Note_on_c, 0, 55, 49
2, 75840, Note_on_c, 0, 55, 0
2, 75840, Note_on_c, 0, 57, 49
2, 75999, Note_on_c, 0, 57, 0
2, 75999, Note_on_c, 0, 55, 49
2, 76160, Note_on_c, 0, 55, 0
2, 76160, Note_on_c, 0, 57, 49
2, 76320, Note_on_c, 0, 57, 0
2, 76320, Note_on_c, 0, 55, 49
2, 76479, Note_on_c, 0, 55, 0
2, 76479, Note_on_c, 0, 57, 49
2, 76640, Note_on_c, 0, 57, 0
2, 76640, Control_c, 0, 64, 0
2, 76640, Note_on_c, 0, 55, 49
2, 76800, Note_on_c, 0, 55, 0
2, 76800, Control_c, 0, 64, 127
2, 76800, Note_on_c, 0, 57, 49
2, 76959, Note_on_c, 0, 57, 0
2, 76959, Note_on_c, 0, 55, 49
2, 77120, Note_on_c, 0, 55, 0
2, 77120, Note_on_c, 0, 57, 49
2, 77280, Note_on_c, 0, 57, 0
2, 77280, Note_on_c, 0, 55, 49
2, 77439, Note_on_c, 0, 55, 0
2, 77439, Note_on_c, 0, 57, 49
2, 77600, Note_on_c, 0, 57, 0
2, 77600, Note_on_c, 0, 55, 49
2, 77760, Note_on_c, 0, 55, 0
2, 77760, Note_on_c, 0, 57, 49
2, 77919, Note_on_c, 0, 57, 0
2, 77919, Note_on_c, 0, 55, 49
2, 78080, Note_on_c, 0, 55, 0
2, 78080, Note_on_c, 0, 57, 49
2, 78240, Note_on_c, 0, 57, 0
2, 78240, Note_on_c, 0, 55, 49
2, 78399, Note_on_c, 0, 55, 0
2, 78399, Note_on_c, 0, 57, 49
2, 78560, Note_on_c, 0, 57, 0
2, 78560, Control_c, 0, 64, 0
2, 78560, Note_on_c, 0, 55, 49
2, 78720, Note_on_c, 0, 55, 0
2, 78720, Control_c, 0, 64, 127
2, 78720, Note_on_c, 0, 57, 49
2, 78879, Note_on_c, 0, 57, 0
2, 78879, Note_on_c, 0, 55, 49
2, 79040, Note_on_c, 0, 55, 0
2, 79040, Note_on_c, 0, 57, 49
2, 79200, Note_on_c, 0, 57, 0
2, 79200, Note_on_c, 0, 55, 49
2, 79359, Note_on_c, 0, 55, 0
2, 79359, Note_on_c, 0, 57, 49
2, 79520, Note_on_c, 0, 57, 0
2, 79520, Note_on_c, 0, 55, 49
2, 79680, Note_on_c, 0, 55, 0
2, 79680, Note_on_c, 0, 57, 49
2, 79839, Note_on_c, 0, 57, 0
2, 79839, Note_on_c, 0, 55, 49
2, 80000, Note_on_c, 0, 55, 0
2, 80000, Note_on_c, 0, 57, 49
2, 80160, Note_on_c, 0, 57, 0
2, 80160, Note_on_c, 0, 55, 49
2, 80319, Note_on_c, 0, 55, 0
2, 80319, Note_on_c, 0, 57, 49
2, 80480, Note_on_c, 0, 57, 0
2, 80480, Control_c, 0, 64, 0
2, 80480, Note_on_c, 0, 55, 49
2, 80640, Note_on_c, 0, 55, 0
2, 80640, Control_c, 0, 64, 127
2, 80640, Note_on_c, 0, 57, 49
2, 80799, Note_on_c, 0, 57, 0
2, 80799, Note_on_c, 0, 55, 49
2, 80960, Note_on_c, 0, 55, 0
2, 80960, Note_on_c, 0, 57, 49
2, 81120, Note_on_c, 0, 57, 0
2, 81120, Note_on_c, 0, 55, 49
2, 81279, Note_on_c, 0, 55, 0
2, 81279, Note_on_c, 0, 57, 49
2, 81440, Note_on_c, 0, 57, 0
2, 81440, Note_on_c, 0, 55, 49
2, 81600, Note_on_c, 0, 55, 0
2, 81600, Note_on_c, 0, 57, 49
2, 81759, Note_on_c, 0, 57, 0
2, 81759, Note_on_c, 0, 55, 49
2, 81920, Note_on_c, 0, 55, 0
2, 81920, Note_on_c, 0, 57, 49
2, 82080, Note_on_c, 0, 57, 0
2, 82080, Note_on_c, 0, 55, 49
2, 82239, Note_on_c, 0, 55, 0
2, 82239, Note_on_c, 0, 57, 49
2, 82400, Note_on_c, 0, 57, 0
2, 82400, Control_c, 0, 64, 0
2, 82400, Note_on_c, 0, 55, 49
2, 82560, Note_on_c, 0, 55, 0
2, 82560, Control_c, 0, 64, 127
2, 82560, Note_on_c, 0, 57, 49
2, 82719, Note_on_c, 0, 57, 0
2, 82719, Note_on_c, 0, 55, 49
2, 82880, Note_on_c, 0, 55, 0
2, 82880, Note_on_c, 0, 57, 49
2, 83040, Note_on_c, 0, 57, 0
2, 83040, Note_on_c, 0, 55, 49
2, 83199, Note_on_c, 0, 55, 0
2, 83199, Note_on_c, 0, 57, 49
2, 83360, Note_on_c, 0, 57, 0
2, 83360, Note_on_c, 0, 55, 49
2, 83520, Note_on_c, 0, 55, 0
2, 83520, Note_on_c, 0, 57, 49
2, 83679, Note_on_c, 0, 57, 0
2, 83679, Note_on_c, 0, 55, 49
2, 83840, Note_on_c, 0, 55, 0
2, 83840, Note_on_c, 0, 57, 49
2, 84000, Note_on_c, 0, 57, 0
2, 84000, Note_on_c, 0, 55, 49
2, 84159, Note_on_c, 0, 55, 0
2, 84159, Note_on_c, 0, 57, 49
2, 84320, Note_on_c, 0, 57, 0
2, 84320, Control_c, 0, 64, 0
2, 84320, Note_on_c, 0, 55, 49
2, 84480, Note_on_c, 0, 55, 0
2, 84480, Control_c, 0, 64, 127
2, 84480, Note_on_c, 0, 57, 49
2, 84639, Note_on_c, 0, 57, 0
2, 84639, Note_on_c, 0, 55, 49
2, 84800, Note_on_c, 0, 55, 0
2, 84800, Note_on_c, 0, 57, 49
2, 84960, Note_on_c, 0, 57, 0
2, 84960, Note_on_c, 0, 55, 49
2, 85119, Note_on_c, 0, 55, 0
2, 85119, Note_on_c, 0, 57, 49
2, 85280, Note_on_c, 0, 57, 0
2, 85280, Note_on_c, 0, 55, 49
2, 85440, Note_on_c, 0, 55, 0
2, 85440, Note_on_c, 0, 57, 49
2, 85599, Note_on_c, 0, 57, 0
2, 85599, Note_on_c, 0, 55, 49
2, 85760, Note_on_c, 0, 55, 0
2, 85760, Note_on_c, 0, 57, 49
2, 85920, Note_on_c, 0, 57, 0
2, 85920, Note_on_c, 0, 55, 49
2, 86079, Note_on_c, 0, 55, 0
2, 86079, Note_on_c, 0, 57, 49
2, 86240, Note_on_c, 0, 57, 0
2, 86240, Control_c, 0, 64, 0
2, 86240, Note_on_c, 0, 55, 49
2, 86400, Note_on_c, 0, 55, 0
2, 86400, Control_c, 0, 64, 127
2, 86400, Note_on_c, 0, 57, 49
2, 86559, Note_on_c, 0, 57, 0
2, 86559, Note_on_c, 0, 55, 49
2, 86720, Note_on_c, 0, 55, 0
2, 86720, Note_on_c, 0, 57, 49
2, 86880, Note_on_c, 0, 57, 0
2, 86880, Note_on_c, 0, 55, 49
2, 87039, Note_on_c, 0, 55, 0
2, 87039, Note_on_c, 0, 57, 49
2, 87200, Note_on_c, 0, 57, 0
2, 87200, Note_on_c, 0, 55, 49
2, 87360, Note_on_c, 0, 55, 0
2, 87360, Note_on_c, 0, 57, 49
2, 87519, Note_on_c, 0, 57, 0
2, 87519, Note_on_c, 0, 55, 49
2, 87680, Note_on_c, 0, 55, 0
2, 87680, Note_on_c, 0, 57, 49
2, 87840, Note_on_c, 0, 57, 0
2, 87840, Note_on_c, 0, 55, 49
2, 87999, Note_on_c, 0, 55, 0
2, 87999, Note_on_c, 0, 57, 49
2, 88160, Note_on_c, 0, 57, 0
2, 88160, Control_c, 0, 64, 0
2, 88160, Note_on_c, 0, 55, 49
2, 88320, Note_on_c, 0, 55, 0
2, 88320, Control_c, 0, 64, 127
2, 88320, Note_on_c, 0, 57, 49
2, 88479, Note_on_c, 0, 57, 0
2, 88479, Note_on_c, 0, 55, 49
2, 88640, Note_on_c, 0, 55, 0
2, 88640, Note_on_c, 0, 57, 49
2, 88800, Note_on_c, 0, 57, 0
2, 88800, Note_on_c, 0, 55, 49
2, 88959, Note_on_c, 0, 55, 0
2, 88959, Note_on_c, 0, 57, 49
2, 89120, Note_on_c, 0, 57, 0
2, 89120, Note_on_c, 0, 55, 49
2, 89280, Note_on_c, 0, 55, 0
2, 89280, Note_on_c, 0, 57, 49
2, 89439, Note_on_c, 0, 57, 0
2, 89439, Note_on_c, 0, 55, 49
2, 89600, Note_on_c, 0, 55, 0
2, 89600, Note_on_c, 0, 57, 49
2, 89760, Note_on_c, 0, 57, 0
2, 89760, Note_on_c, 0, 55, 49
2, 89919, Note_on_c, 0, 55, 0
2, 89919, Note_on_c, 0, 57, 49
2, 90080, Note_on_c, 0, 57, 0
2, 90080, Control_c, 0, 64, 0
2, 90080, Note_on_c, 0, 55, 49
2, 90240, Note_on_c, 0, 55, 0
2, 90240, Control_c, 0, 64, 127
2, 90240, Note_on_c, 0, 57, 49
2, 90399, Note_on_c, 0, 57, 0
2, 90399, Note_on_c, 0, 55, 49
2, 90560, Note_on_c, 0, 55, 0
2, 90560, Note_on_c, 0, 57, 49
2, 90720, Note_on_c, 0, 57, 0
2, 90720, Note_on_c, 0, 55, 49
2, 90879, Note_on_c, 0, 55, 0
2, 90879, Note_on_c, 0, 57, 49
2, 91040, Note_on_c, 0, 57, 0
2, 91040, Note_on_c, 0, 55, 49
2, 91200, Note_on_c, 0, 55, 0
2, 91200, Note_on_c, 0, 57, 49
2, 91359, Note_on_c, 0, 57, 0
2, 91359, Note_on_c, 0, 55, 49
2, 91520, Note_on_c, 0, 55, 0
2, 91520, Note_on_c, 0, 57, 49
2, 91680, Note_on_c, 0, 57, 0
2, 91680, Note_on_c, 0, 55, 49
2, 91839, Note_on_c, 0, 55, 0
2, 91839, Note_on_c, 0, 57, 49
2, 92000, Note_on_c, 0, 57, 0
2, 92000, Control_c, 0, 64, 0
2, 92000, Note_on_c, 0, 55, 49
2, 92160, Note_on_c, 0, 55, 0
2, 92160, Control_c, 0, 64, 127
2, 92160, Note_on_c, 0, 58, 49
2, 92240, Note_on_c, 0, 58, 0
2, 92240, Note_on_c, 0, 56, 49
2, 92319, Note_on_c, 0, 56, 0
2, 92319, Note_on_c, 0, 58, 49
2, 92400, Note_on_c, 0, 58, 0
2, 92400, Note_on_c, 0, 56, 49
2, 92480, Note_on_c, 0, 56, 0
2, 92480, Note_on_c, 0, 58, 49
2, 92559, Note_on_c, 0, 58, 0
2, 92559, Note_on_c, 0, 56, 49
2, 92640, Note_on_c, 0, 56, 0
2, 92640, Note_on_c, 0, 58, 49
2, 92720, Note_on_c, 0, 58, 0
2, 92720, Note_on_c, 0, 56, 49
2, 92799, Note_on_c, 0, 56, 0
2, 92799, Note_on_c, 0, 58, 49
2, 92880, Note_on_c, 0, 58, 0
2, 92880, Note_on_c, 0, 56, 49
2, 92960, Note_on_c, 0, 56, 0
2, 92960, Note_on_c, 0, 58, 49
2, 93039, Note_on_c, 0, 58, 0
2, 93039, Control_c, 0, 64, 0
2, 93039, Note_on_c, 0, 56, 49
2, 93120, Note_on_c, 0, 56, 0
2, 93600, Note_on_c, 0, 63, 62
2, 93920, Note_on_c, 0, 63, 0
2, 93920, Note_on_c, 0, 62, 62
2, 93999, Note_on_c, 0, 62, 0
2, 93999, Note_on_c, 0, 63, 62
2, 94080, Note_on_c, 0, 63, 0
2, 94080, Control_c, 0, 64, 127
2, 94080, Note_on_c, 0, 64, 75
2, 94680, Note_on_c, 0, 64, 0
2, 94680, Note_on_c, 0, 68, 75
2, 94800, Note_on_c, 0, 68, 0
2, 94800, Note_on_c, 0, 71, 75
2, 94880, Note_on_c, 0, 71, 0
2, 94880, Note_on_c, 0, 76, 75
2, 94959, Note_on_c, 0, 76, 0
2, 94959, Note_on_c, 0, 80, 75
2, 95040, Note_on_c, 0, 80, 0
2, 95040, Control_c, 0, 64, 0
2, 95040, Note_on_c, 0, 83, 75
2, 95280, Note_on_c, 0, 83, 0
2, 95520, Control_c, 0, 64, 127
2, 95520, Note_on_c, 0, 64, 49
2, 95600, Note_on_c, 0, 64, 0
2, 95600, Note_on_c, 0, 66, 49
2, 95679, Note_on_c, 0, 66, 0
2, 95679, Note_on_c, 0, 64, 49
2, 95760, Note_on_c, 0, 64, 0
2, 95760, Note_on_c, 0, 66, 49
2, 95820, Note_on_c, 0, 66, 0
2, 95820, Note_on_c, 0, 64, 49
2, 95880, Note_on_c, 0, 64, 0
2, 95880, Note_on_c, 0, 66, 49
2, 95940, Note_on_c, 0, 66, 0
2, 95940, Control_c, 0, 64, 0
2, 95940, Note_on_c, 0, 64, 49
2, 96000, Note_on_c, 0, 64, 0
2, 96000, Note_on_c, 0, 63, 62
2, 97200, Note_on_c, 0, 63, 0
2, 101280, Note_on_c, 0, 63, 62
2, 101600, Note_on_c, 0, 63, 0
2, 101600, Note_on_c, 0, 62, 62
2, 101679, Note_on_c, 0, 62, 0
2, 101679, Note_on_c, 0, 63, 62
2, 101760, Note_on_c, 0, 63, 0
2, 101760, Control_c, 0, 64, 127
2, 101760, Note_on_c, 0, 64, 75
2, 102360, Note_on_c, 0, 64, 0
2, 102360, Note_on_c, 0, 68, 75
2, 102480, Note_on_c, 0, 68, 0
2, 102480, Note_on_c, 0, 71, 75
2, 102560, Note_on_c, 0, 71, 0
2, 102560, Note_on_c, 0, 76, 75
2, 102639, Note_on_c, 0, 76, 0
2, 102639, Note_on_c, 0, 80, 75
2, 102720, Note_on_c, 0, 80, 0
2, 102720, Control_c, 0, 64, 0
2, 102720, Note_on_c, 0, 83, 75
2, 102960, Note_on_c, 0, 83, 0
2, 103200, Control_c, 0, 64, 127
2, 103200, Note_on_c, 0, 64, 49
2, 103280, Note_on_c, 0, 64, 0
2, 103280, Note_on_c, 0, 66, 49
2, 103359, Note_on_c, 0, 66, 0
2, 103359, Note_on_c, 0, 64, 49
2, 103440, Note_on_c, 0, 64, 0
2, 103440, Note_on_c, 0, 66, 49
2, 103500, Note_on_c, 0, 66, 0
2, 103500, Note_on_c, 0, 64, 49
2, 103560, Note_on_c, 0, 64, 0
2, 103560, Note_on_c, 0, 66, 49
2, 103620, Note_on_c, 0, 66, 0
2, 103620, Control_c, 0, 64, 0
2, 103620, Note_on_c, 0, 64, 49
2, 103680, Note_on_c, 0, 64, 0
2, 103680, Note_on_c, 0, 63, 62
2, 104880, Note_on_c, 0, 63, 0
2, 109440, Control_c, 0, 64, 127
2, 109440, Note_on_c, 0, 65, 49
2, 109440, Note_on_c, 0, 68, 49
2, 109520, Note_on_c, 0, 68, 0
2, 109520, Note_on_c, 0, 65, 0
2, 109520, Note_on_c, 0, 61, 49
2, 109599, Note_on_c, 0, 61, 0
2, 109599, Note_on_c, 0, 65, 49
2, 109599, Note_on_c, 0, 68, 49
2, 109680, Note_on_c, 0, 68, 0
2, 109680, Note_on_c, 0, 65, 0
2, 109680, Note_on_c, 0, 61, 49
2, 109760, Note_on_c, 0, 61, 0
2, 109760, Note_on_c, 0, 65, 49
2, 109760, Note_on_c, 0, 68, 49
2, 109839, Note_on_c, 0, 68, 0
2, 109839, Note_on_c, 0, 65, 0
2, 109839, Note_on_c, 0, 61, 49
2, 109920, Note_on_c, 0, 61, 0
2, 109920, Note_on_c, 0, 65, 49
2, 109920, Note_on_c, 0, 68, 49
2, 110000, Note_on_c, 0, 68, 0
2, 110000, Note_on_c, 0, 65, 0
2, 110000, Note_on_c, 0, 61, 49
2, 110079, Note_on_c, 0, 61, 0
2, 110079, Note_on_c, 0, 65, 49
2, 110079, Note_on_c, 0, 68, 49
2, 110160, Note_on_c, 0, 68, 0
2, 110160, Note_on_c, 0, 65, 0
2, 110160, Note_on_c, 0, 61, 49
2, 110240, Note_on_c, 0, 61, 0
2, 110240, Note_on_c, 0, 65, 49
2, 110240, Note_on_c, 0, 68, 49
2, 110319, Note_on_c, 0, 68, 0
2, 110319, Note_on_c, 0, 65, 0
2, 110319, Control_c, 0, 64, 0
2, 110319, Note_on_c, 0, 61, 49
2, 110400, Note_on_c, 0, 61, 0
2, 110880, Note_on_c, 0, 85, 75
2, 111200, Note_on_c, 0, 85, 0
2, 111200, Note_on_c, 0, 84, 75
2, 111279, Note_on_c, 0, 84, 0
2, 111279, Note_on_c, 0, 85, 75
2, 111360, Note_on_c, 0, 85, 0
2, 111360, Note_on_c, 0, 86, 75
2, 111840, Note_on_c, 0, 86, 0
2, 111840, Control_c, 0, 64, 127
2, 111840, Note_on_c, 0, 93, 75
2, 111960, Note_on_c, 0, 93, 0
2, 111960, Note_on_c, 0, 90, 75
2, 112080, Note_on_c, 0, 90, 0
2, 112080, Note_on_c, 0, 86, 75
2, 112160, Note_on_c, 0, 86, 0
2, 112160, Note_on_c, 0, 81, 75
2, 112239, Note_on_c, 0, 81, 0
2, 112239, Note_on_c, 0, 78, 75
2, 112320, Note_on_c, 0, 78, 0
2, 112320, Control_c, 0, 64, 0
2, 112320, Note_on_c, 0, 74, 75
2, 112560, Note_on_c, 0, 74, 0
2, 112800, Control_c, 0, 64, 127
2, 112800, Note_on_c, 0, 74, 49
2, 112880, Note_on_c, 0, 74, 0
2, 112880, Note_on_c, 0, 76, 49
2, 112959, Note_on_c, 0, 76, 0
2, 112959, Note_on_c, 0, 74, 49
2, 113040, Note_on_c, 0, 74, 0
2, 113040, Note_on_c, 0, 76, 49
2, 113100, Note_on_c, 0, 76, 0
2, 113100, Note_on_c, 0, 74, 49
2, 113160, Note_on_c, 0, 74, 0
2, 113160, Note_on_c, 0, 76, 49
2, 113220, Note_on_c, 0, 76, 0
2, 113220, Note_on_c, 0, 74, 49
2, 113280, Note_on_c, 0, 74, 0
2, 113280, Control_c, 0, 64, 0
2, 113280, Note_on_c, 0, 73, 49
2, 113520, Note_on_c, 0, 73, 0
2, 114720, Note_on_c, 0, 97, 75
2, 114751, Note_on_c, 0, 97, 0
2, 114879, Note_on_c, 0, 97, 75
2, 114911, Note_on_c, 0, 97, 0
2, 115040, Note_on_c, 0, 97, 75
2, 115072, Note_on_c, 0, 97, 0
2, 115200, Note_on_c, 0, 97, 101
2, 116160, Note_on_c, 0, 97, 0
2, 116160, Note_on_c, 0, 92, 75
2, 116280, Note_on_c, 0, 92, 0
2, 116400, Note_on_c, 0, 70, 88
2, 116400, Note_on_c, 0, 77, 88
2, 116400, Note_on_c, 0, 82, 88
2, 116520, Note_on_c, 0, 82, 0
2, 116520, Note_on_c, 0, 77, 0
2, 116520, Note_on_c, 0, 70, 0
2, 116640, Note_on_c, 0, 73, 88
2, 116640, Note_on_c, 0, 77, 88
2, 116640, Note_on_c, 0, 80, 88
2, 116760, Note_on_c, 0, 80, 0
2, 116760, Note_on_c, 0, 77, 0
2, 116760, Note_on_c, 0, 73, 0
2, 116880, Note_on_c, 0, 70, 88
2, 116880, Note_on_c, 0, 77, 88
2, 116880, Note_on_c, 0, 82, 88
2, 117000, Note_on_c, 0, 82, 0
2, 117000, Note_on_c, 0, 77, 0
2, 117000, Note_on_c, 0, 70, 0
2, 117120, Note_on_c, 0, 73, 88
2, 117120, Note_on_c, 0, 77, 88
2, 117120, Note_on_c, 0, 80, 88
2, 117240, Note_on_c, 0, 80, 0
2, 117240, Note_on_c, 0, 77, 0
2, 117240, Note_on_c, 0, 73, 0
2, 117360, Note_on_c, 0, 70, 88
2, 117360, Note_on_c, 0, 77, 88
2, 117360, Note_on_c, 0, 82, 88
2, 117480, Note_on_c, 0, 82, 0
2, 117480, Note_on_c, 0, 77, 0
2, 117480, Note_on_c, 0, 70, 0
2, 117600, Note_on_c, 0, 73, 88
2, 117600, Note_on_c, 0, 77, 88
2, 117600, Note_on_c, 0, 80, 88
2, 117720, Note_on_c, 0, 80, 0
2, 117720, Note_on_c, 0, 77, 0
2, 117720, Note_on_c, 0, 73, 0
2, 117840, Note_on_c, 0, 70, 88
2, 117840, Note_on_c, 0, 77, 88
2, 117840, Note_on_c, 0, 82, 88
2, 117960, Note_on_c, 0, 82, 0
2, 117960, Note_on_c, 0, 77, 0
2, 117960, Note_on_c, 0, 70, 0
2, 118080, Note_on_c, 0, 73, 62
2, 118080, Note_on_c, 0, 77, 62
2, 118080, Note_on_c, 0, 80, 62
2, 118320, Note_on_c, 0, 80, 0
2, 118320, Note_on_c, 0, 77, 0
2, 118320, Note_on_c, 0, 73, 0
2, 118560, Note_on_c, 0, 85, 75
2, 118880, Note_on_c, 0, 85, 0
2, 118880, Note_on_c, 0, 84, 75
2, 118959, Note_on_c, 0, 84, 0
2, 118959, Note_on_c, 0, 85, 75
2, 119040, Note_on_c, 0, 85, 0
2, 119040, Note_on_c, 0, 86, 75
2, 119520, Note_on_c, 0, 86, 0
2, 119520, Control_c, 0, 64, 127
2, 119520, Note_on_c, 0, 93, 75
2, 119640, Note_on_c, 0, 93, 0
2, 119640, Note_on_c, 0, 90, 75
2, 119760, Note_on_c, 0, 90, 0
2, 119760, Note_on_c, 0, 86, 75
2, 119840, Note_on_c, 0, 86, 0
2, 119840, Note_on_c, 0, 81, 75
2, 119919, Note_on_c, 0, 81, 0
2, 119919, Note_on_c, 0, 78, 75
2, 120000, Note_on_c, 0, 78, 0
2, 120000, Control_c, 0, 64, 0
2, 120000, Note_on_c, 0, 74, 75
2, 120240, Note_on_c, 0, 74, 0
2, 120480, Control_c, 0, 64, 127
2, 120480, Note_on_c, 0, 74, 49
2, 120560, Note_on_c, 0, 74, 0
2, 120560, Note_on_c, 0, 76, 49
2, 120639, Note_on_c, 0, 76, 0
2, 120639, Note_on_c, 0, 74, 49
2, 120720, Note_on_c, 0, 74, 0
2, 120720, Note_on_c, 0, 76, 49
2, 120780, Note_on_c, 0, 76, 0
2, 120780, Note_on_c, 0, 74, 49
2, 120840, Note_on_c, 0, 74, 0
2, 120840, Note_on_c, 0, 76, 49
2, 120900, Note_on_c, 0, 76, 0
2, 120900, Note_on_c, 0, 74, 49
2, 120960, Note_on_c, 0, 74, 0
2, 120960, Control_c, 0, 64, 0
2, 120960, Note_on_c, 0, 73, 49
2, 121200, Note_on_c, 0, 73, 0
2, 122400, Note_on_c, 0, 97, 75
2, 122431, Note_on_c, 0, 97, 0
2, 122559, Note_on_c, 0, 97, 75
2, 122591, Note_on_c, 0, 97, 0
2, 122720, Note_on_c, 0, 97, 75
2, 122752, Note_on_c, 0, 97, 0
2, 122880, Note_on_c, 0, 97, 101
2, 123840, Note_on_c, 0, 97, 0
2, 123840, Note_on_c, 0, 92, 75
2, 123960, Note_on_c, 0, 92, 0
2, 124080, Note_on_c, 0, 70, 88
2, 124080, Note_on_c, 0, 77, 88
2, 124080, Note_on_c, 0, 82, 88
2, 124200, Note_on_c, 0, 82, 0
2, 124200, Note_on_c, 0, 77, 0
2, 124200, Note_on_c, 0, 70, 0
2, 124320, Note_on_c, 0, 73, 88
2, 124320, Note_on_c, 0, 77, 88
2, 124320, Note_on_c, 0, 80, 88
2, 124440, Note_on_c, 0, 80, 0
2, 124440, Note_on_c, 0, 77, 0
2, 124440, Note_on_c, 0, 73, 0
2, 124560, Note_on_c, 0, 70, 88
2, 124560, Note_on_c, 0, 77, 88
2, 124560, Note_on_c, 0, 82, 88
2, 124680, Note_on_c, 0, 82, 0
2, 124680, Note_on_c, 0, 77, 0
2, 124680, Note_on_c, 0, 70, 0
2, 124800, Note_on_c, 0, 73, 88
2, 124800, Note_on_c, 0, 77, 88
2, 124800, Note_on_c, 0, 80, 88
2, 124920, Note_on_c, 0, 80, 0
2, 124920, Note_on_c, 0, 77, 0
2, 124920, Note_on_c, 0, 73, 0
2, 125040, Note_on_c, 0, 70, 88
2, 125040, Note_on_c, 0, 77, 88
2, 125040, Note_on_c, 0, 82, 88
2, 125160, Note_on_c, 0, 82, 0
2, 125160, Note_on_c, 0, 77, 0
2, 125160, Note_on_c, 0, 70, 0
2, 125280, Note_on_c, 0, 73, 88
2, 125280, Note_on_c, 0, 77, 88
2, 125280, Note_on_c, 0, 80, 88
2, 125400, Note_on_c, 0, 80, 0
2, 125400, Note_on_c, 0, 77, 0
2, 125400, Note_on_c, 0, 73, 0
2, 125520, Note_on_c, 0, 70, 88
2, 125520, Note_on_c, 0, 77, 88
2, 125520, Note_on_c, 0, 82, 88
2, 125640, Note_on_c, 0, 82, 0
2, 125640, Note_on_c, 0, 77, 0
2, 125640, Note_on_c, 0, 70, 0
2, 125760, Note_on_c, 0, 73, 62
2, 125760, Note_on_c, 0, 77, 62
2, 125760, Note_on_c, 0, 80, 62
2, 126000, Note_on_c, 0, 80, 0
2, 126000, Note_on_c, 0, 77, 0
2, 126000, Note_on_c, 0, 73, 0
2, 126240, Note_on_c, 0, 77, 62
2, 126240, Note_on_c, 0, 80, 62
2, 126399, Note_on_c, 0, 80, 0
2, 126399, Note_on_c, 0, 77, 0
2, 126399, Note_on_c, 0, 77, 62
2, 126399, Note_on_c, 0, 80, 62
2, 126560, Note_on_c, 0, 80, 0
2, 126560, Note_on_c, 0, 77, 0
2, 126560, Note_on_c, 0, 77, 62
2, 126560, Note_on_c, 0, 80, 62
2, 126720, Note_on_c, 0, 80, 0
2, 126720, Note_on_c, 0, 77, 0
2, 126720, Note_on_c, 0, 77, 88
2, 126720, Note_on_c, 0, 80, 88
2, 127680, Note_on_c, 0, 80, 0
2, 127680, Note_on_c, 0, 77, 0
2, 127680, Note_on_c, 0, 73, 62
2, 127680, Note_on_c, 0, 77, 62
2, 128160, Note_on_c, 0, 77, 0
2, 128160, Note_on_c, 0, 73, 0
2, 128160, Note_on_c, 0, 68, 62
2, 128160, Note_on_c, 0, 73, 62
2, 128640, Note_on_c, 0, 73, 0
2, 128640, Note_on_c, 0, 68, 0
2, 128640, Control_c, 0, 64, 127
2, 128640, Note_on_c, 0, 70, 62
2, 128720, Note_on_c, 0, 70, 0
2, 128720, Note_on_c, 0, 68, 62
2, 128799, Note_on_c, 0, 68, 0
2, 128799, Note_on_c, 0, 70, 62
2, 128880, Note_on_c, 0, 70, 0
2, 128880, Note_on_c, 0, 68, 62
2, 128960, Note_on_c, 0, 68, 0
2, 128960, Note_on_c, 0, 70, 62
2, 129039, Note_on_c, 0, 70, 0
2, 129039, Control_c, 0, 64, 0
2, 129039, Note_on_c, 0, 68, 62
2, 129120, Note_on_c, 0, 68, 0
2, 129120, Control_c, 0, 64, 127
2, 129120, Note_on_c, 0, 66, 62
2, 129200, Note_on_c, 0, 66, 0
2, 129200, Note_on_c, 0, 65, 62
2, 129279, Note_on_c, 0, 65, 0
2, 129279, Note_on_c, 0, 66, 62
2, 129360, Note_on_c, 0, 66, 0
2, 129360, Note_on_c, 0, 65, 62
2, 129440, Note_on_c, 0, 65, 0
2, 129440, Note_on_c, 0, 66, 62
2, 129519, Note_on_c, 0, 66, 0
2, 129519, Control_c, 0, 64, 0
2, 129519, Note_on_c, 0, 65, 62
2, 129600, Note_on_c, 0, 65, 0
2, 129600, Control_c, 0, 64, 127
2, 129600, Note_on_c, 0, 63, 62
2, 129680, Note_on_c, 0, 63, 0
2, 129680, Note_on_c, 0, 61, 62
2, 129759, Note_on_c, 0, 61, 0
2, 129759, Note_on_c, 0, 63, 62
2, 129840, Note_on_c, 0, 63, 0
2, 129840, Note_on_c, 0, 61, 62
2, 129920, Note_on_c, 0, 61, 0
2, 129920, Note_on_c, 0, 63, 62
2, 129999, Note_on_c, 0, 63, 0
2, 129999, Control_c, 0, 64, 0
2, 129999, Note_on_c, 0, 61, 62
2, 130080, Note_on_c, 0, 61, 0
2, 130080, Control_c, 0, 64, 127
2, 130080, Note_on_c, 0, 58, 62
2, 130160, Note_on_c, 0, 58, 0
2, 130160, Note_on_c, 0, 56, 62
2, 130239, Note_on_c, 0, 56, 0
2, 130239, Note_on_c, 0, 58, 62
2, 130320, Note_on_c, 0, 58, 0
2, 130320, Note_on_c, 0, 56, 62
2, 130400, Note_on_c, 0, 56, 0
2, 130400, Note_on_c, 0, 58, 62
2, 130479, Note_on_c, 0, 58, 0
2, 130479, Control_c, 0, 64, 0
2, 130479, Note_on_c, 0, 56, 62
2, 130560, Note_on_c, 0, 56, 0
2, 134400, Note_on_c, 0, 69, 62
2, 134640, Note_on_c, 0, 69, 0
2, 134880, Note_on_c, 0, 60, 62
2, 135120, Note_on_c, 0, 60, 0
2, 135360, Note_on_c, 0, 61, 62
2, 135440, Note_on_c, 0, 61, 0
2, 135440, Note_on_c, 0, 62, 62
2, 135519, Note_on_c, 0, 62, 0
2, 135519, Note_on_c, 0, 61, 62
2, 135600, Note_on_c, 0, 61, 0
2, 135600, Note_on_c, 0, 62, 62
2, 135680, Note_on_c, 0, 62, 0
2, 135680, Note_on_c, 0, 61, 62
2, 135759, Note_on_c, 0, 61, 0
2, 135759, Note_on_c, 0, 62, 62
2, 135840, Note_on_c, 0, 62, 0
2, 135840, Note_on_c, 0, 61, 62
2, 135920, Note_on_c, 0, 61, 0
2, 135920, Note_on_c, 0, 62, 62
2, 135999, Note_on_c, 0, 62, 0
2, 135999, Note_on_c, 0, 61, 62
2, 136080, Note_on_c, 0, 61, 0
2, 136080, Note_on_c, 0, 62, 62
2, 136160, Note_on_c, 0, 62, 0
2, 136160, Note_on_c, 0, 60, 62
2, 136239, Note_on_c, 0, 60, 0
2, 136239, Note_on_c, 0, 61, 62
2, 136320, Note_on_c, 0, 61, 0
2, 136320, Note_on_c, 0, 69, 62
2, 136560, Note_on_c, 0, 69, 0
2, 136800, Note_on_c, 0, 60, 62
2, 137040, Note_on_c, 0, 60, 0
2, 137280, Note_on_c, 0, 61, 62
2, 137360, Note_on_c, 0, 61, 0
2, 137360, Note_on_c, 0, 62, 62
2, 137439, Note_on_c, 0, 62, 0
2, 137439, Note_on_c, 0, 61, 62
2, 137520, Note_on_c, 0, 61, 0
2, 137520, Note_on_c, 0, 62, 62
2, 137600, Note_on_c, 0, 62, 0
2, 137600, Note_on_c, 0, 61, 62
2, 137679, Note_on_c, 0, 61, 0
2, 137679, Note_on_c, 0, 62, 62
2, 137760, Note_on_c, 0, 62, 0
2, 137760, Note_on_c, 0, 61, 62
2, 137840, Note_on_c, 0, 61, 0
2, 137840, Note_on_c, 0, 62, 62
2, 137919, Note_on_c, 0, 62, 0
2, 137919, Note_on_c, 0, 61, 62
2, 138000, Note_on_c, 0, 61, 0
2, 138000, Note_on_c, 0, 62, 62
2, 138080, Note_on_c, 0, 62, 0
2, 138080, Note_on_c, 0, 60, 62
2, 138159, Note_on_c, 0, 60, 0
2, 138159, Note_on_c, 0, 61, 62
2, 138240, Note_on_c, 0, 61, 0
2, 138240, Note_on_c, 0, 60, 62
2, 138399, Note_on_c, 0, 60, 0
2, 138399, Note_on_c, 0, 69, 62
2, 138560, Note_on_c, 0, 69, 0
2, 138560, Note_on_c, 0, 69, 62
2, 138592, Note_on_c, 0, 69, 0
2, 138720, Note_on_c, 0, 69, 62
2, 138879, Note_on_c, 0, 69, 0
2, 138879, Note_on_c, 0, 60, 62
2, 139040, Note_on_c, 0, 60, 0
2, 139040, Note_on_c, 0, 69, 62
2, 139200, Note_on_c, 0, 69, 0
2, 139200, Note_on_c, 0, 61, 62
2, 139359, Note_on_c, 0, 61, 0
2, 139359, Note_on_c, 0, 70, 62
2, 139520, Note_on_c, 0, 70, 0
2, 139520, Note_on_c, 0, 70, 62
2, 139552, Note_on_c, 0, 70, 0
2, 139680, Note_on_c, 0, 70, 62
2, 139839, Note_on_c, 0, 70, 0
2, 139839, Note_on_c, 0, 61, 62
2, 140000, Note_on_c, 0, 61, 0
2, 140000, Note_on_c, 0, 70, 62
2, 140160, Note_on_c, 0, 70, 0
2, 140160, Note_on_c, 0, 62, 62
2, 140319, Note_on_c, 0, 62, 0
2, 140319, Note_on_c, 0, 71, 62
2, 140480, Note_on_c, 0, 71, 0
2, 140480, Note_on_c, 0, 71, 62
2, 140512, Note_on_c, 0, 71, 0
2, 140640, Note_on_c, 0, 71, 62
2, 140799, Note_on_c, 0, 71, 0
2, 140799, Note_on_c, 0, 62, 62
2, 140960, Note_on_c, 0, 62, 0
2, 140960, Note_on_c, 0, 71, 62
2, 141120, Note_on_c, 0, 71, 0
2, 141120, Note_on_c, 0, 63, 62
2, 141279, Note_on_c, 0, 63, 0
2, 141279, Note_on_c, 0, 72, 62
2, 141440, Note_on_c, 0, 72, 0
2, 141440, Note_on_c, 0, 72, 62
2, 141472, Note_on_c, 0, 72, 0
2, 141600, Note_on_c, 0, 72, 62
2, 141759, Note_on_c, 0, 72, 0
2, 141759, Note_on_c, 0, 63, 62
2, 141920, Note_on_c, 0, 63, 0
2, 141920, Note_on_c, 0, 72, 62
2, 142080, Note_on_c, 0, 72, 0
2, 142080, Note_on_c, 0, 64, 62
2, 142080, Note_on_c, 0, 73, 62
2, 142320, Note_on_c, 0, 73, 0
2, 142320, Note_on_c, 0, 64, 0
2, 142560, Note_on_c, 0, 61, 62
2, 142560, Note_on_c, 0, 64, 62
2, 142800, Note_on_c, 0, 64, 0
2, 142800, Note_on_c, 0, 61, 0
2, 143040, Control_c, 0, 64, 127
2, 143040, Note_on_c, 0, 62, 62
2, 143040, Note_on_c, 0, 65, 62
2, 143120, Note_on_c, 0, 65, 0
2, 143120, Note_on_c, 0, 62, 0
2, 143120, Note_on_c, 0, 67, 62
2, 143199, Note_on_c, 0, 67, 0
2, 143199, Note_on_c, 0, 65, 62
2, 143280, Note_on_c, 0, 65, 0
2, 143280, Note_on_c, 0, 67, 62
2, 143360, Note_on_c, 0, 67, 0
2, 143360, Note_on_c, 0, 65, 62
2, 143439, Note_on_c, 0, 65, 0
2, 143439, Note_on_c, 0, 67, 62
2, 143520, Note_on_c, 0, 67, 0
2, 143520, Note_on_c, 0, 65, 62
2, 143588, Note_on_c, 0, 65, 0
2, 143588, Note_on_c, 0, 67, 62
2, 143657, Note_on_c, 0, 67, 0
2, 143657, Note_on_c, 0, 65, 62
2, 143725, Note_on_c, 0, 65, 0
2, 143725, Note_on_c, 0, 67, 62
2, 143794, Note_on_c, 0, 67, 0
2, 143794, Note_on_c, 0, 65, 62
2, 143862, Note_on_c, 0, 65, 0
2, 143862, Note_on_c, 0, 64, 62
2, 143931, Note_on_c, 0, 64, 0
2, 143931, Control_c, 0, 64, 0
2, 143931, Note_on_c, 0, 65, 62
2, 144000, Note_on_c, 0, 65, 0
2, 144000, Note_on_c, 0, 64, 62
2, 144000, Note_on_c, 0, 73, 62
2, 144240, Note_on_c, 0, 73, 0
2, 144240, Note_on_c, 0, 64, 0
2, 144480, Note_on_c, 0, 61, 62
2, 144480, Note_on_c, 0, 64, 62
2, 144720, Note_on_c, 0, 64, 0
2, 144720, Note_on_c, 0, 61, 0
2, 144960, Control_c, 0, 64, 127
2, 144960, Note_on_c, 0, 62, 62
2, 144960, Note_on_c, 0, 65, 62
2, 145040, Note_on_c, 0, 65, 0
2, 145040, Note_on_c, 0, 62, 0
2, 145040, Note_on_c, 0, 67, 62
2, 145119, Note_on_c, 0, 67, 0
2, 145119, Note_on_c, 0, 65, 62
2, 145200, Note_on_c, 0, 65, 0
2, 145200, Note_on_c, 0, 67, 62
2, 145280, Note_on_c, 0, 67, 0
2, 145280, Note_on_c, 0, 65, 62
2, 145359, Note_on_c, 0, 65, 0
2, 145359, Note_on_c, 0, 67, 62
2, 145440, Note_on_c, 0, 67, 0
2, 145440, Note_on_c, 0, 65, 62
2, 145508, Note_on_c, 0, 65, 0
2, 145508, Note_on_c, 0, 67, 62
2, 145577, Note_on_c, 0, 67, 0
2, 145577, Note_on_c, 0, 65, 62
2, 145645, Note_on_c, 0, 65, 0
2, 145645, Note_on_c, 0, 67, 62
2, 145714, Note_on_c, 0, 67, 0
2, 145714, Note_on_c, 0, 65, 62
2, 145782, Note_on_c, 0, 65, 0
2, 145782, Note_on_c, 0, 64, 62
2, 145851, Note_on_c, 0, 64, 0
2, 145851, Control_c, 0, 64, 0
2, 145851, Note_on_c, 0, 65, 62
2, 145920, Note_on_c, 0, 65, 0
2, 145920, Note_on_c, 0, 61, 75
2, 145920, Note_on_c, 0, 64, 75
2, 146079, Note_on_c, 0, 64, 0
2, 146079, Note_on_c, 0, 61, 0
2, 146079, Note_on_c, 0, 73, 75
2, 146240, Note_on_c, 0, 73, 0
2, 146240, Note_on_c, 0, 73, 75
2, 146272, Note_on_c, 0, 73, 0
2, 146400, Note_on_c, 0, 73, 75
2, 146559, Note_on_c, 0, 73, 0
2, 146559, Note_on_c, 0, 61, 75
2, 146559, Note_on_c, 0, 64, 75
2, 146720, Note_on_c, 0, 64, 0
2, 146720, Note_on_c, 0, 61, 0
2, 146720, Note_on_c, 0, 73, 75
2, 146880, Note_on_c, 0, 73, 0
2, 146880, Note_on_c, 0, 62, 75
2, 146880, Note_on_c, 0, 65, 75
2, 147039, Note_on_c, 0, 65, 0
2, 147039, Note_on_c, 0, 62, 0
2, 147039, Note_on_c, 0, 74, 75
2, 147200, Note_on_c, 0, 74, 0
2, 147200, Note_on_c, 0, 74, 75
2, 147232, Note_on_c, 0, 74, 0
2, 147360, Note_on_c, 0, 74, 75
2, 147519, Note_on_c, 0, 74, 0
2, 147519, Note_on_c, 0, 62, 75
2, 147519, Note_on_c, 0, 65, 75
2, 147680, Note_on_c, 0, 65, 0
2, 147680, Note_on_c, 0, 62, 0
2, 147680, Note_on_c, 0, 74, 75
2, 147840, Note_on_c, 0, 74, 0
2, 147840, Note_on_c, 0, 63, 75
2, 147840, Note_on_c, 0, 66, 75
2, 147999, Note_on_c, 0, 66, 0
2, 147999, Note_on_c, 0, 63, 0
2, 147999, Note_on_c, 0, 75, 75
2, 148160, Note_on_c, 0, 75, 0
2, 148160, Note_on_c, 0, 75, 75
2, 148192, Note_on_c, 0, 75, 0
2, 148320, Note_on_c, 0, 75, 75
2, 148479, Note_on_c, 0, 75, 0
2, 148479, Note_on_c, 0, 63, 75
2, 148479, Note_on_c, 0, 66, 75
2, 148640, Note_on_c, 0, 66, 0
2, 148640, Note_on_c, 0, 63, 0
2, 148640, Note_on_c, 0, 75, 75
2, 148800, Note_on_c, 0, 75, 0
2, 148800, Note_on_c, 0, 64, 88
2, 148800, Note_on_c, 0, 67, 88
2, 148959, Note_on_c, 0, 67, 0
2, 148959, Note_on_c, 0, 64, 0
2, 148959, Note_on_c, 0, 76, 88
2, 149120, Note_on_c, 0, 76, 0
2, 149120, Note_on_c, 0, 76, 88
2, 149152, Note_on_c, 0, 76, 0
2, 149280, Note_on_c, 0, 76, 88
2, 149439, Note_on_c, 0, 76, 0
2, 149439, Note_on_c, 0, 64, 88
2, 149439, Note_on_c, 0, 67, 88
2, 149600, Note_on_c, 0, 67, 0
2, 149600, Note_on_c, 0, 64, 0
2, 149600, Note_on_c, 0, 76, 88
2, 149760, Note_on_c, 0, 76, 0
2, 149760, Note_on_c, 0, 65, 114
2, 149760, Note_on_c, 0, 68, 114
2, 149760, Note_on_c, 0, 77, 114
2, 150240, Note_on_c, 0, 77, 0
2, 150240, Note_on_c, 0, 68, 0
2, 150240, Note_on_c, 0, 65, 0
2, 151680, Control_c, 0, 64, 127
2, 151680, Note_on_c, 0, 68, 49
2, 151800, Note_on_c, 0, 68, 0
2, 151800, Note_on_c, 0, 65, 49
2, 151920, Note_on_c, 0, 65, 0
2, 151920, Note_on_c, 0, 68, 49
2, 152040, Note_on_c, 0, 68, 0
2, 152040, Note_on_c, 0, 65, 49
2, 152160, Note_on_c, 0, 65, 0
2, 152160, Note_on_c, 0, 68, 49
2, 152280, Note_on_c, 0, 68, 0
2, 152280, Note_on_c, 0, 65, 49
2, 152400, Note_on_c, 0, 65, 0
2, 152400, Note_on_c, 0, 68, 49
2, 152520, Note_on_c, 0, 68, 0
2, 152520, Control_c, 0, 64, 0
2, 152520, Note_on_c, 0, 65, 49
2, 152640, Note_on_c, 0, 65, 0
2, 152640, Control_c, 0, 64, 127
2, 152640, Note_on_c, 0, 69, 49
2, 152760, Note_on_c, 0, 69, 0
2, 152760, Note_on_c, 0, 65, 49
2, 152880, Note_on_c, 0, 65, 0
2, 152880, Note_on_c, 0, 69, 49
2, 153000, Note_on_c, 0, 69, 0
2, 153000, Note_on_c, 0, 65, 49
2, 153120, Note_on_c, 0, 65, 0
2, 153120, Note_on_c, 0, 69, 49
2, 153240, Note_on_c, 0, 69, 0
2, 153240, Note_on_c, 0, 65, 49
2, 153360, Note_on_c, 0, 65, 0
2, 153360, Note_on_c, 0, 69, 49
2, 153480, Note_on_c, 0, 69, 0
2, 153480, Control_c, 0, 64, 0
2, 153480, Note_on_c, 0, 65, 49
2, 153600, Note_on_c, 0, 65, 0
2, 153600, Control_c, 0, 64, 127
2, 153600, Note_on_c, 0, 64, 62
2, 153720, Note_on_c, 0, 64, 0
2, 153720, Note_on_c, 0, 61, 62
2, 153840, Note_on_c, 0, 61, 0
2, 153840, Note_on_c, 0, 64, 62
2, 153960, Note_on_c, 0, 64, 0
2, 153960, Note_on_c, 0, 61, 62
2, 154080, Note_on_c, 0, 61, 0
2, 154080, Note_on_c, 0, 64, 62
2, 154200, Note_on_c, 0, 64, 0
2, 154200, Note_on_c, 0, 61, 62
2, 154320, Note_on_c, 0, 61, 0
2, 154320, Note_on_c, 0, 64, 62
2, 154440, Note_on_c, 0, 64, 0
2, 154440, Control_c, 0, 64, 0
2, 154440, Note_on_c, 0, 61, 62
2, 154560, Note_on_c, 0, 61, 0
2, 154560, Control_c, 0, 64, 127
2, 154560, Note_on_c, 0, 65, 62
2, 154680, Note_on_c, 0, 65, 0
2, 154680, Note_on_c, 0, 62, 62
2, 154800, Note_on_c, 0, 62, 0
2, 154800, Note_on_c, 0, 65, 62
2, 154920, Note_on_c, 0, 65, 0
2, 154920, Note_on_c, 0, 62, 62
2, 155040, Note_on_c, 0, 62, 0
2, 155040, Note_on_c, 0, 65, 62
2, 155160, Note_on_c, 0, 65, 0
2, 155160, Note_on_c, 0, 62, 62
2, 155280, Note_on_c, 0, 62, 0
2, 155280, Note_on_c, 0, 65, 62
2, 155400, Note_on_c, 0, 65, 0
2, 155400, Control_c, 0, 64, 0
2, 155400, Note_on_c, 0, 62, 62
2, 155520, Note_on_c, 0, 62, 0
2, 155520, Control_c, 0, 64, 127
2, 155520, Note_on_c, 0, 61, 62
2, 155640, Note_on_c, 0, 61, 0
2, 155640, Note_on_c, 0, 57, 62
2, 155760, Note_on_c, 0, 57, 0
2, 155760, Note_on_c, 0, 61, 62
2, 155880, Note_on_c, 0, 61, 0
2, 155880, Control_c, 0, 64, 0
2, 155880, Note_on_c, 0, 57, 62
2, 156000, Note_on_c, 0, 57, 0
2, 156000, Control_c, 0, 64, 127
2, 156000, Note_on_c, 0, 62, 62
2, 156120, Note_on_c, 0, 62, 0
2, 156120, Note_on_c, 0, 57, 62
2, 156240, Note_on_c, 0, 57, 0
2, 156240, Note_on_c, 0, 62, 62
2, 156360, Note_on_c, 0, 62, 0
2, 156360, Control_c, 0, 64, 0
2, 156360, Note_on_c, 0, 57, 62
2, 156480, Note_on_c, 0, 57, 0
2, 200160, Control_c, 0, 64, 127
2, 200160, Note_on_c, 0, 64, 75
2, 200280, Note_on_c, 0, 64, 0
2, 200280, Note_on_c, 0, 66, 75
2, 200400, Note_on_c, 0, 66, 0
2, 200400, Note_on_c, 0, 63, 75
2, 200520, Note_on_c, 0, 63, 0
2, 200520, Control_c, 0, 64, 0
2, 200520, Note_on_c, 0, 64, 75
2, 200640, Note_on_c, 0, 64, 0
2, 200640, Control_c, 0, 64, 127
2, 200640, Note_on_c, 0, 67, 88
2, 200760, Note_on_c, 0, 67, 0
2, 200760, Note_on_c, 0, 69, 88
2, 200880, Note_on_c, 0, 69, 0
2, 200880, Note_on_c, 0, 66, 88
2, 201000, Note_on_c, 0, 66, 0
2, 201000, Control_c, 0, 64, 0
2, 201000, Note_on_c, 0, 67, 88
2, 201120, Note_on_c, 0, 67, 0
2, 201120, Control_c, 0, 64, 127
2, 201120, Note_on_c, 0, 70, 88
2, 201240, Note_on_c, 0, 70, 0
2, 201240, Note_on_c, 0, 72, 88
2, 201360, Note_on_c, 0, 72, 0
2, 201360, Note_on_c, 0, 69, 88
2, 201480, Note_on_c, 0, 69, 0
2, 201480, Control_c, 0, 64, 0
2, 201480, Note_on_c, 0, 70, 88
2, 201600, Note_on_c, 0, 70, 0
2, 201600, Note_on_c, 0, 70, 88
2, 201600, Note_on_c, 0, 73, 88
2, 201840, Note_on_c, 0, 73, 0
2, 201840, Note_on_c, 0, 70, 0
2, 201840, Note_on_c, 0, 73, 101
2, 201840, Note_on_c, 0, 76, 101
2, 202080, Note_on_c, 0, 76, 0
2, 202080, Note_on_c, 0, 73, 0
2, 202080, Note_on_c, 0, 76, 101
2, 202080, Note_on_c, 0, 79, 101
2, 202320, Note_on_c, 0, 79, 0
2, 202320, Note_on_c, 0, 76, 0
2, 202320, Note_on_c, 0, 79, 127
2, 202320, Note_on_c, 0, 82, 127
2, 202560, Note_on_c, 0, 82, 0
2, 202560, Note_on_c, 0, 79, 0
2, 202560, Note_on_c, 0, 79, 127
2, 202560, Note_on_c, 0, 83, 127
2, 202800, Note_on_c, 0, 83, 0
2, 202800, Note_on_c, 0, 79, 0
2, 204480, Note_on_c, 0, 62, 127
2, 205200, Note_on_c, 0, 62, 0
2, 205200, Note_on_c, 0, 60, 101
2, 205440, Note_on_c, 0, 60, 0
2, 207360, Note_on_c, 0, 61, 62
2, 207360, Note_on_c, 0, 64, 62
2, 208560, Note_on_c, 0, 64, 0
2, 208560, Note_on_c, 0, 61, 0
2, 208560, Note_on_c, 0, 61, 62
2, 208800, Note_on_c, 0, 61, 0
2, 208800, Note_on_c, 0, 63, 62
2, 209040, Note_on_c, 0, 63, 0
2, 209040, Note_on_c, 0, 64, 62
2, 209280, Note_on_c, 0, 64, 0
2, 209280, Note_on_c, 0, 63, 62
2, 209280, Note_on_c, 0, 66, 62
2, 209640, Note_on_c, 0, 66, 0
2, 209640, Note_on_c, 0, 63, 0
2, 209640, Note_on_c, 0, 64, 62
2, 209760, Note_on_c, 0, 64, 0
2, 209760, Note_on_c, 0, 63, 62
2, 210480, Note_on_c, 0, 63, 0
2, 210480, Note_on_c, 0, 63, 62
2, 210720, Note_on_c, 0, 63, 0
2, 210720, Note_on_c, 0, 64, 62
2, 210960, Note_on_c, 0, 64, 0
2, 210960, Note_on_c, 0, 66, 75
2, 211200, Note_on_c, 0, 66, 0
2, 211200, Note_on_c, 0, 64, 75
2, 211200, Note_on_c, 0, 67, 75
2, 212400, Note_on_c, 0, 67, 0
2, 212400, Note_on_c, 0, 64, 0
2, 212400, Note_on_c, 0, 64, 75
2, 212640, Note_on_c, 0, 64, 0
2, 212640, Note_on_c, 0, 66, 75
2, 212880, Note_on_c, 0, 66, 0
2, 212880, Note_on_c, 0, 67, 75
2, 213120, Note_on_c, 0, 67, 0
2, 213120, Note_on_c, 0, 66, 75
2, 213120, Note_on_c, 0, 69, 75
2, 213480, Note_on_c, 0, 69, 0
2, 213480, Note_on_c, 0, 66, 0
2, 213480, Note_on_c, 0, 67, 75
2, 213600, Note_on_c, 0, 67, 0
2, 213600, Note_on_c, 0, 66, 75
2, 214320, Note_on_c, 0, 66, 0
2, 214320, Note_on_c, 0, 66, 62
2, 214560, Note_on_c, 0, 66, 0
2, 214560, Note_on_c, 0, 67, 62
2, 214800, Note_on_c, 0, 67, 0
2, 214800, Note_on_c, 0, 69, 62
2, 215040, Note_on_c, 0, 69, 0
2, 215040, Note_on_c, 0, 68, 62
2, 215040, Note_on_c, 0, 71, 62
2, 216240, Note_on_c, 0, 71, 0
2, 216240, Note_on_c, 0, 68, 0
2, 216240, Note_on_c, 0, 68, 62
2, 216480, Note_on_c, 0, 68, 0
2, 216480, Note_on_c, 0, 69, 62
2, 216720, Note_on_c, 0, 69, 0
2, 216720, Note_on_c, 0, 71, 62
2, 216960, Note_on_c, 0, 71, 0
2, 216960, Note_on_c, 0, 60, 62
2, 216960, Note_on_c, 0, 69, 62
2, 216960, Note_on_c, 0, 72, 62
2, 218160, Note_on_c, 0, 72, 0
2, 218160, Note_on_c, 0, 69, 0
2, 218160, Note_on_c, 0, 60, 0
2, 218160, Note_on_c, 0, 69, 62
2, 218400, Note_on_c, 0, 69, 0
2, 218400, Note_on_c, 0, 59, 62
2, 218400, Note_on_c, 0, 71, 62
2, 218640, Note_on_c, 0, 71, 0
2, 218640, Note_on_c, 0, 59, 0
2, 218640, Note_on_c, 0, 60, 62
2, 218640, Note_on_c, 0, 72, 62
2, 218880, Note_on_c, 0, 72, 0
2, 218880, Note_on_c, 0, 60, 0
2, 218880, Note_on_c, 0, 61, 75
2, 218880, Note_on_c, 0, 73, 75
2, 220080, Note_on_c, 0, 73, 0
2, 220080, Note_on_c, 0, 61, 0
2, 220080, Note_on_c, 0, 58, 75
2, 220080, Note_on_c, 0, 70, 75
2, 220320, Note_on_c, 0, 70, 0
2, 220320, Note_on_c, 0, 58, 0
2, 220320, Note_on_c, 0, 59, 75
2, 220320, Note_on_c, 0, 71, 75
2, 220560, Note_on_c, 0, 71, 0
2, 220560, Note_on_c, 0, 59, 0
2, 220560, Note_on_c, 0, 61, 75
2, 220560, Note_on_c, 0, 73, 75
2, 220800, Note_on_c, 0, 73, 0
2, 220800, Note_on_c, 0, 61, 0
2, 220800, Note_on_c, 0, 63, 75
2, 220800, Note_on_c, 0, 75, 75
2, 222000, Note_on_c, 0, 75, 0
2, 222000, Note_on_c, 0, 63, 0
2, 222000, Note_on_c, 0, 59, 75
2, 222000, Note_on_c, 0, 71, 75
2, 222240, Note_on_c, 0, 71, 0
2, 222240, Note_on_c, 0, 59, 0
2, 222240, Note_on_c, 0, 61, 75
2, 222240, Note_on_c, 0, 73, 75
2, 222480, Note_on_c, 0, 73, 0
2, 222480, Note_on_c, 0, 61, 0
2, 222480, Note_on_c, 0, 63, 75
2, 222480, Note_on_c, 0, 75, 75
2, 222720, Note_on_c, 0, 75, 0
2, 222720, Note_on_c, 0, 63, 0
2, 222720, Note_on_c, 0, 64, 75
2, 222720, Note_on_c, 0, 76, 75
2, 223920, Note_on_c, 0, 76, 0
2, 223920, Note_on_c, 0, 64, 0
2, 223920, Note_on_c, 0, 61, 75
2, 223920, Note_on_c, 0, 73, 75
2, 224160, Note_on_c, 0, 73, 0
2, 224160, Note_on_c, 0, 61, 0
2, 224160, Note_on_c, 0, 63, 75
2, 224160, Note_on_c, 0, 75, 75
2, 224400, Note_on_c, 0, 75, 0
2, 224400, Note_on_c, 0, 63, 0
2, 224400, Note_on_c, 0, 64, 75
2, 224400, Note_on_c, 0, 76, 75
2, 224640, Note_on_c, 0, 76, 0
2, 224640, Note_on_c, 0, 64, 0
2, 224640, Note_on_c, 0, 66, 75
2, 224640, Note_on_c, 0, 78, 75
2, 225000, Note_on_c, 0, 78, 0
2, 225000, Note_on_c, 0, 66, 0
2, 225000, Note_on_c, 0, 64, 75
2, 225000, Note_on_c, 0, 76, 75
2, 225120, Note_on_c, 0, 76, 0
2, 225120, Note_on_c, 0, 64, 0
2, 225120, Note_on_c, 0, 63, 75
2, 225120, Note_on_c, 0, 75, 75
2, 225840, Note_on_c, 0, 75, 0
2, 225840, Note_on_c, 0, 63, 0
2, 225840, Note_on_c, 0, 63, 75
2, 225840, Note_on_c, 0, 75, 75
2, 226080, Note_on_c, 0, 75, 0
2, 226080, Note_on_c, 0, 63, 0
2, 226080, Note_on_c, 0, 64, 75
2, 226080, Note_on_c, 0, 76, 75
2, 226320, Note_on_c, 0, 76, 0
2, 226320, Note_on_c, 0, 64, 0
2, 226320, Note_on_c, 0, 66, 75
2, 226320, Note_on_c, 0, 78, 75
2, 226560, Note_on_c, 0, 78, 0
2, 226560, Note_on_c, 0, 66, 0
2, 226560, Note_on_c, 0, 67, 75
2, 226560, Note_on_c, 0, 79, 75
2, 227760, Note_on_c, 0, 79, 0
2, 227760, Note_on_c, 0, 67, 0
2, 227760, Note_on_c, 0, 64, 75
2, 227760, Note_on_c, 0, 76, 75
2, 228000, Note_on_c, 0, 76, 0
2, 228000, Note_on_c, 0, 64, 0
2, 228000, Note_on_c, 0, 66, 75
2, 228000, Note_on_c, 0, 78, 75
2, 228240, Note_on_c, 0, 78, 0
2, 228240, Note_on_c, 0, 66, 0
2, 228240, Note_on_c, 0, 67, 75
2, 228240, Note_on_c, 0, 79, 75
2, 228480, Note_on_c, 0, 79, 0
2, 228480, Note_on_c, 0, 67, 0
2, 228480, Note_on_c, 0, 69, 75
2, 228480, Note_on_c, 0, 81, 75
2, 228840, Note_on_c, 0, 81, 0
2, 228840, Note_on_c, 0, 69, 0
2, 228840, Note_on_c, 0, 67, 75
2, 228840, Note_on_c, 0, 79, 75
2, 228960, Note_on_c, 0, 79, 0
2, 228960, Note_on_c, 0, 67, 0
2, 228960, Note_on_c, 0, 66, 75
2, 228960, Note_on_c, 0, 78, 75
2, 229680, Note_on_c, 0, 78, 0
2, 229680, Note_on_c, 0, 66, 0
2, 229680, Note_on_c, 0, 66, 88
2, 229680, Note_on_c, 0, 78, 88
2, 229920, Note_on_c, 0, 78, 0
2, 229920, Note_on_c, 0, 66, 0
2, 229920, Note_on_c, 0, 67, 88
2, 229920, Note_on_c, 0, 79, 88
2, 230160, Note_on_c, 0, 79, 0
2, 230160, Note_on_c, 0, 67, 0
2, 230160, Note_on_c, 0, 69, 88
2, 230160, Note_on_c, 0, 81, 88
2, 230400, Note_on_c, 0, 81, 0
2, 230400, Note_on_c, 0, 69, 0
2, 230400, Note_on_c, 0, 71, 88
2, 230400, Note_on_c, 0, 83, 88
2, 231600, Note_on_c, 0, 83, 0
2, 231600, Note_on_c, 0, 71, 0
2, 231600, Note_on_c, 0, 68, 88
2, 231600, Note_on_c, 0, 80, 88
2, 231840, Note_on_c, 0, 80, 0
2, 231840, Note_on_c, 0, 68, 0
2, 231840, Note_on_c, 0, 69, 88
2, 231840, Note_on_c, 0, 81, 88
2, 232080, Note_on_c, 0, 81, 0
2, 232080, Note_on_c, 0, 69, 0
2, 232080, Note_on_c, 0, 71, 88
2, 232080, Note_on_c, 0, 83, 88
2, 232320, Note_on_c, 0, 83, 0
2, 232320, Note_on_c, 0, 71, 0
2, 232320, Note_on_c, 0, 72, 88
2, 232320, Note_on_c, 0, 84, 88
2, 233520, Note_on_c, 0, 84, 0
2, 233520, Note_on_c, 0, 72, 0
2, 233520, Note_on_c, 0, 69, 88
2, 233520, Note_on_c, 0, 81, 88
2, 233760, Note_on_c, 0, 81, 0
2, 233760, Note_on_c, 0, 69, 0
2, 233760, Note_on_c, 0, 71, 88
2, 233760, Note_on_c, 0, 83, 88
2, 234000, Note_on_c, 0, 83, 0
2, 234000, Note_on_c, 0, 71, 0
2, 234000, Note_on_c, 0, 72, 88
2, 234000, Note_on_c, 0, 84, 88
2, 234240, Note_on_c, 0, 84, 0
2, 234240, Note_on_c, 0, 72, 0
2, 234240, Note_on_c, 0, 73, 88
2, 234240, Note_on_c, 0, 85, 88
2, 235440, Note_on_c, 0, 85, 0
2, 235440, Note_on_c, 0, 73, 0
2, 235440, Note_on_c, 0, 70, 88
2, 235440, Note_on_c, 0, 82, 88
2, 235680, Note_on_c, 0, 82, 0
2, 235680, Note_on_c, 0, 70, 0
2, 235680, Note_on_c, 0, 71, 88
2, 235680, Note_on_c, 0, 83, 88
2, 235920, Note_on_c, 0, 83, 0
2, 235920, Note_on_c, 0, 71, 0
2, 235920, Note_on_c, 0, 73, 88
2, 235920, Note_on_c, 0, 85, 88
2, 236160, Note_on_c, 0, 85, 0
2, 236160, Note_on_c, 0, 73, 0
2, 236160, Note_on_c, 0, 74, 88
2, 236160, Note_on_c, 0, 86, 88
2, 237360, Note_on_c, 0, 86, 0
2, 237360, Note_on_c, 0, 74, 0
2, 237360, Note_on_c, 0, 71, 88
2, 237360, Note_on_c, 0, 83, 88
2, 237600, Note_on_c, 0, 83, 0
2, 237600, Note_on_c, 0, 71, 0
2, 237600, Note_on_c, 0, 73, 88
2, 237600, Note_on_c, 0, 85, 88
2, 237840, Note_on_c, 0, 85, 0
2, 237840, Note_on_c, 0, 73, 0
2, 237840, Note_on_c, 0, 74, 88
2, 237840, Note_on_c, 0, 86, 88
2, 238080, Note_on_c, 0, 86, 0
2, 238080, Note_on_c, 0, 74, 0
2, 238080, Note_on_c, 0, 76, 88
2, 238080, Note_on_c, 0, 88, 88
2, 239280, Note_on_c, 0, 88, 0
2, 239280, Note_on_c, 0, 76, 0
2, 239280, Note_on_c, 0, 73, 101
2, 239280, Note_on_c, 0, 85, 101
2, 239520, Note_on_c, 0, 85, 0
2, 239520, Note_on_c, 0, 73, 0
2, 239520, Note_on_c, 0, 75, 101
2, 239520, Note_on_c, 0, 87, 101
2, 239760, Note_on_c, 0, 87, 0
2, 239760, Note_on_c, 0, 75, 0
2, 239760, Note_on_c, 0, 76, 101
2, 239760, Note_on_c, 0, 88, 101
2, 240000, Note_on_c, 0, 88, 0
2, 240000, Note_on_c, 0, 76, 0
2, 240000, Note_on_c, 0, 77, 101
2, 240000, Note_on_c, 0, 82, 101
2, 240000, Note_on_c, 0, 86, 101
2, 240000, Note_on_c, 0, 89, 101
2, 240240, Note_on_c, 0, 89, 0
2, 240240, Note_on_c, 0, 77, 0
2, 240240, Note_on_c, 0, 82, 0
2, 240240, Note_on_c, 0, 86, 0
2, 240480, Note_on_c, 0, 58, 101
2, 240480, Note_on_c, 0, 62, 101
2, 240480, Note_on_c, 0, 65, 101
2, 241080, Note_on_c, 0, 65, 0
2, 241080, Note_on_c, 0, 62, 0
2, 241080, Note_on_c, 0, 58, 0
2, 241080, Note_on_c, 0, 58, 49
2, 241080, Note_on_c, 0, 62, 49
2, 241080, Note_on_c, 0, 65, 49
2, 241200, Note_on_c, 0, 65, 0
2, 241200, Note_on_c, 0, 62, 0
2, 241200, Note_on_c, 0, 58, 0
2, 241200, Note_on_c, 0, 58, 49
2, 241200, Note_on_c, 0, 62, 49
2, 241200, Note_on_c, 0, 65, 49
2, 241320, Note_on_c, 0, 65, 0
2, 241320, Note_on_c, 0, 62, 0
2, 241320, Note_on_c, 0, 58, 0
2, 241320, Note_on_c, 0, 58, 49
2, 241320, Note_on_c, 0, 62, 49
2, 241320, Note_on_c, 0, 65, 49
2, 241440, Note_on_c, 0, 65, 0
2, 241440, Note_on_c, 0, 62, 0
2, 241440, Note_on_c, 0, 58, 0
2, 241440, Note_on_c, 0, 58, 49
2, 241440, Note_on_c, 0, 62, 49
2, 241440, Note_on_c, 0, 65, 49
2, 241560, Note_on_c, 0, 65, 0
2, 241560, Note_on_c, 0, 62, 0
2, 241560, Note_on_c, 0, 58, 0
2, 241560, Note_on_c, 0, 58, 49
2, 241560, Note_on_c, 0, 62, 49
2, 241560, Note_on_c, 0, 65, 49
2, 241680, Note_on_c, 0, 65, 0
2, 241680, Note_on_c, 0, 62, 0
2, 241680, Note_on_c, 0, 58, 0
2, 241680, Note_on_c, 0, 58, 49
2, 241680, Note_on_c, 0, 62, 49
2, 241680, Note_on_c, 0, 65, 49
2, 241800, Note_on_c, 0, 65, 0
2, 241800, Note_on_c, 0, 62, 0
2, 241800, Note_on_c, 0, 58, 0
2, 241800, Note_on_c, 0, 58, 49
2, 241800, Note_on_c, 0, 62, 49
2, 241800, Note_on_c, 0, 65, 49
2, 241920, Note_on_c, 0, 65, 0
2, 241920, Note_on_c, 0, 62, 0
2, 241920, Note_on_c, 0, 58, 0
2, 242160, Note_on_c, 0, 65, 62
2, 242400, Note_on_c, 0, 65, 0
2, 242400, Note_on_c, 0, 67, 62
2, 242640, Note_on_c, 0, 67, 0
2, 242640, Note_on_c, 0, 69, 62
2, 242880, Note_on_c, 0, 69, 0
2, 242880, Note_on_c, 0, 70, 62
2, 243240, Note_on_c, 0, 70, 0
2, 243240, Note_on_c, 0, 69, 62
2, 243360, Note_on_c, 0, 69, 0
2, 243360, Note_on_c, 0, 67, 62
2, 243600, Note_on_c, 0, 67, 0
2, 244080, Note_on_c, 0, 67, 75
2, 244320, Note_on_c, 0, 67, 0
2, 244320, Note_on_c, 0, 69, 75
2, 244560, Note_on_c, 0, 69, 0
2, 244560, Note_on_c, 0, 70, 75
2, 244800, Note_on_c, 0, 70, 0
2, 244800, Note_on_c, 0, 72, 75
2, 245160, Note_on_c, 0, 72, 0
2, 245160, Note_on_c, 0, 70, 75
2, 245280, Note_on_c, 0, 70, 0
2, 245280, Note_on_c, 0, 69, 75
2, 245520, Note_on_c, 0, 69, 0
2, 246000, Note_on_c, 0, 69, 75
2, 246240, Note_on_c, 0, 69, 0
2, 246240, Note_on_c, 0, 74, 75
2, 246480, Note_on_c, 0, 74, 0
2, 246480, Note_on_c, 0, 69, 75
2, 246720, Note_on_c, 0, 69, 0
2, 246960, Note_on_c, 0, 70, 75
2, 247200, Note_on_c, 0, 70, 0
2, 247200, Note_on_c, 0, 75, 75
2, 247440, Note_on_c, 0, 75, 0
2, 247440, Note_on_c, 0, 70, 75
2, 247680, Note_on_c, 0, 70, 0
2, 247920, Note_on_c, 0, 72, 75
2, 248160, Note_on_c, 0, 72, 0
2, 248160, Note_on_c, 0, 76, 75
2, 248400, Note_on_c, 0, 76, 0
2, 248400, Note_on_c, 0, 72, 75
2, 248640, Note_on_c, 0, 72, 0
2, 248880, Note_on_c, 0, 73, 75
2, 249120, Note_on_c, 0, 73, 0
2, 249120, Note_on_c, 0, 77, 75
2, 249360, Note_on_c, 0, 77, 0
2, 249360, Note_on_c, 0, 73, 75
2, 249600, Note_on_c, 0, 73, 0
2, 249840, Note_on_c, 0, 77, 101
2, 250080, Note_on_c, 0, 77, 0
2, 250080, Note_on_c, 0, 79, 101
2, 250320, Note_on_c, 0, 79, 0
2, 250320, Note_on_c, 0, 81, 101
2, 250560, Note_on_c, 0, 81, 0
2, 250560, Note_on_c, 0, 82, 114
2, 250920, Note_on_c, 0, 82, 0
2, 250920, Note_on_c, 0, 81, 88
2, 251040, Note_on_c, 0, 81, 0
2, 251040, Note_on_c, 0, 79, 88
2, 251280, Note_on_c, 0, 79, 0
2, 251760, Note_on_c, 0, 79, 114
2, 252000, Note_on_c, 0, 79, 0
2, 252000, Note_on_c, 0, 81, 114
2, 252240, Note_on_c, 0, 81, 0
2, 252240, Note_on_c, 0, 82, 114
2, 252480, Note_on_c, 0, 82, 0
2, 252480, Note_on_c, 0, 84, 114
2, 252840, Note_on_c, 0, 84, 0
2, 252840, Note_on_c, 0, 82, 88
2, 252960, Note_on_c, 0, 82, 0
2, 252960, Note_on_c, 0, 81, 88
2, 253200, Note_on_c, 0, 81, 0
2, 253680, Note_on_c, 0, 82, 88
2, 253920, Note_on_c, 0, 82, 0
2, 253920, Note_on_c, 0, 85, 88
2, 254160, Note_on_c, 0, 85, 0
2, 254160, Note_on_c, 0, 82, 88
2, 254400, Note_on_c, 0, 82, 0
2, 254640, Note_on_c, 0, 83, 88
2, 254880, Note_on_c, 0, 83, 0
2, 254880, Note_on_c, 0, 86, 88
2, 255120, Note_on_c, 0, 86, 0
2, 255120, Note_on_c, 0, 83, 88
2, 255360, Note_on_c, 0, 83, 0
2, 255600, Note_on_c, 0, 84, 88
2, 255840, Note_on_c, 0, 84, 0
2, 255840, Note_on_c, 0, 87, 88
2, 256080, Note_on_c, 0, 87, 0
2, 256080, Note_on_c, 0, 84, 88
2, 256320, Note_on_c, 0, 84, 0
2, 256560, Note_on_c, 0, 85, 88
2, 256800, Note_on_c, 0, 85, 0
2, 256800, Note_on_c, 0, 88, 88
2, 257040, Note_on_c, 0, 88, 0
2, 257040, Note_on_c, 0, 85, 88
2, 257280, Note_on_c, 0, 85, 0
2, 257520, Note_on_c, 0, 86, 114
2, 257760, Note_on_c, 0, 86, 0
2, 257760, Note_on_c, 0, 89, 114
2, 258000, Note_on_c, 0, 89, 0
2, 258000, Note_on_c, 0, 86, 114
2, 258240, Note_on_c, 0, 86, 0
2, 258480, Note_on_c, 0, 88, 114
2, 258720, Note_on_c, 0, 88, 0
2, 258720, Note_on_c, 0, 91, 114
2, 258960, Note_on_c, 0, 91, 0
2, 258960, Note_on_c, 0, 88, 114
2, 259200, Note_on_c, 0, 88, 0
2, 259440, Note_on_c, 0, 86, 127
2, 259680, Note_on_c, 0, 86, 0
2, 259680, Note_on_c, 0, 89, 127
2, 259920, Note_on_c, 0, 89, 0
2, 259920, Note_on_c, 0, 86, 127
2, 260160, Note_on_c, 0, 86, 0
2, 260400, Note_on_c, 0, 88, 127
2, 260640, Note_on_c, 0, 88, 0
2, 260640, Note_on_c, 0, 90, 127
2, 260880, Note_on_c, 0, 90, 0
2, 260880, Note_on_c, 0, 88, 127
2, 261120, Note_on_c, 0, 88, 0
2, 261360, Note_on_c, 0, 93, 101
2, 261600, Note_on_c, 0, 93, 0
2, 261600, Note_on_c, 0, 96, 101
2, 261840, Note_on_c, 0, 96, 0
2, 261840, Note_on_c, 0, 93, 101
2, 262080, Note_on_c, 0, 93, 0
2, 262080, Note_on_c, 0, 87, 101
2, 262320, Note_on_c, 0, 87, 0
2, 262320, Note_on_c, 0, 84, 101
2, 262560, Note_on_c, 0, 84, 0
2, 262560, Note_on_c, 0, 81, 101
2, 262800, Note_on_c, 0, 81, 0
2, 262800, Note_on_c, 0, 75, 101
2, 263040, Note_on_c, 0, 75, 0
2, 263040, Note_on_c, 0, 69, 127
2, 263040, Note_on_c, 0, 73, 127
2, 263040, Note_on_c, 0, 76, 127
2, 263040, Note_on_c, 0, 81, 127
2, 263280, Note_on_c, 0, 81, 0
2, 263280, Note_on_c, 0, 69, 0
2, 263280, Note_on_c, 0, 73, 0
2, 263280, Note_on_c, 0, 76, 0
2, 263520, Note_on_c, 0, 57, 101
2, 263520, Note_on_c, 0, 61, 101
2, 263520, Note_on_c, 0, 64, 101
2, 264120, Note_on_c, 0, 64, 0
2, 264120, Note_on_c, 0, 61, 0
2, 264120, Note_on_c, 0, 57, 0
2, 264120, Note_on_c, 0, 57, 49
2, 264120, Note_on_c, 0, 61, 49
2, 264120, Note_on_c, 0, 64, 49
2, 264240, Note_on_c, 0, 64, 0
2, 264240, Note_on_c, 0, 61, 0
2, 264240, Note_on_c, 0, 57, 0
2, 264240, Note_on_c, 0, 57, 49
2, 264240, Note_on_c, 0, 61, 49
2, 264240, Note_on_c, 0, 64, 49
2, 264360, Note_on_c, 0, 64, 0
2, 264360, Note_on_c, 0, 61, 0
2, 264360, Note_on_c, 0, 57, 0
2, 264360, Note_on_c, 0, 57, 49
2, 264360, Note_on_c, 0, 61, 49
2, 264360, Note_on_c, 0, 64, 49
2, 264480, Note_on_c, 0, 64, 0
2, 264480, Note_on_c, 0, 61, 0
2, 264480, Note_on_c, 0, 57, 0
2, 264480, Note_on_c, 0, 57, 49
2, 264480, Note_on_c, 0, 61, 49
2, 264480, Note_on_c, 0, 64, 49
2, 264600, Note_on_c, 0, 64, 0
2, 264600, Note_on_c, 0, 61, 0
2, 264600, Note_on_c, 0, 57, 0
2, 264600, Note_on_c, 0, 57, 49
2, 264600, Note_on_c, 0, 61, 49
2, 264600, Note_on_c, 0, 64, 49
2, 264720, Note_on_c, 0, 64, 0
2, 264720, Note_on_c, 0, 61, 0
2, 264720, Note_on_c, 0, 57, 0
2, 264720, Note_on_c, 0, 57, 49
2, 264720, Note_on_c, 0, 61, 49
2, 264720, Note_on_c, 0, 64, 49
2, 264840, Note_on_c, 0, 64, 0
2, 264840, Note_on_c, 0, 61, 0
2, 264840, Note_on_c, 0, 57, 0
2, 264840, Note_on_c, 0, 57, 49
2, 264840, Note_on_c, 0, 61, 49
2, 264840, Note_on_c, 0, 64, 49
2, 264960, Note_on_c, 0, 64, 0
2, 264960, Note_on_c, 0, 61, 0
2, 264960, Note_on_c, 0, 57, 0
2, 265200, Note_on_c, 0, 64, 62
2, 265440, Note_on_c, 0, 64, 0
2, 265440, Note_on_c, 0, 66, 62
2, 265680, Note_on_c, 0, 66, 0
2, 265680, Note_on_c, 0, 68, 62
2, 265920, Note_on_c, 0, 68, 0
2, 265920, Note_on_c, 0, 69, 62
2, 266280, Note_on_c, 0, 69, 0
2, 266280, Note_on_c, 0, 68, 62
2, 266400, Note_on_c, 0, 68, 0
2, 266400, Note_on_c, 0, 66, 62
2, 266640, Note_on_c, 0, 66, 0
2, 267120, Note_on_c, 0, 66, 75
2, 267360, Note_on_c, 0, 66, 0
2, 267360, Note_on_c, 0, 68, 75
2, 267600, Note_on_c, 0, 68, 0
2, 267600, Note_on_c, 0, 69, 75
2, 267840, Note_on_c, 0, 69, 0
2, 267840, Note_on_c, 0, 71, 75
2, 268200, Note_on_c, 0, 71, 0
2, 268200, Note_on_c, 0, 69, 75
2, 268320, Note_on_c, 0, 69, 0
2, 268320, Note_on_c, 0, 68, 75
2, 268560, Note_on_c, 0, 68, 0
2, 269040, Note_on_c, 0, 68, 75
2, 269280, Note_on_c, 0, 68, 0
2, 269280, Note_on_c, 0, 73, 75
2, 269520, Note_on_c, 0, 73, 0
2, 269520, Note_on_c, 0, 68, 75
2, 269760, Note_on_c, 0, 68, 0
2, 270000, Note_on_c, 0, 69, 75
2, 270240, Note_on_c, 0, 69, 0
2, 270240, Note_on_c, 0, 74, 75
2, 270480, Note_on_c, 0, 74, 0
2, 270480, Note_on_c, 0, 69, 75
2, 270720, Note_on_c, 0, 69, 0
2, 270960, Note_on_c, 0, 71, 75
2, 271200, Note_on_c, 0, 71, 0
2, 271200, Note_on_c, 0, 75, 75
2, 271440, Note_on_c, 0, 75, 0
2, 271440, Note_on_c, 0, 71, 75
2, 271680, Note_on_c, 0, 71, 0
2, 271920, Note_on_c, 0, 72, 88
2, 272160, Note_on_c, 0, 72, 0
2, 272160, Note_on_c, 0, 76, 88
2, 272400, Note_on_c, 0, 76, 0
2, 272400, Note_on_c, 0, 72, 88
2, 272640, Note_on_c, 0, 72, 0
2, 272880, Note_on_c, 0, 76, 114
2, 273120, Note_on_c, 0, 76, 0
2, 273120, Note_on_c, 0, 78, 114
2, 273360, Note_on_c, 0, 78, 0
2, 273360, Note_on_c, 0, 80, 114
2, 273600, Note_on_c, 0, 80, 0
2, 273600, Note_on_c, 0, 81, 114
2, 273960, Note_on_c, 0, 81, 0
2, 273960, Note_on_c, 0, 80, 88
2, 274080, Note_on_c, 0, 80, 0
2, 274080, Note_on_c, 0, 78, 88
2, 274320, Note_on_c, 0, 78, 0
2, 274800, Note_on_c, 0, 78, 114
2, 275040, Note_on_c, 0, 78, 0
2, 275040, Note_on_c, 0, 80, 114
2, 275280, Note_on_c, 0, 80, 0
2, 275280, Note_on_c, 0, 81, 114
2, 275520, Note_on_c, 0, 81, 0
2, 275520, Note_on_c, 0, 83, 114
2, 275880, Note_on_c, 0, 83, 0
2, 275880, Note_on_c, 0, 81, 88
2, 276000, Note_on_c, 0, 81, 0
2, 276000, Note_on_c, 0, 80, 88
2, 276240, Note_on_c, 0, 80, 0
2, 276720, Note_on_c, 0, 81, 114
2, 276960, Note_on_c, 0, 81, 0
2, 276960, Note_on_c, 0, 84, 114
2, 277200, Note_on_c, 0, 84, 0
2, 277200, Note_on_c, 0, 81, 114
2, 277440, Note_on_c, 0, 81, 0
2, 277680, Note_on_c, 0, 82, 114
2, 277920, Note_on_c, 0, 82, 0
2, 277920, Note_on_c, 0, 85, 114
2, 278160, Note_on_c, 0, 85, 0
2, 278160, Note_on_c, 0, 82, 114
2, 278400, Note_on_c, 0, 82, 0
2, 278640, Note_on_c, 0, 83, 114
2, 278880, Note_on_c, 0, 83, 0
2, 278880, Note_on_c, 0, 86, 114
2, 279120, Note_on_c, 0, 86, 0
2, 279120, Note_on_c, 0, 83, 114
2, 279360, Note_on_c, 0, 83, 0
2, 279600, Note_on_c, 0, 84, 114
2, 279840, Note_on_c, 0, 84, 0
2, 279840, Note_on_c, 0, 87, 114
2, 280080, Note_on_c, 0, 87, 0
2, 280080, Note_on_c, 0, 84, 114
2, 280320, Note_on_c, 0, 84, 0
2, 280560, Note_on_c, 0, 85, 114
2, 280800, Note_on_c, 0, 85, 0
2, 280800, Note_on_c, 0, 88, 114
2, 281040, Note_on_c, 0, 88, 0
2, 281040, Note_on_c, 0, 85, 114
2, 281280, Note_on_c, 0, 85, 0
2, 281520, Note_on_c, 0, 87, 127
2, 281760, Note_on_c, 0, 87, 0
2, 281760, Note_on_c, 0, 90, 127
2, 282000, Note_on_c, 0, 90, 0
2, 282000, Note_on_c, 0, 87, 127
2, 282240, Note_on_c, 0, 87, 0
2, 282480, Note_on_c, 0, 88, 127
2, 282720, Note_on_c, 0, 88, 0
2, 282720, Note_on_c, 0, 88, 127
2, 282720, Note_on_c, 0, 91, 127
2, 282960, Note_on_c, 0, 91, 0
2, 282960, Note_on_c, 0, 88, 0
2, 282960, Note_on_c, 0, 88, 127
2, 283200, Note_on_c, 0, 88, 0
2, 283440, Note_on_c, 0, 88, 127
2, 283680, Note_on_c, 0, 88, 0
2, 283680, Note_on_c, 0, 88, 127
2, 283680, Note_on_c, 0, 91, 127
2, 283920, Note_on_c, 0, 91, 0
2, 283920, Note_on_c, 0, 88, 0
2, 283920, Note_on_c, 0, 88, 127
2, 284160, Note_on_c, 0, 88, 0
2, 284400, Note_on_c, 0, 88, 127
2, 284640, Note_on_c, 0, 88, 0
2, 284640, Note_on_c, 0, 88, 127
2, 284640, Note_on_c, 0, 92, 127
2, 284880, Note_on_c, 0, 92, 0
2, 284880, Note_on_c, 0, 88, 0
2, 284880, Note_on_c, 0, 88, 127
2, 285120, Note_on_c, 0, 88, 0
2, 285360, Note_on_c, 0, 88, 127
2, 285600, Note_on_c, 0, 88, 0
2, 285600, Note_on_c, 0, 88, 127
2, 285600, Note_on_c, 0, 92, 127
2, 285840, Note_on_c, 0, 92, 0
2, 285840, Note_on_c, 0, 88, 0
2, 285840, Note_on_c, 0, 88, 127
2, 286080, Note_on_c, 0, 88, 0
2, 286320, Note_on_c, 0, 88, 114
2, 286560, Note_on_c, 0, 88, 0
2, 286560, Note_on_c, 0, 93, 114
2, 286800, Note_on_c, 0, 93, 0
2, 286800, Note_on_c, 0, 88, 114
2, 287040, Note_on_c, 0, 88, 0
2, 287280, Note_on_c, 0, 85, 114
2, 287520, Note_on_c, 0, 85, 0
2, 287520, Note_on_c, 0, 88, 114
2, 287760, Note_on_c, 0, 88, 0
2, 287760, Note_on_c, 0, 85, 114
2, 288000, Note_on_c, 0, 85, 0
2, 288240, Note_on_c, 0, 81, 114
2, 288480, Note_on_c, 0, 81, 0
2, 288480, Note_on_c, 0, 85, 114
2, 288720, Note_on_c, 0, 85, 0
2, 288720, Note_on_c, 0, 81, 114
2, 288960, Note_on_c, 0, 81, 0
2, 289200, Note_on_c, 0, 76, 114
2, 289440, Note_on_c, 0, 76, 0
2, 289440, Note_on_c, 0, 81, 114
2, 289680, Note_on_c, 0, 81, 0
2, 289680, Note_on_c, 0, 76, 114
2, 289920, Note_on_c, 0, 76, 0
2, 290160, Note_on_c, 0, 73, 114
2, 290400, Note_on_c, 0, 73, 0
2, 290400, Note_on_c, 0, 76, 114
2, 290640, Note_on_c, 0, 76, 0
2, 290640, Note_on_c, 0, 73, 114
2, 290880, Note_on_c, 0, 73, 0
2, 291120, Note_on_c, 0, 81, 114
2, 291360, Note_on_c, 0, 81, 0
2, 291360, Note_on_c, 0, 85, 114
2, 291600, Note_on_c, 0, 85, 0
2, 291600, Note_on_c, 0, 81, 114
2, 291840, Note_on_c, 0, 81, 0
2, 292080, Note_on_c, 0, 76, 114
2, 292320, Note_on_c, 0, 76, 0
2, 292320, Note_on_c, 0, 81, 114
2, 292560, Note_on_c, 0, 81, 0
2, 292560, Note_on_c, 0, 76, 114
2, 292800, Note_on_c, 0, 76, 0
2, 293040, Note_on_c, 0, 73, 114
2, 293280, Note_on_c, 0, 73, 0
2, 293280, Note_on_c, 0, 76, 114
2, 293520, Note_on_c, 0, 76, 0
2, 293520, Note_on_c, 0, 73, 114
2, 293760, Note_on_c, 0, 73, 0
2, 293760, Note_on_c, 0, 61, 114
2, 293760, Note_on_c, 0, 64, 114
2, 293760, Note_on_c, 0, 69, 114
2, 294000, Note_on_c, 0, 69, 0
2, 294000, Note_on_c, 0, 64, 0
2, 294000, Note_on_c, 0, 61, 0
2, 294240, Control_c, 0, 64, 127
2, 294240, Note_on_c, 0, 57, 101
2, 294308, Note_on_c, 0, 57, 0
2, 294308, Note_on_c, 0, 59, 101
2, 294377, Note_on_c, 0, 59, 0
2, 294377, Note_on_c, 0, 61, 101
2, 294445, Note_on_c, 0, 61, 0
2, 294445, Note_on_c, 0, 62, 101
2, 294514, Note_on_c, 0, 62, 0
2, 294514, Note_on_c, 0, 64, 101
2, 294582, Note_on_c, 0, 64, 0
2, 294582, Note_on_c, 0, 66, 101
2, 294651, Note_on_c, 0, 66, 0
2, 294651, Control_c, 0, 64, 0
2, 294651, Note_on_c, 0, 68, 101
2, 294720, Note_on_c, 0, 68, 0
2, 294720, Control_c, 0, 64, 127
2, 294720, Note_on_c, 0, 69, 101
2, 294788, Note_on_c, 0, 69, 0
2, 294788, Note_on_c, 0, 71, 101
2, 294857, Note_on_c, 0, 71, 0
2, 294857, Note_on_c, 0, 73, 101
2, 294925, Note_on_c, 0, 73, 0
2, 294925, Note_on_c, 0, 74, 101
2, 294994, Note_on_c, 0, 74, 0
2, 294994, Note_on_c, 0, 76, 101
2, 295062, Note_on_c, 0, 76, 0
2, 295062, Note_on_c, 0, 78, 101
2, 295131, Note_on_c, 0, 78, 0
2, 295131, Control_c, 0, 64, 0
2, 295131, Note_on_c, 0, 80, 101
2, 295200, Note_on_c, 0, 80, 0
2, 295200, Control_c, 0, 64, 127
2, 295200, Note_on_c, 0, 81, 101
2, 295268, Note_on_c, 0, 81, 0
2, 295268, Note_on_c, 0, 83, 101
2, 295337, Note_on_c, 0, 83, 0
2, 295337, Note_on_c, 0, 85, 101
2, 295405, Note_on_c, 0, 85, 0
2, 295405, Note_on_c, 0, 86, 101
2, 295474, Note_on_c, 0, 86, 0
2, 295474, Note_on_c, 0, 88, 101
2, 295542, Note_on_c, 0, 88, 0
2, 295542, Note_on_c, 0, 90, 101
2, 295611, Note_on_c, 0, 90, 0
2, 295611, Control_c, 0, 64, 0
2, 295611, Note_on_c, 0, 92, 101
2, 295680, Note_on_c, 0, 92, 0
2, 295680, Control_c, 0, 64, 127
2, 295680, Note_on_c, 0, 93, 101
2, 295760, Note_on_c, 0, 93, 0
2, 295760, Note_on_c, 0, 84, 101
2, 295839, Note_on_c, 0, 84, 0
2, 295839, Note_on_c, 0, 89, 101
2, 295920, Note_on_c, 0, 89, 0
2, 295920, Note_on_c, 0, 81, 101
2, 296000, Note_on_c, 0, 81, 0
2, 296000, Note_on_c, 0, 93, 101
2, 296079, Note_on_c, 0, 93, 0
2, 296079, Control_c, 0, 64, 0
2, 296079, Note_on_c, 0, 84, 101
2, 296160, Note_on_c, 0, 84, 0
2, 296160, Control_c, 0, 64, 127
2, 296160, Note_on_c, 0, 89, 101
2, 296240, Note_on_c, 0, 89, 0
2, 296240, Note_on_c, 0, 81, 101
2, 296319, Note_on_c, 0, 81, 0
2, 296319, Note_on_c, 0, 93, 101
2, 296400, Note_on_c, 0, 93, 0
2, 296400, Note_on_c, 0, 84, 101
2, 296480, Note_on_c, 0, 84, 0
2, 296480, Note_on_c, 0, 89, 101
2, 296559, Note_on_c, 0, 89, 0
2, 296559, Control_c, 0, 64, 0
2, 296559, Note_on_c, 0, 81, 101
2, 296640, Note_on_c, 0, 81, 0
2, 296640, Control_c, 0, 64, 127
2, 296640, Note_on_c, 0, 93, 101
2, 296720, Note_on_c, 0, 93, 0
2, 296720, Note_on_c, 0, 84, 101
2, 296799, Note_on_c, 0, 84, 0
2, 296799, Note_on_c, 0, 89, 101
2, 296880, Note_on_c, 0, 89, 0
2, 296880, Note_on_c, 0, 81, 101
2, 296960, Note_on_c, 0, 81, 0
2, 296960, Note_on_c, 0, 93, 101
2, 297039, Note_on_c, 0, 93, 0
2, 297039, Control_c, 0, 64, 0
2, 297039, Note_on_c, 0, 84, 101
2, 297120, Note_on_c, 0, 84, 0
2, 297120, Control_c, 0, 64, 127
2, 297120, Note_on_c, 0, 89, 101
2, 297200, Note_on_c, 0, 89, 0
2, 297200, Note_on_c, 0, 81, 101
2, 297279, Note_on_c, 0, 81, 0
2, 297279, Note_on_c, 0, 93, 101
2, 297360, Note_on_c, 0, 93, 0
2, 297360, Note_on_c, 0, 84, 101
2, 297440, Note_on_c, 0, 84, 0
2, 297440, Note_on_c, 0, 89, 101
2, 297519, Note_on_c, 0, 89, 0
2, 297519, Control_c, 0, 64, 0
2, 297519, Note_on_c, 0, 81, 101
2, 297600, Note_on_c, 0, 81, 0
2, 297600, Note_on_c, 0, 93, 101
2, 297840, Note_on_c, 0, 93, 0
2, 298080, Control_c, 0, 64, 127
2, 298080, Note_on_c, 0, 57, 101
2, 298148, Note_on_c, 0, 57, 0
2, 298148, Note_on_c, 0, 59, 101
2, 298217, Note_on_c, 0, 59, 0
2, 298217, Note_on_c, 0, 61, 101
2, 298285, Note_on_c, 0, 61, 0
2, 298285, Note_on_c, 0, 62, 101
2, 298354, Note_on_c, 0, 62, 0
2, 298354, Note_on_c, 0, 64, 101
2, 298422, Note_on_c, 0, 64, 0
2, 298422, Note_on_c, 0, 66, 101
2, 298491, Note_on_c, 0, 66, 0
2, 298491, Control_c, 0, 64, 0
2, 298491, Note_on_c, 0, 68, 101
2, 298560, Note_on_c, 0, 68, 0
2, 298560, Control_c, 0, 64, 127
2, 298560, Note_on_c, 0, 69, 101
2, 298628, Note_on_c, 0, 69, 0
2, 298628, Note_on_c, 0, 71, 101
2, 298697, Note_on_c, 0, 71, 0
2, 298697, Note_on_c, 0, 73, 101
2, 298765, Note_on_c, 0, 73, 0
2, 298765, Note_on_c, 0, 74, 101
2, 298834, Note_on_c, 0, 74, 0
2, 298834, Note_on_c, 0, 76, 101
2, 298902, Note_on_c, 0, 76, 0
2, 298902, Note_on_c, 0, 78, 101
2, 298971, Note_on_c, 0, 78, 0
2, 298971, Control_c, 0, 64, 0
2, 298971, Note_on_c, 0, 80, 101
2, 299040, Note_on_c, 0, 80, 0
2, 299040, Control_c, 0, 64, 127
2, 299040, Note_on_c, 0, 81, 101
2, 299108, Note_on_c, 0, 81, 0
2, 299108, Note_on_c, 0, 83, 101
2, 299177, Note_on_c, 0, 83, 0
2, 299177, Note_on_c, 0, 85, 101
2, 299245, Note_on_c, 0, 85, 0
2, 299245, Note_on_c, 0, 86, 101
2, 299314, Note_on_c, 0, 86, 0
2, 299314, Note_on_c, 0, 88, 101
2, 299382, Note_on_c, 0, 88, 0
2, 299382, Note_on_c, 0, 90, 101
2, 299451, Note_on_c, 0, 90, 0
2, 299451, Control_c, 0, 64, 0
2, 299451, Note_on_c, 0, 92, 101
2, 299520, Note_on_c, 0, 92, 0
2, 299520, Control_c, 0, 64, 127
2, 299520, Note_on_c, 0, 93, 101
2, 299600, Note_on_c, 0, 93, 0
2, 299600, Note_on_c, 0, 84, 101
2, 299679, Note_on_c, 0, 84, 0
2, 299679, Note_on_c, 0, 89, 101
2, 299760, Note_on_c, 0, 89, 0
2, 299760, Note_on_c, 0, 81, 101
2, 299840, Note_on_c, 0, 81, 0
2, 299840, Note_on_c, 0, 93, 101
2, 299919, Note_on_c, 0, 93, 0
2, 299919, Control_c, 0, 64, 0
2, 299919, Note_on_c, 0, 84, 101
2, 300000, Note_on_c, 0, 84, 0
2, 300000, Control_c, 0, 64, 127
2, 300000, Note_on_c, 0, 89, 101
2, 300080, Note_on_c, 0, 89, 0
2, 300080, Note_on_c, 0, 81, 101
2, 300159, Note_on_c, 0, 81, 0
2, 300159, Note_on_c, 0, 93, 101
2, 300240, Note_on_c, 0, 93, 0
2, 300240, Note_on_c, 0, 84, 101
2, 300320, Note_on_c, 0, 84, 0
2, 300320, Note_on_c, 0, 89, 101
2, 300399, Note_on_c, 0, 89, 0
2, 300399, Control_c, 0, 64, 0
2, 300399, Note_on_c, 0, 81, 101
2, 300480, Note_on_c, 0, 81, 0
2, 300480, Control_c, 0, 64, 127
2, 300480, Note_on_c, 0, 93, 101
2, 300560, Note_on_c, 0, 93, 0
2, 300560, Note_on_c, 0, 84, 101
2, 300639, Note_on_c, 0, 84, 0
2, 300639, Note_on_c, 0, 89, 101
2, 300720, Note_on_c, 0, 89, 0
2, 300720, Note_on_c, 0, 81, 101
2, 300800, Note_on_c, 0, 81, 0
2, 300800, Note_on_c, 0, 93, 101
2, 300879, Note_on_c, 0, 93, 0
2, 300879, Control_c, 0, 64, 0
2, 300879, Note_on_c, 0, 84, 101
2, 300960, Note_on_c, 0, 84, 0
2, 300960, Control_c, 0, 64, 127
2, 300960, Note_on_c, 0, 89, 101
2, 301040, Note_on_c, 0, 89, 0
2, 301040, Note_on_c, 0, 81, 101
2, 301119, Note_on_c, 0, 81, 0
2, 301119, Note_on_c, 0, 93, 101
2, 301200, Note_on_c, 0, 93, 0
2, 301200, Note_on_c, 0, 84, 101
2, 301280, Note_on_c, 0, 84, 0
2, 301280, Note_on_c, 0, 89, 101
2, 301359, Note_on_c, 0, 89, 0
2, 301359, Control_c, 0, 64, 0
2, 301359, Note_on_c, 0, 81, 101
2, 301440, Note_on_c, 0, 81, 0
2, 301440, Control_c, 0, 64, 127
2, 301440, Note_on_c, 0, 93, 101
2, 301520, Note_on_c, 0, 93, 0
2, 301520, Note_on_c, 0, 85, 101
2, 301599, Note_on_c, 0, 85, 0
2, 301599, Note_on_c, 0, 88, 101
2, 301680, Note_on_c, 0, 88, 0
2, 301680, Note_on_c, 0, 81, 101
2, 301760, Note_on_c, 0, 81, 0
2, 301760, Note_on_c, 0, 93, 101
2, 301839, Note_on_c, 0, 93, 0
2, 301839, Control_c, 0, 64, 0
2, 301839, Note_on_c, 0, 85, 101
2, 301920, Note_on_c, 0, 85, 0
2, 301920, Control_c, 0, 64, 127
2, 301920, Note_on_c, 0, 88, 101
2, 302000, Note_on_c, 0, 88, 0
2, 302000, Note_on_c, 0, 81, 101
2, 302079, Note_on_c, 0, 81, 0
2, 302079, Note_on_c, 0, 93, 101
2, 302160, Note_on_c, 0, 93, 0
2, 302160, Note_on_c, 0, 85, 101
2, 302240, Note_on_c, 0, 85, 0
2, 302240, Note_on_c, 0, 88, 101
2, 302319, Note_on_c, 0, 88, 0
2, 302319, Control_c, 0, 64, 0
2, 302319, Note_on_c, 0, 81, 101
2, 302400, Note_on_c, 0, 81, 0
2, 302400, Control_c, 0, 64, 127
2, 302400, Note_on_c, 0, 93, 101
2, 302480, Note_on_c, 0, 93, 0
2, 302480, Note_on_c, 0, 85, 101
2, 302559, Note_on_c, 0, 85, 0
2, 302559, Note_on_c, 0, 88, 101
2, 302640, Note_on_c, 0, 88, 0
2, 302640, Note_on_c, 0, 81, 101
2, 302720, Note_on_c, 0, 81, 0
2, 302720, Note_on_c, 0, 93, 101
2, 302799, Note_on_c, 0, 93, 0
2, 302799, Control_c, 0, 64, 0
2, 302799, Note_on_c, 0, 85, 101
2, 302880, Note_on_c, 0, 85, 0
2, 302880, Control_c, 0, 64, 127
2, 302880, Note_on_c, 0, 88, 101
2, 302960, Note_on_c, 0, 88, 0
2, 302960, Note_on_c, 0, 81, 101
2, 303039, Note_on_c, 0, 81, 0
2, 303039, Note_on_c, 0, 93, 101
2, 303120, Note_on_c, 0, 93, 0
2, 303120, Note_on_c, 0, 85, 101
2, 303200, Note_on_c, 0, 85, 0
2, 303200, Note_on_c, 0, 88, 101
2, 303279, Note_on_c, 0, 88, 0
2, 303279, Control_c, 0, 64, 0
2, 303279, Note_on_c, 0, 81, 101
2, 303360, Note_on_c, 0, 81, 0
2, 303360, Control_c, 0, 64, 127
2, 303360, Note_on_c, 0, 93, 101
2, 303440, Note_on_c, 0, 93, 0
2, 303440, Note_on_c, 0, 85, 101
2, 303519, Note_on_c, 0, 85, 0
2, 303519, Note_on_c, 0, 88, 101
2, 303600, Note_on_c, 0, 88, 0
2, 303600, Note_on_c, 0, 81, 101
2, 303680, Note_on_c, 0, 81, 0
2, 303680, Note_on_c, 0, 93, 101
2, 303759, Note_on_c, 0, 93, 0
2, 303759, Control_c, 0, 64, 0
2, 303759, Note_on_c, 0, 85, 101
2, 303840, Note_on_c, 0, 85, 0
2, 303840, Control_c, 0, 64, 127
2, 303840, Note_on_c, 0, 88, 101
2, 303920, Note_on_c, 0, 88, 0
2, 303920, Note_on_c, 0, 81, 101
2, 303999, Note_on_c, 0, 81, 0
2, 303999, Note_on_c, 0, 93, 101
2, 304080, Note_on_c, 0, 93, 0
2, 304080, Note_on_c, 0, 85, 101
2, 304160, Note_on_c, 0, 85, 0
2, 304160, Note_on_c, 0, 88, 101
2, 304239, Note_on_c, 0, 88, 0
2, 304239, Control_c, 0, 64, 0
2, 304239, Note_on_c, 0, 81, 101
2, 304320, Note_on_c, 0, 81, 0
2, 304320, Control_c, 0, 64, 127
2, 304320, Note_on_c, 0, 93, 101
2, 304400, Note_on_c, 0, 93, 0
2, 304400, Note_on_c, 0, 85, 101
2, 304479, Note_on_c, 0, 85, 0
2, 304479, Note_on_c, 0, 88, 101
2, 304560, Note_on_c, 0, 88, 0
2, 304560, Note_on_c, 0, 81, 101
2, 304640, Note_on_c, 0, 81, 0
2, 304640, Note_on_c, 0, 93, 101
2, 304719, Note_on_c, 0, 93, 0
2, 304719, Control_c, 0, 64, 0
2, 304719, Note_on_c, 0, 85, 101
2, 304800, Note_on_c, 0, 85, 0
2, 304800, Control_c, 0, 64, 127
2, 304800, Note_on_c, 0, 88, 101
2, 304880, Note_on_c, 0, 88, 0
2, 304880, Note_on_c, 0, 81, 101
2, 304959, Note_on_c, 0, 81, 0
2, 304959, Note_on_c, 0, 93, 101
2, 305040, Note_on_c, 0, 93, 0
2, 305040, Note_on_c, 0, 85, 101
2, 305120, Note_on_c, 0, 85, 0
2, 305120, Note_on_c, 0, 88, 101
2, 305199, Note_on_c, 0, 88, 0
2, 305199, Control_c, 0, 64, 0
2, 305199, Note_on_c, 0, 81, 101
2, 305280, Note_on_c, 0, 81, 0
2, 305280, Control_c, 0, 64, 127
2, 305280, Note_on_c, 0, 93, 101
2, 305360, Note_on_c, 0, 93, 0
2, 305360, Note_on_c, 0, 85, 101
2, 305439, Note_on_c, 0, 85, 0
2, 305439, Note_on_c, 0, 88, 101
2, 305520, Note_on_c, 0, 88, 0
2, 305520, Note_on_c, 0, 81, 101
2, 305600, Note_on_c, 0, 81, 0
2, 305600, Note_on_c, 0, 93, 101
2, 305679, Note_on_c, 0, 93, 0
2, 305679, Control_c, 0, 64, 0
2, 305679, Note_on_c, 0, 85, 101
2, 305760, Note_on_c, 0, 85, 0
2, 305760, Control_c, 0, 64, 127
2, 305760, Note_on_c, 0, 88, 101
2, 305840, Note_on_c, 0, 88, 0
2, 305840, Note_on_c, 0, 81, 101
2, 305919, Note_on_c, 0, 81, 0
2, 305919, Note_on_c, 0, 93, 101
2, 306000, Note_on_c, 0, 93, 0
2, 306000, Note_on_c, 0, 85, 101
2, 306080, Note_on_c, 0, 85, 0
2, 306080, Note_on_c, 0, 88, 101
2, 306159, Note_on_c, 0, 88, 0
2, 306159, Control_c, 0, 64, 0
2, 306159, Note_on_c, 0, 81, 101
2, 306240, Note_on_c, 0, 81, 0
2, 306240, Control_c, 0, 64, 127
2, 306240, Note_on_c, 0, 93, 101
2, 306320, Note_on_c, 0, 93, 0
2, 306320, Note_on_c, 0, 85, 101
2, 306399, Note_on_c, 0, 85, 0
2, 306399, Note_on_c, 0, 88, 101
2, 306480, Note_on_c, 0, 88, 0
2, 306480, Note_on_c, 0, 81, 101
2, 306560, Note_on_c, 0, 81, 0
2, 306560, Note_on_c, 0, 93, 101
2, 306639, Note_on_c, 0, 93, 0
2, 306639, Control_c, 0, 64, 0
2, 306639, Note_on_c, 0, 85, 101
2, 306720, Note_on_c, 0, 85, 0
2, 306720, Control_c, 0, 64, 127
2, 306720, Note_on_c, 0, 88, 101
2, 306800, Note_on_c, 0, 88, 0
2, 306800, Note_on_c, 0, 81, 101
2, 306879, Note_on_c, 0, 81, 0
2, 306879, Note_on_c, 0, 93, 101
2, 306960, Note_on_c, 0, 93, 0
2, 306960, Note_on_c, 0, 85, 101
2, 307040, Note_on_c, 0, 85, 0
2, 307040, Note_on_c, 0, 88, 101
2, 307119, Note_on_c, 0, 88, 0
2, 307119, Control_c, 0, 64, 0
2, 307119, Note_on_c, 0, 81, 101
2, 307200, Note_on_c, 0, 81, 0
2, 307200, Note_on_c, 0, 93, 101
2, 307440, Note_on_c, 0, 93, 0
2, 309120, Control_c, 0, 64, 127
2, 309120, Note_on_c, 0, 72, 49
2, 309120, Note_on_c, 0, 75, 49
2, 309240, Note_on_c, 0, 75, 0
2, 309240, Note_on_c, 0, 72, 0
2, 309240, Note_on_c, 0, 69, 49
2, 309360, Note_on_c, 0, 69, 0
2, 309360, Note_on_c, 0, 72, 49
2, 309360, Note_on_c, 0, 75, 49
2, 309480, Note_on_c, 0, 75, 0
2, 309480, Note_on_c, 0, 72, 0
2, 309480, Note_on_c, 0, 69, 49
2, 309600, Note_on_c, 0, 69, 0
2, 309600, Note_on_c, 0, 72, 49
2, 309600, Note_on_c, 0, 75, 49
2, 309720, Note_on_c, 0, 75, 0
2, 309720, Note_on_c, 0, 72, 0
2, 309720, Note_on_c, 0, 69, 49
2, 309840, Note_on_c, 0, 69, 0
2, 309840, Note_on_c, 0, 72, 49
2, 309840, Note_on_c, 0, 75, 49
2, 309960, Note_on_c, 0, 75, 0
2, 309960, Note_on_c, 0, 72, 0
2, 309960, Control_c, 0, 64, 0
2, 309960, Note_on_c, 0, 69, 49
2, 310080, Note_on_c, 0, 69, 0
2, 310080, Control_c, 0, 64, 127
2, 310080, Note_on_c, 0, 72, 49
2, 310080, Note_on_c, 0, 75, 49
2, 310200, Note_on_c, 0, 75, 0
2, 310200, Note_on_c, 0, 72, 0
2, 310200, Note_on_c, 0, 69, 49
2, 310320, Note_on_c, 0, 69, 0
2, 310320, Note_on_c, 0, 72, 49
2, 310320, Note_on_c, 0, 75, 49
2, 310440, Note_on_c, 0, 75, 0
2, 310440, Note_on_c, 0, 72, 0
2, 310440, Note_on_c, 0, 69, 49
2, 310560, Note_on_c, 0, 69, 0
2, 310560, Note_on_c, 0, 72, 49
2, 310560, Note_on_c, 0, 75, 49
2, 310680, Note_on_c, 0, 75, 0
2, 310680, Note_on_c, 0, 72, 0
2, 310680, Note_on_c, 0, 69, 49
2, 310800, Note_on_c, 0, 69, 0
2, 310800, Note_on_c, 0, 72, 49
2, 310800, Note_on_c, 0, 75, 49
2, 310920, Note_on_c, 0, 75, 0
2, 310920, Note_on_c, 0, 72, 0
2, 310920, Control_c, 0, 64, 0
2, 310920, Note_on_c, 0, 69, 49
2, 311040, Note_on_c, 0, 69, 0
2, 311040, Control_c, 0, 64, 127
2, 311040, Note_on_c, 0, 72, 49
2, 311160, Note_on_c, 0, 72, 0
2, 311160, Note_on_c, 0, 69, 49
2, 311280, Note_on_c, 0, 69, 0
2, 311280, Note_on_c, 0, 72, 49
2, 311400, Note_on_c, 0, 72, 0
2, 311400, Control_c, 0, 64, 0
2, 311400, Note_on_c, 0, 69, 49
2, 311520, Note_on_c, 0, 69, 0
2, 311520, Control_c, 0, 64, 127
2, 311520, Note_on_c, 0, 72, 49
2, 311520, Note_on_c, 0, 78, 49
2, 311640, Note_on_c, 0, 78, 0
2, 311640, Note_on_c, 0, 72, 0
2, 311640, Note_on_c, 0, 69, 49
2, 311760, Note_on_c, 0, 69, 0
2, 311760, Note_on_c, 0, 72, 49
2, 311760, Note_on_c, 0, 78, 49
2, 311880, Note_on_c, 0, 78, 0
2, 311880, Note_on_c, 0, 72, 0
2, 311880, Note_on_c, 0, 69, 49
2, 312000, Note_on_c, 0, 69, 0
2, 312000, Note_on_c, 0, 72, 49
2, 312000, Note_on_c, 0, 78, 49
2, 312120, Note_on_c, 0, 78, 0
2, 312120, Note_on_c, 0, 72, 0
2, 312120, Note_on_c, 0, 69, 49
2, 312240, Note_on_c, 0, 69, 0
2, 312240, Note_on_c, 0, 72, 49
2, 312240, Note_on_c, 0, 78, 49
2, 312360, Note_on_c, 0, 78, 0
2, 312360, Note_on_c, 0, 72, 0
2, 312360, Note_on_c, 0, 69, 49
2, 312480, Note_on_c, 0, 69, 0
2, 312480, Note_on_c, 0, 72, 49
2, 312480, Note_on_c, 0, 78, 49
2, 312600, Note_on_c, 0, 78, 0
2, 312600, Note_on_c, 0, 72, 0
2, 312600, Note_on_c, 0, 69, 49
2, 312720, Note_on_c, 0, 69, 0
2, 312720, Note_on_c, 0, 72, 49
2, 312720, Note_on_c, 0, 78, 49
2, 312840, Note_on_c, 0, 78, 0
2, 312840, Note_on_c, 0, 72, 0
2, 312840, Control_c, 0, 64, 0
2, 312840, Note_on_c, 0, 69, 49
2, 312960, Note_on_c, 0, 69, 0
2, 312960, Control_c, 0, 64, 127
2, 312960, Note_on_c, 0, 72, 49
2, 312960, Note_on_c, 0, 79, 49
2, 313080, Note_on_c, 0, 79, 0
2, 313080, Note_on_c, 0, 72, 0
2, 313080, Note_on_c, 0, 69, 49
2, 313200, Note_on_c, 0, 69, 0
2, 313200, Note_on_c, 0, 72, 49
2, 313200, Note_on_c, 0, 79, 49
2, 313320, Note_on_c, 0, 79, 0
2, 313320, Note_on_c, 0, 72, 0
2, 313320, Control_c, 0, 64, 0
2, 313320, Note_on_c, 0, 69, 49
2, 313440, Note_on_c, 0, 69, 0
2, 313440, Control_c, 0, 64, 127
2, 313440, Note_on_c, 0, 72, 49
2, 313440, Note_on_c, 0, 78, 49
2, 313560, Note_on_c, 0, 78, 0
2, 313560, Note_on_c, 0, 72, 0
2, 313560, Note_on_c, 0, 69, 49
2, 313680, Note_on_c, 0, 69, 0
2, 313680, Note_on_c, 0, 72, 49
2, 313680, Note_on_c, 0, 78, 49
2, 313800, Note_on_c, 0, 78, 0
2, 313800, Note_on_c, 0, 72, 0
2, 313800, Control_c, 0, 64, 0
2, 313800, Note_on_c, 0, 69, 49
2, 313920, Note_on_c, 0, 69, 0
2, 313920, Control_c, 0, 64, 127
2, 313920, Note_on_c, 0, 72, 49
2, 313920, Note_on_c, 0, 79, 49
2, 314040, Note_on_c, 0, 79, 0
2, 314040, Note_on_c, 0, 72, 0
2, 314040, Note_on_c, 0, 69, 49
2, 314160, Note_on_c, 0, 69, 0
2, 314160, Note_on_c, 0, 72, 49
2, 314160, Note_on_c, 0, 79, 49
2, 314280, Note_on_c, 0, 79, 0
2, 314280, Note_on_c, 0, 72, 0
2, 314280, Control_c, 0, 64, 0
2, 314280, Note_on_c, 0, 69, 49
2, 314400, Note_on_c, 0, 69, 0
2, 314400, Control_c, 0, 64, 127
2, 314400, Note_on_c, 0, 72, 49
2, 314400, Note_on_c, 0, 78, 49
2, 314520, Note_on_c, 0, 78, 0
2, 314520, Note_on_c, 0, 72, 0
2, 314520, Note_on_c, 0, 69, 49
2, 314640, Note_on_c, 0, 69, 0
2, 314640, Note_on_c, 0, 72, 49
2, 314640, Note_on_c, 0, 78, 49
2, 314760, Note_on_c, 0, 78, 0
2, 314760, Note_on_c, 0, 72, 0
2, 314760, Control_c, 0, 64, 0
2, 314760, Note_on_c, 0, 69, 49
2, 314880, Note_on_c, 0, 69, 0
2, 314880, Control_c, 0, 64, 127
2, 314880, Note_on_c, 0, 72, 49
2, 314880, Note_on_c, 0, 79, 49
2, 315000, Note_on_c, 0, 79, 0
2, 315000, Note_on_c, 0, 72, 0
2, 315000, Note_on_c, 0, 69, 49
2, 315120, Note_on_c, 0, 69, 0
2, 315120, Note_on_c, 0, 72, 49
2, 315120, Note_on_c, 0, 79, 49
2, 315240, Note_on_c, 0, 79, 0
2, 315240, Note_on_c, 0, 72, 0
2, 315240, Control_c, 0, 64, 0
2, 315240, Note_on_c, 0, 69, 49
2, 315360, Note_on_c, 0, 69, 0
2, 315360, Control_c, 0, 64, 127
2, 315360, Note_on_c, 0, 72, 49
2, 315360, Note_on_c, 0, 78, 49
2, 315480, Note_on_c, 0, 78, 0
2, 315480, Note_on_c, 0, 72, 0
2, 315480, Note_on_c, 0, 69, 49
2, 315600, Note_on_c, 0, 69, 0
2, 315600, Note_on_c, 0, 72, 49
2, 315600, Note_on_c, 0, 78, 49
2, 315720, Note_on_c, 0, 78, 0
2, 315720, Note_on_c, 0, 72, 0
2, 315720, Control_c, 0, 64, 0
2, 315720, Note_on_c, 0, 69, 49
2, 315840, Note_on_c, 0, 69, 0
2, 315840, Control_c, 0, 64, 127
2, 315840, Note_on_c, 0, 72, 49
2, 315840, Note_on_c, 0, 79, 49
2, 315960, Note_on_c, 0, 79, 0
2, 315960, Note_on_c, 0, 72, 0
2, 315960, Note_on_c, 0, 69, 49
2, 316080, Note_on_c, 0, 69, 0
2, 316080, Note_on_c, 0, 72, 49
2, 316080, Note_on_c, 0, 79, 49
2, 316200, Note_on_c, 0, 79, 0
2, 316200, Note_on_c, 0, 72, 0
2, 316200, Control_c, 0, 64, 0
2, 316200, Note_on_c, 0, 69, 49
2, 316320, Note_on_c, 0, 69, 0
2, 316320, Control_c, 0, 64, 127
2, 316320, Note_on_c, 0, 72, 49
2, 316320, Note_on_c, 0, 78, 49
2, 316440, Note_on_c, 0, 78, 0
2, 316440, Note_on_c, 0, 72, 0
2, 316440, Note_on_c, 0, 69, 49
2, 316560, Note_on_c, 0, 69, 0
2, 316560, Note_on_c, 0, 72, 49
2, 316560, Note_on_c, 0, 78, 49
2, 316680, Note_on_c, 0, 78, 0
2, 316680, Note_on_c, 0, 72, 0
2, 316680, Control_c, 0, 64, 0
2, 316680, Note_on_c, 0, 69, 49
2, 316800, Note_on_c, 0, 69, 0
2, 316800, Control_c, 0, 64, 127
2, 316800, Note_on_c, 0, 72, 62
2, 316800, Note_on_c, 0, 79, 62
2, 316920, Note_on_c, 0, 79, 0
2, 316920, Note_on_c, 0, 72, 0
2, 316920, Note_on_c, 0, 69, 62
2, 317040, Note_on_c, 0, 69, 0
2, 317040, Note_on_c, 0, 72, 62
2, 317040, Note_on_c, 0, 79, 62
2, 317160, Note_on_c, 0, 79, 0
2, 317160, Note_on_c, 0, 72, 0
2, 317160, Control_c, 0, 64, 0
2, 317160, Note_on_c, 0, 69, 62
2, 317280, Note_on_c, 0, 69, 0
2, 317280, Control_c, 0, 64, 127
2, 317280, Note_on_c, 0, 72, 75
2, 317280, Note_on_c, 0, 78, 75
2, 317400, Note_on_c, 0, 78, 0
2, 317400, Note_on_c, 0, 72, 0
2, 317400, Note_on_c, 0, 69, 75
2, 317520, Note_on_c, 0, 69, 0
2, 317520, Note_on_c, 0, 72, 88
2, 317520, Note_on_c, 0, 78, 88
2, 317640, Note_on_c, 0, 78, 0
2, 317640, Note_on_c, 0, 72, 0
2, 317640, Control_c, 0, 64, 0
2, 317640, Note_on_c, 0, 69, 88
2, 317760, Note_on_c, 0, 69, 0
2, 317760, Note_on_c, 0, 71, 101
2, 317840, Note_on_c, 0, 71, 0
2, 317840, Note_on_c, 0, 76, 101
2, 317919, Note_on_c, 0, 76, 0
2, 317919, Note_on_c, 0, 71, 101
2, 318000, Note_on_c, 0, 71, 0
2, 318000, Note_on_c, 0, 76, 127
2, 318240, Note_on_c, 0, 76, 0
2, 318240, Control_c, 0, 64, 127
2, 322080, Control_c, 0, 64, 0
2, 322080, End_track
3, 0, Start_track
3, 0, Title_t, "Grand Piano"
3, 0, Program_c, 0, 0
3, 0, Control_c, 0, 7, 115
3, 0, Control_c, 0, 10, 79
3, 3840, Note_on_c, 0, 72, 49
3, 3840, Note_on_c, 0, 76, 49
3, 4800, Note_on_c, 0, 76, 0
3, 4800, Note_on_c, 0, 72, 0
3, 4800, Note_on_c, 0, 71, 49
3, 4800, Note_on_c, 0, 77, 49
3, 5760, Note_on_c, 0, 77, 0
3, 5760, Note_on_c, 0, 71, 0
3, 5760, Note_on_c, 0, 72, 49
3, 5760, Note_on_c, 0, 76, 49
3, 6720, Note_on_c, 0, 76, 0
3, 6720, Note_on_c, 0, 72, 0
3, 6720, Note_on_c, 0, 71, 49
3, 6720, Note_on_c, 0, 77, 49
3, 7680, Note_on_c, 0, 77, 0
3, 7680, Note_on_c, 0, 71, 0
3, 11520, Note_on_c, 0, 72, 49
3, 11520, Note_on_c, 0, 76, 49
3, 12480, Note_on_c, 0, 76, 0
3, 12480, Note_on_c, 0, 72, 0
3, 12480, Note_on_c, 0, 71, 49
3, 12480, Note_on_c, 0, 77, 49
3, 13440, Note_on_c, 0, 77, 0
3, 13440, Note_on_c, 0, 71, 0
3, 13440, Note_on_c, 0, 72, 49
3, 13440, Note_on_c, 0, 76, 49
3, 14400, Note_on_c, 0, 76, 0
3, 14400, Note_on_c, 0, 72, 0
3, 14400, Note_on_c, 0, 71, 49
3, 14400, Note_on_c, 0, 77, 49
3, 15360, Note_on_c, 0, 77, 0
3, 15360, Note_on_c, 0, 71, 0
3, 15360, Note_on_c, 0, 76, 62
3, 15360, Note_on_c, 0, 79, 62
3, 16320, Note_on_c, 0, 79, 0
3, 16320, Note_on_c, 0, 76, 0
3, 16320, Note_on_c, 0, 77, 62
3, 16320, Note_on_c, 0, 83, 62
3, 17280, Note_on_c, 0, 83, 0
3, 17280, Note_on_c, 0, 77, 0
3, 17280, Note_on_c, 0, 76, 62
3, 18240, Note_on_c, 0, 76, 0
3, 18240, Note_on_c, 0, 77, 62
3, 19200, Note_on_c, 0, 77, 0
3, 19200, Note_on_c, 0, 76, 62
3, 19200, Note_on_c, 0, 79, 62
3, 20160, Note_on_c, 0, 79, 0
3, 20160, Note_on_c, 0, 76, 0
3, 20160, Note_on_c, 0, 77, 62
3, 20160, Note_on_c, 0, 83, 62
3, 21120, Note_on_c, 0, 83, 0
3, 21120, Note_on_c, 0, 77, 0
3, 21120, Note_on_c, 0, 76, 62
3, 21120, Note_on_c, 0, 79, 62
3, 22080, Note_on_c, 0, 79, 0
3, 22080, Note_on_c, 0, 76, 0
3, 22080, Note_on_c, 0, 77, 62
3, 23040, Note_on_c, 0, 77, 0
3, 23040, Note_on_c, 0, 76, 62
3, 23040, Note_on_c, 0, 79, 62
3, 24000, Note_on_c, 0, 79, 0
3, 24000, Note_on_c, 0, 76, 0
3, 24000, Note_on_c, 0, 77, 62
3, 24000, Note_on_c, 0, 83, 62
3, 24960, Note_on_c, 0, 83, 0
3, 24960, Note_on_c, 0, 77, 0
3, 24960, Note_on_c, 0, 76, 62
3, 25920, Note_on_c, 0, 76, 0
3, 25920, Note_on_c, 0, 77, 62
3, 26880, Note_on_c, 0, 77, 0
3, 26880, Note_on_c, 0, 76, 62
3, 26880, Note_on_c, 0, 79, 62
3, 27840, Note_on_c, 0, 79, 0
3, 27840, Note_on_c, 0, 76, 0
3, 27840, Note_on_c, 0, 77, 62
3, 27840, Note_on_c, 0, 83, 62
3, 28800, Note_on_c, 0, 83, 0
3, 28800, Note_on_c, 0, 77, 0
3, 28800, Note_on_c, 0, 76, 62
3, 28800, Note_on_c, 0, 79, 62
3, 29040, Note_on_c, 0, 79, 0
3, 29040, Note_on_c, 0, 76, 0
3, 34560, Note_on_c, 0, 60, 49
3, 34560, Note_on_c, 0, 64, 49
3, 35520, Note_on_c, 0, 64, 0
3, 35520, Note_on_c, 0, 60, 0
3, 35520, Note_on_c, 0, 59, 49
3, 35520, Note_on_c, 0, 65, 49
3, 36480, Note_on_c, 0, 65, 0
3, 36480, Note_on_c, 0, 59, 0
3, 36480, Note_on_c, 0, 60, 49
3, 36480, Note_on_c, 0, 64, 49
3, 37440, Note_on_c, 0, 64, 0
3, 37440, Note_on_c, 0, 60, 0
3, 37440, Note_on_c, 0, 59, 49
3, 37440, Note_on_c, 0, 65, 49
3, 38400, Note_on_c, 0, 65, 0
3, 38400, Note_on_c, 0, 59, 0
3, 42240, Note_on_c, 0, 60, 49
3, 42240, Note_on_c, 0, 64, 49
3, 43200, Note_on_c, 0, 64, 0
3, 43200, Note_on_c, 0, 60, 0
3, 43200, Note_on_c, 0, 59, 49
3, 43200, Note_on_c, 0, 65, 49
3, 44160, Note_on_c, 0, 65, 0
3, 44160, Note_on_c, 0, 59, 0
3, 44160, Note_on_c, 0, 60, 49
3, 44160, Note_on_c, 0, 64, 49
3, 45120, Note_on_c, 0, 64, 0
3, 45120, Note_on_c, 0, 60, 0
3, 45120, Note_on_c, 0, 59, 49
3, 45120, Note_on_c, 0, 65, 49
3, 46080, Note_on_c, 0, 65, 0
3, 46080, Note_on_c, 0, 59, 0
3, 46080, Note_on_c, 0, 64, 62
3, 46080, Note_on_c, 0, 67, 62
3, 46080, Note_on_c, 0, 72, 62
3, 47040, Note_on_c, 0, 72, 0
3, 47040, Note_on_c, 0, 67, 0
3, 47040, Note_on_c, 0, 64, 0
3, 47040, Note_on_c, 0, 65, 62
3, 47040, Note_on_c, 0, 67, 62
3, 47040, Note_on_c, 0, 71, 62
3, 48000, Note_on_c, 0, 71, 0
3, 48000, Note_on_c, 0, 67, 0
3, 48000, Note_on_c, 0, 65, 0
3, 48000, Note_on_c, 0, 64, 62
3, 48960, Note_on_c, 0, 64, 0
3, 48960, Note_on_c, 0, 59, 62
3, 48960, Note_on_c, 0, 65, 62
3, 49920, Note_on_c, 0, 65, 0
3, 49920, Note_on_c, 0, 59, 0
3, 49920, Note_on_c, 0, 64, 62
3, 49920, Note_on_c, 0, 67, 62
3, 49920, Note_on_c, 0, 72, 62
3, 50880, Note_on_c, 0, 72, 0
3, 50880, Note_on_c, 0, 67, 0
3, 50880, Note_on_c, 0, 64, 0
3, 50880, Note_on_c, 0, 65, 62
3, 50880, Note_on_c, 0, 67, 62
3, 50880, Note_on_c, 0, 71, 62
3, 51840, Note_on_c, 0, 71, 0
3, 51840, Note_on_c, 0, 67, 0
3, 51840, Note_on_c, 0, 65, 0
3, 51840, Note_on_c, 0, 64, 62
3, 51840, Note_on_c, 0, 67, 62
3, 52800, Note_on_c, 0, 67, 0
3, 52800, Note_on_c, 0, 69, 62
3, 53040, Note_on_c, 0, 69, 0
3, 53040, Note_on_c, 0, 64, 0
3, 53760, Note_on_c, 0, 68, 62
3, 53760, Note_on_c, 0, 71, 62
3, 54720, Note_on_c, 0, 71, 0
3, 54720, Note_on_c, 0, 68, 0
3, 54720, Note_on_c, 0, 65, 62
3, 54720, Note_on_c, 0, 69, 62
3, 55680, Note_on_c, 0, 69, 0
3, 55680, Note_on_c, 0, 65, 0
3, 55680, Note_on_c, 0, 64, 49
3, 55680, Note_on_c, 0, 69, 49
3, 56640, Note_on_c, 0, 69, 0
3, 56640, Note_on_c, 0, 64, 0
3, 56640, Note_on_c, 0, 64, 49
3, 57600, Note_on_c, 0, 64, 0
3, 57600, Note_on_c, 0, 67, 49
3, 57600, Note_on_c, 0, 72, 49
3, 58560, Note_on_c, 0, 72, 0
3, 58560, Note_on_c, 0, 67, 0
3, 58560, Note_on_c, 0, 67, 49
3, 59520, Note_on_c, 0, 67, 0
3, 61440, Note_on_c, 0, 56, 49
3, 61440, Note_on_c, 0, 59, 49
3, 62400, Note_on_c, 0, 59, 0
3, 62400, Note_on_c, 0, 56, 0
3, 62400, Note_on_c, 0, 57, 49
3, 63360, Note_on_c, 0, 57, 0
3, 63360, Note_on_c, 0, 57, 49
3, 64320, Note_on_c, 0, 57, 0
3, 64320, Note_on_c, 0, 55, 49
3, 64560, Note_on_c, 0, 55, 0
3, 65280, Note_on_c, 0, 60, 49
3, 66240, Note_on_c, 0, 60, 0
3, 66240, Note_on_c, 0, 55, 49
3, 67200, Note_on_c, 0, 55, 0
3, 67359, Control_c, 0, 64, 127
3, 67359, Note_on_c, 0, 57, 49
3, 67520, Note_on_c, 0, 57, 0
3, 67520, Note_on_c, 0, 55, 49
3, 67680, Note_on_c, 0, 55, 0
3, 67680, Note_on_c, 0, 57, 49
3, 67839, Note_on_c, 0, 57, 0
3, 67839, Note_on_c, 0, 55, 49
3, 68000, Note_on_c, 0, 55, 0
3, 68000, Control_c, 0, 64, 0
3, 68000, Note_on_c, 0, 57, 49
3, 68160, Note_on_c, 0, 57, 0
3, 68160, Control_c, 0, 64, 127
3, 68160, Note_on_c, 0, 55, 49
3, 68319, Note_on_c, 0, 55, 0
3, 68319, Note_on_c, 0, 57, 49
3, 68480, Note_on_c, 0, 57, 0
3, 68480, Note_on_c, 0, 55, 49
3, 68640, Note_on_c, 0, 55, 0
3, 68640, Note_on_c, 0, 57, 49
3, 68799, Note_on_c, 0, 57, 0
3, 68799, Note_on_c, 0, 55, 49
3, 68960, Note_on_c, 0, 55, 0
3, 68960, Control_c, 0, 64, 0
3, 68960, Note_on_c, 0, 57, 49
3, 69120, Note_on_c, 0, 57, 0
3, 69120, Note_on_c, 0, 48, 49
3, 70080, Note_on_c, 0, 48, 0
3, 70080, Note_on_c, 0, 47, 49
3, 70080, Note_on_c, 0, 53, 49
3, 71040, Note_on_c, 0, 53, 0
3, 71040, Note_on_c, 0, 47, 0
3, 71040, Note_on_c, 0, 48, 49
3, 71040, Note_on_c, 0, 52, 49
3, 72000, Note_on_c, 0, 52, 0
3, 72000, Note_on_c, 0, 48, 0
3, 72960, Note_on_c, 0, 48, 49
3, 73920, Note_on_c, 0, 48, 0
3, 73920, Note_on_c, 0, 47, 49
3, 73920, Note_on_c, 0, 53, 49
3, 74880, Note_on_c, 0, 53, 0
3, 74880, Note_on_c, 0, 47, 0
3, 74880, Note_on_c, 0, 48, 49
3, 74880, Note_on_c, 0, 52, 49
3, 76800, Note_on_c, 0, 52, 0
3, 76800, Note_on_c, 0, 48, 0
3, 76800, Note_on_c, 0, 48, 49
3, 77760, Note_on_c, 0, 48, 0
3, 77760, Note_on_c, 0, 47, 49
3, 77760, Note_on_c, 0, 53, 49
3, 78720, Note_on_c, 0, 53, 0
3, 78720, Note_on_c, 0, 47, 0
3, 78720, Note_on_c, 0, 48, 49
3, 78720, Note_on_c, 0, 52, 49
3, 80640, Note_on_c, 0, 52, 0
3, 80640, Note_on_c, 0, 48, 0
3, 80640, Note_on_c, 0, 48, 49
3, 81600, Note_on_c, 0, 48, 0
3, 81600, Note_on_c, 0, 47, 49
3, 81600, Note_on_c, 0, 53, 49
3, 82560, Note_on_c, 0, 53, 0
3, 82560, Note_on_c, 0, 47, 0
3, 82560, Note_on_c, 0, 48, 49
3, 82560, Note_on_c, 0, 52, 49
3, 84480, Note_on_c, 0, 52, 0
3, 84480, Note_on_c, 0, 48, 0
3, 84480, Note_on_c, 0, 48, 49
3, 84480, Note_on_c, 0, 52, 49
3, 86400, Note_on_c, 0, 52, 0
3, 86400, Note_on_c, 0, 48, 0
3, 86400, Note_on_c, 0, 48, 49
3, 86400, Note_on_c, 0, 52, 49
3, 88320, Note_on_c, 0, 52, 0
3, 88320, Note_on_c, 0, 48, 0
3, 88320, Note_on_c, 0, 48, 49
3, 88320, Note_on_c, 0, 52, 49
3, 90240, Note_on_c, 0, 52, 0
3, 90240, Note_on_c, 0, 48, 0
3, 97440, Note_on_c, 0, 44, 75
3, 97471, Note_on_c, 0, 44, 0
3, 97599, Note_on_c, 0, 44, 75
3, 97631, Note_on_c, 0, 44, 0
3, 97760, Note_on_c, 0, 44, 75
3, 97792, Note_on_c, 0, 44, 0
3, 97920, Note_on_c, 0, 44, 88
3, 98880, Note_on_c, 0, 44, 0
3, 98880, Note_on_c, 0, 39, 62
3, 99120, Note_on_c, 0, 39, 0
3, 99360, Note_on_c, 0, 36, 75
3, 99391, Note_on_c, 0, 36, 0
3, 99519, Note_on_c, 0, 36, 75
3, 99551, Note_on_c, 0, 36, 0
3, 99680, Note_on_c, 0, 36, 75
3, 99712, Note_on_c, 0, 36, 0
3, 99840, Note_on_c, 0, 36, 88
3, 100800, Note_on_c, 0, 36, 0
3, 100800, Note_on_c, 0, 32, 62
3, 101040, Note_on_c, 0, 32, 0
3, 105120, Note_on_c, 0, 44, 75
3, 105151, Note_on_c, 0, 44, 0
3, 105279, Note_on_c, 0, 44, 75
3, 105311, Note_on_c, 0, 44, 0
3, 105440, Note_on_c, 0, 44, 75
3, 105472, Note_on_c, 0, 44, 0
3, 105600, Note_on_c, 0, 44, 88
3, 106560, Note_on_c, 0, 44, 0
3, 106560, Note_on_c, 0, 39, 62
3, 106800, Note_on_c, 0, 39, 0
3, 107040, Note_on_c, 0, 36, 75
3, 107071, Note_on_c, 0, 36, 0
3, 107199, Note_on_c, 0, 36, 75
3, 107231, Note_on_c, 0, 36, 0
3, 107360, Note_on_c, 0, 36, 75
3, 107392, Note_on_c, 0, 36, 0
3, 107520, Note_on_c, 0, 36, 88
3, 108480, Note_on_c, 0, 36, 0
3, 108480, Note_on_c, 0, 32, 62
3, 108720, Note_on_c, 0, 32, 0
3, 113760, Control_c, 0, 64, 127
3, 113760, Note_on_c, 0, 49, 62
3, 113828, Note_on_c, 0, 49, 0
3, 113828, Note_on_c, 0, 48, 62
3, 113897, Note_on_c, 0, 48, 0
3, 113897, Note_on_c, 0, 46, 62
3, 113965, Note_on_c, 0, 46, 0
3, 113965, Note_on_c, 0, 44, 62
3, 114034, Note_on_c, 0, 44, 0
3, 114034, Note_on_c, 0, 42, 62
3, 114102, Note_on_c, 0, 42, 0
3, 114102, Note_on_c, 0, 41, 62
3, 114171, Note_on_c, 0, 41, 0
3, 114171, Note_on_c, 0, 39, 62
3, 114240, Note_on_c, 0, 39, 0
3, 114240, Control_c, 0, 64, 0
3, 114240, Note_on_c, 0, 37, 62
3, 114480, Note_on_c, 0, 37, 0
3, 121440, Control_c, 0, 64, 127
3, 121440, Note_on_c, 0, 49, 62
3, 121508, Note_on_c, 0, 49, 0
3, 121508, Note_on_c, 0, 48, 62
3, 121577, Note_on_c, 0, 48, 0
3, 121577, Note_on_c, 0, 46, 62
3, 121645, Note_on_c, 0, 46, 0
3, 121645, Note_on_c, 0, 44, 62
3, 121714, Note_on_c, 0, 44, 0
3, 121714, Note_on_c, 0, 42, 62
3, 121782, Note_on_c, 0, 42, 0
3, 121782, Note_on_c, 0, 41, 62
3, 121851, Note_on_c, 0, 41, 0
3, 121851, Note_on_c, 0, 39, 62
3, 121920, Note_on_c, 0, 39, 0
3, 121920, Control_c, 0, 64, 0
3, 121920, Note_on_c, 0, 37, 62
3, 122160, Note_on_c, 0, 37, 0
3, 130560, Note_on_c, 0, 54, 88
3, 130560, Note_on_c, 0, 57, 88
3, 130560, Note_on_c, 0, 60, 88
3, 130560, Note_on_c, 0, 62, 88
3, 131520, Note_on_c, 0, 62, 0
3, 131520, Note_on_c, 0, 54, 0
3, 131520, Note_on_c, 0, 57, 0
3, 131520, Note_on_c, 0, 60, 0
3, 131760, Note_on_c, 0, 54, 88
3, 131760, Note_on_c, 0, 57, 88
3, 131760, Note_on_c, 0, 61, 88
3, 131880, Note_on_c, 0, 61, 0
3, 131880, Note_on_c, 0, 57, 0
3, 131880, Note_on_c, 0, 54, 0
3, 132000, Note_on_c, 0, 50, 88
3, 132000, Note_on_c, 0, 54, 88
3, 132000, Note_on_c, 0, 57, 88
3, 132000, Note_on_c, 0, 60, 88
3, 132120, Note_on_c, 0, 60, 0
3, 132120, Note_on_c, 0, 50, 0
3, 132120, Note_on_c, 0, 54, 0
3, 132120, Note_on_c, 0, 57, 0
3, 132240, Note_on_c, 0, 54, 101
3, 132240, Note_on_c, 0, 57, 101
3, 132240, Note_on_c, 0, 61, 101
3, 132360, Note_on_c, 0, 61, 0
3, 132360, Note_on_c, 0, 57, 0
3, 132360, Note_on_c, 0, 54, 0
3, 132480, Note_on_c, 0, 54, 101
3, 132480, Note_on_c, 0, 57, 101
3, 132480, Note_on_c, 0, 60, 101
3, 132480, Note_on_c, 0, 62, 101
3, 132600, Note_on_c, 0, 62, 0
3, 132600, Note_on_c, 0, 54, 0
3, 132600, Note_on_c, 0, 57, 0
3, 132600, Note_on_c, 0, 60, 0
3, 132720, Note_on_c, 0, 54, 101
3, 132720, Note_on_c, 0, 57, 101
3, 132720, Note_on_c, 0, 60, 101
3, 132720, Note_on_c, 0, 62, 101
3, 132840, Note_on_c, 0, 62, 0
3, 132840, Note_on_c, 0, 54, 0
3, 132840, Note_on_c, 0, 57, 0
3, 132840, Note_on_c, 0, 60, 0
3, 156480, Control_c, 0, 64, 127
3, 156480, Note_on_c, 0, 56, 75
3, 156600, Note_on_c, 0, 56, 0
3, 156600, Note_on_c, 0, 53, 75
3, 156720, Note_on_c, 0, 53, 0
3, 156720, Note_on_c, 0, 56, 75
3, 156840, Note_on_c, 0, 56, 0
3, 156840, Control_c, 0, 64, 0
3, 156840, Note_on_c, 0, 53, 75
3, 156960, Note_on_c, 0, 53, 0
3, 156960, Control_c, 0, 64, 127
3, 156960, Note_on_c, 0, 57, 75
3, 157080, Note_on_c, 0, 57, 0
3, 157080, Note_on_c, 0, 53, 75
3, 157200, Note_on_c, 0, 53, 0
3, 157200, Note_on_c, 0, 57, 75
3, 157320, Note_on_c, 0, 57, 0
3, 157320, Control_c, 0, 64, 0
3, 157320, Note_on_c, 0, 53, 75
3, 157440, Note_on_c, 0, 53, 0
3, 157440, Note_on_c, 0, 49, 114
3, 157440, Note_on_c, 0, 52, 114
3, 157680, Note_on_c, 0, 52, 0
3, 157680, Note_on_c, 0, 49, 0
3, 157680, Note_on_c, 0, 50, 114
3, 157680, Note_on_c, 0, 53, 114
3, 157920, Note_on_c, 0, 53, 0
3, 157920, Note_on_c, 0, 50, 0
3, 161280, Control_c, 0, 64, 127
3, 161280, Note_on_c, 0, 47, 62
3, 161400, Note_on_c, 0, 47, 0
3, 161400, Note_on_c, 0, 48, 62
3, 161520, Note_on_c, 0, 48, 0
3, 161520, Note_on_c, 0, 47, 62
3, 161640, Note_on_c, 0, 47, 0
3, 161640, Note_on_c, 0, 48, 62
3, 161760, Note_on_c, 0, 48, 0
3, 161760, Control_c, 0, 64, 0
3, 161760, Note_on_c, 0, 47, 62
3, 162000, Note_on_c, 0, 47, 0
3, 162240, Control_c, 0, 64, 127
3, 162240, Note_on_c, 0, 50, 62
3, 162360, Note_on_c, 0, 50, 0
3, 162360, Note_on_c, 0, 52, 62
3, 162480, Note_on_c, 0, 52, 0
3, 162480, Note_on_c, 0, 50, 62
3, 162600, Note_on_c, 0, 50, 0
3, 162600, Note_on_c, 0, 52, 62
3, 162720, Note_on_c, 0, 52, 0
3, 162720, Control_c, 0, 64, 0
3, 162720, Note_on_c, 0, 50, 62
3, 162960, Note_on_c, 0, 50, 0
3, 163200, Note_on_c, 0, 47, 88
3, 164160, Note_on_c, 0, 47, 0
3, 164160, Note_on_c, 0, 45, 62
3, 164400, Note_on_c, 0, 45, 0
3, 165120, Control_c, 0, 64, 127
3, 165120, Note_on_c, 0, 47, 62
3, 165240, Note_on_c, 0, 47, 0
3, 165240, Note_on_c, 0, 48, 62
3, 165360, Note_on_c, 0, 48, 0
3, 165360, Note_on_c, 0, 47, 62
3, 165480, Note_on_c, 0, 47, 0
3, 165480, Note_on_c, 0, 48, 62
3, 165600, Note_on_c, 0, 48, 0
3, 165600, Control_c, 0, 64, 0
3, 165600, Note_on_c, 0, 47, 62
3, 165840, Note_on_c, 0, 47, 0
3, 166080, Control_c, 0, 64, 127
3, 166080, Note_on_c, 0, 50, 62
3, 166200, Note_on_c, 0, 50, 0
3, 166200, Note_on_c, 0, 52, 62
3, 166320, Note_on_c, 0, 52, 0
3, 166320, Note_on_c, 0, 50, 62
3, 166440, Note_on_c, 0, 50, 0
3, 166440, Note_on_c, 0, 52, 62
3, 166560, Note_on_c, 0, 52, 0
3, 166560, Control_c, 0, 64, 0
3, 166560, Note_on_c, 0, 50, 62
3, 166800, Note_on_c, 0, 50, 0
3, 167040, Note_on_c, 0, 40, 88
3, 168000, Note_on_c, 0, 40, 0
3, 168000, Note_on_c, 0, 38, 62
3, 168240, Note_on_c, 0, 38, 0
3, 168960, Control_c, 0, 64, 127
3, 168960, Note_on_c, 0, 45, 62
3, 169080, Note_on_c, 0, 45, 0
3, 169080, Note_on_c, 0, 47, 62
3, 169200, Note_on_c, 0, 47, 0
3, 169200, Note_on_c, 0, 45, 62
3, 169320, Note_on_c, 0, 45, 0
3, 169320, Control_c, 0, 64, 0
3, 169320, Note_on_c, 0, 47, 62
3, 169440, Note_on_c, 0, 47, 0
3, 169440, Control_c, 0, 64, 127
3, 169440, Note_on_c, 0, 44, 62
3, 169560, Note_on_c, 0, 44, 0
3, 169560, Note_on_c, 0, 45, 62
3, 169680, Note_on_c, 0, 45, 0
3, 169680, Note_on_c, 0, 44, 62
3, 169800, Note_on_c, 0, 44, 0
3, 169800, Control_c, 0, 64, 0
3, 169800, Note_on_c, 0, 47, 62
3, 169920, Note_on_c, 0, 47, 0
3, 169920, Control_c, 0, 64, 127
3, 169920, Note_on_c, 0, 45, 62
3, 170040, Note_on_c, 0, 45, 0
3, 170040, Note_on_c, 0, 47, 62
3, 170160, Note_on_c, 0, 47, 0
3, 170160, Note_on_c, 0, 48, 62
3, 170280, Note_on_c, 0, 48, 0
3, 170280, Control_c, 0, 64, 0
3, 170280, Note_on_c, 0, 50, 62
3, 170400, Note_on_c, 0, 50, 0
3, 170400, Control_c, 0, 64, 127
3, 170400, Note_on_c, 0, 48, 62
3, 170520, Note_on_c, 0, 48, 0
3, 170520, Note_on_c, 0, 47, 62
3, 170640, Note_on_c, 0, 47, 0
3, 170640, Note_on_c, 0, 45, 62
3, 170760, Note_on_c, 0, 45, 0
3, 170760, Control_c, 0, 64, 0
3, 170760, Note_on_c, 0, 44, 62
3, 170880, Note_on_c, 0, 44, 0
3, 170880, Control_c, 0, 64, 127
3, 170880, Note_on_c, 0, 45, 62
3, 171000, Note_on_c, 0, 45, 0
3, 171000, Note_on_c, 0, 47, 62
3, 171120, Note_on_c, 0, 47, 0
3, 171120, Note_on_c, 0, 45, 62
3, 171240, Note_on_c, 0, 45, 0
3, 171240, Control_c, 0, 64, 0
3, 171240, Note_on_c, 0, 47, 62
3, 171360, Note_on_c, 0, 47, 0
3, 171360, Control_c, 0, 64, 127
3, 171360, Note_on_c, 0, 44, 62
3, 171480, Note_on_c, 0, 44, 0
3, 171480, Note_on_c, 0, 45, 62
3, 171600, Note_on_c, 0, 45, 0
3, 171600, Note_on_c, 0, 44, 62
3, 171720, Note_on_c, 0, 44, 0
3, 171720, Control_c, 0, 64, 0
3, 171720, Note_on_c, 0, 47, 62
3, 171840, Note_on_c, 0, 47, 0
3, 171840, Control_c, 0, 64, 127
3, 171840, Note_on_c, 0, 45, 62
3, 171960, Note_on_c, 0, 45, 0
3, 171960, Note_on_c, 0, 47, 62
3, 172080, Note_on_c, 0, 47, 0
3, 172080, Note_on_c, 0, 48, 62
3, 172200, Note_on_c, 0, 48, 0
3, 172200, Control_c, 0, 64, 0
3, 172200, Note_on_c, 0, 50, 62
3, 172320, Note_on_c, 0, 50, 0
3, 172320, Control_c, 0, 64, 127
3, 172320, Note_on_c, 0, 48, 62
3, 172440, Note_on_c, 0, 48, 0
3, 172440, Note_on_c, 0, 47, 62
3, 172560, Note_on_c, 0, 47, 0
3, 172560, Note_on_c, 0, 45, 62
3, 172680, Note_on_c, 0, 45, 0
3, 172680, Control_c, 0, 64, 0
3, 172680, Note_on_c, 0, 44, 62
3, 172800, Note_on_c, 0, 44, 0
3, 172800, Control_c, 0, 64, 127
3, 172800, Note_on_c, 0, 45, 62
3, 172920, Note_on_c, 0, 45, 0
3, 172920, Note_on_c, 0, 47, 62
3, 173040, Note_on_c, 0, 47, 0
3, 173040, Note_on_c, 0, 45, 62
3, 173160, Note_on_c, 0, 45, 0
3, 173160, Control_c, 0, 64, 0
3, 173160, Note_on_c, 0, 47, 62
3, 173280, Note_on_c, 0, 47, 0
3, 173280, Control_c, 0, 64, 127
3, 173280, Note_on_c, 0, 43, 62
3, 173400, Note_on_c, 0, 43, 0
3, 173400, Note_on_c, 0, 45, 62
3, 173520, Note_on_c, 0, 45, 0
3, 173520, Note_on_c, 0, 43, 62
3, 173640, Note_on_c, 0, 43, 0
3, 173640, Control_c, 0, 64, 0
3, 173640, Note_on_c, 0, 45, 62
3, 173760, Note_on_c, 0, 45, 0
3, 173760, Control_c, 0, 64, 127
3, 173760, Note_on_c, 0, 41, 75
3, 173880, Note_on_c, 0, 41, 0
3, 173880, Note_on_c, 0, 43, 75
3, 174000, Note_on_c, 0, 43, 0
3, 174000, Note_on_c, 0, 41, 75
3, 174120, Note_on_c, 0, 41, 0
3, 174120, Control_c, 0, 64, 0
3, 174120, Note_on_c, 0, 43, 75
3, 174240, Note_on_c, 0, 43, 0
3, 174240, Control_c, 0, 64, 127
3, 174240, Note_on_c, 0, 40, 75
3, 174360, Note_on_c, 0, 40, 0
3, 174360, Note_on_c, 0, 41, 75
3, 174480, Note_on_c, 0, 41, 0
3, 174480, Note_on_c, 0, 40, 75
3, 174600, Note_on_c, 0, 40, 0
3, 174600, Control_c, 0, 64, 0
3, 174600, Note_on_c, 0, 41, 75
3, 174720, Note_on_c, 0, 41, 0
3, 174720, Control_c, 0, 64, 127
3, 174720, Note_on_c, 0, 38, 62
3, 174840, Note_on_c, 0, 38, 0
3, 174840, Note_on_c, 0, 40, 62
3, 174960, Note_on_c, 0, 40, 0
3, 174960, Note_on_c, 0, 38, 62
3, 175080, Note_on_c, 0, 38, 0
3, 175080, Control_c, 0, 64, 0
3, 175080, Note_on_c, 0, 40, 62
3, 175200, Note_on_c, 0, 40, 0
3, 175200, Control_c, 0, 64, 127
3, 175200, Note_on_c, 0, 43, 75
3, 175320, Note_on_c, 0, 43, 0
3, 175320, Note_on_c, 0, 41, 75
3, 175440, Note_on_c, 0, 41, 0
3, 175440, Note_on_c, 0, 40, 75
3, 175560, Note_on_c, 0, 40, 0
3, 175560, Note_on_c, 0, 43, 75
3, 175680, Note_on_c, 0, 43, 0
3, 175680, Control_c, 0, 64, 0
3, 175680, Note_on_c, 0, 41, 75
3, 175920, Note_on_c, 0, 41, 0
3, 176640, Control_c, 0, 64, 127
3, 176640, Note_on_c, 0, 52, 62
3, 176760, Note_on_c, 0, 52, 0
3, 176760, Note_on_c, 0, 53, 62
3, 176880, Note_on_c, 0, 53, 0
3, 176880, Note_on_c, 0, 52, 62
3, 177000, Note_on_c, 0, 52, 0
3, 177000, Note_on_c, 0, 53, 62
3, 177120, Note_on_c, 0, 53, 0
3, 177120, Control_c, 0, 64, 0
3, 177120, Note_on_c, 0, 52, 62
3, 177360, Note_on_c, 0, 52, 0
3, 177600, Control_c, 0, 64, 127
3, 177600, Note_on_c, 0, 55, 62
3, 177720, Note_on_c, 0, 55, 0
3, 177720, Note_on_c, 0, 57, 62
3, 177840, Note_on_c, 0, 57, 0
3, 177840, Note_on_c, 0, 55, 62
3, 177960, Note_on_c, 0, 55, 0
3, 177960, Note_on_c, 0, 57, 62
3, 178080, Note_on_c, 0, 57, 0
3, 178080, Control_c, 0, 64, 0
3, 178080, Note_on_c, 0, 55, 62
3, 178320, Note_on_c, 0, 55, 0
3, 178560, Note_on_c, 0, 52, 88
3, 179520, Note_on_c, 0, 52, 0
3, 179520, Note_on_c, 0, 50, 62
3, 179760, Note_on_c, 0, 50, 0
3, 180480, Control_c, 0, 64, 127
3, 180480, Note_on_c, 0, 52, 62
3, 180600, Note_on_c, 0, 52, 0
3, 180600, Note_on_c, 0, 53, 62
3, 180720, Note_on_c, 0, 53, 0
3, 180720, Note_on_c, 0, 52, 62
3, 180840, Note_on_c, 0, 52, 0
3, 180840, Note_on_c, 0, 53, 62
3, 180960, Note_on_c, 0, 53, 0
3, 180960, Control_c, 0, 64, 0
3, 180960, Note_on_c, 0, 52, 62
3, 181200, Note_on_c, 0, 52, 0
3, 181440, Control_c, 0, 64, 127
3, 181440, Note_on_c, 0, 55, 62
3, 181560, Note_on_c, 0, 55, 0
3, 181560, Note_on_c, 0, 57, 62
3, 181680, Note_on_c, 0, 57, 0
3, 181680, Note_on_c, 0, 55, 62
3, 181800, Note_on_c, 0, 55, 0
3, 181800, Note_on_c, 0, 57, 62
3, 181920, Note_on_c, 0, 57, 0
3, 181920, Control_c, 0, 64, 0
3, 181920, Note_on_c, 0, 55, 62
3, 182160, Note_on_c, 0, 55, 0
3, 182400, Note_on_c, 0, 45, 88
3, 183360, Note_on_c, 0, 45, 0
3, 183360, Note_on_c, 0, 43, 62
3, 183600, Note_on_c, 0, 43, 0
3, 184320, Control_c, 0, 64, 127
3, 184320, Note_on_c, 0, 50, 62
3, 184440, Note_on_c, 0, 50, 0
3, 184440, Note_on_c, 0, 52, 62
3, 184560, Note_on_c, 0, 52, 0
3, 184560, Note_on_c, 0, 50, 62
3, 184680, Note_on_c, 0, 50, 0
3, 184680, Control_c, 0, 64, 0
3, 184680, Note_on_c, 0, 52, 62
3, 184800, Note_on_c, 0, 52, 0
3, 184800, Control_c, 0, 64, 127
3, 184800, Note_on_c, 0, 49, 62
3, 184920, Note_on_c, 0, 49, 0
3, 184920, Note_on_c, 0, 50, 62
3, 185040, Note_on_c, 0, 50, 0
3, 185040, Note_on_c, 0, 49, 62
3, 185160, Note_on_c, 0, 49, 0
3, 185160, Control_c, 0, 64, 0
3, 185160, Note_on_c, 0, 52, 62
3, 185280, Note_on_c, 0, 52, 0
3, 185280, Control_c, 0, 64, 127
3, 185280, Note_on_c, 0, 50, 62
3, 185400, Note_on_c, 0, 50, 0
3, 185400, Note_on_c, 0, 52, 62
3, 185520, Note_on_c, 0, 52, 0
3, 185520, Note_on_c, 0, 53, 62
3, 185640, Note_on_c, 0, 53, 0
3, 185640, Control_c, 0, 64, 0
3, 185640, Note_on_c, 0, 55, 62
3, 185760, Note_on_c, 0, 55, 0
3, 185760, Control_c, 0, 64, 127
3, 185760, Note_on_c, 0, 53, 62
3, 185880, Note_on_c, 0, 53, 0
3, 185880, Note_on_c, 0, 52, 62
3, 186000, Note_on_c, 0, 52, 0
3, 186000, Note_on_c, 0, 50, 62
3, 186120, Note_on_c, 0, 50, 0
3, 186120, Control_c, 0, 64, 0
3, 186120, Note_on_c, 0, 49, 62
3, 186240, Note_on_c, 0, 49, 0
3, 186240, Control_c, 0, 64, 127
3, 186240, Note_on_c, 0, 50, 75
3, 186360, Note_on_c, 0, 50, 0
3, 186360, Note_on_c, 0, 52, 75
3, 186480, Note_on_c, 0, 52, 0
3, 186480, Note_on_c, 0, 50, 75
3, 186600, Note_on_c, 0, 50, 0
3, 186600, Control_c, 0, 64, 0
3, 186600, Note_on_c, 0, 52, 75
3, 186720, Note_on_c, 0, 52, 0
3, 186720, Control_c, 0, 64, 127
3, 186720, Note_on_c, 0, 49, 75
3, 186840, Note_on_c, 0, 49, 0
3, 186840, Note_on_c, 0, 50, 75
3, 186960, Note_on_c, 0, 50, 0
3, 186960, Note_on_c, 0, 49, 75
3, 187080, Note_on_c, 0, 49, 0
3, 187080, Control_c, 0, 64, 0
3, 187080, Note_on_c, 0, 52, 75
3, 187200, Note_on_c, 0, 52, 0
3, 187200, Control_c, 0, 64, 127
3, 187200, Note_on_c, 0, 50, 75
3, 187320, Note_on_c, 0, 50, 0
3, 187320, Note_on_c, 0, 52, 75
3, 187440, Note_on_c, 0, 52, 0
3, 187440, Note_on_c, 0, 53, 75
3, 187560, Note_on_c, 0, 53, 0
3, 187560, Control_c, 0, 64, 0
3, 187560, Note_on_c, 0, 55, 75
3, 187680, Note_on_c, 0, 55, 0
3, 187680, Control_c, 0, 64, 127
3, 187680, Note_on_c, 0, 53, 75
3, 187800, Note_on_c, 0, 53, 0
3, 187800, Note_on_c, 0, 52, 75
3, 187920, Note_on_c, 0, 52, 0
3, 187920, Note_on_c, 0, 50, 75
3, 188040, Note_on_c, 0, 50, 0
3, 188040, Control_c, 0, 64, 0
3, 188040, Note_on_c, 0, 49, 75
3, 188160, Note_on_c, 0, 49, 0
3, 188160, Control_c, 0, 64, 127
3, 188160, Note_on_c, 0, 50, 62
3, 188280, Note_on_c, 0, 50, 0
3, 188280, Note_on_c, 0, 52, 62
3, 188400, Note_on_c, 0, 52, 0
3, 188400, Note_on_c, 0, 50, 62
3, 188520, Note_on_c, 0, 50, 0
3, 188520, Control_c, 0, 64, 0
3, 188520, Note_on_c, 0, 52, 62
3, 188640, Note_on_c, 0, 52, 0
3, 188640, Control_c, 0, 64, 127
3, 188640, Note_on_c, 0, 48, 62
3, 188760, Note_on_c, 0, 48, 0
3, 188760, Note_on_c, 0, 50, 62
3, 188880, Note_on_c, 0, 50, 0
3, 188880, Note_on_c, 0, 48, 62
3, 189000, Note_on_c, 0, 48, 0
3, 189000, Control_c, 0, 64, 0
3, 189000, Note_on_c, 0, 50, 62
3, 189120, Note_on_c, 0, 50, 0
3, 189120, Control_c, 0, 64, 127
3, 189120, Note_on_c, 0, 46, 75
3, 189240, Note_on_c, 0, 46, 0
3, 189240, Note_on_c, 0, 48, 75
3, 189360, Note_on_c, 0, 48, 0
3, 189360, Note_on_c, 0, 46, 75
3, 189480, Note_on_c, 0, 46, 0
3, 189480, Control_c, 0, 64, 0
3, 189480, Note_on_c, 0, 48, 75
3, 189600, Note_on_c, 0, 48, 0
3, 189600, Control_c, 0, 64, 127
3, 189600, Note_on_c, 0, 45, 75
3, 189720, Note_on_c, 0, 45, 0
3, 189720, Note_on_c, 0, 46, 75
3, 189840, Note_on_c, 0, 46, 0
3, 189840, Note_on_c, 0, 45, 75
3, 189960, Note_on_c, 0, 45, 0
3, 189960, Control_c, 0, 64, 0
3, 189960, Note_on_c, 0, 46, 75
3, 190080, Note_on_c, 0, 46, 0
3, 190080, Control_c, 0, 64, 127
3, 190080, Note_on_c, 0, 43, 75
3, 190200, Note_on_c, 0, 43, 0
3, 190200, Note_on_c, 0, 45, 75
3, 190320, Note_on_c, 0, 45, 0
3, 190320, Note_on_c, 0, 43, 75
3, 190440, Note_on_c, 0, 43, 0
3, 190440, Control_c, 0, 64, 0
3, 190440, Note_on_c, 0, 45, 75
3, 190560, Note_on_c, 0, 45, 0
3, 190560, Control_c, 0, 64, 127
3, 190560, Note_on_c, 0, 48, 62
3, 190680, Note_on_c, 0, 48, 0
3, 190680, Note_on_c, 0, 46, 62
3, 190800, Note_on_c, 0, 46, 0
3, 190800, Note_on_c, 0, 45, 62
3, 190920, Note_on_c, 0, 45, 0
3, 190920, Note_on_c, 0, 48, 62
3, 191040, Note_on_c, 0, 48, 0
3, 191040, Control_c, 0, 64, 0
3, 191040, Note_on_c, 0, 46, 62
3, 191280, Note_on_c, 0, 46, 0
3, 191520, Control_c, 0, 64, 127
3, 191520, Note_on_c, 0, 43, 62
3, 191640, Note_on_c, 0, 43, 0
3, 191640, Note_on_c, 0, 45, 62
3, 191760, Note_on_c, 0, 45, 0
3, 191760, Note_on_c, 0, 46, 62
3, 191880, Note_on_c, 0, 46, 0
3, 191880, Control_c, 0, 64, 0
3, 191880, Note_on_c, 0, 48, 62
3, 192000, Note_on_c, 0, 48, 0
3, 192000, Control_c, 0, 64, 127
3, 192000, Note_on_c, 0, 49, 62
3, 192120, Note_on_c, 0, 49, 0
3, 192120, Note_on_c, 0, 50, 62
3, 192240, Note_on_c, 0, 50, 0
3, 192240, Note_on_c, 0, 49, 62
3, 192360, Note_on_c, 0, 49, 0
3, 192360, Control_c, 0, 64, 0
3, 192360, Note_on_c, 0, 50, 62
3, 192480, Note_on_c, 0, 50, 0
3, 192480, Control_c, 0, 64, 127
3, 192480, Note_on_c, 0, 48, 62
3, 192600, Note_on_c, 0, 48, 0
3, 192600, Note_on_c, 0, 49, 62
3, 192720, Note_on_c, 0, 49, 0
3, 192720, Note_on_c, 0, 48, 62
3, 192840, Note_on_c, 0, 48, 0
3, 192840, Control_c, 0, 64, 0
3, 192840, Note_on_c, 0, 49, 62
3, 192960, Note_on_c, 0, 49, 0
3, 192960, Control_c, 0, 64, 127
3, 192960, Note_on_c, 0, 50, 62
3, 193080, Note_on_c, 0, 50, 0
3, 193080, Note_on_c, 0, 51, 62
3, 193200, Note_on_c, 0, 51, 0
3, 193200, Note_on_c, 0, 50, 62
3, 193320, Note_on_c, 0, 50, 0
3, 193320, Control_c, 0, 64, 0
3, 193320, Note_on_c, 0, 51, 62
3, 193440, Note_on_c, 0, 51, 0
3, 193440, Control_c, 0, 64, 127
3, 193440, Note_on_c, 0, 49, 62
3, 193560, Note_on_c, 0, 49, 0
3, 193560, Note_on_c, 0, 50, 62
3, 193680, Note_on_c, 0, 50, 0
3, 193680, Note_on_c, 0, 49, 62
3, 193800, Note_on_c, 0, 49, 0
3, 193800, Control_c, 0, 64, 0
3, 193800, Note_on_c, 0, 50, 62
3, 193920, Note_on_c, 0, 50, 0
3, 193920, Control_c, 0, 64, 127
3, 193920, Note_on_c, 0, 49, 62
3, 194040, Note_on_c, 0, 49, 0
3, 194040, Note_on_c, 0, 50, 62
3, 194160, Note_on_c, 0, 50, 0
3, 194160, Note_on_c, 0, 49, 62
3, 194280, Note_on_c, 0, 49, 0
3, 194280, Control_c, 0, 64, 0
3, 194280, Note_on_c, 0, 50, 62
3, 194400, Note_on_c, 0, 50, 0
3, 194400, Control_c, 0, 64, 127
3, 194400, Note_on_c, 0, 48, 62
3, 194520, Note_on_c, 0, 48, 0
3, 194520, Note_on_c, 0, 49, 62
3, 194640, Note_on_c, 0, 49, 0
3, 194640, Note_on_c, 0, 48, 62
3, 194760, Note_on_c, 0, 48, 0
3, 194760, Control_c, 0, 64, 0
3, 194760, Note_on_c, 0, 49, 62
3, 194880, Note_on_c, 0, 49, 0
3, 194880, Control_c, 0, 64, 127
3, 194880, Note_on_c, 0, 50, 62
3, 195000, Note_on_c, 0, 50, 0
3, 195000, Note_on_c, 0, 51, 62
3, 195120, Note_on_c, 0, 51, 0
3, 195120, Note_on_c, 0, 50, 62
3, 195240, Note_on_c, 0, 50, 0
3, 195240, Control_c, 0, 64, 0
3, 195240, Note_on_c, 0, 51, 62
3, 195360, Note_on_c, 0, 51, 0
3, 195360, Control_c, 0, 64, 127
3, 195360, Note_on_c, 0, 49, 62
3, 195480, Note_on_c, 0, 49, 0
3, 195480, Note_on_c, 0, 50, 62
3, 195600, Note_on_c, 0, 50, 0
3, 195600, Note_on_c, 0, 49, 62
3, 195720, Note_on_c, 0, 49, 0
3, 195720, Control_c, 0, 64, 0
3, 195720, Note_on_c, 0, 50, 62
3, 195840, Note_on_c, 0, 50, 0
3, 195840, Control_c, 0, 64, 127
3, 195840, Note_on_c, 0, 49, 75
3, 195960, Note_on_c, 0, 49, 0
3, 195960, Note_on_c, 0, 50, 75
3, 196080, Note_on_c, 0, 50, 0
3, 196080, Note_on_c, 0, 48, 75
3, 196200, Note_on_c, 0, 48, 0
3, 196200, Control_c, 0, 64, 0
3, 196200, Note_on_c, 0, 49, 75
3, 196320, Note_on_c, 0, 49, 0
3, 196320, Control_c, 0, 64, 127
3, 196320, Note_on_c, 0, 49, 75
3, 196440, Note_on_c, 0, 49, 0
3, 196440, Note_on_c, 0, 50, 75
3, 196560, Note_on_c, 0, 50, 0
3, 196560, Note_on_c, 0, 48, 75
3, 196680, Note_on_c, 0, 48, 0
3, 196680, Control_c, 0, 64, 0
3, 196680, Note_on_c, 0, 49, 75
3, 196800, Note_on_c, 0, 49, 0
3, 196800, Control_c, 0, 64, 127
3, 196800, Note_on_c, 0, 52, 75
3, 196920, Note_on_c, 0, 52, 0
3, 196920, Note_on_c, 0, 54, 75
3, 197040, Note_on_c, 0, 54, 0
3, 197040, Note_on_c, 0, 51, 75
3, 197160, Note_on_c, 0, 51, 0
3, 197160, Control_c, 0, 64, 0
3, 197160, Note_on_c, 0, 52, 75
3, 197280, Note_on_c, 0, 52, 0
3, 197280, Control_c, 0, 64, 127
3, 197280, Note_on_c, 0, 52, 75
3, 197400, Note_on_c, 0, 52, 0
3, 197400, Note_on_c, 0, 54, 75
3, 197520, Note_on_c, 0, 54, 0
3, 197520, Note_on_c, 0, 51, 75
3, 197640, Note_on_c, 0, 51, 0
3, 197640, Control_c, 0, 64, 0
3, 197640, Note_on_c, 0, 52, 75
3, 197760, Note_on_c, 0, 52, 0
3, 197760, Control_c, 0, 64, 127
3, 197760, Note_on_c, 0, 55, 75
3, 197880, Note_on_c, 0, 55, 0
3, 197880, Note_on_c, 0, 57, 75
3, 198000, Note_on_c, 0, 57, 0
3, 198000, Note_on_c, 0, 54, 75
3, 198120, Note_on_c, 0, 54, 0
3, 198120, Control_c, 0, 64, 0
3, 198120, Note_on_c, 0, 55, 75
3, 198240, Note_on_c, 0, 55, 0
3, 198240, Control_c, 0, 64, 127
3, 198240, Note_on_c, 0, 55, 75
3, 198360, Note_on_c, 0, 55, 0
3, 198360, Note_on_c, 0, 57, 75
3, 198480, Note_on_c, 0, 57, 0
3, 198480, Note_on_c, 0, 54, 75
3, 198600, Note_on_c, 0, 54, 0
3, 198600, Control_c, 0, 64, 0
3, 198600, Note_on_c, 0, 55, 75
3, 198720, Note_on_c, 0, 55, 0
3, 198720, Control_c, 0, 64, 127
3, 198720, Note_on_c, 0, 58, 75
3, 198840, Note_on_c, 0, 58, 0
3, 198840, Note_on_c, 0, 60, 75
3, 198960, Note_on_c, 0, 60, 0
3, 198960, Note_on_c, 0, 57, 75
3, 199080, Note_on_c, 0, 57, 0
3, 199080, Control_c, 0, 64, 0
3, 199080, Note_on_c, 0, 58, 75
3, 199200, Note_on_c, 0, 58, 0
3, 199200, Control_c, 0, 64, 127
3, 199200, Note_on_c, 0, 58, 75
3, 199320, Note_on_c, 0, 58, 0
3, 199320, Note_on_c, 0, 60, 75
3, 199440, Note_on_c, 0, 60, 0
3, 199440, Note_on_c, 0, 57, 75
3, 199560, Note_on_c, 0, 57, 0
3, 199560, Control_c, 0, 64, 0
3, 199560, Note_on_c, 0, 58, 75
3, 199680, Note_on_c, 0, 58, 0
3, 199680, Control_c, 0, 64, 127
3, 199680, Note_on_c, 0, 61, 75
3, 199800, Note_on_c, 0, 61, 0
3, 199800, Note_on_c, 0, 62, 75
3, 199920, Note_on_c, 0, 62, 0
3, 199920, Note_on_c, 0, 60, 75
3, 200040, Note_on_c, 0, 60, 0
3, 200040, Control_c, 0, 64, 0
3, 200040, Note_on_c, 0, 61, 75
3, 200160, Note_on_c, 0, 61, 0
3, 203040, Note_on_c, 0, 52, 88
3, 203040, Note_on_c, 0, 55, 88
3, 203040, Note_on_c, 0, 59, 88
3, 204000, Note_on_c, 0, 59, 0
3, 204000, Note_on_c, 0, 55, 0
3, 204000, Note_on_c, 0, 52, 0
3, 204000, Note_on_c, 0, 52, 88
3, 204000, Note_on_c, 0, 55, 88
3, 204000, Note_on_c, 0, 59, 88
3, 204480, Note_on_c, 0, 59, 0
3, 204480, Note_on_c, 0, 55, 0
3, 204480, Note_on_c, 0, 52, 0
3, 204480, Note_on_c, 0, 52, 88
3, 204480, Note_on_c, 0, 55, 88
3, 204480, Note_on_c, 0, 58, 88
3, 205440, Note_on_c, 0, 58, 0
3, 205440, Note_on_c, 0, 55, 0
3, 205440, Note_on_c, 0, 52, 0
3, 205440, Note_on_c, 0, 52, 88
3, 205440, Note_on_c, 0, 55, 88
3, 205440, Note_on_c, 0, 59, 88
3, 206640, Note_on_c, 0, 59, 0
3, 206640, Note_on_c, 0, 55, 0
3, 206640, Note_on_c, 0, 52, 0
3, 206640, Note_on_c, 0, 59, 62
3, 206880, Note_on_c, 0, 59, 0
3, 206880, Note_on_c, 0, 61, 62
3, 207120, Note_on_c, 0, 61, 0
3, 207120, Note_on_c, 0, 63, 62
3, 207360, Note_on_c, 0, 63, 0
3, 241920, Note_on_c, 0, 62, 49
3, 241920, Note_on_c, 0, 65, 49
3, 242040, Note_on_c, 0, 65, 0
3, 242040, Note_on_c, 0, 62, 0
3, 242040, Note_on_c, 0, 62, 49
3, 242040, Note_on_c, 0, 65, 49
3, 242160, Note_on_c, 0, 65, 0
3, 242160, Note_on_c, 0, 62, 0
3, 242160, Note_on_c, 0, 62, 49
3, 242160, Note_on_c, 0, 65, 49
3, 242280, Note_on_c, 0, 65, 0
3, 242280, Note_on_c, 0, 62, 0
3, 242280, Note_on_c, 0, 62, 49
3, 242280, Note_on_c, 0, 65, 49
3, 242400, Note_on_c, 0, 65, 0
3, 242400, Note_on_c, 0, 62, 0
3, 242400, Note_on_c, 0, 62, 49
3, 242400, Note_on_c, 0, 65, 49
3, 242520, Note_on_c, 0, 65, 0
3, 242520, Note_on_c, 0, 62, 0
3, 242520, Note_on_c, 0, 62, 49
3, 242520, Note_on_c, 0, 65, 49
3, 242640, Note_on_c, 0, 65, 0
3, 242640, Note_on_c, 0, 62, 0
3, 242640, Note_on_c, 0, 62, 49
3, 242640, Note_on_c, 0, 65, 49
3, 242760, Note_on_c, 0, 65, 0
3, 242760, Note_on_c, 0, 62, 0
3, 242760, Note_on_c, 0, 62, 49
3, 242760, Note_on_c, 0, 65, 49
3, 242880, Note_on_c, 0, 65, 0
3, 242880, Note_on_c, 0, 62, 0
3, 242880, Note_on_c, 0, 62, 49
3, 242880, Note_on_c, 0, 65, 49
3, 243000, Note_on_c, 0, 65, 0
3, 243000, Note_on_c, 0, 62, 0
3, 243000, Note_on_c, 0, 62, 49
3, 243000, Note_on_c, 0, 65, 49
3, 243120, Note_on_c, 0, 65, 0
3, 243120, Note_on_c, 0, 62, 0
3, 243120, Note_on_c, 0, 62, 49
3, 243120, Note_on_c, 0, 65, 49
3, 243240, Note_on_c, 0, 65, 0
3, 243240, Note_on_c, 0, 62, 0
3, 243240, Note_on_c, 0, 62, 49
3, 243240, Note_on_c, 0, 65, 49
3, 243360, Note_on_c, 0, 65, 0
3, 243360, Note_on_c, 0, 62, 0
3, 243360, Note_on_c, 0, 62, 49
3, 243360, Note_on_c, 0, 65, 49
3, 243480, Note_on_c, 0, 65, 0
3, 243480, Note_on_c, 0, 62, 0
3, 243480, Note_on_c, 0, 62, 49
3, 243480, Note_on_c, 0, 65, 49
3, 243600, Note_on_c, 0, 65, 0
3, 243600, Note_on_c, 0, 62, 0
3, 243600, Note_on_c, 0, 62, 49
3, 243600, Note_on_c, 0, 65, 49
3, 243720, Note_on_c, 0, 65, 0
3, 243720, Note_on_c, 0, 62, 0
3, 243720, Note_on_c, 0, 62, 49
3, 243720, Note_on_c, 0, 65, 49
3, 243840, Note_on_c, 0, 65, 0
3, 243840, Note_on_c, 0, 62, 0
3, 243840, Note_on_c, 0, 63, 62
3, 243960, Note_on_c, 0, 63, 0
3, 243960, Note_on_c, 0, 63, 62
3, 244080, Note_on_c, 0, 63, 0
3, 244080, Note_on_c, 0, 63, 62
3, 244200, Note_on_c, 0, 63, 0
3, 244200, Note_on_c, 0, 63, 62
3, 244320, Note_on_c, 0, 63, 0
3, 244320, Note_on_c, 0, 63, 62
3, 244320, Note_on_c, 0, 67, 62
3, 244440, Note_on_c, 0, 67, 0
3, 244440, Note_on_c, 0, 63, 0
3, 244440, Note_on_c, 0, 63, 62
3, 244440, Note_on_c, 0, 67, 62
3, 244560, Note_on_c, 0, 67, 0
3, 244560, Note_on_c, 0, 63, 0
3, 244560, Note_on_c, 0, 63, 62
3, 244560, Note_on_c, 0, 67, 62
3, 244680, Note_on_c, 0, 67, 0
3, 244680, Note_on_c, 0, 63, 0
3, 244680, Note_on_c, 0, 63, 62
3, 244680, Note_on_c, 0, 67, 62
3, 244800, Note_on_c, 0, 67, 0
3, 244800, Note_on_c, 0, 63, 0
3, 244800, Note_on_c, 0, 63, 62
3, 244800, Note_on_c, 0, 67, 62
3, 244920, Note_on_c, 0, 67, 0
3, 244920, Note_on_c, 0, 63, 0
3, 244920, Note_on_c, 0, 63, 62
3, 244920, Note_on_c, 0, 67, 62
3, 245040, Note_on_c, 0, 67, 0
3, 245040, Note_on_c, 0, 63, 0
3, 245040, Note_on_c, 0, 63, 62
3, 245040, Note_on_c, 0, 67, 62
3, 245160, Note_on_c, 0, 67, 0
3, 245160, Note_on_c, 0, 63, 0
3, 245160, Note_on_c, 0, 63, 62
3, 245160, Note_on_c, 0, 67, 62
3, 245280, Note_on_c, 0, 67, 0
3, 245280, Note_on_c, 0, 63, 0
3, 245280, Note_on_c, 0, 63, 62
3, 245280, Note_on_c, 0, 67, 62
3, 245400, Note_on_c, 0, 67, 0
3, 245400, Note_on_c, 0, 63, 0
3, 245400, Note_on_c, 0, 63, 62
3, 245400, Note_on_c, 0, 67, 62
3, 245520, Note_on_c, 0, 67, 0
3, 245520, Note_on_c, 0, 63, 0
3, 245520, Note_on_c, 0, 63, 62
3, 245520, Note_on_c, 0, 67, 62
3, 245640, Note_on_c, 0, 67, 0
3, 245640, Note_on_c, 0, 63, 0
3, 245640, Note_on_c, 0, 63, 62
3, 245640, Note_on_c, 0, 67, 62
3, 245760, Note_on_c, 0, 67, 0
3, 245760, Note_on_c, 0, 63, 0
3, 245760, Note_on_c, 0, 65, 62
3, 245880, Note_on_c, 0, 65, 0
3, 245880, Note_on_c, 0, 65, 62
3, 246000, Note_on_c, 0, 65, 0
3, 246000, Note_on_c, 0, 65, 62
3, 246120, Note_on_c, 0, 65, 0
3, 246120, Note_on_c, 0, 65, 62
3, 246240, Note_on_c, 0, 65, 0
3, 246240, Note_on_c, 0, 65, 62
3, 246360, Note_on_c, 0, 65, 0
3, 246360, Note_on_c, 0, 65, 62
3, 246480, Note_on_c, 0, 65, 0
3, 246480, Note_on_c, 0, 65, 62
3, 246600, Note_on_c, 0, 65, 0
3, 246600, Note_on_c, 0, 65, 62
3, 246720, Note_on_c, 0, 65, 0
3, 246720, Note_on_c, 0, 63, 62
3, 246720, Note_on_c, 0, 67, 62
3, 246840, Note_on_c, 0, 67, 0
3, 246840, Note_on_c, 0, 63, 0
3, 246840, Note_on_c, 0, 63, 62
3, 246840, Note_on_c, 0, 67, 62
3, 246960, Note_on_c, 0, 67, 0
3, 246960, Note_on_c, 0, 63, 0
3, 246960, Note_on_c, 0, 63, 62
3, 246960, Note_on_c, 0, 67, 62
3, 247080, Note_on_c, 0, 67, 0
3, 247080, Note_on_c, 0, 63, 0
3, 247080, Note_on_c, 0, 63, 62
3, 247080, Note_on_c, 0, 67, 62
3, 247200, Note_on_c, 0, 67, 0
3, 247200, Note_on_c, 0, 63, 0
3, 247200, Note_on_c, 0, 63, 62
3, 247200, Note_on_c, 0, 67, 62
3, 247320, Note_on_c, 0, 67, 0
3, 247320, Note_on_c, 0, 63, 0
3, 247320, Note_on_c, 0, 63, 62
3, 247320, Note_on_c, 0, 67, 62
3, 247440, Note_on_c, 0, 67, 0
3, 247440, Note_on_c, 0, 63, 0
3, 247440, Note_on_c, 0, 63, 62
3, 247440, Note_on_c, 0, 67, 62
3, 247560, Note_on_c, 0, 67, 0
3, 247560, Note_on_c, 0, 63, 0
3, 247560, Note_on_c, 0, 63, 62
3, 247560, Note_on_c, 0, 67, 62
3, 247680, Note_on_c, 0, 67, 0
3, 247680, Note_on_c, 0, 63, 0
3, 247680, Note_on_c, 0, 64, 62
3, 247680, Note_on_c, 0, 67, 62
3, 247800, Note_on_c, 0, 67, 0
3, 247800, Note_on_c, 0, 64, 0
3, 247800, Note_on_c, 0, 64, 62
3, 247800, Note_on_c, 0, 67, 62
3, 247920, Note_on_c, 0, 67, 0
3, 247920, Note_on_c, 0, 64, 0
3, 247920, Note_on_c, 0, 64, 62
3, 247920, Note_on_c, 0, 67, 62
3, 248040, Note_on_c, 0, 67, 0
3, 248040, Note_on_c, 0, 64, 0
3, 248040, Note_on_c, 0, 64, 62
3, 248040, Note_on_c, 0, 67, 62
3, 248160, Note_on_c, 0, 67, 0
3, 248160, Note_on_c, 0, 64, 0
3, 248160, Note_on_c, 0, 64, 62
3, 248160, Note_on_c, 0, 67, 62
3, 248280, Note_on_c, 0, 67, 0
3, 248280, Note_on_c, 0, 64, 0
3, 248280, Note_on_c, 0, 64, 62
3, 248280, Note_on_c, 0, 67, 62
3, 248400, Note_on_c, 0, 67, 0
3, 248400, Note_on_c, 0, 64, 0
3, 248400, Note_on_c, 0, 64, 62
3, 248400, Note_on_c, 0, 67, 62
3, 248520, Note_on_c, 0, 67, 0
3, 248520, Note_on_c, 0, 64, 0
3, 248520, Note_on_c, 0, 64, 62
3, 248520, Note_on_c, 0, 67, 62
3, 248640, Note_on_c, 0, 67, 0
3, 248640, Note_on_c, 0, 64, 0
3, 248640, Note_on_c, 0, 65, 62
3, 248640, Note_on_c, 0, 70, 62
3, 248760, Note_on_c, 0, 70, 0
3, 248760, Note_on_c, 0, 65, 0
3, 248760, Note_on_c, 0, 65, 62
3, 248760, Note_on_c, 0, 70, 62
3, 248880, Note_on_c, 0, 70, 0
3, 248880, Note_on_c, 0, 65, 0
3, 248880, Note_on_c, 0, 65, 62
3, 248880, Note_on_c, 0, 70, 62
3, 249000, Note_on_c, 0, 70, 0
3, 249000, Note_on_c, 0, 65, 0
3, 249000, Note_on_c, 0, 65, 62
3, 249000, Note_on_c, 0, 70, 62
3, 249120, Note_on_c, 0, 70, 0
3, 249120, Note_on_c, 0, 65, 0
3, 249120, Note_on_c, 0, 65, 62
3, 249120, Note_on_c, 0, 70, 62
3, 249240, Note_on_c, 0, 70, 0
3, 249240, Note_on_c, 0, 65, 0
3, 249240, Note_on_c, 0, 65, 62
3, 249240, Note_on_c, 0, 70, 62
3, 249360, Note_on_c, 0, 70, 0
3, 249360, Note_on_c, 0, 65, 0
3, 249360, Note_on_c, 0, 65, 62
3, 249360, Note_on_c, 0, 70, 62
3, 249480, Note_on_c, 0, 70, 0
3, 249480, Note_on_c, 0, 65, 0
3, 249480, Note_on_c, 0, 65, 62
3, 249480, Note_on_c, 0, 70, 62
3, 249600, Note_on_c, 0, 70, 0
3, 249600, Note_on_c, 0, 65, 0
3, 249600, Note_on_c, 0, 65, 62
3, 249600, Note_on_c, 0, 70, 62
3, 249600, Note_on_c, 0, 73, 62
3, 249720, Note_on_c, 0, 73, 0
3, 249720, Note_on_c, 0, 70, 0
3, 249720, Note_on_c, 0, 65, 0
3, 249720, Note_on_c, 0, 65, 62
3, 249720, Note_on_c, 0, 70, 62
3, 249720, Note_on_c, 0, 73, 62
3, 249840, Note_on_c, 0, 73, 0
3, 249840, Note_on_c, 0, 70, 0
3, 249840, Note_on_c, 0, 65, 0
3, 249840, Note_on_c, 0, 70, 62
3, 249840, Note_on_c, 0, 73, 62
3, 249960, Note_on_c, 0, 73, 0
3, 249960, Note_on_c, 0, 70, 0
3, 249960, Note_on_c, 0, 70, 62
3, 249960, Note_on_c, 0, 73, 62
3, 250080, Note_on_c, 0, 73, 0
3, 250080, Note_on_c, 0, 70, 0
3, 250080, Note_on_c, 0, 73, 62
3, 250080, Note_on_c, 0, 77, 62
3, 250200, Note_on_c, 0, 77, 0
3, 250200, Note_on_c, 0, 73, 0
3, 250200, Note_on_c, 0, 73, 62
3, 250200, Note_on_c, 0, 77, 62
3, 250320, Note_on_c, 0, 77, 0
3, 250320, Note_on_c, 0, 73, 0
3, 250320, Note_on_c, 0, 73, 62
3, 250320, Note_on_c, 0, 77, 62
3, 250440, Note_on_c, 0, 77, 0
3, 250440, Note_on_c, 0, 73, 0
3, 250440, Note_on_c, 0, 73, 62
3, 250440, Note_on_c, 0, 77, 62
3, 250560, Note_on_c, 0, 77, 0
3, 250560, Note_on_c, 0, 73, 0
3, 250560, Note_on_c, 0, 73, 75
3, 250560, Note_on_c, 0, 77, 75
3, 250680, Note_on_c, 0, 77, 0
3, 250680, Note_on_c, 0, 73, 0
3, 250680, Note_on_c, 0, 73, 75
3, 250680, Note_on_c, 0, 77, 75
3, 250800, Note_on_c, 0, 77, 0
3, 250800, Note_on_c, 0, 73, 0
3, 250800, Note_on_c, 0, 73, 75
3, 250800, Note_on_c, 0, 77, 75
3, 250920, Note_on_c, 0, 77, 0
3, 250920, Note_on_c, 0, 73, 0
3, 250920, Note_on_c, 0, 73, 75
3, 250920, Note_on_c, 0, 77, 75
3, 251040, Note_on_c, 0, 77, 0
3, 251040, Note_on_c, 0, 73, 0
3, 251040, Note_on_c, 0, 73, 75
3, 251040, Note_on_c, 0, 77, 75
3, 251160, Note_on_c, 0, 77, 0
3, 251160, Note_on_c, 0, 73, 0
3, 251160, Note_on_c, 0, 73, 75
3, 251160, Note_on_c, 0, 77, 75
3, 251280, Note_on_c, 0, 77, 0
3, 251280, Note_on_c, 0, 73, 0
3, 251280, Note_on_c, 0, 73, 75
3, 251280, Note_on_c, 0, 77, 75
3, 251400, Note_on_c, 0, 77, 0
3, 251400, Note_on_c, 0, 73, 0
3, 251400, Note_on_c, 0, 73, 75
3, 251400, Note_on_c, 0, 77, 75
3, 251520, Note_on_c, 0, 77, 0
3, 251520, Note_on_c, 0, 73, 0
3, 251520, Note_on_c, 0, 75, 75
3, 251520, Note_on_c, 0, 77, 75
3, 251640, Note_on_c, 0, 77, 0
3, 251640, Note_on_c, 0, 75, 0
3, 251640, Note_on_c, 0, 75, 75
3, 251640, Note_on_c, 0, 77, 75
3, 251760, Note_on_c, 0, 77, 0
3, 251760, Note_on_c, 0, 75, 0
3, 251760, Note_on_c, 0, 75, 75
3, 251760, Note_on_c, 0, 77, 75
3, 251880, Note_on_c, 0, 77, 0
3, 251880, Note_on_c, 0, 75, 0
3, 251880, Note_on_c, 0, 75, 75
3, 251880, Note_on_c, 0, 77, 75
3, 252000, Note_on_c, 0, 77, 0
3, 252000, Note_on_c, 0, 75, 0
3, 252000, Note_on_c, 0, 75, 75
3, 252000, Note_on_c, 0, 77, 75
3, 252120, Note_on_c, 0, 77, 0
3, 252120, Note_on_c, 0, 75, 0
3, 252120, Note_on_c, 0, 75, 75
3, 252120, Note_on_c, 0, 77, 75
3, 252240, Note_on_c, 0, 77, 0
3, 252240, Note_on_c, 0, 75, 0
3, 252240, Note_on_c, 0, 75, 75
3, 252240, Note_on_c, 0, 77, 75
3, 252360, Note_on_c, 0, 77, 0
3, 252360, Note_on_c, 0, 75, 0
3, 252360, Note_on_c, 0, 75, 75
3, 252360, Note_on_c, 0, 77, 75
3, 252480, Note_on_c, 0, 77, 0
3, 252480, Note_on_c, 0, 75, 0
3, 252480, Note_on_c, 0, 75, 75
3, 252480, Note_on_c, 0, 77, 75
3, 252600, Note_on_c, 0, 77, 0
3, 252600, Note_on_c, 0, 75, 0
3, 252600, Note_on_c, 0, 75, 75
3, 252600, Note_on_c, 0, 77, 75
3, 252720, Note_on_c, 0, 77, 0
3, 252720, Note_on_c, 0, 75, 0
3, 252720, Note_on_c, 0, 75, 75
3, 252720, Note_on_c, 0, 77, 75
3, 252840, Note_on_c, 0, 77, 0
3, 252840, Note_on_c, 0, 75, 0
3, 252840, Note_on_c, 0, 75, 75
3, 252840, Note_on_c, 0, 77, 75
3, 252960, Note_on_c, 0, 77, 0
3, 252960, Note_on_c, 0, 75, 0
3, 252960, Note_on_c, 0, 75, 75
3, 252960, Note_on_c, 0, 77, 75
3, 253080, Note_on_c, 0, 77, 0
3, 253080, Note_on_c, 0, 75, 0
3, 253080, Note_on_c, 0, 75, 75
3, 253080, Note_on_c, 0, 77, 75
3, 253200, Note_on_c, 0, 77, 0
3, 253200, Note_on_c, 0, 75, 0
3, 253200, Note_on_c, 0, 75, 75
3, 253200, Note_on_c, 0, 77, 75
3, 253320, Note_on_c, 0, 77, 0
3, 253320, Note_on_c, 0, 75, 0
3, 253320, Note_on_c, 0, 75, 75
3, 253320, Note_on_c, 0, 77, 75
3, 253440, Note_on_c, 0, 77, 0
3, 253440, Note_on_c, 0, 75, 0
3, 253440, Note_on_c, 0, 73, 75
3, 253440, Note_on_c, 0, 77, 75
3, 253560, Note_on_c, 0, 77, 0
3, 253560, Note_on_c, 0, 73, 0
3, 253560, Note_on_c, 0, 73, 75
3, 253560, Note_on_c, 0, 77, 75
3, 253680, Note_on_c, 0, 77, 0
3, 253680, Note_on_c, 0, 73, 0
3, 253680, Note_on_c, 0, 73, 75
3, 253680, Note_on_c, 0, 77, 75
3, 253800, Note_on_c, 0, 77, 0
3, 253800, Note_on_c, 0, 73, 0
3, 253800, Note_on_c, 0, 73, 75
3, 253800, Note_on_c, 0, 77, 75
3, 253920, Note_on_c, 0, 77, 0
3, 253920, Note_on_c, 0, 73, 0
3, 253920, Note_on_c, 0, 73, 75
3, 253920, Note_on_c, 0, 77, 75
3, 254040, Note_on_c, 0, 77, 0
3, 254040, Note_on_c, 0, 73, 0
3, 254040, Note_on_c, 0, 73, 75
3, 254040, Note_on_c, 0, 77, 75
3, 254160, Note_on_c, 0, 77, 0
3, 254160, Note_on_c, 0, 73, 0
3, 254160, Note_on_c, 0, 73, 75
3, 254160, Note_on_c, 0, 77, 75
3, 254280, Note_on_c, 0, 77, 0
3, 254280, Note_on_c, 0, 73, 0
3, 254280, Note_on_c, 0, 73, 75
3, 254280, Note_on_c, 0, 77, 75
3, 254400, Note_on_c, 0, 77, 0
3, 254400, Note_on_c, 0, 73, 0
3, 254400, Note_on_c, 0, 74, 75
3, 254400, Note_on_c, 0, 77, 75
3, 254520, Note_on_c, 0, 77, 0
3, 254520, Note_on_c, 0, 74, 0
3, 254520, Note_on_c, 0, 74, 75
3, 254520, Note_on_c, 0, 77, 75
3, 254640, Note_on_c, 0, 77, 0
3, 254640, Note_on_c, 0, 74, 0
3, 254640, Note_on_c, 0, 74, 75
3, 254640, Note_on_c, 0, 77, 75
3, 254760, Note_on_c, 0, 77, 0
3, 254760, Note_on_c, 0, 74, 0
3, 254760, Note_on_c, 0, 74, 75
3, 254760, Note_on_c, 0, 77, 75
3, 254880, Note_on_c, 0, 77, 0
3, 254880, Note_on_c, 0, 74, 0
3, 254880, Note_on_c, 0, 74, 75
3, 254880, Note_on_c, 0, 77, 75
3, 255000, Note_on_c, 0, 77, 0
3, 255000, Note_on_c, 0, 74, 0
3, 255000, Note_on_c, 0, 74, 75
3, 255000, Note_on_c, 0, 77, 75
3, 255120, Note_on_c, 0, 77, 0
3, 255120, Note_on_c, 0, 74, 0
3, 255120, Note_on_c, 0, 74, 75
3, 255120, Note_on_c, 0, 77, 75
3, 255240, Note_on_c, 0, 77, 0
3, 255240, Note_on_c, 0, 74, 0
3, 255240, Note_on_c, 0, 74, 75
3, 255240, Note_on_c, 0, 77, 75
3, 255360, Note_on_c, 0, 77, 0
3, 255360, Note_on_c, 0, 74, 0
3, 255360, Note_on_c, 0, 75, 75
3, 255360, Note_on_c, 0, 78, 75
3, 255480, Note_on_c, 0, 78, 0
3, 255480, Note_on_c, 0, 75, 0
3, 255480, Note_on_c, 0, 75, 75
3, 255480, Note_on_c, 0, 78, 75
3, 255600, Note_on_c, 0, 78, 0
3, 255600, Note_on_c, 0, 75, 0
3, 255600, Note_on_c, 0, 75, 75
3, 255600, Note_on_c, 0, 78, 75
3, 255720, Note_on_c, 0, 78, 0
3, 255720, Note_on_c, 0, 75, 0
3, 255720, Note_on_c, 0, 75, 75
3, 255720, Note_on_c, 0, 78, 75
3, 255840, Note_on_c, 0, 78, 0
3, 255840, Note_on_c, 0, 75, 0
3, 255840, Note_on_c, 0, 75, 75
3, 255840, Note_on_c, 0, 78, 75
3, 255960, Note_on_c, 0, 78, 0
3, 255960, Note_on_c, 0, 75, 0
3, 255960, Note_on_c, 0, 75, 75
3, 255960, Note_on_c, 0, 78, 75
3, 256080, Note_on_c, 0, 78, 0
3, 256080, Note_on_c, 0, 75, 0
3, 256080, Note_on_c, 0, 75, 75
3, 256080, Note_on_c, 0, 78, 75
3, 256200, Note_on_c, 0, 78, 0
3, 256200, Note_on_c, 0, 75, 0
3, 256200, Note_on_c, 0, 75, 75
3, 256200, Note_on_c, 0, 78, 75
3, 256320, Note_on_c, 0, 78, 0
3, 256320, Note_on_c, 0, 75, 0
3, 256320, Note_on_c, 0, 76, 75
3, 256320, Note_on_c, 0, 79, 75
3, 256440, Note_on_c, 0, 79, 0
3, 256440, Note_on_c, 0, 76, 0
3, 256440, Note_on_c, 0, 76, 75
3, 256440, Note_on_c, 0, 79, 75
3, 256560, Note_on_c, 0, 79, 0
3, 256560, Note_on_c, 0, 76, 0
3, 256560, Note_on_c, 0, 76, 75
3, 256560, Note_on_c, 0, 79, 75
3, 256680, Note_on_c, 0, 79, 0
3, 256680, Note_on_c, 0, 76, 0
3, 256680, Note_on_c, 0, 76, 75
3, 256680, Note_on_c, 0, 79, 75
3, 256800, Note_on_c, 0, 79, 0
3, 256800, Note_on_c, 0, 76, 0
3, 256800, Note_on_c, 0, 76, 75
3, 256800, Note_on_c, 0, 79, 75
3, 256920, Note_on_c, 0, 79, 0
3, 256920, Note_on_c, 0, 76, 0
3, 256920, Note_on_c, 0, 76, 75
3, 256920, Note_on_c, 0, 79, 75
3, 257040, Note_on_c, 0, 79, 0
3, 257040, Note_on_c, 0, 76, 0
3, 257040, Note_on_c, 0, 76, 75
3, 257040, Note_on_c, 0, 79, 75
3, 257160, Note_on_c, 0, 79, 0
3, 257160, Note_on_c, 0, 76, 0
3, 257160, Note_on_c, 0, 76, 75
3, 257160, Note_on_c, 0, 79, 75
3, 257280, Note_on_c, 0, 79, 0
3, 257280, Note_on_c, 0, 76, 0
3, 257280, Note_on_c, 0, 77, 75
3, 257280, Note_on_c, 0, 80, 75
3, 257400, Note_on_c, 0, 80, 0
3, 257400, Note_on_c, 0, 77, 0
3, 257400, Note_on_c, 0, 77, 75
3, 257400, Note_on_c, 0, 80, 75
3, 257520, Note_on_c, 0, 80, 0
3, 257520, Note_on_c, 0, 77, 0
3, 257520, Note_on_c, 0, 77, 75
3, 257520, Note_on_c, 0, 80, 75
3, 257640, Note_on_c, 0, 80, 0
3, 257640, Note_on_c, 0, 77, 0
3, 257640, Note_on_c, 0, 77, 75
3, 257640, Note_on_c, 0, 80, 75
3, 257760, Note_on_c, 0, 80, 0
3, 257760, Note_on_c, 0, 77, 0
3, 257760, Note_on_c, 0, 77, 75
3, 257760, Note_on_c, 0, 80, 75
3, 257880, Note_on_c, 0, 80, 0
3, 257880, Note_on_c, 0, 77, 0
3, 257880, Note_on_c, 0, 77, 75
3, 257880, Note_on_c, 0, 80, 75
3, 258000, Note_on_c, 0, 80, 0
3, 258000, Note_on_c, 0, 77, 0
3, 258000, Note_on_c, 0, 77, 75
3, 258000, Note_on_c, 0, 80, 75
3, 258120, Note_on_c, 0, 80, 0
3, 258120, Note_on_c, 0, 77, 0
3, 258120, Note_on_c, 0, 77, 75
3, 258120, Note_on_c, 0, 80, 75
3, 258240, Note_on_c, 0, 80, 0
3, 258240, Note_on_c, 0, 77, 0
3, 258240, Note_on_c, 0, 79, 75
3, 258240, Note_on_c, 0, 82, 75
3, 258360, Note_on_c, 0, 82, 0
3, 258360, Note_on_c, 0, 79, 0
3, 258360, Note_on_c, 0, 79, 75
3, 258360, Note_on_c, 0, 82, 75
3, 258480, Note_on_c, 0, 82, 0
3, 258480, Note_on_c, 0, 79, 0
3, 258480, Note_on_c, 0, 79, 75
3, 258480, Note_on_c, 0, 82, 75
3, 258600, Note_on_c, 0, 82, 0
3, 258600, Note_on_c, 0, 79, 0
3, 258600, Note_on_c, 0, 79, 75
3, 258600, Note_on_c, 0, 82, 75
3, 258720, Note_on_c, 0, 82, 0
3, 258720, Note_on_c, 0, 79, 0
3, 258720, Note_on_c, 0, 79, 75
3, 258720, Note_on_c, 0, 82, 75
3, 258840, Note_on_c, 0, 82, 0
3, 258840, Note_on_c, 0, 79, 0
3, 258840, Note_on_c, 0, 79, 75
3, 258840, Note_on_c, 0, 82, 75
3, 258960, Note_on_c, 0, 82, 0
3, 258960, Note_on_c, 0, 79, 0
3, 258960, Note_on_c, 0, 79, 75
3, 258960, Note_on_c, 0, 82, 75
3, 259080, Note_on_c, 0, 82, 0
3, 259080, Note_on_c, 0, 79, 0
3, 259080, Note_on_c, 0, 79, 75
3, 259080, Note_on_c, 0, 82, 75
3, 259200, Note_on_c, 0, 82, 0
3, 259200, Note_on_c, 0, 79, 0
3, 259200, Note_on_c, 0, 81, 75
3, 259200, Note_on_c, 0, 84, 75
3, 259320, Note_on_c, 0, 84, 0
3, 259320, Note_on_c, 0, 81, 0
3, 259320, Note_on_c, 0, 81, 75
3, 259320, Note_on_c, 0, 84, 75
3, 259440, Note_on_c, 0, 84, 0
3, 259440, Note_on_c, 0, 81, 0
3, 259440, Note_on_c, 0, 81, 75
3, 259440, Note_on_c, 0, 84, 75
3, 259560, Note_on_c, 0, 84, 0
3, 259560, Note_on_c, 0, 81, 0
3, 259560, Note_on_c, 0, 81, 75
3, 259560, Note_on_c, 0, 84, 75
3, 259680, Note_on_c, 0, 84, 0
3, 259680, Note_on_c, 0, 81, 0
3, 259680, Note_on_c, 0, 81, 75
3, 259680, Note_on_c, 0, 84, 75
3, 259800, Note_on_c, 0, 84, 0
3, 259800, Note_on_c, 0, 81, 0
3, 259800, Note_on_c, 0, 81, 75
3, 259800, Note_on_c, 0, 84, 75
3, 259920, Note_on_c, 0, 84, 0
3, 259920, Note_on_c, 0, 81, 0
3, 259920, Note_on_c, 0, 81, 75
3, 259920, Note_on_c, 0, 84, 75
3, 260040, Note_on_c, 0, 84, 0
3, 260040, Note_on_c, 0, 81, 0
3, 260040, Note_on_c, 0, 81, 75
3, 260040, Note_on_c, 0, 84, 75
3, 260160, Note_on_c, 0, 84, 0
3, 260160, Note_on_c, 0, 81, 0
3, 260160, Note_on_c, 0, 82, 75
3, 260160, Note_on_c, 0, 85, 75
3, 260280, Note_on_c, 0, 85, 0
3, 260280, Note_on_c, 0, 82, 0
3, 260280, Note_on_c, 0, 82, 75
3, 260280, Note_on_c, 0, 85, 75
3, 260400, Note_on_c, 0, 85, 0
3, 260400, Note_on_c, 0, 82, 0
3, 260400, Note_on_c, 0, 82, 75
3, 260400, Note_on_c, 0, 85, 75
3, 260520, Note_on_c, 0, 85, 0
3, 260520, Note_on_c, 0, 82, 0
3, 260520, Note_on_c, 0, 82, 75
3, 260520, Note_on_c, 0, 85, 75
3, 260640, Note_on_c, 0, 85, 0
3, 260640, Note_on_c, 0, 82, 0
3, 260640, Note_on_c, 0, 82, 75
3, 260640, Note_on_c, 0, 85, 75
3, 260760, Note_on_c, 0, 85, 0
3, 260760, Note_on_c, 0, 82, 0
3, 260760, Note_on_c, 0, 82, 75
3, 260760, Note_on_c, 0, 85, 75
3, 260880, Note_on_c, 0, 85, 0
3, 260880, Note_on_c, 0, 82, 0
3, 260880, Note_on_c, 0, 82, 75
3, 260880, Note_on_c, 0, 85, 75
3, 261000, Note_on_c, 0, 85, 0
3, 261000, Note_on_c, 0, 82, 0
3, 261000, Note_on_c, 0, 82, 75
3, 261000, Note_on_c, 0, 85, 75
3, 261120, Note_on_c, 0, 85, 0
3, 261120, Note_on_c, 0, 82, 0
3, 261120, Control_c, 0, 64, 127
3, 261120, Note_on_c, 0, 87, 101
3, 261200, Note_on_c, 0, 87, 0
3, 261200, Note_on_c, 0, 84, 101
3, 261279, Note_on_c, 0, 84, 0
3, 261279, Note_on_c, 0, 87, 101
3, 261360, Note_on_c, 0, 87, 0
3, 261360, Note_on_c, 0, 93, 101
3, 261440, Note_on_c, 0, 93, 0
3, 261440, Note_on_c, 0, 87, 101
3, 261519, Note_on_c, 0, 87, 0
3, 261519, Note_on_c, 0, 84, 101
3, 261600, Note_on_c, 0, 84, 0
3, 261600, Note_on_c, 0, 96, 101
3, 261680, Note_on_c, 0, 96, 0
3, 261680, Note_on_c, 0, 87, 101
3, 261759, Note_on_c, 0, 87, 0
3, 261759, Note_on_c, 0, 84, 101
3, 261840, Note_on_c, 0, 84, 0
3, 261840, Note_on_c, 0, 93, 101
3, 261920, Note_on_c, 0, 93, 0
3, 261920, Note_on_c, 0, 87, 101
3, 261999, Note_on_c, 0, 87, 0
3, 261999, Note_on_c, 0, 84, 101
3, 262080, Note_on_c, 0, 84, 0
3, 262080, Note_on_c, 0, 87, 101
3, 262160, Note_on_c, 0, 87, 0
3, 262160, Note_on_c, 0, 84, 101
3, 262239, Note_on_c, 0, 84, 0
3, 262239, Note_on_c, 0, 81, 101
3, 262320, Note_on_c, 0, 81, 0
3, 262320, Note_on_c, 0, 84, 101
3, 262400, Note_on_c, 0, 84, 0
3, 262400, Note_on_c, 0, 81, 101
3, 262479, Note_on_c, 0, 81, 0
3, 262479, Note_on_c, 0, 75, 101
3, 262560, Note_on_c, 0, 75, 0
3, 262560, Note_on_c, 0, 81, 101
3, 262640, Note_on_c, 0, 81, 0
3, 262640, Note_on_c, 0, 75, 101
3, 262719, Note_on_c, 0, 75, 0
3, 262719, Note_on_c, 0, 72, 101
3, 262800, Note_on_c, 0, 72, 0
3, 262800, Note_on_c, 0, 75, 101
3, 262880, Note_on_c, 0, 75, 0
3, 262880, Note_on_c, 0, 72, 101
3, 262959, Note_on_c, 0, 72, 0
3, 262959, Control_c, 0, 64, 0
3, 262959, Note_on_c, 0, 69, 101
3, 263040, Note_on_c, 0, 69, 0
3, 264960, Note_on_c, 0, 61, 49
3, 264960, Note_on_c, 0, 64, 49
3, 265080, Note_on_c, 0, 64, 0
3, 265080, Note_on_c, 0, 61, 0
3, 265080, Note_on_c, 0, 61, 49
3, 265080, Note_on_c, 0, 64, 49
3, 265200, Note_on_c, 0, 64, 0
3, 265200, Note_on_c, 0, 61, 0
3, 265200, Note_on_c, 0, 61, 49
3, 265200, Note_on_c, 0, 64, 49
3, 265320, Note_on_c, 0, 64, 0
3, 265320, Note_on_c, 0, 61, 0
3, 265320, Note_on_c, 0, 61, 49
3, 265320, Note_on_c, 0, 64, 49
3, 265440, Note_on_c, 0, 64, 0
3, 265440, Note_on_c, 0, 61, 0
3, 265440, Note_on_c, 0, 61, 49
3, 265440, Note_on_c, 0, 64, 49
3, 265560, Note_on_c, 0, 64, 0
3, 265560, Note_on_c, 0, 61, 0
3, 265560, Note_on_c, 0, 61, 49
3, 265560, Note_on_c, 0, 64, 49
3, 265680, Note_on_c, 0, 64, 0
3, 265680, Note_on_c, 0, 61, 0
3, 265680, Note_on_c, 0, 61, 49
3, 265680, Note_on_c, 0, 64, 49
3, 265800, Note_on_c, 0, 64, 0
3, 265800, Note_on_c, 0, 61, 0
3, 265800, Note_on_c, 0, 61, 49
3, 265800, Note_on_c, 0, 64, 49
3, 265920, Note_on_c, 0, 64, 0
3, 265920, Note_on_c, 0, 61, 0
3, 265920, Note_on_c, 0, 61, 49
3, 265920, Note_on_c, 0, 64, 49
3, 266040, Note_on_c, 0, 64, 0
3, 266040, Note_on_c, 0, 61, 0
3, 266040, Note_on_c, 0, 61, 49
3, 266040, Note_on_c, 0, 64, 49
3, 266160, Note_on_c, 0, 64, 0
3, 266160, Note_on_c, 0, 61, 0
3, 266160, Note_on_c, 0, 61, 49
3, 266160, Note_on_c, 0, 64, 49
3, 266280, Note_on_c, 0, 64, 0
3, 266280, Note_on_c, 0, 61, 0
3, 266280, Note_on_c, 0, 61, 49
3, 266280, Note_on_c, 0, 64, 49
3, 266400, Note_on_c, 0, 64, 0
3, 266400, Note_on_c, 0, 61, 0
3, 266400, Note_on_c, 0, 61, 49
3, 266400, Note_on_c, 0, 64, 49
3, 266520, Note_on_c, 0, 64, 0
3, 266520, Note_on_c, 0, 61, 0
3, 266520, Note_on_c, 0, 61, 49
3, 266520, Note_on_c, 0, 64, 49
3, 266640, Note_on_c, 0, 64, 0
3, 266640, Note_on_c, 0, 61, 0
3, 266640, Note_on_c, 0, 61, 49
3, 266640, Note_on_c, 0, 64, 49
3, 266760, Note_on_c, 0, 64, 0
3, 266760, Note_on_c, 0, 61, 0
3, 266760, Note_on_c, 0, 61, 49
3, 266760, Note_on_c, 0, 64, 49
3, 266880, Note_on_c, 0, 64, 0
3, 266880, Note_on_c, 0, 61, 0
3, 266880, Note_on_c, 0, 62, 62
3, 267000, Note_on_c, 0, 62, 0
3, 267000, Note_on_c, 0, 62, 62
3, 267120, Note_on_c, 0, 62, 0
3, 267120, Note_on_c, 0, 62, 62
3, 267240, Note_on_c, 0, 62, 0
3, 267240, Note_on_c, 0, 62, 62
3, 267360, Note_on_c, 0, 62, 0
3, 267360, Note_on_c, 0, 62, 62
3, 267360, Note_on_c, 0, 66, 62
3, 267480, Note_on_c, 0, 66, 0
3, 267480, Note_on_c, 0, 62, 0
3, 267480, Note_on_c, 0, 62, 62
3, 267480, Note_on_c, 0, 66, 62
3, 267600, Note_on_c, 0, 66, 0
3, 267600, Note_on_c, 0, 62, 0
3, 267600, Note_on_c, 0, 62, 62
3, 267600, Note_on_c, 0, 66, 62
3, 267720, Note_on_c, 0, 66, 0
3, 267720, Note_on_c, 0, 62, 0
3, 267720, Note_on_c, 0, 62, 62
3, 267720, Note_on_c, 0, 66, 62
3, 267840, Note_on_c, 0, 66, 0
3, 267840, Note_on_c, 0, 62, 0
3, 267840, Note_on_c, 0, 62, 62
3, 267840, Note_on_c, 0, 66, 62
3, 267960, Note_on_c, 0, 66, 0
3, 267960, Note_on_c, 0, 62, 0
3, 267960, Note_on_c, 0, 62, 62
3, 267960, Note_on_c, 0, 66, 62
3, 268080, Note_on_c, 0, 66, 0
3, 268080, Note_on_c, 0, 62, 0
3, 268080, Note_on_c, 0, 62, 62
3, 268080, Note_on_c, 0, 66, 62
3, 268200, Note_on_c, 0, 66, 0
3, 268200, Note_on_c, 0, 62, 0
3, 268200, Note_on_c, 0, 62, 62
3, 268200, Note_on_c, 0, 66, 62
3, 268320, Note_on_c, 0, 66, 0
3, 268320, Note_on_c, 0, 62, 0
3, 268320, Note_on_c, 0, 62, 62
3, 268320, Note_on_c, 0, 66, 62
3, 268440, Note_on_c, 0, 66, 0
3, 268440, Note_on_c, 0, 62, 0
3, 268440, Note_on_c, 0, 62, 62
3, 268440, Note_on_c, 0, 66, 62
3, 268560, Note_on_c, 0, 66, 0
3, 268560, Note_on_c, 0, 62, 0
3, 268560, Note_on_c, 0, 62, 62
3, 268560, Note_on_c, 0, 66, 62
3, 268680, Note_on_c, 0, 66, 0
3, 268680, Note_on_c, 0, 62, 0
3, 268680, Note_on_c, 0, 62, 62
3, 268680, Note_on_c, 0, 66, 62
3, 268800, Note_on_c, 0, 66, 0
3, 268800, Note_on_c, 0, 62, 0
3, 268800, Note_on_c, 0, 64, 62
3, 268920, Note_on_c, 0, 64, 0
3, 268920, Note_on_c, 0, 64, 62
3, 269040, Note_on_c, 0, 64, 0
3, 269040, Note_on_c, 0, 64, 62
3, 269160, Note_on_c, 0, 64, 0
3, 269160, Note_on_c, 0, 64, 62
3, 269280, Note_on_c, 0, 64, 0
3, 269280, Note_on_c, 0, 64, 62
3, 269400, Note_on_c, 0, 64, 0
3, 269400, Note_on_c, 0, 64, 62
3, 269520, Note_on_c, 0, 64, 0
3, 269520, Note_on_c, 0, 64, 62
3, 269640, Note_on_c, 0, 64, 0
3, 269640, Note_on_c, 0, 64, 62
3, 269760, Note_on_c, 0, 64, 0
3, 269760, Note_on_c, 0, 62, 62
3, 269760, Note_on_c, 0, 66, 62
3, 269880, Note_on_c, 0, 66, 0
3, 269880, Note_on_c, 0, 62, 0
3, 269880, Note_on_c, 0, 62, 62
3, 269880, Note_on_c, 0, 66, 62
3, 270000, Note_on_c, 0, 66, 0
3, 270000, Note_on_c, 0, 62, 0
3, 270000, Note_on_c, 0, 62, 62
3, 270000, Note_on_c, 0, 66, 62
3, 270120, Note_on_c, 0, 66, 0
3, 270120, Note_on_c, 0, 62, 0
3, 270120, Note_on_c, 0, 62, 62
3, 270120, Note_on_c, 0, 66, 62
3, 270240, Note_on_c, 0, 66, 0
3, 270240, Note_on_c, 0, 62, 0
3, 270240, Note_on_c, 0, 62, 62
3, 270240, Note_on_c, 0, 66, 62
3, 270360, Note_on_c, 0, 66, 0
3, 270360, Note_on_c, 0, 62, 0
3, 270360, Note_on_c, 0, 62, 62
3, 270360, Note_on_c, 0, 66, 62
3, 270480, Note_on_c, 0, 66, 0
3, 270480, Note_on_c, 0, 62, 0
3, 270480, Note_on_c, 0, 62, 62
3, 270480, Note_on_c, 0, 66, 62
3, 270600, Note_on_c, 0, 66, 0
3, 270600, Note_on_c, 0, 62, 0
3, 270600, Note_on_c, 0, 62, 62
3, 270600, Note_on_c, 0, 66, 62
3, 270720, Note_on_c, 0, 66, 0
3, 270720, Note_on_c, 0, 62, 0
3, 270720, Note_on_c, 0, 63, 62
3, 270720, Note_on_c, 0, 66, 62
3, 270840, Note_on_c, 0, 66, 0
3, 270840, Note_on_c, 0, 63, 0
3, 270840, Note_on_c, 0, 63, 62
3, 270840, Note_on_c, 0, 66, 62
3, 270960, Note_on_c, 0, 66, 0
3, 270960, Note_on_c, 0, 63, 0
3, 270960, Note_on_c, 0, 63, 62
3, 270960, Note_on_c, 0, 66, 62
3, 271080, Note_on_c, 0, 66, 0
3, 271080, Note_on_c, 0, 63, 0
3, 271080, Note_on_c, 0, 63, 62
3, 271080, Note_on_c, 0, 66, 62
3, 271200, Note_on_c, 0, 66, 0
3, 271200, Note_on_c, 0, 63, 0
3, 271200, Note_on_c, 0, 63, 62
3, 271200, Note_on_c, 0, 66, 62
3, 271320, Note_on_c, 0, 66, 0
3, 271320, Note_on_c, 0, 63, 0
3, 271320, Note_on_c, 0, 63, 62
3, 271320, Note_on_c, 0, 66, 62
3, 271440, Note_on_c, 0, 66, 0
3, 271440, Note_on_c, 0, 63, 0
3, 271440, Note_on_c, 0, 63, 62
3, 271440, Note_on_c, 0, 66, 62
3, 271560, Note_on_c, 0, 66, 0
3, 271560, Note_on_c, 0, 63, 0
3, 271560, Note_on_c, 0, 63, 62
3, 271560, Note_on_c, 0, 66, 62
3, 271680, Note_on_c, 0, 66, 0
3, 271680, Note_on_c, 0, 63, 0
3, 271680, Note_on_c, 0, 64, 75
3, 271680, Note_on_c, 0, 69, 75
3, 271800, Note_on_c, 0, 69, 0
3, 271800, Note_on_c, 0, 64, 0
3, 271800, Note_on_c, 0, 64, 75
3, 271800, Note_on_c, 0, 69, 75
3, 271920, Note_on_c, 0, 69, 0
3, 271920, Note_on_c, 0, 64, 0
3, 271920, Note_on_c, 0, 64, 75
3, 271920, Note_on_c, 0, 69, 75
3, 272040, Note_on_c, 0, 69, 0
3, 272040, Note_on_c, 0, 64, 0
3, 272040, Note_on_c, 0, 64, 75
3, 272040, Note_on_c, 0, 69, 75
3, 272160, Note_on_c, 0, 69, 0
3, 272160, Note_on_c, 0, 64, 0
3, 272160, Note_on_c, 0, 64, 75
3, 272160, Note_on_c, 0, 69, 75
3, 272280, Note_on_c, 0, 69, 0
3, 272280, Note_on_c, 0, 64, 0
3, 272280, Note_on_c, 0, 64, 75
3, 272280, Note_on_c, 0, 69, 75
3, 272400, Note_on_c, 0, 69, 0
3, 272400, Note_on_c, 0, 64, 0
3, 272400, Note_on_c, 0, 64, 75
3, 272400, Note_on_c, 0, 69, 75
3, 272520, Note_on_c, 0, 69, 0
3, 272520, Note_on_c, 0, 64, 0
3, 272520, Note_on_c, 0, 64, 75
3, 272520, Note_on_c, 0, 69, 75
3, 272640, Note_on_c, 0, 69, 0
3, 272640, Note_on_c, 0, 64, 0
3, 272640, Note_on_c, 0, 64, 75
3, 272640, Note_on_c, 0, 69, 75
3, 272640, Note_on_c, 0, 72, 75
3, 272760, Note_on_c, 0, 72, 0
3, 272760, Note_on_c, 0, 69, 0
3, 272760, Note_on_c, 0, 64, 0
3, 272760, Note_on_c, 0, 64, 75
3, 272760, Note_on_c, 0, 69, 75
3, 272760, Note_on_c, 0, 72, 75
3, 272880, Note_on_c, 0, 72, 0
3, 272880, Note_on_c, 0, 69, 0
3, 272880, Note_on_c, 0, 64, 0
3, 272880, Note_on_c, 0, 64, 75
3, 272880, Note_on_c, 0, 69, 75
3, 272880, Note_on_c, 0, 72, 75
3, 273000, Note_on_c, 0, 72, 0
3, 273000, Note_on_c, 0, 69, 0
3, 273000, Note_on_c, 0, 64, 0
3, 273000, Note_on_c, 0, 64, 75
3, 273000, Note_on_c, 0, 69, 75
3, 273000, Note_on_c, 0, 72, 75
3, 273120, Note_on_c, 0, 72, 0
3, 273120, Note_on_c, 0, 69, 0
3, 273120, Note_on_c, 0, 64, 0
3, 273120, Note_on_c, 0, 72, 75
3, 273120, Note_on_c, 0, 76, 75
3, 273240, Note_on_c, 0, 76, 0
3, 273240, Note_on_c, 0, 72, 0
3, 273240, Note_on_c, 0, 72, 75
3, 273240, Note_on_c, 0, 76, 75
3, 273360, Note_on_c, 0, 76, 0
3, 273360, Note_on_c, 0, 72, 0
3, 273360, Note_on_c, 0, 72, 75
3, 273360, Note_on_c, 0, 76, 75
3, 273480, Note_on_c, 0, 76, 0
3, 273480, Note_on_c, 0, 72, 0
3, 273480, Note_on_c, 0, 72, 75
3, 273480, Note_on_c, 0, 76, 75
3, 273600, Note_on_c, 0, 76, 0
3, 273600, Note_on_c, 0, 72, 0
3, 273600, Note_on_c, 0, 72, 75
3, 273600, Note_on_c, 0, 76, 75
3, 273720, Note_on_c, 0, 76, 0
3, 273720, Note_on_c, 0, 72, 0
3, 273720, Note_on_c, 0, 72, 75
3, 273720, Note_on_c, 0, 76, 75
3, 273840, Note_on_c, 0, 76, 0
3, 273840, Note_on_c, 0, 72, 0
3, 273840, Note_on_c, 0, 72, 75
3, 273840, Note_on_c, 0, 76, 75
3, 273960, Note_on_c, 0, 76, 0
3, 273960, Note_on_c, 0, 72, 0
3, 273960, Note_on_c, 0, 72, 75
3, 273960, Note_on_c, 0, 76, 75
3, 274080, Note_on_c, 0, 76, 0
3, 274080, Note_on_c, 0, 72, 0
3, 274080, Note_on_c, 0, 72, 75
3, 274080, Note_on_c, 0, 76, 75
3, 274200, Note_on_c, 0, 76, 0
3, 274200, Note_on_c, 0, 72, 0
3, 274200, Note_on_c, 0, 72, 75
3, 274200, Note_on_c, 0, 76, 75
3, 274320, Note_on_c, 0, 76, 0
3, 274320, Note_on_c, 0, 72, 0
3, 274320, Note_on_c, 0, 72, 75
3, 274320, Note_on_c, 0, 76, 75
3, 274440, Note_on_c, 0, 76, 0
3, 274440, Note_on_c, 0, 72, 0
3, 274440, Note_on_c, 0, 72, 75
3, 274440, Note_on_c, 0, 76, 75
3, 274560, Note_on_c, 0, 76, 0
3, 274560, Note_on_c, 0, 72, 0
3, 274560, Note_on_c, 0, 74, 75
3, 274560, Note_on_c, 0, 76, 75
3, 274680, Note_on_c, 0, 76, 0
3, 274680, Note_on_c, 0, 74, 0
3, 274680, Note_on_c, 0, 74, 75
3, 274680, Note_on_c, 0, 76, 75
3, 274800, Note_on_c, 0, 76, 0
3, 274800, Note_on_c, 0, 74, 0
3, 274800, Note_on_c, 0, 74, 75
3, 274800, Note_on_c, 0, 76, 75
3, 274920, Note_on_c, 0, 76, 0
3, 274920, Note_on_c, 0, 74, 0
3, 274920, Note_on_c, 0, 74, 75
3, 274920, Note_on_c, 0, 76, 75
3, 275040, Note_on_c, 0, 76, 0
3, 275040, Note_on_c, 0, 74, 0
3, 275040, Note_on_c, 0, 74, 75
3, 275040, Note_on_c, 0, 76, 75
3, 275160, Note_on_c, 0, 76, 0
3, 275160, Note_on_c, 0, 74, 0
3, 275160, Note_on_c, 0, 74, 75
3, 275160, Note_on_c, 0, 76, 75
3, 275280, Note_on_c, 0, 76, 0
3, 275280, Note_on_c, 0, 74, 0
3, 275280, Note_on_c, 0, 74, 75
3, 275280, Note_on_c, 0, 76, 75
3, 275400, Note_on_c, 0, 76, 0
3, 275400, Note_on_c, 0, 74, 0
3, 275400, Note_on_c, 0, 74, 75
3, 275400, Note_on_c, 0, 76, 75
3, 275520, Note_on_c, 0, 76, 0
3, 275520, Note_on_c, 0, 74, 0
3, 275520, Note_on_c, 0, 74, 75
3, 275520, Note_on_c, 0, 76, 75
3, 275640, Note_on_c, 0, 76, 0
3, 275640, Note_on_c, 0, 74, 0
3, 275640, Note_on_c, 0, 74, 75
3, 275640, Note_on_c, 0, 76, 75
3, 275760, Note_on_c, 0, 76, 0
3, 275760, Note_on_c, 0, 74, 0
3, 275760, Note_on_c, 0, 74, 75
3, 275760, Note_on_c, 0, 76, 75
3, 275880, Note_on_c, 0, 76, 0
3, 275880, Note_on_c, 0, 74, 0
3, 275880, Note_on_c, 0, 74, 75
3, 275880, Note_on_c, 0, 76, 75
3, 276000, Note_on_c, 0, 76, 0
3, 276000, Note_on_c, 0, 74, 0
3, 276000, Note_on_c, 0, 74, 75
3, 276000, Note_on_c, 0, 76, 75
3, 276120, Note_on_c, 0, 76, 0
3, 276120, Note_on_c, 0, 74, 0
3, 276120, Note_on_c, 0, 74, 75
3, 276120, Note_on_c, 0, 76, 75
3, 276240, Note_on_c, 0, 76, 0
3, 276240, Note_on_c, 0, 74, 0
3, 276240, Note_on_c, 0, 74, 75
3, 276240, Note_on_c, 0, 76, 75
3, 276360, Note_on_c, 0, 76, 0
3, 276360, Note_on_c, 0, 74, 0
3, 276360, Note_on_c, 0, 74, 75
3, 276360, Note_on_c, 0, 76, 75
3, 276480, Note_on_c, 0, 76, 0
3, 276480, Note_on_c, 0, 74, 0
3, 276480, Note_on_c, 0, 72, 75
3, 276480, Note_on_c, 0, 76, 75
3, 276600, Note_on_c, 0, 76, 0
3, 276600, Note_on_c, 0, 72, 0
3, 276600, Note_on_c, 0, 72, 75
3, 276600, Note_on_c, 0, 76, 75
3, 276720, Note_on_c, 0, 76, 0
3, 276720, Note_on_c, 0, 72, 0
3, 276720, Note_on_c, 0, 72, 75
3, 276720, Note_on_c, 0, 76, 75
3, 276840, Note_on_c, 0, 76, 0
3, 276840, Note_on_c, 0, 72, 0
3, 276840, Note_on_c, 0, 72, 75
3, 276840, Note_on_c, 0, 76, 75
3, 276960, Note_on_c, 0, 76, 0
3, 276960, Note_on_c, 0, 72, 0
3, 276960, Note_on_c, 0, 72, 75
3, 276960, Note_on_c, 0, 76, 75
3, 277080, Note_on_c, 0, 76, 0
3, 277080, Note_on_c, 0, 72, 0
3, 277080, Note_on_c, 0, 72, 75
3, 277080, Note_on_c, 0, 76, 75
3, 277200, Note_on_c, 0, 76, 0
3, 277200, Note_on_c, 0, 72, 0
3, 277200, Note_on_c, 0, 72, 75
3, 277200, Note_on_c, 0, 76, 75
3, 277320, Note_on_c, 0, 76, 0
3, 277320, Note_on_c, 0, 72, 0
3, 277320, Note_on_c, 0, 72, 75
3, 277320, Note_on_c, 0, 76, 75
3, 277440, Note_on_c, 0, 76, 0
3, 277440, Note_on_c, 0, 72, 0
3, 277440, Note_on_c, 0, 73, 75
3, 277440, Note_on_c, 0, 76, 75
3, 277560, Note_on_c, 0, 76, 0
3, 277560, Note_on_c, 0, 73, 0
3, 277560, Note_on_c, 0, 73, 75
3, 277560, Note_on_c, 0, 76, 75
3, 277680, Note_on_c, 0, 76, 0
3, 277680, Note_on_c, 0, 73, 0
3, 277680, Note_on_c, 0, 73, 75
3, 277680, Note_on_c, 0, 76, 75
3, 277800, Note_on_c, 0, 76, 0
3, 277800, Note_on_c, 0, 73, 0
3, 277800, Note_on_c, 0, 73, 75
3, 277800, Note_on_c, 0, 76, 75
3, 277920, Note_on_c, 0, 76, 0
3, 277920, Note_on_c, 0, 73, 0
3, 277920, Note_on_c, 0, 73, 75
3, 277920, Note_on_c, 0, 76, 75
3, 278040, Note_on_c, 0, 76, 0
3, 278040, Note_on_c, 0, 73, 0
3, 278040, Note_on_c, 0, 73, 75
3, 278040, Note_on_c, 0, 76, 75
3, 278160, Note_on_c, 0, 76, 0
3, 278160, Note_on_c, 0, 73, 0
3, 278160, Note_on_c, 0, 73, 75
3, 278160, Note_on_c, 0, 76, 75
3, 278280, Note_on_c, 0, 76, 0
3, 278280, Note_on_c, 0, 73, 0
3, 278280, Note_on_c, 0, 73, 75
3, 278280, Note_on_c, 0, 76, 75
3, 278400, Note_on_c, 0, 76, 0
3, 278400, Note_on_c, 0, 73, 0
3, 278400, Note_on_c, 0, 74, 75
3, 278400, Note_on_c, 0, 77, 75
3, 278520, Note_on_c, 0, 77, 0
3, 278520, Note_on_c, 0, 74, 0
3, 278520, Note_on_c, 0, 74, 75
3, 278520, Note_on_c, 0, 77, 75
3, 278640, Note_on_c, 0, 77, 0
3, 278640, Note_on_c, 0, 74, 0
3, 278640, Note_on_c, 0, 74, 75
3, 278640, Note_on_c, 0, 77, 75
3, 278760, Note_on_c, 0, 77, 0
3, 278760, Note_on_c, 0, 74, 0
3, 278760, Note_on_c, 0, 74, 75
3, 278760, Note_on_c, 0, 77, 75
3, 278880, Note_on_c, 0, 77, 0
3, 278880, Note_on_c, 0, 74, 0
3, 278880, Note_on_c, 0, 74, 75
3, 278880, Note_on_c, 0, 77, 75
3, 279000, Note_on_c, 0, 77, 0
3, 279000, Note_on_c, 0, 74, 0
3, 279000, Note_on_c, 0, 74, 75
3, 279000, Note_on_c, 0, 77, 75
3, 279120, Note_on_c, 0, 77, 0
3, 279120, Note_on_c, 0, 74, 0
3, 279120, Note_on_c, 0, 74, 75
3, 279120, Note_on_c, 0, 77, 75
3, 279240, Note_on_c, 0, 77, 0
3, 279240, Note_on_c, 0, 74, 0
3, 279240, Note_on_c, 0, 74, 75
3, 279240, Note_on_c, 0, 77, 75
3, 279360, Note_on_c, 0, 77, 0
3, 279360, Note_on_c, 0, 74, 0
3, 279360, Note_on_c, 0, 75, 75
3, 279360, Note_on_c, 0, 78, 75
3, 279480, Note_on_c, 0, 78, 0
3, 279480, Note_on_c, 0, 75, 0
3, 279480, Note_on_c, 0, 75, 75
3, 279480, Note_on_c, 0, 78, 75
3, 279600, Note_on_c, 0, 78, 0
3, 279600, Note_on_c, 0, 75, 0
3, 279600, Note_on_c, 0, 75, 75
3, 279600, Note_on_c, 0, 78, 75
3, 279720, Note_on_c, 0, 78, 0
3, 279720, Note_on_c, 0, 75, 0
3, 279720, Note_on_c, 0, 75, 75
3, 279720, Note_on_c, 0, 78, 75
3, 279840, Note_on_c, 0, 78, 0
3, 279840, Note_on_c, 0, 75, 0
3, 279840, Note_on_c, 0, 75, 75
3, 279840, Note_on_c, 0, 78, 75
3, 279960, Note_on_c, 0, 78, 0
3, 279960, Note_on_c, 0, 75, 0
3, 279960, Note_on_c, 0, 75, 75
3, 279960, Note_on_c, 0, 78, 75
3, 280080, Note_on_c, 0, 78, 0
3, 280080, Note_on_c, 0, 75, 0
3, 280080, Note_on_c, 0, 75, 75
3, 280080, Note_on_c, 0, 78, 75
3, 280200, Note_on_c, 0, 78, 0
3, 280200, Note_on_c, 0, 75, 0
3, 280200, Note_on_c, 0, 75, 75
3, 280200, Note_on_c, 0, 78, 75
3, 280320, Note_on_c, 0, 78, 0
3, 280320, Note_on_c, 0, 75, 0
3, 280320, Note_on_c, 0, 76, 75
3, 280320, Note_on_c, 0, 79, 75
3, 280440, Note_on_c, 0, 79, 0
3, 280440, Note_on_c, 0, 76, 0
3, 280440, Note_on_c, 0, 76, 75
3, 280440, Note_on_c, 0, 79, 75
3, 280560, Note_on_c, 0, 79, 0
3, 280560, Note_on_c, 0, 76, 0
3, 280560, Note_on_c, 0, 76, 75
3, 280560, Note_on_c, 0, 79, 75
3, 280680, Note_on_c, 0, 79, 0
3, 280680, Note_on_c, 0, 76, 0
3, 280680, Note_on_c, 0, 76, 75
3, 280680, Note_on_c, 0, 79, 75
3, 280800, Note_on_c, 0, 79, 0
3, 280800, Note_on_c, 0, 76, 0
3, 280800, Note_on_c, 0, 76, 75
3, 280800, Note_on_c, 0, 79, 75
3, 280920, Note_on_c, 0, 79, 0
3, 280920, Note_on_c, 0, 76, 0
3, 280920, Note_on_c, 0, 76, 75
3, 280920, Note_on_c, 0, 79, 75
3, 281040, Note_on_c, 0, 79, 0
3, 281040, Note_on_c, 0, 76, 0
3, 281040, Note_on_c, 0, 76, 75
3, 281040, Note_on_c, 0, 79, 75
3, 281160, Note_on_c, 0, 79, 0
3, 281160, Note_on_c, 0, 76, 0
3, 281160, Note_on_c, 0, 76, 75
3, 281160, Note_on_c, 0, 79, 75
3, 281280, Note_on_c, 0, 79, 0
3, 281280, Note_on_c, 0, 76, 0
3, 281280, Note_on_c, 0, 78, 88
3, 281280, Note_on_c, 0, 81, 88
3, 281400, Note_on_c, 0, 81, 0
3, 281400, Note_on_c, 0, 78, 0
3, 281400, Note_on_c, 0, 78, 88
3, 281400, Note_on_c, 0, 81, 88
3, 281520, Note_on_c, 0, 81, 0
3, 281520, Note_on_c, 0, 78, 0
3, 281520, Note_on_c, 0, 78, 88
3, 281520, Note_on_c, 0, 81, 88
3, 281640, Note_on_c, 0, 81, 0
3, 281640, Note_on_c, 0, 78, 0
3, 281640, Note_on_c, 0, 78, 88
3, 281640, Note_on_c, 0, 81, 88
3, 281760, Note_on_c, 0, 81, 0
3, 281760, Note_on_c, 0, 78, 0
3, 281760, Note_on_c, 0, 78, 88
3, 281760, Note_on_c, 0, 81, 88
3, 281880, Note_on_c, 0, 81, 0
3, 281880, Note_on_c, 0, 78, 0
3, 281880, Note_on_c, 0, 78, 88
3, 281880, Note_on_c, 0, 81, 88
3, 282000, Note_on_c, 0, 81, 0
3, 282000, Note_on_c, 0, 78, 0
3, 282000, Note_on_c, 0, 78, 88
3, 282000, Note_on_c, 0, 81, 88
3, 282120, Note_on_c, 0, 81, 0
3, 282120, Note_on_c, 0, 78, 0
3, 282120, Note_on_c, 0, 78, 88
3, 282120, Note_on_c, 0, 81, 88
3, 282240, Note_on_c, 0, 81, 0
3, 282240, Note_on_c, 0, 78, 0
3, 282240, Note_on_c, 0, 79, 88
3, 282240, Note_on_c, 0, 86, 88
3, 282360, Note_on_c, 0, 86, 0
3, 282360, Note_on_c, 0, 79, 0
3, 282360, Note_on_c, 0, 79, 88
3, 282360, Note_on_c, 0, 86, 88
3, 282480, Note_on_c, 0, 86, 0
3, 282480, Note_on_c, 0, 79, 0
3, 282480, Note_on_c, 0, 79, 88
3, 282480, Note_on_c, 0, 86, 88
3, 282600, Note_on_c, 0, 86, 0
3, 282600, Note_on_c, 0, 79, 0
3, 282600, Note_on_c, 0, 79, 88
3, 282600, Note_on_c, 0, 86, 88
3, 282720, Note_on_c, 0, 86, 0
3, 282720, Note_on_c, 0, 79, 0
3, 282720, Note_on_c, 0, 79, 88
3, 282720, Note_on_c, 0, 86, 88
3, 282840, Note_on_c, 0, 86, 0
3, 282840, Note_on_c, 0, 79, 0
3, 282840, Note_on_c, 0, 79, 88
3, 282840, Note_on_c, 0, 86, 88
3, 282960, Note_on_c, 0, 86, 0
3, 282960, Note_on_c, 0, 79, 0
3, 282960, Note_on_c, 0, 79, 88
3, 282960, Note_on_c, 0, 86, 88
3, 283080, Note_on_c, 0, 86, 0
3, 283080, Note_on_c, 0, 79, 0
3, 283080, Note_on_c, 0, 79, 88
3, 283080, Note_on_c, 0, 86, 88
3, 283200, Note_on_c, 0, 86, 0
3, 283200, Note_on_c, 0, 79, 0
3, 283200, Note_on_c, 0, 79, 88
3, 283200, Note_on_c, 0, 86, 88
3, 283320, Note_on_c, 0, 86, 0
3, 283320, Note_on_c, 0, 79, 0
3, 283320, Note_on_c, 0, 79, 88
3, 283320, Note_on_c, 0, 86, 88
3, 283440, Note_on_c, 0, 86, 0
3, 283440, Note_on_c, 0, 79, 0
3, 283440, Note_on_c, 0, 79, 88
3, 283440, Note_on_c, 0, 86, 88
3, 283560, Note_on_c, 0, 86, 0
3, 283560, Note_on_c, 0, 79, 0
3, 283560, Note_on_c, 0, 79, 88
3, 283560, Note_on_c, 0, 86, 88
3, 283680, Note_on_c, 0, 86, 0
3, 283680, Note_on_c, 0, 79, 0
3, 283680, Note_on_c, 0, 79, 88
3, 283680, Note_on_c, 0, 86, 88
3, 283800, Note_on_c, 0, 86, 0
3, 283800, Note_on_c, 0, 79, 0
3, 283800, Note_on_c, 0, 79, 88
3, 283800, Note_on_c, 0, 86, 88
3, 283920, Note_on_c, 0, 86, 0
3, 283920, Note_on_c, 0, 79, 0
3, 283920, Note_on_c, 0, 79, 88
3, 283920, Note_on_c, 0, 86, 88
3, 284040, Note_on_c, 0, 86, 0
3, 284040, Note_on_c, 0, 79, 0
3, 284040, Note_on_c, 0, 79, 88
3, 284040, Note_on_c, 0, 86, 88
3, 284160, Note_on_c, 0, 86, 0
3, 284160, Note_on_c, 0, 79, 0
3, 284160, Note_on_c, 0, 80, 88
3, 284160, Note_on_c, 0, 86, 88
3, 284280, Note_on_c, 0, 86, 0
3, 284280, Note_on_c, 0, 80, 0
3, 284280, Note_on_c, 0, 80, 88
3, 284280, Note_on_c, 0, 86, 88
3, 284400, Note_on_c, 0, 86, 0
3, 284400, Note_on_c, 0, 80, 0
3, 284400, Note_on_c, 0, 80, 88
3, 284400, Note_on_c, 0, 86, 88
3, 284520, Note_on_c, 0, 86, 0
3, 284520, Note_on_c, 0, 80, 0
3, 284520, Note_on_c, 0, 80, 88
3, 284520, Note_on_c, 0, 86, 88
3, 284640, Note_on_c, 0, 86, 0
3, 284640, Note_on_c, 0, 80, 0
3, 284640, Note_on_c, 0, 80, 88
3, 284640, Note_on_c, 0, 86, 88
3, 284760, Note_on_c, 0, 86, 0
3, 284760, Note_on_c, 0, 80, 0
3, 284760, Note_on_c, 0, 80, 88
3, 284760, Note_on_c, 0, 86, 88
3, 284880, Note_on_c, 0, 86, 0
3, 284880, Note_on_c, 0, 80, 0
3, 284880, Note_on_c, 0, 80, 88
3, 284880, Note_on_c, 0, 86, 88
3, 285000, Note_on_c, 0, 86, 0
3, 285000, Note_on_c, 0, 80, 0
3, 285000, Note_on_c, 0, 80, 88
3, 285000, Note_on_c, 0, 86, 88
3, 285120, Note_on_c, 0, 86, 0
3, 285120, Note_on_c, 0, 80, 0
3, 285120, Note_on_c, 0, 80, 88
3, 285120, Note_on_c, 0, 86, 88
3, 285240, Note_on_c, 0, 86, 0
3, 285240, Note_on_c, 0, 80, 0
3, 285240, Note_on_c, 0, 80, 88
3, 285240, Note_on_c, 0, 86, 88
3, 285360, Note_on_c, 0, 86, 0
3, 285360, Note_on_c, 0, 80, 0
3, 285360, Note_on_c, 0, 80, 88
3, 285360, Note_on_c, 0, 86, 88
3, 285480, Note_on_c, 0, 86, 0
3, 285480, Note_on_c, 0, 80, 0
3, 285480, Note_on_c, 0, 80, 88
3, 285480, Note_on_c, 0, 86, 88
3, 285600, Note_on_c, 0, 86, 0
3, 285600, Note_on_c, 0, 80, 0
3, 285600, Note_on_c, 0, 80, 88
3, 285600, Note_on_c, 0, 86, 88
3, 285720, Note_on_c, 0, 86, 0
3, 285720, Note_on_c, 0, 80, 0
3, 285720, Note_on_c, 0, 80, 88
3, 285720, Note_on_c, 0, 86, 88
3, 285840, Note_on_c, 0, 86, 0
3, 285840, Note_on_c, 0, 80, 0
3, 285840, Note_on_c, 0, 80, 88
3, 285840, Note_on_c, 0, 86, 88
3, 285960, Note_on_c, 0, 86, 0
3, 285960, Note_on_c, 0, 80, 0
3, 285960, Note_on_c, 0, 80, 88
3, 285960, Note_on_c, 0, 86, 88
3, 286080, Note_on_c, 0, 86, 0
3, 286080, Note_on_c, 0, 80, 0
3, 286080, Note_on_c, 0, 81, 88
3, 286080, Note_on_c, 0, 85, 88
3, 286200, Note_on_c, 0, 85, 0
3, 286200, Note_on_c, 0, 81, 0
3, 286200, Note_on_c, 0, 81, 88
3, 286200, Note_on_c, 0, 85, 88
3, 286320, Note_on_c, 0, 85, 0
3, 286320, Note_on_c, 0, 81, 0
3, 286320, Note_on_c, 0, 81, 88
3, 286320, Note_on_c, 0, 85, 88
3, 286440, Note_on_c, 0, 85, 0
3, 286440, Note_on_c, 0, 81, 0
3, 286440, Note_on_c, 0, 81, 88
3, 286440, Note_on_c, 0, 85, 88
3, 286560, Note_on_c, 0, 85, 0
3, 286560, Note_on_c, 0, 81, 0
3, 286560, Note_on_c, 0, 81, 88
3, 286560, Note_on_c, 0, 85, 88
3, 286680, Note_on_c, 0, 85, 0
3, 286680, Note_on_c, 0, 81, 0
3, 286680, Note_on_c, 0, 81, 88
3, 286680, Note_on_c, 0, 85, 88
3, 286800, Note_on_c, 0, 85, 0
3, 286800, Note_on_c, 0, 81, 0
3, 286800, Note_on_c, 0, 81, 88
3, 286800, Note_on_c, 0, 85, 88
3, 286920, Note_on_c, 0, 85, 0
3, 286920, Note_on_c, 0, 81, 0
3, 286920, Note_on_c, 0, 81, 88
3, 286920, Note_on_c, 0, 85, 88
3, 287040, Note_on_c, 0, 85, 0
3, 287040, Note_on_c, 0, 81, 0
3, 287040, Note_on_c, 0, 76, 88
3, 287040, Note_on_c, 0, 81, 88
3, 287160, Note_on_c, 0, 81, 0
3, 287160, Note_on_c, 0, 76, 0
3, 287160, Note_on_c, 0, 76, 88
3, 287160, Note_on_c, 0, 81, 88
3, 287280, Note_on_c, 0, 81, 0
3, 287280, Note_on_c, 0, 76, 0
3, 287280, Note_on_c, 0, 76, 88
3, 287280, Note_on_c, 0, 81, 88
3, 287400, Note_on_c, 0, 81, 0
3, 287400, Note_on_c, 0, 76, 0
3, 287400, Note_on_c, 0, 76, 88
3, 287400, Note_on_c, 0, 81, 88
3, 287520, Note_on_c, 0, 81, 0
3, 287520, Note_on_c, 0, 76, 0
3, 287520, Note_on_c, 0, 76, 88
3, 287520, Note_on_c, 0, 81, 88
3, 287640, Note_on_c, 0, 81, 0
3, 287640, Note_on_c, 0, 76, 0
3, 287640, Note_on_c, 0, 76, 88
3, 287640, Note_on_c, 0, 81, 88
3, 287760, Note_on_c, 0, 81, 0
3, 287760, Note_on_c, 0, 76, 0
3, 287760, Note_on_c, 0, 76, 88
3, 287760, Note_on_c, 0, 81, 88
3, 287880, Note_on_c, 0, 81, 0
3, 287880, Note_on_c, 0, 76, 0
3, 287880, Note_on_c, 0, 76, 88
3, 287880, Note_on_c, 0, 81, 88
3, 288000, Note_on_c, 0, 81, 0
3, 288000, Note_on_c, 0, 76, 0
3, 288000, Note_on_c, 0, 73, 88
3, 288000, Note_on_c, 0, 76, 88
3, 288120, Note_on_c, 0, 76, 0
3, 288120, Note_on_c, 0, 73, 0
3, 288120, Note_on_c, 0, 73, 88
3, 288120, Note_on_c, 0, 76, 88
3, 288240, Note_on_c, 0, 76, 0
3, 288240, Note_on_c, 0, 73, 0
3, 288240, Note_on_c, 0, 73, 88
3, 288240, Note_on_c, 0, 76, 88
3, 288360, Note_on_c, 0, 76, 0
3, 288360, Note_on_c, 0, 73, 0
3, 288360, Note_on_c, 0, 73, 88
3, 288360, Note_on_c, 0, 76, 88
3, 288480, Note_on_c, 0, 76, 0
3, 288480, Note_on_c, 0, 73, 0
3, 288480, Note_on_c, 0, 73, 88
3, 288480, Note_on_c, 0, 76, 88
3, 288600, Note_on_c, 0, 76, 0
3, 288600, Note_on_c, 0, 73, 0
3, 288600, Note_on_c, 0, 73, 88
3, 288600, Note_on_c, 0, 76, 88
3, 288720, Note_on_c, 0, 76, 0
3, 288720, Note_on_c, 0, 73, 0
3, 288720, Note_on_c, 0, 73, 88
3, 288720, Note_on_c, 0, 76, 88
3, 288840, Note_on_c, 0, 76, 0
3, 288840, Note_on_c, 0, 73, 0
3, 288840, Note_on_c, 0, 73, 88
3, 288840, Note_on_c, 0, 76, 88
3, 288960, Note_on_c, 0, 76, 0
3, 288960, Note_on_c, 0, 73, 0
3, 288960, Note_on_c, 0, 69, 88
3, 288960, Note_on_c, 0, 73, 88
3, 289080, Note_on_c, 0, 73, 0
3, 289080, Note_on_c, 0, 69, 0
3, 289080, Note_on_c, 0, 69, 88
3, 289080, Note_on_c, 0, 73, 88
3, 289200, Note_on_c, 0, 73, 0
3, 289200, Note_on_c, 0, 69, 0
3, 289200, Note_on_c, 0, 69, 88
3, 289200, Note_on_c, 0, 73, 88
3, 289320, Note_on_c, 0, 73, 0
3, 289320, Note_on_c, 0, 69, 0
3, 289320, Note_on_c, 0, 69, 88
3, 289320, Note_on_c, 0, 73, 88
3, 289440, Note_on_c, 0, 73, 0
3, 289440, Note_on_c, 0, 69, 0
3, 289440, Note_on_c, 0, 69, 88
3, 289440, Note_on_c, 0, 73, 88
3, 289560, Note_on_c, 0, 73, 0
3, 289560, Note_on_c, 0, 69, 0
3, 289560, Note_on_c, 0, 69, 88
3, 289560, Note_on_c, 0, 73, 88
3, 289680, Note_on_c, 0, 73, 0
3, 289680, Note_on_c, 0, 69, 0
3, 289680, Note_on_c, 0, 69, 88
3, 289680, Note_on_c, 0, 73, 88
3, 289800, Note_on_c, 0, 73, 0
3, 289800, Note_on_c, 0, 69, 0
3, 289800, Note_on_c, 0, 69, 88
3, 289800, Note_on_c, 0, 73, 88
3, 289920, Note_on_c, 0, 73, 0
3, 289920, Note_on_c, 0, 69, 0
3, 289920, Note_on_c, 0, 64, 88
3, 289920, Note_on_c, 0, 69, 88
3, 290040, Note_on_c, 0, 69, 0
3, 290040, Note_on_c, 0, 64, 0
3, 290040, Note_on_c, 0, 64, 88
3, 290040, Note_on_c, 0, 69, 88
3, 290160, Note_on_c, 0, 69, 0
3, 290160, Note_on_c, 0, 64, 0
3, 290160, Note_on_c, 0, 64, 88
3, 290160, Note_on_c, 0, 69, 88
3, 290280, Note_on_c, 0, 69, 0
3, 290280, Note_on_c, 0, 64, 0
3, 290280, Note_on_c, 0, 64, 88
3, 290280, Note_on_c, 0, 69, 88
3, 290400, Note_on_c, 0, 69, 0
3, 290400, Note_on_c, 0, 64, 0
3, 290400, Note_on_c, 0, 64, 88
3, 290400, Note_on_c, 0, 69, 88
3, 290520, Note_on_c, 0, 69, 0
3, 290520, Note_on_c, 0, 64, 0
3, 290520, Note_on_c, 0, 64, 88
3, 290520, Note_on_c, 0, 69, 88
3, 290640, Note_on_c, 0, 69, 0
3, 290640, Note_on_c, 0, 64, 0
3, 290640, Note_on_c, 0, 64, 88
3, 290640, Note_on_c, 0, 69, 88
3, 290760, Note_on_c, 0, 69, 0
3, 290760, Note_on_c, 0, 64, 0
3, 290760, Note_on_c, 0, 64, 88
3, 290760, Note_on_c, 0, 69, 88
3, 290880, Note_on_c, 0, 69, 0
3, 290880, Note_on_c, 0, 64, 0
3, 290880, Note_on_c, 0, 73, 88
3, 290880, Note_on_c, 0, 76, 88
3, 291000, Note_on_c, 0, 76, 0
3, 291000, Note_on_c, 0, 73, 0
3, 291000, Note_on_c, 0, 73, 88
3, 291000, Note_on_c, 0, 76, 88
3, 291120, Note_on_c, 0, 76, 0
3, 291120, Note_on_c, 0, 73, 0
3, 291120, Note_on_c, 0, 73, 88
3, 291120, Note_on_c, 0, 76, 88
3, 291240, Note_on_c, 0, 76, 0
3, 291240, Note_on_c, 0, 73, 0
3, 291240, Note_on_c, 0, 73, 88
3, 291240, Note_on_c, 0, 76, 88
3, 291360, Note_on_c, 0, 76, 0
3, 291360, Note_on_c, 0, 73, 0
3, 291360, Note_on_c, 0, 73, 88
3, 291360, Note_on_c, 0, 76, 88
3, 291480, Note_on_c, 0, 76, 0
3, 291480, Note_on_c, 0, 73, 0
3, 291480, Note_on_c, 0, 73, 88
3, 291480, Note_on_c, 0, 76, 88
3, 291600, Note_on_c, 0, 76, 0
3, 291600, Note_on_c, 0, 73, 0
3, 291600, Note_on_c, 0, 73, 88
3, 291600, Note_on_c, 0, 76, 88
3, 291720, Note_on_c, 0, 76, 0
3, 291720, Note_on_c, 0, 73, 0
3, 291720, Note_on_c, 0, 73, 88
3, 291720, Note_on_c, 0, 76, 88
3, 291840, Note_on_c, 0, 76, 0
3, 291840, Note_on_c, 0, 73, 0
3, 291840, Note_on_c, 0, 69, 88
3, 291840, Note_on_c, 0, 73, 88
3, 291960, Note_on_c, 0, 73, 0
3, 291960, Note_on_c, 0, 69, 0
3, 291960, Note_on_c, 0, 69, 88
3, 291960, Note_on_c, 0, 73, 88
3, 292080, Note_on_c, 0, 73, 0
3, 292080, Note_on_c, 0, 69, 0
3, 292080, Note_on_c, 0, 69, 88
3, 292080, Note_on_c, 0, 73, 88
3, 292200, Note_on_c, 0, 73, 0
3, 292200, Note_on_c, 0, 69, 0
3, 292200, Note_on_c, 0, 69, 88
3, 292200, Note_on_c, 0, 73, 88
3, 292320, Note_on_c, 0, 73, 0
3, 292320, Note_on_c, 0, 69, 0
3, 292320, Note_on_c, 0, 69, 88
3, 292320, Note_on_c, 0, 73, 88
3, 292440, Note_on_c, 0, 73, 0
3, 292440, Note_on_c, 0, 69, 0
3, 292440, Note_on_c, 0, 69, 88
3, 292440, Note_on_c, 0, 73, 88
3, 292560, Note_on_c, 0, 73, 0
3, 292560, Note_on_c, 0, 69, 0
3, 292560, Note_on_c, 0, 69, 88
3, 292560, Note_on_c, 0, 73, 88
3, 292680, Note_on_c, 0, 73, 0
3, 292680, Note_on_c, 0, 69, 0
3, 292680, Note_on_c, 0, 69, 88
3, 292680, Note_on_c, 0, 73, 88
3, 292800, Note_on_c, 0, 73, 0
3, 292800, Note_on_c, 0, 69, 0
3, 292800, Note_on_c, 0, 64, 88
3, 292800, Note_on_c, 0, 69, 88
3, 292920, Note_on_c, 0, 69, 0
3, 292920, Note_on_c, 0, 64, 0
3, 292920, Note_on_c, 0, 64, 88
3, 292920, Note_on_c, 0, 69, 88
3, 293040, Note_on_c, 0, 69, 0
3, 293040, Note_on_c, 0, 64, 0
3, 293040, Note_on_c, 0, 64, 88
3, 293040, Note_on_c, 0, 69, 88
3, 293160, Note_on_c, 0, 69, 0
3, 293160, Note_on_c, 0, 64, 0
3, 293160, Note_on_c, 0, 64, 88
3, 293160, Note_on_c, 0, 69, 88
3, 293280, Note_on_c, 0, 69, 0
3, 293280, Note_on_c, 0, 64, 0
3, 293280, Note_on_c, 0, 64, 88
3, 293280, Note_on_c, 0, 69, 88
3, 293400, Note_on_c, 0, 69, 0
3, 293400, Note_on_c, 0, 64, 0
3, 293400, Note_on_c, 0, 64, 88
3, 293400, Note_on_c, 0, 69, 88
3, 293520, Note_on_c, 0, 69, 0
3, 293520, Note_on_c, 0, 64, 0
3, 293520, Note_on_c, 0, 64, 88
3, 293520, Note_on_c, 0, 69, 88
3, 293640, Note_on_c, 0, 69, 0
3, 293640, Note_on_c, 0, 64, 0
3, 293640, Note_on_c, 0, 64, 88
3, 293640, Note_on_c, 0, 69, 88
3, 293760, Note_on_c, 0, 69, 0
3, 293760, Note_on_c, 0, 64, 0
3, 293760, End_track
4, 0, Start_track
4, 0, Title_t, "Grand Piano"
4, 0, Program_c, 0, 0
4, 0, Control_c, 0, 7, 115
4, 0, Control_c, 0, 10, 41
4, 0, Control_c, 0, 64, 127
4, 159, Note_on_c, 0, 55, 49
4, 320, Note_on_c, 0, 55, 0
4, 320, Note_on_c, 0, 52, 49
4, 480, Note_on_c, 0, 52, 0
4, 480, Note_on_c, 0, 55, 49
4, 639, Note_on_c, 0, 55, 0
4, 639, Note_on_c, 0, 52, 49
4, 800, Note_on_c, 0, 52, 0
4, 800, Control_c, 0, 64, 0
4, 800, Note_on_c, 0, 55, 49
4, 960, Note_on_c, 0, 55, 0
4, 960, Control_c, 0, 64, 127
4, 1119, Note_on_c, 0, 55, 49
4, 1280, Note_on_c, 0, 55, 0
4, 1280, Note_on_c, 0, 50, 49
4, 1440, Note_on_c, 0, 50, 0
4, 1440, Note_on_c, 0, 55, 49
4, 1599, Note_on_c, 0, 55, 0
4, 1599, Note_on_c, 0, 50, 49
4, 1760, Note_on_c, 0, 50, 0
4, 1760, Control_c, 0, 64, 0
4, 1760, Note_on_c, 0, 55, 49
4, 1920, Note_on_c, 0, 55, 0
4, 1920, Control_c, 0, 64, 127
4, 2079, Note_on_c, 0, 55, 49
4, 2240, Note_on_c, 0, 55, 0
4, 2240, Note_on_c, 0, 52, 49
4, 2400, Note_on_c, 0, 52, 0
4, 2400, Note_on_c, 0, 55, 49
4, 2559, Note_on_c, 0, 55, 0
4, 2559, Note_on_c, 0, 52, 49
4, 2720, Note_on_c, 0, 52, 0
4, 2720, Control_c, 0, 64, 0
4, 2720, Note_on_c, 0, 55, 49
4, 2880, Note_on_c, 0, 55, 0
4, 2880, Control_c, 0, 64, 127
4, 3039, Note_on_c, 0, 55, 49
4, 3200, Note_on_c, 0, 55, 0
4, 3200, Note_on_c, 0, 50, 49
4, 3360, Note_on_c, 0, 50, 0
4, 3360, Note_on_c, 0, 55, 49
4, 3519, Note_on_c, 0, 55, 0
4, 3519, Note_on_c, 0, 50, 49
4, 3680, Note_on_c, 0, 50, 0
4, 3680, Control_c, 0, 64, 0
4, 3680, Note_on_c, 0, 55, 49
4, 3840, Note_on_c, 0, 55, 0
4, 3840, Control_c, 0, 64, 127
4, 3999, Note_on_c, 0, 55, 49
4, 4160, Note_on_c, 0, 55, 0
4, 4160, Note_on_c, 0, 52, 49
4, 4320, Note_on_c, 0, 52, 0
4, 4320, Note_on_c, 0, 55, 49
4, 4479, Note_on_c, 0, 55, 0
4, 4479, Note_on_c, 0, 52, 49
4, 4640, Note_on_c, 0, 52, 0
4, 4640, Control_c, 0, 64, 0
4, 4640, Note_on_c, 0, 55, 49
4, 4800, Note_on_c, 0, 55, 0
4, 4800, Control_c, 0, 64, 127
4, 4959, Note_on_c, 0, 55, 49
4, 5120, Note_on_c, 0, 55, 0
4, 5120, Note_on_c, 0, 50, 49
4, 5280, Note_on_c, 0, 50, 0
4, 5280, Note_on_c, 0, 55, 49
4, 5439, Note_on_c, 0, 55, 0
4, 5439, Note_on_c, 0, 50, 49
4, 5600, Note_on_c, 0, 50, 0
4, 5600, Control_c, 0, 64, 0
4, 5600, Note_on_c, 0, 55, 49
4, 5760, Note_on_c, 0, 55, 0
4, 5760, Control_c, 0, 64, 127
4, 5919, Note_on_c, 0, 55, 49
4, 6080, Note_on_c, 0, 55, 0
4, 6080, Note_on_c, 0, 52, 49
4, 6240, Note_on_c, 0, 52, 0
4, 6240, Note_on_c, 0, 55, 49
4, 6399, Note_on_c, 0, 55, 0
4, 6399, Note_on_c, 0, 52, 49
4, 6560, Note_on_c, 0, 52, 0
4, 6560, Control_c, 0, 64, 0
4, 6560, Note_on_c, 0, 55, 49
4, 6720, Note_on_c, 0, 55, 0
4, 6720, Control_c, 0, 64, 127
4, 6879, Note_on_c, 0, 55, 49
4, 7040, Note_on_c, 0, 55, 0
4, 7040, Note_on_c, 0, 50, 49
4, 7200, Note_on_c, 0, 50, 0
4, 7200, Note_on_c, 0, 55, 49
4, 7359, Note_on_c, 0, 55, 0
4, 7359, Note_on_c, 0, 50, 49
4, 7520, Note_on_c, 0, 50, 0
4, 7520, Control_c, 0, 64, 0
4, 7520, Note_on_c, 0, 55, 49
4, 7680, Note_on_c, 0, 55, 0
4, 7680, Control_c, 0, 64, 127
4, 7839, Note_on_c, 0, 55, 49
4, 8000, Note_on_c, 0, 55, 0
4, 8000, Note_on_c, 0, 52, 49
4, 8160, Note_on_c, 0, 52, 0
4, 8160, Note_on_c, 0, 55, 49
4, 8319, Note_on_c, 0, 55, 0
4, 8319, Note_on_c, 0, 52, 49
4, 8480, Note_on_c, 0, 52, 0
4, 8480, Control_c, 0, 64, 0
4, 8480, Note_on_c, 0, 55, 49
4, 8640, Note_on_c, 0, 55, 0
4, 8640, Control_c, 0, 64, 127
4, 8799, Note_on_c, 0, 55, 49
4, 8960, Note_on_c, 0, 55, 0
4, 8960, Note_on_c, 0, 50, 49
4, 9120, Note_on_c, 0, 50, 0
4, 9120, Note_on_c, 0, 55, 49
4, 9279, Note_on_c, 0, 55, 0
4, 9279, Note_on_c, 0, 50, 49
4, 9440, Note_on_c, 0, 50, 0
4, 9440, Control_c, 0, 64, 0
4, 9440, Note_on_c, 0, 55, 49
4, 9600, Note_on_c, 0, 55, 0
4, 9600, Control_c, 0, 64, 127
4, 9759, Note_on_c, 0, 55, 49
4, 9920, Note_on_c, 0, 55, 0
4, 9920, Note_on_c, 0, 52, 49
4, 10080, Note_on_c, 0, 52, 0
4, 10080, Note_on_c, 0, 55, 49
4, 10239, Note_on_c, 0, 55, 0
4, 10239, Note_on_c, 0, 52, 49
4, 10400, Note_on_c, 0, 52, 0
4, 10400, Control_c, 0, 64, 0
4, 10400, Note_on_c, 0, 55, 49
4, 10560, Note_on_c, 0, 55, 0
4, 10560, Control_c, 0, 64, 127
4, 10719, Note_on_c, 0, 55, 49
4, 10880, Note_on_c, 0, 55, 0
4, 10880, Note_on_c, 0, 50, 49
4, 11040, Note_on_c, 0, 50, 0
4, 11040, Note_on_c, 0, 55, 49
4, 11199, Note_on_c, 0, 55, 0
4, 11199, Note_on_c, 0, 50, 49
4, 11360, Note_on_c, 0, 50, 0
4, 11360, Control_c, 0, 64, 0
4, 11360, Note_on_c, 0, 55, 49
4, 11520, Note_on_c, 0, 55, 0
4, 11520, Control_c, 0, 64, 127
4, 11679, Note_on_c, 0, 55, 49
4, 11840, Note_on_c, 0, 55, 0
4, 11840, Note_on_c, 0, 52, 49
4, 12000, Note_on_c, 0, 52, 0
4, 12000, Note_on_c, 0, 55, 49
4, 12159, Note_on_c, 0, 55, 0
4, 12159, Note_on_c, 0, 52, 49
4, 12320, Note_on_c, 0, 52, 0
4, 12320, Control_c, 0, 64, 0
4, 12320, Note_on_c, 0, 55, 49
4, 12480, Note_on_c, 0, 55, 0
4, 12480, Control_c, 0, 64, 127
4, 12639, Note_on_c, 0, 55, 49
4, 12800, Note_on_c, 0, 55, 0
4, 12800, Note_on_c, 0, 50, 49
4, 12960, Note_on_c, 0, 50, 0
4, 12960, Note_on_c, 0, 55, 49
4, 13119, Note_on_c, 0, 55, 0
4, 13119, Note_on_c, 0, 50, 49
4, 13280, Note_on_c, 0, 50, 0
4, 13280, Control_c, 0, 64, 0
4, 13280, Note_on_c, 0, 55, 49
4, 13440, Note_on_c, 0, 55, 0
4, 13440, Control_c, 0, 64, 127
4, 13599, Note_on_c, 0, 55, 49
4, 13760, Note_on_c, 0, 55, 0
4, 13760, Note_on_c, 0, 52, 49
4, 13920, Note_on_c, 0, 52, 0
4, 13920, Note_on_c, 0, 55, 49
4, 14079, Note_on_c, 0, 55, 0
4, 14079, Note_on_c, 0, 52, 49
4, 14240, Note_on_c, 0, 52, 0
4, 14240, Control_c, 0, 64, 0
4, 14240, Note_on_c, 0, 55, 49
4, 14400, Note_on_c, 0, 55, 0
4, 14400, Control_c, 0, 64, 127
4, 14559, Note_on_c, 0, 55, 49
4, 14720, Note_on_c, 0, 55, 0
4, 14720, Note_on_c, 0, 50, 49
4, 14880, Note_on_c, 0, 50, 0
4, 14880, Note_on_c, 0, 55, 49
4, 15039, Note_on_c, 0, 55, 0
4, 15039, Note_on_c, 0, 50, 49
4, 15200, Note_on_c, 0, 50, 0
4, 15200, Control_c, 0, 64, 0
4, 15200, Note_on_c, 0, 55, 49
4, 15360, Note_on_c, 0, 55, 0
4, 15360, Control_c, 0, 64, 127
4, 15519, Note_on_c, 0, 55, 62
4, 15680, Note_on_c, 0, 55, 0
4, 15680, Note_on_c, 0, 52, 62
4, 15840, Note_on_c, 0, 52, 0
4, 15840, Note_on_c, 0, 55, 62
4, 15999, Note_on_c, 0, 55, 0
4, 15999, Note_on_c, 0, 52, 62
4, 16160, Note_on_c, 0, 52, 0
4, 16160, Control_c, 0, 64, 0
4, 16160, Note_on_c, 0, 55, 62
4, 16320, Note_on_c, 0, 55, 0
4, 16320, Control_c, 0, 64, 127
4, 16479, Note_on_c, 0, 55, 62
4, 16640, Note_on_c, 0, 55, 0
4, 16640, Note_on_c, 0, 50, 62
4, 16800, Note_on_c, 0, 50, 0
4, 16800, Note_on_c, 0, 55, 62
4, 16959, Note_on_c, 0, 55, 0
4, 16959, Note_on_c, 0, 50, 62
4, 17120, Note_on_c, 0, 50, 0
4, 17120, Control_c, 0, 64, 0
4, 17120, Note_on_c, 0, 55, 62
4, 17280, Note_on_c, 0, 55, 0
4, 17280, Control_c, 0, 64, 127
4, 17439, Note_on_c, 0, 55, 62
4, 17600, Note_on_c, 0, 55, 0
4, 17600, Note_on_c, 0, 52, 62
4, 17760, Note_on_c, 0, 52, 0
4, 17760, Note_on_c, 0, 55, 62
4, 17919, Note_on_c, 0, 55, 0
4, 17919, Note_on_c, 0, 52, 62
4, 18080, Note_on_c, 0, 52, 0
4, 18080, Control_c, 0, 64, 0
4, 18080, Note_on_c, 0, 55, 62
4, 18240, Note_on_c, 0, 55, 0
4, 18240, Control_c, 0, 64, 127
4, 18399, Note_on_c, 0, 55, 62
4, 18560, Note_on_c, 0, 55, 0
4, 18560, Note_on_c, 0, 50, 62
4, 18720, Note_on_c, 0, 50, 0
4, 18720, Note_on_c, 0, 55, 62
4, 18879, Note_on_c, 0, 55, 0
4, 18879, Note_on_c, 0, 50, 62
4, 19040, Note_on_c, 0, 50, 0
4, 19040, Control_c, 0, 64, 0
4, 19040, Note_on_c, 0, 55, 62
4, 19200, Note_on_c, 0, 55, 0
4, 19200, Control_c, 0, 64, 127
4, 19359, Note_on_c, 0, 55, 62
4, 19520, Note_on_c, 0, 55, 0
4, 19520, Note_on_c, 0, 52, 62
4, 19680, Note_on_c, 0, 52, 0
4, 19680, Note_on_c, 0, 55, 62
4, 19839, Note_on_c, 0, 55, 0
4, 19839, Note_on_c, 0, 52, 62
4, 20000, Note_on_c, 0, 52, 0
4, 20000, Control_c, 0, 64, 0
4, 20000, Note_on_c, 0, 55, 62
4, 20160, Note_on_c, 0, 55, 0
4, 20160, Control_c, 0, 64, 127
4, 20319, Note_on_c, 0, 55, 62
4, 20480, Note_on_c, 0, 55, 0
4, 20480, Note_on_c, 0, 50, 62
4, 20640, Note_on_c, 0, 50, 0
4, 20640, Note_on_c, 0, 55, 62
4, 20799, Note_on_c, 0, 55, 0
4, 20799, Note_on_c, 0, 50, 62
4, 20960, Note_on_c, 0, 50, 0
4, 20960, Control_c, 0, 64, 0
4, 20960, Note_on_c, 0, 55, 62
4, 21120, Note_on_c, 0, 55, 0
4, 21120, Control_c, 0, 64, 127
4, 21279, Note_on_c, 0, 55, 62
4, 21440, Note_on_c, 0, 55, 0
4, 21440, Note_on_c, 0, 52, 62
4, 21600, Note_on_c, 0, 52, 0
4, 21600, Note_on_c, 0, 55, 62
4, 21759, Note_on_c, 0, 55, 0
4, 21759, Note_on_c, 0, 52, 62
4, 21920, Note_on_c, 0, 52, 0
4, 21920, Control_c, 0, 64, 0
4, 21920, Note_on_c, 0, 55, 62
4, 22080, Note_on_c, 0, 55, 0
4, 22080, Control_c, 0, 64, 127
4, 22239, Note_on_c, 0, 55, 62
4, 22400, Note_on_c, 0, 55, 0
4, 22400, Note_on_c, 0, 50, 62
4, 22560, Note_on_c, 0, 50, 0
4, 22560, Note_on_c, 0, 55, 62
4, 22719, Note_on_c, 0, 55, 0
4, 22719, Note_on_c, 0, 50, 62
4, 22880, Note_on_c, 0, 50, 0
4, 22880, Control_c, 0, 64, 0
4, 22880, Note_on_c, 0, 55, 62
4, 23040, Note_on_c, 0, 55, 0
4, 23040, Control_c, 0, 64, 127
4, 23199, Note_on_c, 0, 55, 62
4, 23360, Note_on_c, 0, 55, 0
4, 23360, Note_on_c, 0, 52, 62
4, 23520, Note_on_c, 0, 52, 0
4, 23520, Note_on_c, 0, 55, 62
4, 23679, Note_on_c, 0, 55, 0
4, 23679, Note_on_c, 0, 52, 62
4, 23840, Note_on_c, 0, 52, 0
4, 23840, Control_c, 0, 64, 0
4, 23840, Note_on_c, 0, 55, 62
4, 24000, Note_on_c, 0, 55, 0
4, 24000, Control_c, 0, 64, 127
4, 24159, Note_on_c, 0, 55, 62
4, 24320, Note_on_c, 0, 55, 0
4, 24320, Note_on_c, 0, 50, 62
4, 24480, Note_on_c, 0, 50, 0
4, 24480, Note_on_c, 0, 55, 62
4, 24639, Note_on_c, 0, 55, 0
4, 24639, Note_on_c, 0, 50, 62
4, 24800, Note_on_c, 0, 50, 0
4, 24800, Control_c, 0, 64, 0
4, 24800, Note_on_c, 0, 55, 62
4, 24960, Note_on_c, 0, 55, 0
4, 24960, Control_c, 0, 64, 127
4, 25119, Note_on_c, 0, 55, 62
4, 25280, Note_on_c, 0, 55, 0
4, 25280, Note_on_c, 0, 52, 62
4, 25440, Note_on_c, 0, 52, 0
4, 25440, Note_on_c, 0, 55, 62
4, 25599, Note_on_c, 0, 55, 0
4, 25599, Note_on_c, 0, 52, 62
4, 25760, Note_on_c, 0, 52, 0
4, 25760, Control_c, 0, 64, 0
4, 25760, Note_on_c, 0, 55, 62
4, 25920, Note_on_c, 0, 55, 0
4, 25920, Control_c, 0, 64, 127
4, 26079, Note_on_c, 0, 55, 62
4, 26240, Note_on_c, 0, 55, 0
4, 26240, Note_on_c, 0, 50, 62
4, 26400, Note_on_c, 0, 50, 0
4, 26400, Note_on_c, 0, 55, 62
4, 26559, Note_on_c, 0, 55, 0
4, 26559, Note_on_c, 0, 50, 62
4, 26720, Note_on_c, 0, 50, 0
4, 26720, Control_c, 0, 64, 0
4, 26720, Note_on_c, 0, 55, 62
4, 26880, Note_on_c, 0, 55, 0
4, 26880, Control_c, 0, 64, 127
4, 27039, Note_on_c, 0, 55, 62
4, 27200, Note_on_c, 0, 55, 0
4, 27200, Note_on_c, 0, 52, 62
4, 27360, Note_on_c, 0, 52, 0
4, 27360, Note_on_c, 0, 55, 62
4, 27519, Note_on_c, 0, 55, 0
4, 27519, Note_on_c, 0, 52, 62
4, 27680, Note_on_c, 0, 52, 0
4, 27680, Control_c, 0, 64, 0
4, 27680, Note_on_c, 0, 55, 62
4, 27840, Note_on_c, 0, 55, 0
4, 27840, Control_c, 0, 64, 127
4, 27999, Note_on_c, 0, 55, 62
4, 28160, Note_on_c, 0, 55, 0
4, 28160, Note_on_c, 0, 50, 62
4, 28320, Note_on_c, 0, 50, 0
4, 28320, Note_on_c, 0, 55, 62
4, 28479, Note_on_c, 0, 55, 0
4, 28479, Note_on_c, 0, 50, 62
4, 28640, Note_on_c, 0, 50, 0
4, 28640, Control_c, 0, 64, 0
4, 28640, Note_on_c, 0, 55, 62
4, 28800, Note_on_c, 0, 55, 0
4, 28800, Control_c, 0, 64, 127
4, 28959, Note_on_c, 0, 55, 62
4, 29120, Note_on_c, 0, 55, 0
4, 29120, Note_on_c, 0, 52, 62
4, 29280, Note_on_c, 0, 52, 0
4, 29280, Note_on_c, 0, 55, 62
4, 29439, Note_on_c, 0, 55, 0
4, 29439, Note_on_c, 0, 52, 62
4, 29600, Note_on_c, 0, 52, 0
4, 29600, Control_c, 0, 64, 0
4, 29600, Note_on_c, 0, 55, 62
4, 29760, Note_on_c, 0, 55, 0
4, 29919, Control_c, 0, 64, 127
4, 29919, Note_on_c, 0, 56, 62
4, 30080, Note_on_c, 0, 56, 0
4, 30080, Note_on_c, 0, 54, 62
4, 30240, Note_on_c, 0, 54, 0
4, 30240, Note_on_c, 0, 56, 62
4, 30399, Note_on_c, 0, 56, 0
4, 30399, Note_on_c, 0, 54, 62
4, 30560, Note_on_c, 0, 54, 0
4, 30560, Control_c, 0, 64, 0
4, 30560, Note_on_c, 0, 56, 62
4, 30720, Note_on_c, 0, 56, 0
4, 30720, Control_c, 0, 64, 127
4, 30879, Note_on_c, 0, 55, 62
4, 31040, Note_on_c, 0, 55, 0
4, 31040, Note_on_c, 0, 52, 62
4, 31200, Note_on_c, 0, 52, 0
4, 31200, Note_on_c, 0, 55, 62
4, 31359, Note_on_c, 0, 55, 0
4, 31359, Note_on_c, 0, 52, 62
4, 31520, Note_on_c, 0, 52, 0
4, 31520, Control_c, 0, 64, 0
4, 31520, Note_on_c, 0, 55, 62
4, 31680, Note_on_c, 0, 55, 0
4, 31680, Control_c, 0, 64, 127
4, 31839, Note_on_c, 0, 55, 62
4, 32000, Note_on_c, 0, 55, 0
4, 32000, Note_on_c, 0, 50, 62
4, 32160, Note_on_c, 0, 50, 0
4, 32160, Note_on_c, 0, 55, 62
4, 32319, Note_on_c, 0, 55, 0
4, 32319, Note_on_c, 0, 50, 62
4, 32480, Note_on_c, 0, 50, 0
4, 32480, Control_c, 0, 64, 0
4, 32480, Note_on_c, 0, 55, 62
4, 32640, Note_on_c, 0, 55, 0
4, 32640, Control_c, 0, 64, 127
4, 32799, Note_on_c, 0, 55, 62
4, 32960, Note_on_c, 0, 55, 0
4, 32960, Note_on_c, 0, 52, 62
4, 33120, Note_on_c, 0, 52, 0
4, 33120, Note_on_c, 0, 55, 62
4, 33279, Note_on_c, 0, 55, 0
4, 33279, Note_on_c, 0, 52, 62
4, 33440, Note_on_c, 0, 52, 0
4, 33440, Control_c, 0, 64, 0
4, 33440, Note_on_c, 0, 55, 62
4, 33600, Note_on_c, 0, 55, 0
4, 33600, Control_c, 0, 64, 127
4, 33759, Note_on_c, 0, 55, 62
4, 33920, Note_on_c, 0, 55, 0
4, 33920, Note_on_c, 0, 50, 62
4, 34080, Note_on_c, 0, 50, 0
4, 34080, Note_on_c, 0, 55, 62
4, 34239, Note_on_c, 0, 55, 0
4, 34239, Note_on_c, 0, 50, 62
4, 34400, Note_on_c, 0, 50, 0
4, 34400, Control_c, 0, 64, 0
4, 34400, Note_on_c, 0, 55, 62
4, 34560, Note_on_c, 0, 55, 0
4, 34560, Control_c, 0, 64, 127
4, 34719, Note_on_c, 0, 55, 49
4, 34880, Note_on_c, 0, 55, 0
4, 34880, Note_on_c, 0, 52, 49
4, 35040, Note_on_c, 0, 52, 0
4, 35040, Note_on_c, 0, 55, 49
4, 35199, Note_on_c, 0, 55, 0
4, 35199, Note_on_c, 0, 52, 49
4, 35360, Note_on_c, 0, 52, 0
4, 35360, Control_c, 0, 64, 0
4, 35360, Note_on_c, 0, 55, 49
4, 35520, Note_on_c, 0, 55, 0
4, 35520, Control_c, 0, 64, 127
4, 35679, Note_on_c, 0, 55, 49
4, 35840, Note_on_c, 0, 55, 0
4, 35840, Note_on_c, 0, 50, 49
4, 36000, Note_on_c, 0, 50, 0
4, 36000, Note_on_c, 0, 55, 49
4, 36159, Note_on_c, 0, 55, 0
4, 36159, Note_on_c, 0, 50, 49
4, 36320, Note_on_c, 0, 50, 0
4, 36320, Control_c, 0, 64, 0
4, 36320, Note_on_c, 0, 55, 49
4, 36480, Note_on_c, 0, 55, 0
4, 36480, Control_c, 0, 64, 127
4, 36639, Note_on_c, 0, 55, 49
4, 36800, Note_on_c, 0, 55, 0
4, 36800, Note_on_c, 0, 52, 49
4, 36960, Note_on_c, 0, 52, 0
4, 36960, Note_on_c, 0, 55, 49
4, 37119, Note_on_c, 0, 55, 0
4, 37119, Note_on_c, 0, 52, 49
4, 37280, Note_on_c, 0, 52, 0
4, 37280, Control_c, 0, 64, 0
4, 37280, Note_on_c, 0, 55, 49
4, 37440, Note_on_c, 0, 55, 0
4, 37440, Control_c, 0, 64, 127
4, 37599, Note_on_c, 0, 55, 49
4, 37760, Note_on_c, 0, 55, 0
4, 37760, Note_on_c, 0, 50, 49
4, 37920, Note_on_c, 0, 50, 0
4, 37920, Note_on_c, 0, 55, 49
4, 38079, Note_on_c, 0, 55, 0
4, 38079, Note_on_c, 0, 50, 49
4, 38240, Note_on_c, 0, 50, 0
4, 38240, Control_c, 0, 64, 0
4, 38240, Note_on_c, 0, 55, 49
4, 38400, Note_on_c, 0, 55, 0
4, 38400, Control_c, 0, 64, 127
4, 38559, Note_on_c, 0, 55, 49
4, 38720, Note_on_c, 0, 55, 0
4, 38720, Note_on_c, 0, 52, 49
4, 38880, Note_on_c, 0, 52, 0
4, 38880, Note_on_c, 0, 55, 49
4, 39039, Note_on_c, 0, 55, 0
4, 39039, Note_on_c, 0, 52, 49
4, 39200, Note_on_c, 0, 52, 0
4, 39200, Control_c, 0, 64, 0
4, 39200, Note_on_c, 0, 55, 49
4, 39360, Note_on_c, 0, 55, 0
4, 39360, Control_c, 0, 64, 127
4, 39519, Note_on_c, 0, 55, 49
4, 39680, Note_on_c, 0, 55, 0
4, 39680, Note_on_c, 0, 50, 49
4, 39840, Note_on_c, 0, 50, 0
4, 39840, Note_on_c, 0, 55, 49
4, 39999, Note_on_c, 0, 55, 0
4, 39999, Note_on_c, 0, 50, 49
4, 40160, Note_on_c, 0, 50, 0
4, 40160, Control_c, 0, 64, 0
4, 40160, Note_on_c, 0, 55, 49
4, 40320, Note_on_c, 0, 55, 0
4, 40320, Control_c, 0, 64, 127
4, 40479, Note_on_c, 0, 55, 49
4, 40640, Note_on_c, 0, 55, 0
4, 40640, Note_on_c, 0, 52, 49
4, 40800, Note_on_c, 0, 52, 0
4, 40800, Note_on_c, 0, 55, 49
4, 40959, Note_on_c, 0, 55, 0
4, 40959, Note_on_c, 0, 52, 49
4, 41120, Note_on_c, 0, 52, 0
4, 41120, Control_c, 0, 64, 0
4, 41120, Note_on_c, 0, 55, 49
4, 41280, Note_on_c, 0, 55, 0
4, 41280, Control_c, 0, 64, 127
4, 41439, Note_on_c, 0, 55, 49
4, 41600, Note_on_c, 0, 55, 0
4, 41600, Note_on_c, 0, 50, 49
4, 41760, Note_on_c, 0, 50, 0
4, 41760, Note_on_c, 0, 55, 49
4, 41919, Note_on_c, 0, 55, 0
4, 41919, Note_on_c, 0, 50, 49
4, 42080, Note_on_c, 0, 50, 0
4, 42080, Control_c, 0, 64, 0
4, 42080, Note_on_c, 0, 55, 49
4, 42240, Note_on_c, 0, 55, 0
4, 42240, Control_c, 0, 64, 127
4, 42399, Note_on_c, 0, 55, 49
4, 42560, Note_on_c, 0, 55, 0
4, 42560, Note_on_c, 0, 52, 49
4, 42720, Note_on_c, 0, 52, 0
4, 42720, Note_on_c, 0, 55, 49
4, 42879, Note_on_c, 0, 55, 0
4, 42879, Note_on_c, 0, 52, 49
4, 43040, Note_on_c, 0, 52, 0
4, 43040, Control_c, 0, 64, 0
4, 43040, Note_on_c, 0, 55, 49
4, 43200, Note_on_c, 0, 55, 0
4, 43200, Control_c, 0, 64, 127
4, 43359, Note_on_c, 0, 55, 49
4, 43520, Note_on_c, 0, 55, 0
4, 43520, Note_on_c, 0, 50, 49
4, 43680, Note_on_c, 0, 50, 0
4, 43680, Note_on_c, 0, 55, 49
4, 43839, Note_on_c, 0, 55, 0
4, 43839, Note_on_c, 0, 50, 49
4, 44000, Note_on_c, 0, 50, 0
4, 44000, Control_c, 0, 64, 0
4, 44000, Note_on_c, 0, 55, 49
4, 44160, Note_on_c, 0, 55, 0
4, 44160, Control_c, 0, 64, 127
4, 44319, Note_on_c, 0, 55, 49
4, 44480, Note_on_c, 0, 55, 0
4, 44480, Note_on_c, 0, 52, 49
4, 44640, Note_on_c, 0, 52, 0
4, 44640, Note_on_c, 0, 55, 49
4, 44799, Note_on_c, 0, 55, 0
4, 44799, Note_on_c, 0, 52, 49
4, 44960, Note_on_c, 0, 52, 0
4, 44960, Control_c, 0, 64, 0
4, 44960, Note_on_c, 0, 55, 49
4, 45120, Note_on_c, 0, 55, 0
4, 45120, Control_c, 0, 64, 127
4, 45279, Note_on_c, 0, 55, 49
4, 45440, Note_on_c, 0, 55, 0
4, 45440, Note_on_c, 0, 50, 49
4, 45600, Note_on_c, 0, 50, 0
4, 45600, Note_on_c, 0, 55, 49
4, 45759, Note_on_c, 0, 55, 0
4, 45759, Note_on_c, 0, 50, 49
4, 45920, Note_on_c, 0, 50, 0
4, 45920, Control_c, 0, 64, 0
4, 45920, Note_on_c, 0, 55, 49
4, 46080, Note_on_c, 0, 55, 0
4, 46080, Control_c, 0, 64, 127
4, 46239, Note_on_c, 0, 55, 62
4, 46400, Note_on_c, 0, 55, 0
4, 46400, Note_on_c, 0, 52, 62
4, 46560, Note_on_c, 0, 52, 0
4, 46560, Note_on_c, 0, 55, 62
4, 46719, Note_on_c, 0, 55, 0
4, 46719, Note_on_c, 0, 52, 62
4, 46880, Note_on_c, 0, 52, 0
4, 46880, Control_c, 0, 64, 0
4, 46880, Note_on_c, 0, 55, 62
4, 47040, Note_on_c, 0, 55, 0
4, 47040, Control_c, 0, 64, 127
4, 47199, Note_on_c, 0, 55, 62
4, 47360, Note_on_c, 0, 55, 0
4, 47360, Note_on_c, 0, 50, 62
4, 47520, Note_on_c, 0, 50, 0
4, 47520, Note_on_c, 0, 55, 62
4, 47679, Note_on_c, 0, 55, 0
4, 47679, Note_on_c, 0, 50, 62
4, 47840, Note_on_c, 0, 50, 0
4, 47840, Control_c, 0, 64, 0
4, 47840, Note_on_c, 0, 55, 62
4, 48000, Note_on_c, 0, 55, 0
4, 48000, Control_c, 0, 64, 127
4, 48159, Note_on_c, 0, 55, 62
4, 48320, Note_on_c, 0, 55, 0
4, 48320, Note_on_c, 0, 52, 62
4, 48480, Note_on_c, 0, 52, 0
4, 48480, Note_on_c, 0, 55, 62
4, 48639, Note_on_c, 0, 55, 0
4, 48639, Note_on_c, 0, 52, 62
4, 48800, Note_on_c, 0, 52, 0
4, 48800, Control_c, 0, 64, 0
4, 48800, Note_on_c, 0, 55, 62
4, 48960, Note_on_c, 0, 55, 0
4, 48960, Control_c, 0, 64, 127
4, 49119, Note_on_c, 0, 55, 62
4, 49280, Note_on_c, 0, 55, 0
4, 49280, Note_on_c, 0, 50, 62
4, 49440, Note_on_c, 0, 50, 0
4, 49440, Note_on_c, 0, 55, 62
4, 49599, Note_on_c, 0, 55, 0
4, 49599, Note_on_c, 0, 50, 62
4, 49760, Note_on_c, 0, 50, 0
4, 49760, Control_c, 0, 64, 0
4, 49760, Note_on_c, 0, 55, 62
4, 49920, Note_on_c, 0, 55, 0
4, 49920, Control_c, 0, 64, 127
4, 50079, Note_on_c, 0, 55, 62
4, 50240, Note_on_c, 0, 55, 0
4, 50240, Note_on_c, 0, 52, 62
4, 50400, Note_on_c, 0, 52, 0
4, 50400, Note_on_c, 0, 55, 62
4, 50559, Note_on_c, 0, 55, 0
4, 50559, Note_on_c, 0, 52, 62
4, 50720, Note_on_c, 0, 52, 0
4, 50720, Control_c, 0, 64, 0
4, 50720, Note_on_c, 0, 55, 62
4, 50880, Note_on_c, 0, 55, 0
4, 50880, Control_c, 0, 64, 127
4, 51039, Note_on_c, 0, 55, 62
4, 51200, Note_on_c, 0, 55, 0
4, 51200, Note_on_c, 0, 50, 62
4, 51360, Note_on_c, 0, 50, 0
4, 51360, Note_on_c, 0, 55, 62
4, 51519, Note_on_c, 0, 55, 0
4, 51519, Note_on_c, 0, 50, 62
4, 51680, Note_on_c, 0, 50, 0
4, 51680, Control_c, 0, 64, 0
4, 51680, Note_on_c, 0, 55, 62
4, 51840, Note_on_c, 0, 55, 0
4, 51840, Control_c, 0, 64, 127
4, 51999, Note_on_c, 0, 55, 62
4, 52160, Note_on_c, 0, 55, 0
4, 52160, Note_on_c, 0, 52, 62
4, 52320, Note_on_c, 0, 52, 0
4, 52320, Note_on_c, 0, 55, 62
4, 52479, Note_on_c, 0, 55, 0
4, 52479, Note_on_c, 0, 52, 62
4, 52640, Note_on_c, 0, 52, 0
4, 52640, Control_c, 0, 64, 0
4, 52640, Note_on_c, 0, 55, 62
4, 52800, Note_on_c, 0, 55, 0
4, 52959, Control_c, 0, 64, 127
4, 52959, Note_on_c, 0, 57, 62
4, 53120, Note_on_c, 0, 57, 0
4, 53120, Note_on_c, 0, 52, 62
4, 53280, Note_on_c, 0, 52, 0
4, 53280, Note_on_c, 0, 57, 62
4, 53439, Note_on_c, 0, 57, 0
4, 53439, Note_on_c, 0, 52, 62
4, 53600, Note_on_c, 0, 52, 0
4, 53600, Control_c, 0, 64, 0
4, 53600, Note_on_c, 0, 57, 62
4, 53760, Note_on_c, 0, 57, 0
4, 53919, Control_c, 0, 64, 127
4, 53919, Note_on_c, 0, 59, 62
4, 54080, Note_on_c, 0, 59, 0
4, 54080, Note_on_c, 0, 56, 62
4, 54240, Note_on_c, 0, 56, 0
4, 54240, Note_on_c, 0, 59, 62
4, 54399, Note_on_c, 0, 59, 0
4, 54399, Note_on_c, 0, 56, 62
4, 54560, Note_on_c, 0, 56, 0
4, 54560, Control_c, 0, 64, 0
4, 54560, Note_on_c, 0, 59, 62
4, 54720, Note_on_c, 0, 59, 0
4, 54720, Control_c, 0, 64, 127
4, 54720, Note_on_c, 0, 53, 62
4, 54879, Note_on_c, 0, 53, 0
4, 54879, Note_on_c, 0, 57, 62
4, 55040, Note_on_c, 0, 57, 0
4, 55040, Note_on_c, 0, 53, 62
4, 55200, Note_on_c, 0, 53, 0
4, 55200, Note_on_c, 0, 50, 62
4, 55359, Note_on_c, 0, 50, 0
4, 55359, Note_on_c, 0, 45, 62
4, 55520, Note_on_c, 0, 45, 0
4, 55520, Control_c, 0, 64, 0
4, 55520, Note_on_c, 0, 41, 62
4, 55680, Note_on_c, 0, 41, 0
4, 55839, Control_c, 0, 64, 127
4, 55839, Note_on_c, 0, 52, 49
4, 56000, Note_on_c, 0, 52, 0
4, 56000, Note_on_c, 0, 48, 49
4, 56160, Note_on_c, 0, 48, 0
4, 56160, Note_on_c, 0, 52, 49
4, 56319, Note_on_c, 0, 52, 0
4, 56319, Note_on_c, 0, 48, 49
4, 56480, Note_on_c, 0, 48, 0
4, 56480, Control_c, 0, 64, 0
4, 56480, Note_on_c, 0, 52, 49
4, 56640, Note_on_c, 0, 52, 0
4, 56799, Control_c, 0, 64, 127
4, 56799, Note_on_c, 0, 52, 49
4, 56960, Note_on_c, 0, 52, 0
4, 56960, Note_on_c, 0, 48, 49
4, 57120, Note_on_c, 0, 48, 0
4, 57120, Note_on_c, 0, 52, 49
4, 57279, Note_on_c, 0, 52, 0
4, 57279, Note_on_c, 0, 48, 49
4, 57440, Note_on_c, 0, 48, 0
4, 57440, Control_c, 0, 64, 0
4, 57440, Note_on_c, 0, 52, 49
4, 57600, Note_on_c, 0, 52, 0
4, 57759, Control_c, 0, 64, 127
4, 57759, Note_on_c, 0, 52, 49
4, 57920, Note_on_c, 0, 52, 0
4, 57920, Note_on_c, 0, 48, 49
4, 58080, Note_on_c, 0, 48, 0
4, 58080, Note_on_c, 0, 52, 49
4, 58239, Note_on_c, 0, 52, 0
4, 58239, Note_on_c, 0, 48, 49
4, 58400, Note_on_c, 0, 48, 0
4, 58400, Control_c, 0, 64, 0
4, 58400, Note_on_c, 0, 52, 49
4, 58560, Note_on_c, 0, 52, 0
4, 58719, Control_c, 0, 64, 127
4, 58719, Note_on_c, 0, 55, 49
4, 58880, Note_on_c, 0, 55, 0
4, 58880, Note_on_c, 0, 53, 49
4, 59040, Note_on_c, 0, 53, 0
4, 59040, Note_on_c, 0, 55, 49
4, 59199, Note_on_c, 0, 55, 0
4, 59199, Note_on_c, 0, 53, 49
4, 59360, Note_on_c, 0, 53, 0
4, 59360, Control_c, 0, 64, 0
4, 59360, Note_on_c, 0, 55, 49
4, 59520, Note_on_c, 0, 55, 0
4, 59679, Control_c, 0, 64, 127
4, 59679, Note_on_c, 0, 55, 49
4, 59840, Note_on_c, 0, 55, 0
4, 59840, Note_on_c, 0, 52, 49
4, 60000, Note_on_c, 0, 52, 0
4, 60000, Note_on_c, 0, 55, 49
4, 60159, Note_on_c, 0, 55, 0
4, 60159, Note_on_c, 0, 52, 49
4, 60320, Note_on_c, 0, 52, 0
4, 60320, Control_c, 0, 64, 0
4, 60320, Note_on_c, 0, 55, 49
4, 60480, Note_on_c, 0, 55, 0
4, 60480, Note_on_c, 0, 45, 49
4, 60480, Note_on_c, 0, 48, 49
4, 60480, Note_on_c, 0, 52, 49
4, 60480, Note_on_c, 0, 57, 49
4, 61440, Note_on_c, 0, 57, 0
4, 61440, Note_on_c, 0, 45, 0
4, 61440, Note_on_c, 0, 48, 0
4, 61440, Note_on_c, 0, 52, 0
4, 61440, Note_on_c, 0, 40, 49
4, 61440, Note_on_c, 0, 47, 49
4, 61440, Note_on_c, 0, 52, 49
4, 62400, Note_on_c, 0, 52, 0
4, 62400, Note_on_c, 0, 47, 0
4, 62400, Note_on_c, 0, 40, 0
4, 62400, Note_on_c, 0, 41, 49
4, 62400, Note_on_c, 0, 45, 49
4, 62400, Note_on_c, 0, 50, 49
4, 63360, Note_on_c, 0, 50, 0
4, 63360, Note_on_c, 0, 45, 0
4, 63360, Note_on_c, 0, 41, 0
4, 63360, Note_on_c, 0, 42, 49
4, 63360, Note_on_c, 0, 45, 49
4, 63360, Note_on_c, 0, 48, 49
4, 63360, Note_on_c, 0, 52, 49
4, 64320, Note_on_c, 0, 52, 0
4, 64320, Note_on_c, 0, 42, 0
4, 64320, Note_on_c, 0, 45, 0
4, 64320, Note_on_c, 0, 48, 0
4, 64320, Note_on_c, 0, 43, 49
4, 64320, Note_on_c, 0, 48, 49
4, 64320, Note_on_c, 0, 52, 49
4, 65280, Note_on_c, 0, 52, 0
4, 65280, Note_on_c, 0, 48, 0
4, 65280, Note_on_c, 0, 43, 0
4, 65280, Note_on_c, 0, 45, 49
4, 65280, Note_on_c, 0, 48, 49
4, 65280, Note_on_c, 0, 54, 49
4, 66240, Note_on_c, 0, 54, 0
4, 66240, Note_on_c, 0, 48, 0
4, 66240, Note_on_c, 0, 45, 0
4, 66240, Note_on_c, 0, 47, 49
4, 66240, Note_on_c, 0, 53, 49
4, 67200, Note_on_c, 0, 53, 0
4, 67200, Note_on_c, 0, 47, 0
4, 67200, Note_on_c, 0, 48, 49
4, 67200, Note_on_c, 0, 52, 49
4, 68640, Note_on_c, 0, 52, 0
4, 68640, Note_on_c, 0, 48, 0
4, 68640, Note_on_c, 0, 31, 49
4, 68640, Note_on_c, 0, 43, 49
4, 69120, Note_on_c, 0, 43, 0
4, 69120, Note_on_c, 0, 31, 0
4, 69120, Note_on_c, 0, 40, 88
4, 69360, Note_on_c, 0, 40, 0
4, 69360, Note_on_c, 0, 40, 88
4, 69600, Note_on_c, 0, 40, 0
4, 69600, Note_on_c, 0, 40, 62
4, 70560, Note_on_c, 0, 40, 0
4, 70560, Control_c, 0, 64, 127
4, 70560, Note_on_c, 0, 38, 62
4, 70920, Note_on_c, 0, 38, 0
4, 70920, Note_on_c, 0, 40, 62
4, 70980, Note_on_c, 0, 40, 0
4, 70980, Note_on_c, 0, 38, 62
4, 71040, Note_on_c, 0, 38, 0
4, 71040, Control_c, 0, 64, 0
4, 71040, Note_on_c, 0, 36, 62
4, 71520, Note_on_c, 0, 36, 0
4, 71520, Note_on_c, 0, 31, 62
4, 72360, Note_on_c, 0, 31, 0
4, 72360, Control_c, 0, 64, 127
4, 72360, Note_on_c, 0, 31, 62
4, 72480, Note_on_c, 0, 31, 0
4, 72480, Note_on_c, 0, 33, 62
4, 72600, Note_on_c, 0, 33, 0
4, 72600, Note_on_c, 0, 31, 62
4, 72720, Note_on_c, 0, 31, 0
4, 72720, Note_on_c, 0, 30, 62
4, 72840, Note_on_c, 0, 30, 0
4, 72840, Note_on_c, 0, 31, 62
4, 72960, Note_on_c, 0, 31, 0
4, 72960, Control_c, 0, 64, 0
4, 72960, Note_on_c, 0, 40, 88
4, 73200, Note_on_c, 0, 40, 0
4, 73200, Note_on_c, 0, 40, 88
4, 73440, Note_on_c, 0, 40, 0
4, 73440, Note_on_c, 0, 40, 62
4, 74400, Note_on_c, 0, 40, 0
4, 74400, Note_on_c, 0, 38, 62
4, 74760, Note_on_c, 0, 38, 0
4, 74760, Note_on_c, 0, 40, 62
4, 74880, Note_on_c, 0, 40, 0
4, 74880, Note_on_c, 0, 36, 62
4, 75360, Note_on_c, 0, 36, 0
4, 76320, Note_on_c, 0, 31, 62
4, 76800, Note_on_c, 0, 31, 0
4, 76800, Note_on_c, 0, 40, 62
4, 78240, Note_on_c, 0, 40, 0
4, 78240, Note_on_c, 0, 38, 62
4, 78720, Note_on_c, 0, 38, 0
4, 78720, Note_on_c, 0, 36, 62
4, 79200, Note_on_c, 0, 36, 0
4, 80160, Note_on_c, 0, 31, 62
4, 80640, Note_on_c, 0, 31, 0
4, 80640, Note_on_c, 0, 40, 62
4, 82080, Note_on_c, 0, 40, 0
4, 82080, Note_on_c, 0, 38, 62
4, 82560, Note_on_c, 0, 38, 0
4, 82560, Note_on_c, 0, 36, 62
4, 83040, Note_on_c, 0, 36, 0
4, 84000, Note_on_c, 0, 40, 62
4, 84480, Note_on_c, 0, 40, 0
4, 84480, Note_on_c, 0, 36, 62
4, 84960, Note_on_c, 0, 36, 0
4, 85920, Note_on_c, 0, 40, 62
4, 86400, Note_on_c, 0, 40, 0
4, 86400, Note_on_c, 0, 36, 62
4, 86880, Note_on_c, 0, 36, 0
4, 87840, Note_on_c, 0, 33, 62
4, 87840, Note_on_c, 0, 45, 62
4, 88080, Note_on_c, 0, 45, 0
4, 88080, Note_on_c, 0, 33, 0
4, 88320, Note_on_c, 0, 31, 62
4, 88320, Note_on_c, 0, 43, 62
4, 88560, Note_on_c, 0, 43, 0
4, 88560, Note_on_c, 0, 31, 0
4, 89280, Note_on_c, 0, 28, 62
4, 89280, Note_on_c, 0, 40, 62
4, 89520, Note_on_c, 0, 40, 0
4, 89520, Note_on_c, 0, 28, 0
4, 90240, Note_on_c, 0, 48, 62
4, 90240, Note_on_c, 0, 52, 62
4, 92160, Note_on_c, 0, 52, 0
4, 92160, Note_on_c, 0, 48, 0
4, 92160, Control_c, 0, 64, 127
4, 92160, Note_on_c, 0, 48, 49
4, 92240, Note_on_c, 0, 48, 0
4, 92240, Note_on_c, 0, 51, 49
4, 92319, Note_on_c, 0, 51, 0
4, 92319, Note_on_c, 0, 48, 49
4, 92400, Note_on_c, 0, 48, 0
4, 92400, Note_on_c, 0, 51, 49
4, 92480, Note_on_c, 0, 51, 0
4, 92480, Note_on_c, 0, 48, 49
4, 92559, Note_on_c, 0, 48, 0
4, 92559, Note_on_c, 0, 51, 49
4, 92640, Note_on_c, 0, 51, 0
4, 92640, Note_on_c, 0, 48, 49
4, 92720, Note_on_c, 0, 48, 0
4, 92720, Note_on_c, 0, 51, 49
4, 92799, Note_on_c, 0, 51, 0
4, 92799, Note_on_c, 0, 48, 49
4, 92880, Note_on_c, 0, 48, 0
4, 92880, Note_on_c, 0, 51, 49
4, 92960, Note_on_c, 0, 51, 0
4, 92960, Note_on_c, 0, 48, 49
4, 93039, Note_on_c, 0, 48, 0
4, 93039, Control_c, 0, 64, 0
4, 93039, Note_on_c, 0, 51, 49
4, 93120, Note_on_c, 0, 51, 0
4, 93120, Control_c, 0, 64, 127
4, 93120, Note_on_c, 0, 48, 49
4, 93120, Note_on_c, 0, 51, 49
4, 93200, Note_on_c, 0, 51, 0
4, 93200, Note_on_c, 0, 48, 0
4, 93200, Note_on_c, 0, 56, 49
4, 93279, Note_on_c, 0, 56, 0
4, 93279, Note_on_c, 0, 48, 49
4, 93279, Note_on_c, 0, 51, 49
4, 93360, Note_on_c, 0, 51, 0
4, 93360, Note_on_c, 0, 48, 0
4, 93360, Note_on_c, 0, 56, 49
4, 93440, Note_on_c, 0, 56, 0
4, 93440, Note_on_c, 0, 48, 49
4, 93440, Note_on_c, 0, 51, 49
4, 93519, Note_on_c, 0, 51, 0
4, 93519, Note_on_c, 0, 48, 0
4, 93519, Note_on_c, 0, 56, 49
4, 93600, Note_on_c, 0, 56, 0
4, 93600, Note_on_c, 0, 48, 49
4, 93600, Note_on_c, 0, 51, 49
4, 93680, Note_on_c, 0, 51, 0
4, 93680, Note_on_c, 0, 48, 0
4, 93680, Note_on_c, 0, 56, 49
4, 93759, Note_on_c, 0, 56, 0
4, 93759, Note_on_c, 0, 48, 49
4, 93759, Note_on_c, 0, 51, 49
4, 93840, Note_on_c, 0, 51, 0
4, 93840, Note_on_c, 0, 48, 0
4, 93840, Note_on_c, 0, 56, 49
4, 93920, Note_on_c, 0, 56, 0
4, 93920, Note_on_c, 0, 48, 49
4, 93920, Note_on_c, 0, 51, 49
4, 93999, Note_on_c, 0, 51, 0
4, 93999, Note_on_c, 0, 48, 0
4, 93999, Control_c, 0, 64, 0
4, 93999, Note_on_c, 0, 56, 49
4, 94080, Note_on_c, 0, 56, 0
4, 94080, Control_c, 0, 64, 127
4, 94080, Note_on_c, 0, 47, 49
4, 94080, Note_on_c, 0, 52, 49
4, 94160, Note_on_c, 0, 52, 0
4, 94160, Note_on_c, 0, 47, 0
4, 94160, Note_on_c, 0, 56, 49
4, 94239, Note_on_c, 0, 56, 0
4, 94239, Note_on_c, 0, 47, 49
4, 94239, Note_on_c, 0, 52, 49
4, 94320, Note_on_c, 0, 52, 0
4, 94320, Note_on_c, 0, 47, 0
4, 94320, Note_on_c, 0, 56, 49
4, 94400, Note_on_c, 0, 56, 0
4, 94400, Note_on_c, 0, 47, 49
4, 94400, Note_on_c, 0, 52, 49
4, 94479, Note_on_c, 0, 52, 0
4, 94479, Note_on_c, 0, 47, 0
4, 94479, Note_on_c, 0, 56, 49
4, 94560, Note_on_c, 0, 56, 0
4, 94560, Note_on_c, 0, 47, 49
4, 94560, Note_on_c, 0, 52, 49
4, 94640, Note_on_c, 0, 52, 0
4, 94640, Note_on_c, 0, 47, 0
4, 94640, Note_on_c, 0, 56, 49
4, 94719, Note_on_c, 0, 56, 0
4, 94719, Note_on_c, 0, 47, 49
4, 94719, Note_on_c, 0, 52, 49
4, 94800, Note_on_c, 0, 52, 0
4, 94800, Note_on_c, 0, 47, 0
4, 94800, Note_on_c, 0, 56, 49
4, 94880, Note_on_c, 0, 56, 0
4, 94880, Note_on_c, 0, 47, 49
4, 94880, Note_on_c, 0, 52, 49
4, 94959, Note_on_c, 0, 52, 0
4, 94959, Note_on_c, 0, 47, 0
4, 94959, Control_c, 0, 64, 0
4, 94959, Note_on_c, 0, 56, 49
4, 95040, Note_on_c, 0, 56, 0
4, 95040, Control_c, 0, 64, 127
4, 95040, Note_on_c, 0, 47, 49
4, 95040, Note_on_c, 0, 52, 49
4, 95120, Note_on_c, 0, 52, 0
4, 95120, Note_on_c, 0, 47, 0
4, 95120, Note_on_c, 0, 56, 49
4, 95199, Note_on_c, 0, 56, 0
4, 95199, Note_on_c, 0, 47, 49
4, 95199, Note_on_c, 0, 52, 49
4, 95280, Note_on_c, 0, 52, 0
4, 95280, Note_on_c, 0, 47, 0
4, 95280, Note_on_c, 0, 56, 49
4, 95360, Note_on_c, 0, 56, 0
4, 95360, Note_on_c, 0, 47, 49
4, 95360, Note_on_c, 0, 52, 49
4, 95439, Note_on_c, 0, 52, 0
4, 95439, Note_on_c, 0, 47, 0
4, 95439, Note_on_c, 0, 56, 49
4, 95520, Note_on_c, 0, 56, 0
4, 95520, Note_on_c, 0, 47, 49
4, 95520, Note_on_c, 0, 52, 49
4, 95600, Note_on_c, 0, 52, 0
4, 95600, Note_on_c, 0, 47, 0
4, 95600, Note_on_c, 0, 56, 49
4, 95679, Note_on_c, 0, 56, 0
4, 95679, Note_on_c, 0, 47, 49
4, 95679, Note_on_c, 0, 52, 49
4, 95760, Note_on_c, 0, 52, 0
4, 95760, Note_on_c, 0, 47, 0
4, 95760, Note_on_c, 0, 56, 49
4, 95840, Note_on_c, 0, 56, 0
4, 95840, Note_on_c, 0, 47, 49
4, 95840, Note_on_c, 0, 52, 49
4, 95919, Note_on_c, 0, 52, 0
4, 95919, Note_on_c, 0, 47, 0
4, 95919, Control_c, 0, 64, 0
4, 95919, Note_on_c, 0, 56, 49
4, 96000, Note_on_c, 0, 56, 0
4, 96000, Control_c, 0, 64, 127
4, 96000, Note_on_c, 0, 48, 49
4, 96000, Note_on_c, 0, 51, 49
4, 96080, Note_on_c, 0, 51, 0
4, 96080, Note_on_c, 0, 48, 0
4, 96080, Note_on_c, 0, 56, 49
4, 96159, Note_on_c, 0, 56, 0
4, 96159, Note_on_c, 0, 48, 49
4, 96159, Note_on_c, 0, 51, 49
4, 96240, Note_on_c, 0, 51, 0
4, 96240, Note_on_c, 0, 48, 0
4, 96240, Note_on_c, 0, 56, 49
4, 96320, Note_on_c, 0, 56, 0
4, 96320, Note_on_c, 0, 48, 49
4, 96320, Note_on_c, 0, 51, 49
4, 96399, Note_on_c, 0, 51, 0
4, 96399, Note_on_c, 0, 48, 0
4, 96399, Note_on_c, 0, 56, 49
4, 96480, Note_on_c, 0, 56, 0
4, 96480, Note_on_c, 0, 48, 49
4, 96480, Note_on_c, 0, 51, 49
4, 96560, Note_on_c, 0, 51, 0
4, 96560, Note_on_c, 0, 48, 0
4, 96560, Note_on_c, 0, 56, 49
4, 96639, Note_on_c, 0, 56, 0
4, 96639, Note_on_c, 0, 48, 49
4, 96639, Note_on_c, 0, 51, 49
4, 96720, Note_on_c, 0, 51, 0
4, 96720, Note_on_c, 0, 48, 0
4, 96720, Note_on_c, 0, 56, 49
4, 96800, Note_on_c, 0, 56, 0
4, 96800, Note_on_c, 0, 48, 49
4, 96800, Note_on_c, 0, 51, 49
4, 96879, Note_on_c, 0, 51, 0
4, 96879, Note_on_c, 0, 48, 0
4, 96879, Control_c, 0, 64, 0
4, 96879, Note_on_c, 0, 56, 49
4, 96960, Note_on_c, 0, 56, 0
4, 96960, Control_c, 0, 64, 127
4, 96960, Note_on_c, 0, 48, 49
4, 96960, Note_on_c, 0, 51, 49
4, 97040, Note_on_c, 0, 51, 0
4, 97040, Note_on_c, 0, 48, 0
4, 97040, Note_on_c, 0, 56, 49
4, 97119, Note_on_c, 0, 56, 0
4, 97119, Note_on_c, 0, 48, 49
4, 97119, Note_on_c, 0, 51, 49
4, 97200, Note_on_c, 0, 51, 0
4, 97200, Note_on_c, 0, 48, 0
4, 97200, Note_on_c, 0, 56, 49
4, 97280, Note_on_c, 0, 56, 0
4, 97280, Note_on_c, 0, 48, 49
4, 97280, Note_on_c, 0, 51, 49
4, 97359, Note_on_c, 0, 51, 0
4, 97359, Note_on_c, 0, 48, 0
4, 97359, Note_on_c, 0, 56, 49
4, 97440, Note_on_c, 0, 56, 0
4, 97440, Note_on_c, 0, 48, 49
4, 97440, Note_on_c, 0, 51, 49
4, 97520, Note_on_c, 0, 51, 0
4, 97520, Note_on_c, 0, 48, 0
4, 97520, Note_on_c, 0, 56, 49
4, 97599, Note_on_c, 0, 56, 0
4, 97599, Note_on_c, 0, 48, 49
4, 97599, Note_on_c, 0, 51, 49
4, 97680, Note_on_c, 0, 51, 0
4, 97680, Note_on_c, 0, 48, 0
4, 97680, Note_on_c, 0, 56, 49
4, 97760, Note_on_c, 0, 56, 0
4, 97760, Note_on_c, 0, 48, 49
4, 97760, Note_on_c, 0, 51, 49
4, 97839, Note_on_c, 0, 51, 0
4, 97839, Note_on_c, 0, 48, 0
4, 97839, Control_c, 0, 64, 0
4, 97839, Note_on_c, 0, 56, 49
4, 97920, Note_on_c, 0, 56, 0
4, 97920, Control_c, 0, 64, 127
4, 97920, Note_on_c, 0, 48, 49
4, 97920, Note_on_c, 0, 51, 49
4, 98000, Note_on_c, 0, 51, 0
4, 98000, Note_on_c, 0, 48, 0
4, 98000, Note_on_c, 0, 56, 49
4, 98079, Note_on_c, 0, 56, 0
4, 98079, Note_on_c, 0, 48, 49
4, 98079, Note_on_c, 0, 51, 49
4, 98160, Note_on_c, 0, 51, 0
4, 98160, Note_on_c, 0, 48, 0
4, 98160, Note_on_c, 0, 56, 49
4, 98240, Note_on_c, 0, 56, 0
4, 98240, Note_on_c, 0, 48, 49
4, 98240, Note_on_c, 0, 51, 49
4, 98319, Note_on_c, 0, 51, 0
4, 98319, Note_on_c, 0, 48, 0
4, 98319, Note_on_c, 0, 56, 49
4, 98400, Note_on_c, 0, 56, 0
4, 98400, Note_on_c, 0, 48, 49
4, 98400, Note_on_c, 0, 51, 49
4, 98480, Note_on_c, 0, 51, 0
4, 98480, Note_on_c, 0, 48, 0
4, 98480, Note_on_c, 0, 56, 49
4, 98559, Note_on_c, 0, 56, 0
4, 98559, Note_on_c, 0, 48, 49
4, 98559, Note_on_c, 0, 51, 49
4, 98640, Note_on_c, 0, 51, 0
4, 98640, Note_on_c, 0, 48, 0
4, 98640, Note_on_c, 0, 56, 49
4, 98720, Note_on_c, 0, 56, 0
4, 98720, Note_on_c, 0, 48, 49
4, 98720, Note_on_c, 0, 51, 49
4, 98799, Note_on_c, 0, 51, 0
4, 98799, Note_on_c, 0, 48, 0
4, 98799, Control_c, 0, 64, 0
4, 98799, Note_on_c, 0, 56, 49
4, 98880, Note_on_c, 0, 56, 0
4, 98880, Control_c, 0, 64, 127
4, 98880, Note_on_c, 0, 48, 49
4, 98880, Note_on_c, 0, 51, 49
4, 98960, Note_on_c, 0, 51, 0
4, 98960, Note_on_c, 0, 48, 0
4, 98960, Note_on_c, 0, 56, 49
4, 99039, Note_on_c, 0, 56, 0
4, 99039, Note_on_c, 0, 48, 49
4, 99039, Note_on_c, 0, 51, 49
4, 99120, Note_on_c, 0, 51, 0
4, 99120, Note_on_c, 0, 48, 0
4, 99120, Note_on_c, 0, 56, 49
4, 99200, Note_on_c, 0, 56, 0
4, 99200, Note_on_c, 0, 48, 49
4, 99200, Note_on_c, 0, 51, 49
4, 99279, Note_on_c, 0, 51, 0
4, 99279, Note_on_c, 0, 48, 0
4, 99279, Note_on_c, 0, 56, 49
4, 99360, Note_on_c, 0, 56, 0
4, 99360, Note_on_c, 0, 48, 49
4, 99360, Note_on_c, 0, 51, 49
4, 99440, Note_on_c, 0, 51, 0
4, 99440, Note_on_c, 0, 48, 0
4, 99440, Note_on_c, 0, 56, 49
4, 99519, Note_on_c, 0, 56, 0
4, 99519, Note_on_c, 0, 48, 49
4, 99519, Note_on_c, 0, 51, 49
4, 99600, Note_on_c, 0, 51, 0
4, 99600, Note_on_c, 0, 48, 0
4, 99600, Note_on_c, 0, 56, 49
4, 99680, Note_on_c, 0, 56, 0
4, 99680, Note_on_c, 0, 48, 49
4, 99680, Note_on_c, 0, 51, 49
4, 99759, Note_on_c, 0, 51, 0
4, 99759, Note_on_c, 0, 48, 0
4, 99759, Control_c, 0, 64, 0
4, 99759, Note_on_c, 0, 56, 49
4, 99840, Note_on_c, 0, 56, 0
4, 99840, Control_c, 0, 64, 127
4, 99840, Note_on_c, 0, 48, 49
4, 99840, Note_on_c, 0, 51, 49
4, 99920, Note_on_c, 0, 51, 0
4, 99920, Note_on_c, 0, 48, 0
4, 99920, Note_on_c, 0, 56, 49
4, 99999, Note_on_c, 0, 56, 0
4, 99999, Note_on_c, 0, 48, 49
4, 99999, Note_on_c, 0, 51, 49
4, 100080, Note_on_c, 0, 51, 0
4, 100080, Note_on_c, 0, 48, 0
4, 100080, Note_on_c, 0, 56, 49
4, 100160, Note_on_c, 0, 56, 0
4, 100160, Note_on_c, 0, 48, 49
4, 100160, Note_on_c, 0, 51, 49
4, 100239, Note_on_c, 0, 51, 0
4, 100239, Note_on_c, 0, 48, 0
4, 100239, Note_on_c, 0, 56, 49
4, 100320, Note_on_c, 0, 56, 0
4, 100320, Note_on_c, 0, 48, 49
4, 100320, Note_on_c, 0, 51, 49
4, 100400, Note_on_c, 0, 51, 0
4, 100400, Note_on_c, 0, 48, 0
4, 100400, Note_on_c, 0, 56, 49
4, 100479, Note_on_c, 0, 56, 0
4, 100479, Note_on_c, 0, 48, 49
4, 100479, Note_on_c, 0, 51, 49
4, 100560, Note_on_c, 0, 51, 0
4, 100560, Note_on_c, 0, 48, 0
4, 100560, Note_on_c, 0, 56, 49
4, 100640, Note_on_c, 0, 56, 0
4, 100640, Note_on_c, 0, 48, 49
4, 100640, Note_on_c, 0, 51, 49
4, 100719, Note_on_c, 0, 51, 0
4, 100719, Note_on_c, 0, 48, 0
4, 100719, Control_c, 0, 64, 0
4, 100719, Note_on_c, 0, 56, 49
4, 100800, Note_on_c, 0, 56, 0
4, 100800, Control_c, 0, 64, 127
4, 100800, Note_on_c, 0, 48, 49
4, 100800, Note_on_c, 0, 51, 49
4, 100880, Note_on_c, 0, 51, 0
4, 100880, Note_on_c, 0, 48, 0
4, 100880, Note_on_c, 0, 56, 49
4, 100959, Note_on_c, 0, 56, 0
4, 100959, Note_on_c, 0, 48, 49
4, 100959, Note_on_c, 0, 51, 49
4, 101040, Note_on_c, 0, 51, 0
4, 101040, Note_on_c, 0, 48, 0
4, 101040, Note_on_c, 0, 56, 49
4, 101120, Note_on_c, 0, 56, 0
4, 101120, Note_on_c, 0, 48, 49
4, 101120, Note_on_c, 0, 51, 49
4, 101199, Note_on_c, 0, 51, 0
4, 101199, Note_on_c, 0, 48, 0
4, 101199, Note_on_c, 0, 56, 49
4, 101280, Note_on_c, 0, 56, 0
4, 101280, Note_on_c, 0, 48, 49
4, 101280, Note_on_c, 0, 51, 49
4, 101360, Note_on_c, 0, 51, 0
4, 101360, Note_on_c, 0, 48, 0
4, 101360, Note_on_c, 0, 56, 49
4, 101439, Note_on_c, 0, 56, 0
4, 101439, Note_on_c, 0, 48, 49
4, 101439, Note_on_c, 0, 51, 49
4, 101520, Note_on_c, 0, 51, 0
4, 101520, Note_on_c, 0, 48, 0
4, 101520, Note_on_c, 0, 56, 49
4, 101600, Note_on_c, 0, 56, 0
4, 101600, Note_on_c, 0, 48, 49
4, 101600, Note_on_c, 0, 51, 49
4, 101679, Note_on_c, 0, 51, 0
4, 101679, Note_on_c, 0, 48, 0
4, 101679, Control_c, 0, 64, 0
4, 101679, Note_on_c, 0, 56, 49
4, 101760, Note_on_c, 0, 56, 0
4, 101760, Control_c, 0, 64, 127
4, 101760, Note_on_c, 0, 47, 49
4, 101760, Note_on_c, 0, 52, 49
4, 101840, Note_on_c, 0, 52, 0
4, 101840, Note_on_c, 0, 47, 0
4, 101840, Note_on_c, 0, 56, 49
4, 101919, Note_on_c, 0, 56, 0
4, 101919, Note_on_c, 0, 47, 49
4, 101919, Note_on_c, 0, 52, 49
4, 102000, Note_on_c, 0, 52, 0
4, 102000, Note_on_c, 0, 47, 0
4, 102000, Note_on_c, 0, 56, 49
4, 102080, Note_on_c, 0, 56, 0
4, 102080, Note_on_c, 0, 47, 49
4, 102080, Note_on_c, 0, 52, 49
4, 102159, Note_on_c, 0, 52, 0
4, 102159, Note_on_c, 0, 47, 0
4, 102159, Note_on_c, 0, 56, 49
4, 102240, Note_on_c, 0, 56, 0
4, 102240, Note_on_c, 0, 47, 49
4, 102240, Note_on_c, 0, 52, 49
4, 102320, Note_on_c, 0, 52, 0
4, 102320, Note_on_c, 0, 47, 0
4, 102320, Note_on_c, 0, 56, 49
4, 102399, Note_on_c, 0, 56, 0
4, 102399, Note_on_c, 0, 47, 49
4, 102399, Note_on_c, 0, 52, 49
4, 102480, Note_on_c, 0, 52, 0
4, 102480, Note_on_c, 0, 47, 0
4, 102480, Note_on_c, 0, 56, 49
4, 102560, Note_on_c, 0, 56, 0
4, 102560, Note_on_c, 0, 47, 49
4, 102560, Note_on_c, 0, 52, 49
4, 102639, Note_on_c, 0, 52, 0
4, 102639, Note_on_c, 0, 47, 0
4, 102639, Control_c, 0, 64, 0
4, 102639, Note_on_c, 0, 56, 49
4, 102720, Note_on_c, 0, 56, 0
4, 102720, Control_c, 0, 64, 127
4, 102720, Note_on_c, 0, 47, 49
4, 102720, Note_on_c, 0, 52, 49
4, 102800, Note_on_c, 0, 52, 0
4, 102800, Note_on_c, 0, 47, 0
4, 102800, Note_on_c, 0, 56, 49
4, 102879, Note_on_c, 0, 56, 0
4, 102879, Note_on_c, 0, 47, 49
4, 102879, Note_on_c, 0, 52, 49
4, 102960, Note_on_c, 0, 52, 0
4, 102960, Note_on_c, 0, 47, 0
4, 102960, Note_on_c, 0, 56, 49
4, 103040, Note_on_c, 0, 56, 0
4, 103040, Note_on_c, 0, 47, 49
4, 103040, Note_on_c, 0, 52, 49
4, 103119, Note_on_c, 0, 52, 0
4, 103119, Note_on_c, 0, 47, 0
4, 103119, Note_on_c, 0, 56, 49
4, 103200, Note_on_c, 0, 56, 0
4, 103200, Note_on_c, 0, 47, 49
4, 103200, Note_on_c, 0, 52, 49
4, 103280, Note_on_c, 0, 52, 0
4, 103280, Note_on_c, 0, 47, 0
4, 103280, Note_on_c, 0, 56, 49
4, 103359, Note_on_c, 0, 56, 0
4, 103359, Note_on_c, 0, 47, 49
4, 103359, Note_on_c, 0, 52, 49
4, 103440, Note_on_c, 0, 52, 0
4, 103440, Note_on_c, 0, 47, 0
4, 103440, Note_on_c, 0, 56, 49
4, 103520, Note_on_c, 0, 56, 0
4, 103520, Note_on_c, 0, 47, 49
4, 103520, Note_on_c, 0, 52, 49
4, 103599, Note_on_c, 0, 52, 0
4, 103599, Note_on_c, 0, 47, 0
4, 103599, Control_c, 0, 64, 0
4, 103599, Note_on_c, 0, 56, 49
4, 103680, Note_on_c, 0, 56, 0
4, 103680, Control_c, 0, 64, 127
4, 103680, Note_on_c, 0, 48, 49
4, 103680, Note_on_c, 0, 51, 49
4, 103760, Note_on_c, 0, 51, 0
4, 103760, Note_on_c, 0, 48, 0
4, 103760, Note_on_c, 0, 56, 49
4, 103839, Note_on_c, 0, 56, 0
4, 103839, Note_on_c, 0, 48, 49
4, 103839, Note_on_c, 0, 51, 49
4, 103920, Note_on_c, 0, 51, 0
4, 103920, Note_on_c, 0, 48, 0
4, 103920, Note_on_c, 0, 56, 49
4, 104000, Note_on_c, 0, 56, 0
4, 104000, Note_on_c, 0, 48, 49
4, 104000, Note_on_c, 0, 51, 49
4, 104079, Note_on_c, 0, 51, 0
4, 104079, Note_on_c, 0, 48, 0
4, 104079, Note_on_c, 0, 56, 49
4, 104160, Note_on_c, 0, 56, 0
4, 104160, Note_on_c, 0, 48, 49
4, 104160, Note_on_c, 0, 51, 49
4, 104240, Note_on_c, 0, 51, 0
4, 104240, Note_on_c, 0, 48, 0
4, 104240, Note_on_c, 0, 56, 49
4, 104319, Note_on_c, 0, 56, 0
4, 104319, Note_on_c, 0, 48, 49
4, 104319, Note_on_c, 0, 51, 49
4, 104400, Note_on_c, 0, 51, 0
4, 104400, Note_on_c, 0, 48, 0
4, 104400, Note_on_c, 0, 56, 49
4, 104480, Note_on_c, 0, 56, 0
4, 104480, Note_on_c, 0, 48, 49
4, 104480, Note_on_c, 0, 51, 49
4, 104559, Note_on_c, 0, 51, 0
4, 104559, Note_on_c, 0, 48, 0
4, 104559, Control_c, 0, 64, 0
4, 104559, Note_on_c, 0, 56, 49
4, 104640, Note_on_c, 0, 56, 0
4, 104640, Control_c, 0, 64, 127
4, 104640, Note_on_c, 0, 48, 49
4, 104640, Note_on_c, 0, 51, 49
4, 104720, Note_on_c, 0, 51, 0
4, 104720, Note_on_c, 0, 48, 0
4, 104720, Note_on_c, 0, 56, 49
4, 104799, Note_on_c, 0, 56, 0
4, 104799, Note_on_c, 0, 48, 49
4, 104799, Note_on_c, 0, 51, 49
4, 104880, Note_on_c, 0, 51, 0
4, 104880, Note_on_c, 0, 48, 0
4, 104880, Note_on_c, 0, 56, 49
4, 104960, Note_on_c, 0, 56, 0
4, 104960, Note_on_c, 0, 48, 49
4, 104960, Note_on_c, 0, 51, 49
4, 105039, Note_on_c, 0, 51, 0
4, 105039, Note_on_c, 0, 48, 0
4, 105039, Note_on_c, 0, 56, 49
4, 105120, Note_on_c, 0, 56, 0
4, 105120, Note_on_c, 0, 48, 49
4, 105120, Note_on_c, 0, 51, 49
4, 105200, Note_on_c, 0, 51, 0
4, 105200, Note_on_c, 0, 48, 0
4, 105200, Note_on_c, 0, 56, 49
4, 105279, Note_on_c, 0, 56, 0
4, 105279, Note_on_c, 0, 48, 49
4, 105279, Note_on_c, 0, 51, 49
4, 105360, Note_on_c, 0, 51, 0
4, 105360, Note_on_c, 0, 48, 0
4, 105360, Note_on_c, 0, 56, 49
4, 105440, Note_on_c, 0, 56, 0
4, 105440, Note_on_c, 0, 48, 49
4, 105440, Note_on_c, 0, 51, 49
4, 105519, Note_on_c, 0, 51, 0
4, 105519, Note_on_c, 0, 48, 0
4, 105519, Control_c, 0, 64, 0
4, 105519, Note_on_c, 0, 56, 49
4, 105600, Note_on_c, 0, 56, 0
4, 105600, Control_c, 0, 64, 127
4, 105600, Note_on_c, 0, 48, 49
4, 105600, Note_on_c, 0, 51, 49
4, 105680, Note_on_c, 0, 51, 0
4, 105680, Note_on_c, 0, 48, 0
4, 105680, Note_on_c, 0, 56, 49
4, 105759, Note_on_c, 0, 56, 0
4, 105759, Note_on_c, 0, 48, 49
4, 105759, Note_on_c, 0, 51, 49
4, 105840, Note_on_c, 0, 51, 0
4, 105840, Note_on_c, 0, 48, 0
4, 105840, Note_on_c, 0, 56, 49
4, 105920, Note_on_c, 0, 56, 0
4, 105920, Note_on_c, 0, 48, 49
4, 105920, Note_on_c, 0, 51, 49
4, 105999, Note_on_c, 0, 51, 0
4, 105999, Note_on_c, 0, 48, 0
4, 105999, Note_on_c, 0, 56, 49
4, 106080, Note_on_c, 0, 56, 0
4, 106080, Note_on_c, 0, 48, 49
4, 106080, Note_on_c, 0, 51, 49
4, 106160, Note_on_c, 0, 51, 0
4, 106160, Note_on_c, 0, 48, 0
4, 106160, Note_on_c, 0, 56, 49
4, 106239, Note_on_c, 0, 56, 0
4, 106239, Note_on_c, 0, 48, 49
4, 106239, Note_on_c, 0, 51, 49
4, 106320, Note_on_c, 0, 51, 0
4, 106320, Note_on_c, 0, 48, 0
4, 106320, Note_on_c, 0, 56, 49
4, 106400, Note_on_c, 0, 56, 0
4, 106400, Note_on_c, 0, 48, 49
4, 106400, Note_on_c, 0, 51, 49
4, 106479, Note_on_c, 0, 51, 0
4, 106479, Note_on_c, 0, 48, 0
4, 106479, Control_c, 0, 64, 0
4, 106479, Note_on_c, 0, 56, 49
4, 106560, Note_on_c, 0, 56, 0
4, 106560, Control_c, 0, 64, 127
4, 106560, Note_on_c, 0, 48, 49
4, 106560, Note_on_c, 0, 51, 49
4, 106640, Note_on_c, 0, 51, 0
4, 106640, Note_on_c, 0, 48, 0
4, 106640, Note_on_c, 0, 56, 49
4, 106719, Note_on_c, 0, 56, 0
4, 106719, Note_on_c, 0, 48, 49
4, 106719, Note_on_c, 0, 51, 49
4, 106800, Note_on_c, 0, 51, 0
4, 106800, Note_on_c, 0, 48, 0
4, 106800, Note_on_c, 0, 56, 49
4, 106880, Note_on_c, 0, 56, 0
4, 106880, Note_on_c, 0, 48, 49
4, 106880, Note_on_c, 0, 51, 49
4, 106959, Note_on_c, 0, 51, 0
4, 106959, Note_on_c, 0, 48, 0
4, 106959, Note_on_c, 0, 56, 49
4, 107040, Note_on_c, 0, 56, 0
4, 107040, Note_on_c, 0, 48, 49
4, 107040, Note_on_c, 0, 51, 49
4, 107120, Note_on_c, 0, 51, 0
4, 107120, Note_on_c, 0, 48, 0
4, 107120, Note_on_c, 0, 56, 49
4, 107199, Note_on_c, 0, 56, 0
4, 107199, Note_on_c, 0, 48, 49
4, 107199, Note_on_c, 0, 51, 49
4, 107280, Note_on_c, 0, 51, 0
4, 107280, Note_on_c, 0, 48, 0
4, 107280, Note_on_c, 0, 56, 49
4, 107360, Note_on_c, 0, 56, 0
4, 107360, Note_on_c, 0, 48, 49
4, 107360, Note_on_c, 0, 51, 49
4, 107439, Note_on_c, 0, 51, 0
4, 107439, Note_on_c, 0, 48, 0
4, 107439, Control_c, 0, 64, 0
4, 107439, Note_on_c, 0, 56, 49
4, 107520, Note_on_c, 0, 56, 0
4, 107520, Control_c, 0, 64, 127
4, 107520, Note_on_c, 0, 48, 49
4, 107520, Note_on_c, 0, 51, 49
4, 107600, Note_on_c, 0, 51, 0
4, 107600, Note_on_c, 0, 48, 0
4, 107600, Note_on_c, 0, 56, 49
4, 107679, Note_on_c, 0, 56, 0
4, 107679, Note_on_c, 0, 48, 49
4, 107679, Note_on_c, 0, 51, 49
4, 107760, Note_on_c, 0, 51, 0
4, 107760, Note_on_c, 0, 48, 0
4, 107760, Note_on_c, 0, 56, 49
4, 107840, Note_on_c, 0, 56, 0
4, 107840, Note_on_c, 0, 48, 49
4, 107840, Note_on_c, 0, 51, 49
4, 107919, Note_on_c, 0, 51, 0
4, 107919, Note_on_c, 0, 48, 0
4, 107919, Note_on_c, 0, 56, 49
4, 108000, Note_on_c, 0, 56, 0
4, 108000, Note_on_c, 0, 48, 49
4, 108000, Note_on_c, 0, 51, 49
4, 108080, Note_on_c, 0, 51, 0
4, 108080, Note_on_c, 0, 48, 0
4, 108080, Note_on_c, 0, 56, 49
4, 108159, Note_on_c, 0, 56, 0
4, 108159, Note_on_c, 0, 48, 49
4, 108159, Note_on_c, 0, 51, 49
4, 108240, Note_on_c, 0, 51, 0
4, 108240, Note_on_c, 0, 48, 0
4, 108240, Note_on_c, 0, 56, 49
4, 108320, Note_on_c, 0, 56, 0
4, 108320, Note_on_c, 0, 48, 49
4, 108320, Note_on_c, 0, 51, 49
4, 108399, Note_on_c, 0, 51, 0
4, 108399, Note_on_c, 0, 48, 0
4, 108399, Control_c, 0, 64, 0
4, 108399, Note_on_c, 0, 56, 49
4, 108480, Note_on_c, 0, 56, 0
4, 108480, Control_c, 0, 64, 127
4, 108480, Note_on_c, 0, 48, 49
4, 108480, Note_on_c, 0, 51, 49
4, 108560, Note_on_c, 0, 51, 0
4, 108560, Note_on_c, 0, 48, 0
4, 108560, Note_on_c, 0, 56, 49
4, 108639, Note_on_c, 0, 56, 0
4, 108639, Note_on_c, 0, 48, 49
4, 108639, Note_on_c, 0, 51, 49
4, 108720, Note_on_c, 0, 51, 0
4, 108720, Note_on_c, 0, 48, 0
4, 108720, Note_on_c, 0, 56, 49
4, 108800, Note_on_c, 0, 56, 0
4, 108800, Note_on_c, 0, 48, 49
4, 108800, Note_on_c, 0, 51, 49
4, 108879, Note_on_c, 0, 51, 0
4, 108879, Note_on_c, 0, 48, 0
4, 108879, Note_on_c, 0, 56, 49
4, 108960, Note_on_c, 0, 56, 0
4, 108960, Note_on_c, 0, 48, 49
4, 108960, Note_on_c, 0, 51, 49
4, 109040, Note_on_c, 0, 51, 0
4, 109040, Note_on_c, 0, 48, 0
4, 109040, Note_on_c, 0, 56, 49
4, 109119, Note_on_c, 0, 56, 0
4, 109119, Note_on_c, 0, 48, 49
4, 109119, Note_on_c, 0, 51, 49
4, 109200, Note_on_c, 0, 51, 0
4, 109200, Note_on_c, 0, 48, 0
4, 109200, Note_on_c, 0, 56, 49
4, 109280, Note_on_c, 0, 56, 0
4, 109280, Note_on_c, 0, 48, 49
4, 109280, Note_on_c, 0, 51, 49
4, 109359, Note_on_c, 0, 51, 0
4, 109359, Note_on_c, 0, 48, 0
4, 109359, Control_c, 0, 64, 0
4, 109359, Note_on_c, 0, 56, 49
4, 109440, Note_on_c, 0, 56, 0
4, 109440, Note_on_c, 0, 49, 49
4, 109440, Note_on_c, 0, 53, 49
4, 109440, Note_on_c, 0, 56, 49
4, 109680, Note_on_c, 0, 56, 0
4, 109680, Note_on_c, 0, 53, 0
4, 109680, Note_on_c, 0, 49, 0
4, 110400, Control_c, 0, 64, 127
4, 110400, Note_on_c, 0, 61, 49
4, 110400, Note_on_c, 0, 65, 49
4, 110480, Note_on_c, 0, 65, 0
4, 110480, Note_on_c, 0, 61, 0
4, 110480, Note_on_c, 0, 68, 49
4, 110559, Note_on_c, 0, 68, 0
4, 110559, Note_on_c, 0, 61, 49
4, 110559, Note_on_c, 0, 65, 49
4, 110640, Note_on_c, 0, 65, 0
4, 110640, Note_on_c, 0, 61, 0
4, 110640, Note_on_c, 0, 68, 49
4, 110720, Note_on_c, 0, 68, 0
4, 110720, Note_on_c, 0, 61, 49
4, 110720, Note_on_c, 0, 65, 49
4, 110799, Note_on_c, 0, 65, 0
4, 110799, Note_on_c, 0, 61, 0
4, 110799, Note_on_c, 0, 68, 49
4, 110880, Note_on_c, 0, 68, 0
4, 110880, Note_on_c, 0, 61, 49
4, 110880, Note_on_c, 0, 65, 49
4, 110960, Note_on_c, 0, 65, 0
4, 110960, Note_on_c, 0, 61, 0
4, 110960, Note_on_c, 0, 68, 49
4, 111039, Note_on_c, 0, 68, 0
4, 111039, Note_on_c, 0, 61, 49
4, 111039, Note_on_c, 0, 65, 49
4, 111120, Note_on_c, 0, 65, 0
4, 111120, Note_on_c, 0, 61, 0
4, 111120, Note_on_c, 0, 68, 49
4, 111200, Note_on_c, 0, 68, 0
4, 111200, Note_on_c, 0, 61, 49
4, 111200, Note_on_c, 0, 65, 49
4, 111279, Note_on_c, 0, 65, 0
4, 111279, Note_on_c, 0, 61, 0
4, 111279, Control_c, 0, 64, 0
4, 111279, Note_on_c, 0, 68, 49
4, 111360, Note_on_c, 0, 68, 0
4, 111360, Control_c, 0, 64, 127
4, 111360, Note_on_c, 0, 60, 49
4, 111360, Note_on_c, 0, 62, 49
4, 111360, Note_on_c, 0, 66, 49
4, 111440, Note_on_c, 0, 66, 0
4, 111440, Note_on_c, 0, 62, 0
4, 111440, Note_on_c, 0, 60, 0
4, 111440, Note_on_c, 0, 69, 49
4, 111519, Note_on_c, 0, 69, 0
4, 111519, Note_on_c, 0, 60, 49
4, 111519, Note_on_c, 0, 62, 49
4, 111519, Note_on_c, 0, 66, 49
4, 111600, Note_on_c, 0, 66, 0
4, 111600, Note_on_c, 0, 62, 0
4, 111600, Note_on_c, 0, 60, 0
4, 111600, Note_on_c, 0, 69, 49
4, 111680, Note_on_c, 0, 69, 0
4, 111680, Note_on_c, 0, 60, 49
4, 111680, Note_on_c, 0, 62, 49
4, 111680, Note_on_c, 0, 66, 49
4, 111759, Note_on_c, 0, 66, 0
4, 111759, Note_on_c, 0, 62, 0
4, 111759, Note_on_c, 0, 60, 0
4, 111759, Note_on_c, 0, 69, 49
4, 111840, Note_on_c, 0, 69, 0
4, 111840, Note_on_c, 0, 60, 49
4, 111840, Note_on_c, 0, 62, 49
4, 111840, Note_on_c, 0, 66, 49
4, 111920, Note_on_c, 0, 66, 0
4, 111920, Note_on_c, 0, 62, 0
4, 111920, Note_on_c, 0, 60, 0
4, 111920, Note_on_c, 0, 69, 49
4, 111999, Note_on_c, 0, 69, 0
4, 111999, Note_on_c, 0, 60, 49
4, 111999, Note_on_c, 0, 62, 49
4, 111999, Note_on_c, 0, 66, 49
4, 112080, Note_on_c, 0, 66, 0
4, 112080, Note_on_c, 0, 62, 0
4, 112080, Note_on_c, 0, 60, 0
4, 112080, Note_on_c, 0, 69, 49
4, 112160, Note_on_c, 0, 69, 0
4, 112160, Note_on_c, 0, 60, 49
4, 112160, Note_on_c, 0, 62, 49
4, 112160, Note_on_c, 0, 66, 49
4, 112239, Note_on_c, 0, 66, 0
4, 112239, Note_on_c, 0, 62, 0
4, 112239, Note_on_c, 0, 60, 0
4, 112239, Control_c, 0, 64, 0
4, 112239, Note_on_c, 0, 69, 49
4, 112320, Note_on_c, 0, 69, 0
4, 112320, Control_c, 0, 64, 127
4, 112320, Note_on_c, 0, 60, 49
4, 112320, Note_on_c, 0, 62, 49
4, 112320, Note_on_c, 0, 66, 49
4, 112400, Note_on_c, 0, 66, 0
4, 112400, Note_on_c, 0, 62, 0
4, 112400, Note_on_c, 0, 60, 0
4, 112400, Note_on_c, 0, 69, 49
4, 112479, Note_on_c, 0, 69, 0
4, 112479, Note_on_c, 0, 60, 49
4, 112479, Note_on_c, 0, 62, 49
4, 112479, Note_on_c, 0, 66, 49
4, 112560, Note_on_c, 0, 66, 0
4, 112560, Note_on_c, 0, 62, 0
4, 112560, Note_on_c, 0, 60, 0
4, 112560, Note_on_c, 0, 69, 49
4, 112640, Note_on_c, 0, 69, 0
4, 112640, Note_on_c, 0, 60, 49
4, 112640, Note_on_c, 0, 62, 49
4, 112640, Note_on_c, 0, 66, 49
4, 112719, Note_on_c, 0, 66, 0
4, 112719, Note_on_c, 0, 62, 0
4, 112719, Note_on_c, 0, 60, 0
4, 112719, Note_on_c, 0, 69, 49
4, 112800, Note_on_c, 0, 69, 0
4, 112800, Note_on_c, 0, 60, 49
4, 112800, Note_on_c, 0, 62, 49
4, 112800, Note_on_c, 0, 66, 49
4, 112880, Note_on_c, 0, 66, 0
4, 112880, Note_on_c, 0, 62, 0
4, 112880, Note_on_c, 0, 60, 0
4, 112880, Note_on_c, 0, 69, 49
4, 112959, Note_on_c, 0, 69, 0
4, 112959, Note_on_c, 0, 60, 49
4, 112959, Note_on_c, 0, 62, 49
4, 112959, Note_on_c, 0, 66, 49
4, 113040, Note_on_c, 0, 66, 0
4, 113040, Note_on_c, 0, 62, 0
4, 113040, Note_on_c, 0, 60, 0
4, 113040, Note_on_c, 0, 69, 49
4, 113120, Note_on_c, 0, 69, 0
4, 113120, Note_on_c, 0, 60, 49
4, 113120, Note_on_c, 0, 62, 49
4, 113120, Note_on_c, 0, 66, 49
4, 113199, Note_on_c, 0, 66, 0
4, 113199, Note_on_c, 0, 62, 0
4, 113199, Note_on_c, 0, 60, 0
4, 113199, Control_c, 0, 64, 0
4, 113199, Note_on_c, 0, 69, 49
4, 113280, Note_on_c, 0, 69, 0
4, 113280, Control_c, 0, 64, 127
4, 113280, Note_on_c, 0, 61, 49
4, 113280, Note_on_c, 0, 65, 49
4, 113360, Note_on_c, 0, 65, 0
4, 113360, Note_on_c, 0, 61, 0
4, 113360, Note_on_c, 0, 68, 49
4, 113439, Note_on_c, 0, 68, 0
4, 113439, Note_on_c, 0, 61, 49
4, 113439, Note_on_c, 0, 65, 49
4, 113520, Note_on_c, 0, 65, 0
4, 113520, Note_on_c, 0, 61, 0
4, 113520, Note_on_c, 0, 68, 49
4, 113600, Note_on_c, 0, 68, 0
4, 113600, Note_on_c, 0, 61, 49
4, 113600, Note_on_c, 0, 65, 49
4, 113679, Note_on_c, 0, 65, 0
4, 113679, Note_on_c, 0, 61, 0
4, 113679, Note_on_c, 0, 68, 49
4, 113760, Note_on_c, 0, 68, 0
4, 113760, Note_on_c, 0, 61, 49
4, 113760, Note_on_c, 0, 65, 49
4, 113840, Note_on_c, 0, 65, 0
4, 113840, Note_on_c, 0, 61, 0
4, 113840, Note_on_c, 0, 68, 49
4, 113919, Note_on_c, 0, 68, 0
4, 113919, Note_on_c, 0, 61, 49
4, 113919, Note_on_c, 0, 65, 49
4, 114000, Note_on_c, 0, 65, 0
4, 114000, Note_on_c, 0, 61, 0
4, 114000, Note_on_c, 0, 68, 49
4, 114080, Note_on_c, 0, 68, 0
4, 114080, Note_on_c, 0, 61, 49
4, 114080, Note_on_c, 0, 65, 49
4, 114159, Note_on_c, 0, 65, 0
4, 114159, Note_on_c, 0, 61, 0
4, 114159, Control_c, 0, 64, 0
4, 114159, Note_on_c, 0, 68, 49
4, 114240, Note_on_c, 0, 68, 0
4, 114240, Control_c, 0, 64, 127
4, 114240, Note_on_c, 0, 61, 49
4, 114240, Note_on_c, 0, 65, 49
4, 114320, Note_on_c, 0, 65, 0
4, 114320, Note_on_c, 0, 61, 0
4, 114320, Note_on_c, 0, 68, 49
4, 114399, Note_on_c, 0, 68, 0
4, 114399, Note_on_c, 0, 61, 49
4, 114399, Note_on_c, 0, 65, 49
4, 114480, Note_on_c, 0, 65, 0
4, 114480, Note_on_c, 0, 61, 0
4, 114480, Note_on_c, 0, 68, 49
4, 114560, Note_on_c, 0, 68, 0
4, 114560, Note_on_c, 0, 61, 49
4, 114560, Note_on_c, 0, 65, 49
4, 114639, Note_on_c, 0, 65, 0
4, 114639, Note_on_c, 0, 61, 0
4, 114639, Note_on_c, 0, 68, 49
4, 114720, Note_on_c, 0, 68, 0
4, 114720, Note_on_c, 0, 61, 49
4, 114720, Note_on_c, 0, 65, 49
4, 114800, Note_on_c, 0, 65, 0
4, 114800, Note_on_c, 0, 61, 0
4, 114800, Note_on_c, 0, 68, 49
4, 114879, Note_on_c, 0, 68, 0
4, 114879, Note_on_c, 0, 61, 49
4, 114879, Note_on_c, 0, 65, 49
4, 114960, Note_on_c, 0, 65, 0
4, 114960, Note_on_c, 0, 61, 0
4, 114960, Note_on_c, 0, 68, 49
4, 115040, Note_on_c, 0, 68, 0
4, 115040, Note_on_c, 0, 61, 49
4, 115040, Note_on_c, 0, 65, 49
4, 115119, Note_on_c, 0, 65, 0
4, 115119, Note_on_c, 0, 61, 0
4, 115119, Control_c, 0, 64, 0
4, 115119, Note_on_c, 0, 68, 49
4, 115200, Note_on_c, 0, 68, 0
4, 115200, Control_c, 0, 64, 127
4, 115200, Note_on_c, 0, 61, 49
4, 115200, Note_on_c, 0, 65, 49
4, 115280, Note_on_c, 0, 65, 0
4, 115280, Note_on_c, 0, 61, 0
4, 115280, Note_on_c, 0, 68, 49
4, 115359, Note_on_c, 0, 68, 0
4, 115359, Note_on_c, 0, 61, 49
4, 115359, Note_on_c, 0, 65, 49
4, 115440, Note_on_c, 0, 65, 0
4, 115440, Note_on_c, 0, 61, 0
4, 115440, Note_on_c, 0, 68, 49
4, 115520, Note_on_c, 0, 68, 0
4, 115520, Note_on_c, 0, 61, 49
4, 115520, Note_on_c, 0, 65, 49
4, 115599, Note_on_c, 0, 65, 0
4, 115599, Note_on_c, 0, 61, 0
4, 115599, Note_on_c, 0, 68, 49
4, 115680, Note_on_c, 0, 68, 0
4, 115680, Note_on_c, 0, 61, 49
4, 115680, Note_on_c, 0, 65, 49
4, 115760, Note_on_c, 0, 65, 0
4, 115760, Note_on_c, 0, 61, 0
4, 115760, Note_on_c, 0, 68, 49
4, 115839, Note_on_c, 0, 68, 0
4, 115839, Note_on_c, 0, 61, 49
4, 115839, Note_on_c, 0, 65, 49
4, 115920, Note_on_c, 0, 65, 0
4, 115920, Note_on_c, 0, 61, 0
4, 115920, Note_on_c, 0, 68, 49
4, 116000, Note_on_c, 0, 68, 0
4, 116000, Note_on_c, 0, 61, 49
4, 116000, Note_on_c, 0, 65, 49
4, 116079, Note_on_c, 0, 65, 0
4, 116079, Note_on_c, 0, 61, 0
4, 116079, Control_c, 0, 64, 0
4, 116079, Note_on_c, 0, 68, 49
4, 116160, Note_on_c, 0, 68, 0
4, 116160, Control_c, 0, 64, 127
4, 116160, Note_on_c, 0, 61, 49
4, 116160, Note_on_c, 0, 65, 49
4, 116240, Note_on_c, 0, 65, 0
4, 116240, Note_on_c, 0, 61, 0
4, 116240, Note_on_c, 0, 68, 49
4, 116319, Note_on_c, 0, 68, 0
4, 116319, Note_on_c, 0, 61, 49
4, 116319, Note_on_c, 0, 65, 49
4, 116400, Note_on_c, 0, 65, 0
4, 116400, Note_on_c, 0, 61, 0
4, 116400, Note_on_c, 0, 68, 49
4, 116480, Note_on_c, 0, 68, 0
4, 116480, Note_on_c, 0, 61, 49
4, 116480, Note_on_c, 0, 65, 49
4, 116559, Note_on_c, 0, 65, 0
4, 116559, Note_on_c, 0, 61, 0
4, 116559, Note_on_c, 0, 68, 49
4, 116640, Note_on_c, 0, 68, 0
4, 116640, Note_on_c, 0, 61, 49
4, 116640, Note_on_c, 0, 65, 49
4, 116720, Note_on_c, 0, 65, 0
4, 116720, Note_on_c, 0, 61, 0
4, 116720, Note_on_c, 0, 68, 49
4, 116799, Note_on_c, 0, 68, 0
4, 116799, Note_on_c, 0, 61, 49
4, 116799, Note_on_c, 0, 65, 49
4, 116880, Note_on_c, 0, 65, 0
4, 116880, Note_on_c, 0, 61, 0
4, 116880, Note_on_c, 0, 68, 49
4, 116960, Note_on_c, 0, 68, 0
4, 116960, Note_on_c, 0, 61, 49
4, 116960, Note_on_c, 0, 65, 49
4, 117039, Note_on_c, 0, 65, 0
4, 117039, Note_on_c, 0, 61, 0
4, 117039, Control_c, 0, 64, 0
4, 117039, Note_on_c, 0, 68, 49
4, 117120, Note_on_c, 0, 68, 0
4, 117120, Control_c, 0, 64, 127
4, 117120, Note_on_c, 0, 61, 49
4, 117120, Note_on_c, 0, 65, 49
4, 117200, Note_on_c, 0, 65, 0
4, 117200, Note_on_c, 0, 61, 0
4, 117200, Note_on_c, 0, 68, 49
4, 117279, Note_on_c, 0, 68, 0
4, 117279, Note_on_c, 0, 61, 49
4, 117279, Note_on_c, 0, 65, 49
4, 117360, Note_on_c, 0, 65, 0
4, 117360, Note_on_c, 0, 61, 0
4, 117360, Note_on_c, 0, 68, 49
4, 117440, Note_on_c, 0, 68, 0
4, 117440, Note_on_c, 0, 61, 49
4, 117440, Note_on_c, 0, 65, 49
4, 117519, Note_on_c, 0, 65, 0
4, 117519, Note_on_c, 0, 61, 0
4, 117519, Note_on_c, 0, 68, 49
4, 117600, Note_on_c, 0, 68, 0
4, 117600, Note_on_c, 0, 61, 49
4, 117600, Note_on_c, 0, 65, 49
4, 117680, Note_on_c, 0, 65, 0
4, 117680, Note_on_c, 0, 61, 0
4, 117680, Note_on_c, 0, 68, 49
4, 117759, Note_on_c, 0, 68, 0
4, 117759, Note_on_c, 0, 61, 49
4, 117759, Note_on_c, 0, 65, 49
4, 117840, Note_on_c, 0, 65, 0
4, 117840, Note_on_c, 0, 61, 0
4, 117840, Note_on_c, 0, 68, 49
4, 117920, Note_on_c, 0, 68, 0
4, 117920, Note_on_c, 0, 61, 49
4, 117920, Note_on_c, 0, 65, 49
4, 117999, Note_on_c, 0, 65, 0
4, 117999, Note_on_c, 0, 61, 0
4, 117999, Control_c, 0, 64, 0
4, 117999, Note_on_c, 0, 68, 49
4, 118080, Note_on_c, 0, 68, 0
4, 118080, Control_c, 0, 64, 127
4, 118080, Note_on_c, 0, 61, 49
4, 118080, Note_on_c, 0, 65, 49
4, 118160, Note_on_c, 0, 65, 0
4, 118160, Note_on_c, 0, 61, 0
4, 118160, Note_on_c, 0, 68, 49
4, 118239, Note_on_c, 0, 68, 0
4, 118239, Note_on_c, 0, 61, 49
4, 118239, Note_on_c, 0, 65, 49
4, 118320, Note_on_c, 0, 65, 0
4, 118320, Note_on_c, 0, 61, 0
4, 118320, Note_on_c, 0, 68, 49
4, 118400, Note_on_c, 0, 68, 0
4, 118400, Note_on_c, 0, 61, 49
4, 118400, Note_on_c, 0, 65, 49
4, 118479, Note_on_c, 0, 65, 0
4, 118479, Note_on_c, 0, 61, 0
4, 118479, Note_on_c, 0, 68, 49
4, 118560, Note_on_c, 0, 68, 0
4, 118560, Note_on_c, 0, 61, 49
4, 118560, Note_on_c, 0, 65, 49
4, 118640, Note_on_c, 0, 65, 0
4, 118640, Note_on_c, 0, 61, 0
4, 118640, Note_on_c, 0, 68, 49
4, 118719, Note_on_c, 0, 68, 0
4, 118719, Note_on_c, 0, 61, 49
4, 118719, Note_on_c, 0, 65, 49
4, 118800, Note_on_c, 0, 65, 0
4, 118800, Note_on_c, 0, 61, 0
4, 118800, Note_on_c, 0, 68, 49
4, 118880, Note_on_c, 0, 68, 0
4, 118880, Note_on_c, 0, 61, 49
4, 118880, Note_on_c, 0, 65, 49
4, 118959, Note_on_c, 0, 65, 0
4, 118959, Note_on_c, 0, 61, 0
4, 118959, Control_c, 0, 64, 0
4, 118959, Note_on_c, 0, 68, 49
4, 119040, Note_on_c, 0, 68, 0
4, 119040, Control_c, 0, 64, 127
4, 119040, Note_on_c, 0, 60, 49
4, 119040, Note_on_c, 0, 62, 49
4, 119040, Note_on_c, 0, 66, 49
4, 119120, Note_on_c, 0, 66, 0
4, 119120, Note_on_c, 0, 62, 0
4, 119120, Note_on_c, 0, 60, 0
4, 119120, Note_on_c, 0, 69, 49
4, 119199, Note_on_c, 0, 69, 0
4, 119199, Note_on_c, 0, 60, 49
4, 119199, Note_on_c, 0, 62, 49
4, 119199, Note_on_c, 0, 66, 49
4, 119280, Note_on_c, 0, 66, 0
4, 119280, Note_on_c, 0, 62, 0
4, 119280, Note_on_c, 0, 60, 0
4, 119280, Note_on_c, 0, 69, 49
4, 119360, Note_on_c, 0, 69, 0
4, 119360, Note_on_c, 0, 60, 49
4, 119360, Note_on_c, 0, 62, 49
4, 119360, Note_on_c, 0, 66, 49
4, 119439, Note_on_c, 0, 66, 0
4, 119439, Note_on_c, 0, 62, 0
4, 119439, Note_on_c, 0, 60, 0
4, 119439, Note_on_c, 0, 69, 49
4, 119520, Note_on_c, 0, 69, 0
4, 119520, Note_on_c, 0, 60, 49
4, 119520, Note_on_c, 0, 62, 49
4, 119520, Note_on_c, 0, 66, 49
4, 119600, Note_on_c, 0, 66, 0
4, 119600, Note_on_c, 0, 62, 0
4, 119600, Note_on_c, 0, 60, 0
4, 119600, Note_on_c, 0, 69, 49
4, 119679, Note_on_c, 0, 69, 0
4, 119679, Note_on_c, 0, 60, 49
4, 119679, Note_on_c, 0, 62, 49
4, 119679, Note_on_c, 0, 66, 49
4, 119760, Note_on_c, 0, 66, 0
4, 119760, Note_on_c, 0, 62, 0
4, 119760, Note_on_c, 0, 60, 0
4, 119760, Note_on_c, 0, 69, 49
4, 119840, Note_on_c, 0, 69, 0
4, 119840, Note_on_c, 0, 60, 49
4, 119840, Note_on_c, 0, 62, 49
4, 119840, Note_on_c, 0, 66, 49
4, 119919, Note_on_c, 0, 66, 0
4, 119919, Note_on_c, 0, 62, 0
4, 119919, Note_on_c, 0, 60, 0
4, 119919, Control_c, 0, 64, 0
4, 119919, Note_on_c, 0, 69, 49
4, 120000, Note_on_c, 0, 69, 0
4, 120000, Control_c, 0, 64, 127
4, 120000, Note_on_c, 0, 60, 49
4, 120000, Note_on_c, 0, 62, 49
4, 120000, Note_on_c, 0, 66, 49
4, 120080, Note_on_c, 0, 66, 0
4, 120080, Note_on_c, 0, 62, 0
4, 120080, Note_on_c, 0, 60, 0
4, 120080, Note_on_c, 0, 69, 49
4, 120159, Note_on_c, 0, 69, 0
4, 120159, Note_on_c, 0, 60, 49
4, 120159, Note_on_c, 0, 62, 49
4, 120159, Note_on_c, 0, 66, 49
4, 120240, Note_on_c, 0, 66, 0
4, 120240, Note_on_c, 0, 62, 0
4, 120240, Note_on_c, 0, 60, 0
4, 120240, Note_on_c, 0, 69, 49
4, 120320, Note_on_c, 0, 69, 0
4, 120320, Note_on_c, 0, 60, 49
4, 120320, Note_on_c, 0, 62, 49
4, 120320, Note_on_c, 0, 66, 49
4, 120399, Note_on_c, 0, 66, 0
4, 120399, Note_on_c, 0, 62, 0
4, 120399, Note_on_c, 0, 60, 0
4, 120399, Note_on_c, 0, 69, 49
4, 120480, Note_on_c, 0, 69, 0
4, 120480, Note_on_c, 0, 60, 49
4, 120480, Note_on_c, 0, 62, 49
4, 120480, Note_on_c, 0, 66, 49
4, 120560, Note_on_c, 0, 66, 0
4, 120560, Note_on_c, 0, 62, 0
4, 120560, Note_on_c, 0, 60, 0
4, 120560, Note_on_c, 0, 69, 49
4, 120639, Note_on_c, 0, 69, 0
4, 120639, Note_on_c, 0, 60, 49
4, 120639, Note_on_c, 0, 62, 49
4, 120639, Note_on_c, 0, 66, 49
4, 120720, Note_on_c, 0, 66, 0
4, 120720, Note_on_c, 0, 62, 0
4, 120720, Note_on_c, 0, 60, 0
4, 120720, Note_on_c, 0, 69, 49
4, 120800, Note_on_c, 0, 69, 0
4, 120800, Note_on_c, 0, 60, 49
4, 120800, Note_on_c, 0, 62, 49
4, 120800, Note_on_c, 0, 66, 49
4, 120879, Note_on_c, 0, 66, 0
4, 120879, Note_on_c, 0, 62, 0
4, 120879, Note_on_c, 0, 60, 0
4, 120879, Control_c, 0, 64, 0
4, 120879, Note_on_c, 0, 69, 49
4, 120960, Note_on_c, 0, 69, 0
4, 120960, Control_c, 0, 64, 127
4, 120960, Note_on_c, 0, 61, 49
4, 120960, Note_on_c, 0, 65, 49
4, 121040, Note_on_c, 0, 65, 0
4, 121040, Note_on_c, 0, 61, 0
4, 121040, Note_on_c, 0, 68, 49
4, 121119, Note_on_c, 0, 68, 0
4, 121119, Note_on_c, 0, 61, 49
4, 121119, Note_on_c, 0, 65, 49
4, 121200, Note_on_c, 0, 65, 0
4, 121200, Note_on_c, 0, 61, 0
4, 121200, Note_on_c, 0, 68, 49
4, 121280, Note_on_c, 0, 68, 0
4, 121280, Note_on_c, 0, 61, 49
4, 121280, Note_on_c, 0, 65, 49
4, 121359, Note_on_c, 0, 65, 0
4, 121359, Note_on_c, 0, 61, 0
4, 121359, Note_on_c, 0, 68, 49
4, 121440, Note_on_c, 0, 68, 0
4, 121440, Note_on_c, 0, 61, 49
4, 121440, Note_on_c, 0, 65, 49
4, 121520, Note_on_c, 0, 65, 0
4, 121520, Note_on_c, 0, 61, 0
4, 121520, Note_on_c, 0, 68, 49
4, 121599, Note_on_c, 0, 68, 0
4, 121599, Note_on_c, 0, 61, 49
4, 121599, Note_on_c, 0, 65, 49
4, 121680, Note_on_c, 0, 65, 0
4, 121680, Note_on_c, 0, 61, 0
4, 121680, Note_on_c, 0, 68, 49
4, 121760, Note_on_c, 0, 68, 0
4, 121760, Note_on_c, 0, 61, 49
4, 121760, Note_on_c, 0, 65, 49
4, 121839, Note_on_c, 0, 65, 0
4, 121839, Note_on_c, 0, 61, 0
4, 121839, Control_c, 0, 64, 0
4, 121839, Note_on_c, 0, 68, 49
4, 121920, Note_on_c, 0, 68, 0
4, 121920, Control_c, 0, 64, 127
4, 121920, Note_on_c, 0, 61, 49
4, 121920, Note_on_c, 0, 65, 49
4, 122000, Note_on_c, 0, 65, 0
4, 122000, Note_on_c, 0, 61, 0
4, 122000, Note_on_c, 0, 68, 49
4, 122079, Note_on_c, 0, 68, 0
4, 122079, Note_on_c, 0, 61, 49
4, 122079, Note_on_c, 0, 65, 49
4, 122160, Note_on_c, 0, 65, 0
4, 122160, Note_on_c, 0, 61, 0
4, 122160, Note_on_c, 0, 68, 49
4, 122240, Note_on_c, 0, 68, 0
4, 122240, Note_on_c, 0, 61, 49
4, 122240, Note_on_c, 0, 65, 49
4, 122319, Note_on_c, 0, 65, 0
4, 122319, Note_on_c, 0, 61, 0
4, 122319, Note_on_c, 0, 68, 49
4, 122400, Note_on_c, 0, 68, 0
4, 122400, Note_on_c, 0, 61, 49
4, 122400, Note_on_c, 0, 65, 49
4, 122480, Note_on_c, 0, 65, 0
4, 122480, Note_on_c, 0, 61, 0
4, 122480, Note_on_c, 0, 68, 49
4, 122559, Note_on_c, 0, 68, 0
4, 122559, Note_on_c, 0, 61, 49
4, 122559, Note_on_c, 0, 65, 49
4, 122640, Note_on_c, 0, 65, 0
4, 122640, Note_on_c, 0, 61, 0
4, 122640, Note_on_c, 0, 68, 49
4, 122720, Note_on_c, 0, 68, 0
4, 122720, Note_on_c, 0, 61, 49
4, 122720, Note_on_c, 0, 65, 49
4, 122799, Note_on_c, 0, 65, 0
4, 122799, Note_on_c, 0, 61, 0
4, 122799, Control_c, 0, 64, 0
4, 122799, Note_on_c, 0, 68, 49
4, 122880, Note_on_c, 0, 68, 0
4, 122880, Control_c, 0, 64, 127
4, 122880, Note_on_c, 0, 61, 49
4, 122880, Note_on_c, 0, 65, 49
4, 122960, Note_on_c, 0, 65, 0
4, 122960, Note_on_c, 0, 61, 0
4, 122960, Note_on_c, 0, 68, 49
4, 123039, Note_on_c, 0, 68, 0
4, 123039, Note_on_c, 0, 61, 49
4, 123039, Note_on_c, 0, 65, 49
4, 123120, Note_on_c, 0, 65, 0
4, 123120, Note_on_c, 0, 61, 0
4, 123120, Note_on_c, 0, 68, 49
4, 123200, Note_on_c, 0, 68, 0
4, 123200, Note_on_c, 0, 61, 49
4, 123200, Note_on_c, 0, 65, 49
4, 123279, Note_on_c, 0, 65, 0
4, 123279, Note_on_c, 0, 61, 0
4, 123279, Note_on_c, 0, 68, 49
4, 123360, Note_on_c, 0, 68, 0
4, 123360, Note_on_c, 0, 61, 49
4, 123360, Note_on_c, 0, 65, 49
4, 123440, Note_on_c, 0, 65, 0
4, 123440, Note_on_c, 0, 61, 0
4, 123440, Note_on_c, 0, 68, 49
4, 123519, Note_on_c, 0, 68, 0
4, 123519, Note_on_c, 0, 61, 49
4, 123519, Note_on_c, 0, 65, 49
4, 123600, Note_on_c, 0, 65, 0
4, 123600, Note_on_c, 0, 61, 0
4, 123600, Note_on_c, 0, 68, 49
4, 123680, Note_on_c, 0, 68, 0
4, 123680, Note_on_c, 0, 61, 49
4, 123680, Note_on_c, 0, 65, 49
4, 123759, Note_on_c, 0, 65, 0
4, 123759, Note_on_c, 0, 61, 0
4, 123759, Control_c, 0, 64, 0
4, 123759, Note_on_c, 0, 68, 49
4, 123840, Note_on_c, 0, 68, 0
4, 123840, Control_c, 0, 64, 127
4, 123840, Note_on_c, 0, 61, 49
4, 123840, Note_on_c, 0, 65, 49
4, 123920, Note_on_c, 0, 65, 0
4, 123920, Note_on_c, 0, 61, 0
4, 123920, Note_on_c, 0, 68, 49
4, 123999, Note_on_c, 0, 68, 0
4, 123999, Note_on_c, 0, 61, 49
4, 123999, Note_on_c, 0, 65, 49
4, 124080, Note_on_c, 0, 65, 0
4, 124080, Note_on_c, 0, 61, 0
4, 124080, Note_on_c, 0, 68, 49
4, 124160, Note_on_c, 0, 68, 0
4, 124160, Note_on_c, 0, 61, 49
4, 124160, Note_on_c, 0, 65, 49
4, 124239, Note_on_c, 0, 65, 0
4, 124239, Note_on_c, 0, 61, 0
4, 124239, Note_on_c, 0, 68, 49
4, 124320, Note_on_c, 0, 68, 0
4, 124320, Note_on_c, 0, 61, 49
4, 124320, Note_on_c, 0, 65, 49
4, 124400, Note_on_c, 0, 65, 0
4, 124400, Note_on_c, 0, 61, 0
4, 124400, Note_on_c, 0, 68, 49
4, 124479, Note_on_c, 0, 68, 0
4, 124479, Note_on_c, 0, 61, 49
4, 124479, Note_on_c, 0, 65, 49
4, 124560, Note_on_c, 0, 65, 0
4, 124560, Note_on_c, 0, 61, 0
4, 124560, Note_on_c, 0, 68, 49
4, 124640, Note_on_c, 0, 68, 0
4, 124640, Note_on_c, 0, 61, 49
4, 124640, Note_on_c, 0, 65, 49
4, 124719, Note_on_c, 0, 65, 0
4, 124719, Note_on_c, 0, 61, 0
4, 124719, Control_c, 0, 64, 0
4, 124719, Note_on_c, 0, 68, 49
4, 124800, Note_on_c, 0, 68, 0
4, 124800, Control_c, 0, 64, 127
4, 124800, Note_on_c, 0, 61, 49
4, 124800, Note_on_c, 0, 65, 49
4, 124880, Note_on_c, 0, 65, 0
4, 124880, Note_on_c, 0, 61, 0
4, 124880, Note_on_c, 0, 68, 49
4, 124959, Note_on_c, 0, 68, 0
4, 124959, Note_on_c, 0, 61, 49
4, 124959, Note_on_c, 0, 65, 49
4, 125040, Note_on_c, 0, 65, 0
4, 125040, Note_on_c, 0, 61, 0
4, 125040, Note_on_c, 0, 68, 49
4, 125120, Note_on_c, 0, 68, 0
4, 125120, Note_on_c, 0, 61, 49
4, 125120, Note_on_c, 0, 65, 49
4, 125199, Note_on_c, 0, 65, 0
4, 125199, Note_on_c, 0, 61, 0
4, 125199, Note_on_c, 0, 68, 49
4, 125280, Note_on_c, 0, 68, 0
4, 125280, Note_on_c, 0, 61, 49
4, 125280, Note_on_c, 0, 65, 49
4, 125360, Note_on_c, 0, 65, 0
4, 125360, Note_on_c, 0, 61, 0
4, 125360, Note_on_c, 0, 68, 49
4, 125439, Note_on_c, 0, 68, 0
4, 125439, Note_on_c, 0, 61, 49
4, 125439, Note_on_c, 0, 65, 49
4, 125520, Note_on_c, 0, 65, 0
4, 125520, Note_on_c, 0, 61, 0
4, 125520, Note_on_c, 0, 68, 49
4, 125600, Note_on_c, 0, 68, 0
4, 125600, Note_on_c, 0, 61, 49
4, 125600, Note_on_c, 0, 65, 49
4, 125679, Note_on_c, 0, 65, 0
4, 125679, Note_on_c, 0, 61, 0
4, 125679, Control_c, 0, 64, 0
4, 125679, Note_on_c, 0, 68, 49
4, 125760, Note_on_c, 0, 68, 0
4, 125760, Control_c, 0, 64, 127
4, 125760, Note_on_c, 0, 61, 49
4, 125760, Note_on_c, 0, 65, 49
4, 125840, Note_on_c, 0, 65, 0
4, 125840, Note_on_c, 0, 61, 0
4, 125840, Note_on_c, 0, 68, 49
4, 125919, Note_on_c, 0, 68, 0
4, 125919, Note_on_c, 0, 61, 49
4, 125919, Note_on_c, 0, 65, 49
4, 126000, Note_on_c, 0, 65, 0
4, 126000, Note_on_c, 0, 61, 0
4, 126000, Note_on_c, 0, 68, 49
4, 126080, Note_on_c, 0, 68, 0
4, 126080, Note_on_c, 0, 61, 49
4, 126080, Note_on_c, 0, 65, 49
4, 126159, Note_on_c, 0, 65, 0
4, 126159, Note_on_c, 0, 61, 0
4, 126159, Note_on_c, 0, 68, 49
4, 126240, Note_on_c, 0, 68, 0
4, 126240, Note_on_c, 0, 61, 49
4, 126240, Note_on_c, 0, 65, 49
4, 126320, Note_on_c, 0, 65, 0
4, 126320, Note_on_c, 0, 61, 0
4, 126320, Note_on_c, 0, 68, 49
4, 126399, Note_on_c, 0, 68, 0
4, 126399, Note_on_c, 0, 61, 49
4, 126399, Note_on_c, 0, 65, 49
4, 126480, Note_on_c, 0, 65, 0
4, 126480, Note_on_c, 0, 61, 0
4, 126480, Note_on_c, 0, 68, 49
4, 126560, Note_on_c, 0, 68, 0
4, 126560, Note_on_c, 0, 61, 49
4, 126560, Note_on_c, 0, 65, 49
4, 126639, Note_on_c, 0, 65, 0
4, 126639, Note_on_c, 0, 61, 0
4, 126639, Control_c, 0, 64, 0
4, 126639, Note_on_c, 0, 68, 49
4, 126720, Note_on_c, 0, 68, 0
4, 126720, Control_c, 0, 64, 127
4, 126720, Note_on_c, 0, 61, 49
4, 126720, Note_on_c, 0, 65, 49
4, 126800, Note_on_c, 0, 65, 0
4, 126800, Note_on_c, 0, 61, 0
4, 126800, Note_on_c, 0, 68, 49
4, 126879, Note_on_c, 0, 68, 0
4, 126879, Note_on_c, 0, 61, 49
4, 126879, Note_on_c, 0, 65, 49
4, 126960, Note_on_c, 0, 65, 0
4, 126960, Note_on_c, 0, 61, 0
4, 126960, Note_on_c, 0, 68, 49
4, 127040, Note_on_c, 0, 68, 0
4, 127040, Note_on_c, 0, 61, 49
4, 127040, Note_on_c, 0, 65, 49
4, 127119, Note_on_c, 0, 65, 0
4, 127119, Note_on_c, 0, 61, 0
4, 127119, Note_on_c, 0, 68, 49
4, 127200, Note_on_c, 0, 68, 0
4, 127200, Note_on_c, 0, 61, 49
4, 127200, Note_on_c, 0, 65, 49
4, 127280, Note_on_c, 0, 65, 0
4, 127280, Note_on_c, 0, 61, 0
4, 127280, Note_on_c, 0, 68, 49
4, 127359, Note_on_c, 0, 68, 0
4, 127359, Note_on_c, 0, 61, 49
4, 127359, Note_on_c, 0, 65, 49
4, 127440, Note_on_c, 0, 65, 0
4, 127440, Note_on_c, 0, 61, 0
4, 127440, Note_on_c, 0, 68, 49
4, 127520, Note_on_c, 0, 68, 0
4, 127520, Note_on_c, 0, 61, 49
4, 127520, Note_on_c, 0, 65, 49
4, 127599, Note_on_c, 0, 65, 0
4, 127599, Note_on_c, 0, 61, 0
4, 127599, Control_c, 0, 64, 0
4, 127599, Note_on_c, 0, 68, 49
4, 127680, Note_on_c, 0, 68, 0
4, 127680, Control_c, 0, 64, 127
4, 127680, Note_on_c, 0, 61, 49
4, 127680, Note_on_c, 0, 65, 49
4, 127760, Note_on_c, 0, 65, 0
4, 127760, Note_on_c, 0, 61, 0
4, 127760, Note_on_c, 0, 68, 49
4, 127839, Note_on_c, 0, 68, 0
4, 127839, Note_on_c, 0, 61, 49
4, 127839, Note_on_c, 0, 65, 49
4, 127920, Note_on_c, 0, 65, 0
4, 127920, Note_on_c, 0, 61, 0
4, 127920, Note_on_c, 0, 68, 49
4, 128000, Note_on_c, 0, 68, 0
4, 128000, Note_on_c, 0, 61, 49
4, 128000, Note_on_c, 0, 65, 49
4, 128079, Note_on_c, 0, 65, 0
4, 128079, Note_on_c, 0, 61, 0
4, 128079, Note_on_c, 0, 68, 49
4, 128160, Note_on_c, 0, 68, 0
4, 128160, Note_on_c, 0, 61, 49
4, 128240, Note_on_c, 0, 61, 0
4, 128240, Note_on_c, 0, 65, 49
4, 128319, Note_on_c, 0, 65, 0
4, 128319, Note_on_c, 0, 61, 49
4, 128400, Note_on_c, 0, 61, 0
4, 128400, Note_on_c, 0, 65, 49
4, 128480, Note_on_c, 0, 65, 0
4, 128480, Note_on_c, 0, 61, 49
4, 128559, Note_on_c, 0, 61, 0
4, 128559, Control_c, 0, 64, 0
4, 128559, Note_on_c, 0, 65, 49
4, 128640, Note_on_c, 0, 65, 0
4, 128640, Control_c, 0, 64, 127
4, 128640, Note_on_c, 0, 61, 49
4, 128720, Note_on_c, 0, 61, 0
4, 128720, Note_on_c, 0, 65, 49
4, 128799, Note_on_c, 0, 65, 0
4, 128799, Note_on_c, 0, 61, 49
4, 128880, Note_on_c, 0, 61, 0
4, 128880, Note_on_c, 0, 65, 49
4, 128960, Note_on_c, 0, 65, 0
4, 128960, Note_on_c, 0, 61, 49
4, 129039, Note_on_c, 0, 61, 0
4, 129039, Control_c, 0, 64, 0
4, 129039, Note_on_c, 0, 65, 49
4, 129120, Note_on_c, 0, 65, 0
4, 129120, Control_c, 0, 64, 127
4, 129120, Note_on_c, 0, 56, 49
4, 129200, Note_on_c, 0, 56, 0
4, 129200, Note_on_c, 0, 61, 49
4, 129279, Note_on_c, 0, 61, 0
4, 129279, Note_on_c, 0, 56, 49
4, 129360, Note_on_c, 0, 56, 0
4, 129360, Note_on_c, 0, 61, 49
4, 129440, Note_on_c, 0, 61, 0
4, 129440, Note_on_c, 0, 56, 49
4, 129519, Note_on_c, 0, 56, 0
4, 129519, Control_c, 0, 64, 0
4, 129519, Note_on_c, 0, 61, 49
4, 129600, Note_on_c, 0, 61, 0
4, 129600, Control_c, 0, 64, 127
4, 129600, Note_on_c, 0, 53, 49
4, 129680, Note_on_c, 0, 53, 0
4, 129680, Note_on_c, 0, 56, 49
4, 129759, Note_on_c, 0, 56, 0
4, 129759, Note_on_c, 0, 53, 49
4, 129840, Note_on_c, 0, 53, 0
4, 129840, Note_on_c, 0, 56, 49
4, 129920, Note_on_c, 0, 56, 0
4, 129920, Note_on_c, 0, 53, 49
4, 129999, Note_on_c, 0, 53, 0
4, 129999, Control_c, 0, 64, 0
4, 129999, Note_on_c, 0, 56, 49
4, 130080, Note_on_c, 0, 56, 0
4, 130080, Control_c, 0, 64, 127
4, 130080, Note_on_c, 0, 49, 49
4, 130160, Note_on_c, 0, 49, 0
4, 130160, Note_on_c, 0, 53, 49
4, 130239, Note_on_c, 0, 53, 0
4, 130239, Note_on_c, 0, 49, 49
4, 130320, Note_on_c, 0, 49, 0
4, 130320, Note_on_c, 0, 53, 49
4, 130400, Note_on_c, 0, 53, 0
4, 130400, Note_on_c, 0, 49, 49
4, 130479, Note_on_c, 0, 49, 0
4, 130479, Control_c, 0, 64, 0
4, 130479, Note_on_c, 0, 53, 49
4, 130560, Note_on_c, 0, 53, 0
4, 130560, Note_on_c, 0, 45, 49
4, 130560, Note_on_c, 0, 48, 49
4, 130800, Note_on_c, 0, 48, 0
4, 130800, Note_on_c, 0, 45, 0
4, 130800, Control_c, 0, 64, 127
4, 130800, Note_on_c, 0, 33, 75
4, 130860, Note_on_c, 0, 33, 0
4, 130860, Note_on_c, 0, 45, 75
4, 130920, Note_on_c, 0, 45, 0
4, 130920, Note_on_c, 0, 33, 49
4, 130980, Note_on_c, 0, 33, 0
4, 130980, Note_on_c, 0, 45, 49
4, 131040, Note_on_c, 0, 45, 0
4, 131040, Note_on_c, 0, 33, 49
4, 131120, Note_on_c, 0, 33, 0
4, 131120, Note_on_c, 0, 45, 49
4, 131199, Note_on_c, 0, 45, 0
4, 131199, Note_on_c, 0, 33, 49
4, 131280, Note_on_c, 0, 33, 0
4, 131280, Note_on_c, 0, 45, 49
4, 131360, Note_on_c, 0, 45, 0
4, 131360, Note_on_c, 0, 33, 49
4, 131439, Note_on_c, 0, 33, 0
4, 131439, Note_on_c, 0, 45, 49
4, 131520, Note_on_c, 0, 45, 0
4, 131520, Note_on_c, 0, 33, 49
4, 131600, Note_on_c, 0, 33, 0
4, 131600, Note_on_c, 0, 45, 49
4, 131679, Note_on_c, 0, 45, 0
4, 131679, Note_on_c, 0, 33, 49
4, 131760, Note_on_c, 0, 33, 0
4, 131760, Note_on_c, 0, 45, 49
4, 131840, Note_on_c, 0, 45, 0
4, 131840, Note_on_c, 0, 33, 49
4, 131919, Note_on_c, 0, 33, 0
4, 131919, Note_on_c, 0, 45, 49
4, 132000, Note_on_c, 0, 45, 0
4, 132000, Note_on_c, 0, 33, 49
4, 132080, Note_on_c, 0, 33, 0
4, 132080, Note_on_c, 0, 45, 49
4, 132159, Note_on_c, 0, 45, 0
4, 132159, Note_on_c, 0, 33, 49
4, 132240, Note_on_c, 0, 33, 0
4, 132240, Note_on_c, 0, 45, 49
4, 132320, Note_on_c, 0, 45, 0
4, 132320, Note_on_c, 0, 33, 49
4, 132399, Note_on_c, 0, 33, 0
4, 132399, Control_c, 0, 64, 0
4, 132399, Note_on_c, 0, 45, 49
4, 132480, Note_on_c, 0, 45, 0
4, 132480, Control_c, 0, 64, 127
4, 132480, Note_on_c, 0, 33, 49
4, 132560, Note_on_c, 0, 33, 0
4, 132560, Note_on_c, 0, 45, 49
4, 132639, Note_on_c, 0, 45, 0
4, 132639, Note_on_c, 0, 33, 49
4, 132720, Note_on_c, 0, 33, 0
4, 132720, Note_on_c, 0, 45, 49
4, 132800, Note_on_c, 0, 45, 0
4, 132800, Note_on_c, 0, 33, 49
4, 132879, Note_on_c, 0, 33, 0
4, 132879, Note_on_c, 0, 45, 49
4, 132960, Note_on_c, 0, 45, 0
4, 132960, Note_on_c, 0, 33, 49
4, 133040, Note_on_c, 0, 33, 0
4, 133040, Note_on_c, 0, 45, 49
4, 133119, Note_on_c, 0, 45, 0
4, 133119, Note_on_c, 0, 33, 49
4, 133200, Note_on_c, 0, 33, 0
4, 133200, Note_on_c, 0, 45, 49
4, 133280, Note_on_c, 0, 45, 0
4, 133280, Note_on_c, 0, 33, 49
4, 133359, Note_on_c, 0, 33, 0
4, 133359, Note_on_c, 0, 45, 49
4, 133440, Note_on_c, 0, 45, 0
4, 133440, Note_on_c, 0, 33, 49
4, 133520, Note_on_c, 0, 33, 0
4, 133520, Note_on_c, 0, 45, 49
4, 133599, Note_on_c, 0, 45, 0
4, 133599, Note_on_c, 0, 33, 49
4, 133680, Note_on_c, 0, 33, 0
4, 133680, Note_on_c, 0, 45, 49
4, 133760, Note_on_c, 0, 45, 0
4, 133760, Note_on_c, 0, 33, 49
4, 133839, Note_on_c, 0, 33, 0
4, 133839, Note_on_c, 0, 45, 49
4, 133920, Note_on_c, 0, 45, 0
4, 133920, Note_on_c, 0, 33, 49
4, 134000, Note_on_c, 0, 33, 0
4, 134000, Note_on_c, 0, 45, 49
4, 134079, Note_on_c, 0, 45, 0
4, 134079, Note_on_c, 0, 33, 49
4, 134160, Note_on_c, 0, 33, 0
4, 134160, Note_on_c, 0, 45, 49
4, 134240, Note_on_c, 0, 45, 0
4, 134240, Note_on_c, 0, 33, 49
4, 134319, Note_on_c, 0, 33, 0
4, 134319, Control_c, 0, 64, 0
4, 134319, Note_on_c, 0, 45, 49
4, 134400, Note_on_c, 0, 45, 0
4, 134400, Note_on_c, 0, 54, 62
4, 134400, Note_on_c, 0, 57, 62
4, 134447, Note_on_c, 0, 57, 0
4, 134447, Note_on_c, 0, 54, 0
4, 134640, Note_on_c, 0, 62, 62
4, 134687, Note_on_c, 0, 62, 0
4, 134880, Note_on_c, 0, 54, 62
4, 134880, Note_on_c, 0, 57, 62
4, 134927, Note_on_c, 0, 57, 0
4, 134927, Note_on_c, 0, 54, 0
4, 135120, Note_on_c, 0, 62, 62
4, 135167, Note_on_c, 0, 62, 0
4, 135360, Note_on_c, 0, 55, 62
4, 135360, Note_on_c, 0, 58, 62
4, 135407, Note_on_c, 0, 58, 0
4, 135407, Note_on_c, 0, 55, 0
4, 135600, Note_on_c, 0, 64, 62
4, 135647, Note_on_c, 0, 64, 0
4, 135840, Note_on_c, 0, 55, 62
4, 135840, Note_on_c, 0, 58, 62
4, 135887, Note_on_c, 0, 58, 0
4, 135887, Note_on_c, 0, 55, 0
4, 136080, Note_on_c, 0, 64, 62
4, 136127, Note_on_c, 0, 64, 0
4, 136320, Note_on_c, 0, 54, 62
4, 136320, Note_on_c, 0, 57, 62
4, 136367, Note_on_c, 0, 57, 0
4, 136367, Note_on_c, 0, 54, 0
4, 136560, Note_on_c, 0, 62, 62
4, 136607, Note_on_c, 0, 62, 0
4, 136800, Note_on_c, 0, 54, 62
4, 136800, Note_on_c, 0, 57, 62
4, 136847, Note_on_c, 0, 57, 0
4, 136847, Note_on_c, 0, 54, 0
4, 137040, Note_on_c, 0, 62, 62
4, 137087, Note_on_c, 0, 62, 0
4, 137280, Note_on_c, 0, 55, 62
4, 137280, Note_on_c, 0, 58, 62
4, 137327, Note_on_c, 0, 58, 0
4, 137327, Note_on_c, 0, 55, 0
4, 137520, Note_on_c, 0, 64, 62
4, 137567, Note_on_c, 0, 64, 0
4, 137760, Note_on_c, 0, 55, 62
4, 137760, Note_on_c, 0, 58, 62
4, 137807, Note_on_c, 0, 58, 0
4, 137807, Note_on_c, 0, 55, 0
4, 138000, Note_on_c, 0, 64, 62
4, 138047, Note_on_c, 0, 64, 0
4, 138240, Note_on_c, 0, 54, 62
4, 138240, Note_on_c, 0, 57, 62
4, 138287, Note_on_c, 0, 57, 0
4, 138287, Note_on_c, 0, 54, 0
4, 138480, Note_on_c, 0, 62, 62
4, 138527, Note_on_c, 0, 62, 0
4, 138720, Note_on_c, 0, 54, 62
4, 138720, Note_on_c, 0, 57, 62
4, 138767, Note_on_c, 0, 57, 0
4, 138767, Note_on_c, 0, 54, 0
4, 138960, Note_on_c, 0, 62, 62
4, 139007, Note_on_c, 0, 62, 0
4, 139200, Note_on_c, 0, 52, 62
4, 139200, Note_on_c, 0, 55, 62
4, 139247, Note_on_c, 0, 55, 0
4, 139247, Note_on_c, 0, 52, 0
4, 139440, Note_on_c, 0, 61, 62
4, 139440, Note_on_c, 0, 64, 62
4, 139487, Note_on_c, 0, 64, 0
4, 139487, Note_on_c, 0, 61, 0
4, 139680, Note_on_c, 0, 52, 62
4, 139680, Note_on_c, 0, 55, 62
4, 139727, Note_on_c, 0, 55, 0
4, 139727, Note_on_c, 0, 52, 0
4, 139920, Note_on_c, 0, 61, 62
4, 139920, Note_on_c, 0, 64, 62
4, 139967, Note_on_c, 0, 64, 0
4, 139967, Note_on_c, 0, 61, 0
4, 140160, Note_on_c, 0, 50, 62
4, 140160, Note_on_c, 0, 54, 62
4, 140207, Note_on_c, 0, 54, 0
4, 140207, Note_on_c, 0, 50, 0
4, 140400, Note_on_c, 0, 59, 62
4, 140400, Note_on_c, 0, 62, 62
4, 140447, Note_on_c, 0, 62, 0
4, 140447, Note_on_c, 0, 59, 0
4, 140640, Note_on_c, 0, 50, 62
4, 140640, Note_on_c, 0, 54, 62
4, 140687, Note_on_c, 0, 54, 0
4, 140687, Note_on_c, 0, 50, 0
4, 140880, Note_on_c, 0, 59, 62
4, 140880, Note_on_c, 0, 62, 62
4, 140927, Note_on_c, 0, 62, 0
4, 140927, Note_on_c, 0, 59, 0
4, 141120, Note_on_c, 0, 48, 62
4, 141120, Note_on_c, 0, 51, 62
4, 141167, Note_on_c, 0, 51, 0
4, 141167, Note_on_c, 0, 48, 0
4, 141360, Note_on_c, 0, 57, 62
4, 141360, Note_on_c, 0, 60, 62
4, 141407, Note_on_c, 0, 60, 0
4, 141407, Note_on_c, 0, 57, 0
4, 141600, Note_on_c, 0, 48, 62
4, 141600, Note_on_c, 0, 51, 62
4, 141647, Note_on_c, 0, 51, 0
4, 141647, Note_on_c, 0, 48, 0
4, 141840, Note_on_c, 0, 57, 62
4, 141840, Note_on_c, 0, 60, 62
4, 141887, Note_on_c, 0, 60, 0
4, 141887, Note_on_c, 0, 57, 0
4, 142080, Note_on_c, 0, 46, 62
4, 142080, Note_on_c, 0, 49, 62
4, 142127, Note_on_c, 0, 49, 0
4, 142127, Note_on_c, 0, 46, 0
4, 142320, Note_on_c, 0, 55, 62
4, 142320, Note_on_c, 0, 58, 62
4, 142367, Note_on_c, 0, 58, 0
4, 142367, Note_on_c, 0, 55, 0
4, 142560, Note_on_c, 0, 46, 62
4, 142560, Note_on_c, 0, 49, 62
4, 142607, Note_on_c, 0, 49, 0
4, 142607, Note_on_c, 0, 46, 0
4, 142800, Note_on_c, 0, 55, 62
4, 142800, Note_on_c, 0, 58, 62
4, 142847, Note_on_c, 0, 58, 0
4, 142847, Note_on_c, 0, 55, 0
4, 143040, Note_on_c, 0, 47, 62
4, 143040, Note_on_c, 0, 50, 62
4, 143087, Note_on_c, 0, 50, 0
4, 143087, Note_on_c, 0, 47, 0
4, 143280, Note_on_c, 0, 56, 62
4, 143280, Note_on_c, 0, 59, 62
4, 143327, Note_on_c, 0, 59, 0
4, 143327, Note_on_c, 0, 56, 0
4, 143520, Note_on_c, 0, 47, 62
4, 143520, Note_on_c, 0, 50, 62
4, 143567, Note_on_c, 0, 50, 0
4, 143567, Note_on_c, 0, 47, 0
4, 143760, Note_on_c, 0, 56, 62
4, 143760, Note_on_c, 0, 59, 62
4, 143807, Note_on_c, 0, 59, 0
4, 143807, Note_on_c, 0, 56, 0
4, 144000, Note_on_c, 0, 46, 62
4, 144000, Note_on_c, 0, 49, 62
4, 144047, Note_on_c, 0, 49, 0
4, 144047, Note_on_c, 0, 46, 0
4, 144240, Note_on_c, 0, 55, 62
4, 144240, Note_on_c, 0, 58, 62
4, 144287, Note_on_c, 0, 58, 0
4, 144287, Note_on_c, 0, 55, 0
4, 144480, Note_on_c, 0, 46, 62
4, 144480, Note_on_c, 0, 49, 62
4, 144527, Note_on_c, 0, 49, 0
4, 144527, Note_on_c, 0, 46, 0
4, 144720, Note_on_c, 0, 55, 62
4, 144720, Note_on_c, 0, 58, 62
4, 144767, Note_on_c, 0, 58, 0
4, 144767, Note_on_c, 0, 55, 0
4, 144960, Note_on_c, 0, 47, 62
4, 144960, Note_on_c, 0, 50, 62
4, 145007, Note_on_c, 0, 50, 0
4, 145007, Note_on_c, 0, 47, 0
4, 145200, Note_on_c, 0, 56, 62
4, 145200, Note_on_c, 0, 59, 62
4, 145247, Note_on_c, 0, 59, 0
4, 145247, Note_on_c, 0, 56, 0
4, 145440, Note_on_c, 0, 47, 62
4, 145440, Note_on_c, 0, 50, 62
4, 145487, Note_on_c, 0, 50, 0
4, 145487, Note_on_c, 0, 47, 0
4, 145680, Note_on_c, 0, 56, 62
4, 145680, Note_on_c, 0, 59, 62
4, 145727, Note_on_c, 0, 59, 0
4, 145727, Note_on_c, 0, 56, 0
4, 145920, Note_on_c, 0, 46, 62
4, 145920, Note_on_c, 0, 49, 62
4, 145967, Note_on_c, 0, 49, 0
4, 145967, Note_on_c, 0, 46, 0
4, 146160, Note_on_c, 0, 55, 62
4, 146160, Note_on_c, 0, 58, 62
4, 146207, Note_on_c, 0, 58, 0
4, 146207, Note_on_c, 0, 55, 0
4, 146400, Note_on_c, 0, 46, 62
4, 146400, Note_on_c, 0, 49, 62
4, 146447, Note_on_c, 0, 49, 0
4, 146447, Note_on_c, 0, 46, 0
4, 146640, Note_on_c, 0, 55, 62
4, 146640, Note_on_c, 0, 58, 62
4, 146687, Note_on_c, 0, 58, 0
4, 146687, Note_on_c, 0, 55, 0
4, 146880, Note_on_c, 0, 44, 62
4, 146880, Note_on_c, 0, 47, 62
4, 146927, Note_on_c, 0, 47, 0
4, 146927, Note_on_c, 0, 44, 0
4, 147120, Note_on_c, 0, 53, 62
4, 147120, Note_on_c, 0, 56, 62
4, 147167, Note_on_c, 0, 56, 0
4, 147167, Note_on_c, 0, 53, 0
4, 147360, Note_on_c, 0, 44, 62
4, 147360, Note_on_c, 0, 47, 62
4, 147407, Note_on_c, 0, 47, 0
4, 147407, Note_on_c, 0, 44, 0
4, 147600, Note_on_c, 0, 53, 62
4, 147600, Note_on_c, 0, 56, 62
4, 147647, Note_on_c, 0, 56, 0
4, 147647, Note_on_c, 0, 53, 0
4, 147840, Note_on_c, 0, 42, 75
4, 147840, Note_on_c, 0, 45, 75
4, 147887, Note_on_c, 0, 45, 0
4, 147887, Note_on_c, 0, 42, 0
4, 148080, Note_on_c, 0, 51, 75
4, 148080, Note_on_c, 0, 54, 75
4, 148127, Note_on_c, 0, 54, 0
4, 148127, Note_on_c, 0, 51, 0
4, 148320, Note_on_c, 0, 42, 75
4, 148320, Note_on_c, 0, 45, 75
4, 148367, Note_on_c, 0, 45, 0
4, 148367, Note_on_c, 0, 42, 0
4, 148560, Note_on_c, 0, 51, 75
4, 148560, Note_on_c, 0, 54, 75
4, 148607, Note_on_c, 0, 54, 0
4, 148607, Note_on_c, 0, 51, 0
4, 148800, Note_on_c, 0, 40, 75
4, 148800, Note_on_c, 0, 43, 75
4, 148847, Note_on_c, 0, 43, 0
4, 148847, Note_on_c, 0, 40, 0
4, 149040, Note_on_c, 0, 49, 75
4, 149040, Note_on_c, 0, 52, 75
4, 149087, Note_on_c, 0, 52, 0
4, 149087, Note_on_c, 0, 49, 0
4, 149280, Note_on_c, 0, 40, 75
4, 149280, Note_on_c, 0, 43, 75
4, 149327, Note_on_c, 0, 43, 0
4, 149327, Note_on_c, 0, 40, 0
4, 149520, Note_on_c, 0, 49, 75
4, 149520, Note_on_c, 0, 52, 75
4, 149567, Note_on_c, 0, 52, 0
4, 149567, Note_on_c, 0, 49, 0
4, 149760, Note_on_c, 0, 38, 101
4, 149760, Note_on_c, 0, 41, 101
4, 149760, Note_on_c, 0, 47, 101
4, 149760, Note_on_c, 0, 50, 101
4, 150240, Note_on_c, 0, 50, 0
4, 150240, Note_on_c, 0, 38, 0
4, 150240, Note_on_c, 0, 41, 0
4, 150240, Note_on_c, 0, 47, 0
4, 151680, Note_on_c, 0, 59, 49
4, 151680, Note_on_c, 0, 62, 49
4, 151920, Note_on_c, 0, 62, 0
4, 151920, Note_on_c, 0, 59, 0
4, 151920, Note_on_c, 0, 59, 49
4, 151920, Note_on_c, 0, 62, 49
4, 152160, Note_on_c, 0, 62, 0
4, 152160, Note_on_c, 0, 59, 0
4, 152160, Note_on_c, 0, 58, 49
4, 152160, Note_on_c, 0, 62, 49
4, 152400, Note_on_c, 0, 62, 0
4, 152400, Note_on_c, 0, 58, 0
4, 152400, Note_on_c, 0, 58, 49
4, 152400, Note_on_c, 0, 62, 49
4, 152640, Note_on_c, 0, 62, 0
4, 152640, Note_on_c, 0, 58, 0
4, 152640, Note_on_c, 0, 57, 49
4, 152640, Note_on_c, 0, 62, 49
4, 152880, Note_on_c, 0, 62, 0
4, 152880, Note_on_c, 0, 57, 0
4, 152880, Note_on_c, 0, 57, 49
4, 152880, Note_on_c, 0, 62, 49
4, 153120, Note_on_c, 0, 62, 0
4, 153120, Note_on_c, 0, 57, 0
4, 153120, Note_on_c, 0, 57, 49
4, 153120, Note_on_c, 0, 62, 49
4, 153360, Note_on_c, 0, 62, 0
4, 153360, Note_on_c, 0, 57, 0
4, 153360, Note_on_c, 0, 57, 49
4, 153360, Note_on_c, 0, 62, 49
4, 153600, Note_on_c, 0, 62, 0
4, 153600, Note_on_c, 0, 57, 0
4, 153600, Note_on_c, 0, 55, 49
4, 153600, Note_on_c, 0, 58, 49
4, 153840, Note_on_c, 0, 58, 0
4, 153840, Note_on_c, 0, 55, 0
4, 153840, Note_on_c, 0, 55, 49
4, 153840, Note_on_c, 0, 58, 49
4, 154080, Note_on_c, 0, 58, 0
4, 154080, Note_on_c, 0, 55, 0
4, 154080, Note_on_c, 0, 54, 49
4, 154080, Note_on_c, 0, 58, 49
4, 154320, Note_on_c, 0, 58, 0
4, 154320, Note_on_c, 0, 54, 0
4, 154320, Note_on_c, 0, 54, 49
4, 154320, Note_on_c, 0, 58, 49
4, 154560, Note_on_c, 0, 58, 0
4, 154560, Note_on_c, 0, 54, 0
4, 154560, Note_on_c, 0, 53, 49
4, 154560, Note_on_c, 0, 57, 49
4, 154800, Note_on_c, 0, 57, 0
4, 154800, Note_on_c, 0, 53, 0
4, 154800, Note_on_c, 0, 53, 49
4, 154800, Note_on_c, 0, 57, 49
4, 155040, Note_on_c, 0, 57, 0
4, 155040, Note_on_c, 0, 53, 0
4, 155040, Note_on_c, 0, 53, 49
4, 155040, Note_on_c, 0, 57, 49
4, 155280, Note_on_c, 0, 57, 0
4, 155280, Note_on_c, 0, 53, 0
4, 155280, Note_on_c, 0, 53, 49
4, 155280, Note_on_c, 0, 57, 49
4, 155520, Note_on_c, 0, 57, 0
4, 155520, Note_on_c, 0, 53, 0
4, 155520, Note_on_c, 0, 51, 62
4, 155520, Note_on_c, 0, 55, 62
4, 155760, Note_on_c, 0, 55, 0
4, 155760, Note_on_c, 0, 51, 0
4, 155760, Note_on_c, 0, 51, 62
4, 155760, Note_on_c, 0, 55, 62
4, 156000, Note_on_c, 0, 55, 0
4, 156000, Note_on_c, 0, 51, 0
4, 156000, Note_on_c, 0, 50, 62
4, 156000, Note_on_c, 0, 53, 62
4, 156240, Note_on_c, 0, 53, 0
4, 156240, Note_on_c, 0, 50, 0
4, 156240, Note_on_c, 0, 50, 62
4, 156240, Note_on_c, 0, 53, 62
4, 156480, Note_on_c, 0, 53, 0
4, 156480, Note_on_c, 0, 50, 0
4, 156480, Note_on_c, 0, 46, 62
4, 156480, Note_on_c, 0, 50, 62
4, 156720, Note_on_c, 0, 50, 0
4, 156720, Note_on_c, 0, 46, 0
4, 156720, Note_on_c, 0, 46, 62
4, 156720, Note_on_c, 0, 50, 62
4, 156960, Note_on_c, 0, 50, 0
4, 156960, Note_on_c, 0, 46, 0
4, 156960, Note_on_c, 0, 45, 62
4, 156960, Note_on_c, 0, 50, 62
4, 157200, Note_on_c, 0, 50, 0
4, 157200, Note_on_c, 0, 45, 0
4, 157200, Note_on_c, 0, 45, 62
4, 157200, Note_on_c, 0, 50, 62
4, 157440, Note_on_c, 0, 50, 0
4, 157440, Note_on_c, 0, 45, 0
4, 157440, Note_on_c, 0, 43, 101
4, 157440, Note_on_c, 0, 46, 101
4, 157680, Note_on_c, 0, 46, 0
4, 157680, Note_on_c, 0, 43, 0
4, 157680, Note_on_c, 0, 41, 101
4, 157680, Note_on_c, 0, 45, 101
4, 157920, Note_on_c, 0, 45, 0
4, 157920, Note_on_c, 0, 41, 0
4, 157920, Note_on_c, 0, 41, 75
4, 157920, Note_on_c, 0, 45, 75
4, 158160, Note_on_c, 0, 45, 0
4, 158160, Note_on_c, 0, 41, 0
4, 158160, Note_on_c, 0, 41, 75
4, 158160, Note_on_c, 0, 45, 75
4, 158400, Note_on_c, 0, 45, 0
4, 158400, Note_on_c, 0, 41, 0
4, 158400, Note_on_c, 0, 41, 62
4, 158400, Note_on_c, 0, 45, 62
4, 158640, Note_on_c, 0, 45, 0
4, 158640, Note_on_c, 0, 41, 0
4, 158640, Note_on_c, 0, 41, 62
4, 158640, Note_on_c, 0, 45, 62
4, 158880, Note_on_c, 0, 45, 0
4, 158880, Note_on_c, 0, 41, 0
4, 158880, Note_on_c, 0, 41, 62
4, 158880, Note_on_c, 0, 45, 62
4, 159120, Note_on_c, 0, 45, 0
4, 159120, Note_on_c, 0, 41, 0
4, 159120, Note_on_c, 0, 41, 62
4, 159120, Note_on_c, 0, 45, 62
4, 159360, Note_on_c, 0, 45, 0
4, 159360, Note_on_c, 0, 41, 0
4, 159360, Note_on_c, 0, 41, 49
4, 159360, Note_on_c, 0, 45, 49
4, 159600, Note_on_c, 0, 45, 0
4, 159600, Note_on_c, 0, 41, 0
4, 159600, Note_on_c, 0, 41, 49
4, 159600, Note_on_c, 0, 45, 49
4, 159840, Note_on_c, 0, 45, 0
4, 159840, Note_on_c, 0, 41, 0
4, 159840, Note_on_c, 0, 41, 49
4, 159840, Note_on_c, 0, 45, 49
4, 160080, Note_on_c, 0, 45, 0
4, 160080, Note_on_c, 0, 41, 0
4, 160080, Note_on_c, 0, 41, 49
4, 160080, Note_on_c, 0, 45, 49
4, 160320, Note_on_c, 0, 45, 0
4, 160320, Note_on_c, 0, 41, 0
4, 160320, Note_on_c, 0, 41, 49
4, 160320, Note_on_c, 0, 45, 49
4, 160560, Note_on_c, 0, 45, 0
4, 160560, Note_on_c, 0, 41, 0
4, 160560, Note_on_c, 0, 41, 49
4, 160560, Note_on_c, 0, 45, 49
4, 160800, Note_on_c, 0, 45, 0
4, 160800, Note_on_c, 0, 41, 0
4, 160800, Note_on_c, 0, 41, 49
4, 160800, Note_on_c, 0, 45, 49
4, 161040, Note_on_c, 0, 45, 0
4, 161040, Note_on_c, 0, 41, 0
4, 161040, Note_on_c, 0, 41, 49
4, 161040, Note_on_c, 0, 45, 49
4, 161280, Note_on_c, 0, 45, 0
4, 161280, Note_on_c, 0, 41, 0
4, 161280, Note_on_c, 0, 41, 49
4, 161280, Note_on_c, 0, 45, 49
4, 161520, Note_on_c, 0, 45, 0
4, 161520, Note_on_c, 0, 41, 0
4, 161520, Note_on_c, 0, 41, 49
4, 161520, Note_on_c, 0, 45, 49
4, 161760, Note_on_c, 0, 45, 0
4, 161760, Note_on_c, 0, 41, 0
4, 161760, Note_on_c, 0, 41, 49
4, 161760, Note_on_c, 0, 45, 49
4, 162000, Note_on_c, 0, 45, 0
4, 162000, Note_on_c, 0, 41, 0
4, 162000, Note_on_c, 0, 41, 49
4, 162000, Note_on_c, 0, 45, 49
4, 162240, Note_on_c, 0, 45, 0
4, 162240, Note_on_c, 0, 41, 0
4, 162240, Note_on_c, 0, 41, 49
4, 162240, Note_on_c, 0, 45, 49
4, 162480, Note_on_c, 0, 45, 0
4, 162480, Note_on_c, 0, 41, 0
4, 162480, Note_on_c, 0, 41, 49
4, 162480, Note_on_c, 0, 45, 49
4, 162720, Note_on_c, 0, 45, 0
4, 162720, Note_on_c, 0, 41, 0
4, 162720, Note_on_c, 0, 41, 49
4, 162720, Note_on_c, 0, 45, 49
4, 162960, Note_on_c, 0, 45, 0
4, 162960, Note_on_c, 0, 41, 0
4, 162960, Note_on_c, 0, 41, 49
4, 162960, Note_on_c, 0, 45, 49
4, 163200, Note_on_c, 0, 45, 0
4, 163200, Note_on_c, 0, 41, 0
4, 163200, Note_on_c, 0, 41, 49
4, 163200, Note_on_c, 0, 45, 49
4, 163440, Note_on_c, 0, 45, 0
4, 163440, Note_on_c, 0, 41, 0
4, 163440, Note_on_c, 0, 41, 49
4, 163440, Note_on_c, 0, 45, 49
4, 163680, Note_on_c, 0, 45, 0
4, 163680, Note_on_c, 0, 41, 0
4, 163680, Note_on_c, 0, 41, 49
4, 163680, Note_on_c, 0, 45, 49
4, 163920, Note_on_c, 0, 45, 0
4, 163920, Note_on_c, 0, 41, 0
4, 163920, Note_on_c, 0, 41, 49
4, 163920, Note_on_c, 0, 45, 49
4, 164160, Note_on_c, 0, 45, 0
4, 164160, Note_on_c, 0, 41, 0
4, 164160, Note_on_c, 0, 41, 49
4, 164160, Note_on_c, 0, 45, 49
4, 164400, Note_on_c, 0, 45, 0
4, 164400, Note_on_c, 0, 41, 0
4, 164400, Note_on_c, 0, 41, 49
4, 164400, Note_on_c, 0, 45, 49
4, 164640, Note_on_c, 0, 45, 0
4, 164640, Note_on_c, 0, 41, 0
4, 164640, Note_on_c, 0, 41, 49
4, 164640, Note_on_c, 0, 45, 49
4, 164880, Note_on_c, 0, 45, 0
4, 164880, Note_on_c, 0, 41, 0
4, 164880, Note_on_c, 0, 41, 49
4, 164880, Note_on_c, 0, 45, 49
4, 165120, Note_on_c, 0, 45, 0
4, 165120, Note_on_c, 0, 41, 0
4, 165120, Note_on_c, 0, 41, 49
4, 165120, Note_on_c, 0, 45, 49
4, 165360, Note_on_c, 0, 45, 0
4, 165360, Note_on_c, 0, 41, 0
4, 165360, Note_on_c, 0, 41, 49
4, 165360, Note_on_c, 0, 45, 49
4, 165600, Note_on_c, 0, 45, 0
4, 165600, Note_on_c, 0, 41, 0
4, 165600, Note_on_c, 0, 41, 49
4, 165600, Note_on_c, 0, 45, 49
4, 165840, Note_on_c, 0, 45, 0
4, 165840, Note_on_c, 0, 41, 0
4, 165840, Note_on_c, 0, 41, 49
4, 165840, Note_on_c, 0, 45, 49
4, 166080, Note_on_c, 0, 45, 0
4, 166080, Note_on_c, 0, 41, 0
4, 166080, Note_on_c, 0, 41, 49
4, 166080, Note_on_c, 0, 45, 49
4, 166320, Note_on_c, 0, 45, 0
4, 166320, Note_on_c, 0, 41, 0
4, 166320, Note_on_c, 0, 41, 49
4, 166320, Note_on_c, 0, 45, 49
4, 166560, Note_on_c, 0, 45, 0
4, 166560, Note_on_c, 0, 41, 0
4, 166560, Note_on_c, 0, 41, 49
4, 166560, Note_on_c, 0, 45, 49
4, 166800, Note_on_c, 0, 45, 0
4, 166800, Note_on_c, 0, 41, 0
4, 166800, Note_on_c, 0, 41, 49
4, 166800, Note_on_c, 0, 45, 49
4, 167040, Note_on_c, 0, 45, 0
4, 167040, Note_on_c, 0, 41, 0
4, 167040, Note_on_c, 0, 41, 49
4, 167040, Note_on_c, 0, 45, 49
4, 167280, Note_on_c, 0, 45, 0
4, 167280, Note_on_c, 0, 41, 0
4, 167280, Note_on_c, 0, 41, 49
4, 167280, Note_on_c, 0, 45, 49
4, 167520, Note_on_c, 0, 45, 0
4, 167520, Note_on_c, 0, 41, 0
4, 167520, Note_on_c, 0, 41, 49
4, 167520, Note_on_c, 0, 45, 49
4, 167760, Note_on_c, 0, 45, 0
4, 167760, Note_on_c, 0, 41, 0
4, 167760, Note_on_c, 0, 41, 49
4, 167760, Note_on_c, 0, 45, 49
4, 168000, Note_on_c, 0, 45, 0
4, 168000, Note_on_c, 0, 41, 0
4, 168000, Note_on_c, 0, 41, 49
4, 168000, Note_on_c, 0, 45, 49
4, 168240, Note_on_c, 0, 45, 0
4, 168240, Note_on_c, 0, 41, 0
4, 168240, Note_on_c, 0, 41, 49
4, 168240, Note_on_c, 0, 45, 49
4, 168480, Note_on_c, 0, 45, 0
4, 168480, Note_on_c, 0, 41, 0
4, 168480, Note_on_c, 0, 41, 49
4, 168480, Note_on_c, 0, 45, 49
4, 168720, Note_on_c, 0, 45, 0
4, 168720, Note_on_c, 0, 41, 0
4, 168720, Note_on_c, 0, 41, 49
4, 168720, Note_on_c, 0, 45, 49
4, 168960, Note_on_c, 0, 45, 0
4, 168960, Note_on_c, 0, 41, 0
4, 168960, Note_on_c, 0, 38, 49
4, 168960, Note_on_c, 0, 41, 49
4, 169200, Note_on_c, 0, 41, 0
4, 169200, Note_on_c, 0, 38, 0
4, 169200, Note_on_c, 0, 38, 49
4, 169200, Note_on_c, 0, 41, 49
4, 169440, Note_on_c, 0, 41, 0
4, 169440, Note_on_c, 0, 38, 0
4, 169440, Note_on_c, 0, 38, 49
4, 169440, Note_on_c, 0, 41, 49
4, 169680, Note_on_c, 0, 41, 0
4, 169680, Note_on_c, 0, 38, 0
4, 169680, Note_on_c, 0, 38, 49
4, 169680, Note_on_c, 0, 41, 49
4, 169920, Note_on_c, 0, 41, 0
4, 169920, Note_on_c, 0, 38, 0
4, 169920, Note_on_c, 0, 39, 49
4, 169920, Note_on_c, 0, 41, 49
4, 170160, Note_on_c, 0, 41, 0
4, 170160, Note_on_c, 0, 39, 0
4, 170160, Note_on_c, 0, 39, 49
4, 170160, Note_on_c, 0, 41, 49
4, 170400, Note_on_c, 0, 41, 0
4, 170400, Note_on_c, 0, 39, 0
4, 170400, Note_on_c, 0, 39, 49
4, 170400, Note_on_c, 0, 41, 49
4, 170640, Note_on_c, 0, 41, 0
4, 170640, Note_on_c, 0, 39, 0
4, 170640, Note_on_c, 0, 39, 49
4, 170640, Note_on_c, 0, 41, 49
4, 170880, Note_on_c, 0, 41, 0
4, 170880, Note_on_c, 0, 39, 0
4, 170880, Note_on_c, 0, 41, 49
4, 170880, Note_on_c, 0, 45, 49
4, 171120, Note_on_c, 0, 45, 0
4, 171120, Note_on_c, 0, 41, 0
4, 171120, Note_on_c, 0, 41, 49
4, 171120, Note_on_c, 0, 45, 49
4, 171360, Note_on_c, 0, 45, 0
4, 171360, Note_on_c, 0, 41, 0
4, 171360, Note_on_c, 0, 41, 49
4, 171360, Note_on_c, 0, 45, 49
4, 171600, Note_on_c, 0, 45, 0
4, 171600, Note_on_c, 0, 41, 0
4, 171600, Note_on_c, 0, 41, 49
4, 171600, Note_on_c, 0, 45, 49
4, 171840, Note_on_c, 0, 45, 0
4, 171840, Note_on_c, 0, 41, 0
4, 171840, Note_on_c, 0, 36, 49
4, 171840, Note_on_c, 0, 41, 49
4, 172080, Note_on_c, 0, 41, 0
4, 172080, Note_on_c, 0, 36, 0
4, 172080, Note_on_c, 0, 36, 49
4, 172080, Note_on_c, 0, 41, 49
4, 172320, Note_on_c, 0, 41, 0
4, 172320, Note_on_c, 0, 36, 0
4, 172320, Note_on_c, 0, 36, 49
4, 172320, Note_on_c, 0, 41, 49
4, 172560, Note_on_c, 0, 41, 0
4, 172560, Note_on_c, 0, 36, 0
4, 172560, Note_on_c, 0, 36, 49
4, 172560, Note_on_c, 0, 41, 49
4, 172800, Note_on_c, 0, 41, 0
4, 172800, Note_on_c, 0, 36, 0
4, 172800, Note_on_c, 0, 35, 49
4, 172800, Note_on_c, 0, 38, 49
4, 173040, Note_on_c, 0, 38, 0
4, 173040, Note_on_c, 0, 35, 0
4, 173040, Note_on_c, 0, 35, 49
4, 173040, Note_on_c, 0, 38, 49
4, 173280, Note_on_c, 0, 38, 0
4, 173280, Note_on_c, 0, 35, 0
4, 173280, Note_on_c, 0, 35, 49
4, 173280, Note_on_c, 0, 38, 49
4, 173520, Note_on_c, 0, 38, 0
4, 173520, Note_on_c, 0, 35, 0
4, 173520, Note_on_c, 0, 35, 49
4, 173520, Note_on_c, 0, 38, 49
4, 173760, Note_on_c, 0, 38, 0
4, 173760, Note_on_c, 0, 35, 0
4, 173760, Note_on_c, 0, 35, 62
4, 173760, Note_on_c, 0, 38, 62
4, 174000, Note_on_c, 0, 38, 0
4, 174000, Note_on_c, 0, 35, 0
4, 174000, Note_on_c, 0, 35, 62
4, 174000, Note_on_c, 0, 38, 62
4, 174240, Note_on_c, 0, 38, 0
4, 174240, Note_on_c, 0, 35, 0
4, 174240, Note_on_c, 0, 35, 62
4, 174240, Note_on_c, 0, 38, 62
4, 174480, Note_on_c, 0, 38, 0
4, 174480, Note_on_c, 0, 35, 0
4, 174480, Note_on_c, 0, 35, 62
4, 174480, Note_on_c, 0, 38, 62
4, 174720, Note_on_c, 0, 38, 0
4, 174720, Note_on_c, 0, 35, 0
4, 174720, Note_on_c, 0, 34, 49
4, 174960, Note_on_c, 0, 34, 0
4, 174960, Note_on_c, 0, 34, 49
4, 175200, Note_on_c, 0, 34, 0
4, 175200, Note_on_c, 0, 34, 62
4, 175200, Note_on_c, 0, 38, 62
4, 175440, Note_on_c, 0, 38, 0
4, 175440, Note_on_c, 0, 34, 0
4, 175440, Note_on_c, 0, 34, 62
4, 175440, Note_on_c, 0, 38, 62
4, 175680, Note_on_c, 0, 38, 0
4, 175680, Note_on_c, 0, 34, 0
4, 175680, Note_on_c, 0, 34, 62
4, 175680, Note_on_c, 0, 38, 62
4, 175920, Note_on_c, 0, 38, 0
4, 175920, Note_on_c, 0, 34, 0
4, 175920, Note_on_c, 0, 46, 62
4, 175920, Note_on_c, 0, 50, 62
4, 176160, Note_on_c, 0, 50, 0
4, 176160, Note_on_c, 0, 46, 0
4, 176160, Note_on_c, 0, 46, 49
4, 176160, Note_on_c, 0, 50, 49
4, 176400, Note_on_c, 0, 50, 0
4, 176400, Note_on_c, 0, 46, 0
4, 176400, Note_on_c, 0, 46, 49
4, 176400, Note_on_c, 0, 50, 49
4, 176640, Note_on_c, 0, 50, 0
4, 176640, Note_on_c, 0, 46, 0
4, 176640, Note_on_c, 0, 46, 49
4, 176640, Note_on_c, 0, 50, 49
4, 176880, Note_on_c, 0, 50, 0
4, 176880, Note_on_c, 0, 46, 0
4, 176880, Note_on_c, 0, 46, 49
4, 176880, Note_on_c, 0, 50, 49
4, 177120, Note_on_c, 0, 50, 0
4, 177120, Note_on_c, 0, 46, 0
4, 177120, Note_on_c, 0, 46, 49
4, 177120, Note_on_c, 0, 50, 49
4, 177360, Note_on_c, 0, 50, 0
4, 177360, Note_on_c, 0, 46, 0
4, 177360, Note_on_c, 0, 46, 49
4, 177360, Note_on_c, 0, 50, 49
4, 177600, Note_on_c, 0, 50, 0
4, 177600, Note_on_c, 0, 46, 0
4, 177600, Note_on_c, 0, 46, 49
4, 177600, Note_on_c, 0, 50, 49
4, 177840, Note_on_c, 0, 50, 0
4, 177840, Note_on_c, 0, 46, 0
4, 177840, Note_on_c, 0, 46, 49
4, 177840, Note_on_c, 0, 50, 49
4, 178080, Note_on_c, 0, 50, 0
4, 178080, Note_on_c, 0, 46, 0
4, 178080, Note_on_c, 0, 46, 49
4, 178080, Note_on_c, 0, 50, 49
4, 178320, Note_on_c, 0, 50, 0
4, 178320, Note_on_c, 0, 46, 0
4, 178320, Note_on_c, 0, 46, 49
4, 178320, Note_on_c, 0, 50, 49
4, 178560, Note_on_c, 0, 50, 0
4, 178560, Note_on_c, 0, 46, 0
4, 178560, Note_on_c, 0, 46, 49
4, 178560, Note_on_c, 0, 50, 49
4, 178800, Note_on_c, 0, 50, 0
4, 178800, Note_on_c, 0, 46, 0
4, 178800, Note_on_c, 0, 46, 49
4, 178800, Note_on_c, 0, 50, 49
4, 179040, Note_on_c, 0, 50, 0
4, 179040, Note_on_c, 0, 46, 0
4, 179040, Note_on_c, 0, 46, 49
4, 179040, Note_on_c, 0, 50, 49
4, 179280, Note_on_c, 0, 50, 0
4, 179280, Note_on_c, 0, 46, 0
4, 179280, Note_on_c, 0, 46, 49
4, 179280, Note_on_c, 0, 50, 49
4, 179520, Note_on_c, 0, 50, 0
4, 179520, Note_on_c, 0, 46, 0
4, 179520, Note_on_c, 0, 46, 49
4, 179520, Note_on_c, 0, 50, 49
4, 179760, Note_on_c, 0, 50, 0
4, 179760, Note_on_c, 0, 46, 0
4, 179760, Note_on_c, 0, 46, 49
4, 179760, Note_on_c, 0, 50, 49
4, 180000, Note_on_c, 0, 50, 0
4, 180000, Note_on_c, 0, 46, 0
4, 180000, Note_on_c, 0, 46, 49
4, 180000, Note_on_c, 0, 50, 49
4, 180240, Note_on_c, 0, 50, 0
4, 180240, Note_on_c, 0, 46, 0
4, 180240, Note_on_c, 0, 46, 49
4, 180240, Note_on_c, 0, 50, 49
4, 180480, Note_on_c, 0, 50, 0
4, 180480, Note_on_c, 0, 46, 0
4, 180480, Note_on_c, 0, 46, 49
4, 180480, Note_on_c, 0, 50, 49
4, 180720, Note_on_c, 0, 50, 0
4, 180720, Note_on_c, 0, 46, 0
4, 180720, Note_on_c, 0, 46, 49
4, 180720, Note_on_c, 0, 50, 49
4, 180960, Note_on_c, 0, 50, 0
4, 180960, Note_on_c, 0, 46, 0
4, 180960, Note_on_c, 0, 46, 49
4, 180960, Note_on_c, 0, 50, 49
4, 181200, Note_on_c, 0, 50, 0
4, 181200, Note_on_c, 0, 46, 0
4, 181200, Note_on_c, 0, 46, 49
4, 181200, Note_on_c, 0, 50, 49
4, 181440, Note_on_c, 0, 50, 0
4, 181440, Note_on_c, 0, 46, 0
4, 181440, Note_on_c, 0, 46, 49
4, 181440, Note_on_c, 0, 50, 49
4, 181680, Note_on_c, 0, 50, 0
4, 181680, Note_on_c, 0, 46, 0
4, 181680, Note_on_c, 0, 46, 49
4, 181680, Note_on_c, 0, 50, 49
4, 181920, Note_on_c, 0, 50, 0
4, 181920, Note_on_c, 0, 46, 0
4, 181920, Note_on_c, 0, 46, 49
4, 181920, Note_on_c, 0, 50, 49
4, 182160, Note_on_c, 0, 50, 0
4, 182160, Note_on_c, 0, 46, 0
4, 182160, Note_on_c, 0, 46, 49
4, 182160, Note_on_c, 0, 50, 49
4, 182400, Note_on_c, 0, 50, 0
4, 182400, Note_on_c, 0, 46, 0
4, 182400, Note_on_c, 0, 46, 49
4, 182400, Note_on_c, 0, 50, 49
4, 182640, Note_on_c, 0, 50, 0
4, 182640, Note_on_c, 0, 46, 0
4, 182640, Note_on_c, 0, 46, 49
4, 182640, Note_on_c, 0, 50, 49
4, 182880, Note_on_c, 0, 50, 0
4, 182880, Note_on_c, 0, 46, 0
4, 182880, Note_on_c, 0, 46, 49
4, 182880, Note_on_c, 0, 50, 49
4, 183120, Note_on_c, 0, 50, 0
4, 183120, Note_on_c, 0, 46, 0
4, 183120, Note_on_c, 0, 46, 49
4, 183120, Note_on_c, 0, 50, 49
4, 183360, Note_on_c, 0, 50, 0
4, 183360, Note_on_c, 0, 46, 0
4, 183360, Note_on_c, 0, 46, 49
4, 183360, Note_on_c, 0, 50, 49
4, 183600, Note_on_c, 0, 50, 0
4, 183600, Note_on_c, 0, 46, 0
4, 183600, Note_on_c, 0, 46, 49
4, 183600, Note_on_c, 0, 50, 49
4, 183840, Note_on_c, 0, 50, 0
4, 183840, Note_on_c, 0, 46, 0
4, 183840, Note_on_c, 0, 46, 49
4, 183840, Note_on_c, 0, 50, 49
4, 184080, Note_on_c, 0, 50, 0
4, 184080, Note_on_c, 0, 46, 0
4, 184080, Note_on_c, 0, 46, 49
4, 184080, Note_on_c, 0, 50, 49
4, 184320, Note_on_c, 0, 50, 0
4, 184320, Note_on_c, 0, 46, 0
4, 184320, Note_on_c, 0, 43, 49
4, 184320, Note_on_c, 0, 46, 49
4, 184560, Note_on_c, 0, 46, 0
4, 184560, Note_on_c, 0, 43, 0
4, 184560, Note_on_c, 0, 43, 49
4, 184560, Note_on_c, 0, 46, 49
4, 184800, Note_on_c, 0, 46, 0
4, 184800, Note_on_c, 0, 43, 0
4, 184800, Note_on_c, 0, 43, 49
4, 184800, Note_on_c, 0, 46, 49
4, 185040, Note_on_c, 0, 46, 0
4, 185040, Note_on_c, 0, 43, 0
4, 185040, Note_on_c, 0, 43, 49
4, 185040, Note_on_c, 0, 46, 49
4, 185280, Note_on_c, 0, 46, 0
4, 185280, Note_on_c, 0, 43, 0
4, 185280, Note_on_c, 0, 44, 49
4, 185280, Note_on_c, 0, 46, 49
4, 185520, Note_on_c, 0, 46, 0
4, 185520, Note_on_c, 0, 44, 0
4, 185520, Note_on_c, 0, 44, 49
4, 185520, Note_on_c, 0, 46, 49
4, 185760, Note_on_c, 0, 46, 0
4, 185760, Note_on_c, 0, 44, 0
4, 185760, Note_on_c, 0, 44, 49
4, 185760, Note_on_c, 0, 46, 49
4, 186000, Note_on_c, 0, 46, 0
4, 186000, Note_on_c, 0, 44, 0
4, 186000, Note_on_c, 0, 44, 49
4, 186000, Note_on_c, 0, 46, 49
4, 186240, Note_on_c, 0, 46, 0
4, 186240, Note_on_c, 0, 44, 0
4, 186240, Note_on_c, 0, 43, 49
4, 186240, Note_on_c, 0, 46, 49
4, 186480, Note_on_c, 0, 46, 0
4, 186480, Note_on_c, 0, 43, 0
4, 186480, Note_on_c, 0, 43, 49
4, 186480, Note_on_c, 0, 46, 49
4, 186720, Note_on_c, 0, 46, 0
4, 186720, Note_on_c, 0, 43, 0
4, 186720, Note_on_c, 0, 43, 49
4, 186720, Note_on_c, 0, 46, 49
4, 186960, Note_on_c, 0, 46, 0
4, 186960, Note_on_c, 0, 43, 0
4, 186960, Note_on_c, 0, 43, 49
4, 186960, Note_on_c, 0, 46, 49
4, 187200, Note_on_c, 0, 46, 0
4, 187200, Note_on_c, 0, 43, 0
4, 187200, Note_on_c, 0, 41, 49
4, 187200, Note_on_c, 0, 46, 49
4, 187440, Note_on_c, 0, 46, 0
4, 187440, Note_on_c, 0, 41, 0
4, 187440, Note_on_c, 0, 41, 49
4, 187440, Note_on_c, 0, 46, 49
4, 187680, Note_on_c, 0, 46, 0
4, 187680, Note_on_c, 0, 41, 0
4, 187680, Note_on_c, 0, 41, 49
4, 187680, Note_on_c, 0, 46, 49
4, 187920, Note_on_c, 0, 46, 0
4, 187920, Note_on_c, 0, 41, 0
4, 187920, Note_on_c, 0, 41, 49
4, 187920, Note_on_c, 0, 46, 49
4, 188160, Note_on_c, 0, 46, 0
4, 188160, Note_on_c, 0, 41, 0
4, 188160, Note_on_c, 0, 40, 49
4, 188160, Note_on_c, 0, 43, 49
4, 188400, Note_on_c, 0, 43, 0
4, 188400, Note_on_c, 0, 40, 0
4, 188400, Note_on_c, 0, 40, 49
4, 188400, Note_on_c, 0, 43, 49
4, 188640, Note_on_c, 0, 43, 0
4, 188640, Note_on_c, 0, 40, 0
4, 188640, Note_on_c, 0, 40, 49
4, 188640, Note_on_c, 0, 43, 49
4, 188880, Note_on_c, 0, 43, 0
4, 188880, Note_on_c, 0, 40, 0
4, 188880, Note_on_c, 0, 40, 49
4, 188880, Note_on_c, 0, 43, 49
4, 189120, Note_on_c, 0, 43, 0
4, 189120, Note_on_c, 0, 40, 0
4, 189120, Note_on_c, 0, 40, 49
4, 189120, Note_on_c, 0, 43, 49
4, 189360, Note_on_c, 0, 43, 0
4, 189360, Note_on_c, 0, 40, 0
4, 189360, Note_on_c, 0, 40, 49
4, 189360, Note_on_c, 0, 43, 49
4, 189600, Note_on_c, 0, 43, 0
4, 189600, Note_on_c, 0, 40, 0
4, 189600, Note_on_c, 0, 40, 49
4, 189600, Note_on_c, 0, 43, 49
4, 189840, Note_on_c, 0, 43, 0
4, 189840, Note_on_c, 0, 40, 0
4, 189840, Note_on_c, 0, 40, 49
4, 189840, Note_on_c, 0, 43, 49
4, 190080, Note_on_c, 0, 43, 0
4, 190080, Note_on_c, 0, 40, 0
4, 190080, Note_on_c, 0, 39, 49
4, 190320, Note_on_c, 0, 39, 0
4, 190320, Note_on_c, 0, 39, 49
4, 190560, Note_on_c, 0, 39, 0
4, 190560, Note_on_c, 0, 39, 49
4, 190560, Note_on_c, 0, 43, 49
4, 190800, Note_on_c, 0, 43, 0
4, 190800, Note_on_c, 0, 39, 0
4, 190800, Note_on_c, 0, 39, 49
4, 190800, Note_on_c, 0, 43, 49
4, 191040, Note_on_c, 0, 43, 0
4, 191040, Note_on_c, 0, 39, 0
4, 191040, Note_on_c, 0, 39, 49
4, 191040, Note_on_c, 0, 43, 49
4, 191280, Note_on_c, 0, 43, 0
4, 191280, Note_on_c, 0, 39, 0
4, 191280, Note_on_c, 0, 39, 49
4, 191280, Note_on_c, 0, 43, 49
4, 191520, Note_on_c, 0, 43, 0
4, 191520, Note_on_c, 0, 39, 0
4, 191520, Note_on_c, 0, 39, 49
4, 191520, Note_on_c, 0, 43, 49
4, 191760, Note_on_c, 0, 43, 0
4, 191760, Note_on_c, 0, 39, 0
4, 191760, Note_on_c, 0, 39, 49
4, 191760, Note_on_c, 0, 43, 49
4, 192000, Note_on_c, 0, 43, 0
4, 192000, Note_on_c, 0, 39, 0
4, 192000, Note_on_c, 0, 39, 49
4, 192000, Note_on_c, 0, 43, 49
4, 192000, Note_on_c, 0, 46, 49
4, 192240, Note_on_c, 0, 46, 0
4, 192240, Note_on_c, 0, 43, 0
4, 192240, Note_on_c, 0, 39, 0
4, 192240, Note_on_c, 0, 39, 49
4, 192240, Note_on_c, 0, 43, 49
4, 192240, Note_on_c, 0, 46, 49
4, 192480, Note_on_c, 0, 46, 0
4, 192480, Note_on_c, 0, 43, 0
4, 192480, Note_on_c, 0, 39, 0
4, 192480, Note_on_c, 0, 39, 49
4, 192480, Note_on_c, 0, 43, 49
4, 192480, Note_on_c, 0, 46, 49
4, 192720, Note_on_c, 0, 46, 0
4, 192720, Note_on_c, 0, 43, 0
4, 192720, Note_on_c, 0, 39, 0
4, 192720, Note_on_c, 0, 39, 49
4, 192720, Note_on_c, 0, 43, 49
4, 192720, Note_on_c, 0, 46, 49
4, 192960, Note_on_c, 0, 46, 0
4, 192960, Note_on_c, 0, 43, 0
4, 192960, Note_on_c, 0, 39, 0
4, 192960, Note_on_c, 0, 38, 49
4, 192960, Note_on_c, 0, 43, 49
4, 192960, Note_on_c, 0, 46, 49
4, 193200, Note_on_c, 0, 46, 0
4, 193200, Note_on_c, 0, 43, 0
4, 193200, Note_on_c, 0, 38, 0
4, 193200, Note_on_c, 0, 38, 49
4, 193200, Note_on_c, 0, 43, 49
4, 193200, Note_on_c, 0, 46, 49
4, 193440, Note_on_c, 0, 46, 0
4, 193440, Note_on_c, 0, 43, 0
4, 193440, Note_on_c, 0, 38, 0
4, 193440, Note_on_c, 0, 38, 49
4, 193440, Note_on_c, 0, 43, 49
4, 193440, Note_on_c, 0, 46, 49
4, 193680, Note_on_c, 0, 46, 0
4, 193680, Note_on_c, 0, 43, 0
4, 193680, Note_on_c, 0, 38, 0
4, 193680, Note_on_c, 0, 38, 49
4, 193680, Note_on_c, 0, 43, 49
4, 193680, Note_on_c, 0, 46, 49
4, 193920, Note_on_c, 0, 46, 0
4, 193920, Note_on_c, 0, 43, 0
4, 193920, Note_on_c, 0, 38, 0
4, 193920, Note_on_c, 0, 39, 49
4, 193920, Note_on_c, 0, 43, 49
4, 193920, Note_on_c, 0, 46, 49
4, 194160, Note_on_c, 0, 46, 0
4, 194160, Note_on_c, 0, 43, 0
4, 194160, Note_on_c, 0, 39, 0
4, 194160, Note_on_c, 0, 39, 49
4, 194160, Note_on_c, 0, 43, 49
4, 194160, Note_on_c, 0, 46, 49
4, 194400, Note_on_c, 0, 46, 0
4, 194400, Note_on_c, 0, 43, 0
4, 194400, Note_on_c, 0, 39, 0
4, 194400, Note_on_c, 0, 39, 49
4, 194400, Note_on_c, 0, 43, 49
4, 194400, Note_on_c, 0, 46, 49
4, 194640, Note_on_c, 0, 46, 0
4, 194640, Note_on_c, 0, 43, 0
4, 194640, Note_on_c, 0, 39, 0
4, 194640, Note_on_c, 0, 39, 49
4, 194640, Note_on_c, 0, 43, 49
4, 194640, Note_on_c, 0, 46, 49
4, 194880, Note_on_c, 0, 46, 0
4, 194880, Note_on_c, 0, 43, 0
4, 194880, Note_on_c, 0, 39, 0
4, 194880, Note_on_c, 0, 38, 49
4, 194880, Note_on_c, 0, 43, 49
4, 194880, Note_on_c, 0, 46, 49
4, 195120, Note_on_c, 0, 46, 0
4, 195120, Note_on_c, 0, 43, 0
4, 195120, Note_on_c, 0, 38, 0
4, 195120, Note_on_c, 0, 38, 49
4, 195120, Note_on_c, 0, 43, 49
4, 195120, Note_on_c, 0, 46, 49
4, 195360, Note_on_c, 0, 46, 0
4, 195360, Note_on_c, 0, 43, 0
4, 195360, Note_on_c, 0, 38, 0
4, 195360, Note_on_c, 0, 38, 49
4, 195360, Note_on_c, 0, 43, 49
4, 195360, Note_on_c, 0, 46, 49
4, 195600, Note_on_c, 0, 46, 0
4, 195600, Note_on_c, 0, 43, 0
4, 195600, Note_on_c, 0, 38, 0
4, 195600, Note_on_c, 0, 38, 49
4, 195600, Note_on_c, 0, 43, 49
4, 195600, Note_on_c, 0, 46, 49
4, 195840, Note_on_c, 0, 46, 0
4, 195840, Note_on_c, 0, 43, 0
4, 195840, Note_on_c, 0, 38, 0
4, 195840, Note_on_c, 0, 39, 62
4, 195840, Note_on_c, 0, 43, 62
4, 195840, Note_on_c, 0, 46, 62
4, 196080, Note_on_c, 0, 46, 0
4, 196080, Note_on_c, 0, 43, 0
4, 196080, Note_on_c, 0, 39, 0
4, 196080, Note_on_c, 0, 39, 62
4, 196080, Note_on_c, 0, 43, 62
4, 196080, Note_on_c, 0, 46, 62
4, 196320, Note_on_c, 0, 46, 0
4, 196320, Note_on_c, 0, 43, 0
4, 196320, Note_on_c, 0, 39, 0
4, 196320, Note_on_c, 0, 40, 62
4, 196320, Note_on_c, 0, 43, 62
4, 196320, Note_on_c, 0, 46, 62
4, 196560, Note_on_c, 0, 46, 0
4, 196560, Note_on_c, 0, 43, 0
4, 196560, Note_on_c, 0, 40, 0
4, 196560, Note_on_c, 0, 40, 62
4, 196560, Note_on_c, 0, 43, 62
4, 196560, Note_on_c, 0, 46, 62
4, 196800, Note_on_c, 0, 46, 0
4, 196800, Note_on_c, 0, 43, 0
4, 196800, Note_on_c, 0, 40, 0
4, 196800, Note_on_c, 0, 42, 62
4, 196800, Note_on_c, 0, 46, 62
4, 197040, Note_on_c, 0, 46, 0
4, 197040, Note_on_c, 0, 42, 0
4, 197040, Note_on_c, 0, 42, 62
4, 197040, Note_on_c, 0, 46, 62
4, 197280, Note_on_c, 0, 46, 0
4, 197280, Note_on_c, 0, 42, 0
4, 197280, Note_on_c, 0, 43, 62
4, 197280, Note_on_c, 0, 46, 62
4, 197520, Note_on_c, 0, 46, 0
4, 197520, Note_on_c, 0, 43, 0
4, 197520, Note_on_c, 0, 43, 62
4, 197520, Note_on_c, 0, 46, 62
4, 197760, Note_on_c, 0, 46, 0
4, 197760, Note_on_c, 0, 43, 0
4, 197760, Note_on_c, 0, 45, 62
4, 197760, Note_on_c, 0, 49, 62
4, 198000, Note_on_c, 0, 49, 0
4, 198000, Note_on_c, 0, 45, 0
4, 198000, Note_on_c, 0, 45, 62
4, 198000, Note_on_c, 0, 49, 62
4, 198240, Note_on_c, 0, 49, 0
4, 198240, Note_on_c, 0, 45, 0
4, 198240, Note_on_c, 0, 46, 62
4, 198240, Note_on_c, 0, 49, 62
4, 198480, Note_on_c, 0, 49, 0
4, 198480, Note_on_c, 0, 46, 0
4, 198480, Note_on_c, 0, 46, 62
4, 198480, Note_on_c, 0, 49, 62
4, 198720, Note_on_c, 0, 49, 0
4, 198720, Note_on_c, 0, 46, 0
4, 198720, Note_on_c, 0, 48, 62
4, 198720, Note_on_c, 0, 52, 62
4, 198960, Note_on_c, 0, 52, 0
4, 198960, Note_on_c, 0, 48, 0
4, 198960, Note_on_c, 0, 48, 62
4, 198960, Note_on_c, 0, 52, 62
4, 199200, Note_on_c, 0, 52, 0
4, 199200, Note_on_c, 0, 48, 0
4, 199200, Note_on_c, 0, 49, 62
4, 199200, Note_on_c, 0, 52, 62
4, 199440, Note_on_c, 0, 52, 0
4, 199440, Note_on_c, 0, 49, 0
4, 199440, Note_on_c, 0, 49, 62
4, 199440, Note_on_c, 0, 52, 62
4, 199680, Note_on_c, 0, 52, 0
4, 199680, Note_on_c, 0, 49, 0
4, 199680, Note_on_c, 0, 52, 88
4, 199680, Note_on_c, 0, 55, 88
4, 200160, Note_on_c, 0, 55, 0
4, 200160, Note_on_c, 0, 52, 0
4, 200160, Note_on_c, 0, 55, 88
4, 200160, Note_on_c, 0, 58, 88
4, 200640, Note_on_c, 0, 58, 0
4, 200640, Note_on_c, 0, 55, 0
4, 200640, Note_on_c, 0, 58, 101
4, 200640, Note_on_c, 0, 61, 101
4, 201120, Note_on_c, 0, 61, 0
4, 201120, Note_on_c, 0, 58, 0
4, 201120, Note_on_c, 0, 61, 101
4, 201120, Note_on_c, 0, 64, 101
4, 201600, Note_on_c, 0, 64, 0
4, 201600, Note_on_c, 0, 61, 0
4, 201600, Note_on_c, 0, 64, 75
4, 201600, Note_on_c, 0, 67, 75
4, 201840, Note_on_c, 0, 67, 0
4, 201840, Note_on_c, 0, 64, 0
4, 201840, Note_on_c, 0, 67, 75
4, 201840, Note_on_c, 0, 70, 75
4, 202080, Note_on_c, 0, 70, 0
4, 202080, Note_on_c, 0, 67, 0
4, 202080, Note_on_c, 0, 70, 88
4, 202080, Note_on_c, 0, 73, 88
4, 202320, Note_on_c, 0, 73, 0
4, 202320, Note_on_c, 0, 70, 0
4, 202320, Note_on_c, 0, 73, 88
4, 202320, Note_on_c, 0, 76, 88
4, 202560, Note_on_c, 0, 76, 0
4, 202560, Note_on_c, 0, 73, 0
4, 202560, Note_on_c, 0, 72, 114
4, 202560, Note_on_c, 0, 76, 114
4, 202800, Note_on_c, 0, 76, 0
4, 202800, Note_on_c, 0, 72, 0
4, 202800, Note_on_c, 0, 71, 114
4, 202800, Note_on_c, 0, 76, 114
4, 203040, Note_on_c, 0, 76, 0
4, 203040, Note_on_c, 0, 71, 0
4, 203040, Control_c, 0, 64, 127
4, 203040, Note_on_c, 0, 35, 114
4, 203120, Note_on_c, 0, 35, 0
4, 203120, Note_on_c, 0, 47, 114
4, 203199, Note_on_c, 0, 47, 0
4, 203199, Note_on_c, 0, 35, 88
4, 203280, Note_on_c, 0, 35, 0
4, 203280, Note_on_c, 0, 47, 88
4, 203360, Note_on_c, 0, 47, 0
4, 203360, Note_on_c, 0, 35, 88
4, 203439, Note_on_c, 0, 35, 0
4, 203439, Control_c, 0, 64, 0
4, 203439, Note_on_c, 0, 47, 88
4, 203520, Note_on_c, 0, 47, 0
4, 203520, Control_c, 0, 64, 127
4, 203520, Note_on_c, 0, 35, 88
4, 203600, Note_on_c, 0, 35, 0
4, 203600, Note_on_c, 0, 47, 88
4, 203679, Note_on_c, 0, 47, 0
4, 203679, Note_on_c, 0, 35, 88
4, 203760, Note_on_c, 0, 35, 0
4, 203760, Note_on_c, 0, 47, 88
4, 203840, Note_on_c, 0, 47, 0
4, 203840, Note_on_c, 0, 35, 88
4, 203919, Note_on_c, 0, 35, 0
4, 203919, Control_c, 0, 64, 0
4, 203919, Note_on_c, 0, 47, 88
4, 204000, Note_on_c, 0, 47, 0
4, 204000, Control_c, 0, 64, 127
4, 204000, Note_on_c, 0, 35, 88
4, 204080, Note_on_c, 0, 35, 0
4, 204080, Note_on_c, 0, 47, 88
4, 204159, Note_on_c, 0, 47, 0
4, 204159, Note_on_c, 0, 35, 88
4, 204240, Note_on_c, 0, 35, 0
4, 204240, Note_on_c, 0, 47, 88
4, 204320, Note_on_c, 0, 47, 0
4, 204320, Note_on_c, 0, 35, 88
4, 204399, Note_on_c, 0, 35, 0
4, 204399, Control_c, 0, 64, 0
4, 204399, Note_on_c, 0, 47, 88
4, 204480, Note_on_c, 0, 47, 0
4, 204480, Control_c, 0, 64, 127
4, 204480, Note_on_c, 0, 35, 88
4, 204560, Note_on_c, 0, 35, 0
4, 204560, Note_on_c, 0, 47, 88
4, 204639, Note_on_c, 0, 47, 0
4, 204639, Note_on_c, 0, 35, 88
4, 204720, Note_on_c, 0, 35, 0
4, 204720, Note_on_c, 0, 47, 88
4, 204800, Note_on_c, 0, 47, 0
4, 204800, Note_on_c, 0, 35, 88
4, 204879, Note_on_c, 0, 35, 0
4, 204879, Control_c, 0, 64, 0
4, 204879, Note_on_c, 0, 47, 88
4, 204960, Note_on_c, 0, 47, 0
4, 204960, Control_c, 0, 64, 127
4, 204960, Note_on_c, 0, 35, 88
4, 205040, Note_on_c, 0, 35, 0
4, 205040, Note_on_c, 0, 47, 88
4, 205119, Note_on_c, 0, 47, 0
4, 205119, Note_on_c, 0, 35, 88
4, 205200, Note_on_c, 0, 35, 0
4, 205200, Note_on_c, 0, 47, 88
4, 205280, Note_on_c, 0, 47, 0
4, 205280, Note_on_c, 0, 35, 88
4, 205359, Note_on_c, 0, 35, 0
4, 205359, Control_c, 0, 64, 0
4, 205359, Note_on_c, 0, 47, 88
4, 205440, Note_on_c, 0, 47, 0
4, 205440, Control_c, 0, 64, 127
4, 205440, Note_on_c, 0, 35, 88
4, 205520, Note_on_c, 0, 35, 0
4, 205520, Note_on_c, 0, 47, 88
4, 205599, Note_on_c, 0, 47, 0
4, 205599, Note_on_c, 0, 35, 88
4, 205680, Note_on_c, 0, 35, 0
4, 205680, Note_on_c, 0, 47, 88
4, 205760, Note_on_c, 0, 47, 0
4, 205760, Note_on_c, 0, 35, 88
4, 205839, Note_on_c, 0, 35, 0
4, 205839, Control_c, 0, 64, 0
4, 205839, Note_on_c, 0, 47, 88
4, 205920, Note_on_c, 0, 47, 0
4, 205920, Control_c, 0, 64, 127
4, 205920, Note_on_c, 0, 35, 88
4, 206000, Note_on_c, 0, 35, 0
4, 206000, Note_on_c, 0, 47, 88
4, 206079, Note_on_c, 0, 47, 0
4, 206079, Note_on_c, 0, 35, 88
4, 206160, Note_on_c, 0, 35, 0
4, 206160, Note_on_c, 0, 47, 88
4, 206240, Note_on_c, 0, 47, 0
4, 206240, Note_on_c, 0, 35, 88
4, 206319, Note_on_c, 0, 35, 0
4, 206319, Control_c, 0, 64, 0
4, 206319, Note_on_c, 0, 47, 88
4, 206400, Note_on_c, 0, 47, 0
4, 206400, Note_on_c, 0, 35, 88
4, 206559, Note_on_c, 0, 35, 0
4, 206559, Note_on_c, 0, 52, 49
4, 206559, Note_on_c, 0, 55, 49
4, 206720, Note_on_c, 0, 55, 0
4, 206720, Note_on_c, 0, 52, 0
4, 206720, Note_on_c, 0, 52, 49
4, 206720, Note_on_c, 0, 55, 49
4, 206880, Note_on_c, 0, 55, 0
4, 206880, Note_on_c, 0, 52, 0
4, 206880, Note_on_c, 0, 52, 49
4, 206880, Note_on_c, 0, 55, 49
4, 207039, Note_on_c, 0, 55, 0
4, 207039, Note_on_c, 0, 52, 0
4, 207039, Note_on_c, 0, 52, 49
4, 207039, Note_on_c, 0, 55, 49
4, 207200, Note_on_c, 0, 55, 0
4, 207200, Note_on_c, 0, 52, 0
4, 207200, Note_on_c, 0, 52, 49
4, 207200, Note_on_c, 0, 55, 49
4, 207360, Note_on_c, 0, 55, 0
4, 207360, Note_on_c, 0, 52, 0
4, 207360, Note_on_c, 0, 52, 49
4, 207360, Note_on_c, 0, 55, 49
4, 207519, Note_on_c, 0, 55, 0
4, 207519, Note_on_c, 0, 52, 0
4, 207519, Note_on_c, 0, 52, 49
4, 207519, Note_on_c, 0, 55, 49
4, 207680, Note_on_c, 0, 55, 0
4, 207680, Note_on_c, 0, 52, 0
4, 207680, Note_on_c, 0, 52, 49
4, 207680, Note_on_c, 0, 55, 49
4, 207840, Note_on_c, 0, 55, 0
4, 207840, Note_on_c, 0, 52, 0
4, 207840, Note_on_c, 0, 52, 49
4, 207840, Note_on_c, 0, 55, 49
4, 207999, Note_on_c, 0, 55, 0
4, 207999, Note_on_c, 0, 52, 0
4, 207999, Note_on_c, 0, 52, 49
4, 207999, Note_on_c, 0, 55, 49
4, 208160, Note_on_c, 0, 55, 0
4, 208160, Note_on_c, 0, 52, 0
4, 208160, Note_on_c, 0, 52, 49
4, 208160, Note_on_c, 0, 55, 49
4, 208320, Note_on_c, 0, 55, 0
4, 208320, Note_on_c, 0, 52, 0
4, 208320, Note_on_c, 0, 52, 49
4, 208320, Note_on_c, 0, 55, 49
4, 208479, Note_on_c, 0, 55, 0
4, 208479, Note_on_c, 0, 52, 0
4, 208479, Note_on_c, 0, 52, 49
4, 208479, Note_on_c, 0, 55, 49
4, 208640, Note_on_c, 0, 55, 0
4, 208640, Note_on_c, 0, 52, 0
4, 208640, Note_on_c, 0, 52, 49
4, 208640, Note_on_c, 0, 55, 49
4, 208800, Note_on_c, 0, 55, 0
4, 208800, Note_on_c, 0, 52, 0
4, 208800, Note_on_c, 0, 52, 49
4, 208800, Note_on_c, 0, 55, 49
4, 208959, Note_on_c, 0, 55, 0
4, 208959, Note_on_c, 0, 52, 0
4, 208959, Note_on_c, 0, 52, 49
4, 208959, Note_on_c, 0, 55, 49
4, 209120, Note_on_c, 0, 55, 0
4, 209120, Note_on_c, 0, 52, 0
4, 209120, Note_on_c, 0, 52, 49
4, 209120, Note_on_c, 0, 55, 49
4, 209280, Note_on_c, 0, 55, 0
4, 209280, Note_on_c, 0, 52, 0
4, 209280, Note_on_c, 0, 54, 49
4, 209280, Note_on_c, 0, 57, 49
4, 209280, Note_on_c, 0, 59, 49
4, 209439, Note_on_c, 0, 59, 0
4, 209439, Note_on_c, 0, 57, 0
4, 209439, Note_on_c, 0, 54, 0
4, 209439, Note_on_c, 0, 54, 49
4, 209439, Note_on_c, 0, 57, 49
4, 209439, Note_on_c, 0, 59, 49
4, 209600, Note_on_c, 0, 59, 0
4, 209600, Note_on_c, 0, 57, 0
4, 209600, Note_on_c, 0, 54, 0
4, 209600, Note_on_c, 0, 54, 49
4, 209600, Note_on_c, 0, 57, 49
4, 209600, Note_on_c, 0, 59, 49
4, 209760, Note_on_c, 0, 59, 0
4, 209760, Note_on_c, 0, 57, 0
4, 209760, Note_on_c, 0, 54, 0
4, 209760, Note_on_c, 0, 54, 49
4, 209760, Note_on_c, 0, 57, 49
4, 209760, Note_on_c, 0, 59, 49
4, 209919, Note_on_c, 0, 59, 0
4, 209919, Note_on_c, 0, 57, 0
4, 209919, Note_on_c, 0, 54, 0
4, 209919, Note_on_c, 0, 54, 49
4, 209919, Note_on_c, 0, 57, 49
4, 209919, Note_on_c, 0, 59, 49
4, 210080, Note_on_c, 0, 59, 0
4, 210080, Note_on_c, 0, 57, 0
4, 210080, Note_on_c, 0, 54, 0
4, 210080, Note_on_c, 0, 54, 49
4, 210080, Note_on_c, 0, 57, 49
4, 210080, Note_on_c, 0, 59, 49
4, 210240, Note_on_c, 0, 59, 0
4, 210240, Note_on_c, 0, 57, 0
4, 210240, Note_on_c, 0, 54, 0
4, 210240, Note_on_c, 0, 54, 49
4, 210240, Note_on_c, 0, 57, 49
4, 210240, Note_on_c, 0, 59, 49
4, 210399, Note_on_c, 0, 59, 0
4, 210399, Note_on_c, 0, 57, 0
4, 210399, Note_on_c, 0, 54, 0
4, 210399, Note_on_c, 0, 54, 49
4, 210399, Note_on_c, 0, 57, 49
4, 210399, Note_on_c, 0, 59, 49
4, 210560, Note_on_c, 0, 59, 0
4, 210560, Note_on_c, 0, 57, 0
4, 210560, Note_on_c, 0, 54, 0
4, 210560, Note_on_c, 0, 54, 49
4, 210560, Note_on_c, 0, 57, 49
4, 210560, Note_on_c, 0, 59, 49
4, 210720, Note_on_c, 0, 59, 0
4, 210720, Note_on_c, 0, 57, 0
4, 210720, Note_on_c, 0, 54, 0
4, 210720, Note_on_c, 0, 54, 49
4, 210720, Note_on_c, 0, 57, 49
4, 210720, Note_on_c, 0, 59, 49
4, 210879, Note_on_c, 0, 59, 0
4, 210879, Note_on_c, 0, 57, 0
4, 210879, Note_on_c, 0, 54, 0
4, 210879, Note_on_c, 0, 54, 49
4, 210879, Note_on_c, 0, 57, 49
4, 210879, Note_on_c, 0, 59, 49
4, 211040, Note_on_c, 0, 59, 0
4, 211040, Note_on_c, 0, 57, 0
4, 211040, Note_on_c, 0, 54, 0
4, 211040, Note_on_c, 0, 54, 49
4, 211040, Note_on_c, 0, 57, 49
4, 211040, Note_on_c, 0, 59, 49
4, 211200, Note_on_c, 0, 59, 0
4, 211200, Note_on_c, 0, 57, 0
4, 211200, Note_on_c, 0, 54, 0
4, 211200, Note_on_c, 0, 52, 49
4, 211200, Note_on_c, 0, 55, 49
4, 211200, Note_on_c, 0, 59, 49
4, 211200, Note_on_c, 0, 61, 49
4, 211359, Note_on_c, 0, 61, 0
4, 211359, Note_on_c, 0, 52, 0
4, 211359, Note_on_c, 0, 55, 0
4, 211359, Note_on_c, 0, 59, 0
4, 211359, Note_on_c, 0, 52, 49
4, 211359, Note_on_c, 0, 55, 49
4, 211359, Note_on_c, 0, 59, 49
4, 211359, Note_on_c, 0, 61, 49
4, 211520, Note_on_c, 0, 61, 0
4, 211520, Note_on_c, 0, 52, 0
4, 211520, Note_on_c, 0, 55, 0
4, 211520, Note_on_c, 0, 59, 0
4, 211520, Note_on_c, 0, 52, 49
4, 211520, Note_on_c, 0, 55, 49
4, 211520, Note_on_c, 0, 59, 49
4, 211520, Note_on_c, 0, 61, 49
4, 211680, Note_on_c, 0, 61, 0
4, 211680, Note_on_c, 0, 52, 0
4, 211680, Note_on_c, 0, 55, 0
4, 211680, Note_on_c, 0, 59, 0
4, 211680, Note_on_c, 0, 52, 49
4, 211680, Note_on_c, 0, 55, 49
4, 211680, Note_on_c, 0, 59, 49
4, 211680, Note_on_c, 0, 61, 49
4, 211839, Note_on_c, 0, 61, 0
4, 211839, Note_on_c, 0, 52, 0
4, 211839, Note_on_c, 0, 55, 0
4, 211839, Note_on_c, 0, 59, 0
4, 211839, Note_on_c, 0, 52, 49
4, 211839, Note_on_c, 0, 55, 49
4, 211839, Note_on_c, 0, 59, 49
4, 211839, Note_on_c, 0, 61, 49
4, 212000, Note_on_c, 0, 61, 0
4, 212000, Note_on_c, 0, 52, 0
4, 212000, Note_on_c, 0, 55, 0
4, 212000, Note_on_c, 0, 59, 0
4, 212000, Note_on_c, 0, 52, 49
4, 212000, Note_on_c, 0, 55, 49
4, 212000, Note_on_c, 0, 59, 49
4, 212000, Note_on_c, 0, 61, 49
4, 212160, Note_on_c, 0, 61, 0
4, 212160, Note_on_c, 0, 52, 0
4, 212160, Note_on_c, 0, 55, 0
4, 212160, Note_on_c, 0, 59, 0
4, 212160, Note_on_c, 0, 52, 49
4, 212160, Note_on_c, 0, 55, 49
4, 212160, Note_on_c, 0, 59, 49
4, 212160, Note_on_c, 0, 61, 49
4, 212319, Note_on_c, 0, 61, 0
4, 212319, Note_on_c, 0, 52, 0
4, 212319, Note_on_c, 0, 55, 0
4, 212319, Note_on_c, 0, 59, 0
4, 212319, Note_on_c, 0, 52, 49
4, 212319, Note_on_c, 0, 55, 49
4, 212319, Note_on_c, 0, 59, 49
4, 212319, Note_on_c, 0, 61, 49
4, 212480, Note_on_c, 0, 61, 0
4, 212480, Note_on_c, 0, 52, 0
4, 212480, Note_on_c, 0, 55, 0
4, 212480, Note_on_c, 0, 59, 0
4, 212480, Note_on_c, 0, 52, 49
4, 212480, Note_on_c, 0, 55, 49
4, 212480, Note_on_c, 0, 59, 49
4, 212480, Note_on_c, 0, 61, 49
4, 212640, Note_on_c, 0, 61, 0
4, 212640, Note_on_c, 0, 52, 0
4, 212640, Note_on_c, 0, 55, 0
4, 212640, Note_on_c, 0, 59, 0
4, 212640, Note_on_c, 0, 52, 49
4, 212640, Note_on_c, 0, 55, 49
4, 212640, Note_on_c, 0, 59, 49
4, 212640, Note_on_c, 0, 61, 49
4, 212799, Note_on_c, 0, 61, 0
4, 212799, Note_on_c, 0, 52, 0
4, 212799, Note_on_c, 0, 55, 0
4, 212799, Note_on_c, 0, 59, 0
4, 212799, Note_on_c, 0, 52, 49
4, 212799, Note_on_c, 0, 55, 49
4, 212799, Note_on_c, 0, 59, 49
4, 212799, Note_on_c, 0, 61, 49
4, 212960, Note_on_c, 0, 61, 0
4, 212960, Note_on_c, 0, 52, 0
4, 212960, Note_on_c, 0, 55, 0
4, 212960, Note_on_c, 0, 59, 0
4, 212960, Note_on_c, 0, 52, 49
4, 212960, Note_on_c, 0, 55, 49
4, 212960, Note_on_c, 0, 59, 49
4, 212960, Note_on_c, 0, 61, 49
4, 213120, Note_on_c, 0, 61, 0
4, 213120, Note_on_c, 0, 52, 0
4, 213120, Note_on_c, 0, 55, 0
4, 213120, Note_on_c, 0, 59, 0
4, 213120, Note_on_c, 0, 51, 62
4, 213120, Note_on_c, 0, 54, 62
4, 213120, Note_on_c, 0, 59, 62
4, 213279, Note_on_c, 0, 59, 0
4, 213279, Note_on_c, 0, 54, 0
4, 213279, Note_on_c, 0, 51, 0
4, 213279, Note_on_c, 0, 51, 62
4, 213279, Note_on_c, 0, 54, 62
4, 213279, Note_on_c, 0, 59, 62
4, 213440, Note_on_c, 0, 59, 0
4, 213440, Note_on_c, 0, 54, 0
4, 213440, Note_on_c, 0, 51, 0
4, 213440, Note_on_c, 0, 51, 62
4, 213440, Note_on_c, 0, 54, 62
4, 213440, Note_on_c, 0, 59, 62
4, 213600, Note_on_c, 0, 59, 0
4, 213600, Note_on_c, 0, 54, 0
4, 213600, Note_on_c, 0, 51, 0
4, 213600, Note_on_c, 0, 51, 62
4, 213600, Note_on_c, 0, 54, 62
4, 213600, Note_on_c, 0, 59, 62
4, 213759, Note_on_c, 0, 59, 0
4, 213759, Note_on_c, 0, 54, 0
4, 213759, Note_on_c, 0, 51, 0
4, 213759, Note_on_c, 0, 51, 62
4, 213759, Note_on_c, 0, 54, 62
4, 213759, Note_on_c, 0, 59, 62
4, 213920, Note_on_c, 0, 59, 0
4, 213920, Note_on_c, 0, 54, 0
4, 213920, Note_on_c, 0, 51, 0
4, 213920, Note_on_c, 0, 51, 62
4, 213920, Note_on_c, 0, 54, 62
4, 213920, Note_on_c, 0, 59, 62
4, 214080, Note_on_c, 0, 59, 0
4, 214080, Note_on_c, 0, 54, 0
4, 214080, Note_on_c, 0, 51, 0
4, 214080, Note_on_c, 0, 51, 49
4, 214080, Note_on_c, 0, 54, 49
4, 214080, Note_on_c, 0, 59, 49
4, 214239, Note_on_c, 0, 59, 0
4, 214239, Note_on_c, 0, 54, 0
4, 214239, Note_on_c, 0, 51, 0
4, 214239, Note_on_c, 0, 51, 49
4, 214239, Note_on_c, 0, 54, 49
4, 214239, Note_on_c, 0, 59, 49
4, 214400, Note_on_c, 0, 59, 0
4, 214400, Note_on_c, 0, 54, 0
4, 214400, Note_on_c, 0, 51, 0
4, 214400, Note_on_c, 0, 51, 49
4, 214400, Note_on_c, 0, 54, 49
4, 214400, Note_on_c, 0, 59, 49
4, 214560, Note_on_c, 0, 59, 0
4, 214560, Note_on_c, 0, 54, 0
4, 214560, Note_on_c, 0, 51, 0
4, 214560, Note_on_c, 0, 51, 49
4, 214560, Note_on_c, 0, 54, 49
4, 214560, Note_on_c, 0, 59, 49
4, 214719, Note_on_c, 0, 59, 0
4, 214719, Note_on_c, 0, 54, 0
4, 214719, Note_on_c, 0, 51, 0
4, 214719, Note_on_c, 0, 51, 49
4, 214719, Note_on_c, 0, 54, 49
4, 214719, Note_on_c, 0, 59, 49
4, 214880, Note_on_c, 0, 59, 0
4, 214880, Note_on_c, 0, 54, 0
4, 214880, Note_on_c, 0, 51, 0
4, 214880, Note_on_c, 0, 51, 49
4, 214880, Note_on_c, 0, 54, 49
4, 214880, Note_on_c, 0, 59, 49
4, 215040, Note_on_c, 0, 59, 0
4, 215040, Note_on_c, 0, 54, 0
4, 215040, Note_on_c, 0, 51, 0
4, 215040, Note_on_c, 0, 50, 49
4, 215040, Note_on_c, 0, 52, 49
4, 215040, Note_on_c, 0, 56, 49
4, 215040, Note_on_c, 0, 59, 49
4, 215199, Note_on_c, 0, 59, 0
4, 215199, Note_on_c, 0, 50, 0
4, 215199, Note_on_c, 0, 52, 0
4, 215199, Note_on_c, 0, 56, 0
4, 215199, Note_on_c, 0, 50, 49
4, 215199, Note_on_c, 0, 52, 49
4, 215199, Note_on_c, 0, 56, 49
4, 215199, Note_on_c, 0, 59, 49
4, 215360, Note_on_c, 0, 59, 0
4, 215360, Note_on_c, 0, 50, 0
4, 215360, Note_on_c, 0, 52, 0
4, 215360, Note_on_c, 0, 56, 0
4, 215360, Note_on_c, 0, 50, 49
4, 215360, Note_on_c, 0, 52, 49
4, 215360, Note_on_c, 0, 56, 49
4, 215360, Note_on_c, 0, 59, 49
4, 215520, Note_on_c, 0, 59, 0
4, 215520, Note_on_c, 0, 50, 0
4, 215520, Note_on_c, 0, 52, 0
4, 215520, Note_on_c, 0, 56, 0
4, 215520, Note_on_c, 0, 50, 49
4, 215520, Note_on_c, 0, 52, 49
4, 215520, Note_on_c, 0, 56, 49
4, 215520, Note_on_c, 0, 59, 49
4, 215679, Note_on_c, 0, 59, 0
4, 215679, Note_on_c, 0, 50, 0
4, 215679, Note_on_c, 0, 52, 0
4, 215679, Note_on_c, 0, 56, 0
4, 215679, Note_on_c, 0, 50, 49
4, 215679, Note_on_c, 0, 52, 49
4, 215679, Note_on_c, 0, 56, 49
4, 215679, Note_on_c, 0, 59, 49
4, 215840, Note_on_c, 0, 59, 0
4, 215840, Note_on_c, 0, 50, 0
4, 215840, Note_on_c, 0, 52, 0
4, 215840, Note_on_c, 0, 56, 0
4, 215840, Note_on_c, 0, 50, 49
4, 215840, Note_on_c, 0, 52, 49
4, 215840, Note_on_c, 0, 56, 49
4, 215840, Note_on_c, 0, 59, 49
4, 216000, Note_on_c, 0, 59, 0
4, 216000, Note_on_c, 0, 50, 0
4, 216000, Note_on_c, 0, 52, 0
4, 216000, Note_on_c, 0, 56, 0
4, 216000, Note_on_c, 0, 50, 49
4, 216000, Note_on_c, 0, 52, 49
4, 216000, Note_on_c, 0, 56, 49
4, 216000, Note_on_c, 0, 59, 49
4, 216159, Note_on_c, 0, 59, 0
4, 216159, Note_on_c, 0, 50, 0
4, 216159, Note_on_c, 0, 52, 0
4, 216159, Note_on_c, 0, 56, 0
4, 216159, Note_on_c, 0, 50, 49
4, 216159, Note_on_c, 0, 52, 49
4, 216159, Note_on_c, 0, 56, 49
4, 216159, Note_on_c, 0, 59, 49
4, 216320, Note_on_c, 0, 59, 0
4, 216320, Note_on_c, 0, 50, 0
4, 216320, Note_on_c, 0, 52, 0
4, 216320, Note_on_c, 0, 56, 0
4, 216320, Note_on_c, 0, 50, 49
4, 216320, Note_on_c, 0, 52, 49
4, 216320, Note_on_c, 0, 56, 49
4, 216320, Note_on_c, 0, 59, 49
4, 216480, Note_on_c, 0, 59, 0
4, 216480, Note_on_c, 0, 50, 0
4, 216480, Note_on_c, 0, 52, 0
4, 216480, Note_on_c, 0, 56, 0
4, 216480, Note_on_c, 0, 50, 49
4, 216480, Note_on_c, 0, 52, 49
4, 216480, Note_on_c, 0, 56, 49
4, 216480, Note_on_c, 0, 59, 49
4, 216639, Note_on_c, 0, 59, 0
4, 216639, Note_on_c, 0, 50, 0
4, 216639, Note_on_c, 0, 52, 0
4, 216639, Note_on_c, 0, 56, 0
4, 216639, Note_on_c, 0, 50, 49
4, 216639, Note_on_c, 0, 52, 49
4, 216639, Note_on_c, 0, 56, 49
4, 216639, Note_on_c, 0, 59, 49
4, 216800, Note_on_c, 0, 59, 0
4, 216800, Note_on_c, 0, 50, 0
4, 216800, Note_on_c, 0, 52, 0
4, 216800, Note_on_c, 0, 56, 0
4, 216800, Note_on_c, 0, 50, 49
4, 216800, Note_on_c, 0, 52, 49
4, 216800, Note_on_c, 0, 56, 49
4, 216800, Note_on_c, 0, 59, 49
4, 216960, Note_on_c, 0, 59, 0
4, 216960, Note_on_c, 0, 50, 0
4, 216960, Note_on_c, 0, 52, 0
4, 216960, Note_on_c, 0, 56, 0
4, 216960, Note_on_c, 0, 48, 49
4, 216960, Note_on_c, 0, 52, 49
4, 216960, Note_on_c, 0, 57, 49
4, 217119, Note_on_c, 0, 57, 0
4, 217119, Note_on_c, 0, 52, 0
4, 217119, Note_on_c, 0, 48, 0
4, 217119, Note_on_c, 0, 48, 49
4, 217119, Note_on_c, 0, 52, 49
4, 217119, Note_on_c, 0, 57, 49
4, 217280, Note_on_c, 0, 57, 0
4, 217280, Note_on_c, 0, 52, 0
4, 217280, Note_on_c, 0, 48, 0
4, 217280, Note_on_c, 0, 48, 49
4, 217280, Note_on_c, 0, 52, 49
4, 217280, Note_on_c, 0, 57, 49
4, 217440, Note_on_c, 0, 57, 0
4, 217440, Note_on_c, 0, 52, 0
4, 217440, Note_on_c, 0, 48, 0
4, 217440, Note_on_c, 0, 48, 49
4, 217440, Note_on_c, 0, 52, 49
4, 217440, Note_on_c, 0, 57, 49
4, 217599, Note_on_c, 0, 57, 0
4, 217599, Note_on_c, 0, 52, 0
4, 217599, Note_on_c, 0, 48, 0
4, 217599, Note_on_c, 0, 48, 49
4, 217599, Note_on_c, 0, 52, 49
4, 217599, Note_on_c, 0, 57, 49
4, 217760, Note_on_c, 0, 57, 0
4, 217760, Note_on_c, 0, 52, 0
4, 217760, Note_on_c, 0, 48, 0
4, 217760, Note_on_c, 0, 48, 49
4, 217760, Note_on_c, 0, 52, 49
4, 217760, Note_on_c, 0, 57, 49
4, 217920, Note_on_c, 0, 57, 0
4, 217920, Note_on_c, 0, 52, 0
4, 217920, Note_on_c, 0, 48, 0
4, 217920, Note_on_c, 0, 48, 49
4, 217920, Note_on_c, 0, 52, 49
4, 217920, Note_on_c, 0, 57, 49
4, 218079, Note_on_c, 0, 57, 0
4, 218079, Note_on_c, 0, 52, 0
4, 218079, Note_on_c, 0, 48, 0
4, 218079, Note_on_c, 0, 48, 49
4, 218079, Note_on_c, 0, 52, 49
4, 218079, Note_on_c, 0, 57, 49
4, 218240, Note_on_c, 0, 57, 0
4, 218240, Note_on_c, 0, 52, 0
4, 218240, Note_on_c, 0, 48, 0
4, 218240, Note_on_c, 0, 48, 49
4, 218240, Note_on_c, 0, 52, 49
4, 218240, Note_on_c, 0, 57, 49
4, 218400, Note_on_c, 0, 57, 0
4, 218400, Note_on_c, 0, 52, 0
4, 218400, Note_on_c, 0, 48, 0
4, 218400, Note_on_c, 0, 48, 49
4, 218400, Note_on_c, 0, 52, 49
4, 218400, Note_on_c, 0, 57, 49
4, 218559, Note_on_c, 0, 57, 0
4, 218559, Note_on_c, 0, 52, 0
4, 218559, Note_on_c, 0, 48, 0
4, 218559, Note_on_c, 0, 48, 49
4, 218559, Note_on_c, 0, 52, 49
4, 218559, Note_on_c, 0, 57, 49
4, 218720, Note_on_c, 0, 57, 0
4, 218720, Note_on_c, 0, 52, 0
4, 218720, Note_on_c, 0, 48, 0
4, 218720, Note_on_c, 0, 48, 49
4, 218720, Note_on_c, 0, 52, 49
4, 218720, Note_on_c, 0, 57, 49
4, 218880, Note_on_c, 0, 57, 0
4, 218880, Note_on_c, 0, 52, 0
4, 218880, Note_on_c, 0, 48, 0
4, 218880, Note_on_c, 0, 46, 49
4, 218880, Note_on_c, 0, 49, 49
4, 218880, Note_on_c, 0, 52, 49
4, 218880, Note_on_c, 0, 55, 49
4, 219039, Note_on_c, 0, 55, 0
4, 219039, Note_on_c, 0, 46, 0
4, 219039, Note_on_c, 0, 49, 0
4, 219039, Note_on_c, 0, 52, 0
4, 219039, Note_on_c, 0, 46, 49
4, 219039, Note_on_c, 0, 49, 49
4, 219039, Note_on_c, 0, 52, 49
4, 219039, Note_on_c, 0, 55, 49
4, 219200, Note_on_c, 0, 55, 0
4, 219200, Note_on_c, 0, 46, 0
4, 219200, Note_on_c, 0, 49, 0
4, 219200, Note_on_c, 0, 52, 0
4, 219200, Note_on_c, 0, 46, 49
4, 219200, Note_on_c, 0, 49, 49
4, 219200, Note_on_c, 0, 52, 49
4, 219200, Note_on_c, 0, 55, 49
4, 219360, Note_on_c, 0, 55, 0
4, 219360, Note_on_c, 0, 46, 0
4, 219360, Note_on_c, 0, 49, 0
4, 219360, Note_on_c, 0, 52, 0
4, 219360, Note_on_c, 0, 46, 49
4, 219360, Note_on_c, 0, 49, 49
4, 219360, Note_on_c, 0, 52, 49
4, 219360, Note_on_c, 0, 55, 49
4, 219519, Note_on_c, 0, 55, 0
4, 219519, Note_on_c, 0, 46, 0
4, 219519, Note_on_c, 0, 49, 0
4, 219519, Note_on_c, 0, 52, 0
4, 219519, Note_on_c, 0, 46, 49
4, 219519, Note_on_c, 0, 49, 49
4, 219519, Note_on_c, 0, 52, 49
4, 219519, Note_on_c, 0, 55, 49
4, 219680, Note_on_c, 0, 55, 0
4, 219680, Note_on_c, 0, 46, 0
4, 219680, Note_on_c, 0, 49, 0
4, 219680, Note_on_c, 0, 52, 0
4, 219680, Note_on_c, 0, 46, 49
4, 219680, Note_on_c, 0, 49, 49
4, 219680, Note_on_c, 0, 52, 49
4, 219680, Note_on_c, 0, 55, 49
4, 219840, Note_on_c, 0, 55, 0
4, 219840, Note_on_c, 0, 46, 0
4, 219840, Note_on_c, 0, 49, 0
4, 219840, Note_on_c, 0, 52, 0
4, 219840, Note_on_c, 0, 46, 49
4, 219840, Note_on_c, 0, 49, 49
4, 219840, Note_on_c, 0, 52, 49
4, 219840, Note_on_c, 0, 55, 49
4, 219999, Note_on_c, 0, 55, 0
4, 219999, Note_on_c, 0, 46, 0
4, 219999, Note_on_c, 0, 49, 0
4, 219999, Note_on_c, 0, 52, 0
4, 219999, Note_on_c, 0, 46, 49
4, 219999, Note_on_c, 0, 49, 49
4, 219999, Note_on_c, 0, 52, 49
4, 219999, Note_on_c, 0, 55, 49
4, 220160, Note_on_c, 0, 55, 0
4, 220160, Note_on_c, 0, 46, 0
4, 220160, Note_on_c, 0, 49, 0
4, 220160, Note_on_c, 0, 52, 0
4, 220160, Note_on_c, 0, 46, 49
4, 220160, Note_on_c, 0, 49, 49
4, 220160, Note_on_c, 0, 52, 49
4, 220160, Note_on_c, 0, 55, 49
4, 220320, Note_on_c, 0, 55, 0
4, 220320, Note_on_c, 0, 46, 0
4, 220320, Note_on_c, 0, 49, 0
4, 220320, Note_on_c, 0, 52, 0
4, 220320, Note_on_c, 0, 46, 49
4, 220320, Note_on_c, 0, 49, 49
4, 220320, Note_on_c, 0, 52, 49
4, 220320, Note_on_c, 0, 55, 49
4, 220479, Note_on_c, 0, 55, 0
4, 220479, Note_on_c, 0, 46, 0
4, 220479, Note_on_c, 0, 49, 0
4, 220479, Note_on_c, 0, 52, 0
4, 220479, Note_on_c, 0, 46, 49
4, 220479, Note_on_c, 0, 49, 49
4, 220479, Note_on_c, 0, 52, 49
4, 220479, Note_on_c, 0, 55, 49
4, 220640, Note_on_c, 0, 55, 0
4, 220640, Note_on_c, 0, 46, 0
4, 220640, Note_on_c, 0, 49, 0
4, 220640, Note_on_c, 0, 52, 0
4, 220640, Note_on_c, 0, 46, 49
4, 220640, Note_on_c, 0, 49, 49
4, 220640, Note_on_c, 0, 52, 49
4, 220640, Note_on_c, 0, 55, 49
4, 220800, Note_on_c, 0, 55, 0
4, 220800, Note_on_c, 0, 46, 0
4, 220800, Note_on_c, 0, 49, 0
4, 220800, Note_on_c, 0, 52, 0
4, 220800, Note_on_c, 0, 45, 49
4, 220800, Note_on_c, 0, 47, 49
4, 220800, Note_on_c, 0, 51, 49
4, 220800, Note_on_c, 0, 54, 49
4, 220959, Note_on_c, 0, 54, 0
4, 220959, Note_on_c, 0, 45, 0
4, 220959, Note_on_c, 0, 47, 0
4, 220959, Note_on_c, 0, 51, 0
4, 220959, Note_on_c, 0, 45, 49
4, 220959, Note_on_c, 0, 47, 49
4, 220959, Note_on_c, 0, 51, 49
4, 220959, Note_on_c, 0, 54, 49
4, 221120, Note_on_c, 0, 54, 0
4, 221120, Note_on_c, 0, 45, 0
4, 221120, Note_on_c, 0, 47, 0
4, 221120, Note_on_c, 0, 51, 0
4, 221120, Note_on_c, 0, 45, 49
4, 221120, Note_on_c, 0, 47, 49
4, 221120, Note_on_c, 0, 51, 49
4, 221120, Note_on_c, 0, 54, 49
4, 221280, Note_on_c, 0, 54, 0
4, 221280, Note_on_c, 0, 45, 0
4, 221280, Note_on_c, 0, 47, 0
4, 221280, Note_on_c, 0, 51, 0
4, 221280, Note_on_c, 0, 45, 49
4, 221280, Note_on_c, 0, 47, 49
4, 221280, Note_on_c, 0, 51, 49
4, 221280, Note_on_c, 0, 54, 49
4, 221439, Note_on_c, 0, 54, 0
4, 221439, Note_on_c, 0, 45, 0
4, 221439, Note_on_c, 0, 47, 0
4, 221439, Note_on_c, 0, 51, 0
4, 221439, Note_on_c, 0, 45, 49
4, 221439, Note_on_c, 0, 47, 49
4, 221439, Note_on_c, 0, 51, 49
4, 221439, Note_on_c, 0, 54, 49
4, 221600, Note_on_c, 0, 54, 0
4, 221600, Note_on_c, 0, 45, 0
4, 221600, Note_on_c, 0, 47, 0
4, 221600, Note_on_c, 0, 51, 0
4, 221600, Note_on_c, 0, 45, 49
4, 221600, Note_on_c, 0, 47, 49
4, 221600, Note_on_c, 0, 51, 49
4, 221600, Note_on_c, 0, 54, 49
4, 221760, Note_on_c, 0, 54, 0
4, 221760, Note_on_c, 0, 45, 0
4, 221760, Note_on_c, 0, 47, 0
4, 221760, Note_on_c, 0, 51, 0
4, 221760, Note_on_c, 0, 45, 49
4, 221760, Note_on_c, 0, 47, 49
4, 221760, Note_on_c, 0, 51, 49
4, 221760, Note_on_c, 0, 54, 49
4, 221919, Note_on_c, 0, 54, 0
4, 221919, Note_on_c, 0, 45, 0
4, 221919, Note_on_c, 0, 47, 0
4, 221919, Note_on_c, 0, 51, 0
4, 221919, Note_on_c, 0, 45, 49
4, 221919, Note_on_c, 0, 47, 49
4, 221919, Note_on_c, 0, 51, 49
4, 221919, Note_on_c, 0, 54, 49
4, 222080, Note_on_c, 0, 54, 0
4, 222080, Note_on_c, 0, 45, 0
4, 222080, Note_on_c, 0, 47, 0
4, 222080, Note_on_c, 0, 51, 0
4, 222080, Note_on_c, 0, 45, 49
4, 222080, Note_on_c, 0, 47, 49
4, 222080, Note_on_c, 0, 51, 49
4, 222080, Note_on_c, 0, 54, 49
4, 222240, Note_on_c, 0, 54, 0
4, 222240, Note_on_c, 0, 45, 0
4, 222240, Note_on_c, 0, 47, 0
4, 222240, Note_on_c, 0, 51, 0
4, 222240, Note_on_c, 0, 45, 49
4, 222240, Note_on_c, 0, 47, 49
4, 222240, Note_on_c, 0, 51, 49
4, 222240, Note_on_c, 0, 54, 49
4, 222399, Note_on_c, 0, 54, 0
4, 222399, Note_on_c, 0, 45, 0
4, 222399, Note_on_c, 0, 47, 0
4, 222399, Note_on_c, 0, 51, 0
4, 222399, Note_on_c, 0, 45, 49
4, 222399, Note_on_c, 0, 47, 49
4, 222399, Note_on_c, 0, 51, 49
4, 222399, Note_on_c, 0, 54, 49
4, 222560, Note_on_c, 0, 54, 0
4, 222560, Note_on_c, 0, 45, 0
4, 222560, Note_on_c, 0, 47, 0
4, 222560, Note_on_c, 0, 51, 0
4, 222560, Note_on_c, 0, 45, 49
4, 222560, Note_on_c, 0, 47, 49
4, 222560, Note_on_c, 0, 51, 49
4, 222560, Note_on_c, 0, 54, 49
4, 222720, Note_on_c, 0, 54, 0
4, 222720, Note_on_c, 0, 45, 0
4, 222720, Note_on_c, 0, 47, 0
4, 222720, Note_on_c, 0, 51, 0
4, 222720, Note_on_c, 0, 43, 49
4, 222720, Note_on_c, 0, 47, 49
4, 222720, Note_on_c, 0, 49, 49
4, 222720, Note_on_c, 0, 52, 49
4, 222879, Note_on_c, 0, 52, 0
4, 222879, Note_on_c, 0, 43, 0
4, 222879, Note_on_c, 0, 47, 0
4, 222879, Note_on_c, 0, 49, 0
4, 222879, Note_on_c, 0, 43, 49
4, 222879, Note_on_c, 0, 47, 49
4, 222879, Note_on_c, 0, 49, 49
4, 222879, Note_on_c, 0, 52, 49
4, 223040, Note_on_c, 0, 52, 0
4, 223040, Note_on_c, 0, 43, 0
4, 223040, Note_on_c, 0, 47, 0
4, 223040, Note_on_c, 0, 49, 0
4, 223040, Note_on_c, 0, 43, 49
4, 223040, Note_on_c, 0, 47, 49
4, 223040, Note_on_c, 0, 49, 49
4, 223040, Note_on_c, 0, 52, 49
4, 223200, Note_on_c, 0, 52, 0
4, 223200, Note_on_c, 0, 43, 0
4, 223200, Note_on_c, 0, 47, 0
4, 223200, Note_on_c, 0, 49, 0
4, 223200, Note_on_c, 0, 43, 49
4, 223200, Note_on_c, 0, 47, 49
4, 223200, Note_on_c, 0, 49, 49
4, 223200, Note_on_c, 0, 52, 49
4, 223359, Note_on_c, 0, 52, 0
4, 223359, Note_on_c, 0, 43, 0
4, 223359, Note_on_c, 0, 47, 0
4, 223359, Note_on_c, 0, 49, 0
4, 223359, Note_on_c, 0, 43, 49
4, 223359, Note_on_c, 0, 47, 49
4, 223359, Note_on_c, 0, 49, 49
4, 223359, Note_on_c, 0, 52, 49
4, 223520, Note_on_c, 0, 52, 0
4, 223520, Note_on_c, 0, 43, 0
4, 223520, Note_on_c, 0, 47, 0
4, 223520, Note_on_c, 0, 49, 0
4, 223520, Note_on_c, 0, 43, 49
4, 223520, Note_on_c, 0, 47, 49
4, 223520, Note_on_c, 0, 49, 49
4, 223520, Note_on_c, 0, 52, 49
4, 223680, Note_on_c, 0, 52, 0
4, 223680, Note_on_c, 0, 43, 0
4, 223680, Note_on_c, 0, 47, 0
4, 223680, Note_on_c, 0, 49, 0
4, 223680, Note_on_c, 0, 43, 49
4, 223680, Note_on_c, 0, 47, 49
4, 223680, Note_on_c, 0, 49, 49
4, 223680, Note_on_c, 0, 52, 49
4, 223839, Note_on_c, 0, 52, 0
4, 223839, Note_on_c, 0, 43, 0
4, 223839, Note_on_c, 0, 47, 0
4, 223839, Note_on_c, 0, 49, 0
4, 223839, Note_on_c, 0, 43, 49
4, 223839, Note_on_c, 0, 47, 49
4, 223839, Note_on_c, 0, 49, 49
4, 223839, Note_on_c, 0, 52, 49
4, 224000, Note_on_c, 0, 52, 0
4, 224000, Note_on_c, 0, 43, 0
4, 224000, Note_on_c, 0, 47, 0
4, 224000, Note_on_c, 0, 49, 0
4, 224000, Note_on_c, 0, 43, 49
4, 224000, Note_on_c, 0, 47, 49
4, 224000, Note_on_c, 0, 49, 49
4, 224000, Note_on_c, 0, 52, 49
4, 224160, Note_on_c, 0, 52, 0
4, 224160, Note_on_c, 0, 43, 0
4, 224160, Note_on_c, 0, 47, 0
4, 224160, Note_on_c, 0, 49, 0
4, 224160, Note_on_c, 0, 43, 49
4, 224160, Note_on_c, 0, 47, 49
4, 224160, Note_on_c, 0, 49, 49
4, 224160, Note_on_c, 0, 52, 49
4, 224319, Note_on_c, 0, 52, 0
4, 224319, Note_on_c, 0, 43, 0
4, 224319, Note_on_c, 0, 47, 0
4, 224319, Note_on_c, 0, 49, 0
4, 224319, Note_on_c, 0, 43, 49
4, 224319, Note_on_c, 0, 47, 49
4, 224319, Note_on_c, 0, 49, 49
4, 224319, Note_on_c, 0, 52, 49
4, 224480, Note_on_c, 0, 52, 0
4, 224480, Note_on_c, 0, 43, 0
4, 224480, Note_on_c, 0, 47, 0
4, 224480, Note_on_c, 0, 49, 0
4, 224480, Note_on_c, 0, 43, 49
4, 224480, Note_on_c, 0, 47, 49
4, 224480, Note_on_c, 0, 49, 49
4, 224480, Note_on_c, 0, 52, 49
4, 224640, Note_on_c, 0, 52, 0
4, 224640, Note_on_c, 0, 43, 0
4, 224640, Note_on_c, 0, 47, 0
4, 224640, Note_on_c, 0, 49, 0
4, 224640, Note_on_c, 0, 42, 49
4, 224640, Note_on_c, 0, 45, 49
4, 224640, Note_on_c, 0, 47, 49
4, 224640, Note_on_c, 0, 51, 49
4, 224799, Note_on_c, 0, 51, 0
4, 224799, Note_on_c, 0, 42, 0
4, 224799, Note_on_c, 0, 45, 0
4, 224799, Note_on_c, 0, 47, 0
4, 224799, Note_on_c, 0, 42, 49
4, 224799, Note_on_c, 0, 45, 49
4, 224799, Note_on_c, 0, 47, 49
4, 224799, Note_on_c, 0, 51, 49
4, 224960, Note_on_c, 0, 51, 0
4, 224960, Note_on_c, 0, 42, 0
4, 224960, Note_on_c, 0, 45, 0
4, 224960, Note_on_c, 0, 47, 0
4, 224960, Note_on_c, 0, 42, 49
4, 224960, Note_on_c, 0, 45, 49
4, 224960, Note_on_c, 0, 47, 49
4, 224960, Note_on_c, 0, 51, 49
4, 225120, Note_on_c, 0, 51, 0
4, 225120, Note_on_c, 0, 42, 0
4, 225120, Note_on_c, 0, 45, 0
4, 225120, Note_on_c, 0, 47, 0
4, 225120, Note_on_c, 0, 42, 49
4, 225120, Note_on_c, 0, 45, 49
4, 225120, Note_on_c, 0, 47, 49
4, 225120, Note_on_c, 0, 51, 49
4, 225279, Note_on_c, 0, 51, 0
4, 225279, Note_on_c, 0, 42, 0
4, 225279, Note_on_c, 0, 45, 0
4, 225279, Note_on_c, 0, 47, 0
4, 225279, Note_on_c, 0, 42, 49
4, 225279, Note_on_c, 0, 45, 49
4, 225279, Note_on_c, 0, 47, 49
4, 225279, Note_on_c, 0, 51, 49
4, 225440, Note_on_c, 0, 51, 0
4, 225440, Note_on_c, 0, 42, 0
4, 225440, Note_on_c, 0, 45, 0
4, 225440, Note_on_c, 0, 47, 0
4, 225440, Note_on_c, 0, 42, 49
4, 225440, Note_on_c, 0, 45, 49
4, 225440, Note_on_c, 0, 47, 49
4, 225440, Note_on_c, 0, 51, 49
4, 225600, Note_on_c, 0, 51, 0
4, 225600, Note_on_c, 0, 42, 0
4, 225600, Note_on_c, 0, 45, 0
4, 225600, Note_on_c, 0, 47, 0
4, 225600, Note_on_c, 0, 42, 49
4, 225600, Note_on_c, 0, 45, 49
4, 225600, Note_on_c, 0, 47, 49
4, 225600, Note_on_c, 0, 51, 49
4, 225759, Note_on_c, 0, 51, 0
4, 225759, Note_on_c, 0, 42, 0
4, 225759, Note_on_c, 0, 45, 0
4, 225759, Note_on_c, 0, 47, 0
4, 225759, Note_on_c, 0, 42, 49
4, 225759, Note_on_c, 0, 45, 49
4, 225759, Note_on_c, 0, 47, 49
4, 225759, Note_on_c, 0, 51, 49
4, 225920, Note_on_c, 0, 51, 0
4, 225920, Note_on_c, 0, 42, 0
4, 225920, Note_on_c, 0, 45, 0
4, 225920, Note_on_c, 0, 47, 0
4, 225920, Note_on_c, 0, 42, 49
4, 225920, Note_on_c, 0, 45, 49
4, 225920, Note_on_c, 0, 47, 49
4, 225920, Note_on_c, 0, 51, 49
4, 226080, Note_on_c, 0, 51, 0
4, 226080, Note_on_c, 0, 42, 0
4, 226080, Note_on_c, 0, 45, 0
4, 226080, Note_on_c, 0, 47, 0
4, 226080, Note_on_c, 0, 42, 49
4, 226080, Note_on_c, 0, 45, 49
4, 226080, Note_on_c, 0, 47, 49
4, 226080, Note_on_c, 0, 51, 49
4, 226239, Note_on_c, 0, 51, 0
4, 226239, Note_on_c, 0, 42, 0
4, 226239, Note_on_c, 0, 45, 0
4, 226239, Note_on_c, 0, 47, 0
4, 226239, Note_on_c, 0, 42, 49
4, 226239, Note_on_c, 0, 45, 49
4, 226239, Note_on_c, 0, 47, 49
4, 226239, Note_on_c, 0, 51, 49
4, 226400, Note_on_c, 0, 51, 0
4, 226400, Note_on_c, 0, 42, 0
4, 226400, Note_on_c, 0, 45, 0
4, 226400, Note_on_c, 0, 47, 0
4, 226400, Note_on_c, 0, 42, 49
4, 226400, Note_on_c, 0, 45, 49
4, 226400, Note_on_c, 0, 47, 49
4, 226400, Note_on_c, 0, 51, 49
4, 226560, Note_on_c, 0, 51, 0
4, 226560, Note_on_c, 0, 42, 0
4, 226560, Note_on_c, 0, 45, 0
4, 226560, Note_on_c, 0, 47, 0
4, 226560, Note_on_c, 0, 40, 49
4, 226560, Note_on_c, 0, 43, 49
4, 226560, Note_on_c, 0, 47, 49
4, 226560, Note_on_c, 0, 49, 49
4, 226719, Note_on_c, 0, 49, 0
4, 226719, Note_on_c, 0, 40, 0
4, 226719, Note_on_c, 0, 43, 0
4, 226719, Note_on_c, 0, 47, 0
4, 226719, Note_on_c, 0, 40, 49
4, 226719, Note_on_c, 0, 43, 49
4, 226719, Note_on_c, 0, 47, 49
4, 226719, Note_on_c, 0, 49, 49
4, 226880, Note_on_c, 0, 49, 0
4, 226880, Note_on_c, 0, 40, 0
4, 226880, Note_on_c, 0, 43, 0
4, 226880, Note_on_c, 0, 47, 0
4, 226880, Note_on_c, 0, 40, 49
4, 226880, Note_on_c, 0, 43, 49
4, 226880, Note_on_c, 0, 47, 49
4, 226880, Note_on_c, 0, 49, 49
4, 227040, Note_on_c, 0, 49, 0
4, 227040, Note_on_c, 0, 40, 0
4, 227040, Note_on_c, 0, 43, 0
4, 227040, Note_on_c, 0, 47, 0
4, 227040, Note_on_c, 0, 40, 49
4, 227040, Note_on_c, 0, 43, 49
4, 227040, Note_on_c, 0, 47, 49
4, 227040, Note_on_c, 0, 49, 49
4, 227199, Note_on_c, 0, 49, 0
4, 227199, Note_on_c, 0, 40, 0
4, 227199, Note_on_c, 0, 43, 0
4, 227199, Note_on_c, 0, 47, 0
4, 227199, Note_on_c, 0, 40, 49
4, 227199, Note_on_c, 0, 43, 49
4, 227199, Note_on_c, 0, 47, 49
4, 227199, Note_on_c, 0, 49, 49
4, 227360, Note_on_c, 0, 49, 0
4, 227360, Note_on_c, 0, 40, 0
4, 227360, Note_on_c, 0, 43, 0
4, 227360, Note_on_c, 0, 47, 0
4, 227360, Note_on_c, 0, 40, 49
4, 227360, Note_on_c, 0, 43, 49
4, 227360, Note_on_c, 0, 47, 49
4, 227360, Note_on_c, 0, 49, 49
4, 227520, Note_on_c, 0, 49, 0
4, 227520, Note_on_c, 0, 40, 0
4, 227520, Note_on_c, 0, 43, 0
4, 227520, Note_on_c, 0, 47, 0
4, 227520, Note_on_c, 0, 40, 49
4, 227520, Note_on_c, 0, 43, 49
4, 227520, Note_on_c, 0, 47, 49
4, 227520, Note_on_c, 0, 49, 49
4, 227679, Note_on_c, 0, 49, 0
4, 227679, Note_on_c, 0, 40, 0
4, 227679, Note_on_c, 0, 43, 0
4, 227679, Note_on_c, 0, 47, 0
4, 227679, Note_on_c, 0, 40, 62
4, 227679, Note_on_c, 0, 43, 62
4, 227679, Note_on_c, 0, 47, 62
4, 227679, Note_on_c, 0, 49, 62
4, 227840, Note_on_c, 0, 49, 0
4, 227840, Note_on_c, 0, 40, 0
4, 227840, Note_on_c, 0, 43, 0
4, 227840, Note_on_c, 0, 47, 0
4, 227840, Note_on_c, 0, 40, 62
4, 227840, Note_on_c, 0, 43, 62
4, 227840, Note_on_c, 0, 47, 62
4, 227840, Note_on_c, 0, 49, 62
4, 228000, Note_on_c, 0, 49, 0
4, 228000, Note_on_c, 0, 40, 0
4, 228000, Note_on_c, 0, 43, 0
4, 228000, Note_on_c, 0, 47, 0
4, 228000, Note_on_c, 0, 40, 62
4, 228000, Note_on_c, 0, 43, 62
4, 228000, Note_on_c, 0, 47, 62
4, 228000, Note_on_c, 0, 49, 62
4, 228159, Note_on_c, 0, 49, 0
4, 228159, Note_on_c, 0, 40, 0
4, 228159, Note_on_c, 0, 43, 0
4, 228159, Note_on_c, 0, 47, 0
4, 228159, Note_on_c, 0, 40, 62
4, 228159, Note_on_c, 0, 43, 62
4, 228159, Note_on_c, 0, 47, 62
4, 228159, Note_on_c, 0, 49, 62
4, 228320, Note_on_c, 0, 49, 0
4, 228320, Note_on_c, 0, 40, 0
4, 228320, Note_on_c, 0, 43, 0
4, 228320, Note_on_c, 0, 47, 0
4, 228320, Note_on_c, 0, 40, 62
4, 228320, Note_on_c, 0, 43, 62
4, 228320, Note_on_c, 0, 47, 62
4, 228320, Note_on_c, 0, 49, 62
4, 228480, Note_on_c, 0, 49, 0
4, 228480, Note_on_c, 0, 40, 0
4, 228480, Note_on_c, 0, 43, 0
4, 228480, Note_on_c, 0, 47, 0
4, 228480, Note_on_c, 0, 39, 62
4, 228480, Note_on_c, 0, 42, 62
4, 228480, Note_on_c, 0, 47, 62
4, 228639, Note_on_c, 0, 47, 0
4, 228639, Note_on_c, 0, 42, 0
4, 228639, Note_on_c, 0, 39, 0
4, 228639, Note_on_c, 0, 39, 62
4, 228639, Note_on_c, 0, 42, 62
4, 228639, Note_on_c, 0, 47, 62
4, 228800, Note_on_c, 0, 47, 0
4, 228800, Note_on_c, 0, 42, 0
4, 228800, Note_on_c, 0, 39, 0
4, 228800, Note_on_c, 0, 39, 62
4, 228800, Note_on_c, 0, 42, 62
4, 228800, Note_on_c, 0, 47, 62
4, 228960, Note_on_c, 0, 47, 0
4, 228960, Note_on_c, 0, 42, 0
4, 228960, Note_on_c, 0, 39, 0
4, 228960, Note_on_c, 0, 39, 62
4, 228960, Note_on_c, 0, 42, 62
4, 228960, Note_on_c, 0, 47, 62
4, 229119, Note_on_c, 0, 47, 0
4, 229119, Note_on_c, 0, 42, 0
4, 229119, Note_on_c, 0, 39, 0
4, 229119, Note_on_c, 0, 39, 62
4, 229119, Note_on_c, 0, 42, 62
4, 229119, Note_on_c, 0, 47, 62
4, 229280, Note_on_c, 0, 47, 0
4, 229280, Note_on_c, 0, 42, 0
4, 229280, Note_on_c, 0, 39, 0
4, 229280, Note_on_c, 0, 39, 62
4, 229280, Note_on_c, 0, 42, 62
4, 229280, Note_on_c, 0, 47, 62
4, 229440, Note_on_c, 0, 47, 0
4, 229440, Note_on_c, 0, 42, 0
4, 229440, Note_on_c, 0, 39, 0
4, 229440, Note_on_c, 0, 39, 62
4, 229440, Note_on_c, 0, 42, 62
4, 229440, Note_on_c, 0, 47, 62
4, 229599, Note_on_c, 0, 47, 0
4, 229599, Note_on_c, 0, 42, 0
4, 229599, Note_on_c, 0, 39, 0
4, 229599, Note_on_c, 0, 39, 62
4, 229599, Note_on_c, 0, 42, 62
4, 229599, Note_on_c, 0, 47, 62
4, 229760, Note_on_c, 0, 47, 0
4, 229760, Note_on_c, 0, 42, 0
4, 229760, Note_on_c, 0, 39, 0
4, 229760, Note_on_c, 0, 39, 62
4, 229760, Note_on_c, 0, 42, 62
4, 229760, Note_on_c, 0, 47, 62
4, 229920, Note_on_c, 0, 47, 0
4, 229920, Note_on_c, 0, 42, 0
4, 229920, Note_on_c, 0, 39, 0
4, 229920, Note_on_c, 0, 39, 62
4, 229920, Note_on_c, 0, 42, 62
4, 229920, Note_on_c, 0, 47, 62
4, 230079, Note_on_c, 0, 47, 0
4, 230079, Note_on_c, 0, 42, 0
4, 230079, Note_on_c, 0, 39, 0
4, 230079, Note_on_c, 0, 39, 62
4, 230079, Note_on_c, 0, 42, 62
4, 230079, Note_on_c, 0, 47, 62
4, 230240, Note_on_c, 0, 47, 0
4, 230240, Note_on_c, 0, 42, 0
4, 230240, Note_on_c, 0, 39, 0
4, 230240, Note_on_c, 0, 39, 62
4, 230240, Note_on_c, 0, 42, 62
4, 230240, Note_on_c, 0, 47, 62
4, 230400, Note_on_c, 0, 47, 0
4, 230400, Note_on_c, 0, 42, 0
4, 230400, Note_on_c, 0, 39, 0
4, 230400, Note_on_c, 0, 38, 62
4, 230400, Note_on_c, 0, 40, 62
4, 230400, Note_on_c, 0, 44, 62
4, 230400, Note_on_c, 0, 47, 62
4, 230559, Note_on_c, 0, 47, 0
4, 230559, Note_on_c, 0, 38, 0
4, 230559, Note_on_c, 0, 40, 0
4, 230559, Note_on_c, 0, 44, 0
4, 230559, Note_on_c, 0, 38, 62
4, 230559, Note_on_c, 0, 40, 62
4, 230559, Note_on_c, 0, 44, 62
4, 230559, Note_on_c, 0, 47, 62
4, 230720, Note_on_c, 0, 47, 0
4, 230720, Note_on_c, 0, 38, 0
4, 230720, Note_on_c, 0, 40, 0
4, 230720, Note_on_c, 0, 44, 0
4, 230720, Note_on_c, 0, 38, 62
4, 230720, Note_on_c, 0, 40, 62
4, 230720, Note_on_c, 0, 44, 62
4, 230720, Note_on_c, 0, 47, 62
4, 230880, Note_on_c, 0, 47, 0
4, 230880, Note_on_c, 0, 38, 0
4, 230880, Note_on_c, 0, 40, 0
4, 230880, Note_on_c, 0, 44, 0
4, 230880, Note_on_c, 0, 38, 62
4, 230880, Note_on_c, 0, 40, 62
4, 230880, Note_on_c, 0, 44, 62
4, 230880, Note_on_c, 0, 47, 62
4, 231039, Note_on_c, 0, 47, 0
4, 231039, Note_on_c, 0, 38, 0
4, 231039, Note_on_c, 0, 40, 0
4, 231039, Note_on_c, 0, 44, 0
4, 231039, Note_on_c, 0, 38, 62
4, 231039, Note_on_c, 0, 40, 62
4, 231039, Note_on_c, 0, 44, 62
4, 231039, Note_on_c, 0, 47, 62
4, 231200, Note_on_c, 0, 47, 0
4, 231200, Note_on_c, 0, 38, 0
4, 231200, Note_on_c, 0, 40, 0
4, 231200, Note_on_c, 0, 44, 0
4, 231200, Note_on_c, 0, 38, 62
4, 231200, Note_on_c, 0, 40, 62
4, 231200, Note_on_c, 0, 44, 62
4, 231200, Note_on_c, 0, 47, 62
4, 231360, Note_on_c, 0, 47, 0
4, 231360, Note_on_c, 0, 38, 0
4, 231360, Note_on_c, 0, 40, 0
4, 231360, Note_on_c, 0, 44, 0
4, 231360, Note_on_c, 0, 38, 62
4, 231360, Note_on_c, 0, 40, 62
4, 231360, Note_on_c, 0, 44, 62
4, 231360, Note_on_c, 0, 47, 62
4, 231519, Note_on_c, 0, 47, 0
4, 231519, Note_on_c, 0, 38, 0
4, 231519, Note_on_c, 0, 40, 0
4, 231519, Note_on_c, 0, 44, 0
4, 231519, Note_on_c, 0, 38, 62
4, 231519, Note_on_c, 0, 40, 62
4, 231519, Note_on_c, 0, 44, 62
4, 231519, Note_on_c, 0, 47, 62
4, 231680, Note_on_c, 0, 47, 0
4, 231680, Note_on_c, 0, 38, 0
4, 231680, Note_on_c, 0, 40, 0
4, 231680, Note_on_c, 0, 44, 0
4, 231680, Note_on_c, 0, 38, 62
4, 231680, Note_on_c, 0, 40, 62
4, 231680, Note_on_c, 0, 44, 62
4, 231680, Note_on_c, 0, 47, 62
4, 231840, Note_on_c, 0, 47, 0
4, 231840, Note_on_c, 0, 38, 0
4, 231840, Note_on_c, 0, 40, 0
4, 231840, Note_on_c, 0, 44, 0
4, 231840, Note_on_c, 0, 38, 62
4, 231840, Note_on_c, 0, 40, 62
4, 231840, Note_on_c, 0, 44, 62
4, 231840, Note_on_c, 0, 47, 62
4, 231999, Note_on_c, 0, 47, 0
4, 231999, Note_on_c, 0, 38, 0
4, 231999, Note_on_c, 0, 40, 0
4, 231999, Note_on_c, 0, 44, 0
4, 231999, Note_on_c, 0, 38, 62
4, 231999, Note_on_c, 0, 40, 62
4, 231999, Note_on_c, 0, 44, 62
4, 231999, Note_on_c, 0, 47, 62
4, 232160, Note_on_c, 0, 47, 0
4, 232160, Note_on_c, 0, 38, 0
4, 232160, Note_on_c, 0, 40, 0
4, 232160, Note_on_c, 0, 44, 0
4, 232160, Note_on_c, 0, 38, 62
4, 232160, Note_on_c, 0, 40, 62
4, 232160, Note_on_c, 0, 44, 62
4, 232160, Note_on_c, 0, 47, 62
4, 232320, Note_on_c, 0, 47, 0
4, 232320, Note_on_c, 0, 38, 0
4, 232320, Note_on_c, 0, 40, 0
4, 232320, Note_on_c, 0, 44, 0
4, 232320, Note_on_c, 0, 36, 75
4, 232320, Note_on_c, 0, 40, 75
4, 232320, Note_on_c, 0, 45, 75
4, 232479, Note_on_c, 0, 45, 0
4, 232479, Note_on_c, 0, 40, 0
4, 232479, Note_on_c, 0, 36, 0
4, 232479, Note_on_c, 0, 36, 75
4, 232479, Note_on_c, 0, 40, 75
4, 232479, Note_on_c, 0, 45, 75
4, 232640, Note_on_c, 0, 45, 0
4, 232640, Note_on_c, 0, 40, 0
4, 232640, Note_on_c, 0, 36, 0
4, 232640, Note_on_c, 0, 36, 75
4, 232640, Note_on_c, 0, 40, 75
4, 232640, Note_on_c, 0, 45, 75
4, 232800, Note_on_c, 0, 45, 0
4, 232800, Note_on_c, 0, 40, 0
4, 232800, Note_on_c, 0, 36, 0
4, 232800, Note_on_c, 0, 36, 75
4, 232800, Note_on_c, 0, 40, 75
4, 232800, Note_on_c, 0, 45, 75
4, 232959, Note_on_c, 0, 45, 0
4, 232959, Note_on_c, 0, 40, 0
4, 232959, Note_on_c, 0, 36, 0
4, 232959, Note_on_c, 0, 36, 75
4, 232959, Note_on_c, 0, 40, 75
4, 232959, Note_on_c, 0, 45, 75
4, 233120, Note_on_c, 0, 45, 0
4, 233120, Note_on_c, 0, 40, 0
4, 233120, Note_on_c, 0, 36, 0
4, 233120, Note_on_c, 0, 36, 75
4, 233120, Note_on_c, 0, 40, 75
4, 233120, Note_on_c, 0, 45, 75
4, 233280, Note_on_c, 0, 45, 0
4, 233280, Note_on_c, 0, 40, 0
4, 233280, Note_on_c, 0, 36, 0
4, 233280, Note_on_c, 0, 36, 75
4, 233280, Note_on_c, 0, 40, 75
4, 233280, Note_on_c, 0, 45, 75
4, 233439, Note_on_c, 0, 45, 0
4, 233439, Note_on_c, 0, 40, 0
4, 233439, Note_on_c, 0, 36, 0
4, 233439, Note_on_c, 0, 36, 75
4, 233439, Note_on_c, 0, 40, 75
4, 233439, Note_on_c, 0, 45, 75
4, 233600, Note_on_c, 0, 45, 0
4, 233600, Note_on_c, 0, 40, 0
4, 233600, Note_on_c, 0, 36, 0
4, 233600, Note_on_c, 0, 36, 75
4, 233600, Note_on_c, 0, 40, 75
4, 233600, Note_on_c, 0, 45, 75
4, 233760, Note_on_c, 0, 45, 0
4, 233760, Note_on_c, 0, 40, 0
4, 233760, Note_on_c, 0, 36, 0
4, 233760, Note_on_c, 0, 36, 75
4, 233760, Note_on_c, 0, 40, 75
4, 233760, Note_on_c, 0, 45, 75
4, 233919, Note_on_c, 0, 45, 0
4, 233919, Note_on_c, 0, 40, 0
4, 233919, Note_on_c, 0, 36, 0
4, 233919, Note_on_c, 0, 36, 75
4, 233919, Note_on_c, 0, 40, 75
4, 233919, Note_on_c, 0, 45, 75
4, 234080, Note_on_c, 0, 45, 0
4, 234080, Note_on_c, 0, 40, 0
4, 234080, Note_on_c, 0, 36, 0
4, 234080, Note_on_c, 0, 36, 75
4, 234080, Note_on_c, 0, 40, 75
4, 234080, Note_on_c, 0, 45, 75
4, 234240, Note_on_c, 0, 45, 0
4, 234240, Note_on_c, 0, 40, 0
4, 234240, Note_on_c, 0, 36, 0
4, 234240, Note_on_c, 0, 34, 75
4, 234240, Note_on_c, 0, 40, 75
4, 234240, Note_on_c, 0, 43, 75
4, 234399, Note_on_c, 0, 43, 0
4, 234399, Note_on_c, 0, 40, 0
4, 234399, Note_on_c, 0, 34, 0
4, 234399, Note_on_c, 0, 34, 75
4, 234399, Note_on_c, 0, 40, 75
4, 234399, Note_on_c, 0, 43, 75
4, 234560, Note_on_c, 0, 43, 0
4, 234560, Note_on_c, 0, 40, 0
4, 234560, Note_on_c, 0, 34, 0
4, 234560, Note_on_c, 0, 34, 75
4, 234560, Note_on_c, 0, 40, 75
4, 234560, Note_on_c, 0, 43, 75
4, 234720, Note_on_c, 0, 43, 0
4, 234720, Note_on_c, 0, 40, 0
4, 234720, Note_on_c, 0, 34, 0
4, 234720, Note_on_c, 0, 34, 75
4, 234720, Note_on_c, 0, 40, 75
4, 234720, Note_on_c, 0, 43, 75
4, 234879, Note_on_c, 0, 43, 0
4, 234879, Note_on_c, 0, 40, 0
4, 234879, Note_on_c, 0, 34, 0
4, 234879, Note_on_c, 0, 34, 75
4, 234879, Note_on_c, 0, 40, 75
4, 234879, Note_on_c, 0, 43, 75
4, 235040, Note_on_c, 0, 43, 0
4, 235040, Note_on_c, 0, 40, 0
4, 235040, Note_on_c, 0, 34, 0
4, 235040, Note_on_c, 0, 34, 75
4, 235040, Note_on_c, 0, 40, 75
4, 235040, Note_on_c, 0, 43, 75
4, 235200, Note_on_c, 0, 43, 0
4, 235200, Note_on_c, 0, 40, 0
4, 235200, Note_on_c, 0, 34, 0
4, 235200, Note_on_c, 0, 34, 75
4, 235200, Note_on_c, 0, 40, 75
4, 235200, Note_on_c, 0, 43, 75
4, 235359, Note_on_c, 0, 43, 0
4, 235359, Note_on_c, 0, 40, 0
4, 235359, Note_on_c, 0, 34, 0
4, 235359, Note_on_c, 0, 34, 75
4, 235359, Note_on_c, 0, 40, 75
4, 235359, Note_on_c, 0, 43, 75
4, 235520, Note_on_c, 0, 43, 0
4, 235520, Note_on_c, 0, 40, 0
4, 235520, Note_on_c, 0, 34, 0
4, 235520, Note_on_c, 0, 34, 75
4, 235520, Note_on_c, 0, 40, 75
4, 235520, Note_on_c, 0, 43, 75
4, 235680, Note_on_c, 0, 43, 0
4, 235680, Note_on_c, 0, 40, 0
4, 235680, Note_on_c, 0, 34, 0
4, 235680, Note_on_c, 0, 34, 75
4, 235680, Note_on_c, 0, 40, 75
4, 235680, Note_on_c, 0, 43, 75
4, 235839, Note_on_c, 0, 43, 0
4, 235839, Note_on_c, 0, 40, 0
4, 235839, Note_on_c, 0, 34, 0
4, 235839, Note_on_c, 0, 34, 75
4, 235839, Note_on_c, 0, 40, 75
4, 235839, Note_on_c, 0, 43, 75
4, 236000, Note_on_c, 0, 43, 0
4, 236000, Note_on_c, 0, 40, 0
4, 236000, Note_on_c, 0, 34, 0
4, 236000, Note_on_c, 0, 34, 75
4, 236000, Note_on_c, 0, 40, 75
4, 236000, Note_on_c, 0, 43, 75
4, 236160, Note_on_c, 0, 43, 0
4, 236160, Note_on_c, 0, 40, 0
4, 236160, Note_on_c, 0, 34, 0
4, 236160, Note_on_c, 0, 32, 75
4, 236160, Note_on_c, 0, 35, 75
4, 236160, Note_on_c, 0, 38, 75
4, 236160, Note_on_c, 0, 41, 75
4, 236319, Note_on_c, 0, 41, 0
4, 236319, Note_on_c, 0, 32, 0
4, 236319, Note_on_c, 0, 35, 0
4, 236319, Note_on_c, 0, 38, 0
4, 236319, Note_on_c, 0, 32, 75
4, 236319, Note_on_c, 0, 35, 75
4, 236319, Note_on_c, 0, 38, 75
4, 236319, Note_on_c, 0, 41, 75
4, 236480, Note_on_c, 0, 41, 0
4, 236480, Note_on_c, 0, 32, 0
4, 236480, Note_on_c, 0, 35, 0
4, 236480, Note_on_c, 0, 38, 0
4, 236480, Note_on_c, 0, 32, 75
4, 236480, Note_on_c, 0, 35, 75
4, 236480, Note_on_c, 0, 38, 75
4, 236480, Note_on_c, 0, 41, 75
4, 236640, Note_on_c, 0, 41, 0
4, 236640, Note_on_c, 0, 32, 0
4, 236640, Note_on_c, 0, 35, 0
4, 236640, Note_on_c, 0, 38, 0
4, 236640, Note_on_c, 0, 32, 75
4, 236640, Note_on_c, 0, 35, 75
4, 236640, Note_on_c, 0, 38, 75
4, 236640, Note_on_c, 0, 41, 75
4, 236799, Note_on_c, 0, 41, 0
4, 236799, Note_on_c, 0, 32, 0
4, 236799, Note_on_c, 0, 35, 0
4, 236799, Note_on_c, 0, 38, 0
4, 236799, Note_on_c, 0, 32, 75
4, 236799, Note_on_c, 0, 35, 75
4, 236799, Note_on_c, 0, 38, 75
4, 236799, Note_on_c, 0, 41, 75
4, 236960, Note_on_c, 0, 41, 0
4, 236960, Note_on_c, 0, 32, 0
4, 236960, Note_on_c, 0, 35, 0
4, 236960, Note_on_c, 0, 38, 0
4, 236960, Note_on_c, 0, 32, 75
4, 236960, Note_on_c, 0, 35, 75
4, 236960, Note_on_c, 0, 38, 75
4, 236960, Note_on_c, 0, 41, 75
4, 237120, Note_on_c, 0, 41, 0
4, 237120, Note_on_c, 0, 32, 0
4, 237120, Note_on_c, 0, 35, 0
4, 237120, Note_on_c, 0, 38, 0
4, 237120, Note_on_c, 0, 32, 75
4, 237120, Note_on_c, 0, 35, 75
4, 237120, Note_on_c, 0, 38, 75
4, 237120, Note_on_c, 0, 41, 75
4, 237279, Note_on_c, 0, 41, 0
4, 237279, Note_on_c, 0, 32, 0
4, 237279, Note_on_c, 0, 35, 0
4, 237279, Note_on_c, 0, 38, 0
4, 237279, Note_on_c, 0, 32, 75
4, 237279, Note_on_c, 0, 35, 75
4, 237279, Note_on_c, 0, 38, 75
4, 237279, Note_on_c, 0, 41, 75
4, 237440, Note_on_c, 0, 41, 0
4, 237440, Note_on_c, 0, 32, 0
4, 237440, Note_on_c, 0, 35, 0
4, 237440, Note_on_c, 0, 38, 0
4, 237440, Note_on_c, 0, 32, 75
4, 237440, Note_on_c, 0, 35, 75
4, 237440, Note_on_c, 0, 38, 75
4, 237440, Note_on_c, 0, 41, 75
4, 237600, Note_on_c, 0, 41, 0
4, 237600, Note_on_c, 0, 32, 0
4, 237600, Note_on_c, 0, 35, 0
4, 237600, Note_on_c, 0, 38, 0
4, 237600, Note_on_c, 0, 32, 75
4, 237600, Note_on_c, 0, 35, 75
4, 237600, Note_on_c, 0, 38, 75
4, 237600, Note_on_c, 0, 41, 75
4, 237759, Note_on_c, 0, 41, 0
4, 237759, Note_on_c, 0, 32, 0
4, 237759, Note_on_c, 0, 35, 0
4, 237759, Note_on_c, 0, 38, 0
4, 237759, Note_on_c, 0, 32, 75
4, 237759, Note_on_c, 0, 35, 75
4, 237759, Note_on_c, 0, 38, 75
4, 237759, Note_on_c, 0, 41, 75
4, 237920, Note_on_c, 0, 41, 0
4, 237920, Note_on_c, 0, 32, 0
4, 237920, Note_on_c, 0, 35, 0
4, 237920, Note_on_c, 0, 38, 0
4, 237920, Note_on_c, 0, 32, 75
4, 237920, Note_on_c, 0, 35, 75
4, 237920, Note_on_c, 0, 38, 75
4, 237920, Note_on_c, 0, 41, 75
4, 238080, Note_on_c, 0, 41, 0
4, 238080, Note_on_c, 0, 32, 0
4, 238080, Note_on_c, 0, 35, 0
4, 238080, Note_on_c, 0, 38, 0
4, 238080, Note_on_c, 0, 31, 75
4, 238080, Note_on_c, 0, 35, 75
4, 238080, Note_on_c, 0, 37, 75
4, 238080, Note_on_c, 0, 40, 75
4, 238239, Note_on_c, 0, 40, 0
4, 238239, Note_on_c, 0, 31, 0
4, 238239, Note_on_c, 0, 35, 0
4, 238239, Note_on_c, 0, 37, 0
4, 238239, Note_on_c, 0, 31, 75
4, 238239, Note_on_c, 0, 35, 75
4, 238239, Note_on_c, 0, 37, 75
4, 238239, Note_on_c, 0, 40, 75
4, 238400, Note_on_c, 0, 40, 0
4, 238400, Note_on_c, 0, 31, 0
4, 238400, Note_on_c, 0, 35, 0
4, 238400, Note_on_c, 0, 37, 0
4, 238400, Note_on_c, 0, 31, 75
4, 238400, Note_on_c, 0, 35, 75
4, 238400, Note_on_c, 0, 37, 75
4, 238400, Note_on_c, 0, 40, 75
4, 238560, Note_on_c, 0, 40, 0
4, 238560, Note_on_c, 0, 31, 0
4, 238560, Note_on_c, 0, 35, 0
4, 238560, Note_on_c, 0, 37, 0
4, 238560, Note_on_c, 0, 31, 75
4, 238560, Note_on_c, 0, 35, 75
4, 238560, Note_on_c, 0, 37, 75
4, 238560, Note_on_c, 0, 40, 75
4, 238719, Note_on_c, 0, 40, 0
4, 238719, Note_on_c, 0, 31, 0
4, 238719, Note_on_c, 0, 35, 0
4, 238719, Note_on_c, 0, 37, 0
4, 238719, Note_on_c, 0, 31, 75
4, 238719, Note_on_c, 0, 35, 75
4, 238719, Note_on_c, 0, 37, 75
4, 238719, Note_on_c, 0, 40, 75
4, 238880, Note_on_c, 0, 40, 0
4, 238880, Note_on_c, 0, 31, 0
4, 238880, Note_on_c, 0, 35, 0
4, 238880, Note_on_c, 0, 37, 0
4, 238880, Note_on_c, 0, 31, 75
4, 238880, Note_on_c, 0, 35, 75
4, 238880, Note_on_c, 0, 37, 75
4, 238880, Note_on_c, 0, 40, 75
4, 239040, Note_on_c, 0, 40, 0
4, 239040, Note_on_c, 0, 31, 0
4, 239040, Note_on_c, 0, 35, 0
4, 239040, Note_on_c, 0, 37, 0
4, 239040, Note_on_c, 0, 30, 75
4, 239040, Note_on_c, 0, 34, 75
4, 239040, Note_on_c, 0, 37, 75
4, 239040, Note_on_c, 0, 40, 75
4, 239199, Note_on_c, 0, 40, 0
4, 239199, Note_on_c, 0, 30, 0
4, 239199, Note_on_c, 0, 34, 0
4, 239199, Note_on_c, 0, 37, 0
4, 239199, Note_on_c, 0, 30, 75
4, 239199, Note_on_c, 0, 34, 75
4, 239199, Note_on_c, 0, 37, 75
4, 239199, Note_on_c, 0, 40, 75
4, 239360, Note_on_c, 0, 40, 0
4, 239360, Note_on_c, 0, 30, 0
4, 239360, Note_on_c, 0, 34, 0
4, 239360, Note_on_c, 0, 37, 0
4, 239360, Note_on_c, 0, 30, 75
4, 239360, Note_on_c, 0, 34, 75
4, 239360, Note_on_c, 0, 37, 75
4, 239360, Note_on_c, 0, 40, 75
4, 239520, Note_on_c, 0, 40, 0
4, 239520, Note_on_c, 0, 30, 0
4, 239520, Note_on_c, 0, 34, 0
4, 239520, Note_on_c, 0, 37, 0
4, 239520, Note_on_c, 0, 30, 75
4, 239520, Note_on_c, 0, 34, 75
4, 239520, Note_on_c, 0, 37, 75
4, 239520, Note_on_c, 0, 40, 75
4, 239679, Note_on_c, 0, 40, 0
4, 239679, Note_on_c, 0, 30, 0
4, 239679, Note_on_c, 0, 34, 0
4, 239679, Note_on_c, 0, 37, 0
4, 239679, Note_on_c, 0, 30, 75
4, 239679, Note_on_c, 0, 34, 75
4, 239679, Note_on_c, 0, 37, 75
4, 239679, Note_on_c, 0, 40, 75
4, 239840, Note_on_c, 0, 40, 0
4, 239840, Note_on_c, 0, 30, 0
4, 239840, Note_on_c, 0, 34, 0
4, 239840, Note_on_c, 0, 37, 0
4, 239840, Note_on_c, 0, 30, 75
4, 239840, Note_on_c, 0, 34, 75
4, 239840, Note_on_c, 0, 37, 75
4, 239840, Note_on_c, 0, 40, 75
4, 240000, Note_on_c, 0, 40, 0
4, 240000, Note_on_c, 0, 30, 0
4, 240000, Note_on_c, 0, 34, 0
4, 240000, Note_on_c, 0, 37, 0
4, 240000, Note_on_c, 0, 29, 88
4, 240000, Note_on_c, 0, 34, 88
4, 240000, Note_on_c, 0, 38, 88
4, 240000, Note_on_c, 0, 41, 88
4, 240240, Note_on_c, 0, 41, 0
4, 240240, Note_on_c, 0, 29, 0
4, 240240, Note_on_c, 0, 34, 0
4, 240240, Note_on_c, 0, 38, 0
4, 240240, Control_c, 0, 64, 127
4, 240240, Note_on_c, 0, 29, 114
4, 240320, Note_on_c, 0, 29, 0
4, 240320, Note_on_c, 0, 41, 114
4, 240399, Note_on_c, 0, 41, 0
4, 240399, Note_on_c, 0, 29, 88
4, 240480, Note_on_c, 0, 29, 0
4, 240480, Note_on_c, 0, 41, 75
4, 240560, Note_on_c, 0, 41, 0
4, 240560, Note_on_c, 0, 29, 75
4, 240639, Note_on_c, 0, 29, 0
4, 240639, Note_on_c, 0, 41, 75
4, 240720, Note_on_c, 0, 41, 0
4, 240720, Note_on_c, 0, 29, 62
4, 240800, Note_on_c, 0, 29, 0
4, 240800, Note_on_c, 0, 41, 62
4, 240879, Note_on_c, 0, 41, 0
4, 240879, Note_on_c, 0, 29, 62
4, 240960, Note_on_c, 0, 29, 0
4, 240960, Control_c, 0, 64, 0
4, 240960, Note_on_c, 0, 29, 62
4, 241200, Note_on_c, 0, 29, 0
4, 241200, Note_on_c, 0, 41, 62
4, 241440, Note_on_c, 0, 41, 0
4, 241440, Note_on_c, 0, 43, 62
4, 241680, Note_on_c, 0, 43, 0
4, 241680, Note_on_c, 0, 45, 62
4, 241920, Note_on_c, 0, 45, 0
4, 241920, Note_on_c, 0, 46, 62
4, 242280, Note_on_c, 0, 46, 0
4, 242280, Note_on_c, 0, 45, 62
4, 242400, Note_on_c, 0, 45, 0
4, 242400, Note_on_c, 0, 43, 62
4, 242640, Note_on_c, 0, 43, 0
4, 243120, Note_on_c, 0, 43, 62
4, 243360, Note_on_c, 0, 43, 0
4, 243360, Note_on_c, 0, 45, 62
4, 243600, Note_on_c, 0, 45, 0
4, 243600, Note_on_c, 0, 46, 62
4, 243840, Note_on_c, 0, 46, 0
4, 243840, Note_on_c, 0, 48, 75
4, 244200, Note_on_c, 0, 48, 0
4, 244200, Note_on_c, 0, 46, 75
4, 244320, Note_on_c, 0, 46, 0
4, 244320, Note_on_c, 0, 45, 75
4, 244560, Note_on_c, 0, 45, 0
4, 245040, Note_on_c, 0, 45, 75
4, 245280, Note_on_c, 0, 45, 0
4, 245280, Note_on_c, 0, 46, 75
4, 245520, Note_on_c, 0, 46, 0
4, 245520, Note_on_c, 0, 48, 75
4, 245760, Note_on_c, 0, 48, 0
4, 245760, Note_on_c, 0, 50, 75
4, 246000, Note_on_c, 0, 50, 0
4, 246000, Note_on_c, 0, 45, 75
4, 246240, Note_on_c, 0, 45, 0
4, 246480, Note_on_c, 0, 50, 75
4, 246720, Note_on_c, 0, 50, 0
4, 246720, Note_on_c, 0, 49, 75
4, 246960, Note_on_c, 0, 49, 0
4, 246960, Note_on_c, 0, 43, 75
4, 247200, Note_on_c, 0, 43, 0
4, 247440, Note_on_c, 0, 49, 75
4, 247680, Note_on_c, 0, 49, 0
4, 247680, Note_on_c, 0, 48, 75
4, 247920, Note_on_c, 0, 48, 0
4, 247920, Note_on_c, 0, 43, 75
4, 248160, Note_on_c, 0, 43, 0
4, 248400, Note_on_c, 0, 48, 75
4, 248640, Note_on_c, 0, 48, 0
4, 248640, Note_on_c, 0, 46, 75
4, 248640, Note_on_c, 0, 49, 75
4, 248880, Note_on_c, 0, 49, 0
4, 248880, Note_on_c, 0, 46, 0
4, 248880, Note_on_c, 0, 46, 75
4, 248880, Note_on_c, 0, 49, 75
4, 249360, Note_on_c, 0, 49, 0
4, 249360, Note_on_c, 0, 46, 0
4, 249360, Note_on_c, 0, 46, 75
4, 249360, Note_on_c, 0, 49, 75
4, 249600, Note_on_c, 0, 49, 0
4, 249600, Note_on_c, 0, 46, 0
4, 250800, Note_on_c, 0, 55, 114
4, 251040, Note_on_c, 0, 55, 0
4, 251040, Note_on_c, 0, 57, 114
4, 251280, Note_on_c, 0, 57, 0
4, 251280, Note_on_c, 0, 58, 114
4, 251520, Note_on_c, 0, 58, 0
4, 251520, Note_on_c, 0, 60, 114
4, 251880, Note_on_c, 0, 60, 0
4, 251880, Note_on_c, 0, 58, 88
4, 252000, Note_on_c, 0, 58, 0
4, 252000, Note_on_c, 0, 57, 88
4, 252240, Note_on_c, 0, 57, 0
4, 252720, Note_on_c, 0, 57, 114
4, 252960, Note_on_c, 0, 57, 0
4, 252960, Note_on_c, 0, 58, 114
4, 253200, Note_on_c, 0, 58, 0
4, 253200, Note_on_c, 0, 60, 114
4, 253440, Note_on_c, 0, 60, 0
4, 253440, Note_on_c, 0, 58, 114
4, 253440, Note_on_c, 0, 61, 114
4, 253680, Note_on_c, 0, 61, 0
4, 253680, Note_on_c, 0, 58, 0
4, 253680, Note_on_c, 0, 58, 114
4, 253920, Note_on_c, 0, 58, 0
4, 254160, Note_on_c, 0, 61, 114
4, 254400, Note_on_c, 0, 61, 0
4, 254400, Note_on_c, 0, 50, 114
4, 254400, Note_on_c, 0, 53, 114
4, 254400, Note_on_c, 0, 59, 114
4, 254640, Note_on_c, 0, 59, 0
4, 254640, Note_on_c, 0, 53, 0
4, 254640, Note_on_c, 0, 50, 0
4, 254640, Note_on_c, 0, 50, 114
4, 254640, Note_on_c, 0, 53, 114
4, 254640, Note_on_c, 0, 56, 114
4, 254880, Note_on_c, 0, 56, 0
4, 254880, Note_on_c, 0, 53, 0
4, 254880, Note_on_c, 0, 50, 0
4, 255120, Note_on_c, 0, 59, 114
4, 255360, Note_on_c, 0, 59, 0
4, 255360, Note_on_c, 0, 48, 114
4, 255360, Note_on_c, 0, 51, 114
4, 255360, Note_on_c, 0, 57, 114
4, 255600, Note_on_c, 0, 57, 0
4, 255600, Note_on_c, 0, 51, 0
4, 255600, Note_on_c, 0, 48, 0
4, 255600, Note_on_c, 0, 48, 114
4, 255600, Note_on_c, 0, 51, 114
4, 255600, Note_on_c, 0, 54, 114
4, 255840, Note_on_c, 0, 54, 0
4, 255840, Note_on_c, 0, 51, 0
4, 255840, Note_on_c, 0, 48, 0
4, 256080, Note_on_c, 0, 57, 114
4, 256320, Note_on_c, 0, 57, 0
4, 256320, Note_on_c, 0, 46, 114
4, 256320, Note_on_c, 0, 49, 114
4, 256320, Note_on_c, 0, 55, 114
4, 256560, Note_on_c, 0, 55, 0
4, 256560, Note_on_c, 0, 49, 0
4, 256560, Note_on_c, 0, 46, 0
4, 256560, Note_on_c, 0, 46, 114
4, 256560, Note_on_c, 0, 49, 114
4, 256560, Note_on_c, 0, 52, 114
4, 256800, Note_on_c, 0, 52, 0
4, 256800, Note_on_c, 0, 49, 0
4, 256800, Note_on_c, 0, 46, 0
4, 257040, Note_on_c, 0, 55, 114
4, 257280, Note_on_c, 0, 55, 0
4, 257280, Note_on_c, 0, 47, 114
4, 257280, Note_on_c, 0, 50, 114
4, 257280, Note_on_c, 0, 53, 114
4, 257520, Note_on_c, 0, 53, 0
4, 257520, Note_on_c, 0, 50, 0
4, 257520, Note_on_c, 0, 47, 0
4, 257520, Note_on_c, 0, 47, 114
4, 257520, Note_on_c, 0, 50, 114
4, 257760, Note_on_c, 0, 50, 0
4, 257760, Note_on_c, 0, 47, 0
4, 258000, Note_on_c, 0, 53, 114
4, 258240, Note_on_c, 0, 53, 0
4, 258240, Note_on_c, 0, 46, 114
4, 258240, Note_on_c, 0, 48, 114
4, 258240, Note_on_c, 0, 53, 114
4, 258480, Note_on_c, 0, 53, 0
4, 258480, Note_on_c, 0, 48, 0
4, 258480, Note_on_c, 0, 46, 0
4, 258480, Note_on_c, 0, 46, 114
4, 258480, Note_on_c, 0, 48, 114
4, 258720, Note_on_c, 0, 48, 0
4, 258720, Note_on_c, 0, 46, 0
4, 258960, Note_on_c, 0, 53, 114
4, 259200, Note_on_c, 0, 53, 0
4, 259200, Note_on_c, 0, 45, 114
4, 259200, Note_on_c, 0, 48, 114
4, 259200, Note_on_c, 0, 51, 114
4, 259440, Note_on_c, 0, 51, 0
4, 259440, Note_on_c, 0, 48, 0
4, 259440, Note_on_c, 0, 45, 0
4, 259440, Note_on_c, 0, 45, 114
4, 259440, Note_on_c, 0, 48, 114
4, 259680, Note_on_c, 0, 48, 0
4, 259680, Note_on_c, 0, 45, 0
4, 259920, Note_on_c, 0, 51, 114
4, 260160, Note_on_c, 0, 51, 0
4, 260160, Note_on_c, 0, 43, 114
4, 260160, Note_on_c, 0, 46, 114
4, 260160, Note_on_c, 0, 49, 114
4, 260400, Note_on_c, 0, 49, 0
4, 260400, Note_on_c, 0, 46, 0
4, 260400, Note_on_c, 0, 43, 0
4, 260400, Note_on_c, 0, 43, 114
4, 260400, Note_on_c, 0, 46, 114
4, 260640, Note_on_c, 0, 46, 0
4, 260640, Note_on_c, 0, 43, 0
4, 260880, Note_on_c, 0, 43, 88
4, 260880, Note_on_c, 0, 46, 88
4, 260880, Note_on_c, 0, 49, 88
4, 261120, Note_on_c, 0, 49, 0
4, 261120, Note_on_c, 0, 46, 0
4, 261120, Note_on_c, 0, 43, 0
4, 261120, Control_c, 0, 64, 127
4, 261120, Note_on_c, 0, 45, 88
4, 261120, Note_on_c, 0, 48, 88
4, 261360, Note_on_c, 0, 48, 0
4, 261360, Note_on_c, 0, 45, 0
4, 261360, Note_on_c, 0, 41, 114
4, 261600, Note_on_c, 0, 41, 0
4, 261600, Note_on_c, 0, 45, 114
4, 261840, Note_on_c, 0, 45, 0
4, 261840, Note_on_c, 0, 48, 114
4, 262080, Note_on_c, 0, 48, 0
4, 262080, Note_on_c, 0, 53, 114
4, 262320, Note_on_c, 0, 53, 0
4, 262320, Note_on_c, 0, 57, 114
4, 262560, Note_on_c, 0, 57, 0
4, 262560, Note_on_c, 0, 60, 114
4, 262800, Note_on_c, 0, 60, 0
4, 262800, Control_c, 0, 64, 0
4, 262800, Note_on_c, 0, 65, 114
4, 263040, Note_on_c, 0, 65, 0
4, 263040, Note_on_c, 0, 52, 114
4, 263040, Note_on_c, 0, 57, 114
4, 263040, Note_on_c, 0, 61, 114
4, 263040, Note_on_c, 0, 64, 114
4, 263280, Note_on_c, 0, 64, 0
4, 263280, Note_on_c, 0, 52, 0
4, 263280, Note_on_c, 0, 57, 0
4, 263280, Note_on_c, 0, 61, 0
4, 263280, Control_c, 0, 64, 127
4, 263280, Note_on_c, 0, 28, 114
4, 263360, Note_on_c, 0, 28, 0
4, 263360, Note_on_c, 0, 40, 114
4, 263439, Note_on_c, 0, 40, 0
4, 263439, Note_on_c, 0, 28, 88
4, 263520, Note_on_c, 0, 28, 0
4, 263520, Note_on_c, 0, 40, 75
4, 263600, Note_on_c, 0, 40, 0
4, 263600, Note_on_c, 0, 28, 75
4, 263679, Note_on_c, 0, 28, 0
4, 263679, Note_on_c, 0, 40, 75
4, 263760, Note_on_c, 0, 40, 0
4, 263760, Note_on_c, 0, 28, 62
4, 263840, Note_on_c, 0, 28, 0
4, 263840, Note_on_c, 0, 40, 62
4, 263919, Note_on_c, 0, 40, 0
4, 263919, Note_on_c, 0, 28, 62
4, 264000, Note_on_c, 0, 28, 0
4, 264000, Control_c, 0, 64, 0
4, 264000, Note_on_c, 0, 28, 62
4, 264240, Note_on_c, 0, 28, 0
4, 264240, Note_on_c, 0, 40, 62
4, 264480, Note_on_c, 0, 40, 0
4, 264480, Note_on_c, 0, 42, 62
4, 264720, Note_on_c, 0, 42, 0
4, 264720, Note_on_c, 0, 44, 62
4, 264960, Note_on_c, 0, 44, 0
4, 264960, Note_on_c, 0, 45, 62
4, 265320, Note_on_c, 0, 45, 0
4, 265320, Note_on_c, 0, 44, 62
4, 265440, Note_on_c, 0, 44, 0
4, 265440, Note_on_c, 0, 42, 62
4, 265680, Note_on_c, 0, 42, 0
4, 266160, Note_on_c, 0, 42, 62
4, 266400, Note_on_c, 0, 42, 0
4, 266400, Note_on_c, 0, 44, 62
4, 266640, Note_on_c, 0, 44, 0
4, 266640, Note_on_c, 0, 45, 62
4, 266880, Note_on_c, 0, 45, 0
4, 266880, Note_on_c, 0, 47, 75
4, 267240, Note_on_c, 0, 47, 0
4, 267240, Note_on_c, 0, 45, 75
4, 267360, Note_on_c, 0, 45, 0
4, 267360, Note_on_c, 0, 44, 75
4, 267600, Note_on_c, 0, 44, 0
4, 268080, Note_on_c, 0, 44, 75
4, 268320, Note_on_c, 0, 44, 0
4, 268320, Note_on_c, 0, 45, 75
4, 268560, Note_on_c, 0, 45, 0
4, 268560, Note_on_c, 0, 47, 75
4, 268800, Note_on_c, 0, 47, 0
4, 268800, Note_on_c, 0, 49, 75
4, 269040, Note_on_c, 0, 49, 0
4, 269040, Note_on_c, 0, 44, 75
4, 269280, Note_on_c, 0, 44, 0
4, 269520, Note_on_c, 0, 49, 75
4, 269760, Note_on_c, 0, 49, 0
4, 269760, Note_on_c, 0, 48, 75
4, 270000, Note_on_c, 0, 48, 0
4, 270000, Note_on_c, 0, 42, 75
4, 270240, Note_on_c, 0, 42, 0
4, 270480, Note_on_c, 0, 48, 75
4, 270720, Note_on_c, 0, 48, 0
4, 270720, Note_on_c, 0, 47, 75
4, 270960, Note_on_c, 0, 47, 0
4, 270960, Note_on_c, 0, 42, 75
4, 271200, Note_on_c, 0, 42, 0
4, 271440, Note_on_c, 0, 47, 75
4, 271680, Note_on_c, 0, 47, 0
4, 271680, Note_on_c, 0, 45, 75
4, 271680, Note_on_c, 0, 48, 75
4, 271920, Note_on_c, 0, 48, 0
4, 271920, Note_on_c, 0, 45, 0
4, 271920, Note_on_c, 0, 45, 75
4, 271920, Note_on_c, 0, 48, 75
4, 272400, Note_on_c, 0, 48, 0
4, 272400, Note_on_c, 0, 45, 0
4, 272400, Note_on_c, 0, 45, 75
4, 272400, Note_on_c, 0, 48, 75
4, 272640, Note_on_c, 0, 48, 0
4, 272640, Note_on_c, 0, 45, 0
4, 273840, Note_on_c, 0, 54, 114
4, 274080, Note_on_c, 0, 54, 0
4, 274080, Note_on_c, 0, 56, 114
4, 274320, Note_on_c, 0, 56, 0
4, 274320, Note_on_c, 0, 57, 114
4, 274560, Note_on_c, 0, 57, 0
4, 274560, Note_on_c, 0, 59, 88
4, 274920, Note_on_c, 0, 59, 0
4, 274920, Note_on_c, 0, 57, 88
4, 275040, Note_on_c, 0, 57, 0
4, 275040, Note_on_c, 0, 56, 88
4, 275280, Note_on_c, 0, 56, 0
4, 275760, Note_on_c, 0, 56, 114
4, 276000, Note_on_c, 0, 56, 0
4, 276000, Note_on_c, 0, 57, 114
4, 276240, Note_on_c, 0, 57, 0
4, 276240, Note_on_c, 0, 59, 114
4, 276480, Note_on_c, 0, 59, 0
4, 276480, Note_on_c, 0, 57, 114
4, 276480, Note_on_c, 0, 60, 114
4, 276720, Note_on_c, 0, 60, 0
4, 276720, Note_on_c, 0, 57, 0
4, 276720, Note_on_c, 0, 57, 114
4, 276960, Note_on_c, 0, 57, 0
4, 277200, Note_on_c, 0, 60, 114
4, 277440, Note_on_c, 0, 60, 0
4, 277440, Note_on_c, 0, 49, 114
4, 277440, Note_on_c, 0, 52, 114
4, 277440, Note_on_c, 0, 58, 114
4, 277680, Note_on_c, 0, 58, 0
4, 277680, Note_on_c, 0, 52, 0
4, 277680, Note_on_c, 0, 49, 0
4, 277680, Note_on_c, 0, 49, 114
4, 277680, Note_on_c, 0, 52, 114
4, 277680, Note_on_c, 0, 55, 114
4, 277920, Note_on_c, 0, 55, 0
4, 277920, Note_on_c, 0, 52, 0
4, 277920, Note_on_c, 0, 49, 0
4, 278160, Note_on_c, 0, 58, 114
4, 278400, Note_on_c, 0, 58, 0
4, 278400, Note_on_c, 0, 47, 114
4, 278400, Note_on_c, 0, 50, 114
4, 278400, Note_on_c, 0, 56, 114
4, 278640, Note_on_c, 0, 56, 0
4, 278640, Note_on_c, 0, 50, 0
4, 278640, Note_on_c, 0, 47, 0
4, 278640, Note_on_c, 0, 47, 114
4, 278640, Note_on_c, 0, 50, 114
4, 278640, Note_on_c, 0, 53, 114
4, 278880, Note_on_c, 0, 53, 0
4, 278880, Note_on_c, 0, 50, 0
4, 278880, Note_on_c, 0, 47, 0
4, 279120, Note_on_c, 0, 56, 114
4, 279360, Note_on_c, 0, 56, 0
4, 279360, Note_on_c, 0, 45, 114
4, 279360, Note_on_c, 0, 48, 114
4, 279360, Note_on_c, 0, 54, 114
4, 279600, Note_on_c, 0, 54, 0
4, 279600, Note_on_c, 0, 48, 0
4, 279600, Note_on_c, 0, 45, 0
4, 279600, Note_on_c, 0, 45, 114
4, 279600, Note_on_c, 0, 48, 114
4, 279600, Note_on_c, 0, 51, 114
4, 279840, Note_on_c, 0, 51, 0
4, 279840, Note_on_c, 0, 48, 0
4, 279840, Note_on_c, 0, 45, 0
4, 280080, Note_on_c, 0, 54, 114
4, 280320, Note_on_c, 0, 54, 0
4, 280320, Note_on_c, 0, 46, 114
4, 280320, Note_on_c, 0, 49, 114
4, 280320, Note_on_c, 0, 52, 114
4, 280560, Note_on_c, 0, 52, 0
4, 280560, Note_on_c, 0, 49, 0
4, 280560, Note_on_c, 0, 46, 0
4, 280560, Note_on_c, 0, 46, 114
4, 280560, Note_on_c, 0, 49, 114
4, 280800, Note_on_c, 0, 49, 0
4, 280800, Note_on_c, 0, 46, 0
4, 281040, Note_on_c, 0, 52, 114
4, 281280, Note_on_c, 0, 52, 0
4, 281280, Note_on_c, 0, 45, 114
4, 281280, Note_on_c, 0, 48, 114
4, 281280, Note_on_c, 0, 51, 114
4, 281520, Note_on_c, 0, 51, 0
4, 281520, Note_on_c, 0, 48, 0
4, 281520, Note_on_c, 0, 45, 0
4, 281520, Note_on_c, 0, 45, 114
4, 281520, Note_on_c, 0, 48, 114
4, 281760, Note_on_c, 0, 48, 0
4, 281760, Note_on_c, 0, 45, 0
4, 282000, Note_on_c, 0, 51, 114
4, 282240, Note_on_c, 0, 51, 0
4, 282240, Note_on_c, 0, 47, 114
4, 282240, Note_on_c, 0, 50, 114
4, 282480, Note_on_c, 0, 50, 0
4, 282480, Note_on_c, 0, 47, 0
4, 282480, Note_on_c, 0, 47, 114
4, 282720, Note_on_c, 0, 47, 0
4, 282960, Note_on_c, 0, 47, 114
4, 282960, Note_on_c, 0, 50, 114
4, 283200, Note_on_c, 0, 50, 0
4, 283200, Note_on_c, 0, 47, 0
4, 283200, Note_on_c, 0, 47, 114
4, 283200, Note_on_c, 0, 50, 114
4, 283440, Note_on_c, 0, 50, 0
4, 283440, Note_on_c, 0, 47, 0
4, 283440, Note_on_c, 0, 47, 114
4, 283680, Note_on_c, 0, 47, 0
4, 283920, Note_on_c, 0, 47, 114
4, 283920, Note_on_c, 0, 50, 114
4, 284160, Note_on_c, 0, 50, 0
4, 284160, Note_on_c, 0, 47, 0
4, 284160, Note_on_c, 0, 46, 114
4, 284160, Note_on_c, 0, 50, 114
4, 284400, Note_on_c, 0, 50, 0
4, 284400, Note_on_c, 0, 46, 0
4, 284400, Note_on_c, 0, 46, 114
4, 284640, Note_on_c, 0, 46, 0
4, 284880, Note_on_c, 0, 46, 114
4, 284880, Note_on_c, 0, 50, 114
4, 285120, Note_on_c, 0, 50, 0
4, 285120, Note_on_c, 0, 46, 0
4, 285120, Note_on_c, 0, 46, 114
4, 285120, Note_on_c, 0, 50, 114
4, 285360, Note_on_c, 0, 50, 0
4, 285360, Note_on_c, 0, 46, 0
4, 285360, Note_on_c, 0, 46, 114
4, 285600, Note_on_c, 0, 46, 0
4, 285840, Note_on_c, 0, 46, 114
4, 285840, Note_on_c, 0, 50, 114
4, 286080, Note_on_c, 0, 50, 0
4, 286080, Note_on_c, 0, 46, 0
4, 286080, Control_c, 0, 64, 127
4, 286080, Note_on_c, 0, 49, 88
4, 286560, Note_on_c, 0, 49, 0
4, 287040, Note_on_c, 0, 45, 114
4, 288000, Note_on_c, 0, 45, 0
4, 288000, Note_on_c, 0, 49, 114
4, 288960, Note_on_c, 0, 49, 0
4, 288960, Control_c, 0, 64, 0
4, 288960, Note_on_c, 0, 52, 114
4, 289920, Note_on_c, 0, 52, 0
4, 289920, Control_c, 0, 64, 127
4, 289920, Note_on_c, 0, 57, 114
4, 290880, Note_on_c, 0, 57, 0
4, 290880, Note_on_c, 0, 49, 114
4, 291840, Note_on_c, 0, 49, 0
4, 291840, Note_on_c, 0, 52, 114
4, 292800, Note_on_c, 0, 52, 0
4, 292800, Control_c, 0, 64, 0
4, 292800, Note_on_c, 0, 57, 114
4, 293760, Note_on_c, 0, 57, 0
4, 293760, Note_on_c, 0, 45, 88
4, 293760, Note_on_c, 0, 49, 88
4, 293760, Note_on_c, 0, 52, 88
4, 293760, Note_on_c, 0, 57, 88
4, 294000, Note_on_c, 0, 57, 0
4, 294000, Note_on_c, 0, 45, 0
4, 294000, Note_on_c, 0, 49, 0
4, 294000, Note_on_c, 0, 52, 0
4, 294240, Note_on_c, 0, 45, 88
4, 294240, Note_on_c, 0, 49, 88
4, 294240, Note_on_c, 0, 52, 88
4, 294720, Note_on_c, 0, 52, 0
4, 294720, Note_on_c, 0, 49, 0
4, 294720, Note_on_c, 0, 45, 0
4, 294720, Note_on_c, 0, 40, 88
4, 294720, Note_on_c, 0, 45, 88
4, 294720, Note_on_c, 0, 49, 88
4, 294720, Note_on_c, 0, 52, 88
4, 295200, Note_on_c, 0, 52, 0
4, 295200, Note_on_c, 0, 40, 0
4, 295200, Note_on_c, 0, 45, 0
4, 295200, Note_on_c, 0, 49, 0
4, 295200, Note_on_c, 0, 37, 88
4, 295200, Note_on_c, 0, 40, 88
4, 295200, Note_on_c, 0, 45, 88
4, 295200, Note_on_c, 0, 49, 88
4, 295680, Note_on_c, 0, 49, 0
4, 295680, Note_on_c, 0, 37, 0
4, 295680, Note_on_c, 0, 40, 0
4, 295680, Note_on_c, 0, 45, 0
4, 295680, Control_c, 0, 64, 127
4, 295680, Note_on_c, 0, 33, 75
4, 295680, Note_on_c, 0, 36, 75
4, 295680, Note_on_c, 0, 41, 75
4, 295760, Note_on_c, 0, 41, 0
4, 295760, Note_on_c, 0, 36, 0
4, 295760, Note_on_c, 0, 33, 0
4, 295760, Note_on_c, 0, 45, 75
4, 295839, Note_on_c, 0, 45, 0
4, 295839, Note_on_c, 0, 33, 75
4, 295839, Note_on_c, 0, 36, 75
4, 295839, Note_on_c, 0, 41, 75
4, 295920, Note_on_c, 0, 41, 0
4, 295920, Note_on_c, 0, 36, 0
4, 295920, Note_on_c, 0, 33, 0
4, 295920, Note_on_c, 0, 45, 75
4, 296000, Note_on_c, 0, 45, 0
4, 296000, Note_on_c, 0, 33, 75
4, 296000, Note_on_c, 0, 36, 75
4, 296000, Note_on_c, 0, 41, 75
4, 296079, Note_on_c, 0, 41, 0
4, 296079, Note_on_c, 0, 36, 0
4, 296079, Note_on_c, 0, 33, 0
4, 296079, Note_on_c, 0, 45, 75
4, 296160, Note_on_c, 0, 45, 0
4, 296160, Note_on_c, 0, 33, 75
4, 296160, Note_on_c, 0, 36, 75
4, 296160, Note_on_c, 0, 41, 75
4, 296240, Note_on_c, 0, 41, 0
4, 296240, Note_on_c, 0, 36, 0
4, 296240, Note_on_c, 0, 33, 0
4, 296240, Note_on_c, 0, 45, 75
4, 296319, Note_on_c, 0, 45, 0
4, 296319, Note_on_c, 0, 33, 75
4, 296319, Note_on_c, 0, 36, 75
4, 296319, Note_on_c, 0, 41, 75
4, 296400, Note_on_c, 0, 41, 0
4, 296400, Note_on_c, 0, 36, 0
4, 296400, Note_on_c, 0, 33, 0
4, 296400, Note_on_c, 0, 45, 75
4, 296480, Note_on_c, 0, 45, 0
4, 296480, Note_on_c, 0, 33, 75
4, 296480, Note_on_c, 0, 36, 75
4, 296480, Note_on_c, 0, 41, 75
4, 296559, Note_on_c, 0, 41, 0
4, 296559, Note_on_c, 0, 36, 0
4, 296559, Note_on_c, 0, 33, 0
4, 296559, Note_on_c, 0, 45, 75
4, 296640, Note_on_c, 0, 45, 0
4, 296640, Note_on_c, 0, 33, 75
4, 296640, Note_on_c, 0, 36, 75
4, 296640, Note_on_c, 0, 41, 75
4, 296720, Note_on_c, 0, 41, 0
4, 296720, Note_on_c, 0, 36, 0
4, 296720, Note_on_c, 0, 33, 0
4, 296720, Note_on_c, 0, 45, 75
4, 296799, Note_on_c, 0, 45, 0
4, 296799, Note_on_c, 0, 33, 75
4, 296799, Note_on_c, 0, 36, 75
4, 296799, Note_on_c, 0, 41, 75
4, 296880, Note_on_c, 0, 41, 0
4, 296880, Note_on_c, 0, 36, 0
4, 296880, Note_on_c, 0, 33, 0
4, 296880, Note_on_c, 0, 45, 75
4, 296960, Note_on_c, 0, 45, 0
4, 296960, Note_on_c, 0, 33, 75
4, 296960, Note_on_c, 0, 36, 75
4, 296960, Note_on_c, 0, 41, 75
4, 297039, Note_on_c, 0, 41, 0
4, 297039, Note_on_c, 0, 36, 0
4, 297039, Note_on_c, 0, 33, 0
4, 297039, Note_on_c, 0, 45, 75
4, 297120, Note_on_c, 0, 45, 0
4, 297120, Note_on_c, 0, 33, 75
4, 297120, Note_on_c, 0, 36, 75
4, 297120, Note_on_c, 0, 41, 75
4, 297200, Note_on_c, 0, 41, 0
4, 297200, Note_on_c, 0, 36, 0
4, 297200, Note_on_c, 0, 33, 0
4, 297200, Note_on_c, 0, 45, 75
4, 297279, Note_on_c, 0, 45, 0
4, 297279, Note_on_c, 0, 33, 75
4, 297279, Note_on_c, 0, 36, 75
4, 297279, Note_on_c, 0, 41, 75
4, 297360, Note_on_c, 0, 41, 0
4, 297360, Note_on_c, 0, 36, 0
4, 297360, Note_on_c, 0, 33, 0
4, 297360, Note_on_c, 0, 45, 75
4, 297440, Note_on_c, 0, 45, 0
4, 297440, Note_on_c, 0, 33, 75
4, 297440, Note_on_c, 0, 36, 75
4, 297440, Note_on_c, 0, 41, 75
4, 297519, Note_on_c, 0, 41, 0
4, 297519, Note_on_c, 0, 36, 0
4, 297519, Note_on_c, 0, 33, 0
4, 297519, Control_c, 0, 64, 0
4, 297519, Note_on_c, 0, 45, 75
4, 297600, Note_on_c, 0, 45, 0
4, 297600, Note_on_c, 0, 33, 88
4, 297600, Note_on_c, 0, 37, 88
4, 297600, Note_on_c, 0, 40, 88
4, 297840, Note_on_c, 0, 40, 0
4, 297840, Note_on_c, 0, 37, 0
4, 297840, Note_on_c, 0, 33, 0
4, 298080, Note_on_c, 0, 45, 88
4, 298080, Note_on_c, 0, 49, 88
4, 298080, Note_on_c, 0, 52, 88
4, 298560, Note_on_c, 0, 52, 0
4, 298560, Note_on_c, 0, 49, 0
4, 298560, Note_on_c, 0, 45, 0
4, 298560, Note_on_c, 0, 40, 88
4, 298560, Note_on_c, 0, 45, 88
4, 298560, Note_on_c, 0, 49, 88
4, 298560, Note_on_c, 0, 52, 88
4, 299040, Note_on_c, 0, 52, 0
4, 299040, Note_on_c, 0, 40, 0
4, 299040, Note_on_c, 0, 45, 0
4, 299040, Note_on_c, 0, 49, 0
4, 299040, Note_on_c, 0, 37, 88
4, 299040, Note_on_c, 0, 40, 88
4, 299040, Note_on_c, 0, 45, 88
4, 299040, Note_on_c, 0, 49, 88
4, 299520, Note_on_c, 0, 49, 0
4, 299520, Note_on_c, 0, 37, 0
4, 299520, Note_on_c, 0, 40, 0
4, 299520, Note_on_c, 0, 45, 0
4, 299520, Control_c, 0, 64, 127
4, 299520, Note_on_c, 0, 33, 75
4, 299520, Note_on_c, 0, 36, 75
4, 299520, Note_on_c, 0, 41, 75
4, 299600, Note_on_c, 0, 41, 0
4, 299600, Note_on_c, 0, 36, 0
4, 299600, Note_on_c, 0, 33, 0
4, 299600, Note_on_c, 0, 45, 75
4, 299679, Note_on_c, 0, 45, 0
4, 299679, Note_on_c, 0, 33, 75
4, 299679, Note_on_c, 0, 36, 75
4, 299679, Note_on_c, 0, 41, 75
4, 299760, Note_on_c, 0, 41, 0
4, 299760, Note_on_c, 0, 36, 0
4, 299760, Note_on_c, 0, 33, 0
4, 299760, Note_on_c, 0, 45, 75
4, 299840, Note_on_c, 0, 45, 0
4, 299840, Note_on_c, 0, 33, 75
4, 299840, Note_on_c, 0, 36, 75
4, 299840, Note_on_c, 0, 41, 75
4, 299919, Note_on_c, 0, 41, 0
4, 299919, Note_on_c, 0, 36, 0
4, 299919, Note_on_c, 0, 33, 0
4, 299919, Note_on_c, 0, 45, 75
4, 300000, Note_on_c, 0, 45, 0
4, 300000, Note_on_c, 0, 33, 75
4, 300000, Note_on_c, 0, 36, 75
4, 300000, Note_on_c, 0, 41, 75
4, 300080, Note_on_c, 0, 41, 0
4, 300080, Note_on_c, 0, 36, 0
4, 300080, Note_on_c, 0, 33, 0
4, 300080, Note_on_c, 0, 45, 75
4, 300159, Note_on_c, 0, 45, 0
4, 300159, Note_on_c, 0, 33, 75
4, 300159, Note_on_c, 0, 36, 75
4, 300159, Note_on_c, 0, 41, 75
4, 300240, Note_on_c, 0, 41, 0
4, 300240, Note_on_c, 0, 36, 0
4, 300240, Note_on_c, 0, 33, 0
4, 300240, Note_on_c, 0, 45, 75
4, 300320, Note_on_c, 0, 45, 0
4, 300320, Note_on_c, 0, 33, 75
4, 300320, Note_on_c, 0, 36, 75
4, 300320, Note_on_c, 0, 41, 75
4, 300399, Note_on_c, 0, 41, 0
4, 300399, Note_on_c, 0, 36, 0
4, 300399, Note_on_c, 0, 33, 0
4, 300399, Note_on_c, 0, 45, 75
4, 300480, Note_on_c, 0, 45, 0
4, 300480, Note_on_c, 0, 33, 75
4, 300480, Note_on_c, 0, 36, 75
4, 300480, Note_on_c, 0, 41, 75
4, 300560, Note_on_c, 0, 41, 0
4, 300560, Note_on_c, 0, 36, 0
4, 300560, Note_on_c, 0, 33, 0
4, 300560, Note_on_c, 0, 45, 75
4, 300639, Note_on_c, 0, 45, 0
4, 300639, Note_on_c, 0, 33, 75
4, 300639, Note_on_c, 0, 36, 75
4, 300639, Note_on_c, 0, 41, 75
4, 300720, Note_on_c, 0, 41, 0
4, 300720, Note_on_c, 0, 36, 0
4, 300720, Note_on_c, 0, 33, 0
4, 300720, Note_on_c, 0, 45, 75
4, 300800, Note_on_c, 0, 45, 0
4, 300800, Note_on_c, 0, 33, 75
4, 300800, Note_on_c, 0, 36, 75
4, 300800, Note_on_c, 0, 41, 75
4, 300879, Note_on_c, 0, 41, 0
4, 300879, Note_on_c, 0, 36, 0
4, 300879, Note_on_c, 0, 33, 0
4, 300879, Note_on_c, 0, 45, 75
4, 300960, Note_on_c, 0, 45, 0
4, 300960, Note_on_c, 0, 33, 75
4, 300960, Note_on_c, 0, 36, 75
4, 300960, Note_on_c, 0, 41, 75
4, 301040, Note_on_c, 0, 41, 0
4, 301040, Note_on_c, 0, 36, 0
4, 301040, Note_on_c, 0, 33, 0
4, 301040, Note_on_c, 0, 45, 75
4, 301119, Note_on_c, 0, 45, 0
4, 301119, Note_on_c, 0, 33, 75
4, 301119, Note_on_c, 0, 36, 75
4, 301119, Note_on_c, 0, 41, 75
4, 301200, Note_on_c, 0, 41, 0
4, 301200, Note_on_c, 0, 36, 0
4, 301200, Note_on_c, 0, 33, 0
4, 301200, Note_on_c, 0, 45, 75
4, 301280, Note_on_c, 0, 45, 0
4, 301280, Note_on_c, 0, 33, 75
4, 301280, Note_on_c, 0, 36, 75
4, 301280, Note_on_c, 0, 41, 75
4, 301359, Note_on_c, 0, 41, 0
4, 301359, Note_on_c, 0, 36, 0
4, 301359, Note_on_c, 0, 33, 0
4, 301359, Control_c, 0, 64, 0
4, 301359, Note_on_c, 0, 45, 75
4, 301440, Note_on_c, 0, 45, 0
4, 301440, Control_c, 0, 64, 127
4, 301440, Note_on_c, 0, 33, 75
4, 301440, Note_on_c, 0, 37, 75
4, 301440, Note_on_c, 0, 40, 75
4, 301680, Note_on_c, 0, 40, 0
4, 301680, Note_on_c, 0, 37, 0
4, 301680, Note_on_c, 0, 33, 0
4, 301920, Note_on_c, 0, 45, 75
4, 301920, Note_on_c, 0, 49, 75
4, 301920, Note_on_c, 0, 52, 75
4, 301920, Note_on_c, 0, 57, 75
4, 302400, Note_on_c, 0, 57, 0
4, 302400, Note_on_c, 0, 45, 0
4, 302400, Note_on_c, 0, 49, 0
4, 302400, Note_on_c, 0, 52, 0
4, 302400, Note_on_c, 0, 49, 75
4, 302400, Note_on_c, 0, 52, 75
4, 302400, Note_on_c, 0, 57, 75
4, 302400, Note_on_c, 0, 61, 75
4, 302880, Note_on_c, 0, 61, 0
4, 302880, Note_on_c, 0, 49, 0
4, 302880, Note_on_c, 0, 52, 0
4, 302880, Note_on_c, 0, 57, 0
4, 302880, Note_on_c, 0, 52, 75
4, 302880, Note_on_c, 0, 57, 75
4, 302880, Note_on_c, 0, 61, 75
4, 302880, Note_on_c, 0, 64, 75
4, 303360, Note_on_c, 0, 64, 0
4, 303360, Note_on_c, 0, 52, 0
4, 303360, Note_on_c, 0, 57, 0
4, 303360, Note_on_c, 0, 61, 0
4, 303360, Note_on_c, 0, 57, 75
4, 303360, Note_on_c, 0, 61, 75
4, 303360, Note_on_c, 0, 64, 75
4, 303360, Note_on_c, 0, 69, 75
4, 303840, Note_on_c, 0, 69, 0
4, 303840, Note_on_c, 0, 57, 0
4, 303840, Note_on_c, 0, 61, 0
4, 303840, Note_on_c, 0, 64, 0
4, 303840, Note_on_c, 0, 57, 75
4, 303840, Note_on_c, 0, 61, 75
4, 303840, Note_on_c, 0, 64, 75
4, 303840, Note_on_c, 0, 69, 75
4, 304320, Note_on_c, 0, 69, 0
4, 304320, Note_on_c, 0, 57, 0
4, 304320, Note_on_c, 0, 61, 0
4, 304320, Note_on_c, 0, 64, 0
4, 304320, Note_on_c, 0, 52, 75
4, 304320, Note_on_c, 0, 57, 75
4, 304320, Note_on_c, 0, 61, 75
4, 304320, Note_on_c, 0, 64, 75
4, 304800, Note_on_c, 0, 64, 0
4, 304800, Note_on_c, 0, 52, 0
4, 304800, Note_on_c, 0, 57, 0
4, 304800, Note_on_c, 0, 61, 0
4, 304800, Control_c, 0, 64, 0
4, 304800, Note_on_c, 0, 49, 75
4, 304800, Note_on_c, 0, 52, 75
4, 304800, Note_on_c, 0, 57, 75
4, 304800, Note_on_c, 0, 61, 75
4, 305280, Note_on_c, 0, 61, 0
4, 305280, Note_on_c, 0, 49, 0
4, 305280, Note_on_c, 0, 52, 0
4, 305280, Note_on_c, 0, 57, 0
4, 305280, Note_on_c, 0, 45, 88
4, 305280, Note_on_c, 0, 49, 88
4, 305280, Note_on_c, 0, 52, 88
4, 305280, Note_on_c, 0, 57, 88
4, 305520, Note_on_c, 0, 57, 0
4, 305520, Note_on_c, 0, 45, 0
4, 305520, Note_on_c, 0, 49, 0
4, 305520, Note_on_c, 0, 52, 0
4, 305760, Control_c, 0, 64, 127
4, 305760, Note_on_c, 0, 69, 88
4, 305760, Note_on_c, 0, 73, 88
4, 305840, Note_on_c, 0, 73, 0
4, 305840, Note_on_c, 0, 69, 0
4, 305840, Note_on_c, 0, 76, 88
4, 305919, Note_on_c, 0, 76, 0
4, 305919, Note_on_c, 0, 69, 88
4, 305919, Note_on_c, 0, 73, 88
4, 306000, Note_on_c, 0, 73, 0
4, 306000, Note_on_c, 0, 69, 0
4, 306000, Note_on_c, 0, 76, 88
4, 306080, Note_on_c, 0, 76, 0
4, 306080, Note_on_c, 0, 69, 88
4, 306080, Note_on_c, 0, 73, 88
4, 306159, Note_on_c, 0, 73, 0
4, 306159, Note_on_c, 0, 69, 0
4, 306159, Control_c, 0, 64, 0
4, 306159, Note_on_c, 0, 76, 88
4, 306240, Note_on_c, 0, 76, 0
4, 306240, Control_c, 0, 64, 127
4, 306240, Note_on_c, 0, 69, 88
4, 306240, Note_on_c, 0, 73, 88
4, 306320, Note_on_c, 0, 73, 0
4, 306320, Note_on_c, 0, 69, 0
4, 306320, Note_on_c, 0, 76, 88
4, 306399, Note_on_c, 0, 76, 0
4, 306399, Note_on_c, 0, 69, 88
4, 306399, Note_on_c, 0, 73, 88
4, 306480, Note_on_c, 0, 73, 0
4, 306480, Note_on_c, 0, 69, 0
4, 306480, Note_on_c, 0, 76, 88
4, 306560, Note_on_c, 0, 76, 0
4, 306560, Note_on_c, 0, 69, 88
4, 306560, Note_on_c, 0, 73, 88
4, 306639, Note_on_c, 0, 73, 0
4, 306639, Note_on_c, 0, 69, 0
4, 306639, Control_c, 0, 64, 0
4, 306639, Note_on_c, 0, 76, 88
4, 306720, Note_on_c, 0, 76, 0
4, 306720, Control_c, 0, 64, 127
4, 306720, Note_on_c, 0, 69, 88
4, 306720, Note_on_c, 0, 73, 88
4, 306800, Note_on_c, 0, 73, 0
4, 306800, Note_on_c, 0, 69, 0
4, 306800, Note_on_c, 0, 76, 88
4, 306879, Note_on_c, 0, 76, 0
4, 306879, Note_on_c, 0, 69, 88
4, 306879, Note_on_c, 0, 73, 88
4, 306960, Note_on_c, 0, 73, 0
4, 306960, Note_on_c, 0, 69, 0
4, 306960, Note_on_c, 0, 76, 88
4, 307040, Note_on_c, 0, 76, 0
4, 307040, Note_on_c, 0, 69, 88
4, 307040, Note_on_c, 0, 73, 88
4, 307119, Note_on_c, 0, 73, 0
4, 307119, Note_on_c, 0, 69, 0
4, 307119, Control_c, 0, 64, 0
4, 307119, Note_on_c, 0, 76, 88
4, 307200, Note_on_c, 0, 76, 0
4, 307200, Control_c, 0, 64, 127
4, 307200, Note_on_c, 0, 69, 75
4, 307200, Note_on_c, 0, 73, 75
4, 307280, Note_on_c, 0, 73, 0
4, 307280, Note_on_c, 0, 69, 0
4, 307280, Note_on_c, 0, 76, 75
4, 307359, Note_on_c, 0, 76, 0
4, 307359, Note_on_c, 0, 69, 75
4, 307359, Note_on_c, 0, 73, 75
4, 307440, Note_on_c, 0, 73, 0
4, 307440, Note_on_c, 0, 69, 0
4, 307440, Note_on_c, 0, 76, 75
4, 307520, Note_on_c, 0, 76, 0
4, 307520, Note_on_c, 0, 69, 75
4, 307520, Note_on_c, 0, 73, 75
4, 307599, Note_on_c, 0, 73, 0
4, 307599, Note_on_c, 0, 69, 0
4, 307599, Control_c, 0, 64, 0
4, 307599, Note_on_c, 0, 76, 75
4, 307680, Note_on_c, 0, 76, 0
4, 307680, Control_c, 0, 64, 127
4, 307680, Note_on_c, 0, 69, 75
4, 307680, Note_on_c, 0, 73, 75
4, 307760, Note_on_c, 0, 73, 0
4, 307760, Note_on_c, 0, 69, 0
4, 307760, Note_on_c, 0, 76, 75
4, 307839, Note_on_c, 0, 76, 0
4, 307839, Note_on_c, 0, 69, 75
4, 307839, Note_on_c, 0, 73, 75
4, 307920, Note_on_c, 0, 73, 0
4, 307920, Note_on_c, 0, 69, 0
4, 307920, Note_on_c, 0, 76, 75
4, 308000, Note_on_c, 0, 76, 0
4, 308000, Note_on_c, 0, 69, 75
4, 308000, Note_on_c, 0, 73, 75
4, 308079, Note_on_c, 0, 73, 0
4, 308079, Note_on_c, 0, 69, 0
4, 308079, Control_c, 0, 64, 0
4, 308079, Note_on_c, 0, 76, 75
4, 308160, Note_on_c, 0, 76, 0
4, 308160, Control_c, 0, 64, 127
4, 308160, Note_on_c, 0, 69, 62
4, 308160, Note_on_c, 0, 73, 62
4, 308240, Note_on_c, 0, 73, 0
4, 308240, Note_on_c, 0, 69, 0
4, 308240, Note_on_c, 0, 76, 62
4, 308319, Note_on_c, 0, 76, 0
4, 308319, Note_on_c, 0, 69, 62
4, 308319, Note_on_c, 0, 73, 62
4, 308400, Note_on_c, 0, 73, 0
4, 308400, Note_on_c, 0, 69, 0
4, 308400, Note_on_c, 0, 76, 62
4, 308480, Note_on_c, 0, 76, 0
4, 308480, Note_on_c, 0, 69, 62
4, 308480, Note_on_c, 0, 73, 62
4, 308559, Note_on_c, 0, 73, 0
4, 308559, Note_on_c, 0, 69, 0
4, 308559, Control_c, 0, 64, 0
4, 308559, Note_on_c, 0, 76, 62
4, 308640, Note_on_c, 0, 76, 0
4, 308640, Control_c, 0, 64, 127
4, 308640, Note_on_c, 0, 69, 62
4, 308640, Note_on_c, 0, 73, 62
4, 308720, Note_on_c, 0, 73, 0
4, 308720, Note_on_c, 0, 69, 0
4, 308720, Note_on_c, 0, 76, 62
4, 308799, Note_on_c, 0, 76, 0
4, 308799, Note_on_c, 0, 69, 62
4, 308799, Note_on_c, 0, 73, 62
4, 308880, Note_on_c, 0, 73, 0
4, 308880, Note_on_c, 0, 69, 0
4, 308880, Note_on_c, 0, 76, 62
4, 308960, Note_on_c, 0, 76, 0
4, 308960, Note_on_c, 0, 69, 62
4, 308960, Note_on_c, 0, 73, 62
4, 309039, Note_on_c, 0, 73, 0
4, 309039, Note_on_c, 0, 69, 0
4, 309039, Control_c, 0, 64, 0
4, 309039, Note_on_c, 0, 76, 62
4, 309120, Note_on_c, 0, 76, 0
4, 309600, Note_on_c, 0, 78, 114
4, 311040, Note_on_c, 0, 78, 0
4, 311040, Note_on_c, 0, 76, 114
4, 311400, Note_on_c, 0, 76, 0
4, 311400, Note_on_c, 0, 76, 114
4, 311520, Note_on_c, 0, 76, 0
4, 311520, Note_on_c, 0, 75, 88
4, 312480, Note_on_c, 0, 75, 0
4, 312480, Note_on_c, 0, 74, 114
4, 312720, Note_on_c, 0, 74, 0
4, 312720, Note_on_c, 0, 75, 114
4, 312960, Note_on_c, 0, 75, 0
4, 312960, Note_on_c, 0, 76, 114
4, 313200, Note_on_c, 0, 76, 0
4, 313200, Note_on_c, 0, 75, 114
4, 314400, Note_on_c, 0, 75, 0
4, 314400, Note_on_c, 0, 74, 114
4, 314640, Note_on_c, 0, 74, 0
4, 314640, Note_on_c, 0, 75, 114
4, 314880, Note_on_c, 0, 75, 0
4, 314880, Note_on_c, 0, 76, 114
4, 315120, Note_on_c, 0, 76, 0
4, 315120, Note_on_c, 0, 75, 114
4, 315840, Note_on_c, 0, 75, 0
4, 315840, Note_on_c, 0, 74, 114
4, 316080, Note_on_c, 0, 74, 0
4, 316080, Note_on_c, 0, 75, 114
4, 316800, Note_on_c, 0, 75, 0
4, 316800, Note_on_c, 0, 74, 114
4, 317040, Note_on_c, 0, 74, 0
4, 317040, Note_on_c, 0, 75, 114
4, 317760, Note_on_c, 0, 75, 0
4, 317760, Note_on_c, 0, 67, 127
4, 318000, Note_on_c, 0, 67, 0
4, 318000, Note_on_c, 0, 67, 127
4, 318240, Note_on_c, 0, 67, 0
4, 318240, End_track
5, 0, Start_track
5, 0, Title_t, "Grand Piano"
5, 0, Program_c, 0, 0
5, 0, Control_c, 0, 7, 115
5, 0, Control_c, 0, 10, 47
5, 0, Note_on_c, 0, 48, 49
5, 960, Note_on_c, 0, 48, 0
5, 960, Note_on_c, 0, 43, 49
5, 1920, Note_on_c, 0, 43, 0
5, 1920, Note_on_c, 0, 48, 49
5, 2880, Note_on_c, 0, 48, 0
5, 2880, Note_on_c, 0, 43, 49
5, 3840, Note_on_c, 0, 43, 0
5, 3840, Note_on_c, 0, 48, 49
5, 4800, Note_on_c, 0, 48, 0
5, 4800, Note_on_c, 0, 43, 49
5, 5760, Note_on_c, 0, 43, 0
5, 5760, Note_on_c, 0, 48, 49
5, 6720, Note_on_c, 0, 48, 0
5, 6720, Note_on_c, 0, 43, 49
5, 7680, Note_on_c, 0, 43, 0
5, 7680, Note_on_c, 0, 48, 49
5, 8640, Note_on_c, 0, 48, 0
5, 8640, Note_on_c, 0, 43, 49
5, 9600, Note_on_c, 0, 43, 0
5, 9600, Note_on_c, 0, 48, 49
5, 10560, Note_on_c, 0, 48, 0
5, 10560, Note_on_c, 0, 43, 49
5, 11520, Note_on_c, 0, 43, 0
5, 11520, Note_on_c, 0, 48, 49
5, 12480, Note_on_c, 0, 48, 0
5, 12480, Note_on_c, 0, 43, 49
5, 13440, Note_on_c, 0, 43, 0
5, 13440, Note_on_c, 0, 48, 49
5, 14400, Note_on_c, 0, 48, 0
5, 14400, Note_on_c, 0, 43, 49
5, 15360, Note_on_c, 0, 43, 0
5, 15360, Note_on_c, 0, 48, 62
5, 16320, Note_on_c, 0, 48, 0
5, 16320, Note_on_c, 0, 43, 62
5, 17280, Note_on_c, 0, 43, 0
5, 17280, Note_on_c, 0, 48, 62
5, 18240, Note_on_c, 0, 48, 0
5, 18240, Note_on_c, 0, 43, 62
5, 19200, Note_on_c, 0, 43, 0
5, 19200, Note_on_c, 0, 48, 62
5, 20160, Note_on_c, 0, 48, 0
5, 20160, Note_on_c, 0, 43, 62
5, 21120, Note_on_c, 0, 43, 0
5, 21120, Note_on_c, 0, 48, 62
5, 22080, Note_on_c, 0, 48, 0
5, 22080, Note_on_c, 0, 43, 62
5, 23040, Note_on_c, 0, 43, 0
5, 23040, Note_on_c, 0, 48, 62
5, 24000, Note_on_c, 0, 48, 0
5, 24000, Note_on_c, 0, 43, 62
5, 24960, Note_on_c, 0, 43, 0
5, 24960, Note_on_c, 0, 48, 62
5, 25920, Note_on_c, 0, 48, 0
5, 25920, Note_on_c, 0, 43, 62
5, 26880, Note_on_c, 0, 43, 0
5, 26880, Note_on_c, 0, 48, 62
5, 27840, Note_on_c, 0, 48, 0
5, 27840, Note_on_c, 0, 43, 62
5, 28800, Note_on_c, 0, 43, 0
5, 28800, Note_on_c, 0, 48, 62
5, 29760, Note_on_c, 0, 48, 0
5, 29760, Note_on_c, 0, 44, 62
5, 30720, Note_on_c, 0, 44, 0
5, 30720, Note_on_c, 0, 48, 62
5, 31680, Note_on_c, 0, 48, 0
5, 31680, Note_on_c, 0, 43, 62
5, 32640, Note_on_c, 0, 43, 0
5, 32640, Note_on_c, 0, 48, 62
5, 33600, Note_on_c, 0, 48, 0
5, 33600, Note_on_c, 0, 43, 62
5, 34560, Note_on_c, 0, 43, 0
5, 34560, Note_on_c, 0, 48, 49
5, 35520, Note_on_c, 0, 48, 0
5, 35520, Note_on_c, 0, 43, 49
5, 36480, Note_on_c, 0, 43, 0
5, 36480, Note_on_c, 0, 48, 49
5, 37440, Note_on_c, 0, 48, 0
5, 37440, Note_on_c, 0, 43, 49
5, 38400, Note_on_c, 0, 43, 0
5, 38400, Note_on_c, 0, 48, 49
5, 39360, Note_on_c, 0, 48, 0
5, 39360, Note_on_c, 0, 43, 49
5, 40320, Note_on_c, 0, 43, 0
5, 40320, Note_on_c, 0, 48, 49
5, 41280, Note_on_c, 0, 48, 0
5, 41280, Note_on_c, 0, 43, 49
5, 42240, Note_on_c, 0, 43, 0
5, 42240, Note_on_c, 0, 48, 49
5, 43200, Note_on_c, 0, 48, 0
5, 43200, Note_on_c, 0, 43, 49
5, 44160, Note_on_c, 0, 43, 0
5, 44160, Note_on_c, 0, 48, 49
5, 45120, Note_on_c, 0, 48, 0
5, 45120, Note_on_c, 0, 43, 49
5, 46080, Note_on_c, 0, 43, 0
5, 46080, Note_on_c, 0, 48, 62
5, 47040, Note_on_c, 0, 48, 0
5, 47040, Note_on_c, 0, 43, 62
5, 48000, Note_on_c, 0, 43, 0
5, 48000, Note_on_c, 0, 48, 62
5, 48960, Note_on_c, 0, 48, 0
5, 48960, Note_on_c, 0, 43, 62
5, 49920, Note_on_c, 0, 43, 0
5, 49920, Note_on_c, 0, 48, 62
5, 50880, Note_on_c, 0, 48, 0
5, 50880, Note_on_c, 0, 43, 62
5, 51840, Note_on_c, 0, 43, 0
5, 51840, Note_on_c, 0, 48, 62
5, 52800, Note_on_c, 0, 48, 0
5, 52800, Note_on_c, 0, 45, 62
5, 53760, Note_on_c, 0, 45, 0
5, 53760, Note_on_c, 0, 52, 62
5, 54720, Note_on_c, 0, 52, 0
5, 54720, Note_on_c, 0, 53, 62
5, 54960, Note_on_c, 0, 53, 0
5, 55680, Note_on_c, 0, 42, 49
5, 56640, Note_on_c, 0, 42, 0
5, 56640, Note_on_c, 0, 43, 49
5, 57600, Note_on_c, 0, 43, 0
5, 57600, Note_on_c, 0, 45, 49
5, 58560, Note_on_c, 0, 45, 0
5, 58560, Note_on_c, 0, 47, 49
5, 59520, Note_on_c, 0, 47, 0
5, 59520, Note_on_c, 0, 48, 49
5, 60480, Note_on_c, 0, 48, 0
5, 241200, Note_on_c, 0, 41, 62
5, 242880, Note_on_c, 0, 41, 0
5, 242880, Note_on_c, 0, 29, 62
5, 242880, Note_on_c, 0, 41, 62
5, 243120, Note_on_c, 0, 41, 0
5, 243120, Note_on_c, 0, 29, 0
5, 243120, Note_on_c, 0, 41, 62
5, 244800, Note_on_c, 0, 41, 0
5, 244800, Note_on_c, 0, 29, 75
5, 244800, Note_on_c, 0, 41, 75
5, 245040, Note_on_c, 0, 41, 0
5, 245040, Note_on_c, 0, 29, 0
5, 245040, Note_on_c, 0, 41, 75
5, 246240, Note_on_c, 0, 41, 0
5, 246240, Note_on_c, 0, 41, 75
5, 247200, Note_on_c, 0, 41, 0
5, 247200, Note_on_c, 0, 41, 75
5, 248160, Note_on_c, 0, 41, 0
5, 248160, Note_on_c, 0, 41, 75
5, 249120, Note_on_c, 0, 41, 0
5, 249120, Note_on_c, 0, 41, 75
5, 249600, Note_on_c, 0, 41, 0
5, 249600, Note_on_c, 0, 29, 88
5, 249600, Note_on_c, 0, 41, 88
5, 250320, Note_on_c, 0, 41, 0
5, 250320, Note_on_c, 0, 29, 0
5, 250560, Note_on_c, 0, 41, 88
5, 250800, Note_on_c, 0, 41, 0
5, 251520, Note_on_c, 0, 53, 88
5, 252480, Note_on_c, 0, 53, 0
5, 252480, Note_on_c, 0, 41, 88
5, 252960, Note_on_c, 0, 41, 0
5, 252960, Note_on_c, 0, 53, 88
5, 253920, Note_on_c, 0, 53, 0
5, 253920, Note_on_c, 0, 41, 88
5, 254880, Note_on_c, 0, 41, 0
5, 254880, Note_on_c, 0, 41, 88
5, 255840, Note_on_c, 0, 41, 0
5, 255840, Note_on_c, 0, 41, 88
5, 256800, Note_on_c, 0, 41, 0
5, 256800, Note_on_c, 0, 41, 88
5, 257760, Note_on_c, 0, 41, 0
5, 257760, Note_on_c, 0, 41, 88
5, 258720, Note_on_c, 0, 41, 0
5, 258720, Note_on_c, 0, 41, 88
5, 259680, Note_on_c, 0, 41, 0
5, 259680, Note_on_c, 0, 41, 88
5, 260640, Note_on_c, 0, 41, 0
5, 260640, Note_on_c, 0, 41, 88
5, 261360, Note_on_c, 0, 41, 0
5, 264240, Note_on_c, 0, 40, 62
5, 265920, Note_on_c, 0, 40, 0
5, 265920, Note_on_c, 0, 28, 62
5, 265920, Note_on_c, 0, 40, 62
5, 266160, Note_on_c, 0, 40, 0
5, 266160, Note_on_c, 0, 28, 0
5, 266160, Note_on_c, 0, 40, 62
5, 267840, Note_on_c, 0, 40, 0
5, 267840, Note_on_c, 0, 28, 75
5, 267840, Note_on_c, 0, 40, 75
5, 268080, Note_on_c, 0, 40, 0
5, 268080, Note_on_c, 0, 28, 0
5, 268080, Note_on_c, 0, 40, 75
5, 269280, Note_on_c, 0, 40, 0
5, 269280, Note_on_c, 0, 40, 75
5, 270240, Note_on_c, 0, 40, 0
5, 270240, Note_on_c, 0, 40, 75
5, 271200, Note_on_c, 0, 40, 0
5, 271200, Note_on_c, 0, 40, 75
5, 272160, Note_on_c, 0, 40, 0
5, 272160, Note_on_c, 0, 40, 75
5, 272640, Note_on_c, 0, 40, 0
5, 272640, Note_on_c, 0, 28, 88
5, 272640, Note_on_c, 0, 40, 88
5, 273360, Note_on_c, 0, 40, 0
5, 273360, Note_on_c, 0, 28, 0
5, 273600, Note_on_c, 0, 40, 88
5, 273840, Note_on_c, 0, 40, 0
5, 274560, Note_on_c, 0, 52, 88
5, 275520, Note_on_c, 0, 52, 0
5, 275520, Note_on_c, 0, 40, 88
5, 276000, Note_on_c, 0, 40, 0
5, 276000, Note_on_c, 0, 52, 88
5, 276960, Note_on_c, 0, 52, 0
5, 276960, Note_on_c, 0, 40, 88
5, 277920, Note_on_c, 0, 40, 0
5, 277920, Note_on_c, 0, 40, 88
5, 278880, Note_on_c, 0, 40, 0
5, 278880, Note_on_c, 0, 40, 88
5, 279840, Note_on_c, 0, 40, 0
5, 279840, Note_on_c, 0, 40, 88
5, 280800, Note_on_c, 0, 40, 0
5, 280800, Note_on_c, 0, 40, 88
5, 281760, Note_on_c, 0, 40, 0
5, 281760, Note_on_c, 0, 40, 88
5, 282720, Note_on_c, 0, 40, 0
5, 282720, Note_on_c, 0, 40, 101
5, 283680, Note_on_c, 0, 40, 0
5, 283680, Note_on_c, 0, 40, 101
5, 284640, Note_on_c, 0, 40, 0
5, 284640, Note_on_c, 0, 40, 101
5, 285600, Note_on_c, 0, 40, 0
5, 285600, Note_on_c, 0, 40, 101
5, 286080, Note_on_c, 0, 40, 0
5, 286080, Control_c, 0, 64, 127
5, 286080, Note_on_c, 0, 45, 101
5, 286560, Note_on_c, 0, 45, 0
5, 286560, Note_on_c, 0, 33, 101
5, 286560, Note_on_c, 0, 40, 101
5, 287040, Note_on_c, 0, 40, 0
5, 287040, Note_on_c, 0, 33, 0
5, 287520, Note_on_c, 0, 33, 101
5, 287520, Note_on_c, 0, 40, 101
5, 288000, Note_on_c, 0, 40, 0
5, 288000, Note_on_c, 0, 33, 0
5, 288480, Note_on_c, 0, 33, 101
5, 288480, Note_on_c, 0, 40, 101
5, 288480, Note_on_c, 0, 45, 101
5, 288960, Note_on_c, 0, 45, 0
5, 288960, Note_on_c, 0, 40, 0
5, 288960, Note_on_c, 0, 33, 0
5, 289440, Control_c, 0, 64, 0
5, 289440, Note_on_c, 0, 33, 101
5, 289440, Note_on_c, 0, 40, 101
5, 289440, Note_on_c, 0, 45, 101
5, 289920, Note_on_c, 0, 45, 0
5, 289920, Note_on_c, 0, 40, 0
5, 289920, Note_on_c, 0, 33, 0
5, 289920, Control_c, 0, 64, 127
5, 290400, Note_on_c, 0, 45, 101
5, 290400, Note_on_c, 0, 52, 101
5, 290880, Note_on_c, 0, 52, 0
5, 290880, Note_on_c, 0, 45, 0
5, 291360, Note_on_c, 0, 33, 101
5, 291360, Note_on_c, 0, 40, 101
5, 291360, Note_on_c, 0, 45, 101
5, 291840, Note_on_c, 0, 45, 0
5, 291840, Note_on_c, 0, 40, 0
5, 291840, Note_on_c, 0, 33, 0
5, 292320, Note_on_c, 0, 33, 101
5, 292320, Note_on_c, 0, 40, 101
5, 292320, Note_on_c, 0, 45, 101
5, 292800, Note_on_c, 0, 45, 0
5, 292800, Note_on_c, 0, 40, 0
5, 292800, Note_on_c, 0, 33, 0
5, 293280, Control_c, 0, 64, 0
5, 293280, Note_on_c, 0, 45, 101
5, 293280, Note_on_c, 0, 49, 101
5, 293280, Note_on_c, 0, 52, 101
5, 293760, Note_on_c, 0, 52, 0
5, 293760, Note_on_c, 0, 49, 0
5, 293760, Note_on_c, 0, 45, 0
5, 293760, End_track
0, 0, End_of_file
