0, 0, Header, 1, 5, 480
1, 0, Start_track
1, 0, Title_t, "nutcracker act2 12b le chocolat"
1, 0, Copyright_t, "Adaptation for Disklavier pianos, by: Robert C. Kuhmann (c) 2012."
1, 0, Text_t, "Seq. (c) by: Segundo G. Yogore, 2007\012"
1, 0, Time_signature, 3, 3, 12, 8
1, 0, Key_signature, -2, "major"
1, 0, Tempo, 833333
1, 70800, Tempo, 869565
1, 71040, Tempo, 909091
1, 71280, Tempo, 952381
1, 71520, Tempo, 1016949
1, 71760, Tempo, 1071429
1, 72000, Tempo, 1132075
1, 72240, Tempo, 1200000
1, 72480, Tempo, 1304348
1, 72720, Time_signature, 8, 2, 24, 8
1, 72720, End_track
2, 0, Start_track
2, 0, Title_t, "Grand Piano"
2, 0, Program_c, 0, 0
2, 0, Control_c, 0, 7, 115
2, 0, Control_c, 0, 10, 86
2, 4320, Note_on_c, 0, 65, 93
2, 4560, Note_on_c, 0, 65, 0
2, 4560, Control_c, 0, 64, 127
2, 4560, Note_on_c, 0, 63, 67
2, 4607, Note_on_c, 0, 63, 0
2, 4607, Note_on_c, 0, 65, 67
2, 4656, Note_on_c, 0, 65, 0
2, 4656, Note_on_c, 0, 63, 67
2, 4703, Note_on_c, 0, 63, 0
2, 4703, Note_on_c, 0, 65, 67
2, 4752, Note_on_c, 0, 65, 0
2, 4752, Control_c, 0, 64, 0
2, 4752, Note_on_c, 0, 63, 67
2, 4800, Note_on_c, 0, 63, 0
2, 4800, Note_on_c, 0, 62, 67
2, 5760, Note_on_c, 0, 62, 0
2, 7200, Note_on_c, 0, 65, 93
2, 7440, Note_on_c, 0, 65, 0
2, 7440, Control_c, 0, 64, 127
2, 7440, Note_on_c, 0, 63, 67
2, 7487, Note_on_c, 0, 63, 0
2, 7487, Note_on_c, 0, 65, 67
2, 7536, Note_on_c, 0, 65, 0
2, 7536, Note_on_c, 0, 63, 67
2, 7583, Note_on_c, 0, 63, 0
2, 7583, Note_on_c, 0, 65, 67
2, 7632, Note_on_c, 0, 65, 0
2, 7632, Control_c, 0, 64, 0
2, 7632, Note_on_c, 0, 63, 67
2, 7680, Note_on_c, 0, 63, 0
2, 7680, Note_on_c, 0, 62, 67
2, 9360, Note_on_c, 0, 62, 0
2, 9360, Note_on_c, 0, 67, 67
2, 9360, Note_on_c, 0, 70, 67
2, 9840, Note_on_c, 0, 70, 0
2, 9840, Note_on_c, 0, 67, 0
2, 9840, Note_on_c, 0, 69, 67
2, 9840, Note_on_c, 0, 72, 67
2, 10080, Note_on_c, 0, 72, 0
2, 10080, Note_on_c, 0, 69, 0
2, 10080, Note_on_c, 0, 70, 67
2, 10080, Note_on_c, 0, 74, 67
2, 10320, Note_on_c, 0, 74, 0
2, 10320, Note_on_c, 0, 70, 0
2, 10320, Note_on_c, 0, 70, 93
2, 10320, Note_on_c, 0, 74, 93
2, 10800, Note_on_c, 0, 74, 0
2, 10800, Note_on_c, 0, 70, 0
2, 10800, Note_on_c, 0, 70, 80
2, 10800, Note_on_c, 0, 74, 80
2, 11160, Note_on_c, 0, 74, 0
2, 11160, Note_on_c, 0, 70, 0
2, 11160, Note_on_c, 0, 69, 80
2, 11160, Note_on_c, 0, 72, 80
2, 11280, Note_on_c, 0, 72, 0
2, 11280, Note_on_c, 0, 69, 0
2, 11280, Note_on_c, 0, 70, 80
2, 11280, Note_on_c, 0, 74, 80
2, 11520, Note_on_c, 0, 74, 0
2, 11520, Note_on_c, 0, 70, 0
2, 11520, Note_on_c, 0, 69, 80
2, 11520, Note_on_c, 0, 72, 80
2, 11760, Note_on_c, 0, 72, 0
2, 11760, Note_on_c, 0, 69, 0
2, 11760, Note_on_c, 0, 67, 106
2, 11760, Note_on_c, 0, 70, 106
2, 12240, Note_on_c, 0, 70, 0
2, 12240, Note_on_c, 0, 67, 0
2, 12240, Note_on_c, 0, 69, 80
2, 12240, Note_on_c, 0, 72, 80
2, 12720, Note_on_c, 0, 72, 0
2, 12720, Note_on_c, 0, 69, 0
2, 12720, Note_on_c, 0, 70, 80
2, 12720, Note_on_c, 0, 74, 80
2, 12960, Note_on_c, 0, 74, 0
2, 12960, Note_on_c, 0, 70, 0
2, 12960, Note_on_c, 0, 67, 80
2, 12960, Note_on_c, 0, 70, 80
2, 13200, Note_on_c, 0, 70, 0
2, 13200, Note_on_c, 0, 67, 0
2, 13200, Control_c, 0, 64, 127
2, 13200, Note_on_c, 0, 66, 80
2, 13200, Note_on_c, 0, 69, 80
2, 13247, Note_on_c, 0, 69, 0
2, 13247, Note_on_c, 0, 66, 0
2, 13247, Note_on_c, 0, 67, 80
2, 13247, Note_on_c, 0, 70, 80
2, 13296, Note_on_c, 0, 70, 0
2, 13296, Note_on_c, 0, 67, 0
2, 13296, Note_on_c, 0, 66, 80
2, 13296, Note_on_c, 0, 69, 80
2, 13343, Note_on_c, 0, 69, 0
2, 13343, Note_on_c, 0, 66, 0
2, 13343, Note_on_c, 0, 67, 80
2, 13343, Note_on_c, 0, 70, 80
2, 13392, Note_on_c, 0, 70, 0
2, 13392, Note_on_c, 0, 67, 0
2, 13392, Control_c, 0, 64, 0
2, 13392, Note_on_c, 0, 66, 80
2, 13392, Note_on_c, 0, 69, 80
2, 13440, Note_on_c, 0, 69, 0
2, 13440, Note_on_c, 0, 66, 0
2, 13440, Note_on_c, 0, 67, 80
2, 13920, Note_on_c, 0, 67, 0
2, 13920, Note_on_c, 0, 67, 54
2, 13920, Note_on_c, 0, 70, 54
2, 13935, Note_on_c, 0, 70, 0
2, 13935, Note_on_c, 0, 67, 0
2, 13980, Note_on_c, 0, 67, 54
2, 13980, Note_on_c, 0, 70, 54
2, 13995, Note_on_c, 0, 70, 0
2, 13995, Note_on_c, 0, 67, 0
2, 14040, Note_on_c, 0, 67, 54
2, 14040, Note_on_c, 0, 70, 54
2, 14055, Note_on_c, 0, 70, 0
2, 14055, Note_on_c, 0, 67, 0
2, 14100, Note_on_c, 0, 67, 54
2, 14100, Note_on_c, 0, 70, 54
2, 14115, Note_on_c, 0, 70, 0
2, 14115, Note_on_c, 0, 67, 0
2, 14160, Note_on_c, 0, 67, 80
2, 14160, Note_on_c, 0, 70, 80
2, 14640, Note_on_c, 0, 70, 0
2, 14640, Note_on_c, 0, 67, 0
2, 14640, Note_on_c, 0, 67, 54
2, 14640, Note_on_c, 0, 70, 54
2, 14655, Note_on_c, 0, 70, 0
2, 14655, Note_on_c, 0, 67, 0
2, 14700, Note_on_c, 0, 67, 54
2, 14700, Note_on_c, 0, 70, 54
2, 14715, Note_on_c, 0, 70, 0
2, 14715, Note_on_c, 0, 67, 0
2, 14760, Note_on_c, 0, 67, 54
2, 14760, Note_on_c, 0, 70, 54
2, 14775, Note_on_c, 0, 70, 0
2, 14775, Note_on_c, 0, 67, 0
2, 14820, Note_on_c, 0, 67, 54
2, 14820, Note_on_c, 0, 70, 54
2, 14835, Note_on_c, 0, 70, 0
2, 14835, Note_on_c, 0, 67, 0
2, 14880, Note_on_c, 0, 67, 54
2, 14880, Note_on_c, 0, 70, 54
2, 14927, Note_on_c, 0, 70, 0
2, 14927, Note_on_c, 0, 67, 0
2, 15120, Note_on_c, 0, 67, 54
2, 15120, Note_on_c, 0, 70, 54
2, 15600, Note_on_c, 0, 70, 0
2, 15600, Note_on_c, 0, 67, 0
2, 15600, Note_on_c, 0, 69, 54
2, 15600, Note_on_c, 0, 72, 54
2, 15840, Note_on_c, 0, 72, 0
2, 15840, Note_on_c, 0, 69, 0
2, 15840, Note_on_c, 0, 70, 54
2, 15840, Note_on_c, 0, 74, 54
2, 15887, Note_on_c, 0, 74, 0
2, 15887, Note_on_c, 0, 70, 0
2, 16080, Note_on_c, 0, 70, 80
2, 16080, Note_on_c, 0, 74, 80
2, 16560, Note_on_c, 0, 74, 0
2, 16560, Note_on_c, 0, 70, 0
2, 16560, Control_c, 0, 64, 127
2, 16560, Note_on_c, 0, 70, 67
2, 16560, Note_on_c, 0, 74, 67
2, 16920, Note_on_c, 0, 74, 0
2, 16920, Note_on_c, 0, 70, 0
2, 16920, Note_on_c, 0, 69, 67
2, 16920, Note_on_c, 0, 72, 67
2, 17040, Note_on_c, 0, 72, 0
2, 17040, Note_on_c, 0, 69, 0
2, 17040, Note_on_c, 0, 70, 67
2, 17040, Note_on_c, 0, 74, 67
2, 17280, Note_on_c, 0, 74, 0
2, 17280, Note_on_c, 0, 70, 0
2, 17280, Control_c, 0, 64, 0
2, 17280, Note_on_c, 0, 69, 67
2, 17280, Note_on_c, 0, 72, 67
2, 17520, Note_on_c, 0, 72, 0
2, 17520, Note_on_c, 0, 69, 0
2, 17520, Note_on_c, 0, 67, 93
2, 17520, Note_on_c, 0, 70, 93
2, 18000, Note_on_c, 0, 70, 0
2, 18000, Note_on_c, 0, 67, 0
2, 18000, Note_on_c, 0, 69, 80
2, 18000, Note_on_c, 0, 72, 80
2, 18480, Note_on_c, 0, 72, 0
2, 18480, Note_on_c, 0, 69, 0
2, 18480, Note_on_c, 0, 70, 80
2, 18480, Note_on_c, 0, 74, 80
2, 18720, Note_on_c, 0, 74, 0
2, 18720, Note_on_c, 0, 70, 0
2, 18720, Note_on_c, 0, 72, 80
2, 18720, Note_on_c, 0, 75, 80
2, 18960, Note_on_c, 0, 75, 0
2, 18960, Note_on_c, 0, 72, 0
2, 18960, Control_c, 0, 64, 127
2, 18960, Note_on_c, 0, 75, 80
2, 19007, Note_on_c, 0, 75, 0
2, 19007, Note_on_c, 0, 77, 80
2, 19056, Note_on_c, 0, 77, 0
2, 19056, Note_on_c, 0, 75, 80
2, 19103, Note_on_c, 0, 75, 0
2, 19103, Note_on_c, 0, 77, 80
2, 19152, Note_on_c, 0, 77, 0
2, 19152, Control_c, 0, 64, 0
2, 19152, Note_on_c, 0, 75, 80
2, 19200, Note_on_c, 0, 75, 0
2, 19200, Note_on_c, 0, 74, 80
2, 19680, Note_on_c, 0, 74, 0
2, 19680, Note_on_c, 0, 72, 80
2, 19800, Note_on_c, 0, 72, 0
2, 19800, Note_on_c, 0, 74, 80
2, 19920, Note_on_c, 0, 74, 0
2, 19920, Note_on_c, 0, 72, 80
2, 19943, Note_on_c, 0, 72, 0
2, 20040, Note_on_c, 0, 70, 80
2, 20063, Note_on_c, 0, 70, 0
2, 20160, Note_on_c, 0, 72, 80
2, 20207, Note_on_c, 0, 72, 0
2, 20400, Note_on_c, 0, 70, 106
2, 21120, Note_on_c, 0, 70, 0
2, 21120, Control_c, 0, 64, 127
2, 21120, Note_on_c, 0, 69, 80
2, 21180, Note_on_c, 0, 69, 0
2, 21180, Note_on_c, 0, 70, 80
2, 21240, Note_on_c, 0, 70, 0
2, 21240, Note_on_c, 0, 69, 80
2, 21300, Note_on_c, 0, 69, 0
2, 21300, Control_c, 0, 64, 0
2, 21300, Note_on_c, 0, 70, 80
2, 21360, Note_on_c, 0, 70, 0
2, 21360, Control_c, 0, 64, 127
2, 21360, Note_on_c, 0, 69, 67
2, 21407, Note_on_c, 0, 69, 0
2, 21407, Note_on_c, 0, 70, 67
2, 21456, Note_on_c, 0, 70, 0
2, 21456, Note_on_c, 0, 69, 67
2, 21503, Note_on_c, 0, 69, 0
2, 21503, Note_on_c, 0, 70, 67
2, 21552, Note_on_c, 0, 70, 0
2, 21552, Control_c, 0, 64, 0
2, 21552, Note_on_c, 0, 69, 67
2, 21600, Note_on_c, 0, 69, 0
2, 21600, Note_on_c, 0, 67, 67
2, 21840, Note_on_c, 0, 67, 0
2, 21840, Note_on_c, 0, 67, 54
2, 21855, Note_on_c, 0, 67, 0
2, 21900, Note_on_c, 0, 67, 54
2, 21915, Note_on_c, 0, 67, 0
2, 21960, Note_on_c, 0, 67, 54
2, 21975, Note_on_c, 0, 67, 0
2, 22020, Note_on_c, 0, 67, 54
2, 22035, Note_on_c, 0, 67, 0
2, 22080, Note_on_c, 0, 67, 80
2, 22560, Note_on_c, 0, 67, 0
2, 22560, Note_on_c, 0, 67, 54
2, 22575, Note_on_c, 0, 67, 0
2, 22620, Note_on_c, 0, 67, 54
2, 22635, Note_on_c, 0, 67, 0
2, 22680, Note_on_c, 0, 67, 54
2, 22695, Note_on_c, 0, 67, 0
2, 22740, Note_on_c, 0, 67, 54
2, 22755, Note_on_c, 0, 67, 0
2, 22800, Note_on_c, 0, 67, 54
2, 22847, Note_on_c, 0, 67, 0
2, 24480, Note_on_c, 0, 65, 93
2, 24720, Note_on_c, 0, 65, 0
2, 24720, Control_c, 0, 64, 127
2, 24720, Note_on_c, 0, 63, 67
2, 24767, Note_on_c, 0, 63, 0
2, 24767, Note_on_c, 0, 65, 67
2, 24816, Note_on_c, 0, 65, 0
2, 24816, Note_on_c, 0, 63, 67
2, 24863, Note_on_c, 0, 63, 0
2, 24863, Note_on_c, 0, 65, 67
2, 24912, Note_on_c, 0, 65, 0
2, 24912, Control_c, 0, 64, 0
2, 24912, Note_on_c, 0, 63, 67
2, 24960, Note_on_c, 0, 63, 0
2, 24960, Note_on_c, 0, 62, 67
2, 25920, Note_on_c, 0, 62, 0
2, 27360, Note_on_c, 0, 65, 93
2, 27600, Note_on_c, 0, 65, 0
2, 27600, Control_c, 0, 64, 127
2, 27600, Note_on_c, 0, 63, 67
2, 27647, Note_on_c, 0, 63, 0
2, 27647, Note_on_c, 0, 65, 67
2, 27696, Note_on_c, 0, 65, 0
2, 27696, Note_on_c, 0, 63, 67
2, 27743, Note_on_c, 0, 63, 0
2, 27743, Note_on_c, 0, 65, 67
2, 27792, Note_on_c, 0, 65, 0
2, 27792, Control_c, 0, 64, 0
2, 27792, Note_on_c, 0, 63, 67
2, 27840, Note_on_c, 0, 63, 0
2, 27840, Note_on_c, 0, 62, 67
2, 29520, Note_on_c, 0, 62, 0
2, 29520, Note_on_c, 0, 70, 54
2, 29520, Note_on_c, 0, 74, 54
2, 30000, Note_on_c, 0, 74, 0
2, 30000, Note_on_c, 0, 70, 0
2, 30000, Note_on_c, 0, 72, 54
2, 30000, Note_on_c, 0, 75, 54
2, 30240, Note_on_c, 0, 75, 0
2, 30240, Note_on_c, 0, 72, 0
2, 30240, Note_on_c, 0, 74, 67
2, 30240, Note_on_c, 0, 77, 67
2, 30480, Note_on_c, 0, 77, 0
2, 30480, Note_on_c, 0, 74, 0
2, 30480, Note_on_c, 0, 74, 93
2, 30480, Note_on_c, 0, 77, 93
2, 30960, Note_on_c, 0, 77, 0
2, 30960, Note_on_c, 0, 74, 0
2, 30960, Note_on_c, 0, 74, 80
2, 30960, Note_on_c, 0, 77, 80
2, 31320, Note_on_c, 0, 77, 0
2, 31320, Note_on_c, 0, 74, 0
2, 31320, Note_on_c, 0, 75, 80
2, 31320, Note_on_c, 0, 79, 80
2, 31440, Note_on_c, 0, 79, 0
2, 31440, Note_on_c, 0, 75, 0
2, 31440, Note_on_c, 0, 77, 80
2, 31440, Note_on_c, 0, 80, 80
2, 31680, Note_on_c, 0, 80, 0
2, 31680, Note_on_c, 0, 77, 0
2, 31680, Control_c, 0, 64, 127
2, 31680, Note_on_c, 0, 79, 80
2, 31727, Note_on_c, 0, 79, 0
2, 31727, Note_on_c, 0, 80, 80
2, 31776, Note_on_c, 0, 80, 0
2, 31776, Note_on_c, 0, 79, 80
2, 31823, Note_on_c, 0, 79, 0
2, 31823, Note_on_c, 0, 80, 80
2, 31872, Note_on_c, 0, 80, 0
2, 31872, Control_c, 0, 64, 0
2, 31872, Note_on_c, 0, 79, 80
2, 31920, Note_on_c, 0, 79, 0
2, 31920, Note_on_c, 0, 78, 80
2, 32640, Note_on_c, 0, 78, 0
2, 32640, Note_on_c, 0, 79, 80
2, 32880, Note_on_c, 0, 79, 0
2, 32880, Note_on_c, 0, 78, 80
2, 33120, Note_on_c, 0, 78, 0
2, 33120, Control_c, 0, 64, 127
2, 33120, Note_on_c, 0, 77, 80
2, 33167, Note_on_c, 0, 77, 0
2, 33167, Note_on_c, 0, 79, 80
2, 33216, Note_on_c, 0, 79, 0
2, 33216, Note_on_c, 0, 77, 80
2, 33263, Note_on_c, 0, 77, 0
2, 33263, Note_on_c, 0, 79, 80
2, 33312, Note_on_c, 0, 79, 0
2, 33312, Control_c, 0, 64, 0
2, 33312, Note_on_c, 0, 77, 80
2, 33360, Note_on_c, 0, 77, 0
2, 33360, Note_on_c, 0, 76, 80
2, 34080, Note_on_c, 0, 76, 0
2, 34080, Note_on_c, 0, 77, 67
2, 34320, Note_on_c, 0, 77, 0
2, 34320, Note_on_c, 0, 75, 67
2, 34560, Note_on_c, 0, 75, 0
2, 34560, Note_on_c, 0, 74, 67
2, 35280, Note_on_c, 0, 74, 0
2, 36720, Note_on_c, 0, 74, 80
2, 37080, Note_on_c, 0, 74, 0
2, 37080, Note_on_c, 0, 75, 80
2, 37200, Note_on_c, 0, 75, 0
2, 37200, Note_on_c, 0, 77, 80
2, 37440, Note_on_c, 0, 77, 0
2, 37440, Control_c, 0, 64, 127
2, 37440, Note_on_c, 0, 75, 80
2, 37487, Note_on_c, 0, 75, 0
2, 37487, Note_on_c, 0, 77, 80
2, 37536, Note_on_c, 0, 77, 0
2, 37536, Note_on_c, 0, 75, 80
2, 37583, Note_on_c, 0, 75, 0
2, 37583, Note_on_c, 0, 77, 80
2, 37632, Note_on_c, 0, 77, 0
2, 37632, Control_c, 0, 64, 0
2, 37632, Note_on_c, 0, 75, 80
2, 37680, Note_on_c, 0, 75, 0
2, 37680, Note_on_c, 0, 74, 80
2, 38400, Note_on_c, 0, 74, 0
2, 38400, Note_on_c, 0, 75, 80
2, 38640, Note_on_c, 0, 75, 0
2, 38640, Note_on_c, 0, 74, 67
2, 38880, Note_on_c, 0, 74, 0
2, 38880, Control_c, 0, 64, 127
2, 38880, Note_on_c, 0, 73, 67
2, 38927, Note_on_c, 0, 73, 0
2, 38927, Note_on_c, 0, 74, 67
2, 38976, Note_on_c, 0, 74, 0
2, 38976, Note_on_c, 0, 73, 67
2, 39023, Note_on_c, 0, 73, 0
2, 39023, Note_on_c, 0, 74, 67
2, 39072, Note_on_c, 0, 74, 0
2, 39072, Control_c, 0, 64, 0
2, 39072, Note_on_c, 0, 73, 67
2, 39120, Note_on_c, 0, 73, 0
2, 39120, Note_on_c, 0, 72, 67
2, 39840, Note_on_c, 0, 72, 0
2, 39840, Note_on_c, 0, 73, 67
2, 40080, Note_on_c, 0, 73, 0
2, 40080, Note_on_c, 0, 72, 67
2, 40320, Note_on_c, 0, 72, 0
2, 40320, Note_on_c, 0, 71, 67
2, 41700, Note_on_c, 0, 71, 0
2, 41700, Note_on_c, 0, 70, 67
2, 41760, Note_on_c, 0, 70, 0
2, 41760, Note_on_c, 0, 70, 67
2, 42000, Note_on_c, 0, 70, 0
2, 44640, Note_on_c, 0, 65, 93
2, 44880, Note_on_c, 0, 65, 0
2, 44880, Control_c, 0, 64, 127
2, 44880, Note_on_c, 0, 63, 67
2, 44927, Note_on_c, 0, 63, 0
2, 44927, Note_on_c, 0, 65, 67
2, 44976, Note_on_c, 0, 65, 0
2, 44976, Note_on_c, 0, 63, 67
2, 45023, Note_on_c, 0, 63, 0
2, 45023, Note_on_c, 0, 65, 67
2, 45072, Note_on_c, 0, 65, 0
2, 45072, Control_c, 0, 64, 0
2, 45072, Note_on_c, 0, 63, 67
2, 45120, Note_on_c, 0, 63, 0
2, 45120, Note_on_c, 0, 62, 67
2, 46080, Note_on_c, 0, 62, 0
2, 47520, Note_on_c, 0, 65, 93
2, 47760, Note_on_c, 0, 65, 0
2, 47760, Control_c, 0, 64, 127
2, 47760, Note_on_c, 0, 63, 67
2, 47807, Note_on_c, 0, 63, 0
2, 47807, Note_on_c, 0, 65, 67
2, 47856, Note_on_c, 0, 65, 0
2, 47856, Note_on_c, 0, 63, 67
2, 47903, Note_on_c, 0, 63, 0
2, 47903, Note_on_c, 0, 65, 67
2, 47952, Note_on_c, 0, 65, 0
2, 47952, Control_c, 0, 64, 0
2, 47952, Note_on_c, 0, 63, 67
2, 48000, Note_on_c, 0, 63, 0
2, 48000, Note_on_c, 0, 62, 67
2, 48960, Note_on_c, 0, 62, 0
2, 48960, Note_on_c, 0, 79, 80
2, 50880, Note_on_c, 0, 79, 0
2, 50880, Control_c, 0, 64, 127
2, 50880, Note_on_c, 0, 78, 93
2, 50940, Note_on_c, 0, 78, 0
2, 50940, Note_on_c, 0, 79, 93
2, 51000, Note_on_c, 0, 79, 0
2, 51000, Note_on_c, 0, 78, 93
2, 51060, Note_on_c, 0, 78, 0
2, 51060, Control_c, 0, 64, 0
2, 51060, Note_on_c, 0, 74, 93
2, 51120, Note_on_c, 0, 74, 0
2, 51120, Note_on_c, 0, 77, 119
2, 52320, Note_on_c, 0, 77, 0
2, 52320, Control_c, 0, 64, 127
2, 52320, Note_on_c, 0, 75, 67
2, 52380, Note_on_c, 0, 75, 0
2, 52380, Note_on_c, 0, 77, 67
2, 52440, Note_on_c, 0, 77, 0
2, 52440, Note_on_c, 0, 75, 67
2, 52500, Note_on_c, 0, 75, 0
2, 52500, Control_c, 0, 64, 0
2, 52500, Note_on_c, 0, 70, 67
2, 52560, Note_on_c, 0, 70, 0
2, 52560, Note_on_c, 0, 74, 80
2, 53520, Note_on_c, 0, 74, 0
2, 53520, Control_c, 0, 64, 127
2, 53520, Note_on_c, 0, 57, 80
2, 53567, Note_on_c, 0, 57, 0
2, 53567, Note_on_c, 0, 58, 80
2, 53616, Note_on_c, 0, 58, 0
2, 53616, Note_on_c, 0, 57, 80
2, 53663, Note_on_c, 0, 57, 0
2, 53663, Note_on_c, 0, 58, 80
2, 53712, Note_on_c, 0, 58, 0
2, 53712, Control_c, 0, 64, 0
2, 53712, Note_on_c, 0, 57, 80
2, 53760, Note_on_c, 0, 57, 0
2, 54000, Note_on_c, 0, 81, 67
2, 54000, Note_on_c, 0, 84, 67
2, 54000, Note_on_c, 0, 91, 67
2, 54240, Note_on_c, 0, 91, 0
2, 54240, Note_on_c, 0, 84, 0
2, 54240, Note_on_c, 0, 81, 0
2, 54240, Note_on_c, 0, 79, 67
2, 54240, Note_on_c, 0, 82, 67
2, 54240, Note_on_c, 0, 86, 67
2, 54480, Note_on_c, 0, 86, 0
2, 54480, Note_on_c, 0, 82, 0
2, 54480, Note_on_c, 0, 79, 0
2, 54480, Note_on_c, 0, 69, 67
2, 54480, Note_on_c, 0, 72, 67
2, 54480, Note_on_c, 0, 79, 67
2, 54720, Note_on_c, 0, 79, 0
2, 54720, Note_on_c, 0, 72, 0
2, 54720, Note_on_c, 0, 69, 0
2, 54720, Note_on_c, 0, 67, 67
2, 54720, Note_on_c, 0, 70, 67
2, 54720, Note_on_c, 0, 74, 67
2, 54960, Note_on_c, 0, 74, 0
2, 54960, Note_on_c, 0, 70, 0
2, 54960, Note_on_c, 0, 67, 0
2, 54960, Note_on_c, 0, 67, 67
2, 55200, Note_on_c, 0, 67, 0
2, 55200, Note_on_c, 0, 62, 67
2, 55440, Note_on_c, 0, 62, 0
2, 55440, Note_on_c, 0, 67, 80
2, 56640, Note_on_c, 0, 67, 0
2, 56640, Control_c, 0, 64, 127
2, 56640, Note_on_c, 0, 66, 93
2, 56700, Note_on_c, 0, 66, 0
2, 56700, Note_on_c, 0, 67, 93
2, 56760, Note_on_c, 0, 67, 0
2, 56760, Note_on_c, 0, 66, 93
2, 56820, Note_on_c, 0, 66, 0
2, 56820, Control_c, 0, 64, 0
2, 56820, Note_on_c, 0, 62, 93
2, 56880, Note_on_c, 0, 62, 0
2, 56880, Note_on_c, 0, 65, 93
2, 58080, Note_on_c, 0, 65, 0
2, 58080, Control_c, 0, 64, 127
2, 58080, Note_on_c, 0, 63, 80
2, 58140, Note_on_c, 0, 63, 0
2, 58140, Note_on_c, 0, 65, 80
2, 58200, Note_on_c, 0, 65, 0
2, 58200, Note_on_c, 0, 63, 80
2, 58260, Note_on_c, 0, 63, 0
2, 58260, Control_c, 0, 64, 0
2, 58260, Note_on_c, 0, 58, 80
2, 58320, Note_on_c, 0, 58, 0
2, 58320, Note_on_c, 0, 62, 80
2, 58800, Note_on_c, 0, 62, 0
2, 59280, Control_c, 0, 64, 127
2, 59280, Note_on_c, 0, 57, 67
2, 59327, Note_on_c, 0, 57, 0
2, 59327, Note_on_c, 0, 58, 67
2, 59376, Note_on_c, 0, 58, 0
2, 59376, Note_on_c, 0, 57, 67
2, 59423, Note_on_c, 0, 57, 0
2, 59423, Note_on_c, 0, 58, 67
2, 59472, Note_on_c, 0, 58, 0
2, 59472, Control_c, 0, 64, 0
2, 59472, Note_on_c, 0, 57, 67
2, 59520, Note_on_c, 0, 57, 0
2, 59760, Note_on_c, 0, 79, 67
2, 60000, Note_on_c, 0, 79, 0
2, 60000, Note_on_c, 0, 74, 67
2, 60240, Note_on_c, 0, 74, 0
2, 63600, Note_on_c, 0, 67, 54
2, 63600, Note_on_c, 0, 74, 54
2, 63615, Note_on_c, 0, 74, 0
2, 63615, Note_on_c, 0, 67, 0
2, 63660, Note_on_c, 0, 67, 54
2, 63660, Note_on_c, 0, 74, 54
2, 63675, Note_on_c, 0, 74, 0
2, 63675, Note_on_c, 0, 67, 0
2, 63720, Note_on_c, 0, 67, 54
2, 63720, Note_on_c, 0, 74, 54
2, 63735, Note_on_c, 0, 74, 0
2, 63735, Note_on_c, 0, 67, 0
2, 63780, Note_on_c, 0, 67, 54
2, 63780, Note_on_c, 0, 74, 54
2, 63795, Note_on_c, 0, 74, 0
2, 63795, Note_on_c, 0, 67, 0
2, 63840, Note_on_c, 0, 67, 54
2, 63840, Note_on_c, 0, 74, 54
2, 63887, Note_on_c, 0, 74, 0
2, 63887, Note_on_c, 0, 67, 0
2, 66480, Note_on_c, 0, 67, 54
2, 66480, Note_on_c, 0, 74, 54
2, 66495, Note_on_c, 0, 74, 0
2, 66495, Note_on_c, 0, 67, 0
2, 66540, Note_on_c, 0, 67, 54
2, 66540, Note_on_c, 0, 74, 54
2, 66555, Note_on_c, 0, 74, 0
2, 66555, Note_on_c, 0, 67, 0
2, 66600, Note_on_c, 0, 67, 54
2, 66600, Note_on_c, 0, 74, 54
2, 66615, Note_on_c, 0, 74, 0
2, 66615, Note_on_c, 0, 67, 0
2, 66660, Note_on_c, 0, 67, 54
2, 66660, Note_on_c, 0, 74, 54
2, 66675, Note_on_c, 0, 74, 0
2, 66675, Note_on_c, 0, 67, 0
2, 66720, Note_on_c, 0, 67, 54
2, 66720, Note_on_c, 0, 74, 54
2, 66767, Note_on_c, 0, 74, 0
2, 66767, Note_on_c, 0, 67, 0
2, 67920, Note_on_c, 0, 67, 54
2, 67920, Note_on_c, 0, 74, 54
2, 67935, Note_on_c, 0, 74, 0
2, 67935, Note_on_c, 0, 67, 0
2, 67980, Note_on_c, 0, 67, 54
2, 67980, Note_on_c, 0, 74, 54
2, 67995, Note_on_c, 0, 74, 0
2, 67995, Note_on_c, 0, 67, 0
2, 68040, Note_on_c, 0, 67, 54
2, 68040, Note_on_c, 0, 74, 54
2, 68055, Note_on_c, 0, 74, 0
2, 68055, Note_on_c, 0, 67, 0
2, 68100, Note_on_c, 0, 67, 54
2, 68100, Note_on_c, 0, 74, 54
2, 68115, Note_on_c, 0, 74, 0
2, 68115, Note_on_c, 0, 67, 0
2, 68160, Note_on_c, 0, 67, 54
2, 68160, Note_on_c, 0, 74, 54
2, 68207, Note_on_c, 0, 74, 0
2, 68207, Note_on_c, 0, 67, 0
2, 69120, Note_on_c, 0, 67, 54
2, 69120, Note_on_c, 0, 74, 54
2, 69167, Note_on_c, 0, 74, 0
2, 69167, Note_on_c, 0, 67, 0
2, 69360, Note_on_c, 0, 67, 54
2, 69360, Note_on_c, 0, 74, 54
2, 69375, Note_on_c, 0, 74, 0
2, 69375, Note_on_c, 0, 67, 0
2, 69420, Note_on_c, 0, 67, 54
2, 69420, Note_on_c, 0, 74, 54
2, 69435, Note_on_c, 0, 74, 0
2, 69435, Note_on_c, 0, 67, 0
2, 69480, Note_on_c, 0, 67, 54
2, 69480, Note_on_c, 0, 74, 54
2, 69495, Note_on_c, 0, 74, 0
2, 69495, Note_on_c, 0, 67, 0
2, 69540, Note_on_c, 0, 67, 54
2, 69540, Note_on_c, 0, 74, 54
2, 69555, Note_on_c, 0, 74, 0
2, 69555, Note_on_c, 0, 67, 0
2, 69600, Note_on_c, 0, 67, 54
2, 69600, Note_on_c, 0, 74, 54
2, 69647, Note_on_c, 0, 74, 0
2, 69647, Note_on_c, 0, 67, 0
2, 69840, Note_on_c, 0, 67, 54
2, 69840, Note_on_c, 0, 74, 54
2, 69887, Note_on_c, 0, 74, 0
2, 69887, Note_on_c, 0, 67, 0
2, 70080, Note_on_c, 0, 67, 54
2, 70080, Note_on_c, 0, 74, 54
2, 70095, Note_on_c, 0, 74, 0
2, 70095, Note_on_c, 0, 67, 0
2, 70140, Note_on_c, 0, 67, 54
2, 70140, Note_on_c, 0, 74, 54
2, 70155, Note_on_c, 0, 74, 0
2, 70155, Note_on_c, 0, 67, 0
2, 70200, Note_on_c, 0, 67, 54
2, 70200, Note_on_c, 0, 74, 54
2, 70215, Note_on_c, 0, 74, 0
2, 70215, Note_on_c, 0, 67, 0
2, 70260, Note_on_c, 0, 67, 54
2, 70260, Note_on_c, 0, 74, 54
2, 70275, Note_on_c, 0, 74, 0
2, 70275, Note_on_c, 0, 67, 0
2, 70320, Note_on_c, 0, 67, 54
2, 70320, Note_on_c, 0, 74, 54
2, 70367, Note_on_c, 0, 74, 0
2, 70367, Note_on_c, 0, 67, 0
2, 70800, Note_on_c, 0, 67, 54
2, 70800, Note_on_c, 0, 74, 54
2, 70815, Note_on_c, 0, 74, 0
2, 70815, Note_on_c, 0, 67, 0
2, 70880, Note_on_c, 0, 67, 54
2, 70880, Note_on_c, 0, 74, 54
2, 70896, Note_on_c, 0, 74, 0
2, 70896, Note_on_c, 0, 67, 0
2, 70959, Note_on_c, 0, 67, 54
2, 70959, Note_on_c, 0, 74, 54
2, 70975, Note_on_c, 0, 74, 0
2, 70975, Note_on_c, 0, 67, 0
2, 71280, Note_on_c, 0, 67, 54
2, 71280, Note_on_c, 0, 74, 54
2, 71327, Note_on_c, 0, 74, 0
2, 71327, Note_on_c, 0, 67, 0
2, 71760, Note_on_c, 0, 67, 54
2, 71760, Note_on_c, 0, 74, 54
2, 71807, Note_on_c, 0, 74, 0
2, 71807, Note_on_c, 0, 67, 0
2, 72240, Note_on_c, 0, 67, 54
2, 72240, Note_on_c, 0, 74, 54
2, 72480, Note_on_c, 0, 74, 0
2, 72480, Note_on_c, 0, 67, 0
2, 72720, Control_c, 0, 64, 127
2, 76080, Control_c, 0, 64, 0
2, 76080, End_track
3, 0, Start_track
3, 0, Title_t, "Grand Piano"
3, 0, Program_c, 0, 0
3, 0, Control_c, 0, 7, 115
3, 0, Control_c, 0, 10, 80
3, 2880, Note_on_c, 0, 57, 80
3, 2880, Note_on_c, 0, 60, 80
3, 2880, Note_on_c, 0, 65, 80
3, 3360, Note_on_c, 0, 65, 0
3, 3360, Note_on_c, 0, 60, 0
3, 3360, Note_on_c, 0, 57, 0
3, 3360, Note_on_c, 0, 58, 54
3, 3360, Note_on_c, 0, 62, 54
3, 3600, Note_on_c, 0, 62, 0
3, 3600, Note_on_c, 0, 58, 0
3, 3600, Note_on_c, 0, 57, 80
3, 3600, Note_on_c, 0, 60, 80
3, 3600, Note_on_c, 0, 65, 80
3, 4080, Note_on_c, 0, 65, 0
3, 4080, Note_on_c, 0, 60, 0
3, 4080, Note_on_c, 0, 57, 0
3, 4080, Note_on_c, 0, 58, 54
3, 4080, Note_on_c, 0, 62, 54
3, 4320, Note_on_c, 0, 62, 0
3, 4320, Note_on_c, 0, 58, 0
3, 4320, Note_on_c, 0, 57, 54
3, 4320, Note_on_c, 0, 60, 54
3, 4800, Note_on_c, 0, 60, 0
3, 4800, Note_on_c, 0, 57, 0
3, 4800, Note_on_c, 0, 58, 54
3, 5760, Note_on_c, 0, 58, 0
3, 5760, Note_on_c, 0, 57, 80
3, 5760, Note_on_c, 0, 60, 80
3, 5760, Note_on_c, 0, 65, 80
3, 6240, Note_on_c, 0, 65, 0
3, 6240, Note_on_c, 0, 60, 0
3, 6240, Note_on_c, 0, 57, 0
3, 6240, Note_on_c, 0, 58, 54
3, 6240, Note_on_c, 0, 62, 54
3, 6480, Note_on_c, 0, 62, 0
3, 6480, Note_on_c, 0, 58, 0
3, 6480, Note_on_c, 0, 57, 80
3, 6480, Note_on_c, 0, 60, 80
3, 6480, Note_on_c, 0, 65, 80
3, 6960, Note_on_c, 0, 65, 0
3, 6960, Note_on_c, 0, 60, 0
3, 6960, Note_on_c, 0, 57, 0
3, 6960, Note_on_c, 0, 58, 54
3, 6960, Note_on_c, 0, 62, 54
3, 7200, Note_on_c, 0, 62, 0
3, 7200, Note_on_c, 0, 58, 0
3, 7200, Note_on_c, 0, 57, 80
3, 7200, Note_on_c, 0, 60, 80
3, 7680, Note_on_c, 0, 60, 0
3, 7680, Note_on_c, 0, 57, 0
3, 7680, Note_on_c, 0, 58, 54
3, 9360, Note_on_c, 0, 58, 0
3, 9360, Note_on_c, 0, 62, 54
3, 10800, Note_on_c, 0, 62, 0
3, 10800, Note_on_c, 0, 62, 67
3, 12240, Note_on_c, 0, 62, 0
3, 12240, Note_on_c, 0, 62, 67
3, 12960, Note_on_c, 0, 62, 0
3, 12960, Note_on_c, 0, 62, 67
3, 15120, Note_on_c, 0, 62, 0
3, 15120, Note_on_c, 0, 62, 54
3, 16560, Note_on_c, 0, 62, 0
3, 16560, Note_on_c, 0, 62, 54
3, 18000, Note_on_c, 0, 62, 0
3, 18000, Note_on_c, 0, 62, 54
3, 18720, Note_on_c, 0, 62, 0
3, 18960, Control_c, 0, 64, 127
3, 18960, Note_on_c, 0, 72, 67
3, 19007, Note_on_c, 0, 72, 0
3, 19007, Note_on_c, 0, 74, 67
3, 19056, Note_on_c, 0, 74, 0
3, 19056, Note_on_c, 0, 72, 67
3, 19103, Note_on_c, 0, 72, 0
3, 19103, Note_on_c, 0, 74, 67
3, 19152, Note_on_c, 0, 74, 0
3, 19152, Control_c, 0, 64, 0
3, 19152, Note_on_c, 0, 72, 67
3, 19200, Note_on_c, 0, 72, 0
3, 19200, Note_on_c, 0, 70, 67
3, 19680, Note_on_c, 0, 70, 0
3, 19680, Note_on_c, 0, 69, 67
3, 19800, Note_on_c, 0, 69, 0
3, 19800, Note_on_c, 0, 70, 67
3, 19920, Note_on_c, 0, 70, 0
3, 19920, Note_on_c, 0, 69, 67
3, 19943, Note_on_c, 0, 69, 0
3, 20040, Note_on_c, 0, 67, 67
3, 20063, Note_on_c, 0, 67, 0
3, 20160, Note_on_c, 0, 69, 67
3, 20207, Note_on_c, 0, 69, 0
3, 20400, Note_on_c, 0, 67, 93
3, 20880, Note_on_c, 0, 67, 0
3, 20880, Note_on_c, 0, 67, 67
3, 21120, Note_on_c, 0, 67, 0
3, 21120, Control_c, 0, 64, 127
3, 21120, Note_on_c, 0, 66, 67
3, 21180, Note_on_c, 0, 66, 0
3, 21180, Note_on_c, 0, 67, 67
3, 21240, Note_on_c, 0, 67, 0
3, 21240, Note_on_c, 0, 66, 67
3, 21300, Note_on_c, 0, 66, 0
3, 21300, Control_c, 0, 64, 0
3, 21300, Note_on_c, 0, 67, 67
3, 21360, Note_on_c, 0, 67, 0
3, 21360, Control_c, 0, 64, 127
3, 21360, Note_on_c, 0, 66, 67
3, 21407, Note_on_c, 0, 66, 0
3, 21407, Note_on_c, 0, 67, 67
3, 21456, Note_on_c, 0, 67, 0
3, 21456, Note_on_c, 0, 66, 67
3, 21503, Note_on_c, 0, 66, 0
3, 21503, Note_on_c, 0, 67, 67
3, 21552, Note_on_c, 0, 67, 0
3, 21552, Control_c, 0, 64, 0
3, 21552, Note_on_c, 0, 66, 67
3, 21600, Note_on_c, 0, 66, 0
3, 21600, Note_on_c, 0, 62, 67
3, 23040, Note_on_c, 0, 62, 0
3, 23040, Note_on_c, 0, 57, 80
3, 23040, Note_on_c, 0, 60, 80
3, 23040, Note_on_c, 0, 65, 80
3, 23520, Note_on_c, 0, 65, 0
3, 23520, Note_on_c, 0, 60, 0
3, 23520, Note_on_c, 0, 57, 0
3, 23520, Note_on_c, 0, 58, 54
3, 23520, Note_on_c, 0, 62, 54
3, 23760, Note_on_c, 0, 62, 0
3, 23760, Note_on_c, 0, 58, 0
3, 23760, Note_on_c, 0, 57, 80
3, 23760, Note_on_c, 0, 60, 80
3, 23760, Note_on_c, 0, 65, 80
3, 24240, Note_on_c, 0, 65, 0
3, 24240, Note_on_c, 0, 60, 0
3, 24240, Note_on_c, 0, 57, 0
3, 24240, Note_on_c, 0, 58, 54
3, 24240, Note_on_c, 0, 62, 54
3, 24480, Note_on_c, 0, 62, 0
3, 24480, Note_on_c, 0, 58, 0
3, 24480, Note_on_c, 0, 57, 54
3, 24480, Note_on_c, 0, 60, 54
3, 24960, Note_on_c, 0, 60, 0
3, 24960, Note_on_c, 0, 57, 0
3, 24960, Note_on_c, 0, 58, 54
3, 25920, Note_on_c, 0, 58, 0
3, 25920, Note_on_c, 0, 57, 80
3, 25920, Note_on_c, 0, 60, 80
3, 25920, Note_on_c, 0, 65, 80
3, 26400, Note_on_c, 0, 65, 0
3, 26400, Note_on_c, 0, 60, 0
3, 26400, Note_on_c, 0, 57, 0
3, 26400, Note_on_c, 0, 58, 54
3, 26400, Note_on_c, 0, 62, 54
3, 26640, Note_on_c, 0, 62, 0
3, 26640, Note_on_c, 0, 58, 0
3, 26640, Note_on_c, 0, 57, 80
3, 26640, Note_on_c, 0, 60, 80
3, 26640, Note_on_c, 0, 65, 80
3, 27120, Note_on_c, 0, 65, 0
3, 27120, Note_on_c, 0, 60, 0
3, 27120, Note_on_c, 0, 57, 0
3, 27120, Note_on_c, 0, 58, 54
3, 27120, Note_on_c, 0, 62, 54
3, 27360, Note_on_c, 0, 62, 0
3, 27360, Note_on_c, 0, 58, 0
3, 27360, Note_on_c, 0, 57, 80
3, 27360, Note_on_c, 0, 60, 80
3, 27840, Note_on_c, 0, 60, 0
3, 27840, Note_on_c, 0, 57, 0
3, 27840, Note_on_c, 0, 58, 54
3, 28320, Note_on_c, 0, 58, 0
3, 28320, Note_on_c, 0, 58, 54
3, 28320, Note_on_c, 0, 62, 54
3, 28335, Note_on_c, 0, 62, 0
3, 28335, Note_on_c, 0, 58, 0
3, 28380, Note_on_c, 0, 58, 54
3, 28380, Note_on_c, 0, 62, 54
3, 28395, Note_on_c, 0, 62, 0
3, 28395, Note_on_c, 0, 58, 0
3, 28440, Note_on_c, 0, 58, 54
3, 28440, Note_on_c, 0, 62, 54
3, 28455, Note_on_c, 0, 62, 0
3, 28455, Note_on_c, 0, 58, 0
3, 28500, Note_on_c, 0, 58, 54
3, 28500, Note_on_c, 0, 62, 54
3, 28515, Note_on_c, 0, 62, 0
3, 28515, Note_on_c, 0, 58, 0
3, 28560, Note_on_c, 0, 58, 54
3, 28560, Note_on_c, 0, 62, 54
3, 29040, Note_on_c, 0, 62, 0
3, 29040, Note_on_c, 0, 58, 0
3, 29040, Note_on_c, 0, 58, 54
3, 29040, Note_on_c, 0, 62, 54
3, 29055, Note_on_c, 0, 62, 0
3, 29055, Note_on_c, 0, 58, 0
3, 29100, Note_on_c, 0, 58, 54
3, 29100, Note_on_c, 0, 62, 54
3, 29115, Note_on_c, 0, 62, 0
3, 29115, Note_on_c, 0, 58, 0
3, 29160, Note_on_c, 0, 58, 54
3, 29160, Note_on_c, 0, 62, 54
3, 29175, Note_on_c, 0, 62, 0
3, 29175, Note_on_c, 0, 58, 0
3, 29220, Note_on_c, 0, 58, 54
3, 29220, Note_on_c, 0, 62, 54
3, 29235, Note_on_c, 0, 62, 0
3, 29235, Note_on_c, 0, 58, 0
3, 29280, Note_on_c, 0, 58, 54
3, 29280, Note_on_c, 0, 62, 54
3, 29327, Note_on_c, 0, 62, 0
3, 29327, Note_on_c, 0, 58, 0
3, 29520, Note_on_c, 0, 58, 54
3, 29520, Note_on_c, 0, 62, 54
3, 30000, Note_on_c, 0, 62, 0
3, 30000, Note_on_c, 0, 58, 0
3, 30000, Note_on_c, 0, 57, 54
3, 30000, Note_on_c, 0, 60, 54
3, 30240, Note_on_c, 0, 60, 0
3, 30240, Note_on_c, 0, 57, 0
3, 30240, Note_on_c, 0, 59, 54
3, 31680, Note_on_c, 0, 59, 0
3, 31680, Control_c, 0, 64, 127
3, 31680, Note_on_c, 0, 75, 80
3, 31727, Note_on_c, 0, 75, 0
3, 31727, Note_on_c, 0, 77, 80
3, 31776, Note_on_c, 0, 77, 0
3, 31776, Note_on_c, 0, 75, 80
3, 31823, Note_on_c, 0, 75, 0
3, 31823, Note_on_c, 0, 77, 80
3, 31872, Note_on_c, 0, 77, 0
3, 31872, Control_c, 0, 64, 0
3, 31872, Note_on_c, 0, 75, 80
3, 31920, Note_on_c, 0, 75, 0
3, 31920, Note_on_c, 0, 74, 80
3, 32640, Note_on_c, 0, 74, 0
3, 32640, Note_on_c, 0, 75, 80
3, 32880, Note_on_c, 0, 75, 0
3, 32880, Note_on_c, 0, 74, 80
3, 33120, Note_on_c, 0, 74, 0
3, 33120, Control_c, 0, 64, 127
3, 33120, Note_on_c, 0, 73, 80
3, 33167, Note_on_c, 0, 73, 0
3, 33167, Note_on_c, 0, 75, 80
3, 33216, Note_on_c, 0, 75, 0
3, 33216, Note_on_c, 0, 73, 80
3, 33263, Note_on_c, 0, 73, 0
3, 33263, Note_on_c, 0, 75, 80
3, 33312, Note_on_c, 0, 75, 0
3, 33312, Control_c, 0, 64, 0
3, 33312, Note_on_c, 0, 73, 80
3, 33360, Note_on_c, 0, 73, 0
3, 33360, Note_on_c, 0, 72, 80
3, 34080, Note_on_c, 0, 72, 0
3, 34080, Note_on_c, 0, 73, 67
3, 34320, Note_on_c, 0, 73, 0
3, 34320, Note_on_c, 0, 72, 67
3, 34560, Note_on_c, 0, 72, 0
3, 34560, Note_on_c, 0, 70, 67
3, 35280, Note_on_c, 0, 70, 0
3, 35280, Note_on_c, 0, 67, 67
3, 35280, Note_on_c, 0, 70, 67
3, 35760, Note_on_c, 0, 70, 0
3, 35760, Note_on_c, 0, 67, 0
3, 35760, Note_on_c, 0, 69, 67
3, 35760, Note_on_c, 0, 73, 67
3, 36000, Note_on_c, 0, 73, 0
3, 36000, Note_on_c, 0, 69, 0
3, 36000, Note_on_c, 0, 70, 67
3, 36000, Note_on_c, 0, 74, 67
3, 36240, Note_on_c, 0, 74, 0
3, 36240, Note_on_c, 0, 70, 0
3, 36240, Note_on_c, 0, 70, 93
3, 36240, Note_on_c, 0, 74, 93
3, 36720, Note_on_c, 0, 74, 0
3, 36720, Note_on_c, 0, 70, 0
3, 36720, Note_on_c, 0, 70, 80
3, 37080, Note_on_c, 0, 70, 0
3, 37080, Note_on_c, 0, 72, 80
3, 37200, Note_on_c, 0, 72, 0
3, 37200, Note_on_c, 0, 74, 80
3, 37440, Note_on_c, 0, 74, 0
3, 37440, Control_c, 0, 64, 127
3, 37440, Note_on_c, 0, 72, 80
3, 37487, Note_on_c, 0, 72, 0
3, 37487, Note_on_c, 0, 74, 80
3, 37536, Note_on_c, 0, 74, 0
3, 37536, Note_on_c, 0, 72, 80
3, 37583, Note_on_c, 0, 72, 0
3, 37583, Note_on_c, 0, 74, 80
3, 37632, Note_on_c, 0, 74, 0
3, 37632, Control_c, 0, 64, 0
3, 37632, Note_on_c, 0, 72, 80
3, 37680, Note_on_c, 0, 72, 0
3, 37680, Note_on_c, 0, 70, 80
3, 38400, Note_on_c, 0, 70, 0
3, 38400, Note_on_c, 0, 72, 80
3, 38640, Note_on_c, 0, 72, 0
3, 38640, Note_on_c, 0, 70, 67
3, 38880, Note_on_c, 0, 70, 0
3, 38880, Control_c, 0, 64, 127
3, 38880, Note_on_c, 0, 69, 67
3, 38927, Note_on_c, 0, 69, 0
3, 38927, Note_on_c, 0, 70, 67
3, 38976, Note_on_c, 0, 70, 0
3, 38976, Note_on_c, 0, 69, 67
3, 39023, Note_on_c, 0, 69, 0
3, 39023, Note_on_c, 0, 70, 67
3, 39072, Note_on_c, 0, 70, 0
3, 39072, Control_c, 0, 64, 0
3, 39072, Note_on_c, 0, 69, 67
3, 39120, Note_on_c, 0, 69, 0
3, 39120, Note_on_c, 0, 68, 67
3, 39840, Note_on_c, 0, 68, 0
3, 39840, Note_on_c, 0, 69, 67
3, 40080, Note_on_c, 0, 69, 0
3, 40080, Note_on_c, 0, 68, 67
3, 40320, Note_on_c, 0, 68, 0
3, 40320, Note_on_c, 0, 67, 54
3, 42000, Note_on_c, 0, 67, 0
3, 42000, Note_on_c, 0, 67, 54
3, 42000, Note_on_c, 0, 70, 54
3, 42015, Note_on_c, 0, 70, 0
3, 42015, Note_on_c, 0, 67, 0
3, 42060, Note_on_c, 0, 67, 54
3, 42060, Note_on_c, 0, 70, 54
3, 42075, Note_on_c, 0, 70, 0
3, 42075, Note_on_c, 0, 67, 0
3, 42120, Note_on_c, 0, 67, 54
3, 42120, Note_on_c, 0, 70, 54
3, 42135, Note_on_c, 0, 70, 0
3, 42135, Note_on_c, 0, 67, 0
3, 42180, Note_on_c, 0, 67, 54
3, 42180, Note_on_c, 0, 70, 54
3, 42195, Note_on_c, 0, 70, 0
3, 42195, Note_on_c, 0, 67, 0
3, 42240, Note_on_c, 0, 67, 54
3, 42240, Note_on_c, 0, 70, 54
3, 42720, Note_on_c, 0, 70, 0
3, 42720, Note_on_c, 0, 67, 0
3, 42720, Note_on_c, 0, 67, 54
3, 42720, Note_on_c, 0, 70, 54
3, 42735, Note_on_c, 0, 70, 0
3, 42735, Note_on_c, 0, 67, 0
3, 42780, Note_on_c, 0, 67, 54
3, 42780, Note_on_c, 0, 70, 54
3, 42795, Note_on_c, 0, 70, 0
3, 42795, Note_on_c, 0, 67, 0
3, 42840, Note_on_c, 0, 67, 54
3, 42840, Note_on_c, 0, 70, 54
3, 42855, Note_on_c, 0, 70, 0
3, 42855, Note_on_c, 0, 67, 0
3, 42900, Note_on_c, 0, 67, 54
3, 42900, Note_on_c, 0, 70, 54
3, 42915, Note_on_c, 0, 70, 0
3, 42915, Note_on_c, 0, 67, 0
3, 42960, Note_on_c, 0, 67, 54
3, 42960, Note_on_c, 0, 70, 54
3, 43007, Note_on_c, 0, 70, 0
3, 43007, Note_on_c, 0, 67, 0
3, 43200, Note_on_c, 0, 57, 80
3, 43200, Note_on_c, 0, 60, 80
3, 43200, Note_on_c, 0, 65, 80
3, 43680, Note_on_c, 0, 65, 0
3, 43680, Note_on_c, 0, 60, 0
3, 43680, Note_on_c, 0, 57, 0
3, 43680, Note_on_c, 0, 58, 54
3, 43680, Note_on_c, 0, 62, 54
3, 43920, Note_on_c, 0, 62, 0
3, 43920, Note_on_c, 0, 58, 0
3, 43920, Note_on_c, 0, 57, 80
3, 43920, Note_on_c, 0, 60, 80
3, 43920, Note_on_c, 0, 65, 80
3, 44400, Note_on_c, 0, 65, 0
3, 44400, Note_on_c, 0, 60, 0
3, 44400, Note_on_c, 0, 57, 0
3, 44400, Note_on_c, 0, 58, 54
3, 44400, Note_on_c, 0, 62, 54
3, 44640, Note_on_c, 0, 62, 0
3, 44640, Note_on_c, 0, 58, 0
3, 44640, Note_on_c, 0, 57, 80
3, 44640, Note_on_c, 0, 60, 80
3, 45120, Note_on_c, 0, 60, 0
3, 45120, Note_on_c, 0, 57, 0
3, 45120, Note_on_c, 0, 58, 54
3, 45600, Note_on_c, 0, 58, 0
3, 45600, Note_on_c, 0, 58, 54
3, 45600, Note_on_c, 0, 62, 54
3, 45615, Note_on_c, 0, 62, 0
3, 45615, Note_on_c, 0, 58, 0
3, 45660, Note_on_c, 0, 58, 54
3, 45660, Note_on_c, 0, 62, 54
3, 45675, Note_on_c, 0, 62, 0
3, 45675, Note_on_c, 0, 58, 0
3, 45720, Note_on_c, 0, 58, 54
3, 45720, Note_on_c, 0, 62, 54
3, 45735, Note_on_c, 0, 62, 0
3, 45735, Note_on_c, 0, 58, 0
3, 45780, Note_on_c, 0, 58, 54
3, 45780, Note_on_c, 0, 62, 54
3, 45795, Note_on_c, 0, 62, 0
3, 45795, Note_on_c, 0, 58, 0
3, 45840, Note_on_c, 0, 58, 54
3, 45840, Note_on_c, 0, 62, 54
3, 45887, Note_on_c, 0, 62, 0
3, 45887, Note_on_c, 0, 58, 0
3, 46080, Note_on_c, 0, 57, 80
3, 46080, Note_on_c, 0, 60, 80
3, 46080, Note_on_c, 0, 65, 80
3, 46560, Note_on_c, 0, 65, 0
3, 46560, Note_on_c, 0, 60, 0
3, 46560, Note_on_c, 0, 57, 0
3, 46560, Note_on_c, 0, 58, 54
3, 46560, Note_on_c, 0, 62, 54
3, 46800, Note_on_c, 0, 62, 0
3, 46800, Note_on_c, 0, 58, 0
3, 46800, Note_on_c, 0, 57, 80
3, 46800, Note_on_c, 0, 60, 80
3, 46800, Note_on_c, 0, 65, 80
3, 47280, Note_on_c, 0, 65, 0
3, 47280, Note_on_c, 0, 60, 0
3, 47280, Note_on_c, 0, 57, 0
3, 47280, Note_on_c, 0, 58, 54
3, 47280, Note_on_c, 0, 62, 54
3, 47520, Note_on_c, 0, 62, 0
3, 47520, Note_on_c, 0, 58, 0
3, 47520, Note_on_c, 0, 57, 80
3, 47520, Note_on_c, 0, 60, 80
3, 48000, Note_on_c, 0, 60, 0
3, 48000, Note_on_c, 0, 57, 0
3, 48000, Note_on_c, 0, 58, 54
3, 48480, Note_on_c, 0, 58, 0
3, 48480, Note_on_c, 0, 58, 54
3, 48480, Note_on_c, 0, 62, 54
3, 48495, Note_on_c, 0, 62, 0
3, 48495, Note_on_c, 0, 58, 0
3, 48540, Note_on_c, 0, 58, 54
3, 48540, Note_on_c, 0, 62, 54
3, 48555, Note_on_c, 0, 62, 0
3, 48555, Note_on_c, 0, 58, 0
3, 48600, Note_on_c, 0, 58, 54
3, 48600, Note_on_c, 0, 62, 54
3, 48615, Note_on_c, 0, 62, 0
3, 48615, Note_on_c, 0, 58, 0
3, 48660, Note_on_c, 0, 58, 54
3, 48660, Note_on_c, 0, 62, 54
3, 48675, Note_on_c, 0, 62, 0
3, 48675, Note_on_c, 0, 58, 0
3, 48720, Note_on_c, 0, 58, 54
3, 48720, Note_on_c, 0, 62, 54
3, 49680, Note_on_c, 0, 62, 0
3, 49680, Note_on_c, 0, 58, 0
3, 49680, Note_on_c, 0, 55, 80
3, 49680, Note_on_c, 0, 58, 80
3, 50160, Note_on_c, 0, 58, 0
3, 50160, Note_on_c, 0, 55, 0
3, 50160, Note_on_c, 0, 57, 80
3, 50160, Note_on_c, 0, 60, 80
3, 50400, Note_on_c, 0, 60, 0
3, 50400, Note_on_c, 0, 57, 0
3, 50400, Note_on_c, 0, 58, 93
3, 50400, Note_on_c, 0, 62, 93
3, 50447, Note_on_c, 0, 62, 0
3, 50447, Note_on_c, 0, 58, 0
3, 50640, Note_on_c, 0, 58, 119
3, 50640, Note_on_c, 0, 62, 119
3, 51120, Note_on_c, 0, 62, 0
3, 51120, Note_on_c, 0, 58, 0
3, 51120, Note_on_c, 0, 58, 93
3, 51120, Note_on_c, 0, 62, 93
3, 51480, Note_on_c, 0, 62, 0
3, 51480, Note_on_c, 0, 58, 0
3, 51480, Note_on_c, 0, 57, 80
3, 51480, Note_on_c, 0, 60, 80
3, 51600, Note_on_c, 0, 60, 0
3, 51600, Note_on_c, 0, 57, 0
3, 51600, Note_on_c, 0, 58, 80
3, 51600, Note_on_c, 0, 62, 80
3, 51840, Note_on_c, 0, 62, 0
3, 51840, Note_on_c, 0, 58, 0
3, 51840, Note_on_c, 0, 57, 80
3, 51840, Note_on_c, 0, 60, 80
3, 51887, Note_on_c, 0, 60, 0
3, 51887, Note_on_c, 0, 57, 0
3, 52080, Note_on_c, 0, 55, 93
3, 52080, Note_on_c, 0, 58, 93
3, 52560, Note_on_c, 0, 58, 0
3, 52560, Note_on_c, 0, 55, 0
3, 52560, Note_on_c, 0, 57, 67
3, 52560, Note_on_c, 0, 60, 67
3, 53040, Note_on_c, 0, 60, 0
3, 53040, Note_on_c, 0, 57, 0
3, 53040, Note_on_c, 0, 58, 67
3, 53040, Note_on_c, 0, 62, 67
3, 53280, Note_on_c, 0, 62, 0
3, 53280, Note_on_c, 0, 58, 0
3, 53280, Note_on_c, 0, 55, 67
3, 53280, Note_on_c, 0, 58, 67
3, 53520, Note_on_c, 0, 58, 0
3, 53520, Note_on_c, 0, 55, 0
3, 53520, Control_c, 0, 64, 127
3, 53520, Note_on_c, 0, 54, 67
3, 53567, Note_on_c, 0, 54, 0
3, 53567, Note_on_c, 0, 55, 67
3, 53616, Note_on_c, 0, 55, 0
3, 53616, Note_on_c, 0, 54, 67
3, 53663, Note_on_c, 0, 54, 0
3, 53663, Note_on_c, 0, 55, 67
3, 53712, Note_on_c, 0, 55, 0
3, 53712, Control_c, 0, 64, 0
3, 53712, Note_on_c, 0, 54, 67
3, 53760, Note_on_c, 0, 54, 0
3, 53760, Note_on_c, 0, 55, 67
3, 54960, Note_on_c, 0, 55, 0
3, 54960, Note_on_c, 0, 57, 54
3, 54960, Note_on_c, 0, 60, 54
3, 55200, Note_on_c, 0, 60, 0
3, 55200, Note_on_c, 0, 57, 0
3, 55200, Note_on_c, 0, 55, 54
3, 55200, Note_on_c, 0, 58, 54
3, 55440, Note_on_c, 0, 58, 0
3, 55440, Note_on_c, 0, 55, 0
3, 55440, Note_on_c, 0, 55, 67
3, 55440, Note_on_c, 0, 58, 67
3, 55920, Note_on_c, 0, 58, 0
3, 55920, Note_on_c, 0, 55, 0
3, 55920, Note_on_c, 0, 57, 67
3, 55920, Note_on_c, 0, 60, 67
3, 56160, Note_on_c, 0, 60, 0
3, 56160, Note_on_c, 0, 57, 0
3, 56160, Note_on_c, 0, 58, 67
3, 56160, Note_on_c, 0, 62, 67
3, 56207, Note_on_c, 0, 62, 0
3, 56207, Note_on_c, 0, 58, 0
3, 56400, Note_on_c, 0, 58, 93
3, 56400, Note_on_c, 0, 62, 93
3, 56880, Note_on_c, 0, 62, 0
3, 56880, Note_on_c, 0, 58, 0
3, 56880, Note_on_c, 0, 58, 67
3, 56880, Note_on_c, 0, 62, 67
3, 57240, Note_on_c, 0, 62, 0
3, 57240, Note_on_c, 0, 58, 0
3, 57240, Note_on_c, 0, 57, 67
3, 57240, Note_on_c, 0, 60, 67
3, 57360, Note_on_c, 0, 60, 0
3, 57360, Note_on_c, 0, 57, 0
3, 57360, Note_on_c, 0, 58, 67
3, 57360, Note_on_c, 0, 62, 67
3, 57600, Note_on_c, 0, 62, 0
3, 57600, Note_on_c, 0, 58, 0
3, 57600, Note_on_c, 0, 57, 67
3, 57600, Note_on_c, 0, 60, 67
3, 57647, Note_on_c, 0, 60, 0
3, 57647, Note_on_c, 0, 57, 0
3, 57840, Note_on_c, 0, 55, 80
3, 57840, Note_on_c, 0, 58, 80
3, 58320, Note_on_c, 0, 58, 0
3, 58320, Note_on_c, 0, 55, 0
3, 58320, Note_on_c, 0, 57, 67
3, 58320, Note_on_c, 0, 60, 67
3, 58800, Note_on_c, 0, 60, 0
3, 58800, Note_on_c, 0, 57, 0
3, 58800, Note_on_c, 0, 58, 67
3, 58800, Note_on_c, 0, 62, 67
3, 59040, Note_on_c, 0, 62, 0
3, 59040, Note_on_c, 0, 58, 0
3, 59040, Note_on_c, 0, 55, 67
3, 59040, Note_on_c, 0, 58, 67
3, 59280, Note_on_c, 0, 58, 0
3, 59280, Note_on_c, 0, 55, 0
3, 59280, Control_c, 0, 64, 127
3, 59280, Note_on_c, 0, 54, 67
3, 59327, Note_on_c, 0, 54, 0
3, 59327, Note_on_c, 0, 55, 67
3, 59376, Note_on_c, 0, 55, 0
3, 59376, Note_on_c, 0, 54, 67
3, 59423, Note_on_c, 0, 54, 0
3, 59423, Note_on_c, 0, 55, 67
3, 59472, Note_on_c, 0, 55, 0
3, 59472, Control_c, 0, 64, 0
3, 59472, Note_on_c, 0, 54, 67
3, 59520, Note_on_c, 0, 54, 0
3, 59520, Note_on_c, 0, 55, 67
3, 59760, Note_on_c, 0, 55, 0
3, 59760, Note_on_c, 0, 69, 67
3, 59760, Note_on_c, 0, 72, 67
3, 60000, Note_on_c, 0, 72, 0
3, 60000, Note_on_c, 0, 69, 0
3, 60000, Note_on_c, 0, 67, 67
3, 60000, Note_on_c, 0, 70, 67
3, 60240, Note_on_c, 0, 70, 0
3, 60240, Note_on_c, 0, 67, 0
3, 60240, Note_on_c, 0, 57, 67
3, 60240, Note_on_c, 0, 60, 67
3, 60240, Note_on_c, 0, 67, 67
3, 60480, Note_on_c, 0, 67, 0
3, 60480, Note_on_c, 0, 60, 0
3, 60480, Note_on_c, 0, 57, 0
3, 60480, Note_on_c, 0, 55, 67
3, 60480, Note_on_c, 0, 58, 67
3, 60480, Note_on_c, 0, 62, 67
3, 60720, Note_on_c, 0, 62, 0
3, 60720, Note_on_c, 0, 58, 0
3, 60720, Note_on_c, 0, 55, 0
3, 60720, Note_on_c, 0, 55, 67
3, 60960, Note_on_c, 0, 55, 0
3, 60960, Note_on_c, 0, 50, 67
3, 61200, Note_on_c, 0, 50, 0
3, 62640, Note_on_c, 0, 58, 93
3, 62640, Note_on_c, 0, 62, 93
3, 62640, Note_on_c, 0, 67, 93
3, 62640, Note_on_c, 0, 70, 93
3, 63120, Note_on_c, 0, 70, 0
3, 63120, Note_on_c, 0, 58, 0
3, 63120, Note_on_c, 0, 62, 0
3, 63120, Note_on_c, 0, 67, 0
3, 63120, Note_on_c, 0, 59, 67
3, 63120, Note_on_c, 0, 62, 67
3, 63120, Note_on_c, 0, 67, 67
3, 63120, Note_on_c, 0, 71, 67
3, 64080, Note_on_c, 0, 71, 0
3, 64080, Note_on_c, 0, 59, 0
3, 64080, Note_on_c, 0, 62, 0
3, 64080, Note_on_c, 0, 67, 0
3, 65520, Note_on_c, 0, 58, 80
3, 65520, Note_on_c, 0, 62, 80
3, 65520, Note_on_c, 0, 67, 80
3, 65520, Note_on_c, 0, 70, 80
3, 66000, Note_on_c, 0, 70, 0
3, 66000, Note_on_c, 0, 58, 0
3, 66000, Note_on_c, 0, 62, 0
3, 66000, Note_on_c, 0, 67, 0
3, 66000, Note_on_c, 0, 59, 54
3, 66000, Note_on_c, 0, 62, 54
3, 66000, Note_on_c, 0, 67, 54
3, 66000, Note_on_c, 0, 71, 54
3, 66960, Note_on_c, 0, 71, 0
3, 66960, Note_on_c, 0, 59, 0
3, 66960, Note_on_c, 0, 62, 0
3, 66960, Note_on_c, 0, 67, 0
3, 67680, Note_on_c, 0, 59, 54
3, 67680, Note_on_c, 0, 62, 54
3, 67680, Note_on_c, 0, 71, 54
3, 68400, Note_on_c, 0, 71, 0
3, 68400, Note_on_c, 0, 62, 0
3, 68400, Note_on_c, 0, 59, 0
3, 69120, Note_on_c, 0, 59, 54
3, 69120, Note_on_c, 0, 62, 54
3, 69120, Note_on_c, 0, 71, 54
3, 70560, Note_on_c, 0, 71, 0
3, 70560, Note_on_c, 0, 62, 0
3, 70560, Note_on_c, 0, 59, 0
3, 70560, Control_c, 0, 64, 127
3, 70560, Note_on_c, 0, 59, 80
3, 70560, Note_on_c, 0, 62, 80
3, 70560, Note_on_c, 0, 71, 80
3, 71280, Note_on_c, 0, 71, 0
3, 71280, Note_on_c, 0, 62, 0
3, 71280, Note_on_c, 0, 59, 0
3, 72720, Control_c, 0, 64, 0
3, 72720, End_track
4, 0, Start_track
4, 0, Title_t, "Grand Piano"
4, 0, Program_c, 0, 0
4, 0, Control_c, 0, 7, 115
4, 0, Control_c, 0, 10, 41
4, 0, Note_on_c, 0, 43, 55
4, 0, Note_on_c, 0, 50, 55
4, 120, Note_on_c, 0, 50, 0
4, 120, Note_on_c, 0, 43, 0
4, 120, Note_on_c, 0, 55, 55
4, 120, Note_on_c, 0, 62, 55
4, 240, Note_on_c, 0, 62, 0
4, 240, Note_on_c, 0, 55, 0
4, 240, Note_on_c, 0, 55, 55
4, 240, Note_on_c, 0, 62, 55
4, 263, Note_on_c, 0, 62, 0
4, 263, Note_on_c, 0, 55, 0
4, 360, Note_on_c, 0, 43, 55
4, 360, Note_on_c, 0, 50, 55
4, 383, Note_on_c, 0, 50, 0
4, 383, Note_on_c, 0, 43, 0
4, 480, Note_on_c, 0, 43, 55
4, 480, Note_on_c, 0, 50, 55
4, 600, Note_on_c, 0, 50, 0
4, 600, Note_on_c, 0, 43, 0
4, 600, Note_on_c, 0, 55, 55
4, 600, Note_on_c, 0, 62, 55
4, 720, Note_on_c, 0, 62, 0
4, 720, Note_on_c, 0, 55, 0
4, 720, Note_on_c, 0, 43, 55
4, 720, Note_on_c, 0, 50, 55
4, 840, Note_on_c, 0, 50, 0
4, 840, Note_on_c, 0, 43, 0
4, 840, Note_on_c, 0, 55, 55
4, 840, Note_on_c, 0, 62, 55
4, 960, Note_on_c, 0, 62, 0
4, 960, Note_on_c, 0, 55, 0
4, 960, Note_on_c, 0, 55, 55
4, 960, Note_on_c, 0, 62, 55
4, 983, Note_on_c, 0, 62, 0
4, 983, Note_on_c, 0, 55, 0
4, 1080, Note_on_c, 0, 43, 55
4, 1080, Note_on_c, 0, 50, 55
4, 1103, Note_on_c, 0, 50, 0
4, 1103, Note_on_c, 0, 43, 0
4, 1200, Note_on_c, 0, 43, 55
4, 1200, Note_on_c, 0, 50, 55
4, 1320, Note_on_c, 0, 50, 0
4, 1320, Note_on_c, 0, 43, 0
4, 1320, Note_on_c, 0, 55, 55
4, 1320, Note_on_c, 0, 62, 55
4, 1440, Note_on_c, 0, 62, 0
4, 1440, Note_on_c, 0, 55, 0
4, 1440, Note_on_c, 0, 43, 55
4, 1440, Note_on_c, 0, 50, 55
4, 1560, Note_on_c, 0, 50, 0
4, 1560, Note_on_c, 0, 43, 0
4, 1560, Note_on_c, 0, 55, 55
4, 1560, Note_on_c, 0, 62, 55
4, 1680, Note_on_c, 0, 62, 0
4, 1680, Note_on_c, 0, 55, 0
4, 1680, Note_on_c, 0, 55, 55
4, 1680, Note_on_c, 0, 62, 55
4, 1703, Note_on_c, 0, 62, 0
4, 1703, Note_on_c, 0, 55, 0
4, 1800, Note_on_c, 0, 43, 55
4, 1800, Note_on_c, 0, 50, 55
4, 1823, Note_on_c, 0, 50, 0
4, 1823, Note_on_c, 0, 43, 0
4, 1920, Note_on_c, 0, 43, 55
4, 1920, Note_on_c, 0, 50, 55
4, 2040, Note_on_c, 0, 50, 0
4, 2040, Note_on_c, 0, 43, 0
4, 2040, Note_on_c, 0, 55, 55
4, 2040, Note_on_c, 0, 62, 55
4, 2160, Note_on_c, 0, 62, 0
4, 2160, Note_on_c, 0, 55, 0
4, 2160, Note_on_c, 0, 43, 55
4, 2160, Note_on_c, 0, 50, 55
4, 2280, Note_on_c, 0, 50, 0
4, 2280, Note_on_c, 0, 43, 0
4, 2280, Note_on_c, 0, 55, 55
4, 2280, Note_on_c, 0, 62, 55
4, 2400, Note_on_c, 0, 62, 0
4, 2400, Note_on_c, 0, 55, 0
4, 2400, Note_on_c, 0, 55, 55
4, 2400, Note_on_c, 0, 62, 55
4, 2423, Note_on_c, 0, 62, 0
4, 2423, Note_on_c, 0, 55, 0
4, 2520, Note_on_c, 0, 43, 55
4, 2520, Note_on_c, 0, 50, 55
4, 2543, Note_on_c, 0, 50, 0
4, 2543, Note_on_c, 0, 43, 0
4, 2640, Note_on_c, 0, 43, 55
4, 2640, Note_on_c, 0, 50, 55
4, 2760, Note_on_c, 0, 50, 0
4, 2760, Note_on_c, 0, 43, 0
4, 2760, Note_on_c, 0, 55, 55
4, 2760, Note_on_c, 0, 62, 55
4, 2880, Note_on_c, 0, 62, 0
4, 2880, Note_on_c, 0, 55, 0
4, 2880, Note_on_c, 0, 50, 55
4, 3000, Note_on_c, 0, 50, 0
4, 3000, Note_on_c, 0, 55, 55
4, 3120, Note_on_c, 0, 55, 0
4, 3120, Note_on_c, 0, 55, 55
4, 3143, Note_on_c, 0, 55, 0
4, 3240, Note_on_c, 0, 50, 55
4, 3263, Note_on_c, 0, 50, 0
4, 3360, Note_on_c, 0, 50, 55
4, 3480, Note_on_c, 0, 50, 0
4, 3480, Note_on_c, 0, 55, 55
4, 3600, Note_on_c, 0, 55, 0
4, 3600, Note_on_c, 0, 50, 55
4, 3720, Note_on_c, 0, 50, 0
4, 3720, Note_on_c, 0, 55, 55
4, 3840, Note_on_c, 0, 55, 0
4, 3840, Note_on_c, 0, 55, 55
4, 3863, Note_on_c, 0, 55, 0
4, 3960, Note_on_c, 0, 50, 55
4, 3983, Note_on_c, 0, 50, 0
4, 4080, Note_on_c, 0, 50, 55
4, 4200, Note_on_c, 0, 50, 0
4, 4200, Note_on_c, 0, 55, 55
4, 4320, Note_on_c, 0, 55, 0
4, 4320, Note_on_c, 0, 50, 55
4, 4440, Note_on_c, 0, 50, 0
4, 4440, Note_on_c, 0, 55, 55
4, 4560, Note_on_c, 0, 55, 0
4, 4560, Note_on_c, 0, 55, 55
4, 4583, Note_on_c, 0, 55, 0
4, 4680, Note_on_c, 0, 50, 55
4, 4703, Note_on_c, 0, 50, 0
4, 4800, Note_on_c, 0, 50, 55
4, 4920, Note_on_c, 0, 50, 0
4, 4920, Note_on_c, 0, 55, 55
4, 5040, Note_on_c, 0, 55, 0
4, 5040, Note_on_c, 0, 50, 55
4, 5160, Note_on_c, 0, 50, 0
4, 5160, Note_on_c, 0, 55, 55
4, 5280, Note_on_c, 0, 55, 0
4, 5280, Note_on_c, 0, 55, 55
4, 5303, Note_on_c, 0, 55, 0
4, 5400, Note_on_c, 0, 50, 55
4, 5423, Note_on_c, 0, 50, 0
4, 5520, Note_on_c, 0, 50, 55
4, 5640, Note_on_c, 0, 50, 0
4, 5640, Note_on_c, 0, 55, 55
4, 5760, Note_on_c, 0, 55, 0
4, 5760, Note_on_c, 0, 50, 55
4, 5880, Note_on_c, 0, 50, 0
4, 5880, Note_on_c, 0, 55, 55
4, 6000, Note_on_c, 0, 55, 0
4, 6000, Note_on_c, 0, 55, 55
4, 6023, Note_on_c, 0, 55, 0
4, 6120, Note_on_c, 0, 50, 55
4, 6143, Note_on_c, 0, 50, 0
4, 6240, Note_on_c, 0, 50, 55
4, 6360, Note_on_c, 0, 50, 0
4, 6360, Note_on_c, 0, 55, 55
4, 6480, Note_on_c, 0, 55, 0
4, 6480, Note_on_c, 0, 50, 55
4, 6600, Note_on_c, 0, 50, 0
4, 6600, Note_on_c, 0, 55, 55
4, 6720, Note_on_c, 0, 55, 0
4, 6720, Note_on_c, 0, 55, 55
4, 6743, Note_on_c, 0, 55, 0
4, 6840, Note_on_c, 0, 50, 55
4, 6863, Note_on_c, 0, 50, 0
4, 6960, Note_on_c, 0, 50, 55
4, 7080, Note_on_c, 0, 50, 0
4, 7080, Note_on_c, 0, 55, 55
4, 7200, Note_on_c, 0, 55, 0
4, 7200, Note_on_c, 0, 50, 55
4, 7320, Note_on_c, 0, 50, 0
4, 7320, Note_on_c, 0, 55, 55
4, 7440, Note_on_c, 0, 55, 0
4, 7440, Note_on_c, 0, 55, 55
4, 7463, Note_on_c, 0, 55, 0
4, 7560, Note_on_c, 0, 50, 55
4, 7583, Note_on_c, 0, 50, 0
4, 7680, Note_on_c, 0, 50, 55
4, 7800, Note_on_c, 0, 50, 0
4, 7800, Note_on_c, 0, 55, 55
4, 7920, Note_on_c, 0, 55, 0
4, 7920, Note_on_c, 0, 50, 55
4, 8040, Note_on_c, 0, 50, 0
4, 8040, Note_on_c, 0, 55, 55
4, 8160, Note_on_c, 0, 55, 0
4, 8160, Note_on_c, 0, 55, 55
4, 8183, Note_on_c, 0, 55, 0
4, 8280, Note_on_c, 0, 50, 55
4, 8303, Note_on_c, 0, 50, 0
4, 8400, Note_on_c, 0, 50, 55
4, 8520, Note_on_c, 0, 50, 0
4, 8520, Note_on_c, 0, 55, 55
4, 8640, Note_on_c, 0, 55, 0
4, 8640, Note_on_c, 0, 50, 55
4, 8760, Note_on_c, 0, 50, 0
4, 8760, Note_on_c, 0, 55, 55
4, 8880, Note_on_c, 0, 55, 0
4, 8880, Note_on_c, 0, 55, 55
4, 8903, Note_on_c, 0, 55, 0
4, 9000, Note_on_c, 0, 50, 55
4, 9023, Note_on_c, 0, 50, 0
4, 9120, Note_on_c, 0, 50, 55
4, 9240, Note_on_c, 0, 50, 0
4, 9240, Note_on_c, 0, 55, 55
4, 9360, Note_on_c, 0, 55, 0
4, 9360, Note_on_c, 0, 50, 55
4, 9480, Note_on_c, 0, 50, 0
4, 9480, Note_on_c, 0, 55, 55
4, 9600, Note_on_c, 0, 55, 0
4, 9600, Note_on_c, 0, 55, 55
4, 9623, Note_on_c, 0, 55, 0
4, 9720, Note_on_c, 0, 50, 55
4, 9743, Note_on_c, 0, 50, 0
4, 9840, Note_on_c, 0, 50, 55
4, 9960, Note_on_c, 0, 50, 0
4, 9960, Note_on_c, 0, 55, 55
4, 10080, Note_on_c, 0, 55, 0
4, 10080, Note_on_c, 0, 50, 55
4, 10200, Note_on_c, 0, 50, 0
4, 10200, Note_on_c, 0, 55, 55
4, 10320, Note_on_c, 0, 55, 0
4, 10320, Note_on_c, 0, 55, 55
4, 10343, Note_on_c, 0, 55, 0
4, 10440, Note_on_c, 0, 50, 55
4, 10463, Note_on_c, 0, 50, 0
4, 10560, Note_on_c, 0, 50, 55
4, 10680, Note_on_c, 0, 50, 0
4, 10680, Note_on_c, 0, 55, 55
4, 10800, Note_on_c, 0, 55, 0
4, 10800, Note_on_c, 0, 50, 68
4, 10920, Note_on_c, 0, 50, 0
4, 10920, Note_on_c, 0, 55, 68
4, 11040, Note_on_c, 0, 55, 0
4, 11040, Note_on_c, 0, 55, 68
4, 11063, Note_on_c, 0, 55, 0
4, 11160, Note_on_c, 0, 50, 68
4, 11183, Note_on_c, 0, 50, 0
4, 11280, Note_on_c, 0, 50, 68
4, 11400, Note_on_c, 0, 50, 0
4, 11400, Note_on_c, 0, 55, 68
4, 11520, Note_on_c, 0, 55, 0
4, 11520, Note_on_c, 0, 50, 68
4, 11640, Note_on_c, 0, 50, 0
4, 11640, Note_on_c, 0, 55, 68
4, 11760, Note_on_c, 0, 55, 0
4, 11760, Note_on_c, 0, 55, 68
4, 11783, Note_on_c, 0, 55, 0
4, 11880, Note_on_c, 0, 50, 68
4, 11903, Note_on_c, 0, 50, 0
4, 12000, Note_on_c, 0, 50, 68
4, 12120, Note_on_c, 0, 50, 0
4, 12120, Note_on_c, 0, 55, 68
4, 12240, Note_on_c, 0, 55, 0
4, 12240, Note_on_c, 0, 50, 68
4, 12360, Note_on_c, 0, 50, 0
4, 12360, Note_on_c, 0, 55, 68
4, 12480, Note_on_c, 0, 55, 0
4, 12480, Note_on_c, 0, 55, 68
4, 12503, Note_on_c, 0, 55, 0
4, 12600, Note_on_c, 0, 50, 68
4, 12623, Note_on_c, 0, 50, 0
4, 12720, Note_on_c, 0, 50, 68
4, 12840, Note_on_c, 0, 50, 0
4, 12840, Note_on_c, 0, 55, 68
4, 12960, Note_on_c, 0, 55, 0
4, 12960, Note_on_c, 0, 50, 55
4, 13080, Note_on_c, 0, 50, 0
4, 13080, Note_on_c, 0, 55, 55
4, 13200, Note_on_c, 0, 55, 0
4, 13200, Note_on_c, 0, 55, 55
4, 13223, Note_on_c, 0, 55, 0
4, 13320, Note_on_c, 0, 50, 55
4, 13343, Note_on_c, 0, 50, 0
4, 13440, Note_on_c, 0, 50, 55
4, 13560, Note_on_c, 0, 50, 0
4, 13560, Note_on_c, 0, 55, 55
4, 13680, Note_on_c, 0, 55, 0
4, 13680, Note_on_c, 0, 50, 55
4, 13800, Note_on_c, 0, 50, 0
4, 13800, Note_on_c, 0, 55, 55
4, 13920, Note_on_c, 0, 55, 0
4, 13920, Note_on_c, 0, 55, 55
4, 13943, Note_on_c, 0, 55, 0
4, 14040, Note_on_c, 0, 50, 55
4, 14063, Note_on_c, 0, 50, 0
4, 14160, Note_on_c, 0, 50, 55
4, 14280, Note_on_c, 0, 50, 0
4, 14280, Note_on_c, 0, 55, 55
4, 14400, Note_on_c, 0, 55, 0
4, 14400, Note_on_c, 0, 50, 55
4, 14520, Note_on_c, 0, 50, 0
4, 14520, Note_on_c, 0, 55, 55
4, 14640, Note_on_c, 0, 55, 0
4, 14640, Note_on_c, 0, 55, 55
4, 14663, Note_on_c, 0, 55, 0
4, 14760, Note_on_c, 0, 50, 55
4, 14783, Note_on_c, 0, 50, 0
4, 14880, Note_on_c, 0, 50, 55
4, 15000, Note_on_c, 0, 50, 0
4, 15000, Note_on_c, 0, 55, 55
4, 15120, Note_on_c, 0, 55, 0
4, 15120, Note_on_c, 0, 50, 55
4, 15240, Note_on_c, 0, 50, 0
4, 15240, Note_on_c, 0, 55, 55
4, 15360, Note_on_c, 0, 55, 0
4, 15360, Note_on_c, 0, 55, 55
4, 15383, Note_on_c, 0, 55, 0
4, 15480, Note_on_c, 0, 50, 55
4, 15503, Note_on_c, 0, 50, 0
4, 15600, Note_on_c, 0, 50, 55
4, 15720, Note_on_c, 0, 50, 0
4, 15720, Note_on_c, 0, 55, 55
4, 15840, Note_on_c, 0, 55, 0
4, 15840, Note_on_c, 0, 50, 55
4, 15960, Note_on_c, 0, 50, 0
4, 15960, Note_on_c, 0, 55, 55
4, 16080, Note_on_c, 0, 55, 0
4, 16080, Note_on_c, 0, 55, 55
4, 16103, Note_on_c, 0, 55, 0
4, 16200, Note_on_c, 0, 50, 55
4, 16223, Note_on_c, 0, 50, 0
4, 16320, Note_on_c, 0, 50, 55
4, 16440, Note_on_c, 0, 50, 0
4, 16440, Note_on_c, 0, 55, 55
4, 16560, Note_on_c, 0, 55, 0
4, 16560, Note_on_c, 0, 50, 55
4, 16680, Note_on_c, 0, 50, 0
4, 16680, Note_on_c, 0, 55, 55
4, 16800, Note_on_c, 0, 55, 0
4, 16800, Note_on_c, 0, 55, 55
4, 16823, Note_on_c, 0, 55, 0
4, 16920, Note_on_c, 0, 50, 55
4, 16943, Note_on_c, 0, 50, 0
4, 17040, Note_on_c, 0, 50, 55
4, 17160, Note_on_c, 0, 50, 0
4, 17160, Note_on_c, 0, 55, 55
4, 17280, Note_on_c, 0, 55, 0
4, 17280, Note_on_c, 0, 50, 55
4, 17400, Note_on_c, 0, 50, 0
4, 17400, Note_on_c, 0, 55, 55
4, 17520, Note_on_c, 0, 55, 0
4, 17520, Note_on_c, 0, 55, 55
4, 17543, Note_on_c, 0, 55, 0
4, 17640, Note_on_c, 0, 50, 55
4, 17663, Note_on_c, 0, 50, 0
4, 17760, Note_on_c, 0, 50, 55
4, 17880, Note_on_c, 0, 50, 0
4, 17880, Note_on_c, 0, 55, 55
4, 18000, Note_on_c, 0, 55, 0
4, 18000, Note_on_c, 0, 50, 55
4, 18120, Note_on_c, 0, 50, 0
4, 18120, Note_on_c, 0, 55, 55
4, 18240, Note_on_c, 0, 55, 0
4, 18240, Note_on_c, 0, 55, 55
4, 18263, Note_on_c, 0, 55, 0
4, 18360, Note_on_c, 0, 50, 55
4, 18383, Note_on_c, 0, 50, 0
4, 18480, Note_on_c, 0, 50, 55
4, 18600, Note_on_c, 0, 50, 0
4, 18600, Note_on_c, 0, 55, 55
4, 18720, Note_on_c, 0, 55, 0
4, 18720, Note_on_c, 0, 50, 55
4, 18840, Note_on_c, 0, 50, 0
4, 18840, Note_on_c, 0, 55, 55
4, 18960, Note_on_c, 0, 55, 0
4, 18960, Note_on_c, 0, 55, 55
4, 18983, Note_on_c, 0, 55, 0
4, 19080, Note_on_c, 0, 50, 55
4, 19103, Note_on_c, 0, 50, 0
4, 19200, Note_on_c, 0, 50, 55
4, 19320, Note_on_c, 0, 50, 0
4, 19320, Note_on_c, 0, 55, 55
4, 19440, Note_on_c, 0, 55, 0
4, 19440, Note_on_c, 0, 50, 55
4, 19560, Note_on_c, 0, 50, 0
4, 19560, Note_on_c, 0, 55, 55
4, 19680, Note_on_c, 0, 55, 0
4, 19680, Note_on_c, 0, 55, 55
4, 19703, Note_on_c, 0, 55, 0
4, 19800, Note_on_c, 0, 50, 55
4, 19823, Note_on_c, 0, 50, 0
4, 19920, Note_on_c, 0, 50, 55
4, 20040, Note_on_c, 0, 50, 0
4, 20040, Note_on_c, 0, 55, 55
4, 20160, Note_on_c, 0, 55, 0
4, 20160, Note_on_c, 0, 50, 55
4, 20280, Note_on_c, 0, 50, 0
4, 20280, Note_on_c, 0, 55, 55
4, 20400, Note_on_c, 0, 55, 0
4, 20400, Note_on_c, 0, 55, 55
4, 20423, Note_on_c, 0, 55, 0
4, 20520, Note_on_c, 0, 50, 55
4, 20543, Note_on_c, 0, 50, 0
4, 20640, Note_on_c, 0, 50, 55
4, 20760, Note_on_c, 0, 50, 0
4, 20760, Note_on_c, 0, 55, 55
4, 20880, Note_on_c, 0, 55, 0
4, 20880, Note_on_c, 0, 50, 55
4, 21000, Note_on_c, 0, 50, 0
4, 21000, Note_on_c, 0, 55, 55
4, 21120, Note_on_c, 0, 55, 0
4, 21120, Note_on_c, 0, 55, 55
4, 21143, Note_on_c, 0, 55, 0
4, 21240, Note_on_c, 0, 50, 55
4, 21263, Note_on_c, 0, 50, 0
4, 21360, Note_on_c, 0, 50, 55
4, 21480, Note_on_c, 0, 50, 0
4, 21480, Note_on_c, 0, 55, 55
4, 21600, Note_on_c, 0, 55, 0
4, 21600, Note_on_c, 0, 50, 55
4, 21720, Note_on_c, 0, 50, 0
4, 21720, Note_on_c, 0, 55, 55
4, 21840, Note_on_c, 0, 55, 0
4, 21840, Note_on_c, 0, 55, 55
4, 21863, Note_on_c, 0, 55, 0
4, 21960, Note_on_c, 0, 50, 55
4, 21983, Note_on_c, 0, 50, 0
4, 22080, Note_on_c, 0, 50, 55
4, 22200, Note_on_c, 0, 50, 0
4, 22200, Note_on_c, 0, 55, 55
4, 22320, Note_on_c, 0, 55, 0
4, 22320, Note_on_c, 0, 50, 55
4, 22440, Note_on_c, 0, 50, 0
4, 22440, Note_on_c, 0, 55, 55
4, 22560, Note_on_c, 0, 55, 0
4, 22560, Note_on_c, 0, 55, 55
4, 22583, Note_on_c, 0, 55, 0
4, 22680, Note_on_c, 0, 50, 55
4, 22703, Note_on_c, 0, 50, 0
4, 22800, Note_on_c, 0, 50, 55
4, 22920, Note_on_c, 0, 50, 0
4, 22920, Note_on_c, 0, 55, 55
4, 23040, Note_on_c, 0, 55, 0
4, 23040, Note_on_c, 0, 50, 55
4, 23160, Note_on_c, 0, 50, 0
4, 23160, Note_on_c, 0, 55, 55
4, 23280, Note_on_c, 0, 55, 0
4, 23280, Note_on_c, 0, 55, 55
4, 23303, Note_on_c, 0, 55, 0
4, 23400, Note_on_c, 0, 50, 55
4, 23423, Note_on_c, 0, 50, 0
4, 23520, Note_on_c, 0, 50, 55
4, 23640, Note_on_c, 0, 50, 0
4, 23640, Note_on_c, 0, 55, 55
4, 23760, Note_on_c, 0, 55, 0
4, 23760, Note_on_c, 0, 50, 55
4, 23880, Note_on_c, 0, 50, 0
4, 23880, Note_on_c, 0, 55, 55
4, 24000, Note_on_c, 0, 55, 0
4, 24000, Note_on_c, 0, 55, 55
4, 24023, Note_on_c, 0, 55, 0
4, 24120, Note_on_c, 0, 50, 55
4, 24143, Note_on_c, 0, 50, 0
4, 24240, Note_on_c, 0, 50, 55
4, 24360, Note_on_c, 0, 50, 0
4, 24360, Note_on_c, 0, 55, 55
4, 24480, Note_on_c, 0, 55, 0
4, 24480, Note_on_c, 0, 50, 55
4, 24600, Note_on_c, 0, 50, 0
4, 24600, Note_on_c, 0, 55, 55
4, 24720, Note_on_c, 0, 55, 0
4, 24720, Note_on_c, 0, 55, 55
4, 24743, Note_on_c, 0, 55, 0
4, 24840, Note_on_c, 0, 50, 55
4, 24863, Note_on_c, 0, 50, 0
4, 24960, Note_on_c, 0, 50, 55
4, 25080, Note_on_c, 0, 50, 0
4, 25080, Note_on_c, 0, 55, 55
4, 25200, Note_on_c, 0, 55, 0
4, 25200, Note_on_c, 0, 50, 55
4, 25320, Note_on_c, 0, 50, 0
4, 25320, Note_on_c, 0, 55, 55
4, 25440, Note_on_c, 0, 55, 0
4, 25440, Note_on_c, 0, 55, 55
4, 25463, Note_on_c, 0, 55, 0
4, 25560, Note_on_c, 0, 50, 55
4, 25583, Note_on_c, 0, 50, 0
4, 25680, Note_on_c, 0, 50, 55
4, 25800, Note_on_c, 0, 50, 0
4, 25800, Note_on_c, 0, 55, 55
4, 25920, Note_on_c, 0, 55, 0
4, 25920, Note_on_c, 0, 50, 55
4, 26040, Note_on_c, 0, 50, 0
4, 26040, Note_on_c, 0, 55, 55
4, 26160, Note_on_c, 0, 55, 0
4, 26160, Note_on_c, 0, 55, 55
4, 26183, Note_on_c, 0, 55, 0
4, 26280, Note_on_c, 0, 50, 55
4, 26303, Note_on_c, 0, 50, 0
4, 26400, Note_on_c, 0, 50, 55
4, 26520, Note_on_c, 0, 50, 0
4, 26520, Note_on_c, 0, 55, 55
4, 26640, Note_on_c, 0, 55, 0
4, 26640, Note_on_c, 0, 50, 55
4, 26760, Note_on_c, 0, 50, 0
4, 26760, Note_on_c, 0, 55, 55
4, 26880, Note_on_c, 0, 55, 0
4, 26880, Note_on_c, 0, 55, 55
4, 26903, Note_on_c, 0, 55, 0
4, 27000, Note_on_c, 0, 50, 55
4, 27023, Note_on_c, 0, 50, 0
4, 27120, Note_on_c, 0, 50, 55
4, 27240, Note_on_c, 0, 50, 0
4, 27240, Note_on_c, 0, 55, 55
4, 27360, Note_on_c, 0, 55, 0
4, 27360, Note_on_c, 0, 50, 55
4, 27480, Note_on_c, 0, 50, 0
4, 27480, Note_on_c, 0, 55, 55
4, 27600, Note_on_c, 0, 55, 0
4, 27600, Note_on_c, 0, 55, 55
4, 27623, Note_on_c, 0, 55, 0
4, 27720, Note_on_c, 0, 50, 55
4, 27743, Note_on_c, 0, 50, 0
4, 27840, Note_on_c, 0, 50, 55
4, 27960, Note_on_c, 0, 50, 0
4, 27960, Note_on_c, 0, 55, 55
4, 28080, Note_on_c, 0, 55, 0
4, 28080, Note_on_c, 0, 50, 55
4, 28200, Note_on_c, 0, 50, 0
4, 28200, Note_on_c, 0, 55, 55
4, 28320, Note_on_c, 0, 55, 0
4, 28320, Note_on_c, 0, 55, 55
4, 28343, Note_on_c, 0, 55, 0
4, 28440, Note_on_c, 0, 50, 55
4, 28463, Note_on_c, 0, 50, 0
4, 28560, Note_on_c, 0, 50, 55
4, 28680, Note_on_c, 0, 50, 0
4, 28680, Note_on_c, 0, 55, 55
4, 28800, Note_on_c, 0, 55, 0
4, 28800, Note_on_c, 0, 50, 55
4, 28920, Note_on_c, 0, 50, 0
4, 28920, Note_on_c, 0, 55, 55
4, 29040, Note_on_c, 0, 55, 0
4, 29040, Note_on_c, 0, 55, 55
4, 29063, Note_on_c, 0, 55, 0
4, 29160, Note_on_c, 0, 50, 55
4, 29183, Note_on_c, 0, 50, 0
4, 29280, Note_on_c, 0, 50, 55
4, 29400, Note_on_c, 0, 50, 0
4, 29400, Note_on_c, 0, 55, 55
4, 29520, Note_on_c, 0, 55, 0
4, 29520, Note_on_c, 0, 50, 55
4, 29640, Note_on_c, 0, 50, 0
4, 29640, Note_on_c, 0, 55, 55
4, 29760, Note_on_c, 0, 55, 0
4, 29760, Note_on_c, 0, 55, 55
4, 29783, Note_on_c, 0, 55, 0
4, 29880, Note_on_c, 0, 50, 55
4, 29903, Note_on_c, 0, 50, 0
4, 30000, Note_on_c, 0, 50, 55
4, 30120, Note_on_c, 0, 50, 0
4, 30120, Note_on_c, 0, 55, 55
4, 30240, Note_on_c, 0, 55, 0
4, 30240, Note_on_c, 0, 50, 68
4, 30360, Note_on_c, 0, 50, 0
4, 30360, Note_on_c, 0, 55, 68
4, 30480, Note_on_c, 0, 55, 0
4, 30480, Note_on_c, 0, 55, 68
4, 30503, Note_on_c, 0, 55, 0
4, 30600, Note_on_c, 0, 50, 68
4, 30623, Note_on_c, 0, 50, 0
4, 30720, Note_on_c, 0, 50, 68
4, 30840, Note_on_c, 0, 50, 0
4, 30840, Note_on_c, 0, 55, 68
4, 30960, Note_on_c, 0, 55, 0
4, 30960, Note_on_c, 0, 50, 68
4, 31080, Note_on_c, 0, 50, 0
4, 31080, Note_on_c, 0, 55, 68
4, 31200, Note_on_c, 0, 55, 0
4, 31200, Note_on_c, 0, 55, 68
4, 31223, Note_on_c, 0, 55, 0
4, 31320, Note_on_c, 0, 50, 68
4, 31343, Note_on_c, 0, 50, 0
4, 31440, Note_on_c, 0, 50, 68
4, 31560, Note_on_c, 0, 50, 0
4, 31560, Note_on_c, 0, 55, 68
4, 31680, Note_on_c, 0, 55, 0
4, 31680, Note_on_c, 0, 55, 81
4, 31680, Note_on_c, 0, 59, 81
4, 31920, Note_on_c, 0, 59, 0
4, 31920, Note_on_c, 0, 55, 0
4, 31920, Note_on_c, 0, 57, 81
4, 31920, Note_on_c, 0, 60, 81
4, 32640, Note_on_c, 0, 60, 0
4, 32640, Note_on_c, 0, 57, 0
4, 32640, Note_on_c, 0, 55, 81
4, 32640, Note_on_c, 0, 59, 81
4, 32880, Note_on_c, 0, 59, 0
4, 32880, Note_on_c, 0, 55, 0
4, 32880, Note_on_c, 0, 57, 81
4, 32880, Note_on_c, 0, 60, 81
4, 33120, Note_on_c, 0, 60, 0
4, 33120, Note_on_c, 0, 57, 0
4, 33120, Note_on_c, 0, 59, 81
4, 33120, Note_on_c, 0, 61, 81
4, 33360, Note_on_c, 0, 61, 0
4, 33360, Note_on_c, 0, 59, 0
4, 33360, Note_on_c, 0, 60, 107
4, 33360, Note_on_c, 0, 67, 107
4, 34080, Note_on_c, 0, 67, 0
4, 34080, Note_on_c, 0, 60, 0
4, 34080, Note_on_c, 0, 59, 81
4, 34080, Note_on_c, 0, 61, 81
4, 34320, Note_on_c, 0, 61, 0
4, 34320, Note_on_c, 0, 59, 0
4, 34320, Note_on_c, 0, 60, 81
4, 34320, Note_on_c, 0, 67, 81
4, 34560, Note_on_c, 0, 67, 0
4, 34560, Note_on_c, 0, 60, 0
4, 34560, Note_on_c, 0, 62, 81
4, 35280, Note_on_c, 0, 62, 0
4, 35280, Note_on_c, 0, 58, 68
4, 35280, Note_on_c, 0, 62, 68
4, 35760, Note_on_c, 0, 62, 0
4, 35760, Note_on_c, 0, 58, 0
4, 35760, Note_on_c, 0, 57, 68
4, 35760, Note_on_c, 0, 61, 68
4, 36000, Note_on_c, 0, 61, 0
4, 36000, Note_on_c, 0, 57, 0
4, 36000, Note_on_c, 0, 55, 68
4, 36000, Note_on_c, 0, 58, 68
4, 37440, Note_on_c, 0, 58, 0
4, 37440, Note_on_c, 0, 55, 0
4, 37440, Note_on_c, 0, 54, 81
4, 37440, Note_on_c, 0, 57, 81
4, 37487, Note_on_c, 0, 57, 0
4, 37487, Note_on_c, 0, 54, 0
4, 37680, Note_on_c, 0, 55, 107
4, 37680, Note_on_c, 0, 58, 107
4, 38400, Note_on_c, 0, 58, 0
4, 38400, Note_on_c, 0, 55, 0
4, 38400, Note_on_c, 0, 54, 81
4, 38400, Note_on_c, 0, 57, 81
4, 38640, Note_on_c, 0, 57, 0
4, 38640, Note_on_c, 0, 54, 0
4, 38640, Note_on_c, 0, 55, 81
4, 38640, Note_on_c, 0, 58, 81
4, 38880, Note_on_c, 0, 58, 0
4, 38880, Note_on_c, 0, 55, 0
4, 38880, Note_on_c, 0, 57, 81
4, 38880, Note_on_c, 0, 61, 81
4, 39120, Note_on_c, 0, 61, 0
4, 39120, Note_on_c, 0, 57, 0
4, 39120, Note_on_c, 0, 60, 94
4, 39120, Note_on_c, 0, 63, 94
4, 39840, Note_on_c, 0, 63, 0
4, 39840, Note_on_c, 0, 60, 0
4, 39840, Note_on_c, 0, 57, 68
4, 39840, Note_on_c, 0, 61, 68
4, 40080, Note_on_c, 0, 61, 0
4, 40080, Note_on_c, 0, 57, 0
4, 40080, Note_on_c, 0, 60, 68
4, 40080, Note_on_c, 0, 63, 68
4, 40320, Note_on_c, 0, 63, 0
4, 40320, Note_on_c, 0, 60, 0
4, 40320, Note_on_c, 0, 62, 68
4, 42000, Note_on_c, 0, 62, 0
4, 42000, Note_on_c, 0, 62, 55
4, 42015, Note_on_c, 0, 62, 0
4, 42060, Note_on_c, 0, 62, 55
4, 42075, Note_on_c, 0, 62, 0
4, 42120, Note_on_c, 0, 62, 55
4, 42135, Note_on_c, 0, 62, 0
4, 42180, Note_on_c, 0, 62, 55
4, 42195, Note_on_c, 0, 62, 0
4, 42240, Note_on_c, 0, 62, 55
4, 42720, Note_on_c, 0, 62, 0
4, 42720, Note_on_c, 0, 62, 55
4, 42735, Note_on_c, 0, 62, 0
4, 42780, Note_on_c, 0, 62, 55
4, 42795, Note_on_c, 0, 62, 0
4, 42840, Note_on_c, 0, 62, 55
4, 42855, Note_on_c, 0, 62, 0
4, 42900, Note_on_c, 0, 62, 55
4, 42915, Note_on_c, 0, 62, 0
4, 42960, Note_on_c, 0, 62, 55
4, 43007, Note_on_c, 0, 62, 0
4, 43200, Note_on_c, 0, 43, 55
4, 43320, Note_on_c, 0, 43, 0
4, 43320, Note_on_c, 0, 50, 55
4, 43440, Note_on_c, 0, 50, 0
4, 43440, Note_on_c, 0, 50, 55
4, 43463, Note_on_c, 0, 50, 0
4, 43560, Note_on_c, 0, 43, 55
4, 43583, Note_on_c, 0, 43, 0
4, 43680, Note_on_c, 0, 43, 55
4, 43800, Note_on_c, 0, 43, 0
4, 43800, Note_on_c, 0, 50, 55
4, 43920, Note_on_c, 0, 50, 0
4, 43920, Note_on_c, 0, 43, 55
4, 44040, Note_on_c, 0, 43, 0
4, 44040, Note_on_c, 0, 50, 55
4, 44160, Note_on_c, 0, 50, 0
4, 44160, Note_on_c, 0, 50, 55
4, 44183, Note_on_c, 0, 50, 0
4, 44280, Note_on_c, 0, 43, 55
4, 44303, Note_on_c, 0, 43, 0
4, 44400, Note_on_c, 0, 43, 55
4, 44520, Note_on_c, 0, 43, 0
4, 44520, Note_on_c, 0, 50, 55
4, 44640, Note_on_c, 0, 50, 0
4, 44640, Note_on_c, 0, 43, 55
4, 44760, Note_on_c, 0, 43, 0
4, 44760, Note_on_c, 0, 50, 55
4, 44880, Note_on_c, 0, 50, 0
4, 44880, Note_on_c, 0, 50, 55
4, 44903, Note_on_c, 0, 50, 0
4, 45000, Note_on_c, 0, 43, 55
4, 45023, Note_on_c, 0, 43, 0
4, 45120, Note_on_c, 0, 43, 55
4, 45240, Note_on_c, 0, 43, 0
4, 45240, Note_on_c, 0, 50, 55
4, 45360, Note_on_c, 0, 50, 0
4, 45360, Note_on_c, 0, 43, 55
4, 45480, Note_on_c, 0, 43, 0
4, 45480, Note_on_c, 0, 50, 55
4, 45600, Note_on_c, 0, 50, 0
4, 45600, Note_on_c, 0, 50, 55
4, 45623, Note_on_c, 0, 50, 0
4, 45720, Note_on_c, 0, 43, 55
4, 45743, Note_on_c, 0, 43, 0
4, 45840, Note_on_c, 0, 43, 55
4, 45960, Note_on_c, 0, 43, 0
4, 45960, Note_on_c, 0, 50, 55
4, 46080, Note_on_c, 0, 50, 0
4, 46080, Note_on_c, 0, 43, 55
4, 46200, Note_on_c, 0, 43, 0
4, 46200, Note_on_c, 0, 50, 55
4, 46320, Note_on_c, 0, 50, 0
4, 46320, Note_on_c, 0, 50, 55
4, 46343, Note_on_c, 0, 50, 0
4, 46440, Note_on_c, 0, 43, 55
4, 46463, Note_on_c, 0, 43, 0
4, 46560, Note_on_c, 0, 43, 55
4, 46680, Note_on_c, 0, 43, 0
4, 46680, Note_on_c, 0, 50, 55
4, 46800, Note_on_c, 0, 50, 0
4, 46800, Note_on_c, 0, 43, 55
4, 46920, Note_on_c, 0, 43, 0
4, 46920, Note_on_c, 0, 50, 55
4, 47040, Note_on_c, 0, 50, 0
4, 47040, Note_on_c, 0, 50, 55
4, 47063, Note_on_c, 0, 50, 0
4, 47160, Note_on_c, 0, 43, 55
4, 47183, Note_on_c, 0, 43, 0
4, 47280, Note_on_c, 0, 43, 55
4, 47400, Note_on_c, 0, 43, 0
4, 47400, Note_on_c, 0, 50, 55
4, 47520, Note_on_c, 0, 50, 0
4, 47520, Note_on_c, 0, 43, 55
4, 47640, Note_on_c, 0, 43, 0
4, 47640, Note_on_c, 0, 50, 55
4, 47760, Note_on_c, 0, 50, 0
4, 47760, Note_on_c, 0, 50, 55
4, 47783, Note_on_c, 0, 50, 0
4, 47880, Note_on_c, 0, 43, 55
4, 47903, Note_on_c, 0, 43, 0
4, 48000, Note_on_c, 0, 43, 55
4, 48120, Note_on_c, 0, 43, 0
4, 48120, Note_on_c, 0, 50, 55
4, 48240, Note_on_c, 0, 50, 0
4, 48240, Note_on_c, 0, 43, 55
4, 48360, Note_on_c, 0, 43, 0
4, 48360, Note_on_c, 0, 50, 55
4, 48480, Note_on_c, 0, 50, 0
4, 48480, Note_on_c, 0, 50, 55
4, 48503, Note_on_c, 0, 50, 0
4, 48600, Note_on_c, 0, 43, 55
4, 48623, Note_on_c, 0, 43, 0
4, 48720, Note_on_c, 0, 43, 55
4, 48840, Note_on_c, 0, 43, 0
4, 48840, Note_on_c, 0, 50, 55
4, 48960, Note_on_c, 0, 50, 0
4, 48960, Note_on_c, 0, 43, 55
4, 49080, Note_on_c, 0, 43, 0
4, 49080, Note_on_c, 0, 50, 55
4, 49200, Note_on_c, 0, 50, 0
4, 49200, Note_on_c, 0, 50, 55
4, 49223, Note_on_c, 0, 50, 0
4, 49320, Note_on_c, 0, 43, 55
4, 49343, Note_on_c, 0, 43, 0
4, 49440, Note_on_c, 0, 43, 55
4, 49560, Note_on_c, 0, 43, 0
4, 49560, Note_on_c, 0, 50, 55
4, 49680, Note_on_c, 0, 50, 0
4, 49680, Note_on_c, 0, 43, 55
4, 49800, Note_on_c, 0, 43, 0
4, 49800, Note_on_c, 0, 50, 55
4, 49920, Note_on_c, 0, 50, 0
4, 49920, Note_on_c, 0, 50, 55
4, 49943, Note_on_c, 0, 50, 0
4, 50040, Note_on_c, 0, 43, 55
4, 50063, Note_on_c, 0, 43, 0
4, 50160, Note_on_c, 0, 43, 55
4, 50280, Note_on_c, 0, 43, 0
4, 50280, Note_on_c, 0, 50, 55
4, 50400, Note_on_c, 0, 50, 0
4, 50400, Note_on_c, 0, 43, 55
4, 50520, Note_on_c, 0, 43, 0
4, 50520, Note_on_c, 0, 50, 55
4, 50640, Note_on_c, 0, 50, 0
4, 50640, Note_on_c, 0, 50, 55
4, 50663, Note_on_c, 0, 50, 0
4, 50760, Note_on_c, 0, 43, 55
4, 50783, Note_on_c, 0, 43, 0
4, 50880, Note_on_c, 0, 43, 55
4, 51000, Note_on_c, 0, 43, 0
4, 51000, Note_on_c, 0, 50, 55
4, 51120, Note_on_c, 0, 50, 0
4, 51120, Note_on_c, 0, 43, 55
4, 51240, Note_on_c, 0, 43, 0
4, 51240, Note_on_c, 0, 50, 55
4, 51360, Note_on_c, 0, 50, 0
4, 51360, Note_on_c, 0, 50, 55
4, 51383, Note_on_c, 0, 50, 0
4, 51480, Note_on_c, 0, 43, 55
4, 51503, Note_on_c, 0, 43, 0
4, 51600, Note_on_c, 0, 43, 55
4, 51720, Note_on_c, 0, 43, 0
4, 51720, Note_on_c, 0, 50, 55
4, 51840, Note_on_c, 0, 50, 0
4, 51840, Note_on_c, 0, 43, 55
4, 51960, Note_on_c, 0, 43, 0
4, 51960, Note_on_c, 0, 50, 55
4, 52080, Note_on_c, 0, 50, 0
4, 52080, Note_on_c, 0, 50, 55
4, 52103, Note_on_c, 0, 50, 0
4, 52200, Note_on_c, 0, 43, 55
4, 52223, Note_on_c, 0, 43, 0
4, 52320, Note_on_c, 0, 43, 55
4, 52440, Note_on_c, 0, 43, 0
4, 52440, Note_on_c, 0, 50, 55
4, 52560, Note_on_c, 0, 50, 0
4, 52560, Note_on_c, 0, 43, 55
4, 52680, Note_on_c, 0, 43, 0
4, 52680, Note_on_c, 0, 50, 55
4, 52800, Note_on_c, 0, 50, 0
4, 52800, Note_on_c, 0, 50, 55
4, 52823, Note_on_c, 0, 50, 0
4, 52920, Note_on_c, 0, 43, 55
4, 52943, Note_on_c, 0, 43, 0
4, 53040, Note_on_c, 0, 43, 55
4, 53160, Note_on_c, 0, 43, 0
4, 53160, Note_on_c, 0, 50, 55
4, 53280, Note_on_c, 0, 50, 0
4, 53280, Note_on_c, 0, 43, 55
4, 53400, Note_on_c, 0, 43, 0
4, 53400, Note_on_c, 0, 50, 55
4, 53520, Note_on_c, 0, 50, 0
4, 53520, Note_on_c, 0, 50, 55
4, 53543, Note_on_c, 0, 50, 0
4, 53640, Note_on_c, 0, 43, 55
4, 53663, Note_on_c, 0, 43, 0
4, 53760, Note_on_c, 0, 43, 55
4, 53880, Note_on_c, 0, 43, 0
4, 53880, Note_on_c, 0, 50, 55
4, 54000, Note_on_c, 0, 50, 0
4, 54000, Note_on_c, 0, 43, 55
4, 54120, Note_on_c, 0, 43, 0
4, 54120, Note_on_c, 0, 50, 55
4, 54240, Note_on_c, 0, 50, 0
4, 54240, Note_on_c, 0, 50, 55
4, 54263, Note_on_c, 0, 50, 0
4, 54360, Note_on_c, 0, 43, 55
4, 54383, Note_on_c, 0, 43, 0
4, 54480, Note_on_c, 0, 43, 55
4, 54600, Note_on_c, 0, 43, 0
4, 54600, Note_on_c, 0, 50, 55
4, 54720, Note_on_c, 0, 50, 0
4, 54720, Note_on_c, 0, 43, 55
4, 54840, Note_on_c, 0, 43, 0
4, 54840, Note_on_c, 0, 50, 55
4, 54960, Note_on_c, 0, 50, 0
4, 54960, Note_on_c, 0, 50, 55
4, 54983, Note_on_c, 0, 50, 0
4, 55080, Note_on_c, 0, 43, 55
4, 55103, Note_on_c, 0, 43, 0
4, 55200, Note_on_c, 0, 43, 55
4, 55320, Note_on_c, 0, 43, 0
4, 55320, Note_on_c, 0, 50, 55
4, 55440, Note_on_c, 0, 50, 0
4, 55440, Note_on_c, 0, 43, 55
4, 55560, Note_on_c, 0, 43, 0
4, 55560, Note_on_c, 0, 50, 55
4, 55680, Note_on_c, 0, 50, 0
4, 55680, Note_on_c, 0, 50, 55
4, 55703, Note_on_c, 0, 50, 0
4, 55800, Note_on_c, 0, 43, 55
4, 55823, Note_on_c, 0, 43, 0
4, 55920, Note_on_c, 0, 43, 55
4, 56040, Note_on_c, 0, 43, 0
4, 56040, Note_on_c, 0, 50, 55
4, 56160, Note_on_c, 0, 50, 0
4, 56160, Note_on_c, 0, 43, 55
4, 56280, Note_on_c, 0, 43, 0
4, 56280, Note_on_c, 0, 50, 55
4, 56400, Note_on_c, 0, 50, 0
4, 56400, Note_on_c, 0, 50, 55
4, 56423, Note_on_c, 0, 50, 0
4, 56520, Note_on_c, 0, 43, 55
4, 56543, Note_on_c, 0, 43, 0
4, 56640, Note_on_c, 0, 43, 55
4, 56760, Note_on_c, 0, 43, 0
4, 56760, Note_on_c, 0, 50, 55
4, 56880, Note_on_c, 0, 50, 0
4, 56880, Note_on_c, 0, 43, 55
4, 57000, Note_on_c, 0, 43, 0
4, 57000, Note_on_c, 0, 50, 55
4, 57120, Note_on_c, 0, 50, 0
4, 57120, Note_on_c, 0, 50, 55
4, 57143, Note_on_c, 0, 50, 0
4, 57240, Note_on_c, 0, 43, 55
4, 57263, Note_on_c, 0, 43, 0
4, 57360, Note_on_c, 0, 43, 55
4, 57480, Note_on_c, 0, 43, 0
4, 57480, Note_on_c, 0, 50, 55
4, 57600, Note_on_c, 0, 50, 0
4, 57600, Note_on_c, 0, 43, 55
4, 57720, Note_on_c, 0, 43, 0
4, 57720, Note_on_c, 0, 50, 55
4, 57840, Note_on_c, 0, 50, 0
4, 57840, Note_on_c, 0, 50, 55
4, 57863, Note_on_c, 0, 50, 0
4, 57960, Note_on_c, 0, 43, 55
4, 57983, Note_on_c, 0, 43, 0
4, 58080, Note_on_c, 0, 43, 55
4, 58200, Note_on_c, 0, 43, 0
4, 58200, Note_on_c, 0, 50, 55
4, 58320, Note_on_c, 0, 50, 0
4, 58320, Note_on_c, 0, 43, 55
4, 58440, Note_on_c, 0, 43, 0
4, 58440, Note_on_c, 0, 50, 55
4, 58560, Note_on_c, 0, 50, 0
4, 58560, Note_on_c, 0, 50, 55
4, 58583, Note_on_c, 0, 50, 0
4, 58680, Note_on_c, 0, 43, 55
4, 58703, Note_on_c, 0, 43, 0
4, 58800, Note_on_c, 0, 43, 55
4, 58920, Note_on_c, 0, 43, 0
4, 58920, Note_on_c, 0, 50, 55
4, 59040, Note_on_c, 0, 50, 0
4, 59040, Note_on_c, 0, 43, 55
4, 59160, Note_on_c, 0, 43, 0
4, 59160, Note_on_c, 0, 50, 55
4, 59280, Note_on_c, 0, 50, 0
4, 59280, Note_on_c, 0, 50, 55
4, 59303, Note_on_c, 0, 50, 0
4, 59400, Note_on_c, 0, 43, 55
4, 59423, Note_on_c, 0, 43, 0
4, 59520, Note_on_c, 0, 43, 55
4, 59640, Note_on_c, 0, 43, 0
4, 59640, Note_on_c, 0, 50, 55
4, 59760, Note_on_c, 0, 50, 0
4, 59760, Note_on_c, 0, 43, 55
4, 59880, Note_on_c, 0, 43, 0
4, 59880, Note_on_c, 0, 50, 55
4, 60000, Note_on_c, 0, 50, 0
4, 60000, Note_on_c, 0, 50, 55
4, 60023, Note_on_c, 0, 50, 0
4, 60120, Note_on_c, 0, 43, 55
4, 60143, Note_on_c, 0, 43, 0
4, 60240, Note_on_c, 0, 43, 55
4, 60360, Note_on_c, 0, 43, 0
4, 60360, Note_on_c, 0, 50, 55
4, 60480, Note_on_c, 0, 50, 0
4, 60480, Note_on_c, 0, 43, 68
4, 60527, Note_on_c, 0, 43, 0
4, 60720, Note_on_c, 0, 45, 68
4, 60720, Note_on_c, 0, 48, 68
4, 60960, Note_on_c, 0, 48, 0
4, 60960, Note_on_c, 0, 45, 0
4, 60960, Note_on_c, 0, 43, 68
4, 60960, Note_on_c, 0, 46, 68
4, 61200, Note_on_c, 0, 46, 0
4, 61200, Note_on_c, 0, 43, 0
4, 61200, Note_on_c, 0, 50, 94
4, 61200, Note_on_c, 0, 53, 94
4, 61680, Note_on_c, 0, 53, 0
4, 61680, Note_on_c, 0, 50, 0
4, 61680, Note_on_c, 0, 50, 68
4, 61920, Note_on_c, 0, 50, 0
4, 61920, Note_on_c, 0, 48, 68
4, 61920, Note_on_c, 0, 53, 68
4, 62160, Note_on_c, 0, 53, 0
4, 62160, Note_on_c, 0, 48, 0
4, 62160, Control_c, 0, 64, 127
4, 62160, Note_on_c, 0, 51, 68
4, 62207, Note_on_c, 0, 51, 0
4, 62207, Note_on_c, 0, 53, 68
4, 62256, Note_on_c, 0, 53, 0
4, 62256, Note_on_c, 0, 51, 68
4, 62303, Note_on_c, 0, 51, 0
4, 62303, Note_on_c, 0, 53, 68
4, 62352, Note_on_c, 0, 53, 0
4, 62352, Control_c, 0, 64, 0
4, 62352, Note_on_c, 0, 51, 68
4, 62400, Note_on_c, 0, 51, 0
4, 62400, Note_on_c, 0, 50, 68
4, 62640, Note_on_c, 0, 50, 0
4, 62640, Note_on_c, 0, 43, 55
4, 62640, Note_on_c, 0, 50, 55
4, 62760, Note_on_c, 0, 50, 0
4, 62760, Note_on_c, 0, 43, 0
4, 62760, Note_on_c, 0, 50, 55
4, 62760, Note_on_c, 0, 55, 55
4, 62880, Note_on_c, 0, 55, 0
4, 62880, Note_on_c, 0, 50, 0
4, 62880, Note_on_c, 0, 50, 55
4, 62880, Note_on_c, 0, 55, 55
4, 62903, Note_on_c, 0, 55, 0
4, 62903, Note_on_c, 0, 50, 0
4, 63000, Note_on_c, 0, 43, 55
4, 63000, Note_on_c, 0, 50, 55
4, 63023, Note_on_c, 0, 50, 0
4, 63023, Note_on_c, 0, 43, 0
4, 63120, Note_on_c, 0, 43, 55
4, 63120, Note_on_c, 0, 50, 55
4, 63240, Note_on_c, 0, 50, 0
4, 63240, Note_on_c, 0, 43, 0
4, 63240, Note_on_c, 0, 50, 55
4, 63240, Note_on_c, 0, 55, 55
4, 63360, Note_on_c, 0, 55, 0
4, 63360, Note_on_c, 0, 50, 0
4, 63360, Note_on_c, 0, 43, 55
4, 63360, Note_on_c, 0, 50, 55
4, 63480, Note_on_c, 0, 50, 0
4, 63480, Note_on_c, 0, 43, 0
4, 63480, Note_on_c, 0, 50, 55
4, 63480, Note_on_c, 0, 55, 55
4, 63600, Note_on_c, 0, 55, 0
4, 63600, Note_on_c, 0, 50, 0
4, 63600, Note_on_c, 0, 50, 55
4, 63600, Note_on_c, 0, 55, 55
4, 63623, Note_on_c, 0, 55, 0
4, 63623, Note_on_c, 0, 50, 0
4, 63720, Note_on_c, 0, 43, 55
4, 63720, Note_on_c, 0, 50, 55
4, 63743, Note_on_c, 0, 50, 0
4, 63743, Note_on_c, 0, 43, 0
4, 63840, Note_on_c, 0, 43, 55
4, 63840, Note_on_c, 0, 50, 55
4, 63960, Note_on_c, 0, 50, 0
4, 63960, Note_on_c, 0, 43, 0
4, 63960, Note_on_c, 0, 50, 55
4, 63960, Note_on_c, 0, 55, 55
4, 64080, Note_on_c, 0, 55, 0
4, 64080, Note_on_c, 0, 50, 0
4, 64080, Note_on_c, 0, 50, 94
4, 64080, Note_on_c, 0, 53, 94
4, 64560, Note_on_c, 0, 53, 0
4, 64560, Note_on_c, 0, 50, 0
4, 64560, Note_on_c, 0, 50, 68
4, 64800, Note_on_c, 0, 50, 0
4, 64800, Note_on_c, 0, 48, 68
4, 64800, Note_on_c, 0, 53, 68
4, 65040, Note_on_c, 0, 53, 0
4, 65040, Note_on_c, 0, 48, 0
4, 65040, Control_c, 0, 64, 127
4, 65040, Note_on_c, 0, 51, 68
4, 65087, Note_on_c, 0, 51, 0
4, 65087, Note_on_c, 0, 53, 68
4, 65136, Note_on_c, 0, 53, 0
4, 65136, Note_on_c, 0, 51, 68
4, 65183, Note_on_c, 0, 51, 0
4, 65183, Note_on_c, 0, 53, 68
4, 65232, Note_on_c, 0, 53, 0
4, 65232, Control_c, 0, 64, 0
4, 65232, Note_on_c, 0, 51, 68
4, 65280, Note_on_c, 0, 51, 0
4, 65280, Note_on_c, 0, 50, 68
4, 65520, Note_on_c, 0, 50, 0
4, 65520, Note_on_c, 0, 43, 55
4, 65520, Note_on_c, 0, 50, 55
4, 65640, Note_on_c, 0, 50, 0
4, 65640, Note_on_c, 0, 43, 0
4, 65640, Note_on_c, 0, 50, 55
4, 65640, Note_on_c, 0, 55, 55
4, 65760, Note_on_c, 0, 55, 0
4, 65760, Note_on_c, 0, 50, 0
4, 65760, Note_on_c, 0, 50, 55
4, 65760, Note_on_c, 0, 55, 55
4, 65783, Note_on_c, 0, 55, 0
4, 65783, Note_on_c, 0, 50, 0
4, 65880, Note_on_c, 0, 43, 55
4, 65880, Note_on_c, 0, 50, 55
4, 65903, Note_on_c, 0, 50, 0
4, 65903, Note_on_c, 0, 43, 0
4, 66000, Note_on_c, 0, 43, 55
4, 66000, Note_on_c, 0, 50, 55
4, 66120, Note_on_c, 0, 50, 0
4, 66120, Note_on_c, 0, 43, 0
4, 66120, Note_on_c, 0, 50, 55
4, 66120, Note_on_c, 0, 55, 55
4, 66240, Note_on_c, 0, 55, 0
4, 66240, Note_on_c, 0, 50, 0
4, 66240, Note_on_c, 0, 43, 55
4, 66240, Note_on_c, 0, 50, 55
4, 66360, Note_on_c, 0, 50, 0
4, 66360, Note_on_c, 0, 43, 0
4, 66360, Note_on_c, 0, 50, 55
4, 66360, Note_on_c, 0, 55, 55
4, 66480, Note_on_c, 0, 55, 0
4, 66480, Note_on_c, 0, 50, 0
4, 66480, Note_on_c, 0, 50, 55
4, 66480, Note_on_c, 0, 55, 55
4, 66503, Note_on_c, 0, 55, 0
4, 66503, Note_on_c, 0, 50, 0
4, 66600, Note_on_c, 0, 43, 55
4, 66600, Note_on_c, 0, 50, 55
4, 66623, Note_on_c, 0, 50, 0
4, 66623, Note_on_c, 0, 43, 0
4, 66720, Note_on_c, 0, 43, 55
4, 66720, Note_on_c, 0, 50, 55
4, 66840, Note_on_c, 0, 50, 0
4, 66840, Note_on_c, 0, 43, 0
4, 66840, Note_on_c, 0, 50, 55
4, 66840, Note_on_c, 0, 55, 55
4, 66960, Note_on_c, 0, 55, 0
4, 66960, Note_on_c, 0, 50, 0
4, 66960, Note_on_c, 0, 48, 68
4, 66960, Note_on_c, 0, 53, 68
4, 67200, Note_on_c, 0, 53, 0
4, 67200, Note_on_c, 0, 48, 0
4, 67200, Control_c, 0, 64, 127
4, 67200, Note_on_c, 0, 51, 68
4, 67247, Note_on_c, 0, 51, 0
4, 67247, Note_on_c, 0, 53, 68
4, 67296, Note_on_c, 0, 53, 0
4, 67296, Note_on_c, 0, 51, 68
4, 67343, Note_on_c, 0, 51, 0
4, 67343, Note_on_c, 0, 53, 68
4, 67392, Note_on_c, 0, 53, 0
4, 67392, Control_c, 0, 64, 0
4, 67392, Note_on_c, 0, 51, 68
4, 67440, Note_on_c, 0, 51, 0
4, 67440, Note_on_c, 0, 50, 68
4, 67680, Note_on_c, 0, 50, 0
4, 67680, Note_on_c, 0, 43, 68
4, 67680, Note_on_c, 0, 50, 68
4, 67800, Note_on_c, 0, 50, 0
4, 67800, Note_on_c, 0, 43, 0
4, 67800, Note_on_c, 0, 50, 68
4, 67800, Note_on_c, 0, 55, 68
4, 67920, Note_on_c, 0, 55, 0
4, 67920, Note_on_c, 0, 50, 0
4, 67920, Note_on_c, 0, 50, 68
4, 67920, Note_on_c, 0, 55, 68
4, 67943, Note_on_c, 0, 55, 0
4, 67943, Note_on_c, 0, 50, 0
4, 68040, Note_on_c, 0, 43, 68
4, 68040, Note_on_c, 0, 50, 68
4, 68063, Note_on_c, 0, 50, 0
4, 68063, Note_on_c, 0, 43, 0
4, 68160, Note_on_c, 0, 43, 68
4, 68160, Note_on_c, 0, 50, 68
4, 68280, Note_on_c, 0, 50, 0
4, 68280, Note_on_c, 0, 43, 0
4, 68280, Note_on_c, 0, 50, 68
4, 68280, Note_on_c, 0, 55, 68
4, 68400, Note_on_c, 0, 55, 0
4, 68400, Note_on_c, 0, 50, 0
4, 68400, Note_on_c, 0, 48, 68
4, 68400, Note_on_c, 0, 53, 68
4, 68640, Note_on_c, 0, 53, 0
4, 68640, Note_on_c, 0, 48, 0
4, 68640, Control_c, 0, 64, 127
4, 68640, Note_on_c, 0, 51, 68
4, 68687, Note_on_c, 0, 51, 0
4, 68687, Note_on_c, 0, 53, 68
4, 68736, Note_on_c, 0, 53, 0
4, 68736, Note_on_c, 0, 51, 68
4, 68783, Note_on_c, 0, 51, 0
4, 68783, Note_on_c, 0, 53, 68
4, 68832, Note_on_c, 0, 53, 0
4, 68832, Control_c, 0, 64, 0
4, 68832, Note_on_c, 0, 51, 68
4, 68880, Note_on_c, 0, 51, 0
4, 68880, Note_on_c, 0, 50, 68
4, 69120, Note_on_c, 0, 50, 0
4, 69120, Note_on_c, 0, 43, 55
4, 69120, Note_on_c, 0, 50, 55
4, 69240, Note_on_c, 0, 50, 0
4, 69240, Note_on_c, 0, 43, 0
4, 69240, Note_on_c, 0, 50, 55
4, 69240, Note_on_c, 0, 55, 55
4, 69360, Note_on_c, 0, 55, 0
4, 69360, Note_on_c, 0, 50, 0
4, 69360, Note_on_c, 0, 50, 55
4, 69360, Note_on_c, 0, 55, 55
4, 69383, Note_on_c, 0, 55, 0
4, 69383, Note_on_c, 0, 50, 0
4, 69480, Note_on_c, 0, 43, 55
4, 69480, Note_on_c, 0, 50, 55
4, 69503, Note_on_c, 0, 50, 0
4, 69503, Note_on_c, 0, 43, 0
4, 69600, Note_on_c, 0, 43, 55
4, 69600, Note_on_c, 0, 50, 55
4, 69720, Note_on_c, 0, 50, 0
4, 69720, Note_on_c, 0, 43, 0
4, 69720, Note_on_c, 0, 50, 55
4, 69720, Note_on_c, 0, 55, 55
4, 69840, Note_on_c, 0, 55, 0
4, 69840, Note_on_c, 0, 50, 0
4, 69840, Note_on_c, 0, 43, 55
4, 69840, Note_on_c, 0, 50, 55
4, 69960, Note_on_c, 0, 50, 0
4, 69960, Note_on_c, 0, 43, 0
4, 69960, Note_on_c, 0, 50, 55
4, 69960, Note_on_c, 0, 55, 55
4, 70080, Note_on_c, 0, 55, 0
4, 70080, Note_on_c, 0, 50, 0
4, 70080, Note_on_c, 0, 50, 55
4, 70080, Note_on_c, 0, 55, 55
4, 70103, Note_on_c, 0, 55, 0
4, 70103, Note_on_c, 0, 50, 0
4, 70200, Note_on_c, 0, 43, 55
4, 70200, Note_on_c, 0, 50, 55
4, 70223, Note_on_c, 0, 50, 0
4, 70223, Note_on_c, 0, 43, 0
4, 70320, Note_on_c, 0, 43, 55
4, 70320, Note_on_c, 0, 50, 55
4, 70440, Note_on_c, 0, 50, 0
4, 70440, Note_on_c, 0, 43, 0
4, 70440, Note_on_c, 0, 50, 55
4, 70440, Note_on_c, 0, 55, 55
4, 70560, Note_on_c, 0, 55, 0
4, 70560, Note_on_c, 0, 50, 0
4, 70560, Note_on_c, 0, 43, 55
4, 70560, Note_on_c, 0, 50, 55
4, 70680, Note_on_c, 0, 50, 0
4, 70680, Note_on_c, 0, 43, 0
4, 70680, Note_on_c, 0, 50, 55
4, 70680, Note_on_c, 0, 55, 55
4, 70800, Note_on_c, 0, 55, 0
4, 70800, Note_on_c, 0, 50, 0
4, 70800, Note_on_c, 0, 50, 55
4, 70800, Note_on_c, 0, 55, 55
4, 70823, Note_on_c, 0, 55, 0
4, 70823, Note_on_c, 0, 50, 0
4, 70920, Note_on_c, 0, 43, 55
4, 70920, Note_on_c, 0, 50, 55
4, 70943, Note_on_c, 0, 50, 0
4, 70943, Note_on_c, 0, 43, 0
4, 71040, Note_on_c, 0, 43, 55
4, 71040, Note_on_c, 0, 50, 55
4, 71160, Note_on_c, 0, 50, 0
4, 71160, Note_on_c, 0, 43, 0
4, 71160, Note_on_c, 0, 50, 55
4, 71160, Note_on_c, 0, 55, 55
4, 71280, Note_on_c, 0, 55, 0
4, 71280, Note_on_c, 0, 50, 0
4, 71280, Note_on_c, 0, 43, 55
4, 71280, Note_on_c, 0, 50, 55
4, 71400, Note_on_c, 0, 50, 0
4, 71400, Note_on_c, 0, 43, 0
4, 71400, Note_on_c, 0, 50, 55
4, 71400, Note_on_c, 0, 55, 55
4, 71520, Note_on_c, 0, 55, 0
4, 71520, Note_on_c, 0, 50, 0
4, 71520, Note_on_c, 0, 50, 55
4, 71520, Note_on_c, 0, 55, 55
4, 71543, Note_on_c, 0, 55, 0
4, 71543, Note_on_c, 0, 50, 0
4, 71640, Note_on_c, 0, 43, 55
4, 71640, Note_on_c, 0, 50, 55
4, 71663, Note_on_c, 0, 50, 0
4, 71663, Note_on_c, 0, 43, 0
4, 71760, Note_on_c, 0, 43, 55
4, 71760, Note_on_c, 0, 50, 55
4, 71880, Note_on_c, 0, 50, 0
4, 71880, Note_on_c, 0, 43, 0
4, 71880, Note_on_c, 0, 50, 55
4, 71880, Note_on_c, 0, 55, 55
4, 72000, Note_on_c, 0, 55, 0
4, 72000, Note_on_c, 0, 50, 0
4, 72000, Note_on_c, 0, 43, 55
4, 72000, Note_on_c, 0, 50, 55
4, 72120, Note_on_c, 0, 50, 0
4, 72120, Note_on_c, 0, 43, 0
4, 72120, Note_on_c, 0, 50, 55
4, 72120, Note_on_c, 0, 55, 55
4, 72240, Note_on_c, 0, 55, 0
4, 72240, Note_on_c, 0, 50, 0
4, 72240, Note_on_c, 0, 50, 55
4, 72240, Note_on_c, 0, 55, 55
4, 72263, Note_on_c, 0, 55, 0
4, 72263, Note_on_c, 0, 50, 0
4, 72360, Note_on_c, 0, 43, 55
4, 72360, Note_on_c, 0, 50, 55
4, 72383, Note_on_c, 0, 50, 0
4, 72383, Note_on_c, 0, 43, 0
4, 72480, Note_on_c, 0, 43, 55
4, 72480, Note_on_c, 0, 50, 55
4, 72600, Note_on_c, 0, 50, 0
4, 72600, Note_on_c, 0, 43, 0
4, 72600, Note_on_c, 0, 50, 55
4, 72600, Note_on_c, 0, 55, 55
4, 72720, Note_on_c, 0, 55, 0
4, 72720, Note_on_c, 0, 50, 0
4, 72720, Note_on_c, 0, 43, 55
4, 72720, Note_on_c, 0, 50, 55
4, 73200, Note_on_c, 0, 50, 0
4, 73200, Note_on_c, 0, 43, 0
4, 73200, End_track
5, 0, Start_track
5, 0, Title_t, "Grand Piano"
5, 0, Program_c, 0, 0
5, 0, Control_c, 0, 7, 115
5, 0, Control_c, 0, 10, 47
5, 2880, Note_on_c, 0, 43, 49
5, 3120, Note_on_c, 0, 43, 0
5, 3240, Note_on_c, 0, 43, 49
5, 3360, Note_on_c, 0, 43, 0
5, 3360, Note_on_c, 0, 43, 49
5, 3600, Note_on_c, 0, 43, 0
5, 3600, Note_on_c, 0, 43, 49
5, 3840, Note_on_c, 0, 43, 0
5, 3960, Note_on_c, 0, 43, 49
5, 4080, Note_on_c, 0, 43, 0
5, 4080, Note_on_c, 0, 43, 49
5, 4320, Note_on_c, 0, 43, 0
5, 4320, Note_on_c, 0, 43, 49
5, 4560, Note_on_c, 0, 43, 0
5, 4680, Note_on_c, 0, 43, 49
5, 4800, Note_on_c, 0, 43, 0
5, 4800, Note_on_c, 0, 43, 49
5, 5040, Note_on_c, 0, 43, 0
5, 5040, Note_on_c, 0, 43, 49
5, 5280, Note_on_c, 0, 43, 0
5, 5400, Note_on_c, 0, 43, 49
5, 5520, Note_on_c, 0, 43, 0
5, 5520, Note_on_c, 0, 43, 49
5, 5760, Note_on_c, 0, 43, 0
5, 5760, Note_on_c, 0, 43, 49
5, 6000, Note_on_c, 0, 43, 0
5, 6120, Note_on_c, 0, 43, 49
5, 6240, Note_on_c, 0, 43, 0
5, 6240, Note_on_c, 0, 43, 49
5, 6480, Note_on_c, 0, 43, 0
5, 6480, Note_on_c, 0, 43, 49
5, 6720, Note_on_c, 0, 43, 0
5, 6840, Note_on_c, 0, 43, 49
5, 6960, Note_on_c, 0, 43, 0
5, 6960, Note_on_c, 0, 43, 49
5, 7200, Note_on_c, 0, 43, 0
5, 7200, Note_on_c, 0, 43, 49
5, 7440, Note_on_c, 0, 43, 0
5, 7560, Note_on_c, 0, 43, 49
5, 7680, Note_on_c, 0, 43, 0
5, 7680, Note_on_c, 0, 43, 49
5, 7920, Note_on_c, 0, 43, 0
5, 7920, Note_on_c, 0, 43, 49
5, 8160, Note_on_c, 0, 43, 0
5, 8280, Note_on_c, 0, 43, 49
5, 8400, Note_on_c, 0, 43, 0
5, 8400, Note_on_c, 0, 43, 49
5, 8640, Note_on_c, 0, 43, 0
5, 8640, Note_on_c, 0, 43, 49
5, 8880, Note_on_c, 0, 43, 0
5, 9000, Note_on_c, 0, 43, 49
5, 9120, Note_on_c, 0, 43, 0
5, 9120, Note_on_c, 0, 43, 49
5, 9360, Note_on_c, 0, 43, 0
5, 9360, Note_on_c, 0, 43, 49
5, 9600, Note_on_c, 0, 43, 0
5, 9720, Note_on_c, 0, 43, 49
5, 9840, Note_on_c, 0, 43, 0
5, 9840, Note_on_c, 0, 43, 49
5, 10080, Note_on_c, 0, 43, 0
5, 10080, Note_on_c, 0, 43, 49
5, 10320, Note_on_c, 0, 43, 0
5, 10440, Note_on_c, 0, 43, 49
5, 10560, Note_on_c, 0, 43, 0
5, 10560, Note_on_c, 0, 43, 49
5, 10800, Note_on_c, 0, 43, 0
5, 10800, Note_on_c, 0, 43, 62
5, 11040, Note_on_c, 0, 43, 0
5, 11160, Note_on_c, 0, 43, 62
5, 11280, Note_on_c, 0, 43, 0
5, 11280, Note_on_c, 0, 43, 62
5, 11520, Note_on_c, 0, 43, 0
5, 11520, Note_on_c, 0, 43, 62
5, 11760, Note_on_c, 0, 43, 0
5, 11880, Note_on_c, 0, 43, 62
5, 12000, Note_on_c, 0, 43, 0
5, 12000, Note_on_c, 0, 43, 62
5, 12240, Note_on_c, 0, 43, 0
5, 12240, Note_on_c, 0, 43, 62
5, 12480, Note_on_c, 0, 43, 0
5, 12600, Note_on_c, 0, 43, 62
5, 12720, Note_on_c, 0, 43, 0
5, 12720, Note_on_c, 0, 43, 62
5, 12960, Note_on_c, 0, 43, 0
5, 12960, Note_on_c, 0, 43, 49
5, 13200, Note_on_c, 0, 43, 0
5, 13320, Note_on_c, 0, 43, 49
5, 13440, Note_on_c, 0, 43, 0
5, 13440, Note_on_c, 0, 43, 49
5, 13680, Note_on_c, 0, 43, 0
5, 13680, Note_on_c, 0, 43, 49
5, 13920, Note_on_c, 0, 43, 0
5, 14040, Note_on_c, 0, 43, 49
5, 14160, Note_on_c, 0, 43, 0
5, 14160, Note_on_c, 0, 43, 49
5, 14400, Note_on_c, 0, 43, 0
5, 14400, Note_on_c, 0, 43, 49
5, 14640, Note_on_c, 0, 43, 0
5, 14760, Note_on_c, 0, 43, 49
5, 14880, Note_on_c, 0, 43, 0
5, 14880, Note_on_c, 0, 43, 49
5, 15120, Note_on_c, 0, 43, 0
5, 15120, Note_on_c, 0, 43, 49
5, 15360, Note_on_c, 0, 43, 0
5, 15480, Note_on_c, 0, 43, 49
5, 15600, Note_on_c, 0, 43, 0
5, 15600, Note_on_c, 0, 43, 49
5, 15840, Note_on_c, 0, 43, 0
5, 15840, Note_on_c, 0, 43, 49
5, 16080, Note_on_c, 0, 43, 0
5, 16200, Note_on_c, 0, 43, 49
5, 16320, Note_on_c, 0, 43, 0
5, 16320, Note_on_c, 0, 43, 49
5, 16560, Note_on_c, 0, 43, 0
5, 16560, Note_on_c, 0, 43, 49
5, 16800, Note_on_c, 0, 43, 0
5, 16920, Note_on_c, 0, 43, 49
5, 17040, Note_on_c, 0, 43, 0
5, 17040, Note_on_c, 0, 43, 49
5, 17280, Note_on_c, 0, 43, 0
5, 17280, Note_on_c, 0, 43, 49
5, 17520, Note_on_c, 0, 43, 0
5, 17640, Note_on_c, 0, 43, 49
5, 17760, Note_on_c, 0, 43, 0
5, 17760, Note_on_c, 0, 43, 49
5, 18000, Note_on_c, 0, 43, 0
5, 18000, Note_on_c, 0, 43, 49
5, 18240, Note_on_c, 0, 43, 0
5, 18360, Note_on_c, 0, 43, 49
5, 18480, Note_on_c, 0, 43, 0
5, 18480, Note_on_c, 0, 43, 49
5, 18720, Note_on_c, 0, 43, 0
5, 18720, Note_on_c, 0, 43, 49
5, 18960, Note_on_c, 0, 43, 0
5, 19080, Note_on_c, 0, 43, 49
5, 19200, Note_on_c, 0, 43, 0
5, 19200, Note_on_c, 0, 43, 49
5, 19440, Note_on_c, 0, 43, 0
5, 19440, Note_on_c, 0, 43, 49
5, 19680, Note_on_c, 0, 43, 0
5, 19800, Note_on_c, 0, 43, 49
5, 19920, Note_on_c, 0, 43, 0
5, 19920, Note_on_c, 0, 43, 49
5, 20160, Note_on_c, 0, 43, 0
5, 20160, Note_on_c, 0, 43, 49
5, 20400, Note_on_c, 0, 43, 0
5, 20520, Note_on_c, 0, 43, 49
5, 20640, Note_on_c, 0, 43, 0
5, 20640, Note_on_c, 0, 43, 49
5, 20880, Note_on_c, 0, 43, 0
5, 20880, Note_on_c, 0, 43, 49
5, 21120, Note_on_c, 0, 43, 0
5, 21240, Note_on_c, 0, 43, 49
5, 21360, Note_on_c, 0, 43, 0
5, 21360, Note_on_c, 0, 43, 49
5, 21600, Note_on_c, 0, 43, 0
5, 21600, Note_on_c, 0, 43, 49
5, 21840, Note_on_c, 0, 43, 0
5, 21960, Note_on_c, 0, 43, 49
5, 22080, Note_on_c, 0, 43, 0
5, 22080, Note_on_c, 0, 43, 49
5, 22320, Note_on_c, 0, 43, 0
5, 22320, Note_on_c, 0, 43, 49
5, 22560, Note_on_c, 0, 43, 0
5, 22680, Note_on_c, 0, 43, 49
5, 22800, Note_on_c, 0, 43, 0
5, 22800, Note_on_c, 0, 43, 49
5, 23040, Note_on_c, 0, 43, 0
5, 23040, Note_on_c, 0, 43, 49
5, 23280, Note_on_c, 0, 43, 0
5, 23400, Note_on_c, 0, 43, 49
5, 23520, Note_on_c, 0, 43, 0
5, 23520, Note_on_c, 0, 43, 49
5, 23760, Note_on_c, 0, 43, 0
5, 23760, Note_on_c, 0, 43, 49
5, 24000, Note_on_c, 0, 43, 0
5, 24120, Note_on_c, 0, 43, 49
5, 24240, Note_on_c, 0, 43, 0
5, 24240, Note_on_c, 0, 43, 49
5, 24480, Note_on_c, 0, 43, 0
5, 24480, Note_on_c, 0, 43, 49
5, 24720, Note_on_c, 0, 43, 0
5, 24840, Note_on_c, 0, 43, 49
5, 24960, Note_on_c, 0, 43, 0
5, 24960, Note_on_c, 0, 43, 49
5, 25200, Note_on_c, 0, 43, 0
5, 25200, Note_on_c, 0, 43, 49
5, 25440, Note_on_c, 0, 43, 0
5, 25560, Note_on_c, 0, 43, 49
5, 25680, Note_on_c, 0, 43, 0
5, 25680, Note_on_c, 0, 43, 49
5, 25920, Note_on_c, 0, 43, 0
5, 25920, Note_on_c, 0, 43, 49
5, 26160, Note_on_c, 0, 43, 0
5, 26280, Note_on_c, 0, 43, 49
5, 26400, Note_on_c, 0, 43, 0
5, 26400, Note_on_c, 0, 43, 49
5, 26640, Note_on_c, 0, 43, 0
5, 26640, Note_on_c, 0, 43, 49
5, 26880, Note_on_c, 0, 43, 0
5, 27000, Note_on_c, 0, 43, 49
5, 27120, Note_on_c, 0, 43, 0
5, 27120, Note_on_c, 0, 43, 49
5, 27360, Note_on_c, 0, 43, 0
5, 27360, Note_on_c, 0, 43, 49
5, 27600, Note_on_c, 0, 43, 0
5, 27720, Note_on_c, 0, 43, 49
5, 27840, Note_on_c, 0, 43, 0
5, 27840, Note_on_c, 0, 43, 49
5, 28080, Note_on_c, 0, 43, 0
5, 28080, Note_on_c, 0, 43, 49
5, 28320, Note_on_c, 0, 43, 0
5, 28440, Note_on_c, 0, 43, 49
5, 28560, Note_on_c, 0, 43, 0
5, 28560, Note_on_c, 0, 43, 49
5, 28800, Note_on_c, 0, 43, 0
5, 28800, Note_on_c, 0, 43, 49
5, 29040, Note_on_c, 0, 43, 0
5, 29160, Note_on_c, 0, 43, 49
5, 29280, Note_on_c, 0, 43, 0
5, 29280, Note_on_c, 0, 43, 49
5, 29520, Note_on_c, 0, 43, 0
5, 29520, Note_on_c, 0, 43, 49
5, 29760, Note_on_c, 0, 43, 0
5, 29880, Note_on_c, 0, 43, 49
5, 30000, Note_on_c, 0, 43, 0
5, 30000, Note_on_c, 0, 43, 49
5, 30240, Note_on_c, 0, 43, 0
5, 30240, Note_on_c, 0, 43, 62
5, 30480, Note_on_c, 0, 43, 0
5, 30600, Note_on_c, 0, 43, 62
5, 30720, Note_on_c, 0, 43, 0
5, 30720, Note_on_c, 0, 43, 62
5, 30960, Note_on_c, 0, 43, 0
5, 30960, Note_on_c, 0, 43, 62
5, 31200, Note_on_c, 0, 43, 0
5, 31320, Note_on_c, 0, 43, 62
5, 31440, Note_on_c, 0, 43, 0
5, 31440, Note_on_c, 0, 43, 62
5, 31680, Note_on_c, 0, 43, 0
5, 31680, Note_on_c, 0, 43, 62
5, 31800, Note_on_c, 0, 43, 0
5, 31800, Note_on_c, 0, 50, 62
5, 31920, Note_on_c, 0, 50, 0
5, 31920, Note_on_c, 0, 50, 62
5, 31943, Note_on_c, 0, 50, 0
5, 32040, Note_on_c, 0, 43, 62
5, 32063, Note_on_c, 0, 43, 0
5, 32160, Note_on_c, 0, 43, 62
5, 32280, Note_on_c, 0, 43, 0
5, 32280, Note_on_c, 0, 50, 62
5, 32400, Note_on_c, 0, 50, 0
5, 32400, Note_on_c, 0, 43, 62
5, 32520, Note_on_c, 0, 43, 0
5, 32520, Note_on_c, 0, 50, 62
5, 32640, Note_on_c, 0, 50, 0
5, 32640, Note_on_c, 0, 50, 62
5, 32663, Note_on_c, 0, 50, 0
5, 32760, Note_on_c, 0, 43, 62
5, 32783, Note_on_c, 0, 43, 0
5, 32880, Note_on_c, 0, 43, 62
5, 33000, Note_on_c, 0, 43, 0
5, 33000, Note_on_c, 0, 50, 62
5, 33120, Note_on_c, 0, 50, 0
5, 33120, Note_on_c, 0, 43, 62
5, 33120, Note_on_c, 0, 50, 62
5, 33240, Note_on_c, 0, 50, 0
5, 33240, Note_on_c, 0, 43, 0
5, 33240, Note_on_c, 0, 55, 62
5, 33360, Note_on_c, 0, 55, 0
5, 33360, Note_on_c, 0, 55, 62
5, 33383, Note_on_c, 0, 55, 0
5, 33480, Note_on_c, 0, 43, 62
5, 33480, Note_on_c, 0, 50, 62
5, 33503, Note_on_c, 0, 50, 0
5, 33503, Note_on_c, 0, 43, 0
5, 33600, Note_on_c, 0, 43, 62
5, 33600, Note_on_c, 0, 50, 62
5, 33720, Note_on_c, 0, 50, 0
5, 33720, Note_on_c, 0, 43, 0
5, 33720, Note_on_c, 0, 55, 62
5, 33840, Note_on_c, 0, 55, 0
5, 33840, Note_on_c, 0, 43, 62
5, 33840, Note_on_c, 0, 50, 62
5, 33960, Note_on_c, 0, 50, 0
5, 33960, Note_on_c, 0, 43, 0
5, 33960, Note_on_c, 0, 55, 62
5, 34080, Note_on_c, 0, 55, 0
5, 34080, Note_on_c, 0, 55, 62
5, 34103, Note_on_c, 0, 55, 0
5, 34200, Note_on_c, 0, 43, 62
5, 34200, Note_on_c, 0, 50, 62
5, 34223, Note_on_c, 0, 50, 0
5, 34223, Note_on_c, 0, 43, 0
5, 34320, Note_on_c, 0, 43, 62
5, 34320, Note_on_c, 0, 50, 62
5, 34440, Note_on_c, 0, 50, 0
5, 34440, Note_on_c, 0, 43, 0
5, 34440, Note_on_c, 0, 55, 62
5, 34560, Note_on_c, 0, 55, 0
5, 34560, Note_on_c, 0, 43, 62
5, 34560, Note_on_c, 0, 50, 62
5, 34680, Note_on_c, 0, 50, 0
5, 34680, Note_on_c, 0, 43, 0
5, 34680, Note_on_c, 0, 55, 62
5, 34800, Note_on_c, 0, 55, 0
5, 34800, Note_on_c, 0, 55, 62
5, 34823, Note_on_c, 0, 55, 0
5, 34920, Note_on_c, 0, 43, 62
5, 34920, Note_on_c, 0, 50, 62
5, 34943, Note_on_c, 0, 50, 0
5, 34943, Note_on_c, 0, 43, 0
5, 35040, Note_on_c, 0, 43, 62
5, 35040, Note_on_c, 0, 50, 62
5, 35160, Note_on_c, 0, 50, 0
5, 35160, Note_on_c, 0, 43, 0
5, 35160, Note_on_c, 0, 55, 62
5, 35280, Note_on_c, 0, 55, 0
5, 35280, Note_on_c, 0, 43, 49
5, 35280, Note_on_c, 0, 50, 49
5, 35400, Note_on_c, 0, 50, 0
5, 35400, Note_on_c, 0, 43, 0
5, 35400, Note_on_c, 0, 55, 49
5, 35520, Note_on_c, 0, 55, 0
5, 35520, Note_on_c, 0, 55, 49
5, 35543, Note_on_c, 0, 55, 0
5, 35640, Note_on_c, 0, 43, 49
5, 35640, Note_on_c, 0, 50, 49
5, 35663, Note_on_c, 0, 50, 0
5, 35663, Note_on_c, 0, 43, 0
5, 35760, Note_on_c, 0, 43, 49
5, 35760, Note_on_c, 0, 50, 49
5, 35880, Note_on_c, 0, 50, 0
5, 35880, Note_on_c, 0, 43, 0
5, 35880, Note_on_c, 0, 55, 49
5, 36000, Note_on_c, 0, 55, 0
5, 36000, Note_on_c, 0, 43, 49
5, 36120, Note_on_c, 0, 43, 0
5, 36120, Note_on_c, 0, 50, 49
5, 36240, Note_on_c, 0, 50, 0
5, 36240, Note_on_c, 0, 50, 49
5, 36263, Note_on_c, 0, 50, 0
5, 36360, Note_on_c, 0, 43, 49
5, 36383, Note_on_c, 0, 43, 0
5, 36480, Note_on_c, 0, 43, 49
5, 36600, Note_on_c, 0, 43, 0
5, 36600, Note_on_c, 0, 50, 49
5, 36720, Note_on_c, 0, 50, 0
5, 36720, Note_on_c, 0, 43, 49
5, 36840, Note_on_c, 0, 43, 0
5, 36840, Note_on_c, 0, 50, 49
5, 36960, Note_on_c, 0, 50, 0
5, 36960, Note_on_c, 0, 50, 49
5, 36983, Note_on_c, 0, 50, 0
5, 37080, Note_on_c, 0, 43, 49
5, 37103, Note_on_c, 0, 43, 0
5, 37200, Note_on_c, 0, 43, 49
5, 37320, Note_on_c, 0, 43, 0
5, 37320, Note_on_c, 0, 50, 49
5, 37440, Note_on_c, 0, 50, 0
5, 37440, Note_on_c, 0, 43, 62
5, 37560, Note_on_c, 0, 43, 0
5, 37560, Note_on_c, 0, 50, 62
5, 37680, Note_on_c, 0, 50, 0
5, 37680, Note_on_c, 0, 50, 62
5, 37703, Note_on_c, 0, 50, 0
5, 37800, Note_on_c, 0, 43, 62
5, 37823, Note_on_c, 0, 43, 0
5, 37920, Note_on_c, 0, 43, 62
5, 38040, Note_on_c, 0, 43, 0
5, 38040, Note_on_c, 0, 50, 62
5, 38160, Note_on_c, 0, 50, 0
5, 38160, Note_on_c, 0, 43, 62
5, 38280, Note_on_c, 0, 43, 0
5, 38280, Note_on_c, 0, 50, 62
5, 38400, Note_on_c, 0, 50, 0
5, 38400, Note_on_c, 0, 50, 62
5, 38423, Note_on_c, 0, 50, 0
5, 38520, Note_on_c, 0, 43, 62
5, 38543, Note_on_c, 0, 43, 0
5, 38640, Note_on_c, 0, 43, 62
5, 38760, Note_on_c, 0, 43, 0
5, 38760, Note_on_c, 0, 50, 62
5, 38880, Note_on_c, 0, 50, 0
5, 38880, Note_on_c, 0, 43, 62
5, 39000, Note_on_c, 0, 43, 0
5, 39000, Note_on_c, 0, 50, 62
5, 39120, Note_on_c, 0, 50, 0
5, 39120, Note_on_c, 0, 50, 62
5, 39143, Note_on_c, 0, 50, 0
5, 39240, Note_on_c, 0, 43, 62
5, 39263, Note_on_c, 0, 43, 0
5, 39360, Note_on_c, 0, 43, 62
5, 39480, Note_on_c, 0, 43, 0
5, 39480, Note_on_c, 0, 50, 62
5, 39600, Note_on_c, 0, 50, 0
5, 39600, Note_on_c, 0, 43, 49
5, 39720, Note_on_c, 0, 43, 0
5, 39720, Note_on_c, 0, 50, 49
5, 39840, Note_on_c, 0, 50, 0
5, 39840, Note_on_c, 0, 50, 49
5, 39863, Note_on_c, 0, 50, 0
5, 39960, Note_on_c, 0, 43, 49
5, 39983, Note_on_c, 0, 43, 0
5, 40080, Note_on_c, 0, 43, 49
5, 40200, Note_on_c, 0, 43, 0
5, 40200, Note_on_c, 0, 50, 49
5, 40320, Note_on_c, 0, 50, 0
5, 40320, Note_on_c, 0, 43, 49
5, 40440, Note_on_c, 0, 43, 0
5, 40440, Note_on_c, 0, 50, 49
5, 40560, Note_on_c, 0, 50, 0
5, 40560, Note_on_c, 0, 50, 49
5, 40583, Note_on_c, 0, 50, 0
5, 40680, Note_on_c, 0, 43, 49
5, 40703, Note_on_c, 0, 43, 0
5, 40800, Note_on_c, 0, 43, 49
5, 40920, Note_on_c, 0, 43, 0
5, 40920, Note_on_c, 0, 50, 49
5, 41040, Note_on_c, 0, 50, 0
5, 41040, Note_on_c, 0, 43, 49
5, 41160, Note_on_c, 0, 43, 0
5, 41160, Note_on_c, 0, 50, 49
5, 41280, Note_on_c, 0, 50, 0
5, 41280, Note_on_c, 0, 50, 49
5, 41303, Note_on_c, 0, 50, 0
5, 41400, Note_on_c, 0, 43, 49
5, 41423, Note_on_c, 0, 43, 0
5, 41520, Note_on_c, 0, 43, 49
5, 41640, Note_on_c, 0, 43, 0
5, 41640, Note_on_c, 0, 50, 49
5, 41760, Note_on_c, 0, 50, 0
5, 41760, Note_on_c, 0, 43, 49
5, 41880, Note_on_c, 0, 43, 0
5, 41880, Note_on_c, 0, 50, 49
5, 42000, Note_on_c, 0, 50, 0
5, 42000, Note_on_c, 0, 50, 49
5, 42023, Note_on_c, 0, 50, 0
5, 42120, Note_on_c, 0, 43, 49
5, 42143, Note_on_c, 0, 43, 0
5, 42240, Note_on_c, 0, 43, 49
5, 42360, Note_on_c, 0, 43, 0
5, 42360, Note_on_c, 0, 50, 49
5, 42480, Note_on_c, 0, 50, 0
5, 42480, Note_on_c, 0, 43, 49
5, 42600, Note_on_c, 0, 43, 0
5, 42600, Note_on_c, 0, 50, 49
5, 42720, Note_on_c, 0, 50, 0
5, 42720, Note_on_c, 0, 50, 49
5, 42743, Note_on_c, 0, 50, 0
5, 42840, Note_on_c, 0, 43, 49
5, 42863, Note_on_c, 0, 43, 0
5, 42960, Note_on_c, 0, 43, 49
5, 43080, Note_on_c, 0, 43, 0
5, 43080, Note_on_c, 0, 50, 49
5, 43200, Note_on_c, 0, 50, 0
5, 43200, Note_on_c, 0, 31, 49
5, 43200, Note_on_c, 0, 38, 49
5, 44640, Note_on_c, 0, 38, 0
5, 44640, Note_on_c, 0, 31, 0
5, 44640, Note_on_c, 0, 31, 49
5, 44640, Note_on_c, 0, 38, 49
5, 46080, Note_on_c, 0, 38, 0
5, 46080, Note_on_c, 0, 31, 0
5, 46080, Note_on_c, 0, 31, 49
5, 46080, Note_on_c, 0, 38, 49
5, 47520, Note_on_c, 0, 38, 0
5, 47520, Note_on_c, 0, 31, 0
5, 47520, Note_on_c, 0, 31, 49
5, 47520, Note_on_c, 0, 38, 49
5, 48960, Note_on_c, 0, 38, 0
5, 48960, Note_on_c, 0, 31, 0
5, 48960, Note_on_c, 0, 31, 49
5, 48960, Note_on_c, 0, 38, 49
5, 50400, Note_on_c, 0, 38, 0
5, 50400, Note_on_c, 0, 31, 0
5, 50400, Note_on_c, 0, 31, 49
5, 50400, Note_on_c, 0, 38, 49
5, 51840, Note_on_c, 0, 38, 0
5, 51840, Note_on_c, 0, 31, 0
5, 51840, Note_on_c, 0, 31, 49
5, 51840, Note_on_c, 0, 38, 49
5, 53280, Note_on_c, 0, 38, 0
5, 53280, Note_on_c, 0, 31, 0
5, 53280, Note_on_c, 0, 31, 49
5, 53280, Note_on_c, 0, 38, 49
5, 54720, Note_on_c, 0, 38, 0
5, 54720, Note_on_c, 0, 31, 0
5, 54720, Note_on_c, 0, 31, 49
5, 54720, Note_on_c, 0, 38, 49
5, 56160, Note_on_c, 0, 38, 0
5, 56160, Note_on_c, 0, 31, 0
5, 56160, Note_on_c, 0, 31, 49
5, 56160, Note_on_c, 0, 38, 49
5, 57600, Note_on_c, 0, 38, 0
5, 57600, Note_on_c, 0, 31, 0
5, 57600, Note_on_c, 0, 31, 49
5, 57600, Note_on_c, 0, 38, 49
5, 59040, Note_on_c, 0, 38, 0
5, 59040, Note_on_c, 0, 31, 0
5, 59040, Note_on_c, 0, 31, 49
5, 59040, Note_on_c, 0, 38, 49
5, 60480, Note_on_c, 0, 38, 0
5, 60480, Note_on_c, 0, 31, 0
5, 60480, Note_on_c, 0, 31, 49
5, 60600, Note_on_c, 0, 31, 0
5, 60600, Note_on_c, 0, 38, 49
5, 60720, Note_on_c, 0, 38, 0
5, 60720, Note_on_c, 0, 38, 49
5, 60743, Note_on_c, 0, 38, 0
5, 60840, Note_on_c, 0, 31, 49
5, 60863, Note_on_c, 0, 31, 0
5, 60960, Note_on_c, 0, 31, 49
5, 61080, Note_on_c, 0, 31, 0
5, 61080, Note_on_c, 0, 38, 49
5, 61200, Note_on_c, 0, 38, 0
5, 61200, Note_on_c, 0, 31, 49
5, 61320, Note_on_c, 0, 31, 0
5, 61320, Note_on_c, 0, 38, 49
5, 61440, Note_on_c, 0, 38, 0
5, 61440, Note_on_c, 0, 38, 49
5, 61463, Note_on_c, 0, 38, 0
5, 61560, Note_on_c, 0, 31, 49
5, 61583, Note_on_c, 0, 31, 0
5, 61680, Note_on_c, 0, 31, 49
5, 61800, Note_on_c, 0, 31, 0
5, 61800, Note_on_c, 0, 38, 49
5, 61920, Note_on_c, 0, 38, 0
5, 61920, Note_on_c, 0, 31, 49
5, 62040, Note_on_c, 0, 31, 0
5, 62040, Note_on_c, 0, 38, 49
5, 62160, Note_on_c, 0, 38, 0
5, 62160, Note_on_c, 0, 38, 49
5, 62183, Note_on_c, 0, 38, 0
5, 62280, Note_on_c, 0, 31, 49
5, 62303, Note_on_c, 0, 31, 0
5, 62400, Note_on_c, 0, 31, 49
5, 62520, Note_on_c, 0, 31, 0
5, 62520, Note_on_c, 0, 38, 49
5, 62640, Note_on_c, 0, 38, 0
5, 62640, Note_on_c, 0, 31, 49
5, 62640, Note_on_c, 0, 38, 49
5, 64080, Note_on_c, 0, 38, 0
5, 64080, Note_on_c, 0, 31, 0
5, 64080, Note_on_c, 0, 31, 49
5, 64200, Note_on_c, 0, 31, 0
5, 64200, Note_on_c, 0, 38, 49
5, 64320, Note_on_c, 0, 38, 0
5, 64320, Note_on_c, 0, 38, 49
5, 64343, Note_on_c, 0, 38, 0
5, 64440, Note_on_c, 0, 31, 49
5, 64463, Note_on_c, 0, 31, 0
5, 64560, Note_on_c, 0, 31, 49
5, 64680, Note_on_c, 0, 31, 0
5, 64680, Note_on_c, 0, 38, 49
5, 64800, Note_on_c, 0, 38, 0
5, 64800, Note_on_c, 0, 31, 49
5, 64920, Note_on_c, 0, 31, 0
5, 64920, Note_on_c, 0, 38, 49
5, 65040, Note_on_c, 0, 38, 0
5, 65040, Note_on_c, 0, 38, 49
5, 65063, Note_on_c, 0, 38, 0
5, 65160, Note_on_c, 0, 31, 49
5, 65183, Note_on_c, 0, 31, 0
5, 65280, Note_on_c, 0, 31, 49
5, 65400, Note_on_c, 0, 31, 0
5, 65400, Note_on_c, 0, 38, 49
5, 65520, Note_on_c, 0, 38, 0
5, 65520, Note_on_c, 0, 31, 49
5, 65520, Note_on_c, 0, 38, 49
5, 66960, Note_on_c, 0, 38, 0
5, 66960, Note_on_c, 0, 31, 0
5, 66960, Note_on_c, 0, 31, 49
5, 67080, Note_on_c, 0, 31, 0
5, 67080, Note_on_c, 0, 38, 49
5, 67200, Note_on_c, 0, 38, 0
5, 67200, Note_on_c, 0, 38, 49
5, 67223, Note_on_c, 0, 38, 0
5, 67320, Note_on_c, 0, 31, 49
5, 67343, Note_on_c, 0, 31, 0
5, 67440, Note_on_c, 0, 31, 49
5, 67560, Note_on_c, 0, 31, 0
5, 67560, Note_on_c, 0, 38, 49
5, 67680, Note_on_c, 0, 38, 0
5, 67680, Note_on_c, 0, 31, 49
5, 67680, Note_on_c, 0, 38, 49
5, 68400, Note_on_c, 0, 38, 0
5, 68400, Note_on_c, 0, 31, 0
5, 68400, Note_on_c, 0, 31, 49
5, 68520, Note_on_c, 0, 31, 0
5, 68520, Note_on_c, 0, 38, 49
5, 68640, Note_on_c, 0, 38, 0
5, 68640, Note_on_c, 0, 38, 49
5, 68663, Note_on_c, 0, 38, 0
5, 68760, Note_on_c, 0, 31, 49
5, 68783, Note_on_c, 0, 31, 0
5, 68880, Note_on_c, 0, 31, 49
5, 69000, Note_on_c, 0, 31, 0
5, 69000, Note_on_c, 0, 38, 49
5, 69120, Note_on_c, 0, 38, 0
5, 69120, Note_on_c, 0, 31, 49
5, 69120, Note_on_c, 0, 38, 49
5, 70560, Note_on_c, 0, 38, 0
5, 70560, Note_on_c, 0, 31, 0
5, 70560, Note_on_c, 0, 31, 49
5, 70560, Note_on_c, 0, 38, 49
5, 72000, Note_on_c, 0, 38, 0
5, 72000, Note_on_c, 0, 31, 0
5, 72000, Note_on_c, 0, 31, 49
5, 72000, Note_on_c, 0, 38, 49
5, 73440, Note_on_c, 0, 38, 0
5, 73440, Note_on_c, 0, 31, 0
5, 73440, End_track
0, 0, End_of_file
