0, 0, Header, 1, 5, 480
1, 0, Start_track
1, 0, Title_t, "tchaikovsky nutcracker act2 14 pas des deus"
1, 0, Copyright_t, "Adaptation for Disklavier pianos, by: Robert C. Kuhmann (c) 2012."
1, 0, Text_t, "Seq. (c) by: Segundo G. Yogore, 2007\012"
1, 0, Time_signature, 4, 2, 24, 8
1, 0, Key_signature, 1, "major"
1, 0, Tempo, 869565
1, 3840, Tempo, 869565
1, 46080, Tempo, 833333
1, 48000, Tempo, 789474
1, 72960, Tempo, 697674
1, 78960, Tempo, 722892
1, 79200, Tempo, 750000
1, 79440, Tempo, 779221
1, 79680, Tempo, 821918
1, 79920, Tempo, 857143
1, 80160, Tempo, 895522
1, 80400, Tempo, 937500
1, 80640, Tempo, 1000000
1, 86400, Tempo, 869565
1, 96000, Tempo, 833333
1, 103680, Tempo, 869565
1, 140160, Time_signature, 8, 2, 24, 8
1, 140160, End_track
2, 0, Start_track
2, 0, Title_t, "Grand Piano"
2, 0, Program_c, 0, 0
2, 0, Control_c, 0, 7, 115
2, 0, Control_c, 0, 10, 86
2, 80, Control_c, 0, 64, 127
2, 80, Note_on_c, 0, 55, 88
2, 159, Note_on_c, 0, 55, 0
2, 159, Note_on_c, 0, 59, 88
2, 240, Note_on_c, 0, 59, 0
2, 240, Note_on_c, 0, 62, 88
2, 320, Note_on_c, 0, 62, 0
2, 320, Note_on_c, 0, 67, 88
2, 399, Note_on_c, 0, 67, 0
2, 399, Note_on_c, 0, 71, 88
2, 480, Note_on_c, 0, 71, 0
2, 480, Note_on_c, 0, 74, 88
2, 560, Note_on_c, 0, 74, 0
2, 560, Note_on_c, 0, 71, 88
2, 639, Note_on_c, 0, 71, 0
2, 639, Note_on_c, 0, 67, 88
2, 720, Note_on_c, 0, 67, 0
2, 720, Note_on_c, 0, 62, 88
2, 800, Note_on_c, 0, 62, 0
2, 800, Note_on_c, 0, 59, 88
2, 879, Note_on_c, 0, 59, 0
2, 879, Control_c, 0, 64, 0
2, 879, Note_on_c, 0, 55, 88
2, 960, Note_on_c, 0, 55, 0
2, 1040, Control_c, 0, 64, 127
2, 1040, Note_on_c, 0, 55, 88
2, 1119, Note_on_c, 0, 55, 0
2, 1119, Note_on_c, 0, 59, 88
2, 1200, Note_on_c, 0, 59, 0
2, 1200, Note_on_c, 0, 64, 88
2, 1280, Note_on_c, 0, 64, 0
2, 1280, Note_on_c, 0, 67, 88
2, 1359, Note_on_c, 0, 67, 0
2, 1359, Note_on_c, 0, 71, 88
2, 1440, Note_on_c, 0, 71, 0
2, 1440, Note_on_c, 0, 76, 88
2, 1520, Note_on_c, 0, 76, 0
2, 1520, Note_on_c, 0, 71, 88
2, 1599, Note_on_c, 0, 71, 0
2, 1599, Note_on_c, 0, 67, 88
2, 1680, Note_on_c, 0, 67, 0
2, 1680, Note_on_c, 0, 64, 88
2, 1760, Note_on_c, 0, 64, 0
2, 1760, Note_on_c, 0, 59, 88
2, 1839, Note_on_c, 0, 59, 0
2, 1839, Control_c, 0, 64, 0
2, 1839, Note_on_c, 0, 55, 88
2, 1920, Note_on_c, 0, 55, 0
2, 2000, Control_c, 0, 64, 127
2, 2000, Note_on_c, 0, 57, 88
2, 2079, Note_on_c, 0, 57, 0
2, 2079, Note_on_c, 0, 60, 88
2, 2160, Note_on_c, 0, 60, 0
2, 2160, Note_on_c, 0, 64, 88
2, 2240, Note_on_c, 0, 64, 0
2, 2240, Note_on_c, 0, 69, 88
2, 2319, Note_on_c, 0, 69, 0
2, 2319, Note_on_c, 0, 72, 88
2, 2400, Note_on_c, 0, 72, 0
2, 2400, Note_on_c, 0, 76, 88
2, 2480, Note_on_c, 0, 76, 0
2, 2480, Note_on_c, 0, 72, 88
2, 2559, Note_on_c, 0, 72, 0
2, 2559, Note_on_c, 0, 69, 88
2, 2640, Note_on_c, 0, 69, 0
2, 2640, Note_on_c, 0, 64, 88
2, 2720, Note_on_c, 0, 64, 0
2, 2720, Note_on_c, 0, 60, 88
2, 2799, Note_on_c, 0, 60, 0
2, 2799, Control_c, 0, 64, 0
2, 2799, Note_on_c, 0, 57, 88
2, 2880, Note_on_c, 0, 57, 0
2, 2960, Control_c, 0, 64, 127
2, 2960, Note_on_c, 0, 54, 88
2, 3039, Note_on_c, 0, 54, 0
2, 3039, Note_on_c, 0, 57, 88
2, 3120, Note_on_c, 0, 57, 0
2, 3120, Note_on_c, 0, 62, 88
2, 3200, Note_on_c, 0, 62, 0
2, 3200, Note_on_c, 0, 66, 88
2, 3279, Note_on_c, 0, 66, 0
2, 3279, Note_on_c, 0, 69, 88
2, 3360, Note_on_c, 0, 69, 0
2, 3360, Note_on_c, 0, 74, 88
2, 3440, Note_on_c, 0, 74, 0
2, 3440, Note_on_c, 0, 69, 88
2, 3519, Note_on_c, 0, 69, 0
2, 3519, Note_on_c, 0, 66, 88
2, 3600, Note_on_c, 0, 66, 0
2, 3600, Note_on_c, 0, 62, 88
2, 3680, Note_on_c, 0, 62, 0
2, 3680, Note_on_c, 0, 57, 88
2, 3759, Note_on_c, 0, 57, 0
2, 3759, Control_c, 0, 64, 0
2, 3759, Note_on_c, 0, 54, 88
2, 3840, Note_on_c, 0, 54, 0
2, 3920, Control_c, 0, 64, 127
2, 3920, Note_on_c, 0, 55, 88
2, 3999, Note_on_c, 0, 55, 0
2, 3999, Note_on_c, 0, 59, 88
2, 4080, Note_on_c, 0, 59, 0
2, 4080, Note_on_c, 0, 62, 88
2, 4160, Note_on_c, 0, 62, 0
2, 4160, Note_on_c, 0, 67, 88
2, 4239, Note_on_c, 0, 67, 0
2, 4239, Note_on_c, 0, 71, 88
2, 4320, Note_on_c, 0, 71, 0
2, 4320, Note_on_c, 0, 74, 88
2, 4400, Note_on_c, 0, 74, 0
2, 4400, Note_on_c, 0, 71, 88
2, 4479, Note_on_c, 0, 71, 0
2, 4479, Note_on_c, 0, 67, 88
2, 4560, Note_on_c, 0, 67, 0
2, 4560, Note_on_c, 0, 62, 88
2, 4640, Note_on_c, 0, 62, 0
2, 4640, Note_on_c, 0, 59, 88
2, 4719, Note_on_c, 0, 59, 0
2, 4719, Control_c, 0, 64, 0
2, 4719, Note_on_c, 0, 55, 88
2, 4800, Note_on_c, 0, 55, 0
2, 4880, Control_c, 0, 64, 127
2, 4880, Note_on_c, 0, 55, 88
2, 4959, Note_on_c, 0, 55, 0
2, 4959, Note_on_c, 0, 59, 88
2, 5040, Note_on_c, 0, 59, 0
2, 5040, Note_on_c, 0, 64, 88
2, 5120, Note_on_c, 0, 64, 0
2, 5120, Note_on_c, 0, 67, 88
2, 5199, Note_on_c, 0, 67, 0
2, 5199, Note_on_c, 0, 71, 88
2, 5280, Note_on_c, 0, 71, 0
2, 5280, Note_on_c, 0, 76, 88
2, 5360, Note_on_c, 0, 76, 0
2, 5360, Note_on_c, 0, 71, 88
2, 5439, Note_on_c, 0, 71, 0
2, 5439, Note_on_c, 0, 67, 88
2, 5520, Note_on_c, 0, 67, 0
2, 5520, Note_on_c, 0, 64, 88
2, 5600, Note_on_c, 0, 64, 0
2, 5600, Note_on_c, 0, 59, 88
2, 5679, Note_on_c, 0, 59, 0
2, 5679, Control_c, 0, 64, 0
2, 5679, Note_on_c, 0, 55, 88
2, 5760, Note_on_c, 0, 55, 0
2, 5840, Control_c, 0, 64, 127
2, 5840, Note_on_c, 0, 57, 75
2, 5919, Note_on_c, 0, 57, 0
2, 5919, Note_on_c, 0, 60, 75
2, 6000, Note_on_c, 0, 60, 0
2, 6000, Note_on_c, 0, 64, 75
2, 6080, Note_on_c, 0, 64, 0
2, 6080, Note_on_c, 0, 69, 75
2, 6159, Note_on_c, 0, 69, 0
2, 6159, Note_on_c, 0, 72, 75
2, 6240, Note_on_c, 0, 72, 0
2, 6240, Note_on_c, 0, 76, 75
2, 6320, Note_on_c, 0, 76, 0
2, 6320, Note_on_c, 0, 72, 75
2, 6399, Note_on_c, 0, 72, 0
2, 6399, Note_on_c, 0, 69, 75
2, 6480, Note_on_c, 0, 69, 0
2, 6480, Note_on_c, 0, 64, 75
2, 6560, Note_on_c, 0, 64, 0
2, 6560, Note_on_c, 0, 60, 75
2, 6639, Note_on_c, 0, 60, 0
2, 6639, Control_c, 0, 64, 0
2, 6639, Note_on_c, 0, 57, 75
2, 6720, Note_on_c, 0, 57, 0
2, 6800, Control_c, 0, 64, 127
2, 6800, Note_on_c, 0, 54, 62
2, 6879, Note_on_c, 0, 54, 0
2, 6879, Note_on_c, 0, 57, 62
2, 6960, Note_on_c, 0, 57, 0
2, 6960, Note_on_c, 0, 62, 62
2, 7040, Note_on_c, 0, 62, 0
2, 7040, Note_on_c, 0, 66, 62
2, 7119, Note_on_c, 0, 66, 0
2, 7119, Note_on_c, 0, 69, 62
2, 7200, Note_on_c, 0, 69, 0
2, 7200, Note_on_c, 0, 74, 62
2, 7280, Note_on_c, 0, 74, 0
2, 7280, Note_on_c, 0, 69, 62
2, 7359, Note_on_c, 0, 69, 0
2, 7359, Note_on_c, 0, 66, 62
2, 7440, Note_on_c, 0, 66, 0
2, 7440, Note_on_c, 0, 62, 62
2, 7520, Note_on_c, 0, 62, 0
2, 7520, Note_on_c, 0, 66, 62
2, 7599, Note_on_c, 0, 66, 0
2, 7599, Control_c, 0, 64, 0
2, 7599, Note_on_c, 0, 62, 62
2, 7680, Note_on_c, 0, 62, 0
2, 7760, Control_c, 0, 64, 127
2, 7760, Note_on_c, 0, 59, 75
2, 7839, Note_on_c, 0, 59, 0
2, 7839, Note_on_c, 0, 62, 75
2, 7920, Note_on_c, 0, 62, 0
2, 7920, Note_on_c, 0, 67, 75
2, 8000, Note_on_c, 0, 67, 0
2, 8000, Note_on_c, 0, 62, 75
2, 8079, Note_on_c, 0, 62, 0
2, 8079, Note_on_c, 0, 71, 75
2, 8160, Note_on_c, 0, 71, 0
2, 8160, Note_on_c, 0, 74, 75
2, 8240, Note_on_c, 0, 74, 0
2, 8240, Note_on_c, 0, 71, 75
2, 8319, Note_on_c, 0, 71, 0
2, 8319, Note_on_c, 0, 67, 75
2, 8400, Note_on_c, 0, 67, 0
2, 8400, Note_on_c, 0, 62, 75
2, 8480, Note_on_c, 0, 62, 0
2, 8480, Note_on_c, 0, 59, 75
2, 8559, Note_on_c, 0, 59, 0
2, 8559, Control_c, 0, 64, 0
2, 8559, Note_on_c, 0, 55, 75
2, 8640, Note_on_c, 0, 55, 0
2, 8720, Control_c, 0, 64, 127
2, 8720, Note_on_c, 0, 54, 75
2, 8799, Note_on_c, 0, 54, 0
2, 8799, Note_on_c, 0, 57, 75
2, 8880, Note_on_c, 0, 57, 0
2, 8880, Note_on_c, 0, 62, 75
2, 8960, Note_on_c, 0, 62, 0
2, 8960, Note_on_c, 0, 66, 75
2, 9039, Note_on_c, 0, 66, 0
2, 9039, Note_on_c, 0, 69, 75
2, 9120, Note_on_c, 0, 69, 0
2, 9120, Note_on_c, 0, 74, 62
2, 9200, Note_on_c, 0, 74, 0
2, 9200, Note_on_c, 0, 69, 62
2, 9279, Note_on_c, 0, 69, 0
2, 9279, Note_on_c, 0, 66, 62
2, 9360, Note_on_c, 0, 66, 0
2, 9360, Note_on_c, 0, 62, 62
2, 9440, Note_on_c, 0, 62, 0
2, 9440, Note_on_c, 0, 66, 62
2, 9519, Note_on_c, 0, 66, 0
2, 9519, Control_c, 0, 64, 0
2, 9519, Note_on_c, 0, 62, 62
2, 9600, Note_on_c, 0, 62, 0
2, 9680, Control_c, 0, 64, 127
2, 9680, Note_on_c, 0, 59, 62
2, 9759, Note_on_c, 0, 59, 0
2, 9759, Note_on_c, 0, 62, 62
2, 9840, Note_on_c, 0, 62, 0
2, 9840, Note_on_c, 0, 67, 62
2, 9920, Note_on_c, 0, 67, 0
2, 9920, Note_on_c, 0, 62, 62
2, 9999, Note_on_c, 0, 62, 0
2, 9999, Note_on_c, 0, 71, 62
2, 10080, Note_on_c, 0, 71, 0
2, 10080, Note_on_c, 0, 74, 62
2, 10160, Note_on_c, 0, 74, 0
2, 10160, Note_on_c, 0, 71, 62
2, 10239, Note_on_c, 0, 71, 0
2, 10239, Note_on_c, 0, 67, 62
2, 10320, Note_on_c, 0, 67, 0
2, 10320, Note_on_c, 0, 62, 62
2, 10400, Note_on_c, 0, 62, 0
2, 10400, Note_on_c, 0, 59, 62
2, 10479, Note_on_c, 0, 59, 0
2, 10479, Control_c, 0, 64, 0
2, 10479, Note_on_c, 0, 55, 62
2, 10560, Note_on_c, 0, 55, 0
2, 10640, Control_c, 0, 64, 127
2, 10640, Note_on_c, 0, 54, 62
2, 10719, Note_on_c, 0, 54, 0
2, 10719, Note_on_c, 0, 57, 62
2, 10800, Note_on_c, 0, 57, 0
2, 10800, Note_on_c, 0, 62, 62
2, 10880, Note_on_c, 0, 62, 0
2, 10880, Note_on_c, 0, 66, 62
2, 10959, Note_on_c, 0, 66, 0
2, 10959, Note_on_c, 0, 69, 62
2, 11040, Note_on_c, 0, 69, 0
2, 11040, Note_on_c, 0, 74, 62
2, 11120, Note_on_c, 0, 74, 0
2, 11120, Note_on_c, 0, 69, 62
2, 11199, Note_on_c, 0, 69, 0
2, 11199, Note_on_c, 0, 66, 62
2, 11280, Note_on_c, 0, 66, 0
2, 11280, Note_on_c, 0, 62, 62
2, 11360, Note_on_c, 0, 62, 0
2, 11360, Note_on_c, 0, 66, 62
2, 11439, Note_on_c, 0, 66, 0
2, 11439, Control_c, 0, 64, 0
2, 11439, Note_on_c, 0, 62, 62
2, 11520, Note_on_c, 0, 62, 0
2, 11600, Control_c, 0, 64, 127
2, 11600, Note_on_c, 0, 59, 62
2, 11679, Note_on_c, 0, 59, 0
2, 11679, Note_on_c, 0, 62, 62
2, 11760, Note_on_c, 0, 62, 0
2, 11760, Note_on_c, 0, 67, 62
2, 11840, Note_on_c, 0, 67, 0
2, 11840, Note_on_c, 0, 62, 62
2, 11919, Note_on_c, 0, 62, 0
2, 11919, Note_on_c, 0, 71, 62
2, 12000, Note_on_c, 0, 71, 0
2, 12000, Note_on_c, 0, 74, 62
2, 12080, Note_on_c, 0, 74, 0
2, 12080, Note_on_c, 0, 71, 62
2, 12159, Note_on_c, 0, 71, 0
2, 12159, Note_on_c, 0, 67, 62
2, 12240, Note_on_c, 0, 67, 0
2, 12240, Note_on_c, 0, 62, 62
2, 12320, Note_on_c, 0, 62, 0
2, 12320, Note_on_c, 0, 59, 62
2, 12399, Note_on_c, 0, 59, 0
2, 12399, Control_c, 0, 64, 0
2, 12399, Note_on_c, 0, 55, 62
2, 12480, Note_on_c, 0, 55, 0
2, 12560, Control_c, 0, 64, 127
2, 12560, Note_on_c, 0, 55, 62
2, 12639, Note_on_c, 0, 55, 0
2, 12639, Note_on_c, 0, 59, 62
2, 12720, Note_on_c, 0, 59, 0
2, 12720, Note_on_c, 0, 64, 62
2, 12800, Note_on_c, 0, 64, 0
2, 12800, Note_on_c, 0, 67, 62
2, 12879, Note_on_c, 0, 67, 0
2, 12879, Note_on_c, 0, 71, 62
2, 12960, Note_on_c, 0, 71, 0
2, 12960, Note_on_c, 0, 76, 75
2, 13040, Note_on_c, 0, 76, 0
2, 13040, Note_on_c, 0, 71, 75
2, 13119, Note_on_c, 0, 71, 0
2, 13119, Note_on_c, 0, 67, 75
2, 13200, Note_on_c, 0, 67, 0
2, 13200, Note_on_c, 0, 64, 75
2, 13280, Note_on_c, 0, 64, 0
2, 13280, Note_on_c, 0, 59, 75
2, 13359, Note_on_c, 0, 59, 0
2, 13359, Control_c, 0, 64, 0
2, 13359, Note_on_c, 0, 55, 75
2, 13440, Note_on_c, 0, 55, 0
2, 13440, Control_c, 0, 64, 127
2, 13440, Note_on_c, 0, 64, 88
2, 13520, Note_on_c, 0, 64, 0
2, 13520, Note_on_c, 0, 57, 88
2, 13599, Note_on_c, 0, 57, 0
2, 13599, Note_on_c, 0, 60, 88
2, 13680, Note_on_c, 0, 60, 0
2, 13680, Note_on_c, 0, 64, 88
2, 13760, Note_on_c, 0, 64, 0
2, 13760, Note_on_c, 0, 66, 88
2, 13839, Note_on_c, 0, 66, 0
2, 13839, Note_on_c, 0, 69, 88
2, 13920, Note_on_c, 0, 69, 0
2, 13920, Note_on_c, 0, 76, 88
2, 14000, Note_on_c, 0, 76, 0
2, 14000, Note_on_c, 0, 69, 88
2, 14079, Note_on_c, 0, 69, 0
2, 14079, Note_on_c, 0, 66, 88
2, 14160, Note_on_c, 0, 66, 0
2, 14160, Note_on_c, 0, 64, 88
2, 14240, Note_on_c, 0, 64, 0
2, 14240, Note_on_c, 0, 66, 88
2, 14319, Note_on_c, 0, 66, 0
2, 14319, Control_c, 0, 64, 0
2, 14319, Note_on_c, 0, 64, 88
2, 14400, Note_on_c, 0, 64, 0
2, 14480, Control_c, 0, 64, 127
2, 14480, Note_on_c, 0, 63, 75
2, 14559, Note_on_c, 0, 63, 0
2, 14559, Note_on_c, 0, 66, 75
2, 14640, Note_on_c, 0, 66, 0
2, 14640, Note_on_c, 0, 71, 75
2, 14720, Note_on_c, 0, 71, 0
2, 14720, Note_on_c, 0, 66, 75
2, 14799, Note_on_c, 0, 66, 0
2, 14799, Note_on_c, 0, 71, 75
2, 14880, Note_on_c, 0, 71, 0
2, 14880, Note_on_c, 0, 75, 75
2, 14960, Note_on_c, 0, 75, 0
2, 14960, Note_on_c, 0, 71, 75
2, 15039, Note_on_c, 0, 71, 0
2, 15039, Note_on_c, 0, 66, 75
2, 15120, Note_on_c, 0, 66, 0
2, 15120, Note_on_c, 0, 71, 75
2, 15200, Note_on_c, 0, 71, 0
2, 15200, Note_on_c, 0, 63, 75
2, 15279, Note_on_c, 0, 63, 0
2, 15279, Control_c, 0, 64, 0
2, 15279, Note_on_c, 0, 59, 75
2, 15360, Note_on_c, 0, 59, 0
2, 15440, Control_c, 0, 64, 127
2, 15440, Note_on_c, 0, 55, 75
2, 15519, Note_on_c, 0, 55, 0
2, 15519, Note_on_c, 0, 59, 75
2, 15600, Note_on_c, 0, 59, 0
2, 15600, Note_on_c, 0, 64, 75
2, 15680, Note_on_c, 0, 64, 0
2, 15680, Note_on_c, 0, 67, 75
2, 15759, Note_on_c, 0, 67, 0
2, 15759, Note_on_c, 0, 71, 75
2, 15840, Note_on_c, 0, 71, 0
2, 15840, Note_on_c, 0, 76, 75
2, 15920, Note_on_c, 0, 76, 0
2, 15920, Note_on_c, 0, 71, 75
2, 15999, Note_on_c, 0, 71, 0
2, 15999, Note_on_c, 0, 67, 75
2, 16080, Note_on_c, 0, 67, 0
2, 16080, Note_on_c, 0, 64, 75
2, 16160, Note_on_c, 0, 64, 0
2, 16160, Note_on_c, 0, 59, 75
2, 16239, Note_on_c, 0, 59, 0
2, 16239, Control_c, 0, 64, 0
2, 16239, Note_on_c, 0, 55, 75
2, 16320, Note_on_c, 0, 55, 0
2, 16400, Control_c, 0, 64, 127
2, 16400, Note_on_c, 0, 57, 62
2, 16479, Note_on_c, 0, 57, 0
2, 16479, Note_on_c, 0, 60, 62
2, 16560, Note_on_c, 0, 60, 0
2, 16560, Note_on_c, 0, 64, 62
2, 16640, Note_on_c, 0, 64, 0
2, 16640, Note_on_c, 0, 69, 62
2, 16719, Note_on_c, 0, 69, 0
2, 16719, Note_on_c, 0, 72, 62
2, 16800, Note_on_c, 0, 72, 0
2, 16800, Note_on_c, 0, 76, 62
2, 16880, Note_on_c, 0, 76, 0
2, 16880, Note_on_c, 0, 72, 62
2, 16959, Note_on_c, 0, 72, 0
2, 16959, Note_on_c, 0, 69, 62
2, 17040, Note_on_c, 0, 69, 0
2, 17040, Note_on_c, 0, 64, 62
2, 17120, Note_on_c, 0, 64, 0
2, 17120, Note_on_c, 0, 60, 62
2, 17199, Note_on_c, 0, 60, 0
2, 17199, Control_c, 0, 64, 0
2, 17199, Note_on_c, 0, 57, 62
2, 17280, Note_on_c, 0, 57, 0
2, 17360, Control_c, 0, 64, 127
2, 17360, Note_on_c, 0, 55, 62
2, 17439, Note_on_c, 0, 55, 0
2, 17439, Note_on_c, 0, 59, 62
2, 17520, Note_on_c, 0, 59, 0
2, 17520, Note_on_c, 0, 64, 62
2, 17600, Note_on_c, 0, 64, 0
2, 17600, Note_on_c, 0, 67, 62
2, 17679, Note_on_c, 0, 67, 0
2, 17679, Note_on_c, 0, 71, 62
2, 17760, Note_on_c, 0, 71, 0
2, 17760, Note_on_c, 0, 76, 62
2, 17840, Note_on_c, 0, 76, 0
2, 17840, Note_on_c, 0, 71, 62
2, 17919, Note_on_c, 0, 71, 0
2, 17919, Note_on_c, 0, 67, 62
2, 18000, Note_on_c, 0, 67, 0
2, 18000, Note_on_c, 0, 64, 62
2, 18080, Note_on_c, 0, 64, 0
2, 18080, Note_on_c, 0, 59, 62
2, 18159, Note_on_c, 0, 59, 0
2, 18159, Control_c, 0, 64, 0
2, 18159, Note_on_c, 0, 55, 62
2, 18240, Note_on_c, 0, 55, 0
2, 18320, Control_c, 0, 64, 127
2, 18320, Note_on_c, 0, 57, 62
2, 18399, Note_on_c, 0, 57, 0
2, 18399, Note_on_c, 0, 60, 62
2, 18480, Note_on_c, 0, 60, 0
2, 18480, Note_on_c, 0, 64, 62
2, 18560, Note_on_c, 0, 64, 0
2, 18560, Note_on_c, 0, 69, 62
2, 18639, Note_on_c, 0, 69, 0
2, 18639, Note_on_c, 0, 72, 62
2, 18720, Note_on_c, 0, 72, 0
2, 18720, Note_on_c, 0, 76, 62
2, 18800, Note_on_c, 0, 76, 0
2, 18800, Note_on_c, 0, 72, 62
2, 18879, Note_on_c, 0, 72, 0
2, 18879, Note_on_c, 0, 69, 62
2, 18960, Note_on_c, 0, 69, 0
2, 18960, Note_on_c, 0, 64, 62
2, 19040, Note_on_c, 0, 64, 0
2, 19040, Note_on_c, 0, 60, 62
2, 19119, Note_on_c, 0, 60, 0
2, 19119, Control_c, 0, 64, 0
2, 19119, Note_on_c, 0, 57, 62
2, 19200, Note_on_c, 0, 57, 0
2, 19280, Control_c, 0, 64, 127
2, 19280, Note_on_c, 0, 55, 62
2, 19359, Note_on_c, 0, 55, 0
2, 19359, Note_on_c, 0, 59, 62
2, 19440, Note_on_c, 0, 59, 0
2, 19440, Note_on_c, 0, 64, 62
2, 19520, Note_on_c, 0, 64, 0
2, 19520, Note_on_c, 0, 67, 62
2, 19599, Note_on_c, 0, 67, 0
2, 19599, Note_on_c, 0, 71, 62
2, 19680, Note_on_c, 0, 71, 0
2, 19680, Note_on_c, 0, 76, 62
2, 19760, Note_on_c, 0, 76, 0
2, 19760, Note_on_c, 0, 71, 62
2, 19839, Note_on_c, 0, 71, 0
2, 19839, Note_on_c, 0, 67, 62
2, 19920, Note_on_c, 0, 67, 0
2, 19920, Note_on_c, 0, 64, 62
2, 20000, Note_on_c, 0, 64, 0
2, 20000, Note_on_c, 0, 59, 62
2, 20079, Note_on_c, 0, 59, 0
2, 20079, Control_c, 0, 64, 0
2, 20079, Note_on_c, 0, 55, 62
2, 20160, Note_on_c, 0, 55, 0
2, 20240, Control_c, 0, 64, 127
2, 20240, Note_on_c, 0, 55, 75
2, 20319, Note_on_c, 0, 55, 0
2, 20319, Note_on_c, 0, 59, 75
2, 20400, Note_on_c, 0, 59, 0
2, 20400, Note_on_c, 0, 64, 75
2, 20480, Note_on_c, 0, 64, 0
2, 20480, Note_on_c, 0, 67, 75
2, 20559, Note_on_c, 0, 67, 0
2, 20559, Note_on_c, 0, 71, 75
2, 20640, Note_on_c, 0, 71, 0
2, 20640, Note_on_c, 0, 76, 75
2, 20720, Note_on_c, 0, 76, 0
2, 20720, Note_on_c, 0, 71, 75
2, 20799, Note_on_c, 0, 71, 0
2, 20799, Note_on_c, 0, 67, 75
2, 20880, Note_on_c, 0, 67, 0
2, 20880, Note_on_c, 0, 64, 75
2, 20960, Note_on_c, 0, 64, 0
2, 20960, Note_on_c, 0, 67, 75
2, 21039, Note_on_c, 0, 67, 0
2, 21039, Control_c, 0, 64, 0
2, 21039, Note_on_c, 0, 64, 75
2, 21120, Note_on_c, 0, 64, 0
2, 21120, Note_on_c, 0, 71, 114
2, 21600, Note_on_c, 0, 71, 0
2, 21600, Note_on_c, 0, 69, 114
2, 21840, Note_on_c, 0, 69, 0
2, 21840, Note_on_c, 0, 67, 114
2, 22080, Note_on_c, 0, 67, 0
2, 22080, Note_on_c, 0, 66, 88
2, 22320, Note_on_c, 0, 66, 0
2, 22320, Note_on_c, 0, 64, 88
2, 22800, Note_on_c, 0, 64, 0
2, 22800, Note_on_c, 0, 62, 88
2, 22920, Note_on_c, 0, 62, 0
2, 22920, Note_on_c, 0, 61, 88
2, 23040, Note_on_c, 0, 61, 0
2, 23360, Control_c, 0, 64, 127
2, 23360, Note_on_c, 0, 66, 62
2, 23439, Note_on_c, 0, 66, 0
2, 23439, Note_on_c, 0, 69, 62
2, 23520, Note_on_c, 0, 69, 0
2, 23520, Note_on_c, 0, 74, 62
2, 23600, Note_on_c, 0, 74, 0
2, 23600, Note_on_c, 0, 69, 62
2, 23679, Note_on_c, 0, 69, 0
2, 23679, Control_c, 0, 64, 0
2, 23679, Note_on_c, 0, 66, 62
2, 23760, Note_on_c, 0, 66, 0
2, 24320, Control_c, 0, 64, 127
2, 24320, Note_on_c, 0, 66, 62
2, 24399, Note_on_c, 0, 66, 0
2, 24399, Note_on_c, 0, 69, 62
2, 24480, Note_on_c, 0, 69, 0
2, 24480, Note_on_c, 0, 75, 62
2, 24560, Note_on_c, 0, 75, 0
2, 24560, Note_on_c, 0, 69, 62
2, 24639, Note_on_c, 0, 69, 0
2, 24639, Control_c, 0, 64, 0
2, 24639, Note_on_c, 0, 66, 62
2, 24720, Note_on_c, 0, 66, 0
2, 24960, Note_on_c, 0, 79, 114
2, 24960, Note_on_c, 0, 84, 114
2, 24960, Note_on_c, 0, 88, 114
2, 24960, Note_on_c, 0, 91, 114
2, 25440, Note_on_c, 0, 91, 0
2, 25440, Note_on_c, 0, 79, 0
2, 25440, Note_on_c, 0, 84, 0
2, 25440, Note_on_c, 0, 88, 0
2, 25440, Note_on_c, 0, 78, 114
2, 25440, Note_on_c, 0, 90, 114
2, 25680, Note_on_c, 0, 90, 0
2, 25680, Note_on_c, 0, 78, 0
2, 25680, Note_on_c, 0, 76, 114
2, 25680, Note_on_c, 0, 88, 114
2, 25920, Note_on_c, 0, 88, 0
2, 25920, Note_on_c, 0, 76, 0
2, 25920, Control_c, 0, 64, 127
2, 25920, Note_on_c, 0, 74, 88
2, 25920, Note_on_c, 0, 81, 88
2, 25920, Note_on_c, 0, 86, 88
2, 26160, Note_on_c, 0, 86, 0
2, 26160, Note_on_c, 0, 81, 0
2, 26160, Note_on_c, 0, 74, 0
2, 26160, Note_on_c, 0, 72, 88
2, 26160, Note_on_c, 0, 84, 88
2, 26400, Note_on_c, 0, 84, 0
2, 26400, Note_on_c, 0, 72, 0
2, 26400, Note_on_c, 0, 71, 88
2, 26400, Note_on_c, 0, 83, 88
2, 26640, Note_on_c, 0, 83, 0
2, 26640, Note_on_c, 0, 71, 0
2, 26640, Control_c, 0, 64, 0
2, 26640, Note_on_c, 0, 69, 88
2, 26640, Note_on_c, 0, 81, 88
2, 26880, Note_on_c, 0, 81, 0
2, 26880, Note_on_c, 0, 69, 0
2, 26880, Note_on_c, 0, 67, 88
2, 26880, Note_on_c, 0, 71, 88
2, 26880, Note_on_c, 0, 76, 88
2, 26880, Note_on_c, 0, 79, 88
2, 27200, Note_on_c, 0, 79, 0
2, 27200, Note_on_c, 0, 67, 0
2, 27200, Note_on_c, 0, 71, 0
2, 27200, Note_on_c, 0, 76, 0
2, 27200, Control_c, 0, 64, 127
2, 27200, Note_on_c, 0, 71, 75
2, 27279, Note_on_c, 0, 71, 0
2, 27279, Note_on_c, 0, 76, 75
2, 27360, Note_on_c, 0, 76, 0
2, 27360, Note_on_c, 0, 79, 75
2, 27440, Note_on_c, 0, 79, 0
2, 27440, Note_on_c, 0, 76, 75
2, 27519, Note_on_c, 0, 76, 0
2, 27519, Control_c, 0, 64, 0
2, 27519, Note_on_c, 0, 71, 75
2, 27600, Note_on_c, 0, 71, 0
2, 27600, Control_c, 0, 64, 127
2, 27600, Note_on_c, 0, 69, 88
2, 27660, Note_on_c, 0, 69, 0
2, 27660, Note_on_c, 0, 67, 88
2, 27720, Note_on_c, 0, 67, 0
2, 27720, Note_on_c, 0, 66, 88
2, 27780, Note_on_c, 0, 66, 0
2, 27780, Control_c, 0, 64, 0
2, 27780, Note_on_c, 0, 67, 88
2, 27840, Note_on_c, 0, 67, 0
2, 28160, Control_c, 0, 64, 127
2, 28160, Note_on_c, 0, 71, 75
2, 28239, Note_on_c, 0, 71, 0
2, 28239, Note_on_c, 0, 76, 75
2, 28320, Note_on_c, 0, 76, 0
2, 28320, Note_on_c, 0, 80, 75
2, 28400, Note_on_c, 0, 80, 0
2, 28400, Note_on_c, 0, 76, 75
2, 28479, Note_on_c, 0, 76, 0
2, 28479, Control_c, 0, 64, 0
2, 28479, Note_on_c, 0, 71, 75
2, 28560, Note_on_c, 0, 71, 0
2, 28560, Control_c, 0, 64, 127
2, 28560, Note_on_c, 0, 69, 88
2, 28620, Note_on_c, 0, 69, 0
2, 28620, Note_on_c, 0, 68, 88
2, 28680, Note_on_c, 0, 68, 0
2, 28680, Note_on_c, 0, 67, 88
2, 28740, Note_on_c, 0, 67, 0
2, 28740, Control_c, 0, 64, 0
2, 28740, Note_on_c, 0, 68, 88
2, 28800, Note_on_c, 0, 68, 0
2, 28800, Note_on_c, 0, 64, 114
2, 28800, Note_on_c, 0, 69, 114
2, 28800, Note_on_c, 0, 76, 114
2, 29120, Note_on_c, 0, 76, 0
2, 29120, Note_on_c, 0, 69, 0
2, 29120, Note_on_c, 0, 64, 0
2, 29120, Note_on_c, 0, 64, 75
2, 29199, Note_on_c, 0, 64, 0
2, 29199, Note_on_c, 0, 69, 75
2, 29280, Note_on_c, 0, 69, 0
2, 29280, Note_on_c, 0, 74, 114
2, 29520, Note_on_c, 0, 74, 0
2, 29520, Note_on_c, 0, 72, 114
2, 29760, Note_on_c, 0, 72, 0
2, 29760, Note_on_c, 0, 71, 88
2, 30000, Note_on_c, 0, 71, 0
2, 30000, Note_on_c, 0, 69, 88
2, 30240, Note_on_c, 0, 69, 0
2, 30360, Control_c, 0, 64, 127
2, 30360, Note_on_c, 0, 74, 88
2, 30480, Note_on_c, 0, 74, 0
2, 30480, Note_on_c, 0, 76, 88
2, 30540, Note_on_c, 0, 76, 0
2, 30540, Note_on_c, 0, 74, 88
2, 30600, Note_on_c, 0, 74, 0
2, 30600, Note_on_c, 0, 73, 88
2, 30660, Note_on_c, 0, 73, 0
2, 30660, Control_c, 0, 64, 0
2, 30660, Note_on_c, 0, 74, 88
2, 30720, Note_on_c, 0, 74, 0
2, 30720, Note_on_c, 0, 67, 88
2, 30720, Note_on_c, 0, 71, 88
2, 30720, Note_on_c, 0, 74, 88
2, 30720, Note_on_c, 0, 79, 88
2, 30960, Note_on_c, 0, 79, 0
2, 30960, Note_on_c, 0, 67, 0
2, 30960, Note_on_c, 0, 71, 0
2, 30960, Note_on_c, 0, 74, 0
2, 30960, Control_c, 0, 64, 127
2, 30960, Note_on_c, 0, 62, 75
2, 31040, Note_on_c, 0, 62, 0
2, 31040, Note_on_c, 0, 67, 75
2, 31119, Note_on_c, 0, 67, 0
2, 31119, Note_on_c, 0, 71, 75
2, 31200, Note_on_c, 0, 71, 0
2, 31200, Note_on_c, 0, 74, 75
2, 31280, Note_on_c, 0, 74, 0
2, 31280, Note_on_c, 0, 71, 75
2, 31359, Note_on_c, 0, 71, 0
2, 31359, Note_on_c, 0, 67, 75
2, 31440, Note_on_c, 0, 67, 0
2, 31440, Note_on_c, 0, 62, 75
2, 31520, Note_on_c, 0, 62, 0
2, 31520, Note_on_c, 0, 59, 75
2, 31599, Note_on_c, 0, 59, 0
2, 31599, Control_c, 0, 64, 0
2, 31599, Note_on_c, 0, 55, 75
2, 31680, Note_on_c, 0, 55, 0
2, 31760, Control_c, 0, 64, 127
2, 31760, Note_on_c, 0, 55, 75
2, 31839, Note_on_c, 0, 55, 0
2, 31839, Note_on_c, 0, 59, 75
2, 31920, Note_on_c, 0, 59, 0
2, 31920, Note_on_c, 0, 64, 75
2, 32000, Note_on_c, 0, 64, 0
2, 32000, Note_on_c, 0, 67, 75
2, 32079, Note_on_c, 0, 67, 0
2, 32079, Note_on_c, 0, 71, 75
2, 32160, Note_on_c, 0, 71, 0
2, 32160, Note_on_c, 0, 76, 75
2, 32240, Note_on_c, 0, 76, 0
2, 32240, Note_on_c, 0, 71, 75
2, 32319, Note_on_c, 0, 71, 0
2, 32319, Note_on_c, 0, 67, 75
2, 32400, Note_on_c, 0, 67, 0
2, 32400, Note_on_c, 0, 64, 75
2, 32480, Note_on_c, 0, 64, 0
2, 32480, Note_on_c, 0, 59, 75
2, 32559, Note_on_c, 0, 59, 0
2, 32559, Control_c, 0, 64, 0
2, 32559, Note_on_c, 0, 55, 75
2, 32640, Note_on_c, 0, 55, 0
2, 32640, Note_on_c, 0, 67, 114
2, 32640, Note_on_c, 0, 69, 114
2, 32640, Note_on_c, 0, 76, 114
2, 32640, Note_on_c, 0, 79, 114
2, 33120, Note_on_c, 0, 79, 0
2, 33120, Note_on_c, 0, 67, 0
2, 33120, Note_on_c, 0, 69, 0
2, 33120, Note_on_c, 0, 76, 0
2, 33120, Note_on_c, 0, 66, 114
2, 33120, Note_on_c, 0, 78, 114
2, 33360, Note_on_c, 0, 78, 0
2, 33360, Note_on_c, 0, 66, 0
2, 33360, Note_on_c, 0, 64, 114
2, 33360, Note_on_c, 0, 76, 114
2, 33600, Note_on_c, 0, 76, 0
2, 33600, Note_on_c, 0, 64, 0
2, 33600, Note_on_c, 0, 62, 88
2, 33600, Note_on_c, 0, 66, 88
2, 33600, Note_on_c, 0, 69, 88
2, 33600, Note_on_c, 0, 74, 88
2, 33840, Note_on_c, 0, 74, 0
2, 33840, Note_on_c, 0, 62, 0
2, 33840, Note_on_c, 0, 66, 0
2, 33840, Note_on_c, 0, 69, 0
2, 33840, Note_on_c, 0, 60, 88
2, 33840, Note_on_c, 0, 72, 88
2, 34320, Note_on_c, 0, 72, 0
2, 34320, Note_on_c, 0, 60, 0
2, 34320, Note_on_c, 0, 59, 88
2, 34320, Note_on_c, 0, 71, 88
2, 34440, Note_on_c, 0, 71, 0
2, 34440, Note_on_c, 0, 59, 0
2, 34440, Note_on_c, 0, 57, 88
2, 34440, Note_on_c, 0, 69, 88
2, 34560, Note_on_c, 0, 69, 0
2, 34560, Note_on_c, 0, 57, 0
2, 34560, Note_on_c, 0, 59, 75
2, 34560, Note_on_c, 0, 62, 75
2, 34560, Note_on_c, 0, 67, 75
2, 34800, Note_on_c, 0, 67, 0
2, 34800, Note_on_c, 0, 62, 0
2, 34800, Note_on_c, 0, 59, 0
2, 34800, Control_c, 0, 64, 127
2, 34800, Note_on_c, 0, 62, 62
2, 34880, Note_on_c, 0, 62, 0
2, 34880, Note_on_c, 0, 67, 62
2, 34959, Note_on_c, 0, 67, 0
2, 34959, Note_on_c, 0, 71, 62
2, 35040, Note_on_c, 0, 71, 0
2, 35040, Note_on_c, 0, 74, 62
2, 35120, Note_on_c, 0, 74, 0
2, 35120, Note_on_c, 0, 71, 62
2, 35199, Note_on_c, 0, 71, 0
2, 35199, Note_on_c, 0, 67, 62
2, 35280, Note_on_c, 0, 67, 0
2, 35280, Note_on_c, 0, 62, 62
2, 35360, Note_on_c, 0, 62, 0
2, 35360, Note_on_c, 0, 59, 62
2, 35439, Note_on_c, 0, 59, 0
2, 35439, Control_c, 0, 64, 0
2, 35439, Note_on_c, 0, 55, 62
2, 35520, Note_on_c, 0, 55, 0
2, 35600, Control_c, 0, 64, 127
2, 35600, Note_on_c, 0, 55, 62
2, 35679, Note_on_c, 0, 55, 0
2, 35679, Note_on_c, 0, 62, 62
2, 35760, Note_on_c, 0, 62, 0
2, 35760, Note_on_c, 0, 66, 62
2, 35840, Note_on_c, 0, 66, 0
2, 35840, Note_on_c, 0, 62, 62
2, 35919, Note_on_c, 0, 62, 0
2, 35919, Control_c, 0, 64, 0
2, 35919, Note_on_c, 0, 66, 62
2, 36000, Note_on_c, 0, 66, 0
2, 36000, Note_on_c, 0, 72, 75
2, 36240, Note_on_c, 0, 72, 0
2, 36240, Note_on_c, 0, 71, 75
2, 36480, Note_on_c, 0, 71, 0
2, 36480, Control_c, 0, 64, 127
2, 36480, Note_on_c, 0, 67, 75
2, 36560, Note_on_c, 0, 67, 0
2, 36560, Note_on_c, 0, 59, 62
2, 36639, Note_on_c, 0, 59, 0
2, 36639, Note_on_c, 0, 62, 62
2, 36720, Note_on_c, 0, 62, 0
2, 36720, Note_on_c, 0, 67, 62
2, 36800, Note_on_c, 0, 67, 0
2, 36800, Note_on_c, 0, 71, 62
2, 36879, Note_on_c, 0, 71, 0
2, 36879, Note_on_c, 0, 74, 62
2, 36960, Note_on_c, 0, 74, 0
2, 36960, Note_on_c, 0, 79, 62
2, 37040, Note_on_c, 0, 79, 0
2, 37040, Note_on_c, 0, 74, 62
2, 37119, Note_on_c, 0, 74, 0
2, 37119, Note_on_c, 0, 71, 62
2, 37200, Note_on_c, 0, 71, 0
2, 37200, Note_on_c, 0, 67, 62
2, 37280, Note_on_c, 0, 67, 0
2, 37280, Note_on_c, 0, 62, 62
2, 37359, Note_on_c, 0, 62, 0
2, 37359, Control_c, 0, 64, 0
2, 37359, Note_on_c, 0, 59, 62
2, 37440, Note_on_c, 0, 59, 0
2, 37520, Control_c, 0, 64, 127
2, 37520, Note_on_c, 0, 57, 62
2, 37599, Note_on_c, 0, 57, 0
2, 37599, Note_on_c, 0, 62, 62
2, 37680, Note_on_c, 0, 62, 0
2, 37680, Note_on_c, 0, 66, 62
2, 37760, Note_on_c, 0, 66, 0
2, 37760, Note_on_c, 0, 62, 62
2, 37839, Note_on_c, 0, 62, 0
2, 37839, Control_c, 0, 64, 0
2, 37839, Note_on_c, 0, 66, 62
2, 37920, Note_on_c, 0, 66, 0
2, 37920, Note_on_c, 0, 72, 75
2, 38160, Note_on_c, 0, 72, 0
2, 38160, Note_on_c, 0, 71, 75
2, 38400, Note_on_c, 0, 71, 0
2, 38400, Control_c, 0, 64, 127
2, 38400, Note_on_c, 0, 67, 75
2, 38480, Note_on_c, 0, 67, 0
2, 38480, Note_on_c, 0, 59, 62
2, 38559, Note_on_c, 0, 59, 0
2, 38559, Note_on_c, 0, 62, 62
2, 38640, Note_on_c, 0, 62, 0
2, 38640, Note_on_c, 0, 67, 62
2, 38720, Note_on_c, 0, 67, 0
2, 38720, Note_on_c, 0, 71, 62
2, 38799, Note_on_c, 0, 71, 0
2, 38799, Note_on_c, 0, 74, 62
2, 38880, Note_on_c, 0, 74, 0
2, 38880, Note_on_c, 0, 79, 62
2, 38960, Note_on_c, 0, 79, 0
2, 38960, Note_on_c, 0, 74, 62
2, 39039, Note_on_c, 0, 74, 0
2, 39039, Note_on_c, 0, 71, 62
2, 39120, Note_on_c, 0, 71, 0
2, 39120, Note_on_c, 0, 67, 62
2, 39200, Note_on_c, 0, 67, 0
2, 39200, Note_on_c, 0, 62, 62
2, 39279, Note_on_c, 0, 62, 0
2, 39279, Control_c, 0, 64, 0
2, 39279, Note_on_c, 0, 59, 62
2, 39360, Note_on_c, 0, 59, 0
2, 39440, Control_c, 0, 64, 127
2, 39440, Note_on_c, 0, 59, 62
2, 39519, Note_on_c, 0, 59, 0
2, 39519, Note_on_c, 0, 64, 62
2, 39600, Note_on_c, 0, 64, 0
2, 39600, Note_on_c, 0, 67, 62
2, 39680, Note_on_c, 0, 67, 0
2, 39680, Note_on_c, 0, 71, 62
2, 39759, Note_on_c, 0, 71, 0
2, 39759, Note_on_c, 0, 76, 62
2, 39840, Note_on_c, 0, 76, 0
2, 39840, Note_on_c, 0, 79, 75
2, 39920, Note_on_c, 0, 79, 0
2, 39920, Note_on_c, 0, 76, 75
2, 39999, Note_on_c, 0, 76, 0
2, 39999, Note_on_c, 0, 71, 75
2, 40080, Note_on_c, 0, 71, 0
2, 40080, Note_on_c, 0, 67, 75
2, 40160, Note_on_c, 0, 67, 0
2, 40160, Note_on_c, 0, 64, 75
2, 40239, Note_on_c, 0, 64, 0
2, 40239, Control_c, 0, 64, 0
2, 40239, Note_on_c, 0, 59, 75
2, 40320, Note_on_c, 0, 59, 0
2, 40320, Note_on_c, 0, 64, 114
2, 40320, Note_on_c, 0, 66, 114
2, 40320, Note_on_c, 0, 72, 114
2, 40320, Note_on_c, 0, 76, 114
2, 40800, Note_on_c, 0, 76, 0
2, 40800, Note_on_c, 0, 64, 0
2, 40800, Note_on_c, 0, 66, 0
2, 40800, Note_on_c, 0, 72, 0
2, 40800, Note_on_c, 0, 62, 114
2, 40800, Note_on_c, 0, 74, 114
2, 41040, Note_on_c, 0, 74, 0
2, 41040, Note_on_c, 0, 62, 0
2, 41040, Note_on_c, 0, 60, 114
2, 41040, Note_on_c, 0, 72, 114
2, 41280, Note_on_c, 0, 72, 0
2, 41280, Note_on_c, 0, 60, 0
2, 41280, Note_on_c, 0, 59, 88
2, 41280, Note_on_c, 0, 63, 88
2, 41280, Note_on_c, 0, 66, 88
2, 41280, Note_on_c, 0, 71, 88
2, 41520, Note_on_c, 0, 71, 0
2, 41520, Note_on_c, 0, 59, 0
2, 41520, Note_on_c, 0, 63, 0
2, 41520, Note_on_c, 0, 66, 0
2, 41520, Note_on_c, 0, 57, 88
2, 41520, Note_on_c, 0, 69, 88
2, 42000, Note_on_c, 0, 69, 0
2, 42000, Note_on_c, 0, 57, 0
2, 42000, Note_on_c, 0, 55, 88
2, 42000, Note_on_c, 0, 67, 88
2, 42120, Note_on_c, 0, 67, 0
2, 42120, Note_on_c, 0, 55, 0
2, 42120, Note_on_c, 0, 54, 88
2, 42120, Note_on_c, 0, 66, 88
2, 42240, Note_on_c, 0, 66, 0
2, 42240, Note_on_c, 0, 54, 0
2, 42240, Note_on_c, 0, 55, 75
2, 42240, Note_on_c, 0, 59, 75
2, 42240, Note_on_c, 0, 64, 75
2, 42480, Note_on_c, 0, 64, 0
2, 42480, Note_on_c, 0, 59, 0
2, 42480, Note_on_c, 0, 55, 0
2, 42480, Control_c, 0, 64, 127
2, 42480, Note_on_c, 0, 64, 62
2, 42560, Note_on_c, 0, 64, 0
2, 42560, Note_on_c, 0, 67, 62
2, 42639, Note_on_c, 0, 67, 0
2, 42639, Note_on_c, 0, 71, 62
2, 42720, Note_on_c, 0, 71, 0
2, 42720, Note_on_c, 0, 76, 62
2, 42800, Note_on_c, 0, 76, 0
2, 42800, Note_on_c, 0, 71, 62
2, 42879, Note_on_c, 0, 71, 0
2, 42879, Note_on_c, 0, 67, 62
2, 42960, Note_on_c, 0, 67, 0
2, 42960, Note_on_c, 0, 64, 62
2, 43040, Note_on_c, 0, 64, 0
2, 43040, Note_on_c, 0, 59, 62
2, 43119, Note_on_c, 0, 59, 0
2, 43119, Control_c, 0, 64, 0
2, 43119, Note_on_c, 0, 55, 62
2, 43200, Note_on_c, 0, 55, 0
2, 43280, Control_c, 0, 64, 127
2, 43280, Note_on_c, 0, 57, 62
2, 43359, Note_on_c, 0, 57, 0
2, 43359, Note_on_c, 0, 60, 62
2, 43440, Note_on_c, 0, 60, 0
2, 43440, Note_on_c, 0, 64, 62
2, 43520, Note_on_c, 0, 64, 0
2, 43520, Note_on_c, 0, 69, 62
2, 43599, Note_on_c, 0, 69, 0
2, 43599, Control_c, 0, 64, 0
2, 43599, Note_on_c, 0, 72, 62
2, 43680, Note_on_c, 0, 72, 0
2, 43680, Note_on_c, 0, 69, 62
2, 43760, Note_on_c, 0, 69, 0
2, 43760, Note_on_c, 0, 72, 62
2, 43839, Note_on_c, 0, 72, 0
2, 43839, Note_on_c, 0, 76, 62
2, 43920, Note_on_c, 0, 76, 0
2, 43920, Note_on_c, 0, 67, 62
2, 44000, Note_on_c, 0, 67, 0
2, 44000, Note_on_c, 0, 72, 62
2, 44079, Note_on_c, 0, 72, 0
2, 44079, Note_on_c, 0, 76, 62
2, 44160, Note_on_c, 0, 76, 0
2, 44240, Control_c, 0, 64, 127
2, 44240, Note_on_c, 0, 55, 62
2, 44319, Note_on_c, 0, 55, 0
2, 44319, Note_on_c, 0, 59, 62
2, 44400, Note_on_c, 0, 59, 0
2, 44400, Note_on_c, 0, 64, 62
2, 44480, Note_on_c, 0, 64, 0
2, 44480, Note_on_c, 0, 67, 62
2, 44559, Note_on_c, 0, 67, 0
2, 44559, Note_on_c, 0, 71, 62
2, 44640, Note_on_c, 0, 71, 0
2, 44640, Note_on_c, 0, 76, 62
2, 44720, Note_on_c, 0, 76, 0
2, 44720, Note_on_c, 0, 71, 62
2, 44799, Note_on_c, 0, 71, 0
2, 44799, Note_on_c, 0, 67, 62
2, 44880, Note_on_c, 0, 67, 0
2, 44880, Note_on_c, 0, 64, 62
2, 44960, Note_on_c, 0, 64, 0
2, 44960, Note_on_c, 0, 59, 62
2, 45039, Note_on_c, 0, 59, 0
2, 45039, Control_c, 0, 64, 0
2, 45039, Note_on_c, 0, 55, 62
2, 45120, Note_on_c, 0, 55, 0
2, 45200, Control_c, 0, 64, 127
2, 45200, Note_on_c, 0, 57, 62
2, 45279, Note_on_c, 0, 57, 0
2, 45279, Note_on_c, 0, 60, 62
2, 45360, Note_on_c, 0, 60, 0
2, 45360, Note_on_c, 0, 64, 62
2, 45440, Note_on_c, 0, 64, 0
2, 45440, Note_on_c, 0, 69, 62
2, 45519, Note_on_c, 0, 69, 0
2, 45519, Control_c, 0, 64, 0
2, 45519, Note_on_c, 0, 72, 62
2, 45600, Note_on_c, 0, 72, 0
2, 45600, Note_on_c, 0, 69, 62
2, 45680, Note_on_c, 0, 69, 0
2, 45680, Note_on_c, 0, 72, 62
2, 45759, Note_on_c, 0, 72, 0
2, 45759, Note_on_c, 0, 76, 62
2, 45840, Note_on_c, 0, 76, 0
2, 45840, Note_on_c, 0, 67, 62
2, 45920, Note_on_c, 0, 67, 0
2, 45920, Note_on_c, 0, 72, 62
2, 45999, Note_on_c, 0, 72, 0
2, 45999, Note_on_c, 0, 76, 62
2, 46080, Note_on_c, 0, 76, 0
2, 46160, Control_c, 0, 64, 127
2, 46160, Note_on_c, 0, 55, 62
2, 46239, Note_on_c, 0, 55, 0
2, 46239, Note_on_c, 0, 59, 62
2, 46320, Note_on_c, 0, 59, 0
2, 46320, Note_on_c, 0, 64, 62
2, 46400, Note_on_c, 0, 64, 0
2, 46400, Note_on_c, 0, 67, 62
2, 46479, Note_on_c, 0, 67, 0
2, 46479, Note_on_c, 0, 71, 62
2, 46560, Note_on_c, 0, 71, 0
2, 46560, Note_on_c, 0, 76, 62
2, 46640, Note_on_c, 0, 76, 0
2, 46640, Note_on_c, 0, 71, 62
2, 46719, Note_on_c, 0, 71, 0
2, 46719, Note_on_c, 0, 67, 62
2, 46800, Note_on_c, 0, 67, 0
2, 46800, Note_on_c, 0, 64, 62
2, 46880, Note_on_c, 0, 64, 0
2, 46880, Note_on_c, 0, 59, 62
2, 46959, Note_on_c, 0, 59, 0
2, 46959, Control_c, 0, 64, 0
2, 46959, Note_on_c, 0, 55, 62
2, 47040, Note_on_c, 0, 55, 0
2, 47280, Note_on_c, 0, 67, 62
2, 47360, Note_on_c, 0, 67, 0
2, 47360, Note_on_c, 0, 71, 62
2, 47439, Note_on_c, 0, 71, 0
2, 47439, Note_on_c, 0, 76, 62
2, 47520, Note_on_c, 0, 76, 0
2, 47520, Note_on_c, 0, 79, 88
2, 47760, Note_on_c, 0, 79, 0
2, 47760, Note_on_c, 0, 78, 62
2, 48000, Note_on_c, 0, 78, 0
2, 48000, Note_on_c, 0, 76, 88
2, 48480, Note_on_c, 0, 76, 0
2, 48480, Note_on_c, 0, 83, 88
2, 48720, Note_on_c, 0, 83, 0
2, 48720, Note_on_c, 0, 81, 88
2, 48960, Note_on_c, 0, 81, 0
2, 48960, Control_c, 0, 64, 127
2, 48960, Note_on_c, 0, 79, 62
2, 49320, Note_on_c, 0, 79, 0
2, 49320, Note_on_c, 0, 81, 62
2, 49380, Note_on_c, 0, 81, 0
2, 49380, Note_on_c, 0, 79, 62
2, 49440, Note_on_c, 0, 79, 0
2, 49440, Note_on_c, 0, 78, 88
2, 49680, Note_on_c, 0, 78, 0
2, 49680, Control_c, 0, 64, 0
2, 49680, Note_on_c, 0, 76, 88
2, 49920, Note_on_c, 0, 76, 0
2, 49920, Note_on_c, 0, 79, 62
2, 50400, Note_on_c, 0, 79, 0
2, 50400, Note_on_c, 0, 78, 62
2, 51360, Note_on_c, 0, 78, 0
2, 51360, Note_on_c, 0, 76, 62
2, 51600, Note_on_c, 0, 76, 0
2, 51600, Note_on_c, 0, 78, 62
2, 51840, Note_on_c, 0, 78, 0
2, 51840, Control_c, 0, 64, 127
2, 51840, Note_on_c, 0, 71, 62
2, 52200, Note_on_c, 0, 71, 0
2, 52200, Note_on_c, 0, 72, 62
2, 52260, Note_on_c, 0, 72, 0
2, 52260, Note_on_c, 0, 71, 62
2, 52320, Note_on_c, 0, 71, 0
2, 52320, Note_on_c, 0, 70, 75
2, 52560, Note_on_c, 0, 70, 0
2, 52560, Control_c, 0, 64, 0
2, 52560, Note_on_c, 0, 71, 75
2, 52800, Note_on_c, 0, 71, 0
2, 52800, Note_on_c, 0, 72, 75
2, 53280, Note_on_c, 0, 72, 0
2, 53280, Note_on_c, 0, 74, 75
2, 53520, Note_on_c, 0, 74, 0
2, 53520, Note_on_c, 0, 72, 75
2, 53760, Note_on_c, 0, 72, 0
2, 53760, Note_on_c, 0, 71, 75
2, 54000, Note_on_c, 0, 71, 0
2, 54480, Control_c, 0, 64, 127
2, 54480, Note_on_c, 0, 59, 62
2, 54519, Note_on_c, 0, 59, 0
2, 54519, Note_on_c, 0, 63, 62
2, 54560, Note_on_c, 0, 63, 0
2, 54560, Note_on_c, 0, 66, 62
2, 54600, Note_on_c, 0, 66, 0
2, 54600, Note_on_c, 0, 71, 62
2, 54639, Note_on_c, 0, 71, 0
2, 54639, Note_on_c, 0, 75, 62
2, 54680, Note_on_c, 0, 75, 0
2, 54680, Note_on_c, 0, 78, 62
2, 54720, Note_on_c, 0, 78, 0
2, 54720, Note_on_c, 0, 83, 88
2, 54960, Note_on_c, 0, 83, 0
2, 54960, Control_c, 0, 64, 0
2, 55200, Note_on_c, 0, 63, 49
2, 55200, Note_on_c, 0, 66, 49
2, 55320, Note_on_c, 0, 66, 0
2, 55320, Note_on_c, 0, 63, 0
2, 55320, Note_on_c, 0, 63, 49
2, 55320, Note_on_c, 0, 66, 49
2, 55440, Note_on_c, 0, 66, 0
2, 55440, Note_on_c, 0, 63, 0
2, 55440, Note_on_c, 0, 59, 49
2, 55440, Note_on_c, 0, 63, 49
2, 55440, Note_on_c, 0, 66, 49
2, 55560, Note_on_c, 0, 66, 0
2, 55560, Note_on_c, 0, 63, 0
2, 55560, Note_on_c, 0, 59, 0
2, 55560, Note_on_c, 0, 59, 49
2, 55560, Note_on_c, 0, 63, 49
2, 55560, Note_on_c, 0, 66, 49
2, 55680, Note_on_c, 0, 66, 0
2, 55680, Note_on_c, 0, 63, 0
2, 55680, Note_on_c, 0, 59, 0
2, 55680, Note_on_c, 0, 59, 49
2, 55680, Note_on_c, 0, 62, 49
2, 55680, Note_on_c, 0, 67, 49
2, 55800, Note_on_c, 0, 67, 0
2, 55800, Note_on_c, 0, 62, 0
2, 55800, Note_on_c, 0, 59, 0
2, 55800, Note_on_c, 0, 59, 49
2, 55800, Note_on_c, 0, 62, 49
2, 55800, Note_on_c, 0, 67, 49
2, 55920, Note_on_c, 0, 67, 0
2, 55920, Note_on_c, 0, 62, 0
2, 55920, Note_on_c, 0, 59, 0
2, 55920, Note_on_c, 0, 59, 49
2, 55920, Note_on_c, 0, 62, 49
2, 55920, Note_on_c, 0, 67, 49
2, 56040, Note_on_c, 0, 67, 0
2, 56040, Note_on_c, 0, 62, 0
2, 56040, Note_on_c, 0, 59, 0
2, 56040, Note_on_c, 0, 59, 49
2, 56040, Note_on_c, 0, 62, 49
2, 56040, Note_on_c, 0, 67, 49
2, 56160, Note_on_c, 0, 67, 0
2, 56160, Note_on_c, 0, 62, 0
2, 56160, Note_on_c, 0, 59, 0
2, 56160, Note_on_c, 0, 59, 49
2, 56160, Note_on_c, 0, 67, 49
2, 56280, Note_on_c, 0, 67, 0
2, 56280, Note_on_c, 0, 59, 0
2, 56280, Note_on_c, 0, 59, 49
2, 56280, Note_on_c, 0, 67, 49
2, 56400, Note_on_c, 0, 67, 0
2, 56400, Note_on_c, 0, 59, 0
2, 56400, Note_on_c, 0, 62, 49
2, 56400, Note_on_c, 0, 67, 49
2, 56520, Note_on_c, 0, 67, 0
2, 56520, Note_on_c, 0, 62, 0
2, 56520, Note_on_c, 0, 62, 49
2, 56520, Note_on_c, 0, 67, 49
2, 56640, Note_on_c, 0, 67, 0
2, 56640, Note_on_c, 0, 62, 0
2, 56640, Note_on_c, 0, 62, 49
2, 56640, Note_on_c, 0, 67, 49
2, 56760, Note_on_c, 0, 67, 0
2, 56760, Note_on_c, 0, 62, 0
2, 56760, Note_on_c, 0, 62, 49
2, 56760, Note_on_c, 0, 67, 49
2, 56880, Note_on_c, 0, 67, 0
2, 56880, Note_on_c, 0, 62, 0
2, 56880, Note_on_c, 0, 62, 49
2, 56880, Note_on_c, 0, 67, 49
2, 57000, Note_on_c, 0, 67, 0
2, 57000, Note_on_c, 0, 62, 0
2, 57000, Note_on_c, 0, 62, 49
2, 57000, Note_on_c, 0, 67, 49
2, 57120, Note_on_c, 0, 67, 0
2, 57120, Note_on_c, 0, 62, 0
2, 57120, Note_on_c, 0, 59, 49
2, 57120, Note_on_c, 0, 62, 49
2, 57120, Note_on_c, 0, 67, 49
2, 57240, Note_on_c, 0, 67, 0
2, 57240, Note_on_c, 0, 62, 0
2, 57240, Note_on_c, 0, 59, 0
2, 57240, Note_on_c, 0, 59, 49
2, 57240, Note_on_c, 0, 62, 49
2, 57240, Note_on_c, 0, 67, 49
2, 57360, Note_on_c, 0, 67, 0
2, 57360, Note_on_c, 0, 62, 0
2, 57360, Note_on_c, 0, 59, 0
2, 57360, Note_on_c, 0, 59, 49
2, 57360, Note_on_c, 0, 62, 49
2, 57360, Note_on_c, 0, 67, 49
2, 57480, Note_on_c, 0, 67, 0
2, 57480, Note_on_c, 0, 62, 0
2, 57480, Note_on_c, 0, 59, 0
2, 57480, Note_on_c, 0, 59, 49
2, 57480, Note_on_c, 0, 62, 49
2, 57480, Note_on_c, 0, 67, 49
2, 57600, Note_on_c, 0, 67, 0
2, 57600, Note_on_c, 0, 62, 0
2, 57600, Note_on_c, 0, 59, 0
2, 57600, Note_on_c, 0, 63, 49
2, 57600, Note_on_c, 0, 66, 49
2, 57600, Note_on_c, 0, 71, 49
2, 57720, Note_on_c, 0, 71, 0
2, 57720, Note_on_c, 0, 66, 0
2, 57720, Note_on_c, 0, 63, 0
2, 57720, Note_on_c, 0, 63, 49
2, 57720, Note_on_c, 0, 66, 49
2, 57720, Note_on_c, 0, 71, 49
2, 57840, Note_on_c, 0, 71, 0
2, 57840, Note_on_c, 0, 66, 0
2, 57840, Note_on_c, 0, 63, 0
2, 57840, Note_on_c, 0, 63, 49
2, 57840, Note_on_c, 0, 66, 49
2, 57840, Note_on_c, 0, 71, 49
2, 57960, Note_on_c, 0, 71, 0
2, 57960, Note_on_c, 0, 66, 0
2, 57960, Note_on_c, 0, 63, 0
2, 57960, Note_on_c, 0, 63, 49
2, 57960, Note_on_c, 0, 66, 49
2, 57960, Note_on_c, 0, 71, 49
2, 58080, Note_on_c, 0, 71, 0
2, 58080, Note_on_c, 0, 66, 0
2, 58080, Note_on_c, 0, 63, 0
2, 58080, Note_on_c, 0, 63, 49
2, 58080, Note_on_c, 0, 66, 49
2, 58080, Note_on_c, 0, 71, 49
2, 58200, Note_on_c, 0, 71, 0
2, 58200, Note_on_c, 0, 66, 0
2, 58200, Note_on_c, 0, 63, 0
2, 58200, Note_on_c, 0, 63, 49
2, 58200, Note_on_c, 0, 66, 49
2, 58200, Note_on_c, 0, 71, 49
2, 58320, Note_on_c, 0, 71, 0
2, 58320, Note_on_c, 0, 66, 0
2, 58320, Note_on_c, 0, 63, 0
2, 58320, Note_on_c, 0, 63, 49
2, 58320, Note_on_c, 0, 66, 49
2, 58320, Note_on_c, 0, 71, 49
2, 58440, Note_on_c, 0, 71, 0
2, 58440, Note_on_c, 0, 66, 0
2, 58440, Note_on_c, 0, 63, 0
2, 58440, Note_on_c, 0, 63, 49
2, 58440, Note_on_c, 0, 66, 49
2, 58440, Note_on_c, 0, 71, 49
2, 58560, Note_on_c, 0, 71, 0
2, 58560, Note_on_c, 0, 66, 0
2, 58560, Note_on_c, 0, 63, 0
2, 58560, Note_on_c, 0, 63, 49
2, 58560, Note_on_c, 0, 66, 49
2, 58560, Note_on_c, 0, 71, 49
2, 58680, Note_on_c, 0, 71, 0
2, 58680, Note_on_c, 0, 66, 0
2, 58680, Note_on_c, 0, 63, 0
2, 58680, Note_on_c, 0, 63, 49
2, 58680, Note_on_c, 0, 66, 49
2, 58680, Note_on_c, 0, 71, 49
2, 58800, Note_on_c, 0, 71, 0
2, 58800, Note_on_c, 0, 66, 0
2, 58800, Note_on_c, 0, 63, 0
2, 58800, Note_on_c, 0, 63, 49
2, 58800, Note_on_c, 0, 66, 49
2, 58800, Note_on_c, 0, 71, 49
2, 58920, Note_on_c, 0, 71, 0
2, 58920, Note_on_c, 0, 66, 0
2, 58920, Note_on_c, 0, 63, 0
2, 58920, Note_on_c, 0, 63, 49
2, 58920, Note_on_c, 0, 66, 49
2, 58920, Note_on_c, 0, 71, 49
2, 59040, Note_on_c, 0, 71, 0
2, 59040, Note_on_c, 0, 66, 0
2, 59040, Note_on_c, 0, 63, 0
2, 59040, Note_on_c, 0, 63, 49
2, 59040, Note_on_c, 0, 66, 49
2, 59040, Note_on_c, 0, 71, 49
2, 59160, Note_on_c, 0, 71, 0
2, 59160, Note_on_c, 0, 66, 0
2, 59160, Note_on_c, 0, 63, 0
2, 59160, Note_on_c, 0, 63, 49
2, 59160, Note_on_c, 0, 66, 49
2, 59160, Note_on_c, 0, 71, 49
2, 59280, Note_on_c, 0, 71, 0
2, 59280, Note_on_c, 0, 66, 0
2, 59280, Note_on_c, 0, 63, 0
2, 59280, Note_on_c, 0, 63, 49
2, 59280, Note_on_c, 0, 66, 49
2, 59280, Note_on_c, 0, 71, 49
2, 59400, Note_on_c, 0, 71, 0
2, 59400, Note_on_c, 0, 66, 0
2, 59400, Note_on_c, 0, 63, 0
2, 59400, Note_on_c, 0, 63, 49
2, 59400, Note_on_c, 0, 66, 49
2, 59400, Note_on_c, 0, 71, 49
2, 59520, Note_on_c, 0, 71, 0
2, 59520, Note_on_c, 0, 66, 0
2, 59520, Note_on_c, 0, 63, 0
2, 59520, Note_on_c, 0, 64, 49
2, 59520, Note_on_c, 0, 67, 49
2, 59520, Note_on_c, 0, 71, 49
2, 59640, Note_on_c, 0, 71, 0
2, 59640, Note_on_c, 0, 67, 0
2, 59640, Note_on_c, 0, 64, 0
2, 59640, Note_on_c, 0, 64, 49
2, 59640, Note_on_c, 0, 67, 49
2, 59640, Note_on_c, 0, 71, 49
2, 59760, Note_on_c, 0, 71, 0
2, 59760, Note_on_c, 0, 67, 0
2, 59760, Note_on_c, 0, 64, 0
2, 59760, Note_on_c, 0, 64, 49
2, 59760, Note_on_c, 0, 67, 49
2, 59760, Note_on_c, 0, 71, 49
2, 59880, Note_on_c, 0, 71, 0
2, 59880, Note_on_c, 0, 67, 0
2, 59880, Note_on_c, 0, 64, 0
2, 59880, Note_on_c, 0, 64, 49
2, 59880, Note_on_c, 0, 67, 49
2, 59880, Note_on_c, 0, 71, 49
2, 60000, Note_on_c, 0, 71, 0
2, 60000, Note_on_c, 0, 67, 0
2, 60000, Note_on_c, 0, 64, 0
2, 60000, Note_on_c, 0, 59, 49
2, 60000, Note_on_c, 0, 67, 49
2, 60120, Note_on_c, 0, 67, 0
2, 60120, Note_on_c, 0, 59, 0
2, 60120, Note_on_c, 0, 59, 49
2, 60120, Note_on_c, 0, 67, 49
2, 60240, Note_on_c, 0, 67, 0
2, 60240, Note_on_c, 0, 59, 0
2, 60240, Note_on_c, 0, 59, 49
2, 60240, Note_on_c, 0, 67, 49
2, 60360, Note_on_c, 0, 67, 0
2, 60360, Note_on_c, 0, 59, 0
2, 60360, Note_on_c, 0, 59, 49
2, 60360, Note_on_c, 0, 67, 49
2, 60480, Note_on_c, 0, 67, 0
2, 60480, Note_on_c, 0, 59, 0
2, 60480, Note_on_c, 0, 58, 49
2, 60480, Note_on_c, 0, 64, 49
2, 60600, Note_on_c, 0, 64, 0
2, 60600, Note_on_c, 0, 58, 0
2, 60600, Note_on_c, 0, 58, 49
2, 60600, Note_on_c, 0, 64, 49
2, 60720, Note_on_c, 0, 64, 0
2, 60720, Note_on_c, 0, 58, 0
2, 60720, Note_on_c, 0, 58, 49
2, 60720, Note_on_c, 0, 64, 49
2, 60840, Note_on_c, 0, 64, 0
2, 60840, Note_on_c, 0, 58, 0
2, 60840, Note_on_c, 0, 58, 49
2, 60840, Note_on_c, 0, 64, 49
2, 60960, Note_on_c, 0, 64, 0
2, 60960, Note_on_c, 0, 58, 0
2, 60960, Note_on_c, 0, 52, 49
2, 60960, Note_on_c, 0, 58, 49
2, 61080, Note_on_c, 0, 58, 0
2, 61080, Note_on_c, 0, 52, 0
2, 61080, Note_on_c, 0, 52, 49
2, 61080, Note_on_c, 0, 58, 49
2, 61200, Note_on_c, 0, 58, 0
2, 61200, Note_on_c, 0, 52, 0
2, 61200, Note_on_c, 0, 54, 49
2, 61200, Note_on_c, 0, 58, 49
2, 61320, Note_on_c, 0, 58, 0
2, 61320, Note_on_c, 0, 54, 0
2, 61320, Note_on_c, 0, 54, 49
2, 61320, Note_on_c, 0, 58, 49
2, 61440, Note_on_c, 0, 58, 0
2, 61440, Note_on_c, 0, 54, 0
2, 61440, Note_on_c, 0, 51, 49
2, 61440, Note_on_c, 0, 54, 49
2, 61440, Note_on_c, 0, 59, 49
2, 61560, Note_on_c, 0, 59, 0
2, 61560, Note_on_c, 0, 54, 0
2, 61560, Note_on_c, 0, 51, 0
2, 61560, Note_on_c, 0, 51, 49
2, 61560, Note_on_c, 0, 54, 49
2, 61560, Note_on_c, 0, 59, 49
2, 61680, Note_on_c, 0, 59, 0
2, 61680, Note_on_c, 0, 54, 0
2, 61680, Note_on_c, 0, 51, 0
2, 61680, Note_on_c, 0, 51, 49
2, 61680, Note_on_c, 0, 54, 49
2, 61680, Note_on_c, 0, 59, 49
2, 61800, Note_on_c, 0, 59, 0
2, 61800, Note_on_c, 0, 54, 0
2, 61800, Note_on_c, 0, 51, 0
2, 61800, Note_on_c, 0, 51, 49
2, 61800, Note_on_c, 0, 54, 49
2, 61800, Note_on_c, 0, 59, 49
2, 61920, Note_on_c, 0, 59, 0
2, 61920, Note_on_c, 0, 54, 0
2, 61920, Note_on_c, 0, 51, 0
2, 62160, Control_c, 0, 64, 127
2, 62160, Note_on_c, 0, 59, 62
2, 62199, Note_on_c, 0, 59, 0
2, 62199, Note_on_c, 0, 63, 62
2, 62240, Note_on_c, 0, 63, 0
2, 62240, Note_on_c, 0, 66, 62
2, 62280, Note_on_c, 0, 66, 0
2, 62280, Note_on_c, 0, 71, 62
2, 62319, Note_on_c, 0, 71, 0
2, 62319, Note_on_c, 0, 75, 62
2, 62360, Note_on_c, 0, 75, 0
2, 62360, Note_on_c, 0, 78, 62
2, 62400, Note_on_c, 0, 78, 0
2, 62400, Note_on_c, 0, 83, 88
2, 62640, Note_on_c, 0, 83, 0
2, 62640, Control_c, 0, 64, 0
2, 62880, Note_on_c, 0, 58, 62
2, 62880, Note_on_c, 0, 70, 62
2, 63120, Note_on_c, 0, 70, 0
2, 63120, Note_on_c, 0, 58, 0
2, 63120, Note_on_c, 0, 59, 62
2, 63120, Note_on_c, 0, 71, 62
2, 63360, Note_on_c, 0, 71, 0
2, 63360, Note_on_c, 0, 59, 0
2, 63360, Note_on_c, 0, 60, 62
2, 63360, Note_on_c, 0, 72, 62
2, 63840, Note_on_c, 0, 72, 0
2, 63840, Note_on_c, 0, 60, 0
2, 63840, Note_on_c, 0, 57, 62
2, 63840, Note_on_c, 0, 69, 62
2, 64080, Note_on_c, 0, 69, 0
2, 64080, Note_on_c, 0, 57, 0
2, 64080, Note_on_c, 0, 55, 62
2, 64080, Note_on_c, 0, 67, 62
2, 64320, Note_on_c, 0, 67, 0
2, 64320, Note_on_c, 0, 55, 0
2, 64320, Note_on_c, 0, 54, 62
2, 64320, Note_on_c, 0, 66, 62
2, 64800, Note_on_c, 0, 66, 0
2, 64800, Note_on_c, 0, 54, 0
2, 64800, Note_on_c, 0, 57, 75
2, 64800, Note_on_c, 0, 69, 75
2, 65040, Note_on_c, 0, 69, 0
2, 65040, Note_on_c, 0, 57, 0
2, 65040, Note_on_c, 0, 60, 75
2, 65040, Note_on_c, 0, 72, 75
2, 65280, Note_on_c, 0, 72, 0
2, 65280, Note_on_c, 0, 60, 0
2, 65280, Note_on_c, 0, 64, 75
2, 65280, Note_on_c, 0, 76, 75
2, 65760, Note_on_c, 0, 76, 0
2, 65760, Note_on_c, 0, 64, 0
2, 65760, Note_on_c, 0, 63, 62
2, 65760, Note_on_c, 0, 75, 62
2, 66000, Note_on_c, 0, 75, 0
2, 66000, Note_on_c, 0, 63, 0
2, 66720, Note_on_c, 0, 58, 62
2, 66720, Note_on_c, 0, 70, 62
2, 66960, Note_on_c, 0, 70, 0
2, 66960, Note_on_c, 0, 58, 0
2, 66960, Note_on_c, 0, 59, 62
2, 66960, Note_on_c, 0, 71, 62
2, 67200, Note_on_c, 0, 71, 0
2, 67200, Note_on_c, 0, 59, 0
2, 67200, Note_on_c, 0, 60, 62
2, 67200, Note_on_c, 0, 72, 62
2, 67680, Note_on_c, 0, 72, 0
2, 67680, Note_on_c, 0, 60, 0
2, 67680, Note_on_c, 0, 57, 62
2, 67680, Note_on_c, 0, 69, 62
2, 67920, Note_on_c, 0, 69, 0
2, 67920, Note_on_c, 0, 57, 0
2, 67920, Note_on_c, 0, 55, 62
2, 67920, Note_on_c, 0, 67, 62
2, 68160, Note_on_c, 0, 67, 0
2, 68160, Note_on_c, 0, 55, 0
2, 68160, Note_on_c, 0, 54, 62
2, 68160, Note_on_c, 0, 66, 62
2, 68640, Note_on_c, 0, 66, 0
2, 68640, Note_on_c, 0, 54, 0
2, 68640, Note_on_c, 0, 57, 75
2, 68640, Note_on_c, 0, 69, 75
2, 68799, Note_on_c, 0, 69, 0
2, 68799, Note_on_c, 0, 57, 0
2, 68799, Note_on_c, 0, 60, 75
2, 68799, Note_on_c, 0, 72, 75
2, 68960, Note_on_c, 0, 72, 0
2, 68960, Note_on_c, 0, 60, 0
2, 68960, Note_on_c, 0, 64, 75
2, 68960, Note_on_c, 0, 76, 75
2, 69120, Note_on_c, 0, 76, 0
2, 69120, Note_on_c, 0, 64, 0
2, 69120, Note_on_c, 0, 67, 75
2, 69120, Note_on_c, 0, 79, 75
2, 69600, Note_on_c, 0, 79, 0
2, 69600, Note_on_c, 0, 67, 0
2, 69600, Note_on_c, 0, 66, 62
2, 69600, Note_on_c, 0, 78, 62
2, 69840, Note_on_c, 0, 78, 0
2, 69840, Note_on_c, 0, 66, 0
2, 70560, Note_on_c, 0, 71, 62
2, 70719, Note_on_c, 0, 71, 0
2, 70719, Note_on_c, 0, 63, 62
2, 70719, Note_on_c, 0, 75, 62
2, 70880, Note_on_c, 0, 75, 0
2, 70880, Note_on_c, 0, 63, 0
2, 70880, Note_on_c, 0, 66, 62
2, 70880, Note_on_c, 0, 78, 62
2, 71040, Note_on_c, 0, 78, 0
2, 71040, Note_on_c, 0, 66, 0
2, 71040, Note_on_c, 0, 69, 88
2, 71040, Note_on_c, 0, 81, 88
2, 71520, Note_on_c, 0, 81, 0
2, 71520, Note_on_c, 0, 69, 0
2, 71520, Note_on_c, 0, 67, 62
2, 71520, Note_on_c, 0, 79, 62
2, 71760, Note_on_c, 0, 79, 0
2, 71760, Note_on_c, 0, 67, 0
2, 72480, Note_on_c, 0, 72, 75
2, 72639, Note_on_c, 0, 72, 0
2, 72639, Note_on_c, 0, 64, 75
2, 72639, Note_on_c, 0, 76, 75
2, 72800, Note_on_c, 0, 76, 0
2, 72800, Note_on_c, 0, 64, 0
2, 72800, Note_on_c, 0, 67, 75
2, 72800, Note_on_c, 0, 79, 75
2, 72960, Note_on_c, 0, 79, 0
2, 72960, Note_on_c, 0, 67, 0
2, 72960, Note_on_c, 0, 71, 101
2, 72960, Note_on_c, 0, 83, 101
2, 73280, Note_on_c, 0, 83, 0
2, 73280, Note_on_c, 0, 71, 0
2, 73280, Note_on_c, 0, 69, 75
2, 73280, Note_on_c, 0, 81, 75
2, 73440, Note_on_c, 0, 81, 0
2, 73440, Note_on_c, 0, 69, 0
2, 73440, Note_on_c, 0, 63, 75
2, 73440, Note_on_c, 0, 75, 75
2, 73599, Note_on_c, 0, 75, 0
2, 73599, Note_on_c, 0, 63, 0
2, 73599, Note_on_c, 0, 66, 75
2, 73599, Note_on_c, 0, 78, 75
2, 73760, Note_on_c, 0, 78, 0
2, 73760, Note_on_c, 0, 66, 0
2, 73760, Note_on_c, 0, 69, 75
2, 73760, Note_on_c, 0, 81, 75
2, 73920, Note_on_c, 0, 81, 0
2, 73920, Note_on_c, 0, 69, 0
2, 73920, Note_on_c, 0, 72, 101
2, 73920, Note_on_c, 0, 84, 101
2, 74240, Note_on_c, 0, 84, 0
2, 74240, Note_on_c, 0, 72, 0
2, 74240, Note_on_c, 0, 71, 75
2, 74240, Note_on_c, 0, 83, 75
2, 74400, Note_on_c, 0, 83, 0
2, 74400, Note_on_c, 0, 71, 0
2, 74400, Note_on_c, 0, 64, 75
2, 74400, Note_on_c, 0, 76, 75
2, 74559, Note_on_c, 0, 76, 0
2, 74559, Note_on_c, 0, 64, 0
2, 74559, Note_on_c, 0, 68, 75
2, 74559, Note_on_c, 0, 80, 75
2, 74720, Note_on_c, 0, 80, 0
2, 74720, Note_on_c, 0, 68, 0
2, 74720, Note_on_c, 0, 71, 75
2, 74720, Note_on_c, 0, 83, 75
2, 74880, Note_on_c, 0, 83, 0
2, 74880, Note_on_c, 0, 71, 0
2, 74880, Note_on_c, 0, 74, 114
2, 74880, Note_on_c, 0, 86, 114
2, 75200, Note_on_c, 0, 86, 0
2, 75200, Note_on_c, 0, 74, 0
2, 75200, Note_on_c, 0, 72, 88
2, 75200, Note_on_c, 0, 84, 88
2, 75360, Note_on_c, 0, 84, 0
2, 75360, Note_on_c, 0, 72, 0
2, 75360, Note_on_c, 0, 66, 88
2, 75360, Note_on_c, 0, 78, 88
2, 75519, Note_on_c, 0, 78, 0
2, 75519, Note_on_c, 0, 66, 0
2, 75519, Note_on_c, 0, 69, 88
2, 75519, Note_on_c, 0, 81, 88
2, 75680, Note_on_c, 0, 81, 0
2, 75680, Note_on_c, 0, 69, 0
2, 75680, Note_on_c, 0, 72, 88
2, 75680, Note_on_c, 0, 84, 88
2, 75840, Note_on_c, 0, 84, 0
2, 75840, Note_on_c, 0, 72, 0
2, 75840, Note_on_c, 0, 76, 114
2, 75840, Note_on_c, 0, 88, 114
2, 76160, Note_on_c, 0, 88, 0
2, 76160, Note_on_c, 0, 76, 0
2, 76160, Note_on_c, 0, 75, 88
2, 76160, Note_on_c, 0, 87, 88
2, 76320, Note_on_c, 0, 87, 0
2, 76320, Note_on_c, 0, 75, 0
2, 76320, Note_on_c, 0, 66, 101
2, 76320, Note_on_c, 0, 78, 101
2, 76479, Note_on_c, 0, 78, 0
2, 76479, Note_on_c, 0, 66, 0
2, 76479, Note_on_c, 0, 71, 101
2, 76479, Note_on_c, 0, 83, 101
2, 76640, Note_on_c, 0, 83, 0
2, 76640, Note_on_c, 0, 71, 0
2, 76640, Note_on_c, 0, 75, 101
2, 76640, Note_on_c, 0, 87, 101
2, 76800, Note_on_c, 0, 87, 0
2, 76800, Note_on_c, 0, 75, 0
2, 76800, Note_on_c, 0, 78, 127
2, 76800, Note_on_c, 0, 90, 127
2, 77120, Note_on_c, 0, 90, 0
2, 77120, Note_on_c, 0, 78, 0
2, 77120, Note_on_c, 0, 76, 101
2, 77120, Note_on_c, 0, 88, 101
2, 77280, Note_on_c, 0, 88, 0
2, 77280, Note_on_c, 0, 76, 0
2, 77280, Note_on_c, 0, 79, 101
2, 77280, Note_on_c, 0, 83, 101
2, 77280, Note_on_c, 0, 88, 101
2, 77280, Note_on_c, 0, 91, 101
2, 78240, Note_on_c, 0, 91, 0
2, 78240, Note_on_c, 0, 79, 0
2, 78240, Note_on_c, 0, 83, 0
2, 78240, Note_on_c, 0, 88, 0
2, 78240, Note_on_c, 0, 78, 101
2, 78240, Note_on_c, 0, 90, 101
2, 78480, Note_on_c, 0, 90, 0
2, 78480, Note_on_c, 0, 78, 0
2, 78480, Note_on_c, 0, 76, 101
2, 78480, Note_on_c, 0, 88, 101
2, 78720, Note_on_c, 0, 88, 0
2, 78720, Note_on_c, 0, 76, 0
2, 78720, Note_on_c, 0, 81, 101
2, 78720, Note_on_c, 0, 84, 101
2, 78720, Note_on_c, 0, 88, 101
2, 80160, Note_on_c, 0, 88, 0
2, 80160, Note_on_c, 0, 84, 0
2, 80160, Note_on_c, 0, 81, 0
2, 80160, Note_on_c, 0, 72, 101
2, 80160, Note_on_c, 0, 76, 101
2, 80640, Note_on_c, 0, 76, 0
2, 80640, Note_on_c, 0, 72, 0
2, 80640, Note_on_c, 0, 76, 101
2, 80640, Note_on_c, 0, 81, 101
2, 82080, Note_on_c, 0, 81, 0
2, 82080, Note_on_c, 0, 76, 0
2, 82080, Note_on_c, 0, 69, 101
2, 82080, Note_on_c, 0, 72, 101
2, 82080, Note_on_c, 0, 78, 101
2, 82560, Note_on_c, 0, 78, 0
2, 82560, Note_on_c, 0, 72, 0
2, 82560, Note_on_c, 0, 69, 0
2, 82560, Note_on_c, 0, 66, 101
2, 82560, Note_on_c, 0, 69, 101
2, 83040, Note_on_c, 0, 69, 0
2, 83040, Note_on_c, 0, 66, 0
2, 86400, Note_on_c, 0, 67, 88
2, 86400, Note_on_c, 0, 71, 88
2, 86400, Note_on_c, 0, 76, 88
2, 87360, Note_on_c, 0, 76, 0
2, 87360, Note_on_c, 0, 71, 0
2, 87360, Note_on_c, 0, 67, 0
2, 87360, Note_on_c, 0, 67, 101
2, 87360, Note_on_c, 0, 72, 101
2, 87360, Note_on_c, 0, 76, 101
2, 88320, Note_on_c, 0, 76, 0
2, 88320, Note_on_c, 0, 72, 0
2, 88320, Note_on_c, 0, 67, 0
2, 88320, Note_on_c, 0, 79, 127
2, 88320, Note_on_c, 0, 84, 127
2, 88320, Note_on_c, 0, 88, 127
2, 88320, Note_on_c, 0, 91, 127
2, 88800, Note_on_c, 0, 91, 0
2, 88800, Note_on_c, 0, 79, 0
2, 88800, Note_on_c, 0, 84, 0
2, 88800, Note_on_c, 0, 88, 0
2, 88800, Note_on_c, 0, 78, 127
2, 88800, Note_on_c, 0, 90, 127
2, 89040, Note_on_c, 0, 90, 0
2, 89040, Note_on_c, 0, 78, 0
2, 89040, Note_on_c, 0, 76, 127
2, 89040, Note_on_c, 0, 88, 127
2, 89280, Note_on_c, 0, 88, 0
2, 89280, Note_on_c, 0, 76, 0
2, 89280, Note_on_c, 0, 74, 101
2, 89280, Note_on_c, 0, 78, 101
2, 89280, Note_on_c, 0, 81, 101
2, 89280, Note_on_c, 0, 86, 101
2, 89520, Note_on_c, 0, 86, 0
2, 89520, Note_on_c, 0, 74, 0
2, 89520, Note_on_c, 0, 78, 0
2, 89520, Note_on_c, 0, 81, 0
2, 89520, Note_on_c, 0, 72, 101
2, 89520, Note_on_c, 0, 84, 101
2, 90000, Note_on_c, 0, 84, 0
2, 90000, Note_on_c, 0, 72, 0
2, 90000, Note_on_c, 0, 71, 101
2, 90000, Note_on_c, 0, 83, 101
2, 90120, Note_on_c, 0, 83, 0
2, 90120, Note_on_c, 0, 71, 0
2, 90120, Note_on_c, 0, 69, 101
2, 90120, Note_on_c, 0, 81, 101
2, 90240, Note_on_c, 0, 81, 0
2, 90240, Note_on_c, 0, 69, 0
2, 90240, Note_on_c, 0, 67, 101
2, 90240, Note_on_c, 0, 71, 101
2, 90240, Note_on_c, 0, 74, 101
2, 90240, Note_on_c, 0, 79, 101
2, 90960, Note_on_c, 0, 79, 0
2, 90960, Note_on_c, 0, 67, 0
2, 90960, Note_on_c, 0, 71, 0
2, 90960, Note_on_c, 0, 74, 0
2, 91680, Control_c, 0, 64, 127
2, 91680, Note_on_c, 0, 79, 101
2, 91748, Note_on_c, 0, 79, 0
2, 91748, Note_on_c, 0, 81, 101
2, 91817, Note_on_c, 0, 81, 0
2, 91817, Note_on_c, 0, 83, 101
2, 91885, Note_on_c, 0, 83, 0
2, 91885, Note_on_c, 0, 85, 101
2, 91954, Note_on_c, 0, 85, 0
2, 91954, Note_on_c, 0, 87, 101
2, 92022, Note_on_c, 0, 87, 0
2, 92022, Note_on_c, 0, 88, 101
2, 92091, Note_on_c, 0, 88, 0
2, 92091, Note_on_c, 0, 90, 101
2, 92160, Note_on_c, 0, 90, 0
2, 92160, Control_c, 0, 64, 0
2, 92160, Note_on_c, 0, 79, 127
2, 92160, Note_on_c, 0, 84, 127
2, 92160, Note_on_c, 0, 88, 127
2, 92160, Note_on_c, 0, 91, 127
2, 92640, Note_on_c, 0, 91, 0
2, 92640, Note_on_c, 0, 79, 0
2, 92640, Note_on_c, 0, 84, 0
2, 92640, Note_on_c, 0, 88, 0
2, 92640, Note_on_c, 0, 78, 127
2, 92640, Note_on_c, 0, 90, 127
2, 92880, Note_on_c, 0, 90, 0
2, 92880, Note_on_c, 0, 78, 0
2, 92880, Note_on_c, 0, 76, 127
2, 92880, Note_on_c, 0, 88, 127
2, 93120, Note_on_c, 0, 88, 0
2, 93120, Note_on_c, 0, 76, 0
2, 93120, Note_on_c, 0, 74, 101
2, 93120, Note_on_c, 0, 78, 101
2, 93120, Note_on_c, 0, 81, 101
2, 93120, Note_on_c, 0, 86, 101
2, 93360, Note_on_c, 0, 86, 0
2, 93360, Note_on_c, 0, 74, 0
2, 93360, Note_on_c, 0, 78, 0
2, 93360, Note_on_c, 0, 81, 0
2, 93360, Note_on_c, 0, 72, 101
2, 93360, Note_on_c, 0, 84, 101
2, 93840, Note_on_c, 0, 84, 0
2, 93840, Note_on_c, 0, 72, 0
2, 93840, Note_on_c, 0, 71, 101
2, 93840, Note_on_c, 0, 83, 101
2, 93960, Note_on_c, 0, 83, 0
2, 93960, Note_on_c, 0, 71, 0
2, 93960, Note_on_c, 0, 69, 101
2, 93960, Note_on_c, 0, 81, 101
2, 94080, Note_on_c, 0, 81, 0
2, 94080, Note_on_c, 0, 69, 0
2, 94080, Note_on_c, 0, 67, 101
2, 94080, Note_on_c, 0, 71, 101
2, 94080, Note_on_c, 0, 74, 101
2, 94080, Note_on_c, 0, 79, 101
2, 94800, Note_on_c, 0, 79, 0
2, 94800, Note_on_c, 0, 67, 0
2, 94800, Note_on_c, 0, 71, 0
2, 94800, Note_on_c, 0, 74, 0
2, 95520, Control_c, 0, 64, 127
2, 95520, Note_on_c, 0, 79, 101
2, 95588, Note_on_c, 0, 79, 0
2, 95588, Note_on_c, 0, 81, 101
2, 95657, Note_on_c, 0, 81, 0
2, 95657, Note_on_c, 0, 83, 101
2, 95725, Note_on_c, 0, 83, 0
2, 95725, Note_on_c, 0, 85, 101
2, 95794, Note_on_c, 0, 85, 0
2, 95794, Note_on_c, 0, 87, 101
2, 95862, Note_on_c, 0, 87, 0
2, 95862, Note_on_c, 0, 88, 101
2, 95931, Note_on_c, 0, 88, 0
2, 95931, Note_on_c, 0, 90, 101
2, 96000, Note_on_c, 0, 90, 0
2, 96000, Control_c, 0, 64, 0
2, 96000, Note_on_c, 0, 79, 127
2, 96000, Note_on_c, 0, 84, 127
2, 96000, Note_on_c, 0, 88, 127
2, 96000, Note_on_c, 0, 91, 127
2, 96480, Note_on_c, 0, 91, 0
2, 96480, Note_on_c, 0, 79, 0
2, 96480, Note_on_c, 0, 84, 0
2, 96480, Note_on_c, 0, 88, 0
2, 96480, Note_on_c, 0, 78, 101
2, 96480, Note_on_c, 0, 90, 101
2, 96720, Note_on_c, 0, 90, 0
2, 96720, Note_on_c, 0, 78, 0
2, 96720, Note_on_c, 0, 76, 101
2, 96720, Note_on_c, 0, 88, 101
2, 96960, Note_on_c, 0, 88, 0
2, 96960, Note_on_c, 0, 76, 0
2, 96960, Control_c, 0, 64, 0
2, 96960, Note_on_c, 0, 79, 101
2, 96960, Note_on_c, 0, 84, 101
2, 96960, Note_on_c, 0, 88, 101
2, 96960, Note_on_c, 0, 91, 101
2, 97440, Note_on_c, 0, 91, 0
2, 97440, Note_on_c, 0, 79, 0
2, 97440, Note_on_c, 0, 84, 0
2, 97440, Note_on_c, 0, 88, 0
2, 97440, Note_on_c, 0, 78, 101
2, 97440, Note_on_c, 0, 90, 101
2, 97680, Note_on_c, 0, 90, 0
2, 97680, Note_on_c, 0, 78, 0
2, 97680, Note_on_c, 0, 76, 101
2, 97680, Note_on_c, 0, 88, 101
2, 97920, Note_on_c, 0, 88, 0
2, 97920, Note_on_c, 0, 76, 0
2, 97920, Note_on_c, 0, 79, 101
2, 97920, Note_on_c, 0, 83, 101
2, 97920, Note_on_c, 0, 88, 101
2, 97920, Note_on_c, 0, 91, 101
2, 98079, Note_on_c, 0, 91, 0
2, 98079, Note_on_c, 0, 79, 0
2, 98079, Note_on_c, 0, 83, 0
2, 98079, Note_on_c, 0, 88, 0
2, 98079, Note_on_c, 0, 78, 101
2, 98079, Note_on_c, 0, 90, 101
2, 98240, Note_on_c, 0, 90, 0
2, 98240, Note_on_c, 0, 78, 0
2, 98240, Note_on_c, 0, 76, 101
2, 98240, Note_on_c, 0, 88, 101
2, 98400, Note_on_c, 0, 88, 0
2, 98400, Note_on_c, 0, 76, 0
2, 98400, Note_on_c, 0, 79, 101
2, 98400, Note_on_c, 0, 91, 101
2, 98559, Note_on_c, 0, 91, 0
2, 98559, Note_on_c, 0, 79, 0
2, 98559, Note_on_c, 0, 78, 101
2, 98559, Note_on_c, 0, 90, 101
2, 98720, Note_on_c, 0, 90, 0
2, 98720, Note_on_c, 0, 78, 0
2, 98720, Note_on_c, 0, 76, 101
2, 98720, Note_on_c, 0, 88, 101
2, 98880, Note_on_c, 0, 88, 0
2, 98880, Note_on_c, 0, 76, 0
2, 98880, Note_on_c, 0, 79, 101
2, 98880, Note_on_c, 0, 82, 101
2, 98880, Note_on_c, 0, 88, 101
2, 98880, Note_on_c, 0, 91, 101
2, 99039, Note_on_c, 0, 91, 0
2, 99039, Note_on_c, 0, 79, 0
2, 99039, Note_on_c, 0, 82, 0
2, 99039, Note_on_c, 0, 88, 0
2, 99039, Note_on_c, 0, 78, 101
2, 99039, Note_on_c, 0, 90, 101
2, 99200, Note_on_c, 0, 90, 0
2, 99200, Note_on_c, 0, 78, 0
2, 99200, Note_on_c, 0, 76, 101
2, 99200, Note_on_c, 0, 88, 101
2, 99360, Note_on_c, 0, 88, 0
2, 99360, Note_on_c, 0, 76, 0
2, 99360, Note_on_c, 0, 79, 101
2, 99360, Note_on_c, 0, 91, 101
2, 99519, Note_on_c, 0, 91, 0
2, 99519, Note_on_c, 0, 79, 0
2, 99519, Note_on_c, 0, 78, 101
2, 99519, Note_on_c, 0, 90, 101
2, 99680, Note_on_c, 0, 90, 0
2, 99680, Note_on_c, 0, 78, 0
2, 99680, Note_on_c, 0, 76, 101
2, 99680, Note_on_c, 0, 88, 101
2, 99840, Note_on_c, 0, 88, 0
2, 99840, Note_on_c, 0, 76, 0
2, 99840, Note_on_c, 0, 79, 101
2, 99840, Note_on_c, 0, 91, 101
2, 99960, Note_on_c, 0, 91, 0
2, 99960, Note_on_c, 0, 79, 0
2, 99960, Note_on_c, 0, 78, 101
2, 99960, Note_on_c, 0, 90, 101
2, 100080, Note_on_c, 0, 90, 0
2, 100080, Note_on_c, 0, 78, 0
2, 100080, Note_on_c, 0, 76, 101
2, 100080, Note_on_c, 0, 88, 101
2, 100200, Note_on_c, 0, 88, 0
2, 100200, Note_on_c, 0, 76, 0
2, 100200, Note_on_c, 0, 78, 101
2, 100200, Note_on_c, 0, 90, 101
2, 100320, Note_on_c, 0, 90, 0
2, 100320, Note_on_c, 0, 78, 0
2, 100320, Note_on_c, 0, 79, 101
2, 100320, Note_on_c, 0, 91, 101
2, 100440, Note_on_c, 0, 91, 0
2, 100440, Note_on_c, 0, 79, 0
2, 100440, Note_on_c, 0, 78, 101
2, 100440, Note_on_c, 0, 90, 101
2, 100560, Note_on_c, 0, 90, 0
2, 100560, Note_on_c, 0, 78, 0
2, 100560, Note_on_c, 0, 76, 101
2, 100560, Note_on_c, 0, 88, 101
2, 100680, Note_on_c, 0, 88, 0
2, 100680, Note_on_c, 0, 76, 0
2, 100680, Note_on_c, 0, 78, 101
2, 100680, Note_on_c, 0, 90, 101
2, 100800, Note_on_c, 0, 90, 0
2, 100800, Note_on_c, 0, 78, 0
2, 100800, Note_on_c, 0, 79, 101
2, 100800, Note_on_c, 0, 91, 101
2, 100920, Note_on_c, 0, 91, 0
2, 100920, Note_on_c, 0, 79, 0
2, 100920, Note_on_c, 0, 78, 101
2, 100920, Note_on_c, 0, 90, 101
2, 101040, Note_on_c, 0, 90, 0
2, 101040, Note_on_c, 0, 78, 0
2, 101040, Note_on_c, 0, 76, 101
2, 101040, Note_on_c, 0, 88, 101
2, 101160, Note_on_c, 0, 88, 0
2, 101160, Note_on_c, 0, 76, 0
2, 101160, Note_on_c, 0, 78, 101
2, 101160, Note_on_c, 0, 90, 101
2, 101280, Note_on_c, 0, 90, 0
2, 101280, Note_on_c, 0, 78, 0
2, 101280, Note_on_c, 0, 79, 101
2, 101280, Note_on_c, 0, 91, 101
2, 101400, Note_on_c, 0, 91, 0
2, 101400, Note_on_c, 0, 79, 0
2, 101400, Note_on_c, 0, 78, 101
2, 101400, Note_on_c, 0, 90, 101
2, 101520, Note_on_c, 0, 90, 0
2, 101520, Note_on_c, 0, 78, 0
2, 101520, Note_on_c, 0, 76, 101
2, 101520, Note_on_c, 0, 88, 101
2, 101640, Note_on_c, 0, 88, 0
2, 101640, Note_on_c, 0, 76, 0
2, 101640, Note_on_c, 0, 78, 101
2, 101640, Note_on_c, 0, 90, 101
2, 101760, Note_on_c, 0, 90, 0
2, 101760, Note_on_c, 0, 78, 0
2, 101760, Note_on_c, 0, 79, 101
2, 101760, Note_on_c, 0, 91, 101
2, 101880, Note_on_c, 0, 91, 0
2, 101880, Note_on_c, 0, 79, 0
2, 101880, Note_on_c, 0, 78, 101
2, 101880, Note_on_c, 0, 90, 101
2, 102000, Note_on_c, 0, 90, 0
2, 102000, Note_on_c, 0, 78, 0
2, 102000, Note_on_c, 0, 76, 101
2, 102000, Note_on_c, 0, 88, 101
2, 102120, Note_on_c, 0, 88, 0
2, 102120, Note_on_c, 0, 76, 0
2, 102120, Note_on_c, 0, 78, 101
2, 102120, Note_on_c, 0, 90, 101
2, 102240, Note_on_c, 0, 90, 0
2, 102240, Note_on_c, 0, 78, 0
2, 102240, Note_on_c, 0, 91, 127
2, 102320, Note_on_c, 0, 91, 0
2, 102320, Note_on_c, 0, 90, 127
2, 102399, Note_on_c, 0, 90, 0
2, 102399, Note_on_c, 0, 88, 127
2, 102480, Note_on_c, 0, 88, 0
2, 102480, Note_on_c, 0, 88, 127
2, 102560, Note_on_c, 0, 88, 0
2, 102560, Note_on_c, 0, 90, 127
2, 102639, Note_on_c, 0, 90, 0
2, 102639, Note_on_c, 0, 91, 127
2, 102720, Note_on_c, 0, 91, 0
2, 102720, Note_on_c, 0, 91, 127
2, 102800, Note_on_c, 0, 91, 0
2, 102800, Note_on_c, 0, 90, 127
2, 102879, Note_on_c, 0, 90, 0
2, 102879, Note_on_c, 0, 88, 127
2, 102960, Note_on_c, 0, 88, 0
2, 102960, Note_on_c, 0, 88, 127
2, 103040, Note_on_c, 0, 88, 0
2, 103040, Note_on_c, 0, 90, 127
2, 103119, Note_on_c, 0, 90, 0
2, 103119, Note_on_c, 0, 91, 127
2, 103200, Note_on_c, 0, 91, 0
2, 103200, Note_on_c, 0, 91, 127
2, 103280, Note_on_c, 0, 91, 0
2, 103280, Note_on_c, 0, 90, 127
2, 103359, Note_on_c, 0, 90, 0
2, 103359, Note_on_c, 0, 88, 127
2, 103440, Note_on_c, 0, 88, 0
2, 103440, Note_on_c, 0, 88, 127
2, 103520, Note_on_c, 0, 88, 0
2, 103520, Note_on_c, 0, 90, 127
2, 103599, Note_on_c, 0, 90, 0
2, 103599, Note_on_c, 0, 91, 127
2, 103680, Note_on_c, 0, 91, 0
2, 103680, Note_on_c, 0, 84, 127
2, 103680, Note_on_c, 0, 88, 127
2, 103680, Note_on_c, 0, 91, 127
2, 104640, Note_on_c, 0, 91, 0
2, 104640, Note_on_c, 0, 88, 0
2, 104640, Note_on_c, 0, 84, 0
2, 104640, Note_on_c, 0, 78, 101
2, 104640, Note_on_c, 0, 81, 101
2, 104640, Note_on_c, 0, 86, 101
2, 105120, Note_on_c, 0, 86, 0
2, 105120, Note_on_c, 0, 81, 0
2, 105120, Note_on_c, 0, 78, 0
2, 105120, Note_on_c, 0, 74, 101
2, 105120, Note_on_c, 0, 78, 101
2, 105120, Note_on_c, 0, 81, 101
2, 105600, Note_on_c, 0, 81, 0
2, 105600, Note_on_c, 0, 78, 0
2, 105600, Note_on_c, 0, 74, 0
2, 105600, Control_c, 0, 64, 127
2, 105600, Note_on_c, 0, 71, 114
2, 105600, Note_on_c, 0, 74, 114
2, 105600, Note_on_c, 0, 79, 114
2, 105660, Note_on_c, 0, 79, 0
2, 105660, Note_on_c, 0, 74, 0
2, 105660, Note_on_c, 0, 71, 0
2, 105660, Note_on_c, 0, 67, 114
2, 105720, Note_on_c, 0, 67, 0
2, 105720, Note_on_c, 0, 71, 88
2, 105720, Note_on_c, 0, 74, 88
2, 105720, Note_on_c, 0, 79, 88
2, 105780, Note_on_c, 0, 79, 0
2, 105780, Note_on_c, 0, 74, 0
2, 105780, Note_on_c, 0, 71, 0
2, 105780, Note_on_c, 0, 67, 88
2, 105840, Note_on_c, 0, 67, 0
2, 105840, Note_on_c, 0, 71, 88
2, 105840, Note_on_c, 0, 74, 88
2, 105840, Note_on_c, 0, 79, 88
2, 105900, Note_on_c, 0, 79, 0
2, 105900, Note_on_c, 0, 74, 0
2, 105900, Note_on_c, 0, 71, 0
2, 105900, Note_on_c, 0, 67, 88
2, 105960, Note_on_c, 0, 67, 0
2, 105960, Note_on_c, 0, 71, 88
2, 105960, Note_on_c, 0, 74, 88
2, 105960, Note_on_c, 0, 79, 88
2, 106020, Note_on_c, 0, 79, 0
2, 106020, Note_on_c, 0, 74, 0
2, 106020, Note_on_c, 0, 71, 0
2, 106020, Note_on_c, 0, 67, 88
2, 106080, Note_on_c, 0, 67, 0
2, 106080, Note_on_c, 0, 71, 88
2, 106080, Note_on_c, 0, 74, 88
2, 106080, Note_on_c, 0, 79, 88
2, 106140, Note_on_c, 0, 79, 0
2, 106140, Note_on_c, 0, 74, 0
2, 106140, Note_on_c, 0, 71, 0
2, 106140, Note_on_c, 0, 67, 88
2, 106200, Note_on_c, 0, 67, 0
2, 106200, Note_on_c, 0, 71, 88
2, 106200, Note_on_c, 0, 74, 88
2, 106200, Note_on_c, 0, 79, 88
2, 106260, Note_on_c, 0, 79, 0
2, 106260, Note_on_c, 0, 74, 0
2, 106260, Note_on_c, 0, 71, 0
2, 106260, Note_on_c, 0, 67, 88
2, 106320, Note_on_c, 0, 67, 0
2, 106320, Note_on_c, 0, 71, 88
2, 106320, Note_on_c, 0, 74, 88
2, 106320, Note_on_c, 0, 79, 88
2, 106380, Note_on_c, 0, 79, 0
2, 106380, Note_on_c, 0, 74, 0
2, 106380, Note_on_c, 0, 71, 0
2, 106380, Note_on_c, 0, 67, 88
2, 106440, Note_on_c, 0, 67, 0
2, 106440, Note_on_c, 0, 71, 88
2, 106440, Note_on_c, 0, 74, 88
2, 106440, Note_on_c, 0, 79, 88
2, 106500, Note_on_c, 0, 79, 0
2, 106500, Note_on_c, 0, 74, 0
2, 106500, Note_on_c, 0, 71, 0
2, 106500, Control_c, 0, 64, 0
2, 106500, Note_on_c, 0, 67, 88
2, 106560, Note_on_c, 0, 67, 0
2, 106560, Control_c, 0, 64, 127
2, 106560, Note_on_c, 0, 76, 114
2, 106560, Note_on_c, 0, 79, 114
2, 106560, Note_on_c, 0, 83, 114
2, 106620, Note_on_c, 0, 83, 0
2, 106620, Note_on_c, 0, 79, 0
2, 106620, Note_on_c, 0, 76, 0
2, 106620, Note_on_c, 0, 71, 114
2, 106680, Note_on_c, 0, 71, 0
2, 106680, Note_on_c, 0, 76, 88
2, 106680, Note_on_c, 0, 79, 88
2, 106680, Note_on_c, 0, 83, 88
2, 106740, Note_on_c, 0, 83, 0
2, 106740, Note_on_c, 0, 79, 0
2, 106740, Note_on_c, 0, 76, 0
2, 106740, Note_on_c, 0, 71, 88
2, 106800, Note_on_c, 0, 71, 0
2, 106800, Note_on_c, 0, 76, 88
2, 106800, Note_on_c, 0, 79, 88
2, 106800, Note_on_c, 0, 83, 88
2, 106860, Note_on_c, 0, 83, 0
2, 106860, Note_on_c, 0, 79, 0
2, 106860, Note_on_c, 0, 76, 0
2, 106860, Note_on_c, 0, 71, 88
2, 106920, Note_on_c, 0, 71, 0
2, 106920, Note_on_c, 0, 76, 88
2, 106920, Note_on_c, 0, 79, 88
2, 106920, Note_on_c, 0, 83, 88
2, 106980, Note_on_c, 0, 83, 0
2, 106980, Note_on_c, 0, 79, 0
2, 106980, Note_on_c, 0, 76, 0
2, 106980, Control_c, 0, 64, 0
2, 106980, Note_on_c, 0, 71, 88
2, 107040, Note_on_c, 0, 71, 0
2, 107040, Control_c, 0, 64, 127
2, 107040, Note_on_c, 0, 79, 114
2, 107040, Note_on_c, 0, 83, 114
2, 107040, Note_on_c, 0, 88, 114
2, 107100, Note_on_c, 0, 88, 0
2, 107100, Note_on_c, 0, 83, 0
2, 107100, Note_on_c, 0, 79, 0
2, 107100, Note_on_c, 0, 76, 114
2, 107160, Note_on_c, 0, 76, 0
2, 107160, Note_on_c, 0, 79, 88
2, 107160, Note_on_c, 0, 83, 88
2, 107160, Note_on_c, 0, 88, 88
2, 107220, Note_on_c, 0, 88, 0
2, 107220, Note_on_c, 0, 83, 0
2, 107220, Note_on_c, 0, 79, 0
2, 107220, Note_on_c, 0, 76, 88
2, 107280, Note_on_c, 0, 76, 0
2, 107280, Note_on_c, 0, 79, 88
2, 107280, Note_on_c, 0, 83, 88
2, 107280, Note_on_c, 0, 88, 88
2, 107340, Note_on_c, 0, 88, 0
2, 107340, Note_on_c, 0, 83, 0
2, 107340, Note_on_c, 0, 79, 0
2, 107340, Note_on_c, 0, 76, 88
2, 107400, Note_on_c, 0, 76, 0
2, 107400, Note_on_c, 0, 79, 88
2, 107400, Note_on_c, 0, 83, 88
2, 107400, Note_on_c, 0, 88, 88
2, 107460, Note_on_c, 0, 88, 0
2, 107460, Note_on_c, 0, 83, 0
2, 107460, Note_on_c, 0, 79, 0
2, 107460, Control_c, 0, 64, 0
2, 107460, Note_on_c, 0, 76, 88
2, 107520, Note_on_c, 0, 76, 0
2, 107520, Note_on_c, 0, 84, 127
2, 107520, Note_on_c, 0, 88, 127
2, 107520, Note_on_c, 0, 91, 127
2, 108480, Note_on_c, 0, 91, 0
2, 108480, Note_on_c, 0, 88, 0
2, 108480, Note_on_c, 0, 84, 0
2, 108480, Note_on_c, 0, 78, 101
2, 108480, Note_on_c, 0, 81, 101
2, 108480, Note_on_c, 0, 86, 101
2, 108960, Note_on_c, 0, 86, 0
2, 108960, Note_on_c, 0, 81, 0
2, 108960, Note_on_c, 0, 78, 0
2, 108960, Note_on_c, 0, 74, 101
2, 108960, Note_on_c, 0, 78, 101
2, 108960, Note_on_c, 0, 81, 101
2, 109440, Note_on_c, 0, 81, 0
2, 109440, Note_on_c, 0, 78, 0
2, 109440, Note_on_c, 0, 74, 0
2, 109440, Note_on_c, 0, 67, 101
2, 109440, Note_on_c, 0, 71, 101
2, 109440, Note_on_c, 0, 74, 101
2, 109440, Note_on_c, 0, 79, 101
2, 109680, Note_on_c, 0, 79, 0
2, 109680, Note_on_c, 0, 67, 0
2, 109680, Note_on_c, 0, 71, 0
2, 109680, Note_on_c, 0, 74, 0
2, 109920, Control_c, 0, 64, 127
2, 109920, Note_on_c, 0, 55, 88
2, 110000, Note_on_c, 0, 55, 0
2, 110000, Note_on_c, 0, 59, 88
2, 110079, Note_on_c, 0, 59, 0
2, 110079, Note_on_c, 0, 62, 88
2, 110160, Note_on_c, 0, 62, 0
2, 110160, Note_on_c, 0, 67, 88
2, 110240, Note_on_c, 0, 67, 0
2, 110240, Note_on_c, 0, 71, 88
2, 110319, Note_on_c, 0, 71, 0
2, 110319, Note_on_c, 0, 74, 88
2, 110400, Note_on_c, 0, 74, 0
2, 110400, Control_c, 0, 64, 0
2, 110400, Note_on_c, 0, 79, 88
2, 110640, Note_on_c, 0, 79, 0
2, 110880, Note_on_c, 0, 64, 88
2, 110880, Note_on_c, 0, 76, 88
2, 111120, Note_on_c, 0, 76, 0
2, 111120, Note_on_c, 0, 64, 0
2, 111120, Note_on_c, 0, 62, 88
2, 111120, Note_on_c, 0, 74, 88
2, 111360, Note_on_c, 0, 74, 0
2, 111360, Note_on_c, 0, 62, 0
2, 111360, Note_on_c, 0, 62, 114
2, 111360, Note_on_c, 0, 67, 114
2, 111360, Note_on_c, 0, 71, 114
2, 111720, Note_on_c, 0, 71, 0
2, 111720, Note_on_c, 0, 67, 0
2, 111720, Note_on_c, 0, 62, 0
2, 111720, Note_on_c, 0, 59, 88
2, 111720, Note_on_c, 0, 74, 88
2, 111840, Note_on_c, 0, 74, 0
2, 111840, Note_on_c, 0, 59, 0
2, 111840, Note_on_c, 0, 60, 88
2, 111840, Note_on_c, 0, 67, 88
2, 111840, Note_on_c, 0, 72, 88
2, 112080, Note_on_c, 0, 72, 0
2, 112080, Note_on_c, 0, 67, 0
2, 112080, Note_on_c, 0, 60, 0
2, 112800, Note_on_c, 0, 71, 88
2, 112800, Note_on_c, 0, 83, 88
2, 113040, Note_on_c, 0, 83, 0
2, 113040, Note_on_c, 0, 71, 0
2, 113040, Note_on_c, 0, 69, 88
2, 113040, Note_on_c, 0, 81, 88
2, 113280, Note_on_c, 0, 81, 0
2, 113280, Note_on_c, 0, 69, 0
2, 113280, Note_on_c, 0, 69, 114
2, 113280, Note_on_c, 0, 74, 114
2, 113280, Note_on_c, 0, 78, 114
2, 113640, Note_on_c, 0, 78, 0
2, 113640, Note_on_c, 0, 74, 0
2, 113640, Note_on_c, 0, 69, 0
2, 113640, Note_on_c, 0, 66, 88
2, 113640, Note_on_c, 0, 81, 88
2, 113760, Note_on_c, 0, 81, 0
2, 113760, Note_on_c, 0, 66, 0
2, 113760, Note_on_c, 0, 67, 88
2, 113760, Note_on_c, 0, 71, 88
2, 113760, Note_on_c, 0, 74, 88
2, 113760, Note_on_c, 0, 79, 88
2, 114000, Note_on_c, 0, 79, 0
2, 114000, Note_on_c, 0, 67, 0
2, 114000, Note_on_c, 0, 71, 0
2, 114000, Note_on_c, 0, 74, 0
2, 114720, Note_on_c, 0, 76, 88
2, 114720, Note_on_c, 0, 88, 88
2, 114960, Note_on_c, 0, 88, 0
2, 114960, Note_on_c, 0, 76, 0
2, 114960, Note_on_c, 0, 74, 88
2, 114960, Note_on_c, 0, 86, 88
2, 115200, Note_on_c, 0, 86, 0
2, 115200, Note_on_c, 0, 74, 0
2, 115200, Note_on_c, 0, 74, 114
2, 115200, Note_on_c, 0, 79, 114
2, 115200, Note_on_c, 0, 83, 114
2, 115560, Note_on_c, 0, 83, 0
2, 115560, Note_on_c, 0, 79, 0
2, 115560, Note_on_c, 0, 74, 0
2, 115560, Note_on_c, 0, 71, 101
2, 115560, Note_on_c, 0, 86, 101
2, 115680, Note_on_c, 0, 86, 0
2, 115680, Note_on_c, 0, 71, 0
2, 115680, Note_on_c, 0, 72, 101
2, 115680, Note_on_c, 0, 79, 101
2, 115680, Note_on_c, 0, 84, 101
2, 115920, Note_on_c, 0, 84, 0
2, 115920, Note_on_c, 0, 79, 0
2, 115920, Note_on_c, 0, 72, 0
2, 116640, Note_on_c, 0, 83, 101
2, 116640, Note_on_c, 0, 95, 101
2, 116880, Note_on_c, 0, 95, 0
2, 116880, Note_on_c, 0, 83, 0
2, 116880, Note_on_c, 0, 81, 101
2, 116880, Note_on_c, 0, 93, 101
2, 117120, Note_on_c, 0, 93, 0
2, 117120, Note_on_c, 0, 81, 0
2, 117120, Note_on_c, 0, 81, 127
2, 117120, Note_on_c, 0, 86, 127
2, 117120, Note_on_c, 0, 90, 127
2, 117480, Note_on_c, 0, 90, 0
2, 117480, Note_on_c, 0, 86, 0
2, 117480, Note_on_c, 0, 81, 0
2, 117480, Note_on_c, 0, 78, 101
2, 117480, Note_on_c, 0, 93, 101
2, 117600, Note_on_c, 0, 93, 0
2, 117600, Note_on_c, 0, 78, 0
2, 117600, Note_on_c, 0, 79, 101
2, 117600, Note_on_c, 0, 83, 101
2, 117600, Note_on_c, 0, 86, 101
2, 117600, Note_on_c, 0, 91, 101
2, 117840, Note_on_c, 0, 91, 0
2, 117840, Note_on_c, 0, 79, 0
2, 117840, Note_on_c, 0, 83, 0
2, 117840, Note_on_c, 0, 86, 0
2, 118560, Note_on_c, 0, 83, 101
2, 118560, Note_on_c, 0, 95, 101
2, 118800, Note_on_c, 0, 95, 0
2, 118800, Note_on_c, 0, 83, 0
2, 118800, Note_on_c, 0, 81, 101
2, 118800, Note_on_c, 0, 93, 101
2, 119040, Note_on_c, 0, 93, 0
2, 119040, Note_on_c, 0, 81, 0
2, 119040, Note_on_c, 0, 81, 127
2, 119040, Note_on_c, 0, 86, 127
2, 119040, Note_on_c, 0, 90, 127
2, 119400, Note_on_c, 0, 90, 0
2, 119400, Note_on_c, 0, 86, 0
2, 119400, Note_on_c, 0, 81, 0
2, 119400, Note_on_c, 0, 78, 101
2, 119400, Note_on_c, 0, 93, 101
2, 119520, Note_on_c, 0, 93, 0
2, 119520, Note_on_c, 0, 78, 0
2, 119520, Note_on_c, 0, 79, 101
2, 119520, Note_on_c, 0, 83, 101
2, 119520, Note_on_c, 0, 86, 101
2, 119520, Note_on_c, 0, 91, 101
2, 119760, Note_on_c, 0, 91, 0
2, 119760, Note_on_c, 0, 79, 0
2, 119760, Note_on_c, 0, 83, 0
2, 119760, Note_on_c, 0, 86, 0
2, 120480, Note_on_c, 0, 83, 101
2, 120480, Note_on_c, 0, 95, 101
2, 120720, Note_on_c, 0, 95, 0
2, 120720, Note_on_c, 0, 83, 0
2, 120720, Note_on_c, 0, 81, 101
2, 120720, Note_on_c, 0, 93, 101
2, 120960, Note_on_c, 0, 93, 0
2, 120960, Note_on_c, 0, 81, 0
2, 120960, Note_on_c, 0, 81, 101
2, 120960, Note_on_c, 0, 90, 101
2, 121200, Note_on_c, 0, 90, 0
2, 121200, Note_on_c, 0, 81, 0
2, 121200, Note_on_c, 0, 78, 101
2, 121200, Note_on_c, 0, 93, 101
2, 121680, Note_on_c, 0, 93, 0
2, 121680, Note_on_c, 0, 78, 0
2, 121680, Note_on_c, 0, 79, 101
2, 121680, Note_on_c, 0, 91, 101
2, 121920, Note_on_c, 0, 91, 0
2, 121920, Note_on_c, 0, 79, 0
2, 121920, Note_on_c, 0, 76, 101
2, 121920, Note_on_c, 0, 85, 101
2, 122160, Note_on_c, 0, 85, 0
2, 122160, Note_on_c, 0, 76, 0
2, 122160, Note_on_c, 0, 73, 101
2, 122160, Note_on_c, 0, 88, 101
2, 122640, Note_on_c, 0, 88, 0
2, 122640, Note_on_c, 0, 73, 0
2, 122640, Note_on_c, 0, 74, 101
2, 122640, Note_on_c, 0, 86, 101
2, 122880, Note_on_c, 0, 86, 0
2, 122880, Note_on_c, 0, 74, 0
2, 122880, Note_on_c, 0, 72, 101
2, 122880, Note_on_c, 0, 82, 101
2, 123120, Note_on_c, 0, 82, 0
2, 123120, Note_on_c, 0, 72, 0
2, 123120, Note_on_c, 0, 70, 101
2, 123120, Note_on_c, 0, 84, 101
2, 123600, Note_on_c, 0, 84, 0
2, 123600, Note_on_c, 0, 70, 0
2, 123600, Note_on_c, 0, 71, 101
2, 123600, Note_on_c, 0, 83, 101
2, 123840, Note_on_c, 0, 83, 0
2, 123840, Note_on_c, 0, 71, 0
2, 123840, Note_on_c, 0, 69, 101
2, 123840, Note_on_c, 0, 78, 101
2, 124080, Note_on_c, 0, 78, 0
2, 124080, Note_on_c, 0, 69, 0
2, 124080, Note_on_c, 0, 66, 101
2, 124080, Note_on_c, 0, 81, 101
2, 124560, Note_on_c, 0, 81, 0
2, 124560, Note_on_c, 0, 66, 0
2, 124560, Note_on_c, 0, 67, 101
2, 124560, Note_on_c, 0, 79, 101
2, 124800, Note_on_c, 0, 79, 0
2, 124800, Note_on_c, 0, 67, 0
2, 124800, Note_on_c, 0, 67, 101
2, 124800, Note_on_c, 0, 72, 101
2, 124800, Note_on_c, 0, 75, 101
2, 124800, Note_on_c, 0, 79, 101
2, 124959, Note_on_c, 0, 79, 0
2, 124959, Note_on_c, 0, 67, 0
2, 124959, Note_on_c, 0, 72, 0
2, 124959, Note_on_c, 0, 75, 0
2, 124959, Note_on_c, 0, 55, 62
2, 125120, Note_on_c, 0, 55, 0
2, 125120, Note_on_c, 0, 57, 62
2, 125280, Note_on_c, 0, 57, 0
2, 125280, Note_on_c, 0, 59, 62
2, 125439, Note_on_c, 0, 59, 0
2, 125439, Note_on_c, 0, 60, 62
2, 125600, Note_on_c, 0, 60, 0
2, 125600, Note_on_c, 0, 60, 62
2, 125600, Note_on_c, 0, 62, 62
2, 125760, Note_on_c, 0, 62, 0
2, 125760, Note_on_c, 0, 60, 0
2, 125760, Note_on_c, 0, 60, 62
2, 125760, Note_on_c, 0, 63, 62
2, 125880, Note_on_c, 0, 63, 0
2, 125880, Note_on_c, 0, 60, 0
2, 125880, Note_on_c, 0, 60, 62
2, 125880, Note_on_c, 0, 63, 62
2, 125880, Note_on_c, 0, 65, 62
2, 126000, Note_on_c, 0, 65, 0
2, 126000, Note_on_c, 0, 63, 0
2, 126000, Note_on_c, 0, 60, 0
2, 126000, Note_on_c, 0, 60, 62
2, 126000, Note_on_c, 0, 63, 62
2, 126000, Note_on_c, 0, 66, 62
2, 126120, Note_on_c, 0, 66, 0
2, 126120, Note_on_c, 0, 63, 0
2, 126120, Note_on_c, 0, 60, 0
2, 126120, Note_on_c, 0, 60, 62
2, 126120, Note_on_c, 0, 63, 62
2, 126120, Note_on_c, 0, 67, 62
2, 126240, Note_on_c, 0, 67, 0
2, 126240, Note_on_c, 0, 63, 0
2, 126240, Note_on_c, 0, 60, 0
2, 126240, Note_on_c, 0, 60, 62
2, 126240, Note_on_c, 0, 63, 62
2, 126240, Note_on_c, 0, 69, 62
2, 126360, Note_on_c, 0, 69, 0
2, 126360, Note_on_c, 0, 63, 0
2, 126360, Note_on_c, 0, 60, 0
2, 126360, Note_on_c, 0, 60, 62
2, 126360, Note_on_c, 0, 63, 62
2, 126360, Note_on_c, 0, 71, 62
2, 126480, Note_on_c, 0, 71, 0
2, 126480, Note_on_c, 0, 63, 0
2, 126480, Note_on_c, 0, 60, 0
2, 126480, Note_on_c, 0, 60, 62
2, 126480, Note_on_c, 0, 72, 62
2, 126600, Note_on_c, 0, 72, 0
2, 126600, Note_on_c, 0, 60, 0
2, 126600, Note_on_c, 0, 62, 62
2, 126600, Note_on_c, 0, 74, 62
2, 126720, Note_on_c, 0, 74, 0
2, 126720, Note_on_c, 0, 62, 0
2, 126720, Note_on_c, 0, 63, 62
2, 126720, Note_on_c, 0, 67, 62
2, 126720, Note_on_c, 0, 72, 62
2, 126720, Note_on_c, 0, 75, 62
2, 126800, Note_on_c, 0, 75, 0
2, 126800, Note_on_c, 0, 63, 0
2, 126800, Note_on_c, 0, 67, 0
2, 126800, Note_on_c, 0, 72, 0
2, 126800, Note_on_c, 0, 65, 62
2, 126800, Note_on_c, 0, 77, 62
2, 126879, Note_on_c, 0, 77, 0
2, 126879, Note_on_c, 0, 65, 0
2, 126879, Note_on_c, 0, 66, 62
2, 126879, Note_on_c, 0, 78, 62
2, 126960, Note_on_c, 0, 78, 0
2, 126960, Note_on_c, 0, 66, 0
2, 126960, Note_on_c, 0, 67, 75
2, 126960, Note_on_c, 0, 79, 75
2, 127040, Note_on_c, 0, 79, 0
2, 127040, Note_on_c, 0, 67, 0
2, 127040, Note_on_c, 0, 69, 75
2, 127040, Note_on_c, 0, 81, 75
2, 127119, Note_on_c, 0, 81, 0
2, 127119, Note_on_c, 0, 69, 0
2, 127119, Note_on_c, 0, 71, 75
2, 127119, Note_on_c, 0, 83, 75
2, 127200, Note_on_c, 0, 83, 0
2, 127200, Note_on_c, 0, 71, 0
2, 127200, Note_on_c, 0, 72, 88
2, 127200, Note_on_c, 0, 75, 88
2, 127200, Note_on_c, 0, 84, 88
2, 127280, Note_on_c, 0, 84, 0
2, 127280, Note_on_c, 0, 75, 0
2, 127280, Note_on_c, 0, 72, 0
2, 127280, Note_on_c, 0, 74, 88
2, 127280, Note_on_c, 0, 86, 88
2, 127359, Note_on_c, 0, 86, 0
2, 127359, Note_on_c, 0, 74, 0
2, 127359, Note_on_c, 0, 75, 88
2, 127359, Note_on_c, 0, 87, 88
2, 127440, Note_on_c, 0, 87, 0
2, 127440, Note_on_c, 0, 75, 0
2, 127440, Note_on_c, 0, 77, 101
2, 127440, Note_on_c, 0, 89, 101
2, 127520, Note_on_c, 0, 89, 0
2, 127520, Note_on_c, 0, 77, 0
2, 127520, Note_on_c, 0, 78, 101
2, 127520, Note_on_c, 0, 90, 101
2, 127599, Note_on_c, 0, 90, 0
2, 127599, Note_on_c, 0, 78, 0
2, 127599, Note_on_c, 0, 79, 101
2, 127599, Note_on_c, 0, 91, 101
2, 127680, Note_on_c, 0, 91, 0
2, 127680, Note_on_c, 0, 79, 0
2, 127680, Note_on_c, 0, 81, 101
2, 127680, Note_on_c, 0, 87, 101
2, 127680, Note_on_c, 0, 93, 101
2, 127740, Note_on_c, 0, 93, 0
2, 127740, Note_on_c, 0, 87, 0
2, 127740, Note_on_c, 0, 81, 0
2, 127740, Note_on_c, 0, 83, 101
2, 127740, Note_on_c, 0, 95, 101
2, 127800, Note_on_c, 0, 95, 0
2, 127800, Note_on_c, 0, 83, 0
2, 127800, Note_on_c, 0, 84, 101
2, 127800, Note_on_c, 0, 96, 101
2, 127860, Note_on_c, 0, 96, 0
2, 127860, Note_on_c, 0, 84, 0
2, 127860, Note_on_c, 0, 86, 101
2, 127860, Note_on_c, 0, 98, 101
2, 127920, Note_on_c, 0, 98, 0
2, 127920, Note_on_c, 0, 86, 0
2, 127920, Note_on_c, 0, 87, 101
2, 127920, Note_on_c, 0, 99, 101
2, 128160, Note_on_c, 0, 99, 0
2, 128160, Note_on_c, 0, 87, 0
2, 128400, Control_c, 0, 64, 127
2, 128400, Note_on_c, 0, 79, 101
2, 128460, Note_on_c, 0, 79, 0
2, 128460, Note_on_c, 0, 75, 101
2, 128520, Note_on_c, 0, 75, 0
2, 128520, Note_on_c, 0, 72, 101
2, 128580, Note_on_c, 0, 72, 0
2, 128580, Control_c, 0, 64, 0
2, 128580, Note_on_c, 0, 67, 101
2, 128640, Note_on_c, 0, 67, 0
2, 128640, Control_c, 0, 64, 127
2, 128640, Note_on_c, 0, 79, 88
2, 128700, Note_on_c, 0, 79, 0
2, 128700, Note_on_c, 0, 81, 88
2, 128760, Note_on_c, 0, 81, 0
2, 128760, Note_on_c, 0, 79, 88
2, 128820, Note_on_c, 0, 79, 0
2, 128820, Note_on_c, 0, 81, 88
2, 128880, Note_on_c, 0, 81, 0
2, 128880, Note_on_c, 0, 79, 88
2, 128940, Note_on_c, 0, 79, 0
2, 128940, Note_on_c, 0, 81, 88
2, 129000, Note_on_c, 0, 81, 0
2, 129000, Note_on_c, 0, 79, 88
2, 129060, Note_on_c, 0, 79, 0
2, 129060, Note_on_c, 0, 81, 88
2, 129120, Note_on_c, 0, 81, 0
2, 129120, Note_on_c, 0, 79, 88
2, 129180, Note_on_c, 0, 79, 0
2, 129180, Note_on_c, 0, 81, 88
2, 129240, Note_on_c, 0, 81, 0
2, 129240, Note_on_c, 0, 79, 88
2, 129300, Note_on_c, 0, 79, 0
2, 129300, Note_on_c, 0, 81, 88
2, 129360, Note_on_c, 0, 81, 0
2, 129360, Note_on_c, 0, 79, 88
2, 129420, Note_on_c, 0, 79, 0
2, 129420, Note_on_c, 0, 81, 88
2, 129480, Note_on_c, 0, 81, 0
2, 129480, Note_on_c, 0, 79, 88
2, 129540, Note_on_c, 0, 79, 0
2, 129540, Note_on_c, 0, 81, 88
2, 129600, Note_on_c, 0, 81, 0
2, 129600, Note_on_c, 0, 79, 88
2, 129660, Note_on_c, 0, 79, 0
2, 129660, Note_on_c, 0, 81, 88
2, 129720, Note_on_c, 0, 81, 0
2, 129720, Note_on_c, 0, 79, 88
2, 129780, Note_on_c, 0, 79, 0
2, 129780, Note_on_c, 0, 81, 88
2, 129840, Note_on_c, 0, 81, 0
2, 129840, Note_on_c, 0, 79, 88
2, 129900, Note_on_c, 0, 79, 0
2, 129900, Note_on_c, 0, 81, 88
2, 129960, Note_on_c, 0, 81, 0
2, 129960, Note_on_c, 0, 79, 88
2, 130020, Note_on_c, 0, 79, 0
2, 130020, Note_on_c, 0, 81, 88
2, 130080, Note_on_c, 0, 81, 0
2, 130080, Note_on_c, 0, 79, 88
2, 130140, Note_on_c, 0, 79, 0
2, 130140, Note_on_c, 0, 81, 88
2, 130200, Note_on_c, 0, 81, 0
2, 130200, Note_on_c, 0, 79, 88
2, 130260, Note_on_c, 0, 79, 0
2, 130260, Note_on_c, 0, 81, 88
2, 130320, Note_on_c, 0, 81, 0
2, 130320, Note_on_c, 0, 79, 88
2, 130380, Note_on_c, 0, 79, 0
2, 130380, Note_on_c, 0, 81, 88
2, 130440, Note_on_c, 0, 81, 0
2, 130440, Note_on_c, 0, 78, 88
2, 130500, Note_on_c, 0, 78, 0
2, 130500, Control_c, 0, 64, 0
2, 130500, Note_on_c, 0, 79, 88
2, 130560, Note_on_c, 0, 79, 0
2, 130560, Control_c, 0, 64, 127
2, 130560, Note_on_c, 0, 81, 88
2, 130620, Note_on_c, 0, 81, 0
2, 130620, Note_on_c, 0, 83, 88
2, 130680, Note_on_c, 0, 83, 0
2, 130680, Note_on_c, 0, 81, 88
2, 130740, Note_on_c, 0, 81, 0
2, 130740, Note_on_c, 0, 83, 88
2, 130800, Note_on_c, 0, 83, 0
2, 130800, Note_on_c, 0, 81, 88
2, 130860, Note_on_c, 0, 81, 0
2, 130860, Note_on_c, 0, 83, 88
2, 130920, Note_on_c, 0, 83, 0
2, 130920, Note_on_c, 0, 81, 88
2, 130980, Note_on_c, 0, 81, 0
2, 130980, Note_on_c, 0, 83, 88
2, 131040, Note_on_c, 0, 83, 0
2, 131040, Note_on_c, 0, 81, 88
2, 131100, Note_on_c, 0, 81, 0
2, 131100, Note_on_c, 0, 83, 88
2, 131160, Note_on_c, 0, 83, 0
2, 131160, Note_on_c, 0, 81, 88
2, 131220, Note_on_c, 0, 81, 0
2, 131220, Note_on_c, 0, 83, 88
2, 131280, Note_on_c, 0, 83, 0
2, 131280, Note_on_c, 0, 81, 88
2, 131340, Note_on_c, 0, 81, 0
2, 131340, Note_on_c, 0, 83, 88
2, 131400, Note_on_c, 0, 83, 0
2, 131400, Note_on_c, 0, 81, 88
2, 131460, Note_on_c, 0, 81, 0
2, 131460, Note_on_c, 0, 83, 88
2, 131520, Note_on_c, 0, 83, 0
2, 131520, Note_on_c, 0, 81, 88
2, 131580, Note_on_c, 0, 81, 0
2, 131580, Note_on_c, 0, 83, 88
2, 131640, Note_on_c, 0, 83, 0
2, 131640, Note_on_c, 0, 81, 88
2, 131700, Note_on_c, 0, 81, 0
2, 131700, Note_on_c, 0, 83, 88
2, 131760, Note_on_c, 0, 83, 0
2, 131760, Note_on_c, 0, 81, 88
2, 131820, Note_on_c, 0, 81, 0
2, 131820, Note_on_c, 0, 83, 88
2, 131880, Note_on_c, 0, 83, 0
2, 131880, Note_on_c, 0, 81, 88
2, 131940, Note_on_c, 0, 81, 0
2, 131940, Note_on_c, 0, 83, 88
2, 132000, Note_on_c, 0, 83, 0
2, 132000, Note_on_c, 0, 81, 88
2, 132060, Note_on_c, 0, 81, 0
2, 132060, Note_on_c, 0, 83, 88
2, 132120, Note_on_c, 0, 83, 0
2, 132120, Note_on_c, 0, 81, 88
2, 132180, Note_on_c, 0, 81, 0
2, 132180, Note_on_c, 0, 83, 88
2, 132240, Note_on_c, 0, 83, 0
2, 132240, Note_on_c, 0, 81, 88
2, 132300, Note_on_c, 0, 81, 0
2, 132300, Note_on_c, 0, 83, 88
2, 132360, Note_on_c, 0, 83, 0
2, 132360, Note_on_c, 0, 79, 88
2, 132420, Note_on_c, 0, 79, 0
2, 132420, Control_c, 0, 64, 0
2, 132420, Note_on_c, 0, 81, 88
2, 132480, Note_on_c, 0, 81, 0
2, 132480, Control_c, 0, 64, 127
2, 132480, Note_on_c, 0, 83, 88
2, 132540, Note_on_c, 0, 83, 0
2, 132540, Note_on_c, 0, 84, 88
2, 132600, Note_on_c, 0, 84, 0
2, 132600, Note_on_c, 0, 83, 88
2, 132660, Note_on_c, 0, 83, 0
2, 132660, Note_on_c, 0, 84, 88
2, 132720, Note_on_c, 0, 84, 0
2, 132720, Note_on_c, 0, 83, 88
2, 132780, Note_on_c, 0, 83, 0
2, 132780, Note_on_c, 0, 84, 88
2, 132840, Note_on_c, 0, 84, 0
2, 132840, Note_on_c, 0, 83, 88
2, 132900, Note_on_c, 0, 83, 0
2, 132900, Note_on_c, 0, 84, 88
2, 132960, Note_on_c, 0, 84, 0
2, 132960, Note_on_c, 0, 83, 88
2, 133020, Note_on_c, 0, 83, 0
2, 133020, Note_on_c, 0, 84, 88
2, 133080, Note_on_c, 0, 84, 0
2, 133080, Note_on_c, 0, 83, 88
2, 133140, Note_on_c, 0, 83, 0
2, 133140, Note_on_c, 0, 84, 88
2, 133200, Note_on_c, 0, 84, 0
2, 133200, Note_on_c, 0, 83, 88
2, 133260, Note_on_c, 0, 83, 0
2, 133260, Note_on_c, 0, 84, 88
2, 133320, Note_on_c, 0, 84, 0
2, 133320, Note_on_c, 0, 83, 88
2, 133380, Note_on_c, 0, 83, 0
2, 133380, Note_on_c, 0, 84, 88
2, 133440, Note_on_c, 0, 84, 0
2, 133440, Note_on_c, 0, 83, 88
2, 133500, Note_on_c, 0, 83, 0
2, 133500, Note_on_c, 0, 84, 88
2, 133560, Note_on_c, 0, 84, 0
2, 133560, Note_on_c, 0, 83, 88
2, 133620, Note_on_c, 0, 83, 0
2, 133620, Note_on_c, 0, 84, 88
2, 133680, Note_on_c, 0, 84, 0
2, 133680, Note_on_c, 0, 83, 88
2, 133740, Note_on_c, 0, 83, 0
2, 133740, Note_on_c, 0, 84, 88
2, 133800, Note_on_c, 0, 84, 0
2, 133800, Note_on_c, 0, 83, 88
2, 133860, Note_on_c, 0, 83, 0
2, 133860, Note_on_c, 0, 84, 88
2, 133920, Note_on_c, 0, 84, 0
2, 133920, Note_on_c, 0, 83, 88
2, 133980, Note_on_c, 0, 83, 0
2, 133980, Note_on_c, 0, 84, 88
2, 134040, Note_on_c, 0, 84, 0
2, 134040, Note_on_c, 0, 83, 88
2, 134100, Note_on_c, 0, 83, 0
2, 134100, Note_on_c, 0, 84, 88
2, 134160, Note_on_c, 0, 84, 0
2, 134160, Note_on_c, 0, 83, 88
2, 134220, Note_on_c, 0, 83, 0
2, 134220, Note_on_c, 0, 84, 88
2, 134280, Note_on_c, 0, 84, 0
2, 134280, Note_on_c, 0, 82, 88
2, 134340, Note_on_c, 0, 82, 0
2, 134340, Control_c, 0, 64, 0
2, 134340, Note_on_c, 0, 83, 88
2, 134400, Note_on_c, 0, 83, 0
2, 134400, Control_c, 0, 64, 127
2, 134400, Note_on_c, 0, 86, 88
2, 134460, Note_on_c, 0, 86, 0
2, 134460, Note_on_c, 0, 88, 88
2, 134520, Note_on_c, 0, 88, 0
2, 134520, Note_on_c, 0, 86, 88
2, 134580, Note_on_c, 0, 86, 0
2, 134580, Note_on_c, 0, 88, 88
2, 134640, Note_on_c, 0, 88, 0
2, 134640, Note_on_c, 0, 86, 88
2, 134700, Note_on_c, 0, 86, 0
2, 134700, Note_on_c, 0, 88, 88
2, 134760, Note_on_c, 0, 88, 0
2, 134760, Note_on_c, 0, 86, 88
2, 134820, Note_on_c, 0, 86, 0
2, 134820, Note_on_c, 0, 88, 88
2, 134880, Note_on_c, 0, 88, 0
2, 134880, Note_on_c, 0, 86, 88
2, 134940, Note_on_c, 0, 86, 0
2, 134940, Note_on_c, 0, 88, 88
2, 135000, Note_on_c, 0, 88, 0
2, 135000, Note_on_c, 0, 86, 88
2, 135060, Note_on_c, 0, 86, 0
2, 135060, Note_on_c, 0, 88, 88
2, 135120, Note_on_c, 0, 88, 0
2, 135120, Note_on_c, 0, 86, 88
2, 135180, Note_on_c, 0, 86, 0
2, 135180, Note_on_c, 0, 88, 88
2, 135240, Note_on_c, 0, 88, 0
2, 135240, Note_on_c, 0, 86, 88
2, 135300, Note_on_c, 0, 86, 0
2, 135300, Note_on_c, 0, 88, 88
2, 135360, Note_on_c, 0, 88, 0
2, 135360, Note_on_c, 0, 86, 88
2, 135420, Note_on_c, 0, 86, 0
2, 135420, Note_on_c, 0, 88, 88
2, 135480, Note_on_c, 0, 88, 0
2, 135480, Note_on_c, 0, 86, 88
2, 135540, Note_on_c, 0, 86, 0
2, 135540, Note_on_c, 0, 88, 88
2, 135600, Note_on_c, 0, 88, 0
2, 135600, Note_on_c, 0, 86, 88
2, 135660, Note_on_c, 0, 86, 0
2, 135660, Note_on_c, 0, 88, 88
2, 135720, Note_on_c, 0, 88, 0
2, 135720, Note_on_c, 0, 86, 88
2, 135780, Note_on_c, 0, 86, 0
2, 135780, Note_on_c, 0, 88, 88
2, 135840, Note_on_c, 0, 88, 0
2, 135840, Note_on_c, 0, 86, 88
2, 135900, Note_on_c, 0, 86, 0
2, 135900, Note_on_c, 0, 88, 88
2, 135960, Note_on_c, 0, 88, 0
2, 135960, Note_on_c, 0, 86, 88
2, 136020, Note_on_c, 0, 86, 0
2, 136020, Note_on_c, 0, 88, 88
2, 136080, Note_on_c, 0, 88, 0
2, 136080, Note_on_c, 0, 86, 88
2, 136140, Note_on_c, 0, 86, 0
2, 136140, Note_on_c, 0, 88, 88
2, 136200, Note_on_c, 0, 88, 0
2, 136200, Note_on_c, 0, 85, 88
2, 136260, Note_on_c, 0, 85, 0
2, 136260, Control_c, 0, 64, 0
2, 136260, Note_on_c, 0, 86, 88
2, 136320, Note_on_c, 0, 86, 0
2, 136320, Control_c, 0, 64, 127
2, 136320, Note_on_c, 0, 91, 88
2, 136380, Note_on_c, 0, 91, 0
2, 136380, Note_on_c, 0, 93, 88
2, 136440, Note_on_c, 0, 93, 0
2, 136440, Note_on_c, 0, 91, 88
2, 136500, Note_on_c, 0, 91, 0
2, 136500, Note_on_c, 0, 93, 88
2, 136560, Note_on_c, 0, 93, 0
2, 136560, Note_on_c, 0, 91, 88
2, 136620, Note_on_c, 0, 91, 0
2, 136620, Note_on_c, 0, 93, 88
2, 136680, Note_on_c, 0, 93, 0
2, 136680, Note_on_c, 0, 91, 88
2, 136740, Note_on_c, 0, 91, 0
2, 136740, Note_on_c, 0, 93, 88
2, 136800, Note_on_c, 0, 93, 0
2, 136800, Note_on_c, 0, 91, 88
2, 136860, Note_on_c, 0, 91, 0
2, 136860, Note_on_c, 0, 93, 88
2, 136920, Note_on_c, 0, 93, 0
2, 136920, Note_on_c, 0, 91, 88
2, 136980, Note_on_c, 0, 91, 0
2, 136980, Note_on_c, 0, 93, 88
2, 137040, Note_on_c, 0, 93, 0
2, 137040, Note_on_c, 0, 91, 88
2, 137100, Note_on_c, 0, 91, 0
2, 137100, Note_on_c, 0, 93, 88
2, 137160, Note_on_c, 0, 93, 0
2, 137160, Note_on_c, 0, 91, 88
2, 137220, Note_on_c, 0, 91, 0
2, 137220, Note_on_c, 0, 93, 88
2, 137280, Note_on_c, 0, 93, 0
2, 137280, Note_on_c, 0, 91, 88
2, 137340, Note_on_c, 0, 91, 0
2, 137340, Note_on_c, 0, 93, 88
2, 137400, Note_on_c, 0, 93, 0
2, 137400, Note_on_c, 0, 91, 88
2, 137460, Note_on_c, 0, 91, 0
2, 137460, Note_on_c, 0, 93, 88
2, 137520, Note_on_c, 0, 93, 0
2, 137520, Note_on_c, 0, 91, 88
2, 137580, Note_on_c, 0, 91, 0
2, 137580, Note_on_c, 0, 93, 88
2, 137640, Note_on_c, 0, 93, 0
2, 137640, Note_on_c, 0, 91, 88
2, 137700, Note_on_c, 0, 91, 0
2, 137700, Note_on_c, 0, 93, 88
2, 137760, Note_on_c, 0, 93, 0
2, 137760, Note_on_c, 0, 91, 88
2, 137820, Note_on_c, 0, 91, 0
2, 137820, Note_on_c, 0, 93, 88
2, 137880, Note_on_c, 0, 93, 0
2, 137880, Note_on_c, 0, 91, 88
2, 137940, Note_on_c, 0, 91, 0
2, 137940, Note_on_c, 0, 93, 88
2, 138000, Note_on_c, 0, 93, 0
2, 138000, Note_on_c, 0, 91, 88
2, 138060, Note_on_c, 0, 91, 0
2, 138060, Note_on_c, 0, 93, 88
2, 138120, Note_on_c, 0, 93, 0
2, 138120, Note_on_c, 0, 91, 88
2, 138180, Note_on_c, 0, 91, 0
2, 138180, Note_on_c, 0, 93, 88
2, 138240, Note_on_c, 0, 93, 0
2, 138240, Control_c, 0, 64, 0
2, 138240, Note_on_c, 0, 91, 88
2, 138480, Note_on_c, 0, 91, 0
2, 139200, Note_on_c, 0, 79, 127
2, 139200, Note_on_c, 0, 83, 127
2, 139200, Note_on_c, 0, 86, 127
2, 139200, Note_on_c, 0, 91, 127
2, 139440, Note_on_c, 0, 91, 0
2, 139440, Note_on_c, 0, 79, 0
2, 139440, Note_on_c, 0, 83, 0
2, 139440, Note_on_c, 0, 86, 0
2, 140160, Note_on_c, 0, 67, 127
2, 140160, Note_on_c, 0, 71, 127
2, 140160, Note_on_c, 0, 74, 127
2, 140160, Note_on_c, 0, 79, 127
2, 140400, Note_on_c, 0, 79, 0
2, 140400, Note_on_c, 0, 67, 0
2, 140400, Note_on_c, 0, 71, 0
2, 140400, Note_on_c, 0, 74, 0
2, 141120, Note_on_c, 0, 55, 127
2, 141120, Note_on_c, 0, 59, 127
2, 141120, Note_on_c, 0, 62, 127
2, 141120, Note_on_c, 0, 67, 127
2, 141600, Note_on_c, 0, 67, 0
2, 141600, Note_on_c, 0, 55, 0
2, 141600, Note_on_c, 0, 59, 0
2, 141600, Note_on_c, 0, 62, 0
2, 141600, Control_c, 0, 64, 127
2, 143520, Control_c, 0, 64, 0
2, 143520, End_track
3, 0, Start_track
3, 0, Title_t, "Grand Piano"
3, 0, Program_c, 0, 0
3, 0, Control_c, 0, 7, 115
3, 0, Control_c, 0, 10, 79
3, 5760, Note_on_c, 0, 67, 114
3, 6240, Note_on_c, 0, 67, 0
3, 6240, Note_on_c, 0, 66, 114
3, 6480, Note_on_c, 0, 66, 0
3, 6480, Note_on_c, 0, 64, 114
3, 6720, Note_on_c, 0, 64, 0
3, 6720, Note_on_c, 0, 62, 88
3, 6960, Note_on_c, 0, 62, 0
3, 6960, Note_on_c, 0, 60, 88
3, 7440, Note_on_c, 0, 60, 0
3, 7440, Note_on_c, 0, 59, 88
3, 7560, Note_on_c, 0, 59, 0
3, 7560, Note_on_c, 0, 57, 88
3, 7680, Note_on_c, 0, 57, 0
3, 21840, Note_on_c, 0, 67, 75
3, 21920, Note_on_c, 0, 67, 0
3, 21920, Note_on_c, 0, 64, 75
3, 21999, Note_on_c, 0, 64, 0
3, 21999, Note_on_c, 0, 57, 75
3, 22080, Note_on_c, 0, 57, 0
3, 22080, Note_on_c, 0, 55, 75
3, 22080, Note_on_c, 0, 61, 75
3, 22320, Note_on_c, 0, 61, 0
3, 22320, Note_on_c, 0, 55, 0
3, 22320, Note_on_c, 0, 64, 62
3, 22400, Note_on_c, 0, 64, 0
3, 22400, Note_on_c, 0, 67, 62
3, 22479, Note_on_c, 0, 67, 0
3, 22479, Note_on_c, 0, 73, 62
3, 22560, Note_on_c, 0, 73, 0
3, 22560, Control_c, 0, 64, 127
3, 22560, Note_on_c, 0, 76, 62
3, 22640, Note_on_c, 0, 76, 0
3, 22640, Note_on_c, 0, 73, 62
3, 22719, Note_on_c, 0, 73, 0
3, 22719, Note_on_c, 0, 67, 62
3, 22800, Note_on_c, 0, 67, 0
3, 22800, Note_on_c, 0, 64, 62
3, 22880, Note_on_c, 0, 64, 0
3, 22880, Note_on_c, 0, 67, 62
3, 22959, Note_on_c, 0, 67, 0
3, 22959, Control_c, 0, 64, 0
3, 22959, Note_on_c, 0, 64, 62
3, 23040, Note_on_c, 0, 64, 0
3, 23040, Note_on_c, 0, 62, 75
3, 23760, Note_on_c, 0, 62, 0
3, 23760, Control_c, 0, 64, 127
3, 23760, Note_on_c, 0, 64, 75
3, 23820, Note_on_c, 0, 64, 0
3, 23820, Note_on_c, 0, 62, 75
3, 23880, Note_on_c, 0, 62, 0
3, 23880, Note_on_c, 0, 61, 75
3, 23940, Note_on_c, 0, 61, 0
3, 23940, Control_c, 0, 64, 0
3, 23940, Note_on_c, 0, 62, 75
3, 24000, Note_on_c, 0, 62, 0
3, 24000, Note_on_c, 0, 63, 75
3, 24720, Note_on_c, 0, 63, 0
3, 24720, Control_c, 0, 64, 127
3, 24720, Note_on_c, 0, 64, 88
3, 24780, Note_on_c, 0, 64, 0
3, 24780, Note_on_c, 0, 63, 88
3, 24840, Note_on_c, 0, 63, 0
3, 24840, Note_on_c, 0, 62, 88
3, 24900, Note_on_c, 0, 62, 0
3, 24900, Control_c, 0, 64, 0
3, 24900, Note_on_c, 0, 63, 88
3, 24960, Note_on_c, 0, 63, 0
3, 27840, Note_on_c, 0, 68, 88
3, 28320, Note_on_c, 0, 68, 0
3, 29280, Note_on_c, 0, 74, 75
3, 29360, Note_on_c, 0, 74, 0
3, 29360, Note_on_c, 0, 69, 75
3, 29439, Note_on_c, 0, 69, 0
3, 29439, Note_on_c, 0, 64, 75
3, 29520, Note_on_c, 0, 64, 0
3, 29520, Control_c, 0, 64, 127
3, 29520, Note_on_c, 0, 71, 88
3, 29580, Note_on_c, 0, 71, 0
3, 29580, Note_on_c, 0, 69, 88
3, 29640, Note_on_c, 0, 69, 0
3, 29640, Note_on_c, 0, 68, 88
3, 29700, Note_on_c, 0, 68, 0
3, 29700, Control_c, 0, 64, 0
3, 29700, Note_on_c, 0, 69, 88
3, 29760, Note_on_c, 0, 69, 0
3, 29760, Control_c, 0, 64, 127
3, 29760, Note_on_c, 0, 74, 75
3, 29840, Note_on_c, 0, 74, 0
3, 29840, Note_on_c, 0, 60, 75
3, 29919, Note_on_c, 0, 60, 0
3, 29919, Note_on_c, 0, 66, 75
3, 30000, Note_on_c, 0, 66, 0
3, 30000, Note_on_c, 0, 69, 75
3, 30080, Note_on_c, 0, 69, 0
3, 30080, Note_on_c, 0, 60, 75
3, 30159, Note_on_c, 0, 60, 0
3, 30159, Control_c, 0, 64, 0
3, 30159, Note_on_c, 0, 66, 75
3, 30240, Note_on_c, 0, 66, 0
3, 36000, Note_on_c, 0, 72, 62
3, 36080, Note_on_c, 0, 72, 0
3, 36080, Note_on_c, 0, 66, 62
3, 36159, Note_on_c, 0, 66, 0
3, 36159, Note_on_c, 0, 62, 62
3, 36240, Note_on_c, 0, 62, 0
3, 36240, Note_on_c, 0, 71, 62
3, 36320, Note_on_c, 0, 71, 0
3, 36320, Note_on_c, 0, 66, 62
3, 36399, Note_on_c, 0, 66, 0
3, 36399, Note_on_c, 0, 62, 62
3, 36480, Note_on_c, 0, 62, 0
3, 37920, Note_on_c, 0, 72, 62
3, 38000, Note_on_c, 0, 72, 0
3, 38000, Note_on_c, 0, 66, 62
3, 38079, Note_on_c, 0, 66, 0
3, 38079, Note_on_c, 0, 62, 62
3, 38160, Note_on_c, 0, 62, 0
3, 38160, Note_on_c, 0, 71, 62
3, 38240, Note_on_c, 0, 71, 0
3, 38240, Note_on_c, 0, 66, 62
3, 38319, Note_on_c, 0, 66, 0
3, 38319, Note_on_c, 0, 62, 62
3, 38400, Note_on_c, 0, 62, 0
3, 43680, Note_on_c, 0, 69, 75
3, 43920, Note_on_c, 0, 69, 0
3, 43920, Note_on_c, 0, 67, 75
3, 44160, Note_on_c, 0, 67, 0
3, 45600, Note_on_c, 0, 69, 75
3, 45840, Note_on_c, 0, 69, 0
3, 45840, Note_on_c, 0, 67, 75
3, 46080, Note_on_c, 0, 67, 0
3, 65919, Control_c, 0, 64, 127
3, 65919, Note_on_c, 0, 59, 62
3, 65973, Note_on_c, 0, 59, 0
3, 65973, Note_on_c, 0, 63, 62
3, 66026, Note_on_c, 0, 63, 0
3, 66026, Note_on_c, 0, 66, 62
3, 66080, Note_on_c, 0, 66, 0
3, 66080, Note_on_c, 0, 71, 62
3, 66133, Note_on_c, 0, 71, 0
3, 66133, Note_on_c, 0, 75, 62
3, 66186, Note_on_c, 0, 75, 0
3, 66186, Note_on_c, 0, 78, 62
3, 66240, Note_on_c, 0, 78, 0
3, 66240, Note_on_c, 0, 83, 62
3, 66293, Note_on_c, 0, 83, 0
3, 66293, Note_on_c, 0, 78, 62
3, 66346, Note_on_c, 0, 78, 0
3, 66346, Note_on_c, 0, 75, 62
3, 66399, Note_on_c, 0, 75, 0
3, 66399, Note_on_c, 0, 71, 62
3, 66453, Note_on_c, 0, 71, 0
3, 66453, Note_on_c, 0, 66, 62
3, 66506, Note_on_c, 0, 66, 0
3, 66506, Note_on_c, 0, 63, 62
3, 66560, Note_on_c, 0, 63, 0
3, 66560, Note_on_c, 0, 59, 62
3, 66666, Control_c, 0, 64, 0
3, 66720, Note_on_c, 0, 59, 0
3, 69759, Control_c, 0, 64, 127
3, 69759, Note_on_c, 0, 71, 62
3, 69813, Note_on_c, 0, 71, 0
3, 69813, Note_on_c, 0, 75, 62
3, 69866, Note_on_c, 0, 75, 0
3, 69866, Note_on_c, 0, 78, 62
3, 69920, Note_on_c, 0, 78, 0
3, 69920, Note_on_c, 0, 83, 62
3, 69973, Note_on_c, 0, 83, 0
3, 69973, Note_on_c, 0, 87, 62
3, 70026, Note_on_c, 0, 87, 0
3, 70026, Note_on_c, 0, 90, 62
3, 70080, Note_on_c, 0, 90, 0
3, 70080, Note_on_c, 0, 95, 62
3, 70133, Note_on_c, 0, 95, 0
3, 70133, Note_on_c, 0, 90, 62
3, 70186, Note_on_c, 0, 90, 0
3, 70186, Note_on_c, 0, 87, 62
3, 70239, Note_on_c, 0, 87, 0
3, 70239, Note_on_c, 0, 83, 62
3, 70293, Note_on_c, 0, 83, 0
3, 70293, Note_on_c, 0, 78, 62
3, 70346, Note_on_c, 0, 78, 0
3, 70346, Note_on_c, 0, 75, 62
3, 70400, Note_on_c, 0, 75, 0
3, 70400, Note_on_c, 0, 71, 62
3, 70506, Control_c, 0, 64, 0
3, 70560, Note_on_c, 0, 71, 0
3, 71679, Control_c, 0, 64, 127
3, 71679, Note_on_c, 0, 71, 62
3, 71733, Note_on_c, 0, 71, 0
3, 71733, Note_on_c, 0, 76, 62
3, 71786, Note_on_c, 0, 76, 0
3, 71786, Note_on_c, 0, 79, 62
3, 71840, Note_on_c, 0, 79, 0
3, 71840, Note_on_c, 0, 83, 62
3, 71893, Note_on_c, 0, 83, 0
3, 71893, Note_on_c, 0, 88, 62
3, 71946, Note_on_c, 0, 88, 0
3, 71946, Note_on_c, 0, 91, 62
3, 72000, Note_on_c, 0, 91, 0
3, 72000, Note_on_c, 0, 95, 62
3, 72053, Note_on_c, 0, 95, 0
3, 72053, Note_on_c, 0, 91, 62
3, 72106, Note_on_c, 0, 91, 0
3, 72106, Note_on_c, 0, 88, 62
3, 72159, Note_on_c, 0, 88, 0
3, 72159, Note_on_c, 0, 83, 62
3, 72213, Note_on_c, 0, 83, 0
3, 72213, Note_on_c, 0, 79, 62
3, 72266, Note_on_c, 0, 79, 0
3, 72266, Note_on_c, 0, 76, 62
3, 72320, Note_on_c, 0, 76, 0
3, 72320, Note_on_c, 0, 71, 62
3, 72426, Control_c, 0, 64, 0
3, 72480, Note_on_c, 0, 71, 0
3, 78720, Note_on_c, 0, 76, 114
3, 79200, Note_on_c, 0, 76, 0
3, 79200, Note_on_c, 0, 74, 114
3, 79440, Note_on_c, 0, 74, 0
3, 79440, Note_on_c, 0, 72, 114
3, 79680, Note_on_c, 0, 72, 0
3, 79680, Note_on_c, 0, 71, 114
3, 79920, Note_on_c, 0, 71, 0
3, 79920, Note_on_c, 0, 69, 114
3, 80400, Note_on_c, 0, 69, 0
3, 80400, Note_on_c, 0, 67, 114
3, 80520, Note_on_c, 0, 67, 0
3, 80520, Note_on_c, 0, 66, 114
3, 80640, Note_on_c, 0, 66, 0
3, 80640, Note_on_c, 0, 72, 114
3, 81120, Note_on_c, 0, 72, 0
3, 81120, Note_on_c, 0, 71, 114
3, 81360, Note_on_c, 0, 71, 0
3, 81360, Note_on_c, 0, 69, 114
3, 81600, Note_on_c, 0, 69, 0
3, 81600, Note_on_c, 0, 67, 114
3, 81840, Note_on_c, 0, 67, 0
3, 81840, Note_on_c, 0, 66, 114
3, 82320, Note_on_c, 0, 66, 0
3, 82320, Note_on_c, 0, 64, 114
3, 82440, Note_on_c, 0, 64, 0
3, 82440, Note_on_c, 0, 63, 114
3, 82560, Note_on_c, 0, 63, 0
3, 82560, Note_on_c, 0, 64, 114
3, 82800, Note_on_c, 0, 64, 0
3, 82800, Note_on_c, 0, 63, 114
3, 83040, Note_on_c, 0, 63, 0
3, 83040, Note_on_c, 0, 67, 114
3, 83280, Note_on_c, 0, 67, 0
3, 83280, Note_on_c, 0, 66, 114
3, 83520, Note_on_c, 0, 66, 0
3, 86400, Control_c, 0, 64, 127
3, 86400, Note_on_c, 0, 64, 88
3, 86559, Note_on_c, 0, 64, 0
3, 86559, Note_on_c, 0, 64, 88
3, 86613, Note_on_c, 0, 64, 0
3, 86613, Note_on_c, 0, 67, 88
3, 86666, Note_on_c, 0, 67, 0
3, 86666, Note_on_c, 0, 71, 88
3, 86720, Note_on_c, 0, 71, 0
3, 86720, Note_on_c, 0, 76, 88
3, 86773, Note_on_c, 0, 76, 0
3, 86773, Note_on_c, 0, 79, 88
3, 86826, Note_on_c, 0, 79, 0
3, 86826, Note_on_c, 0, 83, 88
3, 86880, Note_on_c, 0, 83, 0
3, 86880, Note_on_c, 0, 88, 88
3, 86933, Note_on_c, 0, 88, 0
3, 86933, Note_on_c, 0, 83, 88
3, 86986, Note_on_c, 0, 83, 0
3, 86986, Note_on_c, 0, 79, 88
3, 87039, Note_on_c, 0, 79, 0
3, 87039, Note_on_c, 0, 76, 88
3, 87093, Note_on_c, 0, 76, 0
3, 87093, Note_on_c, 0, 71, 88
3, 87146, Note_on_c, 0, 71, 0
3, 87146, Note_on_c, 0, 67, 88
3, 87200, Note_on_c, 0, 67, 0
3, 87200, Note_on_c, 0, 64, 88
3, 87306, Control_c, 0, 64, 0
3, 87360, Note_on_c, 0, 64, 0
3, 87360, Control_c, 0, 64, 127
3, 87360, Note_on_c, 0, 64, 101
3, 87519, Note_on_c, 0, 64, 0
3, 87519, Note_on_c, 0, 64, 101
3, 87573, Note_on_c, 0, 64, 0
3, 87573, Note_on_c, 0, 67, 101
3, 87626, Note_on_c, 0, 67, 0
3, 87626, Note_on_c, 0, 72, 101
3, 87680, Note_on_c, 0, 72, 0
3, 87680, Note_on_c, 0, 76, 101
3, 87733, Note_on_c, 0, 76, 0
3, 87733, Note_on_c, 0, 79, 101
3, 87786, Note_on_c, 0, 79, 0
3, 87786, Note_on_c, 0, 84, 101
3, 87840, Note_on_c, 0, 84, 0
3, 87840, Note_on_c, 0, 88, 101
3, 87893, Note_on_c, 0, 88, 0
3, 87893, Note_on_c, 0, 84, 101
3, 87946, Note_on_c, 0, 84, 0
3, 87946, Note_on_c, 0, 79, 101
3, 87999, Note_on_c, 0, 79, 0
3, 87999, Note_on_c, 0, 76, 101
3, 88053, Note_on_c, 0, 76, 0
3, 88053, Note_on_c, 0, 72, 101
3, 88106, Note_on_c, 0, 72, 0
3, 88106, Note_on_c, 0, 67, 101
3, 88160, Note_on_c, 0, 67, 0
3, 88160, Note_on_c, 0, 64, 101
3, 88266, Control_c, 0, 64, 0
3, 88320, Note_on_c, 0, 64, 0
3, 103680, Note_on_c, 0, 79, 114
3, 104160, Note_on_c, 0, 79, 0
3, 104160, Note_on_c, 0, 78, 114
3, 104400, Note_on_c, 0, 78, 0
3, 104400, Note_on_c, 0, 76, 114
3, 104640, Note_on_c, 0, 76, 0
3, 104640, Note_on_c, 0, 74, 114
3, 104880, Note_on_c, 0, 74, 0
3, 104880, Note_on_c, 0, 72, 114
3, 105360, Note_on_c, 0, 72, 0
3, 105360, Note_on_c, 0, 71, 114
3, 105480, Note_on_c, 0, 71, 0
3, 105480, Note_on_c, 0, 69, 114
3, 105600, Note_on_c, 0, 69, 0
3, 107520, Note_on_c, 0, 79, 114
3, 108000, Note_on_c, 0, 79, 0
3, 108000, Note_on_c, 0, 78, 114
3, 108240, Note_on_c, 0, 78, 0
3, 108240, Note_on_c, 0, 76, 114
3, 108480, Note_on_c, 0, 76, 0
3, 108480, Note_on_c, 0, 74, 114
3, 108720, Note_on_c, 0, 74, 0
3, 108720, Note_on_c, 0, 72, 114
3, 109200, Note_on_c, 0, 72, 0
3, 109200, Note_on_c, 0, 71, 114
3, 109320, Note_on_c, 0, 71, 0
3, 109320, Note_on_c, 0, 69, 114
3, 109440, Note_on_c, 0, 69, 0
3, 110880, Note_on_c, 0, 71, 75
3, 111360, Note_on_c, 0, 71, 0
3, 112800, Note_on_c, 0, 78, 75
3, 113280, Note_on_c, 0, 78, 0
3, 114720, Note_on_c, 0, 83, 75
3, 115200, Note_on_c, 0, 83, 0
3, 116640, Note_on_c, 0, 90, 88
3, 117120, Note_on_c, 0, 90, 0
3, 118560, Note_on_c, 0, 90, 88
3, 119040, Note_on_c, 0, 90, 0
3, 120480, Note_on_c, 0, 90, 88
3, 120960, Note_on_c, 0, 90, 0
3, 120960, Note_on_c, 0, 86, 88
3, 121920, Note_on_c, 0, 86, 0
3, 121920, Note_on_c, 0, 79, 88
3, 122880, Note_on_c, 0, 79, 0
3, 122880, Note_on_c, 0, 79, 88
3, 123840, Note_on_c, 0, 79, 0
3, 123840, Note_on_c, 0, 74, 88
3, 124800, Note_on_c, 0, 74, 0
3, 124800, End_track
4, 0, Start_track
4, 0, Title_t, "Grand Piano"
4, 0, Program_c, 0, 0
4, 0, Control_c, 0, 7, 115
4, 0, Control_c, 0, 10, 41
4, 0, Control_c, 0, 64, 127
4, 0, Note_on_c, 0, 43, 75
4, 0, Note_on_c, 0, 47, 75
4, 0, Note_on_c, 0, 50, 75
4, 240, Note_on_c, 0, 50, 0
4, 240, Note_on_c, 0, 47, 0
4, 240, Note_on_c, 0, 43, 0
4, 480, Note_on_c, 0, 50, 75
4, 480, Note_on_c, 0, 55, 75
4, 480, Note_on_c, 0, 59, 75
4, 720, Note_on_c, 0, 59, 0
4, 720, Note_on_c, 0, 55, 0
4, 720, Note_on_c, 0, 50, 0
4, 720, Control_c, 0, 64, 0
4, 960, Control_c, 0, 64, 127
4, 960, Note_on_c, 0, 40, 75
4, 960, Note_on_c, 0, 43, 75
4, 960, Note_on_c, 0, 47, 75
4, 960, Note_on_c, 0, 52, 75
4, 1200, Note_on_c, 0, 52, 0
4, 1200, Note_on_c, 0, 40, 0
4, 1200, Note_on_c, 0, 43, 0
4, 1200, Note_on_c, 0, 47, 0
4, 1440, Note_on_c, 0, 52, 75
4, 1440, Note_on_c, 0, 55, 75
4, 1440, Note_on_c, 0, 59, 75
4, 1680, Note_on_c, 0, 59, 0
4, 1680, Note_on_c, 0, 55, 0
4, 1680, Note_on_c, 0, 52, 0
4, 1680, Control_c, 0, 64, 0
4, 1920, Control_c, 0, 64, 127
4, 1920, Note_on_c, 0, 36, 75
4, 1920, Note_on_c, 0, 40, 75
4, 1920, Note_on_c, 0, 45, 75
4, 1920, Note_on_c, 0, 48, 75
4, 2160, Note_on_c, 0, 48, 0
4, 2160, Note_on_c, 0, 36, 0
4, 2160, Note_on_c, 0, 40, 0
4, 2160, Note_on_c, 0, 45, 0
4, 2400, Note_on_c, 0, 48, 75
4, 2400, Note_on_c, 0, 52, 75
4, 2400, Note_on_c, 0, 57, 75
4, 2640, Note_on_c, 0, 57, 0
4, 2640, Note_on_c, 0, 52, 0
4, 2640, Note_on_c, 0, 48, 0
4, 2640, Control_c, 0, 64, 0
4, 2880, Control_c, 0, 64, 127
4, 2880, Note_on_c, 0, 38, 75
4, 2880, Note_on_c, 0, 42, 75
4, 2880, Note_on_c, 0, 45, 75
4, 2880, Note_on_c, 0, 50, 75
4, 3120, Note_on_c, 0, 50, 0
4, 3120, Note_on_c, 0, 38, 0
4, 3120, Note_on_c, 0, 42, 0
4, 3120, Note_on_c, 0, 45, 0
4, 3360, Note_on_c, 0, 50, 75
4, 3360, Note_on_c, 0, 54, 75
4, 3360, Note_on_c, 0, 57, 75
4, 3600, Note_on_c, 0, 57, 0
4, 3600, Note_on_c, 0, 54, 0
4, 3600, Note_on_c, 0, 50, 0
4, 3600, Control_c, 0, 64, 0
4, 3840, Control_c, 0, 64, 127
4, 3840, Note_on_c, 0, 43, 75
4, 3840, Note_on_c, 0, 47, 75
4, 3840, Note_on_c, 0, 50, 75
4, 4080, Note_on_c, 0, 50, 0
4, 4080, Note_on_c, 0, 47, 0
4, 4080, Note_on_c, 0, 43, 0
4, 4320, Note_on_c, 0, 50, 75
4, 4320, Note_on_c, 0, 55, 75
4, 4320, Note_on_c, 0, 59, 75
4, 4560, Note_on_c, 0, 59, 0
4, 4560, Note_on_c, 0, 55, 0
4, 4560, Note_on_c, 0, 50, 0
4, 4560, Control_c, 0, 64, 0
4, 4800, Control_c, 0, 64, 127
4, 4800, Note_on_c, 0, 40, 75
4, 4800, Note_on_c, 0, 43, 75
4, 4800, Note_on_c, 0, 47, 75
4, 4800, Note_on_c, 0, 52, 75
4, 5040, Note_on_c, 0, 52, 0
4, 5040, Note_on_c, 0, 40, 0
4, 5040, Note_on_c, 0, 43, 0
4, 5040, Note_on_c, 0, 47, 0
4, 5280, Note_on_c, 0, 52, 75
4, 5280, Note_on_c, 0, 55, 75
4, 5280, Note_on_c, 0, 59, 75
4, 5520, Note_on_c, 0, 59, 0
4, 5520, Note_on_c, 0, 55, 0
4, 5520, Note_on_c, 0, 52, 0
4, 5520, Control_c, 0, 64, 0
4, 5760, Control_c, 0, 64, 127
4, 5760, Note_on_c, 0, 36, 75
4, 5760, Note_on_c, 0, 40, 75
4, 5760, Note_on_c, 0, 45, 75
4, 5760, Note_on_c, 0, 48, 75
4, 6000, Note_on_c, 0, 48, 0
4, 6000, Note_on_c, 0, 36, 0
4, 6000, Note_on_c, 0, 40, 0
4, 6000, Note_on_c, 0, 45, 0
4, 6240, Note_on_c, 0, 57, 75
4, 6240, Note_on_c, 0, 60, 75
4, 6480, Note_on_c, 0, 60, 0
4, 6480, Note_on_c, 0, 57, 0
4, 6480, Control_c, 0, 64, 0
4, 6720, Control_c, 0, 64, 127
4, 6720, Note_on_c, 0, 38, 62
4, 6720, Note_on_c, 0, 42, 62
4, 6720, Note_on_c, 0, 45, 62
4, 6720, Note_on_c, 0, 50, 62
4, 6960, Note_on_c, 0, 50, 0
4, 6960, Note_on_c, 0, 38, 0
4, 6960, Note_on_c, 0, 42, 0
4, 6960, Note_on_c, 0, 45, 0
4, 7200, Note_on_c, 0, 50, 62
4, 7200, Note_on_c, 0, 54, 62
4, 7200, Note_on_c, 0, 57, 62
4, 7440, Note_on_c, 0, 57, 0
4, 7440, Note_on_c, 0, 54, 0
4, 7440, Note_on_c, 0, 50, 0
4, 7440, Control_c, 0, 64, 0
4, 7680, Note_on_c, 0, 55, 88
4, 8160, Note_on_c, 0, 55, 0
4, 9120, Note_on_c, 0, 60, 101
4, 9360, Note_on_c, 0, 60, 0
4, 9360, Note_on_c, 0, 59, 75
4, 9600, Note_on_c, 0, 59, 0
4, 9600, Note_on_c, 0, 55, 75
4, 9960, Note_on_c, 0, 55, 0
4, 9960, Note_on_c, 0, 57, 75
4, 10080, Note_on_c, 0, 57, 0
4, 10080, Note_on_c, 0, 55, 75
4, 10560, Note_on_c, 0, 55, 0
4, 11040, Note_on_c, 0, 60, 75
4, 11280, Note_on_c, 0, 60, 0
4, 11280, Note_on_c, 0, 59, 75
4, 11520, Note_on_c, 0, 59, 0
4, 11520, Note_on_c, 0, 55, 75
4, 11880, Note_on_c, 0, 55, 0
4, 11880, Note_on_c, 0, 57, 75
4, 12000, Note_on_c, 0, 57, 0
4, 12000, Note_on_c, 0, 55, 75
4, 12480, Note_on_c, 0, 55, 0
4, 12480, Control_c, 0, 64, 127
4, 12480, Note_on_c, 0, 40, 75
4, 12480, Note_on_c, 0, 43, 75
4, 12480, Note_on_c, 0, 47, 75
4, 12480, Note_on_c, 0, 52, 75
4, 12720, Note_on_c, 0, 52, 0
4, 12720, Note_on_c, 0, 40, 0
4, 12720, Note_on_c, 0, 43, 0
4, 12720, Note_on_c, 0, 47, 0
4, 12960, Note_on_c, 0, 52, 75
4, 12960, Note_on_c, 0, 55, 75
4, 12960, Note_on_c, 0, 59, 75
4, 13200, Note_on_c, 0, 59, 0
4, 13200, Note_on_c, 0, 55, 0
4, 13200, Note_on_c, 0, 52, 0
4, 13200, Control_c, 0, 64, 0
4, 13440, Note_on_c, 0, 64, 114
4, 13920, Note_on_c, 0, 64, 0
4, 13920, Note_on_c, 0, 62, 114
4, 14160, Note_on_c, 0, 62, 0
4, 14160, Note_on_c, 0, 60, 114
4, 14400, Note_on_c, 0, 60, 0
4, 14400, Note_on_c, 0, 59, 88
4, 14640, Note_on_c, 0, 59, 0
4, 14640, Note_on_c, 0, 57, 88
4, 15120, Note_on_c, 0, 57, 0
4, 15120, Note_on_c, 0, 55, 88
4, 15240, Note_on_c, 0, 55, 0
4, 15240, Note_on_c, 0, 54, 88
4, 15360, Note_on_c, 0, 54, 0
4, 15360, Note_on_c, 0, 52, 88
4, 15840, Note_on_c, 0, 52, 0
4, 16800, Note_on_c, 0, 57, 101
4, 17040, Note_on_c, 0, 57, 0
4, 17040, Note_on_c, 0, 55, 75
4, 17280, Note_on_c, 0, 55, 0
4, 17280, Note_on_c, 0, 52, 75
4, 17640, Note_on_c, 0, 52, 0
4, 17640, Note_on_c, 0, 54, 75
4, 17760, Note_on_c, 0, 54, 0
4, 17760, Note_on_c, 0, 52, 75
4, 18240, Note_on_c, 0, 52, 0
4, 18720, Note_on_c, 0, 57, 75
4, 18960, Note_on_c, 0, 57, 0
4, 18960, Note_on_c, 0, 55, 75
4, 19200, Note_on_c, 0, 55, 0
4, 19200, Note_on_c, 0, 52, 75
4, 19560, Note_on_c, 0, 52, 0
4, 19560, Note_on_c, 0, 54, 75
4, 19680, Note_on_c, 0, 54, 0
4, 19680, Note_on_c, 0, 52, 75
4, 20160, Note_on_c, 0, 52, 0
4, 20160, Control_c, 0, 64, 127
4, 20160, Note_on_c, 0, 38, 62
4, 20160, Note_on_c, 0, 43, 62
4, 20160, Note_on_c, 0, 47, 62
4, 20160, Note_on_c, 0, 50, 62
4, 20400, Note_on_c, 0, 50, 0
4, 20400, Note_on_c, 0, 38, 0
4, 20400, Note_on_c, 0, 43, 0
4, 20400, Note_on_c, 0, 47, 0
4, 20640, Note_on_c, 0, 50, 75
4, 20640, Note_on_c, 0, 52, 75
4, 20640, Note_on_c, 0, 55, 75
4, 20640, Note_on_c, 0, 59, 75
4, 20880, Note_on_c, 0, 59, 0
4, 20880, Note_on_c, 0, 50, 0
4, 20880, Note_on_c, 0, 52, 0
4, 20880, Note_on_c, 0, 55, 0
4, 20880, Control_c, 0, 64, 0
4, 21120, Control_c, 0, 64, 127
4, 21120, Note_on_c, 0, 37, 75
4, 21200, Note_on_c, 0, 37, 0
4, 21200, Note_on_c, 0, 45, 75
4, 21279, Note_on_c, 0, 45, 0
4, 21279, Note_on_c, 0, 52, 75
4, 21360, Note_on_c, 0, 52, 0
4, 21360, Note_on_c, 0, 57, 75
4, 21440, Note_on_c, 0, 57, 0
4, 21440, Note_on_c, 0, 64, 75
4, 21519, Note_on_c, 0, 64, 0
4, 21519, Control_c, 0, 64, 0
4, 21519, Note_on_c, 0, 67, 75
4, 21600, Note_on_c, 0, 67, 0
4, 21600, Control_c, 0, 64, 127
4, 21600, Note_on_c, 0, 49, 75
4, 21680, Note_on_c, 0, 49, 0
4, 21680, Note_on_c, 0, 52, 75
4, 21759, Note_on_c, 0, 52, 0
4, 21759, Note_on_c, 0, 55, 75
4, 21840, Note_on_c, 0, 55, 0
4, 21840, Control_c, 0, 64, 0
4, 21840, Note_on_c, 0, 57, 75
4, 22080, Note_on_c, 0, 57, 0
4, 22080, Control_c, 0, 64, 127
4, 22080, Note_on_c, 0, 33, 62
4, 22160, Note_on_c, 0, 33, 0
4, 22160, Note_on_c, 0, 45, 62
4, 22239, Note_on_c, 0, 45, 0
4, 22239, Note_on_c, 0, 49, 62
4, 22320, Note_on_c, 0, 49, 0
4, 22320, Control_c, 0, 64, 0
4, 22320, Note_on_c, 0, 55, 62
4, 22560, Note_on_c, 0, 55, 0
4, 22560, Note_on_c, 0, 55, 62
4, 22560, Note_on_c, 0, 57, 62
4, 22800, Note_on_c, 0, 57, 0
4, 22800, Note_on_c, 0, 55, 0
4, 23040, Control_c, 0, 64, 127
4, 23040, Note_on_c, 0, 38, 62
4, 23120, Note_on_c, 0, 38, 0
4, 23120, Note_on_c, 0, 50, 62
4, 23199, Note_on_c, 0, 50, 0
4, 23199, Note_on_c, 0, 54, 62
4, 23280, Note_on_c, 0, 54, 0
4, 23280, Note_on_c, 0, 57, 62
4, 23520, Note_on_c, 0, 57, 0
4, 23520, Note_on_c, 0, 50, 62
4, 23520, Note_on_c, 0, 54, 62
4, 23520, Note_on_c, 0, 57, 62
4, 23760, Note_on_c, 0, 57, 0
4, 23760, Note_on_c, 0, 54, 0
4, 23760, Note_on_c, 0, 50, 0
4, 23760, Control_c, 0, 64, 0
4, 24000, Control_c, 0, 64, 127
4, 24000, Note_on_c, 0, 47, 62
4, 24080, Note_on_c, 0, 47, 0
4, 24080, Note_on_c, 0, 54, 62
4, 24159, Note_on_c, 0, 54, 0
4, 24159, Note_on_c, 0, 57, 62
4, 24240, Note_on_c, 0, 57, 0
4, 24240, Note_on_c, 0, 59, 62
4, 24480, Note_on_c, 0, 59, 0
4, 24480, Note_on_c, 0, 54, 62
4, 24480, Note_on_c, 0, 57, 62
4, 24480, Note_on_c, 0, 59, 62
4, 24720, Note_on_c, 0, 59, 0
4, 24720, Note_on_c, 0, 57, 0
4, 24720, Note_on_c, 0, 54, 0
4, 24720, Control_c, 0, 64, 0
4, 24960, Note_on_c, 0, 64, 101
4, 25680, Note_on_c, 0, 64, 0
4, 25680, Control_c, 0, 64, 127
4, 25680, Note_on_c, 0, 66, 101
4, 25740, Note_on_c, 0, 66, 0
4, 25740, Note_on_c, 0, 64, 101
4, 25800, Note_on_c, 0, 64, 0
4, 25800, Note_on_c, 0, 63, 101
4, 25860, Note_on_c, 0, 63, 0
4, 25860, Control_c, 0, 64, 0
4, 25860, Note_on_c, 0, 64, 101
4, 25920, Note_on_c, 0, 64, 0
4, 25920, Note_on_c, 0, 66, 101
4, 26640, Note_on_c, 0, 66, 0
4, 26640, Control_c, 0, 64, 127
4, 26640, Note_on_c, 0, 67, 101
4, 26700, Note_on_c, 0, 67, 0
4, 26700, Note_on_c, 0, 66, 101
4, 26760, Note_on_c, 0, 66, 0
4, 26760, Note_on_c, 0, 64, 101
4, 26820, Note_on_c, 0, 64, 0
4, 26820, Control_c, 0, 64, 0
4, 26820, Note_on_c, 0, 66, 101
4, 26880, Note_on_c, 0, 66, 0
4, 26880, Control_c, 0, 64, 127
4, 26880, Note_on_c, 0, 52, 75
4, 26960, Note_on_c, 0, 52, 0
4, 26960, Note_on_c, 0, 55, 75
4, 27039, Note_on_c, 0, 55, 0
4, 27039, Note_on_c, 0, 59, 75
4, 27120, Note_on_c, 0, 59, 0
4, 27120, Note_on_c, 0, 64, 75
4, 27360, Note_on_c, 0, 64, 0
4, 27360, Note_on_c, 0, 59, 75
4, 27360, Note_on_c, 0, 64, 75
4, 27360, Note_on_c, 0, 67, 75
4, 27600, Note_on_c, 0, 67, 0
4, 27600, Note_on_c, 0, 64, 0
4, 27600, Note_on_c, 0, 59, 0
4, 27600, Control_c, 0, 64, 0
4, 27840, Control_c, 0, 64, 127
4, 27840, Note_on_c, 0, 50, 75
4, 27920, Note_on_c, 0, 50, 0
4, 27920, Note_on_c, 0, 56, 75
4, 27999, Note_on_c, 0, 56, 0
4, 27999, Note_on_c, 0, 59, 75
4, 28080, Note_on_c, 0, 59, 0
4, 28080, Note_on_c, 0, 64, 75
4, 28320, Note_on_c, 0, 64, 0
4, 28320, Note_on_c, 0, 59, 75
4, 28320, Note_on_c, 0, 64, 75
4, 28320, Note_on_c, 0, 68, 75
4, 28560, Note_on_c, 0, 68, 0
4, 28560, Note_on_c, 0, 64, 0
4, 28560, Note_on_c, 0, 59, 0
4, 28560, Control_c, 0, 64, 0
4, 28800, Control_c, 0, 64, 127
4, 28800, Note_on_c, 0, 48, 75
4, 28880, Note_on_c, 0, 48, 0
4, 28880, Note_on_c, 0, 52, 75
4, 28959, Note_on_c, 0, 52, 0
4, 28959, Note_on_c, 0, 57, 75
4, 29040, Note_on_c, 0, 57, 0
4, 29040, Control_c, 0, 64, 0
4, 29040, Note_on_c, 0, 60, 75
4, 29280, Note_on_c, 0, 60, 0
4, 29280, Note_on_c, 0, 62, 114
4, 29520, Note_on_c, 0, 62, 0
4, 29520, Note_on_c, 0, 60, 114
4, 29760, Note_on_c, 0, 60, 0
4, 29760, Note_on_c, 0, 59, 88
4, 30000, Note_on_c, 0, 59, 0
4, 30000, Note_on_c, 0, 57, 88
4, 30240, Note_on_c, 0, 57, 0
4, 30240, Note_on_c, 0, 55, 88
4, 30480, Note_on_c, 0, 55, 0
4, 30480, Note_on_c, 0, 54, 88
4, 30720, Note_on_c, 0, 54, 0
4, 30720, Control_c, 0, 64, 127
4, 30720, Note_on_c, 0, 43, 75
4, 30800, Note_on_c, 0, 43, 0
4, 30800, Note_on_c, 0, 47, 75
4, 30879, Note_on_c, 0, 47, 0
4, 30879, Note_on_c, 0, 50, 75
4, 30960, Note_on_c, 0, 50, 0
4, 30960, Note_on_c, 0, 55, 75
4, 31200, Note_on_c, 0, 55, 0
4, 31200, Note_on_c, 0, 50, 75
4, 31200, Note_on_c, 0, 55, 75
4, 31200, Note_on_c, 0, 59, 75
4, 31440, Note_on_c, 0, 59, 0
4, 31440, Note_on_c, 0, 55, 0
4, 31440, Note_on_c, 0, 50, 0
4, 31440, Control_c, 0, 64, 0
4, 31680, Control_c, 0, 64, 127
4, 31680, Note_on_c, 0, 40, 75
4, 31680, Note_on_c, 0, 43, 75
4, 31680, Note_on_c, 0, 47, 75
4, 31680, Note_on_c, 0, 52, 75
4, 31920, Note_on_c, 0, 52, 0
4, 31920, Note_on_c, 0, 40, 0
4, 31920, Note_on_c, 0, 43, 0
4, 31920, Note_on_c, 0, 47, 0
4, 32160, Note_on_c, 0, 52, 75
4, 32160, Note_on_c, 0, 55, 75
4, 32160, Note_on_c, 0, 59, 75
4, 32400, Note_on_c, 0, 59, 0
4, 32400, Note_on_c, 0, 55, 0
4, 32400, Note_on_c, 0, 52, 0
4, 32400, Control_c, 0, 64, 0
4, 32640, Control_c, 0, 64, 127
4, 32640, Note_on_c, 0, 36, 88
4, 32720, Note_on_c, 0, 36, 0
4, 32720, Note_on_c, 0, 43, 88
4, 32799, Note_on_c, 0, 43, 0
4, 32799, Note_on_c, 0, 45, 88
4, 32880, Note_on_c, 0, 45, 0
4, 32880, Note_on_c, 0, 48, 88
4, 32960, Note_on_c, 0, 48, 0
4, 32960, Note_on_c, 0, 55, 88
4, 33039, Note_on_c, 0, 55, 0
4, 33039, Note_on_c, 0, 57, 88
4, 33120, Note_on_c, 0, 57, 0
4, 33120, Note_on_c, 0, 60, 88
4, 33200, Note_on_c, 0, 60, 0
4, 33200, Note_on_c, 0, 57, 88
4, 33279, Note_on_c, 0, 57, 0
4, 33279, Note_on_c, 0, 55, 88
4, 33360, Note_on_c, 0, 55, 0
4, 33360, Note_on_c, 0, 48, 88
4, 33440, Note_on_c, 0, 48, 0
4, 33440, Note_on_c, 0, 45, 88
4, 33519, Note_on_c, 0, 45, 0
4, 33519, Control_c, 0, 64, 0
4, 33519, Note_on_c, 0, 43, 88
4, 33600, Note_on_c, 0, 43, 0
4, 33600, Control_c, 0, 64, 127
4, 33600, Note_on_c, 0, 38, 75
4, 33680, Note_on_c, 0, 38, 0
4, 33680, Note_on_c, 0, 42, 75
4, 33759, Note_on_c, 0, 42, 0
4, 33759, Note_on_c, 0, 45, 75
4, 33840, Note_on_c, 0, 45, 0
4, 33840, Note_on_c, 0, 50, 75
4, 33920, Note_on_c, 0, 50, 0
4, 33920, Note_on_c, 0, 54, 75
4, 33999, Note_on_c, 0, 54, 0
4, 33999, Note_on_c, 0, 57, 75
4, 34080, Note_on_c, 0, 57, 0
4, 34080, Note_on_c, 0, 62, 75
4, 34160, Note_on_c, 0, 62, 0
4, 34160, Note_on_c, 0, 57, 75
4, 34239, Note_on_c, 0, 57, 0
4, 34239, Note_on_c, 0, 54, 75
4, 34320, Note_on_c, 0, 54, 0
4, 34320, Note_on_c, 0, 50, 75
4, 34400, Note_on_c, 0, 50, 0
4, 34400, Note_on_c, 0, 45, 75
4, 34479, Note_on_c, 0, 45, 0
4, 34479, Control_c, 0, 64, 0
4, 34479, Note_on_c, 0, 42, 75
4, 34560, Note_on_c, 0, 42, 0
4, 34560, Control_c, 0, 64, 127
4, 34560, Note_on_c, 0, 43, 62
4, 34640, Note_on_c, 0, 43, 0
4, 34640, Note_on_c, 0, 47, 62
4, 34719, Note_on_c, 0, 47, 0
4, 34719, Note_on_c, 0, 50, 62
4, 34800, Note_on_c, 0, 50, 0
4, 34800, Note_on_c, 0, 55, 62
4, 35040, Note_on_c, 0, 55, 0
4, 35040, Note_on_c, 0, 50, 62
4, 35040, Note_on_c, 0, 55, 62
4, 35040, Note_on_c, 0, 59, 62
4, 35280, Note_on_c, 0, 59, 0
4, 35280, Note_on_c, 0, 55, 0
4, 35280, Note_on_c, 0, 50, 0
4, 35280, Control_c, 0, 64, 0
4, 35520, Control_c, 0, 64, 127
4, 35520, Note_on_c, 0, 43, 62
4, 35520, Note_on_c, 0, 50, 62
4, 35520, Note_on_c, 0, 54, 62
4, 35760, Note_on_c, 0, 54, 0
4, 35760, Note_on_c, 0, 50, 0
4, 35760, Note_on_c, 0, 43, 0
4, 36000, Note_on_c, 0, 60, 75
4, 36240, Note_on_c, 0, 60, 0
4, 36240, Control_c, 0, 64, 0
4, 36240, Note_on_c, 0, 59, 75
4, 36480, Note_on_c, 0, 59, 0
4, 36480, Note_on_c, 0, 55, 75
4, 36840, Note_on_c, 0, 55, 0
4, 36840, Note_on_c, 0, 57, 75
4, 36960, Note_on_c, 0, 57, 0
4, 36960, Note_on_c, 0, 55, 75
4, 37200, Note_on_c, 0, 55, 0
4, 37920, Note_on_c, 0, 60, 75
4, 38160, Note_on_c, 0, 60, 0
4, 38160, Note_on_c, 0, 59, 75
4, 38400, Note_on_c, 0, 59, 0
4, 38400, Note_on_c, 0, 55, 75
4, 38760, Note_on_c, 0, 55, 0
4, 38760, Note_on_c, 0, 57, 75
4, 38880, Note_on_c, 0, 57, 0
4, 38880, Note_on_c, 0, 55, 75
4, 39120, Note_on_c, 0, 55, 0
4, 39360, Control_c, 0, 64, 127
4, 39360, Note_on_c, 0, 40, 62
4, 39360, Note_on_c, 0, 43, 62
4, 39360, Note_on_c, 0, 47, 62
4, 39360, Note_on_c, 0, 52, 62
4, 39600, Note_on_c, 0, 52, 0
4, 39600, Note_on_c, 0, 40, 0
4, 39600, Note_on_c, 0, 43, 0
4, 39600, Note_on_c, 0, 47, 0
4, 39840, Note_on_c, 0, 52, 75
4, 39840, Note_on_c, 0, 55, 75
4, 39840, Note_on_c, 0, 59, 75
4, 39840, Note_on_c, 0, 64, 75
4, 40080, Note_on_c, 0, 64, 0
4, 40080, Note_on_c, 0, 52, 0
4, 40080, Note_on_c, 0, 55, 0
4, 40080, Note_on_c, 0, 59, 0
4, 40080, Control_c, 0, 64, 0
4, 40320, Control_c, 0, 64, 127
4, 40320, Note_on_c, 0, 33, 75
4, 40400, Note_on_c, 0, 33, 0
4, 40400, Note_on_c, 0, 40, 75
4, 40479, Note_on_c, 0, 40, 0
4, 40479, Note_on_c, 0, 42, 75
4, 40560, Note_on_c, 0, 42, 0
4, 40560, Note_on_c, 0, 45, 75
4, 40640, Note_on_c, 0, 45, 0
4, 40640, Note_on_c, 0, 52, 75
4, 40719, Note_on_c, 0, 52, 0
4, 40719, Note_on_c, 0, 54, 75
4, 40800, Note_on_c, 0, 54, 0
4, 40800, Note_on_c, 0, 57, 75
4, 40880, Note_on_c, 0, 57, 0
4, 40880, Note_on_c, 0, 54, 75
4, 40959, Note_on_c, 0, 54, 0
4, 40959, Note_on_c, 0, 52, 75
4, 41040, Note_on_c, 0, 52, 0
4, 41040, Note_on_c, 0, 45, 75
4, 41120, Note_on_c, 0, 45, 0
4, 41120, Note_on_c, 0, 42, 75
4, 41199, Note_on_c, 0, 42, 0
4, 41199, Control_c, 0, 64, 0
4, 41199, Note_on_c, 0, 40, 75
4, 41280, Note_on_c, 0, 40, 0
4, 41280, Control_c, 0, 64, 127
4, 41280, Note_on_c, 0, 35, 75
4, 41360, Note_on_c, 0, 35, 0
4, 41360, Note_on_c, 0, 39, 75
4, 41439, Note_on_c, 0, 39, 0
4, 41439, Note_on_c, 0, 42, 75
4, 41520, Note_on_c, 0, 42, 0
4, 41520, Note_on_c, 0, 47, 75
4, 41600, Note_on_c, 0, 47, 0
4, 41600, Note_on_c, 0, 51, 75
4, 41679, Note_on_c, 0, 51, 0
4, 41679, Note_on_c, 0, 54, 75
4, 41760, Note_on_c, 0, 54, 0
4, 41760, Note_on_c, 0, 59, 75
4, 41840, Note_on_c, 0, 59, 0
4, 41840, Note_on_c, 0, 54, 75
4, 41919, Note_on_c, 0, 54, 0
4, 41919, Note_on_c, 0, 51, 75
4, 42000, Note_on_c, 0, 51, 0
4, 42000, Note_on_c, 0, 47, 75
4, 42080, Note_on_c, 0, 47, 0
4, 42080, Note_on_c, 0, 42, 75
4, 42159, Note_on_c, 0, 42, 0
4, 42159, Control_c, 0, 64, 0
4, 42159, Note_on_c, 0, 39, 75
4, 42240, Note_on_c, 0, 39, 0
4, 42240, Control_c, 0, 64, 127
4, 42240, Note_on_c, 0, 40, 62
4, 42320, Note_on_c, 0, 40, 0
4, 42320, Note_on_c, 0, 43, 62
4, 42399, Note_on_c, 0, 43, 0
4, 42399, Note_on_c, 0, 47, 62
4, 42480, Note_on_c, 0, 47, 0
4, 42480, Note_on_c, 0, 52, 62
4, 42720, Note_on_c, 0, 52, 0
4, 42720, Note_on_c, 0, 52, 62
4, 42720, Note_on_c, 0, 55, 62
4, 42720, Note_on_c, 0, 59, 62
4, 42960, Note_on_c, 0, 59, 0
4, 42960, Note_on_c, 0, 55, 0
4, 42960, Note_on_c, 0, 52, 0
4, 42960, Control_c, 0, 64, 0
4, 43200, Control_c, 0, 64, 127
4, 43200, Note_on_c, 0, 40, 62
4, 43200, Note_on_c, 0, 45, 62
4, 43200, Note_on_c, 0, 48, 62
4, 43200, Note_on_c, 0, 52, 62
4, 43440, Note_on_c, 0, 52, 0
4, 43440, Note_on_c, 0, 40, 0
4, 43440, Note_on_c, 0, 45, 0
4, 43440, Note_on_c, 0, 48, 0
4, 43680, Note_on_c, 0, 57, 75
4, 43920, Note_on_c, 0, 57, 0
4, 43920, Control_c, 0, 64, 0
4, 43920, Note_on_c, 0, 55, 75
4, 44160, Note_on_c, 0, 55, 0
4, 44160, Note_on_c, 0, 52, 75
4, 44520, Note_on_c, 0, 52, 0
4, 44520, Note_on_c, 0, 54, 75
4, 44640, Note_on_c, 0, 54, 0
4, 44640, Note_on_c, 0, 52, 75
4, 44880, Note_on_c, 0, 52, 0
4, 45120, Control_c, 0, 64, 127
4, 45120, Note_on_c, 0, 40, 62
4, 45120, Note_on_c, 0, 45, 62
4, 45120, Note_on_c, 0, 48, 62
4, 45120, Note_on_c, 0, 52, 62
4, 45360, Note_on_c, 0, 52, 0
4, 45360, Note_on_c, 0, 40, 0
4, 45360, Note_on_c, 0, 45, 0
4, 45360, Note_on_c, 0, 48, 0
4, 45600, Note_on_c, 0, 57, 75
4, 45840, Note_on_c, 0, 57, 0
4, 45840, Control_c, 0, 64, 0
4, 45840, Note_on_c, 0, 55, 75
4, 46080, Note_on_c, 0, 55, 0
4, 46080, Control_c, 0, 64, 127
4, 46080, Note_on_c, 0, 40, 62
4, 46080, Note_on_c, 0, 43, 62
4, 46080, Note_on_c, 0, 47, 62
4, 46080, Note_on_c, 0, 52, 62
4, 46320, Note_on_c, 0, 52, 0
4, 46320, Note_on_c, 0, 40, 0
4, 46320, Note_on_c, 0, 43, 0
4, 46320, Note_on_c, 0, 47, 0
4, 46560, Note_on_c, 0, 52, 62
4, 46560, Note_on_c, 0, 55, 62
4, 46560, Note_on_c, 0, 59, 62
4, 46800, Note_on_c, 0, 59, 0
4, 46800, Note_on_c, 0, 55, 0
4, 46800, Note_on_c, 0, 52, 0
4, 46800, Control_c, 0, 64, 0
4, 47040, Control_c, 0, 64, 127
4, 47040, Note_on_c, 0, 52, 62
4, 47120, Note_on_c, 0, 52, 0
4, 47120, Note_on_c, 0, 55, 62
4, 47199, Note_on_c, 0, 55, 0
4, 47199, Note_on_c, 0, 59, 62
4, 47280, Note_on_c, 0, 59, 0
4, 47280, Control_c, 0, 64, 0
4, 47280, Note_on_c, 0, 64, 62
4, 47520, Note_on_c, 0, 64, 0
4, 47520, Note_on_c, 0, 64, 49
4, 47520, Note_on_c, 0, 67, 49
4, 47520, Note_on_c, 0, 71, 49
4, 47640, Note_on_c, 0, 71, 0
4, 47640, Note_on_c, 0, 67, 0
4, 47640, Note_on_c, 0, 64, 0
4, 47640, Note_on_c, 0, 64, 49
4, 47640, Note_on_c, 0, 67, 49
4, 47640, Note_on_c, 0, 71, 49
4, 47760, Note_on_c, 0, 71, 0
4, 47760, Note_on_c, 0, 67, 0
4, 47760, Note_on_c, 0, 64, 0
4, 47760, Note_on_c, 0, 64, 49
4, 47760, Note_on_c, 0, 67, 49
4, 47760, Note_on_c, 0, 71, 49
4, 47880, Note_on_c, 0, 71, 0
4, 47880, Note_on_c, 0, 67, 0
4, 47880, Note_on_c, 0, 64, 0
4, 47880, Note_on_c, 0, 64, 49
4, 47880, Note_on_c, 0, 67, 49
4, 47880, Note_on_c, 0, 71, 49
4, 48000, Note_on_c, 0, 71, 0
4, 48000, Note_on_c, 0, 67, 0
4, 48000, Note_on_c, 0, 64, 0
4, 48000, Note_on_c, 0, 64, 49
4, 48000, Note_on_c, 0, 67, 49
4, 48000, Note_on_c, 0, 71, 49
4, 48120, Note_on_c, 0, 71, 0
4, 48120, Note_on_c, 0, 67, 0
4, 48120, Note_on_c, 0, 64, 0
4, 48120, Note_on_c, 0, 64, 49
4, 48120, Note_on_c, 0, 67, 49
4, 48120, Note_on_c, 0, 71, 49
4, 48240, Note_on_c, 0, 71, 0
4, 48240, Note_on_c, 0, 67, 0
4, 48240, Note_on_c, 0, 64, 0
4, 48240, Note_on_c, 0, 64, 49
4, 48240, Note_on_c, 0, 67, 49
4, 48240, Note_on_c, 0, 71, 49
4, 48360, Note_on_c, 0, 71, 0
4, 48360, Note_on_c, 0, 67, 0
4, 48360, Note_on_c, 0, 64, 0
4, 48360, Note_on_c, 0, 64, 49
4, 48360, Note_on_c, 0, 67, 49
4, 48360, Note_on_c, 0, 71, 49
4, 48480, Note_on_c, 0, 71, 0
4, 48480, Note_on_c, 0, 67, 0
4, 48480, Note_on_c, 0, 64, 0
4, 48480, Note_on_c, 0, 64, 49
4, 48480, Note_on_c, 0, 67, 49
4, 48480, Note_on_c, 0, 71, 49
4, 48600, Note_on_c, 0, 71, 0
4, 48600, Note_on_c, 0, 67, 0
4, 48600, Note_on_c, 0, 64, 0
4, 48600, Note_on_c, 0, 64, 49
4, 48600, Note_on_c, 0, 67, 49
4, 48600, Note_on_c, 0, 71, 49
4, 48720, Note_on_c, 0, 71, 0
4, 48720, Note_on_c, 0, 67, 0
4, 48720, Note_on_c, 0, 64, 0
4, 48720, Note_on_c, 0, 64, 49
4, 48720, Note_on_c, 0, 67, 49
4, 48720, Note_on_c, 0, 71, 49
4, 48840, Note_on_c, 0, 71, 0
4, 48840, Note_on_c, 0, 67, 0
4, 48840, Note_on_c, 0, 64, 0
4, 48840, Note_on_c, 0, 64, 49
4, 48840, Note_on_c, 0, 67, 49
4, 48840, Note_on_c, 0, 71, 49
4, 48960, Note_on_c, 0, 71, 0
4, 48960, Note_on_c, 0, 67, 0
4, 48960, Note_on_c, 0, 64, 0
4, 48960, Note_on_c, 0, 64, 49
4, 48960, Note_on_c, 0, 67, 49
4, 48960, Note_on_c, 0, 71, 49
4, 49080, Note_on_c, 0, 71, 0
4, 49080, Note_on_c, 0, 67, 0
4, 49080, Note_on_c, 0, 64, 0
4, 49080, Note_on_c, 0, 64, 49
4, 49080, Note_on_c, 0, 67, 49
4, 49080, Note_on_c, 0, 71, 49
4, 49200, Note_on_c, 0, 71, 0
4, 49200, Note_on_c, 0, 67, 0
4, 49200, Note_on_c, 0, 64, 0
4, 49200, Note_on_c, 0, 64, 49
4, 49200, Note_on_c, 0, 67, 49
4, 49200, Note_on_c, 0, 71, 49
4, 49320, Note_on_c, 0, 71, 0
4, 49320, Note_on_c, 0, 67, 0
4, 49320, Note_on_c, 0, 64, 0
4, 49320, Note_on_c, 0, 64, 49
4, 49320, Note_on_c, 0, 67, 49
4, 49320, Note_on_c, 0, 71, 49
4, 49440, Note_on_c, 0, 71, 0
4, 49440, Note_on_c, 0, 67, 0
4, 49440, Note_on_c, 0, 64, 0
4, 49440, Note_on_c, 0, 64, 49
4, 49440, Note_on_c, 0, 67, 49
4, 49440, Note_on_c, 0, 71, 49
4, 49560, Note_on_c, 0, 71, 0
4, 49560, Note_on_c, 0, 67, 0
4, 49560, Note_on_c, 0, 64, 0
4, 49560, Note_on_c, 0, 64, 49
4, 49560, Note_on_c, 0, 67, 49
4, 49560, Note_on_c, 0, 71, 49
4, 49680, Note_on_c, 0, 71, 0
4, 49680, Note_on_c, 0, 67, 0
4, 49680, Note_on_c, 0, 64, 0
4, 49680, Note_on_c, 0, 64, 49
4, 49680, Note_on_c, 0, 67, 49
4, 49680, Note_on_c, 0, 71, 49
4, 49800, Note_on_c, 0, 71, 0
4, 49800, Note_on_c, 0, 67, 0
4, 49800, Note_on_c, 0, 64, 0
4, 49800, Note_on_c, 0, 64, 49
4, 49800, Note_on_c, 0, 67, 49
4, 49800, Note_on_c, 0, 71, 49
4, 49920, Note_on_c, 0, 71, 0
4, 49920, Note_on_c, 0, 67, 0
4, 49920, Note_on_c, 0, 64, 0
4, 49920, Note_on_c, 0, 64, 49
4, 49920, Note_on_c, 0, 69, 49
4, 49920, Note_on_c, 0, 72, 49
4, 50040, Note_on_c, 0, 72, 0
4, 50040, Note_on_c, 0, 69, 0
4, 50040, Note_on_c, 0, 64, 0
4, 50040, Note_on_c, 0, 64, 49
4, 50040, Note_on_c, 0, 69, 49
4, 50040, Note_on_c, 0, 72, 49
4, 50160, Note_on_c, 0, 72, 0
4, 50160, Note_on_c, 0, 69, 0
4, 50160, Note_on_c, 0, 64, 0
4, 50160, Note_on_c, 0, 64, 49
4, 50160, Note_on_c, 0, 69, 49
4, 50160, Note_on_c, 0, 72, 49
4, 50280, Note_on_c, 0, 72, 0
4, 50280, Note_on_c, 0, 69, 0
4, 50280, Note_on_c, 0, 64, 0
4, 50280, Note_on_c, 0, 64, 49
4, 50280, Note_on_c, 0, 69, 49
4, 50280, Note_on_c, 0, 72, 49
4, 50400, Note_on_c, 0, 72, 0
4, 50400, Note_on_c, 0, 69, 0
4, 50400, Note_on_c, 0, 64, 0
4, 50400, Note_on_c, 0, 64, 49
4, 50400, Note_on_c, 0, 69, 49
4, 50400, Note_on_c, 0, 72, 49
4, 50520, Note_on_c, 0, 72, 0
4, 50520, Note_on_c, 0, 69, 0
4, 50520, Note_on_c, 0, 64, 0
4, 50520, Note_on_c, 0, 64, 49
4, 50520, Note_on_c, 0, 69, 49
4, 50520, Note_on_c, 0, 72, 49
4, 50640, Note_on_c, 0, 72, 0
4, 50640, Note_on_c, 0, 69, 0
4, 50640, Note_on_c, 0, 64, 0
4, 50640, Note_on_c, 0, 64, 49
4, 50640, Note_on_c, 0, 69, 49
4, 50640, Note_on_c, 0, 72, 49
4, 50760, Note_on_c, 0, 72, 0
4, 50760, Note_on_c, 0, 69, 0
4, 50760, Note_on_c, 0, 64, 0
4, 50760, Note_on_c, 0, 64, 49
4, 50760, Note_on_c, 0, 69, 49
4, 50760, Note_on_c, 0, 72, 49
4, 50880, Note_on_c, 0, 72, 0
4, 50880, Note_on_c, 0, 69, 0
4, 50880, Note_on_c, 0, 64, 0
4, 50880, Note_on_c, 0, 60, 49
4, 50880, Note_on_c, 0, 64, 49
4, 50880, Note_on_c, 0, 69, 49
4, 51000, Note_on_c, 0, 69, 0
4, 51000, Note_on_c, 0, 64, 0
4, 51000, Note_on_c, 0, 60, 0
4, 51000, Note_on_c, 0, 60, 49
4, 51000, Note_on_c, 0, 64, 49
4, 51000, Note_on_c, 0, 69, 49
4, 51120, Note_on_c, 0, 69, 0
4, 51120, Note_on_c, 0, 64, 0
4, 51120, Note_on_c, 0, 60, 0
4, 51120, Note_on_c, 0, 60, 49
4, 51120, Note_on_c, 0, 64, 49
4, 51120, Note_on_c, 0, 69, 49
4, 51240, Note_on_c, 0, 69, 0
4, 51240, Note_on_c, 0, 64, 0
4, 51240, Note_on_c, 0, 60, 0
4, 51240, Note_on_c, 0, 60, 49
4, 51240, Note_on_c, 0, 64, 49
4, 51240, Note_on_c, 0, 69, 49
4, 51360, Note_on_c, 0, 69, 0
4, 51360, Note_on_c, 0, 64, 0
4, 51360, Note_on_c, 0, 60, 0
4, 51360, Note_on_c, 0, 60, 49
4, 51360, Note_on_c, 0, 64, 49
4, 51360, Note_on_c, 0, 69, 49
4, 51480, Note_on_c, 0, 69, 0
4, 51480, Note_on_c, 0, 64, 0
4, 51480, Note_on_c, 0, 60, 0
4, 51480, Note_on_c, 0, 60, 49
4, 51480, Note_on_c, 0, 64, 49
4, 51480, Note_on_c, 0, 69, 49
4, 51600, Note_on_c, 0, 69, 0
4, 51600, Note_on_c, 0, 64, 0
4, 51600, Note_on_c, 0, 60, 0
4, 51600, Note_on_c, 0, 60, 49
4, 51600, Note_on_c, 0, 64, 49
4, 51600, Note_on_c, 0, 69, 49
4, 51720, Note_on_c, 0, 69, 0
4, 51720, Note_on_c, 0, 64, 0
4, 51720, Note_on_c, 0, 60, 0
4, 51720, Note_on_c, 0, 60, 49
4, 51720, Note_on_c, 0, 64, 49
4, 51720, Note_on_c, 0, 69, 49
4, 51840, Note_on_c, 0, 69, 0
4, 51840, Note_on_c, 0, 64, 0
4, 51840, Note_on_c, 0, 60, 0
4, 51840, Note_on_c, 0, 59, 49
4, 51840, Note_on_c, 0, 63, 49
4, 51840, Note_on_c, 0, 66, 49
4, 51960, Note_on_c, 0, 66, 0
4, 51960, Note_on_c, 0, 63, 0
4, 51960, Note_on_c, 0, 59, 0
4, 51960, Note_on_c, 0, 59, 49
4, 51960, Note_on_c, 0, 63, 49
4, 51960, Note_on_c, 0, 66, 49
4, 52080, Note_on_c, 0, 66, 0
4, 52080, Note_on_c, 0, 63, 0
4, 52080, Note_on_c, 0, 59, 0
4, 52080, Note_on_c, 0, 59, 49
4, 52080, Note_on_c, 0, 63, 49
4, 52080, Note_on_c, 0, 66, 49
4, 52200, Note_on_c, 0, 66, 0
4, 52200, Note_on_c, 0, 63, 0
4, 52200, Note_on_c, 0, 59, 0
4, 52200, Note_on_c, 0, 59, 49
4, 52200, Note_on_c, 0, 63, 49
4, 52200, Note_on_c, 0, 66, 49
4, 52320, Note_on_c, 0, 66, 0
4, 52320, Note_on_c, 0, 63, 0
4, 52320, Note_on_c, 0, 59, 0
4, 52320, Note_on_c, 0, 59, 49
4, 52320, Note_on_c, 0, 63, 49
4, 52320, Note_on_c, 0, 66, 49
4, 52440, Note_on_c, 0, 66, 0
4, 52440, Note_on_c, 0, 63, 0
4, 52440, Note_on_c, 0, 59, 0
4, 52440, Note_on_c, 0, 59, 49
4, 52440, Note_on_c, 0, 63, 49
4, 52440, Note_on_c, 0, 66, 49
4, 52560, Note_on_c, 0, 66, 0
4, 52560, Note_on_c, 0, 63, 0
4, 52560, Note_on_c, 0, 59, 0
4, 52560, Note_on_c, 0, 59, 49
4, 52560, Note_on_c, 0, 63, 49
4, 52560, Note_on_c, 0, 66, 49
4, 52680, Note_on_c, 0, 66, 0
4, 52680, Note_on_c, 0, 63, 0
4, 52680, Note_on_c, 0, 59, 0
4, 52680, Note_on_c, 0, 59, 49
4, 52680, Note_on_c, 0, 63, 49
4, 52680, Note_on_c, 0, 66, 49
4, 52800, Note_on_c, 0, 66, 0
4, 52800, Note_on_c, 0, 63, 0
4, 52800, Note_on_c, 0, 59, 0
4, 52800, Note_on_c, 0, 57, 49
4, 52800, Note_on_c, 0, 64, 49
4, 52800, Note_on_c, 0, 66, 49
4, 52920, Note_on_c, 0, 66, 0
4, 52920, Note_on_c, 0, 64, 0
4, 52920, Note_on_c, 0, 57, 0
4, 52920, Note_on_c, 0, 57, 49
4, 52920, Note_on_c, 0, 64, 49
4, 52920, Note_on_c, 0, 66, 49
4, 53040, Note_on_c, 0, 66, 0
4, 53040, Note_on_c, 0, 64, 0
4, 53040, Note_on_c, 0, 57, 0
4, 53040, Note_on_c, 0, 57, 49
4, 53040, Note_on_c, 0, 64, 49
4, 53040, Note_on_c, 0, 66, 49
4, 53160, Note_on_c, 0, 66, 0
4, 53160, Note_on_c, 0, 64, 0
4, 53160, Note_on_c, 0, 57, 0
4, 53160, Note_on_c, 0, 57, 49
4, 53160, Note_on_c, 0, 64, 49
4, 53160, Note_on_c, 0, 66, 49
4, 53280, Note_on_c, 0, 66, 0
4, 53280, Note_on_c, 0, 64, 0
4, 53280, Note_on_c, 0, 57, 0
4, 53280, Note_on_c, 0, 57, 49
4, 53280, Note_on_c, 0, 64, 49
4, 53280, Note_on_c, 0, 66, 49
4, 53400, Note_on_c, 0, 66, 0
4, 53400, Note_on_c, 0, 64, 0
4, 53400, Note_on_c, 0, 57, 0
4, 53400, Note_on_c, 0, 57, 49
4, 53400, Note_on_c, 0, 64, 49
4, 53400, Note_on_c, 0, 66, 49
4, 53520, Note_on_c, 0, 66, 0
4, 53520, Note_on_c, 0, 64, 0
4, 53520, Note_on_c, 0, 57, 0
4, 53520, Note_on_c, 0, 57, 49
4, 53520, Note_on_c, 0, 64, 49
4, 53520, Note_on_c, 0, 66, 49
4, 53640, Note_on_c, 0, 66, 0
4, 53640, Note_on_c, 0, 64, 0
4, 53640, Note_on_c, 0, 57, 0
4, 53640, Note_on_c, 0, 57, 49
4, 53640, Note_on_c, 0, 64, 49
4, 53640, Note_on_c, 0, 66, 49
4, 53760, Note_on_c, 0, 66, 0
4, 53760, Note_on_c, 0, 64, 0
4, 53760, Note_on_c, 0, 57, 0
4, 53760, Note_on_c, 0, 59, 49
4, 53760, Note_on_c, 0, 63, 49
4, 53760, Note_on_c, 0, 66, 49
4, 53880, Note_on_c, 0, 66, 0
4, 53880, Note_on_c, 0, 63, 0
4, 53880, Note_on_c, 0, 59, 0
4, 53880, Note_on_c, 0, 59, 49
4, 53880, Note_on_c, 0, 63, 49
4, 53880, Note_on_c, 0, 66, 49
4, 54000, Note_on_c, 0, 66, 0
4, 54000, Note_on_c, 0, 63, 0
4, 54000, Note_on_c, 0, 59, 0
4, 54000, Note_on_c, 0, 59, 49
4, 54000, Note_on_c, 0, 63, 49
4, 54000, Note_on_c, 0, 66, 49
4, 54120, Note_on_c, 0, 66, 0
4, 54120, Note_on_c, 0, 63, 0
4, 54120, Note_on_c, 0, 59, 0
4, 54120, Note_on_c, 0, 59, 49
4, 54120, Note_on_c, 0, 63, 49
4, 54120, Note_on_c, 0, 66, 49
4, 54240, Note_on_c, 0, 66, 0
4, 54240, Note_on_c, 0, 63, 0
4, 54240, Note_on_c, 0, 59, 0
4, 54240, Control_c, 0, 64, 127
4, 54240, Note_on_c, 0, 35, 62
4, 54279, Note_on_c, 0, 35, 0
4, 54279, Note_on_c, 0, 39, 62
4, 54320, Note_on_c, 0, 39, 0
4, 54320, Note_on_c, 0, 42, 62
4, 54360, Note_on_c, 0, 42, 0
4, 54360, Note_on_c, 0, 47, 62
4, 54399, Note_on_c, 0, 47, 0
4, 54399, Note_on_c, 0, 51, 62
4, 54440, Note_on_c, 0, 51, 0
4, 54440, Note_on_c, 0, 54, 62
4, 54480, Note_on_c, 0, 54, 0
4, 54720, Control_c, 0, 64, 0
4, 54720, Note_on_c, 0, 59, 62
4, 54720, Note_on_c, 0, 63, 62
4, 54720, Note_on_c, 0, 66, 62
4, 54840, Note_on_c, 0, 66, 0
4, 54840, Note_on_c, 0, 63, 0
4, 54840, Note_on_c, 0, 59, 0
4, 54840, Note_on_c, 0, 59, 62
4, 54840, Note_on_c, 0, 63, 62
4, 54840, Note_on_c, 0, 66, 62
4, 54960, Note_on_c, 0, 66, 0
4, 54960, Note_on_c, 0, 63, 0
4, 54960, Note_on_c, 0, 59, 0
4, 54960, Note_on_c, 0, 59, 62
4, 54960, Note_on_c, 0, 63, 62
4, 54960, Note_on_c, 0, 66, 62
4, 55080, Note_on_c, 0, 66, 0
4, 55080, Note_on_c, 0, 63, 0
4, 55080, Note_on_c, 0, 59, 0
4, 55080, Note_on_c, 0, 59, 62
4, 55080, Note_on_c, 0, 63, 62
4, 55080, Note_on_c, 0, 66, 62
4, 55200, Note_on_c, 0, 66, 0
4, 55200, Note_on_c, 0, 63, 0
4, 55200, Note_on_c, 0, 59, 0
4, 55200, Note_on_c, 0, 59, 88
4, 55440, Note_on_c, 0, 59, 0
4, 55440, Note_on_c, 0, 57, 62
4, 55680, Note_on_c, 0, 57, 0
4, 55680, Note_on_c, 0, 55, 88
4, 56160, Note_on_c, 0, 55, 0
4, 56160, Note_on_c, 0, 62, 88
4, 56400, Note_on_c, 0, 62, 0
4, 56400, Note_on_c, 0, 60, 88
4, 56640, Note_on_c, 0, 60, 0
4, 56640, Control_c, 0, 64, 127
4, 56640, Note_on_c, 0, 59, 62
4, 57000, Note_on_c, 0, 59, 0
4, 57000, Note_on_c, 0, 60, 62
4, 57060, Note_on_c, 0, 60, 0
4, 57060, Note_on_c, 0, 59, 62
4, 57120, Note_on_c, 0, 59, 0
4, 57120, Note_on_c, 0, 57, 88
4, 57360, Note_on_c, 0, 57, 0
4, 57360, Control_c, 0, 64, 0
4, 57360, Note_on_c, 0, 55, 88
4, 57600, Note_on_c, 0, 55, 0
4, 57600, Note_on_c, 0, 59, 62
4, 58080, Note_on_c, 0, 59, 0
4, 58080, Note_on_c, 0, 57, 62
4, 58560, Note_on_c, 0, 57, 0
4, 59040, Note_on_c, 0, 57, 62
4, 59280, Note_on_c, 0, 57, 0
4, 59280, Note_on_c, 0, 59, 62
4, 59430, Note_on_c, 0, 40, 62
4, 59460, Note_on_c, 0, 43, 62
4, 59490, Note_on_c, 0, 47, 62
4, 59520, Note_on_c, 0, 59, 0
4, 59520, Control_c, 0, 64, 127
4, 59520, Note_on_c, 0, 52, 62
4, 59880, Note_on_c, 0, 52, 0
4, 59880, Note_on_c, 0, 47, 0
4, 59880, Note_on_c, 0, 43, 0
4, 59880, Note_on_c, 0, 40, 0
4, 59880, Note_on_c, 0, 54, 62
4, 59940, Note_on_c, 0, 54, 0
4, 59940, Note_on_c, 0, 52, 62
4, 60000, Note_on_c, 0, 52, 0
4, 60000, Note_on_c, 0, 51, 75
4, 60240, Note_on_c, 0, 51, 0
4, 60240, Control_c, 0, 64, 0
4, 60240, Note_on_c, 0, 52, 75
4, 60480, Note_on_c, 0, 52, 0
4, 60480, Note_on_c, 0, 55, 75
4, 60960, Note_on_c, 0, 55, 0
4, 60960, Note_on_c, 0, 54, 75
4, 61200, Note_on_c, 0, 54, 0
4, 61200, Note_on_c, 0, 52, 62
4, 61440, Note_on_c, 0, 52, 0
4, 61440, Note_on_c, 0, 47, 62
4, 61680, Note_on_c, 0, 47, 0
4, 61920, Control_c, 0, 64, 127
4, 61920, Note_on_c, 0, 35, 62
4, 61959, Note_on_c, 0, 35, 0
4, 61959, Note_on_c, 0, 39, 62
4, 62000, Note_on_c, 0, 39, 0
4, 62000, Note_on_c, 0, 42, 62
4, 62040, Note_on_c, 0, 42, 0
4, 62040, Note_on_c, 0, 47, 62
4, 62079, Note_on_c, 0, 47, 0
4, 62079, Note_on_c, 0, 51, 62
4, 62120, Note_on_c, 0, 51, 0
4, 62120, Note_on_c, 0, 54, 62
4, 62160, Note_on_c, 0, 54, 0
4, 62400, Control_c, 0, 64, 0
4, 62400, Note_on_c, 0, 51, 49
4, 62400, Note_on_c, 0, 54, 49
4, 62559, Note_on_c, 0, 54, 0
4, 62559, Note_on_c, 0, 51, 0
4, 62559, Note_on_c, 0, 51, 49
4, 62559, Note_on_c, 0, 54, 49
4, 62720, Note_on_c, 0, 54, 0
4, 62720, Note_on_c, 0, 51, 0
4, 62720, Note_on_c, 0, 51, 49
4, 62720, Note_on_c, 0, 54, 49
4, 62880, Note_on_c, 0, 54, 0
4, 62880, Note_on_c, 0, 51, 0
4, 62880, Note_on_c, 0, 51, 49
4, 62880, Note_on_c, 0, 54, 49
4, 63039, Note_on_c, 0, 54, 0
4, 63039, Note_on_c, 0, 51, 0
4, 63039, Note_on_c, 0, 51, 49
4, 63039, Note_on_c, 0, 54, 49
4, 63200, Note_on_c, 0, 54, 0
4, 63200, Note_on_c, 0, 51, 0
4, 63200, Note_on_c, 0, 51, 49
4, 63200, Note_on_c, 0, 54, 49
4, 63360, Note_on_c, 0, 54, 0
4, 63360, Note_on_c, 0, 51, 0
4, 63360, Note_on_c, 0, 52, 49
4, 63360, Note_on_c, 0, 57, 49
4, 63519, Note_on_c, 0, 57, 0
4, 63519, Note_on_c, 0, 52, 0
4, 63519, Note_on_c, 0, 52, 49
4, 63519, Note_on_c, 0, 57, 49
4, 63680, Note_on_c, 0, 57, 0
4, 63680, Note_on_c, 0, 52, 0
4, 63680, Note_on_c, 0, 52, 49
4, 63680, Note_on_c, 0, 57, 49
4, 63840, Note_on_c, 0, 57, 0
4, 63840, Note_on_c, 0, 52, 0
4, 63840, Note_on_c, 0, 48, 49
4, 63840, Note_on_c, 0, 52, 49
4, 63999, Note_on_c, 0, 52, 0
4, 63999, Note_on_c, 0, 48, 0
4, 63999, Note_on_c, 0, 48, 49
4, 63999, Note_on_c, 0, 52, 49
4, 64160, Note_on_c, 0, 52, 0
4, 64160, Note_on_c, 0, 48, 0
4, 64160, Note_on_c, 0, 48, 49
4, 64160, Note_on_c, 0, 52, 49
4, 64320, Note_on_c, 0, 52, 0
4, 64320, Note_on_c, 0, 48, 0
4, 64320, Note_on_c, 0, 48, 49
4, 64320, Note_on_c, 0, 52, 49
4, 64320, Note_on_c, 0, 57, 49
4, 64479, Note_on_c, 0, 57, 0
4, 64479, Note_on_c, 0, 52, 0
4, 64479, Note_on_c, 0, 48, 0
4, 64479, Note_on_c, 0, 48, 49
4, 64479, Note_on_c, 0, 52, 49
4, 64479, Note_on_c, 0, 57, 49
4, 64640, Note_on_c, 0, 57, 0
4, 64640, Note_on_c, 0, 52, 0
4, 64640, Note_on_c, 0, 48, 0
4, 64640, Note_on_c, 0, 48, 49
4, 64640, Note_on_c, 0, 52, 49
4, 64640, Note_on_c, 0, 57, 49
4, 64800, Note_on_c, 0, 57, 0
4, 64800, Note_on_c, 0, 52, 0
4, 64800, Note_on_c, 0, 48, 0
4, 64800, Note_on_c, 0, 48, 49
4, 64800, Note_on_c, 0, 52, 49
4, 64959, Note_on_c, 0, 52, 0
4, 64959, Note_on_c, 0, 48, 0
4, 64959, Note_on_c, 0, 48, 49
4, 64959, Note_on_c, 0, 52, 49
4, 65120, Note_on_c, 0, 52, 0
4, 65120, Note_on_c, 0, 48, 0
4, 65120, Note_on_c, 0, 52, 49
4, 65120, Note_on_c, 0, 57, 49
4, 65280, Note_on_c, 0, 57, 0
4, 65280, Note_on_c, 0, 52, 0
4, 65280, Note_on_c, 0, 54, 49
4, 65280, Note_on_c, 0, 57, 49
4, 65439, Note_on_c, 0, 57, 0
4, 65439, Note_on_c, 0, 54, 0
4, 65439, Note_on_c, 0, 54, 49
4, 65439, Note_on_c, 0, 57, 49
4, 65600, Note_on_c, 0, 57, 0
4, 65600, Note_on_c, 0, 54, 0
4, 65600, Note_on_c, 0, 54, 49
4, 65600, Note_on_c, 0, 57, 49
4, 65760, Note_on_c, 0, 57, 0
4, 65760, Note_on_c, 0, 54, 0
4, 65760, Note_on_c, 0, 54, 49
4, 65760, Note_on_c, 0, 57, 49
4, 65919, Note_on_c, 0, 57, 0
4, 65919, Note_on_c, 0, 54, 0
4, 65919, Note_on_c, 0, 54, 49
4, 65919, Note_on_c, 0, 57, 49
4, 66080, Note_on_c, 0, 57, 0
4, 66080, Note_on_c, 0, 54, 0
4, 66080, Note_on_c, 0, 54, 49
4, 66080, Note_on_c, 0, 57, 49
4, 66240, Note_on_c, 0, 57, 0
4, 66240, Note_on_c, 0, 54, 0
4, 66240, Note_on_c, 0, 54, 49
4, 66240, Note_on_c, 0, 57, 49
4, 66399, Note_on_c, 0, 57, 0
4, 66399, Note_on_c, 0, 54, 0
4, 66399, Note_on_c, 0, 54, 49
4, 66399, Note_on_c, 0, 57, 49
4, 66560, Note_on_c, 0, 57, 0
4, 66560, Note_on_c, 0, 54, 0
4, 66560, Note_on_c, 0, 54, 49
4, 66560, Note_on_c, 0, 57, 49
4, 66720, Note_on_c, 0, 57, 0
4, 66720, Note_on_c, 0, 54, 0
4, 66720, Note_on_c, 0, 51, 49
4, 66720, Note_on_c, 0, 54, 49
4, 66879, Note_on_c, 0, 54, 0
4, 66879, Note_on_c, 0, 51, 0
4, 66879, Note_on_c, 0, 51, 49
4, 66879, Note_on_c, 0, 54, 49
4, 67040, Note_on_c, 0, 54, 0
4, 67040, Note_on_c, 0, 51, 0
4, 67040, Note_on_c, 0, 51, 49
4, 67040, Note_on_c, 0, 54, 49
4, 67200, Note_on_c, 0, 54, 0
4, 67200, Note_on_c, 0, 51, 0
4, 67200, Note_on_c, 0, 52, 49
4, 67200, Note_on_c, 0, 57, 49
4, 67359, Note_on_c, 0, 57, 0
4, 67359, Note_on_c, 0, 52, 0
4, 67359, Note_on_c, 0, 52, 49
4, 67359, Note_on_c, 0, 57, 49
4, 67520, Note_on_c, 0, 57, 0
4, 67520, Note_on_c, 0, 52, 0
4, 67520, Note_on_c, 0, 52, 49
4, 67520, Note_on_c, 0, 57, 49
4, 67680, Note_on_c, 0, 57, 0
4, 67680, Note_on_c, 0, 52, 0
4, 67680, Note_on_c, 0, 48, 49
4, 67680, Note_on_c, 0, 52, 49
4, 67839, Note_on_c, 0, 52, 0
4, 67839, Note_on_c, 0, 48, 0
4, 67839, Note_on_c, 0, 48, 49
4, 67839, Note_on_c, 0, 52, 49
4, 68000, Note_on_c, 0, 52, 0
4, 68000, Note_on_c, 0, 48, 0
4, 68000, Note_on_c, 0, 48, 49
4, 68000, Note_on_c, 0, 52, 49
4, 68160, Note_on_c, 0, 52, 0
4, 68160, Note_on_c, 0, 48, 0
4, 68160, Note_on_c, 0, 48, 49
4, 68160, Note_on_c, 0, 52, 49
4, 68160, Note_on_c, 0, 57, 49
4, 68319, Note_on_c, 0, 57, 0
4, 68319, Note_on_c, 0, 52, 0
4, 68319, Note_on_c, 0, 48, 0
4, 68319, Note_on_c, 0, 48, 49
4, 68319, Note_on_c, 0, 52, 49
4, 68319, Note_on_c, 0, 57, 49
4, 68480, Note_on_c, 0, 57, 0
4, 68480, Note_on_c, 0, 52, 0
4, 68480, Note_on_c, 0, 48, 0
4, 68480, Note_on_c, 0, 48, 49
4, 68480, Note_on_c, 0, 52, 49
4, 68480, Note_on_c, 0, 57, 49
4, 68640, Note_on_c, 0, 57, 0
4, 68640, Note_on_c, 0, 52, 0
4, 68640, Note_on_c, 0, 48, 0
4, 68640, Note_on_c, 0, 48, 49
4, 68640, Note_on_c, 0, 52, 49
4, 68799, Note_on_c, 0, 52, 0
4, 68799, Note_on_c, 0, 48, 0
4, 68799, Note_on_c, 0, 52, 49
4, 68799, Note_on_c, 0, 57, 49
4, 68960, Note_on_c, 0, 57, 0
4, 68960, Note_on_c, 0, 52, 0
4, 68960, Note_on_c, 0, 52, 49
4, 68960, Note_on_c, 0, 57, 49
4, 69120, Note_on_c, 0, 57, 0
4, 69120, Note_on_c, 0, 52, 0
4, 69120, Note_on_c, 0, 47, 49
4, 69120, Note_on_c, 0, 51, 49
4, 69120, Note_on_c, 0, 57, 49
4, 69279, Note_on_c, 0, 57, 0
4, 69279, Note_on_c, 0, 51, 0
4, 69279, Note_on_c, 0, 47, 0
4, 69279, Note_on_c, 0, 47, 49
4, 69279, Note_on_c, 0, 51, 49
4, 69279, Note_on_c, 0, 57, 49
4, 69440, Note_on_c, 0, 57, 0
4, 69440, Note_on_c, 0, 51, 0
4, 69440, Note_on_c, 0, 47, 0
4, 69440, Note_on_c, 0, 47, 49
4, 69440, Note_on_c, 0, 51, 49
4, 69440, Note_on_c, 0, 57, 49
4, 69600, Note_on_c, 0, 57, 0
4, 69600, Note_on_c, 0, 51, 0
4, 69600, Note_on_c, 0, 47, 0
4, 69600, Note_on_c, 0, 47, 49
4, 69600, Note_on_c, 0, 51, 49
4, 69600, Note_on_c, 0, 57, 49
4, 69759, Note_on_c, 0, 57, 0
4, 69759, Note_on_c, 0, 51, 0
4, 69759, Note_on_c, 0, 47, 0
4, 69759, Note_on_c, 0, 57, 49
4, 69759, Note_on_c, 0, 59, 49
4, 69759, Note_on_c, 0, 63, 49
4, 69920, Note_on_c, 0, 63, 0
4, 69920, Note_on_c, 0, 59, 0
4, 69920, Note_on_c, 0, 57, 0
4, 69920, Note_on_c, 0, 57, 49
4, 69920, Note_on_c, 0, 59, 49
4, 69920, Note_on_c, 0, 63, 49
4, 70080, Note_on_c, 0, 63, 0
4, 70080, Note_on_c, 0, 59, 0
4, 70080, Note_on_c, 0, 57, 0
4, 70080, Note_on_c, 0, 57, 49
4, 70080, Note_on_c, 0, 59, 49
4, 70080, Note_on_c, 0, 63, 49
4, 70239, Note_on_c, 0, 63, 0
4, 70239, Note_on_c, 0, 59, 0
4, 70239, Note_on_c, 0, 57, 0
4, 70239, Note_on_c, 0, 57, 49
4, 70239, Note_on_c, 0, 59, 49
4, 70239, Note_on_c, 0, 63, 49
4, 70400, Note_on_c, 0, 63, 0
4, 70400, Note_on_c, 0, 59, 0
4, 70400, Note_on_c, 0, 57, 0
4, 70400, Note_on_c, 0, 57, 49
4, 70400, Note_on_c, 0, 59, 49
4, 70400, Note_on_c, 0, 63, 49
4, 70560, Note_on_c, 0, 63, 0
4, 70560, Note_on_c, 0, 59, 0
4, 70560, Note_on_c, 0, 57, 0
4, 70560, Note_on_c, 0, 47, 49
4, 70560, Note_on_c, 0, 51, 49
4, 70560, Note_on_c, 0, 57, 49
4, 70719, Note_on_c, 0, 57, 0
4, 70719, Note_on_c, 0, 51, 0
4, 70719, Note_on_c, 0, 47, 0
4, 70719, Note_on_c, 0, 47, 49
4, 70719, Note_on_c, 0, 51, 49
4, 70719, Note_on_c, 0, 57, 49
4, 70880, Note_on_c, 0, 57, 0
4, 70880, Note_on_c, 0, 51, 0
4, 70880, Note_on_c, 0, 47, 0
4, 70880, Note_on_c, 0, 47, 49
4, 70880, Note_on_c, 0, 51, 49
4, 70880, Note_on_c, 0, 57, 49
4, 71040, Note_on_c, 0, 57, 0
4, 71040, Note_on_c, 0, 51, 0
4, 71040, Note_on_c, 0, 47, 0
4, 71040, Note_on_c, 0, 47, 49
4, 71040, Note_on_c, 0, 52, 49
4, 71040, Note_on_c, 0, 55, 49
4, 71199, Note_on_c, 0, 55, 0
4, 71199, Note_on_c, 0, 52, 0
4, 71199, Note_on_c, 0, 47, 0
4, 71199, Note_on_c, 0, 47, 49
4, 71199, Note_on_c, 0, 52, 49
4, 71199, Note_on_c, 0, 55, 49
4, 71360, Note_on_c, 0, 55, 0
4, 71360, Note_on_c, 0, 52, 0
4, 71360, Note_on_c, 0, 47, 0
4, 71360, Note_on_c, 0, 47, 49
4, 71360, Note_on_c, 0, 52, 49
4, 71360, Note_on_c, 0, 55, 49
4, 71520, Note_on_c, 0, 55, 0
4, 71520, Note_on_c, 0, 52, 0
4, 71520, Note_on_c, 0, 47, 0
4, 71520, Note_on_c, 0, 47, 49
4, 71520, Note_on_c, 0, 52, 49
4, 71520, Note_on_c, 0, 55, 49
4, 71679, Note_on_c, 0, 55, 0
4, 71679, Note_on_c, 0, 52, 0
4, 71679, Note_on_c, 0, 47, 0
4, 71679, Note_on_c, 0, 55, 49
4, 71679, Note_on_c, 0, 59, 49
4, 71679, Note_on_c, 0, 64, 49
4, 71840, Note_on_c, 0, 64, 0
4, 71840, Note_on_c, 0, 59, 0
4, 71840, Note_on_c, 0, 55, 0
4, 71840, Note_on_c, 0, 55, 49
4, 71840, Note_on_c, 0, 59, 49
4, 71840, Note_on_c, 0, 64, 49
4, 72000, Note_on_c, 0, 64, 0
4, 72000, Note_on_c, 0, 59, 0
4, 72000, Note_on_c, 0, 55, 0
4, 72000, Note_on_c, 0, 55, 49
4, 72000, Note_on_c, 0, 59, 49
4, 72000, Note_on_c, 0, 64, 49
4, 72159, Note_on_c, 0, 64, 0
4, 72159, Note_on_c, 0, 59, 0
4, 72159, Note_on_c, 0, 55, 0
4, 72159, Note_on_c, 0, 55, 49
4, 72159, Note_on_c, 0, 59, 49
4, 72159, Note_on_c, 0, 64, 49
4, 72320, Note_on_c, 0, 64, 0
4, 72320, Note_on_c, 0, 59, 0
4, 72320, Note_on_c, 0, 55, 0
4, 72320, Note_on_c, 0, 55, 49
4, 72320, Note_on_c, 0, 59, 49
4, 72320, Note_on_c, 0, 64, 49
4, 72480, Note_on_c, 0, 64, 0
4, 72480, Note_on_c, 0, 59, 0
4, 72480, Note_on_c, 0, 55, 0
4, 72480, Note_on_c, 0, 47, 49
4, 72480, Note_on_c, 0, 52, 49
4, 72480, Note_on_c, 0, 55, 49
4, 72639, Note_on_c, 0, 55, 0
4, 72639, Note_on_c, 0, 52, 0
4, 72639, Note_on_c, 0, 47, 0
4, 72639, Note_on_c, 0, 47, 49
4, 72639, Note_on_c, 0, 52, 49
4, 72639, Note_on_c, 0, 55, 49
4, 72800, Note_on_c, 0, 55, 0
4, 72800, Note_on_c, 0, 52, 0
4, 72800, Note_on_c, 0, 47, 0
4, 72800, Note_on_c, 0, 47, 49
4, 72800, Note_on_c, 0, 52, 49
4, 72800, Note_on_c, 0, 55, 49
4, 72960, Note_on_c, 0, 55, 0
4, 72960, Note_on_c, 0, 52, 0
4, 72960, Note_on_c, 0, 47, 0
4, 72960, Note_on_c, 0, 47, 49
4, 72960, Note_on_c, 0, 48, 49
4, 72960, Note_on_c, 0, 52, 49
4, 72960, Note_on_c, 0, 57, 49
4, 73119, Note_on_c, 0, 57, 0
4, 73119, Note_on_c, 0, 47, 0
4, 73119, Note_on_c, 0, 48, 0
4, 73119, Note_on_c, 0, 52, 0
4, 73119, Note_on_c, 0, 47, 49
4, 73119, Note_on_c, 0, 48, 49
4, 73119, Note_on_c, 0, 52, 49
4, 73119, Note_on_c, 0, 57, 49
4, 73280, Note_on_c, 0, 57, 0
4, 73280, Note_on_c, 0, 47, 0
4, 73280, Note_on_c, 0, 48, 0
4, 73280, Note_on_c, 0, 52, 0
4, 73280, Note_on_c, 0, 47, 49
4, 73280, Note_on_c, 0, 48, 49
4, 73280, Note_on_c, 0, 52, 49
4, 73280, Note_on_c, 0, 57, 49
4, 73440, Note_on_c, 0, 57, 0
4, 73440, Note_on_c, 0, 47, 0
4, 73440, Note_on_c, 0, 48, 0
4, 73440, Note_on_c, 0, 52, 0
4, 73440, Note_on_c, 0, 47, 49
4, 73440, Note_on_c, 0, 51, 49
4, 73440, Note_on_c, 0, 54, 49
4, 73440, Note_on_c, 0, 57, 49
4, 73599, Note_on_c, 0, 57, 0
4, 73599, Note_on_c, 0, 47, 0
4, 73599, Note_on_c, 0, 51, 0
4, 73599, Note_on_c, 0, 54, 0
4, 73599, Note_on_c, 0, 47, 49
4, 73599, Note_on_c, 0, 51, 49
4, 73599, Note_on_c, 0, 54, 49
4, 73599, Note_on_c, 0, 57, 49
4, 73760, Note_on_c, 0, 57, 0
4, 73760, Note_on_c, 0, 47, 0
4, 73760, Note_on_c, 0, 51, 0
4, 73760, Note_on_c, 0, 54, 0
4, 73760, Note_on_c, 0, 47, 49
4, 73760, Note_on_c, 0, 51, 49
4, 73760, Note_on_c, 0, 54, 49
4, 73760, Note_on_c, 0, 57, 49
4, 73920, Note_on_c, 0, 57, 0
4, 73920, Note_on_c, 0, 47, 0
4, 73920, Note_on_c, 0, 51, 0
4, 73920, Note_on_c, 0, 54, 0
4, 73920, Note_on_c, 0, 47, 49
4, 73920, Note_on_c, 0, 52, 49
4, 73920, Note_on_c, 0, 55, 49
4, 74079, Note_on_c, 0, 55, 0
4, 74079, Note_on_c, 0, 52, 0
4, 74079, Note_on_c, 0, 47, 0
4, 74079, Note_on_c, 0, 47, 49
4, 74079, Note_on_c, 0, 52, 49
4, 74079, Note_on_c, 0, 55, 49
4, 74240, Note_on_c, 0, 55, 0
4, 74240, Note_on_c, 0, 52, 0
4, 74240, Note_on_c, 0, 47, 0
4, 74240, Note_on_c, 0, 47, 49
4, 74240, Note_on_c, 0, 52, 49
4, 74240, Note_on_c, 0, 55, 49
4, 74400, Note_on_c, 0, 55, 0
4, 74400, Note_on_c, 0, 52, 0
4, 74400, Note_on_c, 0, 47, 0
4, 74400, Note_on_c, 0, 47, 49
4, 74400, Note_on_c, 0, 52, 49
4, 74400, Note_on_c, 0, 56, 49
4, 74559, Note_on_c, 0, 56, 0
4, 74559, Note_on_c, 0, 52, 0
4, 74559, Note_on_c, 0, 47, 0
4, 74559, Note_on_c, 0, 47, 49
4, 74559, Note_on_c, 0, 52, 49
4, 74559, Note_on_c, 0, 56, 49
4, 74720, Note_on_c, 0, 56, 0
4, 74720, Note_on_c, 0, 52, 0
4, 74720, Note_on_c, 0, 47, 0
4, 74720, Note_on_c, 0, 47, 49
4, 74720, Note_on_c, 0, 52, 49
4, 74720, Note_on_c, 0, 56, 49
4, 74880, Note_on_c, 0, 56, 0
4, 74880, Note_on_c, 0, 52, 0
4, 74880, Note_on_c, 0, 47, 0
4, 74880, Note_on_c, 0, 47, 62
4, 74880, Note_on_c, 0, 52, 62
4, 74880, Note_on_c, 0, 57, 62
4, 75039, Note_on_c, 0, 57, 0
4, 75039, Note_on_c, 0, 52, 0
4, 75039, Note_on_c, 0, 47, 0
4, 75039, Note_on_c, 0, 47, 62
4, 75039, Note_on_c, 0, 52, 62
4, 75039, Note_on_c, 0, 57, 62
4, 75200, Note_on_c, 0, 57, 0
4, 75200, Note_on_c, 0, 52, 0
4, 75200, Note_on_c, 0, 47, 0
4, 75200, Note_on_c, 0, 47, 62
4, 75200, Note_on_c, 0, 52, 62
4, 75200, Note_on_c, 0, 57, 62
4, 75360, Note_on_c, 0, 57, 0
4, 75360, Note_on_c, 0, 52, 0
4, 75360, Note_on_c, 0, 47, 0
4, 75360, Note_on_c, 0, 47, 62
4, 75360, Note_on_c, 0, 52, 62
4, 75360, Note_on_c, 0, 57, 62
4, 75519, Note_on_c, 0, 57, 0
4, 75519, Note_on_c, 0, 52, 0
4, 75519, Note_on_c, 0, 47, 0
4, 75519, Note_on_c, 0, 47, 62
4, 75519, Note_on_c, 0, 52, 62
4, 75519, Note_on_c, 0, 57, 62
4, 75680, Note_on_c, 0, 57, 0
4, 75680, Note_on_c, 0, 52, 0
4, 75680, Note_on_c, 0, 47, 0
4, 75680, Note_on_c, 0, 47, 62
4, 75680, Note_on_c, 0, 52, 62
4, 75680, Note_on_c, 0, 57, 62
4, 75840, Note_on_c, 0, 57, 0
4, 75840, Note_on_c, 0, 52, 0
4, 75840, Note_on_c, 0, 47, 0
4, 75840, Note_on_c, 0, 47, 62
4, 75840, Note_on_c, 0, 54, 62
4, 75840, Note_on_c, 0, 57, 62
4, 75999, Note_on_c, 0, 57, 0
4, 75999, Note_on_c, 0, 54, 0
4, 75999, Note_on_c, 0, 47, 0
4, 75999, Note_on_c, 0, 47, 62
4, 75999, Note_on_c, 0, 54, 62
4, 75999, Note_on_c, 0, 57, 62
4, 76160, Note_on_c, 0, 57, 0
4, 76160, Note_on_c, 0, 54, 0
4, 76160, Note_on_c, 0, 47, 0
4, 76160, Note_on_c, 0, 47, 62
4, 76160, Note_on_c, 0, 54, 62
4, 76160, Note_on_c, 0, 57, 62
4, 76320, Note_on_c, 0, 57, 0
4, 76320, Note_on_c, 0, 54, 0
4, 76320, Note_on_c, 0, 47, 0
4, 76320, Note_on_c, 0, 47, 75
4, 76320, Note_on_c, 0, 54, 75
4, 76320, Note_on_c, 0, 57, 75
4, 76479, Note_on_c, 0, 57, 0
4, 76479, Note_on_c, 0, 54, 0
4, 76479, Note_on_c, 0, 47, 0
4, 76479, Note_on_c, 0, 47, 75
4, 76479, Note_on_c, 0, 54, 75
4, 76479, Note_on_c, 0, 57, 75
4, 76640, Note_on_c, 0, 57, 0
4, 76640, Note_on_c, 0, 54, 0
4, 76640, Note_on_c, 0, 47, 0
4, 76640, Note_on_c, 0, 47, 75
4, 76640, Note_on_c, 0, 54, 75
4, 76640, Note_on_c, 0, 57, 75
4, 76800, Note_on_c, 0, 57, 0
4, 76800, Note_on_c, 0, 54, 0
4, 76800, Note_on_c, 0, 47, 0
4, 76800, Note_on_c, 0, 47, 75
4, 76800, Note_on_c, 0, 55, 75
4, 76800, Note_on_c, 0, 59, 75
4, 76959, Note_on_c, 0, 59, 0
4, 76959, Note_on_c, 0, 55, 0
4, 76959, Note_on_c, 0, 47, 0
4, 76959, Note_on_c, 0, 47, 75
4, 76959, Note_on_c, 0, 55, 75
4, 76959, Note_on_c, 0, 59, 75
4, 77120, Note_on_c, 0, 59, 0
4, 77120, Note_on_c, 0, 55, 0
4, 77120, Note_on_c, 0, 47, 0
4, 77120, Note_on_c, 0, 47, 75
4, 77120, Note_on_c, 0, 55, 75
4, 77120, Note_on_c, 0, 59, 75
4, 77280, Note_on_c, 0, 59, 0
4, 77280, Note_on_c, 0, 55, 0
4, 77280, Note_on_c, 0, 47, 0
4, 77280, Control_c, 0, 64, 127
4, 77280, Note_on_c, 0, 35, 101
4, 77340, Note_on_c, 0, 35, 0
4, 77340, Note_on_c, 0, 47, 101
4, 77400, Note_on_c, 0, 47, 0
4, 77400, Note_on_c, 0, 35, 75
4, 77460, Note_on_c, 0, 35, 0
4, 77460, Note_on_c, 0, 47, 75
4, 77520, Note_on_c, 0, 47, 0
4, 77520, Note_on_c, 0, 35, 75
4, 77580, Note_on_c, 0, 35, 0
4, 77580, Note_on_c, 0, 47, 75
4, 77640, Note_on_c, 0, 47, 0
4, 77640, Note_on_c, 0, 35, 75
4, 77700, Note_on_c, 0, 35, 0
4, 77700, Note_on_c, 0, 47, 75
4, 77760, Note_on_c, 0, 47, 0
4, 77760, Note_on_c, 0, 35, 75
4, 77820, Note_on_c, 0, 35, 0
4, 77820, Note_on_c, 0, 47, 75
4, 77880, Note_on_c, 0, 47, 0
4, 77880, Note_on_c, 0, 35, 75
4, 77940, Note_on_c, 0, 35, 0
4, 77940, Note_on_c, 0, 47, 75
4, 78000, Note_on_c, 0, 47, 0
4, 78000, Note_on_c, 0, 35, 75
4, 78060, Note_on_c, 0, 35, 0
4, 78060, Note_on_c, 0, 47, 75
4, 78120, Note_on_c, 0, 47, 0
4, 78120, Note_on_c, 0, 35, 75
4, 78180, Note_on_c, 0, 35, 0
4, 78180, Note_on_c, 0, 47, 75
4, 78240, Note_on_c, 0, 47, 0
4, 78240, Note_on_c, 0, 35, 75
4, 78300, Note_on_c, 0, 35, 0
4, 78300, Note_on_c, 0, 47, 75
4, 78360, Note_on_c, 0, 47, 0
4, 78360, Note_on_c, 0, 35, 75
4, 78420, Note_on_c, 0, 35, 0
4, 78420, Note_on_c, 0, 47, 75
4, 78480, Note_on_c, 0, 47, 0
4, 78480, Note_on_c, 0, 35, 75
4, 78540, Note_on_c, 0, 35, 0
4, 78540, Note_on_c, 0, 47, 75
4, 78600, Note_on_c, 0, 47, 0
4, 78600, Note_on_c, 0, 35, 75
4, 78660, Note_on_c, 0, 35, 0
4, 78660, Control_c, 0, 64, 0
4, 78660, Note_on_c, 0, 47, 75
4, 78720, Note_on_c, 0, 47, 0
4, 78720, Control_c, 0, 64, 127
4, 78720, Note_on_c, 0, 35, 75
4, 78780, Note_on_c, 0, 35, 0
4, 78780, Note_on_c, 0, 47, 75
4, 78840, Note_on_c, 0, 47, 0
4, 78840, Note_on_c, 0, 35, 75
4, 78900, Note_on_c, 0, 35, 0
4, 78900, Note_on_c, 0, 47, 75
4, 78960, Note_on_c, 0, 47, 0
4, 78960, Note_on_c, 0, 35, 75
4, 79020, Note_on_c, 0, 35, 0
4, 79020, Note_on_c, 0, 47, 75
4, 79080, Note_on_c, 0, 47, 0
4, 79080, Note_on_c, 0, 35, 75
4, 79140, Note_on_c, 0, 35, 0
4, 79140, Note_on_c, 0, 47, 75
4, 79200, Note_on_c, 0, 47, 0
4, 79200, Note_on_c, 0, 35, 75
4, 79260, Note_on_c, 0, 35, 0
4, 79260, Note_on_c, 0, 47, 75
4, 79320, Note_on_c, 0, 47, 0
4, 79320, Note_on_c, 0, 35, 75
4, 79380, Note_on_c, 0, 35, 0
4, 79380, Note_on_c, 0, 47, 75
4, 79440, Note_on_c, 0, 47, 0
4, 79440, Note_on_c, 0, 35, 75
4, 79500, Note_on_c, 0, 35, 0
4, 79500, Note_on_c, 0, 47, 75
4, 79560, Note_on_c, 0, 47, 0
4, 79560, Note_on_c, 0, 35, 75
4, 79620, Note_on_c, 0, 35, 0
4, 79620, Note_on_c, 0, 47, 75
4, 79680, Note_on_c, 0, 47, 0
4, 79680, Note_on_c, 0, 35, 75
4, 79740, Note_on_c, 0, 35, 0
4, 79740, Note_on_c, 0, 47, 75
4, 79800, Note_on_c, 0, 47, 0
4, 79800, Note_on_c, 0, 35, 75
4, 79860, Note_on_c, 0, 35, 0
4, 79860, Note_on_c, 0, 47, 75
4, 79920, Note_on_c, 0, 47, 0
4, 79920, Note_on_c, 0, 35, 75
4, 79980, Note_on_c, 0, 35, 0
4, 79980, Note_on_c, 0, 47, 75
4, 80040, Note_on_c, 0, 47, 0
4, 80040, Note_on_c, 0, 35, 75
4, 80100, Note_on_c, 0, 35, 0
4, 80100, Note_on_c, 0, 47, 75
4, 80160, Note_on_c, 0, 47, 0
4, 80160, Note_on_c, 0, 35, 75
4, 80220, Note_on_c, 0, 35, 0
4, 80220, Note_on_c, 0, 47, 75
4, 80280, Note_on_c, 0, 47, 0
4, 80280, Note_on_c, 0, 35, 75
4, 80340, Note_on_c, 0, 35, 0
4, 80340, Note_on_c, 0, 47, 75
4, 80400, Note_on_c, 0, 47, 0
4, 80400, Note_on_c, 0, 35, 75
4, 80460, Note_on_c, 0, 35, 0
4, 80460, Note_on_c, 0, 47, 75
4, 80520, Note_on_c, 0, 47, 0
4, 80520, Note_on_c, 0, 35, 75
4, 80580, Note_on_c, 0, 35, 0
4, 80580, Note_on_c, 0, 47, 75
4, 80640, Note_on_c, 0, 47, 0
4, 80640, Note_on_c, 0, 35, 75
4, 80700, Note_on_c, 0, 35, 0
4, 80700, Note_on_c, 0, 47, 75
4, 80760, Note_on_c, 0, 47, 0
4, 80760, Note_on_c, 0, 35, 75
4, 80820, Note_on_c, 0, 35, 0
4, 80820, Note_on_c, 0, 47, 75
4, 80880, Note_on_c, 0, 47, 0
4, 80880, Note_on_c, 0, 35, 75
4, 80940, Note_on_c, 0, 35, 0
4, 80940, Note_on_c, 0, 47, 75
4, 81000, Note_on_c, 0, 47, 0
4, 81000, Note_on_c, 0, 35, 75
4, 81060, Note_on_c, 0, 35, 0
4, 81060, Note_on_c, 0, 47, 75
4, 81120, Note_on_c, 0, 47, 0
4, 81120, Note_on_c, 0, 35, 75
4, 81180, Note_on_c, 0, 35, 0
4, 81180, Note_on_c, 0, 47, 75
4, 81240, Note_on_c, 0, 47, 0
4, 81240, Note_on_c, 0, 35, 75
4, 81300, Note_on_c, 0, 35, 0
4, 81300, Note_on_c, 0, 47, 75
4, 81360, Note_on_c, 0, 47, 0
4, 81360, Note_on_c, 0, 35, 75
4, 81420, Note_on_c, 0, 35, 0
4, 81420, Note_on_c, 0, 47, 75
4, 81480, Note_on_c, 0, 47, 0
4, 81480, Note_on_c, 0, 35, 75
4, 81540, Note_on_c, 0, 35, 0
4, 81540, Note_on_c, 0, 47, 75
4, 81600, Note_on_c, 0, 47, 0
4, 81600, Note_on_c, 0, 35, 75
4, 81660, Note_on_c, 0, 35, 0
4, 81660, Note_on_c, 0, 47, 75
4, 81720, Note_on_c, 0, 47, 0
4, 81720, Note_on_c, 0, 35, 75
4, 81780, Note_on_c, 0, 35, 0
4, 81780, Note_on_c, 0, 47, 75
4, 81840, Note_on_c, 0, 47, 0
4, 81840, Note_on_c, 0, 35, 75
4, 81900, Note_on_c, 0, 35, 0
4, 81900, Note_on_c, 0, 47, 75
4, 81960, Note_on_c, 0, 47, 0
4, 81960, Note_on_c, 0, 35, 75
4, 82020, Note_on_c, 0, 35, 0
4, 82020, Note_on_c, 0, 47, 75
4, 82080, Note_on_c, 0, 47, 0
4, 82080, Note_on_c, 0, 35, 75
4, 82140, Note_on_c, 0, 35, 0
4, 82140, Note_on_c, 0, 47, 75
4, 82200, Note_on_c, 0, 47, 0
4, 82200, Note_on_c, 0, 35, 75
4, 82260, Note_on_c, 0, 35, 0
4, 82260, Note_on_c, 0, 47, 75
4, 82320, Note_on_c, 0, 47, 0
4, 82320, Note_on_c, 0, 35, 75
4, 82380, Note_on_c, 0, 35, 0
4, 82380, Note_on_c, 0, 47, 75
4, 82440, Note_on_c, 0, 47, 0
4, 82440, Note_on_c, 0, 35, 75
4, 82500, Note_on_c, 0, 35, 0
4, 82500, Note_on_c, 0, 47, 75
4, 82560, Note_on_c, 0, 47, 0
4, 82560, Note_on_c, 0, 35, 75
4, 82620, Note_on_c, 0, 35, 0
4, 82620, Note_on_c, 0, 47, 75
4, 82680, Note_on_c, 0, 47, 0
4, 82680, Note_on_c, 0, 35, 75
4, 82740, Note_on_c, 0, 35, 0
4, 82740, Note_on_c, 0, 47, 75
4, 82800, Note_on_c, 0, 47, 0
4, 82800, Note_on_c, 0, 35, 75
4, 82860, Note_on_c, 0, 35, 0
4, 82860, Note_on_c, 0, 47, 75
4, 82920, Note_on_c, 0, 47, 0
4, 82920, Note_on_c, 0, 35, 75
4, 82980, Note_on_c, 0, 35, 0
4, 82980, Note_on_c, 0, 47, 75
4, 83040, Note_on_c, 0, 47, 0
4, 83040, Control_c, 0, 64, 0
4, 83040, Note_on_c, 0, 55, 114
4, 83280, Note_on_c, 0, 55, 0
4, 83280, Note_on_c, 0, 54, 114
4, 83520, Note_on_c, 0, 54, 0
4, 83520, Note_on_c, 0, 52, 114
4, 83520, Note_on_c, 0, 64, 114
4, 83760, Note_on_c, 0, 64, 0
4, 83760, Note_on_c, 0, 52, 0
4, 83760, Note_on_c, 0, 51, 114
4, 83760, Note_on_c, 0, 63, 114
4, 84000, Note_on_c, 0, 63, 0
4, 84000, Note_on_c, 0, 51, 0
4, 84000, Note_on_c, 0, 48, 114
4, 84000, Note_on_c, 0, 60, 114
4, 84240, Note_on_c, 0, 60, 0
4, 84240, Note_on_c, 0, 48, 0
4, 84240, Note_on_c, 0, 47, 114
4, 84240, Note_on_c, 0, 59, 114
4, 84480, Note_on_c, 0, 59, 0
4, 84480, Note_on_c, 0, 47, 0
4, 84480, Note_on_c, 0, 45, 114
4, 84480, Note_on_c, 0, 57, 114
4, 84720, Note_on_c, 0, 57, 0
4, 84720, Note_on_c, 0, 45, 0
4, 84720, Note_on_c, 0, 43, 114
4, 84720, Note_on_c, 0, 55, 114
4, 84960, Note_on_c, 0, 55, 0
4, 84960, Note_on_c, 0, 43, 0
4, 84960, Note_on_c, 0, 42, 114
4, 84960, Note_on_c, 0, 54, 114
4, 85200, Note_on_c, 0, 54, 0
4, 85200, Note_on_c, 0, 42, 0
4, 85200, Note_on_c, 0, 40, 114
4, 85200, Note_on_c, 0, 52, 114
4, 85599, Note_on_c, 0, 52, 0
4, 85599, Note_on_c, 0, 40, 0
4, 85599, Note_on_c, 0, 39, 114
4, 85599, Note_on_c, 0, 51, 114
4, 85760, Note_on_c, 0, 51, 0
4, 85760, Note_on_c, 0, 39, 0
4, 85760, Note_on_c, 0, 38, 114
4, 85760, Note_on_c, 0, 50, 114
4, 85920, Note_on_c, 0, 50, 0
4, 85920, Note_on_c, 0, 38, 0
4, 85920, Note_on_c, 0, 37, 114
4, 85920, Note_on_c, 0, 49, 114
4, 86079, Note_on_c, 0, 49, 0
4, 86079, Note_on_c, 0, 37, 0
4, 86079, Note_on_c, 0, 36, 114
4, 86079, Note_on_c, 0, 48, 114
4, 86240, Note_on_c, 0, 48, 0
4, 86240, Note_on_c, 0, 36, 0
4, 86240, Note_on_c, 0, 35, 114
4, 86240, Note_on_c, 0, 47, 114
4, 86400, Note_on_c, 0, 47, 0
4, 86400, Note_on_c, 0, 35, 0
4, 86400, Control_c, 0, 64, 127
4, 86400, Note_on_c, 0, 40, 88
4, 86400, Note_on_c, 0, 43, 88
4, 86400, Note_on_c, 0, 47, 88
4, 86460, Note_on_c, 0, 47, 0
4, 86460, Note_on_c, 0, 43, 0
4, 86460, Note_on_c, 0, 40, 0
4, 86460, Note_on_c, 0, 52, 88
4, 86520, Note_on_c, 0, 52, 0
4, 86520, Note_on_c, 0, 40, 62
4, 86520, Note_on_c, 0, 43, 62
4, 86520, Note_on_c, 0, 47, 62
4, 86580, Note_on_c, 0, 47, 0
4, 86580, Note_on_c, 0, 43, 0
4, 86580, Note_on_c, 0, 40, 0
4, 86580, Note_on_c, 0, 52, 62
4, 86640, Note_on_c, 0, 52, 0
4, 86640, Note_on_c, 0, 40, 62
4, 86640, Note_on_c, 0, 43, 62
4, 86640, Note_on_c, 0, 47, 62
4, 86700, Note_on_c, 0, 47, 0
4, 86700, Note_on_c, 0, 43, 0
4, 86700, Note_on_c, 0, 40, 0
4, 86700, Note_on_c, 0, 52, 62
4, 86760, Note_on_c, 0, 52, 0
4, 86760, Note_on_c, 0, 40, 62
4, 86760, Note_on_c, 0, 43, 62
4, 86760, Note_on_c, 0, 47, 62
4, 86820, Note_on_c, 0, 47, 0
4, 86820, Note_on_c, 0, 43, 0
4, 86820, Note_on_c, 0, 40, 0
4, 86820, Note_on_c, 0, 52, 62
4, 86880, Note_on_c, 0, 52, 0
4, 86880, Note_on_c, 0, 40, 62
4, 86880, Note_on_c, 0, 43, 62
4, 86880, Note_on_c, 0, 47, 62
4, 86940, Note_on_c, 0, 47, 0
4, 86940, Note_on_c, 0, 43, 0
4, 86940, Note_on_c, 0, 40, 0
4, 86940, Note_on_c, 0, 52, 62
4, 87000, Note_on_c, 0, 52, 0
4, 87000, Note_on_c, 0, 40, 62
4, 87000, Note_on_c, 0, 43, 62
4, 87000, Note_on_c, 0, 47, 62
4, 87060, Note_on_c, 0, 47, 0
4, 87060, Note_on_c, 0, 43, 0
4, 87060, Note_on_c, 0, 40, 0
4, 87060, Note_on_c, 0, 52, 62
4, 87120, Note_on_c, 0, 52, 0
4, 87120, Note_on_c, 0, 40, 62
4, 87120, Note_on_c, 0, 43, 62
4, 87120, Note_on_c, 0, 47, 62
4, 87180, Note_on_c, 0, 47, 0
4, 87180, Note_on_c, 0, 43, 0
4, 87180, Note_on_c, 0, 40, 0
4, 87180, Note_on_c, 0, 52, 62
4, 87240, Note_on_c, 0, 52, 0
4, 87240, Note_on_c, 0, 40, 62
4, 87240, Note_on_c, 0, 43, 62
4, 87240, Note_on_c, 0, 47, 62
4, 87300, Note_on_c, 0, 47, 0
4, 87300, Note_on_c, 0, 43, 0
4, 87300, Note_on_c, 0, 40, 0
4, 87300, Control_c, 0, 64, 0
4, 87300, Note_on_c, 0, 52, 62
4, 87360, Note_on_c, 0, 52, 0
4, 87360, Control_c, 0, 64, 127
4, 87360, Note_on_c, 0, 36, 88
4, 87360, Note_on_c, 0, 40, 88
4, 87360, Note_on_c, 0, 43, 88
4, 87420, Note_on_c, 0, 43, 0
4, 87420, Note_on_c, 0, 40, 0
4, 87420, Note_on_c, 0, 36, 0
4, 87420, Note_on_c, 0, 48, 88
4, 87480, Note_on_c, 0, 48, 0
4, 87480, Note_on_c, 0, 36, 62
4, 87480, Note_on_c, 0, 40, 62
4, 87480, Note_on_c, 0, 43, 62
4, 87540, Note_on_c, 0, 43, 0
4, 87540, Note_on_c, 0, 40, 0
4, 87540, Note_on_c, 0, 36, 0
4, 87540, Note_on_c, 0, 48, 62
4, 87600, Note_on_c, 0, 48, 0
4, 87600, Note_on_c, 0, 36, 62
4, 87600, Note_on_c, 0, 40, 62
4, 87600, Note_on_c, 0, 43, 62
4, 87660, Note_on_c, 0, 43, 0
4, 87660, Note_on_c, 0, 40, 0
4, 87660, Note_on_c, 0, 36, 0
4, 87660, Note_on_c, 0, 48, 62
4, 87720, Note_on_c, 0, 48, 0
4, 87720, Note_on_c, 0, 36, 62
4, 87720, Note_on_c, 0, 40, 62
4, 87720, Note_on_c, 0, 43, 62
4, 87780, Note_on_c, 0, 43, 0
4, 87780, Note_on_c, 0, 40, 0
4, 87780, Note_on_c, 0, 36, 0
4, 87780, Note_on_c, 0, 48, 62
4, 87840, Note_on_c, 0, 48, 0
4, 87840, Note_on_c, 0, 36, 62
4, 87840, Note_on_c, 0, 40, 62
4, 87840, Note_on_c, 0, 43, 62
4, 87900, Note_on_c, 0, 43, 0
4, 87900, Note_on_c, 0, 40, 0
4, 87900, Note_on_c, 0, 36, 0
4, 87900, Note_on_c, 0, 48, 62
4, 87960, Note_on_c, 0, 48, 0
4, 87960, Note_on_c, 0, 36, 62
4, 87960, Note_on_c, 0, 40, 62
4, 87960, Note_on_c, 0, 43, 62
4, 88020, Note_on_c, 0, 43, 0
4, 88020, Note_on_c, 0, 40, 0
4, 88020, Note_on_c, 0, 36, 0
4, 88020, Note_on_c, 0, 48, 62
4, 88080, Note_on_c, 0, 48, 0
4, 88080, Note_on_c, 0, 36, 62
4, 88080, Note_on_c, 0, 40, 62
4, 88080, Note_on_c, 0, 43, 62
4, 88140, Note_on_c, 0, 43, 0
4, 88140, Note_on_c, 0, 40, 0
4, 88140, Note_on_c, 0, 36, 0
4, 88140, Note_on_c, 0, 48, 62
4, 88200, Note_on_c, 0, 48, 0
4, 88200, Note_on_c, 0, 36, 62
4, 88200, Note_on_c, 0, 40, 62
4, 88200, Note_on_c, 0, 43, 62
4, 88260, Note_on_c, 0, 43, 0
4, 88260, Note_on_c, 0, 40, 0
4, 88260, Note_on_c, 0, 36, 0
4, 88260, Control_c, 0, 64, 0
4, 88260, Note_on_c, 0, 48, 62
4, 88320, Note_on_c, 0, 48, 0
4, 88320, Control_c, 0, 64, 127
4, 88320, Note_on_c, 0, 33, 101
4, 88320, Note_on_c, 0, 36, 101
4, 88320, Note_on_c, 0, 40, 101
4, 88380, Note_on_c, 0, 40, 0
4, 88380, Note_on_c, 0, 36, 0
4, 88380, Note_on_c, 0, 33, 0
4, 88380, Note_on_c, 0, 45, 101
4, 88440, Note_on_c, 0, 45, 0
4, 88440, Note_on_c, 0, 33, 75
4, 88440, Note_on_c, 0, 36, 75
4, 88440, Note_on_c, 0, 40, 75
4, 88500, Note_on_c, 0, 40, 0
4, 88500, Note_on_c, 0, 36, 0
4, 88500, Note_on_c, 0, 33, 0
4, 88500, Note_on_c, 0, 45, 75
4, 88560, Note_on_c, 0, 45, 0
4, 88560, Note_on_c, 0, 33, 75
4, 88560, Note_on_c, 0, 36, 75
4, 88560, Note_on_c, 0, 40, 75
4, 88620, Note_on_c, 0, 40, 0
4, 88620, Note_on_c, 0, 36, 0
4, 88620, Note_on_c, 0, 33, 0
4, 88620, Note_on_c, 0, 45, 75
4, 88680, Note_on_c, 0, 45, 0
4, 88680, Note_on_c, 0, 33, 75
4, 88680, Note_on_c, 0, 36, 75
4, 88680, Note_on_c, 0, 40, 75
4, 88740, Note_on_c, 0, 40, 0
4, 88740, Note_on_c, 0, 36, 0
4, 88740, Note_on_c, 0, 33, 0
4, 88740, Note_on_c, 0, 45, 75
4, 88800, Note_on_c, 0, 45, 0
4, 88800, Note_on_c, 0, 33, 75
4, 88800, Note_on_c, 0, 36, 75
4, 88800, Note_on_c, 0, 40, 75
4, 88860, Note_on_c, 0, 40, 0
4, 88860, Note_on_c, 0, 36, 0
4, 88860, Note_on_c, 0, 33, 0
4, 88860, Note_on_c, 0, 45, 75
4, 88920, Note_on_c, 0, 45, 0
4, 88920, Note_on_c, 0, 33, 75
4, 88920, Note_on_c, 0, 36, 75
4, 88920, Note_on_c, 0, 40, 75
4, 88980, Note_on_c, 0, 40, 0
4, 88980, Note_on_c, 0, 36, 0
4, 88980, Note_on_c, 0, 33, 0
4, 88980, Note_on_c, 0, 45, 75
4, 89040, Note_on_c, 0, 45, 0
4, 89040, Note_on_c, 0, 33, 75
4, 89040, Note_on_c, 0, 36, 75
4, 89040, Note_on_c, 0, 40, 75
4, 89100, Note_on_c, 0, 40, 0
4, 89100, Note_on_c, 0, 36, 0
4, 89100, Note_on_c, 0, 33, 0
4, 89100, Note_on_c, 0, 45, 75
4, 89160, Note_on_c, 0, 45, 0
4, 89160, Note_on_c, 0, 33, 75
4, 89160, Note_on_c, 0, 36, 75
4, 89160, Note_on_c, 0, 40, 75
4, 89220, Note_on_c, 0, 40, 0
4, 89220, Note_on_c, 0, 36, 0
4, 89220, Note_on_c, 0, 33, 0
4, 89220, Control_c, 0, 64, 0
4, 89220, Note_on_c, 0, 45, 75
4, 89280, Note_on_c, 0, 45, 0
4, 89280, Control_c, 0, 64, 127
4, 89280, Note_on_c, 0, 38, 101
4, 89280, Note_on_c, 0, 42, 101
4, 89280, Note_on_c, 0, 45, 101
4, 89340, Note_on_c, 0, 45, 0
4, 89340, Note_on_c, 0, 42, 0
4, 89340, Note_on_c, 0, 38, 0
4, 89340, Note_on_c, 0, 50, 101
4, 89400, Note_on_c, 0, 50, 0
4, 89400, Note_on_c, 0, 38, 75
4, 89400, Note_on_c, 0, 42, 75
4, 89400, Note_on_c, 0, 45, 75
4, 89460, Note_on_c, 0, 45, 0
4, 89460, Note_on_c, 0, 42, 0
4, 89460, Note_on_c, 0, 38, 0
4, 89460, Note_on_c, 0, 50, 75
4, 89520, Note_on_c, 0, 50, 0
4, 89520, Note_on_c, 0, 38, 75
4, 89520, Note_on_c, 0, 42, 75
4, 89520, Note_on_c, 0, 45, 75
4, 89580, Note_on_c, 0, 45, 0
4, 89580, Note_on_c, 0, 42, 0
4, 89580, Note_on_c, 0, 38, 0
4, 89580, Note_on_c, 0, 50, 75
4, 89640, Note_on_c, 0, 50, 0
4, 89640, Note_on_c, 0, 38, 75
4, 89640, Note_on_c, 0, 42, 75
4, 89640, Note_on_c, 0, 45, 75
4, 89700, Note_on_c, 0, 45, 0
4, 89700, Note_on_c, 0, 42, 0
4, 89700, Note_on_c, 0, 38, 0
4, 89700, Note_on_c, 0, 50, 75
4, 89760, Note_on_c, 0, 50, 0
4, 89760, Note_on_c, 0, 38, 75
4, 89760, Note_on_c, 0, 42, 75
4, 89760, Note_on_c, 0, 45, 75
4, 89820, Note_on_c, 0, 45, 0
4, 89820, Note_on_c, 0, 42, 0
4, 89820, Note_on_c, 0, 38, 0
4, 89820, Note_on_c, 0, 50, 75
4, 89880, Note_on_c, 0, 50, 0
4, 89880, Note_on_c, 0, 38, 75
4, 89880, Note_on_c, 0, 42, 75
4, 89880, Note_on_c, 0, 45, 75
4, 89940, Note_on_c, 0, 45, 0
4, 89940, Note_on_c, 0, 42, 0
4, 89940, Note_on_c, 0, 38, 0
4, 89940, Note_on_c, 0, 50, 75
4, 90000, Note_on_c, 0, 50, 0
4, 90000, Note_on_c, 0, 38, 75
4, 90000, Note_on_c, 0, 42, 75
4, 90000, Note_on_c, 0, 45, 75
4, 90060, Note_on_c, 0, 45, 0
4, 90060, Note_on_c, 0, 42, 0
4, 90060, Note_on_c, 0, 38, 0
4, 90060, Note_on_c, 0, 50, 75
4, 90120, Note_on_c, 0, 50, 0
4, 90120, Note_on_c, 0, 38, 75
4, 90120, Note_on_c, 0, 42, 75
4, 90120, Note_on_c, 0, 45, 75
4, 90180, Note_on_c, 0, 45, 0
4, 90180, Note_on_c, 0, 42, 0
4, 90180, Note_on_c, 0, 38, 0
4, 90180, Control_c, 0, 64, 0
4, 90180, Note_on_c, 0, 50, 75
4, 90240, Note_on_c, 0, 50, 0
4, 90240, Control_c, 0, 64, 127
4, 90240, Note_on_c, 0, 43, 101
4, 90240, Note_on_c, 0, 47, 101
4, 90240, Note_on_c, 0, 50, 101
4, 90300, Note_on_c, 0, 50, 0
4, 90300, Note_on_c, 0, 47, 0
4, 90300, Note_on_c, 0, 43, 0
4, 90300, Note_on_c, 0, 55, 101
4, 90360, Note_on_c, 0, 55, 0
4, 90360, Note_on_c, 0, 43, 75
4, 90360, Note_on_c, 0, 47, 75
4, 90360, Note_on_c, 0, 50, 75
4, 90420, Note_on_c, 0, 50, 0
4, 90420, Note_on_c, 0, 47, 0
4, 90420, Note_on_c, 0, 43, 0
4, 90420, Note_on_c, 0, 55, 75
4, 90480, Note_on_c, 0, 55, 0
4, 90480, Note_on_c, 0, 43, 75
4, 90480, Note_on_c, 0, 47, 75
4, 90480, Note_on_c, 0, 50, 75
4, 90540, Note_on_c, 0, 50, 0
4, 90540, Note_on_c, 0, 47, 0
4, 90540, Note_on_c, 0, 43, 0
4, 90540, Note_on_c, 0, 55, 75
4, 90600, Note_on_c, 0, 55, 0
4, 90600, Note_on_c, 0, 43, 75
4, 90600, Note_on_c, 0, 47, 75
4, 90600, Note_on_c, 0, 50, 75
4, 90660, Note_on_c, 0, 50, 0
4, 90660, Note_on_c, 0, 47, 0
4, 90660, Note_on_c, 0, 43, 0
4, 90660, Note_on_c, 0, 55, 75
4, 90720, Note_on_c, 0, 55, 0
4, 90720, Note_on_c, 0, 43, 75
4, 90720, Note_on_c, 0, 47, 75
4, 90720, Note_on_c, 0, 50, 75
4, 90780, Note_on_c, 0, 50, 0
4, 90780, Note_on_c, 0, 47, 0
4, 90780, Note_on_c, 0, 43, 0
4, 90780, Note_on_c, 0, 55, 75
4, 90840, Note_on_c, 0, 55, 0
4, 90840, Note_on_c, 0, 43, 75
4, 90840, Note_on_c, 0, 47, 75
4, 90840, Note_on_c, 0, 50, 75
4, 90900, Note_on_c, 0, 50, 0
4, 90900, Note_on_c, 0, 47, 0
4, 90900, Note_on_c, 0, 43, 0
4, 90900, Note_on_c, 0, 55, 75
4, 90960, Note_on_c, 0, 55, 0
4, 90960, Note_on_c, 0, 43, 75
4, 90960, Note_on_c, 0, 47, 75
4, 90960, Note_on_c, 0, 50, 75
4, 91020, Note_on_c, 0, 50, 0
4, 91020, Note_on_c, 0, 47, 0
4, 91020, Note_on_c, 0, 43, 0
4, 91020, Note_on_c, 0, 55, 75
4, 91080, Note_on_c, 0, 55, 0
4, 91080, Note_on_c, 0, 43, 75
4, 91080, Note_on_c, 0, 47, 75
4, 91080, Note_on_c, 0, 50, 75
4, 91140, Note_on_c, 0, 50, 0
4, 91140, Note_on_c, 0, 47, 0
4, 91140, Note_on_c, 0, 43, 0
4, 91140, Control_c, 0, 64, 0
4, 91140, Note_on_c, 0, 55, 75
4, 91200, Note_on_c, 0, 55, 0
4, 91200, Control_c, 0, 64, 127
4, 91200, Note_on_c, 0, 40, 101
4, 91200, Note_on_c, 0, 43, 101
4, 91200, Note_on_c, 0, 47, 101
4, 91260, Note_on_c, 0, 47, 0
4, 91260, Note_on_c, 0, 43, 0
4, 91260, Note_on_c, 0, 40, 0
4, 91260, Note_on_c, 0, 52, 101
4, 91320, Note_on_c, 0, 52, 0
4, 91320, Note_on_c, 0, 40, 75
4, 91320, Note_on_c, 0, 43, 75
4, 91320, Note_on_c, 0, 47, 75
4, 91380, Note_on_c, 0, 47, 0
4, 91380, Note_on_c, 0, 43, 0
4, 91380, Note_on_c, 0, 40, 0
4, 91380, Note_on_c, 0, 52, 75
4, 91440, Note_on_c, 0, 52, 0
4, 91440, Note_on_c, 0, 40, 75
4, 91440, Note_on_c, 0, 43, 75
4, 91440, Note_on_c, 0, 47, 75
4, 91500, Note_on_c, 0, 47, 0
4, 91500, Note_on_c, 0, 43, 0
4, 91500, Note_on_c, 0, 40, 0
4, 91500, Note_on_c, 0, 52, 75
4, 91560, Note_on_c, 0, 52, 0
4, 91560, Note_on_c, 0, 40, 75
4, 91560, Note_on_c, 0, 43, 75
4, 91560, Note_on_c, 0, 47, 75
4, 91620, Note_on_c, 0, 47, 0
4, 91620, Note_on_c, 0, 43, 0
4, 91620, Note_on_c, 0, 40, 0
4, 91620, Note_on_c, 0, 52, 75
4, 91680, Note_on_c, 0, 52, 0
4, 91680, Note_on_c, 0, 40, 75
4, 91680, Note_on_c, 0, 43, 75
4, 91680, Note_on_c, 0, 47, 75
4, 91740, Note_on_c, 0, 47, 0
4, 91740, Note_on_c, 0, 43, 0
4, 91740, Note_on_c, 0, 40, 0
4, 91740, Note_on_c, 0, 52, 75
4, 91800, Note_on_c, 0, 52, 0
4, 91800, Note_on_c, 0, 40, 75
4, 91800, Note_on_c, 0, 43, 75
4, 91800, Note_on_c, 0, 47, 75
4, 91860, Note_on_c, 0, 47, 0
4, 91860, Note_on_c, 0, 43, 0
4, 91860, Note_on_c, 0, 40, 0
4, 91860, Note_on_c, 0, 52, 75
4, 91920, Note_on_c, 0, 52, 0
4, 91920, Note_on_c, 0, 40, 75
4, 91920, Note_on_c, 0, 43, 75
4, 91920, Note_on_c, 0, 47, 75
4, 91980, Note_on_c, 0, 47, 0
4, 91980, Note_on_c, 0, 43, 0
4, 91980, Note_on_c, 0, 40, 0
4, 91980, Note_on_c, 0, 52, 75
4, 92040, Note_on_c, 0, 52, 0
4, 92040, Note_on_c, 0, 40, 75
4, 92040, Note_on_c, 0, 43, 75
4, 92040, Note_on_c, 0, 47, 75
4, 92100, Note_on_c, 0, 47, 0
4, 92100, Note_on_c, 0, 43, 0
4, 92100, Note_on_c, 0, 40, 0
4, 92100, Control_c, 0, 64, 0
4, 92100, Note_on_c, 0, 52, 75
4, 92160, Note_on_c, 0, 52, 0
4, 92160, Control_c, 0, 64, 127
4, 92160, Note_on_c, 0, 33, 101
4, 92160, Note_on_c, 0, 36, 101
4, 92160, Note_on_c, 0, 40, 101
4, 92220, Note_on_c, 0, 40, 0
4, 92220, Note_on_c, 0, 36, 0
4, 92220, Note_on_c, 0, 33, 0
4, 92220, Note_on_c, 0, 45, 101
4, 92280, Note_on_c, 0, 45, 0
4, 92280, Note_on_c, 0, 33, 75
4, 92280, Note_on_c, 0, 36, 75
4, 92280, Note_on_c, 0, 40, 75
4, 92340, Note_on_c, 0, 40, 0
4, 92340, Note_on_c, 0, 36, 0
4, 92340, Note_on_c, 0, 33, 0
4, 92340, Note_on_c, 0, 45, 75
4, 92400, Note_on_c, 0, 45, 0
4, 92400, Note_on_c, 0, 33, 75
4, 92400, Note_on_c, 0, 36, 75
4, 92400, Note_on_c, 0, 40, 75
4, 92460, Note_on_c, 0, 40, 0
4, 92460, Note_on_c, 0, 36, 0
4, 92460, Note_on_c, 0, 33, 0
4, 92460, Note_on_c, 0, 45, 75
4, 92520, Note_on_c, 0, 45, 0
4, 92520, Note_on_c, 0, 33, 75
4, 92520, Note_on_c, 0, 36, 75
4, 92520, Note_on_c, 0, 40, 75
4, 92580, Note_on_c, 0, 40, 0
4, 92580, Note_on_c, 0, 36, 0
4, 92580, Note_on_c, 0, 33, 0
4, 92580, Note_on_c, 0, 45, 75
4, 92640, Note_on_c, 0, 45, 0
4, 92640, Note_on_c, 0, 33, 75
4, 92640, Note_on_c, 0, 36, 75
4, 92640, Note_on_c, 0, 40, 75
4, 92700, Note_on_c, 0, 40, 0
4, 92700, Note_on_c, 0, 36, 0
4, 92700, Note_on_c, 0, 33, 0
4, 92700, Note_on_c, 0, 45, 75
4, 92760, Note_on_c, 0, 45, 0
4, 92760, Note_on_c, 0, 33, 75
4, 92760, Note_on_c, 0, 36, 75
4, 92760, Note_on_c, 0, 40, 75
4, 92820, Note_on_c, 0, 40, 0
4, 92820, Note_on_c, 0, 36, 0
4, 92820, Note_on_c, 0, 33, 0
4, 92820, Note_on_c, 0, 45, 75
4, 92880, Note_on_c, 0, 45, 0
4, 92880, Note_on_c, 0, 33, 75
4, 92880, Note_on_c, 0, 36, 75
4, 92880, Note_on_c, 0, 40, 75
4, 92940, Note_on_c, 0, 40, 0
4, 92940, Note_on_c, 0, 36, 0
4, 92940, Note_on_c, 0, 33, 0
4, 92940, Note_on_c, 0, 45, 75
4, 93000, Note_on_c, 0, 45, 0
4, 93000, Note_on_c, 0, 33, 75
4, 93000, Note_on_c, 0, 36, 75
4, 93000, Note_on_c, 0, 40, 75
4, 93060, Note_on_c, 0, 40, 0
4, 93060, Note_on_c, 0, 36, 0
4, 93060, Note_on_c, 0, 33, 0
4, 93060, Control_c, 0, 64, 0
4, 93060, Note_on_c, 0, 45, 75
4, 93120, Note_on_c, 0, 45, 0
4, 93120, Control_c, 0, 64, 127
4, 93120, Note_on_c, 0, 38, 101
4, 93120, Note_on_c, 0, 42, 101
4, 93120, Note_on_c, 0, 45, 101
4, 93180, Note_on_c, 0, 45, 0
4, 93180, Note_on_c, 0, 42, 0
4, 93180, Note_on_c, 0, 38, 0
4, 93180, Note_on_c, 0, 50, 101
4, 93240, Note_on_c, 0, 50, 0
4, 93240, Note_on_c, 0, 38, 75
4, 93240, Note_on_c, 0, 42, 75
4, 93240, Note_on_c, 0, 45, 75
4, 93300, Note_on_c, 0, 45, 0
4, 93300, Note_on_c, 0, 42, 0
4, 93300, Note_on_c, 0, 38, 0
4, 93300, Note_on_c, 0, 50, 75
4, 93360, Note_on_c, 0, 50, 0
4, 93360, Note_on_c, 0, 38, 75
4, 93360, Note_on_c, 0, 42, 75
4, 93360, Note_on_c, 0, 45, 75
4, 93420, Note_on_c, 0, 45, 0
4, 93420, Note_on_c, 0, 42, 0
4, 93420, Note_on_c, 0, 38, 0
4, 93420, Note_on_c, 0, 50, 75
4, 93480, Note_on_c, 0, 50, 0
4, 93480, Note_on_c, 0, 38, 75
4, 93480, Note_on_c, 0, 42, 75
4, 93480, Note_on_c, 0, 45, 75
4, 93540, Note_on_c, 0, 45, 0
4, 93540, Note_on_c, 0, 42, 0
4, 93540, Note_on_c, 0, 38, 0
4, 93540, Note_on_c, 0, 50, 75
4, 93600, Note_on_c, 0, 50, 0
4, 93600, Note_on_c, 0, 38, 75
4, 93600, Note_on_c, 0, 42, 75
4, 93600, Note_on_c, 0, 45, 75
4, 93660, Note_on_c, 0, 45, 0
4, 93660, Note_on_c, 0, 42, 0
4, 93660, Note_on_c, 0, 38, 0
4, 93660, Note_on_c, 0, 50, 75
4, 93720, Note_on_c, 0, 50, 0
4, 93720, Note_on_c, 0, 38, 75
4, 93720, Note_on_c, 0, 42, 75
4, 93720, Note_on_c, 0, 45, 75
4, 93780, Note_on_c, 0, 45, 0
4, 93780, Note_on_c, 0, 42, 0
4, 93780, Note_on_c, 0, 38, 0
4, 93780, Note_on_c, 0, 50, 75
4, 93840, Note_on_c, 0, 50, 0
4, 93840, Note_on_c, 0, 38, 75
4, 93840, Note_on_c, 0, 42, 75
4, 93840, Note_on_c, 0, 45, 75
4, 93900, Note_on_c, 0, 45, 0
4, 93900, Note_on_c, 0, 42, 0
4, 93900, Note_on_c, 0, 38, 0
4, 93900, Note_on_c, 0, 50, 75
4, 93960, Note_on_c, 0, 50, 0
4, 93960, Note_on_c, 0, 38, 75
4, 93960, Note_on_c, 0, 42, 75
4, 93960, Note_on_c, 0, 45, 75
4, 94020, Note_on_c, 0, 45, 0
4, 94020, Note_on_c, 0, 42, 0
4, 94020, Note_on_c, 0, 38, 0
4, 94020, Control_c, 0, 64, 0
4, 94020, Note_on_c, 0, 50, 75
4, 94080, Note_on_c, 0, 50, 0
4, 94080, Control_c, 0, 64, 127
4, 94080, Note_on_c, 0, 43, 101
4, 94080, Note_on_c, 0, 47, 101
4, 94080, Note_on_c, 0, 50, 101
4, 94140, Note_on_c, 0, 50, 0
4, 94140, Note_on_c, 0, 47, 0
4, 94140, Note_on_c, 0, 43, 0
4, 94140, Note_on_c, 0, 55, 101
4, 94200, Note_on_c, 0, 55, 0
4, 94200, Note_on_c, 0, 43, 75
4, 94200, Note_on_c, 0, 47, 75
4, 94200, Note_on_c, 0, 50, 75
4, 94260, Note_on_c, 0, 50, 0
4, 94260, Note_on_c, 0, 47, 0
4, 94260, Note_on_c, 0, 43, 0
4, 94260, Note_on_c, 0, 55, 75
4, 94320, Note_on_c, 0, 55, 0
4, 94320, Note_on_c, 0, 43, 75
4, 94320, Note_on_c, 0, 47, 75
4, 94320, Note_on_c, 0, 50, 75
4, 94380, Note_on_c, 0, 50, 0
4, 94380, Note_on_c, 0, 47, 0
4, 94380, Note_on_c, 0, 43, 0
4, 94380, Note_on_c, 0, 55, 75
4, 94440, Note_on_c, 0, 55, 0
4, 94440, Note_on_c, 0, 43, 75
4, 94440, Note_on_c, 0, 47, 75
4, 94440, Note_on_c, 0, 50, 75
4, 94500, Note_on_c, 0, 50, 0
4, 94500, Note_on_c, 0, 47, 0
4, 94500, Note_on_c, 0, 43, 0
4, 94500, Note_on_c, 0, 55, 75
4, 94560, Note_on_c, 0, 55, 0
4, 94560, Note_on_c, 0, 43, 75
4, 94560, Note_on_c, 0, 47, 75
4, 94560, Note_on_c, 0, 50, 75
4, 94620, Note_on_c, 0, 50, 0
4, 94620, Note_on_c, 0, 47, 0
4, 94620, Note_on_c, 0, 43, 0
4, 94620, Note_on_c, 0, 55, 75
4, 94680, Note_on_c, 0, 55, 0
4, 94680, Note_on_c, 0, 43, 75
4, 94680, Note_on_c, 0, 47, 75
4, 94680, Note_on_c, 0, 50, 75
4, 94740, Note_on_c, 0, 50, 0
4, 94740, Note_on_c, 0, 47, 0
4, 94740, Note_on_c, 0, 43, 0
4, 94740, Note_on_c, 0, 55, 75
4, 94800, Note_on_c, 0, 55, 0
4, 94800, Note_on_c, 0, 43, 75
4, 94800, Note_on_c, 0, 47, 75
4, 94800, Note_on_c, 0, 50, 75
4, 94860, Note_on_c, 0, 50, 0
4, 94860, Note_on_c, 0, 47, 0
4, 94860, Note_on_c, 0, 43, 0
4, 94860, Note_on_c, 0, 55, 75
4, 94920, Note_on_c, 0, 55, 0
4, 94920, Note_on_c, 0, 43, 75
4, 94920, Note_on_c, 0, 47, 75
4, 94920, Note_on_c, 0, 50, 75
4, 94980, Note_on_c, 0, 50, 0
4, 94980, Note_on_c, 0, 47, 0
4, 94980, Note_on_c, 0, 43, 0
4, 94980, Control_c, 0, 64, 0
4, 94980, Note_on_c, 0, 55, 75
4, 95040, Note_on_c, 0, 55, 0
4, 95040, Control_c, 0, 64, 127
4, 95040, Note_on_c, 0, 40, 101
4, 95040, Note_on_c, 0, 43, 101
4, 95040, Note_on_c, 0, 47, 101
4, 95100, Note_on_c, 0, 47, 0
4, 95100, Note_on_c, 0, 43, 0
4, 95100, Note_on_c, 0, 40, 0
4, 95100, Note_on_c, 0, 52, 101
4, 95160, Note_on_c, 0, 52, 0
4, 95160, Note_on_c, 0, 40, 75
4, 95160, Note_on_c, 0, 43, 75
4, 95160, Note_on_c, 0, 47, 75
4, 95220, Note_on_c, 0, 47, 0
4, 95220, Note_on_c, 0, 43, 0
4, 95220, Note_on_c, 0, 40, 0
4, 95220, Note_on_c, 0, 52, 75
4, 95280, Note_on_c, 0, 52, 0
4, 95280, Note_on_c, 0, 40, 75
4, 95280, Note_on_c, 0, 43, 75
4, 95280, Note_on_c, 0, 47, 75
4, 95340, Note_on_c, 0, 47, 0
4, 95340, Note_on_c, 0, 43, 0
4, 95340, Note_on_c, 0, 40, 0
4, 95340, Note_on_c, 0, 52, 75
4, 95400, Note_on_c, 0, 52, 0
4, 95400, Note_on_c, 0, 40, 75
4, 95400, Note_on_c, 0, 43, 75
4, 95400, Note_on_c, 0, 47, 75
4, 95460, Note_on_c, 0, 47, 0
4, 95460, Note_on_c, 0, 43, 0
4, 95460, Note_on_c, 0, 40, 0
4, 95460, Note_on_c, 0, 52, 75
4, 95520, Note_on_c, 0, 52, 0
4, 95520, Note_on_c, 0, 40, 75
4, 95520, Note_on_c, 0, 43, 75
4, 95520, Note_on_c, 0, 47, 75
4, 95580, Note_on_c, 0, 47, 0
4, 95580, Note_on_c, 0, 43, 0
4, 95580, Note_on_c, 0, 40, 0
4, 95580, Note_on_c, 0, 52, 75
4, 95640, Note_on_c, 0, 52, 0
4, 95640, Note_on_c, 0, 40, 75
4, 95640, Note_on_c, 0, 43, 75
4, 95640, Note_on_c, 0, 47, 75
4, 95700, Note_on_c, 0, 47, 0
4, 95700, Note_on_c, 0, 43, 0
4, 95700, Note_on_c, 0, 40, 0
4, 95700, Note_on_c, 0, 52, 75
4, 95760, Note_on_c, 0, 52, 0
4, 95760, Note_on_c, 0, 40, 75
4, 95760, Note_on_c, 0, 43, 75
4, 95760, Note_on_c, 0, 47, 75
4, 95820, Note_on_c, 0, 47, 0
4, 95820, Note_on_c, 0, 43, 0
4, 95820, Note_on_c, 0, 40, 0
4, 95820, Note_on_c, 0, 52, 75
4, 95880, Note_on_c, 0, 52, 0
4, 95880, Note_on_c, 0, 40, 75
4, 95880, Note_on_c, 0, 43, 75
4, 95880, Note_on_c, 0, 47, 75
4, 95940, Note_on_c, 0, 47, 0
4, 95940, Note_on_c, 0, 43, 0
4, 95940, Note_on_c, 0, 40, 0
4, 95940, Control_c, 0, 64, 0
4, 95940, Note_on_c, 0, 52, 75
4, 96000, Note_on_c, 0, 52, 0
4, 96000, Control_c, 0, 64, 127
4, 96000, Note_on_c, 0, 33, 101
4, 96000, Note_on_c, 0, 36, 101
4, 96000, Note_on_c, 0, 40, 101
4, 96060, Note_on_c, 0, 40, 0
4, 96060, Note_on_c, 0, 36, 0
4, 96060, Note_on_c, 0, 33, 0
4, 96060, Note_on_c, 0, 45, 101
4, 96120, Note_on_c, 0, 45, 0
4, 96120, Note_on_c, 0, 33, 75
4, 96120, Note_on_c, 0, 36, 75
4, 96120, Note_on_c, 0, 40, 75
4, 96180, Note_on_c, 0, 40, 0
4, 96180, Note_on_c, 0, 36, 0
4, 96180, Note_on_c, 0, 33, 0
4, 96180, Note_on_c, 0, 45, 75
4, 96240, Note_on_c, 0, 45, 0
4, 96240, Note_on_c, 0, 33, 75
4, 96240, Note_on_c, 0, 36, 75
4, 96240, Note_on_c, 0, 40, 75
4, 96300, Note_on_c, 0, 40, 0
4, 96300, Note_on_c, 0, 36, 0
4, 96300, Note_on_c, 0, 33, 0
4, 96300, Note_on_c, 0, 45, 75
4, 96360, Note_on_c, 0, 45, 0
4, 96360, Note_on_c, 0, 33, 75
4, 96360, Note_on_c, 0, 36, 75
4, 96360, Note_on_c, 0, 40, 75
4, 96420, Note_on_c, 0, 40, 0
4, 96420, Note_on_c, 0, 36, 0
4, 96420, Note_on_c, 0, 33, 0
4, 96420, Note_on_c, 0, 45, 75
4, 96480, Note_on_c, 0, 45, 0
4, 96480, Note_on_c, 0, 33, 75
4, 96480, Note_on_c, 0, 36, 75
4, 96480, Note_on_c, 0, 40, 75
4, 96540, Note_on_c, 0, 40, 0
4, 96540, Note_on_c, 0, 36, 0
4, 96540, Note_on_c, 0, 33, 0
4, 96540, Note_on_c, 0, 45, 75
4, 96600, Note_on_c, 0, 45, 0
4, 96600, Note_on_c, 0, 33, 75
4, 96600, Note_on_c, 0, 36, 75
4, 96600, Note_on_c, 0, 40, 75
4, 96660, Note_on_c, 0, 40, 0
4, 96660, Note_on_c, 0, 36, 0
4, 96660, Note_on_c, 0, 33, 0
4, 96660, Note_on_c, 0, 45, 75
4, 96720, Note_on_c, 0, 45, 0
4, 96720, Note_on_c, 0, 33, 75
4, 96720, Note_on_c, 0, 36, 75
4, 96720, Note_on_c, 0, 40, 75
4, 96780, Note_on_c, 0, 40, 0
4, 96780, Note_on_c, 0, 36, 0
4, 96780, Note_on_c, 0, 33, 0
4, 96780, Note_on_c, 0, 45, 75
4, 96840, Note_on_c, 0, 45, 0
4, 96840, Note_on_c, 0, 33, 75
4, 96840, Note_on_c, 0, 36, 75
4, 96840, Note_on_c, 0, 40, 75
4, 96900, Note_on_c, 0, 40, 0
4, 96900, Note_on_c, 0, 36, 0
4, 96900, Note_on_c, 0, 33, 0
4, 96900, Control_c, 0, 64, 0
4, 96900, Note_on_c, 0, 45, 75
4, 96960, Note_on_c, 0, 45, 0
4, 96960, Control_c, 0, 64, 127
4, 96960, Note_on_c, 0, 34, 101
4, 96960, Note_on_c, 0, 36, 101
4, 96960, Note_on_c, 0, 40, 101
4, 97020, Note_on_c, 0, 40, 0
4, 97020, Note_on_c, 0, 36, 0
4, 97020, Note_on_c, 0, 34, 0
4, 97020, Note_on_c, 0, 46, 101
4, 97080, Note_on_c, 0, 46, 0
4, 97080, Note_on_c, 0, 34, 75
4, 97080, Note_on_c, 0, 36, 75
4, 97080, Note_on_c, 0, 40, 75
4, 97140, Note_on_c, 0, 40, 0
4, 97140, Note_on_c, 0, 36, 0
4, 97140, Note_on_c, 0, 34, 0
4, 97140, Note_on_c, 0, 46, 75
4, 97200, Note_on_c, 0, 46, 0
4, 97200, Note_on_c, 0, 34, 75
4, 97200, Note_on_c, 0, 36, 75
4, 97200, Note_on_c, 0, 40, 75
4, 97260, Note_on_c, 0, 40, 0
4, 97260, Note_on_c, 0, 36, 0
4, 97260, Note_on_c, 0, 34, 0
4, 97260, Note_on_c, 0, 46, 75
4, 97320, Note_on_c, 0, 46, 0
4, 97320, Note_on_c, 0, 34, 75
4, 97320, Note_on_c, 0, 36, 75
4, 97320, Note_on_c, 0, 40, 75
4, 97380, Note_on_c, 0, 40, 0
4, 97380, Note_on_c, 0, 36, 0
4, 97380, Note_on_c, 0, 34, 0
4, 97380, Note_on_c, 0, 46, 75
4, 97440, Note_on_c, 0, 46, 0
4, 97440, Note_on_c, 0, 34, 75
4, 97440, Note_on_c, 0, 36, 75
4, 97440, Note_on_c, 0, 40, 75
4, 97500, Note_on_c, 0, 40, 0
4, 97500, Note_on_c, 0, 36, 0
4, 97500, Note_on_c, 0, 34, 0
4, 97500, Note_on_c, 0, 46, 75
4, 97560, Note_on_c, 0, 46, 0
4, 97560, Note_on_c, 0, 34, 75
4, 97560, Note_on_c, 0, 36, 75
4, 97560, Note_on_c, 0, 40, 75
4, 97620, Note_on_c, 0, 40, 0
4, 97620, Note_on_c, 0, 36, 0
4, 97620, Note_on_c, 0, 34, 0
4, 97620, Note_on_c, 0, 46, 75
4, 97680, Note_on_c, 0, 46, 0
4, 97680, Note_on_c, 0, 34, 75
4, 97680, Note_on_c, 0, 36, 75
4, 97680, Note_on_c, 0, 40, 75
4, 97740, Note_on_c, 0, 40, 0
4, 97740, Note_on_c, 0, 36, 0
4, 97740, Note_on_c, 0, 34, 0
4, 97740, Note_on_c, 0, 46, 75
4, 97800, Note_on_c, 0, 46, 0
4, 97800, Note_on_c, 0, 34, 75
4, 97800, Note_on_c, 0, 36, 75
4, 97800, Note_on_c, 0, 40, 75
4, 97860, Note_on_c, 0, 40, 0
4, 97860, Note_on_c, 0, 36, 0
4, 97860, Note_on_c, 0, 34, 0
4, 97860, Control_c, 0, 64, 127
4, 97860, Note_on_c, 0, 46, 75
4, 97920, Note_on_c, 0, 46, 0
4, 97920, Control_c, 0, 64, 127
4, 97920, Note_on_c, 0, 35, 101
4, 97920, Note_on_c, 0, 40, 101
4, 97920, Note_on_c, 0, 43, 101
4, 98000, Note_on_c, 0, 43, 0
4, 98000, Note_on_c, 0, 40, 0
4, 98000, Note_on_c, 0, 35, 0
4, 98000, Note_on_c, 0, 47, 101
4, 98079, Note_on_c, 0, 47, 0
4, 98079, Note_on_c, 0, 35, 75
4, 98079, Note_on_c, 0, 40, 75
4, 98079, Note_on_c, 0, 43, 75
4, 98160, Note_on_c, 0, 43, 0
4, 98160, Note_on_c, 0, 40, 0
4, 98160, Note_on_c, 0, 35, 0
4, 98160, Note_on_c, 0, 47, 75
4, 98240, Note_on_c, 0, 47, 0
4, 98240, Note_on_c, 0, 35, 75
4, 98240, Note_on_c, 0, 40, 75
4, 98240, Note_on_c, 0, 43, 75
4, 98319, Note_on_c, 0, 43, 0
4, 98319, Note_on_c, 0, 40, 0
4, 98319, Note_on_c, 0, 35, 0
4, 98319, Note_on_c, 0, 47, 75
4, 98400, Note_on_c, 0, 47, 0
4, 98400, Note_on_c, 0, 35, 75
4, 98400, Note_on_c, 0, 40, 75
4, 98400, Note_on_c, 0, 43, 75
4, 98480, Note_on_c, 0, 43, 0
4, 98480, Note_on_c, 0, 40, 0
4, 98480, Note_on_c, 0, 35, 0
4, 98480, Note_on_c, 0, 47, 75
4, 98559, Note_on_c, 0, 47, 0
4, 98559, Note_on_c, 0, 35, 75
4, 98559, Note_on_c, 0, 40, 75
4, 98559, Note_on_c, 0, 43, 75
4, 98640, Note_on_c, 0, 43, 0
4, 98640, Note_on_c, 0, 40, 0
4, 98640, Note_on_c, 0, 35, 0
4, 98640, Note_on_c, 0, 47, 75
4, 98720, Note_on_c, 0, 47, 0
4, 98720, Note_on_c, 0, 35, 75
4, 98720, Note_on_c, 0, 40, 75
4, 98720, Note_on_c, 0, 43, 75
4, 98799, Note_on_c, 0, 43, 0
4, 98799, Note_on_c, 0, 40, 0
4, 98799, Note_on_c, 0, 35, 0
4, 98799, Control_c, 0, 64, 0
4, 98799, Note_on_c, 0, 47, 75
4, 98880, Note_on_c, 0, 47, 0
4, 98880, Control_c, 0, 64, 127
4, 98880, Note_on_c, 0, 36, 101
4, 98880, Note_on_c, 0, 40, 101
4, 98880, Note_on_c, 0, 43, 101
4, 98960, Note_on_c, 0, 43, 0
4, 98960, Note_on_c, 0, 40, 0
4, 98960, Note_on_c, 0, 36, 0
4, 98960, Note_on_c, 0, 48, 101
4, 99039, Note_on_c, 0, 48, 0
4, 99039, Note_on_c, 0, 36, 75
4, 99039, Note_on_c, 0, 40, 75
4, 99039, Note_on_c, 0, 43, 75
4, 99120, Note_on_c, 0, 43, 0
4, 99120, Note_on_c, 0, 40, 0
4, 99120, Note_on_c, 0, 36, 0
4, 99120, Note_on_c, 0, 48, 75
4, 99200, Note_on_c, 0, 48, 0
4, 99200, Note_on_c, 0, 36, 75
4, 99200, Note_on_c, 0, 40, 75
4, 99200, Note_on_c, 0, 43, 75
4, 99279, Note_on_c, 0, 43, 0
4, 99279, Note_on_c, 0, 40, 0
4, 99279, Note_on_c, 0, 36, 0
4, 99279, Note_on_c, 0, 48, 75
4, 99360, Note_on_c, 0, 48, 0
4, 99360, Note_on_c, 0, 36, 75
4, 99360, Note_on_c, 0, 40, 75
4, 99360, Note_on_c, 0, 43, 75
4, 99440, Note_on_c, 0, 43, 0
4, 99440, Note_on_c, 0, 40, 0
4, 99440, Note_on_c, 0, 36, 0
4, 99440, Note_on_c, 0, 48, 75
4, 99519, Note_on_c, 0, 48, 0
4, 99519, Note_on_c, 0, 36, 75
4, 99519, Note_on_c, 0, 40, 75
4, 99519, Note_on_c, 0, 43, 75
4, 99600, Note_on_c, 0, 43, 0
4, 99600, Note_on_c, 0, 40, 0
4, 99600, Note_on_c, 0, 36, 0
4, 99600, Note_on_c, 0, 48, 75
4, 99680, Note_on_c, 0, 48, 0
4, 99680, Note_on_c, 0, 36, 75
4, 99680, Note_on_c, 0, 40, 75
4, 99680, Note_on_c, 0, 43, 75
4, 99759, Note_on_c, 0, 43, 0
4, 99759, Note_on_c, 0, 40, 0
4, 99759, Note_on_c, 0, 36, 0
4, 99759, Control_c, 0, 64, 0
4, 99759, Note_on_c, 0, 48, 75
4, 99840, Note_on_c, 0, 48, 0
4, 99840, Note_on_c, 0, 36, 114
4, 99840, Note_on_c, 0, 40, 114
4, 99840, Note_on_c, 0, 43, 114
4, 99840, Note_on_c, 0, 48, 114
4, 100320, Note_on_c, 0, 48, 0
4, 100320, Note_on_c, 0, 36, 0
4, 100320, Note_on_c, 0, 40, 0
4, 100320, Note_on_c, 0, 43, 0
4, 100320, Note_on_c, 0, 37, 114
4, 100320, Note_on_c, 0, 43, 114
4, 100320, Note_on_c, 0, 46, 114
4, 100320, Note_on_c, 0, 49, 114
4, 100800, Note_on_c, 0, 49, 0
4, 100800, Note_on_c, 0, 37, 0
4, 100800, Note_on_c, 0, 43, 0
4, 100800, Note_on_c, 0, 46, 0
4, 100800, Note_on_c, 0, 38, 114
4, 100800, Note_on_c, 0, 43, 114
4, 100800, Note_on_c, 0, 47, 114
4, 100800, Note_on_c, 0, 50, 114
4, 101760, Note_on_c, 0, 50, 0
4, 101760, Note_on_c, 0, 38, 0
4, 101760, Note_on_c, 0, 43, 0
4, 101760, Note_on_c, 0, 47, 0
4, 101760, Note_on_c, 0, 39, 114
4, 101760, Note_on_c, 0, 43, 114
4, 101760, Note_on_c, 0, 47, 114
4, 101760, Note_on_c, 0, 51, 114
4, 102000, Note_on_c, 0, 51, 0
4, 102000, Note_on_c, 0, 39, 0
4, 102000, Note_on_c, 0, 43, 0
4, 102000, Note_on_c, 0, 47, 0
4, 102000, Note_on_c, 0, 40, 114
4, 102000, Note_on_c, 0, 52, 114
4, 102240, Note_on_c, 0, 52, 0
4, 102240, Note_on_c, 0, 40, 0
4, 102240, Note_on_c, 0, 43, 114
4, 102240, Note_on_c, 0, 55, 114
4, 102480, Note_on_c, 0, 55, 0
4, 102480, Note_on_c, 0, 43, 0
4, 102480, Note_on_c, 0, 47, 114
4, 102480, Note_on_c, 0, 59, 114
4, 102720, Note_on_c, 0, 59, 0
4, 102720, Note_on_c, 0, 47, 0
4, 102720, Note_on_c, 0, 52, 114
4, 102720, Note_on_c, 0, 64, 114
4, 102960, Note_on_c, 0, 64, 0
4, 102960, Note_on_c, 0, 52, 0
4, 102960, Note_on_c, 0, 55, 114
4, 102960, Note_on_c, 0, 67, 114
4, 103200, Note_on_c, 0, 67, 0
4, 103200, Note_on_c, 0, 55, 0
4, 103200, Note_on_c, 0, 59, 114
4, 103200, Note_on_c, 0, 71, 114
4, 103440, Note_on_c, 0, 71, 0
4, 103440, Note_on_c, 0, 59, 0
4, 103440, Note_on_c, 0, 64, 114
4, 103440, Note_on_c, 0, 76, 114
4, 103680, Note_on_c, 0, 76, 0
4, 103680, Note_on_c, 0, 64, 0
4, 103680, Control_c, 0, 64, 127
4, 103680, Note_on_c, 0, 36, 101
4, 103680, Note_on_c, 0, 40, 101
4, 103680, Note_on_c, 0, 45, 101
4, 103740, Note_on_c, 0, 45, 0
4, 103740, Note_on_c, 0, 40, 0
4, 103740, Note_on_c, 0, 36, 0
4, 103740, Note_on_c, 0, 48, 101
4, 103800, Note_on_c, 0, 48, 0
4, 103800, Note_on_c, 0, 36, 75
4, 103800, Note_on_c, 0, 40, 75
4, 103800, Note_on_c, 0, 45, 75
4, 103860, Note_on_c, 0, 45, 0
4, 103860, Note_on_c, 0, 40, 0
4, 103860, Note_on_c, 0, 36, 0
4, 103860, Note_on_c, 0, 48, 75
4, 103920, Note_on_c, 0, 48, 0
4, 103920, Note_on_c, 0, 36, 75
4, 103920, Note_on_c, 0, 40, 75
4, 103920, Note_on_c, 0, 45, 75
4, 103980, Note_on_c, 0, 45, 0
4, 103980, Note_on_c, 0, 40, 0
4, 103980, Note_on_c, 0, 36, 0
4, 103980, Note_on_c, 0, 48, 75
4, 104040, Note_on_c, 0, 48, 0
4, 104040, Note_on_c, 0, 36, 75
4, 104040, Note_on_c, 0, 40, 75
4, 104040, Note_on_c, 0, 45, 75
4, 104100, Note_on_c, 0, 45, 0
4, 104100, Note_on_c, 0, 40, 0
4, 104100, Note_on_c, 0, 36, 0
4, 104100, Note_on_c, 0, 48, 75
4, 104160, Note_on_c, 0, 48, 0
4, 104160, Note_on_c, 0, 36, 75
4, 104160, Note_on_c, 0, 40, 75
4, 104160, Note_on_c, 0, 45, 75
4, 104220, Note_on_c, 0, 45, 0
4, 104220, Note_on_c, 0, 40, 0
4, 104220, Note_on_c, 0, 36, 0
4, 104220, Note_on_c, 0, 48, 75
4, 104280, Note_on_c, 0, 48, 0
4, 104280, Note_on_c, 0, 36, 75
4, 104280, Note_on_c, 0, 40, 75
4, 104280, Note_on_c, 0, 45, 75
4, 104340, Note_on_c, 0, 45, 0
4, 104340, Note_on_c, 0, 40, 0
4, 104340, Note_on_c, 0, 36, 0
4, 104340, Note_on_c, 0, 48, 75
4, 104400, Note_on_c, 0, 48, 0
4, 104400, Note_on_c, 0, 36, 75
4, 104400, Note_on_c, 0, 40, 75
4, 104400, Note_on_c, 0, 45, 75
4, 104460, Note_on_c, 0, 45, 0
4, 104460, Note_on_c, 0, 40, 0
4, 104460, Note_on_c, 0, 36, 0
4, 104460, Note_on_c, 0, 48, 75
4, 104520, Note_on_c, 0, 48, 0
4, 104520, Note_on_c, 0, 36, 75
4, 104520, Note_on_c, 0, 40, 75
4, 104520, Note_on_c, 0, 45, 75
4, 104580, Note_on_c, 0, 45, 0
4, 104580, Note_on_c, 0, 40, 0
4, 104580, Note_on_c, 0, 36, 0
4, 104580, Control_c, 0, 64, 0
4, 104580, Note_on_c, 0, 48, 75
4, 104640, Note_on_c, 0, 48, 0
4, 104640, Control_c, 0, 64, 127
4, 104640, Note_on_c, 0, 38, 101
4, 104640, Note_on_c, 0, 42, 101
4, 104640, Note_on_c, 0, 45, 101
4, 104700, Note_on_c, 0, 45, 0
4, 104700, Note_on_c, 0, 42, 0
4, 104700, Note_on_c, 0, 38, 0
4, 104700, Note_on_c, 0, 50, 101
4, 104760, Note_on_c, 0, 50, 0
4, 104760, Note_on_c, 0, 38, 75
4, 104760, Note_on_c, 0, 42, 75
4, 104760, Note_on_c, 0, 45, 75
4, 104820, Note_on_c, 0, 45, 0
4, 104820, Note_on_c, 0, 42, 0
4, 104820, Note_on_c, 0, 38, 0
4, 104820, Note_on_c, 0, 50, 75
4, 104880, Note_on_c, 0, 50, 0
4, 104880, Note_on_c, 0, 38, 75
4, 104880, Note_on_c, 0, 42, 75
4, 104880, Note_on_c, 0, 45, 75
4, 104940, Note_on_c, 0, 45, 0
4, 104940, Note_on_c, 0, 42, 0
4, 104940, Note_on_c, 0, 38, 0
4, 104940, Note_on_c, 0, 50, 75
4, 105000, Note_on_c, 0, 50, 0
4, 105000, Note_on_c, 0, 38, 75
4, 105000, Note_on_c, 0, 42, 75
4, 105000, Note_on_c, 0, 45, 75
4, 105060, Note_on_c, 0, 45, 0
4, 105060, Note_on_c, 0, 42, 0
4, 105060, Note_on_c, 0, 38, 0
4, 105060, Note_on_c, 0, 50, 75
4, 105120, Note_on_c, 0, 50, 0
4, 105120, Note_on_c, 0, 38, 75
4, 105120, Note_on_c, 0, 42, 75
4, 105120, Note_on_c, 0, 45, 75
4, 105180, Note_on_c, 0, 45, 0
4, 105180, Note_on_c, 0, 42, 0
4, 105180, Note_on_c, 0, 38, 0
4, 105180, Note_on_c, 0, 50, 75
4, 105240, Note_on_c, 0, 50, 0
4, 105240, Note_on_c, 0, 38, 75
4, 105240, Note_on_c, 0, 42, 75
4, 105240, Note_on_c, 0, 45, 75
4, 105300, Note_on_c, 0, 45, 0
4, 105300, Note_on_c, 0, 42, 0
4, 105300, Note_on_c, 0, 38, 0
4, 105300, Note_on_c, 0, 50, 75
4, 105360, Note_on_c, 0, 50, 0
4, 105360, Note_on_c, 0, 38, 75
4, 105360, Note_on_c, 0, 42, 75
4, 105360, Note_on_c, 0, 45, 75
4, 105420, Note_on_c, 0, 45, 0
4, 105420, Note_on_c, 0, 42, 0
4, 105420, Note_on_c, 0, 38, 0
4, 105420, Note_on_c, 0, 50, 75
4, 105480, Note_on_c, 0, 50, 0
4, 105480, Note_on_c, 0, 38, 75
4, 105480, Note_on_c, 0, 42, 75
4, 105480, Note_on_c, 0, 45, 75
4, 105540, Note_on_c, 0, 45, 0
4, 105540, Note_on_c, 0, 42, 0
4, 105540, Note_on_c, 0, 38, 0
4, 105540, Control_c, 0, 64, 0
4, 105540, Note_on_c, 0, 50, 75
4, 105600, Note_on_c, 0, 50, 0
4, 105600, Control_c, 0, 64, 127
4, 105600, Note_on_c, 0, 43, 101
4, 105600, Note_on_c, 0, 47, 101
4, 105600, Note_on_c, 0, 50, 101
4, 105660, Note_on_c, 0, 50, 0
4, 105660, Note_on_c, 0, 47, 0
4, 105660, Note_on_c, 0, 43, 0
4, 105660, Note_on_c, 0, 55, 101
4, 105720, Note_on_c, 0, 55, 0
4, 105720, Note_on_c, 0, 43, 75
4, 105720, Note_on_c, 0, 47, 75
4, 105720, Note_on_c, 0, 50, 75
4, 105780, Note_on_c, 0, 50, 0
4, 105780, Note_on_c, 0, 47, 0
4, 105780, Note_on_c, 0, 43, 0
4, 105780, Note_on_c, 0, 55, 75
4, 105840, Note_on_c, 0, 55, 0
4, 105840, Note_on_c, 0, 43, 75
4, 105840, Note_on_c, 0, 47, 75
4, 105840, Note_on_c, 0, 50, 75
4, 105900, Note_on_c, 0, 50, 0
4, 105900, Note_on_c, 0, 47, 0
4, 105900, Note_on_c, 0, 43, 0
4, 105900, Note_on_c, 0, 55, 75
4, 105960, Note_on_c, 0, 55, 0
4, 105960, Note_on_c, 0, 43, 75
4, 105960, Note_on_c, 0, 47, 75
4, 105960, Note_on_c, 0, 50, 75
4, 106020, Note_on_c, 0, 50, 0
4, 106020, Note_on_c, 0, 47, 0
4, 106020, Note_on_c, 0, 43, 0
4, 106020, Note_on_c, 0, 55, 75
4, 106080, Note_on_c, 0, 55, 0
4, 106080, Note_on_c, 0, 43, 75
4, 106080, Note_on_c, 0, 47, 75
4, 106080, Note_on_c, 0, 50, 75
4, 106140, Note_on_c, 0, 50, 0
4, 106140, Note_on_c, 0, 47, 0
4, 106140, Note_on_c, 0, 43, 0
4, 106140, Note_on_c, 0, 55, 75
4, 106200, Note_on_c, 0, 55, 0
4, 106200, Note_on_c, 0, 43, 75
4, 106200, Note_on_c, 0, 47, 75
4, 106200, Note_on_c, 0, 50, 75
4, 106260, Note_on_c, 0, 50, 0
4, 106260, Note_on_c, 0, 47, 0
4, 106260, Note_on_c, 0, 43, 0
4, 106260, Note_on_c, 0, 55, 75
4, 106320, Note_on_c, 0, 55, 0
4, 106320, Note_on_c, 0, 43, 75
4, 106320, Note_on_c, 0, 47, 75
4, 106320, Note_on_c, 0, 50, 75
4, 106380, Note_on_c, 0, 50, 0
4, 106380, Note_on_c, 0, 47, 0
4, 106380, Note_on_c, 0, 43, 0
4, 106380, Note_on_c, 0, 55, 75
4, 106440, Note_on_c, 0, 55, 0
4, 106440, Note_on_c, 0, 43, 75
4, 106440, Note_on_c, 0, 47, 75
4, 106440, Note_on_c, 0, 50, 75
4, 106500, Note_on_c, 0, 50, 0
4, 106500, Note_on_c, 0, 47, 0
4, 106500, Note_on_c, 0, 43, 0
4, 106500, Control_c, 0, 64, 0
4, 106500, Note_on_c, 0, 55, 75
4, 106560, Note_on_c, 0, 55, 0
4, 106560, Control_c, 0, 64, 127
4, 106560, Note_on_c, 0, 40, 101
4, 106560, Note_on_c, 0, 43, 101
4, 106560, Note_on_c, 0, 47, 101
4, 106620, Note_on_c, 0, 47, 0
4, 106620, Note_on_c, 0, 43, 0
4, 106620, Note_on_c, 0, 40, 0
4, 106620, Note_on_c, 0, 52, 101
4, 106680, Note_on_c, 0, 52, 0
4, 106680, Note_on_c, 0, 40, 75
4, 106680, Note_on_c, 0, 43, 75
4, 106680, Note_on_c, 0, 47, 75
4, 106740, Note_on_c, 0, 47, 0
4, 106740, Note_on_c, 0, 43, 0
4, 106740, Note_on_c, 0, 40, 0
4, 106740, Note_on_c, 0, 52, 75
4, 106800, Note_on_c, 0, 52, 0
4, 106800, Note_on_c, 0, 40, 75
4, 106800, Note_on_c, 0, 43, 75
4, 106800, Note_on_c, 0, 47, 75
4, 106860, Note_on_c, 0, 47, 0
4, 106860, Note_on_c, 0, 43, 0
4, 106860, Note_on_c, 0, 40, 0
4, 106860, Note_on_c, 0, 52, 75
4, 106920, Note_on_c, 0, 52, 0
4, 106920, Note_on_c, 0, 40, 75
4, 106920, Note_on_c, 0, 43, 75
4, 106920, Note_on_c, 0, 47, 75
4, 106980, Note_on_c, 0, 47, 0
4, 106980, Note_on_c, 0, 43, 0
4, 106980, Note_on_c, 0, 40, 0
4, 106980, Note_on_c, 0, 52, 75
4, 107040, Note_on_c, 0, 52, 0
4, 107040, Note_on_c, 0, 40, 75
4, 107040, Note_on_c, 0, 43, 75
4, 107040, Note_on_c, 0, 47, 75
4, 107100, Note_on_c, 0, 47, 0
4, 107100, Note_on_c, 0, 43, 0
4, 107100, Note_on_c, 0, 40, 0
4, 107100, Note_on_c, 0, 52, 75
4, 107160, Note_on_c, 0, 52, 0
4, 107160, Note_on_c, 0, 40, 75
4, 107160, Note_on_c, 0, 43, 75
4, 107160, Note_on_c, 0, 47, 75
4, 107220, Note_on_c, 0, 47, 0
4, 107220, Note_on_c, 0, 43, 0
4, 107220, Note_on_c, 0, 40, 0
4, 107220, Note_on_c, 0, 52, 75
4, 107280, Note_on_c, 0, 52, 0
4, 107280, Note_on_c, 0, 40, 75
4, 107280, Note_on_c, 0, 43, 75
4, 107280, Note_on_c, 0, 47, 75
4, 107340, Note_on_c, 0, 47, 0
4, 107340, Note_on_c, 0, 43, 0
4, 107340, Note_on_c, 0, 40, 0
4, 107340, Note_on_c, 0, 52, 75
4, 107400, Note_on_c, 0, 52, 0
4, 107400, Note_on_c, 0, 40, 75
4, 107400, Note_on_c, 0, 43, 75
4, 107400, Note_on_c, 0, 47, 75
4, 107460, Note_on_c, 0, 47, 0
4, 107460, Note_on_c, 0, 43, 0
4, 107460, Note_on_c, 0, 40, 0
4, 107460, Control_c, 0, 64, 0
4, 107460, Note_on_c, 0, 52, 75
4, 107520, Note_on_c, 0, 52, 0
4, 107520, Control_c, 0, 64, 127
4, 107520, Note_on_c, 0, 36, 101
4, 107520, Note_on_c, 0, 40, 101
4, 107520, Note_on_c, 0, 45, 101
4, 107580, Note_on_c, 0, 45, 0
4, 107580, Note_on_c, 0, 40, 0
4, 107580, Note_on_c, 0, 36, 0
4, 107580, Note_on_c, 0, 48, 101
4, 107640, Note_on_c, 0, 48, 0
4, 107640, Note_on_c, 0, 36, 75
4, 107640, Note_on_c, 0, 40, 75
4, 107640, Note_on_c, 0, 45, 75
4, 107700, Note_on_c, 0, 45, 0
4, 107700, Note_on_c, 0, 40, 0
4, 107700, Note_on_c, 0, 36, 0
4, 107700, Note_on_c, 0, 48, 75
4, 107760, Note_on_c, 0, 48, 0
4, 107760, Note_on_c, 0, 36, 75
4, 107760, Note_on_c, 0, 40, 75
4, 107760, Note_on_c, 0, 45, 75
4, 107820, Note_on_c, 0, 45, 0
4, 107820, Note_on_c, 0, 40, 0
4, 107820, Note_on_c, 0, 36, 0
4, 107820, Note_on_c, 0, 48, 75
4, 107880, Note_on_c, 0, 48, 0
4, 107880, Note_on_c, 0, 36, 75
4, 107880, Note_on_c, 0, 40, 75
4, 107880, Note_on_c, 0, 45, 75
4, 107940, Note_on_c, 0, 45, 0
4, 107940, Note_on_c, 0, 40, 0
4, 107940, Note_on_c, 0, 36, 0
4, 107940, Note_on_c, 0, 48, 75
4, 108000, Note_on_c, 0, 48, 0
4, 108000, Note_on_c, 0, 36, 75
4, 108000, Note_on_c, 0, 40, 75
4, 108000, Note_on_c, 0, 45, 75
4, 108060, Note_on_c, 0, 45, 0
4, 108060, Note_on_c, 0, 40, 0
4, 108060, Note_on_c, 0, 36, 0
4, 108060, Note_on_c, 0, 48, 75
4, 108120, Note_on_c, 0, 48, 0
4, 108120, Note_on_c, 0, 36, 75
4, 108120, Note_on_c, 0, 40, 75
4, 108120, Note_on_c, 0, 45, 75
4, 108180, Note_on_c, 0, 45, 0
4, 108180, Note_on_c, 0, 40, 0
4, 108180, Note_on_c, 0, 36, 0
4, 108180, Note_on_c, 0, 48, 75
4, 108240, Note_on_c, 0, 48, 0
4, 108240, Note_on_c, 0, 36, 75
4, 108240, Note_on_c, 0, 40, 75
4, 108240, Note_on_c, 0, 45, 75
4, 108300, Note_on_c, 0, 45, 0
4, 108300, Note_on_c, 0, 40, 0
4, 108300, Note_on_c, 0, 36, 0
4, 108300, Note_on_c, 0, 48, 75
4, 108360, Note_on_c, 0, 48, 0
4, 108360, Note_on_c, 0, 36, 75
4, 108360, Note_on_c, 0, 40, 75
4, 108360, Note_on_c, 0, 45, 75
4, 108420, Note_on_c, 0, 45, 0
4, 108420, Note_on_c, 0, 40, 0
4, 108420, Note_on_c, 0, 36, 0
4, 108420, Control_c, 0, 64, 0
4, 108420, Note_on_c, 0, 48, 75
4, 108480, Note_on_c, 0, 48, 0
4, 108480, Control_c, 0, 64, 127
4, 108480, Note_on_c, 0, 38, 101
4, 108480, Note_on_c, 0, 42, 101
4, 108480, Note_on_c, 0, 45, 101
4, 108540, Note_on_c, 0, 45, 0
4, 108540, Note_on_c, 0, 42, 0
4, 108540, Note_on_c, 0, 38, 0
4, 108540, Note_on_c, 0, 50, 101
4, 108600, Note_on_c, 0, 50, 0
4, 108600, Note_on_c, 0, 38, 75
4, 108600, Note_on_c, 0, 42, 75
4, 108600, Note_on_c, 0, 45, 75
4, 108660, Note_on_c, 0, 45, 0
4, 108660, Note_on_c, 0, 42, 0
4, 108660, Note_on_c, 0, 38, 0
4, 108660, Note_on_c, 0, 50, 75
4, 108720, Note_on_c, 0, 50, 0
4, 108720, Note_on_c, 0, 38, 75
4, 108720, Note_on_c, 0, 42, 75
4, 108720, Note_on_c, 0, 45, 75
4, 108780, Note_on_c, 0, 45, 0
4, 108780, Note_on_c, 0, 42, 0
4, 108780, Note_on_c, 0, 38, 0
4, 108780, Note_on_c, 0, 50, 75
4, 108840, Note_on_c, 0, 50, 0
4, 108840, Note_on_c, 0, 38, 75
4, 108840, Note_on_c, 0, 42, 75
4, 108840, Note_on_c, 0, 45, 75
4, 108900, Note_on_c, 0, 45, 0
4, 108900, Note_on_c, 0, 42, 0
4, 108900, Note_on_c, 0, 38, 0
4, 108900, Note_on_c, 0, 50, 75
4, 108960, Note_on_c, 0, 50, 0
4, 108960, Note_on_c, 0, 38, 75
4, 108960, Note_on_c, 0, 42, 75
4, 108960, Note_on_c, 0, 45, 75
4, 109020, Note_on_c, 0, 45, 0
4, 109020, Note_on_c, 0, 42, 0
4, 109020, Note_on_c, 0, 38, 0
4, 109020, Note_on_c, 0, 50, 75
4, 109080, Note_on_c, 0, 50, 0
4, 109080, Note_on_c, 0, 38, 75
4, 109080, Note_on_c, 0, 42, 75
4, 109080, Note_on_c, 0, 45, 75
4, 109140, Note_on_c, 0, 45, 0
4, 109140, Note_on_c, 0, 42, 0
4, 109140, Note_on_c, 0, 38, 0
4, 109140, Note_on_c, 0, 50, 75
4, 109200, Note_on_c, 0, 50, 0
4, 109200, Note_on_c, 0, 38, 75
4, 109200, Note_on_c, 0, 42, 75
4, 109200, Note_on_c, 0, 45, 75
4, 109260, Note_on_c, 0, 45, 0
4, 109260, Note_on_c, 0, 42, 0
4, 109260, Note_on_c, 0, 38, 0
4, 109260, Note_on_c, 0, 50, 75
4, 109320, Note_on_c, 0, 50, 0
4, 109320, Note_on_c, 0, 38, 75
4, 109320, Note_on_c, 0, 42, 75
4, 109320, Note_on_c, 0, 45, 75
4, 109380, Note_on_c, 0, 45, 0
4, 109380, Note_on_c, 0, 42, 0
4, 109380, Note_on_c, 0, 38, 0
4, 109380, Control_c, 0, 64, 0
4, 109380, Note_on_c, 0, 50, 75
4, 109440, Note_on_c, 0, 50, 0
4, 109440, Control_c, 0, 64, 127
4, 109440, Note_on_c, 0, 31, 101
4, 109500, Note_on_c, 0, 31, 0
4, 109500, Note_on_c, 0, 43, 101
4, 109560, Note_on_c, 0, 43, 0
4, 109560, Note_on_c, 0, 31, 75
4, 109620, Note_on_c, 0, 31, 0
4, 109620, Note_on_c, 0, 43, 75
4, 109680, Note_on_c, 0, 43, 0
4, 109680, Note_on_c, 0, 31, 75
4, 109740, Note_on_c, 0, 31, 0
4, 109740, Note_on_c, 0, 43, 75
4, 109800, Note_on_c, 0, 43, 0
4, 109800, Note_on_c, 0, 31, 75
4, 109860, Note_on_c, 0, 31, 0
4, 109860, Note_on_c, 0, 43, 75
4, 109920, Note_on_c, 0, 43, 0
4, 109920, Note_on_c, 0, 31, 75
4, 109980, Note_on_c, 0, 31, 0
4, 109980, Note_on_c, 0, 43, 75
4, 110040, Note_on_c, 0, 43, 0
4, 110040, Note_on_c, 0, 31, 75
4, 110100, Note_on_c, 0, 31, 0
4, 110100, Note_on_c, 0, 43, 75
4, 110160, Note_on_c, 0, 43, 0
4, 110160, Note_on_c, 0, 31, 75
4, 110220, Note_on_c, 0, 31, 0
4, 110220, Note_on_c, 0, 43, 75
4, 110280, Note_on_c, 0, 43, 0
4, 110280, Note_on_c, 0, 31, 75
4, 110340, Note_on_c, 0, 31, 0
4, 110340, Control_c, 0, 64, 0
4, 110340, Note_on_c, 0, 43, 75
4, 110400, Note_on_c, 0, 43, 0
4, 110400, Control_c, 0, 64, 127
4, 110400, Note_on_c, 0, 43, 101
4, 110460, Note_on_c, 0, 43, 0
4, 110460, Note_on_c, 0, 53, 88
4, 110520, Note_on_c, 0, 53, 0
4, 110520, Note_on_c, 0, 43, 62
4, 110580, Note_on_c, 0, 43, 0
4, 110580, Note_on_c, 0, 53, 62
4, 110640, Note_on_c, 0, 53, 0
4, 110640, Note_on_c, 0, 43, 62
4, 110700, Note_on_c, 0, 43, 0
4, 110700, Note_on_c, 0, 53, 62
4, 110760, Note_on_c, 0, 53, 0
4, 110760, Note_on_c, 0, 43, 62
4, 110820, Note_on_c, 0, 43, 0
4, 110820, Note_on_c, 0, 53, 62
4, 110880, Note_on_c, 0, 53, 0
4, 110880, Note_on_c, 0, 43, 62
4, 110940, Note_on_c, 0, 43, 0
4, 110940, Note_on_c, 0, 53, 62
4, 111000, Note_on_c, 0, 53, 0
4, 111000, Note_on_c, 0, 43, 62
4, 111060, Note_on_c, 0, 43, 0
4, 111060, Note_on_c, 0, 53, 62
4, 111120, Note_on_c, 0, 53, 0
4, 111120, Note_on_c, 0, 43, 62
4, 111180, Note_on_c, 0, 43, 0
4, 111180, Note_on_c, 0, 53, 62
4, 111240, Note_on_c, 0, 53, 0
4, 111240, Note_on_c, 0, 43, 62
4, 111300, Note_on_c, 0, 43, 0
4, 111300, Control_c, 0, 64, 0
4, 111300, Note_on_c, 0, 53, 62
4, 111360, Note_on_c, 0, 53, 0
4, 111360, Control_c, 0, 64, 127
4, 111360, Note_on_c, 0, 43, 88
4, 111420, Note_on_c, 0, 43, 0
4, 111420, Note_on_c, 0, 52, 88
4, 111480, Note_on_c, 0, 52, 0
4, 111480, Note_on_c, 0, 43, 62
4, 111540, Note_on_c, 0, 43, 0
4, 111540, Note_on_c, 0, 52, 62
4, 111600, Note_on_c, 0, 52, 0
4, 111600, Note_on_c, 0, 43, 62
4, 111660, Note_on_c, 0, 43, 0
4, 111660, Note_on_c, 0, 52, 62
4, 111720, Note_on_c, 0, 52, 0
4, 111720, Note_on_c, 0, 43, 62
4, 111780, Note_on_c, 0, 43, 0
4, 111780, Note_on_c, 0, 52, 62
4, 111840, Note_on_c, 0, 52, 0
4, 111840, Note_on_c, 0, 43, 62
4, 111900, Note_on_c, 0, 43, 0
4, 111900, Note_on_c, 0, 52, 62
4, 111960, Note_on_c, 0, 52, 0
4, 111960, Note_on_c, 0, 43, 62
4, 112020, Note_on_c, 0, 43, 0
4, 112020, Note_on_c, 0, 52, 62
4, 112080, Note_on_c, 0, 52, 0
4, 112080, Note_on_c, 0, 43, 62
4, 112140, Note_on_c, 0, 43, 0
4, 112140, Note_on_c, 0, 52, 62
4, 112200, Note_on_c, 0, 52, 0
4, 112200, Note_on_c, 0, 43, 62
4, 112260, Note_on_c, 0, 43, 0
4, 112260, Control_c, 0, 64, 0
4, 112260, Note_on_c, 0, 52, 62
4, 112320, Note_on_c, 0, 52, 0
4, 112320, Control_c, 0, 64, 127
4, 112320, Note_on_c, 0, 43, 88
4, 112380, Note_on_c, 0, 43, 0
4, 112380, Note_on_c, 0, 51, 88
4, 112440, Note_on_c, 0, 51, 0
4, 112440, Note_on_c, 0, 43, 62
4, 112500, Note_on_c, 0, 43, 0
4, 112500, Note_on_c, 0, 51, 62
4, 112560, Note_on_c, 0, 51, 0
4, 112560, Note_on_c, 0, 43, 62
4, 112620, Note_on_c, 0, 43, 0
4, 112620, Note_on_c, 0, 51, 62
4, 112680, Note_on_c, 0, 51, 0
4, 112680, Note_on_c, 0, 43, 62
4, 112740, Note_on_c, 0, 43, 0
4, 112740, Note_on_c, 0, 51, 62
4, 112800, Note_on_c, 0, 51, 0
4, 112800, Note_on_c, 0, 43, 62
4, 112860, Note_on_c, 0, 43, 0
4, 112860, Note_on_c, 0, 51, 62
4, 112920, Note_on_c, 0, 51, 0
4, 112920, Note_on_c, 0, 43, 62
4, 112980, Note_on_c, 0, 43, 0
4, 112980, Note_on_c, 0, 51, 62
4, 113040, Note_on_c, 0, 51, 0
4, 113040, Note_on_c, 0, 43, 62
4, 113100, Note_on_c, 0, 43, 0
4, 113100, Note_on_c, 0, 51, 62
4, 113160, Note_on_c, 0, 51, 0
4, 113160, Note_on_c, 0, 43, 62
4, 113220, Note_on_c, 0, 43, 0
4, 113220, Control_c, 0, 64, 0
4, 113220, Note_on_c, 0, 51, 62
4, 113280, Note_on_c, 0, 51, 0
4, 113280, Control_c, 0, 64, 127
4, 113280, Note_on_c, 0, 43, 88
4, 113340, Note_on_c, 0, 43, 0
4, 113340, Note_on_c, 0, 50, 88
4, 113400, Note_on_c, 0, 50, 0
4, 113400, Note_on_c, 0, 43, 62
4, 113460, Note_on_c, 0, 43, 0
4, 113460, Note_on_c, 0, 50, 62
4, 113520, Note_on_c, 0, 50, 0
4, 113520, Note_on_c, 0, 43, 62
4, 113580, Note_on_c, 0, 43, 0
4, 113580, Note_on_c, 0, 50, 62
4, 113640, Note_on_c, 0, 50, 0
4, 113640, Note_on_c, 0, 43, 62
4, 113700, Note_on_c, 0, 43, 0
4, 113700, Note_on_c, 0, 50, 62
4, 113760, Note_on_c, 0, 50, 0
4, 113760, Note_on_c, 0, 43, 62
4, 113820, Note_on_c, 0, 43, 0
4, 113820, Note_on_c, 0, 50, 62
4, 113880, Note_on_c, 0, 50, 0
4, 113880, Note_on_c, 0, 43, 62
4, 113940, Note_on_c, 0, 43, 0
4, 113940, Note_on_c, 0, 50, 62
4, 114000, Note_on_c, 0, 50, 0
4, 114000, Note_on_c, 0, 43, 62
4, 114060, Note_on_c, 0, 43, 0
4, 114060, Note_on_c, 0, 50, 62
4, 114120, Note_on_c, 0, 50, 0
4, 114120, Note_on_c, 0, 43, 62
4, 114180, Note_on_c, 0, 43, 0
4, 114180, Control_c, 0, 64, 0
4, 114180, Note_on_c, 0, 50, 62
4, 114240, Note_on_c, 0, 50, 0
4, 114240, Control_c, 0, 64, 127
4, 114240, Note_on_c, 0, 43, 88
4, 114300, Note_on_c, 0, 43, 0
4, 114300, Note_on_c, 0, 53, 88
4, 114360, Note_on_c, 0, 53, 0
4, 114360, Note_on_c, 0, 43, 62
4, 114420, Note_on_c, 0, 43, 0
4, 114420, Note_on_c, 0, 53, 62
4, 114480, Note_on_c, 0, 53, 0
4, 114480, Note_on_c, 0, 43, 62
4, 114540, Note_on_c, 0, 43, 0
4, 114540, Note_on_c, 0, 53, 62
4, 114600, Note_on_c, 0, 53, 0
4, 114600, Note_on_c, 0, 43, 62
4, 114660, Note_on_c, 0, 43, 0
4, 114660, Note_on_c, 0, 53, 62
4, 114720, Note_on_c, 0, 53, 0
4, 114720, Note_on_c, 0, 43, 62
4, 114780, Note_on_c, 0, 43, 0
4, 114780, Note_on_c, 0, 53, 62
4, 114840, Note_on_c, 0, 53, 0
4, 114840, Note_on_c, 0, 43, 62
4, 114900, Note_on_c, 0, 43, 0
4, 114900, Note_on_c, 0, 53, 62
4, 114960, Note_on_c, 0, 53, 0
4, 114960, Note_on_c, 0, 43, 62
4, 115020, Note_on_c, 0, 43, 0
4, 115020, Note_on_c, 0, 53, 62
4, 115080, Note_on_c, 0, 53, 0
4, 115080, Note_on_c, 0, 43, 62
4, 115140, Note_on_c, 0, 43, 0
4, 115140, Control_c, 0, 64, 0
4, 115140, Note_on_c, 0, 53, 62
4, 115200, Note_on_c, 0, 53, 0
4, 115200, Control_c, 0, 64, 127
4, 115200, Note_on_c, 0, 43, 88
4, 115260, Note_on_c, 0, 43, 0
4, 115260, Note_on_c, 0, 52, 88
4, 115320, Note_on_c, 0, 52, 0
4, 115320, Note_on_c, 0, 43, 62
4, 115380, Note_on_c, 0, 43, 0
4, 115380, Note_on_c, 0, 52, 62
4, 115440, Note_on_c, 0, 52, 0
4, 115440, Note_on_c, 0, 43, 62
4, 115500, Note_on_c, 0, 43, 0
4, 115500, Note_on_c, 0, 52, 62
4, 115560, Note_on_c, 0, 52, 0
4, 115560, Note_on_c, 0, 43, 62
4, 115620, Note_on_c, 0, 43, 0
4, 115620, Note_on_c, 0, 52, 62
4, 115680, Note_on_c, 0, 52, 0
4, 115680, Note_on_c, 0, 43, 62
4, 115740, Note_on_c, 0, 43, 0
4, 115740, Note_on_c, 0, 52, 62
4, 115800, Note_on_c, 0, 52, 0
4, 115800, Note_on_c, 0, 43, 62
4, 115860, Note_on_c, 0, 43, 0
4, 115860, Note_on_c, 0, 52, 62
4, 115920, Note_on_c, 0, 52, 0
4, 115920, Note_on_c, 0, 43, 62
4, 115980, Note_on_c, 0, 43, 0
4, 115980, Note_on_c, 0, 52, 62
4, 116040, Note_on_c, 0, 52, 0
4, 116040, Note_on_c, 0, 43, 62
4, 116100, Note_on_c, 0, 43, 0
4, 116100, Control_c, 0, 64, 0
4, 116100, Note_on_c, 0, 52, 62
4, 116160, Note_on_c, 0, 52, 0
4, 116160, Control_c, 0, 64, 127
4, 116160, Note_on_c, 0, 43, 101
4, 116220, Note_on_c, 0, 43, 0
4, 116220, Note_on_c, 0, 51, 101
4, 116280, Note_on_c, 0, 51, 0
4, 116280, Note_on_c, 0, 43, 75
4, 116340, Note_on_c, 0, 43, 0
4, 116340, Note_on_c, 0, 51, 75
4, 116400, Note_on_c, 0, 51, 0
4, 116400, Note_on_c, 0, 43, 75
4, 116460, Note_on_c, 0, 43, 0
4, 116460, Note_on_c, 0, 51, 75
4, 116520, Note_on_c, 0, 51, 0
4, 116520, Note_on_c, 0, 43, 75
4, 116580, Note_on_c, 0, 43, 0
4, 116580, Note_on_c, 0, 51, 75
4, 116640, Note_on_c, 0, 51, 0
4, 116640, Note_on_c, 0, 43, 75
4, 116700, Note_on_c, 0, 43, 0
4, 116700, Note_on_c, 0, 51, 75
4, 116760, Note_on_c, 0, 51, 0
4, 116760, Note_on_c, 0, 43, 75
4, 116820, Note_on_c, 0, 43, 0
4, 116820, Note_on_c, 0, 51, 75
4, 116880, Note_on_c, 0, 51, 0
4, 116880, Note_on_c, 0, 43, 75
4, 116940, Note_on_c, 0, 43, 0
4, 116940, Note_on_c, 0, 51, 75
4, 117000, Note_on_c, 0, 51, 0
4, 117000, Note_on_c, 0, 43, 75
4, 117060, Note_on_c, 0, 43, 0
4, 117060, Control_c, 0, 64, 0
4, 117060, Note_on_c, 0, 51, 75
4, 117120, Note_on_c, 0, 51, 0
4, 117120, Control_c, 0, 64, 127
4, 117120, Note_on_c, 0, 43, 101
4, 117180, Note_on_c, 0, 43, 0
4, 117180, Note_on_c, 0, 50, 101
4, 117240, Note_on_c, 0, 50, 0
4, 117240, Note_on_c, 0, 43, 75
4, 117300, Note_on_c, 0, 43, 0
4, 117300, Note_on_c, 0, 50, 75
4, 117360, Note_on_c, 0, 50, 0
4, 117360, Note_on_c, 0, 43, 75
4, 117420, Note_on_c, 0, 43, 0
4, 117420, Note_on_c, 0, 50, 75
4, 117480, Note_on_c, 0, 50, 0
4, 117480, Note_on_c, 0, 43, 75
4, 117540, Note_on_c, 0, 43, 0
4, 117540, Note_on_c, 0, 50, 75
4, 117600, Note_on_c, 0, 50, 0
4, 117600, Note_on_c, 0, 43, 75
4, 117660, Note_on_c, 0, 43, 0
4, 117660, Note_on_c, 0, 50, 75
4, 117720, Note_on_c, 0, 50, 0
4, 117720, Note_on_c, 0, 43, 75
4, 117780, Note_on_c, 0, 43, 0
4, 117780, Note_on_c, 0, 50, 75
4, 117840, Note_on_c, 0, 50, 0
4, 117840, Note_on_c, 0, 43, 75
4, 117900, Note_on_c, 0, 43, 0
4, 117900, Note_on_c, 0, 50, 75
4, 117960, Note_on_c, 0, 50, 0
4, 117960, Note_on_c, 0, 43, 75
4, 118020, Note_on_c, 0, 43, 0
4, 118020, Control_c, 0, 64, 0
4, 118020, Note_on_c, 0, 50, 75
4, 118080, Note_on_c, 0, 50, 0
4, 118080, Control_c, 0, 64, 127
4, 118080, Note_on_c, 0, 43, 101
4, 118140, Note_on_c, 0, 43, 0
4, 118140, Note_on_c, 0, 51, 101
4, 118200, Note_on_c, 0, 51, 0
4, 118200, Note_on_c, 0, 43, 75
4, 118260, Note_on_c, 0, 43, 0
4, 118260, Note_on_c, 0, 51, 75
4, 118320, Note_on_c, 0, 51, 0
4, 118320, Note_on_c, 0, 43, 75
4, 118380, Note_on_c, 0, 43, 0
4, 118380, Note_on_c, 0, 51, 75
4, 118440, Note_on_c, 0, 51, 0
4, 118440, Note_on_c, 0, 43, 75
4, 118500, Note_on_c, 0, 43, 0
4, 118500, Note_on_c, 0, 51, 75
4, 118560, Note_on_c, 0, 51, 0
4, 118560, Note_on_c, 0, 43, 75
4, 118620, Note_on_c, 0, 43, 0
4, 118620, Note_on_c, 0, 51, 75
4, 118680, Note_on_c, 0, 51, 0
4, 118680, Note_on_c, 0, 43, 75
4, 118740, Note_on_c, 0, 43, 0
4, 118740, Note_on_c, 0, 51, 75
4, 118800, Note_on_c, 0, 51, 0
4, 118800, Note_on_c, 0, 43, 75
4, 118860, Note_on_c, 0, 43, 0
4, 118860, Note_on_c, 0, 51, 75
4, 118920, Note_on_c, 0, 51, 0
4, 118920, Note_on_c, 0, 43, 75
4, 118980, Note_on_c, 0, 43, 0
4, 118980, Control_c, 0, 64, 0
4, 118980, Note_on_c, 0, 51, 75
4, 119040, Note_on_c, 0, 51, 0
4, 119040, Control_c, 0, 64, 127
4, 119040, Note_on_c, 0, 43, 101
4, 119100, Note_on_c, 0, 43, 0
4, 119100, Note_on_c, 0, 50, 101
4, 119160, Note_on_c, 0, 50, 0
4, 119160, Note_on_c, 0, 43, 75
4, 119220, Note_on_c, 0, 43, 0
4, 119220, Note_on_c, 0, 50, 75
4, 119280, Note_on_c, 0, 50, 0
4, 119280, Note_on_c, 0, 43, 75
4, 119340, Note_on_c, 0, 43, 0
4, 119340, Note_on_c, 0, 50, 75
4, 119400, Note_on_c, 0, 50, 0
4, 119400, Note_on_c, 0, 43, 75
4, 119460, Note_on_c, 0, 43, 0
4, 119460, Note_on_c, 0, 50, 75
4, 119520, Note_on_c, 0, 50, 0
4, 119520, Note_on_c, 0, 43, 75
4, 119580, Note_on_c, 0, 43, 0
4, 119580, Note_on_c, 0, 50, 75
4, 119640, Note_on_c, 0, 50, 0
4, 119640, Note_on_c, 0, 43, 75
4, 119700, Note_on_c, 0, 43, 0
4, 119700, Note_on_c, 0, 50, 75
4, 119760, Note_on_c, 0, 50, 0
4, 119760, Note_on_c, 0, 43, 75
4, 119820, Note_on_c, 0, 43, 0
4, 119820, Note_on_c, 0, 50, 75
4, 119880, Note_on_c, 0, 50, 0
4, 119880, Note_on_c, 0, 43, 75
4, 119940, Note_on_c, 0, 43, 0
4, 119940, Control_c, 0, 64, 0
4, 119940, Note_on_c, 0, 50, 75
4, 120000, Note_on_c, 0, 50, 0
4, 120000, Control_c, 0, 64, 127
4, 120000, Note_on_c, 0, 43, 101
4, 120060, Note_on_c, 0, 43, 0
4, 120060, Note_on_c, 0, 51, 101
4, 120120, Note_on_c, 0, 51, 0
4, 120120, Note_on_c, 0, 43, 75
4, 120180, Note_on_c, 0, 43, 0
4, 120180, Note_on_c, 0, 51, 75
4, 120240, Note_on_c, 0, 51, 0
4, 120240, Note_on_c, 0, 43, 75
4, 120300, Note_on_c, 0, 43, 0
4, 120300, Note_on_c, 0, 51, 75
4, 120360, Note_on_c, 0, 51, 0
4, 120360, Note_on_c, 0, 43, 75
4, 120420, Note_on_c, 0, 43, 0
4, 120420, Note_on_c, 0, 51, 75
4, 120480, Note_on_c, 0, 51, 0
4, 120480, Note_on_c, 0, 43, 75
4, 120540, Note_on_c, 0, 43, 0
4, 120540, Note_on_c, 0, 51, 75
4, 120600, Note_on_c, 0, 51, 0
4, 120600, Note_on_c, 0, 43, 75
4, 120660, Note_on_c, 0, 43, 0
4, 120660, Note_on_c, 0, 51, 75
4, 120720, Note_on_c, 0, 51, 0
4, 120720, Note_on_c, 0, 43, 75
4, 120780, Note_on_c, 0, 43, 0
4, 120780, Note_on_c, 0, 51, 75
4, 120840, Note_on_c, 0, 51, 0
4, 120840, Note_on_c, 0, 43, 75
4, 120900, Note_on_c, 0, 43, 0
4, 120900, Control_c, 0, 64, 0
4, 120900, Note_on_c, 0, 51, 75
4, 120960, Note_on_c, 0, 51, 0
4, 120960, Control_c, 0, 64, 127
4, 120960, Note_on_c, 0, 43, 101
4, 121020, Note_on_c, 0, 43, 0
4, 121020, Note_on_c, 0, 50, 101
4, 121080, Note_on_c, 0, 50, 0
4, 121080, Note_on_c, 0, 43, 75
4, 121140, Note_on_c, 0, 43, 0
4, 121140, Note_on_c, 0, 50, 75
4, 121200, Note_on_c, 0, 50, 0
4, 121200, Note_on_c, 0, 43, 75
4, 121260, Note_on_c, 0, 43, 0
4, 121260, Note_on_c, 0, 50, 75
4, 121320, Note_on_c, 0, 50, 0
4, 121320, Note_on_c, 0, 43, 75
4, 121380, Note_on_c, 0, 43, 0
4, 121380, Note_on_c, 0, 50, 75
4, 121440, Note_on_c, 0, 50, 0
4, 121440, Note_on_c, 0, 43, 75
4, 121500, Note_on_c, 0, 43, 0
4, 121500, Note_on_c, 0, 50, 75
4, 121560, Note_on_c, 0, 50, 0
4, 121560, Note_on_c, 0, 43, 75
4, 121620, Note_on_c, 0, 43, 0
4, 121620, Note_on_c, 0, 50, 75
4, 121680, Note_on_c, 0, 50, 0
4, 121680, Note_on_c, 0, 43, 75
4, 121740, Note_on_c, 0, 43, 0
4, 121740, Note_on_c, 0, 50, 75
4, 121800, Note_on_c, 0, 50, 0
4, 121800, Note_on_c, 0, 43, 75
4, 121860, Note_on_c, 0, 43, 0
4, 121860, Control_c, 0, 64, 0
4, 121860, Note_on_c, 0, 50, 75
4, 121920, Note_on_c, 0, 50, 0
4, 121920, Control_c, 0, 64, 127
4, 121920, Note_on_c, 0, 43, 127
4, 121980, Note_on_c, 0, 43, 0
4, 121980, Note_on_c, 0, 47, 101
4, 122040, Note_on_c, 0, 47, 0
4, 122040, Note_on_c, 0, 43, 75
4, 122100, Note_on_c, 0, 43, 0
4, 122100, Note_on_c, 0, 47, 75
4, 122160, Note_on_c, 0, 47, 0
4, 122160, Note_on_c, 0, 43, 75
4, 122220, Note_on_c, 0, 43, 0
4, 122220, Note_on_c, 0, 47, 75
4, 122280, Note_on_c, 0, 47, 0
4, 122280, Note_on_c, 0, 43, 75
4, 122340, Note_on_c, 0, 43, 0
4, 122340, Note_on_c, 0, 47, 75
4, 122400, Note_on_c, 0, 47, 0
4, 122400, Note_on_c, 0, 43, 75
4, 122460, Note_on_c, 0, 43, 0
4, 122460, Note_on_c, 0, 47, 75
4, 122520, Note_on_c, 0, 47, 0
4, 122520, Note_on_c, 0, 43, 75
4, 122580, Note_on_c, 0, 43, 0
4, 122580, Note_on_c, 0, 47, 75
4, 122640, Note_on_c, 0, 47, 0
4, 122640, Note_on_c, 0, 43, 75
4, 122700, Note_on_c, 0, 43, 0
4, 122700, Note_on_c, 0, 47, 75
4, 122760, Note_on_c, 0, 47, 0
4, 122760, Note_on_c, 0, 43, 75
4, 122820, Note_on_c, 0, 43, 0
4, 122820, Control_c, 0, 64, 0
4, 122820, Note_on_c, 0, 47, 75
4, 122880, Note_on_c, 0, 47, 0
4, 122880, Control_c, 0, 64, 127
4, 122880, Note_on_c, 0, 38, 101
4, 122940, Note_on_c, 0, 38, 0
4, 122940, Note_on_c, 0, 43, 101
4, 123000, Note_on_c, 0, 43, 0
4, 123000, Note_on_c, 0, 38, 75
4, 123060, Note_on_c, 0, 38, 0
4, 123060, Note_on_c, 0, 43, 75
4, 123120, Note_on_c, 0, 43, 0
4, 123120, Note_on_c, 0, 38, 75
4, 123180, Note_on_c, 0, 38, 0
4, 123180, Note_on_c, 0, 43, 75
4, 123240, Note_on_c, 0, 43, 0
4, 123240, Note_on_c, 0, 38, 75
4, 123300, Note_on_c, 0, 38, 0
4, 123300, Note_on_c, 0, 43, 75
4, 123360, Note_on_c, 0, 43, 0
4, 123360, Note_on_c, 0, 38, 75
4, 123420, Note_on_c, 0, 38, 0
4, 123420, Note_on_c, 0, 43, 75
4, 123480, Note_on_c, 0, 43, 0
4, 123480, Note_on_c, 0, 38, 75
4, 123540, Note_on_c, 0, 38, 0
4, 123540, Note_on_c, 0, 43, 75
4, 123600, Note_on_c, 0, 43, 0
4, 123600, Note_on_c, 0, 38, 75
4, 123660, Note_on_c, 0, 38, 0
4, 123660, Note_on_c, 0, 43, 75
4, 123720, Note_on_c, 0, 43, 0
4, 123720, Note_on_c, 0, 38, 75
4, 123780, Note_on_c, 0, 38, 0
4, 123780, Control_c, 0, 64, 0
4, 123780, Note_on_c, 0, 43, 75
4, 123840, Note_on_c, 0, 43, 0
4, 123840, Control_c, 0, 64, 127
4, 123840, Note_on_c, 0, 35, 101
4, 123900, Note_on_c, 0, 35, 0
4, 123900, Note_on_c, 0, 38, 101
4, 123960, Note_on_c, 0, 38, 0
4, 123960, Note_on_c, 0, 35, 75
4, 124020, Note_on_c, 0, 35, 0
4, 124020, Note_on_c, 0, 38, 75
4, 124080, Note_on_c, 0, 38, 0
4, 124080, Note_on_c, 0, 35, 75
4, 124140, Note_on_c, 0, 35, 0
4, 124140, Note_on_c, 0, 38, 75
4, 124200, Note_on_c, 0, 38, 0
4, 124200, Note_on_c, 0, 35, 75
4, 124260, Note_on_c, 0, 35, 0
4, 124260, Note_on_c, 0, 38, 75
4, 124320, Note_on_c, 0, 38, 0
4, 124320, Note_on_c, 0, 35, 75
4, 124380, Note_on_c, 0, 35, 0
4, 124380, Note_on_c, 0, 38, 75
4, 124440, Note_on_c, 0, 38, 0
4, 124440, Note_on_c, 0, 35, 75
4, 124500, Note_on_c, 0, 35, 0
4, 124500, Note_on_c, 0, 38, 75
4, 124560, Note_on_c, 0, 38, 0
4, 124560, Note_on_c, 0, 35, 75
4, 124620, Note_on_c, 0, 35, 0
4, 124620, Note_on_c, 0, 38, 75
4, 124680, Note_on_c, 0, 38, 0
4, 124680, Note_on_c, 0, 35, 75
4, 124740, Note_on_c, 0, 35, 0
4, 124740, Control_c, 0, 64, 127
4, 124740, Note_on_c, 0, 38, 75
4, 124800, Note_on_c, 0, 38, 0
4, 124800, Note_on_c, 0, 31, 88
4, 124800, Note_on_c, 0, 36, 88
4, 124800, Note_on_c, 0, 39, 88
4, 124800, Note_on_c, 0, 43, 88
4, 124959, Note_on_c, 0, 43, 0
4, 124959, Note_on_c, 0, 31, 0
4, 124959, Note_on_c, 0, 36, 0
4, 124959, Note_on_c, 0, 39, 0
4, 124959, Note_on_c, 0, 43, 49
4, 124959, Note_on_c, 0, 48, 49
4, 124959, Note_on_c, 0, 51, 49
4, 125120, Note_on_c, 0, 51, 0
4, 125120, Note_on_c, 0, 48, 0
4, 125120, Note_on_c, 0, 43, 0
4, 125120, Note_on_c, 0, 43, 49
4, 125120, Note_on_c, 0, 48, 49
4, 125120, Note_on_c, 0, 51, 49
4, 125280, Note_on_c, 0, 51, 0
4, 125280, Note_on_c, 0, 48, 0
4, 125280, Note_on_c, 0, 43, 0
4, 125280, Note_on_c, 0, 43, 49
4, 125280, Note_on_c, 0, 48, 49
4, 125280, Note_on_c, 0, 51, 49
4, 125280, Note_on_c, 0, 55, 49
4, 125439, Note_on_c, 0, 55, 0
4, 125439, Note_on_c, 0, 43, 0
4, 125439, Note_on_c, 0, 48, 0
4, 125439, Note_on_c, 0, 51, 0
4, 125439, Note_on_c, 0, 43, 49
4, 125439, Note_on_c, 0, 48, 49
4, 125439, Note_on_c, 0, 51, 49
4, 125439, Note_on_c, 0, 55, 49
4, 125600, Note_on_c, 0, 55, 0
4, 125600, Note_on_c, 0, 43, 0
4, 125600, Note_on_c, 0, 48, 0
4, 125600, Note_on_c, 0, 51, 0
4, 125600, Note_on_c, 0, 43, 49
4, 125600, Note_on_c, 0, 48, 49
4, 125600, Note_on_c, 0, 51, 49
4, 125600, Note_on_c, 0, 55, 49
4, 125760, Note_on_c, 0, 55, 0
4, 125760, Note_on_c, 0, 43, 0
4, 125760, Note_on_c, 0, 48, 0
4, 125760, Note_on_c, 0, 51, 0
4, 125760, Note_on_c, 0, 43, 49
4, 125760, Note_on_c, 0, 48, 49
4, 125760, Note_on_c, 0, 51, 49
4, 125760, Note_on_c, 0, 55, 49
4, 125880, Note_on_c, 0, 55, 0
4, 125880, Note_on_c, 0, 43, 0
4, 125880, Note_on_c, 0, 48, 0
4, 125880, Note_on_c, 0, 51, 0
4, 125880, Note_on_c, 0, 43, 49
4, 125880, Note_on_c, 0, 48, 49
4, 125880, Note_on_c, 0, 51, 49
4, 125880, Note_on_c, 0, 55, 49
4, 126000, Note_on_c, 0, 55, 0
4, 126000, Note_on_c, 0, 43, 0
4, 126000, Note_on_c, 0, 48, 0
4, 126000, Note_on_c, 0, 51, 0
4, 126000, Note_on_c, 0, 43, 49
4, 126000, Note_on_c, 0, 48, 49
4, 126000, Note_on_c, 0, 51, 49
4, 126000, Note_on_c, 0, 55, 49
4, 126120, Note_on_c, 0, 55, 0
4, 126120, Note_on_c, 0, 43, 0
4, 126120, Note_on_c, 0, 48, 0
4, 126120, Note_on_c, 0, 51, 0
4, 126120, Note_on_c, 0, 43, 49
4, 126120, Note_on_c, 0, 48, 49
4, 126120, Note_on_c, 0, 51, 49
4, 126120, Note_on_c, 0, 55, 49
4, 126240, Note_on_c, 0, 55, 0
4, 126240, Note_on_c, 0, 43, 0
4, 126240, Note_on_c, 0, 48, 0
4, 126240, Note_on_c, 0, 51, 0
4, 126240, Note_on_c, 0, 43, 49
4, 126240, Note_on_c, 0, 48, 49
4, 126240, Note_on_c, 0, 51, 49
4, 126240, Note_on_c, 0, 55, 49
4, 126360, Note_on_c, 0, 55, 0
4, 126360, Note_on_c, 0, 43, 0
4, 126360, Note_on_c, 0, 48, 0
4, 126360, Note_on_c, 0, 51, 0
4, 126360, Note_on_c, 0, 43, 49
4, 126360, Note_on_c, 0, 48, 49
4, 126360, Note_on_c, 0, 51, 49
4, 126360, Note_on_c, 0, 55, 49
4, 126480, Note_on_c, 0, 55, 0
4, 126480, Note_on_c, 0, 43, 0
4, 126480, Note_on_c, 0, 48, 0
4, 126480, Note_on_c, 0, 51, 0
4, 126480, Note_on_c, 0, 43, 49
4, 126480, Note_on_c, 0, 48, 49
4, 126480, Note_on_c, 0, 51, 49
4, 126480, Note_on_c, 0, 55, 49
4, 126600, Note_on_c, 0, 55, 0
4, 126600, Note_on_c, 0, 43, 0
4, 126600, Note_on_c, 0, 48, 0
4, 126600, Note_on_c, 0, 51, 0
4, 126600, Note_on_c, 0, 43, 49
4, 126600, Note_on_c, 0, 48, 49
4, 126600, Note_on_c, 0, 51, 49
4, 126600, Note_on_c, 0, 55, 49
4, 126720, Note_on_c, 0, 55, 0
4, 126720, Note_on_c, 0, 43, 0
4, 126720, Note_on_c, 0, 48, 0
4, 126720, Note_on_c, 0, 51, 0
4, 126720, Note_on_c, 0, 43, 49
4, 126720, Note_on_c, 0, 48, 49
4, 126720, Note_on_c, 0, 51, 49
4, 126720, Note_on_c, 0, 55, 49
4, 126800, Note_on_c, 0, 55, 0
4, 126800, Note_on_c, 0, 43, 0
4, 126800, Note_on_c, 0, 48, 0
4, 126800, Note_on_c, 0, 51, 0
4, 126800, Note_on_c, 0, 43, 49
4, 126800, Note_on_c, 0, 48, 49
4, 126800, Note_on_c, 0, 51, 49
4, 126800, Note_on_c, 0, 55, 49
4, 126879, Note_on_c, 0, 55, 0
4, 126879, Note_on_c, 0, 43, 0
4, 126879, Note_on_c, 0, 48, 0
4, 126879, Note_on_c, 0, 51, 0
4, 126879, Note_on_c, 0, 43, 49
4, 126879, Note_on_c, 0, 48, 49
4, 126879, Note_on_c, 0, 51, 49
4, 126879, Note_on_c, 0, 55, 49
4, 126960, Note_on_c, 0, 55, 0
4, 126960, Note_on_c, 0, 43, 0
4, 126960, Note_on_c, 0, 48, 0
4, 126960, Note_on_c, 0, 51, 0
4, 126960, Note_on_c, 0, 43, 62
4, 126960, Note_on_c, 0, 48, 62
4, 126960, Note_on_c, 0, 51, 62
4, 126960, Note_on_c, 0, 55, 62
4, 127040, Note_on_c, 0, 55, 0
4, 127040, Note_on_c, 0, 43, 0
4, 127040, Note_on_c, 0, 48, 0
4, 127040, Note_on_c, 0, 51, 0
4, 127040, Note_on_c, 0, 43, 62
4, 127040, Note_on_c, 0, 48, 62
4, 127040, Note_on_c, 0, 51, 62
4, 127040, Note_on_c, 0, 55, 62
4, 127119, Note_on_c, 0, 55, 0
4, 127119, Note_on_c, 0, 43, 0
4, 127119, Note_on_c, 0, 48, 0
4, 127119, Note_on_c, 0, 51, 0
4, 127119, Note_on_c, 0, 43, 62
4, 127119, Note_on_c, 0, 48, 62
4, 127119, Note_on_c, 0, 51, 62
4, 127119, Note_on_c, 0, 55, 62
4, 127200, Note_on_c, 0, 55, 0
4, 127200, Note_on_c, 0, 43, 0
4, 127200, Note_on_c, 0, 48, 0
4, 127200, Note_on_c, 0, 51, 0
4, 127200, Note_on_c, 0, 43, 75
4, 127200, Note_on_c, 0, 48, 75
4, 127200, Note_on_c, 0, 51, 75
4, 127200, Note_on_c, 0, 55, 75
4, 127280, Note_on_c, 0, 55, 0
4, 127280, Note_on_c, 0, 43, 0
4, 127280, Note_on_c, 0, 48, 0
4, 127280, Note_on_c, 0, 51, 0
4, 127280, Note_on_c, 0, 55, 75
4, 127280, Note_on_c, 0, 60, 75
4, 127280, Note_on_c, 0, 63, 75
4, 127359, Note_on_c, 0, 63, 0
4, 127359, Note_on_c, 0, 60, 0
4, 127359, Note_on_c, 0, 55, 0
4, 127359, Note_on_c, 0, 55, 75
4, 127359, Note_on_c, 0, 60, 75
4, 127359, Note_on_c, 0, 63, 75
4, 127440, Note_on_c, 0, 63, 0
4, 127440, Note_on_c, 0, 60, 0
4, 127440, Note_on_c, 0, 55, 0
4, 127440, Note_on_c, 0, 55, 75
4, 127440, Note_on_c, 0, 60, 75
4, 127440, Note_on_c, 0, 63, 75
4, 127520, Note_on_c, 0, 63, 0
4, 127520, Note_on_c, 0, 60, 0
4, 127520, Note_on_c, 0, 55, 0
4, 127520, Note_on_c, 0, 55, 75
4, 127520, Note_on_c, 0, 60, 75
4, 127520, Note_on_c, 0, 63, 75
4, 127599, Note_on_c, 0, 63, 0
4, 127599, Note_on_c, 0, 60, 0
4, 127599, Note_on_c, 0, 55, 0
4, 127599, Note_on_c, 0, 55, 75
4, 127599, Note_on_c, 0, 60, 75
4, 127599, Note_on_c, 0, 63, 75
4, 127680, Note_on_c, 0, 63, 0
4, 127680, Note_on_c, 0, 60, 0
4, 127680, Note_on_c, 0, 55, 0
4, 127680, Note_on_c, 0, 55, 75
4, 127680, Note_on_c, 0, 60, 75
4, 127680, Note_on_c, 0, 63, 75
4, 127740, Note_on_c, 0, 63, 0
4, 127740, Note_on_c, 0, 60, 0
4, 127740, Note_on_c, 0, 55, 0
4, 127740, Note_on_c, 0, 55, 75
4, 127740, Note_on_c, 0, 60, 75
4, 127740, Note_on_c, 0, 63, 75
4, 127800, Note_on_c, 0, 63, 0
4, 127800, Note_on_c, 0, 60, 0
4, 127800, Note_on_c, 0, 55, 0
4, 127800, Note_on_c, 0, 55, 75
4, 127800, Note_on_c, 0, 60, 75
4, 127800, Note_on_c, 0, 63, 75
4, 127860, Note_on_c, 0, 63, 0
4, 127860, Note_on_c, 0, 60, 0
4, 127860, Note_on_c, 0, 55, 0
4, 127860, Note_on_c, 0, 55, 75
4, 127860, Note_on_c, 0, 60, 75
4, 127860, Note_on_c, 0, 63, 75
4, 127920, Note_on_c, 0, 63, 0
4, 127920, Note_on_c, 0, 60, 0
4, 127920, Note_on_c, 0, 55, 0
4, 127920, Note_on_c, 0, 55, 75
4, 127920, Note_on_c, 0, 60, 75
4, 127920, Note_on_c, 0, 63, 75
4, 128160, Note_on_c, 0, 63, 0
4, 128160, Note_on_c, 0, 60, 0
4, 128160, Note_on_c, 0, 55, 0
4, 128160, Control_c, 0, 64, 127
4, 128160, Note_on_c, 0, 55, 101
4, 128220, Note_on_c, 0, 55, 0
4, 128220, Note_on_c, 0, 60, 101
4, 128280, Note_on_c, 0, 60, 0
4, 128280, Note_on_c, 0, 63, 101
4, 128340, Note_on_c, 0, 63, 0
4, 128340, Note_on_c, 0, 67, 101
4, 128400, Note_on_c, 0, 67, 0
4, 128400, Control_c, 0, 64, 0
4, 128640, Control_c, 0, 64, 127
4, 128640, Note_on_c, 0, 55, 88
4, 128720, Note_on_c, 0, 55, 0
4, 128720, Note_on_c, 0, 60, 88
4, 128799, Note_on_c, 0, 60, 0
4, 128799, Note_on_c, 0, 63, 88
4, 128880, Note_on_c, 0, 63, 0
4, 128880, Note_on_c, 0, 67, 88
4, 128960, Note_on_c, 0, 67, 0
4, 128960, Note_on_c, 0, 63, 88
4, 129039, Note_on_c, 0, 63, 0
4, 129039, Note_on_c, 0, 60, 88
4, 129120, Note_on_c, 0, 60, 0
4, 129120, Note_on_c, 0, 55, 88
4, 129200, Note_on_c, 0, 55, 0
4, 129200, Note_on_c, 0, 60, 88
4, 129279, Note_on_c, 0, 60, 0
4, 129279, Note_on_c, 0, 63, 88
4, 129360, Note_on_c, 0, 63, 0
4, 129360, Note_on_c, 0, 67, 88
4, 129440, Note_on_c, 0, 67, 0
4, 129440, Note_on_c, 0, 63, 88
4, 129519, Note_on_c, 0, 63, 0
4, 129519, Note_on_c, 0, 60, 88
4, 129600, Note_on_c, 0, 60, 0
4, 129600, Note_on_c, 0, 55, 88
4, 129680, Note_on_c, 0, 55, 0
4, 129680, Note_on_c, 0, 60, 88
4, 129759, Note_on_c, 0, 60, 0
4, 129759, Note_on_c, 0, 63, 88
4, 129840, Note_on_c, 0, 63, 0
4, 129840, Note_on_c, 0, 67, 88
4, 129920, Note_on_c, 0, 67, 0
4, 129920, Note_on_c, 0, 63, 88
4, 129999, Note_on_c, 0, 63, 0
4, 129999, Note_on_c, 0, 60, 88
4, 130080, Note_on_c, 0, 60, 0
4, 130080, Note_on_c, 0, 55, 88
4, 130160, Note_on_c, 0, 55, 0
4, 130160, Note_on_c, 0, 60, 88
4, 130239, Note_on_c, 0, 60, 0
4, 130239, Note_on_c, 0, 63, 88
4, 130320, Note_on_c, 0, 63, 0
4, 130320, Note_on_c, 0, 67, 88
4, 130400, Note_on_c, 0, 67, 0
4, 130400, Note_on_c, 0, 63, 88
4, 130479, Note_on_c, 0, 63, 0
4, 130479, Control_c, 0, 64, 0
4, 130479, Note_on_c, 0, 60, 88
4, 130560, Note_on_c, 0, 60, 0
4, 130560, Control_c, 0, 64, 127
4, 130560, Note_on_c, 0, 55, 88
4, 130640, Note_on_c, 0, 55, 0
4, 130640, Note_on_c, 0, 60, 88
4, 130719, Note_on_c, 0, 60, 0
4, 130719, Note_on_c, 0, 63, 88
4, 130800, Note_on_c, 0, 63, 0
4, 130800, Note_on_c, 0, 67, 88
4, 130880, Note_on_c, 0, 67, 0
4, 130880, Note_on_c, 0, 63, 88
4, 130959, Note_on_c, 0, 63, 0
4, 130959, Note_on_c, 0, 60, 88
4, 131040, Note_on_c, 0, 60, 0
4, 131040, Note_on_c, 0, 55, 88
4, 131120, Note_on_c, 0, 55, 0
4, 131120, Note_on_c, 0, 60, 88
4, 131199, Note_on_c, 0, 60, 0
4, 131199, Note_on_c, 0, 63, 88
4, 131280, Note_on_c, 0, 63, 0
4, 131280, Note_on_c, 0, 67, 88
4, 131360, Note_on_c, 0, 67, 0
4, 131360, Note_on_c, 0, 63, 88
4, 131439, Note_on_c, 0, 63, 0
4, 131439, Note_on_c, 0, 60, 88
4, 131520, Note_on_c, 0, 60, 0
4, 131520, Note_on_c, 0, 55, 88
4, 131600, Note_on_c, 0, 55, 0
4, 131600, Note_on_c, 0, 60, 88
4, 131679, Note_on_c, 0, 60, 0
4, 131679, Note_on_c, 0, 63, 88
4, 131760, Note_on_c, 0, 63, 0
4, 131760, Note_on_c, 0, 67, 88
4, 131840, Note_on_c, 0, 67, 0
4, 131840, Note_on_c, 0, 63, 88
4, 131919, Note_on_c, 0, 63, 0
4, 131919, Note_on_c, 0, 60, 88
4, 132000, Note_on_c, 0, 60, 0
4, 132000, Note_on_c, 0, 55, 88
4, 132080, Note_on_c, 0, 55, 0
4, 132080, Note_on_c, 0, 60, 88
4, 132159, Note_on_c, 0, 60, 0
4, 132159, Note_on_c, 0, 63, 88
4, 132240, Note_on_c, 0, 63, 0
4, 132240, Note_on_c, 0, 67, 88
4, 132320, Note_on_c, 0, 67, 0
4, 132320, Note_on_c, 0, 63, 88
4, 132399, Note_on_c, 0, 63, 0
4, 132399, Control_c, 0, 64, 0
4, 132399, Note_on_c, 0, 60, 88
4, 132480, Note_on_c, 0, 60, 0
4, 132480, Control_c, 0, 64, 127
4, 132480, Note_on_c, 0, 55, 88
4, 132560, Note_on_c, 0, 55, 0
4, 132560, Note_on_c, 0, 59, 88
4, 132639, Note_on_c, 0, 59, 0
4, 132639, Note_on_c, 0, 62, 88
4, 132720, Note_on_c, 0, 62, 0
4, 132720, Note_on_c, 0, 67, 88
4, 132800, Note_on_c, 0, 67, 0
4, 132800, Note_on_c, 0, 62, 88
4, 132879, Note_on_c, 0, 62, 0
4, 132879, Note_on_c, 0, 59, 88
4, 132960, Note_on_c, 0, 59, 0
4, 132960, Note_on_c, 0, 55, 88
4, 133040, Note_on_c, 0, 55, 0
4, 133040, Note_on_c, 0, 59, 88
4, 133119, Note_on_c, 0, 59, 0
4, 133119, Note_on_c, 0, 62, 88
4, 133200, Note_on_c, 0, 62, 0
4, 133200, Note_on_c, 0, 67, 88
4, 133280, Note_on_c, 0, 67, 0
4, 133280, Note_on_c, 0, 62, 88
4, 133359, Note_on_c, 0, 62, 0
4, 133359, Note_on_c, 0, 59, 88
4, 133440, Note_on_c, 0, 59, 0
4, 133440, Note_on_c, 0, 50, 88
4, 133520, Note_on_c, 0, 50, 0
4, 133520, Note_on_c, 0, 55, 88
4, 133599, Note_on_c, 0, 55, 0
4, 133599, Note_on_c, 0, 59, 88
4, 133680, Note_on_c, 0, 59, 0
4, 133680, Note_on_c, 0, 62, 88
4, 133760, Note_on_c, 0, 62, 0
4, 133760, Note_on_c, 0, 59, 88
4, 133839, Note_on_c, 0, 59, 0
4, 133839, Note_on_c, 0, 55, 88
4, 133920, Note_on_c, 0, 55, 0
4, 133920, Note_on_c, 0, 47, 88
4, 134000, Note_on_c, 0, 47, 0
4, 134000, Note_on_c, 0, 50, 88
4, 134079, Note_on_c, 0, 50, 0
4, 134079, Note_on_c, 0, 55, 88
4, 134160, Note_on_c, 0, 55, 0
4, 134160, Note_on_c, 0, 59, 88
4, 134240, Note_on_c, 0, 59, 0
4, 134240, Note_on_c, 0, 55, 88
4, 134319, Note_on_c, 0, 55, 0
4, 134319, Control_c, 0, 64, 0
4, 134319, Note_on_c, 0, 50, 88
4, 134400, Note_on_c, 0, 50, 0
4, 134400, Control_c, 0, 64, 127
4, 134400, Note_on_c, 0, 43, 88
4, 134480, Note_on_c, 0, 43, 0
4, 134480, Note_on_c, 0, 47, 88
4, 134559, Note_on_c, 0, 47, 0
4, 134559, Note_on_c, 0, 50, 88
4, 134640, Note_on_c, 0, 50, 0
4, 134640, Note_on_c, 0, 55, 88
4, 134720, Note_on_c, 0, 55, 0
4, 134720, Note_on_c, 0, 50, 88
4, 134799, Note_on_c, 0, 50, 0
4, 134799, Note_on_c, 0, 47, 88
4, 134880, Note_on_c, 0, 47, 0
4, 134880, Note_on_c, 0, 43, 88
4, 134960, Note_on_c, 0, 43, 0
4, 134960, Note_on_c, 0, 47, 88
4, 135039, Note_on_c, 0, 47, 0
4, 135039, Note_on_c, 0, 50, 88
4, 135120, Note_on_c, 0, 50, 0
4, 135120, Note_on_c, 0, 55, 88
4, 135200, Note_on_c, 0, 55, 0
4, 135200, Note_on_c, 0, 50, 88
4, 135279, Note_on_c, 0, 50, 0
4, 135279, Note_on_c, 0, 47, 88
4, 135360, Note_on_c, 0, 47, 0
4, 135360, Note_on_c, 0, 38, 88
4, 135440, Note_on_c, 0, 38, 0
4, 135440, Note_on_c, 0, 43, 88
4, 135519, Note_on_c, 0, 43, 0
4, 135519, Note_on_c, 0, 47, 88
4, 135600, Note_on_c, 0, 47, 0
4, 135600, Note_on_c, 0, 50, 88
4, 135680, Note_on_c, 0, 50, 0
4, 135680, Note_on_c, 0, 47, 88
4, 135759, Note_on_c, 0, 47, 0
4, 135759, Note_on_c, 0, 43, 88
4, 135840, Note_on_c, 0, 43, 0
4, 135840, Note_on_c, 0, 35, 88
4, 135920, Note_on_c, 0, 35, 0
4, 135920, Note_on_c, 0, 38, 88
4, 135999, Note_on_c, 0, 38, 0
4, 135999, Note_on_c, 0, 43, 88
4, 136080, Note_on_c, 0, 43, 0
4, 136080, Note_on_c, 0, 47, 88
4, 136160, Note_on_c, 0, 47, 0
4, 136160, Note_on_c, 0, 43, 88
4, 136239, Note_on_c, 0, 43, 0
4, 136239, Control_c, 0, 64, 0
4, 136239, Note_on_c, 0, 38, 88
4, 136320, Note_on_c, 0, 38, 0
4, 136320, Control_c, 0, 64, 127
4, 136320, Note_on_c, 0, 31, 88
4, 136400, Note_on_c, 0, 31, 0
4, 136400, Note_on_c, 0, 35, 88
4, 136479, Note_on_c, 0, 35, 0
4, 136479, Note_on_c, 0, 38, 88
4, 136560, Note_on_c, 0, 38, 0
4, 136560, Note_on_c, 0, 43, 88
4, 136640, Note_on_c, 0, 43, 0
4, 136640, Note_on_c, 0, 38, 88
4, 136719, Note_on_c, 0, 38, 0
4, 136719, Note_on_c, 0, 35, 88
4, 136800, Note_on_c, 0, 35, 0
4, 136800, Note_on_c, 0, 31, 88
4, 136880, Note_on_c, 0, 31, 0
4, 136880, Note_on_c, 0, 35, 88
4, 136959, Note_on_c, 0, 35, 0
4, 136959, Note_on_c, 0, 38, 88
4, 137040, Note_on_c, 0, 38, 0
4, 137040, Note_on_c, 0, 43, 88
4, 137120, Note_on_c, 0, 43, 0
4, 137120, Note_on_c, 0, 38, 88
4, 137199, Note_on_c, 0, 38, 0
4, 137199, Note_on_c, 0, 35, 88
4, 137280, Note_on_c, 0, 35, 0
4, 137280, Note_on_c, 0, 31, 88
4, 137360, Note_on_c, 0, 31, 0
4, 137360, Note_on_c, 0, 35, 88
4, 137439, Note_on_c, 0, 35, 0
4, 137439, Note_on_c, 0, 38, 88
4, 137520, Note_on_c, 0, 38, 0
4, 137520, Note_on_c, 0, 43, 88
4, 137600, Note_on_c, 0, 43, 0
4, 137600, Note_on_c, 0, 38, 88
4, 137679, Note_on_c, 0, 38, 0
4, 137679, Note_on_c, 0, 35, 88
4, 137760, Note_on_c, 0, 35, 0
4, 137760, Note_on_c, 0, 31, 88
4, 137840, Note_on_c, 0, 31, 0
4, 137840, Note_on_c, 0, 35, 88
4, 137919, Note_on_c, 0, 35, 0
4, 137919, Note_on_c, 0, 38, 88
4, 138000, Note_on_c, 0, 38, 0
4, 138000, Note_on_c, 0, 43, 88
4, 138080, Note_on_c, 0, 43, 0
4, 138080, Note_on_c, 0, 38, 88
4, 138159, Note_on_c, 0, 38, 0
4, 138159, Control_c, 0, 64, 0
4, 138159, Note_on_c, 0, 35, 88
4, 138240, Note_on_c, 0, 35, 0
4, 138240, Control_c, 0, 64, 127
4, 138240, Note_on_c, 0, 31, 114
4, 138300, Note_on_c, 0, 31, 0
4, 138300, Note_on_c, 0, 43, 114
4, 138360, Note_on_c, 0, 43, 0
4, 138360, Note_on_c, 0, 31, 88
4, 138420, Note_on_c, 0, 31, 0
4, 138420, Note_on_c, 0, 43, 88
4, 138480, Note_on_c, 0, 43, 0
4, 138480, Note_on_c, 0, 31, 88
4, 138540, Note_on_c, 0, 31, 0
4, 138540, Note_on_c, 0, 43, 88
4, 138600, Note_on_c, 0, 43, 0
4, 138600, Note_on_c, 0, 31, 88
4, 138660, Note_on_c, 0, 31, 0
4, 138660, Note_on_c, 0, 43, 88
4, 138720, Note_on_c, 0, 43, 0
4, 138720, Note_on_c, 0, 31, 88
4, 138780, Note_on_c, 0, 31, 0
4, 138780, Note_on_c, 0, 43, 88
4, 138840, Note_on_c, 0, 43, 0
4, 138840, Note_on_c, 0, 31, 88
4, 138900, Note_on_c, 0, 31, 0
4, 138900, Note_on_c, 0, 43, 88
4, 138960, Note_on_c, 0, 43, 0
4, 138960, Note_on_c, 0, 31, 88
4, 139020, Note_on_c, 0, 31, 0
4, 139020, Note_on_c, 0, 43, 88
4, 139080, Note_on_c, 0, 43, 0
4, 139080, Note_on_c, 0, 31, 88
4, 139140, Note_on_c, 0, 31, 0
4, 139140, Note_on_c, 0, 43, 88
4, 139200, Note_on_c, 0, 43, 0
4, 139200, Note_on_c, 0, 31, 88
4, 139260, Note_on_c, 0, 31, 0
4, 139260, Note_on_c, 0, 43, 88
4, 139320, Note_on_c, 0, 43, 0
4, 139320, Note_on_c, 0, 31, 88
4, 139380, Note_on_c, 0, 31, 0
4, 139380, Note_on_c, 0, 43, 88
4, 139440, Note_on_c, 0, 43, 0
4, 139440, Note_on_c, 0, 31, 88
4, 139500, Note_on_c, 0, 31, 0
4, 139500, Note_on_c, 0, 43, 88
4, 139560, Note_on_c, 0, 43, 0
4, 139560, Note_on_c, 0, 31, 88
4, 139620, Note_on_c, 0, 31, 0
4, 139620, Note_on_c, 0, 43, 88
4, 139680, Note_on_c, 0, 43, 0
4, 139680, Note_on_c, 0, 31, 88
4, 139740, Note_on_c, 0, 31, 0
4, 139740, Note_on_c, 0, 43, 88
4, 139800, Note_on_c, 0, 43, 0
4, 139800, Note_on_c, 0, 31, 88
4, 139860, Note_on_c, 0, 31, 0
4, 139860, Note_on_c, 0, 43, 88
4, 139920, Note_on_c, 0, 43, 0
4, 139920, Note_on_c, 0, 31, 88
4, 139980, Note_on_c, 0, 31, 0
4, 139980, Note_on_c, 0, 43, 88
4, 140040, Note_on_c, 0, 43, 0
4, 140040, Note_on_c, 0, 31, 88
4, 140100, Note_on_c, 0, 31, 0
4, 140100, Note_on_c, 0, 43, 88
4, 140160, Note_on_c, 0, 43, 0
4, 140160, Note_on_c, 0, 31, 88
4, 140220, Note_on_c, 0, 31, 0
4, 140220, Note_on_c, 0, 43, 88
4, 140280, Note_on_c, 0, 43, 0
4, 140280, Note_on_c, 0, 31, 88
4, 140340, Note_on_c, 0, 31, 0
4, 140340, Note_on_c, 0, 43, 88
4, 140400, Note_on_c, 0, 43, 0
4, 140400, Note_on_c, 0, 31, 88
4, 140460, Note_on_c, 0, 31, 0
4, 140460, Note_on_c, 0, 43, 88
4, 140520, Note_on_c, 0, 43, 0
4, 140520, Note_on_c, 0, 31, 88
4, 140580, Note_on_c, 0, 31, 0
4, 140580, Note_on_c, 0, 43, 88
4, 140640, Note_on_c, 0, 43, 0
4, 140640, Note_on_c, 0, 31, 88
4, 140700, Note_on_c, 0, 31, 0
4, 140700, Note_on_c, 0, 43, 88
4, 140760, Note_on_c, 0, 43, 0
4, 140760, Note_on_c, 0, 31, 88
4, 140820, Note_on_c, 0, 31, 0
4, 140820, Note_on_c, 0, 43, 88
4, 140880, Note_on_c, 0, 43, 0
4, 140880, Note_on_c, 0, 31, 88
4, 140940, Note_on_c, 0, 31, 0
4, 140940, Note_on_c, 0, 43, 88
4, 141000, Note_on_c, 0, 43, 0
4, 141000, Note_on_c, 0, 31, 88
4, 141060, Note_on_c, 0, 31, 0
4, 141060, Note_on_c, 0, 43, 88
4, 141120, Note_on_c, 0, 43, 0
4, 141120, Control_c, 0, 64, 0
4, 141120, Note_on_c, 0, 31, 114
4, 141600, Note_on_c, 0, 31, 0
4, 141600, End_track
5, 0, Start_track
5, 0, Title_t, "Grand Piano"
5, 0, Program_c, 0, 0
5, 0, Control_c, 0, 7, 115
5, 0, Control_c, 0, 10, 47
5, 7680, Control_c, 0, 64, 127
5, 7680, Note_on_c, 0, 43, 75
5, 7680, Note_on_c, 0, 47, 75
5, 7680, Note_on_c, 0, 50, 75
5, 7920, Note_on_c, 0, 50, 0
5, 7920, Note_on_c, 0, 47, 0
5, 7920, Note_on_c, 0, 43, 0
5, 8160, Note_on_c, 0, 50, 75
5, 8160, Note_on_c, 0, 55, 75
5, 8160, Note_on_c, 0, 59, 75
5, 8400, Note_on_c, 0, 59, 0
5, 8400, Note_on_c, 0, 55, 0
5, 8400, Note_on_c, 0, 50, 0
5, 8400, Control_c, 0, 64, 0
5, 8640, Control_c, 0, 64, 127
5, 8640, Note_on_c, 0, 43, 75
5, 8640, Note_on_c, 0, 48, 75
5, 8640, Note_on_c, 0, 50, 75
5, 8880, Note_on_c, 0, 50, 0
5, 8880, Note_on_c, 0, 48, 0
5, 8880, Note_on_c, 0, 43, 0
5, 9120, Note_on_c, 0, 50, 62
5, 9120, Note_on_c, 0, 54, 62
5, 9360, Note_on_c, 0, 54, 0
5, 9360, Note_on_c, 0, 50, 0
5, 9360, Control_c, 0, 64, 0
5, 9600, Control_c, 0, 64, 127
5, 9600, Note_on_c, 0, 43, 62
5, 9600, Note_on_c, 0, 47, 62
5, 9600, Note_on_c, 0, 50, 62
5, 9840, Note_on_c, 0, 50, 0
5, 9840, Note_on_c, 0, 47, 0
5, 9840, Note_on_c, 0, 43, 0
5, 10080, Note_on_c, 0, 50, 62
5, 10080, Note_on_c, 0, 59, 62
5, 10320, Note_on_c, 0, 59, 0
5, 10320, Note_on_c, 0, 50, 0
5, 10320, Control_c, 0, 64, 0
5, 10560, Control_c, 0, 64, 127
5, 10560, Note_on_c, 0, 43, 62
5, 10560, Note_on_c, 0, 48, 62
5, 10560, Note_on_c, 0, 50, 62
5, 10800, Note_on_c, 0, 50, 0
5, 10800, Note_on_c, 0, 48, 0
5, 10800, Note_on_c, 0, 43, 0
5, 11040, Note_on_c, 0, 50, 62
5, 11040, Note_on_c, 0, 54, 62
5, 11280, Note_on_c, 0, 54, 0
5, 11280, Note_on_c, 0, 50, 0
5, 11280, Control_c, 0, 64, 0
5, 11520, Control_c, 0, 64, 127
5, 11520, Note_on_c, 0, 43, 62
5, 11520, Note_on_c, 0, 47, 62
5, 11520, Note_on_c, 0, 50, 62
5, 11760, Note_on_c, 0, 50, 0
5, 11760, Note_on_c, 0, 47, 0
5, 11760, Note_on_c, 0, 43, 0
5, 12000, Note_on_c, 0, 50, 62
5, 12000, Note_on_c, 0, 59, 62
5, 12240, Note_on_c, 0, 59, 0
5, 12240, Note_on_c, 0, 50, 0
5, 12240, Control_c, 0, 64, 0
5, 13440, Control_c, 0, 64, 127
5, 13440, Note_on_c, 0, 45, 88
5, 13440, Note_on_c, 0, 52, 88
5, 13440, Note_on_c, 0, 54, 88
5, 13680, Note_on_c, 0, 54, 0
5, 13680, Note_on_c, 0, 52, 0
5, 13680, Note_on_c, 0, 45, 0
5, 13920, Note_on_c, 0, 52, 88
5, 13920, Note_on_c, 0, 54, 88
5, 13920, Note_on_c, 0, 57, 88
5, 14160, Note_on_c, 0, 57, 0
5, 14160, Note_on_c, 0, 54, 0
5, 14160, Note_on_c, 0, 52, 0
5, 14160, Control_c, 0, 64, 0
5, 14400, Control_c, 0, 64, 127
5, 14400, Note_on_c, 0, 47, 75
5, 14400, Note_on_c, 0, 51, 75
5, 14400, Note_on_c, 0, 54, 75
5, 14640, Note_on_c, 0, 54, 0
5, 14640, Note_on_c, 0, 51, 0
5, 14640, Note_on_c, 0, 47, 0
5, 14880, Note_on_c, 0, 51, 75
5, 14880, Note_on_c, 0, 54, 75
5, 14880, Note_on_c, 0, 59, 75
5, 15120, Note_on_c, 0, 59, 0
5, 15120, Note_on_c, 0, 54, 0
5, 15120, Note_on_c, 0, 51, 0
5, 15120, Control_c, 0, 64, 0
5, 15360, Control_c, 0, 64, 127
5, 15360, Note_on_c, 0, 40, 75
5, 15360, Note_on_c, 0, 43, 75
5, 15360, Note_on_c, 0, 47, 75
5, 15600, Note_on_c, 0, 47, 0
5, 15600, Note_on_c, 0, 43, 0
5, 15600, Note_on_c, 0, 40, 0
5, 15840, Note_on_c, 0, 52, 75
5, 15840, Note_on_c, 0, 55, 75
5, 15840, Note_on_c, 0, 59, 75
5, 16080, Note_on_c, 0, 59, 0
5, 16080, Note_on_c, 0, 55, 0
5, 16080, Note_on_c, 0, 52, 0
5, 16080, Control_c, 0, 64, 0
5, 16320, Control_c, 0, 64, 127
5, 16320, Note_on_c, 0, 40, 62
5, 16320, Note_on_c, 0, 45, 62
5, 16320, Note_on_c, 0, 48, 62
5, 16560, Note_on_c, 0, 48, 0
5, 16560, Note_on_c, 0, 45, 0
5, 16560, Note_on_c, 0, 40, 0
5, 16800, Note_on_c, 0, 48, 62
5, 16800, Note_on_c, 0, 52, 62
5, 17040, Note_on_c, 0, 52, 0
5, 17040, Note_on_c, 0, 48, 0
5, 17040, Control_c, 0, 64, 0
5, 17280, Control_c, 0, 64, 127
5, 17280, Note_on_c, 0, 40, 62
5, 17280, Note_on_c, 0, 43, 62
5, 17280, Note_on_c, 0, 47, 62
5, 17520, Note_on_c, 0, 47, 0
5, 17520, Note_on_c, 0, 43, 0
5, 17520, Note_on_c, 0, 40, 0
5, 17760, Note_on_c, 0, 55, 62
5, 17760, Note_on_c, 0, 59, 62
5, 18000, Note_on_c, 0, 59, 0
5, 18000, Note_on_c, 0, 55, 0
5, 18000, Control_c, 0, 64, 0
5, 18240, Control_c, 0, 64, 127
5, 18240, Note_on_c, 0, 40, 62
5, 18240, Note_on_c, 0, 45, 62
5, 18240, Note_on_c, 0, 48, 62
5, 18480, Note_on_c, 0, 48, 0
5, 18480, Note_on_c, 0, 45, 0
5, 18480, Note_on_c, 0, 40, 0
5, 18720, Note_on_c, 0, 48, 62
5, 18720, Note_on_c, 0, 52, 62
5, 18960, Note_on_c, 0, 52, 0
5, 18960, Note_on_c, 0, 48, 0
5, 18960, Control_c, 0, 64, 0
5, 19200, Control_c, 0, 64, 127
5, 19200, Note_on_c, 0, 40, 62
5, 19200, Note_on_c, 0, 43, 62
5, 19200, Note_on_c, 0, 47, 62
5, 19440, Note_on_c, 0, 47, 0
5, 19440, Note_on_c, 0, 43, 0
5, 19440, Note_on_c, 0, 40, 0
5, 19680, Note_on_c, 0, 55, 62
5, 19680, Note_on_c, 0, 59, 62
5, 19920, Note_on_c, 0, 59, 0
5, 19920, Note_on_c, 0, 55, 0
5, 19920, Control_c, 0, 64, 0
5, 25040, Control_c, 0, 64, 127
5, 25040, Note_on_c, 0, 45, 75
5, 25119, Note_on_c, 0, 45, 0
5, 25119, Note_on_c, 0, 48, 75
5, 25200, Note_on_c, 0, 48, 0
5, 25200, Note_on_c, 0, 52, 75
5, 25280, Note_on_c, 0, 52, 0
5, 25280, Note_on_c, 0, 57, 75
5, 25359, Note_on_c, 0, 57, 0
5, 25359, Note_on_c, 0, 60, 75
5, 25440, Note_on_c, 0, 60, 0
5, 25440, Note_on_c, 0, 64, 75
5, 25520, Note_on_c, 0, 64, 0
5, 25520, Note_on_c, 0, 60, 75
5, 25599, Note_on_c, 0, 60, 0
5, 25599, Control_c, 0, 64, 0
5, 25599, Note_on_c, 0, 57, 75
5, 25680, Note_on_c, 0, 57, 0
5, 26000, Control_c, 0, 64, 127
5, 26000, Note_on_c, 0, 50, 75
5, 26079, Note_on_c, 0, 50, 0
5, 26079, Note_on_c, 0, 54, 75
5, 26160, Note_on_c, 0, 54, 0
5, 26160, Note_on_c, 0, 57, 75
5, 26240, Note_on_c, 0, 57, 0
5, 26240, Note_on_c, 0, 60, 75
5, 26319, Note_on_c, 0, 60, 0
5, 26319, Note_on_c, 0, 62, 75
5, 26400, Note_on_c, 0, 62, 0
5, 26400, Note_on_c, 0, 66, 75
5, 26480, Note_on_c, 0, 66, 0
5, 26480, Note_on_c, 0, 62, 75
5, 26559, Note_on_c, 0, 62, 0
5, 26559, Control_c, 0, 64, 0
5, 26559, Note_on_c, 0, 60, 75
5, 26640, Note_on_c, 0, 60, 0
5, 28800, Control_c, 0, 64, 127
5, 28800, Note_on_c, 0, 45, 88
5, 28800, Note_on_c, 0, 52, 88
5, 28800, Note_on_c, 0, 54, 88
5, 29040, Note_on_c, 0, 54, 0
5, 29040, Note_on_c, 0, 52, 0
5, 29040, Note_on_c, 0, 45, 0
5, 29280, Note_on_c, 0, 52, 88
5, 29280, Note_on_c, 0, 54, 88
5, 29280, Note_on_c, 0, 57, 88
5, 29520, Note_on_c, 0, 57, 0
5, 29520, Note_on_c, 0, 54, 0
5, 29520, Note_on_c, 0, 52, 0
5, 29520, Control_c, 0, 64, 0
5, 29760, Control_c, 0, 64, 127
5, 29760, Note_on_c, 0, 50, 75
5, 29760, Note_on_c, 0, 54, 75
5, 30240, Note_on_c, 0, 54, 0
5, 30240, Note_on_c, 0, 50, 0
5, 30240, Note_on_c, 0, 67, 75
5, 30320, Note_on_c, 0, 67, 0
5, 30320, Note_on_c, 0, 60, 75
5, 30399, Note_on_c, 0, 60, 0
5, 30399, Note_on_c, 0, 62, 75
5, 30480, Note_on_c, 0, 62, 0
5, 30480, Note_on_c, 0, 66, 75
5, 30560, Note_on_c, 0, 66, 0
5, 30560, Note_on_c, 0, 60, 75
5, 30639, Note_on_c, 0, 60, 0
5, 30639, Control_c, 0, 64, 0
5, 30639, Note_on_c, 0, 62, 75
5, 30720, Note_on_c, 0, 62, 0
5, 36000, Note_on_c, 0, 50, 62
5, 36000, Note_on_c, 0, 54, 62
5, 36480, Note_on_c, 0, 54, 0
5, 36480, Note_on_c, 0, 50, 0
5, 36480, Control_c, 0, 64, 127
5, 36480, Note_on_c, 0, 43, 62
5, 36480, Note_on_c, 0, 47, 62
5, 36480, Note_on_c, 0, 50, 62
5, 36720, Note_on_c, 0, 50, 0
5, 36720, Note_on_c, 0, 47, 0
5, 36720, Note_on_c, 0, 43, 0
5, 36960, Note_on_c, 0, 50, 62
5, 36960, Note_on_c, 0, 59, 62
5, 37200, Note_on_c, 0, 59, 0
5, 37200, Note_on_c, 0, 50, 0
5, 37200, Control_c, 0, 64, 0
5, 37440, Control_c, 0, 64, 127
5, 37440, Note_on_c, 0, 43, 62
5, 37440, Note_on_c, 0, 50, 62
5, 37440, Note_on_c, 0, 54, 62
5, 37680, Note_on_c, 0, 54, 0
5, 37680, Note_on_c, 0, 50, 0
5, 37680, Note_on_c, 0, 43, 0
5, 37920, Control_c, 0, 64, 0
5, 37920, Note_on_c, 0, 50, 62
5, 37920, Note_on_c, 0, 54, 62
5, 38400, Note_on_c, 0, 54, 0
5, 38400, Note_on_c, 0, 50, 0
5, 38400, Control_c, 0, 64, 127
5, 38400, Note_on_c, 0, 43, 62
5, 38400, Note_on_c, 0, 47, 62
5, 38400, Note_on_c, 0, 50, 62
5, 38640, Note_on_c, 0, 50, 0
5, 38640, Note_on_c, 0, 47, 0
5, 38640, Note_on_c, 0, 43, 0
5, 38880, Note_on_c, 0, 50, 62
5, 38880, Note_on_c, 0, 59, 62
5, 39120, Note_on_c, 0, 59, 0
5, 39120, Note_on_c, 0, 50, 0
5, 39120, Control_c, 0, 64, 0
5, 43680, Note_on_c, 0, 52, 62
5, 44160, Note_on_c, 0, 52, 0
5, 44160, Control_c, 0, 64, 127
5, 44160, Note_on_c, 0, 40, 62
5, 44160, Note_on_c, 0, 43, 62
5, 44160, Note_on_c, 0, 47, 62
5, 44400, Note_on_c, 0, 47, 0
5, 44400, Note_on_c, 0, 43, 0
5, 44400, Note_on_c, 0, 40, 0
5, 44640, Note_on_c, 0, 55, 62
5, 44640, Note_on_c, 0, 59, 62
5, 44880, Note_on_c, 0, 59, 0
5, 44880, Note_on_c, 0, 55, 0
5, 44880, Control_c, 0, 64, 0
5, 45600, Note_on_c, 0, 52, 62
5, 46080, Note_on_c, 0, 52, 0
5, 57600, Note_on_c, 0, 54, 49
5, 58560, Note_on_c, 0, 54, 0
5, 58560, Note_on_c, 0, 35, 49
5, 58560, Note_on_c, 0, 47, 49
5, 58800, Note_on_c, 0, 47, 0
5, 58800, Note_on_c, 0, 35, 0
5, 60480, Note_on_c, 0, 48, 49
5, 61440, Note_on_c, 0, 48, 0
5, 63360, Note_on_c, 0, 47, 62
5, 65280, Note_on_c, 0, 47, 0
5, 65280, Note_on_c, 0, 47, 62
5, 66720, Note_on_c, 0, 47, 0
5, 67200, Note_on_c, 0, 47, 62
5, 69120, Note_on_c, 0, 47, 0
5, 69120, End_track
0, 0, End_of_file
