0, 0, Header, 1, 2, 480
1, 0, Start_track
1, 0, Title_t, "Tschaikowsky  ""The Seasons"" No.3  Played (c) K.Oguri            "
1, 0, Copyright_t, "Adaptation for Disklavier pianos, by: Robert C. Kuhmann (c) 2012."
1, 0, System_exclusive, 10, 65, 16, 66, 18, 64, 0, 127, 0, 65, 247
1, 0, System_exclusive, 10, 65, 16, 66, 18, 64, 0, 4, 100, 88, 247
1, 0, Time_signature, 2, 2, 24, 8
1, 0, Key_signature, 0, "major"
1, 0, Tempo, 500000
1, 0, End_track
2, 0, Start_track
2, 0, Title_t, "Grand Piano "
2, 0, Program_c, 0, 0
2, 0, Control_c, 0, 7, 115
2, 340, System_exclusive, 10, 65, 16, 66, 18, 64, 1, 48, 3, 12, 247
2, 340, System_exclusive, 10, 65, 16, 66, 18, 64, 1, 51, 80, 60, 247
2, 340, System_exclusive, 10, 65, 16, 66, 18, 64, 1, 52, 60, 79, 247
2, 751, Control_c, 0, 0, 0
2, 752, Control_c, 0, 32, 1
2, 752, Program_c, 0, 0
2, 756, Control_c, 0, 7, 100
2, 948, Control_c, 0, 11, 100
2, 1140, Control_c, 0, 10, 64
2, 1332, Control_c, 0, 1, 0
2, 1332, Control_c, 0, 91, 80
2, 1354, Control_c, 0, 99, 1
2, 1355, Control_c, 0, 98, 32
2, 1356, Control_c, 0, 6, 62
2, 1357, Control_c, 0, 38, 0
2, 1366, Control_c, 0, 99, 1
2, 1367, Control_c, 0, 98, 33
2, 1368, Control_c, 0, 6, 54
2, 1369, Control_c, 0, 38, 0
2, 1378, Control_c, 0, 99, 1
2, 1379, Control_c, 0, 98, 99
2, 1380, Control_c, 0, 6, 62
2, 1381, Control_c, 0, 38, 0
2, 1390, Control_c, 0, 99, 1
2, 1391, Control_c, 0, 98, 100
2, 1392, Control_c, 0, 6, 60
2, 1393, Control_c, 0, 38, 0
2, 1402, Control_c, 0, 99, 1
2, 1403, Control_c, 0, 98, 102
2, 1404, Control_c, 0, 6, 70
2, 1405, Control_c, 0, 38, 0
2, 2432, Control_c, 0, 67, 127
2, 4273, Note_on_c, 0, 58, 26
2, 4288, Note_on_c, 0, 62, 22
2, 5497, Note_on_c, 0, 55, 28
2, 5691, Control_c, 0, 64, 63
2, 5766, Control_c, 0, 64, 127
2, 6137, Note_on_c, 0, 62, 0
2, 6770, Note_on_c, 0, 63, 50
2, 6789, Note_on_c, 0, 60, 45
2, 7434, Note_on_c, 0, 58, 0
2, 7443, Note_on_c, 0, 55, 0
2, 8024, Note_on_c, 0, 55, 41
2, 8173, Control_c, 0, 64, 63
2, 8308, Control_c, 0, 64, 127
2, 8529, Note_on_c, 0, 63, 0
2, 9293, Note_on_c, 0, 58, 49
2, 9338, Note_on_c, 0, 62, 35
2, 9393, Note_on_c, 0, 60, 0
2, 9600, Control_c, 0, 64, 63
2, 9643, Control_c, 0, 64, 0
2, 9823, Control_c, 0, 64, 63
2, 9852, Control_c, 0, 64, 127
2, 10171, Note_on_c, 0, 55, 0
2, 10536, Note_on_c, 0, 55, 45
2, 10972, Note_on_c, 0, 62, 0
2, 11249, Note_on_c, 0, 58, 0
2, 11821, Note_on_c, 0, 62, 35
2, 11849, Note_on_c, 0, 57, 45
2, 11873, Note_on_c, 0, 60, 35
2, 11933, Note_on_c, 0, 55, 0
2, 12165, Control_c, 0, 64, 63
2, 12229, Control_c, 0, 64, 0
2, 13133, Note_on_c, 0, 55, 38
2, 13285, Control_c, 0, 64, 63
2, 13319, Control_c, 0, 64, 127
2, 13742, Note_on_c, 0, 60, 0
2, 13960, Note_on_c, 0, 57, 0
2, 14004, Note_on_c, 0, 62, 0
2, 14410, Note_on_c, 0, 58, 46
2, 14441, Note_on_c, 0, 62, 40
2, 14586, Control_c, 0, 64, 63
2, 14629, Control_c, 0, 64, 0
2, 14796, Control_c, 0, 64, 63
2, 14827, Control_c, 0, 64, 127
2, 15033, Note_on_c, 0, 55, 0
2, 15575, Note_on_c, 0, 55, 34
2, 15673, Note_on_c, 0, 67, 68
2, 16149, Note_on_c, 0, 67, 0
2, 16617, Note_on_c, 0, 67, 49
2, 16739, Note_on_c, 0, 67, 0
2, 16781, Note_on_c, 0, 69, 53
2, 16867, Note_on_c, 0, 69, 0
2, 16885, Note_on_c, 0, 67, 49
2, 17010, Note_on_c, 0, 62, 0
2, 17035, Note_on_c, 0, 63, 58
2, 17045, Note_on_c, 0, 66, 65
2, 17077, Note_on_c, 0, 67, 0
2, 17115, Note_on_c, 0, 60, 45
2, 17146, Control_c, 0, 64, 63
2, 17181, Control_c, 0, 64, 0
2, 17186, Note_on_c, 0, 58, 0
2, 17371, Control_c, 0, 64, 63
2, 17394, Control_c, 0, 64, 127
2, 17654, Note_on_c, 0, 55, 0
2, 18273, Note_on_c, 0, 55, 50
2, 18631, Note_on_c, 0, 66, 0
2, 18876, Note_on_c, 0, 69, 50
2, 19311, Note_on_c, 0, 69, 0
2, 19388, Note_on_c, 0, 58, 40
2, 19452, Note_on_c, 0, 62, 42
2, 19453, Note_on_c, 0, 67, 46
2, 19521, Control_c, 0, 64, 63
2, 19546, Control_c, 0, 64, 0
2, 19645, Note_on_c, 0, 60, 0
2, 19711, Control_c, 0, 64, 63
2, 19732, Control_c, 0, 64, 127
2, 19779, Note_on_c, 0, 63, 0
2, 19940, Note_on_c, 0, 55, 0
2, 20002, Note_on_c, 0, 70, 80
2, 20129, Note_on_c, 0, 67, 0
2, 20539, Note_on_c, 0, 55, 48
2, 20540, Note_on_c, 0, 74, 80
2, 20545, Note_on_c, 0, 70, 0
2, 21101, Note_on_c, 0, 78, 86
2, 21176, Note_on_c, 0, 74, 0
2, 21235, Note_on_c, 0, 62, 0
2, 21461, Note_on_c, 0, 58, 0
2, 21610, Note_on_c, 0, 78, 0
2, 21758, Note_on_c, 0, 57, 46
2, 21771, Note_on_c, 0, 79, 90
2, 21785, Note_on_c, 0, 62, 36
2, 21786, Note_on_c, 0, 60, 43
2, 21824, Note_on_c, 0, 55, 0
2, 22116, Control_c, 0, 64, 63
2, 22164, Control_c, 0, 64, 0
2, 22365, Control_c, 0, 64, 63
2, 22390, Control_c, 0, 64, 127
2, 22908, Note_on_c, 0, 55, 46
2, 23298, Note_on_c, 0, 79, 0
2, 23537, Note_on_c, 0, 78, 68
2, 23798, Note_on_c, 0, 78, 0
2, 23851, Note_on_c, 0, 62, 0
2, 23935, Note_on_c, 0, 60, 0
2, 23959, Note_on_c, 0, 57, 0
2, 24116, Note_on_c, 0, 58, 41
2, 24146, Note_on_c, 0, 74, 52
2, 24149, Note_on_c, 0, 62, 50
2, 24283, Control_c, 0, 64, 63
2, 24319, Control_c, 0, 64, 0
2, 24465, Control_c, 0, 64, 63
2, 24487, Control_c, 0, 64, 127
2, 24692, Note_on_c, 0, 74, 0
2, 25156, Note_on_c, 0, 55, 0
2, 25245, Note_on_c, 0, 62, 0
2, 25247, Note_on_c, 0, 58, 0
2, 25482, Note_on_c, 0, 43, 60
2, 25484, Note_on_c, 0, 58, 33
2, 25519, Note_on_c, 0, 62, 35
2, 25528, Note_on_c, 0, 55, 29
2, 26010, Note_on_c, 0, 43, 0
2, 26290, Note_on_c, 0, 43, 72
2, 26417, Note_on_c, 0, 43, 0
2, 26419, Note_on_c, 0, 45, 74
2, 26525, Note_on_c, 0, 43, 82
2, 26548, Note_on_c, 0, 45, 0
2, 26576, Note_on_c, 0, 62, 0
2, 26685, Note_on_c, 0, 42, 78
2, 26701, Note_on_c, 0, 58, 0
2, 26718, Note_on_c, 0, 43, 0
2, 26741, Note_on_c, 0, 55, 0
2, 26907, Control_c, 0, 64, 63
2, 27008, Control_c, 0, 64, 0
2, 27385, Control_c, 0, 64, 63
2, 27438, Control_c, 0, 64, 127
2, 27608, Control_c, 0, 64, 63
2, 27691, Control_c, 0, 64, 0
2, 27764, Note_on_c, 0, 60, 50
2, 27765, Note_on_c, 0, 57, 35
2, 27766, Note_on_c, 0, 62, 44
2, 27954, Control_c, 0, 64, 63
2, 27984, Control_c, 0, 64, 127
2, 28303, Note_on_c, 0, 45, 68
2, 28433, Control_c, 0, 64, 63
2, 28472, Control_c, 0, 64, 0
2, 28513, Note_on_c, 0, 42, 0
2, 28584, Control_c, 0, 64, 63
2, 28615, Control_c, 0, 64, 127
2, 28821, Note_on_c, 0, 43, 71
2, 28829, Note_on_c, 0, 45, 0
2, 28915, Control_c, 0, 64, 63
2, 28923, Note_on_c, 0, 62, 0
2, 28953, Control_c, 0, 64, 0
2, 29009, Note_on_c, 0, 60, 0
2, 29030, Note_on_c, 0, 57, 0
2, 29053, Control_c, 0, 64, 63
2, 29092, Control_c, 0, 64, 127
2, 29298, Note_on_c, 0, 46, 91
2, 29418, Note_on_c, 0, 43, 0
2, 29782, Note_on_c, 0, 58, 67
2, 29790, Note_on_c, 0, 62, 58
2, 29794, Note_on_c, 0, 50, 97
2, 29883, Note_on_c, 0, 46, 0
2, 29958, Control_c, 0, 64, 63
2, 29994, Control_c, 0, 64, 0
2, 30197, Control_c, 0, 64, 63
2, 30230, Control_c, 0, 64, 127
2, 30286, Note_on_c, 0, 54, 100
2, 30380, Note_on_c, 0, 50, 0
2, 30440, Note_on_c, 0, 58, 0
2, 30441, Note_on_c, 0, 62, 0
2, 30840, Note_on_c, 0, 55, 87
2, 30848, Note_on_c, 0, 54, 0
2, 31084, Control_c, 0, 64, 63
2, 31127, Control_c, 0, 64, 0
2, 31830, Note_on_c, 0, 62, 46
2, 31831, Note_on_c, 0, 57, 39
2, 31832, Note_on_c, 0, 60, 53
2, 31868, Control_c, 0, 64, 63
2, 31898, Control_c, 0, 64, 127
2, 32383, Note_on_c, 0, 54, 82
2, 32439, Note_on_c, 0, 55, 0
2, 32464, Note_on_c, 0, 60, 0
2, 32476, Note_on_c, 0, 62, 0
2, 32481, Note_on_c, 0, 57, 0
2, 33015, Note_on_c, 0, 50, 73
2, 33082, Note_on_c, 0, 54, 0
2, 33177, Control_c, 0, 64, 63
2, 33301, Control_c, 0, 64, 0
2, 33659, Control_c, 0, 64, 63
2, 33695, Control_c, 0, 64, 127
2, 34235, Note_on_c, 0, 67, 51
2, 34237, Note_on_c, 0, 58, 31
2, 34238, Note_on_c, 0, 55, 45
2, 34247, Note_on_c, 0, 62, 41
2, 34790, Note_on_c, 0, 67, 0
2, 34978, Note_on_c, 0, 58, 0
2, 34982, Note_on_c, 0, 67, 72
2, 35030, Note_on_c, 0, 55, 0
2, 35068, Note_on_c, 0, 50, 0
2, 35071, Note_on_c, 0, 62, 0
2, 35107, Note_on_c, 0, 69, 70
2, 35119, Note_on_c, 0, 67, 0
2, 35247, Note_on_c, 0, 67, 58
2, 35270, Note_on_c, 0, 69, 0
2, 35365, Note_on_c, 0, 48, 50
2, 35402, Note_on_c, 0, 66, 90
2, 35426, Note_on_c, 0, 67, 0
2, 35544, Control_c, 0, 64, 63
2, 35588, Control_c, 0, 64, 0
2, 35768, Control_c, 0, 64, 63
2, 35784, Control_c, 0, 64, 127
2, 36084, Note_on_c, 0, 66, 0
2, 36383, Note_on_c, 0, 54, 40
2, 36388, Note_on_c, 0, 62, 58
2, 36391, Note_on_c, 0, 57, 63
2, 36844, Note_on_c, 0, 62, 0
2, 36850, Note_on_c, 0, 48, 0
2, 36856, Note_on_c, 0, 69, 80
2, 36897, Note_on_c, 0, 57, 0
2, 37146, Note_on_c, 0, 54, 0
2, 37189, Note_on_c, 0, 69, 0
2, 37327, Note_on_c, 0, 67, 83
2, 37346, Note_on_c, 0, 46, 70
2, 37441, Control_c, 0, 64, 63
2, 37457, Control_c, 0, 64, 0
2, 37584, Control_c, 0, 64, 63
2, 37597, Control_c, 0, 64, 127
2, 37779, Note_on_c, 0, 46, 0
2, 37807, Note_on_c, 0, 70, 97
2, 37889, Note_on_c, 0, 67, 0
2, 38228, Note_on_c, 0, 58, 60
2, 38232, Note_on_c, 0, 74, 98
2, 38240, Note_on_c, 0, 62, 50
2, 38253, Note_on_c, 0, 55, 54
2, 38310, Note_on_c, 0, 70, 0
2, 38543, Note_on_c, 0, 62, 0
2, 38627, Note_on_c, 0, 58, 0
2, 38656, Note_on_c, 0, 78, 113
2, 38675, Note_on_c, 0, 55, 0
2, 38755, Note_on_c, 0, 74, 0
2, 39200, Note_on_c, 0, 47, 80
2, 39205, Note_on_c, 0, 79, 105
2, 39234, Note_on_c, 0, 78, 0
2, 39405, Control_c, 0, 64, 63
2, 39416, Control_c, 0, 64, 0
2, 39553, Control_c, 0, 64, 63
2, 39565, Control_c, 0, 64, 127
2, 39838, Note_on_c, 0, 47, 0
2, 40181, Note_on_c, 0, 62, 69
2, 40200, Note_on_c, 0, 59, 74
2, 40211, Note_on_c, 0, 55, 58
2, 40703, Note_on_c, 0, 77, 106
2, 40708, Note_on_c, 0, 62, 0
2, 40735, Note_on_c, 0, 59, 0
2, 40820, Note_on_c, 0, 79, 0
2, 40858, Note_on_c, 0, 55, 0
2, 41213, Note_on_c, 0, 77, 0
2, 41327, Note_on_c, 0, 77, 91
2, 41330, Note_on_c, 0, 48, 79
2, 41591, Control_c, 0, 64, 63
2, 41612, Control_c, 0, 64, 0
2, 41870, Note_on_c, 0, 54, 91
2, 42309, Note_on_c, 0, 55, 92
2, 42317, Note_on_c, 0, 77, 0
2, 42329, Note_on_c, 0, 75, 89
2, 42355, Note_on_c, 0, 72, 65
2, 42362, Note_on_c, 0, 67, 44
2, 42404, Note_on_c, 0, 54, 0
2, 42630, Control_c, 0, 64, 63
2, 42632, Control_c, 0, 64, 127
2, 42709, Note_on_c, 0, 60, 104
2, 42746, Note_on_c, 0, 48, 0
2, 42796, Note_on_c, 0, 55, 0
2, 42899, Note_on_c, 0, 72, 0
2, 42903, Note_on_c, 0, 75, 0
2, 43184, Note_on_c, 0, 67, 0
2, 43288, Note_on_c, 0, 74, 84
2, 43298, Note_on_c, 0, 65, 89
2, 43301, Note_on_c, 0, 60, 0
2, 43538, Control_c, 0, 64, 63
2, 43573, Control_c, 0, 64, 0
2, 43824, Control_c, 0, 64, 63
2, 43833, Control_c, 0, 64, 127
2, 44343, Note_on_c, 0, 74, 0
2, 44373, Note_on_c, 0, 72, 74
2, 44375, Note_on_c, 0, 60, 50
2, 44384, Note_on_c, 0, 55, 48
2, 44401, Note_on_c, 0, 67, 42
2, 44595, Control_c, 0, 64, 63
2, 44723, Control_c, 0, 64, 127
2, 44980, Note_on_c, 0, 63, 73
2, 45054, Note_on_c, 0, 65, 0
2, 45163, Note_on_c, 0, 67, 0
2, 45223, Note_on_c, 0, 72, 0
2, 45701, Note_on_c, 0, 62, 62
2, 45708, Note_on_c, 0, 58, 44
2, 45719, Note_on_c, 0, 72, 62
2, 45728, Note_on_c, 0, 60, 0
2, 45788, Control_c, 0, 64, 63
2, 45813, Control_c, 0, 64, 0
2, 45900, Note_on_c, 0, 63, 0
2, 45923, Control_c, 0, 64, 63
2, 45946, Control_c, 0, 64, 127
2, 46403, Note_on_c, 0, 66, 63
2, 46414, Note_on_c, 0, 55, 0
2, 46418, Note_on_c, 0, 58, 0
2, 46568, Note_on_c, 0, 72, 0
2, 46905, Note_on_c, 0, 50, 62
2, 46906, Note_on_c, 0, 67, 59
2, 46958, Note_on_c, 0, 66, 0
2, 47332, Note_on_c, 0, 69, 84
2, 47411, Note_on_c, 0, 67, 0
2, 47473, Note_on_c, 0, 62, 0
2, 47765, Note_on_c, 0, 69, 0
2, 47811, Note_on_c, 0, 70, 86
2, 47854, Note_on_c, 0, 66, 72
2, 47861, Note_on_c, 0, 60, 54
2, 48055, Control_c, 0, 64, 63
2, 48085, Control_c, 0, 64, 0
2, 48423, Control_c, 0, 64, 63
2, 48431, Control_c, 0, 64, 127
2, 48928, Note_on_c, 0, 62, 59
2, 49143, Note_on_c, 0, 70, 0
2, 49248, Note_on_c, 0, 62, 0
2, 49423, Note_on_c, 0, 50, 0
2, 49468, Note_on_c, 0, 69, 50
2, 49580, Note_on_c, 0, 66, 0
2, 49683, Note_on_c, 0, 69, 0
2, 49685, Note_on_c, 0, 60, 0
2, 50209, Note_on_c, 0, 58, 25
2, 50210, Note_on_c, 0, 67, 51
2, 50234, Note_on_c, 0, 50, 30
2, 50257, Note_on_c, 0, 43, 33
2, 50433, Control_c, 0, 64, 63
2, 50458, Control_c, 0, 64, 0
2, 50639, Control_c, 0, 64, 63
2, 50657, Control_c, 0, 64, 127
2, 50934, Note_on_c, 0, 58, 0
2, 51033, Note_on_c, 0, 43, 0
2, 51087, Note_on_c, 0, 67, 0
2, 51096, Note_on_c, 0, 50, 0
2, 51575, Note_on_c, 0, 74, 49
2, 51716, Control_c, 0, 64, 63
2, 51752, Control_c, 0, 64, 0
2, 51903, Control_c, 0, 64, 63
2, 51923, Control_c, 0, 64, 127
2, 52065, Note_on_c, 0, 74, 0
2, 52585, Note_on_c, 0, 74, 66
2, 52665, Note_on_c, 0, 75, 67
2, 52670, Note_on_c, 0, 74, 0
2, 52685, Note_on_c, 0, 63, 46
2, 52686, Note_on_c, 0, 66, 46
2, 52749, Note_on_c, 0, 74, 63
2, 52780, Note_on_c, 0, 75, 0
2, 52844, Control_c, 0, 64, 63
2, 52907, Control_c, 0, 64, 0
2, 53563, Note_on_c, 0, 58, 51
2, 53658, Control_c, 0, 64, 63
2, 53683, Control_c, 0, 64, 127
2, 54028, Note_on_c, 0, 69, 55
2, 54131, Note_on_c, 0, 74, 0
2, 54148, Note_on_c, 0, 66, 0
2, 54362, Note_on_c, 0, 69, 0
2, 54388, Note_on_c, 0, 63, 0
2, 54392, Note_on_c, 0, 70, 62
2, 54411, Note_on_c, 0, 62, 41
2, 54423, Note_on_c, 0, 65, 28
2, 54514, Control_c, 0, 64, 63
2, 54547, Control_c, 0, 64, 0
2, 54705, Note_on_c, 0, 70, 0
2, 54713, Control_c, 0, 64, 63
2, 54737, Control_c, 0, 64, 127
2, 54823, Note_on_c, 0, 73, 91
2, 54855, Note_on_c, 0, 58, 0
2, 54975, Note_on_c, 0, 73, 0
2, 55145, Note_on_c, 0, 58, 59
2, 55167, Note_on_c, 0, 74, 85
2, 55263, Control_c, 0, 64, 63
2, 55296, Control_c, 0, 64, 0
2, 55457, Control_c, 0, 64, 63
2, 55479, Control_c, 0, 64, 127
2, 55481, Note_on_c, 0, 74, 0
2, 55512, Note_on_c, 0, 75, 100
2, 55738, Note_on_c, 0, 75, 0
2, 55762, Note_on_c, 0, 62, 0
2, 55837, Note_on_c, 0, 60, 49
2, 55855, Note_on_c, 0, 65, 0
2, 55856, Note_on_c, 0, 63, 64
2, 55905, Note_on_c, 0, 77, 92
2, 56008, Control_c, 0, 64, 63
2, 56038, Control_c, 0, 64, 0
2, 56186, Control_c, 0, 64, 63
2, 56208, Control_c, 0, 64, 127
2, 56227, Note_on_c, 0, 78, 103
2, 56256, Note_on_c, 0, 77, 0
2, 56445, Note_on_c, 0, 58, 0
2, 56512, Note_on_c, 0, 78, 0
2, 56555, Note_on_c, 0, 58, 60
2, 56645, Note_on_c, 0, 82, 100
2, 56744, Control_c, 0, 64, 63
2, 56771, Control_c, 0, 64, 0
2, 56935, Control_c, 0, 64, 63
2, 56951, Control_c, 0, 64, 127
2, 56988, Note_on_c, 0, 81, 103
2, 57031, Note_on_c, 0, 82, 0
2, 57194, Note_on_c, 0, 81, 0
2, 57229, Note_on_c, 0, 62, 68
2, 57271, Note_on_c, 0, 81, 94
2, 57302, Note_on_c, 0, 63, 0
2, 57306, Note_on_c, 0, 65, 34
2, 57335, Note_on_c, 0, 60, 0
2, 57399, Note_on_c, 0, 84, 101
2, 57439, Note_on_c, 0, 81, 0
2, 57619, Control_c, 0, 64, 63
2, 57638, Control_c, 0, 64, 0
2, 57800, Control_c, 0, 64, 63
2, 57814, Control_c, 0, 64, 127
2, 57995, Note_on_c, 0, 58, 0
2, 58138, Note_on_c, 0, 58, 87
2, 58526, Note_on_c, 0, 82, 104
2, 58537, Note_on_c, 0, 62, 0
2, 58564, Note_on_c, 0, 84, 0
2, 58597, Note_on_c, 0, 58, 0
2, 58744, Note_on_c, 0, 82, 0
2, 58789, Note_on_c, 0, 65, 0
2, 58871, Note_on_c, 0, 62, 38
2, 58966, Note_on_c, 0, 66, 63
2, 59036, Note_on_c, 0, 82, 77
2, 59067, Note_on_c, 0, 72, 54
2, 59096, Note_on_c, 0, 86, 101
2, 59274, Control_c, 0, 64, 63
2, 59297, Control_c, 0, 64, 0
2, 59363, Control_c, 0, 64, 63
2, 59389, Control_c, 0, 64, 127
2, 59560, Note_on_c, 0, 81, 96
2, 59574, Note_on_c, 0, 72, 0
2, 59623, Note_on_c, 0, 62, 0
2, 59641, Note_on_c, 0, 66, 0
2, 59689, Note_on_c, 0, 82, 0
2, 59711, Note_on_c, 0, 86, 0
2, 59743, Note_on_c, 0, 81, 0
2, 59804, Note_on_c, 0, 58, 60
2, 59873, Note_on_c, 0, 82, 70
2, 59925, Note_on_c, 0, 86, 92
2, 59946, Note_on_c, 0, 58, 0
2, 59956, Note_on_c, 0, 82, 0
2, 60246, Note_on_c, 0, 81, 102
2, 60281, Note_on_c, 0, 86, 0
2, 60405, Note_on_c, 0, 62, 62
2, 60425, Note_on_c, 0, 81, 0
2, 60496, Note_on_c, 0, 67, 33
2, 60543, Note_on_c, 0, 70, 52
2, 60566, Note_on_c, 0, 81, 71
2, 60600, Note_on_c, 0, 86, 93
2, 60663, Control_c, 0, 64, 63
2, 60676, Control_c, 0, 64, 0
2, 60721, Note_on_c, 0, 81, 0
2, 60749, Control_c, 0, 64, 63
2, 60777, Control_c, 0, 64, 127
2, 60952, Note_on_c, 0, 62, 0
2, 60964, Note_on_c, 0, 67, 0
2, 61014, Note_on_c, 0, 79, 85
2, 61048, Note_on_c, 0, 86, 0
2, 61059, Note_on_c, 0, 70, 0
2, 61338, Note_on_c, 0, 58, 67
2, 61388, Note_on_c, 0, 79, 0
2, 61746, Note_on_c, 0, 82, 77
2, 62112, Note_on_c, 0, 63, 64
2, 62148, Note_on_c, 0, 60, 46
2, 62251, Control_c, 0, 64, 63
2, 62357, Control_c, 0, 64, 127
2, 62512, Note_on_c, 0, 78, 93
2, 62601, Note_on_c, 0, 82, 0
2, 62759, Note_on_c, 0, 58, 0
2, 62907, Note_on_c, 0, 58, 55
2, 63078, Control_c, 0, 64, 63
2, 63111, Control_c, 0, 64, 0
2, 63165, Control_c, 0, 64, 63
2, 63210, Control_c, 0, 64, 127
2, 63329, Note_on_c, 0, 81, 72
2, 63653, Note_on_c, 0, 78, 0
2, 63724, Note_on_c, 0, 62, 49
2, 63815, Control_c, 0, 64, 63
2, 63848, Control_c, 0, 64, 0
2, 63878, Note_on_c, 0, 60, 0
2, 63911, Control_c, 0, 64, 63
2, 63953, Control_c, 0, 64, 127
2, 63983, Note_on_c, 0, 63, 0
2, 64187, Note_on_c, 0, 74, 51
2, 64380, Note_on_c, 0, 58, 0
2, 64588, Note_on_c, 0, 81, 0
2, 64597, Note_on_c, 0, 58, 44
2, 64685, Note_on_c, 0, 74, 0
2, 65027, Note_on_c, 0, 79, 48
2, 65134, Note_on_c, 0, 62, 0
2, 65287, Note_on_c, 0, 79, 0
2, 65521, Note_on_c, 0, 63, 35
2, 65526, Note_on_c, 0, 66, 52
2, 65647, Note_on_c, 0, 74, 63
2, 65699, Note_on_c, 0, 75, 79
2, 65726, Note_on_c, 0, 74, 0
2, 65814, Note_on_c, 0, 74, 60
2, 65849, Control_c, 0, 64, 63
2, 65872, Control_c, 0, 64, 0
2, 65916, Note_on_c, 0, 75, 0
2, 66047, Control_c, 0, 64, 63
2, 66065, Control_c, 0, 64, 127
2, 66129, Note_on_c, 0, 58, 0
2, 66497, Note_on_c, 0, 58, 43
2, 66954, Note_on_c, 0, 69, 45
2, 66963, Note_on_c, 0, 74, 0
2, 67110, Note_on_c, 0, 66, 0
2, 67295, Note_on_c, 0, 69, 0
2, 67393, Note_on_c, 0, 70, 59
2, 67405, Note_on_c, 0, 58, 0
2, 67413, Note_on_c, 0, 65, 20
2, 67420, Note_on_c, 0, 62, 36
2, 67499, Control_c, 0, 64, 63
2, 67518, Note_on_c, 0, 63, 0
2, 67526, Control_c, 0, 64, 0
2, 67643, Control_c, 0, 64, 63
2, 67673, Control_c, 0, 64, 127
2, 67727, Note_on_c, 0, 70, 0
2, 67835, Note_on_c, 0, 73, 63
2, 68033, Note_on_c, 0, 73, 0
2, 68161, Note_on_c, 0, 58, 60
2, 68177, Note_on_c, 0, 74, 80
2, 68280, Control_c, 0, 64, 63
2, 68319, Control_c, 0, 64, 0
2, 68445, Control_c, 0, 64, 63
2, 68478, Control_c, 0, 64, 127
2, 68482, Note_on_c, 0, 74, 0
2, 68516, Note_on_c, 0, 75, 94
2, 68653, Note_on_c, 0, 62, 0
2, 68753, Note_on_c, 0, 75, 0
2, 68800, Note_on_c, 0, 65, 0
2, 68852, Note_on_c, 0, 63, 77
2, 68853, Note_on_c, 0, 77, 87
2, 68879, Note_on_c, 0, 60, 54
2, 68979, Control_c, 0, 64, 63
2, 69016, Control_c, 0, 64, 0
2, 69158, Control_c, 0, 64, 63
2, 69184, Control_c, 0, 64, 127
2, 69186, Note_on_c, 0, 78, 100
2, 69206, Note_on_c, 0, 77, 0
2, 69354, Note_on_c, 0, 58, 0
2, 69450, Note_on_c, 0, 78, 0
2, 69525, Note_on_c, 0, 58, 68
2, 69539, Note_on_c, 0, 82, 96
2, 69672, Control_c, 0, 64, 63
2, 69710, Control_c, 0, 64, 0
2, 69850, Control_c, 0, 64, 63
2, 69872, Control_c, 0, 64, 127
2, 69879, Note_on_c, 0, 81, 101
2, 69959, Note_on_c, 0, 82, 0
2, 70050, Note_on_c, 0, 82, 34
2, 70111, Note_on_c, 0, 81, 0
2, 70135, Note_on_c, 0, 82, 0
2, 70155, Note_on_c, 0, 62, 55
2, 70188, Note_on_c, 0, 65, 50
2, 70197, Note_on_c, 0, 63, 0
2, 70198, Note_on_c, 0, 60, 0
2, 70270, Note_on_c, 0, 81, 65
2, 70321, Note_on_c, 0, 84, 98
2, 70397, Note_on_c, 0, 81, 0
2, 70482, Control_c, 0, 64, 63
2, 70508, Control_c, 0, 64, 0
2, 70667, Control_c, 0, 64, 63
2, 70682, Control_c, 0, 64, 127
2, 70758, Note_on_c, 0, 58, 0
2, 71053, Note_on_c, 0, 58, 80
2, 71101, Note_on_c, 0, 84, 0
2, 71343, Note_on_c, 0, 62, 0
2, 71382, Note_on_c, 0, 65, 0
2, 71389, Note_on_c, 0, 58, 0
2, 71448, Note_on_c, 0, 82, 106
2, 71578, Note_on_c, 0, 82, 0
2, 71703, Note_on_c, 0, 62, 53
2, 71777, Note_on_c, 0, 66, 76
2, 71834, Note_on_c, 0, 72, 60
2, 71919, Note_on_c, 0, 78, 72
2, 71938, Control_c, 0, 64, 63
2, 71954, Control_c, 0, 64, 0
2, 71964, Note_on_c, 0, 82, 93
2, 72055, Control_c, 0, 64, 63
2, 72075, Control_c, 0, 64, 127
2, 72354, Note_on_c, 0, 72, 0
2, 72388, Note_on_c, 0, 78, 0
2, 72427, Note_on_c, 0, 62, 0
2, 72464, Note_on_c, 0, 82, 0
2, 72468, Note_on_c, 0, 66, 0
2, 72500, Note_on_c, 0, 78, 81
2, 72738, Note_on_c, 0, 78, 0
2, 72785, Note_on_c, 0, 58, 60
2, 72866, Note_on_c, 0, 78, 66
2, 72902, Note_on_c, 0, 82, 90
2, 73048, Note_on_c, 0, 78, 0
2, 73055, Note_on_c, 0, 58, 0
2, 73267, Note_on_c, 0, 78, 95
2, 73331, Note_on_c, 0, 82, 0
2, 73473, Note_on_c, 0, 78, 0
2, 73477, Note_on_c, 0, 62, 72
2, 73554, Note_on_c, 0, 67, 47
2, 73598, Note_on_c, 0, 70, 54
2, 73613, Note_on_c, 0, 78, 80
2, 73645, Note_on_c, 0, 81, 90
2, 73747, Control_c, 0, 64, 63
2, 73757, Control_c, 0, 64, 0
2, 73819, Note_on_c, 0, 78, 0
2, 73828, Control_c, 0, 64, 63
2, 73856, Control_c, 0, 64, 127
2, 74109, Note_on_c, 0, 62, 0
2, 74124, Note_on_c, 0, 67, 0
2, 74132, Note_on_c, 0, 74, 88
2, 74162, Note_on_c, 0, 70, 0
2, 74278, Note_on_c, 0, 81, 0
2, 74546, Note_on_c, 0, 58, 60
2, 74728, Note_on_c, 0, 74, 0
2, 75050, Note_on_c, 0, 79, 61
2, 75146, Note_on_c, 0, 58, 0
2, 75252, Note_on_c, 0, 79, 0
2, 75520, Note_on_c, 0, 50, 35
2, 75536, Note_on_c, 0, 54, 47
2, 75619, Note_on_c, 0, 60, 36
2, 75627, Note_on_c, 0, 74, 64
2, 75720, Note_on_c, 0, 70, 43
2, 75803, Control_c, 0, 64, 63
2, 75820, Control_c, 0, 64, 0
2, 75888, Note_on_c, 0, 74, 0
2, 75890, Control_c, 0, 64, 63
2, 75921, Control_c, 0, 64, 127
2, 76131, Note_on_c, 0, 60, 0
2, 76188, Note_on_c, 0, 69, 57
2, 76214, Note_on_c, 0, 50, 0
2, 76221, Note_on_c, 0, 54, 0
2, 76293, Note_on_c, 0, 70, 0
2, 76461, Note_on_c, 0, 69, 0
2, 76504, Note_on_c, 0, 46, 50
2, 76558, Note_on_c, 0, 74, 58
2, 76584, Note_on_c, 0, 70, 67
2, 76663, Note_on_c, 0, 46, 0
2, 76793, Note_on_c, 0, 74, 0
2, 76958, Note_on_c, 0, 69, 72
2, 77047, Note_on_c, 0, 70, 0
2, 77187, Note_on_c, 0, 50, 43
2, 77207, Note_on_c, 0, 69, 0
2, 77249, Note_on_c, 0, 55, 37
2, 77309, Note_on_c, 0, 58, 39
2, 77347, Note_on_c, 0, 74, 71
2, 77391, Note_on_c, 0, 69, 58
2, 77476, Note_on_c, 0, 74, 0
2, 77639, Control_c, 0, 64, 63
2, 77731, Control_c, 0, 64, 127
2, 77857, Note_on_c, 0, 67, 67
2, 77948, Note_on_c, 0, 69, 0
2, 78002, Note_on_c, 0, 55, 0
2, 78023, Note_on_c, 0, 58, 0
2, 78261, Note_on_c, 0, 46, 54
2, 78262, Note_on_c, 0, 67, 0
2, 78785, Note_on_c, 0, 62, 57
2, 79154, Note_on_c, 0, 50, 0
2, 79155, Note_on_c, 0, 62, 0
2, 79513, Note_on_c, 0, 51, 60
2, 79522, Note_on_c, 0, 46, 0
2, 79525, Note_on_c, 0, 54, 44
2, 79569, Note_on_c, 0, 62, 79
2, 79642, Note_on_c, 0, 63, 87
2, 79656, Note_on_c, 0, 62, 0
2, 79738, Note_on_c, 0, 62, 65
2, 79838, Note_on_c, 0, 63, 0
2, 79975, Control_c, 0, 64, 63
2, 80013, Control_c, 0, 64, 0
2, 80446, Note_on_c, 0, 46, 61
2, 80628, Control_c, 0, 64, 63
2, 80632, Control_c, 0, 64, 127
2, 80787, Note_on_c, 0, 57, 67
2, 80800, Note_on_c, 0, 62, 0
2, 80942, Note_on_c, 0, 54, 0
2, 81082, Note_on_c, 0, 51, 0
2, 81128, Note_on_c, 0, 46, 0
2, 81146, Note_on_c, 0, 58, 80
2, 81149, Note_on_c, 0, 50, 42
2, 81155, Note_on_c, 0, 57, 0
2, 81172, Note_on_c, 0, 53, 51
2, 81284, Control_c, 0, 64, 63
2, 81312, Control_c, 0, 64, 0
2, 81457, Note_on_c, 0, 58, 0
2, 81475, Control_c, 0, 64, 63
2, 81498, Control_c, 0, 64, 127
2, 81533, Note_on_c, 0, 61, 91
2, 81741, Note_on_c, 0, 61, 0
2, 81824, Note_on_c, 0, 46, 72
2, 81845, Note_on_c, 0, 62, 89
2, 81934, Control_c, 0, 64, 63
2, 81963, Control_c, 0, 64, 0
2, 82097, Note_on_c, 0, 62, 0
2, 82138, Control_c, 0, 64, 63
2, 82159, Control_c, 0, 64, 127
2, 82162, Note_on_c, 0, 63, 99
2, 82336, Note_on_c, 0, 50, 0
2, 82378, Note_on_c, 0, 53, 0
2, 82415, Note_on_c, 0, 63, 0
2, 82478, Note_on_c, 0, 51, 76
2, 82489, Note_on_c, 0, 65, 90
2, 82506, Note_on_c, 0, 48, 60
2, 82606, Control_c, 0, 64, 63
2, 82635, Control_c, 0, 64, 0
2, 82751, Note_on_c, 0, 65, 0
2, 82792, Control_c, 0, 64, 63
2, 82804, Note_on_c, 0, 66, 104
2, 82814, Control_c, 0, 64, 127
2, 82892, Note_on_c, 0, 46, 0
2, 83063, Note_on_c, 0, 66, 0
2, 83125, Note_on_c, 0, 46, 65
2, 83147, Note_on_c, 0, 70, 100
2, 83239, Control_c, 0, 64, 63
2, 83272, Control_c, 0, 64, 0
2, 83479, Note_on_c, 0, 69, 97
2, 83508, Note_on_c, 0, 70, 0
2, 83560, Control_c, 0, 64, 63
2, 83572, Control_c, 0, 64, 127
2, 83728, Note_on_c, 0, 48, 0
2, 83732, Note_on_c, 0, 69, 0
2, 83801, Note_on_c, 0, 53, 52
2, 83810, Note_on_c, 0, 50, 54
2, 83814, Note_on_c, 0, 51, 0
2, 83899, Note_on_c, 0, 69, 65
2, 83955, Note_on_c, 0, 72, 81
2, 84003, Control_c, 0, 64, 63
2, 84017, Control_c, 0, 64, 0
2, 84082, Note_on_c, 0, 69, 0
2, 84172, Control_c, 0, 64, 63
2, 84180, Control_c, 0, 64, 127
2, 84370, Note_on_c, 0, 46, 0
2, 84581, Note_on_c, 0, 46, 73
2, 84610, Note_on_c, 0, 72, 0
2, 84861, Note_on_c, 0, 53, 0
2, 84926, Note_on_c, 0, 46, 0
2, 84939, Note_on_c, 0, 50, 0
2, 84946, Note_on_c, 0, 70, 95
2, 85158, Note_on_c, 0, 70, 0
2, 85210, Note_on_c, 0, 50, 61
2, 85239, Note_on_c, 0, 54, 53
2, 85314, Note_on_c, 0, 60, 42
2, 85361, Note_on_c, 0, 70, 84
2, 85406, Note_on_c, 0, 74, 87
2, 85459, Control_c, 0, 64, 63
2, 85474, Control_c, 0, 64, 0
2, 85555, Note_on_c, 0, 70, 0
2, 85581, Control_c, 0, 64, 63
2, 85598, Control_c, 0, 64, 127
2, 85805, Note_on_c, 0, 60, 0
2, 85848, Note_on_c, 0, 69, 81
2, 86030, Note_on_c, 0, 69, 0
2, 86078, Note_on_c, 0, 74, 0
2, 86079, Note_on_c, 0, 46, 65
2, 86183, Note_on_c, 0, 70, 79
2, 86232, Note_on_c, 0, 74, 84
2, 86327, Control_c, 0, 64, 63
2, 86356, Note_on_c, 0, 70, 0
2, 86405, Control_c, 0, 64, 127
2, 86552, Note_on_c, 0, 69, 84
2, 86596, Note_on_c, 0, 50, 0
2, 86635, Note_on_c, 0, 54, 0
2, 86640, Note_on_c, 0, 46, 0
2, 86729, Note_on_c, 0, 69, 0
2, 86756, Note_on_c, 0, 50, 62
2, 86759, Note_on_c, 0, 74, 0
2, 86787, Note_on_c, 0, 55, 68
2, 86874, Note_on_c, 0, 58, 60
2, 86883, Note_on_c, 0, 69, 76
2, 86938, Note_on_c, 0, 74, 87
2, 86995, Control_c, 0, 64, 63
2, 87012, Control_c, 0, 64, 0
2, 87080, Control_c, 0, 64, 63
2, 87109, Control_c, 0, 64, 127
2, 87185, Note_on_c, 0, 69, 0
2, 87255, Note_on_c, 0, 74, 0
2, 87370, Note_on_c, 0, 62, 85
2, 87501, Note_on_c, 0, 55, 0
2, 87547, Note_on_c, 0, 58, 0
2, 87671, Note_on_c, 0, 46, 82
2, 87881, Note_on_c, 0, 62, 0
2, 88070, Note_on_c, 0, 67, 92
2, 88094, Note_on_c, 0, 50, 0
2, 88210, Note_on_c, 0, 67, 0
2, 88302, Note_on_c, 0, 46, 0
2, 88453, Note_on_c, 0, 52, 54
2, 88473, Note_on_c, 0, 57, 37
2, 88523, Note_on_c, 0, 62, 65
2, 88592, Note_on_c, 0, 67, 82
2, 88674, Control_c, 0, 64, 63
2, 88695, Control_c, 0, 64, 0
2, 88814, Control_c, 0, 64, 63
2, 88838, Control_c, 0, 64, 127
2, 88954, Note_on_c, 0, 62, 0
2, 89058, Note_on_c, 0, 61, 79
2, 89090, Note_on_c, 0, 67, 0
2, 89202, Note_on_c, 0, 61, 0
2, 89370, Note_on_c, 0, 45, 55
2, 89488, Note_on_c, 0, 62, 67
2, 89558, Note_on_c, 0, 67, 51
2, 89635, Control_c, 0, 64, 63
2, 89667, Control_c, 0, 64, 0
2, 89754, Control_c, 0, 64, 63
2, 89781, Control_c, 0, 64, 127
2, 89802, Note_on_c, 0, 62, 0
2, 89961, Note_on_c, 0, 61, 62
2, 90000, Note_on_c, 0, 67, 0
2, 90121, Note_on_c, 0, 61, 0
2, 90154, Note_on_c, 0, 57, 0
2, 90317, Note_on_c, 0, 50, 47
2, 90441, Note_on_c, 0, 52, 0
2, 90442, Note_on_c, 0, 62, 54
2, 90462, Note_on_c, 0, 45, 0
2, 90508, Note_on_c, 0, 67, 63
2, 90524, Control_c, 0, 64, 63
2, 90630, Control_c, 0, 64, 127
2, 90836, Note_on_c, 0, 62, 0
2, 91108, Note_on_c, 0, 57, 35
2, 91546, Note_on_c, 0, 38, 49
2, 92003, Note_on_c, 0, 67, 0
2, 92156, Note_on_c, 0, 38, 0
2, 92158, Note_on_c, 0, 66, 55
2, 92226, Note_on_c, 0, 57, 0
2, 92337, Note_on_c, 0, 50, 0
2, 92485, Note_on_c, 0, 66, 0
2, 92898, Note_on_c, 0, 55, 30
2, 92934, Note_on_c, 0, 58, 67
2, 93055, Control_c, 0, 64, 63
2, 93154, Control_c, 0, 64, 127
2, 93239, Note_on_c, 0, 58, 0
2, 93383, Note_on_c, 0, 62, 63
2, 93497, Note_on_c, 0, 63, 61
2, 93501, Note_on_c, 0, 62, 0
2, 93594, Note_on_c, 0, 63, 0
2, 93610, Note_on_c, 0, 62, 52
2, 93701, Note_on_c, 0, 50, 45
2, 93764, Note_on_c, 0, 61, 78
2, 93795, Note_on_c, 0, 62, 0
2, 93825, Control_c, 0, 64, 63
2, 93864, Control_c, 0, 64, 0
2, 93902, Control_c, 0, 64, 63
2, 93941, Control_c, 0, 64, 127
2, 94148, Note_on_c, 0, 61, 0
2, 94292, Note_on_c, 0, 55, 0
2, 94362, Note_on_c, 0, 62, 81
2, 94453, Note_on_c, 0, 62, 0
2, 94631, Note_on_c, 0, 60, 55
2, 94643, Note_on_c, 0, 57, 49
2, 94679, Note_on_c, 0, 66, 76
2, 94790, Control_c, 0, 64, 63
2, 94804, Note_on_c, 0, 66, 0
2, 94851, Control_c, 0, 64, 0
2, 94911, Note_on_c, 0, 68, 60
2, 95017, Note_on_c, 0, 68, 0
2, 95029, Note_on_c, 0, 50, 0
2, 95108, Note_on_c, 0, 69, 53
2, 95186, Note_on_c, 0, 69, 0
2, 95299, Note_on_c, 0, 73, 65
2, 95402, Note_on_c, 0, 73, 0
2, 95457, Note_on_c, 0, 50, 28
2, 95593, Note_on_c, 0, 74, 57
2, 95814, Control_c, 0, 64, 63
2, 95825, Control_c, 0, 64, 127
2, 96123, Note_on_c, 0, 74, 0
2, 96190, Note_on_c, 0, 60, 0
2, 96203, Note_on_c, 0, 57, 0
2, 96474, Note_on_c, 0, 58, 56
2, 96493, Note_on_c, 0, 62, 41
2, 96560, Control_c, 0, 64, 63
2, 96623, Control_c, 0, 64, 127
2, 96827, Note_on_c, 0, 79, 79
2, 96913, Note_on_c, 0, 79, 0
2, 96980, Note_on_c, 0, 50, 0
2, 97048, Note_on_c, 0, 79, 75
2, 97107, Note_on_c, 0, 81, 84
2, 97118, Note_on_c, 0, 79, 0
2, 97202, Note_on_c, 0, 79, 88
2, 97223, Note_on_c, 0, 81, 0
2, 97288, Note_on_c, 0, 50, 55
2, 97331, Note_on_c, 0, 78, 100
2, 97385, Note_on_c, 0, 79, 0
2, 97394, Control_c, 0, 64, 63
2, 97427, Control_c, 0, 64, 0
2, 97573, Control_c, 0, 64, 63
2, 97591, Control_c, 0, 64, 127
2, 97759, Note_on_c, 0, 78, 0
2, 97836, Note_on_c, 0, 62, 0
2, 97862, Note_on_c, 0, 58, 0
2, 97879, Note_on_c, 0, 79, 98
2, 98031, Note_on_c, 0, 57, 36
2, 98051, Note_on_c, 0, 60, 58
2, 98086, Note_on_c, 0, 79, 0
2, 98159, Note_on_c, 0, 86, 89
2, 98168, Control_c, 0, 64, 63
2, 98203, Control_c, 0, 64, 0
2, 98267, Control_c, 0, 64, 63
2, 98299, Control_c, 0, 64, 127
2, 98436, Note_on_c, 0, 86, 0
2, 98507, Note_on_c, 0, 50, 0
2, 98553, Note_on_c, 0, 74, 71
2, 98760, Note_on_c, 0, 74, 0
2, 98895, Note_on_c, 0, 50, 48
2, 99412, Note_on_c, 0, 62, 32
2, 99587, Note_on_c, 0, 57, 0
2, 99647, Note_on_c, 0, 60, 0
2, 99718, Note_on_c, 0, 62, 0
2, 99863, Note_on_c, 0, 58, 52
2, 99905, Note_on_c, 0, 55, 19
2, 99924, Note_on_c, 0, 50, 0
2, 100055, Control_c, 0, 64, 63
2, 100084, Control_c, 0, 64, 0
2, 100158, Control_c, 0, 64, 63
2, 100190, Control_c, 0, 64, 127
2, 100438, Note_on_c, 0, 62, 69
2, 100521, Note_on_c, 0, 63, 81
2, 100534, Note_on_c, 0, 62, 0
2, 100624, Note_on_c, 0, 62, 62
2, 100638, Note_on_c, 0, 63, 0
2, 100765, Note_on_c, 0, 50, 37
2, 100793, Note_on_c, 0, 61, 85
2, 100833, Note_on_c, 0, 62, 0
2, 100868, Control_c, 0, 64, 63
2, 100897, Control_c, 0, 64, 0
2, 101027, Control_c, 0, 64, 63
2, 101047, Control_c, 0, 64, 127
2, 101321, Note_on_c, 0, 61, 0
2, 101451, Note_on_c, 0, 58, 0
2, 101466, Note_on_c, 0, 62, 76
2, 101638, Control_c, 0, 64, 63
2, 101655, Note_on_c, 0, 57, 38
2, 101676, Note_on_c, 0, 60, 51
2, 101678, Control_c, 0, 64, 0
2, 101688, Note_on_c, 0, 62, 0
2, 101744, Control_c, 0, 64, 63
2, 101791, Control_c, 0, 64, 127
2, 101795, Note_on_c, 0, 66, 71
2, 101806, Note_on_c, 0, 55, 0
2, 101932, Note_on_c, 0, 50, 0
2, 101978, Note_on_c, 0, 66, 0
2, 101993, Note_on_c, 0, 68, 85
2, 102082, Note_on_c, 0, 68, 0
2, 102164, Note_on_c, 0, 69, 72
2, 102244, Control_c, 0, 64, 63
2, 102252, Note_on_c, 0, 69, 0
2, 102309, Note_on_c, 0, 73, 88
2, 102317, Control_c, 0, 64, 0
2, 102400, Note_on_c, 0, 73, 0
2, 102467, Note_on_c, 0, 50, 55
2, 102517, Note_on_c, 0, 74, 74
2, 102703, Control_c, 0, 64, 63
2, 102737, Control_c, 0, 64, 127
2, 102987, Note_on_c, 0, 60, 0
2, 103009, Note_on_c, 0, 74, 0
2, 103027, Note_on_c, 0, 57, 0
2, 103469, Note_on_c, 0, 58, 48
2, 103479, Note_on_c, 0, 62, 45
2, 103574, Control_c, 0, 64, 63
2, 103602, Control_c, 0, 64, 0
2, 103732, Control_c, 0, 64, 63
2, 103758, Control_c, 0, 64, 127
2, 104171, Note_on_c, 0, 79, 59
2, 104299, Note_on_c, 0, 50, 0
2, 104347, Note_on_c, 0, 79, 0
2, 104446, Note_on_c, 0, 79, 76
2, 104537, Note_on_c, 0, 79, 0
2, 104573, Note_on_c, 0, 81, 51
2, 104640, Note_on_c, 0, 79, 54
2, 104652, Note_on_c, 0, 81, 0
2, 104664, Note_on_c, 0, 50, 21
2, 104793, Note_on_c, 0, 78, 70
2, 104824, Note_on_c, 0, 79, 0
2, 104861, Control_c, 0, 64, 63
2, 104901, Control_c, 0, 64, 0
2, 105047, Control_c, 0, 64, 63
2, 105070, Control_c, 0, 64, 127
2, 105309, Note_on_c, 0, 78, 0
2, 105353, Note_on_c, 0, 62, 0
2, 105391, Note_on_c, 0, 58, 0
2, 105470, Note_on_c, 0, 79, 59
2, 105608, Note_on_c, 0, 57, 17
2, 105627, Note_on_c, 0, 60, 31
2, 105745, Control_c, 0, 64, 63
2, 105757, Note_on_c, 0, 86, 59
2, 105770, Note_on_c, 0, 79, 0
2, 105790, Control_c, 0, 64, 0
2, 105884, Control_c, 0, 64, 63
2, 105918, Control_c, 0, 64, 127
2, 106008, Note_on_c, 0, 86, 0
2, 106174, Note_on_c, 0, 50, 0
2, 106233, Note_on_c, 0, 74, 51
2, 106441, Note_on_c, 0, 74, 0
2, 106607, Note_on_c, 0, 50, 48
2, 106997, Note_on_c, 0, 62, 37
2, 107059, Note_on_c, 0, 60, 0
2, 107161, Note_on_c, 0, 57, 0
2, 107246, Note_on_c, 0, 62, 0
2, 107425, Note_on_c, 0, 58, 56
2, 107455, Note_on_c, 0, 62, 25
2, 107510, Control_c, 0, 64, 63
2, 107547, Control_c, 0, 64, 0
2, 107636, Control_c, 0, 64, 63
2, 107670, Control_c, 0, 64, 127
2, 107979, Note_on_c, 0, 79, 50
2, 108069, Note_on_c, 0, 50, 0
2, 108150, Note_on_c, 0, 79, 0
2, 108240, Note_on_c, 0, 79, 59
2, 108301, Note_on_c, 0, 79, 0
2, 108311, Note_on_c, 0, 81, 63
2, 108400, Note_on_c, 0, 81, 0
2, 108401, Note_on_c, 0, 79, 57
2, 108513, Note_on_c, 0, 78, 62
2, 108519, Note_on_c, 0, 50, 41
2, 108533, Note_on_c, 0, 79, 0
2, 108682, Control_c, 0, 64, 63
2, 108726, Control_c, 0, 64, 0
2, 108862, Control_c, 0, 64, 63
2, 108887, Control_c, 0, 64, 127
2, 109137, Note_on_c, 0, 78, 0
2, 109161, Note_on_c, 0, 62, 0
2, 109208, Note_on_c, 0, 58, 0
2, 109251, Note_on_c, 0, 79, 65
2, 109418, Note_on_c, 0, 57, 29
2, 109430, Note_on_c, 0, 60, 41
2, 109521, Control_c, 0, 64, 63
2, 109537, Note_on_c, 0, 79, 0
2, 109577, Control_c, 0, 64, 0
2, 109580, Note_on_c, 0, 86, 68
2, 109623, Control_c, 0, 64, 63
2, 109663, Control_c, 0, 64, 127
2, 109906, Note_on_c, 0, 86, 0
2, 110171, Note_on_c, 0, 50, 0
2, 110181, Note_on_c, 0, 74, 42
2, 110443, Note_on_c, 0, 74, 0
2, 110558, Note_on_c, 0, 50, 55
2, 110877, Note_on_c, 0, 60, 0
2, 110918, Note_on_c, 0, 57, 0
2, 110957, Note_on_c, 0, 62, 57
2, 111148, Note_on_c, 0, 62, 0
2, 111343, Note_on_c, 0, 58, 61
2, 111380, Note_on_c, 0, 55, 41
2, 111503, Control_c, 0, 64, 63
2, 111525, Control_c, 0, 64, 0
2, 111653, Control_c, 0, 64, 63
2, 111678, Control_c, 0, 64, 127
2, 111817, Note_on_c, 0, 73, 67
2, 111876, Note_on_c, 0, 50, 0
2, 112186, Note_on_c, 0, 50, 61
2, 112484, Control_c, 0, 64, 63
2, 112605, Control_c, 0, 64, 127
2, 112623, Note_on_c, 0, 61, 52
2, 112701, Note_on_c, 0, 73, 0
2, 112836, Note_on_c, 0, 58, 0
2, 112918, Note_on_c, 0, 61, 0
2, 112965, Note_on_c, 0, 54, 53
2, 112977, Note_on_c, 0, 57, 26
2, 112984, Note_on_c, 0, 55, 0
2, 113143, Control_c, 0, 64, 63
2, 113173, Control_c, 0, 64, 0
2, 113283, Control_c, 0, 64, 63
2, 113293, Note_on_c, 0, 50, 0
2, 113310, Control_c, 0, 64, 127
2, 113440, Note_on_c, 0, 74, 52
2, 113788, Note_on_c, 0, 50, 41
2, 114105, Note_on_c, 0, 74, 0
2, 114228, Note_on_c, 0, 62, 22
2, 114321, Note_on_c, 0, 57, 0
2, 114472, Note_on_c, 0, 62, 0
2, 114657, Note_on_c, 0, 58, 21
2, 114669, Note_on_c, 0, 55, 34
2, 114732, Control_c, 0, 64, 63
2, 114741, Note_on_c, 0, 54, 0
2, 114760, Control_c, 0, 64, 0
2, 114854, Control_c, 0, 64, 63
2, 114882, Control_c, 0, 64, 127
2, 115127, Note_on_c, 0, 50, 0
2, 115234, Note_on_c, 0, 73, 54
2, 115656, Note_on_c, 0, 50, 49
2, 116054, Note_on_c, 0, 61, 58
2, 116176, Note_on_c, 0, 73, 0
2, 116349, Note_on_c, 0, 58, 0
2, 116411, Note_on_c, 0, 55, 0
2, 116415, Note_on_c, 0, 54, 52
2, 116416, Note_on_c, 0, 57, 38
2, 116454, Note_on_c, 0, 61, 0
2, 116544, Note_on_c, 0, 50, 0
2, 116863, Note_on_c, 0, 74, 48
2, 117016, Control_c, 0, 64, 63
2, 117047, Control_c, 0, 64, 0
2, 117233, Note_on_c, 0, 50, 50
2, 117242, Control_c, 0, 64, 63
2, 117266, Control_c, 0, 64, 127
2, 117606, Note_on_c, 0, 74, 0
2, 117701, Note_on_c, 0, 62, 39
2, 117879, Note_on_c, 0, 54, 0
2, 117919, Note_on_c, 0, 57, 0
2, 118065, Note_on_c, 0, 62, 0
2, 118156, Note_on_c, 0, 54, 36
2, 118169, Note_on_c, 0, 57, 21
2, 118618, Note_on_c, 0, 74, 44
2, 118721, Note_on_c, 0, 50, 0
2, 119161, Note_on_c, 0, 50, 35
2, 119486, Note_on_c, 0, 74, 0
2, 119807, Note_on_c, 0, 62, 24
2, 120115, Note_on_c, 0, 50, 0
2, 120119, Note_on_c, 0, 54, 0
2, 120129, Note_on_c, 0, 57, 0
2, 120161, Note_on_c, 0, 62, 0
2, 120597, Note_on_c, 0, 58, 36
2, 120606, Note_on_c, 0, 62, 33
2, 120995, Control_c, 0, 64, 63
2, 121153, Control_c, 0, 64, 0
2, 121992, Note_on_c, 0, 55, 15
2, 122069, Note_on_c, 0, 67, 40
2, 122215, Control_c, 0, 64, 63
2, 122222, Control_c, 0, 64, 127
2, 122644, Note_on_c, 0, 67, 0
2, 122728, Note_on_c, 0, 62, 0
2, 122891, Note_on_c, 0, 67, 48
2, 123009, Note_on_c, 0, 67, 0
2, 123012, Note_on_c, 0, 69, 48
2, 123108, Note_on_c, 0, 67, 57
2, 123129, Note_on_c, 0, 69, 0
2, 123265, Note_on_c, 0, 58, 0
2, 123282, Note_on_c, 0, 66, 66
2, 123297, Note_on_c, 0, 67, 0
2, 123305, Note_on_c, 0, 63, 15
2, 123318, Note_on_c, 0, 60, 24
2, 123440, Control_c, 0, 64, 63
2, 123486, Control_c, 0, 64, 0
2, 123635, Control_c, 0, 64, 63
2, 123660, Control_c, 0, 64, 127
2, 123825, Note_on_c, 0, 55, 0
2, 124003, Note_on_c, 0, 66, 0
2, 124258, Note_on_c, 0, 55, 35
2, 124790, Note_on_c, 0, 69, 34
2, 124907, Note_on_c, 0, 63, 0
2, 124955, Note_on_c, 0, 60, 0
2, 125002, Note_on_c, 0, 69, 0
2, 125236, Note_on_c, 0, 58, 20
2, 125287, Note_on_c, 0, 62, 25
2, 125320, Note_on_c, 0, 67, 47
2, 125401, Note_on_c, 0, 55, 0
2, 125407, Control_c, 0, 64, 63
2, 125444, Control_c, 0, 64, 0
2, 125551, Control_c, 0, 64, 63
2, 125583, Control_c, 0, 64, 127
2, 125744, Note_on_c, 0, 67, 0
2, 125783, Note_on_c, 0, 70, 63
2, 126056, Note_on_c, 0, 70, 0
2, 126188, Note_on_c, 0, 74, 75
2, 126193, Note_on_c, 0, 55, 37
2, 126403, Note_on_c, 0, 74, 0
2, 126611, Note_on_c, 0, 78, 82
2, 126881, Note_on_c, 0, 62, 0
2, 126930, Note_on_c, 0, 78, 0
2, 126981, Note_on_c, 0, 58, 0
2, 127164, Note_on_c, 0, 55, 0
2, 127175, Note_on_c, 0, 79, 71
2, 127178, Note_on_c, 0, 57, 33
2, 127179, Note_on_c, 0, 62, 22
2, 127185, Note_on_c, 0, 60, 35
2, 127536, Control_c, 0, 64, 63
2, 127585, Control_c, 0, 64, 0
2, 127865, Control_c, 0, 64, 63
2, 127876, Control_c, 0, 64, 127
2, 128054, Note_on_c, 0, 55, 44
2, 128583, Note_on_c, 0, 78, 63
2, 128627, Note_on_c, 0, 79, 0
2, 128807, Note_on_c, 0, 62, 0
2, 128903, Note_on_c, 0, 60, 0
2, 129031, Note_on_c, 0, 57, 0
2, 129061, Note_on_c, 0, 78, 0
2, 129172, Note_on_c, 0, 58, 25
2, 129184, Note_on_c, 0, 74, 52
2, 129192, Note_on_c, 0, 62, 22
2, 129332, Control_c, 0, 64, 63
2, 129359, Control_c, 0, 64, 0
2, 129505, Control_c, 0, 64, 63
2, 129525, Control_c, 0, 64, 127
2, 129742, Note_on_c, 0, 74, 0
2, 130170, Note_on_c, 0, 62, 0
2, 130172, Note_on_c, 0, 55, 0
2, 130200, Note_on_c, 0, 58, 0
2, 130472, Note_on_c, 0, 58, 20
2, 130487, Note_on_c, 0, 43, 47
2, 130494, Note_on_c, 0, 62, 17
2, 130512, Note_on_c, 0, 55, 15
2, 130779, Control_c, 0, 64, 63
2, 130868, Control_c, 0, 64, 127
2, 131035, Note_on_c, 0, 43, 0
2, 131218, Note_on_c, 0, 43, 64
2, 131338, Note_on_c, 0, 43, 0
2, 131360, Note_on_c, 0, 45, 57
2, 131451, Note_on_c, 0, 43, 74
2, 131474, Note_on_c, 0, 45, 0
2, 131569, Note_on_c, 0, 62, 0
2, 131610, Note_on_c, 0, 58, 0
2, 131611, Note_on_c, 0, 55, 0
2, 131616, Note_on_c, 0, 42, 65
2, 131617, Note_on_c, 0, 43, 0
2, 131652, Control_c, 0, 64, 63
2, 131716, Control_c, 0, 64, 0
2, 132567, Note_on_c, 0, 62, 26
2, 132568, Note_on_c, 0, 60, 32
2, 132572, Note_on_c, 0, 57, 28
2, 132677, Control_c, 0, 64, 63
2, 132684, Control_c, 0, 64, 127
2, 132996, Note_on_c, 0, 45, 53
2, 133034, Note_on_c, 0, 42, 0
2, 133341, Note_on_c, 0, 62, 0
2, 133366, Note_on_c, 0, 60, 0
2, 133398, Note_on_c, 0, 57, 0
2, 133458, Note_on_c, 0, 45, 0
2, 133535, Note_on_c, 0, 43, 49
2, 133646, Control_c, 0, 64, 63
2, 133675, Control_c, 0, 64, 0
2, 133805, Control_c, 0, 64, 63
2, 133832, Control_c, 0, 64, 127
2, 134045, Note_on_c, 0, 46, 64
2, 134059, Note_on_c, 0, 43, 0
2, 134478, Note_on_c, 0, 58, 47
2, 134479, Note_on_c, 0, 50, 76
2, 134492, Note_on_c, 0, 62, 34
2, 134536, Note_on_c, 0, 46, 0
2, 134601, Control_c, 0, 64, 63
2, 134638, Control_c, 0, 64, 0
2, 134791, Control_c, 0, 64, 63
2, 134817, Control_c, 0, 64, 127
2, 134892, Note_on_c, 0, 54, 85
2, 134911, Note_on_c, 0, 62, 0
2, 134943, Note_on_c, 0, 58, 0
2, 134963, Note_on_c, 0, 50, 0
2, 135369, Note_on_c, 0, 54, 0
2, 135390, Note_on_c, 0, 55, 69
2, 135646, Control_c, 0, 64, 63
2, 135683, Control_c, 0, 64, 0
2, 136130, Control_c, 0, 64, 63
2, 136170, Control_c, 0, 64, 127
2, 136279, Note_on_c, 0, 60, 31
2, 136281, Note_on_c, 0, 62, 23
2, 136285, Note_on_c, 0, 57, 28
2, 136359, Control_c, 0, 64, 63
2, 136438, Control_c, 0, 64, 127
2, 136759, Note_on_c, 0, 57, 0
2, 136776, Note_on_c, 0, 60, 0
2, 136786, Note_on_c, 0, 54, 71
2, 136821, Note_on_c, 0, 62, 0
2, 136836, Note_on_c, 0, 55, 0
2, 137380, Note_on_c, 0, 54, 0
2, 137381, Note_on_c, 0, 50, 58
2, 137565, Control_c, 0, 64, 63
2, 137629, Control_c, 0, 64, 0
2, 138567, Note_on_c, 0, 58, 31
2, 138577, Note_on_c, 0, 62, 29
2, 138579, Note_on_c, 0, 55, 36
2, 138580, Note_on_c, 0, 67, 40
2, 138684, Control_c, 0, 64, 63
2, 138693, Control_c, 0, 64, 127
2, 139027, Note_on_c, 0, 67, 0
2, 139194, Note_on_c, 0, 58, 0
2, 139228, Note_on_c, 0, 55, 0
2, 139267, Note_on_c, 0, 62, 0
2, 139284, Note_on_c, 0, 50, 0
2, 139311, Note_on_c, 0, 67, 63
2, 139415, Note_on_c, 0, 67, 0
2, 139429, Note_on_c, 0, 69, 51
2, 139535, Note_on_c, 0, 67, 67
2, 139561, Note_on_c, 0, 69, 0
2, 139695, Note_on_c, 0, 48, 42
2, 139707, Note_on_c, 0, 66, 69
2, 139730, Note_on_c, 0, 67, 0
2, 139812, Control_c, 0, 64, 63
2, 139852, Control_c, 0, 64, 0
2, 140065, Control_c, 0, 64, 63
2, 140078, Control_c, 0, 64, 127
2, 140466, Note_on_c, 0, 66, 0
2, 140584, Note_on_c, 0, 54, 49
2, 140591, Note_on_c, 0, 62, 32
2, 140595, Note_on_c, 0, 57, 46
2, 140832, Note_on_c, 0, 54, 0
2, 140867, Note_on_c, 0, 62, 0
2, 140879, Note_on_c, 0, 57, 0
2, 140952, Note_on_c, 0, 48, 0
2, 140978, Note_on_c, 0, 69, 62
2, 141211, Note_on_c, 0, 69, 0
2, 141404, Note_on_c, 0, 46, 66
2, 141421, Note_on_c, 0, 67, 68
2, 141510, Control_c, 0, 64, 63
2, 141531, Control_c, 0, 64, 0
2, 141671, Control_c, 0, 64, 63
2, 141684, Control_c, 0, 64, 127
2, 141821, Note_on_c, 0, 67, 0
2, 141871, Note_on_c, 0, 46, 0
2, 141908, Note_on_c, 0, 70, 75
2, 142212, Note_on_c, 0, 70, 0
2, 142290, Note_on_c, 0, 74, 84
2, 142296, Note_on_c, 0, 58, 51
2, 142302, Note_on_c, 0, 62, 46
2, 142306, Note_on_c, 0, 55, 44
2, 142411, Note_on_c, 0, 74, 0
2, 142636, Note_on_c, 0, 62, 0
2, 142661, Note_on_c, 0, 58, 0
2, 142705, Note_on_c, 0, 78, 94
2, 142712, Note_on_c, 0, 55, 0
2, 143014, Note_on_c, 0, 78, 0
2, 143227, Note_on_c, 0, 47, 71
2, 143227, Note_on_c, 0, 79, 84
2, 143370, Control_c, 0, 64, 63
2, 143383, Control_c, 0, 64, 0
2, 143549, Control_c, 0, 64, 63
2, 143558, Control_c, 0, 64, 127
2, 143732, Note_on_c, 0, 47, 0
2, 144085, Note_on_c, 0, 62, 48
2, 144108, Note_on_c, 0, 59, 55
2, 144115, Note_on_c, 0, 55, 31
2, 144243, Note_on_c, 0, 62, 0
2, 144256, Note_on_c, 0, 55, 0
2, 144262, Note_on_c, 0, 59, 0
2, 144523, Note_on_c, 0, 79, 0
2, 144586, Note_on_c, 0, 77, 96
2, 144933, Note_on_c, 0, 77, 0
2, 145156, Note_on_c, 0, 77, 77
2, 145165, Note_on_c, 0, 48, 75
2, 145486, Control_c, 0, 64, 63
2, 145514, Control_c, 0, 64, 0
2, 145706, Note_on_c, 0, 54, 81
2, 145920, Control_c, 0, 64, 63
2, 145924, Control_c, 0, 64, 127
2, 146142, Note_on_c, 0, 55, 70
2, 146150, Note_on_c, 0, 77, 0
2, 146169, Note_on_c, 0, 75, 80
2, 146188, Note_on_c, 0, 72, 64
2, 146189, Note_on_c, 0, 67, 41
2, 146204, Note_on_c, 0, 54, 0
2, 146238, Control_c, 0, 64, 63
2, 146247, Control_c, 0, 64, 0
2, 146357, Control_c, 0, 64, 63
2, 146371, Control_c, 0, 64, 127
2, 146525, Note_on_c, 0, 60, 93
2, 146548, Note_on_c, 0, 48, 0
2, 146593, Note_on_c, 0, 55, 0
2, 146702, Note_on_c, 0, 75, 0
2, 146706, Note_on_c, 0, 72, 0
2, 146855, Note_on_c, 0, 67, 0
2, 147030, Note_on_c, 0, 74, 86
2, 147054, Note_on_c, 0, 65, 82
2, 147259, Note_on_c, 0, 60, 0
2, 147288, Control_c, 0, 64, 63
2, 147313, Control_c, 0, 64, 0
2, 147531, Control_c, 0, 64, 63
2, 147539, Control_c, 0, 64, 127
2, 147960, Note_on_c, 0, 55, 38
2, 147961, Note_on_c, 0, 72, 74
2, 147963, Note_on_c, 0, 60, 44
2, 147977, Note_on_c, 0, 67, 43
2, 147991, Note_on_c, 0, 74, 0
2, 148485, Note_on_c, 0, 63, 85
2, 148539, Note_on_c, 0, 65, 0
2, 148744, Note_on_c, 0, 72, 0
2, 148815, Note_on_c, 0, 67, 0
2, 149121, Note_on_c, 0, 62, 69
2, 149147, Note_on_c, 0, 58, 38
2, 149151, Note_on_c, 0, 72, 60
2, 149162, Note_on_c, 0, 60, 0
2, 149230, Note_on_c, 0, 63, 0
2, 149261, Control_c, 0, 64, 63
2, 149277, Control_c, 0, 64, 0
2, 149414, Control_c, 0, 64, 63
2, 149431, Control_c, 0, 64, 127
2, 149752, Note_on_c, 0, 66, 76
2, 149757, Note_on_c, 0, 58, 0
2, 149764, Note_on_c, 0, 55, 0
2, 149842, Note_on_c, 0, 72, 0
2, 150097, Note_on_c, 0, 66, 0
2, 150191, Note_on_c, 0, 50, 68
2, 150196, Note_on_c, 0, 67, 77
2, 150378, Note_on_c, 0, 67, 0
2, 150590, Note_on_c, 0, 69, 89
2, 150736, Note_on_c, 0, 69, 0
2, 151047, Note_on_c, 0, 62, 0
2, 151079, Note_on_c, 0, 70, 72
2, 151090, Note_on_c, 0, 66, 61
2, 151113, Note_on_c, 0, 60, 38
2, 151276, Control_c, 0, 64, 63
2, 151308, Control_c, 0, 64, 0
2, 152166, Note_on_c, 0, 62, 47
2, 152244, Control_c, 0, 64, 63
2, 152248, Control_c, 0, 64, 127
2, 152593, Note_on_c, 0, 62, 0
2, 152613, Note_on_c, 0, 70, 0
2, 152743, Note_on_c, 0, 69, 53
2, 152779, Note_on_c, 0, 50, 0
2, 152901, Note_on_c, 0, 66, 0
2, 152981, Note_on_c, 0, 60, 0
2, 152996, Note_on_c, 0, 69, 0
2, 153530, Note_on_c, 0, 67, 48
2, 153536, Note_on_c, 0, 58, 18
2, 153543, Note_on_c, 0, 50, 25
2, 153553, Note_on_c, 0, 43, 28
2, 153763, Control_c, 0, 64, 63
2, 153798, Control_c, 0, 64, 0
2, 153977, Control_c, 0, 64, 63
2, 153995, Control_c, 0, 64, 127
2, 154205, Note_on_c, 0, 43, 0
2, 154222, Note_on_c, 0, 50, 0
2, 154245, Note_on_c, 0, 58, 0
2, 154271, Note_on_c, 0, 67, 0
2, 154924, Note_on_c, 0, 58, 16
2, 154933, Note_on_c, 0, 67, 45
2, 154948, Note_on_c, 0, 55, 32
2, 154948, Note_on_c, 0, 62, 22
2, 155144, Control_c, 0, 64, 63
2, 155184, Control_c, 0, 64, 0
2, 155270, Control_c, 0, 64, 63
2, 155307, Control_c, 0, 64, 127
2, 155423, Note_on_c, 0, 67, 0
2, 155637, Note_on_c, 0, 67, 66
2, 155739, Note_on_c, 0, 67, 0
2, 155748, Note_on_c, 0, 69, 59
2, 155858, Note_on_c, 0, 67, 55
2, 155872, Note_on_c, 0, 69, 0
2, 155966, Control_c, 0, 64, 63
2, 156025, Control_c, 0, 64, 0
2, 156043, Note_on_c, 0, 66, 57
2, 156062, Note_on_c, 0, 67, 0
2, 156254, Note_on_c, 0, 62, 0
2, 156292, Note_on_c, 0, 58, 0
2, 156929, Note_on_c, 0, 63, 28
2, 156934, Note_on_c, 0, 60, 42
2, 156946, Control_c, 0, 64, 63
2, 156964, Control_c, 0, 64, 127
2, 157187, Note_on_c, 0, 66, 0
2, 157347, Note_on_c, 0, 60, 0
2, 157384, Note_on_c, 0, 63, 0
2, 157423, Note_on_c, 0, 69, 38
2, 157846, Note_on_c, 0, 69, 0
2, 157884, Control_c, 0, 64, 63
2, 157901, Note_on_c, 0, 67, 37
2, 157942, Control_c, 0, 64, 0
2, 158100, Control_c, 0, 64, 63
2, 158142, Control_c, 0, 64, 127
2, 158305, Note_on_c, 0, 70, 55
2, 158387, Note_on_c, 0, 67, 0
2, 158705, Note_on_c, 0, 58, 50
2, 158710, Note_on_c, 0, 62, 41
2, 158715, Note_on_c, 0, 74, 74
2, 158770, Note_on_c, 0, 70, 0
2, 158936, Control_c, 0, 64, 63
2, 159016, Control_c, 0, 64, 0
2, 159157, Note_on_c, 0, 78, 89
2, 159199, Control_c, 0, 64, 63
2, 159241, Control_c, 0, 64, 127
2, 159258, Note_on_c, 0, 74, 0
2, 159515, Note_on_c, 0, 62, 0
2, 159546, Note_on_c, 0, 58, 0
2, 159698, Note_on_c, 0, 79, 81
2, 159809, Control_c, 0, 64, 63
2, 159822, Note_on_c, 0, 78, 0
2, 159923, Control_c, 0, 64, 0
2, 160622, Note_on_c, 0, 63, 32
2, 160634, Note_on_c, 0, 60, 42
2, 160870, Control_c, 0, 64, 63
2, 160890, Control_c, 0, 64, 127
2, 161140, Note_on_c, 0, 78, 63
2, 161268, Note_on_c, 0, 79, 0
2, 161270, Note_on_c, 0, 60, 0
2, 161317, Note_on_c, 0, 63, 0
2, 161578, Note_on_c, 0, 78, 0
2, 161697, Note_on_c, 0, 58, 34
2, 161708, Note_on_c, 0, 74, 50
2, 161732, Note_on_c, 0, 62, 25
2, 161776, Control_c, 0, 64, 63
2, 161802, Control_c, 0, 64, 0
2, 161923, Control_c, 0, 64, 63
2, 161950, Control_c, 0, 64, 127
2, 162206, Note_on_c, 0, 74, 0
2, 162483, Note_on_c, 0, 58, 0
2, 162485, Note_on_c, 0, 55, 0
2, 162494, Note_on_c, 0, 62, 0
2, 162900, Note_on_c, 0, 58, 22
2, 162902, Note_on_c, 0, 43, 49
2, 162922, Note_on_c, 0, 62, 22
2, 162928, Note_on_c, 0, 55, 17
2, 163102, Control_c, 0, 64, 63
2, 163144, Control_c, 0, 64, 0
2, 163210, Control_c, 0, 64, 63
2, 163253, Control_c, 0, 64, 127
2, 163376, Note_on_c, 0, 43, 0
2, 163612, Note_on_c, 0, 43, 57
2, 163627, Note_on_c, 0, 62, 0
2, 163716, Note_on_c, 0, 43, 0
2, 163721, Note_on_c, 0, 45, 60
2, 163724, Note_on_c, 0, 58, 0
2, 163725, Note_on_c, 0, 55, 0
2, 163827, Note_on_c, 0, 43, 68
2, 163847, Note_on_c, 0, 45, 0
2, 163982, Control_c, 0, 64, 63
2, 163999, Note_on_c, 0, 42, 65
2, 164009, Note_on_c, 0, 43, 0
2, 164063, Control_c, 0, 64, 0
2, 164899, Note_on_c, 0, 62, 27
2, 164900, Note_on_c, 0, 60, 31
2, 164906, Note_on_c, 0, 57, 33
2, 164989, Control_c, 0, 64, 63
2, 165001, Control_c, 0, 64, 127
2, 165382, Note_on_c, 0, 45, 51
2, 165394, Note_on_c, 0, 60, 0
2, 165395, Note_on_c, 0, 62, 0
2, 165424, Note_on_c, 0, 57, 0
2, 165430, Note_on_c, 0, 42, 0
2, 165610, Control_c, 0, 64, 63
2, 165661, Control_c, 0, 64, 0
2, 165868, Note_on_c, 0, 45, 0
2, 165891, Note_on_c, 0, 43, 52
2, 166331, Note_on_c, 0, 43, 0
2, 166368, Note_on_c, 0, 46, 60
2, 166828, Note_on_c, 0, 50, 76
2, 166835, Note_on_c, 0, 58, 38
2, 166839, Note_on_c, 0, 62, 34
2, 166840, Note_on_c, 0, 55, 26
2, 166842, Note_on_c, 0, 46, 0
2, 167035, Control_c, 0, 64, 63
2, 167060, Control_c, 0, 64, 127
2, 167301, Note_on_c, 0, 54, 86
2, 167307, Note_on_c, 0, 55, 0
2, 167341, Note_on_c, 0, 62, 0
2, 167370, Note_on_c, 0, 50, 0
2, 167415, Note_on_c, 0, 58, 0
2, 167468, Control_c, 0, 64, 63
2, 167541, Control_c, 0, 64, 127
2, 167812, Note_on_c, 0, 54, 0
2, 167838, Note_on_c, 0, 55, 59
2, 168051, Control_c, 0, 64, 63
2, 168089, Control_c, 0, 64, 0
2, 168703, Note_on_c, 0, 60, 48
2, 168704, Note_on_c, 0, 62, 41
2, 168706, Note_on_c, 0, 57, 36
2, 168790, Control_c, 0, 64, 63
2, 168800, Control_c, 0, 64, 127
2, 169207, Note_on_c, 0, 54, 65
2, 169228, Note_on_c, 0, 55, 0
2, 169229, Note_on_c, 0, 62, 0
2, 169245, Note_on_c, 0, 60, 0
2, 169274, Note_on_c, 0, 57, 0
2, 169321, Note_on_c, 0, 54, 0
2, 169850, Note_on_c, 0, 50, 50
2, 169886, Note_on_c, 0, 43, 42
2, 170020, Control_c, 0, 64, 63
2, 170060, Control_c, 0, 64, 0
2, 170910, Note_on_c, 0, 58, 36
2, 170924, Note_on_c, 0, 62, 21
2, 170980, Control_c, 0, 64, 63
2, 170993, Control_c, 0, 64, 127
2, 171224, Note_on_c, 0, 43, 0
2, 171329, Note_on_c, 0, 50, 0
2, 171532, Note_on_c, 0, 62, 0
2, 171571, Note_on_c, 0, 58, 0
2, 171879, Note_on_c, 0, 55, 37
2, 171944, Control_c, 0, 64, 63
2, 171982, Control_c, 0, 64, 0
2, 172876, Note_on_c, 0, 57, 18
2, 172889, Note_on_c, 0, 62, 14
2, 172891, Note_on_c, 0, 60, 18
2, 172955, Control_c, 0, 64, 63
2, 172966, Control_c, 0, 64, 127
2, 173383, Note_on_c, 0, 55, 0
2, 173417, Note_on_c, 0, 54, 48
2, 173554, Note_on_c, 0, 54, 0
2, 173747, Note_on_c, 0, 62, 0
2, 173789, Note_on_c, 0, 60, 0
2, 173818, Note_on_c, 0, 57, 0
2, 174058, Note_on_c, 0, 50, 49
2, 174089, Note_on_c, 0, 43, 42
2, 174200, Control_c, 0, 64, 63
2, 174246, Control_c, 0, 64, 0
2, 175168, Note_on_c, 0, 58, 29
2, 175188, Note_on_c, 0, 62, 18
2, 175239, Control_c, 0, 64, 63
2, 175252, Control_c, 0, 64, 127
2, 175526, Note_on_c, 0, 43, 0
2, 175671, Note_on_c, 0, 50, 0
2, 175833, Note_on_c, 0, 62, 0
2, 175857, Note_on_c, 0, 58, 0
2, 176363, Note_on_c, 0, 55, 30
2, 176546, Control_c, 0, 64, 63
2, 176605, Control_c, 0, 64, 0
2, 177664, Note_on_c, 0, 62, 20
2, 177667, Note_on_c, 0, 60, 24
2, 177679, Note_on_c, 0, 57, 27
2, 177707, Control_c, 0, 64, 63
2, 177727, Control_c, 0, 64, 127
2, 178282, Note_on_c, 0, 55, 0
2, 178395, Note_on_c, 0, 54, 38
2, 178588, Note_on_c, 0, 54, 0
2, 178687, Note_on_c, 0, 62, 0
2, 179533, Note_on_c, 0, 60, 0
2, 179571, Note_on_c, 0, 50, 48
2, 179595, Note_on_c, 0, 57, 0
2, 179606, Note_on_c, 0, 43, 38
2, 179753, Control_c, 0, 64, 63
2, 179820, Control_c, 0, 64, 0
2, 180473, Control_c, 0, 64, 63
2, 180495, Control_c, 0, 64, 127
2, 181214, Note_on_c, 0, 62, 18
2, 181215, Note_on_c, 0, 58, 23
2, 181221, Note_on_c, 0, 55, 20
2, 183324, Note_on_c, 0, 58, 0
2, 183324, Note_on_c, 0, 62, 0
2, 183333, Note_on_c, 0, 55, 0
2, 184089, Note_on_c, 0, 58, 14
2, 184099, Note_on_c, 0, 62, 16
2, 184101, Note_on_c, 0, 55, 10
2, 186276, Note_on_c, 0, 62, 0
2, 186278, Note_on_c, 0, 58, 0
2, 186298, Note_on_c, 0, 55, 0
2, 187446, Note_on_c, 0, 58, 8
2, 187456, Note_on_c, 0, 55, 8
2, 187461, Note_on_c, 0, 62, 10
2, 190042, Note_on_c, 0, 62, 0
2, 190086, Note_on_c, 0, 55, 0
2, 190184, Note_on_c, 0, 58, 0
2, 191694, Note_on_c, 0, 58, 8
2, 191726, Note_on_c, 0, 62, 9
2, 191727, Note_on_c, 0, 55, 6
2, 195265, Note_on_c, 0, 62, 0
2, 195277, Note_on_c, 0, 55, 0
2, 195279, Note_on_c, 0, 58, 0
2, 195299, Control_c, 0, 64, 63
2, 195329, Note_on_c, 0, 43, 0
2, 195337, Note_on_c, 0, 50, 0
2, 195460, Control_c, 0, 64, 0
2, 195907, Control_c, 0, 67, 0
2, 195907, End_track
0, 0, End_of_file
