0, 0, Header, 1, 2, 480
1, 0, Start_track
1, 0, Title_t, "Tschaikowsky  ""The Seasons"" No.12 Played (c) K.Oguri            "
1, 0, Copyright_t, "Adaptation for Disklavier pianos, by: Robert C. Kuhmann (c) 2012."
1, 0, System_exclusive, 10, 65, 16, 66, 18, 64, 0, 127, 0, 65, 247
1, 0, System_exclusive, 10, 65, 16, 66, 18, 64, 0, 4, 100, 88, 247
1, 0, Time_signature, 3, 2, 24, 8
1, 0, Key_signature, 0, "major"
1, 0, Tempo, 500000
1, 0, End_track
2, 0, Start_track
2, 0, Title_t, "Grand Piano"
2, 0, Program_c, 0, 0
2, 0, Control_c, 0, 7, 115
2, 340, System_exclusive, 10, 65, 16, 66, 18, 64, 1, 48, 3, 12, 247
2, 340, System_exclusive, 10, 65, 16, 66, 18, 64, 1, 51, 80, 60, 247
2, 340, System_exclusive, 10, 65, 16, 66, 18, 64, 1, 52, 60, 79, 247
2, 751, Control_c, 0, 0, 0
2, 752, Control_c, 0, 32, 1
2, 752, Program_c, 0, 0
2, 756, Control_c, 0, 7, 100
2, 948, Control_c, 0, 11, 100
2, 1140, Control_c, 0, 10, 64
2, 1332, Control_c, 0, 1, 0
2, 1332, Control_c, 0, 91, 80
2, 1354, Control_c, 0, 99, 1
2, 1355, Control_c, 0, 98, 32
2, 1356, Control_c, 0, 6, 62
2, 1357, Control_c, 0, 38, 0
2, 1366, Control_c, 0, 99, 1
2, 1367, Control_c, 0, 98, 33
2, 1368, Control_c, 0, 6, 54
2, 1369, Control_c, 0, 38, 0
2, 1378, Control_c, 0, 99, 1
2, 1379, Control_c, 0, 98, 99
2, 1380, Control_c, 0, 6, 62
2, 1381, Control_c, 0, 38, 0
2, 1390, Control_c, 0, 99, 1
2, 1391, Control_c, 0, 98, 100
2, 1392, Control_c, 0, 6, 60
2, 1393, Control_c, 0, 38, 0
2, 1402, Control_c, 0, 99, 1
2, 1403, Control_c, 0, 98, 102
2, 1404, Control_c, 0, 6, 70
2, 1405, Control_c, 0, 38, 0
2, 2144, Note_on_c, 0, 44, 59
2, 2240, Control_c, 0, 64, 127
2, 2274, Note_on_c, 0, 44, 0
2, 2638, Note_on_c, 0, 68, 76
2, 2659, Note_on_c, 0, 56, 53
2, 2661, Note_on_c, 0, 51, 56
2, 2688, Note_on_c, 0, 60, 23
2, 2769, Note_on_c, 0, 56, 0
2, 2782, Note_on_c, 0, 51, 0
2, 2784, Note_on_c, 0, 60, 0
2, 3004, Note_on_c, 0, 60, 54
2, 3009, Note_on_c, 0, 56, 52
2, 3018, Note_on_c, 0, 63, 52
2, 3019, Note_on_c, 0, 51, 53
2, 3066, Note_on_c, 0, 60, 0
2, 3068, Note_on_c, 0, 56, 0
2, 3083, Note_on_c, 0, 51, 0
2, 3124, Note_on_c, 0, 63, 0
2, 3315, Control_c, 0, 64, 63
2, 3325, Note_on_c, 0, 70, 92
2, 3328, Control_c, 0, 64, 0
2, 3333, Note_on_c, 0, 39, 77
2, 3350, Control_c, 0, 64, 63
2, 3370, Note_on_c, 0, 68, 0
2, 3376, Control_c, 0, 64, 127
2, 3406, Note_on_c, 0, 39, 0
2, 3628, Note_on_c, 0, 56, 69
2, 3639, Note_on_c, 0, 60, 63
2, 3641, Note_on_c, 0, 51, 55
2, 3651, Note_on_c, 0, 63, 70
2, 3656, Note_on_c, 0, 68, 70
2, 3711, Note_on_c, 0, 51, 0
2, 3712, Note_on_c, 0, 60, 0
2, 3718, Note_on_c, 0, 56, 0
2, 3731, Note_on_c, 0, 63, 0
2, 3866, Note_on_c, 0, 70, 0
2, 3929, Note_on_c, 0, 60, 61
2, 3929, Note_on_c, 0, 56, 60
2, 3931, Note_on_c, 0, 51, 71
2, 3953, Note_on_c, 0, 72, 88
2, 3974, Note_on_c, 0, 60, 0
2, 3978, Note_on_c, 0, 68, 0
2, 3982, Note_on_c, 0, 56, 0
2, 4007, Note_on_c, 0, 51, 0
2, 4022, Note_on_c, 0, 72, 0
2, 4150, Control_c, 0, 64, 63
2, 4161, Control_c, 0, 64, 0
2, 4222, Note_on_c, 0, 46, 79
2, 4271, Control_c, 0, 64, 63
2, 4278, Control_c, 0, 64, 127
2, 4311, Note_on_c, 0, 46, 0
2, 4519, Note_on_c, 0, 73, 92
2, 4534, Note_on_c, 0, 51, 61
2, 4545, Note_on_c, 0, 61, 61
2, 4549, Note_on_c, 0, 55, 56
2, 4605, Note_on_c, 0, 61, 0
2, 4650, Note_on_c, 0, 55, 0
2, 4652, Note_on_c, 0, 51, 0
2, 4791, Note_on_c, 0, 61, 70
2, 4795, Note_on_c, 0, 63, 64
2, 4799, Note_on_c, 0, 51, 64
2, 4815, Note_on_c, 0, 67, 59
2, 4823, Note_on_c, 0, 61, 0
2, 4874, Note_on_c, 0, 51, 0
2, 4909, Note_on_c, 0, 73, 0
2, 4918, Note_on_c, 0, 63, 0
2, 5042, Control_c, 0, 64, 63
2, 5050, Control_c, 0, 64, 0
2, 5063, Note_on_c, 0, 39, 80
2, 5080, Note_on_c, 0, 72, 103
2, 5114, Control_c, 0, 64, 63
2, 5133, Control_c, 0, 64, 127
2, 5141, Note_on_c, 0, 67, 0
2, 5145, Note_on_c, 0, 39, 0
2, 5377, Note_on_c, 0, 63, 68
2, 5382, Note_on_c, 0, 61, 75
2, 5382, Note_on_c, 0, 55, 43
2, 5383, Note_on_c, 0, 67, 58
2, 5388, Note_on_c, 0, 51, 63
2, 5442, Note_on_c, 0, 51, 0
2, 5445, Note_on_c, 0, 61, 0
2, 5478, Note_on_c, 0, 72, 0
2, 5479, Note_on_c, 0, 55, 0
2, 5535, Note_on_c, 0, 63, 0
2, 5560, Note_on_c, 0, 67, 0
2, 5673, Note_on_c, 0, 70, 96
2, 5676, Note_on_c, 0, 61, 59
2, 5702, Note_on_c, 0, 51, 69
2, 5711, Note_on_c, 0, 61, 0
2, 5784, Note_on_c, 0, 70, 0
2, 5914, Control_c, 0, 64, 63
2, 5922, Control_c, 0, 64, 0
2, 5943, Note_on_c, 0, 44, 101
2, 5988, Note_on_c, 0, 51, 0
2, 6039, Control_c, 0, 64, 63
2, 6047, Control_c, 0, 64, 127
2, 6099, Note_on_c, 0, 44, 0
2, 6232, Note_on_c, 0, 72, 96
2, 6235, Note_on_c, 0, 51, 75
2, 6265, Note_on_c, 0, 60, 55
2, 6267, Note_on_c, 0, 56, 68
2, 6333, Note_on_c, 0, 60, 0
2, 6347, Note_on_c, 0, 51, 0
2, 6350, Note_on_c, 0, 56, 0
2, 6507, Note_on_c, 0, 56, 84
2, 6508, Note_on_c, 0, 68, 91
2, 6513, Note_on_c, 0, 60, 65
2, 6513, Note_on_c, 0, 51, 89
2, 6518, Note_on_c, 0, 63, 83
2, 6545, Note_on_c, 0, 72, 0
2, 6553, Note_on_c, 0, 56, 0
2, 6554, Note_on_c, 0, 60, 0
2, 6581, Note_on_c, 0, 51, 0
2, 6597, Note_on_c, 0, 63, 0
2, 6611, Note_on_c, 0, 68, 0
2, 6759, Control_c, 0, 64, 63
2, 6771, Control_c, 0, 64, 0
2, 6795, Note_on_c, 0, 73, 113
2, 6801, Control_c, 0, 64, 63
2, 6803, Note_on_c, 0, 39, 98
2, 6828, Control_c, 0, 64, 127
2, 6892, Note_on_c, 0, 39, 0
2, 7088, Note_on_c, 0, 60, 81
2, 7090, Note_on_c, 0, 54, 70
2, 7093, Note_on_c, 0, 63, 87
2, 7093, Note_on_c, 0, 56, 70
2, 7101, Note_on_c, 0, 68, 88
2, 7151, Note_on_c, 0, 60, 0
2, 7157, Note_on_c, 0, 56, 0
2, 7160, Note_on_c, 0, 54, 0
2, 7196, Note_on_c, 0, 63, 0
2, 7334, Note_on_c, 0, 68, 0
2, 7358, Note_on_c, 0, 60, 82
2, 7359, Note_on_c, 0, 75, 109
2, 7360, Note_on_c, 0, 56, 80
2, 7370, Note_on_c, 0, 54, 84
2, 7386, Note_on_c, 0, 73, 0
2, 7398, Note_on_c, 0, 60, 0
2, 7414, Note_on_c, 0, 56, 0
2, 7425, Note_on_c, 0, 54, 0
2, 7449, Note_on_c, 0, 75, 0
2, 7618, Control_c, 0, 64, 63
2, 7627, Control_c, 0, 64, 0
2, 7645, Note_on_c, 0, 44, 92
2, 7651, Note_on_c, 0, 77, 98
2, 7666, Control_c, 0, 64, 63
2, 7687, Control_c, 0, 64, 127
2, 7715, Note_on_c, 0, 44, 0
2, 7838, Note_on_c, 0, 77, 0
2, 7930, Note_on_c, 0, 53, 47
2, 7932, Note_on_c, 0, 68, 71
2, 7937, Note_on_c, 0, 56, 60
2, 7957, Note_on_c, 0, 59, 58
2, 7966, Note_on_c, 0, 74, 78
2, 7983, Note_on_c, 0, 79, 101
2, 8019, Note_on_c, 0, 68, 0
2, 8031, Note_on_c, 0, 56, 0
2, 8035, Note_on_c, 0, 59, 0
2, 8040, Note_on_c, 0, 53, 0
2, 8060, Note_on_c, 0, 74, 0
2, 8156, Note_on_c, 0, 79, 0
2, 8284, Note_on_c, 0, 68, 64
2, 8287, Note_on_c, 0, 56, 67
2, 8297, Note_on_c, 0, 59, 55
2, 8303, Note_on_c, 0, 53, 45
2, 8352, Note_on_c, 0, 74, 65
2, 8357, Note_on_c, 0, 59, 0
2, 8370, Note_on_c, 0, 68, 0
2, 8375, Note_on_c, 0, 56, 0
2, 8384, Note_on_c, 0, 80, 107
2, 8387, Note_on_c, 0, 53, 0
2, 8423, Note_on_c, 0, 74, 0
2, 8480, Note_on_c, 0, 80, 0
2, 8705, Note_on_c, 0, 44, 85
2, 8810, Note_on_c, 0, 75, 105
2, 8815, Control_c, 0, 64, 63
2, 8823, Control_c, 0, 64, 0
2, 8897, Control_c, 0, 64, 63
2, 8912, Control_c, 0, 64, 127
2, 8948, Note_on_c, 0, 44, 0
2, 9225, Note_on_c, 0, 63, 58
2, 9226, Note_on_c, 0, 72, 68
2, 9227, Note_on_c, 0, 68, 67
2, 9228, Note_on_c, 0, 51, 55
2, 9228, Note_on_c, 0, 56, 61
2, 9242, Note_on_c, 0, 60, 43
2, 9320, Note_on_c, 0, 60, 0
2, 9321, Note_on_c, 0, 56, 0
2, 9326, Note_on_c, 0, 51, 0
2, 9329, Note_on_c, 0, 63, 0
2, 9339, Note_on_c, 0, 68, 0
2, 9380, Note_on_c, 0, 72, 0
2, 9548, Note_on_c, 0, 56, 70
2, 9551, Note_on_c, 0, 51, 67
2, 9554, Note_on_c, 0, 60, 61
2, 9564, Note_on_c, 0, 63, 64
2, 9565, Note_on_c, 0, 68, 65
2, 9568, Note_on_c, 0, 72, 71
2, 9605, Note_on_c, 0, 60, 0
2, 9612, Note_on_c, 0, 56, 0
2, 9631, Note_on_c, 0, 51, 0
2, 9633, Note_on_c, 0, 63, 0
2, 9653, Note_on_c, 0, 68, 0
2, 9663, Note_on_c, 0, 75, 0
2, 9684, Note_on_c, 0, 72, 0
2, 9811, Control_c, 0, 64, 63
2, 9819, Control_c, 0, 64, 0
2, 9838, Note_on_c, 0, 45, 94
2, 9883, Control_c, 0, 64, 63
2, 9899, Control_c, 0, 64, 127
2, 9911, Note_on_c, 0, 45, 0
2, 10144, Note_on_c, 0, 60, 84
2, 10146, Note_on_c, 0, 78, 92
2, 10149, Note_on_c, 0, 63, 85
2, 10159, Note_on_c, 0, 53, 42
2, 10202, Note_on_c, 0, 63, 0
2, 10220, Note_on_c, 0, 60, 0
2, 10228, Note_on_c, 0, 53, 0
2, 10257, Note_on_c, 0, 77, 83
2, 10303, Note_on_c, 0, 78, 0
2, 10333, Control_c, 0, 64, 63
2, 10339, Control_c, 0, 64, 0
2, 10374, Note_on_c, 0, 63, 83
2, 10379, Note_on_c, 0, 75, 101
2, 10383, Note_on_c, 0, 60, 76
2, 10384, Note_on_c, 0, 53, 73
2, 10418, Note_on_c, 0, 63, 0
2, 10420, Note_on_c, 0, 60, 0
2, 10421, Note_on_c, 0, 77, 0
2, 10462, Note_on_c, 0, 53, 0
2, 10467, Note_on_c, 0, 78, 93
2, 10532, Note_on_c, 0, 75, 0
2, 10606, Note_on_c, 0, 78, 0
2, 10609, Note_on_c, 0, 46, 93
2, 10642, Note_on_c, 0, 77, 91
2, 10674, Control_c, 0, 64, 63
2, 10676, Control_c, 0, 64, 127
2, 10696, Note_on_c, 0, 46, 0
2, 10913, Note_on_c, 0, 58, 66
2, 10924, Note_on_c, 0, 61, 56
2, 10926, Note_on_c, 0, 53, 52
2, 10964, Note_on_c, 0, 61, 0
2, 10973, Note_on_c, 0, 58, 0
2, 10989, Note_on_c, 0, 53, 0
2, 11013, Control_c, 0, 64, 63
2, 11021, Control_c, 0, 64, 0
2, 11027, Note_on_c, 0, 73, 89
2, 11033, Note_on_c, 0, 77, 0
2, 11136, Note_on_c, 0, 61, 86
2, 11137, Note_on_c, 0, 58, 76
2, 11144, Note_on_c, 0, 70, 82
2, 11158, Note_on_c, 0, 53, 65
2, 11193, Note_on_c, 0, 61, 0
2, 11200, Note_on_c, 0, 58, 0
2, 11223, Note_on_c, 0, 53, 0
2, 11225, Note_on_c, 0, 73, 0
2, 11244, Note_on_c, 0, 65, 76
2, 11309, Note_on_c, 0, 70, 0
2, 11338, Note_on_c, 0, 65, 0
2, 11415, Control_c, 0, 64, 127
2, 11416, Note_on_c, 0, 43, 82
2, 11457, Note_on_c, 0, 43, 0
2, 11716, Note_on_c, 0, 58, 79
2, 11722, Note_on_c, 0, 61, 72
2, 11724, Note_on_c, 0, 51, 76
2, 11736, Note_on_c, 0, 76, 81
2, 11763, Note_on_c, 0, 61, 0
2, 11765, Note_on_c, 0, 51, 0
2, 11770, Note_on_c, 0, 58, 0
2, 11832, Note_on_c, 0, 75, 95
2, 11839, Control_c, 0, 64, 63
2, 11849, Control_c, 0, 64, 0
2, 11866, Note_on_c, 0, 76, 0
2, 11945, Note_on_c, 0, 61, 90
2, 11955, Note_on_c, 0, 51, 89
2, 11958, Note_on_c, 0, 58, 73
2, 11963, Note_on_c, 0, 73, 91
2, 11986, Note_on_c, 0, 75, 0
2, 11993, Note_on_c, 0, 58, 0
2, 11994, Note_on_c, 0, 61, 0
2, 12016, Note_on_c, 0, 51, 0
2, 12045, Note_on_c, 0, 76, 79
2, 12061, Note_on_c, 0, 73, 0
2, 12170, Note_on_c, 0, 76, 0
2, 12202, Note_on_c, 0, 44, 92
2, 12214, Note_on_c, 0, 75, 104
2, 12231, Control_c, 0, 64, 127
2, 12275, Note_on_c, 0, 44, 0
2, 12304, Note_on_c, 0, 75, 0
2, 12440, Note_on_c, 0, 56, 72
2, 12447, Note_on_c, 0, 60, 60
2, 12453, Note_on_c, 0, 51, 59
2, 12496, Note_on_c, 0, 60, 0
2, 12500, Note_on_c, 0, 51, 0
2, 12507, Note_on_c, 0, 56, 0
2, 12568, Note_on_c, 0, 72, 91
2, 12614, Control_c, 0, 64, 63
2, 12624, Control_c, 0, 64, 0
2, 12681, Note_on_c, 0, 56, 76
2, 12682, Note_on_c, 0, 60, 60
2, 12685, Note_on_c, 0, 51, 83
2, 12696, Note_on_c, 0, 68, 75
2, 12723, Note_on_c, 0, 56, 0
2, 12727, Note_on_c, 0, 60, 0
2, 12753, Note_on_c, 0, 72, 0
2, 12759, Note_on_c, 0, 51, 0
2, 12769, Note_on_c, 0, 63, 88
2, 12821, Note_on_c, 0, 68, 0
2, 12853, Note_on_c, 0, 63, 0
2, 12939, Note_on_c, 0, 42, 105
2, 12965, Control_c, 0, 64, 127
2, 13012, Note_on_c, 0, 42, 0
2, 13290, Note_on_c, 0, 56, 60
2, 13294, Note_on_c, 0, 54, 73
2, 13311, Note_on_c, 0, 68, 94
2, 13372, Note_on_c, 0, 54, 0
2, 13379, Note_on_c, 0, 56, 0
2, 13574, Note_on_c, 0, 56, 78
2, 13578, Note_on_c, 0, 54, 76
2, 13588, Note_on_c, 0, 63, 80
2, 13600, Note_on_c, 0, 60, 65
2, 13616, Note_on_c, 0, 54, 0
2, 13641, Note_on_c, 0, 56, 0
2, 13686, Note_on_c, 0, 60, 0
2, 13785, Note_on_c, 0, 68, 0
2, 13796, Note_on_c, 0, 63, 0
2, 13823, Control_c, 0, 64, 63
2, 13831, Control_c, 0, 64, 0
2, 13836, Note_on_c, 0, 41, 93
2, 13843, Note_on_c, 0, 67, 101
2, 13899, Control_c, 0, 64, 63
2, 13922, Control_c, 0, 64, 127
2, 13928, Note_on_c, 0, 41, 0
2, 14092, Note_on_c, 0, 65, 98
2, 14103, Note_on_c, 0, 53, 83
2, 14112, Note_on_c, 0, 60, 56
2, 14118, Note_on_c, 0, 56, 70
2, 14135, Note_on_c, 0, 67, 0
2, 14170, Note_on_c, 0, 56, 0
2, 14187, Note_on_c, 0, 60, 0
2, 14199, Note_on_c, 0, 53, 0
2, 14301, Note_on_c, 0, 65, 0
2, 14359, Note_on_c, 0, 68, 109
2, 14371, Note_on_c, 0, 56, 81
2, 14373, Note_on_c, 0, 65, 85
2, 14375, Note_on_c, 0, 53, 77
2, 14397, Note_on_c, 0, 60, 54
2, 14401, Note_on_c, 0, 60, 0
2, 14421, Note_on_c, 0, 53, 0
2, 14435, Note_on_c, 0, 56, 0
2, 14450, Note_on_c, 0, 65, 0
2, 14478, Note_on_c, 0, 68, 0
2, 14659, Control_c, 0, 64, 63
2, 14664, Note_on_c, 0, 40, 98
2, 14671, Control_c, 0, 64, 0
2, 14672, Note_on_c, 0, 70, 106
2, 14730, Control_c, 0, 64, 63
2, 14753, Control_c, 0, 64, 127
2, 14758, Note_on_c, 0, 40, 0
2, 15004, Note_on_c, 0, 68, 86
2, 15016, Note_on_c, 0, 56, 68
2, 15024, Note_on_c, 0, 62, 65
2, 15035, Note_on_c, 0, 52, 66
2, 15087, Note_on_c, 0, 70, 0
2, 15102, Note_on_c, 0, 62, 0
2, 15106, Note_on_c, 0, 56, 0
2, 15123, Note_on_c, 0, 52, 0
2, 15150, Note_on_c, 0, 71, 76
2, 15185, Note_on_c, 0, 68, 0
2, 15319, Note_on_c, 0, 71, 0
2, 15327, Note_on_c, 0, 56, 70
2, 15332, Note_on_c, 0, 70, 89
2, 15343, Note_on_c, 0, 52, 59
2, 15347, Note_on_c, 0, 68, 71
2, 15376, Note_on_c, 0, 62, 41
2, 15383, Note_on_c, 0, 56, 0
2, 15392, Note_on_c, 0, 52, 0
2, 15480, Note_on_c, 0, 71, 88
2, 15500, Note_on_c, 0, 68, 0
2, 15502, Note_on_c, 0, 70, 0
2, 15506, Note_on_c, 0, 62, 0
2, 15680, Note_on_c, 0, 39, 78
2, 15688, Note_on_c, 0, 71, 0
2, 15701, Note_on_c, 0, 67, 84
2, 15706, Control_c, 0, 64, 63
2, 15713, Control_c, 0, 64, 0
2, 15779, Control_c, 0, 64, 63
2, 15799, Control_c, 0, 64, 127
2, 15837, Note_on_c, 0, 39, 0
2, 16088, Note_on_c, 0, 63, 65
2, 16106, Note_on_c, 0, 61, 54
2, 16107, Note_on_c, 0, 58, 38
2, 16118, Note_on_c, 0, 51, 33
2, 16182, Note_on_c, 0, 51, 0
2, 16199, Note_on_c, 0, 58, 0
2, 16233, Note_on_c, 0, 61, 0
2, 16267, Note_on_c, 0, 63, 0
2, 16557, Note_on_c, 0, 63, 51
2, 16558, Note_on_c, 0, 58, 38
2, 16561, Note_on_c, 0, 61, 43
2, 16563, Note_on_c, 0, 51, 46
2, 16665, Note_on_c, 0, 61, 0
2, 16698, Note_on_c, 0, 51, 0
2, 16731, Note_on_c, 0, 58, 0
2, 16766, Note_on_c, 0, 63, 0
2, 16841, Note_on_c, 0, 67, 0
2, 17095, Note_on_c, 0, 44, 56
2, 17137, Control_c, 0, 64, 63
2, 17144, Control_c, 0, 64, 0
2, 17242, Control_c, 0, 64, 63
2, 17256, Control_c, 0, 64, 127
2, 17322, Note_on_c, 0, 44, 0
2, 17649, Note_on_c, 0, 56, 48
2, 17651, Note_on_c, 0, 68, 75
2, 17665, Note_on_c, 0, 51, 35
2, 17677, Note_on_c, 0, 60, 28
2, 17768, Note_on_c, 0, 56, 0
2, 17788, Note_on_c, 0, 51, 0
2, 17791, Note_on_c, 0, 60, 0
2, 18031, Note_on_c, 0, 56, 45
2, 18045, Note_on_c, 0, 51, 45
2, 18046, Note_on_c, 0, 60, 33
2, 18049, Note_on_c, 0, 63, 54
2, 18088, Note_on_c, 0, 56, 0
2, 18096, Note_on_c, 0, 60, 0
2, 18098, Note_on_c, 0, 51, 0
2, 18148, Note_on_c, 0, 63, 0
2, 18378, Control_c, 0, 64, 63
2, 18391, Note_on_c, 0, 70, 80
2, 18393, Note_on_c, 0, 39, 66
2, 18439, Note_on_c, 0, 68, 0
2, 18448, Control_c, 0, 64, 127
2, 18476, Note_on_c, 0, 39, 0
2, 18737, Note_on_c, 0, 56, 45
2, 18761, Note_on_c, 0, 51, 37
2, 18764, Note_on_c, 0, 60, 21
2, 18778, Note_on_c, 0, 68, 54
2, 18782, Note_on_c, 0, 63, 60
2, 18809, Note_on_c, 0, 70, 0
2, 18812, Note_on_c, 0, 56, 0
2, 18818, Note_on_c, 0, 51, 0
2, 18838, Note_on_c, 0, 60, 0
2, 18881, Note_on_c, 0, 63, 0
2, 19031, Note_on_c, 0, 68, 0
2, 19060, Note_on_c, 0, 56, 60
2, 19061, Note_on_c, 0, 51, 70
2, 19079, Note_on_c, 0, 72, 80
2, 19109, Note_on_c, 0, 56, 0
2, 19138, Note_on_c, 0, 51, 0
2, 19197, Note_on_c, 0, 72, 0
2, 19231, Control_c, 0, 64, 63
2, 19241, Control_c, 0, 64, 0
2, 19328, Note_on_c, 0, 46, 90
2, 19388, Control_c, 0, 64, 63
2, 19391, Control_c, 0, 64, 127
2, 19434, Note_on_c, 0, 46, 0
2, 19641, Note_on_c, 0, 73, 82
2, 19647, Note_on_c, 0, 61, 70
2, 19658, Note_on_c, 0, 55, 51
2, 19663, Note_on_c, 0, 51, 49
2, 19721, Note_on_c, 0, 61, 0
2, 19733, Note_on_c, 0, 51, 0
2, 19741, Note_on_c, 0, 55, 0
2, 19904, Note_on_c, 0, 61, 65
2, 19912, Note_on_c, 0, 67, 67
2, 19919, Note_on_c, 0, 63, 71
2, 19936, Note_on_c, 0, 51, 65
2, 19937, Note_on_c, 0, 61, 0
2, 19978, Note_on_c, 0, 51, 0
2, 19980, Note_on_c, 0, 63, 0
2, 20022, Note_on_c, 0, 73, 0
2, 20159, Control_c, 0, 64, 63
2, 20165, Note_on_c, 0, 39, 97
2, 20172, Control_c, 0, 64, 0
2, 20177, Note_on_c, 0, 72, 97
2, 20212, Control_c, 0, 64, 63
2, 20224, Note_on_c, 0, 67, 0
2, 20237, Control_c, 0, 64, 127
2, 20238, Note_on_c, 0, 39, 0
2, 20440, Note_on_c, 0, 55, 61
2, 20441, Note_on_c, 0, 61, 82
2, 20444, Note_on_c, 0, 51, 72
2, 20450, Note_on_c, 0, 67, 66
2, 20453, Note_on_c, 0, 63, 71
2, 20511, Note_on_c, 0, 51, 0
2, 20514, Note_on_c, 0, 61, 0
2, 20534, Note_on_c, 0, 55, 0
2, 20546, Note_on_c, 0, 63, 0
2, 20577, Note_on_c, 0, 72, 0
2, 20601, Note_on_c, 0, 67, 0
2, 20726, Note_on_c, 0, 61, 59
2, 20727, Note_on_c, 0, 70, 88
2, 20760, Note_on_c, 0, 67, 28
2, 20763, Note_on_c, 0, 61, 0
2, 20771, Note_on_c, 0, 51, 55
2, 20807, Note_on_c, 0, 67, 0
2, 20845, Note_on_c, 0, 70, 0
2, 20907, Control_c, 0, 64, 63
2, 20916, Control_c, 0, 64, 0
2, 20935, Note_on_c, 0, 51, 0
2, 20977, Note_on_c, 0, 44, 104
2, 21070, Control_c, 0, 64, 63
2, 21075, Control_c, 0, 64, 127
2, 21111, Note_on_c, 0, 44, 0
2, 21289, Note_on_c, 0, 72, 104
2, 21290, Note_on_c, 0, 51, 65
2, 21295, Note_on_c, 0, 60, 73
2, 21300, Note_on_c, 0, 56, 67
2, 21373, Note_on_c, 0, 60, 0
2, 21387, Note_on_c, 0, 56, 0
2, 21394, Note_on_c, 0, 51, 0
2, 21554, Note_on_c, 0, 56, 78
2, 21559, Note_on_c, 0, 51, 88
2, 21560, Note_on_c, 0, 68, 82
2, 21570, Note_on_c, 0, 63, 80
2, 21592, Note_on_c, 0, 56, 0
2, 21601, Note_on_c, 0, 72, 0
2, 21626, Note_on_c, 0, 51, 0
2, 21674, Note_on_c, 0, 63, 0
2, 21810, Note_on_c, 0, 73, 116
2, 21817, Note_on_c, 0, 39, 100
2, 21840, Control_c, 0, 64, 63
2, 21850, Note_on_c, 0, 68, 0
2, 21893, Control_c, 0, 64, 127
2, 21905, Note_on_c, 0, 39, 0
2, 22084, Note_on_c, 0, 68, 77
2, 22085, Note_on_c, 0, 60, 85
2, 22087, Note_on_c, 0, 63, 76
2, 22090, Note_on_c, 0, 54, 76
2, 22091, Note_on_c, 0, 56, 74
2, 22148, Note_on_c, 0, 60, 0
2, 22157, Note_on_c, 0, 56, 0
2, 22171, Note_on_c, 0, 54, 0
2, 22185, Note_on_c, 0, 63, 0
2, 22307, Note_on_c, 0, 68, 0
2, 22358, Note_on_c, 0, 60, 89
2, 22359, Note_on_c, 0, 75, 116
2, 22367, Note_on_c, 0, 56, 81
2, 22368, Note_on_c, 0, 54, 87
2, 22400, Note_on_c, 0, 60, 0
2, 22409, Note_on_c, 0, 56, 0
2, 22412, Note_on_c, 0, 73, 0
2, 22423, Note_on_c, 0, 54, 0
2, 22469, Note_on_c, 0, 75, 0
2, 22680, Note_on_c, 0, 44, 100
2, 22686, Control_c, 0, 64, 63
2, 22695, Control_c, 0, 64, 0
2, 22696, Note_on_c, 0, 77, 106
2, 22739, Control_c, 0, 64, 63
2, 22758, Control_c, 0, 64, 127
2, 22802, Note_on_c, 0, 44, 0
2, 22903, Note_on_c, 0, 77, 0
2, 22996, Note_on_c, 0, 68, 64
2, 23002, Note_on_c, 0, 53, 43
2, 23021, Note_on_c, 0, 56, 54
2, 23030, Note_on_c, 0, 74, 84
2, 23035, Note_on_c, 0, 59, 60
2, 23039, Note_on_c, 0, 79, 104
2, 23083, Note_on_c, 0, 68, 0
2, 23116, Note_on_c, 0, 74, 0
2, 23131, Note_on_c, 0, 56, 0
2, 23142, Note_on_c, 0, 53, 0
2, 23161, Note_on_c, 0, 59, 0
2, 23204, Note_on_c, 0, 79, 0
2, 23343, Note_on_c, 0, 68, 67
2, 23350, Note_on_c, 0, 56, 38
2, 23363, Note_on_c, 0, 59, 46
2, 23364, Note_on_c, 0, 53, 46
2, 23401, Note_on_c, 0, 74, 52
2, 23408, Note_on_c, 0, 68, 0
2, 23426, Note_on_c, 0, 80, 109
2, 23459, Note_on_c, 0, 59, 0
2, 23465, Note_on_c, 0, 56, 0
2, 23472, Note_on_c, 0, 74, 0
2, 23505, Note_on_c, 0, 53, 0
2, 23524, Note_on_c, 0, 80, 0
2, 23770, Note_on_c, 0, 44, 80
2, 23854, Note_on_c, 0, 75, 96
2, 23864, Control_c, 0, 64, 63
2, 23875, Control_c, 0, 64, 0
2, 23921, Control_c, 0, 64, 63
2, 23942, Control_c, 0, 64, 127
2, 23998, Note_on_c, 0, 44, 0
2, 24232, Note_on_c, 0, 56, 36
2, 24237, Note_on_c, 0, 51, 42
2, 24238, Note_on_c, 0, 68, 61
2, 24240, Note_on_c, 0, 72, 69
2, 24245, Note_on_c, 0, 63, 60
2, 24254, Note_on_c, 0, 60, 33
2, 24305, Note_on_c, 0, 63, 0
2, 24322, Note_on_c, 0, 56, 0
2, 24333, Note_on_c, 0, 51, 0
2, 24335, Note_on_c, 0, 68, 0
2, 24341, Note_on_c, 0, 60, 0
2, 24366, Note_on_c, 0, 72, 0
2, 24539, Note_on_c, 0, 56, 60
2, 24540, Note_on_c, 0, 51, 62
2, 24541, Note_on_c, 0, 60, 52
2, 24560, Note_on_c, 0, 63, 58
2, 24561, Note_on_c, 0, 68, 58
2, 24579, Note_on_c, 0, 72, 49
2, 24588, Note_on_c, 0, 60, 0
2, 24588, Note_on_c, 0, 56, 0
2, 24605, Note_on_c, 0, 51, 0
2, 24612, Note_on_c, 0, 63, 0
2, 24640, Note_on_c, 0, 75, 0
2, 24641, Note_on_c, 0, 68, 0
2, 24658, Note_on_c, 0, 72, 0
2, 24778, Control_c, 0, 64, 63
2, 24786, Control_c, 0, 64, 0
2, 24822, Note_on_c, 0, 45, 89
2, 24845, Control_c, 0, 64, 63
2, 24868, Control_c, 0, 64, 127
2, 24896, Note_on_c, 0, 45, 0
2, 25132, Note_on_c, 0, 78, 84
2, 25158, Note_on_c, 0, 60, 69
2, 25171, Note_on_c, 0, 63, 57
2, 25218, Note_on_c, 0, 63, 0
2, 25235, Note_on_c, 0, 60, 0
2, 25239, Note_on_c, 0, 77, 85
2, 25309, Note_on_c, 0, 78, 0
2, 25360, Control_c, 0, 64, 63
2, 25361, Note_on_c, 0, 75, 100
2, 25364, Note_on_c, 0, 63, 81
2, 25367, Note_on_c, 0, 60, 80
2, 25371, Control_c, 0, 64, 0
2, 25386, Note_on_c, 0, 53, 41
2, 25407, Note_on_c, 0, 60, 0
2, 25409, Note_on_c, 0, 63, 0
2, 25410, Note_on_c, 0, 77, 0
2, 25442, Note_on_c, 0, 53, 0
2, 25451, Note_on_c, 0, 78, 92
2, 25538, Note_on_c, 0, 75, 0
2, 25588, Note_on_c, 0, 46, 100
2, 25598, Note_on_c, 0, 78, 0
2, 25610, Note_on_c, 0, 77, 89
2, 25639, Control_c, 0, 64, 127
2, 25665, Note_on_c, 0, 46, 0
2, 25864, Note_on_c, 0, 58, 66
2, 25873, Note_on_c, 0, 61, 63
2, 25894, Note_on_c, 0, 53, 23
2, 25912, Note_on_c, 0, 61, 0
2, 25919, Note_on_c, 0, 58, 0
2, 25932, Control_c, 0, 64, 63
2, 25940, Control_c, 0, 64, 0
2, 25941, Note_on_c, 0, 53, 0
2, 25988, Note_on_c, 0, 73, 88
2, 26032, Note_on_c, 0, 77, 0
2, 26074, Note_on_c, 0, 58, 69
2, 26076, Note_on_c, 0, 61, 74
2, 26108, Note_on_c, 0, 70, 76
2, 26118, Note_on_c, 0, 61, 0
2, 26134, Note_on_c, 0, 58, 0
2, 26204, Note_on_c, 0, 73, 0
2, 26210, Note_on_c, 0, 65, 73
2, 26275, Note_on_c, 0, 70, 0
2, 26309, Note_on_c, 0, 65, 0
2, 26369, Note_on_c, 0, 47, 100
2, 26398, Control_c, 0, 64, 127
2, 26454, Note_on_c, 0, 47, 0
2, 26758, Note_on_c, 0, 65, 62
2, 26760, Note_on_c, 0, 55, 50
2, 26761, Note_on_c, 0, 80, 95
2, 26762, Note_on_c, 0, 62, 71
2, 26836, Note_on_c, 0, 65, 0
2, 26843, Note_on_c, 0, 62, 0
2, 26879, Note_on_c, 0, 55, 0
2, 26890, Note_on_c, 0, 79, 94
2, 26901, Note_on_c, 0, 80, 0
2, 27013, Note_on_c, 0, 77, 108
2, 27017, Note_on_c, 0, 65, 73
2, 27027, Note_on_c, 0, 62, 59
2, 27058, Note_on_c, 0, 65, 0
2, 27061, Note_on_c, 0, 79, 0
2, 27075, Note_on_c, 0, 62, 0
2, 27123, Note_on_c, 0, 80, 110
2, 27148, Note_on_c, 0, 77, 0
2, 27235, Note_on_c, 0, 80, 0
2, 27257, Control_c, 0, 64, 63
2, 27266, Control_c, 0, 64, 0
2, 27268, Note_on_c, 0, 48, 99
2, 27290, Note_on_c, 0, 79, 109
2, 27339, Control_c, 0, 64, 63
2, 27358, Control_c, 0, 64, 127
2, 27371, Note_on_c, 0, 48, 0
2, 27539, Note_on_c, 0, 60, 76
2, 27546, Note_on_c, 0, 64, 68
2, 27563, Note_on_c, 0, 55, 27
2, 27602, Note_on_c, 0, 64, 0
2, 27618, Note_on_c, 0, 79, 0
2, 27620, Note_on_c, 0, 60, 0
2, 27632, Note_on_c, 0, 55, 0
2, 27646, Note_on_c, 0, 76, 99
2, 27750, Note_on_c, 0, 72, 96
2, 27776, Note_on_c, 0, 55, 74
2, 27777, Note_on_c, 0, 60, 76
2, 27778, Note_on_c, 0, 64, 67
2, 27799, Note_on_c, 0, 76, 0
2, 27812, Note_on_c, 0, 60, 0
2, 27822, Note_on_c, 0, 64, 0
2, 27825, Note_on_c, 0, 55, 0
2, 27864, Note_on_c, 0, 67, 68
2, 27870, Note_on_c, 0, 72, 0
2, 27932, Note_on_c, 0, 67, 0
2, 28051, Control_c, 0, 64, 63
2, 28062, Note_on_c, 0, 48, 87
2, 28213, Control_c, 0, 64, 127
2, 28462, Note_on_c, 0, 56, 67
2, 28479, Note_on_c, 0, 74, 89
2, 28484, Note_on_c, 0, 62, 47
2, 28490, Note_on_c, 0, 60, 48
2, 28635, Note_on_c, 0, 56, 0
2, 28672, Note_on_c, 0, 60, 0
2, 28674, Note_on_c, 0, 62, 0
2, 28826, Note_on_c, 0, 74, 0
2, 28850, Note_on_c, 0, 56, 61
2, 28860, Note_on_c, 0, 72, 78
2, 28876, Note_on_c, 0, 60, 28
2, 28878, Note_on_c, 0, 62, 26
2, 28879, Note_on_c, 0, 66, 61
2, 28900, Note_on_c, 0, 48, 0
2, 28958, Note_on_c, 0, 62, 0
2, 28961, Note_on_c, 0, 60, 0
2, 28998, Note_on_c, 0, 56, 0
2, 29005, Note_on_c, 0, 66, 0
2, 29134, Note_on_c, 0, 48, 84
2, 29151, Note_on_c, 0, 76, 102
2, 29170, Control_c, 0, 64, 63
2, 29176, Control_c, 0, 64, 0
2, 29188, Note_on_c, 0, 72, 0
2, 29238, Control_c, 0, 64, 63
2, 29251, Control_c, 0, 64, 127
2, 29271, Note_on_c, 0, 48, 0
2, 29437, Note_on_c, 0, 55, 62
2, 29440, Note_on_c, 0, 64, 69
2, 29445, Note_on_c, 0, 72, 66
2, 29446, Note_on_c, 0, 60, 63
2, 29448, Note_on_c, 0, 67, 57
2, 29463, Note_on_c, 0, 76, 0
2, 29535, Note_on_c, 0, 60, 0
2, 29544, Note_on_c, 0, 64, 0
2, 29547, Note_on_c, 0, 55, 0
2, 29584, Note_on_c, 0, 67, 0
2, 29703, Note_on_c, 0, 60, 59
2, 29706, Note_on_c, 0, 79, 89
2, 29710, Note_on_c, 0, 64, 53
2, 29713, Note_on_c, 0, 55, 51
2, 29729, Note_on_c, 0, 72, 0
2, 29747, Note_on_c, 0, 60, 0
2, 29761, Note_on_c, 0, 64, 0
2, 29763, Note_on_c, 0, 79, 0
2, 29772, Note_on_c, 0, 55, 0
2, 29934, Control_c, 0, 64, 63
2, 29943, Control_c, 0, 64, 0
2, 29965, Note_on_c, 0, 48, 86
2, 30304, Note_on_c, 0, 74, 88
2, 30317, Note_on_c, 0, 56, 67
2, 30324, Note_on_c, 0, 53, 34
2, 30328, Note_on_c, 0, 62, 59
2, 30334, Control_c, 0, 64, 63
2, 30335, Control_c, 0, 64, 127
2, 30452, Note_on_c, 0, 56, 0
2, 30459, Note_on_c, 0, 53, 0
2, 30460, Note_on_c, 0, 62, 0
2, 30608, Note_on_c, 0, 71, 76
2, 30611, Note_on_c, 0, 62, 60
2, 30612, Note_on_c, 0, 65, 66
2, 30612, Note_on_c, 0, 56, 72
2, 30621, Note_on_c, 0, 53, 63
2, 30692, Note_on_c, 0, 48, 0
2, 30708, Note_on_c, 0, 62, 0
2, 30729, Note_on_c, 0, 74, 0
2, 30753, Note_on_c, 0, 56, 0
2, 30772, Note_on_c, 0, 65, 0
2, 30792, Note_on_c, 0, 53, 0
2, 30847, Note_on_c, 0, 48, 81
2, 30869, Note_on_c, 0, 76, 93
2, 30922, Control_c, 0, 64, 63
2, 30930, Control_c, 0, 64, 0
2, 30944, Note_on_c, 0, 71, 0
2, 31052, Control_c, 0, 64, 63
2, 31067, Control_c, 0, 64, 127
2, 31129, Note_on_c, 0, 60, 61
2, 31130, Note_on_c, 0, 64, 62
2, 31133, Note_on_c, 0, 67, 67
2, 31139, Note_on_c, 0, 55, 53
2, 31195, Note_on_c, 0, 60, 0
2, 31216, Note_on_c, 0, 55, 0
2, 31258, Note_on_c, 0, 64, 0
2, 31282, Note_on_c, 0, 67, 0
2, 31411, Note_on_c, 0, 72, 77
2, 31422, Note_on_c, 0, 64, 46
2, 31424, Note_on_c, 0, 67, 59
2, 31430, Note_on_c, 0, 55, 49
2, 31431, Note_on_c, 0, 76, 0
2, 31431, Note_on_c, 0, 60, 41
2, 31439, Note_on_c, 0, 48, 0
2, 31483, Note_on_c, 0, 67, 0
2, 31487, Note_on_c, 0, 64, 0
2, 31493, Note_on_c, 0, 60, 0
2, 31513, Control_c, 0, 64, 63
2, 31520, Control_c, 0, 64, 0
2, 31521, Note_on_c, 0, 55, 0
2, 31530, Note_on_c, 0, 72, 0
2, 31667, Note_on_c, 0, 48, 76
2, 31749, Control_c, 0, 64, 63
2, 31750, Control_c, 0, 64, 127
2, 31980, Note_on_c, 0, 56, 58
2, 31996, Note_on_c, 0, 74, 84
2, 32008, Note_on_c, 0, 62, 53
2, 32009, Note_on_c, 0, 60, 51
2, 32119, Note_on_c, 0, 56, 0
2, 32122, Note_on_c, 0, 62, 0
2, 32123, Note_on_c, 0, 60, 0
2, 32310, Note_on_c, 0, 56, 68
2, 32328, Note_on_c, 0, 72, 80
2, 32329, Note_on_c, 0, 62, 52
2, 32330, Note_on_c, 0, 60, 50
2, 32337, Note_on_c, 0, 66, 70
2, 32385, Note_on_c, 0, 48, 0
2, 32398, Note_on_c, 0, 62, 0
2, 32402, Note_on_c, 0, 60, 0
2, 32412, Note_on_c, 0, 74, 0
2, 32435, Note_on_c, 0, 66, 0
2, 32438, Note_on_c, 0, 56, 0
2, 32560, Note_on_c, 0, 72, 0
2, 32566, Note_on_c, 0, 48, 84
2, 32593, Note_on_c, 0, 76, 100
2, 32595, Control_c, 0, 64, 63
2, 32602, Control_c, 0, 64, 0
2, 32669, Control_c, 0, 64, 63
2, 32683, Control_c, 0, 64, 127
2, 32693, Note_on_c, 0, 48, 0
2, 32853, Note_on_c, 0, 72, 63
2, 32855, Note_on_c, 0, 67, 55
2, 32859, Note_on_c, 0, 55, 49
2, 32872, Note_on_c, 0, 60, 31
2, 32873, Note_on_c, 0, 64, 38
2, 32883, Note_on_c, 0, 76, 0
2, 32946, Note_on_c, 0, 60, 0
2, 32968, Note_on_c, 0, 64, 0
2, 32974, Note_on_c, 0, 55, 0
2, 33000, Note_on_c, 0, 67, 0
2, 33130, Note_on_c, 0, 60, 61
2, 33134, Note_on_c, 0, 64, 57
2, 33139, Note_on_c, 0, 79, 87
2, 33149, Note_on_c, 0, 72, 0
2, 33150, Note_on_c, 0, 55, 43
2, 33193, Note_on_c, 0, 60, 0
2, 33193, Note_on_c, 0, 64, 0
2, 33216, Note_on_c, 0, 55, 0
2, 33219, Note_on_c, 0, 79, 0
2, 33479, Note_on_c, 0, 48, 55
2, 33504, Note_on_c, 0, 74, 88
2, 33555, Control_c, 0, 64, 63
2, 33568, Control_c, 0, 64, 0
2, 33600, Control_c, 0, 64, 63
2, 33627, Control_c, 0, 64, 127
2, 33892, Note_on_c, 0, 56, 55
2, 33898, Note_on_c, 0, 62, 50
2, 33906, Note_on_c, 0, 65, 44
2, 33913, Note_on_c, 0, 71, 59
2, 33941, Note_on_c, 0, 53, 14
2, 34006, Note_on_c, 0, 65, 0
2, 34008, Note_on_c, 0, 62, 0
2, 34014, Note_on_c, 0, 56, 0
2, 34061, Note_on_c, 0, 53, 0
2, 34075, Note_on_c, 0, 76, 75
2, 34087, Note_on_c, 0, 74, 0
2, 34105, Note_on_c, 0, 71, 0
2, 34280, Note_on_c, 0, 56, 52
2, 34287, Note_on_c, 0, 74, 84
2, 34289, Note_on_c, 0, 62, 36
2, 34301, Note_on_c, 0, 53, 45
2, 34314, Note_on_c, 0, 76, 0
2, 34395, Note_on_c, 0, 48, 0
2, 34398, Note_on_c, 0, 62, 0
2, 34426, Note_on_c, 0, 76, 85
2, 34429, Note_on_c, 0, 56, 0
2, 34447, Note_on_c, 0, 53, 0
2, 34466, Note_on_c, 0, 74, 0
2, 34597, Note_on_c, 0, 48, 64
2, 34613, Control_c, 0, 64, 63
2, 34622, Control_c, 0, 64, 0
2, 34639, Note_on_c, 0, 72, 90
2, 34666, Note_on_c, 0, 76, 0
2, 34684, Control_c, 0, 64, 63
2, 34705, Control_c, 0, 64, 127
2, 34743, Note_on_c, 0, 48, 0
2, 34900, Note_on_c, 0, 72, 0
2, 35000, Note_on_c, 0, 64, 37
2, 35015, Note_on_c, 0, 60, 43
2, 35024, Note_on_c, 0, 55, 28
2, 35101, Note_on_c, 0, 64, 0
2, 35103, Note_on_c, 0, 60, 0
2, 35162, Note_on_c, 0, 55, 0
2, 35173, Note_on_c, 0, 76, 78
2, 35301, Note_on_c, 0, 75, 84
2, 35324, Note_on_c, 0, 76, 0
2, 35360, Control_c, 0, 64, 63
2, 35375, Control_c, 0, 64, 0
2, 35415, Note_on_c, 0, 76, 85
2, 35449, Note_on_c, 0, 75, 0
2, 35523, Note_on_c, 0, 48, 76
2, 35569, Note_on_c, 0, 72, 93
2, 35598, Note_on_c, 0, 76, 0
2, 35609, Control_c, 0, 64, 63
2, 35611, Note_on_c, 0, 48, 0
2, 35613, Control_c, 0, 64, 127
2, 35711, Note_on_c, 0, 72, 0
2, 35828, Note_on_c, 0, 64, 76
2, 35834, Note_on_c, 0, 55, 64
2, 35847, Note_on_c, 0, 60, 76
2, 35889, Note_on_c, 0, 60, 0
2, 35905, Note_on_c, 0, 64, 0
2, 35925, Note_on_c, 0, 55, 0
2, 35969, Note_on_c, 0, 76, 101
2, 36093, Note_on_c, 0, 75, 101
2, 36143, Note_on_c, 0, 76, 0
2, 36195, Control_c, 0, 64, 63
2, 36202, Note_on_c, 0, 76, 89
2, 36222, Control_c, 0, 64, 0
2, 36256, Note_on_c, 0, 75, 0
2, 36290, Note_on_c, 0, 48, 70
2, 36347, Control_c, 0, 64, 63
2, 36350, Note_on_c, 0, 72, 80
2, 36364, Note_on_c, 0, 76, 0
2, 36369, Control_c, 0, 64, 127
2, 36381, Note_on_c, 0, 48, 0
2, 36542, Note_on_c, 0, 72, 0
2, 36571, Note_on_c, 0, 76, 69
2, 36686, Note_on_c, 0, 55, 21
2, 36698, Note_on_c, 0, 64, 28
2, 36701, Note_on_c, 0, 60, 38
2, 36742, Note_on_c, 0, 75, 76
2, 36761, Note_on_c, 0, 76, 0
2, 36843, Note_on_c, 0, 64, 0
2, 36868, Note_on_c, 0, 60, 0
2, 36874, Note_on_c, 0, 76, 76
2, 36882, Note_on_c, 0, 75, 0
2, 36884, Note_on_c, 0, 55, 0
2, 37007, Note_on_c, 0, 72, 76
2, 37015, Note_on_c, 0, 76, 0
2, 37101, Note_on_c, 0, 76, 90
2, 37126, Note_on_c, 0, 72, 0
2, 37236, Note_on_c, 0, 75, 94
2, 37283, Note_on_c, 0, 76, 0
2, 37356, Note_on_c, 0, 76, 71
2, 37374, Control_c, 0, 64, 63
2, 37395, Note_on_c, 0, 75, 0
2, 37400, Control_c, 0, 64, 0
2, 37517, Note_on_c, 0, 76, 0
2, 37518, Note_on_c, 0, 72, 76
2, 37608, Note_on_c, 0, 76, 73
2, 37628, Note_on_c, 0, 72, 0
2, 37796, Note_on_c, 0, 75, 75
2, 37812, Note_on_c, 0, 76, 0
2, 37949, Note_on_c, 0, 76, 51
2, 37960, Note_on_c, 0, 75, 0
2, 38161, Note_on_c, 0, 76, 0
2, 38212, Note_on_c, 0, 58, 51
2, 38215, Note_on_c, 0, 73, 66
2, 38306, Control_c, 0, 64, 127
2, 38406, Note_on_c, 0, 73, 0
2, 38423, Note_on_c, 0, 77, 60
2, 38622, Note_on_c, 0, 61, 65
2, 38625, Note_on_c, 0, 76, 63
2, 38632, Note_on_c, 0, 65, 38
2, 38634, Note_on_c, 0, 77, 0
2, 38693, Note_on_c, 0, 61, 0
2, 38702, Note_on_c, 0, 65, 0
2, 38748, Note_on_c, 0, 77, 76
2, 38757, Note_on_c, 0, 76, 0
2, 38816, Note_on_c, 0, 58, 0
2, 38907, Note_on_c, 0, 61, 79
2, 38925, Note_on_c, 0, 73, 81
2, 38931, Note_on_c, 0, 77, 0
2, 38955, Note_on_c, 0, 61, 0
2, 38974, Control_c, 0, 64, 63
2, 38982, Control_c, 0, 64, 0
2, 39040, Note_on_c, 0, 77, 82
2, 39042, Note_on_c, 0, 73, 0
2, 39175, Note_on_c, 0, 56, 88
2, 39201, Control_c, 0, 64, 127
2, 39205, Note_on_c, 0, 76, 75
2, 39238, Note_on_c, 0, 77, 0
2, 39345, Note_on_c, 0, 77, 73
2, 39364, Note_on_c, 0, 76, 0
2, 39444, Note_on_c, 0, 56, 0
2, 39477, Note_on_c, 0, 58, 67
2, 39485, Note_on_c, 0, 65, 48
2, 39487, Note_on_c, 0, 61, 57
2, 39503, Note_on_c, 0, 73, 77
2, 39513, Note_on_c, 0, 77, 0
2, 39537, Note_on_c, 0, 61, 0
2, 39560, Note_on_c, 0, 65, 0
2, 39591, Note_on_c, 0, 58, 0
2, 39618, Note_on_c, 0, 77, 87
2, 39628, Note_on_c, 0, 73, 0
2, 39728, Note_on_c, 0, 58, 90
2, 39731, Note_on_c, 0, 61, 88
2, 39734, Note_on_c, 0, 76, 91
2, 39738, Note_on_c, 0, 65, 63
2, 39766, Note_on_c, 0, 77, 0
2, 39785, Note_on_c, 0, 65, 0
2, 39797, Note_on_c, 0, 61, 0
2, 39827, Note_on_c, 0, 58, 0
2, 39836, Note_on_c, 0, 77, 97
2, 39883, Note_on_c, 0, 76, 0
2, 39922, Control_c, 0, 64, 63
2, 39932, Control_c, 0, 64, 0
2, 39963, Note_on_c, 0, 77, 0
2, 39971, Note_on_c, 0, 55, 89
2, 39975, Note_on_c, 0, 71, 98
2, 40009, Control_c, 0, 64, 63
2, 40030, Control_c, 0, 64, 127
2, 40082, Note_on_c, 0, 71, 0
2, 40084, Note_on_c, 0, 77, 101
2, 40206, Note_on_c, 0, 76, 96
2, 40227, Note_on_c, 0, 77, 0
2, 40228, Note_on_c, 0, 65, 84
2, 40232, Note_on_c, 0, 59, 80
2, 40237, Note_on_c, 0, 62, 80
2, 40281, Note_on_c, 0, 77, 96
2, 40309, Note_on_c, 0, 65, 0
2, 40311, Note_on_c, 0, 62, 0
2, 40319, Note_on_c, 0, 76, 0
2, 40335, Note_on_c, 0, 59, 0
2, 40410, Note_on_c, 0, 80, 96
2, 40431, Note_on_c, 0, 77, 0
2, 40461, Note_on_c, 0, 59, 81
2, 40465, Note_on_c, 0, 65, 68
2, 40469, Note_on_c, 0, 55, 0
2, 40511, Note_on_c, 0, 65, 0
2, 40512, Note_on_c, 0, 59, 0
2, 40529, Note_on_c, 0, 80, 0
2, 40559, Note_on_c, 0, 79, 89
2, 40678, Control_c, 0, 64, 63
2, 40686, Control_c, 0, 64, 0
2, 40707, Note_on_c, 0, 79, 0
2, 40761, Note_on_c, 0, 48, 91
2, 40782, Control_c, 0, 64, 63
2, 40789, Note_on_c, 0, 75, 100
2, 40791, Control_c, 0, 64, 127
2, 40850, Note_on_c, 0, 48, 0
2, 40951, Note_on_c, 0, 75, 0
2, 41110, Note_on_c, 0, 55, 66
2, 41115, Note_on_c, 0, 67, 65
2, 41118, Note_on_c, 0, 60, 70
2, 41199, Note_on_c, 0, 67, 0
2, 41201, Note_on_c, 0, 60, 0
2, 41215, Note_on_c, 0, 55, 0
2, 41244, Note_on_c, 0, 76, 80
2, 41362, Note_on_c, 0, 67, 75
2, 41367, Note_on_c, 0, 55, 63
2, 41376, Note_on_c, 0, 79, 87
2, 41384, Note_on_c, 0, 60, 63
2, 41389, Note_on_c, 0, 76, 0
2, 41427, Note_on_c, 0, 67, 0
2, 41433, Note_on_c, 0, 60, 0
2, 41441, Note_on_c, 0, 55, 0
2, 41498, Note_on_c, 0, 84, 86
2, 41513, Note_on_c, 0, 79, 0
2, 41564, Note_on_c, 0, 84, 0
2, 41752, Note_on_c, 0, 53, 73
2, 41768, Control_c, 0, 64, 63
2, 41792, Control_c, 0, 64, 0
2, 41809, Note_on_c, 0, 69, 80
2, 41848, Control_c, 0, 64, 63
2, 41885, Control_c, 0, 64, 127
2, 42000, Note_on_c, 0, 75, 91
2, 42102, Note_on_c, 0, 69, 0
2, 42150, Note_on_c, 0, 74, 87
2, 42166, Note_on_c, 0, 65, 80
2, 42177, Note_on_c, 0, 75, 0
2, 42182, Note_on_c, 0, 60, 70
2, 42186, Note_on_c, 0, 57, 58
2, 42187, Note_on_c, 0, 53, 0
2, 42244, Note_on_c, 0, 65, 0
2, 42250, Note_on_c, 0, 75, 95
2, 42256, Note_on_c, 0, 60, 0
2, 42270, Note_on_c, 0, 57, 0
2, 42300, Note_on_c, 0, 74, 0
2, 42382, Note_on_c, 0, 65, 45
2, 42383, Note_on_c, 0, 78, 98
2, 42388, Note_on_c, 0, 60, 46
2, 42390, Note_on_c, 0, 57, 48
2, 42426, Note_on_c, 0, 65, 0
2, 42429, Note_on_c, 0, 60, 0
2, 42435, Note_on_c, 0, 75, 0
2, 42440, Note_on_c, 0, 57, 0
2, 42496, Note_on_c, 0, 75, 92
2, 42583, Note_on_c, 0, 78, 0
2, 42585, Control_c, 0, 64, 63
2, 42593, Control_c, 0, 64, 0
2, 42657, Note_on_c, 0, 46, 103
2, 42659, Control_c, 0, 64, 63
2, 42678, Note_on_c, 0, 72, 101
2, 42682, Control_c, 0, 64, 127
2, 42685, Note_on_c, 0, 75, 0
2, 42728, Note_on_c, 0, 46, 0
2, 42760, Note_on_c, 0, 72, 0
2, 42951, Note_on_c, 0, 58, 61
2, 42956, Note_on_c, 0, 61, 71
2, 43019, Note_on_c, 0, 61, 0
2, 43021, Note_on_c, 0, 58, 0
2, 43044, Note_on_c, 0, 73, 99
2, 43184, Note_on_c, 0, 77, 88
2, 43188, Note_on_c, 0, 65, 70
2, 43190, Note_on_c, 0, 61, 81
2, 43191, Note_on_c, 0, 58, 80
2, 43202, Note_on_c, 0, 73, 0
2, 43231, Note_on_c, 0, 65, 0
2, 43232, Note_on_c, 0, 61, 0
2, 43254, Note_on_c, 0, 58, 0
2, 43280, Note_on_c, 0, 82, 97
2, 43303, Note_on_c, 0, 77, 0
2, 43352, Note_on_c, 0, 82, 0
2, 43396, Control_c, 0, 64, 63
2, 43405, Control_c, 0, 64, 0
2, 43437, Note_on_c, 0, 49, 105
2, 43447, Control_c, 0, 64, 63
2, 43449, Note_on_c, 0, 69, 88
2, 43467, Control_c, 0, 64, 127
2, 43519, Note_on_c, 0, 49, 0
2, 43529, Note_on_c, 0, 69, 0
2, 43702, Note_on_c, 0, 58, 82
2, 43711, Note_on_c, 0, 65, 68
2, 43716, Note_on_c, 0, 61, 69
2, 43764, Note_on_c, 0, 61, 0
2, 43773, Note_on_c, 0, 65, 0
2, 43792, Note_on_c, 0, 58, 0
2, 43829, Note_on_c, 0, 70, 92
2, 43959, Note_on_c, 0, 73, 92
2, 43970, Note_on_c, 0, 65, 46
2, 43976, Note_on_c, 0, 58, 60
2, 43977, Note_on_c, 0, 61, 62
2, 43978, Note_on_c, 0, 70, 0
2, 44021, Note_on_c, 0, 65, 0
2, 44030, Note_on_c, 0, 61, 0
2, 44072, Note_on_c, 0, 80, 79
2, 44127, Note_on_c, 0, 73, 0
2, 44233, Note_on_c, 0, 51, 71
2, 44242, Control_c, 0, 64, 63
2, 44246, Note_on_c, 0, 58, 0
2, 44249, Note_on_c, 0, 79, 84
2, 44258, Control_c, 0, 64, 0
2, 44260, Note_on_c, 0, 80, 0
2, 44284, Control_c, 0, 64, 63
2, 44318, Control_c, 0, 64, 127
2, 44421, Note_on_c, 0, 77, 83
2, 44462, Note_on_c, 0, 79, 0
2, 44476, Note_on_c, 0, 51, 0
2, 44531, Note_on_c, 0, 58, 61
2, 44545, Note_on_c, 0, 61, 70
2, 44548, Note_on_c, 0, 63, 69
2, 44568, Note_on_c, 0, 75, 95
2, 44628, Note_on_c, 0, 77, 0
2, 44636, Note_on_c, 0, 61, 0
2, 44638, Note_on_c, 0, 58, 0
2, 44655, Note_on_c, 0, 63, 0
2, 44678, Note_on_c, 0, 74, 88
2, 44758, Note_on_c, 0, 75, 0
2, 44796, Note_on_c, 0, 77, 87
2, 44809, Note_on_c, 0, 63, 67
2, 44816, Note_on_c, 0, 74, 0
2, 44820, Note_on_c, 0, 61, 66
2, 44824, Note_on_c, 0, 58, 54
2, 44877, Note_on_c, 0, 61, 0
2, 44879, Note_on_c, 0, 63, 0
2, 44885, Note_on_c, 0, 58, 0
2, 44924, Note_on_c, 0, 75, 88
2, 44957, Note_on_c, 0, 77, 0
2, 45103, Note_on_c, 0, 58, 57
2, 45145, Note_on_c, 0, 73, 72
2, 45146, Note_on_c, 0, 75, 0
2, 45199, Control_c, 0, 64, 63
2, 45215, Control_c, 0, 64, 0
2, 45313, Note_on_c, 0, 77, 74
2, 45325, Note_on_c, 0, 73, 0
2, 45337, Control_c, 0, 64, 63
2, 45364, Control_c, 0, 64, 127
2, 45456, Note_on_c, 0, 61, 70
2, 45463, Note_on_c, 0, 65, 61
2, 45472, Note_on_c, 0, 76, 80
2, 45504, Note_on_c, 0, 77, 0
2, 45547, Note_on_c, 0, 65, 0
2, 45564, Note_on_c, 0, 61, 0
2, 45579, Note_on_c, 0, 77, 82
2, 45597, Note_on_c, 0, 76, 0
2, 45648, Note_on_c, 0, 58, 0
2, 45720, Note_on_c, 0, 61, 74
2, 45722, Note_on_c, 0, 73, 96
2, 45727, Note_on_c, 0, 65, 44
2, 45736, Note_on_c, 0, 77, 0
2, 45768, Note_on_c, 0, 61, 0
2, 45779, Note_on_c, 0, 65, 0
2, 45820, Note_on_c, 0, 77, 87
2, 45840, Note_on_c, 0, 73, 0
2, 45953, Note_on_c, 0, 56, 97
2, 45971, Note_on_c, 0, 76, 88
2, 45999, Control_c, 0, 64, 63
2, 46013, Control_c, 0, 64, 0
2, 46018, Note_on_c, 0, 77, 0
2, 46104, Note_on_c, 0, 77, 88
2, 46121, Control_c, 0, 64, 63
2, 46138, Note_on_c, 0, 76, 0
2, 46142, Control_c, 0, 64, 127
2, 46189, Note_on_c, 0, 58, 80
2, 46194, Note_on_c, 0, 61, 77
2, 46204, Note_on_c, 0, 65, 62
2, 46205, Note_on_c, 0, 56, 0
2, 46247, Note_on_c, 0, 73, 91
2, 46265, Note_on_c, 0, 77, 0
2, 46289, Note_on_c, 0, 65, 0
2, 46293, Note_on_c, 0, 61, 0
2, 46317, Note_on_c, 0, 58, 0
2, 46336, Note_on_c, 0, 77, 84
2, 46361, Note_on_c, 0, 73, 0
2, 46449, Note_on_c, 0, 76, 91
2, 46453, Note_on_c, 0, 58, 95
2, 46459, Note_on_c, 0, 61, 90
2, 46463, Note_on_c, 0, 65, 75
2, 46499, Note_on_c, 0, 77, 0
2, 46511, Note_on_c, 0, 65, 0
2, 46521, Note_on_c, 0, 61, 0
2, 46553, Note_on_c, 0, 77, 93
2, 46563, Note_on_c, 0, 58, 0
2, 46600, Note_on_c, 0, 76, 0
2, 46707, Note_on_c, 0, 55, 108
2, 46714, Note_on_c, 0, 71, 87
2, 46728, Note_on_c, 0, 77, 0
2, 46767, Control_c, 0, 64, 63
2, 46779, Control_c, 0, 64, 0
2, 46845, Note_on_c, 0, 77, 88
2, 46905, Control_c, 0, 64, 63
2, 46922, Control_c, 0, 64, 127
2, 46954, Note_on_c, 0, 71, 0
2, 46985, Note_on_c, 0, 76, 70
2, 46986, Note_on_c, 0, 77, 0
2, 47000, Note_on_c, 0, 65, 84
2, 47004, Note_on_c, 0, 59, 81
2, 47007, Note_on_c, 0, 62, 80
2, 47059, Note_on_c, 0, 77, 90
2, 47071, Note_on_c, 0, 62, 0
2, 47079, Note_on_c, 0, 65, 0
2, 47109, Note_on_c, 0, 59, 0
2, 47110, Note_on_c, 0, 76, 0
2, 47191, Note_on_c, 0, 80, 98
2, 47224, Note_on_c, 0, 55, 0
2, 47226, Note_on_c, 0, 77, 0
2, 47227, Note_on_c, 0, 59, 83
2, 47228, Note_on_c, 0, 65, 84
2, 47246, Note_on_c, 0, 62, 47
2, 47265, Note_on_c, 0, 65, 0
2, 47286, Note_on_c, 0, 59, 0
2, 47292, Note_on_c, 0, 62, 0
2, 47334, Note_on_c, 0, 79, 93
2, 47343, Note_on_c, 0, 80, 0
2, 47423, Control_c, 0, 64, 63
2, 47432, Control_c, 0, 64, 0
2, 47495, Note_on_c, 0, 79, 0
2, 47496, Note_on_c, 0, 48, 103
2, 47516, Control_c, 0, 64, 63
2, 47521, Note_on_c, 0, 75, 109
2, 47527, Control_c, 0, 64, 127
2, 47579, Note_on_c, 0, 48, 0
2, 47596, Note_on_c, 0, 75, 0
2, 47828, Note_on_c, 0, 67, 77
2, 47835, Note_on_c, 0, 60, 73
2, 47846, Note_on_c, 0, 55, 38
2, 47896, Note_on_c, 0, 60, 0
2, 47900, Note_on_c, 0, 67, 0
2, 47915, Note_on_c, 0, 55, 0
2, 47953, Note_on_c, 0, 76, 84
2, 48066, Note_on_c, 0, 67, 78
2, 48067, Note_on_c, 0, 55, 72
2, 48069, Note_on_c, 0, 79, 93
2, 48074, Note_on_c, 0, 76, 0
2, 48077, Note_on_c, 0, 60, 76
2, 48113, Note_on_c, 0, 67, 0
2, 48130, Note_on_c, 0, 60, 0
2, 48143, Note_on_c, 0, 55, 0
2, 48180, Note_on_c, 0, 84, 93
2, 48198, Note_on_c, 0, 79, 0
2, 48246, Note_on_c, 0, 84, 0
2, 48384, Note_on_c, 0, 53, 75
2, 48435, Control_c, 0, 64, 63
2, 48447, Control_c, 0, 64, 0
2, 48478, Note_on_c, 0, 69, 85
2, 48508, Control_c, 0, 64, 63
2, 48538, Control_c, 0, 64, 127
2, 48549, Note_on_c, 0, 69, 0
2, 48650, Note_on_c, 0, 75, 92
2, 48792, Note_on_c, 0, 74, 92
2, 48798, Note_on_c, 0, 65, 71
2, 48814, Note_on_c, 0, 53, 0
2, 48816, Note_on_c, 0, 60, 60
2, 48817, Note_on_c, 0, 57, 54
2, 48835, Note_on_c, 0, 75, 0
2, 48877, Note_on_c, 0, 60, 0
2, 48878, Note_on_c, 0, 65, 0
2, 48891, Note_on_c, 0, 75, 96
2, 48904, Note_on_c, 0, 57, 0
2, 48940, Note_on_c, 0, 74, 0
2, 49021, Note_on_c, 0, 78, 98
2, 49049, Note_on_c, 0, 57, 55
2, 49054, Note_on_c, 0, 75, 0
2, 49097, Note_on_c, 0, 57, 0
2, 49122, Note_on_c, 0, 75, 88
2, 49189, Note_on_c, 0, 78, 0
2, 49219, Control_c, 0, 64, 63
2, 49227, Control_c, 0, 64, 0
2, 49261, Note_on_c, 0, 46, 98
2, 49301, Note_on_c, 0, 72, 99
2, 49303, Control_c, 0, 64, 63
2, 49313, Note_on_c, 0, 75, 0
2, 49319, Control_c, 0, 64, 127
2, 49336, Note_on_c, 0, 46, 0
2, 49386, Note_on_c, 0, 72, 0
2, 49542, Note_on_c, 0, 58, 53
2, 49545, Note_on_c, 0, 65, 45
2, 49563, Note_on_c, 0, 61, 50
2, 49613, Note_on_c, 0, 61, 0
2, 49640, Note_on_c, 0, 58, 0
2, 49642, Note_on_c, 0, 65, 0
2, 49672, Note_on_c, 0, 73, 92
2, 49798, Note_on_c, 0, 65, 68
2, 49805, Note_on_c, 0, 61, 74
2, 49812, Note_on_c, 0, 77, 77
2, 49813, Note_on_c, 0, 58, 56
2, 49831, Note_on_c, 0, 73, 0
2, 49851, Note_on_c, 0, 65, 0
2, 49866, Note_on_c, 0, 61, 0
2, 49886, Note_on_c, 0, 58, 0
2, 49930, Note_on_c, 0, 82, 87
2, 49950, Note_on_c, 0, 77, 0
2, 50012, Note_on_c, 0, 82, 0
2, 50107, Control_c, 0, 64, 63
2, 50119, Control_c, 0, 64, 0
2, 50125, Note_on_c, 0, 49, 87
2, 50130, Note_on_c, 0, 69, 92
2, 50148, Control_c, 0, 64, 63
2, 50175, Control_c, 0, 64, 127
2, 50233, Note_on_c, 0, 49, 0
2, 50362, Note_on_c, 0, 69, 0
2, 50404, Note_on_c, 0, 58, 71
2, 50418, Note_on_c, 0, 65, 54
2, 50430, Note_on_c, 0, 61, 61
2, 50482, Note_on_c, 0, 61, 0
2, 50510, Note_on_c, 0, 65, 0
2, 50513, Note_on_c, 0, 58, 0
2, 50535, Note_on_c, 0, 70, 89
2, 50681, Note_on_c, 0, 72, 86
2, 50701, Note_on_c, 0, 65, 56
2, 50706, Note_on_c, 0, 70, 0
2, 50709, Note_on_c, 0, 61, 70
2, 50715, Note_on_c, 0, 58, 60
2, 50756, Note_on_c, 0, 65, 0
2, 50809, Note_on_c, 0, 73, 96
2, 50828, Note_on_c, 0, 61, 0
2, 50838, Note_on_c, 0, 72, 0
2, 50944, Note_on_c, 0, 73, 0
2, 50974, Note_on_c, 0, 58, 0
2, 51000, Note_on_c, 0, 51, 67
2, 51037, Note_on_c, 0, 66, 86
2, 51074, Control_c, 0, 64, 63
2, 51086, Control_c, 0, 64, 0
2, 51170, Control_c, 0, 64, 63
2, 51189, Control_c, 0, 64, 127
2, 51265, Note_on_c, 0, 51, 0
2, 51344, Note_on_c, 0, 66, 0
2, 51408, Note_on_c, 0, 61, 61
2, 51418, Note_on_c, 0, 58, 55
2, 51419, Note_on_c, 0, 63, 69
2, 51514, Note_on_c, 0, 63, 0
2, 51525, Note_on_c, 0, 61, 0
2, 51541, Note_on_c, 0, 58, 0
2, 51595, Note_on_c, 0, 67, 66
2, 51849, Note_on_c, 0, 69, 60
2, 51856, Note_on_c, 0, 67, 0
2, 51862, Note_on_c, 0, 63, 40
2, 51864, Note_on_c, 0, 61, 45
2, 51876, Note_on_c, 0, 58, 40
2, 52052, Note_on_c, 0, 61, 0
2, 52053, Note_on_c, 0, 63, 0
2, 52107, Note_on_c, 0, 70, 59
2, 52108, Note_on_c, 0, 58, 0
2, 52146, Note_on_c, 0, 69, 0
2, 52371, Note_on_c, 0, 70, 0
2, 52433, Note_on_c, 0, 44, 72
2, 52513, Control_c, 0, 64, 63
2, 52522, Control_c, 0, 64, 0
2, 52607, Control_c, 0, 64, 63
2, 52625, Control_c, 0, 64, 127
2, 52696, Note_on_c, 0, 44, 0
2, 52997, Note_on_c, 0, 56, 46
2, 52999, Note_on_c, 0, 68, 71
2, 53011, Note_on_c, 0, 51, 51
2, 53030, Note_on_c, 0, 60, 31
2, 53132, Note_on_c, 0, 56, 0
2, 53162, Note_on_c, 0, 51, 0
2, 53163, Note_on_c, 0, 60, 0
2, 53377, Note_on_c, 0, 60, 59
2, 53380, Note_on_c, 0, 56, 57
2, 53396, Note_on_c, 0, 63, 62
2, 53409, Note_on_c, 0, 51, 57
2, 53441, Note_on_c, 0, 60, 0
2, 53453, Note_on_c, 0, 56, 0
2, 53483, Note_on_c, 0, 51, 0
2, 53498, Note_on_c, 0, 63, 0
2, 53702, Control_c, 0, 64, 63
2, 53710, Control_c, 0, 64, 0
2, 53721, Note_on_c, 0, 68, 0
2, 53728, Note_on_c, 0, 39, 71
2, 53744, Note_on_c, 0, 70, 79
2, 53761, Control_c, 0, 64, 63
2, 53788, Control_c, 0, 64, 127
2, 53818, Note_on_c, 0, 39, 0
2, 54044, Note_on_c, 0, 51, 64
2, 54047, Note_on_c, 0, 56, 60
2, 54053, Note_on_c, 0, 60, 43
2, 54058, Note_on_c, 0, 70, 0
2, 54080, Note_on_c, 0, 63, 58
2, 54092, Note_on_c, 0, 68, 57
2, 54137, Note_on_c, 0, 56, 0
2, 54138, Note_on_c, 0, 51, 0
2, 54146, Note_on_c, 0, 60, 0
2, 54161, Note_on_c, 0, 63, 0
2, 54338, Note_on_c, 0, 56, 65
2, 54339, Note_on_c, 0, 72, 80
2, 54341, Note_on_c, 0, 60, 50
2, 54347, Note_on_c, 0, 51, 65
2, 54360, Note_on_c, 0, 68, 0
2, 54388, Note_on_c, 0, 60, 0
2, 54393, Note_on_c, 0, 56, 0
2, 54411, Note_on_c, 0, 51, 0
2, 54431, Note_on_c, 0, 72, 0
2, 54540, Control_c, 0, 64, 63
2, 54551, Control_c, 0, 64, 0
2, 54582, Note_on_c, 0, 46, 97
2, 54684, Control_c, 0, 64, 63
2, 54690, Control_c, 0, 64, 127
2, 54723, Note_on_c, 0, 46, 0
2, 54891, Note_on_c, 0, 51, 60
2, 54892, Note_on_c, 0, 73, 90
2, 54916, Note_on_c, 0, 61, 70
2, 54937, Note_on_c, 0, 55, 38
2, 54988, Note_on_c, 0, 61, 0
2, 55019, Note_on_c, 0, 55, 0
2, 55022, Note_on_c, 0, 51, 0
2, 55168, Note_on_c, 0, 61, 72
2, 55172, Note_on_c, 0, 63, 75
2, 55179, Note_on_c, 0, 67, 71
2, 55194, Note_on_c, 0, 51, 65
2, 55201, Note_on_c, 0, 61, 0
2, 55274, Note_on_c, 0, 51, 0
2, 55288, Note_on_c, 0, 63, 0
2, 55315, Note_on_c, 0, 73, 0
2, 55404, Note_on_c, 0, 39, 99
2, 55413, Control_c, 0, 64, 63
2, 55415, Note_on_c, 0, 72, 90
2, 55466, Control_c, 0, 64, 127
2, 55477, Note_on_c, 0, 39, 0
2, 55491, Note_on_c, 0, 67, 0
2, 55664, Note_on_c, 0, 55, 70
2, 55695, Note_on_c, 0, 55, 0
2, 55697, Note_on_c, 0, 51, 78
2, 55702, Note_on_c, 0, 61, 73
2, 55709, Note_on_c, 0, 67, 68
2, 55715, Note_on_c, 0, 63, 68
2, 55797, Note_on_c, 0, 61, 0
2, 55814, Note_on_c, 0, 51, 0
2, 55828, Note_on_c, 0, 63, 0
2, 55868, Note_on_c, 0, 72, 0
2, 55926, Note_on_c, 0, 67, 0
2, 55970, Note_on_c, 0, 70, 91
2, 55994, Note_on_c, 0, 61, 71
2, 56018, Note_on_c, 0, 55, 33
2, 56030, Note_on_c, 0, 61, 0
2, 56036, Note_on_c, 0, 51, 54
2, 56067, Note_on_c, 0, 55, 0
2, 56078, Note_on_c, 0, 51, 0
2, 56088, Note_on_c, 0, 70, 0
2, 56177, Note_on_c, 0, 51, 22
2, 56219, Control_c, 0, 64, 63
2, 56228, Control_c, 0, 64, 0
2, 56237, Note_on_c, 0, 51, 0
2, 56249, Note_on_c, 0, 44, 103
2, 56335, Control_c, 0, 64, 63
2, 56350, Control_c, 0, 64, 127
2, 56371, Note_on_c, 0, 44, 0
2, 56575, Note_on_c, 0, 51, 66
2, 56583, Note_on_c, 0, 60, 54
2, 56584, Note_on_c, 0, 56, 63
2, 56586, Note_on_c, 0, 72, 94
2, 56670, Note_on_c, 0, 60, 0
2, 56680, Note_on_c, 0, 56, 0
2, 56685, Note_on_c, 0, 51, 0
2, 56847, Note_on_c, 0, 56, 81
2, 56851, Note_on_c, 0, 51, 94
2, 56854, Note_on_c, 0, 68, 84
2, 56857, Note_on_c, 0, 60, 45
2, 56860, Note_on_c, 0, 63, 76
2, 56888, Note_on_c, 0, 56, 0
2, 56894, Note_on_c, 0, 72, 0
2, 56899, Note_on_c, 0, 60, 0
2, 56930, Note_on_c, 0, 51, 0
2, 56983, Note_on_c, 0, 63, 0
2, 57056, Control_c, 0, 64, 63
2, 57067, Control_c, 0, 64, 0
2, 57082, Note_on_c, 0, 68, 0
2, 57094, Note_on_c, 0, 39, 104
2, 57102, Note_on_c, 0, 73, 110
2, 57113, Control_c, 0, 64, 63
2, 57136, Control_c, 0, 64, 127
2, 57149, Note_on_c, 0, 39, 0
2, 57369, Note_on_c, 0, 54, 57
2, 57370, Note_on_c, 0, 60, 69
2, 57371, Note_on_c, 0, 56, 63
2, 57374, Note_on_c, 0, 68, 87
2, 57377, Note_on_c, 0, 63, 83
2, 57452, Note_on_c, 0, 60, 0
2, 57473, Note_on_c, 0, 56, 0
2, 57474, Note_on_c, 0, 63, 0
2, 57477, Note_on_c, 0, 54, 0
2, 57623, Note_on_c, 0, 68, 0
2, 57647, Note_on_c, 0, 75, 106
2, 57652, Note_on_c, 0, 60, 62
2, 57653, Note_on_c, 0, 54, 80
2, 57657, Note_on_c, 0, 56, 66
2, 57681, Note_on_c, 0, 73, 0
2, 57695, Note_on_c, 0, 60, 0
2, 57696, Note_on_c, 0, 56, 0
2, 57704, Note_on_c, 0, 54, 0
2, 57732, Note_on_c, 0, 75, 0
2, 57913, Control_c, 0, 64, 63
2, 57923, Control_c, 0, 64, 0
2, 57945, Note_on_c, 0, 44, 97
2, 57954, Note_on_c, 0, 77, 97
2, 57977, Control_c, 0, 64, 63
2, 58000, Control_c, 0, 64, 127
2, 58031, Note_on_c, 0, 44, 0
2, 58136, Note_on_c, 0, 77, 0
2, 58220, Note_on_c, 0, 53, 68
2, 58246, Note_on_c, 0, 56, 71
2, 58261, Note_on_c, 0, 68, 72
2, 58278, Note_on_c, 0, 59, 66
2, 58307, Note_on_c, 0, 74, 71
2, 58340, Note_on_c, 0, 79, 93
2, 58353, Note_on_c, 0, 68, 0
2, 58397, Note_on_c, 0, 56, 0
2, 58404, Note_on_c, 0, 74, 0
2, 58411, Note_on_c, 0, 53, 0
2, 58418, Note_on_c, 0, 59, 0
2, 58554, Note_on_c, 0, 79, 0
2, 58630, Note_on_c, 0, 53, 57
2, 58631, Note_on_c, 0, 56, 61
2, 58654, Note_on_c, 0, 59, 68
2, 58667, Note_on_c, 0, 68, 75
2, 58717, Note_on_c, 0, 74, 61
2, 58763, Note_on_c, 0, 68, 0
2, 58778, Note_on_c, 0, 59, 0
2, 58778, Note_on_c, 0, 80, 110
2, 58789, Note_on_c, 0, 56, 0
2, 58823, Note_on_c, 0, 74, 0
2, 58824, Note_on_c, 0, 53, 0
2, 58879, Note_on_c, 0, 80, 0
2, 59199, Note_on_c, 0, 44, 70
2, 59287, Note_on_c, 0, 75, 87
2, 59387, Control_c, 0, 64, 63
2, 59399, Control_c, 0, 64, 0
2, 59437, Control_c, 0, 64, 63
2, 59463, Control_c, 0, 64, 127
2, 59522, Note_on_c, 0, 44, 0
2, 59722, Note_on_c, 0, 72, 66
2, 59723, Note_on_c, 0, 68, 60
2, 59724, Note_on_c, 0, 51, 50
2, 59727, Note_on_c, 0, 56, 58
2, 59729, Note_on_c, 0, 60, 38
2, 59735, Note_on_c, 0, 63, 54
2, 59790, Note_on_c, 0, 63, 0
2, 59814, Note_on_c, 0, 60, 0
2, 59824, Note_on_c, 0, 68, 0
2, 59829, Note_on_c, 0, 56, 0
2, 59840, Note_on_c, 0, 51, 0
2, 59859, Note_on_c, 0, 72, 0
2, 60054, Note_on_c, 0, 56, 70
2, 60054, Note_on_c, 0, 51, 80
2, 60055, Note_on_c, 0, 60, 65
2, 60057, Note_on_c, 0, 63, 68
2, 60060, Note_on_c, 0, 72, 79
2, 60060, Note_on_c, 0, 68, 68
2, 60096, Note_on_c, 0, 56, 0
2, 60098, Note_on_c, 0, 60, 0
2, 60107, Note_on_c, 0, 63, 0
2, 60121, Note_on_c, 0, 51, 0
2, 60132, Note_on_c, 0, 68, 0
2, 60161, Note_on_c, 0, 75, 0
2, 60177, Note_on_c, 0, 72, 0
2, 60280, Control_c, 0, 64, 63
2, 60288, Control_c, 0, 64, 0
2, 60329, Note_on_c, 0, 45, 89
2, 60373, Control_c, 0, 64, 63
2, 60386, Control_c, 0, 64, 127
2, 60402, Note_on_c, 0, 45, 0
2, 60598, Note_on_c, 0, 78, 91
2, 60612, Note_on_c, 0, 60, 74
2, 60628, Note_on_c, 0, 63, 68
2, 60629, Note_on_c, 0, 53, 23
2, 60672, Note_on_c, 0, 63, 0
2, 60704, Note_on_c, 0, 60, 0
2, 60715, Note_on_c, 0, 77, 82
2, 60724, Note_on_c, 0, 53, 0
2, 60785, Note_on_c, 0, 78, 0
2, 60831, Note_on_c, 0, 75, 103
2, 60832, Note_on_c, 0, 63, 85
2, 60840, Note_on_c, 0, 53, 75
2, 60842, Note_on_c, 0, 60, 71
2, 60869, Control_c, 0, 64, 63
2, 60878, Note_on_c, 0, 63, 0
2, 60879, Control_c, 0, 64, 0
2, 60882, Note_on_c, 0, 60, 0
2, 60883, Note_on_c, 0, 77, 0
2, 60911, Note_on_c, 0, 78, 95
2, 60931, Note_on_c, 0, 53, 0
2, 61008, Note_on_c, 0, 75, 0
2, 61059, Note_on_c, 0, 78, 0
2, 61063, Note_on_c, 0, 46, 110
2, 61088, Note_on_c, 0, 77, 91
2, 61104, Control_c, 0, 64, 63
2, 61106, Control_c, 0, 64, 127
2, 61135, Note_on_c, 0, 46, 0
2, 61348, Note_on_c, 0, 58, 84
2, 61351, Note_on_c, 0, 61, 86
2, 61356, Note_on_c, 0, 53, 76
2, 61393, Note_on_c, 0, 61, 0
2, 61408, Note_on_c, 0, 58, 0
2, 61433, Note_on_c, 0, 53, 0
2, 61462, Note_on_c, 0, 73, 90
2, 61464, Note_on_c, 0, 77, 0
2, 61513, Control_c, 0, 64, 63
2, 61522, Control_c, 0, 64, 0
2, 61562, Note_on_c, 0, 58, 78
2, 61563, Note_on_c, 0, 61, 87
2, 61588, Note_on_c, 0, 70, 80
2, 61590, Note_on_c, 0, 53, 56
2, 61605, Note_on_c, 0, 61, 0
2, 61617, Note_on_c, 0, 58, 0
2, 61662, Note_on_c, 0, 53, 0
2, 61670, Note_on_c, 0, 73, 0
2, 61677, Note_on_c, 0, 65, 74
2, 61741, Note_on_c, 0, 70, 0
2, 61773, Note_on_c, 0, 65, 0
2, 61823, Note_on_c, 0, 43, 111
2, 61842, Control_c, 0, 64, 63
2, 61843, Control_c, 0, 64, 127
2, 61893, Note_on_c, 0, 43, 0
2, 62096, Note_on_c, 0, 58, 83
2, 62098, Note_on_c, 0, 51, 94
2, 62110, Note_on_c, 0, 76, 91
2, 62114, Note_on_c, 0, 61, 55
2, 62143, Note_on_c, 0, 51, 0
2, 62151, Note_on_c, 0, 58, 0
2, 62153, Note_on_c, 0, 61, 0
2, 62219, Note_on_c, 0, 75, 100
2, 62221, Control_c, 0, 64, 63
2, 62229, Control_c, 0, 64, 0
2, 62254, Note_on_c, 0, 76, 0
2, 62302, Note_on_c, 0, 61, 93
2, 62309, Note_on_c, 0, 51, 81
2, 62318, Note_on_c, 0, 58, 71
2, 62343, Note_on_c, 0, 73, 96
2, 62352, Note_on_c, 0, 58, 0
2, 62357, Note_on_c, 0, 61, 0
2, 62370, Note_on_c, 0, 75, 0
2, 62378, Note_on_c, 0, 51, 0
2, 62420, Note_on_c, 0, 76, 92
2, 62454, Note_on_c, 0, 73, 0
2, 62507, Note_on_c, 0, 76, 0
2, 62567, Note_on_c, 0, 44, 107
2, 62586, Control_c, 0, 64, 127
2, 62594, Note_on_c, 0, 75, 107
2, 62631, Note_on_c, 0, 44, 0
2, 62792, Note_on_c, 0, 75, 0
2, 62821, Note_on_c, 0, 56, 70
2, 62825, Note_on_c, 0, 51, 78
2, 62828, Note_on_c, 0, 60, 74
2, 62885, Note_on_c, 0, 56, 0
2, 62887, Note_on_c, 0, 60, 0
2, 62898, Note_on_c, 0, 51, 0
2, 62964, Note_on_c, 0, 72, 97
2, 63051, Note_on_c, 0, 60, 60
2, 63052, Note_on_c, 0, 56, 72
2, 63055, Note_on_c, 0, 51, 81
2, 63070, Note_on_c, 0, 68, 90
2, 63091, Note_on_c, 0, 56, 0
2, 63096, Note_on_c, 0, 60, 0
2, 63108, Note_on_c, 0, 72, 0
2, 63126, Note_on_c, 0, 51, 0
2, 63162, Control_c, 0, 64, 63
2, 63174, Control_c, 0, 64, 0
2, 63177, Note_on_c, 0, 63, 88
2, 63203, Note_on_c, 0, 68, 0
2, 63230, Note_on_c, 0, 63, 0
2, 63308, Note_on_c, 0, 42, 110
2, 63346, Control_c, 0, 64, 63
2, 63351, Control_c, 0, 64, 127
2, 63373, Note_on_c, 0, 42, 0
2, 63628, Note_on_c, 0, 56, 59
2, 63629, Note_on_c, 0, 68, 101
2, 63645, Note_on_c, 0, 54, 56
2, 63708, Note_on_c, 0, 56, 0
2, 63725, Note_on_c, 0, 54, 0
2, 63864, Note_on_c, 0, 56, 92
2, 63877, Note_on_c, 0, 63, 95
2, 63891, Note_on_c, 0, 60, 85
2, 63895, Note_on_c, 0, 54, 32
2, 63911, Note_on_c, 0, 56, 0
2, 63928, Note_on_c, 0, 54, 0
2, 63961, Note_on_c, 0, 60, 0
2, 64040, Note_on_c, 0, 63, 0
2, 64079, Note_on_c, 0, 68, 0
2, 64105, Note_on_c, 0, 41, 106
2, 64113, Control_c, 0, 64, 63
2, 64123, Control_c, 0, 64, 0
2, 64125, Note_on_c, 0, 67, 104
2, 64159, Control_c, 0, 64, 63
2, 64185, Control_c, 0, 64, 127
2, 64205, Note_on_c, 0, 41, 0
2, 64382, Note_on_c, 0, 53, 86
2, 64388, Note_on_c, 0, 65, 82
2, 64391, Note_on_c, 0, 56, 82
2, 64403, Note_on_c, 0, 60, 65
2, 64457, Note_on_c, 0, 67, 0
2, 64473, Note_on_c, 0, 56, 0
2, 64492, Note_on_c, 0, 60, 0
2, 64526, Note_on_c, 0, 53, 0
2, 64569, Note_on_c, 0, 65, 0
2, 64663, Note_on_c, 0, 56, 87
2, 64667, Note_on_c, 0, 68, 114
2, 64682, Note_on_c, 0, 53, 65
2, 64683, Note_on_c, 0, 65, 90
2, 64697, Note_on_c, 0, 60, 70
2, 64721, Note_on_c, 0, 53, 0
2, 64727, Note_on_c, 0, 56, 0
2, 64743, Note_on_c, 0, 60, 0
2, 64756, Note_on_c, 0, 65, 0
2, 64945, Note_on_c, 0, 40, 111
2, 64950, Control_c, 0, 64, 63
2, 64954, Note_on_c, 0, 68, 0
2, 64963, Control_c, 0, 64, 0
2, 64964, Note_on_c, 0, 70, 101
2, 65012, Control_c, 0, 64, 63
2, 65033, Control_c, 0, 64, 127
2, 65051, Note_on_c, 0, 40, 0
2, 65291, Note_on_c, 0, 56, 86
2, 65292, Note_on_c, 0, 68, 89
2, 65294, Note_on_c, 0, 70, 0
2, 65302, Note_on_c, 0, 52, 67
2, 65310, Note_on_c, 0, 62, 68
2, 65368, Note_on_c, 0, 56, 0
2, 65397, Note_on_c, 0, 52, 0
2, 65407, Note_on_c, 0, 62, 0
2, 65421, Note_on_c, 0, 71, 89
2, 65458, Note_on_c, 0, 68, 0
2, 65582, Note_on_c, 0, 71, 0
2, 65585, Note_on_c, 0, 56, 78
2, 65594, Note_on_c, 0, 70, 93
2, 65600, Note_on_c, 0, 52, 72
2, 65608, Note_on_c, 0, 68, 84
2, 65636, Note_on_c, 0, 62, 56
2, 65649, Note_on_c, 0, 56, 0
2, 65651, Note_on_c, 0, 52, 0
2, 65731, Note_on_c, 0, 71, 88
2, 65735, Note_on_c, 0, 62, 0
2, 65757, Note_on_c, 0, 68, 0
2, 65774, Note_on_c, 0, 70, 0
2, 65902, Note_on_c, 0, 71, 0
2, 65951, Note_on_c, 0, 39, 90
2, 65968, Note_on_c, 0, 67, 85
2, 65977, Control_c, 0, 64, 63
2, 65984, Control_c, 0, 64, 0
2, 66044, Control_c, 0, 64, 63
2, 66064, Control_c, 0, 64, 127
2, 66091, Note_on_c, 0, 39, 0
2, 66328, Note_on_c, 0, 63, 67
2, 66331, Note_on_c, 0, 61, 55
2, 66332, Note_on_c, 0, 51, 60
2, 66336, Note_on_c, 0, 58, 55
2, 66443, Note_on_c, 0, 51, 0
2, 66455, Note_on_c, 0, 58, 0
2, 66485, Note_on_c, 0, 61, 0
2, 66510, Note_on_c, 0, 63, 0
2, 66771, Note_on_c, 0, 61, 40
2, 66772, Note_on_c, 0, 63, 58
2, 66774, Note_on_c, 0, 58, 41
2, 66784, Note_on_c, 0, 51, 44
2, 66892, Note_on_c, 0, 61, 0
2, 66912, Note_on_c, 0, 58, 0
2, 66956, Note_on_c, 0, 51, 0
2, 66987, Note_on_c, 0, 63, 0
2, 67053, Note_on_c, 0, 67, 0
2, 67293, Note_on_c, 0, 44, 74
2, 67299, Control_c, 0, 64, 63
2, 67307, Control_c, 0, 64, 0
2, 67421, Control_c, 0, 64, 63
2, 67436, Control_c, 0, 64, 127
2, 67486, Note_on_c, 0, 44, 0
2, 67810, Note_on_c, 0, 68, 79
2, 67823, Note_on_c, 0, 56, 43
2, 67824, Note_on_c, 0, 51, 38
2, 67850, Note_on_c, 0, 60, 16
2, 67934, Note_on_c, 0, 56, 0
2, 67950, Note_on_c, 0, 60, 0
2, 67962, Note_on_c, 0, 51, 0
2, 68175, Note_on_c, 0, 60, 52
2, 68176, Note_on_c, 0, 56, 60
2, 68192, Note_on_c, 0, 63, 61
2, 68193, Note_on_c, 0, 51, 57
2, 68222, Note_on_c, 0, 60, 0
2, 68230, Note_on_c, 0, 56, 0
2, 68254, Note_on_c, 0, 51, 0
2, 68300, Note_on_c, 0, 63, 0
2, 68449, Control_c, 0, 64, 63
2, 68463, Control_c, 0, 64, 0
2, 68468, Note_on_c, 0, 39, 77
2, 68491, Control_c, 0, 64, 63
2, 68492, Note_on_c, 0, 70, 97
2, 68519, Control_c, 0, 64, 127
2, 68537, Note_on_c, 0, 68, 0
2, 68564, Note_on_c, 0, 39, 0
2, 68770, Note_on_c, 0, 56, 71
2, 68783, Note_on_c, 0, 51, 55
2, 68797, Note_on_c, 0, 63, 74
2, 68797, Note_on_c, 0, 68, 71
2, 68816, Note_on_c, 0, 60, 14
2, 68837, Note_on_c, 0, 51, 0
2, 68855, Note_on_c, 0, 60, 0
2, 68862, Note_on_c, 0, 56, 0
2, 68881, Note_on_c, 0, 63, 0
2, 69004, Note_on_c, 0, 70, 0
2, 69037, Note_on_c, 0, 68, 0
2, 69050, Note_on_c, 0, 56, 78
2, 69056, Note_on_c, 0, 60, 64
2, 69060, Note_on_c, 0, 51, 75
2, 69063, Note_on_c, 0, 72, 90
2, 69100, Note_on_c, 0, 60, 0
2, 69119, Note_on_c, 0, 56, 0
2, 69139, Note_on_c, 0, 51, 0
2, 69157, Note_on_c, 0, 72, 0
2, 69289, Control_c, 0, 64, 63
2, 69298, Note_on_c, 0, 46, 105
2, 69299, Control_c, 0, 64, 0
2, 69376, Control_c, 0, 64, 63
2, 69395, Control_c, 0, 64, 127
2, 69454, Note_on_c, 0, 46, 0
2, 69586, Note_on_c, 0, 73, 109
2, 69601, Note_on_c, 0, 51, 71
2, 69617, Note_on_c, 0, 61, 76
2, 69619, Note_on_c, 0, 55, 63
2, 69692, Note_on_c, 0, 61, 0
2, 69712, Note_on_c, 0, 51, 0
2, 69714, Note_on_c, 0, 55, 0
2, 69859, Note_on_c, 0, 61, 66
2, 69872, Note_on_c, 0, 63, 70
2, 69873, Note_on_c, 0, 67, 67
2, 69879, Note_on_c, 0, 51, 67
2, 69893, Note_on_c, 0, 61, 0
2, 69959, Note_on_c, 0, 63, 0
2, 69960, Note_on_c, 0, 51, 0
2, 69997, Note_on_c, 0, 73, 0
2, 70096, Control_c, 0, 64, 63
2, 70108, Note_on_c, 0, 39, 72
2, 70113, Note_on_c, 0, 72, 100
2, 70113, Control_c, 0, 64, 0
2, 70129, Control_c, 0, 64, 63
2, 70161, Control_c, 0, 64, 127
2, 70164, Note_on_c, 0, 39, 0
2, 70166, Note_on_c, 0, 67, 0
2, 70381, Note_on_c, 0, 51, 70
2, 70389, Note_on_c, 0, 67, 71
2, 70393, Note_on_c, 0, 61, 84
2, 70406, Note_on_c, 0, 63, 55
2, 70425, Note_on_c, 0, 55, 48
2, 70460, Note_on_c, 0, 61, 0
2, 70495, Note_on_c, 0, 51, 0
2, 70506, Note_on_c, 0, 55, 0
2, 70533, Note_on_c, 0, 63, 0
2, 70559, Note_on_c, 0, 67, 0
2, 70615, Note_on_c, 0, 72, 0
2, 70655, Note_on_c, 0, 61, 74
2, 70668, Note_on_c, 0, 70, 96
2, 70689, Note_on_c, 0, 61, 0
2, 70697, Note_on_c, 0, 51, 66
2, 70768, Note_on_c, 0, 70, 0
2, 70806, Note_on_c, 0, 51, 0
2, 70861, Control_c, 0, 64, 63
2, 70870, Control_c, 0, 64, 0
2, 70906, Note_on_c, 0, 44, 104
2, 70947, Control_c, 0, 64, 63
2, 70970, Control_c, 0, 64, 127
2, 71005, Note_on_c, 0, 44, 0
2, 71180, Note_on_c, 0, 56, 72
2, 71187, Note_on_c, 0, 51, 75
2, 71189, Note_on_c, 0, 60, 63
2, 71200, Note_on_c, 0, 72, 108
2, 71272, Note_on_c, 0, 60, 0
2, 71273, Note_on_c, 0, 56, 0
2, 71279, Note_on_c, 0, 51, 0
2, 71445, Note_on_c, 0, 56, 80
2, 71448, Note_on_c, 0, 51, 92
2, 71450, Note_on_c, 0, 68, 91
2, 71457, Note_on_c, 0, 63, 85
2, 71459, Note_on_c, 0, 60, 39
2, 71471, Note_on_c, 0, 72, 0
2, 71484, Note_on_c, 0, 56, 0
2, 71499, Note_on_c, 0, 60, 0
2, 71521, Note_on_c, 0, 51, 0
2, 71562, Note_on_c, 0, 63, 0
2, 71682, Note_on_c, 0, 68, 0
2, 71697, Control_c, 0, 64, 63
2, 71709, Control_c, 0, 64, 0
2, 71719, Note_on_c, 0, 73, 113
2, 71720, Note_on_c, 0, 39, 104
2, 71746, Control_c, 0, 64, 63
2, 71772, Control_c, 0, 64, 127
2, 71800, Note_on_c, 0, 39, 0
2, 72002, Note_on_c, 0, 60, 82
2, 72009, Note_on_c, 0, 56, 67
2, 72010, Note_on_c, 0, 54, 65
2, 72010, Note_on_c, 0, 63, 89
2, 72012, Note_on_c, 0, 68, 87
2, 72079, Note_on_c, 0, 60, 0
2, 72099, Note_on_c, 0, 56, 0
2, 72115, Note_on_c, 0, 54, 0
2, 72118, Note_on_c, 0, 63, 0
2, 72168, Note_on_c, 0, 68, 0
2, 72299, Note_on_c, 0, 60, 76
2, 72299, Note_on_c, 0, 75, 112
2, 72300, Note_on_c, 0, 56, 79
2, 72303, Note_on_c, 0, 54, 83
2, 72338, Note_on_c, 0, 60, 0
2, 72339, Note_on_c, 0, 73, 0
2, 72352, Note_on_c, 0, 56, 0
2, 72356, Note_on_c, 0, 54, 0
2, 72411, Note_on_c, 0, 75, 0
2, 72586, Control_c, 0, 64, 63
2, 72594, Control_c, 0, 64, 0
2, 72609, Note_on_c, 0, 44, 103
2, 72632, Note_on_c, 0, 77, 94
2, 72658, Control_c, 0, 64, 63
2, 72679, Control_c, 0, 64, 127
2, 72727, Note_on_c, 0, 44, 0
2, 72799, Note_on_c, 0, 77, 0
2, 72923, Note_on_c, 0, 53, 60
2, 72935, Note_on_c, 0, 56, 80
2, 72945, Note_on_c, 0, 68, 87
2, 72961, Note_on_c, 0, 59, 59
2, 72982, Note_on_c, 0, 74, 71
2, 73014, Note_on_c, 0, 79, 98
2, 73031, Note_on_c, 0, 68, 0
2, 73057, Note_on_c, 0, 53, 0
2, 73066, Note_on_c, 0, 56, 0
2, 73075, Note_on_c, 0, 74, 0
2, 73085, Note_on_c, 0, 59, 0
2, 73132, Note_on_c, 0, 79, 0
2, 73343, Note_on_c, 0, 68, 70
2, 73355, Note_on_c, 0, 56, 64
2, 73357, Note_on_c, 0, 53, 54
2, 73373, Note_on_c, 0, 59, 57
2, 73409, Note_on_c, 0, 74, 55
2, 73421, Note_on_c, 0, 68, 0
2, 73428, Note_on_c, 0, 80, 100
2, 73460, Note_on_c, 0, 59, 0
2, 73464, Note_on_c, 0, 74, 0
2, 73477, Note_on_c, 0, 56, 0
2, 73501, Note_on_c, 0, 53, 0
2, 73521, Note_on_c, 0, 80, 0
2, 73812, Note_on_c, 0, 44, 73
2, 73912, Control_c, 0, 64, 63
2, 73918, Note_on_c, 0, 75, 90
2, 73925, Control_c, 0, 64, 0
2, 74023, Control_c, 0, 64, 63
2, 74039, Control_c, 0, 64, 127
2, 74090, Note_on_c, 0, 44, 0
2, 74382, Note_on_c, 0, 56, 55
2, 74389, Note_on_c, 0, 51, 39
2, 74401, Note_on_c, 0, 60, 45
2, 74406, Note_on_c, 0, 72, 65
2, 74415, Note_on_c, 0, 68, 56
2, 74418, Note_on_c, 0, 63, 66
2, 74477, Note_on_c, 0, 68, 0
2, 74479, Note_on_c, 0, 60, 0
2, 74481, Note_on_c, 0, 56, 0
2, 74488, Note_on_c, 0, 63, 0
2, 74492, Note_on_c, 0, 51, 0
2, 74530, Note_on_c, 0, 72, 0
2, 74788, Note_on_c, 0, 56, 51
2, 74804, Note_on_c, 0, 72, 46
2, 74807, Note_on_c, 0, 51, 36
2, 74809, Note_on_c, 0, 60, 36
2, 74817, Note_on_c, 0, 68, 44
2, 74881, Note_on_c, 0, 60, 0
2, 74957, Note_on_c, 0, 56, 0
2, 75022, Note_on_c, 0, 51, 0
2, 75047, Note_on_c, 0, 68, 0
2, 75061, Control_c, 0, 64, 63
2, 75078, Note_on_c, 0, 75, 0
2, 75094, Note_on_c, 0, 72, 0
2, 75098, Control_c, 0, 64, 0
2, 75194, Note_on_c, 0, 45, 63
2, 75245, Control_c, 0, 64, 127
2, 75350, Note_on_c, 0, 45, 0
2, 75703, Note_on_c, 0, 53, 46
2, 75713, Note_on_c, 0, 63, 37
2, 75724, Note_on_c, 0, 60, 69
2, 75725, Note_on_c, 0, 78, 76
2, 75858, Note_on_c, 0, 60, 0
2, 75873, Note_on_c, 0, 77, 86
2, 75879, Note_on_c, 0, 63, 0
2, 75897, Note_on_c, 0, 53, 0
2, 75936, Note_on_c, 0, 78, 0
2, 76020, Note_on_c, 0, 63, 80
2, 76032, Note_on_c, 0, 75, 105
2, 76036, Note_on_c, 0, 60, 67
2, 76048, Note_on_c, 0, 53, 31
2, 76078, Note_on_c, 0, 60, 0
2, 76087, Note_on_c, 0, 77, 0
2, 76089, Note_on_c, 0, 63, 0
2, 76129, Note_on_c, 0, 53, 0
2, 76169, Note_on_c, 0, 78, 104
2, 76232, Note_on_c, 0, 75, 0
2, 76320, Note_on_c, 0, 78, 0
2, 76326, Note_on_c, 0, 46, 89
2, 76339, Note_on_c, 0, 77, 90
2, 76350, Control_c, 0, 64, 63
2, 76358, Control_c, 0, 64, 0
2, 76400, Control_c, 0, 64, 63
2, 76419, Control_c, 0, 64, 127
2, 76463, Note_on_c, 0, 46, 0
2, 76636, Note_on_c, 0, 58, 77
2, 76641, Note_on_c, 0, 53, 73
2, 76650, Note_on_c, 0, 61, 75
2, 76714, Note_on_c, 0, 61, 0
2, 76719, Note_on_c, 0, 58, 0
2, 76740, Note_on_c, 0, 53, 0
2, 76749, Note_on_c, 0, 77, 0
2, 76766, Note_on_c, 0, 73, 94
2, 76880, Note_on_c, 0, 58, 67
2, 76880, Note_on_c, 0, 61, 80
2, 76903, Note_on_c, 0, 70, 90
2, 76909, Note_on_c, 0, 53, 33
2, 76925, Note_on_c, 0, 58, 0
2, 76934, Note_on_c, 0, 61, 0
2, 76949, Note_on_c, 0, 73, 0
2, 76954, Note_on_c, 0, 53, 0
2, 76998, Note_on_c, 0, 65, 86
2, 77037, Note_on_c, 0, 70, 0
2, 77092, Note_on_c, 0, 65, 0
2, 77115, Control_c, 0, 64, 63
2, 77124, Control_c, 0, 64, 0
2, 77156, Note_on_c, 0, 47, 112
2, 77204, Control_c, 0, 64, 63
2, 77216, Control_c, 0, 64, 127
2, 77239, Note_on_c, 0, 47, 0
2, 77462, Note_on_c, 0, 80, 89
2, 77472, Note_on_c, 0, 65, 76
2, 77473, Note_on_c, 0, 55, 54
2, 77475, Note_on_c, 0, 62, 73
2, 77534, Note_on_c, 0, 62, 0
2, 77548, Note_on_c, 0, 55, 0
2, 77549, Note_on_c, 0, 65, 0
2, 77568, Note_on_c, 0, 79, 96
2, 77594, Note_on_c, 0, 80, 0
2, 77679, Note_on_c, 0, 55, 82
2, 77682, Note_on_c, 0, 65, 71
2, 77689, Note_on_c, 0, 62, 67
2, 77691, Note_on_c, 0, 77, 108
2, 77728, Note_on_c, 0, 65, 0
2, 77733, Note_on_c, 0, 62, 0
2, 77744, Note_on_c, 0, 79, 0
2, 77757, Note_on_c, 0, 55, 0
2, 77793, Note_on_c, 0, 80, 110
2, 77818, Note_on_c, 0, 77, 0
2, 77903, Note_on_c, 0, 80, 0
2, 77936, Control_c, 0, 64, 63
2, 77940, Note_on_c, 0, 48, 108
2, 77947, Control_c, 0, 64, 0
2, 77958, Note_on_c, 0, 79, 113
2, 77995, Control_c, 0, 64, 63
2, 78013, Control_c, 0, 64, 127
2, 78037, Note_on_c, 0, 48, 0
2, 78202, Note_on_c, 0, 60, 92
2, 78203, Note_on_c, 0, 64, 90
2, 78203, Note_on_c, 0, 55, 87
2, 78271, Note_on_c, 0, 79, 0
2, 78277, Note_on_c, 0, 60, 0
2, 78281, Note_on_c, 0, 64, 0
2, 78296, Note_on_c, 0, 55, 0
2, 78313, Note_on_c, 0, 76, 106
2, 78450, Note_on_c, 0, 72, 108
2, 78460, Note_on_c, 0, 55, 84
2, 78464, Note_on_c, 0, 60, 90
2, 78473, Note_on_c, 0, 64, 65
2, 78476, Note_on_c, 0, 76, 0
2, 78496, Note_on_c, 0, 60, 0
2, 78518, Note_on_c, 0, 64, 0
2, 78526, Note_on_c, 0, 55, 0
2, 78561, Note_on_c, 0, 67, 85
2, 78582, Note_on_c, 0, 72, 0
2, 78653, Note_on_c, 0, 67, 0
2, 78671, Control_c, 0, 64, 63
2, 78680, Control_c, 0, 64, 0
2, 78737, Note_on_c, 0, 49, 116
2, 78770, Control_c, 0, 64, 63
2, 78771, Control_c, 0, 64, 127
2, 78810, Note_on_c, 0, 49, 0
2, 79080, Note_on_c, 0, 65, 85
2, 79081, Note_on_c, 0, 61, 88
2, 79084, Note_on_c, 0, 58, 82
2, 79094, Note_on_c, 0, 82, 101
2, 79196, Note_on_c, 0, 65, 0
2, 79211, Note_on_c, 0, 61, 0
2, 79214, Note_on_c, 0, 58, 0
2, 79222, Note_on_c, 0, 80, 96
2, 79266, Note_on_c, 0, 82, 0
2, 79367, Note_on_c, 0, 65, 82
2, 79371, Note_on_c, 0, 79, 107
2, 79374, Note_on_c, 0, 61, 79
2, 79377, Note_on_c, 0, 58, 75
2, 79407, Note_on_c, 0, 61, 0
2, 79414, Note_on_c, 0, 65, 0
2, 79415, Note_on_c, 0, 58, 0
2, 79440, Note_on_c, 0, 80, 0
2, 79497, Note_on_c, 0, 80, 90
2, 79502, Note_on_c, 0, 82, 115
2, 79527, Note_on_c, 0, 79, 0
2, 79561, Note_on_c, 0, 80, 0
2, 79604, Note_on_c, 0, 82, 0
2, 79629, Control_c, 0, 64, 63
2, 79637, Control_c, 0, 64, 0
2, 79654, Note_on_c, 0, 50, 116
2, 79690, Note_on_c, 0, 80, 109
2, 79695, Control_c, 0, 64, 63
2, 79708, Control_c, 0, 64, 127
2, 79785, Note_on_c, 0, 50, 0
2, 79839, Note_on_c, 0, 80, 0
2, 80001, Note_on_c, 0, 56, 81
2, 80010, Note_on_c, 0, 65, 83
2, 80010, Note_on_c, 0, 59, 76
2, 80114, Note_on_c, 0, 59, 0
2, 80125, Note_on_c, 0, 56, 0
2, 80131, Note_on_c, 0, 77, 96
2, 80132, Note_on_c, 0, 65, 0
2, 80296, Note_on_c, 0, 71, 84
2, 80329, Note_on_c, 0, 65, 60
2, 80330, Note_on_c, 0, 59, 60
2, 80334, Note_on_c, 0, 56, 61
2, 80374, Note_on_c, 0, 77, 0
2, 80394, Note_on_c, 0, 65, 0
2, 80442, Note_on_c, 0, 68, 92
2, 80489, Note_on_c, 0, 71, 0
2, 80565, Note_on_c, 0, 59, 0
2, 80581, Note_on_c, 0, 68, 0
2, 80609, Note_on_c, 0, 51, 83
2, 80689, Note_on_c, 0, 56, 0
2, 80700, Control_c, 0, 64, 63
2, 80708, Control_c, 0, 64, 0
2, 80733, Note_on_c, 0, 77, 91
2, 80787, Control_c, 0, 64, 63
2, 80798, Control_c, 0, 64, 127
2, 80866, Note_on_c, 0, 51, 0
2, 80994, Note_on_c, 0, 77, 0
2, 81085, Note_on_c, 0, 61, 76
2, 81101, Note_on_c, 0, 63, 70
2, 81151, Note_on_c, 0, 55, 10
2, 81204, Note_on_c, 0, 61, 0
2, 81207, Note_on_c, 0, 63, 0
2, 81220, Note_on_c, 0, 73, 88
2, 81233, Note_on_c, 0, 55, 0
2, 81363, Note_on_c, 0, 63, 77
2, 81367, Note_on_c, 0, 70, 81
2, 81380, Note_on_c, 0, 61, 86
2, 81393, Note_on_c, 0, 55, 49
2, 81411, Note_on_c, 0, 61, 0
2, 81432, Note_on_c, 0, 63, 0
2, 81440, Note_on_c, 0, 73, 0
2, 81481, Note_on_c, 0, 67, 74
2, 81482, Note_on_c, 0, 70, 0
2, 81483, Note_on_c, 0, 55, 0
2, 81690, Note_on_c, 0, 44, 76
2, 81718, Control_c, 0, 64, 63
2, 81726, Control_c, 0, 64, 0
2, 81730, Note_on_c, 0, 70, 85
2, 81743, Note_on_c, 0, 67, 0
2, 81775, Control_c, 0, 64, 63
2, 81792, Control_c, 0, 64, 127
2, 81855, Note_on_c, 0, 44, 0
2, 82055, Note_on_c, 0, 56, 69
2, 82056, Note_on_c, 0, 51, 70
2, 82062, Note_on_c, 0, 60, 56
2, 82081, Note_on_c, 0, 60, 0
2, 82159, Note_on_c, 0, 56, 0
2, 82175, Note_on_c, 0, 51, 0
2, 82188, Note_on_c, 0, 68, 82
2, 82215, Note_on_c, 0, 70, 0
2, 82333, Note_on_c, 0, 56, 65
2, 82334, Note_on_c, 0, 60, 55
2, 82352, Note_on_c, 0, 51, 55
2, 82367, Note_on_c, 0, 63, 78
2, 82379, Note_on_c, 0, 60, 0
2, 82414, Note_on_c, 0, 56, 0
2, 82441, Note_on_c, 0, 51, 0
2, 82442, Note_on_c, 0, 68, 0
2, 82536, Note_on_c, 0, 60, 67
2, 82660, Note_on_c, 0, 60, 0
2, 82708, Note_on_c, 0, 63, 0
2, 82904, Note_on_c, 0, 59, 94
2, 83173, Control_c, 0, 64, 63
2, 83215, Control_c, 0, 64, 0
2, 83478, Note_on_c, 0, 68, 51
2, 83484, Control_c, 0, 64, 63
2, 83490, Control_c, 0, 64, 127
2, 83497, Note_on_c, 0, 52, 59
2, 83733, Note_on_c, 0, 59, 0
2, 83736, Note_on_c, 0, 58, 71
2, 83916, Note_on_c, 0, 61, 88
2, 83923, Note_on_c, 0, 58, 0
2, 84058, Note_on_c, 0, 58, 81
2, 84059, Note_on_c, 0, 61, 0
2, 84219, Note_on_c, 0, 59, 91
2, 84260, Note_on_c, 0, 58, 0
2, 84320, Control_c, 0, 64, 63
2, 84346, Control_c, 0, 64, 0
2, 84435, Control_c, 0, 64, 63
2, 84462, Note_on_c, 0, 52, 0
2, 84472, Control_c, 0, 64, 127
2, 84504, Note_on_c, 0, 51, 73
2, 84524, Note_on_c, 0, 68, 0
2, 84692, Control_c, 0, 64, 63
2, 84754, Control_c, 0, 64, 0
2, 84803, Control_c, 0, 64, 63
2, 84840, Note_on_c, 0, 66, 73
2, 84865, Control_c, 0, 64, 127
2, 84994, Note_on_c, 0, 59, 0
2, 85102, Note_on_c, 0, 59, 86
2, 85230, Note_on_c, 0, 51, 0
2, 85419, Note_on_c, 0, 49, 53
2, 85502, Control_c, 0, 64, 63
2, 85533, Control_c, 0, 64, 0
2, 85662, Control_c, 0, 64, 63
2, 85693, Control_c, 0, 64, 127
2, 85737, Note_on_c, 0, 64, 60
2, 85784, Note_on_c, 0, 66, 0
2, 85861, Note_on_c, 0, 59, 0
2, 85977, Control_c, 0, 64, 63
2, 85991, Note_on_c, 0, 59, 79
2, 86069, Control_c, 0, 64, 127
2, 86137, Note_on_c, 0, 49, 0
2, 86222, Note_on_c, 0, 64, 0
2, 86278, Note_on_c, 0, 47, 59
2, 86420, Note_on_c, 0, 63, 71
2, 86459, Control_c, 0, 64, 63
2, 86565, Control_c, 0, 64, 127
2, 86574, Note_on_c, 0, 62, 66
2, 86599, Note_on_c, 0, 63, 0
2, 86651, Note_on_c, 0, 59, 0
2, 86669, Note_on_c, 0, 47, 0
2, 86703, Note_on_c, 0, 63, 72
2, 86722, Note_on_c, 0, 62, 0
2, 86839, Note_on_c, 0, 63, 0
2, 86906, Note_on_c, 0, 59, 76
2, 87001, Control_c, 0, 64, 63
2, 87041, Control_c, 0, 64, 0
2, 87177, Control_c, 0, 64, 63
2, 87213, Control_c, 0, 64, 127
2, 87315, Note_on_c, 0, 68, 72
2, 87321, Note_on_c, 0, 52, 46
2, 87500, Note_on_c, 0, 59, 0
2, 87512, Note_on_c, 0, 58, 77
2, 87687, Note_on_c, 0, 61, 89
2, 87696, Note_on_c, 0, 58, 0
2, 87811, Note_on_c, 0, 58, 88
2, 87831, Note_on_c, 0, 61, 0
2, 87977, Note_on_c, 0, 59, 84
2, 88008, Note_on_c, 0, 58, 0
2, 88054, Control_c, 0, 64, 63
2, 88081, Control_c, 0, 64, 0
2, 88082, Note_on_c, 0, 52, 0
2, 88164, Control_c, 0, 64, 63
2, 88197, Control_c, 0, 64, 127
2, 88232, Note_on_c, 0, 51, 98
2, 88396, Control_c, 0, 64, 63
2, 88424, Control_c, 0, 64, 0
2, 88498, Control_c, 0, 64, 63
2, 88530, Note_on_c, 0, 66, 87
2, 88540, Control_c, 0, 64, 127
2, 88546, Note_on_c, 0, 68, 0
2, 88716, Note_on_c, 0, 59, 0
2, 88819, Note_on_c, 0, 59, 91
2, 88858, Control_c, 0, 64, 63
2, 88930, Note_on_c, 0, 51, 0
2, 88948, Control_c, 0, 64, 127
2, 89148, Note_on_c, 0, 49, 89
2, 89199, Control_c, 0, 64, 63
2, 89228, Control_c, 0, 64, 0
2, 89326, Control_c, 0, 64, 63
2, 89358, Control_c, 0, 64, 127
2, 89490, Note_on_c, 0, 76, 102
2, 89720, Note_on_c, 0, 59, 0
2, 89860, Note_on_c, 0, 59, 67
2, 89964, Control_c, 0, 64, 63
2, 90013, Control_c, 0, 64, 127
2, 90184, Note_on_c, 0, 76, 0
2, 90218, Note_on_c, 0, 47, 71
2, 90266, Note_on_c, 0, 49, 0
2, 90365, Note_on_c, 0, 75, 77
2, 90489, Note_on_c, 0, 66, 0
2, 90549, Note_on_c, 0, 71, 55
2, 90578, Note_on_c, 0, 47, 0
2, 90623, Note_on_c, 0, 59, 0
2, 90661, Note_on_c, 0, 75, 0
2, 90709, Note_on_c, 0, 66, 56
2, 90830, Note_on_c, 0, 71, 0
2, 90859, Note_on_c, 0, 66, 0
2, 90911, Note_on_c, 0, 59, 78
2, 90961, Control_c, 0, 64, 63
2, 90970, Control_c, 0, 64, 0
2, 91304, Note_on_c, 0, 52, 48
2, 91352, Control_c, 0, 64, 63
2, 91354, Control_c, 0, 64, 127
2, 91433, Note_on_c, 0, 68, 81
2, 91644, Note_on_c, 0, 59, 0
2, 91663, Note_on_c, 0, 58, 62
2, 91836, Note_on_c, 0, 58, 0
2, 91838, Note_on_c, 0, 61, 80
2, 91955, Note_on_c, 0, 58, 84
2, 91964, Note_on_c, 0, 61, 0
2, 92108, Note_on_c, 0, 59, 91
2, 92169, Note_on_c, 0, 58, 0
2, 92201, Control_c, 0, 64, 63
2, 92222, Control_c, 0, 64, 0
2, 92243, Note_on_c, 0, 52, 0
2, 92375, Note_on_c, 0, 51, 103
2, 92634, Control_c, 0, 64, 63
2, 92638, Control_c, 0, 64, 127
2, 92670, Note_on_c, 0, 66, 95
2, 92746, Note_on_c, 0, 68, 0
2, 92901, Note_on_c, 0, 59, 0
2, 92972, Note_on_c, 0, 59, 76
2, 93038, Control_c, 0, 64, 63
2, 93060, Control_c, 0, 64, 0
2, 93066, Note_on_c, 0, 51, 0
2, 93085, Control_c, 0, 64, 63
2, 93121, Control_c, 0, 64, 127
2, 93218, Note_on_c, 0, 49, 81
2, 93499, Control_c, 0, 64, 63
2, 93511, Note_on_c, 0, 64, 78
2, 93560, Note_on_c, 0, 66, 0
2, 93619, Control_c, 0, 64, 127
2, 93642, Note_on_c, 0, 59, 0
2, 93769, Note_on_c, 0, 59, 65
2, 93888, Control_c, 0, 64, 63
2, 93912, Control_c, 0, 64, 0
2, 94008, Note_on_c, 0, 49, 0
2, 94039, Note_on_c, 0, 47, 65
2, 94145, Note_on_c, 0, 63, 73
2, 94181, Note_on_c, 0, 64, 0
2, 94298, Note_on_c, 0, 62, 60
2, 94312, Note_on_c, 0, 63, 0
2, 94410, Note_on_c, 0, 59, 0
2, 94441, Note_on_c, 0, 47, 0
2, 94451, Note_on_c, 0, 63, 72
2, 94476, Note_on_c, 0, 62, 0
2, 94616, Note_on_c, 0, 59, 72
2, 94658, Control_c, 0, 64, 63
2, 94663, Control_c, 0, 64, 127
2, 94673, Note_on_c, 0, 63, 0
2, 94951, Note_on_c, 0, 52, 45
2, 94980, Note_on_c, 0, 68, 83
2, 95168, Note_on_c, 0, 59, 0
2, 95205, Note_on_c, 0, 58, 67
2, 95372, Note_on_c, 0, 61, 90
2, 95380, Note_on_c, 0, 58, 0
2, 95483, Note_on_c, 0, 58, 87
2, 95514, Note_on_c, 0, 61, 0
2, 95579, Note_on_c, 0, 52, 0
2, 95640, Note_on_c, 0, 59, 87
2, 95686, Note_on_c, 0, 58, 0
2, 95754, Control_c, 0, 64, 63
2, 95781, Control_c, 0, 64, 0
2, 95880, Control_c, 0, 64, 63
2, 95894, Note_on_c, 0, 51, 77
2, 95903, Control_c, 0, 64, 127
2, 96052, Control_c, 0, 64, 63
2, 96072, Control_c, 0, 64, 0
2, 96192, Note_on_c, 0, 66, 72
2, 96196, Control_c, 0, 64, 63
2, 96221, Note_on_c, 0, 68, 0
2, 96224, Control_c, 0, 64, 127
2, 96338, Note_on_c, 0, 59, 0
2, 96562, Note_on_c, 0, 58, 89
2, 96710, Control_c, 0, 64, 63
2, 96730, Control_c, 0, 64, 0
2, 96809, Control_c, 0, 64, 63
2, 96844, Control_c, 0, 64, 127
2, 96894, Note_on_c, 0, 51, 0
2, 96917, Note_on_c, 0, 51, 54
2, 97322, Note_on_c, 0, 67, 63
2, 97365, Note_on_c, 0, 66, 0
2, 97510, Note_on_c, 0, 51, 0
2, 97640, Note_on_c, 0, 58, 0
2, 97685, Control_c, 0, 64, 63
2, 97732, Note_on_c, 0, 44, 84
2, 97747, Control_c, 0, 64, 127
2, 97874, Note_on_c, 0, 44, 0
2, 97954, Note_on_c, 0, 75, 74
2, 98028, Note_on_c, 0, 67, 0
2, 98091, Note_on_c, 0, 51, 41
2, 98175, Note_on_c, 0, 56, 57
2, 98178, Note_on_c, 0, 59, 42
2, 98183, Note_on_c, 0, 71, 72
2, 98188, Note_on_c, 0, 75, 0
2, 98390, Note_on_c, 0, 70, 70
2, 98425, Note_on_c, 0, 71, 0
2, 98489, Control_c, 0, 64, 63
2, 98535, Control_c, 0, 64, 0
2, 98644, Note_on_c, 0, 70, 0
2, 98664, Note_on_c, 0, 68, 50
2, 98696, Control_c, 0, 64, 63
2, 98733, Control_c, 0, 64, 127
2, 98839, Note_on_c, 0, 59, 0
2, 98856, Note_on_c, 0, 51, 0
2, 98862, Note_on_c, 0, 56, 0
2, 99060, Note_on_c, 0, 68, 0
2, 99198, Note_on_c, 0, 54, 45
2, 99213, Control_c, 0, 64, 63
2, 99236, Control_c, 0, 64, 0
2, 99317, Note_on_c, 0, 69, 61
2, 99375, Control_c, 0, 64, 63
2, 99391, Control_c, 0, 64, 127
2, 99657, Note_on_c, 0, 69, 0
2, 99702, Note_on_c, 0, 66, 63
2, 99723, Note_on_c, 0, 61, 64
2, 99724, Note_on_c, 0, 54, 0
2, 99724, Note_on_c, 0, 57, 42
2, 99838, Note_on_c, 0, 66, 0
2, 99838, Note_on_c, 0, 73, 92
2, 99875, Note_on_c, 0, 61, 0
2, 99938, Note_on_c, 0, 57, 0
2, 99979, Note_on_c, 0, 78, 94
2, 100018, Note_on_c, 0, 73, 0
2, 100077, Note_on_c, 0, 81, 93
2, 100096, Note_on_c, 0, 78, 0
2, 100173, Note_on_c, 0, 81, 0
2, 100218, Note_on_c, 0, 52, 74
2, 100284, Control_c, 0, 64, 63
2, 100314, Note_on_c, 0, 80, 103
2, 100318, Control_c, 0, 64, 0
2, 100320, Note_on_c, 0, 68, 86
2, 100341, Note_on_c, 0, 73, 76
2, 100364, Control_c, 0, 64, 63
2, 100397, Control_c, 0, 64, 127
2, 100464, Note_on_c, 0, 68, 0
2, 100552, Note_on_c, 0, 68, 11
2, 100600, Note_on_c, 0, 68, 0
2, 100603, Note_on_c, 0, 80, 0
2, 100646, Note_on_c, 0, 73, 0
2, 100664, Note_on_c, 0, 61, 88
2, 100679, Note_on_c, 0, 57, 65
2, 100733, Note_on_c, 0, 61, 0
2, 100760, Note_on_c, 0, 52, 0
2, 100763, Note_on_c, 0, 57, 0
2, 100919, Note_on_c, 0, 78, 98
2, 100934, Note_on_c, 0, 66, 93
2, 100991, Note_on_c, 0, 78, 0
2, 100997, Note_on_c, 0, 66, 0
2, 101215, Note_on_c, 0, 51, 105
2, 101279, Control_c, 0, 64, 63
2, 101305, Control_c, 0, 64, 0
2, 101488, Control_c, 0, 64, 63
2, 101489, Note_on_c, 0, 71, 76
2, 101492, Note_on_c, 0, 69, 83
2, 101493, Note_on_c, 0, 59, 68
2, 101499, Note_on_c, 0, 66, 80
2, 101513, Control_c, 0, 64, 127
2, 101553, Note_on_c, 0, 51, 0
2, 101607, Note_on_c, 0, 49, 91
2, 101674, Control_c, 0, 64, 63
2, 101735, Note_on_c, 0, 59, 0
2, 101737, Note_on_c, 0, 52, 89
2, 101755, Control_c, 0, 64, 127
2, 101760, Note_on_c, 0, 71, 0
2, 101775, Note_on_c, 0, 66, 0
2, 101789, Note_on_c, 0, 69, 0
2, 101792, Note_on_c, 0, 49, 0
2, 101854, Note_on_c, 0, 51, 109
2, 101899, Note_on_c, 0, 52, 0
2, 101979, Control_c, 0, 64, 63
2, 102004, Control_c, 0, 64, 0
2, 102012, Note_on_c, 0, 61, 106
2, 102014, Note_on_c, 0, 73, 103
2, 102014, Note_on_c, 0, 49, 100
2, 102034, Note_on_c, 0, 51, 0
2, 102041, Note_on_c, 0, 69, 50
2, 102053, Note_on_c, 0, 66, 36
2, 102076, Note_on_c, 0, 61, 0
2, 102092, Note_on_c, 0, 49, 0
2, 102096, Note_on_c, 0, 66, 0
2, 102105, Note_on_c, 0, 69, 0
2, 102110, Note_on_c, 0, 73, 0
2, 102336, Note_on_c, 0, 75, 80
2, 102338, Note_on_c, 0, 66, 70
2, 102342, Note_on_c, 0, 63, 61
2, 102346, Note_on_c, 0, 48, 81
2, 102369, Note_on_c, 0, 75, 0
2, 102376, Note_on_c, 0, 69, 23
2, 102407, Note_on_c, 0, 66, 0
2, 102408, Note_on_c, 0, 63, 0
2, 102412, Note_on_c, 0, 48, 0
2, 102418, Note_on_c, 0, 69, 0
2, 102684, Note_on_c, 0, 76, 84
2, 102685, Note_on_c, 0, 47, 68
2, 102685, Note_on_c, 0, 68, 70
2, 102687, Control_c, 0, 64, 63
2, 102709, Note_on_c, 0, 64, 58
2, 102753, Note_on_c, 0, 76, 0
2, 102777, Control_c, 0, 64, 127
2, 102795, Note_on_c, 0, 68, 0
2, 102806, Note_on_c, 0, 47, 0
2, 102822, Note_on_c, 0, 64, 0
2, 102872, Control_c, 0, 64, 63
2, 102903, Control_c, 0, 64, 0
2, 103063, Note_on_c, 0, 46, 76
2, 103168, Note_on_c, 0, 66, 79
2, 103171, Control_c, 0, 64, 63
2, 103173, Control_c, 0, 64, 127
2, 103213, Note_on_c, 0, 46, 0
2, 103540, Note_on_c, 0, 61, 80
2, 103549, Note_on_c, 0, 54, 65
2, 103566, Note_on_c, 0, 52, 57
2, 103664, Note_on_c, 0, 66, 0
2, 103693, Note_on_c, 0, 65, 77
2, 103702, Note_on_c, 0, 61, 0
2, 103716, Note_on_c, 0, 54, 0
2, 103734, Note_on_c, 0, 52, 0
2, 103835, Note_on_c, 0, 68, 88
2, 103902, Note_on_c, 0, 65, 0
2, 103956, Note_on_c, 0, 66, 99
2, 103995, Note_on_c, 0, 68, 0
2, 104007, Control_c, 0, 64, 63
2, 104028, Note_on_c, 0, 66, 0
2, 104029, Control_c, 0, 64, 0
2, 104046, Note_on_c, 0, 45, 80
2, 104086, Control_c, 0, 64, 63
2, 104122, Control_c, 0, 64, 127
2, 104148, Note_on_c, 0, 75, 88
2, 104333, Note_on_c, 0, 75, 0
2, 104465, Note_on_c, 0, 59, 37
2, 104466, Note_on_c, 0, 54, 62
2, 104469, Note_on_c, 0, 51, 54
2, 104474, Control_c, 0, 64, 63
2, 104482, Note_on_c, 0, 73, 90
2, 104483, Control_c, 0, 64, 0
2, 104575, Note_on_c, 0, 73, 0
2, 104628, Control_c, 0, 64, 63
2, 104639, Control_c, 0, 64, 127
2, 104701, Note_on_c, 0, 59, 0
2, 104709, Note_on_c, 0, 54, 0
2, 104717, Note_on_c, 0, 51, 0
2, 104755, Note_on_c, 0, 45, 0
2, 104766, Note_on_c, 0, 71, 89
2, 104846, Note_on_c, 0, 71, 0
2, 105023, Note_on_c, 0, 44, 97
2, 105093, Control_c, 0, 64, 63
2, 105119, Control_c, 0, 64, 0
2, 105309, Note_on_c, 0, 71, 96
2, 105318, Note_on_c, 0, 59, 74
2, 105319, Note_on_c, 0, 64, 78
2, 105409, Control_c, 0, 64, 63
2, 105423, Note_on_c, 0, 43, 87
2, 105424, Control_c, 0, 64, 127
2, 105479, Note_on_c, 0, 44, 0
2, 105562, Note_on_c, 0, 45, 96
2, 105581, Control_c, 0, 64, 63
2, 105609, Control_c, 0, 64, 0
2, 105610, Note_on_c, 0, 43, 0
2, 105680, Note_on_c, 0, 44, 100
2, 105706, Note_on_c, 0, 45, 0
2, 105827, Control_c, 0, 64, 63
2, 105843, Control_c, 0, 64, 127
2, 105848, Note_on_c, 0, 49, 101
2, 105853, Note_on_c, 0, 44, 0
2, 105861, Note_on_c, 0, 59, 0
2, 105877, Note_on_c, 0, 71, 0
2, 105901, Note_on_c, 0, 64, 0
2, 106114, Control_c, 0, 64, 63
2, 106163, Note_on_c, 0, 49, 0
2, 106164, Control_c, 0, 64, 0
2, 106182, Note_on_c, 0, 68, 78
2, 106186, Note_on_c, 0, 56, 61
2, 106200, Note_on_c, 0, 64, 58
2, 106202, Note_on_c, 0, 47, 67
2, 106325, Note_on_c, 0, 47, 0
2, 106567, Note_on_c, 0, 40, 72
2, 106627, Control_c, 0, 64, 63
2, 106629, Control_c, 0, 64, 127
2, 106649, Note_on_c, 0, 56, 0
2, 106668, Note_on_c, 0, 40, 0
2, 106702, Note_on_c, 0, 64, 0
2, 106720, Note_on_c, 0, 68, 0
2, 106975, Control_c, 0, 64, 63
2, 106996, Control_c, 0, 64, 0
2, 107033, Note_on_c, 0, 54, 71
2, 107073, Note_on_c, 0, 69, 69
2, 107145, Control_c, 0, 64, 63
2, 107158, Control_c, 0, 64, 127
2, 107350, Note_on_c, 0, 69, 0
2, 107449, Note_on_c, 0, 66, 85
2, 107457, Note_on_c, 0, 61, 72
2, 107460, Note_on_c, 0, 57, 52
2, 107501, Note_on_c, 0, 54, 0
2, 107571, Note_on_c, 0, 66, 0
2, 107583, Note_on_c, 0, 73, 100
2, 107625, Note_on_c, 0, 61, 0
2, 107694, Note_on_c, 0, 57, 0
2, 107712, Note_on_c, 0, 78, 97
2, 107771, Note_on_c, 0, 73, 0
2, 107833, Note_on_c, 0, 81, 90
2, 107856, Note_on_c, 0, 78, 0
2, 107927, Note_on_c, 0, 81, 0
2, 107973, Note_on_c, 0, 52, 73
2, 108063, Note_on_c, 0, 80, 94
2, 108064, Note_on_c, 0, 68, 85
2, 108083, Note_on_c, 0, 73, 81
2, 108090, Control_c, 0, 64, 63
2, 108115, Control_c, 0, 64, 0
2, 108152, Control_c, 0, 64, 63
2, 108188, Control_c, 0, 64, 127
2, 108391, Note_on_c, 0, 61, 96
2, 108398, Note_on_c, 0, 57, 76
2, 108404, Note_on_c, 0, 80, 0
2, 108414, Note_on_c, 0, 68, 0
2, 108474, Note_on_c, 0, 61, 0
2, 108492, Note_on_c, 0, 52, 0
2, 108507, Note_on_c, 0, 57, 0
2, 108648, Note_on_c, 0, 78, 98
2, 108656, Note_on_c, 0, 66, 93
2, 108670, Note_on_c, 0, 73, 0
2, 108735, Note_on_c, 0, 78, 0
2, 108747, Note_on_c, 0, 66, 0
2, 108921, Note_on_c, 0, 51, 105
2, 109026, Control_c, 0, 64, 63
2, 109049, Control_c, 0, 64, 0
2, 109201, Note_on_c, 0, 71, 84
2, 109212, Note_on_c, 0, 59, 67
2, 109214, Note_on_c, 0, 69, 87
2, 109217, Note_on_c, 0, 66, 81
2, 109328, Note_on_c, 0, 49, 99
2, 109364, Note_on_c, 0, 51, 0
2, 109398, Control_c, 0, 64, 63
2, 109407, Control_c, 0, 64, 127
2, 109439, Note_on_c, 0, 59, 0
2, 109453, Note_on_c, 0, 52, 96
2, 109471, Note_on_c, 0, 71, 0
2, 109492, Note_on_c, 0, 66, 0
2, 109500, Note_on_c, 0, 69, 0
2, 109517, Note_on_c, 0, 49, 0
2, 109564, Note_on_c, 0, 51, 110
2, 109618, Note_on_c, 0, 52, 0
2, 109715, Note_on_c, 0, 61, 94
2, 109723, Note_on_c, 0, 73, 83
2, 109736, Control_c, 0, 64, 63
2, 109739, Note_on_c, 0, 69, 60
2, 109741, Note_on_c, 0, 49, 95
2, 109758, Note_on_c, 0, 66, 52
2, 109782, Control_c, 0, 64, 0
2, 109792, Note_on_c, 0, 51, 0
2, 109798, Note_on_c, 0, 61, 0
2, 109804, Note_on_c, 0, 66, 0
2, 109828, Note_on_c, 0, 73, 0
2, 109833, Note_on_c, 0, 69, 0
2, 109874, Note_on_c, 0, 49, 0
2, 110045, Note_on_c, 0, 75, 87
2, 110062, Note_on_c, 0, 63, 49
2, 110066, Note_on_c, 0, 66, 61
2, 110067, Note_on_c, 0, 48, 75
2, 110077, Note_on_c, 0, 69, 48
2, 110137, Note_on_c, 0, 69, 0
2, 110140, Note_on_c, 0, 66, 0
2, 110144, Note_on_c, 0, 63, 0
2, 110145, Note_on_c, 0, 48, 0
2, 110147, Note_on_c, 0, 75, 0
2, 110448, Note_on_c, 0, 76, 75
2, 110457, Note_on_c, 0, 68, 56
2, 110459, Note_on_c, 0, 47, 53
2, 110487, Note_on_c, 0, 64, 39
2, 110488, Control_c, 0, 64, 63
2, 110519, Control_c, 0, 64, 127
2, 110577, Note_on_c, 0, 76, 0
2, 110581, Control_c, 0, 64, 63
2, 110621, Note_on_c, 0, 68, 0
2, 110646, Note_on_c, 0, 47, 0
2, 110676, Control_c, 0, 64, 0
2, 110692, Note_on_c, 0, 64, 0
2, 110869, Note_on_c, 0, 46, 70
2, 110980, Note_on_c, 0, 66, 80
2, 110984, Control_c, 0, 64, 63
2, 111002, Control_c, 0, 64, 127
2, 111059, Note_on_c, 0, 46, 0
2, 111219, Note_on_c, 0, 66, 0
2, 111374, Note_on_c, 0, 61, 78
2, 111385, Note_on_c, 0, 54, 64
2, 111402, Note_on_c, 0, 52, 52
2, 111514, Note_on_c, 0, 61, 0
2, 111519, Note_on_c, 0, 65, 85
2, 111522, Note_on_c, 0, 54, 0
2, 111551, Note_on_c, 0, 52, 0
2, 111656, Note_on_c, 0, 68, 103
2, 111707, Note_on_c, 0, 65, 0
2, 111780, Note_on_c, 0, 66, 106
2, 111813, Note_on_c, 0, 68, 0
2, 111869, Note_on_c, 0, 45, 79
2, 111880, Note_on_c, 0, 66, 0
2, 111944, Control_c, 0, 64, 63
2, 111962, Control_c, 0, 64, 0
2, 111973, Note_on_c, 0, 75, 80
2, 112074, Control_c, 0, 64, 63
2, 112091, Control_c, 0, 64, 127
2, 112253, Note_on_c, 0, 54, 68
2, 112254, Note_on_c, 0, 51, 71
2, 112256, Note_on_c, 0, 75, 0
2, 112259, Note_on_c, 0, 59, 51
2, 112270, Note_on_c, 0, 45, 0
2, 112296, Note_on_c, 0, 73, 80
2, 112377, Note_on_c, 0, 59, 0
2, 112397, Note_on_c, 0, 54, 0
2, 112411, Note_on_c, 0, 51, 0
2, 112488, Note_on_c, 0, 73, 0
2, 112539, Note_on_c, 0, 71, 81
2, 112640, Note_on_c, 0, 71, 0
2, 112789, Note_on_c, 0, 44, 100
2, 112876, Control_c, 0, 64, 63
2, 112918, Control_c, 0, 64, 0
2, 113107, Note_on_c, 0, 71, 98
2, 113113, Note_on_c, 0, 59, 82
2, 113114, Note_on_c, 0, 64, 82
2, 113260, Note_on_c, 0, 43, 81
2, 113303, Note_on_c, 0, 44, 0
2, 113368, Control_c, 0, 64, 63
2, 113421, Note_on_c, 0, 45, 79
2, 113440, Control_c, 0, 64, 127
2, 113458, Note_on_c, 0, 43, 0
2, 113468, Note_on_c, 0, 59, 0
2, 113565, Note_on_c, 0, 44, 92
2, 113578, Note_on_c, 0, 45, 0
2, 113689, Note_on_c, 0, 64, 0
2, 113709, Note_on_c, 0, 71, 0
2, 113765, Note_on_c, 0, 51, 83
2, 113789, Note_on_c, 0, 44, 0
2, 113849, Control_c, 0, 64, 63
2, 113917, Control_c, 0, 64, 0
2, 114000, Note_on_c, 0, 51, 0
2, 114126, Note_on_c, 0, 66, 70
2, 114131, Note_on_c, 0, 70, 78
2, 114138, Note_on_c, 0, 49, 79
2, 114139, Note_on_c, 0, 64, 51
2, 114294, Note_on_c, 0, 70, 0
2, 114310, Note_on_c, 0, 66, 0
2, 114329, Note_on_c, 0, 64, 0
2, 114337, Note_on_c, 0, 49, 0
2, 114615, Note_on_c, 0, 47, 49
2, 114630, Note_on_c, 0, 66, 51
2, 114631, Note_on_c, 0, 71, 60
2, 114633, Note_on_c, 0, 63, 45
2, 114713, Control_c, 0, 64, 63
2, 114733, Control_c, 0, 64, 127
2, 114891, Note_on_c, 0, 63, 0
2, 114916, Note_on_c, 0, 71, 0
2, 114943, Note_on_c, 0, 66, 0
2, 114972, Note_on_c, 0, 47, 0
2, 115209, Note_on_c, 0, 59, 69
2, 115223, Control_c, 0, 64, 63
2, 115286, Control_c, 0, 64, 0
2, 115681, Note_on_c, 0, 52, 45
2, 115712, Note_on_c, 0, 68, 65
2, 115774, Control_c, 0, 64, 63
2, 115792, Control_c, 0, 64, 127
2, 115940, Note_on_c, 0, 59, 0
2, 115947, Note_on_c, 0, 58, 64
2, 116120, Note_on_c, 0, 58, 0
2, 116131, Note_on_c, 0, 61, 80
2, 116248, Note_on_c, 0, 58, 80
2, 116273, Note_on_c, 0, 61, 0
2, 116408, Note_on_c, 0, 52, 0
2, 116411, Note_on_c, 0, 59, 88
2, 116453, Note_on_c, 0, 58, 0
2, 116559, Control_c, 0, 64, 63
2, 116586, Control_c, 0, 64, 0
2, 116694, Note_on_c, 0, 51, 84
2, 116884, Control_c, 0, 64, 63
2, 116899, Control_c, 0, 64, 127
2, 116976, Note_on_c, 0, 66, 96
2, 117070, Note_on_c, 0, 68, 0
2, 117133, Note_on_c, 0, 59, 0
2, 117231, Note_on_c, 0, 59, 96
2, 117440, Note_on_c, 0, 51, 0
2, 117516, Note_on_c, 0, 49, 86
2, 117698, Control_c, 0, 64, 63
2, 117724, Control_c, 0, 64, 0
2, 117804, Note_on_c, 0, 64, 74
2, 117846, Control_c, 0, 64, 63
2, 117847, Note_on_c, 0, 66, 0
2, 117867, Control_c, 0, 64, 127
2, 117937, Note_on_c, 0, 59, 0
2, 118045, Note_on_c, 0, 49, 0
2, 118102, Note_on_c, 0, 59, 64
2, 118152, Note_on_c, 0, 64, 0
2, 118376, Note_on_c, 0, 47, 65
2, 118505, Note_on_c, 0, 63, 72
2, 118616, Control_c, 0, 64, 63
2, 118635, Note_on_c, 0, 62, 55
2, 118644, Control_c, 0, 64, 0
2, 118646, Note_on_c, 0, 63, 0
2, 118691, Note_on_c, 0, 59, 0
2, 118775, Note_on_c, 0, 63, 80
2, 118784, Control_c, 0, 64, 63
2, 118800, Note_on_c, 0, 62, 0
2, 118813, Control_c, 0, 64, 127
2, 118885, Note_on_c, 0, 63, 0
2, 118920, Note_on_c, 0, 47, 0
2, 118936, Note_on_c, 0, 59, 87
2, 119018, Control_c, 0, 64, 63
2, 119050, Control_c, 0, 64, 0
2, 119287, Note_on_c, 0, 52, 48
2, 119300, Note_on_c, 0, 68, 76
2, 119374, Control_c, 0, 64, 63
2, 119396, Control_c, 0, 64, 127
2, 119509, Note_on_c, 0, 58, 70
2, 119517, Note_on_c, 0, 59, 0
2, 119675, Note_on_c, 0, 61, 90
2, 119686, Note_on_c, 0, 58, 0
2, 119787, Note_on_c, 0, 58, 84
2, 119798, Note_on_c, 0, 61, 0
2, 119887, Note_on_c, 0, 52, 0
2, 119939, Note_on_c, 0, 59, 94
2, 119989, Note_on_c, 0, 58, 0
2, 120086, Control_c, 0, 64, 63
2, 120135, Control_c, 0, 64, 0
2, 120195, Note_on_c, 0, 51, 106
2, 120442, Control_c, 0, 64, 63
2, 120470, Note_on_c, 0, 66, 105
2, 120482, Control_c, 0, 64, 127
2, 120521, Note_on_c, 0, 68, 0
2, 120636, Note_on_c, 0, 59, 0
2, 120734, Note_on_c, 0, 59, 97
2, 120808, Note_on_c, 0, 51, 0
2, 121014, Control_c, 0, 64, 63
2, 121018, Note_on_c, 0, 49, 104
2, 121060, Control_c, 0, 64, 0
2, 121343, Note_on_c, 0, 76, 103
2, 121489, Control_c, 0, 64, 63
2, 121500, Control_c, 0, 64, 127
2, 121547, Note_on_c, 0, 59, 0
2, 121701, Note_on_c, 0, 59, 72
2, 121771, Note_on_c, 0, 49, 0
2, 122002, Note_on_c, 0, 47, 56
2, 122078, Control_c, 0, 64, 63
2, 122096, Control_c, 0, 64, 0
2, 122169, Note_on_c, 0, 75, 72
2, 122233, Note_on_c, 0, 76, 0
2, 122237, Control_c, 0, 64, 63
2, 122258, Control_c, 0, 64, 127
2, 122332, Note_on_c, 0, 66, 0
2, 122353, Note_on_c, 0, 71, 50
2, 122415, Note_on_c, 0, 59, 0
2, 122416, Note_on_c, 0, 47, 0
2, 122512, Note_on_c, 0, 66, 50
2, 122571, Note_on_c, 0, 75, 0
2, 122601, Note_on_c, 0, 71, 0
2, 122698, Note_on_c, 0, 66, 0
2, 122705, Note_on_c, 0, 59, 78
2, 122759, Control_c, 0, 64, 63
2, 122780, Control_c, 0, 64, 0
2, 123057, Note_on_c, 0, 52, 51
2, 123060, Note_on_c, 0, 68, 72
2, 123111, Control_c, 0, 64, 63
2, 123122, Control_c, 0, 64, 127
2, 123248, Note_on_c, 0, 58, 85
2, 123259, Note_on_c, 0, 59, 0
2, 123396, Note_on_c, 0, 58, 0
2, 123400, Note_on_c, 0, 61, 85
2, 123498, Note_on_c, 0, 58, 86
2, 123528, Note_on_c, 0, 61, 0
2, 123604, Note_on_c, 0, 52, 0
2, 123647, Note_on_c, 0, 59, 92
2, 123691, Note_on_c, 0, 58, 0
2, 123792, Control_c, 0, 64, 63
2, 123824, Control_c, 0, 64, 0
2, 123926, Note_on_c, 0, 51, 93
2, 124150, Control_c, 0, 64, 63
2, 124159, Control_c, 0, 64, 127
2, 124184, Note_on_c, 0, 66, 92
2, 124228, Note_on_c, 0, 68, 0
2, 124358, Note_on_c, 0, 59, 0
2, 124457, Note_on_c, 0, 59, 92
2, 124531, Note_on_c, 0, 51, 0
2, 124736, Note_on_c, 0, 49, 78
2, 124782, Control_c, 0, 64, 63
2, 124815, Control_c, 0, 64, 0
2, 125021, Note_on_c, 0, 64, 68
2, 125038, Control_c, 0, 64, 63
2, 125059, Note_on_c, 0, 66, 0
2, 125063, Control_c, 0, 64, 127
2, 125171, Note_on_c, 0, 59, 0
2, 125298, Note_on_c, 0, 59, 58
2, 125357, Control_c, 0, 64, 63
2, 125405, Note_on_c, 0, 49, 0
2, 125479, Control_c, 0, 64, 127
2, 125589, Note_on_c, 0, 47, 63
2, 125645, Note_on_c, 0, 64, 0
2, 125714, Note_on_c, 0, 63, 69
2, 125859, Note_on_c, 0, 62, 64
2, 125885, Note_on_c, 0, 63, 0
2, 125902, Note_on_c, 0, 47, 0
2, 125905, Note_on_c, 0, 59, 0
2, 125997, Note_on_c, 0, 63, 76
2, 126000, Note_on_c, 0, 62, 0
2, 126112, Note_on_c, 0, 63, 0
2, 126147, Note_on_c, 0, 59, 92
2, 126177, Control_c, 0, 64, 63
2, 126209, Control_c, 0, 64, 0
2, 126456, Note_on_c, 0, 52, 55
2, 126474, Control_c, 0, 64, 63
2, 126480, Note_on_c, 0, 68, 78
2, 126504, Control_c, 0, 64, 127
2, 126618, Note_on_c, 0, 59, 0
2, 126619, Note_on_c, 0, 58, 81
2, 126753, Note_on_c, 0, 58, 0
2, 126755, Note_on_c, 0, 61, 100
2, 126856, Note_on_c, 0, 58, 90
2, 126888, Note_on_c, 0, 61, 0
2, 126945, Note_on_c, 0, 52, 0
2, 127021, Note_on_c, 0, 59, 92
2, 127078, Note_on_c, 0, 58, 0
2, 127170, Control_c, 0, 64, 63
2, 127199, Control_c, 0, 64, 0
2, 127300, Note_on_c, 0, 51, 93
2, 127588, Note_on_c, 0, 66, 89
2, 127608, Control_c, 0, 64, 63
2, 127620, Control_c, 0, 64, 127
2, 127644, Note_on_c, 0, 68, 0
2, 127723, Note_on_c, 0, 59, 0
2, 127931, Note_on_c, 0, 61, 90
2, 127941, Note_on_c, 0, 58, 76
2, 127987, Control_c, 0, 64, 63
2, 128013, Control_c, 0, 64, 0
2, 128066, Control_c, 0, 64, 63
2, 128101, Control_c, 0, 64, 127
2, 128164, Note_on_c, 0, 51, 0
2, 128288, Note_on_c, 0, 51, 95
2, 128553, Note_on_c, 0, 66, 0
2, 128566, Note_on_c, 0, 67, 100
2, 128636, Control_c, 0, 64, 63
2, 128698, Control_c, 0, 64, 127
2, 128721, Note_on_c, 0, 58, 0
2, 128759, Note_on_c, 0, 61, 0
2, 128846, Note_on_c, 0, 59, 87
2, 128850, Note_on_c, 0, 63, 112
2, 128916, Control_c, 0, 64, 63
2, 128978, Control_c, 0, 64, 127
2, 129027, Note_on_c, 0, 51, 0
2, 129127, Note_on_c, 0, 51, 106
2, 129248, Control_c, 0, 64, 63
2, 129275, Control_c, 0, 64, 0
2, 129324, Control_c, 0, 64, 63
2, 129358, Note_on_c, 0, 67, 0
2, 129361, Control_c, 0, 64, 127
2, 129411, Note_on_c, 0, 68, 113
2, 129535, Note_on_c, 0, 59, 0
2, 129544, Note_on_c, 0, 63, 0
2, 129586, Note_on_c, 0, 51, 0
2, 129816, Control_c, 0, 64, 63
2, 129817, Note_on_c, 0, 61, 84
2, 129833, Note_on_c, 0, 55, 63
2, 129834, Note_on_c, 0, 63, 86
2, 129895, Control_c, 0, 64, 127
2, 130045, Note_on_c, 0, 68, 0
2, 130133, Note_on_c, 0, 63, 0
2, 130221, Note_on_c, 0, 51, 89
2, 130251, Note_on_c, 0, 61, 0
2, 130381, Note_on_c, 0, 70, 95
2, 130482, Note_on_c, 0, 55, 0
2, 130512, Note_on_c, 0, 71, 99
2, 130526, Note_on_c, 0, 70, 0
2, 130625, Note_on_c, 0, 51, 0
2, 130631, Note_on_c, 0, 70, 115
2, 130694, Note_on_c, 0, 71, 0
2, 130778, Note_on_c, 0, 63, 88
2, 130797, Note_on_c, 0, 73, 108
2, 130802, Note_on_c, 0, 59, 54
2, 130803, Note_on_c, 0, 56, 63
2, 130832, Control_c, 0, 64, 63
2, 130840, Control_c, 0, 64, 0
2, 130845, Note_on_c, 0, 70, 0
2, 130923, Control_c, 0, 64, 63
2, 130945, Control_c, 0, 64, 127
2, 131067, Note_on_c, 0, 51, 100
2, 131227, Note_on_c, 0, 56, 0
2, 131236, Note_on_c, 0, 51, 0
2, 131248, Note_on_c, 0, 59, 0
2, 131300, Note_on_c, 0, 63, 0
2, 131318, Note_on_c, 0, 73, 0
2, 131334, Note_on_c, 0, 71, 99
2, 131572, Control_c, 0, 64, 63
2, 131579, Control_c, 0, 64, 0
2, 131595, Note_on_c, 0, 71, 0
2, 131598, Note_on_c, 0, 68, 101
2, 131606, Note_on_c, 0, 63, 89
2, 131620, Note_on_c, 0, 59, 81
2, 131624, Control_c, 0, 64, 63
2, 131644, Control_c, 0, 64, 127
2, 131691, Note_on_c, 0, 68, 0
2, 131698, Note_on_c, 0, 63, 0
2, 131717, Note_on_c, 0, 59, 0
2, 131912, Note_on_c, 0, 51, 92
2, 132080, Note_on_c, 0, 74, 93
2, 132208, Note_on_c, 0, 76, 107
2, 132244, Note_on_c, 0, 74, 0
2, 132322, Note_on_c, 0, 74, 99
2, 132370, Note_on_c, 0, 76, 0
2, 132484, Note_on_c, 0, 74, 0
2, 132491, Note_on_c, 0, 76, 98
2, 132493, Note_on_c, 0, 67, 73
2, 132494, Note_on_c, 0, 61, 77
2, 132518, Note_on_c, 0, 58, 57
2, 132534, Control_c, 0, 64, 63
2, 132546, Control_c, 0, 64, 0
2, 132573, Control_c, 0, 64, 63
2, 132601, Control_c, 0, 64, 127
2, 132625, Note_on_c, 0, 51, 0
2, 132629, Note_on_c, 0, 67, 0
2, 132822, Note_on_c, 0, 61, 0
2, 132871, Note_on_c, 0, 51, 98
2, 132895, Note_on_c, 0, 76, 0
2, 132936, Note_on_c, 0, 58, 0
2, 133048, Note_on_c, 0, 51, 0
2, 133186, Note_on_c, 0, 75, 83
2, 133340, Note_on_c, 0, 75, 0
2, 133429, Note_on_c, 0, 63, 87
2, 133435, Note_on_c, 0, 61, 80
2, 133466, Control_c, 0, 64, 63
2, 133473, Note_on_c, 0, 55, 58
2, 133474, Control_c, 0, 64, 0
2, 133538, Control_c, 0, 64, 63
2, 133562, Control_c, 0, 64, 127
2, 133658, Note_on_c, 0, 63, 0
2, 133710, Note_on_c, 0, 51, 90
2, 133719, Note_on_c, 0, 61, 0
2, 133798, Note_on_c, 0, 55, 0
2, 133830, Note_on_c, 0, 70, 105
2, 133864, Note_on_c, 0, 51, 0
2, 133950, Note_on_c, 0, 71, 92
2, 133965, Note_on_c, 0, 70, 0
2, 134059, Note_on_c, 0, 70, 113
2, 134115, Note_on_c, 0, 71, 0
2, 134226, Note_on_c, 0, 63, 83
2, 134229, Note_on_c, 0, 73, 109
2, 134232, Note_on_c, 0, 59, 71
2, 134240, Control_c, 0, 64, 63
2, 134247, Control_c, 0, 64, 0
2, 134249, Note_on_c, 0, 56, 57
2, 134263, Note_on_c, 0, 70, 0
2, 134344, Control_c, 0, 64, 63
2, 134361, Control_c, 0, 64, 127
2, 134484, Note_on_c, 0, 63, 0
2, 134498, Note_on_c, 0, 51, 100
2, 134507, Note_on_c, 0, 59, 0
2, 134511, Note_on_c, 0, 56, 0
2, 134584, Note_on_c, 0, 51, 0
2, 134738, Note_on_c, 0, 73, 0
2, 134761, Note_on_c, 0, 71, 104
2, 134874, Note_on_c, 0, 71, 0
2, 135006, Control_c, 0, 64, 63
2, 135014, Note_on_c, 0, 68, 108
2, 135017, Control_c, 0, 64, 0
2, 135018, Note_on_c, 0, 63, 97
2, 135025, Note_on_c, 0, 59, 81
2, 135058, Control_c, 0, 64, 63
2, 135083, Control_c, 0, 64, 127
2, 135129, Note_on_c, 0, 68, 0
2, 135145, Note_on_c, 0, 63, 0
2, 135174, Note_on_c, 0, 59, 0
2, 135310, Note_on_c, 0, 51, 106
2, 135374, Note_on_c, 0, 51, 0
2, 135468, Note_on_c, 0, 74, 106
2, 135631, Note_on_c, 0, 76, 100
2, 135667, Note_on_c, 0, 74, 0
2, 135776, Note_on_c, 0, 74, 97
2, 135830, Note_on_c, 0, 76, 0
2, 135971, Note_on_c, 0, 74, 0
2, 136008, Note_on_c, 0, 61, 71
2, 136015, Note_on_c, 0, 67, 54
2, 136021, Note_on_c, 0, 58, 67
2, 136050, Note_on_c, 0, 76, 107
2, 136058, Control_c, 0, 64, 63
2, 136076, Control_c, 0, 64, 0
2, 136107, Control_c, 0, 64, 63
2, 136146, Control_c, 0, 64, 127
2, 136232, Note_on_c, 0, 67, 0
2, 136410, Note_on_c, 0, 61, 0
2, 136435, Note_on_c, 0, 76, 0
2, 136461, Note_on_c, 0, 51, 93
2, 136493, Note_on_c, 0, 58, 0
2, 136561, Note_on_c, 0, 51, 0
2, 136612, Note_on_c, 0, 75, 97
2, 136736, Note_on_c, 0, 74, 96
2, 136780, Note_on_c, 0, 75, 0
2, 136843, Note_on_c, 0, 75, 101
2, 136894, Note_on_c, 0, 74, 0
2, 136945, Control_c, 0, 64, 63
2, 136987, Note_on_c, 0, 67, 78
2, 136997, Note_on_c, 0, 61, 73
2, 137001, Note_on_c, 0, 58, 72
2, 137004, Note_on_c, 0, 75, 0
2, 137006, Note_on_c, 0, 76, 106
2, 137014, Control_c, 0, 64, 127
2, 137085, Note_on_c, 0, 67, 0
2, 137169, Note_on_c, 0, 76, 0
2, 137211, Note_on_c, 0, 61, 0
2, 137257, Note_on_c, 0, 51, 104
2, 137300, Note_on_c, 0, 58, 0
2, 137350, Note_on_c, 0, 51, 0
2, 137391, Note_on_c, 0, 75, 115
2, 137534, Note_on_c, 0, 74, 98
2, 137555, Note_on_c, 0, 75, 0
2, 137649, Note_on_c, 0, 75, 116
2, 137685, Note_on_c, 0, 74, 0
2, 137728, Note_on_c, 0, 75, 0
2, 137905, Note_on_c, 0, 82, 109
2, 138218, Note_on_c, 0, 80, 110
2, 138276, Note_on_c, 0, 82, 0
2, 138397, Note_on_c, 0, 79, 99
2, 138432, Note_on_c, 0, 80, 0
2, 138541, Note_on_c, 0, 79, 0
2, 138541, Note_on_c, 0, 76, 98
2, 138680, Note_on_c, 0, 75, 113
2, 138714, Note_on_c, 0, 76, 0
2, 138767, Control_c, 0, 64, 63
2, 138833, Note_on_c, 0, 73, 109
2, 138871, Control_c, 0, 64, 0
2, 138883, Note_on_c, 0, 75, 0
2, 139016, Note_on_c, 0, 76, 91
2, 139027, Note_on_c, 0, 73, 0
2, 139210, Note_on_c, 0, 75, 95
2, 139251, Note_on_c, 0, 76, 0
2, 139341, Note_on_c, 0, 73, 88
2, 139371, Note_on_c, 0, 75, 0
2, 139472, Note_on_c, 0, 73, 0
2, 139473, Note_on_c, 0, 71, 82
2, 139594, Note_on_c, 0, 71, 0
2, 139601, Note_on_c, 0, 70, 89
2, 139730, Note_on_c, 0, 68, 69
2, 139751, Note_on_c, 0, 70, 0
2, 139854, Note_on_c, 0, 67, 63
2, 139861, Note_on_c, 0, 68, 0
2, 139984, Note_on_c, 0, 68, 84
2, 139987, Note_on_c, 0, 67, 0
2, 140143, Note_on_c, 0, 69, 67
2, 140146, Note_on_c, 0, 68, 0
2, 140288, Note_on_c, 0, 70, 76
2, 140292, Note_on_c, 0, 69, 0
2, 140462, Note_on_c, 0, 70, 0
2, 140462, Note_on_c, 0, 71, 67
2, 140641, Note_on_c, 0, 71, 0
2, 140643, Note_on_c, 0, 72, 65
2, 140827, Note_on_c, 0, 73, 76
2, 140848, Note_on_c, 0, 72, 0
2, 141037, Note_on_c, 0, 72, 59
2, 141063, Note_on_c, 0, 73, 0
2, 141262, Note_on_c, 0, 75, 71
2, 141270, Note_on_c, 0, 72, 0
2, 141521, Note_on_c, 0, 73, 59
2, 141592, Note_on_c, 0, 75, 0
2, 141835, Note_on_c, 0, 72, 44
2, 141891, Note_on_c, 0, 73, 0
2, 142231, Note_on_c, 0, 70, 39
2, 142317, Note_on_c, 0, 72, 0
2, 142666, Note_on_c, 0, 44, 44
2, 142709, Note_on_c, 0, 70, 0
2, 142787, Control_c, 0, 64, 63
2, 142788, Control_c, 0, 64, 127
2, 142918, Note_on_c, 0, 44, 0
2, 143311, Note_on_c, 0, 51, 30
2, 143312, Note_on_c, 0, 68, 67
2, 143313, Note_on_c, 0, 56, 57
2, 143327, Note_on_c, 0, 60, 46
2, 143439, Note_on_c, 0, 56, 0
2, 143442, Note_on_c, 0, 51, 0
2, 143469, Note_on_c, 0, 60, 0
2, 143712, Note_on_c, 0, 56, 35
2, 143722, Note_on_c, 0, 51, 36
2, 143725, Note_on_c, 0, 60, 35
2, 143757, Note_on_c, 0, 63, 50
2, 143806, Note_on_c, 0, 60, 0
2, 143810, Note_on_c, 0, 56, 0
2, 143832, Note_on_c, 0, 51, 0
2, 143884, Note_on_c, 0, 63, 0
2, 144089, Control_c, 0, 64, 63
2, 144101, Note_on_c, 0, 39, 58
2, 144125, Note_on_c, 0, 70, 70
2, 144135, Note_on_c, 0, 68, 0
2, 144141, Control_c, 0, 64, 127
2, 144184, Note_on_c, 0, 39, 0
2, 144457, Note_on_c, 0, 70, 0
2, 144468, Note_on_c, 0, 51, 54
2, 144481, Note_on_c, 0, 63, 56
2, 144481, Note_on_c, 0, 68, 55
2, 144484, Note_on_c, 0, 60, 43
2, 144607, Note_on_c, 0, 51, 0
2, 144611, Note_on_c, 0, 63, 0
2, 144628, Note_on_c, 0, 60, 0
2, 144782, Note_on_c, 0, 56, 60
2, 144798, Note_on_c, 0, 60, 29
2, 144807, Note_on_c, 0, 72, 59
2, 144829, Note_on_c, 0, 51, 33
2, 144839, Note_on_c, 0, 68, 0
2, 144840, Note_on_c, 0, 60, 0
2, 144883, Note_on_c, 0, 56, 0
2, 144890, Note_on_c, 0, 72, 0
2, 145012, Note_on_c, 0, 51, 0
2, 145032, Control_c, 0, 64, 63
2, 145043, Control_c, 0, 64, 0
2, 145073, Note_on_c, 0, 46, 72
2, 145151, Control_c, 0, 64, 63
2, 145163, Control_c, 0, 64, 127
2, 145209, Note_on_c, 0, 46, 0
2, 145364, Note_on_c, 0, 73, 81
2, 145378, Note_on_c, 0, 51, 45
2, 145398, Note_on_c, 0, 55, 42
2, 145400, Note_on_c, 0, 61, 59
2, 145462, Note_on_c, 0, 61, 0
2, 145479, Note_on_c, 0, 51, 0
2, 145485, Note_on_c, 0, 55, 0
2, 145641, Note_on_c, 0, 63, 61
2, 145643, Note_on_c, 0, 61, 74
2, 145649, Note_on_c, 0, 67, 61
2, 145674, Note_on_c, 0, 51, 61
2, 145676, Note_on_c, 0, 61, 0
2, 145735, Note_on_c, 0, 51, 0
2, 145739, Note_on_c, 0, 63, 0
2, 145751, Note_on_c, 0, 73, 0
2, 145886, Control_c, 0, 64, 63
2, 145895, Control_c, 0, 64, 0
2, 145897, Note_on_c, 0, 39, 93
2, 145914, Note_on_c, 0, 72, 88
2, 145930, Control_c, 0, 64, 63
2, 145958, Control_c, 0, 64, 127
2, 145967, Note_on_c, 0, 67, 0
2, 145968, Note_on_c, 0, 39, 0
2, 146202, Note_on_c, 0, 51, 76
2, 146209, Note_on_c, 0, 61, 71
2, 146213, Note_on_c, 0, 67, 49
2, 146219, Note_on_c, 0, 63, 45
2, 146256, Note_on_c, 0, 55, 21
2, 146300, Note_on_c, 0, 61, 0
2, 146311, Note_on_c, 0, 51, 0
2, 146319, Note_on_c, 0, 72, 0
2, 146335, Note_on_c, 0, 55, 0
2, 146396, Note_on_c, 0, 63, 0
2, 146481, Note_on_c, 0, 70, 89
2, 146488, Note_on_c, 0, 61, 68
2, 146500, Note_on_c, 0, 55, 54
2, 146514, Note_on_c, 0, 67, 0
2, 146519, Note_on_c, 0, 51, 62
2, 146526, Note_on_c, 0, 61, 0
2, 146553, Note_on_c, 0, 55, 0
2, 146592, Note_on_c, 0, 70, 0
2, 146678, Control_c, 0, 64, 63
2, 146681, Note_on_c, 0, 51, 0
2, 146682, Control_c, 0, 64, 0
2, 146733, Note_on_c, 0, 44, 104
2, 146788, Control_c, 0, 64, 63
2, 146803, Control_c, 0, 64, 127
2, 146828, Note_on_c, 0, 44, 0
2, 147032, Note_on_c, 0, 56, 67
2, 147037, Note_on_c, 0, 51, 66
2, 147038, Note_on_c, 0, 72, 92
2, 147041, Note_on_c, 0, 60, 59
2, 147104, Note_on_c, 0, 51, 0
2, 147118, Note_on_c, 0, 60, 0
2, 147119, Note_on_c, 0, 56, 0
2, 147281, Note_on_c, 0, 68, 88
2, 147283, Note_on_c, 0, 51, 96
2, 147284, Note_on_c, 0, 56, 80
2, 147290, Note_on_c, 0, 60, 51
2, 147297, Note_on_c, 0, 63, 82
2, 147321, Note_on_c, 0, 56, 0
2, 147330, Note_on_c, 0, 72, 0
2, 147335, Note_on_c, 0, 60, 0
2, 147356, Note_on_c, 0, 51, 0
2, 147453, Note_on_c, 0, 63, 0
2, 147512, Control_c, 0, 64, 63
2, 147525, Control_c, 0, 64, 0
2, 147540, Note_on_c, 0, 39, 100
2, 147541, Note_on_c, 0, 73, 110
2, 147554, Note_on_c, 0, 68, 0
2, 147559, Control_c, 0, 64, 63
2, 147587, Control_c, 0, 64, 127
2, 147766, Note_on_c, 0, 39, 0
2, 147815, Note_on_c, 0, 63, 72
2, 147816, Note_on_c, 0, 68, 79
2, 147819, Note_on_c, 0, 56, 55
2, 147823, Note_on_c, 0, 60, 40
2, 147882, Note_on_c, 0, 60, 0
2, 147900, Note_on_c, 0, 56, 0
2, 148051, Note_on_c, 0, 68, 0
2, 148078, Note_on_c, 0, 75, 101
2, 148085, Note_on_c, 0, 60, 72
2, 148093, Note_on_c, 0, 56, 67
2, 148100, Note_on_c, 0, 54, 67
2, 148123, Note_on_c, 0, 73, 0
2, 148132, Note_on_c, 0, 60, 0
2, 148148, Note_on_c, 0, 63, 0
2, 148151, Note_on_c, 0, 54, 0
2, 148152, Note_on_c, 0, 56, 0
2, 148182, Note_on_c, 0, 75, 0
2, 148342, Control_c, 0, 64, 63
2, 148350, Control_c, 0, 64, 0
2, 148377, Note_on_c, 0, 44, 99
2, 148395, Note_on_c, 0, 77, 79
2, 148399, Control_c, 0, 64, 63
2, 148426, Control_c, 0, 64, 127
2, 148519, Note_on_c, 0, 44, 0
2, 148580, Note_on_c, 0, 77, 0
2, 148672, Note_on_c, 0, 53, 75
2, 148696, Note_on_c, 0, 68, 66
2, 148708, Note_on_c, 0, 56, 67
2, 148733, Note_on_c, 0, 74, 84
2, 148736, Note_on_c, 0, 59, 72
2, 148748, Note_on_c, 0, 79, 107
2, 148784, Note_on_c, 0, 68, 0
2, 148815, Note_on_c, 0, 74, 0
2, 148851, Note_on_c, 0, 56, 0
2, 148854, Note_on_c, 0, 53, 0
2, 148861, Note_on_c, 0, 59, 0
2, 148909, Note_on_c, 0, 79, 0
2, 149059, Note_on_c, 0, 56, 71
2, 149067, Note_on_c, 0, 53, 66
2, 149067, Note_on_c, 0, 59, 76
2, 149084, Note_on_c, 0, 68, 51
2, 149141, Note_on_c, 0, 74, 70
2, 149165, Note_on_c, 0, 80, 118
2, 149166, Note_on_c, 0, 68, 0
2, 149209, Note_on_c, 0, 59, 0
2, 149215, Note_on_c, 0, 74, 0
2, 149230, Note_on_c, 0, 56, 0
2, 149275, Note_on_c, 0, 53, 0
2, 149277, Note_on_c, 0, 80, 0
2, 149518, Note_on_c, 0, 44, 93
2, 149608, Note_on_c, 0, 75, 107
2, 149625, Control_c, 0, 64, 63
2, 149634, Control_c, 0, 64, 0
2, 149718, Control_c, 0, 64, 63
2, 149729, Control_c, 0, 64, 127
2, 149802, Note_on_c, 0, 44, 0
2, 149991, Note_on_c, 0, 68, 62
2, 149992, Note_on_c, 0, 51, 58
2, 149998, Note_on_c, 0, 56, 57
2, 150002, Note_on_c, 0, 72, 64
2, 150005, Note_on_c, 0, 63, 46
2, 150033, Note_on_c, 0, 60, 19
2, 150074, Note_on_c, 0, 63, 0
2, 150093, Note_on_c, 0, 68, 0
2, 150097, Note_on_c, 0, 56, 0
2, 150110, Note_on_c, 0, 60, 0
2, 150122, Note_on_c, 0, 51, 0
2, 150145, Note_on_c, 0, 72, 0
2, 150274, Note_on_c, 0, 60, 75
2, 150278, Note_on_c, 0, 63, 66
2, 150280, Note_on_c, 0, 56, 65
2, 150287, Note_on_c, 0, 68, 65
2, 150291, Note_on_c, 0, 72, 69
2, 150294, Note_on_c, 0, 51, 56
2, 150341, Note_on_c, 0, 60, 0
2, 150343, Note_on_c, 0, 56, 0
2, 150348, Note_on_c, 0, 63, 0
2, 150352, Note_on_c, 0, 51, 0
2, 150376, Note_on_c, 0, 68, 0
2, 150399, Note_on_c, 0, 75, 0
2, 150414, Note_on_c, 0, 72, 0
2, 150483, Control_c, 0, 64, 63
2, 150492, Control_c, 0, 64, 0
2, 150538, Note_on_c, 0, 45, 106
2, 150578, Control_c, 0, 64, 63
2, 150589, Control_c, 0, 64, 127
2, 150610, Note_on_c, 0, 45, 0
2, 150815, Note_on_c, 0, 78, 90
2, 150822, Note_on_c, 0, 60, 78
2, 150826, Note_on_c, 0, 53, 44
2, 150830, Note_on_c, 0, 63, 89
2, 150886, Control_c, 0, 64, 63
2, 150895, Control_c, 0, 64, 0
2, 150899, Note_on_c, 0, 63, 0
2, 150915, Note_on_c, 0, 77, 90
2, 150929, Note_on_c, 0, 60, 0
2, 150965, Note_on_c, 0, 53, 0
2, 150993, Note_on_c, 0, 78, 0
2, 151040, Note_on_c, 0, 75, 103
2, 151049, Note_on_c, 0, 63, 89
2, 151054, Note_on_c, 0, 60, 80
2, 151060, Note_on_c, 0, 53, 74
2, 151090, Note_on_c, 0, 77, 0
2, 151095, Note_on_c, 0, 63, 0
2, 151101, Note_on_c, 0, 60, 0
2, 151137, Note_on_c, 0, 78, 90
2, 151156, Note_on_c, 0, 53, 0
2, 151208, Note_on_c, 0, 75, 0
2, 151264, Note_on_c, 0, 78, 0
2, 151291, Note_on_c, 0, 46, 105
2, 151315, Note_on_c, 0, 77, 99
2, 151322, Control_c, 0, 64, 63
2, 151323, Control_c, 0, 64, 127
2, 151366, Note_on_c, 0, 46, 0
2, 151521, Note_on_c, 0, 77, 0
2, 151581, Note_on_c, 0, 58, 82
2, 151587, Note_on_c, 0, 61, 82
2, 151610, Note_on_c, 0, 53, 55
2, 151631, Note_on_c, 0, 61, 0
2, 151656, Note_on_c, 0, 58, 0
2, 151658, Control_c, 0, 64, 63
2, 151667, Control_c, 0, 64, 0
2, 151683, Note_on_c, 0, 53, 0
2, 151705, Note_on_c, 0, 73, 88
2, 151807, Note_on_c, 0, 58, 75
2, 151810, Note_on_c, 0, 61, 79
2, 151829, Note_on_c, 0, 70, 85
2, 151830, Note_on_c, 0, 53, 54
2, 151851, Note_on_c, 0, 61, 0
2, 151878, Note_on_c, 0, 58, 0
2, 151887, Note_on_c, 0, 73, 0
2, 151917, Note_on_c, 0, 53, 0
2, 151929, Note_on_c, 0, 65, 67
2, 151967, Note_on_c, 0, 70, 0
2, 152017, Note_on_c, 0, 65, 0
2, 152072, Note_on_c, 0, 43, 103
2, 152078, Control_c, 0, 64, 63
2, 152080, Control_c, 0, 64, 127
2, 152130, Note_on_c, 0, 43, 0
2, 152351, Note_on_c, 0, 51, 92
2, 152353, Note_on_c, 0, 58, 81
2, 152356, Note_on_c, 0, 76, 94
2, 152358, Note_on_c, 0, 61, 73
2, 152404, Note_on_c, 0, 61, 0
2, 152406, Note_on_c, 0, 51, 0
2, 152412, Control_c, 0, 64, 63
2, 152422, Note_on_c, 0, 58, 0
2, 152424, Control_c, 0, 64, 0
2, 152474, Note_on_c, 0, 75, 100
2, 152503, Note_on_c, 0, 76, 0
2, 152575, Note_on_c, 0, 61, 99
2, 152585, Note_on_c, 0, 51, 93
2, 152588, Note_on_c, 0, 58, 81
2, 152596, Note_on_c, 0, 73, 92
2, 152625, Note_on_c, 0, 58, 0
2, 152632, Note_on_c, 0, 75, 0
2, 152638, Note_on_c, 0, 61, 0
2, 152671, Note_on_c, 0, 51, 0
2, 152688, Note_on_c, 0, 76, 85
2, 152718, Note_on_c, 0, 73, 0
2, 152812, Note_on_c, 0, 76, 0
2, 152829, Note_on_c, 0, 44, 100
2, 152838, Note_on_c, 0, 75, 106
2, 152843, Control_c, 0, 64, 63
2, 152844, Control_c, 0, 64, 127
2, 152903, Note_on_c, 0, 44, 0
2, 152919, Note_on_c, 0, 75, 0
2, 153069, Note_on_c, 0, 56, 77
2, 153075, Note_on_c, 0, 60, 56
2, 153084, Note_on_c, 0, 51, 59
2, 153135, Note_on_c, 0, 51, 0
2, 153147, Note_on_c, 0, 60, 0
2, 153148, Note_on_c, 0, 56, 0
2, 153198, Note_on_c, 0, 72, 85
2, 153253, Control_c, 0, 64, 63
2, 153263, Control_c, 0, 64, 0
2, 153309, Note_on_c, 0, 68, 80
2, 153323, Note_on_c, 0, 56, 70
2, 153323, Note_on_c, 0, 60, 59
2, 153335, Note_on_c, 0, 51, 63
2, 153365, Note_on_c, 0, 60, 0
2, 153384, Note_on_c, 0, 56, 0
2, 153407, Note_on_c, 0, 63, 84
2, 153422, Note_on_c, 0, 51, 0
2, 153424, Note_on_c, 0, 72, 0
2, 153463, Note_on_c, 0, 68, 0
2, 153489, Note_on_c, 0, 63, 0
2, 153571, Note_on_c, 0, 42, 116
2, 153573, Control_c, 0, 64, 63
2, 153573, Control_c, 0, 64, 127
2, 153645, Note_on_c, 0, 42, 0
2, 153886, Note_on_c, 0, 68, 99
2, 153898, Note_on_c, 0, 54, 72
2, 153900, Note_on_c, 0, 56, 68
2, 153973, Note_on_c, 0, 56, 0
2, 154001, Note_on_c, 0, 54, 0
2, 154134, Note_on_c, 0, 56, 92
2, 154136, Note_on_c, 0, 63, 96
2, 154144, Note_on_c, 0, 60, 85
2, 154147, Note_on_c, 0, 54, 84
2, 154186, Note_on_c, 0, 54, 0
2, 154201, Note_on_c, 0, 56, 0
2, 154277, Note_on_c, 0, 60, 0
2, 154340, Note_on_c, 0, 63, 0
2, 154341, Note_on_c, 0, 68, 0
2, 154354, Control_c, 0, 64, 63
2, 154365, Control_c, 0, 64, 0
2, 154373, Note_on_c, 0, 41, 113
2, 154388, Note_on_c, 0, 67, 104
2, 154426, Control_c, 0, 64, 63
2, 154450, Control_c, 0, 64, 127
2, 154475, Note_on_c, 0, 41, 0
2, 154640, Note_on_c, 0, 53, 76
2, 154641, Note_on_c, 0, 65, 84
2, 154649, Note_on_c, 0, 56, 89
2, 154654, Note_on_c, 0, 60, 72
2, 154731, Note_on_c, 0, 67, 0
2, 154735, Note_on_c, 0, 56, 0
2, 154760, Note_on_c, 0, 53, 0
2, 154779, Note_on_c, 0, 60, 0
2, 154829, Note_on_c, 0, 65, 0
2, 154909, Note_on_c, 0, 56, 88
2, 154915, Note_on_c, 0, 68, 115
2, 154926, Note_on_c, 0, 53, 69
2, 154930, Note_on_c, 0, 65, 92
2, 154936, Note_on_c, 0, 60, 88
2, 154965, Note_on_c, 0, 53, 0
2, 154973, Note_on_c, 0, 56, 0
2, 155038, Note_on_c, 0, 60, 0
2, 155052, Note_on_c, 0, 65, 0
2, 155098, Note_on_c, 0, 68, 0
2, 155183, Control_c, 0, 64, 63
2, 155192, Control_c, 0, 64, 0
2, 155198, Note_on_c, 0, 40, 108
2, 155214, Note_on_c, 0, 70, 115
2, 155245, Control_c, 0, 64, 63
2, 155270, Control_c, 0, 64, 127
2, 155309, Note_on_c, 0, 40, 0
2, 155548, Note_on_c, 0, 52, 48
2, 155549, Note_on_c, 0, 68, 98
2, 155553, Note_on_c, 0, 56, 71
2, 155562, Note_on_c, 0, 62, 83
2, 155622, Note_on_c, 0, 70, 0
2, 155644, Note_on_c, 0, 56, 0
2, 155658, Note_on_c, 0, 52, 0
2, 155663, Note_on_c, 0, 62, 0
2, 155673, Note_on_c, 0, 71, 98
2, 155706, Note_on_c, 0, 68, 0
2, 155806, Note_on_c, 0, 56, 76
2, 155810, Note_on_c, 0, 70, 105
2, 155815, Note_on_c, 0, 52, 68
2, 155821, Note_on_c, 0, 68, 89
2, 155833, Note_on_c, 0, 62, 79
2, 155853, Note_on_c, 0, 71, 0
2, 155863, Note_on_c, 0, 56, 0
2, 155868, Note_on_c, 0, 52, 0
2, 155918, Note_on_c, 0, 62, 0
2, 155935, Note_on_c, 0, 71, 97
2, 155982, Note_on_c, 0, 70, 0
2, 155990, Note_on_c, 0, 68, 0
2, 156109, Note_on_c, 0, 71, 0
2, 156113, Note_on_c, 0, 39, 90
2, 156135, Note_on_c, 0, 67, 91
2, 156141, Control_c, 0, 64, 63
2, 156148, Control_c, 0, 64, 0
2, 156239, Control_c, 0, 64, 63
2, 156252, Control_c, 0, 64, 127
2, 156267, Note_on_c, 0, 39, 0
2, 156487, Note_on_c, 0, 63, 66
2, 156488, Note_on_c, 0, 61, 60
2, 156500, Note_on_c, 0, 58, 64
2, 156509, Note_on_c, 0, 51, 58
2, 156586, Note_on_c, 0, 58, 0
2, 156588, Note_on_c, 0, 51, 0
2, 156589, Note_on_c, 0, 61, 0
2, 156625, Note_on_c, 0, 63, 0
2, 156878, Note_on_c, 0, 63, 58
2, 156880, Note_on_c, 0, 58, 52
2, 156882, Note_on_c, 0, 61, 45
2, 156893, Note_on_c, 0, 51, 58
2, 156986, Note_on_c, 0, 61, 0
2, 156996, Note_on_c, 0, 58, 0
2, 157019, Note_on_c, 0, 51, 0
2, 157036, Note_on_c, 0, 63, 0
2, 157085, Note_on_c, 0, 67, 0
2, 157285, Control_c, 0, 64, 63
2, 157293, Control_c, 0, 64, 0
2, 157306, Note_on_c, 0, 44, 81
2, 157430, Control_c, 0, 64, 63
2, 157434, Control_c, 0, 64, 127
2, 157457, Note_on_c, 0, 44, 0
2, 157754, Note_on_c, 0, 68, 75
2, 157764, Note_on_c, 0, 56, 40
2, 157776, Note_on_c, 0, 51, 45
2, 157801, Note_on_c, 0, 60, 24
2, 157887, Note_on_c, 0, 56, 0
2, 157900, Note_on_c, 0, 51, 0
2, 157909, Note_on_c, 0, 60, 0
2, 158083, Note_on_c, 0, 63, 58
2, 158088, Note_on_c, 0, 60, 65
2, 158089, Note_on_c, 0, 56, 63
2, 158106, Note_on_c, 0, 51, 64
2, 158148, Note_on_c, 0, 60, 0
2, 158153, Note_on_c, 0, 56, 0
2, 158182, Note_on_c, 0, 51, 0
2, 158196, Note_on_c, 0, 63, 0
2, 158349, Control_c, 0, 64, 63
2, 158357, Control_c, 0, 64, 0
2, 158395, Note_on_c, 0, 39, 85
2, 158410, Note_on_c, 0, 70, 89
2, 158436, Control_c, 0, 64, 63
2, 158457, Control_c, 0, 64, 127
2, 158460, Note_on_c, 0, 68, 0
2, 158470, Note_on_c, 0, 39, 0
2, 158699, Note_on_c, 0, 56, 59
2, 158709, Note_on_c, 0, 60, 46
2, 158711, Note_on_c, 0, 51, 44
2, 158726, Note_on_c, 0, 68, 73
2, 158733, Note_on_c, 0, 63, 67
2, 158774, Note_on_c, 0, 51, 0
2, 158779, Note_on_c, 0, 56, 0
2, 158790, Note_on_c, 0, 60, 0
2, 158826, Note_on_c, 0, 63, 0
2, 158909, Note_on_c, 0, 68, 0
2, 158947, Note_on_c, 0, 70, 0
2, 158979, Note_on_c, 0, 60, 63
2, 158984, Note_on_c, 0, 56, 61
2, 158987, Note_on_c, 0, 51, 63
2, 158994, Note_on_c, 0, 72, 96
2, 159023, Note_on_c, 0, 60, 0
2, 159034, Note_on_c, 0, 56, 0
2, 159059, Note_on_c, 0, 51, 0
2, 159085, Note_on_c, 0, 72, 0
2, 159158, Control_c, 0, 64, 63
2, 159169, Control_c, 0, 64, 0
2, 159228, Note_on_c, 0, 46, 103
2, 159273, Control_c, 0, 64, 63
2, 159284, Control_c, 0, 64, 127
2, 159325, Note_on_c, 0, 46, 0
2, 159522, Note_on_c, 0, 73, 105
2, 159526, Note_on_c, 0, 61, 84
2, 159530, Note_on_c, 0, 51, 63
2, 159538, Note_on_c, 0, 55, 57
2, 159594, Note_on_c, 0, 61, 0
2, 159606, Note_on_c, 0, 55, 0
2, 159610, Note_on_c, 0, 51, 0
2, 159784, Note_on_c, 0, 61, 85
2, 159801, Note_on_c, 0, 63, 83
2, 159802, Note_on_c, 0, 67, 79
2, 159803, Note_on_c, 0, 55, 41
2, 159811, Note_on_c, 0, 51, 79
2, 159813, Note_on_c, 0, 61, 0
2, 159856, Note_on_c, 0, 55, 0
2, 159888, Note_on_c, 0, 51, 0
2, 159893, Note_on_c, 0, 63, 0
2, 159914, Note_on_c, 0, 73, 0
2, 160015, Control_c, 0, 64, 63
2, 160022, Note_on_c, 0, 39, 105
2, 160026, Control_c, 0, 64, 0
2, 160044, Note_on_c, 0, 72, 93
2, 160070, Control_c, 0, 64, 63
2, 160085, Note_on_c, 0, 39, 0
2, 160090, Note_on_c, 0, 67, 0
2, 160098, Control_c, 0, 64, 127
2, 160327, Note_on_c, 0, 67, 68
2, 160330, Note_on_c, 0, 61, 78
2, 160331, Note_on_c, 0, 55, 55
2, 160337, Note_on_c, 0, 51, 58
2, 160338, Note_on_c, 0, 63, 70
2, 160386, Note_on_c, 0, 51, 0
2, 160405, Note_on_c, 0, 61, 0
2, 160421, Note_on_c, 0, 55, 0
2, 160459, Note_on_c, 0, 63, 0
2, 160476, Note_on_c, 0, 67, 0
2, 160608, Note_on_c, 0, 61, 59
2, 160614, Note_on_c, 0, 72, 0
2, 160618, Note_on_c, 0, 70, 83
2, 160631, Note_on_c, 0, 63, 49
2, 160635, Note_on_c, 0, 67, 47
2, 160644, Note_on_c, 0, 61, 0
2, 160657, Note_on_c, 0, 51, 61
2, 160681, Note_on_c, 0, 63, 0
2, 160688, Note_on_c, 0, 67, 0
2, 160718, Control_c, 0, 64, 63
2, 160723, Note_on_c, 0, 70, 0
2, 160726, Control_c, 0, 64, 0
2, 160853, Note_on_c, 0, 44, 99
2, 160889, Control_c, 0, 64, 63
2, 160896, Control_c, 0, 64, 127
2, 160902, Note_on_c, 0, 51, 0
2, 160962, Note_on_c, 0, 44, 0
2, 161133, Note_on_c, 0, 72, 112
2, 161139, Note_on_c, 0, 51, 65
2, 161142, Note_on_c, 0, 56, 71
2, 161147, Note_on_c, 0, 60, 71
2, 161218, Note_on_c, 0, 60, 0
2, 161239, Note_on_c, 0, 56, 0
2, 161240, Note_on_c, 0, 51, 0
2, 161387, Note_on_c, 0, 68, 88
2, 161391, Note_on_c, 0, 56, 83
2, 161396, Note_on_c, 0, 51, 93
2, 161404, Note_on_c, 0, 63, 71
2, 161428, Note_on_c, 0, 56, 0
2, 161434, Note_on_c, 0, 72, 0
2, 161469, Note_on_c, 0, 51, 0
2, 161561, Note_on_c, 0, 63, 0
2, 161605, Control_c, 0, 64, 63
2, 161613, Control_c, 0, 64, 0
2, 161621, Note_on_c, 0, 68, 0
2, 161645, Note_on_c, 0, 39, 113
2, 161646, Note_on_c, 0, 73, 115
2, 161661, Control_c, 0, 64, 63
2, 161680, Control_c, 0, 64, 127
2, 161711, Note_on_c, 0, 39, 0
2, 161930, Note_on_c, 0, 60, 89
2, 161931, Note_on_c, 0, 54, 83
2, 161932, Note_on_c, 0, 56, 86
2, 161942, Note_on_c, 0, 68, 92
2, 161948, Note_on_c, 0, 63, 89
2, 162006, Note_on_c, 0, 60, 0
2, 162031, Note_on_c, 0, 56, 0
2, 162047, Note_on_c, 0, 54, 0
2, 162057, Note_on_c, 0, 63, 0
2, 162106, Note_on_c, 0, 68, 0
2, 162219, Note_on_c, 0, 75, 112
2, 162229, Note_on_c, 0, 56, 80
2, 162231, Note_on_c, 0, 60, 67
2, 162232, Note_on_c, 0, 68, 93
2, 162234, Note_on_c, 0, 63, 84
2, 162236, Note_on_c, 0, 54, 80
2, 162251, Note_on_c, 0, 73, 0
2, 162267, Note_on_c, 0, 63, 0
2, 162269, Note_on_c, 0, 68, 0
2, 162271, Note_on_c, 0, 60, 0
2, 162290, Note_on_c, 0, 56, 0
2, 162291, Note_on_c, 0, 54, 0
2, 162324, Note_on_c, 0, 75, 0
2, 162483, Control_c, 0, 64, 63
2, 162492, Control_c, 0, 64, 0
2, 162515, Note_on_c, 0, 44, 106
2, 162523, Note_on_c, 0, 77, 103
2, 162549, Control_c, 0, 64, 63
2, 162571, Control_c, 0, 64, 127
2, 162628, Note_on_c, 0, 44, 0
2, 162726, Note_on_c, 0, 77, 0
2, 162781, Note_on_c, 0, 53, 57
2, 162813, Note_on_c, 0, 56, 86
2, 162835, Note_on_c, 0, 68, 81
2, 162861, Note_on_c, 0, 59, 68
2, 162881, Note_on_c, 0, 74, 75
2, 162901, Note_on_c, 0, 79, 109
2, 162932, Note_on_c, 0, 68, 0
2, 162961, Note_on_c, 0, 74, 0
2, 162977, Note_on_c, 0, 53, 0
2, 162987, Note_on_c, 0, 56, 0
2, 162999, Note_on_c, 0, 59, 0
2, 163062, Note_on_c, 0, 79, 0
2, 163143, Note_on_c, 0, 53, 78
2, 163156, Note_on_c, 0, 56, 69
2, 163199, Note_on_c, 0, 59, 74
2, 163219, Note_on_c, 0, 68, 87
2, 163268, Note_on_c, 0, 74, 76
2, 163296, Note_on_c, 0, 68, 0
2, 163303, Note_on_c, 0, 80, 115
2, 163308, Note_on_c, 0, 59, 0
2, 163334, Note_on_c, 0, 56, 0
2, 163344, Note_on_c, 0, 74, 0
2, 163363, Note_on_c, 0, 53, 0
2, 163398, Note_on_c, 0, 80, 0
2, 163693, Note_on_c, 0, 44, 103
2, 163746, Note_on_c, 0, 75, 99
2, 163749, Control_c, 0, 64, 63
2, 163758, Control_c, 0, 64, 0
2, 163823, Control_c, 0, 64, 63
2, 163838, Control_c, 0, 64, 127
2, 163899, Note_on_c, 0, 44, 0
2, 164146, Note_on_c, 0, 72, 68
2, 164150, Note_on_c, 0, 68, 57
2, 164155, Note_on_c, 0, 56, 55
2, 164160, Note_on_c, 0, 63, 45
2, 164166, Note_on_c, 0, 51, 42
2, 164170, Note_on_c, 0, 60, 47
2, 164219, Note_on_c, 0, 63, 0
2, 164242, Note_on_c, 0, 68, 0
2, 164255, Note_on_c, 0, 60, 0
2, 164258, Note_on_c, 0, 56, 0
2, 164267, Note_on_c, 0, 51, 0
2, 164283, Note_on_c, 0, 72, 0
2, 164494, Note_on_c, 0, 68, 51
2, 164495, Note_on_c, 0, 56, 52
2, 164499, Note_on_c, 0, 51, 50
2, 164502, Note_on_c, 0, 72, 54
2, 164502, Note_on_c, 0, 63, 31
2, 164510, Note_on_c, 0, 60, 33
2, 164602, Note_on_c, 0, 60, 0
2, 164604, Note_on_c, 0, 56, 0
2, 164609, Note_on_c, 0, 63, 0
2, 164684, Note_on_c, 0, 68, 0
2, 164689, Note_on_c, 0, 51, 0
2, 164758, Control_c, 0, 64, 63
2, 164772, Control_c, 0, 64, 0
2, 164842, Note_on_c, 0, 72, 0
2, 164891, Note_on_c, 0, 75, 0
2, 164923, Note_on_c, 0, 45, 80
2, 165000, Control_c, 0, 64, 127
2, 165101, Note_on_c, 0, 45, 0
2, 165440, Note_on_c, 0, 53, 66
2, 165446, Note_on_c, 0, 63, 63
2, 165453, Note_on_c, 0, 78, 83
2, 165460, Note_on_c, 0, 60, 63
2, 165587, Note_on_c, 0, 60, 0
2, 165599, Note_on_c, 0, 77, 89
2, 165608, Note_on_c, 0, 53, 0
2, 165614, Note_on_c, 0, 63, 0
2, 165694, Note_on_c, 0, 78, 0
2, 165744, Note_on_c, 0, 63, 82
2, 165752, Note_on_c, 0, 75, 106
2, 165775, Note_on_c, 0, 60, 52
2, 165782, Note_on_c, 0, 53, 31
2, 165799, Note_on_c, 0, 63, 0
2, 165802, Note_on_c, 0, 77, 0
2, 165820, Note_on_c, 0, 60, 0
2, 165846, Note_on_c, 0, 53, 0
2, 165884, Note_on_c, 0, 78, 100
2, 165953, Note_on_c, 0, 75, 0
2, 166017, Note_on_c, 0, 78, 0
2, 166050, Note_on_c, 0, 46, 104
2, 166055, Control_c, 0, 64, 63
2, 166063, Control_c, 0, 64, 0
2, 166067, Note_on_c, 0, 77, 97
2, 166114, Control_c, 0, 64, 63
2, 166132, Control_c, 0, 64, 127
2, 166170, Note_on_c, 0, 46, 0
2, 166372, Note_on_c, 0, 61, 91
2, 166373, Note_on_c, 0, 58, 81
2, 166397, Note_on_c, 0, 53, 61
2, 166446, Note_on_c, 0, 61, 0
2, 166459, Note_on_c, 0, 58, 0
2, 166481, Note_on_c, 0, 77, 0
2, 166499, Note_on_c, 0, 53, 0
2, 166500, Note_on_c, 0, 73, 100
2, 166619, Note_on_c, 0, 58, 72
2, 166620, Note_on_c, 0, 61, 80
2, 166626, Note_on_c, 0, 70, 97
2, 166640, Note_on_c, 0, 53, 46
2, 166660, Note_on_c, 0, 58, 0
2, 166663, Note_on_c, 0, 61, 0
2, 166688, Note_on_c, 0, 53, 0
2, 166690, Note_on_c, 0, 73, 0
2, 166734, Note_on_c, 0, 65, 87
2, 166778, Note_on_c, 0, 70, 0
2, 166827, Control_c, 0, 64, 63
2, 166836, Note_on_c, 0, 65, 0
2, 166837, Control_c, 0, 64, 0
2, 166891, Note_on_c, 0, 47, 116
2, 166927, Control_c, 0, 64, 63
2, 166936, Control_c, 0, 64, 127
2, 166970, Note_on_c, 0, 47, 0
2, 167207, Note_on_c, 0, 55, 46
2, 167208, Note_on_c, 0, 80, 96
2, 167208, Note_on_c, 0, 65, 83
2, 167232, Note_on_c, 0, 62, 44
2, 167288, Note_on_c, 0, 62, 0
2, 167294, Note_on_c, 0, 65, 0
2, 167324, Note_on_c, 0, 79, 92
2, 167327, Note_on_c, 0, 55, 0
2, 167356, Note_on_c, 0, 80, 0
2, 167416, Note_on_c, 0, 62, 99
2, 167419, Note_on_c, 0, 65, 96
2, 167421, Note_on_c, 0, 55, 80
2, 167442, Note_on_c, 0, 77, 106
2, 167477, Note_on_c, 0, 65, 0
2, 167479, Note_on_c, 0, 62, 0
2, 167490, Note_on_c, 0, 79, 0
2, 167517, Note_on_c, 0, 55, 0
2, 167540, Note_on_c, 0, 80, 113
2, 167578, Note_on_c, 0, 77, 0
2, 167646, Note_on_c, 0, 80, 0
2, 167672, Note_on_c, 0, 48, 114
2, 167681, Control_c, 0, 64, 63
2, 167689, Control_c, 0, 64, 0
2, 167704, Note_on_c, 0, 79, 117
2, 167735, Control_c, 0, 64, 63
2, 167758, Control_c, 0, 64, 127
2, 167773, Note_on_c, 0, 48, 0
2, 167941, Note_on_c, 0, 64, 87
2, 167942, Note_on_c, 0, 55, 87
2, 167944, Note_on_c, 0, 60, 93
2, 168016, Note_on_c, 0, 64, 0
2, 168018, Note_on_c, 0, 60, 0
2, 168021, Note_on_c, 0, 79, 0
2, 168049, Note_on_c, 0, 76, 106
2, 168057, Note_on_c, 0, 55, 0
2, 168165, Note_on_c, 0, 72, 106
2, 168173, Note_on_c, 0, 55, 96
2, 168178, Note_on_c, 0, 64, 87
2, 168183, Note_on_c, 0, 60, 91
2, 168197, Note_on_c, 0, 76, 0
2, 168220, Note_on_c, 0, 60, 0
2, 168230, Note_on_c, 0, 64, 0
2, 168263, Note_on_c, 0, 67, 88
2, 168264, Note_on_c, 0, 55, 0
2, 168270, Note_on_c, 0, 72, 0
2, 168340, Note_on_c, 0, 67, 0
2, 168407, Note_on_c, 0, 48, 114
2, 168422, Control_c, 0, 64, 63
2, 168432, Control_c, 0, 64, 0
2, 168506, Control_c, 0, 64, 63
2, 168529, Control_c, 0, 64, 127
2, 168743, Note_on_c, 0, 56, 69
2, 168749, Note_on_c, 0, 74, 97
2, 168753, Note_on_c, 0, 60, 32
2, 168764, Note_on_c, 0, 62, 47
2, 168914, Note_on_c, 0, 56, 0
2, 168928, Note_on_c, 0, 62, 0
2, 168934, Note_on_c, 0, 60, 0
2, 169056, Note_on_c, 0, 56, 72
2, 169081, Note_on_c, 0, 66, 51
2, 169082, Note_on_c, 0, 60, 37
2, 169087, Note_on_c, 0, 62, 38
2, 169088, Note_on_c, 0, 72, 68
2, 169095, Note_on_c, 0, 74, 0
2, 169194, Note_on_c, 0, 62, 0
2, 169214, Note_on_c, 0, 48, 0
2, 169231, Note_on_c, 0, 60, 0
2, 169233, Note_on_c, 0, 66, 0
2, 169250, Note_on_c, 0, 56, 0
2, 169310, Note_on_c, 0, 48, 70
2, 169330, Note_on_c, 0, 76, 85
2, 169346, Control_c, 0, 64, 63
2, 169355, Control_c, 0, 64, 0
2, 169356, Note_on_c, 0, 72, 0
2, 169400, Control_c, 0, 64, 63
2, 169418, Control_c, 0, 64, 127
2, 169445, Note_on_c, 0, 48, 0
2, 169612, Note_on_c, 0, 55, 49
2, 169618, Note_on_c, 0, 60, 55
2, 169619, Note_on_c, 0, 64, 64
2, 169627, Note_on_c, 0, 72, 53
2, 169628, Note_on_c, 0, 76, 0
2, 169720, Note_on_c, 0, 60, 0
2, 169722, Note_on_c, 0, 64, 0
2, 169749, Note_on_c, 0, 55, 0
2, 169858, Note_on_c, 0, 79, 83
2, 169873, Note_on_c, 0, 64, 59
2, 169875, Note_on_c, 0, 60, 60
2, 169884, Note_on_c, 0, 55, 50
2, 169897, Note_on_c, 0, 72, 0
2, 169917, Note_on_c, 0, 60, 0
2, 169923, Note_on_c, 0, 64, 0
2, 169941, Note_on_c, 0, 55, 0
2, 169949, Note_on_c, 0, 79, 0
2, 170091, Note_on_c, 0, 48, 91
2, 170116, Control_c, 0, 64, 63
2, 170124, Control_c, 0, 64, 0
2, 170165, Control_c, 0, 64, 63
2, 170193, Control_c, 0, 64, 127
2, 170369, Note_on_c, 0, 56, 67
2, 170375, Note_on_c, 0, 62, 61
2, 170377, Note_on_c, 0, 74, 94
2, 170396, Note_on_c, 0, 53, 35
2, 170503, Note_on_c, 0, 62, 0
2, 170508, Note_on_c, 0, 56, 0
2, 170537, Note_on_c, 0, 53, 0
2, 170645, Note_on_c, 0, 71, 78
2, 170647, Note_on_c, 0, 65, 68
2, 170652, Note_on_c, 0, 56, 72
2, 170658, Note_on_c, 0, 62, 55
2, 170669, Note_on_c, 0, 53, 45
2, 170685, Note_on_c, 0, 48, 0
2, 170732, Note_on_c, 0, 62, 0
2, 170766, Note_on_c, 0, 56, 0
2, 170776, Note_on_c, 0, 65, 0
2, 170824, Note_on_c, 0, 53, 0
2, 170869, Note_on_c, 0, 74, 0
2, 170883, Note_on_c, 0, 48, 70
2, 170911, Note_on_c, 0, 76, 90
2, 170916, Note_on_c, 0, 71, 0
2, 170935, Control_c, 0, 64, 63
2, 170949, Control_c, 0, 64, 0
2, 171004, Control_c, 0, 64, 63
2, 171036, Control_c, 0, 64, 127
2, 171199, Note_on_c, 0, 67, 63
2, 171205, Note_on_c, 0, 64, 57
2, 171218, Note_on_c, 0, 55, 45
2, 171219, Note_on_c, 0, 60, 39
2, 171306, Note_on_c, 0, 60, 0
2, 171328, Note_on_c, 0, 55, 0
2, 171432, Note_on_c, 0, 64, 0
2, 171474, Note_on_c, 0, 76, 0
2, 171481, Note_on_c, 0, 72, 73
2, 171509, Note_on_c, 0, 60, 33
2, 171513, Note_on_c, 0, 67, 0
2, 171518, Note_on_c, 0, 55, 38
2, 171519, Note_on_c, 0, 48, 0
2, 171595, Note_on_c, 0, 72, 0
2, 171611, Note_on_c, 0, 60, 0
2, 171648, Note_on_c, 0, 55, 0
2, 171694, Control_c, 0, 64, 63
2, 171702, Control_c, 0, 64, 0
2, 171713, Note_on_c, 0, 48, 84
2, 171804, Control_c, 0, 64, 63
2, 171821, Control_c, 0, 64, 127
2, 171967, Note_on_c, 0, 74, 101
2, 171970, Note_on_c, 0, 56, 74
2, 171980, Note_on_c, 0, 60, 68
2, 171981, Note_on_c, 0, 62, 71
2, 172095, Note_on_c, 0, 62, 0
2, 172098, Note_on_c, 0, 60, 0
2, 172110, Note_on_c, 0, 56, 0
2, 172172, Note_on_c, 0, 48, 0
2, 172241, Note_on_c, 0, 66, 80
2, 172242, Note_on_c, 0, 56, 74
2, 172245, Note_on_c, 0, 72, 84
2, 172247, Note_on_c, 0, 60, 67
2, 172248, Note_on_c, 0, 74, 0
2, 172249, Note_on_c, 0, 62, 69
2, 172331, Note_on_c, 0, 62, 0
2, 172337, Note_on_c, 0, 66, 0
2, 172343, Note_on_c, 0, 60, 0
2, 172378, Note_on_c, 0, 56, 0
2, 172474, Control_c, 0, 64, 63
2, 172481, Note_on_c, 0, 72, 0
2, 172484, Control_c, 0, 64, 0
2, 172485, Note_on_c, 0, 48, 84
2, 172504, Note_on_c, 0, 76, 106
2, 172554, Control_c, 0, 64, 63
2, 172574, Control_c, 0, 64, 127
2, 172603, Note_on_c, 0, 48, 0
2, 172789, Note_on_c, 0, 72, 65
2, 172796, Note_on_c, 0, 64, 65
2, 172797, Note_on_c, 0, 67, 51
2, 172799, Note_on_c, 0, 60, 65
2, 172801, Note_on_c, 0, 60, 0
2, 172806, Note_on_c, 0, 55, 63
2, 172825, Note_on_c, 0, 76, 0
2, 172890, Note_on_c, 0, 67, 0
2, 172896, Note_on_c, 0, 64, 0
2, 172938, Note_on_c, 0, 55, 0
2, 173078, Note_on_c, 0, 72, 0
2, 173085, Note_on_c, 0, 60, 45
2, 173085, Note_on_c, 0, 79, 71
2, 173087, Note_on_c, 0, 64, 43
2, 173102, Note_on_c, 0, 55, 48
2, 173140, Note_on_c, 0, 60, 0
2, 173146, Note_on_c, 0, 64, 0
2, 173178, Note_on_c, 0, 55, 0
2, 173238, Note_on_c, 0, 79, 0
2, 173418, Note_on_c, 0, 48, 55
2, 173458, Note_on_c, 0, 74, 79
2, 173518, Control_c, 0, 64, 63
2, 173535, Control_c, 0, 64, 0
2, 173560, Control_c, 0, 64, 63
2, 173597, Control_c, 0, 64, 127
2, 173807, Note_on_c, 0, 56, 52
2, 173822, Note_on_c, 0, 62, 44
2, 173825, Note_on_c, 0, 71, 60
2, 173830, Note_on_c, 0, 65, 48
2, 173842, Note_on_c, 0, 53, 24
2, 173919, Note_on_c, 0, 62, 0
2, 173935, Note_on_c, 0, 65, 0
2, 173937, Note_on_c, 0, 56, 0
2, 173944, Note_on_c, 0, 74, 0
2, 173961, Note_on_c, 0, 53, 0
2, 173969, Note_on_c, 0, 76, 83
2, 174000, Note_on_c, 0, 71, 0
2, 174106, Note_on_c, 0, 53, 65
2, 174107, Note_on_c, 0, 56, 65
2, 174112, Note_on_c, 0, 62, 45
2, 174118, Note_on_c, 0, 74, 97
2, 174125, Note_on_c, 0, 48, 0
2, 174133, Note_on_c, 0, 76, 0
2, 174211, Note_on_c, 0, 76, 89
2, 174221, Note_on_c, 0, 62, 0
2, 174258, Note_on_c, 0, 56, 0
2, 174267, Control_c, 0, 64, 63
2, 174275, Control_c, 0, 64, 0
2, 174277, Note_on_c, 0, 74, 0
2, 174291, Note_on_c, 0, 53, 0
2, 174323, Note_on_c, 0, 48, 76
2, 174337, Control_c, 0, 64, 63
2, 174357, Control_c, 0, 64, 127
2, 174366, Note_on_c, 0, 72, 94
2, 174423, Note_on_c, 0, 48, 0
2, 174426, Note_on_c, 0, 76, 0
2, 174518, Note_on_c, 0, 72, 0
2, 174640, Note_on_c, 0, 64, 73
2, 174657, Note_on_c, 0, 60, 65
2, 174659, Note_on_c, 0, 55, 48
2, 174768, Note_on_c, 0, 76, 93
2, 174784, Note_on_c, 0, 64, 0
2, 174789, Note_on_c, 0, 60, 0
2, 174845, Note_on_c, 0, 55, 0
2, 174868, Note_on_c, 0, 75, 95
2, 174899, Note_on_c, 0, 76, 0
2, 174969, Note_on_c, 0, 76, 98
2, 175006, Control_c, 0, 64, 63
2, 175016, Control_c, 0, 64, 0
2, 175037, Note_on_c, 0, 75, 0
2, 175085, Note_on_c, 0, 48, 90
2, 175120, Control_c, 0, 64, 63
2, 175128, Note_on_c, 0, 72, 91
2, 175136, Control_c, 0, 64, 127
2, 175171, Note_on_c, 0, 76, 0
2, 175174, Note_on_c, 0, 48, 0
2, 175244, Note_on_c, 0, 72, 0
2, 175381, Note_on_c, 0, 64, 88
2, 175392, Note_on_c, 0, 55, 66
2, 175397, Note_on_c, 0, 60, 81
2, 175446, Note_on_c, 0, 60, 0
2, 175456, Note_on_c, 0, 64, 0
2, 175499, Note_on_c, 0, 55, 0
2, 175500, Note_on_c, 0, 76, 100
2, 175606, Note_on_c, 0, 75, 97
2, 175652, Note_on_c, 0, 76, 0
2, 175705, Note_on_c, 0, 76, 94
2, 175733, Control_c, 0, 64, 63
2, 175740, Note_on_c, 0, 75, 0
2, 175750, Control_c, 0, 64, 0
2, 175789, Note_on_c, 0, 48, 80
2, 175843, Note_on_c, 0, 72, 91
2, 175848, Control_c, 0, 64, 63
2, 175855, Note_on_c, 0, 76, 0
2, 175870, Control_c, 0, 64, 127
2, 175882, Note_on_c, 0, 48, 0
2, 175947, Note_on_c, 0, 72, 0
2, 175968, Note_on_c, 0, 76, 96
2, 176094, Note_on_c, 0, 64, 53
2, 176094, Note_on_c, 0, 55, 32
2, 176105, Note_on_c, 0, 60, 63
2, 176119, Note_on_c, 0, 75, 88
2, 176137, Note_on_c, 0, 76, 0
2, 176207, Note_on_c, 0, 64, 0
2, 176208, Note_on_c, 0, 60, 0
2, 176219, Note_on_c, 0, 76, 76
2, 176226, Note_on_c, 0, 75, 0
2, 176251, Note_on_c, 0, 55, 0
2, 176350, Note_on_c, 0, 76, 0
2, 176365, Note_on_c, 0, 72, 76
2, 176413, Control_c, 0, 64, 63
2, 176437, Control_c, 0, 64, 0
2, 176447, Note_on_c, 0, 72, 0
2, 176459, Note_on_c, 0, 76, 80
2, 176595, Note_on_c, 0, 75, 74
2, 176603, Note_on_c, 0, 76, 0
2, 176688, Note_on_c, 0, 75, 0
2, 176705, Note_on_c, 0, 76, 55
2, 176848, Note_on_c, 0, 76, 0
2, 176855, Note_on_c, 0, 72, 64
2, 176955, Note_on_c, 0, 72, 0
2, 176961, Note_on_c, 0, 76, 71
2, 177112, Note_on_c, 0, 76, 0
2, 177113, Note_on_c, 0, 75, 69
2, 177236, Note_on_c, 0, 75, 0
2, 177242, Note_on_c, 0, 76, 63
2, 177428, Note_on_c, 0, 76, 0
2, 177475, Note_on_c, 0, 58, 53
2, 177490, Note_on_c, 0, 73, 58
2, 177587, Control_c, 0, 64, 63
2, 177587, Control_c, 0, 64, 127
2, 177638, Note_on_c, 0, 73, 0
2, 177647, Note_on_c, 0, 77, 76
2, 177821, Note_on_c, 0, 76, 84
2, 177830, Note_on_c, 0, 61, 65
2, 177838, Note_on_c, 0, 65, 50
2, 177851, Note_on_c, 0, 77, 0
2, 177914, Note_on_c, 0, 65, 0
2, 177927, Note_on_c, 0, 61, 0
2, 177940, Note_on_c, 0, 76, 0
2, 177945, Note_on_c, 0, 77, 76
2, 177993, Note_on_c, 0, 58, 0
2, 178075, Note_on_c, 0, 77, 0
2, 178083, Note_on_c, 0, 73, 80
2, 178094, Note_on_c, 0, 65, 56
2, 178099, Note_on_c, 0, 61, 65
2, 178134, Note_on_c, 0, 61, 0
2, 178141, Note_on_c, 0, 65, 0
2, 178186, Note_on_c, 0, 77, 81
2, 178198, Note_on_c, 0, 73, 0
2, 178312, Note_on_c, 0, 56, 98
2, 178331, Note_on_c, 0, 76, 85
2, 178348, Control_c, 0, 64, 63
2, 178366, Note_on_c, 0, 77, 0
2, 178435, Control_c, 0, 64, 127
2, 178470, Note_on_c, 0, 77, 85
2, 178492, Note_on_c, 0, 76, 0
2, 178582, Note_on_c, 0, 61, 83
2, 178591, Note_on_c, 0, 65, 73
2, 178594, Note_on_c, 0, 58, 73
2, 178607, Note_on_c, 0, 73, 89
2, 178622, Note_on_c, 0, 77, 0
2, 178666, Note_on_c, 0, 65, 0
2, 178673, Note_on_c, 0, 61, 0
2, 178704, Note_on_c, 0, 58, 0
2, 178706, Note_on_c, 0, 77, 96
2, 178724, Note_on_c, 0, 73, 0
2, 178819, Note_on_c, 0, 76, 98
2, 178826, Note_on_c, 0, 65, 87
2, 178828, Note_on_c, 0, 61, 90
2, 178833, Note_on_c, 0, 58, 79
2, 178872, Note_on_c, 0, 77, 0
2, 178895, Note_on_c, 0, 65, 0
2, 178914, Note_on_c, 0, 61, 0
2, 178921, Note_on_c, 0, 77, 97
2, 178937, Note_on_c, 0, 56, 0
2, 178962, Note_on_c, 0, 58, 0
2, 178971, Note_on_c, 0, 76, 0
2, 179052, Note_on_c, 0, 55, 108
2, 179061, Control_c, 0, 64, 63
2, 179072, Note_on_c, 0, 77, 0
2, 179073, Note_on_c, 0, 71, 93
2, 179146, Control_c, 0, 64, 127
2, 179207, Note_on_c, 0, 77, 98
2, 179322, Note_on_c, 0, 71, 0
2, 179344, Note_on_c, 0, 76, 100
2, 179365, Note_on_c, 0, 59, 79
2, 179368, Note_on_c, 0, 77, 0
2, 179370, Note_on_c, 0, 65, 84
2, 179371, Note_on_c, 0, 62, 81
2, 179433, Note_on_c, 0, 77, 92
2, 179455, Note_on_c, 0, 65, 0
2, 179466, Note_on_c, 0, 62, 0
2, 179469, Note_on_c, 0, 76, 0
2, 179495, Note_on_c, 0, 59, 0
2, 179541, Note_on_c, 0, 80, 99
2, 179567, Note_on_c, 0, 78, 30
2, 179571, Note_on_c, 0, 77, 0
2, 179579, Note_on_c, 0, 59, 70
2, 179581, Note_on_c, 0, 65, 77
2, 179600, Note_on_c, 0, 62, 43
2, 179603, Note_on_c, 0, 78, 0
2, 179616, Note_on_c, 0, 55, 0
2, 179621, Note_on_c, 0, 65, 0
2, 179631, Note_on_c, 0, 59, 0
2, 179644, Note_on_c, 0, 62, 0
2, 179657, Note_on_c, 0, 80, 0
2, 179680, Note_on_c, 0, 79, 93
2, 179834, Control_c, 0, 64, 63
2, 179845, Note_on_c, 0, 79, 0
2, 179850, Control_c, 0, 64, 0
2, 179867, Note_on_c, 0, 48, 97
2, 179890, Note_on_c, 0, 75, 101
2, 179893, Control_c, 0, 64, 63
2, 179921, Control_c, 0, 64, 127
2, 179971, Note_on_c, 0, 48, 0
2, 180085, Note_on_c, 0, 75, 0
2, 180217, Note_on_c, 0, 55, 60
2, 180223, Note_on_c, 0, 60, 71
2, 180228, Note_on_c, 0, 67, 59
2, 180321, Note_on_c, 0, 60, 0
2, 180331, Note_on_c, 0, 67, 0
2, 180337, Note_on_c, 0, 76, 75
2, 180353, Note_on_c, 0, 55, 0
2, 180509, Note_on_c, 0, 67, 49
2, 180533, Note_on_c, 0, 76, 0
2, 180533, Note_on_c, 0, 79, 70
2, 180560, Note_on_c, 0, 55, 12
2, 180562, Note_on_c, 0, 60, 43
2, 180706, Note_on_c, 0, 55, 0
2, 180713, Note_on_c, 0, 67, 0
2, 180721, Note_on_c, 0, 84, 54
2, 180725, Note_on_c, 0, 79, 0
2, 180746, Note_on_c, 0, 60, 0
2, 180866, Note_on_c, 0, 53, 76
2, 180890, Note_on_c, 0, 84, 0
2, 180924, Note_on_c, 0, 69, 76
2, 181032, Control_c, 0, 64, 63
2, 181055, Control_c, 0, 64, 0
2, 181084, Note_on_c, 0, 75, 89
2, 181136, Control_c, 0, 64, 63
2, 181163, Control_c, 0, 64, 127
2, 181166, Note_on_c, 0, 69, 0
2, 181241, Note_on_c, 0, 74, 86
2, 181243, Note_on_c, 0, 65, 54
2, 181252, Note_on_c, 0, 57, 57
2, 181253, Note_on_c, 0, 60, 61
2, 181284, Note_on_c, 0, 75, 0
2, 181337, Note_on_c, 0, 65, 0
2, 181345, Note_on_c, 0, 75, 89
2, 181360, Note_on_c, 0, 60, 0
2, 181372, Note_on_c, 0, 57, 0
2, 181398, Note_on_c, 0, 74, 0
2, 181466, Note_on_c, 0, 78, 95
2, 181472, Note_on_c, 0, 65, 64
2, 181477, Note_on_c, 0, 57, 69
2, 181480, Note_on_c, 0, 60, 62
2, 181484, Note_on_c, 0, 53, 0
2, 181518, Note_on_c, 0, 65, 0
2, 181521, Note_on_c, 0, 60, 0
2, 181526, Note_on_c, 0, 75, 0
2, 181558, Note_on_c, 0, 57, 0
2, 181588, Note_on_c, 0, 75, 94
2, 181656, Note_on_c, 0, 78, 0
2, 181703, Control_c, 0, 64, 63
2, 181710, Control_c, 0, 64, 0
2, 181716, Note_on_c, 0, 46, 94
2, 181741, Note_on_c, 0, 72, 98
2, 181766, Note_on_c, 0, 75, 0
2, 181778, Control_c, 0, 64, 63
2, 181797, Note_on_c, 0, 46, 0
2, 181798, Control_c, 0, 64, 127
2, 181858, Note_on_c, 0, 72, 0
2, 181985, Note_on_c, 0, 65, 75
2, 181990, Note_on_c, 0, 58, 79
2, 181993, Note_on_c, 0, 61, 78
2, 182055, Note_on_c, 0, 61, 0
2, 182060, Note_on_c, 0, 65, 0
2, 182077, Note_on_c, 0, 58, 0
2, 182102, Note_on_c, 0, 73, 108
2, 182217, Note_on_c, 0, 77, 82
2, 182223, Note_on_c, 0, 65, 78
2, 182232, Note_on_c, 0, 61, 80
2, 182234, Note_on_c, 0, 58, 80
2, 182237, Note_on_c, 0, 73, 0
2, 182275, Note_on_c, 0, 65, 0
2, 182279, Note_on_c, 0, 61, 0
2, 182308, Note_on_c, 0, 58, 0
2, 182338, Note_on_c, 0, 82, 107
2, 182354, Note_on_c, 0, 77, 0
2, 182427, Note_on_c, 0, 82, 0
2, 182450, Control_c, 0, 64, 63
2, 182457, Control_c, 0, 64, 0
2, 182474, Note_on_c, 0, 49, 105
2, 182492, Note_on_c, 0, 69, 100
2, 182516, Control_c, 0, 64, 63
2, 182535, Control_c, 0, 64, 127
2, 182562, Note_on_c, 0, 49, 0
2, 182578, Note_on_c, 0, 69, 0
2, 182733, Note_on_c, 0, 65, 80
2, 182737, Note_on_c, 0, 58, 76
2, 182739, Note_on_c, 0, 61, 77
2, 182807, Note_on_c, 0, 61, 0
2, 182809, Note_on_c, 0, 65, 0
2, 182828, Note_on_c, 0, 58, 0
2, 182833, Note_on_c, 0, 70, 101
2, 182955, Note_on_c, 0, 73, 104
2, 182967, Note_on_c, 0, 70, 0
2, 182983, Note_on_c, 0, 58, 73
2, 182986, Note_on_c, 0, 61, 72
2, 183047, Note_on_c, 0, 80, 89
2, 183074, Note_on_c, 0, 61, 0
2, 183117, Note_on_c, 0, 73, 0
2, 183189, Note_on_c, 0, 51, 95
2, 183212, Control_c, 0, 64, 63
2, 183213, Note_on_c, 0, 79, 91
2, 183228, Control_c, 0, 64, 0
2, 183229, Note_on_c, 0, 80, 0
2, 183239, Note_on_c, 0, 58, 0
2, 183290, Control_c, 0, 64, 63
2, 183316, Control_c, 0, 64, 127
2, 183390, Note_on_c, 0, 77, 82
2, 183432, Note_on_c, 0, 51, 0
2, 183457, Note_on_c, 0, 79, 0
2, 183510, Note_on_c, 0, 61, 81
2, 183511, Note_on_c, 0, 58, 67
2, 183521, Note_on_c, 0, 63, 75
2, 183535, Note_on_c, 0, 75, 85
2, 183589, Note_on_c, 0, 63, 0
2, 183590, Note_on_c, 0, 77, 0
2, 183594, Note_on_c, 0, 61, 0
2, 183624, Note_on_c, 0, 58, 0
2, 183646, Note_on_c, 0, 74, 84
2, 183699, Note_on_c, 0, 75, 0
2, 183757, Note_on_c, 0, 63, 74
2, 183761, Note_on_c, 0, 77, 93
2, 183772, Note_on_c, 0, 61, 75
2, 183778, Note_on_c, 0, 58, 55
2, 183786, Note_on_c, 0, 74, 0
2, 183847, Note_on_c, 0, 63, 0
2, 183865, Note_on_c, 0, 61, 0
2, 183878, Note_on_c, 0, 58, 0
2, 183881, Note_on_c, 0, 75, 86
2, 183922, Note_on_c, 0, 77, 0
2, 183943, Control_c, 0, 64, 63
2, 183963, Control_c, 0, 64, 0
2, 183998, Note_on_c, 0, 58, 72
2, 184014, Note_on_c, 0, 73, 81
2, 184043, Note_on_c, 0, 75, 0
2, 184133, Note_on_c, 0, 77, 82
2, 184136, Note_on_c, 0, 73, 0
2, 184239, Note_on_c, 0, 61, 74
2, 184253, Note_on_c, 0, 76, 82
2, 184260, Note_on_c, 0, 65, 60
2, 184262, Control_c, 0, 64, 63
2, 184274, Control_c, 0, 64, 127
2, 184293, Note_on_c, 0, 77, 0
2, 184347, Note_on_c, 0, 65, 0
2, 184349, Note_on_c, 0, 61, 0
2, 184356, Note_on_c, 0, 77, 83
2, 184383, Note_on_c, 0, 76, 0
2, 184485, Note_on_c, 0, 61, 84
2, 184490, Note_on_c, 0, 73, 99
2, 184491, Note_on_c, 0, 65, 69
2, 184494, Note_on_c, 0, 77, 0
2, 184551, Note_on_c, 0, 65, 0
2, 184582, Note_on_c, 0, 77, 100
2, 184585, Note_on_c, 0, 61, 0
2, 184605, Note_on_c, 0, 73, 0
2, 184709, Note_on_c, 0, 56, 101
2, 184722, Note_on_c, 0, 76, 93
2, 184772, Note_on_c, 0, 77, 0
2, 184788, Note_on_c, 0, 58, 0
2, 184798, Control_c, 0, 64, 63
2, 184817, Control_c, 0, 64, 0
2, 184833, Note_on_c, 0, 77, 90
2, 184872, Note_on_c, 0, 76, 0
2, 184931, Control_c, 0, 64, 63
2, 184947, Note_on_c, 0, 61, 92
2, 184950, Control_c, 0, 64, 127
2, 184951, Note_on_c, 0, 65, 84
2, 184956, Note_on_c, 0, 58, 85
2, 184962, Note_on_c, 0, 73, 103
2, 184978, Note_on_c, 0, 77, 0
2, 185038, Note_on_c, 0, 65, 0
2, 185050, Note_on_c, 0, 61, 0
2, 185051, Note_on_c, 0, 77, 87
2, 185085, Note_on_c, 0, 73, 0
2, 185089, Note_on_c, 0, 58, 0
2, 185152, Note_on_c, 0, 76, 96
2, 185187, Note_on_c, 0, 61, 94
2, 185192, Note_on_c, 0, 65, 78
2, 185196, Note_on_c, 0, 58, 82
2, 185197, Note_on_c, 0, 77, 0
2, 185260, Note_on_c, 0, 65, 0
2, 185264, Note_on_c, 0, 77, 96
2, 185308, Note_on_c, 0, 76, 0
2, 185315, Note_on_c, 0, 61, 0
2, 185345, Note_on_c, 0, 56, 0
2, 185391, Note_on_c, 0, 58, 0
2, 185418, Note_on_c, 0, 55, 106
2, 185427, Note_on_c, 0, 71, 94
2, 185441, Note_on_c, 0, 77, 0
2, 185454, Control_c, 0, 64, 63
2, 185466, Control_c, 0, 64, 0
2, 185578, Note_on_c, 0, 77, 103
2, 185594, Control_c, 0, 64, 63
2, 185613, Control_c, 0, 64, 127
2, 185657, Note_on_c, 0, 71, 0
2, 185701, Note_on_c, 0, 76, 102
2, 185713, Note_on_c, 0, 59, 79
2, 185714, Note_on_c, 0, 65, 92
2, 185715, Note_on_c, 0, 62, 90
2, 185732, Note_on_c, 0, 77, 0
2, 185790, Note_on_c, 0, 77, 96
2, 185798, Note_on_c, 0, 65, 0
2, 185815, Note_on_c, 0, 62, 0
2, 185834, Note_on_c, 0, 59, 0
2, 185843, Note_on_c, 0, 76, 0
2, 185857, Control_c, 0, 64, 63
2, 185905, Note_on_c, 0, 80, 92
2, 185907, Control_c, 0, 64, 127
2, 185934, Note_on_c, 0, 77, 0
2, 185935, Note_on_c, 0, 59, 86
2, 185936, Note_on_c, 0, 65, 85
2, 185938, Note_on_c, 0, 81, 58
2, 185942, Note_on_c, 0, 62, 76
2, 185974, Note_on_c, 0, 65, 0
2, 185981, Note_on_c, 0, 62, 0
2, 185993, Note_on_c, 0, 55, 0
2, 185997, Note_on_c, 0, 80, 0
2, 186006, Note_on_c, 0, 59, 0
2, 186019, Note_on_c, 0, 81, 0
2, 186029, Note_on_c, 0, 79, 90
2, 186068, Control_c, 0, 64, 63
2, 186084, Control_c, 0, 64, 0
2, 186153, Control_c, 0, 64, 63
2, 186173, Control_c, 0, 64, 127
2, 186199, Note_on_c, 0, 48, 96
2, 186207, Note_on_c, 0, 79, 0
2, 186222, Note_on_c, 0, 75, 114
2, 186289, Note_on_c, 0, 48, 0
2, 186306, Note_on_c, 0, 75, 0
2, 186498, Note_on_c, 0, 55, 39
2, 186519, Note_on_c, 0, 67, 88
2, 186520, Note_on_c, 0, 60, 80
2, 186607, Note_on_c, 0, 60, 0
2, 186608, Note_on_c, 0, 67, 0
2, 186636, Note_on_c, 0, 55, 0
2, 186637, Note_on_c, 0, 76, 97
2, 186745, Note_on_c, 0, 79, 94
2, 186748, Note_on_c, 0, 67, 72
2, 186755, Note_on_c, 0, 55, 57
2, 186763, Note_on_c, 0, 76, 0
2, 186763, Note_on_c, 0, 60, 63
2, 186796, Note_on_c, 0, 67, 0
2, 186814, Note_on_c, 0, 55, 0
2, 186854, Note_on_c, 0, 84, 100
2, 186876, Note_on_c, 0, 79, 0
2, 186887, Note_on_c, 0, 60, 0
2, 186934, Note_on_c, 0, 84, 0
2, 186959, Control_c, 0, 64, 63
2, 186974, Control_c, 0, 64, 0
2, 187003, Note_on_c, 0, 53, 80
2, 187057, Note_on_c, 0, 69, 71
2, 187116, Control_c, 0, 64, 63
2, 187131, Control_c, 0, 64, 127
2, 187296, Note_on_c, 0, 75, 80
2, 187337, Note_on_c, 0, 69, 0
2, 187400, Note_on_c, 0, 65, 68
2, 187415, Note_on_c, 0, 57, 54
2, 187419, Note_on_c, 0, 60, 59
2, 187439, Note_on_c, 0, 74, 84
2, 187451, Note_on_c, 0, 75, 0
2, 187471, Note_on_c, 0, 53, 0
2, 187495, Note_on_c, 0, 65, 0
2, 187500, Note_on_c, 0, 60, 0
2, 187530, Note_on_c, 0, 57, 0
2, 187534, Note_on_c, 0, 75, 90
2, 187579, Note_on_c, 0, 74, 0
2, 187646, Note_on_c, 0, 65, 32
2, 187649, Note_on_c, 0, 57, 50
2, 187657, Note_on_c, 0, 78, 90
2, 187684, Note_on_c, 0, 65, 0
2, 187687, Note_on_c, 0, 75, 0
2, 187709, Note_on_c, 0, 57, 0
2, 187753, Note_on_c, 0, 75, 84
2, 187813, Control_c, 0, 64, 63
2, 187820, Control_c, 0, 64, 0
2, 187840, Note_on_c, 0, 78, 0
2, 187883, Note_on_c, 0, 46, 92
2, 187912, Control_c, 0, 64, 63
2, 187927, Control_c, 0, 64, 127
2, 187934, Note_on_c, 0, 72, 97
2, 187946, Note_on_c, 0, 75, 0
2, 187976, Note_on_c, 0, 46, 0
2, 188026, Note_on_c, 0, 72, 0
2, 188203, Note_on_c, 0, 58, 64
2, 188216, Note_on_c, 0, 65, 55
2, 188217, Note_on_c, 0, 61, 70
2, 188304, Note_on_c, 0, 61, 0
2, 188319, Note_on_c, 0, 65, 0
2, 188327, Note_on_c, 0, 58, 0
2, 188330, Note_on_c, 0, 73, 88
2, 188449, Note_on_c, 0, 77, 76
2, 188451, Note_on_c, 0, 65, 63
2, 188456, Note_on_c, 0, 61, 77
2, 188465, Note_on_c, 0, 58, 61
2, 188473, Note_on_c, 0, 73, 0
2, 188499, Note_on_c, 0, 65, 0
2, 188553, Note_on_c, 0, 82, 94
2, 188554, Note_on_c, 0, 61, 0
2, 188597, Note_on_c, 0, 77, 0
2, 188621, Note_on_c, 0, 58, 0
2, 188653, Note_on_c, 0, 82, 0
2, 188740, Control_c, 0, 64, 63
2, 188751, Control_c, 0, 64, 0
2, 188752, Note_on_c, 0, 69, 76
2, 188764, Note_on_c, 0, 49, 87
2, 188797, Control_c, 0, 64, 63
2, 188821, Control_c, 0, 64, 127
2, 188884, Note_on_c, 0, 49, 0
2, 188987, Note_on_c, 0, 69, 0
2, 189084, Note_on_c, 0, 58, 65
2, 189105, Note_on_c, 0, 65, 52
2, 189106, Note_on_c, 0, 61, 63
2, 189195, Note_on_c, 0, 61, 0
2, 189205, Note_on_c, 0, 65, 0
2, 189209, Note_on_c, 0, 70, 87
2, 189213, Note_on_c, 0, 58, 0
2, 189319, Note_on_c, 0, 72, 83
2, 189343, Note_on_c, 0, 70, 0
2, 189365, Note_on_c, 0, 65, 46
2, 189370, Note_on_c, 0, 61, 65
2, 189371, Note_on_c, 0, 58, 54
2, 189416, Note_on_c, 0, 65, 0
2, 189435, Note_on_c, 0, 73, 101
2, 189444, Note_on_c, 0, 61, 0
2, 189458, Note_on_c, 0, 72, 0
2, 189591, Note_on_c, 0, 73, 0
2, 189601, Note_on_c, 0, 58, 0
2, 189611, Note_on_c, 0, 51, 59
2, 189634, Control_c, 0, 64, 63
2, 189636, Note_on_c, 0, 66, 90
2, 189646, Control_c, 0, 64, 0
2, 189723, Control_c, 0, 64, 63
2, 189747, Control_c, 0, 64, 127
2, 189906, Note_on_c, 0, 66, 0
2, 189910, Note_on_c, 0, 51, 0
2, 189974, Note_on_c, 0, 58, 36
2, 189979, Note_on_c, 0, 61, 67
2, 189996, Note_on_c, 0, 63, 76
2, 190112, Note_on_c, 0, 61, 0
2, 190117, Note_on_c, 0, 63, 0
2, 190136, Note_on_c, 0, 58, 0
2, 190167, Note_on_c, 0, 67, 58
2, 190404, Note_on_c, 0, 58, 40
2, 190412, Note_on_c, 0, 61, 51
2, 190414, Note_on_c, 0, 67, 0
2, 190422, Note_on_c, 0, 63, 39
2, 190423, Note_on_c, 0, 69, 47
2, 190648, Note_on_c, 0, 63, 0
2, 190651, Note_on_c, 0, 61, 0
2, 190671, Note_on_c, 0, 70, 64
2, 190694, Note_on_c, 0, 69, 0
2, 190710, Note_on_c, 0, 58, 0
2, 190878, Note_on_c, 0, 70, 0
2, 191036, Note_on_c, 0, 44, 79
2, 191115, Control_c, 0, 64, 63
2, 191124, Control_c, 0, 64, 0
2, 191226, Control_c, 0, 64, 63
2, 191241, Control_c, 0, 64, 127
2, 191303, Note_on_c, 0, 44, 0
2, 191621, Note_on_c, 0, 56, 48
2, 191627, Note_on_c, 0, 60, 50
2, 191630, Note_on_c, 0, 51, 60
2, 191631, Note_on_c, 0, 68, 61
2, 191731, Note_on_c, 0, 56, 0
2, 191734, Note_on_c, 0, 60, 0
2, 191764, Note_on_c, 0, 51, 0
2, 191999, Note_on_c, 0, 56, 44
2, 192005, Note_on_c, 0, 51, 53
2, 192018, Note_on_c, 0, 63, 61
2, 192019, Note_on_c, 0, 60, 24
2, 192056, Note_on_c, 0, 60, 0
2, 192063, Note_on_c, 0, 56, 0
2, 192106, Note_on_c, 0, 51, 0
2, 192107, Note_on_c, 0, 63, 0
2, 192318, Control_c, 0, 64, 63
2, 192323, Note_on_c, 0, 39, 58
2, 192338, Note_on_c, 0, 70, 81
2, 192340, Control_c, 0, 64, 0
2, 192356, Control_c, 0, 64, 63
2, 192399, Note_on_c, 0, 68, 0
2, 192400, Control_c, 0, 64, 127
2, 192446, Note_on_c, 0, 39, 0
2, 192688, Note_on_c, 0, 51, 58
2, 192689, Note_on_c, 0, 60, 64
2, 192690, Note_on_c, 0, 56, 59
2, 192705, Note_on_c, 0, 63, 63
2, 192716, Note_on_c, 0, 68, 64
2, 192788, Note_on_c, 0, 60, 0
2, 192798, Note_on_c, 0, 56, 0
2, 192811, Note_on_c, 0, 63, 0
2, 192816, Note_on_c, 0, 51, 0
2, 192934, Note_on_c, 0, 70, 0
2, 192991, Note_on_c, 0, 56, 63
2, 192996, Note_on_c, 0, 72, 87
2, 193000, Note_on_c, 0, 51, 67
2, 193061, Note_on_c, 0, 56, 0
2, 193063, Note_on_c, 0, 68, 0
2, 193089, Note_on_c, 0, 72, 0
2, 193130, Note_on_c, 0, 51, 0
2, 193246, Note_on_c, 0, 46, 100
2, 193247, Control_c, 0, 64, 63
2, 193257, Control_c, 0, 64, 0
2, 193372, Control_c, 0, 64, 63
2, 193386, Control_c, 0, 64, 127
2, 193449, Note_on_c, 0, 46, 0
2, 193595, Note_on_c, 0, 73, 95
2, 193616, Note_on_c, 0, 51, 60
2, 193631, Note_on_c, 0, 61, 69
2, 193648, Note_on_c, 0, 55, 40
2, 193712, Note_on_c, 0, 61, 0
2, 193733, Note_on_c, 0, 55, 0
2, 193752, Note_on_c, 0, 51, 0
2, 193870, Note_on_c, 0, 61, 87
2, 193880, Note_on_c, 0, 63, 72
2, 193896, Note_on_c, 0, 67, 63
2, 193897, Note_on_c, 0, 51, 76
2, 193900, Note_on_c, 0, 55, 46
2, 193910, Note_on_c, 0, 61, 0
2, 193955, Note_on_c, 0, 55, 0
2, 193992, Note_on_c, 0, 63, 0
2, 194008, Note_on_c, 0, 51, 0
2, 194043, Note_on_c, 0, 73, 0
2, 194095, Control_c, 0, 64, 63
2, 194109, Control_c, 0, 64, 0
2, 194126, Note_on_c, 0, 39, 107
2, 194142, Note_on_c, 0, 72, 98
2, 194153, Control_c, 0, 64, 63
2, 194173, Note_on_c, 0, 67, 0
2, 194182, Control_c, 0, 64, 127
2, 194205, Note_on_c, 0, 39, 0
2, 194440, Note_on_c, 0, 51, 61
2, 194441, Note_on_c, 0, 67, 71
2, 194441, Note_on_c, 0, 55, 62
2, 194443, Note_on_c, 0, 61, 82
2, 194446, Note_on_c, 0, 63, 71
2, 194512, Note_on_c, 0, 61, 0
2, 194536, Note_on_c, 0, 51, 0
2, 194547, Note_on_c, 0, 63, 0
2, 194551, Note_on_c, 0, 55, 0
2, 194621, Note_on_c, 0, 72, 0
2, 194628, Note_on_c, 0, 67, 0
2, 194683, Note_on_c, 0, 70, 108
2, 194684, Note_on_c, 0, 61, 78
2, 194698, Note_on_c, 0, 55, 37
2, 194715, Note_on_c, 0, 51, 80
2, 194722, Note_on_c, 0, 61, 0
2, 194751, Note_on_c, 0, 55, 0
2, 194787, Note_on_c, 0, 70, 0
2, 194818, Control_c, 0, 64, 63
2, 194826, Control_c, 0, 64, 0
2, 194921, Note_on_c, 0, 44, 107
2, 194970, Note_on_c, 0, 51, 0
2, 195036, Control_c, 0, 64, 63
2, 195038, Control_c, 0, 64, 127
2, 195107, Note_on_c, 0, 44, 0
2, 195210, Note_on_c, 0, 72, 111
2, 195231, Note_on_c, 0, 51, 88
2, 195247, Note_on_c, 0, 60, 60
2, 195254, Note_on_c, 0, 56, 76
2, 195320, Note_on_c, 0, 60, 0
2, 195339, Note_on_c, 0, 56, 0
2, 195352, Note_on_c, 0, 51, 0
2, 195470, Note_on_c, 0, 68, 88
2, 195476, Note_on_c, 0, 56, 88
2, 195476, Note_on_c, 0, 63, 85
2, 195477, Note_on_c, 0, 60, 73
2, 195481, Note_on_c, 0, 51, 95
2, 195486, Note_on_c, 0, 72, 0
2, 195519, Note_on_c, 0, 60, 0
2, 195525, Note_on_c, 0, 56, 0
2, 195568, Note_on_c, 0, 63, 0
2, 195575, Note_on_c, 0, 51, 0
2, 195671, Note_on_c, 0, 68, 0
2, 195673, Control_c, 0, 64, 63
2, 195682, Control_c, 0, 64, 0
2, 195717, Note_on_c, 0, 39, 114
2, 195725, Note_on_c, 0, 73, 118
2, 195727, Control_c, 0, 64, 63
2, 195751, Control_c, 0, 64, 127
2, 195784, Note_on_c, 0, 39, 0
2, 196006, Note_on_c, 0, 54, 68
2, 196015, Note_on_c, 0, 56, 61
2, 196016, Note_on_c, 0, 60, 61
2, 196020, Note_on_c, 0, 68, 79
2, 196022, Note_on_c, 0, 63, 85
2, 196084, Note_on_c, 0, 60, 0
2, 196118, Note_on_c, 0, 56, 0
2, 196128, Note_on_c, 0, 63, 0
2, 196147, Note_on_c, 0, 54, 0
2, 196242, Note_on_c, 0, 68, 0
2, 196298, Note_on_c, 0, 75, 113
2, 196312, Note_on_c, 0, 60, 85
2, 196313, Note_on_c, 0, 56, 86
2, 196322, Note_on_c, 0, 54, 88
2, 196351, Note_on_c, 0, 73, 0
2, 196363, Note_on_c, 0, 60, 0
2, 196380, Note_on_c, 0, 56, 0
2, 196399, Note_on_c, 0, 54, 0
2, 196410, Note_on_c, 0, 75, 0
2, 196610, Note_on_c, 0, 44, 101
2, 196631, Note_on_c, 0, 77, 104
2, 196652, Control_c, 0, 64, 63
2, 196692, Control_c, 0, 64, 127
2, 196789, Note_on_c, 0, 44, 0
2, 196854, Note_on_c, 0, 77, 0
2, 196933, Note_on_c, 0, 53, 84
2, 196954, Note_on_c, 0, 68, 72
2, 196964, Note_on_c, 0, 56, 74
2, 196987, Note_on_c, 0, 74, 86
2, 196988, Note_on_c, 0, 59, 73
2, 197006, Note_on_c, 0, 79, 107
2, 197038, Note_on_c, 0, 68, 0
2, 197071, Note_on_c, 0, 74, 0
2, 197098, Note_on_c, 0, 59, 0
2, 197111, Note_on_c, 0, 56, 0
2, 197117, Note_on_c, 0, 53, 0
2, 197175, Note_on_c, 0, 79, 0
2, 197281, Note_on_c, 0, 53, 59
2, 197292, Note_on_c, 0, 56, 70
2, 197307, Note_on_c, 0, 68, 83
2, 197315, Note_on_c, 0, 59, 76
2, 197374, Note_on_c, 0, 74, 60
2, 197399, Note_on_c, 0, 68, 0
2, 197421, Note_on_c, 0, 80, 113
2, 197444, Note_on_c, 0, 59, 0
2, 197461, Note_on_c, 0, 74, 0
2, 197464, Note_on_c, 0, 56, 0
2, 197510, Note_on_c, 0, 53, 0
2, 197525, Note_on_c, 0, 80, 0
2, 197917, Note_on_c, 0, 44, 74
2, 197992, Note_on_c, 0, 75, 87
2, 198097, Control_c, 0, 64, 63
2, 198108, Control_c, 0, 64, 0
2, 198176, Control_c, 0, 64, 63
2, 198192, Control_c, 0, 64, 127
2, 198312, Note_on_c, 0, 44, 0
2, 198576, Note_on_c, 0, 68, 50
2, 198580, Note_on_c, 0, 51, 43
2, 198583, Note_on_c, 0, 72, 59
2, 198584, Note_on_c, 0, 63, 53
2, 198587, Note_on_c, 0, 56, 35
2, 198616, Note_on_c, 0, 60, 26
2, 198694, Note_on_c, 0, 56, 0
2, 198696, Note_on_c, 0, 68, 0
2, 198702, Note_on_c, 0, 63, 0
2, 198710, Note_on_c, 0, 60, 0
2, 198718, Note_on_c, 0, 51, 0
2, 198741, Note_on_c, 0, 72, 0
2, 198925, Note_on_c, 0, 56, 63
2, 198926, Note_on_c, 0, 51, 66
2, 198929, Note_on_c, 0, 60, 56
2, 198933, Note_on_c, 0, 63, 64
2, 198938, Note_on_c, 0, 68, 63
2, 198948, Note_on_c, 0, 72, 67
2, 198990, Note_on_c, 0, 60, 0
2, 198991, Note_on_c, 0, 56, 0
2, 199004, Note_on_c, 0, 63, 0
2, 199005, Note_on_c, 0, 51, 0
2, 199028, Note_on_c, 0, 68, 0
2, 199077, Note_on_c, 0, 75, 0
2, 199083, Note_on_c, 0, 72, 0
2, 199194, Control_c, 0, 64, 63
2, 199195, Note_on_c, 0, 45, 89
2, 199204, Control_c, 0, 64, 0
2, 199244, Control_c, 0, 64, 63
2, 199264, Control_c, 0, 64, 127
2, 199291, Note_on_c, 0, 45, 0
2, 199485, Note_on_c, 0, 78, 87
2, 199486, Note_on_c, 0, 53, 68
2, 199507, Note_on_c, 0, 60, 72
2, 199510, Note_on_c, 0, 63, 91
2, 199585, Note_on_c, 0, 77, 84
2, 199597, Note_on_c, 0, 63, 0
2, 199618, Note_on_c, 0, 60, 0
2, 199639, Note_on_c, 0, 53, 0
2, 199696, Note_on_c, 0, 78, 0
2, 199712, Note_on_c, 0, 75, 107
2, 199735, Note_on_c, 0, 63, 82
2, 199742, Note_on_c, 0, 60, 76
2, 199745, Note_on_c, 0, 53, 73
2, 199757, Note_on_c, 0, 77, 0
2, 199774, Note_on_c, 0, 63, 0
2, 199782, Note_on_c, 0, 60, 0
2, 199807, Note_on_c, 0, 78, 101
2, 199836, Note_on_c, 0, 53, 0
2, 199875, Note_on_c, 0, 75, 0
2, 199939, Control_c, 0, 64, 63
2, 199946, Note_on_c, 0, 78, 0
2, 199949, Control_c, 0, 64, 0
2, 199961, Note_on_c, 0, 46, 108
2, 199973, Note_on_c, 0, 77, 101
2, 200009, Control_c, 0, 64, 63
2, 200032, Control_c, 0, 64, 127
2, 200044, Note_on_c, 0, 46, 0
2, 200190, Note_on_c, 0, 77, 0
2, 200235, Note_on_c, 0, 58, 78
2, 200241, Note_on_c, 0, 53, 69
2, 200248, Note_on_c, 0, 61, 71
2, 200285, Note_on_c, 0, 61, 0
2, 200307, Note_on_c, 0, 58, 0
2, 200335, Note_on_c, 0, 53, 0
2, 200347, Note_on_c, 0, 73, 87
2, 200453, Note_on_c, 0, 61, 81
2, 200455, Note_on_c, 0, 58, 75
2, 200462, Note_on_c, 0, 70, 87
2, 200470, Note_on_c, 0, 53, 62
2, 200509, Note_on_c, 0, 61, 0
2, 200520, Note_on_c, 0, 58, 0
2, 200521, Note_on_c, 0, 73, 0
2, 200543, Control_c, 0, 64, 63
2, 200562, Note_on_c, 0, 65, 75
2, 200565, Note_on_c, 0, 53, 0
2, 200568, Control_c, 0, 64, 0
2, 200606, Note_on_c, 0, 70, 0
2, 200660, Note_on_c, 0, 65, 0
2, 200686, Control_c, 0, 64, 63
2, 200702, Control_c, 0, 64, 127
2, 200705, Note_on_c, 0, 43, 113
2, 200773, Note_on_c, 0, 43, 0
2, 200979, Note_on_c, 0, 51, 96
2, 200980, Note_on_c, 0, 58, 84
2, 200985, Note_on_c, 0, 61, 79
2, 200997, Note_on_c, 0, 76, 91
2, 201029, Note_on_c, 0, 61, 0
2, 201051, Note_on_c, 0, 58, 0
2, 201054, Note_on_c, 0, 51, 0
2, 201105, Note_on_c, 0, 75, 97
2, 201139, Note_on_c, 0, 76, 0
2, 201185, Note_on_c, 0, 51, 99
2, 201186, Note_on_c, 0, 61, 91
2, 201200, Note_on_c, 0, 58, 72
2, 201220, Note_on_c, 0, 73, 96
2, 201226, Note_on_c, 0, 61, 0
2, 201233, Note_on_c, 0, 58, 0
2, 201239, Control_c, 0, 64, 63
2, 201254, Note_on_c, 0, 75, 0
2, 201266, Note_on_c, 0, 51, 0
2, 201270, Control_c, 0, 64, 0
2, 201302, Note_on_c, 0, 76, 88
2, 201315, Note_on_c, 0, 73, 0
2, 201373, Note_on_c, 0, 76, 0
2, 201431, Note_on_c, 0, 44, 108
2, 201438, Control_c, 0, 64, 63
2, 201451, Note_on_c, 0, 75, 113
2, 201452, Control_c, 0, 64, 127
2, 201503, Note_on_c, 0, 44, 0
2, 201546, Note_on_c, 0, 75, 0
2, 201673, Note_on_c, 0, 60, 76
2, 201674, Note_on_c, 0, 56, 79
2, 201686, Note_on_c, 0, 51, 65
2, 201735, Note_on_c, 0, 56, 0
2, 201736, Note_on_c, 0, 60, 0
2, 201740, Note_on_c, 0, 51, 0
2, 201830, Note_on_c, 0, 72, 94
2, 201913, Note_on_c, 0, 56, 71
2, 201918, Note_on_c, 0, 51, 75
2, 201925, Note_on_c, 0, 60, 35
2, 201948, Note_on_c, 0, 68, 96
2, 201961, Note_on_c, 0, 56, 0
2, 201962, Note_on_c, 0, 60, 0
2, 201971, Note_on_c, 0, 72, 0
2, 202015, Note_on_c, 0, 51, 0
2, 202035, Note_on_c, 0, 63, 91
2, 202044, Control_c, 0, 64, 63
2, 202056, Control_c, 0, 64, 0
2, 202068, Note_on_c, 0, 68, 0
2, 202113, Note_on_c, 0, 63, 0
2, 202140, Note_on_c, 0, 42, 113
2, 202162, Control_c, 0, 64, 63
2, 202179, Control_c, 0, 64, 127
2, 202220, Note_on_c, 0, 42, 0
2, 202413, Note_on_c, 0, 68, 108
2, 202420, Note_on_c, 0, 56, 73
2, 202433, Note_on_c, 0, 54, 67
2, 202500, Note_on_c, 0, 56, 0
2, 202509, Note_on_c, 0, 54, 0
2, 202653, Note_on_c, 0, 63, 72
2, 202657, Note_on_c, 0, 56, 87
2, 202668, Note_on_c, 0, 54, 70
2, 202673, Note_on_c, 0, 60, 54
2, 202702, Note_on_c, 0, 54, 0
2, 202719, Note_on_c, 0, 56, 0
2, 202788, Note_on_c, 0, 60, 0
2, 202856, Note_on_c, 0, 68, 0
2, 202868, Control_c, 0, 64, 63
2, 202869, Note_on_c, 0, 63, 0
2, 202876, Control_c, 0, 64, 0
2, 202904, Note_on_c, 0, 41, 101
2, 202920, Note_on_c, 0, 67, 104
2, 202990, Note_on_c, 0, 41, 0
2, 202999, Control_c, 0, 64, 63
2, 203010, Control_c, 0, 64, 127
2, 203194, Note_on_c, 0, 56, 67
2, 203198, Note_on_c, 0, 53, 51
2, 203201, Note_on_c, 0, 65, 65
2, 203223, Note_on_c, 0, 60, 65
2, 203250, Note_on_c, 0, 67, 0
2, 203256, Note_on_c, 0, 56, 0
2, 203287, Note_on_c, 0, 53, 0
2, 203331, Note_on_c, 0, 60, 0
2, 203380, Note_on_c, 0, 65, 0
2, 203414, Note_on_c, 0, 56, 80
2, 203419, Note_on_c, 0, 53, 72
2, 203429, Note_on_c, 0, 68, 112
2, 203447, Note_on_c, 0, 65, 59
2, 203461, Note_on_c, 0, 53, 0
2, 203465, Note_on_c, 0, 56, 0
2, 203492, Note_on_c, 0, 65, 0
2, 203538, Note_on_c, 0, 68, 0
2, 203652, Control_c, 0, 64, 63
2, 203659, Control_c, 0, 64, 0
2, 203677, Note_on_c, 0, 40, 107
2, 203692, Note_on_c, 0, 70, 113
2, 203755, Control_c, 0, 64, 63
2, 203764, Control_c, 0, 64, 127
2, 203783, Note_on_c, 0, 40, 0
2, 203979, Note_on_c, 0, 68, 91
2, 203980, Note_on_c, 0, 52, 54
2, 203988, Note_on_c, 0, 56, 55
2, 203991, Note_on_c, 0, 62, 71
2, 204025, Note_on_c, 0, 70, 0
2, 204048, Note_on_c, 0, 56, 0
2, 204064, Note_on_c, 0, 62, 0
2, 204079, Note_on_c, 0, 52, 0
2, 204089, Note_on_c, 0, 71, 84
2, 204116, Note_on_c, 0, 68, 0
2, 204204, Note_on_c, 0, 52, 81
2, 204205, Note_on_c, 0, 70, 107
2, 204210, Note_on_c, 0, 56, 70
2, 204236, Note_on_c, 0, 71, 0
2, 204247, Note_on_c, 0, 56, 0
2, 204252, Note_on_c, 0, 52, 0
2, 204321, Note_on_c, 0, 71, 91
2, 204331, Note_on_c, 0, 70, 0
2, 204487, Note_on_c, 0, 39, 92
2, 204501, Control_c, 0, 64, 63
2, 204502, Note_on_c, 0, 71, 0
2, 204507, Note_on_c, 0, 67, 92
2, 204512, Control_c, 0, 64, 0
2, 204560, Control_c, 0, 64, 63
2, 204581, Control_c, 0, 64, 127
2, 204639, Note_on_c, 0, 39, 0
2, 204857, Note_on_c, 0, 63, 80
2, 204860, Note_on_c, 0, 58, 57
2, 204867, Note_on_c, 0, 51, 57
2, 204868, Note_on_c, 0, 61, 31
2, 204956, Note_on_c, 0, 51, 0
2, 204962, Note_on_c, 0, 58, 0
2, 204976, Note_on_c, 0, 61, 0
2, 205008, Note_on_c, 0, 63, 0
2, 205266, Note_on_c, 0, 58, 42
2, 205270, Note_on_c, 0, 61, 60
2, 205271, Note_on_c, 0, 63, 60
2, 205284, Note_on_c, 0, 51, 48
2, 205403, Note_on_c, 0, 61, 0
2, 205405, Note_on_c, 0, 58, 0
2, 205413, Note_on_c, 0, 51, 0
2, 205450, Note_on_c, 0, 63, 0
2, 205540, Note_on_c, 0, 67, 0
2, 205748, Note_on_c, 0, 44, 74
2, 205754, Control_c, 0, 64, 63
2, 205763, Control_c, 0, 64, 0
2, 205837, Control_c, 0, 64, 63
2, 205861, Control_c, 0, 64, 127
2, 205910, Note_on_c, 0, 44, 0
2, 206222, Note_on_c, 0, 68, 80
2, 206228, Note_on_c, 0, 56, 55
2, 206228, Note_on_c, 0, 51, 54
2, 206244, Note_on_c, 0, 60, 38
2, 206308, Note_on_c, 0, 56, 0
2, 206318, Note_on_c, 0, 51, 0
2, 206330, Note_on_c, 0, 60, 0
2, 206527, Note_on_c, 0, 56, 66
2, 206534, Note_on_c, 0, 60, 41
2, 206535, Note_on_c, 0, 63, 71
2, 206536, Note_on_c, 0, 51, 68
2, 206579, Note_on_c, 0, 60, 0
2, 206588, Note_on_c, 0, 56, 0
2, 206632, Note_on_c, 0, 51, 0
2, 206644, Note_on_c, 0, 63, 0
2, 206732, Control_c, 0, 64, 63
2, 206740, Control_c, 0, 64, 0
2, 206798, Note_on_c, 0, 39, 98
2, 206808, Note_on_c, 0, 70, 103
2, 206809, Control_c, 0, 64, 63
2, 206831, Control_c, 0, 64, 127
2, 206841, Note_on_c, 0, 68, 0
2, 206871, Note_on_c, 0, 39, 0
2, 207087, Note_on_c, 0, 56, 75
2, 207092, Note_on_c, 0, 60, 70
2, 207097, Note_on_c, 0, 51, 58
2, 207098, Note_on_c, 0, 68, 80
2, 207111, Note_on_c, 0, 63, 62
2, 207168, Note_on_c, 0, 51, 0
2, 207176, Note_on_c, 0, 56, 0
2, 207180, Note_on_c, 0, 60, 0
2, 207210, Note_on_c, 0, 63, 0
2, 207295, Note_on_c, 0, 70, 0
2, 207355, Note_on_c, 0, 56, 58
2, 207360, Note_on_c, 0, 51, 68
2, 207362, Note_on_c, 0, 72, 83
2, 207372, Note_on_c, 0, 68, 0
2, 207404, Note_on_c, 0, 56, 0
2, 207483, Note_on_c, 0, 51, 0
2, 207537, Note_on_c, 0, 72, 0
2, 207598, Control_c, 0, 64, 63
2, 207605, Note_on_c, 0, 46, 105
2, 207609, Control_c, 0, 64, 0
2, 207655, Control_c, 0, 64, 63
2, 207676, Control_c, 0, 64, 127
2, 207733, Note_on_c, 0, 46, 0
2, 207873, Note_on_c, 0, 73, 108
2, 207913, Note_on_c, 0, 61, 86
2, 207916, Note_on_c, 0, 51, 61
2, 207919, Note_on_c, 0, 55, 63
2, 207987, Note_on_c, 0, 61, 0
2, 208009, Note_on_c, 0, 51, 0
2, 208024, Note_on_c, 0, 55, 0
2, 208130, Note_on_c, 0, 63, 87
2, 208131, Note_on_c, 0, 67, 80
2, 208133, Note_on_c, 0, 61, 70
2, 208153, Note_on_c, 0, 55, 27
2, 208161, Note_on_c, 0, 51, 78
2, 208167, Note_on_c, 0, 61, 0
2, 208203, Note_on_c, 0, 55, 0
2, 208224, Note_on_c, 0, 63, 0
2, 208255, Note_on_c, 0, 73, 0
2, 208260, Note_on_c, 0, 51, 0
2, 208375, Note_on_c, 0, 39, 99
2, 208377, Control_c, 0, 64, 63
2, 208378, Note_on_c, 0, 72, 98
2, 208422, Control_c, 0, 64, 127
2, 208441, Note_on_c, 0, 67, 0
2, 208442, Note_on_c, 0, 39, 0
2, 208663, Note_on_c, 0, 51, 69
2, 208667, Note_on_c, 0, 67, 70
2, 208674, Note_on_c, 0, 63, 69
2, 208681, Note_on_c, 0, 61, 74
2, 208692, Note_on_c, 0, 55, 50
2, 208766, Note_on_c, 0, 61, 0
2, 208786, Note_on_c, 0, 51, 0
2, 208798, Note_on_c, 0, 55, 0
2, 208810, Note_on_c, 0, 63, 0
2, 208851, Note_on_c, 0, 67, 0
2, 208924, Note_on_c, 0, 72, 0
2, 208952, Note_on_c, 0, 70, 92
2, 208955, Note_on_c, 0, 61, 65
2, 208982, Note_on_c, 0, 67, 42
2, 209001, Note_on_c, 0, 61, 0
2, 209008, Note_on_c, 0, 51, 59
2, 209038, Note_on_c, 0, 67, 0
2, 209066, Note_on_c, 0, 70, 0
2, 209186, Control_c, 0, 64, 63
2, 209194, Control_c, 0, 64, 0
2, 209206, Note_on_c, 0, 44, 107
2, 209260, Note_on_c, 0, 51, 0
2, 209288, Control_c, 0, 64, 63
2, 209303, Control_c, 0, 64, 127
2, 209362, Note_on_c, 0, 44, 0
2, 209471, Note_on_c, 0, 72, 111
2, 209486, Note_on_c, 0, 51, 82
2, 209500, Note_on_c, 0, 60, 74
2, 209508, Note_on_c, 0, 56, 76
2, 209577, Note_on_c, 0, 60, 0
2, 209620, Note_on_c, 0, 51, 0
2, 209621, Note_on_c, 0, 56, 0
2, 209712, Note_on_c, 0, 68, 81
2, 209720, Note_on_c, 0, 56, 87
2, 209724, Note_on_c, 0, 63, 88
2, 209725, Note_on_c, 0, 51, 93
2, 209728, Note_on_c, 0, 60, 72
2, 209767, Note_on_c, 0, 60, 0
2, 209771, Note_on_c, 0, 72, 0
2, 209774, Note_on_c, 0, 56, 0
2, 209815, Note_on_c, 0, 51, 0
2, 209841, Note_on_c, 0, 63, 0
2, 209961, Note_on_c, 0, 68, 0
2, 209967, Note_on_c, 0, 39, 109
2, 209982, Control_c, 0, 64, 63
2, 209989, Note_on_c, 0, 73, 118
2, 209993, Control_c, 0, 64, 0
2, 210023, Control_c, 0, 64, 63
2, 210049, Control_c, 0, 64, 127
2, 210052, Note_on_c, 0, 39, 0
2, 210260, Note_on_c, 0, 60, 90
2, 210262, Note_on_c, 0, 54, 82
2, 210270, Note_on_c, 0, 56, 77
2, 210279, Note_on_c, 0, 68, 91
2, 210280, Note_on_c, 0, 63, 90
2, 210342, Note_on_c, 0, 60, 0
2, 210366, Note_on_c, 0, 56, 0
2, 210377, Note_on_c, 0, 54, 0
2, 210395, Note_on_c, 0, 63, 0
2, 210450, Note_on_c, 0, 68, 0
2, 210553, Note_on_c, 0, 75, 115
2, 210555, Note_on_c, 0, 60, 88
2, 210557, Note_on_c, 0, 56, 88
2, 210560, Note_on_c, 0, 54, 89
2, 210572, Note_on_c, 0, 68, 93
2, 210600, Note_on_c, 0, 60, 0
2, 210603, Note_on_c, 0, 68, 0
2, 210605, Note_on_c, 0, 73, 0
2, 210621, Note_on_c, 0, 56, 0
2, 210629, Note_on_c, 0, 54, 0
2, 210662, Note_on_c, 0, 75, 0
2, 210860, Note_on_c, 0, 44, 104
2, 210877, Note_on_c, 0, 77, 109
2, 210885, Control_c, 0, 64, 63
2, 210895, Control_c, 0, 64, 0
2, 210926, Control_c, 0, 64, 63
2, 210951, Control_c, 0, 64, 127
2, 211032, Note_on_c, 0, 44, 0
2, 211095, Note_on_c, 0, 77, 0
2, 211160, Note_on_c, 0, 53, 84
2, 211204, Note_on_c, 0, 68, 85
2, 211230, Note_on_c, 0, 56, 93
2, 211255, Note_on_c, 0, 59, 68
2, 211274, Note_on_c, 0, 74, 83
2, 211289, Note_on_c, 0, 68, 0
2, 211296, Note_on_c, 0, 79, 113
2, 211352, Note_on_c, 0, 74, 0
2, 211357, Note_on_c, 0, 59, 0
2, 211361, Note_on_c, 0, 56, 0
2, 211387, Note_on_c, 0, 53, 0
2, 211441, Note_on_c, 0, 79, 0
2, 211515, Note_on_c, 0, 53, 77
2, 211530, Note_on_c, 0, 56, 78
2, 211576, Note_on_c, 0, 59, 72
2, 211579, Note_on_c, 0, 68, 86
2, 211646, Note_on_c, 0, 74, 74
2, 211666, Note_on_c, 0, 68, 0
2, 211673, Note_on_c, 0, 80, 118
2, 211706, Note_on_c, 0, 59, 0
2, 211715, Note_on_c, 0, 74, 0
2, 211736, Note_on_c, 0, 56, 0
2, 211770, Note_on_c, 0, 53, 0
2, 211773, Note_on_c, 0, 80, 0
2, 212009, Note_on_c, 0, 44, 108
2, 212129, Note_on_c, 0, 75, 100
2, 212169, Control_c, 0, 64, 63
2, 212176, Control_c, 0, 64, 0
2, 212233, Control_c, 0, 64, 63
2, 212251, Control_c, 0, 64, 127
2, 212311, Note_on_c, 0, 44, 0
2, 212463, Note_on_c, 0, 51, 63
2, 212464, Note_on_c, 0, 60, 68
2, 212470, Note_on_c, 0, 72, 87
2, 212472, Note_on_c, 0, 63, 80
2, 212474, Note_on_c, 0, 56, 74
2, 212478, Note_on_c, 0, 68, 74
2, 212540, Note_on_c, 0, 60, 0
2, 212555, Note_on_c, 0, 63, 0
2, 212555, Note_on_c, 0, 51, 0
2, 212564, Note_on_c, 0, 56, 0
2, 212582, Note_on_c, 0, 68, 0
2, 212623, Note_on_c, 0, 72, 0
2, 212737, Note_on_c, 0, 60, 76
2, 212739, Note_on_c, 0, 56, 75
2, 212744, Note_on_c, 0, 51, 81
2, 212753, Note_on_c, 0, 72, 89
2, 212754, Note_on_c, 0, 63, 85
2, 212756, Note_on_c, 0, 68, 82
2, 212782, Note_on_c, 0, 60, 0
2, 212783, Note_on_c, 0, 56, 0
2, 212811, Note_on_c, 0, 51, 0
2, 212819, Note_on_c, 0, 63, 0
2, 212849, Note_on_c, 0, 68, 0
2, 212881, Note_on_c, 0, 72, 0
2, 212890, Note_on_c, 0, 75, 0
2, 212984, Control_c, 0, 64, 63
2, 212992, Control_c, 0, 64, 0
2, 213005, Note_on_c, 0, 45, 107
2, 213048, Control_c, 0, 64, 63
2, 213066, Control_c, 0, 64, 127
2, 213111, Note_on_c, 0, 45, 0
2, 213300, Note_on_c, 0, 78, 83
2, 213317, Note_on_c, 0, 53, 37
2, 213324, Note_on_c, 0, 60, 60
2, 213332, Note_on_c, 0, 63, 74
2, 213414, Note_on_c, 0, 63, 0
2, 213430, Note_on_c, 0, 77, 75
2, 213438, Note_on_c, 0, 60, 0
2, 213473, Note_on_c, 0, 53, 0
2, 213486, Note_on_c, 0, 78, 0
2, 213542, Note_on_c, 0, 75, 101
2, 213562, Note_on_c, 0, 63, 88
2, 213570, Note_on_c, 0, 53, 76
2, 213580, Note_on_c, 0, 60, 57
2, 213593, Note_on_c, 0, 77, 0
2, 213602, Note_on_c, 0, 63, 0
2, 213622, Note_on_c, 0, 60, 0
2, 213635, Note_on_c, 0, 78, 97
2, 213661, Note_on_c, 0, 53, 0
2, 213728, Note_on_c, 0, 75, 0
2, 213775, Note_on_c, 0, 46, 103
2, 213778, Note_on_c, 0, 78, 0
2, 213785, Note_on_c, 0, 77, 92
2, 213798, Control_c, 0, 64, 63
2, 213811, Control_c, 0, 64, 0
2, 213834, Control_c, 0, 64, 63
2, 213855, Note_on_c, 0, 46, 0
2, 213863, Control_c, 0, 64, 127
2, 214023, Note_on_c, 0, 58, 78
2, 214039, Note_on_c, 0, 61, 80
2, 214049, Note_on_c, 0, 53, 55
2, 214110, Note_on_c, 0, 61, 0
2, 214111, Note_on_c, 0, 58, 0
2, 214149, Note_on_c, 0, 73, 101
2, 214156, Note_on_c, 0, 53, 0
2, 214169, Note_on_c, 0, 77, 0
2, 214239, Note_on_c, 0, 58, 80
2, 214240, Note_on_c, 0, 61, 87
2, 214258, Note_on_c, 0, 53, 51
2, 214271, Note_on_c, 0, 70, 103
2, 214299, Note_on_c, 0, 58, 0
2, 214304, Note_on_c, 0, 61, 0
2, 214315, Note_on_c, 0, 53, 0
2, 214347, Note_on_c, 0, 73, 0
2, 214362, Note_on_c, 0, 65, 96
2, 214423, Note_on_c, 0, 70, 0
2, 214458, Note_on_c, 0, 65, 0
2, 214465, Control_c, 0, 64, 63
2, 214475, Control_c, 0, 64, 0
2, 214499, Note_on_c, 0, 47, 120
2, 214529, Control_c, 0, 64, 63
2, 214548, Control_c, 0, 64, 127
2, 214597, Note_on_c, 0, 47, 0
2, 214741, Note_on_c, 0, 55, 82
2, 214743, Note_on_c, 0, 62, 90
2, 214755, Note_on_c, 0, 65, 83
2, 214758, Note_on_c, 0, 80, 98
2, 214839, Note_on_c, 0, 65, 0
2, 214847, Note_on_c, 0, 62, 0
2, 214866, Note_on_c, 0, 79, 92
2, 214869, Note_on_c, 0, 55, 0
2, 214911, Note_on_c, 0, 80, 0
2, 214966, Note_on_c, 0, 55, 83
2, 214967, Note_on_c, 0, 62, 81
2, 214969, Note_on_c, 0, 65, 71
2, 214981, Note_on_c, 0, 77, 106
2, 215003, Note_on_c, 0, 62, 0
2, 215012, Note_on_c, 0, 65, 0
2, 215033, Note_on_c, 0, 79, 0
2, 215043, Note_on_c, 0, 55, 0
2, 215082, Note_on_c, 0, 80, 113
2, 215113, Note_on_c, 0, 77, 0
2, 215185, Note_on_c, 0, 80, 0
2, 215188, Control_c, 0, 64, 63
2, 215196, Control_c, 0, 64, 0
2, 215220, Note_on_c, 0, 48, 103
2, 215239, Control_c, 0, 64, 63
2, 215249, Note_on_c, 0, 79, 118
2, 215260, Control_c, 0, 64, 127
2, 215285, Note_on_c, 0, 48, 0
2, 215474, Note_on_c, 0, 55, 89
2, 215479, Note_on_c, 0, 60, 84
2, 215480, Note_on_c, 0, 64, 90
2, 215551, Note_on_c, 0, 60, 0
2, 215557, Note_on_c, 0, 64, 0
2, 215571, Note_on_c, 0, 55, 0
2, 215579, Note_on_c, 0, 79, 0
2, 215589, Note_on_c, 0, 76, 106
2, 215713, Note_on_c, 0, 55, 89
2, 215715, Note_on_c, 0, 72, 107
2, 215716, Note_on_c, 0, 64, 92
2, 215720, Note_on_c, 0, 60, 85
2, 215755, Note_on_c, 0, 60, 0
2, 215759, Note_on_c, 0, 76, 0
2, 215769, Note_on_c, 0, 64, 0
2, 215788, Note_on_c, 0, 55, 0
2, 215816, Note_on_c, 0, 67, 94
2, 215862, Note_on_c, 0, 72, 0
2, 215907, Note_on_c, 0, 67, 0
2, 215914, Control_c, 0, 64, 63
2, 215923, Control_c, 0, 64, 0
2, 215989, Note_on_c, 0, 49, 118
2, 216011, Control_c, 0, 64, 63
2, 216013, Control_c, 0, 64, 127
2, 216077, Note_on_c, 0, 49, 0
2, 216317, Note_on_c, 0, 65, 88
2, 216318, Note_on_c, 0, 61, 92
2, 216321, Note_on_c, 0, 82, 113
2, 216324, Note_on_c, 0, 58, 85
2, 216401, Note_on_c, 0, 65, 0
2, 216409, Note_on_c, 0, 61, 0
2, 216416, Note_on_c, 0, 58, 0
2, 216444, Note_on_c, 0, 80, 112
2, 216523, Note_on_c, 0, 82, 0
2, 216542, Note_on_c, 0, 65, 85
2, 216546, Note_on_c, 0, 61, 89
2, 216558, Note_on_c, 0, 58, 76
2, 216559, Note_on_c, 0, 79, 106
2, 216578, Note_on_c, 0, 61, 0
2, 216590, Note_on_c, 0, 65, 0
2, 216593, Note_on_c, 0, 58, 0
2, 216604, Note_on_c, 0, 80, 0
2, 216676, Note_on_c, 0, 82, 112
2, 216711, Note_on_c, 0, 79, 0
2, 216760, Control_c, 0, 64, 63
2, 216767, Control_c, 0, 64, 0
2, 216775, Note_on_c, 0, 82, 0
2, 216825, Control_c, 0, 64, 63
2, 216829, Note_on_c, 0, 50, 118
2, 216840, Control_c, 0, 64, 127
2, 216853, Note_on_c, 0, 80, 121
2, 216930, Note_on_c, 0, 50, 0
2, 216931, Note_on_c, 0, 80, 0
2, 217156, Note_on_c, 0, 59, 88
2, 217157, Note_on_c, 0, 65, 94
2, 217160, Note_on_c, 0, 56, 83
2, 217245, Note_on_c, 0, 59, 0
2, 217256, Note_on_c, 0, 77, 97
2, 217261, Note_on_c, 0, 65, 0
2, 217269, Note_on_c, 0, 56, 0
2, 217354, Note_on_c, 0, 71, 84
2, 217395, Note_on_c, 0, 59, 65
2, 217396, Note_on_c, 0, 65, 64
2, 217408, Note_on_c, 0, 56, 64
2, 217421, Note_on_c, 0, 77, 0
2, 217445, Note_on_c, 0, 65, 0
2, 217476, Note_on_c, 0, 68, 109
2, 217508, Note_on_c, 0, 71, 0
2, 217533, Note_on_c, 0, 59, 0
2, 217551, Note_on_c, 0, 68, 0
2, 217568, Note_on_c, 0, 56, 0
2, 217603, Note_on_c, 0, 51, 110
2, 217605, Control_c, 0, 64, 63
2, 217613, Note_on_c, 0, 56, 62
2, 217616, Control_c, 0, 64, 0
2, 217653, Note_on_c, 0, 56, 0
2, 217677, Control_c, 0, 64, 63
2, 217681, Note_on_c, 0, 77, 91
2, 217693, Control_c, 0, 64, 127
2, 217771, Note_on_c, 0, 51, 0
2, 218017, Note_on_c, 0, 61, 65
2, 218035, Note_on_c, 0, 63, 86
2, 218062, Note_on_c, 0, 55, 39
2, 218156, Note_on_c, 0, 61, 0
2, 218174, Note_on_c, 0, 63, 0
2, 218175, Note_on_c, 0, 73, 85
2, 218190, Note_on_c, 0, 55, 0
2, 218244, Note_on_c, 0, 77, 0
2, 218350, Note_on_c, 0, 63, 61
2, 218357, Note_on_c, 0, 61, 68
2, 218384, Note_on_c, 0, 70, 80
2, 218434, Note_on_c, 0, 63, 0
2, 218447, Note_on_c, 0, 61, 0
2, 218543, Note_on_c, 0, 67, 65
2, 218591, Note_on_c, 0, 73, 0
2, 218601, Note_on_c, 0, 70, 0
2, 218635, Note_on_c, 0, 67, 0
2, 218904, Note_on_c, 0, 44, 60
2, 219001, Control_c, 0, 64, 63
2, 219009, Control_c, 0, 64, 0
2, 219135, Control_c, 0, 64, 63
2, 219145, Control_c, 0, 64, 127
2, 219395, Note_on_c, 0, 56, 42
2, 219399, Note_on_c, 0, 65, 81
2, 219417, Note_on_c, 0, 53, 43
2, 219422, Note_on_c, 0, 50, 45
2, 219423, Note_on_c, 0, 62, 61
2, 219473, Note_on_c, 0, 62, 0
2, 219635, Note_on_c, 0, 50, 0
2, 219639, Note_on_c, 0, 56, 0
2, 219646, Note_on_c, 0, 53, 0
2, 219763, Note_on_c, 0, 56, 85
2, 219767, Note_on_c, 0, 62, 81
2, 219772, Note_on_c, 0, 59, 68
2, 219779, Note_on_c, 0, 53, 64
2, 219807, Note_on_c, 0, 50, 54
2, 219866, Note_on_c, 0, 56, 0
2, 219875, Note_on_c, 0, 44, 0
2, 219905, Note_on_c, 0, 53, 0
2, 219964, Note_on_c, 0, 65, 0
2, 219977, Note_on_c, 0, 50, 0
2, 220046, Note_on_c, 0, 59, 0
2, 220051, Note_on_c, 0, 44, 84
2, 220078, Note_on_c, 0, 67, 104
2, 220143, Note_on_c, 0, 62, 0
2, 220218, Control_c, 0, 64, 63
2, 220280, Control_c, 0, 64, 127
2, 220327, Note_on_c, 0, 56, 88
2, 220329, Note_on_c, 0, 62, 99
2, 220340, Note_on_c, 0, 59, 90
2, 220341, Note_on_c, 0, 53, 72
2, 220349, Note_on_c, 0, 50, 71
2, 220430, Note_on_c, 0, 56, 0
2, 220447, Note_on_c, 0, 53, 0
2, 220462, Note_on_c, 0, 67, 0
2, 220473, Note_on_c, 0, 50, 0
2, 220516, Note_on_c, 0, 62, 0
2, 220521, Note_on_c, 0, 59, 0
2, 220595, Note_on_c, 0, 56, 67
2, 220608, Note_on_c, 0, 53, 44
2, 220610, Note_on_c, 0, 68, 101
2, 220614, Note_on_c, 0, 44, 0
2, 220621, Note_on_c, 0, 62, 83
2, 220635, Note_on_c, 0, 59, 56
2, 220638, Note_on_c, 0, 56, 0
2, 220658, Note_on_c, 0, 53, 0
2, 220705, Note_on_c, 0, 62, 0
2, 220707, Note_on_c, 0, 59, 0
2, 220721, Note_on_c, 0, 68, 0
2, 220890, Note_on_c, 0, 56, 61
2, 220891, Note_on_c, 0, 39, 80
2, 220897, Note_on_c, 0, 51, 71
2, 220900, Note_on_c, 0, 63, 70
2, 220912, Note_on_c, 0, 60, 55
2, 220929, Control_c, 0, 64, 63
2, 220933, Control_c, 0, 64, 127
2, 220959, Note_on_c, 0, 56, 0
2, 220960, Note_on_c, 0, 60, 0
2, 220961, Note_on_c, 0, 39, 0
2, 220976, Note_on_c, 0, 51, 0
2, 220990, Note_on_c, 0, 63, 0
2, 221023, Control_c, 0, 64, 63
2, 221047, Control_c, 0, 64, 0
2, 221205, Note_on_c, 0, 53, 97
2, 221212, Note_on_c, 0, 41, 76
2, 221507, Note_on_c, 0, 63, 78
2, 221522, Note_on_c, 0, 60, 58
2, 221537, Note_on_c, 0, 56, 50
2, 221561, Control_c, 0, 64, 63
2, 221563, Control_c, 0, 64, 127
2, 221565, Note_on_c, 0, 41, 0
2, 221628, Note_on_c, 0, 53, 0
2, 221678, Note_on_c, 0, 56, 0
2, 221747, Note_on_c, 0, 60, 0
2, 221780, Note_on_c, 0, 55, 94
2, 221788, Note_on_c, 0, 43, 82
2, 221796, Note_on_c, 0, 63, 0
2, 221869, Control_c, 0, 64, 63
2, 221963, Control_c, 0, 64, 127
2, 222115, Note_on_c, 0, 63, 69
2, 222127, Note_on_c, 0, 60, 45
2, 222222, Note_on_c, 0, 55, 0
2, 222314, Note_on_c, 0, 60, 0
2, 222378, Note_on_c, 0, 43, 0
2, 222431, Note_on_c, 0, 44, 72
2, 222440, Note_on_c, 0, 63, 0
2, 222443, Note_on_c, 0, 56, 61
2, 222531, Control_c, 0, 64, 63
2, 222550, Control_c, 0, 64, 127
2, 222573, Note_on_c, 0, 44, 0
2, 222801, Note_on_c, 0, 56, 0
2, 222843, Note_on_c, 0, 50, 78
2, 222879, Control_c, 0, 64, 63
2, 222904, Control_c, 0, 64, 0
2, 223296, Note_on_c, 0, 56, 46
2, 223314, Note_on_c, 0, 68, 97
2, 223337, Note_on_c, 0, 52, 43
2, 223373, Control_c, 0, 64, 63
2, 223376, Control_c, 0, 64, 127
2, 223541, Note_on_c, 0, 52, 0
2, 223544, Note_on_c, 0, 56, 0
2, 223691, Note_on_c, 0, 64, 82
2, 223696, Note_on_c, 0, 59, 75
2, 223704, Note_on_c, 0, 56, 61
2, 223735, Note_on_c, 0, 52, 51
2, 223888, Note_on_c, 0, 59, 0
2, 223914, Note_on_c, 0, 50, 0
2, 223915, Note_on_c, 0, 56, 0
2, 223937, Note_on_c, 0, 52, 0
2, 223965, Note_on_c, 0, 70, 107
2, 223986, Note_on_c, 0, 50, 75
2, 224025, Control_c, 0, 64, 63
2, 224058, Note_on_c, 0, 64, 0
2, 224069, Note_on_c, 0, 68, 0
2, 224102, Control_c, 0, 64, 127
2, 224232, Note_on_c, 0, 64, 82
2, 224236, Note_on_c, 0, 56, 95
2, 224242, Note_on_c, 0, 52, 90
2, 224244, Note_on_c, 0, 59, 76
2, 224351, Note_on_c, 0, 56, 0
2, 224383, Note_on_c, 0, 52, 0
2, 224393, Note_on_c, 0, 70, 0
2, 224417, Note_on_c, 0, 64, 0
2, 224420, Note_on_c, 0, 59, 0
2, 224516, Note_on_c, 0, 56, 93
2, 224522, Note_on_c, 0, 52, 79
2, 224525, Note_on_c, 0, 71, 103
2, 224530, Note_on_c, 0, 64, 93
2, 224539, Note_on_c, 0, 59, 69
2, 224569, Note_on_c, 0, 56, 0
2, 224572, Note_on_c, 0, 64, 0
2, 224578, Note_on_c, 0, 52, 0
2, 224583, Note_on_c, 0, 59, 0
2, 224586, Note_on_c, 0, 50, 0
2, 224606, Note_on_c, 0, 71, 0
2, 224899, Note_on_c, 0, 72, 98
2, 224902, Note_on_c, 0, 63, 93
2, 224920, Control_c, 0, 64, 63
2, 224926, Note_on_c, 0, 51, 87
2, 224927, Note_on_c, 0, 39, 88
2, 224966, Note_on_c, 0, 63, 0
2, 224968, Note_on_c, 0, 51, 0
2, 224972, Control_c, 0, 64, 127
2, 224980, Note_on_c, 0, 72, 0
2, 225001, Note_on_c, 0, 39, 0
2, 225268, Note_on_c, 0, 53, 103
2, 225277, Note_on_c, 0, 41, 93
2, 225279, Control_c, 0, 64, 63
2, 225297, Control_c, 0, 64, 0
2, 225578, Note_on_c, 0, 72, 92
2, 225580, Note_on_c, 0, 63, 85
2, 225588, Note_on_c, 0, 60, 77
2, 225609, Control_c, 0, 64, 63
2, 225611, Control_c, 0, 64, 127
2, 225652, Note_on_c, 0, 41, 0
2, 225723, Note_on_c, 0, 53, 0
2, 225840, Note_on_c, 0, 55, 111
2, 225843, Note_on_c, 0, 43, 102
2, 225886, Note_on_c, 0, 60, 0
2, 225891, Note_on_c, 0, 63, 0
2, 225905, Note_on_c, 0, 72, 0
2, 226080, Control_c, 0, 64, 63
2, 226133, Note_on_c, 0, 63, 76
2, 226136, Note_on_c, 0, 72, 86
2, 226143, Control_c, 0, 64, 127
2, 226148, Note_on_c, 0, 60, 68
2, 226285, Note_on_c, 0, 43, 0
2, 226295, Note_on_c, 0, 60, 0
2, 226297, Note_on_c, 0, 55, 0
2, 226404, Note_on_c, 0, 63, 0
2, 226477, Note_on_c, 0, 72, 0
2, 226500, Note_on_c, 0, 56, 80
2, 226517, Note_on_c, 0, 44, 55
2, 226614, Control_c, 0, 64, 63
2, 226620, Control_c, 0, 64, 0
2, 226728, Control_c, 0, 64, 63
2, 226740, Control_c, 0, 64, 127
2, 226742, Note_on_c, 0, 44, 0
2, 226797, Note_on_c, 0, 56, 0
2, 226978, Note_on_c, 0, 56, 78
2, 227101, Control_c, 0, 64, 63
2, 227112, Control_c, 0, 64, 0
2, 227228, Control_c, 0, 64, 63
2, 227240, Control_c, 0, 64, 127
2, 227417, Note_on_c, 0, 62, 63
2, 227424, Note_on_c, 0, 68, 42
2, 227434, Note_on_c, 0, 65, 59
2, 227435, Note_on_c, 0, 77, 101
2, 227648, Note_on_c, 0, 65, 0
2, 227664, Note_on_c, 0, 68, 0
2, 227669, Note_on_c, 0, 62, 0
2, 227829, Note_on_c, 0, 74, 76
2, 227836, Note_on_c, 0, 68, 57
2, 227850, Note_on_c, 0, 71, 61
2, 227855, Note_on_c, 0, 65, 61
2, 227863, Note_on_c, 0, 62, 65
2, 228015, Note_on_c, 0, 56, 0
2, 228040, Note_on_c, 0, 71, 0
2, 228128, Note_on_c, 0, 56, 80
2, 228139, Note_on_c, 0, 79, 111
2, 228140, Note_on_c, 0, 68, 0
2, 228184, Note_on_c, 0, 65, 0
2, 228204, Note_on_c, 0, 62, 0
2, 228217, Note_on_c, 0, 74, 0
2, 228224, Note_on_c, 0, 77, 0
2, 228405, Note_on_c, 0, 74, 63
2, 228406, Note_on_c, 0, 71, 60
2, 228409, Note_on_c, 0, 68, 70
2, 228424, Note_on_c, 0, 65, 60
2, 228439, Note_on_c, 0, 62, 64
2, 228496, Note_on_c, 0, 71, 0
2, 228507, Note_on_c, 0, 68, 0
2, 228523, Note_on_c, 0, 65, 0
2, 228554, Note_on_c, 0, 79, 0
2, 228556, Note_on_c, 0, 62, 0
2, 228595, Note_on_c, 0, 74, 0
2, 228745, Note_on_c, 0, 68, 45
2, 228764, Note_on_c, 0, 65, 44
2, 228779, Note_on_c, 0, 80, 87
2, 228788, Note_on_c, 0, 74, 57
2, 228796, Note_on_c, 0, 62, 54
2, 228826, Note_on_c, 0, 68, 0
2, 228837, Note_on_c, 0, 71, 24
2, 228842, Note_on_c, 0, 65, 0
2, 228850, Note_on_c, 0, 62, 0
2, 228890, Note_on_c, 0, 56, 0
2, 228941, Note_on_c, 0, 71, 0
2, 228952, Note_on_c, 0, 74, 0
2, 228974, Note_on_c, 0, 80, 0
2, 229178, Note_on_c, 0, 51, 86
2, 229198, Note_on_c, 0, 72, 75
2, 229199, Note_on_c, 0, 63, 52
2, 229201, Note_on_c, 0, 68, 58
2, 229204, Note_on_c, 0, 75, 80
2, 229211, Control_c, 0, 64, 63
2, 229228, Control_c, 0, 64, 0
2, 229251, Control_c, 0, 64, 63
2, 229275, Note_on_c, 0, 51, 0
2, 229279, Note_on_c, 0, 63, 0
2, 229296, Control_c, 0, 64, 127
2, 229317, Note_on_c, 0, 68, 0
2, 229341, Note_on_c, 0, 72, 0
2, 229355, Note_on_c, 0, 75, 0
2, 229387, Control_c, 0, 64, 63
2, 229415, Control_c, 0, 64, 0
2, 229501, Note_on_c, 0, 65, 103
2, 229505, Note_on_c, 0, 53, 97
2, 229772, Note_on_c, 0, 68, 67
2, 229777, Note_on_c, 0, 75, 88
2, 229778, Note_on_c, 0, 72, 81
2, 229798, Control_c, 0, 64, 63
2, 229800, Control_c, 0, 64, 127
2, 229838, Note_on_c, 0, 53, 0
2, 229921, Note_on_c, 0, 65, 0
2, 230023, Note_on_c, 0, 67, 113
2, 230032, Note_on_c, 0, 55, 96
2, 230040, Note_on_c, 0, 68, 0
2, 230103, Note_on_c, 0, 72, 0
2, 230130, Note_on_c, 0, 75, 0
2, 230224, Control_c, 0, 64, 63
2, 230248, Control_c, 0, 64, 0
2, 230306, Control_c, 0, 64, 63
2, 230332, Control_c, 0, 64, 127
2, 230373, Note_on_c, 0, 72, 60
2, 230384, Note_on_c, 0, 75, 72
2, 230451, Note_on_c, 0, 55, 0
2, 230526, Note_on_c, 0, 67, 0
2, 230568, Note_on_c, 0, 72, 0
2, 230644, Note_on_c, 0, 68, 91
2, 230645, Note_on_c, 0, 75, 0
2, 230649, Note_on_c, 0, 56, 87
2, 230735, Note_on_c, 0, 56, 0
2, 230773, Note_on_c, 0, 68, 0
2, 230961, Note_on_c, 0, 62, 89
2, 231087, Control_c, 0, 64, 63
2, 231118, Control_c, 0, 64, 0
2, 231197, Control_c, 0, 64, 63
2, 231222, Control_c, 0, 64, 127
2, 231241, Note_on_c, 0, 80, 114
2, 231248, Note_on_c, 0, 68, 73
2, 231258, Note_on_c, 0, 64, 81
2, 231289, Control_c, 0, 64, 63
2, 231306, Control_c, 0, 64, 0
2, 231388, Control_c, 0, 64, 63
2, 231408, Control_c, 0, 64, 127
2, 231503, Note_on_c, 0, 64, 0
2, 231518, Note_on_c, 0, 68, 0
2, 231615, Note_on_c, 0, 76, 74
2, 231628, Note_on_c, 0, 71, 72
2, 231637, Note_on_c, 0, 68, 63
2, 231645, Note_on_c, 0, 64, 63
2, 231871, Note_on_c, 0, 62, 0
2, 231895, Note_on_c, 0, 68, 0
2, 231926, Note_on_c, 0, 64, 0
2, 231961, Note_on_c, 0, 82, 94
2, 231988, Note_on_c, 0, 62, 49
2, 232063, Control_c, 0, 64, 63
2, 232087, Note_on_c, 0, 71, 0
2, 232158, Note_on_c, 0, 76, 0
2, 232160, Control_c, 0, 64, 127
2, 232182, Note_on_c, 0, 80, 0
2, 232326, Note_on_c, 0, 76, 53
2, 232339, Note_on_c, 0, 68, 35
2, 232340, Note_on_c, 0, 64, 50
2, 232356, Note_on_c, 0, 71, 22
2, 232493, Note_on_c, 0, 68, 0
2, 232504, Note_on_c, 0, 82, 0
2, 232507, Note_on_c, 0, 64, 0
2, 232546, Note_on_c, 0, 76, 0
2, 232570, Note_on_c, 0, 71, 0
2, 232677, Note_on_c, 0, 83, 88
2, 232679, Note_on_c, 0, 68, 50
2, 232698, Note_on_c, 0, 76, 64
2, 232714, Note_on_c, 0, 64, 33
2, 232790, Note_on_c, 0, 68, 0
2, 232792, Note_on_c, 0, 76, 0
2, 232812, Note_on_c, 0, 64, 0
2, 232813, Note_on_c, 0, 83, 0
2, 232825, Note_on_c, 0, 62, 0
2, 233155, Note_on_c, 0, 84, 86
2, 233158, Note_on_c, 0, 75, 80
2, 233172, Note_on_c, 0, 51, 78
2, 233175, Note_on_c, 0, 63, 65
2, 233183, Control_c, 0, 64, 63
2, 233292, Control_c, 0, 64, 127
2, 233313, Note_on_c, 0, 51, 0
2, 233342, Note_on_c, 0, 63, 0
2, 233385, Note_on_c, 0, 84, 0
2, 233415, Note_on_c, 0, 75, 0
2, 233557, Note_on_c, 0, 65, 103
2, 233565, Note_on_c, 0, 53, 99
2, 233709, Control_c, 0, 64, 63
2, 233742, Control_c, 0, 64, 0
2, 233870, Note_on_c, 0, 84, 91
2, 233880, Control_c, 0, 64, 63
2, 233881, Note_on_c, 0, 75, 84
2, 233889, Note_on_c, 0, 72, 58
2, 233900, Control_c, 0, 64, 127
2, 233943, Note_on_c, 0, 53, 0
2, 233999, Note_on_c, 0, 65, 0
2, 234113, Note_on_c, 0, 67, 114
2, 234117, Note_on_c, 0, 55, 104
2, 234118, Note_on_c, 0, 84, 0
2, 234122, Note_on_c, 0, 72, 0
2, 234140, Note_on_c, 0, 75, 0
2, 234148, Control_c, 0, 64, 63
2, 234171, Control_c, 0, 64, 0
2, 234277, Control_c, 0, 64, 63
2, 234300, Control_c, 0, 64, 127
2, 234486, Note_on_c, 0, 75, 65
2, 234491, Note_on_c, 0, 84, 68
2, 234494, Note_on_c, 0, 72, 50
2, 234561, Note_on_c, 0, 55, 0
2, 234581, Note_on_c, 0, 72, 0
2, 234595, Note_on_c, 0, 67, 0
2, 234677, Note_on_c, 0, 75, 0
2, 234733, Note_on_c, 0, 84, 0
2, 234891, Note_on_c, 0, 68, 71
2, 234894, Note_on_c, 0, 56, 72
2, 234998, Control_c, 0, 64, 63
2, 235018, Control_c, 0, 64, 0
2, 235110, Control_c, 0, 64, 63
2, 235230, Note_on_c, 0, 56, 0
2, 235251, Control_c, 0, 64, 0
2, 235368, Note_on_c, 0, 68, 0
2, 235389, Note_on_c, 0, 56, 127
2, 235417, Control_c, 0, 64, 127
2, 235464, Note_on_c, 0, 56, 0
2, 235918, Note_on_c, 0, 88, 109
2, 235919, Note_on_c, 0, 83, 106
2, 235919, Note_on_c, 0, 80, 109
2, 235920, Note_on_c, 0, 76, 113
2, 235921, Note_on_c, 0, 71, 122
2, 235922, Note_on_c, 0, 64, 111
2, 235925, Note_on_c, 0, 68, 115
2, 235926, Note_on_c, 0, 62, 106
2, 236212, Note_on_c, 0, 88, 0
2, 236227, Note_on_c, 0, 76, 0
2, 236267, Note_on_c, 0, 64, 0
2, 236268, Note_on_c, 0, 80, 0
2, 236273, Note_on_c, 0, 71, 0
2, 236275, Note_on_c, 0, 68, 0
2, 236276, Note_on_c, 0, 83, 0
2, 236299, Note_on_c, 0, 62, 0
2, 236515, Control_c, 0, 64, 63
2, 236524, Control_c, 0, 64, 0
2, 236526, Note_on_c, 0, 87, 104
2, 236530, Note_on_c, 0, 68, 115
2, 236531, Note_on_c, 0, 72, 121
2, 236533, Note_on_c, 0, 63, 116
2, 236617, Control_c, 0, 64, 63
2, 236625, Control_c, 0, 64, 127
2, 236633, Note_on_c, 0, 84, 96
2, 236681, Note_on_c, 0, 87, 0
2, 236738, Note_on_c, 0, 72, 0
2, 236751, Note_on_c, 0, 80, 98
2, 236775, Note_on_c, 0, 68, 0
2, 236779, Note_on_c, 0, 63, 0
2, 236803, Note_on_c, 0, 84, 0
2, 236859, Note_on_c, 0, 75, 103
2, 236897, Note_on_c, 0, 80, 0
2, 236925, Note_on_c, 0, 75, 0
2, 236982, Note_on_c, 0, 72, 112
2, 237044, Note_on_c, 0, 72, 0
2, 237241, Control_c, 0, 64, 63
2, 237249, Control_c, 0, 64, 0
2, 237313, Note_on_c, 0, 44, 115
2, 237341, Control_c, 0, 64, 63
2, 237345, Control_c, 0, 64, 127
2, 237373, Note_on_c, 0, 44, 0
2, 237654, Note_on_c, 0, 76, 109
2, 237658, Note_on_c, 0, 68, 110
2, 237659, Note_on_c, 0, 71, 107
2, 237661, Note_on_c, 0, 64, 111
2, 237662, Note_on_c, 0, 59, 106
2, 237671, Note_on_c, 0, 50, 98
2, 237672, Note_on_c, 0, 56, 92
2, 237673, Note_on_c, 0, 52, 81
2, 237902, Note_on_c, 0, 76, 0
2, 237929, Note_on_c, 0, 64, 0
2, 237974, Note_on_c, 0, 68, 0
2, 237981, Note_on_c, 0, 71, 0
2, 237984, Note_on_c, 0, 52, 0
2, 238009, Note_on_c, 0, 56, 0
2, 238030, Note_on_c, 0, 59, 0
2, 238148, Note_on_c, 0, 50, 0
2, 238177, Note_on_c, 0, 56, 113
2, 238180, Note_on_c, 0, 51, 110
2, 238181, Note_on_c, 0, 60, 116
2, 238182, Note_on_c, 0, 75, 112
2, 238191, Control_c, 0, 64, 63
2, 238200, Control_c, 0, 64, 0
2, 238288, Note_on_c, 0, 72, 93
2, 238297, Control_c, 0, 64, 63
2, 238302, Control_c, 0, 64, 127
2, 238325, Note_on_c, 0, 75, 0
2, 238372, Note_on_c, 0, 60, 0
2, 238385, Note_on_c, 0, 56, 0
2, 238391, Note_on_c, 0, 51, 0
2, 238401, Note_on_c, 0, 68, 99
2, 238443, Note_on_c, 0, 72, 0
2, 238504, Note_on_c, 0, 63, 98
2, 238542, Note_on_c, 0, 68, 0
2, 238573, Note_on_c, 0, 63, 0
2, 238638, Note_on_c, 0, 60, 97
2, 238690, Note_on_c, 0, 60, 0
2, 238840, Control_c, 0, 64, 63
2, 238885, Note_on_c, 0, 44, 93
2, 238894, Control_c, 0, 64, 127
2, 238900, Note_on_c, 0, 75, 93
2, 238953, Note_on_c, 0, 44, 0
2, 239011, Note_on_c, 0, 72, 89
2, 239021, Note_on_c, 0, 75, 0
2, 239109, Note_on_c, 0, 68, 82
2, 239114, Note_on_c, 0, 56, 78
2, 239120, Note_on_c, 0, 60, 78
2, 239126, Note_on_c, 0, 51, 72
2, 239163, Note_on_c, 0, 72, 0
2, 239224, Note_on_c, 0, 56, 0
2, 239239, Note_on_c, 0, 63, 86
2, 239240, Note_on_c, 0, 51, 0
2, 239245, Note_on_c, 0, 60, 0
2, 239264, Note_on_c, 0, 68, 0
2, 239301, Note_on_c, 0, 63, 0
2, 239350, Note_on_c, 0, 60, 85
2, 239411, Note_on_c, 0, 60, 0
2, 239569, Control_c, 0, 64, 63
2, 239577, Note_on_c, 0, 44, 92
2, 239608, Note_on_c, 0, 75, 87
2, 239626, Control_c, 0, 64, 127
2, 239645, Note_on_c, 0, 44, 0
2, 239713, Note_on_c, 0, 72, 75
2, 239716, Note_on_c, 0, 75, 0
2, 239808, Note_on_c, 0, 68, 80
2, 239819, Note_on_c, 0, 60, 68
2, 239826, Note_on_c, 0, 56, 60
2, 239838, Note_on_c, 0, 51, 57
2, 239862, Note_on_c, 0, 72, 0
2, 239919, Note_on_c, 0, 63, 72
2, 239927, Note_on_c, 0, 56, 0
2, 239938, Note_on_c, 0, 51, 0
2, 239941, Note_on_c, 0, 60, 0
2, 239946, Note_on_c, 0, 68, 0
2, 239987, Note_on_c, 0, 63, 0
2, 240041, Note_on_c, 0, 60, 81
2, 240101, Note_on_c, 0, 60, 0
2, 240260, Note_on_c, 0, 44, 89
2, 240277, Control_c, 0, 64, 63
2, 240296, Note_on_c, 0, 75, 82
2, 240324, Control_c, 0, 64, 127
2, 240331, Note_on_c, 0, 44, 0
2, 240405, Note_on_c, 0, 72, 67
2, 240432, Note_on_c, 0, 75, 0
2, 240498, Note_on_c, 0, 68, 67
2, 240519, Note_on_c, 0, 60, 52
2, 240524, Note_on_c, 0, 56, 54
2, 240525, Note_on_c, 0, 51, 55
2, 240551, Note_on_c, 0, 72, 0
2, 240598, Note_on_c, 0, 56, 0
2, 240611, Note_on_c, 0, 60, 0
2, 240618, Note_on_c, 0, 51, 0
2, 240623, Note_on_c, 0, 63, 64
2, 240654, Note_on_c, 0, 68, 0
2, 240718, Note_on_c, 0, 63, 0
2, 240804, Note_on_c, 0, 60, 74
2, 240874, Note_on_c, 0, 60, 0
2, 241132, Note_on_c, 0, 75, 76
2, 241134, Note_on_c, 0, 44, 65
2, 241164, Control_c, 0, 64, 63
2, 241212, Control_c, 0, 64, 127
2, 241225, Note_on_c, 0, 44, 0
2, 241268, Note_on_c, 0, 72, 71
2, 241276, Note_on_c, 0, 75, 0
2, 241408, Note_on_c, 0, 68, 66
2, 241417, Note_on_c, 0, 51, 57
2, 241418, Note_on_c, 0, 60, 59
2, 241431, Note_on_c, 0, 56, 45
2, 241443, Note_on_c, 0, 72, 0
2, 241493, Note_on_c, 0, 56, 0
2, 241512, Note_on_c, 0, 51, 0
2, 241513, Note_on_c, 0, 60, 0
2, 241553, Note_on_c, 0, 63, 63
2, 241571, Note_on_c, 0, 68, 0
2, 241646, Note_on_c, 0, 63, 0
2, 241764, Note_on_c, 0, 60, 46
2, 241773, Note_on_c, 0, 56, 55
2, 241783, Note_on_c, 0, 51, 50
2, 241853, Note_on_c, 0, 56, 0
2, 241856, Note_on_c, 0, 60, 0
2, 241881, Note_on_c, 0, 51, 0
2, 242274, Note_on_c, 0, 44, 66
2, 242294, Control_c, 0, 64, 63
2, 242309, Control_c, 0, 64, 127
2, 242365, Note_on_c, 0, 44, 0
2, 242455, Note_on_c, 0, 60, 60
2, 242608, Note_on_c, 0, 60, 0
2, 242660, Note_on_c, 0, 63, 87
2, 242669, Note_on_c, 0, 56, 67
2, 242676, Note_on_c, 0, 51, 51
2, 242718, Note_on_c, 0, 60, 71
2, 242770, Note_on_c, 0, 63, 0
2, 242796, Note_on_c, 0, 68, 88
2, 242875, Note_on_c, 0, 68, 0
2, 242956, Note_on_c, 0, 51, 0
2, 242962, Note_on_c, 0, 72, 84
2, 242969, Note_on_c, 0, 56, 0
2, 242979, Note_on_c, 0, 60, 0
2, 243053, Note_on_c, 0, 72, 0
2, 243068, Note_on_c, 0, 75, 101
2, 243152, Note_on_c, 0, 75, 0
2, 243182, Note_on_c, 0, 77, 96
2, 243286, Note_on_c, 0, 75, 105
2, 243298, Note_on_c, 0, 77, 0
2, 243373, Note_on_c, 0, 75, 0
2, 243406, Note_on_c, 0, 63, 70
2, 243411, Note_on_c, 0, 72, 73
2, 243414, Note_on_c, 0, 60, 62
2, 243423, Note_on_c, 0, 56, 64
2, 243473, Note_on_c, 0, 63, 0
2, 243475, Note_on_c, 0, 60, 0
2, 243488, Note_on_c, 0, 56, 0
2, 243526, Note_on_c, 0, 68, 93
2, 243533, Note_on_c, 0, 72, 0
2, 243589, Note_on_c, 0, 68, 0
2, 243634, Note_on_c, 0, 72, 80
2, 243699, Note_on_c, 0, 63, 46
2, 243702, Note_on_c, 0, 56, 53
2, 243707, Note_on_c, 0, 60, 34
2, 243751, Note_on_c, 0, 72, 0
2, 243766, Note_on_c, 0, 63, 0
2, 243768, Note_on_c, 0, 60, 0
2, 243777, Note_on_c, 0, 56, 0
2, 243779, Note_on_c, 0, 75, 97
2, 243921, Note_on_c, 0, 75, 0
2, 243945, Note_on_c, 0, 63, 77
2, 243948, Note_on_c, 0, 80, 96
2, 243950, Note_on_c, 0, 56, 73
2, 243962, Note_on_c, 0, 60, 57
2, 244002, Note_on_c, 0, 60, 0
2, 244010, Note_on_c, 0, 56, 0
2, 244020, Note_on_c, 0, 80, 0
2, 244035, Note_on_c, 0, 63, 0
2, 244288, Note_on_c, 0, 84, 88
2, 244293, Note_on_c, 0, 80, 62
2, 244301, Note_on_c, 0, 72, 65
2, 244303, Note_on_c, 0, 75, 79
2, 244314, Note_on_c, 0, 68, 60
2, 244339, Control_c, 0, 64, 63
2, 244341, Note_on_c, 0, 80, 0
2, 244350, Note_on_c, 0, 75, 0
2, 244352, Note_on_c, 0, 72, 0
2, 244354, Note_on_c, 0, 84, 0
2, 244356, Control_c, 0, 64, 0
2, 244364, Note_on_c, 0, 68, 0
2, 244692, Note_on_c, 0, 87, 81
2, 244695, Note_on_c, 0, 80, 57
2, 244697, Note_on_c, 0, 75, 56
2, 244703, Note_on_c, 0, 72, 64
2, 244709, Note_on_c, 0, 68, 54
2, 244710, Note_on_c, 0, 84, 67
2, 244756, Note_on_c, 0, 80, 0
2, 244757, Note_on_c, 0, 84, 0
2, 244763, Note_on_c, 0, 75, 0
2, 244766, Note_on_c, 0, 72, 0
2, 244772, Note_on_c, 0, 68, 0
2, 244782, Note_on_c, 0, 87, 0
2, 245273, Control_c, 0, 64, 63
2, 245284, Note_on_c, 0, 92, 60
2, 245285, Note_on_c, 0, 68, 33
2, 245287, Note_on_c, 0, 72, 45
2, 245287, Note_on_c, 0, 75, 36
2, 245291, Control_c, 0, 64, 127
2, 245297, Note_on_c, 0, 87, 67
2, 245308, Note_on_c, 0, 84, 46
2, 245311, Note_on_c, 0, 80, 18
2, 245370, Note_on_c, 0, 84, 0
2, 245379, Note_on_c, 0, 80, 0
2, 245394, Note_on_c, 0, 92, 0
2, 245394, Note_on_c, 0, 87, 0
2, 245398, Note_on_c, 0, 72, 0
2, 245407, Note_on_c, 0, 75, 0
2, 245408, Note_on_c, 0, 68, 0
2, 246244, Control_c, 0, 64, 63
2, 246306, Control_c, 0, 64, 0
2, 246306, End_track
0, 0, End_of_file
