0, 0, Header, 1, 5, 480
1, 0, Start_track
1, 0, Title_t, "tchaikovsky prelude op21 no1"
1, 0, Copyright_t, "Adaptation for Disklavier pianos, by: Robert C. Kuhmann (c) 2012."
1, 0, Text_t, "Seq. (c) by: Segundo G. Yogore,  2007\012"
1, 0, Time_signature, 4, 2, 24, 8
1, 0, Key_signature, 5, "major"
1, 0, Tempo, 535714
1, 3840, Time_signature, 6, 2, 24, 8
1, 6720, Time_signature, 4, 2, 24, 8
1, 6720, Tempo, 535714
1, 10560, Time_signature, 6, 2, 24, 8
1, 13440, Time_signature, 4, 2, 24, 8
1, 17040, Tempo, 550459
1, 17280, Time_signature, 6, 2, 24, 8
1, 17280, Tempo, 566038
1, 17520, Tempo, 582524
1, 17760, Tempo, 606061
1, 18000, Tempo, 625000
1, 18240, Tempo, 645161
1, 18480, Tempo, 666667
1, 18720, Tempo, 697674
1, 20160, Time_signature, 4, 2, 24, 8
1, 20160, Tempo, 535714
1, 45120, Time_signature, 6, 2, 24, 8
1, 48000, Time_signature, 4, 2, 24, 8
1, 48000, Tempo, 535714
1, 51840, Time_signature, 6, 2, 24, 8
1, 54720, Time_signature, 4, 2, 24, 8
1, 58320, Tempo, 550459
1, 58560, Time_signature, 6, 2, 24, 8
1, 58560, Tempo, 566038
1, 58800, Tempo, 582524
1, 59040, Tempo, 606061
1, 59280, Tempo, 625000
1, 59520, Tempo, 645161
1, 59760, Tempo, 666667
1, 60000, Tempo, 697674
1, 61440, Time_signature, 4, 2, 24, 8
1, 65520, Tempo, 722892
1, 65760, Tempo, 750000
1, 66000, Tempo, 779221
1, 66240, Tempo, 821918
1, 66480, Tempo, 857143
1, 66720, Tempo, 895522
1, 66960, Tempo, 937500
1, 67200, Tempo, 1000000
1, 72960, Time_signature, 8, 2, 24, 8
1, 72960, End_track
2, 0, Start_track
2, 0, Title_t, "Grand Piano"
2, 0, Program_c, 0, 0
2, 0, Control_c, 0, 7, 115
2, 0, Control_c, 0, 10, 86
2, 0, Control_c, 0, 64, 127
2, 0, Note_on_c, 0, 75, 62
2, 360, Note_on_c, 0, 76, 62
2, 420, Note_on_c, 0, 76, 0
2, 420, Note_on_c, 0, 75, 62
2, 480, Note_on_c, 0, 75, 0
2, 480, Note_on_c, 0, 75, 0
2, 480, Note_on_c, 0, 74, 62
2, 720, Note_on_c, 0, 74, 0
2, 720, Note_on_c, 0, 75, 62
2, 960, Note_on_c, 0, 75, 0
2, 960, Note_on_c, 0, 80, 62
2, 1200, Note_on_c, 0, 80, 0
2, 1200, Note_on_c, 0, 75, 62
2, 1440, Note_on_c, 0, 75, 0
2, 1440, Control_c, 0, 64, 0
2, 1440, Note_on_c, 0, 74, 62
2, 1920, Note_on_c, 0, 74, 0
2, 1920, Control_c, 0, 64, 127
2, 1920, Note_on_c, 0, 75, 62
2, 2160, Note_on_c, 0, 75, 0
2, 2160, Note_on_c, 0, 73, 62
2, 2280, Note_on_c, 0, 75, 62
2, 2340, Note_on_c, 0, 75, 0
2, 2340, Note_on_c, 0, 73, 62
2, 2400, Note_on_c, 0, 73, 0
2, 2400, Note_on_c, 0, 73, 0
2, 2400, Note_on_c, 0, 71, 62
2, 2640, Note_on_c, 0, 71, 0
2, 2640, Control_c, 0, 64, 0
2, 2640, Note_on_c, 0, 70, 62
2, 2880, Note_on_c, 0, 70, 0
2, 2880, Note_on_c, 0, 68, 62
2, 3120, Note_on_c, 0, 68, 0
2, 3120, Note_on_c, 0, 75, 88
2, 4080, Note_on_c, 0, 75, 0
2, 4080, Control_c, 0, 64, 127
2, 4080, Note_on_c, 0, 73, 62
2, 4200, Note_on_c, 0, 75, 62
2, 4260, Note_on_c, 0, 75, 0
2, 4260, Note_on_c, 0, 73, 62
2, 4320, Note_on_c, 0, 73, 0
2, 4320, Note_on_c, 0, 73, 0
2, 4320, Note_on_c, 0, 71, 62
2, 4560, Note_on_c, 0, 71, 0
2, 4560, Note_on_c, 0, 70, 62
2, 4800, Note_on_c, 0, 70, 0
2, 4800, Note_on_c, 0, 68, 62
2, 5040, Note_on_c, 0, 68, 0
2, 5040, Control_c, 0, 64, 0
2, 5040, Note_on_c, 0, 70, 62
2, 5280, Note_on_c, 0, 70, 0
2, 5280, Note_on_c, 0, 63, 62
2, 5520, Note_on_c, 0, 63, 0
2, 5520, Note_on_c, 0, 63, 62
2, 6720, Note_on_c, 0, 63, 0
2, 6720, Control_c, 0, 64, 127
2, 6720, Note_on_c, 0, 75, 62
2, 7080, Note_on_c, 0, 76, 62
2, 7140, Note_on_c, 0, 76, 0
2, 7140, Note_on_c, 0, 75, 62
2, 7200, Note_on_c, 0, 75, 0
2, 7200, Note_on_c, 0, 75, 0
2, 7200, Note_on_c, 0, 74, 62
2, 7440, Note_on_c, 0, 74, 0
2, 7440, Note_on_c, 0, 75, 62
2, 7680, Note_on_c, 0, 75, 0
2, 7680, Note_on_c, 0, 80, 62
2, 7920, Note_on_c, 0, 80, 0
2, 7920, Note_on_c, 0, 75, 62
2, 8160, Note_on_c, 0, 75, 0
2, 8160, Control_c, 0, 64, 0
2, 8160, Note_on_c, 0, 74, 62
2, 8640, Note_on_c, 0, 74, 0
2, 8640, Control_c, 0, 64, 127
2, 8640, Note_on_c, 0, 75, 62
2, 8880, Note_on_c, 0, 75, 0
2, 8880, Note_on_c, 0, 73, 62
2, 9000, Note_on_c, 0, 75, 62
2, 9060, Note_on_c, 0, 75, 0
2, 9060, Note_on_c, 0, 73, 62
2, 9120, Note_on_c, 0, 73, 0
2, 9120, Note_on_c, 0, 73, 0
2, 9120, Note_on_c, 0, 71, 62
2, 9360, Note_on_c, 0, 71, 0
2, 9360, Control_c, 0, 64, 0
2, 9360, Note_on_c, 0, 70, 62
2, 9600, Note_on_c, 0, 70, 0
2, 9600, Note_on_c, 0, 68, 62
2, 9840, Note_on_c, 0, 68, 0
2, 9840, Note_on_c, 0, 75, 88
2, 10800, Note_on_c, 0, 75, 0
2, 10800, Control_c, 0, 64, 127
2, 10800, Note_on_c, 0, 73, 62
2, 10920, Note_on_c, 0, 75, 62
2, 10980, Note_on_c, 0, 75, 0
2, 10980, Note_on_c, 0, 73, 62
2, 11040, Note_on_c, 0, 73, 0
2, 11040, Note_on_c, 0, 73, 0
2, 11040, Note_on_c, 0, 71, 62
2, 11280, Note_on_c, 0, 71, 0
2, 11280, Note_on_c, 0, 70, 62
2, 11520, Note_on_c, 0, 70, 0
2, 11520, Note_on_c, 0, 68, 62
2, 11760, Note_on_c, 0, 68, 0
2, 11760, Control_c, 0, 64, 0
2, 11760, Note_on_c, 0, 70, 62
2, 12000, Note_on_c, 0, 70, 0
2, 12000, Note_on_c, 0, 63, 62
2, 12240, Note_on_c, 0, 63, 0
2, 12240, Note_on_c, 0, 63, 62
2, 13440, Note_on_c, 0, 63, 0
2, 13440, Control_c, 0, 64, 127
2, 13440, Note_on_c, 0, 68, 75
2, 13680, Note_on_c, 0, 68, 0
2, 13680, Note_on_c, 0, 66, 75
2, 13800, Note_on_c, 0, 68, 75
2, 13860, Note_on_c, 0, 68, 0
2, 13860, Note_on_c, 0, 66, 75
2, 13920, Note_on_c, 0, 66, 0
2, 13920, Note_on_c, 0, 66, 0
2, 13920, Note_on_c, 0, 64, 75
2, 14160, Note_on_c, 0, 64, 0
2, 14160, Note_on_c, 0, 63, 75
2, 14400, Note_on_c, 0, 63, 0
2, 14400, Note_on_c, 0, 61, 75
2, 14640, Note_on_c, 0, 61, 0
2, 14640, Note_on_c, 0, 71, 75
2, 14880, Note_on_c, 0, 71, 0
2, 14880, Note_on_c, 0, 70, 75
2, 15120, Note_on_c, 0, 70, 0
2, 15120, Control_c, 0, 64, 0
2, 15120, Note_on_c, 0, 75, 75
2, 15360, Note_on_c, 0, 75, 0
2, 15360, Control_c, 0, 64, 127
2, 15360, Note_on_c, 0, 73, 75
2, 15600, Note_on_c, 0, 73, 0
2, 15600, Note_on_c, 0, 71, 75
2, 15720, Note_on_c, 0, 73, 75
2, 15780, Note_on_c, 0, 73, 0
2, 15780, Note_on_c, 0, 71, 75
2, 15840, Note_on_c, 0, 71, 0
2, 15840, Note_on_c, 0, 71, 0
2, 15840, Note_on_c, 0, 70, 75
2, 16080, Note_on_c, 0, 70, 0
2, 16080, Note_on_c, 0, 80, 75
2, 16320, Note_on_c, 0, 80, 0
2, 16320, Note_on_c, 0, 78, 75
2, 16560, Note_on_c, 0, 78, 0
2, 16560, Note_on_c, 0, 76, 75
2, 16680, Note_on_c, 0, 78, 75
2, 16740, Note_on_c, 0, 78, 0
2, 16740, Note_on_c, 0, 76, 75
2, 16800, Note_on_c, 0, 76, 0
2, 16800, Note_on_c, 0, 76, 0
2, 16800, Note_on_c, 0, 75, 75
2, 17040, Note_on_c, 0, 75, 0
2, 17040, Control_c, 0, 64, 0
2, 17040, Note_on_c, 0, 83, 75
2, 17280, Note_on_c, 0, 83, 0
2, 17280, Control_c, 0, 64, 127
2, 17280, Note_on_c, 0, 82, 75
2, 17520, Note_on_c, 0, 82, 0
2, 17520, Note_on_c, 0, 80, 75
2, 17640, Note_on_c, 0, 82, 75
2, 17700, Note_on_c, 0, 82, 0
2, 17700, Note_on_c, 0, 80, 75
2, 17760, Note_on_c, 0, 80, 0
2, 17760, Note_on_c, 0, 80, 0
2, 17760, Note_on_c, 0, 78, 75
2, 18000, Note_on_c, 0, 78, 0
2, 18000, Note_on_c, 0, 76, 75
2, 18240, Note_on_c, 0, 76, 0
2, 18240, Note_on_c, 0, 75, 75
2, 18480, Note_on_c, 0, 75, 0
2, 18480, Control_c, 0, 64, 0
2, 18480, Note_on_c, 0, 76, 75
2, 18720, Note_on_c, 0, 76, 0
2, 18720, Note_on_c, 0, 71, 75
2, 18767, Note_on_c, 0, 71, 0
2, 18960, Note_on_c, 0, 73, 75
2, 19007, Note_on_c, 0, 73, 0
2, 19200, Note_on_c, 0, 75, 101
2, 20160, Note_on_c, 0, 75, 0
2, 20160, Note_on_c, 0, 58, 75
2, 20160, Note_on_c, 0, 70, 75
2, 22080, Note_on_c, 0, 70, 0
2, 22080, Note_on_c, 0, 58, 0
2, 22080, Control_c, 0, 64, 127
2, 22080, Note_on_c, 0, 70, 62
2, 23040, Note_on_c, 0, 70, 0
2, 23040, Note_on_c, 0, 72, 62
2, 23280, Note_on_c, 0, 72, 0
2, 23280, Note_on_c, 0, 69, 62
2, 23520, Note_on_c, 0, 69, 0
2, 23520, Note_on_c, 0, 69, 62
2, 23760, Note_on_c, 0, 69, 0
2, 23760, Control_c, 0, 64, 0
2, 23760, Note_on_c, 0, 70, 62
2, 24000, Note_on_c, 0, 70, 0
2, 24000, Note_on_c, 0, 58, 62
2, 24000, Note_on_c, 0, 70, 62
2, 25920, Note_on_c, 0, 70, 0
2, 25920, Note_on_c, 0, 58, 0
2, 25920, Note_on_c, 0, 70, 62
2, 26880, Note_on_c, 0, 70, 0
2, 26880, Note_on_c, 0, 72, 62
2, 27120, Note_on_c, 0, 72, 0
2, 27120, Note_on_c, 0, 69, 62
2, 27360, Note_on_c, 0, 69, 0
2, 27360, Note_on_c, 0, 69, 62
2, 27600, Note_on_c, 0, 69, 0
2, 27600, Note_on_c, 0, 70, 62
2, 27840, Note_on_c, 0, 70, 0
2, 27840, Note_on_c, 0, 79, 75
2, 28320, Note_on_c, 0, 79, 0
2, 28320, Note_on_c, 0, 77, 75
2, 28800, Note_on_c, 0, 77, 0
2, 28800, Note_on_c, 0, 76, 75
2, 29280, Note_on_c, 0, 76, 0
2, 29280, Note_on_c, 0, 77, 75
2, 29760, Note_on_c, 0, 77, 0
2, 29760, Note_on_c, 0, 77, 75
2, 30120, Note_on_c, 0, 77, 0
2, 30120, Control_c, 0, 64, 127
2, 30120, Note_on_c, 0, 80, 75
2, 30180, Note_on_c, 0, 80, 0
2, 30180, Note_on_c, 0, 78, 75
2, 30240, Note_on_c, 0, 78, 0
2, 30240, Note_on_c, 0, 77, 75
2, 30480, Note_on_c, 0, 77, 0
2, 30480, Note_on_c, 0, 78, 75
2, 30720, Note_on_c, 0, 78, 0
2, 30720, Note_on_c, 0, 86, 75
2, 30960, Note_on_c, 0, 86, 0
2, 30960, Note_on_c, 0, 84, 75
2, 31200, Note_on_c, 0, 84, 0
2, 31200, Note_on_c, 0, 84, 75
2, 31440, Note_on_c, 0, 84, 0
2, 31440, Control_c, 0, 64, 0
2, 31440, Note_on_c, 0, 85, 75
2, 31680, Note_on_c, 0, 85, 0
2, 31680, Note_on_c, 0, 83, 75
2, 32160, Note_on_c, 0, 83, 0
2, 32160, Note_on_c, 0, 81, 75
2, 32640, Note_on_c, 0, 81, 0
2, 32640, Note_on_c, 0, 80, 75
2, 33120, Note_on_c, 0, 80, 0
2, 33120, Note_on_c, 0, 81, 75
2, 33960, Note_on_c, 0, 81, 0
2, 33960, Control_c, 0, 64, 127
2, 33960, Note_on_c, 0, 84, 75
2, 34020, Note_on_c, 0, 84, 0
2, 34020, Note_on_c, 0, 82, 75
2, 34080, Note_on_c, 0, 82, 0
2, 34080, Note_on_c, 0, 81, 75
2, 34320, Note_on_c, 0, 81, 0
2, 34320, Note_on_c, 0, 82, 75
2, 34560, Note_on_c, 0, 82, 0
2, 34560, Note_on_c, 0, 90, 75
2, 34800, Note_on_c, 0, 90, 0
2, 34800, Note_on_c, 0, 88, 75
2, 35040, Note_on_c, 0, 88, 0
2, 35040, Note_on_c, 0, 88, 75
2, 35280, Note_on_c, 0, 88, 0
2, 35280, Control_c, 0, 64, 0
2, 35280, Note_on_c, 0, 89, 75
2, 35520, Note_on_c, 0, 89, 0
2, 35880, Control_c, 0, 64, 127
2, 35880, Note_on_c, 0, 71, 88
2, 35880, Note_on_c, 0, 83, 88
2, 35940, Note_on_c, 0, 83, 0
2, 35940, Note_on_c, 0, 71, 0
2, 35940, Note_on_c, 0, 70, 88
2, 35940, Note_on_c, 0, 82, 88
2, 36000, Note_on_c, 0, 82, 0
2, 36000, Note_on_c, 0, 70, 0
2, 36000, Note_on_c, 0, 69, 88
2, 36000, Note_on_c, 0, 81, 88
2, 36240, Note_on_c, 0, 81, 0
2, 36240, Note_on_c, 0, 69, 0
2, 36240, Note_on_c, 0, 70, 88
2, 36240, Note_on_c, 0, 82, 88
2, 36480, Note_on_c, 0, 82, 0
2, 36480, Note_on_c, 0, 70, 0
2, 36480, Note_on_c, 0, 80, 88
2, 36480, Note_on_c, 0, 92, 88
2, 36720, Note_on_c, 0, 92, 0
2, 36720, Note_on_c, 0, 80, 0
2, 36720, Note_on_c, 0, 77, 114
2, 36720, Note_on_c, 0, 89, 114
2, 37200, Note_on_c, 0, 89, 0
2, 37200, Note_on_c, 0, 77, 0
2, 37200, Control_c, 0, 64, 0
2, 37200, Note_on_c, 0, 78, 88
2, 37200, Note_on_c, 0, 90, 88
2, 37440, Note_on_c, 0, 90, 0
2, 37440, Note_on_c, 0, 78, 0
2, 37800, Control_c, 0, 64, 127
2, 37800, Note_on_c, 0, 64, 62
2, 37800, Note_on_c, 0, 76, 62
2, 37860, Note_on_c, 0, 76, 0
2, 37860, Note_on_c, 0, 64, 0
2, 37860, Note_on_c, 0, 63, 62
2, 37860, Note_on_c, 0, 75, 62
2, 37920, Note_on_c, 0, 75, 0
2, 37920, Note_on_c, 0, 63, 0
2, 37920, Note_on_c, 0, 62, 62
2, 37920, Note_on_c, 0, 74, 62
2, 38160, Note_on_c, 0, 74, 0
2, 38160, Note_on_c, 0, 62, 0
2, 38160, Note_on_c, 0, 63, 62
2, 38160, Note_on_c, 0, 75, 62
2, 38400, Note_on_c, 0, 75, 0
2, 38400, Note_on_c, 0, 63, 0
2, 38400, Note_on_c, 0, 74, 62
2, 38400, Note_on_c, 0, 85, 62
2, 38640, Note_on_c, 0, 85, 0
2, 38640, Note_on_c, 0, 74, 0
2, 38640, Note_on_c, 0, 68, 62
2, 38640, Note_on_c, 0, 80, 62
2, 39120, Note_on_c, 0, 80, 0
2, 39120, Note_on_c, 0, 68, 0
2, 39120, Note_on_c, 0, 71, 62
2, 39120, Note_on_c, 0, 83, 62
2, 39600, Note_on_c, 0, 83, 0
2, 39600, Note_on_c, 0, 71, 0
2, 39600, Note_on_c, 0, 70, 88
2, 39600, Note_on_c, 0, 82, 88
2, 40080, Note_on_c, 0, 82, 0
2, 40080, Note_on_c, 0, 70, 0
2, 40080, Note_on_c, 0, 68, 88
2, 40080, Note_on_c, 0, 80, 88
2, 40560, Note_on_c, 0, 80, 0
2, 40560, Note_on_c, 0, 68, 0
2, 40560, Note_on_c, 0, 67, 88
2, 40560, Note_on_c, 0, 79, 88
2, 41040, Note_on_c, 0, 79, 0
2, 41040, Note_on_c, 0, 67, 0
2, 41040, Control_c, 0, 64, 0
2, 41040, Note_on_c, 0, 66, 62
2, 41040, Note_on_c, 0, 78, 62
2, 41280, Note_on_c, 0, 78, 0
2, 41280, Note_on_c, 0, 66, 0
2, 41280, Control_c, 0, 64, 127
2, 41280, Note_on_c, 0, 71, 62
2, 41280, Note_on_c, 0, 83, 62
2, 41520, Note_on_c, 0, 83, 0
2, 41520, Note_on_c, 0, 71, 0
2, 41520, Note_on_c, 0, 70, 88
2, 41520, Note_on_c, 0, 82, 88
2, 42000, Note_on_c, 0, 82, 0
2, 42000, Note_on_c, 0, 70, 0
2, 42000, Note_on_c, 0, 68, 88
2, 42000, Note_on_c, 0, 80, 88
2, 42480, Note_on_c, 0, 80, 0
2, 42480, Note_on_c, 0, 68, 0
2, 42480, Note_on_c, 0, 67, 88
2, 42480, Note_on_c, 0, 79, 88
2, 42960, Note_on_c, 0, 79, 0
2, 42960, Note_on_c, 0, 67, 0
2, 42960, Control_c, 0, 64, 0
2, 42960, Note_on_c, 0, 66, 62
2, 42960, Note_on_c, 0, 78, 62
2, 43200, Note_on_c, 0, 78, 0
2, 43200, Note_on_c, 0, 66, 0
2, 43440, Note_on_c, 0, 68, 62
2, 43560, Note_on_c, 0, 70, 62
2, 43620, Note_on_c, 0, 70, 0
2, 43620, Note_on_c, 0, 68, 62
2, 43680, Note_on_c, 0, 68, 0
2, 43680, Note_on_c, 0, 68, 0
2, 43680, Note_on_c, 0, 67, 62
2, 43920, Note_on_c, 0, 67, 0
2, 43920, Note_on_c, 0, 68, 62
2, 44160, Note_on_c, 0, 68, 0
2, 44160, Note_on_c, 0, 78, 62
2, 44400, Note_on_c, 0, 78, 0
2, 44400, Note_on_c, 0, 75, 88
2, 44880, Note_on_c, 0, 75, 0
2, 44880, Note_on_c, 0, 76, 62
2, 45120, Note_on_c, 0, 76, 0
2, 45360, Control_c, 0, 64, 127
2, 45360, Note_on_c, 0, 67, 62
2, 45480, Note_on_c, 0, 68, 62
2, 45540, Note_on_c, 0, 68, 0
2, 45540, Note_on_c, 0, 67, 62
2, 45600, Note_on_c, 0, 67, 0
2, 45600, Note_on_c, 0, 67, 0
2, 45600, Note_on_c, 0, 65, 62
2, 45840, Note_on_c, 0, 65, 0
2, 45840, Note_on_c, 0, 67, 62
2, 46080, Control_c, 0, 64, 0
2, 46080, Note_on_c, 0, 75, 62
2, 48000, Note_on_c, 0, 75, 0
2, 48000, Note_on_c, 0, 67, 0
2, 48000, Control_c, 0, 64, 127
2, 48000, Note_on_c, 0, 75, 62
2, 48360, Note_on_c, 0, 76, 62
2, 48420, Note_on_c, 0, 76, 0
2, 48420, Note_on_c, 0, 75, 62
2, 48480, Note_on_c, 0, 75, 0
2, 48480, Note_on_c, 0, 75, 0
2, 48480, Note_on_c, 0, 74, 62
2, 48720, Note_on_c, 0, 74, 0
2, 48720, Note_on_c, 0, 75, 62
2, 48960, Note_on_c, 0, 75, 0
2, 48960, Note_on_c, 0, 80, 62
2, 49200, Note_on_c, 0, 80, 0
2, 49200, Note_on_c, 0, 75, 62
2, 49440, Note_on_c, 0, 75, 0
2, 49440, Control_c, 0, 64, 0
2, 49440, Note_on_c, 0, 74, 62
2, 49920, Note_on_c, 0, 74, 0
2, 49920, Control_c, 0, 64, 127
2, 49920, Note_on_c, 0, 75, 62
2, 50160, Note_on_c, 0, 75, 0
2, 50160, Note_on_c, 0, 73, 62
2, 50280, Note_on_c, 0, 75, 62
2, 50340, Note_on_c, 0, 75, 0
2, 50340, Note_on_c, 0, 73, 62
2, 50400, Note_on_c, 0, 73, 0
2, 50400, Note_on_c, 0, 73, 0
2, 50400, Note_on_c, 0, 71, 62
2, 50640, Note_on_c, 0, 71, 0
2, 50640, Control_c, 0, 64, 0
2, 50640, Note_on_c, 0, 70, 62
2, 50880, Note_on_c, 0, 70, 0
2, 50880, Note_on_c, 0, 68, 62
2, 51120, Note_on_c, 0, 68, 0
2, 51120, Note_on_c, 0, 75, 88
2, 52080, Note_on_c, 0, 75, 0
2, 52080, Control_c, 0, 64, 127
2, 52080, Note_on_c, 0, 73, 62
2, 52200, Note_on_c, 0, 75, 62
2, 52260, Note_on_c, 0, 75, 0
2, 52260, Note_on_c, 0, 73, 62
2, 52320, Note_on_c, 0, 73, 0
2, 52320, Note_on_c, 0, 73, 0
2, 52320, Note_on_c, 0, 71, 62
2, 52560, Note_on_c, 0, 71, 0
2, 52560, Note_on_c, 0, 70, 62
2, 52800, Note_on_c, 0, 70, 0
2, 52800, Note_on_c, 0, 68, 62
2, 53040, Note_on_c, 0, 68, 0
2, 53040, Control_c, 0, 64, 0
2, 53040, Note_on_c, 0, 70, 62
2, 53280, Note_on_c, 0, 70, 0
2, 53280, Note_on_c, 0, 63, 62
2, 53520, Note_on_c, 0, 63, 0
2, 53520, Note_on_c, 0, 63, 62
2, 54720, Note_on_c, 0, 63, 0
2, 54720, Control_c, 0, 64, 127
2, 54720, Note_on_c, 0, 68, 75
2, 54960, Note_on_c, 0, 68, 0
2, 54960, Note_on_c, 0, 66, 75
2, 55080, Note_on_c, 0, 68, 75
2, 55140, Note_on_c, 0, 68, 0
2, 55140, Note_on_c, 0, 66, 75
2, 55200, Note_on_c, 0, 66, 0
2, 55200, Note_on_c, 0, 66, 0
2, 55200, Note_on_c, 0, 64, 75
2, 55440, Note_on_c, 0, 64, 0
2, 55440, Note_on_c, 0, 63, 75
2, 55680, Note_on_c, 0, 63, 0
2, 55680, Note_on_c, 0, 61, 75
2, 55920, Note_on_c, 0, 61, 0
2, 55920, Note_on_c, 0, 71, 75
2, 56160, Note_on_c, 0, 71, 0
2, 56160, Note_on_c, 0, 70, 75
2, 56400, Note_on_c, 0, 70, 0
2, 56400, Control_c, 0, 64, 0
2, 56400, Note_on_c, 0, 75, 75
2, 56640, Note_on_c, 0, 75, 0
2, 56640, Control_c, 0, 64, 127
2, 56640, Note_on_c, 0, 73, 75
2, 56880, Note_on_c, 0, 73, 0
2, 56880, Note_on_c, 0, 71, 75
2, 57000, Note_on_c, 0, 73, 75
2, 57060, Note_on_c, 0, 73, 0
2, 57060, Note_on_c, 0, 71, 75
2, 57120, Note_on_c, 0, 71, 0
2, 57120, Note_on_c, 0, 71, 0
2, 57120, Note_on_c, 0, 70, 75
2, 57360, Note_on_c, 0, 70, 0
2, 57360, Note_on_c, 0, 80, 75
2, 57600, Note_on_c, 0, 80, 0
2, 57600, Note_on_c, 0, 78, 75
2, 57840, Note_on_c, 0, 78, 0
2, 57840, Note_on_c, 0, 76, 75
2, 57960, Note_on_c, 0, 78, 75
2, 58020, Note_on_c, 0, 78, 0
2, 58020, Note_on_c, 0, 76, 75
2, 58080, Note_on_c, 0, 76, 0
2, 58080, Note_on_c, 0, 76, 0
2, 58080, Note_on_c, 0, 75, 75
2, 58320, Note_on_c, 0, 75, 0
2, 58320, Control_c, 0, 64, 0
2, 58320, Note_on_c, 0, 83, 75
2, 58560, Note_on_c, 0, 83, 0
2, 58560, Control_c, 0, 64, 127
2, 58560, Note_on_c, 0, 82, 75
2, 58800, Note_on_c, 0, 82, 0
2, 58800, Note_on_c, 0, 80, 75
2, 58920, Note_on_c, 0, 82, 75
2, 58980, Note_on_c, 0, 82, 0
2, 58980, Note_on_c, 0, 80, 75
2, 59040, Note_on_c, 0, 80, 0
2, 59040, Note_on_c, 0, 80, 0
2, 59040, Note_on_c, 0, 78, 75
2, 59280, Note_on_c, 0, 78, 0
2, 59280, Note_on_c, 0, 76, 75
2, 59520, Note_on_c, 0, 76, 0
2, 59520, Note_on_c, 0, 75, 75
2, 59760, Note_on_c, 0, 75, 0
2, 59760, Control_c, 0, 64, 0
2, 59760, Note_on_c, 0, 76, 75
2, 60000, Note_on_c, 0, 76, 0
2, 60000, Note_on_c, 0, 71, 75
2, 60047, Note_on_c, 0, 71, 0
2, 60240, Note_on_c, 0, 73, 75
2, 60287, Note_on_c, 0, 73, 0
2, 60480, Note_on_c, 0, 75, 101
2, 61440, Note_on_c, 0, 75, 0
2, 61680, Note_on_c, 0, 67, 75
2, 62160, Note_on_c, 0, 67, 0
2, 62160, Note_on_c, 0, 68, 75
2, 62400, Note_on_c, 0, 68, 0
2, 62640, Note_on_c, 0, 72, 75
2, 63120, Note_on_c, 0, 72, 0
2, 63120, Note_on_c, 0, 73, 75
2, 63360, Note_on_c, 0, 73, 0
2, 63360, Note_on_c, 0, 78, 75
2, 63600, Note_on_c, 0, 78, 0
2, 63600, Note_on_c, 0, 76, 75
2, 63840, Note_on_c, 0, 76, 0
2, 63840, Note_on_c, 0, 75, 75
2, 64080, Note_on_c, 0, 75, 0
2, 64080, Note_on_c, 0, 76, 75
2, 64320, Note_on_c, 0, 76, 0
2, 64320, Note_on_c, 0, 76, 75
2, 65040, Note_on_c, 0, 76, 0
2, 65040, Note_on_c, 0, 75, 75
2, 65520, Note_on_c, 0, 75, 0
2, 65520, Note_on_c, 0, 70, 75
2, 65760, Note_on_c, 0, 70, 0
2, 65760, Note_on_c, 0, 63, 75
2, 65760, Note_on_c, 0, 71, 75
2, 66000, Note_on_c, 0, 71, 0
2, 66000, Note_on_c, 0, 63, 0
2, 66000, Note_on_c, 0, 73, 75
2, 66480, Note_on_c, 0, 73, 0
2, 66480, Note_on_c, 0, 61, 75
2, 66480, Note_on_c, 0, 67, 75
2, 66960, Note_on_c, 0, 67, 0
2, 66960, Note_on_c, 0, 61, 0
2, 66960, Note_on_c, 0, 61, 75
2, 66960, Note_on_c, 0, 64, 75
2, 66960, Note_on_c, 0, 70, 75
2, 67440, Note_on_c, 0, 70, 0
2, 67440, Note_on_c, 0, 64, 0
2, 67440, Note_on_c, 0, 61, 0
2, 67440, Note_on_c, 0, 52, 75
2, 67440, Note_on_c, 0, 56, 75
2, 67440, Note_on_c, 0, 61, 75
2, 67920, Note_on_c, 0, 61, 0
2, 67920, Note_on_c, 0, 56, 0
2, 67920, Note_on_c, 0, 52, 0
2, 67920, Note_on_c, 0, 64, 75
2, 68400, Note_on_c, 0, 64, 0
2, 68400, Note_on_c, 0, 63, 75
2, 69120, Note_on_c, 0, 63, 0
2, 70080, Control_c, 0, 64, 127
2, 70080, Note_on_c, 0, 61, 62
2, 70320, Note_on_c, 0, 61, 0
2, 70320, Note_on_c, 0, 67, 62
2, 70560, Note_on_c, 0, 67, 0
2, 70560, Note_on_c, 0, 71, 62
2, 70800, Note_on_c, 0, 71, 0
2, 70800, Note_on_c, 0, 75, 62
2, 72960, Note_on_c, 0, 75, 0
2, 72960, Note_on_c, 0, 71, 49
2, 74880, Note_on_c, 0, 71, 0
2, 76320, Control_c, 0, 64, 0
2, 76320, End_track
3, 0, Start_track
3, 0, Title_t, "Grand Piano"
3, 0, Program_c, 0, 0
3, 0, Control_c, 0, 7, 115
3, 0, Control_c, 0, 10, 79
3, 0, Note_on_c, 0, 66, 49
3, 0, Note_on_c, 0, 71, 49
3, 480, Note_on_c, 0, 71, 0
3, 480, Note_on_c, 0, 66, 0
3, 1440, Note_on_c, 0, 68, 49
3, 1440, Note_on_c, 0, 71, 49
3, 1920, Note_on_c, 0, 71, 0
3, 1920, Note_on_c, 0, 68, 0
3, 1920, Note_on_c, 0, 66, 49
3, 1920, Note_on_c, 0, 71, 49
3, 2400, Note_on_c, 0, 71, 0
3, 2400, Note_on_c, 0, 66, 0
3, 2880, Note_on_c, 0, 64, 49
3, 2880, Note_on_c, 0, 68, 49
3, 4080, Note_on_c, 0, 68, 0
3, 4080, Note_on_c, 0, 64, 0
3, 5280, Note_on_c, 0, 58, 49
3, 5520, Note_on_c, 0, 58, 0
3, 5520, Note_on_c, 0, 58, 49
3, 6720, Note_on_c, 0, 58, 0
3, 6720, Note_on_c, 0, 66, 49
3, 6720, Note_on_c, 0, 71, 49
3, 7200, Note_on_c, 0, 71, 0
3, 7200, Note_on_c, 0, 66, 0
3, 8160, Note_on_c, 0, 68, 49
3, 8160, Note_on_c, 0, 71, 49
3, 8640, Note_on_c, 0, 71, 0
3, 8640, Note_on_c, 0, 68, 0
3, 8640, Note_on_c, 0, 66, 49
3, 8640, Note_on_c, 0, 71, 49
3, 9120, Note_on_c, 0, 71, 0
3, 9120, Note_on_c, 0, 66, 0
3, 9600, Note_on_c, 0, 64, 49
3, 9600, Note_on_c, 0, 68, 49
3, 10800, Note_on_c, 0, 68, 0
3, 10800, Note_on_c, 0, 64, 0
3, 12000, Note_on_c, 0, 58, 49
3, 12240, Note_on_c, 0, 58, 0
3, 12240, Note_on_c, 0, 58, 49
3, 13440, Note_on_c, 0, 58, 0
3, 17280, Note_on_c, 0, 68, 62
3, 18720, Note_on_c, 0, 68, 0
3, 18720, Note_on_c, 0, 68, 62
3, 18960, Note_on_c, 0, 68, 0
3, 18960, Note_on_c, 0, 68, 62
3, 19200, Note_on_c, 0, 68, 0
3, 19200, Note_on_c, 0, 67, 62
3, 20160, Note_on_c, 0, 67, 0
3, 20160, Note_on_c, 0, 68, 62
3, 21120, Note_on_c, 0, 68, 0
3, 21120, Note_on_c, 0, 64, 62
3, 21600, Note_on_c, 0, 64, 0
3, 21600, Note_on_c, 0, 65, 62
3, 22080, Note_on_c, 0, 65, 0
3, 22080, Note_on_c, 0, 66, 62
3, 22440, Note_on_c, 0, 66, 0
3, 22440, Note_on_c, 0, 67, 62
3, 22500, Note_on_c, 0, 67, 0
3, 22500, Note_on_c, 0, 66, 62
3, 22560, Note_on_c, 0, 66, 0
3, 22560, Note_on_c, 0, 65, 62
3, 22800, Note_on_c, 0, 65, 0
3, 22800, Note_on_c, 0, 66, 62
3, 23520, Note_on_c, 0, 66, 0
3, 23520, Note_on_c, 0, 66, 62
3, 24000, Note_on_c, 0, 66, 0
3, 24000, Note_on_c, 0, 68, 62
3, 24960, Note_on_c, 0, 68, 0
3, 24960, Note_on_c, 0, 64, 62
3, 25440, Note_on_c, 0, 64, 0
3, 25440, Note_on_c, 0, 65, 62
3, 25920, Note_on_c, 0, 65, 0
3, 25920, Note_on_c, 0, 66, 62
3, 26280, Note_on_c, 0, 66, 0
3, 26280, Note_on_c, 0, 67, 62
3, 26340, Note_on_c, 0, 67, 0
3, 26340, Note_on_c, 0, 66, 62
3, 26400, Note_on_c, 0, 66, 0
3, 26400, Note_on_c, 0, 65, 62
3, 26640, Note_on_c, 0, 65, 0
3, 26640, Note_on_c, 0, 66, 62
3, 27360, Note_on_c, 0, 66, 0
3, 27360, Note_on_c, 0, 66, 62
3, 27840, Note_on_c, 0, 66, 0
3, 27840, Note_on_c, 0, 68, 62
3, 29760, Note_on_c, 0, 68, 0
3, 31680, Note_on_c, 0, 73, 62
3, 32640, Note_on_c, 0, 73, 0
3, 32640, Note_on_c, 0, 72, 62
3, 33600, Note_on_c, 0, 72, 0
3, 48000, Note_on_c, 0, 66, 49
3, 48000, Note_on_c, 0, 71, 49
3, 48480, Note_on_c, 0, 71, 0
3, 48480, Note_on_c, 0, 66, 0
3, 49440, Note_on_c, 0, 68, 49
3, 49440, Note_on_c, 0, 71, 49
3, 49920, Note_on_c, 0, 71, 0
3, 49920, Note_on_c, 0, 68, 0
3, 49920, Note_on_c, 0, 66, 49
3, 49920, Note_on_c, 0, 71, 49
3, 50400, Note_on_c, 0, 71, 0
3, 50400, Note_on_c, 0, 66, 0
3, 50880, Note_on_c, 0, 64, 49
3, 50880, Note_on_c, 0, 68, 49
3, 52080, Note_on_c, 0, 68, 0
3, 52080, Note_on_c, 0, 64, 0
3, 53280, Note_on_c, 0, 58, 49
3, 53520, Note_on_c, 0, 58, 0
3, 53520, Note_on_c, 0, 58, 49
3, 54720, Note_on_c, 0, 58, 0
3, 58560, Note_on_c, 0, 68, 62
3, 60000, Note_on_c, 0, 68, 0
3, 60000, Note_on_c, 0, 68, 62
3, 60240, Note_on_c, 0, 68, 0
3, 60240, Note_on_c, 0, 68, 62
3, 60480, Note_on_c, 0, 68, 0
3, 60480, Note_on_c, 0, 67, 62
3, 61440, Note_on_c, 0, 67, 0
3, 61680, Note_on_c, 0, 61, 62
3, 61920, Note_on_c, 0, 61, 0
3, 61920, Note_on_c, 0, 64, 62
3, 62160, Note_on_c, 0, 64, 0
3, 62160, Note_on_c, 0, 63, 62
3, 62400, Note_on_c, 0, 63, 0
3, 62640, Note_on_c, 0, 66, 62
3, 62880, Note_on_c, 0, 66, 0
3, 62880, Note_on_c, 0, 69, 62
3, 63120, Note_on_c, 0, 69, 0
3, 63120, Note_on_c, 0, 68, 62
3, 63360, Note_on_c, 0, 68, 0
3, 63600, Note_on_c, 0, 68, 62
3, 63840, Note_on_c, 0, 68, 0
3, 63840, Note_on_c, 0, 73, 62
3, 64080, Note_on_c, 0, 73, 0
3, 64080, Note_on_c, 0, 71, 62
3, 64320, Note_on_c, 0, 71, 0
3, 64320, Note_on_c, 0, 70, 62
3, 64560, Note_on_c, 0, 70, 0
3, 64560, Note_on_c, 0, 68, 62
3, 64800, Note_on_c, 0, 68, 0
3, 64800, Note_on_c, 0, 67, 62
3, 65040, Note_on_c, 0, 67, 0
3, 65040, Note_on_c, 0, 68, 62
3, 65520, Note_on_c, 0, 68, 0
3, 65520, Note_on_c, 0, 70, 62
3, 65760, Note_on_c, 0, 70, 0
3, 66000, Note_on_c, 0, 64, 62
3, 66000, Note_on_c, 0, 68, 62
3, 66480, Note_on_c, 0, 68, 0
3, 66480, Note_on_c, 0, 64, 0
3, 67920, Note_on_c, 0, 58, 62
3, 67920, Note_on_c, 0, 61, 62
3, 69120, Note_on_c, 0, 61, 0
3, 69120, Note_on_c, 0, 58, 0
3, 69120, End_track
4, 0, Start_track
4, 0, Title_t, "Grand Piano"
4, 0, Program_c, 0, 0
4, 0, Control_c, 0, 7, 115
4, 0, Control_c, 0, 10, 41
4, 0, Control_c, 0, 64, 127
4, 0, Note_on_c, 0, 63, 49
4, 360, Note_on_c, 0, 64, 49
4, 420, Note_on_c, 0, 64, 0
4, 420, Note_on_c, 0, 63, 49
4, 480, Note_on_c, 0, 63, 0
4, 480, Note_on_c, 0, 63, 0
4, 480, Note_on_c, 0, 62, 49
4, 720, Note_on_c, 0, 62, 0
4, 720, Note_on_c, 0, 63, 49
4, 960, Note_on_c, 0, 63, 0
4, 960, Note_on_c, 0, 68, 49
4, 1200, Note_on_c, 0, 68, 0
4, 1200, Note_on_c, 0, 63, 49
4, 1440, Note_on_c, 0, 63, 0
4, 1440, Control_c, 0, 64, 0
4, 1440, Note_on_c, 0, 62, 49
4, 1920, Note_on_c, 0, 62, 0
4, 1920, Control_c, 0, 64, 127
4, 1920, Note_on_c, 0, 63, 49
4, 2160, Note_on_c, 0, 63, 0
4, 2160, Note_on_c, 0, 61, 49
4, 2280, Note_on_c, 0, 63, 49
4, 2340, Note_on_c, 0, 63, 0
4, 2340, Note_on_c, 0, 61, 49
4, 2400, Note_on_c, 0, 61, 0
4, 2400, Note_on_c, 0, 61, 0
4, 2400, Note_on_c, 0, 59, 49
4, 2640, Note_on_c, 0, 59, 0
4, 2640, Control_c, 0, 64, 0
4, 2640, Note_on_c, 0, 58, 49
4, 2880, Note_on_c, 0, 58, 0
4, 2880, Note_on_c, 0, 56, 49
4, 3120, Note_on_c, 0, 56, 0
4, 3120, Note_on_c, 0, 63, 49
4, 4080, Note_on_c, 0, 63, 0
4, 4080, Control_c, 0, 64, 127
4, 4080, Note_on_c, 0, 61, 49
4, 4200, Note_on_c, 0, 63, 49
4, 4260, Note_on_c, 0, 63, 0
4, 4260, Note_on_c, 0, 61, 49
4, 4320, Note_on_c, 0, 61, 0
4, 4320, Note_on_c, 0, 61, 0
4, 4320, Note_on_c, 0, 59, 49
4, 4560, Note_on_c, 0, 59, 0
4, 4560, Note_on_c, 0, 58, 49
4, 4800, Note_on_c, 0, 58, 0
4, 4800, Note_on_c, 0, 56, 49
4, 5040, Note_on_c, 0, 56, 0
4, 5040, Control_c, 0, 64, 0
4, 5040, Note_on_c, 0, 58, 49
4, 5280, Note_on_c, 0, 58, 0
4, 5280, Note_on_c, 0, 51, 49
4, 5280, Note_on_c, 0, 55, 49
4, 5520, Note_on_c, 0, 55, 0
4, 5520, Note_on_c, 0, 51, 0
4, 5520, Note_on_c, 0, 51, 49
4, 5520, Note_on_c, 0, 55, 49
4, 6720, Note_on_c, 0, 55, 0
4, 6720, Note_on_c, 0, 51, 0
4, 6720, Control_c, 0, 64, 127
4, 6720, Note_on_c, 0, 63, 49
4, 7080, Note_on_c, 0, 64, 49
4, 7140, Note_on_c, 0, 64, 0
4, 7140, Note_on_c, 0, 63, 49
4, 7200, Note_on_c, 0, 63, 0
4, 7200, Note_on_c, 0, 63, 0
4, 7200, Note_on_c, 0, 62, 49
4, 7440, Note_on_c, 0, 62, 0
4, 7440, Note_on_c, 0, 63, 49
4, 7680, Note_on_c, 0, 63, 0
4, 7680, Note_on_c, 0, 68, 49
4, 7920, Note_on_c, 0, 68, 0
4, 7920, Note_on_c, 0, 63, 49
4, 8160, Note_on_c, 0, 63, 0
4, 8160, Control_c, 0, 64, 0
4, 8160, Note_on_c, 0, 62, 49
4, 8640, Note_on_c, 0, 62, 0
4, 8640, Control_c, 0, 64, 127
4, 8640, Note_on_c, 0, 63, 49
4, 8880, Note_on_c, 0, 63, 0
4, 8880, Note_on_c, 0, 61, 49
4, 9000, Note_on_c, 0, 63, 49
4, 9060, Note_on_c, 0, 63, 0
4, 9060, Note_on_c, 0, 61, 49
4, 9120, Note_on_c, 0, 61, 0
4, 9120, Note_on_c, 0, 61, 0
4, 9120, Note_on_c, 0, 59, 49
4, 9360, Note_on_c, 0, 59, 0
4, 9360, Control_c, 0, 64, 0
4, 9360, Note_on_c, 0, 58, 49
4, 9600, Note_on_c, 0, 58, 0
4, 9600, Note_on_c, 0, 56, 49
4, 9840, Note_on_c, 0, 56, 0
4, 9840, Note_on_c, 0, 63, 49
4, 10800, Note_on_c, 0, 63, 0
4, 10800, Control_c, 0, 64, 127
4, 10800, Note_on_c, 0, 61, 49
4, 10920, Note_on_c, 0, 63, 49
4, 10980, Note_on_c, 0, 63, 0
4, 10980, Note_on_c, 0, 61, 49
4, 11040, Note_on_c, 0, 61, 0
4, 11040, Note_on_c, 0, 61, 0
4, 11040, Note_on_c, 0, 59, 49
4, 11280, Note_on_c, 0, 59, 0
4, 11280, Note_on_c, 0, 58, 49
4, 11520, Note_on_c, 0, 58, 0
4, 11520, Note_on_c, 0, 56, 49
4, 11760, Note_on_c, 0, 56, 0
4, 11760, Control_c, 0, 64, 0
4, 11760, Note_on_c, 0, 58, 49
4, 12000, Note_on_c, 0, 58, 0
4, 12000, Note_on_c, 0, 51, 49
4, 12000, Note_on_c, 0, 55, 49
4, 12240, Note_on_c, 0, 55, 0
4, 12240, Note_on_c, 0, 51, 0
4, 12240, Note_on_c, 0, 51, 49
4, 12240, Note_on_c, 0, 55, 49
4, 13440, Note_on_c, 0, 55, 0
4, 13440, Note_on_c, 0, 51, 0
4, 13920, Control_c, 0, 64, 127
4, 13920, Note_on_c, 0, 56, 62
4, 14160, Note_on_c, 0, 56, 0
4, 14160, Note_on_c, 0, 54, 62
4, 14280, Note_on_c, 0, 56, 62
4, 14340, Note_on_c, 0, 56, 0
4, 14340, Note_on_c, 0, 54, 62
4, 14400, Note_on_c, 0, 54, 0
4, 14400, Note_on_c, 0, 54, 0
4, 14400, Note_on_c, 0, 52, 62
4, 14640, Note_on_c, 0, 52, 0
4, 14640, Note_on_c, 0, 51, 62
4, 14880, Note_on_c, 0, 51, 0
4, 14880, Note_on_c, 0, 49, 62
4, 15120, Note_on_c, 0, 49, 0
4, 15120, Control_c, 0, 64, 0
4, 15120, Note_on_c, 0, 59, 62
4, 15360, Note_on_c, 0, 59, 0
4, 15360, Control_c, 0, 64, 127
4, 15360, Note_on_c, 0, 58, 62
4, 15600, Note_on_c, 0, 58, 0
4, 15600, Note_on_c, 0, 63, 62
4, 15840, Note_on_c, 0, 63, 0
4, 15840, Note_on_c, 0, 61, 62
4, 16080, Note_on_c, 0, 61, 0
4, 16080, Note_on_c, 0, 59, 62
4, 16200, Note_on_c, 0, 61, 62
4, 16260, Note_on_c, 0, 61, 0
4, 16260, Note_on_c, 0, 59, 62
4, 16320, Note_on_c, 0, 59, 0
4, 16320, Note_on_c, 0, 59, 0
4, 16320, Note_on_c, 0, 58, 62
4, 16560, Note_on_c, 0, 58, 0
4, 16560, Note_on_c, 0, 68, 62
4, 16800, Note_on_c, 0, 68, 0
4, 16800, Note_on_c, 0, 66, 62
4, 17040, Note_on_c, 0, 66, 0
4, 17040, Control_c, 0, 64, 0
4, 17040, Note_on_c, 0, 67, 62
4, 17280, Note_on_c, 0, 67, 0
4, 17280, Note_on_c, 0, 52, 62
4, 17280, Note_on_c, 0, 56, 62
4, 17280, Note_on_c, 0, 61, 62
4, 18720, Note_on_c, 0, 61, 0
4, 18720, Note_on_c, 0, 56, 0
4, 18720, Note_on_c, 0, 52, 0
4, 18720, Note_on_c, 0, 52, 62
4, 18720, Note_on_c, 0, 56, 62
4, 18767, Note_on_c, 0, 56, 0
4, 18767, Note_on_c, 0, 52, 0
4, 18960, Note_on_c, 0, 52, 62
4, 18960, Note_on_c, 0, 56, 62
4, 19007, Note_on_c, 0, 56, 0
4, 19007, Note_on_c, 0, 52, 0
4, 19200, Note_on_c, 0, 51, 88
4, 19200, Note_on_c, 0, 58, 88
4, 20160, Note_on_c, 0, 58, 0
4, 20160, Note_on_c, 0, 51, 0
4, 20160, Control_c, 0, 64, 127
4, 20160, Note_on_c, 0, 50, 62
4, 20520, Note_on_c, 0, 50, 0
4, 20520, Note_on_c, 0, 51, 62
4, 20580, Note_on_c, 0, 51, 0
4, 20580, Note_on_c, 0, 50, 62
4, 20640, Note_on_c, 0, 50, 0
4, 20640, Note_on_c, 0, 49, 62
4, 20880, Note_on_c, 0, 49, 0
4, 20880, Note_on_c, 0, 50, 62
4, 21120, Note_on_c, 0, 50, 0
4, 21120, Note_on_c, 0, 55, 62
4, 21360, Note_on_c, 0, 55, 0
4, 21360, Note_on_c, 0, 49, 62
4, 21600, Note_on_c, 0, 49, 0
4, 21600, Note_on_c, 0, 49, 62
4, 21840, Note_on_c, 0, 49, 0
4, 21840, Control_c, 0, 64, 0
4, 21840, Note_on_c, 0, 50, 62
4, 22080, Note_on_c, 0, 50, 0
4, 22080, Note_on_c, 0, 58, 62
4, 23520, Note_on_c, 0, 58, 0
4, 23520, Note_on_c, 0, 63, 62
4, 24000, Note_on_c, 0, 63, 0
4, 24000, Control_c, 0, 64, 127
4, 24000, Note_on_c, 0, 50, 62
4, 24360, Note_on_c, 0, 50, 0
4, 24360, Note_on_c, 0, 51, 62
4, 24420, Note_on_c, 0, 51, 0
4, 24420, Note_on_c, 0, 50, 62
4, 24480, Note_on_c, 0, 50, 0
4, 24480, Note_on_c, 0, 49, 62
4, 24720, Note_on_c, 0, 49, 0
4, 24720, Note_on_c, 0, 50, 62
4, 24960, Note_on_c, 0, 50, 0
4, 24960, Note_on_c, 0, 55, 62
4, 25200, Note_on_c, 0, 55, 0
4, 25200, Note_on_c, 0, 49, 62
4, 25440, Note_on_c, 0, 49, 0
4, 25440, Note_on_c, 0, 49, 62
4, 25680, Note_on_c, 0, 49, 0
4, 25680, Control_c, 0, 64, 0
4, 25680, Note_on_c, 0, 50, 62
4, 25920, Note_on_c, 0, 50, 0
4, 25920, Note_on_c, 0, 58, 62
4, 27360, Note_on_c, 0, 58, 0
4, 27360, Note_on_c, 0, 63, 62
4, 27840, Note_on_c, 0, 63, 0
4, 27840, Control_c, 0, 64, 127
4, 27840, Note_on_c, 0, 62, 75
4, 28200, Note_on_c, 0, 62, 0
4, 28200, Note_on_c, 0, 63, 75
4, 28260, Note_on_c, 0, 63, 0
4, 28260, Note_on_c, 0, 62, 75
4, 28320, Note_on_c, 0, 62, 0
4, 28320, Note_on_c, 0, 61, 75
4, 28560, Note_on_c, 0, 61, 0
4, 28560, Note_on_c, 0, 62, 75
4, 28800, Note_on_c, 0, 62, 0
4, 28800, Note_on_c, 0, 71, 101
4, 29040, Note_on_c, 0, 71, 0
4, 29040, Note_on_c, 0, 61, 75
4, 29280, Note_on_c, 0, 61, 0
4, 29280, Note_on_c, 0, 61, 75
4, 29520, Note_on_c, 0, 61, 0
4, 29520, Control_c, 0, 64, 0
4, 29520, Note_on_c, 0, 62, 75
4, 29760, Note_on_c, 0, 62, 0
4, 29760, Note_on_c, 0, 71, 101
4, 30240, Note_on_c, 0, 71, 0
4, 30240, Note_on_c, 0, 69, 101
4, 30720, Note_on_c, 0, 69, 0
4, 30720, Note_on_c, 0, 68, 101
4, 31200, Note_on_c, 0, 68, 0
4, 31200, Note_on_c, 0, 66, 101
4, 31680, Note_on_c, 0, 66, 0
4, 32040, Control_c, 0, 64, 127
4, 32040, Note_on_c, 0, 68, 75
4, 32100, Note_on_c, 0, 68, 0
4, 32100, Note_on_c, 0, 66, 75
4, 32160, Note_on_c, 0, 66, 0
4, 32160, Note_on_c, 0, 65, 75
4, 32400, Note_on_c, 0, 65, 0
4, 32400, Note_on_c, 0, 66, 75
4, 32640, Note_on_c, 0, 66, 0
4, 32640, Note_on_c, 0, 75, 101
4, 32880, Note_on_c, 0, 75, 0
4, 32880, Note_on_c, 0, 65, 75
4, 33120, Note_on_c, 0, 65, 0
4, 33120, Note_on_c, 0, 65, 75
4, 33360, Note_on_c, 0, 65, 0
4, 33360, Control_c, 0, 64, 0
4, 33360, Note_on_c, 0, 66, 75
4, 33600, Note_on_c, 0, 66, 0
4, 33600, Note_on_c, 0, 75, 101
4, 34080, Note_on_c, 0, 75, 0
4, 34080, Note_on_c, 0, 73, 101
4, 34560, Note_on_c, 0, 73, 0
4, 34560, Note_on_c, 0, 72, 101
4, 35040, Note_on_c, 0, 72, 0
4, 35040, Note_on_c, 0, 70, 101
4, 35520, Note_on_c, 0, 70, 0
4, 35520, Note_on_c, 0, 68, 101
4, 36000, Note_on_c, 0, 68, 0
4, 36000, Note_on_c, 0, 66, 101
4, 36480, Note_on_c, 0, 66, 0
4, 36480, Note_on_c, 0, 64, 101
4, 36960, Note_on_c, 0, 64, 0
4, 36960, Note_on_c, 0, 63, 101
4, 37440, Note_on_c, 0, 63, 0
4, 37440, Note_on_c, 0, 61, 88
4, 37920, Note_on_c, 0, 61, 0
4, 37920, Note_on_c, 0, 59, 88
4, 38320, Note_on_c, 0, 44, 88
4, 38360, Note_on_c, 0, 51, 88
4, 38400, Note_on_c, 0, 59, 0
4, 38400, Note_on_c, 0, 58, 88
4, 38880, Note_on_c, 0, 58, 0
4, 38880, Note_on_c, 0, 51, 0
4, 38880, Note_on_c, 0, 44, 0
4, 38880, Note_on_c, 0, 56, 88
4, 39360, Note_on_c, 0, 56, 0
4, 39360, Note_on_c, 0, 59, 62
4, 39840, Note_on_c, 0, 59, 0
4, 39840, Note_on_c, 0, 61, 62
4, 40320, Note_on_c, 0, 61, 0
4, 40320, Note_on_c, 0, 62, 62
4, 40800, Note_on_c, 0, 62, 0
4, 40800, Note_on_c, 0, 63, 62
4, 41280, Note_on_c, 0, 63, 0
4, 41280, Note_on_c, 0, 59, 62
4, 41760, Note_on_c, 0, 59, 0
4, 41760, Note_on_c, 0, 61, 62
4, 42240, Note_on_c, 0, 61, 0
4, 42240, Note_on_c, 0, 62, 62
4, 42720, Note_on_c, 0, 62, 0
4, 42720, Note_on_c, 0, 63, 62
4, 43120, Note_on_c, 0, 49, 62
4, 43160, Note_on_c, 0, 56, 62
4, 43200, Note_on_c, 0, 63, 0
4, 43200, Note_on_c, 0, 66, 62
4, 43680, Note_on_c, 0, 66, 0
4, 43680, Note_on_c, 0, 56, 0
4, 43680, Note_on_c, 0, 49, 0
4, 43680, Note_on_c, 0, 64, 62
4, 44160, Note_on_c, 0, 64, 0
4, 44160, Note_on_c, 0, 63, 62
4, 44640, Note_on_c, 0, 63, 0
4, 44640, Note_on_c, 0, 61, 62
4, 45120, Note_on_c, 0, 61, 0
4, 45120, Note_on_c, 0, 59, 62
4, 45600, Note_on_c, 0, 59, 0
4, 45600, Note_on_c, 0, 58, 62
4, 48000, Note_on_c, 0, 58, 0
4, 48000, Control_c, 0, 64, 127
4, 48000, Note_on_c, 0, 63, 49
4, 48360, Note_on_c, 0, 64, 49
4, 48420, Note_on_c, 0, 64, 0
4, 48420, Note_on_c, 0, 63, 49
4, 48480, Note_on_c, 0, 63, 0
4, 48480, Note_on_c, 0, 63, 0
4, 48480, Note_on_c, 0, 62, 49
4, 48720, Note_on_c, 0, 62, 0
4, 48720, Note_on_c, 0, 63, 49
4, 48960, Note_on_c, 0, 63, 0
4, 48960, Note_on_c, 0, 68, 49
4, 49200, Note_on_c, 0, 68, 0
4, 49200, Note_on_c, 0, 63, 49
4, 49440, Note_on_c, 0, 63, 0
4, 49440, Control_c, 0, 64, 0
4, 49440, Note_on_c, 0, 62, 49
4, 49920, Note_on_c, 0, 62, 0
4, 49920, Control_c, 0, 64, 127
4, 49920, Note_on_c, 0, 63, 49
4, 50160, Note_on_c, 0, 63, 0
4, 50160, Note_on_c, 0, 61, 49
4, 50280, Note_on_c, 0, 63, 49
4, 50340, Note_on_c, 0, 63, 0
4, 50340, Note_on_c, 0, 61, 49
4, 50400, Note_on_c, 0, 61, 0
4, 50400, Note_on_c, 0, 61, 0
4, 50400, Note_on_c, 0, 59, 49
4, 50640, Note_on_c, 0, 59, 0
4, 50640, Control_c, 0, 64, 0
4, 50640, Note_on_c, 0, 58, 49
4, 50880, Note_on_c, 0, 58, 0
4, 50880, Note_on_c, 0, 56, 49
4, 51120, Note_on_c, 0, 56, 0
4, 51120, Note_on_c, 0, 63, 49
4, 52080, Note_on_c, 0, 63, 0
4, 52080, Control_c, 0, 64, 127
4, 52080, Note_on_c, 0, 61, 49
4, 52200, Note_on_c, 0, 63, 49
4, 52260, Note_on_c, 0, 63, 0
4, 52260, Note_on_c, 0, 61, 49
4, 52320, Note_on_c, 0, 61, 0
4, 52320, Note_on_c, 0, 61, 0
4, 52320, Note_on_c, 0, 59, 49
4, 52560, Note_on_c, 0, 59, 0
4, 52560, Note_on_c, 0, 58, 49
4, 52800, Note_on_c, 0, 58, 0
4, 52800, Note_on_c, 0, 56, 49
4, 53040, Note_on_c, 0, 56, 0
4, 53040, Control_c, 0, 64, 0
4, 53040, Note_on_c, 0, 58, 49
4, 53280, Note_on_c, 0, 58, 0
4, 53280, Note_on_c, 0, 51, 49
4, 53280, Note_on_c, 0, 55, 49
4, 53520, Note_on_c, 0, 55, 0
4, 53520, Note_on_c, 0, 51, 0
4, 53520, Note_on_c, 0, 51, 49
4, 53520, Note_on_c, 0, 55, 49
4, 54720, Note_on_c, 0, 55, 0
4, 54720, Note_on_c, 0, 51, 0
4, 55200, Control_c, 0, 64, 127
4, 55200, Note_on_c, 0, 56, 62
4, 55440, Note_on_c, 0, 56, 0
4, 55440, Note_on_c, 0, 54, 62
4, 55560, Note_on_c, 0, 56, 62
4, 55620, Note_on_c, 0, 56, 0
4, 55620, Note_on_c, 0, 54, 62
4, 55680, Note_on_c, 0, 54, 0
4, 55680, Note_on_c, 0, 54, 0
4, 55680, Note_on_c, 0, 52, 62
4, 55920, Note_on_c, 0, 52, 0
4, 55920, Note_on_c, 0, 51, 62
4, 56160, Note_on_c, 0, 51, 0
4, 56160, Note_on_c, 0, 49, 62
4, 56400, Note_on_c, 0, 49, 0
4, 56400, Control_c, 0, 64, 0
4, 56400, Note_on_c, 0, 59, 62
4, 56640, Note_on_c, 0, 59, 0
4, 56640, Control_c, 0, 64, 127
4, 56640, Note_on_c, 0, 58, 62
4, 56880, Note_on_c, 0, 58, 0
4, 56880, Note_on_c, 0, 63, 62
4, 57120, Note_on_c, 0, 63, 0
4, 57120, Note_on_c, 0, 61, 62
4, 57360, Note_on_c, 0, 61, 0
4, 57360, Note_on_c, 0, 59, 62
4, 57480, Note_on_c, 0, 61, 62
4, 57540, Note_on_c, 0, 61, 0
4, 57540, Note_on_c, 0, 59, 62
4, 57600, Note_on_c, 0, 59, 0
4, 57600, Note_on_c, 0, 59, 0
4, 57600, Note_on_c, 0, 58, 62
4, 57840, Note_on_c, 0, 58, 0
4, 57840, Note_on_c, 0, 68, 62
4, 58080, Note_on_c, 0, 68, 0
4, 58080, Note_on_c, 0, 66, 62
4, 58320, Note_on_c, 0, 66, 0
4, 58320, Control_c, 0, 64, 0
4, 58320, Note_on_c, 0, 67, 62
4, 58560, Note_on_c, 0, 67, 0
4, 58560, Note_on_c, 0, 52, 62
4, 58560, Note_on_c, 0, 56, 62
4, 58560, Note_on_c, 0, 61, 62
4, 60000, Note_on_c, 0, 61, 0
4, 60000, Note_on_c, 0, 56, 0
4, 60000, Note_on_c, 0, 52, 0
4, 60000, Note_on_c, 0, 52, 62
4, 60000, Note_on_c, 0, 56, 62
4, 60047, Note_on_c, 0, 56, 0
4, 60047, Note_on_c, 0, 52, 0
4, 60240, Note_on_c, 0, 52, 62
4, 60240, Note_on_c, 0, 56, 62
4, 60287, Note_on_c, 0, 56, 0
4, 60287, Note_on_c, 0, 52, 0
4, 60480, Note_on_c, 0, 51, 88
4, 60480, Note_on_c, 0, 58, 88
4, 61440, Note_on_c, 0, 58, 0
4, 61440, Note_on_c, 0, 51, 0
4, 61440, Note_on_c, 0, 52, 75
4, 61680, Note_on_c, 0, 52, 0
4, 61680, Note_on_c, 0, 51, 75
4, 61800, Note_on_c, 0, 52, 75
4, 61860, Note_on_c, 0, 52, 0
4, 61860, Note_on_c, 0, 51, 75
4, 61920, Note_on_c, 0, 51, 0
4, 61920, Note_on_c, 0, 51, 0
4, 61920, Note_on_c, 0, 49, 75
4, 62160, Note_on_c, 0, 49, 0
4, 62160, Note_on_c, 0, 47, 75
4, 62400, Note_on_c, 0, 47, 0
4, 62400, Note_on_c, 0, 57, 75
4, 62640, Note_on_c, 0, 57, 0
4, 62640, Note_on_c, 0, 56, 75
4, 62760, Note_on_c, 0, 57, 75
4, 62820, Note_on_c, 0, 57, 0
4, 62820, Note_on_c, 0, 56, 75
4, 62880, Note_on_c, 0, 56, 0
4, 62880, Note_on_c, 0, 56, 0
4, 62880, Note_on_c, 0, 54, 75
4, 63120, Note_on_c, 0, 54, 0
4, 63120, Note_on_c, 0, 52, 75
4, 63360, Note_on_c, 0, 52, 0
4, 64080, Note_on_c, 0, 56, 75
4, 64320, Note_on_c, 0, 56, 0
4, 64320, Note_on_c, 0, 61, 75
4, 64560, Note_on_c, 0, 61, 0
4, 64560, Note_on_c, 0, 59, 75
4, 64800, Note_on_c, 0, 59, 0
4, 64800, Note_on_c, 0, 58, 75
4, 65040, Note_on_c, 0, 58, 0
4, 65040, Note_on_c, 0, 60, 75
4, 65520, Note_on_c, 0, 60, 0
4, 65520, Note_on_c, 0, 61, 75
4, 65760, Note_on_c, 0, 61, 0
4, 65760, Note_on_c, 0, 63, 75
4, 66000, Note_on_c, 0, 63, 0
4, 66000, Note_on_c, 0, 46, 75
4, 66240, Note_on_c, 0, 46, 0
4, 66480, Note_on_c, 0, 59, 75
4, 66720, Note_on_c, 0, 59, 0
4, 66720, Note_on_c, 0, 58, 75
4, 66960, Note_on_c, 0, 58, 0
4, 66960, Note_on_c, 0, 56, 75
4, 67200, Note_on_c, 0, 56, 0
4, 67200, Note_on_c, 0, 55, 75
4, 67440, Note_on_c, 0, 55, 0
4, 67440, Note_on_c, 0, 47, 75
4, 67680, Note_on_c, 0, 47, 0
4, 67680, Note_on_c, 0, 46, 75
4, 67920, Note_on_c, 0, 46, 0
4, 67920, Note_on_c, 0, 44, 75
4, 68640, Note_on_c, 0, 44, 0
4, 68640, Note_on_c, 0, 43, 75
4, 69120, Note_on_c, 0, 43, 0
4, 69360, Control_c, 0, 64, 127
4, 69360, Note_on_c, 0, 44, 62
4, 69600, Note_on_c, 0, 44, 0
4, 69600, Note_on_c, 0, 52, 62
4, 69840, Note_on_c, 0, 52, 0
4, 69840, Note_on_c, 0, 58, 62
4, 70080, Note_on_c, 0, 58, 0
4, 72960, Note_on_c, 0, 51, 49
4, 74880, Note_on_c, 0, 51, 0
4, 76320, Control_c, 0, 64, 0
4, 76320, End_track
5, 0, Start_track
5, 0, Title_t, "Grand Piano"
5, 0, Program_c, 0, 0
5, 0, Control_c, 0, 7, 115
5, 0, Control_c, 0, 10, 47
5, 0, Note_on_c, 0, 47, 49
5, 0, Note_on_c, 0, 54, 49
5, 480, Note_on_c, 0, 54, 0
5, 480, Note_on_c, 0, 47, 0
5, 1440, Note_on_c, 0, 52, 49
5, 1440, Note_on_c, 0, 56, 49
5, 1920, Note_on_c, 0, 56, 0
5, 1920, Note_on_c, 0, 52, 0
5, 1920, Note_on_c, 0, 47, 49
5, 1920, Note_on_c, 0, 54, 49
5, 2400, Note_on_c, 0, 54, 0
5, 2400, Note_on_c, 0, 47, 0
5, 2880, Note_on_c, 0, 52, 49
5, 2880, Note_on_c, 0, 56, 49
5, 4080, Note_on_c, 0, 56, 0
5, 4080, Note_on_c, 0, 52, 0
5, 6720, Note_on_c, 0, 47, 49
5, 6720, Note_on_c, 0, 54, 49
5, 7200, Note_on_c, 0, 54, 0
5, 7200, Note_on_c, 0, 47, 0
5, 8160, Note_on_c, 0, 52, 49
5, 8160, Note_on_c, 0, 56, 49
5, 8640, Note_on_c, 0, 56, 0
5, 8640, Note_on_c, 0, 52, 0
5, 8640, Note_on_c, 0, 47, 49
5, 8640, Note_on_c, 0, 54, 49
5, 9120, Note_on_c, 0, 54, 0
5, 9120, Note_on_c, 0, 47, 0
5, 9600, Note_on_c, 0, 52, 49
5, 9600, Note_on_c, 0, 56, 49
5, 10800, Note_on_c, 0, 56, 0
5, 10800, Note_on_c, 0, 52, 0
5, 13440, Note_on_c, 0, 47, 75
5, 13440, Note_on_c, 0, 51, 75
5, 14400, Note_on_c, 0, 51, 0
5, 14400, Note_on_c, 0, 47, 0
5, 14400, Note_on_c, 0, 49, 75
5, 14640, Note_on_c, 0, 49, 0
5, 15360, Note_on_c, 0, 54, 75
5, 16320, Note_on_c, 0, 54, 0
5, 16320, Note_on_c, 0, 58, 75
5, 16800, Note_on_c, 0, 58, 0
5, 16800, Note_on_c, 0, 59, 75
5, 17280, Note_on_c, 0, 59, 0
5, 20160, Note_on_c, 0, 39, 62
5, 20160, Note_on_c, 0, 46, 62
5, 20640, Note_on_c, 0, 46, 0
5, 20640, Note_on_c, 0, 39, 0
5, 22080, Note_on_c, 0, 50, 62
5, 22560, Note_on_c, 0, 50, 0
5, 22560, Note_on_c, 0, 51, 62
5, 24000, Note_on_c, 0, 51, 0
5, 24000, Note_on_c, 0, 39, 62
5, 24000, Note_on_c, 0, 46, 62
5, 24480, Note_on_c, 0, 46, 0
5, 24480, Note_on_c, 0, 39, 0
5, 25920, Note_on_c, 0, 50, 62
5, 26400, Note_on_c, 0, 50, 0
5, 26400, Note_on_c, 0, 51, 62
5, 27840, Note_on_c, 0, 51, 0
5, 29760, Note_on_c, 0, 61, 62
5, 29760, Note_on_c, 0, 66, 62
5, 30720, Note_on_c, 0, 66, 0
5, 30720, Note_on_c, 0, 61, 0
5, 30720, Note_on_c, 0, 57, 62
5, 30720, Note_on_c, 0, 61, 62
5, 31680, Note_on_c, 0, 61, 0
5, 31680, Note_on_c, 0, 57, 0
5, 33600, Note_on_c, 0, 65, 62
5, 33600, Note_on_c, 0, 70, 62
5, 34560, Note_on_c, 0, 70, 0
5, 34560, Note_on_c, 0, 65, 0
5, 34560, Note_on_c, 0, 61, 62
5, 34560, Note_on_c, 0, 65, 62
5, 35520, Note_on_c, 0, 65, 0
5, 35520, Note_on_c, 0, 61, 0
5, 35520, Note_on_c, 0, 58, 88
5, 35520, Note_on_c, 0, 61, 88
5, 36480, Note_on_c, 0, 61, 0
5, 36480, Note_on_c, 0, 58, 0
5, 36480, Note_on_c, 0, 54, 88
5, 36480, Note_on_c, 0, 58, 88
5, 37440, Note_on_c, 0, 58, 0
5, 37440, Note_on_c, 0, 54, 0
5, 37440, Note_on_c, 0, 51, 62
5, 37440, Note_on_c, 0, 55, 62
5, 38400, Note_on_c, 0, 55, 0
5, 38400, Note_on_c, 0, 51, 0
5, 39360, Note_on_c, 0, 52, 62
5, 39360, Note_on_c, 0, 56, 62
5, 40260, Note_on_c, 0, 47, 62
5, 40320, Note_on_c, 0, 56, 0
5, 40320, Note_on_c, 0, 52, 0
5, 40320, Note_on_c, 0, 54, 62
5, 41280, Note_on_c, 0, 54, 0
5, 41280, Note_on_c, 0, 47, 0
5, 41280, Note_on_c, 0, 52, 62
5, 41280, Note_on_c, 0, 56, 62
5, 42180, Note_on_c, 0, 47, 62
5, 42240, Note_on_c, 0, 56, 0
5, 42240, Note_on_c, 0, 52, 0
5, 42240, Note_on_c, 0, 54, 62
5, 43200, Note_on_c, 0, 54, 0
5, 43200, Note_on_c, 0, 47, 0
5, 45120, Note_on_c, 0, 51, 62
5, 48000, Note_on_c, 0, 51, 0
5, 48000, Note_on_c, 0, 47, 49
5, 48000, Note_on_c, 0, 54, 49
5, 48480, Note_on_c, 0, 54, 0
5, 48480, Note_on_c, 0, 47, 0
5, 49440, Note_on_c, 0, 52, 49
5, 49440, Note_on_c, 0, 56, 49
5, 49920, Note_on_c, 0, 56, 0
5, 49920, Note_on_c, 0, 52, 0
5, 49920, Note_on_c, 0, 47, 49
5, 49920, Note_on_c, 0, 54, 49
5, 50400, Note_on_c, 0, 54, 0
5, 50400, Note_on_c, 0, 47, 0
5, 50880, Note_on_c, 0, 52, 49
5, 50880, Note_on_c, 0, 56, 49
5, 52080, Note_on_c, 0, 56, 0
5, 52080, Note_on_c, 0, 52, 0
5, 54720, Note_on_c, 0, 47, 75
5, 54720, Note_on_c, 0, 51, 75
5, 55680, Note_on_c, 0, 51, 0
5, 55680, Note_on_c, 0, 47, 0
5, 55680, Note_on_c, 0, 49, 75
5, 55920, Note_on_c, 0, 49, 0
5, 56640, Note_on_c, 0, 54, 75
5, 57600, Note_on_c, 0, 54, 0
5, 57600, Note_on_c, 0, 58, 75
5, 58080, Note_on_c, 0, 58, 0
5, 58080, Note_on_c, 0, 59, 75
5, 58560, Note_on_c, 0, 59, 0
5, 61680, Note_on_c, 0, 46, 62
5, 61920, Note_on_c, 0, 46, 0
5, 61920, Note_on_c, 0, 44, 62
5, 62400, Note_on_c, 0, 44, 0
5, 62640, Note_on_c, 0, 51, 62
5, 62880, Note_on_c, 0, 51, 0
5, 62880, Note_on_c, 0, 49, 62
5, 63360, Note_on_c, 0, 49, 0
5, 64560, Note_on_c, 0, 51, 62
5, 64800, Note_on_c, 0, 51, 0
5, 64800, Note_on_c, 0, 56, 62
5, 65040, Note_on_c, 0, 56, 0
5, 65040, Note_on_c, 0, 54, 62
5, 65280, Note_on_c, 0, 54, 0
5, 65280, Note_on_c, 0, 52, 62
5, 66000, Note_on_c, 0, 52, 0
5, 66240, Note_on_c, 0, 51, 62
5, 67200, Note_on_c, 0, 51, 0
5, 68160, Note_on_c, 0, 39, 62
5, 69120, Note_on_c, 0, 39, 0
5, 69120, End_track
0, 0, End_of_file
