0, 0, Header, 1, 5, 480
1, 0, Start_track
1, 0, Title_t, "tchaikovsky six pieces on one theme op21 no4 marche funebre"
1, 0, Copyright_t, "Adaptation for Disklavier pianos, by: Robert C. Kuhmann (c) 2012."
1, 0, Text_t, "Seq. (c) by: Segundo G. Yogore,  2007\012"
1, 0, Time_signature, 4, 2, 24, 8
1, 0, Key_signature, -7, "major"
1, 0, Tempo, 666667
1, 53760, Key_signature, 5, "major"
1, 71040, Time_signature, 2, 2, 24, 8
1, 72960, Time_signature, 4, 2, 24, 8
1, 88320, Time_signature, 5, 2, 24, 8
1, 90720, Time_signature, 4, 2, 24, 8
1, 109920, Key_signature, -7, "major"
1, 109920, Tempo, 666667
1, 175200, Time_signature, 6, 2, 24, 8
1, 175200, End_track
2, 0, Start_track
2, 0, Title_t, "Grand Piano"
2, 0, Program_c, 0, 0
2, 0, Control_c, 0, 7, 115
2, 0, Control_c, 0, 10, 86
2, 0, Note_on_c, 0, 63, 62
2, 480, Note_on_c, 0, 63, 0
2, 480, Note_on_c, 0, 64, 62
2, 560, Note_on_c, 0, 64, 0
2, 560, Note_on_c, 0, 63, 62
2, 639, Note_on_c, 0, 63, 0
2, 639, Note_on_c, 0, 62, 62
2, 720, Note_on_c, 0, 62, 0
2, 720, Note_on_c, 0, 63, 62
2, 960, Note_on_c, 0, 63, 0
2, 960, Note_on_c, 0, 68, 62
2, 1200, Note_on_c, 0, 68, 0
2, 1200, Note_on_c, 0, 63, 62
2, 1920, Note_on_c, 0, 63, 0
2, 1920, Note_on_c, 0, 62, 62
2, 2400, Note_on_c, 0, 62, 0
2, 2400, Note_on_c, 0, 63, 62
2, 2480, Note_on_c, 0, 63, 0
2, 2480, Note_on_c, 0, 62, 62
2, 2559, Note_on_c, 0, 62, 0
2, 2559, Note_on_c, 0, 63, 62
2, 2640, Note_on_c, 0, 63, 0
2, 2640, Note_on_c, 0, 61, 62
2, 2880, Note_on_c, 0, 61, 0
2, 2880, Note_on_c, 0, 59, 62
2, 3120, Note_on_c, 0, 59, 0
2, 3120, Note_on_c, 0, 58, 62
2, 3840, Note_on_c, 0, 58, 0
2, 3840, Note_on_c, 0, 56, 62
2, 4320, Note_on_c, 0, 56, 0
2, 4320, Note_on_c, 0, 58, 62
2, 4400, Note_on_c, 0, 58, 0
2, 4400, Note_on_c, 0, 56, 62
2, 4479, Note_on_c, 0, 56, 0
2, 4479, Note_on_c, 0, 58, 62
2, 4560, Note_on_c, 0, 58, 0
2, 4560, Note_on_c, 0, 59, 62
2, 4800, Note_on_c, 0, 59, 0
2, 4800, Note_on_c, 0, 61, 75
2, 5040, Note_on_c, 0, 61, 0
2, 5040, Note_on_c, 0, 63, 75
2, 5760, Note_on_c, 0, 63, 0
2, 5760, Note_on_c, 0, 65, 75
2, 6240, Note_on_c, 0, 65, 0
2, 6240, Note_on_c, 0, 67, 75
2, 6320, Note_on_c, 0, 67, 0
2, 6320, Note_on_c, 0, 65, 75
2, 6399, Note_on_c, 0, 65, 0
2, 6399, Note_on_c, 0, 67, 75
2, 6480, Note_on_c, 0, 67, 0
2, 6480, Note_on_c, 0, 68, 75
2, 6720, Note_on_c, 0, 68, 0
2, 6720, Note_on_c, 0, 71, 75
2, 6960, Note_on_c, 0, 71, 0
2, 6960, Note_on_c, 0, 70, 75
2, 7680, Note_on_c, 0, 70, 0
2, 7680, Note_on_c, 0, 75, 114
2, 8160, Note_on_c, 0, 75, 0
2, 8160, Note_on_c, 0, 74, 88
2, 8240, Note_on_c, 0, 74, 0
2, 8240, Note_on_c, 0, 75, 88
2, 8319, Note_on_c, 0, 75, 0
2, 8319, Note_on_c, 0, 74, 88
2, 8400, Note_on_c, 0, 74, 0
2, 8400, Note_on_c, 0, 73, 88
2, 8640, Note_on_c, 0, 73, 0
2, 8640, Note_on_c, 0, 71, 88
2, 8880, Note_on_c, 0, 71, 0
2, 8880, Note_on_c, 0, 70, 88
2, 9600, Note_on_c, 0, 70, 0
2, 9600, Note_on_c, 0, 75, 114
2, 10080, Note_on_c, 0, 75, 0
2, 10080, Note_on_c, 0, 74, 88
2, 10160, Note_on_c, 0, 74, 0
2, 10160, Note_on_c, 0, 75, 88
2, 10239, Note_on_c, 0, 75, 0
2, 10239, Note_on_c, 0, 74, 88
2, 10320, Note_on_c, 0, 74, 0
2, 10320, Note_on_c, 0, 73, 88
2, 10560, Note_on_c, 0, 73, 0
2, 10560, Note_on_c, 0, 71, 88
2, 10800, Note_on_c, 0, 71, 0
2, 10800, Note_on_c, 0, 70, 88
2, 11520, Note_on_c, 0, 70, 0
2, 11520, Note_on_c, 0, 68, 75
2, 12000, Note_on_c, 0, 68, 0
2, 12000, Note_on_c, 0, 67, 75
2, 12080, Note_on_c, 0, 67, 0
2, 12080, Note_on_c, 0, 68, 75
2, 12159, Note_on_c, 0, 68, 0
2, 12159, Note_on_c, 0, 67, 75
2, 12240, Note_on_c, 0, 67, 0
2, 12240, Note_on_c, 0, 66, 75
2, 12480, Note_on_c, 0, 66, 0
2, 12480, Note_on_c, 0, 64, 75
2, 12720, Note_on_c, 0, 64, 0
2, 12720, Note_on_c, 0, 63, 75
2, 13440, Note_on_c, 0, 63, 0
2, 13440, Note_on_c, 0, 68, 62
2, 13920, Note_on_c, 0, 68, 0
2, 13920, Note_on_c, 0, 67, 62
2, 14000, Note_on_c, 0, 67, 0
2, 14000, Note_on_c, 0, 68, 62
2, 14079, Note_on_c, 0, 68, 0
2, 14079, Note_on_c, 0, 67, 62
2, 14160, Note_on_c, 0, 67, 0
2, 14160, Note_on_c, 0, 66, 62
2, 14400, Note_on_c, 0, 66, 0
2, 14400, Note_on_c, 0, 64, 62
2, 14640, Note_on_c, 0, 64, 0
2, 14640, Note_on_c, 0, 63, 62
2, 15840, Note_on_c, 0, 63, 0
2, 15840, Note_on_c, 0, 64, 49
2, 15920, Note_on_c, 0, 64, 0
2, 15920, Note_on_c, 0, 63, 49
2, 15999, Note_on_c, 0, 63, 0
2, 15999, Note_on_c, 0, 62, 49
2, 16080, Note_on_c, 0, 62, 0
2, 16080, Note_on_c, 0, 63, 49
2, 16320, Note_on_c, 0, 63, 0
2, 16320, Note_on_c, 0, 62, 49
2, 16560, Note_on_c, 0, 62, 0
2, 16560, Note_on_c, 0, 63, 49
2, 17760, Note_on_c, 0, 63, 0
2, 17760, Note_on_c, 0, 64, 49
2, 17840, Note_on_c, 0, 64, 0
2, 17840, Note_on_c, 0, 63, 49
2, 17919, Note_on_c, 0, 63, 0
2, 17919, Note_on_c, 0, 62, 49
2, 18000, Note_on_c, 0, 62, 0
2, 18000, Note_on_c, 0, 63, 49
2, 18240, Note_on_c, 0, 63, 0
2, 18240, Note_on_c, 0, 62, 49
2, 18480, Note_on_c, 0, 62, 0
2, 18480, Note_on_c, 0, 63, 49
2, 19200, Note_on_c, 0, 63, 0
2, 19200, Note_on_c, 0, 63, 62
2, 19680, Note_on_c, 0, 63, 0
2, 19680, Note_on_c, 0, 65, 62
2, 19760, Note_on_c, 0, 65, 0
2, 19760, Note_on_c, 0, 63, 62
2, 19839, Note_on_c, 0, 63, 0
2, 19839, Note_on_c, 0, 65, 62
2, 19920, Note_on_c, 0, 65, 0
2, 19920, Note_on_c, 0, 66, 62
2, 20160, Note_on_c, 0, 66, 0
2, 20160, Note_on_c, 0, 68, 62
2, 20400, Note_on_c, 0, 68, 0
2, 20400, Note_on_c, 0, 63, 62
2, 21120, Note_on_c, 0, 63, 0
2, 21120, Note_on_c, 0, 66, 75
2, 21600, Note_on_c, 0, 66, 0
2, 21600, Note_on_c, 0, 68, 75
2, 21680, Note_on_c, 0, 68, 0
2, 21680, Note_on_c, 0, 66, 75
2, 21759, Note_on_c, 0, 66, 0
2, 21759, Note_on_c, 0, 68, 75
2, 21840, Note_on_c, 0, 68, 0
2, 21840, Note_on_c, 0, 70, 75
2, 22080, Note_on_c, 0, 70, 0
2, 22080, Note_on_c, 0, 71, 75
2, 22320, Note_on_c, 0, 71, 0
2, 22320, Note_on_c, 0, 66, 75
2, 23040, Note_on_c, 0, 66, 0
2, 23040, Note_on_c, 0, 75, 75
2, 23520, Note_on_c, 0, 75, 0
2, 23520, Note_on_c, 0, 74, 75
2, 23600, Note_on_c, 0, 74, 0
2, 23600, Note_on_c, 0, 75, 75
2, 23679, Note_on_c, 0, 75, 0
2, 23679, Note_on_c, 0, 74, 75
2, 23760, Note_on_c, 0, 74, 0
2, 23760, Note_on_c, 0, 75, 75
2, 24000, Note_on_c, 0, 75, 0
2, 24000, Note_on_c, 0, 71, 75
2, 24480, Note_on_c, 0, 71, 0
2, 24480, Note_on_c, 0, 63, 75
2, 24480, Note_on_c, 0, 68, 75
2, 24960, Note_on_c, 0, 68, 0
2, 24960, Note_on_c, 0, 63, 0
2, 24960, Control_c, 0, 64, 127
2, 24960, Note_on_c, 0, 58, 62
2, 24960, Note_on_c, 0, 70, 62
2, 25440, Note_on_c, 0, 70, 0
2, 25440, Note_on_c, 0, 58, 0
2, 25440, Note_on_c, 0, 59, 62
2, 25440, Note_on_c, 0, 71, 62
2, 25680, Note_on_c, 0, 71, 0
2, 25680, Note_on_c, 0, 59, 0
2, 25680, Note_on_c, 0, 58, 62
2, 25680, Note_on_c, 0, 70, 62
2, 25920, Note_on_c, 0, 70, 0
2, 25920, Note_on_c, 0, 58, 0
2, 25920, Note_on_c, 0, 56, 62
2, 25920, Note_on_c, 0, 68, 62
2, 26400, Note_on_c, 0, 68, 0
2, 26400, Note_on_c, 0, 56, 0
2, 26400, Control_c, 0, 64, 0
2, 26400, Note_on_c, 0, 54, 62
2, 26400, Note_on_c, 0, 66, 62
2, 26880, Note_on_c, 0, 66, 0
2, 26880, Note_on_c, 0, 54, 0
2, 26880, Note_on_c, 0, 63, 62
2, 27360, Note_on_c, 0, 63, 0
2, 27360, Note_on_c, 0, 65, 62
2, 27440, Note_on_c, 0, 65, 0
2, 27440, Note_on_c, 0, 63, 62
2, 27519, Note_on_c, 0, 63, 0
2, 27519, Note_on_c, 0, 65, 62
2, 27600, Note_on_c, 0, 65, 0
2, 27600, Note_on_c, 0, 66, 62
2, 27840, Note_on_c, 0, 66, 0
2, 27840, Note_on_c, 0, 68, 75
2, 28080, Note_on_c, 0, 68, 0
2, 28080, Note_on_c, 0, 63, 75
2, 28800, Note_on_c, 0, 63, 0
2, 28800, Note_on_c, 0, 66, 75
2, 29280, Note_on_c, 0, 66, 0
2, 29280, Note_on_c, 0, 68, 75
2, 29360, Note_on_c, 0, 68, 0
2, 29360, Note_on_c, 0, 66, 75
2, 29439, Note_on_c, 0, 66, 0
2, 29439, Note_on_c, 0, 68, 75
2, 29520, Note_on_c, 0, 68, 0
2, 29520, Note_on_c, 0, 70, 75
2, 29760, Note_on_c, 0, 70, 0
2, 29760, Note_on_c, 0, 71, 75
2, 30000, Note_on_c, 0, 71, 0
2, 30000, Note_on_c, 0, 66, 75
2, 30720, Note_on_c, 0, 66, 0
2, 30720, Note_on_c, 0, 75, 75
2, 31200, Note_on_c, 0, 75, 0
2, 31200, Note_on_c, 0, 74, 75
2, 31280, Note_on_c, 0, 74, 0
2, 31280, Note_on_c, 0, 75, 75
2, 31359, Note_on_c, 0, 75, 0
2, 31359, Note_on_c, 0, 74, 75
2, 31440, Note_on_c, 0, 74, 0
2, 31440, Note_on_c, 0, 75, 75
2, 31680, Note_on_c, 0, 75, 0
2, 31680, Note_on_c, 0, 80, 75
2, 32160, Note_on_c, 0, 80, 0
2, 32160, Note_on_c, 0, 63, 75
2, 32160, Note_on_c, 0, 68, 75
2, 32640, Note_on_c, 0, 68, 0
2, 32640, Note_on_c, 0, 63, 0
2, 32640, Control_c, 0, 64, 127
2, 32640, Note_on_c, 0, 59, 62
2, 32640, Note_on_c, 0, 71, 62
2, 33120, Note_on_c, 0, 71, 0
2, 33120, Note_on_c, 0, 59, 0
2, 33120, Note_on_c, 0, 61, 62
2, 33120, Note_on_c, 0, 73, 62
2, 33360, Note_on_c, 0, 73, 0
2, 33360, Note_on_c, 0, 61, 0
2, 33360, Note_on_c, 0, 62, 62
2, 33360, Note_on_c, 0, 74, 62
2, 33600, Note_on_c, 0, 74, 0
2, 33600, Note_on_c, 0, 62, 0
2, 33600, Control_c, 0, 64, 0
2, 33600, Note_on_c, 0, 63, 62
2, 33600, Note_on_c, 0, 66, 62
2, 33600, Note_on_c, 0, 75, 62
2, 34080, Note_on_c, 0, 75, 0
2, 34080, Note_on_c, 0, 66, 0
2, 34080, Note_on_c, 0, 63, 0
2, 34080, Note_on_c, 0, 55, 62
2, 34080, Note_on_c, 0, 61, 62
2, 34080, Note_on_c, 0, 63, 62
2, 34080, Note_on_c, 0, 67, 62
2, 34560, Note_on_c, 0, 67, 0
2, 34560, Note_on_c, 0, 55, 0
2, 34560, Note_on_c, 0, 61, 0
2, 34560, Note_on_c, 0, 63, 0
2, 34800, Note_on_c, 0, 71, 49
2, 34800, Note_on_c, 0, 75, 49
2, 35040, Note_on_c, 0, 75, 0
2, 35040, Note_on_c, 0, 71, 0
2, 35280, Note_on_c, 0, 63, 49
2, 35280, Note_on_c, 0, 71, 49
2, 35520, Note_on_c, 0, 71, 0
2, 35520, Note_on_c, 0, 63, 0
2, 35760, Note_on_c, 0, 67, 49
2, 35880, Note_on_c, 0, 67, 0
2, 35880, Note_on_c, 0, 68, 49
2, 36000, Note_on_c, 0, 68, 0
2, 36240, Note_on_c, 0, 66, 49
2, 36360, Note_on_c, 0, 66, 0
2, 36360, Note_on_c, 0, 67, 49
2, 36480, Note_on_c, 0, 67, 0
2, 36720, Note_on_c, 0, 64, 49
2, 36840, Note_on_c, 0, 64, 0
2, 36840, Note_on_c, 0, 65, 49
2, 36960, Note_on_c, 0, 65, 0
2, 37200, Note_on_c, 0, 66, 49
2, 37320, Note_on_c, 0, 66, 0
2, 37320, Note_on_c, 0, 67, 49
2, 37440, Note_on_c, 0, 67, 0
2, 37680, Note_on_c, 0, 67, 49
2, 37800, Note_on_c, 0, 67, 0
2, 37800, Note_on_c, 0, 68, 49
2, 37920, Note_on_c, 0, 68, 0
2, 38160, Note_on_c, 0, 68, 49
2, 38280, Note_on_c, 0, 68, 0
2, 38280, Note_on_c, 0, 67, 49
2, 38400, Note_on_c, 0, 67, 0
2, 38640, Note_on_c, 0, 63, 49
2, 38640, Note_on_c, 0, 68, 49
2, 38880, Note_on_c, 0, 68, 0
2, 38880, Note_on_c, 0, 63, 0
2, 39120, Note_on_c, 0, 63, 49
2, 39360, Note_on_c, 0, 63, 0
2, 39600, Note_on_c, 0, 63, 49
2, 39600, Note_on_c, 0, 71, 49
2, 39840, Note_on_c, 0, 71, 0
2, 39840, Note_on_c, 0, 63, 0
2, 40080, Note_on_c, 0, 70, 49
2, 40080, Note_on_c, 0, 75, 49
2, 40320, Note_on_c, 0, 75, 0
2, 40320, Note_on_c, 0, 70, 0
2, 40560, Note_on_c, 0, 68, 49
2, 40560, Note_on_c, 0, 75, 49
2, 40800, Note_on_c, 0, 75, 0
2, 40800, Note_on_c, 0, 68, 0
2, 41040, Note_on_c, 0, 63, 49
2, 41040, Note_on_c, 0, 71, 49
2, 41280, Note_on_c, 0, 71, 0
2, 41280, Note_on_c, 0, 63, 0
2, 41520, Note_on_c, 0, 61, 49
2, 41520, Note_on_c, 0, 63, 49
2, 41760, Note_on_c, 0, 63, 0
2, 41760, Note_on_c, 0, 61, 0
2, 42000, Note_on_c, 0, 67, 49
2, 42000, Note_on_c, 0, 73, 49
2, 42240, Note_on_c, 0, 73, 0
2, 42240, Note_on_c, 0, 67, 0
2, 42480, Note_on_c, 0, 70, 62
2, 42600, Note_on_c, 0, 70, 0
2, 42600, Note_on_c, 0, 71, 62
2, 42720, Note_on_c, 0, 71, 0
2, 42960, Note_on_c, 0, 67, 62
2, 43080, Note_on_c, 0, 67, 0
2, 43080, Note_on_c, 0, 68, 62
2, 43200, Note_on_c, 0, 68, 0
2, 43440, Note_on_c, 0, 74, 62
2, 43560, Note_on_c, 0, 74, 0
2, 43560, Note_on_c, 0, 75, 62
2, 43680, Note_on_c, 0, 75, 0
2, 43920, Note_on_c, 0, 66, 62
2, 44040, Note_on_c, 0, 66, 0
2, 44040, Note_on_c, 0, 67, 62
2, 44160, Note_on_c, 0, 67, 0
2, 44400, Note_on_c, 0, 70, 62
2, 44520, Note_on_c, 0, 70, 0
2, 44520, Note_on_c, 0, 71, 62
2, 44640, Note_on_c, 0, 71, 0
2, 44880, Note_on_c, 0, 67, 62
2, 45000, Note_on_c, 0, 67, 0
2, 45000, Note_on_c, 0, 68, 62
2, 45120, Note_on_c, 0, 68, 0
2, 45360, Note_on_c, 0, 74, 62
2, 45480, Note_on_c, 0, 74, 0
2, 45480, Note_on_c, 0, 75, 62
2, 45600, Note_on_c, 0, 75, 0
2, 45840, Note_on_c, 0, 66, 62
2, 45960, Note_on_c, 0, 66, 0
2, 45960, Note_on_c, 0, 67, 62
2, 46080, Note_on_c, 0, 67, 0
2, 46320, Note_on_c, 0, 62, 49
2, 46440, Note_on_c, 0, 62, 0
2, 46440, Note_on_c, 0, 63, 49
2, 46560, Note_on_c, 0, 63, 0
2, 46800, Note_on_c, 0, 70, 49
2, 46920, Note_on_c, 0, 70, 0
2, 46920, Note_on_c, 0, 71, 49
2, 47040, Note_on_c, 0, 71, 0
2, 47280, Note_on_c, 0, 67, 49
2, 47400, Note_on_c, 0, 67, 0
2, 47400, Note_on_c, 0, 68, 49
2, 47520, Note_on_c, 0, 68, 0
2, 47760, Note_on_c, 0, 62, 49
2, 47880, Note_on_c, 0, 62, 0
2, 47880, Note_on_c, 0, 63, 49
2, 48000, Note_on_c, 0, 63, 0
2, 48240, Note_on_c, 0, 62, 49
2, 48360, Note_on_c, 0, 62, 0
2, 48360, Note_on_c, 0, 63, 49
2, 48480, Note_on_c, 0, 63, 0
2, 48720, Note_on_c, 0, 70, 49
2, 48840, Note_on_c, 0, 70, 0
2, 48840, Note_on_c, 0, 71, 49
2, 48960, Note_on_c, 0, 71, 0
2, 49200, Note_on_c, 0, 67, 49
2, 49320, Note_on_c, 0, 67, 0
2, 49320, Note_on_c, 0, 68, 49
2, 49440, Note_on_c, 0, 68, 0
2, 49680, Note_on_c, 0, 62, 49
2, 49800, Note_on_c, 0, 62, 0
2, 49800, Note_on_c, 0, 63, 49
2, 49920, Note_on_c, 0, 63, 0
2, 50160, Note_on_c, 0, 62, 49
2, 50280, Note_on_c, 0, 62, 0
2, 50280, Note_on_c, 0, 63, 49
2, 50400, Note_on_c, 0, 63, 0
2, 50640, Note_on_c, 0, 62, 49
2, 50760, Note_on_c, 0, 62, 0
2, 50760, Note_on_c, 0, 63, 49
2, 50880, Note_on_c, 0, 63, 0
2, 51120, Note_on_c, 0, 62, 49
2, 51240, Note_on_c, 0, 62, 0
2, 51240, Note_on_c, 0, 63, 49
2, 51360, Note_on_c, 0, 63, 0
2, 51600, Note_on_c, 0, 62, 49
2, 51720, Note_on_c, 0, 62, 0
2, 51720, Note_on_c, 0, 63, 49
2, 51840, Note_on_c, 0, 63, 0
2, 52080, Note_on_c, 0, 62, 49
2, 52200, Note_on_c, 0, 62, 0
2, 52200, Note_on_c, 0, 63, 49
2, 52320, Note_on_c, 0, 63, 0
2, 53760, Note_on_c, 0, 85, 49
2, 53760, Note_on_c, 0, 88, 49
2, 53760, Note_on_c, 0, 92, 49
2, 53880, Note_on_c, 0, 92, 0
2, 53880, Note_on_c, 0, 88, 0
2, 53880, Note_on_c, 0, 85, 0
2, 53880, Note_on_c, 0, 78, 49
2, 54000, Note_on_c, 0, 78, 0
2, 54000, Note_on_c, 0, 78, 49
2, 54060, Note_on_c, 0, 78, 0
2, 54060, Note_on_c, 0, 80, 49
2, 54120, Note_on_c, 0, 80, 0
2, 54120, Note_on_c, 0, 78, 49
2, 54143, Note_on_c, 0, 78, 0
2, 54240, Note_on_c, 0, 80, 49
2, 54240, Note_on_c, 0, 85, 49
2, 54240, Note_on_c, 0, 88, 49
2, 54360, Note_on_c, 0, 88, 0
2, 54360, Note_on_c, 0, 85, 0
2, 54360, Note_on_c, 0, 80, 0
2, 54360, Note_on_c, 0, 73, 49
2, 54480, Note_on_c, 0, 73, 0
2, 54480, Note_on_c, 0, 73, 49
2, 54540, Note_on_c, 0, 73, 0
2, 54540, Note_on_c, 0, 75, 49
2, 54600, Note_on_c, 0, 75, 0
2, 54600, Note_on_c, 0, 73, 49
2, 54623, Note_on_c, 0, 73, 0
2, 54720, Note_on_c, 0, 78, 49
2, 54720, Note_on_c, 0, 83, 49
2, 54720, Note_on_c, 0, 87, 49
2, 54840, Note_on_c, 0, 87, 0
2, 54840, Note_on_c, 0, 83, 0
2, 54840, Note_on_c, 0, 78, 0
2, 54840, Note_on_c, 0, 75, 49
2, 54960, Note_on_c, 0, 75, 0
2, 54960, Note_on_c, 0, 75, 49
2, 55020, Note_on_c, 0, 75, 0
2, 55020, Note_on_c, 0, 76, 49
2, 55080, Note_on_c, 0, 76, 0
2, 55080, Note_on_c, 0, 75, 49
2, 55103, Note_on_c, 0, 75, 0
2, 55200, Note_on_c, 0, 75, 49
2, 55200, Note_on_c, 0, 80, 49
2, 55200, Note_on_c, 0, 83, 49
2, 55320, Note_on_c, 0, 83, 0
2, 55320, Note_on_c, 0, 80, 0
2, 55320, Note_on_c, 0, 75, 0
2, 55320, Note_on_c, 0, 71, 49
2, 55440, Note_on_c, 0, 71, 0
2, 55440, Note_on_c, 0, 71, 49
2, 55500, Note_on_c, 0, 71, 0
2, 55500, Note_on_c, 0, 73, 49
2, 55560, Note_on_c, 0, 73, 0
2, 55560, Note_on_c, 0, 71, 49
2, 55583, Note_on_c, 0, 71, 0
2, 55680, Note_on_c, 0, 70, 49
2, 55680, Note_on_c, 0, 73, 49
2, 55800, Note_on_c, 0, 73, 0
2, 55800, Note_on_c, 0, 70, 0
2, 55920, Note_on_c, 0, 73, 49
2, 55920, Note_on_c, 0, 78, 49
2, 56040, Note_on_c, 0, 78, 0
2, 56040, Note_on_c, 0, 73, 0
2, 56160, Note_on_c, 0, 78, 49
2, 56160, Note_on_c, 0, 82, 49
2, 56280, Note_on_c, 0, 82, 0
2, 56280, Note_on_c, 0, 78, 0
2, 56400, Note_on_c, 0, 82, 49
2, 56400, Note_on_c, 0, 85, 49
2, 56520, Note_on_c, 0, 85, 0
2, 56520, Note_on_c, 0, 82, 0
2, 56640, Note_on_c, 0, 83, 49
2, 56640, Note_on_c, 0, 86, 49
2, 56760, Note_on_c, 0, 86, 0
2, 56760, Note_on_c, 0, 83, 0
2, 56880, Note_on_c, 0, 83, 49
2, 56880, Note_on_c, 0, 87, 49
2, 57000, Note_on_c, 0, 87, 0
2, 57000, Note_on_c, 0, 83, 0
2, 57120, Note_on_c, 0, 87, 49
2, 57120, Note_on_c, 0, 90, 49
2, 57240, Note_on_c, 0, 90, 0
2, 57240, Note_on_c, 0, 87, 0
2, 57360, Note_on_c, 0, 90, 49
2, 57360, Note_on_c, 0, 95, 49
2, 57480, Note_on_c, 0, 95, 0
2, 57480, Note_on_c, 0, 90, 0
2, 57600, Note_on_c, 0, 85, 49
2, 57600, Note_on_c, 0, 88, 49
2, 57600, Note_on_c, 0, 92, 49
2, 57720, Note_on_c, 0, 92, 0
2, 57720, Note_on_c, 0, 88, 0
2, 57720, Note_on_c, 0, 85, 0
2, 57720, Note_on_c, 0, 78, 49
2, 57840, Note_on_c, 0, 78, 0
2, 57840, Note_on_c, 0, 78, 49
2, 57900, Note_on_c, 0, 78, 0
2, 57900, Note_on_c, 0, 80, 49
2, 57960, Note_on_c, 0, 80, 0
2, 57960, Note_on_c, 0, 78, 49
2, 57983, Note_on_c, 0, 78, 0
2, 58080, Note_on_c, 0, 80, 49
2, 58080, Note_on_c, 0, 85, 49
2, 58080, Note_on_c, 0, 88, 49
2, 58200, Note_on_c, 0, 88, 0
2, 58200, Note_on_c, 0, 85, 0
2, 58200, Note_on_c, 0, 80, 0
2, 58200, Note_on_c, 0, 73, 49
2, 58320, Note_on_c, 0, 73, 0
2, 58320, Note_on_c, 0, 73, 49
2, 58380, Note_on_c, 0, 73, 0
2, 58380, Note_on_c, 0, 75, 49
2, 58440, Note_on_c, 0, 75, 0
2, 58440, Note_on_c, 0, 73, 49
2, 58463, Note_on_c, 0, 73, 0
2, 58560, Note_on_c, 0, 78, 49
2, 58560, Note_on_c, 0, 83, 49
2, 58560, Note_on_c, 0, 87, 49
2, 58680, Note_on_c, 0, 87, 0
2, 58680, Note_on_c, 0, 83, 0
2, 58680, Note_on_c, 0, 78, 0
2, 58680, Note_on_c, 0, 75, 49
2, 58800, Note_on_c, 0, 75, 0
2, 58800, Note_on_c, 0, 75, 49
2, 58860, Note_on_c, 0, 75, 0
2, 58860, Note_on_c, 0, 76, 49
2, 58920, Note_on_c, 0, 76, 0
2, 58920, Note_on_c, 0, 75, 49
2, 58943, Note_on_c, 0, 75, 0
2, 59040, Note_on_c, 0, 75, 49
2, 59040, Note_on_c, 0, 80, 49
2, 59040, Note_on_c, 0, 83, 49
2, 59160, Note_on_c, 0, 83, 0
2, 59160, Note_on_c, 0, 80, 0
2, 59160, Note_on_c, 0, 75, 0
2, 59160, Note_on_c, 0, 71, 49
2, 59280, Note_on_c, 0, 71, 0
2, 59280, Note_on_c, 0, 71, 49
2, 59340, Note_on_c, 0, 71, 0
2, 59340, Note_on_c, 0, 73, 49
2, 59400, Note_on_c, 0, 73, 0
2, 59400, Note_on_c, 0, 71, 49
2, 59423, Note_on_c, 0, 71, 0
2, 59520, Note_on_c, 0, 70, 49
2, 59520, Note_on_c, 0, 73, 49
2, 59640, Note_on_c, 0, 73, 0
2, 59640, Note_on_c, 0, 70, 0
2, 59760, Note_on_c, 0, 73, 49
2, 59760, Note_on_c, 0, 78, 49
2, 59880, Note_on_c, 0, 78, 0
2, 59880, Note_on_c, 0, 73, 0
2, 60000, Note_on_c, 0, 78, 49
2, 60000, Note_on_c, 0, 82, 49
2, 60120, Note_on_c, 0, 82, 0
2, 60120, Note_on_c, 0, 78, 0
2, 60240, Note_on_c, 0, 82, 49
2, 60240, Note_on_c, 0, 85, 49
2, 60360, Note_on_c, 0, 85, 0
2, 60360, Note_on_c, 0, 82, 0
2, 60480, Note_on_c, 0, 83, 49
2, 60480, Note_on_c, 0, 86, 49
2, 60600, Note_on_c, 0, 86, 0
2, 60600, Note_on_c, 0, 83, 0
2, 60720, Note_on_c, 0, 83, 49
2, 60720, Note_on_c, 0, 87, 49
2, 60840, Note_on_c, 0, 87, 0
2, 60840, Note_on_c, 0, 83, 0
2, 60960, Note_on_c, 0, 87, 49
2, 60960, Note_on_c, 0, 90, 49
2, 61080, Note_on_c, 0, 90, 0
2, 61080, Note_on_c, 0, 87, 0
2, 61200, Note_on_c, 0, 90, 49
2, 61200, Note_on_c, 0, 95, 49
2, 61320, Note_on_c, 0, 95, 0
2, 61320, Note_on_c, 0, 90, 0
2, 61440, Note_on_c, 0, 63, 62
2, 61440, Note_on_c, 0, 75, 62
2, 61680, Note_on_c, 0, 75, 0
2, 61680, Note_on_c, 0, 63, 0
2, 61680, Note_on_c, 0, 65, 62
2, 61680, Note_on_c, 0, 77, 62
2, 61920, Note_on_c, 0, 77, 0
2, 61920, Note_on_c, 0, 65, 0
2, 61920, Note_on_c, 0, 67, 62
2, 61920, Note_on_c, 0, 79, 62
2, 62160, Note_on_c, 0, 79, 0
2, 62160, Note_on_c, 0, 67, 0
2, 62160, Note_on_c, 0, 68, 62
2, 62160, Note_on_c, 0, 80, 62
2, 62400, Note_on_c, 0, 80, 0
2, 62400, Note_on_c, 0, 68, 0
2, 62400, Note_on_c, 0, 72, 88
2, 62400, Note_on_c, 0, 84, 88
2, 62640, Note_on_c, 0, 84, 0
2, 62640, Note_on_c, 0, 72, 0
2, 62640, Note_on_c, 0, 73, 62
2, 62640, Note_on_c, 0, 85, 62
2, 62880, Note_on_c, 0, 85, 0
2, 62880, Note_on_c, 0, 73, 0
2, 62880, Note_on_c, 0, 70, 88
2, 62880, Note_on_c, 0, 82, 88
2, 63120, Note_on_c, 0, 82, 0
2, 63120, Note_on_c, 0, 70, 0
2, 63120, Note_on_c, 0, 71, 62
2, 63120, Note_on_c, 0, 83, 62
2, 63360, Note_on_c, 0, 83, 0
2, 63360, Note_on_c, 0, 71, 0
2, 63360, Note_on_c, 0, 74, 101
2, 63360, Note_on_c, 0, 86, 101
2, 63600, Note_on_c, 0, 86, 0
2, 63600, Note_on_c, 0, 74, 0
2, 63600, Note_on_c, 0, 75, 75
2, 63600, Note_on_c, 0, 87, 75
2, 63840, Note_on_c, 0, 87, 0
2, 63840, Note_on_c, 0, 75, 0
2, 63840, Note_on_c, 0, 70, 101
2, 63840, Note_on_c, 0, 82, 101
2, 64080, Note_on_c, 0, 82, 0
2, 64080, Note_on_c, 0, 70, 0
2, 64080, Note_on_c, 0, 71, 75
2, 64080, Note_on_c, 0, 83, 75
2, 64320, Note_on_c, 0, 83, 0
2, 64320, Note_on_c, 0, 71, 0
2, 64320, Note_on_c, 0, 75, 101
2, 64320, Note_on_c, 0, 87, 101
2, 64560, Note_on_c, 0, 87, 0
2, 64560, Note_on_c, 0, 75, 0
2, 64560, Note_on_c, 0, 76, 75
2, 64560, Note_on_c, 0, 88, 75
2, 64800, Note_on_c, 0, 88, 0
2, 64800, Note_on_c, 0, 76, 0
2, 64800, Note_on_c, 0, 68, 101
2, 64800, Note_on_c, 0, 80, 101
2, 65040, Note_on_c, 0, 80, 0
2, 65040, Note_on_c, 0, 68, 0
2, 65040, Note_on_c, 0, 69, 75
2, 65040, Note_on_c, 0, 81, 75
2, 65280, Note_on_c, 0, 81, 0
2, 65280, Note_on_c, 0, 69, 0
2, 65280, Note_on_c, 0, 64, 75
2, 65280, Note_on_c, 0, 76, 75
2, 65520, Note_on_c, 0, 76, 0
2, 65520, Note_on_c, 0, 64, 0
2, 65520, Note_on_c, 0, 66, 75
2, 65520, Note_on_c, 0, 78, 75
2, 65760, Note_on_c, 0, 78, 0
2, 65760, Note_on_c, 0, 66, 0
2, 65760, Note_on_c, 0, 68, 75
2, 65760, Note_on_c, 0, 80, 75
2, 66000, Note_on_c, 0, 80, 0
2, 66000, Note_on_c, 0, 68, 0
2, 66000, Note_on_c, 0, 69, 75
2, 66000, Note_on_c, 0, 81, 75
2, 66240, Note_on_c, 0, 81, 0
2, 66240, Note_on_c, 0, 69, 0
2, 66240, Note_on_c, 0, 73, 101
2, 66240, Note_on_c, 0, 85, 101
2, 66480, Note_on_c, 0, 85, 0
2, 66480, Note_on_c, 0, 73, 0
2, 66480, Note_on_c, 0, 74, 75
2, 66480, Note_on_c, 0, 86, 75
2, 66720, Note_on_c, 0, 86, 0
2, 66720, Note_on_c, 0, 74, 0
2, 66720, Note_on_c, 0, 72, 101
2, 66720, Note_on_c, 0, 84, 101
2, 66960, Note_on_c, 0, 84, 0
2, 66960, Note_on_c, 0, 72, 0
2, 66960, Note_on_c, 0, 73, 75
2, 66960, Note_on_c, 0, 85, 75
2, 67200, Note_on_c, 0, 85, 0
2, 67200, Note_on_c, 0, 73, 0
2, 67200, Note_on_c, 0, 75, 101
2, 67200, Note_on_c, 0, 87, 101
2, 67440, Note_on_c, 0, 87, 0
2, 67440, Note_on_c, 0, 75, 0
2, 67440, Note_on_c, 0, 76, 75
2, 67440, Note_on_c, 0, 88, 75
2, 67680, Note_on_c, 0, 88, 0
2, 67680, Note_on_c, 0, 76, 0
2, 67680, Note_on_c, 0, 71, 101
2, 67680, Note_on_c, 0, 83, 101
2, 67920, Note_on_c, 0, 83, 0
2, 67920, Note_on_c, 0, 71, 0
2, 67920, Note_on_c, 0, 73, 75
2, 67920, Note_on_c, 0, 85, 75
2, 68160, Note_on_c, 0, 85, 0
2, 68160, Note_on_c, 0, 73, 0
2, 68160, Note_on_c, 0, 76, 101
2, 68160, Note_on_c, 0, 88, 101
2, 68400, Note_on_c, 0, 88, 0
2, 68400, Note_on_c, 0, 76, 0
2, 68400, Note_on_c, 0, 77, 75
2, 68400, Note_on_c, 0, 89, 75
2, 68640, Note_on_c, 0, 89, 0
2, 68640, Note_on_c, 0, 77, 0
2, 68640, Note_on_c, 0, 69, 101
2, 68640, Note_on_c, 0, 81, 101
2, 68880, Note_on_c, 0, 81, 0
2, 68880, Note_on_c, 0, 69, 0
2, 68880, Note_on_c, 0, 70, 75
2, 68880, Note_on_c, 0, 82, 75
2, 69120, Note_on_c, 0, 82, 0
2, 69120, Note_on_c, 0, 70, 0
2, 69120, Note_on_c, 0, 77, 75
2, 69200, Note_on_c, 0, 77, 0
2, 69200, Note_on_c, 0, 81, 75
2, 69200, Note_on_c, 0, 89, 75
2, 69279, Note_on_c, 0, 89, 0
2, 69279, Note_on_c, 0, 81, 0
2, 69279, Note_on_c, 0, 81, 75
2, 69279, Note_on_c, 0, 89, 75
2, 69360, Note_on_c, 0, 89, 0
2, 69360, Note_on_c, 0, 81, 0
2, 69360, Note_on_c, 0, 75, 75
2, 69440, Note_on_c, 0, 75, 0
2, 69440, Note_on_c, 0, 81, 75
2, 69440, Note_on_c, 0, 87, 75
2, 69519, Note_on_c, 0, 87, 0
2, 69519, Note_on_c, 0, 81, 0
2, 69519, Note_on_c, 0, 81, 75
2, 69519, Note_on_c, 0, 87, 75
2, 69600, Note_on_c, 0, 87, 0
2, 69600, Note_on_c, 0, 81, 0
2, 69600, Note_on_c, 0, 74, 75
2, 69680, Note_on_c, 0, 74, 0
2, 69680, Note_on_c, 0, 82, 75
2, 69680, Note_on_c, 0, 86, 75
2, 69759, Note_on_c, 0, 86, 0
2, 69759, Note_on_c, 0, 82, 0
2, 69759, Note_on_c, 0, 82, 75
2, 69759, Note_on_c, 0, 86, 75
2, 69840, Note_on_c, 0, 86, 0
2, 69840, Note_on_c, 0, 82, 0
2, 69840, Note_on_c, 0, 73, 75
2, 69920, Note_on_c, 0, 73, 0
2, 69920, Note_on_c, 0, 82, 75
2, 69920, Note_on_c, 0, 85, 75
2, 69999, Note_on_c, 0, 85, 0
2, 69999, Note_on_c, 0, 82, 0
2, 69999, Note_on_c, 0, 82, 75
2, 69999, Note_on_c, 0, 85, 75
2, 70080, Note_on_c, 0, 85, 0
2, 70080, Note_on_c, 0, 82, 0
2, 70080, Note_on_c, 0, 71, 75
2, 70160, Note_on_c, 0, 71, 0
2, 70160, Note_on_c, 0, 75, 75
2, 70160, Note_on_c, 0, 83, 75
2, 70239, Note_on_c, 0, 83, 0
2, 70239, Note_on_c, 0, 75, 0
2, 70239, Note_on_c, 0, 75, 75
2, 70239, Note_on_c, 0, 83, 75
2, 70320, Note_on_c, 0, 83, 0
2, 70320, Note_on_c, 0, 75, 0
2, 70320, Note_on_c, 0, 70, 75
2, 70400, Note_on_c, 0, 70, 0
2, 70400, Note_on_c, 0, 75, 75
2, 70400, Note_on_c, 0, 82, 75
2, 70479, Note_on_c, 0, 82, 0
2, 70479, Note_on_c, 0, 75, 0
2, 70479, Note_on_c, 0, 75, 75
2, 70479, Note_on_c, 0, 82, 75
2, 70560, Note_on_c, 0, 82, 0
2, 70560, Note_on_c, 0, 75, 0
2, 70560, Note_on_c, 0, 67, 75
2, 70640, Note_on_c, 0, 67, 0
2, 70640, Note_on_c, 0, 75, 75
2, 70640, Note_on_c, 0, 79, 75
2, 70719, Note_on_c, 0, 79, 0
2, 70719, Note_on_c, 0, 75, 0
2, 70719, Note_on_c, 0, 75, 75
2, 70719, Note_on_c, 0, 79, 75
2, 70800, Note_on_c, 0, 79, 0
2, 70800, Note_on_c, 0, 75, 0
2, 70800, Note_on_c, 0, 68, 75
2, 70880, Note_on_c, 0, 68, 0
2, 70880, Note_on_c, 0, 75, 75
2, 70880, Note_on_c, 0, 80, 75
2, 70959, Note_on_c, 0, 80, 0
2, 70959, Note_on_c, 0, 75, 0
2, 70959, Note_on_c, 0, 75, 75
2, 70959, Note_on_c, 0, 80, 75
2, 71040, Note_on_c, 0, 80, 0
2, 71040, Note_on_c, 0, 75, 0
2, 71040, Note_on_c, 0, 66, 75
2, 71120, Note_on_c, 0, 66, 0
2, 71120, Note_on_c, 0, 75, 75
2, 71120, Note_on_c, 0, 78, 75
2, 71199, Note_on_c, 0, 78, 0
2, 71199, Note_on_c, 0, 75, 0
2, 71199, Note_on_c, 0, 75, 75
2, 71199, Note_on_c, 0, 78, 75
2, 71280, Note_on_c, 0, 78, 0
2, 71280, Note_on_c, 0, 75, 0
2, 71280, Note_on_c, 0, 67, 75
2, 71360, Note_on_c, 0, 67, 0
2, 71360, Note_on_c, 0, 75, 75
2, 71360, Note_on_c, 0, 79, 75
2, 71439, Note_on_c, 0, 79, 0
2, 71439, Note_on_c, 0, 75, 0
2, 71439, Note_on_c, 0, 75, 75
2, 71439, Note_on_c, 0, 79, 75
2, 71520, Note_on_c, 0, 79, 0
2, 71520, Note_on_c, 0, 75, 0
2, 71520, Note_on_c, 0, 75, 75
2, 71600, Note_on_c, 0, 75, 0
2, 71600, Note_on_c, 0, 79, 75
2, 71600, Note_on_c, 0, 87, 75
2, 71679, Note_on_c, 0, 87, 0
2, 71679, Note_on_c, 0, 79, 0
2, 71679, Note_on_c, 0, 79, 75
2, 71679, Note_on_c, 0, 87, 75
2, 71760, Note_on_c, 0, 87, 0
2, 71760, Note_on_c, 0, 79, 0
2, 71760, Note_on_c, 0, 68, 75
2, 71840, Note_on_c, 0, 68, 0
2, 71840, Note_on_c, 0, 75, 75
2, 71840, Note_on_c, 0, 80, 75
2, 71919, Note_on_c, 0, 80, 0
2, 71919, Note_on_c, 0, 75, 0
2, 71919, Note_on_c, 0, 75, 75
2, 71919, Note_on_c, 0, 80, 75
2, 72000, Note_on_c, 0, 80, 0
2, 72000, Note_on_c, 0, 75, 0
2, 72000, Note_on_c, 0, 66, 75
2, 72080, Note_on_c, 0, 66, 0
2, 72080, Note_on_c, 0, 75, 75
2, 72080, Note_on_c, 0, 78, 75
2, 72159, Note_on_c, 0, 78, 0
2, 72159, Note_on_c, 0, 75, 0
2, 72159, Note_on_c, 0, 75, 75
2, 72159, Note_on_c, 0, 78, 75
2, 72240, Note_on_c, 0, 78, 0
2, 72240, Note_on_c, 0, 75, 0
2, 72240, Note_on_c, 0, 67, 75
2, 72320, Note_on_c, 0, 67, 0
2, 72320, Note_on_c, 0, 75, 75
2, 72320, Note_on_c, 0, 79, 75
2, 72399, Note_on_c, 0, 79, 0
2, 72399, Note_on_c, 0, 75, 0
2, 72399, Note_on_c, 0, 75, 75
2, 72399, Note_on_c, 0, 79, 75
2, 72480, Note_on_c, 0, 79, 0
2, 72480, Note_on_c, 0, 75, 0
2, 72480, Note_on_c, 0, 75, 75
2, 72560, Note_on_c, 0, 75, 0
2, 72560, Note_on_c, 0, 79, 75
2, 72560, Note_on_c, 0, 87, 75
2, 72639, Note_on_c, 0, 87, 0
2, 72639, Note_on_c, 0, 79, 0
2, 72639, Note_on_c, 0, 79, 75
2, 72639, Note_on_c, 0, 87, 75
2, 72720, Note_on_c, 0, 87, 0
2, 72720, Note_on_c, 0, 79, 0
2, 72720, Note_on_c, 0, 68, 75
2, 72800, Note_on_c, 0, 68, 0
2, 72800, Note_on_c, 0, 75, 75
2, 72800, Note_on_c, 0, 80, 75
2, 72879, Note_on_c, 0, 80, 0
2, 72879, Note_on_c, 0, 75, 0
2, 72879, Note_on_c, 0, 75, 75
2, 72879, Note_on_c, 0, 80, 75
2, 72960, Note_on_c, 0, 80, 0
2, 72960, Note_on_c, 0, 75, 0
2, 72960, Note_on_c, 0, 80, 75
2, 73040, Note_on_c, 0, 80, 0
2, 73040, Note_on_c, 0, 83, 75
2, 73040, Note_on_c, 0, 92, 75
2, 73119, Note_on_c, 0, 92, 0
2, 73119, Note_on_c, 0, 83, 0
2, 73119, Note_on_c, 0, 83, 75
2, 73119, Note_on_c, 0, 92, 75
2, 73200, Note_on_c, 0, 92, 0
2, 73200, Note_on_c, 0, 83, 0
2, 73200, Note_on_c, 0, 78, 75
2, 73280, Note_on_c, 0, 78, 0
2, 73280, Note_on_c, 0, 83, 75
2, 73280, Note_on_c, 0, 90, 75
2, 73359, Note_on_c, 0, 90, 0
2, 73359, Note_on_c, 0, 83, 0
2, 73359, Note_on_c, 0, 83, 75
2, 73359, Note_on_c, 0, 90, 75
2, 73440, Note_on_c, 0, 90, 0
2, 73440, Note_on_c, 0, 83, 0
2, 73440, Note_on_c, 0, 77, 75
2, 73520, Note_on_c, 0, 77, 0
2, 73520, Note_on_c, 0, 85, 75
2, 73520, Note_on_c, 0, 89, 75
2, 73599, Note_on_c, 0, 89, 0
2, 73599, Note_on_c, 0, 85, 0
2, 73599, Note_on_c, 0, 85, 75
2, 73599, Note_on_c, 0, 89, 75
2, 73680, Note_on_c, 0, 89, 0
2, 73680, Note_on_c, 0, 85, 0
2, 73680, Note_on_c, 0, 76, 75
2, 73760, Note_on_c, 0, 76, 0
2, 73760, Note_on_c, 0, 85, 75
2, 73760, Note_on_c, 0, 88, 75
2, 73839, Note_on_c, 0, 88, 0
2, 73839, Note_on_c, 0, 85, 0
2, 73839, Note_on_c, 0, 85, 75
2, 73839, Note_on_c, 0, 88, 75
2, 73920, Note_on_c, 0, 88, 0
2, 73920, Note_on_c, 0, 85, 0
2, 73920, Note_on_c, 0, 74, 75
2, 74000, Note_on_c, 0, 74, 0
2, 74000, Note_on_c, 0, 78, 75
2, 74000, Note_on_c, 0, 86, 75
2, 74079, Note_on_c, 0, 86, 0
2, 74079, Note_on_c, 0, 78, 0
2, 74079, Note_on_c, 0, 78, 75
2, 74079, Note_on_c, 0, 86, 75
2, 74160, Note_on_c, 0, 86, 0
2, 74160, Note_on_c, 0, 78, 0
2, 74160, Note_on_c, 0, 73, 75
2, 74240, Note_on_c, 0, 73, 0
2, 74240, Note_on_c, 0, 78, 75
2, 74240, Note_on_c, 0, 85, 75
2, 74319, Note_on_c, 0, 85, 0
2, 74319, Note_on_c, 0, 78, 0
2, 74319, Note_on_c, 0, 78, 75
2, 74319, Note_on_c, 0, 85, 75
2, 74400, Note_on_c, 0, 85, 0
2, 74400, Note_on_c, 0, 78, 0
2, 74400, Note_on_c, 0, 70, 75
2, 74480, Note_on_c, 0, 70, 0
2, 74480, Note_on_c, 0, 78, 75
2, 74480, Note_on_c, 0, 82, 75
2, 74559, Note_on_c, 0, 82, 0
2, 74559, Note_on_c, 0, 78, 0
2, 74559, Note_on_c, 0, 78, 75
2, 74559, Note_on_c, 0, 82, 75
2, 74640, Note_on_c, 0, 82, 0
2, 74640, Note_on_c, 0, 78, 0
2, 74640, Note_on_c, 0, 71, 75
2, 74720, Note_on_c, 0, 71, 0
2, 74720, Note_on_c, 0, 78, 75
2, 74720, Note_on_c, 0, 83, 75
2, 74799, Note_on_c, 0, 83, 0
2, 74799, Note_on_c, 0, 78, 0
2, 74799, Note_on_c, 0, 78, 75
2, 74799, Note_on_c, 0, 83, 75
2, 74880, Note_on_c, 0, 83, 0
2, 74880, Note_on_c, 0, 78, 0
2, 74880, Note_on_c, 0, 69, 75
2, 74960, Note_on_c, 0, 69, 0
2, 74960, Note_on_c, 0, 78, 75
2, 74960, Note_on_c, 0, 81, 75
2, 75039, Note_on_c, 0, 81, 0
2, 75039, Note_on_c, 0, 78, 0
2, 75039, Note_on_c, 0, 78, 75
2, 75039, Note_on_c, 0, 81, 75
2, 75120, Note_on_c, 0, 81, 0
2, 75120, Note_on_c, 0, 78, 0
2, 75120, Note_on_c, 0, 70, 75
2, 75200, Note_on_c, 0, 70, 0
2, 75200, Note_on_c, 0, 78, 75
2, 75200, Note_on_c, 0, 82, 75
2, 75279, Note_on_c, 0, 82, 0
2, 75279, Note_on_c, 0, 78, 0
2, 75279, Note_on_c, 0, 78, 75
2, 75279, Note_on_c, 0, 82, 75
2, 75360, Note_on_c, 0, 82, 0
2, 75360, Note_on_c, 0, 78, 0
2, 75360, Note_on_c, 0, 78, 75
2, 75440, Note_on_c, 0, 78, 0
2, 75440, Note_on_c, 0, 82, 75
2, 75440, Note_on_c, 0, 90, 75
2, 75519, Note_on_c, 0, 90, 0
2, 75519, Note_on_c, 0, 82, 0
2, 75519, Note_on_c, 0, 82, 75
2, 75519, Note_on_c, 0, 90, 75
2, 75600, Note_on_c, 0, 90, 0
2, 75600, Note_on_c, 0, 82, 0
2, 75600, Note_on_c, 0, 71, 75
2, 75680, Note_on_c, 0, 71, 0
2, 75680, Note_on_c, 0, 78, 75
2, 75680, Note_on_c, 0, 83, 75
2, 75759, Note_on_c, 0, 83, 0
2, 75759, Note_on_c, 0, 78, 0
2, 75759, Note_on_c, 0, 78, 75
2, 75759, Note_on_c, 0, 83, 75
2, 75840, Note_on_c, 0, 83, 0
2, 75840, Note_on_c, 0, 78, 0
2, 75840, Note_on_c, 0, 69, 75
2, 75920, Note_on_c, 0, 69, 0
2, 75920, Note_on_c, 0, 78, 75
2, 75920, Note_on_c, 0, 81, 75
2, 75999, Note_on_c, 0, 81, 0
2, 75999, Note_on_c, 0, 78, 0
2, 75999, Note_on_c, 0, 78, 75
2, 75999, Note_on_c, 0, 81, 75
2, 76080, Note_on_c, 0, 81, 0
2, 76080, Note_on_c, 0, 78, 0
2, 76080, Note_on_c, 0, 70, 75
2, 76160, Note_on_c, 0, 70, 0
2, 76160, Note_on_c, 0, 78, 75
2, 76160, Note_on_c, 0, 82, 75
2, 76239, Note_on_c, 0, 82, 0
2, 76239, Note_on_c, 0, 78, 0
2, 76239, Note_on_c, 0, 78, 75
2, 76239, Note_on_c, 0, 82, 75
2, 76320, Note_on_c, 0, 82, 0
2, 76320, Note_on_c, 0, 78, 0
2, 76320, Note_on_c, 0, 78, 75
2, 76400, Note_on_c, 0, 78, 0
2, 76400, Note_on_c, 0, 82, 75
2, 76400, Note_on_c, 0, 90, 75
2, 76479, Note_on_c, 0, 90, 0
2, 76479, Note_on_c, 0, 82, 0
2, 76479, Note_on_c, 0, 82, 75
2, 76479, Note_on_c, 0, 90, 75
2, 76560, Note_on_c, 0, 90, 0
2, 76560, Note_on_c, 0, 82, 0
2, 76560, Note_on_c, 0, 71, 75
2, 76640, Note_on_c, 0, 71, 0
2, 76640, Note_on_c, 0, 78, 75
2, 76640, Note_on_c, 0, 83, 75
2, 76719, Note_on_c, 0, 83, 0
2, 76719, Note_on_c, 0, 78, 0
2, 76719, Note_on_c, 0, 78, 75
2, 76719, Note_on_c, 0, 83, 75
2, 76800, Note_on_c, 0, 83, 0
2, 76800, Note_on_c, 0, 78, 0
2, 76800, Note_on_c, 0, 70, 75
2, 76880, Note_on_c, 0, 70, 0
2, 76880, Note_on_c, 0, 79, 75
2, 76880, Note_on_c, 0, 82, 75
2, 76959, Note_on_c, 0, 82, 0
2, 76959, Note_on_c, 0, 79, 0
2, 76959, Note_on_c, 0, 79, 75
2, 76959, Note_on_c, 0, 82, 75
2, 77040, Note_on_c, 0, 82, 0
2, 77040, Note_on_c, 0, 79, 0
2, 77040, Note_on_c, 0, 71, 75
2, 77120, Note_on_c, 0, 71, 0
2, 77120, Note_on_c, 0, 79, 75
2, 77120, Note_on_c, 0, 83, 75
2, 77199, Note_on_c, 0, 83, 0
2, 77199, Note_on_c, 0, 79, 0
2, 77199, Note_on_c, 0, 79, 75
2, 77199, Note_on_c, 0, 83, 75
2, 77280, Note_on_c, 0, 83, 0
2, 77280, Note_on_c, 0, 79, 0
2, 77280, Note_on_c, 0, 79, 75
2, 77360, Note_on_c, 0, 79, 0
2, 77360, Note_on_c, 0, 83, 75
2, 77360, Note_on_c, 0, 91, 75
2, 77439, Note_on_c, 0, 91, 0
2, 77439, Note_on_c, 0, 83, 0
2, 77439, Note_on_c, 0, 83, 75
2, 77439, Note_on_c, 0, 91, 75
2, 77520, Note_on_c, 0, 91, 0
2, 77520, Note_on_c, 0, 83, 0
2, 77520, Note_on_c, 0, 72, 75
2, 77600, Note_on_c, 0, 72, 0
2, 77600, Note_on_c, 0, 79, 75
2, 77600, Note_on_c, 0, 84, 75
2, 77679, Note_on_c, 0, 84, 0
2, 77679, Note_on_c, 0, 79, 0
2, 77679, Note_on_c, 0, 79, 75
2, 77679, Note_on_c, 0, 84, 75
2, 77760, Note_on_c, 0, 84, 0
2, 77760, Note_on_c, 0, 79, 0
2, 77760, Note_on_c, 0, 70, 75
2, 77840, Note_on_c, 0, 70, 0
2, 77840, Note_on_c, 0, 79, 75
2, 77840, Note_on_c, 0, 82, 75
2, 77919, Note_on_c, 0, 82, 0
2, 77919, Note_on_c, 0, 79, 0
2, 77919, Note_on_c, 0, 79, 75
2, 77919, Note_on_c, 0, 82, 75
2, 78000, Note_on_c, 0, 82, 0
2, 78000, Note_on_c, 0, 79, 0
2, 78000, Note_on_c, 0, 71, 75
2, 78080, Note_on_c, 0, 71, 0
2, 78080, Note_on_c, 0, 79, 75
2, 78080, Note_on_c, 0, 83, 75
2, 78159, Note_on_c, 0, 83, 0
2, 78159, Note_on_c, 0, 79, 0
2, 78159, Note_on_c, 0, 79, 75
2, 78159, Note_on_c, 0, 83, 75
2, 78240, Note_on_c, 0, 83, 0
2, 78240, Note_on_c, 0, 79, 0
2, 78240, Note_on_c, 0, 79, 75
2, 78320, Note_on_c, 0, 79, 0
2, 78320, Note_on_c, 0, 83, 75
2, 78320, Note_on_c, 0, 91, 75
2, 78399, Note_on_c, 0, 91, 0
2, 78399, Note_on_c, 0, 83, 0
2, 78399, Note_on_c, 0, 83, 75
2, 78399, Note_on_c, 0, 91, 75
2, 78480, Note_on_c, 0, 91, 0
2, 78480, Note_on_c, 0, 83, 0
2, 78480, Note_on_c, 0, 72, 75
2, 78560, Note_on_c, 0, 72, 0
2, 78560, Note_on_c, 0, 79, 75
2, 78560, Note_on_c, 0, 84, 75
2, 78639, Note_on_c, 0, 84, 0
2, 78639, Note_on_c, 0, 79, 0
2, 78639, Note_on_c, 0, 79, 75
2, 78639, Note_on_c, 0, 84, 75
2, 78720, Note_on_c, 0, 84, 0
2, 78720, Note_on_c, 0, 79, 0
2, 78720, Note_on_c, 0, 71, 75
2, 78800, Note_on_c, 0, 71, 0
2, 78800, Note_on_c, 0, 80, 75
2, 78800, Note_on_c, 0, 83, 75
2, 78879, Note_on_c, 0, 83, 0
2, 78879, Note_on_c, 0, 80, 0
2, 78879, Note_on_c, 0, 80, 75
2, 78879, Note_on_c, 0, 83, 75
2, 78960, Note_on_c, 0, 83, 0
2, 78960, Note_on_c, 0, 80, 0
2, 78960, Note_on_c, 0, 72, 75
2, 79040, Note_on_c, 0, 72, 0
2, 79040, Note_on_c, 0, 80, 75
2, 79040, Note_on_c, 0, 84, 75
2, 79119, Note_on_c, 0, 84, 0
2, 79119, Note_on_c, 0, 80, 0
2, 79119, Note_on_c, 0, 80, 75
2, 79119, Note_on_c, 0, 84, 75
2, 79200, Note_on_c, 0, 84, 0
2, 79200, Note_on_c, 0, 80, 0
2, 79200, Note_on_c, 0, 80, 75
2, 79280, Note_on_c, 0, 80, 0
2, 79280, Note_on_c, 0, 84, 75
2, 79280, Note_on_c, 0, 92, 75
2, 79359, Note_on_c, 0, 92, 0
2, 79359, Note_on_c, 0, 84, 0
2, 79359, Note_on_c, 0, 84, 75
2, 79359, Note_on_c, 0, 92, 75
2, 79440, Note_on_c, 0, 92, 0
2, 79440, Note_on_c, 0, 84, 0
2, 79440, Note_on_c, 0, 73, 75
2, 79520, Note_on_c, 0, 73, 0
2, 79520, Note_on_c, 0, 80, 75
2, 79520, Note_on_c, 0, 85, 75
2, 79599, Note_on_c, 0, 85, 0
2, 79599, Note_on_c, 0, 80, 0
2, 79599, Note_on_c, 0, 80, 75
2, 79599, Note_on_c, 0, 85, 75
2, 79680, Note_on_c, 0, 85, 0
2, 79680, Note_on_c, 0, 80, 0
2, 79680, Note_on_c, 0, 68, 75
2, 79760, Note_on_c, 0, 68, 0
2, 79760, Note_on_c, 0, 75, 75
2, 79760, Note_on_c, 0, 80, 75
2, 79839, Note_on_c, 0, 80, 0
2, 79839, Note_on_c, 0, 75, 0
2, 79839, Note_on_c, 0, 75, 75
2, 79839, Note_on_c, 0, 80, 75
2, 79920, Note_on_c, 0, 80, 0
2, 79920, Note_on_c, 0, 75, 0
2, 79920, Note_on_c, 0, 63, 75
2, 80000, Note_on_c, 0, 63, 0
2, 80000, Note_on_c, 0, 68, 75
2, 80000, Note_on_c, 0, 75, 75
2, 80079, Note_on_c, 0, 75, 0
2, 80079, Note_on_c, 0, 68, 0
2, 80079, Note_on_c, 0, 68, 75
2, 80079, Note_on_c, 0, 75, 75
2, 80160, Note_on_c, 0, 75, 0
2, 80160, Note_on_c, 0, 68, 0
2, 80160, Note_on_c, 0, 61, 75
2, 80240, Note_on_c, 0, 61, 0
2, 80240, Note_on_c, 0, 68, 75
2, 80240, Note_on_c, 0, 73, 75
2, 80319, Note_on_c, 0, 73, 0
2, 80319, Note_on_c, 0, 68, 0
2, 80319, Note_on_c, 0, 68, 75
2, 80319, Note_on_c, 0, 73, 75
2, 80400, Note_on_c, 0, 73, 0
2, 80400, Note_on_c, 0, 68, 0
2, 80400, Note_on_c, 0, 56, 75
2, 80480, Note_on_c, 0, 56, 0
2, 80480, Note_on_c, 0, 61, 75
2, 80480, Note_on_c, 0, 68, 75
2, 80559, Note_on_c, 0, 68, 0
2, 80559, Note_on_c, 0, 61, 0
2, 80559, Note_on_c, 0, 61, 75
2, 80559, Note_on_c, 0, 68, 75
2, 80640, Note_on_c, 0, 68, 0
2, 80640, Note_on_c, 0, 61, 0
2, 80700, Control_c, 0, 64, 127
2, 80700, Note_on_c, 0, 54, 75
2, 80760, Note_on_c, 0, 54, 0
2, 80760, Note_on_c, 0, 61, 75
2, 80760, Note_on_c, 0, 66, 75
2, 80820, Note_on_c, 0, 66, 0
2, 80820, Note_on_c, 0, 61, 0
2, 80820, Note_on_c, 0, 66, 75
2, 80880, Note_on_c, 0, 66, 0
2, 80880, Note_on_c, 0, 73, 75
2, 80880, Note_on_c, 0, 78, 75
2, 80940, Note_on_c, 0, 78, 0
2, 80940, Note_on_c, 0, 73, 0
2, 80940, Note_on_c, 0, 66, 75
2, 81000, Note_on_c, 0, 66, 0
2, 81000, Note_on_c, 0, 61, 75
2, 81000, Note_on_c, 0, 66, 75
2, 81060, Note_on_c, 0, 66, 0
2, 81060, Note_on_c, 0, 61, 0
2, 81060, Control_c, 0, 64, 0
2, 81060, Note_on_c, 0, 54, 75
2, 81120, Note_on_c, 0, 54, 0
2, 81180, Control_c, 0, 64, 127
2, 81180, Note_on_c, 0, 58, 75
2, 81240, Note_on_c, 0, 58, 0
2, 81240, Note_on_c, 0, 66, 75
2, 81240, Note_on_c, 0, 70, 75
2, 81300, Note_on_c, 0, 70, 0
2, 81300, Note_on_c, 0, 66, 0
2, 81300, Note_on_c, 0, 70, 75
2, 81360, Note_on_c, 0, 70, 0
2, 81360, Note_on_c, 0, 78, 75
2, 81360, Note_on_c, 0, 82, 75
2, 81420, Note_on_c, 0, 82, 0
2, 81420, Note_on_c, 0, 78, 0
2, 81420, Note_on_c, 0, 70, 75
2, 81480, Note_on_c, 0, 70, 0
2, 81480, Note_on_c, 0, 66, 75
2, 81480, Note_on_c, 0, 70, 75
2, 81540, Note_on_c, 0, 70, 0
2, 81540, Note_on_c, 0, 66, 0
2, 81540, Control_c, 0, 64, 0
2, 81540, Note_on_c, 0, 58, 75
2, 81600, Note_on_c, 0, 58, 0
2, 81660, Control_c, 0, 64, 127
2, 81660, Note_on_c, 0, 61, 75
2, 81720, Note_on_c, 0, 61, 0
2, 81720, Note_on_c, 0, 66, 75
2, 81720, Note_on_c, 0, 73, 75
2, 81780, Note_on_c, 0, 73, 0
2, 81780, Note_on_c, 0, 66, 0
2, 81780, Note_on_c, 0, 73, 75
2, 81840, Note_on_c, 0, 73, 0
2, 81840, Note_on_c, 0, 78, 75
2, 81840, Note_on_c, 0, 85, 75
2, 81900, Note_on_c, 0, 85, 0
2, 81900, Note_on_c, 0, 78, 0
2, 81900, Note_on_c, 0, 73, 75
2, 81960, Note_on_c, 0, 73, 0
2, 81960, Note_on_c, 0, 66, 75
2, 81960, Note_on_c, 0, 73, 75
2, 82020, Note_on_c, 0, 73, 0
2, 82020, Note_on_c, 0, 66, 0
2, 82020, Control_c, 0, 64, 0
2, 82020, Note_on_c, 0, 61, 75
2, 82080, Note_on_c, 0, 61, 0
2, 82140, Control_c, 0, 64, 127
2, 82140, Note_on_c, 0, 66, 75
2, 82200, Note_on_c, 0, 66, 0
2, 82200, Note_on_c, 0, 70, 75
2, 82200, Note_on_c, 0, 73, 75
2, 82200, Note_on_c, 0, 78, 75
2, 82260, Note_on_c, 0, 78, 0
2, 82260, Note_on_c, 0, 73, 0
2, 82260, Note_on_c, 0, 70, 0
2, 82260, Note_on_c, 0, 78, 75
2, 82320, Note_on_c, 0, 78, 0
2, 82320, Note_on_c, 0, 82, 75
2, 82320, Note_on_c, 0, 85, 75
2, 82320, Note_on_c, 0, 90, 75
2, 82380, Note_on_c, 0, 90, 0
2, 82380, Note_on_c, 0, 85, 0
2, 82380, Note_on_c, 0, 82, 0
2, 82380, Note_on_c, 0, 78, 75
2, 82440, Note_on_c, 0, 78, 0
2, 82440, Note_on_c, 0, 70, 75
2, 82440, Note_on_c, 0, 73, 75
2, 82440, Note_on_c, 0, 78, 75
2, 82500, Note_on_c, 0, 78, 0
2, 82500, Note_on_c, 0, 73, 0
2, 82500, Note_on_c, 0, 70, 0
2, 82500, Control_c, 0, 64, 0
2, 82500, Note_on_c, 0, 66, 75
2, 82560, Note_on_c, 0, 66, 0
2, 82620, Control_c, 0, 64, 127
2, 82620, Note_on_c, 0, 54, 75
2, 82680, Note_on_c, 0, 54, 0
2, 82680, Note_on_c, 0, 61, 75
2, 82680, Note_on_c, 0, 66, 75
2, 82740, Note_on_c, 0, 66, 0
2, 82740, Note_on_c, 0, 61, 0
2, 82740, Note_on_c, 0, 66, 75
2, 82800, Note_on_c, 0, 66, 0
2, 82800, Note_on_c, 0, 73, 75
2, 82800, Note_on_c, 0, 78, 75
2, 82860, Note_on_c, 0, 78, 0
2, 82860, Note_on_c, 0, 73, 0
2, 82860, Note_on_c, 0, 66, 75
2, 82920, Note_on_c, 0, 66, 0
2, 82920, Note_on_c, 0, 61, 75
2, 82920, Note_on_c, 0, 66, 75
2, 82980, Note_on_c, 0, 66, 0
2, 82980, Note_on_c, 0, 61, 0
2, 82980, Control_c, 0, 64, 0
2, 82980, Note_on_c, 0, 54, 75
2, 83040, Note_on_c, 0, 54, 0
2, 83100, Control_c, 0, 64, 127
2, 83100, Note_on_c, 0, 58, 75
2, 83160, Note_on_c, 0, 58, 0
2, 83160, Note_on_c, 0, 66, 75
2, 83160, Note_on_c, 0, 70, 75
2, 83220, Note_on_c, 0, 70, 0
2, 83220, Note_on_c, 0, 66, 0
2, 83220, Note_on_c, 0, 70, 75
2, 83280, Note_on_c, 0, 70, 0
2, 83280, Note_on_c, 0, 78, 75
2, 83280, Note_on_c, 0, 82, 75
2, 83340, Note_on_c, 0, 82, 0
2, 83340, Note_on_c, 0, 78, 0
2, 83340, Note_on_c, 0, 70, 75
2, 83400, Note_on_c, 0, 70, 0
2, 83400, Note_on_c, 0, 66, 75
2, 83400, Note_on_c, 0, 70, 75
2, 83460, Note_on_c, 0, 70, 0
2, 83460, Note_on_c, 0, 66, 0
2, 83460, Control_c, 0, 64, 0
2, 83460, Note_on_c, 0, 58, 75
2, 83520, Note_on_c, 0, 58, 0
2, 83580, Control_c, 0, 64, 127
2, 83580, Note_on_c, 0, 61, 75
2, 83640, Note_on_c, 0, 61, 0
2, 83640, Note_on_c, 0, 66, 75
2, 83640, Note_on_c, 0, 73, 75
2, 83700, Note_on_c, 0, 73, 0
2, 83700, Note_on_c, 0, 66, 0
2, 83700, Note_on_c, 0, 73, 75
2, 83760, Note_on_c, 0, 73, 0
2, 83760, Note_on_c, 0, 78, 75
2, 83760, Note_on_c, 0, 85, 75
2, 83820, Note_on_c, 0, 85, 0
2, 83820, Note_on_c, 0, 78, 0
2, 83820, Note_on_c, 0, 73, 75
2, 83880, Note_on_c, 0, 73, 0
2, 83880, Note_on_c, 0, 66, 75
2, 83880, Note_on_c, 0, 73, 75
2, 83940, Note_on_c, 0, 73, 0
2, 83940, Note_on_c, 0, 66, 0
2, 83940, Control_c, 0, 64, 0
2, 83940, Note_on_c, 0, 61, 75
2, 84000, Note_on_c, 0, 61, 0
2, 84060, Control_c, 0, 64, 127
2, 84060, Note_on_c, 0, 66, 75
2, 84120, Note_on_c, 0, 66, 0
2, 84120, Note_on_c, 0, 70, 75
2, 84120, Note_on_c, 0, 73, 75
2, 84120, Note_on_c, 0, 78, 75
2, 84180, Note_on_c, 0, 78, 0
2, 84180, Note_on_c, 0, 73, 0
2, 84180, Note_on_c, 0, 70, 0
2, 84180, Note_on_c, 0, 78, 75
2, 84240, Note_on_c, 0, 78, 0
2, 84240, Note_on_c, 0, 82, 75
2, 84240, Note_on_c, 0, 85, 75
2, 84240, Note_on_c, 0, 90, 75
2, 84300, Note_on_c, 0, 90, 0
2, 84300, Note_on_c, 0, 85, 0
2, 84300, Note_on_c, 0, 82, 0
2, 84300, Note_on_c, 0, 78, 75
2, 84360, Note_on_c, 0, 78, 0
2, 84360, Note_on_c, 0, 70, 75
2, 84360, Note_on_c, 0, 73, 75
2, 84360, Note_on_c, 0, 78, 75
2, 84420, Note_on_c, 0, 78, 0
2, 84420, Note_on_c, 0, 73, 0
2, 84420, Note_on_c, 0, 70, 0
2, 84420, Control_c, 0, 64, 0
2, 84420, Note_on_c, 0, 66, 75
2, 84480, Note_on_c, 0, 66, 0
2, 84540, Control_c, 0, 64, 127
2, 84540, Note_on_c, 0, 61, 75
2, 84600, Note_on_c, 0, 61, 0
2, 84600, Note_on_c, 0, 66, 75
2, 84600, Note_on_c, 0, 73, 75
2, 84660, Note_on_c, 0, 73, 0
2, 84660, Note_on_c, 0, 66, 0
2, 84660, Note_on_c, 0, 73, 75
2, 84720, Note_on_c, 0, 73, 0
2, 84720, Note_on_c, 0, 78, 75
2, 84720, Note_on_c, 0, 85, 75
2, 84780, Note_on_c, 0, 85, 0
2, 84780, Note_on_c, 0, 78, 0
2, 84780, Note_on_c, 0, 73, 75
2, 84840, Note_on_c, 0, 73, 0
2, 84840, Note_on_c, 0, 66, 75
2, 84840, Note_on_c, 0, 73, 75
2, 84900, Note_on_c, 0, 73, 0
2, 84900, Note_on_c, 0, 66, 0
2, 84900, Control_c, 0, 64, 0
2, 84900, Note_on_c, 0, 61, 75
2, 84960, Note_on_c, 0, 61, 0
2, 85020, Control_c, 0, 64, 127
2, 85020, Note_on_c, 0, 66, 75
2, 85080, Note_on_c, 0, 66, 0
2, 85080, Note_on_c, 0, 73, 75
2, 85080, Note_on_c, 0, 78, 75
2, 85140, Note_on_c, 0, 78, 0
2, 85140, Note_on_c, 0, 73, 0
2, 85140, Note_on_c, 0, 78, 75
2, 85200, Note_on_c, 0, 78, 0
2, 85200, Note_on_c, 0, 85, 75
2, 85200, Note_on_c, 0, 90, 75
2, 85260, Note_on_c, 0, 90, 0
2, 85260, Note_on_c, 0, 85, 0
2, 85260, Note_on_c, 0, 78, 75
2, 85320, Note_on_c, 0, 78, 0
2, 85320, Note_on_c, 0, 73, 75
2, 85320, Note_on_c, 0, 78, 75
2, 85380, Note_on_c, 0, 78, 0
2, 85380, Note_on_c, 0, 73, 0
2, 85380, Control_c, 0, 64, 0
2, 85380, Note_on_c, 0, 66, 75
2, 85440, Note_on_c, 0, 66, 0
2, 85500, Control_c, 0, 64, 127
2, 85500, Note_on_c, 0, 70, 75
2, 85560, Note_on_c, 0, 70, 0
2, 85560, Note_on_c, 0, 78, 75
2, 85560, Note_on_c, 0, 82, 75
2, 85620, Note_on_c, 0, 82, 0
2, 85620, Note_on_c, 0, 78, 0
2, 85620, Note_on_c, 0, 82, 75
2, 85680, Note_on_c, 0, 82, 0
2, 85680, Note_on_c, 0, 90, 75
2, 85680, Note_on_c, 0, 94, 75
2, 85740, Note_on_c, 0, 94, 0
2, 85740, Note_on_c, 0, 90, 0
2, 85740, Note_on_c, 0, 82, 75
2, 85800, Note_on_c, 0, 82, 0
2, 85800, Note_on_c, 0, 78, 75
2, 85800, Note_on_c, 0, 82, 75
2, 85860, Note_on_c, 0, 82, 0
2, 85860, Note_on_c, 0, 78, 0
2, 85860, Control_c, 0, 64, 0
2, 85860, Note_on_c, 0, 70, 75
2, 85920, Note_on_c, 0, 70, 0
2, 85980, Control_c, 0, 64, 127
2, 85980, Note_on_c, 0, 73, 75
2, 86040, Note_on_c, 0, 73, 0
2, 86040, Note_on_c, 0, 78, 75
2, 86040, Note_on_c, 0, 85, 75
2, 86100, Note_on_c, 0, 85, 0
2, 86100, Note_on_c, 0, 78, 0
2, 86100, Note_on_c, 0, 85, 75
2, 86160, Note_on_c, 0, 85, 0
2, 86160, Note_on_c, 0, 90, 75
2, 86160, Note_on_c, 0, 97, 75
2, 86220, Note_on_c, 0, 97, 0
2, 86220, Note_on_c, 0, 90, 0
2, 86220, Note_on_c, 0, 85, 75
2, 86280, Note_on_c, 0, 85, 0
2, 86280, Note_on_c, 0, 78, 75
2, 86280, Note_on_c, 0, 85, 75
2, 86340, Note_on_c, 0, 85, 0
2, 86340, Note_on_c, 0, 78, 0
2, 86340, Control_c, 0, 64, 0
2, 86340, Note_on_c, 0, 73, 75
2, 86400, Note_on_c, 0, 73, 0
2, 86460, Control_c, 0, 64, 127
2, 86460, Note_on_c, 0, 61, 75
2, 86520, Note_on_c, 0, 61, 0
2, 86520, Note_on_c, 0, 66, 75
2, 86520, Note_on_c, 0, 73, 75
2, 86580, Note_on_c, 0, 73, 0
2, 86580, Note_on_c, 0, 66, 0
2, 86580, Note_on_c, 0, 73, 75
2, 86640, Note_on_c, 0, 73, 0
2, 86640, Note_on_c, 0, 78, 75
2, 86640, Note_on_c, 0, 85, 75
2, 86700, Note_on_c, 0, 85, 0
2, 86700, Note_on_c, 0, 78, 0
2, 86700, Note_on_c, 0, 73, 75
2, 86760, Note_on_c, 0, 73, 0
2, 86760, Note_on_c, 0, 66, 75
2, 86760, Note_on_c, 0, 73, 75
2, 86820, Note_on_c, 0, 73, 0
2, 86820, Note_on_c, 0, 66, 0
2, 86820, Control_c, 0, 64, 0
2, 86820, Note_on_c, 0, 61, 75
2, 86880, Note_on_c, 0, 61, 0
2, 86940, Control_c, 0, 64, 127
2, 86940, Note_on_c, 0, 66, 75
2, 87000, Note_on_c, 0, 66, 0
2, 87000, Note_on_c, 0, 73, 75
2, 87000, Note_on_c, 0, 78, 75
2, 87060, Note_on_c, 0, 78, 0
2, 87060, Note_on_c, 0, 73, 0
2, 87060, Note_on_c, 0, 78, 75
2, 87120, Note_on_c, 0, 78, 0
2, 87120, Note_on_c, 0, 85, 75
2, 87120, Note_on_c, 0, 90, 75
2, 87180, Note_on_c, 0, 90, 0
2, 87180, Note_on_c, 0, 85, 0
2, 87180, Note_on_c, 0, 78, 75
2, 87240, Note_on_c, 0, 78, 0
2, 87240, Note_on_c, 0, 73, 75
2, 87240, Note_on_c, 0, 78, 75
2, 87300, Note_on_c, 0, 78, 0
2, 87300, Note_on_c, 0, 73, 0
2, 87300, Control_c, 0, 64, 0
2, 87300, Note_on_c, 0, 66, 75
2, 87360, Note_on_c, 0, 66, 0
2, 87420, Control_c, 0, 64, 127
2, 87420, Note_on_c, 0, 70, 75
2, 87480, Note_on_c, 0, 70, 0
2, 87480, Note_on_c, 0, 78, 75
2, 87480, Note_on_c, 0, 82, 75
2, 87540, Note_on_c, 0, 82, 0
2, 87540, Note_on_c, 0, 78, 0
2, 87540, Note_on_c, 0, 82, 75
2, 87600, Note_on_c, 0, 82, 0
2, 87600, Note_on_c, 0, 90, 75
2, 87600, Note_on_c, 0, 94, 75
2, 87660, Note_on_c, 0, 94, 0
2, 87660, Note_on_c, 0, 90, 0
2, 87660, Note_on_c, 0, 82, 75
2, 87720, Note_on_c, 0, 82, 0
2, 87720, Note_on_c, 0, 78, 75
2, 87720, Note_on_c, 0, 82, 75
2, 87780, Note_on_c, 0, 82, 0
2, 87780, Note_on_c, 0, 78, 0
2, 87780, Control_c, 0, 64, 0
2, 87780, Note_on_c, 0, 70, 75
2, 87840, Note_on_c, 0, 70, 0
2, 87900, Control_c, 0, 64, 127
2, 87900, Note_on_c, 0, 73, 75
2, 87960, Note_on_c, 0, 73, 0
2, 87960, Note_on_c, 0, 78, 75
2, 87960, Note_on_c, 0, 85, 75
2, 88020, Note_on_c, 0, 85, 0
2, 88020, Note_on_c, 0, 78, 0
2, 88020, Note_on_c, 0, 85, 75
2, 88080, Note_on_c, 0, 85, 0
2, 88080, Note_on_c, 0, 90, 75
2, 88080, Note_on_c, 0, 97, 75
2, 88140, Note_on_c, 0, 97, 0
2, 88140, Note_on_c, 0, 90, 0
2, 88140, Note_on_c, 0, 85, 75
2, 88200, Note_on_c, 0, 85, 0
2, 88200, Note_on_c, 0, 78, 75
2, 88200, Note_on_c, 0, 85, 75
2, 88260, Note_on_c, 0, 85, 0
2, 88260, Note_on_c, 0, 78, 0
2, 88260, Control_c, 0, 64, 0
2, 88260, Note_on_c, 0, 73, 75
2, 88320, Note_on_c, 0, 73, 0
2, 88320, Note_on_c, 0, 90, 101
2, 88320, Note_on_c, 0, 94, 101
2, 88320, Note_on_c, 0, 97, 101
2, 88320, Note_on_c, 0, 102, 101
2, 88400, Note_on_c, 0, 102, 0
2, 88400, Note_on_c, 0, 90, 0
2, 88400, Note_on_c, 0, 94, 0
2, 88400, Note_on_c, 0, 97, 0
2, 88400, Note_on_c, 0, 89, 101
2, 88400, Note_on_c, 0, 101, 101
2, 88479, Note_on_c, 0, 101, 0
2, 88479, Note_on_c, 0, 89, 0
2, 88479, Note_on_c, 0, 88, 101
2, 88479, Note_on_c, 0, 100, 101
2, 88560, Note_on_c, 0, 100, 0
2, 88560, Note_on_c, 0, 88, 0
2, 88560, Note_on_c, 0, 87, 101
2, 88560, Note_on_c, 0, 99, 101
2, 88640, Note_on_c, 0, 99, 0
2, 88640, Note_on_c, 0, 87, 0
2, 88640, Note_on_c, 0, 85, 101
2, 88640, Note_on_c, 0, 97, 101
2, 88719, Note_on_c, 0, 97, 0
2, 88719, Note_on_c, 0, 85, 0
2, 88719, Note_on_c, 0, 83, 101
2, 88719, Note_on_c, 0, 95, 101
2, 88800, Note_on_c, 0, 95, 0
2, 88800, Note_on_c, 0, 83, 0
2, 88800, Note_on_c, 0, 82, 101
2, 88800, Note_on_c, 0, 94, 101
2, 88880, Note_on_c, 0, 94, 0
2, 88880, Note_on_c, 0, 82, 0
2, 88880, Note_on_c, 0, 80, 101
2, 88880, Note_on_c, 0, 92, 101
2, 88959, Note_on_c, 0, 92, 0
2, 88959, Note_on_c, 0, 80, 0
2, 88959, Note_on_c, 0, 78, 101
2, 88959, Note_on_c, 0, 90, 101
2, 89040, Note_on_c, 0, 90, 0
2, 89040, Note_on_c, 0, 78, 0
2, 89040, Note_on_c, 0, 76, 101
2, 89040, Note_on_c, 0, 88, 101
2, 89120, Note_on_c, 0, 88, 0
2, 89120, Note_on_c, 0, 76, 0
2, 89120, Note_on_c, 0, 75, 101
2, 89120, Note_on_c, 0, 87, 101
2, 89199, Note_on_c, 0, 87, 0
2, 89199, Note_on_c, 0, 75, 0
2, 89199, Note_on_c, 0, 73, 101
2, 89199, Note_on_c, 0, 85, 101
2, 89280, Note_on_c, 0, 85, 0
2, 89280, Note_on_c, 0, 73, 0
2, 89280, Note_on_c, 0, 71, 101
2, 89280, Note_on_c, 0, 83, 101
2, 89360, Note_on_c, 0, 83, 0
2, 89360, Note_on_c, 0, 71, 0
2, 89360, Note_on_c, 0, 70, 101
2, 89360, Note_on_c, 0, 82, 101
2, 89439, Note_on_c, 0, 82, 0
2, 89439, Note_on_c, 0, 70, 0
2, 89439, Note_on_c, 0, 68, 101
2, 89439, Note_on_c, 0, 80, 101
2, 89520, Note_on_c, 0, 80, 0
2, 89520, Note_on_c, 0, 68, 0
2, 89520, Note_on_c, 0, 66, 101
2, 89520, Note_on_c, 0, 78, 101
2, 89600, Note_on_c, 0, 78, 0
2, 89600, Note_on_c, 0, 66, 0
2, 89600, Note_on_c, 0, 68, 101
2, 89600, Note_on_c, 0, 80, 101
2, 89679, Note_on_c, 0, 80, 0
2, 89679, Note_on_c, 0, 68, 0
2, 89679, Note_on_c, 0, 70, 101
2, 89679, Note_on_c, 0, 82, 101
2, 89760, Note_on_c, 0, 82, 0
2, 89760, Note_on_c, 0, 70, 0
2, 89760, Note_on_c, 0, 71, 101
2, 89760, Note_on_c, 0, 83, 101
2, 89840, Note_on_c, 0, 83, 0
2, 89840, Note_on_c, 0, 71, 0
2, 89840, Note_on_c, 0, 73, 101
2, 89840, Note_on_c, 0, 85, 101
2, 89919, Note_on_c, 0, 85, 0
2, 89919, Note_on_c, 0, 73, 0
2, 89919, Note_on_c, 0, 75, 101
2, 89919, Note_on_c, 0, 87, 101
2, 90000, Note_on_c, 0, 87, 0
2, 90000, Note_on_c, 0, 75, 0
2, 90000, Note_on_c, 0, 76, 101
2, 90000, Note_on_c, 0, 88, 101
2, 90080, Note_on_c, 0, 88, 0
2, 90080, Note_on_c, 0, 76, 0
2, 90080, Note_on_c, 0, 77, 101
2, 90080, Note_on_c, 0, 89, 101
2, 90159, Note_on_c, 0, 89, 0
2, 90159, Note_on_c, 0, 77, 0
2, 90159, Note_on_c, 0, 78, 101
2, 90159, Note_on_c, 0, 90, 101
2, 90720, Note_on_c, 0, 90, 0
2, 90720, Note_on_c, 0, 78, 0
2, 90720, Note_on_c, 0, 61, 101
2, 90720, Note_on_c, 0, 73, 101
2, 90960, Note_on_c, 0, 73, 0
2, 90960, Note_on_c, 0, 61, 0
2, 90960, Note_on_c, 0, 63, 101
2, 90960, Note_on_c, 0, 75, 101
2, 91200, Note_on_c, 0, 75, 0
2, 91200, Note_on_c, 0, 63, 0
2, 91200, Note_on_c, 0, 64, 101
2, 91200, Note_on_c, 0, 76, 101
2, 91440, Note_on_c, 0, 76, 0
2, 91440, Note_on_c, 0, 64, 0
2, 91440, Note_on_c, 0, 66, 101
2, 91440, Note_on_c, 0, 78, 101
2, 91680, Note_on_c, 0, 78, 0
2, 91680, Note_on_c, 0, 66, 0
2, 91680, Note_on_c, 0, 68, 101
2, 91680, Note_on_c, 0, 80, 101
2, 91920, Note_on_c, 0, 80, 0
2, 91920, Note_on_c, 0, 68, 0
2, 91920, Note_on_c, 0, 66, 101
2, 91920, Note_on_c, 0, 78, 101
2, 92160, Note_on_c, 0, 78, 0
2, 92160, Note_on_c, 0, 66, 0
2, 92160, Note_on_c, 0, 68, 101
2, 92160, Note_on_c, 0, 80, 101
2, 92400, Note_on_c, 0, 80, 0
2, 92400, Note_on_c, 0, 68, 0
2, 92400, Note_on_c, 0, 63, 101
2, 92400, Note_on_c, 0, 75, 101
2, 92640, Note_on_c, 0, 75, 0
2, 92640, Note_on_c, 0, 63, 0
2, 92640, Note_on_c, 0, 64, 101
2, 92640, Note_on_c, 0, 76, 101
2, 92880, Note_on_c, 0, 76, 0
2, 92880, Note_on_c, 0, 64, 0
2, 92880, Note_on_c, 0, 63, 101
2, 92880, Note_on_c, 0, 75, 101
2, 93120, Note_on_c, 0, 75, 0
2, 93120, Note_on_c, 0, 63, 0
2, 93120, Note_on_c, 0, 64, 101
2, 93120, Note_on_c, 0, 76, 101
2, 93360, Note_on_c, 0, 76, 0
2, 93360, Note_on_c, 0, 64, 0
2, 93360, Note_on_c, 0, 61, 101
2, 93360, Note_on_c, 0, 73, 101
2, 93600, Note_on_c, 0, 73, 0
2, 93600, Note_on_c, 0, 61, 0
2, 93600, Note_on_c, 0, 59, 101
2, 93600, Note_on_c, 0, 71, 101
2, 93840, Note_on_c, 0, 71, 0
2, 93840, Note_on_c, 0, 59, 0
2, 93840, Note_on_c, 0, 58, 101
2, 93840, Note_on_c, 0, 70, 101
2, 94080, Note_on_c, 0, 70, 0
2, 94080, Note_on_c, 0, 58, 0
2, 94080, Note_on_c, 0, 56, 101
2, 94080, Note_on_c, 0, 68, 101
2, 94320, Note_on_c, 0, 68, 0
2, 94320, Note_on_c, 0, 56, 0
2, 94320, Note_on_c, 0, 54, 101
2, 94320, Note_on_c, 0, 66, 101
2, 94560, Note_on_c, 0, 66, 0
2, 94560, Note_on_c, 0, 54, 0
2, 94560, Note_on_c, 0, 61, 101
2, 94560, Note_on_c, 0, 73, 101
2, 94800, Note_on_c, 0, 73, 0
2, 94800, Note_on_c, 0, 61, 0
2, 94800, Note_on_c, 0, 63, 101
2, 94800, Note_on_c, 0, 75, 101
2, 95040, Note_on_c, 0, 75, 0
2, 95040, Note_on_c, 0, 63, 0
2, 95040, Note_on_c, 0, 64, 101
2, 95040, Note_on_c, 0, 76, 101
2, 95280, Note_on_c, 0, 76, 0
2, 95280, Note_on_c, 0, 64, 0
2, 95280, Note_on_c, 0, 66, 101
2, 95280, Note_on_c, 0, 78, 101
2, 95520, Note_on_c, 0, 78, 0
2, 95520, Note_on_c, 0, 66, 0
2, 95520, Note_on_c, 0, 68, 101
2, 95520, Note_on_c, 0, 80, 101
2, 95760, Note_on_c, 0, 80, 0
2, 95760, Note_on_c, 0, 68, 0
2, 95760, Note_on_c, 0, 66, 101
2, 95760, Note_on_c, 0, 78, 101
2, 96000, Note_on_c, 0, 78, 0
2, 96000, Note_on_c, 0, 66, 0
2, 96000, Note_on_c, 0, 71, 101
2, 96000, Note_on_c, 0, 83, 101
2, 96240, Note_on_c, 0, 83, 0
2, 96240, Note_on_c, 0, 71, 0
2, 96240, Note_on_c, 0, 66, 101
2, 96240, Note_on_c, 0, 78, 101
2, 96480, Note_on_c, 0, 78, 0
2, 96480, Note_on_c, 0, 66, 0
2, 96480, Note_on_c, 0, 67, 101
2, 96480, Note_on_c, 0, 79, 101
2, 96720, Note_on_c, 0, 79, 0
2, 96720, Note_on_c, 0, 67, 0
2, 96720, Note_on_c, 0, 68, 101
2, 96720, Note_on_c, 0, 80, 101
2, 96960, Note_on_c, 0, 80, 0
2, 96960, Note_on_c, 0, 68, 0
2, 96960, Note_on_c, 0, 70, 101
2, 96960, Note_on_c, 0, 82, 101
2, 97200, Note_on_c, 0, 82, 0
2, 97200, Note_on_c, 0, 70, 0
2, 97200, Note_on_c, 0, 71, 101
2, 97200, Note_on_c, 0, 83, 101
2, 97440, Note_on_c, 0, 83, 0
2, 97440, Note_on_c, 0, 71, 0
2, 97440, Note_on_c, 0, 73, 101
2, 97440, Note_on_c, 0, 85, 101
2, 97680, Note_on_c, 0, 85, 0
2, 97680, Note_on_c, 0, 73, 0
2, 97680, Note_on_c, 0, 74, 101
2, 97680, Note_on_c, 0, 86, 101
2, 97920, Note_on_c, 0, 86, 0
2, 97920, Note_on_c, 0, 74, 0
2, 97920, Note_on_c, 0, 74, 101
2, 97920, Note_on_c, 0, 86, 101
2, 98160, Note_on_c, 0, 86, 0
2, 98160, Note_on_c, 0, 74, 0
2, 98160, Note_on_c, 0, 75, 101
2, 98160, Note_on_c, 0, 87, 101
2, 98400, Note_on_c, 0, 87, 0
2, 98400, Note_on_c, 0, 75, 0
2, 98400, Note_on_c, 0, 76, 127
2, 98400, Note_on_c, 0, 88, 127
2, 98640, Note_on_c, 0, 88, 0
2, 98640, Note_on_c, 0, 76, 0
2, 98640, Note_on_c, 0, 75, 127
2, 98640, Note_on_c, 0, 87, 127
2, 98880, Note_on_c, 0, 87, 0
2, 98880, Note_on_c, 0, 75, 0
2, 98880, Note_on_c, 0, 76, 127
2, 98880, Note_on_c, 0, 88, 127
2, 99120, Note_on_c, 0, 88, 0
2, 99120, Note_on_c, 0, 76, 0
2, 99120, Note_on_c, 0, 73, 127
2, 99120, Note_on_c, 0, 85, 127
2, 99360, Note_on_c, 0, 85, 0
2, 99360, Note_on_c, 0, 73, 0
2, 99360, Note_on_c, 0, 75, 127
2, 99360, Note_on_c, 0, 87, 127
2, 99600, Note_on_c, 0, 87, 0
2, 99600, Note_on_c, 0, 75, 0
2, 99600, Note_on_c, 0, 71, 127
2, 99600, Note_on_c, 0, 83, 127
2, 99840, Note_on_c, 0, 83, 0
2, 99840, Note_on_c, 0, 71, 0
2, 99840, Note_on_c, 0, 73, 127
2, 99840, Note_on_c, 0, 85, 127
2, 100320, Note_on_c, 0, 85, 0
2, 100320, Note_on_c, 0, 73, 0
2, 100320, Note_on_c, 0, 76, 127
2, 100320, Note_on_c, 0, 88, 127
2, 100560, Note_on_c, 0, 88, 0
2, 100560, Note_on_c, 0, 76, 0
2, 100560, Note_on_c, 0, 76, 127
2, 100560, Note_on_c, 0, 88, 127
2, 100680, Note_on_c, 0, 88, 0
2, 100680, Note_on_c, 0, 76, 0
2, 100680, Note_on_c, 0, 78, 127
2, 100680, Note_on_c, 0, 90, 127
2, 100800, Note_on_c, 0, 90, 0
2, 100800, Note_on_c, 0, 78, 0
2, 100800, Note_on_c, 0, 76, 127
2, 100800, Note_on_c, 0, 88, 127
2, 100920, Note_on_c, 0, 88, 0
2, 100920, Note_on_c, 0, 76, 0
2, 100920, Note_on_c, 0, 75, 127
2, 100920, Note_on_c, 0, 87, 127
2, 101040, Note_on_c, 0, 87, 0
2, 101040, Note_on_c, 0, 75, 0
2, 101040, Note_on_c, 0, 73, 127
2, 101040, Note_on_c, 0, 85, 127
2, 101160, Note_on_c, 0, 85, 0
2, 101160, Note_on_c, 0, 73, 0
2, 101160, Note_on_c, 0, 71, 127
2, 101160, Note_on_c, 0, 83, 127
2, 101280, Note_on_c, 0, 83, 0
2, 101280, Note_on_c, 0, 71, 0
2, 101280, Note_on_c, 0, 73, 127
2, 101280, Note_on_c, 0, 85, 127
2, 101520, Note_on_c, 0, 85, 0
2, 101520, Note_on_c, 0, 73, 0
2, 101520, Note_on_c, 0, 75, 127
2, 101520, Note_on_c, 0, 87, 127
2, 101760, Note_on_c, 0, 87, 0
2, 101760, Note_on_c, 0, 75, 0
2, 101760, Note_on_c, 0, 73, 127
2, 101760, Note_on_c, 0, 85, 127
2, 102240, Note_on_c, 0, 85, 0
2, 102240, Note_on_c, 0, 73, 0
2, 102240, Note_on_c, 0, 75, 101
2, 102240, Note_on_c, 0, 87, 101
2, 102360, Note_on_c, 0, 87, 0
2, 102360, Note_on_c, 0, 75, 0
2, 102360, Note_on_c, 0, 76, 101
2, 102360, Note_on_c, 0, 88, 101
2, 102480, Note_on_c, 0, 88, 0
2, 102480, Note_on_c, 0, 76, 0
2, 102480, Note_on_c, 0, 75, 101
2, 102480, Note_on_c, 0, 87, 101
2, 102600, Note_on_c, 0, 87, 0
2, 102600, Note_on_c, 0, 75, 0
2, 102600, Note_on_c, 0, 73, 101
2, 102600, Note_on_c, 0, 85, 101
2, 102720, Note_on_c, 0, 85, 0
2, 102720, Note_on_c, 0, 73, 0
2, 102720, Note_on_c, 0, 75, 101
2, 102720, Note_on_c, 0, 87, 101
2, 102840, Note_on_c, 0, 87, 0
2, 102840, Note_on_c, 0, 75, 0
2, 102840, Note_on_c, 0, 76, 101
2, 102840, Note_on_c, 0, 88, 101
2, 102960, Note_on_c, 0, 88, 0
2, 102960, Note_on_c, 0, 76, 0
2, 102960, Note_on_c, 0, 75, 101
2, 102960, Note_on_c, 0, 87, 101
2, 103080, Note_on_c, 0, 87, 0
2, 103080, Note_on_c, 0, 75, 0
2, 103080, Note_on_c, 0, 73, 101
2, 103080, Note_on_c, 0, 85, 101
2, 103200, Note_on_c, 0, 85, 0
2, 103200, Note_on_c, 0, 73, 0
2, 103200, Note_on_c, 0, 75, 101
2, 103200, Note_on_c, 0, 87, 101
2, 103280, Note_on_c, 0, 87, 0
2, 103280, Note_on_c, 0, 75, 0
2, 103280, Note_on_c, 0, 76, 101
2, 103280, Note_on_c, 0, 88, 101
2, 103359, Note_on_c, 0, 88, 0
2, 103359, Note_on_c, 0, 76, 0
2, 103359, Note_on_c, 0, 75, 101
2, 103359, Note_on_c, 0, 87, 101
2, 103440, Note_on_c, 0, 87, 0
2, 103440, Note_on_c, 0, 75, 0
2, 103440, Note_on_c, 0, 73, 101
2, 103440, Note_on_c, 0, 85, 101
2, 103520, Note_on_c, 0, 85, 0
2, 103520, Note_on_c, 0, 73, 0
2, 103520, Note_on_c, 0, 75, 101
2, 103520, Note_on_c, 0, 87, 101
2, 103599, Note_on_c, 0, 87, 0
2, 103599, Note_on_c, 0, 75, 0
2, 103599, Note_on_c, 0, 76, 101
2, 103599, Note_on_c, 0, 88, 101
2, 103680, Note_on_c, 0, 88, 0
2, 103680, Note_on_c, 0, 76, 0
2, 103680, Note_on_c, 0, 75, 101
2, 103680, Note_on_c, 0, 87, 101
2, 103760, Note_on_c, 0, 87, 0
2, 103760, Note_on_c, 0, 75, 0
2, 103760, Note_on_c, 0, 76, 101
2, 103760, Note_on_c, 0, 88, 101
2, 103839, Note_on_c, 0, 88, 0
2, 103839, Note_on_c, 0, 76, 0
2, 103839, Note_on_c, 0, 75, 101
2, 103839, Note_on_c, 0, 87, 101
2, 103920, Note_on_c, 0, 87, 0
2, 103920, Note_on_c, 0, 75, 0
2, 103920, Note_on_c, 0, 73, 101
2, 103920, Note_on_c, 0, 85, 101
2, 104000, Note_on_c, 0, 85, 0
2, 104000, Note_on_c, 0, 73, 0
2, 104000, Note_on_c, 0, 75, 101
2, 104000, Note_on_c, 0, 87, 101
2, 104079, Note_on_c, 0, 87, 0
2, 104079, Note_on_c, 0, 75, 0
2, 104079, Note_on_c, 0, 76, 101
2, 104079, Note_on_c, 0, 88, 101
2, 104160, Note_on_c, 0, 88, 0
2, 104160, Note_on_c, 0, 76, 0
2, 104160, Note_on_c, 0, 78, 101
2, 104160, Note_on_c, 0, 90, 101
2, 104175, Note_on_c, 0, 90, 0
2, 104175, Note_on_c, 0, 78, 0
2, 104240, Note_on_c, 0, 76, 101
2, 104240, Note_on_c, 0, 88, 101
2, 104256, Note_on_c, 0, 88, 0
2, 104256, Note_on_c, 0, 76, 0
2, 104319, Note_on_c, 0, 75, 101
2, 104319, Note_on_c, 0, 87, 101
2, 104335, Note_on_c, 0, 87, 0
2, 104335, Note_on_c, 0, 75, 0
2, 104400, Note_on_c, 0, 74, 101
2, 104400, Note_on_c, 0, 86, 101
2, 104415, Note_on_c, 0, 86, 0
2, 104415, Note_on_c, 0, 74, 0
2, 104480, Note_on_c, 0, 75, 101
2, 104480, Note_on_c, 0, 87, 101
2, 104496, Note_on_c, 0, 87, 0
2, 104496, Note_on_c, 0, 75, 0
2, 104559, Note_on_c, 0, 76, 101
2, 104559, Note_on_c, 0, 88, 101
2, 104575, Note_on_c, 0, 88, 0
2, 104575, Note_on_c, 0, 76, 0
2, 104640, Note_on_c, 0, 75, 101
2, 104640, Note_on_c, 0, 87, 101
2, 104655, Note_on_c, 0, 87, 0
2, 104655, Note_on_c, 0, 75, 0
2, 104720, Note_on_c, 0, 73, 101
2, 104720, Note_on_c, 0, 85, 101
2, 104736, Note_on_c, 0, 85, 0
2, 104736, Note_on_c, 0, 73, 0
2, 104799, Note_on_c, 0, 71, 101
2, 104799, Note_on_c, 0, 83, 101
2, 104815, Note_on_c, 0, 83, 0
2, 104815, Note_on_c, 0, 71, 0
2, 104880, Note_on_c, 0, 70, 101
2, 104880, Note_on_c, 0, 82, 101
2, 104895, Note_on_c, 0, 82, 0
2, 104895, Note_on_c, 0, 70, 0
2, 104960, Note_on_c, 0, 71, 101
2, 104960, Note_on_c, 0, 83, 101
2, 104976, Note_on_c, 0, 83, 0
2, 104976, Note_on_c, 0, 71, 0
2, 105039, Note_on_c, 0, 67, 101
2, 105039, Note_on_c, 0, 79, 101
2, 105055, Note_on_c, 0, 79, 0
2, 105055, Note_on_c, 0, 67, 0
2, 105120, Note_on_c, 0, 68, 101
2, 105120, Note_on_c, 0, 80, 101
2, 105135, Note_on_c, 0, 80, 0
2, 105135, Note_on_c, 0, 68, 0
2, 105200, Note_on_c, 0, 63, 101
2, 105200, Note_on_c, 0, 75, 101
2, 105216, Note_on_c, 0, 75, 0
2, 105216, Note_on_c, 0, 63, 0
2, 105279, Note_on_c, 0, 64, 101
2, 105279, Note_on_c, 0, 76, 101
2, 105295, Note_on_c, 0, 76, 0
2, 105295, Note_on_c, 0, 64, 0
2, 105360, Note_on_c, 0, 62, 101
2, 105360, Note_on_c, 0, 74, 101
2, 105375, Note_on_c, 0, 74, 0
2, 105375, Note_on_c, 0, 62, 0
2, 105440, Note_on_c, 0, 63, 101
2, 105440, Note_on_c, 0, 75, 101
2, 105456, Note_on_c, 0, 75, 0
2, 105456, Note_on_c, 0, 63, 0
2, 105519, Note_on_c, 0, 58, 101
2, 105519, Note_on_c, 0, 70, 101
2, 105535, Note_on_c, 0, 70, 0
2, 105535, Note_on_c, 0, 58, 0
2, 105600, Note_on_c, 0, 59, 101
2, 105600, Note_on_c, 0, 71, 101
2, 105615, Note_on_c, 0, 71, 0
2, 105615, Note_on_c, 0, 59, 0
2, 105680, Note_on_c, 0, 55, 101
2, 105680, Note_on_c, 0, 67, 101
2, 105696, Note_on_c, 0, 67, 0
2, 105696, Note_on_c, 0, 55, 0
2, 105759, Note_on_c, 0, 56, 101
2, 105759, Note_on_c, 0, 68, 101
2, 105775, Note_on_c, 0, 68, 0
2, 105775, Note_on_c, 0, 56, 0
2, 105840, Note_on_c, 0, 51, 101
2, 105840, Note_on_c, 0, 63, 101
2, 105855, Note_on_c, 0, 63, 0
2, 105855, Note_on_c, 0, 51, 0
2, 105920, Note_on_c, 0, 52, 101
2, 105920, Note_on_c, 0, 64, 101
2, 105936, Note_on_c, 0, 64, 0
2, 105936, Note_on_c, 0, 52, 0
2, 105999, Note_on_c, 0, 50, 101
2, 105999, Note_on_c, 0, 62, 101
2, 106015, Note_on_c, 0, 62, 0
2, 106015, Note_on_c, 0, 50, 0
2, 106080, Note_on_c, 0, 63, 101
2, 106127, Note_on_c, 0, 63, 0
2, 106320, Note_on_c, 0, 56, 62
2, 106367, Note_on_c, 0, 56, 0
2, 106560, Note_on_c, 0, 55, 62
2, 106607, Note_on_c, 0, 55, 0
2, 107280, Note_on_c, 0, 56, 62
2, 107327, Note_on_c, 0, 56, 0
2, 107520, Note_on_c, 0, 55, 62
2, 107760, Note_on_c, 0, 55, 0
2, 108480, Note_on_c, 0, 55, 49
2, 108720, Note_on_c, 0, 55, 0
2, 109440, Note_on_c, 0, 55, 49
2, 109680, Note_on_c, 0, 55, 0
2, 109920, Note_on_c, 0, 63, 62
2, 110400, Note_on_c, 0, 63, 0
2, 110400, Note_on_c, 0, 64, 62
2, 110480, Note_on_c, 0, 64, 0
2, 110480, Note_on_c, 0, 63, 62
2, 110559, Note_on_c, 0, 63, 0
2, 110559, Note_on_c, 0, 62, 62
2, 110640, Note_on_c, 0, 62, 0
2, 110640, Note_on_c, 0, 63, 62
2, 110880, Note_on_c, 0, 63, 0
2, 110880, Note_on_c, 0, 68, 62
2, 111120, Note_on_c, 0, 68, 0
2, 111120, Note_on_c, 0, 63, 62
2, 111840, Note_on_c, 0, 63, 0
2, 111840, Note_on_c, 0, 62, 62
2, 112320, Note_on_c, 0, 62, 0
2, 112320, Note_on_c, 0, 63, 62
2, 112400, Note_on_c, 0, 63, 0
2, 112400, Note_on_c, 0, 62, 62
2, 112479, Note_on_c, 0, 62, 0
2, 112479, Note_on_c, 0, 63, 62
2, 112560, Note_on_c, 0, 63, 0
2, 112560, Note_on_c, 0, 61, 62
2, 112800, Note_on_c, 0, 61, 0
2, 112800, Note_on_c, 0, 59, 62
2, 113040, Note_on_c, 0, 59, 0
2, 113040, Note_on_c, 0, 58, 62
2, 113760, Note_on_c, 0, 58, 0
2, 113760, Note_on_c, 0, 56, 62
2, 114240, Note_on_c, 0, 56, 0
2, 114240, Note_on_c, 0, 58, 62
2, 114320, Note_on_c, 0, 58, 0
2, 114320, Note_on_c, 0, 56, 62
2, 114399, Note_on_c, 0, 56, 0
2, 114399, Note_on_c, 0, 58, 62
2, 114480, Note_on_c, 0, 58, 0
2, 114480, Note_on_c, 0, 59, 62
2, 114720, Note_on_c, 0, 59, 0
2, 114720, Note_on_c, 0, 61, 75
2, 114960, Note_on_c, 0, 61, 0
2, 114960, Note_on_c, 0, 63, 75
2, 115680, Note_on_c, 0, 63, 0
2, 115680, Note_on_c, 0, 65, 75
2, 116160, Note_on_c, 0, 65, 0
2, 116160, Note_on_c, 0, 67, 75
2, 116240, Note_on_c, 0, 67, 0
2, 116240, Note_on_c, 0, 65, 75
2, 116319, Note_on_c, 0, 65, 0
2, 116319, Note_on_c, 0, 67, 75
2, 116400, Note_on_c, 0, 67, 0
2, 116400, Note_on_c, 0, 68, 75
2, 116640, Note_on_c, 0, 68, 0
2, 116640, Note_on_c, 0, 71, 75
2, 116880, Note_on_c, 0, 71, 0
2, 116880, Note_on_c, 0, 70, 75
2, 117600, Note_on_c, 0, 70, 0
2, 117600, Note_on_c, 0, 75, 114
2, 118080, Note_on_c, 0, 75, 0
2, 118080, Note_on_c, 0, 74, 88
2, 118160, Note_on_c, 0, 74, 0
2, 118160, Note_on_c, 0, 75, 88
2, 118239, Note_on_c, 0, 75, 0
2, 118239, Note_on_c, 0, 74, 88
2, 118320, Note_on_c, 0, 74, 0
2, 118320, Note_on_c, 0, 73, 88
2, 118560, Note_on_c, 0, 73, 0
2, 118560, Note_on_c, 0, 71, 88
2, 118800, Note_on_c, 0, 71, 0
2, 118800, Note_on_c, 0, 70, 88
2, 119520, Note_on_c, 0, 70, 0
2, 119520, Note_on_c, 0, 75, 114
2, 120000, Note_on_c, 0, 75, 0
2, 120000, Note_on_c, 0, 74, 88
2, 120080, Note_on_c, 0, 74, 0
2, 120080, Note_on_c, 0, 75, 88
2, 120159, Note_on_c, 0, 75, 0
2, 120159, Note_on_c, 0, 74, 88
2, 120240, Note_on_c, 0, 74, 0
2, 120240, Note_on_c, 0, 73, 88
2, 120480, Note_on_c, 0, 73, 0
2, 120480, Note_on_c, 0, 71, 88
2, 120720, Note_on_c, 0, 71, 0
2, 120720, Note_on_c, 0, 70, 88
2, 121440, Note_on_c, 0, 70, 0
2, 121440, Note_on_c, 0, 68, 75
2, 121920, Note_on_c, 0, 68, 0
2, 121920, Note_on_c, 0, 67, 75
2, 122000, Note_on_c, 0, 67, 0
2, 122000, Note_on_c, 0, 68, 75
2, 122079, Note_on_c, 0, 68, 0
2, 122079, Note_on_c, 0, 67, 75
2, 122160, Note_on_c, 0, 67, 0
2, 122160, Note_on_c, 0, 66, 75
2, 122400, Note_on_c, 0, 66, 0
2, 122400, Note_on_c, 0, 64, 75
2, 122640, Note_on_c, 0, 64, 0
2, 122640, Note_on_c, 0, 63, 75
2, 123360, Note_on_c, 0, 63, 0
2, 123360, Note_on_c, 0, 68, 62
2, 123840, Note_on_c, 0, 68, 0
2, 123840, Note_on_c, 0, 67, 62
2, 123920, Note_on_c, 0, 67, 0
2, 123920, Note_on_c, 0, 68, 62
2, 123999, Note_on_c, 0, 68, 0
2, 123999, Note_on_c, 0, 67, 62
2, 124080, Note_on_c, 0, 67, 0
2, 124080, Note_on_c, 0, 66, 62
2, 124320, Note_on_c, 0, 66, 0
2, 124320, Note_on_c, 0, 64, 62
2, 124560, Note_on_c, 0, 64, 0
2, 124560, Note_on_c, 0, 63, 62
2, 125760, Note_on_c, 0, 63, 0
2, 125760, Note_on_c, 0, 64, 49
2, 125840, Note_on_c, 0, 64, 0
2, 125840, Note_on_c, 0, 63, 49
2, 125919, Note_on_c, 0, 63, 0
2, 125919, Note_on_c, 0, 62, 49
2, 126000, Note_on_c, 0, 62, 0
2, 126000, Note_on_c, 0, 63, 49
2, 126240, Note_on_c, 0, 63, 0
2, 126240, Note_on_c, 0, 62, 49
2, 126480, Note_on_c, 0, 62, 0
2, 126480, Note_on_c, 0, 63, 49
2, 127680, Note_on_c, 0, 63, 0
2, 127680, Note_on_c, 0, 64, 49
2, 127760, Note_on_c, 0, 64, 0
2, 127760, Note_on_c, 0, 63, 49
2, 127839, Note_on_c, 0, 63, 0
2, 127839, Note_on_c, 0, 62, 49
2, 127920, Note_on_c, 0, 62, 0
2, 127920, Note_on_c, 0, 63, 49
2, 128160, Note_on_c, 0, 63, 0
2, 128160, Note_on_c, 0, 62, 49
2, 128400, Note_on_c, 0, 62, 0
2, 128400, Note_on_c, 0, 63, 49
2, 129120, Note_on_c, 0, 63, 0
2, 129120, Note_on_c, 0, 63, 62
2, 129600, Note_on_c, 0, 63, 0
2, 129600, Note_on_c, 0, 65, 62
2, 129680, Note_on_c, 0, 65, 0
2, 129680, Note_on_c, 0, 63, 62
2, 129759, Note_on_c, 0, 63, 0
2, 129759, Note_on_c, 0, 65, 62
2, 129840, Note_on_c, 0, 65, 0
2, 129840, Note_on_c, 0, 66, 62
2, 130080, Note_on_c, 0, 66, 0
2, 130080, Note_on_c, 0, 68, 62
2, 130320, Note_on_c, 0, 68, 0
2, 130320, Note_on_c, 0, 63, 62
2, 131040, Note_on_c, 0, 63, 0
2, 131040, Note_on_c, 0, 66, 75
2, 131520, Note_on_c, 0, 66, 0
2, 131520, Note_on_c, 0, 68, 75
2, 131600, Note_on_c, 0, 68, 0
2, 131600, Note_on_c, 0, 66, 75
2, 131679, Note_on_c, 0, 66, 0
2, 131679, Note_on_c, 0, 68, 75
2, 131760, Note_on_c, 0, 68, 0
2, 131760, Note_on_c, 0, 70, 75
2, 132000, Note_on_c, 0, 70, 0
2, 132000, Note_on_c, 0, 71, 75
2, 132240, Note_on_c, 0, 71, 0
2, 132240, Note_on_c, 0, 66, 75
2, 132960, Note_on_c, 0, 66, 0
2, 132960, Note_on_c, 0, 75, 75
2, 133440, Note_on_c, 0, 75, 0
2, 133440, Note_on_c, 0, 74, 75
2, 133520, Note_on_c, 0, 74, 0
2, 133520, Note_on_c, 0, 75, 75
2, 133599, Note_on_c, 0, 75, 0
2, 133599, Note_on_c, 0, 74, 75
2, 133680, Note_on_c, 0, 74, 0
2, 133680, Note_on_c, 0, 75, 75
2, 133920, Note_on_c, 0, 75, 0
2, 133920, Note_on_c, 0, 71, 75
2, 134400, Note_on_c, 0, 71, 0
2, 134400, Note_on_c, 0, 63, 75
2, 134400, Note_on_c, 0, 68, 75
2, 134880, Note_on_c, 0, 68, 0
2, 134880, Note_on_c, 0, 63, 0
2, 134880, Control_c, 0, 64, 127
2, 134880, Note_on_c, 0, 58, 62
2, 134880, Note_on_c, 0, 70, 62
2, 135360, Note_on_c, 0, 70, 0
2, 135360, Note_on_c, 0, 58, 0
2, 135360, Note_on_c, 0, 59, 62
2, 135360, Note_on_c, 0, 71, 62
2, 135600, Note_on_c, 0, 71, 0
2, 135600, Note_on_c, 0, 59, 0
2, 135600, Note_on_c, 0, 58, 62
2, 135600, Note_on_c, 0, 70, 62
2, 135840, Note_on_c, 0, 70, 0
2, 135840, Note_on_c, 0, 58, 0
2, 135840, Note_on_c, 0, 56, 62
2, 135840, Note_on_c, 0, 68, 62
2, 136320, Note_on_c, 0, 68, 0
2, 136320, Note_on_c, 0, 56, 0
2, 136320, Control_c, 0, 64, 0
2, 136320, Note_on_c, 0, 54, 62
2, 136320, Note_on_c, 0, 66, 62
2, 136800, Note_on_c, 0, 66, 0
2, 136800, Note_on_c, 0, 54, 0
2, 136800, Note_on_c, 0, 63, 62
2, 137280, Note_on_c, 0, 63, 0
2, 137280, Note_on_c, 0, 65, 62
2, 137360, Note_on_c, 0, 65, 0
2, 137360, Note_on_c, 0, 63, 62
2, 137439, Note_on_c, 0, 63, 0
2, 137439, Note_on_c, 0, 65, 62
2, 137520, Note_on_c, 0, 65, 0
2, 137520, Note_on_c, 0, 66, 62
2, 137760, Note_on_c, 0, 66, 0
2, 137760, Note_on_c, 0, 68, 75
2, 138000, Note_on_c, 0, 68, 0
2, 138000, Note_on_c, 0, 63, 75
2, 138720, Note_on_c, 0, 63, 0
2, 138720, Note_on_c, 0, 66, 75
2, 139200, Note_on_c, 0, 66, 0
2, 139200, Note_on_c, 0, 68, 75
2, 139280, Note_on_c, 0, 68, 0
2, 139280, Note_on_c, 0, 66, 75
2, 139359, Note_on_c, 0, 66, 0
2, 139359, Note_on_c, 0, 68, 75
2, 139440, Note_on_c, 0, 68, 0
2, 139440, Note_on_c, 0, 70, 75
2, 139680, Note_on_c, 0, 70, 0
2, 139680, Note_on_c, 0, 71, 75
2, 139920, Note_on_c, 0, 71, 0
2, 139920, Note_on_c, 0, 66, 75
2, 140640, Note_on_c, 0, 66, 0
2, 140640, Note_on_c, 0, 75, 75
2, 141120, Note_on_c, 0, 75, 0
2, 141120, Note_on_c, 0, 74, 75
2, 141200, Note_on_c, 0, 74, 0
2, 141200, Note_on_c, 0, 75, 75
2, 141279, Note_on_c, 0, 75, 0
2, 141279, Note_on_c, 0, 74, 75
2, 141360, Note_on_c, 0, 74, 0
2, 141360, Note_on_c, 0, 75, 75
2, 141600, Note_on_c, 0, 75, 0
2, 141600, Note_on_c, 0, 80, 75
2, 142080, Note_on_c, 0, 80, 0
2, 142080, Note_on_c, 0, 63, 75
2, 142080, Note_on_c, 0, 68, 75
2, 142560, Note_on_c, 0, 68, 0
2, 142560, Note_on_c, 0, 63, 0
2, 142560, Control_c, 0, 64, 127
2, 142560, Note_on_c, 0, 59, 62
2, 142560, Note_on_c, 0, 71, 62
2, 143040, Note_on_c, 0, 71, 0
2, 143040, Note_on_c, 0, 59, 0
2, 143040, Note_on_c, 0, 61, 62
2, 143040, Note_on_c, 0, 73, 62
2, 143280, Note_on_c, 0, 73, 0
2, 143280, Note_on_c, 0, 61, 0
2, 143280, Note_on_c, 0, 62, 62
2, 143280, Note_on_c, 0, 74, 62
2, 143520, Note_on_c, 0, 74, 0
2, 143520, Note_on_c, 0, 62, 0
2, 143520, Control_c, 0, 64, 0
2, 143520, Note_on_c, 0, 63, 62
2, 143520, Note_on_c, 0, 66, 62
2, 143520, Note_on_c, 0, 75, 62
2, 144000, Note_on_c, 0, 75, 0
2, 144000, Note_on_c, 0, 66, 0
2, 144000, Note_on_c, 0, 63, 0
2, 144000, Note_on_c, 0, 55, 62
2, 144000, Note_on_c, 0, 61, 62
2, 144000, Note_on_c, 0, 63, 62
2, 144000, Note_on_c, 0, 67, 62
2, 144480, Note_on_c, 0, 67, 0
2, 144480, Note_on_c, 0, 55, 0
2, 144480, Note_on_c, 0, 61, 0
2, 144480, Note_on_c, 0, 63, 0
2, 144720, Note_on_c, 0, 71, 49
2, 144720, Note_on_c, 0, 75, 49
2, 144960, Note_on_c, 0, 75, 0
2, 144960, Note_on_c, 0, 71, 0
2, 145200, Note_on_c, 0, 63, 49
2, 145200, Note_on_c, 0, 71, 49
2, 145440, Note_on_c, 0, 71, 0
2, 145440, Note_on_c, 0, 63, 0
2, 145680, Note_on_c, 0, 67, 49
2, 145800, Note_on_c, 0, 67, 0
2, 145800, Note_on_c, 0, 68, 49
2, 145920, Note_on_c, 0, 68, 0
2, 146160, Note_on_c, 0, 66, 49
2, 146280, Note_on_c, 0, 66, 0
2, 146280, Note_on_c, 0, 67, 49
2, 146400, Note_on_c, 0, 67, 0
2, 146640, Note_on_c, 0, 64, 49
2, 146760, Note_on_c, 0, 64, 0
2, 146760, Note_on_c, 0, 65, 49
2, 146880, Note_on_c, 0, 65, 0
2, 147120, Note_on_c, 0, 66, 49
2, 147240, Note_on_c, 0, 66, 0
2, 147240, Note_on_c, 0, 67, 49
2, 147360, Note_on_c, 0, 67, 0
2, 147600, Note_on_c, 0, 67, 49
2, 147720, Note_on_c, 0, 67, 0
2, 147720, Note_on_c, 0, 68, 49
2, 147840, Note_on_c, 0, 68, 0
2, 148080, Note_on_c, 0, 68, 49
2, 148200, Note_on_c, 0, 68, 0
2, 148200, Note_on_c, 0, 67, 49
2, 148320, Note_on_c, 0, 67, 0
2, 148560, Note_on_c, 0, 63, 49
2, 148560, Note_on_c, 0, 68, 49
2, 148800, Note_on_c, 0, 68, 0
2, 148800, Note_on_c, 0, 63, 0
2, 149040, Note_on_c, 0, 63, 49
2, 149280, Note_on_c, 0, 63, 0
2, 149520, Note_on_c, 0, 63, 49
2, 149520, Note_on_c, 0, 71, 49
2, 149760, Note_on_c, 0, 71, 0
2, 149760, Note_on_c, 0, 63, 0
2, 150000, Note_on_c, 0, 70, 49
2, 150000, Note_on_c, 0, 75, 49
2, 150240, Note_on_c, 0, 75, 0
2, 150240, Note_on_c, 0, 70, 0
2, 150480, Note_on_c, 0, 68, 49
2, 150480, Note_on_c, 0, 75, 49
2, 150720, Note_on_c, 0, 75, 0
2, 150720, Note_on_c, 0, 68, 0
2, 150960, Note_on_c, 0, 63, 49
2, 150960, Note_on_c, 0, 71, 49
2, 151200, Note_on_c, 0, 71, 0
2, 151200, Note_on_c, 0, 63, 0
2, 151440, Note_on_c, 0, 61, 49
2, 151440, Note_on_c, 0, 63, 49
2, 151680, Note_on_c, 0, 63, 0
2, 151680, Note_on_c, 0, 61, 0
2, 151920, Note_on_c, 0, 67, 49
2, 151920, Note_on_c, 0, 73, 49
2, 152160, Note_on_c, 0, 73, 0
2, 152160, Note_on_c, 0, 67, 0
2, 152400, Note_on_c, 0, 70, 62
2, 152520, Note_on_c, 0, 70, 0
2, 152520, Note_on_c, 0, 71, 62
2, 152640, Note_on_c, 0, 71, 0
2, 152880, Note_on_c, 0, 67, 62
2, 153000, Note_on_c, 0, 67, 0
2, 153000, Note_on_c, 0, 68, 62
2, 153120, Note_on_c, 0, 68, 0
2, 153360, Note_on_c, 0, 74, 62
2, 153480, Note_on_c, 0, 74, 0
2, 153480, Note_on_c, 0, 75, 62
2, 153600, Note_on_c, 0, 75, 0
2, 153840, Note_on_c, 0, 66, 62
2, 153960, Note_on_c, 0, 66, 0
2, 153960, Note_on_c, 0, 67, 62
2, 154080, Note_on_c, 0, 67, 0
2, 154320, Note_on_c, 0, 70, 62
2, 154440, Note_on_c, 0, 70, 0
2, 154440, Note_on_c, 0, 71, 62
2, 154560, Note_on_c, 0, 71, 0
2, 154800, Note_on_c, 0, 67, 62
2, 154920, Note_on_c, 0, 67, 0
2, 154920, Note_on_c, 0, 68, 62
2, 155040, Note_on_c, 0, 68, 0
2, 155280, Note_on_c, 0, 74, 62
2, 155400, Note_on_c, 0, 74, 0
2, 155400, Note_on_c, 0, 75, 62
2, 155520, Note_on_c, 0, 75, 0
2, 155760, Note_on_c, 0, 66, 62
2, 155880, Note_on_c, 0, 66, 0
2, 155880, Note_on_c, 0, 67, 62
2, 156000, Note_on_c, 0, 67, 0
2, 156240, Note_on_c, 0, 62, 49
2, 156360, Note_on_c, 0, 62, 0
2, 156360, Note_on_c, 0, 63, 49
2, 156480, Note_on_c, 0, 63, 0
2, 156720, Note_on_c, 0, 70, 49
2, 156840, Note_on_c, 0, 70, 0
2, 156840, Note_on_c, 0, 71, 49
2, 156960, Note_on_c, 0, 71, 0
2, 157200, Note_on_c, 0, 67, 49
2, 157320, Note_on_c, 0, 67, 0
2, 157320, Note_on_c, 0, 68, 49
2, 157440, Note_on_c, 0, 68, 0
2, 157680, Note_on_c, 0, 62, 49
2, 157800, Note_on_c, 0, 62, 0
2, 157800, Note_on_c, 0, 63, 49
2, 157920, Note_on_c, 0, 63, 0
2, 158160, Note_on_c, 0, 62, 49
2, 158280, Note_on_c, 0, 62, 0
2, 158280, Note_on_c, 0, 63, 49
2, 158400, Note_on_c, 0, 63, 0
2, 158640, Note_on_c, 0, 70, 49
2, 158760, Note_on_c, 0, 70, 0
2, 158760, Note_on_c, 0, 71, 49
2, 158880, Note_on_c, 0, 71, 0
2, 159120, Note_on_c, 0, 67, 49
2, 159240, Note_on_c, 0, 67, 0
2, 159240, Note_on_c, 0, 68, 49
2, 159360, Note_on_c, 0, 68, 0
2, 159600, Note_on_c, 0, 62, 49
2, 159720, Note_on_c, 0, 62, 0
2, 159720, Note_on_c, 0, 63, 49
2, 159840, Note_on_c, 0, 63, 0
2, 160080, Note_on_c, 0, 62, 49
2, 160200, Note_on_c, 0, 62, 0
2, 160200, Note_on_c, 0, 63, 49
2, 160320, Note_on_c, 0, 63, 0
2, 160560, Note_on_c, 0, 62, 49
2, 160680, Note_on_c, 0, 62, 0
2, 160680, Note_on_c, 0, 63, 49
2, 160800, Note_on_c, 0, 63, 0
2, 161040, Note_on_c, 0, 62, 49
2, 161160, Note_on_c, 0, 62, 0
2, 161160, Note_on_c, 0, 63, 49
2, 161280, Note_on_c, 0, 63, 0
2, 161520, Note_on_c, 0, 62, 49
2, 161640, Note_on_c, 0, 62, 0
2, 161640, Note_on_c, 0, 63, 49
2, 161760, Note_on_c, 0, 63, 0
2, 162000, Note_on_c, 0, 62, 49
2, 162120, Note_on_c, 0, 62, 0
2, 162120, Note_on_c, 0, 63, 49
2, 162240, Note_on_c, 0, 63, 0
2, 162480, Note_on_c, 0, 62, 49
2, 162600, Note_on_c, 0, 62, 0
2, 162600, Note_on_c, 0, 63, 49
2, 162720, Note_on_c, 0, 63, 0
2, 162960, Note_on_c, 0, 62, 49
2, 163080, Note_on_c, 0, 62, 0
2, 163080, Note_on_c, 0, 63, 49
2, 163200, Note_on_c, 0, 63, 0
2, 163440, Note_on_c, 0, 62, 49
2, 163560, Note_on_c, 0, 62, 0
2, 163560, Note_on_c, 0, 63, 49
2, 163680, Note_on_c, 0, 63, 0
2, 163920, Note_on_c, 0, 62, 49
2, 164040, Note_on_c, 0, 62, 0
2, 164040, Note_on_c, 0, 63, 49
2, 164160, Note_on_c, 0, 63, 0
2, 164400, Note_on_c, 0, 62, 49
2, 164520, Note_on_c, 0, 62, 0
2, 164520, Note_on_c, 0, 63, 49
2, 164640, Note_on_c, 0, 63, 0
2, 164880, Note_on_c, 0, 62, 49
2, 165000, Note_on_c, 0, 62, 0
2, 165000, Note_on_c, 0, 63, 49
2, 165120, Note_on_c, 0, 63, 0
2, 165360, Note_on_c, 0, 62, 49
2, 165480, Note_on_c, 0, 62, 0
2, 165480, Note_on_c, 0, 63, 49
2, 165600, Note_on_c, 0, 63, 0
2, 165840, Note_on_c, 0, 62, 49
2, 165960, Note_on_c, 0, 62, 0
2, 165960, Note_on_c, 0, 63, 49
2, 166080, Note_on_c, 0, 63, 0
2, 166320, Note_on_c, 0, 62, 49
2, 166440, Note_on_c, 0, 62, 0
2, 166440, Note_on_c, 0, 63, 49
2, 166560, Note_on_c, 0, 63, 0
2, 166800, Note_on_c, 0, 62, 49
2, 166920, Note_on_c, 0, 62, 0
2, 166920, Note_on_c, 0, 63, 49
2, 167040, Note_on_c, 0, 63, 0
2, 167280, Note_on_c, 0, 62, 49
2, 167400, Note_on_c, 0, 62, 0
2, 167400, Note_on_c, 0, 63, 49
2, 167520, Note_on_c, 0, 63, 0
2, 167760, Note_on_c, 0, 62, 49
2, 167880, Note_on_c, 0, 62, 0
2, 167880, Note_on_c, 0, 63, 49
2, 168000, Note_on_c, 0, 63, 0
2, 168240, Note_on_c, 0, 62, 49
2, 168360, Note_on_c, 0, 62, 0
2, 168360, Note_on_c, 0, 63, 49
2, 168480, Note_on_c, 0, 63, 0
2, 168720, Note_on_c, 0, 62, 49
2, 168840, Note_on_c, 0, 62, 0
2, 168840, Note_on_c, 0, 63, 49
2, 168960, Note_on_c, 0, 63, 0
2, 169200, Note_on_c, 0, 62, 49
2, 169320, Note_on_c, 0, 62, 0
2, 169320, Note_on_c, 0, 63, 49
2, 169440, Note_on_c, 0, 63, 0
2, 169680, Note_on_c, 0, 62, 49
2, 169800, Note_on_c, 0, 62, 0
2, 169800, Note_on_c, 0, 63, 49
2, 169920, Note_on_c, 0, 63, 0
2, 170880, Note_on_c, 0, 55, 49
2, 170880, Note_on_c, 0, 63, 49
2, 171120, Note_on_c, 0, 63, 0
2, 171120, Note_on_c, 0, 55, 0
2, 171360, Note_on_c, 0, 56, 49
2, 171360, Note_on_c, 0, 63, 49
2, 171600, Note_on_c, 0, 63, 0
2, 171600, Note_on_c, 0, 56, 0
2, 172800, Note_on_c, 0, 55, 49
2, 172800, Note_on_c, 0, 63, 49
2, 173040, Note_on_c, 0, 63, 0
2, 173040, Note_on_c, 0, 55, 0
2, 173280, Note_on_c, 0, 56, 49
2, 173280, Note_on_c, 0, 63, 49
2, 173520, Note_on_c, 0, 63, 0
2, 173520, Note_on_c, 0, 56, 0
2, 174240, Note_on_c, 0, 56, 49
2, 174240, Note_on_c, 0, 63, 49
2, 174480, Note_on_c, 0, 63, 0
2, 174480, Note_on_c, 0, 56, 0
2, 175200, Note_on_c, 0, 56, 49
2, 175200, Note_on_c, 0, 63, 49
2, 175440, Note_on_c, 0, 63, 0
2, 175440, Note_on_c, 0, 56, 0
2, 175440, Control_c, 0, 64, 127
2, 177600, Control_c, 0, 64, 0
2, 177600, End_track
3, 0, Start_track
3, 0, Title_t, "Grand Piano"
3, 0, Program_c, 0, 0
3, 0, Control_c, 0, 7, 115
3, 0, Control_c, 0, 10, 80
3, 0, Note_on_c, 0, 56, 49
3, 0, Note_on_c, 0, 59, 49
3, 240, Note_on_c, 0, 59, 0
3, 240, Note_on_c, 0, 56, 0
3, 1440, Note_on_c, 0, 55, 49
3, 1440, Note_on_c, 0, 58, 49
3, 1680, Note_on_c, 0, 58, 0
3, 1680, Note_on_c, 0, 55, 0
3, 1920, Note_on_c, 0, 56, 49
3, 1920, Note_on_c, 0, 59, 49
3, 2160, Note_on_c, 0, 59, 0
3, 2160, Note_on_c, 0, 56, 0
3, 3360, Note_on_c, 0, 51, 49
3, 3360, Note_on_c, 0, 55, 49
3, 3600, Note_on_c, 0, 55, 0
3, 3600, Note_on_c, 0, 51, 0
3, 3840, Note_on_c, 0, 47, 49
3, 3840, Note_on_c, 0, 51, 49
3, 4080, Note_on_c, 0, 51, 0
3, 4080, Note_on_c, 0, 47, 0
3, 5280, Note_on_c, 0, 55, 62
3, 5280, Note_on_c, 0, 58, 62
3, 5520, Note_on_c, 0, 58, 0
3, 5520, Note_on_c, 0, 55, 0
3, 5760, Note_on_c, 0, 59, 62
3, 5760, Note_on_c, 0, 63, 62
3, 6000, Note_on_c, 0, 63, 0
3, 6000, Note_on_c, 0, 59, 0
3, 7200, Note_on_c, 0, 63, 62
3, 7200, Note_on_c, 0, 67, 62
3, 7440, Note_on_c, 0, 67, 0
3, 7440, Note_on_c, 0, 63, 0
3, 7680, Note_on_c, 0, 63, 75
3, 7680, Note_on_c, 0, 68, 75
3, 7680, Note_on_c, 0, 71, 75
3, 8160, Note_on_c, 0, 71, 0
3, 8160, Note_on_c, 0, 68, 0
3, 8160, Note_on_c, 0, 63, 0
3, 9120, Note_on_c, 0, 63, 75
3, 9120, Note_on_c, 0, 67, 75
3, 9360, Note_on_c, 0, 67, 0
3, 9360, Note_on_c, 0, 63, 0
3, 9600, Note_on_c, 0, 63, 75
3, 9600, Note_on_c, 0, 68, 75
3, 9600, Note_on_c, 0, 71, 75
3, 10080, Note_on_c, 0, 71, 0
3, 10080, Note_on_c, 0, 68, 0
3, 10080, Note_on_c, 0, 63, 0
3, 11040, Note_on_c, 0, 63, 75
3, 11040, Note_on_c, 0, 67, 75
3, 11280, Note_on_c, 0, 67, 0
3, 11280, Note_on_c, 0, 63, 0
3, 11520, Note_on_c, 0, 59, 62
3, 11520, Note_on_c, 0, 63, 62
3, 11760, Note_on_c, 0, 63, 0
3, 11760, Note_on_c, 0, 59, 0
3, 12960, Note_on_c, 0, 55, 62
3, 12960, Note_on_c, 0, 58, 62
3, 13200, Note_on_c, 0, 58, 0
3, 13200, Note_on_c, 0, 55, 0
3, 13440, Note_on_c, 0, 59, 49
3, 13440, Note_on_c, 0, 63, 49
3, 13680, Note_on_c, 0, 63, 0
3, 13680, Note_on_c, 0, 59, 0
3, 14880, Note_on_c, 0, 55, 49
3, 14880, Note_on_c, 0, 58, 49
3, 15120, Note_on_c, 0, 58, 0
3, 15120, Note_on_c, 0, 55, 0
3, 15360, Note_on_c, 0, 56, 49
3, 15600, Note_on_c, 0, 56, 0
3, 16800, Note_on_c, 0, 55, 49
3, 16800, Note_on_c, 0, 58, 49
3, 17040, Note_on_c, 0, 58, 0
3, 17040, Note_on_c, 0, 55, 0
3, 17280, Note_on_c, 0, 56, 49
3, 17280, Note_on_c, 0, 59, 49
3, 17520, Note_on_c, 0, 59, 0
3, 17520, Note_on_c, 0, 56, 0
3, 18720, Note_on_c, 0, 55, 49
3, 18720, Note_on_c, 0, 58, 49
3, 18960, Note_on_c, 0, 58, 0
3, 18960, Note_on_c, 0, 55, 0
3, 19200, Note_on_c, 0, 59, 49
3, 20160, Note_on_c, 0, 59, 0
3, 20160, Note_on_c, 0, 58, 49
3, 20160, Note_on_c, 0, 63, 49
3, 20400, Note_on_c, 0, 63, 0
3, 20400, Note_on_c, 0, 58, 0
3, 20400, Note_on_c, 0, 58, 49
3, 20400, Note_on_c, 0, 63, 49
3, 21120, Note_on_c, 0, 63, 0
3, 21120, Note_on_c, 0, 58, 0
3, 21120, Note_on_c, 0, 63, 62
3, 22080, Note_on_c, 0, 63, 0
3, 22080, Note_on_c, 0, 61, 62
3, 22080, Note_on_c, 0, 66, 62
3, 22320, Note_on_c, 0, 66, 0
3, 22320, Note_on_c, 0, 61, 0
3, 22320, Note_on_c, 0, 61, 62
3, 22320, Note_on_c, 0, 66, 62
3, 23040, Note_on_c, 0, 66, 0
3, 23040, Note_on_c, 0, 61, 0
3, 23040, Note_on_c, 0, 63, 62
3, 23040, Note_on_c, 0, 66, 62
3, 23520, Note_on_c, 0, 66, 0
3, 23520, Note_on_c, 0, 63, 0
3, 24000, Note_on_c, 0, 59, 62
3, 24000, Note_on_c, 0, 63, 62
3, 24480, Note_on_c, 0, 63, 0
3, 24480, Note_on_c, 0, 59, 0
3, 24480, Note_on_c, 0, 61, 62
3, 24560, Note_on_c, 0, 61, 0
3, 24560, Note_on_c, 0, 59, 62
3, 24639, Note_on_c, 0, 59, 0
3, 24639, Note_on_c, 0, 61, 62
3, 24720, Note_on_c, 0, 61, 0
3, 24720, Note_on_c, 0, 59, 62
3, 24960, Note_on_c, 0, 59, 0
3, 24960, Note_on_c, 0, 68, 49
3, 25920, Note_on_c, 0, 68, 0
3, 25920, Note_on_c, 0, 59, 49
3, 26880, Note_on_c, 0, 59, 0
3, 26880, Note_on_c, 0, 59, 49
3, 27840, Note_on_c, 0, 59, 0
3, 27840, Note_on_c, 0, 58, 62
3, 27840, Note_on_c, 0, 63, 62
3, 28080, Note_on_c, 0, 63, 0
3, 28080, Note_on_c, 0, 58, 0
3, 28080, Note_on_c, 0, 58, 62
3, 28080, Note_on_c, 0, 63, 62
3, 28800, Note_on_c, 0, 63, 0
3, 28800, Note_on_c, 0, 58, 0
3, 28800, Note_on_c, 0, 63, 62
3, 29760, Note_on_c, 0, 63, 0
3, 29760, Note_on_c, 0, 61, 62
3, 29760, Note_on_c, 0, 66, 62
3, 30000, Note_on_c, 0, 66, 0
3, 30000, Note_on_c, 0, 61, 0
3, 30000, Note_on_c, 0, 61, 62
3, 30000, Note_on_c, 0, 66, 62
3, 30720, Note_on_c, 0, 66, 0
3, 30720, Note_on_c, 0, 61, 0
3, 30720, Note_on_c, 0, 63, 62
3, 30720, Note_on_c, 0, 66, 62
3, 31200, Note_on_c, 0, 66, 0
3, 31200, Note_on_c, 0, 63, 0
3, 31680, Note_on_c, 0, 68, 62
3, 31680, Note_on_c, 0, 71, 62
3, 32160, Note_on_c, 0, 71, 0
3, 32160, Note_on_c, 0, 68, 0
3, 32160, Note_on_c, 0, 61, 62
3, 32240, Note_on_c, 0, 61, 0
3, 32240, Note_on_c, 0, 59, 62
3, 32319, Note_on_c, 0, 59, 0
3, 32319, Note_on_c, 0, 61, 62
3, 32400, Note_on_c, 0, 61, 0
3, 32400, Note_on_c, 0, 59, 62
3, 32640, Note_on_c, 0, 59, 0
3, 32640, Note_on_c, 0, 68, 49
3, 33120, Note_on_c, 0, 68, 0
3, 33120, Note_on_c, 0, 68, 49
3, 33600, Note_on_c, 0, 68, 0
3, 34800, Note_on_c, 0, 67, 49
3, 34920, Note_on_c, 0, 67, 0
3, 34920, Note_on_c, 0, 68, 49
3, 35040, Note_on_c, 0, 68, 0
3, 35280, Note_on_c, 0, 67, 49
3, 35400, Note_on_c, 0, 67, 0
3, 35400, Note_on_c, 0, 68, 49
3, 35520, Note_on_c, 0, 68, 0
3, 35760, Note_on_c, 0, 59, 49
3, 35760, Note_on_c, 0, 63, 49
3, 36000, Note_on_c, 0, 63, 0
3, 36000, Note_on_c, 0, 59, 0
3, 36240, Note_on_c, 0, 61, 49
3, 36240, Note_on_c, 0, 63, 49
3, 36480, Note_on_c, 0, 63, 0
3, 36480, Note_on_c, 0, 61, 0
3, 36720, Note_on_c, 0, 59, 49
3, 36960, Note_on_c, 0, 59, 0
3, 37200, Note_on_c, 0, 58, 49
3, 37200, Note_on_c, 0, 63, 49
3, 37440, Note_on_c, 0, 63, 0
3, 37440, Note_on_c, 0, 58, 0
3, 37680, Note_on_c, 0, 62, 49
3, 37920, Note_on_c, 0, 62, 0
3, 38160, Note_on_c, 0, 61, 49
3, 38160, Note_on_c, 0, 70, 49
3, 38400, Note_on_c, 0, 70, 0
3, 38400, Note_on_c, 0, 61, 0
3, 38640, Note_on_c, 0, 61, 49
3, 38760, Note_on_c, 0, 61, 0
3, 38760, Note_on_c, 0, 59, 49
3, 38880, Note_on_c, 0, 59, 0
3, 39120, Note_on_c, 0, 55, 49
3, 39240, Note_on_c, 0, 55, 0
3, 39240, Note_on_c, 0, 56, 49
3, 39360, Note_on_c, 0, 56, 0
3, 39600, Note_on_c, 0, 67, 49
3, 39720, Note_on_c, 0, 67, 0
3, 39720, Note_on_c, 0, 68, 49
3, 39840, Note_on_c, 0, 68, 0
3, 40080, Note_on_c, 0, 68, 49
3, 40200, Note_on_c, 0, 68, 0
3, 40200, Note_on_c, 0, 67, 49
3, 40320, Note_on_c, 0, 67, 0
3, 40560, Note_on_c, 0, 70, 49
3, 40680, Note_on_c, 0, 70, 0
3, 40680, Note_on_c, 0, 71, 49
3, 40800, Note_on_c, 0, 71, 0
3, 41040, Note_on_c, 0, 70, 49
3, 41160, Note_on_c, 0, 70, 0
3, 41160, Note_on_c, 0, 68, 49
3, 41280, Note_on_c, 0, 68, 0
3, 41520, Note_on_c, 0, 66, 49
3, 41640, Note_on_c, 0, 66, 0
3, 41640, Note_on_c, 0, 67, 49
3, 41760, Note_on_c, 0, 67, 0
3, 42000, Note_on_c, 0, 74, 49
3, 42120, Note_on_c, 0, 74, 0
3, 42120, Note_on_c, 0, 75, 49
3, 42240, Note_on_c, 0, 75, 0
3, 42480, Note_on_c, 0, 68, 62
3, 42720, Note_on_c, 0, 68, 0
3, 42960, Note_on_c, 0, 63, 62
3, 43200, Note_on_c, 0, 63, 0
3, 43440, Note_on_c, 0, 67, 62
3, 43440, Note_on_c, 0, 73, 62
3, 43680, Note_on_c, 0, 73, 0
3, 43680, Note_on_c, 0, 67, 0
3, 43920, Note_on_c, 0, 61, 62
3, 43920, Note_on_c, 0, 63, 62
3, 44160, Note_on_c, 0, 63, 0
3, 44160, Note_on_c, 0, 61, 0
3, 44400, Note_on_c, 0, 68, 62
3, 44640, Note_on_c, 0, 68, 0
3, 44880, Note_on_c, 0, 63, 62
3, 45120, Note_on_c, 0, 63, 0
3, 45360, Note_on_c, 0, 67, 62
3, 45360, Note_on_c, 0, 73, 62
3, 45600, Note_on_c, 0, 73, 0
3, 45600, Note_on_c, 0, 67, 0
3, 45840, Note_on_c, 0, 61, 62
3, 45840, Note_on_c, 0, 63, 62
3, 46080, Note_on_c, 0, 63, 0
3, 46080, Note_on_c, 0, 61, 0
3, 46320, Note_on_c, 0, 59, 49
3, 46560, Note_on_c, 0, 59, 0
3, 46800, Note_on_c, 0, 63, 49
3, 46800, Note_on_c, 0, 68, 49
3, 47040, Note_on_c, 0, 68, 0
3, 47040, Note_on_c, 0, 63, 0
3, 47280, Note_on_c, 0, 59, 49
3, 47280, Note_on_c, 0, 63, 49
3, 47520, Note_on_c, 0, 63, 0
3, 47520, Note_on_c, 0, 59, 0
3, 47760, Note_on_c, 0, 55, 49
3, 47760, Note_on_c, 0, 61, 49
3, 48000, Note_on_c, 0, 61, 0
3, 48000, Note_on_c, 0, 55, 0
3, 48240, Note_on_c, 0, 59, 49
3, 48480, Note_on_c, 0, 59, 0
3, 48720, Note_on_c, 0, 63, 49
3, 48720, Note_on_c, 0, 68, 49
3, 48960, Note_on_c, 0, 68, 0
3, 48960, Note_on_c, 0, 63, 0
3, 49200, Note_on_c, 0, 59, 49
3, 49200, Note_on_c, 0, 63, 49
3, 49440, Note_on_c, 0, 63, 0
3, 49440, Note_on_c, 0, 59, 0
3, 49680, Note_on_c, 0, 55, 49
3, 49680, Note_on_c, 0, 61, 49
3, 49920, Note_on_c, 0, 61, 0
3, 49920, Note_on_c, 0, 55, 0
3, 50160, Note_on_c, 0, 56, 49
3, 50160, Note_on_c, 0, 59, 49
3, 50400, Note_on_c, 0, 59, 0
3, 50400, Note_on_c, 0, 56, 0
3, 50640, Note_on_c, 0, 55, 49
3, 50640, Note_on_c, 0, 61, 49
3, 50880, Note_on_c, 0, 61, 0
3, 50880, Note_on_c, 0, 55, 0
3, 51120, Note_on_c, 0, 56, 49
3, 51120, Note_on_c, 0, 59, 49
3, 51360, Note_on_c, 0, 59, 0
3, 51360, Note_on_c, 0, 56, 0
3, 51600, Note_on_c, 0, 55, 49
3, 51600, Note_on_c, 0, 61, 49
3, 51840, Note_on_c, 0, 61, 0
3, 51840, Note_on_c, 0, 55, 0
3, 52080, Note_on_c, 0, 56, 49
3, 52080, Note_on_c, 0, 59, 49
3, 52320, Note_on_c, 0, 59, 0
3, 52320, Note_on_c, 0, 56, 0
3, 55680, Note_on_c, 0, 66, 49
3, 55740, Note_on_c, 0, 66, 0
3, 55740, Note_on_c, 0, 68, 49
3, 55800, Note_on_c, 0, 68, 0
3, 55800, Note_on_c, 0, 66, 49
3, 55823, Note_on_c, 0, 66, 0
3, 55920, Note_on_c, 0, 70, 49
3, 55980, Note_on_c, 0, 70, 0
3, 55980, Note_on_c, 0, 71, 49
3, 56040, Note_on_c, 0, 71, 0
3, 56040, Note_on_c, 0, 70, 49
3, 56063, Note_on_c, 0, 70, 0
3, 56160, Note_on_c, 0, 73, 49
3, 56220, Note_on_c, 0, 73, 0
3, 56220, Note_on_c, 0, 75, 49
3, 56280, Note_on_c, 0, 75, 0
3, 56280, Note_on_c, 0, 73, 49
3, 56303, Note_on_c, 0, 73, 0
3, 56400, Note_on_c, 0, 76, 49
3, 56460, Note_on_c, 0, 76, 0
3, 56460, Note_on_c, 0, 78, 49
3, 56520, Note_on_c, 0, 78, 0
3, 56520, Note_on_c, 0, 76, 49
3, 56543, Note_on_c, 0, 76, 0
3, 56640, Note_on_c, 0, 77, 49
3, 56700, Note_on_c, 0, 77, 0
3, 56700, Note_on_c, 0, 78, 49
3, 56760, Note_on_c, 0, 78, 0
3, 56760, Note_on_c, 0, 77, 49
3, 56783, Note_on_c, 0, 77, 0
3, 56880, Note_on_c, 0, 78, 49
3, 56940, Note_on_c, 0, 78, 0
3, 56940, Note_on_c, 0, 80, 49
3, 57000, Note_on_c, 0, 80, 0
3, 57000, Note_on_c, 0, 78, 49
3, 57023, Note_on_c, 0, 78, 0
3, 57120, Note_on_c, 0, 83, 49
3, 57180, Note_on_c, 0, 83, 0
3, 57180, Note_on_c, 0, 85, 49
3, 57240, Note_on_c, 0, 85, 0
3, 57240, Note_on_c, 0, 83, 49
3, 57263, Note_on_c, 0, 83, 0
3, 57360, Note_on_c, 0, 87, 49
3, 57420, Note_on_c, 0, 87, 0
3, 57420, Note_on_c, 0, 88, 49
3, 57480, Note_on_c, 0, 88, 0
3, 57480, Note_on_c, 0, 87, 49
3, 57503, Note_on_c, 0, 87, 0
3, 59520, Note_on_c, 0, 66, 49
3, 59580, Note_on_c, 0, 66, 0
3, 59580, Note_on_c, 0, 68, 49
3, 59640, Note_on_c, 0, 68, 0
3, 59640, Note_on_c, 0, 66, 49
3, 59663, Note_on_c, 0, 66, 0
3, 59760, Note_on_c, 0, 70, 49
3, 59820, Note_on_c, 0, 70, 0
3, 59820, Note_on_c, 0, 71, 49
3, 59880, Note_on_c, 0, 71, 0
3, 59880, Note_on_c, 0, 70, 49
3, 59903, Note_on_c, 0, 70, 0
3, 60000, Note_on_c, 0, 73, 49
3, 60060, Note_on_c, 0, 73, 0
3, 60060, Note_on_c, 0, 75, 49
3, 60120, Note_on_c, 0, 75, 0
3, 60120, Note_on_c, 0, 73, 49
3, 60143, Note_on_c, 0, 73, 0
3, 60240, Note_on_c, 0, 76, 49
3, 60300, Note_on_c, 0, 76, 0
3, 60300, Note_on_c, 0, 78, 49
3, 60360, Note_on_c, 0, 78, 0
3, 60360, Note_on_c, 0, 76, 49
3, 60383, Note_on_c, 0, 76, 0
3, 60480, Note_on_c, 0, 77, 49
3, 60540, Note_on_c, 0, 77, 0
3, 60540, Note_on_c, 0, 78, 49
3, 60600, Note_on_c, 0, 78, 0
3, 60600, Note_on_c, 0, 77, 49
3, 60623, Note_on_c, 0, 77, 0
3, 60720, Note_on_c, 0, 78, 49
3, 60780, Note_on_c, 0, 78, 0
3, 60780, Note_on_c, 0, 80, 49
3, 60840, Note_on_c, 0, 80, 0
3, 60840, Note_on_c, 0, 78, 49
3, 60863, Note_on_c, 0, 78, 0
3, 60960, Note_on_c, 0, 83, 49
3, 61020, Note_on_c, 0, 83, 0
3, 61020, Note_on_c, 0, 85, 49
3, 61080, Note_on_c, 0, 85, 0
3, 61080, Note_on_c, 0, 83, 49
3, 61103, Note_on_c, 0, 83, 0
3, 61200, Note_on_c, 0, 87, 49
3, 61260, Note_on_c, 0, 87, 0
3, 61260, Note_on_c, 0, 88, 49
3, 61320, Note_on_c, 0, 88, 0
3, 61320, Note_on_c, 0, 87, 49
3, 61343, Note_on_c, 0, 87, 0
3, 61440, Note_on_c, 0, 67, 49
3, 61440, Note_on_c, 0, 70, 49
3, 61920, Note_on_c, 0, 70, 0
3, 61920, Note_on_c, 0, 67, 0
3, 61920, Note_on_c, 0, 71, 49
3, 61920, Note_on_c, 0, 75, 49
3, 62400, Note_on_c, 0, 75, 0
3, 62400, Note_on_c, 0, 71, 0
3, 62400, Note_on_c, 0, 75, 49
3, 62400, Note_on_c, 0, 79, 49
3, 62880, Note_on_c, 0, 79, 0
3, 62880, Note_on_c, 0, 75, 0
3, 62880, Note_on_c, 0, 75, 49
3, 62880, Note_on_c, 0, 80, 49
3, 63360, Note_on_c, 0, 80, 0
3, 63360, Note_on_c, 0, 75, 0
3, 63360, Note_on_c, 0, 81, 62
3, 63360, Note_on_c, 0, 83, 62
3, 63840, Note_on_c, 0, 83, 0
3, 63840, Note_on_c, 0, 81, 0
3, 63840, Note_on_c, 0, 76, 62
3, 63840, Note_on_c, 0, 80, 62
3, 64320, Note_on_c, 0, 80, 0
3, 64320, Note_on_c, 0, 76, 0
3, 64320, Note_on_c, 0, 80, 62
3, 64320, Note_on_c, 0, 83, 62
3, 64800, Note_on_c, 0, 83, 0
3, 64800, Note_on_c, 0, 80, 0
3, 64800, Note_on_c, 0, 76, 62
3, 65280, Note_on_c, 0, 76, 0
3, 65280, Note_on_c, 0, 68, 62
3, 65280, Note_on_c, 0, 71, 62
3, 65760, Note_on_c, 0, 71, 0
3, 65760, Note_on_c, 0, 68, 0
3, 65760, Note_on_c, 0, 73, 62
3, 65760, Note_on_c, 0, 76, 62
3, 66240, Note_on_c, 0, 76, 0
3, 66240, Note_on_c, 0, 73, 0
3, 66240, Note_on_c, 0, 76, 62
3, 66240, Note_on_c, 0, 80, 62
3, 66720, Note_on_c, 0, 80, 0
3, 66720, Note_on_c, 0, 76, 0
3, 66720, Note_on_c, 0, 76, 62
3, 66720, Note_on_c, 0, 82, 62
3, 67200, Note_on_c, 0, 82, 0
3, 67200, Note_on_c, 0, 76, 0
3, 67200, Note_on_c, 0, 82, 62
3, 67200, Note_on_c, 0, 84, 62
3, 67680, Note_on_c, 0, 84, 0
3, 67680, Note_on_c, 0, 82, 0
3, 67680, Note_on_c, 0, 77, 62
3, 67680, Note_on_c, 0, 81, 62
3, 68160, Note_on_c, 0, 81, 0
3, 68160, Note_on_c, 0, 77, 0
3, 68160, Note_on_c, 0, 81, 62
3, 68160, Note_on_c, 0, 84, 62
3, 68640, Note_on_c, 0, 84, 0
3, 68640, Note_on_c, 0, 81, 0
3, 68640, Note_on_c, 0, 77, 62
3, 69120, Note_on_c, 0, 77, 0
3, 69120, Note_on_c, 0, 77, 88
3, 69360, Note_on_c, 0, 77, 0
3, 69360, Note_on_c, 0, 75, 88
3, 69600, Note_on_c, 0, 75, 0
3, 69600, Note_on_c, 0, 74, 88
3, 69840, Note_on_c, 0, 74, 0
3, 69840, Note_on_c, 0, 73, 88
3, 70080, Note_on_c, 0, 73, 0
3, 70080, Note_on_c, 0, 71, 88
3, 70320, Note_on_c, 0, 71, 0
3, 70320, Note_on_c, 0, 70, 88
3, 70560, Note_on_c, 0, 70, 0
3, 70560, Note_on_c, 0, 67, 88
3, 70800, Note_on_c, 0, 67, 0
3, 70800, Note_on_c, 0, 68, 88
3, 71040, Note_on_c, 0, 68, 0
3, 71040, Note_on_c, 0, 66, 88
3, 71280, Note_on_c, 0, 66, 0
3, 71280, Note_on_c, 0, 67, 88
3, 71520, Note_on_c, 0, 67, 0
3, 71520, Note_on_c, 0, 75, 88
3, 71760, Note_on_c, 0, 75, 0
3, 71760, Note_on_c, 0, 68, 88
3, 72000, Note_on_c, 0, 68, 0
3, 72000, Note_on_c, 0, 66, 88
3, 72240, Note_on_c, 0, 66, 0
3, 72240, Note_on_c, 0, 67, 88
3, 72480, Note_on_c, 0, 67, 0
3, 72480, Note_on_c, 0, 75, 88
3, 72720, Note_on_c, 0, 75, 0
3, 72720, Note_on_c, 0, 68, 88
3, 72960, Note_on_c, 0, 68, 0
3, 72960, Note_on_c, 0, 80, 88
3, 73200, Note_on_c, 0, 80, 0
3, 73200, Note_on_c, 0, 78, 88
3, 73440, Note_on_c, 0, 78, 0
3, 73440, Note_on_c, 0, 77, 88
3, 73680, Note_on_c, 0, 77, 0
3, 73680, Note_on_c, 0, 76, 88
3, 73920, Note_on_c, 0, 76, 0
3, 73920, Note_on_c, 0, 74, 88
3, 74160, Note_on_c, 0, 74, 0
3, 74160, Note_on_c, 0, 73, 88
3, 74400, Note_on_c, 0, 73, 0
3, 74400, Note_on_c, 0, 70, 88
3, 74640, Note_on_c, 0, 70, 0
3, 74640, Note_on_c, 0, 71, 88
3, 74880, Note_on_c, 0, 71, 0
3, 74880, Note_on_c, 0, 69, 88
3, 75120, Note_on_c, 0, 69, 0
3, 75120, Note_on_c, 0, 70, 88
3, 75360, Note_on_c, 0, 70, 0
3, 75360, Note_on_c, 0, 78, 88
3, 75600, Note_on_c, 0, 78, 0
3, 75600, Note_on_c, 0, 71, 88
3, 75840, Note_on_c, 0, 71, 0
3, 75840, Note_on_c, 0, 69, 88
3, 76080, Note_on_c, 0, 69, 0
3, 76080, Note_on_c, 0, 70, 88
3, 76320, Note_on_c, 0, 70, 0
3, 76320, Note_on_c, 0, 78, 88
3, 76560, Note_on_c, 0, 78, 0
3, 76560, Note_on_c, 0, 71, 88
3, 76800, Note_on_c, 0, 71, 0
3, 76800, Note_on_c, 0, 70, 88
3, 77040, Note_on_c, 0, 70, 0
3, 77040, Note_on_c, 0, 71, 88
3, 77280, Note_on_c, 0, 71, 0
3, 77280, Note_on_c, 0, 79, 88
3, 77520, Note_on_c, 0, 79, 0
3, 77520, Note_on_c, 0, 72, 88
3, 77760, Note_on_c, 0, 72, 0
3, 77760, Note_on_c, 0, 70, 88
3, 78000, Note_on_c, 0, 70, 0
3, 78000, Note_on_c, 0, 71, 88
3, 78240, Note_on_c, 0, 71, 0
3, 78240, Note_on_c, 0, 79, 88
3, 78480, Note_on_c, 0, 79, 0
3, 78480, Note_on_c, 0, 72, 88
3, 78720, Note_on_c, 0, 72, 0
3, 78720, Note_on_c, 0, 71, 88
3, 78960, Note_on_c, 0, 71, 0
3, 78960, Note_on_c, 0, 72, 88
3, 79200, Note_on_c, 0, 72, 0
3, 79200, Note_on_c, 0, 80, 88
3, 79440, Note_on_c, 0, 80, 0
3, 79440, Note_on_c, 0, 73, 88
3, 79680, Note_on_c, 0, 73, 0
3, 79680, Note_on_c, 0, 68, 88
3, 79920, Note_on_c, 0, 68, 0
3, 79920, Note_on_c, 0, 63, 88
3, 80160, Note_on_c, 0, 63, 0
3, 80160, Note_on_c, 0, 61, 88
3, 80400, Note_on_c, 0, 61, 0
3, 80400, Note_on_c, 0, 56, 88
3, 80640, Note_on_c, 0, 56, 0
3, 90800, Note_on_c, 0, 66, 88
3, 90800, Note_on_c, 0, 70, 88
3, 90879, Note_on_c, 0, 70, 0
3, 90879, Note_on_c, 0, 66, 0
3, 90879, Note_on_c, 0, 66, 88
3, 90879, Note_on_c, 0, 70, 88
3, 90960, Note_on_c, 0, 70, 0
3, 90960, Note_on_c, 0, 66, 0
3, 91040, Note_on_c, 0, 66, 88
3, 91040, Note_on_c, 0, 70, 88
3, 91119, Note_on_c, 0, 70, 0
3, 91119, Note_on_c, 0, 66, 0
3, 91119, Note_on_c, 0, 66, 88
3, 91119, Note_on_c, 0, 70, 88
3, 91200, Note_on_c, 0, 70, 0
3, 91200, Note_on_c, 0, 66, 0
3, 91280, Note_on_c, 0, 70, 88
3, 91280, Note_on_c, 0, 73, 88
3, 91359, Note_on_c, 0, 73, 0
3, 91359, Note_on_c, 0, 70, 0
3, 91359, Note_on_c, 0, 70, 88
3, 91359, Note_on_c, 0, 73, 88
3, 91440, Note_on_c, 0, 73, 0
3, 91440, Note_on_c, 0, 70, 0
3, 91520, Note_on_c, 0, 70, 88
3, 91520, Note_on_c, 0, 73, 88
3, 91599, Note_on_c, 0, 73, 0
3, 91599, Note_on_c, 0, 70, 0
3, 91599, Note_on_c, 0, 70, 88
3, 91599, Note_on_c, 0, 73, 88
3, 91680, Note_on_c, 0, 73, 0
3, 91680, Note_on_c, 0, 70, 0
3, 91760, Note_on_c, 0, 71, 88
3, 91760, Note_on_c, 0, 75, 88
3, 91839, Note_on_c, 0, 75, 0
3, 91839, Note_on_c, 0, 71, 0
3, 91839, Note_on_c, 0, 71, 88
3, 91839, Note_on_c, 0, 75, 88
3, 91920, Note_on_c, 0, 75, 0
3, 91920, Note_on_c, 0, 71, 0
3, 92000, Note_on_c, 0, 71, 88
3, 92000, Note_on_c, 0, 75, 88
3, 92079, Note_on_c, 0, 75, 0
3, 92079, Note_on_c, 0, 71, 0
3, 92079, Note_on_c, 0, 71, 88
3, 92079, Note_on_c, 0, 75, 88
3, 92160, Note_on_c, 0, 75, 0
3, 92160, Note_on_c, 0, 71, 0
3, 92240, Note_on_c, 0, 71, 88
3, 92240, Note_on_c, 0, 75, 88
3, 92319, Note_on_c, 0, 75, 0
3, 92319, Note_on_c, 0, 71, 0
3, 92319, Note_on_c, 0, 71, 88
3, 92319, Note_on_c, 0, 75, 88
3, 92400, Note_on_c, 0, 75, 0
3, 92400, Note_on_c, 0, 71, 0
3, 92480, Note_on_c, 0, 66, 88
3, 92480, Note_on_c, 0, 71, 88
3, 92559, Note_on_c, 0, 71, 0
3, 92559, Note_on_c, 0, 66, 0
3, 92559, Note_on_c, 0, 66, 88
3, 92559, Note_on_c, 0, 71, 88
3, 92640, Note_on_c, 0, 71, 0
3, 92640, Note_on_c, 0, 66, 0
3, 92720, Note_on_c, 0, 66, 88
3, 92720, Note_on_c, 0, 70, 88
3, 92799, Note_on_c, 0, 70, 0
3, 92799, Note_on_c, 0, 66, 0
3, 92799, Note_on_c, 0, 66, 88
3, 92799, Note_on_c, 0, 70, 88
3, 92880, Note_on_c, 0, 70, 0
3, 92880, Note_on_c, 0, 66, 0
3, 92960, Note_on_c, 0, 66, 88
3, 92960, Note_on_c, 0, 70, 88
3, 93039, Note_on_c, 0, 70, 0
3, 93039, Note_on_c, 0, 66, 0
3, 93039, Note_on_c, 0, 66, 88
3, 93039, Note_on_c, 0, 70, 88
3, 93120, Note_on_c, 0, 70, 0
3, 93120, Note_on_c, 0, 66, 0
3, 93200, Note_on_c, 0, 66, 88
3, 93200, Note_on_c, 0, 70, 88
3, 93279, Note_on_c, 0, 70, 0
3, 93279, Note_on_c, 0, 66, 0
3, 93279, Note_on_c, 0, 66, 88
3, 93279, Note_on_c, 0, 70, 88
3, 93360, Note_on_c, 0, 70, 0
3, 93360, Note_on_c, 0, 66, 0
3, 93440, Note_on_c, 0, 66, 88
3, 93440, Note_on_c, 0, 70, 88
3, 93519, Note_on_c, 0, 70, 0
3, 93519, Note_on_c, 0, 66, 0
3, 93519, Note_on_c, 0, 66, 88
3, 93519, Note_on_c, 0, 70, 88
3, 93600, Note_on_c, 0, 70, 0
3, 93600, Note_on_c, 0, 66, 0
3, 93680, Note_on_c, 0, 63, 88
3, 93680, Note_on_c, 0, 66, 88
3, 93759, Note_on_c, 0, 66, 0
3, 93759, Note_on_c, 0, 63, 0
3, 93759, Note_on_c, 0, 63, 88
3, 93759, Note_on_c, 0, 66, 88
3, 93840, Note_on_c, 0, 66, 0
3, 93840, Note_on_c, 0, 63, 0
3, 93920, Note_on_c, 0, 63, 88
3, 93920, Note_on_c, 0, 66, 88
3, 93999, Note_on_c, 0, 66, 0
3, 93999, Note_on_c, 0, 63, 0
3, 93999, Note_on_c, 0, 63, 88
3, 93999, Note_on_c, 0, 66, 88
3, 94080, Note_on_c, 0, 66, 0
3, 94080, Note_on_c, 0, 63, 0
3, 94160, Note_on_c, 0, 59, 88
3, 94160, Note_on_c, 0, 63, 88
3, 94239, Note_on_c, 0, 63, 0
3, 94239, Note_on_c, 0, 59, 0
3, 94239, Note_on_c, 0, 59, 88
3, 94239, Note_on_c, 0, 63, 88
3, 94320, Note_on_c, 0, 63, 0
3, 94320, Note_on_c, 0, 59, 0
3, 94400, Note_on_c, 0, 59, 88
3, 94400, Note_on_c, 0, 63, 88
3, 94479, Note_on_c, 0, 63, 0
3, 94479, Note_on_c, 0, 59, 0
3, 94479, Note_on_c, 0, 59, 88
3, 94479, Note_on_c, 0, 63, 88
3, 94560, Note_on_c, 0, 63, 0
3, 94560, Note_on_c, 0, 59, 0
3, 94640, Note_on_c, 0, 66, 88
3, 94640, Note_on_c, 0, 70, 88
3, 94719, Note_on_c, 0, 70, 0
3, 94719, Note_on_c, 0, 66, 0
3, 94719, Note_on_c, 0, 66, 88
3, 94719, Note_on_c, 0, 70, 88
3, 94800, Note_on_c, 0, 70, 0
3, 94800, Note_on_c, 0, 66, 0
3, 94880, Note_on_c, 0, 66, 88
3, 94880, Note_on_c, 0, 70, 88
3, 94959, Note_on_c, 0, 70, 0
3, 94959, Note_on_c, 0, 66, 0
3, 94959, Note_on_c, 0, 66, 88
3, 94959, Note_on_c, 0, 70, 88
3, 95040, Note_on_c, 0, 70, 0
3, 95040, Note_on_c, 0, 66, 0
3, 95120, Note_on_c, 0, 70, 88
3, 95120, Note_on_c, 0, 73, 88
3, 95199, Note_on_c, 0, 73, 0
3, 95199, Note_on_c, 0, 70, 0
3, 95199, Note_on_c, 0, 70, 88
3, 95199, Note_on_c, 0, 73, 88
3, 95280, Note_on_c, 0, 73, 0
3, 95280, Note_on_c, 0, 70, 0
3, 95360, Note_on_c, 0, 70, 88
3, 95360, Note_on_c, 0, 73, 88
3, 95439, Note_on_c, 0, 73, 0
3, 95439, Note_on_c, 0, 70, 0
3, 95439, Note_on_c, 0, 70, 88
3, 95439, Note_on_c, 0, 73, 88
3, 95520, Note_on_c, 0, 73, 0
3, 95520, Note_on_c, 0, 70, 0
3, 95600, Note_on_c, 0, 71, 88
3, 95600, Note_on_c, 0, 75, 88
3, 95679, Note_on_c, 0, 75, 0
3, 95679, Note_on_c, 0, 71, 0
3, 95679, Note_on_c, 0, 71, 88
3, 95679, Note_on_c, 0, 75, 88
3, 95760, Note_on_c, 0, 75, 0
3, 95760, Note_on_c, 0, 71, 0
3, 95840, Note_on_c, 0, 71, 88
3, 95840, Note_on_c, 0, 75, 88
3, 95919, Note_on_c, 0, 75, 0
3, 95919, Note_on_c, 0, 71, 0
3, 95919, Note_on_c, 0, 71, 88
3, 95919, Note_on_c, 0, 75, 88
3, 96000, Note_on_c, 0, 75, 0
3, 96000, Note_on_c, 0, 71, 0
3, 96080, Note_on_c, 0, 75, 88
3, 96080, Note_on_c, 0, 78, 88
3, 96159, Note_on_c, 0, 78, 0
3, 96159, Note_on_c, 0, 75, 0
3, 96159, Note_on_c, 0, 75, 88
3, 96159, Note_on_c, 0, 78, 88
3, 96240, Note_on_c, 0, 78, 0
3, 96240, Note_on_c, 0, 75, 0
3, 96320, Note_on_c, 0, 71, 88
3, 96320, Note_on_c, 0, 75, 88
3, 96399, Note_on_c, 0, 75, 0
3, 96399, Note_on_c, 0, 71, 0
3, 96399, Note_on_c, 0, 71, 88
3, 96399, Note_on_c, 0, 75, 88
3, 96480, Note_on_c, 0, 75, 0
3, 96480, Note_on_c, 0, 71, 0
3, 96560, Note_on_c, 0, 73, 88
3, 96560, Note_on_c, 0, 75, 88
3, 96639, Note_on_c, 0, 75, 0
3, 96639, Note_on_c, 0, 73, 0
3, 96639, Note_on_c, 0, 73, 88
3, 96639, Note_on_c, 0, 75, 88
3, 96720, Note_on_c, 0, 75, 0
3, 96720, Note_on_c, 0, 73, 0
3, 96800, Note_on_c, 0, 73, 88
3, 96800, Note_on_c, 0, 75, 88
3, 96879, Note_on_c, 0, 75, 0
3, 96879, Note_on_c, 0, 73, 0
3, 96879, Note_on_c, 0, 73, 88
3, 96879, Note_on_c, 0, 75, 88
3, 96960, Note_on_c, 0, 75, 0
3, 96960, Note_on_c, 0, 73, 0
3, 97040, Note_on_c, 0, 75, 88
3, 97040, Note_on_c, 0, 80, 88
3, 97119, Note_on_c, 0, 80, 0
3, 97119, Note_on_c, 0, 75, 0
3, 97119, Note_on_c, 0, 75, 88
3, 97119, Note_on_c, 0, 80, 88
3, 97200, Note_on_c, 0, 80, 0
3, 97200, Note_on_c, 0, 75, 0
3, 97280, Note_on_c, 0, 75, 88
3, 97280, Note_on_c, 0, 80, 88
3, 97359, Note_on_c, 0, 80, 0
3, 97359, Note_on_c, 0, 75, 0
3, 97359, Note_on_c, 0, 75, 88
3, 97359, Note_on_c, 0, 80, 88
3, 97440, Note_on_c, 0, 80, 0
3, 97440, Note_on_c, 0, 75, 0
3, 97520, Note_on_c, 0, 80, 88
3, 97520, Note_on_c, 0, 82, 88
3, 97599, Note_on_c, 0, 82, 0
3, 97599, Note_on_c, 0, 80, 0
3, 97599, Note_on_c, 0, 80, 88
3, 97599, Note_on_c, 0, 82, 88
3, 97680, Note_on_c, 0, 82, 0
3, 97680, Note_on_c, 0, 80, 0
3, 97760, Note_on_c, 0, 80, 88
3, 97760, Note_on_c, 0, 82, 88
3, 97839, Note_on_c, 0, 82, 0
3, 97839, Note_on_c, 0, 80, 0
3, 97839, Note_on_c, 0, 80, 88
3, 97839, Note_on_c, 0, 82, 88
3, 97920, Note_on_c, 0, 82, 0
3, 97920, Note_on_c, 0, 80, 0
3, 98000, Note_on_c, 0, 79, 88
3, 98000, Note_on_c, 0, 82, 88
3, 98079, Note_on_c, 0, 82, 0
3, 98079, Note_on_c, 0, 79, 0
3, 98079, Note_on_c, 0, 79, 88
3, 98079, Note_on_c, 0, 82, 88
3, 98160, Note_on_c, 0, 82, 0
3, 98160, Note_on_c, 0, 79, 0
3, 98240, Note_on_c, 0, 79, 88
3, 98240, Note_on_c, 0, 82, 88
3, 98319, Note_on_c, 0, 82, 0
3, 98319, Note_on_c, 0, 79, 0
3, 98319, Note_on_c, 0, 79, 88
3, 98319, Note_on_c, 0, 82, 88
3, 98400, Note_on_c, 0, 82, 0
3, 98400, Note_on_c, 0, 79, 0
3, 98480, Note_on_c, 0, 80, 88
3, 98480, Note_on_c, 0, 82, 88
3, 98559, Note_on_c, 0, 82, 0
3, 98559, Note_on_c, 0, 80, 0
3, 98559, Note_on_c, 0, 80, 88
3, 98559, Note_on_c, 0, 82, 88
3, 98640, Note_on_c, 0, 82, 0
3, 98640, Note_on_c, 0, 80, 0
3, 98720, Note_on_c, 0, 80, 88
3, 98720, Note_on_c, 0, 82, 88
3, 98799, Note_on_c, 0, 82, 0
3, 98799, Note_on_c, 0, 80, 0
3, 98799, Note_on_c, 0, 80, 88
3, 98799, Note_on_c, 0, 82, 88
3, 98880, Note_on_c, 0, 82, 0
3, 98880, Note_on_c, 0, 80, 0
3, 98960, Note_on_c, 0, 80, 88
3, 98960, Note_on_c, 0, 82, 88
3, 99039, Note_on_c, 0, 82, 0
3, 99039, Note_on_c, 0, 80, 0
3, 99039, Note_on_c, 0, 80, 88
3, 99039, Note_on_c, 0, 82, 88
3, 99120, Note_on_c, 0, 82, 0
3, 99120, Note_on_c, 0, 80, 0
3, 99200, Note_on_c, 0, 80, 88
3, 99200, Note_on_c, 0, 82, 88
3, 99279, Note_on_c, 0, 82, 0
3, 99279, Note_on_c, 0, 80, 0
3, 99279, Note_on_c, 0, 80, 88
3, 99279, Note_on_c, 0, 82, 88
3, 99360, Note_on_c, 0, 82, 0
3, 99360, Note_on_c, 0, 80, 0
3, 99440, Note_on_c, 0, 80, 88
3, 99440, Note_on_c, 0, 82, 88
3, 99519, Note_on_c, 0, 82, 0
3, 99519, Note_on_c, 0, 80, 0
3, 99519, Note_on_c, 0, 80, 88
3, 99519, Note_on_c, 0, 82, 88
3, 99600, Note_on_c, 0, 82, 0
3, 99600, Note_on_c, 0, 80, 0
3, 99680, Note_on_c, 0, 80, 88
3, 99680, Note_on_c, 0, 82, 88
3, 99759, Note_on_c, 0, 82, 0
3, 99759, Note_on_c, 0, 80, 0
3, 99759, Note_on_c, 0, 80, 88
3, 99759, Note_on_c, 0, 82, 88
3, 99840, Note_on_c, 0, 82, 0
3, 99840, Note_on_c, 0, 80, 0
3, 99920, Note_on_c, 0, 80, 88
3, 99920, Note_on_c, 0, 82, 88
3, 99999, Note_on_c, 0, 82, 0
3, 99999, Note_on_c, 0, 80, 0
3, 99999, Note_on_c, 0, 80, 88
3, 99999, Note_on_c, 0, 82, 88
3, 100080, Note_on_c, 0, 82, 0
3, 100080, Note_on_c, 0, 80, 0
3, 100080, Note_on_c, 0, 80, 88
3, 100080, Note_on_c, 0, 82, 88
3, 100160, Note_on_c, 0, 82, 0
3, 100160, Note_on_c, 0, 80, 0
3, 100160, Note_on_c, 0, 80, 88
3, 100160, Note_on_c, 0, 82, 88
3, 100239, Note_on_c, 0, 82, 0
3, 100239, Note_on_c, 0, 80, 0
3, 100239, Note_on_c, 0, 80, 88
3, 100239, Note_on_c, 0, 82, 88
3, 100320, Note_on_c, 0, 82, 0
3, 100320, Note_on_c, 0, 80, 0
3, 100400, Note_on_c, 0, 80, 88
3, 100400, Note_on_c, 0, 82, 88
3, 100479, Note_on_c, 0, 82, 0
3, 100479, Note_on_c, 0, 80, 0
3, 100479, Note_on_c, 0, 80, 88
3, 100479, Note_on_c, 0, 82, 88
3, 100560, Note_on_c, 0, 82, 0
3, 100560, Note_on_c, 0, 80, 0
3, 100560, Note_on_c, 0, 80, 88
3, 100560, Note_on_c, 0, 82, 88
3, 100680, Note_on_c, 0, 82, 0
3, 100680, Note_on_c, 0, 80, 0
3, 100800, Note_on_c, 0, 80, 88
3, 100800, Note_on_c, 0, 82, 88
3, 101040, Note_on_c, 0, 82, 0
3, 101040, Note_on_c, 0, 80, 0
3, 101360, Note_on_c, 0, 80, 88
3, 101360, Note_on_c, 0, 82, 88
3, 101439, Note_on_c, 0, 82, 0
3, 101439, Note_on_c, 0, 80, 0
3, 101439, Note_on_c, 0, 80, 88
3, 101439, Note_on_c, 0, 82, 88
3, 101520, Note_on_c, 0, 82, 0
3, 101520, Note_on_c, 0, 80, 0
3, 101600, Note_on_c, 0, 80, 88
3, 101600, Note_on_c, 0, 82, 88
3, 101679, Note_on_c, 0, 82, 0
3, 101679, Note_on_c, 0, 80, 0
3, 101679, Note_on_c, 0, 80, 88
3, 101679, Note_on_c, 0, 82, 88
3, 101760, Note_on_c, 0, 82, 0
3, 101760, Note_on_c, 0, 80, 0
3, 101840, Note_on_c, 0, 80, 88
3, 101840, Note_on_c, 0, 82, 88
3, 101919, Note_on_c, 0, 82, 0
3, 101919, Note_on_c, 0, 80, 0
3, 101919, Note_on_c, 0, 80, 88
3, 101919, Note_on_c, 0, 82, 88
3, 102000, Note_on_c, 0, 82, 0
3, 102000, Note_on_c, 0, 80, 0
3, 102000, Note_on_c, 0, 80, 88
3, 102000, Note_on_c, 0, 82, 88
3, 102080, Note_on_c, 0, 82, 0
3, 102080, Note_on_c, 0, 80, 0
3, 102080, Note_on_c, 0, 80, 88
3, 102080, Note_on_c, 0, 82, 88
3, 102159, Note_on_c, 0, 82, 0
3, 102159, Note_on_c, 0, 80, 0
3, 102159, Note_on_c, 0, 80, 88
3, 102159, Note_on_c, 0, 82, 88
3, 102240, Note_on_c, 0, 82, 0
3, 102240, Note_on_c, 0, 80, 0
3, 102240, Note_on_c, 0, 79, 88
3, 102240, Note_on_c, 0, 82, 88
3, 102480, Note_on_c, 0, 82, 0
3, 102480, Note_on_c, 0, 79, 0
3, 106080, Note_on_c, 0, 51, 88
3, 107040, Note_on_c, 0, 51, 0
3, 107040, Note_on_c, 0, 51, 88
3, 109920, Note_on_c, 0, 51, 0
3, 109920, Note_on_c, 0, 56, 49
3, 109920, Note_on_c, 0, 59, 49
3, 110160, Note_on_c, 0, 59, 0
3, 110160, Note_on_c, 0, 56, 0
3, 111360, Note_on_c, 0, 55, 49
3, 111360, Note_on_c, 0, 58, 49
3, 111600, Note_on_c, 0, 58, 0
3, 111600, Note_on_c, 0, 55, 0
3, 111840, Note_on_c, 0, 56, 49
3, 111840, Note_on_c, 0, 59, 49
3, 112080, Note_on_c, 0, 59, 0
3, 112080, Note_on_c, 0, 56, 0
3, 113280, Note_on_c, 0, 51, 49
3, 113280, Note_on_c, 0, 55, 49
3, 113520, Note_on_c, 0, 55, 0
3, 113520, Note_on_c, 0, 51, 0
3, 113760, Note_on_c, 0, 47, 49
3, 113760, Note_on_c, 0, 51, 49
3, 114000, Note_on_c, 0, 51, 0
3, 114000, Note_on_c, 0, 47, 0
3, 115200, Note_on_c, 0, 55, 62
3, 115200, Note_on_c, 0, 58, 62
3, 115440, Note_on_c, 0, 58, 0
3, 115440, Note_on_c, 0, 55, 0
3, 115680, Note_on_c, 0, 59, 62
3, 115680, Note_on_c, 0, 63, 62
3, 115920, Note_on_c, 0, 63, 0
3, 115920, Note_on_c, 0, 59, 0
3, 117120, Note_on_c, 0, 63, 62
3, 117120, Note_on_c, 0, 67, 62
3, 117360, Note_on_c, 0, 67, 0
3, 117360, Note_on_c, 0, 63, 0
3, 117600, Note_on_c, 0, 63, 75
3, 117600, Note_on_c, 0, 68, 75
3, 117600, Note_on_c, 0, 71, 75
3, 118080, Note_on_c, 0, 71, 0
3, 118080, Note_on_c, 0, 68, 0
3, 118080, Note_on_c, 0, 63, 0
3, 119040, Note_on_c, 0, 63, 75
3, 119040, Note_on_c, 0, 67, 75
3, 119280, Note_on_c, 0, 67, 0
3, 119280, Note_on_c, 0, 63, 0
3, 119520, Note_on_c, 0, 63, 75
3, 119520, Note_on_c, 0, 68, 75
3, 119520, Note_on_c, 0, 71, 75
3, 120000, Note_on_c, 0, 71, 0
3, 120000, Note_on_c, 0, 68, 0
3, 120000, Note_on_c, 0, 63, 0
3, 120960, Note_on_c, 0, 63, 75
3, 120960, Note_on_c, 0, 67, 75
3, 121200, Note_on_c, 0, 67, 0
3, 121200, Note_on_c, 0, 63, 0
3, 121440, Note_on_c, 0, 59, 62
3, 121440, Note_on_c, 0, 63, 62
3, 121680, Note_on_c, 0, 63, 0
3, 121680, Note_on_c, 0, 59, 0
3, 122880, Note_on_c, 0, 55, 62
3, 122880, Note_on_c, 0, 58, 62
3, 123120, Note_on_c, 0, 58, 0
3, 123120, Note_on_c, 0, 55, 0
3, 123360, Note_on_c, 0, 59, 49
3, 123360, Note_on_c, 0, 63, 49
3, 123600, Note_on_c, 0, 63, 0
3, 123600, Note_on_c, 0, 59, 0
3, 124800, Note_on_c, 0, 55, 49
3, 124800, Note_on_c, 0, 58, 49
3, 125040, Note_on_c, 0, 58, 0
3, 125040, Note_on_c, 0, 55, 0
3, 125280, Note_on_c, 0, 56, 49
3, 125520, Note_on_c, 0, 56, 0
3, 126720, Note_on_c, 0, 55, 49
3, 126720, Note_on_c, 0, 58, 49
3, 126960, Note_on_c, 0, 58, 0
3, 126960, Note_on_c, 0, 55, 0
3, 127200, Note_on_c, 0, 56, 49
3, 127200, Note_on_c, 0, 59, 49
3, 127440, Note_on_c, 0, 59, 0
3, 127440, Note_on_c, 0, 56, 0
3, 128640, Note_on_c, 0, 55, 49
3, 128640, Note_on_c, 0, 58, 49
3, 128880, Note_on_c, 0, 58, 0
3, 128880, Note_on_c, 0, 55, 0
3, 129120, Note_on_c, 0, 59, 49
3, 130080, Note_on_c, 0, 59, 0
3, 130080, Note_on_c, 0, 58, 49
3, 130080, Note_on_c, 0, 63, 49
3, 130320, Note_on_c, 0, 63, 0
3, 130320, Note_on_c, 0, 58, 0
3, 130320, Note_on_c, 0, 58, 49
3, 130320, Note_on_c, 0, 63, 49
3, 131040, Note_on_c, 0, 63, 0
3, 131040, Note_on_c, 0, 58, 0
3, 131040, Note_on_c, 0, 63, 62
3, 132000, Note_on_c, 0, 63, 0
3, 132000, Note_on_c, 0, 61, 62
3, 132000, Note_on_c, 0, 66, 62
3, 132240, Note_on_c, 0, 66, 0
3, 132240, Note_on_c, 0, 61, 0
3, 132240, Note_on_c, 0, 61, 62
3, 132240, Note_on_c, 0, 66, 62
3, 132960, Note_on_c, 0, 66, 0
3, 132960, Note_on_c, 0, 61, 0
3, 132960, Note_on_c, 0, 63, 62
3, 132960, Note_on_c, 0, 66, 62
3, 133440, Note_on_c, 0, 66, 0
3, 133440, Note_on_c, 0, 63, 0
3, 133920, Note_on_c, 0, 59, 62
3, 133920, Note_on_c, 0, 63, 62
3, 134400, Note_on_c, 0, 63, 0
3, 134400, Note_on_c, 0, 59, 0
3, 134400, Note_on_c, 0, 61, 62
3, 134480, Note_on_c, 0, 61, 0
3, 134480, Note_on_c, 0, 59, 62
3, 134559, Note_on_c, 0, 59, 0
3, 134559, Note_on_c, 0, 61, 62
3, 134640, Note_on_c, 0, 61, 0
3, 134640, Note_on_c, 0, 59, 62
3, 134880, Note_on_c, 0, 59, 0
3, 134880, Note_on_c, 0, 68, 49
3, 135840, Note_on_c, 0, 68, 0
3, 135840, Note_on_c, 0, 59, 49
3, 136800, Note_on_c, 0, 59, 0
3, 136800, Note_on_c, 0, 59, 49
3, 137760, Note_on_c, 0, 59, 0
3, 137760, Note_on_c, 0, 58, 62
3, 137760, Note_on_c, 0, 63, 62
3, 138000, Note_on_c, 0, 63, 0
3, 138000, Note_on_c, 0, 58, 0
3, 138000, Note_on_c, 0, 58, 62
3, 138000, Note_on_c, 0, 63, 62
3, 138720, Note_on_c, 0, 63, 0
3, 138720, Note_on_c, 0, 58, 0
3, 138720, Note_on_c, 0, 63, 62
3, 139680, Note_on_c, 0, 63, 0
3, 139680, Note_on_c, 0, 61, 62
3, 139680, Note_on_c, 0, 66, 62
3, 139920, Note_on_c, 0, 66, 0
3, 139920, Note_on_c, 0, 61, 0
3, 139920, Note_on_c, 0, 61, 62
3, 139920, Note_on_c, 0, 66, 62
3, 140640, Note_on_c, 0, 66, 0
3, 140640, Note_on_c, 0, 61, 0
3, 140640, Note_on_c, 0, 63, 62
3, 140640, Note_on_c, 0, 66, 62
3, 141120, Note_on_c, 0, 66, 0
3, 141120, Note_on_c, 0, 63, 0
3, 141600, Note_on_c, 0, 68, 62
3, 141600, Note_on_c, 0, 71, 62
3, 142080, Note_on_c, 0, 71, 0
3, 142080, Note_on_c, 0, 68, 0
3, 142080, Note_on_c, 0, 61, 62
3, 142160, Note_on_c, 0, 61, 0
3, 142160, Note_on_c, 0, 59, 62
3, 142239, Note_on_c, 0, 59, 0
3, 142239, Note_on_c, 0, 61, 62
3, 142320, Note_on_c, 0, 61, 0
3, 142320, Note_on_c, 0, 59, 62
3, 142560, Note_on_c, 0, 59, 0
3, 142560, Note_on_c, 0, 68, 49
3, 143040, Note_on_c, 0, 68, 0
3, 143040, Note_on_c, 0, 68, 49
3, 143520, Note_on_c, 0, 68, 0
3, 144720, Note_on_c, 0, 67, 49
3, 144840, Note_on_c, 0, 67, 0
3, 144840, Note_on_c, 0, 68, 49
3, 144960, Note_on_c, 0, 68, 0
3, 145200, Note_on_c, 0, 67, 49
3, 145320, Note_on_c, 0, 67, 0
3, 145320, Note_on_c, 0, 68, 49
3, 145440, Note_on_c, 0, 68, 0
3, 145680, Note_on_c, 0, 59, 49
3, 145680, Note_on_c, 0, 63, 49
3, 145920, Note_on_c, 0, 63, 0
3, 145920, Note_on_c, 0, 59, 0
3, 146160, Note_on_c, 0, 61, 49
3, 146160, Note_on_c, 0, 63, 49
3, 146400, Note_on_c, 0, 63, 0
3, 146400, Note_on_c, 0, 61, 0
3, 146640, Note_on_c, 0, 59, 49
3, 146880, Note_on_c, 0, 59, 0
3, 147120, Note_on_c, 0, 58, 49
3, 147120, Note_on_c, 0, 63, 49
3, 147360, Note_on_c, 0, 63, 0
3, 147360, Note_on_c, 0, 58, 0
3, 147600, Note_on_c, 0, 62, 49
3, 147840, Note_on_c, 0, 62, 0
3, 148080, Note_on_c, 0, 61, 49
3, 148080, Note_on_c, 0, 70, 49
3, 148320, Note_on_c, 0, 70, 0
3, 148320, Note_on_c, 0, 61, 0
3, 148560, Note_on_c, 0, 61, 49
3, 148680, Note_on_c, 0, 61, 0
3, 148680, Note_on_c, 0, 59, 49
3, 148800, Note_on_c, 0, 59, 0
3, 149040, Note_on_c, 0, 55, 49
3, 149160, Note_on_c, 0, 55, 0
3, 149160, Note_on_c, 0, 56, 49
3, 149280, Note_on_c, 0, 56, 0
3, 149520, Note_on_c, 0, 67, 49
3, 149640, Note_on_c, 0, 67, 0
3, 149640, Note_on_c, 0, 68, 49
3, 149760, Note_on_c, 0, 68, 0
3, 150000, Note_on_c, 0, 68, 49
3, 150120, Note_on_c, 0, 68, 0
3, 150120, Note_on_c, 0, 67, 49
3, 150240, Note_on_c, 0, 67, 0
3, 150480, Note_on_c, 0, 70, 49
3, 150600, Note_on_c, 0, 70, 0
3, 150600, Note_on_c, 0, 71, 49
3, 150720, Note_on_c, 0, 71, 0
3, 150960, Note_on_c, 0, 70, 49
3, 151080, Note_on_c, 0, 70, 0
3, 151080, Note_on_c, 0, 68, 49
3, 151200, Note_on_c, 0, 68, 0
3, 151440, Note_on_c, 0, 66, 49
3, 151560, Note_on_c, 0, 66, 0
3, 151560, Note_on_c, 0, 67, 49
3, 151680, Note_on_c, 0, 67, 0
3, 151920, Note_on_c, 0, 74, 49
3, 152040, Note_on_c, 0, 74, 0
3, 152040, Note_on_c, 0, 75, 49
3, 152160, Note_on_c, 0, 75, 0
3, 152400, Note_on_c, 0, 68, 62
3, 152640, Note_on_c, 0, 68, 0
3, 152880, Note_on_c, 0, 63, 62
3, 153120, Note_on_c, 0, 63, 0
3, 153360, Note_on_c, 0, 67, 62
3, 153360, Note_on_c, 0, 73, 62
3, 153600, Note_on_c, 0, 73, 0
3, 153600, Note_on_c, 0, 67, 0
3, 153840, Note_on_c, 0, 61, 62
3, 153840, Note_on_c, 0, 63, 62
3, 154080, Note_on_c, 0, 63, 0
3, 154080, Note_on_c, 0, 61, 0
3, 154320, Note_on_c, 0, 68, 62
3, 154560, Note_on_c, 0, 68, 0
3, 154800, Note_on_c, 0, 63, 62
3, 155040, Note_on_c, 0, 63, 0
3, 155280, Note_on_c, 0, 67, 62
3, 155280, Note_on_c, 0, 73, 62
3, 155520, Note_on_c, 0, 73, 0
3, 155520, Note_on_c, 0, 67, 0
3, 155760, Note_on_c, 0, 61, 62
3, 155760, Note_on_c, 0, 63, 62
3, 156000, Note_on_c, 0, 63, 0
3, 156000, Note_on_c, 0, 61, 0
3, 156240, Note_on_c, 0, 59, 49
3, 156480, Note_on_c, 0, 59, 0
3, 156720, Note_on_c, 0, 63, 49
3, 156720, Note_on_c, 0, 68, 49
3, 156960, Note_on_c, 0, 68, 0
3, 156960, Note_on_c, 0, 63, 0
3, 157200, Note_on_c, 0, 59, 49
3, 157200, Note_on_c, 0, 63, 49
3, 157440, Note_on_c, 0, 63, 0
3, 157440, Note_on_c, 0, 59, 0
3, 157680, Note_on_c, 0, 55, 49
3, 157680, Note_on_c, 0, 61, 49
3, 157920, Note_on_c, 0, 61, 0
3, 157920, Note_on_c, 0, 55, 0
3, 158160, Note_on_c, 0, 59, 49
3, 158400, Note_on_c, 0, 59, 0
3, 158640, Note_on_c, 0, 63, 49
3, 158640, Note_on_c, 0, 68, 49
3, 158880, Note_on_c, 0, 68, 0
3, 158880, Note_on_c, 0, 63, 0
3, 159120, Note_on_c, 0, 59, 49
3, 159120, Note_on_c, 0, 63, 49
3, 159360, Note_on_c, 0, 63, 0
3, 159360, Note_on_c, 0, 59, 0
3, 159600, Note_on_c, 0, 55, 49
3, 159600, Note_on_c, 0, 61, 49
3, 159840, Note_on_c, 0, 61, 0
3, 159840, Note_on_c, 0, 55, 0
3, 160080, Note_on_c, 0, 56, 49
3, 160080, Note_on_c, 0, 59, 49
3, 160320, Note_on_c, 0, 59, 0
3, 160320, Note_on_c, 0, 56, 0
3, 160560, Note_on_c, 0, 55, 49
3, 160560, Note_on_c, 0, 61, 49
3, 160800, Note_on_c, 0, 61, 0
3, 160800, Note_on_c, 0, 55, 0
3, 161040, Note_on_c, 0, 56, 49
3, 161040, Note_on_c, 0, 59, 49
3, 161280, Note_on_c, 0, 59, 0
3, 161280, Note_on_c, 0, 56, 0
3, 161520, Note_on_c, 0, 55, 49
3, 161520, Note_on_c, 0, 61, 49
3, 161760, Note_on_c, 0, 61, 0
3, 161760, Note_on_c, 0, 55, 0
3, 162000, Note_on_c, 0, 56, 49
3, 162000, Note_on_c, 0, 59, 49
3, 162240, Note_on_c, 0, 59, 0
3, 162240, Note_on_c, 0, 56, 0
3, 162480, Note_on_c, 0, 58, 49
3, 162480, Note_on_c, 0, 61, 49
3, 162720, Note_on_c, 0, 61, 0
3, 162720, Note_on_c, 0, 58, 0
3, 162960, Note_on_c, 0, 56, 49
3, 162960, Note_on_c, 0, 59, 49
3, 163200, Note_on_c, 0, 59, 0
3, 163200, Note_on_c, 0, 56, 0
3, 163440, Note_on_c, 0, 56, 49
3, 163440, Note_on_c, 0, 59, 49
3, 163680, Note_on_c, 0, 59, 0
3, 163680, Note_on_c, 0, 56, 0
3, 163920, Note_on_c, 0, 58, 49
3, 163920, Note_on_c, 0, 61, 49
3, 164160, Note_on_c, 0, 61, 0
3, 164160, Note_on_c, 0, 58, 0
3, 164400, Note_on_c, 0, 55, 49
3, 164400, Note_on_c, 0, 61, 49
3, 164640, Note_on_c, 0, 61, 0
3, 164640, Note_on_c, 0, 55, 0
3, 164880, Note_on_c, 0, 56, 49
3, 164880, Note_on_c, 0, 59, 49
3, 165120, Note_on_c, 0, 59, 0
3, 165120, Note_on_c, 0, 56, 0
3, 165360, Note_on_c, 0, 56, 49
3, 165360, Note_on_c, 0, 59, 49
3, 165600, Note_on_c, 0, 59, 0
3, 165600, Note_on_c, 0, 56, 0
3, 165840, Note_on_c, 0, 56, 49
3, 165840, Note_on_c, 0, 59, 49
3, 166080, Note_on_c, 0, 59, 0
3, 166080, Note_on_c, 0, 56, 0
3, 166320, Note_on_c, 0, 55, 49
3, 166320, Note_on_c, 0, 61, 49
3, 166560, Note_on_c, 0, 61, 0
3, 166560, Note_on_c, 0, 55, 0
3, 166800, Note_on_c, 0, 58, 49
3, 166800, Note_on_c, 0, 61, 49
3, 167040, Note_on_c, 0, 61, 0
3, 167040, Note_on_c, 0, 58, 0
3, 167280, Note_on_c, 0, 55, 49
3, 167280, Note_on_c, 0, 61, 49
3, 167520, Note_on_c, 0, 61, 0
3, 167520, Note_on_c, 0, 55, 0
3, 167760, Note_on_c, 0, 56, 49
3, 167760, Note_on_c, 0, 59, 49
3, 168000, Note_on_c, 0, 59, 0
3, 168000, Note_on_c, 0, 56, 0
3, 168240, Note_on_c, 0, 56, 49
3, 168240, Note_on_c, 0, 59, 49
3, 168480, Note_on_c, 0, 59, 0
3, 168480, Note_on_c, 0, 56, 0
3, 168720, Note_on_c, 0, 58, 49
3, 168720, Note_on_c, 0, 61, 49
3, 168960, Note_on_c, 0, 61, 0
3, 168960, Note_on_c, 0, 58, 0
3, 169200, Note_on_c, 0, 58, 49
3, 169200, Note_on_c, 0, 61, 49
3, 169440, Note_on_c, 0, 61, 0
3, 169440, Note_on_c, 0, 58, 0
3, 169680, Note_on_c, 0, 56, 49
3, 169680, Note_on_c, 0, 59, 49
3, 169920, Note_on_c, 0, 59, 0
3, 169920, Note_on_c, 0, 56, 0
3, 169920, End_track
4, 0, Start_track
4, 0, Title_t, "Grand Piano"
4, 0, Program_c, 0, 0
4, 0, Control_c, 0, 7, 115
4, 0, Control_c, 0, 10, 41
4, 0, Note_on_c, 0, 51, 62
4, 480, Note_on_c, 0, 51, 0
4, 480, Note_on_c, 0, 52, 62
4, 560, Note_on_c, 0, 52, 0
4, 560, Note_on_c, 0, 51, 62
4, 639, Note_on_c, 0, 51, 0
4, 639, Note_on_c, 0, 50, 62
4, 720, Note_on_c, 0, 50, 0
4, 720, Note_on_c, 0, 51, 62
4, 960, Note_on_c, 0, 51, 0
4, 960, Note_on_c, 0, 56, 62
4, 1200, Note_on_c, 0, 56, 0
4, 1200, Note_on_c, 0, 51, 62
4, 1920, Note_on_c, 0, 51, 0
4, 1920, Note_on_c, 0, 50, 62
4, 2400, Note_on_c, 0, 50, 0
4, 2400, Note_on_c, 0, 51, 62
4, 2480, Note_on_c, 0, 51, 0
4, 2480, Note_on_c, 0, 50, 62
4, 2559, Note_on_c, 0, 50, 0
4, 2559, Note_on_c, 0, 51, 62
4, 2640, Note_on_c, 0, 51, 0
4, 2640, Note_on_c, 0, 49, 62
4, 2880, Note_on_c, 0, 49, 0
4, 2880, Note_on_c, 0, 47, 62
4, 3120, Note_on_c, 0, 47, 0
4, 3120, Note_on_c, 0, 46, 62
4, 3840, Note_on_c, 0, 46, 0
4, 3840, Note_on_c, 0, 44, 62
4, 4320, Note_on_c, 0, 44, 0
4, 4320, Note_on_c, 0, 46, 62
4, 4400, Note_on_c, 0, 46, 0
4, 4400, Note_on_c, 0, 44, 62
4, 4479, Note_on_c, 0, 44, 0
4, 4479, Note_on_c, 0, 46, 62
4, 4560, Note_on_c, 0, 46, 0
4, 4560, Note_on_c, 0, 47, 62
4, 4800, Note_on_c, 0, 47, 0
4, 4800, Note_on_c, 0, 49, 75
4, 5040, Note_on_c, 0, 49, 0
4, 5040, Note_on_c, 0, 51, 75
4, 5760, Note_on_c, 0, 51, 0
4, 5760, Note_on_c, 0, 53, 75
4, 6240, Note_on_c, 0, 53, 0
4, 6240, Note_on_c, 0, 55, 75
4, 6320, Note_on_c, 0, 55, 0
4, 6320, Note_on_c, 0, 53, 75
4, 6399, Note_on_c, 0, 53, 0
4, 6399, Note_on_c, 0, 55, 75
4, 6480, Note_on_c, 0, 55, 0
4, 6480, Note_on_c, 0, 56, 75
4, 6720, Note_on_c, 0, 56, 0
4, 6720, Note_on_c, 0, 59, 75
4, 6960, Note_on_c, 0, 59, 0
4, 6960, Note_on_c, 0, 58, 75
4, 7590, Note_on_c, 0, 44, 75
4, 7620, Note_on_c, 0, 51, 75
4, 7650, Note_on_c, 0, 56, 75
4, 7680, Note_on_c, 0, 58, 0
4, 7680, Note_on_c, 0, 59, 75
4, 8160, Note_on_c, 0, 59, 0
4, 8160, Note_on_c, 0, 56, 0
4, 8160, Note_on_c, 0, 51, 0
4, 8160, Note_on_c, 0, 44, 0
4, 8160, Note_on_c, 0, 62, 75
4, 8240, Note_on_c, 0, 62, 0
4, 8240, Note_on_c, 0, 63, 75
4, 8319, Note_on_c, 0, 63, 0
4, 8319, Note_on_c, 0, 62, 75
4, 8400, Note_on_c, 0, 62, 0
4, 8400, Note_on_c, 0, 61, 75
4, 8640, Note_on_c, 0, 61, 0
4, 8640, Note_on_c, 0, 59, 75
4, 8880, Note_on_c, 0, 59, 0
4, 8880, Note_on_c, 0, 58, 75
4, 9510, Note_on_c, 0, 44, 75
4, 9540, Note_on_c, 0, 51, 75
4, 9570, Note_on_c, 0, 56, 75
4, 9600, Note_on_c, 0, 58, 0
4, 9600, Note_on_c, 0, 59, 75
4, 10080, Note_on_c, 0, 59, 0
4, 10080, Note_on_c, 0, 56, 0
4, 10080, Note_on_c, 0, 51, 0
4, 10080, Note_on_c, 0, 44, 0
4, 10080, Note_on_c, 0, 62, 75
4, 10160, Note_on_c, 0, 62, 0
4, 10160, Note_on_c, 0, 63, 75
4, 10239, Note_on_c, 0, 63, 0
4, 10239, Note_on_c, 0, 62, 75
4, 10320, Note_on_c, 0, 62, 0
4, 10320, Note_on_c, 0, 61, 75
4, 10560, Note_on_c, 0, 61, 0
4, 10560, Note_on_c, 0, 59, 75
4, 10800, Note_on_c, 0, 59, 0
4, 10800, Note_on_c, 0, 58, 75
4, 11520, Note_on_c, 0, 58, 0
4, 11520, Note_on_c, 0, 56, 75
4, 12000, Note_on_c, 0, 56, 0
4, 12000, Note_on_c, 0, 55, 75
4, 12080, Note_on_c, 0, 55, 0
4, 12080, Note_on_c, 0, 56, 75
4, 12159, Note_on_c, 0, 56, 0
4, 12159, Note_on_c, 0, 55, 75
4, 12240, Note_on_c, 0, 55, 0
4, 12240, Note_on_c, 0, 54, 75
4, 12480, Note_on_c, 0, 54, 0
4, 12480, Note_on_c, 0, 52, 75
4, 12720, Note_on_c, 0, 52, 0
4, 12720, Note_on_c, 0, 51, 75
4, 13440, Note_on_c, 0, 51, 0
4, 13440, Note_on_c, 0, 56, 62
4, 13920, Note_on_c, 0, 56, 0
4, 13920, Note_on_c, 0, 55, 62
4, 14000, Note_on_c, 0, 55, 0
4, 14000, Note_on_c, 0, 56, 62
4, 14079, Note_on_c, 0, 56, 0
4, 14079, Note_on_c, 0, 55, 62
4, 14160, Note_on_c, 0, 55, 0
4, 14160, Note_on_c, 0, 54, 62
4, 14400, Note_on_c, 0, 54, 0
4, 14400, Note_on_c, 0, 52, 62
4, 14640, Note_on_c, 0, 52, 0
4, 14640, Note_on_c, 0, 51, 62
4, 15840, Note_on_c, 0, 51, 0
4, 15840, Note_on_c, 0, 52, 49
4, 15920, Note_on_c, 0, 52, 0
4, 15920, Note_on_c, 0, 51, 49
4, 15999, Note_on_c, 0, 51, 0
4, 15999, Note_on_c, 0, 50, 49
4, 16080, Note_on_c, 0, 50, 0
4, 16080, Note_on_c, 0, 51, 49
4, 16320, Note_on_c, 0, 51, 0
4, 16320, Note_on_c, 0, 50, 49
4, 16560, Note_on_c, 0, 50, 0
4, 16560, Note_on_c, 0, 51, 49
4, 17760, Note_on_c, 0, 51, 0
4, 17760, Note_on_c, 0, 52, 49
4, 17840, Note_on_c, 0, 52, 0
4, 17840, Note_on_c, 0, 51, 49
4, 17919, Note_on_c, 0, 51, 0
4, 17919, Note_on_c, 0, 50, 49
4, 18000, Note_on_c, 0, 50, 0
4, 18000, Note_on_c, 0, 51, 49
4, 18240, Note_on_c, 0, 51, 0
4, 18240, Note_on_c, 0, 50, 49
4, 18480, Note_on_c, 0, 50, 0
4, 18480, Note_on_c, 0, 51, 49
4, 19200, Note_on_c, 0, 51, 0
4, 19440, Note_on_c, 0, 44, 49
4, 19680, Note_on_c, 0, 44, 0
4, 19680, Note_on_c, 0, 50, 49
4, 19920, Note_on_c, 0, 50, 0
4, 19920, Note_on_c, 0, 51, 49
4, 20160, Note_on_c, 0, 51, 0
4, 20400, Note_on_c, 0, 39, 49
4, 20640, Note_on_c, 0, 39, 0
4, 20640, Note_on_c, 0, 53, 49
4, 20720, Note_on_c, 0, 53, 0
4, 20720, Note_on_c, 0, 51, 49
4, 20799, Note_on_c, 0, 51, 0
4, 20799, Note_on_c, 0, 53, 49
4, 20880, Note_on_c, 0, 53, 0
4, 20880, Note_on_c, 0, 54, 49
4, 21120, Note_on_c, 0, 54, 0
4, 21360, Note_on_c, 0, 47, 62
4, 21600, Note_on_c, 0, 47, 0
4, 21600, Note_on_c, 0, 53, 62
4, 21840, Note_on_c, 0, 53, 0
4, 21840, Note_on_c, 0, 54, 62
4, 22080, Note_on_c, 0, 54, 0
4, 22320, Note_on_c, 0, 42, 62
4, 22560, Note_on_c, 0, 42, 0
4, 22560, Note_on_c, 0, 56, 62
4, 22640, Note_on_c, 0, 56, 0
4, 22640, Note_on_c, 0, 54, 62
4, 22719, Note_on_c, 0, 54, 0
4, 22719, Note_on_c, 0, 56, 62
4, 22800, Note_on_c, 0, 56, 0
4, 22800, Note_on_c, 0, 58, 62
4, 23040, Note_on_c, 0, 58, 0
4, 23520, Note_on_c, 0, 63, 62
4, 23520, Note_on_c, 0, 67, 62
4, 24000, Note_on_c, 0, 67, 0
4, 24000, Note_on_c, 0, 63, 0
4, 25200, Note_on_c, 0, 40, 49
4, 25440, Note_on_c, 0, 40, 0
4, 25440, Note_on_c, 0, 50, 49
4, 25520, Note_on_c, 0, 50, 0
4, 25520, Note_on_c, 0, 49, 49
4, 25599, Note_on_c, 0, 49, 0
4, 25599, Note_on_c, 0, 50, 49
4, 25680, Note_on_c, 0, 50, 0
4, 25680, Note_on_c, 0, 49, 49
4, 25920, Note_on_c, 0, 49, 0
4, 26160, Note_on_c, 0, 47, 49
4, 26400, Note_on_c, 0, 47, 0
4, 26400, Note_on_c, 0, 50, 49
4, 26480, Note_on_c, 0, 50, 0
4, 26480, Note_on_c, 0, 51, 49
4, 26559, Note_on_c, 0, 51, 0
4, 26559, Note_on_c, 0, 50, 49
4, 26640, Note_on_c, 0, 50, 0
4, 26640, Note_on_c, 0, 51, 49
4, 26880, Note_on_c, 0, 51, 0
4, 27120, Note_on_c, 0, 44, 49
4, 27360, Note_on_c, 0, 44, 0
4, 27360, Note_on_c, 0, 50, 49
4, 27600, Note_on_c, 0, 50, 0
4, 27600, Note_on_c, 0, 51, 49
4, 27840, Note_on_c, 0, 51, 0
4, 28080, Note_on_c, 0, 39, 62
4, 28320, Note_on_c, 0, 39, 0
4, 28320, Note_on_c, 0, 53, 62
4, 28400, Note_on_c, 0, 53, 0
4, 28400, Note_on_c, 0, 51, 62
4, 28479, Note_on_c, 0, 51, 0
4, 28479, Note_on_c, 0, 53, 62
4, 28560, Note_on_c, 0, 53, 0
4, 28560, Note_on_c, 0, 54, 62
4, 28800, Note_on_c, 0, 54, 0
4, 29040, Note_on_c, 0, 47, 62
4, 29280, Note_on_c, 0, 47, 0
4, 29280, Note_on_c, 0, 53, 62
4, 29520, Note_on_c, 0, 53, 0
4, 29520, Note_on_c, 0, 54, 62
4, 29760, Note_on_c, 0, 54, 0
4, 30000, Note_on_c, 0, 42, 62
4, 30240, Note_on_c, 0, 42, 0
4, 30240, Note_on_c, 0, 56, 62
4, 30320, Note_on_c, 0, 56, 0
4, 30320, Note_on_c, 0, 54, 62
4, 30399, Note_on_c, 0, 54, 0
4, 30399, Note_on_c, 0, 56, 62
4, 30480, Note_on_c, 0, 56, 0
4, 30480, Note_on_c, 0, 58, 62
4, 30720, Note_on_c, 0, 58, 0
4, 31200, Note_on_c, 0, 63, 62
4, 31200, Note_on_c, 0, 67, 62
4, 31680, Note_on_c, 0, 67, 0
4, 31680, Note_on_c, 0, 63, 0
4, 33120, Note_on_c, 0, 59, 49
4, 33200, Note_on_c, 0, 59, 0
4, 33200, Note_on_c, 0, 58, 49
4, 33279, Note_on_c, 0, 58, 0
4, 33279, Note_on_c, 0, 59, 49
4, 33360, Note_on_c, 0, 59, 0
4, 33360, Note_on_c, 0, 58, 49
4, 33600, Note_on_c, 0, 58, 0
4, 33840, Note_on_c, 0, 47, 75
4, 34160, Note_on_c, 0, 47, 0
4, 34160, Note_on_c, 0, 46, 49
4, 34239, Note_on_c, 0, 46, 0
4, 34239, Note_on_c, 0, 47, 49
4, 34320, Note_on_c, 0, 47, 0
4, 34320, Note_on_c, 0, 46, 49
4, 34560, Note_on_c, 0, 46, 0
4, 34560, Note_on_c, 0, 51, 62
4, 35040, Note_on_c, 0, 51, 0
4, 35040, Note_on_c, 0, 52, 62
4, 35120, Note_on_c, 0, 52, 0
4, 35120, Note_on_c, 0, 51, 62
4, 35199, Note_on_c, 0, 51, 0
4, 35199, Note_on_c, 0, 50, 62
4, 35280, Note_on_c, 0, 50, 0
4, 35280, Note_on_c, 0, 51, 62
4, 35520, Note_on_c, 0, 51, 0
4, 35520, Note_on_c, 0, 56, 62
4, 35760, Note_on_c, 0, 56, 0
4, 35760, Note_on_c, 0, 51, 62
4, 36480, Note_on_c, 0, 51, 0
4, 36480, Note_on_c, 0, 50, 62
4, 36960, Note_on_c, 0, 50, 0
4, 36960, Note_on_c, 0, 51, 62
4, 37040, Note_on_c, 0, 51, 0
4, 37040, Note_on_c, 0, 50, 62
4, 37119, Note_on_c, 0, 50, 0
4, 37119, Note_on_c, 0, 51, 62
4, 37200, Note_on_c, 0, 51, 0
4, 37200, Note_on_c, 0, 49, 62
4, 37440, Note_on_c, 0, 49, 0
4, 37440, Note_on_c, 0, 47, 62
4, 37680, Note_on_c, 0, 47, 0
4, 37680, Note_on_c, 0, 46, 62
4, 38400, Note_on_c, 0, 46, 0
4, 38400, Note_on_c, 0, 44, 62
4, 38880, Note_on_c, 0, 44, 0
4, 38880, Note_on_c, 0, 46, 62
4, 38960, Note_on_c, 0, 46, 0
4, 38960, Note_on_c, 0, 44, 62
4, 39039, Note_on_c, 0, 44, 0
4, 39039, Note_on_c, 0, 46, 62
4, 39120, Note_on_c, 0, 46, 0
4, 39120, Note_on_c, 0, 47, 62
4, 39360, Note_on_c, 0, 47, 0
4, 39360, Note_on_c, 0, 49, 62
4, 39600, Note_on_c, 0, 49, 0
4, 39600, Note_on_c, 0, 51, 62
4, 40320, Note_on_c, 0, 51, 0
4, 40320, Note_on_c, 0, 53, 62
4, 40800, Note_on_c, 0, 53, 0
4, 40800, Note_on_c, 0, 55, 62
4, 40880, Note_on_c, 0, 55, 0
4, 40880, Note_on_c, 0, 53, 62
4, 40959, Note_on_c, 0, 53, 0
4, 40959, Note_on_c, 0, 55, 62
4, 41040, Note_on_c, 0, 55, 0
4, 41040, Note_on_c, 0, 56, 62
4, 41280, Note_on_c, 0, 56, 0
4, 41280, Note_on_c, 0, 59, 62
4, 41520, Note_on_c, 0, 59, 0
4, 41520, Note_on_c, 0, 58, 62
4, 42240, Note_on_c, 0, 58, 0
4, 42240, Note_on_c, 0, 63, 75
4, 42720, Note_on_c, 0, 63, 0
4, 42720, Note_on_c, 0, 62, 75
4, 42800, Note_on_c, 0, 62, 0
4, 42800, Note_on_c, 0, 63, 75
4, 42879, Note_on_c, 0, 63, 0
4, 42879, Note_on_c, 0, 62, 75
4, 42960, Note_on_c, 0, 62, 0
4, 42960, Note_on_c, 0, 61, 75
4, 43200, Note_on_c, 0, 61, 0
4, 43200, Note_on_c, 0, 59, 75
4, 43440, Note_on_c, 0, 59, 0
4, 43440, Note_on_c, 0, 58, 75
4, 44160, Note_on_c, 0, 58, 0
4, 44160, Note_on_c, 0, 63, 75
4, 44640, Note_on_c, 0, 63, 0
4, 44640, Note_on_c, 0, 62, 75
4, 44720, Note_on_c, 0, 62, 0
4, 44720, Note_on_c, 0, 63, 75
4, 44799, Note_on_c, 0, 63, 0
4, 44799, Note_on_c, 0, 62, 75
4, 44880, Note_on_c, 0, 62, 0
4, 44880, Note_on_c, 0, 61, 75
4, 45120, Note_on_c, 0, 61, 0
4, 45120, Note_on_c, 0, 59, 75
4, 45360, Note_on_c, 0, 59, 0
4, 45360, Note_on_c, 0, 58, 75
4, 46080, Note_on_c, 0, 58, 0
4, 46080, Note_on_c, 0, 56, 62
4, 46560, Note_on_c, 0, 56, 0
4, 46560, Note_on_c, 0, 55, 62
4, 46640, Note_on_c, 0, 55, 0
4, 46640, Note_on_c, 0, 56, 62
4, 46719, Note_on_c, 0, 56, 0
4, 46719, Note_on_c, 0, 55, 62
4, 46800, Note_on_c, 0, 55, 0
4, 46800, Note_on_c, 0, 54, 62
4, 47040, Note_on_c, 0, 54, 0
4, 47040, Note_on_c, 0, 52, 62
4, 47280, Note_on_c, 0, 52, 0
4, 47280, Note_on_c, 0, 51, 62
4, 48000, Note_on_c, 0, 51, 0
4, 48000, Note_on_c, 0, 56, 62
4, 48480, Note_on_c, 0, 56, 0
4, 48480, Note_on_c, 0, 55, 62
4, 48560, Note_on_c, 0, 55, 0
4, 48560, Note_on_c, 0, 56, 62
4, 48639, Note_on_c, 0, 56, 0
4, 48639, Note_on_c, 0, 55, 62
4, 48720, Note_on_c, 0, 55, 0
4, 48720, Note_on_c, 0, 54, 62
4, 48960, Note_on_c, 0, 54, 0
4, 48960, Note_on_c, 0, 52, 62
4, 49200, Note_on_c, 0, 52, 0
4, 49200, Note_on_c, 0, 51, 62
4, 49920, Note_on_c, 0, 51, 0
4, 49920, Note_on_c, 0, 51, 88
4, 51840, Note_on_c, 0, 51, 0
4, 51840, Control_c, 0, 64, 127
4, 51840, Note_on_c, 0, 51, 62
4, 52560, Note_on_c, 0, 51, 0
4, 52560, Note_on_c, 0, 53, 62
4, 52800, Note_on_c, 0, 53, 0
4, 52800, Note_on_c, 0, 55, 62
4, 53040, Note_on_c, 0, 55, 0
4, 53040, Note_on_c, 0, 56, 75
4, 53280, Note_on_c, 0, 56, 0
4, 53280, Note_on_c, 0, 58, 75
4, 53520, Note_on_c, 0, 58, 0
4, 53520, Control_c, 0, 64, 0
4, 53520, Note_on_c, 0, 59, 75
4, 53760, Note_on_c, 0, 59, 0
4, 53760, Note_on_c, 0, 61, 62
4, 54000, Note_on_c, 0, 61, 0
4, 54000, Note_on_c, 0, 63, 62
4, 54240, Note_on_c, 0, 63, 0
4, 54240, Note_on_c, 0, 64, 62
4, 54480, Note_on_c, 0, 64, 0
4, 54480, Note_on_c, 0, 66, 62
4, 54720, Note_on_c, 0, 66, 0
4, 54720, Note_on_c, 0, 68, 62
4, 54960, Note_on_c, 0, 68, 0
4, 54960, Note_on_c, 0, 66, 62
4, 55200, Note_on_c, 0, 66, 0
4, 55200, Note_on_c, 0, 68, 62
4, 55440, Note_on_c, 0, 68, 0
4, 55440, Note_on_c, 0, 63, 62
4, 55680, Note_on_c, 0, 63, 0
4, 55680, Note_on_c, 0, 64, 62
4, 55920, Note_on_c, 0, 64, 0
4, 55920, Note_on_c, 0, 63, 62
4, 56160, Note_on_c, 0, 63, 0
4, 56160, Note_on_c, 0, 64, 62
4, 56400, Note_on_c, 0, 64, 0
4, 56400, Note_on_c, 0, 61, 62
4, 56640, Note_on_c, 0, 61, 0
4, 56640, Note_on_c, 0, 59, 62
4, 56880, Note_on_c, 0, 59, 0
4, 56880, Note_on_c, 0, 58, 62
4, 57120, Note_on_c, 0, 58, 0
4, 57120, Note_on_c, 0, 56, 62
4, 57360, Note_on_c, 0, 56, 0
4, 57360, Note_on_c, 0, 54, 62
4, 57600, Note_on_c, 0, 54, 0
4, 57600, Note_on_c, 0, 61, 62
4, 57840, Note_on_c, 0, 61, 0
4, 57840, Note_on_c, 0, 63, 62
4, 58080, Note_on_c, 0, 63, 0
4, 58080, Note_on_c, 0, 64, 62
4, 58320, Note_on_c, 0, 64, 0
4, 58320, Note_on_c, 0, 66, 62
4, 58560, Note_on_c, 0, 66, 0
4, 58560, Note_on_c, 0, 68, 62
4, 58800, Note_on_c, 0, 68, 0
4, 58800, Note_on_c, 0, 66, 62
4, 59040, Note_on_c, 0, 66, 0
4, 59040, Note_on_c, 0, 68, 62
4, 59280, Note_on_c, 0, 68, 0
4, 59280, Note_on_c, 0, 63, 62
4, 59520, Note_on_c, 0, 63, 0
4, 59520, Note_on_c, 0, 64, 62
4, 59760, Note_on_c, 0, 64, 0
4, 59760, Note_on_c, 0, 63, 62
4, 60000, Note_on_c, 0, 63, 0
4, 60000, Note_on_c, 0, 64, 62
4, 60240, Note_on_c, 0, 64, 0
4, 60240, Note_on_c, 0, 61, 62
4, 60480, Note_on_c, 0, 61, 0
4, 60480, Note_on_c, 0, 59, 62
4, 60720, Note_on_c, 0, 59, 0
4, 60720, Note_on_c, 0, 58, 62
4, 60960, Note_on_c, 0, 58, 0
4, 60960, Note_on_c, 0, 56, 62
4, 61200, Note_on_c, 0, 56, 0
4, 61200, Note_on_c, 0, 54, 62
4, 61440, Note_on_c, 0, 54, 0
4, 61440, Note_on_c, 0, 61, 62
4, 61560, Note_on_c, 0, 61, 0
4, 61560, Note_on_c, 0, 49, 62
4, 61680, Note_on_c, 0, 49, 0
4, 61680, Note_on_c, 0, 49, 62
4, 61740, Note_on_c, 0, 49, 0
4, 61740, Note_on_c, 0, 51, 62
4, 61800, Note_on_c, 0, 51, 0
4, 61800, Note_on_c, 0, 49, 62
4, 61823, Note_on_c, 0, 49, 0
4, 61920, Note_on_c, 0, 59, 62
4, 62040, Note_on_c, 0, 59, 0
4, 62040, Note_on_c, 0, 47, 62
4, 62160, Note_on_c, 0, 47, 0
4, 62160, Note_on_c, 0, 47, 62
4, 62220, Note_on_c, 0, 47, 0
4, 62220, Note_on_c, 0, 49, 62
4, 62280, Note_on_c, 0, 49, 0
4, 62280, Note_on_c, 0, 47, 62
4, 62303, Note_on_c, 0, 47, 0
4, 62400, Note_on_c, 0, 58, 62
4, 62520, Note_on_c, 0, 58, 0
4, 62520, Note_on_c, 0, 46, 62
4, 62640, Note_on_c, 0, 46, 0
4, 62640, Note_on_c, 0, 46, 62
4, 62700, Note_on_c, 0, 46, 0
4, 62700, Note_on_c, 0, 47, 62
4, 62760, Note_on_c, 0, 47, 0
4, 62760, Note_on_c, 0, 46, 62
4, 62783, Note_on_c, 0, 46, 0
4, 62880, Note_on_c, 0, 56, 62
4, 63000, Note_on_c, 0, 56, 0
4, 63000, Note_on_c, 0, 44, 62
4, 63120, Note_on_c, 0, 44, 0
4, 63120, Note_on_c, 0, 44, 62
4, 63180, Note_on_c, 0, 44, 0
4, 63180, Note_on_c, 0, 46, 62
4, 63240, Note_on_c, 0, 46, 0
4, 63240, Note_on_c, 0, 44, 62
4, 63263, Note_on_c, 0, 44, 0
4, 63360, Note_on_c, 0, 54, 75
4, 63480, Note_on_c, 0, 54, 0
4, 63480, Note_on_c, 0, 42, 75
4, 63600, Note_on_c, 0, 42, 0
4, 63600, Note_on_c, 0, 42, 75
4, 63660, Note_on_c, 0, 42, 0
4, 63660, Note_on_c, 0, 44, 75
4, 63720, Note_on_c, 0, 44, 0
4, 63720, Note_on_c, 0, 42, 75
4, 63743, Note_on_c, 0, 42, 0
4, 63840, Note_on_c, 0, 52, 75
4, 63960, Note_on_c, 0, 52, 0
4, 63960, Note_on_c, 0, 40, 75
4, 64080, Note_on_c, 0, 40, 0
4, 64080, Note_on_c, 0, 40, 75
4, 64140, Note_on_c, 0, 40, 0
4, 64140, Note_on_c, 0, 42, 75
4, 64200, Note_on_c, 0, 42, 0
4, 64200, Note_on_c, 0, 40, 75
4, 64223, Note_on_c, 0, 40, 0
4, 64320, Note_on_c, 0, 50, 75
4, 64440, Note_on_c, 0, 50, 0
4, 64440, Note_on_c, 0, 38, 75
4, 64560, Note_on_c, 0, 38, 0
4, 64560, Note_on_c, 0, 38, 75
4, 64620, Note_on_c, 0, 38, 0
4, 64620, Note_on_c, 0, 40, 75
4, 64680, Note_on_c, 0, 40, 0
4, 64680, Note_on_c, 0, 38, 75
4, 64703, Note_on_c, 0, 38, 0
4, 64800, Note_on_c, 0, 49, 75
4, 64920, Note_on_c, 0, 49, 0
4, 64920, Note_on_c, 0, 37, 75
4, 65040, Note_on_c, 0, 37, 0
4, 65040, Note_on_c, 0, 37, 75
4, 65100, Note_on_c, 0, 37, 0
4, 65100, Note_on_c, 0, 38, 75
4, 65160, Note_on_c, 0, 38, 0
4, 65160, Note_on_c, 0, 37, 75
4, 65183, Note_on_c, 0, 37, 0
4, 65280, Note_on_c, 0, 62, 75
4, 65400, Note_on_c, 0, 62, 0
4, 65400, Note_on_c, 0, 50, 75
4, 65520, Note_on_c, 0, 50, 0
4, 65520, Note_on_c, 0, 50, 75
4, 65580, Note_on_c, 0, 50, 0
4, 65580, Note_on_c, 0, 52, 75
4, 65640, Note_on_c, 0, 52, 0
4, 65640, Note_on_c, 0, 50, 75
4, 65663, Note_on_c, 0, 50, 0
4, 65760, Note_on_c, 0, 61, 75
4, 65880, Note_on_c, 0, 61, 0
4, 65880, Note_on_c, 0, 49, 75
4, 66000, Note_on_c, 0, 49, 0
4, 66000, Note_on_c, 0, 49, 75
4, 66060, Note_on_c, 0, 49, 0
4, 66060, Note_on_c, 0, 51, 75
4, 66120, Note_on_c, 0, 51, 0
4, 66120, Note_on_c, 0, 49, 75
4, 66143, Note_on_c, 0, 49, 0
4, 66240, Note_on_c, 0, 59, 75
4, 66360, Note_on_c, 0, 59, 0
4, 66360, Note_on_c, 0, 47, 75
4, 66480, Note_on_c, 0, 47, 0
4, 66480, Note_on_c, 0, 47, 75
4, 66540, Note_on_c, 0, 47, 0
4, 66540, Note_on_c, 0, 49, 75
4, 66600, Note_on_c, 0, 49, 0
4, 66600, Note_on_c, 0, 47, 75
4, 66623, Note_on_c, 0, 47, 0
4, 66720, Note_on_c, 0, 57, 75
4, 66840, Note_on_c, 0, 57, 0
4, 66840, Note_on_c, 0, 45, 75
4, 66960, Note_on_c, 0, 45, 0
4, 66960, Note_on_c, 0, 45, 75
4, 67020, Note_on_c, 0, 45, 0
4, 67020, Note_on_c, 0, 47, 75
4, 67080, Note_on_c, 0, 47, 0
4, 67080, Note_on_c, 0, 45, 75
4, 67103, Note_on_c, 0, 45, 0
4, 67200, Note_on_c, 0, 55, 75
4, 67320, Note_on_c, 0, 55, 0
4, 67320, Note_on_c, 0, 43, 75
4, 67440, Note_on_c, 0, 43, 0
4, 67440, Note_on_c, 0, 43, 75
4, 67500, Note_on_c, 0, 43, 0
4, 67500, Note_on_c, 0, 45, 75
4, 67560, Note_on_c, 0, 45, 0
4, 67560, Note_on_c, 0, 43, 75
4, 67583, Note_on_c, 0, 43, 0
4, 67680, Note_on_c, 0, 53, 75
4, 67800, Note_on_c, 0, 53, 0
4, 67800, Note_on_c, 0, 41, 75
4, 67920, Note_on_c, 0, 41, 0
4, 67920, Note_on_c, 0, 41, 75
4, 67980, Note_on_c, 0, 41, 0
4, 67980, Note_on_c, 0, 43, 75
4, 68040, Note_on_c, 0, 43, 0
4, 68040, Note_on_c, 0, 41, 75
4, 68063, Note_on_c, 0, 41, 0
4, 68160, Note_on_c, 0, 51, 75
4, 68280, Note_on_c, 0, 51, 0
4, 68280, Note_on_c, 0, 39, 75
4, 68400, Note_on_c, 0, 39, 0
4, 68400, Note_on_c, 0, 39, 75
4, 68460, Note_on_c, 0, 39, 0
4, 68460, Note_on_c, 0, 41, 75
4, 68520, Note_on_c, 0, 41, 0
4, 68520, Note_on_c, 0, 39, 75
4, 68543, Note_on_c, 0, 39, 0
4, 68640, Note_on_c, 0, 49, 75
4, 68760, Note_on_c, 0, 49, 0
4, 68760, Note_on_c, 0, 37, 75
4, 68880, Note_on_c, 0, 37, 0
4, 68880, Note_on_c, 0, 37, 75
4, 68940, Note_on_c, 0, 37, 0
4, 68940, Note_on_c, 0, 39, 75
4, 69000, Note_on_c, 0, 39, 0
4, 69000, Note_on_c, 0, 37, 75
4, 69023, Note_on_c, 0, 37, 0
4, 69120, Control_c, 0, 64, 127
4, 69120, Note_on_c, 0, 49, 88
4, 69360, Note_on_c, 0, 49, 0
4, 69360, Note_on_c, 0, 51, 88
4, 69600, Note_on_c, 0, 51, 0
4, 69600, Note_on_c, 0, 53, 88
4, 69840, Note_on_c, 0, 53, 0
4, 69840, Note_on_c, 0, 54, 88
4, 70080, Note_on_c, 0, 54, 0
4, 70080, Note_on_c, 0, 54, 88
4, 70320, Note_on_c, 0, 54, 0
4, 70320, Note_on_c, 0, 55, 88
4, 70560, Note_on_c, 0, 55, 0
4, 70560, Note_on_c, 0, 58, 88
4, 70800, Note_on_c, 0, 58, 0
4, 70800, Control_c, 0, 64, 0
4, 70800, Note_on_c, 0, 56, 88
4, 71040, Note_on_c, 0, 56, 0
4, 71040, Note_on_c, 0, 59, 88
4, 71280, Note_on_c, 0, 59, 0
4, 71280, Note_on_c, 0, 58, 88
4, 71520, Note_on_c, 0, 58, 0
4, 71520, Note_on_c, 0, 58, 88
4, 71760, Note_on_c, 0, 58, 0
4, 71760, Note_on_c, 0, 56, 88
4, 72000, Note_on_c, 0, 56, 0
4, 72000, Note_on_c, 0, 59, 88
4, 72240, Note_on_c, 0, 59, 0
4, 72240, Note_on_c, 0, 58, 88
4, 72480, Note_on_c, 0, 58, 0
4, 72480, Note_on_c, 0, 58, 88
4, 72720, Note_on_c, 0, 58, 0
4, 72720, Note_on_c, 0, 56, 88
4, 72960, Note_on_c, 0, 56, 0
4, 72960, Control_c, 0, 64, 127
4, 72960, Note_on_c, 0, 52, 88
4, 73200, Note_on_c, 0, 52, 0
4, 73200, Note_on_c, 0, 54, 88
4, 73440, Note_on_c, 0, 54, 0
4, 73440, Note_on_c, 0, 56, 88
4, 73680, Note_on_c, 0, 56, 0
4, 73680, Note_on_c, 0, 57, 88
4, 73920, Note_on_c, 0, 57, 0
4, 73920, Note_on_c, 0, 57, 88
4, 74160, Note_on_c, 0, 57, 0
4, 74160, Note_on_c, 0, 58, 88
4, 74400, Note_on_c, 0, 58, 0
4, 74400, Note_on_c, 0, 61, 88
4, 74640, Note_on_c, 0, 61, 0
4, 74640, Control_c, 0, 64, 0
4, 74640, Note_on_c, 0, 59, 88
4, 74880, Note_on_c, 0, 59, 0
4, 74880, Note_on_c, 0, 62, 88
4, 75120, Note_on_c, 0, 62, 0
4, 75120, Note_on_c, 0, 61, 88
4, 75360, Note_on_c, 0, 61, 0
4, 75360, Note_on_c, 0, 61, 88
4, 75600, Note_on_c, 0, 61, 0
4, 75600, Note_on_c, 0, 59, 88
4, 75840, Note_on_c, 0, 59, 0
4, 75840, Note_on_c, 0, 62, 88
4, 76080, Note_on_c, 0, 62, 0
4, 76080, Note_on_c, 0, 61, 88
4, 76320, Note_on_c, 0, 61, 0
4, 76320, Note_on_c, 0, 61, 88
4, 76560, Note_on_c, 0, 61, 0
4, 76560, Note_on_c, 0, 59, 88
4, 76800, Note_on_c, 0, 59, 0
4, 76800, Note_on_c, 0, 63, 88
4, 77040, Note_on_c, 0, 63, 0
4, 77040, Note_on_c, 0, 62, 88
4, 77280, Note_on_c, 0, 62, 0
4, 77280, Note_on_c, 0, 62, 88
4, 77520, Note_on_c, 0, 62, 0
4, 77520, Note_on_c, 0, 60, 88
4, 77760, Note_on_c, 0, 60, 0
4, 77760, Note_on_c, 0, 63, 88
4, 78000, Note_on_c, 0, 63, 0
4, 78000, Note_on_c, 0, 62, 88
4, 78240, Note_on_c, 0, 62, 0
4, 78240, Note_on_c, 0, 62, 88
4, 78480, Note_on_c, 0, 62, 0
4, 78480, Note_on_c, 0, 60, 88
4, 78720, Note_on_c, 0, 60, 0
4, 78720, Note_on_c, 0, 64, 88
4, 78960, Note_on_c, 0, 64, 0
4, 78960, Note_on_c, 0, 63, 88
4, 79200, Note_on_c, 0, 63, 0
4, 79200, Note_on_c, 0, 63, 88
4, 79440, Note_on_c, 0, 63, 0
4, 79440, Note_on_c, 0, 61, 88
4, 79680, Note_on_c, 0, 61, 0
4, 79680, Note_on_c, 0, 61, 88
4, 79920, Note_on_c, 0, 61, 0
4, 79920, Note_on_c, 0, 60, 88
4, 80160, Note_on_c, 0, 60, 0
4, 80160, Note_on_c, 0, 54, 88
4, 80400, Note_on_c, 0, 54, 0
4, 80400, Note_on_c, 0, 53, 88
4, 80640, Note_on_c, 0, 53, 0
4, 80640, Control_c, 0, 64, 127
4, 80640, Note_on_c, 0, 52, 88
4, 80880, Note_on_c, 0, 52, 0
4, 80880, Note_on_c, 0, 51, 88
4, 81120, Note_on_c, 0, 51, 0
4, 81120, Note_on_c, 0, 50, 88
4, 81360, Note_on_c, 0, 50, 0
4, 81360, Control_c, 0, 64, 0
4, 81360, Note_on_c, 0, 49, 88
4, 81600, Note_on_c, 0, 49, 0
4, 81600, Control_c, 0, 64, 127
4, 81600, Note_on_c, 0, 47, 88
4, 81840, Note_on_c, 0, 47, 0
4, 81840, Note_on_c, 0, 46, 88
4, 82080, Note_on_c, 0, 46, 0
4, 82080, Note_on_c, 0, 44, 88
4, 82320, Note_on_c, 0, 44, 0
4, 82320, Control_c, 0, 64, 0
4, 82320, Note_on_c, 0, 42, 88
4, 82560, Note_on_c, 0, 42, 0
4, 82560, Control_c, 0, 64, 127
4, 82560, Note_on_c, 0, 52, 88
4, 82800, Note_on_c, 0, 52, 0
4, 82800, Note_on_c, 0, 51, 88
4, 83040, Note_on_c, 0, 51, 0
4, 83040, Note_on_c, 0, 50, 88
4, 83280, Note_on_c, 0, 50, 0
4, 83280, Note_on_c, 0, 49, 88
4, 83520, Note_on_c, 0, 49, 0
4, 83520, Note_on_c, 0, 47, 88
4, 83760, Note_on_c, 0, 47, 0
4, 83760, Note_on_c, 0, 46, 88
4, 84000, Note_on_c, 0, 46, 0
4, 84000, Note_on_c, 0, 44, 88
4, 84240, Note_on_c, 0, 44, 0
4, 84240, Control_c, 0, 64, 0
4, 84240, Note_on_c, 0, 42, 88
4, 84480, Note_on_c, 0, 42, 0
4, 84480, Control_c, 0, 64, 127
4, 84480, Note_on_c, 0, 56, 88
4, 84720, Note_on_c, 0, 56, 0
4, 84720, Note_on_c, 0, 54, 88
4, 84960, Note_on_c, 0, 54, 0
4, 84960, Note_on_c, 0, 52, 88
4, 85200, Note_on_c, 0, 52, 0
4, 85200, Note_on_c, 0, 51, 88
4, 85440, Note_on_c, 0, 51, 0
4, 85440, Note_on_c, 0, 50, 88
4, 85680, Note_on_c, 0, 50, 0
4, 85680, Note_on_c, 0, 49, 88
4, 85920, Note_on_c, 0, 49, 0
4, 85920, Note_on_c, 0, 47, 88
4, 86160, Note_on_c, 0, 47, 0
4, 86160, Control_c, 0, 64, 0
4, 86160, Note_on_c, 0, 46, 88
4, 86400, Note_on_c, 0, 46, 0
4, 86400, Control_c, 0, 64, 127
4, 86400, Note_on_c, 0, 56, 88
4, 86640, Note_on_c, 0, 56, 0
4, 86640, Note_on_c, 0, 54, 88
4, 86880, Note_on_c, 0, 54, 0
4, 86880, Note_on_c, 0, 52, 88
4, 87120, Note_on_c, 0, 52, 0
4, 87120, Note_on_c, 0, 51, 88
4, 87360, Note_on_c, 0, 51, 0
4, 87360, Note_on_c, 0, 50, 88
4, 87600, Note_on_c, 0, 50, 0
4, 87600, Note_on_c, 0, 49, 88
4, 87840, Note_on_c, 0, 49, 0
4, 87840, Note_on_c, 0, 47, 88
4, 88080, Note_on_c, 0, 47, 0
4, 88080, Control_c, 0, 64, 0
4, 88080, Note_on_c, 0, 46, 88
4, 88320, Note_on_c, 0, 46, 0
4, 88320, Note_on_c, 0, 30, 101
4, 88320, Note_on_c, 0, 42, 101
4, 88400, Note_on_c, 0, 42, 0
4, 88400, Note_on_c, 0, 30, 0
4, 88400, Note_on_c, 0, 32, 101
4, 88400, Note_on_c, 0, 44, 101
4, 88479, Note_on_c, 0, 44, 0
4, 88479, Note_on_c, 0, 32, 0
4, 88479, Note_on_c, 0, 34, 101
4, 88479, Note_on_c, 0, 46, 101
4, 88560, Note_on_c, 0, 46, 0
4, 88560, Note_on_c, 0, 34, 0
4, 88560, Note_on_c, 0, 35, 101
4, 88560, Note_on_c, 0, 47, 101
4, 88640, Note_on_c, 0, 47, 0
4, 88640, Note_on_c, 0, 35, 0
4, 88640, Note_on_c, 0, 37, 101
4, 88640, Note_on_c, 0, 49, 101
4, 88719, Note_on_c, 0, 49, 0
4, 88719, Note_on_c, 0, 37, 0
4, 88719, Note_on_c, 0, 39, 101
4, 88719, Note_on_c, 0, 51, 101
4, 88800, Note_on_c, 0, 51, 0
4, 88800, Note_on_c, 0, 39, 0
4, 88800, Note_on_c, 0, 40, 101
4, 88800, Note_on_c, 0, 52, 101
4, 88880, Note_on_c, 0, 52, 0
4, 88880, Note_on_c, 0, 40, 0
4, 88880, Note_on_c, 0, 41, 101
4, 88880, Note_on_c, 0, 53, 101
4, 88959, Note_on_c, 0, 53, 0
4, 88959, Note_on_c, 0, 41, 0
4, 88959, Note_on_c, 0, 42, 101
4, 88959, Note_on_c, 0, 54, 101
4, 89040, Note_on_c, 0, 54, 0
4, 89040, Note_on_c, 0, 42, 0
4, 89040, Note_on_c, 0, 43, 101
4, 89040, Note_on_c, 0, 55, 101
4, 89120, Note_on_c, 0, 55, 0
4, 89120, Note_on_c, 0, 43, 0
4, 89120, Note_on_c, 0, 44, 101
4, 89120, Note_on_c, 0, 56, 101
4, 89199, Note_on_c, 0, 56, 0
4, 89199, Note_on_c, 0, 44, 0
4, 89199, Note_on_c, 0, 46, 101
4, 89199, Note_on_c, 0, 58, 101
4, 89280, Note_on_c, 0, 58, 0
4, 89280, Note_on_c, 0, 46, 0
4, 89280, Note_on_c, 0, 47, 101
4, 89280, Note_on_c, 0, 59, 101
4, 89360, Note_on_c, 0, 59, 0
4, 89360, Note_on_c, 0, 47, 0
4, 89360, Note_on_c, 0, 49, 101
4, 89360, Note_on_c, 0, 61, 101
4, 89439, Note_on_c, 0, 61, 0
4, 89439, Note_on_c, 0, 49, 0
4, 89439, Note_on_c, 0, 51, 101
4, 89439, Note_on_c, 0, 63, 101
4, 89520, Note_on_c, 0, 63, 0
4, 89520, Note_on_c, 0, 51, 0
4, 89520, Note_on_c, 0, 52, 101
4, 89520, Note_on_c, 0, 64, 101
4, 89600, Note_on_c, 0, 64, 0
4, 89600, Note_on_c, 0, 52, 0
4, 89600, Note_on_c, 0, 51, 101
4, 89600, Note_on_c, 0, 63, 101
4, 89679, Note_on_c, 0, 63, 0
4, 89679, Note_on_c, 0, 51, 0
4, 89679, Note_on_c, 0, 49, 101
4, 89679, Note_on_c, 0, 61, 101
4, 89760, Note_on_c, 0, 61, 0
4, 89760, Note_on_c, 0, 49, 0
4, 89760, Note_on_c, 0, 47, 101
4, 89760, Note_on_c, 0, 59, 101
4, 89840, Note_on_c, 0, 59, 0
4, 89840, Note_on_c, 0, 47, 0
4, 89840, Note_on_c, 0, 46, 101
4, 89840, Note_on_c, 0, 58, 101
4, 89919, Note_on_c, 0, 58, 0
4, 89919, Note_on_c, 0, 46, 0
4, 89919, Note_on_c, 0, 45, 101
4, 89919, Note_on_c, 0, 57, 101
4, 90000, Note_on_c, 0, 57, 0
4, 90000, Note_on_c, 0, 45, 0
4, 90000, Note_on_c, 0, 44, 101
4, 90000, Note_on_c, 0, 56, 101
4, 90080, Note_on_c, 0, 56, 0
4, 90080, Note_on_c, 0, 44, 0
4, 90080, Note_on_c, 0, 43, 101
4, 90080, Note_on_c, 0, 55, 101
4, 90159, Note_on_c, 0, 55, 0
4, 90159, Note_on_c, 0, 43, 0
4, 90159, Note_on_c, 0, 42, 101
4, 90159, Note_on_c, 0, 54, 101
4, 90720, Note_on_c, 0, 54, 0
4, 90720, Note_on_c, 0, 42, 0
4, 90720, Note_on_c, 0, 49, 101
4, 90960, Note_on_c, 0, 49, 0
4, 90960, Note_on_c, 0, 51, 101
4, 91200, Note_on_c, 0, 51, 0
4, 91200, Note_on_c, 0, 52, 101
4, 91440, Note_on_c, 0, 52, 0
4, 91440, Note_on_c, 0, 54, 101
4, 91680, Note_on_c, 0, 54, 0
4, 91680, Note_on_c, 0, 56, 101
4, 91920, Note_on_c, 0, 56, 0
4, 91920, Note_on_c, 0, 54, 101
4, 92160, Note_on_c, 0, 54, 0
4, 92160, Note_on_c, 0, 56, 101
4, 92400, Note_on_c, 0, 56, 0
4, 92400, Note_on_c, 0, 51, 101
4, 92640, Note_on_c, 0, 51, 0
4, 92640, Note_on_c, 0, 52, 101
4, 92880, Note_on_c, 0, 52, 0
4, 92880, Note_on_c, 0, 51, 101
4, 93120, Note_on_c, 0, 51, 0
4, 93120, Note_on_c, 0, 52, 101
4, 93360, Note_on_c, 0, 52, 0
4, 93360, Note_on_c, 0, 49, 101
4, 93600, Note_on_c, 0, 49, 0
4, 93600, Note_on_c, 0, 47, 101
4, 93840, Note_on_c, 0, 47, 0
4, 93840, Note_on_c, 0, 46, 101
4, 94080, Note_on_c, 0, 46, 0
4, 94080, Note_on_c, 0, 44, 101
4, 94320, Note_on_c, 0, 44, 0
4, 94320, Note_on_c, 0, 42, 101
4, 94560, Note_on_c, 0, 42, 0
4, 94560, Note_on_c, 0, 49, 101
4, 94800, Note_on_c, 0, 49, 0
4, 94800, Note_on_c, 0, 51, 101
4, 95040, Note_on_c, 0, 51, 0
4, 95040, Note_on_c, 0, 52, 101
4, 95280, Note_on_c, 0, 52, 0
4, 95280, Note_on_c, 0, 54, 101
4, 95520, Note_on_c, 0, 54, 0
4, 95520, Note_on_c, 0, 56, 101
4, 95760, Note_on_c, 0, 56, 0
4, 95760, Note_on_c, 0, 54, 101
4, 96000, Note_on_c, 0, 54, 0
4, 96000, Note_on_c, 0, 59, 101
4, 96240, Note_on_c, 0, 59, 0
4, 96240, Note_on_c, 0, 54, 101
4, 96480, Note_on_c, 0, 54, 0
4, 96480, Note_on_c, 0, 55, 101
4, 96720, Note_on_c, 0, 55, 0
4, 96720, Note_on_c, 0, 56, 101
4, 96960, Note_on_c, 0, 56, 0
4, 96960, Note_on_c, 0, 58, 101
4, 97200, Note_on_c, 0, 58, 0
4, 97200, Note_on_c, 0, 59, 101
4, 97440, Note_on_c, 0, 59, 0
4, 97440, Note_on_c, 0, 61, 101
4, 97680, Note_on_c, 0, 61, 0
4, 97680, Note_on_c, 0, 62, 101
4, 97920, Note_on_c, 0, 62, 0
4, 97920, Note_on_c, 0, 62, 101
4, 98160, Note_on_c, 0, 62, 0
4, 98160, Note_on_c, 0, 63, 101
4, 98400, Note_on_c, 0, 63, 0
4, 98400, Note_on_c, 0, 52, 127
4, 98400, Note_on_c, 0, 64, 127
4, 98640, Note_on_c, 0, 64, 0
4, 98640, Note_on_c, 0, 52, 0
4, 98640, Note_on_c, 0, 51, 127
4, 98640, Note_on_c, 0, 63, 127
4, 98880, Note_on_c, 0, 63, 0
4, 98880, Note_on_c, 0, 51, 0
4, 98880, Note_on_c, 0, 52, 127
4, 98880, Note_on_c, 0, 64, 127
4, 99120, Note_on_c, 0, 64, 0
4, 99120, Note_on_c, 0, 52, 0
4, 99120, Note_on_c, 0, 49, 127
4, 99120, Note_on_c, 0, 61, 127
4, 99360, Note_on_c, 0, 61, 0
4, 99360, Note_on_c, 0, 49, 0
4, 99360, Note_on_c, 0, 51, 127
4, 99360, Note_on_c, 0, 63, 127
4, 99600, Note_on_c, 0, 63, 0
4, 99600, Note_on_c, 0, 51, 0
4, 99600, Note_on_c, 0, 47, 127
4, 99600, Note_on_c, 0, 59, 127
4, 99840, Note_on_c, 0, 59, 0
4, 99840, Note_on_c, 0, 47, 0
4, 99840, Note_on_c, 0, 49, 127
4, 99840, Note_on_c, 0, 61, 127
4, 100320, Note_on_c, 0, 61, 0
4, 100320, Note_on_c, 0, 49, 0
4, 100320, Note_on_c, 0, 52, 127
4, 100320, Note_on_c, 0, 64, 127
4, 100560, Note_on_c, 0, 64, 0
4, 100560, Note_on_c, 0, 52, 0
4, 100560, Note_on_c, 0, 52, 127
4, 100560, Note_on_c, 0, 64, 127
4, 100680, Note_on_c, 0, 64, 0
4, 100680, Note_on_c, 0, 52, 0
4, 100680, Note_on_c, 0, 54, 127
4, 100680, Note_on_c, 0, 66, 127
4, 100800, Note_on_c, 0, 66, 0
4, 100800, Note_on_c, 0, 54, 0
4, 100800, Note_on_c, 0, 52, 127
4, 100800, Note_on_c, 0, 64, 127
4, 100920, Note_on_c, 0, 64, 0
4, 100920, Note_on_c, 0, 52, 0
4, 100920, Note_on_c, 0, 51, 127
4, 100920, Note_on_c, 0, 63, 127
4, 101040, Note_on_c, 0, 63, 0
4, 101040, Note_on_c, 0, 51, 0
4, 101040, Note_on_c, 0, 49, 127
4, 101040, Note_on_c, 0, 61, 127
4, 101160, Note_on_c, 0, 61, 0
4, 101160, Note_on_c, 0, 49, 0
4, 101160, Note_on_c, 0, 47, 127
4, 101160, Note_on_c, 0, 59, 127
4, 101280, Note_on_c, 0, 59, 0
4, 101280, Note_on_c, 0, 47, 0
4, 101280, Note_on_c, 0, 49, 127
4, 101280, Note_on_c, 0, 61, 127
4, 101520, Note_on_c, 0, 61, 0
4, 101520, Note_on_c, 0, 49, 0
4, 101520, Note_on_c, 0, 51, 127
4, 101520, Note_on_c, 0, 63, 127
4, 101760, Note_on_c, 0, 63, 0
4, 101760, Note_on_c, 0, 51, 0
4, 101760, Note_on_c, 0, 49, 127
4, 101760, Note_on_c, 0, 61, 127
4, 102240, Note_on_c, 0, 61, 0
4, 102240, Note_on_c, 0, 49, 0
4, 102240, Note_on_c, 0, 51, 101
4, 102240, Note_on_c, 0, 63, 101
4, 102360, Note_on_c, 0, 63, 0
4, 102360, Note_on_c, 0, 51, 0
4, 102360, Note_on_c, 0, 52, 101
4, 102360, Note_on_c, 0, 64, 101
4, 102480, Note_on_c, 0, 64, 0
4, 102480, Note_on_c, 0, 52, 0
4, 102480, Note_on_c, 0, 51, 101
4, 102480, Note_on_c, 0, 63, 101
4, 102600, Note_on_c, 0, 63, 0
4, 102600, Note_on_c, 0, 51, 0
4, 102600, Note_on_c, 0, 49, 101
4, 102600, Note_on_c, 0, 61, 101
4, 102720, Note_on_c, 0, 61, 0
4, 102720, Note_on_c, 0, 49, 0
4, 102720, Note_on_c, 0, 51, 101
4, 102720, Note_on_c, 0, 63, 101
4, 102840, Note_on_c, 0, 63, 0
4, 102840, Note_on_c, 0, 51, 0
4, 102840, Note_on_c, 0, 52, 101
4, 102840, Note_on_c, 0, 64, 101
4, 102960, Note_on_c, 0, 64, 0
4, 102960, Note_on_c, 0, 52, 0
4, 102960, Note_on_c, 0, 51, 101
4, 102960, Note_on_c, 0, 63, 101
4, 103080, Note_on_c, 0, 63, 0
4, 103080, Note_on_c, 0, 51, 0
4, 103080, Note_on_c, 0, 49, 101
4, 103080, Note_on_c, 0, 61, 101
4, 103200, Note_on_c, 0, 61, 0
4, 103200, Note_on_c, 0, 49, 0
4, 103200, Note_on_c, 0, 51, 101
4, 103200, Note_on_c, 0, 63, 101
4, 103280, Note_on_c, 0, 63, 0
4, 103280, Note_on_c, 0, 51, 0
4, 103280, Note_on_c, 0, 52, 101
4, 103280, Note_on_c, 0, 64, 101
4, 103359, Note_on_c, 0, 64, 0
4, 103359, Note_on_c, 0, 52, 0
4, 103359, Note_on_c, 0, 51, 101
4, 103359, Note_on_c, 0, 63, 101
4, 103440, Note_on_c, 0, 63, 0
4, 103440, Note_on_c, 0, 51, 0
4, 103440, Note_on_c, 0, 49, 101
4, 103440, Note_on_c, 0, 61, 101
4, 103520, Note_on_c, 0, 61, 0
4, 103520, Note_on_c, 0, 49, 0
4, 103520, Note_on_c, 0, 51, 101
4, 103520, Note_on_c, 0, 63, 101
4, 103599, Note_on_c, 0, 63, 0
4, 103599, Note_on_c, 0, 51, 0
4, 103599, Note_on_c, 0, 52, 101
4, 103599, Note_on_c, 0, 64, 101
4, 103680, Note_on_c, 0, 64, 0
4, 103680, Note_on_c, 0, 52, 0
4, 103680, Note_on_c, 0, 51, 101
4, 103680, Note_on_c, 0, 63, 101
4, 103760, Note_on_c, 0, 63, 0
4, 103760, Note_on_c, 0, 51, 0
4, 103760, Note_on_c, 0, 52, 101
4, 103760, Note_on_c, 0, 64, 101
4, 103839, Note_on_c, 0, 64, 0
4, 103839, Note_on_c, 0, 52, 0
4, 103839, Note_on_c, 0, 51, 101
4, 103839, Note_on_c, 0, 63, 101
4, 103920, Note_on_c, 0, 63, 0
4, 103920, Note_on_c, 0, 51, 0
4, 103920, Note_on_c, 0, 49, 101
4, 103920, Note_on_c, 0, 61, 101
4, 104000, Note_on_c, 0, 61, 0
4, 104000, Note_on_c, 0, 49, 0
4, 104000, Note_on_c, 0, 51, 101
4, 104000, Note_on_c, 0, 63, 101
4, 104079, Note_on_c, 0, 63, 0
4, 104079, Note_on_c, 0, 51, 0
4, 104079, Note_on_c, 0, 52, 101
4, 104079, Note_on_c, 0, 64, 101
4, 104160, Note_on_c, 0, 64, 0
4, 104160, Note_on_c, 0, 52, 0
4, 104160, Note_on_c, 0, 54, 101
4, 104160, Note_on_c, 0, 66, 101
4, 104175, Note_on_c, 0, 66, 0
4, 104175, Note_on_c, 0, 54, 0
4, 104240, Note_on_c, 0, 52, 101
4, 104240, Note_on_c, 0, 64, 101
4, 104256, Note_on_c, 0, 64, 0
4, 104256, Note_on_c, 0, 52, 0
4, 104319, Note_on_c, 0, 51, 101
4, 104319, Note_on_c, 0, 63, 101
4, 104335, Note_on_c, 0, 63, 0
4, 104335, Note_on_c, 0, 51, 0
4, 104400, Note_on_c, 0, 50, 101
4, 104400, Note_on_c, 0, 62, 101
4, 104415, Note_on_c, 0, 62, 0
4, 104415, Note_on_c, 0, 50, 0
4, 104480, Note_on_c, 0, 51, 101
4, 104480, Note_on_c, 0, 63, 101
4, 104496, Note_on_c, 0, 63, 0
4, 104496, Note_on_c, 0, 51, 0
4, 104559, Note_on_c, 0, 52, 101
4, 104559, Note_on_c, 0, 64, 101
4, 104575, Note_on_c, 0, 64, 0
4, 104575, Note_on_c, 0, 52, 0
4, 104640, Note_on_c, 0, 51, 101
4, 104640, Note_on_c, 0, 63, 101
4, 104655, Note_on_c, 0, 63, 0
4, 104655, Note_on_c, 0, 51, 0
4, 104720, Note_on_c, 0, 49, 101
4, 104720, Note_on_c, 0, 61, 101
4, 104736, Note_on_c, 0, 61, 0
4, 104736, Note_on_c, 0, 49, 0
4, 104799, Note_on_c, 0, 47, 101
4, 104799, Note_on_c, 0, 59, 101
4, 104815, Note_on_c, 0, 59, 0
4, 104815, Note_on_c, 0, 47, 0
4, 104880, Note_on_c, 0, 46, 101
4, 104880, Note_on_c, 0, 58, 101
4, 104895, Note_on_c, 0, 58, 0
4, 104895, Note_on_c, 0, 46, 0
4, 104960, Note_on_c, 0, 47, 101
4, 104960, Note_on_c, 0, 59, 101
4, 104976, Note_on_c, 0, 59, 0
4, 104976, Note_on_c, 0, 47, 0
4, 105039, Note_on_c, 0, 43, 101
4, 105039, Note_on_c, 0, 55, 101
4, 105055, Note_on_c, 0, 55, 0
4, 105055, Note_on_c, 0, 43, 0
4, 105120, Note_on_c, 0, 44, 101
4, 105120, Note_on_c, 0, 56, 101
4, 105135, Note_on_c, 0, 56, 0
4, 105135, Note_on_c, 0, 44, 0
4, 105200, Note_on_c, 0, 39, 101
4, 105200, Note_on_c, 0, 51, 101
4, 105216, Note_on_c, 0, 51, 0
4, 105216, Note_on_c, 0, 39, 0
4, 105279, Note_on_c, 0, 40, 101
4, 105279, Note_on_c, 0, 52, 101
4, 105295, Note_on_c, 0, 52, 0
4, 105295, Note_on_c, 0, 40, 0
4, 105360, Note_on_c, 0, 38, 101
4, 105360, Note_on_c, 0, 50, 101
4, 105375, Note_on_c, 0, 50, 0
4, 105375, Note_on_c, 0, 38, 0
4, 105440, Note_on_c, 0, 39, 101
4, 105440, Note_on_c, 0, 51, 101
4, 105456, Note_on_c, 0, 51, 0
4, 105456, Note_on_c, 0, 39, 0
4, 105519, Note_on_c, 0, 34, 101
4, 105519, Note_on_c, 0, 46, 101
4, 105535, Note_on_c, 0, 46, 0
4, 105535, Note_on_c, 0, 34, 0
4, 105600, Note_on_c, 0, 35, 101
4, 105600, Note_on_c, 0, 47, 101
4, 105615, Note_on_c, 0, 47, 0
4, 105615, Note_on_c, 0, 35, 0
4, 105680, Note_on_c, 0, 31, 101
4, 105680, Note_on_c, 0, 43, 101
4, 105696, Note_on_c, 0, 43, 0
4, 105696, Note_on_c, 0, 31, 0
4, 105759, Note_on_c, 0, 32, 101
4, 105759, Note_on_c, 0, 44, 101
4, 105775, Note_on_c, 0, 44, 0
4, 105775, Note_on_c, 0, 32, 0
4, 105840, Note_on_c, 0, 27, 101
4, 105840, Note_on_c, 0, 39, 101
4, 105855, Note_on_c, 0, 39, 0
4, 105855, Note_on_c, 0, 27, 0
4, 105920, Note_on_c, 0, 28, 101
4, 105920, Note_on_c, 0, 40, 101
4, 105936, Note_on_c, 0, 40, 0
4, 105936, Note_on_c, 0, 28, 0
4, 105999, Note_on_c, 0, 26, 101
4, 105999, Note_on_c, 0, 38, 101
4, 106015, Note_on_c, 0, 38, 0
4, 106015, Note_on_c, 0, 26, 0
4, 106080, Note_on_c, 0, 27, 101
4, 106080, Note_on_c, 0, 39, 101
4, 106127, Note_on_c, 0, 39, 0
4, 106127, Note_on_c, 0, 27, 0
4, 106320, Note_on_c, 0, 44, 62
4, 106320, Note_on_c, 0, 47, 62
4, 106367, Note_on_c, 0, 47, 0
4, 106367, Note_on_c, 0, 44, 0
4, 106560, Note_on_c, 0, 39, 62
4, 106560, Note_on_c, 0, 46, 62
4, 106607, Note_on_c, 0, 46, 0
4, 106607, Note_on_c, 0, 39, 0
4, 107280, Note_on_c, 0, 44, 62
4, 107280, Note_on_c, 0, 47, 62
4, 107327, Note_on_c, 0, 47, 0
4, 107327, Note_on_c, 0, 44, 0
4, 107520, Note_on_c, 0, 39, 62
4, 107520, Note_on_c, 0, 46, 62
4, 107760, Note_on_c, 0, 46, 0
4, 107760, Note_on_c, 0, 39, 0
4, 108480, Note_on_c, 0, 39, 49
4, 108480, Note_on_c, 0, 46, 49
4, 108720, Note_on_c, 0, 46, 0
4, 108720, Note_on_c, 0, 39, 0
4, 109440, Note_on_c, 0, 39, 49
4, 109440, Note_on_c, 0, 46, 49
4, 109680, Note_on_c, 0, 46, 0
4, 109680, Note_on_c, 0, 39, 0
4, 109920, Note_on_c, 0, 51, 62
4, 110400, Note_on_c, 0, 51, 0
4, 110400, Note_on_c, 0, 52, 62
4, 110480, Note_on_c, 0, 52, 0
4, 110480, Note_on_c, 0, 51, 62
4, 110559, Note_on_c, 0, 51, 0
4, 110559, Note_on_c, 0, 50, 62
4, 110640, Note_on_c, 0, 50, 0
4, 110640, Note_on_c, 0, 51, 62
4, 110880, Note_on_c, 0, 51, 0
4, 110880, Note_on_c, 0, 56, 62
4, 111120, Note_on_c, 0, 56, 0
4, 111120, Note_on_c, 0, 51, 62
4, 111840, Note_on_c, 0, 51, 0
4, 111840, Note_on_c, 0, 50, 62
4, 112320, Note_on_c, 0, 50, 0
4, 112320, Note_on_c, 0, 51, 62
4, 112400, Note_on_c, 0, 51, 0
4, 112400, Note_on_c, 0, 50, 62
4, 112479, Note_on_c, 0, 50, 0
4, 112479, Note_on_c, 0, 51, 62
4, 112560, Note_on_c, 0, 51, 0
4, 112560, Note_on_c, 0, 49, 62
4, 112800, Note_on_c, 0, 49, 0
4, 112800, Note_on_c, 0, 47, 62
4, 113040, Note_on_c, 0, 47, 0
4, 113040, Note_on_c, 0, 46, 62
4, 113760, Note_on_c, 0, 46, 0
4, 113760, Note_on_c, 0, 44, 62
4, 114240, Note_on_c, 0, 44, 0
4, 114240, Note_on_c, 0, 46, 62
4, 114320, Note_on_c, 0, 46, 0
4, 114320, Note_on_c, 0, 44, 62
4, 114399, Note_on_c, 0, 44, 0
4, 114399, Note_on_c, 0, 46, 62
4, 114480, Note_on_c, 0, 46, 0
4, 114480, Note_on_c, 0, 47, 62
4, 114720, Note_on_c, 0, 47, 0
4, 114720, Note_on_c, 0, 49, 75
4, 114960, Note_on_c, 0, 49, 0
4, 114960, Note_on_c, 0, 51, 75
4, 115680, Note_on_c, 0, 51, 0
4, 115680, Note_on_c, 0, 53, 75
4, 116160, Note_on_c, 0, 53, 0
4, 116160, Note_on_c, 0, 55, 75
4, 116240, Note_on_c, 0, 55, 0
4, 116240, Note_on_c, 0, 53, 75
4, 116319, Note_on_c, 0, 53, 0
4, 116319, Note_on_c, 0, 55, 75
4, 116400, Note_on_c, 0, 55, 0
4, 116400, Note_on_c, 0, 56, 75
4, 116640, Note_on_c, 0, 56, 0
4, 116640, Note_on_c, 0, 59, 75
4, 116880, Note_on_c, 0, 59, 0
4, 116880, Note_on_c, 0, 58, 75
4, 117510, Note_on_c, 0, 44, 75
4, 117540, Note_on_c, 0, 51, 75
4, 117570, Note_on_c, 0, 56, 75
4, 117600, Note_on_c, 0, 58, 0
4, 117600, Note_on_c, 0, 59, 75
4, 118080, Note_on_c, 0, 59, 0
4, 118080, Note_on_c, 0, 56, 0
4, 118080, Note_on_c, 0, 51, 0
4, 118080, Note_on_c, 0, 44, 0
4, 118080, Note_on_c, 0, 62, 75
4, 118160, Note_on_c, 0, 62, 0
4, 118160, Note_on_c, 0, 63, 75
4, 118239, Note_on_c, 0, 63, 0
4, 118239, Note_on_c, 0, 62, 75
4, 118320, Note_on_c, 0, 62, 0
4, 118320, Note_on_c, 0, 61, 75
4, 118560, Note_on_c, 0, 61, 0
4, 118560, Note_on_c, 0, 59, 75
4, 118800, Note_on_c, 0, 59, 0
4, 118800, Note_on_c, 0, 58, 75
4, 119430, Note_on_c, 0, 44, 75
4, 119460, Note_on_c, 0, 51, 75
4, 119490, Note_on_c, 0, 56, 75
4, 119520, Note_on_c, 0, 58, 0
4, 119520, Note_on_c, 0, 59, 75
4, 120000, Note_on_c, 0, 59, 0
4, 120000, Note_on_c, 0, 56, 0
4, 120000, Note_on_c, 0, 51, 0
4, 120000, Note_on_c, 0, 44, 0
4, 120000, Note_on_c, 0, 62, 75
4, 120080, Note_on_c, 0, 62, 0
4, 120080, Note_on_c, 0, 63, 75
4, 120159, Note_on_c, 0, 63, 0
4, 120159, Note_on_c, 0, 62, 75
4, 120240, Note_on_c, 0, 62, 0
4, 120240, Note_on_c, 0, 61, 75
4, 120480, Note_on_c, 0, 61, 0
4, 120480, Note_on_c, 0, 59, 75
4, 120720, Note_on_c, 0, 59, 0
4, 120720, Note_on_c, 0, 58, 75
4, 121440, Note_on_c, 0, 58, 0
4, 121440, Note_on_c, 0, 56, 75
4, 121920, Note_on_c, 0, 56, 0
4, 121920, Note_on_c, 0, 55, 75
4, 122000, Note_on_c, 0, 55, 0
4, 122000, Note_on_c, 0, 56, 75
4, 122079, Note_on_c, 0, 56, 0
4, 122079, Note_on_c, 0, 55, 75
4, 122160, Note_on_c, 0, 55, 0
4, 122160, Note_on_c, 0, 54, 75
4, 122400, Note_on_c, 0, 54, 0
4, 122400, Note_on_c, 0, 52, 75
4, 122640, Note_on_c, 0, 52, 0
4, 122640, Note_on_c, 0, 51, 75
4, 123360, Note_on_c, 0, 51, 0
4, 123360, Note_on_c, 0, 56, 62
4, 123840, Note_on_c, 0, 56, 0
4, 123840, Note_on_c, 0, 55, 62
4, 123920, Note_on_c, 0, 55, 0
4, 123920, Note_on_c, 0, 56, 62
4, 123999, Note_on_c, 0, 56, 0
4, 123999, Note_on_c, 0, 55, 62
4, 124080, Note_on_c, 0, 55, 0
4, 124080, Note_on_c, 0, 54, 62
4, 124320, Note_on_c, 0, 54, 0
4, 124320, Note_on_c, 0, 52, 62
4, 124560, Note_on_c, 0, 52, 0
4, 124560, Note_on_c, 0, 51, 62
4, 125760, Note_on_c, 0, 51, 0
4, 125760, Note_on_c, 0, 52, 49
4, 125840, Note_on_c, 0, 52, 0
4, 125840, Note_on_c, 0, 51, 49
4, 125919, Note_on_c, 0, 51, 0
4, 125919, Note_on_c, 0, 50, 49
4, 126000, Note_on_c, 0, 50, 0
4, 126000, Note_on_c, 0, 51, 49
4, 126240, Note_on_c, 0, 51, 0
4, 126240, Note_on_c, 0, 50, 49
4, 126480, Note_on_c, 0, 50, 0
4, 126480, Note_on_c, 0, 51, 49
4, 127680, Note_on_c, 0, 51, 0
4, 127680, Note_on_c, 0, 52, 49
4, 127760, Note_on_c, 0, 52, 0
4, 127760, Note_on_c, 0, 51, 49
4, 127839, Note_on_c, 0, 51, 0
4, 127839, Note_on_c, 0, 50, 49
4, 127920, Note_on_c, 0, 50, 0
4, 127920, Note_on_c, 0, 51, 49
4, 128160, Note_on_c, 0, 51, 0
4, 128160, Note_on_c, 0, 50, 49
4, 128400, Note_on_c, 0, 50, 0
4, 128400, Note_on_c, 0, 51, 49
4, 129120, Note_on_c, 0, 51, 0
4, 129360, Note_on_c, 0, 44, 49
4, 129600, Note_on_c, 0, 44, 0
4, 129600, Note_on_c, 0, 50, 49
4, 129840, Note_on_c, 0, 50, 0
4, 129840, Note_on_c, 0, 51, 49
4, 130080, Note_on_c, 0, 51, 0
4, 130320, Note_on_c, 0, 39, 49
4, 130560, Note_on_c, 0, 39, 0
4, 130560, Note_on_c, 0, 53, 49
4, 130640, Note_on_c, 0, 53, 0
4, 130640, Note_on_c, 0, 51, 49
4, 130719, Note_on_c, 0, 51, 0
4, 130719, Note_on_c, 0, 53, 49
4, 130800, Note_on_c, 0, 53, 0
4, 130800, Note_on_c, 0, 54, 49
4, 131040, Note_on_c, 0, 54, 0
4, 131280, Note_on_c, 0, 47, 62
4, 131520, Note_on_c, 0, 47, 0
4, 131520, Note_on_c, 0, 53, 62
4, 131760, Note_on_c, 0, 53, 0
4, 131760, Note_on_c, 0, 54, 62
4, 132000, Note_on_c, 0, 54, 0
4, 132240, Note_on_c, 0, 42, 62
4, 132480, Note_on_c, 0, 42, 0
4, 132480, Note_on_c, 0, 56, 62
4, 132560, Note_on_c, 0, 56, 0
4, 132560, Note_on_c, 0, 54, 62
4, 132639, Note_on_c, 0, 54, 0
4, 132639, Note_on_c, 0, 56, 62
4, 132720, Note_on_c, 0, 56, 0
4, 132720, Note_on_c, 0, 58, 62
4, 132960, Note_on_c, 0, 58, 0
4, 133440, Note_on_c, 0, 63, 62
4, 133440, Note_on_c, 0, 67, 62
4, 133920, Note_on_c, 0, 67, 0
4, 133920, Note_on_c, 0, 63, 0
4, 135120, Note_on_c, 0, 40, 49
4, 135360, Note_on_c, 0, 40, 0
4, 135360, Note_on_c, 0, 50, 49
4, 135440, Note_on_c, 0, 50, 0
4, 135440, Note_on_c, 0, 49, 49
4, 135519, Note_on_c, 0, 49, 0
4, 135519, Note_on_c, 0, 50, 49
4, 135600, Note_on_c, 0, 50, 0
4, 135600, Note_on_c, 0, 49, 49
4, 135840, Note_on_c, 0, 49, 0
4, 136080, Note_on_c, 0, 47, 49
4, 136320, Note_on_c, 0, 47, 0
4, 136320, Note_on_c, 0, 50, 49
4, 136400, Note_on_c, 0, 50, 0
4, 136400, Note_on_c, 0, 51, 49
4, 136479, Note_on_c, 0, 51, 0
4, 136479, Note_on_c, 0, 50, 49
4, 136560, Note_on_c, 0, 50, 0
4, 136560, Note_on_c, 0, 51, 49
4, 136800, Note_on_c, 0, 51, 0
4, 137040, Note_on_c, 0, 44, 49
4, 137280, Note_on_c, 0, 44, 0
4, 137280, Note_on_c, 0, 50, 49
4, 137520, Note_on_c, 0, 50, 0
4, 137520, Note_on_c, 0, 51, 49
4, 137760, Note_on_c, 0, 51, 0
4, 138000, Note_on_c, 0, 39, 62
4, 138240, Note_on_c, 0, 39, 0
4, 138240, Note_on_c, 0, 53, 62
4, 138320, Note_on_c, 0, 53, 0
4, 138320, Note_on_c, 0, 51, 62
4, 138399, Note_on_c, 0, 51, 0
4, 138399, Note_on_c, 0, 53, 62
4, 138480, Note_on_c, 0, 53, 0
4, 138480, Note_on_c, 0, 54, 62
4, 138720, Note_on_c, 0, 54, 0
4, 138960, Note_on_c, 0, 47, 62
4, 139200, Note_on_c, 0, 47, 0
4, 139200, Note_on_c, 0, 53, 62
4, 139440, Note_on_c, 0, 53, 0
4, 139440, Note_on_c, 0, 54, 62
4, 139680, Note_on_c, 0, 54, 0
4, 139920, Note_on_c, 0, 42, 62
4, 140160, Note_on_c, 0, 42, 0
4, 140160, Note_on_c, 0, 56, 62
4, 140240, Note_on_c, 0, 56, 0
4, 140240, Note_on_c, 0, 54, 62
4, 140319, Note_on_c, 0, 54, 0
4, 140319, Note_on_c, 0, 56, 62
4, 140400, Note_on_c, 0, 56, 0
4, 140400, Note_on_c, 0, 58, 62
4, 140640, Note_on_c, 0, 58, 0
4, 141120, Note_on_c, 0, 63, 62
4, 141120, Note_on_c, 0, 67, 62
4, 141600, Note_on_c, 0, 67, 0
4, 141600, Note_on_c, 0, 63, 0
4, 143040, Note_on_c, 0, 59, 49
4, 143120, Note_on_c, 0, 59, 0
4, 143120, Note_on_c, 0, 58, 49
4, 143199, Note_on_c, 0, 58, 0
4, 143199, Note_on_c, 0, 59, 49
4, 143280, Note_on_c, 0, 59, 0
4, 143280, Note_on_c, 0, 58, 49
4, 143520, Note_on_c, 0, 58, 0
4, 143760, Note_on_c, 0, 47, 75
4, 144080, Note_on_c, 0, 47, 0
4, 144080, Note_on_c, 0, 46, 49
4, 144159, Note_on_c, 0, 46, 0
4, 144159, Note_on_c, 0, 47, 49
4, 144240, Note_on_c, 0, 47, 0
4, 144240, Note_on_c, 0, 46, 49
4, 144480, Note_on_c, 0, 46, 0
4, 144480, Note_on_c, 0, 51, 62
4, 144960, Note_on_c, 0, 51, 0
4, 144960, Note_on_c, 0, 52, 62
4, 145040, Note_on_c, 0, 52, 0
4, 145040, Note_on_c, 0, 51, 62
4, 145119, Note_on_c, 0, 51, 0
4, 145119, Note_on_c, 0, 50, 62
4, 145200, Note_on_c, 0, 50, 0
4, 145200, Note_on_c, 0, 51, 62
4, 145440, Note_on_c, 0, 51, 0
4, 145440, Note_on_c, 0, 56, 62
4, 145680, Note_on_c, 0, 56, 0
4, 145680, Note_on_c, 0, 51, 62
4, 146400, Note_on_c, 0, 51, 0
4, 146400, Note_on_c, 0, 50, 62
4, 146880, Note_on_c, 0, 50, 0
4, 146880, Note_on_c, 0, 51, 62
4, 146960, Note_on_c, 0, 51, 0
4, 146960, Note_on_c, 0, 50, 62
4, 147039, Note_on_c, 0, 50, 0
4, 147039, Note_on_c, 0, 51, 62
4, 147120, Note_on_c, 0, 51, 0
4, 147120, Note_on_c, 0, 49, 62
4, 147360, Note_on_c, 0, 49, 0
4, 147360, Note_on_c, 0, 47, 62
4, 147600, Note_on_c, 0, 47, 0
4, 147600, Note_on_c, 0, 46, 62
4, 148320, Note_on_c, 0, 46, 0
4, 148320, Note_on_c, 0, 44, 62
4, 148800, Note_on_c, 0, 44, 0
4, 148800, Note_on_c, 0, 46, 62
4, 148880, Note_on_c, 0, 46, 0
4, 148880, Note_on_c, 0, 44, 62
4, 148959, Note_on_c, 0, 44, 0
4, 148959, Note_on_c, 0, 46, 62
4, 149040, Note_on_c, 0, 46, 0
4, 149040, Note_on_c, 0, 47, 62
4, 149280, Note_on_c, 0, 47, 0
4, 149280, Note_on_c, 0, 49, 62
4, 149520, Note_on_c, 0, 49, 0
4, 149520, Note_on_c, 0, 51, 62
4, 150240, Note_on_c, 0, 51, 0
4, 150240, Note_on_c, 0, 53, 62
4, 150720, Note_on_c, 0, 53, 0
4, 150720, Note_on_c, 0, 55, 62
4, 150800, Note_on_c, 0, 55, 0
4, 150800, Note_on_c, 0, 53, 62
4, 150879, Note_on_c, 0, 53, 0
4, 150879, Note_on_c, 0, 55, 62
4, 150960, Note_on_c, 0, 55, 0
4, 150960, Note_on_c, 0, 56, 62
4, 151200, Note_on_c, 0, 56, 0
4, 151200, Note_on_c, 0, 59, 62
4, 151440, Note_on_c, 0, 59, 0
4, 151440, Note_on_c, 0, 58, 62
4, 152160, Note_on_c, 0, 58, 0
4, 152160, Note_on_c, 0, 63, 75
4, 152640, Note_on_c, 0, 63, 0
4, 152640, Note_on_c, 0, 62, 75
4, 152720, Note_on_c, 0, 62, 0
4, 152720, Note_on_c, 0, 63, 75
4, 152799, Note_on_c, 0, 63, 0
4, 152799, Note_on_c, 0, 62, 75
4, 152880, Note_on_c, 0, 62, 0
4, 152880, Note_on_c, 0, 61, 75
4, 153120, Note_on_c, 0, 61, 0
4, 153120, Note_on_c, 0, 59, 75
4, 153360, Note_on_c, 0, 59, 0
4, 153360, Note_on_c, 0, 58, 75
4, 154080, Note_on_c, 0, 58, 0
4, 154080, Note_on_c, 0, 63, 75
4, 154560, Note_on_c, 0, 63, 0
4, 154560, Note_on_c, 0, 62, 75
4, 154640, Note_on_c, 0, 62, 0
4, 154640, Note_on_c, 0, 63, 75
4, 154719, Note_on_c, 0, 63, 0
4, 154719, Note_on_c, 0, 62, 75
4, 154800, Note_on_c, 0, 62, 0
4, 154800, Note_on_c, 0, 61, 75
4, 155040, Note_on_c, 0, 61, 0
4, 155040, Note_on_c, 0, 59, 75
4, 155280, Note_on_c, 0, 59, 0
4, 155280, Note_on_c, 0, 58, 75
4, 156000, Note_on_c, 0, 58, 0
4, 156000, Note_on_c, 0, 56, 62
4, 156480, Note_on_c, 0, 56, 0
4, 156480, Note_on_c, 0, 55, 62
4, 156560, Note_on_c, 0, 55, 0
4, 156560, Note_on_c, 0, 56, 62
4, 156639, Note_on_c, 0, 56, 0
4, 156639, Note_on_c, 0, 55, 62
4, 156720, Note_on_c, 0, 55, 0
4, 156720, Note_on_c, 0, 54, 62
4, 156960, Note_on_c, 0, 54, 0
4, 156960, Note_on_c, 0, 52, 62
4, 157200, Note_on_c, 0, 52, 0
4, 157200, Note_on_c, 0, 51, 62
4, 157920, Note_on_c, 0, 51, 0
4, 157920, Note_on_c, 0, 56, 62
4, 158400, Note_on_c, 0, 56, 0
4, 158400, Note_on_c, 0, 55, 62
4, 158480, Note_on_c, 0, 55, 0
4, 158480, Note_on_c, 0, 56, 62
4, 158559, Note_on_c, 0, 56, 0
4, 158559, Note_on_c, 0, 55, 62
4, 158640, Note_on_c, 0, 55, 0
4, 158640, Note_on_c, 0, 54, 62
4, 158880, Note_on_c, 0, 54, 0
4, 158880, Note_on_c, 0, 52, 62
4, 159120, Note_on_c, 0, 52, 0
4, 159120, Note_on_c, 0, 51, 62
4, 159840, Note_on_c, 0, 51, 0
4, 159840, Note_on_c, 0, 51, 88
4, 161760, Note_on_c, 0, 51, 0
4, 161760, Note_on_c, 0, 32, 62
4, 161760, Note_on_c, 0, 44, 62
4, 162240, Note_on_c, 0, 44, 0
4, 162240, Note_on_c, 0, 32, 0
4, 162240, Note_on_c, 0, 31, 62
4, 162240, Note_on_c, 0, 43, 62
4, 162720, Note_on_c, 0, 43, 0
4, 162720, Note_on_c, 0, 31, 0
4, 162720, Note_on_c, 0, 32, 62
4, 162720, Note_on_c, 0, 44, 62
4, 163200, Note_on_c, 0, 44, 0
4, 163200, Note_on_c, 0, 32, 0
4, 163200, Note_on_c, 0, 29, 62
4, 163200, Note_on_c, 0, 41, 62
4, 163680, Note_on_c, 0, 41, 0
4, 163680, Note_on_c, 0, 29, 0
4, 163680, Note_on_c, 0, 31, 62
4, 163680, Note_on_c, 0, 43, 62
4, 164160, Note_on_c, 0, 43, 0
4, 164160, Note_on_c, 0, 31, 0
4, 164160, Note_on_c, 0, 27, 62
4, 164160, Note_on_c, 0, 39, 62
4, 164640, Note_on_c, 0, 39, 0
4, 164640, Note_on_c, 0, 27, 0
4, 164640, Note_on_c, 0, 29, 62
4, 164640, Note_on_c, 0, 41, 62
4, 165600, Note_on_c, 0, 41, 0
4, 165600, Note_on_c, 0, 29, 0
4, 165600, Note_on_c, 0, 32, 62
4, 165600, Note_on_c, 0, 44, 62
4, 166080, Note_on_c, 0, 44, 0
4, 166080, Note_on_c, 0, 32, 0
4, 166080, Note_on_c, 0, 32, 62
4, 166080, Note_on_c, 0, 44, 62
4, 166320, Note_on_c, 0, 44, 0
4, 166320, Note_on_c, 0, 32, 0
4, 166320, Note_on_c, 0, 34, 62
4, 166320, Note_on_c, 0, 46, 62
4, 166560, Note_on_c, 0, 46, 0
4, 166560, Note_on_c, 0, 34, 0
4, 166560, Note_on_c, 0, 32, 62
4, 166560, Note_on_c, 0, 44, 62
4, 166800, Note_on_c, 0, 44, 0
4, 166800, Note_on_c, 0, 32, 0
4, 166800, Note_on_c, 0, 31, 62
4, 166800, Note_on_c, 0, 43, 62
4, 167040, Note_on_c, 0, 43, 0
4, 167040, Note_on_c, 0, 31, 0
4, 167040, Note_on_c, 0, 29, 62
4, 167040, Note_on_c, 0, 41, 62
4, 167280, Note_on_c, 0, 41, 0
4, 167280, Note_on_c, 0, 29, 0
4, 167280, Note_on_c, 0, 27, 62
4, 167280, Note_on_c, 0, 39, 62
4, 167520, Note_on_c, 0, 39, 0
4, 167520, Note_on_c, 0, 27, 0
4, 167520, Note_on_c, 0, 29, 62
4, 167520, Note_on_c, 0, 41, 62
4, 168480, Note_on_c, 0, 41, 0
4, 168480, Note_on_c, 0, 29, 0
4, 168480, Note_on_c, 0, 31, 62
4, 168480, Note_on_c, 0, 43, 62
4, 169440, Note_on_c, 0, 43, 0
4, 169440, Note_on_c, 0, 31, 0
4, 169920, Note_on_c, 0, 51, 62
4, 170400, Note_on_c, 0, 51, 0
4, 170400, Note_on_c, 0, 52, 62
4, 170480, Note_on_c, 0, 52, 0
4, 170480, Note_on_c, 0, 51, 62
4, 170559, Note_on_c, 0, 51, 0
4, 170559, Note_on_c, 0, 50, 62
4, 170640, Note_on_c, 0, 50, 0
4, 170640, Note_on_c, 0, 51, 62
4, 171840, Note_on_c, 0, 51, 0
4, 171840, Note_on_c, 0, 51, 62
4, 172320, Note_on_c, 0, 51, 0
4, 172320, Note_on_c, 0, 52, 62
4, 172400, Note_on_c, 0, 52, 0
4, 172400, Note_on_c, 0, 51, 62
4, 172479, Note_on_c, 0, 51, 0
4, 172479, Note_on_c, 0, 50, 62
4, 172560, Note_on_c, 0, 50, 0
4, 172560, Note_on_c, 0, 51, 62
4, 175440, Note_on_c, 0, 51, 0
4, 175440, End_track
5, 0, Start_track
5, 0, Title_t, "Grand Piano"
5, 0, Program_c, 0, 0
5, 0, Control_c, 0, 7, 115
5, 0, Control_c, 0, 10, 48
5, 0, Note_on_c, 0, 44, 62
5, 240, Note_on_c, 0, 44, 0
5, 1440, Note_on_c, 0, 39, 62
5, 1440, Note_on_c, 0, 46, 62
5, 1680, Note_on_c, 0, 46, 0
5, 1680, Note_on_c, 0, 39, 0
5, 1920, Note_on_c, 0, 44, 62
5, 2160, Note_on_c, 0, 44, 0
5, 3360, Note_on_c, 0, 39, 62
5, 3600, Note_on_c, 0, 39, 0
5, 3840, Note_on_c, 0, 32, 62
5, 4080, Note_on_c, 0, 32, 0
5, 5280, Note_on_c, 0, 39, 75
5, 5280, Note_on_c, 0, 46, 75
5, 5520, Note_on_c, 0, 46, 0
5, 5520, Note_on_c, 0, 39, 0
5, 5760, Note_on_c, 0, 44, 75
5, 5760, Note_on_c, 0, 51, 75
5, 6000, Note_on_c, 0, 51, 0
5, 6000, Note_on_c, 0, 44, 0
5, 7200, Note_on_c, 0, 51, 75
5, 7200, Note_on_c, 0, 55, 75
5, 7440, Note_on_c, 0, 55, 0
5, 7440, Note_on_c, 0, 51, 0
5, 9120, Note_on_c, 0, 51, 75
5, 9120, Note_on_c, 0, 55, 75
5, 9360, Note_on_c, 0, 55, 0
5, 9360, Note_on_c, 0, 51, 0
5, 11040, Note_on_c, 0, 51, 75
5, 11040, Note_on_c, 0, 55, 75
5, 11280, Note_on_c, 0, 55, 0
5, 11280, Note_on_c, 0, 51, 0
5, 11520, Note_on_c, 0, 44, 62
5, 11520, Note_on_c, 0, 51, 62
5, 11760, Note_on_c, 0, 51, 0
5, 11760, Note_on_c, 0, 44, 0
5, 12960, Note_on_c, 0, 39, 62
5, 12960, Note_on_c, 0, 46, 62
5, 13200, Note_on_c, 0, 46, 0
5, 13200, Note_on_c, 0, 39, 0
5, 13440, Note_on_c, 0, 44, 49
5, 13440, Note_on_c, 0, 51, 49
5, 13680, Note_on_c, 0, 51, 0
5, 13680, Note_on_c, 0, 44, 0
5, 14880, Note_on_c, 0, 39, 49
5, 14880, Note_on_c, 0, 46, 49
5, 15120, Note_on_c, 0, 46, 0
5, 15120, Note_on_c, 0, 39, 0
5, 15360, Note_on_c, 0, 44, 49
5, 15360, Note_on_c, 0, 47, 49
5, 15600, Note_on_c, 0, 47, 0
5, 15600, Note_on_c, 0, 44, 0
5, 16800, Note_on_c, 0, 39, 49
5, 16800, Note_on_c, 0, 46, 49
5, 17040, Note_on_c, 0, 46, 0
5, 17040, Note_on_c, 0, 39, 0
5, 17280, Note_on_c, 0, 44, 49
5, 17280, Note_on_c, 0, 47, 49
5, 17520, Note_on_c, 0, 47, 0
5, 17520, Note_on_c, 0, 44, 0
5, 18720, Note_on_c, 0, 39, 49
5, 18720, Note_on_c, 0, 46, 49
5, 18960, Note_on_c, 0, 46, 0
5, 18960, Note_on_c, 0, 39, 0
5, 19440, Note_on_c, 0, 44, 49
5, 20160, Note_on_c, 0, 44, 0
5, 20400, Note_on_c, 0, 39, 49
5, 21120, Note_on_c, 0, 39, 0
5, 21360, Note_on_c, 0, 47, 62
5, 22080, Note_on_c, 0, 47, 0
5, 22320, Note_on_c, 0, 42, 62
5, 23040, Note_on_c, 0, 42, 0
5, 23280, Note_on_c, 0, 47, 75
5, 23520, Note_on_c, 0, 47, 0
5, 23520, Note_on_c, 0, 59, 75
5, 23760, Note_on_c, 0, 59, 0
5, 23760, Note_on_c, 0, 58, 75
5, 24000, Note_on_c, 0, 58, 0
5, 24240, Note_on_c, 0, 44, 75
5, 24480, Note_on_c, 0, 44, 0
5, 24480, Note_on_c, 0, 51, 62
5, 24480, Note_on_c, 0, 56, 62
5, 24960, Note_on_c, 0, 56, 0
5, 24960, Note_on_c, 0, 51, 0
5, 25200, Note_on_c, 0, 40, 62
5, 25920, Note_on_c, 0, 40, 0
5, 26160, Note_on_c, 0, 47, 62
5, 26880, Note_on_c, 0, 47, 0
5, 27120, Note_on_c, 0, 44, 62
5, 27840, Note_on_c, 0, 44, 0
5, 28080, Note_on_c, 0, 39, 75
5, 28800, Note_on_c, 0, 39, 0
5, 29040, Note_on_c, 0, 47, 75
5, 29760, Note_on_c, 0, 47, 0
5, 30000, Note_on_c, 0, 42, 75
5, 30720, Note_on_c, 0, 42, 0
5, 30960, Note_on_c, 0, 47, 75
5, 31200, Note_on_c, 0, 47, 0
5, 31200, Note_on_c, 0, 59, 75
5, 31440, Note_on_c, 0, 59, 0
5, 31440, Note_on_c, 0, 58, 75
5, 31680, Note_on_c, 0, 58, 0
5, 31920, Note_on_c, 0, 44, 75
5, 32160, Note_on_c, 0, 44, 0
5, 32160, Note_on_c, 0, 51, 62
5, 32160, Note_on_c, 0, 56, 62
5, 32640, Note_on_c, 0, 56, 0
5, 32640, Note_on_c, 0, 51, 0
5, 32880, Note_on_c, 0, 40, 62
5, 33120, Note_on_c, 0, 40, 0
5, 33120, Note_on_c, 0, 52, 62
5, 33600, Note_on_c, 0, 52, 0
5, 34560, Note_on_c, 0, 44, 49
5, 34800, Note_on_c, 0, 44, 0
5, 36000, Note_on_c, 0, 39, 49
5, 36000, Note_on_c, 0, 46, 49
5, 36240, Note_on_c, 0, 46, 0
5, 36240, Note_on_c, 0, 39, 0
5, 36480, Note_on_c, 0, 44, 49
5, 36720, Note_on_c, 0, 44, 0
5, 37920, Note_on_c, 0, 39, 49
5, 38160, Note_on_c, 0, 39, 0
5, 39840, Note_on_c, 0, 39, 49
5, 39840, Note_on_c, 0, 46, 49
5, 40080, Note_on_c, 0, 46, 0
5, 40080, Note_on_c, 0, 39, 0
5, 40320, Note_on_c, 0, 44, 49
5, 40320, Note_on_c, 0, 51, 49
5, 40560, Note_on_c, 0, 51, 0
5, 40560, Note_on_c, 0, 44, 0
5, 41760, Note_on_c, 0, 51, 49
5, 42000, Note_on_c, 0, 51, 0
5, 42150, Note_on_c, 0, 44, 49
5, 42180, Note_on_c, 0, 51, 49
5, 42210, Note_on_c, 0, 56, 49
5, 42240, Note_on_c, 0, 59, 62
5, 42480, Note_on_c, 0, 59, 0
5, 42480, Note_on_c, 0, 44, 0
5, 42480, Note_on_c, 0, 51, 0
5, 42480, Note_on_c, 0, 56, 0
5, 43680, Note_on_c, 0, 51, 62
5, 43920, Note_on_c, 0, 51, 0
5, 44070, Note_on_c, 0, 44, 62
5, 44100, Note_on_c, 0, 51, 62
5, 44130, Note_on_c, 0, 56, 62
5, 44160, Note_on_c, 0, 59, 62
5, 44400, Note_on_c, 0, 59, 0
5, 44400, Note_on_c, 0, 44, 0
5, 44400, Note_on_c, 0, 51, 0
5, 44400, Note_on_c, 0, 56, 0
5, 45600, Note_on_c, 0, 51, 62
5, 45840, Note_on_c, 0, 51, 0
5, 46080, Note_on_c, 0, 44, 49
5, 46080, Note_on_c, 0, 51, 49
5, 46320, Note_on_c, 0, 51, 0
5, 46320, Note_on_c, 0, 44, 0
5, 47520, Note_on_c, 0, 39, 49
5, 47520, Note_on_c, 0, 46, 49
5, 47760, Note_on_c, 0, 46, 0
5, 47760, Note_on_c, 0, 39, 0
5, 48000, Note_on_c, 0, 44, 49
5, 48000, Note_on_c, 0, 51, 49
5, 48240, Note_on_c, 0, 51, 0
5, 48240, Note_on_c, 0, 44, 0
5, 49440, Note_on_c, 0, 39, 49
5, 49440, Note_on_c, 0, 46, 49
5, 49680, Note_on_c, 0, 46, 0
5, 49680, Note_on_c, 0, 39, 0
5, 49920, Note_on_c, 0, 44, 49
5, 50160, Note_on_c, 0, 44, 0
5, 50400, Note_on_c, 0, 39, 49
5, 50640, Note_on_c, 0, 39, 0
5, 50880, Note_on_c, 0, 44, 49
5, 51120, Note_on_c, 0, 44, 0
5, 51360, Note_on_c, 0, 39, 49
5, 51600, Note_on_c, 0, 39, 0
5, 51840, Note_on_c, 0, 44, 49
5, 52080, Note_on_c, 0, 44, 0
5, 53760, Note_on_c, 0, 47, 49
5, 53760, Note_on_c, 0, 54, 49
5, 54720, Note_on_c, 0, 54, 0
5, 54720, Note_on_c, 0, 47, 0
5, 54720, Note_on_c, 0, 59, 49
5, 54720, Note_on_c, 0, 63, 49
5, 55680, Note_on_c, 0, 63, 0
5, 55680, Note_on_c, 0, 59, 0
5, 55680, Note_on_c, 0, 59, 49
5, 56640, Note_on_c, 0, 59, 0
5, 56640, Note_on_c, 0, 47, 49
5, 56640, Note_on_c, 0, 54, 49
5, 57600, Note_on_c, 0, 54, 0
5, 57600, Note_on_c, 0, 47, 0
5, 57600, Note_on_c, 0, 47, 49
5, 57600, Note_on_c, 0, 54, 49
5, 58560, Note_on_c, 0, 54, 0
5, 58560, Note_on_c, 0, 47, 0
5, 58560, Note_on_c, 0, 59, 49
5, 58560, Note_on_c, 0, 63, 49
5, 59520, Note_on_c, 0, 63, 0
5, 59520, Note_on_c, 0, 59, 0
5, 59520, Note_on_c, 0, 59, 49
5, 60480, Note_on_c, 0, 59, 0
5, 60480, Note_on_c, 0, 47, 49
5, 60480, Note_on_c, 0, 54, 49
5, 61440, Note_on_c, 0, 54, 0
5, 61440, Note_on_c, 0, 47, 0
5, 69120, Note_on_c, 0, 47, 88
5, 69600, Note_on_c, 0, 47, 0
5, 69600, Note_on_c, 0, 46, 88
5, 70080, Note_on_c, 0, 46, 0
5, 70080, Note_on_c, 0, 49, 88
5, 70080, Note_on_c, 0, 51, 88
5, 70560, Note_on_c, 0, 51, 0
5, 70560, Note_on_c, 0, 49, 0
5, 70560, Note_on_c, 0, 47, 88
5, 70560, Note_on_c, 0, 51, 88
5, 71040, Note_on_c, 0, 51, 0
5, 71040, Note_on_c, 0, 47, 0
5, 71040, Note_on_c, 0, 49, 88
5, 71040, Note_on_c, 0, 51, 88
5, 71520, Note_on_c, 0, 51, 0
5, 71520, Note_on_c, 0, 49, 0
5, 71520, Note_on_c, 0, 47, 88
5, 71520, Note_on_c, 0, 51, 88
5, 72000, Note_on_c, 0, 51, 0
5, 72000, Note_on_c, 0, 47, 0
5, 72000, Note_on_c, 0, 49, 88
5, 72000, Note_on_c, 0, 51, 88
5, 72480, Note_on_c, 0, 51, 0
5, 72480, Note_on_c, 0, 49, 0
5, 72480, Note_on_c, 0, 47, 88
5, 72480, Note_on_c, 0, 51, 88
5, 72960, Note_on_c, 0, 51, 0
5, 72960, Note_on_c, 0, 47, 0
5, 72960, Note_on_c, 0, 50, 88
5, 73440, Note_on_c, 0, 50, 0
5, 73440, Note_on_c, 0, 49, 88
5, 73920, Note_on_c, 0, 49, 0
5, 73920, Note_on_c, 0, 52, 88
5, 73920, Note_on_c, 0, 54, 88
5, 74400, Note_on_c, 0, 54, 0
5, 74400, Note_on_c, 0, 52, 0
5, 74400, Note_on_c, 0, 50, 88
5, 74400, Note_on_c, 0, 54, 88
5, 74880, Note_on_c, 0, 54, 0
5, 74880, Note_on_c, 0, 50, 0
5, 74880, Note_on_c, 0, 52, 88
5, 74880, Note_on_c, 0, 54, 88
5, 75360, Note_on_c, 0, 54, 0
5, 75360, Note_on_c, 0, 52, 0
5, 75360, Note_on_c, 0, 50, 88
5, 75360, Note_on_c, 0, 54, 88
5, 75840, Note_on_c, 0, 54, 0
5, 75840, Note_on_c, 0, 50, 0
5, 75840, Note_on_c, 0, 52, 88
5, 75840, Note_on_c, 0, 54, 88
5, 76320, Note_on_c, 0, 54, 0
5, 76320, Note_on_c, 0, 52, 0
5, 76320, Note_on_c, 0, 50, 88
5, 76320, Note_on_c, 0, 54, 88
5, 76800, Note_on_c, 0, 54, 0
5, 76800, Note_on_c, 0, 50, 0
5, 76800, Note_on_c, 0, 53, 88
5, 76800, Note_on_c, 0, 55, 88
5, 77280, Note_on_c, 0, 55, 0
5, 77280, Note_on_c, 0, 53, 0
5, 77280, Note_on_c, 0, 51, 88
5, 77280, Note_on_c, 0, 55, 88
5, 77760, Note_on_c, 0, 55, 0
5, 77760, Note_on_c, 0, 51, 0
5, 77760, Note_on_c, 0, 53, 88
5, 77760, Note_on_c, 0, 55, 88
5, 78240, Note_on_c, 0, 55, 0
5, 78240, Note_on_c, 0, 53, 0
5, 78240, Note_on_c, 0, 51, 88
5, 78240, Note_on_c, 0, 55, 88
5, 78720, Note_on_c, 0, 55, 0
5, 78720, Note_on_c, 0, 51, 0
5, 78720, Note_on_c, 0, 54, 88
5, 78720, Note_on_c, 0, 56, 88
5, 79200, Note_on_c, 0, 56, 0
5, 79200, Note_on_c, 0, 54, 0
5, 79200, Note_on_c, 0, 52, 88
5, 79200, Note_on_c, 0, 56, 88
5, 79680, Note_on_c, 0, 56, 0
5, 79680, Note_on_c, 0, 52, 0
5, 79680, Note_on_c, 0, 51, 88
5, 79680, Note_on_c, 0, 54, 88
5, 80100, Note_on_c, 0, 37, 88
5, 80160, Note_on_c, 0, 37, 0
5, 80160, Note_on_c, 0, 54, 0
5, 80160, Note_on_c, 0, 51, 0
5, 80160, Note_on_c, 0, 44, 88
5, 80160, Note_on_c, 0, 49, 88
5, 80640, Note_on_c, 0, 49, 0
5, 80640, Note_on_c, 0, 44, 0
5, 80640, Note_on_c, 0, 42, 88
5, 80640, Note_on_c, 0, 46, 88
5, 81600, Note_on_c, 0, 46, 0
5, 81600, Note_on_c, 0, 42, 0
5, 82560, Note_on_c, 0, 42, 88
5, 82560, Note_on_c, 0, 46, 88
5, 83520, Note_on_c, 0, 46, 0
5, 83520, Note_on_c, 0, 42, 0
5, 84480, Note_on_c, 0, 46, 88
5, 84480, Note_on_c, 0, 49, 88
5, 85440, Note_on_c, 0, 49, 0
5, 85440, Note_on_c, 0, 46, 0
5, 85440, Note_on_c, 0, 42, 88
5, 86400, Note_on_c, 0, 42, 0
5, 86400, Note_on_c, 0, 46, 88
5, 86400, Note_on_c, 0, 49, 88
5, 87360, Note_on_c, 0, 49, 0
5, 87360, Note_on_c, 0, 46, 0
5, 87360, Note_on_c, 0, 42, 88
5, 88320, Note_on_c, 0, 42, 0
5, 90800, Note_on_c, 0, 35, 88
5, 90800, Note_on_c, 0, 42, 88
5, 90879, Note_on_c, 0, 42, 0
5, 90879, Note_on_c, 0, 35, 0
5, 90879, Note_on_c, 0, 35, 88
5, 90879, Note_on_c, 0, 42, 88
5, 90960, Note_on_c, 0, 42, 0
5, 90960, Note_on_c, 0, 35, 0
5, 91040, Note_on_c, 0, 35, 88
5, 91040, Note_on_c, 0, 42, 88
5, 91119, Note_on_c, 0, 42, 0
5, 91119, Note_on_c, 0, 35, 0
5, 91119, Note_on_c, 0, 35, 88
5, 91119, Note_on_c, 0, 42, 88
5, 91200, Note_on_c, 0, 42, 0
5, 91200, Note_on_c, 0, 35, 0
5, 91280, Note_on_c, 0, 47, 88
5, 91280, Note_on_c, 0, 49, 88
5, 91359, Note_on_c, 0, 49, 0
5, 91359, Note_on_c, 0, 47, 0
5, 91359, Note_on_c, 0, 47, 88
5, 91359, Note_on_c, 0, 49, 88
5, 91440, Note_on_c, 0, 49, 0
5, 91440, Note_on_c, 0, 47, 0
5, 91520, Note_on_c, 0, 47, 88
5, 91520, Note_on_c, 0, 49, 88
5, 91599, Note_on_c, 0, 49, 0
5, 91599, Note_on_c, 0, 47, 0
5, 91599, Note_on_c, 0, 47, 88
5, 91599, Note_on_c, 0, 49, 88
5, 91680, Note_on_c, 0, 49, 0
5, 91680, Note_on_c, 0, 47, 0
5, 91760, Note_on_c, 0, 47, 88
5, 91760, Note_on_c, 0, 51, 88
5, 91839, Note_on_c, 0, 51, 0
5, 91839, Note_on_c, 0, 47, 0
5, 91839, Note_on_c, 0, 47, 88
5, 91839, Note_on_c, 0, 51, 88
5, 91920, Note_on_c, 0, 51, 0
5, 91920, Note_on_c, 0, 47, 0
5, 92000, Note_on_c, 0, 47, 88
5, 92000, Note_on_c, 0, 51, 88
5, 92079, Note_on_c, 0, 51, 0
5, 92079, Note_on_c, 0, 47, 0
5, 92079, Note_on_c, 0, 47, 88
5, 92079, Note_on_c, 0, 51, 88
5, 92160, Note_on_c, 0, 51, 0
5, 92160, Note_on_c, 0, 47, 0
5, 92240, Note_on_c, 0, 47, 88
5, 92240, Note_on_c, 0, 51, 88
5, 92319, Note_on_c, 0, 51, 0
5, 92319, Note_on_c, 0, 47, 0
5, 92319, Note_on_c, 0, 47, 88
5, 92319, Note_on_c, 0, 51, 88
5, 92400, Note_on_c, 0, 51, 0
5, 92400, Note_on_c, 0, 47, 0
5, 92480, Note_on_c, 0, 47, 88
5, 92559, Note_on_c, 0, 47, 0
5, 92559, Note_on_c, 0, 47, 88
5, 92640, Note_on_c, 0, 47, 0
5, 92720, Note_on_c, 0, 47, 88
5, 92720, Note_on_c, 0, 49, 88
5, 92799, Note_on_c, 0, 49, 0
5, 92799, Note_on_c, 0, 47, 0
5, 92799, Note_on_c, 0, 47, 88
5, 92799, Note_on_c, 0, 49, 88
5, 92880, Note_on_c, 0, 49, 0
5, 92880, Note_on_c, 0, 47, 0
5, 92960, Note_on_c, 0, 47, 88
5, 92960, Note_on_c, 0, 49, 88
5, 93039, Note_on_c, 0, 49, 0
5, 93039, Note_on_c, 0, 47, 0
5, 93039, Note_on_c, 0, 47, 88
5, 93039, Note_on_c, 0, 49, 88
5, 93120, Note_on_c, 0, 49, 0
5, 93120, Note_on_c, 0, 47, 0
5, 93200, Note_on_c, 0, 47, 88
5, 93200, Note_on_c, 0, 49, 88
5, 93279, Note_on_c, 0, 49, 0
5, 93279, Note_on_c, 0, 47, 0
5, 93279, Note_on_c, 0, 47, 88
5, 93279, Note_on_c, 0, 49, 88
5, 93360, Note_on_c, 0, 49, 0
5, 93360, Note_on_c, 0, 47, 0
5, 93440, Note_on_c, 0, 35, 88
5, 93440, Note_on_c, 0, 42, 88
5, 93519, Note_on_c, 0, 42, 0
5, 93519, Note_on_c, 0, 35, 0
5, 93519, Note_on_c, 0, 35, 88
5, 93519, Note_on_c, 0, 42, 88
5, 93600, Note_on_c, 0, 42, 0
5, 93600, Note_on_c, 0, 35, 0
5, 93680, Note_on_c, 0, 35, 88
5, 93680, Note_on_c, 0, 42, 88
5, 93759, Note_on_c, 0, 42, 0
5, 93759, Note_on_c, 0, 35, 0
5, 93759, Note_on_c, 0, 35, 88
5, 93759, Note_on_c, 0, 42, 88
5, 93840, Note_on_c, 0, 42, 0
5, 93840, Note_on_c, 0, 35, 0
5, 93920, Note_on_c, 0, 35, 88
5, 93920, Note_on_c, 0, 42, 88
5, 93999, Note_on_c, 0, 42, 0
5, 93999, Note_on_c, 0, 35, 0
5, 93999, Note_on_c, 0, 35, 88
5, 93999, Note_on_c, 0, 42, 88
5, 94080, Note_on_c, 0, 42, 0
5, 94080, Note_on_c, 0, 35, 0
5, 94160, Note_on_c, 0, 35, 88
5, 94239, Note_on_c, 0, 35, 0
5, 94239, Note_on_c, 0, 35, 88
5, 94320, Note_on_c, 0, 35, 0
5, 94400, Note_on_c, 0, 35, 88
5, 94479, Note_on_c, 0, 35, 0
5, 94479, Note_on_c, 0, 35, 88
5, 94560, Note_on_c, 0, 35, 0
5, 94640, Note_on_c, 0, 35, 88
5, 94640, Note_on_c, 0, 42, 88
5, 94719, Note_on_c, 0, 42, 0
5, 94719, Note_on_c, 0, 35, 0
5, 94719, Note_on_c, 0, 35, 88
5, 94719, Note_on_c, 0, 42, 88
5, 94800, Note_on_c, 0, 42, 0
5, 94800, Note_on_c, 0, 35, 0
5, 94880, Note_on_c, 0, 35, 88
5, 94880, Note_on_c, 0, 42, 88
5, 94959, Note_on_c, 0, 42, 0
5, 94959, Note_on_c, 0, 35, 0
5, 94959, Note_on_c, 0, 35, 88
5, 94959, Note_on_c, 0, 42, 88
5, 95040, Note_on_c, 0, 42, 0
5, 95040, Note_on_c, 0, 35, 0
5, 95120, Note_on_c, 0, 47, 88
5, 95120, Note_on_c, 0, 49, 88
5, 95199, Note_on_c, 0, 49, 0
5, 95199, Note_on_c, 0, 47, 0
5, 95199, Note_on_c, 0, 47, 88
5, 95199, Note_on_c, 0, 49, 88
5, 95280, Note_on_c, 0, 49, 0
5, 95280, Note_on_c, 0, 47, 0
5, 95360, Note_on_c, 0, 47, 88
5, 95360, Note_on_c, 0, 49, 88
5, 95439, Note_on_c, 0, 49, 0
5, 95439, Note_on_c, 0, 47, 0
5, 95439, Note_on_c, 0, 47, 88
5, 95439, Note_on_c, 0, 49, 88
5, 95520, Note_on_c, 0, 49, 0
5, 95520, Note_on_c, 0, 47, 0
5, 95600, Note_on_c, 0, 47, 88
5, 95600, Note_on_c, 0, 51, 88
5, 95679, Note_on_c, 0, 51, 0
5, 95679, Note_on_c, 0, 47, 0
5, 95679, Note_on_c, 0, 47, 88
5, 95679, Note_on_c, 0, 51, 88
5, 95760, Note_on_c, 0, 51, 0
5, 95760, Note_on_c, 0, 47, 0
5, 95840, Note_on_c, 0, 47, 88
5, 95840, Note_on_c, 0, 51, 88
5, 95919, Note_on_c, 0, 51, 0
5, 95919, Note_on_c, 0, 47, 0
5, 95919, Note_on_c, 0, 47, 88
5, 95919, Note_on_c, 0, 51, 88
5, 96000, Note_on_c, 0, 51, 0
5, 96000, Note_on_c, 0, 47, 0
5, 96080, Note_on_c, 0, 47, 88
5, 96080, Note_on_c, 0, 51, 88
5, 96159, Note_on_c, 0, 51, 0
5, 96159, Note_on_c, 0, 47, 0
5, 96159, Note_on_c, 0, 47, 88
5, 96159, Note_on_c, 0, 51, 88
5, 96240, Note_on_c, 0, 51, 0
5, 96240, Note_on_c, 0, 47, 0
5, 96320, Note_on_c, 0, 47, 88
5, 96320, Note_on_c, 0, 51, 88
5, 96399, Note_on_c, 0, 51, 0
5, 96399, Note_on_c, 0, 47, 0
5, 96399, Note_on_c, 0, 47, 88
5, 96399, Note_on_c, 0, 51, 88
5, 96480, Note_on_c, 0, 51, 0
5, 96480, Note_on_c, 0, 47, 0
5, 96560, Note_on_c, 0, 46, 88
5, 96560, Note_on_c, 0, 51, 88
5, 96639, Note_on_c, 0, 51, 0
5, 96639, Note_on_c, 0, 46, 0
5, 96639, Note_on_c, 0, 46, 88
5, 96639, Note_on_c, 0, 51, 88
5, 96720, Note_on_c, 0, 51, 0
5, 96720, Note_on_c, 0, 46, 0
5, 96800, Note_on_c, 0, 46, 88
5, 96879, Note_on_c, 0, 46, 0
5, 97040, Note_on_c, 0, 44, 88
5, 97040, Note_on_c, 0, 51, 88
5, 97119, Note_on_c, 0, 51, 0
5, 97119, Note_on_c, 0, 44, 0
5, 97119, Note_on_c, 0, 44, 88
5, 97119, Note_on_c, 0, 51, 88
5, 97200, Note_on_c, 0, 51, 0
5, 97200, Note_on_c, 0, 44, 0
5, 97280, Note_on_c, 0, 44, 88
5, 97280, Note_on_c, 0, 51, 88
5, 97359, Note_on_c, 0, 51, 0
5, 97359, Note_on_c, 0, 44, 0
5, 97359, Note_on_c, 0, 44, 88
5, 97359, Note_on_c, 0, 51, 88
5, 97440, Note_on_c, 0, 51, 0
5, 97440, Note_on_c, 0, 44, 0
5, 97520, Note_on_c, 0, 52, 88
5, 97520, Note_on_c, 0, 56, 88
5, 97520, Note_on_c, 0, 58, 88
5, 97599, Note_on_c, 0, 58, 0
5, 97599, Note_on_c, 0, 56, 0
5, 97599, Note_on_c, 0, 52, 0
5, 97599, Note_on_c, 0, 52, 88
5, 97599, Note_on_c, 0, 56, 88
5, 97599, Note_on_c, 0, 58, 88
5, 97680, Note_on_c, 0, 58, 0
5, 97680, Note_on_c, 0, 56, 0
5, 97680, Note_on_c, 0, 52, 0
5, 97760, Note_on_c, 0, 52, 88
5, 97760, Note_on_c, 0, 56, 88
5, 97760, Note_on_c, 0, 58, 88
5, 97839, Note_on_c, 0, 58, 0
5, 97839, Note_on_c, 0, 56, 0
5, 97839, Note_on_c, 0, 52, 0
5, 97839, Note_on_c, 0, 52, 88
5, 97839, Note_on_c, 0, 56, 88
5, 97839, Note_on_c, 0, 58, 88
5, 97920, Note_on_c, 0, 58, 0
5, 97920, Note_on_c, 0, 56, 0
5, 97920, Note_on_c, 0, 52, 0
5, 98000, Note_on_c, 0, 51, 88
5, 98000, Note_on_c, 0, 55, 88
5, 98000, Note_on_c, 0, 58, 88
5, 98079, Note_on_c, 0, 58, 0
5, 98079, Note_on_c, 0, 55, 0
5, 98079, Note_on_c, 0, 51, 0
5, 98079, Note_on_c, 0, 51, 88
5, 98079, Note_on_c, 0, 55, 88
5, 98079, Note_on_c, 0, 58, 88
5, 98160, Note_on_c, 0, 58, 0
5, 98160, Note_on_c, 0, 55, 0
5, 98160, Note_on_c, 0, 51, 0
5, 98240, Note_on_c, 0, 51, 88
5, 98240, Note_on_c, 0, 55, 88
5, 98240, Note_on_c, 0, 58, 88
5, 98319, Note_on_c, 0, 58, 0
5, 98319, Note_on_c, 0, 55, 0
5, 98319, Note_on_c, 0, 51, 0
5, 98319, Note_on_c, 0, 51, 88
5, 98319, Note_on_c, 0, 55, 88
5, 98319, Note_on_c, 0, 58, 88
5, 98400, Note_on_c, 0, 58, 0
5, 98400, Note_on_c, 0, 55, 0
5, 98400, Note_on_c, 0, 51, 0
5, 98480, Note_on_c, 0, 56, 88
5, 98480, Note_on_c, 0, 58, 88
5, 98559, Note_on_c, 0, 58, 0
5, 98559, Note_on_c, 0, 56, 0
5, 98559, Note_on_c, 0, 56, 88
5, 98559, Note_on_c, 0, 58, 88
5, 98640, Note_on_c, 0, 58, 0
5, 98640, Note_on_c, 0, 56, 0
5, 98720, Note_on_c, 0, 56, 88
5, 98720, Note_on_c, 0, 58, 88
5, 98799, Note_on_c, 0, 58, 0
5, 98799, Note_on_c, 0, 56, 0
5, 98799, Note_on_c, 0, 56, 88
5, 98799, Note_on_c, 0, 58, 88
5, 98880, Note_on_c, 0, 58, 0
5, 98880, Note_on_c, 0, 56, 0
5, 98960, Note_on_c, 0, 56, 88
5, 98960, Note_on_c, 0, 58, 88
5, 99039, Note_on_c, 0, 58, 0
5, 99039, Note_on_c, 0, 56, 0
5, 99039, Note_on_c, 0, 56, 88
5, 99039, Note_on_c, 0, 58, 88
5, 99120, Note_on_c, 0, 58, 0
5, 99120, Note_on_c, 0, 56, 0
5, 99200, Note_on_c, 0, 56, 88
5, 99200, Note_on_c, 0, 58, 88
5, 99279, Note_on_c, 0, 58, 0
5, 99279, Note_on_c, 0, 56, 0
5, 99279, Note_on_c, 0, 56, 88
5, 99279, Note_on_c, 0, 58, 88
5, 99360, Note_on_c, 0, 58, 0
5, 99360, Note_on_c, 0, 56, 0
5, 99440, Note_on_c, 0, 56, 88
5, 99440, Note_on_c, 0, 58, 88
5, 99519, Note_on_c, 0, 58, 0
5, 99519, Note_on_c, 0, 56, 0
5, 99519, Note_on_c, 0, 56, 88
5, 99519, Note_on_c, 0, 58, 88
5, 99600, Note_on_c, 0, 58, 0
5, 99600, Note_on_c, 0, 56, 0
5, 99680, Note_on_c, 0, 56, 88
5, 99680, Note_on_c, 0, 58, 88
5, 99759, Note_on_c, 0, 58, 0
5, 99759, Note_on_c, 0, 56, 0
5, 99759, Note_on_c, 0, 56, 88
5, 99759, Note_on_c, 0, 58, 88
5, 99840, Note_on_c, 0, 58, 0
5, 99840, Note_on_c, 0, 56, 0
5, 99920, Note_on_c, 0, 56, 88
5, 99920, Note_on_c, 0, 58, 88
5, 99999, Note_on_c, 0, 58, 0
5, 99999, Note_on_c, 0, 56, 0
5, 99999, Note_on_c, 0, 56, 88
5, 99999, Note_on_c, 0, 58, 88
5, 100080, Note_on_c, 0, 58, 0
5, 100080, Note_on_c, 0, 56, 0
5, 100080, Note_on_c, 0, 56, 88
5, 100080, Note_on_c, 0, 58, 88
5, 100160, Note_on_c, 0, 58, 0
5, 100160, Note_on_c, 0, 56, 0
5, 100160, Note_on_c, 0, 56, 88
5, 100160, Note_on_c, 0, 58, 88
5, 100239, Note_on_c, 0, 58, 0
5, 100239, Note_on_c, 0, 56, 0
5, 100239, Note_on_c, 0, 56, 88
5, 100239, Note_on_c, 0, 58, 88
5, 100320, Note_on_c, 0, 58, 0
5, 100320, Note_on_c, 0, 56, 0
5, 100400, Note_on_c, 0, 56, 88
5, 100400, Note_on_c, 0, 58, 88
5, 100479, Note_on_c, 0, 58, 0
5, 100479, Note_on_c, 0, 56, 0
5, 100479, Note_on_c, 0, 56, 88
5, 100479, Note_on_c, 0, 58, 88
5, 100560, Note_on_c, 0, 58, 0
5, 100560, Note_on_c, 0, 56, 0
5, 100560, Note_on_c, 0, 56, 88
5, 100560, Note_on_c, 0, 58, 88
5, 100680, Note_on_c, 0, 58, 0
5, 100680, Note_on_c, 0, 56, 0
5, 100800, Note_on_c, 0, 56, 88
5, 100800, Note_on_c, 0, 58, 88
5, 101040, Note_on_c, 0, 58, 0
5, 101040, Note_on_c, 0, 56, 0
5, 101360, Note_on_c, 0, 56, 88
5, 101360, Note_on_c, 0, 58, 88
5, 101439, Note_on_c, 0, 58, 0
5, 101439, Note_on_c, 0, 56, 0
5, 101439, Note_on_c, 0, 56, 88
5, 101439, Note_on_c, 0, 58, 88
5, 101520, Note_on_c, 0, 58, 0
5, 101520, Note_on_c, 0, 56, 0
5, 101600, Note_on_c, 0, 56, 88
5, 101600, Note_on_c, 0, 58, 88
5, 101679, Note_on_c, 0, 58, 0
5, 101679, Note_on_c, 0, 56, 0
5, 101679, Note_on_c, 0, 56, 88
5, 101679, Note_on_c, 0, 58, 88
5, 101760, Note_on_c, 0, 58, 0
5, 101760, Note_on_c, 0, 56, 0
5, 101840, Note_on_c, 0, 56, 88
5, 101840, Note_on_c, 0, 58, 88
5, 101919, Note_on_c, 0, 58, 0
5, 101919, Note_on_c, 0, 56, 0
5, 101919, Note_on_c, 0, 56, 88
5, 101919, Note_on_c, 0, 58, 88
5, 102000, Note_on_c, 0, 58, 0
5, 102000, Note_on_c, 0, 56, 0
5, 102000, Note_on_c, 0, 56, 88
5, 102000, Note_on_c, 0, 58, 88
5, 102080, Note_on_c, 0, 58, 0
5, 102080, Note_on_c, 0, 56, 0
5, 102080, Note_on_c, 0, 56, 88
5, 102080, Note_on_c, 0, 58, 88
5, 102159, Note_on_c, 0, 58, 0
5, 102159, Note_on_c, 0, 56, 0
5, 102159, Note_on_c, 0, 56, 88
5, 102159, Note_on_c, 0, 58, 88
5, 102240, Note_on_c, 0, 58, 0
5, 102240, Note_on_c, 0, 56, 0
5, 102240, Note_on_c, 0, 55, 88
5, 102240, Note_on_c, 0, 58, 88
5, 102480, Note_on_c, 0, 58, 0
5, 102480, Note_on_c, 0, 55, 0
5, 109920, Note_on_c, 0, 44, 62
5, 110160, Note_on_c, 0, 44, 0
5, 111360, Note_on_c, 0, 39, 62
5, 111360, Note_on_c, 0, 46, 62
5, 111600, Note_on_c, 0, 46, 0
5, 111600, Note_on_c, 0, 39, 0
5, 111840, Note_on_c, 0, 44, 62
5, 112080, Note_on_c, 0, 44, 0
5, 113280, Note_on_c, 0, 39, 62
5, 113520, Note_on_c, 0, 39, 0
5, 113760, Note_on_c, 0, 32, 62
5, 114000, Note_on_c, 0, 32, 0
5, 115200, Note_on_c, 0, 39, 75
5, 115200, Note_on_c, 0, 46, 75
5, 115440, Note_on_c, 0, 46, 0
5, 115440, Note_on_c, 0, 39, 0
5, 115680, Note_on_c, 0, 44, 75
5, 115680, Note_on_c, 0, 51, 75
5, 115920, Note_on_c, 0, 51, 0
5, 115920, Note_on_c, 0, 44, 0
5, 117120, Note_on_c, 0, 51, 75
5, 117120, Note_on_c, 0, 55, 75
5, 117360, Note_on_c, 0, 55, 0
5, 117360, Note_on_c, 0, 51, 0
5, 119040, Note_on_c, 0, 51, 75
5, 119040, Note_on_c, 0, 55, 75
5, 119280, Note_on_c, 0, 55, 0
5, 119280, Note_on_c, 0, 51, 0
5, 120960, Note_on_c, 0, 51, 75
5, 120960, Note_on_c, 0, 55, 75
5, 121200, Note_on_c, 0, 55, 0
5, 121200, Note_on_c, 0, 51, 0
5, 121440, Note_on_c, 0, 44, 62
5, 121440, Note_on_c, 0, 51, 62
5, 121680, Note_on_c, 0, 51, 0
5, 121680, Note_on_c, 0, 44, 0
5, 122880, Note_on_c, 0, 39, 62
5, 122880, Note_on_c, 0, 46, 62
5, 123120, Note_on_c, 0, 46, 0
5, 123120, Note_on_c, 0, 39, 0
5, 123360, Note_on_c, 0, 44, 49
5, 123360, Note_on_c, 0, 51, 49
5, 123600, Note_on_c, 0, 51, 0
5, 123600, Note_on_c, 0, 44, 0
5, 124800, Note_on_c, 0, 39, 49
5, 124800, Note_on_c, 0, 46, 49
5, 125040, Note_on_c, 0, 46, 0
5, 125040, Note_on_c, 0, 39, 0
5, 125280, Note_on_c, 0, 44, 49
5, 125280, Note_on_c, 0, 47, 49
5, 125520, Note_on_c, 0, 47, 0
5, 125520, Note_on_c, 0, 44, 0
5, 126720, Note_on_c, 0, 39, 49
5, 126720, Note_on_c, 0, 46, 49
5, 126960, Note_on_c, 0, 46, 0
5, 126960, Note_on_c, 0, 39, 0
5, 127200, Note_on_c, 0, 44, 49
5, 127200, Note_on_c, 0, 47, 49
5, 127440, Note_on_c, 0, 47, 0
5, 127440, Note_on_c, 0, 44, 0
5, 128640, Note_on_c, 0, 39, 49
5, 128640, Note_on_c, 0, 46, 49
5, 128880, Note_on_c, 0, 46, 0
5, 128880, Note_on_c, 0, 39, 0
5, 129360, Note_on_c, 0, 44, 49
5, 130080, Note_on_c, 0, 44, 0
5, 130320, Note_on_c, 0, 39, 49
5, 131040, Note_on_c, 0, 39, 0
5, 131280, Note_on_c, 0, 47, 62
5, 132000, Note_on_c, 0, 47, 0
5, 132240, Note_on_c, 0, 42, 62
5, 132960, Note_on_c, 0, 42, 0
5, 133200, Note_on_c, 0, 47, 75
5, 133440, Note_on_c, 0, 47, 0
5, 133440, Note_on_c, 0, 59, 75
5, 133680, Note_on_c, 0, 59, 0
5, 133680, Note_on_c, 0, 58, 75
5, 133920, Note_on_c, 0, 58, 0
5, 134160, Note_on_c, 0, 44, 75
5, 134400, Note_on_c, 0, 44, 0
5, 134400, Note_on_c, 0, 51, 62
5, 134400, Note_on_c, 0, 56, 62
5, 134880, Note_on_c, 0, 56, 0
5, 134880, Note_on_c, 0, 51, 0
5, 135120, Note_on_c, 0, 40, 62
5, 135840, Note_on_c, 0, 40, 0
5, 136080, Note_on_c, 0, 47, 62
5, 136800, Note_on_c, 0, 47, 0
5, 137040, Note_on_c, 0, 44, 62
5, 137760, Note_on_c, 0, 44, 0
5, 138000, Note_on_c, 0, 39, 75
5, 138720, Note_on_c, 0, 39, 0
5, 138960, Note_on_c, 0, 47, 75
5, 139680, Note_on_c, 0, 47, 0
5, 139920, Note_on_c, 0, 42, 75
5, 140640, Note_on_c, 0, 42, 0
5, 140880, Note_on_c, 0, 47, 75
5, 141120, Note_on_c, 0, 47, 0
5, 141120, Note_on_c, 0, 59, 75
5, 141360, Note_on_c, 0, 59, 0
5, 141360, Note_on_c, 0, 58, 75
5, 141600, Note_on_c, 0, 58, 0
5, 141840, Note_on_c, 0, 44, 75
5, 142080, Note_on_c, 0, 44, 0
5, 142080, Note_on_c, 0, 51, 62
5, 142080, Note_on_c, 0, 56, 62
5, 142560, Note_on_c, 0, 56, 0
5, 142560, Note_on_c, 0, 51, 0
5, 142800, Note_on_c, 0, 40, 62
5, 143040, Note_on_c, 0, 40, 0
5, 143040, Note_on_c, 0, 52, 62
5, 143520, Note_on_c, 0, 52, 0
5, 144480, Note_on_c, 0, 44, 49
5, 144720, Note_on_c, 0, 44, 0
5, 145920, Note_on_c, 0, 39, 49
5, 145920, Note_on_c, 0, 46, 49
5, 146160, Note_on_c, 0, 46, 0
5, 146160, Note_on_c, 0, 39, 0
5, 146400, Note_on_c, 0, 44, 49
5, 146640, Note_on_c, 0, 44, 0
5, 147840, Note_on_c, 0, 39, 49
5, 148080, Note_on_c, 0, 39, 0
5, 149760, Note_on_c, 0, 39, 49
5, 149760, Note_on_c, 0, 46, 49
5, 150000, Note_on_c, 0, 46, 0
5, 150000, Note_on_c, 0, 39, 0
5, 150240, Note_on_c, 0, 44, 49
5, 150240, Note_on_c, 0, 51, 49
5, 150480, Note_on_c, 0, 51, 0
5, 150480, Note_on_c, 0, 44, 0
5, 151680, Note_on_c, 0, 51, 49
5, 151920, Note_on_c, 0, 51, 0
5, 152070, Note_on_c, 0, 44, 49
5, 152100, Note_on_c, 0, 51, 49
5, 152130, Note_on_c, 0, 56, 49
5, 152160, Note_on_c, 0, 59, 62
5, 152400, Note_on_c, 0, 59, 0
5, 152400, Note_on_c, 0, 44, 0
5, 152400, Note_on_c, 0, 51, 0
5, 152400, Note_on_c, 0, 56, 0
5, 153600, Note_on_c, 0, 51, 62
5, 153840, Note_on_c, 0, 51, 0
5, 153990, Note_on_c, 0, 44, 62
5, 154020, Note_on_c, 0, 51, 62
5, 154050, Note_on_c, 0, 56, 62
5, 154080, Note_on_c, 0, 59, 62
5, 154320, Note_on_c, 0, 59, 0
5, 154320, Note_on_c, 0, 44, 0
5, 154320, Note_on_c, 0, 51, 0
5, 154320, Note_on_c, 0, 56, 0
5, 155520, Note_on_c, 0, 51, 62
5, 155760, Note_on_c, 0, 51, 0
5, 156000, Note_on_c, 0, 44, 49
5, 156000, Note_on_c, 0, 51, 49
5, 156240, Note_on_c, 0, 51, 0
5, 156240, Note_on_c, 0, 44, 0
5, 157440, Note_on_c, 0, 39, 49
5, 157440, Note_on_c, 0, 46, 49
5, 157680, Note_on_c, 0, 46, 0
5, 157680, Note_on_c, 0, 39, 0
5, 157920, Note_on_c, 0, 44, 49
5, 157920, Note_on_c, 0, 51, 49
5, 158160, Note_on_c, 0, 51, 0
5, 158160, Note_on_c, 0, 44, 0
5, 159360, Note_on_c, 0, 39, 49
5, 159360, Note_on_c, 0, 46, 49
5, 159600, Note_on_c, 0, 46, 0
5, 159600, Note_on_c, 0, 39, 0
5, 159840, Note_on_c, 0, 44, 49
5, 160080, Note_on_c, 0, 44, 0
5, 160320, Note_on_c, 0, 39, 49
5, 160560, Note_on_c, 0, 39, 0
5, 160800, Note_on_c, 0, 44, 49
5, 161040, Note_on_c, 0, 44, 0
5, 161280, Note_on_c, 0, 39, 49
5, 161520, Note_on_c, 0, 39, 0
5, 169440, Note_on_c, 0, 32, 49
5, 169440, Note_on_c, 0, 44, 49
5, 169920, Note_on_c, 0, 44, 0
5, 169920, Note_on_c, 0, 32, 0
5, 170880, Note_on_c, 0, 39, 49
5, 170880, Note_on_c, 0, 46, 49
5, 171120, Note_on_c, 0, 46, 0
5, 171120, Note_on_c, 0, 39, 0
5, 171360, Note_on_c, 0, 44, 49
5, 171360, Note_on_c, 0, 47, 49
5, 171600, Note_on_c, 0, 47, 0
5, 171600, Note_on_c, 0, 44, 0
5, 172800, Note_on_c, 0, 39, 49
5, 172800, Note_on_c, 0, 46, 49
5, 173040, Note_on_c, 0, 46, 0
5, 173040, Note_on_c, 0, 39, 0
5, 173280, Note_on_c, 0, 44, 49
5, 173280, Note_on_c, 0, 47, 49
5, 173520, Note_on_c, 0, 47, 0
5, 173520, Note_on_c, 0, 44, 0
5, 174240, Note_on_c, 0, 44, 49
5, 174240, Note_on_c, 0, 47, 49
5, 174480, Note_on_c, 0, 47, 0
5, 174480, Note_on_c, 0, 44, 0
5, 175200, Note_on_c, 0, 44, 49
5, 175200, Note_on_c, 0, 47, 49
5, 175440, Note_on_c, 0, 47, 0
5, 175440, Note_on_c, 0, 44, 0
5, 175440, End_track
0, 0, End_of_file
