0, 0, Header, 1, 5, 480
1, 0, Start_track
1, 0, Title_t, "tchaikovsky six pieces on one theme op21 no5 mazurque"
1, 0, Copyright_t, "Adaptation for Disklavier pianos, by: Robert C. Kuhmann (c) 2012."
1, 0, Text_t, "Seq. (c) by: Segundo G. Yogore,  2007\012"
1, 0, Time_signature, 3, 3, 12, 8
1, 0, Key_signature, -7, "major"
1, 0, Tempo, 535714
1, 28800, Tempo, 535714
1, 47520, Key_signature, 5, "major"
1, 94320, Key_signature, -7, "major"
1, 126000, Tempo, 535714
1, 155040, Tempo, 550459
1, 155160, Tempo, 566038
1, 155280, Tempo, 582524
1, 155400, Tempo, 600000
1, 155520, Tempo, 618557
1, 155640, Tempo, 638298
1, 155760, Tempo, 666667
1, 155880, Tempo, 697674
1, 156000, Tempo, 722892
1, 156120, Tempo, 750000
1, 156240, Tempo, 779221
1, 156360, Tempo, 810811
1, 156480, Tempo, 845070
1, 156600, Tempo, 882353
1, 156720, Tempo, 937500
1, 156840, Tempo, 1000000
1, 157680, Time_signature, 8, 2, 24, 8
1, 157680, End_track
2, 0, Start_track
2, 0, Title_t, "Grand Piano"
2, 0, Program_c, 0, 0
2, 0, Control_c, 0, 7, 115
2, 0, Control_c, 0, 10, 86
2, 0, Note_on_c, 0, 63, 62
2, 720, Note_on_c, 0, 63, 0
2, 720, Note_on_c, 0, 64, 62
2, 840, Note_on_c, 0, 64, 0
2, 840, Note_on_c, 0, 63, 62
2, 960, Note_on_c, 0, 63, 0
2, 960, Note_on_c, 0, 62, 62
2, 1440, Note_on_c, 0, 62, 0
2, 1440, Note_on_c, 0, 63, 62
2, 1680, Note_on_c, 0, 63, 0
2, 1680, Note_on_c, 0, 68, 62
2, 2160, Note_on_c, 0, 68, 0
2, 2160, Note_on_c, 0, 63, 62
2, 2400, Note_on_c, 0, 63, 0
2, 2400, Note_on_c, 0, 62, 62
2, 2880, Note_on_c, 0, 62, 0
2, 2880, Note_on_c, 0, 63, 62
2, 3120, Note_on_c, 0, 63, 0
2, 3120, Note_on_c, 0, 62, 62
2, 3240, Note_on_c, 0, 62, 0
2, 3240, Note_on_c, 0, 63, 62
2, 3300, Note_on_c, 0, 63, 0
2, 3300, Note_on_c, 0, 62, 62
2, 3360, Note_on_c, 0, 62, 0
2, 3360, Note_on_c, 0, 59, 62
2, 3600, Note_on_c, 0, 59, 0
2, 3600, Note_on_c, 0, 58, 62
2, 3840, Note_on_c, 0, 58, 0
2, 3840, Note_on_c, 0, 56, 62
2, 4320, Note_on_c, 0, 56, 0
2, 4320, Note_on_c, 0, 63, 62
2, 5160, Note_on_c, 0, 63, 0
2, 5160, Control_c, 0, 64, 127
2, 5160, Note_on_c, 0, 58, 62
2, 5280, Note_on_c, 0, 58, 0
2, 5280, Note_on_c, 0, 59, 62
2, 5400, Note_on_c, 0, 59, 0
2, 5400, Note_on_c, 0, 61, 75
2, 5520, Note_on_c, 0, 61, 0
2, 5520, Note_on_c, 0, 63, 75
2, 5640, Note_on_c, 0, 63, 0
2, 5640, Control_c, 0, 64, 0
2, 5640, Note_on_c, 0, 64, 75
2, 5760, Note_on_c, 0, 64, 0
2, 5760, Note_on_c, 0, 66, 75
2, 5880, Note_on_c, 0, 66, 0
2, 5880, Note_on_c, 0, 68, 75
2, 5940, Note_on_c, 0, 68, 0
2, 5940, Note_on_c, 0, 66, 75
2, 6000, Note_on_c, 0, 66, 0
2, 6000, Note_on_c, 0, 64, 75
2, 6120, Note_on_c, 0, 64, 0
2, 6120, Note_on_c, 0, 63, 75
2, 6480, Note_on_c, 0, 63, 0
2, 6480, Note_on_c, 0, 64, 75
2, 6720, Note_on_c, 0, 64, 0
2, 6720, Note_on_c, 0, 62, 75
2, 7200, Note_on_c, 0, 62, 0
2, 7200, Note_on_c, 0, 66, 75
2, 7320, Note_on_c, 0, 66, 0
2, 7320, Note_on_c, 0, 68, 75
2, 7380, Note_on_c, 0, 68, 0
2, 7380, Note_on_c, 0, 66, 75
2, 7440, Note_on_c, 0, 66, 0
2, 7440, Note_on_c, 0, 64, 75
2, 7560, Note_on_c, 0, 64, 0
2, 7560, Note_on_c, 0, 63, 75
2, 7920, Note_on_c, 0, 63, 0
2, 7920, Note_on_c, 0, 64, 75
2, 8160, Note_on_c, 0, 64, 0
2, 8160, Note_on_c, 0, 62, 75
2, 8640, Note_on_c, 0, 62, 0
2, 8640, Note_on_c, 0, 63, 75
2, 8760, Note_on_c, 0, 63, 0
2, 8760, Note_on_c, 0, 64, 75
2, 8820, Note_on_c, 0, 64, 0
2, 8820, Note_on_c, 0, 63, 75
2, 8880, Note_on_c, 0, 63, 0
2, 8880, Note_on_c, 0, 62, 75
2, 9000, Note_on_c, 0, 62, 0
2, 9000, Note_on_c, 0, 63, 75
2, 9120, Note_on_c, 0, 63, 0
2, 9120, Note_on_c, 0, 71, 75
2, 9360, Note_on_c, 0, 71, 0
2, 9360, Note_on_c, 0, 73, 75
2, 9600, Note_on_c, 0, 73, 0
2, 9600, Note_on_c, 0, 75, 75
2, 9840, Note_on_c, 0, 75, 0
2, 9840, Note_on_c, 0, 63, 75
2, 9960, Note_on_c, 0, 63, 0
2, 9960, Note_on_c, 0, 64, 75
2, 10080, Note_on_c, 0, 64, 0
2, 10080, Control_c, 0, 64, 127
2, 10080, Note_on_c, 0, 66, 75
2, 10200, Note_on_c, 0, 66, 0
2, 10200, Note_on_c, 0, 68, 75
2, 10260, Note_on_c, 0, 68, 0
2, 10260, Note_on_c, 0, 66, 75
2, 10320, Note_on_c, 0, 66, 0
2, 10320, Note_on_c, 0, 64, 75
2, 10440, Note_on_c, 0, 64, 0
2, 10440, Note_on_c, 0, 63, 75
2, 10560, Note_on_c, 0, 63, 0
2, 10560, Note_on_c, 0, 71, 75
2, 10800, Note_on_c, 0, 71, 0
2, 10800, Note_on_c, 0, 73, 75
2, 11040, Note_on_c, 0, 73, 0
2, 11040, Control_c, 0, 64, 0
2, 11040, Note_on_c, 0, 75, 75
2, 11280, Note_on_c, 0, 75, 0
2, 11280, Control_c, 0, 64, 127
2, 11280, Note_on_c, 0, 63, 75
2, 11400, Note_on_c, 0, 63, 0
2, 11400, Note_on_c, 0, 64, 75
2, 11520, Note_on_c, 0, 64, 0
2, 11520, Note_on_c, 0, 66, 75
2, 11640, Note_on_c, 0, 66, 0
2, 11640, Note_on_c, 0, 68, 75
2, 11700, Note_on_c, 0, 68, 0
2, 11700, Note_on_c, 0, 66, 75
2, 11760, Note_on_c, 0, 66, 0
2, 11760, Note_on_c, 0, 64, 75
2, 11880, Note_on_c, 0, 64, 0
2, 11880, Note_on_c, 0, 63, 75
2, 12000, Note_on_c, 0, 63, 0
2, 12000, Note_on_c, 0, 71, 75
2, 12240, Note_on_c, 0, 71, 0
2, 12240, Note_on_c, 0, 73, 75
2, 12480, Note_on_c, 0, 73, 0
2, 12480, Note_on_c, 0, 75, 75
2, 12720, Note_on_c, 0, 75, 0
2, 12720, Control_c, 0, 64, 0
2, 12720, Note_on_c, 0, 77, 75
2, 12960, Note_on_c, 0, 77, 0
2, 12960, Note_on_c, 0, 78, 75
2, 13200, Note_on_c, 0, 78, 0
2, 13200, Note_on_c, 0, 80, 75
2, 13440, Note_on_c, 0, 80, 0
2, 13440, Note_on_c, 0, 82, 75
2, 13680, Note_on_c, 0, 82, 0
2, 13680, Note_on_c, 0, 80, 75
2, 13920, Note_on_c, 0, 80, 0
2, 13920, Note_on_c, 0, 82, 75
2, 14160, Note_on_c, 0, 82, 0
2, 14160, Note_on_c, 0, 75, 75
2, 14400, Note_on_c, 0, 75, 0
2, 14520, Note_on_c, 0, 73, 75
2, 14543, Note_on_c, 0, 73, 0
2, 14640, Note_on_c, 0, 80, 75
2, 14687, Note_on_c, 0, 80, 0
2, 14880, Note_on_c, 0, 64, 75
2, 14880, Note_on_c, 0, 68, 75
2, 14880, Note_on_c, 0, 73, 75
2, 15120, Note_on_c, 0, 73, 0
2, 15120, Note_on_c, 0, 68, 0
2, 15120, Note_on_c, 0, 64, 0
2, 15240, Note_on_c, 0, 78, 75
2, 15300, Note_on_c, 0, 78, 0
2, 15300, Note_on_c, 0, 80, 75
2, 15330, Note_on_c, 0, 80, 0
2, 15330, Note_on_c, 0, 78, 75
2, 15360, Note_on_c, 0, 78, 0
2, 15360, Note_on_c, 0, 76, 75
2, 15480, Note_on_c, 0, 76, 0
2, 15480, Note_on_c, 0, 75, 75
2, 15600, Note_on_c, 0, 75, 0
2, 15600, Note_on_c, 0, 73, 75
2, 15720, Note_on_c, 0, 73, 0
2, 15720, Note_on_c, 0, 71, 75
2, 15840, Note_on_c, 0, 71, 0
2, 15840, Note_on_c, 0, 70, 75
2, 15960, Note_on_c, 0, 70, 0
2, 15960, Note_on_c, 0, 71, 75
2, 16080, Note_on_c, 0, 71, 0
2, 16080, Note_on_c, 0, 70, 75
2, 16103, Note_on_c, 0, 70, 0
2, 16200, Note_on_c, 0, 68, 75
2, 16223, Note_on_c, 0, 68, 0
2, 16320, Note_on_c, 0, 67, 75
2, 16440, Note_on_c, 0, 67, 0
2, 16440, Note_on_c, 0, 70, 75
2, 16560, Note_on_c, 0, 70, 0
2, 16560, Note_on_c, 0, 64, 75
2, 16800, Note_on_c, 0, 64, 0
2, 16800, Note_on_c, 0, 63, 75
2, 16920, Note_on_c, 0, 63, 0
2, 16920, Note_on_c, 0, 62, 75
2, 17040, Note_on_c, 0, 62, 0
2, 17040, Note_on_c, 0, 63, 75
2, 17280, Note_on_c, 0, 63, 0
2, 17400, Note_on_c, 0, 73, 75
2, 17423, Note_on_c, 0, 73, 0
2, 17520, Note_on_c, 0, 80, 75
2, 17567, Note_on_c, 0, 80, 0
2, 17760, Note_on_c, 0, 64, 75
2, 17760, Note_on_c, 0, 68, 75
2, 17760, Note_on_c, 0, 73, 75
2, 18000, Note_on_c, 0, 73, 0
2, 18000, Note_on_c, 0, 68, 0
2, 18000, Note_on_c, 0, 64, 0
2, 18120, Control_c, 0, 64, 127
2, 18120, Note_on_c, 0, 78, 75
2, 18180, Note_on_c, 0, 78, 0
2, 18180, Note_on_c, 0, 80, 75
2, 18210, Note_on_c, 0, 80, 0
2, 18210, Note_on_c, 0, 78, 75
2, 18240, Note_on_c, 0, 78, 0
2, 18240, Note_on_c, 0, 76, 75
2, 18360, Note_on_c, 0, 76, 0
2, 18360, Note_on_c, 0, 75, 75
2, 18480, Note_on_c, 0, 75, 0
2, 18480, Note_on_c, 0, 73, 75
2, 18600, Note_on_c, 0, 73, 0
2, 18600, Control_c, 0, 64, 0
2, 18600, Note_on_c, 0, 71, 75
2, 18720, Note_on_c, 0, 71, 0
2, 18720, Note_on_c, 0, 70, 75
2, 18840, Note_on_c, 0, 70, 0
2, 18840, Note_on_c, 0, 71, 75
2, 18960, Note_on_c, 0, 71, 0
2, 18960, Note_on_c, 0, 70, 75
2, 18983, Note_on_c, 0, 70, 0
2, 19080, Note_on_c, 0, 68, 75
2, 19103, Note_on_c, 0, 68, 0
2, 19200, Note_on_c, 0, 67, 75
2, 19320, Note_on_c, 0, 67, 0
2, 19320, Note_on_c, 0, 70, 75
2, 19440, Note_on_c, 0, 70, 0
2, 19440, Note_on_c, 0, 65, 62
2, 19560, Note_on_c, 0, 65, 0
2, 19560, Note_on_c, 0, 67, 62
2, 19680, Note_on_c, 0, 67, 0
2, 19680, Note_on_c, 0, 63, 62
2, 19920, Note_on_c, 0, 63, 0
2, 19920, Note_on_c, 0, 65, 62
2, 20040, Note_on_c, 0, 65, 0
2, 20040, Note_on_c, 0, 67, 62
2, 20160, Note_on_c, 0, 67, 0
2, 20160, Note_on_c, 0, 63, 62
2, 20400, Note_on_c, 0, 63, 0
2, 20880, Note_on_c, 0, 65, 75
2, 21000, Note_on_c, 0, 65, 0
2, 21000, Note_on_c, 0, 67, 75
2, 21120, Note_on_c, 0, 67, 0
2, 21120, Note_on_c, 0, 63, 75
2, 21360, Note_on_c, 0, 63, 0
2, 21360, Note_on_c, 0, 65, 75
2, 21480, Note_on_c, 0, 65, 0
2, 21480, Note_on_c, 0, 67, 75
2, 21600, Note_on_c, 0, 67, 0
2, 21600, Note_on_c, 0, 63, 75
2, 21840, Note_on_c, 0, 63, 0
2, 22320, Note_on_c, 0, 77, 75
2, 22440, Note_on_c, 0, 77, 0
2, 22440, Note_on_c, 0, 79, 75
2, 22560, Note_on_c, 0, 79, 0
2, 22560, Note_on_c, 0, 75, 75
2, 22800, Note_on_c, 0, 75, 0
2, 22800, Note_on_c, 0, 77, 75
2, 22920, Note_on_c, 0, 77, 0
2, 22920, Note_on_c, 0, 79, 75
2, 23040, Note_on_c, 0, 79, 0
2, 23040, Note_on_c, 0, 75, 75
2, 23280, Note_on_c, 0, 75, 0
2, 23280, Note_on_c, 0, 85, 101
2, 23640, Note_on_c, 0, 85, 0
2, 23640, Note_on_c, 0, 83, 75
2, 23700, Note_on_c, 0, 83, 0
2, 23700, Note_on_c, 0, 85, 75
2, 23730, Note_on_c, 0, 85, 0
2, 23730, Note_on_c, 0, 83, 75
2, 23760, Note_on_c, 0, 83, 0
2, 23760, Note_on_c, 0, 82, 75
2, 23880, Note_on_c, 0, 82, 0
2, 23880, Note_on_c, 0, 87, 75
2, 24000, Note_on_c, 0, 87, 0
2, 24000, Note_on_c, 0, 82, 75
2, 24023, Note_on_c, 0, 82, 0
2, 24120, Note_on_c, 0, 80, 75
2, 24143, Note_on_c, 0, 80, 0
2, 24240, Note_on_c, 0, 79, 75
2, 24360, Note_on_c, 0, 79, 0
2, 24360, Note_on_c, 0, 82, 75
2, 24480, Note_on_c, 0, 82, 0
2, 24480, Note_on_c, 0, 76, 75
2, 24600, Note_on_c, 0, 76, 0
2, 24600, Note_on_c, 0, 75, 75
2, 24720, Note_on_c, 0, 75, 0
2, 24720, Note_on_c, 0, 73, 75
2, 24743, Note_on_c, 0, 73, 0
2, 24840, Note_on_c, 0, 76, 75
2, 24863, Note_on_c, 0, 76, 0
2, 24960, Note_on_c, 0, 73, 75
2, 25080, Note_on_c, 0, 73, 0
2, 25080, Note_on_c, 0, 71, 75
2, 25200, Note_on_c, 0, 71, 0
2, 25200, Note_on_c, 0, 70, 62
2, 25320, Note_on_c, 0, 70, 0
2, 25320, Note_on_c, 0, 75, 62
2, 25440, Note_on_c, 0, 75, 0
2, 25440, Note_on_c, 0, 68, 62
2, 25560, Note_on_c, 0, 68, 0
2, 25560, Note_on_c, 0, 67, 62
2, 25680, Note_on_c, 0, 67, 0
2, 25680, Note_on_c, 0, 70, 62
2, 25800, Note_on_c, 0, 70, 0
2, 25800, Note_on_c, 0, 64, 62
2, 25920, Note_on_c, 0, 64, 0
2, 25920, Note_on_c, 0, 63, 62
2, 26040, Note_on_c, 0, 63, 0
2, 26040, Note_on_c, 0, 61, 62
2, 26160, Note_on_c, 0, 61, 0
2, 26160, Note_on_c, 0, 66, 88
2, 26520, Note_on_c, 0, 66, 0
2, 26520, Note_on_c, 0, 64, 62
2, 26580, Note_on_c, 0, 64, 0
2, 26580, Note_on_c, 0, 66, 62
2, 26610, Note_on_c, 0, 66, 0
2, 26610, Note_on_c, 0, 64, 62
2, 26640, Note_on_c, 0, 64, 0
2, 26640, Note_on_c, 0, 63, 62
2, 26760, Note_on_c, 0, 63, 0
2, 26760, Note_on_c, 0, 61, 62
2, 26880, Note_on_c, 0, 61, 0
2, 26880, Note_on_c, 0, 66, 88
2, 27240, Note_on_c, 0, 66, 0
2, 27240, Note_on_c, 0, 64, 62
2, 27300, Note_on_c, 0, 64, 0
2, 27300, Note_on_c, 0, 66, 62
2, 27330, Note_on_c, 0, 66, 0
2, 27330, Note_on_c, 0, 64, 62
2, 27360, Note_on_c, 0, 64, 0
2, 27360, Note_on_c, 0, 63, 62
2, 27480, Note_on_c, 0, 63, 0
2, 27480, Note_on_c, 0, 61, 62
2, 27600, Note_on_c, 0, 61, 0
2, 27600, Note_on_c, 0, 66, 62
2, 27720, Note_on_c, 0, 66, 0
2, 27720, Note_on_c, 0, 64, 62
2, 27780, Note_on_c, 0, 64, 0
2, 27780, Note_on_c, 0, 66, 62
2, 27810, Note_on_c, 0, 66, 0
2, 27810, Note_on_c, 0, 64, 62
2, 27840, Note_on_c, 0, 64, 0
2, 27840, Note_on_c, 0, 63, 62
2, 27960, Note_on_c, 0, 63, 0
2, 27960, Note_on_c, 0, 61, 62
2, 28080, Note_on_c, 0, 61, 0
2, 28080, Note_on_c, 0, 66, 62
2, 28200, Note_on_c, 0, 66, 0
2, 28200, Note_on_c, 0, 64, 62
2, 28260, Note_on_c, 0, 64, 0
2, 28260, Note_on_c, 0, 66, 62
2, 28290, Note_on_c, 0, 66, 0
2, 28290, Note_on_c, 0, 64, 62
2, 28320, Note_on_c, 0, 64, 0
2, 28320, Note_on_c, 0, 63, 62
2, 28440, Note_on_c, 0, 63, 0
2, 28440, Note_on_c, 0, 61, 62
2, 28560, Note_on_c, 0, 61, 0
2, 28560, Note_on_c, 0, 66, 62
2, 28680, Note_on_c, 0, 66, 0
2, 28680, Note_on_c, 0, 64, 62
2, 28800, Note_on_c, 0, 64, 0
2, 28800, Note_on_c, 0, 63, 62
2, 29520, Note_on_c, 0, 63, 0
2, 29520, Note_on_c, 0, 64, 62
2, 29640, Note_on_c, 0, 64, 0
2, 29640, Note_on_c, 0, 63, 62
2, 29760, Note_on_c, 0, 63, 0
2, 29760, Note_on_c, 0, 62, 62
2, 30240, Note_on_c, 0, 62, 0
2, 30240, Note_on_c, 0, 63, 62
2, 30480, Note_on_c, 0, 63, 0
2, 30480, Note_on_c, 0, 68, 62
2, 30960, Note_on_c, 0, 68, 0
2, 30960, Note_on_c, 0, 63, 62
2, 31200, Note_on_c, 0, 63, 0
2, 31200, Note_on_c, 0, 62, 62
2, 31680, Note_on_c, 0, 62, 0
2, 31680, Note_on_c, 0, 63, 62
2, 31920, Note_on_c, 0, 63, 0
2, 31920, Note_on_c, 0, 62, 62
2, 32040, Note_on_c, 0, 62, 0
2, 32040, Note_on_c, 0, 63, 62
2, 32100, Note_on_c, 0, 63, 0
2, 32100, Note_on_c, 0, 62, 62
2, 32160, Note_on_c, 0, 62, 0
2, 32160, Note_on_c, 0, 59, 62
2, 32400, Note_on_c, 0, 59, 0
2, 32400, Note_on_c, 0, 58, 62
2, 32640, Note_on_c, 0, 58, 0
2, 32640, Note_on_c, 0, 56, 62
2, 33120, Note_on_c, 0, 56, 0
2, 33120, Note_on_c, 0, 63, 62
2, 33960, Note_on_c, 0, 63, 0
2, 33960, Control_c, 0, 64, 127
2, 33960, Note_on_c, 0, 58, 62
2, 34080, Note_on_c, 0, 58, 0
2, 34080, Note_on_c, 0, 59, 62
2, 34200, Note_on_c, 0, 59, 0
2, 34200, Note_on_c, 0, 61, 75
2, 34320, Note_on_c, 0, 61, 0
2, 34320, Note_on_c, 0, 63, 75
2, 34440, Note_on_c, 0, 63, 0
2, 34440, Control_c, 0, 64, 0
2, 34440, Note_on_c, 0, 64, 75
2, 34560, Note_on_c, 0, 64, 0
2, 34560, Note_on_c, 0, 66, 75
2, 34680, Note_on_c, 0, 66, 0
2, 34680, Note_on_c, 0, 68, 75
2, 34740, Note_on_c, 0, 68, 0
2, 34740, Note_on_c, 0, 66, 75
2, 34800, Note_on_c, 0, 66, 0
2, 34800, Note_on_c, 0, 64, 75
2, 34920, Note_on_c, 0, 64, 0
2, 34920, Note_on_c, 0, 63, 75
2, 35280, Note_on_c, 0, 63, 0
2, 35280, Note_on_c, 0, 64, 75
2, 35520, Note_on_c, 0, 64, 0
2, 35520, Note_on_c, 0, 62, 75
2, 36000, Note_on_c, 0, 62, 0
2, 36000, Note_on_c, 0, 66, 75
2, 36120, Note_on_c, 0, 66, 0
2, 36120, Note_on_c, 0, 68, 75
2, 36180, Note_on_c, 0, 68, 0
2, 36180, Note_on_c, 0, 66, 75
2, 36240, Note_on_c, 0, 66, 0
2, 36240, Note_on_c, 0, 64, 75
2, 36360, Note_on_c, 0, 64, 0
2, 36360, Note_on_c, 0, 63, 75
2, 36720, Note_on_c, 0, 63, 0
2, 36720, Note_on_c, 0, 64, 75
2, 36960, Note_on_c, 0, 64, 0
2, 36960, Note_on_c, 0, 62, 75
2, 37440, Note_on_c, 0, 62, 0
2, 37440, Note_on_c, 0, 63, 75
2, 37560, Note_on_c, 0, 63, 0
2, 37560, Note_on_c, 0, 64, 75
2, 37620, Note_on_c, 0, 64, 0
2, 37620, Note_on_c, 0, 63, 75
2, 37680, Note_on_c, 0, 63, 0
2, 37680, Note_on_c, 0, 62, 75
2, 37800, Note_on_c, 0, 62, 0
2, 37800, Note_on_c, 0, 63, 75
2, 37920, Note_on_c, 0, 63, 0
2, 37920, Note_on_c, 0, 71, 75
2, 38160, Note_on_c, 0, 71, 0
2, 38160, Note_on_c, 0, 73, 75
2, 38400, Note_on_c, 0, 73, 0
2, 38400, Note_on_c, 0, 75, 75
2, 38640, Note_on_c, 0, 75, 0
2, 38640, Note_on_c, 0, 63, 75
2, 38760, Note_on_c, 0, 63, 0
2, 38760, Note_on_c, 0, 64, 75
2, 38880, Note_on_c, 0, 64, 0
2, 38880, Control_c, 0, 64, 127
2, 38880, Note_on_c, 0, 66, 75
2, 39000, Note_on_c, 0, 66, 0
2, 39000, Note_on_c, 0, 68, 75
2, 39060, Note_on_c, 0, 68, 0
2, 39060, Note_on_c, 0, 66, 75
2, 39120, Note_on_c, 0, 66, 0
2, 39120, Note_on_c, 0, 64, 75
2, 39240, Note_on_c, 0, 64, 0
2, 39240, Note_on_c, 0, 63, 75
2, 39360, Note_on_c, 0, 63, 0
2, 39360, Note_on_c, 0, 71, 75
2, 39600, Note_on_c, 0, 71, 0
2, 39600, Note_on_c, 0, 73, 75
2, 39840, Note_on_c, 0, 73, 0
2, 39840, Control_c, 0, 64, 0
2, 39840, Note_on_c, 0, 75, 75
2, 40080, Note_on_c, 0, 75, 0
2, 40080, Note_on_c, 0, 59, 62
2, 40200, Note_on_c, 0, 59, 0
2, 40200, Note_on_c, 0, 61, 62
2, 40320, Note_on_c, 0, 61, 0
2, 40320, Control_c, 0, 64, 127
2, 40320, Note_on_c, 0, 63, 62
2, 40440, Note_on_c, 0, 63, 0
2, 40440, Note_on_c, 0, 64, 62
2, 40500, Note_on_c, 0, 64, 0
2, 40500, Note_on_c, 0, 63, 62
2, 40560, Note_on_c, 0, 63, 0
2, 40560, Note_on_c, 0, 61, 62
2, 40680, Note_on_c, 0, 61, 0
2, 40680, Note_on_c, 0, 59, 62
2, 40800, Note_on_c, 0, 59, 0
2, 40800, Note_on_c, 0, 68, 62
2, 41040, Note_on_c, 0, 68, 0
2, 41040, Note_on_c, 0, 70, 62
2, 41280, Note_on_c, 0, 70, 0
2, 41280, Control_c, 0, 64, 0
2, 41280, Note_on_c, 0, 71, 62
2, 41520, Note_on_c, 0, 71, 0
2, 41520, Note_on_c, 0, 59, 62
2, 41640, Note_on_c, 0, 59, 0
2, 41640, Note_on_c, 0, 61, 62
2, 41760, Note_on_c, 0, 61, 0
2, 41760, Control_c, 0, 64, 127
2, 41760, Note_on_c, 0, 63, 62
2, 41880, Note_on_c, 0, 63, 0
2, 41880, Note_on_c, 0, 64, 62
2, 41940, Note_on_c, 0, 64, 0
2, 41940, Note_on_c, 0, 63, 62
2, 42000, Note_on_c, 0, 63, 0
2, 42000, Note_on_c, 0, 61, 62
2, 42120, Note_on_c, 0, 61, 0
2, 42120, Note_on_c, 0, 59, 62
2, 42240, Note_on_c, 0, 59, 0
2, 42240, Note_on_c, 0, 68, 62
2, 42480, Note_on_c, 0, 68, 0
2, 42480, Note_on_c, 0, 70, 62
2, 42720, Note_on_c, 0, 70, 0
2, 42720, Control_c, 0, 64, 0
2, 42720, Note_on_c, 0, 71, 62
2, 42960, Note_on_c, 0, 71, 0
2, 42960, Note_on_c, 0, 59, 49
2, 43080, Note_on_c, 0, 59, 0
2, 43080, Note_on_c, 0, 61, 49
2, 43200, Note_on_c, 0, 61, 0
2, 43200, Note_on_c, 0, 63, 49
2, 43320, Note_on_c, 0, 63, 0
2, 43320, Note_on_c, 0, 64, 49
2, 43380, Note_on_c, 0, 64, 0
2, 43380, Note_on_c, 0, 63, 49
2, 43440, Note_on_c, 0, 63, 0
2, 43440, Note_on_c, 0, 61, 75
2, 43800, Note_on_c, 0, 61, 0
2, 43800, Note_on_c, 0, 59, 49
2, 43920, Note_on_c, 0, 59, 0
2, 43920, Note_on_c, 0, 63, 49
2, 44040, Note_on_c, 0, 63, 0
2, 44040, Note_on_c, 0, 64, 49
2, 44100, Note_on_c, 0, 64, 0
2, 44100, Note_on_c, 0, 63, 49
2, 44160, Note_on_c, 0, 63, 0
2, 44160, Note_on_c, 0, 61, 75
2, 44520, Note_on_c, 0, 61, 0
2, 44520, Note_on_c, 0, 59, 49
2, 44640, Note_on_c, 0, 59, 0
2, 44640, Note_on_c, 0, 58, 49
2, 44760, Note_on_c, 0, 58, 0
2, 44760, Note_on_c, 0, 59, 49
2, 44880, Note_on_c, 0, 59, 0
2, 44880, Note_on_c, 0, 56, 49
2, 45360, Note_on_c, 0, 56, 0
2, 45360, Note_on_c, 0, 59, 49
2, 45383, Note_on_c, 0, 59, 0
2, 45480, Note_on_c, 0, 58, 49
2, 45519, Note_on_c, 0, 58, 0
2, 45519, Note_on_c, 0, 59, 49
2, 45560, Note_on_c, 0, 59, 0
2, 45560, Note_on_c, 0, 58, 49
2, 45600, Note_on_c, 0, 58, 0
2, 45600, Note_on_c, 0, 56, 49
2, 46080, Note_on_c, 0, 56, 0
2, 46080, Note_on_c, 0, 58, 49
2, 46200, Note_on_c, 0, 58, 0
2, 46200, Note_on_c, 0, 59, 49
2, 46320, Note_on_c, 0, 59, 0
2, 46320, Note_on_c, 0, 56, 49
2, 46800, Note_on_c, 0, 56, 0
2, 46800, Note_on_c, 0, 59, 49
2, 46823, Note_on_c, 0, 59, 0
2, 46920, Note_on_c, 0, 58, 49
2, 46959, Note_on_c, 0, 58, 0
2, 46959, Note_on_c, 0, 59, 49
2, 47000, Note_on_c, 0, 59, 0
2, 47000, Note_on_c, 0, 58, 49
2, 47040, Note_on_c, 0, 58, 0
2, 47040, Note_on_c, 0, 56, 49
2, 47520, Note_on_c, 0, 56, 0
2, 47520, Note_on_c, 0, 73, 62
2, 47640, Note_on_c, 0, 73, 0
2, 47640, Note_on_c, 0, 75, 62
2, 47760, Note_on_c, 0, 75, 0
2, 47760, Note_on_c, 0, 71, 62
2, 48240, Note_on_c, 0, 71, 0
2, 48240, Note_on_c, 0, 75, 62
2, 48263, Note_on_c, 0, 75, 0
2, 48360, Note_on_c, 0, 73, 62
2, 48399, Note_on_c, 0, 73, 0
2, 48399, Note_on_c, 0, 75, 62
2, 48440, Note_on_c, 0, 75, 0
2, 48440, Note_on_c, 0, 73, 62
2, 48480, Note_on_c, 0, 73, 0
2, 48480, Note_on_c, 0, 71, 62
2, 48960, Note_on_c, 0, 71, 0
2, 48960, Note_on_c, 0, 73, 62
2, 49080, Note_on_c, 0, 73, 0
2, 49080, Note_on_c, 0, 75, 62
2, 49200, Note_on_c, 0, 75, 0
2, 49200, Note_on_c, 0, 71, 62
2, 49680, Note_on_c, 0, 71, 0
2, 49680, Note_on_c, 0, 75, 62
2, 49703, Note_on_c, 0, 75, 0
2, 49800, Note_on_c, 0, 73, 62
2, 49839, Note_on_c, 0, 73, 0
2, 49839, Note_on_c, 0, 75, 62
2, 49880, Note_on_c, 0, 75, 0
2, 49880, Note_on_c, 0, 73, 62
2, 49920, Note_on_c, 0, 73, 0
2, 49920, Note_on_c, 0, 71, 62
2, 50400, Note_on_c, 0, 71, 0
2, 50400, Note_on_c, 0, 78, 62
2, 50640, Note_on_c, 0, 78, 0
2, 50640, Note_on_c, 0, 78, 62
2, 50663, Note_on_c, 0, 78, 0
2, 50760, Note_on_c, 0, 78, 62
2, 50783, Note_on_c, 0, 78, 0
2, 50880, Note_on_c, 0, 78, 62
2, 50903, Note_on_c, 0, 78, 0
2, 51000, Note_on_c, 0, 78, 62
2, 51023, Note_on_c, 0, 78, 0
2, 51120, Note_on_c, 0, 83, 62
2, 51143, Note_on_c, 0, 83, 0
2, 51240, Note_on_c, 0, 83, 62
2, 51263, Note_on_c, 0, 83, 0
2, 51360, Note_on_c, 0, 71, 62
2, 51720, Note_on_c, 0, 71, 0
2, 51720, Note_on_c, 0, 73, 62
2, 51840, Note_on_c, 0, 73, 0
2, 51840, Note_on_c, 0, 75, 62
2, 51863, Note_on_c, 0, 75, 0
2, 51960, Note_on_c, 0, 75, 62
2, 51983, Note_on_c, 0, 75, 0
2, 52080, Note_on_c, 0, 68, 62
2, 52440, Note_on_c, 0, 68, 0
2, 52440, Note_on_c, 0, 70, 62
2, 52560, Note_on_c, 0, 70, 0
2, 52560, Note_on_c, 0, 71, 62
2, 52583, Note_on_c, 0, 71, 0
2, 52680, Note_on_c, 0, 71, 62
2, 52703, Note_on_c, 0, 71, 0
2, 52800, Note_on_c, 0, 68, 62
2, 53160, Note_on_c, 0, 68, 0
2, 53160, Note_on_c, 0, 70, 62
2, 53280, Note_on_c, 0, 70, 0
2, 53280, Note_on_c, 0, 71, 62
2, 53303, Note_on_c, 0, 71, 0
2, 53400, Note_on_c, 0, 71, 62
2, 53423, Note_on_c, 0, 71, 0
2, 53520, Note_on_c, 0, 68, 62
2, 53880, Note_on_c, 0, 68, 0
2, 53880, Note_on_c, 0, 70, 62
2, 54000, Note_on_c, 0, 70, 0
2, 54000, Note_on_c, 0, 71, 62
2, 54120, Note_on_c, 0, 71, 0
2, 54120, Note_on_c, 0, 70, 62
2, 54240, Note_on_c, 0, 70, 0
2, 54240, Note_on_c, 0, 71, 62
2, 54360, Note_on_c, 0, 71, 0
2, 54360, Note_on_c, 0, 73, 62
2, 54480, Note_on_c, 0, 73, 0
2, 54480, Note_on_c, 0, 75, 62
2, 54720, Note_on_c, 0, 75, 0
2, 54720, Note_on_c, 0, 73, 62
2, 54840, Note_on_c, 0, 73, 0
2, 54840, Note_on_c, 0, 75, 62
2, 54960, Note_on_c, 0, 75, 0
2, 54960, Note_on_c, 0, 71, 62
2, 55440, Note_on_c, 0, 71, 0
2, 55440, Note_on_c, 0, 75, 62
2, 55463, Note_on_c, 0, 75, 0
2, 55560, Note_on_c, 0, 73, 62
2, 55599, Note_on_c, 0, 73, 0
2, 55599, Note_on_c, 0, 75, 62
2, 55640, Note_on_c, 0, 75, 0
2, 55640, Note_on_c, 0, 73, 62
2, 55680, Note_on_c, 0, 73, 0
2, 55680, Note_on_c, 0, 71, 62
2, 56160, Note_on_c, 0, 71, 0
2, 56160, Note_on_c, 0, 73, 62
2, 56280, Note_on_c, 0, 73, 0
2, 56280, Note_on_c, 0, 75, 62
2, 56400, Note_on_c, 0, 75, 0
2, 56400, Note_on_c, 0, 71, 62
2, 56880, Note_on_c, 0, 71, 0
2, 56880, Note_on_c, 0, 75, 62
2, 56903, Note_on_c, 0, 75, 0
2, 57000, Note_on_c, 0, 73, 62
2, 57039, Note_on_c, 0, 73, 0
2, 57039, Note_on_c, 0, 75, 62
2, 57080, Note_on_c, 0, 75, 0
2, 57080, Note_on_c, 0, 73, 62
2, 57120, Note_on_c, 0, 73, 0
2, 57120, Note_on_c, 0, 71, 62
2, 57600, Note_on_c, 0, 71, 0
2, 57600, Note_on_c, 0, 78, 62
2, 57840, Note_on_c, 0, 78, 0
2, 57840, Note_on_c, 0, 78, 62
2, 57863, Note_on_c, 0, 78, 0
2, 57960, Note_on_c, 0, 78, 62
2, 57983, Note_on_c, 0, 78, 0
2, 58080, Note_on_c, 0, 78, 62
2, 58103, Note_on_c, 0, 78, 0
2, 58200, Note_on_c, 0, 78, 62
2, 58223, Note_on_c, 0, 78, 0
2, 58320, Note_on_c, 0, 83, 62
2, 58343, Note_on_c, 0, 83, 0
2, 58440, Note_on_c, 0, 83, 62
2, 58463, Note_on_c, 0, 83, 0
2, 58560, Note_on_c, 0, 71, 62
2, 58920, Note_on_c, 0, 71, 0
2, 58920, Note_on_c, 0, 73, 62
2, 59040, Note_on_c, 0, 73, 0
2, 59040, Note_on_c, 0, 75, 62
2, 59063, Note_on_c, 0, 75, 0
2, 59160, Note_on_c, 0, 75, 62
2, 59183, Note_on_c, 0, 75, 0
2, 59280, Note_on_c, 0, 68, 62
2, 59640, Note_on_c, 0, 68, 0
2, 59640, Note_on_c, 0, 70, 62
2, 59760, Note_on_c, 0, 70, 0
2, 59760, Note_on_c, 0, 71, 62
2, 59783, Note_on_c, 0, 71, 0
2, 59880, Note_on_c, 0, 71, 62
2, 59903, Note_on_c, 0, 71, 0
2, 60000, Note_on_c, 0, 68, 62
2, 60360, Note_on_c, 0, 68, 0
2, 60360, Note_on_c, 0, 67, 62
2, 60480, Note_on_c, 0, 67, 0
2, 60480, Note_on_c, 0, 68, 62
2, 60503, Note_on_c, 0, 68, 0
2, 60600, Note_on_c, 0, 68, 62
2, 60623, Note_on_c, 0, 68, 0
2, 60720, Note_on_c, 0, 66, 62
2, 61080, Note_on_c, 0, 66, 0
2, 61080, Note_on_c, 0, 65, 62
2, 61200, Note_on_c, 0, 65, 0
2, 61200, Note_on_c, 0, 66, 62
2, 61320, Note_on_c, 0, 66, 0
2, 61320, Note_on_c, 0, 68, 62
2, 61440, Note_on_c, 0, 68, 0
2, 61440, Note_on_c, 0, 70, 62
2, 61680, Note_on_c, 0, 70, 0
2, 61680, Note_on_c, 0, 68, 62
2, 61800, Note_on_c, 0, 68, 0
2, 61800, Note_on_c, 0, 66, 62
2, 61920, Note_on_c, 0, 66, 0
2, 61920, Note_on_c, 0, 75, 62
2, 61943, Note_on_c, 0, 75, 0
2, 62040, Note_on_c, 0, 73, 62
2, 62079, Note_on_c, 0, 73, 0
2, 62079, Note_on_c, 0, 75, 62
2, 62120, Note_on_c, 0, 75, 0
2, 62120, Note_on_c, 0, 73, 62
2, 62160, Note_on_c, 0, 73, 0
2, 62160, Note_on_c, 0, 71, 62
2, 62280, Note_on_c, 0, 71, 0
2, 62280, Note_on_c, 0, 68, 62
2, 62319, Note_on_c, 0, 68, 0
2, 62319, Note_on_c, 0, 70, 62
2, 62360, Note_on_c, 0, 70, 0
2, 62360, Note_on_c, 0, 68, 62
2, 62400, Note_on_c, 0, 68, 0
2, 62400, Note_on_c, 0, 66, 62
2, 62640, Note_on_c, 0, 66, 0
2, 62640, Note_on_c, 0, 73, 62
2, 62760, Note_on_c, 0, 73, 0
2, 62760, Note_on_c, 0, 75, 62
2, 62880, Note_on_c, 0, 75, 0
2, 62880, Note_on_c, 0, 77, 62
2, 63120, Note_on_c, 0, 77, 0
2, 63120, Note_on_c, 0, 75, 62
2, 63240, Note_on_c, 0, 75, 0
2, 63240, Note_on_c, 0, 73, 62
2, 63360, Note_on_c, 0, 73, 0
2, 63360, Note_on_c, 0, 82, 62
2, 63383, Note_on_c, 0, 82, 0
2, 63480, Note_on_c, 0, 80, 62
2, 63519, Note_on_c, 0, 80, 0
2, 63519, Note_on_c, 0, 82, 62
2, 63560, Note_on_c, 0, 82, 0
2, 63560, Note_on_c, 0, 80, 62
2, 63600, Note_on_c, 0, 80, 0
2, 63600, Note_on_c, 0, 78, 62
2, 63720, Note_on_c, 0, 78, 0
2, 63720, Note_on_c, 0, 75, 62
2, 63759, Note_on_c, 0, 75, 0
2, 63759, Note_on_c, 0, 77, 62
2, 63800, Note_on_c, 0, 77, 0
2, 63800, Note_on_c, 0, 75, 62
2, 63840, Note_on_c, 0, 75, 0
2, 63840, Note_on_c, 0, 73, 62
2, 64080, Note_on_c, 0, 73, 0
2, 64080, Note_on_c, 0, 78, 62
2, 64200, Note_on_c, 0, 78, 0
2, 64200, Note_on_c, 0, 80, 62
2, 64320, Note_on_c, 0, 80, 0
2, 64320, Note_on_c, 0, 82, 62
2, 64560, Note_on_c, 0, 82, 0
2, 64560, Note_on_c, 0, 80, 75
2, 64680, Note_on_c, 0, 80, 0
2, 64680, Note_on_c, 0, 78, 75
2, 64800, Note_on_c, 0, 78, 0
2, 64800, Note_on_c, 0, 87, 75
2, 64823, Note_on_c, 0, 87, 0
2, 64920, Note_on_c, 0, 85, 75
2, 64959, Note_on_c, 0, 85, 0
2, 64959, Note_on_c, 0, 87, 75
2, 65000, Note_on_c, 0, 87, 0
2, 65000, Note_on_c, 0, 85, 75
2, 65040, Note_on_c, 0, 85, 0
2, 65040, Note_on_c, 0, 83, 75
2, 65160, Note_on_c, 0, 83, 0
2, 65160, Note_on_c, 0, 80, 75
2, 65199, Note_on_c, 0, 80, 0
2, 65199, Note_on_c, 0, 82, 75
2, 65240, Note_on_c, 0, 82, 0
2, 65240, Note_on_c, 0, 80, 75
2, 65280, Note_on_c, 0, 80, 0
2, 65280, Note_on_c, 0, 78, 75
2, 65520, Note_on_c, 0, 78, 0
2, 65520, Note_on_c, 0, 85, 75
2, 65640, Note_on_c, 0, 85, 0
2, 65640, Note_on_c, 0, 87, 75
2, 65760, Note_on_c, 0, 87, 0
2, 65760, Note_on_c, 0, 89, 75
2, 66000, Note_on_c, 0, 89, 0
2, 66000, Note_on_c, 0, 87, 75
2, 66120, Note_on_c, 0, 87, 0
2, 66120, Note_on_c, 0, 85, 75
2, 66240, Note_on_c, 0, 85, 0
2, 66240, Note_on_c, 0, 94, 75
2, 66263, Note_on_c, 0, 94, 0
2, 66360, Note_on_c, 0, 92, 75
2, 66399, Note_on_c, 0, 92, 0
2, 66399, Note_on_c, 0, 94, 75
2, 66440, Note_on_c, 0, 94, 0
2, 66440, Note_on_c, 0, 92, 75
2, 66480, Note_on_c, 0, 92, 0
2, 66480, Note_on_c, 0, 90, 75
2, 66600, Note_on_c, 0, 90, 0
2, 66600, Note_on_c, 0, 87, 75
2, 66639, Note_on_c, 0, 87, 0
2, 66639, Note_on_c, 0, 89, 75
2, 66680, Note_on_c, 0, 89, 0
2, 66680, Note_on_c, 0, 87, 75
2, 66720, Note_on_c, 0, 87, 0
2, 66720, Note_on_c, 0, 85, 75
2, 66960, Note_on_c, 0, 85, 0
2, 66960, Note_on_c, 0, 85, 75
2, 67080, Note_on_c, 0, 85, 0
2, 67080, Note_on_c, 0, 87, 75
2, 67200, Note_on_c, 0, 87, 0
2, 67200, Note_on_c, 0, 89, 75
2, 67440, Note_on_c, 0, 89, 0
2, 67440, Note_on_c, 0, 87, 75
2, 67560, Note_on_c, 0, 87, 0
2, 67560, Note_on_c, 0, 85, 75
2, 67680, Note_on_c, 0, 85, 0
2, 67680, Note_on_c, 0, 94, 75
2, 67703, Note_on_c, 0, 94, 0
2, 67800, Note_on_c, 0, 92, 75
2, 67839, Note_on_c, 0, 92, 0
2, 67839, Note_on_c, 0, 94, 75
2, 67880, Note_on_c, 0, 94, 0
2, 67880, Note_on_c, 0, 92, 75
2, 67920, Note_on_c, 0, 92, 0
2, 67920, Note_on_c, 0, 90, 75
2, 67943, Note_on_c, 0, 90, 0
2, 68040, Note_on_c, 0, 87, 75
2, 68079, Note_on_c, 0, 87, 0
2, 68079, Note_on_c, 0, 89, 75
2, 68120, Note_on_c, 0, 89, 0
2, 68120, Note_on_c, 0, 87, 75
2, 68160, Note_on_c, 0, 87, 0
2, 68160, Note_on_c, 0, 85, 75
2, 68183, Note_on_c, 0, 85, 0
2, 68280, Note_on_c, 0, 82, 75
2, 68319, Note_on_c, 0, 82, 0
2, 68319, Note_on_c, 0, 83, 75
2, 68360, Note_on_c, 0, 83, 0
2, 68360, Note_on_c, 0, 82, 75
2, 68400, Note_on_c, 0, 82, 0
2, 68400, Note_on_c, 0, 80, 75
2, 68423, Note_on_c, 0, 80, 0
2, 68520, Note_on_c, 0, 78, 75
2, 68559, Note_on_c, 0, 78, 0
2, 68559, Note_on_c, 0, 80, 75
2, 68600, Note_on_c, 0, 80, 0
2, 68600, Note_on_c, 0, 78, 75
2, 68640, Note_on_c, 0, 78, 0
2, 68640, Note_on_c, 0, 75, 75
2, 68663, Note_on_c, 0, 75, 0
2, 68760, Note_on_c, 0, 73, 75
2, 68799, Note_on_c, 0, 73, 0
2, 68799, Note_on_c, 0, 75, 75
2, 68840, Note_on_c, 0, 75, 0
2, 68840, Note_on_c, 0, 73, 75
2, 68880, Note_on_c, 0, 73, 0
2, 68880, Note_on_c, 0, 72, 75
2, 69000, Note_on_c, 0, 72, 0
2, 69000, Note_on_c, 0, 73, 75
2, 69120, Note_on_c, 0, 73, 0
2, 69120, Note_on_c, 0, 82, 62
2, 69143, Note_on_c, 0, 82, 0
2, 69240, Note_on_c, 0, 80, 62
2, 69279, Note_on_c, 0, 80, 0
2, 69279, Note_on_c, 0, 82, 62
2, 69320, Note_on_c, 0, 82, 0
2, 69320, Note_on_c, 0, 80, 62
2, 69360, Note_on_c, 0, 80, 0
2, 69360, Note_on_c, 0, 78, 62
2, 69383, Note_on_c, 0, 78, 0
2, 69480, Note_on_c, 0, 75, 62
2, 69519, Note_on_c, 0, 75, 0
2, 69519, Note_on_c, 0, 77, 62
2, 69560, Note_on_c, 0, 77, 0
2, 69560, Note_on_c, 0, 75, 62
2, 69600, Note_on_c, 0, 75, 0
2, 69600, Note_on_c, 0, 73, 62
2, 69623, Note_on_c, 0, 73, 0
2, 69720, Note_on_c, 0, 70, 62
2, 69759, Note_on_c, 0, 70, 0
2, 69759, Note_on_c, 0, 71, 62
2, 69800, Note_on_c, 0, 71, 0
2, 69800, Note_on_c, 0, 70, 62
2, 69840, Note_on_c, 0, 70, 0
2, 70560, Note_on_c, 0, 73, 62
2, 70680, Note_on_c, 0, 73, 0
2, 70680, Note_on_c, 0, 75, 62
2, 70800, Note_on_c, 0, 75, 0
2, 70800, Note_on_c, 0, 71, 62
2, 71280, Note_on_c, 0, 71, 0
2, 71280, Note_on_c, 0, 75, 62
2, 71303, Note_on_c, 0, 75, 0
2, 71400, Note_on_c, 0, 73, 62
2, 71439, Note_on_c, 0, 73, 0
2, 71439, Note_on_c, 0, 75, 62
2, 71480, Note_on_c, 0, 75, 0
2, 71480, Note_on_c, 0, 73, 62
2, 71520, Note_on_c, 0, 73, 0
2, 71520, Note_on_c, 0, 71, 62
2, 72000, Note_on_c, 0, 71, 0
2, 72000, Note_on_c, 0, 73, 62
2, 72120, Note_on_c, 0, 73, 0
2, 72120, Note_on_c, 0, 75, 62
2, 72240, Note_on_c, 0, 75, 0
2, 72240, Note_on_c, 0, 71, 62
2, 72720, Note_on_c, 0, 71, 0
2, 72720, Note_on_c, 0, 75, 62
2, 72743, Note_on_c, 0, 75, 0
2, 72840, Note_on_c, 0, 73, 62
2, 72879, Note_on_c, 0, 73, 0
2, 72879, Note_on_c, 0, 75, 62
2, 72920, Note_on_c, 0, 75, 0
2, 72920, Note_on_c, 0, 73, 62
2, 72960, Note_on_c, 0, 73, 0
2, 72960, Note_on_c, 0, 71, 62
2, 73440, Note_on_c, 0, 71, 0
2, 73440, Note_on_c, 0, 78, 62
2, 73680, Note_on_c, 0, 78, 0
2, 73680, Note_on_c, 0, 78, 62
2, 73703, Note_on_c, 0, 78, 0
2, 73800, Note_on_c, 0, 78, 62
2, 73823, Note_on_c, 0, 78, 0
2, 73920, Note_on_c, 0, 78, 62
2, 73943, Note_on_c, 0, 78, 0
2, 74040, Note_on_c, 0, 78, 62
2, 74063, Note_on_c, 0, 78, 0
2, 74160, Note_on_c, 0, 83, 62
2, 74183, Note_on_c, 0, 83, 0
2, 74280, Note_on_c, 0, 83, 62
2, 74303, Note_on_c, 0, 83, 0
2, 74400, Note_on_c, 0, 71, 62
2, 74760, Note_on_c, 0, 71, 0
2, 74760, Note_on_c, 0, 73, 62
2, 74880, Note_on_c, 0, 73, 0
2, 74880, Note_on_c, 0, 75, 62
2, 74903, Note_on_c, 0, 75, 0
2, 75000, Note_on_c, 0, 75, 62
2, 75023, Note_on_c, 0, 75, 0
2, 75120, Note_on_c, 0, 68, 62
2, 75480, Note_on_c, 0, 68, 0
2, 75480, Note_on_c, 0, 70, 62
2, 75600, Note_on_c, 0, 70, 0
2, 75600, Note_on_c, 0, 71, 62
2, 75623, Note_on_c, 0, 71, 0
2, 75720, Note_on_c, 0, 71, 62
2, 75743, Note_on_c, 0, 71, 0
2, 75840, Note_on_c, 0, 68, 62
2, 76200, Note_on_c, 0, 68, 0
2, 76200, Note_on_c, 0, 70, 62
2, 76320, Note_on_c, 0, 70, 0
2, 76320, Note_on_c, 0, 71, 62
2, 76343, Note_on_c, 0, 71, 0
2, 76440, Note_on_c, 0, 71, 62
2, 76463, Note_on_c, 0, 71, 0
2, 76560, Note_on_c, 0, 68, 62
2, 76920, Note_on_c, 0, 68, 0
2, 76920, Note_on_c, 0, 70, 62
2, 77040, Note_on_c, 0, 70, 0
2, 77040, Note_on_c, 0, 71, 62
2, 77160, Note_on_c, 0, 71, 0
2, 77160, Note_on_c, 0, 70, 62
2, 77280, Note_on_c, 0, 70, 0
2, 77280, Note_on_c, 0, 71, 62
2, 77400, Note_on_c, 0, 71, 0
2, 77400, Note_on_c, 0, 73, 62
2, 77520, Note_on_c, 0, 73, 0
2, 77520, Note_on_c, 0, 75, 62
2, 77760, Note_on_c, 0, 75, 0
2, 77760, Note_on_c, 0, 73, 62
2, 77880, Note_on_c, 0, 73, 0
2, 77880, Note_on_c, 0, 75, 62
2, 78000, Note_on_c, 0, 75, 0
2, 78000, Note_on_c, 0, 71, 62
2, 78480, Note_on_c, 0, 71, 0
2, 78480, Note_on_c, 0, 75, 62
2, 78503, Note_on_c, 0, 75, 0
2, 78600, Note_on_c, 0, 73, 62
2, 78639, Note_on_c, 0, 73, 0
2, 78639, Note_on_c, 0, 75, 62
2, 78680, Note_on_c, 0, 75, 0
2, 78680, Note_on_c, 0, 73, 62
2, 78720, Note_on_c, 0, 73, 0
2, 78720, Note_on_c, 0, 71, 62
2, 79200, Note_on_c, 0, 71, 0
2, 79200, Note_on_c, 0, 73, 62
2, 79320, Note_on_c, 0, 73, 0
2, 79320, Note_on_c, 0, 75, 62
2, 79440, Note_on_c, 0, 75, 0
2, 79440, Note_on_c, 0, 71, 62
2, 79920, Note_on_c, 0, 71, 0
2, 79920, Note_on_c, 0, 75, 62
2, 79943, Note_on_c, 0, 75, 0
2, 80040, Note_on_c, 0, 73, 62
2, 80079, Note_on_c, 0, 73, 0
2, 80079, Note_on_c, 0, 75, 62
2, 80120, Note_on_c, 0, 75, 0
2, 80120, Note_on_c, 0, 73, 62
2, 80160, Note_on_c, 0, 73, 0
2, 80160, Note_on_c, 0, 71, 62
2, 80640, Note_on_c, 0, 71, 0
2, 80640, Note_on_c, 0, 78, 62
2, 80880, Note_on_c, 0, 78, 0
2, 80880, Note_on_c, 0, 78, 62
2, 80903, Note_on_c, 0, 78, 0
2, 81000, Note_on_c, 0, 78, 62
2, 81023, Note_on_c, 0, 78, 0
2, 81120, Note_on_c, 0, 78, 62
2, 81143, Note_on_c, 0, 78, 0
2, 81240, Note_on_c, 0, 78, 62
2, 81263, Note_on_c, 0, 78, 0
2, 81360, Note_on_c, 0, 83, 62
2, 81383, Note_on_c, 0, 83, 0
2, 81480, Note_on_c, 0, 83, 62
2, 81503, Note_on_c, 0, 83, 0
2, 81600, Note_on_c, 0, 71, 62
2, 81960, Note_on_c, 0, 71, 0
2, 81960, Note_on_c, 0, 73, 62
2, 82080, Note_on_c, 0, 73, 0
2, 82080, Note_on_c, 0, 75, 62
2, 82103, Note_on_c, 0, 75, 0
2, 82200, Note_on_c, 0, 75, 62
2, 82223, Note_on_c, 0, 75, 0
2, 82320, Note_on_c, 0, 68, 62
2, 82680, Note_on_c, 0, 68, 0
2, 82680, Note_on_c, 0, 70, 62
2, 82800, Note_on_c, 0, 70, 0
2, 82800, Note_on_c, 0, 71, 62
2, 82823, Note_on_c, 0, 71, 0
2, 82920, Note_on_c, 0, 71, 62
2, 82943, Note_on_c, 0, 71, 0
2, 83040, Note_on_c, 0, 66, 62
2, 83400, Note_on_c, 0, 66, 0
2, 83400, Note_on_c, 0, 65, 62
2, 83520, Note_on_c, 0, 65, 0
2, 83520, Note_on_c, 0, 70, 62
2, 83543, Note_on_c, 0, 70, 0
2, 83640, Note_on_c, 0, 70, 62
2, 83663, Note_on_c, 0, 70, 0
2, 83760, Note_on_c, 0, 65, 62
2, 84120, Note_on_c, 0, 65, 0
2, 84120, Note_on_c, 0, 63, 62
2, 84240, Note_on_c, 0, 63, 0
2, 84240, Note_on_c, 0, 68, 62
2, 84263, Note_on_c, 0, 68, 0
2, 84360, Note_on_c, 0, 68, 62
2, 84399, Note_on_c, 0, 68, 0
2, 84399, Note_on_c, 0, 70, 62
2, 84440, Note_on_c, 0, 70, 0
2, 84440, Note_on_c, 0, 68, 62
2, 84480, Note_on_c, 0, 68, 0
2, 84480, Note_on_c, 0, 63, 62
2, 84600, Note_on_c, 0, 63, 0
2, 84600, Note_on_c, 0, 62, 62
2, 84840, Note_on_c, 0, 62, 0
2, 84840, Note_on_c, 0, 62, 62
2, 84960, Note_on_c, 0, 62, 0
2, 84960, Note_on_c, 0, 63, 62
2, 85080, Note_on_c, 0, 63, 0
2, 85080, Note_on_c, 0, 65, 62
2, 85200, Note_on_c, 0, 65, 0
2, 85200, Note_on_c, 0, 67, 62
2, 85440, Note_on_c, 0, 67, 0
2, 85440, Note_on_c, 0, 65, 62
2, 85560, Note_on_c, 0, 65, 0
2, 85560, Note_on_c, 0, 63, 62
2, 85680, Note_on_c, 0, 63, 0
2, 85680, Note_on_c, 0, 71, 62
2, 85703, Note_on_c, 0, 71, 0
2, 85800, Note_on_c, 0, 70, 62
2, 85839, Note_on_c, 0, 70, 0
2, 85839, Note_on_c, 0, 71, 62
2, 85880, Note_on_c, 0, 71, 0
2, 85880, Note_on_c, 0, 70, 62
2, 85920, Note_on_c, 0, 70, 0
2, 85920, Note_on_c, 0, 66, 62
2, 86040, Note_on_c, 0, 66, 0
2, 86040, Note_on_c, 0, 64, 62
2, 86079, Note_on_c, 0, 64, 0
2, 86079, Note_on_c, 0, 66, 62
2, 86120, Note_on_c, 0, 66, 0
2, 86120, Note_on_c, 0, 64, 62
2, 86160, Note_on_c, 0, 64, 0
2, 86160, Note_on_c, 0, 63, 62
2, 86400, Note_on_c, 0, 63, 0
2, 86400, Note_on_c, 0, 70, 62
2, 86520, Note_on_c, 0, 70, 0
2, 86520, Note_on_c, 0, 72, 62
2, 86640, Note_on_c, 0, 72, 0
2, 86640, Note_on_c, 0, 74, 62
2, 86880, Note_on_c, 0, 74, 0
2, 86880, Note_on_c, 0, 72, 62
2, 87000, Note_on_c, 0, 72, 0
2, 87000, Note_on_c, 0, 70, 62
2, 87120, Note_on_c, 0, 70, 0
2, 87120, Note_on_c, 0, 79, 62
2, 87143, Note_on_c, 0, 79, 0
2, 87240, Note_on_c, 0, 77, 62
2, 87279, Note_on_c, 0, 77, 0
2, 87279, Note_on_c, 0, 79, 62
2, 87320, Note_on_c, 0, 79, 0
2, 87320, Note_on_c, 0, 77, 62
2, 87360, Note_on_c, 0, 77, 0
2, 87360, Note_on_c, 0, 75, 62
2, 87480, Note_on_c, 0, 75, 0
2, 87480, Note_on_c, 0, 71, 62
2, 87519, Note_on_c, 0, 71, 0
2, 87519, Note_on_c, 0, 73, 62
2, 87560, Note_on_c, 0, 73, 0
2, 87560, Note_on_c, 0, 71, 62
2, 87600, Note_on_c, 0, 71, 0
2, 87600, Note_on_c, 0, 70, 62
2, 87840, Note_on_c, 0, 70, 0
2, 87840, Note_on_c, 0, 75, 62
2, 87960, Note_on_c, 0, 75, 0
2, 87960, Note_on_c, 0, 77, 62
2, 88080, Note_on_c, 0, 77, 0
2, 88080, Note_on_c, 0, 79, 62
2, 88320, Note_on_c, 0, 79, 0
2, 88320, Note_on_c, 0, 77, 62
2, 88440, Note_on_c, 0, 77, 0
2, 88440, Note_on_c, 0, 75, 62
2, 88560, Note_on_c, 0, 75, 0
2, 88560, Note_on_c, 0, 83, 62
2, 88583, Note_on_c, 0, 83, 0
2, 88680, Note_on_c, 0, 82, 62
2, 88719, Note_on_c, 0, 82, 0
2, 88719, Note_on_c, 0, 83, 62
2, 88760, Note_on_c, 0, 83, 0
2, 88760, Note_on_c, 0, 82, 62
2, 88800, Note_on_c, 0, 82, 0
2, 88800, Note_on_c, 0, 78, 62
2, 88920, Note_on_c, 0, 78, 0
2, 88920, Note_on_c, 0, 76, 62
2, 88959, Note_on_c, 0, 76, 0
2, 88959, Note_on_c, 0, 78, 62
2, 89000, Note_on_c, 0, 78, 0
2, 89000, Note_on_c, 0, 76, 62
2, 89040, Note_on_c, 0, 76, 0
2, 89040, Note_on_c, 0, 75, 62
2, 89280, Note_on_c, 0, 75, 0
2, 89280, Note_on_c, 0, 82, 62
2, 89400, Note_on_c, 0, 82, 0
2, 89400, Note_on_c, 0, 84, 62
2, 89520, Note_on_c, 0, 84, 0
2, 89520, Note_on_c, 0, 86, 62
2, 89760, Note_on_c, 0, 86, 0
2, 89760, Note_on_c, 0, 84, 62
2, 89880, Note_on_c, 0, 84, 0
2, 89880, Note_on_c, 0, 82, 62
2, 90000, Note_on_c, 0, 82, 0
2, 90000, Note_on_c, 0, 91, 62
2, 90023, Note_on_c, 0, 91, 0
2, 90120, Note_on_c, 0, 89, 62
2, 90159, Note_on_c, 0, 89, 0
2, 90159, Note_on_c, 0, 91, 62
2, 90200, Note_on_c, 0, 91, 0
2, 90200, Note_on_c, 0, 89, 62
2, 90240, Note_on_c, 0, 89, 0
2, 90240, Note_on_c, 0, 87, 62
2, 90360, Note_on_c, 0, 87, 0
2, 90360, Note_on_c, 0, 83, 62
2, 90399, Note_on_c, 0, 83, 0
2, 90399, Note_on_c, 0, 85, 62
2, 90440, Note_on_c, 0, 85, 0
2, 90440, Note_on_c, 0, 83, 62
2, 90480, Note_on_c, 0, 83, 0
2, 90480, Note_on_c, 0, 82, 62
2, 90720, Note_on_c, 0, 82, 0
2, 90720, Note_on_c, 0, 82, 62
2, 90840, Note_on_c, 0, 82, 0
2, 90840, Note_on_c, 0, 84, 62
2, 90960, Note_on_c, 0, 84, 0
2, 90960, Note_on_c, 0, 86, 62
2, 91200, Note_on_c, 0, 86, 0
2, 91200, Note_on_c, 0, 84, 62
2, 91320, Note_on_c, 0, 84, 0
2, 91320, Note_on_c, 0, 82, 62
2, 91440, Note_on_c, 0, 82, 0
2, 91440, Note_on_c, 0, 91, 62
2, 91463, Note_on_c, 0, 91, 0
2, 91560, Note_on_c, 0, 89, 62
2, 91599, Note_on_c, 0, 89, 0
2, 91599, Note_on_c, 0, 91, 62
2, 91640, Note_on_c, 0, 91, 0
2, 91640, Note_on_c, 0, 89, 62
2, 91680, Note_on_c, 0, 89, 0
2, 91680, Note_on_c, 0, 87, 62
2, 91800, Note_on_c, 0, 87, 0
2, 91800, Note_on_c, 0, 83, 62
2, 91839, Note_on_c, 0, 83, 0
2, 91839, Note_on_c, 0, 85, 62
2, 91880, Note_on_c, 0, 85, 0
2, 91880, Note_on_c, 0, 83, 62
2, 91920, Note_on_c, 0, 83, 0
2, 91920, Note_on_c, 0, 82, 62
2, 92040, Note_on_c, 0, 82, 0
2, 92040, Note_on_c, 0, 79, 62
2, 92079, Note_on_c, 0, 79, 0
2, 92079, Note_on_c, 0, 80, 62
2, 92120, Note_on_c, 0, 80, 0
2, 92120, Note_on_c, 0, 79, 62
2, 92160, Note_on_c, 0, 79, 0
2, 92160, Note_on_c, 0, 77, 62
2, 92183, Note_on_c, 0, 77, 0
2, 92280, Note_on_c, 0, 75, 62
2, 92319, Note_on_c, 0, 75, 0
2, 92319, Note_on_c, 0, 77, 62
2, 92360, Note_on_c, 0, 77, 0
2, 92360, Note_on_c, 0, 75, 62
2, 92400, Note_on_c, 0, 75, 0
2, 92400, Note_on_c, 0, 71, 62
2, 92423, Note_on_c, 0, 71, 0
2, 92520, Note_on_c, 0, 70, 62
2, 92559, Note_on_c, 0, 70, 0
2, 92559, Note_on_c, 0, 71, 62
2, 92600, Note_on_c, 0, 71, 0
2, 92600, Note_on_c, 0, 70, 62
2, 92640, Note_on_c, 0, 70, 0
2, 92640, Note_on_c, 0, 69, 62
2, 92760, Note_on_c, 0, 69, 0
2, 92760, Note_on_c, 0, 70, 62
2, 92880, Note_on_c, 0, 70, 0
2, 92880, Note_on_c, 0, 79, 49
2, 92903, Note_on_c, 0, 79, 0
2, 93000, Note_on_c, 0, 77, 49
2, 93039, Note_on_c, 0, 77, 0
2, 93039, Note_on_c, 0, 79, 49
2, 93080, Note_on_c, 0, 79, 0
2, 93080, Note_on_c, 0, 77, 49
2, 93120, Note_on_c, 0, 77, 0
2, 93120, Note_on_c, 0, 75, 49
2, 93143, Note_on_c, 0, 75, 0
2, 93240, Note_on_c, 0, 71, 49
2, 93279, Note_on_c, 0, 71, 0
2, 93279, Note_on_c, 0, 73, 49
2, 93320, Note_on_c, 0, 73, 0
2, 93320, Note_on_c, 0, 71, 49
2, 93360, Note_on_c, 0, 71, 0
2, 93360, Note_on_c, 0, 70, 49
2, 93383, Note_on_c, 0, 70, 0
2, 93480, Note_on_c, 0, 67, 49
2, 93519, Note_on_c, 0, 67, 0
2, 93519, Note_on_c, 0, 68, 49
2, 93560, Note_on_c, 0, 68, 0
2, 93560, Note_on_c, 0, 67, 49
2, 93600, Note_on_c, 0, 67, 0
2, 93600, Note_on_c, 0, 65, 49
2, 93623, Note_on_c, 0, 65, 0
2, 93720, Note_on_c, 0, 63, 49
2, 93759, Note_on_c, 0, 63, 0
2, 93759, Note_on_c, 0, 65, 49
2, 93800, Note_on_c, 0, 65, 0
2, 93800, Note_on_c, 0, 63, 49
2, 93840, Note_on_c, 0, 63, 0
2, 93840, Note_on_c, 0, 59, 49
2, 93863, Note_on_c, 0, 59, 0
2, 93960, Note_on_c, 0, 58, 49
2, 93999, Note_on_c, 0, 58, 0
2, 93999, Note_on_c, 0, 59, 49
2, 94040, Note_on_c, 0, 59, 0
2, 94040, Note_on_c, 0, 58, 49
2, 94080, Note_on_c, 0, 58, 0
2, 94080, Note_on_c, 0, 57, 49
2, 94200, Note_on_c, 0, 57, 0
2, 94200, Note_on_c, 0, 58, 49
2, 94320, Note_on_c, 0, 58, 0
2, 94320, Note_on_c, 0, 63, 62
2, 95040, Note_on_c, 0, 63, 0
2, 95040, Note_on_c, 0, 62, 62
2, 95760, Note_on_c, 0, 62, 0
2, 95760, Note_on_c, 0, 63, 62
2, 96480, Note_on_c, 0, 63, 0
2, 96480, Note_on_c, 0, 62, 62
2, 97200, Note_on_c, 0, 62, 0
2, 97200, Note_on_c, 0, 63, 62
2, 97920, Note_on_c, 0, 63, 0
2, 97920, Note_on_c, 0, 64, 62
2, 98040, Note_on_c, 0, 64, 0
2, 98040, Note_on_c, 0, 63, 62
2, 98160, Note_on_c, 0, 63, 0
2, 98160, Note_on_c, 0, 62, 62
2, 98640, Note_on_c, 0, 62, 0
2, 98640, Note_on_c, 0, 63, 62
2, 98880, Note_on_c, 0, 63, 0
2, 98880, Note_on_c, 0, 68, 62
2, 99360, Note_on_c, 0, 68, 0
2, 99360, Note_on_c, 0, 63, 62
2, 99600, Note_on_c, 0, 63, 0
2, 99600, Note_on_c, 0, 62, 62
2, 100080, Note_on_c, 0, 62, 0
2, 100080, Note_on_c, 0, 63, 62
2, 100320, Note_on_c, 0, 63, 0
2, 100320, Note_on_c, 0, 62, 62
2, 100440, Note_on_c, 0, 62, 0
2, 100440, Note_on_c, 0, 63, 62
2, 100500, Note_on_c, 0, 63, 0
2, 100500, Note_on_c, 0, 62, 62
2, 100560, Note_on_c, 0, 62, 0
2, 100560, Note_on_c, 0, 59, 62
2, 100800, Note_on_c, 0, 59, 0
2, 100800, Note_on_c, 0, 58, 62
2, 101040, Note_on_c, 0, 58, 0
2, 101040, Note_on_c, 0, 56, 62
2, 101520, Note_on_c, 0, 56, 0
2, 101520, Note_on_c, 0, 63, 62
2, 102360, Note_on_c, 0, 63, 0
2, 102360, Control_c, 0, 64, 127
2, 102360, Note_on_c, 0, 58, 62
2, 102480, Note_on_c, 0, 58, 0
2, 102480, Note_on_c, 0, 59, 62
2, 102600, Note_on_c, 0, 59, 0
2, 102600, Note_on_c, 0, 61, 75
2, 102720, Note_on_c, 0, 61, 0
2, 102720, Note_on_c, 0, 63, 75
2, 102840, Note_on_c, 0, 63, 0
2, 102840, Control_c, 0, 64, 0
2, 102840, Note_on_c, 0, 64, 75
2, 102960, Note_on_c, 0, 64, 0
2, 102960, Control_c, 0, 64, 127
2, 102960, Note_on_c, 0, 66, 75
2, 103080, Note_on_c, 0, 66, 0
2, 103080, Note_on_c, 0, 68, 75
2, 103140, Note_on_c, 0, 68, 0
2, 103140, Note_on_c, 0, 66, 75
2, 103200, Note_on_c, 0, 66, 0
2, 103200, Note_on_c, 0, 64, 75
2, 103320, Note_on_c, 0, 64, 0
2, 103320, Control_c, 0, 64, 0
2, 103320, Note_on_c, 0, 63, 75
2, 103680, Note_on_c, 0, 63, 0
2, 103680, Note_on_c, 0, 64, 75
2, 103920, Note_on_c, 0, 64, 0
2, 103920, Note_on_c, 0, 62, 75
2, 104400, Note_on_c, 0, 62, 0
2, 104400, Control_c, 0, 64, 127
2, 104400, Note_on_c, 0, 66, 75
2, 104520, Note_on_c, 0, 66, 0
2, 104520, Note_on_c, 0, 68, 75
2, 104580, Note_on_c, 0, 68, 0
2, 104580, Note_on_c, 0, 66, 75
2, 104640, Note_on_c, 0, 66, 0
2, 104640, Note_on_c, 0, 64, 75
2, 104760, Note_on_c, 0, 64, 0
2, 104760, Control_c, 0, 64, 0
2, 104760, Note_on_c, 0, 63, 75
2, 105120, Note_on_c, 0, 63, 0
2, 105120, Note_on_c, 0, 64, 75
2, 105360, Note_on_c, 0, 64, 0
2, 105360, Note_on_c, 0, 62, 75
2, 105840, Note_on_c, 0, 62, 0
2, 105840, Note_on_c, 0, 63, 75
2, 105960, Note_on_c, 0, 63, 0
2, 105960, Note_on_c, 0, 64, 75
2, 106020, Note_on_c, 0, 64, 0
2, 106020, Note_on_c, 0, 63, 75
2, 106080, Note_on_c, 0, 63, 0
2, 106080, Note_on_c, 0, 62, 75
2, 106200, Note_on_c, 0, 62, 0
2, 106200, Note_on_c, 0, 63, 75
2, 106320, Note_on_c, 0, 63, 0
2, 106320, Note_on_c, 0, 71, 75
2, 106560, Note_on_c, 0, 71, 0
2, 106560, Note_on_c, 0, 73, 75
2, 106800, Note_on_c, 0, 73, 0
2, 106800, Note_on_c, 0, 75, 75
2, 107040, Note_on_c, 0, 75, 0
2, 107040, Note_on_c, 0, 63, 75
2, 107160, Note_on_c, 0, 63, 0
2, 107160, Note_on_c, 0, 64, 75
2, 107280, Note_on_c, 0, 64, 0
2, 107280, Control_c, 0, 64, 127
2, 107280, Note_on_c, 0, 66, 75
2, 107400, Note_on_c, 0, 66, 0
2, 107400, Note_on_c, 0, 68, 75
2, 107460, Note_on_c, 0, 68, 0
2, 107460, Note_on_c, 0, 66, 75
2, 107520, Note_on_c, 0, 66, 0
2, 107520, Note_on_c, 0, 64, 75
2, 107640, Note_on_c, 0, 64, 0
2, 107640, Note_on_c, 0, 63, 75
2, 107760, Note_on_c, 0, 63, 0
2, 107760, Note_on_c, 0, 71, 75
2, 108000, Note_on_c, 0, 71, 0
2, 108000, Note_on_c, 0, 73, 75
2, 108240, Note_on_c, 0, 73, 0
2, 108240, Control_c, 0, 64, 0
2, 108240, Note_on_c, 0, 75, 75
2, 108480, Note_on_c, 0, 75, 0
2, 108480, Control_c, 0, 64, 127
2, 108480, Note_on_c, 0, 63, 75
2, 108600, Note_on_c, 0, 63, 0
2, 108600, Note_on_c, 0, 64, 75
2, 108720, Note_on_c, 0, 64, 0
2, 108720, Note_on_c, 0, 66, 75
2, 108840, Note_on_c, 0, 66, 0
2, 108840, Note_on_c, 0, 68, 75
2, 108900, Note_on_c, 0, 68, 0
2, 108900, Note_on_c, 0, 66, 75
2, 108960, Note_on_c, 0, 66, 0
2, 108960, Note_on_c, 0, 64, 75
2, 109080, Note_on_c, 0, 64, 0
2, 109080, Note_on_c, 0, 63, 75
2, 109200, Note_on_c, 0, 63, 0
2, 109200, Note_on_c, 0, 71, 75
2, 109440, Note_on_c, 0, 71, 0
2, 109440, Note_on_c, 0, 73, 75
2, 109680, Note_on_c, 0, 73, 0
2, 109680, Note_on_c, 0, 75, 75
2, 109920, Note_on_c, 0, 75, 0
2, 109920, Control_c, 0, 64, 0
2, 109920, Note_on_c, 0, 77, 75
2, 110160, Note_on_c, 0, 77, 0
2, 110160, Note_on_c, 0, 78, 75
2, 110400, Note_on_c, 0, 78, 0
2, 110400, Note_on_c, 0, 80, 75
2, 110640, Note_on_c, 0, 80, 0
2, 110640, Note_on_c, 0, 82, 75
2, 110880, Note_on_c, 0, 82, 0
2, 110880, Note_on_c, 0, 80, 75
2, 111120, Note_on_c, 0, 80, 0
2, 111120, Note_on_c, 0, 82, 75
2, 111360, Note_on_c, 0, 82, 0
2, 111360, Note_on_c, 0, 75, 75
2, 111600, Note_on_c, 0, 75, 0
2, 111720, Note_on_c, 0, 73, 75
2, 111743, Note_on_c, 0, 73, 0
2, 111840, Note_on_c, 0, 80, 75
2, 111887, Note_on_c, 0, 80, 0
2, 112080, Note_on_c, 0, 64, 75
2, 112080, Note_on_c, 0, 68, 75
2, 112080, Note_on_c, 0, 73, 75
2, 112320, Note_on_c, 0, 73, 0
2, 112320, Note_on_c, 0, 68, 0
2, 112320, Note_on_c, 0, 64, 0
2, 112440, Note_on_c, 0, 78, 75
2, 112500, Note_on_c, 0, 78, 0
2, 112500, Note_on_c, 0, 80, 75
2, 112530, Note_on_c, 0, 80, 0
2, 112530, Note_on_c, 0, 78, 75
2, 112560, Note_on_c, 0, 78, 0
2, 112560, Note_on_c, 0, 76, 75
2, 112680, Note_on_c, 0, 76, 0
2, 112680, Note_on_c, 0, 75, 75
2, 112800, Note_on_c, 0, 75, 0
2, 112800, Note_on_c, 0, 73, 75
2, 112920, Note_on_c, 0, 73, 0
2, 112920, Note_on_c, 0, 71, 75
2, 113040, Note_on_c, 0, 71, 0
2, 113040, Note_on_c, 0, 70, 75
2, 113160, Note_on_c, 0, 70, 0
2, 113160, Note_on_c, 0, 71, 75
2, 113280, Note_on_c, 0, 71, 0
2, 113280, Note_on_c, 0, 70, 75
2, 113303, Note_on_c, 0, 70, 0
2, 113400, Note_on_c, 0, 68, 75
2, 113423, Note_on_c, 0, 68, 0
2, 113520, Note_on_c, 0, 67, 75
2, 113640, Note_on_c, 0, 67, 0
2, 113640, Note_on_c, 0, 70, 75
2, 113760, Note_on_c, 0, 70, 0
2, 113760, Note_on_c, 0, 64, 75
2, 114000, Note_on_c, 0, 64, 0
2, 114000, Note_on_c, 0, 63, 75
2, 114120, Note_on_c, 0, 63, 0
2, 114120, Note_on_c, 0, 62, 75
2, 114240, Note_on_c, 0, 62, 0
2, 114240, Note_on_c, 0, 63, 75
2, 114480, Note_on_c, 0, 63, 0
2, 114600, Note_on_c, 0, 73, 75
2, 114623, Note_on_c, 0, 73, 0
2, 114720, Note_on_c, 0, 80, 75
2, 114767, Note_on_c, 0, 80, 0
2, 114960, Note_on_c, 0, 64, 75
2, 114960, Note_on_c, 0, 68, 75
2, 114960, Note_on_c, 0, 73, 75
2, 115200, Note_on_c, 0, 73, 0
2, 115200, Note_on_c, 0, 68, 0
2, 115200, Note_on_c, 0, 64, 0
2, 115320, Control_c, 0, 64, 127
2, 115320, Note_on_c, 0, 78, 75
2, 115380, Note_on_c, 0, 78, 0
2, 115380, Note_on_c, 0, 80, 75
2, 115410, Note_on_c, 0, 80, 0
2, 115410, Note_on_c, 0, 78, 75
2, 115440, Note_on_c, 0, 78, 0
2, 115440, Note_on_c, 0, 76, 75
2, 115560, Note_on_c, 0, 76, 0
2, 115560, Note_on_c, 0, 75, 75
2, 115680, Note_on_c, 0, 75, 0
2, 115680, Note_on_c, 0, 73, 75
2, 115800, Note_on_c, 0, 73, 0
2, 115800, Control_c, 0, 64, 0
2, 115800, Note_on_c, 0, 71, 75
2, 115920, Note_on_c, 0, 71, 0
2, 115920, Note_on_c, 0, 70, 75
2, 116040, Note_on_c, 0, 70, 0
2, 116040, Note_on_c, 0, 71, 75
2, 116160, Note_on_c, 0, 71, 0
2, 116160, Note_on_c, 0, 70, 75
2, 116183, Note_on_c, 0, 70, 0
2, 116280, Note_on_c, 0, 68, 75
2, 116303, Note_on_c, 0, 68, 0
2, 116400, Note_on_c, 0, 67, 75
2, 116520, Note_on_c, 0, 67, 0
2, 116520, Note_on_c, 0, 70, 75
2, 116640, Note_on_c, 0, 70, 0
2, 116640, Note_on_c, 0, 65, 62
2, 116760, Note_on_c, 0, 65, 0
2, 116760, Note_on_c, 0, 67, 62
2, 116880, Note_on_c, 0, 67, 0
2, 116880, Note_on_c, 0, 63, 62
2, 117120, Note_on_c, 0, 63, 0
2, 117120, Note_on_c, 0, 65, 62
2, 117240, Note_on_c, 0, 65, 0
2, 117240, Note_on_c, 0, 67, 62
2, 117360, Note_on_c, 0, 67, 0
2, 117360, Note_on_c, 0, 63, 62
2, 117600, Note_on_c, 0, 63, 0
2, 118080, Note_on_c, 0, 65, 75
2, 118200, Note_on_c, 0, 65, 0
2, 118200, Note_on_c, 0, 67, 75
2, 118320, Note_on_c, 0, 67, 0
2, 118320, Note_on_c, 0, 63, 75
2, 118560, Note_on_c, 0, 63, 0
2, 118560, Note_on_c, 0, 65, 75
2, 118680, Note_on_c, 0, 65, 0
2, 118680, Note_on_c, 0, 67, 75
2, 118800, Note_on_c, 0, 67, 0
2, 118800, Note_on_c, 0, 63, 75
2, 119040, Note_on_c, 0, 63, 0
2, 119520, Note_on_c, 0, 77, 75
2, 119640, Note_on_c, 0, 77, 0
2, 119640, Note_on_c, 0, 79, 75
2, 119760, Note_on_c, 0, 79, 0
2, 119760, Note_on_c, 0, 75, 75
2, 120000, Note_on_c, 0, 75, 0
2, 120000, Note_on_c, 0, 77, 75
2, 120120, Note_on_c, 0, 77, 0
2, 120120, Note_on_c, 0, 79, 75
2, 120240, Note_on_c, 0, 79, 0
2, 120240, Note_on_c, 0, 75, 75
2, 120480, Note_on_c, 0, 75, 0
2, 120480, Note_on_c, 0, 85, 101
2, 120840, Note_on_c, 0, 85, 0
2, 120840, Note_on_c, 0, 83, 75
2, 120900, Note_on_c, 0, 83, 0
2, 120900, Note_on_c, 0, 85, 75
2, 120930, Note_on_c, 0, 85, 0
2, 120930, Note_on_c, 0, 83, 75
2, 120960, Note_on_c, 0, 83, 0
2, 120960, Note_on_c, 0, 82, 75
2, 121080, Note_on_c, 0, 82, 0
2, 121080, Note_on_c, 0, 87, 75
2, 121200, Note_on_c, 0, 87, 0
2, 121200, Note_on_c, 0, 82, 75
2, 121223, Note_on_c, 0, 82, 0
2, 121320, Note_on_c, 0, 80, 75
2, 121343, Note_on_c, 0, 80, 0
2, 121440, Note_on_c, 0, 79, 75
2, 121560, Note_on_c, 0, 79, 0
2, 121560, Note_on_c, 0, 82, 75
2, 121680, Note_on_c, 0, 82, 0
2, 121680, Note_on_c, 0, 76, 75
2, 121800, Note_on_c, 0, 76, 0
2, 121800, Note_on_c, 0, 75, 75
2, 121920, Note_on_c, 0, 75, 0
2, 121920, Note_on_c, 0, 73, 75
2, 121943, Note_on_c, 0, 73, 0
2, 122040, Note_on_c, 0, 76, 75
2, 122063, Note_on_c, 0, 76, 0
2, 122160, Note_on_c, 0, 73, 75
2, 122280, Note_on_c, 0, 73, 0
2, 122280, Note_on_c, 0, 71, 75
2, 122400, Note_on_c, 0, 71, 0
2, 122400, Note_on_c, 0, 70, 62
2, 122520, Note_on_c, 0, 70, 0
2, 122520, Note_on_c, 0, 75, 62
2, 122640, Note_on_c, 0, 75, 0
2, 122640, Note_on_c, 0, 68, 62
2, 122760, Note_on_c, 0, 68, 0
2, 122760, Note_on_c, 0, 67, 62
2, 122880, Note_on_c, 0, 67, 0
2, 122880, Note_on_c, 0, 70, 62
2, 123000, Note_on_c, 0, 70, 0
2, 123000, Note_on_c, 0, 64, 62
2, 123120, Note_on_c, 0, 64, 0
2, 123120, Note_on_c, 0, 63, 62
2, 123240, Note_on_c, 0, 63, 0
2, 123240, Note_on_c, 0, 61, 62
2, 123360, Note_on_c, 0, 61, 0
2, 123360, Note_on_c, 0, 66, 88
2, 123720, Note_on_c, 0, 66, 0
2, 123720, Note_on_c, 0, 64, 62
2, 123780, Note_on_c, 0, 64, 0
2, 123780, Note_on_c, 0, 66, 62
2, 123810, Note_on_c, 0, 66, 0
2, 123810, Note_on_c, 0, 64, 62
2, 123840, Note_on_c, 0, 64, 0
2, 123840, Note_on_c, 0, 63, 62
2, 123960, Note_on_c, 0, 63, 0
2, 123960, Note_on_c, 0, 61, 62
2, 124080, Note_on_c, 0, 61, 0
2, 124080, Note_on_c, 0, 66, 88
2, 124440, Note_on_c, 0, 66, 0
2, 124440, Note_on_c, 0, 64, 62
2, 124500, Note_on_c, 0, 64, 0
2, 124500, Note_on_c, 0, 66, 62
2, 124530, Note_on_c, 0, 66, 0
2, 124530, Note_on_c, 0, 64, 62
2, 124560, Note_on_c, 0, 64, 0
2, 124560, Note_on_c, 0, 63, 62
2, 124680, Note_on_c, 0, 63, 0
2, 124680, Note_on_c, 0, 61, 62
2, 124800, Note_on_c, 0, 61, 0
2, 124800, Note_on_c, 0, 66, 62
2, 124920, Note_on_c, 0, 66, 0
2, 124920, Note_on_c, 0, 64, 62
2, 124980, Note_on_c, 0, 64, 0
2, 124980, Note_on_c, 0, 66, 62
2, 125010, Note_on_c, 0, 66, 0
2, 125010, Note_on_c, 0, 64, 62
2, 125040, Note_on_c, 0, 64, 0
2, 125040, Note_on_c, 0, 63, 62
2, 125160, Note_on_c, 0, 63, 0
2, 125160, Note_on_c, 0, 61, 62
2, 125280, Note_on_c, 0, 61, 0
2, 125280, Note_on_c, 0, 66, 62
2, 125400, Note_on_c, 0, 66, 0
2, 125400, Note_on_c, 0, 64, 62
2, 125460, Note_on_c, 0, 64, 0
2, 125460, Note_on_c, 0, 66, 62
2, 125490, Note_on_c, 0, 66, 0
2, 125490, Note_on_c, 0, 64, 62
2, 125520, Note_on_c, 0, 64, 0
2, 125520, Note_on_c, 0, 63, 62
2, 125640, Note_on_c, 0, 63, 0
2, 125640, Note_on_c, 0, 61, 62
2, 125760, Note_on_c, 0, 61, 0
2, 125760, Note_on_c, 0, 66, 62
2, 125880, Note_on_c, 0, 66, 0
2, 125880, Note_on_c, 0, 64, 62
2, 125940, Note_on_c, 0, 64, 0
2, 125940, Note_on_c, 0, 66, 62
2, 125970, Note_on_c, 0, 66, 0
2, 125970, Note_on_c, 0, 64, 62
2, 126000, Note_on_c, 0, 64, 0
2, 126000, Note_on_c, 0, 63, 62
2, 126720, Note_on_c, 0, 63, 0
2, 126720, Note_on_c, 0, 64, 62
2, 126840, Note_on_c, 0, 64, 0
2, 126840, Note_on_c, 0, 63, 62
2, 126960, Note_on_c, 0, 63, 0
2, 126960, Note_on_c, 0, 62, 62
2, 127440, Note_on_c, 0, 62, 0
2, 127440, Note_on_c, 0, 63, 62
2, 127680, Note_on_c, 0, 63, 0
2, 127680, Note_on_c, 0, 68, 62
2, 128160, Note_on_c, 0, 68, 0
2, 128160, Note_on_c, 0, 63, 62
2, 128400, Note_on_c, 0, 63, 0
2, 128400, Note_on_c, 0, 62, 62
2, 128880, Note_on_c, 0, 62, 0
2, 128880, Note_on_c, 0, 63, 62
2, 129120, Note_on_c, 0, 63, 0
2, 129120, Note_on_c, 0, 62, 62
2, 129240, Note_on_c, 0, 62, 0
2, 129240, Note_on_c, 0, 63, 62
2, 129300, Note_on_c, 0, 63, 0
2, 129300, Note_on_c, 0, 62, 62
2, 129360, Note_on_c, 0, 62, 0
2, 129360, Note_on_c, 0, 59, 62
2, 129600, Note_on_c, 0, 59, 0
2, 129600, Note_on_c, 0, 58, 62
2, 129840, Note_on_c, 0, 58, 0
2, 129840, Note_on_c, 0, 56, 62
2, 130320, Note_on_c, 0, 56, 0
2, 130320, Note_on_c, 0, 63, 62
2, 131160, Note_on_c, 0, 63, 0
2, 131160, Control_c, 0, 64, 127
2, 131160, Note_on_c, 0, 58, 62
2, 131280, Note_on_c, 0, 58, 0
2, 131280, Note_on_c, 0, 59, 62
2, 131400, Note_on_c, 0, 59, 0
2, 131400, Note_on_c, 0, 61, 75
2, 131520, Note_on_c, 0, 61, 0
2, 131520, Note_on_c, 0, 63, 75
2, 131640, Note_on_c, 0, 63, 0
2, 131640, Control_c, 0, 64, 0
2, 131640, Note_on_c, 0, 64, 75
2, 131760, Note_on_c, 0, 64, 0
2, 131760, Note_on_c, 0, 66, 75
2, 131880, Note_on_c, 0, 66, 0
2, 131880, Note_on_c, 0, 68, 75
2, 131940, Note_on_c, 0, 68, 0
2, 131940, Note_on_c, 0, 66, 75
2, 132000, Note_on_c, 0, 66, 0
2, 132000, Note_on_c, 0, 64, 75
2, 132120, Note_on_c, 0, 64, 0
2, 132120, Note_on_c, 0, 63, 75
2, 132480, Note_on_c, 0, 63, 0
2, 132480, Note_on_c, 0, 64, 75
2, 132720, Note_on_c, 0, 64, 0
2, 132720, Note_on_c, 0, 62, 75
2, 133200, Note_on_c, 0, 62, 0
2, 133200, Note_on_c, 0, 66, 75
2, 133320, Note_on_c, 0, 66, 0
2, 133320, Note_on_c, 0, 68, 75
2, 133380, Note_on_c, 0, 68, 0
2, 133380, Note_on_c, 0, 66, 75
2, 133440, Note_on_c, 0, 66, 0
2, 133440, Note_on_c, 0, 64, 75
2, 133560, Note_on_c, 0, 64, 0
2, 133560, Note_on_c, 0, 63, 75
2, 133920, Note_on_c, 0, 63, 0
2, 133920, Note_on_c, 0, 64, 75
2, 134160, Note_on_c, 0, 64, 0
2, 134160, Note_on_c, 0, 62, 75
2, 134640, Note_on_c, 0, 62, 0
2, 134640, Note_on_c, 0, 63, 75
2, 134760, Note_on_c, 0, 63, 0
2, 134760, Note_on_c, 0, 64, 75
2, 134820, Note_on_c, 0, 64, 0
2, 134820, Note_on_c, 0, 63, 75
2, 134880, Note_on_c, 0, 63, 0
2, 134880, Note_on_c, 0, 62, 75
2, 135000, Note_on_c, 0, 62, 0
2, 135000, Note_on_c, 0, 63, 75
2, 135120, Note_on_c, 0, 63, 0
2, 135120, Note_on_c, 0, 71, 75
2, 135360, Note_on_c, 0, 71, 0
2, 135360, Note_on_c, 0, 73, 75
2, 135600, Note_on_c, 0, 73, 0
2, 135600, Note_on_c, 0, 75, 75
2, 135840, Note_on_c, 0, 75, 0
2, 135840, Note_on_c, 0, 63, 75
2, 135960, Note_on_c, 0, 63, 0
2, 135960, Note_on_c, 0, 64, 75
2, 136080, Note_on_c, 0, 64, 0
2, 136080, Control_c, 0, 64, 127
2, 136080, Note_on_c, 0, 66, 75
2, 136200, Note_on_c, 0, 66, 0
2, 136200, Note_on_c, 0, 68, 75
2, 136260, Note_on_c, 0, 68, 0
2, 136260, Note_on_c, 0, 66, 75
2, 136320, Note_on_c, 0, 66, 0
2, 136320, Note_on_c, 0, 64, 75
2, 136440, Note_on_c, 0, 64, 0
2, 136440, Note_on_c, 0, 63, 75
2, 136560, Note_on_c, 0, 63, 0
2, 136560, Note_on_c, 0, 71, 75
2, 136800, Note_on_c, 0, 71, 0
2, 136800, Note_on_c, 0, 73, 75
2, 137040, Note_on_c, 0, 73, 0
2, 137040, Control_c, 0, 64, 0
2, 137040, Note_on_c, 0, 75, 75
2, 137280, Note_on_c, 0, 75, 0
2, 137280, Note_on_c, 0, 59, 62
2, 137400, Note_on_c, 0, 59, 0
2, 137400, Note_on_c, 0, 61, 62
2, 137520, Note_on_c, 0, 61, 0
2, 137520, Control_c, 0, 64, 127
2, 137520, Note_on_c, 0, 63, 62
2, 137640, Note_on_c, 0, 63, 0
2, 137640, Note_on_c, 0, 64, 62
2, 137700, Note_on_c, 0, 64, 0
2, 137700, Note_on_c, 0, 63, 62
2, 137760, Note_on_c, 0, 63, 0
2, 137760, Note_on_c, 0, 61, 62
2, 137880, Note_on_c, 0, 61, 0
2, 137880, Note_on_c, 0, 59, 62
2, 138000, Note_on_c, 0, 59, 0
2, 138000, Note_on_c, 0, 68, 62
2, 138240, Note_on_c, 0, 68, 0
2, 138240, Note_on_c, 0, 70, 62
2, 138480, Note_on_c, 0, 70, 0
2, 138480, Control_c, 0, 64, 0
2, 138480, Note_on_c, 0, 71, 62
2, 138720, Note_on_c, 0, 71, 0
2, 138720, Note_on_c, 0, 59, 62
2, 138840, Note_on_c, 0, 59, 0
2, 138840, Note_on_c, 0, 61, 62
2, 138960, Note_on_c, 0, 61, 0
2, 138960, Control_c, 0, 64, 127
2, 138960, Note_on_c, 0, 63, 62
2, 139080, Note_on_c, 0, 63, 0
2, 139080, Note_on_c, 0, 64, 62
2, 139140, Note_on_c, 0, 64, 0
2, 139140, Note_on_c, 0, 63, 62
2, 139200, Note_on_c, 0, 63, 0
2, 139200, Note_on_c, 0, 61, 62
2, 139320, Note_on_c, 0, 61, 0
2, 139320, Note_on_c, 0, 59, 62
2, 139440, Note_on_c, 0, 59, 0
2, 139440, Note_on_c, 0, 68, 62
2, 139680, Note_on_c, 0, 68, 0
2, 139680, Note_on_c, 0, 70, 62
2, 139920, Note_on_c, 0, 70, 0
2, 139920, Control_c, 0, 64, 0
2, 139920, Note_on_c, 0, 71, 62
2, 140160, Note_on_c, 0, 71, 0
2, 140160, Note_on_c, 0, 59, 49
2, 140280, Note_on_c, 0, 59, 0
2, 140280, Note_on_c, 0, 61, 49
2, 140400, Note_on_c, 0, 61, 0
2, 140400, Note_on_c, 0, 63, 49
2, 140520, Note_on_c, 0, 63, 0
2, 140520, Note_on_c, 0, 64, 49
2, 140580, Note_on_c, 0, 64, 0
2, 140580, Note_on_c, 0, 63, 49
2, 140640, Note_on_c, 0, 63, 0
2, 140640, Note_on_c, 0, 61, 75
2, 141000, Note_on_c, 0, 61, 0
2, 141000, Note_on_c, 0, 59, 49
2, 141120, Note_on_c, 0, 59, 0
2, 141120, Note_on_c, 0, 63, 49
2, 141240, Note_on_c, 0, 63, 0
2, 141240, Note_on_c, 0, 64, 49
2, 141300, Note_on_c, 0, 64, 0
2, 141300, Note_on_c, 0, 63, 49
2, 141360, Note_on_c, 0, 63, 0
2, 141360, Note_on_c, 0, 61, 75
2, 141720, Note_on_c, 0, 61, 0
2, 141720, Note_on_c, 0, 59, 49
2, 141840, Note_on_c, 0, 59, 0
2, 141840, Note_on_c, 0, 58, 49
2, 141960, Note_on_c, 0, 58, 0
2, 141960, Note_on_c, 0, 59, 49
2, 142080, Note_on_c, 0, 59, 0
2, 142080, Note_on_c, 0, 56, 49
2, 142560, Note_on_c, 0, 56, 0
2, 142560, Note_on_c, 0, 59, 49
2, 142583, Note_on_c, 0, 59, 0
2, 142680, Note_on_c, 0, 58, 49
2, 142719, Note_on_c, 0, 58, 0
2, 142719, Note_on_c, 0, 59, 49
2, 142760, Note_on_c, 0, 59, 0
2, 142760, Note_on_c, 0, 58, 49
2, 142800, Note_on_c, 0, 58, 0
2, 142800, Note_on_c, 0, 56, 49
2, 143280, Note_on_c, 0, 56, 0
2, 143280, Note_on_c, 0, 58, 49
2, 143400, Note_on_c, 0, 58, 0
2, 143400, Note_on_c, 0, 59, 49
2, 143520, Note_on_c, 0, 59, 0
2, 143520, Note_on_c, 0, 56, 49
2, 144000, Note_on_c, 0, 56, 0
2, 144000, Note_on_c, 0, 59, 49
2, 144023, Note_on_c, 0, 59, 0
2, 144120, Note_on_c, 0, 58, 49
2, 144159, Note_on_c, 0, 58, 0
2, 144159, Note_on_c, 0, 59, 49
2, 144200, Note_on_c, 0, 59, 0
2, 144200, Note_on_c, 0, 58, 49
2, 144240, Note_on_c, 0, 58, 0
2, 144240, Note_on_c, 0, 56, 49
2, 144720, Note_on_c, 0, 56, 0
2, 144720, Note_on_c, 0, 75, 62
2, 144960, Note_on_c, 0, 75, 0
2, 144960, Note_on_c, 0, 75, 62
2, 144983, Note_on_c, 0, 75, 0
2, 145080, Note_on_c, 0, 75, 62
2, 145103, Note_on_c, 0, 75, 0
2, 145200, Note_on_c, 0, 75, 62
2, 145223, Note_on_c, 0, 75, 0
2, 145320, Note_on_c, 0, 75, 62
2, 145343, Note_on_c, 0, 75, 0
2, 145440, Note_on_c, 0, 80, 62
2, 145463, Note_on_c, 0, 80, 0
2, 145560, Note_on_c, 0, 80, 62
2, 145583, Note_on_c, 0, 80, 0
2, 145680, Note_on_c, 0, 68, 88
2, 146040, Note_on_c, 0, 68, 0
2, 146040, Note_on_c, 0, 70, 62
2, 146160, Note_on_c, 0, 70, 0
2, 146160, Note_on_c, 0, 75, 62
2, 146183, Note_on_c, 0, 75, 0
2, 146280, Note_on_c, 0, 75, 62
2, 146303, Note_on_c, 0, 75, 0
2, 146400, Note_on_c, 0, 64, 88
2, 146760, Note_on_c, 0, 64, 0
2, 146760, Note_on_c, 0, 66, 62
2, 146880, Note_on_c, 0, 66, 0
2, 146880, Note_on_c, 0, 68, 62
2, 146903, Note_on_c, 0, 68, 0
2, 147000, Note_on_c, 0, 64, 62
2, 147039, Note_on_c, 0, 64, 0
2, 147039, Note_on_c, 0, 66, 62
2, 147080, Note_on_c, 0, 66, 0
2, 147080, Note_on_c, 0, 64, 62
2, 147120, Note_on_c, 0, 64, 0
2, 147120, Note_on_c, 0, 63, 62
2, 147600, Note_on_c, 0, 63, 0
2, 147600, Note_on_c, 0, 75, 62
2, 147840, Note_on_c, 0, 75, 0
2, 147840, Note_on_c, 0, 75, 62
2, 147863, Note_on_c, 0, 75, 0
2, 147960, Note_on_c, 0, 75, 62
2, 147983, Note_on_c, 0, 75, 0
2, 148080, Note_on_c, 0, 75, 62
2, 148103, Note_on_c, 0, 75, 0
2, 148200, Note_on_c, 0, 75, 62
2, 148223, Note_on_c, 0, 75, 0
2, 148320, Note_on_c, 0, 80, 62
2, 148343, Note_on_c, 0, 80, 0
2, 148440, Note_on_c, 0, 80, 62
2, 148463, Note_on_c, 0, 80, 0
2, 148560, Note_on_c, 0, 68, 88
2, 148920, Note_on_c, 0, 68, 0
2, 148920, Note_on_c, 0, 70, 62
2, 149040, Note_on_c, 0, 70, 0
2, 149040, Note_on_c, 0, 75, 62
2, 149063, Note_on_c, 0, 75, 0
2, 149160, Note_on_c, 0, 75, 62
2, 149183, Note_on_c, 0, 75, 0
2, 149280, Note_on_c, 0, 64, 88
2, 149640, Note_on_c, 0, 64, 0
2, 149640, Note_on_c, 0, 66, 62
2, 149760, Note_on_c, 0, 66, 0
2, 149760, Note_on_c, 0, 68, 62
2, 149783, Note_on_c, 0, 68, 0
2, 149880, Note_on_c, 0, 64, 62
2, 149919, Note_on_c, 0, 64, 0
2, 149919, Note_on_c, 0, 66, 62
2, 149960, Note_on_c, 0, 66, 0
2, 149960, Note_on_c, 0, 64, 62
2, 150000, Note_on_c, 0, 64, 0
2, 150000, Note_on_c, 0, 63, 62
2, 150480, Note_on_c, 0, 63, 0
2, 150960, Note_on_c, 0, 61, 49
2, 150960, Note_on_c, 0, 70, 49
2, 150960, Note_on_c, 0, 75, 49
2, 151200, Note_on_c, 0, 75, 0
2, 151200, Note_on_c, 0, 70, 0
2, 151200, Note_on_c, 0, 61, 0
2, 151200, Note_on_c, 0, 59, 49
2, 151200, Note_on_c, 0, 68, 49
2, 151440, Note_on_c, 0, 68, 0
2, 151440, Note_on_c, 0, 59, 0
2, 151680, Note_on_c, 0, 56, 49
2, 151680, Note_on_c, 0, 59, 49
2, 151680, Note_on_c, 0, 63, 49
2, 151920, Note_on_c, 0, 63, 0
2, 151920, Note_on_c, 0, 59, 0
2, 151920, Note_on_c, 0, 56, 0
2, 152400, Note_on_c, 0, 61, 49
2, 152400, Note_on_c, 0, 70, 49
2, 152400, Note_on_c, 0, 75, 49
2, 152640, Note_on_c, 0, 75, 0
2, 152640, Note_on_c, 0, 70, 0
2, 152640, Note_on_c, 0, 61, 0
2, 152640, Note_on_c, 0, 59, 49
2, 152640, Note_on_c, 0, 68, 49
2, 152880, Note_on_c, 0, 68, 0
2, 152880, Note_on_c, 0, 59, 0
2, 153120, Note_on_c, 0, 56, 49
2, 153120, Note_on_c, 0, 59, 49
2, 153120, Note_on_c, 0, 63, 49
2, 153360, Note_on_c, 0, 63, 0
2, 153360, Note_on_c, 0, 59, 0
2, 153360, Note_on_c, 0, 56, 0
2, 153840, Note_on_c, 0, 56, 49
2, 153840, Note_on_c, 0, 59, 49
2, 153840, Note_on_c, 0, 63, 49
2, 154080, Note_on_c, 0, 63, 0
2, 154080, Note_on_c, 0, 59, 0
2, 154080, Note_on_c, 0, 56, 0
2, 154560, Note_on_c, 0, 56, 49
2, 154560, Note_on_c, 0, 59, 49
2, 154560, Note_on_c, 0, 63, 49
2, 154800, Note_on_c, 0, 63, 0
2, 154800, Note_on_c, 0, 59, 0
2, 154800, Note_on_c, 0, 56, 0
2, 157200, Note_on_c, 0, 59, 49
2, 157200, Note_on_c, 0, 68, 49
2, 157247, Note_on_c, 0, 68, 0
2, 157247, Note_on_c, 0, 59, 0
2, 157440, Note_on_c, 0, 59, 49
2, 157440, Note_on_c, 0, 68, 49
2, 157487, Note_on_c, 0, 68, 0
2, 157487, Note_on_c, 0, 59, 0
2, 157680, Note_on_c, 0, 59, 49
2, 157680, Note_on_c, 0, 68, 49
2, 158640, Note_on_c, 0, 68, 0
2, 158640, Note_on_c, 0, 59, 0
2, 158640, Control_c, 0, 64, 127
2, 161040, Control_c, 0, 64, 0
2, 161040, End_track
3, 0, Start_track
3, 0, Title_t, "Grand Piano"
3, 0, Program_c, 0, 0
3, 0, Control_c, 0, 7, 115
3, 0, Control_c, 0, 10, 79
3, 9120, Note_on_c, 0, 71, 62
3, 9240, Note_on_c, 0, 71, 0
3, 9240, Note_on_c, 0, 68, 62
3, 9360, Note_on_c, 0, 68, 0
3, 9360, Note_on_c, 0, 73, 62
3, 9480, Note_on_c, 0, 73, 0
3, 9480, Note_on_c, 0, 67, 62
3, 9600, Note_on_c, 0, 67, 0
3, 9600, Note_on_c, 0, 75, 62
3, 9840, Note_on_c, 0, 75, 0
3, 10560, Note_on_c, 0, 71, 62
3, 10680, Note_on_c, 0, 71, 0
3, 10680, Note_on_c, 0, 68, 62
3, 10800, Note_on_c, 0, 68, 0
3, 10800, Note_on_c, 0, 73, 62
3, 10920, Note_on_c, 0, 73, 0
3, 10920, Note_on_c, 0, 67, 62
3, 11040, Note_on_c, 0, 67, 0
3, 11040, Note_on_c, 0, 75, 62
3, 11280, Note_on_c, 0, 75, 0
3, 12000, Note_on_c, 0, 71, 62
3, 12120, Note_on_c, 0, 71, 0
3, 12120, Note_on_c, 0, 68, 62
3, 12240, Note_on_c, 0, 68, 0
3, 12240, Note_on_c, 0, 73, 62
3, 12360, Note_on_c, 0, 73, 0
3, 12360, Note_on_c, 0, 67, 62
3, 12480, Note_on_c, 0, 67, 0
3, 12480, Note_on_c, 0, 75, 62
3, 12600, Note_on_c, 0, 75, 0
3, 12600, Note_on_c, 0, 66, 62
3, 12720, Note_on_c, 0, 66, 0
3, 12720, Note_on_c, 0, 77, 62
3, 12840, Note_on_c, 0, 77, 0
3, 12840, Note_on_c, 0, 71, 62
3, 12960, Note_on_c, 0, 71, 0
3, 12960, Note_on_c, 0, 78, 62
3, 13080, Note_on_c, 0, 78, 0
3, 13080, Note_on_c, 0, 70, 62
3, 13200, Note_on_c, 0, 70, 0
3, 13200, Note_on_c, 0, 80, 62
3, 13320, Note_on_c, 0, 80, 0
3, 13320, Note_on_c, 0, 75, 62
3, 13440, Note_on_c, 0, 75, 0
3, 13440, Note_on_c, 0, 82, 62
3, 13560, Note_on_c, 0, 82, 0
3, 13560, Note_on_c, 0, 74, 62
3, 13680, Note_on_c, 0, 74, 0
3, 13680, Note_on_c, 0, 80, 62
3, 13800, Note_on_c, 0, 80, 0
3, 13800, Note_on_c, 0, 75, 62
3, 13920, Note_on_c, 0, 75, 0
3, 13920, Note_on_c, 0, 82, 62
3, 14040, Note_on_c, 0, 82, 0
3, 14040, Note_on_c, 0, 74, 62
3, 14160, Note_on_c, 0, 74, 0
3, 14160, Note_on_c, 0, 75, 62
3, 14400, Note_on_c, 0, 75, 0
3, 16560, Note_on_c, 0, 56, 62
3, 16560, Note_on_c, 0, 58, 62
3, 16800, Note_on_c, 0, 58, 0
3, 16800, Note_on_c, 0, 56, 0
3, 16800, Note_on_c, 0, 55, 62
3, 17280, Note_on_c, 0, 55, 0
3, 19440, Note_on_c, 0, 56, 49
3, 19440, Note_on_c, 0, 62, 49
3, 19680, Note_on_c, 0, 62, 0
3, 19680, Note_on_c, 0, 56, 0
3, 19680, Note_on_c, 0, 55, 49
3, 19920, Note_on_c, 0, 55, 0
3, 19920, Note_on_c, 0, 56, 49
3, 19920, Note_on_c, 0, 62, 49
3, 20160, Note_on_c, 0, 62, 0
3, 20160, Note_on_c, 0, 56, 0
3, 20160, Note_on_c, 0, 55, 49
3, 20400, Note_on_c, 0, 55, 0
3, 20880, Note_on_c, 0, 62, 62
3, 21120, Note_on_c, 0, 62, 0
3, 21120, Note_on_c, 0, 63, 62
3, 21360, Note_on_c, 0, 63, 0
3, 21360, Note_on_c, 0, 62, 62
3, 21600, Note_on_c, 0, 62, 0
3, 21600, Note_on_c, 0, 63, 62
3, 21840, Note_on_c, 0, 63, 0
3, 22320, Note_on_c, 0, 74, 62
3, 22560, Note_on_c, 0, 74, 0
3, 22560, Note_on_c, 0, 75, 62
3, 22800, Note_on_c, 0, 75, 0
3, 22800, Note_on_c, 0, 74, 62
3, 23040, Note_on_c, 0, 74, 0
3, 23040, Note_on_c, 0, 75, 62
3, 23280, Note_on_c, 0, 75, 0
3, 37920, Note_on_c, 0, 71, 62
3, 38040, Note_on_c, 0, 71, 0
3, 38040, Note_on_c, 0, 68, 62
3, 38160, Note_on_c, 0, 68, 0
3, 38160, Note_on_c, 0, 73, 62
3, 38280, Note_on_c, 0, 73, 0
3, 38280, Note_on_c, 0, 67, 62
3, 38400, Note_on_c, 0, 67, 0
3, 38400, Note_on_c, 0, 75, 62
3, 38640, Note_on_c, 0, 75, 0
3, 39360, Note_on_c, 0, 71, 62
3, 39480, Note_on_c, 0, 71, 0
3, 39480, Note_on_c, 0, 68, 62
3, 39600, Note_on_c, 0, 68, 0
3, 39600, Note_on_c, 0, 73, 62
3, 39720, Note_on_c, 0, 73, 0
3, 39720, Note_on_c, 0, 67, 62
3, 39840, Note_on_c, 0, 67, 0
3, 39840, Note_on_c, 0, 75, 62
3, 40080, Note_on_c, 0, 75, 0
3, 40800, Note_on_c, 0, 68, 49
3, 40920, Note_on_c, 0, 68, 0
3, 40920, Note_on_c, 0, 61, 49
3, 41040, Note_on_c, 0, 61, 0
3, 41040, Note_on_c, 0, 70, 49
3, 41160, Note_on_c, 0, 70, 0
3, 41160, Note_on_c, 0, 64, 49
3, 41280, Note_on_c, 0, 64, 0
3, 41280, Note_on_c, 0, 71, 49
3, 41520, Note_on_c, 0, 71, 0
3, 42240, Note_on_c, 0, 68, 49
3, 42360, Note_on_c, 0, 68, 0
3, 42360, Note_on_c, 0, 61, 49
3, 42480, Note_on_c, 0, 61, 0
3, 42480, Note_on_c, 0, 70, 49
3, 42600, Note_on_c, 0, 70, 0
3, 42600, Note_on_c, 0, 64, 49
3, 42720, Note_on_c, 0, 64, 0
3, 42720, Note_on_c, 0, 71, 49
3, 42960, Note_on_c, 0, 71, 0
3, 47520, Note_on_c, 0, 64, 49
3, 47520, Note_on_c, 0, 66, 49
3, 47760, Note_on_c, 0, 66, 0
3, 47760, Note_on_c, 0, 64, 0
3, 47760, Note_on_c, 0, 63, 49
3, 47760, Note_on_c, 0, 66, 49
3, 48240, Note_on_c, 0, 66, 0
3, 48240, Note_on_c, 0, 63, 0
3, 48240, Note_on_c, 0, 64, 49
3, 48240, Note_on_c, 0, 66, 49
3, 48480, Note_on_c, 0, 66, 0
3, 48480, Note_on_c, 0, 64, 0
3, 48480, Note_on_c, 0, 63, 49
3, 48480, Note_on_c, 0, 66, 49
3, 48960, Note_on_c, 0, 66, 0
3, 48960, Note_on_c, 0, 63, 0
3, 48960, Note_on_c, 0, 64, 49
3, 48960, Note_on_c, 0, 66, 49
3, 49200, Note_on_c, 0, 66, 0
3, 49200, Note_on_c, 0, 64, 0
3, 49200, Note_on_c, 0, 63, 49
3, 49200, Note_on_c, 0, 66, 49
3, 49680, Note_on_c, 0, 66, 0
3, 49680, Note_on_c, 0, 63, 0
3, 49680, Note_on_c, 0, 64, 49
3, 49680, Note_on_c, 0, 66, 49
3, 49920, Note_on_c, 0, 66, 0
3, 49920, Note_on_c, 0, 64, 0
3, 49920, Note_on_c, 0, 63, 49
3, 49920, Note_on_c, 0, 66, 49
3, 50400, Note_on_c, 0, 66, 0
3, 50400, Note_on_c, 0, 63, 0
3, 50400, Note_on_c, 0, 66, 49
3, 50400, Note_on_c, 0, 73, 49
3, 50880, Note_on_c, 0, 73, 0
3, 50880, Note_on_c, 0, 66, 0
3, 50880, Note_on_c, 0, 66, 49
3, 50880, Note_on_c, 0, 71, 49
3, 51120, Note_on_c, 0, 71, 0
3, 51120, Note_on_c, 0, 66, 0
3, 51120, Note_on_c, 0, 71, 49
3, 51120, Note_on_c, 0, 76, 49
3, 51360, Note_on_c, 0, 76, 0
3, 51360, Note_on_c, 0, 71, 0
3, 51360, Note_on_c, 0, 64, 49
3, 51600, Note_on_c, 0, 64, 0
3, 51600, Note_on_c, 0, 65, 49
3, 51840, Note_on_c, 0, 65, 0
3, 51840, Note_on_c, 0, 66, 49
3, 51840, Note_on_c, 0, 71, 49
3, 52080, Note_on_c, 0, 71, 0
3, 52080, Note_on_c, 0, 66, 0
3, 52080, Note_on_c, 0, 61, 49
3, 52320, Note_on_c, 0, 61, 0
3, 52320, Note_on_c, 0, 66, 49
3, 52800, Note_on_c, 0, 66, 0
3, 52800, Note_on_c, 0, 61, 49
3, 53040, Note_on_c, 0, 61, 0
3, 53040, Note_on_c, 0, 66, 49
3, 53520, Note_on_c, 0, 66, 0
3, 53520, Note_on_c, 0, 61, 49
3, 53760, Note_on_c, 0, 61, 0
3, 53760, Note_on_c, 0, 66, 49
3, 54240, Note_on_c, 0, 66, 0
3, 54240, Note_on_c, 0, 68, 49
3, 54480, Note_on_c, 0, 68, 0
3, 54480, Note_on_c, 0, 67, 49
3, 54720, Note_on_c, 0, 67, 0
3, 54720, Note_on_c, 0, 64, 49
3, 54720, Note_on_c, 0, 66, 49
3, 54960, Note_on_c, 0, 66, 0
3, 54960, Note_on_c, 0, 64, 0
3, 54960, Note_on_c, 0, 63, 49
3, 54960, Note_on_c, 0, 66, 49
3, 55440, Note_on_c, 0, 66, 0
3, 55440, Note_on_c, 0, 63, 0
3, 55440, Note_on_c, 0, 64, 49
3, 55440, Note_on_c, 0, 66, 49
3, 55680, Note_on_c, 0, 66, 0
3, 55680, Note_on_c, 0, 64, 0
3, 55680, Note_on_c, 0, 63, 49
3, 55680, Note_on_c, 0, 66, 49
3, 56160, Note_on_c, 0, 66, 0
3, 56160, Note_on_c, 0, 63, 0
3, 56160, Note_on_c, 0, 64, 49
3, 56160, Note_on_c, 0, 66, 49
3, 56400, Note_on_c, 0, 66, 0
3, 56400, Note_on_c, 0, 64, 0
3, 56400, Note_on_c, 0, 63, 49
3, 56400, Note_on_c, 0, 66, 49
3, 56880, Note_on_c, 0, 66, 0
3, 56880, Note_on_c, 0, 63, 0
3, 56880, Note_on_c, 0, 64, 49
3, 56880, Note_on_c, 0, 66, 49
3, 57120, Note_on_c, 0, 66, 0
3, 57120, Note_on_c, 0, 64, 0
3, 57120, Note_on_c, 0, 63, 49
3, 57120, Note_on_c, 0, 66, 49
3, 57600, Note_on_c, 0, 66, 0
3, 57600, Note_on_c, 0, 63, 0
3, 57600, Note_on_c, 0, 66, 49
3, 57600, Note_on_c, 0, 73, 49
3, 58080, Note_on_c, 0, 73, 0
3, 58080, Note_on_c, 0, 66, 0
3, 58080, Note_on_c, 0, 66, 49
3, 58080, Note_on_c, 0, 71, 49
3, 58320, Note_on_c, 0, 71, 0
3, 58320, Note_on_c, 0, 66, 0
3, 58320, Note_on_c, 0, 71, 49
3, 58320, Note_on_c, 0, 76, 49
3, 58560, Note_on_c, 0, 76, 0
3, 58560, Note_on_c, 0, 71, 0
3, 58560, Note_on_c, 0, 64, 49
3, 58800, Note_on_c, 0, 64, 0
3, 58800, Note_on_c, 0, 65, 49
3, 59040, Note_on_c, 0, 65, 0
3, 59040, Note_on_c, 0, 66, 49
3, 59040, Note_on_c, 0, 71, 49
3, 59280, Note_on_c, 0, 71, 0
3, 59280, Note_on_c, 0, 66, 0
3, 59280, Note_on_c, 0, 61, 49
3, 59520, Note_on_c, 0, 61, 0
3, 59520, Note_on_c, 0, 66, 49
3, 60000, Note_on_c, 0, 66, 0
3, 60000, Note_on_c, 0, 61, 49
3, 60480, Note_on_c, 0, 61, 0
3, 60480, Note_on_c, 0, 59, 49
3, 60720, Note_on_c, 0, 59, 0
3, 60720, Note_on_c, 0, 59, 49
3, 61200, Note_on_c, 0, 59, 0
3, 61200, Note_on_c, 0, 61, 49
3, 61680, Note_on_c, 0, 61, 0
3, 61680, Note_on_c, 0, 61, 49
3, 61920, Note_on_c, 0, 61, 0
3, 62160, Note_on_c, 0, 66, 49
3, 62400, Note_on_c, 0, 66, 0
3, 62400, Note_on_c, 0, 63, 49
3, 62640, Note_on_c, 0, 63, 0
3, 62640, Note_on_c, 0, 68, 49
3, 63120, Note_on_c, 0, 68, 0
3, 63120, Note_on_c, 0, 68, 49
3, 63360, Note_on_c, 0, 68, 0
3, 63600, Note_on_c, 0, 73, 49
3, 63840, Note_on_c, 0, 73, 0
3, 63840, Note_on_c, 0, 70, 49
3, 64080, Note_on_c, 0, 70, 0
3, 64080, Note_on_c, 0, 73, 49
3, 64560, Note_on_c, 0, 73, 0
3, 64560, Note_on_c, 0, 73, 62
3, 64800, Note_on_c, 0, 73, 0
3, 65040, Note_on_c, 0, 78, 62
3, 65280, Note_on_c, 0, 78, 0
3, 65280, Note_on_c, 0, 75, 62
3, 65520, Note_on_c, 0, 75, 0
3, 65520, Note_on_c, 0, 80, 62
3, 66000, Note_on_c, 0, 80, 0
3, 66000, Note_on_c, 0, 80, 62
3, 66240, Note_on_c, 0, 80, 0
3, 66480, Note_on_c, 0, 85, 62
3, 66720, Note_on_c, 0, 85, 0
3, 66720, Note_on_c, 0, 82, 62
3, 66960, Note_on_c, 0, 82, 0
3, 66960, Note_on_c, 0, 80, 62
3, 67440, Note_on_c, 0, 80, 0
3, 67440, Note_on_c, 0, 80, 62
3, 67680, Note_on_c, 0, 80, 0
3, 70560, Note_on_c, 0, 64, 49
3, 70560, Note_on_c, 0, 66, 49
3, 70800, Note_on_c, 0, 66, 0
3, 70800, Note_on_c, 0, 64, 0
3, 70800, Note_on_c, 0, 63, 49
3, 70800, Note_on_c, 0, 66, 49
3, 71280, Note_on_c, 0, 66, 0
3, 71280, Note_on_c, 0, 63, 0
3, 71280, Note_on_c, 0, 64, 49
3, 71280, Note_on_c, 0, 66, 49
3, 71520, Note_on_c, 0, 66, 0
3, 71520, Note_on_c, 0, 64, 0
3, 71520, Note_on_c, 0, 63, 49
3, 71520, Note_on_c, 0, 66, 49
3, 72000, Note_on_c, 0, 66, 0
3, 72000, Note_on_c, 0, 63, 0
3, 72000, Note_on_c, 0, 64, 49
3, 72000, Note_on_c, 0, 66, 49
3, 72240, Note_on_c, 0, 66, 0
3, 72240, Note_on_c, 0, 64, 0
3, 72240, Note_on_c, 0, 63, 49
3, 72240, Note_on_c, 0, 66, 49
3, 72720, Note_on_c, 0, 66, 0
3, 72720, Note_on_c, 0, 63, 0
3, 72720, Note_on_c, 0, 64, 49
3, 72720, Note_on_c, 0, 66, 49
3, 72960, Note_on_c, 0, 66, 0
3, 72960, Note_on_c, 0, 64, 0
3, 72960, Note_on_c, 0, 63, 49
3, 72960, Note_on_c, 0, 66, 49
3, 73440, Note_on_c, 0, 66, 0
3, 73440, Note_on_c, 0, 63, 0
3, 73440, Note_on_c, 0, 66, 49
3, 73440, Note_on_c, 0, 73, 49
3, 73920, Note_on_c, 0, 73, 0
3, 73920, Note_on_c, 0, 66, 0
3, 73920, Note_on_c, 0, 66, 49
3, 73920, Note_on_c, 0, 71, 49
3, 74160, Note_on_c, 0, 71, 0
3, 74160, Note_on_c, 0, 66, 0
3, 74160, Note_on_c, 0, 71, 49
3, 74160, Note_on_c, 0, 76, 49
3, 74400, Note_on_c, 0, 76, 0
3, 74400, Note_on_c, 0, 71, 0
3, 74400, Note_on_c, 0, 64, 49
3, 74640, Note_on_c, 0, 64, 0
3, 74640, Note_on_c, 0, 65, 49
3, 74880, Note_on_c, 0, 65, 0
3, 74880, Note_on_c, 0, 66, 49
3, 74880, Note_on_c, 0, 71, 49
3, 75120, Note_on_c, 0, 71, 0
3, 75120, Note_on_c, 0, 66, 0
3, 75120, Note_on_c, 0, 61, 49
3, 75360, Note_on_c, 0, 61, 0
3, 75360, Note_on_c, 0, 66, 49
3, 75840, Note_on_c, 0, 66, 0
3, 75840, Note_on_c, 0, 61, 49
3, 76080, Note_on_c, 0, 61, 0
3, 76080, Note_on_c, 0, 66, 49
3, 76560, Note_on_c, 0, 66, 0
3, 76560, Note_on_c, 0, 61, 49
3, 76800, Note_on_c, 0, 61, 0
3, 76800, Note_on_c, 0, 66, 49
3, 77280, Note_on_c, 0, 66, 0
3, 77280, Note_on_c, 0, 68, 49
3, 77520, Note_on_c, 0, 68, 0
3, 77520, Note_on_c, 0, 67, 49
3, 77760, Note_on_c, 0, 67, 0
3, 77760, Note_on_c, 0, 64, 49
3, 77760, Note_on_c, 0, 66, 49
3, 78000, Note_on_c, 0, 66, 0
3, 78000, Note_on_c, 0, 64, 0
3, 78000, Note_on_c, 0, 63, 49
3, 78000, Note_on_c, 0, 66, 49
3, 78480, Note_on_c, 0, 66, 0
3, 78480, Note_on_c, 0, 63, 0
3, 78480, Note_on_c, 0, 64, 49
3, 78480, Note_on_c, 0, 66, 49
3, 78720, Note_on_c, 0, 66, 0
3, 78720, Note_on_c, 0, 64, 0
3, 78720, Note_on_c, 0, 63, 49
3, 78720, Note_on_c, 0, 66, 49
3, 79200, Note_on_c, 0, 66, 0
3, 79200, Note_on_c, 0, 63, 0
3, 79200, Note_on_c, 0, 64, 49
3, 79200, Note_on_c, 0, 66, 49
3, 79440, Note_on_c, 0, 66, 0
3, 79440, Note_on_c, 0, 64, 0
3, 79440, Note_on_c, 0, 63, 49
3, 79440, Note_on_c, 0, 66, 49
3, 79920, Note_on_c, 0, 66, 0
3, 79920, Note_on_c, 0, 63, 0
3, 79920, Note_on_c, 0, 64, 49
3, 79920, Note_on_c, 0, 66, 49
3, 80160, Note_on_c, 0, 66, 0
3, 80160, Note_on_c, 0, 64, 0
3, 80160, Note_on_c, 0, 63, 49
3, 80160, Note_on_c, 0, 66, 49
3, 80640, Note_on_c, 0, 66, 0
3, 80640, Note_on_c, 0, 63, 0
3, 80640, Note_on_c, 0, 66, 49
3, 80640, Note_on_c, 0, 73, 49
3, 81120, Note_on_c, 0, 73, 0
3, 81120, Note_on_c, 0, 66, 0
3, 81120, Note_on_c, 0, 66, 49
3, 81120, Note_on_c, 0, 71, 49
3, 81360, Note_on_c, 0, 71, 0
3, 81360, Note_on_c, 0, 66, 0
3, 81360, Note_on_c, 0, 71, 49
3, 81360, Note_on_c, 0, 76, 49
3, 81600, Note_on_c, 0, 76, 0
3, 81600, Note_on_c, 0, 71, 0
3, 81600, Note_on_c, 0, 64, 49
3, 81840, Note_on_c, 0, 64, 0
3, 81840, Note_on_c, 0, 65, 49
3, 82080, Note_on_c, 0, 65, 0
3, 82080, Note_on_c, 0, 66, 49
3, 82080, Note_on_c, 0, 71, 49
3, 82320, Note_on_c, 0, 71, 0
3, 82320, Note_on_c, 0, 66, 0
3, 82320, Note_on_c, 0, 61, 49
3, 82560, Note_on_c, 0, 61, 0
3, 82560, Note_on_c, 0, 66, 49
3, 83040, Note_on_c, 0, 66, 0
3, 83040, Note_on_c, 0, 59, 49
3, 83520, Note_on_c, 0, 59, 0
3, 83760, Note_on_c, 0, 58, 49
3, 84240, Note_on_c, 0, 58, 0
3, 84480, Note_on_c, 0, 56, 49
3, 84960, Note_on_c, 0, 56, 0
3, 84960, Note_on_c, 0, 58, 49
3, 85440, Note_on_c, 0, 58, 0
3, 85440, Note_on_c, 0, 58, 49
3, 85680, Note_on_c, 0, 58, 0
3, 85920, Note_on_c, 0, 63, 49
3, 86160, Note_on_c, 0, 63, 0
3, 86160, Note_on_c, 0, 59, 49
3, 86400, Note_on_c, 0, 59, 0
3, 86400, Note_on_c, 0, 65, 49
3, 86880, Note_on_c, 0, 65, 0
3, 86880, Note_on_c, 0, 65, 49
3, 87120, Note_on_c, 0, 65, 0
3, 87360, Note_on_c, 0, 70, 49
3, 87600, Note_on_c, 0, 70, 0
3, 87600, Note_on_c, 0, 67, 49
3, 87840, Note_on_c, 0, 67, 0
3, 87840, Note_on_c, 0, 70, 49
3, 88320, Note_on_c, 0, 70, 0
3, 88320, Note_on_c, 0, 70, 49
3, 88560, Note_on_c, 0, 70, 0
3, 88800, Note_on_c, 0, 75, 49
3, 89040, Note_on_c, 0, 75, 0
3, 89040, Note_on_c, 0, 71, 49
3, 89280, Note_on_c, 0, 71, 0
3, 89280, Note_on_c, 0, 77, 49
3, 89760, Note_on_c, 0, 77, 0
3, 89760, Note_on_c, 0, 77, 49
3, 90000, Note_on_c, 0, 77, 0
3, 90240, Note_on_c, 0, 82, 49
3, 90480, Note_on_c, 0, 82, 0
3, 90480, Note_on_c, 0, 79, 49
3, 90720, Note_on_c, 0, 79, 0
3, 90720, Note_on_c, 0, 77, 49
3, 91200, Note_on_c, 0, 77, 0
3, 91200, Note_on_c, 0, 77, 49
3, 91440, Note_on_c, 0, 77, 0
3, 91680, Note_on_c, 0, 79, 49
3, 91680, Note_on_c, 0, 82, 49
3, 91920, Note_on_c, 0, 82, 0
3, 91920, Note_on_c, 0, 79, 0
3, 106320, Note_on_c, 0, 71, 62
3, 106440, Note_on_c, 0, 71, 0
3, 106440, Note_on_c, 0, 68, 62
3, 106560, Note_on_c, 0, 68, 0
3, 106560, Note_on_c, 0, 73, 62
3, 106680, Note_on_c, 0, 73, 0
3, 106680, Note_on_c, 0, 67, 62
3, 106800, Note_on_c, 0, 67, 0
3, 106800, Note_on_c, 0, 75, 62
3, 107040, Note_on_c, 0, 75, 0
3, 107760, Note_on_c, 0, 71, 62
3, 107880, Note_on_c, 0, 71, 0
3, 107880, Note_on_c, 0, 68, 62
3, 108000, Note_on_c, 0, 68, 0
3, 108000, Note_on_c, 0, 73, 62
3, 108120, Note_on_c, 0, 73, 0
3, 108120, Note_on_c, 0, 67, 62
3, 108240, Note_on_c, 0, 67, 0
3, 108240, Note_on_c, 0, 75, 62
3, 108480, Note_on_c, 0, 75, 0
3, 109200, Note_on_c, 0, 71, 62
3, 109320, Note_on_c, 0, 71, 0
3, 109320, Note_on_c, 0, 68, 62
3, 109440, Note_on_c, 0, 68, 0
3, 109440, Note_on_c, 0, 73, 62
3, 109560, Note_on_c, 0, 73, 0
3, 109560, Note_on_c, 0, 67, 62
3, 109680, Note_on_c, 0, 67, 0
3, 109680, Note_on_c, 0, 75, 62
3, 109800, Note_on_c, 0, 75, 0
3, 109800, Note_on_c, 0, 66, 62
3, 109920, Note_on_c, 0, 66, 0
3, 109920, Note_on_c, 0, 77, 62
3, 110040, Note_on_c, 0, 77, 0
3, 110040, Note_on_c, 0, 71, 62
3, 110160, Note_on_c, 0, 71, 0
3, 110160, Note_on_c, 0, 78, 62
3, 110280, Note_on_c, 0, 78, 0
3, 110280, Note_on_c, 0, 70, 62
3, 110400, Note_on_c, 0, 70, 0
3, 110400, Note_on_c, 0, 80, 62
3, 110520, Note_on_c, 0, 80, 0
3, 110520, Note_on_c, 0, 75, 62
3, 110640, Note_on_c, 0, 75, 0
3, 110640, Note_on_c, 0, 82, 62
3, 110760, Note_on_c, 0, 82, 0
3, 110760, Note_on_c, 0, 74, 62
3, 110880, Note_on_c, 0, 74, 0
3, 110880, Note_on_c, 0, 80, 62
3, 111000, Note_on_c, 0, 80, 0
3, 111000, Note_on_c, 0, 75, 62
3, 111120, Note_on_c, 0, 75, 0
3, 111120, Note_on_c, 0, 82, 62
3, 111240, Note_on_c, 0, 82, 0
3, 111240, Note_on_c, 0, 74, 62
3, 111360, Note_on_c, 0, 74, 0
3, 111360, Note_on_c, 0, 75, 62
3, 111600, Note_on_c, 0, 75, 0
3, 113760, Note_on_c, 0, 56, 62
3, 113760, Note_on_c, 0, 58, 62
3, 114000, Note_on_c, 0, 58, 0
3, 114000, Note_on_c, 0, 56, 0
3, 114000, Note_on_c, 0, 55, 62
3, 114480, Note_on_c, 0, 55, 0
3, 116640, Note_on_c, 0, 56, 49
3, 116640, Note_on_c, 0, 62, 49
3, 116880, Note_on_c, 0, 62, 0
3, 116880, Note_on_c, 0, 56, 0
3, 116880, Note_on_c, 0, 55, 49
3, 117120, Note_on_c, 0, 55, 0
3, 117120, Note_on_c, 0, 56, 49
3, 117120, Note_on_c, 0, 62, 49
3, 117360, Note_on_c, 0, 62, 0
3, 117360, Note_on_c, 0, 56, 0
3, 117360, Note_on_c, 0, 55, 49
3, 117600, Note_on_c, 0, 55, 0
3, 118080, Note_on_c, 0, 62, 62
3, 118320, Note_on_c, 0, 62, 0
3, 118320, Note_on_c, 0, 63, 62
3, 118560, Note_on_c, 0, 63, 0
3, 118560, Note_on_c, 0, 62, 62
3, 118800, Note_on_c, 0, 62, 0
3, 118800, Note_on_c, 0, 63, 62
3, 119040, Note_on_c, 0, 63, 0
3, 119520, Note_on_c, 0, 74, 62
3, 119760, Note_on_c, 0, 74, 0
3, 119760, Note_on_c, 0, 75, 62
3, 120000, Note_on_c, 0, 75, 0
3, 120000, Note_on_c, 0, 74, 62
3, 120240, Note_on_c, 0, 74, 0
3, 120240, Note_on_c, 0, 75, 62
3, 120480, Note_on_c, 0, 75, 0
3, 135120, Note_on_c, 0, 71, 62
3, 135240, Note_on_c, 0, 71, 0
3, 135240, Note_on_c, 0, 68, 62
3, 135360, Note_on_c, 0, 68, 0
3, 135360, Note_on_c, 0, 73, 62
3, 135480, Note_on_c, 0, 73, 0
3, 135480, Note_on_c, 0, 67, 62
3, 135600, Note_on_c, 0, 67, 0
3, 135600, Note_on_c, 0, 75, 62
3, 135840, Note_on_c, 0, 75, 0
3, 136560, Note_on_c, 0, 71, 62
3, 136680, Note_on_c, 0, 71, 0
3, 136680, Note_on_c, 0, 68, 62
3, 136800, Note_on_c, 0, 68, 0
3, 136800, Note_on_c, 0, 73, 62
3, 136920, Note_on_c, 0, 73, 0
3, 136920, Note_on_c, 0, 67, 62
3, 137040, Note_on_c, 0, 67, 0
3, 137040, Note_on_c, 0, 75, 62
3, 137280, Note_on_c, 0, 75, 0
3, 138000, Note_on_c, 0, 68, 49
3, 138120, Note_on_c, 0, 68, 0
3, 138120, Note_on_c, 0, 61, 49
3, 138240, Note_on_c, 0, 61, 0
3, 138240, Note_on_c, 0, 70, 49
3, 138360, Note_on_c, 0, 70, 0
3, 138360, Note_on_c, 0, 64, 49
3, 138480, Note_on_c, 0, 64, 0
3, 138480, Note_on_c, 0, 71, 49
3, 138720, Note_on_c, 0, 71, 0
3, 139440, Note_on_c, 0, 68, 49
3, 139560, Note_on_c, 0, 68, 0
3, 139560, Note_on_c, 0, 61, 49
3, 139680, Note_on_c, 0, 61, 0
3, 139680, Note_on_c, 0, 70, 49
3, 139800, Note_on_c, 0, 70, 0
3, 139800, Note_on_c, 0, 64, 49
3, 139920, Note_on_c, 0, 64, 0
3, 139920, Note_on_c, 0, 71, 49
3, 140160, Note_on_c, 0, 71, 0
3, 144720, Note_on_c, 0, 63, 49
3, 144720, Note_on_c, 0, 70, 49
3, 145200, Note_on_c, 0, 70, 0
3, 145200, Note_on_c, 0, 63, 0
3, 145200, Note_on_c, 0, 63, 49
3, 145200, Note_on_c, 0, 68, 49
3, 145440, Note_on_c, 0, 68, 0
3, 145440, Note_on_c, 0, 63, 0
3, 145440, Note_on_c, 0, 68, 49
3, 145440, Note_on_c, 0, 73, 49
3, 145680, Note_on_c, 0, 73, 0
3, 145680, Note_on_c, 0, 68, 0
3, 145680, Note_on_c, 0, 61, 49
3, 146160, Note_on_c, 0, 61, 0
3, 146160, Note_on_c, 0, 61, 49
3, 146160, Note_on_c, 0, 67, 49
3, 146400, Note_on_c, 0, 67, 0
3, 146400, Note_on_c, 0, 61, 0
3, 146400, Note_on_c, 0, 61, 49
3, 146880, Note_on_c, 0, 61, 0
3, 146880, Note_on_c, 0, 59, 49
3, 147120, Note_on_c, 0, 59, 0
3, 147120, Note_on_c, 0, 59, 49
3, 147600, Note_on_c, 0, 59, 0
3, 147600, Note_on_c, 0, 63, 49
3, 147600, Note_on_c, 0, 70, 49
3, 148080, Note_on_c, 0, 70, 0
3, 148080, Note_on_c, 0, 63, 0
3, 148080, Note_on_c, 0, 63, 49
3, 148080, Note_on_c, 0, 68, 49
3, 148320, Note_on_c, 0, 68, 0
3, 148320, Note_on_c, 0, 63, 0
3, 148320, Note_on_c, 0, 68, 49
3, 148320, Note_on_c, 0, 73, 49
3, 148560, Note_on_c, 0, 73, 0
3, 148560, Note_on_c, 0, 68, 0
3, 148560, Note_on_c, 0, 61, 49
3, 149040, Note_on_c, 0, 61, 0
3, 149040, Note_on_c, 0, 61, 49
3, 149040, Note_on_c, 0, 67, 49
3, 149280, Note_on_c, 0, 67, 0
3, 149280, Note_on_c, 0, 61, 0
3, 149280, Note_on_c, 0, 61, 49
3, 149760, Note_on_c, 0, 61, 0
3, 149760, Note_on_c, 0, 59, 49
3, 150000, Note_on_c, 0, 59, 0
3, 150000, Note_on_c, 0, 59, 49
3, 150480, Note_on_c, 0, 59, 0
3, 150480, End_track
4, 0, Start_track
4, 0, Title_t, "Grand Piano"
4, 0, Program_c, 0, 0
4, 0, Control_c, 0, 7, 115
4, 0, Control_c, 0, 10, 41
4, 240, Note_on_c, 0, 44, 49
4, 480, Note_on_c, 0, 44, 0
4, 480, Note_on_c, 0, 51, 49
4, 480, Note_on_c, 0, 56, 49
4, 480, Note_on_c, 0, 59, 49
4, 720, Note_on_c, 0, 59, 0
4, 720, Note_on_c, 0, 56, 0
4, 720, Note_on_c, 0, 51, 0
4, 960, Note_on_c, 0, 44, 49
4, 1200, Note_on_c, 0, 44, 0
4, 1200, Note_on_c, 0, 52, 49
4, 1200, Note_on_c, 0, 56, 49
4, 1200, Note_on_c, 0, 59, 49
4, 1440, Note_on_c, 0, 59, 0
4, 1440, Note_on_c, 0, 56, 0
4, 1440, Note_on_c, 0, 52, 0
4, 1680, Note_on_c, 0, 44, 49
4, 1920, Note_on_c, 0, 44, 0
4, 1920, Note_on_c, 0, 51, 49
4, 1920, Note_on_c, 0, 56, 49
4, 1920, Note_on_c, 0, 59, 49
4, 2160, Note_on_c, 0, 59, 0
4, 2160, Note_on_c, 0, 56, 0
4, 2160, Note_on_c, 0, 51, 0
4, 2400, Note_on_c, 0, 44, 49
4, 2640, Note_on_c, 0, 44, 0
4, 2640, Note_on_c, 0, 52, 49
4, 2640, Note_on_c, 0, 56, 49
4, 2640, Note_on_c, 0, 59, 49
4, 2880, Note_on_c, 0, 59, 0
4, 2880, Note_on_c, 0, 56, 0
4, 2880, Note_on_c, 0, 52, 0
4, 3120, Note_on_c, 0, 44, 49
4, 3360, Note_on_c, 0, 44, 0
4, 3360, Note_on_c, 0, 51, 49
4, 3360, Note_on_c, 0, 56, 49
4, 3600, Note_on_c, 0, 56, 0
4, 3600, Note_on_c, 0, 51, 0
4, 3840, Note_on_c, 0, 44, 49
4, 4080, Note_on_c, 0, 44, 0
4, 4080, Note_on_c, 0, 52, 49
4, 4080, Note_on_c, 0, 59, 49
4, 4320, Note_on_c, 0, 59, 0
4, 4320, Note_on_c, 0, 52, 0
4, 4440, Control_c, 0, 64, 127
4, 4440, Note_on_c, 0, 44, 49
4, 4560, Note_on_c, 0, 44, 0
4, 4560, Note_on_c, 0, 51, 49
4, 4680, Note_on_c, 0, 51, 0
4, 4680, Note_on_c, 0, 55, 62
4, 4800, Note_on_c, 0, 55, 0
4, 4800, Note_on_c, 0, 56, 62
4, 4920, Note_on_c, 0, 56, 0
4, 4920, Control_c, 0, 64, 0
4, 4920, Note_on_c, 0, 59, 62
4, 5040, Note_on_c, 0, 59, 0
4, 5040, Note_on_c, 0, 63, 62
4, 5160, Note_on_c, 0, 63, 0
4, 6000, Note_on_c, 0, 47, 62
4, 6240, Note_on_c, 0, 47, 0
4, 6240, Note_on_c, 0, 54, 62
4, 6240, Note_on_c, 0, 59, 62
4, 6480, Note_on_c, 0, 59, 0
4, 6480, Note_on_c, 0, 54, 0
4, 6720, Note_on_c, 0, 47, 62
4, 6960, Note_on_c, 0, 47, 0
4, 6960, Note_on_c, 0, 55, 62
4, 6960, Note_on_c, 0, 59, 62
4, 7200, Note_on_c, 0, 59, 0
4, 7200, Note_on_c, 0, 55, 0
4, 7440, Note_on_c, 0, 47, 62
4, 7680, Note_on_c, 0, 47, 0
4, 7680, Note_on_c, 0, 54, 62
4, 7680, Note_on_c, 0, 59, 62
4, 7920, Note_on_c, 0, 59, 0
4, 7920, Note_on_c, 0, 54, 0
4, 8160, Note_on_c, 0, 47, 62
4, 8400, Note_on_c, 0, 47, 0
4, 8400, Note_on_c, 0, 55, 62
4, 8400, Note_on_c, 0, 59, 62
4, 8640, Note_on_c, 0, 59, 0
4, 8640, Note_on_c, 0, 55, 0
4, 8880, Control_c, 0, 64, 127
4, 8880, Note_on_c, 0, 54, 62
4, 9120, Note_on_c, 0, 54, 0
4, 9120, Note_on_c, 0, 56, 62
4, 9360, Note_on_c, 0, 56, 0
4, 9360, Note_on_c, 0, 58, 62
4, 9600, Note_on_c, 0, 58, 0
4, 9600, Control_c, 0, 64, 0
4, 9600, Note_on_c, 0, 59, 62
4, 9840, Note_on_c, 0, 59, 0
4, 9840, Note_on_c, 0, 54, 62
4, 10080, Note_on_c, 0, 54, 0
4, 10320, Control_c, 0, 64, 127
4, 10320, Note_on_c, 0, 54, 62
4, 10560, Note_on_c, 0, 54, 0
4, 10560, Note_on_c, 0, 56, 62
4, 10800, Note_on_c, 0, 56, 0
4, 10800, Note_on_c, 0, 58, 62
4, 11040, Note_on_c, 0, 58, 0
4, 11040, Control_c, 0, 64, 0
4, 11040, Note_on_c, 0, 59, 62
4, 11280, Note_on_c, 0, 59, 0
4, 11280, Note_on_c, 0, 54, 62
4, 11520, Note_on_c, 0, 54, 0
4, 11760, Control_c, 0, 64, 127
4, 11760, Note_on_c, 0, 54, 62
4, 12000, Note_on_c, 0, 54, 0
4, 12000, Note_on_c, 0, 56, 62
4, 12240, Note_on_c, 0, 56, 0
4, 12240, Note_on_c, 0, 58, 62
4, 12480, Note_on_c, 0, 58, 0
4, 12480, Control_c, 0, 64, 0
4, 12480, Note_on_c, 0, 59, 62
4, 12720, Note_on_c, 0, 59, 0
4, 12720, Note_on_c, 0, 56, 62
4, 12720, Note_on_c, 0, 62, 62
4, 12960, Note_on_c, 0, 62, 0
4, 12960, Note_on_c, 0, 56, 0
4, 12960, Note_on_c, 0, 63, 62
4, 13200, Note_on_c, 0, 63, 0
4, 13200, Note_on_c, 0, 65, 62
4, 13680, Note_on_c, 0, 65, 0
4, 13680, Note_on_c, 0, 65, 62
4, 14160, Note_on_c, 0, 65, 0
4, 14160, Note_on_c, 0, 67, 62
4, 14400, Note_on_c, 0, 67, 0
4, 14400, Note_on_c, 0, 61, 75
4, 14400, Note_on_c, 0, 64, 75
4, 14400, Note_on_c, 0, 68, 75
4, 14760, Note_on_c, 0, 68, 0
4, 14760, Note_on_c, 0, 64, 0
4, 14760, Note_on_c, 0, 61, 0
4, 14760, Note_on_c, 0, 56, 75
4, 14783, Note_on_c, 0, 56, 0
4, 14880, Note_on_c, 0, 61, 75
4, 14903, Note_on_c, 0, 61, 0
4, 15000, Note_on_c, 0, 44, 75
4, 15023, Note_on_c, 0, 44, 0
4, 15120, Note_on_c, 0, 56, 62
4, 15360, Note_on_c, 0, 56, 0
4, 15360, Note_on_c, 0, 58, 88
4, 15720, Note_on_c, 0, 58, 0
4, 15720, Note_on_c, 0, 59, 62
4, 15840, Note_on_c, 0, 59, 0
4, 15840, Note_on_c, 0, 61, 62
4, 16080, Note_on_c, 0, 61, 0
4, 16080, Note_on_c, 0, 62, 62
4, 16320, Note_on_c, 0, 62, 0
4, 16320, Note_on_c, 0, 63, 62
4, 16560, Note_on_c, 0, 63, 0
4, 16680, Note_on_c, 0, 46, 62
4, 16703, Note_on_c, 0, 46, 0
4, 16800, Note_on_c, 0, 51, 62
4, 16823, Note_on_c, 0, 51, 0
4, 16920, Note_on_c, 0, 34, 62
4, 16943, Note_on_c, 0, 34, 0
4, 17040, Note_on_c, 0, 39, 62
4, 17087, Note_on_c, 0, 39, 0
4, 17280, Note_on_c, 0, 61, 75
4, 17280, Note_on_c, 0, 64, 75
4, 17280, Note_on_c, 0, 68, 75
4, 17640, Note_on_c, 0, 68, 0
4, 17640, Note_on_c, 0, 64, 0
4, 17640, Note_on_c, 0, 61, 0
4, 17640, Note_on_c, 0, 56, 75
4, 17663, Note_on_c, 0, 56, 0
4, 17760, Note_on_c, 0, 61, 75
4, 17783, Note_on_c, 0, 61, 0
4, 17880, Note_on_c, 0, 44, 75
4, 17903, Note_on_c, 0, 44, 0
4, 18000, Note_on_c, 0, 56, 62
4, 18240, Note_on_c, 0, 56, 0
4, 18240, Note_on_c, 0, 58, 88
4, 18600, Note_on_c, 0, 58, 0
4, 18600, Note_on_c, 0, 59, 62
4, 18720, Note_on_c, 0, 59, 0
4, 18720, Note_on_c, 0, 61, 62
4, 18960, Note_on_c, 0, 61, 0
4, 18960, Note_on_c, 0, 62, 62
4, 19200, Note_on_c, 0, 62, 0
4, 19200, Note_on_c, 0, 63, 62
4, 19440, Note_on_c, 0, 63, 0
4, 19440, Note_on_c, 0, 46, 49
4, 19680, Note_on_c, 0, 46, 0
4, 19680, Note_on_c, 0, 51, 49
4, 19680, Note_on_c, 0, 58, 49
4, 19920, Note_on_c, 0, 58, 0
4, 19920, Note_on_c, 0, 51, 0
4, 19920, Note_on_c, 0, 46, 49
4, 20160, Note_on_c, 0, 46, 0
4, 20160, Note_on_c, 0, 51, 49
4, 20160, Note_on_c, 0, 58, 49
4, 20400, Note_on_c, 0, 58, 0
4, 20400, Note_on_c, 0, 51, 0
4, 20400, Note_on_c, 0, 61, 88
4, 20760, Note_on_c, 0, 61, 0
4, 20760, Note_on_c, 0, 59, 62
4, 20880, Note_on_c, 0, 59, 0
4, 20880, Note_on_c, 0, 58, 49
4, 21000, Note_on_c, 0, 58, 0
4, 21000, Note_on_c, 0, 56, 49
4, 21120, Note_on_c, 0, 56, 0
4, 21120, Note_on_c, 0, 55, 49
4, 21360, Note_on_c, 0, 55, 0
4, 21360, Note_on_c, 0, 58, 49
4, 21480, Note_on_c, 0, 58, 0
4, 21480, Note_on_c, 0, 56, 49
4, 21600, Note_on_c, 0, 56, 0
4, 21600, Note_on_c, 0, 55, 49
4, 21840, Note_on_c, 0, 55, 0
4, 21840, Note_on_c, 0, 73, 88
4, 22200, Note_on_c, 0, 73, 0
4, 22200, Note_on_c, 0, 71, 62
4, 22320, Note_on_c, 0, 71, 0
4, 22320, Note_on_c, 0, 70, 62
4, 22440, Note_on_c, 0, 70, 0
4, 22440, Note_on_c, 0, 68, 62
4, 22560, Note_on_c, 0, 68, 0
4, 22560, Note_on_c, 0, 67, 62
4, 22800, Note_on_c, 0, 67, 0
4, 22800, Note_on_c, 0, 70, 62
4, 22920, Note_on_c, 0, 70, 0
4, 22920, Note_on_c, 0, 68, 62
4, 23040, Note_on_c, 0, 68, 0
4, 23040, Note_on_c, 0, 67, 62
4, 23280, Note_on_c, 0, 67, 0
4, 29040, Note_on_c, 0, 44, 49
4, 29280, Note_on_c, 0, 44, 0
4, 29280, Note_on_c, 0, 51, 49
4, 29280, Note_on_c, 0, 56, 49
4, 29280, Note_on_c, 0, 59, 49
4, 29520, Note_on_c, 0, 59, 0
4, 29520, Note_on_c, 0, 56, 0
4, 29520, Note_on_c, 0, 51, 0
4, 29760, Note_on_c, 0, 44, 49
4, 30000, Note_on_c, 0, 44, 0
4, 30000, Note_on_c, 0, 52, 49
4, 30000, Note_on_c, 0, 56, 49
4, 30000, Note_on_c, 0, 59, 49
4, 30240, Note_on_c, 0, 59, 0
4, 30240, Note_on_c, 0, 56, 0
4, 30240, Note_on_c, 0, 52, 0
4, 30480, Note_on_c, 0, 44, 49
4, 30720, Note_on_c, 0, 44, 0
4, 30720, Note_on_c, 0, 51, 49
4, 30720, Note_on_c, 0, 56, 49
4, 30720, Note_on_c, 0, 59, 49
4, 30960, Note_on_c, 0, 59, 0
4, 30960, Note_on_c, 0, 56, 0
4, 30960, Note_on_c, 0, 51, 0
4, 31200, Note_on_c, 0, 44, 49
4, 31440, Note_on_c, 0, 44, 0
4, 31440, Note_on_c, 0, 52, 49
4, 31440, Note_on_c, 0, 56, 49
4, 31440, Note_on_c, 0, 59, 49
4, 31680, Note_on_c, 0, 59, 0
4, 31680, Note_on_c, 0, 56, 0
4, 31680, Note_on_c, 0, 52, 0
4, 31920, Note_on_c, 0, 44, 49
4, 32160, Note_on_c, 0, 44, 0
4, 32160, Note_on_c, 0, 51, 49
4, 32160, Note_on_c, 0, 56, 49
4, 32400, Note_on_c, 0, 56, 0
4, 32400, Note_on_c, 0, 51, 0
4, 32640, Note_on_c, 0, 44, 49
4, 32880, Note_on_c, 0, 44, 0
4, 32880, Note_on_c, 0, 52, 49
4, 32880, Note_on_c, 0, 59, 49
4, 33120, Note_on_c, 0, 59, 0
4, 33120, Note_on_c, 0, 52, 0
4, 33240, Control_c, 0, 64, 127
4, 33240, Note_on_c, 0, 44, 49
4, 33360, Note_on_c, 0, 44, 0
4, 33360, Note_on_c, 0, 51, 49
4, 33480, Note_on_c, 0, 51, 0
4, 33480, Note_on_c, 0, 55, 62
4, 33600, Note_on_c, 0, 55, 0
4, 33600, Note_on_c, 0, 56, 62
4, 33720, Note_on_c, 0, 56, 0
4, 33720, Control_c, 0, 64, 0
4, 33720, Note_on_c, 0, 59, 62
4, 33840, Note_on_c, 0, 59, 0
4, 33840, Note_on_c, 0, 63, 62
4, 33960, Note_on_c, 0, 63, 0
4, 34800, Note_on_c, 0, 47, 62
4, 35040, Note_on_c, 0, 47, 0
4, 35040, Note_on_c, 0, 54, 62
4, 35040, Note_on_c, 0, 59, 62
4, 35280, Note_on_c, 0, 59, 0
4, 35280, Note_on_c, 0, 54, 0
4, 35520, Note_on_c, 0, 47, 62
4, 35760, Note_on_c, 0, 47, 0
4, 35760, Note_on_c, 0, 55, 62
4, 35760, Note_on_c, 0, 59, 62
4, 36000, Note_on_c, 0, 59, 0
4, 36000, Note_on_c, 0, 55, 0
4, 36240, Note_on_c, 0, 47, 62
4, 36480, Note_on_c, 0, 47, 0
4, 36480, Note_on_c, 0, 54, 62
4, 36480, Note_on_c, 0, 59, 62
4, 36720, Note_on_c, 0, 59, 0
4, 36720, Note_on_c, 0, 54, 0
4, 36960, Note_on_c, 0, 47, 62
4, 37200, Note_on_c, 0, 47, 0
4, 37200, Note_on_c, 0, 55, 62
4, 37200, Note_on_c, 0, 59, 62
4, 37440, Note_on_c, 0, 59, 0
4, 37440, Note_on_c, 0, 55, 0
4, 37680, Control_c, 0, 64, 127
4, 37680, Note_on_c, 0, 54, 62
4, 37920, Note_on_c, 0, 54, 0
4, 37920, Note_on_c, 0, 56, 62
4, 38160, Note_on_c, 0, 56, 0
4, 38160, Note_on_c, 0, 58, 62
4, 38400, Note_on_c, 0, 58, 0
4, 38400, Control_c, 0, 64, 0
4, 38400, Note_on_c, 0, 59, 62
4, 38640, Note_on_c, 0, 59, 0
4, 38640, Note_on_c, 0, 54, 62
4, 38880, Note_on_c, 0, 54, 0
4, 39120, Control_c, 0, 64, 127
4, 39120, Note_on_c, 0, 54, 62
4, 39360, Note_on_c, 0, 54, 0
4, 39360, Note_on_c, 0, 56, 62
4, 39600, Note_on_c, 0, 56, 0
4, 39600, Note_on_c, 0, 58, 62
4, 39840, Note_on_c, 0, 58, 0
4, 39840, Control_c, 0, 64, 0
4, 39840, Note_on_c, 0, 59, 62
4, 40080, Note_on_c, 0, 59, 0
4, 40080, Note_on_c, 0, 51, 49
4, 40320, Note_on_c, 0, 51, 0
4, 40560, Control_c, 0, 64, 127
4, 40560, Note_on_c, 0, 51, 49
4, 40800, Note_on_c, 0, 51, 0
4, 40800, Note_on_c, 0, 52, 49
4, 41040, Note_on_c, 0, 52, 0
4, 41040, Note_on_c, 0, 55, 49
4, 41280, Note_on_c, 0, 55, 0
4, 41280, Control_c, 0, 64, 0
4, 41280, Note_on_c, 0, 56, 49
4, 41520, Note_on_c, 0, 56, 0
4, 41520, Note_on_c, 0, 51, 49
4, 41760, Note_on_c, 0, 51, 0
4, 42000, Control_c, 0, 64, 127
4, 42000, Note_on_c, 0, 51, 49
4, 42240, Note_on_c, 0, 51, 0
4, 42240, Note_on_c, 0, 52, 49
4, 42480, Note_on_c, 0, 52, 0
4, 42480, Note_on_c, 0, 55, 49
4, 42720, Note_on_c, 0, 55, 0
4, 42720, Control_c, 0, 64, 0
4, 42720, Note_on_c, 0, 56, 49
4, 42960, Note_on_c, 0, 56, 0
4, 42960, Note_on_c, 0, 51, 49
4, 43200, Note_on_c, 0, 51, 0
4, 43440, Note_on_c, 0, 56, 49
4, 43680, Note_on_c, 0, 56, 0
4, 43680, Note_on_c, 0, 44, 49
4, 43920, Note_on_c, 0, 44, 0
4, 44160, Note_on_c, 0, 56, 49
4, 44400, Note_on_c, 0, 56, 0
4, 44400, Note_on_c, 0, 44, 49
4, 44640, Note_on_c, 0, 44, 0
4, 47520, Note_on_c, 0, 58, 49
4, 47760, Note_on_c, 0, 58, 0
4, 47760, Note_on_c, 0, 59, 49
4, 48240, Note_on_c, 0, 59, 0
4, 48240, Note_on_c, 0, 58, 49
4, 48480, Note_on_c, 0, 58, 0
4, 48480, Note_on_c, 0, 59, 49
4, 48960, Note_on_c, 0, 59, 0
4, 48960, Note_on_c, 0, 58, 49
4, 49200, Note_on_c, 0, 58, 0
4, 49200, Note_on_c, 0, 59, 49
4, 49680, Note_on_c, 0, 59, 0
4, 49680, Note_on_c, 0, 58, 49
4, 49920, Note_on_c, 0, 58, 0
4, 49920, Note_on_c, 0, 59, 49
4, 50400, Note_on_c, 0, 59, 0
4, 50400, Note_on_c, 0, 58, 49
4, 50400, Note_on_c, 0, 64, 49
4, 50880, Note_on_c, 0, 64, 0
4, 50880, Note_on_c, 0, 58, 0
4, 50880, Note_on_c, 0, 57, 49
4, 50880, Note_on_c, 0, 63, 49
4, 51120, Note_on_c, 0, 63, 0
4, 51120, Note_on_c, 0, 57, 0
4, 51120, Note_on_c, 0, 56, 49
4, 51120, Note_on_c, 0, 59, 49
4, 51120, Note_on_c, 0, 64, 49
4, 51360, Note_on_c, 0, 64, 0
4, 51360, Note_on_c, 0, 59, 0
4, 51360, Note_on_c, 0, 56, 0
4, 51360, Note_on_c, 0, 56, 49
4, 51600, Note_on_c, 0, 56, 0
4, 51600, Note_on_c, 0, 55, 49
4, 51840, Note_on_c, 0, 55, 0
4, 51840, Note_on_c, 0, 54, 49
4, 52080, Note_on_c, 0, 54, 0
4, 52080, Note_on_c, 0, 53, 49
4, 52320, Note_on_c, 0, 53, 0
4, 52320, Note_on_c, 0, 52, 49
4, 52560, Note_on_c, 0, 52, 0
4, 52560, Note_on_c, 0, 51, 49
4, 52800, Note_on_c, 0, 51, 0
4, 52800, Note_on_c, 0, 53, 49
4, 53040, Note_on_c, 0, 53, 0
4, 53040, Note_on_c, 0, 52, 49
4, 53280, Note_on_c, 0, 52, 0
4, 53280, Note_on_c, 0, 51, 49
4, 53520, Note_on_c, 0, 51, 0
4, 53520, Note_on_c, 0, 53, 49
4, 53760, Note_on_c, 0, 53, 0
4, 53760, Note_on_c, 0, 52, 49
4, 54000, Note_on_c, 0, 52, 0
4, 54000, Note_on_c, 0, 51, 49
4, 54240, Note_on_c, 0, 51, 0
4, 54240, Note_on_c, 0, 56, 49
4, 54480, Note_on_c, 0, 56, 0
4, 54480, Note_on_c, 0, 58, 49
4, 54720, Note_on_c, 0, 58, 0
4, 54720, Note_on_c, 0, 58, 49
4, 54960, Note_on_c, 0, 58, 0
4, 54960, Note_on_c, 0, 59, 49
4, 55440, Note_on_c, 0, 59, 0
4, 55440, Note_on_c, 0, 58, 49
4, 55680, Note_on_c, 0, 58, 0
4, 55680, Note_on_c, 0, 59, 49
4, 56160, Note_on_c, 0, 59, 0
4, 56160, Note_on_c, 0, 58, 49
4, 56400, Note_on_c, 0, 58, 0
4, 56400, Note_on_c, 0, 59, 49
4, 56880, Note_on_c, 0, 59, 0
4, 56880, Note_on_c, 0, 58, 49
4, 57120, Note_on_c, 0, 58, 0
4, 57120, Note_on_c, 0, 59, 49
4, 57600, Note_on_c, 0, 59, 0
4, 57600, Note_on_c, 0, 58, 49
4, 57600, Note_on_c, 0, 64, 49
4, 58080, Note_on_c, 0, 64, 0
4, 58080, Note_on_c, 0, 58, 0
4, 58080, Note_on_c, 0, 57, 49
4, 58080, Note_on_c, 0, 63, 49
4, 58320, Note_on_c, 0, 63, 0
4, 58320, Note_on_c, 0, 57, 0
4, 58320, Note_on_c, 0, 56, 49
4, 58320, Note_on_c, 0, 59, 49
4, 58320, Note_on_c, 0, 64, 49
4, 58560, Note_on_c, 0, 64, 0
4, 58560, Note_on_c, 0, 59, 0
4, 58560, Note_on_c, 0, 56, 0
4, 58560, Note_on_c, 0, 56, 49
4, 58800, Note_on_c, 0, 56, 0
4, 58800, Note_on_c, 0, 55, 49
4, 59040, Note_on_c, 0, 55, 0
4, 59040, Note_on_c, 0, 54, 49
4, 59280, Note_on_c, 0, 54, 0
4, 59280, Note_on_c, 0, 53, 49
4, 59520, Note_on_c, 0, 53, 0
4, 59520, Note_on_c, 0, 52, 49
4, 59760, Note_on_c, 0, 52, 0
4, 59760, Note_on_c, 0, 51, 49
4, 60000, Note_on_c, 0, 51, 0
4, 60000, Note_on_c, 0, 52, 49
4, 60240, Note_on_c, 0, 52, 0
4, 60240, Note_on_c, 0, 51, 49
4, 60720, Note_on_c, 0, 51, 0
4, 60720, Note_on_c, 0, 50, 49
4, 60960, Note_on_c, 0, 50, 0
4, 60960, Note_on_c, 0, 49, 49
4, 61200, Note_on_c, 0, 49, 0
4, 61200, Note_on_c, 0, 54, 49
4, 61200, Note_on_c, 0, 58, 49
4, 61200, Note_on_c, 0, 64, 49
4, 61440, Note_on_c, 0, 64, 0
4, 61440, Note_on_c, 0, 58, 0
4, 61440, Note_on_c, 0, 54, 0
4, 61440, Note_on_c, 0, 42, 49
4, 61680, Note_on_c, 0, 42, 0
4, 61680, Note_on_c, 0, 54, 49
4, 61680, Note_on_c, 0, 58, 49
4, 61680, Note_on_c, 0, 64, 49
4, 61920, Note_on_c, 0, 64, 0
4, 61920, Note_on_c, 0, 58, 0
4, 61920, Note_on_c, 0, 54, 0
4, 61920, Note_on_c, 0, 42, 49
4, 62160, Note_on_c, 0, 42, 0
4, 62160, Note_on_c, 0, 54, 49
4, 62160, Note_on_c, 0, 59, 49
4, 62160, Note_on_c, 0, 63, 49
4, 62400, Note_on_c, 0, 63, 0
4, 62400, Note_on_c, 0, 59, 0
4, 62400, Note_on_c, 0, 54, 0
4, 62400, Note_on_c, 0, 42, 49
4, 62640, Note_on_c, 0, 42, 0
4, 62640, Note_on_c, 0, 54, 49
4, 62640, Note_on_c, 0, 59, 49
4, 62640, Note_on_c, 0, 61, 49
4, 62640, Note_on_c, 0, 65, 49
4, 62880, Note_on_c, 0, 65, 0
4, 62880, Note_on_c, 0, 54, 0
4, 62880, Note_on_c, 0, 59, 0
4, 62880, Note_on_c, 0, 61, 0
4, 62880, Note_on_c, 0, 42, 49
4, 63120, Note_on_c, 0, 42, 0
4, 63120, Note_on_c, 0, 54, 49
4, 63120, Note_on_c, 0, 59, 49
4, 63120, Note_on_c, 0, 61, 49
4, 63120, Note_on_c, 0, 65, 49
4, 63360, Note_on_c, 0, 65, 0
4, 63360, Note_on_c, 0, 54, 0
4, 63360, Note_on_c, 0, 59, 0
4, 63360, Note_on_c, 0, 61, 0
4, 63360, Note_on_c, 0, 42, 49
4, 63600, Note_on_c, 0, 42, 0
4, 63600, Note_on_c, 0, 54, 49
4, 63600, Note_on_c, 0, 58, 49
4, 63600, Note_on_c, 0, 61, 49
4, 63600, Note_on_c, 0, 66, 49
4, 63840, Note_on_c, 0, 66, 0
4, 63840, Note_on_c, 0, 54, 0
4, 63840, Note_on_c, 0, 58, 0
4, 63840, Note_on_c, 0, 61, 0
4, 63840, Note_on_c, 0, 42, 49
4, 64080, Note_on_c, 0, 42, 0
4, 64080, Note_on_c, 0, 66, 49
4, 64080, Note_on_c, 0, 70, 49
4, 64080, Note_on_c, 0, 76, 49
4, 64320, Note_on_c, 0, 76, 0
4, 64320, Note_on_c, 0, 70, 0
4, 64320, Note_on_c, 0, 66, 0
4, 64320, Note_on_c, 0, 54, 49
4, 64560, Note_on_c, 0, 54, 0
4, 64560, Note_on_c, 0, 66, 62
4, 64560, Note_on_c, 0, 70, 62
4, 64560, Note_on_c, 0, 76, 62
4, 64800, Note_on_c, 0, 76, 0
4, 64800, Note_on_c, 0, 70, 0
4, 64800, Note_on_c, 0, 66, 0
4, 64800, Note_on_c, 0, 54, 62
4, 65040, Note_on_c, 0, 54, 0
4, 65040, Note_on_c, 0, 66, 62
4, 65040, Note_on_c, 0, 71, 62
4, 65040, Note_on_c, 0, 75, 62
4, 65280, Note_on_c, 0, 75, 0
4, 65280, Note_on_c, 0, 71, 0
4, 65280, Note_on_c, 0, 66, 0
4, 65280, Note_on_c, 0, 54, 62
4, 65520, Note_on_c, 0, 54, 0
4, 65520, Note_on_c, 0, 66, 62
4, 65520, Note_on_c, 0, 71, 62
4, 65520, Note_on_c, 0, 73, 62
4, 65520, Note_on_c, 0, 77, 62
4, 65760, Note_on_c, 0, 77, 0
4, 65760, Note_on_c, 0, 66, 0
4, 65760, Note_on_c, 0, 71, 0
4, 65760, Note_on_c, 0, 73, 0
4, 65760, Note_on_c, 0, 54, 62
4, 66000, Note_on_c, 0, 54, 0
4, 66000, Note_on_c, 0, 66, 62
4, 66000, Note_on_c, 0, 71, 62
4, 66000, Note_on_c, 0, 73, 62
4, 66000, Note_on_c, 0, 77, 62
4, 66240, Note_on_c, 0, 77, 0
4, 66240, Note_on_c, 0, 66, 0
4, 66240, Note_on_c, 0, 71, 0
4, 66240, Note_on_c, 0, 73, 0
4, 66240, Note_on_c, 0, 54, 62
4, 66480, Note_on_c, 0, 54, 0
4, 66480, Note_on_c, 0, 66, 62
4, 66480, Note_on_c, 0, 70, 62
4, 66480, Note_on_c, 0, 73, 62
4, 66480, Note_on_c, 0, 78, 62
4, 66720, Note_on_c, 0, 78, 0
4, 66720, Note_on_c, 0, 66, 0
4, 66720, Note_on_c, 0, 70, 0
4, 66720, Note_on_c, 0, 73, 0
4, 66720, Note_on_c, 0, 54, 62
4, 66960, Note_on_c, 0, 54, 0
4, 66960, Note_on_c, 0, 66, 62
4, 66960, Note_on_c, 0, 71, 62
4, 66960, Note_on_c, 0, 73, 62
4, 66960, Note_on_c, 0, 77, 62
4, 67200, Note_on_c, 0, 77, 0
4, 67200, Note_on_c, 0, 66, 0
4, 67200, Note_on_c, 0, 71, 0
4, 67200, Note_on_c, 0, 73, 0
4, 67200, Note_on_c, 0, 54, 62
4, 67440, Note_on_c, 0, 54, 0
4, 67440, Note_on_c, 0, 66, 62
4, 67440, Note_on_c, 0, 71, 62
4, 67440, Note_on_c, 0, 73, 62
4, 67440, Note_on_c, 0, 77, 62
4, 67680, Note_on_c, 0, 77, 0
4, 67680, Note_on_c, 0, 66, 0
4, 67680, Note_on_c, 0, 71, 0
4, 67680, Note_on_c, 0, 73, 0
4, 67680, Note_on_c, 0, 54, 62
4, 67920, Note_on_c, 0, 54, 0
4, 67920, Note_on_c, 0, 66, 62
4, 67920, Note_on_c, 0, 70, 62
4, 67920, Note_on_c, 0, 73, 62
4, 67920, Note_on_c, 0, 78, 62
4, 68160, Note_on_c, 0, 78, 0
4, 68160, Note_on_c, 0, 66, 0
4, 68160, Note_on_c, 0, 70, 0
4, 68160, Note_on_c, 0, 73, 0
4, 69840, Note_on_c, 0, 68, 62
4, 69863, Note_on_c, 0, 68, 0
4, 69960, Note_on_c, 0, 66, 62
4, 69983, Note_on_c, 0, 66, 0
4, 70080, Note_on_c, 0, 64, 62
4, 70103, Note_on_c, 0, 64, 0
4, 70200, Note_on_c, 0, 63, 62
4, 70223, Note_on_c, 0, 63, 0
4, 70320, Note_on_c, 0, 61, 62
4, 70343, Note_on_c, 0, 61, 0
4, 70440, Note_on_c, 0, 59, 62
4, 70463, Note_on_c, 0, 59, 0
4, 70560, Note_on_c, 0, 58, 49
4, 70800, Note_on_c, 0, 58, 0
4, 70800, Note_on_c, 0, 59, 49
4, 71280, Note_on_c, 0, 59, 0
4, 71280, Note_on_c, 0, 58, 49
4, 71520, Note_on_c, 0, 58, 0
4, 71520, Note_on_c, 0, 59, 49
4, 72000, Note_on_c, 0, 59, 0
4, 72000, Note_on_c, 0, 58, 49
4, 72240, Note_on_c, 0, 58, 0
4, 72240, Note_on_c, 0, 59, 49
4, 72720, Note_on_c, 0, 59, 0
4, 72720, Note_on_c, 0, 58, 49
4, 72960, Note_on_c, 0, 58, 0
4, 72960, Note_on_c, 0, 59, 49
4, 73440, Note_on_c, 0, 59, 0
4, 73440, Note_on_c, 0, 58, 49
4, 73440, Note_on_c, 0, 64, 49
4, 73920, Note_on_c, 0, 64, 0
4, 73920, Note_on_c, 0, 58, 0
4, 73920, Note_on_c, 0, 57, 49
4, 73920, Note_on_c, 0, 63, 49
4, 74160, Note_on_c, 0, 63, 0
4, 74160, Note_on_c, 0, 57, 0
4, 74160, Note_on_c, 0, 56, 49
4, 74160, Note_on_c, 0, 59, 49
4, 74160, Note_on_c, 0, 64, 49
4, 74400, Note_on_c, 0, 64, 0
4, 74400, Note_on_c, 0, 59, 0
4, 74400, Note_on_c, 0, 56, 0
4, 74400, Note_on_c, 0, 56, 49
4, 74640, Note_on_c, 0, 56, 0
4, 74640, Note_on_c, 0, 55, 49
4, 74880, Note_on_c, 0, 55, 0
4, 74880, Note_on_c, 0, 54, 49
4, 75120, Note_on_c, 0, 54, 0
4, 75120, Note_on_c, 0, 53, 49
4, 75360, Note_on_c, 0, 53, 0
4, 75360, Note_on_c, 0, 52, 49
4, 75600, Note_on_c, 0, 52, 0
4, 75600, Note_on_c, 0, 51, 49
4, 75840, Note_on_c, 0, 51, 0
4, 75840, Note_on_c, 0, 53, 49
4, 76080, Note_on_c, 0, 53, 0
4, 76080, Note_on_c, 0, 52, 49
4, 76320, Note_on_c, 0, 52, 0
4, 76320, Note_on_c, 0, 51, 49
4, 76560, Note_on_c, 0, 51, 0
4, 76560, Note_on_c, 0, 53, 49
4, 76800, Note_on_c, 0, 53, 0
4, 76800, Note_on_c, 0, 52, 49
4, 77040, Note_on_c, 0, 52, 0
4, 77040, Note_on_c, 0, 51, 49
4, 77280, Note_on_c, 0, 51, 0
4, 77280, Note_on_c, 0, 56, 49
4, 77520, Note_on_c, 0, 56, 0
4, 77520, Note_on_c, 0, 58, 49
4, 77760, Note_on_c, 0, 58, 0
4, 77760, Note_on_c, 0, 58, 49
4, 78000, Note_on_c, 0, 58, 0
4, 78000, Note_on_c, 0, 59, 49
4, 78480, Note_on_c, 0, 59, 0
4, 78480, Note_on_c, 0, 58, 49
4, 78720, Note_on_c, 0, 58, 0
4, 78720, Note_on_c, 0, 59, 49
4, 79200, Note_on_c, 0, 59, 0
4, 79200, Note_on_c, 0, 58, 49
4, 79440, Note_on_c, 0, 58, 0
4, 79440, Note_on_c, 0, 59, 49
4, 79920, Note_on_c, 0, 59, 0
4, 79920, Note_on_c, 0, 58, 49
4, 80160, Note_on_c, 0, 58, 0
4, 80160, Note_on_c, 0, 59, 49
4, 80640, Note_on_c, 0, 59, 0
4, 80640, Note_on_c, 0, 58, 49
4, 80640, Note_on_c, 0, 64, 49
4, 81120, Note_on_c, 0, 64, 0
4, 81120, Note_on_c, 0, 58, 0
4, 81120, Note_on_c, 0, 57, 49
4, 81120, Note_on_c, 0, 63, 49
4, 81360, Note_on_c, 0, 63, 0
4, 81360, Note_on_c, 0, 57, 0
4, 81360, Note_on_c, 0, 56, 49
4, 81360, Note_on_c, 0, 59, 49
4, 81360, Note_on_c, 0, 64, 49
4, 81600, Note_on_c, 0, 64, 0
4, 81600, Note_on_c, 0, 59, 0
4, 81600, Note_on_c, 0, 56, 0
4, 81600, Note_on_c, 0, 56, 49
4, 81840, Note_on_c, 0, 56, 0
4, 81840, Note_on_c, 0, 55, 49
4, 82080, Note_on_c, 0, 55, 0
4, 82080, Note_on_c, 0, 54, 49
4, 82320, Note_on_c, 0, 54, 0
4, 82320, Note_on_c, 0, 53, 49
4, 82560, Note_on_c, 0, 53, 0
4, 82560, Note_on_c, 0, 52, 49
4, 82800, Note_on_c, 0, 52, 0
4, 82800, Note_on_c, 0, 51, 49
4, 83040, Note_on_c, 0, 51, 0
4, 83040, Note_on_c, 0, 51, 49
4, 83280, Note_on_c, 0, 51, 0
4, 83280, Note_on_c, 0, 49, 49
4, 83760, Note_on_c, 0, 49, 0
4, 83760, Note_on_c, 0, 49, 49
4, 84000, Note_on_c, 0, 49, 0
4, 84000, Note_on_c, 0, 47, 49
4, 84480, Note_on_c, 0, 47, 0
4, 84480, Note_on_c, 0, 47, 49
4, 84720, Note_on_c, 0, 47, 0
4, 84720, Note_on_c, 0, 46, 49
4, 84960, Note_on_c, 0, 46, 0
4, 84960, Note_on_c, 0, 51, 49
4, 84960, Note_on_c, 0, 55, 49
4, 84960, Note_on_c, 0, 61, 49
4, 85200, Note_on_c, 0, 61, 0
4, 85200, Note_on_c, 0, 55, 0
4, 85200, Note_on_c, 0, 51, 0
4, 85200, Note_on_c, 0, 39, 49
4, 85440, Note_on_c, 0, 39, 0
4, 85440, Note_on_c, 0, 51, 49
4, 85440, Note_on_c, 0, 55, 49
4, 85440, Note_on_c, 0, 61, 49
4, 85680, Note_on_c, 0, 61, 0
4, 85680, Note_on_c, 0, 55, 0
4, 85680, Note_on_c, 0, 51, 0
4, 85680, Note_on_c, 0, 39, 49
4, 85920, Note_on_c, 0, 39, 0
4, 85920, Note_on_c, 0, 51, 49
4, 85920, Note_on_c, 0, 56, 49
4, 85920, Note_on_c, 0, 59, 49
4, 86160, Note_on_c, 0, 59, 0
4, 86160, Note_on_c, 0, 56, 0
4, 86160, Note_on_c, 0, 51, 0
4, 86160, Note_on_c, 0, 39, 49
4, 86400, Note_on_c, 0, 39, 0
4, 86400, Note_on_c, 0, 51, 49
4, 86400, Note_on_c, 0, 56, 49
4, 86400, Note_on_c, 0, 58, 49
4, 86400, Note_on_c, 0, 62, 49
4, 86640, Note_on_c, 0, 62, 0
4, 86640, Note_on_c, 0, 51, 0
4, 86640, Note_on_c, 0, 56, 0
4, 86640, Note_on_c, 0, 58, 0
4, 86640, Note_on_c, 0, 39, 49
4, 86880, Note_on_c, 0, 39, 0
4, 86880, Note_on_c, 0, 51, 49
4, 86880, Note_on_c, 0, 56, 49
4, 86880, Note_on_c, 0, 58, 49
4, 86880, Note_on_c, 0, 62, 49
4, 87120, Note_on_c, 0, 62, 0
4, 87120, Note_on_c, 0, 51, 0
4, 87120, Note_on_c, 0, 56, 0
4, 87120, Note_on_c, 0, 58, 0
4, 87120, Note_on_c, 0, 39, 49
4, 87360, Note_on_c, 0, 39, 0
4, 87360, Note_on_c, 0, 51, 49
4, 87360, Note_on_c, 0, 55, 49
4, 87360, Note_on_c, 0, 58, 49
4, 87360, Note_on_c, 0, 63, 49
4, 87600, Note_on_c, 0, 63, 0
4, 87600, Note_on_c, 0, 51, 0
4, 87600, Note_on_c, 0, 55, 0
4, 87600, Note_on_c, 0, 58, 0
4, 87600, Note_on_c, 0, 39, 49
4, 87840, Note_on_c, 0, 39, 0
4, 87840, Note_on_c, 0, 63, 49
4, 87840, Note_on_c, 0, 67, 49
4, 87840, Note_on_c, 0, 73, 49
4, 88080, Note_on_c, 0, 73, 0
4, 88080, Note_on_c, 0, 67, 0
4, 88080, Note_on_c, 0, 63, 0
4, 88080, Note_on_c, 0, 51, 49
4, 88320, Note_on_c, 0, 51, 0
4, 88320, Note_on_c, 0, 63, 49
4, 88320, Note_on_c, 0, 67, 49
4, 88320, Note_on_c, 0, 73, 49
4, 88560, Note_on_c, 0, 73, 0
4, 88560, Note_on_c, 0, 67, 0
4, 88560, Note_on_c, 0, 63, 0
4, 88560, Note_on_c, 0, 51, 49
4, 88800, Note_on_c, 0, 51, 0
4, 88800, Note_on_c, 0, 63, 49
4, 88800, Note_on_c, 0, 68, 49
4, 88800, Note_on_c, 0, 71, 49
4, 89040, Note_on_c, 0, 71, 0
4, 89040, Note_on_c, 0, 68, 0
4, 89040, Note_on_c, 0, 63, 0
4, 89040, Note_on_c, 0, 51, 49
4, 89280, Note_on_c, 0, 51, 0
4, 89280, Note_on_c, 0, 63, 49
4, 89280, Note_on_c, 0, 68, 49
4, 89280, Note_on_c, 0, 70, 49
4, 89280, Note_on_c, 0, 74, 49
4, 89520, Note_on_c, 0, 74, 0
4, 89520, Note_on_c, 0, 63, 0
4, 89520, Note_on_c, 0, 68, 0
4, 89520, Note_on_c, 0, 70, 0
4, 89520, Note_on_c, 0, 51, 49
4, 89760, Note_on_c, 0, 51, 0
4, 89760, Note_on_c, 0, 63, 49
4, 89760, Note_on_c, 0, 68, 49
4, 89760, Note_on_c, 0, 70, 49
4, 89760, Note_on_c, 0, 74, 49
4, 90000, Note_on_c, 0, 74, 0
4, 90000, Note_on_c, 0, 63, 0
4, 90000, Note_on_c, 0, 68, 0
4, 90000, Note_on_c, 0, 70, 0
4, 90000, Note_on_c, 0, 51, 49
4, 90240, Note_on_c, 0, 51, 0
4, 90240, Note_on_c, 0, 63, 49
4, 90240, Note_on_c, 0, 67, 49
4, 90240, Note_on_c, 0, 70, 49
4, 90240, Note_on_c, 0, 75, 49
4, 90480, Note_on_c, 0, 75, 0
4, 90480, Note_on_c, 0, 63, 0
4, 90480, Note_on_c, 0, 67, 0
4, 90480, Note_on_c, 0, 70, 0
4, 90480, Note_on_c, 0, 51, 49
4, 90720, Note_on_c, 0, 51, 0
4, 90720, Note_on_c, 0, 63, 49
4, 90720, Note_on_c, 0, 68, 49
4, 90720, Note_on_c, 0, 70, 49
4, 90720, Note_on_c, 0, 74, 49
4, 90960, Note_on_c, 0, 74, 0
4, 90960, Note_on_c, 0, 63, 0
4, 90960, Note_on_c, 0, 68, 0
4, 90960, Note_on_c, 0, 70, 0
4, 90960, Note_on_c, 0, 51, 49
4, 91200, Note_on_c, 0, 51, 0
4, 91200, Note_on_c, 0, 63, 49
4, 91200, Note_on_c, 0, 68, 49
4, 91200, Note_on_c, 0, 70, 49
4, 91200, Note_on_c, 0, 74, 49
4, 91440, Note_on_c, 0, 74, 0
4, 91440, Note_on_c, 0, 63, 0
4, 91440, Note_on_c, 0, 68, 0
4, 91440, Note_on_c, 0, 70, 0
4, 91440, Note_on_c, 0, 51, 49
4, 91680, Note_on_c, 0, 51, 0
4, 91680, Note_on_c, 0, 63, 49
4, 91680, Note_on_c, 0, 67, 49
4, 91680, Note_on_c, 0, 70, 49
4, 91680, Note_on_c, 0, 75, 49
4, 91920, Note_on_c, 0, 75, 0
4, 91920, Note_on_c, 0, 63, 0
4, 91920, Note_on_c, 0, 67, 0
4, 91920, Note_on_c, 0, 70, 0
4, 94560, Note_on_c, 0, 39, 49
4, 94800, Note_on_c, 0, 39, 0
4, 94800, Note_on_c, 0, 51, 49
4, 94800, Note_on_c, 0, 55, 49
4, 94800, Note_on_c, 0, 61, 49
4, 95040, Note_on_c, 0, 61, 0
4, 95040, Note_on_c, 0, 55, 0
4, 95040, Note_on_c, 0, 51, 0
4, 95280, Note_on_c, 0, 41, 49
4, 95520, Note_on_c, 0, 41, 0
4, 95520, Note_on_c, 0, 53, 49
4, 95520, Note_on_c, 0, 56, 49
4, 95520, Note_on_c, 0, 59, 49
4, 95760, Note_on_c, 0, 59, 0
4, 95760, Note_on_c, 0, 56, 0
4, 95760, Note_on_c, 0, 53, 0
4, 96000, Note_on_c, 0, 42, 49
4, 96240, Note_on_c, 0, 42, 0
4, 96240, Note_on_c, 0, 51, 49
4, 96240, Note_on_c, 0, 58, 49
4, 96240, Note_on_c, 0, 61, 49
4, 96480, Note_on_c, 0, 61, 0
4, 96480, Note_on_c, 0, 58, 0
4, 96480, Note_on_c, 0, 51, 0
4, 96720, Note_on_c, 0, 43, 49
4, 96960, Note_on_c, 0, 43, 0
4, 96960, Note_on_c, 0, 51, 49
4, 96960, Note_on_c, 0, 58, 49
4, 96960, Note_on_c, 0, 61, 49
4, 97200, Note_on_c, 0, 61, 0
4, 97200, Note_on_c, 0, 58, 0
4, 97200, Note_on_c, 0, 51, 0
4, 97440, Note_on_c, 0, 44, 49
4, 97680, Note_on_c, 0, 44, 0
4, 97680, Note_on_c, 0, 51, 49
4, 97680, Note_on_c, 0, 56, 49
4, 97680, Note_on_c, 0, 59, 49
4, 97920, Note_on_c, 0, 59, 0
4, 97920, Note_on_c, 0, 56, 0
4, 97920, Note_on_c, 0, 51, 0
4, 98160, Note_on_c, 0, 44, 49
4, 98400, Note_on_c, 0, 44, 0
4, 98400, Note_on_c, 0, 52, 49
4, 98400, Note_on_c, 0, 56, 49
4, 98400, Note_on_c, 0, 59, 49
4, 98640, Note_on_c, 0, 59, 0
4, 98640, Note_on_c, 0, 56, 0
4, 98640, Note_on_c, 0, 52, 0
4, 98880, Note_on_c, 0, 44, 49
4, 99120, Note_on_c, 0, 44, 0
4, 99120, Note_on_c, 0, 51, 49
4, 99120, Note_on_c, 0, 56, 49
4, 99120, Note_on_c, 0, 59, 49
4, 99360, Note_on_c, 0, 59, 0
4, 99360, Note_on_c, 0, 56, 0
4, 99360, Note_on_c, 0, 51, 0
4, 99600, Note_on_c, 0, 44, 49
4, 99840, Note_on_c, 0, 44, 0
4, 99840, Note_on_c, 0, 52, 49
4, 99840, Note_on_c, 0, 56, 49
4, 99840, Note_on_c, 0, 59, 49
4, 100080, Note_on_c, 0, 59, 0
4, 100080, Note_on_c, 0, 56, 0
4, 100080, Note_on_c, 0, 52, 0
4, 100320, Note_on_c, 0, 44, 49
4, 100560, Note_on_c, 0, 44, 0
4, 100560, Note_on_c, 0, 51, 49
4, 100560, Note_on_c, 0, 56, 49
4, 100800, Note_on_c, 0, 56, 0
4, 100800, Note_on_c, 0, 51, 0
4, 101040, Note_on_c, 0, 44, 49
4, 101280, Note_on_c, 0, 44, 0
4, 101280, Note_on_c, 0, 52, 49
4, 101280, Note_on_c, 0, 59, 49
4, 101520, Note_on_c, 0, 59, 0
4, 101520, Note_on_c, 0, 52, 0
4, 101640, Control_c, 0, 64, 127
4, 101640, Note_on_c, 0, 44, 49
4, 101760, Note_on_c, 0, 44, 0
4, 101760, Note_on_c, 0, 51, 49
4, 101880, Note_on_c, 0, 51, 0
4, 101880, Note_on_c, 0, 55, 49
4, 102000, Note_on_c, 0, 55, 0
4, 102000, Note_on_c, 0, 56, 49
4, 102120, Note_on_c, 0, 56, 0
4, 102120, Control_c, 0, 64, 0
4, 102120, Note_on_c, 0, 59, 49
4, 102240, Note_on_c, 0, 59, 0
4, 102240, Note_on_c, 0, 63, 49
4, 102360, Note_on_c, 0, 63, 0
4, 103200, Note_on_c, 0, 47, 62
4, 103440, Note_on_c, 0, 47, 0
4, 103440, Note_on_c, 0, 54, 62
4, 103440, Note_on_c, 0, 59, 62
4, 103680, Note_on_c, 0, 59, 0
4, 103680, Note_on_c, 0, 54, 0
4, 103920, Note_on_c, 0, 47, 62
4, 104160, Note_on_c, 0, 47, 0
4, 104160, Note_on_c, 0, 55, 62
4, 104160, Note_on_c, 0, 59, 62
4, 104400, Note_on_c, 0, 59, 0
4, 104400, Note_on_c, 0, 55, 0
4, 104640, Note_on_c, 0, 47, 62
4, 104880, Note_on_c, 0, 47, 0
4, 104880, Note_on_c, 0, 54, 62
4, 104880, Note_on_c, 0, 59, 62
4, 105120, Note_on_c, 0, 59, 0
4, 105120, Note_on_c, 0, 54, 0
4, 105360, Note_on_c, 0, 47, 62
4, 105600, Note_on_c, 0, 47, 0
4, 105600, Note_on_c, 0, 55, 62
4, 105600, Note_on_c, 0, 59, 62
4, 105840, Note_on_c, 0, 59, 0
4, 105840, Note_on_c, 0, 55, 0
4, 106080, Control_c, 0, 64, 127
4, 106080, Note_on_c, 0, 54, 62
4, 106320, Note_on_c, 0, 54, 0
4, 106320, Note_on_c, 0, 56, 62
4, 106560, Note_on_c, 0, 56, 0
4, 106560, Note_on_c, 0, 58, 62
4, 106800, Note_on_c, 0, 58, 0
4, 106800, Control_c, 0, 64, 0
4, 106800, Note_on_c, 0, 59, 62
4, 107040, Note_on_c, 0, 59, 0
4, 107040, Note_on_c, 0, 54, 62
4, 107280, Note_on_c, 0, 54, 0
4, 107520, Control_c, 0, 64, 127
4, 107520, Note_on_c, 0, 54, 62
4, 107760, Note_on_c, 0, 54, 0
4, 107760, Note_on_c, 0, 56, 62
4, 108000, Note_on_c, 0, 56, 0
4, 108000, Note_on_c, 0, 58, 62
4, 108240, Note_on_c, 0, 58, 0
4, 108240, Control_c, 0, 64, 0
4, 108240, Note_on_c, 0, 59, 62
4, 108480, Note_on_c, 0, 59, 0
4, 108480, Note_on_c, 0, 54, 62
4, 108720, Note_on_c, 0, 54, 0
4, 108960, Control_c, 0, 64, 127
4, 108960, Note_on_c, 0, 54, 62
4, 109200, Note_on_c, 0, 54, 0
4, 109200, Note_on_c, 0, 56, 62
4, 109440, Note_on_c, 0, 56, 0
4, 109440, Note_on_c, 0, 58, 62
4, 109680, Note_on_c, 0, 58, 0
4, 109680, Control_c, 0, 64, 0
4, 109680, Note_on_c, 0, 59, 62
4, 109920, Note_on_c, 0, 59, 0
4, 109920, Note_on_c, 0, 56, 62
4, 109920, Note_on_c, 0, 62, 62
4, 110160, Note_on_c, 0, 62, 0
4, 110160, Note_on_c, 0, 56, 0
4, 110160, Note_on_c, 0, 63, 62
4, 110400, Note_on_c, 0, 63, 0
4, 110400, Note_on_c, 0, 65, 62
4, 110880, Note_on_c, 0, 65, 0
4, 110880, Note_on_c, 0, 65, 62
4, 111360, Note_on_c, 0, 65, 0
4, 111360, Note_on_c, 0, 67, 62
4, 111600, Note_on_c, 0, 67, 0
4, 111600, Note_on_c, 0, 61, 75
4, 111600, Note_on_c, 0, 64, 75
4, 111600, Note_on_c, 0, 68, 75
4, 111960, Note_on_c, 0, 68, 0
4, 111960, Note_on_c, 0, 64, 0
4, 111960, Note_on_c, 0, 61, 0
4, 111960, Note_on_c, 0, 56, 75
4, 111983, Note_on_c, 0, 56, 0
4, 112080, Note_on_c, 0, 61, 75
4, 112103, Note_on_c, 0, 61, 0
4, 112200, Note_on_c, 0, 44, 75
4, 112223, Note_on_c, 0, 44, 0
4, 112320, Note_on_c, 0, 56, 62
4, 112560, Note_on_c, 0, 56, 0
4, 112560, Note_on_c, 0, 58, 88
4, 112920, Note_on_c, 0, 58, 0
4, 112920, Note_on_c, 0, 59, 62
4, 113040, Note_on_c, 0, 59, 0
4, 113040, Note_on_c, 0, 61, 62
4, 113280, Note_on_c, 0, 61, 0
4, 113280, Note_on_c, 0, 62, 62
4, 113520, Note_on_c, 0, 62, 0
4, 113520, Note_on_c, 0, 63, 62
4, 113760, Note_on_c, 0, 63, 0
4, 113880, Note_on_c, 0, 46, 62
4, 113903, Note_on_c, 0, 46, 0
4, 114000, Note_on_c, 0, 51, 62
4, 114023, Note_on_c, 0, 51, 0
4, 114120, Note_on_c, 0, 34, 62
4, 114143, Note_on_c, 0, 34, 0
4, 114240, Note_on_c, 0, 39, 62
4, 114287, Note_on_c, 0, 39, 0
4, 114480, Note_on_c, 0, 61, 75
4, 114480, Note_on_c, 0, 64, 75
4, 114480, Note_on_c, 0, 68, 75
4, 114840, Note_on_c, 0, 68, 0
4, 114840, Note_on_c, 0, 64, 0
4, 114840, Note_on_c, 0, 61, 0
4, 114840, Note_on_c, 0, 56, 75
4, 114863, Note_on_c, 0, 56, 0
4, 114960, Note_on_c, 0, 61, 75
4, 114983, Note_on_c, 0, 61, 0
4, 115080, Note_on_c, 0, 44, 75
4, 115103, Note_on_c, 0, 44, 0
4, 115200, Note_on_c, 0, 56, 62
4, 115440, Note_on_c, 0, 56, 0
4, 115440, Note_on_c, 0, 58, 88
4, 115800, Note_on_c, 0, 58, 0
4, 115800, Note_on_c, 0, 59, 62
4, 115920, Note_on_c, 0, 59, 0
4, 115920, Note_on_c, 0, 61, 62
4, 116160, Note_on_c, 0, 61, 0
4, 116160, Note_on_c, 0, 62, 62
4, 116400, Note_on_c, 0, 62, 0
4, 116400, Note_on_c, 0, 63, 62
4, 116640, Note_on_c, 0, 63, 0
4, 116640, Note_on_c, 0, 46, 49
4, 116880, Note_on_c, 0, 46, 0
4, 116880, Note_on_c, 0, 51, 49
4, 116880, Note_on_c, 0, 58, 49
4, 117120, Note_on_c, 0, 58, 0
4, 117120, Note_on_c, 0, 51, 0
4, 117120, Note_on_c, 0, 46, 49
4, 117360, Note_on_c, 0, 46, 0
4, 117360, Note_on_c, 0, 51, 49
4, 117360, Note_on_c, 0, 58, 49
4, 117600, Note_on_c, 0, 58, 0
4, 117600, Note_on_c, 0, 51, 0
4, 117600, Note_on_c, 0, 61, 88
4, 117960, Note_on_c, 0, 61, 0
4, 117960, Note_on_c, 0, 59, 62
4, 118080, Note_on_c, 0, 59, 0
4, 118080, Note_on_c, 0, 58, 49
4, 118200, Note_on_c, 0, 58, 0
4, 118200, Note_on_c, 0, 56, 49
4, 118320, Note_on_c, 0, 56, 0
4, 118320, Note_on_c, 0, 55, 49
4, 118560, Note_on_c, 0, 55, 0
4, 118560, Note_on_c, 0, 58, 49
4, 118680, Note_on_c, 0, 58, 0
4, 118680, Note_on_c, 0, 56, 49
4, 118800, Note_on_c, 0, 56, 0
4, 118800, Note_on_c, 0, 55, 49
4, 119040, Note_on_c, 0, 55, 0
4, 119040, Note_on_c, 0, 73, 88
4, 119400, Note_on_c, 0, 73, 0
4, 119400, Note_on_c, 0, 71, 62
4, 119520, Note_on_c, 0, 71, 0
4, 119520, Note_on_c, 0, 70, 62
4, 119640, Note_on_c, 0, 70, 0
4, 119640, Note_on_c, 0, 68, 62
4, 119760, Note_on_c, 0, 68, 0
4, 119760, Note_on_c, 0, 67, 62
4, 120000, Note_on_c, 0, 67, 0
4, 120000, Note_on_c, 0, 70, 62
4, 120120, Note_on_c, 0, 70, 0
4, 120120, Note_on_c, 0, 68, 62
4, 120240, Note_on_c, 0, 68, 0
4, 120240, Note_on_c, 0, 67, 62
4, 120480, Note_on_c, 0, 67, 0
4, 126240, Note_on_c, 0, 44, 49
4, 126480, Note_on_c, 0, 44, 0
4, 126480, Note_on_c, 0, 51, 49
4, 126480, Note_on_c, 0, 56, 49
4, 126480, Note_on_c, 0, 59, 49
4, 126720, Note_on_c, 0, 59, 0
4, 126720, Note_on_c, 0, 56, 0
4, 126720, Note_on_c, 0, 51, 0
4, 126960, Note_on_c, 0, 44, 49
4, 127200, Note_on_c, 0, 44, 0
4, 127200, Note_on_c, 0, 52, 49
4, 127200, Note_on_c, 0, 56, 49
4, 127200, Note_on_c, 0, 59, 49
4, 127440, Note_on_c, 0, 59, 0
4, 127440, Note_on_c, 0, 56, 0
4, 127440, Note_on_c, 0, 52, 0
4, 127680, Note_on_c, 0, 44, 49
4, 127920, Note_on_c, 0, 44, 0
4, 127920, Note_on_c, 0, 51, 49
4, 127920, Note_on_c, 0, 56, 49
4, 127920, Note_on_c, 0, 59, 49
4, 128160, Note_on_c, 0, 59, 0
4, 128160, Note_on_c, 0, 56, 0
4, 128160, Note_on_c, 0, 51, 0
4, 128400, Note_on_c, 0, 44, 49
4, 128640, Note_on_c, 0, 44, 0
4, 128640, Note_on_c, 0, 52, 49
4, 128640, Note_on_c, 0, 56, 49
4, 128640, Note_on_c, 0, 59, 49
4, 128880, Note_on_c, 0, 59, 0
4, 128880, Note_on_c, 0, 56, 0
4, 128880, Note_on_c, 0, 52, 0
4, 129120, Note_on_c, 0, 44, 49
4, 129360, Note_on_c, 0, 44, 0
4, 129360, Note_on_c, 0, 51, 49
4, 129360, Note_on_c, 0, 56, 49
4, 129600, Note_on_c, 0, 56, 0
4, 129600, Note_on_c, 0, 51, 0
4, 129840, Note_on_c, 0, 44, 49
4, 130080, Note_on_c, 0, 44, 0
4, 130080, Note_on_c, 0, 52, 49
4, 130080, Note_on_c, 0, 59, 49
4, 130320, Note_on_c, 0, 59, 0
4, 130320, Note_on_c, 0, 52, 0
4, 130440, Control_c, 0, 64, 127
4, 130440, Note_on_c, 0, 44, 49
4, 130560, Note_on_c, 0, 44, 0
4, 130560, Note_on_c, 0, 51, 49
4, 130680, Note_on_c, 0, 51, 0
4, 130680, Note_on_c, 0, 55, 62
4, 130800, Note_on_c, 0, 55, 0
4, 130800, Note_on_c, 0, 56, 62
4, 130920, Note_on_c, 0, 56, 0
4, 130920, Control_c, 0, 64, 0
4, 130920, Note_on_c, 0, 59, 62
4, 131040, Note_on_c, 0, 59, 0
4, 131040, Note_on_c, 0, 63, 62
4, 131160, Note_on_c, 0, 63, 0
4, 132000, Note_on_c, 0, 47, 62
4, 132240, Note_on_c, 0, 47, 0
4, 132240, Note_on_c, 0, 54, 62
4, 132240, Note_on_c, 0, 59, 62
4, 132480, Note_on_c, 0, 59, 0
4, 132480, Note_on_c, 0, 54, 0
4, 132720, Note_on_c, 0, 47, 62
4, 132960, Note_on_c, 0, 47, 0
4, 132960, Note_on_c, 0, 55, 62
4, 132960, Note_on_c, 0, 59, 62
4, 133200, Note_on_c, 0, 59, 0
4, 133200, Note_on_c, 0, 55, 0
4, 133440, Note_on_c, 0, 47, 62
4, 133680, Note_on_c, 0, 47, 0
4, 133680, Note_on_c, 0, 54, 62
4, 133680, Note_on_c, 0, 59, 62
4, 133920, Note_on_c, 0, 59, 0
4, 133920, Note_on_c, 0, 54, 0
4, 134160, Note_on_c, 0, 47, 62
4, 134400, Note_on_c, 0, 47, 0
4, 134400, Note_on_c, 0, 55, 62
4, 134400, Note_on_c, 0, 59, 62
4, 134640, Note_on_c, 0, 59, 0
4, 134640, Note_on_c, 0, 55, 0
4, 134880, Control_c, 0, 64, 127
4, 134880, Note_on_c, 0, 54, 62
4, 135120, Note_on_c, 0, 54, 0
4, 135120, Note_on_c, 0, 56, 62
4, 135360, Note_on_c, 0, 56, 0
4, 135360, Note_on_c, 0, 58, 62
4, 135600, Note_on_c, 0, 58, 0
4, 135600, Control_c, 0, 64, 0
4, 135600, Note_on_c, 0, 59, 62
4, 135840, Note_on_c, 0, 59, 0
4, 135840, Note_on_c, 0, 54, 62
4, 136080, Note_on_c, 0, 54, 0
4, 136320, Control_c, 0, 64, 127
4, 136320, Note_on_c, 0, 54, 62
4, 136560, Note_on_c, 0, 54, 0
4, 136560, Note_on_c, 0, 56, 62
4, 136800, Note_on_c, 0, 56, 0
4, 136800, Note_on_c, 0, 58, 62
4, 137040, Note_on_c, 0, 58, 0
4, 137040, Control_c, 0, 64, 0
4, 137040, Note_on_c, 0, 59, 62
4, 137280, Note_on_c, 0, 59, 0
4, 137280, Note_on_c, 0, 51, 49
4, 137520, Note_on_c, 0, 51, 0
4, 137760, Control_c, 0, 64, 127
4, 137760, Note_on_c, 0, 51, 49
4, 138000, Note_on_c, 0, 51, 0
4, 138000, Note_on_c, 0, 52, 49
4, 138240, Note_on_c, 0, 52, 0
4, 138240, Note_on_c, 0, 55, 49
4, 138480, Note_on_c, 0, 55, 0
4, 138480, Control_c, 0, 64, 0
4, 138480, Note_on_c, 0, 56, 49
4, 138720, Note_on_c, 0, 56, 0
4, 138720, Note_on_c, 0, 51, 49
4, 138960, Note_on_c, 0, 51, 0
4, 139200, Control_c, 0, 64, 127
4, 139200, Note_on_c, 0, 51, 49
4, 139440, Note_on_c, 0, 51, 0
4, 139440, Note_on_c, 0, 52, 49
4, 139680, Note_on_c, 0, 52, 0
4, 139680, Note_on_c, 0, 55, 49
4, 139920, Note_on_c, 0, 55, 0
4, 139920, Control_c, 0, 64, 0
4, 139920, Note_on_c, 0, 56, 49
4, 140160, Note_on_c, 0, 56, 0
4, 140160, Note_on_c, 0, 51, 49
4, 140400, Note_on_c, 0, 51, 0
4, 140640, Note_on_c, 0, 56, 49
4, 140880, Note_on_c, 0, 56, 0
4, 140880, Note_on_c, 0, 44, 49
4, 141120, Note_on_c, 0, 44, 0
4, 141360, Note_on_c, 0, 56, 49
4, 141600, Note_on_c, 0, 56, 0
4, 141600, Note_on_c, 0, 44, 49
4, 141840, Note_on_c, 0, 44, 0
4, 144720, Note_on_c, 0, 55, 49
4, 144720, Note_on_c, 0, 61, 49
4, 145200, Note_on_c, 0, 61, 0
4, 145200, Note_on_c, 0, 55, 0
4, 145200, Note_on_c, 0, 56, 49
4, 145200, Note_on_c, 0, 60, 49
4, 145440, Note_on_c, 0, 60, 0
4, 145440, Note_on_c, 0, 56, 0
4, 145440, Note_on_c, 0, 56, 49
4, 145440, Note_on_c, 0, 61, 49
4, 145920, Note_on_c, 0, 61, 0
4, 145920, Note_on_c, 0, 56, 0
4, 145920, Note_on_c, 0, 56, 49
4, 146160, Note_on_c, 0, 56, 0
4, 147600, Note_on_c, 0, 55, 49
4, 147600, Note_on_c, 0, 61, 49
4, 148080, Note_on_c, 0, 61, 0
4, 148080, Note_on_c, 0, 55, 0
4, 148080, Note_on_c, 0, 56, 49
4, 148080, Note_on_c, 0, 60, 49
4, 148320, Note_on_c, 0, 60, 0
4, 148320, Note_on_c, 0, 56, 0
4, 148320, Note_on_c, 0, 56, 49
4, 148320, Note_on_c, 0, 61, 49
4, 148800, Note_on_c, 0, 61, 0
4, 148800, Note_on_c, 0, 56, 0
4, 148800, Note_on_c, 0, 56, 49
4, 149040, Note_on_c, 0, 56, 0
4, 150480, Note_on_c, 0, 63, 49
4, 150503, Note_on_c, 0, 63, 0
4, 150600, Note_on_c, 0, 63, 49
4, 150623, Note_on_c, 0, 63, 0
4, 150720, Note_on_c, 0, 53, 49
4, 151080, Note_on_c, 0, 53, 0
4, 151080, Note_on_c, 0, 55, 49
4, 151200, Note_on_c, 0, 55, 0
4, 151200, Note_on_c, 0, 56, 49
4, 151320, Note_on_c, 0, 56, 0
4, 151320, Note_on_c, 0, 52, 49
4, 151359, Note_on_c, 0, 52, 0
4, 151359, Note_on_c, 0, 54, 49
4, 151400, Note_on_c, 0, 54, 0
4, 151400, Note_on_c, 0, 52, 49
4, 151440, Note_on_c, 0, 52, 0
4, 151440, Note_on_c, 0, 51, 49
4, 151920, Note_on_c, 0, 51, 0
4, 151920, Note_on_c, 0, 63, 49
4, 151943, Note_on_c, 0, 63, 0
4, 152040, Note_on_c, 0, 63, 49
4, 152063, Note_on_c, 0, 63, 0
4, 152160, Note_on_c, 0, 53, 49
4, 152520, Note_on_c, 0, 53, 0
4, 152520, Note_on_c, 0, 55, 49
4, 152640, Note_on_c, 0, 55, 0
4, 152640, Note_on_c, 0, 56, 49
4, 152760, Note_on_c, 0, 56, 0
4, 152760, Note_on_c, 0, 52, 49
4, 152799, Note_on_c, 0, 52, 0
4, 152799, Note_on_c, 0, 54, 49
4, 152840, Note_on_c, 0, 54, 0
4, 152840, Note_on_c, 0, 52, 49
4, 152880, Note_on_c, 0, 52, 0
4, 152880, Note_on_c, 0, 51, 49
4, 153360, Note_on_c, 0, 51, 0
4, 153480, Note_on_c, 0, 52, 49
4, 153519, Note_on_c, 0, 52, 0
4, 153519, Note_on_c, 0, 54, 49
4, 153560, Note_on_c, 0, 54, 0
4, 153560, Note_on_c, 0, 52, 49
4, 153600, Note_on_c, 0, 52, 0
4, 153600, Note_on_c, 0, 51, 49
4, 154080, Note_on_c, 0, 51, 0
4, 154200, Note_on_c, 0, 52, 49
4, 154239, Note_on_c, 0, 52, 0
4, 154239, Note_on_c, 0, 54, 49
4, 154280, Note_on_c, 0, 54, 0
4, 154280, Note_on_c, 0, 52, 49
4, 154320, Note_on_c, 0, 52, 0
4, 154320, Note_on_c, 0, 51, 49
4, 154920, Note_on_c, 0, 51, 0
4, 154920, Note_on_c, 0, 56, 49
4, 154943, Note_on_c, 0, 56, 0
4, 155040, Note_on_c, 0, 52, 49
4, 155063, Note_on_c, 0, 52, 0
4, 155160, Note_on_c, 0, 51, 49
4, 155183, Note_on_c, 0, 51, 0
4, 155280, Note_on_c, 0, 49, 49
4, 155303, Note_on_c, 0, 49, 0
4, 155400, Note_on_c, 0, 47, 49
4, 155423, Note_on_c, 0, 47, 0
4, 155520, Note_on_c, 0, 46, 49
4, 155640, Note_on_c, 0, 46, 0
4, 155640, Note_on_c, 0, 47, 49
4, 155760, Note_on_c, 0, 47, 0
4, 155760, Note_on_c, 0, 44, 49
4, 156240, Note_on_c, 0, 44, 0
4, 156240, Note_on_c, 0, 47, 49
4, 156263, Note_on_c, 0, 47, 0
4, 156360, Note_on_c, 0, 46, 49
4, 156399, Note_on_c, 0, 46, 0
4, 156399, Note_on_c, 0, 47, 49
4, 156440, Note_on_c, 0, 47, 0
4, 156440, Note_on_c, 0, 46, 49
4, 156480, Note_on_c, 0, 46, 0
4, 156480, Note_on_c, 0, 44, 49
4, 158640, Note_on_c, 0, 44, 0
4, 158640, End_track
5, 0, Start_track
5, 0, Title_t, "Grand Piano"
5, 0, Program_c, 0, 0
5, 0, Control_c, 0, 7, 115
5, 0, Control_c, 0, 10, 47
5, 8880, Note_on_c, 0, 47, 75
5, 9120, Note_on_c, 0, 47, 0
5, 9360, Note_on_c, 0, 52, 75
5, 9600, Note_on_c, 0, 52, 0
5, 9840, Note_on_c, 0, 47, 75
5, 10080, Note_on_c, 0, 47, 0
5, 10320, Note_on_c, 0, 47, 75
5, 10560, Note_on_c, 0, 47, 0
5, 10800, Note_on_c, 0, 52, 75
5, 11040, Note_on_c, 0, 52, 0
5, 11280, Note_on_c, 0, 47, 75
5, 11520, Note_on_c, 0, 47, 0
5, 11760, Note_on_c, 0, 47, 75
5, 12000, Note_on_c, 0, 47, 0
5, 12240, Note_on_c, 0, 52, 75
5, 12480, Note_on_c, 0, 52, 0
5, 13200, Note_on_c, 0, 59, 75
5, 13440, Note_on_c, 0, 59, 0
5, 13440, Note_on_c, 0, 58, 75
5, 13680, Note_on_c, 0, 58, 0
5, 13680, Note_on_c, 0, 59, 75
5, 13920, Note_on_c, 0, 59, 0
5, 13920, Note_on_c, 0, 58, 75
5, 14160, Note_on_c, 0, 58, 0
5, 14160, Note_on_c, 0, 63, 75
5, 14400, Note_on_c, 0, 63, 0
5, 15120, Note_on_c, 0, 49, 62
5, 15120, Note_on_c, 0, 52, 62
5, 15360, Note_on_c, 0, 52, 0
5, 15360, Note_on_c, 0, 49, 0
5, 15360, Note_on_c, 0, 52, 62
5, 15360, Note_on_c, 0, 56, 62
5, 16320, Note_on_c, 0, 56, 0
5, 16320, Note_on_c, 0, 52, 0
5, 16320, Note_on_c, 0, 51, 62
5, 16320, Note_on_c, 0, 58, 62
5, 16560, Note_on_c, 0, 58, 0
5, 16560, Note_on_c, 0, 51, 0
5, 18000, Note_on_c, 0, 49, 62
5, 18000, Note_on_c, 0, 52, 62
5, 18240, Note_on_c, 0, 52, 0
5, 18240, Note_on_c, 0, 49, 0
5, 18240, Note_on_c, 0, 52, 62
5, 18240, Note_on_c, 0, 56, 62
5, 19200, Note_on_c, 0, 56, 0
5, 19200, Note_on_c, 0, 52, 0
5, 19200, Note_on_c, 0, 51, 62
5, 19200, Note_on_c, 0, 58, 62
5, 19440, Note_on_c, 0, 58, 0
5, 19440, Note_on_c, 0, 51, 0
5, 20880, Note_on_c, 0, 51, 62
5, 21360, Note_on_c, 0, 51, 0
5, 21360, Note_on_c, 0, 51, 62
5, 21840, Note_on_c, 0, 51, 0
5, 22320, Note_on_c, 0, 63, 62
5, 22800, Note_on_c, 0, 63, 0
5, 22800, Note_on_c, 0, 63, 62
5, 23280, Note_on_c, 0, 63, 0
5, 37680, Note_on_c, 0, 47, 75
5, 37920, Note_on_c, 0, 47, 0
5, 38160, Note_on_c, 0, 52, 75
5, 38400, Note_on_c, 0, 52, 0
5, 38640, Note_on_c, 0, 47, 75
5, 38880, Note_on_c, 0, 47, 0
5, 39120, Note_on_c, 0, 47, 75
5, 39360, Note_on_c, 0, 47, 0
5, 39600, Note_on_c, 0, 52, 75
5, 39840, Note_on_c, 0, 52, 0
5, 40080, Note_on_c, 0, 44, 62
5, 40320, Note_on_c, 0, 44, 0
5, 40560, Note_on_c, 0, 44, 62
5, 40800, Note_on_c, 0, 44, 0
5, 41040, Note_on_c, 0, 49, 62
5, 41280, Note_on_c, 0, 49, 0
5, 41520, Note_on_c, 0, 44, 62
5, 41760, Note_on_c, 0, 44, 0
5, 42000, Note_on_c, 0, 44, 62
5, 42240, Note_on_c, 0, 44, 0
5, 42480, Note_on_c, 0, 49, 62
5, 42720, Note_on_c, 0, 49, 0
5, 42960, Note_on_c, 0, 44, 49
5, 43200, Note_on_c, 0, 44, 0
5, 43440, Note_on_c, 0, 52, 49
5, 43680, Note_on_c, 0, 52, 0
5, 43680, Note_on_c, 0, 51, 49
5, 43920, Note_on_c, 0, 51, 0
5, 44160, Note_on_c, 0, 52, 49
5, 44400, Note_on_c, 0, 52, 0
5, 44400, Note_on_c, 0, 51, 49
5, 44640, Note_on_c, 0, 51, 0
5, 47520, Note_on_c, 0, 47, 49
5, 47520, Note_on_c, 0, 54, 49
5, 47760, Note_on_c, 0, 54, 0
5, 47760, Note_on_c, 0, 47, 0
5, 48240, Note_on_c, 0, 47, 49
5, 48240, Note_on_c, 0, 54, 49
5, 48480, Note_on_c, 0, 54, 0
5, 48480, Note_on_c, 0, 47, 0
5, 48960, Note_on_c, 0, 47, 49
5, 48960, Note_on_c, 0, 54, 49
5, 49200, Note_on_c, 0, 54, 0
5, 49200, Note_on_c, 0, 47, 0
5, 49680, Note_on_c, 0, 47, 49
5, 49680, Note_on_c, 0, 54, 49
5, 49920, Note_on_c, 0, 54, 0
5, 49920, Note_on_c, 0, 47, 0
5, 50640, Note_on_c, 0, 47, 49
5, 50880, Note_on_c, 0, 47, 0
5, 51360, Note_on_c, 0, 47, 49
5, 52080, Note_on_c, 0, 47, 0
5, 52080, Note_on_c, 0, 47, 49
5, 52800, Note_on_c, 0, 47, 0
5, 52800, Note_on_c, 0, 47, 49
5, 54000, Note_on_c, 0, 47, 0
5, 54000, Note_on_c, 0, 47, 49
5, 54240, Note_on_c, 0, 47, 0
5, 54240, Note_on_c, 0, 52, 49
5, 54480, Note_on_c, 0, 52, 0
5, 54480, Note_on_c, 0, 51, 49
5, 54720, Note_on_c, 0, 51, 0
5, 54720, Note_on_c, 0, 47, 49
5, 54720, Note_on_c, 0, 54, 49
5, 54960, Note_on_c, 0, 54, 0
5, 54960, Note_on_c, 0, 47, 0
5, 55440, Note_on_c, 0, 47, 49
5, 55440, Note_on_c, 0, 54, 49
5, 55680, Note_on_c, 0, 54, 0
5, 55680, Note_on_c, 0, 47, 0
5, 56160, Note_on_c, 0, 47, 49
5, 56160, Note_on_c, 0, 54, 49
5, 56400, Note_on_c, 0, 54, 0
5, 56400, Note_on_c, 0, 47, 0
5, 56880, Note_on_c, 0, 47, 49
5, 56880, Note_on_c, 0, 54, 49
5, 57120, Note_on_c, 0, 54, 0
5, 57120, Note_on_c, 0, 47, 0
5, 57840, Note_on_c, 0, 47, 49
5, 58080, Note_on_c, 0, 47, 0
5, 58560, Note_on_c, 0, 47, 49
5, 59280, Note_on_c, 0, 47, 0
5, 59280, Note_on_c, 0, 47, 49
5, 60000, Note_on_c, 0, 47, 0
5, 60000, Note_on_c, 0, 46, 49
5, 60480, Note_on_c, 0, 46, 0
5, 60480, Note_on_c, 0, 44, 49
5, 61200, Note_on_c, 0, 44, 0
5, 70560, Note_on_c, 0, 47, 49
5, 70560, Note_on_c, 0, 54, 49
5, 70800, Note_on_c, 0, 54, 0
5, 70800, Note_on_c, 0, 47, 0
5, 71280, Note_on_c, 0, 47, 49
5, 71280, Note_on_c, 0, 54, 49
5, 71520, Note_on_c, 0, 54, 0
5, 71520, Note_on_c, 0, 47, 0
5, 72000, Note_on_c, 0, 47, 49
5, 72000, Note_on_c, 0, 54, 49
5, 72240, Note_on_c, 0, 54, 0
5, 72240, Note_on_c, 0, 47, 0
5, 72720, Note_on_c, 0, 47, 49
5, 72720, Note_on_c, 0, 54, 49
5, 72960, Note_on_c, 0, 54, 0
5, 72960, Note_on_c, 0, 47, 0
5, 73680, Note_on_c, 0, 47, 49
5, 73920, Note_on_c, 0, 47, 0
5, 74400, Note_on_c, 0, 47, 49
5, 75120, Note_on_c, 0, 47, 0
5, 75120, Note_on_c, 0, 47, 49
5, 75840, Note_on_c, 0, 47, 0
5, 75840, Note_on_c, 0, 47, 49
5, 77040, Note_on_c, 0, 47, 0
5, 77040, Note_on_c, 0, 47, 49
5, 77280, Note_on_c, 0, 47, 0
5, 77280, Note_on_c, 0, 52, 49
5, 77520, Note_on_c, 0, 52, 0
5, 77520, Note_on_c, 0, 51, 49
5, 77760, Note_on_c, 0, 51, 0
5, 77760, Note_on_c, 0, 47, 49
5, 77760, Note_on_c, 0, 54, 49
5, 78000, Note_on_c, 0, 54, 0
5, 78000, Note_on_c, 0, 47, 0
5, 78480, Note_on_c, 0, 47, 49
5, 78480, Note_on_c, 0, 54, 49
5, 78720, Note_on_c, 0, 54, 0
5, 78720, Note_on_c, 0, 47, 0
5, 79200, Note_on_c, 0, 47, 49
5, 79200, Note_on_c, 0, 54, 49
5, 79440, Note_on_c, 0, 54, 0
5, 79440, Note_on_c, 0, 47, 0
5, 79920, Note_on_c, 0, 47, 49
5, 79920, Note_on_c, 0, 54, 49
5, 80160, Note_on_c, 0, 54, 0
5, 80160, Note_on_c, 0, 47, 0
5, 80880, Note_on_c, 0, 47, 49
5, 81120, Note_on_c, 0, 47, 0
5, 81600, Note_on_c, 0, 47, 49
5, 82320, Note_on_c, 0, 47, 0
5, 82320, Note_on_c, 0, 47, 49
5, 82800, Note_on_c, 0, 47, 0
5, 82800, Note_on_c, 0, 44, 49
5, 83520, Note_on_c, 0, 44, 0
5, 83520, Note_on_c, 0, 42, 49
5, 84240, Note_on_c, 0, 42, 0
5, 84240, Note_on_c, 0, 40, 49
5, 84960, Note_on_c, 0, 40, 0
5, 106080, Note_on_c, 0, 47, 75
5, 106320, Note_on_c, 0, 47, 0
5, 106560, Note_on_c, 0, 52, 75
5, 106800, Note_on_c, 0, 52, 0
5, 107040, Note_on_c, 0, 47, 75
5, 107280, Note_on_c, 0, 47, 0
5, 107520, Note_on_c, 0, 47, 75
5, 107760, Note_on_c, 0, 47, 0
5, 108000, Note_on_c, 0, 52, 75
5, 108240, Note_on_c, 0, 52, 0
5, 108480, Note_on_c, 0, 47, 75
5, 108720, Note_on_c, 0, 47, 0
5, 108960, Note_on_c, 0, 47, 75
5, 109200, Note_on_c, 0, 47, 0
5, 109440, Note_on_c, 0, 52, 75
5, 109680, Note_on_c, 0, 52, 0
5, 110400, Note_on_c, 0, 59, 75
5, 110640, Note_on_c, 0, 59, 0
5, 110640, Note_on_c, 0, 58, 75
5, 110880, Note_on_c, 0, 58, 0
5, 110880, Note_on_c, 0, 59, 75
5, 111120, Note_on_c, 0, 59, 0
5, 111120, Note_on_c, 0, 58, 75
5, 111360, Note_on_c, 0, 58, 0
5, 111360, Note_on_c, 0, 63, 75
5, 111600, Note_on_c, 0, 63, 0
5, 112320, Note_on_c, 0, 49, 62
5, 112320, Note_on_c, 0, 52, 62
5, 112560, Note_on_c, 0, 52, 0
5, 112560, Note_on_c, 0, 49, 0
5, 112560, Note_on_c, 0, 52, 62
5, 112560, Note_on_c, 0, 56, 62
5, 113520, Note_on_c, 0, 56, 0
5, 113520, Note_on_c, 0, 52, 0
5, 113520, Note_on_c, 0, 51, 62
5, 113520, Note_on_c, 0, 58, 62
5, 113760, Note_on_c, 0, 58, 0
5, 113760, Note_on_c, 0, 51, 0
5, 115200, Note_on_c, 0, 49, 62
5, 115200, Note_on_c, 0, 52, 62
5, 115440, Note_on_c, 0, 52, 0
5, 115440, Note_on_c, 0, 49, 0
5, 115440, Note_on_c, 0, 52, 62
5, 115440, Note_on_c, 0, 56, 62
5, 116400, Note_on_c, 0, 56, 0
5, 116400, Note_on_c, 0, 52, 0
5, 116400, Note_on_c, 0, 51, 62
5, 116400, Note_on_c, 0, 58, 62
5, 116640, Note_on_c, 0, 58, 0
5, 116640, Note_on_c, 0, 51, 0
5, 118080, Note_on_c, 0, 51, 62
5, 118560, Note_on_c, 0, 51, 0
5, 118560, Note_on_c, 0, 51, 62
5, 119040, Note_on_c, 0, 51, 0
5, 119520, Note_on_c, 0, 63, 62
5, 120000, Note_on_c, 0, 63, 0
5, 120000, Note_on_c, 0, 63, 62
5, 120480, Note_on_c, 0, 63, 0
5, 134880, Note_on_c, 0, 47, 75
5, 135120, Note_on_c, 0, 47, 0
5, 135360, Note_on_c, 0, 52, 75
5, 135600, Note_on_c, 0, 52, 0
5, 135840, Note_on_c, 0, 47, 75
5, 136080, Note_on_c, 0, 47, 0
5, 136320, Note_on_c, 0, 47, 75
5, 136560, Note_on_c, 0, 47, 0
5, 136800, Note_on_c, 0, 52, 75
5, 137040, Note_on_c, 0, 52, 0
5, 137280, Note_on_c, 0, 44, 62
5, 137520, Note_on_c, 0, 44, 0
5, 137760, Note_on_c, 0, 44, 62
5, 138000, Note_on_c, 0, 44, 0
5, 138240, Note_on_c, 0, 49, 62
5, 138480, Note_on_c, 0, 49, 0
5, 138720, Note_on_c, 0, 44, 62
5, 138960, Note_on_c, 0, 44, 0
5, 139200, Note_on_c, 0, 44, 62
5, 139440, Note_on_c, 0, 44, 0
5, 139680, Note_on_c, 0, 49, 62
5, 139920, Note_on_c, 0, 49, 0
5, 140160, Note_on_c, 0, 44, 49
5, 140400, Note_on_c, 0, 44, 0
5, 140640, Note_on_c, 0, 52, 49
5, 140880, Note_on_c, 0, 52, 0
5, 140880, Note_on_c, 0, 51, 49
5, 141120, Note_on_c, 0, 51, 0
5, 141360, Note_on_c, 0, 52, 49
5, 141600, Note_on_c, 0, 52, 0
5, 141600, Note_on_c, 0, 51, 49
5, 141840, Note_on_c, 0, 51, 0
5, 144720, Note_on_c, 0, 55, 49
5, 144960, Note_on_c, 0, 55, 0
5, 144960, Note_on_c, 0, 44, 49
5, 145200, Note_on_c, 0, 44, 0
5, 145200, Note_on_c, 0, 54, 49
5, 145440, Note_on_c, 0, 54, 0
5, 145440, Note_on_c, 0, 53, 49
5, 145680, Note_on_c, 0, 53, 0
5, 145680, Note_on_c, 0, 44, 49
5, 145920, Note_on_c, 0, 44, 0
5, 145920, Note_on_c, 0, 52, 49
5, 146160, Note_on_c, 0, 52, 0
5, 146160, Note_on_c, 0, 51, 49
5, 146160, Note_on_c, 0, 58, 49
5, 146400, Note_on_c, 0, 58, 0
5, 146400, Note_on_c, 0, 51, 0
5, 146400, Note_on_c, 0, 44, 49
5, 146640, Note_on_c, 0, 44, 0
5, 146640, Note_on_c, 0, 51, 49
5, 146640, Note_on_c, 0, 58, 49
5, 146880, Note_on_c, 0, 58, 0
5, 146880, Note_on_c, 0, 51, 0
5, 146880, Note_on_c, 0, 44, 49
5, 147120, Note_on_c, 0, 44, 0
5, 147120, Note_on_c, 0, 51, 49
5, 147120, Note_on_c, 0, 56, 49
5, 147360, Note_on_c, 0, 56, 0
5, 147360, Note_on_c, 0, 51, 0
5, 147360, Note_on_c, 0, 44, 49
5, 147600, Note_on_c, 0, 44, 0
5, 147600, Note_on_c, 0, 55, 49
5, 147840, Note_on_c, 0, 55, 0
5, 147840, Note_on_c, 0, 44, 49
5, 148080, Note_on_c, 0, 44, 0
5, 148080, Note_on_c, 0, 54, 49
5, 148320, Note_on_c, 0, 54, 0
5, 148320, Note_on_c, 0, 53, 49
5, 148560, Note_on_c, 0, 53, 0
5, 148560, Note_on_c, 0, 44, 49
5, 148800, Note_on_c, 0, 44, 0
5, 148800, Note_on_c, 0, 52, 49
5, 149040, Note_on_c, 0, 52, 0
5, 149040, Note_on_c, 0, 51, 49
5, 149040, Note_on_c, 0, 58, 49
5, 149280, Note_on_c, 0, 58, 0
5, 149280, Note_on_c, 0, 51, 0
5, 149280, Note_on_c, 0, 44, 49
5, 149520, Note_on_c, 0, 44, 0
5, 149520, Note_on_c, 0, 51, 49
5, 149520, Note_on_c, 0, 58, 49
5, 149760, Note_on_c, 0, 58, 0
5, 149760, Note_on_c, 0, 51, 0
5, 149760, Note_on_c, 0, 44, 49
5, 150000, Note_on_c, 0, 44, 0
5, 150000, Note_on_c, 0, 51, 49
5, 150000, Note_on_c, 0, 56, 49
5, 150240, Note_on_c, 0, 56, 0
5, 150240, Note_on_c, 0, 51, 0
5, 150240, Note_on_c, 0, 44, 49
5, 150480, Note_on_c, 0, 44, 0
5, 151200, Note_on_c, 0, 44, 49
5, 151440, Note_on_c, 0, 44, 0
5, 152640, Note_on_c, 0, 44, 49
5, 152880, Note_on_c, 0, 44, 0
5, 153360, Note_on_c, 0, 44, 49
5, 154080, Note_on_c, 0, 44, 0
5, 154080, Note_on_c, 0, 44, 49
5, 154800, Note_on_c, 0, 44, 0
5, 157200, Note_on_c, 0, 51, 49
5, 157247, Note_on_c, 0, 51, 0
5, 157440, Note_on_c, 0, 51, 49
5, 157487, Note_on_c, 0, 51, 0
5, 157680, Note_on_c, 0, 51, 49
5, 158640, Note_on_c, 0, 51, 0
5, 158640, End_track
0, 0, End_of_file
