0, 0, Header, 1, 5, 480
1, 0, Start_track
1, 0, Title_t, "tchaikovsky six pieces on one theme op21 no6 scherzo"
1, 0, Copyright_t, "Adaptation for Disklavier pianos, by: Robert C. Kuhmann (c) 2012."
1, 0, Text_t, "Seq. (c) by: Segundo G. Yogore,  2007\012"
1, 0, Time_signature, 6, 3, 12, 8
1, 0, Key_signature, -4, "major"
1, 0, Tempo, 375000
1, 11520, Tempo, 375000
1, 72000, Tempo, 375000
1, 83520, Tempo, 375000
1, 115440, Tempo, 389610
1, 115680, Tempo, 405405
1, 115920, Tempo, 422535
1, 116160, Tempo, 447761
1, 116400, Tempo, 468750
1, 116640, Tempo, 491803
1, 116880, Tempo, 517241
1, 117120, Tempo, 555556
1, 118080, Tempo, 461538
1, 164160, Tempo, 375000
1, 172800, Time_signature, 7, 3, 12, 8
1, 174480, Time_signature, 6, 3, 12, 8
1, 181920, Tempo, 389610
1, 182160, Tempo, 405405
1, 182400, Tempo, 422535
1, 182640, Tempo, 447761
1, 182880, Tempo, 468750
1, 183120, Tempo, 491803
1, 183360, Tempo, 517241
1, 183600, Tempo, 555556
1, 184560, Tempo, 375000
1, 196080, Tempo, 375000
1, 256560, Tempo, 375000
1, 268080, Tempo, 375000
1, 321360, Time_signature, 2, 2, 24, 8
1, 324240, Time_signature, 8, 2, 24, 8
1, 324240, End_track
2, 0, Start_track
2, 0, Title_t, "Grand Piano"
2, 0, Program_c, 0, 0
2, 0, Control_c, 0, 7, 115
2, 0, Control_c, 0, 10, 86
2, 0, Note_on_c, 0, 68, 62
2, 0, Note_on_c, 0, 75, 62
2, 360, Note_on_c, 0, 75, 0
2, 360, Note_on_c, 0, 68, 0
2, 360, Note_on_c, 0, 68, 62
2, 360, Note_on_c, 0, 77, 62
2, 480, Note_on_c, 0, 77, 0
2, 480, Note_on_c, 0, 68, 0
2, 480, Note_on_c, 0, 68, 62
2, 480, Note_on_c, 0, 75, 62
2, 527, Note_on_c, 0, 75, 0
2, 527, Note_on_c, 0, 68, 0
2, 720, Note_on_c, 0, 68, 62
2, 720, Note_on_c, 0, 74, 62
2, 767, Note_on_c, 0, 74, 0
2, 767, Note_on_c, 0, 68, 0
2, 960, Note_on_c, 0, 68, 62
2, 960, Note_on_c, 0, 75, 62
2, 1007, Note_on_c, 0, 75, 0
2, 1007, Note_on_c, 0, 68, 0
2, 1200, Note_on_c, 0, 68, 62
2, 1200, Note_on_c, 0, 80, 62
2, 1247, Note_on_c, 0, 80, 0
2, 1247, Note_on_c, 0, 68, 0
2, 1440, Note_on_c, 0, 68, 62
2, 1440, Note_on_c, 0, 75, 62
2, 1680, Note_on_c, 0, 75, 0
2, 1680, Note_on_c, 0, 68, 0
2, 1920, Note_on_c, 0, 68, 88
2, 1920, Note_on_c, 0, 74, 88
2, 2400, Note_on_c, 0, 74, 0
2, 2400, Note_on_c, 0, 68, 0
2, 2400, Note_on_c, 0, 67, 62
2, 2400, Note_on_c, 0, 75, 62
2, 2880, Note_on_c, 0, 75, 0
2, 2880, Note_on_c, 0, 67, 0
2, 2880, Note_on_c, 0, 67, 62
2, 2880, Note_on_c, 0, 73, 62
2, 3240, Note_on_c, 0, 73, 0
2, 3240, Note_on_c, 0, 67, 0
2, 3240, Note_on_c, 0, 67, 62
2, 3240, Note_on_c, 0, 75, 62
2, 3360, Note_on_c, 0, 75, 0
2, 3360, Note_on_c, 0, 67, 0
2, 3360, Note_on_c, 0, 67, 62
2, 3360, Note_on_c, 0, 73, 62
2, 3407, Note_on_c, 0, 73, 0
2, 3407, Note_on_c, 0, 67, 0
2, 3600, Note_on_c, 0, 63, 62
2, 3600, Note_on_c, 0, 72, 62
2, 3647, Note_on_c, 0, 72, 0
2, 3647, Note_on_c, 0, 63, 0
2, 3840, Note_on_c, 0, 63, 62
2, 3840, Note_on_c, 0, 70, 62
2, 3887, Note_on_c, 0, 70, 0
2, 3887, Note_on_c, 0, 63, 0
2, 4080, Note_on_c, 0, 63, 62
2, 4080, Note_on_c, 0, 69, 62
2, 4127, Note_on_c, 0, 69, 0
2, 4127, Note_on_c, 0, 63, 0
2, 4320, Note_on_c, 0, 63, 62
2, 4320, Note_on_c, 0, 66, 62
2, 4320, Note_on_c, 0, 75, 62
2, 4560, Note_on_c, 0, 75, 0
2, 4560, Note_on_c, 0, 66, 0
2, 4560, Note_on_c, 0, 63, 0
2, 4800, Note_on_c, 0, 60, 88
2, 4800, Note_on_c, 0, 63, 88
2, 4800, Note_on_c, 0, 72, 88
2, 5280, Note_on_c, 0, 72, 0
2, 5280, Note_on_c, 0, 63, 0
2, 5280, Note_on_c, 0, 60, 0
2, 5280, Note_on_c, 0, 61, 88
2, 5280, Note_on_c, 0, 65, 88
2, 5280, Note_on_c, 0, 73, 88
2, 5760, Note_on_c, 0, 73, 0
2, 5760, Note_on_c, 0, 65, 0
2, 5760, Note_on_c, 0, 61, 0
2, 5760, Note_on_c, 0, 61, 75
2, 5760, Note_on_c, 0, 68, 75
2, 6120, Note_on_c, 0, 68, 0
2, 6120, Note_on_c, 0, 61, 0
2, 6120, Note_on_c, 0, 61, 75
2, 6120, Note_on_c, 0, 70, 75
2, 6240, Note_on_c, 0, 70, 0
2, 6240, Note_on_c, 0, 61, 0
2, 6240, Note_on_c, 0, 61, 75
2, 6240, Note_on_c, 0, 68, 75
2, 6480, Note_on_c, 0, 68, 0
2, 6480, Note_on_c, 0, 61, 0
2, 6480, Note_on_c, 0, 61, 75
2, 6480, Note_on_c, 0, 67, 75
2, 6527, Note_on_c, 0, 67, 0
2, 6527, Note_on_c, 0, 61, 0
2, 6720, Note_on_c, 0, 59, 75
2, 6720, Note_on_c, 0, 62, 75
2, 6767, Note_on_c, 0, 62, 0
2, 6767, Note_on_c, 0, 59, 0
2, 6960, Note_on_c, 0, 58, 75
2, 6960, Note_on_c, 0, 63, 75
2, 7007, Note_on_c, 0, 63, 0
2, 7007, Note_on_c, 0, 58, 0
2, 7200, Note_on_c, 0, 65, 75
2, 7200, Note_on_c, 0, 70, 75
2, 7200, Note_on_c, 0, 77, 75
2, 7440, Note_on_c, 0, 77, 0
2, 7440, Note_on_c, 0, 70, 0
2, 7440, Note_on_c, 0, 65, 0
2, 7680, Note_on_c, 0, 62, 101
2, 7680, Note_on_c, 0, 70, 101
2, 7680, Note_on_c, 0, 74, 101
2, 8160, Note_on_c, 0, 74, 0
2, 8160, Note_on_c, 0, 70, 0
2, 8160, Note_on_c, 0, 62, 0
2, 8160, Note_on_c, 0, 63, 75
2, 8160, Note_on_c, 0, 68, 75
2, 8160, Note_on_c, 0, 75, 75
2, 8640, Note_on_c, 0, 75, 0
2, 8640, Note_on_c, 0, 68, 0
2, 8640, Note_on_c, 0, 63, 0
2, 8640, Note_on_c, 0, 68, 75
2, 8640, Note_on_c, 0, 75, 75
2, 8640, Note_on_c, 0, 80, 75
2, 8880, Note_on_c, 0, 80, 0
2, 8880, Note_on_c, 0, 75, 0
2, 8880, Note_on_c, 0, 68, 0
2, 9120, Note_on_c, 0, 66, 101
2, 9120, Note_on_c, 0, 75, 101
2, 9120, Note_on_c, 0, 78, 101
2, 9600, Note_on_c, 0, 78, 0
2, 9600, Note_on_c, 0, 75, 0
2, 9600, Note_on_c, 0, 66, 0
2, 9600, Note_on_c, 0, 67, 75
2, 9600, Note_on_c, 0, 75, 75
2, 9600, Note_on_c, 0, 79, 75
2, 10080, Note_on_c, 0, 79, 0
2, 10080, Note_on_c, 0, 75, 0
2, 10080, Note_on_c, 0, 67, 0
2, 10080, Note_on_c, 0, 70, 88
2, 10080, Note_on_c, 0, 82, 88
2, 10440, Note_on_c, 0, 82, 0
2, 10440, Note_on_c, 0, 70, 0
2, 10440, Note_on_c, 0, 72, 88
2, 10440, Note_on_c, 0, 82, 88
2, 10440, Note_on_c, 0, 84, 88
2, 10560, Note_on_c, 0, 84, 0
2, 10560, Note_on_c, 0, 82, 0
2, 10560, Note_on_c, 0, 72, 0
2, 10560, Note_on_c, 0, 74, 88
2, 10560, Note_on_c, 0, 86, 88
2, 10800, Note_on_c, 0, 86, 0
2, 10800, Note_on_c, 0, 74, 0
2, 10800, Note_on_c, 0, 75, 88
2, 10800, Note_on_c, 0, 79, 88
2, 10800, Note_on_c, 0, 87, 88
2, 11040, Note_on_c, 0, 87, 0
2, 11040, Note_on_c, 0, 79, 0
2, 11040, Note_on_c, 0, 75, 0
2, 11040, Control_c, 0, 64, 127
2, 11040, Note_on_c, 0, 69, 62
2, 11160, Note_on_c, 0, 69, 0
2, 11160, Note_on_c, 0, 70, 62
2, 11280, Note_on_c, 0, 70, 0
2, 11280, Note_on_c, 0, 73, 62
2, 11400, Note_on_c, 0, 73, 0
2, 11400, Control_c, 0, 64, 0
2, 11400, Note_on_c, 0, 74, 62
2, 11520, Note_on_c, 0, 74, 0
2, 11520, Note_on_c, 0, 68, 62
2, 11520, Note_on_c, 0, 75, 62
2, 11880, Note_on_c, 0, 75, 0
2, 11880, Note_on_c, 0, 68, 0
2, 11880, Note_on_c, 0, 68, 62
2, 11880, Note_on_c, 0, 77, 62
2, 12000, Note_on_c, 0, 77, 0
2, 12000, Note_on_c, 0, 68, 0
2, 12000, Note_on_c, 0, 68, 62
2, 12000, Note_on_c, 0, 75, 62
2, 12047, Note_on_c, 0, 75, 0
2, 12047, Note_on_c, 0, 68, 0
2, 12240, Note_on_c, 0, 68, 62
2, 12240, Note_on_c, 0, 74, 62
2, 12287, Note_on_c, 0, 74, 0
2, 12287, Note_on_c, 0, 68, 0
2, 12480, Note_on_c, 0, 68, 62
2, 12480, Note_on_c, 0, 75, 62
2, 12527, Note_on_c, 0, 75, 0
2, 12527, Note_on_c, 0, 68, 0
2, 12720, Note_on_c, 0, 68, 62
2, 12720, Note_on_c, 0, 80, 62
2, 12767, Note_on_c, 0, 80, 0
2, 12767, Note_on_c, 0, 68, 0
2, 12960, Note_on_c, 0, 68, 62
2, 12960, Note_on_c, 0, 75, 62
2, 13200, Note_on_c, 0, 75, 0
2, 13200, Note_on_c, 0, 68, 0
2, 13440, Note_on_c, 0, 68, 88
2, 13440, Note_on_c, 0, 74, 88
2, 13920, Note_on_c, 0, 74, 0
2, 13920, Note_on_c, 0, 68, 0
2, 13920, Note_on_c, 0, 67, 62
2, 13920, Note_on_c, 0, 75, 62
2, 14400, Note_on_c, 0, 75, 0
2, 14400, Note_on_c, 0, 67, 0
2, 14400, Note_on_c, 0, 67, 62
2, 14400, Note_on_c, 0, 73, 62
2, 14760, Note_on_c, 0, 73, 0
2, 14760, Note_on_c, 0, 67, 0
2, 14760, Note_on_c, 0, 67, 62
2, 14760, Note_on_c, 0, 75, 62
2, 14880, Note_on_c, 0, 75, 0
2, 14880, Note_on_c, 0, 67, 0
2, 14880, Note_on_c, 0, 67, 62
2, 14880, Note_on_c, 0, 73, 62
2, 14927, Note_on_c, 0, 73, 0
2, 14927, Note_on_c, 0, 67, 0
2, 15120, Note_on_c, 0, 63, 62
2, 15120, Note_on_c, 0, 72, 62
2, 15167, Note_on_c, 0, 72, 0
2, 15167, Note_on_c, 0, 63, 0
2, 15360, Note_on_c, 0, 63, 62
2, 15360, Note_on_c, 0, 70, 62
2, 15407, Note_on_c, 0, 70, 0
2, 15407, Note_on_c, 0, 63, 0
2, 15600, Note_on_c, 0, 63, 62
2, 15600, Note_on_c, 0, 69, 62
2, 15647, Note_on_c, 0, 69, 0
2, 15647, Note_on_c, 0, 63, 0
2, 15840, Note_on_c, 0, 63, 62
2, 15840, Note_on_c, 0, 66, 62
2, 15840, Note_on_c, 0, 75, 62
2, 16080, Note_on_c, 0, 75, 0
2, 16080, Note_on_c, 0, 66, 0
2, 16080, Note_on_c, 0, 63, 0
2, 16320, Note_on_c, 0, 60, 88
2, 16320, Note_on_c, 0, 63, 88
2, 16320, Note_on_c, 0, 72, 88
2, 16800, Note_on_c, 0, 72, 0
2, 16800, Note_on_c, 0, 63, 0
2, 16800, Note_on_c, 0, 60, 0
2, 16800, Note_on_c, 0, 61, 88
2, 16800, Note_on_c, 0, 65, 88
2, 16800, Note_on_c, 0, 73, 88
2, 17280, Note_on_c, 0, 73, 0
2, 17280, Note_on_c, 0, 65, 0
2, 17280, Note_on_c, 0, 61, 0
2, 17280, Note_on_c, 0, 61, 75
2, 17280, Note_on_c, 0, 68, 75
2, 17640, Note_on_c, 0, 68, 0
2, 17640, Note_on_c, 0, 61, 0
2, 17640, Note_on_c, 0, 61, 75
2, 17640, Note_on_c, 0, 70, 75
2, 17760, Note_on_c, 0, 70, 0
2, 17760, Note_on_c, 0, 61, 0
2, 17760, Note_on_c, 0, 61, 75
2, 17760, Note_on_c, 0, 68, 75
2, 18000, Note_on_c, 0, 68, 0
2, 18000, Note_on_c, 0, 61, 0
2, 18000, Note_on_c, 0, 61, 75
2, 18000, Note_on_c, 0, 67, 75
2, 18047, Note_on_c, 0, 67, 0
2, 18047, Note_on_c, 0, 61, 0
2, 18240, Note_on_c, 0, 59, 75
2, 18240, Note_on_c, 0, 62, 75
2, 18287, Note_on_c, 0, 62, 0
2, 18287, Note_on_c, 0, 59, 0
2, 18480, Note_on_c, 0, 58, 75
2, 18480, Note_on_c, 0, 63, 75
2, 18527, Note_on_c, 0, 63, 0
2, 18527, Note_on_c, 0, 58, 0
2, 18720, Note_on_c, 0, 63, 75
2, 18720, Note_on_c, 0, 70, 75
2, 19080, Note_on_c, 0, 70, 0
2, 19080, Note_on_c, 0, 63, 0
2, 19080, Note_on_c, 0, 63, 75
2, 19080, Note_on_c, 0, 72, 75
2, 19200, Note_on_c, 0, 72, 0
2, 19200, Note_on_c, 0, 63, 0
2, 19200, Note_on_c, 0, 63, 75
2, 19200, Note_on_c, 0, 70, 75
2, 19247, Note_on_c, 0, 70, 0
2, 19247, Note_on_c, 0, 63, 0
2, 19440, Note_on_c, 0, 63, 75
2, 19440, Note_on_c, 0, 69, 75
2, 19487, Note_on_c, 0, 69, 0
2, 19487, Note_on_c, 0, 63, 0
2, 19680, Note_on_c, 0, 61, 75
2, 19680, Note_on_c, 0, 64, 75
2, 19727, Note_on_c, 0, 64, 0
2, 19727, Note_on_c, 0, 61, 0
2, 19920, Note_on_c, 0, 60, 75
2, 19920, Note_on_c, 0, 65, 75
2, 19967, Note_on_c, 0, 65, 0
2, 19967, Note_on_c, 0, 60, 0
2, 20160, Note_on_c, 0, 77, 101
2, 20880, Note_on_c, 0, 77, 0
2, 20880, Note_on_c, 0, 78, 101
2, 21600, Note_on_c, 0, 78, 0
2, 21600, Note_on_c, 0, 79, 101
2, 22320, Note_on_c, 0, 79, 0
2, 22320, Note_on_c, 0, 80, 101
2, 23040, Note_on_c, 0, 80, 0
2, 23040, Note_on_c, 0, 70, 88
2, 23040, Note_on_c, 0, 80, 88
2, 23040, Note_on_c, 0, 82, 88
2, 23520, Note_on_c, 0, 82, 0
2, 23520, Note_on_c, 0, 80, 0
2, 23520, Note_on_c, 0, 70, 0
2, 23520, Note_on_c, 0, 71, 88
2, 23520, Note_on_c, 0, 80, 88
2, 23520, Note_on_c, 0, 83, 88
2, 24000, Note_on_c, 0, 83, 0
2, 24000, Note_on_c, 0, 80, 0
2, 24000, Note_on_c, 0, 71, 0
2, 24000, Note_on_c, 0, 72, 88
2, 24000, Note_on_c, 0, 80, 88
2, 24000, Note_on_c, 0, 84, 88
2, 24480, Note_on_c, 0, 84, 0
2, 24480, Note_on_c, 0, 80, 0
2, 24480, Note_on_c, 0, 72, 0
2, 24480, Note_on_c, 0, 75, 88
2, 24480, Note_on_c, 0, 80, 88
2, 24480, Note_on_c, 0, 87, 88
2, 24960, Note_on_c, 0, 87, 0
2, 24960, Note_on_c, 0, 80, 0
2, 24960, Note_on_c, 0, 75, 0
2, 24960, Note_on_c, 0, 79, 88
2, 24960, Note_on_c, 0, 85, 88
2, 24960, Note_on_c, 0, 91, 88
2, 25200, Note_on_c, 0, 91, 0
2, 25200, Note_on_c, 0, 85, 0
2, 25200, Note_on_c, 0, 79, 0
2, 25200, Note_on_c, 0, 80, 88
2, 25200, Note_on_c, 0, 84, 88
2, 25200, Note_on_c, 0, 92, 88
2, 25440, Note_on_c, 0, 92, 0
2, 25440, Note_on_c, 0, 84, 0
2, 25440, Note_on_c, 0, 80, 0
2, 26160, Note_on_c, 0, 62, 75
2, 26160, Note_on_c, 0, 72, 75
2, 26160, Note_on_c, 0, 74, 75
2, 26640, Note_on_c, 0, 74, 0
2, 26640, Note_on_c, 0, 72, 0
2, 26640, Note_on_c, 0, 62, 0
2, 26640, Note_on_c, 0, 64, 75
2, 26640, Note_on_c, 0, 72, 75
2, 26640, Note_on_c, 0, 76, 75
2, 26880, Note_on_c, 0, 76, 0
2, 26880, Note_on_c, 0, 72, 0
2, 26880, Note_on_c, 0, 64, 0
2, 26880, Note_on_c, 0, 65, 75
2, 26880, Note_on_c, 0, 72, 75
2, 26880, Note_on_c, 0, 77, 75
2, 27120, Note_on_c, 0, 77, 0
2, 27120, Note_on_c, 0, 72, 0
2, 27120, Note_on_c, 0, 65, 0
2, 27120, Note_on_c, 0, 67, 75
2, 27120, Note_on_c, 0, 72, 75
2, 27120, Note_on_c, 0, 79, 75
2, 27600, Note_on_c, 0, 79, 0
2, 27600, Note_on_c, 0, 72, 0
2, 27600, Note_on_c, 0, 67, 0
2, 27600, Note_on_c, 0, 68, 75
2, 27600, Note_on_c, 0, 72, 75
2, 27600, Note_on_c, 0, 80, 75
2, 28080, Note_on_c, 0, 80, 0
2, 28080, Note_on_c, 0, 72, 0
2, 28080, Note_on_c, 0, 68, 0
2, 28080, Note_on_c, 0, 67, 75
2, 28080, Note_on_c, 0, 72, 75
2, 28080, Note_on_c, 0, 79, 75
2, 28320, Note_on_c, 0, 79, 0
2, 28320, Note_on_c, 0, 72, 0
2, 28320, Note_on_c, 0, 67, 0
2, 29040, Note_on_c, 0, 62, 75
2, 29040, Note_on_c, 0, 72, 75
2, 29040, Note_on_c, 0, 74, 75
2, 29520, Note_on_c, 0, 74, 0
2, 29520, Note_on_c, 0, 72, 0
2, 29520, Note_on_c, 0, 62, 0
2, 29520, Note_on_c, 0, 64, 75
2, 29520, Note_on_c, 0, 72, 75
2, 29520, Note_on_c, 0, 76, 75
2, 29760, Note_on_c, 0, 76, 0
2, 29760, Note_on_c, 0, 72, 0
2, 29760, Note_on_c, 0, 64, 0
2, 29760, Note_on_c, 0, 65, 75
2, 29760, Note_on_c, 0, 72, 75
2, 29760, Note_on_c, 0, 77, 75
2, 30000, Note_on_c, 0, 77, 0
2, 30000, Note_on_c, 0, 72, 0
2, 30000, Note_on_c, 0, 65, 0
2, 30000, Note_on_c, 0, 67, 75
2, 30000, Note_on_c, 0, 72, 75
2, 30000, Note_on_c, 0, 79, 75
2, 30480, Note_on_c, 0, 79, 0
2, 30480, Note_on_c, 0, 72, 0
2, 30480, Note_on_c, 0, 67, 0
2, 30480, Note_on_c, 0, 68, 75
2, 30480, Note_on_c, 0, 72, 75
2, 30480, Note_on_c, 0, 80, 75
2, 30960, Note_on_c, 0, 80, 0
2, 30960, Note_on_c, 0, 72, 0
2, 30960, Note_on_c, 0, 68, 0
2, 30960, Note_on_c, 0, 67, 75
2, 30960, Note_on_c, 0, 72, 75
2, 30960, Note_on_c, 0, 79, 75
2, 31200, Note_on_c, 0, 79, 0
2, 31200, Note_on_c, 0, 72, 0
2, 31200, Note_on_c, 0, 67, 0
2, 31200, Note_on_c, 0, 72, 75
2, 31200, Note_on_c, 0, 84, 75
2, 31440, Note_on_c, 0, 84, 0
2, 31440, Note_on_c, 0, 72, 0
2, 31440, Note_on_c, 0, 74, 75
2, 31440, Note_on_c, 0, 86, 75
2, 31680, Note_on_c, 0, 86, 0
2, 31680, Note_on_c, 0, 74, 0
2, 31680, Note_on_c, 0, 76, 75
2, 31680, Note_on_c, 0, 88, 75
2, 32160, Note_on_c, 0, 88, 0
2, 32160, Note_on_c, 0, 76, 0
2, 32160, Note_on_c, 0, 74, 75
2, 32160, Note_on_c, 0, 76, 75
2, 32160, Note_on_c, 0, 86, 75
2, 32640, Note_on_c, 0, 86, 0
2, 32640, Note_on_c, 0, 76, 0
2, 32640, Note_on_c, 0, 74, 0
2, 32640, Note_on_c, 0, 72, 75
2, 32640, Note_on_c, 0, 76, 75
2, 32640, Note_on_c, 0, 84, 75
2, 32880, Note_on_c, 0, 84, 0
2, 32880, Note_on_c, 0, 76, 0
2, 32880, Note_on_c, 0, 72, 0
2, 32880, Note_on_c, 0, 71, 75
2, 32880, Note_on_c, 0, 76, 75
2, 32880, Note_on_c, 0, 83, 75
2, 33120, Note_on_c, 0, 83, 0
2, 33120, Note_on_c, 0, 76, 0
2, 33120, Note_on_c, 0, 71, 0
2, 33120, Note_on_c, 0, 69, 75
2, 33120, Note_on_c, 0, 76, 75
2, 33120, Note_on_c, 0, 81, 75
2, 33600, Note_on_c, 0, 81, 0
2, 33600, Note_on_c, 0, 76, 0
2, 33600, Note_on_c, 0, 69, 0
2, 33600, Note_on_c, 0, 68, 75
2, 33600, Note_on_c, 0, 76, 75
2, 33600, Note_on_c, 0, 80, 75
2, 34080, Note_on_c, 0, 80, 0
2, 34080, Note_on_c, 0, 76, 0
2, 34080, Note_on_c, 0, 68, 0
2, 34080, Note_on_c, 0, 72, 75
2, 34080, Note_on_c, 0, 84, 75
2, 34320, Note_on_c, 0, 84, 0
2, 34320, Note_on_c, 0, 72, 0
2, 34320, Note_on_c, 0, 74, 75
2, 34320, Note_on_c, 0, 86, 75
2, 34560, Note_on_c, 0, 86, 0
2, 34560, Note_on_c, 0, 74, 0
2, 34560, Note_on_c, 0, 76, 75
2, 34560, Note_on_c, 0, 88, 75
2, 35040, Note_on_c, 0, 88, 0
2, 35040, Note_on_c, 0, 76, 0
2, 35040, Note_on_c, 0, 74, 75
2, 35040, Note_on_c, 0, 76, 75
2, 35040, Note_on_c, 0, 86, 75
2, 35520, Note_on_c, 0, 86, 0
2, 35520, Note_on_c, 0, 76, 0
2, 35520, Note_on_c, 0, 74, 0
2, 35520, Note_on_c, 0, 72, 75
2, 35520, Note_on_c, 0, 76, 75
2, 35520, Note_on_c, 0, 84, 75
2, 35760, Note_on_c, 0, 84, 0
2, 35760, Note_on_c, 0, 76, 0
2, 35760, Note_on_c, 0, 72, 0
2, 35760, Note_on_c, 0, 71, 75
2, 35760, Note_on_c, 0, 76, 75
2, 35760, Note_on_c, 0, 83, 75
2, 36000, Note_on_c, 0, 83, 0
2, 36000, Note_on_c, 0, 76, 0
2, 36000, Note_on_c, 0, 71, 0
2, 36000, Note_on_c, 0, 69, 75
2, 36000, Note_on_c, 0, 76, 75
2, 36000, Note_on_c, 0, 81, 75
2, 36480, Note_on_c, 0, 81, 0
2, 36480, Note_on_c, 0, 76, 0
2, 36480, Note_on_c, 0, 69, 0
2, 36480, Note_on_c, 0, 68, 75
2, 36480, Note_on_c, 0, 76, 75
2, 36480, Note_on_c, 0, 80, 75
2, 36960, Note_on_c, 0, 80, 0
2, 36960, Note_on_c, 0, 76, 0
2, 36960, Note_on_c, 0, 68, 0
2, 37680, Note_on_c, 0, 70, 88
2, 37680, Note_on_c, 0, 80, 88
2, 37680, Note_on_c, 0, 82, 88
2, 38160, Note_on_c, 0, 82, 0
2, 38160, Note_on_c, 0, 80, 0
2, 38160, Note_on_c, 0, 70, 0
2, 38160, Note_on_c, 0, 72, 88
2, 38160, Note_on_c, 0, 80, 88
2, 38160, Note_on_c, 0, 84, 88
2, 38400, Note_on_c, 0, 84, 0
2, 38400, Note_on_c, 0, 80, 0
2, 38400, Note_on_c, 0, 72, 0
2, 38400, Note_on_c, 0, 73, 88
2, 38400, Note_on_c, 0, 80, 88
2, 38400, Note_on_c, 0, 85, 88
2, 38640, Note_on_c, 0, 85, 0
2, 38640, Note_on_c, 0, 80, 0
2, 38640, Note_on_c, 0, 73, 0
2, 38640, Note_on_c, 0, 75, 88
2, 38640, Note_on_c, 0, 80, 88
2, 38640, Note_on_c, 0, 87, 88
2, 39120, Note_on_c, 0, 87, 0
2, 39120, Note_on_c, 0, 80, 0
2, 39120, Note_on_c, 0, 75, 0
2, 39120, Note_on_c, 0, 76, 88
2, 39120, Note_on_c, 0, 80, 88
2, 39120, Note_on_c, 0, 88, 88
2, 39600, Note_on_c, 0, 88, 0
2, 39600, Note_on_c, 0, 80, 0
2, 39600, Note_on_c, 0, 76, 0
2, 39600, Note_on_c, 0, 75, 88
2, 39600, Note_on_c, 0, 80, 88
2, 39600, Note_on_c, 0, 87, 88
2, 39840, Note_on_c, 0, 87, 0
2, 39840, Note_on_c, 0, 80, 0
2, 39840, Note_on_c, 0, 75, 0
2, 39840, Note_on_c, 0, 76, 88
2, 39840, Note_on_c, 0, 88, 88
2, 40080, Note_on_c, 0, 88, 0
2, 40080, Note_on_c, 0, 76, 0
2, 40080, Note_on_c, 0, 78, 88
2, 40080, Note_on_c, 0, 90, 88
2, 40320, Note_on_c, 0, 90, 0
2, 40320, Note_on_c, 0, 78, 0
2, 40320, Note_on_c, 0, 80, 88
2, 40320, Note_on_c, 0, 92, 88
2, 40800, Note_on_c, 0, 92, 0
2, 40800, Note_on_c, 0, 80, 0
2, 40800, Note_on_c, 0, 78, 88
2, 40800, Note_on_c, 0, 80, 88
2, 40800, Note_on_c, 0, 90, 88
2, 41280, Note_on_c, 0, 90, 0
2, 41280, Note_on_c, 0, 80, 0
2, 41280, Note_on_c, 0, 78, 0
2, 41280, Note_on_c, 0, 76, 88
2, 41280, Note_on_c, 0, 80, 88
2, 41280, Note_on_c, 0, 88, 88
2, 41520, Note_on_c, 0, 88, 0
2, 41520, Note_on_c, 0, 80, 0
2, 41520, Note_on_c, 0, 76, 0
2, 41520, Note_on_c, 0, 75, 88
2, 41520, Note_on_c, 0, 80, 88
2, 41520, Note_on_c, 0, 87, 88
2, 41760, Note_on_c, 0, 87, 0
2, 41760, Note_on_c, 0, 80, 0
2, 41760, Note_on_c, 0, 75, 0
2, 41760, Note_on_c, 0, 73, 88
2, 41760, Note_on_c, 0, 80, 88
2, 41760, Note_on_c, 0, 85, 88
2, 42240, Note_on_c, 0, 85, 0
2, 42240, Note_on_c, 0, 80, 0
2, 42240, Note_on_c, 0, 73, 0
2, 42240, Note_on_c, 0, 72, 88
2, 42240, Note_on_c, 0, 80, 88
2, 42240, Note_on_c, 0, 84, 88
2, 42720, Note_on_c, 0, 84, 0
2, 42720, Note_on_c, 0, 80, 0
2, 42720, Note_on_c, 0, 72, 0
2, 42720, Note_on_c, 0, 76, 88
2, 42720, Note_on_c, 0, 88, 88
2, 42960, Note_on_c, 0, 88, 0
2, 42960, Note_on_c, 0, 76, 0
2, 42960, Note_on_c, 0, 78, 88
2, 42960, Note_on_c, 0, 90, 88
2, 43200, Note_on_c, 0, 90, 0
2, 43200, Note_on_c, 0, 78, 0
2, 43200, Note_on_c, 0, 80, 88
2, 43200, Note_on_c, 0, 92, 88
2, 43680, Note_on_c, 0, 92, 0
2, 43680, Note_on_c, 0, 80, 0
2, 43680, Note_on_c, 0, 78, 88
2, 43680, Note_on_c, 0, 80, 88
2, 43680, Note_on_c, 0, 90, 88
2, 44160, Note_on_c, 0, 90, 0
2, 44160, Note_on_c, 0, 80, 0
2, 44160, Note_on_c, 0, 78, 0
2, 44160, Note_on_c, 0, 76, 88
2, 44160, Note_on_c, 0, 80, 88
2, 44160, Note_on_c, 0, 88, 88
2, 44400, Note_on_c, 0, 88, 0
2, 44400, Note_on_c, 0, 80, 0
2, 44400, Note_on_c, 0, 76, 0
2, 44400, Note_on_c, 0, 75, 88
2, 44400, Note_on_c, 0, 80, 88
2, 44400, Note_on_c, 0, 87, 88
2, 44640, Note_on_c, 0, 87, 0
2, 44640, Note_on_c, 0, 80, 0
2, 44640, Note_on_c, 0, 75, 0
2, 44640, Note_on_c, 0, 73, 88
2, 44640, Note_on_c, 0, 80, 88
2, 44640, Note_on_c, 0, 85, 88
2, 45120, Note_on_c, 0, 85, 0
2, 45120, Note_on_c, 0, 80, 0
2, 45120, Note_on_c, 0, 73, 0
2, 45120, Note_on_c, 0, 72, 88
2, 45120, Note_on_c, 0, 80, 88
2, 45120, Note_on_c, 0, 84, 88
2, 45600, Note_on_c, 0, 84, 0
2, 45600, Note_on_c, 0, 80, 0
2, 45600, Note_on_c, 0, 72, 0
2, 45600, Note_on_c, 0, 72, 62
2, 45840, Note_on_c, 0, 72, 0
2, 45840, Note_on_c, 0, 73, 62
2, 46080, Note_on_c, 0, 73, 0
2, 46080, Note_on_c, 0, 76, 62
2, 46560, Note_on_c, 0, 76, 0
2, 46560, Note_on_c, 0, 77, 62
2, 46800, Note_on_c, 0, 77, 0
2, 47040, Note_on_c, 0, 67, 62
2, 47280, Note_on_c, 0, 67, 0
2, 47280, Note_on_c, 0, 68, 62
2, 47520, Note_on_c, 0, 68, 0
2, 47520, Note_on_c, 0, 71, 62
2, 48000, Note_on_c, 0, 71, 0
2, 48000, Note_on_c, 0, 72, 62
2, 48240, Note_on_c, 0, 72, 0
2, 48480, Note_on_c, 0, 72, 62
2, 48720, Note_on_c, 0, 72, 0
2, 48720, Note_on_c, 0, 73, 62
2, 48960, Note_on_c, 0, 73, 0
2, 48960, Note_on_c, 0, 76, 62
2, 49440, Note_on_c, 0, 76, 0
2, 49440, Note_on_c, 0, 77, 62
2, 49680, Note_on_c, 0, 77, 0
2, 49920, Note_on_c, 0, 67, 62
2, 50160, Note_on_c, 0, 67, 0
2, 50160, Note_on_c, 0, 68, 62
2, 50400, Note_on_c, 0, 68, 0
2, 50400, Note_on_c, 0, 71, 62
2, 50880, Note_on_c, 0, 71, 0
2, 50880, Note_on_c, 0, 72, 62
2, 51120, Note_on_c, 0, 72, 0
2, 51360, Note_on_c, 0, 72, 62
2, 51600, Note_on_c, 0, 72, 0
2, 51600, Note_on_c, 0, 74, 62
2, 51840, Note_on_c, 0, 74, 0
2, 51840, Note_on_c, 0, 75, 62
2, 52320, Note_on_c, 0, 75, 0
2, 52320, Note_on_c, 0, 77, 62
2, 52560, Note_on_c, 0, 77, 0
2, 52800, Note_on_c, 0, 67, 62
2, 53040, Note_on_c, 0, 67, 0
2, 53040, Note_on_c, 0, 69, 62
2, 53280, Note_on_c, 0, 69, 0
2, 53280, Note_on_c, 0, 71, 62
2, 53760, Note_on_c, 0, 71, 0
2, 53760, Note_on_c, 0, 72, 62
2, 54000, Note_on_c, 0, 72, 0
2, 54240, Note_on_c, 0, 72, 62
2, 54480, Note_on_c, 0, 72, 0
2, 54480, Note_on_c, 0, 74, 62
2, 54720, Note_on_c, 0, 74, 0
2, 54720, Note_on_c, 0, 75, 62
2, 55200, Note_on_c, 0, 75, 0
2, 55200, Note_on_c, 0, 77, 62
2, 55440, Note_on_c, 0, 77, 0
2, 55680, Note_on_c, 0, 67, 62
2, 55920, Note_on_c, 0, 67, 0
2, 55920, Note_on_c, 0, 69, 62
2, 56160, Note_on_c, 0, 69, 0
2, 56160, Note_on_c, 0, 71, 75
2, 56640, Note_on_c, 0, 71, 0
2, 56640, Note_on_c, 0, 72, 75
2, 56880, Note_on_c, 0, 72, 0
2, 57120, Note_on_c, 0, 69, 75
2, 57360, Note_on_c, 0, 69, 0
2, 57360, Note_on_c, 0, 70, 75
2, 57600, Note_on_c, 0, 70, 0
2, 57600, Note_on_c, 0, 72, 75
2, 58080, Note_on_c, 0, 72, 0
2, 58080, Note_on_c, 0, 73, 75
2, 58320, Note_on_c, 0, 73, 0
2, 58560, Note_on_c, 0, 62, 75
2, 58800, Note_on_c, 0, 62, 0
2, 58800, Note_on_c, 0, 63, 75
2, 59040, Note_on_c, 0, 63, 0
2, 59040, Note_on_c, 0, 66, 75
2, 59520, Note_on_c, 0, 66, 0
2, 59520, Note_on_c, 0, 67, 75
2, 59760, Note_on_c, 0, 67, 0
2, 60000, Note_on_c, 0, 71, 75
2, 60240, Note_on_c, 0, 71, 0
2, 60240, Note_on_c, 0, 72, 75
2, 60480, Note_on_c, 0, 72, 0
2, 60480, Note_on_c, 0, 74, 75
2, 60960, Note_on_c, 0, 74, 0
2, 60960, Note_on_c, 0, 75, 75
2, 61200, Note_on_c, 0, 75, 0
2, 61440, Note_on_c, 0, 64, 75
2, 61680, Note_on_c, 0, 64, 0
2, 61680, Note_on_c, 0, 65, 75
2, 61920, Note_on_c, 0, 65, 0
2, 61920, Note_on_c, 0, 68, 75
2, 62400, Note_on_c, 0, 68, 0
2, 62400, Note_on_c, 0, 69, 75
2, 62640, Note_on_c, 0, 69, 0
2, 62880, Note_on_c, 0, 72, 75
2, 63120, Note_on_c, 0, 72, 0
2, 63120, Note_on_c, 0, 73, 75
2, 63360, Note_on_c, 0, 73, 0
2, 63360, Note_on_c, 0, 77, 75
2, 64080, Note_on_c, 0, 77, 0
2, 64320, Note_on_c, 0, 72, 75
2, 64560, Note_on_c, 0, 72, 0
2, 64560, Note_on_c, 0, 73, 75
2, 64800, Note_on_c, 0, 73, 0
2, 64800, Note_on_c, 0, 77, 75
2, 65520, Note_on_c, 0, 77, 0
2, 65760, Note_on_c, 0, 72, 75
2, 66000, Note_on_c, 0, 72, 0
2, 66000, Note_on_c, 0, 73, 75
2, 66240, Note_on_c, 0, 73, 0
2, 66240, Note_on_c, 0, 69, 75
2, 66240, Note_on_c, 0, 77, 75
2, 66720, Note_on_c, 0, 77, 0
2, 66720, Note_on_c, 0, 69, 0
2, 66720, Note_on_c, 0, 70, 75
2, 66960, Note_on_c, 0, 70, 0
2, 66960, Note_on_c, 0, 69, 75
2, 66960, Note_on_c, 0, 77, 75
2, 67440, Note_on_c, 0, 77, 0
2, 67440, Note_on_c, 0, 69, 0
2, 67440, Note_on_c, 0, 70, 75
2, 67680, Note_on_c, 0, 70, 0
2, 67680, Note_on_c, 0, 61, 62
2, 67680, Note_on_c, 0, 73, 62
2, 68400, Note_on_c, 0, 73, 0
2, 68400, Note_on_c, 0, 61, 0
2, 68400, Note_on_c, 0, 61, 62
2, 68400, Note_on_c, 0, 73, 62
2, 69120, Note_on_c, 0, 73, 0
2, 69120, Note_on_c, 0, 61, 0
2, 69120, Note_on_c, 0, 62, 62
2, 69600, Note_on_c, 0, 62, 0
2, 69600, Note_on_c, 0, 63, 62
2, 69840, Note_on_c, 0, 63, 0
2, 69840, Note_on_c, 0, 62, 62
2, 70320, Note_on_c, 0, 62, 0
2, 70320, Note_on_c, 0, 63, 62
2, 70560, Note_on_c, 0, 63, 0
2, 71040, Note_on_c, 0, 50, 88
2, 71280, Note_on_c, 0, 50, 0
2, 71280, Note_on_c, 0, 51, 62
2, 71520, Note_on_c, 0, 51, 0
2, 72000, Note_on_c, 0, 68, 62
2, 72000, Note_on_c, 0, 75, 62
2, 72360, Note_on_c, 0, 75, 0
2, 72360, Note_on_c, 0, 68, 0
2, 72360, Note_on_c, 0, 68, 62
2, 72360, Note_on_c, 0, 77, 62
2, 72480, Note_on_c, 0, 77, 0
2, 72480, Note_on_c, 0, 68, 0
2, 72480, Note_on_c, 0, 68, 62
2, 72480, Note_on_c, 0, 75, 62
2, 72527, Note_on_c, 0, 75, 0
2, 72527, Note_on_c, 0, 68, 0
2, 72720, Note_on_c, 0, 68, 62
2, 72720, Note_on_c, 0, 74, 62
2, 72767, Note_on_c, 0, 74, 0
2, 72767, Note_on_c, 0, 68, 0
2, 72960, Note_on_c, 0, 68, 62
2, 72960, Note_on_c, 0, 75, 62
2, 73007, Note_on_c, 0, 75, 0
2, 73007, Note_on_c, 0, 68, 0
2, 73200, Note_on_c, 0, 68, 62
2, 73200, Note_on_c, 0, 80, 62
2, 73247, Note_on_c, 0, 80, 0
2, 73247, Note_on_c, 0, 68, 0
2, 73440, Note_on_c, 0, 68, 62
2, 73440, Note_on_c, 0, 75, 62
2, 73680, Note_on_c, 0, 75, 0
2, 73680, Note_on_c, 0, 68, 0
2, 73920, Note_on_c, 0, 68, 88
2, 73920, Note_on_c, 0, 74, 88
2, 74400, Note_on_c, 0, 74, 0
2, 74400, Note_on_c, 0, 68, 0
2, 74400, Note_on_c, 0, 67, 62
2, 74400, Note_on_c, 0, 75, 62
2, 74880, Note_on_c, 0, 75, 0
2, 74880, Note_on_c, 0, 67, 0
2, 74880, Note_on_c, 0, 67, 62
2, 74880, Note_on_c, 0, 73, 62
2, 75240, Note_on_c, 0, 73, 0
2, 75240, Note_on_c, 0, 67, 0
2, 75240, Note_on_c, 0, 67, 62
2, 75240, Note_on_c, 0, 75, 62
2, 75360, Note_on_c, 0, 75, 0
2, 75360, Note_on_c, 0, 67, 0
2, 75360, Note_on_c, 0, 67, 62
2, 75360, Note_on_c, 0, 73, 62
2, 75407, Note_on_c, 0, 73, 0
2, 75407, Note_on_c, 0, 67, 0
2, 75600, Note_on_c, 0, 63, 62
2, 75600, Note_on_c, 0, 72, 62
2, 75647, Note_on_c, 0, 72, 0
2, 75647, Note_on_c, 0, 63, 0
2, 75840, Note_on_c, 0, 63, 62
2, 75840, Note_on_c, 0, 70, 62
2, 75887, Note_on_c, 0, 70, 0
2, 75887, Note_on_c, 0, 63, 0
2, 76080, Note_on_c, 0, 63, 62
2, 76080, Note_on_c, 0, 69, 62
2, 76127, Note_on_c, 0, 69, 0
2, 76127, Note_on_c, 0, 63, 0
2, 76320, Note_on_c, 0, 63, 62
2, 76320, Note_on_c, 0, 66, 62
2, 76320, Note_on_c, 0, 75, 62
2, 76560, Note_on_c, 0, 75, 0
2, 76560, Note_on_c, 0, 66, 0
2, 76560, Note_on_c, 0, 63, 0
2, 76800, Note_on_c, 0, 60, 88
2, 76800, Note_on_c, 0, 63, 88
2, 76800, Note_on_c, 0, 72, 88
2, 77280, Note_on_c, 0, 72, 0
2, 77280, Note_on_c, 0, 63, 0
2, 77280, Note_on_c, 0, 60, 0
2, 77280, Note_on_c, 0, 61, 88
2, 77280, Note_on_c, 0, 65, 88
2, 77280, Note_on_c, 0, 73, 88
2, 77760, Note_on_c, 0, 73, 0
2, 77760, Note_on_c, 0, 65, 0
2, 77760, Note_on_c, 0, 61, 0
2, 77760, Note_on_c, 0, 61, 75
2, 77760, Note_on_c, 0, 68, 75
2, 78120, Note_on_c, 0, 68, 0
2, 78120, Note_on_c, 0, 61, 0
2, 78120, Note_on_c, 0, 61, 75
2, 78120, Note_on_c, 0, 70, 75
2, 78240, Note_on_c, 0, 70, 0
2, 78240, Note_on_c, 0, 61, 0
2, 78240, Note_on_c, 0, 61, 75
2, 78240, Note_on_c, 0, 68, 75
2, 78480, Note_on_c, 0, 68, 0
2, 78480, Note_on_c, 0, 61, 0
2, 78480, Note_on_c, 0, 61, 75
2, 78480, Note_on_c, 0, 67, 75
2, 78527, Note_on_c, 0, 67, 0
2, 78527, Note_on_c, 0, 61, 0
2, 78720, Note_on_c, 0, 59, 75
2, 78720, Note_on_c, 0, 62, 75
2, 78767, Note_on_c, 0, 62, 0
2, 78767, Note_on_c, 0, 59, 0
2, 78960, Note_on_c, 0, 58, 75
2, 78960, Note_on_c, 0, 63, 75
2, 79007, Note_on_c, 0, 63, 0
2, 79007, Note_on_c, 0, 58, 0
2, 79200, Note_on_c, 0, 65, 75
2, 79200, Note_on_c, 0, 68, 75
2, 79200, Note_on_c, 0, 77, 75
2, 79440, Note_on_c, 0, 77, 0
2, 79440, Note_on_c, 0, 68, 0
2, 79440, Note_on_c, 0, 65, 0
2, 79680, Note_on_c, 0, 62, 101
2, 79680, Note_on_c, 0, 70, 101
2, 79680, Note_on_c, 0, 74, 101
2, 80160, Note_on_c, 0, 74, 0
2, 80160, Note_on_c, 0, 70, 0
2, 80160, Note_on_c, 0, 62, 0
2, 80160, Note_on_c, 0, 63, 75
2, 80160, Note_on_c, 0, 68, 75
2, 80160, Note_on_c, 0, 75, 75
2, 80640, Note_on_c, 0, 75, 0
2, 80640, Note_on_c, 0, 68, 0
2, 80640, Note_on_c, 0, 63, 0
2, 80640, Note_on_c, 0, 68, 75
2, 80640, Note_on_c, 0, 75, 75
2, 80640, Note_on_c, 0, 80, 75
2, 80880, Note_on_c, 0, 80, 0
2, 80880, Note_on_c, 0, 75, 0
2, 80880, Note_on_c, 0, 68, 0
2, 81120, Note_on_c, 0, 66, 101
2, 81120, Note_on_c, 0, 75, 101
2, 81120, Note_on_c, 0, 78, 101
2, 81600, Note_on_c, 0, 78, 0
2, 81600, Note_on_c, 0, 75, 0
2, 81600, Note_on_c, 0, 66, 0
2, 81600, Note_on_c, 0, 67, 75
2, 81600, Note_on_c, 0, 75, 75
2, 81600, Note_on_c, 0, 79, 75
2, 82080, Note_on_c, 0, 79, 0
2, 82080, Note_on_c, 0, 75, 0
2, 82080, Note_on_c, 0, 67, 0
2, 82080, Note_on_c, 0, 70, 88
2, 82080, Note_on_c, 0, 82, 88
2, 82440, Note_on_c, 0, 82, 0
2, 82440, Note_on_c, 0, 70, 0
2, 82440, Note_on_c, 0, 72, 88
2, 82440, Note_on_c, 0, 82, 88
2, 82440, Note_on_c, 0, 84, 88
2, 82560, Note_on_c, 0, 84, 0
2, 82560, Note_on_c, 0, 82, 0
2, 82560, Note_on_c, 0, 72, 0
2, 82560, Note_on_c, 0, 74, 88
2, 82560, Note_on_c, 0, 86, 88
2, 82800, Note_on_c, 0, 86, 0
2, 82800, Note_on_c, 0, 74, 0
2, 82800, Note_on_c, 0, 75, 88
2, 82800, Note_on_c, 0, 79, 88
2, 82800, Note_on_c, 0, 87, 88
2, 83040, Note_on_c, 0, 87, 0
2, 83040, Note_on_c, 0, 79, 0
2, 83040, Note_on_c, 0, 75, 0
2, 83040, Control_c, 0, 64, 127
2, 83040, Note_on_c, 0, 69, 62
2, 83160, Note_on_c, 0, 69, 0
2, 83160, Note_on_c, 0, 70, 62
2, 83280, Note_on_c, 0, 70, 0
2, 83280, Note_on_c, 0, 73, 62
2, 83400, Note_on_c, 0, 73, 0
2, 83400, Control_c, 0, 64, 0
2, 83400, Note_on_c, 0, 74, 62
2, 83520, Note_on_c, 0, 74, 0
2, 83520, Note_on_c, 0, 68, 62
2, 83520, Note_on_c, 0, 75, 62
2, 83880, Note_on_c, 0, 75, 0
2, 83880, Note_on_c, 0, 68, 0
2, 83880, Note_on_c, 0, 68, 62
2, 83880, Note_on_c, 0, 77, 62
2, 84000, Note_on_c, 0, 77, 0
2, 84000, Note_on_c, 0, 68, 0
2, 84000, Note_on_c, 0, 68, 62
2, 84000, Note_on_c, 0, 75, 62
2, 84047, Note_on_c, 0, 75, 0
2, 84047, Note_on_c, 0, 68, 0
2, 84240, Note_on_c, 0, 68, 62
2, 84240, Note_on_c, 0, 74, 62
2, 84287, Note_on_c, 0, 74, 0
2, 84287, Note_on_c, 0, 68, 0
2, 84480, Note_on_c, 0, 68, 62
2, 84480, Note_on_c, 0, 75, 62
2, 84527, Note_on_c, 0, 75, 0
2, 84527, Note_on_c, 0, 68, 0
2, 84720, Note_on_c, 0, 68, 62
2, 84720, Note_on_c, 0, 80, 62
2, 84767, Note_on_c, 0, 80, 0
2, 84767, Note_on_c, 0, 68, 0
2, 84960, Note_on_c, 0, 68, 62
2, 84960, Note_on_c, 0, 75, 62
2, 85200, Note_on_c, 0, 75, 0
2, 85200, Note_on_c, 0, 68, 0
2, 85440, Note_on_c, 0, 68, 88
2, 85440, Note_on_c, 0, 74, 88
2, 85920, Note_on_c, 0, 74, 0
2, 85920, Note_on_c, 0, 68, 0
2, 85920, Note_on_c, 0, 67, 62
2, 85920, Note_on_c, 0, 75, 62
2, 86400, Note_on_c, 0, 75, 0
2, 86400, Note_on_c, 0, 67, 0
2, 86400, Note_on_c, 0, 67, 62
2, 86400, Note_on_c, 0, 73, 62
2, 86760, Note_on_c, 0, 73, 0
2, 86760, Note_on_c, 0, 67, 0
2, 86760, Note_on_c, 0, 67, 62
2, 86760, Note_on_c, 0, 75, 62
2, 86880, Note_on_c, 0, 75, 0
2, 86880, Note_on_c, 0, 67, 0
2, 86880, Note_on_c, 0, 67, 62
2, 86880, Note_on_c, 0, 73, 62
2, 86927, Note_on_c, 0, 73, 0
2, 86927, Note_on_c, 0, 67, 0
2, 87120, Note_on_c, 0, 63, 62
2, 87120, Note_on_c, 0, 72, 62
2, 87167, Note_on_c, 0, 72, 0
2, 87167, Note_on_c, 0, 63, 0
2, 87360, Note_on_c, 0, 63, 62
2, 87360, Note_on_c, 0, 70, 62
2, 87407, Note_on_c, 0, 70, 0
2, 87407, Note_on_c, 0, 63, 0
2, 87600, Note_on_c, 0, 63, 62
2, 87600, Note_on_c, 0, 69, 62
2, 87647, Note_on_c, 0, 69, 0
2, 87647, Note_on_c, 0, 63, 0
2, 87840, Note_on_c, 0, 63, 62
2, 87840, Note_on_c, 0, 66, 62
2, 87840, Note_on_c, 0, 75, 62
2, 88080, Note_on_c, 0, 75, 0
2, 88080, Note_on_c, 0, 66, 0
2, 88080, Note_on_c, 0, 63, 0
2, 88320, Note_on_c, 0, 60, 88
2, 88320, Note_on_c, 0, 63, 88
2, 88320, Note_on_c, 0, 72, 88
2, 88800, Note_on_c, 0, 72, 0
2, 88800, Note_on_c, 0, 63, 0
2, 88800, Note_on_c, 0, 60, 0
2, 88800, Note_on_c, 0, 61, 88
2, 88800, Note_on_c, 0, 65, 88
2, 88800, Note_on_c, 0, 73, 88
2, 89280, Note_on_c, 0, 73, 0
2, 89280, Note_on_c, 0, 65, 0
2, 89280, Note_on_c, 0, 61, 0
2, 89280, Note_on_c, 0, 61, 75
2, 89280, Note_on_c, 0, 68, 75
2, 89640, Note_on_c, 0, 68, 0
2, 89640, Note_on_c, 0, 61, 0
2, 89640, Note_on_c, 0, 61, 75
2, 89640, Note_on_c, 0, 70, 75
2, 89760, Note_on_c, 0, 70, 0
2, 89760, Note_on_c, 0, 61, 0
2, 89760, Note_on_c, 0, 61, 75
2, 89760, Note_on_c, 0, 68, 75
2, 90000, Note_on_c, 0, 68, 0
2, 90000, Note_on_c, 0, 61, 0
2, 90000, Note_on_c, 0, 61, 75
2, 90000, Note_on_c, 0, 67, 75
2, 90047, Note_on_c, 0, 67, 0
2, 90047, Note_on_c, 0, 61, 0
2, 90240, Note_on_c, 0, 59, 75
2, 90240, Note_on_c, 0, 62, 75
2, 90287, Note_on_c, 0, 62, 0
2, 90287, Note_on_c, 0, 59, 0
2, 90480, Note_on_c, 0, 58, 75
2, 90480, Note_on_c, 0, 63, 75
2, 90527, Note_on_c, 0, 63, 0
2, 90527, Note_on_c, 0, 58, 0
2, 90720, Note_on_c, 0, 63, 75
2, 90720, Note_on_c, 0, 70, 75
2, 91080, Note_on_c, 0, 70, 0
2, 91080, Note_on_c, 0, 63, 0
2, 91080, Note_on_c, 0, 63, 75
2, 91080, Note_on_c, 0, 72, 75
2, 91200, Note_on_c, 0, 72, 0
2, 91200, Note_on_c, 0, 63, 0
2, 91200, Note_on_c, 0, 63, 75
2, 91200, Note_on_c, 0, 70, 75
2, 91247, Note_on_c, 0, 70, 0
2, 91247, Note_on_c, 0, 63, 0
2, 91440, Note_on_c, 0, 63, 75
2, 91440, Note_on_c, 0, 69, 75
2, 91487, Note_on_c, 0, 69, 0
2, 91487, Note_on_c, 0, 63, 0
2, 91680, Note_on_c, 0, 61, 75
2, 91680, Note_on_c, 0, 64, 75
2, 91727, Note_on_c, 0, 64, 0
2, 91727, Note_on_c, 0, 61, 0
2, 91920, Note_on_c, 0, 60, 75
2, 91920, Note_on_c, 0, 65, 75
2, 91967, Note_on_c, 0, 65, 0
2, 91967, Note_on_c, 0, 60, 0
2, 92160, Note_on_c, 0, 77, 101
2, 92880, Note_on_c, 0, 77, 0
2, 92880, Note_on_c, 0, 78, 101
2, 93600, Note_on_c, 0, 78, 0
2, 93600, Note_on_c, 0, 79, 101
2, 94320, Note_on_c, 0, 79, 0
2, 94320, Note_on_c, 0, 80, 101
2, 95040, Note_on_c, 0, 80, 0
2, 95280, Note_on_c, 0, 80, 75
2, 95400, Note_on_c, 0, 80, 0
2, 95400, Note_on_c, 0, 68, 75
2, 95520, Note_on_c, 0, 68, 0
2, 96000, Note_on_c, 0, 80, 75
2, 96000, Note_on_c, 0, 83, 75
2, 96120, Note_on_c, 0, 83, 0
2, 96120, Note_on_c, 0, 80, 0
2, 96120, Note_on_c, 0, 71, 75
2, 96240, Note_on_c, 0, 71, 0
2, 96720, Note_on_c, 0, 78, 75
2, 96720, Note_on_c, 0, 84, 75
2, 96840, Note_on_c, 0, 84, 0
2, 96840, Note_on_c, 0, 78, 0
2, 96840, Note_on_c, 0, 72, 75
2, 96960, Note_on_c, 0, 72, 0
2, 97440, Note_on_c, 0, 77, 75
2, 97440, Note_on_c, 0, 85, 75
2, 97560, Note_on_c, 0, 85, 0
2, 97560, Note_on_c, 0, 77, 0
2, 97560, Note_on_c, 0, 73, 75
2, 97680, Note_on_c, 0, 73, 0
2, 97920, Note_on_c, 0, 73, 101
2, 98640, Note_on_c, 0, 73, 0
2, 98640, Note_on_c, 0, 74, 101
2, 99360, Note_on_c, 0, 74, 0
2, 99360, Note_on_c, 0, 75, 101
2, 100080, Note_on_c, 0, 75, 0
2, 100080, Note_on_c, 0, 76, 101
2, 100800, Note_on_c, 0, 76, 0
2, 101040, Note_on_c, 0, 76, 88
2, 101160, Note_on_c, 0, 76, 0
2, 101160, Note_on_c, 0, 64, 88
2, 101280, Note_on_c, 0, 64, 0
2, 101760, Note_on_c, 0, 76, 88
2, 101760, Note_on_c, 0, 79, 88
2, 101880, Note_on_c, 0, 79, 0
2, 101880, Note_on_c, 0, 76, 0
2, 101880, Note_on_c, 0, 67, 88
2, 102000, Note_on_c, 0, 67, 0
2, 102480, Note_on_c, 0, 74, 88
2, 102480, Note_on_c, 0, 80, 88
2, 102600, Note_on_c, 0, 80, 0
2, 102600, Note_on_c, 0, 74, 0
2, 102600, Note_on_c, 0, 68, 88
2, 102720, Note_on_c, 0, 68, 0
2, 103200, Note_on_c, 0, 73, 88
2, 103200, Note_on_c, 0, 81, 88
2, 103320, Note_on_c, 0, 81, 0
2, 103320, Note_on_c, 0, 73, 0
2, 103320, Note_on_c, 0, 69, 88
2, 103440, Note_on_c, 0, 69, 0
2, 103920, Note_on_c, 0, 70, 88
2, 103920, Note_on_c, 0, 73, 88
2, 103920, Note_on_c, 0, 79, 88
2, 103920, Note_on_c, 0, 82, 88
2, 104400, Note_on_c, 0, 82, 0
2, 104400, Note_on_c, 0, 70, 0
2, 104400, Note_on_c, 0, 73, 0
2, 104400, Note_on_c, 0, 79, 0
2, 104400, Note_on_c, 0, 69, 88
2, 104400, Note_on_c, 0, 73, 88
2, 104400, Note_on_c, 0, 78, 88
2, 104400, Note_on_c, 0, 81, 88
2, 105120, Note_on_c, 0, 81, 0
2, 105120, Note_on_c, 0, 69, 0
2, 105120, Note_on_c, 0, 73, 0
2, 105120, Note_on_c, 0, 78, 0
2, 105360, Note_on_c, 0, 70, 88
2, 105360, Note_on_c, 0, 73, 88
2, 105360, Note_on_c, 0, 79, 88
2, 105360, Note_on_c, 0, 82, 88
2, 105840, Note_on_c, 0, 82, 0
2, 105840, Note_on_c, 0, 70, 0
2, 105840, Note_on_c, 0, 73, 0
2, 105840, Note_on_c, 0, 79, 0
2, 105840, Note_on_c, 0, 69, 88
2, 105840, Note_on_c, 0, 73, 88
2, 105840, Note_on_c, 0, 78, 88
2, 105840, Note_on_c, 0, 81, 88
2, 106560, Note_on_c, 0, 81, 0
2, 106560, Note_on_c, 0, 69, 0
2, 106560, Note_on_c, 0, 73, 0
2, 106560, Note_on_c, 0, 78, 0
2, 106800, Note_on_c, 0, 70, 101
2, 106800, Note_on_c, 0, 73, 101
2, 106800, Note_on_c, 0, 79, 101
2, 106800, Note_on_c, 0, 82, 101
2, 107280, Note_on_c, 0, 82, 0
2, 107280, Note_on_c, 0, 70, 0
2, 107280, Note_on_c, 0, 73, 0
2, 107280, Note_on_c, 0, 79, 0
2, 107280, Note_on_c, 0, 71, 101
2, 107280, Note_on_c, 0, 74, 101
2, 107280, Note_on_c, 0, 80, 101
2, 107280, Note_on_c, 0, 83, 101
2, 107760, Note_on_c, 0, 83, 0
2, 107760, Note_on_c, 0, 71, 0
2, 107760, Note_on_c, 0, 74, 0
2, 107760, Note_on_c, 0, 80, 0
2, 107760, Note_on_c, 0, 72, 101
2, 107760, Note_on_c, 0, 75, 101
2, 107760, Note_on_c, 0, 80, 101
2, 107760, Note_on_c, 0, 84, 101
2, 108240, Note_on_c, 0, 84, 0
2, 108240, Note_on_c, 0, 72, 0
2, 108240, Note_on_c, 0, 75, 0
2, 108240, Note_on_c, 0, 80, 0
2, 108240, Note_on_c, 0, 73, 101
2, 108240, Note_on_c, 0, 77, 101
2, 108240, Note_on_c, 0, 80, 101
2, 108240, Note_on_c, 0, 85, 101
2, 108720, Note_on_c, 0, 85, 0
2, 108720, Note_on_c, 0, 73, 0
2, 108720, Note_on_c, 0, 77, 0
2, 108720, Note_on_c, 0, 80, 0
2, 108720, Note_on_c, 0, 74, 101
2, 108720, Note_on_c, 0, 80, 101
2, 108720, Note_on_c, 0, 82, 101
2, 108720, Note_on_c, 0, 86, 101
2, 109200, Note_on_c, 0, 86, 0
2, 109200, Note_on_c, 0, 74, 0
2, 109200, Note_on_c, 0, 80, 0
2, 109200, Note_on_c, 0, 82, 0
2, 109200, Note_on_c, 0, 75, 101
2, 109200, Note_on_c, 0, 79, 101
2, 109200, Note_on_c, 0, 82, 101
2, 109200, Note_on_c, 0, 87, 101
2, 109680, Note_on_c, 0, 87, 0
2, 109680, Note_on_c, 0, 75, 0
2, 109680, Note_on_c, 0, 79, 0
2, 109680, Note_on_c, 0, 82, 0
2, 109680, Note_on_c, 0, 77, 101
2, 109680, Note_on_c, 0, 80, 101
2, 109680, Note_on_c, 0, 87, 101
2, 109680, Note_on_c, 0, 89, 101
2, 110160, Note_on_c, 0, 89, 0
2, 110160, Note_on_c, 0, 77, 0
2, 110160, Note_on_c, 0, 80, 0
2, 110160, Note_on_c, 0, 87, 0
2, 110160, Note_on_c, 0, 78, 101
2, 110160, Note_on_c, 0, 81, 101
2, 110160, Note_on_c, 0, 87, 101
2, 110160, Note_on_c, 0, 90, 101
2, 110640, Note_on_c, 0, 90, 0
2, 110640, Note_on_c, 0, 78, 0
2, 110640, Note_on_c, 0, 81, 0
2, 110640, Note_on_c, 0, 87, 0
2, 110640, Note_on_c, 0, 79, 101
2, 110640, Note_on_c, 0, 82, 101
2, 110640, Note_on_c, 0, 87, 101
2, 110640, Note_on_c, 0, 91, 101
2, 111120, Note_on_c, 0, 91, 0
2, 111120, Note_on_c, 0, 79, 0
2, 111120, Note_on_c, 0, 82, 0
2, 111120, Note_on_c, 0, 87, 0
2, 111120, Note_on_c, 0, 80, 101
2, 111120, Note_on_c, 0, 84, 101
2, 111120, Note_on_c, 0, 87, 101
2, 111120, Note_on_c, 0, 92, 101
2, 111600, Note_on_c, 0, 92, 0
2, 111600, Note_on_c, 0, 80, 0
2, 111600, Note_on_c, 0, 84, 0
2, 111600, Note_on_c, 0, 87, 0
2, 111600, Note_on_c, 0, 82, 101
2, 111600, Note_on_c, 0, 87, 101
2, 111600, Note_on_c, 0, 91, 101
2, 112080, Note_on_c, 0, 91, 0
2, 112080, Note_on_c, 0, 87, 0
2, 112080, Note_on_c, 0, 82, 0
2, 112080, Note_on_c, 0, 84, 101
2, 112080, Note_on_c, 0, 87, 101
2, 112080, Note_on_c, 0, 92, 101
2, 112080, Note_on_c, 0, 96, 101
2, 112560, Note_on_c, 0, 96, 0
2, 112560, Note_on_c, 0, 84, 0
2, 112560, Note_on_c, 0, 87, 0
2, 112560, Note_on_c, 0, 92, 0
2, 112560, Note_on_c, 0, 85, 101
2, 112560, Note_on_c, 0, 92, 101
2, 112560, Note_on_c, 0, 97, 101
2, 113040, Note_on_c, 0, 97, 0
2, 113040, Note_on_c, 0, 92, 0
2, 113040, Note_on_c, 0, 85, 0
2, 113040, Note_on_c, 0, 86, 101
2, 113040, Note_on_c, 0, 92, 101
2, 113040, Note_on_c, 0, 94, 101
2, 113040, Note_on_c, 0, 98, 101
2, 113520, Note_on_c, 0, 98, 0
2, 113520, Note_on_c, 0, 86, 0
2, 113520, Note_on_c, 0, 92, 0
2, 113520, Note_on_c, 0, 94, 0
2, 113520, Note_on_c, 0, 87, 101
2, 113520, Note_on_c, 0, 91, 101
2, 113520, Note_on_c, 0, 94, 101
2, 113520, Note_on_c, 0, 99, 101
2, 114000, Note_on_c, 0, 99, 0
2, 114000, Note_on_c, 0, 87, 0
2, 114000, Note_on_c, 0, 91, 0
2, 114000, Note_on_c, 0, 94, 0
2, 114000, Note_on_c, 0, 89, 101
2, 114000, Note_on_c, 0, 92, 101
2, 114000, Note_on_c, 0, 99, 101
2, 114000, Note_on_c, 0, 101, 101
2, 114480, Note_on_c, 0, 101, 0
2, 114480, Note_on_c, 0, 89, 0
2, 114480, Note_on_c, 0, 92, 0
2, 114480, Note_on_c, 0, 99, 0
2, 114480, Note_on_c, 0, 90, 101
2, 114480, Note_on_c, 0, 93, 101
2, 114480, Note_on_c, 0, 99, 101
2, 114480, Note_on_c, 0, 102, 101
2, 114960, Note_on_c, 0, 102, 0
2, 114960, Note_on_c, 0, 90, 0
2, 114960, Note_on_c, 0, 93, 0
2, 114960, Note_on_c, 0, 99, 0
2, 114960, Note_on_c, 0, 91, 101
2, 114960, Note_on_c, 0, 97, 101
2, 114960, Note_on_c, 0, 99, 101
2, 114960, Note_on_c, 0, 103, 101
2, 115200, Note_on_c, 0, 103, 0
2, 115200, Note_on_c, 0, 91, 0
2, 115200, Note_on_c, 0, 97, 0
2, 115200, Note_on_c, 0, 99, 0
2, 115200, Note_on_c, 0, 92, 101
2, 115200, Note_on_c, 0, 96, 101
2, 115200, Note_on_c, 0, 99, 101
2, 115200, Note_on_c, 0, 104, 101
2, 115440, Note_on_c, 0, 104, 0
2, 115440, Note_on_c, 0, 92, 0
2, 115440, Note_on_c, 0, 96, 0
2, 115440, Note_on_c, 0, 99, 0
2, 115440, Note_on_c, 0, 72, 101
2, 115920, Note_on_c, 0, 72, 0
2, 115920, Note_on_c, 0, 72, 88
2, 116400, Note_on_c, 0, 72, 0
2, 116400, Note_on_c, 0, 72, 88
2, 116880, Note_on_c, 0, 72, 0
2, 116880, Note_on_c, 0, 72, 75
2, 117600, Note_on_c, 0, 72, 0
2, 117600, Note_on_c, 0, 72, 62
2, 117647, Note_on_c, 0, 72, 0
2, 117840, Note_on_c, 0, 72, 49
2, 117887, Note_on_c, 0, 72, 0
2, 118080, Note_on_c, 0, 80, 62
2, 118560, Note_on_c, 0, 80, 0
2, 118560, Note_on_c, 0, 77, 62
2, 118800, Note_on_c, 0, 77, 0
2, 118800, Note_on_c, 0, 76, 62
2, 119280, Note_on_c, 0, 76, 0
2, 119280, Note_on_c, 0, 79, 62
2, 119520, Note_on_c, 0, 79, 0
2, 119520, Note_on_c, 0, 72, 62
2, 119760, Note_on_c, 0, 72, 0
2, 120480, Note_on_c, 0, 60, 62
2, 120480, Note_on_c, 0, 64, 62
2, 120480, Note_on_c, 0, 72, 62
2, 120960, Note_on_c, 0, 72, 0
2, 120960, Note_on_c, 0, 64, 0
2, 120960, Note_on_c, 0, 60, 0
2, 120960, Note_on_c, 0, 60, 62
2, 120960, Note_on_c, 0, 65, 62
2, 120960, Note_on_c, 0, 68, 62
2, 121440, Note_on_c, 0, 68, 0
2, 121440, Note_on_c, 0, 65, 0
2, 121440, Note_on_c, 0, 60, 0
2, 121440, Note_on_c, 0, 68, 62
2, 121920, Note_on_c, 0, 68, 0
2, 121920, Note_on_c, 0, 64, 62
2, 122280, Note_on_c, 0, 64, 0
2, 122280, Note_on_c, 0, 65, 62
2, 122400, Note_on_c, 0, 65, 0
2, 122400, Note_on_c, 0, 68, 62
2, 122880, Note_on_c, 0, 68, 0
2, 122880, Note_on_c, 0, 67, 62
2, 123120, Note_on_c, 0, 67, 0
2, 123360, Note_on_c, 0, 72, 62
2, 123407, Note_on_c, 0, 72, 0
2, 123600, Note_on_c, 0, 72, 62
2, 123647, Note_on_c, 0, 72, 0
2, 123840, Note_on_c, 0, 80, 62
2, 124320, Note_on_c, 0, 80, 0
2, 124320, Note_on_c, 0, 77, 62
2, 124560, Note_on_c, 0, 77, 0
2, 124560, Note_on_c, 0, 76, 62
2, 125040, Note_on_c, 0, 76, 0
2, 125040, Note_on_c, 0, 79, 62
2, 125280, Note_on_c, 0, 79, 0
2, 125280, Note_on_c, 0, 72, 62
2, 125520, Note_on_c, 0, 72, 0
2, 126240, Note_on_c, 0, 75, 62
2, 126600, Note_on_c, 0, 75, 0
2, 126600, Note_on_c, 0, 77, 62
2, 126720, Note_on_c, 0, 77, 0
2, 126720, Note_on_c, 0, 72, 62
2, 126960, Note_on_c, 0, 72, 0
2, 127680, Note_on_c, 0, 72, 62
2, 128040, Note_on_c, 0, 72, 0
2, 128040, Note_on_c, 0, 73, 62
2, 128160, Note_on_c, 0, 73, 0
2, 128160, Note_on_c, 0, 68, 62
2, 128640, Note_on_c, 0, 68, 0
2, 128640, Note_on_c, 0, 68, 62
2, 129120, Note_on_c, 0, 68, 0
2, 129120, Note_on_c, 0, 67, 62
2, 129480, Note_on_c, 0, 67, 0
2, 129480, Note_on_c, 0, 64, 62
2, 129600, Note_on_c, 0, 64, 0
2, 129600, Note_on_c, 0, 64, 62
2, 130080, Note_on_c, 0, 64, 0
2, 130080, Note_on_c, 0, 65, 62
2, 130320, Note_on_c, 0, 65, 0
2, 130560, Note_on_c, 0, 55, 62
2, 130800, Note_on_c, 0, 55, 0
2, 130800, Note_on_c, 0, 56, 62
2, 131040, Note_on_c, 0, 56, 0
2, 131040, Note_on_c, 0, 58, 62
2, 131520, Note_on_c, 0, 58, 0
2, 131520, Note_on_c, 0, 55, 62
2, 131760, Note_on_c, 0, 55, 0
2, 131760, Note_on_c, 0, 63, 62
2, 132240, Note_on_c, 0, 63, 0
2, 132240, Note_on_c, 0, 60, 62
2, 132480, Note_on_c, 0, 60, 0
2, 132480, Note_on_c, 0, 58, 62
2, 132720, Note_on_c, 0, 58, 0
2, 132720, Note_on_c, 0, 76, 88
2, 133080, Note_on_c, 0, 76, 0
2, 133080, Note_on_c, 0, 74, 62
2, 133200, Note_on_c, 0, 74, 0
2, 133200, Note_on_c, 0, 75, 62
2, 133440, Note_on_c, 0, 75, 0
2, 133440, Note_on_c, 0, 74, 62
2, 133440, Note_on_c, 0, 82, 62
2, 133920, Note_on_c, 0, 82, 0
2, 133920, Note_on_c, 0, 74, 0
2, 133920, Note_on_c, 0, 75, 62
2, 134160, Note_on_c, 0, 75, 0
2, 134160, Note_on_c, 0, 64, 88
2, 134520, Note_on_c, 0, 64, 0
2, 134520, Note_on_c, 0, 62, 62
2, 134640, Note_on_c, 0, 62, 0
2, 134640, Note_on_c, 0, 63, 62
2, 134880, Note_on_c, 0, 63, 0
2, 134880, Note_on_c, 0, 62, 62
2, 134880, Note_on_c, 0, 70, 62
2, 135360, Note_on_c, 0, 70, 0
2, 135360, Note_on_c, 0, 62, 0
2, 135360, Note_on_c, 0, 63, 62
2, 135600, Note_on_c, 0, 63, 0
2, 136320, Note_on_c, 0, 67, 62
2, 136560, Note_on_c, 0, 67, 0
2, 136560, Note_on_c, 0, 68, 62
2, 136800, Note_on_c, 0, 68, 0
2, 136800, Note_on_c, 0, 70, 62
2, 137280, Note_on_c, 0, 70, 0
2, 137280, Note_on_c, 0, 67, 62
2, 137520, Note_on_c, 0, 67, 0
2, 137520, Note_on_c, 0, 75, 62
2, 138000, Note_on_c, 0, 75, 0
2, 138000, Note_on_c, 0, 72, 62
2, 138240, Note_on_c, 0, 72, 0
2, 138240, Note_on_c, 0, 70, 62
2, 138480, Note_on_c, 0, 70, 0
2, 138480, Note_on_c, 0, 76, 88
2, 138840, Note_on_c, 0, 76, 0
2, 138840, Note_on_c, 0, 74, 62
2, 138960, Note_on_c, 0, 74, 0
2, 138960, Note_on_c, 0, 75, 62
2, 139200, Note_on_c, 0, 75, 0
2, 139200, Note_on_c, 0, 70, 62
2, 139200, Note_on_c, 0, 82, 62
2, 139680, Note_on_c, 0, 82, 0
2, 139680, Note_on_c, 0, 79, 62
2, 139920, Note_on_c, 0, 79, 0
2, 139920, Note_on_c, 0, 70, 0
2, 139920, Note_on_c, 0, 73, 88
2, 140280, Note_on_c, 0, 73, 0
2, 140280, Note_on_c, 0, 71, 62
2, 140400, Note_on_c, 0, 71, 0
2, 140400, Note_on_c, 0, 72, 62
2, 141360, Note_on_c, 0, 72, 0
2, 142680, Control_c, 0, 64, 127
2, 142680, Note_on_c, 0, 71, 62
2, 142800, Note_on_c, 0, 71, 0
2, 142800, Note_on_c, 0, 72, 62
2, 142920, Note_on_c, 0, 72, 0
2, 142920, Note_on_c, 0, 76, 62
2, 143040, Note_on_c, 0, 76, 0
2, 143040, Note_on_c, 0, 77, 62
2, 143160, Note_on_c, 0, 77, 0
2, 143160, Note_on_c, 0, 80, 62
2, 143280, Note_on_c, 0, 80, 0
2, 143280, Note_on_c, 0, 84, 75
2, 143400, Note_on_c, 0, 84, 0
2, 143400, Note_on_c, 0, 85, 75
2, 143520, Note_on_c, 0, 85, 0
2, 143520, Note_on_c, 0, 84, 75
2, 143640, Note_on_c, 0, 84, 0
2, 143640, Note_on_c, 0, 83, 75
2, 143760, Note_on_c, 0, 83, 0
2, 143760, Note_on_c, 0, 84, 75
2, 143880, Note_on_c, 0, 84, 0
2, 143880, Control_c, 0, 64, 0
2, 143880, Note_on_c, 0, 82, 75
2, 144000, Note_on_c, 0, 82, 0
2, 144000, Control_c, 0, 64, 127
2, 144000, Note_on_c, 0, 80, 75
2, 144120, Note_on_c, 0, 80, 0
2, 144120, Note_on_c, 0, 84, 75
2, 144240, Note_on_c, 0, 84, 0
2, 144240, Note_on_c, 0, 79, 75
2, 144360, Note_on_c, 0, 79, 0
2, 144360, Note_on_c, 0, 84, 75
2, 144480, Note_on_c, 0, 84, 0
2, 144480, Note_on_c, 0, 77, 75
2, 144600, Note_on_c, 0, 77, 0
2, 144600, Note_on_c, 0, 84, 75
2, 144720, Note_on_c, 0, 84, 0
2, 144720, Note_on_c, 0, 76, 75
2, 144840, Note_on_c, 0, 76, 0
2, 144840, Control_c, 0, 64, 0
2, 144840, Note_on_c, 0, 84, 75
2, 144960, Note_on_c, 0, 84, 0
2, 144960, Note_on_c, 0, 68, 101
2, 145320, Note_on_c, 0, 68, 0
2, 145320, Note_on_c, 0, 67, 75
2, 145440, Note_on_c, 0, 67, 0
2, 145440, Control_c, 0, 64, 127
2, 145440, Note_on_c, 0, 65, 75
2, 145560, Note_on_c, 0, 65, 0
2, 145560, Note_on_c, 0, 59, 62
2, 145680, Note_on_c, 0, 59, 0
2, 145680, Note_on_c, 0, 60, 62
2, 145800, Note_on_c, 0, 60, 0
2, 145800, Note_on_c, 0, 64, 62
2, 145920, Note_on_c, 0, 64, 0
2, 145920, Note_on_c, 0, 65, 62
2, 146040, Note_on_c, 0, 65, 0
2, 146040, Note_on_c, 0, 64, 62
2, 146160, Note_on_c, 0, 64, 0
2, 146160, Note_on_c, 0, 65, 62
2, 146280, Note_on_c, 0, 65, 0
2, 146280, Note_on_c, 0, 67, 62
2, 146400, Note_on_c, 0, 67, 0
2, 146400, Note_on_c, 0, 68, 62
2, 146520, Note_on_c, 0, 68, 0
2, 146520, Note_on_c, 0, 67, 62
2, 146640, Note_on_c, 0, 67, 0
2, 146640, Note_on_c, 0, 68, 62
2, 146760, Note_on_c, 0, 68, 0
2, 146760, Control_c, 0, 64, 0
2, 146760, Note_on_c, 0, 71, 62
2, 146880, Note_on_c, 0, 71, 0
2, 146880, Control_c, 0, 64, 127
2, 146880, Note_on_c, 0, 72, 62
2, 147000, Note_on_c, 0, 72, 0
2, 147000, Note_on_c, 0, 71, 62
2, 147120, Note_on_c, 0, 71, 0
2, 147120, Note_on_c, 0, 72, 62
2, 147240, Note_on_c, 0, 72, 0
2, 147240, Note_on_c, 0, 77, 62
2, 147360, Note_on_c, 0, 77, 0
2, 147360, Note_on_c, 0, 75, 62
2, 147480, Note_on_c, 0, 75, 0
2, 147480, Note_on_c, 0, 76, 62
2, 147600, Note_on_c, 0, 76, 0
2, 147600, Note_on_c, 0, 83, 62
2, 147720, Note_on_c, 0, 83, 0
2, 147720, Note_on_c, 0, 84, 62
2, 147840, Note_on_c, 0, 84, 0
2, 147840, Note_on_c, 0, 75, 62
2, 147960, Note_on_c, 0, 75, 0
2, 147960, Note_on_c, 0, 76, 62
2, 148080, Note_on_c, 0, 76, 0
2, 148080, Note_on_c, 0, 80, 62
2, 148200, Note_on_c, 0, 80, 0
2, 148200, Control_c, 0, 64, 0
2, 148200, Note_on_c, 0, 76, 62
2, 148320, Note_on_c, 0, 76, 0
2, 148320, Control_c, 0, 64, 127
2, 148320, Note_on_c, 0, 77, 62
2, 148440, Note_on_c, 0, 77, 0
2, 148440, Note_on_c, 0, 71, 62
2, 148560, Note_on_c, 0, 71, 0
2, 148560, Note_on_c, 0, 72, 62
2, 148680, Note_on_c, 0, 72, 0
2, 148680, Note_on_c, 0, 76, 62
2, 148800, Note_on_c, 0, 76, 0
2, 148800, Note_on_c, 0, 77, 62
2, 148920, Note_on_c, 0, 77, 0
2, 148920, Note_on_c, 0, 80, 62
2, 149040, Note_on_c, 0, 80, 0
2, 149040, Note_on_c, 0, 84, 75
2, 149160, Note_on_c, 0, 84, 0
2, 149160, Note_on_c, 0, 85, 75
2, 149280, Note_on_c, 0, 85, 0
2, 149280, Note_on_c, 0, 84, 75
2, 149400, Note_on_c, 0, 84, 0
2, 149400, Note_on_c, 0, 83, 75
2, 149520, Note_on_c, 0, 83, 0
2, 149520, Note_on_c, 0, 84, 75
2, 149640, Note_on_c, 0, 84, 0
2, 149640, Control_c, 0, 64, 0
2, 149640, Note_on_c, 0, 82, 75
2, 149760, Note_on_c, 0, 82, 0
2, 149760, Control_c, 0, 64, 127
2, 149760, Note_on_c, 0, 80, 75
2, 149880, Note_on_c, 0, 80, 0
2, 149880, Note_on_c, 0, 84, 75
2, 150000, Note_on_c, 0, 84, 0
2, 150000, Note_on_c, 0, 79, 75
2, 150120, Note_on_c, 0, 79, 0
2, 150120, Note_on_c, 0, 84, 75
2, 150240, Note_on_c, 0, 84, 0
2, 150240, Note_on_c, 0, 77, 75
2, 150360, Note_on_c, 0, 77, 0
2, 150360, Note_on_c, 0, 79, 75
2, 150480, Note_on_c, 0, 79, 0
2, 150480, Note_on_c, 0, 75, 75
2, 150600, Note_on_c, 0, 75, 0
2, 150600, Control_c, 0, 64, 0
2, 150600, Note_on_c, 0, 80, 75
2, 150720, Note_on_c, 0, 80, 0
2, 150720, Note_on_c, 0, 75, 75
2, 151080, Note_on_c, 0, 75, 0
2, 151080, Note_on_c, 0, 77, 75
2, 151200, Note_on_c, 0, 77, 0
2, 151200, Note_on_c, 0, 72, 75
2, 151440, Note_on_c, 0, 72, 0
2, 151440, Control_c, 0, 64, 127
2, 151440, Note_on_c, 0, 75, 75
2, 151560, Note_on_c, 0, 75, 0
2, 151560, Note_on_c, 0, 78, 75
2, 151680, Note_on_c, 0, 78, 0
2, 151680, Note_on_c, 0, 73, 75
2, 151800, Note_on_c, 0, 73, 0
2, 151800, Control_c, 0, 64, 0
2, 151800, Note_on_c, 0, 79, 75
2, 151920, Note_on_c, 0, 79, 0
2, 151920, Note_on_c, 0, 72, 75
2, 152280, Note_on_c, 0, 72, 0
2, 152280, Note_on_c, 0, 73, 75
2, 152400, Note_on_c, 0, 73, 0
2, 152640, Note_on_c, 0, 68, 75
2, 152880, Note_on_c, 0, 68, 0
2, 152880, Note_on_c, 0, 59, 49
2, 152880, Note_on_c, 0, 68, 49
2, 153360, Note_on_c, 0, 68, 0
2, 153360, Note_on_c, 0, 59, 0
2, 153360, Note_on_c, 0, 59, 49
2, 153360, Note_on_c, 0, 67, 49
2, 153840, Note_on_c, 0, 67, 0
2, 153840, Note_on_c, 0, 59, 0
2, 153840, Note_on_c, 0, 59, 49
2, 153840, Note_on_c, 0, 65, 49
2, 154080, Note_on_c, 0, 59, 0
2, 154080, Note_on_c, 0, 58, 49
2, 154320, Note_on_c, 0, 58, 0
2, 154320, Note_on_c, 0, 65, 0
2, 154320, Note_on_c, 0, 60, 49
2, 154320, Note_on_c, 0, 65, 49
2, 154800, Note_on_c, 0, 65, 0
2, 154800, Note_on_c, 0, 60, 0
2, 154800, Note_on_c, 0, 61, 49
2, 154800, Note_on_c, 0, 65, 49
2, 155280, Note_on_c, 0, 65, 0
2, 155280, Note_on_c, 0, 61, 0
2, 155280, Note_on_c, 0, 60, 49
2, 155280, Note_on_c, 0, 65, 49
2, 155760, Note_on_c, 0, 65, 0
2, 155760, Note_on_c, 0, 60, 0
2, 155760, Note_on_c, 0, 59, 49
2, 155760, Note_on_c, 0, 68, 49
2, 156240, Note_on_c, 0, 68, 0
2, 156240, Note_on_c, 0, 59, 0
2, 156240, Note_on_c, 0, 59, 49
2, 156240, Note_on_c, 0, 67, 49
2, 156720, Note_on_c, 0, 67, 0
2, 156720, Note_on_c, 0, 59, 0
2, 156720, Note_on_c, 0, 59, 49
2, 156720, Note_on_c, 0, 65, 49
2, 157200, Note_on_c, 0, 65, 0
2, 157200, Note_on_c, 0, 59, 0
2, 157200, Note_on_c, 0, 60, 49
2, 157200, Note_on_c, 0, 65, 49
2, 157680, Note_on_c, 0, 65, 0
2, 157680, Note_on_c, 0, 60, 0
2, 157680, Note_on_c, 0, 61, 49
2, 157680, Note_on_c, 0, 65, 49
2, 158160, Note_on_c, 0, 65, 0
2, 158160, Note_on_c, 0, 61, 0
2, 158160, Note_on_c, 0, 62, 49
2, 158160, Note_on_c, 0, 65, 49
2, 158640, Note_on_c, 0, 65, 0
2, 158640, Note_on_c, 0, 62, 0
2, 158640, Note_on_c, 0, 67, 62
2, 158640, Note_on_c, 0, 77, 62
2, 159120, Note_on_c, 0, 77, 0
2, 159120, Note_on_c, 0, 67, 0
2, 159120, Note_on_c, 0, 68, 62
2, 159120, Note_on_c, 0, 75, 62
2, 159600, Note_on_c, 0, 75, 0
2, 159600, Note_on_c, 0, 68, 0
2, 159600, Note_on_c, 0, 70, 62
2, 159600, Note_on_c, 0, 73, 62
2, 160080, Note_on_c, 0, 73, 0
2, 160080, Note_on_c, 0, 70, 0
2, 160080, Note_on_c, 0, 65, 62
2, 160080, Note_on_c, 0, 72, 62
2, 160560, Note_on_c, 0, 72, 0
2, 160560, Note_on_c, 0, 65, 0
2, 160560, Note_on_c, 0, 63, 62
2, 160560, Note_on_c, 0, 66, 62
2, 161040, Note_on_c, 0, 66, 0
2, 161040, Note_on_c, 0, 63, 0
2, 161040, Note_on_c, 0, 63, 62
2, 161040, Note_on_c, 0, 67, 62
2, 161520, Note_on_c, 0, 63, 0
2, 161520, Note_on_c, 0, 77, 62
2, 162000, Note_on_c, 0, 77, 0
2, 162000, Note_on_c, 0, 67, 0
2, 162000, Note_on_c, 0, 68, 62
2, 162000, Note_on_c, 0, 75, 62
2, 162480, Note_on_c, 0, 75, 0
2, 162480, Note_on_c, 0, 68, 0
2, 162480, Note_on_c, 0, 70, 62
2, 162480, Note_on_c, 0, 73, 62
2, 162960, Note_on_c, 0, 73, 0
2, 162960, Note_on_c, 0, 70, 0
2, 162960, Note_on_c, 0, 65, 62
2, 162960, Note_on_c, 0, 72, 62
2, 163440, Note_on_c, 0, 72, 0
2, 163440, Note_on_c, 0, 65, 0
2, 163440, Note_on_c, 0, 63, 62
2, 163440, Note_on_c, 0, 66, 62
2, 163920, Note_on_c, 0, 66, 0
2, 163920, Note_on_c, 0, 63, 0
2, 163920, Note_on_c, 0, 63, 62
2, 163920, Note_on_c, 0, 67, 62
2, 164160, Note_on_c, 0, 67, 0
2, 164160, Note_on_c, 0, 63, 0
2, 164400, Note_on_c, 0, 65, 62
2, 164400, Note_on_c, 0, 72, 62
2, 164880, Note_on_c, 0, 72, 0
2, 164880, Note_on_c, 0, 65, 0
2, 164880, Note_on_c, 0, 63, 62
2, 164880, Note_on_c, 0, 66, 62
2, 165360, Note_on_c, 0, 66, 0
2, 165360, Note_on_c, 0, 63, 0
2, 165360, Note_on_c, 0, 63, 62
2, 165360, Note_on_c, 0, 67, 62
2, 165600, Note_on_c, 0, 67, 0
2, 165600, Note_on_c, 0, 63, 0
2, 165840, Note_on_c, 0, 65, 62
2, 165840, Note_on_c, 0, 72, 62
2, 166320, Note_on_c, 0, 72, 0
2, 166320, Note_on_c, 0, 65, 0
2, 166320, Note_on_c, 0, 63, 62
2, 166320, Note_on_c, 0, 66, 62
2, 166800, Note_on_c, 0, 66, 0
2, 166800, Note_on_c, 0, 63, 0
2, 166800, Note_on_c, 0, 63, 62
2, 166800, Note_on_c, 0, 67, 62
2, 167040, Note_on_c, 0, 67, 0
2, 167040, Note_on_c, 0, 63, 0
2, 167280, Note_on_c, 0, 67, 62
2, 167280, Note_on_c, 0, 77, 62
2, 167760, Note_on_c, 0, 77, 0
2, 167760, Note_on_c, 0, 67, 0
2, 167760, Note_on_c, 0, 67, 62
2, 167760, Note_on_c, 0, 72, 62
2, 168240, Note_on_c, 0, 72, 0
2, 168240, Note_on_c, 0, 67, 0
2, 168240, Note_on_c, 0, 67, 62
2, 168240, Note_on_c, 0, 73, 62
2, 168480, Note_on_c, 0, 73, 0
2, 168480, Note_on_c, 0, 67, 0
2, 168720, Note_on_c, 0, 67, 62
2, 168720, Note_on_c, 0, 77, 62
2, 169200, Note_on_c, 0, 77, 0
2, 169200, Note_on_c, 0, 67, 0
2, 169200, Note_on_c, 0, 67, 62
2, 169200, Note_on_c, 0, 72, 62
2, 169680, Note_on_c, 0, 72, 0
2, 169680, Note_on_c, 0, 67, 0
2, 169680, Note_on_c, 0, 67, 62
2, 169680, Note_on_c, 0, 73, 62
2, 169920, Note_on_c, 0, 73, 0
2, 169920, Note_on_c, 0, 67, 0
2, 170160, Note_on_c, 0, 77, 88
2, 170160, Note_on_c, 0, 89, 88
2, 170207, Note_on_c, 0, 89, 0
2, 170207, Note_on_c, 0, 77, 0
2, 170400, Note_on_c, 0, 72, 88
2, 170400, Note_on_c, 0, 84, 88
2, 170447, Note_on_c, 0, 84, 0
2, 170447, Note_on_c, 0, 72, 0
2, 170640, Note_on_c, 0, 73, 88
2, 170640, Note_on_c, 0, 85, 88
2, 170687, Note_on_c, 0, 85, 0
2, 170687, Note_on_c, 0, 73, 0
2, 170880, Note_on_c, 0, 69, 88
2, 170880, Note_on_c, 0, 81, 88
2, 170927, Note_on_c, 0, 81, 0
2, 170927, Note_on_c, 0, 69, 0
2, 171120, Note_on_c, 0, 70, 88
2, 171120, Note_on_c, 0, 82, 88
2, 171167, Note_on_c, 0, 82, 0
2, 171167, Note_on_c, 0, 70, 0
2, 171360, Note_on_c, 0, 66, 88
2, 171360, Note_on_c, 0, 78, 88
2, 171407, Note_on_c, 0, 78, 0
2, 171407, Note_on_c, 0, 66, 0
2, 171600, Note_on_c, 0, 67, 88
2, 171600, Note_on_c, 0, 79, 88
2, 171647, Note_on_c, 0, 79, 0
2, 171647, Note_on_c, 0, 67, 0
2, 171840, Note_on_c, 0, 64, 88
2, 171840, Note_on_c, 0, 76, 88
2, 171887, Note_on_c, 0, 76, 0
2, 171887, Note_on_c, 0, 64, 0
2, 172080, Note_on_c, 0, 65, 88
2, 172080, Note_on_c, 0, 77, 88
2, 172127, Note_on_c, 0, 77, 0
2, 172127, Note_on_c, 0, 65, 0
2, 172320, Note_on_c, 0, 60, 88
2, 172320, Note_on_c, 0, 72, 88
2, 172367, Note_on_c, 0, 72, 0
2, 172367, Note_on_c, 0, 60, 0
2, 172560, Note_on_c, 0, 61, 88
2, 172560, Note_on_c, 0, 73, 88
2, 172607, Note_on_c, 0, 73, 0
2, 172607, Note_on_c, 0, 61, 0
2, 172800, Note_on_c, 0, 57, 88
2, 172800, Note_on_c, 0, 69, 88
2, 172847, Note_on_c, 0, 69, 0
2, 172847, Note_on_c, 0, 57, 0
2, 173040, Note_on_c, 0, 58, 88
2, 173040, Note_on_c, 0, 70, 88
2, 173087, Note_on_c, 0, 70, 0
2, 173087, Note_on_c, 0, 58, 0
2, 173280, Note_on_c, 0, 54, 88
2, 173280, Note_on_c, 0, 66, 88
2, 173327, Note_on_c, 0, 66, 0
2, 173327, Note_on_c, 0, 54, 0
2, 173520, Note_on_c, 0, 55, 101
2, 173520, Note_on_c, 0, 67, 101
2, 174000, Note_on_c, 0, 67, 0
2, 174000, Note_on_c, 0, 55, 0
2, 174480, Control_c, 0, 64, 127
2, 174480, Note_on_c, 0, 65, 101
2, 174527, Note_on_c, 0, 65, 0
2, 174527, Note_on_c, 0, 63, 101
2, 174576, Note_on_c, 0, 63, 0
2, 174576, Note_on_c, 0, 61, 101
2, 174623, Note_on_c, 0, 61, 0
2, 174623, Note_on_c, 0, 58, 101
2, 174672, Note_on_c, 0, 58, 0
2, 174672, Note_on_c, 0, 55, 101
2, 174720, Note_on_c, 0, 55, 0
2, 174960, Note_on_c, 0, 55, 101
2, 175020, Note_on_c, 0, 55, 0
2, 175020, Note_on_c, 0, 58, 101
2, 175080, Note_on_c, 0, 58, 0
2, 175080, Note_on_c, 0, 61, 101
2, 175140, Note_on_c, 0, 61, 0
2, 175140, Note_on_c, 0, 63, 101
2, 175200, Note_on_c, 0, 63, 0
2, 175200, Note_on_c, 0, 68, 101
2, 175247, Note_on_c, 0, 68, 0
2, 175247, Note_on_c, 0, 67, 101
2, 175296, Note_on_c, 0, 67, 0
2, 175296, Note_on_c, 0, 63, 101
2, 175343, Note_on_c, 0, 63, 0
2, 175343, Note_on_c, 0, 61, 101
2, 175392, Note_on_c, 0, 61, 0
2, 175392, Note_on_c, 0, 58, 101
2, 175440, Note_on_c, 0, 58, 0
2, 175680, Note_on_c, 0, 58, 101
2, 175740, Note_on_c, 0, 58, 0
2, 175740, Note_on_c, 0, 61, 101
2, 175800, Note_on_c, 0, 61, 0
2, 175800, Note_on_c, 0, 63, 101
2, 175860, Note_on_c, 0, 63, 0
2, 175860, Note_on_c, 0, 67, 101
2, 175920, Note_on_c, 0, 67, 0
2, 175920, Note_on_c, 0, 72, 101
2, 175967, Note_on_c, 0, 72, 0
2, 175967, Note_on_c, 0, 70, 101
2, 176016, Note_on_c, 0, 70, 0
2, 176016, Note_on_c, 0, 67, 101
2, 176063, Note_on_c, 0, 67, 0
2, 176063, Note_on_c, 0, 63, 101
2, 176112, Note_on_c, 0, 63, 0
2, 176112, Note_on_c, 0, 61, 101
2, 176160, Note_on_c, 0, 61, 0
2, 176160, Note_on_c, 0, 51, 101
2, 176220, Note_on_c, 0, 51, 0
2, 176220, Note_on_c, 0, 55, 101
2, 176280, Note_on_c, 0, 55, 0
2, 176280, Note_on_c, 0, 58, 101
2, 176340, Note_on_c, 0, 58, 0
2, 176340, Note_on_c, 0, 61, 101
2, 176400, Note_on_c, 0, 61, 0
2, 176400, Note_on_c, 0, 63, 101
2, 176460, Note_on_c, 0, 63, 0
2, 176460, Note_on_c, 0, 67, 101
2, 176520, Note_on_c, 0, 67, 0
2, 176520, Note_on_c, 0, 70, 101
2, 176580, Note_on_c, 0, 70, 0
2, 176580, Note_on_c, 0, 73, 101
2, 176640, Note_on_c, 0, 73, 0
2, 176640, Note_on_c, 0, 77, 101
2, 176687, Note_on_c, 0, 77, 0
2, 176687, Note_on_c, 0, 75, 101
2, 176736, Note_on_c, 0, 75, 0
2, 176736, Note_on_c, 0, 73, 101
2, 176783, Note_on_c, 0, 73, 0
2, 176783, Note_on_c, 0, 70, 101
2, 176832, Note_on_c, 0, 70, 0
2, 176832, Note_on_c, 0, 67, 101
2, 176880, Note_on_c, 0, 67, 0
2, 176880, Note_on_c, 0, 55, 101
2, 176940, Note_on_c, 0, 55, 0
2, 176940, Note_on_c, 0, 58, 101
2, 177000, Note_on_c, 0, 58, 0
2, 177000, Note_on_c, 0, 61, 101
2, 177060, Note_on_c, 0, 61, 0
2, 177060, Note_on_c, 0, 63, 101
2, 177120, Note_on_c, 0, 63, 0
2, 177120, Note_on_c, 0, 67, 101
2, 177180, Note_on_c, 0, 67, 0
2, 177180, Note_on_c, 0, 70, 101
2, 177240, Note_on_c, 0, 70, 0
2, 177240, Note_on_c, 0, 73, 101
2, 177300, Note_on_c, 0, 73, 0
2, 177300, Note_on_c, 0, 75, 101
2, 177360, Note_on_c, 0, 75, 0
2, 177360, Note_on_c, 0, 80, 101
2, 177407, Note_on_c, 0, 80, 0
2, 177407, Note_on_c, 0, 79, 101
2, 177456, Note_on_c, 0, 79, 0
2, 177456, Note_on_c, 0, 75, 101
2, 177503, Note_on_c, 0, 75, 0
2, 177503, Note_on_c, 0, 73, 101
2, 177552, Note_on_c, 0, 73, 0
2, 177552, Note_on_c, 0, 70, 101
2, 177600, Note_on_c, 0, 70, 0
2, 177600, Note_on_c, 0, 58, 101
2, 177660, Note_on_c, 0, 58, 0
2, 177660, Note_on_c, 0, 61, 101
2, 177720, Note_on_c, 0, 61, 0
2, 177720, Note_on_c, 0, 63, 101
2, 177780, Note_on_c, 0, 63, 0
2, 177780, Note_on_c, 0, 67, 101
2, 177840, Note_on_c, 0, 67, 0
2, 177840, Note_on_c, 0, 70, 101
2, 177900, Note_on_c, 0, 70, 0
2, 177900, Note_on_c, 0, 73, 101
2, 177960, Note_on_c, 0, 73, 0
2, 177960, Note_on_c, 0, 75, 101
2, 178020, Note_on_c, 0, 75, 0
2, 178020, Note_on_c, 0, 79, 101
2, 178080, Note_on_c, 0, 79, 0
2, 178080, Note_on_c, 0, 84, 101
2, 178127, Note_on_c, 0, 84, 0
2, 178127, Note_on_c, 0, 82, 101
2, 178176, Note_on_c, 0, 82, 0
2, 178176, Note_on_c, 0, 79, 101
2, 178223, Note_on_c, 0, 79, 0
2, 178223, Note_on_c, 0, 75, 101
2, 178272, Note_on_c, 0, 75, 0
2, 178272, Note_on_c, 0, 73, 101
2, 178320, Note_on_c, 0, 73, 0
2, 178320, Note_on_c, 0, 63, 101
2, 178380, Note_on_c, 0, 63, 0
2, 178380, Note_on_c, 0, 67, 101
2, 178440, Note_on_c, 0, 67, 0
2, 178440, Note_on_c, 0, 70, 101
2, 178500, Note_on_c, 0, 70, 0
2, 178500, Note_on_c, 0, 73, 101
2, 178560, Note_on_c, 0, 73, 0
2, 178560, Note_on_c, 0, 75, 101
2, 178620, Note_on_c, 0, 75, 0
2, 178620, Note_on_c, 0, 79, 101
2, 178680, Note_on_c, 0, 79, 0
2, 178680, Note_on_c, 0, 82, 101
2, 178740, Note_on_c, 0, 82, 0
2, 178740, Note_on_c, 0, 85, 101
2, 178800, Note_on_c, 0, 85, 0
2, 178800, Note_on_c, 0, 89, 101
2, 178847, Note_on_c, 0, 89, 0
2, 178847, Note_on_c, 0, 87, 101
2, 178896, Note_on_c, 0, 87, 0
2, 178896, Note_on_c, 0, 85, 101
2, 178943, Note_on_c, 0, 85, 0
2, 178943, Note_on_c, 0, 84, 101
2, 178992, Note_on_c, 0, 84, 0
2, 178992, Note_on_c, 0, 82, 101
2, 179040, Note_on_c, 0, 82, 0
2, 179040, Note_on_c, 0, 67, 101
2, 179100, Note_on_c, 0, 67, 0
2, 179100, Note_on_c, 0, 70, 101
2, 179160, Note_on_c, 0, 70, 0
2, 179160, Note_on_c, 0, 73, 101
2, 179220, Note_on_c, 0, 73, 0
2, 179220, Note_on_c, 0, 75, 101
2, 179280, Note_on_c, 0, 75, 0
2, 179280, Note_on_c, 0, 79, 101
2, 179340, Note_on_c, 0, 79, 0
2, 179340, Note_on_c, 0, 82, 101
2, 179400, Note_on_c, 0, 82, 0
2, 179400, Note_on_c, 0, 85, 101
2, 179460, Note_on_c, 0, 85, 0
2, 179460, Note_on_c, 0, 87, 101
2, 179520, Note_on_c, 0, 87, 0
2, 179520, Note_on_c, 0, 92, 101
2, 179567, Note_on_c, 0, 92, 0
2, 179567, Note_on_c, 0, 91, 101
2, 179616, Note_on_c, 0, 91, 0
2, 179616, Note_on_c, 0, 87, 101
2, 179663, Note_on_c, 0, 87, 0
2, 179663, Note_on_c, 0, 85, 101
2, 179712, Note_on_c, 0, 85, 0
2, 179712, Note_on_c, 0, 82, 101
2, 179760, Note_on_c, 0, 82, 0
2, 179760, Note_on_c, 0, 70, 101
2, 179820, Note_on_c, 0, 70, 0
2, 179820, Note_on_c, 0, 73, 101
2, 179880, Note_on_c, 0, 73, 0
2, 179880, Note_on_c, 0, 75, 101
2, 179940, Note_on_c, 0, 75, 0
2, 179940, Note_on_c, 0, 79, 101
2, 180000, Note_on_c, 0, 79, 0
2, 180000, Note_on_c, 0, 82, 101
2, 180060, Note_on_c, 0, 82, 0
2, 180060, Note_on_c, 0, 85, 101
2, 180120, Note_on_c, 0, 85, 0
2, 180120, Note_on_c, 0, 87, 101
2, 180180, Note_on_c, 0, 87, 0
2, 180180, Note_on_c, 0, 91, 101
2, 180240, Note_on_c, 0, 91, 0
2, 180240, Note_on_c, 0, 96, 101
2, 180287, Note_on_c, 0, 96, 0
2, 180287, Note_on_c, 0, 94, 101
2, 180336, Note_on_c, 0, 94, 0
2, 180336, Note_on_c, 0, 91, 101
2, 180383, Note_on_c, 0, 91, 0
2, 180383, Note_on_c, 0, 87, 101
2, 180432, Note_on_c, 0, 87, 0
2, 180432, Note_on_c, 0, 85, 101
2, 180480, Note_on_c, 0, 85, 0
2, 180480, Note_on_c, 0, 75, 101
2, 180540, Note_on_c, 0, 75, 0
2, 180540, Note_on_c, 0, 79, 101
2, 180600, Note_on_c, 0, 79, 0
2, 180600, Note_on_c, 0, 82, 101
2, 180660, Note_on_c, 0, 82, 0
2, 180660, Note_on_c, 0, 85, 101
2, 180720, Note_on_c, 0, 85, 0
2, 180720, Note_on_c, 0, 87, 101
2, 180780, Note_on_c, 0, 87, 0
2, 180780, Note_on_c, 0, 91, 101
2, 180840, Note_on_c, 0, 91, 0
2, 180840, Note_on_c, 0, 94, 101
2, 180900, Note_on_c, 0, 94, 0
2, 180900, Note_on_c, 0, 97, 101
2, 180960, Note_on_c, 0, 97, 0
2, 180960, Note_on_c, 0, 101, 101
2, 181440, Note_on_c, 0, 101, 0
2, 181440, Control_c, 0, 64, 0
2, 181680, Control_c, 0, 64, 127
2, 181680, Note_on_c, 0, 99, 101
2, 181740, Note_on_c, 0, 99, 0
2, 181740, Note_on_c, 0, 97, 101
2, 181800, Note_on_c, 0, 97, 0
2, 181800, Note_on_c, 0, 96, 101
2, 181860, Note_on_c, 0, 96, 0
2, 181860, Note_on_c, 0, 94, 101
2, 181920, Note_on_c, 0, 94, 0
2, 181920, Note_on_c, 0, 92, 101
2, 181980, Note_on_c, 0, 92, 0
2, 181980, Note_on_c, 0, 91, 101
2, 182040, Note_on_c, 0, 91, 0
2, 182040, Note_on_c, 0, 89, 101
2, 182100, Note_on_c, 0, 89, 0
2, 182100, Note_on_c, 0, 87, 101
2, 182160, Note_on_c, 0, 87, 0
2, 182160, Note_on_c, 0, 85, 101
2, 182220, Note_on_c, 0, 85, 0
2, 182220, Note_on_c, 0, 84, 101
2, 182280, Note_on_c, 0, 84, 0
2, 182280, Note_on_c, 0, 82, 101
2, 182340, Note_on_c, 0, 82, 0
2, 182340, Note_on_c, 0, 80, 101
2, 182400, Note_on_c, 0, 80, 0
2, 182400, Note_on_c, 0, 79, 101
2, 182460, Note_on_c, 0, 79, 0
2, 182460, Note_on_c, 0, 77, 101
2, 182520, Note_on_c, 0, 77, 0
2, 182520, Note_on_c, 0, 75, 101
2, 182580, Note_on_c, 0, 75, 0
2, 182580, Note_on_c, 0, 73, 101
2, 182640, Note_on_c, 0, 73, 0
2, 182640, Note_on_c, 0, 72, 101
2, 182700, Note_on_c, 0, 72, 0
2, 182700, Note_on_c, 0, 70, 101
2, 182760, Note_on_c, 0, 70, 0
2, 182760, Note_on_c, 0, 68, 101
2, 182820, Note_on_c, 0, 68, 0
2, 182820, Note_on_c, 0, 67, 101
2, 182880, Note_on_c, 0, 67, 0
2, 182880, Note_on_c, 0, 65, 101
2, 182940, Note_on_c, 0, 65, 0
2, 182940, Note_on_c, 0, 63, 101
2, 183000, Note_on_c, 0, 63, 0
2, 183000, Note_on_c, 0, 62, 101
2, 183060, Note_on_c, 0, 62, 0
2, 183060, Note_on_c, 0, 63, 101
2, 183120, Note_on_c, 0, 63, 0
2, 183120, Note_on_c, 0, 65, 101
2, 183180, Note_on_c, 0, 65, 0
2, 183180, Note_on_c, 0, 67, 101
2, 183240, Note_on_c, 0, 67, 0
2, 183240, Note_on_c, 0, 68, 101
2, 183300, Note_on_c, 0, 68, 0
2, 183300, Note_on_c, 0, 70, 101
2, 183360, Note_on_c, 0, 70, 0
2, 183360, Note_on_c, 0, 72, 101
2, 183420, Note_on_c, 0, 72, 0
2, 183420, Note_on_c, 0, 73, 101
2, 183480, Note_on_c, 0, 73, 0
2, 183480, Note_on_c, 0, 74, 101
2, 183540, Note_on_c, 0, 74, 0
2, 183540, Note_on_c, 0, 77, 101
2, 184080, Control_c, 0, 64, 0
2, 184260, Note_on_c, 0, 77, 0
2, 184320, Note_on_c, 0, 75, 101
2, 184560, Note_on_c, 0, 75, 0
2, 184560, Note_on_c, 0, 68, 62
2, 184560, Note_on_c, 0, 75, 62
2, 184920, Note_on_c, 0, 75, 0
2, 184920, Note_on_c, 0, 68, 0
2, 184920, Note_on_c, 0, 68, 62
2, 184920, Note_on_c, 0, 77, 62
2, 185040, Note_on_c, 0, 77, 0
2, 185040, Note_on_c, 0, 68, 0
2, 185040, Note_on_c, 0, 68, 62
2, 185040, Note_on_c, 0, 75, 62
2, 185087, Note_on_c, 0, 75, 0
2, 185087, Note_on_c, 0, 68, 0
2, 185280, Note_on_c, 0, 68, 62
2, 185280, Note_on_c, 0, 74, 62
2, 185327, Note_on_c, 0, 74, 0
2, 185327, Note_on_c, 0, 68, 0
2, 185520, Note_on_c, 0, 68, 62
2, 185520, Note_on_c, 0, 75, 62
2, 185567, Note_on_c, 0, 75, 0
2, 185567, Note_on_c, 0, 68, 0
2, 185760, Note_on_c, 0, 68, 62
2, 185760, Note_on_c, 0, 80, 62
2, 185807, Note_on_c, 0, 80, 0
2, 185807, Note_on_c, 0, 68, 0
2, 186000, Note_on_c, 0, 68, 62
2, 186000, Note_on_c, 0, 75, 62
2, 186240, Note_on_c, 0, 75, 0
2, 186240, Note_on_c, 0, 68, 0
2, 186480, Note_on_c, 0, 68, 88
2, 186480, Note_on_c, 0, 74, 88
2, 186960, Note_on_c, 0, 74, 0
2, 186960, Note_on_c, 0, 68, 0
2, 186960, Note_on_c, 0, 67, 62
2, 186960, Note_on_c, 0, 75, 62
2, 187440, Note_on_c, 0, 75, 0
2, 187440, Note_on_c, 0, 67, 0
2, 187440, Note_on_c, 0, 67, 62
2, 187440, Note_on_c, 0, 73, 62
2, 187800, Note_on_c, 0, 73, 0
2, 187800, Note_on_c, 0, 67, 0
2, 187800, Note_on_c, 0, 67, 62
2, 187800, Note_on_c, 0, 75, 62
2, 187920, Note_on_c, 0, 75, 0
2, 187920, Note_on_c, 0, 67, 0
2, 187920, Note_on_c, 0, 67, 62
2, 187920, Note_on_c, 0, 73, 62
2, 187967, Note_on_c, 0, 73, 0
2, 187967, Note_on_c, 0, 67, 0
2, 188160, Note_on_c, 0, 63, 62
2, 188160, Note_on_c, 0, 72, 62
2, 188207, Note_on_c, 0, 72, 0
2, 188207, Note_on_c, 0, 63, 0
2, 188400, Note_on_c, 0, 63, 62
2, 188400, Note_on_c, 0, 70, 62
2, 188447, Note_on_c, 0, 70, 0
2, 188447, Note_on_c, 0, 63, 0
2, 188640, Note_on_c, 0, 63, 62
2, 188640, Note_on_c, 0, 69, 62
2, 188687, Note_on_c, 0, 69, 0
2, 188687, Note_on_c, 0, 63, 0
2, 188880, Note_on_c, 0, 63, 62
2, 188880, Note_on_c, 0, 66, 62
2, 188880, Note_on_c, 0, 75, 62
2, 189120, Note_on_c, 0, 75, 0
2, 189120, Note_on_c, 0, 66, 0
2, 189120, Note_on_c, 0, 63, 0
2, 189360, Note_on_c, 0, 60, 88
2, 189360, Note_on_c, 0, 63, 88
2, 189360, Note_on_c, 0, 72, 88
2, 189840, Note_on_c, 0, 72, 0
2, 189840, Note_on_c, 0, 63, 0
2, 189840, Note_on_c, 0, 60, 0
2, 189840, Note_on_c, 0, 61, 88
2, 189840, Note_on_c, 0, 65, 88
2, 189840, Note_on_c, 0, 73, 88
2, 190320, Note_on_c, 0, 73, 0
2, 190320, Note_on_c, 0, 65, 0
2, 190320, Note_on_c, 0, 61, 0
2, 190320, Note_on_c, 0, 61, 75
2, 190320, Note_on_c, 0, 68, 75
2, 190680, Note_on_c, 0, 68, 0
2, 190680, Note_on_c, 0, 61, 0
2, 190680, Note_on_c, 0, 61, 75
2, 190680, Note_on_c, 0, 70, 75
2, 190800, Note_on_c, 0, 70, 0
2, 190800, Note_on_c, 0, 61, 0
2, 190800, Note_on_c, 0, 61, 75
2, 190800, Note_on_c, 0, 68, 75
2, 191040, Note_on_c, 0, 68, 0
2, 191040, Note_on_c, 0, 61, 0
2, 191040, Note_on_c, 0, 61, 75
2, 191040, Note_on_c, 0, 67, 75
2, 191087, Note_on_c, 0, 67, 0
2, 191087, Note_on_c, 0, 61, 0
2, 191280, Note_on_c, 0, 59, 75
2, 191280, Note_on_c, 0, 62, 75
2, 191327, Note_on_c, 0, 62, 0
2, 191327, Note_on_c, 0, 59, 0
2, 191520, Note_on_c, 0, 58, 75
2, 191520, Note_on_c, 0, 63, 75
2, 191567, Note_on_c, 0, 63, 0
2, 191567, Note_on_c, 0, 58, 0
2, 191760, Note_on_c, 0, 65, 75
2, 191760, Note_on_c, 0, 70, 75
2, 191760, Note_on_c, 0, 77, 75
2, 192000, Note_on_c, 0, 77, 0
2, 192000, Note_on_c, 0, 70, 0
2, 192000, Note_on_c, 0, 65, 0
2, 192240, Note_on_c, 0, 62, 101
2, 192240, Note_on_c, 0, 70, 101
2, 192240, Note_on_c, 0, 74, 101
2, 192720, Note_on_c, 0, 74, 0
2, 192720, Note_on_c, 0, 70, 0
2, 192720, Note_on_c, 0, 62, 0
2, 192720, Note_on_c, 0, 63, 75
2, 192720, Note_on_c, 0, 68, 75
2, 192720, Note_on_c, 0, 75, 75
2, 193200, Note_on_c, 0, 75, 0
2, 193200, Note_on_c, 0, 68, 0
2, 193200, Note_on_c, 0, 63, 0
2, 193200, Note_on_c, 0, 68, 75
2, 193200, Note_on_c, 0, 75, 75
2, 193200, Note_on_c, 0, 80, 75
2, 193440, Note_on_c, 0, 80, 0
2, 193440, Note_on_c, 0, 75, 0
2, 193440, Note_on_c, 0, 68, 0
2, 193680, Note_on_c, 0, 66, 101
2, 193680, Note_on_c, 0, 75, 101
2, 193680, Note_on_c, 0, 78, 101
2, 194160, Note_on_c, 0, 78, 0
2, 194160, Note_on_c, 0, 75, 0
2, 194160, Note_on_c, 0, 66, 0
2, 194160, Note_on_c, 0, 67, 75
2, 194160, Note_on_c, 0, 75, 75
2, 194160, Note_on_c, 0, 79, 75
2, 194640, Note_on_c, 0, 79, 0
2, 194640, Note_on_c, 0, 75, 0
2, 194640, Note_on_c, 0, 67, 0
2, 194640, Note_on_c, 0, 70, 88
2, 194640, Note_on_c, 0, 82, 88
2, 195000, Note_on_c, 0, 82, 0
2, 195000, Note_on_c, 0, 70, 0
2, 195000, Note_on_c, 0, 72, 88
2, 195000, Note_on_c, 0, 82, 88
2, 195000, Note_on_c, 0, 84, 88
2, 195120, Note_on_c, 0, 84, 0
2, 195120, Note_on_c, 0, 82, 0
2, 195120, Note_on_c, 0, 72, 0
2, 195120, Note_on_c, 0, 74, 88
2, 195120, Note_on_c, 0, 86, 88
2, 195360, Note_on_c, 0, 86, 0
2, 195360, Note_on_c, 0, 74, 0
2, 195360, Note_on_c, 0, 75, 88
2, 195360, Note_on_c, 0, 79, 88
2, 195360, Note_on_c, 0, 87, 88
2, 195600, Note_on_c, 0, 87, 0
2, 195600, Note_on_c, 0, 79, 0
2, 195600, Note_on_c, 0, 75, 0
2, 195600, Control_c, 0, 64, 127
2, 195600, Note_on_c, 0, 69, 62
2, 195720, Note_on_c, 0, 69, 0
2, 195720, Note_on_c, 0, 70, 62
2, 195840, Note_on_c, 0, 70, 0
2, 195840, Note_on_c, 0, 73, 62
2, 195960, Note_on_c, 0, 73, 0
2, 195960, Control_c, 0, 64, 0
2, 195960, Note_on_c, 0, 74, 62
2, 196080, Note_on_c, 0, 74, 0
2, 196080, Note_on_c, 0, 68, 62
2, 196080, Note_on_c, 0, 75, 62
2, 196440, Note_on_c, 0, 75, 0
2, 196440, Note_on_c, 0, 68, 0
2, 196440, Note_on_c, 0, 68, 62
2, 196440, Note_on_c, 0, 77, 62
2, 196560, Note_on_c, 0, 77, 0
2, 196560, Note_on_c, 0, 68, 0
2, 196560, Note_on_c, 0, 68, 62
2, 196560, Note_on_c, 0, 75, 62
2, 196607, Note_on_c, 0, 75, 0
2, 196607, Note_on_c, 0, 68, 0
2, 196800, Note_on_c, 0, 68, 62
2, 196800, Note_on_c, 0, 74, 62
2, 196847, Note_on_c, 0, 74, 0
2, 196847, Note_on_c, 0, 68, 0
2, 197040, Note_on_c, 0, 68, 62
2, 197040, Note_on_c, 0, 75, 62
2, 197087, Note_on_c, 0, 75, 0
2, 197087, Note_on_c, 0, 68, 0
2, 197280, Note_on_c, 0, 68, 62
2, 197280, Note_on_c, 0, 80, 62
2, 197327, Note_on_c, 0, 80, 0
2, 197327, Note_on_c, 0, 68, 0
2, 197520, Note_on_c, 0, 68, 62
2, 197520, Note_on_c, 0, 75, 62
2, 197760, Note_on_c, 0, 75, 0
2, 197760, Note_on_c, 0, 68, 0
2, 198000, Note_on_c, 0, 68, 88
2, 198000, Note_on_c, 0, 74, 88
2, 198480, Note_on_c, 0, 74, 0
2, 198480, Note_on_c, 0, 68, 0
2, 198480, Note_on_c, 0, 67, 62
2, 198480, Note_on_c, 0, 75, 62
2, 198960, Note_on_c, 0, 75, 0
2, 198960, Note_on_c, 0, 67, 0
2, 198960, Note_on_c, 0, 67, 62
2, 198960, Note_on_c, 0, 73, 62
2, 199320, Note_on_c, 0, 73, 0
2, 199320, Note_on_c, 0, 67, 0
2, 199320, Note_on_c, 0, 67, 62
2, 199320, Note_on_c, 0, 75, 62
2, 199440, Note_on_c, 0, 75, 0
2, 199440, Note_on_c, 0, 67, 0
2, 199440, Note_on_c, 0, 67, 62
2, 199440, Note_on_c, 0, 73, 62
2, 199487, Note_on_c, 0, 73, 0
2, 199487, Note_on_c, 0, 67, 0
2, 199680, Note_on_c, 0, 63, 62
2, 199680, Note_on_c, 0, 72, 62
2, 199727, Note_on_c, 0, 72, 0
2, 199727, Note_on_c, 0, 63, 0
2, 199920, Note_on_c, 0, 63, 62
2, 199920, Note_on_c, 0, 70, 62
2, 199967, Note_on_c, 0, 70, 0
2, 199967, Note_on_c, 0, 63, 0
2, 200160, Note_on_c, 0, 63, 62
2, 200160, Note_on_c, 0, 69, 62
2, 200207, Note_on_c, 0, 69, 0
2, 200207, Note_on_c, 0, 63, 0
2, 200400, Note_on_c, 0, 63, 62
2, 200400, Note_on_c, 0, 66, 62
2, 200400, Note_on_c, 0, 75, 62
2, 200640, Note_on_c, 0, 75, 0
2, 200640, Note_on_c, 0, 66, 0
2, 200640, Note_on_c, 0, 63, 0
2, 200880, Note_on_c, 0, 60, 88
2, 200880, Note_on_c, 0, 63, 88
2, 200880, Note_on_c, 0, 72, 88
2, 201360, Note_on_c, 0, 72, 0
2, 201360, Note_on_c, 0, 63, 0
2, 201360, Note_on_c, 0, 60, 0
2, 201360, Note_on_c, 0, 61, 88
2, 201360, Note_on_c, 0, 65, 88
2, 201360, Note_on_c, 0, 73, 88
2, 201840, Note_on_c, 0, 73, 0
2, 201840, Note_on_c, 0, 65, 0
2, 201840, Note_on_c, 0, 61, 0
2, 201840, Note_on_c, 0, 61, 75
2, 201840, Note_on_c, 0, 68, 75
2, 202200, Note_on_c, 0, 68, 0
2, 202200, Note_on_c, 0, 61, 0
2, 202200, Note_on_c, 0, 61, 75
2, 202200, Note_on_c, 0, 70, 75
2, 202320, Note_on_c, 0, 70, 0
2, 202320, Note_on_c, 0, 61, 0
2, 202320, Note_on_c, 0, 61, 75
2, 202320, Note_on_c, 0, 68, 75
2, 202560, Note_on_c, 0, 68, 0
2, 202560, Note_on_c, 0, 61, 0
2, 202560, Note_on_c, 0, 61, 75
2, 202560, Note_on_c, 0, 67, 75
2, 202607, Note_on_c, 0, 67, 0
2, 202607, Note_on_c, 0, 61, 0
2, 202800, Note_on_c, 0, 59, 75
2, 202800, Note_on_c, 0, 62, 75
2, 202847, Note_on_c, 0, 62, 0
2, 202847, Note_on_c, 0, 59, 0
2, 203040, Note_on_c, 0, 58, 75
2, 203040, Note_on_c, 0, 63, 75
2, 203087, Note_on_c, 0, 63, 0
2, 203087, Note_on_c, 0, 58, 0
2, 203280, Note_on_c, 0, 63, 75
2, 203280, Note_on_c, 0, 70, 75
2, 203640, Note_on_c, 0, 70, 0
2, 203640, Note_on_c, 0, 63, 0
2, 203640, Note_on_c, 0, 63, 75
2, 203640, Note_on_c, 0, 72, 75
2, 203760, Note_on_c, 0, 72, 0
2, 203760, Note_on_c, 0, 63, 0
2, 203760, Note_on_c, 0, 63, 75
2, 203760, Note_on_c, 0, 70, 75
2, 203807, Note_on_c, 0, 70, 0
2, 203807, Note_on_c, 0, 63, 0
2, 204000, Note_on_c, 0, 63, 75
2, 204000, Note_on_c, 0, 69, 75
2, 204047, Note_on_c, 0, 69, 0
2, 204047, Note_on_c, 0, 63, 0
2, 204240, Note_on_c, 0, 61, 75
2, 204240, Note_on_c, 0, 64, 75
2, 204287, Note_on_c, 0, 64, 0
2, 204287, Note_on_c, 0, 61, 0
2, 204480, Note_on_c, 0, 60, 75
2, 204480, Note_on_c, 0, 65, 75
2, 204527, Note_on_c, 0, 65, 0
2, 204527, Note_on_c, 0, 60, 0
2, 204720, Note_on_c, 0, 77, 101
2, 205440, Note_on_c, 0, 77, 0
2, 205440, Note_on_c, 0, 78, 101
2, 206160, Note_on_c, 0, 78, 0
2, 206160, Note_on_c, 0, 79, 101
2, 206880, Note_on_c, 0, 79, 0
2, 206880, Note_on_c, 0, 80, 101
2, 207600, Note_on_c, 0, 80, 0
2, 207600, Note_on_c, 0, 70, 88
2, 207600, Note_on_c, 0, 80, 88
2, 207600, Note_on_c, 0, 82, 88
2, 208080, Note_on_c, 0, 82, 0
2, 208080, Note_on_c, 0, 80, 0
2, 208080, Note_on_c, 0, 70, 0
2, 208080, Note_on_c, 0, 71, 88
2, 208080, Note_on_c, 0, 80, 88
2, 208080, Note_on_c, 0, 83, 88
2, 208560, Note_on_c, 0, 83, 0
2, 208560, Note_on_c, 0, 80, 0
2, 208560, Note_on_c, 0, 71, 0
2, 208560, Note_on_c, 0, 72, 88
2, 208560, Note_on_c, 0, 80, 88
2, 208560, Note_on_c, 0, 84, 88
2, 209040, Note_on_c, 0, 84, 0
2, 209040, Note_on_c, 0, 80, 0
2, 209040, Note_on_c, 0, 72, 0
2, 209040, Note_on_c, 0, 75, 88
2, 209040, Note_on_c, 0, 80, 88
2, 209040, Note_on_c, 0, 87, 88
2, 209520, Note_on_c, 0, 87, 0
2, 209520, Note_on_c, 0, 80, 0
2, 209520, Note_on_c, 0, 75, 0
2, 209520, Note_on_c, 0, 79, 88
2, 209520, Note_on_c, 0, 85, 88
2, 209520, Note_on_c, 0, 91, 88
2, 209760, Note_on_c, 0, 91, 0
2, 209760, Note_on_c, 0, 85, 0
2, 209760, Note_on_c, 0, 79, 0
2, 209760, Note_on_c, 0, 80, 88
2, 209760, Note_on_c, 0, 84, 88
2, 209760, Note_on_c, 0, 92, 88
2, 210000, Note_on_c, 0, 92, 0
2, 210000, Note_on_c, 0, 84, 0
2, 210000, Note_on_c, 0, 80, 0
2, 210720, Note_on_c, 0, 62, 75
2, 210720, Note_on_c, 0, 72, 75
2, 210720, Note_on_c, 0, 74, 75
2, 211200, Note_on_c, 0, 74, 0
2, 211200, Note_on_c, 0, 72, 0
2, 211200, Note_on_c, 0, 62, 0
2, 211200, Note_on_c, 0, 64, 75
2, 211200, Note_on_c, 0, 72, 75
2, 211200, Note_on_c, 0, 76, 75
2, 211440, Note_on_c, 0, 76, 0
2, 211440, Note_on_c, 0, 72, 0
2, 211440, Note_on_c, 0, 64, 0
2, 211440, Note_on_c, 0, 65, 75
2, 211440, Note_on_c, 0, 72, 75
2, 211440, Note_on_c, 0, 77, 75
2, 211680, Note_on_c, 0, 77, 0
2, 211680, Note_on_c, 0, 72, 0
2, 211680, Note_on_c, 0, 65, 0
2, 211680, Note_on_c, 0, 67, 75
2, 211680, Note_on_c, 0, 72, 75
2, 211680, Note_on_c, 0, 79, 75
2, 212160, Note_on_c, 0, 79, 0
2, 212160, Note_on_c, 0, 72, 0
2, 212160, Note_on_c, 0, 67, 0
2, 212160, Note_on_c, 0, 68, 75
2, 212160, Note_on_c, 0, 72, 75
2, 212160, Note_on_c, 0, 80, 75
2, 212640, Note_on_c, 0, 80, 0
2, 212640, Note_on_c, 0, 72, 0
2, 212640, Note_on_c, 0, 68, 0
2, 212640, Note_on_c, 0, 67, 75
2, 212640, Note_on_c, 0, 72, 75
2, 212640, Note_on_c, 0, 79, 75
2, 212880, Note_on_c, 0, 79, 0
2, 212880, Note_on_c, 0, 72, 0
2, 212880, Note_on_c, 0, 67, 0
2, 213600, Note_on_c, 0, 62, 75
2, 213600, Note_on_c, 0, 72, 75
2, 213600, Note_on_c, 0, 74, 75
2, 214080, Note_on_c, 0, 74, 0
2, 214080, Note_on_c, 0, 72, 0
2, 214080, Note_on_c, 0, 62, 0
2, 214080, Note_on_c, 0, 64, 75
2, 214080, Note_on_c, 0, 72, 75
2, 214080, Note_on_c, 0, 76, 75
2, 214320, Note_on_c, 0, 76, 0
2, 214320, Note_on_c, 0, 72, 0
2, 214320, Note_on_c, 0, 64, 0
2, 214320, Note_on_c, 0, 65, 75
2, 214320, Note_on_c, 0, 72, 75
2, 214320, Note_on_c, 0, 77, 75
2, 214560, Note_on_c, 0, 77, 0
2, 214560, Note_on_c, 0, 72, 0
2, 214560, Note_on_c, 0, 65, 0
2, 214560, Note_on_c, 0, 67, 75
2, 214560, Note_on_c, 0, 72, 75
2, 214560, Note_on_c, 0, 79, 75
2, 215040, Note_on_c, 0, 79, 0
2, 215040, Note_on_c, 0, 72, 0
2, 215040, Note_on_c, 0, 67, 0
2, 215040, Note_on_c, 0, 68, 75
2, 215040, Note_on_c, 0, 72, 75
2, 215040, Note_on_c, 0, 80, 75
2, 215520, Note_on_c, 0, 80, 0
2, 215520, Note_on_c, 0, 72, 0
2, 215520, Note_on_c, 0, 68, 0
2, 215520, Note_on_c, 0, 67, 75
2, 215520, Note_on_c, 0, 72, 75
2, 215520, Note_on_c, 0, 79, 75
2, 215760, Note_on_c, 0, 79, 0
2, 215760, Note_on_c, 0, 72, 0
2, 215760, Note_on_c, 0, 67, 0
2, 215760, Note_on_c, 0, 72, 75
2, 215760, Note_on_c, 0, 84, 75
2, 216000, Note_on_c, 0, 84, 0
2, 216000, Note_on_c, 0, 72, 0
2, 216000, Note_on_c, 0, 74, 75
2, 216000, Note_on_c, 0, 86, 75
2, 216240, Note_on_c, 0, 86, 0
2, 216240, Note_on_c, 0, 74, 0
2, 216240, Note_on_c, 0, 76, 75
2, 216240, Note_on_c, 0, 88, 75
2, 216720, Note_on_c, 0, 88, 0
2, 216720, Note_on_c, 0, 76, 0
2, 216720, Note_on_c, 0, 74, 75
2, 216720, Note_on_c, 0, 76, 75
2, 216720, Note_on_c, 0, 86, 75
2, 217200, Note_on_c, 0, 86, 0
2, 217200, Note_on_c, 0, 76, 0
2, 217200, Note_on_c, 0, 74, 0
2, 217200, Note_on_c, 0, 72, 75
2, 217200, Note_on_c, 0, 76, 75
2, 217200, Note_on_c, 0, 84, 75
2, 217440, Note_on_c, 0, 84, 0
2, 217440, Note_on_c, 0, 76, 0
2, 217440, Note_on_c, 0, 72, 0
2, 217440, Note_on_c, 0, 71, 75
2, 217440, Note_on_c, 0, 76, 75
2, 217440, Note_on_c, 0, 83, 75
2, 217680, Note_on_c, 0, 83, 0
2, 217680, Note_on_c, 0, 76, 0
2, 217680, Note_on_c, 0, 71, 0
2, 217680, Note_on_c, 0, 69, 75
2, 217680, Note_on_c, 0, 76, 75
2, 217680, Note_on_c, 0, 81, 75
2, 218160, Note_on_c, 0, 81, 0
2, 218160, Note_on_c, 0, 76, 0
2, 218160, Note_on_c, 0, 69, 0
2, 218160, Note_on_c, 0, 68, 75
2, 218160, Note_on_c, 0, 76, 75
2, 218160, Note_on_c, 0, 80, 75
2, 218640, Note_on_c, 0, 80, 0
2, 218640, Note_on_c, 0, 76, 0
2, 218640, Note_on_c, 0, 68, 0
2, 218640, Note_on_c, 0, 72, 75
2, 218640, Note_on_c, 0, 84, 75
2, 218880, Note_on_c, 0, 84, 0
2, 218880, Note_on_c, 0, 72, 0
2, 218880, Note_on_c, 0, 74, 75
2, 218880, Note_on_c, 0, 86, 75
2, 219120, Note_on_c, 0, 86, 0
2, 219120, Note_on_c, 0, 74, 0
2, 219120, Note_on_c, 0, 76, 75
2, 219120, Note_on_c, 0, 88, 75
2, 219600, Note_on_c, 0, 88, 0
2, 219600, Note_on_c, 0, 76, 0
2, 219600, Note_on_c, 0, 74, 75
2, 219600, Note_on_c, 0, 76, 75
2, 219600, Note_on_c, 0, 86, 75
2, 220080, Note_on_c, 0, 86, 0
2, 220080, Note_on_c, 0, 76, 0
2, 220080, Note_on_c, 0, 74, 0
2, 220080, Note_on_c, 0, 72, 75
2, 220080, Note_on_c, 0, 76, 75
2, 220080, Note_on_c, 0, 84, 75
2, 220320, Note_on_c, 0, 84, 0
2, 220320, Note_on_c, 0, 76, 0
2, 220320, Note_on_c, 0, 72, 0
2, 220320, Note_on_c, 0, 71, 75
2, 220320, Note_on_c, 0, 76, 75
2, 220320, Note_on_c, 0, 83, 75
2, 220560, Note_on_c, 0, 83, 0
2, 220560, Note_on_c, 0, 76, 0
2, 220560, Note_on_c, 0, 71, 0
2, 220560, Note_on_c, 0, 69, 75
2, 220560, Note_on_c, 0, 76, 75
2, 220560, Note_on_c, 0, 81, 75
2, 221040, Note_on_c, 0, 81, 0
2, 221040, Note_on_c, 0, 76, 0
2, 221040, Note_on_c, 0, 69, 0
2, 221040, Note_on_c, 0, 68, 75
2, 221040, Note_on_c, 0, 76, 75
2, 221040, Note_on_c, 0, 80, 75
2, 221520, Note_on_c, 0, 80, 0
2, 221520, Note_on_c, 0, 76, 0
2, 221520, Note_on_c, 0, 68, 0
2, 222240, Note_on_c, 0, 70, 88
2, 222240, Note_on_c, 0, 80, 88
2, 222240, Note_on_c, 0, 82, 88
2, 222720, Note_on_c, 0, 82, 0
2, 222720, Note_on_c, 0, 80, 0
2, 222720, Note_on_c, 0, 70, 0
2, 222720, Note_on_c, 0, 72, 88
2, 222720, Note_on_c, 0, 80, 88
2, 222720, Note_on_c, 0, 84, 88
2, 222960, Note_on_c, 0, 84, 0
2, 222960, Note_on_c, 0, 80, 0
2, 222960, Note_on_c, 0, 72, 0
2, 222960, Note_on_c, 0, 73, 88
2, 222960, Note_on_c, 0, 80, 88
2, 222960, Note_on_c, 0, 85, 88
2, 223200, Note_on_c, 0, 85, 0
2, 223200, Note_on_c, 0, 80, 0
2, 223200, Note_on_c, 0, 73, 0
2, 223200, Note_on_c, 0, 75, 88
2, 223200, Note_on_c, 0, 80, 88
2, 223200, Note_on_c, 0, 87, 88
2, 223680, Note_on_c, 0, 87, 0
2, 223680, Note_on_c, 0, 80, 0
2, 223680, Note_on_c, 0, 75, 0
2, 223680, Note_on_c, 0, 76, 88
2, 223680, Note_on_c, 0, 80, 88
2, 223680, Note_on_c, 0, 88, 88
2, 224160, Note_on_c, 0, 88, 0
2, 224160, Note_on_c, 0, 80, 0
2, 224160, Note_on_c, 0, 76, 0
2, 224160, Note_on_c, 0, 75, 88
2, 224160, Note_on_c, 0, 80, 88
2, 224160, Note_on_c, 0, 87, 88
2, 224400, Note_on_c, 0, 87, 0
2, 224400, Note_on_c, 0, 80, 0
2, 224400, Note_on_c, 0, 75, 0
2, 224400, Note_on_c, 0, 76, 88
2, 224400, Note_on_c, 0, 88, 88
2, 224640, Note_on_c, 0, 88, 0
2, 224640, Note_on_c, 0, 76, 0
2, 224640, Note_on_c, 0, 78, 88
2, 224640, Note_on_c, 0, 90, 88
2, 224880, Note_on_c, 0, 90, 0
2, 224880, Note_on_c, 0, 78, 0
2, 224880, Note_on_c, 0, 80, 88
2, 224880, Note_on_c, 0, 92, 88
2, 225360, Note_on_c, 0, 92, 0
2, 225360, Note_on_c, 0, 80, 0
2, 225360, Note_on_c, 0, 78, 88
2, 225360, Note_on_c, 0, 80, 88
2, 225360, Note_on_c, 0, 90, 88
2, 225840, Note_on_c, 0, 90, 0
2, 225840, Note_on_c, 0, 80, 0
2, 225840, Note_on_c, 0, 78, 0
2, 225840, Note_on_c, 0, 76, 88
2, 225840, Note_on_c, 0, 80, 88
2, 225840, Note_on_c, 0, 88, 88
2, 226080, Note_on_c, 0, 88, 0
2, 226080, Note_on_c, 0, 80, 0
2, 226080, Note_on_c, 0, 76, 0
2, 226080, Note_on_c, 0, 75, 88
2, 226080, Note_on_c, 0, 80, 88
2, 226080, Note_on_c, 0, 87, 88
2, 226320, Note_on_c, 0, 87, 0
2, 226320, Note_on_c, 0, 80, 0
2, 226320, Note_on_c, 0, 75, 0
2, 226320, Note_on_c, 0, 73, 88
2, 226320, Note_on_c, 0, 80, 88
2, 226320, Note_on_c, 0, 85, 88
2, 226800, Note_on_c, 0, 85, 0
2, 226800, Note_on_c, 0, 80, 0
2, 226800, Note_on_c, 0, 73, 0
2, 226800, Note_on_c, 0, 72, 88
2, 226800, Note_on_c, 0, 80, 88
2, 226800, Note_on_c, 0, 84, 88
2, 227280, Note_on_c, 0, 84, 0
2, 227280, Note_on_c, 0, 80, 0
2, 227280, Note_on_c, 0, 72, 0
2, 227280, Note_on_c, 0, 76, 88
2, 227280, Note_on_c, 0, 88, 88
2, 227520, Note_on_c, 0, 88, 0
2, 227520, Note_on_c, 0, 76, 0
2, 227520, Note_on_c, 0, 78, 88
2, 227520, Note_on_c, 0, 90, 88
2, 227760, Note_on_c, 0, 90, 0
2, 227760, Note_on_c, 0, 78, 0
2, 227760, Note_on_c, 0, 80, 88
2, 227760, Note_on_c, 0, 92, 88
2, 228240, Note_on_c, 0, 92, 0
2, 228240, Note_on_c, 0, 80, 0
2, 228240, Note_on_c, 0, 78, 88
2, 228240, Note_on_c, 0, 80, 88
2, 228240, Note_on_c, 0, 90, 88
2, 228720, Note_on_c, 0, 90, 0
2, 228720, Note_on_c, 0, 80, 0
2, 228720, Note_on_c, 0, 78, 0
2, 228720, Note_on_c, 0, 76, 88
2, 228720, Note_on_c, 0, 80, 88
2, 228720, Note_on_c, 0, 88, 88
2, 228960, Note_on_c, 0, 88, 0
2, 228960, Note_on_c, 0, 80, 0
2, 228960, Note_on_c, 0, 76, 0
2, 228960, Note_on_c, 0, 75, 88
2, 228960, Note_on_c, 0, 80, 88
2, 228960, Note_on_c, 0, 87, 88
2, 229200, Note_on_c, 0, 87, 0
2, 229200, Note_on_c, 0, 80, 0
2, 229200, Note_on_c, 0, 75, 0
2, 229200, Note_on_c, 0, 73, 88
2, 229200, Note_on_c, 0, 80, 88
2, 229200, Note_on_c, 0, 85, 88
2, 229680, Note_on_c, 0, 85, 0
2, 229680, Note_on_c, 0, 80, 0
2, 229680, Note_on_c, 0, 73, 0
2, 229680, Note_on_c, 0, 72, 88
2, 229680, Note_on_c, 0, 80, 88
2, 229680, Note_on_c, 0, 84, 88
2, 230160, Note_on_c, 0, 84, 0
2, 230160, Note_on_c, 0, 80, 0
2, 230160, Note_on_c, 0, 72, 0
2, 230160, Note_on_c, 0, 72, 62
2, 230400, Note_on_c, 0, 72, 0
2, 230400, Note_on_c, 0, 73, 62
2, 230640, Note_on_c, 0, 73, 0
2, 230640, Note_on_c, 0, 76, 62
2, 231120, Note_on_c, 0, 76, 0
2, 231120, Note_on_c, 0, 77, 62
2, 231360, Note_on_c, 0, 77, 0
2, 231600, Note_on_c, 0, 67, 62
2, 231840, Note_on_c, 0, 67, 0
2, 231840, Note_on_c, 0, 68, 62
2, 232080, Note_on_c, 0, 68, 0
2, 232080, Note_on_c, 0, 71, 62
2, 232560, Note_on_c, 0, 71, 0
2, 232560, Note_on_c, 0, 72, 62
2, 232800, Note_on_c, 0, 72, 0
2, 233040, Note_on_c, 0, 72, 62
2, 233280, Note_on_c, 0, 72, 0
2, 233280, Note_on_c, 0, 73, 62
2, 233520, Note_on_c, 0, 73, 0
2, 233520, Note_on_c, 0, 76, 62
2, 234000, Note_on_c, 0, 76, 0
2, 234000, Note_on_c, 0, 77, 62
2, 234240, Note_on_c, 0, 77, 0
2, 234480, Note_on_c, 0, 67, 62
2, 234720, Note_on_c, 0, 67, 0
2, 234720, Note_on_c, 0, 68, 62
2, 234960, Note_on_c, 0, 68, 0
2, 234960, Note_on_c, 0, 71, 62
2, 235440, Note_on_c, 0, 71, 0
2, 235440, Note_on_c, 0, 72, 62
2, 235680, Note_on_c, 0, 72, 0
2, 235920, Note_on_c, 0, 72, 62
2, 236160, Note_on_c, 0, 72, 0
2, 236160, Note_on_c, 0, 74, 62
2, 236400, Note_on_c, 0, 74, 0
2, 236400, Note_on_c, 0, 75, 62
2, 236880, Note_on_c, 0, 75, 0
2, 236880, Note_on_c, 0, 77, 62
2, 237120, Note_on_c, 0, 77, 0
2, 237360, Note_on_c, 0, 67, 62
2, 237600, Note_on_c, 0, 67, 0
2, 237600, Note_on_c, 0, 69, 62
2, 237840, Note_on_c, 0, 69, 0
2, 237840, Note_on_c, 0, 71, 62
2, 238320, Note_on_c, 0, 71, 0
2, 238320, Note_on_c, 0, 72, 62
2, 238560, Note_on_c, 0, 72, 0
2, 238800, Note_on_c, 0, 72, 62
2, 239040, Note_on_c, 0, 72, 0
2, 239040, Note_on_c, 0, 74, 62
2, 239280, Note_on_c, 0, 74, 0
2, 239280, Note_on_c, 0, 75, 62
2, 239760, Note_on_c, 0, 75, 0
2, 239760, Note_on_c, 0, 77, 62
2, 240000, Note_on_c, 0, 77, 0
2, 240240, Note_on_c, 0, 67, 62
2, 240480, Note_on_c, 0, 67, 0
2, 240480, Note_on_c, 0, 69, 62
2, 240720, Note_on_c, 0, 69, 0
2, 240720, Note_on_c, 0, 71, 75
2, 241200, Note_on_c, 0, 71, 0
2, 241200, Note_on_c, 0, 72, 75
2, 241440, Note_on_c, 0, 72, 0
2, 241680, Note_on_c, 0, 69, 75
2, 241920, Note_on_c, 0, 69, 0
2, 241920, Note_on_c, 0, 70, 75
2, 242160, Note_on_c, 0, 70, 0
2, 242160, Note_on_c, 0, 72, 75
2, 242640, Note_on_c, 0, 72, 0
2, 242640, Note_on_c, 0, 73, 75
2, 242880, Note_on_c, 0, 73, 0
2, 243120, Note_on_c, 0, 62, 75
2, 243360, Note_on_c, 0, 62, 0
2, 243360, Note_on_c, 0, 63, 75
2, 243600, Note_on_c, 0, 63, 0
2, 243600, Note_on_c, 0, 66, 75
2, 244080, Note_on_c, 0, 66, 0
2, 244080, Note_on_c, 0, 67, 75
2, 244320, Note_on_c, 0, 67, 0
2, 244560, Note_on_c, 0, 71, 75
2, 244800, Note_on_c, 0, 71, 0
2, 244800, Note_on_c, 0, 72, 75
2, 245040, Note_on_c, 0, 72, 0
2, 245040, Note_on_c, 0, 74, 75
2, 245520, Note_on_c, 0, 74, 0
2, 245520, Note_on_c, 0, 75, 75
2, 245760, Note_on_c, 0, 75, 0
2, 246000, Note_on_c, 0, 64, 75
2, 246240, Note_on_c, 0, 64, 0
2, 246240, Note_on_c, 0, 65, 75
2, 246480, Note_on_c, 0, 65, 0
2, 246480, Note_on_c, 0, 68, 75
2, 246960, Note_on_c, 0, 68, 0
2, 246960, Note_on_c, 0, 69, 75
2, 247200, Note_on_c, 0, 69, 0
2, 247440, Note_on_c, 0, 72, 75
2, 247680, Note_on_c, 0, 72, 0
2, 247680, Note_on_c, 0, 73, 75
2, 247920, Note_on_c, 0, 73, 0
2, 247920, Note_on_c, 0, 77, 75
2, 248640, Note_on_c, 0, 77, 0
2, 248880, Note_on_c, 0, 72, 75
2, 249120, Note_on_c, 0, 72, 0
2, 249120, Note_on_c, 0, 73, 75
2, 249360, Note_on_c, 0, 73, 0
2, 249360, Note_on_c, 0, 77, 75
2, 250080, Note_on_c, 0, 77, 0
2, 250320, Note_on_c, 0, 72, 75
2, 250560, Note_on_c, 0, 72, 0
2, 250560, Note_on_c, 0, 73, 75
2, 250800, Note_on_c, 0, 73, 0
2, 250800, Note_on_c, 0, 69, 75
2, 250800, Note_on_c, 0, 77, 75
2, 251280, Note_on_c, 0, 77, 0
2, 251280, Note_on_c, 0, 69, 0
2, 251280, Note_on_c, 0, 70, 75
2, 251520, Note_on_c, 0, 70, 0
2, 251520, Note_on_c, 0, 69, 75
2, 251520, Note_on_c, 0, 77, 75
2, 252000, Note_on_c, 0, 77, 0
2, 252000, Note_on_c, 0, 69, 0
2, 252000, Note_on_c, 0, 70, 75
2, 252240, Note_on_c, 0, 70, 0
2, 252240, Note_on_c, 0, 61, 62
2, 252240, Note_on_c, 0, 73, 62
2, 252960, Note_on_c, 0, 73, 0
2, 252960, Note_on_c, 0, 61, 0
2, 252960, Note_on_c, 0, 61, 62
2, 252960, Note_on_c, 0, 73, 62
2, 253680, Note_on_c, 0, 73, 0
2, 253680, Note_on_c, 0, 61, 0
2, 253680, Note_on_c, 0, 62, 62
2, 254160, Note_on_c, 0, 62, 0
2, 254160, Note_on_c, 0, 63, 62
2, 254400, Note_on_c, 0, 63, 0
2, 254400, Note_on_c, 0, 62, 62
2, 254880, Note_on_c, 0, 62, 0
2, 254880, Note_on_c, 0, 63, 62
2, 255120, Note_on_c, 0, 63, 0
2, 255600, Note_on_c, 0, 50, 88
2, 255840, Note_on_c, 0, 50, 0
2, 255840, Note_on_c, 0, 51, 62
2, 256080, Note_on_c, 0, 51, 0
2, 256560, Note_on_c, 0, 68, 62
2, 256560, Note_on_c, 0, 75, 62
2, 256920, Note_on_c, 0, 75, 0
2, 256920, Note_on_c, 0, 68, 0
2, 256920, Note_on_c, 0, 68, 62
2, 256920, Note_on_c, 0, 77, 62
2, 257040, Note_on_c, 0, 77, 0
2, 257040, Note_on_c, 0, 68, 0
2, 257040, Note_on_c, 0, 68, 62
2, 257040, Note_on_c, 0, 75, 62
2, 257087, Note_on_c, 0, 75, 0
2, 257087, Note_on_c, 0, 68, 0
2, 257280, Note_on_c, 0, 68, 62
2, 257280, Note_on_c, 0, 74, 62
2, 257327, Note_on_c, 0, 74, 0
2, 257327, Note_on_c, 0, 68, 0
2, 257520, Note_on_c, 0, 68, 62
2, 257520, Note_on_c, 0, 75, 62
2, 257567, Note_on_c, 0, 75, 0
2, 257567, Note_on_c, 0, 68, 0
2, 257760, Note_on_c, 0, 68, 62
2, 257760, Note_on_c, 0, 80, 62
2, 257807, Note_on_c, 0, 80, 0
2, 257807, Note_on_c, 0, 68, 0
2, 258000, Note_on_c, 0, 68, 62
2, 258000, Note_on_c, 0, 75, 62
2, 258240, Note_on_c, 0, 75, 0
2, 258240, Note_on_c, 0, 68, 0
2, 258480, Note_on_c, 0, 68, 88
2, 258480, Note_on_c, 0, 74, 88
2, 258960, Note_on_c, 0, 74, 0
2, 258960, Note_on_c, 0, 68, 0
2, 258960, Note_on_c, 0, 67, 62
2, 258960, Note_on_c, 0, 75, 62
2, 259440, Note_on_c, 0, 75, 0
2, 259440, Note_on_c, 0, 67, 0
2, 259440, Note_on_c, 0, 67, 62
2, 259440, Note_on_c, 0, 73, 62
2, 259800, Note_on_c, 0, 73, 0
2, 259800, Note_on_c, 0, 67, 0
2, 259800, Note_on_c, 0, 67, 62
2, 259800, Note_on_c, 0, 75, 62
2, 259920, Note_on_c, 0, 75, 0
2, 259920, Note_on_c, 0, 67, 0
2, 259920, Note_on_c, 0, 67, 62
2, 259920, Note_on_c, 0, 73, 62
2, 259967, Note_on_c, 0, 73, 0
2, 259967, Note_on_c, 0, 67, 0
2, 260160, Note_on_c, 0, 63, 62
2, 260160, Note_on_c, 0, 72, 62
2, 260207, Note_on_c, 0, 72, 0
2, 260207, Note_on_c, 0, 63, 0
2, 260400, Note_on_c, 0, 63, 62
2, 260400, Note_on_c, 0, 70, 62
2, 260447, Note_on_c, 0, 70, 0
2, 260447, Note_on_c, 0, 63, 0
2, 260640, Note_on_c, 0, 63, 62
2, 260640, Note_on_c, 0, 69, 62
2, 260687, Note_on_c, 0, 69, 0
2, 260687, Note_on_c, 0, 63, 0
2, 260880, Note_on_c, 0, 63, 62
2, 260880, Note_on_c, 0, 66, 62
2, 260880, Note_on_c, 0, 75, 62
2, 261120, Note_on_c, 0, 75, 0
2, 261120, Note_on_c, 0, 66, 0
2, 261120, Note_on_c, 0, 63, 0
2, 261360, Note_on_c, 0, 60, 88
2, 261360, Note_on_c, 0, 63, 88
2, 261360, Note_on_c, 0, 72, 88
2, 261840, Note_on_c, 0, 72, 0
2, 261840, Note_on_c, 0, 63, 0
2, 261840, Note_on_c, 0, 60, 0
2, 261840, Note_on_c, 0, 61, 88
2, 261840, Note_on_c, 0, 65, 88
2, 261840, Note_on_c, 0, 73, 88
2, 262320, Note_on_c, 0, 73, 0
2, 262320, Note_on_c, 0, 65, 0
2, 262320, Note_on_c, 0, 61, 0
2, 262320, Note_on_c, 0, 61, 75
2, 262320, Note_on_c, 0, 68, 75
2, 262680, Note_on_c, 0, 68, 0
2, 262680, Note_on_c, 0, 61, 0
2, 262680, Note_on_c, 0, 61, 75
2, 262680, Note_on_c, 0, 70, 75
2, 262800, Note_on_c, 0, 70, 0
2, 262800, Note_on_c, 0, 61, 0
2, 262800, Note_on_c, 0, 61, 75
2, 262800, Note_on_c, 0, 68, 75
2, 263040, Note_on_c, 0, 68, 0
2, 263040, Note_on_c, 0, 61, 0
2, 263040, Note_on_c, 0, 61, 75
2, 263040, Note_on_c, 0, 67, 75
2, 263087, Note_on_c, 0, 67, 0
2, 263087, Note_on_c, 0, 61, 0
2, 263280, Note_on_c, 0, 59, 75
2, 263280, Note_on_c, 0, 62, 75
2, 263327, Note_on_c, 0, 62, 0
2, 263327, Note_on_c, 0, 59, 0
2, 263520, Note_on_c, 0, 58, 75
2, 263520, Note_on_c, 0, 63, 75
2, 263567, Note_on_c, 0, 63, 0
2, 263567, Note_on_c, 0, 58, 0
2, 263760, Note_on_c, 0, 65, 75
2, 263760, Note_on_c, 0, 68, 75
2, 263760, Note_on_c, 0, 77, 75
2, 264000, Note_on_c, 0, 77, 0
2, 264000, Note_on_c, 0, 68, 0
2, 264000, Note_on_c, 0, 65, 0
2, 264240, Note_on_c, 0, 62, 101
2, 264240, Note_on_c, 0, 70, 101
2, 264240, Note_on_c, 0, 74, 101
2, 264720, Note_on_c, 0, 74, 0
2, 264720, Note_on_c, 0, 70, 0
2, 264720, Note_on_c, 0, 62, 0
2, 264720, Note_on_c, 0, 63, 75
2, 264720, Note_on_c, 0, 68, 75
2, 264720, Note_on_c, 0, 75, 75
2, 265200, Note_on_c, 0, 75, 0
2, 265200, Note_on_c, 0, 68, 0
2, 265200, Note_on_c, 0, 63, 0
2, 265200, Note_on_c, 0, 68, 75
2, 265200, Note_on_c, 0, 75, 75
2, 265200, Note_on_c, 0, 80, 75
2, 265440, Note_on_c, 0, 80, 0
2, 265440, Note_on_c, 0, 75, 0
2, 265440, Note_on_c, 0, 68, 0
2, 265680, Note_on_c, 0, 66, 101
2, 265680, Note_on_c, 0, 75, 101
2, 265680, Note_on_c, 0, 78, 101
2, 266160, Note_on_c, 0, 78, 0
2, 266160, Note_on_c, 0, 75, 0
2, 266160, Note_on_c, 0, 66, 0
2, 266160, Note_on_c, 0, 67, 75
2, 266160, Note_on_c, 0, 75, 75
2, 266160, Note_on_c, 0, 79, 75
2, 266640, Note_on_c, 0, 79, 0
2, 266640, Note_on_c, 0, 75, 0
2, 266640, Note_on_c, 0, 67, 0
2, 266640, Note_on_c, 0, 70, 88
2, 266640, Note_on_c, 0, 82, 88
2, 267000, Note_on_c, 0, 82, 0
2, 267000, Note_on_c, 0, 70, 0
2, 267000, Note_on_c, 0, 72, 88
2, 267000, Note_on_c, 0, 82, 88
2, 267000, Note_on_c, 0, 84, 88
2, 267120, Note_on_c, 0, 84, 0
2, 267120, Note_on_c, 0, 82, 0
2, 267120, Note_on_c, 0, 72, 0
2, 267120, Note_on_c, 0, 74, 88
2, 267120, Note_on_c, 0, 86, 88
2, 267360, Note_on_c, 0, 86, 0
2, 267360, Note_on_c, 0, 74, 0
2, 267360, Note_on_c, 0, 75, 88
2, 267360, Note_on_c, 0, 79, 88
2, 267360, Note_on_c, 0, 87, 88
2, 267600, Note_on_c, 0, 87, 0
2, 267600, Note_on_c, 0, 79, 0
2, 267600, Note_on_c, 0, 75, 0
2, 267600, Control_c, 0, 64, 127
2, 267600, Note_on_c, 0, 69, 62
2, 267720, Note_on_c, 0, 69, 0
2, 267720, Note_on_c, 0, 70, 62
2, 267840, Note_on_c, 0, 70, 0
2, 267840, Note_on_c, 0, 73, 62
2, 267960, Note_on_c, 0, 73, 0
2, 267960, Control_c, 0, 64, 0
2, 267960, Note_on_c, 0, 74, 62
2, 268080, Note_on_c, 0, 74, 0
2, 268080, Note_on_c, 0, 68, 62
2, 268080, Note_on_c, 0, 75, 62
2, 268440, Note_on_c, 0, 75, 0
2, 268440, Note_on_c, 0, 68, 0
2, 268440, Note_on_c, 0, 68, 62
2, 268440, Note_on_c, 0, 77, 62
2, 268560, Note_on_c, 0, 77, 0
2, 268560, Note_on_c, 0, 68, 0
2, 268560, Note_on_c, 0, 68, 62
2, 268560, Note_on_c, 0, 75, 62
2, 268607, Note_on_c, 0, 75, 0
2, 268607, Note_on_c, 0, 68, 0
2, 268800, Note_on_c, 0, 68, 62
2, 268800, Note_on_c, 0, 74, 62
2, 268847, Note_on_c, 0, 74, 0
2, 268847, Note_on_c, 0, 68, 0
2, 269040, Note_on_c, 0, 68, 62
2, 269040, Note_on_c, 0, 75, 62
2, 269087, Note_on_c, 0, 75, 0
2, 269087, Note_on_c, 0, 68, 0
2, 269280, Note_on_c, 0, 68, 62
2, 269280, Note_on_c, 0, 80, 62
2, 269327, Note_on_c, 0, 80, 0
2, 269327, Note_on_c, 0, 68, 0
2, 269520, Note_on_c, 0, 68, 62
2, 269520, Note_on_c, 0, 75, 62
2, 269760, Note_on_c, 0, 75, 0
2, 269760, Note_on_c, 0, 68, 0
2, 270000, Note_on_c, 0, 68, 88
2, 270000, Note_on_c, 0, 74, 88
2, 270480, Note_on_c, 0, 74, 0
2, 270480, Note_on_c, 0, 68, 0
2, 270480, Note_on_c, 0, 67, 62
2, 270480, Note_on_c, 0, 75, 62
2, 270960, Note_on_c, 0, 75, 0
2, 270960, Note_on_c, 0, 67, 0
2, 270960, Note_on_c, 0, 67, 62
2, 270960, Note_on_c, 0, 73, 62
2, 271320, Note_on_c, 0, 73, 0
2, 271320, Note_on_c, 0, 67, 0
2, 271320, Note_on_c, 0, 67, 62
2, 271320, Note_on_c, 0, 75, 62
2, 271440, Note_on_c, 0, 75, 0
2, 271440, Note_on_c, 0, 67, 0
2, 271440, Note_on_c, 0, 67, 62
2, 271440, Note_on_c, 0, 73, 62
2, 271487, Note_on_c, 0, 73, 0
2, 271487, Note_on_c, 0, 67, 0
2, 271680, Note_on_c, 0, 63, 62
2, 271680, Note_on_c, 0, 72, 62
2, 271727, Note_on_c, 0, 72, 0
2, 271727, Note_on_c, 0, 63, 0
2, 271920, Note_on_c, 0, 63, 62
2, 271920, Note_on_c, 0, 70, 62
2, 271967, Note_on_c, 0, 70, 0
2, 271967, Note_on_c, 0, 63, 0
2, 272160, Note_on_c, 0, 63, 62
2, 272160, Note_on_c, 0, 69, 62
2, 272207, Note_on_c, 0, 69, 0
2, 272207, Note_on_c, 0, 63, 0
2, 272400, Note_on_c, 0, 63, 62
2, 272400, Note_on_c, 0, 66, 62
2, 272400, Note_on_c, 0, 75, 62
2, 272640, Note_on_c, 0, 75, 0
2, 272640, Note_on_c, 0, 66, 0
2, 272640, Note_on_c, 0, 63, 0
2, 272880, Note_on_c, 0, 60, 88
2, 272880, Note_on_c, 0, 63, 88
2, 272880, Note_on_c, 0, 72, 88
2, 273360, Note_on_c, 0, 72, 0
2, 273360, Note_on_c, 0, 63, 0
2, 273360, Note_on_c, 0, 60, 0
2, 273360, Note_on_c, 0, 61, 88
2, 273360, Note_on_c, 0, 65, 88
2, 273360, Note_on_c, 0, 73, 88
2, 273840, Note_on_c, 0, 73, 0
2, 273840, Note_on_c, 0, 65, 0
2, 273840, Note_on_c, 0, 61, 0
2, 273840, Note_on_c, 0, 61, 75
2, 273840, Note_on_c, 0, 68, 75
2, 274200, Note_on_c, 0, 68, 0
2, 274200, Note_on_c, 0, 61, 0
2, 274200, Note_on_c, 0, 61, 75
2, 274200, Note_on_c, 0, 70, 75
2, 274320, Note_on_c, 0, 70, 0
2, 274320, Note_on_c, 0, 61, 0
2, 274320, Note_on_c, 0, 61, 75
2, 274320, Note_on_c, 0, 68, 75
2, 274560, Note_on_c, 0, 68, 0
2, 274560, Note_on_c, 0, 61, 0
2, 274560, Note_on_c, 0, 61, 75
2, 274560, Note_on_c, 0, 67, 75
2, 274607, Note_on_c, 0, 67, 0
2, 274607, Note_on_c, 0, 61, 0
2, 274800, Note_on_c, 0, 59, 75
2, 274800, Note_on_c, 0, 62, 75
2, 274847, Note_on_c, 0, 62, 0
2, 274847, Note_on_c, 0, 59, 0
2, 275040, Note_on_c, 0, 58, 75
2, 275040, Note_on_c, 0, 63, 75
2, 275087, Note_on_c, 0, 63, 0
2, 275087, Note_on_c, 0, 58, 0
2, 275280, Note_on_c, 0, 63, 75
2, 275280, Note_on_c, 0, 70, 75
2, 275640, Note_on_c, 0, 70, 0
2, 275640, Note_on_c, 0, 63, 0
2, 275640, Note_on_c, 0, 63, 75
2, 275640, Note_on_c, 0, 72, 75
2, 275760, Note_on_c, 0, 72, 0
2, 275760, Note_on_c, 0, 63, 0
2, 275760, Note_on_c, 0, 63, 75
2, 275760, Note_on_c, 0, 70, 75
2, 275807, Note_on_c, 0, 70, 0
2, 275807, Note_on_c, 0, 63, 0
2, 276000, Note_on_c, 0, 63, 75
2, 276000, Note_on_c, 0, 69, 75
2, 276047, Note_on_c, 0, 69, 0
2, 276047, Note_on_c, 0, 63, 0
2, 276240, Note_on_c, 0, 61, 75
2, 276240, Note_on_c, 0, 64, 75
2, 276287, Note_on_c, 0, 64, 0
2, 276287, Note_on_c, 0, 61, 0
2, 276480, Note_on_c, 0, 60, 75
2, 276480, Note_on_c, 0, 65, 75
2, 276527, Note_on_c, 0, 65, 0
2, 276527, Note_on_c, 0, 60, 0
2, 276720, Note_on_c, 0, 77, 101
2, 277440, Note_on_c, 0, 77, 0
2, 277440, Note_on_c, 0, 78, 101
2, 278160, Note_on_c, 0, 78, 0
2, 278160, Note_on_c, 0, 79, 101
2, 278880, Note_on_c, 0, 79, 0
2, 278880, Note_on_c, 0, 80, 101
2, 279600, Note_on_c, 0, 80, 0
2, 279840, Note_on_c, 0, 80, 75
2, 279960, Note_on_c, 0, 80, 0
2, 279960, Note_on_c, 0, 68, 75
2, 280080, Note_on_c, 0, 68, 0
2, 280560, Note_on_c, 0, 80, 75
2, 280560, Note_on_c, 0, 83, 75
2, 280680, Note_on_c, 0, 83, 0
2, 280680, Note_on_c, 0, 80, 0
2, 280680, Note_on_c, 0, 71, 75
2, 280800, Note_on_c, 0, 71, 0
2, 281280, Note_on_c, 0, 78, 75
2, 281280, Note_on_c, 0, 84, 75
2, 281400, Note_on_c, 0, 84, 0
2, 281400, Note_on_c, 0, 78, 0
2, 281400, Note_on_c, 0, 72, 75
2, 281520, Note_on_c, 0, 72, 0
2, 282000, Note_on_c, 0, 77, 75
2, 282000, Note_on_c, 0, 85, 75
2, 282120, Note_on_c, 0, 85, 0
2, 282120, Note_on_c, 0, 77, 0
2, 282120, Note_on_c, 0, 73, 75
2, 282240, Note_on_c, 0, 73, 0
2, 282480, Note_on_c, 0, 73, 101
2, 283200, Note_on_c, 0, 73, 0
2, 283200, Note_on_c, 0, 74, 101
2, 283920, Note_on_c, 0, 74, 0
2, 283920, Note_on_c, 0, 75, 101
2, 284640, Note_on_c, 0, 75, 0
2, 284640, Note_on_c, 0, 76, 101
2, 285360, Note_on_c, 0, 76, 0
2, 285600, Note_on_c, 0, 76, 88
2, 285720, Note_on_c, 0, 76, 0
2, 285720, Note_on_c, 0, 64, 88
2, 285840, Note_on_c, 0, 64, 0
2, 286320, Note_on_c, 0, 76, 88
2, 286320, Note_on_c, 0, 79, 88
2, 286440, Note_on_c, 0, 79, 0
2, 286440, Note_on_c, 0, 76, 0
2, 286440, Note_on_c, 0, 67, 88
2, 286560, Note_on_c, 0, 67, 0
2, 287040, Note_on_c, 0, 74, 88
2, 287040, Note_on_c, 0, 80, 88
2, 287160, Note_on_c, 0, 80, 0
2, 287160, Note_on_c, 0, 74, 0
2, 287160, Note_on_c, 0, 68, 88
2, 287280, Note_on_c, 0, 68, 0
2, 287760, Note_on_c, 0, 73, 88
2, 287760, Note_on_c, 0, 81, 88
2, 287880, Note_on_c, 0, 81, 0
2, 287880, Note_on_c, 0, 73, 0
2, 287880, Note_on_c, 0, 69, 88
2, 288000, Note_on_c, 0, 69, 0
2, 288480, Note_on_c, 0, 70, 88
2, 288480, Note_on_c, 0, 73, 88
2, 288480, Note_on_c, 0, 79, 88
2, 288480, Note_on_c, 0, 82, 88
2, 288960, Note_on_c, 0, 82, 0
2, 288960, Note_on_c, 0, 70, 0
2, 288960, Note_on_c, 0, 73, 0
2, 288960, Note_on_c, 0, 79, 0
2, 288960, Note_on_c, 0, 69, 88
2, 288960, Note_on_c, 0, 73, 88
2, 288960, Note_on_c, 0, 78, 88
2, 288960, Note_on_c, 0, 81, 88
2, 289680, Note_on_c, 0, 81, 0
2, 289680, Note_on_c, 0, 69, 0
2, 289680, Note_on_c, 0, 73, 0
2, 289680, Note_on_c, 0, 78, 0
2, 289920, Note_on_c, 0, 70, 88
2, 289920, Note_on_c, 0, 73, 88
2, 289920, Note_on_c, 0, 79, 88
2, 289920, Note_on_c, 0, 82, 88
2, 290400, Note_on_c, 0, 82, 0
2, 290400, Note_on_c, 0, 70, 0
2, 290400, Note_on_c, 0, 73, 0
2, 290400, Note_on_c, 0, 79, 0
2, 290400, Note_on_c, 0, 69, 88
2, 290400, Note_on_c, 0, 73, 88
2, 290400, Note_on_c, 0, 78, 88
2, 290400, Note_on_c, 0, 81, 88
2, 291120, Note_on_c, 0, 81, 0
2, 291120, Note_on_c, 0, 69, 0
2, 291120, Note_on_c, 0, 73, 0
2, 291120, Note_on_c, 0, 78, 0
2, 291360, Note_on_c, 0, 70, 101
2, 291360, Note_on_c, 0, 73, 101
2, 291360, Note_on_c, 0, 79, 101
2, 291360, Note_on_c, 0, 82, 101
2, 291840, Note_on_c, 0, 82, 0
2, 291840, Note_on_c, 0, 70, 0
2, 291840, Note_on_c, 0, 73, 0
2, 291840, Note_on_c, 0, 79, 0
2, 291840, Note_on_c, 0, 71, 101
2, 291840, Note_on_c, 0, 74, 101
2, 291840, Note_on_c, 0, 80, 101
2, 291840, Note_on_c, 0, 83, 101
2, 292320, Note_on_c, 0, 83, 0
2, 292320, Note_on_c, 0, 71, 0
2, 292320, Note_on_c, 0, 74, 0
2, 292320, Note_on_c, 0, 80, 0
2, 292320, Note_on_c, 0, 72, 101
2, 292320, Note_on_c, 0, 75, 101
2, 292320, Note_on_c, 0, 80, 101
2, 292320, Note_on_c, 0, 84, 101
2, 292800, Note_on_c, 0, 84, 0
2, 292800, Note_on_c, 0, 72, 0
2, 292800, Note_on_c, 0, 75, 0
2, 292800, Note_on_c, 0, 80, 0
2, 292800, Note_on_c, 0, 73, 101
2, 292800, Note_on_c, 0, 77, 101
2, 292800, Note_on_c, 0, 80, 101
2, 292800, Note_on_c, 0, 85, 101
2, 293280, Note_on_c, 0, 85, 0
2, 293280, Note_on_c, 0, 73, 0
2, 293280, Note_on_c, 0, 77, 0
2, 293280, Note_on_c, 0, 80, 0
2, 293280, Note_on_c, 0, 74, 101
2, 293280, Note_on_c, 0, 80, 101
2, 293280, Note_on_c, 0, 82, 101
2, 293280, Note_on_c, 0, 86, 101
2, 293760, Note_on_c, 0, 86, 0
2, 293760, Note_on_c, 0, 74, 0
2, 293760, Note_on_c, 0, 80, 0
2, 293760, Note_on_c, 0, 82, 0
2, 293760, Note_on_c, 0, 75, 101
2, 293760, Note_on_c, 0, 79, 101
2, 293760, Note_on_c, 0, 82, 101
2, 293760, Note_on_c, 0, 87, 101
2, 294240, Note_on_c, 0, 87, 0
2, 294240, Note_on_c, 0, 75, 0
2, 294240, Note_on_c, 0, 79, 0
2, 294240, Note_on_c, 0, 82, 0
2, 294240, Note_on_c, 0, 77, 101
2, 294240, Note_on_c, 0, 80, 101
2, 294240, Note_on_c, 0, 87, 101
2, 294240, Note_on_c, 0, 89, 101
2, 294720, Note_on_c, 0, 89, 0
2, 294720, Note_on_c, 0, 77, 0
2, 294720, Note_on_c, 0, 80, 0
2, 294720, Note_on_c, 0, 87, 0
2, 294720, Note_on_c, 0, 78, 101
2, 294720, Note_on_c, 0, 81, 101
2, 294720, Note_on_c, 0, 87, 101
2, 294720, Note_on_c, 0, 90, 101
2, 295200, Note_on_c, 0, 90, 0
2, 295200, Note_on_c, 0, 78, 0
2, 295200, Note_on_c, 0, 81, 0
2, 295200, Note_on_c, 0, 87, 0
2, 295200, Note_on_c, 0, 79, 101
2, 295200, Note_on_c, 0, 82, 101
2, 295200, Note_on_c, 0, 87, 101
2, 295200, Note_on_c, 0, 91, 101
2, 295680, Note_on_c, 0, 91, 0
2, 295680, Note_on_c, 0, 79, 0
2, 295680, Note_on_c, 0, 82, 0
2, 295680, Note_on_c, 0, 87, 0
2, 295680, Note_on_c, 0, 80, 101
2, 295680, Note_on_c, 0, 84, 101
2, 295680, Note_on_c, 0, 87, 101
2, 295680, Note_on_c, 0, 92, 101
2, 296160, Note_on_c, 0, 92, 0
2, 296160, Note_on_c, 0, 80, 0
2, 296160, Note_on_c, 0, 84, 0
2, 296160, Note_on_c, 0, 87, 0
2, 296160, Note_on_c, 0, 82, 101
2, 296160, Note_on_c, 0, 87, 101
2, 296160, Note_on_c, 0, 91, 101
2, 296640, Note_on_c, 0, 91, 0
2, 296640, Note_on_c, 0, 87, 0
2, 296640, Note_on_c, 0, 82, 0
2, 296640, Note_on_c, 0, 84, 101
2, 296640, Note_on_c, 0, 87, 101
2, 296640, Note_on_c, 0, 92, 101
2, 296640, Note_on_c, 0, 96, 101
2, 297120, Note_on_c, 0, 96, 0
2, 297120, Note_on_c, 0, 84, 0
2, 297120, Note_on_c, 0, 87, 0
2, 297120, Note_on_c, 0, 92, 0
2, 297120, Note_on_c, 0, 85, 101
2, 297120, Note_on_c, 0, 92, 101
2, 297120, Note_on_c, 0, 97, 101
2, 297600, Note_on_c, 0, 97, 0
2, 297600, Note_on_c, 0, 92, 0
2, 297600, Note_on_c, 0, 85, 0
2, 297600, Note_on_c, 0, 86, 101
2, 297600, Note_on_c, 0, 92, 101
2, 297600, Note_on_c, 0, 94, 101
2, 297600, Note_on_c, 0, 98, 101
2, 298080, Note_on_c, 0, 98, 0
2, 298080, Note_on_c, 0, 86, 0
2, 298080, Note_on_c, 0, 92, 0
2, 298080, Note_on_c, 0, 94, 0
2, 298080, Note_on_c, 0, 87, 101
2, 298080, Note_on_c, 0, 91, 101
2, 298080, Note_on_c, 0, 94, 101
2, 298080, Note_on_c, 0, 99, 101
2, 298560, Note_on_c, 0, 99, 0
2, 298560, Note_on_c, 0, 87, 0
2, 298560, Note_on_c, 0, 91, 0
2, 298560, Note_on_c, 0, 94, 0
2, 298560, Note_on_c, 0, 89, 101
2, 298560, Note_on_c, 0, 92, 101
2, 298560, Note_on_c, 0, 99, 101
2, 298560, Note_on_c, 0, 101, 101
2, 299040, Note_on_c, 0, 101, 0
2, 299040, Note_on_c, 0, 89, 0
2, 299040, Note_on_c, 0, 92, 0
2, 299040, Note_on_c, 0, 99, 0
2, 299040, Note_on_c, 0, 90, 101
2, 299040, Note_on_c, 0, 93, 101
2, 299040, Note_on_c, 0, 99, 101
2, 299040, Note_on_c, 0, 102, 101
2, 299520, Note_on_c, 0, 102, 0
2, 299520, Note_on_c, 0, 90, 0
2, 299520, Note_on_c, 0, 93, 0
2, 299520, Note_on_c, 0, 99, 0
2, 299520, Note_on_c, 0, 91, 101
2, 299520, Note_on_c, 0, 97, 101
2, 299520, Note_on_c, 0, 99, 101
2, 299520, Note_on_c, 0, 103, 101
2, 299760, Note_on_c, 0, 103, 0
2, 299760, Note_on_c, 0, 91, 0
2, 299760, Note_on_c, 0, 97, 0
2, 299760, Note_on_c, 0, 99, 0
2, 299760, Note_on_c, 0, 92, 101
2, 299760, Note_on_c, 0, 96, 101
2, 299760, Note_on_c, 0, 99, 101
2, 299760, Note_on_c, 0, 104, 101
2, 300000, Note_on_c, 0, 104, 0
2, 300000, Note_on_c, 0, 92, 0
2, 300000, Note_on_c, 0, 96, 0
2, 300000, Note_on_c, 0, 99, 0
2, 300000, Note_on_c, 0, 72, 88
2, 300000, Note_on_c, 0, 84, 88
2, 300240, Note_on_c, 0, 84, 0
2, 300240, Note_on_c, 0, 72, 0
2, 300240, Note_on_c, 0, 73, 88
2, 300240, Note_on_c, 0, 85, 88
2, 300480, Note_on_c, 0, 85, 0
2, 300480, Note_on_c, 0, 73, 0
2, 300480, Note_on_c, 0, 75, 88
2, 300480, Note_on_c, 0, 87, 88
2, 300960, Note_on_c, 0, 87, 0
2, 300960, Note_on_c, 0, 75, 0
2, 300960, Note_on_c, 0, 77, 88
2, 300960, Note_on_c, 0, 89, 88
2, 301200, Note_on_c, 0, 89, 0
2, 301200, Note_on_c, 0, 77, 0
2, 301440, Note_on_c, 0, 67, 88
2, 301440, Note_on_c, 0, 79, 88
2, 301680, Note_on_c, 0, 79, 0
2, 301680, Note_on_c, 0, 67, 0
2, 301680, Note_on_c, 0, 68, 88
2, 301680, Note_on_c, 0, 80, 88
2, 301920, Note_on_c, 0, 80, 0
2, 301920, Note_on_c, 0, 68, 0
2, 301920, Note_on_c, 0, 70, 88
2, 301920, Note_on_c, 0, 82, 88
2, 302400, Note_on_c, 0, 82, 0
2, 302400, Note_on_c, 0, 70, 0
2, 302400, Note_on_c, 0, 72, 88
2, 302400, Note_on_c, 0, 84, 88
2, 302640, Note_on_c, 0, 84, 0
2, 302640, Note_on_c, 0, 72, 0
2, 302880, Note_on_c, 0, 72, 88
2, 302880, Note_on_c, 0, 84, 88
2, 303120, Note_on_c, 0, 84, 0
2, 303120, Note_on_c, 0, 72, 0
2, 303120, Note_on_c, 0, 73, 88
2, 303120, Note_on_c, 0, 85, 88
2, 303360, Note_on_c, 0, 85, 0
2, 303360, Note_on_c, 0, 73, 0
2, 303360, Note_on_c, 0, 75, 88
2, 303360, Note_on_c, 0, 87, 88
2, 303840, Note_on_c, 0, 87, 0
2, 303840, Note_on_c, 0, 75, 0
2, 303840, Note_on_c, 0, 77, 88
2, 303840, Note_on_c, 0, 89, 88
2, 304080, Note_on_c, 0, 89, 0
2, 304080, Note_on_c, 0, 77, 0
2, 304320, Note_on_c, 0, 67, 88
2, 304320, Note_on_c, 0, 79, 88
2, 304560, Note_on_c, 0, 79, 0
2, 304560, Note_on_c, 0, 67, 0
2, 304560, Note_on_c, 0, 68, 88
2, 304560, Note_on_c, 0, 80, 88
2, 304800, Note_on_c, 0, 80, 0
2, 304800, Note_on_c, 0, 68, 0
2, 304800, Note_on_c, 0, 70, 88
2, 304800, Note_on_c, 0, 82, 88
2, 305280, Note_on_c, 0, 82, 0
2, 305280, Note_on_c, 0, 70, 0
2, 305280, Note_on_c, 0, 72, 88
2, 305280, Note_on_c, 0, 84, 88
2, 305520, Note_on_c, 0, 84, 0
2, 305520, Note_on_c, 0, 72, 0
2, 305760, Note_on_c, 0, 67, 88
2, 305760, Note_on_c, 0, 79, 88
2, 306000, Note_on_c, 0, 79, 0
2, 306000, Note_on_c, 0, 67, 0
2, 306000, Note_on_c, 0, 68, 88
2, 306000, Note_on_c, 0, 80, 88
2, 306240, Note_on_c, 0, 80, 0
2, 306240, Note_on_c, 0, 68, 0
2, 306240, Note_on_c, 0, 70, 88
2, 306240, Note_on_c, 0, 82, 88
2, 306720, Note_on_c, 0, 82, 0
2, 306720, Note_on_c, 0, 70, 0
2, 306720, Note_on_c, 0, 72, 88
2, 306720, Note_on_c, 0, 84, 88
2, 306960, Note_on_c, 0, 84, 0
2, 306960, Note_on_c, 0, 72, 0
2, 307200, Note_on_c, 0, 67, 88
2, 307200, Note_on_c, 0, 79, 88
2, 307440, Note_on_c, 0, 79, 0
2, 307440, Note_on_c, 0, 67, 0
2, 307440, Note_on_c, 0, 68, 88
2, 307440, Note_on_c, 0, 80, 88
2, 307680, Note_on_c, 0, 80, 0
2, 307680, Note_on_c, 0, 68, 0
2, 307680, Note_on_c, 0, 70, 88
2, 307680, Note_on_c, 0, 82, 88
2, 308160, Note_on_c, 0, 82, 0
2, 308160, Note_on_c, 0, 70, 0
2, 308160, Note_on_c, 0, 72, 88
2, 308160, Note_on_c, 0, 84, 88
2, 308400, Note_on_c, 0, 84, 0
2, 308400, Note_on_c, 0, 72, 0
2, 308640, Note_on_c, 0, 55, 101
2, 308640, Note_on_c, 0, 67, 101
2, 308880, Note_on_c, 0, 67, 0
2, 308880, Note_on_c, 0, 55, 0
2, 308880, Note_on_c, 0, 56, 101
2, 308880, Note_on_c, 0, 68, 101
2, 309120, Note_on_c, 0, 68, 0
2, 309120, Note_on_c, 0, 56, 0
2, 309120, Note_on_c, 0, 57, 101
2, 309120, Note_on_c, 0, 69, 101
2, 309600, Note_on_c, 0, 69, 0
2, 309600, Note_on_c, 0, 57, 0
2, 309600, Note_on_c, 0, 58, 101
2, 309600, Note_on_c, 0, 70, 101
2, 309840, Note_on_c, 0, 70, 0
2, 309840, Note_on_c, 0, 58, 0
2, 310080, Note_on_c, 0, 59, 101
2, 310080, Note_on_c, 0, 71, 101
2, 310320, Note_on_c, 0, 71, 0
2, 310320, Note_on_c, 0, 59, 0
2, 310320, Note_on_c, 0, 60, 101
2, 310320, Note_on_c, 0, 72, 101
2, 310560, Note_on_c, 0, 72, 0
2, 310560, Note_on_c, 0, 60, 0
2, 310560, Note_on_c, 0, 61, 101
2, 310560, Note_on_c, 0, 73, 101
2, 311040, Note_on_c, 0, 73, 0
2, 311040, Note_on_c, 0, 61, 0
2, 311040, Note_on_c, 0, 62, 101
2, 311040, Note_on_c, 0, 74, 101
2, 311280, Note_on_c, 0, 74, 0
2, 311280, Note_on_c, 0, 62, 0
2, 311520, Note_on_c, 0, 63, 101
2, 311520, Note_on_c, 0, 75, 101
2, 311760, Note_on_c, 0, 75, 0
2, 311760, Note_on_c, 0, 63, 0
2, 311760, Note_on_c, 0, 64, 101
2, 311760, Note_on_c, 0, 76, 101
2, 312000, Note_on_c, 0, 76, 0
2, 312000, Note_on_c, 0, 64, 0
2, 312000, Note_on_c, 0, 65, 101
2, 312000, Note_on_c, 0, 77, 101
2, 312480, Note_on_c, 0, 77, 0
2, 312480, Note_on_c, 0, 65, 0
2, 312480, Note_on_c, 0, 66, 101
2, 312480, Note_on_c, 0, 78, 101
2, 312720, Note_on_c, 0, 78, 0
2, 312720, Note_on_c, 0, 66, 0
2, 312960, Note_on_c, 0, 67, 101
2, 312960, Note_on_c, 0, 79, 101
2, 313200, Note_on_c, 0, 79, 0
2, 313200, Note_on_c, 0, 67, 0
2, 313200, Note_on_c, 0, 68, 101
2, 313200, Note_on_c, 0, 80, 101
2, 313440, Note_on_c, 0, 80, 0
2, 313440, Note_on_c, 0, 68, 0
2, 313440, Note_on_c, 0, 69, 101
2, 313440, Note_on_c, 0, 81, 101
2, 313920, Note_on_c, 0, 81, 0
2, 313920, Note_on_c, 0, 69, 0
2, 313920, Note_on_c, 0, 70, 101
2, 313920, Note_on_c, 0, 82, 101
2, 314160, Note_on_c, 0, 82, 0
2, 314160, Note_on_c, 0, 70, 0
2, 314400, Note_on_c, 0, 71, 101
2, 314400, Note_on_c, 0, 83, 101
2, 314640, Note_on_c, 0, 83, 0
2, 314640, Note_on_c, 0, 71, 0
2, 314640, Note_on_c, 0, 72, 101
2, 314640, Note_on_c, 0, 84, 101
2, 314880, Note_on_c, 0, 84, 0
2, 314880, Note_on_c, 0, 72, 0
2, 314880, Note_on_c, 0, 73, 101
2, 314880, Note_on_c, 0, 85, 101
2, 315360, Note_on_c, 0, 85, 0
2, 315360, Note_on_c, 0, 73, 0
2, 315360, Note_on_c, 0, 74, 101
2, 315360, Note_on_c, 0, 86, 101
2, 315600, Note_on_c, 0, 86, 0
2, 315600, Note_on_c, 0, 74, 0
2, 315840, Note_on_c, 0, 75, 101
2, 315840, Note_on_c, 0, 87, 101
2, 316080, Note_on_c, 0, 87, 0
2, 316080, Note_on_c, 0, 75, 0
2, 316080, Note_on_c, 0, 76, 101
2, 316080, Note_on_c, 0, 88, 101
2, 316320, Note_on_c, 0, 88, 0
2, 316320, Note_on_c, 0, 76, 0
2, 316320, Note_on_c, 0, 77, 101
2, 316320, Note_on_c, 0, 89, 101
2, 316560, Note_on_c, 0, 89, 0
2, 316560, Note_on_c, 0, 77, 0
2, 316560, Note_on_c, 0, 78, 101
2, 316560, Note_on_c, 0, 90, 101
2, 316800, Note_on_c, 0, 90, 0
2, 316800, Note_on_c, 0, 78, 0
2, 316800, Note_on_c, 0, 79, 101
2, 316800, Note_on_c, 0, 91, 101
2, 317040, Note_on_c, 0, 91, 0
2, 317040, Note_on_c, 0, 79, 0
2, 317040, Note_on_c, 0, 80, 101
2, 317040, Note_on_c, 0, 84, 101
2, 317040, Note_on_c, 0, 87, 101
2, 317040, Note_on_c, 0, 92, 101
2, 317280, Note_on_c, 0, 92, 0
2, 317280, Note_on_c, 0, 80, 0
2, 317280, Note_on_c, 0, 84, 0
2, 317280, Note_on_c, 0, 87, 0
2, 317280, Control_c, 0, 64, 127
2, 317280, Note_on_c, 0, 48, 101
2, 317400, Note_on_c, 0, 48, 0
2, 317400, Note_on_c, 0, 51, 101
2, 317520, Note_on_c, 0, 51, 0
2, 317520, Note_on_c, 0, 56, 101
2, 317520, Note_on_c, 0, 60, 101
2, 317640, Note_on_c, 0, 60, 0
2, 317640, Note_on_c, 0, 56, 0
2, 317640, Note_on_c, 0, 51, 101
2, 317760, Note_on_c, 0, 51, 0
2, 317760, Note_on_c, 0, 56, 101
2, 317880, Note_on_c, 0, 56, 0
2, 317880, Note_on_c, 0, 60, 101
2, 317880, Note_on_c, 0, 63, 101
2, 318000, Note_on_c, 0, 63, 0
2, 318000, Note_on_c, 0, 60, 0
2, 318000, Note_on_c, 0, 56, 101
2, 318120, Note_on_c, 0, 56, 0
2, 318120, Note_on_c, 0, 60, 101
2, 318240, Note_on_c, 0, 60, 0
2, 318240, Note_on_c, 0, 63, 101
2, 318240, Note_on_c, 0, 68, 101
2, 318360, Note_on_c, 0, 68, 0
2, 318360, Note_on_c, 0, 63, 0
2, 318360, Control_c, 0, 64, 0
2, 318360, Note_on_c, 0, 60, 101
2, 318480, Note_on_c, 0, 60, 0
2, 318480, Control_c, 0, 64, 127
2, 318480, Note_on_c, 0, 63, 101
2, 318600, Note_on_c, 0, 63, 0
2, 318600, Note_on_c, 0, 68, 101
2, 318600, Note_on_c, 0, 72, 101
2, 318720, Note_on_c, 0, 72, 0
2, 318720, Note_on_c, 0, 68, 0
2, 318720, Note_on_c, 0, 63, 101
2, 318840, Note_on_c, 0, 63, 0
2, 318840, Note_on_c, 0, 68, 101
2, 318960, Note_on_c, 0, 68, 0
2, 318960, Note_on_c, 0, 72, 101
2, 318960, Note_on_c, 0, 75, 101
2, 319080, Note_on_c, 0, 75, 0
2, 319080, Note_on_c, 0, 72, 0
2, 319080, Note_on_c, 0, 68, 101
2, 319200, Note_on_c, 0, 68, 0
2, 319200, Note_on_c, 0, 72, 101
2, 319320, Note_on_c, 0, 72, 0
2, 319320, Note_on_c, 0, 75, 101
2, 319320, Note_on_c, 0, 80, 101
2, 319440, Note_on_c, 0, 80, 0
2, 319440, Note_on_c, 0, 75, 0
2, 319440, Note_on_c, 0, 72, 101
2, 319560, Note_on_c, 0, 72, 0
2, 319560, Note_on_c, 0, 75, 101
2, 319680, Note_on_c, 0, 75, 0
2, 319680, Note_on_c, 0, 80, 101
2, 319680, Note_on_c, 0, 84, 101
2, 319800, Note_on_c, 0, 84, 0
2, 319800, Note_on_c, 0, 80, 0
2, 319800, Control_c, 0, 64, 0
2, 319800, Note_on_c, 0, 75, 101
2, 319920, Note_on_c, 0, 75, 0
2, 319920, Control_c, 0, 64, 127
2, 319920, Note_on_c, 0, 80, 101
2, 320040, Note_on_c, 0, 80, 0
2, 320040, Note_on_c, 0, 84, 101
2, 320040, Note_on_c, 0, 87, 101
2, 320160, Note_on_c, 0, 87, 0
2, 320160, Note_on_c, 0, 84, 0
2, 320160, Note_on_c, 0, 80, 101
2, 320280, Note_on_c, 0, 80, 0
2, 320280, Note_on_c, 0, 84, 101
2, 320400, Note_on_c, 0, 84, 0
2, 320400, Note_on_c, 0, 87, 101
2, 320400, Note_on_c, 0, 92, 101
2, 320520, Note_on_c, 0, 92, 0
2, 320520, Note_on_c, 0, 87, 0
2, 320520, Note_on_c, 0, 84, 101
2, 320640, Note_on_c, 0, 84, 0
2, 320640, Note_on_c, 0, 87, 101
2, 320760, Note_on_c, 0, 87, 0
2, 320760, Note_on_c, 0, 92, 101
2, 320760, Note_on_c, 0, 96, 101
2, 320880, Note_on_c, 0, 96, 0
2, 320880, Note_on_c, 0, 92, 0
2, 320880, Note_on_c, 0, 87, 101
2, 321000, Note_on_c, 0, 87, 0
2, 321000, Note_on_c, 0, 92, 101
2, 321120, Note_on_c, 0, 92, 0
2, 321120, Note_on_c, 0, 96, 101
2, 321120, Note_on_c, 0, 99, 101
2, 321240, Note_on_c, 0, 99, 0
2, 321240, Note_on_c, 0, 96, 0
2, 321240, Control_c, 0, 64, 0
2, 321240, Note_on_c, 0, 92, 101
2, 321360, Note_on_c, 0, 92, 0
2, 321360, Control_c, 0, 64, 127
2, 321360, Note_on_c, 0, 96, 101
2, 321360, Note_on_c, 0, 99, 101
2, 321360, Note_on_c, 0, 104, 101
2, 321600, Note_on_c, 0, 104, 0
2, 321600, Note_on_c, 0, 99, 0
2, 321600, Note_on_c, 0, 96, 0
2, 321600, Note_on_c, 0, 72, 101
2, 321600, Note_on_c, 0, 75, 101
2, 321600, Note_on_c, 0, 80, 101
2, 321840, Note_on_c, 0, 80, 0
2, 321840, Note_on_c, 0, 75, 0
2, 321840, Note_on_c, 0, 72, 0
2, 321840, Note_on_c, 0, 72, 101
2, 321840, Note_on_c, 0, 75, 101
2, 321840, Note_on_c, 0, 80, 101
2, 321840, Note_on_c, 0, 84, 101
2, 322080, Note_on_c, 0, 84, 0
2, 322080, Note_on_c, 0, 72, 0
2, 322080, Note_on_c, 0, 75, 0
2, 322080, Note_on_c, 0, 80, 0
2, 322080, Note_on_c, 0, 75, 101
2, 322080, Note_on_c, 0, 80, 101
2, 322080, Note_on_c, 0, 84, 101
2, 322080, Note_on_c, 0, 87, 101
2, 322320, Note_on_c, 0, 87, 0
2, 322320, Note_on_c, 0, 75, 0
2, 322320, Note_on_c, 0, 80, 0
2, 322320, Note_on_c, 0, 84, 0
2, 322320, Note_on_c, 0, 80, 101
2, 322320, Note_on_c, 0, 84, 101
2, 322320, Note_on_c, 0, 87, 101
2, 322320, Note_on_c, 0, 92, 101
2, 322560, Note_on_c, 0, 92, 0
2, 322560, Note_on_c, 0, 80, 0
2, 322560, Note_on_c, 0, 84, 0
2, 322560, Note_on_c, 0, 87, 0
2, 322560, Note_on_c, 0, 60, 101
2, 322560, Note_on_c, 0, 63, 101
2, 322560, Note_on_c, 0, 68, 101
2, 322800, Note_on_c, 0, 68, 0
2, 322800, Note_on_c, 0, 63, 0
2, 322800, Note_on_c, 0, 60, 0
2, 322800, Note_on_c, 0, 60, 101
2, 322800, Note_on_c, 0, 63, 101
2, 322800, Note_on_c, 0, 68, 101
2, 322800, Note_on_c, 0, 72, 101
2, 323040, Note_on_c, 0, 72, 0
2, 323040, Note_on_c, 0, 60, 0
2, 323040, Note_on_c, 0, 63, 0
2, 323040, Note_on_c, 0, 68, 0
2, 323040, Note_on_c, 0, 63, 101
2, 323040, Note_on_c, 0, 68, 101
2, 323040, Note_on_c, 0, 72, 101
2, 323040, Note_on_c, 0, 75, 101
2, 323280, Note_on_c, 0, 75, 0
2, 323280, Note_on_c, 0, 63, 0
2, 323280, Note_on_c, 0, 68, 0
2, 323280, Note_on_c, 0, 72, 0
2, 323280, Note_on_c, 0, 68, 101
2, 323280, Note_on_c, 0, 72, 101
2, 323280, Note_on_c, 0, 75, 101
2, 323280, Note_on_c, 0, 80, 101
2, 323760, Note_on_c, 0, 80, 0
2, 323760, Note_on_c, 0, 68, 0
2, 323760, Note_on_c, 0, 72, 0
2, 323760, Note_on_c, 0, 75, 0
2, 323760, Note_on_c, 0, 72, 127
2, 323760, Note_on_c, 0, 75, 127
2, 323760, Note_on_c, 0, 80, 127
2, 323760, Note_on_c, 0, 84, 127
2, 324240, Note_on_c, 0, 84, 0
2, 324240, Note_on_c, 0, 72, 0
2, 324240, Note_on_c, 0, 75, 0
2, 324240, Note_on_c, 0, 80, 0
2, 324240, Note_on_c, 0, 56, 127
2, 326160, Note_on_c, 0, 56, 0
2, 327600, Control_c, 0, 64, 0
2, 327600, End_track
3, 0, Start_track
3, 0, Title_t, "Grand Piano"
3, 0, Program_c, 0, 0
3, 0, Control_c, 0, 7, 115
3, 0, Control_c, 0, 10, 79
3, 20160, Note_on_c, 0, 76, 64
3, 20400, Note_on_c, 0, 76, 0
3, 20400, Note_on_c, 0, 65, 64
3, 20640, Note_on_c, 0, 65, 0
3, 20640, Note_on_c, 0, 75, 64
3, 20880, Note_on_c, 0, 75, 0
3, 20880, Note_on_c, 0, 74, 64
3, 21120, Note_on_c, 0, 74, 0
3, 21120, Note_on_c, 0, 66, 64
3, 21360, Note_on_c, 0, 66, 0
3, 21360, Note_on_c, 0, 73, 64
3, 21600, Note_on_c, 0, 73, 0
3, 21600, Note_on_c, 0, 78, 64
3, 21840, Note_on_c, 0, 78, 0
3, 21840, Note_on_c, 0, 67, 64
3, 22080, Note_on_c, 0, 67, 0
3, 22080, Note_on_c, 0, 77, 64
3, 22320, Note_on_c, 0, 77, 0
3, 22320, Note_on_c, 0, 76, 64
3, 22560, Note_on_c, 0, 76, 0
3, 22560, Note_on_c, 0, 68, 64
3, 22800, Note_on_c, 0, 68, 0
3, 22800, Note_on_c, 0, 75, 64
3, 23040, Note_on_c, 0, 75, 0
3, 45600, Note_on_c, 0, 68, 49
3, 46080, Note_on_c, 0, 68, 0
3, 46080, Note_on_c, 0, 72, 49
3, 46800, Note_on_c, 0, 72, 0
3, 47040, Note_on_c, 0, 63, 49
3, 47520, Note_on_c, 0, 63, 0
3, 47520, Note_on_c, 0, 67, 49
3, 48240, Note_on_c, 0, 67, 0
3, 48480, Note_on_c, 0, 68, 49
3, 48960, Note_on_c, 0, 68, 0
3, 48960, Note_on_c, 0, 72, 49
3, 49680, Note_on_c, 0, 72, 0
3, 49920, Note_on_c, 0, 63, 49
3, 50400, Note_on_c, 0, 63, 0
3, 50400, Note_on_c, 0, 67, 49
3, 51120, Note_on_c, 0, 67, 0
3, 51360, Note_on_c, 0, 68, 49
3, 51840, Note_on_c, 0, 68, 0
3, 51840, Note_on_c, 0, 67, 49
3, 51840, Note_on_c, 0, 72, 49
3, 52560, Note_on_c, 0, 72, 0
3, 52560, Note_on_c, 0, 67, 0
3, 52800, Note_on_c, 0, 65, 49
3, 53280, Note_on_c, 0, 65, 0
3, 53280, Note_on_c, 0, 63, 49
3, 53280, Note_on_c, 0, 67, 49
3, 54000, Note_on_c, 0, 67, 0
3, 54000, Note_on_c, 0, 63, 0
3, 54240, Note_on_c, 0, 68, 49
3, 54720, Note_on_c, 0, 68, 0
3, 54720, Note_on_c, 0, 67, 49
3, 54720, Note_on_c, 0, 72, 49
3, 55440, Note_on_c, 0, 72, 0
3, 55440, Note_on_c, 0, 67, 0
3, 55680, Note_on_c, 0, 65, 49
3, 56160, Note_on_c, 0, 65, 0
3, 56160, Note_on_c, 0, 63, 62
3, 56160, Note_on_c, 0, 67, 62
3, 56880, Note_on_c, 0, 67, 0
3, 56880, Note_on_c, 0, 63, 0
3, 57120, Note_on_c, 0, 61, 62
3, 57600, Note_on_c, 0, 61, 0
3, 57600, Note_on_c, 0, 69, 62
3, 58320, Note_on_c, 0, 69, 0
3, 58560, Note_on_c, 0, 58, 62
3, 59040, Note_on_c, 0, 58, 0
3, 59040, Note_on_c, 0, 63, 62
3, 59760, Note_on_c, 0, 63, 0
3, 60000, Note_on_c, 0, 63, 62
3, 60480, Note_on_c, 0, 63, 0
3, 60480, Note_on_c, 0, 71, 62
3, 61200, Note_on_c, 0, 71, 0
3, 61440, Note_on_c, 0, 60, 62
3, 61920, Note_on_c, 0, 60, 0
3, 61920, Note_on_c, 0, 65, 62
3, 62640, Note_on_c, 0, 65, 0
3, 62880, Note_on_c, 0, 65, 62
3, 63360, Note_on_c, 0, 65, 0
3, 63360, Note_on_c, 0, 65, 62
3, 63360, Note_on_c, 0, 69, 62
3, 64080, Note_on_c, 0, 69, 0
3, 64080, Note_on_c, 0, 65, 0
3, 64320, Note_on_c, 0, 65, 62
3, 64800, Note_on_c, 0, 65, 0
3, 64800, Note_on_c, 0, 65, 62
3, 64800, Note_on_c, 0, 69, 62
3, 65520, Note_on_c, 0, 69, 0
3, 65520, Note_on_c, 0, 65, 0
3, 65760, Note_on_c, 0, 65, 62
3, 66240, Note_on_c, 0, 65, 0
3, 66240, Note_on_c, 0, 65, 62
3, 66960, Note_on_c, 0, 65, 0
3, 66960, Note_on_c, 0, 65, 62
3, 67680, Note_on_c, 0, 65, 0
3, 67680, Note_on_c, 0, 66, 49
3, 68160, Note_on_c, 0, 66, 0
3, 68160, Note_on_c, 0, 67, 49
3, 68400, Note_on_c, 0, 67, 0
3, 68400, Note_on_c, 0, 66, 49
3, 68880, Note_on_c, 0, 66, 0
3, 68880, Note_on_c, 0, 67, 49
3, 69120, Note_on_c, 0, 67, 0
3, 69120, Note_on_c, 0, 58, 49
3, 69120, Note_on_c, 0, 61, 49
3, 69840, Note_on_c, 0, 61, 0
3, 69840, Note_on_c, 0, 58, 0
3, 69840, Note_on_c, 0, 58, 49
3, 69840, Note_on_c, 0, 61, 49
3, 70320, Note_on_c, 0, 61, 0
3, 70320, Note_on_c, 0, 58, 0
3, 92160, Note_on_c, 0, 76, 49
3, 92400, Note_on_c, 0, 76, 0
3, 92400, Note_on_c, 0, 65, 49
3, 92640, Note_on_c, 0, 65, 0
3, 92640, Note_on_c, 0, 75, 49
3, 92880, Note_on_c, 0, 75, 0
3, 92880, Note_on_c, 0, 74, 49
3, 93120, Note_on_c, 0, 74, 0
3, 93120, Note_on_c, 0, 66, 49
3, 93360, Note_on_c, 0, 66, 0
3, 93360, Note_on_c, 0, 73, 49
3, 93600, Note_on_c, 0, 73, 0
3, 93600, Note_on_c, 0, 78, 49
3, 93840, Note_on_c, 0, 78, 0
3, 93840, Note_on_c, 0, 67, 49
3, 94080, Note_on_c, 0, 67, 0
3, 94080, Note_on_c, 0, 77, 49
3, 94320, Note_on_c, 0, 77, 0
3, 94320, Note_on_c, 0, 76, 49
3, 94560, Note_on_c, 0, 76, 0
3, 94560, Note_on_c, 0, 68, 49
3, 94800, Note_on_c, 0, 68, 0
3, 94800, Note_on_c, 0, 75, 49
3, 95040, Note_on_c, 0, 75, 0
3, 97920, Note_on_c, 0, 72, 49
3, 98160, Note_on_c, 0, 72, 0
3, 98160, Note_on_c, 0, 61, 49
3, 98400, Note_on_c, 0, 61, 0
3, 98400, Note_on_c, 0, 71, 49
3, 98640, Note_on_c, 0, 71, 0
3, 98640, Note_on_c, 0, 70, 49
3, 98880, Note_on_c, 0, 70, 0
3, 98880, Note_on_c, 0, 62, 49
3, 99120, Note_on_c, 0, 62, 0
3, 99120, Note_on_c, 0, 69, 49
3, 99360, Note_on_c, 0, 69, 0
3, 99360, Note_on_c, 0, 74, 49
3, 99600, Note_on_c, 0, 74, 0
3, 99600, Note_on_c, 0, 63, 49
3, 99840, Note_on_c, 0, 63, 0
3, 99840, Note_on_c, 0, 73, 49
3, 100080, Note_on_c, 0, 73, 0
3, 100080, Note_on_c, 0, 72, 49
3, 100320, Note_on_c, 0, 72, 0
3, 100320, Note_on_c, 0, 64, 49
3, 100560, Note_on_c, 0, 64, 0
3, 100560, Note_on_c, 0, 71, 49
3, 100800, Note_on_c, 0, 71, 0
3, 118080, Note_on_c, 0, 68, 49
3, 118080, Note_on_c, 0, 72, 49
3, 118800, Note_on_c, 0, 72, 0
3, 118800, Note_on_c, 0, 68, 0
3, 118800, Note_on_c, 0, 70, 49
3, 118800, Note_on_c, 0, 72, 49
3, 119520, Note_on_c, 0, 72, 0
3, 119520, Note_on_c, 0, 70, 0
3, 119520, Note_on_c, 0, 68, 49
3, 119760, Note_on_c, 0, 68, 0
3, 121440, Note_on_c, 0, 59, 49
3, 122400, Note_on_c, 0, 59, 0
3, 122400, Note_on_c, 0, 59, 49
3, 122880, Note_on_c, 0, 59, 0
3, 122880, Note_on_c, 0, 60, 49
3, 123120, Note_on_c, 0, 60, 0
3, 123840, Note_on_c, 0, 68, 49
3, 123840, Note_on_c, 0, 72, 49
3, 124560, Note_on_c, 0, 72, 0
3, 124560, Note_on_c, 0, 68, 0
3, 124560, Note_on_c, 0, 70, 49
3, 124560, Note_on_c, 0, 72, 49
3, 125280, Note_on_c, 0, 72, 0
3, 125280, Note_on_c, 0, 70, 0
3, 125280, Note_on_c, 0, 68, 49
3, 125520, Note_on_c, 0, 68, 0
3, 126240, Note_on_c, 0, 67, 49
3, 126720, Note_on_c, 0, 67, 0
3, 126720, Note_on_c, 0, 68, 49
3, 126960, Note_on_c, 0, 68, 0
3, 127680, Note_on_c, 0, 64, 49
3, 128160, Note_on_c, 0, 64, 0
3, 128160, Note_on_c, 0, 65, 49
3, 128640, Note_on_c, 0, 65, 0
3, 128640, Note_on_c, 0, 61, 49
3, 129120, Note_on_c, 0, 61, 0
3, 129120, Note_on_c, 0, 61, 49
3, 129480, Note_on_c, 0, 61, 0
3, 129480, Note_on_c, 0, 58, 49
3, 129600, Note_on_c, 0, 58, 0
3, 129600, Note_on_c, 0, 58, 49
3, 130080, Note_on_c, 0, 58, 0
3, 130080, Note_on_c, 0, 56, 49
3, 130320, Note_on_c, 0, 56, 0
3, 131040, Note_on_c, 0, 55, 49
3, 131760, Note_on_c, 0, 55, 0
3, 131760, Note_on_c, 0, 56, 49
3, 132480, Note_on_c, 0, 56, 0
3, 132480, Note_on_c, 0, 55, 49
3, 132720, Note_on_c, 0, 55, 0
3, 133920, Note_on_c, 0, 75, 49
3, 134160, Note_on_c, 0, 75, 0
3, 135360, Note_on_c, 0, 63, 49
3, 135600, Note_on_c, 0, 63, 0
3, 136800, Note_on_c, 0, 63, 49
3, 137520, Note_on_c, 0, 63, 0
3, 137520, Note_on_c, 0, 63, 49
3, 138000, Note_on_c, 0, 63, 0
3, 138000, Note_on_c, 0, 65, 49
3, 138240, Note_on_c, 0, 65, 0
3, 138240, Note_on_c, 0, 67, 49
3, 138480, Note_on_c, 0, 67, 0
3, 140640, Note_on_c, 0, 65, 49
3, 141120, Note_on_c, 0, 65, 0
3, 141120, Note_on_c, 0, 64, 49
3, 141360, Note_on_c, 0, 64, 0
3, 150720, Note_on_c, 0, 67, 62
3, 151200, Note_on_c, 0, 67, 0
3, 151200, Note_on_c, 0, 68, 62
3, 151440, Note_on_c, 0, 68, 0
3, 152160, Note_on_c, 0, 64, 62
3, 152640, Note_on_c, 0, 64, 0
3, 152640, Note_on_c, 0, 65, 62
3, 152880, Note_on_c, 0, 65, 0
3, 182880, Control_c, 0, 64, 0
3, 204720, Note_on_c, 0, 76, 62
3, 204960, Note_on_c, 0, 76, 0
3, 204960, Note_on_c, 0, 65, 62
3, 205200, Note_on_c, 0, 65, 0
3, 205200, Note_on_c, 0, 75, 62
3, 205440, Note_on_c, 0, 75, 0
3, 205440, Note_on_c, 0, 74, 62
3, 205680, Note_on_c, 0, 74, 0
3, 205680, Note_on_c, 0, 66, 62
3, 205920, Note_on_c, 0, 66, 0
3, 205920, Note_on_c, 0, 73, 62
3, 206160, Note_on_c, 0, 73, 0
3, 206160, Note_on_c, 0, 78, 62
3, 206400, Note_on_c, 0, 78, 0
3, 206400, Note_on_c, 0, 67, 62
3, 206640, Note_on_c, 0, 67, 0
3, 206640, Note_on_c, 0, 77, 62
3, 206880, Note_on_c, 0, 77, 0
3, 206880, Note_on_c, 0, 76, 62
3, 207120, Note_on_c, 0, 76, 0
3, 207120, Note_on_c, 0, 68, 62
3, 207360, Note_on_c, 0, 68, 0
3, 207360, Note_on_c, 0, 75, 62
3, 207600, Note_on_c, 0, 75, 0
3, 230160, Note_on_c, 0, 68, 49
3, 230640, Note_on_c, 0, 68, 0
3, 230640, Note_on_c, 0, 72, 49
3, 231360, Note_on_c, 0, 72, 0
3, 231600, Note_on_c, 0, 63, 49
3, 232080, Note_on_c, 0, 63, 0
3, 232080, Note_on_c, 0, 67, 49
3, 232800, Note_on_c, 0, 67, 0
3, 233040, Note_on_c, 0, 68, 49
3, 233520, Note_on_c, 0, 68, 0
3, 233520, Note_on_c, 0, 72, 49
3, 234240, Note_on_c, 0, 72, 0
3, 234480, Note_on_c, 0, 63, 49
3, 234960, Note_on_c, 0, 63, 0
3, 234960, Note_on_c, 0, 67, 49
3, 235680, Note_on_c, 0, 67, 0
3, 235920, Note_on_c, 0, 68, 49
3, 236400, Note_on_c, 0, 68, 0
3, 236400, Note_on_c, 0, 67, 49
3, 236400, Note_on_c, 0, 72, 49
3, 237120, Note_on_c, 0, 72, 0
3, 237120, Note_on_c, 0, 67, 0
3, 237360, Note_on_c, 0, 65, 49
3, 237840, Note_on_c, 0, 65, 0
3, 237840, Note_on_c, 0, 63, 49
3, 237840, Note_on_c, 0, 67, 49
3, 238560, Note_on_c, 0, 67, 0
3, 238560, Note_on_c, 0, 63, 0
3, 238800, Note_on_c, 0, 68, 49
3, 239280, Note_on_c, 0, 68, 0
3, 239280, Note_on_c, 0, 67, 49
3, 239280, Note_on_c, 0, 72, 49
3, 240000, Note_on_c, 0, 72, 0
3, 240000, Note_on_c, 0, 67, 0
3, 240240, Note_on_c, 0, 65, 49
3, 240720, Note_on_c, 0, 65, 0
3, 240720, Note_on_c, 0, 63, 62
3, 240720, Note_on_c, 0, 67, 62
3, 241440, Note_on_c, 0, 67, 0
3, 241440, Note_on_c, 0, 63, 0
3, 241680, Note_on_c, 0, 61, 62
3, 242160, Note_on_c, 0, 61, 0
3, 242160, Note_on_c, 0, 69, 62
3, 242880, Note_on_c, 0, 69, 0
3, 243120, Note_on_c, 0, 58, 62
3, 243600, Note_on_c, 0, 58, 0
3, 243600, Note_on_c, 0, 63, 62
3, 244320, Note_on_c, 0, 63, 0
3, 244560, Note_on_c, 0, 63, 62
3, 245040, Note_on_c, 0, 63, 0
3, 245040, Note_on_c, 0, 71, 62
3, 245760, Note_on_c, 0, 71, 0
3, 246000, Note_on_c, 0, 60, 62
3, 246480, Note_on_c, 0, 60, 0
3, 246480, Note_on_c, 0, 65, 62
3, 247200, Note_on_c, 0, 65, 0
3, 247440, Note_on_c, 0, 65, 62
3, 247920, Note_on_c, 0, 65, 0
3, 247920, Note_on_c, 0, 65, 62
3, 247920, Note_on_c, 0, 69, 62
3, 248640, Note_on_c, 0, 69, 0
3, 248640, Note_on_c, 0, 65, 0
3, 248880, Note_on_c, 0, 65, 62
3, 249360, Note_on_c, 0, 65, 0
3, 249360, Note_on_c, 0, 65, 62
3, 249360, Note_on_c, 0, 69, 62
3, 250080, Note_on_c, 0, 69, 0
3, 250080, Note_on_c, 0, 65, 0
3, 250320, Note_on_c, 0, 65, 62
3, 250800, Note_on_c, 0, 65, 0
3, 250800, Note_on_c, 0, 65, 62
3, 251520, Note_on_c, 0, 65, 0
3, 251520, Note_on_c, 0, 65, 62
3, 252240, Note_on_c, 0, 65, 0
3, 252240, Note_on_c, 0, 66, 49
3, 252720, Note_on_c, 0, 66, 0
3, 252720, Note_on_c, 0, 67, 49
3, 252960, Note_on_c, 0, 67, 0
3, 252960, Note_on_c, 0, 66, 49
3, 253440, Note_on_c, 0, 66, 0
3, 253440, Note_on_c, 0, 67, 49
3, 253680, Note_on_c, 0, 67, 0
3, 253680, Note_on_c, 0, 58, 49
3, 253680, Note_on_c, 0, 61, 49
3, 254400, Note_on_c, 0, 61, 0
3, 254400, Note_on_c, 0, 58, 0
3, 254400, Note_on_c, 0, 58, 49
3, 254400, Note_on_c, 0, 61, 49
3, 254880, Note_on_c, 0, 61, 0
3, 254880, Note_on_c, 0, 58, 0
3, 276720, Note_on_c, 0, 76, 49
3, 276960, Note_on_c, 0, 76, 0
3, 276960, Note_on_c, 0, 65, 49
3, 277200, Note_on_c, 0, 65, 0
3, 277200, Note_on_c, 0, 75, 49
3, 277440, Note_on_c, 0, 75, 0
3, 277440, Note_on_c, 0, 74, 49
3, 277680, Note_on_c, 0, 74, 0
3, 277680, Note_on_c, 0, 66, 49
3, 277920, Note_on_c, 0, 66, 0
3, 277920, Note_on_c, 0, 73, 49
3, 278160, Note_on_c, 0, 73, 0
3, 278160, Note_on_c, 0, 78, 49
3, 278400, Note_on_c, 0, 78, 0
3, 278400, Note_on_c, 0, 67, 49
3, 278640, Note_on_c, 0, 67, 0
3, 278640, Note_on_c, 0, 77, 49
3, 278880, Note_on_c, 0, 77, 0
3, 278880, Note_on_c, 0, 76, 49
3, 279120, Note_on_c, 0, 76, 0
3, 279120, Note_on_c, 0, 68, 49
3, 279360, Note_on_c, 0, 68, 0
3, 279360, Note_on_c, 0, 75, 49
3, 279600, Note_on_c, 0, 75, 0
3, 282480, Note_on_c, 0, 72, 49
3, 282720, Note_on_c, 0, 72, 0
3, 282720, Note_on_c, 0, 61, 49
3, 282960, Note_on_c, 0, 61, 0
3, 282960, Note_on_c, 0, 71, 49
3, 283200, Note_on_c, 0, 71, 0
3, 283200, Note_on_c, 0, 70, 49
3, 283440, Note_on_c, 0, 70, 0
3, 283440, Note_on_c, 0, 62, 49
3, 283680, Note_on_c, 0, 62, 0
3, 283680, Note_on_c, 0, 69, 49
3, 283920, Note_on_c, 0, 69, 0
3, 283920, Note_on_c, 0, 74, 49
3, 284160, Note_on_c, 0, 74, 0
3, 284160, Note_on_c, 0, 63, 49
3, 284400, Note_on_c, 0, 63, 0
3, 284400, Note_on_c, 0, 73, 49
3, 284640, Note_on_c, 0, 73, 0
3, 284640, Note_on_c, 0, 72, 49
3, 284880, Note_on_c, 0, 72, 0
3, 284880, Note_on_c, 0, 64, 49
3, 285120, Note_on_c, 0, 64, 0
3, 285120, Note_on_c, 0, 71, 49
3, 285360, Note_on_c, 0, 71, 0
3, 285360, End_track
4, 0, Start_track
4, 0, Title_t, "Grand Piano"
4, 0, Program_c, 0, 0
4, 0, Control_c, 0, 7, 115
4, 0, Control_c, 0, 10, 41
4, 0, Note_on_c, 0, 60, 49
4, 0, Note_on_c, 0, 63, 49
4, 360, Note_on_c, 0, 63, 0
4, 360, Note_on_c, 0, 60, 0
4, 360, Note_on_c, 0, 60, 49
4, 360, Note_on_c, 0, 63, 49
4, 480, Note_on_c, 0, 63, 0
4, 480, Note_on_c, 0, 60, 0
4, 480, Note_on_c, 0, 60, 49
4, 480, Note_on_c, 0, 63, 49
4, 527, Note_on_c, 0, 63, 0
4, 527, Note_on_c, 0, 60, 0
4, 720, Note_on_c, 0, 59, 49
4, 720, Note_on_c, 0, 63, 49
4, 767, Note_on_c, 0, 63, 0
4, 767, Note_on_c, 0, 59, 0
4, 960, Note_on_c, 0, 59, 49
4, 960, Note_on_c, 0, 63, 49
4, 1007, Note_on_c, 0, 63, 0
4, 1007, Note_on_c, 0, 59, 0
4, 1200, Note_on_c, 0, 59, 49
4, 1200, Note_on_c, 0, 63, 49
4, 1247, Note_on_c, 0, 63, 0
4, 1247, Note_on_c, 0, 59, 0
4, 1440, Note_on_c, 0, 58, 49
4, 1440, Note_on_c, 0, 65, 49
4, 1680, Note_on_c, 0, 65, 0
4, 1680, Note_on_c, 0, 58, 0
4, 1920, Note_on_c, 0, 58, 75
4, 1920, Note_on_c, 0, 64, 75
4, 2400, Note_on_c, 0, 64, 0
4, 2400, Note_on_c, 0, 58, 0
4, 2400, Note_on_c, 0, 58, 49
4, 2400, Note_on_c, 0, 63, 49
4, 2880, Note_on_c, 0, 63, 0
4, 2880, Note_on_c, 0, 58, 0
4, 2880, Note_on_c, 0, 58, 49
4, 2880, Note_on_c, 0, 63, 49
4, 3240, Note_on_c, 0, 63, 0
4, 3240, Note_on_c, 0, 58, 0
4, 3240, Note_on_c, 0, 58, 49
4, 3240, Note_on_c, 0, 63, 49
4, 3360, Note_on_c, 0, 63, 0
4, 3360, Note_on_c, 0, 58, 0
4, 3360, Note_on_c, 0, 58, 49
4, 3360, Note_on_c, 0, 63, 49
4, 3407, Note_on_c, 0, 63, 0
4, 3407, Note_on_c, 0, 58, 0
4, 3600, Note_on_c, 0, 54, 49
4, 3600, Note_on_c, 0, 57, 49
4, 3647, Note_on_c, 0, 57, 0
4, 3647, Note_on_c, 0, 54, 0
4, 3840, Note_on_c, 0, 54, 49
4, 3840, Note_on_c, 0, 58, 49
4, 3887, Note_on_c, 0, 58, 0
4, 3887, Note_on_c, 0, 54, 0
4, 4080, Note_on_c, 0, 54, 49
4, 4080, Note_on_c, 0, 60, 49
4, 4127, Note_on_c, 0, 60, 0
4, 4127, Note_on_c, 0, 54, 0
4, 4320, Note_on_c, 0, 46, 49
4, 4320, Note_on_c, 0, 54, 49
4, 4320, Note_on_c, 0, 60, 49
4, 4560, Note_on_c, 0, 60, 0
4, 4560, Note_on_c, 0, 54, 0
4, 4560, Note_on_c, 0, 46, 0
4, 4800, Note_on_c, 0, 46, 75
4, 4800, Note_on_c, 0, 54, 75
4, 4800, Note_on_c, 0, 57, 75
4, 5280, Note_on_c, 0, 57, 0
4, 5280, Note_on_c, 0, 54, 0
4, 5280, Note_on_c, 0, 46, 0
4, 5280, Note_on_c, 0, 46, 75
4, 5280, Note_on_c, 0, 53, 75
4, 5280, Note_on_c, 0, 58, 75
4, 5760, Note_on_c, 0, 58, 0
4, 5760, Note_on_c, 0, 53, 0
4, 5760, Note_on_c, 0, 46, 0
4, 5760, Note_on_c, 0, 52, 62
4, 5760, Note_on_c, 0, 58, 62
4, 6120, Note_on_c, 0, 58, 0
4, 6120, Note_on_c, 0, 52, 0
4, 6120, Note_on_c, 0, 52, 62
4, 6120, Note_on_c, 0, 58, 62
4, 6240, Note_on_c, 0, 58, 0
4, 6240, Note_on_c, 0, 52, 0
4, 6240, Note_on_c, 0, 52, 62
4, 6240, Note_on_c, 0, 58, 62
4, 6287, Note_on_c, 0, 58, 0
4, 6287, Note_on_c, 0, 52, 0
4, 6480, Note_on_c, 0, 51, 62
4, 6480, Note_on_c, 0, 58, 62
4, 6527, Note_on_c, 0, 58, 0
4, 6527, Note_on_c, 0, 51, 0
4, 6720, Note_on_c, 0, 51, 62
4, 6720, Note_on_c, 0, 56, 62
4, 6767, Note_on_c, 0, 56, 0
4, 6767, Note_on_c, 0, 51, 0
4, 6960, Note_on_c, 0, 51, 62
4, 6960, Note_on_c, 0, 55, 62
4, 7007, Note_on_c, 0, 55, 0
4, 7007, Note_on_c, 0, 51, 0
4, 7200, Note_on_c, 0, 49, 62
4, 7200, Note_on_c, 0, 51, 62
4, 7200, Note_on_c, 0, 61, 62
4, 7440, Note_on_c, 0, 61, 0
4, 7440, Note_on_c, 0, 51, 0
4, 7440, Note_on_c, 0, 49, 0
4, 7680, Note_on_c, 0, 49, 88
4, 7680, Note_on_c, 0, 51, 88
4, 7680, Note_on_c, 0, 61, 88
4, 8160, Note_on_c, 0, 61, 0
4, 8160, Note_on_c, 0, 51, 0
4, 8160, Note_on_c, 0, 49, 0
4, 8160, Note_on_c, 0, 48, 62
4, 8160, Note_on_c, 0, 51, 62
4, 8160, Note_on_c, 0, 60, 62
4, 8640, Note_on_c, 0, 60, 0
4, 8640, Note_on_c, 0, 51, 0
4, 8640, Note_on_c, 0, 48, 0
4, 8640, Note_on_c, 0, 47, 62
4, 8640, Note_on_c, 0, 51, 62
4, 8640, Note_on_c, 0, 59, 62
4, 8880, Note_on_c, 0, 59, 0
4, 8880, Note_on_c, 0, 51, 0
4, 8880, Note_on_c, 0, 47, 0
4, 9120, Note_on_c, 0, 47, 88
4, 9120, Note_on_c, 0, 51, 88
4, 9120, Note_on_c, 0, 59, 88
4, 9600, Note_on_c, 0, 59, 0
4, 9600, Note_on_c, 0, 51, 0
4, 9600, Note_on_c, 0, 47, 0
4, 9600, Note_on_c, 0, 46, 62
4, 9600, Note_on_c, 0, 51, 62
4, 9600, Note_on_c, 0, 58, 62
4, 10080, Note_on_c, 0, 58, 0
4, 10080, Note_on_c, 0, 51, 0
4, 10080, Note_on_c, 0, 46, 0
4, 10080, Note_on_c, 0, 44, 75
4, 10080, Note_on_c, 0, 46, 75
4, 10080, Note_on_c, 0, 56, 75
4, 10440, Note_on_c, 0, 56, 0
4, 10440, Note_on_c, 0, 46, 0
4, 10440, Note_on_c, 0, 44, 0
4, 10440, Note_on_c, 0, 43, 75
4, 10440, Note_on_c, 0, 46, 75
4, 10440, Note_on_c, 0, 55, 75
4, 10560, Note_on_c, 0, 55, 0
4, 10560, Note_on_c, 0, 46, 0
4, 10560, Note_on_c, 0, 43, 0
4, 10560, Note_on_c, 0, 41, 75
4, 10560, Note_on_c, 0, 46, 75
4, 10560, Note_on_c, 0, 53, 75
4, 10800, Note_on_c, 0, 53, 0
4, 10800, Note_on_c, 0, 46, 0
4, 10800, Note_on_c, 0, 41, 0
4, 10800, Note_on_c, 0, 39, 75
4, 10800, Note_on_c, 0, 46, 75
4, 10800, Note_on_c, 0, 51, 75
4, 11040, Note_on_c, 0, 51, 0
4, 11040, Note_on_c, 0, 46, 0
4, 11040, Note_on_c, 0, 39, 0
4, 11520, Note_on_c, 0, 60, 49
4, 11520, Note_on_c, 0, 63, 49
4, 11880, Note_on_c, 0, 63, 0
4, 11880, Note_on_c, 0, 60, 0
4, 11880, Note_on_c, 0, 60, 49
4, 11880, Note_on_c, 0, 63, 49
4, 12000, Note_on_c, 0, 63, 0
4, 12000, Note_on_c, 0, 60, 0
4, 12000, Note_on_c, 0, 60, 49
4, 12000, Note_on_c, 0, 63, 49
4, 12047, Note_on_c, 0, 63, 0
4, 12047, Note_on_c, 0, 60, 0
4, 12240, Note_on_c, 0, 59, 49
4, 12240, Note_on_c, 0, 63, 49
4, 12287, Note_on_c, 0, 63, 0
4, 12287, Note_on_c, 0, 59, 0
4, 12480, Note_on_c, 0, 59, 49
4, 12480, Note_on_c, 0, 63, 49
4, 12527, Note_on_c, 0, 63, 0
4, 12527, Note_on_c, 0, 59, 0
4, 12720, Note_on_c, 0, 59, 49
4, 12720, Note_on_c, 0, 63, 49
4, 12767, Note_on_c, 0, 63, 0
4, 12767, Note_on_c, 0, 59, 0
4, 12960, Note_on_c, 0, 58, 49
4, 12960, Note_on_c, 0, 65, 49
4, 13200, Note_on_c, 0, 65, 0
4, 13200, Note_on_c, 0, 58, 0
4, 13440, Note_on_c, 0, 58, 75
4, 13440, Note_on_c, 0, 64, 75
4, 13920, Note_on_c, 0, 64, 0
4, 13920, Note_on_c, 0, 58, 0
4, 13920, Note_on_c, 0, 58, 49
4, 13920, Note_on_c, 0, 63, 49
4, 14400, Note_on_c, 0, 63, 0
4, 14400, Note_on_c, 0, 58, 0
4, 14400, Note_on_c, 0, 58, 49
4, 14400, Note_on_c, 0, 63, 49
4, 14760, Note_on_c, 0, 63, 0
4, 14760, Note_on_c, 0, 58, 0
4, 14760, Note_on_c, 0, 58, 49
4, 14760, Note_on_c, 0, 63, 49
4, 14880, Note_on_c, 0, 63, 0
4, 14880, Note_on_c, 0, 58, 0
4, 14880, Note_on_c, 0, 58, 49
4, 14880, Note_on_c, 0, 63, 49
4, 14927, Note_on_c, 0, 63, 0
4, 14927, Note_on_c, 0, 58, 0
4, 15120, Note_on_c, 0, 54, 49
4, 15120, Note_on_c, 0, 57, 49
4, 15167, Note_on_c, 0, 57, 0
4, 15167, Note_on_c, 0, 54, 0
4, 15360, Note_on_c, 0, 54, 49
4, 15360, Note_on_c, 0, 58, 49
4, 15407, Note_on_c, 0, 58, 0
4, 15407, Note_on_c, 0, 54, 0
4, 15600, Note_on_c, 0, 54, 49
4, 15600, Note_on_c, 0, 60, 49
4, 15647, Note_on_c, 0, 60, 0
4, 15647, Note_on_c, 0, 54, 0
4, 15840, Note_on_c, 0, 46, 49
4, 15840, Note_on_c, 0, 54, 49
4, 15840, Note_on_c, 0, 60, 49
4, 16080, Note_on_c, 0, 60, 0
4, 16080, Note_on_c, 0, 54, 0
4, 16080, Note_on_c, 0, 46, 0
4, 16320, Note_on_c, 0, 46, 75
4, 16320, Note_on_c, 0, 54, 75
4, 16320, Note_on_c, 0, 57, 75
4, 16800, Note_on_c, 0, 57, 0
4, 16800, Note_on_c, 0, 54, 0
4, 16800, Note_on_c, 0, 46, 0
4, 16800, Note_on_c, 0, 46, 75
4, 16800, Note_on_c, 0, 53, 75
4, 16800, Note_on_c, 0, 58, 75
4, 17280, Note_on_c, 0, 58, 0
4, 17280, Note_on_c, 0, 53, 0
4, 17280, Note_on_c, 0, 46, 0
4, 17280, Note_on_c, 0, 52, 62
4, 17280, Note_on_c, 0, 58, 62
4, 17640, Note_on_c, 0, 58, 0
4, 17640, Note_on_c, 0, 52, 0
4, 17640, Note_on_c, 0, 52, 62
4, 17640, Note_on_c, 0, 58, 62
4, 17760, Note_on_c, 0, 58, 0
4, 17760, Note_on_c, 0, 52, 0
4, 17760, Note_on_c, 0, 52, 62
4, 17760, Note_on_c, 0, 58, 62
4, 17807, Note_on_c, 0, 58, 0
4, 17807, Note_on_c, 0, 52, 0
4, 18000, Note_on_c, 0, 51, 62
4, 18000, Note_on_c, 0, 58, 62
4, 18047, Note_on_c, 0, 58, 0
4, 18047, Note_on_c, 0, 51, 0
4, 18240, Note_on_c, 0, 51, 62
4, 18240, Note_on_c, 0, 56, 62
4, 18287, Note_on_c, 0, 56, 0
4, 18287, Note_on_c, 0, 51, 0
4, 18480, Note_on_c, 0, 51, 62
4, 18480, Note_on_c, 0, 55, 62
4, 18527, Note_on_c, 0, 55, 0
4, 18527, Note_on_c, 0, 51, 0
4, 18720, Note_on_c, 0, 54, 62
4, 18720, Note_on_c, 0, 60, 62
4, 19080, Note_on_c, 0, 60, 0
4, 19080, Note_on_c, 0, 54, 0
4, 19080, Note_on_c, 0, 54, 62
4, 19080, Note_on_c, 0, 60, 62
4, 19200, Note_on_c, 0, 60, 0
4, 19200, Note_on_c, 0, 54, 0
4, 19200, Note_on_c, 0, 54, 62
4, 19200, Note_on_c, 0, 60, 62
4, 19247, Note_on_c, 0, 60, 0
4, 19247, Note_on_c, 0, 54, 0
4, 19440, Note_on_c, 0, 53, 62
4, 19440, Note_on_c, 0, 60, 62
4, 19487, Note_on_c, 0, 60, 0
4, 19487, Note_on_c, 0, 53, 0
4, 19680, Note_on_c, 0, 53, 62
4, 19680, Note_on_c, 0, 58, 62
4, 19727, Note_on_c, 0, 58, 0
4, 19727, Note_on_c, 0, 53, 0
4, 19920, Note_on_c, 0, 53, 62
4, 19920, Note_on_c, 0, 57, 62
4, 19967, Note_on_c, 0, 57, 0
4, 19967, Note_on_c, 0, 53, 0
4, 20400, Note_on_c, 0, 45, 62
4, 20520, Note_on_c, 0, 45, 0
4, 20520, Note_on_c, 0, 53, 62
4, 20640, Note_on_c, 0, 53, 0
4, 20640, Note_on_c, 0, 60, 62
4, 20880, Note_on_c, 0, 60, 0
4, 21120, Note_on_c, 0, 46, 62
4, 21240, Note_on_c, 0, 46, 0
4, 21240, Note_on_c, 0, 54, 62
4, 21360, Note_on_c, 0, 54, 0
4, 21360, Note_on_c, 0, 61, 62
4, 21600, Note_on_c, 0, 61, 0
4, 21840, Note_on_c, 0, 47, 62
4, 21960, Note_on_c, 0, 47, 0
4, 21960, Note_on_c, 0, 55, 62
4, 22080, Note_on_c, 0, 55, 0
4, 22080, Note_on_c, 0, 62, 62
4, 22320, Note_on_c, 0, 62, 0
4, 22560, Note_on_c, 0, 48, 62
4, 22680, Note_on_c, 0, 48, 0
4, 22680, Note_on_c, 0, 56, 62
4, 22800, Note_on_c, 0, 56, 0
4, 22800, Note_on_c, 0, 63, 62
4, 23040, Note_on_c, 0, 63, 0
4, 23280, Note_on_c, 0, 53, 75
4, 23280, Note_on_c, 0, 56, 75
4, 23280, Note_on_c, 0, 65, 75
4, 23520, Note_on_c, 0, 65, 0
4, 23520, Note_on_c, 0, 56, 0
4, 23520, Note_on_c, 0, 53, 0
4, 23520, Note_on_c, 0, 52, 75
4, 23520, Note_on_c, 0, 56, 75
4, 23520, Note_on_c, 0, 64, 75
4, 23760, Note_on_c, 0, 64, 0
4, 23760, Note_on_c, 0, 56, 0
4, 23760, Note_on_c, 0, 52, 0
4, 23760, Note_on_c, 0, 51, 75
4, 23760, Note_on_c, 0, 56, 75
4, 23760, Note_on_c, 0, 63, 75
4, 24240, Note_on_c, 0, 63, 0
4, 24240, Note_on_c, 0, 56, 0
4, 24240, Note_on_c, 0, 51, 0
4, 24240, Note_on_c, 0, 48, 75
4, 24240, Note_on_c, 0, 56, 75
4, 24240, Note_on_c, 0, 60, 75
4, 24720, Note_on_c, 0, 60, 0
4, 24720, Note_on_c, 0, 56, 0
4, 24720, Note_on_c, 0, 48, 0
4, 24720, Note_on_c, 0, 47, 75
4, 24720, Note_on_c, 0, 51, 75
4, 24720, Note_on_c, 0, 59, 75
4, 24960, Note_on_c, 0, 59, 0
4, 24960, Note_on_c, 0, 51, 0
4, 24960, Note_on_c, 0, 47, 0
4, 24960, Note_on_c, 0, 46, 75
4, 24960, Note_on_c, 0, 51, 75
4, 24960, Note_on_c, 0, 58, 75
4, 25200, Note_on_c, 0, 58, 0
4, 25200, Note_on_c, 0, 51, 0
4, 25200, Note_on_c, 0, 46, 0
4, 25200, Note_on_c, 0, 44, 75
4, 25200, Note_on_c, 0, 51, 75
4, 25200, Note_on_c, 0, 56, 75
4, 25440, Note_on_c, 0, 56, 0
4, 25440, Note_on_c, 0, 51, 0
4, 25440, Note_on_c, 0, 44, 0
4, 25440, Note_on_c, 0, 44, 75
4, 25440, Note_on_c, 0, 56, 75
4, 25680, Note_on_c, 0, 56, 0
4, 25680, Note_on_c, 0, 44, 0
4, 25680, Note_on_c, 0, 46, 75
4, 25680, Note_on_c, 0, 58, 75
4, 25920, Note_on_c, 0, 58, 0
4, 25920, Note_on_c, 0, 46, 0
4, 25920, Note_on_c, 0, 48, 75
4, 25920, Note_on_c, 0, 60, 75
4, 26400, Note_on_c, 0, 60, 0
4, 26400, Note_on_c, 0, 48, 0
4, 26400, Note_on_c, 0, 46, 75
4, 26400, Note_on_c, 0, 48, 75
4, 26400, Note_on_c, 0, 58, 75
4, 26880, Note_on_c, 0, 58, 0
4, 26880, Note_on_c, 0, 48, 0
4, 26880, Note_on_c, 0, 46, 0
4, 26880, Note_on_c, 0, 44, 75
4, 26880, Note_on_c, 0, 48, 75
4, 26880, Note_on_c, 0, 56, 75
4, 27120, Note_on_c, 0, 56, 0
4, 27120, Note_on_c, 0, 48, 0
4, 27120, Note_on_c, 0, 44, 0
4, 27120, Note_on_c, 0, 43, 75
4, 27120, Note_on_c, 0, 48, 75
4, 27120, Note_on_c, 0, 55, 75
4, 27360, Note_on_c, 0, 55, 0
4, 27360, Note_on_c, 0, 48, 0
4, 27360, Note_on_c, 0, 43, 0
4, 27360, Note_on_c, 0, 41, 75
4, 27360, Note_on_c, 0, 48, 75
4, 27360, Note_on_c, 0, 53, 75
4, 27840, Note_on_c, 0, 53, 0
4, 27840, Note_on_c, 0, 48, 0
4, 27840, Note_on_c, 0, 41, 0
4, 27840, Note_on_c, 0, 40, 75
4, 27840, Note_on_c, 0, 48, 75
4, 27840, Note_on_c, 0, 52, 75
4, 28320, Note_on_c, 0, 52, 0
4, 28320, Note_on_c, 0, 48, 0
4, 28320, Note_on_c, 0, 40, 0
4, 28320, Note_on_c, 0, 44, 75
4, 28320, Note_on_c, 0, 56, 75
4, 28560, Note_on_c, 0, 56, 0
4, 28560, Note_on_c, 0, 44, 0
4, 28560, Note_on_c, 0, 46, 75
4, 28560, Note_on_c, 0, 58, 75
4, 28800, Note_on_c, 0, 58, 0
4, 28800, Note_on_c, 0, 46, 0
4, 28800, Note_on_c, 0, 48, 75
4, 28800, Note_on_c, 0, 60, 75
4, 29280, Note_on_c, 0, 60, 0
4, 29280, Note_on_c, 0, 48, 0
4, 29280, Note_on_c, 0, 46, 75
4, 29280, Note_on_c, 0, 48, 75
4, 29280, Note_on_c, 0, 58, 75
4, 29760, Note_on_c, 0, 58, 0
4, 29760, Note_on_c, 0, 48, 0
4, 29760, Note_on_c, 0, 46, 0
4, 29760, Note_on_c, 0, 44, 75
4, 29760, Note_on_c, 0, 48, 75
4, 29760, Note_on_c, 0, 56, 75
4, 30000, Note_on_c, 0, 56, 0
4, 30000, Note_on_c, 0, 48, 0
4, 30000, Note_on_c, 0, 44, 0
4, 30000, Note_on_c, 0, 43, 75
4, 30000, Note_on_c, 0, 48, 75
4, 30000, Note_on_c, 0, 55, 75
4, 30240, Note_on_c, 0, 55, 0
4, 30240, Note_on_c, 0, 48, 0
4, 30240, Note_on_c, 0, 43, 0
4, 30240, Note_on_c, 0, 41, 75
4, 30240, Note_on_c, 0, 48, 75
4, 30240, Note_on_c, 0, 53, 75
4, 30720, Note_on_c, 0, 53, 0
4, 30720, Note_on_c, 0, 48, 0
4, 30720, Note_on_c, 0, 41, 0
4, 30720, Note_on_c, 0, 40, 75
4, 30720, Note_on_c, 0, 48, 75
4, 30720, Note_on_c, 0, 52, 75
4, 31200, Note_on_c, 0, 52, 0
4, 31200, Note_on_c, 0, 48, 0
4, 31200, Note_on_c, 0, 40, 0
4, 31920, Note_on_c, 0, 42, 75
4, 31920, Note_on_c, 0, 52, 75
4, 31920, Note_on_c, 0, 54, 75
4, 32400, Note_on_c, 0, 54, 0
4, 32400, Note_on_c, 0, 52, 0
4, 32400, Note_on_c, 0, 42, 0
4, 32400, Note_on_c, 0, 44, 75
4, 32400, Note_on_c, 0, 52, 75
4, 32400, Note_on_c, 0, 56, 75
4, 32640, Note_on_c, 0, 56, 0
4, 32640, Note_on_c, 0, 52, 0
4, 32640, Note_on_c, 0, 44, 0
4, 32640, Note_on_c, 0, 45, 75
4, 32640, Note_on_c, 0, 52, 75
4, 32640, Note_on_c, 0, 57, 75
4, 32880, Note_on_c, 0, 57, 0
4, 32880, Note_on_c, 0, 52, 0
4, 32880, Note_on_c, 0, 45, 0
4, 32880, Note_on_c, 0, 47, 75
4, 32880, Note_on_c, 0, 52, 75
4, 32880, Note_on_c, 0, 59, 75
4, 33360, Note_on_c, 0, 59, 0
4, 33360, Note_on_c, 0, 52, 0
4, 33360, Note_on_c, 0, 47, 0
4, 33360, Note_on_c, 0, 48, 75
4, 33360, Note_on_c, 0, 52, 75
4, 33360, Note_on_c, 0, 60, 75
4, 33840, Note_on_c, 0, 60, 0
4, 33840, Note_on_c, 0, 52, 0
4, 33840, Note_on_c, 0, 48, 0
4, 33840, Note_on_c, 0, 47, 75
4, 33840, Note_on_c, 0, 52, 75
4, 33840, Note_on_c, 0, 59, 75
4, 34080, Note_on_c, 0, 59, 0
4, 34080, Note_on_c, 0, 52, 0
4, 34080, Note_on_c, 0, 47, 0
4, 34800, Note_on_c, 0, 42, 75
4, 34800, Note_on_c, 0, 52, 75
4, 34800, Note_on_c, 0, 54, 75
4, 35280, Note_on_c, 0, 54, 0
4, 35280, Note_on_c, 0, 52, 0
4, 35280, Note_on_c, 0, 42, 0
4, 35280, Note_on_c, 0, 44, 75
4, 35280, Note_on_c, 0, 52, 75
4, 35280, Note_on_c, 0, 56, 75
4, 35520, Note_on_c, 0, 56, 0
4, 35520, Note_on_c, 0, 52, 0
4, 35520, Note_on_c, 0, 44, 0
4, 35520, Note_on_c, 0, 45, 75
4, 35520, Note_on_c, 0, 52, 75
4, 35520, Note_on_c, 0, 57, 75
4, 35760, Note_on_c, 0, 57, 0
4, 35760, Note_on_c, 0, 52, 0
4, 35760, Note_on_c, 0, 45, 0
4, 35760, Note_on_c, 0, 47, 75
4, 35760, Note_on_c, 0, 52, 75
4, 35760, Note_on_c, 0, 59, 75
4, 36240, Note_on_c, 0, 59, 0
4, 36240, Note_on_c, 0, 52, 0
4, 36240, Note_on_c, 0, 47, 0
4, 36240, Note_on_c, 0, 48, 75
4, 36240, Note_on_c, 0, 52, 75
4, 36240, Note_on_c, 0, 60, 75
4, 36720, Note_on_c, 0, 60, 0
4, 36720, Note_on_c, 0, 52, 0
4, 36720, Note_on_c, 0, 48, 0
4, 36720, Note_on_c, 0, 47, 75
4, 36720, Note_on_c, 0, 52, 75
4, 36720, Note_on_c, 0, 59, 75
4, 36960, Note_on_c, 0, 59, 0
4, 36960, Note_on_c, 0, 52, 0
4, 36960, Note_on_c, 0, 47, 0
4, 36960, Note_on_c, 0, 52, 88
4, 36960, Note_on_c, 0, 64, 88
4, 37200, Note_on_c, 0, 64, 0
4, 37200, Note_on_c, 0, 52, 0
4, 37200, Note_on_c, 0, 54, 88
4, 37200, Note_on_c, 0, 66, 88
4, 37440, Note_on_c, 0, 66, 0
4, 37440, Note_on_c, 0, 54, 0
4, 37440, Note_on_c, 0, 56, 88
4, 37440, Note_on_c, 0, 68, 88
4, 37920, Note_on_c, 0, 68, 0
4, 37920, Note_on_c, 0, 56, 0
4, 37920, Note_on_c, 0, 54, 88
4, 37920, Note_on_c, 0, 56, 88
4, 37920, Note_on_c, 0, 66, 88
4, 38400, Note_on_c, 0, 66, 0
4, 38400, Note_on_c, 0, 56, 0
4, 38400, Note_on_c, 0, 54, 0
4, 38400, Note_on_c, 0, 52, 88
4, 38400, Note_on_c, 0, 56, 88
4, 38400, Note_on_c, 0, 64, 88
4, 38640, Note_on_c, 0, 64, 0
4, 38640, Note_on_c, 0, 56, 0
4, 38640, Note_on_c, 0, 52, 0
4, 38640, Note_on_c, 0, 51, 88
4, 38640, Note_on_c, 0, 56, 88
4, 38640, Note_on_c, 0, 63, 88
4, 38880, Note_on_c, 0, 63, 0
4, 38880, Note_on_c, 0, 56, 0
4, 38880, Note_on_c, 0, 51, 0
4, 38880, Note_on_c, 0, 49, 88
4, 38880, Note_on_c, 0, 56, 88
4, 38880, Note_on_c, 0, 61, 88
4, 39360, Note_on_c, 0, 61, 0
4, 39360, Note_on_c, 0, 56, 0
4, 39360, Note_on_c, 0, 49, 0
4, 39360, Note_on_c, 0, 48, 88
4, 39360, Note_on_c, 0, 56, 88
4, 39360, Note_on_c, 0, 60, 88
4, 39840, Note_on_c, 0, 60, 0
4, 39840, Note_on_c, 0, 56, 0
4, 39840, Note_on_c, 0, 48, 0
4, 40560, Note_on_c, 0, 46, 88
4, 40560, Note_on_c, 0, 56, 88
4, 40560, Note_on_c, 0, 58, 88
4, 41040, Note_on_c, 0, 58, 0
4, 41040, Note_on_c, 0, 56, 0
4, 41040, Note_on_c, 0, 46, 0
4, 41040, Note_on_c, 0, 48, 88
4, 41040, Note_on_c, 0, 56, 88
4, 41040, Note_on_c, 0, 60, 88
4, 41280, Note_on_c, 0, 60, 0
4, 41280, Note_on_c, 0, 56, 0
4, 41280, Note_on_c, 0, 48, 0
4, 41280, Note_on_c, 0, 49, 88
4, 41280, Note_on_c, 0, 56, 88
4, 41280, Note_on_c, 0, 61, 88
4, 41520, Note_on_c, 0, 61, 0
4, 41520, Note_on_c, 0, 56, 0
4, 41520, Note_on_c, 0, 49, 0
4, 41520, Note_on_c, 0, 51, 88
4, 41520, Note_on_c, 0, 56, 88
4, 41520, Note_on_c, 0, 63, 88
4, 42000, Note_on_c, 0, 63, 0
4, 42000, Note_on_c, 0, 56, 0
4, 42000, Note_on_c, 0, 51, 0
4, 42000, Note_on_c, 0, 52, 88
4, 42000, Note_on_c, 0, 56, 88
4, 42000, Note_on_c, 0, 64, 88
4, 42480, Note_on_c, 0, 64, 0
4, 42480, Note_on_c, 0, 56, 0
4, 42480, Note_on_c, 0, 52, 0
4, 42480, Note_on_c, 0, 51, 88
4, 42480, Note_on_c, 0, 56, 88
4, 42480, Note_on_c, 0, 63, 88
4, 42720, Note_on_c, 0, 63, 0
4, 42720, Note_on_c, 0, 56, 0
4, 42720, Note_on_c, 0, 51, 0
4, 43440, Note_on_c, 0, 46, 88
4, 43440, Note_on_c, 0, 56, 88
4, 43440, Note_on_c, 0, 58, 88
4, 43920, Note_on_c, 0, 58, 0
4, 43920, Note_on_c, 0, 56, 0
4, 43920, Note_on_c, 0, 46, 0
4, 43920, Note_on_c, 0, 48, 88
4, 43920, Note_on_c, 0, 56, 88
4, 43920, Note_on_c, 0, 60, 88
4, 44160, Note_on_c, 0, 60, 0
4, 44160, Note_on_c, 0, 56, 0
4, 44160, Note_on_c, 0, 48, 0
4, 44160, Note_on_c, 0, 49, 88
4, 44160, Note_on_c, 0, 56, 88
4, 44160, Note_on_c, 0, 61, 88
4, 44400, Note_on_c, 0, 61, 0
4, 44400, Note_on_c, 0, 56, 0
4, 44400, Note_on_c, 0, 49, 0
4, 44400, Note_on_c, 0, 51, 88
4, 44400, Note_on_c, 0, 56, 88
4, 44400, Note_on_c, 0, 63, 88
4, 44880, Note_on_c, 0, 63, 0
4, 44880, Note_on_c, 0, 56, 0
4, 44880, Note_on_c, 0, 51, 0
4, 44880, Note_on_c, 0, 52, 88
4, 44880, Note_on_c, 0, 56, 88
4, 44880, Note_on_c, 0, 64, 88
4, 45360, Note_on_c, 0, 64, 0
4, 45360, Note_on_c, 0, 56, 0
4, 45360, Note_on_c, 0, 52, 0
4, 45360, Note_on_c, 0, 51, 88
4, 45360, Note_on_c, 0, 56, 88
4, 45360, Note_on_c, 0, 63, 88
4, 45600, Note_on_c, 0, 63, 0
4, 45600, Note_on_c, 0, 56, 0
4, 45600, Note_on_c, 0, 51, 0
4, 46320, Note_on_c, 0, 55, 62
4, 46560, Note_on_c, 0, 55, 0
4, 46560, Note_on_c, 0, 56, 62
4, 46800, Note_on_c, 0, 56, 0
4, 46800, Note_on_c, 0, 58, 62
4, 47280, Note_on_c, 0, 58, 0
4, 47280, Note_on_c, 0, 60, 62
4, 47520, Note_on_c, 0, 60, 0
4, 47760, Note_on_c, 0, 50, 62
4, 48000, Note_on_c, 0, 50, 0
4, 48000, Note_on_c, 0, 51, 62
4, 48240, Note_on_c, 0, 51, 0
4, 48240, Note_on_c, 0, 52, 62
4, 48720, Note_on_c, 0, 52, 0
4, 48720, Note_on_c, 0, 53, 62
4, 48960, Note_on_c, 0, 53, 0
4, 49200, Note_on_c, 0, 55, 62
4, 49440, Note_on_c, 0, 55, 0
4, 49440, Note_on_c, 0, 56, 62
4, 49680, Note_on_c, 0, 56, 0
4, 49680, Note_on_c, 0, 58, 62
4, 50160, Note_on_c, 0, 58, 0
4, 50160, Note_on_c, 0, 60, 62
4, 50400, Note_on_c, 0, 60, 0
4, 50640, Note_on_c, 0, 50, 62
4, 50880, Note_on_c, 0, 50, 0
4, 50880, Note_on_c, 0, 51, 62
4, 51120, Note_on_c, 0, 51, 0
4, 51120, Note_on_c, 0, 52, 62
4, 51600, Note_on_c, 0, 52, 0
4, 51600, Note_on_c, 0, 54, 62
4, 51840, Note_on_c, 0, 54, 0
4, 52080, Note_on_c, 0, 55, 62
4, 52320, Note_on_c, 0, 55, 0
4, 52320, Note_on_c, 0, 57, 62
4, 52560, Note_on_c, 0, 57, 0
4, 52560, Note_on_c, 0, 59, 62
4, 53040, Note_on_c, 0, 59, 0
4, 53040, Note_on_c, 0, 60, 62
4, 53280, Note_on_c, 0, 60, 0
4, 53520, Note_on_c, 0, 50, 62
4, 53760, Note_on_c, 0, 50, 0
4, 53760, Note_on_c, 0, 51, 62
4, 54000, Note_on_c, 0, 51, 0
4, 54000, Note_on_c, 0, 53, 62
4, 54480, Note_on_c, 0, 53, 0
4, 54480, Note_on_c, 0, 54, 62
4, 54720, Note_on_c, 0, 54, 0
4, 54960, Note_on_c, 0, 55, 62
4, 55200, Note_on_c, 0, 55, 0
4, 55200, Note_on_c, 0, 57, 62
4, 55440, Note_on_c, 0, 57, 0
4, 55440, Note_on_c, 0, 59, 62
4, 55920, Note_on_c, 0, 59, 0
4, 55920, Note_on_c, 0, 60, 62
4, 56160, Note_on_c, 0, 60, 0
4, 56400, Note_on_c, 0, 50, 75
4, 56640, Note_on_c, 0, 50, 0
4, 56640, Note_on_c, 0, 51, 75
4, 56880, Note_on_c, 0, 51, 0
4, 56880, Note_on_c, 0, 52, 75
4, 57360, Note_on_c, 0, 52, 0
4, 57360, Note_on_c, 0, 53, 75
4, 57600, Note_on_c, 0, 53, 0
4, 57840, Note_on_c, 0, 52, 75
4, 58080, Note_on_c, 0, 52, 0
4, 58080, Note_on_c, 0, 53, 75
4, 58320, Note_on_c, 0, 53, 0
4, 58320, Note_on_c, 0, 54, 75
4, 58800, Note_on_c, 0, 54, 0
4, 58800, Note_on_c, 0, 55, 75
4, 59040, Note_on_c, 0, 55, 0
4, 59280, Note_on_c, 0, 57, 75
4, 59520, Note_on_c, 0, 57, 0
4, 59520, Note_on_c, 0, 58, 75
4, 59760, Note_on_c, 0, 58, 0
4, 59760, Note_on_c, 0, 55, 75
4, 60240, Note_on_c, 0, 55, 0
4, 60240, Note_on_c, 0, 56, 75
4, 60480, Note_on_c, 0, 56, 0
4, 60720, Note_on_c, 0, 54, 75
4, 60960, Note_on_c, 0, 54, 0
4, 60960, Note_on_c, 0, 55, 75
4, 61200, Note_on_c, 0, 55, 0
4, 61200, Note_on_c, 0, 56, 75
4, 61680, Note_on_c, 0, 56, 0
4, 61680, Note_on_c, 0, 57, 75
4, 61920, Note_on_c, 0, 57, 0
4, 62160, Note_on_c, 0, 59, 75
4, 62400, Note_on_c, 0, 59, 0
4, 62400, Note_on_c, 0, 60, 75
4, 62640, Note_on_c, 0, 60, 0
4, 62640, Note_on_c, 0, 57, 75
4, 63120, Note_on_c, 0, 57, 0
4, 63120, Note_on_c, 0, 58, 75
4, 63360, Note_on_c, 0, 58, 0
4, 63600, Note_on_c, 0, 59, 75
4, 63840, Note_on_c, 0, 59, 0
4, 63840, Note_on_c, 0, 60, 75
4, 64080, Note_on_c, 0, 60, 0
4, 64080, Note_on_c, 0, 57, 75
4, 64560, Note_on_c, 0, 57, 0
4, 64560, Note_on_c, 0, 58, 75
4, 64800, Note_on_c, 0, 58, 0
4, 65040, Note_on_c, 0, 59, 75
4, 65280, Note_on_c, 0, 59, 0
4, 65280, Note_on_c, 0, 60, 75
4, 65520, Note_on_c, 0, 60, 0
4, 65520, Note_on_c, 0, 57, 75
4, 66000, Note_on_c, 0, 57, 0
4, 66000, Note_on_c, 0, 58, 75
4, 66240, Note_on_c, 0, 58, 0
4, 66480, Note_on_c, 0, 51, 75
4, 66480, Note_on_c, 0, 53, 75
4, 66480, Note_on_c, 0, 63, 75
4, 66720, Note_on_c, 0, 63, 0
4, 66720, Note_on_c, 0, 53, 0
4, 66720, Note_on_c, 0, 51, 0
4, 66720, Note_on_c, 0, 49, 75
4, 66720, Note_on_c, 0, 53, 75
4, 66720, Note_on_c, 0, 61, 75
4, 66960, Note_on_c, 0, 61, 0
4, 66960, Note_on_c, 0, 53, 0
4, 66960, Note_on_c, 0, 49, 0
4, 67200, Note_on_c, 0, 51, 75
4, 67200, Note_on_c, 0, 53, 75
4, 67200, Note_on_c, 0, 63, 75
4, 67440, Note_on_c, 0, 63, 0
4, 67440, Note_on_c, 0, 53, 0
4, 67440, Note_on_c, 0, 51, 0
4, 67440, Note_on_c, 0, 49, 75
4, 67440, Note_on_c, 0, 53, 75
4, 67440, Note_on_c, 0, 61, 75
4, 67680, Note_on_c, 0, 61, 0
4, 67680, Note_on_c, 0, 53, 0
4, 67680, Note_on_c, 0, 49, 0
4, 67920, Note_on_c, 0, 45, 62
4, 67920, Note_on_c, 0, 57, 62
4, 68160, Note_on_c, 0, 57, 0
4, 68160, Note_on_c, 0, 45, 0
4, 68160, Note_on_c, 0, 46, 62
4, 68160, Note_on_c, 0, 58, 62
4, 68400, Note_on_c, 0, 58, 0
4, 68400, Note_on_c, 0, 46, 0
4, 68640, Note_on_c, 0, 45, 62
4, 68640, Note_on_c, 0, 57, 62
4, 68880, Note_on_c, 0, 57, 0
4, 68880, Note_on_c, 0, 45, 0
4, 68880, Note_on_c, 0, 46, 62
4, 68880, Note_on_c, 0, 58, 62
4, 69120, Note_on_c, 0, 58, 0
4, 69120, Note_on_c, 0, 46, 0
4, 69360, Note_on_c, 0, 44, 62
4, 69360, Note_on_c, 0, 56, 62
4, 69600, Note_on_c, 0, 56, 0
4, 69600, Note_on_c, 0, 44, 0
4, 69600, Note_on_c, 0, 43, 62
4, 69600, Note_on_c, 0, 55, 62
4, 69840, Note_on_c, 0, 55, 0
4, 69840, Note_on_c, 0, 43, 0
4, 70080, Note_on_c, 0, 44, 62
4, 70080, Note_on_c, 0, 56, 62
4, 70320, Note_on_c, 0, 56, 0
4, 70320, Note_on_c, 0, 44, 0
4, 70320, Note_on_c, 0, 43, 62
4, 70320, Note_on_c, 0, 55, 62
4, 70560, Note_on_c, 0, 55, 0
4, 70560, Note_on_c, 0, 43, 0
4, 70560, Note_on_c, 0, 38, 88
4, 70800, Note_on_c, 0, 38, 0
4, 70800, Note_on_c, 0, 39, 62
4, 71040, Note_on_c, 0, 39, 0
4, 71520, Note_on_c, 0, 62, 88
4, 71760, Note_on_c, 0, 62, 0
4, 71760, Note_on_c, 0, 63, 62
4, 72000, Note_on_c, 0, 63, 0
4, 72000, Note_on_c, 0, 60, 49
4, 72000, Note_on_c, 0, 63, 49
4, 72360, Note_on_c, 0, 63, 0
4, 72360, Note_on_c, 0, 60, 0
4, 72360, Note_on_c, 0, 60, 49
4, 72360, Note_on_c, 0, 63, 49
4, 72480, Note_on_c, 0, 63, 0
4, 72480, Note_on_c, 0, 60, 0
4, 72480, Note_on_c, 0, 60, 49
4, 72480, Note_on_c, 0, 63, 49
4, 72527, Note_on_c, 0, 63, 0
4, 72527, Note_on_c, 0, 60, 0
4, 72720, Note_on_c, 0, 59, 49
4, 72720, Note_on_c, 0, 63, 49
4, 72767, Note_on_c, 0, 63, 0
4, 72767, Note_on_c, 0, 59, 0
4, 72960, Note_on_c, 0, 59, 49
4, 72960, Note_on_c, 0, 63, 49
4, 73007, Note_on_c, 0, 63, 0
4, 73007, Note_on_c, 0, 59, 0
4, 73200, Note_on_c, 0, 59, 49
4, 73200, Note_on_c, 0, 63, 49
4, 73247, Note_on_c, 0, 63, 0
4, 73247, Note_on_c, 0, 59, 0
4, 73440, Note_on_c, 0, 58, 49
4, 73440, Note_on_c, 0, 65, 49
4, 73680, Note_on_c, 0, 65, 0
4, 73680, Note_on_c, 0, 58, 0
4, 73920, Note_on_c, 0, 58, 75
4, 73920, Note_on_c, 0, 64, 75
4, 74400, Note_on_c, 0, 64, 0
4, 74400, Note_on_c, 0, 58, 0
4, 74400, Note_on_c, 0, 58, 49
4, 74400, Note_on_c, 0, 63, 49
4, 74880, Note_on_c, 0, 63, 0
4, 74880, Note_on_c, 0, 58, 0
4, 74880, Note_on_c, 0, 58, 49
4, 74880, Note_on_c, 0, 63, 49
4, 75240, Note_on_c, 0, 63, 0
4, 75240, Note_on_c, 0, 58, 0
4, 75240, Note_on_c, 0, 58, 49
4, 75240, Note_on_c, 0, 63, 49
4, 75360, Note_on_c, 0, 63, 0
4, 75360, Note_on_c, 0, 58, 0
4, 75360, Note_on_c, 0, 58, 49
4, 75360, Note_on_c, 0, 63, 49
4, 75407, Note_on_c, 0, 63, 0
4, 75407, Note_on_c, 0, 58, 0
4, 75600, Note_on_c, 0, 54, 49
4, 75600, Note_on_c, 0, 57, 49
4, 75647, Note_on_c, 0, 57, 0
4, 75647, Note_on_c, 0, 54, 0
4, 75840, Note_on_c, 0, 54, 49
4, 75840, Note_on_c, 0, 58, 49
4, 75887, Note_on_c, 0, 58, 0
4, 75887, Note_on_c, 0, 54, 0
4, 76080, Note_on_c, 0, 54, 49
4, 76080, Note_on_c, 0, 60, 49
4, 76127, Note_on_c, 0, 60, 0
4, 76127, Note_on_c, 0, 54, 0
4, 76320, Note_on_c, 0, 46, 49
4, 76320, Note_on_c, 0, 54, 49
4, 76320, Note_on_c, 0, 60, 49
4, 76560, Note_on_c, 0, 60, 0
4, 76560, Note_on_c, 0, 54, 0
4, 76560, Note_on_c, 0, 46, 0
4, 76800, Note_on_c, 0, 46, 75
4, 76800, Note_on_c, 0, 54, 75
4, 76800, Note_on_c, 0, 57, 75
4, 77280, Note_on_c, 0, 57, 0
4, 77280, Note_on_c, 0, 54, 0
4, 77280, Note_on_c, 0, 46, 0
4, 77280, Note_on_c, 0, 46, 75
4, 77280, Note_on_c, 0, 53, 75
4, 77280, Note_on_c, 0, 58, 75
4, 77760, Note_on_c, 0, 58, 0
4, 77760, Note_on_c, 0, 53, 0
4, 77760, Note_on_c, 0, 46, 0
4, 77760, Note_on_c, 0, 52, 62
4, 77760, Note_on_c, 0, 58, 62
4, 78120, Note_on_c, 0, 58, 0
4, 78120, Note_on_c, 0, 52, 0
4, 78120, Note_on_c, 0, 52, 62
4, 78120, Note_on_c, 0, 58, 62
4, 78240, Note_on_c, 0, 58, 0
4, 78240, Note_on_c, 0, 52, 0
4, 78240, Note_on_c, 0, 52, 62
4, 78240, Note_on_c, 0, 58, 62
4, 78287, Note_on_c, 0, 58, 0
4, 78287, Note_on_c, 0, 52, 0
4, 78480, Note_on_c, 0, 51, 62
4, 78480, Note_on_c, 0, 58, 62
4, 78527, Note_on_c, 0, 58, 0
4, 78527, Note_on_c, 0, 51, 0
4, 78720, Note_on_c, 0, 51, 62
4, 78720, Note_on_c, 0, 56, 62
4, 78767, Note_on_c, 0, 56, 0
4, 78767, Note_on_c, 0, 51, 0
4, 78960, Note_on_c, 0, 51, 62
4, 78960, Note_on_c, 0, 55, 62
4, 79007, Note_on_c, 0, 55, 0
4, 79007, Note_on_c, 0, 51, 0
4, 79200, Note_on_c, 0, 49, 62
4, 79200, Note_on_c, 0, 51, 62
4, 79200, Note_on_c, 0, 61, 62
4, 79440, Note_on_c, 0, 61, 0
4, 79440, Note_on_c, 0, 51, 0
4, 79440, Note_on_c, 0, 49, 0
4, 79680, Note_on_c, 0, 49, 88
4, 79680, Note_on_c, 0, 51, 88
4, 79680, Note_on_c, 0, 61, 88
4, 80160, Note_on_c, 0, 61, 0
4, 80160, Note_on_c, 0, 51, 0
4, 80160, Note_on_c, 0, 49, 0
4, 80160, Note_on_c, 0, 48, 62
4, 80160, Note_on_c, 0, 51, 62
4, 80160, Note_on_c, 0, 60, 62
4, 80640, Note_on_c, 0, 60, 0
4, 80640, Note_on_c, 0, 51, 0
4, 80640, Note_on_c, 0, 48, 0
4, 80640, Note_on_c, 0, 47, 62
4, 80640, Note_on_c, 0, 51, 62
4, 80640, Note_on_c, 0, 59, 62
4, 80880, Note_on_c, 0, 59, 0
4, 80880, Note_on_c, 0, 51, 0
4, 80880, Note_on_c, 0, 47, 0
4, 81120, Note_on_c, 0, 47, 88
4, 81120, Note_on_c, 0, 51, 88
4, 81120, Note_on_c, 0, 59, 88
4, 81600, Note_on_c, 0, 59, 0
4, 81600, Note_on_c, 0, 51, 0
4, 81600, Note_on_c, 0, 47, 0
4, 81600, Note_on_c, 0, 46, 62
4, 81600, Note_on_c, 0, 51, 62
4, 81600, Note_on_c, 0, 58, 62
4, 82080, Note_on_c, 0, 58, 0
4, 82080, Note_on_c, 0, 51, 0
4, 82080, Note_on_c, 0, 46, 0
4, 82080, Note_on_c, 0, 44, 75
4, 82080, Note_on_c, 0, 46, 75
4, 82080, Note_on_c, 0, 56, 75
4, 82440, Note_on_c, 0, 56, 0
4, 82440, Note_on_c, 0, 46, 0
4, 82440, Note_on_c, 0, 44, 0
4, 82440, Note_on_c, 0, 43, 75
4, 82440, Note_on_c, 0, 46, 75
4, 82440, Note_on_c, 0, 55, 75
4, 82560, Note_on_c, 0, 55, 0
4, 82560, Note_on_c, 0, 46, 0
4, 82560, Note_on_c, 0, 43, 0
4, 82560, Note_on_c, 0, 41, 75
4, 82560, Note_on_c, 0, 46, 75
4, 82560, Note_on_c, 0, 53, 75
4, 82800, Note_on_c, 0, 53, 0
4, 82800, Note_on_c, 0, 46, 0
4, 82800, Note_on_c, 0, 41, 0
4, 82800, Note_on_c, 0, 39, 75
4, 82800, Note_on_c, 0, 46, 75
4, 82800, Note_on_c, 0, 51, 75
4, 83040, Note_on_c, 0, 51, 0
4, 83040, Note_on_c, 0, 46, 0
4, 83040, Note_on_c, 0, 39, 0
4, 83520, Note_on_c, 0, 60, 49
4, 83520, Note_on_c, 0, 63, 49
4, 83880, Note_on_c, 0, 63, 0
4, 83880, Note_on_c, 0, 60, 0
4, 83880, Note_on_c, 0, 60, 49
4, 83880, Note_on_c, 0, 63, 49
4, 84000, Note_on_c, 0, 63, 0
4, 84000, Note_on_c, 0, 60, 0
4, 84000, Note_on_c, 0, 60, 49
4, 84000, Note_on_c, 0, 63, 49
4, 84047, Note_on_c, 0, 63, 0
4, 84047, Note_on_c, 0, 60, 0
4, 84240, Note_on_c, 0, 59, 49
4, 84240, Note_on_c, 0, 63, 49
4, 84287, Note_on_c, 0, 63, 0
4, 84287, Note_on_c, 0, 59, 0
4, 84480, Note_on_c, 0, 59, 49
4, 84480, Note_on_c, 0, 63, 49
4, 84527, Note_on_c, 0, 63, 0
4, 84527, Note_on_c, 0, 59, 0
4, 84720, Note_on_c, 0, 59, 49
4, 84720, Note_on_c, 0, 63, 49
4, 84767, Note_on_c, 0, 63, 0
4, 84767, Note_on_c, 0, 59, 0
4, 84960, Note_on_c, 0, 58, 49
4, 84960, Note_on_c, 0, 65, 49
4, 85200, Note_on_c, 0, 65, 0
4, 85200, Note_on_c, 0, 58, 0
4, 85440, Note_on_c, 0, 58, 75
4, 85440, Note_on_c, 0, 64, 75
4, 85920, Note_on_c, 0, 64, 0
4, 85920, Note_on_c, 0, 58, 0
4, 85920, Note_on_c, 0, 58, 49
4, 85920, Note_on_c, 0, 63, 49
4, 86400, Note_on_c, 0, 63, 0
4, 86400, Note_on_c, 0, 58, 0
4, 86400, Note_on_c, 0, 58, 49
4, 86400, Note_on_c, 0, 63, 49
4, 86760, Note_on_c, 0, 63, 0
4, 86760, Note_on_c, 0, 58, 0
4, 86760, Note_on_c, 0, 58, 49
4, 86760, Note_on_c, 0, 63, 49
4, 86880, Note_on_c, 0, 63, 0
4, 86880, Note_on_c, 0, 58, 0
4, 86880, Note_on_c, 0, 58, 49
4, 86880, Note_on_c, 0, 63, 49
4, 86927, Note_on_c, 0, 63, 0
4, 86927, Note_on_c, 0, 58, 0
4, 87120, Note_on_c, 0, 54, 49
4, 87120, Note_on_c, 0, 57, 49
4, 87167, Note_on_c, 0, 57, 0
4, 87167, Note_on_c, 0, 54, 0
4, 87360, Note_on_c, 0, 54, 49
4, 87360, Note_on_c, 0, 58, 49
4, 87407, Note_on_c, 0, 58, 0
4, 87407, Note_on_c, 0, 54, 0
4, 87600, Note_on_c, 0, 54, 49
4, 87600, Note_on_c, 0, 60, 49
4, 87647, Note_on_c, 0, 60, 0
4, 87647, Note_on_c, 0, 54, 0
4, 87840, Note_on_c, 0, 46, 49
4, 87840, Note_on_c, 0, 54, 49
4, 87840, Note_on_c, 0, 60, 49
4, 88080, Note_on_c, 0, 60, 0
4, 88080, Note_on_c, 0, 54, 0
4, 88080, Note_on_c, 0, 46, 0
4, 88320, Note_on_c, 0, 46, 75
4, 88320, Note_on_c, 0, 54, 75
4, 88320, Note_on_c, 0, 57, 75
4, 88800, Note_on_c, 0, 57, 0
4, 88800, Note_on_c, 0, 54, 0
4, 88800, Note_on_c, 0, 46, 0
4, 88800, Note_on_c, 0, 46, 75
4, 88800, Note_on_c, 0, 53, 75
4, 88800, Note_on_c, 0, 58, 75
4, 89280, Note_on_c, 0, 58, 0
4, 89280, Note_on_c, 0, 53, 0
4, 89280, Note_on_c, 0, 46, 0
4, 89280, Note_on_c, 0, 52, 62
4, 89280, Note_on_c, 0, 58, 62
4, 89640, Note_on_c, 0, 58, 0
4, 89640, Note_on_c, 0, 52, 0
4, 89640, Note_on_c, 0, 52, 62
4, 89640, Note_on_c, 0, 58, 62
4, 89760, Note_on_c, 0, 58, 0
4, 89760, Note_on_c, 0, 52, 0
4, 89760, Note_on_c, 0, 52, 62
4, 89760, Note_on_c, 0, 58, 62
4, 89807, Note_on_c, 0, 58, 0
4, 89807, Note_on_c, 0, 52, 0
4, 90000, Note_on_c, 0, 51, 62
4, 90000, Note_on_c, 0, 58, 62
4, 90047, Note_on_c, 0, 58, 0
4, 90047, Note_on_c, 0, 51, 0
4, 90240, Note_on_c, 0, 51, 62
4, 90240, Note_on_c, 0, 56, 62
4, 90287, Note_on_c, 0, 56, 0
4, 90287, Note_on_c, 0, 51, 0
4, 90480, Note_on_c, 0, 51, 62
4, 90480, Note_on_c, 0, 55, 62
4, 90527, Note_on_c, 0, 55, 0
4, 90527, Note_on_c, 0, 51, 0
4, 90720, Note_on_c, 0, 54, 62
4, 90720, Note_on_c, 0, 60, 62
4, 91080, Note_on_c, 0, 60, 0
4, 91080, Note_on_c, 0, 54, 0
4, 91080, Note_on_c, 0, 54, 62
4, 91080, Note_on_c, 0, 60, 62
4, 91200, Note_on_c, 0, 60, 0
4, 91200, Note_on_c, 0, 54, 0
4, 91200, Note_on_c, 0, 54, 62
4, 91200, Note_on_c, 0, 60, 62
4, 91247, Note_on_c, 0, 60, 0
4, 91247, Note_on_c, 0, 54, 0
4, 91440, Note_on_c, 0, 53, 62
4, 91440, Note_on_c, 0, 60, 62
4, 91487, Note_on_c, 0, 60, 0
4, 91487, Note_on_c, 0, 53, 0
4, 91680, Note_on_c, 0, 53, 62
4, 91680, Note_on_c, 0, 58, 62
4, 91727, Note_on_c, 0, 58, 0
4, 91727, Note_on_c, 0, 53, 0
4, 91920, Note_on_c, 0, 53, 62
4, 91920, Note_on_c, 0, 57, 62
4, 91967, Note_on_c, 0, 57, 0
4, 91967, Note_on_c, 0, 53, 0
4, 92400, Note_on_c, 0, 45, 62
4, 92520, Note_on_c, 0, 45, 0
4, 92520, Note_on_c, 0, 53, 62
4, 92640, Note_on_c, 0, 53, 0
4, 92640, Note_on_c, 0, 60, 62
4, 92880, Note_on_c, 0, 60, 0
4, 93120, Note_on_c, 0, 46, 62
4, 93240, Note_on_c, 0, 46, 0
4, 93240, Note_on_c, 0, 54, 62
4, 93360, Note_on_c, 0, 54, 0
4, 93360, Note_on_c, 0, 61, 62
4, 93600, Note_on_c, 0, 61, 0
4, 93840, Note_on_c, 0, 47, 62
4, 93960, Note_on_c, 0, 47, 0
4, 93960, Note_on_c, 0, 55, 62
4, 94080, Note_on_c, 0, 55, 0
4, 94080, Note_on_c, 0, 62, 62
4, 94320, Note_on_c, 0, 62, 0
4, 94560, Note_on_c, 0, 48, 62
4, 94680, Note_on_c, 0, 48, 0
4, 94680, Note_on_c, 0, 56, 62
4, 94800, Note_on_c, 0, 56, 0
4, 94800, Note_on_c, 0, 63, 62
4, 95040, Note_on_c, 0, 63, 0
4, 95040, Note_on_c, 0, 56, 75
4, 95040, Note_on_c, 0, 68, 75
4, 95520, Note_on_c, 0, 68, 0
4, 95520, Note_on_c, 0, 56, 0
4, 95520, Note_on_c, 0, 54, 75
4, 95520, Note_on_c, 0, 56, 75
4, 95520, Note_on_c, 0, 66, 75
4, 95760, Note_on_c, 0, 66, 0
4, 95760, Note_on_c, 0, 56, 0
4, 95760, Note_on_c, 0, 54, 0
4, 95760, Note_on_c, 0, 53, 75
4, 95760, Note_on_c, 0, 56, 75
4, 95760, Note_on_c, 0, 65, 75
4, 96240, Note_on_c, 0, 65, 0
4, 96240, Note_on_c, 0, 56, 0
4, 96240, Note_on_c, 0, 53, 0
4, 96240, Note_on_c, 0, 52, 75
4, 96240, Note_on_c, 0, 56, 75
4, 96240, Note_on_c, 0, 64, 75
4, 96480, Note_on_c, 0, 64, 0
4, 96480, Note_on_c, 0, 56, 0
4, 96480, Note_on_c, 0, 52, 0
4, 96480, Note_on_c, 0, 51, 75
4, 96480, Note_on_c, 0, 56, 75
4, 96480, Note_on_c, 0, 63, 75
4, 96960, Note_on_c, 0, 63, 0
4, 96960, Note_on_c, 0, 56, 0
4, 96960, Note_on_c, 0, 51, 0
4, 96960, Note_on_c, 0, 50, 75
4, 96960, Note_on_c, 0, 56, 75
4, 96960, Note_on_c, 0, 62, 75
4, 97200, Note_on_c, 0, 62, 0
4, 97200, Note_on_c, 0, 56, 0
4, 97200, Note_on_c, 0, 50, 0
4, 97200, Note_on_c, 0, 49, 75
4, 97200, Note_on_c, 0, 56, 75
4, 97200, Note_on_c, 0, 61, 75
4, 97440, Note_on_c, 0, 61, 0
4, 97440, Note_on_c, 0, 56, 0
4, 97440, Note_on_c, 0, 49, 0
4, 97440, Note_on_c, 0, 46, 75
4, 97440, Note_on_c, 0, 58, 75
4, 97680, Note_on_c, 0, 58, 0
4, 97680, Note_on_c, 0, 46, 0
4, 97680, Note_on_c, 0, 44, 75
4, 97680, Note_on_c, 0, 56, 75
4, 97920, Note_on_c, 0, 56, 0
4, 97920, Note_on_c, 0, 44, 0
4, 103680, Note_on_c, 0, 39, 88
4, 103680, Note_on_c, 0, 51, 88
4, 104160, Note_on_c, 0, 51, 0
4, 104160, Note_on_c, 0, 39, 0
4, 104160, Note_on_c, 0, 51, 88
4, 104160, Note_on_c, 0, 63, 88
4, 104640, Note_on_c, 0, 63, 0
4, 104640, Note_on_c, 0, 51, 0
4, 104640, Note_on_c, 0, 42, 88
4, 104640, Note_on_c, 0, 54, 88
4, 104880, Note_on_c, 0, 54, 0
4, 104880, Note_on_c, 0, 42, 0
4, 104880, Note_on_c, 0, 40, 88
4, 104880, Note_on_c, 0, 52, 88
4, 105120, Note_on_c, 0, 52, 0
4, 105120, Note_on_c, 0, 40, 0
4, 105120, Note_on_c, 0, 39, 88
4, 105120, Note_on_c, 0, 51, 88
4, 105600, Note_on_c, 0, 51, 0
4, 105600, Note_on_c, 0, 39, 0
4, 105600, Note_on_c, 0, 51, 88
4, 105600, Note_on_c, 0, 63, 88
4, 106080, Note_on_c, 0, 63, 0
4, 106080, Note_on_c, 0, 51, 0
4, 106080, Note_on_c, 0, 42, 88
4, 106080, Note_on_c, 0, 54, 88
4, 106320, Note_on_c, 0, 54, 0
4, 106320, Note_on_c, 0, 42, 0
4, 106320, Note_on_c, 0, 40, 88
4, 106320, Note_on_c, 0, 52, 88
4, 106560, Note_on_c, 0, 52, 0
4, 106560, Note_on_c, 0, 40, 0
4, 106560, Note_on_c, 0, 39, 101
4, 106560, Note_on_c, 0, 51, 101
4, 107040, Note_on_c, 0, 51, 0
4, 107040, Note_on_c, 0, 39, 0
4, 107040, Note_on_c, 0, 51, 101
4, 107040, Note_on_c, 0, 63, 101
4, 107520, Note_on_c, 0, 63, 0
4, 107520, Note_on_c, 0, 51, 0
4, 107520, Note_on_c, 0, 39, 101
4, 107520, Note_on_c, 0, 51, 101
4, 108000, Note_on_c, 0, 51, 0
4, 108000, Note_on_c, 0, 39, 0
4, 108000, Note_on_c, 0, 51, 101
4, 108000, Note_on_c, 0, 63, 101
4, 108480, Note_on_c, 0, 63, 0
4, 108480, Note_on_c, 0, 51, 0
4, 108480, Note_on_c, 0, 39, 101
4, 108480, Note_on_c, 0, 51, 101
4, 108960, Note_on_c, 0, 51, 0
4, 108960, Note_on_c, 0, 39, 0
4, 108960, Note_on_c, 0, 51, 101
4, 108960, Note_on_c, 0, 63, 101
4, 109440, Note_on_c, 0, 63, 0
4, 109440, Note_on_c, 0, 51, 0
4, 109440, Note_on_c, 0, 49, 101
4, 109440, Note_on_c, 0, 61, 101
4, 109680, Note_on_c, 0, 61, 0
4, 109680, Note_on_c, 0, 49, 0
4, 109680, Note_on_c, 0, 48, 101
4, 109680, Note_on_c, 0, 51, 101
4, 109680, Note_on_c, 0, 60, 101
4, 110160, Note_on_c, 0, 60, 0
4, 110160, Note_on_c, 0, 51, 0
4, 110160, Note_on_c, 0, 48, 0
4, 110160, Note_on_c, 0, 47, 101
4, 110160, Note_on_c, 0, 51, 101
4, 110160, Note_on_c, 0, 59, 101
4, 110640, Note_on_c, 0, 59, 0
4, 110640, Note_on_c, 0, 51, 0
4, 110640, Note_on_c, 0, 47, 0
4, 110640, Note_on_c, 0, 46, 101
4, 110640, Note_on_c, 0, 51, 101
4, 110640, Note_on_c, 0, 58, 101
4, 111120, Note_on_c, 0, 58, 0
4, 111120, Note_on_c, 0, 51, 0
4, 111120, Note_on_c, 0, 46, 0
4, 111120, Note_on_c, 0, 44, 101
4, 111120, Note_on_c, 0, 51, 101
4, 111120, Note_on_c, 0, 56, 101
4, 111600, Note_on_c, 0, 56, 0
4, 111600, Note_on_c, 0, 51, 0
4, 111600, Note_on_c, 0, 44, 0
4, 111600, Note_on_c, 0, 43, 101
4, 111600, Note_on_c, 0, 51, 101
4, 111600, Note_on_c, 0, 55, 101
4, 112080, Note_on_c, 0, 55, 0
4, 112080, Note_on_c, 0, 51, 0
4, 112080, Note_on_c, 0, 43, 0
4, 112080, Note_on_c, 0, 42, 101
4, 112080, Note_on_c, 0, 51, 101
4, 112080, Note_on_c, 0, 54, 101
4, 112560, Note_on_c, 0, 54, 0
4, 112560, Note_on_c, 0, 51, 0
4, 112560, Note_on_c, 0, 42, 0
4, 112560, Note_on_c, 0, 41, 101
4, 112560, Note_on_c, 0, 53, 101
4, 113040, Note_on_c, 0, 53, 0
4, 113040, Note_on_c, 0, 41, 0
4, 113040, Note_on_c, 0, 39, 101
4, 113040, Note_on_c, 0, 51, 101
4, 113520, Note_on_c, 0, 51, 0
4, 113520, Note_on_c, 0, 39, 0
4, 113520, Note_on_c, 0, 37, 101
4, 113520, Note_on_c, 0, 39, 101
4, 113520, Note_on_c, 0, 49, 101
4, 114000, Note_on_c, 0, 49, 0
4, 114000, Note_on_c, 0, 39, 0
4, 114000, Note_on_c, 0, 37, 0
4, 114000, Note_on_c, 0, 36, 101
4, 114000, Note_on_c, 0, 39, 101
4, 114000, Note_on_c, 0, 48, 101
4, 114480, Note_on_c, 0, 48, 0
4, 114480, Note_on_c, 0, 39, 0
4, 114480, Note_on_c, 0, 36, 0
4, 114480, Note_on_c, 0, 35, 101
4, 114480, Note_on_c, 0, 39, 101
4, 114480, Note_on_c, 0, 47, 101
4, 114960, Note_on_c, 0, 47, 0
4, 114960, Note_on_c, 0, 39, 0
4, 114960, Note_on_c, 0, 35, 0
4, 114960, Note_on_c, 0, 34, 101
4, 114960, Note_on_c, 0, 39, 101
4, 114960, Note_on_c, 0, 46, 101
4, 115200, Note_on_c, 0, 46, 0
4, 115200, Note_on_c, 0, 39, 0
4, 115200, Note_on_c, 0, 34, 0
4, 115200, Note_on_c, 0, 32, 101
4, 115200, Note_on_c, 0, 39, 101
4, 115200, Note_on_c, 0, 44, 101
4, 115440, Note_on_c, 0, 44, 0
4, 115440, Note_on_c, 0, 39, 0
4, 115440, Note_on_c, 0, 32, 0
4, 115440, Note_on_c, 0, 60, 101
4, 116400, Note_on_c, 0, 60, 0
4, 116400, Note_on_c, 0, 60, 88
4, 117600, Note_on_c, 0, 60, 0
4, 117600, Note_on_c, 0, 60, 62
4, 117647, Note_on_c, 0, 60, 0
4, 117840, Note_on_c, 0, 60, 49
4, 117887, Note_on_c, 0, 60, 0
4, 118080, Note_on_c, 0, 53, 49
4, 118080, Note_on_c, 0, 60, 49
4, 118080, Note_on_c, 0, 65, 49
4, 118800, Note_on_c, 0, 65, 0
4, 118800, Note_on_c, 0, 60, 0
4, 118800, Note_on_c, 0, 53, 0
4, 118800, Note_on_c, 0, 53, 49
4, 118800, Note_on_c, 0, 60, 49
4, 118800, Note_on_c, 0, 67, 49
4, 119520, Note_on_c, 0, 67, 0
4, 119520, Note_on_c, 0, 60, 0
4, 119520, Note_on_c, 0, 53, 0
4, 119520, Note_on_c, 0, 53, 49
4, 119520, Note_on_c, 0, 60, 49
4, 119520, Note_on_c, 0, 65, 49
4, 119760, Note_on_c, 0, 65, 0
4, 119760, Note_on_c, 0, 60, 0
4, 119760, Note_on_c, 0, 53, 0
4, 119760, Note_on_c, 0, 63, 49
4, 120120, Note_on_c, 0, 63, 0
4, 120120, Note_on_c, 0, 61, 49
4, 120240, Note_on_c, 0, 61, 0
4, 120240, Note_on_c, 0, 60, 49
4, 120480, Note_on_c, 0, 60, 0
4, 120480, Note_on_c, 0, 56, 75
4, 120840, Note_on_c, 0, 56, 0
4, 120840, Note_on_c, 0, 55, 49
4, 120960, Note_on_c, 0, 55, 0
4, 120960, Note_on_c, 0, 53, 49
4, 121440, Note_on_c, 0, 53, 0
4, 121440, Note_on_c, 0, 53, 49
4, 121920, Note_on_c, 0, 53, 0
4, 121920, Note_on_c, 0, 55, 49
4, 122280, Note_on_c, 0, 55, 0
4, 122280, Note_on_c, 0, 53, 49
4, 122400, Note_on_c, 0, 53, 0
4, 122400, Note_on_c, 0, 53, 49
4, 122880, Note_on_c, 0, 53, 0
4, 122880, Note_on_c, 0, 52, 49
4, 123120, Note_on_c, 0, 52, 0
4, 123840, Note_on_c, 0, 53, 49
4, 123840, Note_on_c, 0, 60, 49
4, 123840, Note_on_c, 0, 65, 49
4, 124560, Note_on_c, 0, 65, 0
4, 124560, Note_on_c, 0, 60, 0
4, 124560, Note_on_c, 0, 53, 0
4, 124560, Note_on_c, 0, 53, 49
4, 124560, Note_on_c, 0, 60, 49
4, 124560, Note_on_c, 0, 67, 49
4, 125280, Note_on_c, 0, 67, 0
4, 125280, Note_on_c, 0, 60, 0
4, 125280, Note_on_c, 0, 53, 0
4, 125280, Note_on_c, 0, 53, 49
4, 125280, Note_on_c, 0, 60, 49
4, 125280, Note_on_c, 0, 65, 49
4, 125520, Note_on_c, 0, 65, 0
4, 125520, Note_on_c, 0, 60, 0
4, 125520, Note_on_c, 0, 53, 0
4, 125520, Note_on_c, 0, 63, 75
4, 125880, Note_on_c, 0, 63, 0
4, 125880, Note_on_c, 0, 61, 49
4, 126000, Note_on_c, 0, 61, 0
4, 126000, Note_on_c, 0, 60, 49
4, 126240, Note_on_c, 0, 60, 0
4, 126240, Note_on_c, 0, 58, 49
4, 126720, Note_on_c, 0, 58, 0
4, 126720, Note_on_c, 0, 56, 49
4, 126960, Note_on_c, 0, 56, 0
4, 126960, Note_on_c, 0, 60, 49
4, 127320, Note_on_c, 0, 60, 0
4, 127320, Note_on_c, 0, 58, 49
4, 127440, Note_on_c, 0, 58, 0
4, 127440, Note_on_c, 0, 56, 49
4, 127680, Note_on_c, 0, 56, 0
4, 127680, Note_on_c, 0, 55, 49
4, 128160, Note_on_c, 0, 55, 0
4, 128160, Note_on_c, 0, 53, 49
4, 128640, Note_on_c, 0, 53, 0
4, 128640, Note_on_c, 0, 53, 49
4, 129120, Note_on_c, 0, 53, 0
4, 129120, Note_on_c, 0, 53, 49
4, 129480, Note_on_c, 0, 53, 0
4, 129480, Note_on_c, 0, 49, 49
4, 129600, Note_on_c, 0, 49, 0
4, 129600, Note_on_c, 0, 49, 49
4, 129840, Note_on_c, 0, 49, 0
4, 129840, Note_on_c, 0, 48, 49
4, 130320, Note_on_c, 0, 48, 0
4, 131040, Note_on_c, 0, 49, 49
4, 131040, Note_on_c, 0, 51, 49
4, 131760, Note_on_c, 0, 51, 0
4, 131760, Note_on_c, 0, 49, 0
4, 131760, Note_on_c, 0, 51, 49
4, 132480, Note_on_c, 0, 51, 0
4, 132480, Note_on_c, 0, 51, 49
4, 132720, Note_on_c, 0, 51, 0
4, 133440, Note_on_c, 0, 68, 49
4, 133800, Note_on_c, 0, 68, 0
4, 133800, Note_on_c, 0, 70, 49
4, 133920, Note_on_c, 0, 70, 0
4, 133920, Note_on_c, 0, 67, 49
4, 134160, Note_on_c, 0, 67, 0
4, 134880, Note_on_c, 0, 56, 49
4, 135240, Note_on_c, 0, 56, 0
4, 135240, Note_on_c, 0, 58, 49
4, 135360, Note_on_c, 0, 58, 0
4, 135360, Note_on_c, 0, 55, 49
4, 135600, Note_on_c, 0, 55, 0
4, 135600, Note_on_c, 0, 47, 75
4, 135960, Note_on_c, 0, 47, 0
4, 135960, Note_on_c, 0, 46, 49
4, 136080, Note_on_c, 0, 46, 0
4, 136080, Note_on_c, 0, 39, 49
4, 136320, Note_on_c, 0, 39, 0
4, 136800, Note_on_c, 0, 55, 49
4, 137280, Note_on_c, 0, 55, 0
4, 137280, Note_on_c, 0, 58, 49
4, 137520, Note_on_c, 0, 58, 0
4, 137520, Note_on_c, 0, 56, 49
4, 138000, Note_on_c, 0, 56, 0
4, 138000, Note_on_c, 0, 62, 49
4, 138240, Note_on_c, 0, 62, 0
4, 138240, Note_on_c, 0, 63, 49
4, 138480, Note_on_c, 0, 63, 0
4, 139200, Note_on_c, 0, 67, 49
4, 139560, Note_on_c, 0, 67, 0
4, 139560, Note_on_c, 0, 65, 49
4, 139680, Note_on_c, 0, 65, 0
4, 139680, Note_on_c, 0, 64, 49
4, 139920, Note_on_c, 0, 64, 0
4, 140640, Note_on_c, 0, 61, 49
4, 141000, Note_on_c, 0, 61, 0
4, 141000, Note_on_c, 0, 59, 49
4, 141120, Note_on_c, 0, 59, 0
4, 141120, Note_on_c, 0, 60, 49
4, 141360, Note_on_c, 0, 60, 0
4, 141360, Note_on_c, 0, 49, 49
4, 141720, Note_on_c, 0, 49, 0
4, 141720, Note_on_c, 0, 47, 49
4, 141840, Note_on_c, 0, 47, 0
4, 141840, Note_on_c, 0, 48, 49
4, 142080, Note_on_c, 0, 48, 0
4, 142080, Note_on_c, 0, 60, 49
4, 142127, Note_on_c, 0, 60, 0
4, 142320, Note_on_c, 0, 60, 49
4, 142367, Note_on_c, 0, 60, 0
4, 142560, Note_on_c, 0, 68, 62
4, 143040, Note_on_c, 0, 68, 0
4, 143040, Note_on_c, 0, 65, 62
4, 143280, Note_on_c, 0, 65, 0
4, 143280, Note_on_c, 0, 64, 62
4, 143760, Note_on_c, 0, 64, 0
4, 143760, Note_on_c, 0, 67, 62
4, 144000, Note_on_c, 0, 67, 0
4, 144000, Note_on_c, 0, 60, 62
4, 144240, Note_on_c, 0, 60, 0
4, 144240, Note_on_c, 0, 75, 88
4, 144600, Note_on_c, 0, 75, 0
4, 144600, Note_on_c, 0, 73, 62
4, 144720, Note_on_c, 0, 73, 0
4, 144720, Note_on_c, 0, 72, 62
4, 144960, Note_on_c, 0, 72, 0
4, 144960, Control_c, 0, 64, 127
4, 144960, Note_on_c, 0, 60, 62
4, 145080, Note_on_c, 0, 60, 0
4, 145080, Note_on_c, 0, 64, 62
4, 145200, Note_on_c, 0, 64, 0
4, 145200, Note_on_c, 0, 58, 62
4, 145320, Note_on_c, 0, 58, 0
4, 145320, Note_on_c, 0, 64, 62
4, 145440, Note_on_c, 0, 64, 0
4, 145440, Control_c, 0, 64, 0
4, 145440, Note_on_c, 0, 56, 62
4, 145680, Note_on_c, 0, 56, 0
4, 145920, Note_on_c, 0, 56, 88
4, 146400, Note_on_c, 0, 56, 0
4, 146400, Note_on_c, 0, 52, 88
4, 146760, Note_on_c, 0, 52, 0
4, 146760, Note_on_c, 0, 53, 62
4, 146880, Note_on_c, 0, 53, 0
4, 146880, Note_on_c, 0, 56, 62
4, 147360, Note_on_c, 0, 56, 0
4, 147360, Note_on_c, 0, 55, 62
4, 147600, Note_on_c, 0, 55, 0
4, 147840, Note_on_c, 0, 60, 62
4, 147887, Note_on_c, 0, 60, 0
4, 148080, Note_on_c, 0, 60, 62
4, 148127, Note_on_c, 0, 60, 0
4, 148320, Note_on_c, 0, 68, 62
4, 148800, Note_on_c, 0, 68, 0
4, 148800, Note_on_c, 0, 65, 62
4, 149040, Note_on_c, 0, 65, 0
4, 149040, Note_on_c, 0, 64, 62
4, 149520, Note_on_c, 0, 64, 0
4, 149520, Note_on_c, 0, 67, 62
4, 149760, Note_on_c, 0, 67, 0
4, 149760, Note_on_c, 0, 60, 62
4, 150000, Note_on_c, 0, 60, 0
4, 150000, Note_on_c, 0, 75, 88
4, 150360, Note_on_c, 0, 75, 0
4, 150360, Note_on_c, 0, 73, 62
4, 150480, Note_on_c, 0, 73, 0
4, 150480, Note_on_c, 0, 72, 62
4, 150720, Note_on_c, 0, 72, 0
4, 150720, Control_c, 0, 64, 127
4, 150720, Note_on_c, 0, 58, 62
4, 150840, Note_on_c, 0, 58, 0
4, 150840, Note_on_c, 0, 59, 62
4, 150960, Note_on_c, 0, 59, 0
4, 150960, Note_on_c, 0, 60, 62
4, 151080, Note_on_c, 0, 60, 0
4, 151080, Control_c, 0, 64, 0
4, 151080, Note_on_c, 0, 61, 62
4, 151200, Note_on_c, 0, 61, 0
4, 151200, Note_on_c, 0, 62, 62
4, 151320, Note_on_c, 0, 62, 0
4, 151320, Note_on_c, 0, 63, 62
4, 151440, Note_on_c, 0, 63, 0
4, 151440, Note_on_c, 0, 72, 62
4, 151800, Note_on_c, 0, 72, 0
4, 151800, Note_on_c, 0, 70, 62
4, 151920, Note_on_c, 0, 70, 0
4, 151920, Note_on_c, 0, 68, 62
4, 152160, Note_on_c, 0, 68, 0
4, 152160, Control_c, 0, 64, 127
4, 152160, Note_on_c, 0, 55, 62
4, 152280, Note_on_c, 0, 55, 0
4, 152280, Note_on_c, 0, 56, 62
4, 152400, Note_on_c, 0, 56, 0
4, 152400, Note_on_c, 0, 57, 62
4, 152520, Note_on_c, 0, 57, 0
4, 152520, Control_c, 0, 64, 0
4, 152520, Note_on_c, 0, 58, 62
4, 152640, Note_on_c, 0, 58, 0
4, 152640, Note_on_c, 0, 59, 62
4, 152760, Note_on_c, 0, 59, 0
4, 152760, Note_on_c, 0, 60, 62
4, 152880, Note_on_c, 0, 60, 0
4, 152880, Note_on_c, 0, 53, 49
4, 153360, Note_on_c, 0, 53, 0
4, 153360, Note_on_c, 0, 55, 49
4, 153840, Note_on_c, 0, 55, 0
4, 153840, Note_on_c, 0, 56, 49
4, 154320, Note_on_c, 0, 56, 0
4, 154320, Note_on_c, 0, 56, 49
4, 154800, Note_on_c, 0, 56, 0
4, 154800, Note_on_c, 0, 56, 49
4, 155280, Note_on_c, 0, 56, 0
4, 155280, Note_on_c, 0, 56, 49
4, 155760, Note_on_c, 0, 56, 0
4, 155760, Note_on_c, 0, 53, 49
4, 156240, Note_on_c, 0, 53, 0
4, 156240, Note_on_c, 0, 55, 49
4, 156720, Note_on_c, 0, 55, 0
4, 156720, Note_on_c, 0, 56, 49
4, 157200, Note_on_c, 0, 56, 0
4, 157200, Note_on_c, 0, 56, 49
4, 157680, Note_on_c, 0, 56, 0
4, 157680, Note_on_c, 0, 56, 49
4, 158160, Note_on_c, 0, 56, 0
4, 158160, Note_on_c, 0, 56, 49
4, 158640, Note_on_c, 0, 56, 0
4, 158640, Note_on_c, 0, 61, 49
4, 158640, Note_on_c, 0, 63, 49
4, 159120, Note_on_c, 0, 63, 0
4, 159120, Note_on_c, 0, 61, 0
4, 159120, Note_on_c, 0, 61, 49
4, 159120, Note_on_c, 0, 63, 49
4, 159600, Note_on_c, 0, 63, 0
4, 159600, Note_on_c, 0, 61, 0
4, 159600, Note_on_c, 0, 61, 49
4, 159600, Note_on_c, 0, 63, 49
4, 160080, Note_on_c, 0, 63, 0
4, 160080, Note_on_c, 0, 61, 0
4, 160080, Note_on_c, 0, 61, 49
4, 160080, Note_on_c, 0, 63, 49
4, 160560, Note_on_c, 0, 63, 0
4, 160560, Note_on_c, 0, 61, 0
4, 160560, Note_on_c, 0, 61, 49
4, 161040, Note_on_c, 0, 61, 0
4, 161040, Note_on_c, 0, 61, 49
4, 161520, Note_on_c, 0, 63, 49
4, 162000, Note_on_c, 0, 63, 0
4, 162000, Note_on_c, 0, 61, 0
4, 162000, Note_on_c, 0, 61, 49
4, 162000, Note_on_c, 0, 63, 49
4, 162480, Note_on_c, 0, 63, 0
4, 162480, Note_on_c, 0, 61, 0
4, 162480, Note_on_c, 0, 61, 49
4, 162480, Note_on_c, 0, 63, 49
4, 162960, Note_on_c, 0, 63, 0
4, 162960, Note_on_c, 0, 61, 0
4, 162960, Note_on_c, 0, 61, 49
4, 162960, Note_on_c, 0, 63, 49
4, 163440, Note_on_c, 0, 63, 0
4, 163440, Note_on_c, 0, 61, 0
4, 163440, Note_on_c, 0, 61, 49
4, 163920, Note_on_c, 0, 61, 0
4, 163920, Note_on_c, 0, 61, 49
4, 164160, Note_on_c, 0, 61, 0
4, 164160, Note_on_c, 0, 51, 49
4, 164400, Note_on_c, 0, 51, 0
4, 164400, Note_on_c, 0, 56, 49
4, 164400, Note_on_c, 0, 61, 49
4, 164880, Note_on_c, 0, 61, 0
4, 164880, Note_on_c, 0, 56, 0
4, 164880, Note_on_c, 0, 57, 49
4, 164880, Note_on_c, 0, 61, 49
4, 165360, Note_on_c, 0, 61, 0
4, 165360, Note_on_c, 0, 57, 0
4, 165360, Note_on_c, 0, 58, 49
4, 165360, Note_on_c, 0, 61, 49
4, 165600, Note_on_c, 0, 61, 0
4, 165600, Note_on_c, 0, 58, 0
4, 165600, Note_on_c, 0, 51, 49
4, 165840, Note_on_c, 0, 51, 0
4, 165840, Note_on_c, 0, 56, 49
4, 165840, Note_on_c, 0, 61, 49
4, 166320, Note_on_c, 0, 61, 0
4, 166320, Note_on_c, 0, 56, 0
4, 166320, Note_on_c, 0, 57, 49
4, 166320, Note_on_c, 0, 61, 49
4, 166800, Note_on_c, 0, 61, 0
4, 166800, Note_on_c, 0, 57, 0
4, 166800, Note_on_c, 0, 58, 49
4, 166800, Note_on_c, 0, 61, 49
4, 167040, Note_on_c, 0, 61, 0
4, 167040, Note_on_c, 0, 58, 0
4, 167040, Note_on_c, 0, 51, 49
4, 167280, Note_on_c, 0, 51, 0
4, 167280, Note_on_c, 0, 61, 49
4, 167280, Note_on_c, 0, 63, 49
4, 167760, Note_on_c, 0, 63, 0
4, 167760, Note_on_c, 0, 61, 0
4, 167760, Note_on_c, 0, 57, 49
4, 167760, Note_on_c, 0, 63, 49
4, 168240, Note_on_c, 0, 63, 0
4, 168240, Note_on_c, 0, 57, 0
4, 168240, Note_on_c, 0, 58, 49
4, 168240, Note_on_c, 0, 63, 49
4, 168480, Note_on_c, 0, 63, 0
4, 168480, Note_on_c, 0, 58, 0
4, 168480, Note_on_c, 0, 51, 49
4, 168720, Note_on_c, 0, 51, 0
4, 168720, Note_on_c, 0, 61, 49
4, 168720, Note_on_c, 0, 63, 49
4, 169200, Note_on_c, 0, 63, 0
4, 169200, Note_on_c, 0, 61, 0
4, 169200, Note_on_c, 0, 57, 49
4, 169200, Note_on_c, 0, 63, 49
4, 169680, Note_on_c, 0, 63, 0
4, 169680, Note_on_c, 0, 57, 0
4, 169680, Note_on_c, 0, 58, 49
4, 169680, Note_on_c, 0, 63, 49
4, 169920, Note_on_c, 0, 63, 0
4, 169920, Note_on_c, 0, 58, 0
4, 169920, Note_on_c, 0, 51, 75
4, 170160, Note_on_c, 0, 51, 0
4, 170160, Note_on_c, 0, 61, 75
4, 170160, Note_on_c, 0, 73, 75
4, 170207, Note_on_c, 0, 73, 0
4, 170207, Note_on_c, 0, 61, 0
4, 170400, Note_on_c, 0, 57, 75
4, 170400, Note_on_c, 0, 69, 75
4, 170447, Note_on_c, 0, 69, 0
4, 170447, Note_on_c, 0, 57, 0
4, 170640, Note_on_c, 0, 58, 75
4, 170640, Note_on_c, 0, 70, 75
4, 170687, Note_on_c, 0, 70, 0
4, 170687, Note_on_c, 0, 58, 0
4, 170880, Note_on_c, 0, 54, 75
4, 170880, Note_on_c, 0, 66, 75
4, 170927, Note_on_c, 0, 66, 0
4, 170927, Note_on_c, 0, 54, 0
4, 171120, Note_on_c, 0, 55, 75
4, 171120, Note_on_c, 0, 67, 75
4, 171167, Note_on_c, 0, 67, 0
4, 171167, Note_on_c, 0, 55, 0
4, 171360, Note_on_c, 0, 50, 75
4, 171360, Note_on_c, 0, 62, 75
4, 171407, Note_on_c, 0, 62, 0
4, 171407, Note_on_c, 0, 50, 0
4, 171600, Note_on_c, 0, 51, 75
4, 171600, Note_on_c, 0, 63, 75
4, 171647, Note_on_c, 0, 63, 0
4, 171647, Note_on_c, 0, 51, 0
4, 171840, Note_on_c, 0, 48, 75
4, 171840, Note_on_c, 0, 60, 75
4, 171887, Note_on_c, 0, 60, 0
4, 171887, Note_on_c, 0, 48, 0
4, 172080, Note_on_c, 0, 49, 75
4, 172080, Note_on_c, 0, 61, 75
4, 172127, Note_on_c, 0, 61, 0
4, 172127, Note_on_c, 0, 49, 0
4, 172320, Note_on_c, 0, 45, 75
4, 172320, Note_on_c, 0, 57, 75
4, 172367, Note_on_c, 0, 57, 0
4, 172367, Note_on_c, 0, 45, 0
4, 172560, Note_on_c, 0, 46, 75
4, 172560, Note_on_c, 0, 58, 75
4, 172607, Note_on_c, 0, 58, 0
4, 172607, Note_on_c, 0, 46, 0
4, 172800, Note_on_c, 0, 42, 75
4, 172800, Note_on_c, 0, 54, 75
4, 173040, Note_on_c, 0, 54, 0
4, 173040, Note_on_c, 0, 42, 0
4, 173040, Note_on_c, 0, 43, 75
4, 173040, Note_on_c, 0, 55, 75
4, 173280, Note_on_c, 0, 55, 0
4, 173280, Note_on_c, 0, 43, 0
4, 173280, Note_on_c, 0, 38, 75
4, 173280, Note_on_c, 0, 50, 75
4, 173520, Note_on_c, 0, 50, 0
4, 173520, Note_on_c, 0, 38, 0
4, 173520, Note_on_c, 0, 39, 101
4, 173520, Note_on_c, 0, 51, 101
4, 174000, Note_on_c, 0, 51, 0
4, 174000, Note_on_c, 0, 39, 0
4, 174000, Control_c, 0, 64, 127
4, 174000, Note_on_c, 0, 39, 101
4, 174060, Note_on_c, 0, 39, 0
4, 174060, Note_on_c, 0, 43, 101
4, 174120, Note_on_c, 0, 43, 0
4, 174120, Note_on_c, 0, 46, 101
4, 174180, Note_on_c, 0, 46, 0
4, 174180, Note_on_c, 0, 49, 101
4, 174240, Note_on_c, 0, 49, 0
4, 174240, Note_on_c, 0, 51, 101
4, 174300, Note_on_c, 0, 51, 0
4, 174300, Note_on_c, 0, 55, 101
4, 174360, Note_on_c, 0, 55, 0
4, 174360, Note_on_c, 0, 58, 101
4, 174420, Note_on_c, 0, 58, 0
4, 174420, Note_on_c, 0, 61, 101
4, 174480, Note_on_c, 0, 61, 0
4, 174720, Note_on_c, 0, 43, 101
4, 174780, Note_on_c, 0, 43, 0
4, 174780, Note_on_c, 0, 46, 101
4, 174840, Note_on_c, 0, 46, 0
4, 174840, Note_on_c, 0, 49, 101
4, 174900, Note_on_c, 0, 49, 0
4, 174900, Note_on_c, 0, 51, 101
4, 174960, Note_on_c, 0, 51, 0
4, 174960, Note_on_c, 0, 55, 101
4, 175020, Note_on_c, 0, 55, 0
4, 175020, Note_on_c, 0, 58, 101
4, 175080, Note_on_c, 0, 58, 0
4, 175080, Note_on_c, 0, 61, 101
4, 175140, Note_on_c, 0, 61, 0
4, 175140, Note_on_c, 0, 63, 101
4, 175200, Note_on_c, 0, 63, 0
4, 175440, Note_on_c, 0, 46, 101
4, 175500, Note_on_c, 0, 46, 0
4, 175500, Note_on_c, 0, 49, 101
4, 175560, Note_on_c, 0, 49, 0
4, 175560, Note_on_c, 0, 51, 101
4, 175620, Note_on_c, 0, 51, 0
4, 175620, Note_on_c, 0, 55, 101
4, 175680, Note_on_c, 0, 55, 0
4, 181680, Control_c, 0, 64, 0
4, 184560, Note_on_c, 0, 60, 49
4, 184560, Note_on_c, 0, 63, 49
4, 184920, Note_on_c, 0, 63, 0
4, 184920, Note_on_c, 0, 60, 0
4, 184920, Note_on_c, 0, 60, 49
4, 184920, Note_on_c, 0, 63, 49
4, 185040, Note_on_c, 0, 63, 0
4, 185040, Note_on_c, 0, 60, 0
4, 185040, Note_on_c, 0, 60, 49
4, 185040, Note_on_c, 0, 63, 49
4, 185087, Note_on_c, 0, 63, 0
4, 185087, Note_on_c, 0, 60, 0
4, 185280, Note_on_c, 0, 59, 49
4, 185280, Note_on_c, 0, 63, 49
4, 185327, Note_on_c, 0, 63, 0
4, 185327, Note_on_c, 0, 59, 0
4, 185520, Note_on_c, 0, 59, 49
4, 185520, Note_on_c, 0, 63, 49
4, 185567, Note_on_c, 0, 63, 0
4, 185567, Note_on_c, 0, 59, 0
4, 185760, Note_on_c, 0, 59, 49
4, 185760, Note_on_c, 0, 63, 49
4, 185807, Note_on_c, 0, 63, 0
4, 185807, Note_on_c, 0, 59, 0
4, 186000, Note_on_c, 0, 58, 49
4, 186000, Note_on_c, 0, 65, 49
4, 186240, Note_on_c, 0, 65, 0
4, 186240, Note_on_c, 0, 58, 0
4, 186480, Note_on_c, 0, 58, 75
4, 186480, Note_on_c, 0, 64, 75
4, 186960, Note_on_c, 0, 64, 0
4, 186960, Note_on_c, 0, 58, 0
4, 186960, Note_on_c, 0, 58, 49
4, 186960, Note_on_c, 0, 63, 49
4, 187440, Note_on_c, 0, 63, 0
4, 187440, Note_on_c, 0, 58, 0
4, 187440, Note_on_c, 0, 58, 49
4, 187440, Note_on_c, 0, 63, 49
4, 187800, Note_on_c, 0, 63, 0
4, 187800, Note_on_c, 0, 58, 0
4, 187800, Note_on_c, 0, 58, 49
4, 187800, Note_on_c, 0, 63, 49
4, 187920, Note_on_c, 0, 63, 0
4, 187920, Note_on_c, 0, 58, 0
4, 187920, Note_on_c, 0, 58, 49
4, 187920, Note_on_c, 0, 63, 49
4, 187967, Note_on_c, 0, 63, 0
4, 187967, Note_on_c, 0, 58, 0
4, 188160, Note_on_c, 0, 54, 49
4, 188160, Note_on_c, 0, 57, 49
4, 188207, Note_on_c, 0, 57, 0
4, 188207, Note_on_c, 0, 54, 0
4, 188400, Note_on_c, 0, 54, 49
4, 188400, Note_on_c, 0, 58, 49
4, 188447, Note_on_c, 0, 58, 0
4, 188447, Note_on_c, 0, 54, 0
4, 188640, Note_on_c, 0, 54, 49
4, 188640, Note_on_c, 0, 60, 49
4, 188687, Note_on_c, 0, 60, 0
4, 188687, Note_on_c, 0, 54, 0
4, 188880, Note_on_c, 0, 46, 49
4, 188880, Note_on_c, 0, 54, 49
4, 188880, Note_on_c, 0, 60, 49
4, 189120, Note_on_c, 0, 60, 0
4, 189120, Note_on_c, 0, 54, 0
4, 189120, Note_on_c, 0, 46, 0
4, 189360, Note_on_c, 0, 46, 75
4, 189360, Note_on_c, 0, 54, 75
4, 189360, Note_on_c, 0, 57, 75
4, 189840, Note_on_c, 0, 57, 0
4, 189840, Note_on_c, 0, 54, 0
4, 189840, Note_on_c, 0, 46, 0
4, 189840, Note_on_c, 0, 46, 75
4, 189840, Note_on_c, 0, 53, 75
4, 189840, Note_on_c, 0, 58, 75
4, 190320, Note_on_c, 0, 58, 0
4, 190320, Note_on_c, 0, 53, 0
4, 190320, Note_on_c, 0, 46, 0
4, 190320, Note_on_c, 0, 52, 62
4, 190320, Note_on_c, 0, 58, 62
4, 190680, Note_on_c, 0, 58, 0
4, 190680, Note_on_c, 0, 52, 0
4, 190680, Note_on_c, 0, 52, 62
4, 190680, Note_on_c, 0, 58, 62
4, 190800, Note_on_c, 0, 58, 0
4, 190800, Note_on_c, 0, 52, 0
4, 190800, Note_on_c, 0, 52, 62
4, 190800, Note_on_c, 0, 58, 62
4, 190847, Note_on_c, 0, 58, 0
4, 190847, Note_on_c, 0, 52, 0
4, 191040, Note_on_c, 0, 51, 62
4, 191040, Note_on_c, 0, 58, 62
4, 191087, Note_on_c, 0, 58, 0
4, 191087, Note_on_c, 0, 51, 0
4, 191280, Note_on_c, 0, 51, 62
4, 191280, Note_on_c, 0, 56, 62
4, 191327, Note_on_c, 0, 56, 0
4, 191327, Note_on_c, 0, 51, 0
4, 191520, Note_on_c, 0, 51, 62
4, 191520, Note_on_c, 0, 55, 62
4, 191567, Note_on_c, 0, 55, 0
4, 191567, Note_on_c, 0, 51, 0
4, 191760, Note_on_c, 0, 49, 62
4, 191760, Note_on_c, 0, 51, 62
4, 191760, Note_on_c, 0, 61, 62
4, 192000, Note_on_c, 0, 61, 0
4, 192000, Note_on_c, 0, 51, 0
4, 192000, Note_on_c, 0, 49, 0
4, 192240, Note_on_c, 0, 49, 88
4, 192240, Note_on_c, 0, 51, 88
4, 192240, Note_on_c, 0, 61, 88
4, 192720, Note_on_c, 0, 61, 0
4, 192720, Note_on_c, 0, 51, 0
4, 192720, Note_on_c, 0, 49, 0
4, 192720, Note_on_c, 0, 48, 62
4, 192720, Note_on_c, 0, 51, 62
4, 192720, Note_on_c, 0, 60, 62
4, 193200, Note_on_c, 0, 60, 0
4, 193200, Note_on_c, 0, 51, 0
4, 193200, Note_on_c, 0, 48, 0
4, 193200, Note_on_c, 0, 47, 62
4, 193200, Note_on_c, 0, 51, 62
4, 193200, Note_on_c, 0, 59, 62
4, 193440, Note_on_c, 0, 59, 0
4, 193440, Note_on_c, 0, 51, 0
4, 193440, Note_on_c, 0, 47, 0
4, 193680, Note_on_c, 0, 47, 88
4, 193680, Note_on_c, 0, 51, 88
4, 193680, Note_on_c, 0, 59, 88
4, 194160, Note_on_c, 0, 59, 0
4, 194160, Note_on_c, 0, 51, 0
4, 194160, Note_on_c, 0, 47, 0
4, 194160, Note_on_c, 0, 46, 62
4, 194160, Note_on_c, 0, 51, 62
4, 194160, Note_on_c, 0, 58, 62
4, 194640, Note_on_c, 0, 58, 0
4, 194640, Note_on_c, 0, 51, 0
4, 194640, Note_on_c, 0, 46, 0
4, 194640, Note_on_c, 0, 44, 75
4, 194640, Note_on_c, 0, 46, 75
4, 194640, Note_on_c, 0, 56, 75
4, 195000, Note_on_c, 0, 56, 0
4, 195000, Note_on_c, 0, 46, 0
4, 195000, Note_on_c, 0, 44, 0
4, 195000, Note_on_c, 0, 43, 75
4, 195000, Note_on_c, 0, 46, 75
4, 195000, Note_on_c, 0, 55, 75
4, 195120, Note_on_c, 0, 55, 0
4, 195120, Note_on_c, 0, 46, 0
4, 195120, Note_on_c, 0, 43, 0
4, 195120, Note_on_c, 0, 41, 75
4, 195120, Note_on_c, 0, 46, 75
4, 195120, Note_on_c, 0, 53, 75
4, 195360, Note_on_c, 0, 53, 0
4, 195360, Note_on_c, 0, 46, 0
4, 195360, Note_on_c, 0, 41, 0
4, 195360, Note_on_c, 0, 39, 75
4, 195360, Note_on_c, 0, 46, 75
4, 195360, Note_on_c, 0, 51, 75
4, 195600, Note_on_c, 0, 51, 0
4, 195600, Note_on_c, 0, 46, 0
4, 195600, Note_on_c, 0, 39, 0
4, 196080, Note_on_c, 0, 60, 49
4, 196080, Note_on_c, 0, 63, 49
4, 196440, Note_on_c, 0, 63, 0
4, 196440, Note_on_c, 0, 60, 0
4, 196440, Note_on_c, 0, 60, 49
4, 196440, Note_on_c, 0, 63, 49
4, 196560, Note_on_c, 0, 63, 0
4, 196560, Note_on_c, 0, 60, 0
4, 196560, Note_on_c, 0, 60, 49
4, 196560, Note_on_c, 0, 63, 49
4, 196607, Note_on_c, 0, 63, 0
4, 196607, Note_on_c, 0, 60, 0
4, 196800, Note_on_c, 0, 59, 49
4, 196800, Note_on_c, 0, 63, 49
4, 196847, Note_on_c, 0, 63, 0
4, 196847, Note_on_c, 0, 59, 0
4, 197040, Note_on_c, 0, 59, 49
4, 197040, Note_on_c, 0, 63, 49
4, 197087, Note_on_c, 0, 63, 0
4, 197087, Note_on_c, 0, 59, 0
4, 197280, Note_on_c, 0, 59, 49
4, 197280, Note_on_c, 0, 63, 49
4, 197327, Note_on_c, 0, 63, 0
4, 197327, Note_on_c, 0, 59, 0
4, 197520, Note_on_c, 0, 58, 49
4, 197520, Note_on_c, 0, 65, 49
4, 197760, Note_on_c, 0, 65, 0
4, 197760, Note_on_c, 0, 58, 0
4, 198000, Note_on_c, 0, 58, 75
4, 198000, Note_on_c, 0, 64, 75
4, 198480, Note_on_c, 0, 64, 0
4, 198480, Note_on_c, 0, 58, 0
4, 198480, Note_on_c, 0, 58, 49
4, 198480, Note_on_c, 0, 63, 49
4, 198960, Note_on_c, 0, 63, 0
4, 198960, Note_on_c, 0, 58, 0
4, 198960, Note_on_c, 0, 58, 49
4, 198960, Note_on_c, 0, 63, 49
4, 199320, Note_on_c, 0, 63, 0
4, 199320, Note_on_c, 0, 58, 0
4, 199320, Note_on_c, 0, 58, 49
4, 199320, Note_on_c, 0, 63, 49
4, 199440, Note_on_c, 0, 63, 0
4, 199440, Note_on_c, 0, 58, 0
4, 199440, Note_on_c, 0, 58, 49
4, 199440, Note_on_c, 0, 63, 49
4, 199487, Note_on_c, 0, 63, 0
4, 199487, Note_on_c, 0, 58, 0
4, 199680, Note_on_c, 0, 54, 49
4, 199680, Note_on_c, 0, 57, 49
4, 199727, Note_on_c, 0, 57, 0
4, 199727, Note_on_c, 0, 54, 0
4, 199920, Note_on_c, 0, 54, 49
4, 199920, Note_on_c, 0, 58, 49
4, 199967, Note_on_c, 0, 58, 0
4, 199967, Note_on_c, 0, 54, 0
4, 200160, Note_on_c, 0, 54, 49
4, 200160, Note_on_c, 0, 60, 49
4, 200207, Note_on_c, 0, 60, 0
4, 200207, Note_on_c, 0, 54, 0
4, 200400, Note_on_c, 0, 46, 49
4, 200400, Note_on_c, 0, 54, 49
4, 200400, Note_on_c, 0, 60, 49
4, 200640, Note_on_c, 0, 60, 0
4, 200640, Note_on_c, 0, 54, 0
4, 200640, Note_on_c, 0, 46, 0
4, 200880, Note_on_c, 0, 46, 75
4, 200880, Note_on_c, 0, 54, 75
4, 200880, Note_on_c, 0, 57, 75
4, 201360, Note_on_c, 0, 57, 0
4, 201360, Note_on_c, 0, 54, 0
4, 201360, Note_on_c, 0, 46, 0
4, 201360, Note_on_c, 0, 46, 75
4, 201360, Note_on_c, 0, 53, 75
4, 201360, Note_on_c, 0, 58, 75
4, 201840, Note_on_c, 0, 58, 0
4, 201840, Note_on_c, 0, 53, 0
4, 201840, Note_on_c, 0, 46, 0
4, 201840, Note_on_c, 0, 52, 62
4, 201840, Note_on_c, 0, 58, 62
4, 202200, Note_on_c, 0, 58, 0
4, 202200, Note_on_c, 0, 52, 0
4, 202200, Note_on_c, 0, 52, 62
4, 202200, Note_on_c, 0, 58, 62
4, 202320, Note_on_c, 0, 58, 0
4, 202320, Note_on_c, 0, 52, 0
4, 202320, Note_on_c, 0, 52, 62
4, 202320, Note_on_c, 0, 58, 62
4, 202367, Note_on_c, 0, 58, 0
4, 202367, Note_on_c, 0, 52, 0
4, 202560, Note_on_c, 0, 51, 62
4, 202560, Note_on_c, 0, 58, 62
4, 202607, Note_on_c, 0, 58, 0
4, 202607, Note_on_c, 0, 51, 0
4, 202800, Note_on_c, 0, 51, 62
4, 202800, Note_on_c, 0, 56, 62
4, 202847, Note_on_c, 0, 56, 0
4, 202847, Note_on_c, 0, 51, 0
4, 203040, Note_on_c, 0, 51, 62
4, 203040, Note_on_c, 0, 55, 62
4, 203087, Note_on_c, 0, 55, 0
4, 203087, Note_on_c, 0, 51, 0
4, 203280, Note_on_c, 0, 54, 62
4, 203280, Note_on_c, 0, 60, 62
4, 203640, Note_on_c, 0, 60, 0
4, 203640, Note_on_c, 0, 54, 0
4, 203640, Note_on_c, 0, 54, 62
4, 203640, Note_on_c, 0, 60, 62
4, 203760, Note_on_c, 0, 60, 0
4, 203760, Note_on_c, 0, 54, 0
4, 203760, Note_on_c, 0, 54, 62
4, 203760, Note_on_c, 0, 60, 62
4, 203807, Note_on_c, 0, 60, 0
4, 203807, Note_on_c, 0, 54, 0
4, 204000, Note_on_c, 0, 53, 62
4, 204000, Note_on_c, 0, 60, 62
4, 204047, Note_on_c, 0, 60, 0
4, 204047, Note_on_c, 0, 53, 0
4, 204240, Note_on_c, 0, 53, 62
4, 204240, Note_on_c, 0, 58, 62
4, 204287, Note_on_c, 0, 58, 0
4, 204287, Note_on_c, 0, 53, 0
4, 204480, Note_on_c, 0, 53, 62
4, 204480, Note_on_c, 0, 57, 62
4, 204527, Note_on_c, 0, 57, 0
4, 204527, Note_on_c, 0, 53, 0
4, 204960, Note_on_c, 0, 45, 62
4, 205080, Note_on_c, 0, 45, 0
4, 205080, Note_on_c, 0, 53, 62
4, 205200, Note_on_c, 0, 53, 0
4, 205200, Note_on_c, 0, 60, 62
4, 205440, Note_on_c, 0, 60, 0
4, 205680, Note_on_c, 0, 46, 62
4, 205800, Note_on_c, 0, 46, 0
4, 205800, Note_on_c, 0, 54, 62
4, 205920, Note_on_c, 0, 54, 0
4, 205920, Note_on_c, 0, 61, 62
4, 206160, Note_on_c, 0, 61, 0
4, 206400, Note_on_c, 0, 47, 62
4, 206520, Note_on_c, 0, 47, 0
4, 206520, Note_on_c, 0, 55, 62
4, 206640, Note_on_c, 0, 55, 0
4, 206640, Note_on_c, 0, 62, 62
4, 206880, Note_on_c, 0, 62, 0
4, 207120, Note_on_c, 0, 48, 62
4, 207240, Note_on_c, 0, 48, 0
4, 207240, Note_on_c, 0, 56, 62
4, 207360, Note_on_c, 0, 56, 0
4, 207360, Note_on_c, 0, 63, 62
4, 207600, Note_on_c, 0, 63, 0
4, 207840, Note_on_c, 0, 53, 75
4, 207840, Note_on_c, 0, 56, 75
4, 207840, Note_on_c, 0, 65, 75
4, 208080, Note_on_c, 0, 65, 0
4, 208080, Note_on_c, 0, 56, 0
4, 208080, Note_on_c, 0, 53, 0
4, 208080, Note_on_c, 0, 52, 75
4, 208080, Note_on_c, 0, 56, 75
4, 208080, Note_on_c, 0, 64, 75
4, 208320, Note_on_c, 0, 64, 0
4, 208320, Note_on_c, 0, 56, 0
4, 208320, Note_on_c, 0, 52, 0
4, 208320, Note_on_c, 0, 51, 75
4, 208320, Note_on_c, 0, 56, 75
4, 208320, Note_on_c, 0, 63, 75
4, 208800, Note_on_c, 0, 63, 0
4, 208800, Note_on_c, 0, 56, 0
4, 208800, Note_on_c, 0, 51, 0
4, 208800, Note_on_c, 0, 48, 75
4, 208800, Note_on_c, 0, 56, 75
4, 208800, Note_on_c, 0, 60, 75
4, 209280, Note_on_c, 0, 60, 0
4, 209280, Note_on_c, 0, 56, 0
4, 209280, Note_on_c, 0, 48, 0
4, 209280, Note_on_c, 0, 47, 75
4, 209280, Note_on_c, 0, 51, 75
4, 209280, Note_on_c, 0, 59, 75
4, 209520, Note_on_c, 0, 59, 0
4, 209520, Note_on_c, 0, 51, 0
4, 209520, Note_on_c, 0, 47, 0
4, 209520, Note_on_c, 0, 46, 75
4, 209520, Note_on_c, 0, 51, 75
4, 209520, Note_on_c, 0, 58, 75
4, 209760, Note_on_c, 0, 58, 0
4, 209760, Note_on_c, 0, 51, 0
4, 209760, Note_on_c, 0, 46, 0
4, 209760, Note_on_c, 0, 44, 75
4, 209760, Note_on_c, 0, 51, 75
4, 209760, Note_on_c, 0, 56, 75
4, 210000, Note_on_c, 0, 56, 0
4, 210000, Note_on_c, 0, 51, 0
4, 210000, Note_on_c, 0, 44, 0
4, 210000, Note_on_c, 0, 44, 75
4, 210000, Note_on_c, 0, 56, 75
4, 210240, Note_on_c, 0, 56, 0
4, 210240, Note_on_c, 0, 44, 0
4, 210240, Note_on_c, 0, 46, 75
4, 210240, Note_on_c, 0, 58, 75
4, 210480, Note_on_c, 0, 58, 0
4, 210480, Note_on_c, 0, 46, 0
4, 210480, Note_on_c, 0, 48, 75
4, 210480, Note_on_c, 0, 60, 75
4, 210960, Note_on_c, 0, 60, 0
4, 210960, Note_on_c, 0, 48, 0
4, 210960, Note_on_c, 0, 46, 75
4, 210960, Note_on_c, 0, 48, 75
4, 210960, Note_on_c, 0, 58, 75
4, 211440, Note_on_c, 0, 58, 0
4, 211440, Note_on_c, 0, 48, 0
4, 211440, Note_on_c, 0, 46, 0
4, 211440, Note_on_c, 0, 44, 75
4, 211440, Note_on_c, 0, 48, 75
4, 211440, Note_on_c, 0, 56, 75
4, 211680, Note_on_c, 0, 56, 0
4, 211680, Note_on_c, 0, 48, 0
4, 211680, Note_on_c, 0, 44, 0
4, 211680, Note_on_c, 0, 43, 75
4, 211680, Note_on_c, 0, 48, 75
4, 211680, Note_on_c, 0, 55, 75
4, 211920, Note_on_c, 0, 55, 0
4, 211920, Note_on_c, 0, 48, 0
4, 211920, Note_on_c, 0, 43, 0
4, 211920, Note_on_c, 0, 41, 75
4, 211920, Note_on_c, 0, 48, 75
4, 211920, Note_on_c, 0, 53, 75
4, 212400, Note_on_c, 0, 53, 0
4, 212400, Note_on_c, 0, 48, 0
4, 212400, Note_on_c, 0, 41, 0
4, 212400, Note_on_c, 0, 40, 75
4, 212400, Note_on_c, 0, 48, 75
4, 212400, Note_on_c, 0, 52, 75
4, 212880, Note_on_c, 0, 52, 0
4, 212880, Note_on_c, 0, 48, 0
4, 212880, Note_on_c, 0, 40, 0
4, 212880, Note_on_c, 0, 44, 75
4, 212880, Note_on_c, 0, 56, 75
4, 213120, Note_on_c, 0, 56, 0
4, 213120, Note_on_c, 0, 44, 0
4, 213120, Note_on_c, 0, 46, 75
4, 213120, Note_on_c, 0, 58, 75
4, 213360, Note_on_c, 0, 58, 0
4, 213360, Note_on_c, 0, 46, 0
4, 213360, Note_on_c, 0, 48, 75
4, 213360, Note_on_c, 0, 60, 75
4, 213840, Note_on_c, 0, 60, 0
4, 213840, Note_on_c, 0, 48, 0
4, 213840, Note_on_c, 0, 46, 75
4, 213840, Note_on_c, 0, 48, 75
4, 213840, Note_on_c, 0, 58, 75
4, 214320, Note_on_c, 0, 58, 0
4, 214320, Note_on_c, 0, 48, 0
4, 214320, Note_on_c, 0, 46, 0
4, 214320, Note_on_c, 0, 44, 75
4, 214320, Note_on_c, 0, 48, 75
4, 214320, Note_on_c, 0, 56, 75
4, 214560, Note_on_c, 0, 56, 0
4, 214560, Note_on_c, 0, 48, 0
4, 214560, Note_on_c, 0, 44, 0
4, 214560, Note_on_c, 0, 43, 75
4, 214560, Note_on_c, 0, 48, 75
4, 214560, Note_on_c, 0, 55, 75
4, 214800, Note_on_c, 0, 55, 0
4, 214800, Note_on_c, 0, 48, 0
4, 214800, Note_on_c, 0, 43, 0
4, 214800, Note_on_c, 0, 41, 75
4, 214800, Note_on_c, 0, 48, 75
4, 214800, Note_on_c, 0, 53, 75
4, 215280, Note_on_c, 0, 53, 0
4, 215280, Note_on_c, 0, 48, 0
4, 215280, Note_on_c, 0, 41, 0
4, 215280, Note_on_c, 0, 40, 75
4, 215280, Note_on_c, 0, 48, 75
4, 215280, Note_on_c, 0, 52, 75
4, 215760, Note_on_c, 0, 52, 0
4, 215760, Note_on_c, 0, 48, 0
4, 215760, Note_on_c, 0, 40, 0
4, 216480, Note_on_c, 0, 42, 75
4, 216480, Note_on_c, 0, 52, 75
4, 216480, Note_on_c, 0, 54, 75
4, 216960, Note_on_c, 0, 54, 0
4, 216960, Note_on_c, 0, 52, 0
4, 216960, Note_on_c, 0, 42, 0
4, 216960, Note_on_c, 0, 44, 75
4, 216960, Note_on_c, 0, 52, 75
4, 216960, Note_on_c, 0, 56, 75
4, 217200, Note_on_c, 0, 56, 0
4, 217200, Note_on_c, 0, 52, 0
4, 217200, Note_on_c, 0, 44, 0
4, 217200, Note_on_c, 0, 45, 75
4, 217200, Note_on_c, 0, 52, 75
4, 217200, Note_on_c, 0, 57, 75
4, 217440, Note_on_c, 0, 57, 0
4, 217440, Note_on_c, 0, 52, 0
4, 217440, Note_on_c, 0, 45, 0
4, 217440, Note_on_c, 0, 47, 75
4, 217440, Note_on_c, 0, 52, 75
4, 217440, Note_on_c, 0, 59, 75
4, 217920, Note_on_c, 0, 59, 0
4, 217920, Note_on_c, 0, 52, 0
4, 217920, Note_on_c, 0, 47, 0
4, 217920, Note_on_c, 0, 48, 75
4, 217920, Note_on_c, 0, 52, 75
4, 217920, Note_on_c, 0, 60, 75
4, 218400, Note_on_c, 0, 60, 0
4, 218400, Note_on_c, 0, 52, 0
4, 218400, Note_on_c, 0, 48, 0
4, 218400, Note_on_c, 0, 47, 75
4, 218400, Note_on_c, 0, 52, 75
4, 218400, Note_on_c, 0, 59, 75
4, 218640, Note_on_c, 0, 59, 0
4, 218640, Note_on_c, 0, 52, 0
4, 218640, Note_on_c, 0, 47, 0
4, 219360, Note_on_c, 0, 42, 75
4, 219360, Note_on_c, 0, 52, 75
4, 219360, Note_on_c, 0, 54, 75
4, 219840, Note_on_c, 0, 54, 0
4, 219840, Note_on_c, 0, 52, 0
4, 219840, Note_on_c, 0, 42, 0
4, 219840, Note_on_c, 0, 44, 75
4, 219840, Note_on_c, 0, 52, 75
4, 219840, Note_on_c, 0, 56, 75
4, 220080, Note_on_c, 0, 56, 0
4, 220080, Note_on_c, 0, 52, 0
4, 220080, Note_on_c, 0, 44, 0
4, 220080, Note_on_c, 0, 45, 75
4, 220080, Note_on_c, 0, 52, 75
4, 220080, Note_on_c, 0, 57, 75
4, 220320, Note_on_c, 0, 57, 0
4, 220320, Note_on_c, 0, 52, 0
4, 220320, Note_on_c, 0, 45, 0
4, 220320, Note_on_c, 0, 47, 75
4, 220320, Note_on_c, 0, 52, 75
4, 220320, Note_on_c, 0, 59, 75
4, 220800, Note_on_c, 0, 59, 0
4, 220800, Note_on_c, 0, 52, 0
4, 220800, Note_on_c, 0, 47, 0
4, 220800, Note_on_c, 0, 48, 75
4, 220800, Note_on_c, 0, 52, 75
4, 220800, Note_on_c, 0, 60, 75
4, 221280, Note_on_c, 0, 60, 0
4, 221280, Note_on_c, 0, 52, 0
4, 221280, Note_on_c, 0, 48, 0
4, 221280, Note_on_c, 0, 47, 75
4, 221280, Note_on_c, 0, 52, 75
4, 221280, Note_on_c, 0, 59, 75
4, 221520, Note_on_c, 0, 59, 0
4, 221520, Note_on_c, 0, 52, 0
4, 221520, Note_on_c, 0, 47, 0
4, 221520, Note_on_c, 0, 52, 88
4, 221520, Note_on_c, 0, 64, 88
4, 221760, Note_on_c, 0, 64, 0
4, 221760, Note_on_c, 0, 52, 0
4, 221760, Note_on_c, 0, 54, 88
4, 221760, Note_on_c, 0, 66, 88
4, 222000, Note_on_c, 0, 66, 0
4, 222000, Note_on_c, 0, 54, 0
4, 222000, Note_on_c, 0, 56, 88
4, 222000, Note_on_c, 0, 68, 88
4, 222480, Note_on_c, 0, 68, 0
4, 222480, Note_on_c, 0, 56, 0
4, 222480, Note_on_c, 0, 54, 88
4, 222480, Note_on_c, 0, 56, 88
4, 222480, Note_on_c, 0, 66, 88
4, 222960, Note_on_c, 0, 66, 0
4, 222960, Note_on_c, 0, 56, 0
4, 222960, Note_on_c, 0, 54, 0
4, 222960, Note_on_c, 0, 52, 88
4, 222960, Note_on_c, 0, 56, 88
4, 222960, Note_on_c, 0, 64, 88
4, 223200, Note_on_c, 0, 64, 0
4, 223200, Note_on_c, 0, 56, 0
4, 223200, Note_on_c, 0, 52, 0
4, 223200, Note_on_c, 0, 51, 88
4, 223200, Note_on_c, 0, 56, 88
4, 223200, Note_on_c, 0, 63, 88
4, 223440, Note_on_c, 0, 63, 0
4, 223440, Note_on_c, 0, 56, 0
4, 223440, Note_on_c, 0, 51, 0
4, 223440, Note_on_c, 0, 49, 88
4, 223440, Note_on_c, 0, 56, 88
4, 223440, Note_on_c, 0, 61, 88
4, 223920, Note_on_c, 0, 61, 0
4, 223920, Note_on_c, 0, 56, 0
4, 223920, Note_on_c, 0, 49, 0
4, 223920, Note_on_c, 0, 48, 88
4, 223920, Note_on_c, 0, 56, 88
4, 223920, Note_on_c, 0, 60, 88
4, 224400, Note_on_c, 0, 60, 0
4, 224400, Note_on_c, 0, 56, 0
4, 224400, Note_on_c, 0, 48, 0
4, 225120, Note_on_c, 0, 46, 88
4, 225120, Note_on_c, 0, 56, 88
4, 225120, Note_on_c, 0, 58, 88
4, 225600, Note_on_c, 0, 58, 0
4, 225600, Note_on_c, 0, 56, 0
4, 225600, Note_on_c, 0, 46, 0
4, 225600, Note_on_c, 0, 48, 88
4, 225600, Note_on_c, 0, 56, 88
4, 225600, Note_on_c, 0, 60, 88
4, 225840, Note_on_c, 0, 60, 0
4, 225840, Note_on_c, 0, 56, 0
4, 225840, Note_on_c, 0, 48, 0
4, 225840, Note_on_c, 0, 49, 88
4, 225840, Note_on_c, 0, 56, 88
4, 225840, Note_on_c, 0, 61, 88
4, 226080, Note_on_c, 0, 61, 0
4, 226080, Note_on_c, 0, 56, 0
4, 226080, Note_on_c, 0, 49, 0
4, 226080, Note_on_c, 0, 51, 88
4, 226080, Note_on_c, 0, 56, 88
4, 226080, Note_on_c, 0, 63, 88
4, 226560, Note_on_c, 0, 63, 0
4, 226560, Note_on_c, 0, 56, 0
4, 226560, Note_on_c, 0, 51, 0
4, 226560, Note_on_c, 0, 52, 88
4, 226560, Note_on_c, 0, 56, 88
4, 226560, Note_on_c, 0, 64, 88
4, 227040, Note_on_c, 0, 64, 0
4, 227040, Note_on_c, 0, 56, 0
4, 227040, Note_on_c, 0, 52, 0
4, 227040, Note_on_c, 0, 51, 88
4, 227040, Note_on_c, 0, 56, 88
4, 227040, Note_on_c, 0, 63, 88
4, 227280, Note_on_c, 0, 63, 0
4, 227280, Note_on_c, 0, 56, 0
4, 227280, Note_on_c, 0, 51, 0
4, 228000, Note_on_c, 0, 46, 88
4, 228000, Note_on_c, 0, 56, 88
4, 228000, Note_on_c, 0, 58, 88
4, 228480, Note_on_c, 0, 58, 0
4, 228480, Note_on_c, 0, 56, 0
4, 228480, Note_on_c, 0, 46, 0
4, 228480, Note_on_c, 0, 48, 88
4, 228480, Note_on_c, 0, 56, 88
4, 228480, Note_on_c, 0, 60, 88
4, 228720, Note_on_c, 0, 60, 0
4, 228720, Note_on_c, 0, 56, 0
4, 228720, Note_on_c, 0, 48, 0
4, 228720, Note_on_c, 0, 49, 88
4, 228720, Note_on_c, 0, 56, 88
4, 228720, Note_on_c, 0, 61, 88
4, 228960, Note_on_c, 0, 61, 0
4, 228960, Note_on_c, 0, 56, 0
4, 228960, Note_on_c, 0, 49, 0
4, 228960, Note_on_c, 0, 51, 88
4, 228960, Note_on_c, 0, 56, 88
4, 228960, Note_on_c, 0, 63, 88
4, 229440, Note_on_c, 0, 63, 0
4, 229440, Note_on_c, 0, 56, 0
4, 229440, Note_on_c, 0, 51, 0
4, 229440, Note_on_c, 0, 52, 88
4, 229440, Note_on_c, 0, 56, 88
4, 229440, Note_on_c, 0, 64, 88
4, 229920, Note_on_c, 0, 64, 0
4, 229920, Note_on_c, 0, 56, 0
4, 229920, Note_on_c, 0, 52, 0
4, 229920, Note_on_c, 0, 51, 88
4, 229920, Note_on_c, 0, 56, 88
4, 229920, Note_on_c, 0, 63, 88
4, 230160, Note_on_c, 0, 63, 0
4, 230160, Note_on_c, 0, 56, 0
4, 230160, Note_on_c, 0, 51, 0
4, 230880, Note_on_c, 0, 55, 62
4, 231120, Note_on_c, 0, 55, 0
4, 231120, Note_on_c, 0, 56, 62
4, 231360, Note_on_c, 0, 56, 0
4, 231360, Note_on_c, 0, 58, 62
4, 231840, Note_on_c, 0, 58, 0
4, 231840, Note_on_c, 0, 60, 62
4, 232080, Note_on_c, 0, 60, 0
4, 232320, Note_on_c, 0, 50, 62
4, 232560, Note_on_c, 0, 50, 0
4, 232560, Note_on_c, 0, 51, 62
4, 232800, Note_on_c, 0, 51, 0
4, 232800, Note_on_c, 0, 52, 62
4, 233280, Note_on_c, 0, 52, 0
4, 233280, Note_on_c, 0, 53, 62
4, 233520, Note_on_c, 0, 53, 0
4, 233760, Note_on_c, 0, 55, 62
4, 234000, Note_on_c, 0, 55, 0
4, 234000, Note_on_c, 0, 56, 62
4, 234240, Note_on_c, 0, 56, 0
4, 234240, Note_on_c, 0, 58, 62
4, 234720, Note_on_c, 0, 58, 0
4, 234720, Note_on_c, 0, 60, 62
4, 234960, Note_on_c, 0, 60, 0
4, 235200, Note_on_c, 0, 50, 62
4, 235440, Note_on_c, 0, 50, 0
4, 235440, Note_on_c, 0, 51, 62
4, 235680, Note_on_c, 0, 51, 0
4, 235680, Note_on_c, 0, 52, 62
4, 236160, Note_on_c, 0, 52, 0
4, 236160, Note_on_c, 0, 54, 62
4, 236400, Note_on_c, 0, 54, 0
4, 236640, Note_on_c, 0, 55, 62
4, 236880, Note_on_c, 0, 55, 0
4, 236880, Note_on_c, 0, 57, 62
4, 237120, Note_on_c, 0, 57, 0
4, 237120, Note_on_c, 0, 59, 62
4, 237600, Note_on_c, 0, 59, 0
4, 237600, Note_on_c, 0, 60, 62
4, 237840, Note_on_c, 0, 60, 0
4, 238080, Note_on_c, 0, 50, 62
4, 238320, Note_on_c, 0, 50, 0
4, 238320, Note_on_c, 0, 51, 62
4, 238560, Note_on_c, 0, 51, 0
4, 238560, Note_on_c, 0, 53, 62
4, 239040, Note_on_c, 0, 53, 0
4, 239040, Note_on_c, 0, 54, 62
4, 239280, Note_on_c, 0, 54, 0
4, 239520, Note_on_c, 0, 55, 62
4, 239760, Note_on_c, 0, 55, 0
4, 239760, Note_on_c, 0, 57, 62
4, 240000, Note_on_c, 0, 57, 0
4, 240000, Note_on_c, 0, 59, 62
4, 240480, Note_on_c, 0, 59, 0
4, 240480, Note_on_c, 0, 60, 62
4, 240720, Note_on_c, 0, 60, 0
4, 240960, Note_on_c, 0, 50, 75
4, 241200, Note_on_c, 0, 50, 0
4, 241200, Note_on_c, 0, 51, 75
4, 241440, Note_on_c, 0, 51, 0
4, 241440, Note_on_c, 0, 52, 75
4, 241920, Note_on_c, 0, 52, 0
4, 241920, Note_on_c, 0, 53, 75
4, 242160, Note_on_c, 0, 53, 0
4, 242400, Note_on_c, 0, 52, 75
4, 242640, Note_on_c, 0, 52, 0
4, 242640, Note_on_c, 0, 53, 75
4, 242880, Note_on_c, 0, 53, 0
4, 242880, Note_on_c, 0, 54, 75
4, 243360, Note_on_c, 0, 54, 0
4, 243360, Note_on_c, 0, 55, 75
4, 243600, Note_on_c, 0, 55, 0
4, 243840, Note_on_c, 0, 57, 75
4, 244080, Note_on_c, 0, 57, 0
4, 244080, Note_on_c, 0, 58, 75
4, 244320, Note_on_c, 0, 58, 0
4, 244320, Note_on_c, 0, 55, 75
4, 244800, Note_on_c, 0, 55, 0
4, 244800, Note_on_c, 0, 56, 75
4, 245040, Note_on_c, 0, 56, 0
4, 245280, Note_on_c, 0, 54, 75
4, 245520, Note_on_c, 0, 54, 0
4, 245520, Note_on_c, 0, 55, 75
4, 245760, Note_on_c, 0, 55, 0
4, 245760, Note_on_c, 0, 56, 75
4, 246240, Note_on_c, 0, 56, 0
4, 246240, Note_on_c, 0, 57, 75
4, 246480, Note_on_c, 0, 57, 0
4, 246720, Note_on_c, 0, 59, 75
4, 246960, Note_on_c, 0, 59, 0
4, 246960, Note_on_c, 0, 60, 75
4, 247200, Note_on_c, 0, 60, 0
4, 247200, Note_on_c, 0, 57, 75
4, 247680, Note_on_c, 0, 57, 0
4, 247680, Note_on_c, 0, 58, 75
4, 247920, Note_on_c, 0, 58, 0
4, 248160, Note_on_c, 0, 59, 75
4, 248400, Note_on_c, 0, 59, 0
4, 248400, Note_on_c, 0, 60, 75
4, 248640, Note_on_c, 0, 60, 0
4, 248640, Note_on_c, 0, 57, 75
4, 249120, Note_on_c, 0, 57, 0
4, 249120, Note_on_c, 0, 58, 75
4, 249360, Note_on_c, 0, 58, 0
4, 249600, Note_on_c, 0, 59, 75
4, 249840, Note_on_c, 0, 59, 0
4, 249840, Note_on_c, 0, 60, 75
4, 250080, Note_on_c, 0, 60, 0
4, 250080, Note_on_c, 0, 57, 75
4, 250560, Note_on_c, 0, 57, 0
4, 250560, Note_on_c, 0, 58, 75
4, 250800, Note_on_c, 0, 58, 0
4, 251040, Note_on_c, 0, 51, 75
4, 251040, Note_on_c, 0, 53, 75
4, 251040, Note_on_c, 0, 63, 75
4, 251280, Note_on_c, 0, 63, 0
4, 251280, Note_on_c, 0, 53, 0
4, 251280, Note_on_c, 0, 51, 0
4, 251280, Note_on_c, 0, 49, 75
4, 251280, Note_on_c, 0, 53, 75
4, 251280, Note_on_c, 0, 61, 75
4, 251520, Note_on_c, 0, 61, 0
4, 251520, Note_on_c, 0, 53, 0
4, 251520, Note_on_c, 0, 49, 0
4, 251760, Note_on_c, 0, 51, 75
4, 251760, Note_on_c, 0, 53, 75
4, 251760, Note_on_c, 0, 63, 75
4, 252000, Note_on_c, 0, 63, 0
4, 252000, Note_on_c, 0, 53, 0
4, 252000, Note_on_c, 0, 51, 0
4, 252000, Note_on_c, 0, 49, 75
4, 252000, Note_on_c, 0, 53, 75
4, 252000, Note_on_c, 0, 61, 75
4, 252240, Note_on_c, 0, 61, 0
4, 252240, Note_on_c, 0, 53, 0
4, 252240, Note_on_c, 0, 49, 0
4, 252480, Note_on_c, 0, 45, 62
4, 252480, Note_on_c, 0, 57, 62
4, 252720, Note_on_c, 0, 57, 0
4, 252720, Note_on_c, 0, 45, 0
4, 252720, Note_on_c, 0, 46, 62
4, 252720, Note_on_c, 0, 58, 62
4, 252960, Note_on_c, 0, 58, 0
4, 252960, Note_on_c, 0, 46, 0
4, 253200, Note_on_c, 0, 45, 62
4, 253200, Note_on_c, 0, 57, 62
4, 253440, Note_on_c, 0, 57, 0
4, 253440, Note_on_c, 0, 45, 0
4, 253440, Note_on_c, 0, 46, 62
4, 253440, Note_on_c, 0, 58, 62
4, 253680, Note_on_c, 0, 58, 0
4, 253680, Note_on_c, 0, 46, 0
4, 253920, Note_on_c, 0, 44, 62
4, 253920, Note_on_c, 0, 56, 62
4, 254160, Note_on_c, 0, 56, 0
4, 254160, Note_on_c, 0, 44, 0
4, 254160, Note_on_c, 0, 43, 62
4, 254160, Note_on_c, 0, 55, 62
4, 254400, Note_on_c, 0, 55, 0
4, 254400, Note_on_c, 0, 43, 0
4, 254640, Note_on_c, 0, 44, 62
4, 254640, Note_on_c, 0, 56, 62
4, 254880, Note_on_c, 0, 56, 0
4, 254880, Note_on_c, 0, 44, 0
4, 254880, Note_on_c, 0, 43, 62
4, 254880, Note_on_c, 0, 55, 62
4, 255120, Note_on_c, 0, 55, 0
4, 255120, Note_on_c, 0, 43, 0
4, 255120, Note_on_c, 0, 38, 88
4, 255360, Note_on_c, 0, 38, 0
4, 255360, Note_on_c, 0, 39, 62
4, 255600, Note_on_c, 0, 39, 0
4, 256080, Note_on_c, 0, 62, 88
4, 256320, Note_on_c, 0, 62, 0
4, 256320, Note_on_c, 0, 63, 62
4, 256560, Note_on_c, 0, 63, 0
4, 256560, Note_on_c, 0, 60, 49
4, 256560, Note_on_c, 0, 63, 49
4, 256920, Note_on_c, 0, 63, 0
4, 256920, Note_on_c, 0, 60, 0
4, 256920, Note_on_c, 0, 60, 49
4, 256920, Note_on_c, 0, 63, 49
4, 257040, Note_on_c, 0, 63, 0
4, 257040, Note_on_c, 0, 60, 0
4, 257040, Note_on_c, 0, 60, 49
4, 257040, Note_on_c, 0, 63, 49
4, 257087, Note_on_c, 0, 63, 0
4, 257087, Note_on_c, 0, 60, 0
4, 257280, Note_on_c, 0, 59, 49
4, 257280, Note_on_c, 0, 63, 49
4, 257327, Note_on_c, 0, 63, 0
4, 257327, Note_on_c, 0, 59, 0
4, 257520, Note_on_c, 0, 59, 49
4, 257520, Note_on_c, 0, 63, 49
4, 257567, Note_on_c, 0, 63, 0
4, 257567, Note_on_c, 0, 59, 0
4, 257760, Note_on_c, 0, 59, 49
4, 257760, Note_on_c, 0, 63, 49
4, 257807, Note_on_c, 0, 63, 0
4, 257807, Note_on_c, 0, 59, 0
4, 258000, Note_on_c, 0, 58, 49
4, 258000, Note_on_c, 0, 65, 49
4, 258240, Note_on_c, 0, 65, 0
4, 258240, Note_on_c, 0, 58, 0
4, 258480, Note_on_c, 0, 58, 75
4, 258480, Note_on_c, 0, 64, 75
4, 258960, Note_on_c, 0, 64, 0
4, 258960, Note_on_c, 0, 58, 0
4, 258960, Note_on_c, 0, 58, 49
4, 258960, Note_on_c, 0, 63, 49
4, 259440, Note_on_c, 0, 63, 0
4, 259440, Note_on_c, 0, 58, 0
4, 259440, Note_on_c, 0, 58, 49
4, 259440, Note_on_c, 0, 63, 49
4, 259800, Note_on_c, 0, 63, 0
4, 259800, Note_on_c, 0, 58, 0
4, 259800, Note_on_c, 0, 58, 49
4, 259800, Note_on_c, 0, 63, 49
4, 259920, Note_on_c, 0, 63, 0
4, 259920, Note_on_c, 0, 58, 0
4, 259920, Note_on_c, 0, 58, 49
4, 259920, Note_on_c, 0, 63, 49
4, 259967, Note_on_c, 0, 63, 0
4, 259967, Note_on_c, 0, 58, 0
4, 260160, Note_on_c, 0, 54, 49
4, 260160, Note_on_c, 0, 57, 49
4, 260207, Note_on_c, 0, 57, 0
4, 260207, Note_on_c, 0, 54, 0
4, 260400, Note_on_c, 0, 54, 49
4, 260400, Note_on_c, 0, 58, 49
4, 260447, Note_on_c, 0, 58, 0
4, 260447, Note_on_c, 0, 54, 0
4, 260640, Note_on_c, 0, 54, 49
4, 260640, Note_on_c, 0, 60, 49
4, 260687, Note_on_c, 0, 60, 0
4, 260687, Note_on_c, 0, 54, 0
4, 260880, Note_on_c, 0, 46, 49
4, 260880, Note_on_c, 0, 54, 49
4, 260880, Note_on_c, 0, 60, 49
4, 261120, Note_on_c, 0, 60, 0
4, 261120, Note_on_c, 0, 54, 0
4, 261120, Note_on_c, 0, 46, 0
4, 261360, Note_on_c, 0, 46, 75
4, 261360, Note_on_c, 0, 54, 75
4, 261360, Note_on_c, 0, 57, 75
4, 261840, Note_on_c, 0, 57, 0
4, 261840, Note_on_c, 0, 54, 0
4, 261840, Note_on_c, 0, 46, 0
4, 261840, Note_on_c, 0, 46, 75
4, 261840, Note_on_c, 0, 53, 75
4, 261840, Note_on_c, 0, 58, 75
4, 262320, Note_on_c, 0, 58, 0
4, 262320, Note_on_c, 0, 53, 0
4, 262320, Note_on_c, 0, 46, 0
4, 262320, Note_on_c, 0, 52, 62
4, 262320, Note_on_c, 0, 58, 62
4, 262680, Note_on_c, 0, 58, 0
4, 262680, Note_on_c, 0, 52, 0
4, 262680, Note_on_c, 0, 52, 62
4, 262680, Note_on_c, 0, 58, 62
4, 262800, Note_on_c, 0, 58, 0
4, 262800, Note_on_c, 0, 52, 0
4, 262800, Note_on_c, 0, 52, 62
4, 262800, Note_on_c, 0, 58, 62
4, 262847, Note_on_c, 0, 58, 0
4, 262847, Note_on_c, 0, 52, 0
4, 263040, Note_on_c, 0, 51, 62
4, 263040, Note_on_c, 0, 58, 62
4, 263087, Note_on_c, 0, 58, 0
4, 263087, Note_on_c, 0, 51, 0
4, 263280, Note_on_c, 0, 51, 62
4, 263280, Note_on_c, 0, 56, 62
4, 263327, Note_on_c, 0, 56, 0
4, 263327, Note_on_c, 0, 51, 0
4, 263520, Note_on_c, 0, 51, 62
4, 263520, Note_on_c, 0, 55, 62
4, 263567, Note_on_c, 0, 55, 0
4, 263567, Note_on_c, 0, 51, 0
4, 263760, Note_on_c, 0, 49, 62
4, 263760, Note_on_c, 0, 51, 62
4, 263760, Note_on_c, 0, 61, 62
4, 264000, Note_on_c, 0, 61, 0
4, 264000, Note_on_c, 0, 51, 0
4, 264000, Note_on_c, 0, 49, 0
4, 264240, Note_on_c, 0, 49, 88
4, 264240, Note_on_c, 0, 51, 88
4, 264240, Note_on_c, 0, 61, 88
4, 264720, Note_on_c, 0, 61, 0
4, 264720, Note_on_c, 0, 51, 0
4, 264720, Note_on_c, 0, 49, 0
4, 264720, Note_on_c, 0, 48, 62
4, 264720, Note_on_c, 0, 51, 62
4, 264720, Note_on_c, 0, 60, 62
4, 265200, Note_on_c, 0, 60, 0
4, 265200, Note_on_c, 0, 51, 0
4, 265200, Note_on_c, 0, 48, 0
4, 265200, Note_on_c, 0, 47, 62
4, 265200, Note_on_c, 0, 51, 62
4, 265200, Note_on_c, 0, 59, 62
4, 265440, Note_on_c, 0, 59, 0
4, 265440, Note_on_c, 0, 51, 0
4, 265440, Note_on_c, 0, 47, 0
4, 265680, Note_on_c, 0, 47, 88
4, 265680, Note_on_c, 0, 51, 88
4, 265680, Note_on_c, 0, 59, 88
4, 266160, Note_on_c, 0, 59, 0
4, 266160, Note_on_c, 0, 51, 0
4, 266160, Note_on_c, 0, 47, 0
4, 266160, Note_on_c, 0, 46, 62
4, 266160, Note_on_c, 0, 51, 62
4, 266160, Note_on_c, 0, 58, 62
4, 266640, Note_on_c, 0, 58, 0
4, 266640, Note_on_c, 0, 51, 0
4, 266640, Note_on_c, 0, 46, 0
4, 266640, Note_on_c, 0, 44, 75
4, 266640, Note_on_c, 0, 46, 75
4, 266640, Note_on_c, 0, 56, 75
4, 267000, Note_on_c, 0, 56, 0
4, 267000, Note_on_c, 0, 46, 0
4, 267000, Note_on_c, 0, 44, 0
4, 267000, Note_on_c, 0, 43, 75
4, 267000, Note_on_c, 0, 46, 75
4, 267000, Note_on_c, 0, 55, 75
4, 267120, Note_on_c, 0, 55, 0
4, 267120, Note_on_c, 0, 46, 0
4, 267120, Note_on_c, 0, 43, 0
4, 267120, Note_on_c, 0, 41, 75
4, 267120, Note_on_c, 0, 46, 75
4, 267120, Note_on_c, 0, 53, 75
4, 267360, Note_on_c, 0, 53, 0
4, 267360, Note_on_c, 0, 46, 0
4, 267360, Note_on_c, 0, 41, 0
4, 267360, Note_on_c, 0, 39, 75
4, 267360, Note_on_c, 0, 46, 75
4, 267360, Note_on_c, 0, 51, 75
4, 267600, Note_on_c, 0, 51, 0
4, 267600, Note_on_c, 0, 46, 0
4, 267600, Note_on_c, 0, 39, 0
4, 268080, Note_on_c, 0, 60, 49
4, 268080, Note_on_c, 0, 63, 49
4, 268440, Note_on_c, 0, 63, 0
4, 268440, Note_on_c, 0, 60, 0
4, 268440, Note_on_c, 0, 60, 49
4, 268440, Note_on_c, 0, 63, 49
4, 268560, Note_on_c, 0, 63, 0
4, 268560, Note_on_c, 0, 60, 0
4, 268560, Note_on_c, 0, 60, 49
4, 268560, Note_on_c, 0, 63, 49
4, 268607, Note_on_c, 0, 63, 0
4, 268607, Note_on_c, 0, 60, 0
4, 268800, Note_on_c, 0, 59, 49
4, 268800, Note_on_c, 0, 63, 49
4, 268847, Note_on_c, 0, 63, 0
4, 268847, Note_on_c, 0, 59, 0
4, 269040, Note_on_c, 0, 59, 49
4, 269040, Note_on_c, 0, 63, 49
4, 269087, Note_on_c, 0, 63, 0
4, 269087, Note_on_c, 0, 59, 0
4, 269280, Note_on_c, 0, 59, 49
4, 269280, Note_on_c, 0, 63, 49
4, 269327, Note_on_c, 0, 63, 0
4, 269327, Note_on_c, 0, 59, 0
4, 269520, Note_on_c, 0, 58, 49
4, 269520, Note_on_c, 0, 65, 49
4, 269760, Note_on_c, 0, 65, 0
4, 269760, Note_on_c, 0, 58, 0
4, 270000, Note_on_c, 0, 58, 75
4, 270000, Note_on_c, 0, 64, 75
4, 270480, Note_on_c, 0, 64, 0
4, 270480, Note_on_c, 0, 58, 0
4, 270480, Note_on_c, 0, 58, 49
4, 270480, Note_on_c, 0, 63, 49
4, 270960, Note_on_c, 0, 63, 0
4, 270960, Note_on_c, 0, 58, 0
4, 270960, Note_on_c, 0, 58, 49
4, 270960, Note_on_c, 0, 63, 49
4, 271320, Note_on_c, 0, 63, 0
4, 271320, Note_on_c, 0, 58, 0
4, 271320, Note_on_c, 0, 58, 49
4, 271320, Note_on_c, 0, 63, 49
4, 271440, Note_on_c, 0, 63, 0
4, 271440, Note_on_c, 0, 58, 0
4, 271440, Note_on_c, 0, 58, 49
4, 271440, Note_on_c, 0, 63, 49
4, 271487, Note_on_c, 0, 63, 0
4, 271487, Note_on_c, 0, 58, 0
4, 271680, Note_on_c, 0, 54, 49
4, 271680, Note_on_c, 0, 57, 49
4, 271727, Note_on_c, 0, 57, 0
4, 271727, Note_on_c, 0, 54, 0
4, 271920, Note_on_c, 0, 54, 49
4, 271920, Note_on_c, 0, 58, 49
4, 271967, Note_on_c, 0, 58, 0
4, 271967, Note_on_c, 0, 54, 0
4, 272160, Note_on_c, 0, 54, 49
4, 272160, Note_on_c, 0, 60, 49
4, 272207, Note_on_c, 0, 60, 0
4, 272207, Note_on_c, 0, 54, 0
4, 272400, Note_on_c, 0, 46, 49
4, 272400, Note_on_c, 0, 54, 49
4, 272400, Note_on_c, 0, 60, 49
4, 272640, Note_on_c, 0, 60, 0
4, 272640, Note_on_c, 0, 54, 0
4, 272640, Note_on_c, 0, 46, 0
4, 272880, Note_on_c, 0, 46, 75
4, 272880, Note_on_c, 0, 54, 75
4, 272880, Note_on_c, 0, 57, 75
4, 273360, Note_on_c, 0, 57, 0
4, 273360, Note_on_c, 0, 54, 0
4, 273360, Note_on_c, 0, 46, 0
4, 273360, Note_on_c, 0, 46, 75
4, 273360, Note_on_c, 0, 53, 75
4, 273360, Note_on_c, 0, 58, 75
4, 273840, Note_on_c, 0, 58, 0
4, 273840, Note_on_c, 0, 53, 0
4, 273840, Note_on_c, 0, 46, 0
4, 273840, Note_on_c, 0, 52, 62
4, 273840, Note_on_c, 0, 58, 62
4, 274200, Note_on_c, 0, 58, 0
4, 274200, Note_on_c, 0, 52, 0
4, 274200, Note_on_c, 0, 52, 62
4, 274200, Note_on_c, 0, 58, 62
4, 274320, Note_on_c, 0, 58, 0
4, 274320, Note_on_c, 0, 52, 0
4, 274320, Note_on_c, 0, 52, 62
4, 274320, Note_on_c, 0, 58, 62
4, 274367, Note_on_c, 0, 58, 0
4, 274367, Note_on_c, 0, 52, 0
4, 274560, Note_on_c, 0, 51, 62
4, 274560, Note_on_c, 0, 58, 62
4, 274607, Note_on_c, 0, 58, 0
4, 274607, Note_on_c, 0, 51, 0
4, 274800, Note_on_c, 0, 51, 62
4, 274800, Note_on_c, 0, 56, 62
4, 274847, Note_on_c, 0, 56, 0
4, 274847, Note_on_c, 0, 51, 0
4, 275040, Note_on_c, 0, 51, 62
4, 275040, Note_on_c, 0, 55, 62
4, 275087, Note_on_c, 0, 55, 0
4, 275087, Note_on_c, 0, 51, 0
4, 275280, Note_on_c, 0, 54, 62
4, 275280, Note_on_c, 0, 60, 62
4, 275640, Note_on_c, 0, 60, 0
4, 275640, Note_on_c, 0, 54, 0
4, 275640, Note_on_c, 0, 54, 62
4, 275640, Note_on_c, 0, 60, 62
4, 275760, Note_on_c, 0, 60, 0
4, 275760, Note_on_c, 0, 54, 0
4, 275760, Note_on_c, 0, 54, 62
4, 275760, Note_on_c, 0, 60, 62
4, 275807, Note_on_c, 0, 60, 0
4, 275807, Note_on_c, 0, 54, 0
4, 276000, Note_on_c, 0, 53, 62
4, 276000, Note_on_c, 0, 60, 62
4, 276047, Note_on_c, 0, 60, 0
4, 276047, Note_on_c, 0, 53, 0
4, 276240, Note_on_c, 0, 53, 62
4, 276240, Note_on_c, 0, 58, 62
4, 276287, Note_on_c, 0, 58, 0
4, 276287, Note_on_c, 0, 53, 0
4, 276480, Note_on_c, 0, 53, 62
4, 276480, Note_on_c, 0, 57, 62
4, 276527, Note_on_c, 0, 57, 0
4, 276527, Note_on_c, 0, 53, 0
4, 276960, Note_on_c, 0, 45, 62
4, 277080, Note_on_c, 0, 45, 0
4, 277080, Note_on_c, 0, 53, 62
4, 277200, Note_on_c, 0, 53, 0
4, 277200, Note_on_c, 0, 60, 62
4, 277440, Note_on_c, 0, 60, 0
4, 277680, Note_on_c, 0, 46, 62
4, 277800, Note_on_c, 0, 46, 0
4, 277800, Note_on_c, 0, 54, 62
4, 277920, Note_on_c, 0, 54, 0
4, 277920, Note_on_c, 0, 61, 62
4, 278160, Note_on_c, 0, 61, 0
4, 278400, Note_on_c, 0, 47, 62
4, 278520, Note_on_c, 0, 47, 0
4, 278520, Note_on_c, 0, 55, 62
4, 278640, Note_on_c, 0, 55, 0
4, 278640, Note_on_c, 0, 62, 62
4, 278880, Note_on_c, 0, 62, 0
4, 279120, Note_on_c, 0, 48, 62
4, 279240, Note_on_c, 0, 48, 0
4, 279240, Note_on_c, 0, 56, 62
4, 279360, Note_on_c, 0, 56, 0
4, 279360, Note_on_c, 0, 63, 62
4, 279600, Note_on_c, 0, 63, 0
4, 279600, Note_on_c, 0, 56, 75
4, 279600, Note_on_c, 0, 68, 75
4, 280080, Note_on_c, 0, 68, 0
4, 280080, Note_on_c, 0, 56, 0
4, 280080, Note_on_c, 0, 54, 75
4, 280080, Note_on_c, 0, 56, 75
4, 280080, Note_on_c, 0, 66, 75
4, 280320, Note_on_c, 0, 66, 0
4, 280320, Note_on_c, 0, 56, 0
4, 280320, Note_on_c, 0, 54, 0
4, 280320, Note_on_c, 0, 53, 75
4, 280320, Note_on_c, 0, 56, 75
4, 280320, Note_on_c, 0, 65, 75
4, 280800, Note_on_c, 0, 65, 0
4, 280800, Note_on_c, 0, 56, 0
4, 280800, Note_on_c, 0, 53, 0
4, 280800, Note_on_c, 0, 52, 75
4, 280800, Note_on_c, 0, 56, 75
4, 280800, Note_on_c, 0, 64, 75
4, 281040, Note_on_c, 0, 64, 0
4, 281040, Note_on_c, 0, 56, 0
4, 281040, Note_on_c, 0, 52, 0
4, 281040, Note_on_c, 0, 51, 75
4, 281040, Note_on_c, 0, 56, 75
4, 281040, Note_on_c, 0, 63, 75
4, 281520, Note_on_c, 0, 63, 0
4, 281520, Note_on_c, 0, 56, 0
4, 281520, Note_on_c, 0, 51, 0
4, 281520, Note_on_c, 0, 50, 75
4, 281520, Note_on_c, 0, 56, 75
4, 281520, Note_on_c, 0, 62, 75
4, 281760, Note_on_c, 0, 62, 0
4, 281760, Note_on_c, 0, 56, 0
4, 281760, Note_on_c, 0, 50, 0
4, 281760, Note_on_c, 0, 49, 75
4, 281760, Note_on_c, 0, 56, 75
4, 281760, Note_on_c, 0, 61, 75
4, 282000, Note_on_c, 0, 61, 0
4, 282000, Note_on_c, 0, 56, 0
4, 282000, Note_on_c, 0, 49, 0
4, 282000, Note_on_c, 0, 46, 75
4, 282000, Note_on_c, 0, 58, 75
4, 282240, Note_on_c, 0, 58, 0
4, 282240, Note_on_c, 0, 46, 0
4, 282240, Note_on_c, 0, 44, 75
4, 282240, Note_on_c, 0, 56, 75
4, 282480, Note_on_c, 0, 56, 0
4, 282480, Note_on_c, 0, 44, 0
4, 288240, Note_on_c, 0, 39, 88
4, 288240, Note_on_c, 0, 51, 88
4, 288720, Note_on_c, 0, 51, 0
4, 288720, Note_on_c, 0, 39, 0
4, 288720, Note_on_c, 0, 51, 88
4, 288720, Note_on_c, 0, 63, 88
4, 289200, Note_on_c, 0, 63, 0
4, 289200, Note_on_c, 0, 51, 0
4, 289200, Note_on_c, 0, 42, 88
4, 289200, Note_on_c, 0, 54, 88
4, 289440, Note_on_c, 0, 54, 0
4, 289440, Note_on_c, 0, 42, 0
4, 289440, Note_on_c, 0, 40, 88
4, 289440, Note_on_c, 0, 52, 88
4, 289680, Note_on_c, 0, 52, 0
4, 289680, Note_on_c, 0, 40, 0
4, 289680, Note_on_c, 0, 39, 88
4, 289680, Note_on_c, 0, 51, 88
4, 290160, Note_on_c, 0, 51, 0
4, 290160, Note_on_c, 0, 39, 0
4, 290160, Note_on_c, 0, 51, 88
4, 290160, Note_on_c, 0, 63, 88
4, 290640, Note_on_c, 0, 63, 0
4, 290640, Note_on_c, 0, 51, 0
4, 290640, Note_on_c, 0, 42, 88
4, 290640, Note_on_c, 0, 54, 88
4, 290880, Note_on_c, 0, 54, 0
4, 290880, Note_on_c, 0, 42, 0
4, 290880, Note_on_c, 0, 40, 88
4, 290880, Note_on_c, 0, 52, 88
4, 291120, Note_on_c, 0, 52, 0
4, 291120, Note_on_c, 0, 40, 0
4, 291120, Note_on_c, 0, 39, 101
4, 291120, Note_on_c, 0, 51, 101
4, 291600, Note_on_c, 0, 51, 0
4, 291600, Note_on_c, 0, 39, 0
4, 291600, Note_on_c, 0, 51, 101
4, 291600, Note_on_c, 0, 63, 101
4, 292080, Note_on_c, 0, 63, 0
4, 292080, Note_on_c, 0, 51, 0
4, 292080, Note_on_c, 0, 39, 101
4, 292080, Note_on_c, 0, 51, 101
4, 292560, Note_on_c, 0, 51, 0
4, 292560, Note_on_c, 0, 39, 0
4, 292560, Note_on_c, 0, 51, 101
4, 292560, Note_on_c, 0, 63, 101
4, 293040, Note_on_c, 0, 63, 0
4, 293040, Note_on_c, 0, 51, 0
4, 293040, Note_on_c, 0, 39, 101
4, 293040, Note_on_c, 0, 51, 101
4, 293520, Note_on_c, 0, 51, 0
4, 293520, Note_on_c, 0, 39, 0
4, 293520, Note_on_c, 0, 51, 101
4, 293520, Note_on_c, 0, 63, 101
4, 294000, Note_on_c, 0, 63, 0
4, 294000, Note_on_c, 0, 51, 0
4, 294000, Note_on_c, 0, 49, 101
4, 294000, Note_on_c, 0, 61, 101
4, 294240, Note_on_c, 0, 61, 0
4, 294240, Note_on_c, 0, 49, 0
4, 294240, Note_on_c, 0, 48, 101
4, 294240, Note_on_c, 0, 51, 101
4, 294240, Note_on_c, 0, 60, 101
4, 294720, Note_on_c, 0, 60, 0
4, 294720, Note_on_c, 0, 51, 0
4, 294720, Note_on_c, 0, 48, 0
4, 294720, Note_on_c, 0, 47, 101
4, 294720, Note_on_c, 0, 51, 101
4, 294720, Note_on_c, 0, 59, 101
4, 295200, Note_on_c, 0, 59, 0
4, 295200, Note_on_c, 0, 51, 0
4, 295200, Note_on_c, 0, 47, 0
4, 295200, Note_on_c, 0, 46, 101
4, 295200, Note_on_c, 0, 51, 101
4, 295200, Note_on_c, 0, 58, 101
4, 295680, Note_on_c, 0, 58, 0
4, 295680, Note_on_c, 0, 51, 0
4, 295680, Note_on_c, 0, 46, 0
4, 295680, Note_on_c, 0, 44, 101
4, 295680, Note_on_c, 0, 51, 101
4, 295680, Note_on_c, 0, 56, 101
4, 296160, Note_on_c, 0, 56, 0
4, 296160, Note_on_c, 0, 51, 0
4, 296160, Note_on_c, 0, 44, 0
4, 296160, Note_on_c, 0, 43, 101
4, 296160, Note_on_c, 0, 51, 101
4, 296160, Note_on_c, 0, 55, 101
4, 296640, Note_on_c, 0, 55, 0
4, 296640, Note_on_c, 0, 51, 0
4, 296640, Note_on_c, 0, 43, 0
4, 296640, Note_on_c, 0, 42, 101
4, 296640, Note_on_c, 0, 51, 101
4, 296640, Note_on_c, 0, 54, 101
4, 297120, Note_on_c, 0, 54, 0
4, 297120, Note_on_c, 0, 51, 0
4, 297120, Note_on_c, 0, 42, 0
4, 297120, Note_on_c, 0, 41, 101
4, 297120, Note_on_c, 0, 53, 101
4, 297600, Note_on_c, 0, 53, 0
4, 297600, Note_on_c, 0, 41, 0
4, 297600, Note_on_c, 0, 39, 101
4, 297600, Note_on_c, 0, 51, 101
4, 298080, Note_on_c, 0, 51, 0
4, 298080, Note_on_c, 0, 39, 0
4, 298080, Note_on_c, 0, 37, 101
4, 298080, Note_on_c, 0, 39, 101
4, 298080, Note_on_c, 0, 49, 101
4, 298560, Note_on_c, 0, 49, 0
4, 298560, Note_on_c, 0, 39, 0
4, 298560, Note_on_c, 0, 37, 0
4, 298560, Note_on_c, 0, 36, 101
4, 298560, Note_on_c, 0, 39, 101
4, 298560, Note_on_c, 0, 48, 101
4, 299040, Note_on_c, 0, 48, 0
4, 299040, Note_on_c, 0, 39, 0
4, 299040, Note_on_c, 0, 36, 0
4, 299040, Note_on_c, 0, 35, 101
4, 299040, Note_on_c, 0, 39, 101
4, 299040, Note_on_c, 0, 47, 101
4, 299520, Note_on_c, 0, 47, 0
4, 299520, Note_on_c, 0, 39, 0
4, 299520, Note_on_c, 0, 35, 0
4, 299520, Note_on_c, 0, 34, 101
4, 299520, Note_on_c, 0, 39, 101
4, 299520, Note_on_c, 0, 46, 101
4, 299760, Note_on_c, 0, 46, 0
4, 299760, Note_on_c, 0, 39, 0
4, 299760, Note_on_c, 0, 34, 0
4, 299760, Note_on_c, 0, 32, 101
4, 299760, Note_on_c, 0, 39, 101
4, 299760, Note_on_c, 0, 44, 101
4, 300000, Note_on_c, 0, 44, 0
4, 300000, Note_on_c, 0, 39, 0
4, 300000, Note_on_c, 0, 32, 0
4, 300480, Note_on_c, 0, 55, 88
4, 300720, Note_on_c, 0, 55, 0
4, 300720, Note_on_c, 0, 56, 88
4, 300960, Note_on_c, 0, 56, 0
4, 301200, Note_on_c, 0, 58, 88
4, 301680, Note_on_c, 0, 58, 0
4, 301680, Note_on_c, 0, 60, 88
4, 301920, Note_on_c, 0, 60, 0
4, 302160, Note_on_c, 0, 50, 88
4, 302400, Note_on_c, 0, 50, 0
4, 302400, Note_on_c, 0, 51, 88
4, 302640, Note_on_c, 0, 51, 0
4, 302640, Note_on_c, 0, 52, 88
4, 303120, Note_on_c, 0, 52, 0
4, 303120, Note_on_c, 0, 53, 88
4, 303360, Note_on_c, 0, 53, 0
4, 303600, Note_on_c, 0, 55, 88
4, 303840, Note_on_c, 0, 55, 0
4, 303840, Note_on_c, 0, 56, 88
4, 304080, Note_on_c, 0, 56, 0
4, 304080, Note_on_c, 0, 58, 88
4, 304560, Note_on_c, 0, 58, 0
4, 304560, Note_on_c, 0, 60, 88
4, 304800, Note_on_c, 0, 60, 0
4, 305040, Note_on_c, 0, 50, 88
4, 305280, Note_on_c, 0, 50, 0
4, 305280, Note_on_c, 0, 51, 88
4, 305520, Note_on_c, 0, 51, 0
4, 305520, Note_on_c, 0, 52, 88
4, 306000, Note_on_c, 0, 52, 0
4, 306000, Note_on_c, 0, 53, 88
4, 306240, Note_on_c, 0, 53, 0
4, 306480, Note_on_c, 0, 50, 88
4, 306720, Note_on_c, 0, 50, 0
4, 306720, Note_on_c, 0, 51, 88
4, 306960, Note_on_c, 0, 51, 0
4, 306960, Note_on_c, 0, 52, 88
4, 307440, Note_on_c, 0, 52, 0
4, 307440, Note_on_c, 0, 53, 88
4, 307680, Note_on_c, 0, 53, 0
4, 307920, Note_on_c, 0, 38, 88
4, 307920, Note_on_c, 0, 50, 88
4, 308160, Note_on_c, 0, 50, 0
4, 308160, Note_on_c, 0, 38, 0
4, 308160, Note_on_c, 0, 39, 88
4, 308160, Note_on_c, 0, 51, 88
4, 308400, Note_on_c, 0, 51, 0
4, 308400, Note_on_c, 0, 39, 0
4, 308400, Note_on_c, 0, 40, 101
4, 308400, Note_on_c, 0, 52, 101
4, 308880, Note_on_c, 0, 52, 0
4, 308880, Note_on_c, 0, 40, 0
4, 308880, Note_on_c, 0, 41, 101
4, 308880, Note_on_c, 0, 53, 101
4, 309120, Note_on_c, 0, 53, 0
4, 309120, Note_on_c, 0, 41, 0
4, 309360, Note_on_c, 0, 42, 101
4, 309360, Note_on_c, 0, 54, 101
4, 309600, Note_on_c, 0, 54, 0
4, 309600, Note_on_c, 0, 42, 0
4, 309600, Note_on_c, 0, 43, 101
4, 309600, Note_on_c, 0, 55, 101
4, 309840, Note_on_c, 0, 55, 0
4, 309840, Note_on_c, 0, 43, 0
4, 309840, Note_on_c, 0, 44, 101
4, 309840, Note_on_c, 0, 56, 101
4, 310320, Note_on_c, 0, 56, 0
4, 310320, Note_on_c, 0, 44, 0
4, 310320, Note_on_c, 0, 45, 101
4, 310320, Note_on_c, 0, 57, 101
4, 310560, Note_on_c, 0, 57, 0
4, 310560, Note_on_c, 0, 45, 0
4, 310800, Note_on_c, 0, 46, 101
4, 310800, Note_on_c, 0, 58, 101
4, 311040, Note_on_c, 0, 58, 0
4, 311040, Note_on_c, 0, 46, 0
4, 311040, Note_on_c, 0, 47, 101
4, 311040, Note_on_c, 0, 59, 101
4, 311280, Note_on_c, 0, 59, 0
4, 311280, Note_on_c, 0, 47, 0
4, 311280, Note_on_c, 0, 48, 101
4, 311280, Note_on_c, 0, 60, 101
4, 311760, Note_on_c, 0, 60, 0
4, 311760, Note_on_c, 0, 48, 0
4, 311760, Note_on_c, 0, 49, 101
4, 311760, Note_on_c, 0, 61, 101
4, 312000, Note_on_c, 0, 61, 0
4, 312000, Note_on_c, 0, 49, 0
4, 312240, Note_on_c, 0, 50, 101
4, 312240, Note_on_c, 0, 62, 101
4, 312480, Note_on_c, 0, 62, 0
4, 312480, Note_on_c, 0, 50, 0
4, 312480, Note_on_c, 0, 51, 101
4, 312480, Note_on_c, 0, 63, 101
4, 312720, Note_on_c, 0, 63, 0
4, 312720, Note_on_c, 0, 51, 0
4, 312720, Note_on_c, 0, 52, 101
4, 312720, Note_on_c, 0, 64, 101
4, 313200, Note_on_c, 0, 64, 0
4, 313200, Note_on_c, 0, 52, 0
4, 313200, Note_on_c, 0, 53, 101
4, 313200, Note_on_c, 0, 65, 101
4, 313440, Note_on_c, 0, 65, 0
4, 313440, Note_on_c, 0, 53, 0
4, 313680, Note_on_c, 0, 54, 101
4, 313680, Note_on_c, 0, 66, 101
4, 313920, Note_on_c, 0, 66, 0
4, 313920, Note_on_c, 0, 54, 0
4, 313920, Note_on_c, 0, 55, 101
4, 313920, Note_on_c, 0, 67, 101
4, 314160, Note_on_c, 0, 67, 0
4, 314160, Note_on_c, 0, 55, 0
4, 314160, Note_on_c, 0, 56, 101
4, 314160, Note_on_c, 0, 68, 101
4, 314640, Note_on_c, 0, 68, 0
4, 314640, Note_on_c, 0, 56, 0
4, 314640, Note_on_c, 0, 57, 101
4, 314640, Note_on_c, 0, 69, 101
4, 314880, Note_on_c, 0, 69, 0
4, 314880, Note_on_c, 0, 57, 0
4, 315120, Note_on_c, 0, 58, 101
4, 315120, Note_on_c, 0, 70, 101
4, 315360, Note_on_c, 0, 70, 0
4, 315360, Note_on_c, 0, 58, 0
4, 315360, Note_on_c, 0, 59, 101
4, 315360, Note_on_c, 0, 71, 101
4, 315600, Note_on_c, 0, 71, 0
4, 315600, Note_on_c, 0, 59, 0
4, 315600, Note_on_c, 0, 60, 101
4, 315600, Note_on_c, 0, 72, 101
4, 316080, Note_on_c, 0, 72, 0
4, 316080, Note_on_c, 0, 60, 0
4, 316080, Note_on_c, 0, 55, 101
4, 316080, Note_on_c, 0, 67, 101
4, 316320, Note_on_c, 0, 67, 0
4, 316320, Note_on_c, 0, 55, 0
4, 316320, Note_on_c, 0, 56, 101
4, 316320, Note_on_c, 0, 68, 101
4, 316560, Note_on_c, 0, 68, 0
4, 316560, Note_on_c, 0, 56, 0
4, 316560, Note_on_c, 0, 50, 101
4, 316560, Note_on_c, 0, 62, 101
4, 316800, Note_on_c, 0, 62, 0
4, 316800, Note_on_c, 0, 50, 0
4, 316800, Note_on_c, 0, 51, 101
4, 316800, Note_on_c, 0, 63, 101
4, 317040, Note_on_c, 0, 63, 0
4, 317040, Note_on_c, 0, 51, 0
4, 317040, Note_on_c, 0, 44, 101
4, 317040, Note_on_c, 0, 48, 101
4, 317040, Note_on_c, 0, 51, 101
4, 317040, Note_on_c, 0, 56, 101
4, 317280, Note_on_c, 0, 56, 0
4, 317280, Note_on_c, 0, 44, 0
4, 317280, Note_on_c, 0, 48, 0
4, 317280, Note_on_c, 0, 51, 0
4, 317280, Control_c, 0, 64, 127
4, 317280, Note_on_c, 0, 32, 101
4, 317400, Note_on_c, 0, 32, 0
4, 317400, Note_on_c, 0, 36, 101
4, 317520, Note_on_c, 0, 36, 0
4, 317520, Note_on_c, 0, 39, 101
4, 317520, Note_on_c, 0, 44, 101
4, 317640, Note_on_c, 0, 44, 0
4, 317640, Note_on_c, 0, 39, 0
4, 317640, Note_on_c, 0, 36, 101
4, 317760, Note_on_c, 0, 36, 0
4, 317760, Note_on_c, 0, 39, 101
4, 317880, Note_on_c, 0, 39, 0
4, 317880, Note_on_c, 0, 44, 101
4, 317880, Note_on_c, 0, 48, 101
4, 318000, Note_on_c, 0, 48, 0
4, 318000, Note_on_c, 0, 44, 0
4, 318000, Note_on_c, 0, 39, 101
4, 318120, Note_on_c, 0, 39, 0
4, 318120, Note_on_c, 0, 44, 101
4, 318240, Note_on_c, 0, 44, 0
4, 318240, Note_on_c, 0, 48, 101
4, 318240, Note_on_c, 0, 51, 101
4, 318360, Note_on_c, 0, 51, 0
4, 318360, Note_on_c, 0, 48, 0
4, 318360, Control_c, 0, 64, 0
4, 318360, Note_on_c, 0, 44, 101
4, 318480, Note_on_c, 0, 44, 0
4, 318480, Control_c, 0, 64, 127
4, 318480, Note_on_c, 0, 48, 101
4, 318600, Note_on_c, 0, 48, 0
4, 318600, Note_on_c, 0, 51, 101
4, 318600, Note_on_c, 0, 56, 101
4, 318720, Note_on_c, 0, 56, 0
4, 318720, Note_on_c, 0, 51, 0
4, 318720, Note_on_c, 0, 48, 101
4, 318840, Note_on_c, 0, 48, 0
4, 318840, Note_on_c, 0, 51, 101
4, 318960, Note_on_c, 0, 51, 0
4, 318960, Note_on_c, 0, 56, 101
4, 318960, Note_on_c, 0, 60, 101
4, 319080, Note_on_c, 0, 60, 0
4, 319080, Note_on_c, 0, 56, 0
4, 319080, Note_on_c, 0, 51, 101
4, 319200, Note_on_c, 0, 51, 0
4, 319200, Note_on_c, 0, 56, 101
4, 319320, Note_on_c, 0, 56, 0
4, 319320, Note_on_c, 0, 60, 101
4, 319320, Note_on_c, 0, 63, 101
4, 319440, Note_on_c, 0, 63, 0
4, 319440, Note_on_c, 0, 60, 0
4, 319440, Note_on_c, 0, 56, 101
4, 319560, Note_on_c, 0, 56, 0
4, 319560, Note_on_c, 0, 60, 101
4, 319680, Note_on_c, 0, 60, 0
4, 319680, Note_on_c, 0, 63, 101
4, 319680, Note_on_c, 0, 68, 101
4, 319800, Note_on_c, 0, 68, 0
4, 319800, Note_on_c, 0, 63, 0
4, 319800, Control_c, 0, 64, 0
4, 319800, Note_on_c, 0, 60, 101
4, 319920, Note_on_c, 0, 60, 0
4, 319920, Control_c, 0, 64, 127
4, 319920, Note_on_c, 0, 63, 101
4, 320040, Note_on_c, 0, 63, 0
4, 320040, Note_on_c, 0, 68, 101
4, 320040, Note_on_c, 0, 72, 101
4, 320160, Note_on_c, 0, 72, 0
4, 320160, Note_on_c, 0, 68, 0
4, 320160, Note_on_c, 0, 63, 101
4, 320280, Note_on_c, 0, 63, 0
4, 320280, Note_on_c, 0, 68, 101
4, 320400, Note_on_c, 0, 68, 0
4, 320400, Note_on_c, 0, 72, 101
4, 320400, Note_on_c, 0, 75, 101
4, 320520, Note_on_c, 0, 75, 0
4, 320520, Note_on_c, 0, 72, 0
4, 320520, Note_on_c, 0, 68, 101
4, 320640, Note_on_c, 0, 68, 0
4, 320640, Note_on_c, 0, 72, 101
4, 320760, Note_on_c, 0, 72, 0
4, 320760, Note_on_c, 0, 75, 101
4, 320760, Note_on_c, 0, 80, 101
4, 320880, Note_on_c, 0, 80, 0
4, 320880, Note_on_c, 0, 75, 0
4, 320880, Note_on_c, 0, 72, 101
4, 321000, Note_on_c, 0, 72, 0
4, 321000, Note_on_c, 0, 75, 101
4, 321120, Note_on_c, 0, 75, 0
4, 321120, Note_on_c, 0, 80, 101
4, 321240, Note_on_c, 0, 80, 0
4, 321240, Control_c, 0, 64, 0
4, 321240, Note_on_c, 0, 84, 101
4, 321360, Note_on_c, 0, 84, 0
4, 321360, Control_c, 0, 64, 127
4, 321360, Note_on_c, 0, 80, 101
4, 321360, Note_on_c, 0, 84, 101
4, 321360, Note_on_c, 0, 87, 101
4, 321600, Note_on_c, 0, 87, 0
4, 321600, Note_on_c, 0, 84, 0
4, 321600, Note_on_c, 0, 80, 0
4, 321600, Note_on_c, 0, 56, 101
4, 321600, Note_on_c, 0, 60, 101
4, 321600, Note_on_c, 0, 63, 101
4, 321600, Note_on_c, 0, 68, 101
4, 321840, Note_on_c, 0, 68, 0
4, 321840, Note_on_c, 0, 56, 0
4, 321840, Note_on_c, 0, 60, 0
4, 321840, Note_on_c, 0, 63, 0
4, 321840, Note_on_c, 0, 56, 101
4, 321840, Note_on_c, 0, 60, 101
4, 321840, Note_on_c, 0, 63, 101
4, 321840, Note_on_c, 0, 68, 101
4, 322080, Note_on_c, 0, 68, 0
4, 322080, Note_on_c, 0, 56, 0
4, 322080, Note_on_c, 0, 60, 0
4, 322080, Note_on_c, 0, 63, 0
4, 322080, Note_on_c, 0, 56, 101
4, 322080, Note_on_c, 0, 60, 101
4, 322080, Note_on_c, 0, 63, 101
4, 322080, Note_on_c, 0, 68, 101
4, 322320, Note_on_c, 0, 68, 0
4, 322320, Note_on_c, 0, 56, 0
4, 322320, Note_on_c, 0, 60, 0
4, 322320, Note_on_c, 0, 63, 0
4, 322320, Note_on_c, 0, 56, 101
4, 322320, Note_on_c, 0, 60, 101
4, 322320, Note_on_c, 0, 63, 101
4, 322320, Note_on_c, 0, 68, 101
4, 322560, Note_on_c, 0, 68, 0
4, 322560, Note_on_c, 0, 56, 0
4, 322560, Note_on_c, 0, 60, 0
4, 322560, Note_on_c, 0, 63, 0
4, 322560, Note_on_c, 0, 44, 101
4, 322560, Note_on_c, 0, 48, 101
4, 322560, Note_on_c, 0, 51, 101
4, 322560, Note_on_c, 0, 56, 101
4, 322800, Note_on_c, 0, 56, 0
4, 322800, Note_on_c, 0, 44, 0
4, 322800, Note_on_c, 0, 48, 0
4, 322800, Note_on_c, 0, 51, 0
4, 322800, Note_on_c, 0, 44, 101
4, 322800, Note_on_c, 0, 48, 101
4, 322800, Note_on_c, 0, 51, 101
4, 322800, Note_on_c, 0, 56, 101
4, 323040, Note_on_c, 0, 56, 0
4, 323040, Note_on_c, 0, 44, 0
4, 323040, Note_on_c, 0, 48, 0
4, 323040, Note_on_c, 0, 51, 0
4, 323040, Note_on_c, 0, 44, 101
4, 323040, Note_on_c, 0, 48, 101
4, 323040, Note_on_c, 0, 51, 101
4, 323040, Note_on_c, 0, 56, 101
4, 323280, Note_on_c, 0, 56, 0
4, 323280, Note_on_c, 0, 44, 0
4, 323280, Note_on_c, 0, 48, 0
4, 323280, Note_on_c, 0, 51, 0
4, 323280, Note_on_c, 0, 44, 101
4, 323280, Note_on_c, 0, 51, 101
4, 323280, Note_on_c, 0, 56, 101
4, 323280, Note_on_c, 0, 60, 101
4, 323760, Note_on_c, 0, 60, 0
4, 323760, Note_on_c, 0, 44, 0
4, 323760, Note_on_c, 0, 51, 0
4, 323760, Note_on_c, 0, 56, 0
4, 323760, Note_on_c, 0, 44, 101
4, 323760, Note_on_c, 0, 51, 101
4, 323760, Note_on_c, 0, 56, 101
4, 323760, Note_on_c, 0, 60, 101
4, 324240, Note_on_c, 0, 60, 0
4, 324240, Note_on_c, 0, 44, 0
4, 324240, Note_on_c, 0, 51, 0
4, 324240, Note_on_c, 0, 56, 0
4, 324240, Note_on_c, 0, 32, 101
4, 324240, Note_on_c, 0, 44, 101
4, 326160, Note_on_c, 0, 44, 0
4, 326160, Note_on_c, 0, 32, 0
4, 327600, Control_c, 0, 64, 0
4, 327600, End_track
5, 0, Start_track
5, 0, Title_t, "Grand Piano"
5, 0, Program_c, 0, 0
5, 0, Control_c, 0, 7, 115
5, 0, Control_c, 0, 10, 47
5, 46800, Note_on_c, 0, 44, 49
5, 46800, Note_on_c, 0, 51, 49
5, 47280, Note_on_c, 0, 51, 0
5, 47280, Note_on_c, 0, 44, 0
5, 48240, Note_on_c, 0, 44, 49
5, 48720, Note_on_c, 0, 44, 0
5, 49680, Note_on_c, 0, 44, 49
5, 49680, Note_on_c, 0, 51, 49
5, 50160, Note_on_c, 0, 51, 0
5, 50160, Note_on_c, 0, 44, 0
5, 51120, Note_on_c, 0, 44, 49
5, 51600, Note_on_c, 0, 44, 0
5, 52560, Note_on_c, 0, 48, 49
5, 52560, Note_on_c, 0, 55, 49
5, 53040, Note_on_c, 0, 55, 0
5, 53040, Note_on_c, 0, 48, 0
5, 54000, Note_on_c, 0, 48, 49
5, 54000, Note_on_c, 0, 50, 49
5, 54480, Note_on_c, 0, 50, 0
5, 54480, Note_on_c, 0, 48, 0
5, 55440, Note_on_c, 0, 48, 49
5, 55440, Note_on_c, 0, 55, 49
5, 55920, Note_on_c, 0, 55, 0
5, 55920, Note_on_c, 0, 48, 0
5, 56880, Note_on_c, 0, 46, 62
5, 57360, Note_on_c, 0, 46, 0
5, 58320, Note_on_c, 0, 49, 62
5, 58320, Note_on_c, 0, 51, 62
5, 58800, Note_on_c, 0, 51, 0
5, 58800, Note_on_c, 0, 49, 0
5, 59760, Note_on_c, 0, 48, 62
5, 59760, Note_on_c, 0, 51, 62
5, 60240, Note_on_c, 0, 51, 0
5, 60240, Note_on_c, 0, 48, 0
5, 61200, Note_on_c, 0, 51, 62
5, 61200, Note_on_c, 0, 53, 62
5, 61680, Note_on_c, 0, 53, 0
5, 61680, Note_on_c, 0, 51, 0
5, 62640, Note_on_c, 0, 49, 62
5, 62640, Note_on_c, 0, 53, 62
5, 63120, Note_on_c, 0, 53, 0
5, 63120, Note_on_c, 0, 49, 0
5, 63600, Note_on_c, 0, 51, 62
5, 63600, Note_on_c, 0, 53, 62
5, 64080, Note_on_c, 0, 53, 0
5, 64080, Note_on_c, 0, 51, 0
5, 64080, Note_on_c, 0, 49, 62
5, 64080, Note_on_c, 0, 53, 62
5, 64560, Note_on_c, 0, 53, 0
5, 64560, Note_on_c, 0, 49, 0
5, 65040, Note_on_c, 0, 51, 62
5, 65040, Note_on_c, 0, 53, 62
5, 65520, Note_on_c, 0, 53, 0
5, 65520, Note_on_c, 0, 51, 0
5, 65520, Note_on_c, 0, 49, 62
5, 65520, Note_on_c, 0, 53, 62
5, 66000, Note_on_c, 0, 53, 0
5, 66000, Note_on_c, 0, 49, 0
5, 67920, Note_on_c, 0, 51, 49
5, 68400, Note_on_c, 0, 51, 0
5, 68640, Note_on_c, 0, 51, 49
5, 69120, Note_on_c, 0, 51, 0
5, 69360, Note_on_c, 0, 46, 49
5, 69840, Note_on_c, 0, 46, 0
5, 70080, Note_on_c, 0, 46, 49
5, 70560, Note_on_c, 0, 46, 0
5, 98160, Note_on_c, 0, 41, 49
5, 98280, Note_on_c, 0, 41, 0
5, 98280, Note_on_c, 0, 49, 49
5, 98400, Note_on_c, 0, 49, 0
5, 98400, Note_on_c, 0, 56, 49
5, 98640, Note_on_c, 0, 56, 0
5, 98880, Note_on_c, 0, 42, 49
5, 99000, Note_on_c, 0, 42, 0
5, 99000, Note_on_c, 0, 50, 49
5, 99120, Note_on_c, 0, 50, 0
5, 99120, Note_on_c, 0, 57, 49
5, 99360, Note_on_c, 0, 57, 0
5, 99600, Note_on_c, 0, 43, 49
5, 99720, Note_on_c, 0, 43, 0
5, 99720, Note_on_c, 0, 51, 49
5, 99840, Note_on_c, 0, 51, 0
5, 99840, Note_on_c, 0, 58, 49
5, 100080, Note_on_c, 0, 58, 0
5, 100320, Note_on_c, 0, 44, 49
5, 100440, Note_on_c, 0, 44, 0
5, 100440, Note_on_c, 0, 52, 49
5, 100560, Note_on_c, 0, 52, 0
5, 100560, Note_on_c, 0, 59, 49
5, 100800, Note_on_c, 0, 59, 0
5, 100800, Note_on_c, 0, 52, 88
5, 100800, Note_on_c, 0, 64, 88
5, 101280, Note_on_c, 0, 64, 0
5, 101280, Note_on_c, 0, 52, 0
5, 101280, Note_on_c, 0, 50, 88
5, 101280, Note_on_c, 0, 52, 88
5, 101280, Note_on_c, 0, 62, 88
5, 101520, Note_on_c, 0, 62, 0
5, 101520, Note_on_c, 0, 52, 0
5, 101520, Note_on_c, 0, 50, 0
5, 101520, Note_on_c, 0, 49, 88
5, 101520, Note_on_c, 0, 52, 88
5, 101520, Note_on_c, 0, 61, 88
5, 102000, Note_on_c, 0, 61, 0
5, 102000, Note_on_c, 0, 52, 0
5, 102000, Note_on_c, 0, 49, 0
5, 102000, Note_on_c, 0, 48, 88
5, 102000, Note_on_c, 0, 52, 88
5, 102000, Note_on_c, 0, 60, 88
5, 102240, Note_on_c, 0, 60, 0
5, 102240, Note_on_c, 0, 52, 0
5, 102240, Note_on_c, 0, 48, 0
5, 102240, Note_on_c, 0, 47, 88
5, 102240, Note_on_c, 0, 52, 88
5, 102240, Note_on_c, 0, 59, 88
5, 102720, Note_on_c, 0, 59, 0
5, 102720, Note_on_c, 0, 52, 0
5, 102720, Note_on_c, 0, 47, 0
5, 102720, Note_on_c, 0, 46, 88
5, 102720, Note_on_c, 0, 52, 88
5, 102720, Note_on_c, 0, 58, 88
5, 102960, Note_on_c, 0, 58, 0
5, 102960, Note_on_c, 0, 52, 0
5, 102960, Note_on_c, 0, 46, 0
5, 102960, Note_on_c, 0, 45, 88
5, 102960, Note_on_c, 0, 52, 88
5, 102960, Note_on_c, 0, 57, 88
5, 103200, Note_on_c, 0, 57, 0
5, 103200, Note_on_c, 0, 52, 0
5, 103200, Note_on_c, 0, 45, 0
5, 103200, Note_on_c, 0, 42, 88
5, 103200, Note_on_c, 0, 54, 88
5, 103440, Note_on_c, 0, 54, 0
5, 103440, Note_on_c, 0, 42, 0
5, 103440, Note_on_c, 0, 40, 88
5, 103440, Note_on_c, 0, 52, 88
5, 103680, Note_on_c, 0, 52, 0
5, 103680, Note_on_c, 0, 40, 0
5, 121440, Note_on_c, 0, 49, 62
5, 122400, Note_on_c, 0, 49, 0
5, 122400, Note_on_c, 0, 43, 62
5, 122880, Note_on_c, 0, 43, 0
5, 122880, Note_on_c, 0, 48, 62
5, 123120, Note_on_c, 0, 48, 0
5, 126240, Note_on_c, 0, 51, 88
5, 126720, Note_on_c, 0, 51, 0
5, 126720, Note_on_c, 0, 53, 62
5, 126960, Note_on_c, 0, 53, 0
5, 127680, Note_on_c, 0, 48, 62
5, 128160, Note_on_c, 0, 48, 0
5, 128160, Note_on_c, 0, 49, 62
5, 128640, Note_on_c, 0, 49, 0
5, 128640, Note_on_c, 0, 46, 62
5, 129120, Note_on_c, 0, 46, 0
5, 129120, Note_on_c, 0, 46, 62
5, 129480, Note_on_c, 0, 46, 0
5, 129480, Note_on_c, 0, 43, 62
5, 129600, Note_on_c, 0, 43, 0
5, 129600, Note_on_c, 0, 43, 62
5, 130080, Note_on_c, 0, 43, 0
5, 130080, Note_on_c, 0, 41, 62
5, 130320, Note_on_c, 0, 41, 0
5, 131760, Note_on_c, 0, 48, 62
5, 132240, Note_on_c, 0, 48, 0
5, 132240, Note_on_c, 0, 44, 62
5, 132480, Note_on_c, 0, 44, 0
5, 132480, Note_on_c, 0, 51, 62
5, 132720, Note_on_c, 0, 51, 0
5, 133440, Note_on_c, 0, 64, 62
5, 133920, Note_on_c, 0, 64, 0
5, 133920, Note_on_c, 0, 63, 62
5, 134160, Note_on_c, 0, 63, 0
5, 134880, Note_on_c, 0, 52, 62
5, 135360, Note_on_c, 0, 52, 0
5, 135360, Note_on_c, 0, 51, 62
5, 135600, Note_on_c, 0, 51, 0
5, 136800, Note_on_c, 0, 49, 62
5, 137520, Note_on_c, 0, 49, 0
5, 137520, Note_on_c, 0, 48, 62
5, 138000, Note_on_c, 0, 48, 0
5, 138000, Note_on_c, 0, 56, 62
5, 138240, Note_on_c, 0, 56, 0
5, 138240, Note_on_c, 0, 51, 62
5, 138240, Note_on_c, 0, 58, 62
5, 138480, Note_on_c, 0, 58, 0
5, 138480, Note_on_c, 0, 51, 0
5, 139200, Note_on_c, 0, 61, 62
5, 139680, Note_on_c, 0, 61, 0
5, 139680, Note_on_c, 0, 60, 62
5, 139920, Note_on_c, 0, 60, 0
5, 140640, Note_on_c, 0, 56, 62
5, 141120, Note_on_c, 0, 56, 0
5, 141120, Note_on_c, 0, 55, 62
5, 141360, Note_on_c, 0, 55, 0
5, 142560, Note_on_c, 0, 53, 49
5, 142560, Note_on_c, 0, 60, 49
5, 144000, Note_on_c, 0, 60, 0
5, 144000, Note_on_c, 0, 60, 49
5, 144240, Note_on_c, 0, 60, 0
5, 144240, Note_on_c, 0, 53, 0
5, 145920, Note_on_c, 0, 49, 62
5, 146880, Note_on_c, 0, 49, 0
5, 146880, Note_on_c, 0, 48, 62
5, 147600, Note_on_c, 0, 48, 0
5, 148320, Note_on_c, 0, 53, 49
5, 148320, Note_on_c, 0, 60, 49
5, 149760, Note_on_c, 0, 60, 0
5, 149760, Note_on_c, 0, 60, 49
5, 150000, Note_on_c, 0, 60, 0
5, 150000, Note_on_c, 0, 53, 0
5, 150720, Note_on_c, 0, 51, 49
5, 151200, Note_on_c, 0, 51, 0
5, 151200, Note_on_c, 0, 56, 49
5, 151440, Note_on_c, 0, 56, 0
5, 152160, Note_on_c, 0, 48, 49
5, 152640, Note_on_c, 0, 48, 0
5, 152640, Note_on_c, 0, 53, 49
5, 152880, Note_on_c, 0, 53, 0
5, 152880, Note_on_c, 0, 49, 49
5, 153360, Note_on_c, 0, 49, 0
5, 153360, Note_on_c, 0, 49, 49
5, 153840, Note_on_c, 0, 49, 0
5, 153840, Note_on_c, 0, 49, 49
5, 154320, Note_on_c, 0, 49, 0
5, 154320, Note_on_c, 0, 48, 49
5, 154800, Note_on_c, 0, 48, 0
5, 154800, Note_on_c, 0, 47, 49
5, 155280, Note_on_c, 0, 47, 0
5, 155280, Note_on_c, 0, 48, 49
5, 155760, Note_on_c, 0, 48, 0
5, 155760, Note_on_c, 0, 49, 49
5, 156240, Note_on_c, 0, 49, 0
5, 156240, Note_on_c, 0, 49, 49
5, 156720, Note_on_c, 0, 49, 0
5, 156720, Note_on_c, 0, 49, 49
5, 157200, Note_on_c, 0, 49, 0
5, 157200, Note_on_c, 0, 48, 49
5, 157680, Note_on_c, 0, 48, 0
5, 157680, Note_on_c, 0, 47, 49
5, 158160, Note_on_c, 0, 47, 0
5, 158160, Note_on_c, 0, 46, 49
5, 158640, Note_on_c, 0, 46, 0
5, 158640, Note_on_c, 0, 51, 49
5, 159120, Note_on_c, 0, 51, 0
5, 159120, Note_on_c, 0, 53, 49
5, 159600, Note_on_c, 0, 53, 0
5, 159600, Note_on_c, 0, 55, 49
5, 160080, Note_on_c, 0, 55, 0
5, 160080, Note_on_c, 0, 56, 49
5, 160560, Note_on_c, 0, 56, 0
5, 160560, Note_on_c, 0, 57, 49
5, 161040, Note_on_c, 0, 57, 0
5, 161040, Note_on_c, 0, 58, 49
5, 161520, Note_on_c, 0, 58, 0
5, 161520, Note_on_c, 0, 51, 49
5, 162000, Note_on_c, 0, 51, 0
5, 162000, Note_on_c, 0, 53, 49
5, 162480, Note_on_c, 0, 53, 0
5, 162480, Note_on_c, 0, 55, 49
5, 162960, Note_on_c, 0, 55, 0
5, 162960, Note_on_c, 0, 56, 49
5, 163440, Note_on_c, 0, 56, 0
5, 163440, Note_on_c, 0, 57, 49
5, 163920, Note_on_c, 0, 57, 0
5, 163920, Note_on_c, 0, 58, 49
5, 164160, Note_on_c, 0, 58, 0
5, 231360, Note_on_c, 0, 44, 49
5, 231360, Note_on_c, 0, 51, 49
5, 231840, Note_on_c, 0, 51, 0
5, 231840, Note_on_c, 0, 44, 0
5, 232800, Note_on_c, 0, 44, 49
5, 233280, Note_on_c, 0, 44, 0
5, 234240, Note_on_c, 0, 44, 49
5, 234240, Note_on_c, 0, 51, 49
5, 234720, Note_on_c, 0, 51, 0
5, 234720, Note_on_c, 0, 44, 0
5, 235680, Note_on_c, 0, 44, 49
5, 236160, Note_on_c, 0, 44, 0
5, 237120, Note_on_c, 0, 48, 49
5, 237120, Note_on_c, 0, 55, 49
5, 237600, Note_on_c, 0, 55, 0
5, 237600, Note_on_c, 0, 48, 0
5, 238560, Note_on_c, 0, 48, 49
5, 238560, Note_on_c, 0, 50, 49
5, 239040, Note_on_c, 0, 50, 0
5, 239040, Note_on_c, 0, 48, 0
5, 240000, Note_on_c, 0, 48, 49
5, 240000, Note_on_c, 0, 55, 49
5, 240480, Note_on_c, 0, 55, 0
5, 240480, Note_on_c, 0, 48, 0
5, 241440, Note_on_c, 0, 46, 62
5, 241920, Note_on_c, 0, 46, 0
5, 242880, Note_on_c, 0, 49, 62
5, 242880, Note_on_c, 0, 51, 62
5, 243360, Note_on_c, 0, 51, 0
5, 243360, Note_on_c, 0, 49, 0
5, 244320, Note_on_c, 0, 48, 62
5, 244320, Note_on_c, 0, 51, 62
5, 244800, Note_on_c, 0, 51, 0
5, 244800, Note_on_c, 0, 48, 0
5, 245760, Note_on_c, 0, 51, 62
5, 245760, Note_on_c, 0, 53, 62
5, 246240, Note_on_c, 0, 53, 0
5, 246240, Note_on_c, 0, 51, 0
5, 247200, Note_on_c, 0, 49, 62
5, 247200, Note_on_c, 0, 53, 62
5, 247680, Note_on_c, 0, 53, 0
5, 247680, Note_on_c, 0, 49, 0
5, 248160, Note_on_c, 0, 51, 62
5, 248160, Note_on_c, 0, 53, 62
5, 248640, Note_on_c, 0, 53, 0
5, 248640, Note_on_c, 0, 51, 0
5, 248640, Note_on_c, 0, 49, 62
5, 248640, Note_on_c, 0, 53, 62
5, 249120, Note_on_c, 0, 53, 0
5, 249120, Note_on_c, 0, 49, 0
5, 249600, Note_on_c, 0, 51, 62
5, 249600, Note_on_c, 0, 53, 62
5, 250080, Note_on_c, 0, 53, 0
5, 250080, Note_on_c, 0, 51, 0
5, 250080, Note_on_c, 0, 49, 62
5, 250080, Note_on_c, 0, 53, 62
5, 250560, Note_on_c, 0, 53, 0
5, 250560, Note_on_c, 0, 49, 0
5, 252480, Note_on_c, 0, 51, 49
5, 252960, Note_on_c, 0, 51, 0
5, 253200, Note_on_c, 0, 51, 49
5, 253680, Note_on_c, 0, 51, 0
5, 253920, Note_on_c, 0, 46, 49
5, 254400, Note_on_c, 0, 46, 0
5, 254640, Note_on_c, 0, 46, 49
5, 255120, Note_on_c, 0, 46, 0
5, 282720, Note_on_c, 0, 41, 49
5, 282840, Note_on_c, 0, 41, 0
5, 282840, Note_on_c, 0, 49, 49
5, 282960, Note_on_c, 0, 49, 0
5, 282960, Note_on_c, 0, 56, 49
5, 283200, Note_on_c, 0, 56, 0
5, 283440, Note_on_c, 0, 42, 49
5, 283560, Note_on_c, 0, 42, 0
5, 283560, Note_on_c, 0, 50, 49
5, 283680, Note_on_c, 0, 50, 0
5, 283680, Note_on_c, 0, 57, 49
5, 283920, Note_on_c, 0, 57, 0
5, 284160, Note_on_c, 0, 43, 49
5, 284280, Note_on_c, 0, 43, 0
5, 284280, Note_on_c, 0, 51, 49
5, 284400, Note_on_c, 0, 51, 0
5, 284400, Note_on_c, 0, 58, 49
5, 284640, Note_on_c, 0, 58, 0
5, 284880, Note_on_c, 0, 44, 49
5, 285000, Note_on_c, 0, 44, 0
5, 285000, Note_on_c, 0, 52, 49
5, 285120, Note_on_c, 0, 52, 0
5, 285120, Note_on_c, 0, 59, 49
5, 285360, Note_on_c, 0, 59, 0
5, 285360, Note_on_c, 0, 52, 88
5, 285360, Note_on_c, 0, 64, 88
5, 285840, Note_on_c, 0, 64, 0
5, 285840, Note_on_c, 0, 52, 0
5, 285840, Note_on_c, 0, 50, 88
5, 285840, Note_on_c, 0, 52, 88
5, 285840, Note_on_c, 0, 62, 88
5, 286080, Note_on_c, 0, 62, 0
5, 286080, Note_on_c, 0, 52, 0
5, 286080, Note_on_c, 0, 50, 0
5, 286080, Note_on_c, 0, 49, 88
5, 286080, Note_on_c, 0, 52, 88
5, 286080, Note_on_c, 0, 61, 88
5, 286560, Note_on_c, 0, 61, 0
5, 286560, Note_on_c, 0, 52, 0
5, 286560, Note_on_c, 0, 49, 0
5, 286560, Note_on_c, 0, 48, 88
5, 286560, Note_on_c, 0, 52, 88
5, 286560, Note_on_c, 0, 60, 88
5, 286800, Note_on_c, 0, 60, 0
5, 286800, Note_on_c, 0, 52, 0
5, 286800, Note_on_c, 0, 48, 0
5, 286800, Note_on_c, 0, 47, 88
5, 286800, Note_on_c, 0, 52, 88
5, 286800, Note_on_c, 0, 59, 88
5, 287280, Note_on_c, 0, 59, 0
5, 287280, Note_on_c, 0, 52, 0
5, 287280, Note_on_c, 0, 47, 0
5, 287280, Note_on_c, 0, 46, 88
5, 287280, Note_on_c, 0, 52, 88
5, 287280, Note_on_c, 0, 58, 88
5, 287520, Note_on_c, 0, 58, 0
5, 287520, Note_on_c, 0, 52, 0
5, 287520, Note_on_c, 0, 46, 0
5, 287520, Note_on_c, 0, 45, 88
5, 287520, Note_on_c, 0, 52, 88
5, 287520, Note_on_c, 0, 57, 88
5, 287760, Note_on_c, 0, 57, 0
5, 287760, Note_on_c, 0, 52, 0
5, 287760, Note_on_c, 0, 45, 0
5, 287760, Note_on_c, 0, 42, 88
5, 287760, Note_on_c, 0, 54, 88
5, 288000, Note_on_c, 0, 54, 0
5, 288000, Note_on_c, 0, 42, 0
5, 288000, Note_on_c, 0, 40, 88
5, 288000, Note_on_c, 0, 52, 88
5, 288240, Note_on_c, 0, 52, 0
5, 288240, Note_on_c, 0, 40, 0
5, 301200, Note_on_c, 0, 49, 75
5, 301200, Note_on_c, 0, 51, 75
5, 301200, Note_on_c, 0, 55, 75
5, 301920, Note_on_c, 0, 55, 0
5, 301920, Note_on_c, 0, 51, 0
5, 301920, Note_on_c, 0, 49, 0
5, 302640, Note_on_c, 0, 44, 75
5, 302640, Note_on_c, 0, 48, 75
5, 303360, Note_on_c, 0, 48, 0
5, 303360, Note_on_c, 0, 44, 0
5, 304080, Note_on_c, 0, 49, 75
5, 304080, Note_on_c, 0, 51, 75
5, 304080, Note_on_c, 0, 55, 75
5, 304800, Note_on_c, 0, 55, 0
5, 304800, Note_on_c, 0, 51, 0
5, 304800, Note_on_c, 0, 49, 0
5, 305520, Note_on_c, 0, 44, 75
5, 305520, Note_on_c, 0, 48, 75
5, 306240, Note_on_c, 0, 48, 0
5, 306240, Note_on_c, 0, 44, 0
5, 306960, Note_on_c, 0, 44, 75
5, 306960, Note_on_c, 0, 48, 75
5, 307680, Note_on_c, 0, 48, 0
5, 307680, Note_on_c, 0, 44, 0
5, 307680, End_track
0, 0, End_of_file
