0, 0, Header, 1, 5, 480
1, 0, Start_track
1, 0, Title_t, "tchaikovsky sleeping beauty act0 3e canari qui chante"
1, 0, Copyright_t, "Adaptation for Disklavier pianos, by: Robert C. Kuhmann (c) 2012."
1, 0, Text_t, "Seq. (c) by: Segundo G. Yogore,  2006\012"
1, 0, Time_signature, 2, 2, 24, 8
1, 0, Key_signature, 2, "major"
1, 0, Tempo, 600000
1, 23040, Time_signature, 8, 2, 24, 8
1, 23040, End_track
2, 0, Start_track
2, 0, Title_t, "Grand Piano"
2, 0, Program_c, 0, 0
2, 0, Control_c, 0, 7, 115
2, 0, Control_c, 0, 10, 80
2, 480, Note_on_c, 0, 86, 62
2, 527, Note_on_c, 0, 86, 0
2, 720, Note_on_c, 0, 83, 62
2, 767, Note_on_c, 0, 83, 0
2, 960, Note_on_c, 0, 85, 62
2, 1007, Note_on_c, 0, 85, 0
2, 1200, Note_on_c, 0, 81, 62
2, 1247, Note_on_c, 0, 81, 0
2, 1440, Note_on_c, 0, 83, 62
2, 1487, Note_on_c, 0, 83, 0
2, 1680, Note_on_c, 0, 85, 62
2, 1727, Note_on_c, 0, 85, 0
2, 1920, Note_on_c, 0, 86, 62
2, 1967, Note_on_c, 0, 86, 0
2, 2160, Note_on_c, 0, 81, 62
2, 2207, Note_on_c, 0, 81, 0
2, 2400, Note_on_c, 0, 83, 62
2, 2447, Note_on_c, 0, 83, 0
2, 2640, Note_on_c, 0, 78, 62
2, 2687, Note_on_c, 0, 78, 0
2, 2880, Note_on_c, 0, 79, 62
2, 2927, Note_on_c, 0, 79, 0
2, 3120, Note_on_c, 0, 76, 62
2, 3167, Note_on_c, 0, 76, 0
2, 3360, Note_on_c, 0, 81, 62
2, 3407, Note_on_c, 0, 81, 0
2, 3600, Note_on_c, 0, 76, 62
2, 3647, Note_on_c, 0, 76, 0
2, 3840, Note_on_c, 0, 77, 62
2, 3887, Note_on_c, 0, 77, 0
2, 4080, Note_on_c, 0, 78, 62
2, 4127, Note_on_c, 0, 78, 0
2, 4320, Note_on_c, 0, 86, 62
2, 4367, Note_on_c, 0, 86, 0
2, 4560, Note_on_c, 0, 83, 62
2, 4607, Note_on_c, 0, 83, 0
2, 4800, Note_on_c, 0, 85, 62
2, 4847, Note_on_c, 0, 85, 0
2, 5040, Note_on_c, 0, 81, 62
2, 5087, Note_on_c, 0, 81, 0
2, 5280, Note_on_c, 0, 83, 62
2, 5327, Note_on_c, 0, 83, 0
2, 5520, Note_on_c, 0, 85, 62
2, 5567, Note_on_c, 0, 85, 0
2, 5760, Note_on_c, 0, 86, 62
2, 5807, Note_on_c, 0, 86, 0
2, 6000, Note_on_c, 0, 81, 62
2, 6047, Note_on_c, 0, 81, 0
2, 6240, Note_on_c, 0, 83, 62
2, 6287, Note_on_c, 0, 83, 0
2, 6480, Note_on_c, 0, 78, 62
2, 6527, Note_on_c, 0, 78, 0
2, 6720, Note_on_c, 0, 79, 62
2, 6767, Note_on_c, 0, 79, 0
2, 6960, Note_on_c, 0, 76, 62
2, 7007, Note_on_c, 0, 76, 0
2, 7200, Note_on_c, 0, 81, 62
2, 7247, Note_on_c, 0, 81, 0
2, 7440, Note_on_c, 0, 73, 62
2, 7487, Note_on_c, 0, 73, 0
2, 7680, Note_on_c, 0, 74, 62
2, 7920, Note_on_c, 0, 74, 0
2, 15840, Note_on_c, 0, 86, 88
2, 15887, Note_on_c, 0, 86, 0
2, 16080, Note_on_c, 0, 83, 88
2, 16127, Note_on_c, 0, 83, 0
2, 16320, Note_on_c, 0, 85, 88
2, 16367, Note_on_c, 0, 85, 0
2, 16560, Note_on_c, 0, 81, 88
2, 16607, Note_on_c, 0, 81, 0
2, 16800, Note_on_c, 0, 83, 88
2, 16847, Note_on_c, 0, 83, 0
2, 17040, Note_on_c, 0, 85, 88
2, 17087, Note_on_c, 0, 85, 0
2, 17280, Note_on_c, 0, 86, 88
2, 17327, Note_on_c, 0, 86, 0
2, 17520, Note_on_c, 0, 81, 88
2, 17567, Note_on_c, 0, 81, 0
2, 17760, Note_on_c, 0, 83, 88
2, 17807, Note_on_c, 0, 83, 0
2, 18000, Note_on_c, 0, 78, 88
2, 18047, Note_on_c, 0, 78, 0
2, 18240, Note_on_c, 0, 79, 88
2, 18287, Note_on_c, 0, 79, 0
2, 18480, Note_on_c, 0, 76, 88
2, 18527, Note_on_c, 0, 76, 0
2, 18720, Note_on_c, 0, 81, 88
2, 18767, Note_on_c, 0, 81, 0
2, 18960, Note_on_c, 0, 76, 88
2, 19007, Note_on_c, 0, 76, 0
2, 19200, Note_on_c, 0, 77, 88
2, 19247, Note_on_c, 0, 77, 0
2, 19440, Note_on_c, 0, 78, 88
2, 19487, Note_on_c, 0, 78, 0
2, 19680, Note_on_c, 0, 86, 88
2, 19727, Note_on_c, 0, 86, 0
2, 19920, Note_on_c, 0, 83, 88
2, 19967, Note_on_c, 0, 83, 0
2, 20160, Note_on_c, 0, 85, 88
2, 20400, Note_on_c, 0, 85, 0
2, 20400, Note_on_c, 0, 81, 88
2, 20640, Note_on_c, 0, 81, 0
2, 20640, Note_on_c, 0, 83, 88
2, 20880, Note_on_c, 0, 83, 0
2, 20880, Note_on_c, 0, 85, 88
2, 21120, Note_on_c, 0, 85, 0
2, 21120, Note_on_c, 0, 86, 88
2, 21167, Note_on_c, 0, 86, 0
2, 21360, Note_on_c, 0, 81, 88
2, 21407, Note_on_c, 0, 81, 0
2, 21600, Note_on_c, 0, 83, 88
2, 21647, Note_on_c, 0, 83, 0
2, 21840, Note_on_c, 0, 78, 88
2, 21887, Note_on_c, 0, 78, 0
2, 22080, Note_on_c, 0, 79, 88
2, 22127, Note_on_c, 0, 79, 0
2, 22320, Note_on_c, 0, 76, 88
2, 22367, Note_on_c, 0, 76, 0
2, 22560, Note_on_c, 0, 81, 88
2, 22607, Note_on_c, 0, 81, 0
2, 22800, Note_on_c, 0, 85, 88
2, 22847, Note_on_c, 0, 85, 0
2, 23040, Note_on_c, 0, 86, 88
2, 23520, Note_on_c, 0, 86, 0
2, 23520, Control_c, 0, 64, 127
2, 26400, Control_c, 0, 64, 0
2, 26400, End_track
3, 0, Start_track
3, 0, Title_t, "Grand Piano"
3, 0, Program_c, 0, 0
3, 0, Control_c, 0, 7, 115
3, 0, Control_c, 0, 10, 86
3, 480, Note_on_c, 0, 98, 62
3, 560, Note_on_c, 0, 98, 0
3, 560, Note_on_c, 0, 100, 62
3, 639, Note_on_c, 0, 100, 0
3, 639, Note_on_c, 0, 98, 62
3, 720, Note_on_c, 0, 98, 0
3, 720, Note_on_c, 0, 95, 62
3, 800, Note_on_c, 0, 95, 0
3, 800, Note_on_c, 0, 97, 62
3, 879, Note_on_c, 0, 97, 0
3, 879, Note_on_c, 0, 95, 62
3, 960, Note_on_c, 0, 95, 0
3, 960, Note_on_c, 0, 97, 62
3, 1040, Note_on_c, 0, 97, 0
3, 1040, Note_on_c, 0, 98, 62
3, 1119, Note_on_c, 0, 98, 0
3, 1119, Note_on_c, 0, 97, 62
3, 1200, Note_on_c, 0, 97, 0
3, 1200, Note_on_c, 0, 93, 62
3, 1280, Note_on_c, 0, 93, 0
3, 1280, Note_on_c, 0, 95, 62
3, 1359, Note_on_c, 0, 95, 0
3, 1359, Note_on_c, 0, 93, 62
3, 1440, Note_on_c, 0, 93, 0
3, 1440, Note_on_c, 0, 95, 62
3, 1520, Note_on_c, 0, 95, 0
3, 1520, Note_on_c, 0, 93, 62
3, 1599, Note_on_c, 0, 93, 0
3, 1599, Note_on_c, 0, 95, 62
3, 1680, Note_on_c, 0, 95, 0
3, 1680, Note_on_c, 0, 97, 62
3, 1760, Note_on_c, 0, 97, 0
3, 1760, Note_on_c, 0, 95, 62
3, 1839, Note_on_c, 0, 95, 0
3, 1839, Note_on_c, 0, 97, 62
3, 1920, Note_on_c, 0, 97, 0
3, 1920, Note_on_c, 0, 98, 62
3, 2000, Note_on_c, 0, 98, 0
3, 2000, Note_on_c, 0, 100, 62
3, 2079, Note_on_c, 0, 100, 0
3, 2079, Note_on_c, 0, 98, 62
3, 2160, Note_on_c, 0, 98, 0
3, 2160, Note_on_c, 0, 93, 62
3, 2240, Note_on_c, 0, 93, 0
3, 2240, Note_on_c, 0, 95, 62
3, 2319, Note_on_c, 0, 95, 0
3, 2319, Note_on_c, 0, 93, 62
3, 2400, Note_on_c, 0, 93, 0
3, 2400, Note_on_c, 0, 95, 62
3, 2480, Note_on_c, 0, 95, 0
3, 2480, Note_on_c, 0, 97, 62
3, 2559, Note_on_c, 0, 97, 0
3, 2559, Note_on_c, 0, 95, 62
3, 2640, Note_on_c, 0, 95, 0
3, 2640, Note_on_c, 0, 90, 62
3, 2720, Note_on_c, 0, 90, 0
3, 2720, Note_on_c, 0, 91, 62
3, 2799, Note_on_c, 0, 91, 0
3, 2799, Note_on_c, 0, 90, 62
3, 2880, Note_on_c, 0, 90, 0
3, 2880, Note_on_c, 0, 91, 62
3, 2960, Note_on_c, 0, 91, 0
3, 2960, Note_on_c, 0, 93, 62
3, 3039, Note_on_c, 0, 93, 0
3, 3039, Note_on_c, 0, 91, 62
3, 3120, Note_on_c, 0, 91, 0
3, 3120, Note_on_c, 0, 88, 62
3, 3200, Note_on_c, 0, 88, 0
3, 3200, Note_on_c, 0, 90, 62
3, 3279, Note_on_c, 0, 90, 0
3, 3279, Note_on_c, 0, 88, 62
3, 3360, Note_on_c, 0, 88, 0
3, 3360, Note_on_c, 0, 93, 62
3, 3440, Note_on_c, 0, 93, 0
3, 3440, Note_on_c, 0, 95, 62
3, 3519, Note_on_c, 0, 95, 0
3, 3519, Note_on_c, 0, 93, 62
3, 3600, Note_on_c, 0, 93, 0
3, 3600, Note_on_c, 0, 88, 62
3, 3680, Note_on_c, 0, 88, 0
3, 3680, Note_on_c, 0, 90, 62
3, 3759, Note_on_c, 0, 90, 0
3, 3759, Note_on_c, 0, 88, 62
3, 3840, Note_on_c, 0, 88, 0
3, 3840, Note_on_c, 0, 89, 62
3, 3920, Note_on_c, 0, 89, 0
3, 3920, Note_on_c, 0, 90, 62
3, 3999, Note_on_c, 0, 90, 0
3, 3999, Note_on_c, 0, 89, 62
3, 4080, Note_on_c, 0, 89, 0
3, 4080, Note_on_c, 0, 90, 62
3, 4160, Note_on_c, 0, 90, 0
3, 4160, Note_on_c, 0, 91, 62
3, 4239, Note_on_c, 0, 91, 0
3, 4239, Note_on_c, 0, 90, 62
3, 4320, Note_on_c, 0, 90, 0
3, 4320, Note_on_c, 0, 98, 62
3, 4400, Note_on_c, 0, 98, 0
3, 4400, Note_on_c, 0, 100, 62
3, 4479, Note_on_c, 0, 100, 0
3, 4479, Note_on_c, 0, 98, 62
3, 4560, Note_on_c, 0, 98, 0
3, 4560, Note_on_c, 0, 95, 62
3, 4640, Note_on_c, 0, 95, 0
3, 4640, Note_on_c, 0, 97, 62
3, 4719, Note_on_c, 0, 97, 0
3, 4719, Note_on_c, 0, 95, 62
3, 4800, Note_on_c, 0, 95, 0
3, 4800, Note_on_c, 0, 97, 62
3, 4880, Note_on_c, 0, 97, 0
3, 4880, Note_on_c, 0, 98, 62
3, 4959, Note_on_c, 0, 98, 0
3, 4959, Note_on_c, 0, 97, 62
3, 5040, Note_on_c, 0, 97, 0
3, 5040, Note_on_c, 0, 93, 62
3, 5120, Note_on_c, 0, 93, 0
3, 5120, Note_on_c, 0, 95, 62
3, 5199, Note_on_c, 0, 95, 0
3, 5199, Note_on_c, 0, 93, 62
3, 5280, Note_on_c, 0, 93, 0
3, 5280, Note_on_c, 0, 95, 62
3, 5360, Note_on_c, 0, 95, 0
3, 5360, Note_on_c, 0, 93, 62
3, 5439, Note_on_c, 0, 93, 0
3, 5439, Note_on_c, 0, 95, 62
3, 5520, Note_on_c, 0, 95, 0
3, 5520, Note_on_c, 0, 97, 62
3, 5600, Note_on_c, 0, 97, 0
3, 5600, Note_on_c, 0, 95, 62
3, 5679, Note_on_c, 0, 95, 0
3, 5679, Note_on_c, 0, 97, 62
3, 5760, Note_on_c, 0, 97, 0
3, 5760, Note_on_c, 0, 98, 62
3, 5840, Note_on_c, 0, 98, 0
3, 5840, Note_on_c, 0, 100, 62
3, 5919, Note_on_c, 0, 100, 0
3, 5919, Note_on_c, 0, 98, 62
3, 6000, Note_on_c, 0, 98, 0
3, 6000, Note_on_c, 0, 93, 62
3, 6080, Note_on_c, 0, 93, 0
3, 6080, Note_on_c, 0, 95, 62
3, 6159, Note_on_c, 0, 95, 0
3, 6159, Note_on_c, 0, 93, 62
3, 6240, Note_on_c, 0, 93, 0
3, 6240, Note_on_c, 0, 95, 62
3, 6320, Note_on_c, 0, 95, 0
3, 6320, Note_on_c, 0, 97, 62
3, 6399, Note_on_c, 0, 97, 0
3, 6399, Note_on_c, 0, 95, 62
3, 6480, Note_on_c, 0, 95, 0
3, 6480, Note_on_c, 0, 90, 62
3, 6560, Note_on_c, 0, 90, 0
3, 6560, Note_on_c, 0, 91, 62
3, 6639, Note_on_c, 0, 91, 0
3, 6639, Note_on_c, 0, 90, 62
3, 6720, Note_on_c, 0, 90, 0
3, 6720, Note_on_c, 0, 91, 62
3, 6800, Note_on_c, 0, 91, 0
3, 6800, Note_on_c, 0, 93, 62
3, 6879, Note_on_c, 0, 93, 0
3, 6879, Note_on_c, 0, 91, 62
3, 6960, Note_on_c, 0, 91, 0
3, 6960, Note_on_c, 0, 88, 62
3, 7040, Note_on_c, 0, 88, 0
3, 7040, Note_on_c, 0, 90, 62
3, 7119, Note_on_c, 0, 90, 0
3, 7119, Note_on_c, 0, 88, 62
3, 7200, Note_on_c, 0, 88, 0
3, 7200, Note_on_c, 0, 93, 62
3, 7280, Note_on_c, 0, 93, 0
3, 7280, Note_on_c, 0, 95, 62
3, 7359, Note_on_c, 0, 95, 0
3, 7359, Note_on_c, 0, 93, 62
3, 7440, Note_on_c, 0, 93, 0
3, 7440, Note_on_c, 0, 85, 62
3, 7520, Note_on_c, 0, 85, 0
3, 7520, Note_on_c, 0, 86, 62
3, 7599, Note_on_c, 0, 86, 0
3, 7599, Note_on_c, 0, 85, 62
3, 7680, Note_on_c, 0, 85, 0
3, 7680, Note_on_c, 0, 86, 62
3, 7760, Note_on_c, 0, 86, 0
3, 7760, Note_on_c, 0, 90, 62
3, 7839, Note_on_c, 0, 90, 0
3, 7839, Note_on_c, 0, 93, 62
3, 7920, Note_on_c, 0, 93, 0
3, 7920, Note_on_c, 0, 83, 75
3, 7920, Note_on_c, 0, 86, 75
3, 8000, Note_on_c, 0, 86, 0
3, 8000, Note_on_c, 0, 83, 0
3, 8000, Note_on_c, 0, 88, 75
3, 8079, Note_on_c, 0, 88, 0
3, 8079, Note_on_c, 0, 86, 75
3, 8160, Note_on_c, 0, 86, 0
3, 8160, Note_on_c, 0, 85, 75
3, 8240, Note_on_c, 0, 85, 0
3, 8240, Note_on_c, 0, 86, 75
3, 8319, Note_on_c, 0, 86, 0
3, 8319, Note_on_c, 0, 85, 75
3, 8400, Note_on_c, 0, 85, 0
3, 8400, Note_on_c, 0, 80, 75
3, 8400, Note_on_c, 0, 83, 75
3, 8480, Note_on_c, 0, 83, 0
3, 8480, Note_on_c, 0, 80, 0
3, 8480, Note_on_c, 0, 85, 75
3, 8559, Note_on_c, 0, 85, 0
3, 8559, Note_on_c, 0, 83, 75
3, 8640, Note_on_c, 0, 83, 0
3, 8640, Note_on_c, 0, 81, 75
3, 8720, Note_on_c, 0, 81, 0
3, 8720, Note_on_c, 0, 83, 75
3, 8799, Note_on_c, 0, 83, 0
3, 8799, Note_on_c, 0, 81, 75
3, 8880, Note_on_c, 0, 81, 0
3, 8880, Note_on_c, 0, 83, 75
3, 8880, Note_on_c, 0, 86, 75
3, 8960, Note_on_c, 0, 86, 0
3, 8960, Note_on_c, 0, 83, 0
3, 8960, Note_on_c, 0, 88, 75
3, 9039, Note_on_c, 0, 88, 0
3, 9039, Note_on_c, 0, 86, 75
3, 9120, Note_on_c, 0, 86, 0
3, 9120, Note_on_c, 0, 85, 75
3, 9200, Note_on_c, 0, 85, 0
3, 9200, Note_on_c, 0, 86, 75
3, 9279, Note_on_c, 0, 86, 0
3, 9279, Note_on_c, 0, 85, 75
3, 9360, Note_on_c, 0, 85, 0
3, 9360, Note_on_c, 0, 80, 75
3, 9360, Note_on_c, 0, 83, 75
3, 9440, Note_on_c, 0, 83, 0
3, 9440, Note_on_c, 0, 80, 0
3, 9440, Note_on_c, 0, 85, 75
3, 9519, Note_on_c, 0, 85, 0
3, 9519, Note_on_c, 0, 83, 75
3, 9600, Note_on_c, 0, 83, 0
3, 9600, Note_on_c, 0, 81, 75
3, 9680, Note_on_c, 0, 81, 0
3, 9680, Note_on_c, 0, 83, 75
3, 9759, Note_on_c, 0, 83, 0
3, 9759, Note_on_c, 0, 81, 75
3, 9840, Note_on_c, 0, 81, 0
3, 9840, Note_on_c, 0, 86, 88
3, 9840, Note_on_c, 0, 90, 88
3, 9920, Note_on_c, 0, 90, 0
3, 9920, Note_on_c, 0, 86, 0
3, 9920, Note_on_c, 0, 92, 88
3, 9999, Note_on_c, 0, 92, 0
3, 9999, Note_on_c, 0, 90, 88
3, 10080, Note_on_c, 0, 90, 0
3, 10080, Note_on_c, 0, 85, 88
3, 10080, Note_on_c, 0, 88, 88
3, 10160, Note_on_c, 0, 88, 0
3, 10160, Note_on_c, 0, 85, 0
3, 10160, Note_on_c, 0, 90, 88
3, 10239, Note_on_c, 0, 90, 0
3, 10239, Note_on_c, 0, 88, 88
3, 10320, Note_on_c, 0, 88, 0
3, 10320, Note_on_c, 0, 83, 88
3, 10320, Note_on_c, 0, 86, 88
3, 10400, Note_on_c, 0, 86, 0
3, 10400, Note_on_c, 0, 83, 0
3, 10400, Note_on_c, 0, 88, 88
3, 10479, Note_on_c, 0, 88, 0
3, 10479, Note_on_c, 0, 86, 88
3, 10560, Note_on_c, 0, 86, 0
3, 10560, Note_on_c, 0, 81, 88
3, 10560, Note_on_c, 0, 85, 88
3, 10640, Note_on_c, 0, 85, 0
3, 10640, Note_on_c, 0, 81, 0
3, 10640, Note_on_c, 0, 86, 88
3, 10719, Note_on_c, 0, 86, 0
3, 10719, Note_on_c, 0, 85, 88
3, 10800, Note_on_c, 0, 85, 0
3, 10800, Note_on_c, 0, 83, 88
3, 10800, Note_on_c, 0, 86, 88
3, 10880, Note_on_c, 0, 86, 0
3, 10880, Note_on_c, 0, 83, 0
3, 10880, Note_on_c, 0, 88, 88
3, 10959, Note_on_c, 0, 88, 0
3, 10959, Note_on_c, 0, 86, 88
3, 11040, Note_on_c, 0, 86, 0
3, 11040, Note_on_c, 0, 85, 88
3, 11120, Note_on_c, 0, 85, 0
3, 11120, Note_on_c, 0, 86, 88
3, 11199, Note_on_c, 0, 86, 0
3, 11199, Note_on_c, 0, 85, 88
3, 11280, Note_on_c, 0, 85, 0
3, 11280, Note_on_c, 0, 80, 88
3, 11280, Note_on_c, 0, 83, 88
3, 11360, Note_on_c, 0, 83, 0
3, 11360, Note_on_c, 0, 80, 0
3, 11360, Note_on_c, 0, 85, 88
3, 11439, Note_on_c, 0, 85, 0
3, 11439, Note_on_c, 0, 83, 88
3, 11520, Note_on_c, 0, 83, 0
3, 11520, Note_on_c, 0, 81, 88
3, 11600, Note_on_c, 0, 81, 0
3, 11600, Note_on_c, 0, 83, 88
3, 11679, Note_on_c, 0, 83, 0
3, 11679, Note_on_c, 0, 81, 88
3, 11760, Note_on_c, 0, 81, 0
3, 11760, Note_on_c, 0, 83, 75
3, 11760, Note_on_c, 0, 86, 75
3, 11840, Note_on_c, 0, 86, 0
3, 11840, Note_on_c, 0, 83, 0
3, 11840, Note_on_c, 0, 88, 75
3, 11919, Note_on_c, 0, 88, 0
3, 11919, Note_on_c, 0, 86, 75
3, 12000, Note_on_c, 0, 86, 0
3, 12000, Note_on_c, 0, 85, 75
3, 12080, Note_on_c, 0, 85, 0
3, 12080, Note_on_c, 0, 86, 75
3, 12159, Note_on_c, 0, 86, 0
3, 12159, Note_on_c, 0, 85, 75
3, 12240, Note_on_c, 0, 85, 0
3, 12240, Note_on_c, 0, 80, 75
3, 12240, Note_on_c, 0, 83, 75
3, 12320, Note_on_c, 0, 83, 0
3, 12320, Note_on_c, 0, 80, 0
3, 12320, Note_on_c, 0, 85, 75
3, 12399, Note_on_c, 0, 85, 0
3, 12399, Note_on_c, 0, 83, 75
3, 12480, Note_on_c, 0, 83, 0
3, 12480, Note_on_c, 0, 81, 75
3, 12560, Note_on_c, 0, 81, 0
3, 12560, Note_on_c, 0, 83, 75
3, 12639, Note_on_c, 0, 83, 0
3, 12639, Note_on_c, 0, 81, 75
3, 12720, Note_on_c, 0, 81, 0
3, 12720, Note_on_c, 0, 83, 75
3, 12720, Note_on_c, 0, 86, 75
3, 12800, Note_on_c, 0, 86, 0
3, 12800, Note_on_c, 0, 83, 0
3, 12800, Note_on_c, 0, 88, 75
3, 12879, Note_on_c, 0, 88, 0
3, 12879, Note_on_c, 0, 86, 75
3, 12960, Note_on_c, 0, 86, 0
3, 12960, Note_on_c, 0, 85, 75
3, 13040, Note_on_c, 0, 85, 0
3, 13040, Note_on_c, 0, 86, 75
3, 13119, Note_on_c, 0, 86, 0
3, 13119, Note_on_c, 0, 85, 75
3, 13200, Note_on_c, 0, 85, 0
3, 13200, Note_on_c, 0, 80, 75
3, 13200, Note_on_c, 0, 83, 75
3, 13280, Note_on_c, 0, 83, 0
3, 13280, Note_on_c, 0, 80, 0
3, 13280, Note_on_c, 0, 85, 75
3, 13359, Note_on_c, 0, 85, 0
3, 13359, Note_on_c, 0, 83, 75
3, 13440, Note_on_c, 0, 83, 0
3, 13440, Note_on_c, 0, 81, 75
3, 13520, Note_on_c, 0, 81, 0
3, 13520, Note_on_c, 0, 83, 75
3, 13599, Note_on_c, 0, 83, 0
3, 13599, Note_on_c, 0, 81, 75
3, 13680, Note_on_c, 0, 81, 0
3, 13680, Note_on_c, 0, 86, 88
3, 13680, Note_on_c, 0, 90, 88
3, 13760, Note_on_c, 0, 90, 0
3, 13760, Note_on_c, 0, 86, 0
3, 13760, Note_on_c, 0, 92, 88
3, 13839, Note_on_c, 0, 92, 0
3, 13839, Note_on_c, 0, 90, 88
3, 13920, Note_on_c, 0, 90, 0
3, 13920, Note_on_c, 0, 85, 88
3, 13920, Note_on_c, 0, 88, 88
3, 14000, Note_on_c, 0, 88, 0
3, 14000, Note_on_c, 0, 85, 0
3, 14000, Note_on_c, 0, 90, 88
3, 14079, Note_on_c, 0, 90, 0
3, 14079, Note_on_c, 0, 88, 88
3, 14160, Note_on_c, 0, 88, 0
3, 14160, Note_on_c, 0, 83, 88
3, 14160, Note_on_c, 0, 86, 88
3, 14240, Note_on_c, 0, 86, 0
3, 14240, Note_on_c, 0, 83, 0
3, 14240, Note_on_c, 0, 88, 88
3, 14319, Note_on_c, 0, 88, 0
3, 14319, Note_on_c, 0, 86, 88
3, 14400, Note_on_c, 0, 86, 0
3, 14400, Note_on_c, 0, 81, 88
3, 14400, Note_on_c, 0, 85, 88
3, 14480, Note_on_c, 0, 85, 0
3, 14480, Note_on_c, 0, 81, 0
3, 14480, Note_on_c, 0, 86, 88
3, 14559, Note_on_c, 0, 86, 0
3, 14559, Note_on_c, 0, 85, 88
3, 14640, Note_on_c, 0, 85, 0
3, 14640, Note_on_c, 0, 83, 88
3, 14640, Note_on_c, 0, 86, 88
3, 14720, Note_on_c, 0, 86, 0
3, 14720, Note_on_c, 0, 83, 0
3, 14720, Note_on_c, 0, 88, 88
3, 14799, Note_on_c, 0, 88, 0
3, 14799, Note_on_c, 0, 86, 88
3, 14880, Note_on_c, 0, 86, 0
3, 14880, Note_on_c, 0, 85, 88
3, 14960, Note_on_c, 0, 85, 0
3, 14960, Note_on_c, 0, 86, 88
3, 15039, Note_on_c, 0, 86, 0
3, 15039, Note_on_c, 0, 85, 88
3, 15120, Note_on_c, 0, 85, 0
3, 15120, Note_on_c, 0, 80, 88
3, 15120, Note_on_c, 0, 83, 88
3, 15200, Note_on_c, 0, 83, 0
3, 15200, Note_on_c, 0, 80, 0
3, 15200, Note_on_c, 0, 85, 88
3, 15279, Note_on_c, 0, 85, 0
3, 15279, Note_on_c, 0, 83, 88
3, 15360, Note_on_c, 0, 83, 0
3, 15360, Note_on_c, 0, 81, 88
3, 15360, Note_on_c, 0, 85, 88
3, 15440, Note_on_c, 0, 85, 0
3, 15440, Note_on_c, 0, 81, 0
3, 15440, Note_on_c, 0, 86, 88
3, 15519, Note_on_c, 0, 86, 0
3, 15519, Note_on_c, 0, 87, 88
3, 15600, Note_on_c, 0, 87, 0
3, 15600, Note_on_c, 0, 85, 88
3, 15600, Note_on_c, 0, 88, 88
3, 15680, Note_on_c, 0, 88, 0
3, 15680, Note_on_c, 0, 85, 0
3, 15680, Note_on_c, 0, 90, 88
3, 15759, Note_on_c, 0, 90, 0
3, 15759, Note_on_c, 0, 91, 88
3, 15840, Note_on_c, 0, 91, 0
3, 15840, Note_on_c, 0, 98, 88
3, 15920, Note_on_c, 0, 98, 0
3, 15920, Note_on_c, 0, 100, 88
3, 15999, Note_on_c, 0, 100, 0
3, 15999, Note_on_c, 0, 98, 88
3, 16080, Note_on_c, 0, 98, 0
3, 16080, Note_on_c, 0, 95, 88
3, 16160, Note_on_c, 0, 95, 0
3, 16160, Note_on_c, 0, 97, 88
3, 16239, Note_on_c, 0, 97, 0
3, 16239, Note_on_c, 0, 95, 88
3, 16320, Note_on_c, 0, 95, 0
3, 16320, Note_on_c, 0, 97, 88
3, 16400, Note_on_c, 0, 97, 0
3, 16400, Note_on_c, 0, 98, 88
3, 16479, Note_on_c, 0, 98, 0
3, 16479, Note_on_c, 0, 97, 88
3, 16560, Note_on_c, 0, 97, 0
3, 16560, Note_on_c, 0, 93, 88
3, 16640, Note_on_c, 0, 93, 0
3, 16640, Note_on_c, 0, 95, 88
3, 16719, Note_on_c, 0, 95, 0
3, 16719, Note_on_c, 0, 93, 88
3, 16800, Note_on_c, 0, 93, 0
3, 16800, Note_on_c, 0, 95, 88
3, 16880, Note_on_c, 0, 95, 0
3, 16880, Note_on_c, 0, 93, 88
3, 16959, Note_on_c, 0, 93, 0
3, 16959, Note_on_c, 0, 95, 88
3, 17040, Note_on_c, 0, 95, 0
3, 17040, Note_on_c, 0, 97, 88
3, 17120, Note_on_c, 0, 97, 0
3, 17120, Note_on_c, 0, 95, 88
3, 17199, Note_on_c, 0, 95, 0
3, 17199, Note_on_c, 0, 97, 88
3, 17280, Note_on_c, 0, 97, 0
3, 17280, Note_on_c, 0, 98, 88
3, 17360, Note_on_c, 0, 98, 0
3, 17360, Note_on_c, 0, 100, 88
3, 17439, Note_on_c, 0, 100, 0
3, 17439, Note_on_c, 0, 98, 88
3, 17520, Note_on_c, 0, 98, 0
3, 17520, Note_on_c, 0, 93, 88
3, 17600, Note_on_c, 0, 93, 0
3, 17600, Note_on_c, 0, 95, 88
3, 17679, Note_on_c, 0, 95, 0
3, 17679, Note_on_c, 0, 93, 88
3, 17760, Note_on_c, 0, 93, 0
3, 17760, Note_on_c, 0, 95, 88
3, 17840, Note_on_c, 0, 95, 0
3, 17840, Note_on_c, 0, 97, 88
3, 17919, Note_on_c, 0, 97, 0
3, 17919, Note_on_c, 0, 95, 88
3, 18000, Note_on_c, 0, 95, 0
3, 18000, Note_on_c, 0, 90, 88
3, 18080, Note_on_c, 0, 90, 0
3, 18080, Note_on_c, 0, 91, 88
3, 18159, Note_on_c, 0, 91, 0
3, 18159, Note_on_c, 0, 90, 88
3, 18240, Note_on_c, 0, 90, 0
3, 18240, Note_on_c, 0, 91, 88
3, 18320, Note_on_c, 0, 91, 0
3, 18320, Note_on_c, 0, 93, 88
3, 18399, Note_on_c, 0, 93, 0
3, 18399, Note_on_c, 0, 91, 88
3, 18480, Note_on_c, 0, 91, 0
3, 18480, Note_on_c, 0, 88, 88
3, 18560, Note_on_c, 0, 88, 0
3, 18560, Note_on_c, 0, 90, 88
3, 18639, Note_on_c, 0, 90, 0
3, 18639, Note_on_c, 0, 88, 88
3, 18720, Note_on_c, 0, 88, 0
3, 18720, Note_on_c, 0, 93, 88
3, 18800, Note_on_c, 0, 93, 0
3, 18800, Note_on_c, 0, 95, 88
3, 18879, Note_on_c, 0, 95, 0
3, 18879, Note_on_c, 0, 93, 88
3, 18960, Note_on_c, 0, 93, 0
3, 18960, Note_on_c, 0, 88, 88
3, 19040, Note_on_c, 0, 88, 0
3, 19040, Note_on_c, 0, 90, 88
3, 19119, Note_on_c, 0, 90, 0
3, 19119, Note_on_c, 0, 88, 88
3, 19200, Note_on_c, 0, 88, 0
3, 19200, Note_on_c, 0, 89, 88
3, 19280, Note_on_c, 0, 89, 0
3, 19280, Note_on_c, 0, 90, 88
3, 19359, Note_on_c, 0, 90, 0
3, 19359, Note_on_c, 0, 89, 88
3, 19440, Note_on_c, 0, 89, 0
3, 19440, Note_on_c, 0, 90, 88
3, 19520, Note_on_c, 0, 90, 0
3, 19520, Note_on_c, 0, 91, 88
3, 19599, Note_on_c, 0, 91, 0
3, 19599, Note_on_c, 0, 90, 88
3, 19680, Note_on_c, 0, 90, 0
3, 19680, Note_on_c, 0, 98, 88
3, 19760, Note_on_c, 0, 98, 0
3, 19760, Note_on_c, 0, 100, 88
3, 19839, Note_on_c, 0, 100, 0
3, 19839, Note_on_c, 0, 98, 88
3, 19920, Note_on_c, 0, 98, 0
3, 19920, Note_on_c, 0, 95, 88
3, 20000, Note_on_c, 0, 95, 0
3, 20000, Note_on_c, 0, 97, 88
3, 20079, Note_on_c, 0, 97, 0
3, 20079, Note_on_c, 0, 95, 88
3, 20160, Note_on_c, 0, 95, 0
3, 20160, Note_on_c, 0, 97, 88
3, 20240, Note_on_c, 0, 97, 0
3, 20240, Note_on_c, 0, 98, 88
3, 20319, Note_on_c, 0, 98, 0
3, 20319, Note_on_c, 0, 97, 88
3, 20400, Note_on_c, 0, 97, 0
3, 20400, Note_on_c, 0, 93, 88
3, 20480, Note_on_c, 0, 93, 0
3, 20480, Note_on_c, 0, 95, 88
3, 20559, Note_on_c, 0, 95, 0
3, 20559, Note_on_c, 0, 93, 88
3, 20640, Note_on_c, 0, 93, 0
3, 20640, Note_on_c, 0, 95, 88
3, 20720, Note_on_c, 0, 95, 0
3, 20720, Note_on_c, 0, 93, 88
3, 20799, Note_on_c, 0, 93, 0
3, 20799, Note_on_c, 0, 95, 88
3, 20880, Note_on_c, 0, 95, 0
3, 20880, Note_on_c, 0, 97, 88
3, 20960, Note_on_c, 0, 97, 0
3, 20960, Note_on_c, 0, 95, 88
3, 21039, Note_on_c, 0, 95, 0
3, 21039, Note_on_c, 0, 97, 88
3, 21120, Note_on_c, 0, 97, 0
3, 21120, Note_on_c, 0, 98, 88
3, 21200, Note_on_c, 0, 98, 0
3, 21200, Note_on_c, 0, 100, 88
3, 21279, Note_on_c, 0, 100, 0
3, 21279, Note_on_c, 0, 98, 88
3, 21360, Note_on_c, 0, 98, 0
3, 21360, Note_on_c, 0, 93, 88
3, 21440, Note_on_c, 0, 93, 0
3, 21440, Note_on_c, 0, 95, 88
3, 21519, Note_on_c, 0, 95, 0
3, 21519, Note_on_c, 0, 93, 88
3, 21600, Note_on_c, 0, 93, 0
3, 21600, Note_on_c, 0, 95, 88
3, 21680, Note_on_c, 0, 95, 0
3, 21680, Note_on_c, 0, 97, 88
3, 21759, Note_on_c, 0, 97, 0
3, 21759, Note_on_c, 0, 95, 88
3, 21840, Note_on_c, 0, 95, 0
3, 21840, Note_on_c, 0, 90, 88
3, 21920, Note_on_c, 0, 90, 0
3, 21920, Note_on_c, 0, 91, 88
3, 21999, Note_on_c, 0, 91, 0
3, 21999, Note_on_c, 0, 90, 88
3, 22080, Note_on_c, 0, 90, 0
3, 22080, Note_on_c, 0, 91, 88
3, 22160, Note_on_c, 0, 91, 0
3, 22160, Note_on_c, 0, 93, 88
3, 22239, Note_on_c, 0, 93, 0
3, 22239, Note_on_c, 0, 91, 88
3, 22320, Note_on_c, 0, 91, 0
3, 22320, Note_on_c, 0, 88, 88
3, 22400, Note_on_c, 0, 88, 0
3, 22400, Note_on_c, 0, 90, 88
3, 22479, Note_on_c, 0, 90, 0
3, 22479, Note_on_c, 0, 88, 88
3, 22560, Note_on_c, 0, 88, 0
3, 22560, Note_on_c, 0, 93, 88
3, 22640, Note_on_c, 0, 93, 0
3, 22640, Note_on_c, 0, 95, 88
3, 22719, Note_on_c, 0, 95, 0
3, 22719, Note_on_c, 0, 93, 88
3, 22800, Note_on_c, 0, 93, 0
3, 22800, Note_on_c, 0, 97, 88
3, 22880, Note_on_c, 0, 97, 0
3, 22880, Note_on_c, 0, 98, 88
3, 22959, Note_on_c, 0, 98, 0
3, 22959, Note_on_c, 0, 97, 88
3, 23040, Note_on_c, 0, 97, 0
3, 23040, Note_on_c, 0, 98, 88
3, 23520, Note_on_c, 0, 98, 0
3, 23520, End_track
4, 0, Start_track
4, 0, Title_t, "Grand Piano"
4, 0, Program_c, 0, 0
4, 0, Control_c, 0, 7, 115
4, 0, Control_c, 0, 10, 41
4, 480, Note_on_c, 0, 66, 67
4, 720, Note_on_c, 0, 66, 0
4, 720, Note_on_c, 0, 74, 67
4, 960, Note_on_c, 0, 74, 0
4, 960, Note_on_c, 0, 64, 67
4, 1200, Note_on_c, 0, 64, 0
4, 1200, Note_on_c, 0, 73, 67
4, 1440, Note_on_c, 0, 73, 0
4, 1440, Note_on_c, 0, 67, 67
4, 1680, Note_on_c, 0, 67, 0
4, 1680, Note_on_c, 0, 76, 67
4, 1920, Note_on_c, 0, 76, 0
4, 1920, Note_on_c, 0, 66, 67
4, 2160, Note_on_c, 0, 66, 0
4, 2160, Note_on_c, 0, 74, 67
4, 2400, Note_on_c, 0, 74, 0
4, 2400, Note_on_c, 0, 62, 67
4, 2640, Note_on_c, 0, 62, 0
4, 2640, Note_on_c, 0, 71, 67
4, 2880, Note_on_c, 0, 71, 0
4, 2880, Note_on_c, 0, 64, 67
4, 3120, Note_on_c, 0, 64, 0
4, 3120, Note_on_c, 0, 67, 67
4, 3360, Note_on_c, 0, 67, 0
4, 3360, Note_on_c, 0, 61, 67
4, 3600, Note_on_c, 0, 61, 0
4, 3600, Note_on_c, 0, 69, 67
4, 3840, Note_on_c, 0, 69, 0
4, 3840, Note_on_c, 0, 62, 67
4, 4080, Note_on_c, 0, 62, 0
4, 4080, Note_on_c, 0, 69, 67
4, 4320, Note_on_c, 0, 69, 0
4, 4320, Note_on_c, 0, 66, 67
4, 4560, Note_on_c, 0, 66, 0
4, 4560, Note_on_c, 0, 74, 67
4, 4800, Note_on_c, 0, 74, 0
4, 4800, Note_on_c, 0, 64, 67
4, 5040, Note_on_c, 0, 64, 0
4, 5040, Note_on_c, 0, 73, 67
4, 5280, Note_on_c, 0, 73, 0
4, 5280, Note_on_c, 0, 67, 67
4, 5520, Note_on_c, 0, 67, 0
4, 5520, Note_on_c, 0, 76, 67
4, 5760, Note_on_c, 0, 76, 0
4, 5760, Note_on_c, 0, 66, 67
4, 6000, Note_on_c, 0, 66, 0
4, 6000, Note_on_c, 0, 74, 67
4, 6240, Note_on_c, 0, 74, 0
4, 6240, Note_on_c, 0, 62, 67
4, 6480, Note_on_c, 0, 62, 0
4, 6480, Note_on_c, 0, 71, 67
4, 6720, Note_on_c, 0, 71, 0
4, 6720, Note_on_c, 0, 64, 67
4, 6960, Note_on_c, 0, 64, 0
4, 6960, Note_on_c, 0, 67, 67
4, 7200, Note_on_c, 0, 67, 0
4, 7200, Note_on_c, 0, 61, 67
4, 7440, Note_on_c, 0, 61, 0
4, 7440, Note_on_c, 0, 69, 67
4, 7680, Note_on_c, 0, 69, 0
4, 7680, Note_on_c, 0, 62, 67
4, 7920, Note_on_c, 0, 62, 0
4, 7920, Note_on_c, 0, 77, 80
4, 7920, Note_on_c, 0, 80, 80
4, 7967, Note_on_c, 0, 80, 0
4, 7967, Note_on_c, 0, 77, 0
4, 8160, Note_on_c, 0, 74, 80
4, 8160, Note_on_c, 0, 80, 80
4, 8207, Note_on_c, 0, 80, 0
4, 8207, Note_on_c, 0, 74, 0
4, 8400, Note_on_c, 0, 74, 80
4, 8400, Note_on_c, 0, 77, 80
4, 8447, Note_on_c, 0, 77, 0
4, 8447, Note_on_c, 0, 74, 0
4, 8640, Note_on_c, 0, 73, 80
4, 8640, Note_on_c, 0, 76, 80
4, 8687, Note_on_c, 0, 76, 0
4, 8687, Note_on_c, 0, 73, 0
4, 8880, Note_on_c, 0, 77, 80
4, 8880, Note_on_c, 0, 80, 80
4, 8927, Note_on_c, 0, 80, 0
4, 8927, Note_on_c, 0, 77, 0
4, 9120, Note_on_c, 0, 76, 80
4, 9120, Note_on_c, 0, 81, 80
4, 9167, Note_on_c, 0, 81, 0
4, 9167, Note_on_c, 0, 76, 0
4, 9360, Note_on_c, 0, 74, 80
4, 9360, Note_on_c, 0, 77, 80
4, 9407, Note_on_c, 0, 77, 0
4, 9407, Note_on_c, 0, 74, 0
4, 9600, Note_on_c, 0, 73, 80
4, 9600, Note_on_c, 0, 76, 80
4, 9647, Note_on_c, 0, 76, 0
4, 9647, Note_on_c, 0, 73, 0
4, 9840, Note_on_c, 0, 71, 80
4, 9840, Note_on_c, 0, 74, 80
4, 9840, Note_on_c, 0, 76, 80
4, 9887, Note_on_c, 0, 76, 0
4, 9887, Note_on_c, 0, 74, 0
4, 9887, Note_on_c, 0, 71, 0
4, 10080, Note_on_c, 0, 73, 80
4, 10080, Note_on_c, 0, 76, 80
4, 10127, Note_on_c, 0, 76, 0
4, 10127, Note_on_c, 0, 73, 0
4, 10320, Note_on_c, 0, 74, 80
4, 10320, Note_on_c, 0, 78, 80
4, 10367, Note_on_c, 0, 78, 0
4, 10367, Note_on_c, 0, 74, 0
4, 10560, Note_on_c, 0, 76, 80
4, 10607, Note_on_c, 0, 76, 0
4, 10800, Note_on_c, 0, 77, 80
4, 10800, Note_on_c, 0, 80, 80
4, 10847, Note_on_c, 0, 80, 0
4, 10847, Note_on_c, 0, 77, 0
4, 11040, Note_on_c, 0, 76, 80
4, 11040, Note_on_c, 0, 81, 80
4, 11087, Note_on_c, 0, 81, 0
4, 11087, Note_on_c, 0, 76, 0
4, 11280, Note_on_c, 0, 64, 80
4, 11280, Note_on_c, 0, 74, 80
4, 11280, Note_on_c, 0, 76, 80
4, 11327, Note_on_c, 0, 76, 0
4, 11327, Note_on_c, 0, 74, 0
4, 11327, Note_on_c, 0, 64, 0
4, 11520, Note_on_c, 0, 69, 80
4, 11520, Note_on_c, 0, 73, 80
4, 11520, Note_on_c, 0, 76, 80
4, 11567, Note_on_c, 0, 76, 0
4, 11567, Note_on_c, 0, 73, 0
4, 11567, Note_on_c, 0, 69, 0
4, 11760, Note_on_c, 0, 77, 80
4, 11760, Note_on_c, 0, 80, 80
4, 11807, Note_on_c, 0, 80, 0
4, 11807, Note_on_c, 0, 77, 0
4, 12000, Note_on_c, 0, 76, 80
4, 12000, Note_on_c, 0, 81, 80
4, 12047, Note_on_c, 0, 81, 0
4, 12047, Note_on_c, 0, 76, 0
4, 12240, Note_on_c, 0, 74, 80
4, 12240, Note_on_c, 0, 77, 80
4, 12287, Note_on_c, 0, 77, 0
4, 12287, Note_on_c, 0, 74, 0
4, 12480, Note_on_c, 0, 73, 80
4, 12480, Note_on_c, 0, 76, 80
4, 12527, Note_on_c, 0, 76, 0
4, 12527, Note_on_c, 0, 73, 0
4, 12720, Note_on_c, 0, 77, 80
4, 12720, Note_on_c, 0, 80, 80
4, 12767, Note_on_c, 0, 80, 0
4, 12767, Note_on_c, 0, 77, 0
4, 12960, Note_on_c, 0, 76, 80
4, 12960, Note_on_c, 0, 81, 80
4, 13007, Note_on_c, 0, 81, 0
4, 13007, Note_on_c, 0, 76, 0
4, 13200, Note_on_c, 0, 74, 80
4, 13200, Note_on_c, 0, 77, 80
4, 13247, Note_on_c, 0, 77, 0
4, 13247, Note_on_c, 0, 74, 0
4, 13440, Note_on_c, 0, 73, 80
4, 13440, Note_on_c, 0, 76, 80
4, 13487, Note_on_c, 0, 76, 0
4, 13487, Note_on_c, 0, 73, 0
4, 13680, Note_on_c, 0, 71, 80
4, 13680, Note_on_c, 0, 74, 80
4, 13680, Note_on_c, 0, 76, 80
4, 13727, Note_on_c, 0, 76, 0
4, 13727, Note_on_c, 0, 74, 0
4, 13727, Note_on_c, 0, 71, 0
4, 13920, Note_on_c, 0, 73, 80
4, 13920, Note_on_c, 0, 76, 80
4, 13967, Note_on_c, 0, 76, 0
4, 13967, Note_on_c, 0, 73, 0
4, 14160, Note_on_c, 0, 74, 80
4, 14160, Note_on_c, 0, 78, 80
4, 14207, Note_on_c, 0, 78, 0
4, 14207, Note_on_c, 0, 74, 0
4, 14400, Note_on_c, 0, 76, 80
4, 14447, Note_on_c, 0, 76, 0
4, 14640, Note_on_c, 0, 77, 80
4, 14640, Note_on_c, 0, 80, 80
4, 14687, Note_on_c, 0, 80, 0
4, 14687, Note_on_c, 0, 77, 0
4, 14880, Note_on_c, 0, 76, 80
4, 14880, Note_on_c, 0, 81, 80
4, 14927, Note_on_c, 0, 81, 0
4, 14927, Note_on_c, 0, 76, 0
4, 15120, Note_on_c, 0, 64, 80
4, 15120, Note_on_c, 0, 74, 80
4, 15120, Note_on_c, 0, 76, 80
4, 15167, Note_on_c, 0, 76, 0
4, 15167, Note_on_c, 0, 74, 0
4, 15167, Note_on_c, 0, 64, 0
4, 15360, Note_on_c, 0, 69, 80
4, 15360, Note_on_c, 0, 73, 80
4, 15360, Note_on_c, 0, 76, 80
4, 15600, Note_on_c, 0, 76, 0
4, 15600, Note_on_c, 0, 73, 0
4, 15600, Note_on_c, 0, 69, 0
4, 15840, Note_on_c, 0, 66, 80
4, 16080, Note_on_c, 0, 66, 0
4, 16080, Note_on_c, 0, 74, 80
4, 16320, Note_on_c, 0, 74, 0
4, 16320, Note_on_c, 0, 64, 80
4, 16560, Note_on_c, 0, 64, 0
4, 16560, Note_on_c, 0, 73, 80
4, 16800, Note_on_c, 0, 73, 0
4, 16800, Note_on_c, 0, 67, 80
4, 17040, Note_on_c, 0, 67, 0
4, 17040, Note_on_c, 0, 76, 80
4, 17280, Note_on_c, 0, 76, 0
4, 17280, Note_on_c, 0, 66, 80
4, 17520, Note_on_c, 0, 66, 0
4, 17520, Note_on_c, 0, 74, 80
4, 17760, Note_on_c, 0, 74, 0
4, 17760, Note_on_c, 0, 62, 80
4, 18000, Note_on_c, 0, 62, 0
4, 18000, Note_on_c, 0, 71, 80
4, 18240, Note_on_c, 0, 71, 0
4, 18240, Note_on_c, 0, 64, 80
4, 18480, Note_on_c, 0, 64, 0
4, 18480, Note_on_c, 0, 67, 80
4, 18720, Note_on_c, 0, 67, 0
4, 18720, Note_on_c, 0, 61, 80
4, 18960, Note_on_c, 0, 61, 0
4, 18960, Note_on_c, 0, 69, 80
4, 19200, Note_on_c, 0, 69, 0
4, 19200, Note_on_c, 0, 62, 80
4, 19440, Note_on_c, 0, 62, 0
4, 19440, Note_on_c, 0, 69, 80
4, 19680, Note_on_c, 0, 69, 0
4, 19680, Note_on_c, 0, 66, 80
4, 19920, Note_on_c, 0, 66, 0
4, 19920, Note_on_c, 0, 74, 80
4, 20160, Note_on_c, 0, 74, 0
4, 20160, Note_on_c, 0, 64, 80
4, 20400, Note_on_c, 0, 64, 0
4, 20400, Note_on_c, 0, 73, 80
4, 20640, Note_on_c, 0, 73, 0
4, 20640, Note_on_c, 0, 67, 80
4, 20880, Note_on_c, 0, 67, 0
4, 20880, Note_on_c, 0, 76, 80
4, 21120, Note_on_c, 0, 76, 0
4, 21120, Note_on_c, 0, 66, 80
4, 21360, Note_on_c, 0, 66, 0
4, 21360, Note_on_c, 0, 74, 80
4, 21600, Note_on_c, 0, 74, 0
4, 21600, Note_on_c, 0, 62, 80
4, 21840, Note_on_c, 0, 62, 0
4, 21840, Note_on_c, 0, 71, 80
4, 22080, Note_on_c, 0, 71, 0
4, 22080, Note_on_c, 0, 64, 80
4, 22320, Note_on_c, 0, 64, 0
4, 22320, Note_on_c, 0, 67, 80
4, 22560, Note_on_c, 0, 67, 0
4, 22560, Note_on_c, 0, 61, 80
4, 22800, Note_on_c, 0, 61, 0
4, 22800, Note_on_c, 0, 69, 80
4, 23040, Note_on_c, 0, 69, 0
4, 23040, Note_on_c, 0, 62, 80
4, 23040, Note_on_c, 0, 66, 80
4, 23040, Note_on_c, 0, 69, 80
4, 23520, Note_on_c, 0, 69, 0
4, 23520, Note_on_c, 0, 66, 0
4, 23520, Note_on_c, 0, 62, 0
4, 23520, End_track
5, 0, Start_track
5, 0, Title_t, "Grand Piano"
5, 0, Program_c, 0, 0
5, 0, Control_c, 0, 7, 115
5, 0, Control_c, 0, 10, 47
5, 0, Control_c, 0, 64, 127
5, 1440, Control_c, 0, 64, 0
5, 1440, End_track
0, 0, End_of_file
