0, 0, Header, 1, 5, 480
1, 0, Start_track
1, 0, Title_t, "tchaikovsky sleeping beauty act1 7 scene"
1, 0, Copyright_t, "Adaptation for Disklavier pianos, by: Robert C. Kuhmann (c) 2012."
1, 0, Text_t, "Seq. (c) by: Segundo G. Yogore,  2006\012"
1, 0, Time_signature, 4, 2, 24, 8
1, 0, Key_signature, 0, "major"
1, 0, Tempo, 857143
1, 32640, Time_signature, 6, 2, 24, 8
1, 35520, Time_signature, 2, 2, 24, 8
1, 35520, Tempo, 400000
1, 65280, Time_signature, 6, 3, 12, 8
1, 65280, Key_signature, 3, "major"
1, 95520, Time_signature, 8, 2, 24, 8
1, 95520, End_track
2, 0, Start_track
2, 0, Title_t, "Grand Piano"
2, 0, Program_c, 0, 0
2, 0, Control_c, 0, 7, 115
2, 0, Control_c, 0, 10, 86
2, 0, Note_on_c, 0, 70, 57
2, 720, Note_on_c, 0, 70, 0
2, 720, Note_on_c, 0, 71, 57
2, 960, Note_on_c, 0, 71, 0
2, 960, Note_on_c, 0, 72, 57
2, 1440, Note_on_c, 0, 72, 0
2, 1440, Note_on_c, 0, 74, 57
2, 1800, Note_on_c, 0, 74, 0
2, 1800, Note_on_c, 0, 75, 57
2, 1920, Note_on_c, 0, 75, 0
2, 1920, Note_on_c, 0, 77, 83
2, 2400, Note_on_c, 0, 77, 0
2, 2400, Note_on_c, 0, 78, 96
2, 2880, Note_on_c, 0, 78, 0
2, 2880, Note_on_c, 0, 79, 70
2, 3600, Note_on_c, 0, 79, 0
2, 3600, Note_on_c, 0, 74, 70
2, 3840, Note_on_c, 0, 74, 0
2, 3840, Note_on_c, 0, 77, 70
2, 4320, Note_on_c, 0, 77, 0
2, 4320, Note_on_c, 0, 75, 70
2, 4680, Note_on_c, 0, 75, 0
2, 4680, Note_on_c, 0, 74, 70
2, 4800, Note_on_c, 0, 74, 0
2, 4800, Control_c, 0, 64, 127
2, 4800, Note_on_c, 0, 72, 70
2, 4896, Note_on_c, 0, 72, 0
2, 4896, Note_on_c, 0, 74, 70
2, 4992, Note_on_c, 0, 74, 0
2, 4992, Note_on_c, 0, 72, 70
2, 5087, Note_on_c, 0, 72, 0
2, 5087, Note_on_c, 0, 71, 70
2, 5183, Note_on_c, 0, 71, 0
2, 5183, Note_on_c, 0, 72, 70
2, 5280, Note_on_c, 0, 72, 0
2, 5280, Control_c, 0, 64, 0
2, 5280, Note_on_c, 0, 81, 96
2, 5640, Note_on_c, 0, 81, 0
2, 5640, Note_on_c, 0, 79, 70
2, 5760, Note_on_c, 0, 79, 0
2, 5760, Note_on_c, 0, 72, 96
2, 6240, Note_on_c, 0, 72, 0
2, 6240, Note_on_c, 0, 72, 57
2, 6960, Note_on_c, 0, 72, 0
2, 6960, Note_on_c, 0, 72, 44
2, 7200, Note_on_c, 0, 72, 0
2, 7200, Note_on_c, 0, 74, 44
2, 7440, Note_on_c, 0, 74, 0
2, 7440, Note_on_c, 0, 75, 57
2, 7680, Note_on_c, 0, 75, 0
2, 7680, Note_on_c, 0, 77, 57
2, 8040, Note_on_c, 0, 77, 0
2, 8040, Note_on_c, 0, 79, 57
2, 8160, Note_on_c, 0, 79, 0
2, 8160, Note_on_c, 0, 77, 57
2, 8640, Note_on_c, 0, 77, 0
2, 8880, Note_on_c, 0, 72, 57
2, 9120, Note_on_c, 0, 72, 0
2, 9120, Note_on_c, 0, 74, 57
2, 9360, Note_on_c, 0, 74, 0
2, 9360, Note_on_c, 0, 75, 57
2, 9600, Note_on_c, 0, 75, 0
2, 9600, Note_on_c, 0, 77, 70
2, 9960, Note_on_c, 0, 77, 0
2, 9960, Note_on_c, 0, 79, 70
2, 10080, Note_on_c, 0, 79, 0
2, 10080, Note_on_c, 0, 77, 70
2, 10800, Note_on_c, 0, 77, 0
2, 10800, Note_on_c, 0, 77, 96
2, 11040, Note_on_c, 0, 77, 0
2, 11040, Note_on_c, 0, 77, 96
2, 11280, Note_on_c, 0, 77, 0
2, 11280, Note_on_c, 0, 77, 96
2, 11520, Note_on_c, 0, 77, 0
2, 11520, Note_on_c, 0, 77, 96
2, 12000, Note_on_c, 0, 77, 0
2, 12000, Note_on_c, 0, 76, 70
2, 12240, Note_on_c, 0, 76, 0
2, 12240, Note_on_c, 0, 74, 70
2, 12480, Note_on_c, 0, 74, 0
2, 12480, Note_on_c, 0, 72, 70
2, 12720, Note_on_c, 0, 72, 0
2, 12720, Note_on_c, 0, 72, 83
2, 12900, Note_on_c, 0, 76, 83
2, 12960, Note_on_c, 0, 76, 0
2, 12960, Note_on_c, 0, 72, 0
2, 12960, Note_on_c, 0, 74, 83
2, 13200, Note_on_c, 0, 74, 0
2, 13200, Note_on_c, 0, 72, 83
2, 13440, Note_on_c, 0, 72, 0
2, 13440, Note_on_c, 0, 81, 109
2, 13920, Note_on_c, 0, 81, 0
2, 13920, Note_on_c, 0, 80, 83
2, 14160, Note_on_c, 0, 80, 0
2, 14160, Note_on_c, 0, 78, 83
2, 14400, Note_on_c, 0, 78, 0
2, 14400, Note_on_c, 0, 76, 83
2, 14640, Note_on_c, 0, 76, 0
2, 14640, Note_on_c, 0, 76, 109
2, 14820, Note_on_c, 0, 80, 83
2, 14880, Note_on_c, 0, 80, 0
2, 14880, Note_on_c, 0, 76, 0
2, 14880, Note_on_c, 0, 78, 83
2, 15120, Note_on_c, 0, 78, 0
2, 15120, Note_on_c, 0, 76, 83
2, 15360, Note_on_c, 0, 76, 0
2, 15360, Note_on_c, 0, 69, 109
2, 15840, Note_on_c, 0, 69, 0
2, 15840, Note_on_c, 0, 68, 70
2, 16080, Note_on_c, 0, 68, 0
2, 16080, Note_on_c, 0, 66, 70
2, 16320, Note_on_c, 0, 66, 0
2, 16320, Note_on_c, 0, 64, 70
2, 16560, Note_on_c, 0, 64, 0
2, 16560, Note_on_c, 0, 64, 96
2, 16740, Note_on_c, 0, 68, 70
2, 16800, Note_on_c, 0, 68, 0
2, 16800, Note_on_c, 0, 64, 0
2, 16800, Note_on_c, 0, 66, 70
2, 17040, Note_on_c, 0, 66, 0
2, 17040, Note_on_c, 0, 64, 70
2, 17280, Note_on_c, 0, 64, 0
2, 17360, Control_c, 0, 64, 127
2, 17360, Note_on_c, 0, 69, 70
2, 17439, Note_on_c, 0, 69, 0
2, 17439, Note_on_c, 0, 72, 70
2, 17520, Note_on_c, 0, 72, 0
2, 17520, Note_on_c, 0, 75, 70
2, 17600, Note_on_c, 0, 75, 0
2, 17600, Note_on_c, 0, 77, 70
2, 17679, Note_on_c, 0, 77, 0
2, 17679, Control_c, 0, 64, 0
2, 17679, Note_on_c, 0, 81, 70
2, 17760, Note_on_c, 0, 81, 0
2, 17840, Control_c, 0, 64, 127
2, 17840, Note_on_c, 0, 72, 70
2, 17919, Note_on_c, 0, 72, 0
2, 17919, Note_on_c, 0, 75, 70
2, 18000, Note_on_c, 0, 75, 0
2, 18000, Note_on_c, 0, 77, 70
2, 18080, Note_on_c, 0, 77, 0
2, 18080, Note_on_c, 0, 81, 70
2, 18159, Note_on_c, 0, 81, 0
2, 18159, Control_c, 0, 64, 0
2, 18159, Note_on_c, 0, 84, 70
2, 18240, Note_on_c, 0, 84, 0
2, 18320, Control_c, 0, 64, 127
2, 18320, Note_on_c, 0, 77, 70
2, 18399, Note_on_c, 0, 77, 0
2, 18399, Note_on_c, 0, 81, 70
2, 18480, Note_on_c, 0, 81, 0
2, 18480, Note_on_c, 0, 84, 70
2, 18560, Note_on_c, 0, 84, 0
2, 18560, Note_on_c, 0, 87, 70
2, 18639, Note_on_c, 0, 87, 0
2, 18639, Control_c, 0, 64, 0
2, 18639, Note_on_c, 0, 89, 70
2, 18720, Note_on_c, 0, 89, 0
2, 18800, Control_c, 0, 64, 127
2, 18800, Note_on_c, 0, 77, 70
2, 18879, Note_on_c, 0, 77, 0
2, 18879, Note_on_c, 0, 81, 70
2, 18960, Note_on_c, 0, 81, 0
2, 18960, Note_on_c, 0, 84, 70
2, 19040, Note_on_c, 0, 84, 0
2, 19040, Note_on_c, 0, 87, 70
2, 19119, Note_on_c, 0, 87, 0
2, 19119, Control_c, 0, 64, 0
2, 19119, Note_on_c, 0, 89, 70
2, 19200, Note_on_c, 0, 89, 0
2, 19200, Note_on_c, 0, 73, 122
2, 19200, Note_on_c, 0, 78, 122
2, 19200, Note_on_c, 0, 82, 122
2, 19200, Note_on_c, 0, 85, 122
2, 19680, Note_on_c, 0, 85, 0
2, 19680, Note_on_c, 0, 73, 0
2, 19680, Note_on_c, 0, 78, 0
2, 19680, Note_on_c, 0, 82, 0
2, 19680, Note_on_c, 0, 70, 96
2, 19680, Note_on_c, 0, 73, 96
2, 19680, Note_on_c, 0, 78, 96
2, 19680, Note_on_c, 0, 82, 96
2, 20040, Note_on_c, 0, 82, 0
2, 20040, Note_on_c, 0, 70, 0
2, 20040, Note_on_c, 0, 73, 0
2, 20040, Note_on_c, 0, 78, 0
2, 20040, Note_on_c, 0, 68, 96
2, 20040, Note_on_c, 0, 80, 96
2, 20160, Note_on_c, 0, 80, 0
2, 20160, Note_on_c, 0, 68, 0
2, 20160, Note_on_c, 0, 66, 96
2, 20160, Note_on_c, 0, 70, 96
2, 20160, Note_on_c, 0, 73, 96
2, 20160, Note_on_c, 0, 78, 96
2, 20400, Note_on_c, 0, 78, 0
2, 20400, Note_on_c, 0, 66, 0
2, 20400, Note_on_c, 0, 70, 0
2, 20400, Note_on_c, 0, 73, 0
2, 20400, Note_on_c, 0, 66, 122
2, 20400, Note_on_c, 0, 70, 122
2, 20400, Note_on_c, 0, 73, 122
2, 20400, Note_on_c, 0, 78, 122
2, 20580, Note_on_c, 0, 82, 96
2, 20640, Note_on_c, 0, 82, 0
2, 20640, Note_on_c, 0, 73, 0
2, 20640, Note_on_c, 0, 66, 0
2, 20640, Note_on_c, 0, 70, 0
2, 20640, Note_on_c, 0, 78, 0
2, 20640, Note_on_c, 0, 68, 96
2, 20640, Note_on_c, 0, 80, 96
2, 20880, Note_on_c, 0, 80, 0
2, 20880, Note_on_c, 0, 68, 0
2, 20880, Note_on_c, 0, 66, 96
2, 20880, Note_on_c, 0, 78, 96
2, 21120, Note_on_c, 0, 78, 0
2, 21120, Note_on_c, 0, 66, 0
2, 21120, Note_on_c, 0, 75, 122
2, 21120, Note_on_c, 0, 79, 122
2, 21120, Note_on_c, 0, 82, 122
2, 21120, Note_on_c, 0, 87, 122
2, 21600, Note_on_c, 0, 87, 0
2, 21600, Note_on_c, 0, 75, 0
2, 21600, Note_on_c, 0, 79, 0
2, 21600, Note_on_c, 0, 82, 0
2, 21600, Note_on_c, 0, 70, 96
2, 21600, Note_on_c, 0, 75, 96
2, 21600, Note_on_c, 0, 79, 96
2, 21600, Note_on_c, 0, 82, 96
2, 21960, Note_on_c, 0, 82, 0
2, 21960, Note_on_c, 0, 70, 0
2, 21960, Note_on_c, 0, 75, 0
2, 21960, Note_on_c, 0, 79, 0
2, 21960, Note_on_c, 0, 68, 96
2, 21960, Note_on_c, 0, 80, 96
2, 22080, Note_on_c, 0, 80, 0
2, 22080, Note_on_c, 0, 68, 0
2, 22080, Note_on_c, 0, 67, 96
2, 22080, Note_on_c, 0, 70, 96
2, 22080, Note_on_c, 0, 75, 96
2, 22080, Note_on_c, 0, 79, 96
2, 22320, Note_on_c, 0, 79, 0
2, 22320, Note_on_c, 0, 67, 0
2, 22320, Note_on_c, 0, 70, 0
2, 22320, Note_on_c, 0, 75, 0
2, 22320, Note_on_c, 0, 67, 122
2, 22320, Note_on_c, 0, 70, 122
2, 22320, Note_on_c, 0, 75, 122
2, 22320, Note_on_c, 0, 79, 122
2, 22500, Note_on_c, 0, 82, 96
2, 22560, Note_on_c, 0, 82, 0
2, 22560, Note_on_c, 0, 75, 0
2, 22560, Note_on_c, 0, 67, 0
2, 22560, Note_on_c, 0, 70, 0
2, 22560, Note_on_c, 0, 79, 0
2, 22560, Note_on_c, 0, 68, 96
2, 22560, Note_on_c, 0, 80, 96
2, 22800, Note_on_c, 0, 80, 0
2, 22800, Note_on_c, 0, 68, 0
2, 22800, Note_on_c, 0, 67, 96
2, 22800, Note_on_c, 0, 79, 96
2, 23040, Note_on_c, 0, 79, 0
2, 23040, Note_on_c, 0, 67, 0
2, 23040, Note_on_c, 0, 76, 122
2, 23040, Note_on_c, 0, 80, 122
2, 23040, Note_on_c, 0, 83, 122
2, 23040, Note_on_c, 0, 88, 122
2, 23280, Note_on_c, 0, 88, 0
2, 23280, Note_on_c, 0, 76, 0
2, 23280, Note_on_c, 0, 80, 0
2, 23280, Note_on_c, 0, 83, 0
2, 23280, Note_on_c, 0, 71, 96
2, 23280, Note_on_c, 0, 83, 96
2, 23520, Note_on_c, 0, 83, 0
2, 23520, Note_on_c, 0, 71, 0
2, 23520, Note_on_c, 0, 68, 96
2, 23520, Note_on_c, 0, 80, 96
2, 23760, Note_on_c, 0, 80, 0
2, 23760, Note_on_c, 0, 68, 0
2, 23760, Note_on_c, 0, 64, 96
2, 23760, Note_on_c, 0, 76, 96
2, 24000, Note_on_c, 0, 76, 0
2, 24000, Note_on_c, 0, 64, 0
2, 24000, Note_on_c, 0, 76, 96
2, 24000, Note_on_c, 0, 79, 96
2, 24000, Note_on_c, 0, 84, 96
2, 24000, Note_on_c, 0, 88, 96
2, 24240, Note_on_c, 0, 88, 0
2, 24240, Note_on_c, 0, 76, 0
2, 24240, Note_on_c, 0, 79, 0
2, 24240, Note_on_c, 0, 84, 0
2, 24240, Note_on_c, 0, 72, 96
2, 24240, Note_on_c, 0, 84, 96
2, 24480, Note_on_c, 0, 84, 0
2, 24480, Note_on_c, 0, 72, 0
2, 24480, Note_on_c, 0, 67, 96
2, 24480, Note_on_c, 0, 79, 96
2, 24720, Note_on_c, 0, 79, 0
2, 24720, Note_on_c, 0, 67, 0
2, 24720, Note_on_c, 0, 64, 96
2, 24720, Note_on_c, 0, 76, 96
2, 24960, Note_on_c, 0, 76, 0
2, 24960, Note_on_c, 0, 64, 0
2, 24960, Note_on_c, 0, 77, 96
2, 24960, Note_on_c, 0, 81, 96
2, 24960, Note_on_c, 0, 84, 96
2, 24960, Note_on_c, 0, 89, 96
2, 25200, Note_on_c, 0, 89, 0
2, 25200, Note_on_c, 0, 77, 0
2, 25200, Note_on_c, 0, 81, 0
2, 25200, Note_on_c, 0, 84, 0
2, 25200, Note_on_c, 0, 72, 96
2, 25200, Note_on_c, 0, 84, 96
2, 25440, Note_on_c, 0, 84, 0
2, 25440, Note_on_c, 0, 72, 0
2, 25440, Note_on_c, 0, 69, 96
2, 25440, Note_on_c, 0, 81, 96
2, 25680, Note_on_c, 0, 81, 0
2, 25680, Note_on_c, 0, 69, 0
2, 25680, Note_on_c, 0, 65, 96
2, 25680, Note_on_c, 0, 77, 96
2, 25920, Note_on_c, 0, 77, 0
2, 25920, Note_on_c, 0, 65, 0
2, 25920, Note_on_c, 0, 78, 96
2, 25920, Note_on_c, 0, 84, 96
2, 25920, Note_on_c, 0, 87, 96
2, 25920, Note_on_c, 0, 90, 96
2, 26160, Note_on_c, 0, 90, 0
2, 26160, Note_on_c, 0, 78, 0
2, 26160, Note_on_c, 0, 84, 0
2, 26160, Note_on_c, 0, 87, 0
2, 26160, Note_on_c, 0, 75, 96
2, 26160, Note_on_c, 0, 87, 96
2, 26400, Note_on_c, 0, 87, 0
2, 26400, Note_on_c, 0, 75, 0
2, 26400, Note_on_c, 0, 72, 96
2, 26400, Note_on_c, 0, 84, 96
2, 26640, Note_on_c, 0, 84, 0
2, 26640, Note_on_c, 0, 72, 0
2, 26640, Note_on_c, 0, 66, 96
2, 26640, Note_on_c, 0, 78, 96
2, 26880, Note_on_c, 0, 78, 0
2, 26880, Note_on_c, 0, 66, 0
2, 26880, Note_on_c, 0, 79, 122
2, 26880, Note_on_c, 0, 84, 122
2, 26880, Note_on_c, 0, 87, 122
2, 26880, Note_on_c, 0, 91, 122
2, 27840, Note_on_c, 0, 91, 0
2, 27840, Note_on_c, 0, 79, 0
2, 27840, Note_on_c, 0, 84, 0
2, 27840, Note_on_c, 0, 87, 0
2, 27840, Note_on_c, 0, 75, 96
2, 27840, Note_on_c, 0, 79, 96
2, 27840, Note_on_c, 0, 84, 96
2, 27840, Note_on_c, 0, 87, 96
2, 28680, Note_on_c, 0, 87, 0
2, 28680, Note_on_c, 0, 75, 0
2, 28680, Note_on_c, 0, 79, 0
2, 28680, Note_on_c, 0, 84, 0
2, 28680, Note_on_c, 0, 72, 96
2, 28680, Note_on_c, 0, 84, 96
2, 28800, Note_on_c, 0, 84, 0
2, 28800, Note_on_c, 0, 72, 0
2, 28800, Note_on_c, 0, 67, 96
2, 28800, Note_on_c, 0, 72, 96
2, 28800, Note_on_c, 0, 75, 96
2, 28800, Note_on_c, 0, 79, 96
2, 29760, Note_on_c, 0, 79, 0
2, 29760, Note_on_c, 0, 67, 0
2, 29760, Note_on_c, 0, 72, 0
2, 29760, Note_on_c, 0, 75, 0
2, 29760, Note_on_c, 0, 63, 96
2, 29760, Note_on_c, 0, 67, 96
2, 29760, Note_on_c, 0, 72, 96
2, 29760, Note_on_c, 0, 75, 96
2, 30600, Note_on_c, 0, 75, 0
2, 30600, Note_on_c, 0, 63, 0
2, 30600, Note_on_c, 0, 67, 0
2, 30600, Note_on_c, 0, 72, 0
2, 30600, Note_on_c, 0, 60, 96
2, 30600, Note_on_c, 0, 72, 96
2, 30720, Note_on_c, 0, 72, 0
2, 30720, Note_on_c, 0, 60, 0
2, 30720, Control_c, 0, 64, 127
2, 30720, Note_on_c, 0, 55, 96
2, 30720, Note_on_c, 0, 60, 96
2, 30720, Note_on_c, 0, 63, 96
2, 30720, Note_on_c, 0, 67, 96
2, 30960, Note_on_c, 0, 67, 0
2, 30960, Note_on_c, 0, 55, 0
2, 30960, Note_on_c, 0, 60, 0
2, 30960, Note_on_c, 0, 63, 0
2, 30960, Note_on_c, 0, 55, 96
2, 30960, Note_on_c, 0, 67, 96
2, 31200, Note_on_c, 0, 67, 0
2, 31200, Note_on_c, 0, 55, 0
2, 31200, Note_on_c, 0, 60, 96
2, 31200, Note_on_c, 0, 63, 96
2, 31200, Note_on_c, 0, 67, 96
2, 31200, Note_on_c, 0, 72, 96
2, 31440, Note_on_c, 0, 72, 0
2, 31440, Note_on_c, 0, 60, 0
2, 31440, Note_on_c, 0, 63, 0
2, 31440, Note_on_c, 0, 67, 0
2, 31440, Control_c, 0, 64, 0
2, 31440, Note_on_c, 0, 63, 96
2, 31440, Note_on_c, 0, 75, 96
2, 31680, Note_on_c, 0, 75, 0
2, 31680, Note_on_c, 0, 63, 0
2, 31680, Control_c, 0, 64, 127
2, 31680, Note_on_c, 0, 67, 96
2, 31680, Note_on_c, 0, 72, 96
2, 31680, Note_on_c, 0, 75, 96
2, 31680, Note_on_c, 0, 79, 96
2, 31920, Note_on_c, 0, 79, 0
2, 31920, Note_on_c, 0, 67, 0
2, 31920, Note_on_c, 0, 72, 0
2, 31920, Note_on_c, 0, 75, 0
2, 31920, Note_on_c, 0, 63, 96
2, 31920, Note_on_c, 0, 75, 96
2, 32160, Note_on_c, 0, 75, 0
2, 32160, Note_on_c, 0, 63, 0
2, 32160, Note_on_c, 0, 67, 96
2, 32160, Note_on_c, 0, 72, 96
2, 32160, Note_on_c, 0, 75, 96
2, 32160, Note_on_c, 0, 79, 96
2, 32400, Note_on_c, 0, 79, 0
2, 32400, Note_on_c, 0, 67, 0
2, 32400, Note_on_c, 0, 72, 0
2, 32400, Note_on_c, 0, 75, 0
2, 32400, Control_c, 0, 64, 0
2, 32400, Note_on_c, 0, 72, 96
2, 32400, Note_on_c, 0, 84, 96
2, 32640, Note_on_c, 0, 84, 0
2, 32640, Note_on_c, 0, 72, 0
2, 32640, Note_on_c, 0, 75, 96
2, 32640, Note_on_c, 0, 79, 96
2, 32640, Note_on_c, 0, 84, 96
2, 32640, Note_on_c, 0, 87, 96
2, 32880, Note_on_c, 0, 87, 0
2, 32880, Note_on_c, 0, 75, 0
2, 32880, Note_on_c, 0, 79, 0
2, 32880, Note_on_c, 0, 84, 0
2, 33120, Note_on_c, 0, 74, 96
2, 33120, Note_on_c, 0, 79, 96
2, 33120, Note_on_c, 0, 83, 96
2, 33120, Note_on_c, 0, 86, 96
2, 33360, Note_on_c, 0, 86, 0
2, 33360, Note_on_c, 0, 74, 0
2, 33360, Note_on_c, 0, 79, 0
2, 33360, Note_on_c, 0, 83, 0
2, 33600, Note_on_c, 0, 67, 122
2, 35520, Note_on_c, 0, 67, 0
2, 39360, Note_on_c, 0, 71, 57
2, 39360, Note_on_c, 0, 74, 57
2, 39407, Note_on_c, 0, 74, 0
2, 39407, Note_on_c, 0, 71, 0
2, 39840, Note_on_c, 0, 70, 57
2, 39840, Note_on_c, 0, 73, 57
2, 39887, Note_on_c, 0, 73, 0
2, 39887, Note_on_c, 0, 70, 0
2, 40320, Note_on_c, 0, 71, 57
2, 40320, Note_on_c, 0, 74, 57
2, 40367, Note_on_c, 0, 74, 0
2, 40367, Note_on_c, 0, 71, 0
2, 40800, Note_on_c, 0, 73, 57
2, 40800, Note_on_c, 0, 76, 57
2, 40920, Note_on_c, 0, 76, 0
2, 40920, Note_on_c, 0, 73, 0
2, 40920, Note_on_c, 0, 74, 57
2, 41040, Note_on_c, 0, 74, 0
2, 41040, Note_on_c, 0, 70, 57
2, 41040, Note_on_c, 0, 73, 57
2, 41160, Note_on_c, 0, 73, 0
2, 41160, Note_on_c, 0, 70, 0
2, 41160, Note_on_c, 0, 76, 57
2, 41280, Note_on_c, 0, 76, 0
2, 41280, Note_on_c, 0, 71, 57
2, 41280, Note_on_c, 0, 74, 57
2, 41327, Note_on_c, 0, 74, 0
2, 41327, Note_on_c, 0, 71, 0
2, 41760, Note_on_c, 0, 70, 57
2, 41760, Note_on_c, 0, 73, 57
2, 41807, Note_on_c, 0, 73, 0
2, 41807, Note_on_c, 0, 70, 0
2, 42240, Note_on_c, 0, 71, 57
2, 42240, Note_on_c, 0, 74, 57
2, 42287, Note_on_c, 0, 74, 0
2, 42287, Note_on_c, 0, 71, 0
2, 42720, Note_on_c, 0, 73, 57
2, 42720, Note_on_c, 0, 76, 57
2, 42840, Note_on_c, 0, 76, 0
2, 42840, Note_on_c, 0, 73, 0
2, 42840, Note_on_c, 0, 74, 57
2, 42960, Note_on_c, 0, 74, 0
2, 42960, Note_on_c, 0, 70, 57
2, 42960, Note_on_c, 0, 73, 57
2, 43080, Note_on_c, 0, 73, 0
2, 43080, Note_on_c, 0, 70, 0
2, 43080, Note_on_c, 0, 76, 57
2, 43200, Note_on_c, 0, 76, 0
2, 43200, Note_on_c, 0, 71, 57
2, 43200, Note_on_c, 0, 74, 57
2, 43223, Note_on_c, 0, 74, 0
2, 43223, Note_on_c, 0, 71, 0
2, 43320, Note_on_c, 0, 76, 57
2, 43343, Note_on_c, 0, 76, 0
2, 43440, Note_on_c, 0, 70, 57
2, 43440, Note_on_c, 0, 73, 57
2, 43463, Note_on_c, 0, 73, 0
2, 43463, Note_on_c, 0, 70, 0
2, 43560, Note_on_c, 0, 76, 57
2, 43583, Note_on_c, 0, 76, 0
2, 43680, Note_on_c, 0, 71, 57
2, 43680, Note_on_c, 0, 74, 57
2, 43703, Note_on_c, 0, 74, 0
2, 43703, Note_on_c, 0, 71, 0
2, 43800, Note_on_c, 0, 76, 57
2, 43823, Note_on_c, 0, 76, 0
2, 43920, Note_on_c, 0, 70, 57
2, 43920, Note_on_c, 0, 73, 57
2, 43943, Note_on_c, 0, 73, 0
2, 43943, Note_on_c, 0, 70, 0
2, 44040, Note_on_c, 0, 76, 57
2, 44063, Note_on_c, 0, 76, 0
2, 44160, Note_on_c, 0, 71, 70
2, 44160, Note_on_c, 0, 74, 70
2, 44183, Note_on_c, 0, 74, 0
2, 44183, Note_on_c, 0, 71, 0
2, 44280, Note_on_c, 0, 76, 70
2, 44303, Note_on_c, 0, 76, 0
2, 44400, Note_on_c, 0, 70, 70
2, 44400, Note_on_c, 0, 73, 70
2, 44423, Note_on_c, 0, 73, 0
2, 44423, Note_on_c, 0, 70, 0
2, 44520, Note_on_c, 0, 76, 70
2, 44543, Note_on_c, 0, 76, 0
2, 44640, Note_on_c, 0, 71, 70
2, 44640, Note_on_c, 0, 74, 70
2, 44663, Note_on_c, 0, 74, 0
2, 44663, Note_on_c, 0, 71, 0
2, 44760, Note_on_c, 0, 76, 70
2, 44783, Note_on_c, 0, 76, 0
2, 44880, Note_on_c, 0, 70, 70
2, 44880, Note_on_c, 0, 73, 70
2, 44903, Note_on_c, 0, 73, 0
2, 44903, Note_on_c, 0, 70, 0
2, 45000, Note_on_c, 0, 76, 70
2, 45023, Note_on_c, 0, 76, 0
2, 45120, Note_on_c, 0, 71, 70
2, 45120, Note_on_c, 0, 74, 70
2, 45143, Note_on_c, 0, 74, 0
2, 45143, Note_on_c, 0, 71, 0
2, 45240, Note_on_c, 0, 76, 70
2, 45263, Note_on_c, 0, 76, 0
2, 45360, Note_on_c, 0, 77, 70
2, 45383, Note_on_c, 0, 77, 0
2, 45480, Note_on_c, 0, 79, 70
2, 45503, Note_on_c, 0, 79, 0
2, 45600, Note_on_c, 0, 81, 70
2, 45623, Note_on_c, 0, 81, 0
2, 45720, Note_on_c, 0, 83, 70
2, 45743, Note_on_c, 0, 83, 0
2, 45840, Note_on_c, 0, 84, 70
2, 45863, Note_on_c, 0, 84, 0
2, 45960, Note_on_c, 0, 86, 70
2, 45983, Note_on_c, 0, 86, 0
2, 46080, Note_on_c, 0, 76, 83
2, 46080, Note_on_c, 0, 84, 83
2, 46080, Note_on_c, 0, 88, 83
2, 46320, Note_on_c, 0, 88, 0
2, 46320, Note_on_c, 0, 84, 0
2, 46320, Note_on_c, 0, 76, 0
2, 46320, Note_on_c, 0, 71, 83
2, 46320, Note_on_c, 0, 80, 83
2, 46320, Note_on_c, 0, 83, 83
2, 46560, Note_on_c, 0, 83, 0
2, 46560, Note_on_c, 0, 80, 0
2, 46560, Note_on_c, 0, 71, 0
2, 46560, Note_on_c, 0, 72, 83
2, 46560, Note_on_c, 0, 81, 83
2, 46560, Note_on_c, 0, 84, 83
2, 46800, Note_on_c, 0, 84, 0
2, 46800, Note_on_c, 0, 81, 0
2, 46800, Note_on_c, 0, 72, 0
2, 46800, Note_on_c, 0, 74, 83
2, 46800, Note_on_c, 0, 83, 83
2, 46800, Note_on_c, 0, 86, 83
2, 47040, Note_on_c, 0, 86, 0
2, 47040, Note_on_c, 0, 83, 0
2, 47040, Note_on_c, 0, 74, 0
2, 47040, Note_on_c, 0, 76, 83
2, 47040, Note_on_c, 0, 84, 83
2, 47040, Note_on_c, 0, 88, 83
2, 47280, Note_on_c, 0, 88, 0
2, 47280, Note_on_c, 0, 84, 0
2, 47280, Note_on_c, 0, 76, 0
2, 47280, Note_on_c, 0, 71, 83
2, 47280, Note_on_c, 0, 80, 83
2, 47280, Note_on_c, 0, 83, 83
2, 47520, Note_on_c, 0, 83, 0
2, 47520, Note_on_c, 0, 80, 0
2, 47520, Note_on_c, 0, 71, 0
2, 47520, Note_on_c, 0, 72, 83
2, 47520, Note_on_c, 0, 81, 83
2, 47520, Note_on_c, 0, 84, 83
2, 47760, Note_on_c, 0, 84, 0
2, 47760, Note_on_c, 0, 81, 0
2, 47760, Note_on_c, 0, 72, 0
2, 47760, Note_on_c, 0, 74, 83
2, 47760, Note_on_c, 0, 83, 83
2, 47760, Note_on_c, 0, 86, 83
2, 48000, Note_on_c, 0, 86, 0
2, 48000, Note_on_c, 0, 83, 0
2, 48000, Note_on_c, 0, 74, 0
2, 48000, Note_on_c, 0, 76, 83
2, 48000, Note_on_c, 0, 84, 83
2, 48000, Note_on_c, 0, 88, 83
2, 48240, Note_on_c, 0, 88, 0
2, 48240, Note_on_c, 0, 84, 0
2, 48240, Note_on_c, 0, 76, 0
2, 48240, Note_on_c, 0, 71, 83
2, 48240, Note_on_c, 0, 80, 83
2, 48240, Note_on_c, 0, 83, 83
2, 48480, Note_on_c, 0, 83, 0
2, 48480, Note_on_c, 0, 80, 0
2, 48480, Note_on_c, 0, 71, 0
2, 48480, Note_on_c, 0, 72, 83
2, 48480, Note_on_c, 0, 81, 83
2, 48480, Note_on_c, 0, 84, 83
2, 48720, Note_on_c, 0, 84, 0
2, 48720, Note_on_c, 0, 81, 0
2, 48720, Note_on_c, 0, 72, 0
2, 48720, Note_on_c, 0, 74, 83
2, 48720, Note_on_c, 0, 83, 83
2, 48720, Note_on_c, 0, 86, 83
2, 48960, Note_on_c, 0, 86, 0
2, 48960, Note_on_c, 0, 83, 0
2, 48960, Note_on_c, 0, 74, 0
2, 48960, Note_on_c, 0, 76, 83
2, 48960, Note_on_c, 0, 84, 83
2, 48960, Note_on_c, 0, 88, 83
2, 49200, Note_on_c, 0, 88, 0
2, 49200, Note_on_c, 0, 84, 0
2, 49200, Note_on_c, 0, 76, 0
2, 49200, Note_on_c, 0, 71, 83
2, 49200, Note_on_c, 0, 80, 83
2, 49200, Note_on_c, 0, 83, 83
2, 49440, Note_on_c, 0, 83, 0
2, 49440, Note_on_c, 0, 80, 0
2, 49440, Note_on_c, 0, 71, 0
2, 49440, Note_on_c, 0, 72, 83
2, 49440, Note_on_c, 0, 81, 83
2, 49440, Note_on_c, 0, 84, 83
2, 49680, Note_on_c, 0, 84, 0
2, 49680, Note_on_c, 0, 81, 0
2, 49680, Note_on_c, 0, 72, 0
2, 49680, Note_on_c, 0, 74, 83
2, 49680, Note_on_c, 0, 83, 83
2, 49680, Note_on_c, 0, 86, 83
2, 49920, Note_on_c, 0, 86, 0
2, 49920, Note_on_c, 0, 83, 0
2, 49920, Note_on_c, 0, 74, 0
2, 49920, Note_on_c, 0, 77, 96
2, 49920, Note_on_c, 0, 81, 96
2, 49920, Note_on_c, 0, 89, 96
2, 50160, Note_on_c, 0, 89, 0
2, 50160, Note_on_c, 0, 81, 0
2, 50160, Note_on_c, 0, 77, 0
2, 50160, Note_on_c, 0, 65, 57
2, 50183, Note_on_c, 0, 65, 0
2, 50280, Note_on_c, 0, 67, 57
2, 50303, Note_on_c, 0, 67, 0
2, 50400, Note_on_c, 0, 69, 57
2, 50423, Note_on_c, 0, 69, 0
2, 50520, Note_on_c, 0, 71, 57
2, 50543, Note_on_c, 0, 71, 0
2, 50640, Note_on_c, 0, 72, 57
2, 50663, Note_on_c, 0, 72, 0
2, 50760, Note_on_c, 0, 74, 57
2, 50783, Note_on_c, 0, 74, 0
2, 50880, Note_on_c, 0, 69, 57
2, 50880, Note_on_c, 0, 75, 57
2, 50927, Note_on_c, 0, 75, 0
2, 50927, Note_on_c, 0, 69, 0
2, 51120, Note_on_c, 0, 75, 57
2, 51167, Note_on_c, 0, 75, 0
2, 51300, Note_on_c, 0, 76, 57
2, 51360, Note_on_c, 0, 76, 0
2, 51360, Note_on_c, 0, 69, 83
2, 51360, Note_on_c, 0, 75, 83
2, 51840, Note_on_c, 0, 75, 0
2, 51840, Note_on_c, 0, 69, 0
2, 51840, Note_on_c, 0, 81, 57
2, 51840, Note_on_c, 0, 84, 57
2, 51887, Note_on_c, 0, 84, 0
2, 51887, Note_on_c, 0, 81, 0
2, 52080, Note_on_c, 0, 81, 57
2, 52080, Note_on_c, 0, 84, 57
2, 52127, Note_on_c, 0, 84, 0
2, 52127, Note_on_c, 0, 81, 0
2, 52260, Note_on_c, 0, 86, 57
2, 52320, Note_on_c, 0, 86, 0
2, 52320, Note_on_c, 0, 81, 83
2, 52320, Note_on_c, 0, 84, 83
2, 52800, Note_on_c, 0, 84, 0
2, 52800, Note_on_c, 0, 81, 0
2, 52800, Note_on_c, 0, 69, 57
2, 52800, Note_on_c, 0, 75, 57
2, 52847, Note_on_c, 0, 75, 0
2, 52847, Note_on_c, 0, 69, 0
2, 53040, Note_on_c, 0, 75, 57
2, 53087, Note_on_c, 0, 75, 0
2, 53220, Note_on_c, 0, 76, 57
2, 53280, Note_on_c, 0, 76, 0
2, 53280, Note_on_c, 0, 69, 83
2, 53280, Note_on_c, 0, 75, 83
2, 53760, Note_on_c, 0, 75, 0
2, 53760, Note_on_c, 0, 69, 0
2, 53760, Note_on_c, 0, 81, 57
2, 53760, Note_on_c, 0, 84, 57
2, 53807, Note_on_c, 0, 84, 0
2, 53807, Note_on_c, 0, 81, 0
2, 54000, Note_on_c, 0, 81, 57
2, 54000, Note_on_c, 0, 84, 57
2, 54047, Note_on_c, 0, 84, 0
2, 54047, Note_on_c, 0, 81, 0
2, 54180, Note_on_c, 0, 86, 57
2, 54240, Note_on_c, 0, 86, 0
2, 54240, Note_on_c, 0, 81, 83
2, 54240, Note_on_c, 0, 84, 83
2, 54720, Note_on_c, 0, 84, 0
2, 54720, Note_on_c, 0, 81, 0
2, 54720, Note_on_c, 0, 71, 70
2, 54743, Note_on_c, 0, 71, 0
2, 54840, Note_on_c, 0, 72, 70
2, 54863, Note_on_c, 0, 72, 0
2, 54960, Note_on_c, 0, 74, 70
2, 54983, Note_on_c, 0, 74, 0
2, 55080, Note_on_c, 0, 76, 70
2, 55103, Note_on_c, 0, 76, 0
2, 55200, Note_on_c, 0, 79, 70
2, 55223, Note_on_c, 0, 79, 0
2, 55320, Note_on_c, 0, 77, 70
2, 55343, Note_on_c, 0, 77, 0
2, 55440, Note_on_c, 0, 76, 70
2, 55463, Note_on_c, 0, 76, 0
2, 55560, Note_on_c, 0, 74, 70
2, 55583, Note_on_c, 0, 74, 0
2, 55680, Note_on_c, 0, 69, 70
2, 55703, Note_on_c, 0, 69, 0
2, 55800, Note_on_c, 0, 71, 70
2, 55823, Note_on_c, 0, 71, 0
2, 55920, Note_on_c, 0, 72, 70
2, 55943, Note_on_c, 0, 72, 0
2, 56040, Note_on_c, 0, 74, 70
2, 56063, Note_on_c, 0, 74, 0
2, 56160, Note_on_c, 0, 77, 70
2, 56183, Note_on_c, 0, 77, 0
2, 56280, Note_on_c, 0, 76, 70
2, 56303, Note_on_c, 0, 76, 0
2, 56400, Note_on_c, 0, 74, 70
2, 56423, Note_on_c, 0, 74, 0
2, 56520, Note_on_c, 0, 72, 70
2, 56543, Note_on_c, 0, 72, 0
2, 56640, Note_on_c, 0, 68, 70
2, 56663, Note_on_c, 0, 68, 0
2, 56760, Note_on_c, 0, 69, 70
2, 56783, Note_on_c, 0, 69, 0
2, 56880, Note_on_c, 0, 71, 70
2, 56903, Note_on_c, 0, 71, 0
2, 57000, Note_on_c, 0, 72, 70
2, 57023, Note_on_c, 0, 72, 0
2, 57120, Note_on_c, 0, 74, 70
2, 57143, Note_on_c, 0, 74, 0
2, 57240, Note_on_c, 0, 76, 70
2, 57263, Note_on_c, 0, 76, 0
2, 57360, Note_on_c, 0, 78, 70
2, 57383, Note_on_c, 0, 78, 0
2, 57480, Note_on_c, 0, 80, 70
2, 57503, Note_on_c, 0, 80, 0
2, 57600, Note_on_c, 0, 69, 83
2, 57600, Note_on_c, 0, 81, 83
2, 57840, Note_on_c, 0, 81, 0
2, 57840, Note_on_c, 0, 69, 0
2, 57840, Note_on_c, 0, 65, 57
2, 57863, Note_on_c, 0, 65, 0
2, 57960, Note_on_c, 0, 67, 57
2, 57983, Note_on_c, 0, 67, 0
2, 58080, Note_on_c, 0, 69, 57
2, 58103, Note_on_c, 0, 69, 0
2, 58200, Note_on_c, 0, 71, 57
2, 58223, Note_on_c, 0, 71, 0
2, 58320, Note_on_c, 0, 72, 57
2, 58343, Note_on_c, 0, 72, 0
2, 58440, Note_on_c, 0, 74, 57
2, 58463, Note_on_c, 0, 74, 0
2, 58560, Note_on_c, 0, 69, 57
2, 58560, Note_on_c, 0, 75, 57
2, 58607, Note_on_c, 0, 75, 0
2, 58607, Note_on_c, 0, 69, 0
2, 58800, Note_on_c, 0, 75, 57
2, 58847, Note_on_c, 0, 75, 0
2, 58980, Note_on_c, 0, 76, 57
2, 59040, Note_on_c, 0, 76, 0
2, 59040, Note_on_c, 0, 69, 83
2, 59040, Note_on_c, 0, 75, 83
2, 59520, Note_on_c, 0, 75, 0
2, 59520, Note_on_c, 0, 69, 0
2, 59520, Note_on_c, 0, 81, 57
2, 59520, Note_on_c, 0, 84, 57
2, 59567, Note_on_c, 0, 84, 0
2, 59567, Note_on_c, 0, 81, 0
2, 59760, Note_on_c, 0, 81, 57
2, 59760, Note_on_c, 0, 84, 57
2, 59807, Note_on_c, 0, 84, 0
2, 59807, Note_on_c, 0, 81, 0
2, 59940, Note_on_c, 0, 86, 57
2, 60000, Note_on_c, 0, 86, 0
2, 60000, Note_on_c, 0, 81, 83
2, 60000, Note_on_c, 0, 84, 83
2, 60480, Note_on_c, 0, 84, 0
2, 60480, Note_on_c, 0, 81, 0
2, 60480, Note_on_c, 0, 69, 57
2, 60480, Note_on_c, 0, 75, 57
2, 60527, Note_on_c, 0, 75, 0
2, 60527, Note_on_c, 0, 69, 0
2, 60720, Note_on_c, 0, 75, 57
2, 60767, Note_on_c, 0, 75, 0
2, 60900, Note_on_c, 0, 76, 57
2, 60960, Note_on_c, 0, 76, 0
2, 60960, Note_on_c, 0, 69, 83
2, 60960, Note_on_c, 0, 75, 83
2, 61440, Note_on_c, 0, 75, 0
2, 61440, Note_on_c, 0, 69, 0
2, 61440, Note_on_c, 0, 81, 57
2, 61440, Note_on_c, 0, 84, 57
2, 61487, Note_on_c, 0, 84, 0
2, 61487, Note_on_c, 0, 81, 0
2, 61680, Note_on_c, 0, 81, 57
2, 61680, Note_on_c, 0, 84, 57
2, 61727, Note_on_c, 0, 84, 0
2, 61727, Note_on_c, 0, 81, 0
2, 61860, Note_on_c, 0, 86, 57
2, 61920, Note_on_c, 0, 86, 0
2, 61920, Note_on_c, 0, 81, 83
2, 61920, Note_on_c, 0, 84, 83
2, 62400, Note_on_c, 0, 84, 0
2, 62400, Note_on_c, 0, 81, 0
2, 62400, Note_on_c, 0, 71, 70
2, 62423, Note_on_c, 0, 71, 0
2, 62520, Note_on_c, 0, 72, 70
2, 62543, Note_on_c, 0, 72, 0
2, 62640, Note_on_c, 0, 74, 70
2, 62663, Note_on_c, 0, 74, 0
2, 62760, Note_on_c, 0, 76, 70
2, 62783, Note_on_c, 0, 76, 0
2, 62880, Note_on_c, 0, 79, 70
2, 62903, Note_on_c, 0, 79, 0
2, 63000, Note_on_c, 0, 77, 70
2, 63023, Note_on_c, 0, 77, 0
2, 63120, Note_on_c, 0, 76, 70
2, 63143, Note_on_c, 0, 76, 0
2, 63240, Note_on_c, 0, 74, 70
2, 63263, Note_on_c, 0, 74, 0
2, 63360, Note_on_c, 0, 69, 70
2, 63383, Note_on_c, 0, 69, 0
2, 63480, Note_on_c, 0, 71, 70
2, 63503, Note_on_c, 0, 71, 0
2, 63600, Note_on_c, 0, 72, 70
2, 63623, Note_on_c, 0, 72, 0
2, 63720, Note_on_c, 0, 74, 70
2, 63743, Note_on_c, 0, 74, 0
2, 63840, Note_on_c, 0, 77, 70
2, 63863, Note_on_c, 0, 77, 0
2, 63960, Note_on_c, 0, 76, 70
2, 63983, Note_on_c, 0, 76, 0
2, 64080, Note_on_c, 0, 74, 70
2, 64103, Note_on_c, 0, 74, 0
2, 64200, Note_on_c, 0, 72, 70
2, 64223, Note_on_c, 0, 72, 0
2, 64320, Note_on_c, 0, 68, 70
2, 64343, Note_on_c, 0, 68, 0
2, 64440, Note_on_c, 0, 69, 70
2, 64463, Note_on_c, 0, 69, 0
2, 64560, Note_on_c, 0, 71, 70
2, 64583, Note_on_c, 0, 71, 0
2, 64680, Note_on_c, 0, 72, 70
2, 64703, Note_on_c, 0, 72, 0
2, 64800, Note_on_c, 0, 74, 70
2, 64823, Note_on_c, 0, 74, 0
2, 64920, Note_on_c, 0, 76, 70
2, 64943, Note_on_c, 0, 76, 0
2, 65040, Note_on_c, 0, 78, 70
2, 65063, Note_on_c, 0, 78, 0
2, 65160, Note_on_c, 0, 80, 70
2, 65183, Note_on_c, 0, 80, 0
2, 65280, Note_on_c, 0, 69, 96
2, 65280, Note_on_c, 0, 81, 96
2, 65520, Note_on_c, 0, 81, 0
2, 65520, Note_on_c, 0, 69, 0
2, 65760, Note_on_c, 0, 73, 96
2, 65760, Note_on_c, 0, 85, 96
2, 66000, Note_on_c, 0, 85, 0
2, 66000, Note_on_c, 0, 73, 0
2, 66000, Note_on_c, 0, 71, 96
2, 66000, Note_on_c, 0, 83, 96
2, 66240, Note_on_c, 0, 83, 0
2, 66240, Note_on_c, 0, 71, 0
2, 66480, Note_on_c, 0, 69, 96
2, 66480, Note_on_c, 0, 81, 96
2, 66720, Note_on_c, 0, 81, 0
2, 66720, Note_on_c, 0, 69, 0
2, 66720, Note_on_c, 0, 68, 96
2, 66720, Note_on_c, 0, 80, 96
2, 66960, Note_on_c, 0, 80, 0
2, 66960, Note_on_c, 0, 68, 0
2, 67200, Note_on_c, 0, 71, 96
2, 67200, Note_on_c, 0, 83, 96
2, 67440, Note_on_c, 0, 83, 0
2, 67440, Note_on_c, 0, 71, 0
2, 67440, Note_on_c, 0, 69, 96
2, 67440, Note_on_c, 0, 81, 96
2, 67680, Note_on_c, 0, 81, 0
2, 67680, Note_on_c, 0, 69, 0
2, 67920, Note_on_c, 0, 68, 96
2, 67920, Note_on_c, 0, 80, 96
2, 68160, Note_on_c, 0, 80, 0
2, 68160, Note_on_c, 0, 68, 0
2, 68160, Note_on_c, 0, 66, 96
2, 68160, Note_on_c, 0, 78, 96
2, 68400, Note_on_c, 0, 78, 0
2, 68400, Note_on_c, 0, 66, 0
2, 68640, Note_on_c, 0, 73, 96
2, 68640, Note_on_c, 0, 85, 96
2, 68880, Note_on_c, 0, 85, 0
2, 68880, Note_on_c, 0, 73, 0
2, 68880, Note_on_c, 0, 71, 96
2, 68880, Note_on_c, 0, 83, 96
2, 69120, Note_on_c, 0, 83, 0
2, 69120, Note_on_c, 0, 71, 0
2, 69360, Note_on_c, 0, 73, 96
2, 69360, Note_on_c, 0, 85, 96
2, 69600, Note_on_c, 0, 85, 0
2, 69600, Note_on_c, 0, 73, 0
2, 69600, Note_on_c, 0, 76, 96
2, 69600, Note_on_c, 0, 88, 96
2, 69840, Note_on_c, 0, 88, 0
2, 69840, Note_on_c, 0, 76, 0
2, 70080, Note_on_c, 0, 73, 96
2, 70080, Note_on_c, 0, 85, 96
2, 70320, Note_on_c, 0, 85, 0
2, 70320, Note_on_c, 0, 73, 0
2, 70320, Note_on_c, 0, 71, 96
2, 70320, Note_on_c, 0, 83, 96
2, 70560, Note_on_c, 0, 83, 0
2, 70560, Note_on_c, 0, 71, 0
2, 70800, Note_on_c, 0, 73, 96
2, 70800, Note_on_c, 0, 85, 96
2, 71040, Note_on_c, 0, 85, 0
2, 71040, Note_on_c, 0, 73, 0
2, 71040, Note_on_c, 0, 76, 96
2, 71040, Note_on_c, 0, 88, 96
2, 71280, Note_on_c, 0, 88, 0
2, 71280, Note_on_c, 0, 76, 0
2, 71520, Note_on_c, 0, 73, 96
2, 71520, Note_on_c, 0, 85, 96
2, 71760, Note_on_c, 0, 85, 0
2, 71760, Note_on_c, 0, 73, 0
2, 71760, Note_on_c, 0, 71, 96
2, 71760, Note_on_c, 0, 83, 96
2, 72000, Note_on_c, 0, 83, 0
2, 72000, Note_on_c, 0, 71, 0
2, 72240, Note_on_c, 0, 69, 96
2, 72240, Note_on_c, 0, 81, 96
2, 72480, Note_on_c, 0, 81, 0
2, 72480, Note_on_c, 0, 69, 0
2, 72480, Note_on_c, 0, 68, 96
2, 72480, Note_on_c, 0, 80, 96
2, 72720, Note_on_c, 0, 80, 0
2, 72720, Note_on_c, 0, 68, 0
2, 72960, Note_on_c, 0, 71, 96
2, 72960, Note_on_c, 0, 83, 96
2, 73200, Note_on_c, 0, 83, 0
2, 73200, Note_on_c, 0, 71, 0
2, 73200, Note_on_c, 0, 69, 96
2, 73200, Note_on_c, 0, 81, 96
2, 73440, Note_on_c, 0, 81, 0
2, 73440, Note_on_c, 0, 69, 0
2, 73680, Note_on_c, 0, 68, 96
2, 73680, Note_on_c, 0, 80, 96
2, 73920, Note_on_c, 0, 80, 0
2, 73920, Note_on_c, 0, 68, 0
2, 73920, Note_on_c, 0, 66, 96
2, 73920, Note_on_c, 0, 78, 96
2, 74160, Note_on_c, 0, 78, 0
2, 74160, Note_on_c, 0, 66, 0
2, 74400, Note_on_c, 0, 73, 96
2, 74400, Note_on_c, 0, 85, 96
2, 74640, Note_on_c, 0, 85, 0
2, 74640, Note_on_c, 0, 73, 0
2, 74640, Note_on_c, 0, 71, 96
2, 74640, Note_on_c, 0, 83, 96
2, 74880, Note_on_c, 0, 83, 0
2, 74880, Note_on_c, 0, 71, 0
2, 75120, Note_on_c, 0, 73, 96
2, 75120, Note_on_c, 0, 85, 96
2, 75360, Note_on_c, 0, 85, 0
2, 75360, Note_on_c, 0, 73, 0
2, 75360, Note_on_c, 0, 76, 96
2, 75360, Note_on_c, 0, 88, 96
2, 75600, Note_on_c, 0, 88, 0
2, 75600, Note_on_c, 0, 76, 0
2, 75840, Note_on_c, 0, 73, 96
2, 75840, Note_on_c, 0, 85, 96
2, 76080, Note_on_c, 0, 85, 0
2, 76080, Note_on_c, 0, 73, 0
2, 76080, Note_on_c, 0, 71, 96
2, 76080, Note_on_c, 0, 83, 96
2, 76320, Note_on_c, 0, 83, 0
2, 76320, Note_on_c, 0, 71, 0
2, 76560, Note_on_c, 0, 73, 96
2, 76560, Note_on_c, 0, 85, 96
2, 76800, Note_on_c, 0, 85, 0
2, 76800, Note_on_c, 0, 73, 0
2, 76800, Note_on_c, 0, 76, 96
2, 76800, Note_on_c, 0, 88, 96
2, 77040, Note_on_c, 0, 88, 0
2, 77040, Note_on_c, 0, 76, 0
2, 77280, Note_on_c, 0, 73, 96
2, 77280, Note_on_c, 0, 85, 96
2, 77520, Note_on_c, 0, 85, 0
2, 77520, Note_on_c, 0, 73, 0
2, 77520, Note_on_c, 0, 78, 96
2, 77520, Note_on_c, 0, 90, 96
2, 77760, Note_on_c, 0, 90, 0
2, 77760, Note_on_c, 0, 78, 0
2, 78000, Note_on_c, 0, 73, 96
2, 78000, Note_on_c, 0, 85, 96
2, 78240, Note_on_c, 0, 85, 0
2, 78240, Note_on_c, 0, 73, 0
2, 78240, Note_on_c, 0, 78, 96
2, 78240, Note_on_c, 0, 90, 96
2, 78480, Note_on_c, 0, 90, 0
2, 78480, Note_on_c, 0, 78, 0
2, 78720, Note_on_c, 0, 73, 96
2, 78720, Note_on_c, 0, 85, 96
2, 78960, Note_on_c, 0, 85, 0
2, 78960, Note_on_c, 0, 73, 0
2, 78960, Note_on_c, 0, 78, 96
2, 78960, Note_on_c, 0, 90, 96
2, 79200, Note_on_c, 0, 90, 0
2, 79200, Note_on_c, 0, 78, 0
2, 79440, Note_on_c, 0, 73, 96
2, 79440, Note_on_c, 0, 85, 96
2, 79680, Note_on_c, 0, 85, 0
2, 79680, Note_on_c, 0, 73, 0
2, 79680, Note_on_c, 0, 78, 96
2, 79680, Note_on_c, 0, 90, 96
2, 79920, Note_on_c, 0, 90, 0
2, 79920, Note_on_c, 0, 78, 0
2, 80160, Note_on_c, 0, 71, 96
2, 80160, Note_on_c, 0, 83, 96
2, 80400, Note_on_c, 0, 83, 0
2, 80400, Note_on_c, 0, 71, 0
2, 80400, Note_on_c, 0, 78, 96
2, 80400, Note_on_c, 0, 90, 96
2, 80640, Note_on_c, 0, 90, 0
2, 80640, Note_on_c, 0, 78, 0
2, 80880, Note_on_c, 0, 71, 96
2, 80880, Note_on_c, 0, 83, 96
2, 81120, Note_on_c, 0, 83, 0
2, 81120, Note_on_c, 0, 71, 0
2, 81120, Note_on_c, 0, 78, 96
2, 81120, Note_on_c, 0, 90, 96
2, 81360, Note_on_c, 0, 90, 0
2, 81360, Note_on_c, 0, 78, 0
2, 81600, Note_on_c, 0, 69, 96
2, 81600, Note_on_c, 0, 81, 96
2, 81840, Note_on_c, 0, 81, 0
2, 81840, Note_on_c, 0, 69, 0
2, 81840, Note_on_c, 0, 78, 96
2, 81840, Note_on_c, 0, 90, 96
2, 82080, Note_on_c, 0, 90, 0
2, 82080, Note_on_c, 0, 78, 0
2, 82320, Note_on_c, 0, 68, 96
2, 82320, Note_on_c, 0, 80, 96
2, 82560, Note_on_c, 0, 80, 0
2, 82560, Note_on_c, 0, 68, 0
2, 82560, Note_on_c, 0, 69, 96
2, 82560, Note_on_c, 0, 81, 96
2, 82800, Note_on_c, 0, 81, 0
2, 82800, Note_on_c, 0, 69, 0
2, 83040, Note_on_c, 0, 73, 96
2, 83040, Note_on_c, 0, 85, 96
2, 83280, Note_on_c, 0, 85, 0
2, 83280, Note_on_c, 0, 73, 0
2, 83280, Note_on_c, 0, 78, 96
2, 83280, Note_on_c, 0, 90, 96
2, 83520, Note_on_c, 0, 90, 0
2, 83520, Note_on_c, 0, 78, 0
2, 83760, Note_on_c, 0, 73, 96
2, 83760, Note_on_c, 0, 85, 96
2, 84000, Note_on_c, 0, 85, 0
2, 84000, Note_on_c, 0, 73, 0
2, 84000, Note_on_c, 0, 78, 96
2, 84000, Note_on_c, 0, 90, 96
2, 84240, Note_on_c, 0, 90, 0
2, 84240, Note_on_c, 0, 78, 0
2, 84480, Note_on_c, 0, 73, 96
2, 84480, Note_on_c, 0, 85, 96
2, 84720, Note_on_c, 0, 85, 0
2, 84720, Note_on_c, 0, 73, 0
2, 84720, Note_on_c, 0, 78, 96
2, 84720, Note_on_c, 0, 90, 96
2, 84960, Note_on_c, 0, 90, 0
2, 84960, Note_on_c, 0, 78, 0
2, 85200, Note_on_c, 0, 73, 96
2, 85200, Note_on_c, 0, 85, 96
2, 85440, Note_on_c, 0, 85, 0
2, 85440, Note_on_c, 0, 73, 0
2, 85440, Note_on_c, 0, 78, 96
2, 85440, Note_on_c, 0, 90, 96
2, 85680, Note_on_c, 0, 90, 0
2, 85680, Note_on_c, 0, 78, 0
2, 85920, Note_on_c, 0, 71, 96
2, 85920, Note_on_c, 0, 83, 96
2, 86160, Note_on_c, 0, 83, 0
2, 86160, Note_on_c, 0, 71, 0
2, 86160, Note_on_c, 0, 78, 96
2, 86160, Note_on_c, 0, 90, 96
2, 86400, Note_on_c, 0, 90, 0
2, 86400, Note_on_c, 0, 78, 0
2, 86640, Note_on_c, 0, 71, 96
2, 86640, Note_on_c, 0, 83, 96
2, 86880, Note_on_c, 0, 83, 0
2, 86880, Note_on_c, 0, 71, 0
2, 86880, Note_on_c, 0, 78, 96
2, 86880, Note_on_c, 0, 90, 96
2, 87120, Note_on_c, 0, 90, 0
2, 87120, Note_on_c, 0, 78, 0
2, 87360, Note_on_c, 0, 69, 96
2, 87360, Note_on_c, 0, 81, 96
2, 87600, Note_on_c, 0, 81, 0
2, 87600, Note_on_c, 0, 69, 0
2, 87600, Note_on_c, 0, 78, 96
2, 87600, Note_on_c, 0, 90, 96
2, 87840, Note_on_c, 0, 90, 0
2, 87840, Note_on_c, 0, 78, 0
2, 88080, Note_on_c, 0, 68, 96
2, 88080, Note_on_c, 0, 80, 96
2, 88320, Note_on_c, 0, 80, 0
2, 88320, Note_on_c, 0, 68, 0
2, 88320, Note_on_c, 0, 78, 96
2, 88320, Note_on_c, 0, 90, 96
2, 88560, Note_on_c, 0, 90, 0
2, 88560, Note_on_c, 0, 78, 0
2, 88800, Note_on_c, 0, 69, 96
2, 88800, Note_on_c, 0, 81, 96
2, 89040, Note_on_c, 0, 81, 0
2, 89040, Note_on_c, 0, 69, 0
2, 89040, Note_on_c, 0, 78, 96
2, 89040, Note_on_c, 0, 90, 96
2, 89280, Note_on_c, 0, 90, 0
2, 89280, Note_on_c, 0, 78, 0
2, 89520, Note_on_c, 0, 68, 96
2, 89520, Note_on_c, 0, 80, 96
2, 89760, Note_on_c, 0, 80, 0
2, 89760, Note_on_c, 0, 68, 0
2, 89760, Note_on_c, 0, 78, 96
2, 89760, Note_on_c, 0, 90, 96
2, 90000, Note_on_c, 0, 90, 0
2, 90000, Note_on_c, 0, 78, 0
2, 90240, Note_on_c, 0, 69, 96
2, 90240, Note_on_c, 0, 81, 96
2, 90480, Note_on_c, 0, 81, 0
2, 90480, Note_on_c, 0, 69, 0
2, 90480, Note_on_c, 0, 78, 96
2, 90480, Note_on_c, 0, 90, 96
2, 90720, Note_on_c, 0, 90, 0
2, 90720, Note_on_c, 0, 78, 0
2, 90960, Note_on_c, 0, 68, 96
2, 90960, Note_on_c, 0, 80, 96
2, 91200, Note_on_c, 0, 80, 0
2, 91200, Note_on_c, 0, 68, 0
2, 91200, Note_on_c, 0, 78, 96
2, 91200, Note_on_c, 0, 90, 96
2, 91440, Note_on_c, 0, 90, 0
2, 91440, Note_on_c, 0, 78, 0
2, 91680, Note_on_c, 0, 69, 96
2, 91680, Note_on_c, 0, 81, 96
2, 91920, Note_on_c, 0, 81, 0
2, 91920, Note_on_c, 0, 69, 0
2, 91920, Note_on_c, 0, 78, 96
2, 91920, Note_on_c, 0, 90, 96
2, 92160, Note_on_c, 0, 90, 0
2, 92160, Note_on_c, 0, 78, 0
2, 92400, Note_on_c, 0, 68, 96
2, 92400, Note_on_c, 0, 80, 96
2, 92640, Note_on_c, 0, 80, 0
2, 92640, Note_on_c, 0, 68, 0
2, 92640, Note_on_c, 0, 78, 96
2, 92640, Note_on_c, 0, 90, 96
2, 92880, Note_on_c, 0, 90, 0
2, 92880, Note_on_c, 0, 78, 0
2, 93120, Note_on_c, 0, 69, 96
2, 93120, Note_on_c, 0, 81, 96
2, 93360, Note_on_c, 0, 81, 0
2, 93360, Note_on_c, 0, 69, 0
2, 93360, Note_on_c, 0, 78, 96
2, 93360, Note_on_c, 0, 90, 96
2, 93600, Note_on_c, 0, 90, 0
2, 93600, Note_on_c, 0, 78, 0
2, 93840, Note_on_c, 0, 68, 96
2, 93840, Note_on_c, 0, 80, 96
2, 94080, Note_on_c, 0, 80, 0
2, 94080, Note_on_c, 0, 68, 0
2, 94080, Note_on_c, 0, 78, 96
2, 94080, Note_on_c, 0, 90, 96
2, 94320, Note_on_c, 0, 90, 0
2, 94320, Note_on_c, 0, 78, 0
2, 94320, Note_on_c, 0, 76, 96
2, 94320, Note_on_c, 0, 88, 96
2, 94367, Note_on_c, 0, 88, 0
2, 94367, Note_on_c, 0, 76, 0
2, 94560, Note_on_c, 0, 85, 96
2, 94607, Note_on_c, 0, 85, 0
2, 94800, Note_on_c, 0, 81, 96
2, 94847, Note_on_c, 0, 81, 0
2, 95040, Note_on_c, 0, 76, 96
2, 95087, Note_on_c, 0, 76, 0
2, 95280, Note_on_c, 0, 73, 96
2, 95327, Note_on_c, 0, 73, 0
2, 95520, Note_on_c, 0, 69, 96
2, 95567, Note_on_c, 0, 69, 0
2, 95760, Note_on_c, 0, 73, 96
2, 95807, Note_on_c, 0, 73, 0
2, 96000, Note_on_c, 0, 76, 96
2, 96047, Note_on_c, 0, 76, 0
2, 96240, Note_on_c, 0, 69, 122
2, 96240, Note_on_c, 0, 81, 122
2, 96287, Note_on_c, 0, 81, 0
2, 96287, Note_on_c, 0, 69, 0
2, 96480, Control_c, 0, 64, 127
2, 98880, Control_c, 0, 64, 0
2, 98880, End_track
3, 0, Start_track
3, 0, Title_t, "Grand Piano"
3, 0, Program_c, 0, 0
3, 0, Control_c, 0, 7, 115
3, 0, Control_c, 0, 10, 79
3, 0, Note_on_c, 0, 62, 67
3, 960, Note_on_c, 0, 62, 0
3, 960, Note_on_c, 0, 70, 67
3, 1440, Note_on_c, 0, 70, 0
3, 1440, Note_on_c, 0, 69, 67
3, 1440, Note_on_c, 0, 70, 67
3, 1800, Note_on_c, 0, 70, 0
3, 1800, Note_on_c, 0, 69, 0
3, 1800, Note_on_c, 0, 67, 67
3, 1920, Note_on_c, 0, 67, 0
3, 1920, Note_on_c, 0, 65, 67
3, 1920, Note_on_c, 0, 70, 67
3, 2400, Note_on_c, 0, 70, 0
3, 2400, Note_on_c, 0, 65, 0
3, 2400, Note_on_c, 0, 66, 67
3, 2400, Note_on_c, 0, 69, 67
3, 2880, Note_on_c, 0, 69, 0
3, 2880, Note_on_c, 0, 66, 0
3, 2880, Note_on_c, 0, 67, 67
3, 2880, Note_on_c, 0, 74, 67
3, 3600, Note_on_c, 0, 74, 0
3, 3600, Note_on_c, 0, 67, 0
3, 3600, Note_on_c, 0, 67, 67
3, 3600, Note_on_c, 0, 71, 67
3, 3840, Note_on_c, 0, 71, 0
3, 3840, Note_on_c, 0, 67, 0
3, 3840, Note_on_c, 0, 65, 67
3, 3840, Note_on_c, 0, 67, 67
3, 4320, Note_on_c, 0, 67, 0
3, 4320, Note_on_c, 0, 65, 0
3, 4320, Note_on_c, 0, 67, 67
3, 4800, Note_on_c, 0, 67, 0
3, 4800, Note_on_c, 0, 67, 67
3, 5040, Note_on_c, 0, 67, 0
3, 5280, Note_on_c, 0, 72, 67
3, 5760, Note_on_c, 0, 72, 0
3, 5760, Note_on_c, 0, 64, 67
3, 5760, Note_on_c, 0, 70, 67
3, 6240, Note_on_c, 0, 70, 0
3, 6240, Note_on_c, 0, 64, 0
3, 6240, Note_on_c, 0, 64, 54
3, 6240, Note_on_c, 0, 70, 54
3, 6720, Note_on_c, 0, 70, 0
3, 6720, Note_on_c, 0, 64, 0
3, 6720, Note_on_c, 0, 65, 54
3, 6720, Note_on_c, 0, 69, 54
3, 7680, Note_on_c, 0, 69, 0
3, 7680, Note_on_c, 0, 65, 0
3, 7680, Note_on_c, 0, 65, 54
3, 7680, Note_on_c, 0, 68, 54
3, 8040, Note_on_c, 0, 68, 0
3, 8040, Note_on_c, 0, 65, 0
3, 8040, Note_on_c, 0, 67, 54
3, 8160, Note_on_c, 0, 67, 0
3, 8160, Note_on_c, 0, 65, 54
3, 8160, Note_on_c, 0, 68, 54
3, 8640, Note_on_c, 0, 68, 0
3, 8640, Note_on_c, 0, 65, 0
3, 8640, Note_on_c, 0, 65, 54
3, 8640, Note_on_c, 0, 69, 54
3, 9600, Note_on_c, 0, 69, 0
3, 9600, Note_on_c, 0, 65, 0
3, 9600, Note_on_c, 0, 65, 67
3, 9600, Note_on_c, 0, 68, 67
3, 9960, Note_on_c, 0, 68, 0
3, 9960, Note_on_c, 0, 65, 0
3, 9960, Note_on_c, 0, 67, 67
3, 10080, Note_on_c, 0, 67, 0
3, 10080, Note_on_c, 0, 65, 67
3, 10080, Note_on_c, 0, 68, 67
3, 10560, Note_on_c, 0, 68, 0
3, 10560, Note_on_c, 0, 65, 0
3, 10560, Note_on_c, 0, 65, 67
3, 10560, Note_on_c, 0, 68, 67
3, 11520, Note_on_c, 0, 68, 0
3, 11520, Note_on_c, 0, 65, 0
3, 11520, Note_on_c, 0, 65, 67
3, 11520, Note_on_c, 0, 69, 67
3, 12480, Note_on_c, 0, 69, 0
3, 12480, Note_on_c, 0, 65, 0
3, 12480, Note_on_c, 0, 64, 67
3, 12480, Note_on_c, 0, 67, 67
3, 13440, Note_on_c, 0, 67, 0
3, 13440, Note_on_c, 0, 64, 0
3, 13440, Note_on_c, 0, 69, 67
3, 13440, Note_on_c, 0, 73, 67
3, 14400, Note_on_c, 0, 73, 0
3, 14400, Note_on_c, 0, 69, 0
3, 14400, Note_on_c, 0, 71, 80
3, 14400, Note_on_c, 0, 74, 80
3, 15360, Note_on_c, 0, 74, 0
3, 15360, Note_on_c, 0, 71, 0
3, 27120, Note_on_c, 0, 75, 106
3, 27360, Note_on_c, 0, 75, 0
3, 27360, Note_on_c, 0, 72, 106
3, 27600, Note_on_c, 0, 72, 0
3, 27600, Note_on_c, 0, 67, 106
3, 27840, Note_on_c, 0, 67, 0
3, 28080, Note_on_c, 0, 72, 106
3, 28320, Note_on_c, 0, 72, 0
3, 28320, Note_on_c, 0, 67, 106
3, 28560, Note_on_c, 0, 67, 0
3, 28560, Note_on_c, 0, 63, 106
3, 28800, Note_on_c, 0, 63, 0
3, 29040, Note_on_c, 0, 63, 106
3, 29280, Note_on_c, 0, 63, 0
3, 29280, Note_on_c, 0, 60, 106
3, 29520, Note_on_c, 0, 60, 0
3, 29520, Note_on_c, 0, 55, 106
3, 29760, Note_on_c, 0, 55, 0
3, 30000, Note_on_c, 0, 67, 106
3, 30240, Note_on_c, 0, 67, 0
3, 30240, Note_on_c, 0, 63, 106
3, 30480, Note_on_c, 0, 63, 0
3, 30480, Note_on_c, 0, 60, 106
3, 30720, Note_on_c, 0, 60, 0
3, 51840, Note_on_c, 0, 69, 67
3, 51840, Note_on_c, 0, 76, 67
3, 51863, Note_on_c, 0, 76, 0
3, 51863, Note_on_c, 0, 69, 0
3, 51960, Note_on_c, 0, 77, 67
3, 51983, Note_on_c, 0, 77, 0
3, 52080, Note_on_c, 0, 76, 67
3, 52103, Note_on_c, 0, 76, 0
3, 52200, Note_on_c, 0, 77, 67
3, 52223, Note_on_c, 0, 77, 0
3, 52320, Note_on_c, 0, 76, 67
3, 52343, Note_on_c, 0, 76, 0
3, 52440, Note_on_c, 0, 77, 67
3, 52463, Note_on_c, 0, 77, 0
3, 52560, Note_on_c, 0, 76, 67
3, 52583, Note_on_c, 0, 76, 0
3, 52680, Note_on_c, 0, 81, 67
3, 52703, Note_on_c, 0, 81, 0
3, 53760, Note_on_c, 0, 69, 67
3, 53760, Note_on_c, 0, 76, 67
3, 53783, Note_on_c, 0, 76, 0
3, 53783, Note_on_c, 0, 69, 0
3, 53880, Note_on_c, 0, 77, 67
3, 53903, Note_on_c, 0, 77, 0
3, 54000, Note_on_c, 0, 76, 67
3, 54023, Note_on_c, 0, 76, 0
3, 54120, Note_on_c, 0, 77, 67
3, 54143, Note_on_c, 0, 77, 0
3, 54240, Note_on_c, 0, 76, 67
3, 54263, Note_on_c, 0, 76, 0
3, 54360, Note_on_c, 0, 77, 67
3, 54383, Note_on_c, 0, 77, 0
3, 54480, Note_on_c, 0, 76, 67
3, 54503, Note_on_c, 0, 76, 0
3, 54600, Note_on_c, 0, 81, 67
3, 54623, Note_on_c, 0, 81, 0
3, 59520, Note_on_c, 0, 69, 67
3, 59520, Note_on_c, 0, 76, 67
3, 59543, Note_on_c, 0, 76, 0
3, 59543, Note_on_c, 0, 69, 0
3, 59640, Note_on_c, 0, 77, 67
3, 59663, Note_on_c, 0, 77, 0
3, 59760, Note_on_c, 0, 76, 67
3, 59783, Note_on_c, 0, 76, 0
3, 59880, Note_on_c, 0, 77, 67
3, 59903, Note_on_c, 0, 77, 0
3, 60000, Note_on_c, 0, 76, 67
3, 60023, Note_on_c, 0, 76, 0
3, 60120, Note_on_c, 0, 77, 67
3, 60143, Note_on_c, 0, 77, 0
3, 60240, Note_on_c, 0, 76, 67
3, 60263, Note_on_c, 0, 76, 0
3, 60360, Note_on_c, 0, 81, 67
3, 60383, Note_on_c, 0, 81, 0
3, 61440, Note_on_c, 0, 69, 67
3, 61440, Note_on_c, 0, 76, 67
3, 61463, Note_on_c, 0, 76, 0
3, 61463, Note_on_c, 0, 69, 0
3, 61560, Note_on_c, 0, 77, 67
3, 61583, Note_on_c, 0, 77, 0
3, 61680, Note_on_c, 0, 76, 67
3, 61703, Note_on_c, 0, 76, 0
3, 61800, Note_on_c, 0, 77, 67
3, 61823, Note_on_c, 0, 77, 0
3, 61920, Note_on_c, 0, 76, 67
3, 61943, Note_on_c, 0, 76, 0
3, 62040, Note_on_c, 0, 77, 67
3, 62063, Note_on_c, 0, 77, 0
3, 62160, Note_on_c, 0, 76, 67
3, 62183, Note_on_c, 0, 76, 0
3, 62280, Note_on_c, 0, 81, 67
3, 62303, Note_on_c, 0, 81, 0
3, 62303, End_track
4, 0, Start_track
4, 0, Title_t, "Grand Piano"
4, 0, Program_c, 0, 0
4, 0, Control_c, 0, 7, 115
4, 0, Control_c, 0, 10, 41
4, 0, Note_on_c, 0, 58, 47
4, 480, Note_on_c, 0, 58, 0
4, 480, Note_on_c, 0, 56, 47
4, 960, Note_on_c, 0, 56, 0
4, 960, Note_on_c, 0, 55, 47
4, 960, Note_on_c, 0, 63, 47
4, 1440, Note_on_c, 0, 63, 0
4, 1440, Note_on_c, 0, 55, 0
4, 1440, Note_on_c, 0, 53, 47
4, 1800, Note_on_c, 0, 53, 0
4, 1800, Note_on_c, 0, 51, 47
4, 1920, Note_on_c, 0, 51, 0
4, 1920, Note_on_c, 0, 50, 60
4, 2320, Note_on_c, 0, 48, 60
4, 2360, Note_on_c, 0, 57, 60
4, 2400, Note_on_c, 0, 50, 0
4, 2400, Note_on_c, 0, 63, 60
4, 2760, Note_on_c, 0, 63, 0
4, 2760, Note_on_c, 0, 57, 0
4, 2760, Note_on_c, 0, 48, 0
4, 2760, Note_on_c, 0, 62, 60
4, 2880, Note_on_c, 0, 62, 0
4, 2880, Note_on_c, 0, 47, 60
4, 2880, Note_on_c, 0, 55, 60
4, 2880, Note_on_c, 0, 62, 60
4, 3360, Note_on_c, 0, 62, 0
4, 3360, Note_on_c, 0, 55, 0
4, 3360, Note_on_c, 0, 47, 0
4, 3360, Note_on_c, 0, 45, 60
4, 3360, Note_on_c, 0, 57, 60
4, 3720, Note_on_c, 0, 57, 0
4, 3720, Note_on_c, 0, 45, 0
4, 3720, Note_on_c, 0, 43, 60
4, 3720, Note_on_c, 0, 59, 60
4, 3840, Note_on_c, 0, 59, 0
4, 3840, Note_on_c, 0, 43, 0
4, 3840, Note_on_c, 0, 48, 60
4, 3840, Note_on_c, 0, 55, 60
4, 3840, Note_on_c, 0, 60, 60
4, 4320, Note_on_c, 0, 60, 0
4, 4320, Note_on_c, 0, 55, 0
4, 4320, Note_on_c, 0, 48, 0
4, 4320, Note_on_c, 0, 60, 60
4, 4320, Note_on_c, 0, 63, 60
4, 4680, Note_on_c, 0, 63, 0
4, 4680, Note_on_c, 0, 60, 0
4, 4680, Note_on_c, 0, 65, 60
4, 4800, Note_on_c, 0, 65, 0
4, 4800, Note_on_c, 0, 60, 60
4, 4800, Note_on_c, 0, 63, 60
4, 5280, Note_on_c, 0, 63, 0
4, 5280, Note_on_c, 0, 60, 0
4, 5280, Note_on_c, 0, 51, 60
4, 5280, Note_on_c, 0, 55, 60
4, 5280, Note_on_c, 0, 60, 60
4, 5760, Note_on_c, 0, 60, 0
4, 5760, Note_on_c, 0, 55, 0
4, 5760, Note_on_c, 0, 51, 0
4, 5760, Control_c, 0, 64, 127
4, 5760, Note_on_c, 0, 60, 60
4, 5856, Note_on_c, 0, 60, 0
4, 5856, Note_on_c, 0, 62, 60
4, 5952, Note_on_c, 0, 62, 0
4, 5952, Note_on_c, 0, 60, 60
4, 6047, Note_on_c, 0, 60, 0
4, 6047, Note_on_c, 0, 59, 60
4, 6143, Note_on_c, 0, 59, 0
4, 6143, Note_on_c, 0, 60, 60
4, 6240, Note_on_c, 0, 60, 0
4, 6240, Control_c, 0, 64, 0
4, 6240, Note_on_c, 0, 65, 60
4, 6600, Note_on_c, 0, 65, 0
4, 6600, Note_on_c, 0, 64, 60
4, 6720, Note_on_c, 0, 64, 0
4, 6720, Control_c, 0, 64, 127
4, 6720, Note_on_c, 0, 53, 47
4, 6800, Note_on_c, 0, 53, 0
4, 6800, Note_on_c, 0, 51, 47
4, 6879, Note_on_c, 0, 51, 0
4, 6879, Note_on_c, 0, 53, 47
4, 6960, Note_on_c, 0, 53, 0
4, 6960, Note_on_c, 0, 57, 47
4, 7040, Note_on_c, 0, 57, 0
4, 7040, Note_on_c, 0, 60, 47
4, 7119, Note_on_c, 0, 60, 0
4, 7119, Control_c, 0, 64, 0
4, 7119, Note_on_c, 0, 63, 47
4, 7200, Note_on_c, 0, 63, 0
4, 7280, Control_c, 0, 64, 127
4, 7280, Note_on_c, 0, 51, 47
4, 7359, Note_on_c, 0, 51, 0
4, 7359, Note_on_c, 0, 53, 47
4, 7440, Note_on_c, 0, 53, 0
4, 7440, Note_on_c, 0, 57, 47
4, 7520, Note_on_c, 0, 57, 0
4, 7520, Note_on_c, 0, 60, 47
4, 7599, Note_on_c, 0, 60, 0
4, 7599, Control_c, 0, 64, 0
4, 7599, Note_on_c, 0, 63, 47
4, 7680, Note_on_c, 0, 63, 0
4, 7760, Control_c, 0, 64, 127
4, 7760, Note_on_c, 0, 50, 47
4, 7839, Note_on_c, 0, 50, 0
4, 7839, Note_on_c, 0, 53, 47
4, 7920, Note_on_c, 0, 53, 0
4, 7920, Note_on_c, 0, 56, 47
4, 8000, Note_on_c, 0, 56, 0
4, 8000, Note_on_c, 0, 59, 47
4, 8079, Note_on_c, 0, 59, 0
4, 8079, Control_c, 0, 64, 0
4, 8079, Note_on_c, 0, 62, 47
4, 8160, Note_on_c, 0, 62, 0
4, 8240, Control_c, 0, 64, 127
4, 8240, Note_on_c, 0, 50, 47
4, 8319, Note_on_c, 0, 50, 0
4, 8319, Note_on_c, 0, 53, 47
4, 8400, Note_on_c, 0, 53, 0
4, 8400, Note_on_c, 0, 56, 47
4, 8480, Note_on_c, 0, 56, 0
4, 8480, Note_on_c, 0, 59, 47
4, 8559, Note_on_c, 0, 59, 0
4, 8559, Control_c, 0, 64, 0
4, 8559, Note_on_c, 0, 62, 47
4, 8640, Note_on_c, 0, 62, 0
4, 8720, Control_c, 0, 64, 127
4, 8720, Note_on_c, 0, 51, 47
4, 8799, Note_on_c, 0, 51, 0
4, 8799, Note_on_c, 0, 53, 47
4, 8880, Note_on_c, 0, 53, 0
4, 8880, Note_on_c, 0, 57, 47
4, 8960, Note_on_c, 0, 57, 0
4, 8960, Note_on_c, 0, 60, 47
4, 9039, Note_on_c, 0, 60, 0
4, 9039, Control_c, 0, 64, 0
4, 9039, Note_on_c, 0, 63, 47
4, 9120, Note_on_c, 0, 63, 0
4, 9200, Control_c, 0, 64, 127
4, 9200, Note_on_c, 0, 51, 47
4, 9279, Note_on_c, 0, 51, 0
4, 9279, Note_on_c, 0, 53, 47
4, 9360, Note_on_c, 0, 53, 0
4, 9360, Note_on_c, 0, 57, 47
4, 9440, Note_on_c, 0, 57, 0
4, 9440, Note_on_c, 0, 60, 47
4, 9519, Note_on_c, 0, 60, 0
4, 9519, Control_c, 0, 64, 0
4, 9519, Note_on_c, 0, 63, 47
4, 9600, Note_on_c, 0, 63, 0
4, 9680, Control_c, 0, 64, 127
4, 9680, Note_on_c, 0, 50, 60
4, 9759, Note_on_c, 0, 50, 0
4, 9759, Note_on_c, 0, 53, 60
4, 9840, Note_on_c, 0, 53, 0
4, 9840, Note_on_c, 0, 56, 60
4, 9920, Note_on_c, 0, 56, 0
4, 9920, Note_on_c, 0, 59, 60
4, 9999, Note_on_c, 0, 59, 0
4, 9999, Control_c, 0, 64, 0
4, 9999, Note_on_c, 0, 62, 60
4, 10080, Note_on_c, 0, 62, 0
4, 10160, Control_c, 0, 64, 127
4, 10160, Note_on_c, 0, 50, 60
4, 10239, Note_on_c, 0, 50, 0
4, 10239, Note_on_c, 0, 53, 60
4, 10320, Note_on_c, 0, 53, 0
4, 10320, Note_on_c, 0, 56, 60
4, 10400, Note_on_c, 0, 56, 0
4, 10400, Note_on_c, 0, 59, 60
4, 10479, Note_on_c, 0, 59, 0
4, 10479, Control_c, 0, 64, 0
4, 10479, Note_on_c, 0, 62, 60
4, 10560, Note_on_c, 0, 62, 0
4, 10640, Control_c, 0, 64, 127
4, 10640, Note_on_c, 0, 49, 60
4, 10719, Note_on_c, 0, 49, 0
4, 10719, Note_on_c, 0, 53, 60
4, 10800, Note_on_c, 0, 53, 0
4, 10800, Note_on_c, 0, 56, 60
4, 10880, Note_on_c, 0, 56, 0
4, 10880, Note_on_c, 0, 59, 60
4, 10959, Note_on_c, 0, 59, 0
4, 10959, Control_c, 0, 64, 0
4, 10959, Note_on_c, 0, 61, 60
4, 11040, Note_on_c, 0, 61, 0
4, 11120, Control_c, 0, 64, 127
4, 11120, Note_on_c, 0, 49, 60
4, 11199, Note_on_c, 0, 49, 0
4, 11199, Note_on_c, 0, 53, 60
4, 11280, Note_on_c, 0, 53, 0
4, 11280, Note_on_c, 0, 56, 60
4, 11360, Note_on_c, 0, 56, 0
4, 11360, Note_on_c, 0, 59, 60
4, 11439, Note_on_c, 0, 59, 0
4, 11439, Control_c, 0, 64, 0
4, 11439, Note_on_c, 0, 61, 60
4, 11520, Note_on_c, 0, 61, 0
4, 11600, Control_c, 0, 64, 127
4, 11600, Note_on_c, 0, 48, 60
4, 11679, Note_on_c, 0, 48, 0
4, 11679, Note_on_c, 0, 53, 60
4, 11760, Note_on_c, 0, 53, 0
4, 11760, Note_on_c, 0, 57, 60
4, 11840, Note_on_c, 0, 57, 0
4, 11840, Note_on_c, 0, 60, 60
4, 11919, Note_on_c, 0, 60, 0
4, 11919, Control_c, 0, 64, 0
4, 11919, Note_on_c, 0, 65, 60
4, 12000, Note_on_c, 0, 65, 0
4, 12080, Control_c, 0, 64, 127
4, 12080, Note_on_c, 0, 48, 60
4, 12159, Note_on_c, 0, 48, 0
4, 12159, Note_on_c, 0, 53, 60
4, 12240, Note_on_c, 0, 53, 0
4, 12240, Note_on_c, 0, 57, 60
4, 12320, Note_on_c, 0, 57, 0
4, 12320, Note_on_c, 0, 60, 60
4, 12399, Note_on_c, 0, 60, 0
4, 12399, Control_c, 0, 64, 0
4, 12399, Note_on_c, 0, 65, 60
4, 12480, Note_on_c, 0, 65, 0
4, 12560, Control_c, 0, 64, 127
4, 12560, Note_on_c, 0, 46, 60
4, 12639, Note_on_c, 0, 46, 0
4, 12639, Note_on_c, 0, 52, 60
4, 12720, Note_on_c, 0, 52, 0
4, 12720, Note_on_c, 0, 55, 60
4, 12800, Note_on_c, 0, 55, 0
4, 12800, Note_on_c, 0, 60, 60
4, 12879, Note_on_c, 0, 60, 0
4, 12879, Control_c, 0, 64, 0
4, 12879, Note_on_c, 0, 64, 60
4, 12960, Note_on_c, 0, 64, 0
4, 13040, Control_c, 0, 64, 127
4, 13040, Note_on_c, 0, 46, 60
4, 13119, Note_on_c, 0, 46, 0
4, 13119, Note_on_c, 0, 52, 60
4, 13200, Note_on_c, 0, 52, 0
4, 13200, Note_on_c, 0, 55, 60
4, 13280, Note_on_c, 0, 55, 0
4, 13280, Note_on_c, 0, 60, 60
4, 13359, Note_on_c, 0, 60, 0
4, 13359, Control_c, 0, 64, 0
4, 13359, Note_on_c, 0, 64, 60
4, 13440, Note_on_c, 0, 64, 0
4, 13520, Control_c, 0, 64, 127
4, 13520, Note_on_c, 0, 45, 60
4, 13599, Note_on_c, 0, 45, 0
4, 13599, Note_on_c, 0, 52, 60
4, 13680, Note_on_c, 0, 52, 0
4, 13680, Note_on_c, 0, 57, 60
4, 13760, Note_on_c, 0, 57, 0
4, 13760, Note_on_c, 0, 61, 60
4, 13839, Note_on_c, 0, 61, 0
4, 13839, Control_c, 0, 64, 0
4, 13839, Note_on_c, 0, 64, 60
4, 13920, Note_on_c, 0, 64, 0
4, 14000, Control_c, 0, 64, 127
4, 14000, Note_on_c, 0, 45, 60
4, 14079, Note_on_c, 0, 45, 0
4, 14079, Note_on_c, 0, 52, 60
4, 14160, Note_on_c, 0, 52, 0
4, 14160, Note_on_c, 0, 57, 60
4, 14240, Note_on_c, 0, 57, 0
4, 14240, Note_on_c, 0, 61, 60
4, 14319, Note_on_c, 0, 61, 0
4, 14319, Control_c, 0, 64, 0
4, 14319, Note_on_c, 0, 64, 60
4, 14400, Note_on_c, 0, 64, 0
4, 14480, Control_c, 0, 64, 127
4, 14480, Note_on_c, 0, 45, 60
4, 14559, Note_on_c, 0, 45, 0
4, 14559, Note_on_c, 0, 52, 60
4, 14640, Note_on_c, 0, 52, 0
4, 14640, Note_on_c, 0, 56, 60
4, 14720, Note_on_c, 0, 56, 0
4, 14720, Note_on_c, 0, 59, 60
4, 14799, Note_on_c, 0, 59, 0
4, 14799, Control_c, 0, 64, 0
4, 14799, Note_on_c, 0, 64, 60
4, 14880, Note_on_c, 0, 64, 0
4, 14960, Control_c, 0, 64, 127
4, 14960, Note_on_c, 0, 45, 60
4, 15039, Note_on_c, 0, 45, 0
4, 15039, Note_on_c, 0, 52, 60
4, 15120, Note_on_c, 0, 52, 0
4, 15120, Note_on_c, 0, 56, 60
4, 15200, Note_on_c, 0, 56, 0
4, 15200, Note_on_c, 0, 59, 60
4, 15279, Note_on_c, 0, 59, 0
4, 15279, Control_c, 0, 64, 0
4, 15279, Note_on_c, 0, 64, 60
4, 15360, Note_on_c, 0, 64, 0
4, 15440, Control_c, 0, 64, 127
4, 15440, Note_on_c, 0, 45, 60
4, 15519, Note_on_c, 0, 45, 0
4, 15519, Note_on_c, 0, 49, 60
4, 15600, Note_on_c, 0, 49, 0
4, 15600, Note_on_c, 0, 52, 60
4, 15680, Note_on_c, 0, 52, 0
4, 15680, Note_on_c, 0, 57, 60
4, 15759, Note_on_c, 0, 57, 0
4, 15759, Control_c, 0, 64, 0
4, 15759, Note_on_c, 0, 61, 60
4, 15840, Note_on_c, 0, 61, 0
4, 15920, Control_c, 0, 64, 127
4, 15920, Note_on_c, 0, 45, 60
4, 15999, Note_on_c, 0, 45, 0
4, 15999, Note_on_c, 0, 49, 60
4, 16080, Note_on_c, 0, 49, 0
4, 16080, Note_on_c, 0, 52, 60
4, 16160, Note_on_c, 0, 52, 0
4, 16160, Note_on_c, 0, 57, 60
4, 16239, Note_on_c, 0, 57, 0
4, 16239, Control_c, 0, 64, 0
4, 16239, Note_on_c, 0, 61, 60
4, 16320, Note_on_c, 0, 61, 0
4, 16400, Control_c, 0, 64, 127
4, 16400, Note_on_c, 0, 45, 60
4, 16479, Note_on_c, 0, 45, 0
4, 16479, Note_on_c, 0, 52, 60
4, 16560, Note_on_c, 0, 52, 0
4, 16560, Note_on_c, 0, 56, 60
4, 16640, Note_on_c, 0, 56, 0
4, 16640, Note_on_c, 0, 59, 60
4, 16719, Note_on_c, 0, 59, 0
4, 16719, Control_c, 0, 64, 0
4, 16719, Note_on_c, 0, 62, 60
4, 16800, Note_on_c, 0, 62, 0
4, 16880, Control_c, 0, 64, 127
4, 16880, Note_on_c, 0, 45, 60
4, 16959, Note_on_c, 0, 45, 0
4, 16959, Note_on_c, 0, 52, 60
4, 17040, Note_on_c, 0, 52, 0
4, 17040, Note_on_c, 0, 56, 60
4, 17120, Note_on_c, 0, 56, 0
4, 17120, Note_on_c, 0, 59, 60
4, 17199, Note_on_c, 0, 59, 0
4, 17199, Control_c, 0, 64, 0
4, 17199, Note_on_c, 0, 62, 60
4, 17280, Note_on_c, 0, 62, 0
4, 17280, Note_on_c, 0, 60, 125
4, 17760, Note_on_c, 0, 60, 0
4, 17760, Note_on_c, 0, 57, 99
4, 18120, Note_on_c, 0, 57, 0
4, 18120, Note_on_c, 0, 55, 99
4, 18240, Note_on_c, 0, 55, 0
4, 18240, Note_on_c, 0, 53, 99
4, 18480, Note_on_c, 0, 53, 0
4, 18480, Note_on_c, 0, 53, 99
4, 18660, Note_on_c, 0, 57, 99
4, 18720, Note_on_c, 0, 57, 0
4, 18720, Note_on_c, 0, 53, 0
4, 18720, Note_on_c, 0, 55, 125
4, 18960, Note_on_c, 0, 55, 0
4, 18960, Note_on_c, 0, 53, 99
4, 19200, Note_on_c, 0, 53, 0
4, 19200, Control_c, 0, 64, 127
4, 19200, Note_on_c, 0, 52, 60
4, 19200, Note_on_c, 0, 54, 60
4, 19200, Note_on_c, 0, 58, 60
4, 19260, Note_on_c, 0, 58, 0
4, 19260, Note_on_c, 0, 54, 0
4, 19260, Note_on_c, 0, 52, 0
4, 19260, Note_on_c, 0, 61, 60
4, 19320, Note_on_c, 0, 61, 0
4, 19320, Note_on_c, 0, 52, 60
4, 19320, Note_on_c, 0, 54, 60
4, 19320, Note_on_c, 0, 58, 60
4, 19380, Note_on_c, 0, 58, 0
4, 19380, Note_on_c, 0, 54, 0
4, 19380, Note_on_c, 0, 52, 0
4, 19380, Note_on_c, 0, 61, 60
4, 19440, Note_on_c, 0, 61, 0
4, 19440, Note_on_c, 0, 52, 60
4, 19440, Note_on_c, 0, 54, 60
4, 19440, Note_on_c, 0, 58, 60
4, 19500, Note_on_c, 0, 58, 0
4, 19500, Note_on_c, 0, 54, 0
4, 19500, Note_on_c, 0, 52, 0
4, 19500, Note_on_c, 0, 61, 60
4, 19560, Note_on_c, 0, 61, 0
4, 19560, Note_on_c, 0, 52, 60
4, 19560, Note_on_c, 0, 54, 60
4, 19560, Note_on_c, 0, 58, 60
4, 19620, Note_on_c, 0, 58, 0
4, 19620, Note_on_c, 0, 54, 0
4, 19620, Note_on_c, 0, 52, 0
4, 19620, Note_on_c, 0, 61, 60
4, 19680, Note_on_c, 0, 61, 0
4, 19680, Note_on_c, 0, 52, 60
4, 19680, Note_on_c, 0, 54, 60
4, 19680, Note_on_c, 0, 58, 60
4, 19740, Note_on_c, 0, 58, 0
4, 19740, Note_on_c, 0, 54, 0
4, 19740, Note_on_c, 0, 52, 0
4, 19740, Note_on_c, 0, 61, 60
4, 19800, Note_on_c, 0, 61, 0
4, 19800, Note_on_c, 0, 52, 60
4, 19800, Note_on_c, 0, 54, 60
4, 19800, Note_on_c, 0, 58, 60
4, 19860, Note_on_c, 0, 58, 0
4, 19860, Note_on_c, 0, 54, 0
4, 19860, Note_on_c, 0, 52, 0
4, 19860, Note_on_c, 0, 61, 60
4, 19920, Note_on_c, 0, 61, 0
4, 19920, Note_on_c, 0, 52, 60
4, 19920, Note_on_c, 0, 54, 60
4, 19920, Note_on_c, 0, 58, 60
4, 19980, Note_on_c, 0, 58, 0
4, 19980, Note_on_c, 0, 54, 0
4, 19980, Note_on_c, 0, 52, 0
4, 19980, Note_on_c, 0, 61, 60
4, 20040, Note_on_c, 0, 61, 0
4, 20040, Note_on_c, 0, 52, 60
4, 20040, Note_on_c, 0, 54, 60
4, 20040, Note_on_c, 0, 58, 60
4, 20100, Note_on_c, 0, 58, 0
4, 20100, Note_on_c, 0, 54, 0
4, 20100, Note_on_c, 0, 52, 0
4, 20100, Note_on_c, 0, 61, 60
4, 20160, Note_on_c, 0, 61, 0
4, 20160, Note_on_c, 0, 52, 60
4, 20160, Note_on_c, 0, 54, 60
4, 20160, Note_on_c, 0, 58, 60
4, 20220, Note_on_c, 0, 58, 0
4, 20220, Note_on_c, 0, 54, 0
4, 20220, Note_on_c, 0, 52, 0
4, 20220, Note_on_c, 0, 61, 60
4, 20280, Note_on_c, 0, 61, 0
4, 20280, Note_on_c, 0, 52, 60
4, 20280, Note_on_c, 0, 54, 60
4, 20280, Note_on_c, 0, 58, 60
4, 20340, Note_on_c, 0, 58, 0
4, 20340, Note_on_c, 0, 54, 0
4, 20340, Note_on_c, 0, 52, 0
4, 20340, Note_on_c, 0, 61, 60
4, 20400, Note_on_c, 0, 61, 0
4, 20400, Note_on_c, 0, 52, 60
4, 20400, Note_on_c, 0, 54, 60
4, 20400, Note_on_c, 0, 58, 60
4, 20460, Note_on_c, 0, 58, 0
4, 20460, Note_on_c, 0, 54, 0
4, 20460, Note_on_c, 0, 52, 0
4, 20460, Note_on_c, 0, 61, 60
4, 20520, Note_on_c, 0, 61, 0
4, 20520, Note_on_c, 0, 52, 60
4, 20520, Note_on_c, 0, 54, 60
4, 20520, Note_on_c, 0, 58, 60
4, 20580, Note_on_c, 0, 58, 0
4, 20580, Note_on_c, 0, 54, 0
4, 20580, Note_on_c, 0, 52, 0
4, 20580, Note_on_c, 0, 61, 60
4, 20640, Note_on_c, 0, 61, 0
4, 20640, Note_on_c, 0, 52, 60
4, 20640, Note_on_c, 0, 54, 60
4, 20640, Note_on_c, 0, 58, 60
4, 20700, Note_on_c, 0, 58, 0
4, 20700, Note_on_c, 0, 54, 0
4, 20700, Note_on_c, 0, 52, 0
4, 20700, Note_on_c, 0, 61, 60
4, 20760, Note_on_c, 0, 61, 0
4, 20760, Note_on_c, 0, 52, 60
4, 20760, Note_on_c, 0, 54, 60
4, 20760, Note_on_c, 0, 58, 60
4, 20820, Note_on_c, 0, 58, 0
4, 20820, Note_on_c, 0, 54, 0
4, 20820, Note_on_c, 0, 52, 0
4, 20820, Note_on_c, 0, 61, 60
4, 20880, Note_on_c, 0, 61, 0
4, 20880, Note_on_c, 0, 52, 60
4, 20880, Note_on_c, 0, 54, 60
4, 20880, Note_on_c, 0, 58, 60
4, 20940, Note_on_c, 0, 58, 0
4, 20940, Note_on_c, 0, 54, 0
4, 20940, Note_on_c, 0, 52, 0
4, 20940, Note_on_c, 0, 61, 60
4, 21000, Note_on_c, 0, 61, 0
4, 21000, Note_on_c, 0, 52, 60
4, 21000, Note_on_c, 0, 54, 60
4, 21000, Note_on_c, 0, 58, 60
4, 21060, Note_on_c, 0, 58, 0
4, 21060, Note_on_c, 0, 54, 0
4, 21060, Note_on_c, 0, 52, 0
4, 21060, Control_c, 0, 64, 0
4, 21060, Note_on_c, 0, 61, 60
4, 21120, Note_on_c, 0, 61, 0
4, 21120, Control_c, 0, 64, 127
4, 21120, Note_on_c, 0, 51, 73
4, 21120, Note_on_c, 0, 55, 73
4, 21120, Note_on_c, 0, 58, 73
4, 21180, Note_on_c, 0, 58, 0
4, 21180, Note_on_c, 0, 55, 0
4, 21180, Note_on_c, 0, 51, 0
4, 21180, Note_on_c, 0, 63, 73
4, 21240, Note_on_c, 0, 63, 0
4, 21240, Note_on_c, 0, 51, 73
4, 21240, Note_on_c, 0, 55, 73
4, 21240, Note_on_c, 0, 58, 73
4, 21300, Note_on_c, 0, 58, 0
4, 21300, Note_on_c, 0, 55, 0
4, 21300, Note_on_c, 0, 51, 0
4, 21300, Note_on_c, 0, 63, 73
4, 21360, Note_on_c, 0, 63, 0
4, 21360, Note_on_c, 0, 51, 73
4, 21360, Note_on_c, 0, 55, 73
4, 21360, Note_on_c, 0, 58, 73
4, 21420, Note_on_c, 0, 58, 0
4, 21420, Note_on_c, 0, 55, 0
4, 21420, Note_on_c, 0, 51, 0
4, 21420, Note_on_c, 0, 63, 73
4, 21480, Note_on_c, 0, 63, 0
4, 21480, Note_on_c, 0, 51, 73
4, 21480, Note_on_c, 0, 55, 73
4, 21480, Note_on_c, 0, 58, 73
4, 21540, Note_on_c, 0, 58, 0
4, 21540, Note_on_c, 0, 55, 0
4, 21540, Note_on_c, 0, 51, 0
4, 21540, Note_on_c, 0, 63, 73
4, 21600, Note_on_c, 0, 63, 0
4, 21600, Note_on_c, 0, 51, 73
4, 21600, Note_on_c, 0, 55, 73
4, 21600, Note_on_c, 0, 58, 73
4, 21660, Note_on_c, 0, 58, 0
4, 21660, Note_on_c, 0, 55, 0
4, 21660, Note_on_c, 0, 51, 0
4, 21660, Note_on_c, 0, 63, 73
4, 21720, Note_on_c, 0, 63, 0
4, 21720, Note_on_c, 0, 51, 73
4, 21720, Note_on_c, 0, 55, 73
4, 21720, Note_on_c, 0, 58, 73
4, 21780, Note_on_c, 0, 58, 0
4, 21780, Note_on_c, 0, 55, 0
4, 21780, Note_on_c, 0, 51, 0
4, 21780, Note_on_c, 0, 63, 73
4, 21840, Note_on_c, 0, 63, 0
4, 21840, Note_on_c, 0, 51, 73
4, 21840, Note_on_c, 0, 55, 73
4, 21840, Note_on_c, 0, 58, 73
4, 21900, Note_on_c, 0, 58, 0
4, 21900, Note_on_c, 0, 55, 0
4, 21900, Note_on_c, 0, 51, 0
4, 21900, Note_on_c, 0, 63, 73
4, 21960, Note_on_c, 0, 63, 0
4, 21960, Note_on_c, 0, 51, 73
4, 21960, Note_on_c, 0, 55, 73
4, 21960, Note_on_c, 0, 58, 73
4, 22020, Note_on_c, 0, 58, 0
4, 22020, Note_on_c, 0, 55, 0
4, 22020, Note_on_c, 0, 51, 0
4, 22020, Control_c, 0, 64, 0
4, 22020, Note_on_c, 0, 63, 73
4, 22080, Note_on_c, 0, 63, 0
4, 22080, Control_c, 0, 64, 127
4, 22080, Note_on_c, 0, 49, 73
4, 22080, Note_on_c, 0, 55, 73
4, 22080, Note_on_c, 0, 58, 73
4, 22140, Note_on_c, 0, 58, 0
4, 22140, Note_on_c, 0, 55, 0
4, 22140, Note_on_c, 0, 49, 0
4, 22140, Note_on_c, 0, 61, 73
4, 22200, Note_on_c, 0, 61, 0
4, 22200, Note_on_c, 0, 49, 73
4, 22200, Note_on_c, 0, 55, 73
4, 22200, Note_on_c, 0, 58, 73
4, 22260, Note_on_c, 0, 58, 0
4, 22260, Note_on_c, 0, 55, 0
4, 22260, Note_on_c, 0, 49, 0
4, 22260, Note_on_c, 0, 61, 73
4, 22320, Note_on_c, 0, 61, 0
4, 22320, Note_on_c, 0, 49, 73
4, 22320, Note_on_c, 0, 55, 73
4, 22320, Note_on_c, 0, 58, 73
4, 22380, Note_on_c, 0, 58, 0
4, 22380, Note_on_c, 0, 55, 0
4, 22380, Note_on_c, 0, 49, 0
4, 22380, Note_on_c, 0, 61, 73
4, 22440, Note_on_c, 0, 61, 0
4, 22440, Note_on_c, 0, 49, 73
4, 22440, Note_on_c, 0, 55, 73
4, 22440, Note_on_c, 0, 58, 73
4, 22500, Note_on_c, 0, 58, 0
4, 22500, Note_on_c, 0, 55, 0
4, 22500, Note_on_c, 0, 49, 0
4, 22500, Note_on_c, 0, 61, 73
4, 22560, Note_on_c, 0, 61, 0
4, 22560, Note_on_c, 0, 49, 73
4, 22560, Note_on_c, 0, 55, 73
4, 22560, Note_on_c, 0, 58, 73
4, 22620, Note_on_c, 0, 58, 0
4, 22620, Note_on_c, 0, 55, 0
4, 22620, Note_on_c, 0, 49, 0
4, 22620, Note_on_c, 0, 61, 73
4, 22680, Note_on_c, 0, 61, 0
4, 22680, Note_on_c, 0, 49, 73
4, 22680, Note_on_c, 0, 55, 73
4, 22680, Note_on_c, 0, 58, 73
4, 22740, Note_on_c, 0, 58, 0
4, 22740, Note_on_c, 0, 55, 0
4, 22740, Note_on_c, 0, 49, 0
4, 22740, Note_on_c, 0, 61, 73
4, 22800, Note_on_c, 0, 61, 0
4, 22800, Note_on_c, 0, 49, 73
4, 22800, Note_on_c, 0, 55, 73
4, 22800, Note_on_c, 0, 58, 73
4, 22860, Note_on_c, 0, 58, 0
4, 22860, Note_on_c, 0, 55, 0
4, 22860, Note_on_c, 0, 49, 0
4, 22860, Note_on_c, 0, 61, 73
4, 22920, Note_on_c, 0, 61, 0
4, 22920, Note_on_c, 0, 49, 73
4, 22920, Note_on_c, 0, 55, 73
4, 22920, Note_on_c, 0, 58, 73
4, 22980, Note_on_c, 0, 58, 0
4, 22980, Note_on_c, 0, 55, 0
4, 22980, Note_on_c, 0, 49, 0
4, 22980, Control_c, 0, 64, 0
4, 22980, Note_on_c, 0, 61, 73
4, 23040, Note_on_c, 0, 61, 0
4, 23040, Control_c, 0, 64, 127
4, 23040, Note_on_c, 0, 47, 73
4, 23040, Note_on_c, 0, 52, 73
4, 23040, Note_on_c, 0, 56, 73
4, 23100, Note_on_c, 0, 56, 0
4, 23100, Note_on_c, 0, 52, 0
4, 23100, Note_on_c, 0, 47, 0
4, 23100, Note_on_c, 0, 59, 73
4, 23160, Note_on_c, 0, 59, 0
4, 23160, Note_on_c, 0, 47, 73
4, 23160, Note_on_c, 0, 52, 73
4, 23160, Note_on_c, 0, 56, 73
4, 23220, Note_on_c, 0, 56, 0
4, 23220, Note_on_c, 0, 52, 0
4, 23220, Note_on_c, 0, 47, 0
4, 23220, Note_on_c, 0, 59, 73
4, 23280, Note_on_c, 0, 59, 0
4, 23280, Note_on_c, 0, 47, 73
4, 23280, Note_on_c, 0, 52, 73
4, 23280, Note_on_c, 0, 56, 73
4, 23340, Note_on_c, 0, 56, 0
4, 23340, Note_on_c, 0, 52, 0
4, 23340, Note_on_c, 0, 47, 0
4, 23340, Note_on_c, 0, 59, 73
4, 23400, Note_on_c, 0, 59, 0
4, 23400, Note_on_c, 0, 47, 73
4, 23400, Note_on_c, 0, 52, 73
4, 23400, Note_on_c, 0, 56, 73
4, 23460, Note_on_c, 0, 56, 0
4, 23460, Note_on_c, 0, 52, 0
4, 23460, Note_on_c, 0, 47, 0
4, 23460, Note_on_c, 0, 59, 73
4, 23520, Note_on_c, 0, 59, 0
4, 23520, Note_on_c, 0, 47, 73
4, 23520, Note_on_c, 0, 52, 73
4, 23520, Note_on_c, 0, 56, 73
4, 23580, Note_on_c, 0, 56, 0
4, 23580, Note_on_c, 0, 52, 0
4, 23580, Note_on_c, 0, 47, 0
4, 23580, Note_on_c, 0, 59, 73
4, 23640, Note_on_c, 0, 59, 0
4, 23640, Note_on_c, 0, 47, 73
4, 23640, Note_on_c, 0, 52, 73
4, 23640, Note_on_c, 0, 56, 73
4, 23700, Note_on_c, 0, 56, 0
4, 23700, Note_on_c, 0, 52, 0
4, 23700, Note_on_c, 0, 47, 0
4, 23700, Note_on_c, 0, 59, 73
4, 23760, Note_on_c, 0, 59, 0
4, 23760, Note_on_c, 0, 47, 73
4, 23760, Note_on_c, 0, 52, 73
4, 23760, Note_on_c, 0, 56, 73
4, 23820, Note_on_c, 0, 56, 0
4, 23820, Note_on_c, 0, 52, 0
4, 23820, Note_on_c, 0, 47, 0
4, 23820, Note_on_c, 0, 59, 73
4, 23880, Note_on_c, 0, 59, 0
4, 23880, Note_on_c, 0, 47, 73
4, 23880, Note_on_c, 0, 52, 73
4, 23880, Note_on_c, 0, 56, 73
4, 23940, Note_on_c, 0, 56, 0
4, 23940, Note_on_c, 0, 52, 0
4, 23940, Note_on_c, 0, 47, 0
4, 23940, Control_c, 0, 64, 0
4, 23940, Note_on_c, 0, 59, 73
4, 24000, Note_on_c, 0, 59, 0
4, 24000, Control_c, 0, 64, 127
4, 24000, Note_on_c, 0, 46, 73
4, 24000, Note_on_c, 0, 52, 73
4, 24000, Note_on_c, 0, 55, 73
4, 24060, Note_on_c, 0, 55, 0
4, 24060, Note_on_c, 0, 52, 0
4, 24060, Note_on_c, 0, 46, 0
4, 24060, Note_on_c, 0, 58, 73
4, 24120, Note_on_c, 0, 58, 0
4, 24120, Note_on_c, 0, 46, 73
4, 24120, Note_on_c, 0, 52, 73
4, 24120, Note_on_c, 0, 55, 73
4, 24180, Note_on_c, 0, 55, 0
4, 24180, Note_on_c, 0, 52, 0
4, 24180, Note_on_c, 0, 46, 0
4, 24180, Note_on_c, 0, 58, 73
4, 24240, Note_on_c, 0, 58, 0
4, 24240, Note_on_c, 0, 46, 73
4, 24240, Note_on_c, 0, 52, 73
4, 24240, Note_on_c, 0, 55, 73
4, 24300, Note_on_c, 0, 55, 0
4, 24300, Note_on_c, 0, 52, 0
4, 24300, Note_on_c, 0, 46, 0
4, 24300, Note_on_c, 0, 58, 73
4, 24360, Note_on_c, 0, 58, 0
4, 24360, Note_on_c, 0, 46, 73
4, 24360, Note_on_c, 0, 52, 73
4, 24360, Note_on_c, 0, 55, 73
4, 24420, Note_on_c, 0, 55, 0
4, 24420, Note_on_c, 0, 52, 0
4, 24420, Note_on_c, 0, 46, 0
4, 24420, Note_on_c, 0, 58, 73
4, 24480, Note_on_c, 0, 58, 0
4, 24480, Note_on_c, 0, 46, 73
4, 24480, Note_on_c, 0, 52, 73
4, 24480, Note_on_c, 0, 55, 73
4, 24540, Note_on_c, 0, 55, 0
4, 24540, Note_on_c, 0, 52, 0
4, 24540, Note_on_c, 0, 46, 0
4, 24540, Note_on_c, 0, 58, 73
4, 24600, Note_on_c, 0, 58, 0
4, 24600, Note_on_c, 0, 46, 73
4, 24600, Note_on_c, 0, 52, 73
4, 24600, Note_on_c, 0, 55, 73
4, 24660, Note_on_c, 0, 55, 0
4, 24660, Note_on_c, 0, 52, 0
4, 24660, Note_on_c, 0, 46, 0
4, 24660, Note_on_c, 0, 58, 73
4, 24720, Note_on_c, 0, 58, 0
4, 24720, Note_on_c, 0, 46, 73
4, 24720, Note_on_c, 0, 52, 73
4, 24720, Note_on_c, 0, 55, 73
4, 24780, Note_on_c, 0, 55, 0
4, 24780, Note_on_c, 0, 52, 0
4, 24780, Note_on_c, 0, 46, 0
4, 24780, Note_on_c, 0, 58, 73
4, 24840, Note_on_c, 0, 58, 0
4, 24840, Note_on_c, 0, 46, 73
4, 24840, Note_on_c, 0, 52, 73
4, 24840, Note_on_c, 0, 55, 73
4, 24900, Note_on_c, 0, 55, 0
4, 24900, Note_on_c, 0, 52, 0
4, 24900, Note_on_c, 0, 46, 0
4, 24900, Control_c, 0, 64, 0
4, 24900, Note_on_c, 0, 58, 73
4, 24960, Note_on_c, 0, 58, 0
4, 24960, Control_c, 0, 64, 127
4, 24960, Note_on_c, 0, 45, 73
4, 24960, Note_on_c, 0, 48, 73
4, 24960, Note_on_c, 0, 53, 73
4, 25020, Note_on_c, 0, 53, 0
4, 25020, Note_on_c, 0, 48, 0
4, 25020, Note_on_c, 0, 45, 0
4, 25020, Note_on_c, 0, 57, 73
4, 25080, Note_on_c, 0, 57, 0
4, 25080, Note_on_c, 0, 45, 73
4, 25080, Note_on_c, 0, 48, 73
4, 25080, Note_on_c, 0, 53, 73
4, 25140, Note_on_c, 0, 53, 0
4, 25140, Note_on_c, 0, 48, 0
4, 25140, Note_on_c, 0, 45, 0
4, 25140, Note_on_c, 0, 57, 73
4, 25200, Note_on_c, 0, 57, 0
4, 25200, Note_on_c, 0, 45, 73
4, 25200, Note_on_c, 0, 48, 73
4, 25200, Note_on_c, 0, 53, 73
4, 25260, Note_on_c, 0, 53, 0
4, 25260, Note_on_c, 0, 48, 0
4, 25260, Note_on_c, 0, 45, 0
4, 25260, Note_on_c, 0, 57, 73
4, 25320, Note_on_c, 0, 57, 0
4, 25320, Note_on_c, 0, 45, 73
4, 25320, Note_on_c, 0, 48, 73
4, 25320, Note_on_c, 0, 53, 73
4, 25380, Note_on_c, 0, 53, 0
4, 25380, Note_on_c, 0, 48, 0
4, 25380, Note_on_c, 0, 45, 0
4, 25380, Note_on_c, 0, 57, 73
4, 25440, Note_on_c, 0, 57, 0
4, 25440, Note_on_c, 0, 45, 73
4, 25440, Note_on_c, 0, 48, 73
4, 25440, Note_on_c, 0, 53, 73
4, 25500, Note_on_c, 0, 53, 0
4, 25500, Note_on_c, 0, 48, 0
4, 25500, Note_on_c, 0, 45, 0
4, 25500, Note_on_c, 0, 57, 73
4, 25560, Note_on_c, 0, 57, 0
4, 25560, Note_on_c, 0, 45, 73
4, 25560, Note_on_c, 0, 48, 73
4, 25560, Note_on_c, 0, 53, 73
4, 25620, Note_on_c, 0, 53, 0
4, 25620, Note_on_c, 0, 48, 0
4, 25620, Note_on_c, 0, 45, 0
4, 25620, Note_on_c, 0, 57, 73
4, 25680, Note_on_c, 0, 57, 0
4, 25680, Note_on_c, 0, 45, 73
4, 25680, Note_on_c, 0, 48, 73
4, 25680, Note_on_c, 0, 53, 73
4, 25740, Note_on_c, 0, 53, 0
4, 25740, Note_on_c, 0, 48, 0
4, 25740, Note_on_c, 0, 45, 0
4, 25740, Note_on_c, 0, 57, 73
4, 25800, Note_on_c, 0, 57, 0
4, 25800, Note_on_c, 0, 45, 73
4, 25800, Note_on_c, 0, 48, 73
4, 25800, Note_on_c, 0, 53, 73
4, 25860, Note_on_c, 0, 53, 0
4, 25860, Note_on_c, 0, 48, 0
4, 25860, Note_on_c, 0, 45, 0
4, 25860, Control_c, 0, 64, 0
4, 25860, Note_on_c, 0, 57, 73
4, 25920, Note_on_c, 0, 57, 0
4, 25920, Control_c, 0, 64, 127
4, 25920, Note_on_c, 0, 44, 73
4, 25920, Note_on_c, 0, 48, 73
4, 25920, Note_on_c, 0, 51, 73
4, 25980, Note_on_c, 0, 51, 0
4, 25980, Note_on_c, 0, 48, 0
4, 25980, Note_on_c, 0, 44, 0
4, 25980, Note_on_c, 0, 56, 73
4, 26040, Note_on_c, 0, 56, 0
4, 26040, Note_on_c, 0, 44, 73
4, 26040, Note_on_c, 0, 48, 73
4, 26040, Note_on_c, 0, 51, 73
4, 26100, Note_on_c, 0, 51, 0
4, 26100, Note_on_c, 0, 48, 0
4, 26100, Note_on_c, 0, 44, 0
4, 26100, Note_on_c, 0, 56, 73
4, 26160, Note_on_c, 0, 56, 0
4, 26160, Note_on_c, 0, 44, 73
4, 26160, Note_on_c, 0, 48, 73
4, 26160, Note_on_c, 0, 51, 73
4, 26220, Note_on_c, 0, 51, 0
4, 26220, Note_on_c, 0, 48, 0
4, 26220, Note_on_c, 0, 44, 0
4, 26220, Note_on_c, 0, 56, 73
4, 26280, Note_on_c, 0, 56, 0
4, 26280, Note_on_c, 0, 44, 73
4, 26280, Note_on_c, 0, 48, 73
4, 26280, Note_on_c, 0, 51, 73
4, 26340, Note_on_c, 0, 51, 0
4, 26340, Note_on_c, 0, 48, 0
4, 26340, Note_on_c, 0, 44, 0
4, 26340, Note_on_c, 0, 56, 73
4, 26400, Note_on_c, 0, 56, 0
4, 26400, Note_on_c, 0, 44, 73
4, 26400, Note_on_c, 0, 48, 73
4, 26400, Note_on_c, 0, 51, 73
4, 26460, Note_on_c, 0, 51, 0
4, 26460, Note_on_c, 0, 48, 0
4, 26460, Note_on_c, 0, 44, 0
4, 26460, Note_on_c, 0, 56, 73
4, 26520, Note_on_c, 0, 56, 0
4, 26520, Note_on_c, 0, 44, 73
4, 26520, Note_on_c, 0, 48, 73
4, 26520, Note_on_c, 0, 51, 73
4, 26580, Note_on_c, 0, 51, 0
4, 26580, Note_on_c, 0, 48, 0
4, 26580, Note_on_c, 0, 44, 0
4, 26580, Note_on_c, 0, 56, 73
4, 26640, Note_on_c, 0, 56, 0
4, 26640, Note_on_c, 0, 44, 73
4, 26640, Note_on_c, 0, 48, 73
4, 26640, Note_on_c, 0, 51, 73
4, 26700, Note_on_c, 0, 51, 0
4, 26700, Note_on_c, 0, 48, 0
4, 26700, Note_on_c, 0, 44, 0
4, 26700, Note_on_c, 0, 56, 73
4, 26760, Note_on_c, 0, 56, 0
4, 26760, Note_on_c, 0, 44, 73
4, 26760, Note_on_c, 0, 48, 73
4, 26760, Note_on_c, 0, 51, 73
4, 26820, Note_on_c, 0, 51, 0
4, 26820, Note_on_c, 0, 48, 0
4, 26820, Note_on_c, 0, 44, 0
4, 26820, Control_c, 0, 64, 0
4, 26820, Note_on_c, 0, 56, 73
4, 26880, Note_on_c, 0, 56, 0
4, 27120, Control_c, 0, 64, 127
4, 27120, Note_on_c, 0, 48, 73
4, 27120, Note_on_c, 0, 51, 73
4, 27120, Note_on_c, 0, 55, 73
4, 27180, Note_on_c, 0, 55, 0
4, 27180, Note_on_c, 0, 51, 0
4, 27180, Note_on_c, 0, 48, 0
4, 27180, Note_on_c, 0, 60, 73
4, 27240, Note_on_c, 0, 60, 0
4, 27240, Note_on_c, 0, 48, 73
4, 27240, Note_on_c, 0, 51, 73
4, 27240, Note_on_c, 0, 55, 73
4, 27300, Note_on_c, 0, 55, 0
4, 27300, Note_on_c, 0, 51, 0
4, 27300, Note_on_c, 0, 48, 0
4, 27300, Note_on_c, 0, 60, 73
4, 27360, Note_on_c, 0, 60, 0
4, 27360, Note_on_c, 0, 48, 73
4, 27360, Note_on_c, 0, 51, 73
4, 27360, Note_on_c, 0, 55, 73
4, 27420, Note_on_c, 0, 55, 0
4, 27420, Note_on_c, 0, 51, 0
4, 27420, Note_on_c, 0, 48, 0
4, 27420, Note_on_c, 0, 60, 73
4, 27480, Note_on_c, 0, 60, 0
4, 27480, Note_on_c, 0, 48, 73
4, 27480, Note_on_c, 0, 51, 73
4, 27480, Note_on_c, 0, 55, 73
4, 27540, Note_on_c, 0, 55, 0
4, 27540, Note_on_c, 0, 51, 0
4, 27540, Note_on_c, 0, 48, 0
4, 27540, Note_on_c, 0, 60, 73
4, 27600, Note_on_c, 0, 60, 0
4, 27600, Note_on_c, 0, 48, 73
4, 27600, Note_on_c, 0, 51, 73
4, 27600, Note_on_c, 0, 55, 73
4, 27660, Note_on_c, 0, 55, 0
4, 27660, Note_on_c, 0, 51, 0
4, 27660, Note_on_c, 0, 48, 0
4, 27660, Note_on_c, 0, 60, 73
4, 27720, Note_on_c, 0, 60, 0
4, 27720, Note_on_c, 0, 48, 73
4, 27720, Note_on_c, 0, 51, 73
4, 27720, Note_on_c, 0, 55, 73
4, 27780, Note_on_c, 0, 55, 0
4, 27780, Note_on_c, 0, 51, 0
4, 27780, Note_on_c, 0, 48, 0
4, 27780, Note_on_c, 0, 60, 73
4, 27840, Note_on_c, 0, 60, 0
4, 27840, Note_on_c, 0, 48, 73
4, 27840, Note_on_c, 0, 51, 73
4, 27840, Note_on_c, 0, 55, 73
4, 27900, Note_on_c, 0, 55, 0
4, 27900, Note_on_c, 0, 51, 0
4, 27900, Note_on_c, 0, 48, 0
4, 27900, Note_on_c, 0, 60, 73
4, 27960, Note_on_c, 0, 60, 0
4, 27960, Note_on_c, 0, 48, 73
4, 27960, Note_on_c, 0, 51, 73
4, 27960, Note_on_c, 0, 55, 73
4, 28020, Note_on_c, 0, 55, 0
4, 28020, Note_on_c, 0, 51, 0
4, 28020, Note_on_c, 0, 48, 0
4, 28020, Note_on_c, 0, 60, 73
4, 28080, Note_on_c, 0, 60, 0
4, 28080, Note_on_c, 0, 48, 73
4, 28080, Note_on_c, 0, 51, 73
4, 28080, Note_on_c, 0, 55, 73
4, 28140, Note_on_c, 0, 55, 0
4, 28140, Note_on_c, 0, 51, 0
4, 28140, Note_on_c, 0, 48, 0
4, 28140, Note_on_c, 0, 60, 73
4, 28200, Note_on_c, 0, 60, 0
4, 28200, Note_on_c, 0, 48, 73
4, 28200, Note_on_c, 0, 51, 73
4, 28200, Note_on_c, 0, 55, 73
4, 28260, Note_on_c, 0, 55, 0
4, 28260, Note_on_c, 0, 51, 0
4, 28260, Note_on_c, 0, 48, 0
4, 28260, Note_on_c, 0, 60, 73
4, 28320, Note_on_c, 0, 60, 0
4, 28320, Note_on_c, 0, 48, 73
4, 28320, Note_on_c, 0, 51, 73
4, 28320, Note_on_c, 0, 55, 73
4, 28380, Note_on_c, 0, 55, 0
4, 28380, Note_on_c, 0, 51, 0
4, 28380, Note_on_c, 0, 48, 0
4, 28380, Note_on_c, 0, 60, 73
4, 28440, Note_on_c, 0, 60, 0
4, 28440, Note_on_c, 0, 48, 73
4, 28440, Note_on_c, 0, 51, 73
4, 28440, Note_on_c, 0, 55, 73
4, 28500, Note_on_c, 0, 55, 0
4, 28500, Note_on_c, 0, 51, 0
4, 28500, Note_on_c, 0, 48, 0
4, 28500, Note_on_c, 0, 60, 73
4, 28560, Note_on_c, 0, 60, 0
4, 28560, Note_on_c, 0, 48, 73
4, 28560, Note_on_c, 0, 51, 73
4, 28560, Note_on_c, 0, 55, 73
4, 28620, Note_on_c, 0, 55, 0
4, 28620, Note_on_c, 0, 51, 0
4, 28620, Note_on_c, 0, 48, 0
4, 28620, Note_on_c, 0, 60, 73
4, 28680, Note_on_c, 0, 60, 0
4, 28680, Note_on_c, 0, 48, 73
4, 28680, Note_on_c, 0, 51, 73
4, 28680, Note_on_c, 0, 55, 73
4, 28740, Note_on_c, 0, 55, 0
4, 28740, Note_on_c, 0, 51, 0
4, 28740, Note_on_c, 0, 48, 0
4, 28740, Control_c, 0, 64, 0
4, 28740, Note_on_c, 0, 60, 73
4, 28800, Note_on_c, 0, 60, 0
4, 29040, Control_c, 0, 64, 127
4, 29040, Note_on_c, 0, 43, 73
4, 29040, Note_on_c, 0, 48, 73
4, 29040, Note_on_c, 0, 51, 73
4, 29100, Note_on_c, 0, 51, 0
4, 29100, Note_on_c, 0, 48, 0
4, 29100, Note_on_c, 0, 43, 0
4, 29100, Note_on_c, 0, 55, 73
4, 29160, Note_on_c, 0, 55, 0
4, 29160, Note_on_c, 0, 43, 73
4, 29160, Note_on_c, 0, 48, 73
4, 29160, Note_on_c, 0, 51, 73
4, 29220, Note_on_c, 0, 51, 0
4, 29220, Note_on_c, 0, 48, 0
4, 29220, Note_on_c, 0, 43, 0
4, 29220, Note_on_c, 0, 55, 73
4, 29280, Note_on_c, 0, 55, 0
4, 29280, Note_on_c, 0, 43, 73
4, 29280, Note_on_c, 0, 48, 73
4, 29280, Note_on_c, 0, 51, 73
4, 29340, Note_on_c, 0, 51, 0
4, 29340, Note_on_c, 0, 48, 0
4, 29340, Note_on_c, 0, 43, 0
4, 29340, Note_on_c, 0, 55, 73
4, 29400, Note_on_c, 0, 55, 0
4, 29400, Note_on_c, 0, 43, 73
4, 29400, Note_on_c, 0, 48, 73
4, 29400, Note_on_c, 0, 51, 73
4, 29460, Note_on_c, 0, 51, 0
4, 29460, Note_on_c, 0, 48, 0
4, 29460, Note_on_c, 0, 43, 0
4, 29460, Note_on_c, 0, 55, 73
4, 29520, Note_on_c, 0, 55, 0
4, 29520, Note_on_c, 0, 43, 73
4, 29520, Note_on_c, 0, 48, 73
4, 29520, Note_on_c, 0, 51, 73
4, 29580, Note_on_c, 0, 51, 0
4, 29580, Note_on_c, 0, 48, 0
4, 29580, Note_on_c, 0, 43, 0
4, 29580, Note_on_c, 0, 55, 73
4, 29640, Note_on_c, 0, 55, 0
4, 29640, Note_on_c, 0, 43, 73
4, 29640, Note_on_c, 0, 48, 73
4, 29640, Note_on_c, 0, 51, 73
4, 29700, Note_on_c, 0, 51, 0
4, 29700, Note_on_c, 0, 48, 0
4, 29700, Note_on_c, 0, 43, 0
4, 29700, Note_on_c, 0, 55, 73
4, 29760, Note_on_c, 0, 55, 0
4, 29760, Note_on_c, 0, 43, 73
4, 29760, Note_on_c, 0, 48, 73
4, 29760, Note_on_c, 0, 51, 73
4, 29820, Note_on_c, 0, 51, 0
4, 29820, Note_on_c, 0, 48, 0
4, 29820, Note_on_c, 0, 43, 0
4, 29820, Note_on_c, 0, 55, 73
4, 29880, Note_on_c, 0, 55, 0
4, 29880, Note_on_c, 0, 43, 73
4, 29880, Note_on_c, 0, 48, 73
4, 29880, Note_on_c, 0, 51, 73
4, 29940, Note_on_c, 0, 51, 0
4, 29940, Note_on_c, 0, 48, 0
4, 29940, Note_on_c, 0, 43, 0
4, 29940, Note_on_c, 0, 55, 73
4, 30000, Note_on_c, 0, 55, 0
4, 30000, Note_on_c, 0, 43, 73
4, 30000, Note_on_c, 0, 48, 73
4, 30000, Note_on_c, 0, 51, 73
4, 30060, Note_on_c, 0, 51, 0
4, 30060, Note_on_c, 0, 48, 0
4, 30060, Note_on_c, 0, 43, 0
4, 30060, Note_on_c, 0, 55, 73
4, 30120, Note_on_c, 0, 55, 0
4, 30120, Note_on_c, 0, 43, 73
4, 30120, Note_on_c, 0, 48, 73
4, 30120, Note_on_c, 0, 51, 73
4, 30180, Note_on_c, 0, 51, 0
4, 30180, Note_on_c, 0, 48, 0
4, 30180, Note_on_c, 0, 43, 0
4, 30180, Note_on_c, 0, 55, 73
4, 30240, Note_on_c, 0, 55, 0
4, 30240, Note_on_c, 0, 43, 73
4, 30240, Note_on_c, 0, 48, 73
4, 30240, Note_on_c, 0, 51, 73
4, 30300, Note_on_c, 0, 51, 0
4, 30300, Note_on_c, 0, 48, 0
4, 30300, Note_on_c, 0, 43, 0
4, 30300, Note_on_c, 0, 55, 73
4, 30360, Note_on_c, 0, 55, 0
4, 30360, Note_on_c, 0, 43, 73
4, 30360, Note_on_c, 0, 48, 73
4, 30360, Note_on_c, 0, 51, 73
4, 30420, Note_on_c, 0, 51, 0
4, 30420, Note_on_c, 0, 48, 0
4, 30420, Note_on_c, 0, 43, 0
4, 30420, Note_on_c, 0, 55, 73
4, 30480, Note_on_c, 0, 55, 0
4, 30480, Note_on_c, 0, 43, 73
4, 30480, Note_on_c, 0, 48, 73
4, 30480, Note_on_c, 0, 51, 73
4, 30540, Note_on_c, 0, 51, 0
4, 30540, Note_on_c, 0, 48, 0
4, 30540, Note_on_c, 0, 43, 0
4, 30540, Note_on_c, 0, 55, 73
4, 30600, Note_on_c, 0, 55, 0
4, 30600, Note_on_c, 0, 43, 73
4, 30600, Note_on_c, 0, 48, 73
4, 30600, Note_on_c, 0, 51, 73
4, 30660, Note_on_c, 0, 51, 0
4, 30660, Note_on_c, 0, 48, 0
4, 30660, Note_on_c, 0, 43, 0
4, 30660, Control_c, 0, 64, 0
4, 30660, Note_on_c, 0, 55, 73
4, 30720, Note_on_c, 0, 55, 0
4, 30960, Control_c, 0, 64, 127
4, 30960, Note_on_c, 0, 43, 73
4, 30960, Note_on_c, 0, 48, 73
4, 30960, Note_on_c, 0, 51, 73
4, 31020, Note_on_c, 0, 51, 0
4, 31020, Note_on_c, 0, 48, 0
4, 31020, Note_on_c, 0, 43, 0
4, 31020, Note_on_c, 0, 55, 73
4, 31080, Note_on_c, 0, 55, 0
4, 31080, Note_on_c, 0, 43, 73
4, 31080, Note_on_c, 0, 48, 73
4, 31080, Note_on_c, 0, 51, 73
4, 31140, Note_on_c, 0, 51, 0
4, 31140, Note_on_c, 0, 48, 0
4, 31140, Note_on_c, 0, 43, 0
4, 31140, Note_on_c, 0, 55, 73
4, 31200, Note_on_c, 0, 55, 0
4, 31200, Note_on_c, 0, 43, 73
4, 31200, Note_on_c, 0, 48, 73
4, 31200, Note_on_c, 0, 51, 73
4, 31260, Note_on_c, 0, 51, 0
4, 31260, Note_on_c, 0, 48, 0
4, 31260, Note_on_c, 0, 43, 0
4, 31260, Note_on_c, 0, 55, 73
4, 31320, Note_on_c, 0, 55, 0
4, 31320, Note_on_c, 0, 43, 73
4, 31320, Note_on_c, 0, 48, 73
4, 31320, Note_on_c, 0, 51, 73
4, 31380, Note_on_c, 0, 51, 0
4, 31380, Note_on_c, 0, 48, 0
4, 31380, Note_on_c, 0, 43, 0
4, 31380, Note_on_c, 0, 55, 73
4, 31440, Note_on_c, 0, 55, 0
4, 31440, Note_on_c, 0, 43, 73
4, 31440, Note_on_c, 0, 48, 73
4, 31440, Note_on_c, 0, 51, 73
4, 31500, Note_on_c, 0, 51, 0
4, 31500, Note_on_c, 0, 48, 0
4, 31500, Note_on_c, 0, 43, 0
4, 31500, Note_on_c, 0, 55, 73
4, 31560, Note_on_c, 0, 55, 0
4, 31560, Note_on_c, 0, 43, 73
4, 31560, Note_on_c, 0, 48, 73
4, 31560, Note_on_c, 0, 51, 73
4, 31620, Note_on_c, 0, 51, 0
4, 31620, Note_on_c, 0, 48, 0
4, 31620, Note_on_c, 0, 43, 0
4, 31620, Note_on_c, 0, 55, 73
4, 31680, Note_on_c, 0, 55, 0
4, 31680, Note_on_c, 0, 43, 73
4, 31680, Note_on_c, 0, 48, 73
4, 31680, Note_on_c, 0, 51, 73
4, 31740, Note_on_c, 0, 51, 0
4, 31740, Note_on_c, 0, 48, 0
4, 31740, Note_on_c, 0, 43, 0
4, 31740, Note_on_c, 0, 55, 73
4, 31800, Note_on_c, 0, 55, 0
4, 31800, Note_on_c, 0, 43, 73
4, 31800, Note_on_c, 0, 48, 73
4, 31800, Note_on_c, 0, 51, 73
4, 31860, Note_on_c, 0, 51, 0
4, 31860, Note_on_c, 0, 48, 0
4, 31860, Note_on_c, 0, 43, 0
4, 31860, Note_on_c, 0, 55, 73
4, 31920, Note_on_c, 0, 55, 0
4, 31920, Note_on_c, 0, 43, 73
4, 31920, Note_on_c, 0, 48, 73
4, 31920, Note_on_c, 0, 51, 73
4, 31980, Note_on_c, 0, 51, 0
4, 31980, Note_on_c, 0, 48, 0
4, 31980, Note_on_c, 0, 43, 0
4, 31980, Note_on_c, 0, 55, 73
4, 32040, Note_on_c, 0, 55, 0
4, 32040, Note_on_c, 0, 43, 73
4, 32040, Note_on_c, 0, 48, 73
4, 32040, Note_on_c, 0, 51, 73
4, 32100, Note_on_c, 0, 51, 0
4, 32100, Note_on_c, 0, 48, 0
4, 32100, Note_on_c, 0, 43, 0
4, 32100, Note_on_c, 0, 55, 73
4, 32160, Note_on_c, 0, 55, 0
4, 32160, Note_on_c, 0, 43, 73
4, 32160, Note_on_c, 0, 48, 73
4, 32160, Note_on_c, 0, 51, 73
4, 32220, Note_on_c, 0, 51, 0
4, 32220, Note_on_c, 0, 48, 0
4, 32220, Note_on_c, 0, 43, 0
4, 32220, Note_on_c, 0, 55, 73
4, 32280, Note_on_c, 0, 55, 0
4, 32280, Note_on_c, 0, 43, 73
4, 32280, Note_on_c, 0, 48, 73
4, 32280, Note_on_c, 0, 51, 73
4, 32340, Note_on_c, 0, 51, 0
4, 32340, Note_on_c, 0, 48, 0
4, 32340, Note_on_c, 0, 43, 0
4, 32340, Note_on_c, 0, 55, 73
4, 32400, Note_on_c, 0, 55, 0
4, 32400, Note_on_c, 0, 43, 73
4, 32400, Note_on_c, 0, 48, 73
4, 32400, Note_on_c, 0, 51, 73
4, 32460, Note_on_c, 0, 51, 0
4, 32460, Note_on_c, 0, 48, 0
4, 32460, Note_on_c, 0, 43, 0
4, 32460, Note_on_c, 0, 55, 73
4, 32520, Note_on_c, 0, 55, 0
4, 32520, Note_on_c, 0, 43, 73
4, 32520, Note_on_c, 0, 48, 73
4, 32520, Note_on_c, 0, 51, 73
4, 32580, Note_on_c, 0, 51, 0
4, 32580, Note_on_c, 0, 48, 0
4, 32580, Note_on_c, 0, 43, 0
4, 32580, Control_c, 0, 64, 0
4, 32580, Note_on_c, 0, 55, 73
4, 32640, Note_on_c, 0, 55, 0
4, 32640, Note_on_c, 0, 43, 99
4, 32640, Note_on_c, 0, 48, 99
4, 32640, Note_on_c, 0, 51, 99
4, 32640, Note_on_c, 0, 57, 99
4, 32880, Note_on_c, 0, 57, 0
4, 32880, Note_on_c, 0, 43, 0
4, 32880, Note_on_c, 0, 48, 0
4, 32880, Note_on_c, 0, 51, 0
4, 33120, Note_on_c, 0, 43, 99
4, 33120, Note_on_c, 0, 50, 99
4, 33120, Note_on_c, 0, 59, 99
4, 33360, Note_on_c, 0, 59, 0
4, 33360, Note_on_c, 0, 50, 0
4, 33360, Note_on_c, 0, 43, 0
4, 33600, Note_on_c, 0, 55, 125
4, 35520, Note_on_c, 0, 55, 0
4, 35520, Note_on_c, 0, 53, 47
4, 35520, Note_on_c, 0, 65, 47
4, 35760, Note_on_c, 0, 65, 0
4, 35760, Note_on_c, 0, 53, 0
4, 35760, Note_on_c, 0, 55, 47
4, 35760, Note_on_c, 0, 67, 47
4, 36000, Note_on_c, 0, 67, 0
4, 36000, Note_on_c, 0, 55, 0
4, 36000, Note_on_c, 0, 53, 47
4, 36000, Note_on_c, 0, 65, 47
4, 36240, Note_on_c, 0, 65, 0
4, 36240, Note_on_c, 0, 53, 0
4, 36240, Note_on_c, 0, 55, 47
4, 36240, Note_on_c, 0, 67, 47
4, 36480, Note_on_c, 0, 67, 0
4, 36480, Note_on_c, 0, 55, 0
4, 36480, Note_on_c, 0, 53, 47
4, 36480, Note_on_c, 0, 65, 47
4, 36720, Note_on_c, 0, 65, 0
4, 36720, Note_on_c, 0, 53, 0
4, 36720, Note_on_c, 0, 55, 47
4, 36720, Note_on_c, 0, 67, 47
4, 36960, Note_on_c, 0, 67, 0
4, 36960, Note_on_c, 0, 55, 0
4, 36960, Note_on_c, 0, 53, 47
4, 36960, Note_on_c, 0, 65, 47
4, 37200, Note_on_c, 0, 65, 0
4, 37200, Note_on_c, 0, 53, 0
4, 37200, Note_on_c, 0, 55, 47
4, 37200, Note_on_c, 0, 67, 47
4, 37440, Note_on_c, 0, 67, 0
4, 37440, Note_on_c, 0, 55, 0
4, 37440, Note_on_c, 0, 53, 47
4, 37440, Note_on_c, 0, 65, 47
4, 37680, Note_on_c, 0, 65, 0
4, 37680, Note_on_c, 0, 53, 0
4, 37680, Note_on_c, 0, 55, 47
4, 37680, Note_on_c, 0, 67, 47
4, 37920, Note_on_c, 0, 67, 0
4, 37920, Note_on_c, 0, 55, 0
4, 37920, Note_on_c, 0, 53, 47
4, 37920, Note_on_c, 0, 65, 47
4, 38160, Note_on_c, 0, 65, 0
4, 38160, Note_on_c, 0, 53, 0
4, 38160, Note_on_c, 0, 55, 47
4, 38160, Note_on_c, 0, 67, 47
4, 38400, Note_on_c, 0, 67, 0
4, 38400, Note_on_c, 0, 55, 0
4, 38400, Note_on_c, 0, 53, 47
4, 38400, Note_on_c, 0, 65, 47
4, 38640, Note_on_c, 0, 65, 0
4, 38640, Note_on_c, 0, 53, 0
4, 38640, Note_on_c, 0, 55, 47
4, 38640, Note_on_c, 0, 67, 47
4, 38880, Note_on_c, 0, 67, 0
4, 38880, Note_on_c, 0, 55, 0
4, 38880, Note_on_c, 0, 53, 47
4, 38880, Note_on_c, 0, 65, 47
4, 39120, Note_on_c, 0, 65, 0
4, 39120, Note_on_c, 0, 53, 0
4, 39120, Note_on_c, 0, 55, 47
4, 39120, Note_on_c, 0, 67, 47
4, 39360, Note_on_c, 0, 67, 0
4, 39360, Note_on_c, 0, 55, 0
4, 39360, Note_on_c, 0, 53, 47
4, 39360, Note_on_c, 0, 65, 47
4, 39600, Note_on_c, 0, 65, 0
4, 39600, Note_on_c, 0, 53, 0
4, 39600, Note_on_c, 0, 55, 47
4, 39600, Note_on_c, 0, 67, 47
4, 39840, Note_on_c, 0, 67, 0
4, 39840, Note_on_c, 0, 55, 0
4, 39840, Note_on_c, 0, 53, 47
4, 39840, Note_on_c, 0, 65, 47
4, 40080, Note_on_c, 0, 65, 0
4, 40080, Note_on_c, 0, 53, 0
4, 40080, Note_on_c, 0, 55, 47
4, 40080, Note_on_c, 0, 67, 47
4, 40320, Note_on_c, 0, 67, 0
4, 40320, Note_on_c, 0, 55, 0
4, 40320, Note_on_c, 0, 53, 47
4, 40320, Note_on_c, 0, 65, 47
4, 40560, Note_on_c, 0, 65, 0
4, 40560, Note_on_c, 0, 53, 0
4, 40560, Note_on_c, 0, 55, 47
4, 40560, Note_on_c, 0, 67, 47
4, 40800, Note_on_c, 0, 67, 0
4, 40800, Note_on_c, 0, 55, 0
4, 40800, Note_on_c, 0, 53, 47
4, 40800, Note_on_c, 0, 65, 47
4, 41040, Note_on_c, 0, 65, 0
4, 41040, Note_on_c, 0, 53, 0
4, 41040, Note_on_c, 0, 55, 47
4, 41040, Note_on_c, 0, 67, 47
4, 41280, Note_on_c, 0, 67, 0
4, 41280, Note_on_c, 0, 55, 0
4, 41280, Note_on_c, 0, 53, 47
4, 41280, Note_on_c, 0, 65, 47
4, 41520, Note_on_c, 0, 65, 0
4, 41520, Note_on_c, 0, 53, 0
4, 41520, Note_on_c, 0, 55, 47
4, 41520, Note_on_c, 0, 67, 47
4, 41760, Note_on_c, 0, 67, 0
4, 41760, Note_on_c, 0, 55, 0
4, 41760, Note_on_c, 0, 53, 47
4, 41760, Note_on_c, 0, 65, 47
4, 42000, Note_on_c, 0, 65, 0
4, 42000, Note_on_c, 0, 53, 0
4, 42000, Note_on_c, 0, 55, 47
4, 42000, Note_on_c, 0, 67, 47
4, 42240, Note_on_c, 0, 67, 0
4, 42240, Note_on_c, 0, 55, 0
4, 42240, Note_on_c, 0, 53, 47
4, 42240, Note_on_c, 0, 65, 47
4, 42480, Note_on_c, 0, 65, 0
4, 42480, Note_on_c, 0, 53, 0
4, 42480, Note_on_c, 0, 55, 47
4, 42480, Note_on_c, 0, 67, 47
4, 42720, Note_on_c, 0, 67, 0
4, 42720, Note_on_c, 0, 55, 0
4, 42720, Note_on_c, 0, 53, 47
4, 42720, Note_on_c, 0, 65, 47
4, 42960, Note_on_c, 0, 65, 0
4, 42960, Note_on_c, 0, 53, 0
4, 42960, Note_on_c, 0, 55, 47
4, 42960, Note_on_c, 0, 67, 47
4, 43200, Note_on_c, 0, 67, 0
4, 43200, Note_on_c, 0, 55, 0
4, 43200, Note_on_c, 0, 53, 60
4, 43200, Note_on_c, 0, 65, 60
4, 43440, Note_on_c, 0, 65, 0
4, 43440, Note_on_c, 0, 53, 0
4, 43440, Note_on_c, 0, 55, 60
4, 43440, Note_on_c, 0, 67, 60
4, 43680, Note_on_c, 0, 67, 0
4, 43680, Note_on_c, 0, 55, 0
4, 43680, Note_on_c, 0, 53, 60
4, 43680, Note_on_c, 0, 65, 60
4, 43920, Note_on_c, 0, 65, 0
4, 43920, Note_on_c, 0, 53, 0
4, 43920, Note_on_c, 0, 55, 60
4, 43920, Note_on_c, 0, 67, 60
4, 44160, Note_on_c, 0, 67, 0
4, 44160, Note_on_c, 0, 55, 0
4, 44160, Note_on_c, 0, 53, 60
4, 44160, Note_on_c, 0, 65, 60
4, 44400, Note_on_c, 0, 65, 0
4, 44400, Note_on_c, 0, 53, 0
4, 44400, Note_on_c, 0, 55, 60
4, 44400, Note_on_c, 0, 67, 60
4, 44640, Note_on_c, 0, 67, 0
4, 44640, Note_on_c, 0, 55, 0
4, 44640, Note_on_c, 0, 53, 73
4, 44640, Note_on_c, 0, 65, 73
4, 44880, Note_on_c, 0, 65, 0
4, 44880, Note_on_c, 0, 53, 0
4, 44880, Note_on_c, 0, 55, 73
4, 44880, Note_on_c, 0, 67, 73
4, 45120, Note_on_c, 0, 67, 0
4, 45120, Note_on_c, 0, 55, 0
4, 45120, Note_on_c, 0, 53, 73
4, 45120, Note_on_c, 0, 65, 73
4, 45360, Note_on_c, 0, 65, 0
4, 45360, Note_on_c, 0, 53, 0
4, 45360, Note_on_c, 0, 55, 73
4, 45360, Note_on_c, 0, 67, 73
4, 45600, Note_on_c, 0, 67, 0
4, 45600, Note_on_c, 0, 55, 0
4, 45600, Note_on_c, 0, 53, 73
4, 45600, Note_on_c, 0, 65, 73
4, 45840, Note_on_c, 0, 65, 0
4, 45840, Note_on_c, 0, 53, 0
4, 45840, Note_on_c, 0, 55, 73
4, 45840, Note_on_c, 0, 67, 73
4, 46080, Note_on_c, 0, 67, 0
4, 46080, Note_on_c, 0, 55, 0
4, 46080, Note_on_c, 0, 50, 86
4, 46080, Note_on_c, 0, 62, 86
4, 46320, Note_on_c, 0, 62, 0
4, 46320, Note_on_c, 0, 50, 0
4, 46320, Note_on_c, 0, 52, 86
4, 46320, Note_on_c, 0, 64, 86
4, 46560, Note_on_c, 0, 64, 0
4, 46560, Note_on_c, 0, 52, 0
4, 46560, Note_on_c, 0, 50, 86
4, 46560, Note_on_c, 0, 62, 86
4, 46800, Note_on_c, 0, 62, 0
4, 46800, Note_on_c, 0, 50, 0
4, 46800, Note_on_c, 0, 52, 86
4, 46800, Note_on_c, 0, 64, 86
4, 47040, Note_on_c, 0, 64, 0
4, 47040, Note_on_c, 0, 52, 0
4, 47040, Note_on_c, 0, 50, 86
4, 47040, Note_on_c, 0, 62, 86
4, 47280, Note_on_c, 0, 62, 0
4, 47280, Note_on_c, 0, 50, 0
4, 47280, Note_on_c, 0, 52, 86
4, 47280, Note_on_c, 0, 64, 86
4, 47520, Note_on_c, 0, 64, 0
4, 47520, Note_on_c, 0, 52, 0
4, 47520, Note_on_c, 0, 50, 86
4, 47520, Note_on_c, 0, 62, 86
4, 47760, Note_on_c, 0, 62, 0
4, 47760, Note_on_c, 0, 50, 0
4, 47760, Note_on_c, 0, 52, 86
4, 47760, Note_on_c, 0, 64, 86
4, 48000, Note_on_c, 0, 64, 0
4, 48000, Note_on_c, 0, 52, 0
4, 48000, Note_on_c, 0, 50, 86
4, 48000, Note_on_c, 0, 62, 86
4, 48240, Note_on_c, 0, 62, 0
4, 48240, Note_on_c, 0, 50, 0
4, 48240, Note_on_c, 0, 52, 86
4, 48240, Note_on_c, 0, 64, 86
4, 48480, Note_on_c, 0, 64, 0
4, 48480, Note_on_c, 0, 52, 0
4, 48480, Note_on_c, 0, 50, 86
4, 48480, Note_on_c, 0, 62, 86
4, 48720, Note_on_c, 0, 62, 0
4, 48720, Note_on_c, 0, 50, 0
4, 48720, Note_on_c, 0, 52, 86
4, 48720, Note_on_c, 0, 64, 86
4, 48960, Note_on_c, 0, 64, 0
4, 48960, Note_on_c, 0, 52, 0
4, 48960, Note_on_c, 0, 50, 86
4, 48960, Note_on_c, 0, 62, 86
4, 49200, Note_on_c, 0, 62, 0
4, 49200, Note_on_c, 0, 50, 0
4, 49200, Note_on_c, 0, 52, 86
4, 49200, Note_on_c, 0, 64, 86
4, 49440, Note_on_c, 0, 64, 0
4, 49440, Note_on_c, 0, 52, 0
4, 49440, Note_on_c, 0, 50, 86
4, 49440, Note_on_c, 0, 62, 86
4, 49680, Note_on_c, 0, 62, 0
4, 49680, Note_on_c, 0, 50, 0
4, 49680, Note_on_c, 0, 52, 86
4, 49680, Note_on_c, 0, 64, 86
4, 49920, Note_on_c, 0, 64, 0
4, 49920, Note_on_c, 0, 52, 0
4, 49920, Note_on_c, 0, 48, 99
4, 49920, Note_on_c, 0, 53, 99
4, 49920, Note_on_c, 0, 57, 99
4, 49920, Note_on_c, 0, 60, 99
4, 50160, Note_on_c, 0, 60, 0
4, 50160, Note_on_c, 0, 48, 0
4, 50160, Note_on_c, 0, 53, 0
4, 50160, Note_on_c, 0, 57, 0
4, 50160, Note_on_c, 0, 57, 47
4, 50160, Note_on_c, 0, 60, 47
4, 50400, Note_on_c, 0, 60, 0
4, 50400, Note_on_c, 0, 57, 0
4, 50400, Note_on_c, 0, 48, 47
4, 50640, Note_on_c, 0, 48, 0
4, 50640, Note_on_c, 0, 57, 47
4, 50640, Note_on_c, 0, 60, 47
4, 50640, Note_on_c, 0, 65, 47
4, 50880, Note_on_c, 0, 65, 0
4, 50880, Note_on_c, 0, 60, 0
4, 50880, Note_on_c, 0, 57, 0
4, 50880, Note_on_c, 0, 53, 47
4, 51120, Note_on_c, 0, 53, 0
4, 51120, Note_on_c, 0, 57, 47
4, 51120, Note_on_c, 0, 60, 47
4, 51120, Note_on_c, 0, 65, 47
4, 51360, Note_on_c, 0, 65, 0
4, 51360, Note_on_c, 0, 60, 0
4, 51360, Note_on_c, 0, 57, 0
4, 51360, Note_on_c, 0, 53, 47
4, 51600, Note_on_c, 0, 53, 0
4, 51600, Note_on_c, 0, 57, 47
4, 51600, Note_on_c, 0, 60, 47
4, 51600, Note_on_c, 0, 65, 47
4, 51840, Note_on_c, 0, 65, 0
4, 51840, Note_on_c, 0, 60, 0
4, 51840, Note_on_c, 0, 57, 0
4, 51840, Note_on_c, 0, 48, 47
4, 52080, Note_on_c, 0, 48, 0
4, 52080, Note_on_c, 0, 57, 47
4, 52080, Note_on_c, 0, 60, 47
4, 52080, Note_on_c, 0, 64, 47
4, 52320, Note_on_c, 0, 64, 0
4, 52320, Note_on_c, 0, 60, 0
4, 52320, Note_on_c, 0, 57, 0
4, 52320, Note_on_c, 0, 48, 47
4, 52560, Note_on_c, 0, 48, 0
4, 52560, Note_on_c, 0, 57, 47
4, 52560, Note_on_c, 0, 60, 47
4, 52560, Note_on_c, 0, 64, 47
4, 52800, Note_on_c, 0, 64, 0
4, 52800, Note_on_c, 0, 60, 0
4, 52800, Note_on_c, 0, 57, 0
4, 52800, Note_on_c, 0, 53, 47
4, 53040, Note_on_c, 0, 53, 0
4, 53040, Note_on_c, 0, 57, 47
4, 53040, Note_on_c, 0, 60, 47
4, 53040, Note_on_c, 0, 65, 47
4, 53280, Note_on_c, 0, 65, 0
4, 53280, Note_on_c, 0, 60, 0
4, 53280, Note_on_c, 0, 57, 0
4, 53280, Note_on_c, 0, 53, 47
4, 53520, Note_on_c, 0, 53, 0
4, 53520, Note_on_c, 0, 57, 47
4, 53520, Note_on_c, 0, 60, 47
4, 53520, Note_on_c, 0, 65, 47
4, 53760, Note_on_c, 0, 65, 0
4, 53760, Note_on_c, 0, 60, 0
4, 53760, Note_on_c, 0, 57, 0
4, 53760, Note_on_c, 0, 48, 47
4, 54000, Note_on_c, 0, 48, 0
4, 54000, Note_on_c, 0, 57, 47
4, 54000, Note_on_c, 0, 60, 47
4, 54000, Note_on_c, 0, 64, 47
4, 54240, Note_on_c, 0, 64, 0
4, 54240, Note_on_c, 0, 60, 0
4, 54240, Note_on_c, 0, 57, 0
4, 54240, Note_on_c, 0, 48, 47
4, 54480, Note_on_c, 0, 48, 0
4, 54480, Note_on_c, 0, 57, 47
4, 54480, Note_on_c, 0, 60, 47
4, 54480, Note_on_c, 0, 64, 47
4, 54720, Note_on_c, 0, 64, 0
4, 54720, Note_on_c, 0, 60, 0
4, 54720, Note_on_c, 0, 57, 0
4, 54720, Note_on_c, 0, 50, 60
4, 54960, Note_on_c, 0, 50, 0
4, 54960, Note_on_c, 0, 57, 60
4, 54960, Note_on_c, 0, 59, 60
4, 54960, Note_on_c, 0, 65, 60
4, 55200, Note_on_c, 0, 65, 0
4, 55200, Note_on_c, 0, 59, 0
4, 55200, Note_on_c, 0, 57, 0
4, 55200, Note_on_c, 0, 50, 60
4, 55440, Note_on_c, 0, 50, 0
4, 55440, Note_on_c, 0, 57, 60
4, 55440, Note_on_c, 0, 59, 60
4, 55440, Note_on_c, 0, 65, 60
4, 55680, Note_on_c, 0, 65, 0
4, 55680, Note_on_c, 0, 59, 0
4, 55680, Note_on_c, 0, 57, 0
4, 55680, Note_on_c, 0, 52, 60
4, 55920, Note_on_c, 0, 52, 0
4, 55920, Note_on_c, 0, 57, 60
4, 55920, Note_on_c, 0, 60, 60
4, 55920, Note_on_c, 0, 64, 60
4, 56160, Note_on_c, 0, 64, 0
4, 56160, Note_on_c, 0, 60, 0
4, 56160, Note_on_c, 0, 57, 0
4, 56160, Note_on_c, 0, 52, 60
4, 56400, Note_on_c, 0, 52, 0
4, 56400, Note_on_c, 0, 57, 60
4, 56400, Note_on_c, 0, 60, 60
4, 56400, Note_on_c, 0, 64, 60
4, 56640, Note_on_c, 0, 64, 0
4, 56640, Note_on_c, 0, 60, 0
4, 56640, Note_on_c, 0, 57, 0
4, 56640, Note_on_c, 0, 50, 60
4, 56880, Note_on_c, 0, 50, 0
4, 56880, Note_on_c, 0, 56, 60
4, 56880, Note_on_c, 0, 59, 60
4, 56880, Note_on_c, 0, 64, 60
4, 57120, Note_on_c, 0, 64, 0
4, 57120, Note_on_c, 0, 59, 0
4, 57120, Note_on_c, 0, 56, 0
4, 57120, Note_on_c, 0, 50, 60
4, 57360, Note_on_c, 0, 50, 0
4, 57360, Note_on_c, 0, 56, 60
4, 57360, Note_on_c, 0, 59, 60
4, 57360, Note_on_c, 0, 64, 60
4, 57600, Note_on_c, 0, 64, 0
4, 57600, Note_on_c, 0, 59, 0
4, 57600, Note_on_c, 0, 56, 0
4, 57600, Note_on_c, 0, 48, 86
4, 57600, Note_on_c, 0, 53, 86
4, 57600, Note_on_c, 0, 57, 86
4, 57600, Note_on_c, 0, 60, 86
4, 57840, Note_on_c, 0, 60, 0
4, 57840, Note_on_c, 0, 48, 0
4, 57840, Note_on_c, 0, 53, 0
4, 57840, Note_on_c, 0, 57, 0
4, 57840, Note_on_c, 0, 57, 47
4, 57840, Note_on_c, 0, 60, 47
4, 58080, Note_on_c, 0, 60, 0
4, 58080, Note_on_c, 0, 57, 0
4, 58080, Note_on_c, 0, 48, 47
4, 58320, Note_on_c, 0, 48, 0
4, 58320, Note_on_c, 0, 57, 47
4, 58320, Note_on_c, 0, 60, 47
4, 58320, Note_on_c, 0, 65, 47
4, 58560, Note_on_c, 0, 65, 0
4, 58560, Note_on_c, 0, 60, 0
4, 58560, Note_on_c, 0, 57, 0
4, 58560, Note_on_c, 0, 53, 47
4, 58800, Note_on_c, 0, 53, 0
4, 58800, Note_on_c, 0, 57, 47
4, 58800, Note_on_c, 0, 60, 47
4, 58800, Note_on_c, 0, 65, 47
4, 59040, Note_on_c, 0, 65, 0
4, 59040, Note_on_c, 0, 60, 0
4, 59040, Note_on_c, 0, 57, 0
4, 59040, Note_on_c, 0, 53, 47
4, 59280, Note_on_c, 0, 53, 0
4, 59280, Note_on_c, 0, 57, 47
4, 59280, Note_on_c, 0, 60, 47
4, 59280, Note_on_c, 0, 65, 47
4, 59520, Note_on_c, 0, 65, 0
4, 59520, Note_on_c, 0, 60, 0
4, 59520, Note_on_c, 0, 57, 0
4, 59520, Note_on_c, 0, 48, 47
4, 59760, Note_on_c, 0, 48, 0
4, 59760, Note_on_c, 0, 57, 47
4, 59760, Note_on_c, 0, 60, 47
4, 59760, Note_on_c, 0, 64, 47
4, 60000, Note_on_c, 0, 64, 0
4, 60000, Note_on_c, 0, 60, 0
4, 60000, Note_on_c, 0, 57, 0
4, 60000, Note_on_c, 0, 48, 47
4, 60240, Note_on_c, 0, 48, 0
4, 60240, Note_on_c, 0, 57, 47
4, 60240, Note_on_c, 0, 60, 47
4, 60240, Note_on_c, 0, 64, 47
4, 60480, Note_on_c, 0, 64, 0
4, 60480, Note_on_c, 0, 60, 0
4, 60480, Note_on_c, 0, 57, 0
4, 60480, Note_on_c, 0, 53, 47
4, 60720, Note_on_c, 0, 53, 0
4, 60720, Note_on_c, 0, 57, 47
4, 60720, Note_on_c, 0, 60, 47
4, 60720, Note_on_c, 0, 65, 47
4, 60960, Note_on_c, 0, 65, 0
4, 60960, Note_on_c, 0, 60, 0
4, 60960, Note_on_c, 0, 57, 0
4, 60960, Note_on_c, 0, 53, 47
4, 61200, Note_on_c, 0, 53, 0
4, 61200, Note_on_c, 0, 57, 47
4, 61200, Note_on_c, 0, 60, 47
4, 61200, Note_on_c, 0, 65, 47
4, 61440, Note_on_c, 0, 65, 0
4, 61440, Note_on_c, 0, 60, 0
4, 61440, Note_on_c, 0, 57, 0
4, 61440, Note_on_c, 0, 48, 47
4, 61680, Note_on_c, 0, 48, 0
4, 61680, Note_on_c, 0, 57, 47
4, 61680, Note_on_c, 0, 60, 47
4, 61680, Note_on_c, 0, 64, 47
4, 61920, Note_on_c, 0, 64, 0
4, 61920, Note_on_c, 0, 60, 0
4, 61920, Note_on_c, 0, 57, 0
4, 61920, Note_on_c, 0, 48, 47
4, 62160, Note_on_c, 0, 48, 0
4, 62160, Note_on_c, 0, 57, 47
4, 62160, Note_on_c, 0, 60, 47
4, 62160, Note_on_c, 0, 64, 47
4, 62400, Note_on_c, 0, 64, 0
4, 62400, Note_on_c, 0, 60, 0
4, 62400, Note_on_c, 0, 57, 0
4, 62400, Note_on_c, 0, 50, 60
4, 62640, Note_on_c, 0, 50, 0
4, 62640, Note_on_c, 0, 57, 60
4, 62640, Note_on_c, 0, 59, 60
4, 62640, Note_on_c, 0, 65, 60
4, 62880, Note_on_c, 0, 65, 0
4, 62880, Note_on_c, 0, 59, 0
4, 62880, Note_on_c, 0, 57, 0
4, 62880, Note_on_c, 0, 50, 60
4, 63120, Note_on_c, 0, 50, 0
4, 63120, Note_on_c, 0, 57, 60
4, 63120, Note_on_c, 0, 59, 60
4, 63120, Note_on_c, 0, 65, 60
4, 63360, Note_on_c, 0, 65, 0
4, 63360, Note_on_c, 0, 59, 0
4, 63360, Note_on_c, 0, 57, 0
4, 63360, Note_on_c, 0, 52, 60
4, 63600, Note_on_c, 0, 52, 0
4, 63600, Note_on_c, 0, 57, 60
4, 63600, Note_on_c, 0, 60, 60
4, 63600, Note_on_c, 0, 64, 60
4, 63840, Note_on_c, 0, 64, 0
4, 63840, Note_on_c, 0, 60, 0
4, 63840, Note_on_c, 0, 57, 0
4, 63840, Note_on_c, 0, 52, 60
4, 64080, Note_on_c, 0, 52, 0
4, 64080, Note_on_c, 0, 57, 60
4, 64080, Note_on_c, 0, 60, 60
4, 64080, Note_on_c, 0, 64, 60
4, 64320, Note_on_c, 0, 64, 0
4, 64320, Note_on_c, 0, 60, 0
4, 64320, Note_on_c, 0, 57, 0
4, 64320, Note_on_c, 0, 50, 60
4, 64560, Note_on_c, 0, 50, 0
4, 64560, Note_on_c, 0, 56, 60
4, 64560, Note_on_c, 0, 59, 60
4, 64560, Note_on_c, 0, 64, 60
4, 64800, Note_on_c, 0, 64, 0
4, 64800, Note_on_c, 0, 59, 0
4, 64800, Note_on_c, 0, 56, 0
4, 64800, Note_on_c, 0, 50, 60
4, 65040, Note_on_c, 0, 50, 0
4, 65040, Note_on_c, 0, 56, 60
4, 65040, Note_on_c, 0, 59, 60
4, 65040, Note_on_c, 0, 64, 60
4, 65280, Note_on_c, 0, 64, 0
4, 65280, Note_on_c, 0, 59, 0
4, 65280, Note_on_c, 0, 56, 0
4, 65280, Note_on_c, 0, 45, 86
4, 65280, Note_on_c, 0, 49, 86
4, 65280, Note_on_c, 0, 52, 86
4, 65280, Note_on_c, 0, 57, 86
4, 65520, Note_on_c, 0, 57, 0
4, 65520, Note_on_c, 0, 45, 0
4, 65520, Note_on_c, 0, 49, 0
4, 65520, Note_on_c, 0, 52, 0
4, 65520, Note_on_c, 0, 45, 86
4, 65520, Note_on_c, 0, 49, 86
4, 65520, Note_on_c, 0, 52, 86
4, 65520, Note_on_c, 0, 57, 86
4, 65760, Note_on_c, 0, 57, 0
4, 65760, Note_on_c, 0, 45, 0
4, 65760, Note_on_c, 0, 49, 0
4, 65760, Note_on_c, 0, 52, 0
4, 66000, Note_on_c, 0, 45, 86
4, 66000, Note_on_c, 0, 49, 86
4, 66000, Note_on_c, 0, 52, 86
4, 66000, Note_on_c, 0, 57, 86
4, 66240, Note_on_c, 0, 57, 0
4, 66240, Note_on_c, 0, 45, 0
4, 66240, Note_on_c, 0, 49, 0
4, 66240, Note_on_c, 0, 52, 0
4, 66240, Note_on_c, 0, 45, 86
4, 66240, Note_on_c, 0, 49, 86
4, 66240, Note_on_c, 0, 52, 86
4, 66240, Note_on_c, 0, 57, 86
4, 66480, Note_on_c, 0, 57, 0
4, 66480, Note_on_c, 0, 45, 0
4, 66480, Note_on_c, 0, 49, 0
4, 66480, Note_on_c, 0, 52, 0
4, 66720, Note_on_c, 0, 45, 86
4, 66720, Note_on_c, 0, 49, 86
4, 66720, Note_on_c, 0, 53, 86
4, 66720, Note_on_c, 0, 57, 86
4, 66960, Note_on_c, 0, 57, 0
4, 66960, Note_on_c, 0, 45, 0
4, 66960, Note_on_c, 0, 49, 0
4, 66960, Note_on_c, 0, 53, 0
4, 66960, Note_on_c, 0, 45, 86
4, 66960, Note_on_c, 0, 49, 86
4, 66960, Note_on_c, 0, 53, 86
4, 66960, Note_on_c, 0, 57, 86
4, 67200, Note_on_c, 0, 57, 0
4, 67200, Note_on_c, 0, 45, 0
4, 67200, Note_on_c, 0, 49, 0
4, 67200, Note_on_c, 0, 53, 0
4, 67440, Note_on_c, 0, 45, 86
4, 67440, Note_on_c, 0, 49, 86
4, 67440, Note_on_c, 0, 53, 86
4, 67440, Note_on_c, 0, 57, 86
4, 67680, Note_on_c, 0, 57, 0
4, 67680, Note_on_c, 0, 45, 0
4, 67680, Note_on_c, 0, 49, 0
4, 67680, Note_on_c, 0, 53, 0
4, 67680, Note_on_c, 0, 45, 86
4, 67680, Note_on_c, 0, 49, 86
4, 67680, Note_on_c, 0, 53, 86
4, 67680, Note_on_c, 0, 57, 86
4, 67920, Note_on_c, 0, 57, 0
4, 67920, Note_on_c, 0, 45, 0
4, 67920, Note_on_c, 0, 49, 0
4, 67920, Note_on_c, 0, 53, 0
4, 68160, Note_on_c, 0, 45, 86
4, 68160, Note_on_c, 0, 50, 86
4, 68160, Note_on_c, 0, 54, 86
4, 68160, Note_on_c, 0, 57, 86
4, 68400, Note_on_c, 0, 57, 0
4, 68400, Note_on_c, 0, 45, 0
4, 68400, Note_on_c, 0, 50, 0
4, 68400, Note_on_c, 0, 54, 0
4, 68400, Note_on_c, 0, 45, 86
4, 68400, Note_on_c, 0, 50, 86
4, 68400, Note_on_c, 0, 54, 86
4, 68400, Note_on_c, 0, 57, 86
4, 68640, Note_on_c, 0, 57, 0
4, 68640, Note_on_c, 0, 45, 0
4, 68640, Note_on_c, 0, 50, 0
4, 68640, Note_on_c, 0, 54, 0
4, 68880, Note_on_c, 0, 45, 86
4, 68880, Note_on_c, 0, 50, 86
4, 68880, Note_on_c, 0, 54, 86
4, 68880, Note_on_c, 0, 57, 86
4, 69120, Note_on_c, 0, 57, 0
4, 69120, Note_on_c, 0, 45, 0
4, 69120, Note_on_c, 0, 50, 0
4, 69120, Note_on_c, 0, 54, 0
4, 69120, Note_on_c, 0, 45, 86
4, 69120, Note_on_c, 0, 50, 86
4, 69120, Note_on_c, 0, 54, 86
4, 69120, Note_on_c, 0, 57, 86
4, 69360, Note_on_c, 0, 57, 0
4, 69360, Note_on_c, 0, 45, 0
4, 69360, Note_on_c, 0, 50, 0
4, 69360, Note_on_c, 0, 54, 0
4, 69600, Note_on_c, 0, 45, 86
4, 69600, Note_on_c, 0, 50, 86
4, 69600, Note_on_c, 0, 52, 86
4, 69600, Note_on_c, 0, 56, 86
4, 69840, Note_on_c, 0, 56, 0
4, 69840, Note_on_c, 0, 45, 0
4, 69840, Note_on_c, 0, 50, 0
4, 69840, Note_on_c, 0, 52, 0
4, 69840, Note_on_c, 0, 45, 86
4, 69840, Note_on_c, 0, 50, 86
4, 69840, Note_on_c, 0, 52, 86
4, 69840, Note_on_c, 0, 56, 86
4, 70080, Note_on_c, 0, 56, 0
4, 70080, Note_on_c, 0, 45, 0
4, 70080, Note_on_c, 0, 50, 0
4, 70080, Note_on_c, 0, 52, 0
4, 70320, Note_on_c, 0, 45, 86
4, 70320, Note_on_c, 0, 50, 86
4, 70320, Note_on_c, 0, 52, 86
4, 70320, Note_on_c, 0, 56, 86
4, 70560, Note_on_c, 0, 56, 0
4, 70560, Note_on_c, 0, 45, 0
4, 70560, Note_on_c, 0, 50, 0
4, 70560, Note_on_c, 0, 52, 0
4, 70560, Note_on_c, 0, 45, 86
4, 70560, Note_on_c, 0, 50, 86
4, 70560, Note_on_c, 0, 52, 86
4, 70560, Note_on_c, 0, 56, 86
4, 70800, Note_on_c, 0, 56, 0
4, 70800, Note_on_c, 0, 45, 0
4, 70800, Note_on_c, 0, 50, 0
4, 70800, Note_on_c, 0, 52, 0
4, 71040, Note_on_c, 0, 45, 86
4, 71040, Note_on_c, 0, 49, 86
4, 71040, Note_on_c, 0, 52, 86
4, 71040, Note_on_c, 0, 57, 86
4, 71280, Note_on_c, 0, 57, 0
4, 71280, Note_on_c, 0, 45, 0
4, 71280, Note_on_c, 0, 49, 0
4, 71280, Note_on_c, 0, 52, 0
4, 71280, Note_on_c, 0, 45, 86
4, 71280, Note_on_c, 0, 49, 86
4, 71280, Note_on_c, 0, 52, 86
4, 71280, Note_on_c, 0, 57, 86
4, 71520, Note_on_c, 0, 57, 0
4, 71520, Note_on_c, 0, 45, 0
4, 71520, Note_on_c, 0, 49, 0
4, 71520, Note_on_c, 0, 52, 0
4, 71760, Note_on_c, 0, 45, 86
4, 71760, Note_on_c, 0, 49, 86
4, 71760, Note_on_c, 0, 52, 86
4, 71760, Note_on_c, 0, 57, 86
4, 72000, Note_on_c, 0, 57, 0
4, 72000, Note_on_c, 0, 45, 0
4, 72000, Note_on_c, 0, 49, 0
4, 72000, Note_on_c, 0, 52, 0
4, 72000, Note_on_c, 0, 45, 86
4, 72000, Note_on_c, 0, 49, 86
4, 72000, Note_on_c, 0, 52, 86
4, 72000, Note_on_c, 0, 57, 86
4, 72240, Note_on_c, 0, 57, 0
4, 72240, Note_on_c, 0, 45, 0
4, 72240, Note_on_c, 0, 49, 0
4, 72240, Note_on_c, 0, 52, 0
4, 72480, Note_on_c, 0, 45, 86
4, 72480, Note_on_c, 0, 49, 86
4, 72480, Note_on_c, 0, 53, 86
4, 72480, Note_on_c, 0, 57, 86
4, 72720, Note_on_c, 0, 57, 0
4, 72720, Note_on_c, 0, 45, 0
4, 72720, Note_on_c, 0, 49, 0
4, 72720, Note_on_c, 0, 53, 0
4, 72720, Note_on_c, 0, 45, 86
4, 72720, Note_on_c, 0, 49, 86
4, 72720, Note_on_c, 0, 53, 86
4, 72720, Note_on_c, 0, 57, 86
4, 72960, Note_on_c, 0, 57, 0
4, 72960, Note_on_c, 0, 45, 0
4, 72960, Note_on_c, 0, 49, 0
4, 72960, Note_on_c, 0, 53, 0
4, 73200, Note_on_c, 0, 45, 86
4, 73200, Note_on_c, 0, 49, 86
4, 73200, Note_on_c, 0, 53, 86
4, 73200, Note_on_c, 0, 57, 86
4, 73440, Note_on_c, 0, 57, 0
4, 73440, Note_on_c, 0, 45, 0
4, 73440, Note_on_c, 0, 49, 0
4, 73440, Note_on_c, 0, 53, 0
4, 73440, Note_on_c, 0, 45, 86
4, 73440, Note_on_c, 0, 49, 86
4, 73440, Note_on_c, 0, 53, 86
4, 73440, Note_on_c, 0, 57, 86
4, 73680, Note_on_c, 0, 57, 0
4, 73680, Note_on_c, 0, 45, 0
4, 73680, Note_on_c, 0, 49, 0
4, 73680, Note_on_c, 0, 53, 0
4, 73920, Note_on_c, 0, 45, 86
4, 73920, Note_on_c, 0, 50, 86
4, 73920, Note_on_c, 0, 54, 86
4, 73920, Note_on_c, 0, 57, 86
4, 74160, Note_on_c, 0, 57, 0
4, 74160, Note_on_c, 0, 45, 0
4, 74160, Note_on_c, 0, 50, 0
4, 74160, Note_on_c, 0, 54, 0
4, 74160, Note_on_c, 0, 45, 86
4, 74160, Note_on_c, 0, 50, 86
4, 74160, Note_on_c, 0, 54, 86
4, 74160, Note_on_c, 0, 57, 86
4, 74400, Note_on_c, 0, 57, 0
4, 74400, Note_on_c, 0, 45, 0
4, 74400, Note_on_c, 0, 50, 0
4, 74400, Note_on_c, 0, 54, 0
4, 74640, Note_on_c, 0, 45, 86
4, 74640, Note_on_c, 0, 50, 86
4, 74640, Note_on_c, 0, 54, 86
4, 74640, Note_on_c, 0, 57, 86
4, 74880, Note_on_c, 0, 57, 0
4, 74880, Note_on_c, 0, 45, 0
4, 74880, Note_on_c, 0, 50, 0
4, 74880, Note_on_c, 0, 54, 0
4, 74880, Note_on_c, 0, 45, 86
4, 74880, Note_on_c, 0, 50, 86
4, 74880, Note_on_c, 0, 54, 86
4, 74880, Note_on_c, 0, 57, 86
4, 75120, Note_on_c, 0, 57, 0
4, 75120, Note_on_c, 0, 45, 0
4, 75120, Note_on_c, 0, 50, 0
4, 75120, Note_on_c, 0, 54, 0
4, 75360, Note_on_c, 0, 45, 86
4, 75360, Note_on_c, 0, 50, 86
4, 75360, Note_on_c, 0, 52, 86
4, 75360, Note_on_c, 0, 56, 86
4, 75600, Note_on_c, 0, 56, 0
4, 75600, Note_on_c, 0, 45, 0
4, 75600, Note_on_c, 0, 50, 0
4, 75600, Note_on_c, 0, 52, 0
4, 75600, Note_on_c, 0, 45, 86
4, 75600, Note_on_c, 0, 50, 86
4, 75600, Note_on_c, 0, 52, 86
4, 75600, Note_on_c, 0, 56, 86
4, 75840, Note_on_c, 0, 56, 0
4, 75840, Note_on_c, 0, 45, 0
4, 75840, Note_on_c, 0, 50, 0
4, 75840, Note_on_c, 0, 52, 0
4, 76080, Note_on_c, 0, 45, 86
4, 76080, Note_on_c, 0, 50, 86
4, 76080, Note_on_c, 0, 52, 86
4, 76080, Note_on_c, 0, 56, 86
4, 76320, Note_on_c, 0, 56, 0
4, 76320, Note_on_c, 0, 45, 0
4, 76320, Note_on_c, 0, 50, 0
4, 76320, Note_on_c, 0, 52, 0
4, 76320, Note_on_c, 0, 45, 86
4, 76320, Note_on_c, 0, 50, 86
4, 76320, Note_on_c, 0, 52, 86
4, 76320, Note_on_c, 0, 56, 86
4, 76560, Note_on_c, 0, 56, 0
4, 76560, Note_on_c, 0, 45, 0
4, 76560, Note_on_c, 0, 50, 0
4, 76560, Note_on_c, 0, 52, 0
4, 76800, Note_on_c, 0, 45, 86
4, 76800, Note_on_c, 0, 49, 86
4, 76800, Note_on_c, 0, 52, 86
4, 76800, Note_on_c, 0, 57, 86
4, 77040, Note_on_c, 0, 57, 0
4, 77040, Note_on_c, 0, 45, 0
4, 77040, Note_on_c, 0, 49, 0
4, 77040, Note_on_c, 0, 52, 0
4, 77040, Note_on_c, 0, 45, 86
4, 77040, Note_on_c, 0, 49, 86
4, 77040, Note_on_c, 0, 52, 86
4, 77040, Note_on_c, 0, 57, 86
4, 77280, Note_on_c, 0, 57, 0
4, 77280, Note_on_c, 0, 45, 0
4, 77280, Note_on_c, 0, 49, 0
4, 77280, Note_on_c, 0, 52, 0
4, 77520, Note_on_c, 0, 42, 86
4, 77520, Note_on_c, 0, 46, 86
4, 77520, Note_on_c, 0, 49, 86
4, 77520, Note_on_c, 0, 54, 86
4, 77760, Note_on_c, 0, 54, 0
4, 77760, Note_on_c, 0, 42, 0
4, 77760, Note_on_c, 0, 46, 0
4, 77760, Note_on_c, 0, 49, 0
4, 77760, Note_on_c, 0, 42, 86
4, 77760, Note_on_c, 0, 46, 86
4, 77760, Note_on_c, 0, 49, 86
4, 77760, Note_on_c, 0, 54, 86
4, 78000, Note_on_c, 0, 54, 0
4, 78000, Note_on_c, 0, 42, 0
4, 78000, Note_on_c, 0, 46, 0
4, 78000, Note_on_c, 0, 49, 0
4, 78240, Note_on_c, 0, 44, 86
4, 78240, Note_on_c, 0, 47, 86
4, 78240, Note_on_c, 0, 54, 86
4, 78480, Note_on_c, 0, 54, 0
4, 78480, Note_on_c, 0, 47, 0
4, 78480, Note_on_c, 0, 44, 0
4, 78480, Note_on_c, 0, 44, 86
4, 78480, Note_on_c, 0, 47, 86
4, 78480, Note_on_c, 0, 54, 86
4, 78720, Note_on_c, 0, 54, 0
4, 78720, Note_on_c, 0, 47, 0
4, 78720, Note_on_c, 0, 44, 0
4, 78960, Note_on_c, 0, 46, 86
4, 78960, Note_on_c, 0, 49, 86
4, 78960, Note_on_c, 0, 52, 86
4, 78960, Note_on_c, 0, 54, 86
4, 79200, Note_on_c, 0, 54, 0
4, 79200, Note_on_c, 0, 46, 0
4, 79200, Note_on_c, 0, 49, 0
4, 79200, Note_on_c, 0, 52, 0
4, 79200, Note_on_c, 0, 46, 86
4, 79200, Note_on_c, 0, 49, 86
4, 79200, Note_on_c, 0, 52, 86
4, 79200, Note_on_c, 0, 54, 86
4, 79440, Note_on_c, 0, 54, 0
4, 79440, Note_on_c, 0, 46, 0
4, 79440, Note_on_c, 0, 49, 0
4, 79440, Note_on_c, 0, 52, 0
4, 79680, Note_on_c, 0, 47, 86
4, 79680, Note_on_c, 0, 50, 86
4, 79680, Note_on_c, 0, 54, 86
4, 79920, Note_on_c, 0, 54, 0
4, 79920, Note_on_c, 0, 50, 0
4, 79920, Note_on_c, 0, 47, 0
4, 79920, Note_on_c, 0, 47, 86
4, 79920, Note_on_c, 0, 50, 86
4, 79920, Note_on_c, 0, 54, 86
4, 80160, Note_on_c, 0, 54, 0
4, 80160, Note_on_c, 0, 50, 0
4, 80160, Note_on_c, 0, 47, 0
4, 80400, Note_on_c, 0, 50, 86
4, 80400, Note_on_c, 0, 54, 86
4, 80400, Note_on_c, 0, 59, 86
4, 80640, Note_on_c, 0, 59, 0
4, 80640, Note_on_c, 0, 54, 0
4, 80640, Note_on_c, 0, 50, 0
4, 80640, Note_on_c, 0, 50, 86
4, 80640, Note_on_c, 0, 54, 86
4, 80640, Note_on_c, 0, 59, 86
4, 80880, Note_on_c, 0, 59, 0
4, 80880, Note_on_c, 0, 54, 0
4, 80880, Note_on_c, 0, 50, 0
4, 81120, Note_on_c, 0, 52, 86
4, 81120, Note_on_c, 0, 57, 86
4, 81120, Note_on_c, 0, 61, 86
4, 81360, Note_on_c, 0, 61, 0
4, 81360, Note_on_c, 0, 57, 0
4, 81360, Note_on_c, 0, 52, 0
4, 81360, Note_on_c, 0, 52, 86
4, 81360, Note_on_c, 0, 57, 86
4, 81360, Note_on_c, 0, 61, 86
4, 81600, Note_on_c, 0, 61, 0
4, 81600, Note_on_c, 0, 57, 0
4, 81600, Note_on_c, 0, 52, 0
4, 81840, Note_on_c, 0, 52, 86
4, 81840, Note_on_c, 0, 56, 86
4, 81840, Note_on_c, 0, 59, 86
4, 81840, Note_on_c, 0, 62, 86
4, 82080, Note_on_c, 0, 62, 0
4, 82080, Note_on_c, 0, 52, 0
4, 82080, Note_on_c, 0, 56, 0
4, 82080, Note_on_c, 0, 59, 0
4, 82080, Note_on_c, 0, 52, 86
4, 82080, Note_on_c, 0, 56, 86
4, 82080, Note_on_c, 0, 59, 86
4, 82080, Note_on_c, 0, 62, 86
4, 82320, Note_on_c, 0, 62, 0
4, 82320, Note_on_c, 0, 52, 0
4, 82320, Note_on_c, 0, 56, 0
4, 82320, Note_on_c, 0, 59, 0
4, 82560, Note_on_c, 0, 45, 86
4, 82560, Note_on_c, 0, 49, 86
4, 82560, Note_on_c, 0, 52, 86
4, 82560, Note_on_c, 0, 57, 86
4, 82800, Note_on_c, 0, 57, 0
4, 82800, Note_on_c, 0, 45, 0
4, 82800, Note_on_c, 0, 49, 0
4, 82800, Note_on_c, 0, 52, 0
4, 82800, Note_on_c, 0, 45, 86
4, 82800, Note_on_c, 0, 49, 86
4, 82800, Note_on_c, 0, 52, 86
4, 82800, Note_on_c, 0, 57, 86
4, 83040, Note_on_c, 0, 57, 0
4, 83040, Note_on_c, 0, 45, 0
4, 83040, Note_on_c, 0, 49, 0
4, 83040, Note_on_c, 0, 52, 0
4, 83280, Note_on_c, 0, 42, 86
4, 83280, Note_on_c, 0, 46, 86
4, 83280, Note_on_c, 0, 49, 86
4, 83280, Note_on_c, 0, 54, 86
4, 83520, Note_on_c, 0, 54, 0
4, 83520, Note_on_c, 0, 42, 0
4, 83520, Note_on_c, 0, 46, 0
4, 83520, Note_on_c, 0, 49, 0
4, 83520, Note_on_c, 0, 42, 86
4, 83520, Note_on_c, 0, 46, 86
4, 83520, Note_on_c, 0, 49, 86
4, 83520, Note_on_c, 0, 54, 86
4, 83760, Note_on_c, 0, 54, 0
4, 83760, Note_on_c, 0, 42, 0
4, 83760, Note_on_c, 0, 46, 0
4, 83760, Note_on_c, 0, 49, 0
4, 84000, Note_on_c, 0, 44, 86
4, 84000, Note_on_c, 0, 47, 86
4, 84000, Note_on_c, 0, 54, 86
4, 84240, Note_on_c, 0, 54, 0
4, 84240, Note_on_c, 0, 47, 0
4, 84240, Note_on_c, 0, 44, 0
4, 84240, Note_on_c, 0, 44, 86
4, 84240, Note_on_c, 0, 47, 86
4, 84240, Note_on_c, 0, 54, 86
4, 84480, Note_on_c, 0, 54, 0
4, 84480, Note_on_c, 0, 47, 0
4, 84480, Note_on_c, 0, 44, 0
4, 84720, Note_on_c, 0, 46, 86
4, 84720, Note_on_c, 0, 49, 86
4, 84720, Note_on_c, 0, 52, 86
4, 84720, Note_on_c, 0, 54, 86
4, 84960, Note_on_c, 0, 54, 0
4, 84960, Note_on_c, 0, 46, 0
4, 84960, Note_on_c, 0, 49, 0
4, 84960, Note_on_c, 0, 52, 0
4, 84960, Note_on_c, 0, 46, 86
4, 84960, Note_on_c, 0, 49, 86
4, 84960, Note_on_c, 0, 52, 86
4, 84960, Note_on_c, 0, 54, 86
4, 85200, Note_on_c, 0, 54, 0
4, 85200, Note_on_c, 0, 46, 0
4, 85200, Note_on_c, 0, 49, 0
4, 85200, Note_on_c, 0, 52, 0
4, 85440, Note_on_c, 0, 47, 86
4, 85440, Note_on_c, 0, 50, 86
4, 85440, Note_on_c, 0, 54, 86
4, 85680, Note_on_c, 0, 54, 0
4, 85680, Note_on_c, 0, 50, 0
4, 85680, Note_on_c, 0, 47, 0
4, 85680, Note_on_c, 0, 47, 86
4, 85680, Note_on_c, 0, 50, 86
4, 85680, Note_on_c, 0, 54, 86
4, 85920, Note_on_c, 0, 54, 0
4, 85920, Note_on_c, 0, 50, 0
4, 85920, Note_on_c, 0, 47, 0
4, 86160, Note_on_c, 0, 50, 86
4, 86160, Note_on_c, 0, 54, 86
4, 86160, Note_on_c, 0, 59, 86
4, 86400, Note_on_c, 0, 59, 0
4, 86400, Note_on_c, 0, 54, 0
4, 86400, Note_on_c, 0, 50, 0
4, 86400, Note_on_c, 0, 50, 86
4, 86400, Note_on_c, 0, 54, 86
4, 86400, Note_on_c, 0, 59, 86
4, 86640, Note_on_c, 0, 59, 0
4, 86640, Note_on_c, 0, 54, 0
4, 86640, Note_on_c, 0, 50, 0
4, 86880, Note_on_c, 0, 52, 86
4, 86880, Note_on_c, 0, 57, 86
4, 86880, Note_on_c, 0, 61, 86
4, 87120, Note_on_c, 0, 61, 0
4, 87120, Note_on_c, 0, 57, 0
4, 87120, Note_on_c, 0, 52, 0
4, 87120, Note_on_c, 0, 52, 86
4, 87120, Note_on_c, 0, 57, 86
4, 87120, Note_on_c, 0, 61, 86
4, 87360, Note_on_c, 0, 61, 0
4, 87360, Note_on_c, 0, 57, 0
4, 87360, Note_on_c, 0, 52, 0
4, 87600, Note_on_c, 0, 52, 86
4, 87600, Note_on_c, 0, 56, 86
4, 87600, Note_on_c, 0, 59, 86
4, 87600, Note_on_c, 0, 62, 86
4, 87840, Note_on_c, 0, 62, 0
4, 87840, Note_on_c, 0, 52, 0
4, 87840, Note_on_c, 0, 56, 0
4, 87840, Note_on_c, 0, 59, 0
4, 87840, Note_on_c, 0, 52, 86
4, 87840, Note_on_c, 0, 56, 86
4, 87840, Note_on_c, 0, 59, 86
4, 87840, Note_on_c, 0, 62, 86
4, 88080, Note_on_c, 0, 62, 0
4, 88080, Note_on_c, 0, 52, 0
4, 88080, Note_on_c, 0, 56, 0
4, 88080, Note_on_c, 0, 59, 0
4, 88320, Note_on_c, 0, 45, 86
4, 88320, Note_on_c, 0, 49, 86
4, 88320, Note_on_c, 0, 52, 86
4, 88320, Note_on_c, 0, 57, 86
4, 88560, Note_on_c, 0, 57, 0
4, 88560, Note_on_c, 0, 45, 0
4, 88560, Note_on_c, 0, 49, 0
4, 88560, Note_on_c, 0, 52, 0
4, 88560, Note_on_c, 0, 45, 86
4, 88560, Note_on_c, 0, 49, 86
4, 88560, Note_on_c, 0, 52, 86
4, 88560, Note_on_c, 0, 57, 86
4, 88800, Note_on_c, 0, 57, 0
4, 88800, Note_on_c, 0, 45, 0
4, 88800, Note_on_c, 0, 49, 0
4, 88800, Note_on_c, 0, 52, 0
4, 89040, Note_on_c, 0, 52, 86
4, 89040, Note_on_c, 0, 56, 86
4, 89040, Note_on_c, 0, 59, 86
4, 89040, Note_on_c, 0, 62, 86
4, 89280, Note_on_c, 0, 62, 0
4, 89280, Note_on_c, 0, 52, 0
4, 89280, Note_on_c, 0, 56, 0
4, 89280, Note_on_c, 0, 59, 0
4, 89280, Note_on_c, 0, 52, 86
4, 89280, Note_on_c, 0, 56, 86
4, 89280, Note_on_c, 0, 59, 86
4, 89280, Note_on_c, 0, 62, 86
4, 89520, Note_on_c, 0, 62, 0
4, 89520, Note_on_c, 0, 52, 0
4, 89520, Note_on_c, 0, 56, 0
4, 89520, Note_on_c, 0, 59, 0
4, 89760, Note_on_c, 0, 45, 86
4, 89760, Note_on_c, 0, 49, 86
4, 89760, Note_on_c, 0, 52, 86
4, 89760, Note_on_c, 0, 57, 86
4, 90000, Note_on_c, 0, 57, 0
4, 90000, Note_on_c, 0, 45, 0
4, 90000, Note_on_c, 0, 49, 0
4, 90000, Note_on_c, 0, 52, 0
4, 90000, Note_on_c, 0, 45, 86
4, 90000, Note_on_c, 0, 49, 86
4, 90000, Note_on_c, 0, 52, 86
4, 90000, Note_on_c, 0, 57, 86
4, 90240, Note_on_c, 0, 57, 0
4, 90240, Note_on_c, 0, 45, 0
4, 90240, Note_on_c, 0, 49, 0
4, 90240, Note_on_c, 0, 52, 0
4, 90480, Note_on_c, 0, 52, 86
4, 90480, Note_on_c, 0, 56, 86
4, 90480, Note_on_c, 0, 59, 86
4, 90480, Note_on_c, 0, 62, 86
4, 90720, Note_on_c, 0, 62, 0
4, 90720, Note_on_c, 0, 52, 0
4, 90720, Note_on_c, 0, 56, 0
4, 90720, Note_on_c, 0, 59, 0
4, 90720, Note_on_c, 0, 52, 86
4, 90720, Note_on_c, 0, 56, 86
4, 90720, Note_on_c, 0, 59, 86
4, 90720, Note_on_c, 0, 62, 86
4, 90960, Note_on_c, 0, 62, 0
4, 90960, Note_on_c, 0, 52, 0
4, 90960, Note_on_c, 0, 56, 0
4, 90960, Note_on_c, 0, 59, 0
4, 91200, Note_on_c, 0, 45, 86
4, 91200, Note_on_c, 0, 49, 86
4, 91200, Note_on_c, 0, 52, 86
4, 91200, Note_on_c, 0, 57, 86
4, 91440, Note_on_c, 0, 57, 0
4, 91440, Note_on_c, 0, 45, 0
4, 91440, Note_on_c, 0, 49, 0
4, 91440, Note_on_c, 0, 52, 0
4, 91440, Note_on_c, 0, 45, 86
4, 91440, Note_on_c, 0, 49, 86
4, 91440, Note_on_c, 0, 52, 86
4, 91440, Note_on_c, 0, 57, 86
4, 91680, Note_on_c, 0, 57, 0
4, 91680, Note_on_c, 0, 45, 0
4, 91680, Note_on_c, 0, 49, 0
4, 91680, Note_on_c, 0, 52, 0
4, 91920, Note_on_c, 0, 52, 86
4, 91920, Note_on_c, 0, 56, 86
4, 91920, Note_on_c, 0, 59, 86
4, 91920, Note_on_c, 0, 62, 86
4, 92160, Note_on_c, 0, 62, 0
4, 92160, Note_on_c, 0, 52, 0
4, 92160, Note_on_c, 0, 56, 0
4, 92160, Note_on_c, 0, 59, 0
4, 92160, Note_on_c, 0, 52, 86
4, 92160, Note_on_c, 0, 56, 86
4, 92160, Note_on_c, 0, 59, 86
4, 92160, Note_on_c, 0, 62, 86
4, 92400, Note_on_c, 0, 62, 0
4, 92400, Note_on_c, 0, 52, 0
4, 92400, Note_on_c, 0, 56, 0
4, 92400, Note_on_c, 0, 59, 0
4, 92640, Note_on_c, 0, 45, 86
4, 92640, Note_on_c, 0, 49, 86
4, 92640, Note_on_c, 0, 52, 86
4, 92640, Note_on_c, 0, 57, 86
4, 92880, Note_on_c, 0, 57, 0
4, 92880, Note_on_c, 0, 45, 0
4, 92880, Note_on_c, 0, 49, 0
4, 92880, Note_on_c, 0, 52, 0
4, 92880, Note_on_c, 0, 45, 86
4, 92880, Note_on_c, 0, 49, 86
4, 92880, Note_on_c, 0, 52, 86
4, 92880, Note_on_c, 0, 57, 86
4, 93120, Note_on_c, 0, 57, 0
4, 93120, Note_on_c, 0, 45, 0
4, 93120, Note_on_c, 0, 49, 0
4, 93120, Note_on_c, 0, 52, 0
4, 93360, Note_on_c, 0, 52, 86
4, 93360, Note_on_c, 0, 56, 86
4, 93360, Note_on_c, 0, 59, 86
4, 93360, Note_on_c, 0, 62, 86
4, 93600, Note_on_c, 0, 62, 0
4, 93600, Note_on_c, 0, 52, 0
4, 93600, Note_on_c, 0, 56, 0
4, 93600, Note_on_c, 0, 59, 0
4, 93600, Note_on_c, 0, 52, 86
4, 93600, Note_on_c, 0, 56, 86
4, 93600, Note_on_c, 0, 59, 86
4, 93600, Note_on_c, 0, 62, 86
4, 93840, Note_on_c, 0, 62, 0
4, 93840, Note_on_c, 0, 52, 0
4, 93840, Note_on_c, 0, 56, 0
4, 93840, Note_on_c, 0, 59, 0
4, 94080, Note_on_c, 0, 45, 86
4, 94080, Note_on_c, 0, 49, 86
4, 94080, Note_on_c, 0, 52, 86
4, 94080, Note_on_c, 0, 57, 86
4, 94560, Note_on_c, 0, 57, 0
4, 94560, Note_on_c, 0, 45, 0
4, 94560, Note_on_c, 0, 49, 0
4, 94560, Note_on_c, 0, 52, 0
4, 94560, Note_on_c, 0, 57, 86
4, 94560, Note_on_c, 0, 61, 86
4, 94560, Note_on_c, 0, 64, 86
4, 94800, Note_on_c, 0, 64, 0
4, 94800, Note_on_c, 0, 61, 0
4, 94800, Note_on_c, 0, 57, 0
4, 94800, Note_on_c, 0, 57, 86
4, 94800, Note_on_c, 0, 61, 86
4, 94800, Note_on_c, 0, 64, 86
4, 95040, Note_on_c, 0, 64, 0
4, 95040, Note_on_c, 0, 61, 0
4, 95040, Note_on_c, 0, 57, 0
4, 95040, Note_on_c, 0, 57, 86
4, 95040, Note_on_c, 0, 61, 86
4, 95040, Note_on_c, 0, 64, 86
4, 95280, Note_on_c, 0, 64, 0
4, 95280, Note_on_c, 0, 61, 0
4, 95280, Note_on_c, 0, 57, 0
4, 95280, Note_on_c, 0, 57, 86
4, 95280, Note_on_c, 0, 61, 86
4, 95280, Note_on_c, 0, 64, 86
4, 95520, Note_on_c, 0, 64, 0
4, 95520, Note_on_c, 0, 61, 0
4, 95520, Note_on_c, 0, 57, 0
4, 95520, Note_on_c, 0, 57, 86
4, 95520, Note_on_c, 0, 61, 86
4, 95520, Note_on_c, 0, 64, 86
4, 95760, Note_on_c, 0, 64, 0
4, 95760, Note_on_c, 0, 61, 0
4, 95760, Note_on_c, 0, 57, 0
4, 95760, Note_on_c, 0, 57, 86
4, 95760, Note_on_c, 0, 61, 86
4, 95760, Note_on_c, 0, 64, 86
4, 96000, Note_on_c, 0, 64, 0
4, 96000, Note_on_c, 0, 61, 0
4, 96000, Note_on_c, 0, 57, 0
4, 96000, Note_on_c, 0, 57, 86
4, 96000, Note_on_c, 0, 61, 86
4, 96000, Note_on_c, 0, 64, 86
4, 96240, Note_on_c, 0, 64, 0
4, 96240, Note_on_c, 0, 61, 0
4, 96240, Note_on_c, 0, 57, 0
4, 96240, Note_on_c, 0, 57, 112
4, 96240, Note_on_c, 0, 61, 112
4, 96240, Note_on_c, 0, 64, 112
4, 96480, Note_on_c, 0, 64, 0
4, 96480, Note_on_c, 0, 61, 0
4, 96480, Note_on_c, 0, 57, 0
4, 96480, End_track
5, 0, Start_track
5, 0, Title_t, "Grand Piano"
5, 0, Program_c, 0, 0
5, 0, Control_c, 0, 7, 115
5, 0, Control_c, 0, 10, 47
5, 5760, Note_on_c, 0, 55, 64
5, 6240, Note_on_c, 0, 55, 0
5, 26880, Note_on_c, 0, 31, 101
5, 26880, Note_on_c, 0, 43, 101
5, 28800, Note_on_c, 0, 43, 0
5, 28800, Note_on_c, 0, 31, 0
5, 28800, Note_on_c, 0, 31, 101
5, 28800, Note_on_c, 0, 43, 101
5, 30720, Note_on_c, 0, 43, 0
5, 30720, Note_on_c, 0, 31, 0
5, 30720, Note_on_c, 0, 31, 101
5, 30720, Note_on_c, 0, 43, 101
5, 32640, Note_on_c, 0, 43, 0
5, 32640, Note_on_c, 0, 31, 0
5, 32640, End_track
0, 0, End_of_file
