0, 0, Header, 1, 5, 480
1, 0, Start_track
1, 0, Title_t, "tchaikovsky sleeping beauty act1 8d variation d'aurore"
1, 0, Copyright_t, "Adaptation for Disklavier pianos, by: Robert C. Kuhmann (c) 2012."
1, 0, Text_t, "Seq. (c) by: Segundo G. Yogore,  2006\012"
1, 0, Time_signature, 3, 3, 12, 8
1, 0, Key_signature, 1, "major"
1, 0, Tempo, 666667
1, 15120, Time_signature, 7, 3, 12, 8
1, 16800, Time_signature, 3, 3, 12, 8
1, 39120, Tempo, 750000
1, 42000, Time_signature, 7, 3, 12, 8
1, 43680, Time_signature, 3, 3, 12, 8
1, 45840, Time_signature, 7, 3, 12, 8
1, 47520, Time_signature, 3, 3, 12, 8
1, 49680, Time_signature, 7, 3, 12, 8
1, 51360, Time_signature, 3, 3, 12, 8
1, 53520, Tempo, 666667
1, 76560, Time_signature, 7, 3, 12, 8
1, 78240, Time_signature, 2, 2, 24, 8
1, 78240, Tempo, 352941
1, 82080, Tempo, 352941
1, 85920, Tempo, 352941
1, 107040, Time_signature, 6, 2, 24, 8
1, 107040, End_track
2, 0, Start_track
2, 0, Title_t, "Grand Piano"
2, 0, Program_c, 0, 0
2, 0, Control_c, 0, 7, 115
2, 0, Control_c, 0, 10, 86
2, 0, Note_on_c, 0, 67, 78
2, 240, Note_on_c, 0, 67, 0
2, 240, Note_on_c, 0, 75, 78
2, 240, Note_on_c, 0, 79, 78
2, 287, Note_on_c, 0, 79, 0
2, 287, Note_on_c, 0, 75, 0
2, 480, Note_on_c, 0, 69, 78
2, 720, Note_on_c, 0, 69, 0
2, 720, Note_on_c, 0, 75, 78
2, 720, Note_on_c, 0, 79, 78
2, 767, Note_on_c, 0, 79, 0
2, 767, Note_on_c, 0, 75, 0
2, 960, Note_on_c, 0, 70, 78
2, 1200, Note_on_c, 0, 70, 0
2, 1200, Note_on_c, 0, 75, 78
2, 1200, Note_on_c, 0, 79, 78
2, 1247, Note_on_c, 0, 79, 0
2, 1247, Note_on_c, 0, 75, 0
2, 1440, Note_on_c, 0, 71, 78
2, 1487, Note_on_c, 0, 71, 0
2, 1680, Note_on_c, 0, 69, 78
2, 1680, Note_on_c, 0, 72, 78
2, 1680, Note_on_c, 0, 79, 78
2, 1727, Note_on_c, 0, 79, 0
2, 1727, Note_on_c, 0, 72, 0
2, 1727, Note_on_c, 0, 69, 0
2, 1920, Note_on_c, 0, 69, 78
2, 1920, Note_on_c, 0, 73, 78
2, 1920, Note_on_c, 0, 79, 78
2, 1967, Note_on_c, 0, 79, 0
2, 1967, Note_on_c, 0, 73, 0
2, 1967, Note_on_c, 0, 69, 0
2, 2160, Note_on_c, 0, 69, 78
2, 2160, Note_on_c, 0, 74, 78
2, 2160, Note_on_c, 0, 78, 78
2, 2400, Note_on_c, 0, 78, 0
2, 2400, Note_on_c, 0, 74, 0
2, 2400, Note_on_c, 0, 69, 0
2, 2400, Control_c, 0, 64, 127
2, 2400, Note_on_c, 0, 62, 91
2, 2460, Note_on_c, 0, 62, 0
2, 2460, Note_on_c, 0, 66, 91
2, 2520, Note_on_c, 0, 66, 0
2, 2520, Note_on_c, 0, 69, 91
2, 2580, Note_on_c, 0, 69, 0
2, 2580, Note_on_c, 0, 74, 91
2, 2640, Note_on_c, 0, 74, 0
2, 2640, Note_on_c, 0, 78, 91
2, 2700, Note_on_c, 0, 78, 0
2, 2700, Note_on_c, 0, 81, 91
2, 2760, Note_on_c, 0, 81, 0
2, 2760, Note_on_c, 0, 86, 91
2, 2820, Note_on_c, 0, 86, 0
2, 2820, Control_c, 0, 64, 0
2, 2820, Note_on_c, 0, 90, 91
2, 2880, Note_on_c, 0, 90, 0
2, 2880, Note_on_c, 0, 93, 91
2, 3000, Note_on_c, 0, 93, 0
2, 3000, Note_on_c, 0, 85, 91
2, 3120, Note_on_c, 0, 85, 0
2, 3120, Note_on_c, 0, 86, 91
2, 3240, Note_on_c, 0, 86, 0
2, 3240, Note_on_c, 0, 87, 91
2, 3360, Note_on_c, 0, 87, 0
2, 3360, Note_on_c, 0, 88, 91
2, 3480, Note_on_c, 0, 88, 0
2, 3480, Note_on_c, 0, 80, 91
2, 3600, Note_on_c, 0, 80, 0
2, 3600, Note_on_c, 0, 81, 91
2, 3720, Note_on_c, 0, 81, 0
2, 3720, Note_on_c, 0, 83, 91
2, 3840, Note_on_c, 0, 83, 0
2, 3840, Note_on_c, 0, 84, 91
2, 3960, Note_on_c, 0, 84, 0
2, 3960, Note_on_c, 0, 78, 91
2, 4080, Note_on_c, 0, 78, 0
2, 4080, Note_on_c, 0, 79, 91
2, 4200, Note_on_c, 0, 79, 0
2, 4200, Note_on_c, 0, 80, 91
2, 4320, Note_on_c, 0, 80, 0
2, 4320, Note_on_c, 0, 81, 91
2, 4440, Note_on_c, 0, 81, 0
2, 4440, Note_on_c, 0, 73, 91
2, 4560, Note_on_c, 0, 73, 0
2, 4560, Note_on_c, 0, 74, 91
2, 4680, Note_on_c, 0, 74, 0
2, 4680, Note_on_c, 0, 75, 91
2, 4800, Note_on_c, 0, 75, 0
2, 4800, Note_on_c, 0, 76, 91
2, 4920, Note_on_c, 0, 76, 0
2, 4920, Note_on_c, 0, 68, 91
2, 5040, Note_on_c, 0, 68, 0
2, 5040, Note_on_c, 0, 69, 91
2, 5160, Note_on_c, 0, 69, 0
2, 5160, Note_on_c, 0, 71, 91
2, 5280, Note_on_c, 0, 71, 0
2, 5280, Note_on_c, 0, 72, 91
2, 5340, Note_on_c, 0, 72, 0
2, 5340, Note_on_c, 0, 66, 91
2, 5400, Note_on_c, 0, 66, 0
2, 5400, Note_on_c, 0, 67, 91
2, 5460, Note_on_c, 0, 67, 0
2, 5460, Note_on_c, 0, 68, 91
2, 5520, Note_on_c, 0, 68, 0
2, 5520, Note_on_c, 0, 69, 91
2, 5580, Note_on_c, 0, 69, 0
2, 5580, Note_on_c, 0, 61, 91
2, 5640, Note_on_c, 0, 61, 0
2, 5640, Note_on_c, 0, 62, 91
2, 5700, Note_on_c, 0, 62, 0
2, 5700, Note_on_c, 0, 63, 91
2, 5760, Note_on_c, 0, 63, 0
2, 5760, Note_on_c, 0, 64, 91
2, 5820, Note_on_c, 0, 64, 0
2, 5820, Note_on_c, 0, 56, 91
2, 5880, Note_on_c, 0, 56, 0
2, 5880, Note_on_c, 0, 57, 91
2, 5940, Note_on_c, 0, 57, 0
2, 5940, Note_on_c, 0, 59, 91
2, 6000, Note_on_c, 0, 59, 0
2, 6000, Note_on_c, 0, 60, 78
2, 6060, Note_on_c, 0, 60, 0
2, 6060, Note_on_c, 0, 56, 78
2, 6120, Note_on_c, 0, 56, 0
2, 6120, Note_on_c, 0, 57, 78
2, 6180, Note_on_c, 0, 57, 0
2, 6180, Note_on_c, 0, 59, 78
2, 6240, Note_on_c, 0, 59, 0
2, 6240, Note_on_c, 0, 60, 78
2, 6300, Note_on_c, 0, 60, 0
2, 6300, Note_on_c, 0, 56, 78
2, 6360, Note_on_c, 0, 56, 0
2, 6360, Note_on_c, 0, 57, 78
2, 6420, Note_on_c, 0, 57, 0
2, 6420, Note_on_c, 0, 59, 78
2, 6480, Note_on_c, 0, 59, 0
2, 6480, Note_on_c, 0, 60, 65
2, 6540, Note_on_c, 0, 60, 0
2, 6540, Note_on_c, 0, 56, 65
2, 6600, Note_on_c, 0, 56, 0
2, 6600, Note_on_c, 0, 57, 65
2, 6660, Note_on_c, 0, 57, 0
2, 6660, Note_on_c, 0, 59, 65
2, 6720, Note_on_c, 0, 59, 0
2, 6720, Note_on_c, 0, 60, 65
2, 6780, Note_on_c, 0, 60, 0
2, 6780, Note_on_c, 0, 56, 65
2, 6840, Note_on_c, 0, 56, 0
2, 6840, Note_on_c, 0, 57, 65
2, 6900, Note_on_c, 0, 57, 0
2, 6900, Note_on_c, 0, 59, 65
2, 6960, Note_on_c, 0, 59, 0
2, 6960, Note_on_c, 0, 60, 65
2, 7020, Note_on_c, 0, 60, 0
2, 7020, Note_on_c, 0, 56, 65
2, 7080, Note_on_c, 0, 56, 0
2, 7080, Note_on_c, 0, 57, 65
2, 7140, Note_on_c, 0, 57, 0
2, 7140, Note_on_c, 0, 59, 65
2, 7200, Note_on_c, 0, 59, 0
2, 7200, Note_on_c, 0, 60, 65
2, 7280, Note_on_c, 0, 60, 0
2, 7280, Note_on_c, 0, 56, 65
2, 7359, Note_on_c, 0, 56, 0
2, 7359, Note_on_c, 0, 57, 65
2, 7440, Note_on_c, 0, 57, 0
2, 7440, Note_on_c, 0, 59, 65
2, 7520, Note_on_c, 0, 59, 0
2, 7520, Note_on_c, 0, 60, 65
2, 7599, Note_on_c, 0, 60, 0
2, 7599, Note_on_c, 0, 56, 65
2, 7680, Note_on_c, 0, 56, 0
2, 7680, Note_on_c, 0, 57, 65
2, 7760, Note_on_c, 0, 57, 0
2, 7760, Note_on_c, 0, 59, 65
2, 7839, Note_on_c, 0, 59, 0
2, 7839, Note_on_c, 0, 60, 65
2, 7920, Note_on_c, 0, 60, 0
2, 7920, Note_on_c, 0, 56, 65
2, 8000, Note_on_c, 0, 56, 0
2, 8000, Note_on_c, 0, 57, 65
2, 8079, Note_on_c, 0, 57, 0
2, 8079, Note_on_c, 0, 59, 65
2, 8160, Note_on_c, 0, 59, 0
2, 8160, Note_on_c, 0, 60, 65
2, 8240, Note_on_c, 0, 60, 0
2, 8240, Note_on_c, 0, 56, 65
2, 8319, Note_on_c, 0, 56, 0
2, 8319, Note_on_c, 0, 57, 65
2, 8400, Note_on_c, 0, 57, 0
2, 8400, Note_on_c, 0, 59, 65
2, 8480, Note_on_c, 0, 59, 0
2, 8480, Note_on_c, 0, 60, 65
2, 8559, Note_on_c, 0, 60, 0
2, 8559, Note_on_c, 0, 56, 65
2, 8640, Note_on_c, 0, 56, 0
2, 8640, Note_on_c, 0, 57, 65
2, 8760, Note_on_c, 0, 57, 0
2, 8760, Note_on_c, 0, 59, 65
2, 8880, Note_on_c, 0, 59, 0
2, 8880, Note_on_c, 0, 60, 65
2, 9000, Note_on_c, 0, 60, 0
2, 9000, Note_on_c, 0, 56, 65
2, 9120, Note_on_c, 0, 56, 0
2, 9120, Note_on_c, 0, 57, 65
2, 9240, Note_on_c, 0, 57, 0
2, 9240, Note_on_c, 0, 59, 65
2, 9360, Note_on_c, 0, 59, 0
2, 9360, Note_on_c, 0, 60, 65
2, 9480, Note_on_c, 0, 60, 0
2, 9480, Note_on_c, 0, 56, 65
2, 9600, Note_on_c, 0, 56, 0
2, 9600, Note_on_c, 0, 57, 65
2, 9720, Note_on_c, 0, 57, 0
2, 9720, Note_on_c, 0, 59, 65
2, 9840, Note_on_c, 0, 59, 0
2, 9840, Note_on_c, 0, 60, 65
2, 9960, Note_on_c, 0, 60, 0
2, 9960, Note_on_c, 0, 56, 65
2, 10080, Note_on_c, 0, 56, 0
2, 10080, Note_on_c, 0, 57, 52
2, 10500, Note_on_c, 0, 57, 0
2, 10500, Note_on_c, 0, 59, 52
2, 10560, Note_on_c, 0, 59, 0
2, 10560, Note_on_c, 0, 60, 52
2, 10980, Note_on_c, 0, 60, 0
2, 10980, Note_on_c, 0, 56, 52
2, 11040, Note_on_c, 0, 56, 0
2, 11040, Note_on_c, 0, 57, 52
2, 11460, Note_on_c, 0, 57, 0
2, 11460, Note_on_c, 0, 59, 52
2, 11520, Note_on_c, 0, 59, 0
2, 11520, Note_on_c, 0, 60, 65
2, 11940, Note_on_c, 0, 60, 0
2, 11940, Note_on_c, 0, 56, 65
2, 12000, Note_on_c, 0, 56, 0
2, 12000, Note_on_c, 0, 57, 65
2, 12420, Note_on_c, 0, 57, 0
2, 12420, Note_on_c, 0, 59, 65
2, 12480, Note_on_c, 0, 59, 0
2, 12480, Note_on_c, 0, 60, 65
2, 12900, Note_on_c, 0, 60, 0
2, 12900, Note_on_c, 0, 56, 65
2, 12960, Note_on_c, 0, 56, 0
2, 12960, Note_on_c, 0, 57, 78
2, 13380, Note_on_c, 0, 57, 0
2, 13380, Note_on_c, 0, 56, 78
2, 13440, Note_on_c, 0, 56, 0
2, 13440, Note_on_c, 0, 57, 78
2, 13860, Note_on_c, 0, 57, 0
2, 13860, Note_on_c, 0, 56, 65
2, 13920, Note_on_c, 0, 56, 0
2, 13920, Note_on_c, 0, 57, 65
2, 14340, Note_on_c, 0, 57, 0
2, 14340, Note_on_c, 0, 56, 65
2, 14400, Note_on_c, 0, 56, 0
2, 14400, Note_on_c, 0, 57, 52
2, 14820, Note_on_c, 0, 57, 0
2, 14820, Note_on_c, 0, 56, 52
2, 14880, Note_on_c, 0, 56, 0
2, 14880, Note_on_c, 0, 57, 52
2, 15300, Note_on_c, 0, 57, 0
2, 15300, Note_on_c, 0, 56, 52
2, 15360, Note_on_c, 0, 56, 0
2, 15360, Note_on_c, 0, 57, 52
2, 15840, Note_on_c, 0, 57, 0
2, 17040, Note_on_c, 0, 62, 39
2, 17040, Note_on_c, 0, 66, 39
2, 17040, Note_on_c, 0, 72, 39
2, 17087, Note_on_c, 0, 72, 0
2, 17087, Note_on_c, 0, 66, 0
2, 17087, Note_on_c, 0, 62, 0
2, 17280, Note_on_c, 0, 60, 39
2, 17280, Note_on_c, 0, 62, 39
2, 17280, Note_on_c, 0, 66, 39
2, 17327, Note_on_c, 0, 66, 0
2, 17327, Note_on_c, 0, 62, 0
2, 17327, Note_on_c, 0, 60, 0
2, 17760, Note_on_c, 0, 67, 39
2, 17760, Note_on_c, 0, 72, 39
2, 17807, Note_on_c, 0, 72, 0
2, 17807, Note_on_c, 0, 67, 0
2, 18000, Note_on_c, 0, 62, 39
2, 18000, Note_on_c, 0, 69, 39
2, 18047, Note_on_c, 0, 69, 0
2, 18047, Note_on_c, 0, 62, 0
2, 18480, Note_on_c, 0, 67, 39
2, 18480, Note_on_c, 0, 74, 39
2, 18527, Note_on_c, 0, 74, 0
2, 18527, Note_on_c, 0, 67, 0
2, 18720, Note_on_c, 0, 62, 39
2, 18720, Note_on_c, 0, 67, 39
2, 18767, Note_on_c, 0, 67, 0
2, 18767, Note_on_c, 0, 62, 0
2, 19200, Note_on_c, 0, 67, 39
2, 19200, Note_on_c, 0, 74, 39
2, 19200, Note_on_c, 0, 79, 39
2, 19247, Note_on_c, 0, 79, 0
2, 19247, Note_on_c, 0, 74, 0
2, 19247, Note_on_c, 0, 67, 0
2, 19440, Note_on_c, 0, 67, 39
2, 19440, Note_on_c, 0, 74, 39
2, 19487, Note_on_c, 0, 74, 0
2, 19487, Note_on_c, 0, 67, 0
2, 19920, Note_on_c, 0, 62, 39
2, 19920, Note_on_c, 0, 66, 39
2, 19920, Note_on_c, 0, 72, 39
2, 19967, Note_on_c, 0, 72, 0
2, 19967, Note_on_c, 0, 66, 0
2, 19967, Note_on_c, 0, 62, 0
2, 20160, Note_on_c, 0, 60, 39
2, 20160, Note_on_c, 0, 62, 39
2, 20160, Note_on_c, 0, 66, 39
2, 20207, Note_on_c, 0, 66, 0
2, 20207, Note_on_c, 0, 62, 0
2, 20207, Note_on_c, 0, 60, 0
2, 20640, Note_on_c, 0, 67, 39
2, 20640, Note_on_c, 0, 74, 39
2, 20687, Note_on_c, 0, 74, 0
2, 20687, Note_on_c, 0, 67, 0
2, 20880, Note_on_c, 0, 62, 39
2, 20880, Note_on_c, 0, 69, 39
2, 20927, Note_on_c, 0, 69, 0
2, 20927, Note_on_c, 0, 62, 0
2, 21360, Note_on_c, 0, 67, 39
2, 21407, Note_on_c, 0, 67, 0
2, 21600, Note_on_c, 0, 67, 39
2, 21647, Note_on_c, 0, 67, 0
2, 22080, Note_on_c, 0, 67, 39
2, 22127, Note_on_c, 0, 67, 0
2, 22320, Note_on_c, 0, 67, 39
2, 22367, Note_on_c, 0, 67, 0
2, 22800, Note_on_c, 0, 62, 39
2, 22800, Note_on_c, 0, 66, 39
2, 22800, Note_on_c, 0, 72, 39
2, 22847, Note_on_c, 0, 72, 0
2, 22847, Note_on_c, 0, 66, 0
2, 22847, Note_on_c, 0, 62, 0
2, 23040, Note_on_c, 0, 60, 39
2, 23040, Note_on_c, 0, 62, 39
2, 23040, Note_on_c, 0, 66, 39
2, 23087, Note_on_c, 0, 66, 0
2, 23087, Note_on_c, 0, 62, 0
2, 23087, Note_on_c, 0, 60, 0
2, 23520, Note_on_c, 0, 67, 39
2, 23520, Note_on_c, 0, 72, 39
2, 23567, Note_on_c, 0, 72, 0
2, 23567, Note_on_c, 0, 67, 0
2, 23760, Note_on_c, 0, 62, 39
2, 23760, Note_on_c, 0, 69, 39
2, 23807, Note_on_c, 0, 69, 0
2, 23807, Note_on_c, 0, 62, 0
2, 24240, Note_on_c, 0, 67, 39
2, 24240, Note_on_c, 0, 74, 39
2, 24287, Note_on_c, 0, 74, 0
2, 24287, Note_on_c, 0, 67, 0
2, 24480, Note_on_c, 0, 62, 39
2, 24480, Note_on_c, 0, 67, 39
2, 24527, Note_on_c, 0, 67, 0
2, 24527, Note_on_c, 0, 62, 0
2, 24960, Note_on_c, 0, 67, 39
2, 24960, Note_on_c, 0, 74, 39
2, 24960, Note_on_c, 0, 79, 39
2, 25007, Note_on_c, 0, 79, 0
2, 25007, Note_on_c, 0, 74, 0
2, 25007, Note_on_c, 0, 67, 0
2, 25200, Note_on_c, 0, 67, 39
2, 25200, Note_on_c, 0, 74, 39
2, 25247, Note_on_c, 0, 74, 0
2, 25247, Note_on_c, 0, 67, 0
2, 25680, Note_on_c, 0, 66, 39
2, 25680, Note_on_c, 0, 74, 39
2, 25680, Note_on_c, 0, 78, 39
2, 25727, Note_on_c, 0, 78, 0
2, 25727, Note_on_c, 0, 74, 0
2, 25727, Note_on_c, 0, 66, 0
2, 25920, Note_on_c, 0, 62, 39
2, 25920, Note_on_c, 0, 66, 39
2, 25967, Note_on_c, 0, 66, 0
2, 25967, Note_on_c, 0, 62, 0
2, 26400, Note_on_c, 0, 67, 39
2, 26400, Note_on_c, 0, 69, 39
2, 26400, Note_on_c, 0, 76, 39
2, 26447, Note_on_c, 0, 76, 0
2, 26447, Note_on_c, 0, 69, 0
2, 26447, Note_on_c, 0, 67, 0
2, 26640, Note_on_c, 0, 67, 39
2, 26640, Note_on_c, 0, 69, 39
2, 26687, Note_on_c, 0, 69, 0
2, 26687, Note_on_c, 0, 67, 0
2, 26880, Note_on_c, 0, 64, 65
2, 27120, Note_on_c, 0, 64, 0
2, 27120, Note_on_c, 0, 61, 65
2, 27180, Note_on_c, 0, 61, 0
2, 27180, Note_on_c, 0, 62, 65
2, 27240, Note_on_c, 0, 62, 0
2, 27240, Note_on_c, 0, 66, 65
2, 27300, Note_on_c, 0, 66, 0
2, 27300, Note_on_c, 0, 67, 65
2, 27360, Note_on_c, 0, 67, 0
2, 27360, Note_on_c, 0, 69, 78
2, 27420, Note_on_c, 0, 69, 0
2, 27420, Note_on_c, 0, 73, 78
2, 27480, Note_on_c, 0, 73, 0
2, 27480, Note_on_c, 0, 74, 78
2, 27540, Note_on_c, 0, 74, 0
2, 27540, Note_on_c, 0, 78, 78
2, 27600, Note_on_c, 0, 78, 0
2, 27600, Note_on_c, 0, 81, 78
2, 27660, Note_on_c, 0, 81, 0
2, 27660, Note_on_c, 0, 79, 78
2, 27720, Note_on_c, 0, 79, 0
2, 27720, Note_on_c, 0, 78, 78
2, 27780, Note_on_c, 0, 78, 0
2, 27780, Note_on_c, 0, 76, 78
2, 27840, Note_on_c, 0, 76, 0
2, 27840, Note_on_c, 0, 74, 78
2, 27900, Note_on_c, 0, 74, 0
2, 27900, Note_on_c, 0, 72, 78
2, 27960, Note_on_c, 0, 72, 0
2, 27960, Note_on_c, 0, 71, 78
2, 28020, Note_on_c, 0, 71, 0
2, 28020, Note_on_c, 0, 69, 78
2, 28080, Note_on_c, 0, 69, 0
2, 28080, Note_on_c, 0, 67, 65
2, 28140, Note_on_c, 0, 67, 0
2, 28140, Note_on_c, 0, 66, 65
2, 28200, Note_on_c, 0, 66, 0
2, 28200, Note_on_c, 0, 67, 65
2, 28260, Note_on_c, 0, 67, 0
2, 28260, Note_on_c, 0, 68, 65
2, 28320, Note_on_c, 0, 68, 0
2, 28320, Note_on_c, 0, 69, 52
2, 28980, Note_on_c, 0, 69, 0
2, 28980, Note_on_c, 0, 71, 52
2, 29040, Note_on_c, 0, 71, 0
2, 29040, Note_on_c, 0, 72, 52
2, 29700, Note_on_c, 0, 72, 0
2, 29700, Note_on_c, 0, 69, 52
2, 29760, Note_on_c, 0, 69, 0
2, 29760, Note_on_c, 0, 71, 52
2, 30420, Note_on_c, 0, 71, 0
2, 30420, Note_on_c, 0, 72, 52
2, 30480, Note_on_c, 0, 72, 0
2, 30480, Note_on_c, 0, 74, 52
2, 31140, Note_on_c, 0, 74, 0
2, 31140, Note_on_c, 0, 67, 52
2, 31200, Note_on_c, 0, 67, 0
2, 31200, Note_on_c, 0, 69, 52
2, 31860, Note_on_c, 0, 69, 0
2, 31860, Note_on_c, 0, 71, 52
2, 31920, Note_on_c, 0, 71, 0
2, 31920, Note_on_c, 0, 72, 78
2, 32160, Note_on_c, 0, 72, 0
2, 32160, Note_on_c, 0, 71, 78
2, 32400, Note_on_c, 0, 71, 0
2, 32400, Note_on_c, 0, 69, 78
2, 32640, Note_on_c, 0, 69, 0
2, 32640, Note_on_c, 0, 71, 52
2, 33000, Note_on_c, 0, 71, 0
2, 33000, Note_on_c, 0, 71, 52
2, 33120, Note_on_c, 0, 71, 0
2, 33120, Note_on_c, 0, 72, 52
2, 33240, Note_on_c, 0, 72, 0
2, 33240, Note_on_c, 0, 73, 52
2, 33360, Note_on_c, 0, 73, 0
2, 33360, Note_on_c, 0, 76, 52
2, 33600, Note_on_c, 0, 76, 0
2, 33600, Note_on_c, 0, 74, 52
2, 34020, Note_on_c, 0, 74, 0
2, 34020, Note_on_c, 0, 67, 52
2, 34080, Note_on_c, 0, 67, 0
2, 34080, Note_on_c, 0, 69, 52
2, 34740, Note_on_c, 0, 69, 0
2, 34740, Note_on_c, 0, 71, 52
2, 34800, Note_on_c, 0, 71, 0
2, 34800, Note_on_c, 0, 72, 52
2, 35460, Note_on_c, 0, 72, 0
2, 35460, Note_on_c, 0, 69, 52
2, 35520, Note_on_c, 0, 69, 0
2, 35520, Note_on_c, 0, 71, 52
2, 36180, Note_on_c, 0, 71, 0
2, 36180, Note_on_c, 0, 72, 52
2, 36240, Note_on_c, 0, 72, 0
2, 36240, Note_on_c, 0, 74, 65
2, 36600, Note_on_c, 0, 74, 0
2, 36600, Note_on_c, 0, 71, 65
2, 36720, Note_on_c, 0, 71, 0
2, 36720, Note_on_c, 0, 74, 65
2, 36840, Note_on_c, 0, 74, 0
2, 36840, Note_on_c, 0, 76, 65
2, 36960, Note_on_c, 0, 76, 0
2, 36960, Note_on_c, 0, 78, 65
2, 37320, Note_on_c, 0, 78, 0
2, 37320, Note_on_c, 0, 74, 65
2, 37440, Note_on_c, 0, 74, 0
2, 37440, Note_on_c, 0, 78, 65
2, 37560, Note_on_c, 0, 78, 0
2, 37560, Note_on_c, 0, 79, 65
2, 37680, Note_on_c, 0, 79, 0
2, 37680, Note_on_c, 0, 81, 65
2, 38040, Note_on_c, 0, 81, 0
2, 38040, Note_on_c, 0, 82, 65
2, 38160, Note_on_c, 0, 82, 0
2, 38160, Note_on_c, 0, 83, 65
2, 38280, Note_on_c, 0, 83, 0
2, 38280, Note_on_c, 0, 85, 65
2, 38400, Note_on_c, 0, 85, 0
2, 38400, Control_c, 0, 64, 127
2, 38400, Note_on_c, 0, 86, 78
2, 38460, Note_on_c, 0, 86, 0
2, 38460, Note_on_c, 0, 90, 78
2, 38520, Note_on_c, 0, 90, 0
2, 38520, Note_on_c, 0, 93, 78
2, 38580, Note_on_c, 0, 93, 0
2, 38580, Control_c, 0, 64, 0
2, 38580, Note_on_c, 0, 90, 78
2, 38640, Note_on_c, 0, 90, 0
2, 38640, Control_c, 0, 64, 127
2, 38640, Note_on_c, 0, 86, 78
2, 38700, Note_on_c, 0, 86, 0
2, 38700, Note_on_c, 0, 83, 78
2, 38760, Note_on_c, 0, 83, 0
2, 38760, Note_on_c, 0, 81, 78
2, 38820, Note_on_c, 0, 81, 0
2, 38820, Control_c, 0, 64, 0
2, 38820, Note_on_c, 0, 78, 78
2, 38880, Note_on_c, 0, 78, 0
2, 38880, Control_c, 0, 64, 127
2, 38880, Note_on_c, 0, 74, 78
2, 38940, Note_on_c, 0, 74, 0
2, 38940, Note_on_c, 0, 71, 78
2, 39000, Note_on_c, 0, 71, 0
2, 39000, Note_on_c, 0, 69, 78
2, 39060, Note_on_c, 0, 69, 0
2, 39060, Control_c, 0, 64, 0
2, 39060, Note_on_c, 0, 66, 78
2, 39120, Note_on_c, 0, 66, 0
2, 39360, Note_on_c, 0, 69, 65
2, 39360, Note_on_c, 0, 74, 65
2, 39480, Note_on_c, 0, 74, 0
2, 39480, Note_on_c, 0, 69, 0
2, 39480, Note_on_c, 0, 69, 65
2, 39480, Note_on_c, 0, 76, 65
2, 39600, Note_on_c, 0, 76, 0
2, 39600, Note_on_c, 0, 69, 0
2, 39600, Note_on_c, 0, 69, 65
2, 39600, Note_on_c, 0, 78, 65
2, 39720, Note_on_c, 0, 78, 0
2, 39720, Note_on_c, 0, 69, 0
2, 39720, Note_on_c, 0, 72, 65
2, 39720, Note_on_c, 0, 79, 65
2, 39840, Note_on_c, 0, 79, 0
2, 39840, Note_on_c, 0, 72, 0
2, 39840, Note_on_c, 0, 72, 65
2, 39840, Note_on_c, 0, 81, 65
2, 39960, Note_on_c, 0, 81, 0
2, 39960, Note_on_c, 0, 72, 0
2, 39960, Note_on_c, 0, 72, 65
2, 39960, Note_on_c, 0, 79, 65
2, 40080, Note_on_c, 0, 79, 0
2, 40080, Note_on_c, 0, 72, 0
2, 40080, Note_on_c, 0, 67, 65
2, 40080, Note_on_c, 0, 72, 65
2, 40080, Note_on_c, 0, 77, 65
2, 40200, Note_on_c, 0, 77, 0
2, 40200, Note_on_c, 0, 72, 0
2, 40200, Note_on_c, 0, 67, 0
2, 40200, Note_on_c, 0, 67, 65
2, 40200, Note_on_c, 0, 72, 65
2, 40200, Note_on_c, 0, 75, 65
2, 40320, Note_on_c, 0, 75, 0
2, 40320, Note_on_c, 0, 72, 0
2, 40320, Note_on_c, 0, 67, 0
2, 40320, Note_on_c, 0, 67, 65
2, 40320, Note_on_c, 0, 74, 65
2, 40440, Note_on_c, 0, 74, 0
2, 40440, Note_on_c, 0, 67, 0
2, 40440, Note_on_c, 0, 67, 65
2, 40440, Note_on_c, 0, 72, 65
2, 40560, Note_on_c, 0, 72, 0
2, 40560, Note_on_c, 0, 67, 0
2, 40560, Note_on_c, 0, 63, 65
2, 40560, Note_on_c, 0, 70, 65
2, 40680, Note_on_c, 0, 70, 0
2, 40680, Note_on_c, 0, 63, 0
2, 40680, Note_on_c, 0, 63, 65
2, 40680, Note_on_c, 0, 69, 65
2, 40800, Note_on_c, 0, 69, 0
2, 40800, Note_on_c, 0, 63, 0
2, 40800, Note_on_c, 0, 63, 65
2, 40800, Note_on_c, 0, 68, 65
2, 40920, Note_on_c, 0, 68, 0
2, 40920, Note_on_c, 0, 63, 0
2, 40920, Note_on_c, 0, 63, 65
2, 40920, Note_on_c, 0, 69, 65
2, 41040, Note_on_c, 0, 69, 0
2, 41040, Note_on_c, 0, 63, 0
2, 41040, Note_on_c, 0, 63, 65
2, 41040, Note_on_c, 0, 71, 65
2, 41160, Note_on_c, 0, 71, 0
2, 41160, Note_on_c, 0, 63, 0
2, 41160, Note_on_c, 0, 63, 65
2, 41160, Note_on_c, 0, 72, 65
2, 41280, Note_on_c, 0, 72, 0
2, 41280, Note_on_c, 0, 63, 0
2, 41280, Note_on_c, 0, 61, 91
2, 41280, Note_on_c, 0, 67, 91
2, 41520, Note_on_c, 0, 67, 0
2, 41520, Note_on_c, 0, 61, 0
2, 41520, Note_on_c, 0, 62, 65
2, 41520, Note_on_c, 0, 65, 65
2, 41760, Note_on_c, 0, 65, 0
2, 41760, Note_on_c, 0, 62, 0
2, 41760, Control_c, 0, 64, 127
2, 41760, Note_on_c, 0, 81, 91
2, 41820, Note_on_c, 0, 81, 0
2, 41820, Note_on_c, 0, 82, 91
2, 41880, Note_on_c, 0, 82, 0
2, 41880, Note_on_c, 0, 84, 91
2, 41940, Note_on_c, 0, 84, 0
2, 41940, Note_on_c, 0, 85, 91
2, 42000, Note_on_c, 0, 85, 0
2, 42000, Control_c, 0, 64, 0
2, 42000, Note_on_c, 0, 77, 117
2, 42000, Note_on_c, 0, 82, 117
2, 42000, Note_on_c, 0, 86, 117
2, 42240, Note_on_c, 0, 86, 0
2, 42240, Note_on_c, 0, 82, 0
2, 42240, Note_on_c, 0, 77, 0
2, 43200, Note_on_c, 0, 69, 65
2, 43200, Note_on_c, 0, 74, 65
2, 43320, Note_on_c, 0, 74, 0
2, 43320, Note_on_c, 0, 69, 0
2, 43320, Note_on_c, 0, 69, 65
2, 43320, Note_on_c, 0, 76, 65
2, 43440, Note_on_c, 0, 76, 0
2, 43440, Note_on_c, 0, 69, 0
2, 43440, Note_on_c, 0, 69, 65
2, 43440, Note_on_c, 0, 78, 65
2, 43560, Note_on_c, 0, 78, 0
2, 43560, Note_on_c, 0, 69, 0
2, 43560, Note_on_c, 0, 72, 65
2, 43560, Note_on_c, 0, 79, 65
2, 43680, Note_on_c, 0, 79, 0
2, 43680, Note_on_c, 0, 72, 0
2, 43680, Note_on_c, 0, 72, 65
2, 43680, Note_on_c, 0, 81, 65
2, 43800, Note_on_c, 0, 81, 0
2, 43800, Note_on_c, 0, 72, 0
2, 43800, Note_on_c, 0, 72, 65
2, 43800, Note_on_c, 0, 79, 65
2, 43920, Note_on_c, 0, 79, 0
2, 43920, Note_on_c, 0, 72, 0
2, 43920, Note_on_c, 0, 67, 65
2, 43920, Note_on_c, 0, 72, 65
2, 43920, Note_on_c, 0, 77, 65
2, 44040, Note_on_c, 0, 77, 0
2, 44040, Note_on_c, 0, 72, 0
2, 44040, Note_on_c, 0, 67, 0
2, 44040, Note_on_c, 0, 67, 65
2, 44040, Note_on_c, 0, 72, 65
2, 44040, Note_on_c, 0, 75, 65
2, 44160, Note_on_c, 0, 75, 0
2, 44160, Note_on_c, 0, 72, 0
2, 44160, Note_on_c, 0, 67, 0
2, 44160, Note_on_c, 0, 67, 65
2, 44160, Note_on_c, 0, 74, 65
2, 44280, Note_on_c, 0, 74, 0
2, 44280, Note_on_c, 0, 67, 0
2, 44280, Note_on_c, 0, 67, 65
2, 44280, Note_on_c, 0, 72, 65
2, 44400, Note_on_c, 0, 72, 0
2, 44400, Note_on_c, 0, 67, 0
2, 44400, Note_on_c, 0, 63, 65
2, 44400, Note_on_c, 0, 70, 65
2, 44520, Note_on_c, 0, 70, 0
2, 44520, Note_on_c, 0, 63, 0
2, 44520, Note_on_c, 0, 63, 65
2, 44520, Note_on_c, 0, 69, 65
2, 44640, Note_on_c, 0, 69, 0
2, 44640, Note_on_c, 0, 63, 0
2, 44640, Note_on_c, 0, 63, 65
2, 44640, Note_on_c, 0, 68, 65
2, 44760, Note_on_c, 0, 68, 0
2, 44760, Note_on_c, 0, 63, 0
2, 44760, Note_on_c, 0, 63, 65
2, 44760, Note_on_c, 0, 69, 65
2, 44880, Note_on_c, 0, 69, 0
2, 44880, Note_on_c, 0, 63, 0
2, 44880, Note_on_c, 0, 63, 65
2, 44880, Note_on_c, 0, 71, 65
2, 45000, Note_on_c, 0, 71, 0
2, 45000, Note_on_c, 0, 63, 0
2, 45000, Note_on_c, 0, 63, 65
2, 45000, Note_on_c, 0, 72, 65
2, 45120, Note_on_c, 0, 72, 0
2, 45120, Note_on_c, 0, 63, 0
2, 45120, Note_on_c, 0, 61, 91
2, 45120, Note_on_c, 0, 67, 91
2, 45360, Note_on_c, 0, 67, 0
2, 45360, Note_on_c, 0, 61, 0
2, 45360, Note_on_c, 0, 62, 65
2, 45360, Note_on_c, 0, 65, 65
2, 45600, Note_on_c, 0, 65, 0
2, 45600, Note_on_c, 0, 62, 0
2, 45600, Control_c, 0, 64, 127
2, 45600, Note_on_c, 0, 65, 91
2, 45660, Note_on_c, 0, 65, 0
2, 45660, Note_on_c, 0, 67, 91
2, 45720, Note_on_c, 0, 67, 0
2, 45720, Note_on_c, 0, 68, 91
2, 45780, Note_on_c, 0, 68, 0
2, 45780, Note_on_c, 0, 69, 91
2, 45840, Note_on_c, 0, 69, 0
2, 45840, Control_c, 0, 64, 0
2, 45840, Note_on_c, 0, 65, 117
2, 45840, Note_on_c, 0, 70, 117
2, 46080, Note_on_c, 0, 70, 0
2, 46080, Note_on_c, 0, 65, 0
2, 47040, Note_on_c, 0, 69, 65
2, 47040, Note_on_c, 0, 74, 65
2, 47160, Note_on_c, 0, 74, 0
2, 47160, Note_on_c, 0, 69, 0
2, 47160, Note_on_c, 0, 69, 65
2, 47160, Note_on_c, 0, 76, 65
2, 47280, Note_on_c, 0, 76, 0
2, 47280, Note_on_c, 0, 69, 0
2, 47280, Note_on_c, 0, 69, 65
2, 47280, Note_on_c, 0, 78, 65
2, 47400, Note_on_c, 0, 78, 0
2, 47400, Note_on_c, 0, 69, 0
2, 47400, Note_on_c, 0, 72, 65
2, 47400, Note_on_c, 0, 79, 65
2, 47520, Note_on_c, 0, 79, 0
2, 47520, Note_on_c, 0, 72, 0
2, 47520, Note_on_c, 0, 72, 65
2, 47520, Note_on_c, 0, 81, 65
2, 47640, Note_on_c, 0, 81, 0
2, 47640, Note_on_c, 0, 72, 0
2, 47640, Note_on_c, 0, 72, 65
2, 47640, Note_on_c, 0, 79, 65
2, 47760, Note_on_c, 0, 79, 0
2, 47760, Note_on_c, 0, 72, 0
2, 47760, Note_on_c, 0, 67, 65
2, 47760, Note_on_c, 0, 72, 65
2, 47760, Note_on_c, 0, 77, 65
2, 47880, Note_on_c, 0, 77, 0
2, 47880, Note_on_c, 0, 72, 0
2, 47880, Note_on_c, 0, 67, 0
2, 47880, Note_on_c, 0, 67, 65
2, 47880, Note_on_c, 0, 72, 65
2, 47880, Note_on_c, 0, 75, 65
2, 48000, Note_on_c, 0, 75, 0
2, 48000, Note_on_c, 0, 72, 0
2, 48000, Note_on_c, 0, 67, 0
2, 48000, Note_on_c, 0, 67, 65
2, 48000, Note_on_c, 0, 74, 65
2, 48120, Note_on_c, 0, 74, 0
2, 48120, Note_on_c, 0, 67, 0
2, 48120, Note_on_c, 0, 67, 65
2, 48120, Note_on_c, 0, 72, 65
2, 48240, Note_on_c, 0, 72, 0
2, 48240, Note_on_c, 0, 67, 0
2, 48240, Note_on_c, 0, 63, 65
2, 48240, Note_on_c, 0, 70, 65
2, 48360, Note_on_c, 0, 70, 0
2, 48360, Note_on_c, 0, 63, 0
2, 48360, Note_on_c, 0, 63, 65
2, 48360, Note_on_c, 0, 69, 65
2, 48480, Note_on_c, 0, 69, 0
2, 48480, Note_on_c, 0, 63, 0
2, 48480, Note_on_c, 0, 63, 65
2, 48480, Note_on_c, 0, 68, 65
2, 48600, Note_on_c, 0, 68, 0
2, 48600, Note_on_c, 0, 63, 0
2, 48600, Note_on_c, 0, 63, 65
2, 48600, Note_on_c, 0, 69, 65
2, 48720, Note_on_c, 0, 69, 0
2, 48720, Note_on_c, 0, 63, 0
2, 48720, Note_on_c, 0, 63, 65
2, 48720, Note_on_c, 0, 71, 65
2, 48840, Note_on_c, 0, 71, 0
2, 48840, Note_on_c, 0, 63, 0
2, 48840, Note_on_c, 0, 63, 65
2, 48840, Note_on_c, 0, 72, 65
2, 48960, Note_on_c, 0, 72, 0
2, 48960, Note_on_c, 0, 63, 0
2, 48960, Note_on_c, 0, 61, 91
2, 48960, Note_on_c, 0, 67, 91
2, 49200, Note_on_c, 0, 67, 0
2, 49200, Note_on_c, 0, 61, 0
2, 49200, Note_on_c, 0, 62, 65
2, 49200, Note_on_c, 0, 65, 65
2, 49440, Note_on_c, 0, 65, 0
2, 49440, Note_on_c, 0, 62, 0
2, 49440, Control_c, 0, 64, 127
2, 49440, Note_on_c, 0, 81, 91
2, 49500, Note_on_c, 0, 81, 0
2, 49500, Note_on_c, 0, 82, 91
2, 49560, Note_on_c, 0, 82, 0
2, 49560, Note_on_c, 0, 84, 91
2, 49620, Note_on_c, 0, 84, 0
2, 49620, Note_on_c, 0, 85, 91
2, 49680, Note_on_c, 0, 85, 0
2, 49680, Control_c, 0, 64, 0
2, 49680, Note_on_c, 0, 76, 117
2, 49680, Note_on_c, 0, 79, 117
2, 49680, Note_on_c, 0, 82, 117
2, 49680, Note_on_c, 0, 86, 117
2, 49920, Note_on_c, 0, 86, 0
2, 49920, Note_on_c, 0, 76, 0
2, 49920, Note_on_c, 0, 79, 0
2, 49920, Note_on_c, 0, 82, 0
2, 50880, Note_on_c, 0, 67, 65
2, 50880, Note_on_c, 0, 74, 65
2, 51000, Note_on_c, 0, 74, 0
2, 51000, Note_on_c, 0, 67, 0
2, 51000, Note_on_c, 0, 67, 65
2, 51000, Note_on_c, 0, 76, 65
2, 51120, Note_on_c, 0, 76, 0
2, 51120, Note_on_c, 0, 67, 0
2, 51120, Note_on_c, 0, 66, 65
2, 51120, Note_on_c, 0, 74, 65
2, 51120, Note_on_c, 0, 78, 65
2, 51240, Note_on_c, 0, 78, 0
2, 51240, Note_on_c, 0, 74, 0
2, 51240, Note_on_c, 0, 66, 0
2, 51240, Note_on_c, 0, 67, 65
2, 51240, Note_on_c, 0, 74, 65
2, 51240, Note_on_c, 0, 79, 65
2, 51360, Note_on_c, 0, 79, 0
2, 51360, Note_on_c, 0, 74, 0
2, 51360, Note_on_c, 0, 67, 0
2, 51360, Note_on_c, 0, 69, 65
2, 51360, Note_on_c, 0, 74, 65
2, 51360, Note_on_c, 0, 81, 65
2, 51480, Note_on_c, 0, 81, 0
2, 51480, Note_on_c, 0, 74, 0
2, 51480, Note_on_c, 0, 69, 0
2, 51480, Note_on_c, 0, 69, 65
2, 51480, Note_on_c, 0, 74, 65
2, 51480, Note_on_c, 0, 79, 65
2, 51600, Note_on_c, 0, 79, 0
2, 51600, Note_on_c, 0, 74, 0
2, 51600, Note_on_c, 0, 69, 0
2, 51600, Note_on_c, 0, 69, 65
2, 51600, Note_on_c, 0, 78, 65
2, 51720, Note_on_c, 0, 78, 0
2, 51720, Note_on_c, 0, 69, 0
2, 51720, Note_on_c, 0, 69, 65
2, 51720, Note_on_c, 0, 76, 65
2, 51840, Note_on_c, 0, 76, 0
2, 51840, Note_on_c, 0, 69, 0
2, 51840, Note_on_c, 0, 69, 65
2, 51840, Note_on_c, 0, 74, 65
2, 51960, Note_on_c, 0, 74, 0
2, 51960, Note_on_c, 0, 69, 0
2, 51960, Note_on_c, 0, 69, 65
2, 51960, Note_on_c, 0, 73, 65
2, 52080, Note_on_c, 0, 73, 0
2, 52080, Note_on_c, 0, 69, 0
2, 52080, Note_on_c, 0, 67, 65
2, 52080, Note_on_c, 0, 71, 65
2, 52200, Note_on_c, 0, 71, 0
2, 52200, Note_on_c, 0, 67, 0
2, 52200, Note_on_c, 0, 67, 65
2, 52200, Note_on_c, 0, 69, 65
2, 52320, Note_on_c, 0, 69, 0
2, 52320, Note_on_c, 0, 67, 0
2, 52320, Note_on_c, 0, 61, 65
2, 52320, Note_on_c, 0, 67, 65
2, 52320, Note_on_c, 0, 68, 65
2, 52440, Note_on_c, 0, 68, 0
2, 52440, Note_on_c, 0, 67, 0
2, 52440, Note_on_c, 0, 61, 0
2, 52440, Note_on_c, 0, 61, 65
2, 52440, Note_on_c, 0, 64, 65
2, 52440, Note_on_c, 0, 67, 65
2, 52440, Note_on_c, 0, 69, 65
2, 52560, Note_on_c, 0, 69, 0
2, 52560, Note_on_c, 0, 61, 0
2, 52560, Note_on_c, 0, 64, 0
2, 52560, Note_on_c, 0, 67, 0
2, 52560, Note_on_c, 0, 61, 65
2, 52560, Note_on_c, 0, 64, 65
2, 52560, Note_on_c, 0, 67, 65
2, 52560, Note_on_c, 0, 71, 65
2, 52680, Note_on_c, 0, 71, 0
2, 52680, Note_on_c, 0, 61, 0
2, 52680, Note_on_c, 0, 64, 0
2, 52680, Note_on_c, 0, 67, 0
2, 52680, Note_on_c, 0, 61, 65
2, 52680, Note_on_c, 0, 64, 65
2, 52680, Note_on_c, 0, 67, 65
2, 52680, Note_on_c, 0, 73, 65
2, 52800, Note_on_c, 0, 73, 0
2, 52800, Note_on_c, 0, 61, 0
2, 52800, Note_on_c, 0, 64, 0
2, 52800, Note_on_c, 0, 67, 0
2, 52800, Note_on_c, 0, 67, 91
2, 52800, Note_on_c, 0, 69, 91
2, 52800, Note_on_c, 0, 76, 91
2, 53040, Note_on_c, 0, 76, 0
2, 53040, Note_on_c, 0, 69, 0
2, 53040, Note_on_c, 0, 67, 0
2, 53040, Note_on_c, 0, 66, 65
2, 53040, Note_on_c, 0, 74, 65
2, 53280, Note_on_c, 0, 74, 0
2, 53280, Note_on_c, 0, 66, 0
2, 53280, Control_c, 0, 64, 127
2, 53280, Note_on_c, 0, 93, 91
2, 53340, Note_on_c, 0, 93, 0
2, 53340, Note_on_c, 0, 91, 91
2, 53400, Note_on_c, 0, 91, 0
2, 53400, Note_on_c, 0, 90, 91
2, 53460, Note_on_c, 0, 90, 0
2, 53460, Note_on_c, 0, 88, 91
2, 53520, Note_on_c, 0, 88, 0
2, 53520, Control_c, 0, 64, 0
2, 53520, Note_on_c, 0, 86, 91
2, 53600, Note_on_c, 0, 86, 0
2, 53600, Note_on_c, 0, 69, 78
2, 53616, Note_on_c, 0, 69, 0
2, 53679, Note_on_c, 0, 71, 78
2, 53695, Note_on_c, 0, 71, 0
2, 53760, Note_on_c, 0, 73, 78
2, 53775, Note_on_c, 0, 73, 0
2, 53840, Note_on_c, 0, 74, 78
2, 53856, Note_on_c, 0, 74, 0
2, 53919, Note_on_c, 0, 76, 65
2, 53935, Note_on_c, 0, 76, 0
2, 54000, Note_on_c, 0, 78, 65
2, 54015, Note_on_c, 0, 78, 0
2, 54080, Note_on_c, 0, 79, 65
2, 54096, Note_on_c, 0, 79, 0
2, 54159, Note_on_c, 0, 80, 65
2, 54175, Note_on_c, 0, 80, 0
2, 54240, Note_on_c, 0, 81, 91
2, 54320, Note_on_c, 0, 81, 0
2, 54320, Note_on_c, 0, 78, 65
2, 54399, Note_on_c, 0, 78, 0
2, 54399, Note_on_c, 0, 74, 65
2, 54480, Note_on_c, 0, 74, 0
2, 54480, Note_on_c, 0, 69, 65
2, 54503, Note_on_c, 0, 69, 0
2, 54900, Note_on_c, 0, 83, 91
2, 54960, Note_on_c, 0, 83, 0
2, 54960, Note_on_c, 0, 84, 91
2, 55040, Note_on_c, 0, 84, 0
2, 55040, Note_on_c, 0, 81, 65
2, 55119, Note_on_c, 0, 81, 0
2, 55119, Note_on_c, 0, 78, 65
2, 55200, Note_on_c, 0, 78, 0
2, 55200, Note_on_c, 0, 74, 65
2, 55223, Note_on_c, 0, 74, 0
2, 55620, Note_on_c, 0, 81, 91
2, 55680, Note_on_c, 0, 81, 0
2, 55680, Note_on_c, 0, 83, 91
2, 55760, Note_on_c, 0, 83, 0
2, 55760, Note_on_c, 0, 79, 65
2, 55839, Note_on_c, 0, 79, 0
2, 55839, Note_on_c, 0, 74, 65
2, 55920, Note_on_c, 0, 74, 0
2, 55920, Note_on_c, 0, 71, 65
2, 55943, Note_on_c, 0, 71, 0
2, 56340, Note_on_c, 0, 84, 91
2, 56400, Note_on_c, 0, 84, 0
2, 56400, Note_on_c, 0, 86, 91
2, 56480, Note_on_c, 0, 86, 0
2, 56480, Note_on_c, 0, 83, 65
2, 56559, Note_on_c, 0, 83, 0
2, 56559, Note_on_c, 0, 79, 65
2, 56640, Note_on_c, 0, 79, 0
2, 56640, Note_on_c, 0, 74, 65
2, 56663, Note_on_c, 0, 74, 0
2, 57060, Note_on_c, 0, 79, 91
2, 57120, Note_on_c, 0, 79, 0
2, 57120, Note_on_c, 0, 81, 91
2, 57200, Note_on_c, 0, 81, 0
2, 57200, Note_on_c, 0, 78, 65
2, 57279, Note_on_c, 0, 78, 0
2, 57279, Note_on_c, 0, 74, 65
2, 57360, Note_on_c, 0, 74, 0
2, 57360, Note_on_c, 0, 69, 65
2, 57480, Note_on_c, 0, 69, 0
2, 57780, Note_on_c, 0, 83, 91
2, 57840, Note_on_c, 0, 83, 0
2, 57840, Note_on_c, 0, 84, 91
2, 57920, Note_on_c, 0, 84, 0
2, 57920, Note_on_c, 0, 81, 65
2, 57999, Note_on_c, 0, 81, 0
2, 57999, Note_on_c, 0, 74, 65
2, 58080, Note_on_c, 0, 74, 0
2, 58080, Note_on_c, 0, 83, 91
2, 58160, Note_on_c, 0, 83, 0
2, 58160, Note_on_c, 0, 79, 65
2, 58239, Note_on_c, 0, 79, 0
2, 58239, Note_on_c, 0, 74, 65
2, 58320, Note_on_c, 0, 74, 0
2, 58320, Note_on_c, 0, 81, 91
2, 58400, Note_on_c, 0, 81, 0
2, 58400, Note_on_c, 0, 78, 65
2, 58479, Note_on_c, 0, 78, 0
2, 58479, Note_on_c, 0, 74, 65
2, 58560, Note_on_c, 0, 74, 0
2, 58560, Note_on_c, 0, 83, 91
2, 58640, Note_on_c, 0, 83, 0
2, 58640, Note_on_c, 0, 79, 65
2, 58656, Note_on_c, 0, 79, 0
2, 58719, Note_on_c, 0, 74, 65
2, 58735, Note_on_c, 0, 74, 0
2, 58800, Note_on_c, 0, 84, 91
2, 58880, Note_on_c, 0, 84, 0
2, 58880, Note_on_c, 0, 79, 65
2, 58896, Note_on_c, 0, 79, 0
2, 58959, Note_on_c, 0, 74, 65
2, 58975, Note_on_c, 0, 74, 0
2, 59040, Note_on_c, 0, 85, 91
2, 59120, Note_on_c, 0, 85, 0
2, 59120, Note_on_c, 0, 79, 65
2, 59136, Note_on_c, 0, 79, 0
2, 59199, Note_on_c, 0, 74, 65
2, 59280, Note_on_c, 0, 74, 0
2, 59280, Note_on_c, 0, 88, 91
2, 59360, Note_on_c, 0, 88, 0
2, 59360, Note_on_c, 0, 79, 65
2, 59376, Note_on_c, 0, 79, 0
2, 59439, Note_on_c, 0, 88, 65
2, 59520, Note_on_c, 0, 88, 0
2, 59520, Note_on_c, 0, 86, 91
2, 59600, Note_on_c, 0, 86, 0
2, 59600, Note_on_c, 0, 79, 65
2, 59679, Note_on_c, 0, 79, 0
2, 59679, Note_on_c, 0, 86, 65
2, 59760, Note_on_c, 0, 86, 0
2, 59760, Note_on_c, 0, 79, 91
2, 59840, Note_on_c, 0, 79, 0
2, 59840, Note_on_c, 0, 74, 65
2, 59856, Note_on_c, 0, 74, 0
2, 59919, Note_on_c, 0, 79, 65
2, 60000, Note_on_c, 0, 79, 0
2, 60000, Note_on_c, 0, 81, 91
2, 60080, Note_on_c, 0, 81, 0
2, 60080, Note_on_c, 0, 78, 65
2, 60159, Note_on_c, 0, 78, 0
2, 60159, Note_on_c, 0, 74, 65
2, 60240, Note_on_c, 0, 74, 0
2, 60240, Note_on_c, 0, 69, 65
2, 60263, Note_on_c, 0, 69, 0
2, 60660, Note_on_c, 0, 83, 91
2, 60720, Note_on_c, 0, 83, 0
2, 60720, Note_on_c, 0, 84, 91
2, 60800, Note_on_c, 0, 84, 0
2, 60800, Note_on_c, 0, 81, 65
2, 60879, Note_on_c, 0, 81, 0
2, 60879, Note_on_c, 0, 78, 65
2, 60960, Note_on_c, 0, 78, 0
2, 60960, Note_on_c, 0, 74, 65
2, 60983, Note_on_c, 0, 74, 0
2, 61380, Note_on_c, 0, 81, 91
2, 61440, Note_on_c, 0, 81, 0
2, 61440, Note_on_c, 0, 83, 91
2, 61520, Note_on_c, 0, 83, 0
2, 61520, Note_on_c, 0, 79, 65
2, 61599, Note_on_c, 0, 79, 0
2, 61599, Note_on_c, 0, 74, 65
2, 61680, Note_on_c, 0, 74, 0
2, 61680, Note_on_c, 0, 71, 65
2, 61703, Note_on_c, 0, 71, 0
2, 62100, Note_on_c, 0, 84, 91
2, 62160, Note_on_c, 0, 84, 0
2, 62160, Note_on_c, 0, 86, 91
2, 62240, Note_on_c, 0, 86, 0
2, 62240, Note_on_c, 0, 83, 65
2, 62319, Note_on_c, 0, 83, 0
2, 62319, Note_on_c, 0, 79, 65
2, 62400, Note_on_c, 0, 79, 0
2, 62400, Note_on_c, 0, 74, 65
2, 62423, Note_on_c, 0, 74, 0
2, 62820, Note_on_c, 0, 79, 91
2, 62880, Note_on_c, 0, 79, 0
2, 62880, Note_on_c, 0, 81, 91
2, 62960, Note_on_c, 0, 81, 0
2, 62960, Note_on_c, 0, 78, 65
2, 63039, Note_on_c, 0, 78, 0
2, 63039, Note_on_c, 0, 74, 65
2, 63120, Note_on_c, 0, 74, 0
2, 63120, Note_on_c, 0, 69, 65
2, 63240, Note_on_c, 0, 69, 0
2, 63540, Note_on_c, 0, 82, 91
2, 63600, Note_on_c, 0, 82, 0
2, 63600, Note_on_c, 0, 83, 91
2, 63680, Note_on_c, 0, 83, 0
2, 63680, Note_on_c, 0, 79, 65
2, 63759, Note_on_c, 0, 79, 0
2, 63759, Note_on_c, 0, 76, 65
2, 63840, Note_on_c, 0, 76, 0
2, 63840, Note_on_c, 0, 84, 91
2, 63920, Note_on_c, 0, 84, 0
2, 63920, Note_on_c, 0, 79, 65
2, 63999, Note_on_c, 0, 79, 0
2, 63999, Note_on_c, 0, 76, 65
2, 64080, Note_on_c, 0, 76, 0
2, 64080, Note_on_c, 0, 85, 104
2, 64160, Note_on_c, 0, 85, 0
2, 64160, Note_on_c, 0, 79, 78
2, 64239, Note_on_c, 0, 79, 0
2, 64239, Note_on_c, 0, 76, 78
2, 64320, Note_on_c, 0, 76, 0
2, 64320, Note_on_c, 0, 86, 104
2, 64560, Note_on_c, 0, 86, 0
2, 64560, Control_c, 0, 64, 127
2, 64560, Note_on_c, 0, 78, 78
2, 64607, Note_on_c, 0, 78, 0
2, 64607, Note_on_c, 0, 74, 78
2, 64656, Note_on_c, 0, 74, 0
2, 64656, Note_on_c, 0, 69, 78
2, 64703, Note_on_c, 0, 69, 0
2, 64703, Note_on_c, 0, 66, 78
2, 64752, Note_on_c, 0, 66, 0
2, 64752, Control_c, 0, 64, 0
2, 64752, Note_on_c, 0, 62, 78
2, 64800, Note_on_c, 0, 62, 0
2, 64800, Control_c, 0, 64, 127
2, 64800, Note_on_c, 0, 57, 78
2, 64823, Note_on_c, 0, 57, 0
2, 64823, Note_on_c, 0, 62, 78
2, 64847, Note_on_c, 0, 62, 0
2, 64847, Note_on_c, 0, 66, 78
2, 64872, Note_on_c, 0, 66, 0
2, 64872, Note_on_c, 0, 69, 78
2, 64896, Note_on_c, 0, 69, 0
2, 64896, Note_on_c, 0, 74, 78
2, 64920, Note_on_c, 0, 74, 0
2, 64920, Note_on_c, 0, 78, 78
2, 64943, Note_on_c, 0, 78, 0
2, 64943, Note_on_c, 0, 81, 78
2, 64967, Note_on_c, 0, 81, 0
2, 64967, Note_on_c, 0, 86, 78
2, 64992, Note_on_c, 0, 86, 0
2, 64992, Note_on_c, 0, 90, 78
2, 65016, Note_on_c, 0, 90, 0
2, 65016, Control_c, 0, 64, 0
2, 65016, Note_on_c, 0, 93, 78
2, 65040, Note_on_c, 0, 93, 0
2, 65040, Control_c, 0, 64, 0
2, 65040, Note_on_c, 0, 98, 78
2, 65160, Note_on_c, 0, 98, 0
2, 65280, Note_on_c, 0, 74, 78
2, 65295, Note_on_c, 0, 74, 0
2, 65360, Note_on_c, 0, 76, 78
2, 65376, Note_on_c, 0, 76, 0
2, 65439, Note_on_c, 0, 77, 78
2, 65455, Note_on_c, 0, 77, 0
2, 65520, Note_on_c, 0, 78, 65
2, 65535, Note_on_c, 0, 78, 0
2, 65600, Note_on_c, 0, 79, 65
2, 65616, Note_on_c, 0, 79, 0
2, 65679, Note_on_c, 0, 80, 91
2, 65695, Note_on_c, 0, 80, 0
2, 65760, Note_on_c, 0, 81, 91
2, 65840, Note_on_c, 0, 81, 0
2, 65840, Note_on_c, 0, 78, 65
2, 65919, Note_on_c, 0, 78, 0
2, 65919, Note_on_c, 0, 74, 65
2, 66000, Note_on_c, 0, 74, 0
2, 66000, Note_on_c, 0, 69, 65
2, 66023, Note_on_c, 0, 69, 0
2, 66420, Note_on_c, 0, 83, 91
2, 66480, Note_on_c, 0, 83, 0
2, 66480, Note_on_c, 0, 84, 91
2, 66560, Note_on_c, 0, 84, 0
2, 66560, Note_on_c, 0, 81, 65
2, 66639, Note_on_c, 0, 81, 0
2, 66639, Note_on_c, 0, 78, 65
2, 66720, Note_on_c, 0, 78, 0
2, 66720, Note_on_c, 0, 74, 65
2, 66743, Note_on_c, 0, 74, 0
2, 67140, Note_on_c, 0, 81, 91
2, 67200, Note_on_c, 0, 81, 0
2, 67200, Note_on_c, 0, 83, 91
2, 67280, Note_on_c, 0, 83, 0
2, 67280, Note_on_c, 0, 79, 65
2, 67359, Note_on_c, 0, 79, 0
2, 67359, Note_on_c, 0, 74, 65
2, 67440, Note_on_c, 0, 74, 0
2, 67440, Note_on_c, 0, 71, 65
2, 67463, Note_on_c, 0, 71, 0
2, 67860, Note_on_c, 0, 84, 91
2, 67920, Note_on_c, 0, 84, 0
2, 67920, Note_on_c, 0, 86, 91
2, 68000, Note_on_c, 0, 86, 0
2, 68000, Note_on_c, 0, 83, 65
2, 68079, Note_on_c, 0, 83, 0
2, 68079, Note_on_c, 0, 79, 65
2, 68160, Note_on_c, 0, 79, 0
2, 68160, Note_on_c, 0, 74, 65
2, 68183, Note_on_c, 0, 74, 0
2, 68580, Note_on_c, 0, 79, 91
2, 68640, Note_on_c, 0, 79, 0
2, 68640, Note_on_c, 0, 81, 91
2, 68720, Note_on_c, 0, 81, 0
2, 68720, Note_on_c, 0, 78, 65
2, 68799, Note_on_c, 0, 78, 0
2, 68799, Note_on_c, 0, 74, 65
2, 68880, Note_on_c, 0, 74, 0
2, 68880, Note_on_c, 0, 69, 65
2, 69000, Note_on_c, 0, 69, 0
2, 69300, Note_on_c, 0, 83, 91
2, 69360, Note_on_c, 0, 83, 0
2, 69360, Note_on_c, 0, 84, 91
2, 69440, Note_on_c, 0, 84, 0
2, 69440, Note_on_c, 0, 81, 65
2, 69519, Note_on_c, 0, 81, 0
2, 69519, Note_on_c, 0, 74, 65
2, 69600, Note_on_c, 0, 74, 0
2, 69600, Note_on_c, 0, 83, 91
2, 69680, Note_on_c, 0, 83, 0
2, 69680, Note_on_c, 0, 79, 65
2, 69759, Note_on_c, 0, 79, 0
2, 69759, Note_on_c, 0, 74, 65
2, 69840, Note_on_c, 0, 74, 0
2, 69840, Note_on_c, 0, 81, 91
2, 69920, Note_on_c, 0, 81, 0
2, 69920, Note_on_c, 0, 78, 65
2, 69999, Note_on_c, 0, 78, 0
2, 69999, Note_on_c, 0, 74, 65
2, 70080, Note_on_c, 0, 74, 0
2, 70080, Note_on_c, 0, 83, 91
2, 70160, Note_on_c, 0, 83, 0
2, 70160, Note_on_c, 0, 79, 65
2, 70176, Note_on_c, 0, 79, 0
2, 70239, Note_on_c, 0, 74, 65
2, 70255, Note_on_c, 0, 74, 0
2, 70320, Note_on_c, 0, 84, 91
2, 70400, Note_on_c, 0, 84, 0
2, 70400, Note_on_c, 0, 79, 65
2, 70416, Note_on_c, 0, 79, 0
2, 70479, Note_on_c, 0, 74, 65
2, 70495, Note_on_c, 0, 74, 0
2, 70560, Note_on_c, 0, 85, 91
2, 70640, Note_on_c, 0, 85, 0
2, 70640, Note_on_c, 0, 79, 65
2, 70656, Note_on_c, 0, 79, 0
2, 70719, Note_on_c, 0, 74, 65
2, 70800, Note_on_c, 0, 74, 0
2, 70800, Note_on_c, 0, 88, 91
2, 70880, Note_on_c, 0, 88, 0
2, 70880, Note_on_c, 0, 79, 65
2, 70896, Note_on_c, 0, 79, 0
2, 70959, Note_on_c, 0, 88, 65
2, 71040, Note_on_c, 0, 88, 0
2, 71040, Note_on_c, 0, 86, 91
2, 71120, Note_on_c, 0, 86, 0
2, 71120, Note_on_c, 0, 79, 65
2, 71199, Note_on_c, 0, 79, 0
2, 71199, Note_on_c, 0, 86, 65
2, 71280, Note_on_c, 0, 86, 0
2, 71280, Note_on_c, 0, 79, 91
2, 71360, Note_on_c, 0, 79, 0
2, 71360, Note_on_c, 0, 74, 65
2, 71376, Note_on_c, 0, 74, 0
2, 71439, Note_on_c, 0, 79, 65
2, 71520, Note_on_c, 0, 79, 0
2, 71520, Note_on_c, 0, 81, 91
2, 71600, Note_on_c, 0, 81, 0
2, 71600, Note_on_c, 0, 78, 65
2, 71679, Note_on_c, 0, 78, 0
2, 71679, Note_on_c, 0, 74, 65
2, 71760, Note_on_c, 0, 74, 0
2, 71760, Note_on_c, 0, 69, 65
2, 71783, Note_on_c, 0, 69, 0
2, 72180, Note_on_c, 0, 83, 91
2, 72240, Note_on_c, 0, 83, 0
2, 72240, Note_on_c, 0, 84, 91
2, 72320, Note_on_c, 0, 84, 0
2, 72320, Note_on_c, 0, 81, 65
2, 72399, Note_on_c, 0, 81, 0
2, 72399, Note_on_c, 0, 78, 65
2, 72480, Note_on_c, 0, 78, 0
2, 72480, Note_on_c, 0, 74, 65
2, 72503, Note_on_c, 0, 74, 0
2, 72900, Note_on_c, 0, 81, 91
2, 72960, Note_on_c, 0, 81, 0
2, 72960, Note_on_c, 0, 83, 91
2, 73040, Note_on_c, 0, 83, 0
2, 73040, Note_on_c, 0, 79, 65
2, 73119, Note_on_c, 0, 79, 0
2, 73119, Note_on_c, 0, 74, 65
2, 73200, Note_on_c, 0, 74, 0
2, 73200, Note_on_c, 0, 71, 65
2, 73223, Note_on_c, 0, 71, 0
2, 73620, Note_on_c, 0, 84, 91
2, 73680, Note_on_c, 0, 84, 0
2, 73680, Note_on_c, 0, 86, 91
2, 73760, Note_on_c, 0, 86, 0
2, 73760, Note_on_c, 0, 83, 65
2, 73839, Note_on_c, 0, 83, 0
2, 73839, Note_on_c, 0, 79, 65
2, 73920, Note_on_c, 0, 79, 0
2, 73920, Note_on_c, 0, 74, 65
2, 73943, Note_on_c, 0, 74, 0
2, 74340, Note_on_c, 0, 79, 91
2, 74400, Note_on_c, 0, 79, 0
2, 74400, Note_on_c, 0, 81, 91
2, 74480, Note_on_c, 0, 81, 0
2, 74480, Note_on_c, 0, 78, 65
2, 74559, Note_on_c, 0, 78, 0
2, 74559, Note_on_c, 0, 74, 65
2, 74640, Note_on_c, 0, 74, 0
2, 74640, Note_on_c, 0, 69, 65
2, 74760, Note_on_c, 0, 69, 0
2, 75060, Note_on_c, 0, 82, 91
2, 75120, Note_on_c, 0, 82, 0
2, 75120, Note_on_c, 0, 83, 91
2, 75200, Note_on_c, 0, 83, 0
2, 75200, Note_on_c, 0, 79, 65
2, 75279, Note_on_c, 0, 79, 0
2, 75279, Note_on_c, 0, 76, 65
2, 75360, Note_on_c, 0, 76, 0
2, 75360, Note_on_c, 0, 84, 91
2, 75440, Note_on_c, 0, 84, 0
2, 75440, Note_on_c, 0, 79, 65
2, 75519, Note_on_c, 0, 79, 0
2, 75519, Note_on_c, 0, 76, 65
2, 75600, Note_on_c, 0, 76, 0
2, 75600, Note_on_c, 0, 85, 104
2, 75680, Note_on_c, 0, 85, 0
2, 75680, Note_on_c, 0, 79, 78
2, 75759, Note_on_c, 0, 79, 0
2, 75759, Note_on_c, 0, 76, 78
2, 75840, Note_on_c, 0, 76, 0
2, 75840, Note_on_c, 0, 86, 104
2, 76080, Note_on_c, 0, 86, 0
2, 76080, Control_c, 0, 64, 127
2, 76080, Note_on_c, 0, 78, 78
2, 76127, Note_on_c, 0, 78, 0
2, 76127, Note_on_c, 0, 74, 78
2, 76176, Note_on_c, 0, 74, 0
2, 76176, Note_on_c, 0, 69, 78
2, 76223, Note_on_c, 0, 69, 0
2, 76223, Note_on_c, 0, 66, 78
2, 76272, Note_on_c, 0, 66, 0
2, 76272, Control_c, 0, 64, 0
2, 76272, Note_on_c, 0, 62, 78
2, 76320, Note_on_c, 0, 62, 0
2, 76320, Control_c, 0, 64, 127
2, 76320, Note_on_c, 0, 57, 78
2, 76343, Note_on_c, 0, 57, 0
2, 76343, Note_on_c, 0, 62, 78
2, 76367, Note_on_c, 0, 62, 0
2, 76367, Note_on_c, 0, 66, 78
2, 76392, Note_on_c, 0, 66, 0
2, 76392, Note_on_c, 0, 69, 78
2, 76416, Note_on_c, 0, 69, 0
2, 76416, Note_on_c, 0, 74, 78
2, 76440, Note_on_c, 0, 74, 0
2, 76440, Note_on_c, 0, 78, 78
2, 76463, Note_on_c, 0, 78, 0
2, 76463, Note_on_c, 0, 81, 78
2, 76487, Note_on_c, 0, 81, 0
2, 76487, Note_on_c, 0, 86, 78
2, 76512, Note_on_c, 0, 86, 0
2, 76512, Note_on_c, 0, 90, 78
2, 76536, Note_on_c, 0, 90, 0
2, 76536, Control_c, 0, 64, 0
2, 76536, Note_on_c, 0, 93, 78
2, 76560, Note_on_c, 0, 93, 0
2, 76560, Control_c, 0, 64, 0
2, 76560, Note_on_c, 0, 98, 78
2, 76800, Note_on_c, 0, 98, 0
2, 76800, Note_on_c, 0, 74, 91
2, 76800, Note_on_c, 0, 78, 91
2, 76800, Note_on_c, 0, 81, 91
2, 76800, Note_on_c, 0, 86, 91
2, 77040, Note_on_c, 0, 86, 0
2, 77040, Note_on_c, 0, 74, 0
2, 77040, Note_on_c, 0, 78, 0
2, 77040, Note_on_c, 0, 81, 0
2, 78000, Note_on_c, 0, 74, 52
2, 78060, Note_on_c, 0, 74, 0
2, 78060, Note_on_c, 0, 76, 52
2, 78120, Note_on_c, 0, 76, 0
2, 78120, Note_on_c, 0, 78, 52
2, 78180, Note_on_c, 0, 78, 0
2, 78180, Note_on_c, 0, 79, 52
2, 78240, Note_on_c, 0, 79, 0
2, 78240, Note_on_c, 0, 81, 52
2, 78360, Note_on_c, 0, 81, 0
2, 78360, Note_on_c, 0, 80, 52
2, 78480, Note_on_c, 0, 80, 0
2, 78480, Note_on_c, 0, 81, 52
2, 78527, Note_on_c, 0, 81, 0
2, 78720, Note_on_c, 0, 83, 52
2, 78840, Note_on_c, 0, 83, 0
2, 78840, Note_on_c, 0, 82, 52
2, 78960, Note_on_c, 0, 82, 0
2, 78960, Note_on_c, 0, 83, 52
2, 79007, Note_on_c, 0, 83, 0
2, 79200, Note_on_c, 0, 84, 52
2, 79320, Note_on_c, 0, 84, 0
2, 79320, Note_on_c, 0, 83, 52
2, 79440, Note_on_c, 0, 83, 0
2, 79440, Note_on_c, 0, 84, 52
2, 79487, Note_on_c, 0, 84, 0
2, 79680, Note_on_c, 0, 81, 52
2, 79800, Note_on_c, 0, 81, 0
2, 79800, Note_on_c, 0, 80, 52
2, 79920, Note_on_c, 0, 80, 0
2, 79920, Note_on_c, 0, 81, 52
2, 79967, Note_on_c, 0, 81, 0
2, 80160, Note_on_c, 0, 83, 52
2, 80280, Note_on_c, 0, 83, 0
2, 80280, Note_on_c, 0, 82, 52
2, 80400, Note_on_c, 0, 82, 0
2, 80400, Note_on_c, 0, 83, 52
2, 80447, Note_on_c, 0, 83, 0
2, 80640, Note_on_c, 0, 84, 52
2, 80760, Note_on_c, 0, 84, 0
2, 80760, Note_on_c, 0, 83, 52
2, 80880, Note_on_c, 0, 83, 0
2, 80880, Note_on_c, 0, 84, 52
2, 80927, Note_on_c, 0, 84, 0
2, 81120, Note_on_c, 0, 86, 52
2, 81240, Note_on_c, 0, 86, 0
2, 81240, Note_on_c, 0, 85, 52
2, 81360, Note_on_c, 0, 85, 0
2, 81360, Note_on_c, 0, 86, 52
2, 81407, Note_on_c, 0, 86, 0
2, 81600, Note_on_c, 0, 79, 52
2, 81720, Note_on_c, 0, 79, 0
2, 81720, Note_on_c, 0, 78, 52
2, 81840, Note_on_c, 0, 78, 0
2, 81840, Note_on_c, 0, 79, 52
2, 81887, Note_on_c, 0, 79, 0
2, 82080, Note_on_c, 0, 81, 52
2, 82200, Note_on_c, 0, 81, 0
2, 82200, Note_on_c, 0, 80, 52
2, 82320, Note_on_c, 0, 80, 0
2, 82320, Note_on_c, 0, 81, 52
2, 82367, Note_on_c, 0, 81, 0
2, 82560, Note_on_c, 0, 83, 52
2, 82680, Note_on_c, 0, 83, 0
2, 82680, Note_on_c, 0, 82, 52
2, 82800, Note_on_c, 0, 82, 0
2, 82800, Note_on_c, 0, 83, 52
2, 82847, Note_on_c, 0, 83, 0
2, 83040, Note_on_c, 0, 84, 52
2, 83160, Note_on_c, 0, 84, 0
2, 83160, Note_on_c, 0, 83, 52
2, 83280, Note_on_c, 0, 83, 0
2, 83280, Note_on_c, 0, 84, 52
2, 83327, Note_on_c, 0, 84, 0
2, 83520, Note_on_c, 0, 81, 52
2, 83640, Note_on_c, 0, 81, 0
2, 83640, Note_on_c, 0, 80, 52
2, 83760, Note_on_c, 0, 80, 0
2, 83760, Note_on_c, 0, 81, 52
2, 83807, Note_on_c, 0, 81, 0
2, 84000, Note_on_c, 0, 83, 52
2, 84120, Note_on_c, 0, 83, 0
2, 84120, Note_on_c, 0, 82, 52
2, 84240, Note_on_c, 0, 82, 0
2, 84240, Note_on_c, 0, 83, 52
2, 84287, Note_on_c, 0, 83, 0
2, 84480, Note_on_c, 0, 84, 52
2, 84600, Note_on_c, 0, 84, 0
2, 84600, Note_on_c, 0, 83, 52
2, 84720, Note_on_c, 0, 83, 0
2, 84720, Note_on_c, 0, 84, 52
2, 84767, Note_on_c, 0, 84, 0
2, 84960, Note_on_c, 0, 74, 91
2, 84960, Note_on_c, 0, 79, 91
2, 84960, Note_on_c, 0, 86, 91
2, 85200, Note_on_c, 0, 86, 0
2, 85200, Note_on_c, 0, 79, 0
2, 85200, Note_on_c, 0, 74, 0
2, 85440, Note_on_c, 0, 74, 52
2, 85560, Note_on_c, 0, 74, 0
2, 85560, Note_on_c, 0, 76, 52
2, 85680, Note_on_c, 0, 76, 0
2, 85680, Note_on_c, 0, 78, 52
2, 85800, Note_on_c, 0, 78, 0
2, 85800, Note_on_c, 0, 79, 52
2, 85920, Note_on_c, 0, 79, 0
2, 85920, Note_on_c, 0, 81, 52
2, 86040, Note_on_c, 0, 81, 0
2, 86040, Note_on_c, 0, 80, 52
2, 86160, Note_on_c, 0, 80, 0
2, 86160, Note_on_c, 0, 81, 52
2, 86207, Note_on_c, 0, 81, 0
2, 86400, Note_on_c, 0, 83, 52
2, 86520, Note_on_c, 0, 83, 0
2, 86520, Note_on_c, 0, 82, 52
2, 86640, Note_on_c, 0, 82, 0
2, 86640, Note_on_c, 0, 83, 52
2, 86687, Note_on_c, 0, 83, 0
2, 86880, Note_on_c, 0, 84, 52
2, 87000, Note_on_c, 0, 84, 0
2, 87000, Note_on_c, 0, 83, 52
2, 87120, Note_on_c, 0, 83, 0
2, 87120, Note_on_c, 0, 84, 52
2, 87167, Note_on_c, 0, 84, 0
2, 87360, Note_on_c, 0, 81, 52
2, 87480, Note_on_c, 0, 81, 0
2, 87480, Note_on_c, 0, 80, 52
2, 87600, Note_on_c, 0, 80, 0
2, 87600, Note_on_c, 0, 81, 52
2, 87647, Note_on_c, 0, 81, 0
2, 87840, Note_on_c, 0, 83, 52
2, 87960, Note_on_c, 0, 83, 0
2, 87960, Note_on_c, 0, 82, 52
2, 88080, Note_on_c, 0, 82, 0
2, 88080, Note_on_c, 0, 83, 52
2, 88127, Note_on_c, 0, 83, 0
2, 88320, Note_on_c, 0, 84, 52
2, 88440, Note_on_c, 0, 84, 0
2, 88440, Note_on_c, 0, 83, 52
2, 88560, Note_on_c, 0, 83, 0
2, 88560, Note_on_c, 0, 84, 52
2, 88607, Note_on_c, 0, 84, 0
2, 88800, Note_on_c, 0, 86, 52
2, 88920, Note_on_c, 0, 86, 0
2, 88920, Note_on_c, 0, 85, 52
2, 89040, Note_on_c, 0, 85, 0
2, 89040, Note_on_c, 0, 86, 52
2, 89087, Note_on_c, 0, 86, 0
2, 89280, Note_on_c, 0, 87, 91
2, 89400, Note_on_c, 0, 87, 0
2, 89400, Note_on_c, 0, 86, 91
2, 89520, Note_on_c, 0, 86, 0
2, 89520, Note_on_c, 0, 87, 91
2, 89567, Note_on_c, 0, 87, 0
2, 89760, Note_on_c, 0, 86, 91
2, 89880, Note_on_c, 0, 86, 0
2, 89880, Note_on_c, 0, 85, 91
2, 90000, Note_on_c, 0, 85, 0
2, 90000, Note_on_c, 0, 86, 91
2, 90047, Note_on_c, 0, 86, 0
2, 90240, Note_on_c, 0, 87, 91
2, 90360, Note_on_c, 0, 87, 0
2, 90360, Note_on_c, 0, 86, 91
2, 90480, Note_on_c, 0, 86, 0
2, 90480, Note_on_c, 0, 87, 91
2, 90527, Note_on_c, 0, 87, 0
2, 90720, Note_on_c, 0, 86, 91
2, 90840, Note_on_c, 0, 86, 0
2, 90840, Note_on_c, 0, 85, 91
2, 90960, Note_on_c, 0, 85, 0
2, 90960, Note_on_c, 0, 86, 91
2, 91007, Note_on_c, 0, 86, 0
2, 91200, Note_on_c, 0, 87, 91
2, 91320, Note_on_c, 0, 87, 0
2, 91320, Note_on_c, 0, 86, 91
2, 91440, Note_on_c, 0, 86, 0
2, 91440, Note_on_c, 0, 87, 91
2, 91487, Note_on_c, 0, 87, 0
2, 91680, Note_on_c, 0, 88, 91
2, 91800, Note_on_c, 0, 88, 0
2, 91800, Note_on_c, 0, 87, 91
2, 91920, Note_on_c, 0, 87, 0
2, 91920, Note_on_c, 0, 88, 91
2, 92160, Note_on_c, 0, 88, 0
2, 92160, Note_on_c, 0, 90, 91
2, 92280, Note_on_c, 0, 90, 0
2, 92280, Note_on_c, 0, 88, 91
2, 92400, Note_on_c, 0, 88, 0
2, 92400, Note_on_c, 0, 90, 91
2, 92640, Note_on_c, 0, 90, 0
2, 92640, Note_on_c, 0, 91, 91
2, 92760, Note_on_c, 0, 91, 0
2, 92760, Note_on_c, 0, 90, 91
2, 92880, Note_on_c, 0, 90, 0
2, 92880, Note_on_c, 0, 91, 91
2, 92927, Note_on_c, 0, 91, 0
2, 93120, Note_on_c, 0, 91, 91
2, 93240, Note_on_c, 0, 91, 0
2, 93240, Note_on_c, 0, 90, 91
2, 93360, Note_on_c, 0, 90, 0
2, 93360, Note_on_c, 0, 91, 91
2, 93407, Note_on_c, 0, 91, 0
2, 93600, Note_on_c, 0, 91, 91
2, 93720, Note_on_c, 0, 91, 0
2, 93720, Note_on_c, 0, 90, 91
2, 93840, Note_on_c, 0, 90, 0
2, 93840, Note_on_c, 0, 91, 91
2, 93887, Note_on_c, 0, 91, 0
2, 94080, Note_on_c, 0, 91, 91
2, 94200, Note_on_c, 0, 91, 0
2, 94200, Note_on_c, 0, 90, 91
2, 94320, Note_on_c, 0, 90, 0
2, 94320, Note_on_c, 0, 91, 91
2, 94367, Note_on_c, 0, 91, 0
2, 94560, Note_on_c, 0, 91, 91
2, 94680, Note_on_c, 0, 91, 0
2, 94680, Note_on_c, 0, 90, 91
2, 94800, Note_on_c, 0, 90, 0
2, 94800, Note_on_c, 0, 91, 91
2, 94847, Note_on_c, 0, 91, 0
2, 95040, Note_on_c, 0, 79, 91
2, 95040, Note_on_c, 0, 91, 91
2, 95071, Note_on_c, 0, 91, 0
2, 95071, Note_on_c, 0, 79, 0
2, 95199, Note_on_c, 0, 85, 91
2, 95231, Note_on_c, 0, 85, 0
2, 95360, Note_on_c, 0, 82, 91
2, 95392, Note_on_c, 0, 82, 0
2, 95520, Note_on_c, 0, 79, 91
2, 95679, Note_on_c, 0, 79, 0
2, 95679, Note_on_c, 0, 82, 91
2, 95840, Note_on_c, 0, 82, 0
2, 95840, Note_on_c, 0, 85, 91
2, 96000, Note_on_c, 0, 85, 0
2, 96000, Note_on_c, 0, 90, 91
2, 96120, Note_on_c, 0, 90, 0
2, 96120, Note_on_c, 0, 88, 91
2, 96240, Note_on_c, 0, 88, 0
2, 96240, Note_on_c, 0, 90, 91
2, 96287, Note_on_c, 0, 90, 0
2, 96480, Note_on_c, 0, 91, 91
2, 96600, Note_on_c, 0, 91, 0
2, 96600, Note_on_c, 0, 90, 91
2, 96720, Note_on_c, 0, 90, 0
2, 96720, Note_on_c, 0, 91, 91
2, 96767, Note_on_c, 0, 91, 0
2, 96960, Note_on_c, 0, 91, 91
2, 97080, Note_on_c, 0, 91, 0
2, 97080, Note_on_c, 0, 90, 91
2, 97200, Note_on_c, 0, 90, 0
2, 97200, Note_on_c, 0, 91, 91
2, 97247, Note_on_c, 0, 91, 0
2, 97440, Note_on_c, 0, 91, 91
2, 97560, Note_on_c, 0, 91, 0
2, 97560, Note_on_c, 0, 90, 91
2, 97680, Note_on_c, 0, 90, 0
2, 97680, Note_on_c, 0, 91, 91
2, 97727, Note_on_c, 0, 91, 0
2, 97920, Note_on_c, 0, 91, 91
2, 98040, Note_on_c, 0, 91, 0
2, 98040, Note_on_c, 0, 90, 91
2, 98160, Note_on_c, 0, 90, 0
2, 98160, Note_on_c, 0, 91, 91
2, 98207, Note_on_c, 0, 91, 0
2, 98400, Note_on_c, 0, 91, 91
2, 98520, Note_on_c, 0, 91, 0
2, 98520, Note_on_c, 0, 90, 91
2, 98640, Note_on_c, 0, 90, 0
2, 98640, Note_on_c, 0, 91, 91
2, 98687, Note_on_c, 0, 91, 0
2, 98880, Note_on_c, 0, 79, 91
2, 98880, Note_on_c, 0, 91, 91
2, 98911, Note_on_c, 0, 91, 0
2, 98911, Note_on_c, 0, 79, 0
2, 99039, Note_on_c, 0, 85, 91
2, 99071, Note_on_c, 0, 85, 0
2, 99200, Note_on_c, 0, 82, 91
2, 99232, Note_on_c, 0, 82, 0
2, 99360, Note_on_c, 0, 79, 91
2, 99519, Note_on_c, 0, 79, 0
2, 99519, Note_on_c, 0, 82, 91
2, 99680, Note_on_c, 0, 82, 0
2, 99680, Note_on_c, 0, 85, 91
2, 99840, Note_on_c, 0, 85, 0
2, 99840, Note_on_c, 0, 90, 91
2, 99960, Note_on_c, 0, 90, 0
2, 99960, Note_on_c, 0, 88, 91
2, 100080, Note_on_c, 0, 88, 0
2, 100080, Note_on_c, 0, 90, 91
2, 100127, Note_on_c, 0, 90, 0
2, 100320, Note_on_c, 0, 91, 91
2, 100440, Note_on_c, 0, 91, 0
2, 100440, Note_on_c, 0, 90, 91
2, 100560, Note_on_c, 0, 90, 0
2, 100560, Note_on_c, 0, 91, 91
2, 100607, Note_on_c, 0, 91, 0
2, 100800, Note_on_c, 0, 83, 91
2, 100920, Note_on_c, 0, 83, 0
2, 100920, Note_on_c, 0, 82, 91
2, 101040, Note_on_c, 0, 82, 0
2, 101040, Note_on_c, 0, 83, 91
2, 101087, Note_on_c, 0, 83, 0
2, 101280, Note_on_c, 0, 86, 91
2, 101400, Note_on_c, 0, 86, 0
2, 101400, Note_on_c, 0, 85, 91
2, 101520, Note_on_c, 0, 85, 0
2, 101520, Note_on_c, 0, 86, 91
2, 101567, Note_on_c, 0, 86, 0
2, 101760, Note_on_c, 0, 79, 91
2, 101880, Note_on_c, 0, 79, 0
2, 101880, Note_on_c, 0, 78, 91
2, 102000, Note_on_c, 0, 78, 0
2, 102000, Note_on_c, 0, 79, 91
2, 102047, Note_on_c, 0, 79, 0
2, 102240, Note_on_c, 0, 83, 91
2, 102360, Note_on_c, 0, 83, 0
2, 102360, Note_on_c, 0, 82, 91
2, 102480, Note_on_c, 0, 82, 0
2, 102480, Note_on_c, 0, 83, 91
2, 102527, Note_on_c, 0, 83, 0
2, 102720, Note_on_c, 0, 74, 91
2, 102840, Note_on_c, 0, 74, 0
2, 102840, Note_on_c, 0, 73, 91
2, 102960, Note_on_c, 0, 73, 0
2, 102960, Note_on_c, 0, 74, 91
2, 103007, Note_on_c, 0, 74, 0
2, 103200, Note_on_c, 0, 79, 91
2, 103440, Note_on_c, 0, 79, 0
2, 103680, Note_on_c, 0, 62, 91
2, 103711, Note_on_c, 0, 62, 0
2, 103839, Note_on_c, 0, 67, 91
2, 103871, Note_on_c, 0, 67, 0
2, 104000, Note_on_c, 0, 71, 91
2, 104032, Note_on_c, 0, 71, 0
2, 104160, Note_on_c, 0, 74, 91
2, 104207, Note_on_c, 0, 74, 0
2, 104640, Note_on_c, 0, 67, 91
2, 104671, Note_on_c, 0, 67, 0
2, 104799, Note_on_c, 0, 71, 91
2, 104831, Note_on_c, 0, 71, 0
2, 104960, Note_on_c, 0, 74, 91
2, 104992, Note_on_c, 0, 74, 0
2, 105120, Note_on_c, 0, 79, 91
2, 105167, Note_on_c, 0, 79, 0
2, 105600, Note_on_c, 0, 71, 91
2, 105631, Note_on_c, 0, 71, 0
2, 105759, Note_on_c, 0, 74, 91
2, 105791, Note_on_c, 0, 74, 0
2, 105920, Note_on_c, 0, 79, 91
2, 105952, Note_on_c, 0, 79, 0
2, 106080, Note_on_c, 0, 83, 91
2, 106127, Note_on_c, 0, 83, 0
2, 106560, Note_on_c, 0, 74, 91
2, 106560, Note_on_c, 0, 78, 91
2, 106560, Note_on_c, 0, 86, 91
2, 106607, Note_on_c, 0, 86, 0
2, 106607, Note_on_c, 0, 78, 0
2, 106607, Note_on_c, 0, 74, 0
2, 107040, Note_on_c, 0, 67, 91
2, 107040, Note_on_c, 0, 71, 91
2, 107040, Note_on_c, 0, 79, 91
2, 107136, Note_on_c, 0, 79, 0
2, 107136, Note_on_c, 0, 71, 0
2, 107136, Note_on_c, 0, 67, 0
2, 107520, Control_c, 0, 64, 127
2, 109440, Control_c, 0, 64, 0
2, 109440, End_track
3, 0, Start_track
3, 0, Title_t, "Grand Piano"
3, 0, Program_c, 0, 0
3, 0, Control_c, 0, 7, 115
3, 0, Control_c, 0, 10, 79
3, 0, Note_on_c, 0, 67, 93
3, 480, Note_on_c, 0, 67, 0
3, 480, Note_on_c, 0, 69, 93
3, 960, Note_on_c, 0, 69, 0
3, 960, Note_on_c, 0, 70, 93
3, 1440, Note_on_c, 0, 70, 0
3, 28560, Control_c, 0, 64, 127
3, 28560, Note_on_c, 0, 86, 54
3, 28594, Note_on_c, 0, 86, 0
3, 28594, Note_on_c, 0, 84, 54
3, 28628, Note_on_c, 0, 84, 0
3, 28628, Note_on_c, 0, 83, 54
3, 28662, Note_on_c, 0, 83, 0
3, 28662, Note_on_c, 0, 81, 54
3, 28697, Note_on_c, 0, 81, 0
3, 28697, Note_on_c, 0, 79, 54
3, 28731, Note_on_c, 0, 79, 0
3, 28731, Note_on_c, 0, 78, 54
3, 28765, Note_on_c, 0, 78, 0
3, 28765, Note_on_c, 0, 76, 54
3, 28800, Note_on_c, 0, 76, 0
3, 28800, Control_c, 0, 64, 0
3, 28800, Note_on_c, 0, 74, 54
3, 29040, Note_on_c, 0, 74, 0
3, 29280, Control_c, 0, 64, 127
3, 29280, Note_on_c, 0, 86, 54
3, 29314, Note_on_c, 0, 86, 0
3, 29314, Note_on_c, 0, 84, 54
3, 29348, Note_on_c, 0, 84, 0
3, 29348, Note_on_c, 0, 83, 54
3, 29382, Note_on_c, 0, 83, 0
3, 29382, Note_on_c, 0, 81, 54
3, 29417, Note_on_c, 0, 81, 0
3, 29417, Note_on_c, 0, 79, 54
3, 29451, Note_on_c, 0, 79, 0
3, 29451, Note_on_c, 0, 78, 54
3, 29485, Note_on_c, 0, 78, 0
3, 29485, Note_on_c, 0, 76, 54
3, 29520, Note_on_c, 0, 76, 0
3, 29520, Control_c, 0, 64, 0
3, 29520, Note_on_c, 0, 74, 54
3, 29760, Note_on_c, 0, 74, 0
3, 34320, Control_c, 0, 64, 127
3, 34320, Note_on_c, 0, 86, 54
3, 34354, Note_on_c, 0, 86, 0
3, 34354, Note_on_c, 0, 84, 54
3, 34388, Note_on_c, 0, 84, 0
3, 34388, Note_on_c, 0, 83, 54
3, 34422, Note_on_c, 0, 83, 0
3, 34422, Note_on_c, 0, 81, 54
3, 34457, Note_on_c, 0, 81, 0
3, 34457, Note_on_c, 0, 79, 54
3, 34491, Note_on_c, 0, 79, 0
3, 34491, Note_on_c, 0, 78, 54
3, 34525, Note_on_c, 0, 78, 0
3, 34525, Note_on_c, 0, 76, 54
3, 34560, Note_on_c, 0, 76, 0
3, 34560, Control_c, 0, 64, 0
3, 34560, Note_on_c, 0, 74, 54
3, 34800, Note_on_c, 0, 74, 0
3, 35040, Control_c, 0, 64, 127
3, 35040, Note_on_c, 0, 86, 54
3, 35074, Note_on_c, 0, 86, 0
3, 35074, Note_on_c, 0, 84, 54
3, 35108, Note_on_c, 0, 84, 0
3, 35108, Note_on_c, 0, 83, 54
3, 35142, Note_on_c, 0, 83, 0
3, 35142, Note_on_c, 0, 81, 54
3, 35177, Note_on_c, 0, 81, 0
3, 35177, Note_on_c, 0, 79, 54
3, 35211, Note_on_c, 0, 79, 0
3, 35211, Note_on_c, 0, 78, 54
3, 35245, Note_on_c, 0, 78, 0
3, 35245, Note_on_c, 0, 76, 54
3, 35280, Note_on_c, 0, 76, 0
3, 35280, Control_c, 0, 64, 0
3, 35280, Note_on_c, 0, 74, 54
3, 35520, Note_on_c, 0, 74, 0
3, 42000, Note_on_c, 0, 58, 80
3, 42000, Note_on_c, 0, 62, 80
3, 42000, Note_on_c, 0, 65, 80
3, 42000, Note_on_c, 0, 70, 80
3, 42240, Note_on_c, 0, 70, 0
3, 42240, Note_on_c, 0, 58, 0
3, 42240, Note_on_c, 0, 62, 0
3, 42240, Note_on_c, 0, 65, 0
3, 53520, Note_on_c, 0, 62, 80
3, 53520, Note_on_c, 0, 66, 80
3, 53520, Note_on_c, 0, 69, 80
3, 53520, Note_on_c, 0, 74, 80
3, 53760, Note_on_c, 0, 74, 0
3, 53760, Note_on_c, 0, 62, 0
3, 53760, Note_on_c, 0, 66, 0
3, 53760, Note_on_c, 0, 69, 0
3, 58560, Note_on_c, 0, 67, 80
3, 58583, Note_on_c, 0, 67, 0
3, 58680, Note_on_c, 0, 55, 80
3, 58703, Note_on_c, 0, 55, 0
3, 58800, Note_on_c, 0, 69, 80
3, 58823, Note_on_c, 0, 69, 0
3, 58920, Note_on_c, 0, 67, 80
3, 58943, Note_on_c, 0, 67, 0
3, 59040, Note_on_c, 0, 70, 80
3, 59063, Note_on_c, 0, 70, 0
3, 59160, Note_on_c, 0, 67, 80
3, 59183, Note_on_c, 0, 67, 0
3, 59280, Note_on_c, 0, 72, 80
3, 59303, Note_on_c, 0, 72, 0
3, 59400, Note_on_c, 0, 67, 80
3, 59423, Note_on_c, 0, 67, 0
3, 59520, Note_on_c, 0, 71, 80
3, 59543, Note_on_c, 0, 71, 0
3, 59640, Note_on_c, 0, 67, 80
3, 59663, Note_on_c, 0, 67, 0
3, 59760, Note_on_c, 0, 64, 80
3, 59783, Note_on_c, 0, 64, 0
3, 59880, Note_on_c, 0, 67, 80
3, 59903, Note_on_c, 0, 67, 0
3, 70080, Note_on_c, 0, 67, 80
3, 70103, Note_on_c, 0, 67, 0
3, 70200, Note_on_c, 0, 55, 80
3, 70223, Note_on_c, 0, 55, 0
3, 70320, Note_on_c, 0, 69, 80
3, 70343, Note_on_c, 0, 69, 0
3, 70440, Note_on_c, 0, 67, 80
3, 70463, Note_on_c, 0, 67, 0
3, 70560, Note_on_c, 0, 70, 80
3, 70583, Note_on_c, 0, 70, 0
3, 70680, Note_on_c, 0, 67, 80
3, 70703, Note_on_c, 0, 67, 0
3, 70800, Note_on_c, 0, 72, 80
3, 70823, Note_on_c, 0, 72, 0
3, 70920, Note_on_c, 0, 67, 80
3, 70943, Note_on_c, 0, 67, 0
3, 71040, Note_on_c, 0, 71, 80
3, 71063, Note_on_c, 0, 71, 0
3, 71160, Note_on_c, 0, 67, 80
3, 71183, Note_on_c, 0, 67, 0
3, 71280, Note_on_c, 0, 64, 80
3, 71303, Note_on_c, 0, 64, 0
3, 71400, Note_on_c, 0, 67, 80
3, 71423, Note_on_c, 0, 67, 0
3, 71423, End_track
4, 0, Start_track
4, 0, Title_t, "Grand Piano"
4, 0, Program_c, 0, 0
4, 0, Control_c, 0, 7, 115
4, 0, Control_c, 0, 10, 41
4, 0, Note_on_c, 0, 55, 88
4, 480, Note_on_c, 0, 55, 0
4, 480, Note_on_c, 0, 57, 88
4, 960, Note_on_c, 0, 57, 0
4, 960, Note_on_c, 0, 58, 88
4, 1440, Note_on_c, 0, 58, 0
4, 1440, Note_on_c, 0, 59, 75
4, 1487, Note_on_c, 0, 59, 0
4, 1680, Note_on_c, 0, 51, 75
4, 1680, Note_on_c, 0, 60, 75
4, 1727, Note_on_c, 0, 60, 0
4, 1727, Note_on_c, 0, 51, 0
4, 1920, Note_on_c, 0, 51, 75
4, 1920, Note_on_c, 0, 61, 75
4, 1967, Note_on_c, 0, 61, 0
4, 1967, Note_on_c, 0, 51, 0
4, 2160, Note_on_c, 0, 50, 75
4, 2160, Note_on_c, 0, 57, 75
4, 2160, Note_on_c, 0, 62, 75
4, 2400, Note_on_c, 0, 62, 0
4, 2400, Note_on_c, 0, 57, 0
4, 2400, Note_on_c, 0, 50, 0
4, 16740, Note_on_c, 0, 56, 62
4, 16800, Note_on_c, 0, 56, 0
4, 16800, Note_on_c, 0, 57, 62
4, 17460, Note_on_c, 0, 57, 0
4, 17460, Note_on_c, 0, 59, 62
4, 17520, Note_on_c, 0, 59, 0
4, 17520, Note_on_c, 0, 60, 62
4, 18180, Note_on_c, 0, 60, 0
4, 18180, Note_on_c, 0, 57, 62
4, 18240, Note_on_c, 0, 57, 0
4, 18240, Note_on_c, 0, 59, 62
4, 18900, Note_on_c, 0, 59, 0
4, 18900, Note_on_c, 0, 60, 62
4, 18960, Note_on_c, 0, 60, 0
4, 18960, Note_on_c, 0, 62, 62
4, 19620, Note_on_c, 0, 62, 0
4, 19620, Note_on_c, 0, 55, 62
4, 19680, Note_on_c, 0, 55, 0
4, 19680, Note_on_c, 0, 57, 62
4, 20340, Note_on_c, 0, 57, 0
4, 20340, Note_on_c, 0, 59, 62
4, 20400, Note_on_c, 0, 59, 0
4, 20400, Note_on_c, 0, 60, 62
4, 20640, Note_on_c, 0, 60, 0
4, 20640, Note_on_c, 0, 59, 62
4, 20880, Note_on_c, 0, 59, 0
4, 20880, Note_on_c, 0, 57, 62
4, 21120, Note_on_c, 0, 57, 0
4, 21120, Note_on_c, 0, 59, 62
4, 21360, Note_on_c, 0, 59, 0
4, 21360, Note_on_c, 0, 60, 62
4, 21600, Note_on_c, 0, 60, 0
4, 21600, Note_on_c, 0, 61, 88
4, 21840, Note_on_c, 0, 61, 0
4, 21840, Note_on_c, 0, 64, 88
4, 22080, Note_on_c, 0, 64, 0
4, 22080, Note_on_c, 0, 62, 62
4, 22500, Note_on_c, 0, 62, 0
4, 22500, Note_on_c, 0, 55, 62
4, 22560, Note_on_c, 0, 55, 0
4, 22560, Note_on_c, 0, 57, 62
4, 23220, Note_on_c, 0, 57, 0
4, 23220, Note_on_c, 0, 59, 62
4, 23280, Note_on_c, 0, 59, 0
4, 23280, Note_on_c, 0, 60, 62
4, 23940, Note_on_c, 0, 60, 0
4, 23940, Note_on_c, 0, 57, 62
4, 24000, Note_on_c, 0, 57, 0
4, 24000, Note_on_c, 0, 59, 62
4, 24660, Note_on_c, 0, 59, 0
4, 24660, Note_on_c, 0, 60, 62
4, 24720, Note_on_c, 0, 60, 0
4, 24720, Note_on_c, 0, 62, 62
4, 25380, Note_on_c, 0, 62, 0
4, 25380, Note_on_c, 0, 55, 62
4, 25440, Note_on_c, 0, 55, 0
4, 25440, Note_on_c, 0, 57, 62
4, 26100, Note_on_c, 0, 57, 0
4, 26100, Note_on_c, 0, 58, 75
4, 26160, Note_on_c, 0, 58, 0
4, 26160, Note_on_c, 0, 59, 75
4, 26400, Note_on_c, 0, 59, 0
4, 26400, Note_on_c, 0, 60, 88
4, 26640, Note_on_c, 0, 60, 0
4, 26640, Note_on_c, 0, 61, 88
4, 26880, Note_on_c, 0, 61, 0
4, 27120, Note_on_c, 0, 50, 62
4, 27120, Note_on_c, 0, 54, 62
4, 27120, Note_on_c, 0, 57, 62
4, 27360, Note_on_c, 0, 57, 0
4, 27360, Note_on_c, 0, 54, 0
4, 27360, Note_on_c, 0, 50, 0
4, 28320, Note_on_c, 0, 54, 49
4, 28560, Note_on_c, 0, 54, 0
4, 28560, Note_on_c, 0, 50, 49
4, 28560, Note_on_c, 0, 54, 49
4, 28560, Note_on_c, 0, 60, 49
4, 28560, Note_on_c, 0, 62, 49
4, 28800, Note_on_c, 0, 62, 0
4, 28800, Note_on_c, 0, 50, 0
4, 28800, Note_on_c, 0, 54, 0
4, 28800, Note_on_c, 0, 60, 0
4, 28800, Note_on_c, 0, 57, 49
4, 28800, Note_on_c, 0, 60, 49
4, 28800, Note_on_c, 0, 66, 49
4, 29040, Note_on_c, 0, 66, 0
4, 29040, Note_on_c, 0, 60, 0
4, 29040, Note_on_c, 0, 57, 0
4, 29040, Note_on_c, 0, 54, 49
4, 29280, Note_on_c, 0, 54, 0
4, 29280, Note_on_c, 0, 50, 49
4, 29280, Note_on_c, 0, 54, 49
4, 29280, Note_on_c, 0, 60, 49
4, 29280, Note_on_c, 0, 62, 49
4, 29520, Note_on_c, 0, 62, 0
4, 29520, Note_on_c, 0, 50, 0
4, 29520, Note_on_c, 0, 54, 0
4, 29520, Note_on_c, 0, 60, 0
4, 29520, Note_on_c, 0, 57, 49
4, 29520, Note_on_c, 0, 60, 49
4, 29520, Note_on_c, 0, 66, 49
4, 29760, Note_on_c, 0, 66, 0
4, 29760, Note_on_c, 0, 60, 0
4, 29760, Note_on_c, 0, 57, 0
4, 29760, Note_on_c, 0, 55, 49
4, 30000, Note_on_c, 0, 55, 0
4, 30000, Note_on_c, 0, 50, 49
4, 30000, Note_on_c, 0, 55, 49
4, 30000, Note_on_c, 0, 59, 49
4, 30000, Note_on_c, 0, 62, 49
4, 30240, Note_on_c, 0, 62, 0
4, 30240, Note_on_c, 0, 50, 0
4, 30240, Note_on_c, 0, 55, 0
4, 30240, Note_on_c, 0, 59, 0
4, 30240, Note_on_c, 0, 59, 49
4, 30240, Note_on_c, 0, 62, 49
4, 30240, Note_on_c, 0, 67, 49
4, 30480, Note_on_c, 0, 67, 0
4, 30480, Note_on_c, 0, 62, 0
4, 30480, Note_on_c, 0, 59, 0
4, 30480, Note_on_c, 0, 55, 49
4, 30720, Note_on_c, 0, 55, 0
4, 30720, Note_on_c, 0, 50, 49
4, 30720, Note_on_c, 0, 55, 49
4, 30720, Note_on_c, 0, 59, 49
4, 30720, Note_on_c, 0, 62, 49
4, 30960, Note_on_c, 0, 62, 0
4, 30960, Note_on_c, 0, 50, 0
4, 30960, Note_on_c, 0, 55, 0
4, 30960, Note_on_c, 0, 59, 0
4, 30960, Note_on_c, 0, 59, 49
4, 30960, Note_on_c, 0, 62, 49
4, 30960, Note_on_c, 0, 67, 49
4, 31200, Note_on_c, 0, 67, 0
4, 31200, Note_on_c, 0, 62, 0
4, 31200, Note_on_c, 0, 59, 0
4, 31200, Note_on_c, 0, 54, 49
4, 31440, Note_on_c, 0, 54, 0
4, 31440, Note_on_c, 0, 50, 49
4, 31440, Note_on_c, 0, 54, 49
4, 31440, Note_on_c, 0, 60, 49
4, 31440, Note_on_c, 0, 62, 49
4, 31680, Note_on_c, 0, 62, 0
4, 31680, Note_on_c, 0, 50, 0
4, 31680, Note_on_c, 0, 54, 0
4, 31680, Note_on_c, 0, 60, 0
4, 31680, Note_on_c, 0, 57, 49
4, 31680, Note_on_c, 0, 60, 49
4, 31680, Note_on_c, 0, 66, 49
4, 31920, Note_on_c, 0, 66, 0
4, 31920, Note_on_c, 0, 60, 0
4, 31920, Note_on_c, 0, 57, 0
4, 31920, Note_on_c, 0, 54, 49
4, 32160, Note_on_c, 0, 54, 0
4, 32160, Note_on_c, 0, 50, 49
4, 32160, Note_on_c, 0, 54, 49
4, 32160, Note_on_c, 0, 60, 49
4, 32160, Note_on_c, 0, 62, 49
4, 32400, Note_on_c, 0, 62, 0
4, 32400, Note_on_c, 0, 50, 0
4, 32400, Note_on_c, 0, 54, 0
4, 32400, Note_on_c, 0, 60, 0
4, 32400, Note_on_c, 0, 57, 49
4, 32400, Note_on_c, 0, 60, 49
4, 32400, Note_on_c, 0, 66, 49
4, 32640, Note_on_c, 0, 66, 0
4, 32640, Note_on_c, 0, 60, 0
4, 32640, Note_on_c, 0, 57, 0
4, 32640, Note_on_c, 0, 55, 49
4, 32880, Note_on_c, 0, 55, 0
4, 32880, Note_on_c, 0, 50, 49
4, 32880, Note_on_c, 0, 55, 49
4, 32880, Note_on_c, 0, 59, 49
4, 32880, Note_on_c, 0, 62, 49
4, 33120, Note_on_c, 0, 62, 0
4, 33120, Note_on_c, 0, 50, 0
4, 33120, Note_on_c, 0, 55, 0
4, 33120, Note_on_c, 0, 59, 0
4, 33120, Note_on_c, 0, 59, 49
4, 33120, Note_on_c, 0, 62, 49
4, 33120, Note_on_c, 0, 67, 49
4, 33360, Note_on_c, 0, 67, 0
4, 33360, Note_on_c, 0, 62, 0
4, 33360, Note_on_c, 0, 59, 0
4, 33360, Note_on_c, 0, 55, 49
4, 33600, Note_on_c, 0, 55, 0
4, 33600, Note_on_c, 0, 50, 49
4, 33600, Note_on_c, 0, 55, 49
4, 33600, Note_on_c, 0, 59, 49
4, 33600, Note_on_c, 0, 62, 49
4, 33840, Note_on_c, 0, 62, 0
4, 33840, Note_on_c, 0, 50, 0
4, 33840, Note_on_c, 0, 55, 0
4, 33840, Note_on_c, 0, 59, 0
4, 33840, Note_on_c, 0, 59, 49
4, 33840, Note_on_c, 0, 62, 49
4, 33840, Note_on_c, 0, 67, 49
4, 34080, Note_on_c, 0, 67, 0
4, 34080, Note_on_c, 0, 62, 0
4, 34080, Note_on_c, 0, 59, 0
4, 34080, Note_on_c, 0, 54, 49
4, 34320, Note_on_c, 0, 54, 0
4, 34320, Note_on_c, 0, 50, 49
4, 34320, Note_on_c, 0, 54, 49
4, 34320, Note_on_c, 0, 60, 49
4, 34320, Note_on_c, 0, 62, 49
4, 34560, Note_on_c, 0, 62, 0
4, 34560, Note_on_c, 0, 50, 0
4, 34560, Note_on_c, 0, 54, 0
4, 34560, Note_on_c, 0, 60, 0
4, 34560, Note_on_c, 0, 57, 49
4, 34560, Note_on_c, 0, 60, 49
4, 34560, Note_on_c, 0, 66, 49
4, 34800, Note_on_c, 0, 66, 0
4, 34800, Note_on_c, 0, 60, 0
4, 34800, Note_on_c, 0, 57, 0
4, 34800, Note_on_c, 0, 57, 49
4, 35040, Note_on_c, 0, 57, 0
4, 35040, Note_on_c, 0, 50, 49
4, 35040, Note_on_c, 0, 54, 49
4, 35040, Note_on_c, 0, 60, 49
4, 35040, Note_on_c, 0, 62, 49
4, 35280, Note_on_c, 0, 62, 0
4, 35280, Note_on_c, 0, 50, 0
4, 35280, Note_on_c, 0, 54, 0
4, 35280, Note_on_c, 0, 60, 0
4, 35280, Note_on_c, 0, 57, 49
4, 35280, Note_on_c, 0, 60, 49
4, 35280, Note_on_c, 0, 66, 49
4, 35520, Note_on_c, 0, 66, 0
4, 35520, Note_on_c, 0, 60, 0
4, 35520, Note_on_c, 0, 57, 0
4, 35520, Note_on_c, 0, 55, 49
4, 35760, Note_on_c, 0, 55, 0
4, 35760, Note_on_c, 0, 50, 49
4, 35760, Note_on_c, 0, 55, 49
4, 35760, Note_on_c, 0, 59, 49
4, 35760, Note_on_c, 0, 62, 49
4, 36000, Note_on_c, 0, 62, 0
4, 36000, Note_on_c, 0, 50, 0
4, 36000, Note_on_c, 0, 55, 0
4, 36000, Note_on_c, 0, 59, 0
4, 36000, Note_on_c, 0, 59, 49
4, 36000, Note_on_c, 0, 62, 49
4, 36000, Note_on_c, 0, 67, 49
4, 36240, Note_on_c, 0, 67, 0
4, 36240, Note_on_c, 0, 62, 0
4, 36240, Note_on_c, 0, 59, 0
4, 36240, Note_on_c, 0, 59, 49
4, 36480, Note_on_c, 0, 59, 0
4, 36480, Note_on_c, 0, 50, 49
4, 36480, Note_on_c, 0, 55, 49
4, 36480, Note_on_c, 0, 59, 49
4, 36480, Note_on_c, 0, 62, 49
4, 36720, Note_on_c, 0, 62, 0
4, 36720, Note_on_c, 0, 50, 0
4, 36720, Note_on_c, 0, 55, 0
4, 36720, Note_on_c, 0, 59, 0
4, 36720, Note_on_c, 0, 59, 49
4, 36720, Note_on_c, 0, 62, 49
4, 36720, Note_on_c, 0, 67, 49
4, 36960, Note_on_c, 0, 67, 0
4, 36960, Note_on_c, 0, 62, 0
4, 36960, Note_on_c, 0, 59, 0
4, 36960, Note_on_c, 0, 50, 49
4, 37200, Note_on_c, 0, 50, 0
4, 37200, Note_on_c, 0, 45, 49
4, 37200, Note_on_c, 0, 50, 49
4, 37200, Note_on_c, 0, 54, 49
4, 37200, Note_on_c, 0, 57, 49
4, 37440, Note_on_c, 0, 57, 0
4, 37440, Note_on_c, 0, 45, 0
4, 37440, Note_on_c, 0, 50, 0
4, 37440, Note_on_c, 0, 54, 0
4, 37440, Note_on_c, 0, 57, 49
4, 37440, Note_on_c, 0, 62, 49
4, 37440, Note_on_c, 0, 66, 49
4, 37680, Note_on_c, 0, 66, 0
4, 37680, Note_on_c, 0, 62, 0
4, 37680, Note_on_c, 0, 57, 0
4, 37680, Note_on_c, 0, 49, 49
4, 37920, Note_on_c, 0, 49, 0
4, 37920, Note_on_c, 0, 45, 49
4, 37920, Note_on_c, 0, 55, 49
4, 37920, Note_on_c, 0, 57, 49
4, 38160, Note_on_c, 0, 57, 0
4, 38160, Note_on_c, 0, 55, 0
4, 38160, Note_on_c, 0, 45, 0
4, 38160, Note_on_c, 0, 55, 49
4, 38160, Note_on_c, 0, 57, 49
4, 38160, Note_on_c, 0, 64, 49
4, 38400, Note_on_c, 0, 64, 0
4, 38400, Note_on_c, 0, 57, 0
4, 38400, Note_on_c, 0, 55, 0
4, 38400, Note_on_c, 0, 50, 75
4, 38400, Note_on_c, 0, 54, 75
4, 38400, Note_on_c, 0, 57, 75
4, 38400, Note_on_c, 0, 62, 75
4, 38640, Note_on_c, 0, 62, 0
4, 38640, Note_on_c, 0, 50, 0
4, 38640, Note_on_c, 0, 54, 0
4, 38640, Note_on_c, 0, 57, 0
4, 39120, Note_on_c, 0, 62, 88
4, 39240, Note_on_c, 0, 62, 0
4, 39360, Note_on_c, 0, 62, 62
4, 39360, Note_on_c, 0, 66, 62
4, 39480, Note_on_c, 0, 66, 0
4, 39480, Note_on_c, 0, 62, 0
4, 39480, Note_on_c, 0, 62, 62
4, 39480, Note_on_c, 0, 66, 62
4, 39600, Note_on_c, 0, 66, 0
4, 39600, Note_on_c, 0, 62, 0
4, 39600, Note_on_c, 0, 62, 62
4, 39600, Note_on_c, 0, 66, 62
4, 39720, Note_on_c, 0, 66, 0
4, 39720, Note_on_c, 0, 62, 0
4, 39720, Note_on_c, 0, 63, 62
4, 39720, Note_on_c, 0, 67, 62
4, 39840, Note_on_c, 0, 67, 0
4, 39840, Note_on_c, 0, 63, 0
4, 39840, Note_on_c, 0, 63, 62
4, 39840, Note_on_c, 0, 67, 62
4, 39960, Note_on_c, 0, 67, 0
4, 39960, Note_on_c, 0, 63, 0
4, 39960, Note_on_c, 0, 63, 62
4, 39960, Note_on_c, 0, 67, 62
4, 40080, Note_on_c, 0, 67, 0
4, 40080, Note_on_c, 0, 63, 0
4, 40080, Note_on_c, 0, 60, 62
4, 40080, Note_on_c, 0, 63, 62
4, 40200, Note_on_c, 0, 63, 0
4, 40200, Note_on_c, 0, 60, 0
4, 40200, Note_on_c, 0, 60, 62
4, 40200, Note_on_c, 0, 63, 62
4, 40320, Note_on_c, 0, 63, 0
4, 40320, Note_on_c, 0, 60, 0
4, 40320, Note_on_c, 0, 55, 62
4, 40320, Note_on_c, 0, 60, 62
4, 40320, Note_on_c, 0, 63, 62
4, 40440, Note_on_c, 0, 63, 0
4, 40440, Note_on_c, 0, 60, 0
4, 40440, Note_on_c, 0, 55, 0
4, 40440, Note_on_c, 0, 55, 62
4, 40440, Note_on_c, 0, 60, 62
4, 40440, Note_on_c, 0, 63, 62
4, 40560, Note_on_c, 0, 63, 0
4, 40560, Note_on_c, 0, 60, 0
4, 40560, Note_on_c, 0, 55, 0
4, 40560, Note_on_c, 0, 55, 62
4, 40560, Note_on_c, 0, 60, 62
4, 40680, Note_on_c, 0, 60, 0
4, 40680, Note_on_c, 0, 55, 0
4, 40680, Note_on_c, 0, 53, 62
4, 40680, Note_on_c, 0, 60, 62
4, 40800, Note_on_c, 0, 60, 0
4, 40800, Note_on_c, 0, 53, 0
4, 40800, Note_on_c, 0, 53, 62
4, 40800, Note_on_c, 0, 60, 62
4, 40920, Note_on_c, 0, 60, 0
4, 40920, Note_on_c, 0, 53, 0
4, 40920, Note_on_c, 0, 53, 62
4, 40920, Note_on_c, 0, 60, 62
4, 41040, Note_on_c, 0, 60, 0
4, 41040, Note_on_c, 0, 53, 0
4, 41040, Note_on_c, 0, 53, 62
4, 41040, Note_on_c, 0, 57, 62
4, 41160, Note_on_c, 0, 57, 0
4, 41160, Note_on_c, 0, 53, 0
4, 41160, Note_on_c, 0, 53, 62
4, 41160, Note_on_c, 0, 57, 62
4, 41280, Note_on_c, 0, 57, 0
4, 41280, Note_on_c, 0, 53, 0
4, 41280, Note_on_c, 0, 46, 62
4, 41280, Note_on_c, 0, 58, 62
4, 41760, Note_on_c, 0, 58, 0
4, 41760, Note_on_c, 0, 46, 0
4, 43200, Note_on_c, 0, 62, 62
4, 43200, Note_on_c, 0, 66, 62
4, 43320, Note_on_c, 0, 66, 0
4, 43320, Note_on_c, 0, 62, 0
4, 43320, Note_on_c, 0, 62, 62
4, 43320, Note_on_c, 0, 66, 62
4, 43440, Note_on_c, 0, 66, 0
4, 43440, Note_on_c, 0, 62, 0
4, 43440, Note_on_c, 0, 62, 62
4, 43440, Note_on_c, 0, 66, 62
4, 43560, Note_on_c, 0, 66, 0
4, 43560, Note_on_c, 0, 62, 0
4, 43560, Note_on_c, 0, 63, 62
4, 43560, Note_on_c, 0, 67, 62
4, 43680, Note_on_c, 0, 67, 0
4, 43680, Note_on_c, 0, 63, 0
4, 43680, Note_on_c, 0, 63, 62
4, 43680, Note_on_c, 0, 67, 62
4, 43800, Note_on_c, 0, 67, 0
4, 43800, Note_on_c, 0, 63, 0
4, 43800, Note_on_c, 0, 63, 62
4, 43800, Note_on_c, 0, 67, 62
4, 43920, Note_on_c, 0, 67, 0
4, 43920, Note_on_c, 0, 63, 0
4, 43920, Note_on_c, 0, 60, 62
4, 43920, Note_on_c, 0, 63, 62
4, 44040, Note_on_c, 0, 63, 0
4, 44040, Note_on_c, 0, 60, 0
4, 44040, Note_on_c, 0, 60, 62
4, 44040, Note_on_c, 0, 63, 62
4, 44160, Note_on_c, 0, 63, 0
4, 44160, Note_on_c, 0, 60, 0
4, 44160, Note_on_c, 0, 55, 62
4, 44160, Note_on_c, 0, 60, 62
4, 44160, Note_on_c, 0, 63, 62
4, 44280, Note_on_c, 0, 63, 0
4, 44280, Note_on_c, 0, 60, 0
4, 44280, Note_on_c, 0, 55, 0
4, 44280, Note_on_c, 0, 55, 62
4, 44280, Note_on_c, 0, 60, 62
4, 44280, Note_on_c, 0, 63, 62
4, 44400, Note_on_c, 0, 63, 0
4, 44400, Note_on_c, 0, 60, 0
4, 44400, Note_on_c, 0, 55, 0
4, 44400, Note_on_c, 0, 55, 62
4, 44400, Note_on_c, 0, 60, 62
4, 44520, Note_on_c, 0, 60, 0
4, 44520, Note_on_c, 0, 55, 0
4, 44520, Note_on_c, 0, 53, 62
4, 44520, Note_on_c, 0, 60, 62
4, 44640, Note_on_c, 0, 60, 0
4, 44640, Note_on_c, 0, 53, 0
4, 44640, Note_on_c, 0, 53, 62
4, 44640, Note_on_c, 0, 60, 62
4, 44760, Note_on_c, 0, 60, 0
4, 44760, Note_on_c, 0, 53, 0
4, 44760, Note_on_c, 0, 53, 62
4, 44760, Note_on_c, 0, 60, 62
4, 44880, Note_on_c, 0, 60, 0
4, 44880, Note_on_c, 0, 53, 0
4, 44880, Note_on_c, 0, 53, 62
4, 44880, Note_on_c, 0, 57, 62
4, 45000, Note_on_c, 0, 57, 0
4, 45000, Note_on_c, 0, 53, 0
4, 45000, Note_on_c, 0, 53, 62
4, 45000, Note_on_c, 0, 57, 62
4, 45120, Note_on_c, 0, 57, 0
4, 45120, Note_on_c, 0, 53, 0
4, 45120, Note_on_c, 0, 46, 62
4, 45120, Note_on_c, 0, 58, 62
4, 45600, Note_on_c, 0, 58, 0
4, 45600, Note_on_c, 0, 46, 0
4, 45840, Note_on_c, 0, 58, 88
4, 45840, Note_on_c, 0, 62, 88
4, 46080, Note_on_c, 0, 62, 0
4, 46080, Note_on_c, 0, 58, 0
4, 47040, Note_on_c, 0, 62, 62
4, 47040, Note_on_c, 0, 66, 62
4, 47160, Note_on_c, 0, 66, 0
4, 47160, Note_on_c, 0, 62, 0
4, 47160, Note_on_c, 0, 62, 62
4, 47160, Note_on_c, 0, 66, 62
4, 47280, Note_on_c, 0, 66, 0
4, 47280, Note_on_c, 0, 62, 0
4, 47280, Note_on_c, 0, 62, 62
4, 47280, Note_on_c, 0, 66, 62
4, 47400, Note_on_c, 0, 66, 0
4, 47400, Note_on_c, 0, 62, 0
4, 47400, Note_on_c, 0, 63, 62
4, 47400, Note_on_c, 0, 67, 62
4, 47520, Note_on_c, 0, 67, 0
4, 47520, Note_on_c, 0, 63, 0
4, 47520, Note_on_c, 0, 63, 62
4, 47520, Note_on_c, 0, 67, 62
4, 47640, Note_on_c, 0, 67, 0
4, 47640, Note_on_c, 0, 63, 0
4, 47640, Note_on_c, 0, 63, 62
4, 47640, Note_on_c, 0, 67, 62
4, 47760, Note_on_c, 0, 67, 0
4, 47760, Note_on_c, 0, 63, 0
4, 47760, Note_on_c, 0, 60, 62
4, 47760, Note_on_c, 0, 63, 62
4, 47880, Note_on_c, 0, 63, 0
4, 47880, Note_on_c, 0, 60, 0
4, 47880, Note_on_c, 0, 60, 62
4, 47880, Note_on_c, 0, 63, 62
4, 48000, Note_on_c, 0, 63, 0
4, 48000, Note_on_c, 0, 60, 0
4, 48000, Note_on_c, 0, 55, 62
4, 48000, Note_on_c, 0, 60, 62
4, 48000, Note_on_c, 0, 63, 62
4, 48120, Note_on_c, 0, 63, 0
4, 48120, Note_on_c, 0, 60, 0
4, 48120, Note_on_c, 0, 55, 0
4, 48120, Note_on_c, 0, 55, 62
4, 48120, Note_on_c, 0, 60, 62
4, 48120, Note_on_c, 0, 63, 62
4, 48240, Note_on_c, 0, 63, 0
4, 48240, Note_on_c, 0, 60, 0
4, 48240, Note_on_c, 0, 55, 0
4, 48240, Note_on_c, 0, 55, 62
4, 48240, Note_on_c, 0, 60, 62
4, 48360, Note_on_c, 0, 60, 0
4, 48360, Note_on_c, 0, 55, 0
4, 48360, Note_on_c, 0, 53, 62
4, 48360, Note_on_c, 0, 60, 62
4, 48480, Note_on_c, 0, 60, 0
4, 48480, Note_on_c, 0, 53, 0
4, 48480, Note_on_c, 0, 53, 62
4, 48480, Note_on_c, 0, 60, 62
4, 48600, Note_on_c, 0, 60, 0
4, 48600, Note_on_c, 0, 53, 0
4, 48600, Note_on_c, 0, 53, 62
4, 48600, Note_on_c, 0, 60, 62
4, 48720, Note_on_c, 0, 60, 0
4, 48720, Note_on_c, 0, 53, 0
4, 48720, Note_on_c, 0, 53, 62
4, 48720, Note_on_c, 0, 57, 62
4, 48840, Note_on_c, 0, 57, 0
4, 48840, Note_on_c, 0, 53, 0
4, 48840, Note_on_c, 0, 53, 62
4, 48840, Note_on_c, 0, 57, 62
4, 48960, Note_on_c, 0, 57, 0
4, 48960, Note_on_c, 0, 53, 0
4, 48960, Note_on_c, 0, 46, 62
4, 48960, Note_on_c, 0, 58, 62
4, 49440, Note_on_c, 0, 58, 0
4, 49440, Note_on_c, 0, 46, 0
4, 49680, Note_on_c, 0, 55, 75
4, 49680, Note_on_c, 0, 58, 75
4, 49680, Note_on_c, 0, 62, 75
4, 49680, Note_on_c, 0, 64, 75
4, 49680, Note_on_c, 0, 67, 75
4, 49920, Note_on_c, 0, 67, 0
4, 49920, Note_on_c, 0, 62, 0
4, 49920, Note_on_c, 0, 55, 0
4, 49920, Note_on_c, 0, 58, 0
4, 49920, Note_on_c, 0, 64, 0
4, 50880, Note_on_c, 0, 55, 62
4, 50880, Note_on_c, 0, 58, 62
4, 51000, Note_on_c, 0, 58, 0
4, 51000, Note_on_c, 0, 55, 0
4, 51000, Note_on_c, 0, 55, 62
4, 51000, Note_on_c, 0, 58, 62
4, 51120, Note_on_c, 0, 58, 0
4, 51120, Note_on_c, 0, 55, 0
4, 51120, Note_on_c, 0, 58, 62
4, 51120, Note_on_c, 0, 62, 62
4, 51240, Note_on_c, 0, 62, 0
4, 51240, Note_on_c, 0, 58, 0
4, 51240, Note_on_c, 0, 58, 62
4, 51240, Note_on_c, 0, 64, 62
4, 51360, Note_on_c, 0, 64, 0
4, 51360, Note_on_c, 0, 58, 0
4, 51360, Note_on_c, 0, 57, 62
4, 51360, Note_on_c, 0, 62, 62
4, 51360, Note_on_c, 0, 66, 62
4, 51480, Note_on_c, 0, 66, 0
4, 51480, Note_on_c, 0, 62, 0
4, 51480, Note_on_c, 0, 57, 0
4, 51480, Note_on_c, 0, 57, 62
4, 51480, Note_on_c, 0, 62, 62
4, 51480, Note_on_c, 0, 67, 62
4, 51600, Note_on_c, 0, 67, 0
4, 51600, Note_on_c, 0, 62, 0
4, 51600, Note_on_c, 0, 57, 0
4, 51600, Note_on_c, 0, 57, 62
4, 51600, Note_on_c, 0, 62, 62
4, 51600, Note_on_c, 0, 66, 62
4, 51720, Note_on_c, 0, 66, 0
4, 51720, Note_on_c, 0, 62, 0
4, 51720, Note_on_c, 0, 57, 0
4, 51720, Note_on_c, 0, 54, 62
4, 51720, Note_on_c, 0, 57, 62
4, 51720, Note_on_c, 0, 61, 62
4, 51720, Note_on_c, 0, 64, 62
4, 51840, Note_on_c, 0, 64, 0
4, 51840, Note_on_c, 0, 54, 0
4, 51840, Note_on_c, 0, 57, 0
4, 51840, Note_on_c, 0, 61, 0
4, 51840, Note_on_c, 0, 54, 62
4, 51840, Note_on_c, 0, 57, 62
4, 51840, Note_on_c, 0, 62, 62
4, 51960, Note_on_c, 0, 62, 0
4, 51960, Note_on_c, 0, 57, 0
4, 51960, Note_on_c, 0, 54, 0
4, 51960, Note_on_c, 0, 54, 62
4, 51960, Note_on_c, 0, 57, 62
4, 51960, Note_on_c, 0, 61, 62
4, 52080, Note_on_c, 0, 61, 0
4, 52080, Note_on_c, 0, 57, 0
4, 52080, Note_on_c, 0, 54, 0
4, 52080, Note_on_c, 0, 52, 62
4, 52080, Note_on_c, 0, 57, 62
4, 52080, Note_on_c, 0, 61, 62
4, 52200, Note_on_c, 0, 61, 0
4, 52200, Note_on_c, 0, 57, 0
4, 52200, Note_on_c, 0, 52, 0
4, 52200, Note_on_c, 0, 52, 62
4, 52200, Note_on_c, 0, 57, 62
4, 52200, Note_on_c, 0, 61, 62
4, 52320, Note_on_c, 0, 61, 0
4, 52320, Note_on_c, 0, 57, 0
4, 52320, Note_on_c, 0, 52, 0
4, 52320, Note_on_c, 0, 49, 62
4, 52320, Note_on_c, 0, 52, 62
4, 52320, Note_on_c, 0, 57, 62
4, 52440, Note_on_c, 0, 57, 0
4, 52440, Note_on_c, 0, 52, 0
4, 52440, Note_on_c, 0, 49, 0
4, 52440, Note_on_c, 0, 49, 62
4, 52440, Note_on_c, 0, 52, 62
4, 52440, Note_on_c, 0, 57, 62
4, 52560, Note_on_c, 0, 57, 0
4, 52560, Note_on_c, 0, 52, 0
4, 52560, Note_on_c, 0, 49, 0
4, 52560, Note_on_c, 0, 45, 62
4, 52560, Note_on_c, 0, 52, 62
4, 52560, Note_on_c, 0, 55, 62
4, 52560, Note_on_c, 0, 57, 62
4, 52680, Note_on_c, 0, 57, 0
4, 52680, Note_on_c, 0, 45, 0
4, 52680, Note_on_c, 0, 52, 0
4, 52680, Note_on_c, 0, 55, 0
4, 52680, Note_on_c, 0, 45, 62
4, 52680, Note_on_c, 0, 52, 62
4, 52680, Note_on_c, 0, 55, 62
4, 52680, Note_on_c, 0, 57, 62
4, 52800, Note_on_c, 0, 57, 0
4, 52800, Note_on_c, 0, 45, 0
4, 52800, Note_on_c, 0, 52, 0
4, 52800, Note_on_c, 0, 55, 0
4, 52800, Note_on_c, 0, 61, 62
4, 53040, Note_on_c, 0, 61, 0
4, 53040, Note_on_c, 0, 62, 62
4, 53280, Note_on_c, 0, 62, 0
4, 54240, Note_on_c, 0, 54, 62
4, 54240, Note_on_c, 0, 57, 62
4, 54240, Note_on_c, 0, 60, 62
4, 54240, Note_on_c, 0, 62, 62
4, 54287, Note_on_c, 0, 62, 0
4, 54287, Note_on_c, 0, 54, 0
4, 54287, Note_on_c, 0, 57, 0
4, 54287, Note_on_c, 0, 60, 0
4, 54480, Note_on_c, 0, 38, 62
4, 54495, Note_on_c, 0, 38, 0
4, 54560, Note_on_c, 0, 50, 62
4, 54576, Note_on_c, 0, 50, 0
4, 54639, Note_on_c, 0, 52, 62
4, 54655, Note_on_c, 0, 52, 0
4, 54720, Note_on_c, 0, 54, 62
4, 54735, Note_on_c, 0, 54, 0
4, 54800, Note_on_c, 0, 55, 62
4, 54816, Note_on_c, 0, 55, 0
4, 54879, Note_on_c, 0, 56, 62
4, 54895, Note_on_c, 0, 56, 0
4, 54960, Note_on_c, 0, 57, 62
4, 55280, Note_on_c, 0, 57, 0
4, 55280, Note_on_c, 0, 59, 62
4, 55296, Note_on_c, 0, 59, 0
4, 55359, Note_on_c, 0, 60, 62
4, 55375, Note_on_c, 0, 60, 0
4, 55440, Note_on_c, 0, 62, 62
4, 55455, Note_on_c, 0, 62, 0
4, 55520, Note_on_c, 0, 64, 62
4, 55536, Note_on_c, 0, 64, 0
4, 55599, Note_on_c, 0, 66, 62
4, 55615, Note_on_c, 0, 66, 0
4, 55680, Note_on_c, 0, 67, 62
4, 56000, Note_on_c, 0, 67, 0
4, 56000, Note_on_c, 0, 62, 62
4, 56016, Note_on_c, 0, 62, 0
4, 56079, Note_on_c, 0, 64, 62
4, 56095, Note_on_c, 0, 64, 0
4, 56160, Note_on_c, 0, 66, 62
4, 56175, Note_on_c, 0, 66, 0
4, 56240, Note_on_c, 0, 67, 62
4, 56256, Note_on_c, 0, 67, 0
4, 56319, Note_on_c, 0, 69, 62
4, 56335, Note_on_c, 0, 69, 0
4, 56400, Note_on_c, 0, 71, 62
4, 56720, Note_on_c, 0, 71, 0
4, 56720, Note_on_c, 0, 50, 62
4, 56736, Note_on_c, 0, 50, 0
4, 56799, Note_on_c, 0, 55, 62
4, 56815, Note_on_c, 0, 55, 0
4, 56880, Note_on_c, 0, 59, 62
4, 56895, Note_on_c, 0, 59, 0
4, 56960, Note_on_c, 0, 62, 62
4, 56976, Note_on_c, 0, 62, 0
4, 57039, Note_on_c, 0, 64, 62
4, 57055, Note_on_c, 0, 64, 0
4, 57120, Note_on_c, 0, 62, 62
4, 57440, Note_on_c, 0, 62, 0
4, 57440, Note_on_c, 0, 62, 62
4, 57519, Note_on_c, 0, 62, 0
4, 57519, Note_on_c, 0, 64, 62
4, 57600, Note_on_c, 0, 64, 0
4, 57600, Note_on_c, 0, 66, 62
4, 57615, Note_on_c, 0, 66, 0
4, 57680, Note_on_c, 0, 67, 62
4, 57696, Note_on_c, 0, 67, 0
4, 57759, Note_on_c, 0, 68, 62
4, 57775, Note_on_c, 0, 68, 0
4, 57840, Note_on_c, 0, 69, 62
4, 57863, Note_on_c, 0, 69, 0
4, 57960, Note_on_c, 0, 50, 62
4, 57983, Note_on_c, 0, 50, 0
4, 58080, Note_on_c, 0, 67, 62
4, 58103, Note_on_c, 0, 67, 0
4, 58200, Note_on_c, 0, 50, 62
4, 58223, Note_on_c, 0, 50, 0
4, 58320, Note_on_c, 0, 66, 62
4, 58343, Note_on_c, 0, 66, 0
4, 58440, Note_on_c, 0, 50, 62
4, 58463, Note_on_c, 0, 50, 0
4, 60000, Note_on_c, 0, 54, 62
4, 60000, Note_on_c, 0, 57, 62
4, 60000, Note_on_c, 0, 60, 62
4, 60000, Note_on_c, 0, 62, 62
4, 60047, Note_on_c, 0, 62, 0
4, 60047, Note_on_c, 0, 54, 0
4, 60047, Note_on_c, 0, 57, 0
4, 60047, Note_on_c, 0, 60, 0
4, 60240, Note_on_c, 0, 38, 62
4, 60255, Note_on_c, 0, 38, 0
4, 60320, Note_on_c, 0, 50, 62
4, 60336, Note_on_c, 0, 50, 0
4, 60399, Note_on_c, 0, 52, 62
4, 60415, Note_on_c, 0, 52, 0
4, 60480, Note_on_c, 0, 54, 62
4, 60495, Note_on_c, 0, 54, 0
4, 60560, Note_on_c, 0, 55, 62
4, 60576, Note_on_c, 0, 55, 0
4, 60639, Note_on_c, 0, 56, 62
4, 60655, Note_on_c, 0, 56, 0
4, 60720, Note_on_c, 0, 57, 62
4, 61040, Note_on_c, 0, 57, 0
4, 61040, Note_on_c, 0, 59, 62
4, 61056, Note_on_c, 0, 59, 0
4, 61119, Note_on_c, 0, 60, 62
4, 61135, Note_on_c, 0, 60, 0
4, 61200, Note_on_c, 0, 62, 62
4, 61215, Note_on_c, 0, 62, 0
4, 61280, Note_on_c, 0, 64, 62
4, 61296, Note_on_c, 0, 64, 0
4, 61359, Note_on_c, 0, 66, 62
4, 61375, Note_on_c, 0, 66, 0
4, 61440, Note_on_c, 0, 67, 62
4, 61760, Note_on_c, 0, 67, 0
4, 61760, Note_on_c, 0, 62, 62
4, 61776, Note_on_c, 0, 62, 0
4, 61839, Note_on_c, 0, 64, 62
4, 61855, Note_on_c, 0, 64, 0
4, 61920, Note_on_c, 0, 66, 62
4, 61935, Note_on_c, 0, 66, 0
4, 62000, Note_on_c, 0, 67, 62
4, 62016, Note_on_c, 0, 67, 0
4, 62079, Note_on_c, 0, 69, 62
4, 62095, Note_on_c, 0, 69, 0
4, 62160, Note_on_c, 0, 71, 62
4, 62480, Note_on_c, 0, 71, 0
4, 62480, Note_on_c, 0, 50, 62
4, 62496, Note_on_c, 0, 50, 0
4, 62559, Note_on_c, 0, 55, 62
4, 62575, Note_on_c, 0, 55, 0
4, 62640, Note_on_c, 0, 59, 62
4, 62655, Note_on_c, 0, 59, 0
4, 62720, Note_on_c, 0, 62, 62
4, 62736, Note_on_c, 0, 62, 0
4, 62799, Note_on_c, 0, 64, 62
4, 62815, Note_on_c, 0, 64, 0
4, 62880, Note_on_c, 0, 62, 62
4, 63200, Note_on_c, 0, 62, 0
4, 63200, Note_on_c, 0, 50, 62
4, 63279, Note_on_c, 0, 50, 0
4, 63279, Note_on_c, 0, 54, 62
4, 63360, Note_on_c, 0, 54, 0
4, 63360, Note_on_c, 0, 57, 62
4, 63375, Note_on_c, 0, 57, 0
4, 63440, Note_on_c, 0, 62, 62
4, 63456, Note_on_c, 0, 62, 0
4, 63519, Note_on_c, 0, 66, 62
4, 63535, Note_on_c, 0, 66, 0
4, 63600, Note_on_c, 0, 67, 62
4, 63720, Note_on_c, 0, 67, 0
4, 63720, Note_on_c, 0, 52, 62
4, 63720, Note_on_c, 0, 59, 62
4, 63840, Note_on_c, 0, 59, 0
4, 63840, Note_on_c, 0, 52, 0
4, 63840, Note_on_c, 0, 67, 62
4, 63960, Note_on_c, 0, 67, 0
4, 63960, Note_on_c, 0, 52, 62
4, 63960, Note_on_c, 0, 58, 62
4, 64080, Note_on_c, 0, 58, 0
4, 64080, Note_on_c, 0, 52, 0
4, 64080, Note_on_c, 0, 67, 75
4, 64200, Note_on_c, 0, 67, 0
4, 64200, Note_on_c, 0, 52, 75
4, 64200, Note_on_c, 0, 57, 75
4, 64320, Note_on_c, 0, 57, 0
4, 64320, Note_on_c, 0, 52, 0
4, 64320, Note_on_c, 0, 50, 101
4, 64320, Note_on_c, 0, 57, 101
4, 64320, Note_on_c, 0, 66, 101
4, 64367, Note_on_c, 0, 66, 0
4, 64367, Note_on_c, 0, 57, 0
4, 64367, Note_on_c, 0, 50, 0
4, 65760, Note_on_c, 0, 54, 62
4, 65760, Note_on_c, 0, 57, 62
4, 65760, Note_on_c, 0, 60, 62
4, 65760, Note_on_c, 0, 62, 62
4, 65807, Note_on_c, 0, 62, 0
4, 65807, Note_on_c, 0, 54, 0
4, 65807, Note_on_c, 0, 57, 0
4, 65807, Note_on_c, 0, 60, 0
4, 66000, Note_on_c, 0, 38, 62
4, 66015, Note_on_c, 0, 38, 0
4, 66080, Note_on_c, 0, 50, 62
4, 66096, Note_on_c, 0, 50, 0
4, 66159, Note_on_c, 0, 52, 62
4, 66175, Note_on_c, 0, 52, 0
4, 66240, Note_on_c, 0, 54, 62
4, 66255, Note_on_c, 0, 54, 0
4, 66320, Note_on_c, 0, 55, 62
4, 66336, Note_on_c, 0, 55, 0
4, 66399, Note_on_c, 0, 56, 62
4, 66415, Note_on_c, 0, 56, 0
4, 66480, Note_on_c, 0, 57, 62
4, 66800, Note_on_c, 0, 57, 0
4, 66800, Note_on_c, 0, 59, 62
4, 66816, Note_on_c, 0, 59, 0
4, 66879, Note_on_c, 0, 60, 62
4, 66895, Note_on_c, 0, 60, 0
4, 66960, Note_on_c, 0, 62, 62
4, 66975, Note_on_c, 0, 62, 0
4, 67040, Note_on_c, 0, 64, 62
4, 67056, Note_on_c, 0, 64, 0
4, 67119, Note_on_c, 0, 66, 62
4, 67135, Note_on_c, 0, 66, 0
4, 67200, Note_on_c, 0, 67, 62
4, 67520, Note_on_c, 0, 67, 0
4, 67520, Note_on_c, 0, 62, 62
4, 67536, Note_on_c, 0, 62, 0
4, 67599, Note_on_c, 0, 64, 62
4, 67615, Note_on_c, 0, 64, 0
4, 67680, Note_on_c, 0, 66, 62
4, 67695, Note_on_c, 0, 66, 0
4, 67760, Note_on_c, 0, 67, 62
4, 67776, Note_on_c, 0, 67, 0
4, 67839, Note_on_c, 0, 69, 62
4, 67855, Note_on_c, 0, 69, 0
4, 67920, Note_on_c, 0, 71, 62
4, 68240, Note_on_c, 0, 71, 0
4, 68240, Note_on_c, 0, 50, 62
4, 68256, Note_on_c, 0, 50, 0
4, 68319, Note_on_c, 0, 55, 62
4, 68335, Note_on_c, 0, 55, 0
4, 68400, Note_on_c, 0, 59, 62
4, 68415, Note_on_c, 0, 59, 0
4, 68480, Note_on_c, 0, 62, 62
4, 68496, Note_on_c, 0, 62, 0
4, 68559, Note_on_c, 0, 64, 62
4, 68575, Note_on_c, 0, 64, 0
4, 68640, Note_on_c, 0, 62, 62
4, 68960, Note_on_c, 0, 62, 0
4, 68960, Note_on_c, 0, 62, 62
4, 69039, Note_on_c, 0, 62, 0
4, 69039, Note_on_c, 0, 64, 62
4, 69120, Note_on_c, 0, 64, 0
4, 69120, Note_on_c, 0, 66, 62
4, 69135, Note_on_c, 0, 66, 0
4, 69200, Note_on_c, 0, 67, 62
4, 69216, Note_on_c, 0, 67, 0
4, 69279, Note_on_c, 0, 68, 62
4, 69295, Note_on_c, 0, 68, 0
4, 69360, Note_on_c, 0, 69, 62
4, 69383, Note_on_c, 0, 69, 0
4, 69480, Note_on_c, 0, 50, 62
4, 69503, Note_on_c, 0, 50, 0
4, 69600, Note_on_c, 0, 67, 62
4, 69623, Note_on_c, 0, 67, 0
4, 69720, Note_on_c, 0, 50, 62
4, 69743, Note_on_c, 0, 50, 0
4, 69840, Note_on_c, 0, 66, 62
4, 69863, Note_on_c, 0, 66, 0
4, 69960, Note_on_c, 0, 50, 62
4, 69983, Note_on_c, 0, 50, 0
4, 71520, Note_on_c, 0, 54, 62
4, 71520, Note_on_c, 0, 57, 62
4, 71520, Note_on_c, 0, 60, 62
4, 71520, Note_on_c, 0, 62, 62
4, 71567, Note_on_c, 0, 62, 0
4, 71567, Note_on_c, 0, 54, 0
4, 71567, Note_on_c, 0, 57, 0
4, 71567, Note_on_c, 0, 60, 0
4, 71760, Note_on_c, 0, 38, 62
4, 71775, Note_on_c, 0, 38, 0
4, 71840, Note_on_c, 0, 50, 62
4, 71856, Note_on_c, 0, 50, 0
4, 71919, Note_on_c, 0, 52, 62
4, 71935, Note_on_c, 0, 52, 0
4, 72000, Note_on_c, 0, 54, 62
4, 72015, Note_on_c, 0, 54, 0
4, 72080, Note_on_c, 0, 55, 62
4, 72096, Note_on_c, 0, 55, 0
4, 72159, Note_on_c, 0, 56, 62
4, 72175, Note_on_c, 0, 56, 0
4, 72240, Note_on_c, 0, 57, 62
4, 72560, Note_on_c, 0, 57, 0
4, 72560, Note_on_c, 0, 59, 62
4, 72576, Note_on_c, 0, 59, 0
4, 72639, Note_on_c, 0, 60, 62
4, 72655, Note_on_c, 0, 60, 0
4, 72720, Note_on_c, 0, 62, 62
4, 72735, Note_on_c, 0, 62, 0
4, 72800, Note_on_c, 0, 64, 62
4, 72816, Note_on_c, 0, 64, 0
4, 72879, Note_on_c, 0, 66, 62
4, 72895, Note_on_c, 0, 66, 0
4, 72960, Note_on_c, 0, 67, 62
4, 73280, Note_on_c, 0, 67, 0
4, 73280, Note_on_c, 0, 62, 62
4, 73296, Note_on_c, 0, 62, 0
4, 73359, Note_on_c, 0, 64, 62
4, 73375, Note_on_c, 0, 64, 0
4, 73440, Note_on_c, 0, 66, 62
4, 73455, Note_on_c, 0, 66, 0
4, 73520, Note_on_c, 0, 67, 62
4, 73536, Note_on_c, 0, 67, 0
4, 73599, Note_on_c, 0, 69, 62
4, 73615, Note_on_c, 0, 69, 0
4, 73680, Note_on_c, 0, 71, 62
4, 74000, Note_on_c, 0, 71, 0
4, 74000, Note_on_c, 0, 50, 62
4, 74016, Note_on_c, 0, 50, 0
4, 74079, Note_on_c, 0, 55, 62
4, 74095, Note_on_c, 0, 55, 0
4, 74160, Note_on_c, 0, 59, 62
4, 74175, Note_on_c, 0, 59, 0
4, 74240, Note_on_c, 0, 62, 62
4, 74256, Note_on_c, 0, 62, 0
4, 74319, Note_on_c, 0, 64, 62
4, 74335, Note_on_c, 0, 64, 0
4, 74400, Note_on_c, 0, 62, 62
4, 74720, Note_on_c, 0, 62, 0
4, 74720, Note_on_c, 0, 50, 62
4, 74799, Note_on_c, 0, 50, 0
4, 74799, Note_on_c, 0, 54, 62
4, 74880, Note_on_c, 0, 54, 0
4, 74880, Note_on_c, 0, 57, 62
4, 74895, Note_on_c, 0, 57, 0
4, 74960, Note_on_c, 0, 62, 62
4, 74976, Note_on_c, 0, 62, 0
4, 75039, Note_on_c, 0, 66, 62
4, 75055, Note_on_c, 0, 66, 0
4, 75120, Note_on_c, 0, 67, 62
4, 75240, Note_on_c, 0, 67, 0
4, 75240, Note_on_c, 0, 52, 62
4, 75240, Note_on_c, 0, 59, 62
4, 75360, Note_on_c, 0, 59, 0
4, 75360, Note_on_c, 0, 52, 0
4, 75360, Note_on_c, 0, 67, 62
4, 75480, Note_on_c, 0, 67, 0
4, 75480, Note_on_c, 0, 52, 62
4, 75480, Note_on_c, 0, 58, 62
4, 75600, Note_on_c, 0, 58, 0
4, 75600, Note_on_c, 0, 52, 0
4, 75600, Note_on_c, 0, 67, 75
4, 75720, Note_on_c, 0, 67, 0
4, 75720, Note_on_c, 0, 52, 75
4, 75720, Note_on_c, 0, 57, 75
4, 75840, Note_on_c, 0, 57, 0
4, 75840, Note_on_c, 0, 52, 0
4, 75840, Note_on_c, 0, 50, 101
4, 75840, Note_on_c, 0, 57, 101
4, 75840, Note_on_c, 0, 66, 101
4, 75887, Note_on_c, 0, 66, 0
4, 75887, Note_on_c, 0, 57, 0
4, 75887, Note_on_c, 0, 50, 0
4, 76800, Note_on_c, 0, 50, 101
4, 76800, Note_on_c, 0, 54, 101
4, 76800, Note_on_c, 0, 57, 101
4, 76800, Note_on_c, 0, 62, 101
4, 77040, Note_on_c, 0, 62, 0
4, 77040, Note_on_c, 0, 50, 0
4, 77040, Note_on_c, 0, 54, 0
4, 77040, Note_on_c, 0, 57, 0
4, 78240, Note_on_c, 0, 54, 49
4, 78480, Note_on_c, 0, 54, 0
4, 78480, Note_on_c, 0, 57, 49
4, 78480, Note_on_c, 0, 62, 49
4, 78480, Note_on_c, 0, 66, 49
4, 78720, Note_on_c, 0, 66, 0
4, 78720, Note_on_c, 0, 62, 0
4, 78720, Note_on_c, 0, 57, 0
4, 78720, Note_on_c, 0, 53, 49
4, 78960, Note_on_c, 0, 53, 0
4, 78960, Note_on_c, 0, 55, 49
4, 78960, Note_on_c, 0, 62, 49
4, 78960, Note_on_c, 0, 65, 49
4, 79200, Note_on_c, 0, 65, 0
4, 79200, Note_on_c, 0, 62, 0
4, 79200, Note_on_c, 0, 55, 0
4, 79200, Note_on_c, 0, 52, 49
4, 79440, Note_on_c, 0, 52, 0
4, 79440, Note_on_c, 0, 55, 49
4, 79440, Note_on_c, 0, 60, 49
4, 79440, Note_on_c, 0, 64, 49
4, 79680, Note_on_c, 0, 64, 0
4, 79680, Note_on_c, 0, 60, 0
4, 79680, Note_on_c, 0, 55, 0
4, 79680, Note_on_c, 0, 51, 49
4, 79920, Note_on_c, 0, 51, 0
4, 79920, Note_on_c, 0, 55, 49
4, 79920, Note_on_c, 0, 60, 49
4, 79920, Note_on_c, 0, 63, 49
4, 80160, Note_on_c, 0, 63, 0
4, 80160, Note_on_c, 0, 60, 0
4, 80160, Note_on_c, 0, 55, 0
4, 80160, Note_on_c, 0, 50, 49
4, 80400, Note_on_c, 0, 50, 0
4, 80400, Note_on_c, 0, 55, 49
4, 80400, Note_on_c, 0, 59, 49
4, 80400, Note_on_c, 0, 62, 49
4, 80640, Note_on_c, 0, 62, 0
4, 80640, Note_on_c, 0, 59, 0
4, 80640, Note_on_c, 0, 55, 0
4, 80640, Note_on_c, 0, 48, 49
4, 80880, Note_on_c, 0, 48, 0
4, 80880, Note_on_c, 0, 52, 49
4, 80880, Note_on_c, 0, 55, 49
4, 80880, Note_on_c, 0, 60, 49
4, 81120, Note_on_c, 0, 60, 0
4, 81120, Note_on_c, 0, 55, 0
4, 81120, Note_on_c, 0, 52, 0
4, 81120, Note_on_c, 0, 47, 49
4, 81360, Note_on_c, 0, 47, 0
4, 81360, Note_on_c, 0, 50, 49
4, 81360, Note_on_c, 0, 55, 49
4, 81360, Note_on_c, 0, 59, 49
4, 81600, Note_on_c, 0, 59, 0
4, 81600, Note_on_c, 0, 55, 0
4, 81600, Note_on_c, 0, 50, 0
4, 81600, Note_on_c, 0, 46, 49
4, 81840, Note_on_c, 0, 46, 0
4, 81840, Note_on_c, 0, 50, 49
4, 81840, Note_on_c, 0, 52, 49
4, 81840, Note_on_c, 0, 58, 49
4, 82080, Note_on_c, 0, 58, 0
4, 82080, Note_on_c, 0, 52, 0
4, 82080, Note_on_c, 0, 50, 0
4, 82080, Note_on_c, 0, 45, 49
4, 82320, Note_on_c, 0, 45, 0
4, 82320, Note_on_c, 0, 50, 49
4, 82320, Note_on_c, 0, 54, 49
4, 82320, Note_on_c, 0, 57, 49
4, 82560, Note_on_c, 0, 57, 0
4, 82560, Note_on_c, 0, 54, 0
4, 82560, Note_on_c, 0, 50, 0
4, 82560, Note_on_c, 0, 43, 49
4, 82800, Note_on_c, 0, 43, 0
4, 82800, Note_on_c, 0, 47, 49
4, 82800, Note_on_c, 0, 50, 49
4, 82800, Note_on_c, 0, 55, 49
4, 83040, Note_on_c, 0, 55, 0
4, 83040, Note_on_c, 0, 50, 0
4, 83040, Note_on_c, 0, 47, 0
4, 83040, Note_on_c, 0, 40, 49
4, 83280, Note_on_c, 0, 40, 0
4, 83280, Note_on_c, 0, 43, 49
4, 83280, Note_on_c, 0, 48, 49
4, 83280, Note_on_c, 0, 52, 49
4, 83520, Note_on_c, 0, 52, 0
4, 83520, Note_on_c, 0, 48, 0
4, 83520, Note_on_c, 0, 43, 0
4, 83520, Note_on_c, 0, 39, 49
4, 83760, Note_on_c, 0, 39, 0
4, 83760, Note_on_c, 0, 43, 49
4, 83760, Note_on_c, 0, 48, 49
4, 83760, Note_on_c, 0, 51, 49
4, 84000, Note_on_c, 0, 51, 0
4, 84000, Note_on_c, 0, 48, 0
4, 84000, Note_on_c, 0, 43, 0
4, 84000, Note_on_c, 0, 38, 49
4, 84240, Note_on_c, 0, 38, 0
4, 84240, Note_on_c, 0, 43, 49
4, 84240, Note_on_c, 0, 47, 49
4, 84240, Note_on_c, 0, 50, 49
4, 84480, Note_on_c, 0, 50, 0
4, 84480, Note_on_c, 0, 47, 0
4, 84480, Note_on_c, 0, 43, 0
4, 84480, Note_on_c, 0, 36, 49
4, 84720, Note_on_c, 0, 36, 0
4, 84720, Note_on_c, 0, 40, 49
4, 84720, Note_on_c, 0, 43, 49
4, 84720, Note_on_c, 0, 48, 49
4, 84960, Note_on_c, 0, 48, 0
4, 84960, Note_on_c, 0, 43, 0
4, 84960, Note_on_c, 0, 40, 0
4, 84960, Note_on_c, 0, 35, 101
4, 85200, Note_on_c, 0, 35, 0
4, 85200, Note_on_c, 0, 47, 101
4, 85200, Note_on_c, 0, 59, 101
4, 85440, Note_on_c, 0, 59, 0
4, 85440, Note_on_c, 0, 47, 0
4, 85920, Note_on_c, 0, 54, 49
4, 86160, Note_on_c, 0, 54, 0
4, 86160, Note_on_c, 0, 57, 49
4, 86160, Note_on_c, 0, 62, 49
4, 86160, Note_on_c, 0, 66, 49
4, 86400, Note_on_c, 0, 66, 0
4, 86400, Note_on_c, 0, 62, 0
4, 86400, Note_on_c, 0, 57, 0
4, 86400, Note_on_c, 0, 53, 49
4, 86640, Note_on_c, 0, 53, 0
4, 86640, Note_on_c, 0, 55, 49
4, 86640, Note_on_c, 0, 62, 49
4, 86640, Note_on_c, 0, 65, 49
4, 86880, Note_on_c, 0, 65, 0
4, 86880, Note_on_c, 0, 62, 0
4, 86880, Note_on_c, 0, 55, 0
4, 86880, Note_on_c, 0, 52, 49
4, 87120, Note_on_c, 0, 52, 0
4, 87120, Note_on_c, 0, 55, 49
4, 87120, Note_on_c, 0, 60, 49
4, 87120, Note_on_c, 0, 64, 49
4, 87360, Note_on_c, 0, 64, 0
4, 87360, Note_on_c, 0, 60, 0
4, 87360, Note_on_c, 0, 55, 0
4, 87360, Note_on_c, 0, 51, 49
4, 87600, Note_on_c, 0, 51, 0
4, 87600, Note_on_c, 0, 55, 49
4, 87600, Note_on_c, 0, 60, 49
4, 87600, Note_on_c, 0, 63, 49
4, 87840, Note_on_c, 0, 63, 0
4, 87840, Note_on_c, 0, 60, 0
4, 87840, Note_on_c, 0, 55, 0
4, 87840, Note_on_c, 0, 50, 49
4, 88080, Note_on_c, 0, 50, 0
4, 88080, Note_on_c, 0, 55, 49
4, 88080, Note_on_c, 0, 59, 49
4, 88080, Note_on_c, 0, 62, 49
4, 88320, Note_on_c, 0, 62, 0
4, 88320, Note_on_c, 0, 59, 0
4, 88320, Note_on_c, 0, 55, 0
4, 88320, Note_on_c, 0, 48, 49
4, 88560, Note_on_c, 0, 48, 0
4, 88560, Note_on_c, 0, 52, 49
4, 88560, Note_on_c, 0, 55, 49
4, 88560, Note_on_c, 0, 60, 49
4, 88800, Note_on_c, 0, 60, 0
4, 88800, Note_on_c, 0, 55, 0
4, 88800, Note_on_c, 0, 52, 0
4, 88800, Note_on_c, 0, 47, 49
4, 89040, Note_on_c, 0, 47, 0
4, 89040, Note_on_c, 0, 50, 49
4, 89040, Note_on_c, 0, 55, 49
4, 89040, Note_on_c, 0, 59, 49
4, 89280, Note_on_c, 0, 59, 0
4, 89280, Note_on_c, 0, 55, 0
4, 89280, Note_on_c, 0, 50, 0
4, 89280, Note_on_c, 0, 46, 88
4, 89280, Note_on_c, 0, 51, 88
4, 89280, Note_on_c, 0, 55, 88
4, 89280, Note_on_c, 0, 58, 88
4, 89520, Note_on_c, 0, 58, 0
4, 89520, Note_on_c, 0, 46, 0
4, 89520, Note_on_c, 0, 51, 0
4, 89520, Note_on_c, 0, 55, 0
4, 89760, Note_on_c, 0, 46, 88
4, 89760, Note_on_c, 0, 53, 88
4, 89760, Note_on_c, 0, 58, 88
4, 90000, Note_on_c, 0, 58, 0
4, 90000, Note_on_c, 0, 53, 0
4, 90000, Note_on_c, 0, 46, 0
4, 90240, Note_on_c, 0, 46, 88
4, 90240, Note_on_c, 0, 51, 88
4, 90240, Note_on_c, 0, 55, 88
4, 90240, Note_on_c, 0, 58, 88
4, 90480, Note_on_c, 0, 58, 0
4, 90480, Note_on_c, 0, 46, 0
4, 90480, Note_on_c, 0, 51, 0
4, 90480, Note_on_c, 0, 55, 0
4, 90720, Note_on_c, 0, 46, 88
4, 90720, Note_on_c, 0, 53, 88
4, 90720, Note_on_c, 0, 58, 88
4, 90960, Note_on_c, 0, 58, 0
4, 90960, Note_on_c, 0, 53, 0
4, 90960, Note_on_c, 0, 46, 0
4, 91200, Note_on_c, 0, 55, 88
4, 91200, Note_on_c, 0, 58, 88
4, 91200, Note_on_c, 0, 67, 88
4, 91440, Note_on_c, 0, 67, 0
4, 91440, Note_on_c, 0, 58, 0
4, 91440, Note_on_c, 0, 55, 0
4, 91680, Note_on_c, 0, 50, 88
4, 91680, Note_on_c, 0, 55, 88
4, 91680, Note_on_c, 0, 58, 88
4, 91680, Note_on_c, 0, 62, 88
4, 91920, Note_on_c, 0, 62, 0
4, 91920, Note_on_c, 0, 50, 0
4, 91920, Note_on_c, 0, 55, 0
4, 91920, Note_on_c, 0, 58, 0
4, 92160, Note_on_c, 0, 50, 88
4, 92160, Note_on_c, 0, 57, 88
4, 92160, Note_on_c, 0, 60, 88
4, 92160, Note_on_c, 0, 62, 88
4, 92400, Note_on_c, 0, 62, 0
4, 92400, Note_on_c, 0, 50, 0
4, 92400, Note_on_c, 0, 57, 0
4, 92400, Note_on_c, 0, 60, 0
4, 92640, Note_on_c, 0, 55, 88
4, 92640, Note_on_c, 0, 59, 88
4, 92640, Note_on_c, 0, 62, 88
4, 92640, Note_on_c, 0, 67, 88
4, 92880, Note_on_c, 0, 67, 0
4, 92880, Note_on_c, 0, 55, 0
4, 92880, Note_on_c, 0, 59, 0
4, 92880, Note_on_c, 0, 62, 0
4, 93120, Note_on_c, 0, 51, 88
4, 93120, Note_on_c, 0, 58, 88
4, 93120, Note_on_c, 0, 63, 88
4, 93360, Note_on_c, 0, 63, 0
4, 93360, Note_on_c, 0, 58, 0
4, 93360, Note_on_c, 0, 51, 0
4, 93600, Note_on_c, 0, 55, 88
4, 93600, Note_on_c, 0, 59, 88
4, 93600, Note_on_c, 0, 62, 88
4, 93600, Note_on_c, 0, 67, 88
4, 93840, Note_on_c, 0, 67, 0
4, 93840, Note_on_c, 0, 55, 0
4, 93840, Note_on_c, 0, 59, 0
4, 93840, Note_on_c, 0, 62, 0
4, 94080, Note_on_c, 0, 51, 88
4, 94080, Note_on_c, 0, 58, 88
4, 94080, Note_on_c, 0, 63, 88
4, 94320, Note_on_c, 0, 63, 0
4, 94320, Note_on_c, 0, 58, 0
4, 94320, Note_on_c, 0, 51, 0
4, 94560, Note_on_c, 0, 55, 88
4, 94560, Note_on_c, 0, 59, 88
4, 94560, Note_on_c, 0, 62, 88
4, 94560, Note_on_c, 0, 67, 88
4, 94800, Note_on_c, 0, 67, 0
4, 94800, Note_on_c, 0, 55, 0
4, 94800, Note_on_c, 0, 59, 0
4, 94800, Note_on_c, 0, 62, 0
4, 95040, Note_on_c, 0, 51, 88
4, 95040, Note_on_c, 0, 58, 88
4, 95040, Note_on_c, 0, 61, 88
4, 95040, Note_on_c, 0, 63, 88
4, 95280, Note_on_c, 0, 63, 0
4, 95280, Note_on_c, 0, 51, 0
4, 95280, Note_on_c, 0, 58, 0
4, 95280, Note_on_c, 0, 61, 0
4, 96000, Note_on_c, 0, 50, 88
4, 96000, Note_on_c, 0, 57, 88
4, 96000, Note_on_c, 0, 60, 88
4, 96000, Note_on_c, 0, 62, 88
4, 96240, Note_on_c, 0, 62, 0
4, 96240, Note_on_c, 0, 50, 0
4, 96240, Note_on_c, 0, 57, 0
4, 96240, Note_on_c, 0, 60, 0
4, 96480, Note_on_c, 0, 55, 88
4, 96480, Note_on_c, 0, 59, 88
4, 96480, Note_on_c, 0, 62, 88
4, 96480, Note_on_c, 0, 67, 88
4, 96720, Note_on_c, 0, 67, 0
4, 96720, Note_on_c, 0, 55, 0
4, 96720, Note_on_c, 0, 59, 0
4, 96720, Note_on_c, 0, 62, 0
4, 96960, Note_on_c, 0, 51, 88
4, 96960, Note_on_c, 0, 58, 88
4, 96960, Note_on_c, 0, 63, 88
4, 97200, Note_on_c, 0, 63, 0
4, 97200, Note_on_c, 0, 58, 0
4, 97200, Note_on_c, 0, 51, 0
4, 97440, Note_on_c, 0, 55, 88
4, 97440, Note_on_c, 0, 59, 88
4, 97440, Note_on_c, 0, 62, 88
4, 97440, Note_on_c, 0, 67, 88
4, 97680, Note_on_c, 0, 67, 0
4, 97680, Note_on_c, 0, 55, 0
4, 97680, Note_on_c, 0, 59, 0
4, 97680, Note_on_c, 0, 62, 0
4, 97920, Note_on_c, 0, 51, 88
4, 97920, Note_on_c, 0, 58, 88
4, 97920, Note_on_c, 0, 63, 88
4, 98160, Note_on_c, 0, 63, 0
4, 98160, Note_on_c, 0, 58, 0
4, 98160, Note_on_c, 0, 51, 0
4, 98400, Note_on_c, 0, 55, 88
4, 98400, Note_on_c, 0, 59, 88
4, 98400, Note_on_c, 0, 62, 88
4, 98400, Note_on_c, 0, 67, 88
4, 98640, Note_on_c, 0, 67, 0
4, 98640, Note_on_c, 0, 55, 0
4, 98640, Note_on_c, 0, 59, 0
4, 98640, Note_on_c, 0, 62, 0
4, 98880, Note_on_c, 0, 51, 88
4, 98880, Note_on_c, 0, 58, 88
4, 98880, Note_on_c, 0, 61, 88
4, 98880, Note_on_c, 0, 63, 88
4, 99120, Note_on_c, 0, 63, 0
4, 99120, Note_on_c, 0, 51, 0
4, 99120, Note_on_c, 0, 58, 0
4, 99120, Note_on_c, 0, 61, 0
4, 99840, Note_on_c, 0, 50, 88
4, 99840, Note_on_c, 0, 57, 88
4, 99840, Note_on_c, 0, 60, 88
4, 99840, Note_on_c, 0, 62, 88
4, 100080, Note_on_c, 0, 62, 0
4, 100080, Note_on_c, 0, 50, 0
4, 100080, Note_on_c, 0, 57, 0
4, 100080, Note_on_c, 0, 60, 0
4, 100320, Note_on_c, 0, 55, 88
4, 100320, Note_on_c, 0, 59, 88
4, 100320, Note_on_c, 0, 62, 88
4, 100560, Note_on_c, 0, 62, 0
4, 100560, Note_on_c, 0, 59, 0
4, 100560, Note_on_c, 0, 55, 0
4, 100560, Note_on_c, 0, 55, 88
4, 100560, Note_on_c, 0, 59, 88
4, 100560, Note_on_c, 0, 62, 88
4, 100800, Note_on_c, 0, 62, 0
4, 100800, Note_on_c, 0, 59, 0
4, 100800, Note_on_c, 0, 55, 0
4, 101280, Note_on_c, 0, 55, 88
4, 101280, Note_on_c, 0, 59, 88
4, 101280, Note_on_c, 0, 62, 88
4, 101520, Note_on_c, 0, 62, 0
4, 101520, Note_on_c, 0, 59, 0
4, 101520, Note_on_c, 0, 55, 0
4, 101520, Note_on_c, 0, 55, 88
4, 101520, Note_on_c, 0, 59, 88
4, 101520, Note_on_c, 0, 62, 88
4, 101760, Note_on_c, 0, 62, 0
4, 101760, Note_on_c, 0, 59, 0
4, 101760, Note_on_c, 0, 55, 0
4, 102240, Note_on_c, 0, 55, 88
4, 102240, Note_on_c, 0, 59, 88
4, 102240, Note_on_c, 0, 62, 88
4, 102480, Note_on_c, 0, 62, 0
4, 102480, Note_on_c, 0, 59, 0
4, 102480, Note_on_c, 0, 55, 0
4, 102480, Note_on_c, 0, 55, 88
4, 102480, Note_on_c, 0, 59, 88
4, 102480, Note_on_c, 0, 62, 88
4, 102720, Note_on_c, 0, 62, 0
4, 102720, Note_on_c, 0, 59, 0
4, 102720, Note_on_c, 0, 55, 0
4, 103200, Note_on_c, 0, 55, 88
4, 103200, Note_on_c, 0, 59, 88
4, 103200, Note_on_c, 0, 62, 88
4, 103359, Note_on_c, 0, 62, 0
4, 103359, Note_on_c, 0, 59, 0
4, 103359, Note_on_c, 0, 55, 0
4, 103359, Note_on_c, 0, 55, 88
4, 103391, Note_on_c, 0, 55, 0
4, 103520, Note_on_c, 0, 59, 88
4, 103552, Note_on_c, 0, 59, 0
4, 104160, Note_on_c, 0, 55, 88
4, 104160, Note_on_c, 0, 59, 88
4, 104160, Note_on_c, 0, 62, 88
4, 104319, Note_on_c, 0, 62, 0
4, 104319, Note_on_c, 0, 59, 0
4, 104319, Note_on_c, 0, 55, 0
4, 104319, Note_on_c, 0, 59, 88
4, 104351, Note_on_c, 0, 59, 0
4, 104480, Note_on_c, 0, 62, 88
4, 104512, Note_on_c, 0, 62, 0
4, 105120, Note_on_c, 0, 55, 88
4, 105120, Note_on_c, 0, 59, 88
4, 105120, Note_on_c, 0, 62, 88
4, 105279, Note_on_c, 0, 62, 0
4, 105279, Note_on_c, 0, 59, 0
4, 105279, Note_on_c, 0, 55, 0
4, 105279, Note_on_c, 0, 62, 88
4, 105311, Note_on_c, 0, 62, 0
4, 105440, Note_on_c, 0, 67, 88
4, 105472, Note_on_c, 0, 67, 0
4, 106080, Note_on_c, 0, 55, 88
4, 106080, Note_on_c, 0, 59, 88
4, 106080, Note_on_c, 0, 62, 88
4, 106080, Note_on_c, 0, 67, 88
4, 106127, Note_on_c, 0, 67, 0
4, 106127, Note_on_c, 0, 55, 0
4, 106127, Note_on_c, 0, 59, 0
4, 106127, Note_on_c, 0, 62, 0
4, 106560, Note_on_c, 0, 50, 88
4, 106560, Note_on_c, 0, 57, 88
4, 106560, Note_on_c, 0, 62, 88
4, 106607, Note_on_c, 0, 62, 0
4, 106607, Note_on_c, 0, 57, 0
4, 106607, Note_on_c, 0, 50, 0
4, 107040, Note_on_c, 0, 55, 88
4, 107040, Note_on_c, 0, 59, 88
4, 107040, Note_on_c, 0, 62, 88
4, 107136, Note_on_c, 0, 62, 0
4, 107136, Note_on_c, 0, 59, 0
4, 107136, Note_on_c, 0, 55, 0
4, 107136, End_track
5, 0, Start_track
5, 0, Title_t, "Grand Piano"
5, 0, Program_c, 0, 0
5, 0, Control_c, 0, 7, 115
5, 0, Control_c, 0, 10, 47
5, 0, Note_on_c, 0, 55, 88
5, 240, Note_on_c, 0, 55, 0
5, 240, Note_on_c, 0, 51, 88
5, 480, Note_on_c, 0, 51, 0
5, 480, Note_on_c, 0, 57, 88
5, 720, Note_on_c, 0, 57, 0
5, 720, Note_on_c, 0, 51, 88
5, 960, Note_on_c, 0, 51, 0
5, 960, Note_on_c, 0, 58, 88
5, 1200, Note_on_c, 0, 58, 0
5, 1200, Note_on_c, 0, 51, 88
5, 1440, Note_on_c, 0, 51, 0
5, 17280, Note_on_c, 0, 50, 49
5, 17327, Note_on_c, 0, 50, 0
5, 17760, Note_on_c, 0, 52, 49
5, 17807, Note_on_c, 0, 52, 0
5, 18000, Note_on_c, 0, 54, 49
5, 18047, Note_on_c, 0, 54, 0
5, 18480, Note_on_c, 0, 55, 49
5, 18527, Note_on_c, 0, 55, 0
5, 18720, Note_on_c, 0, 43, 49
5, 18767, Note_on_c, 0, 43, 0
5, 19200, Note_on_c, 0, 59, 49
5, 19247, Note_on_c, 0, 59, 0
5, 19440, Note_on_c, 0, 47, 49
5, 19487, Note_on_c, 0, 47, 0
5, 20160, Note_on_c, 0, 50, 49
5, 20207, Note_on_c, 0, 50, 0
5, 20640, Note_on_c, 0, 52, 49
5, 20687, Note_on_c, 0, 52, 0
5, 20880, Note_on_c, 0, 54, 49
5, 20927, Note_on_c, 0, 54, 0
5, 21360, Note_on_c, 0, 55, 49
5, 21360, Note_on_c, 0, 57, 49
5, 21407, Note_on_c, 0, 57, 0
5, 21407, Note_on_c, 0, 55, 0
5, 21600, Note_on_c, 0, 55, 49
5, 21600, Note_on_c, 0, 58, 49
5, 21647, Note_on_c, 0, 58, 0
5, 21647, Note_on_c, 0, 55, 0
5, 22080, Note_on_c, 0, 50, 49
5, 22080, Note_on_c, 0, 59, 49
5, 22127, Note_on_c, 0, 59, 0
5, 22127, Note_on_c, 0, 50, 0
5, 22320, Note_on_c, 0, 47, 49
5, 22320, Note_on_c, 0, 55, 49
5, 22367, Note_on_c, 0, 55, 0
5, 22367, Note_on_c, 0, 47, 0
5, 23040, Note_on_c, 0, 50, 49
5, 23087, Note_on_c, 0, 50, 0
5, 23520, Note_on_c, 0, 52, 49
5, 23567, Note_on_c, 0, 52, 0
5, 23760, Note_on_c, 0, 54, 49
5, 23807, Note_on_c, 0, 54, 0
5, 24240, Note_on_c, 0, 55, 49
5, 24287, Note_on_c, 0, 55, 0
5, 24480, Note_on_c, 0, 43, 49
5, 24527, Note_on_c, 0, 43, 0
5, 24960, Note_on_c, 0, 59, 49
5, 25007, Note_on_c, 0, 59, 0
5, 25200, Note_on_c, 0, 47, 49
5, 25247, Note_on_c, 0, 47, 0
5, 25680, Note_on_c, 0, 57, 49
5, 25727, Note_on_c, 0, 57, 0
5, 25920, Note_on_c, 0, 45, 49
5, 25967, Note_on_c, 0, 45, 0
5, 26400, Note_on_c, 0, 57, 49
5, 26447, Note_on_c, 0, 57, 0
5, 26640, Note_on_c, 0, 45, 49
5, 26687, Note_on_c, 0, 45, 0
5, 41280, Note_on_c, 0, 52, 75
5, 41520, Note_on_c, 0, 52, 0
5, 41520, Note_on_c, 0, 53, 75
5, 41760, Note_on_c, 0, 53, 0
5, 45120, Note_on_c, 0, 52, 75
5, 45360, Note_on_c, 0, 52, 0
5, 45360, Note_on_c, 0, 53, 75
5, 45600, Note_on_c, 0, 53, 0
5, 48960, Note_on_c, 0, 52, 75
5, 49200, Note_on_c, 0, 52, 0
5, 49200, Note_on_c, 0, 53, 75
5, 49440, Note_on_c, 0, 53, 0
5, 52800, Note_on_c, 0, 50, 75
5, 52800, Note_on_c, 0, 57, 75
5, 53280, Note_on_c, 0, 57, 0
5, 53280, Note_on_c, 0, 50, 0
5, 55200, Note_on_c, 0, 50, 62
5, 55200, Note_on_c, 0, 54, 62
5, 55223, Note_on_c, 0, 54, 0
5, 55223, Note_on_c, 0, 50, 0
5, 55920, Note_on_c, 0, 55, 62
5, 55920, Note_on_c, 0, 59, 62
5, 55943, Note_on_c, 0, 59, 0
5, 55943, Note_on_c, 0, 55, 0
5, 56640, Note_on_c, 0, 50, 62
5, 56640, Note_on_c, 0, 55, 62
5, 56640, Note_on_c, 0, 59, 62
5, 56663, Note_on_c, 0, 59, 0
5, 56663, Note_on_c, 0, 55, 0
5, 56663, Note_on_c, 0, 50, 0
5, 57360, Note_on_c, 0, 54, 62
5, 57360, Note_on_c, 0, 57, 62
5, 57360, Note_on_c, 0, 60, 62
5, 57383, Note_on_c, 0, 60, 0
5, 57383, Note_on_c, 0, 57, 0
5, 57383, Note_on_c, 0, 54, 0
5, 60960, Note_on_c, 0, 50, 62
5, 60960, Note_on_c, 0, 54, 62
5, 60983, Note_on_c, 0, 54, 0
5, 60983, Note_on_c, 0, 50, 0
5, 61680, Note_on_c, 0, 55, 62
5, 61680, Note_on_c, 0, 59, 62
5, 61703, Note_on_c, 0, 59, 0
5, 61703, Note_on_c, 0, 55, 0
5, 62400, Note_on_c, 0, 50, 62
5, 62400, Note_on_c, 0, 55, 62
5, 62400, Note_on_c, 0, 59, 62
5, 62423, Note_on_c, 0, 59, 0
5, 62423, Note_on_c, 0, 55, 0
5, 62423, Note_on_c, 0, 50, 0
5, 63120, Note_on_c, 0, 54, 62
5, 63120, Note_on_c, 0, 57, 62
5, 63143, Note_on_c, 0, 57, 0
5, 63143, Note_on_c, 0, 54, 0
5, 66720, Note_on_c, 0, 50, 62
5, 66720, Note_on_c, 0, 54, 62
5, 66743, Note_on_c, 0, 54, 0
5, 66743, Note_on_c, 0, 50, 0
5, 67440, Note_on_c, 0, 55, 62
5, 67440, Note_on_c, 0, 59, 62
5, 67463, Note_on_c, 0, 59, 0
5, 67463, Note_on_c, 0, 55, 0
5, 68160, Note_on_c, 0, 50, 62
5, 68160, Note_on_c, 0, 55, 62
5, 68160, Note_on_c, 0, 59, 62
5, 68183, Note_on_c, 0, 59, 0
5, 68183, Note_on_c, 0, 55, 0
5, 68183, Note_on_c, 0, 50, 0
5, 68880, Note_on_c, 0, 54, 62
5, 68880, Note_on_c, 0, 57, 62
5, 68880, Note_on_c, 0, 60, 62
5, 68903, Note_on_c, 0, 60, 0
5, 68903, Note_on_c, 0, 57, 0
5, 68903, Note_on_c, 0, 54, 0
5, 72480, Note_on_c, 0, 50, 62
5, 72480, Note_on_c, 0, 54, 62
5, 72503, Note_on_c, 0, 54, 0
5, 72503, Note_on_c, 0, 50, 0
5, 73200, Note_on_c, 0, 55, 62
5, 73200, Note_on_c, 0, 59, 62
5, 73223, Note_on_c, 0, 59, 0
5, 73223, Note_on_c, 0, 55, 0
5, 73920, Note_on_c, 0, 50, 62
5, 73920, Note_on_c, 0, 55, 62
5, 73920, Note_on_c, 0, 59, 62
5, 73943, Note_on_c, 0, 59, 0
5, 73943, Note_on_c, 0, 55, 0
5, 73943, Note_on_c, 0, 50, 0
5, 74640, Note_on_c, 0, 54, 62
5, 74640, Note_on_c, 0, 57, 62
5, 74663, Note_on_c, 0, 57, 0
5, 74663, Note_on_c, 0, 54, 0
5, 74663, End_track
0, 0, End_of_file
