0, 0, Header, 1, 5, 480
1, 0, Start_track
1, 0, Title_t, "tchaikovsky sleeping beauty act2 12 scene"
1, 0, Copyright_t, "Adaptation for Disklavier pianos, by: Robert C. Kuhmann (c) 2012."
1, 0, Text_t, "Seq. (c) by: Segundo G. Yogore,  2006\012"
1, 0, Time_signature, 4, 2, 24, 8
1, 0, Key_signature, 0, "major"
1, 0, Tempo, 600000
1, 7680, Tempo, 600000
1, 30720, Time_signature, 8, 2, 24, 8
1, 30720, End_track
2, 0, Start_track
2, 0, Title_t, "Grand Piano"
2, 0, Program_c, 0, 0
2, 0, Control_c, 0, 7, 115
2, 0, Control_c, 0, 10, 86
2, 0, Note_on_c, 0, 60, 88
2, 720, Note_on_c, 0, 60, 0
2, 720, Note_on_c, 0, 62, 88
2, 800, Note_on_c, 0, 62, 0
2, 800, Note_on_c, 0, 60, 88
2, 879, Note_on_c, 0, 60, 0
2, 879, Note_on_c, 0, 59, 88
2, 960, Note_on_c, 0, 59, 0
2, 960, Note_on_c, 0, 60, 88
2, 1320, Note_on_c, 0, 60, 0
2, 1320, Note_on_c, 0, 57, 88
2, 1440, Note_on_c, 0, 57, 0
2, 1440, Note_on_c, 0, 59, 88
2, 1800, Note_on_c, 0, 59, 0
2, 1800, Note_on_c, 0, 60, 88
2, 1920, Note_on_c, 0, 60, 0
2, 1920, Note_on_c, 0, 62, 88
2, 2880, Note_on_c, 0, 62, 0
2, 2880, Note_on_c, 0, 64, 88
2, 3240, Note_on_c, 0, 64, 0
2, 3240, Note_on_c, 0, 60, 88
2, 3360, Note_on_c, 0, 60, 0
2, 3360, Note_on_c, 0, 62, 88
2, 3720, Note_on_c, 0, 62, 0
2, 3720, Note_on_c, 0, 64, 88
2, 3840, Note_on_c, 0, 64, 0
2, 3840, Note_on_c, 0, 62, 88
2, 3840, Note_on_c, 0, 65, 88
2, 4800, Note_on_c, 0, 62, 0
2, 4959, Note_on_c, 0, 65, 0
2, 4959, Note_on_c, 0, 67, 88
2, 5120, Note_on_c, 0, 67, 0
2, 5120, Note_on_c, 0, 65, 88
2, 5280, Note_on_c, 0, 65, 0
2, 5280, Note_on_c, 0, 69, 88
2, 5439, Note_on_c, 0, 69, 0
2, 5439, Note_on_c, 0, 67, 88
2, 5600, Note_on_c, 0, 67, 0
2, 5600, Note_on_c, 0, 65, 88
2, 5632, Note_on_c, 0, 65, 0
2, 5760, Note_on_c, 0, 64, 88
2, 5919, Note_on_c, 0, 64, 0
2, 5919, Note_on_c, 0, 67, 88
2, 6080, Note_on_c, 0, 67, 0
2, 6080, Note_on_c, 0, 71, 88
2, 6112, Note_on_c, 0, 71, 0
2, 6240, Note_on_c, 0, 72, 88
2, 6399, Note_on_c, 0, 72, 0
2, 6399, Note_on_c, 0, 67, 88
2, 6560, Note_on_c, 0, 67, 0
2, 6560, Note_on_c, 0, 64, 88
2, 6592, Note_on_c, 0, 64, 0
2, 6720, Note_on_c, 0, 61, 88
2, 6879, Note_on_c, 0, 61, 0
2, 6879, Note_on_c, 0, 64, 88
2, 7040, Note_on_c, 0, 64, 0
2, 7040, Note_on_c, 0, 62, 88
2, 7072, Note_on_c, 0, 62, 0
2, 7200, Note_on_c, 0, 58, 88
2, 7359, Note_on_c, 0, 58, 0
2, 7359, Note_on_c, 0, 60, 88
2, 7520, Note_on_c, 0, 60, 0
2, 7520, Note_on_c, 0, 59, 88
2, 7552, Note_on_c, 0, 59, 0
2, 7680, Note_on_c, 0, 60, 88
2, 8400, Note_on_c, 0, 60, 0
2, 8400, Note_on_c, 0, 62, 88
2, 8480, Note_on_c, 0, 62, 0
2, 8480, Note_on_c, 0, 60, 88
2, 8559, Note_on_c, 0, 60, 0
2, 8559, Note_on_c, 0, 59, 88
2, 8640, Note_on_c, 0, 59, 0
2, 8640, Note_on_c, 0, 60, 88
2, 9000, Note_on_c, 0, 60, 0
2, 9000, Note_on_c, 0, 57, 88
2, 9120, Note_on_c, 0, 57, 0
2, 9120, Note_on_c, 0, 59, 88
2, 9480, Note_on_c, 0, 59, 0
2, 9480, Note_on_c, 0, 60, 88
2, 9600, Note_on_c, 0, 60, 0
2, 9600, Note_on_c, 0, 62, 88
2, 10320, Note_on_c, 0, 62, 0
2, 10320, Note_on_c, 0, 63, 88
2, 10560, Note_on_c, 0, 63, 0
2, 10560, Note_on_c, 0, 64, 88
2, 10920, Note_on_c, 0, 64, 0
2, 10920, Note_on_c, 0, 59, 88
2, 11040, Note_on_c, 0, 59, 0
2, 11040, Note_on_c, 0, 60, 101
2, 11400, Note_on_c, 0, 60, 0
2, 11400, Note_on_c, 0, 62, 101
2, 11520, Note_on_c, 0, 62, 0
2, 11520, Note_on_c, 0, 64, 101
2, 12240, Note_on_c, 0, 64, 0
2, 12240, Note_on_c, 0, 66, 101
2, 12480, Note_on_c, 0, 66, 0
2, 12480, Note_on_c, 0, 69, 127
2, 12720, Note_on_c, 0, 69, 0
2, 12720, Note_on_c, 0, 67, 101
2, 12960, Note_on_c, 0, 67, 0
2, 12960, Note_on_c, 0, 64, 101
2, 13200, Note_on_c, 0, 64, 0
2, 13200, Note_on_c, 0, 60, 101
2, 13440, Note_on_c, 0, 60, 0
2, 13440, Note_on_c, 0, 64, 127
2, 14160, Note_on_c, 0, 64, 0
2, 14160, Note_on_c, 0, 59, 101
2, 14400, Note_on_c, 0, 59, 0
2, 14400, Note_on_c, 0, 62, 127
2, 15120, Note_on_c, 0, 62, 0
2, 15120, Note_on_c, 0, 60, 101
2, 15360, Note_on_c, 0, 60, 0
2, 15360, Note_on_c, 0, 64, 88
2, 16080, Note_on_c, 0, 64, 0
2, 16080, Note_on_c, 0, 66, 88
2, 16160, Note_on_c, 0, 66, 0
2, 16160, Note_on_c, 0, 64, 88
2, 16239, Note_on_c, 0, 64, 0
2, 16239, Note_on_c, 0, 63, 88
2, 16320, Note_on_c, 0, 63, 0
2, 16320, Note_on_c, 0, 64, 88
2, 16680, Note_on_c, 0, 64, 0
2, 16680, Note_on_c, 0, 66, 88
2, 16800, Note_on_c, 0, 66, 0
2, 16800, Note_on_c, 0, 64, 88
2, 16800, Note_on_c, 0, 67, 88
2, 17160, Note_on_c, 0, 67, 0
2, 17160, Note_on_c, 0, 64, 0
2, 17160, Note_on_c, 0, 69, 88
2, 17280, Note_on_c, 0, 69, 0
2, 17280, Note_on_c, 0, 71, 88
2, 17520, Note_on_c, 0, 71, 0
2, 17520, Note_on_c, 0, 67, 101
2, 17600, Note_on_c, 0, 67, 0
2, 17600, Note_on_c, 0, 69, 101
2, 17679, Note_on_c, 0, 69, 0
2, 17679, Note_on_c, 0, 71, 101
2, 17760, Note_on_c, 0, 71, 0
2, 17760, Note_on_c, 0, 74, 127
2, 18120, Note_on_c, 0, 74, 0
2, 18120, Note_on_c, 0, 72, 101
2, 18240, Note_on_c, 0, 72, 0
2, 18240, Note_on_c, 0, 71, 127
2, 18720, Note_on_c, 0, 71, 0
2, 18720, Note_on_c, 0, 64, 101
2, 18960, Note_on_c, 0, 64, 0
2, 19200, Note_on_c, 0, 67, 101
2, 19920, Note_on_c, 0, 67, 0
2, 19920, Note_on_c, 0, 69, 88
2, 20000, Note_on_c, 0, 69, 0
2, 20000, Note_on_c, 0, 67, 88
2, 20079, Note_on_c, 0, 67, 0
2, 20079, Note_on_c, 0, 66, 88
2, 20160, Note_on_c, 0, 66, 0
2, 20160, Note_on_c, 0, 67, 88
2, 20520, Note_on_c, 0, 67, 0
2, 20520, Note_on_c, 0, 69, 88
2, 20640, Note_on_c, 0, 69, 0
2, 20640, Note_on_c, 0, 67, 88
2, 20640, Note_on_c, 0, 71, 88
2, 21000, Note_on_c, 0, 71, 0
2, 21000, Note_on_c, 0, 67, 0
2, 21000, Note_on_c, 0, 72, 88
2, 21120, Note_on_c, 0, 72, 0
2, 21120, Note_on_c, 0, 74, 88
2, 21360, Note_on_c, 0, 74, 0
2, 21360, Note_on_c, 0, 71, 88
2, 21440, Note_on_c, 0, 71, 0
2, 21440, Note_on_c, 0, 72, 88
2, 21519, Note_on_c, 0, 72, 0
2, 21519, Note_on_c, 0, 74, 88
2, 21600, Note_on_c, 0, 74, 0
2, 21600, Note_on_c, 0, 78, 127
2, 21960, Note_on_c, 0, 78, 0
2, 21960, Note_on_c, 0, 76, 101
2, 22080, Note_on_c, 0, 76, 0
2, 22080, Note_on_c, 0, 74, 127
2, 22560, Note_on_c, 0, 74, 0
2, 22560, Note_on_c, 0, 67, 101
2, 22800, Note_on_c, 0, 67, 0
2, 23040, Note_on_c, 0, 71, 101
2, 23880, Note_on_c, 0, 71, 0
2, 23880, Note_on_c, 0, 73, 101
2, 23919, Note_on_c, 0, 73, 0
2, 23919, Note_on_c, 0, 71, 101
2, 23960, Note_on_c, 0, 71, 0
2, 23960, Note_on_c, 0, 70, 101
2, 24000, Note_on_c, 0, 70, 0
2, 24000, Note_on_c, 0, 71, 101
2, 24840, Note_on_c, 0, 71, 0
2, 24840, Note_on_c, 0, 73, 101
2, 24879, Note_on_c, 0, 73, 0
2, 24879, Note_on_c, 0, 71, 101
2, 24920, Note_on_c, 0, 71, 0
2, 24920, Note_on_c, 0, 70, 101
2, 24960, Note_on_c, 0, 70, 0
2, 24960, Note_on_c, 0, 71, 101
2, 25140, Note_on_c, 0, 71, 0
2, 25140, Note_on_c, 0, 73, 101
2, 25200, Note_on_c, 0, 73, 0
2, 25200, Note_on_c, 0, 74, 101
2, 25380, Note_on_c, 0, 74, 0
2, 25380, Note_on_c, 0, 73, 101
2, 25440, Note_on_c, 0, 73, 0
2, 25440, Note_on_c, 0, 76, 101
2, 25620, Note_on_c, 0, 76, 0
2, 25620, Note_on_c, 0, 74, 101
2, 25680, Note_on_c, 0, 74, 0
2, 25680, Note_on_c, 0, 73, 101
2, 25860, Note_on_c, 0, 73, 0
2, 25860, Note_on_c, 0, 74, 101
2, 25920, Note_on_c, 0, 74, 0
2, 25920, Note_on_c, 0, 71, 101
2, 26100, Note_on_c, 0, 71, 0
2, 26100, Note_on_c, 0, 73, 101
2, 26160, Note_on_c, 0, 73, 0
2, 26160, Note_on_c, 0, 74, 101
2, 26340, Note_on_c, 0, 74, 0
2, 26340, Note_on_c, 0, 73, 101
2, 26400, Note_on_c, 0, 73, 0
2, 26400, Note_on_c, 0, 76, 101
2, 26580, Note_on_c, 0, 76, 0
2, 26580, Note_on_c, 0, 74, 101
2, 26640, Note_on_c, 0, 74, 0
2, 26640, Note_on_c, 0, 73, 101
2, 26820, Note_on_c, 0, 73, 0
2, 26820, Note_on_c, 0, 74, 101
2, 26880, Note_on_c, 0, 74, 0
2, 26880, Note_on_c, 0, 71, 101
2, 27060, Note_on_c, 0, 71, 0
2, 27060, Note_on_c, 0, 73, 101
2, 27120, Note_on_c, 0, 73, 0
2, 27120, Note_on_c, 0, 74, 101
2, 27300, Note_on_c, 0, 74, 0
2, 27300, Note_on_c, 0, 78, 101
2, 27360, Note_on_c, 0, 78, 0
2, 27360, Note_on_c, 0, 79, 101
2, 27540, Note_on_c, 0, 79, 0
2, 27540, Note_on_c, 0, 73, 101
2, 27600, Note_on_c, 0, 73, 0
2, 27600, Note_on_c, 0, 74, 101
2, 27780, Note_on_c, 0, 74, 0
2, 27780, Note_on_c, 0, 78, 101
2, 27840, Note_on_c, 0, 78, 0
2, 27840, Note_on_c, 0, 79, 101
2, 28020, Note_on_c, 0, 79, 0
2, 28020, Note_on_c, 0, 78, 101
2, 28080, Note_on_c, 0, 78, 0
2, 28080, Note_on_c, 0, 79, 101
2, 28260, Note_on_c, 0, 79, 0
2, 28260, Note_on_c, 0, 82, 101
2, 28320, Note_on_c, 0, 82, 0
2, 28320, Note_on_c, 0, 83, 101
2, 28500, Note_on_c, 0, 83, 0
2, 28500, Note_on_c, 0, 78, 101
2, 28560, Note_on_c, 0, 78, 0
2, 28560, Note_on_c, 0, 79, 101
2, 28740, Note_on_c, 0, 79, 0
2, 28740, Note_on_c, 0, 82, 101
2, 28800, Note_on_c, 0, 82, 0
2, 28800, Note_on_c, 0, 83, 101
2, 28980, Note_on_c, 0, 83, 0
2, 28980, Note_on_c, 0, 82, 101
2, 29040, Note_on_c, 0, 82, 0
2, 29040, Note_on_c, 0, 83, 101
2, 29220, Note_on_c, 0, 83, 0
2, 29220, Note_on_c, 0, 85, 101
2, 29280, Note_on_c, 0, 85, 0
2, 29280, Note_on_c, 0, 86, 101
2, 29460, Note_on_c, 0, 86, 0
2, 29460, Note_on_c, 0, 82, 101
2, 29520, Note_on_c, 0, 82, 0
2, 29520, Note_on_c, 0, 83, 101
2, 29700, Note_on_c, 0, 83, 0
2, 29700, Note_on_c, 0, 85, 101
2, 29760, Note_on_c, 0, 85, 0
2, 29760, Note_on_c, 0, 86, 101
2, 29940, Note_on_c, 0, 86, 0
2, 29940, Note_on_c, 0, 85, 101
2, 30000, Note_on_c, 0, 85, 0
2, 30000, Note_on_c, 0, 86, 101
2, 30180, Note_on_c, 0, 86, 0
2, 30180, Note_on_c, 0, 88, 101
2, 30240, Note_on_c, 0, 88, 0
2, 30240, Note_on_c, 0, 78, 127
2, 30240, Note_on_c, 0, 90, 127
2, 30480, Note_on_c, 0, 90, 0
2, 30480, Note_on_c, 0, 78, 0
2, 30480, Note_on_c, 0, 78, 101
2, 30720, Note_on_c, 0, 78, 0
2, 31440, Note_on_c, 0, 70, 101
2, 31440, Note_on_c, 0, 76, 101
2, 31440, Note_on_c, 0, 78, 101
2, 31680, Note_on_c, 0, 78, 0
2, 31680, Note_on_c, 0, 76, 0
2, 31680, Note_on_c, 0, 70, 0
2, 31680, Note_on_c, 0, 71, 101
2, 31680, Note_on_c, 0, 74, 101
2, 31680, Note_on_c, 0, 83, 101
2, 31920, Note_on_c, 0, 83, 0
2, 31920, Note_on_c, 0, 74, 0
2, 31920, Note_on_c, 0, 71, 0
2, 31920, Note_on_c, 0, 62, 127
2, 31920, Note_on_c, 0, 66, 127
2, 31920, Note_on_c, 0, 71, 127
2, 32400, Note_on_c, 0, 71, 0
2, 32400, Note_on_c, 0, 66, 0
2, 32400, Note_on_c, 0, 62, 0
2, 32400, Control_c, 0, 64, 127
2, 34320, Control_c, 0, 64, 0
2, 34320, End_track
3, 0, Start_track
3, 0, Title_t, "Grand Piano"
3, 0, Program_c, 0, 0
3, 0, Control_c, 0, 7, 115
3, 0, Control_c, 0, 10, 79
3, 480, Note_on_c, 0, 55, 75
3, 960, Note_on_c, 0, 55, 0
3, 960, Note_on_c, 0, 57, 75
3, 1920, Note_on_c, 0, 57, 0
3, 2400, Note_on_c, 0, 56, 75
3, 2400, Note_on_c, 0, 59, 75
3, 2880, Note_on_c, 0, 59, 0
3, 2880, Note_on_c, 0, 56, 0
3, 2880, Note_on_c, 0, 55, 75
3, 2880, Note_on_c, 0, 60, 75
3, 3840, Note_on_c, 0, 60, 0
3, 3840, Note_on_c, 0, 55, 0
3, 3840, Note_on_c, 0, 57, 75
3, 4320, Note_on_c, 0, 57, 0
3, 4320, Note_on_c, 0, 56, 75
3, 4800, Note_on_c, 0, 56, 0
3, 4800, Note_on_c, 0, 55, 75
3, 4800, Note_on_c, 0, 62, 75
3, 5760, Note_on_c, 0, 62, 0
3, 5760, Note_on_c, 0, 55, 0
3, 5760, Note_on_c, 0, 60, 75
3, 6000, Note_on_c, 0, 60, 0
3, 6240, Note_on_c, 0, 60, 75
3, 6480, Note_on_c, 0, 60, 0
3, 6720, Note_on_c, 0, 59, 75
3, 7200, Note_on_c, 0, 59, 0
3, 7200, Note_on_c, 0, 53, 75
3, 7680, Note_on_c, 0, 53, 0
3, 8160, Note_on_c, 0, 55, 75
3, 8640, Note_on_c, 0, 55, 0
3, 8640, Note_on_c, 0, 57, 75
3, 9600, Note_on_c, 0, 57, 0
3, 10080, Note_on_c, 0, 57, 75
3, 10080, Note_on_c, 0, 59, 75
3, 10560, Note_on_c, 0, 59, 0
3, 10560, Note_on_c, 0, 57, 0
3, 10560, Note_on_c, 0, 56, 75
3, 10560, Note_on_c, 0, 59, 75
3, 11040, Note_on_c, 0, 59, 0
3, 11040, Note_on_c, 0, 56, 0
3, 11520, Note_on_c, 0, 60, 88
3, 12480, Note_on_c, 0, 60, 0
3, 12480, Note_on_c, 0, 60, 88
3, 12480, Note_on_c, 0, 64, 88
3, 12720, Note_on_c, 0, 64, 0
3, 12720, Note_on_c, 0, 60, 0
3, 13440, Note_on_c, 0, 58, 88
3, 13680, Note_on_c, 0, 58, 0
3, 13920, Note_on_c, 0, 53, 88
3, 13920, Note_on_c, 0, 59, 88
3, 14160, Note_on_c, 0, 59, 0
3, 14160, Note_on_c, 0, 53, 0
3, 14880, Note_on_c, 0, 52, 88
3, 14880, Note_on_c, 0, 55, 88
3, 15360, Note_on_c, 0, 55, 0
3, 15360, Note_on_c, 0, 52, 0
3, 15840, Note_on_c, 0, 58, 75
3, 16320, Note_on_c, 0, 58, 0
3, 16320, Note_on_c, 0, 59, 75
3, 16560, Note_on_c, 0, 59, 0
3, 16560, Note_on_c, 0, 60, 75
3, 16800, Note_on_c, 0, 60, 0
3, 16800, Note_on_c, 0, 60, 75
3, 17040, Note_on_c, 0, 60, 0
3, 17040, Note_on_c, 0, 57, 75
3, 17280, Note_on_c, 0, 57, 0
3, 17280, Note_on_c, 0, 59, 75
3, 17280, Note_on_c, 0, 64, 75
3, 18240, Note_on_c, 0, 64, 0
3, 18240, Note_on_c, 0, 59, 0
3, 18240, Note_on_c, 0, 64, 88
3, 18600, Note_on_c, 0, 64, 0
3, 18600, Note_on_c, 0, 62, 88
3, 18720, Note_on_c, 0, 62, 0
3, 18720, Note_on_c, 0, 62, 88
3, 18960, Note_on_c, 0, 62, 0
3, 18960, Note_on_c, 0, 61, 88
3, 19200, Note_on_c, 0, 61, 0
3, 19680, Note_on_c, 0, 61, 75
3, 20160, Note_on_c, 0, 61, 0
3, 20160, Note_on_c, 0, 62, 75
3, 20400, Note_on_c, 0, 62, 0
3, 20400, Note_on_c, 0, 64, 75
3, 20640, Note_on_c, 0, 64, 0
3, 20640, Note_on_c, 0, 62, 75
3, 20880, Note_on_c, 0, 62, 0
3, 20880, Note_on_c, 0, 60, 75
3, 21120, Note_on_c, 0, 60, 0
3, 21120, Note_on_c, 0, 62, 75
3, 21120, Note_on_c, 0, 67, 75
3, 22080, Note_on_c, 0, 67, 0
3, 22080, Note_on_c, 0, 62, 0
3, 22080, Note_on_c, 0, 67, 88
3, 22440, Note_on_c, 0, 67, 0
3, 22440, Note_on_c, 0, 66, 88
3, 22560, Note_on_c, 0, 66, 0
3, 22560, Note_on_c, 0, 66, 88
3, 22800, Note_on_c, 0, 66, 0
3, 22800, Note_on_c, 0, 65, 88
3, 23040, Note_on_c, 0, 65, 0
3, 23040, End_track
4, 0, Start_track
4, 0, Title_t, "Grand Piano"
4, 0, Program_c, 0, 0
4, 0, Control_c, 0, 7, 115
4, 0, Control_c, 0, 10, 41
4, 480, Note_on_c, 0, 40, 88
4, 480, Note_on_c, 0, 52, 88
4, 960, Note_on_c, 0, 52, 0
4, 960, Note_on_c, 0, 40, 0
4, 960, Note_on_c, 0, 41, 88
4, 960, Note_on_c, 0, 53, 88
4, 1920, Note_on_c, 0, 53, 0
4, 1920, Note_on_c, 0, 41, 0
4, 2400, Note_on_c, 0, 41, 88
4, 2400, Note_on_c, 0, 53, 88
4, 2880, Note_on_c, 0, 53, 0
4, 2880, Note_on_c, 0, 41, 0
4, 2880, Note_on_c, 0, 40, 88
4, 2880, Note_on_c, 0, 52, 88
4, 3840, Note_on_c, 0, 52, 0
4, 3840, Note_on_c, 0, 40, 0
4, 3840, Note_on_c, 0, 38, 88
4, 3840, Note_on_c, 0, 50, 88
4, 4320, Note_on_c, 0, 50, 0
4, 4320, Note_on_c, 0, 38, 0
4, 4320, Note_on_c, 0, 36, 88
4, 4320, Note_on_c, 0, 48, 88
4, 4800, Note_on_c, 0, 48, 0
4, 4800, Note_on_c, 0, 36, 0
4, 4800, Note_on_c, 0, 35, 88
4, 4800, Note_on_c, 0, 47, 88
4, 5760, Note_on_c, 0, 47, 0
4, 5760, Note_on_c, 0, 35, 0
4, 5760, Note_on_c, 0, 36, 75
4, 5760, Note_on_c, 0, 43, 75
4, 5760, Note_on_c, 0, 48, 75
4, 6000, Note_on_c, 0, 48, 0
4, 6000, Note_on_c, 0, 43, 0
4, 6000, Note_on_c, 0, 36, 0
4, 6240, Note_on_c, 0, 40, 75
4, 6240, Note_on_c, 0, 43, 75
4, 6240, Note_on_c, 0, 52, 75
4, 6480, Note_on_c, 0, 52, 0
4, 6480, Note_on_c, 0, 43, 0
4, 6480, Note_on_c, 0, 40, 0
4, 6720, Note_on_c, 0, 43, 88
4, 6720, Note_on_c, 0, 55, 88
4, 7680, Note_on_c, 0, 55, 0
4, 7680, Note_on_c, 0, 43, 0
4, 8160, Note_on_c, 0, 40, 88
4, 8160, Note_on_c, 0, 52, 88
4, 8640, Note_on_c, 0, 52, 0
4, 8640, Note_on_c, 0, 40, 0
4, 8640, Note_on_c, 0, 41, 88
4, 8640, Note_on_c, 0, 53, 88
4, 9600, Note_on_c, 0, 53, 0
4, 9600, Note_on_c, 0, 41, 0
4, 10080, Note_on_c, 0, 41, 88
4, 10080, Note_on_c, 0, 53, 88
4, 10560, Note_on_c, 0, 53, 0
4, 10560, Note_on_c, 0, 41, 0
4, 10560, Note_on_c, 0, 40, 88
4, 10560, Note_on_c, 0, 52, 88
4, 11040, Note_on_c, 0, 52, 0
4, 11040, Note_on_c, 0, 40, 0
4, 11520, Note_on_c, 0, 45, 101
4, 11520, Note_on_c, 0, 57, 101
4, 12000, Note_on_c, 0, 57, 0
4, 12000, Note_on_c, 0, 45, 0
4, 12000, Note_on_c, 0, 44, 101
4, 12000, Note_on_c, 0, 56, 101
4, 12480, Note_on_c, 0, 56, 0
4, 12480, Note_on_c, 0, 44, 0
4, 12480, Note_on_c, 0, 43, 101
4, 12480, Note_on_c, 0, 55, 101
4, 12720, Note_on_c, 0, 55, 0
4, 12720, Note_on_c, 0, 43, 0
4, 12960, Note_on_c, 0, 55, 101
4, 13119, Note_on_c, 0, 55, 0
4, 13119, Note_on_c, 0, 56, 101
4, 13280, Note_on_c, 0, 56, 0
4, 13280, Note_on_c, 0, 57, 101
4, 13440, Note_on_c, 0, 57, 0
4, 13440, Note_on_c, 0, 43, 101
4, 13440, Note_on_c, 0, 55, 101
4, 13680, Note_on_c, 0, 55, 0
4, 13680, Note_on_c, 0, 43, 0
4, 13920, Note_on_c, 0, 31, 101
4, 13920, Note_on_c, 0, 43, 101
4, 14160, Note_on_c, 0, 43, 0
4, 14160, Note_on_c, 0, 31, 0
4, 14880, Note_on_c, 0, 36, 101
4, 14880, Note_on_c, 0, 48, 101
4, 15360, Note_on_c, 0, 48, 0
4, 15360, Note_on_c, 0, 36, 0
4, 15840, Note_on_c, 0, 48, 75
4, 15840, Note_on_c, 0, 52, 75
4, 15840, Note_on_c, 0, 55, 75
4, 16320, Note_on_c, 0, 55, 0
4, 16320, Note_on_c, 0, 52, 0
4, 16320, Note_on_c, 0, 48, 0
4, 16320, Note_on_c, 0, 47, 75
4, 16320, Note_on_c, 0, 52, 75
4, 16320, Note_on_c, 0, 55, 75
4, 16560, Note_on_c, 0, 55, 0
4, 16560, Note_on_c, 0, 52, 0
4, 16560, Note_on_c, 0, 47, 0
4, 16560, Note_on_c, 0, 45, 75
4, 16560, Note_on_c, 0, 52, 75
4, 16560, Note_on_c, 0, 57, 75
4, 16800, Note_on_c, 0, 57, 0
4, 16800, Note_on_c, 0, 52, 0
4, 16800, Note_on_c, 0, 45, 0
4, 16800, Note_on_c, 0, 43, 75
4, 16800, Note_on_c, 0, 52, 75
4, 16800, Note_on_c, 0, 55, 75
4, 17040, Note_on_c, 0, 55, 0
4, 17040, Note_on_c, 0, 52, 0
4, 17040, Note_on_c, 0, 43, 0
4, 17040, Note_on_c, 0, 42, 75
4, 17040, Note_on_c, 0, 52, 75
4, 17040, Note_on_c, 0, 54, 75
4, 17200, Note_on_c, 0, 40, 75
4, 17240, Note_on_c, 0, 52, 75
4, 17280, Note_on_c, 0, 54, 0
4, 17280, Note_on_c, 0, 42, 0
4, 17280, Note_on_c, 0, 52, 0
4, 17280, Note_on_c, 0, 55, 75
4, 17760, Note_on_c, 0, 55, 0
4, 17760, Note_on_c, 0, 40, 0
4, 17760, Note_on_c, 0, 52, 0
4, 17760, Note_on_c, 0, 52, 88
4, 17760, Note_on_c, 0, 54, 88
4, 17760, Note_on_c, 0, 57, 88
4, 18240, Note_on_c, 0, 57, 0
4, 18240, Note_on_c, 0, 54, 0
4, 18240, Note_on_c, 0, 52, 0
4, 18240, Note_on_c, 0, 52, 88
4, 18240, Note_on_c, 0, 55, 88
4, 18240, Note_on_c, 0, 59, 88
4, 19200, Note_on_c, 0, 59, 0
4, 19200, Note_on_c, 0, 55, 0
4, 19200, Note_on_c, 0, 52, 0
4, 19680, Note_on_c, 0, 58, 75
4, 20160, Note_on_c, 0, 58, 0
4, 20160, Note_on_c, 0, 50, 75
4, 20160, Note_on_c, 0, 55, 75
4, 20160, Note_on_c, 0, 59, 75
4, 20400, Note_on_c, 0, 59, 0
4, 20400, Note_on_c, 0, 55, 0
4, 20400, Note_on_c, 0, 50, 0
4, 20400, Note_on_c, 0, 48, 75
4, 20400, Note_on_c, 0, 55, 75
4, 20400, Note_on_c, 0, 60, 75
4, 20640, Note_on_c, 0, 60, 0
4, 20640, Note_on_c, 0, 55, 0
4, 20640, Note_on_c, 0, 48, 0
4, 20640, Note_on_c, 0, 47, 75
4, 20640, Note_on_c, 0, 55, 75
4, 20640, Note_on_c, 0, 59, 75
4, 20880, Note_on_c, 0, 59, 0
4, 20880, Note_on_c, 0, 55, 0
4, 20880, Note_on_c, 0, 47, 0
4, 20880, Note_on_c, 0, 45, 75
4, 20880, Note_on_c, 0, 55, 75
4, 20880, Note_on_c, 0, 57, 75
4, 21040, Note_on_c, 0, 43, 75
4, 21080, Note_on_c, 0, 55, 75
4, 21120, Note_on_c, 0, 57, 0
4, 21120, Note_on_c, 0, 45, 0
4, 21120, Note_on_c, 0, 55, 0
4, 21120, Note_on_c, 0, 59, 75
4, 21600, Note_on_c, 0, 59, 0
4, 21600, Note_on_c, 0, 43, 0
4, 21600, Note_on_c, 0, 55, 0
4, 21600, Note_on_c, 0, 55, 88
4, 21600, Note_on_c, 0, 58, 88
4, 21600, Note_on_c, 0, 61, 88
4, 22080, Note_on_c, 0, 61, 0
4, 22080, Note_on_c, 0, 58, 0
4, 22080, Note_on_c, 0, 55, 0
4, 22080, Note_on_c, 0, 55, 88
4, 22080, Note_on_c, 0, 59, 88
4, 22080, Note_on_c, 0, 62, 88
4, 23040, Note_on_c, 0, 62, 0
4, 23040, Note_on_c, 0, 59, 0
4, 23040, Note_on_c, 0, 55, 0
4, 23280, Note_on_c, 0, 55, 88
4, 23280, Note_on_c, 0, 59, 88
4, 23280, Note_on_c, 0, 62, 88
4, 23280, Note_on_c, 0, 65, 88
4, 23520, Note_on_c, 0, 65, 0
4, 23520, Note_on_c, 0, 55, 0
4, 23520, Note_on_c, 0, 59, 0
4, 23520, Note_on_c, 0, 62, 0
4, 23520, Note_on_c, 0, 54, 88
4, 23520, Note_on_c, 0, 59, 88
4, 23520, Note_on_c, 0, 62, 88
4, 23520, Note_on_c, 0, 66, 88
4, 23760, Note_on_c, 0, 66, 0
4, 23760, Note_on_c, 0, 54, 0
4, 23760, Note_on_c, 0, 59, 0
4, 23760, Note_on_c, 0, 62, 0
4, 23760, Note_on_c, 0, 53, 88
4, 23760, Note_on_c, 0, 59, 88
4, 23760, Note_on_c, 0, 67, 88
4, 24000, Note_on_c, 0, 67, 0
4, 24000, Note_on_c, 0, 59, 0
4, 24000, Note_on_c, 0, 53, 0
4, 24240, Note_on_c, 0, 55, 88
4, 24240, Note_on_c, 0, 59, 88
4, 24240, Note_on_c, 0, 62, 88
4, 24240, Note_on_c, 0, 65, 88
4, 24480, Note_on_c, 0, 65, 0
4, 24480, Note_on_c, 0, 55, 0
4, 24480, Note_on_c, 0, 59, 0
4, 24480, Note_on_c, 0, 62, 0
4, 24480, Note_on_c, 0, 54, 88
4, 24480, Note_on_c, 0, 59, 88
4, 24480, Note_on_c, 0, 62, 88
4, 24480, Note_on_c, 0, 66, 88
4, 24720, Note_on_c, 0, 66, 0
4, 24720, Note_on_c, 0, 54, 0
4, 24720, Note_on_c, 0, 59, 0
4, 24720, Note_on_c, 0, 62, 0
4, 24720, Note_on_c, 0, 53, 88
4, 24720, Note_on_c, 0, 59, 88
4, 24720, Note_on_c, 0, 67, 88
4, 24960, Note_on_c, 0, 67, 0
4, 24960, Note_on_c, 0, 59, 0
4, 24960, Note_on_c, 0, 53, 0
4, 25200, Note_on_c, 0, 55, 88
4, 25200, Note_on_c, 0, 59, 88
4, 25200, Note_on_c, 0, 62, 88
4, 25200, Note_on_c, 0, 65, 88
4, 25440, Note_on_c, 0, 65, 0
4, 25440, Note_on_c, 0, 55, 0
4, 25440, Note_on_c, 0, 59, 0
4, 25440, Note_on_c, 0, 62, 0
4, 25440, Note_on_c, 0, 54, 88
4, 25440, Note_on_c, 0, 59, 88
4, 25440, Note_on_c, 0, 62, 88
4, 25440, Note_on_c, 0, 66, 88
4, 25680, Note_on_c, 0, 66, 0
4, 25680, Note_on_c, 0, 54, 0
4, 25680, Note_on_c, 0, 59, 0
4, 25680, Note_on_c, 0, 62, 0
4, 25680, Note_on_c, 0, 53, 88
4, 25680, Note_on_c, 0, 59, 88
4, 25680, Note_on_c, 0, 67, 88
4, 25920, Note_on_c, 0, 67, 0
4, 25920, Note_on_c, 0, 59, 0
4, 25920, Note_on_c, 0, 53, 0
4, 26160, Note_on_c, 0, 55, 88
4, 26160, Note_on_c, 0, 59, 88
4, 26160, Note_on_c, 0, 62, 88
4, 26160, Note_on_c, 0, 65, 88
4, 26400, Note_on_c, 0, 65, 0
4, 26400, Note_on_c, 0, 55, 0
4, 26400, Note_on_c, 0, 59, 0
4, 26400, Note_on_c, 0, 62, 0
4, 26400, Note_on_c, 0, 54, 88
4, 26400, Note_on_c, 0, 59, 88
4, 26400, Note_on_c, 0, 62, 88
4, 26400, Note_on_c, 0, 66, 88
4, 26640, Note_on_c, 0, 66, 0
4, 26640, Note_on_c, 0, 54, 0
4, 26640, Note_on_c, 0, 59, 0
4, 26640, Note_on_c, 0, 62, 0
4, 26640, Note_on_c, 0, 53, 88
4, 26640, Note_on_c, 0, 59, 88
4, 26640, Note_on_c, 0, 67, 88
4, 26880, Note_on_c, 0, 62, 88
4, 27120, Note_on_c, 0, 62, 0
4, 27120, Note_on_c, 0, 53, 0
4, 27120, Note_on_c, 0, 59, 0
4, 27120, Note_on_c, 0, 67, 0
4, 27120, Note_on_c, 0, 53, 88
4, 27120, Note_on_c, 0, 59, 88
4, 27120, Note_on_c, 0, 62, 88
4, 27120, Note_on_c, 0, 67, 88
4, 27600, Note_on_c, 0, 67, 0
4, 27600, Note_on_c, 0, 53, 0
4, 27600, Note_on_c, 0, 59, 0
4, 27600, Note_on_c, 0, 62, 0
4, 27600, Note_on_c, 0, 53, 88
4, 27600, Note_on_c, 0, 59, 88
4, 27600, Note_on_c, 0, 62, 88
4, 27600, Note_on_c, 0, 67, 88
4, 28080, Note_on_c, 0, 67, 0
4, 28080, Note_on_c, 0, 53, 0
4, 28080, Note_on_c, 0, 59, 0
4, 28080, Note_on_c, 0, 62, 0
4, 28080, Note_on_c, 0, 53, 88
4, 28080, Note_on_c, 0, 59, 88
4, 28080, Note_on_c, 0, 62, 88
4, 28080, Note_on_c, 0, 67, 88
4, 28560, Note_on_c, 0, 67, 0
4, 28560, Note_on_c, 0, 53, 0
4, 28560, Note_on_c, 0, 59, 0
4, 28560, Note_on_c, 0, 62, 0
4, 28560, Note_on_c, 0, 53, 88
4, 28560, Note_on_c, 0, 59, 88
4, 28560, Note_on_c, 0, 62, 88
4, 28560, Note_on_c, 0, 67, 88
4, 29520, Note_on_c, 0, 67, 0
4, 29520, Note_on_c, 0, 53, 0
4, 29520, Note_on_c, 0, 59, 0
4, 29520, Note_on_c, 0, 62, 0
4, 29520, Note_on_c, 0, 53, 88
4, 29520, Note_on_c, 0, 59, 88
4, 29520, Note_on_c, 0, 62, 88
4, 29520, Note_on_c, 0, 67, 88
4, 29760, Note_on_c, 0, 67, 0
4, 29760, Note_on_c, 0, 53, 0
4, 29760, Note_on_c, 0, 59, 0
4, 29760, Note_on_c, 0, 62, 0
4, 29760, Note_on_c, 0, 53, 88
4, 29760, Note_on_c, 0, 59, 88
4, 29760, Note_on_c, 0, 62, 88
4, 29760, Note_on_c, 0, 67, 88
4, 30000, Note_on_c, 0, 67, 0
4, 30000, Note_on_c, 0, 53, 0
4, 30000, Note_on_c, 0, 59, 0
4, 30000, Note_on_c, 0, 62, 0
4, 30000, Note_on_c, 0, 53, 88
4, 30000, Note_on_c, 0, 59, 88
4, 30000, Note_on_c, 0, 62, 88
4, 30000, Note_on_c, 0, 67, 88
4, 30240, Note_on_c, 0, 67, 0
4, 30240, Note_on_c, 0, 53, 0
4, 30240, Note_on_c, 0, 59, 0
4, 30240, Note_on_c, 0, 62, 0
4, 30240, Note_on_c, 0, 54, 88
4, 30240, Note_on_c, 0, 58, 88
4, 30240, Note_on_c, 0, 61, 88
4, 30240, Note_on_c, 0, 66, 88
4, 30480, Note_on_c, 0, 66, 0
4, 30480, Note_on_c, 0, 54, 0
4, 30480, Note_on_c, 0, 58, 0
4, 30480, Note_on_c, 0, 61, 0
4, 30480, Note_on_c, 0, 54, 88
4, 30480, Note_on_c, 0, 58, 88
4, 30480, Note_on_c, 0, 61, 88
4, 30480, Note_on_c, 0, 66, 88
4, 30720, Note_on_c, 0, 66, 0
4, 30720, Note_on_c, 0, 54, 0
4, 30720, Note_on_c, 0, 58, 0
4, 30720, Note_on_c, 0, 61, 0
4, 31440, Note_on_c, 0, 54, 88
4, 31440, Note_on_c, 0, 61, 88
4, 31680, Note_on_c, 0, 61, 0
4, 31680, Note_on_c, 0, 54, 0
4, 31680, Note_on_c, 0, 47, 88
4, 31680, Note_on_c, 0, 54, 88
4, 31680, Note_on_c, 0, 59, 88
4, 31920, Note_on_c, 0, 59, 0
4, 31920, Note_on_c, 0, 54, 0
4, 31920, Note_on_c, 0, 47, 0
4, 31920, Note_on_c, 0, 47, 114
4, 31920, Note_on_c, 0, 54, 114
4, 31920, Note_on_c, 0, 59, 114
4, 32400, Note_on_c, 0, 59, 0
4, 32400, Note_on_c, 0, 54, 0
4, 32400, Note_on_c, 0, 47, 0
4, 32400, End_track
5, 0, Start_track
5, 0, Title_t, "Grand Piano"
5, 0, Program_c, 0, 0
5, 0, Control_c, 0, 7, 115
5, 0, Control_c, 0, 10, 47
5, 19680, Note_on_c, 0, 52, 75
5, 19920, Note_on_c, 0, 52, 0
5, 19920, Note_on_c, 0, 51, 75
5, 20160, Note_on_c, 0, 51, 0
5, 20160, End_track
0, 0, End_of_file
