0, 0, Header, 1, 5, 480
1, 0, Start_track
1, 0, Title_t, "tchaikovsky sleeping beauty act2 15a pas d'action"
1, 0, Copyright_t, "Adaptation for Disklavier pianos, by: Robert C. Kuhmann (c) 2012."
1, 0, Text_t, "Seq. (c) by: Segundo G. Yogore,  2006\012"
1, 0, Time_signature, 6, 3, 12, 8
1, 0, Key_signature, -1, "major"
1, 0, Tempo, 857143
1, 25920, Tempo, 750000
1, 37440, Tempo, 857143
1, 38880, Tempo, 750000
1, 47520, Tempo, 857143
1, 48960, Tempo, 857143
1, 108000, Tempo, 750000
1, 129600, Tempo, 600000
1, 138240, Time_signature, 5, 2, 24, 8
1, 140640, Time_signature, 3, 3, 12, 8
1, 140640, Tempo, 461538
1, 146400, Tempo, 461538
1, 190320, Time_signature, 8, 2, 24, 8
1, 190320, End_track
2, 0, Start_track
2, 0, Title_t, "Grand Piano"
2, 0, Program_c, 0, 0
2, 0, Control_c, 0, 7, 115
2, 0, Control_c, 0, 10, 86
2, 0, Note_on_c, 0, 57, 49
2, 0, Note_on_c, 0, 60, 49
2, 240, Note_on_c, 0, 60, 0
2, 240, Note_on_c, 0, 57, 0
2, 1440, Note_on_c, 0, 57, 49
2, 1440, Note_on_c, 0, 60, 49
2, 1680, Note_on_c, 0, 60, 0
2, 1680, Note_on_c, 0, 57, 0
2, 2880, Note_on_c, 0, 65, 88
2, 3600, Note_on_c, 0, 65, 0
2, 3600, Note_on_c, 0, 57, 62
2, 4080, Note_on_c, 0, 57, 0
2, 4080, Note_on_c, 0, 62, 62
2, 4320, Note_on_c, 0, 62, 0
2, 4320, Note_on_c, 0, 55, 62
2, 5520, Note_on_c, 0, 55, 0
2, 5520, Note_on_c, 0, 60, 62
2, 5760, Note_on_c, 0, 60, 0
2, 5760, Note_on_c, 0, 62, 62
2, 6120, Note_on_c, 0, 62, 0
2, 6120, Note_on_c, 0, 64, 62
2, 6480, Note_on_c, 0, 64, 0
2, 6480, Note_on_c, 0, 65, 75
2, 6840, Note_on_c, 0, 65, 0
2, 6840, Note_on_c, 0, 67, 75
2, 7200, Note_on_c, 0, 67, 0
2, 7200, Note_on_c, 0, 60, 75
2, 8400, Note_on_c, 0, 60, 0
2, 8400, Note_on_c, 0, 60, 75
2, 8640, Note_on_c, 0, 60, 0
2, 8640, Note_on_c, 0, 62, 62
2, 9000, Note_on_c, 0, 62, 0
2, 9000, Note_on_c, 0, 64, 62
2, 9360, Note_on_c, 0, 64, 0
2, 9360, Note_on_c, 0, 65, 75
2, 9720, Note_on_c, 0, 65, 0
2, 9720, Note_on_c, 0, 67, 75
2, 10080, Note_on_c, 0, 67, 0
2, 10080, Note_on_c, 0, 69, 75
2, 11280, Note_on_c, 0, 69, 0
2, 11280, Note_on_c, 0, 64, 75
2, 11520, Note_on_c, 0, 64, 0
2, 11520, Note_on_c, 0, 67, 62
2, 11880, Note_on_c, 0, 67, 0
2, 11880, Note_on_c, 0, 65, 62
2, 12240, Note_on_c, 0, 65, 0
2, 12240, Note_on_c, 0, 64, 88
2, 12600, Note_on_c, 0, 64, 0
2, 12600, Note_on_c, 0, 62, 88
2, 12960, Note_on_c, 0, 62, 0
2, 12960, Note_on_c, 0, 55, 62
2, 13440, Note_on_c, 0, 55, 0
2, 13440, Note_on_c, 0, 62, 62
2, 14160, Note_on_c, 0, 62, 0
2, 14160, Note_on_c, 0, 60, 62
2, 14400, Note_on_c, 0, 60, 0
2, 14400, Note_on_c, 0, 65, 88
2, 15120, Note_on_c, 0, 65, 0
2, 15120, Note_on_c, 0, 57, 62
2, 15600, Note_on_c, 0, 57, 0
2, 15600, Note_on_c, 0, 62, 62
2, 15840, Note_on_c, 0, 62, 0
2, 15840, Note_on_c, 0, 55, 62
2, 17040, Note_on_c, 0, 55, 0
2, 17040, Note_on_c, 0, 60, 62
2, 17280, Note_on_c, 0, 60, 0
2, 17280, Note_on_c, 0, 62, 62
2, 17640, Note_on_c, 0, 62, 0
2, 17640, Note_on_c, 0, 64, 62
2, 18000, Note_on_c, 0, 64, 0
2, 18000, Note_on_c, 0, 65, 75
2, 18360, Note_on_c, 0, 65, 0
2, 18360, Note_on_c, 0, 67, 75
2, 18720, Note_on_c, 0, 67, 0
2, 18720, Note_on_c, 0, 69, 75
2, 22320, Note_on_c, 0, 69, 0
2, 22320, Note_on_c, 0, 68, 88
2, 22800, Note_on_c, 0, 68, 0
2, 22800, Note_on_c, 0, 66, 75
2, 23040, Note_on_c, 0, 66, 0
2, 23040, Note_on_c, 0, 64, 62
2, 24240, Note_on_c, 0, 64, 0
2, 24240, Note_on_c, 0, 62, 62
2, 24480, Note_on_c, 0, 62, 0
2, 24480, Note_on_c, 0, 62, 62
2, 25200, Note_on_c, 0, 62, 0
2, 25200, Note_on_c, 0, 61, 62
2, 25680, Note_on_c, 0, 61, 0
2, 25680, Note_on_c, 0, 69, 75
2, 25920, Note_on_c, 0, 69, 0
2, 25920, Note_on_c, 0, 70, 88
2, 26640, Note_on_c, 0, 70, 0
2, 26640, Note_on_c, 0, 69, 88
2, 27120, Note_on_c, 0, 69, 0
2, 27120, Note_on_c, 0, 67, 88
2, 27360, Note_on_c, 0, 67, 0
2, 27360, Note_on_c, 0, 65, 75
2, 28560, Note_on_c, 0, 65, 0
2, 28560, Note_on_c, 0, 64, 62
2, 28800, Note_on_c, 0, 64, 0
2, 28800, Note_on_c, 0, 62, 88
2, 29160, Note_on_c, 0, 62, 0
2, 29160, Note_on_c, 0, 60, 88
2, 29520, Note_on_c, 0, 60, 0
2, 29520, Note_on_c, 0, 58, 62
2, 30060, Note_on_c, 0, 58, 0
2, 30060, Note_on_c, 0, 57, 62
2, 30240, Note_on_c, 0, 57, 0
2, 30240, Note_on_c, 0, 57, 62
2, 30960, Note_on_c, 0, 57, 0
2, 30960, Note_on_c, 0, 55, 62
2, 31140, Note_on_c, 0, 55, 0
2, 31140, Note_on_c, 0, 60, 75
2, 31320, Note_on_c, 0, 60, 0
2, 31320, Note_on_c, 0, 64, 75
2, 31500, Note_on_c, 0, 64, 0
2, 31500, Note_on_c, 0, 67, 88
2, 31680, Note_on_c, 0, 67, 0
2, 31680, Note_on_c, 0, 70, 101
2, 32400, Note_on_c, 0, 70, 0
2, 32400, Note_on_c, 0, 69, 101
2, 32880, Note_on_c, 0, 69, 0
2, 32880, Note_on_c, 0, 67, 101
2, 33120, Note_on_c, 0, 67, 0
2, 33120, Note_on_c, 0, 65, 88
2, 34320, Note_on_c, 0, 65, 0
2, 34320, Note_on_c, 0, 64, 75
2, 34560, Note_on_c, 0, 64, 0
2, 34560, Note_on_c, 0, 62, 88
2, 34920, Note_on_c, 0, 62, 0
2, 34920, Note_on_c, 0, 64, 88
2, 35280, Note_on_c, 0, 64, 0
2, 35280, Note_on_c, 0, 65, 62
2, 35820, Note_on_c, 0, 65, 0
2, 35820, Note_on_c, 0, 67, 62
2, 36000, Note_on_c, 0, 67, 0
2, 36000, Note_on_c, 0, 67, 62
2, 37200, Note_on_c, 0, 67, 0
2, 37200, Note_on_c, 0, 60, 62
2, 37440, Note_on_c, 0, 60, 0
2, 37440, Note_on_c, 0, 62, 75
2, 37800, Note_on_c, 0, 62, 0
2, 37800, Note_on_c, 0, 70, 75
2, 38160, Note_on_c, 0, 70, 0
2, 38160, Note_on_c, 0, 69, 114
2, 38520, Note_on_c, 0, 69, 0
2, 38520, Note_on_c, 0, 67, 114
2, 38880, Note_on_c, 0, 67, 0
2, 38880, Note_on_c, 0, 65, 75
2, 40080, Note_on_c, 0, 65, 0
2, 40080, Note_on_c, 0, 64, 62
2, 40320, Note_on_c, 0, 64, 0
2, 40320, Note_on_c, 0, 62, 88
2, 40680, Note_on_c, 0, 62, 0
2, 40680, Note_on_c, 0, 60, 88
2, 41040, Note_on_c, 0, 60, 0
2, 41040, Note_on_c, 0, 58, 62
2, 41580, Note_on_c, 0, 58, 0
2, 41580, Note_on_c, 0, 57, 62
2, 41760, Note_on_c, 0, 57, 0
2, 41760, Note_on_c, 0, 57, 62
2, 42480, Note_on_c, 0, 57, 0
2, 42480, Note_on_c, 0, 55, 62
2, 42660, Note_on_c, 0, 55, 0
2, 42660, Note_on_c, 0, 60, 75
2, 42840, Note_on_c, 0, 60, 0
2, 42840, Note_on_c, 0, 64, 75
2, 43020, Note_on_c, 0, 64, 0
2, 43020, Note_on_c, 0, 67, 88
2, 43200, Note_on_c, 0, 67, 0
2, 43200, Note_on_c, 0, 70, 88
2, 43740, Note_on_c, 0, 70, 0
2, 43740, Note_on_c, 0, 69, 88
2, 43920, Note_on_c, 0, 69, 0
2, 43920, Note_on_c, 0, 69, 88
2, 44460, Note_on_c, 0, 69, 0
2, 44460, Note_on_c, 0, 67, 88
2, 44640, Note_on_c, 0, 67, 0
2, 44640, Note_on_c, 0, 67, 88
2, 45600, Note_on_c, 0, 67, 0
2, 45600, Note_on_c, 0, 65, 88
2, 45840, Note_on_c, 0, 65, 0
2, 45840, Note_on_c, 0, 64, 75
2, 46080, Note_on_c, 0, 64, 0
2, 46080, Note_on_c, 0, 62, 88
2, 46440, Note_on_c, 0, 62, 0
2, 46440, Note_on_c, 0, 64, 88
2, 46800, Note_on_c, 0, 64, 0
2, 46800, Note_on_c, 0, 65, 62
2, 47340, Note_on_c, 0, 65, 0
2, 47340, Note_on_c, 0, 67, 62
2, 47520, Note_on_c, 0, 67, 0
2, 47520, Note_on_c, 0, 67, 88
2, 48960, Note_on_c, 0, 67, 0
2, 48960, Note_on_c, 0, 68, 62
2, 49680, Note_on_c, 0, 68, 0
2, 49680, Note_on_c, 0, 68, 88
2, 50160, Note_on_c, 0, 68, 0
2, 50160, Note_on_c, 0, 68, 88
2, 50400, Note_on_c, 0, 68, 0
2, 50400, Note_on_c, 0, 68, 88
2, 51120, Note_on_c, 0, 68, 0
2, 51120, Note_on_c, 0, 67, 62
2, 51480, Note_on_c, 0, 67, 0
2, 51480, Note_on_c, 0, 65, 62
2, 51840, Note_on_c, 0, 65, 0
2, 51840, Note_on_c, 0, 63, 62
2, 52200, Note_on_c, 0, 63, 0
2, 52200, Note_on_c, 0, 65, 62
2, 52560, Note_on_c, 0, 65, 0
2, 52560, Note_on_c, 0, 63, 62
2, 53100, Note_on_c, 0, 63, 0
2, 53100, Note_on_c, 0, 61, 62
2, 53280, Note_on_c, 0, 61, 0
2, 53280, Note_on_c, 0, 61, 62
2, 54480, Note_on_c, 0, 61, 0
2, 54480, Note_on_c, 0, 60, 62
2, 54720, Note_on_c, 0, 60, 0
2, 54720, Note_on_c, 0, 65, 49
2, 55440, Note_on_c, 0, 65, 0
2, 55440, Note_on_c, 0, 65, 75
2, 55920, Note_on_c, 0, 65, 0
2, 55920, Note_on_c, 0, 65, 75
2, 56160, Note_on_c, 0, 65, 0
2, 56160, Note_on_c, 0, 65, 62
2, 57360, Note_on_c, 0, 65, 0
2, 57360, Note_on_c, 0, 65, 62
2, 57600, Note_on_c, 0, 65, 0
2, 57600, Note_on_c, 0, 57, 62
2, 57960, Note_on_c, 0, 57, 0
2, 57960, Note_on_c, 0, 62, 62
2, 58320, Note_on_c, 0, 62, 0
2, 58320, Note_on_c, 0, 55, 62
2, 58680, Note_on_c, 0, 55, 0
2, 58680, Note_on_c, 0, 60, 62
2, 59040, Note_on_c, 0, 60, 0
2, 59040, Control_c, 0, 64, 127
2, 59040, Note_on_c, 0, 57, 49
2, 59040, Note_on_c, 0, 60, 49
2, 59280, Note_on_c, 0, 60, 0
2, 59280, Note_on_c, 0, 57, 0
2, 59280, Note_on_c, 0, 65, 49
2, 59280, Note_on_c, 0, 69, 49
2, 59520, Note_on_c, 0, 69, 0
2, 59520, Note_on_c, 0, 65, 0
2, 59520, Note_on_c, 0, 65, 49
2, 59520, Note_on_c, 0, 69, 49
2, 59760, Note_on_c, 0, 69, 0
2, 59760, Note_on_c, 0, 65, 0
2, 59760, Note_on_c, 0, 69, 49
2, 60000, Note_on_c, 0, 69, 0
2, 60000, Note_on_c, 0, 69, 49
2, 60240, Note_on_c, 0, 69, 0
2, 60240, Note_on_c, 0, 65, 49
2, 60240, Note_on_c, 0, 69, 49
2, 60480, Note_on_c, 0, 69, 0
2, 60480, Note_on_c, 0, 65, 0
2, 60480, Control_c, 0, 64, 0
2, 60480, Note_on_c, 0, 65, 49
2, 60480, Note_on_c, 0, 69, 49
2, 60720, Note_on_c, 0, 69, 0
2, 60720, Note_on_c, 0, 65, 0
2, 60960, Control_c, 0, 64, 127
2, 60960, Note_on_c, 0, 69, 62
2, 60994, Note_on_c, 0, 69, 0
2, 60994, Note_on_c, 0, 71, 62
2, 61028, Note_on_c, 0, 71, 0
2, 61028, Note_on_c, 0, 73, 62
2, 61062, Note_on_c, 0, 73, 0
2, 61062, Note_on_c, 0, 74, 62
2, 61097, Note_on_c, 0, 74, 0
2, 61097, Note_on_c, 0, 76, 62
2, 61131, Note_on_c, 0, 76, 0
2, 61131, Note_on_c, 0, 77, 62
2, 61165, Note_on_c, 0, 77, 0
2, 61165, Note_on_c, 0, 79, 62
2, 61200, Note_on_c, 0, 79, 0
2, 61200, Control_c, 0, 64, 0
2, 61200, Note_on_c, 0, 81, 62
2, 61440, Note_on_c, 0, 81, 0
2, 61680, Control_c, 0, 64, 127
2, 61680, Note_on_c, 0, 74, 62
2, 61714, Note_on_c, 0, 74, 0
2, 61714, Note_on_c, 0, 76, 62
2, 61748, Note_on_c, 0, 76, 0
2, 61748, Note_on_c, 0, 77, 62
2, 61782, Note_on_c, 0, 77, 0
2, 61782, Note_on_c, 0, 79, 62
2, 61817, Note_on_c, 0, 79, 0
2, 61817, Note_on_c, 0, 81, 62
2, 61851, Note_on_c, 0, 81, 0
2, 61851, Note_on_c, 0, 83, 62
2, 61885, Note_on_c, 0, 83, 0
2, 61885, Note_on_c, 0, 85, 62
2, 61920, Note_on_c, 0, 85, 0
2, 61920, Control_c, 0, 64, 0
2, 61920, Note_on_c, 0, 86, 62
2, 62160, Note_on_c, 0, 86, 0
2, 62160, Control_c, 0, 64, 127
2, 62160, Note_on_c, 0, 62, 49
2, 62160, Note_on_c, 0, 65, 49
2, 62160, Note_on_c, 0, 69, 49
2, 62400, Note_on_c, 0, 69, 0
2, 62400, Note_on_c, 0, 65, 0
2, 62400, Note_on_c, 0, 62, 0
2, 62400, Note_on_c, 0, 62, 49
2, 62400, Note_on_c, 0, 65, 49
2, 62400, Note_on_c, 0, 69, 49
2, 62640, Note_on_c, 0, 69, 0
2, 62640, Note_on_c, 0, 65, 0
2, 62640, Note_on_c, 0, 62, 0
2, 62640, Note_on_c, 0, 66, 49
2, 62640, Note_on_c, 0, 69, 49
2, 62880, Note_on_c, 0, 69, 0
2, 62880, Note_on_c, 0, 66, 0
2, 62880, Note_on_c, 0, 66, 49
2, 62880, Note_on_c, 0, 69, 49
2, 63120, Note_on_c, 0, 69, 0
2, 63120, Note_on_c, 0, 66, 0
2, 63120, Control_c, 0, 64, 0
2, 63120, Note_on_c, 0, 66, 49
2, 63120, Note_on_c, 0, 69, 49
2, 63360, Note_on_c, 0, 69, 0
2, 63360, Note_on_c, 0, 66, 0
2, 63360, Note_on_c, 0, 62, 49
2, 63360, Note_on_c, 0, 66, 49
2, 63360, Note_on_c, 0, 69, 49
2, 63600, Note_on_c, 0, 69, 0
2, 63600, Note_on_c, 0, 66, 0
2, 63600, Note_on_c, 0, 62, 0
2, 63840, Control_c, 0, 64, 127
2, 63840, Note_on_c, 0, 74, 62
2, 63874, Note_on_c, 0, 74, 0
2, 63874, Note_on_c, 0, 76, 62
2, 63908, Note_on_c, 0, 76, 0
2, 63908, Note_on_c, 0, 78, 62
2, 63942, Note_on_c, 0, 78, 0
2, 63942, Note_on_c, 0, 79, 62
2, 63977, Note_on_c, 0, 79, 0
2, 63977, Note_on_c, 0, 81, 62
2, 64011, Note_on_c, 0, 81, 0
2, 64011, Note_on_c, 0, 82, 62
2, 64045, Note_on_c, 0, 82, 0
2, 64045, Note_on_c, 0, 84, 62
2, 64080, Note_on_c, 0, 84, 0
2, 64080, Control_c, 0, 64, 0
2, 64080, Note_on_c, 0, 86, 62
2, 64320, Note_on_c, 0, 86, 0
2, 64560, Control_c, 0, 64, 127
2, 64560, Note_on_c, 0, 79, 62
2, 64594, Note_on_c, 0, 79, 0
2, 64594, Note_on_c, 0, 81, 62
2, 64628, Note_on_c, 0, 81, 0
2, 64628, Note_on_c, 0, 82, 62
2, 64662, Note_on_c, 0, 82, 0
2, 64662, Note_on_c, 0, 84, 62
2, 64697, Note_on_c, 0, 84, 0
2, 64697, Note_on_c, 0, 86, 62
2, 64731, Note_on_c, 0, 86, 0
2, 64731, Note_on_c, 0, 88, 62
2, 64765, Note_on_c, 0, 88, 0
2, 64765, Note_on_c, 0, 90, 62
2, 64800, Note_on_c, 0, 90, 0
2, 64800, Control_c, 0, 64, 0
2, 64800, Note_on_c, 0, 91, 62
2, 65040, Note_on_c, 0, 91, 0
2, 65040, Control_c, 0, 64, 127
2, 65040, Note_on_c, 0, 67, 49
2, 65040, Note_on_c, 0, 70, 49
2, 65280, Note_on_c, 0, 70, 0
2, 65280, Note_on_c, 0, 67, 0
2, 65280, Note_on_c, 0, 67, 49
2, 65280, Note_on_c, 0, 70, 49
2, 65520, Note_on_c, 0, 70, 0
2, 65520, Note_on_c, 0, 67, 0
2, 65520, Note_on_c, 0, 70, 49
2, 65760, Note_on_c, 0, 70, 0
2, 65760, Note_on_c, 0, 70, 49
2, 66000, Note_on_c, 0, 70, 0
2, 66000, Control_c, 0, 64, 0
2, 66000, Note_on_c, 0, 67, 49
2, 66000, Note_on_c, 0, 70, 49
2, 66240, Note_on_c, 0, 70, 0
2, 66240, Note_on_c, 0, 67, 0
2, 66240, Note_on_c, 0, 68, 49
2, 66240, Note_on_c, 0, 71, 49
2, 66480, Note_on_c, 0, 71, 0
2, 66480, Note_on_c, 0, 68, 0
2, 66720, Control_c, 0, 64, 127
2, 66720, Note_on_c, 0, 73, 62
2, 66754, Note_on_c, 0, 73, 0
2, 66754, Note_on_c, 0, 74, 62
2, 66788, Note_on_c, 0, 74, 0
2, 66788, Note_on_c, 0, 76, 62
2, 66822, Note_on_c, 0, 76, 0
2, 66822, Note_on_c, 0, 77, 62
2, 66857, Note_on_c, 0, 77, 0
2, 66857, Note_on_c, 0, 79, 62
2, 66891, Note_on_c, 0, 79, 0
2, 66891, Note_on_c, 0, 80, 62
2, 66925, Note_on_c, 0, 80, 0
2, 66925, Note_on_c, 0, 81, 62
2, 66960, Note_on_c, 0, 81, 0
2, 66960, Control_c, 0, 64, 0
2, 66960, Note_on_c, 0, 83, 62
2, 67200, Note_on_c, 0, 83, 0
2, 67440, Control_c, 0, 64, 127
2, 67440, Note_on_c, 0, 76, 62
2, 67474, Note_on_c, 0, 76, 0
2, 67474, Note_on_c, 0, 78, 62
2, 67508, Note_on_c, 0, 78, 0
2, 67508, Note_on_c, 0, 80, 62
2, 67542, Note_on_c, 0, 80, 0
2, 67542, Note_on_c, 0, 81, 62
2, 67577, Note_on_c, 0, 81, 0
2, 67577, Note_on_c, 0, 83, 62
2, 67611, Note_on_c, 0, 83, 0
2, 67611, Note_on_c, 0, 84, 62
2, 67645, Note_on_c, 0, 84, 0
2, 67645, Control_c, 0, 64, 0
2, 67645, Note_on_c, 0, 86, 62
2, 67680, Note_on_c, 0, 86, 0
2, 67680, Note_on_c, 0, 88, 62
2, 67920, Note_on_c, 0, 88, 0
2, 67920, Control_c, 0, 64, 127
2, 67920, Note_on_c, 0, 68, 49
2, 67920, Note_on_c, 0, 71, 49
2, 68160, Note_on_c, 0, 71, 0
2, 68160, Note_on_c, 0, 68, 0
2, 68160, Note_on_c, 0, 68, 49
2, 68160, Note_on_c, 0, 71, 49
2, 68400, Note_on_c, 0, 71, 0
2, 68400, Note_on_c, 0, 68, 0
2, 68400, Note_on_c, 0, 68, 49
2, 68400, Note_on_c, 0, 71, 49
2, 68640, Note_on_c, 0, 71, 0
2, 68640, Note_on_c, 0, 68, 0
2, 68640, Note_on_c, 0, 68, 49
2, 68640, Note_on_c, 0, 71, 49
2, 68880, Note_on_c, 0, 71, 0
2, 68880, Note_on_c, 0, 68, 0
2, 68880, Control_c, 0, 64, 0
2, 68880, Note_on_c, 0, 68, 49
2, 68880, Note_on_c, 0, 71, 49
2, 69120, Note_on_c, 0, 71, 0
2, 69120, Note_on_c, 0, 68, 0
2, 69120, Note_on_c, 0, 64, 49
2, 69120, Note_on_c, 0, 68, 49
2, 69120, Note_on_c, 0, 71, 49
2, 69360, Note_on_c, 0, 71, 0
2, 69360, Note_on_c, 0, 68, 0
2, 69360, Note_on_c, 0, 64, 0
2, 69600, Control_c, 0, 64, 127
2, 69600, Note_on_c, 0, 76, 62
2, 69634, Note_on_c, 0, 76, 0
2, 69634, Note_on_c, 0, 78, 62
2, 69668, Note_on_c, 0, 78, 0
2, 69668, Note_on_c, 0, 80, 62
2, 69702, Note_on_c, 0, 80, 0
2, 69702, Note_on_c, 0, 81, 62
2, 69737, Note_on_c, 0, 81, 0
2, 69737, Note_on_c, 0, 83, 62
2, 69771, Note_on_c, 0, 83, 0
2, 69771, Note_on_c, 0, 84, 62
2, 69805, Note_on_c, 0, 84, 0
2, 69805, Note_on_c, 0, 86, 62
2, 69840, Note_on_c, 0, 86, 0
2, 69840, Control_c, 0, 64, 0
2, 69840, Note_on_c, 0, 88, 62
2, 70080, Note_on_c, 0, 88, 0
2, 70320, Control_c, 0, 64, 127
2, 70320, Note_on_c, 0, 81, 62
2, 70354, Note_on_c, 0, 81, 0
2, 70354, Note_on_c, 0, 83, 62
2, 70388, Note_on_c, 0, 83, 0
2, 70388, Note_on_c, 0, 84, 62
2, 70422, Note_on_c, 0, 84, 0
2, 70422, Note_on_c, 0, 86, 62
2, 70457, Note_on_c, 0, 86, 0
2, 70457, Note_on_c, 0, 88, 62
2, 70491, Note_on_c, 0, 88, 0
2, 70491, Note_on_c, 0, 90, 62
2, 70525, Note_on_c, 0, 90, 0
2, 70525, Note_on_c, 0, 92, 62
2, 70560, Note_on_c, 0, 92, 0
2, 70560, Control_c, 0, 64, 0
2, 70560, Note_on_c, 0, 93, 62
2, 70800, Note_on_c, 0, 93, 0
2, 70800, Note_on_c, 0, 84, 62
2, 70800, Note_on_c, 0, 88, 62
2, 70847, Note_on_c, 0, 88, 0
2, 70847, Note_on_c, 0, 84, 0
2, 71040, Note_on_c, 0, 84, 62
2, 71040, Note_on_c, 0, 88, 62
2, 71087, Note_on_c, 0, 88, 0
2, 71087, Note_on_c, 0, 84, 0
2, 71280, Note_on_c, 0, 84, 62
2, 71280, Note_on_c, 0, 88, 62
2, 71520, Note_on_c, 0, 88, 0
2, 71520, Note_on_c, 0, 84, 0
2, 71520, Note_on_c, 0, 84, 62
2, 71520, Note_on_c, 0, 87, 62
2, 71760, Note_on_c, 0, 87, 0
2, 71760, Note_on_c, 0, 84, 0
2, 71760, Note_on_c, 0, 83, 62
2, 71760, Note_on_c, 0, 86, 62
2, 72000, Note_on_c, 0, 86, 0
2, 72000, Note_on_c, 0, 83, 0
2, 72000, Control_c, 0, 64, 0
2, 72000, Note_on_c, 0, 81, 62
2, 72000, Note_on_c, 0, 84, 62
2, 72240, Note_on_c, 0, 84, 0
2, 72240, Note_on_c, 0, 81, 0
2, 72240, Note_on_c, 0, 84, 62
2, 72240, Note_on_c, 0, 88, 62
2, 72287, Note_on_c, 0, 88, 0
2, 72287, Note_on_c, 0, 84, 0
2, 72480, Note_on_c, 0, 84, 62
2, 72480, Note_on_c, 0, 88, 62
2, 72527, Note_on_c, 0, 88, 0
2, 72527, Note_on_c, 0, 84, 0
2, 72720, Note_on_c, 0, 84, 62
2, 72720, Note_on_c, 0, 88, 62
2, 72960, Note_on_c, 0, 88, 0
2, 72960, Note_on_c, 0, 84, 0
2, 72960, Note_on_c, 0, 84, 62
2, 72960, Note_on_c, 0, 87, 62
2, 73200, Note_on_c, 0, 87, 0
2, 73200, Note_on_c, 0, 84, 0
2, 73200, Note_on_c, 0, 83, 62
2, 73200, Note_on_c, 0, 86, 62
2, 73440, Note_on_c, 0, 86, 0
2, 73440, Note_on_c, 0, 83, 0
2, 73440, Note_on_c, 0, 76, 62
2, 73440, Note_on_c, 0, 81, 62
2, 73440, Note_on_c, 0, 84, 62
2, 73680, Note_on_c, 0, 84, 0
2, 73680, Note_on_c, 0, 81, 0
2, 73680, Note_on_c, 0, 76, 0
2, 73680, Control_c, 0, 64, 127
2, 73680, Note_on_c, 0, 69, 49
2, 73680, Note_on_c, 0, 72, 49
2, 73680, Note_on_c, 0, 76, 49
2, 73920, Note_on_c, 0, 76, 0
2, 73920, Note_on_c, 0, 72, 0
2, 73920, Note_on_c, 0, 69, 0
2, 73920, Note_on_c, 0, 69, 49
2, 73920, Note_on_c, 0, 72, 49
2, 73920, Note_on_c, 0, 76, 49
2, 74160, Note_on_c, 0, 76, 0
2, 74160, Note_on_c, 0, 72, 0
2, 74160, Note_on_c, 0, 69, 0
2, 74160, Note_on_c, 0, 72, 49
2, 74160, Note_on_c, 0, 76, 49
2, 74400, Note_on_c, 0, 76, 0
2, 74400, Note_on_c, 0, 72, 0
2, 74400, Note_on_c, 0, 72, 49
2, 74400, Note_on_c, 0, 76, 49
2, 74640, Note_on_c, 0, 76, 0
2, 74640, Note_on_c, 0, 72, 0
2, 74640, Control_c, 0, 64, 0
2, 74640, Note_on_c, 0, 72, 49
2, 74640, Note_on_c, 0, 76, 49
2, 74880, Note_on_c, 0, 76, 0
2, 74880, Note_on_c, 0, 72, 0
2, 74880, Note_on_c, 0, 70, 49
2, 74880, Note_on_c, 0, 73, 49
2, 74880, Note_on_c, 0, 76, 49
2, 75120, Note_on_c, 0, 76, 0
2, 75120, Note_on_c, 0, 73, 0
2, 75120, Note_on_c, 0, 70, 0
2, 75360, Control_c, 0, 64, 127
2, 75360, Note_on_c, 0, 73, 62
2, 75399, Note_on_c, 0, 73, 0
2, 75399, Note_on_c, 0, 74, 62
2, 75440, Note_on_c, 0, 74, 0
2, 75440, Note_on_c, 0, 76, 62
2, 75480, Note_on_c, 0, 76, 0
2, 75480, Note_on_c, 0, 78, 62
2, 75519, Note_on_c, 0, 78, 0
2, 75519, Note_on_c, 0, 79, 62
2, 75560, Note_on_c, 0, 79, 0
2, 75560, Note_on_c, 0, 81, 62
2, 75600, Note_on_c, 0, 81, 0
2, 75600, Control_c, 0, 64, 0
2, 75600, Note_on_c, 0, 82, 62
2, 75840, Note_on_c, 0, 82, 0
2, 76080, Control_c, 0, 64, 127
2, 76080, Note_on_c, 0, 78, 62
2, 76114, Note_on_c, 0, 78, 0
2, 76114, Note_on_c, 0, 80, 62
2, 76148, Note_on_c, 0, 80, 0
2, 76148, Note_on_c, 0, 82, 62
2, 76182, Note_on_c, 0, 82, 0
2, 76182, Note_on_c, 0, 83, 62
2, 76217, Note_on_c, 0, 83, 0
2, 76217, Note_on_c, 0, 85, 62
2, 76251, Note_on_c, 0, 85, 0
2, 76251, Note_on_c, 0, 86, 62
2, 76285, Note_on_c, 0, 86, 0
2, 76285, Control_c, 0, 64, 0
2, 76285, Note_on_c, 0, 88, 62
2, 76320, Note_on_c, 0, 88, 0
2, 76320, Note_on_c, 0, 90, 62
2, 76560, Note_on_c, 0, 90, 0
2, 76560, Control_c, 0, 64, 127
2, 76560, Note_on_c, 0, 70, 49
2, 76560, Note_on_c, 0, 73, 49
2, 76560, Note_on_c, 0, 76, 49
2, 76800, Note_on_c, 0, 76, 0
2, 76800, Note_on_c, 0, 73, 0
2, 76800, Note_on_c, 0, 70, 0
2, 76800, Note_on_c, 0, 70, 49
2, 76800, Note_on_c, 0, 73, 49
2, 76800, Note_on_c, 0, 76, 49
2, 77040, Note_on_c, 0, 76, 0
2, 77040, Note_on_c, 0, 73, 0
2, 77040, Note_on_c, 0, 70, 0
2, 77040, Note_on_c, 0, 70, 49
2, 77040, Note_on_c, 0, 73, 49
2, 77040, Note_on_c, 0, 76, 49
2, 77280, Note_on_c, 0, 76, 0
2, 77280, Note_on_c, 0, 73, 0
2, 77280, Note_on_c, 0, 70, 0
2, 77280, Note_on_c, 0, 70, 49
2, 77280, Note_on_c, 0, 73, 49
2, 77280, Note_on_c, 0, 76, 49
2, 77520, Note_on_c, 0, 76, 0
2, 77520, Note_on_c, 0, 73, 0
2, 77520, Note_on_c, 0, 70, 0
2, 77520, Control_c, 0, 64, 0
2, 77520, Note_on_c, 0, 70, 49
2, 77520, Note_on_c, 0, 73, 49
2, 77520, Note_on_c, 0, 76, 49
2, 77760, Note_on_c, 0, 76, 0
2, 77760, Note_on_c, 0, 73, 0
2, 77760, Note_on_c, 0, 70, 0
2, 77760, Note_on_c, 0, 78, 49
2, 78000, Note_on_c, 0, 78, 0
2, 78240, Control_c, 0, 64, 127
2, 78240, Note_on_c, 0, 66, 62
2, 78274, Note_on_c, 0, 66, 0
2, 78274, Note_on_c, 0, 68, 62
2, 78308, Note_on_c, 0, 68, 0
2, 78308, Note_on_c, 0, 70, 62
2, 78342, Note_on_c, 0, 70, 0
2, 78342, Note_on_c, 0, 71, 62
2, 78377, Note_on_c, 0, 71, 0
2, 78377, Note_on_c, 0, 73, 62
2, 78411, Note_on_c, 0, 73, 0
2, 78411, Note_on_c, 0, 74, 62
2, 78445, Note_on_c, 0, 74, 0
2, 78445, Note_on_c, 0, 76, 62
2, 78480, Note_on_c, 0, 76, 0
2, 78480, Control_c, 0, 64, 0
2, 78480, Note_on_c, 0, 78, 62
2, 78720, Note_on_c, 0, 78, 0
2, 78960, Control_c, 0, 64, 127
2, 78960, Note_on_c, 0, 71, 62
2, 78994, Note_on_c, 0, 71, 0
2, 78994, Note_on_c, 0, 73, 62
2, 79028, Note_on_c, 0, 73, 0
2, 79028, Note_on_c, 0, 74, 62
2, 79062, Note_on_c, 0, 74, 0
2, 79062, Note_on_c, 0, 76, 62
2, 79097, Note_on_c, 0, 76, 0
2, 79097, Note_on_c, 0, 78, 62
2, 79131, Note_on_c, 0, 78, 0
2, 79131, Note_on_c, 0, 80, 62
2, 79165, Note_on_c, 0, 80, 0
2, 79165, Note_on_c, 0, 82, 62
2, 79200, Note_on_c, 0, 82, 0
2, 79200, Control_c, 0, 64, 0
2, 79200, Note_on_c, 0, 83, 62
2, 79440, Note_on_c, 0, 83, 0
2, 79440, Note_on_c, 0, 74, 62
2, 79440, Note_on_c, 0, 78, 62
2, 79487, Note_on_c, 0, 78, 0
2, 79487, Note_on_c, 0, 74, 0
2, 79680, Note_on_c, 0, 74, 62
2, 79680, Note_on_c, 0, 78, 62
2, 79727, Note_on_c, 0, 78, 0
2, 79727, Note_on_c, 0, 74, 0
2, 79920, Note_on_c, 0, 74, 62
2, 79920, Note_on_c, 0, 78, 62
2, 80160, Note_on_c, 0, 78, 0
2, 80160, Note_on_c, 0, 74, 0
2, 80160, Note_on_c, 0, 74, 62
2, 80160, Note_on_c, 0, 77, 62
2, 80400, Note_on_c, 0, 77, 0
2, 80400, Note_on_c, 0, 74, 0
2, 80400, Note_on_c, 0, 73, 62
2, 80400, Note_on_c, 0, 76, 62
2, 80640, Note_on_c, 0, 76, 0
2, 80640, Note_on_c, 0, 73, 0
2, 80640, Control_c, 0, 64, 0
2, 80640, Note_on_c, 0, 71, 62
2, 80640, Note_on_c, 0, 74, 62
2, 80880, Note_on_c, 0, 74, 0
2, 80880, Note_on_c, 0, 71, 0
2, 80880, Note_on_c, 0, 74, 62
2, 80880, Note_on_c, 0, 78, 62
2, 80927, Note_on_c, 0, 78, 0
2, 80927, Note_on_c, 0, 74, 0
2, 81120, Note_on_c, 0, 74, 62
2, 81120, Note_on_c, 0, 78, 62
2, 81167, Note_on_c, 0, 78, 0
2, 81167, Note_on_c, 0, 74, 0
2, 81360, Note_on_c, 0, 74, 62
2, 81360, Note_on_c, 0, 78, 62
2, 81600, Note_on_c, 0, 78, 0
2, 81600, Note_on_c, 0, 74, 0
2, 81600, Note_on_c, 0, 74, 62
2, 81600, Note_on_c, 0, 77, 62
2, 81840, Note_on_c, 0, 77, 0
2, 81840, Note_on_c, 0, 74, 0
2, 81840, Note_on_c, 0, 73, 62
2, 81840, Note_on_c, 0, 76, 62
2, 82080, Note_on_c, 0, 76, 0
2, 82080, Note_on_c, 0, 73, 0
2, 82080, Note_on_c, 0, 66, 49
2, 82080, Note_on_c, 0, 71, 49
2, 82080, Note_on_c, 0, 74, 49
2, 82320, Note_on_c, 0, 74, 0
2, 82320, Note_on_c, 0, 71, 0
2, 82320, Note_on_c, 0, 66, 0
2, 82320, Note_on_c, 0, 59, 49
2, 82320, Note_on_c, 0, 62, 49
2, 82320, Note_on_c, 0, 66, 49
2, 82560, Note_on_c, 0, 66, 0
2, 82560, Note_on_c, 0, 62, 0
2, 82560, Note_on_c, 0, 59, 0
2, 82560, Note_on_c, 0, 59, 49
2, 82560, Note_on_c, 0, 62, 49
2, 82560, Note_on_c, 0, 66, 49
2, 82800, Note_on_c, 0, 66, 0
2, 82800, Note_on_c, 0, 62, 0
2, 82800, Note_on_c, 0, 59, 0
2, 82800, Note_on_c, 0, 62, 49
2, 82800, Note_on_c, 0, 66, 49
2, 83040, Note_on_c, 0, 66, 0
2, 83040, Note_on_c, 0, 62, 0
2, 83040, Note_on_c, 0, 62, 49
2, 83040, Note_on_c, 0, 66, 49
2, 83280, Note_on_c, 0, 66, 0
2, 83280, Note_on_c, 0, 62, 0
2, 83280, Note_on_c, 0, 62, 49
2, 83280, Note_on_c, 0, 66, 49
2, 83520, Note_on_c, 0, 66, 0
2, 83520, Note_on_c, 0, 62, 0
2, 83520, Note_on_c, 0, 60, 49
2, 83520, Note_on_c, 0, 63, 49
2, 83520, Note_on_c, 0, 66, 49
2, 83760, Note_on_c, 0, 66, 0
2, 83760, Note_on_c, 0, 63, 0
2, 83760, Note_on_c, 0, 60, 0
2, 84000, Control_c, 0, 64, 127
2, 84000, Note_on_c, 0, 75, 62
2, 84039, Note_on_c, 0, 75, 0
2, 84039, Note_on_c, 0, 76, 62
2, 84080, Note_on_c, 0, 76, 0
2, 84080, Note_on_c, 0, 78, 62
2, 84120, Note_on_c, 0, 78, 0
2, 84120, Note_on_c, 0, 80, 62
2, 84159, Note_on_c, 0, 80, 0
2, 84159, Note_on_c, 0, 81, 62
2, 84200, Note_on_c, 0, 81, 0
2, 84200, Note_on_c, 0, 83, 62
2, 84240, Note_on_c, 0, 83, 0
2, 84240, Control_c, 0, 64, 0
2, 84240, Note_on_c, 0, 84, 62
2, 84480, Note_on_c, 0, 84, 0
2, 84720, Control_c, 0, 64, 127
2, 84720, Note_on_c, 0, 80, 62
2, 84754, Note_on_c, 0, 80, 0
2, 84754, Note_on_c, 0, 82, 62
2, 84788, Note_on_c, 0, 82, 0
2, 84788, Note_on_c, 0, 84, 62
2, 84822, Note_on_c, 0, 84, 0
2, 84822, Note_on_c, 0, 85, 62
2, 84857, Note_on_c, 0, 85, 0
2, 84857, Note_on_c, 0, 87, 62
2, 84891, Note_on_c, 0, 87, 0
2, 84891, Note_on_c, 0, 89, 62
2, 84925, Note_on_c, 0, 89, 0
2, 84925, Control_c, 0, 64, 0
2, 84925, Note_on_c, 0, 91, 62
2, 84960, Note_on_c, 0, 91, 0
2, 84960, Note_on_c, 0, 92, 62
2, 85200, Note_on_c, 0, 92, 0
2, 85200, Control_c, 0, 64, 127
2, 85200, Note_on_c, 0, 60, 49
2, 85200, Note_on_c, 0, 63, 49
2, 85200, Note_on_c, 0, 66, 49
2, 85440, Note_on_c, 0, 66, 0
2, 85440, Note_on_c, 0, 63, 0
2, 85440, Note_on_c, 0, 60, 0
2, 85440, Note_on_c, 0, 60, 49
2, 85440, Note_on_c, 0, 63, 49
2, 85440, Note_on_c, 0, 66, 49
2, 85680, Note_on_c, 0, 66, 0
2, 85680, Note_on_c, 0, 63, 0
2, 85680, Note_on_c, 0, 60, 0
2, 85680, Note_on_c, 0, 60, 49
2, 85680, Note_on_c, 0, 63, 49
2, 85680, Note_on_c, 0, 66, 49
2, 85920, Note_on_c, 0, 66, 0
2, 85920, Note_on_c, 0, 63, 0
2, 85920, Note_on_c, 0, 60, 0
2, 85920, Note_on_c, 0, 60, 49
2, 85920, Note_on_c, 0, 63, 49
2, 85920, Note_on_c, 0, 66, 49
2, 86160, Note_on_c, 0, 66, 0
2, 86160, Note_on_c, 0, 63, 0
2, 86160, Note_on_c, 0, 60, 0
2, 86160, Control_c, 0, 64, 0
2, 86160, Note_on_c, 0, 60, 49
2, 86160, Note_on_c, 0, 63, 49
2, 86160, Note_on_c, 0, 66, 49
2, 86400, Note_on_c, 0, 66, 0
2, 86400, Note_on_c, 0, 63, 0
2, 86400, Note_on_c, 0, 60, 0
2, 86400, Note_on_c, 0, 68, 49
2, 86640, Note_on_c, 0, 68, 0
2, 86880, Control_c, 0, 64, 127
2, 86880, Note_on_c, 0, 68, 62
2, 86914, Note_on_c, 0, 68, 0
2, 86914, Note_on_c, 0, 70, 62
2, 86948, Note_on_c, 0, 70, 0
2, 86948, Note_on_c, 0, 72, 62
2, 86982, Note_on_c, 0, 72, 0
2, 86982, Note_on_c, 0, 73, 62
2, 87017, Note_on_c, 0, 73, 0
2, 87017, Note_on_c, 0, 75, 62
2, 87051, Note_on_c, 0, 75, 0
2, 87051, Note_on_c, 0, 76, 62
2, 87085, Note_on_c, 0, 76, 0
2, 87085, Note_on_c, 0, 78, 62
2, 87120, Note_on_c, 0, 78, 0
2, 87120, Control_c, 0, 64, 0
2, 87120, Note_on_c, 0, 80, 62
2, 87360, Note_on_c, 0, 80, 0
2, 87600, Note_on_c, 0, 73, 62
2, 87634, Note_on_c, 0, 73, 0
2, 87634, Note_on_c, 0, 75, 62
2, 87668, Note_on_c, 0, 75, 0
2, 87668, Note_on_c, 0, 76, 62
2, 87702, Note_on_c, 0, 76, 0
2, 87702, Note_on_c, 0, 78, 62
2, 87737, Note_on_c, 0, 78, 0
2, 87737, Note_on_c, 0, 80, 62
2, 87771, Note_on_c, 0, 80, 0
2, 87771, Note_on_c, 0, 82, 62
2, 87805, Note_on_c, 0, 82, 0
2, 87805, Note_on_c, 0, 84, 62
2, 87840, Note_on_c, 0, 84, 0
2, 87840, Note_on_c, 0, 73, 62
2, 87840, Note_on_c, 0, 85, 62
2, 88080, Note_on_c, 0, 85, 0
2, 88080, Note_on_c, 0, 73, 0
2, 88080, Note_on_c, 0, 68, 62
2, 88080, Note_on_c, 0, 73, 62
2, 88080, Note_on_c, 0, 80, 62
2, 88320, Note_on_c, 0, 80, 0
2, 88320, Note_on_c, 0, 73, 0
2, 88320, Note_on_c, 0, 68, 0
2, 88320, Note_on_c, 0, 68, 62
2, 88320, Note_on_c, 0, 73, 62
2, 88320, Note_on_c, 0, 80, 62
2, 88560, Note_on_c, 0, 80, 0
2, 88560, Note_on_c, 0, 73, 0
2, 88560, Note_on_c, 0, 68, 0
2, 88560, Control_c, 0, 64, 127
2, 88560, Note_on_c, 0, 68, 88
2, 88560, Note_on_c, 0, 80, 88
2, 88800, Note_on_c, 0, 80, 0
2, 88800, Note_on_c, 0, 68, 0
2, 88800, Note_on_c, 0, 67, 62
2, 88800, Note_on_c, 0, 79, 62
2, 89040, Note_on_c, 0, 79, 0
2, 89040, Note_on_c, 0, 67, 0
2, 89040, Note_on_c, 0, 66, 62
2, 89040, Note_on_c, 0, 78, 62
2, 89280, Note_on_c, 0, 78, 0
2, 89280, Note_on_c, 0, 66, 0
2, 89280, Control_c, 0, 64, 0
2, 89280, Note_on_c, 0, 64, 62
2, 89280, Note_on_c, 0, 73, 62
2, 89280, Note_on_c, 0, 76, 62
2, 89520, Note_on_c, 0, 76, 0
2, 89520, Note_on_c, 0, 73, 0
2, 89520, Note_on_c, 0, 64, 0
2, 89520, Note_on_c, 0, 68, 75
2, 89520, Note_on_c, 0, 73, 75
2, 89520, Note_on_c, 0, 76, 75
2, 89520, Note_on_c, 0, 80, 75
2, 89760, Note_on_c, 0, 80, 0
2, 89760, Note_on_c, 0, 68, 0
2, 89760, Note_on_c, 0, 73, 0
2, 89760, Note_on_c, 0, 76, 0
2, 89760, Note_on_c, 0, 68, 75
2, 89760, Note_on_c, 0, 73, 75
2, 89760, Note_on_c, 0, 76, 75
2, 89760, Note_on_c, 0, 80, 75
2, 90000, Note_on_c, 0, 80, 0
2, 90000, Note_on_c, 0, 68, 0
2, 90000, Note_on_c, 0, 73, 0
2, 90000, Note_on_c, 0, 76, 0
2, 90000, Control_c, 0, 64, 127
2, 90000, Note_on_c, 0, 68, 101
2, 90000, Note_on_c, 0, 80, 101
2, 90240, Note_on_c, 0, 80, 0
2, 90240, Note_on_c, 0, 68, 0
2, 90240, Note_on_c, 0, 67, 75
2, 90240, Note_on_c, 0, 79, 75
2, 90480, Note_on_c, 0, 79, 0
2, 90480, Note_on_c, 0, 67, 0
2, 90480, Note_on_c, 0, 66, 75
2, 90480, Note_on_c, 0, 78, 75
2, 90720, Note_on_c, 0, 78, 0
2, 90720, Note_on_c, 0, 66, 0
2, 90720, Control_c, 0, 64, 0
2, 90720, Note_on_c, 0, 64, 75
2, 90720, Note_on_c, 0, 74, 75
2, 90720, Note_on_c, 0, 76, 75
2, 90960, Note_on_c, 0, 76, 0
2, 90960, Note_on_c, 0, 74, 0
2, 90960, Note_on_c, 0, 64, 0
2, 90960, Note_on_c, 0, 69, 75
2, 90960, Note_on_c, 0, 73, 75
2, 90960, Note_on_c, 0, 81, 75
2, 91200, Note_on_c, 0, 81, 0
2, 91200, Note_on_c, 0, 73, 0
2, 91200, Note_on_c, 0, 69, 0
2, 91200, Note_on_c, 0, 69, 75
2, 91200, Note_on_c, 0, 74, 75
2, 91200, Note_on_c, 0, 81, 75
2, 91440, Note_on_c, 0, 81, 0
2, 91440, Note_on_c, 0, 74, 0
2, 91440, Note_on_c, 0, 69, 0
2, 91440, Control_c, 0, 64, 127
2, 91440, Note_on_c, 0, 69, 101
2, 91440, Note_on_c, 0, 81, 101
2, 91680, Note_on_c, 0, 81, 0
2, 91680, Note_on_c, 0, 69, 0
2, 91680, Note_on_c, 0, 68, 75
2, 91680, Note_on_c, 0, 80, 75
2, 91920, Note_on_c, 0, 80, 0
2, 91920, Note_on_c, 0, 68, 0
2, 91920, Note_on_c, 0, 67, 75
2, 91920, Note_on_c, 0, 79, 75
2, 92160, Note_on_c, 0, 79, 0
2, 92160, Note_on_c, 0, 67, 0
2, 92160, Control_c, 0, 64, 0
2, 92160, Note_on_c, 0, 65, 75
2, 92160, Note_on_c, 0, 74, 75
2, 92160, Note_on_c, 0, 77, 75
2, 92400, Note_on_c, 0, 77, 0
2, 92400, Note_on_c, 0, 74, 0
2, 92400, Note_on_c, 0, 65, 0
2, 92400, Note_on_c, 0, 69, 75
2, 92400, Note_on_c, 0, 74, 75
2, 92400, Note_on_c, 0, 77, 75
2, 92400, Note_on_c, 0, 81, 75
2, 92640, Note_on_c, 0, 81, 0
2, 92640, Note_on_c, 0, 69, 0
2, 92640, Note_on_c, 0, 74, 0
2, 92640, Note_on_c, 0, 77, 0
2, 92640, Note_on_c, 0, 69, 75
2, 92640, Note_on_c, 0, 74, 75
2, 92640, Note_on_c, 0, 77, 75
2, 92640, Note_on_c, 0, 81, 75
2, 92880, Note_on_c, 0, 81, 0
2, 92880, Note_on_c, 0, 69, 0
2, 92880, Note_on_c, 0, 74, 0
2, 92880, Note_on_c, 0, 77, 0
2, 92880, Control_c, 0, 64, 127
2, 92880, Note_on_c, 0, 69, 101
2, 92880, Note_on_c, 0, 81, 101
2, 93120, Note_on_c, 0, 81, 0
2, 93120, Note_on_c, 0, 69, 0
2, 93120, Note_on_c, 0, 68, 75
2, 93120, Note_on_c, 0, 80, 75
2, 93360, Note_on_c, 0, 80, 0
2, 93360, Note_on_c, 0, 68, 0
2, 93360, Control_c, 0, 64, 0
2, 93360, Note_on_c, 0, 67, 75
2, 93360, Note_on_c, 0, 79, 75
2, 93600, Note_on_c, 0, 79, 0
2, 93600, Note_on_c, 0, 67, 0
2, 93600, Note_on_c, 0, 65, 88
2, 93600, Note_on_c, 0, 74, 88
2, 93600, Note_on_c, 0, 77, 88
2, 93840, Note_on_c, 0, 77, 0
2, 93840, Note_on_c, 0, 74, 0
2, 93840, Note_on_c, 0, 65, 0
2, 93840, Note_on_c, 0, 69, 88
2, 93840, Note_on_c, 0, 74, 88
2, 93840, Note_on_c, 0, 81, 88
2, 94080, Note_on_c, 0, 81, 0
2, 94080, Note_on_c, 0, 74, 0
2, 94080, Note_on_c, 0, 69, 0
2, 94080, Note_on_c, 0, 67, 88
2, 94080, Note_on_c, 0, 74, 88
2, 94080, Note_on_c, 0, 79, 88
2, 94320, Note_on_c, 0, 79, 0
2, 94320, Note_on_c, 0, 74, 0
2, 94320, Note_on_c, 0, 67, 0
2, 94320, Note_on_c, 0, 65, 88
2, 94320, Note_on_c, 0, 74, 88
2, 94320, Note_on_c, 0, 77, 88
2, 94560, Note_on_c, 0, 77, 0
2, 94560, Note_on_c, 0, 74, 0
2, 94560, Note_on_c, 0, 65, 0
2, 94560, Note_on_c, 0, 69, 88
2, 94560, Note_on_c, 0, 74, 88
2, 94560, Note_on_c, 0, 81, 88
2, 94800, Note_on_c, 0, 81, 0
2, 94800, Note_on_c, 0, 74, 0
2, 94800, Note_on_c, 0, 69, 0
2, 94800, Note_on_c, 0, 67, 88
2, 94800, Note_on_c, 0, 74, 88
2, 94800, Note_on_c, 0, 79, 88
2, 95040, Note_on_c, 0, 79, 0
2, 95040, Note_on_c, 0, 74, 0
2, 95040, Note_on_c, 0, 67, 0
2, 95040, Note_on_c, 0, 65, 88
2, 95040, Note_on_c, 0, 74, 88
2, 95040, Note_on_c, 0, 77, 88
2, 95280, Note_on_c, 0, 77, 0
2, 95280, Note_on_c, 0, 74, 0
2, 95280, Note_on_c, 0, 65, 0
2, 95280, Note_on_c, 0, 68, 88
2, 95280, Note_on_c, 0, 74, 88
2, 95280, Note_on_c, 0, 80, 88
2, 95520, Note_on_c, 0, 80, 0
2, 95520, Note_on_c, 0, 74, 0
2, 95520, Note_on_c, 0, 68, 0
2, 95520, Note_on_c, 0, 67, 88
2, 95520, Note_on_c, 0, 74, 88
2, 95520, Note_on_c, 0, 79, 88
2, 95760, Note_on_c, 0, 79, 0
2, 95760, Note_on_c, 0, 74, 0
2, 95760, Note_on_c, 0, 67, 0
2, 95760, Note_on_c, 0, 65, 88
2, 95760, Note_on_c, 0, 74, 88
2, 95760, Note_on_c, 0, 77, 88
2, 96000, Note_on_c, 0, 77, 0
2, 96000, Note_on_c, 0, 74, 0
2, 96000, Note_on_c, 0, 65, 0
2, 96000, Note_on_c, 0, 68, 88
2, 96000, Note_on_c, 0, 74, 88
2, 96000, Note_on_c, 0, 80, 88
2, 96240, Note_on_c, 0, 80, 0
2, 96240, Note_on_c, 0, 74, 0
2, 96240, Note_on_c, 0, 68, 0
2, 96240, Note_on_c, 0, 67, 88
2, 96240, Note_on_c, 0, 74, 88
2, 96240, Note_on_c, 0, 79, 88
2, 96480, Note_on_c, 0, 79, 0
2, 96480, Note_on_c, 0, 74, 0
2, 96480, Note_on_c, 0, 67, 0
2, 96480, Note_on_c, 0, 69, 62
2, 96480, Note_on_c, 0, 77, 62
2, 96503, Note_on_c, 0, 77, 0
2, 96503, Note_on_c, 0, 69, 0
2, 96600, Note_on_c, 0, 69, 62
2, 96600, Note_on_c, 0, 77, 62
2, 96623, Note_on_c, 0, 77, 0
2, 96623, Note_on_c, 0, 69, 0
2, 96720, Note_on_c, 0, 69, 62
2, 96720, Note_on_c, 0, 76, 62
2, 96743, Note_on_c, 0, 76, 0
2, 96743, Note_on_c, 0, 69, 0
2, 96840, Note_on_c, 0, 69, 62
2, 96840, Note_on_c, 0, 76, 62
2, 96863, Note_on_c, 0, 76, 0
2, 96863, Note_on_c, 0, 69, 0
2, 96960, Note_on_c, 0, 69, 62
2, 96960, Note_on_c, 0, 74, 62
2, 96983, Note_on_c, 0, 74, 0
2, 96983, Note_on_c, 0, 69, 0
2, 97080, Note_on_c, 0, 69, 62
2, 97080, Note_on_c, 0, 74, 62
2, 97103, Note_on_c, 0, 74, 0
2, 97103, Note_on_c, 0, 69, 0
2, 97200, Note_on_c, 0, 65, 62
2, 97200, Note_on_c, 0, 69, 62
2, 97200, Note_on_c, 0, 72, 62
2, 97223, Note_on_c, 0, 72, 0
2, 97223, Note_on_c, 0, 69, 0
2, 97223, Note_on_c, 0, 65, 0
2, 97320, Note_on_c, 0, 65, 62
2, 97320, Note_on_c, 0, 69, 62
2, 97320, Note_on_c, 0, 72, 62
2, 97343, Note_on_c, 0, 72, 0
2, 97343, Note_on_c, 0, 69, 0
2, 97343, Note_on_c, 0, 65, 0
2, 97440, Note_on_c, 0, 65, 62
2, 97440, Note_on_c, 0, 70, 62
2, 97463, Note_on_c, 0, 70, 0
2, 97463, Note_on_c, 0, 65, 0
2, 97560, Note_on_c, 0, 65, 62
2, 97560, Note_on_c, 0, 70, 62
2, 97583, Note_on_c, 0, 70, 0
2, 97583, Note_on_c, 0, 65, 0
2, 97680, Note_on_c, 0, 65, 62
2, 97680, Note_on_c, 0, 69, 62
2, 97703, Note_on_c, 0, 69, 0
2, 97703, Note_on_c, 0, 65, 0
2, 97800, Note_on_c, 0, 65, 62
2, 97800, Note_on_c, 0, 69, 62
2, 97823, Note_on_c, 0, 69, 0
2, 97823, Note_on_c, 0, 65, 0
2, 97920, Note_on_c, 0, 64, 62
2, 97920, Note_on_c, 0, 67, 62
2, 97920, Note_on_c, 0, 74, 62
2, 97943, Note_on_c, 0, 74, 0
2, 97943, Note_on_c, 0, 67, 0
2, 97943, Note_on_c, 0, 64, 0
2, 98040, Note_on_c, 0, 64, 62
2, 98040, Note_on_c, 0, 67, 62
2, 98040, Note_on_c, 0, 74, 62
2, 98063, Note_on_c, 0, 74, 0
2, 98063, Note_on_c, 0, 67, 0
2, 98063, Note_on_c, 0, 64, 0
2, 98160, Note_on_c, 0, 64, 62
2, 98160, Note_on_c, 0, 67, 62
2, 98160, Note_on_c, 0, 71, 62
2, 98183, Note_on_c, 0, 71, 0
2, 98183, Note_on_c, 0, 67, 0
2, 98183, Note_on_c, 0, 64, 0
2, 98280, Note_on_c, 0, 64, 62
2, 98280, Note_on_c, 0, 67, 62
2, 98280, Note_on_c, 0, 71, 62
2, 98303, Note_on_c, 0, 71, 0
2, 98303, Note_on_c, 0, 67, 0
2, 98303, Note_on_c, 0, 64, 0
2, 98400, Note_on_c, 0, 64, 62
2, 98400, Note_on_c, 0, 67, 62
2, 98400, Note_on_c, 0, 72, 62
2, 98423, Note_on_c, 0, 72, 0
2, 98423, Note_on_c, 0, 67, 0
2, 98423, Note_on_c, 0, 64, 0
2, 98520, Note_on_c, 0, 64, 62
2, 98520, Note_on_c, 0, 67, 62
2, 98520, Note_on_c, 0, 72, 62
2, 98543, Note_on_c, 0, 72, 0
2, 98543, Note_on_c, 0, 67, 0
2, 98543, Note_on_c, 0, 64, 0
2, 98640, Note_on_c, 0, 64, 62
2, 98640, Note_on_c, 0, 67, 62
2, 98640, Note_on_c, 0, 74, 62
2, 98663, Note_on_c, 0, 74, 0
2, 98663, Note_on_c, 0, 67, 0
2, 98663, Note_on_c, 0, 64, 0
2, 98760, Note_on_c, 0, 64, 62
2, 98760, Note_on_c, 0, 67, 62
2, 98760, Note_on_c, 0, 74, 62
2, 98783, Note_on_c, 0, 74, 0
2, 98783, Note_on_c, 0, 67, 0
2, 98783, Note_on_c, 0, 64, 0
2, 98880, Note_on_c, 0, 64, 62
2, 98880, Note_on_c, 0, 67, 62
2, 98880, Note_on_c, 0, 71, 62
2, 98903, Note_on_c, 0, 71, 0
2, 98903, Note_on_c, 0, 67, 0
2, 98903, Note_on_c, 0, 64, 0
2, 99000, Note_on_c, 0, 64, 62
2, 99000, Note_on_c, 0, 67, 62
2, 99000, Note_on_c, 0, 71, 62
2, 99023, Note_on_c, 0, 71, 0
2, 99023, Note_on_c, 0, 67, 0
2, 99023, Note_on_c, 0, 64, 0
2, 99120, Note_on_c, 0, 64, 62
2, 99120, Note_on_c, 0, 67, 62
2, 99120, Note_on_c, 0, 72, 62
2, 99143, Note_on_c, 0, 72, 0
2, 99143, Note_on_c, 0, 67, 0
2, 99143, Note_on_c, 0, 64, 0
2, 99240, Note_on_c, 0, 64, 62
2, 99240, Note_on_c, 0, 67, 62
2, 99240, Note_on_c, 0, 72, 62
2, 99263, Note_on_c, 0, 72, 0
2, 99263, Note_on_c, 0, 67, 0
2, 99263, Note_on_c, 0, 64, 0
2, 99360, Note_on_c, 0, 65, 62
2, 99360, Note_on_c, 0, 69, 62
2, 99360, Note_on_c, 0, 74, 62
2, 99383, Note_on_c, 0, 74, 0
2, 99383, Note_on_c, 0, 69, 0
2, 99383, Note_on_c, 0, 65, 0
2, 99480, Note_on_c, 0, 65, 62
2, 99480, Note_on_c, 0, 69, 62
2, 99480, Note_on_c, 0, 74, 62
2, 99503, Note_on_c, 0, 74, 0
2, 99503, Note_on_c, 0, 69, 0
2, 99503, Note_on_c, 0, 65, 0
2, 99600, Note_on_c, 0, 65, 62
2, 99600, Note_on_c, 0, 69, 62
2, 99600, Note_on_c, 0, 71, 62
2, 99623, Note_on_c, 0, 71, 0
2, 99623, Note_on_c, 0, 69, 0
2, 99623, Note_on_c, 0, 65, 0
2, 99720, Note_on_c, 0, 65, 62
2, 99720, Note_on_c, 0, 69, 62
2, 99720, Note_on_c, 0, 71, 62
2, 99743, Note_on_c, 0, 71, 0
2, 99743, Note_on_c, 0, 69, 0
2, 99743, Note_on_c, 0, 65, 0
2, 99840, Note_on_c, 0, 65, 62
2, 99840, Note_on_c, 0, 69, 62
2, 99840, Note_on_c, 0, 72, 62
2, 99863, Note_on_c, 0, 72, 0
2, 99863, Note_on_c, 0, 69, 0
2, 99863, Note_on_c, 0, 65, 0
2, 99960, Note_on_c, 0, 69, 62
2, 99960, Note_on_c, 0, 72, 62
2, 99983, Note_on_c, 0, 72, 0
2, 99983, Note_on_c, 0, 69, 0
2, 100080, Note_on_c, 0, 71, 62
2, 100080, Note_on_c, 0, 76, 62
2, 100103, Note_on_c, 0, 76, 0
2, 100103, Note_on_c, 0, 71, 0
2, 100200, Note_on_c, 0, 71, 62
2, 100200, Note_on_c, 0, 76, 62
2, 100223, Note_on_c, 0, 76, 0
2, 100223, Note_on_c, 0, 71, 0
2, 100320, Note_on_c, 0, 71, 62
2, 100320, Note_on_c, 0, 73, 62
2, 100343, Note_on_c, 0, 73, 0
2, 100343, Note_on_c, 0, 71, 0
2, 100440, Note_on_c, 0, 71, 62
2, 100440, Note_on_c, 0, 73, 62
2, 100463, Note_on_c, 0, 73, 0
2, 100463, Note_on_c, 0, 71, 0
2, 100560, Note_on_c, 0, 71, 62
2, 100560, Note_on_c, 0, 74, 62
2, 100583, Note_on_c, 0, 74, 0
2, 100583, Note_on_c, 0, 71, 0
2, 100680, Note_on_c, 0, 71, 62
2, 100680, Note_on_c, 0, 74, 62
2, 100703, Note_on_c, 0, 74, 0
2, 100703, Note_on_c, 0, 71, 0
2, 100800, Note_on_c, 0, 67, 62
2, 100800, Note_on_c, 0, 70, 62
2, 100800, Note_on_c, 0, 77, 62
2, 100823, Note_on_c, 0, 77, 0
2, 100823, Note_on_c, 0, 70, 0
2, 100823, Note_on_c, 0, 67, 0
2, 100920, Note_on_c, 0, 67, 62
2, 100920, Note_on_c, 0, 70, 62
2, 100920, Note_on_c, 0, 77, 62
2, 100943, Note_on_c, 0, 77, 0
2, 100943, Note_on_c, 0, 70, 0
2, 100943, Note_on_c, 0, 67, 0
2, 101040, Note_on_c, 0, 67, 62
2, 101040, Note_on_c, 0, 70, 62
2, 101040, Note_on_c, 0, 75, 62
2, 101063, Note_on_c, 0, 75, 0
2, 101063, Note_on_c, 0, 70, 0
2, 101063, Note_on_c, 0, 67, 0
2, 101160, Note_on_c, 0, 67, 62
2, 101160, Note_on_c, 0, 70, 62
2, 101160, Note_on_c, 0, 75, 62
2, 101183, Note_on_c, 0, 75, 0
2, 101183, Note_on_c, 0, 70, 0
2, 101183, Note_on_c, 0, 67, 0
2, 101280, Note_on_c, 0, 67, 62
2, 101280, Note_on_c, 0, 70, 62
2, 101280, Note_on_c, 0, 76, 62
2, 101303, Note_on_c, 0, 76, 0
2, 101303, Note_on_c, 0, 70, 0
2, 101303, Note_on_c, 0, 67, 0
2, 101400, Note_on_c, 0, 67, 62
2, 101400, Note_on_c, 0, 70, 62
2, 101400, Note_on_c, 0, 76, 62
2, 101423, Note_on_c, 0, 76, 0
2, 101423, Note_on_c, 0, 70, 0
2, 101423, Note_on_c, 0, 67, 0
2, 101520, Note_on_c, 0, 67, 62
2, 101520, Note_on_c, 0, 70, 62
2, 101520, Note_on_c, 0, 77, 62
2, 101543, Note_on_c, 0, 77, 0
2, 101543, Note_on_c, 0, 70, 0
2, 101543, Note_on_c, 0, 67, 0
2, 101640, Note_on_c, 0, 67, 62
2, 101640, Note_on_c, 0, 70, 62
2, 101640, Note_on_c, 0, 77, 62
2, 101663, Note_on_c, 0, 77, 0
2, 101663, Note_on_c, 0, 70, 0
2, 101663, Note_on_c, 0, 67, 0
2, 101760, Note_on_c, 0, 67, 62
2, 101760, Note_on_c, 0, 70, 62
2, 101760, Note_on_c, 0, 75, 62
2, 101783, Note_on_c, 0, 75, 0
2, 101783, Note_on_c, 0, 70, 0
2, 101783, Note_on_c, 0, 67, 0
2, 101880, Note_on_c, 0, 67, 62
2, 101880, Note_on_c, 0, 70, 62
2, 101880, Note_on_c, 0, 75, 62
2, 101903, Note_on_c, 0, 75, 0
2, 101903, Note_on_c, 0, 70, 0
2, 101903, Note_on_c, 0, 67, 0
2, 102000, Note_on_c, 0, 67, 62
2, 102000, Note_on_c, 0, 70, 62
2, 102000, Note_on_c, 0, 76, 62
2, 102023, Note_on_c, 0, 76, 0
2, 102023, Note_on_c, 0, 70, 0
2, 102023, Note_on_c, 0, 67, 0
2, 102120, Note_on_c, 0, 67, 62
2, 102120, Note_on_c, 0, 70, 62
2, 102120, Note_on_c, 0, 76, 62
2, 102143, Note_on_c, 0, 76, 0
2, 102143, Note_on_c, 0, 70, 0
2, 102143, Note_on_c, 0, 67, 0
2, 102240, Note_on_c, 0, 69, 62
2, 102240, Note_on_c, 0, 74, 62
2, 102240, Note_on_c, 0, 81, 62
2, 102263, Note_on_c, 0, 81, 0
2, 102263, Note_on_c, 0, 74, 0
2, 102263, Note_on_c, 0, 69, 0
2, 102360, Note_on_c, 0, 69, 62
2, 102360, Note_on_c, 0, 74, 62
2, 102360, Note_on_c, 0, 81, 62
2, 102383, Note_on_c, 0, 81, 0
2, 102383, Note_on_c, 0, 74, 0
2, 102383, Note_on_c, 0, 69, 0
2, 102480, Note_on_c, 0, 65, 62
2, 102480, Note_on_c, 0, 74, 62
2, 102480, Note_on_c, 0, 77, 62
2, 102503, Note_on_c, 0, 77, 0
2, 102503, Note_on_c, 0, 74, 0
2, 102503, Note_on_c, 0, 65, 0
2, 102600, Note_on_c, 0, 65, 62
2, 102600, Note_on_c, 0, 74, 62
2, 102600, Note_on_c, 0, 77, 62
2, 102623, Note_on_c, 0, 77, 0
2, 102623, Note_on_c, 0, 74, 0
2, 102623, Note_on_c, 0, 65, 0
2, 102720, Note_on_c, 0, 67, 62
2, 102720, Note_on_c, 0, 74, 62
2, 102720, Note_on_c, 0, 79, 62
2, 102743, Note_on_c, 0, 79, 0
2, 102743, Note_on_c, 0, 74, 0
2, 102743, Note_on_c, 0, 67, 0
2, 102840, Note_on_c, 0, 67, 62
2, 102840, Note_on_c, 0, 74, 62
2, 102840, Note_on_c, 0, 79, 62
2, 102863, Note_on_c, 0, 79, 0
2, 102863, Note_on_c, 0, 74, 0
2, 102863, Note_on_c, 0, 67, 0
2, 102960, Note_on_c, 0, 69, 62
2, 102960, Note_on_c, 0, 74, 62
2, 102960, Note_on_c, 0, 81, 62
2, 102983, Note_on_c, 0, 81, 0
2, 102983, Note_on_c, 0, 74, 0
2, 102983, Note_on_c, 0, 69, 0
2, 103080, Note_on_c, 0, 69, 62
2, 103080, Note_on_c, 0, 74, 62
2, 103080, Note_on_c, 0, 81, 62
2, 103103, Note_on_c, 0, 81, 0
2, 103103, Note_on_c, 0, 74, 0
2, 103103, Note_on_c, 0, 69, 0
2, 103200, Note_on_c, 0, 74, 62
2, 103223, Note_on_c, 0, 74, 0
2, 103320, Note_on_c, 0, 74, 62
2, 103343, Note_on_c, 0, 74, 0
2, 103440, Note_on_c, 0, 74, 62
2, 103440, Note_on_c, 0, 76, 62
2, 103463, Note_on_c, 0, 76, 0
2, 103463, Note_on_c, 0, 74, 0
2, 103560, Note_on_c, 0, 74, 62
2, 103560, Note_on_c, 0, 76, 62
2, 103583, Note_on_c, 0, 76, 0
2, 103583, Note_on_c, 0, 74, 0
2, 103680, Note_on_c, 0, 67, 62
2, 103680, Note_on_c, 0, 73, 62
2, 103680, Note_on_c, 0, 77, 62
2, 103703, Note_on_c, 0, 77, 0
2, 103703, Note_on_c, 0, 73, 0
2, 103703, Note_on_c, 0, 67, 0
2, 103800, Note_on_c, 0, 67, 62
2, 103800, Note_on_c, 0, 73, 62
2, 103800, Note_on_c, 0, 77, 62
2, 103823, Note_on_c, 0, 77, 0
2, 103823, Note_on_c, 0, 73, 0
2, 103823, Note_on_c, 0, 67, 0
2, 103920, Note_on_c, 0, 67, 62
2, 103920, Note_on_c, 0, 73, 62
2, 103920, Note_on_c, 0, 75, 62
2, 103943, Note_on_c, 0, 75, 0
2, 103943, Note_on_c, 0, 73, 0
2, 103943, Note_on_c, 0, 67, 0
2, 104040, Note_on_c, 0, 67, 62
2, 104040, Note_on_c, 0, 73, 62
2, 104040, Note_on_c, 0, 75, 62
2, 104063, Note_on_c, 0, 75, 0
2, 104063, Note_on_c, 0, 73, 0
2, 104063, Note_on_c, 0, 67, 0
2, 104160, Note_on_c, 0, 67, 62
2, 104160, Note_on_c, 0, 73, 62
2, 104160, Note_on_c, 0, 76, 62
2, 104183, Note_on_c, 0, 76, 0
2, 104183, Note_on_c, 0, 73, 0
2, 104183, Note_on_c, 0, 67, 0
2, 104280, Note_on_c, 0, 67, 62
2, 104280, Note_on_c, 0, 73, 62
2, 104280, Note_on_c, 0, 76, 62
2, 104303, Note_on_c, 0, 76, 0
2, 104303, Note_on_c, 0, 73, 0
2, 104303, Note_on_c, 0, 67, 0
2, 104400, Note_on_c, 0, 67, 62
2, 104400, Note_on_c, 0, 73, 62
2, 104400, Note_on_c, 0, 77, 62
2, 104423, Note_on_c, 0, 77, 0
2, 104423, Note_on_c, 0, 73, 0
2, 104423, Note_on_c, 0, 67, 0
2, 104520, Note_on_c, 0, 67, 62
2, 104520, Note_on_c, 0, 73, 62
2, 104520, Note_on_c, 0, 77, 62
2, 104543, Note_on_c, 0, 77, 0
2, 104543, Note_on_c, 0, 73, 0
2, 104543, Note_on_c, 0, 67, 0
2, 104640, Note_on_c, 0, 67, 62
2, 104640, Note_on_c, 0, 73, 62
2, 104640, Note_on_c, 0, 75, 62
2, 104663, Note_on_c, 0, 75, 0
2, 104663, Note_on_c, 0, 73, 0
2, 104663, Note_on_c, 0, 67, 0
2, 104760, Note_on_c, 0, 67, 62
2, 104760, Note_on_c, 0, 73, 62
2, 104760, Note_on_c, 0, 75, 62
2, 104783, Note_on_c, 0, 75, 0
2, 104783, Note_on_c, 0, 73, 0
2, 104783, Note_on_c, 0, 67, 0
2, 104880, Note_on_c, 0, 67, 62
2, 104880, Note_on_c, 0, 73, 62
2, 104880, Note_on_c, 0, 76, 62
2, 104903, Note_on_c, 0, 76, 0
2, 104903, Note_on_c, 0, 73, 0
2, 104903, Note_on_c, 0, 67, 0
2, 105000, Note_on_c, 0, 67, 62
2, 105000, Note_on_c, 0, 73, 62
2, 105000, Note_on_c, 0, 76, 62
2, 105023, Note_on_c, 0, 76, 0
2, 105023, Note_on_c, 0, 73, 0
2, 105023, Note_on_c, 0, 67, 0
2, 105120, Note_on_c, 0, 69, 62
2, 105120, Note_on_c, 0, 76, 62
2, 105143, Note_on_c, 0, 76, 0
2, 105143, Note_on_c, 0, 69, 0
2, 105240, Note_on_c, 0, 69, 62
2, 105240, Note_on_c, 0, 76, 62
2, 105263, Note_on_c, 0, 76, 0
2, 105263, Note_on_c, 0, 69, 0
2, 105360, Note_on_c, 0, 69, 62
2, 105360, Note_on_c, 0, 73, 62
2, 105383, Note_on_c, 0, 73, 0
2, 105383, Note_on_c, 0, 69, 0
2, 105480, Note_on_c, 0, 69, 62
2, 105480, Note_on_c, 0, 73, 62
2, 105503, Note_on_c, 0, 73, 0
2, 105503, Note_on_c, 0, 69, 0
2, 105600, Note_on_c, 0, 69, 62
2, 105600, Note_on_c, 0, 74, 62
2, 105623, Note_on_c, 0, 74, 0
2, 105623, Note_on_c, 0, 69, 0
2, 105720, Note_on_c, 0, 69, 62
2, 105720, Note_on_c, 0, 74, 62
2, 105743, Note_on_c, 0, 74, 0
2, 105743, Note_on_c, 0, 69, 0
2, 105840, Note_on_c, 0, 69, 62
2, 105840, Note_on_c, 0, 74, 62
2, 105840, Note_on_c, 0, 79, 62
2, 105863, Note_on_c, 0, 79, 0
2, 105863, Note_on_c, 0, 74, 0
2, 105863, Note_on_c, 0, 69, 0
2, 105960, Note_on_c, 0, 69, 62
2, 105960, Note_on_c, 0, 74, 62
2, 105960, Note_on_c, 0, 79, 62
2, 105983, Note_on_c, 0, 79, 0
2, 105983, Note_on_c, 0, 74, 0
2, 105983, Note_on_c, 0, 69, 0
2, 106080, Note_on_c, 0, 69, 62
2, 106080, Note_on_c, 0, 74, 62
2, 106080, Note_on_c, 0, 76, 62
2, 106103, Note_on_c, 0, 76, 0
2, 106103, Note_on_c, 0, 74, 0
2, 106103, Note_on_c, 0, 69, 0
2, 106200, Note_on_c, 0, 69, 62
2, 106200, Note_on_c, 0, 74, 62
2, 106200, Note_on_c, 0, 76, 62
2, 106223, Note_on_c, 0, 76, 0
2, 106223, Note_on_c, 0, 74, 0
2, 106223, Note_on_c, 0, 69, 0
2, 106320, Note_on_c, 0, 69, 62
2, 106320, Note_on_c, 0, 74, 62
2, 106320, Note_on_c, 0, 77, 62
2, 106343, Note_on_c, 0, 77, 0
2, 106343, Note_on_c, 0, 74, 0
2, 106343, Note_on_c, 0, 69, 0
2, 106440, Note_on_c, 0, 69, 62
2, 106440, Note_on_c, 0, 74, 62
2, 106440, Note_on_c, 0, 77, 62
2, 106463, Note_on_c, 0, 77, 0
2, 106463, Note_on_c, 0, 74, 0
2, 106463, Note_on_c, 0, 69, 0
2, 106560, Note_on_c, 0, 62, 62
2, 106560, Note_on_c, 0, 65, 62
2, 106560, Note_on_c, 0, 69, 62
2, 106583, Note_on_c, 0, 69, 0
2, 106583, Note_on_c, 0, 65, 0
2, 106583, Note_on_c, 0, 62, 0
2, 106680, Note_on_c, 0, 62, 62
2, 106680, Note_on_c, 0, 65, 62
2, 106680, Note_on_c, 0, 69, 62
2, 106703, Note_on_c, 0, 69, 0
2, 106703, Note_on_c, 0, 65, 0
2, 106703, Note_on_c, 0, 62, 0
2, 106800, Note_on_c, 0, 62, 62
2, 106800, Note_on_c, 0, 66, 62
2, 106823, Note_on_c, 0, 66, 0
2, 106823, Note_on_c, 0, 62, 0
2, 106920, Note_on_c, 0, 62, 62
2, 106920, Note_on_c, 0, 66, 62
2, 106943, Note_on_c, 0, 66, 0
2, 106943, Note_on_c, 0, 62, 0
2, 107040, Note_on_c, 0, 65, 62
2, 107040, Note_on_c, 0, 67, 62
2, 107063, Note_on_c, 0, 67, 0
2, 107063, Note_on_c, 0, 65, 0
2, 107160, Note_on_c, 0, 65, 62
2, 107160, Note_on_c, 0, 67, 62
2, 107183, Note_on_c, 0, 67, 0
2, 107183, Note_on_c, 0, 65, 0
2, 107280, Note_on_c, 0, 58, 62
2, 107280, Note_on_c, 0, 64, 62
2, 107280, Note_on_c, 0, 69, 62
2, 107303, Note_on_c, 0, 69, 0
2, 107303, Note_on_c, 0, 64, 0
2, 107303, Note_on_c, 0, 58, 0
2, 107400, Note_on_c, 0, 58, 62
2, 107400, Note_on_c, 0, 64, 62
2, 107400, Note_on_c, 0, 69, 62
2, 107423, Note_on_c, 0, 69, 0
2, 107423, Note_on_c, 0, 64, 0
2, 107423, Note_on_c, 0, 58, 0
2, 107520, Note_on_c, 0, 58, 62
2, 107520, Note_on_c, 0, 64, 62
2, 107520, Note_on_c, 0, 66, 62
2, 107543, Note_on_c, 0, 66, 0
2, 107543, Note_on_c, 0, 64, 0
2, 107543, Note_on_c, 0, 58, 0
2, 107640, Note_on_c, 0, 58, 62
2, 107640, Note_on_c, 0, 64, 62
2, 107640, Note_on_c, 0, 66, 62
2, 107663, Note_on_c, 0, 66, 0
2, 107663, Note_on_c, 0, 64, 0
2, 107663, Note_on_c, 0, 58, 0
2, 107760, Note_on_c, 0, 58, 62
2, 107760, Note_on_c, 0, 64, 62
2, 107760, Note_on_c, 0, 67, 62
2, 107783, Note_on_c, 0, 67, 0
2, 107783, Note_on_c, 0, 64, 0
2, 107783, Note_on_c, 0, 58, 0
2, 107880, Note_on_c, 0, 58, 62
2, 107880, Note_on_c, 0, 64, 62
2, 107880, Note_on_c, 0, 67, 62
2, 107903, Note_on_c, 0, 67, 0
2, 107903, Note_on_c, 0, 64, 0
2, 107903, Note_on_c, 0, 58, 0
2, 108000, Note_on_c, 0, 65, 75
2, 108720, Note_on_c, 0, 65, 0
2, 108720, Note_on_c, 0, 57, 75
2, 109200, Note_on_c, 0, 57, 0
2, 109200, Note_on_c, 0, 62, 75
2, 109440, Note_on_c, 0, 62, 0
2, 109440, Note_on_c, 0, 55, 88
2, 110640, Note_on_c, 0, 55, 0
2, 110640, Note_on_c, 0, 60, 88
2, 110880, Note_on_c, 0, 60, 0
2, 110880, Note_on_c, 0, 62, 101
2, 111240, Note_on_c, 0, 62, 0
2, 111240, Note_on_c, 0, 64, 101
2, 111600, Note_on_c, 0, 64, 0
2, 111600, Note_on_c, 0, 65, 88
2, 111960, Note_on_c, 0, 65, 0
2, 111960, Note_on_c, 0, 67, 88
2, 112320, Note_on_c, 0, 67, 0
2, 112320, Note_on_c, 0, 69, 88
2, 113520, Note_on_c, 0, 69, 0
2, 113520, Note_on_c, 0, 64, 88
2, 113760, Note_on_c, 0, 64, 0
2, 113760, Note_on_c, 0, 65, 88
2, 114120, Note_on_c, 0, 65, 0
2, 114120, Note_on_c, 0, 67, 88
2, 114480, Note_on_c, 0, 67, 0
2, 114480, Note_on_c, 0, 69, 88
2, 114840, Note_on_c, 0, 69, 0
2, 114840, Note_on_c, 0, 70, 88
2, 115200, Note_on_c, 0, 70, 0
2, 115200, Note_on_c, 0, 72, 88
2, 115680, Note_on_c, 0, 72, 0
2, 115680, Note_on_c, 0, 72, 88
2, 116160, Note_on_c, 0, 72, 0
2, 116160, Note_on_c, 0, 72, 88
2, 116640, Note_on_c, 0, 72, 0
2, 116640, Note_on_c, 0, 72, 88
2, 117120, Note_on_c, 0, 72, 0
2, 117120, Note_on_c, 0, 72, 88
2, 117840, Note_on_c, 0, 72, 0
2, 117840, Note_on_c, 0, 74, 101
2, 118080, Note_on_c, 0, 74, 0
2, 118080, Note_on_c, 0, 72, 101
2, 118800, Note_on_c, 0, 72, 0
2, 118800, Note_on_c, 0, 71, 101
2, 119280, Note_on_c, 0, 71, 0
2, 119280, Note_on_c, 0, 67, 101
2, 119520, Note_on_c, 0, 67, 0
2, 119520, Note_on_c, 0, 70, 101
2, 120000, Note_on_c, 0, 70, 0
2, 120000, Note_on_c, 0, 70, 101
2, 120720, Note_on_c, 0, 70, 0
2, 120720, Note_on_c, 0, 72, 101
2, 120960, Note_on_c, 0, 72, 0
2, 120960, Note_on_c, 0, 70, 101
2, 121680, Note_on_c, 0, 70, 0
2, 121680, Note_on_c, 0, 69, 101
2, 122160, Note_on_c, 0, 69, 0
2, 122160, Note_on_c, 0, 65, 127
2, 122400, Note_on_c, 0, 65, 0
2, 122400, Note_on_c, 0, 67, 127
2, 122760, Note_on_c, 0, 67, 0
2, 122760, Note_on_c, 0, 65, 127
2, 123120, Note_on_c, 0, 65, 0
2, 123120, Note_on_c, 0, 64, 101
2, 123480, Note_on_c, 0, 64, 0
2, 123480, Note_on_c, 0, 62, 101
2, 123840, Note_on_c, 0, 62, 0
2, 123840, Note_on_c, 0, 65, 101
2, 123840, Note_on_c, 0, 69, 101
2, 123840, Note_on_c, 0, 77, 101
2, 124560, Note_on_c, 0, 77, 0
2, 124560, Note_on_c, 0, 69, 0
2, 124560, Note_on_c, 0, 65, 0
2, 124560, Note_on_c, 0, 65, 101
2, 124560, Note_on_c, 0, 69, 101
2, 125040, Note_on_c, 0, 69, 0
2, 125040, Note_on_c, 0, 65, 0
2, 125040, Note_on_c, 0, 65, 101
2, 125040, Note_on_c, 0, 69, 101
2, 125040, Note_on_c, 0, 74, 101
2, 125280, Note_on_c, 0, 74, 0
2, 125280, Note_on_c, 0, 69, 0
2, 125280, Note_on_c, 0, 65, 0
2, 125280, Note_on_c, 0, 67, 101
2, 126720, Note_on_c, 0, 67, 0
2, 126720, Note_on_c, 0, 65, 101
2, 126720, Note_on_c, 0, 69, 101
2, 126720, Note_on_c, 0, 77, 101
2, 127440, Note_on_c, 0, 77, 0
2, 127440, Note_on_c, 0, 69, 0
2, 127440, Note_on_c, 0, 65, 0
2, 127440, Note_on_c, 0, 65, 101
2, 127440, Note_on_c, 0, 69, 101
2, 127920, Note_on_c, 0, 69, 0
2, 127920, Note_on_c, 0, 65, 0
2, 127920, Note_on_c, 0, 65, 101
2, 127920, Note_on_c, 0, 69, 101
2, 127920, Note_on_c, 0, 74, 101
2, 128160, Note_on_c, 0, 74, 0
2, 128160, Note_on_c, 0, 69, 0
2, 128160, Note_on_c, 0, 65, 0
2, 128160, Note_on_c, 0, 67, 101
2, 129600, Note_on_c, 0, 67, 0
2, 129600, Note_on_c, 0, 62, 101
2, 129600, Note_on_c, 0, 65, 101
2, 129840, Note_on_c, 0, 65, 0
2, 129840, Note_on_c, 0, 62, 0
2, 130080, Note_on_c, 0, 68, 101
2, 130320, Note_on_c, 0, 68, 0
2, 130320, Note_on_c, 0, 74, 101
2, 130560, Note_on_c, 0, 74, 0
2, 130560, Note_on_c, 0, 65, 101
2, 130800, Note_on_c, 0, 65, 0
2, 130800, Note_on_c, 0, 68, 101
2, 130800, Note_on_c, 0, 74, 101
2, 131040, Note_on_c, 0, 74, 0
2, 131040, Note_on_c, 0, 68, 0
2, 131040, Note_on_c, 0, 62, 101
2, 131040, Note_on_c, 0, 77, 101
2, 131280, Note_on_c, 0, 77, 0
2, 131280, Note_on_c, 0, 62, 0
2, 131280, Note_on_c, 0, 68, 101
2, 131520, Note_on_c, 0, 68, 0
2, 131520, Note_on_c, 0, 74, 101
2, 131760, Note_on_c, 0, 74, 0
2, 131760, Note_on_c, 0, 65, 101
2, 132240, Note_on_c, 0, 65, 0
2, 132240, Note_on_c, 0, 74, 101
2, 132480, Note_on_c, 0, 74, 0
2, 132480, Note_on_c, 0, 62, 101
2, 132480, Note_on_c, 0, 77, 101
2, 132720, Note_on_c, 0, 77, 0
2, 132720, Note_on_c, 0, 62, 0
2, 132720, Note_on_c, 0, 68, 101
2, 132960, Note_on_c, 0, 68, 0
2, 132960, Note_on_c, 0, 74, 101
2, 133200, Note_on_c, 0, 74, 0
2, 133200, Note_on_c, 0, 65, 101
2, 133680, Note_on_c, 0, 65, 0
2, 133680, Note_on_c, 0, 74, 101
2, 133920, Note_on_c, 0, 74, 0
2, 133920, Note_on_c, 0, 68, 101
2, 133920, Note_on_c, 0, 74, 101
2, 133920, Note_on_c, 0, 77, 101
2, 134160, Note_on_c, 0, 77, 0
2, 134160, Note_on_c, 0, 74, 0
2, 134160, Note_on_c, 0, 68, 0
2, 134160, Note_on_c, 0, 62, 101
2, 134160, Note_on_c, 0, 65, 101
2, 134160, Note_on_c, 0, 68, 101
2, 134400, Note_on_c, 0, 68, 0
2, 134400, Note_on_c, 0, 65, 0
2, 134400, Note_on_c, 0, 62, 0
2, 134400, Note_on_c, 0, 65, 101
2, 134400, Note_on_c, 0, 68, 101
2, 134400, Note_on_c, 0, 74, 101
2, 134640, Note_on_c, 0, 74, 0
2, 134640, Note_on_c, 0, 68, 0
2, 134640, Note_on_c, 0, 65, 0
2, 134640, Note_on_c, 0, 68, 101
2, 134640, Note_on_c, 0, 74, 101
2, 134640, Note_on_c, 0, 77, 101
2, 134880, Note_on_c, 0, 77, 0
2, 134880, Note_on_c, 0, 74, 0
2, 134880, Note_on_c, 0, 68, 0
2, 134880, Note_on_c, 0, 62, 101
2, 134880, Note_on_c, 0, 65, 101
2, 134880, Note_on_c, 0, 68, 101
2, 135120, Note_on_c, 0, 68, 0
2, 135120, Note_on_c, 0, 65, 0
2, 135120, Note_on_c, 0, 62, 0
2, 135120, Note_on_c, 0, 65, 101
2, 135120, Note_on_c, 0, 68, 101
2, 135120, Note_on_c, 0, 74, 101
2, 135360, Note_on_c, 0, 74, 0
2, 135360, Note_on_c, 0, 68, 0
2, 135360, Note_on_c, 0, 65, 0
2, 135360, Note_on_c, 0, 68, 101
2, 135360, Note_on_c, 0, 74, 101
2, 135360, Note_on_c, 0, 77, 101
2, 135600, Note_on_c, 0, 77, 0
2, 135600, Note_on_c, 0, 74, 0
2, 135600, Note_on_c, 0, 68, 0
2, 135600, Note_on_c, 0, 62, 101
2, 135600, Note_on_c, 0, 65, 101
2, 135600, Note_on_c, 0, 68, 101
2, 135840, Note_on_c, 0, 68, 0
2, 135840, Note_on_c, 0, 65, 0
2, 135840, Note_on_c, 0, 62, 0
2, 135840, Note_on_c, 0, 65, 101
2, 135840, Note_on_c, 0, 68, 101
2, 135840, Note_on_c, 0, 74, 101
2, 136080, Note_on_c, 0, 74, 0
2, 136080, Note_on_c, 0, 68, 0
2, 136080, Note_on_c, 0, 65, 0
2, 136080, Note_on_c, 0, 68, 101
2, 136080, Note_on_c, 0, 74, 101
2, 136080, Note_on_c, 0, 77, 101
2, 136320, Note_on_c, 0, 77, 0
2, 136320, Note_on_c, 0, 74, 0
2, 136320, Note_on_c, 0, 68, 0
2, 136320, Note_on_c, 0, 62, 101
2, 136320, Note_on_c, 0, 65, 101
2, 136320, Note_on_c, 0, 68, 101
2, 136560, Note_on_c, 0, 68, 0
2, 136560, Note_on_c, 0, 65, 0
2, 136560, Note_on_c, 0, 62, 0
2, 136560, Note_on_c, 0, 65, 101
2, 136560, Note_on_c, 0, 68, 101
2, 136560, Note_on_c, 0, 74, 101
2, 136800, Note_on_c, 0, 74, 0
2, 136800, Note_on_c, 0, 68, 0
2, 136800, Note_on_c, 0, 65, 0
2, 136800, Note_on_c, 0, 68, 101
2, 136800, Note_on_c, 0, 74, 101
2, 136800, Note_on_c, 0, 77, 101
2, 137040, Note_on_c, 0, 77, 0
2, 137040, Note_on_c, 0, 74, 0
2, 137040, Note_on_c, 0, 68, 0
2, 138000, Note_on_c, 0, 80, 101
2, 138039, Note_on_c, 0, 80, 0
2, 138039, Note_on_c, 0, 82, 101
2, 138080, Note_on_c, 0, 82, 0
2, 138080, Note_on_c, 0, 83, 101
2, 138120, Note_on_c, 0, 83, 0
2, 138120, Note_on_c, 0, 85, 101
2, 138159, Note_on_c, 0, 85, 0
2, 138159, Note_on_c, 0, 86, 101
2, 138200, Note_on_c, 0, 86, 0
2, 138200, Note_on_c, 0, 88, 101
2, 138240, Note_on_c, 0, 88, 0
2, 138240, Note_on_c, 0, 77, 127
2, 138240, Note_on_c, 0, 80, 127
2, 138240, Note_on_c, 0, 86, 127
2, 138240, Note_on_c, 0, 89, 127
2, 138720, Note_on_c, 0, 89, 0
2, 138720, Note_on_c, 0, 77, 0
2, 138720, Note_on_c, 0, 80, 0
2, 138720, Note_on_c, 0, 86, 0
2, 140400, Note_on_c, 0, 86, 75
2, 140640, Note_on_c, 0, 86, 0
2, 140640, Note_on_c, 0, 89, 75
2, 140880, Note_on_c, 0, 89, 0
2, 140880, Note_on_c, 0, 81, 75
2, 141120, Note_on_c, 0, 81, 0
2, 141120, Note_on_c, 0, 86, 75
2, 141360, Note_on_c, 0, 86, 0
2, 141360, Note_on_c, 0, 79, 101
2, 141840, Note_on_c, 0, 79, 0
2, 141840, Note_on_c, 0, 84, 75
2, 142080, Note_on_c, 0, 84, 0
2, 142080, Note_on_c, 0, 89, 75
2, 142320, Note_on_c, 0, 89, 0
2, 142320, Note_on_c, 0, 81, 75
2, 142560, Note_on_c, 0, 81, 0
2, 142560, Note_on_c, 0, 86, 75
2, 142800, Note_on_c, 0, 86, 0
2, 142800, Note_on_c, 0, 79, 101
2, 143280, Note_on_c, 0, 79, 0
2, 143280, Note_on_c, 0, 84, 88
2, 143520, Note_on_c, 0, 84, 0
2, 143520, Note_on_c, 0, 86, 88
2, 143640, Note_on_c, 0, 86, 0
2, 143640, Note_on_c, 0, 88, 88
2, 143760, Note_on_c, 0, 88, 0
2, 143760, Note_on_c, 0, 89, 88
2, 143880, Note_on_c, 0, 89, 0
2, 143880, Note_on_c, 0, 88, 88
2, 144000, Note_on_c, 0, 88, 0
2, 144000, Note_on_c, 0, 86, 88
2, 144120, Note_on_c, 0, 86, 0
2, 144120, Note_on_c, 0, 88, 88
2, 144240, Note_on_c, 0, 88, 0
2, 144240, Note_on_c, 0, 89, 88
2, 144360, Note_on_c, 0, 89, 0
2, 144360, Note_on_c, 0, 88, 88
2, 144480, Note_on_c, 0, 88, 0
2, 144480, Note_on_c, 0, 86, 88
2, 144503, Note_on_c, 0, 86, 0
2, 144600, Note_on_c, 0, 84, 88
2, 144623, Note_on_c, 0, 84, 0
2, 144720, Note_on_c, 0, 86, 88
2, 144840, Note_on_c, 0, 86, 0
2, 144840, Note_on_c, 0, 81, 88
2, 144960, Note_on_c, 0, 81, 0
2, 144960, Note_on_c, 0, 84, 88
2, 144983, Note_on_c, 0, 84, 0
2, 145080, Note_on_c, 0, 82, 88
2, 145103, Note_on_c, 0, 82, 0
2, 145200, Note_on_c, 0, 81, 88
2, 145320, Note_on_c, 0, 81, 0
2, 145320, Note_on_c, 0, 79, 88
2, 145440, Note_on_c, 0, 79, 0
2, 145440, Note_on_c, 0, 81, 88
2, 145560, Note_on_c, 0, 81, 0
2, 145560, Note_on_c, 0, 79, 88
2, 145583, Note_on_c, 0, 79, 0
2, 145680, Note_on_c, 0, 77, 88
2, 145800, Note_on_c, 0, 77, 0
2, 145800, Note_on_c, 0, 76, 88
2, 145920, Note_on_c, 0, 76, 0
2, 145920, Note_on_c, 0, 81, 88
2, 146040, Note_on_c, 0, 81, 0
2, 146040, Note_on_c, 0, 79, 88
2, 146160, Note_on_c, 0, 79, 0
2, 146160, Note_on_c, 0, 86, 88
2, 146280, Note_on_c, 0, 86, 0
2, 146280, Note_on_c, 0, 84, 88
2, 146400, Note_on_c, 0, 84, 0
2, 146400, Note_on_c, 0, 89, 75
2, 146640, Note_on_c, 0, 89, 0
2, 146640, Note_on_c, 0, 81, 75
2, 146880, Note_on_c, 0, 81, 0
2, 146880, Note_on_c, 0, 86, 75
2, 147120, Note_on_c, 0, 86, 0
2, 147120, Note_on_c, 0, 79, 101
2, 147600, Note_on_c, 0, 79, 0
2, 147600, Note_on_c, 0, 84, 75
2, 147840, Note_on_c, 0, 84, 0
2, 147840, Note_on_c, 0, 89, 75
2, 148080, Note_on_c, 0, 89, 0
2, 148080, Note_on_c, 0, 81, 75
2, 148320, Note_on_c, 0, 81, 0
2, 148320, Note_on_c, 0, 86, 75
2, 148560, Note_on_c, 0, 86, 0
2, 148560, Note_on_c, 0, 79, 101
2, 149040, Note_on_c, 0, 79, 0
2, 149040, Note_on_c, 0, 84, 88
2, 149280, Note_on_c, 0, 84, 0
2, 149280, Note_on_c, 0, 86, 88
2, 149303, Note_on_c, 0, 86, 0
2, 149400, Note_on_c, 0, 88, 88
2, 149520, Note_on_c, 0, 88, 0
2, 149520, Note_on_c, 0, 89, 88
2, 149640, Note_on_c, 0, 89, 0
2, 149640, Note_on_c, 0, 88, 88
2, 149760, Note_on_c, 0, 88, 0
2, 149760, Note_on_c, 0, 86, 88
2, 149783, Note_on_c, 0, 86, 0
2, 149880, Note_on_c, 0, 88, 88
2, 149903, Note_on_c, 0, 88, 0
2, 150000, Note_on_c, 0, 89, 88
2, 150120, Note_on_c, 0, 89, 0
2, 150120, Note_on_c, 0, 88, 88
2, 150240, Note_on_c, 0, 88, 0
2, 150240, Note_on_c, 0, 86, 88
2, 150263, Note_on_c, 0, 86, 0
2, 150360, Note_on_c, 0, 84, 88
2, 150383, Note_on_c, 0, 84, 0
2, 150480, Note_on_c, 0, 86, 88
2, 150600, Note_on_c, 0, 86, 0
2, 150600, Note_on_c, 0, 81, 88
2, 150720, Note_on_c, 0, 81, 0
2, 150720, Note_on_c, 0, 84, 88
2, 150840, Note_on_c, 0, 84, 0
2, 150840, Note_on_c, 0, 82, 88
2, 150863, Note_on_c, 0, 82, 0
2, 150960, Note_on_c, 0, 82, 88
2, 151080, Note_on_c, 0, 82, 0
2, 151080, Note_on_c, 0, 81, 88
2, 151200, Note_on_c, 0, 81, 0
2, 151200, Note_on_c, 0, 81, 88
2, 151320, Note_on_c, 0, 81, 0
2, 151320, Note_on_c, 0, 79, 88
2, 151440, Note_on_c, 0, 79, 0
2, 151440, Note_on_c, 0, 77, 101
2, 151463, Note_on_c, 0, 77, 0
2, 151560, Note_on_c, 0, 77, 101
2, 151680, Note_on_c, 0, 77, 0
2, 151680, Note_on_c, 0, 81, 101
2, 151800, Note_on_c, 0, 81, 0
2, 151800, Note_on_c, 0, 77, 101
2, 151920, Note_on_c, 0, 77, 0
2, 151920, Note_on_c, 0, 74, 101
2, 152040, Note_on_c, 0, 74, 0
2, 152040, Note_on_c, 0, 72, 101
2, 152063, Note_on_c, 0, 72, 0
2, 152160, Note_on_c, 0, 67, 127
2, 152160, Note_on_c, 0, 71, 127
2, 152520, Note_on_c, 0, 71, 0
2, 152520, Note_on_c, 0, 67, 0
2, 152520, Note_on_c, 0, 67, 101
2, 152520, Note_on_c, 0, 72, 101
2, 152640, Note_on_c, 0, 72, 0
2, 152640, Note_on_c, 0, 67, 0
2, 152640, Note_on_c, 0, 67, 101
2, 152640, Note_on_c, 0, 73, 101
2, 152880, Note_on_c, 0, 73, 0
2, 152880, Note_on_c, 0, 67, 0
2, 152880, Note_on_c, 0, 74, 101
2, 153000, Note_on_c, 0, 74, 0
2, 153000, Note_on_c, 0, 79, 101
2, 153120, Note_on_c, 0, 79, 0
2, 153120, Note_on_c, 0, 86, 101
2, 153240, Note_on_c, 0, 86, 0
2, 153240, Note_on_c, 0, 83, 101
2, 153360, Note_on_c, 0, 83, 0
2, 153360, Note_on_c, 0, 79, 101
2, 153383, Note_on_c, 0, 79, 0
2, 153480, Note_on_c, 0, 77, 101
2, 153600, Note_on_c, 0, 77, 0
2, 153600, Note_on_c, 0, 72, 127
2, 153600, Note_on_c, 0, 76, 127
2, 153960, Note_on_c, 0, 76, 0
2, 153960, Note_on_c, 0, 72, 0
2, 153960, Note_on_c, 0, 72, 101
2, 153960, Note_on_c, 0, 77, 101
2, 154080, Note_on_c, 0, 77, 0
2, 154080, Note_on_c, 0, 72, 0
2, 154080, Note_on_c, 0, 72, 101
2, 154080, Note_on_c, 0, 78, 101
2, 154320, Note_on_c, 0, 78, 0
2, 154320, Note_on_c, 0, 72, 0
2, 154320, Note_on_c, 0, 79, 88
2, 154440, Note_on_c, 0, 79, 0
2, 154440, Control_c, 0, 64, 127
2, 154440, Note_on_c, 0, 84, 88
2, 154560, Note_on_c, 0, 84, 0
2, 154560, Note_on_c, 0, 88, 88
2, 154680, Note_on_c, 0, 88, 0
2, 154680, Note_on_c, 0, 86, 88
2, 154800, Note_on_c, 0, 86, 0
2, 154800, Note_on_c, 0, 84, 88
2, 154920, Note_on_c, 0, 84, 0
2, 154920, Note_on_c, 0, 83, 88
2, 155040, Note_on_c, 0, 83, 0
2, 155040, Control_c, 0, 64, 0
2, 155040, Note_on_c, 0, 81, 88
2, 155160, Note_on_c, 0, 81, 0
2, 155160, Note_on_c, 0, 84, 88
2, 155280, Note_on_c, 0, 84, 0
2, 155280, Control_c, 0, 64, 127
2, 155280, Note_on_c, 0, 89, 88
2, 155400, Note_on_c, 0, 89, 0
2, 155400, Note_on_c, 0, 86, 88
2, 155520, Note_on_c, 0, 86, 0
2, 155520, Note_on_c, 0, 83, 88
2, 155640, Note_on_c, 0, 83, 0
2, 155640, Note_on_c, 0, 81, 88
2, 155760, Note_on_c, 0, 81, 0
2, 155760, Control_c, 0, 64, 0
2, 155760, Note_on_c, 0, 79, 88
2, 155880, Note_on_c, 0, 79, 0
2, 155880, Control_c, 0, 64, 127
2, 155880, Note_on_c, 0, 84, 88
2, 156000, Note_on_c, 0, 84, 0
2, 156000, Note_on_c, 0, 88, 88
2, 156120, Note_on_c, 0, 88, 0
2, 156120, Note_on_c, 0, 84, 88
2, 156240, Note_on_c, 0, 84, 0
2, 156240, Note_on_c, 0, 81, 88
2, 156360, Note_on_c, 0, 81, 0
2, 156360, Note_on_c, 0, 79, 88
2, 156480, Note_on_c, 0, 79, 0
2, 156480, Control_c, 0, 64, 0
2, 156480, Note_on_c, 0, 78, 88
2, 156600, Note_on_c, 0, 78, 0
2, 156600, Control_c, 0, 64, 127
2, 156600, Note_on_c, 0, 81, 88
2, 156720, Note_on_c, 0, 81, 0
2, 156720, Note_on_c, 0, 86, 88
2, 156840, Note_on_c, 0, 86, 0
2, 156840, Note_on_c, 0, 84, 88
2, 156960, Note_on_c, 0, 84, 0
2, 156960, Note_on_c, 0, 81, 88
2, 157080, Note_on_c, 0, 81, 0
2, 157080, Control_c, 0, 64, 0
2, 157080, Note_on_c, 0, 78, 88
2, 157200, Note_on_c, 0, 78, 0
2, 157200, Note_on_c, 0, 79, 101
2, 157320, Note_on_c, 0, 79, 0
2, 157320, Note_on_c, 0, 78, 101
2, 157440, Note_on_c, 0, 78, 0
2, 157440, Note_on_c, 0, 81, 101
2, 157560, Note_on_c, 0, 81, 0
2, 157560, Note_on_c, 0, 79, 101
2, 157680, Note_on_c, 0, 79, 0
2, 157680, Note_on_c, 0, 76, 101
2, 157800, Note_on_c, 0, 76, 0
2, 157800, Note_on_c, 0, 72, 101
2, 157920, Note_on_c, 0, 72, 0
2, 157920, Note_on_c, 0, 67, 127
2, 157920, Note_on_c, 0, 71, 127
2, 158280, Note_on_c, 0, 71, 0
2, 158280, Note_on_c, 0, 67, 0
2, 158280, Note_on_c, 0, 67, 101
2, 158280, Note_on_c, 0, 72, 101
2, 158400, Note_on_c, 0, 72, 0
2, 158400, Note_on_c, 0, 67, 0
2, 158400, Note_on_c, 0, 67, 101
2, 158400, Note_on_c, 0, 73, 101
2, 158640, Note_on_c, 0, 73, 0
2, 158640, Note_on_c, 0, 67, 0
2, 158640, Note_on_c, 0, 74, 101
2, 158760, Note_on_c, 0, 74, 0
2, 158760, Note_on_c, 0, 79, 101
2, 158880, Note_on_c, 0, 79, 0
2, 158880, Note_on_c, 0, 86, 101
2, 159000, Note_on_c, 0, 86, 0
2, 159000, Note_on_c, 0, 83, 101
2, 159120, Note_on_c, 0, 83, 0
2, 159120, Note_on_c, 0, 79, 101
2, 159143, Note_on_c, 0, 79, 0
2, 159240, Note_on_c, 0, 77, 101
2, 159360, Note_on_c, 0, 77, 0
2, 159360, Note_on_c, 0, 72, 127
2, 159360, Note_on_c, 0, 76, 127
2, 159720, Note_on_c, 0, 76, 0
2, 159720, Note_on_c, 0, 72, 0
2, 159720, Note_on_c, 0, 72, 101
2, 159720, Note_on_c, 0, 77, 101
2, 159840, Note_on_c, 0, 77, 0
2, 159840, Note_on_c, 0, 72, 0
2, 159840, Note_on_c, 0, 72, 101
2, 159840, Note_on_c, 0, 78, 101
2, 160080, Note_on_c, 0, 78, 0
2, 160080, Note_on_c, 0, 72, 0
2, 160080, Note_on_c, 0, 79, 88
2, 160200, Note_on_c, 0, 79, 0
2, 160200, Control_c, 0, 64, 127
2, 160200, Note_on_c, 0, 84, 88
2, 160320, Note_on_c, 0, 84, 0
2, 160320, Note_on_c, 0, 88, 88
2, 160440, Note_on_c, 0, 88, 0
2, 160440, Note_on_c, 0, 86, 88
2, 160560, Note_on_c, 0, 86, 0
2, 160560, Note_on_c, 0, 84, 88
2, 160680, Note_on_c, 0, 84, 0
2, 160680, Note_on_c, 0, 83, 88
2, 160800, Note_on_c, 0, 83, 0
2, 160800, Control_c, 0, 64, 0
2, 160800, Note_on_c, 0, 81, 88
2, 160920, Note_on_c, 0, 81, 0
2, 160920, Control_c, 0, 64, 127
2, 160920, Note_on_c, 0, 83, 88
2, 161040, Note_on_c, 0, 83, 0
2, 161040, Note_on_c, 0, 86, 88
2, 161160, Note_on_c, 0, 86, 0
2, 161160, Note_on_c, 0, 84, 88
2, 161280, Note_on_c, 0, 84, 0
2, 161280, Note_on_c, 0, 83, 88
2, 161400, Note_on_c, 0, 83, 0
2, 161400, Control_c, 0, 64, 0
2, 161400, Note_on_c, 0, 81, 88
2, 161520, Note_on_c, 0, 81, 0
2, 161520, Note_on_c, 0, 80, 88
2, 161640, Note_on_c, 0, 80, 0
2, 161640, Note_on_c, 0, 79, 88
2, 161760, Note_on_c, 0, 79, 0
2, 161760, Note_on_c, 0, 82, 88
2, 161880, Note_on_c, 0, 82, 0
2, 161880, Note_on_c, 0, 80, 88
2, 162000, Note_on_c, 0, 80, 0
2, 162000, Note_on_c, 0, 75, 88
2, 162120, Note_on_c, 0, 75, 0
2, 162120, Note_on_c, 0, 74, 88
2, 162240, Note_on_c, 0, 74, 0
2, 162240, Note_on_c, 0, 72, 88
2, 162360, Note_on_c, 0, 72, 0
2, 162360, Note_on_c, 0, 76, 88
2, 162480, Note_on_c, 0, 76, 0
2, 162480, Note_on_c, 0, 81, 88
2, 162600, Note_on_c, 0, 81, 0
2, 162600, Note_on_c, 0, 79, 88
2, 162720, Note_on_c, 0, 79, 0
2, 162720, Note_on_c, 0, 71, 88
2, 162720, Note_on_c, 0, 77, 88
2, 162840, Note_on_c, 0, 77, 0
2, 162840, Note_on_c, 0, 71, 0
2, 162840, Note_on_c, 0, 74, 88
2, 162960, Note_on_c, 0, 74, 0
2, 162960, Note_on_c, 0, 72, 101
2, 163080, Note_on_c, 0, 72, 0
2, 163080, Note_on_c, 0, 78, 101
2, 163200, Note_on_c, 0, 78, 0
2, 163200, Note_on_c, 0, 81, 101
2, 163320, Note_on_c, 0, 81, 0
2, 163320, Note_on_c, 0, 79, 101
2, 163440, Note_on_c, 0, 79, 0
2, 163440, Note_on_c, 0, 76, 101
2, 163560, Note_on_c, 0, 76, 0
2, 163560, Note_on_c, 0, 72, 101
2, 163680, Note_on_c, 0, 72, 0
2, 163680, Note_on_c, 0, 67, 127
2, 163680, Note_on_c, 0, 71, 127
2, 164040, Note_on_c, 0, 71, 0
2, 164040, Note_on_c, 0, 67, 0
2, 164040, Note_on_c, 0, 67, 101
2, 164040, Note_on_c, 0, 72, 101
2, 164160, Note_on_c, 0, 72, 0
2, 164160, Note_on_c, 0, 67, 0
2, 164160, Note_on_c, 0, 67, 101
2, 164160, Note_on_c, 0, 73, 101
2, 164400, Note_on_c, 0, 73, 0
2, 164400, Note_on_c, 0, 67, 0
2, 164400, Note_on_c, 0, 74, 101
2, 164520, Note_on_c, 0, 74, 0
2, 164520, Note_on_c, 0, 79, 101
2, 164640, Note_on_c, 0, 79, 0
2, 164640, Note_on_c, 0, 86, 101
2, 164760, Note_on_c, 0, 86, 0
2, 164760, Note_on_c, 0, 83, 101
2, 164880, Note_on_c, 0, 83, 0
2, 164880, Note_on_c, 0, 79, 101
2, 164903, Note_on_c, 0, 79, 0
2, 165000, Note_on_c, 0, 77, 101
2, 165120, Note_on_c, 0, 77, 0
2, 165120, Note_on_c, 0, 72, 127
2, 165120, Note_on_c, 0, 76, 127
2, 165480, Note_on_c, 0, 76, 0
2, 165480, Note_on_c, 0, 72, 0
2, 165480, Note_on_c, 0, 72, 101
2, 165480, Note_on_c, 0, 77, 101
2, 165600, Note_on_c, 0, 77, 0
2, 165600, Note_on_c, 0, 72, 0
2, 165600, Note_on_c, 0, 72, 101
2, 165600, Note_on_c, 0, 78, 101
2, 165840, Note_on_c, 0, 78, 0
2, 165840, Note_on_c, 0, 72, 0
2, 165840, Note_on_c, 0, 79, 88
2, 165960, Note_on_c, 0, 79, 0
2, 165960, Control_c, 0, 64, 127
2, 165960, Note_on_c, 0, 84, 88
2, 166080, Note_on_c, 0, 84, 0
2, 166080, Note_on_c, 0, 88, 88
2, 166200, Note_on_c, 0, 88, 0
2, 166200, Note_on_c, 0, 86, 88
2, 166320, Note_on_c, 0, 86, 0
2, 166320, Note_on_c, 0, 84, 88
2, 166440, Note_on_c, 0, 84, 0
2, 166440, Note_on_c, 0, 83, 88
2, 166560, Note_on_c, 0, 83, 0
2, 166560, Control_c, 0, 64, 0
2, 166560, Note_on_c, 0, 81, 88
2, 166680, Note_on_c, 0, 81, 0
2, 166680, Control_c, 0, 64, 127
2, 166680, Note_on_c, 0, 84, 88
2, 166800, Note_on_c, 0, 84, 0
2, 166800, Note_on_c, 0, 89, 88
2, 166920, Note_on_c, 0, 89, 0
2, 166920, Note_on_c, 0, 86, 88
2, 167040, Note_on_c, 0, 86, 0
2, 167040, Note_on_c, 0, 83, 88
2, 167160, Note_on_c, 0, 83, 0
2, 167160, Note_on_c, 0, 81, 88
2, 167280, Note_on_c, 0, 81, 0
2, 167280, Control_c, 0, 64, 0
2, 167280, Note_on_c, 0, 79, 88
2, 167400, Note_on_c, 0, 79, 0
2, 167400, Control_c, 0, 64, 127
2, 167400, Note_on_c, 0, 84, 88
2, 167520, Note_on_c, 0, 84, 0
2, 167520, Note_on_c, 0, 88, 88
2, 167640, Note_on_c, 0, 88, 0
2, 167640, Note_on_c, 0, 84, 88
2, 167760, Note_on_c, 0, 84, 0
2, 167760, Note_on_c, 0, 81, 88
2, 167880, Note_on_c, 0, 81, 0
2, 167880, Note_on_c, 0, 79, 88
2, 168000, Note_on_c, 0, 79, 0
2, 168000, Control_c, 0, 64, 0
2, 168000, Note_on_c, 0, 78, 88
2, 168120, Note_on_c, 0, 78, 0
2, 168120, Control_c, 0, 64, 127
2, 168120, Note_on_c, 0, 81, 88
2, 168240, Note_on_c, 0, 81, 0
2, 168240, Note_on_c, 0, 86, 88
2, 168360, Note_on_c, 0, 86, 0
2, 168360, Note_on_c, 0, 84, 88
2, 168480, Note_on_c, 0, 84, 0
2, 168480, Note_on_c, 0, 81, 88
2, 168600, Note_on_c, 0, 81, 0
2, 168600, Control_c, 0, 64, 0
2, 168600, Note_on_c, 0, 78, 88
2, 168720, Note_on_c, 0, 78, 0
2, 168720, Note_on_c, 0, 79, 101
2, 168840, Note_on_c, 0, 79, 0
2, 168840, Note_on_c, 0, 78, 101
2, 168960, Note_on_c, 0, 78, 0
2, 168960, Note_on_c, 0, 81, 101
2, 169080, Note_on_c, 0, 81, 0
2, 169080, Note_on_c, 0, 79, 101
2, 169200, Note_on_c, 0, 79, 0
2, 169200, Note_on_c, 0, 76, 101
2, 169320, Note_on_c, 0, 76, 0
2, 169320, Note_on_c, 0, 72, 101
2, 169440, Note_on_c, 0, 72, 0
2, 169440, Note_on_c, 0, 67, 127
2, 169440, Note_on_c, 0, 71, 127
2, 169800, Note_on_c, 0, 71, 0
2, 169800, Note_on_c, 0, 67, 0
2, 169800, Note_on_c, 0, 67, 101
2, 169800, Note_on_c, 0, 72, 101
2, 169920, Note_on_c, 0, 72, 0
2, 169920, Note_on_c, 0, 67, 0
2, 169920, Note_on_c, 0, 67, 101
2, 169920, Note_on_c, 0, 73, 101
2, 170160, Note_on_c, 0, 73, 0
2, 170160, Note_on_c, 0, 67, 0
2, 170160, Note_on_c, 0, 74, 101
2, 170280, Note_on_c, 0, 74, 0
2, 170280, Note_on_c, 0, 79, 101
2, 170400, Note_on_c, 0, 79, 0
2, 170400, Note_on_c, 0, 86, 101
2, 170520, Note_on_c, 0, 86, 0
2, 170520, Note_on_c, 0, 83, 101
2, 170640, Note_on_c, 0, 83, 0
2, 170640, Note_on_c, 0, 79, 101
2, 170663, Note_on_c, 0, 79, 0
2, 170760, Note_on_c, 0, 77, 101
2, 170880, Note_on_c, 0, 77, 0
2, 170880, Note_on_c, 0, 72, 127
2, 170880, Note_on_c, 0, 76, 127
2, 171240, Note_on_c, 0, 76, 0
2, 171240, Note_on_c, 0, 72, 0
2, 171240, Note_on_c, 0, 72, 101
2, 171240, Note_on_c, 0, 77, 101
2, 171360, Note_on_c, 0, 77, 0
2, 171360, Note_on_c, 0, 72, 0
2, 171360, Note_on_c, 0, 72, 101
2, 171360, Note_on_c, 0, 78, 101
2, 171600, Note_on_c, 0, 78, 0
2, 171600, Note_on_c, 0, 72, 0
2, 171600, Note_on_c, 0, 79, 88
2, 171720, Note_on_c, 0, 79, 0
2, 171720, Control_c, 0, 64, 127
2, 171720, Note_on_c, 0, 84, 88
2, 171840, Note_on_c, 0, 84, 0
2, 171840, Note_on_c, 0, 88, 88
2, 171960, Note_on_c, 0, 88, 0
2, 171960, Note_on_c, 0, 86, 88
2, 172080, Note_on_c, 0, 86, 0
2, 172080, Note_on_c, 0, 84, 88
2, 172200, Note_on_c, 0, 84, 0
2, 172200, Note_on_c, 0, 83, 88
2, 172320, Note_on_c, 0, 83, 0
2, 172320, Control_c, 0, 64, 0
2, 172320, Note_on_c, 0, 81, 88
2, 172440, Note_on_c, 0, 81, 0
2, 172440, Control_c, 0, 64, 127
2, 172440, Note_on_c, 0, 83, 88
2, 172560, Note_on_c, 0, 83, 0
2, 172560, Note_on_c, 0, 86, 88
2, 172680, Note_on_c, 0, 86, 0
2, 172680, Note_on_c, 0, 84, 88
2, 172800, Note_on_c, 0, 84, 0
2, 172800, Note_on_c, 0, 83, 88
2, 172920, Note_on_c, 0, 83, 0
2, 172920, Control_c, 0, 64, 0
2, 172920, Note_on_c, 0, 81, 88
2, 173040, Note_on_c, 0, 81, 0
2, 173040, Note_on_c, 0, 80, 88
2, 173160, Note_on_c, 0, 80, 0
2, 173160, Note_on_c, 0, 79, 88
2, 173280, Note_on_c, 0, 79, 0
2, 173280, Note_on_c, 0, 82, 88
2, 173400, Note_on_c, 0, 82, 0
2, 173400, Note_on_c, 0, 80, 88
2, 173520, Note_on_c, 0, 80, 0
2, 173520, Note_on_c, 0, 75, 88
2, 173640, Note_on_c, 0, 75, 0
2, 173640, Note_on_c, 0, 74, 88
2, 173760, Note_on_c, 0, 74, 0
2, 173760, Note_on_c, 0, 72, 88
2, 173880, Note_on_c, 0, 72, 0
2, 173880, Note_on_c, 0, 76, 88
2, 174000, Note_on_c, 0, 76, 0
2, 174000, Note_on_c, 0, 81, 88
2, 174120, Note_on_c, 0, 81, 0
2, 174120, Note_on_c, 0, 79, 88
2, 174240, Note_on_c, 0, 79, 0
2, 174240, Note_on_c, 0, 71, 88
2, 174240, Note_on_c, 0, 77, 88
2, 174360, Note_on_c, 0, 77, 0
2, 174360, Note_on_c, 0, 71, 0
2, 174360, Note_on_c, 0, 74, 88
2, 174480, Note_on_c, 0, 74, 0
2, 174480, Note_on_c, 0, 72, 88
2, 174480, Note_on_c, 0, 76, 88
2, 174600, Note_on_c, 0, 76, 0
2, 174600, Note_on_c, 0, 72, 0
2, 174600, Note_on_c, 0, 81, 88
2, 174720, Note_on_c, 0, 81, 0
2, 174720, Note_on_c, 0, 84, 88
2, 174840, Note_on_c, 0, 84, 0
2, 174840, Note_on_c, 0, 82, 88
2, 174960, Note_on_c, 0, 82, 0
2, 174960, Note_on_c, 0, 84, 88
2, 175200, Note_on_c, 0, 84, 0
2, 175200, Note_on_c, 0, 77, 75
2, 175200, Note_on_c, 0, 89, 75
2, 175440, Note_on_c, 0, 89, 0
2, 175440, Note_on_c, 0, 77, 0
2, 175440, Note_on_c, 0, 81, 75
2, 175680, Note_on_c, 0, 81, 0
2, 175680, Note_on_c, 0, 86, 75
2, 175920, Note_on_c, 0, 86, 0
2, 175920, Note_on_c, 0, 79, 101
2, 176400, Note_on_c, 0, 79, 0
2, 176400, Note_on_c, 0, 84, 75
2, 176640, Note_on_c, 0, 84, 0
2, 176640, Note_on_c, 0, 89, 75
2, 176880, Note_on_c, 0, 89, 0
2, 176880, Note_on_c, 0, 81, 75
2, 177120, Note_on_c, 0, 81, 0
2, 177120, Note_on_c, 0, 86, 75
2, 177360, Note_on_c, 0, 86, 0
2, 177360, Note_on_c, 0, 79, 101
2, 177840, Note_on_c, 0, 79, 0
2, 177840, Note_on_c, 0, 84, 88
2, 178080, Note_on_c, 0, 84, 0
2, 178080, Note_on_c, 0, 86, 88
2, 178103, Note_on_c, 0, 86, 0
2, 178200, Note_on_c, 0, 88, 88
2, 178320, Note_on_c, 0, 88, 0
2, 178320, Note_on_c, 0, 89, 88
2, 178440, Note_on_c, 0, 89, 0
2, 178440, Note_on_c, 0, 88, 88
2, 178560, Note_on_c, 0, 88, 0
2, 178560, Note_on_c, 0, 86, 88
2, 178583, Note_on_c, 0, 86, 0
2, 178680, Note_on_c, 0, 88, 88
2, 178703, Note_on_c, 0, 88, 0
2, 178800, Note_on_c, 0, 89, 88
2, 178920, Note_on_c, 0, 89, 0
2, 178920, Note_on_c, 0, 88, 88
2, 179040, Note_on_c, 0, 88, 0
2, 179040, Note_on_c, 0, 86, 88
2, 179063, Note_on_c, 0, 86, 0
2, 179160, Note_on_c, 0, 84, 88
2, 179183, Note_on_c, 0, 84, 0
2, 179280, Note_on_c, 0, 86, 88
2, 179400, Note_on_c, 0, 86, 0
2, 179400, Note_on_c, 0, 81, 88
2, 179520, Note_on_c, 0, 81, 0
2, 179520, Note_on_c, 0, 84, 88
2, 179640, Note_on_c, 0, 84, 0
2, 179640, Note_on_c, 0, 82, 88
2, 179663, Note_on_c, 0, 82, 0
2, 179760, Note_on_c, 0, 81, 88
2, 179880, Note_on_c, 0, 81, 0
2, 179880, Note_on_c, 0, 79, 88
2, 180000, Note_on_c, 0, 79, 0
2, 180000, Note_on_c, 0, 81, 88
2, 180120, Note_on_c, 0, 81, 0
2, 180120, Note_on_c, 0, 79, 88
2, 180240, Note_on_c, 0, 79, 0
2, 180240, Note_on_c, 0, 77, 88
2, 180360, Note_on_c, 0, 77, 0
2, 180360, Note_on_c, 0, 76, 88
2, 180480, Note_on_c, 0, 76, 0
2, 180480, Note_on_c, 0, 81, 88
2, 180600, Note_on_c, 0, 81, 0
2, 180600, Note_on_c, 0, 79, 88
2, 180720, Note_on_c, 0, 79, 0
2, 180720, Note_on_c, 0, 86, 88
2, 180840, Note_on_c, 0, 86, 0
2, 180840, Note_on_c, 0, 84, 88
2, 180960, Note_on_c, 0, 84, 0
2, 180960, Note_on_c, 0, 89, 75
2, 181200, Note_on_c, 0, 89, 0
2, 181200, Note_on_c, 0, 81, 75
2, 181440, Note_on_c, 0, 81, 0
2, 181440, Note_on_c, 0, 86, 75
2, 181680, Note_on_c, 0, 86, 0
2, 181680, Note_on_c, 0, 79, 101
2, 182160, Note_on_c, 0, 79, 0
2, 182160, Note_on_c, 0, 84, 75
2, 182400, Note_on_c, 0, 84, 0
2, 182400, Note_on_c, 0, 89, 75
2, 182640, Note_on_c, 0, 89, 0
2, 182640, Note_on_c, 0, 81, 75
2, 182880, Note_on_c, 0, 81, 0
2, 182880, Note_on_c, 0, 86, 75
2, 183120, Note_on_c, 0, 86, 0
2, 183120, Note_on_c, 0, 79, 101
2, 183600, Note_on_c, 0, 79, 0
2, 183600, Note_on_c, 0, 84, 88
2, 183840, Note_on_c, 0, 84, 0
2, 183840, Note_on_c, 0, 86, 88
2, 183863, Note_on_c, 0, 86, 0
2, 183960, Note_on_c, 0, 88, 88
2, 184080, Note_on_c, 0, 88, 0
2, 184080, Note_on_c, 0, 89, 88
2, 184200, Note_on_c, 0, 89, 0
2, 184200, Note_on_c, 0, 88, 88
2, 184320, Note_on_c, 0, 88, 0
2, 184320, Note_on_c, 0, 86, 88
2, 184343, Note_on_c, 0, 86, 0
2, 184440, Note_on_c, 0, 88, 88
2, 184463, Note_on_c, 0, 88, 0
2, 184560, Note_on_c, 0, 89, 88
2, 184680, Note_on_c, 0, 89, 0
2, 184680, Note_on_c, 0, 88, 88
2, 184800, Note_on_c, 0, 88, 0
2, 184800, Note_on_c, 0, 86, 88
2, 184823, Note_on_c, 0, 86, 0
2, 184920, Note_on_c, 0, 84, 88
2, 184943, Note_on_c, 0, 84, 0
2, 185040, Note_on_c, 0, 86, 88
2, 185160, Note_on_c, 0, 86, 0
2, 185160, Note_on_c, 0, 81, 88
2, 185280, Note_on_c, 0, 81, 0
2, 185280, Note_on_c, 0, 84, 88
2, 185400, Note_on_c, 0, 84, 0
2, 185400, Note_on_c, 0, 82, 88
2, 185423, Note_on_c, 0, 82, 0
2, 185520, Note_on_c, 0, 82, 88
2, 185640, Note_on_c, 0, 82, 0
2, 185640, Note_on_c, 0, 81, 88
2, 185760, Note_on_c, 0, 81, 0
2, 185760, Note_on_c, 0, 81, 88
2, 185880, Note_on_c, 0, 81, 0
2, 185880, Note_on_c, 0, 79, 88
2, 186000, Note_on_c, 0, 79, 0
2, 186000, Note_on_c, 0, 77, 88
2, 186240, Note_on_c, 0, 77, 0
2, 186240, Note_on_c, 0, 67, 88
2, 186240, Note_on_c, 0, 72, 88
2, 186480, Note_on_c, 0, 72, 0
2, 186480, Note_on_c, 0, 67, 0
2, 186480, Note_on_c, 0, 65, 114
2, 186480, Note_on_c, 0, 69, 114
2, 186720, Note_on_c, 0, 69, 0
2, 186720, Note_on_c, 0, 65, 0
2, 186720, Note_on_c, 0, 63, 114
2, 186720, Note_on_c, 0, 65, 114
2, 186960, Note_on_c, 0, 65, 0
2, 186960, Note_on_c, 0, 63, 0
2, 186960, Note_on_c, 0, 72, 114
2, 186960, Note_on_c, 0, 75, 114
2, 187200, Note_on_c, 0, 75, 0
2, 187200, Note_on_c, 0, 72, 0
2, 187200, Note_on_c, 0, 65, 88
2, 187200, Note_on_c, 0, 69, 88
2, 187200, Note_on_c, 0, 72, 88
2, 187440, Note_on_c, 0, 72, 0
2, 187440, Note_on_c, 0, 69, 0
2, 187440, Note_on_c, 0, 65, 0
2, 187440, Note_on_c, 0, 65, 114
2, 187440, Note_on_c, 0, 69, 114
2, 187680, Note_on_c, 0, 69, 0
2, 187680, Note_on_c, 0, 65, 0
2, 187680, Note_on_c, 0, 75, 127
2, 187680, Note_on_c, 0, 79, 127
2, 187920, Note_on_c, 0, 79, 0
2, 187920, Note_on_c, 0, 75, 0
2, 187920, Note_on_c, 0, 72, 127
2, 187920, Note_on_c, 0, 75, 127
2, 188160, Note_on_c, 0, 75, 0
2, 188160, Note_on_c, 0, 72, 0
2, 188160, Control_c, 0, 64, 127
2, 188160, Note_on_c, 0, 69, 101
2, 188160, Note_on_c, 0, 72, 101
2, 188400, Note_on_c, 0, 72, 0
2, 188400, Note_on_c, 0, 69, 0
2, 188400, Note_on_c, 0, 70, 88
2, 188400, Note_on_c, 0, 73, 88
2, 188640, Note_on_c, 0, 73, 0
2, 188640, Note_on_c, 0, 70, 0
2, 188640, Note_on_c, 0, 71, 88
2, 188640, Note_on_c, 0, 75, 88
2, 188880, Note_on_c, 0, 75, 0
2, 188880, Note_on_c, 0, 71, 0
2, 188880, Note_on_c, 0, 72, 75
2, 188880, Note_on_c, 0, 75, 75
2, 189600, Control_c, 0, 64, 0
2, 190080, Note_on_c, 0, 75, 0
2, 190080, Note_on_c, 0, 72, 0
2, 190080, Note_on_c, 0, 77, 62
2, 190080, Note_on_c, 0, 89, 62
2, 190320, Note_on_c, 0, 89, 0
2, 190320, Note_on_c, 0, 77, 0
2, 190320, Note_on_c, 0, 65, 62
2, 190320, Note_on_c, 0, 77, 62
2, 190800, Note_on_c, 0, 77, 0
2, 190800, Note_on_c, 0, 65, 0
2, 190800, Control_c, 0, 64, 127
2, 193680, Control_c, 0, 64, 0
2, 193680, End_track
3, 0, Start_track
3, 0, Title_t, "Grand Piano"
3, 0, Program_c, 0, 0
3, 0, Control_c, 0, 7, 115
3, 0, Control_c, 0, 10, 80
3, 2880, Note_on_c, 0, 57, 49
3, 2880, Note_on_c, 0, 60, 49
3, 3120, Note_on_c, 0, 60, 0
3, 3120, Note_on_c, 0, 57, 0
3, 5760, Note_on_c, 0, 53, 49
3, 6000, Note_on_c, 0, 53, 0
3, 6480, Note_on_c, 0, 62, 62
3, 7200, Note_on_c, 0, 62, 0
3, 9360, Note_on_c, 0, 62, 62
3, 9840, Note_on_c, 0, 62, 0
3, 10080, Note_on_c, 0, 55, 62
3, 10080, Note_on_c, 0, 61, 62
3, 10080, Note_on_c, 0, 64, 62
3, 10320, Note_on_c, 0, 64, 0
3, 10320, Note_on_c, 0, 61, 0
3, 10320, Note_on_c, 0, 55, 0
3, 11520, Note_on_c, 0, 57, 49
3, 11520, Note_on_c, 0, 62, 49
3, 11760, Note_on_c, 0, 62, 0
3, 11760, Note_on_c, 0, 57, 0
3, 14400, Note_on_c, 0, 57, 49
3, 14400, Note_on_c, 0, 60, 49
3, 14640, Note_on_c, 0, 60, 0
3, 14640, Note_on_c, 0, 57, 0
3, 17280, Note_on_c, 0, 53, 49
3, 17520, Note_on_c, 0, 53, 0
3, 18000, Note_on_c, 0, 62, 62
3, 18720, Note_on_c, 0, 62, 0
3, 18720, Note_on_c, 0, 57, 62
3, 18720, Note_on_c, 0, 64, 62
3, 18960, Note_on_c, 0, 64, 0
3, 18960, Note_on_c, 0, 57, 0
3, 19440, Note_on_c, 0, 64, 62
3, 20160, Note_on_c, 0, 64, 0
3, 20160, Note_on_c, 0, 62, 62
3, 20160, Note_on_c, 0, 66, 62
3, 20400, Note_on_c, 0, 66, 0
3, 20400, Note_on_c, 0, 62, 0
3, 20880, Note_on_c, 0, 60, 62
3, 20880, Note_on_c, 0, 66, 62
3, 21120, Note_on_c, 0, 66, 0
3, 21120, Note_on_c, 0, 60, 0
3, 21600, Note_on_c, 0, 64, 62
3, 21840, Note_on_c, 0, 64, 0
3, 23760, Note_on_c, 0, 59, 49
3, 24480, Note_on_c, 0, 59, 0
3, 25920, Note_on_c, 0, 58, 75
3, 25920, Note_on_c, 0, 62, 75
3, 26160, Note_on_c, 0, 62, 0
3, 26160, Note_on_c, 0, 58, 0
3, 27360, Note_on_c, 0, 58, 62
3, 27360, Note_on_c, 0, 62, 62
3, 27600, Note_on_c, 0, 62, 0
3, 27600, Note_on_c, 0, 58, 0
3, 28800, Note_on_c, 0, 55, 49
3, 28800, Note_on_c, 0, 58, 49
3, 29040, Note_on_c, 0, 58, 0
3, 29040, Note_on_c, 0, 55, 0
3, 29520, Note_on_c, 0, 62, 49
3, 30240, Note_on_c, 0, 62, 0
3, 30240, Note_on_c, 0, 58, 49
3, 30240, Note_on_c, 0, 62, 49
3, 30480, Note_on_c, 0, 62, 0
3, 30480, Note_on_c, 0, 58, 0
3, 31680, Note_on_c, 0, 58, 88
3, 31680, Note_on_c, 0, 62, 88
3, 31920, Note_on_c, 0, 62, 0
3, 31920, Note_on_c, 0, 58, 0
3, 33120, Note_on_c, 0, 58, 75
3, 33120, Note_on_c, 0, 62, 75
3, 33600, Note_on_c, 0, 62, 0
3, 33600, Note_on_c, 0, 58, 0
3, 34560, Note_on_c, 0, 55, 49
3, 34800, Note_on_c, 0, 55, 0
3, 35280, Note_on_c, 0, 62, 49
3, 36000, Note_on_c, 0, 62, 0
3, 36000, Note_on_c, 0, 58, 49
3, 36000, Note_on_c, 0, 64, 49
3, 36240, Note_on_c, 0, 64, 0
3, 36240, Note_on_c, 0, 58, 0
3, 37440, Note_on_c, 0, 58, 62
3, 37680, Note_on_c, 0, 58, 0
3, 38880, Note_on_c, 0, 55, 62
3, 38880, Note_on_c, 0, 62, 62
3, 39120, Note_on_c, 0, 62, 0
3, 39120, Note_on_c, 0, 55, 0
3, 39600, Note_on_c, 0, 62, 62
3, 40320, Note_on_c, 0, 62, 0
3, 40320, Note_on_c, 0, 55, 49
3, 40320, Note_on_c, 0, 58, 49
3, 40560, Note_on_c, 0, 58, 0
3, 40560, Note_on_c, 0, 55, 0
3, 41040, Note_on_c, 0, 62, 49
3, 41760, Note_on_c, 0, 62, 0
3, 41760, Note_on_c, 0, 58, 49
3, 41760, Note_on_c, 0, 64, 49
3, 42000, Note_on_c, 0, 64, 0
3, 42000, Note_on_c, 0, 58, 0
3, 43200, Note_on_c, 0, 58, 88
3, 43200, Note_on_c, 0, 62, 88
3, 43440, Note_on_c, 0, 62, 0
3, 43440, Note_on_c, 0, 58, 0
3, 44640, Note_on_c, 0, 55, 75
3, 44640, Note_on_c, 0, 62, 75
3, 44880, Note_on_c, 0, 62, 0
3, 44880, Note_on_c, 0, 55, 0
3, 45360, Note_on_c, 0, 62, 75
3, 46080, Note_on_c, 0, 62, 0
3, 46080, Note_on_c, 0, 55, 49
3, 46080, Note_on_c, 0, 58, 49
3, 46320, Note_on_c, 0, 58, 0
3, 46320, Note_on_c, 0, 55, 0
3, 47520, Control_c, 0, 64, 127
3, 47520, Note_on_c, 0, 58, 75
3, 47520, Note_on_c, 0, 64, 75
3, 47760, Note_on_c, 0, 64, 0
3, 47760, Note_on_c, 0, 58, 0
3, 47760, Note_on_c, 0, 60, 75
3, 48000, Note_on_c, 0, 60, 0
3, 48000, Note_on_c, 0, 62, 75
3, 48240, Note_on_c, 0, 62, 0
3, 48240, Note_on_c, 0, 64, 75
3, 48480, Note_on_c, 0, 64, 0
3, 48480, Note_on_c, 0, 65, 75
3, 48720, Note_on_c, 0, 65, 0
3, 48720, Control_c, 0, 64, 0
3, 48720, Note_on_c, 0, 64, 75
3, 48960, Note_on_c, 0, 64, 0
3, 48960, Note_on_c, 0, 60, 49
3, 48960, Note_on_c, 0, 63, 49
3, 49200, Note_on_c, 0, 63, 0
3, 49200, Note_on_c, 0, 60, 0
3, 49680, Note_on_c, 0, 59, 49
3, 49680, Note_on_c, 0, 65, 49
3, 49920, Note_on_c, 0, 65, 0
3, 49920, Note_on_c, 0, 59, 0
3, 50400, Note_on_c, 0, 60, 49
3, 50400, Note_on_c, 0, 63, 49
3, 50640, Note_on_c, 0, 63, 0
3, 50640, Note_on_c, 0, 60, 0
3, 51840, Note_on_c, 0, 55, 49
3, 51840, Note_on_c, 0, 61, 49
3, 52080, Note_on_c, 0, 61, 0
3, 52080, Note_on_c, 0, 55, 0
3, 53280, Note_on_c, 0, 55, 49
3, 53280, Note_on_c, 0, 58, 49
3, 53520, Note_on_c, 0, 58, 0
3, 53520, Note_on_c, 0, 55, 0
3, 54720, Note_on_c, 0, 56, 49
3, 54720, Note_on_c, 0, 60, 49
3, 54960, Note_on_c, 0, 60, 0
3, 54960, Note_on_c, 0, 56, 0
3, 55440, Note_on_c, 0, 55, 49
3, 55440, Note_on_c, 0, 61, 49
3, 55680, Note_on_c, 0, 61, 0
3, 55680, Note_on_c, 0, 55, 0
3, 56160, Note_on_c, 0, 56, 49
3, 56160, Note_on_c, 0, 62, 49
3, 56400, Note_on_c, 0, 62, 0
3, 56400, Note_on_c, 0, 56, 0
3, 56880, Note_on_c, 0, 62, 49
3, 57600, Note_on_c, 0, 62, 0
3, 57600, Note_on_c, 0, 53, 49
3, 58320, Note_on_c, 0, 53, 0
3, 58320, Note_on_c, 0, 55, 49
3, 59040, Note_on_c, 0, 55, 0
3, 63600, Note_on_c, 0, 62, 49
3, 63600, Note_on_c, 0, 66, 49
3, 63600, Note_on_c, 0, 69, 49
3, 63840, Note_on_c, 0, 69, 0
3, 63840, Note_on_c, 0, 66, 0
3, 63840, Note_on_c, 0, 62, 0
3, 63840, Note_on_c, 0, 62, 49
3, 63840, Note_on_c, 0, 66, 49
3, 63840, Note_on_c, 0, 69, 49
3, 64080, Note_on_c, 0, 69, 0
3, 64080, Note_on_c, 0, 66, 0
3, 64080, Note_on_c, 0, 62, 0
3, 64080, Control_c, 0, 64, 127
3, 64080, Note_on_c, 0, 62, 49
3, 64080, Note_on_c, 0, 67, 49
3, 64080, Note_on_c, 0, 70, 49
3, 64320, Note_on_c, 0, 70, 0
3, 64320, Note_on_c, 0, 67, 0
3, 64320, Note_on_c, 0, 62, 0
3, 64320, Note_on_c, 0, 62, 49
3, 64320, Note_on_c, 0, 67, 49
3, 64320, Note_on_c, 0, 70, 49
3, 64560, Note_on_c, 0, 70, 0
3, 64560, Note_on_c, 0, 67, 0
3, 64560, Note_on_c, 0, 62, 0
3, 64560, Note_on_c, 0, 62, 49
3, 64560, Note_on_c, 0, 67, 49
3, 64560, Note_on_c, 0, 70, 49
3, 64800, Note_on_c, 0, 70, 0
3, 64800, Note_on_c, 0, 67, 0
3, 64800, Note_on_c, 0, 62, 0
3, 64800, Control_c, 0, 64, 0
3, 64800, Note_on_c, 0, 62, 49
3, 64800, Note_on_c, 0, 67, 49
3, 64800, Note_on_c, 0, 70, 49
3, 65040, Note_on_c, 0, 70, 0
3, 65040, Note_on_c, 0, 67, 0
3, 65040, Note_on_c, 0, 62, 0
3, 66480, Control_c, 0, 64, 127
3, 66480, Note_on_c, 0, 68, 49
3, 66480, Note_on_c, 0, 71, 49
3, 66720, Note_on_c, 0, 71, 0
3, 66720, Note_on_c, 0, 68, 0
3, 66720, Note_on_c, 0, 68, 49
3, 66720, Note_on_c, 0, 71, 49
3, 66960, Note_on_c, 0, 71, 0
3, 66960, Note_on_c, 0, 68, 0
3, 66960, Note_on_c, 0, 68, 49
3, 66960, Note_on_c, 0, 71, 49
3, 67200, Note_on_c, 0, 71, 0
3, 67200, Note_on_c, 0, 68, 0
3, 67200, Note_on_c, 0, 68, 49
3, 67200, Note_on_c, 0, 71, 49
3, 67440, Note_on_c, 0, 71, 0
3, 67440, Note_on_c, 0, 68, 0
3, 67440, Control_c, 0, 64, 0
3, 67440, Note_on_c, 0, 68, 49
3, 67440, Note_on_c, 0, 71, 49
3, 67680, Note_on_c, 0, 71, 0
3, 67680, Note_on_c, 0, 68, 0
3, 67680, Note_on_c, 0, 68, 49
3, 67680, Note_on_c, 0, 71, 49
3, 67920, Note_on_c, 0, 71, 0
3, 67920, Note_on_c, 0, 68, 0
3, 69360, Note_on_c, 0, 64, 49
3, 69360, Note_on_c, 0, 68, 49
3, 69360, Note_on_c, 0, 71, 49
3, 69600, Note_on_c, 0, 71, 0
3, 69600, Note_on_c, 0, 68, 0
3, 69600, Note_on_c, 0, 64, 0
3, 69600, Note_on_c, 0, 64, 49
3, 69600, Note_on_c, 0, 68, 49
3, 69600, Note_on_c, 0, 71, 49
3, 69840, Note_on_c, 0, 71, 0
3, 69840, Note_on_c, 0, 68, 0
3, 69840, Note_on_c, 0, 64, 0
3, 69840, Control_c, 0, 64, 127
3, 69840, Note_on_c, 0, 64, 49
3, 69840, Note_on_c, 0, 69, 49
3, 69840, Note_on_c, 0, 72, 49
3, 70080, Note_on_c, 0, 72, 0
3, 70080, Note_on_c, 0, 69, 0
3, 70080, Note_on_c, 0, 64, 0
3, 70080, Note_on_c, 0, 64, 49
3, 70080, Note_on_c, 0, 69, 49
3, 70080, Note_on_c, 0, 72, 49
3, 70320, Note_on_c, 0, 72, 0
3, 70320, Note_on_c, 0, 69, 0
3, 70320, Note_on_c, 0, 64, 0
3, 70320, Note_on_c, 0, 64, 49
3, 70320, Note_on_c, 0, 69, 49
3, 70320, Note_on_c, 0, 72, 49
3, 70560, Note_on_c, 0, 72, 0
3, 70560, Note_on_c, 0, 69, 0
3, 70560, Note_on_c, 0, 64, 0
3, 70560, Control_c, 0, 64, 0
3, 70560, Note_on_c, 0, 64, 49
3, 70560, Note_on_c, 0, 69, 49
3, 70560, Note_on_c, 0, 72, 49
3, 70680, Note_on_c, 0, 72, 0
3, 70680, Note_on_c, 0, 69, 0
3, 70680, Note_on_c, 0, 64, 0
3, 70680, Control_c, 0, 64, 127
3, 70680, Note_on_c, 0, 76, 49
3, 70920, Note_on_c, 0, 76, 0
3, 70920, Note_on_c, 0, 76, 49
3, 71160, Note_on_c, 0, 76, 0
3, 71160, Note_on_c, 0, 76, 49
3, 71400, Note_on_c, 0, 76, 0
3, 71400, Note_on_c, 0, 76, 49
3, 71640, Note_on_c, 0, 76, 0
3, 71640, Note_on_c, 0, 76, 49
3, 71880, Note_on_c, 0, 76, 0
3, 71880, Control_c, 0, 64, 0
3, 71880, Note_on_c, 0, 76, 49
3, 72000, Note_on_c, 0, 76, 0
3, 72000, Control_c, 0, 64, 0
3, 72120, Control_c, 0, 64, 127
3, 72120, Note_on_c, 0, 76, 49
3, 72360, Note_on_c, 0, 76, 0
3, 72360, Note_on_c, 0, 76, 49
3, 72600, Note_on_c, 0, 76, 0
3, 72600, Note_on_c, 0, 76, 49
3, 72840, Note_on_c, 0, 76, 0
3, 72840, Note_on_c, 0, 76, 49
3, 73080, Note_on_c, 0, 76, 0
3, 73080, Note_on_c, 0, 76, 49
3, 73320, Note_on_c, 0, 76, 0
3, 73320, Control_c, 0, 64, 0
3, 73320, Note_on_c, 0, 76, 49
3, 73440, Note_on_c, 0, 76, 0
3, 75120, Control_c, 0, 64, 127
3, 75120, Note_on_c, 0, 70, 49
3, 75120, Note_on_c, 0, 73, 49
3, 75120, Note_on_c, 0, 76, 49
3, 75360, Note_on_c, 0, 76, 0
3, 75360, Note_on_c, 0, 73, 0
3, 75360, Note_on_c, 0, 70, 0
3, 75360, Note_on_c, 0, 70, 49
3, 75360, Note_on_c, 0, 73, 49
3, 75360, Note_on_c, 0, 76, 49
3, 75600, Note_on_c, 0, 76, 0
3, 75600, Note_on_c, 0, 73, 0
3, 75600, Note_on_c, 0, 70, 0
3, 75600, Note_on_c, 0, 70, 49
3, 75600, Note_on_c, 0, 73, 49
3, 75600, Note_on_c, 0, 76, 49
3, 75840, Note_on_c, 0, 76, 0
3, 75840, Note_on_c, 0, 73, 0
3, 75840, Note_on_c, 0, 70, 0
3, 75840, Note_on_c, 0, 70, 49
3, 75840, Note_on_c, 0, 73, 49
3, 75840, Note_on_c, 0, 76, 49
3, 76080, Note_on_c, 0, 76, 0
3, 76080, Note_on_c, 0, 73, 0
3, 76080, Note_on_c, 0, 70, 0
3, 76080, Control_c, 0, 64, 0
3, 76080, Note_on_c, 0, 70, 49
3, 76080, Note_on_c, 0, 73, 49
3, 76080, Note_on_c, 0, 76, 49
3, 76320, Note_on_c, 0, 76, 0
3, 76320, Note_on_c, 0, 73, 0
3, 76320, Note_on_c, 0, 70, 0
3, 76320, Note_on_c, 0, 70, 49
3, 76320, Note_on_c, 0, 73, 49
3, 76320, Note_on_c, 0, 76, 49
3, 76560, Note_on_c, 0, 76, 0
3, 76560, Note_on_c, 0, 73, 0
3, 76560, Note_on_c, 0, 70, 0
3, 77760, Control_c, 0, 64, 127
3, 77760, Note_on_c, 0, 66, 49
3, 77760, Note_on_c, 0, 71, 49
3, 78000, Note_on_c, 0, 71, 0
3, 78000, Note_on_c, 0, 66, 0
3, 78000, Note_on_c, 0, 66, 49
3, 78000, Note_on_c, 0, 71, 49
3, 78240, Note_on_c, 0, 71, 0
3, 78240, Note_on_c, 0, 66, 0
3, 78240, Note_on_c, 0, 71, 49
3, 78480, Note_on_c, 0, 71, 0
3, 78480, Note_on_c, 0, 66, 49
3, 78480, Note_on_c, 0, 71, 49
3, 78720, Note_on_c, 0, 71, 0
3, 78720, Note_on_c, 0, 66, 0
3, 78720, Note_on_c, 0, 66, 49
3, 78720, Note_on_c, 0, 71, 49
3, 78960, Note_on_c, 0, 71, 0
3, 78960, Note_on_c, 0, 66, 0
3, 78960, Control_c, 0, 64, 0
3, 78960, Note_on_c, 0, 66, 49
3, 78960, Note_on_c, 0, 71, 49
3, 79200, Note_on_c, 0, 71, 0
3, 79200, Note_on_c, 0, 66, 0
3, 79320, Control_c, 0, 64, 127
3, 79320, Note_on_c, 0, 66, 49
3, 79560, Note_on_c, 0, 66, 0
3, 79560, Note_on_c, 0, 66, 49
3, 79800, Note_on_c, 0, 66, 0
3, 79800, Note_on_c, 0, 66, 49
3, 80040, Note_on_c, 0, 66, 0
3, 80040, Note_on_c, 0, 66, 49
3, 80280, Note_on_c, 0, 66, 0
3, 80280, Note_on_c, 0, 66, 49
3, 80520, Note_on_c, 0, 66, 0
3, 80520, Control_c, 0, 64, 0
3, 80520, Note_on_c, 0, 66, 49
3, 80640, Note_on_c, 0, 66, 0
3, 80760, Control_c, 0, 64, 127
3, 80760, Note_on_c, 0, 66, 49
3, 81000, Note_on_c, 0, 66, 0
3, 81000, Note_on_c, 0, 66, 49
3, 81240, Note_on_c, 0, 66, 0
3, 81240, Note_on_c, 0, 66, 49
3, 81480, Note_on_c, 0, 66, 0
3, 81480, Note_on_c, 0, 66, 49
3, 81720, Note_on_c, 0, 66, 0
3, 81720, Note_on_c, 0, 66, 49
3, 81960, Note_on_c, 0, 66, 0
3, 81960, Control_c, 0, 64, 0
3, 81960, Note_on_c, 0, 66, 49
3, 82080, Note_on_c, 0, 66, 0
3, 83760, Control_c, 0, 64, 127
3, 83760, Note_on_c, 0, 60, 49
3, 83760, Note_on_c, 0, 63, 49
3, 83760, Note_on_c, 0, 66, 49
3, 84000, Note_on_c, 0, 66, 0
3, 84000, Note_on_c, 0, 63, 0
3, 84000, Note_on_c, 0, 60, 0
3, 84000, Note_on_c, 0, 60, 49
3, 84000, Note_on_c, 0, 63, 49
3, 84000, Note_on_c, 0, 66, 49
3, 84240, Note_on_c, 0, 66, 0
3, 84240, Note_on_c, 0, 63, 0
3, 84240, Note_on_c, 0, 60, 0
3, 84240, Note_on_c, 0, 60, 49
3, 84240, Note_on_c, 0, 63, 49
3, 84240, Note_on_c, 0, 66, 49
3, 84480, Note_on_c, 0, 66, 0
3, 84480, Note_on_c, 0, 63, 0
3, 84480, Note_on_c, 0, 60, 0
3, 84480, Note_on_c, 0, 60, 49
3, 84480, Note_on_c, 0, 63, 49
3, 84480, Note_on_c, 0, 66, 49
3, 84720, Note_on_c, 0, 66, 0
3, 84720, Note_on_c, 0, 63, 0
3, 84720, Note_on_c, 0, 60, 0
3, 84720, Control_c, 0, 64, 0
3, 84720, Note_on_c, 0, 60, 49
3, 84720, Note_on_c, 0, 63, 49
3, 84720, Note_on_c, 0, 66, 49
3, 84960, Note_on_c, 0, 66, 0
3, 84960, Note_on_c, 0, 63, 0
3, 84960, Note_on_c, 0, 60, 0
3, 84960, Note_on_c, 0, 80, 49
3, 84960, Note_on_c, 0, 84, 49
3, 84960, Note_on_c, 0, 87, 49
3, 85200, Note_on_c, 0, 87, 0
3, 85200, Note_on_c, 0, 84, 0
3, 85200, Note_on_c, 0, 80, 0
3, 88560, Note_on_c, 0, 72, 49
3, 89280, Note_on_c, 0, 72, 0
3, 90000, Note_on_c, 0, 75, 62
3, 90720, Note_on_c, 0, 75, 0
3, 91440, Note_on_c, 0, 73, 62
3, 92160, Note_on_c, 0, 73, 0
3, 92880, Note_on_c, 0, 76, 62
3, 93600, Note_on_c, 0, 76, 0
3, 93720, Control_c, 0, 64, 127
3, 93720, Note_on_c, 0, 53, 62
3, 93720, Note_on_c, 0, 57, 62
3, 93720, Note_on_c, 0, 60, 62
3, 93960, Note_on_c, 0, 60, 0
3, 93960, Note_on_c, 0, 57, 0
3, 93960, Note_on_c, 0, 53, 0
3, 93960, Note_on_c, 0, 53, 62
3, 93960, Note_on_c, 0, 57, 62
3, 93960, Note_on_c, 0, 60, 62
3, 94200, Note_on_c, 0, 60, 0
3, 94200, Note_on_c, 0, 57, 0
3, 94200, Note_on_c, 0, 53, 0
3, 94200, Note_on_c, 0, 53, 62
3, 94200, Note_on_c, 0, 57, 62
3, 94200, Note_on_c, 0, 60, 62
3, 94440, Note_on_c, 0, 60, 0
3, 94440, Note_on_c, 0, 57, 0
3, 94440, Note_on_c, 0, 53, 0
3, 94440, Note_on_c, 0, 53, 62
3, 94440, Note_on_c, 0, 57, 62
3, 94440, Note_on_c, 0, 60, 62
3, 94680, Note_on_c, 0, 60, 0
3, 94680, Note_on_c, 0, 57, 0
3, 94680, Note_on_c, 0, 53, 0
3, 94680, Note_on_c, 0, 53, 62
3, 94680, Note_on_c, 0, 57, 62
3, 94680, Note_on_c, 0, 60, 62
3, 94920, Note_on_c, 0, 60, 0
3, 94920, Note_on_c, 0, 57, 0
3, 94920, Note_on_c, 0, 53, 0
3, 94920, Control_c, 0, 64, 0
3, 94920, Note_on_c, 0, 53, 62
3, 94920, Note_on_c, 0, 57, 62
3, 94920, Note_on_c, 0, 60, 62
3, 95040, Note_on_c, 0, 60, 0
3, 95040, Note_on_c, 0, 57, 0
3, 95040, Note_on_c, 0, 53, 0
3, 95160, Control_c, 0, 64, 127
3, 95160, Note_on_c, 0, 53, 62
3, 95160, Note_on_c, 0, 56, 62
3, 95160, Note_on_c, 0, 59, 62
3, 95400, Note_on_c, 0, 59, 0
3, 95400, Note_on_c, 0, 56, 0
3, 95400, Note_on_c, 0, 53, 0
3, 95400, Note_on_c, 0, 53, 62
3, 95400, Note_on_c, 0, 56, 62
3, 95400, Note_on_c, 0, 59, 62
3, 95640, Note_on_c, 0, 59, 0
3, 95640, Note_on_c, 0, 56, 0
3, 95640, Note_on_c, 0, 53, 0
3, 95640, Note_on_c, 0, 53, 62
3, 95640, Note_on_c, 0, 56, 62
3, 95640, Note_on_c, 0, 59, 62
3, 95880, Note_on_c, 0, 59, 0
3, 95880, Note_on_c, 0, 56, 0
3, 95880, Note_on_c, 0, 53, 0
3, 95880, Note_on_c, 0, 53, 62
3, 95880, Note_on_c, 0, 56, 62
3, 95880, Note_on_c, 0, 59, 62
3, 96120, Note_on_c, 0, 59, 0
3, 96120, Note_on_c, 0, 56, 0
3, 96120, Note_on_c, 0, 53, 0
3, 96120, Note_on_c, 0, 53, 62
3, 96120, Note_on_c, 0, 56, 62
3, 96120, Note_on_c, 0, 59, 62
3, 96360, Note_on_c, 0, 59, 0
3, 96360, Note_on_c, 0, 56, 0
3, 96360, Note_on_c, 0, 53, 0
3, 96360, Control_c, 0, 64, 0
3, 96360, Note_on_c, 0, 53, 62
3, 96360, Note_on_c, 0, 56, 62
3, 96360, Note_on_c, 0, 59, 62
3, 96480, Note_on_c, 0, 59, 0
3, 96480, Note_on_c, 0, 56, 0
3, 96480, Note_on_c, 0, 53, 0
3, 108000, Control_c, 0, 64, 127
3, 108000, Note_on_c, 0, 57, 62
3, 108240, Note_on_c, 0, 57, 0
3, 108240, Note_on_c, 0, 57, 62
3, 108480, Note_on_c, 0, 57, 0
3, 108480, Note_on_c, 0, 57, 62
3, 108720, Note_on_c, 0, 57, 0
3, 108720, Note_on_c, 0, 57, 62
3, 108960, Note_on_c, 0, 57, 0
3, 108960, Note_on_c, 0, 57, 62
3, 109200, Note_on_c, 0, 57, 0
3, 109200, Control_c, 0, 64, 0
3, 109200, Note_on_c, 0, 57, 62
3, 109440, Note_on_c, 0, 57, 0
3, 109440, Note_on_c, 0, 79, 75
3, 110160, Note_on_c, 0, 79, 0
3, 110160, Note_on_c, 0, 67, 75
3, 110640, Note_on_c, 0, 67, 0
3, 110640, Note_on_c, 0, 72, 75
3, 110880, Note_on_c, 0, 72, 0
3, 110880, Note_on_c, 0, 65, 88
3, 111120, Note_on_c, 0, 65, 0
3, 111600, Control_c, 0, 64, 127
3, 111600, Note_on_c, 0, 57, 62
3, 111600, Note_on_c, 0, 62, 62
3, 111840, Note_on_c, 0, 62, 0
3, 111840, Note_on_c, 0, 57, 0
3, 111840, Note_on_c, 0, 57, 62
3, 111840, Note_on_c, 0, 62, 62
3, 112080, Note_on_c, 0, 62, 0
3, 112080, Note_on_c, 0, 57, 0
3, 112080, Control_c, 0, 64, 0
3, 112080, Note_on_c, 0, 57, 62
3, 112080, Note_on_c, 0, 62, 62
3, 112320, Note_on_c, 0, 62, 0
3, 112320, Note_on_c, 0, 57, 0
3, 112320, Control_c, 0, 64, 127
3, 112320, Note_on_c, 0, 57, 62
3, 112320, Note_on_c, 0, 64, 62
3, 112560, Note_on_c, 0, 64, 0
3, 112560, Note_on_c, 0, 57, 0
3, 112560, Note_on_c, 0, 57, 62
3, 112560, Note_on_c, 0, 64, 62
3, 112800, Note_on_c, 0, 64, 0
3, 112800, Note_on_c, 0, 57, 0
3, 112800, Note_on_c, 0, 57, 62
3, 112800, Note_on_c, 0, 64, 62
3, 113040, Note_on_c, 0, 64, 0
3, 113040, Note_on_c, 0, 57, 0
3, 113040, Note_on_c, 0, 57, 62
3, 113040, Note_on_c, 0, 64, 62
3, 113280, Note_on_c, 0, 64, 0
3, 113280, Note_on_c, 0, 57, 0
3, 113280, Note_on_c, 0, 57, 62
3, 113280, Note_on_c, 0, 64, 62
3, 113520, Note_on_c, 0, 64, 0
3, 113520, Note_on_c, 0, 57, 0
3, 113520, Control_c, 0, 64, 0
3, 113520, Note_on_c, 0, 57, 62
3, 113520, Note_on_c, 0, 64, 62
3, 113760, Note_on_c, 0, 64, 0
3, 113760, Note_on_c, 0, 57, 0
3, 113760, Note_on_c, 0, 62, 88
3, 114720, Note_on_c, 0, 62, 0
3, 115200, Control_c, 0, 64, 127
3, 115200, Note_on_c, 0, 60, 62
3, 115200, Note_on_c, 0, 65, 62
3, 115440, Note_on_c, 0, 65, 0
3, 115440, Note_on_c, 0, 60, 0
3, 115440, Note_on_c, 0, 60, 62
3, 115440, Note_on_c, 0, 65, 62
3, 115680, Note_on_c, 0, 65, 0
3, 115680, Note_on_c, 0, 60, 0
3, 115680, Note_on_c, 0, 60, 62
3, 115680, Note_on_c, 0, 65, 62
3, 115920, Note_on_c, 0, 65, 0
3, 115920, Note_on_c, 0, 60, 0
3, 115920, Note_on_c, 0, 60, 62
3, 115920, Note_on_c, 0, 65, 62
3, 116160, Note_on_c, 0, 65, 0
3, 116160, Note_on_c, 0, 60, 0
3, 116160, Note_on_c, 0, 60, 62
3, 116160, Note_on_c, 0, 65, 62
3, 116400, Note_on_c, 0, 65, 0
3, 116400, Note_on_c, 0, 60, 0
3, 116400, Control_c, 0, 64, 0
3, 116400, Note_on_c, 0, 60, 62
3, 116400, Note_on_c, 0, 65, 62
3, 116640, Note_on_c, 0, 65, 0
3, 116640, Note_on_c, 0, 60, 0
3, 116640, Control_c, 0, 64, 127
3, 116640, Note_on_c, 0, 60, 62
3, 116640, Note_on_c, 0, 65, 62
3, 116880, Note_on_c, 0, 65, 0
3, 116880, Note_on_c, 0, 60, 0
3, 116880, Note_on_c, 0, 60, 62
3, 116880, Note_on_c, 0, 65, 62
3, 117120, Note_on_c, 0, 65, 0
3, 117120, Note_on_c, 0, 60, 0
3, 117120, Note_on_c, 0, 60, 62
3, 117120, Note_on_c, 0, 65, 62
3, 117360, Note_on_c, 0, 65, 0
3, 117360, Note_on_c, 0, 60, 0
3, 117360, Note_on_c, 0, 60, 62
3, 117360, Note_on_c, 0, 65, 62
3, 117600, Note_on_c, 0, 65, 0
3, 117600, Note_on_c, 0, 60, 0
3, 117600, Note_on_c, 0, 60, 62
3, 117600, Note_on_c, 0, 65, 62
3, 117840, Note_on_c, 0, 65, 0
3, 117840, Note_on_c, 0, 60, 0
3, 117840, Control_c, 0, 64, 0
3, 117840, Note_on_c, 0, 60, 62
3, 117840, Note_on_c, 0, 65, 62
3, 118080, Note_on_c, 0, 65, 0
3, 118080, Note_on_c, 0, 60, 0
3, 118080, Note_on_c, 0, 79, 88
3, 118560, Note_on_c, 0, 79, 0
3, 118560, Note_on_c, 0, 79, 88
3, 119040, Note_on_c, 0, 79, 0
3, 119040, Note_on_c, 0, 81, 88
3, 119280, Note_on_c, 0, 81, 0
3, 119280, Note_on_c, 0, 83, 88
3, 119520, Note_on_c, 0, 83, 0
3, 119520, Note_on_c, 0, 84, 88
3, 120960, Note_on_c, 0, 84, 0
3, 120960, Note_on_c, 0, 84, 88
3, 121440, Note_on_c, 0, 84, 0
3, 121440, Note_on_c, 0, 84, 88
3, 121920, Note_on_c, 0, 84, 0
3, 121920, Note_on_c, 0, 77, 88
3, 122160, Note_on_c, 0, 77, 0
3, 122160, Note_on_c, 0, 81, 88
3, 122400, Note_on_c, 0, 81, 0
3, 122400, Note_on_c, 0, 74, 88
3, 122640, Note_on_c, 0, 74, 0
3, 123120, Note_on_c, 0, 53, 62
3, 123120, Note_on_c, 0, 56, 62
3, 123360, Note_on_c, 0, 56, 0
3, 123360, Note_on_c, 0, 53, 0
3, 123360, Note_on_c, 0, 53, 62
3, 123360, Note_on_c, 0, 56, 62
3, 123600, Note_on_c, 0, 56, 0
3, 123600, Note_on_c, 0, 53, 0
3, 123600, Note_on_c, 0, 53, 62
3, 123600, Note_on_c, 0, 56, 62
3, 123840, Note_on_c, 0, 56, 0
3, 123840, Note_on_c, 0, 53, 0
3, 125280, Note_on_c, 0, 70, 88
3, 126000, Note_on_c, 0, 70, 0
3, 126000, Note_on_c, 0, 62, 88
3, 126480, Note_on_c, 0, 62, 0
3, 126480, Note_on_c, 0, 64, 88
3, 126720, Note_on_c, 0, 64, 0
3, 128160, Note_on_c, 0, 70, 114
3, 128880, Note_on_c, 0, 70, 0
3, 128880, Note_on_c, 0, 62, 114
3, 129360, Note_on_c, 0, 62, 0
3, 129360, Note_on_c, 0, 64, 114
3, 129600, Note_on_c, 0, 64, 0
3, 131760, Note_on_c, 0, 62, 101
3, 132000, Note_on_c, 0, 62, 0
3, 132000, Note_on_c, 0, 53, 101
3, 132240, Note_on_c, 0, 53, 0
3, 132240, Note_on_c, 0, 56, 101
3, 132480, Note_on_c, 0, 56, 0
3, 133200, Note_on_c, 0, 62, 101
3, 133440, Note_on_c, 0, 62, 0
3, 133440, Note_on_c, 0, 53, 101
3, 133680, Note_on_c, 0, 53, 0
3, 133680, Note_on_c, 0, 56, 101
3, 133920, Note_on_c, 0, 56, 0
3, 174960, Note_on_c, 0, 81, 75
3, 175080, Note_on_c, 0, 81, 0
3, 175080, Note_on_c, 0, 79, 75
3, 175200, Note_on_c, 0, 79, 0
3, 188880, Control_c, 0, 64, 127
3, 188880, Note_on_c, 0, 69, 75
3, 189600, Note_on_c, 0, 69, 0
3, 190080, Control_c, 0, 64, 0
3, 190080, End_track
4, 0, Start_track
4, 0, Title_t, "Grand Piano"
4, 0, Program_c, 0, 0
4, 0, Control_c, 0, 7, 115
4, 0, Control_c, 0, 10, 41
4, 0, Note_on_c, 0, 41, 49
4, 0, Note_on_c, 0, 48, 49
4, 0, Note_on_c, 0, 53, 49
4, 240, Note_on_c, 0, 53, 0
4, 240, Note_on_c, 0, 48, 0
4, 240, Note_on_c, 0, 41, 0
4, 720, Note_on_c, 0, 53, 49
4, 720, Note_on_c, 0, 57, 49
4, 720, Note_on_c, 0, 60, 49
4, 1440, Note_on_c, 0, 60, 0
4, 1440, Note_on_c, 0, 57, 0
4, 1440, Note_on_c, 0, 53, 0
4, 1440, Note_on_c, 0, 41, 49
4, 1440, Note_on_c, 0, 48, 49
4, 1440, Note_on_c, 0, 53, 49
4, 1680, Note_on_c, 0, 53, 0
4, 1680, Note_on_c, 0, 48, 0
4, 1680, Note_on_c, 0, 41, 0
4, 2160, Note_on_c, 0, 53, 49
4, 2160, Note_on_c, 0, 57, 49
4, 2160, Note_on_c, 0, 60, 49
4, 2880, Note_on_c, 0, 60, 0
4, 2880, Note_on_c, 0, 57, 0
4, 2880, Note_on_c, 0, 53, 0
4, 2880, Note_on_c, 0, 41, 49
4, 2880, Note_on_c, 0, 48, 49
4, 2880, Note_on_c, 0, 53, 49
4, 3120, Note_on_c, 0, 53, 0
4, 3120, Note_on_c, 0, 48, 0
4, 3120, Note_on_c, 0, 41, 0
4, 3600, Note_on_c, 0, 53, 49
4, 4320, Note_on_c, 0, 53, 0
4, 4320, Note_on_c, 0, 40, 49
4, 4320, Note_on_c, 0, 48, 49
4, 4560, Note_on_c, 0, 48, 0
4, 4560, Note_on_c, 0, 40, 0
4, 5040, Note_on_c, 0, 52, 49
4, 5760, Note_on_c, 0, 52, 0
4, 5760, Note_on_c, 0, 38, 49
4, 5760, Note_on_c, 0, 50, 49
4, 6000, Note_on_c, 0, 50, 0
4, 6000, Note_on_c, 0, 38, 0
4, 6480, Note_on_c, 0, 50, 49
4, 6480, Note_on_c, 0, 53, 49
4, 6480, Note_on_c, 0, 57, 49
4, 7200, Note_on_c, 0, 57, 0
4, 7200, Note_on_c, 0, 53, 0
4, 7200, Note_on_c, 0, 50, 0
4, 7200, Note_on_c, 0, 36, 49
4, 7200, Note_on_c, 0, 48, 49
4, 7200, Note_on_c, 0, 52, 49
4, 7200, Note_on_c, 0, 58, 49
4, 7440, Note_on_c, 0, 58, 0
4, 7440, Note_on_c, 0, 36, 0
4, 7440, Note_on_c, 0, 48, 0
4, 7440, Note_on_c, 0, 52, 0
4, 7920, Note_on_c, 0, 48, 49
4, 7920, Note_on_c, 0, 52, 49
4, 7920, Note_on_c, 0, 58, 49
4, 8640, Note_on_c, 0, 58, 0
4, 8640, Note_on_c, 0, 52, 0
4, 8640, Note_on_c, 0, 48, 0
4, 8640, Note_on_c, 0, 34, 49
4, 8640, Note_on_c, 0, 46, 49
4, 8640, Note_on_c, 0, 53, 49
4, 8640, Note_on_c, 0, 58, 49
4, 8880, Note_on_c, 0, 58, 0
4, 8880, Note_on_c, 0, 34, 0
4, 8880, Note_on_c, 0, 46, 0
4, 8880, Note_on_c, 0, 53, 0
4, 9360, Note_on_c, 0, 46, 49
4, 9360, Note_on_c, 0, 53, 49
4, 9360, Note_on_c, 0, 58, 49
4, 10080, Note_on_c, 0, 58, 0
4, 10080, Note_on_c, 0, 53, 0
4, 10080, Note_on_c, 0, 46, 0
4, 10080, Note_on_c, 0, 33, 62
4, 10080, Note_on_c, 0, 45, 62
4, 10320, Note_on_c, 0, 45, 0
4, 10320, Note_on_c, 0, 33, 0
4, 10800, Note_on_c, 0, 45, 62
4, 10800, Note_on_c, 0, 55, 62
4, 10800, Note_on_c, 0, 61, 62
4, 11520, Note_on_c, 0, 61, 0
4, 11520, Note_on_c, 0, 55, 0
4, 11520, Note_on_c, 0, 45, 0
4, 11520, Note_on_c, 0, 38, 49
4, 11520, Note_on_c, 0, 50, 49
4, 11760, Note_on_c, 0, 50, 0
4, 11760, Note_on_c, 0, 38, 0
4, 12240, Note_on_c, 0, 50, 49
4, 12240, Note_on_c, 0, 53, 49
4, 12240, Note_on_c, 0, 57, 49
4, 12960, Note_on_c, 0, 57, 0
4, 12960, Note_on_c, 0, 53, 0
4, 12960, Note_on_c, 0, 50, 0
4, 12960, Note_on_c, 0, 46, 49
4, 12960, Note_on_c, 0, 50, 49
4, 12960, Note_on_c, 0, 53, 49
4, 13680, Note_on_c, 0, 53, 0
4, 13680, Note_on_c, 0, 50, 0
4, 13680, Note_on_c, 0, 46, 0
4, 13680, Note_on_c, 0, 48, 49
4, 13680, Note_on_c, 0, 52, 49
4, 13680, Note_on_c, 0, 58, 49
4, 14400, Note_on_c, 0, 58, 0
4, 14400, Note_on_c, 0, 52, 0
4, 14400, Note_on_c, 0, 48, 0
4, 14400, Note_on_c, 0, 41, 49
4, 14400, Note_on_c, 0, 48, 49
4, 14400, Note_on_c, 0, 53, 49
4, 14640, Note_on_c, 0, 53, 0
4, 14640, Note_on_c, 0, 48, 0
4, 14640, Note_on_c, 0, 41, 0
4, 15120, Note_on_c, 0, 53, 49
4, 15840, Note_on_c, 0, 53, 0
4, 15840, Note_on_c, 0, 40, 49
4, 15840, Note_on_c, 0, 48, 49
4, 16080, Note_on_c, 0, 48, 0
4, 16080, Note_on_c, 0, 40, 0
4, 16560, Note_on_c, 0, 52, 49
4, 17280, Note_on_c, 0, 52, 0
4, 17280, Note_on_c, 0, 38, 49
4, 17280, Note_on_c, 0, 50, 49
4, 17520, Note_on_c, 0, 50, 0
4, 17520, Note_on_c, 0, 38, 0
4, 18000, Note_on_c, 0, 50, 49
4, 18000, Note_on_c, 0, 53, 49
4, 18000, Note_on_c, 0, 57, 49
4, 18720, Note_on_c, 0, 57, 0
4, 18720, Note_on_c, 0, 53, 0
4, 18720, Note_on_c, 0, 50, 0
4, 18720, Note_on_c, 0, 37, 75
4, 18720, Note_on_c, 0, 49, 75
4, 18960, Note_on_c, 0, 49, 0
4, 18960, Note_on_c, 0, 37, 0
4, 19440, Note_on_c, 0, 52, 75
4, 19920, Note_on_c, 0, 52, 0
4, 19920, Note_on_c, 0, 52, 75
4, 20160, Note_on_c, 0, 52, 0
4, 20160, Note_on_c, 0, 54, 75
4, 20520, Note_on_c, 0, 54, 0
4, 20520, Note_on_c, 0, 56, 75
4, 20880, Note_on_c, 0, 56, 0
4, 20880, Note_on_c, 0, 57, 88
4, 21240, Note_on_c, 0, 57, 0
4, 21240, Note_on_c, 0, 59, 88
4, 21600, Note_on_c, 0, 59, 0
4, 21600, Note_on_c, 0, 61, 88
4, 23040, Note_on_c, 0, 61, 0
4, 23040, Note_on_c, 0, 62, 75
4, 23760, Note_on_c, 0, 62, 0
4, 23760, Note_on_c, 0, 54, 75
4, 24240, Note_on_c, 0, 54, 0
4, 24240, Note_on_c, 0, 56, 75
4, 24480, Note_on_c, 0, 56, 0
4, 24480, Note_on_c, 0, 57, 62
4, 25200, Note_on_c, 0, 57, 0
4, 25920, Note_on_c, 0, 43, 75
4, 25920, Note_on_c, 0, 50, 75
4, 25920, Note_on_c, 0, 55, 75
4, 26160, Note_on_c, 0, 55, 0
4, 26160, Note_on_c, 0, 50, 0
4, 26160, Note_on_c, 0, 43, 0
4, 26640, Note_on_c, 0, 55, 75
4, 26640, Note_on_c, 0, 58, 75
4, 26640, Note_on_c, 0, 62, 75
4, 27360, Note_on_c, 0, 62, 0
4, 27360, Note_on_c, 0, 58, 0
4, 27360, Note_on_c, 0, 55, 0
4, 27360, Note_on_c, 0, 38, 62
4, 27360, Note_on_c, 0, 50, 62
4, 27360, Note_on_c, 0, 55, 62
4, 27600, Note_on_c, 0, 55, 0
4, 27600, Note_on_c, 0, 50, 0
4, 27600, Note_on_c, 0, 38, 0
4, 28080, Note_on_c, 0, 50, 49
4, 28080, Note_on_c, 0, 55, 49
4, 28080, Note_on_c, 0, 58, 49
4, 28080, Note_on_c, 0, 62, 49
4, 28800, Note_on_c, 0, 62, 0
4, 28800, Note_on_c, 0, 50, 0
4, 28800, Note_on_c, 0, 55, 0
4, 28800, Note_on_c, 0, 58, 0
4, 28800, Note_on_c, 0, 43, 49
4, 28800, Note_on_c, 0, 50, 49
4, 28800, Note_on_c, 0, 55, 49
4, 29040, Note_on_c, 0, 55, 0
4, 29040, Note_on_c, 0, 50, 0
4, 29040, Note_on_c, 0, 43, 0
4, 29520, Note_on_c, 0, 50, 49
4, 29520, Note_on_c, 0, 55, 49
4, 30240, Note_on_c, 0, 55, 0
4, 30240, Note_on_c, 0, 50, 0
4, 30240, Note_on_c, 0, 36, 49
4, 30240, Note_on_c, 0, 48, 49
4, 30480, Note_on_c, 0, 48, 0
4, 30480, Note_on_c, 0, 36, 0
4, 30960, Note_on_c, 0, 48, 62
4, 30960, Note_on_c, 0, 52, 62
4, 31680, Note_on_c, 0, 52, 0
4, 31680, Note_on_c, 0, 48, 0
4, 31680, Note_on_c, 0, 43, 75
4, 31680, Note_on_c, 0, 50, 75
4, 31680, Note_on_c, 0, 55, 75
4, 31920, Note_on_c, 0, 55, 0
4, 31920, Note_on_c, 0, 50, 0
4, 31920, Note_on_c, 0, 43, 0
4, 32400, Note_on_c, 0, 55, 75
4, 32400, Note_on_c, 0, 58, 75
4, 32400, Note_on_c, 0, 62, 75
4, 33120, Note_on_c, 0, 62, 0
4, 33120, Note_on_c, 0, 58, 0
4, 33120, Note_on_c, 0, 55, 0
4, 33120, Note_on_c, 0, 38, 62
4, 33120, Note_on_c, 0, 50, 62
4, 33120, Note_on_c, 0, 55, 62
4, 33360, Note_on_c, 0, 55, 0
4, 33360, Note_on_c, 0, 50, 0
4, 33360, Note_on_c, 0, 38, 0
4, 33840, Note_on_c, 0, 50, 62
4, 33840, Note_on_c, 0, 55, 62
4, 33840, Note_on_c, 0, 58, 62
4, 33840, Note_on_c, 0, 62, 62
4, 34560, Note_on_c, 0, 62, 0
4, 34560, Note_on_c, 0, 50, 0
4, 34560, Note_on_c, 0, 55, 0
4, 34560, Note_on_c, 0, 58, 0
4, 34560, Note_on_c, 0, 34, 49
4, 34560, Note_on_c, 0, 46, 49
4, 34800, Note_on_c, 0, 46, 0
4, 34800, Note_on_c, 0, 34, 0
4, 35280, Note_on_c, 0, 46, 49
4, 35280, Note_on_c, 0, 50, 49
4, 35280, Note_on_c, 0, 55, 49
4, 36000, Note_on_c, 0, 55, 0
4, 36000, Note_on_c, 0, 50, 0
4, 36000, Note_on_c, 0, 46, 0
4, 36000, Note_on_c, 0, 36, 49
4, 36000, Note_on_c, 0, 48, 49
4, 36240, Note_on_c, 0, 48, 0
4, 36240, Note_on_c, 0, 36, 0
4, 36720, Note_on_c, 0, 48, 49
4, 36720, Note_on_c, 0, 52, 49
4, 36720, Note_on_c, 0, 58, 49
4, 36720, Note_on_c, 0, 60, 49
4, 37440, Note_on_c, 0, 60, 0
4, 37440, Note_on_c, 0, 48, 0
4, 37440, Note_on_c, 0, 52, 0
4, 37440, Note_on_c, 0, 58, 0
4, 37440, Note_on_c, 0, 43, 49
4, 37440, Note_on_c, 0, 50, 49
4, 37440, Note_on_c, 0, 55, 49
4, 37680, Note_on_c, 0, 55, 0
4, 37680, Note_on_c, 0, 50, 0
4, 37680, Note_on_c, 0, 43, 0
4, 38160, Note_on_c, 0, 50, 49
4, 38160, Note_on_c, 0, 55, 49
4, 38160, Note_on_c, 0, 58, 49
4, 38160, Note_on_c, 0, 62, 49
4, 38880, Note_on_c, 0, 62, 0
4, 38880, Note_on_c, 0, 50, 0
4, 38880, Note_on_c, 0, 55, 0
4, 38880, Note_on_c, 0, 58, 0
4, 38880, Note_on_c, 0, 34, 62
4, 38880, Note_on_c, 0, 46, 62
4, 39120, Note_on_c, 0, 46, 0
4, 39120, Note_on_c, 0, 34, 0
4, 39600, Note_on_c, 0, 46, 49
4, 39600, Note_on_c, 0, 50, 49
4, 39600, Note_on_c, 0, 55, 49
4, 40320, Note_on_c, 0, 55, 0
4, 40320, Note_on_c, 0, 50, 0
4, 40320, Note_on_c, 0, 46, 0
4, 40320, Note_on_c, 0, 38, 49
4, 40320, Note_on_c, 0, 50, 49
4, 40560, Note_on_c, 0, 50, 0
4, 40560, Note_on_c, 0, 38, 0
4, 41040, Note_on_c, 0, 50, 49
4, 41040, Note_on_c, 0, 55, 49
4, 41760, Note_on_c, 0, 55, 0
4, 41760, Note_on_c, 0, 50, 0
4, 41760, Note_on_c, 0, 36, 49
4, 41760, Note_on_c, 0, 48, 49
4, 42000, Note_on_c, 0, 48, 0
4, 42000, Note_on_c, 0, 36, 0
4, 42480, Note_on_c, 0, 48, 62
4, 42480, Note_on_c, 0, 52, 62
4, 43200, Note_on_c, 0, 52, 0
4, 43200, Note_on_c, 0, 48, 0
4, 43200, Note_on_c, 0, 43, 75
4, 43200, Note_on_c, 0, 50, 75
4, 43200, Note_on_c, 0, 55, 75
4, 43440, Note_on_c, 0, 55, 0
4, 43440, Note_on_c, 0, 50, 0
4, 43440, Note_on_c, 0, 43, 0
4, 43920, Note_on_c, 0, 50, 75
4, 43920, Note_on_c, 0, 55, 75
4, 43920, Note_on_c, 0, 58, 75
4, 43920, Note_on_c, 0, 62, 75
4, 44640, Note_on_c, 0, 62, 0
4, 44640, Note_on_c, 0, 50, 0
4, 44640, Note_on_c, 0, 55, 0
4, 44640, Note_on_c, 0, 58, 0
4, 44640, Note_on_c, 0, 34, 62
4, 44640, Note_on_c, 0, 46, 62
4, 44880, Note_on_c, 0, 46, 0
4, 44880, Note_on_c, 0, 34, 0
4, 45360, Note_on_c, 0, 46, 62
4, 45360, Note_on_c, 0, 50, 62
4, 45360, Note_on_c, 0, 55, 62
4, 46080, Note_on_c, 0, 55, 0
4, 46080, Note_on_c, 0, 50, 0
4, 46080, Note_on_c, 0, 46, 0
4, 46080, Note_on_c, 0, 38, 49
4, 46080, Note_on_c, 0, 50, 49
4, 46320, Note_on_c, 0, 50, 0
4, 46320, Note_on_c, 0, 38, 0
4, 46800, Note_on_c, 0, 50, 49
4, 46800, Note_on_c, 0, 55, 49
4, 46800, Note_on_c, 0, 62, 49
4, 47520, Note_on_c, 0, 62, 0
4, 47520, Note_on_c, 0, 55, 0
4, 47520, Note_on_c, 0, 50, 0
4, 47520, Note_on_c, 0, 36, 62
4, 47520, Note_on_c, 0, 48, 62
4, 47760, Note_on_c, 0, 48, 0
4, 47760, Note_on_c, 0, 36, 0
4, 48240, Note_on_c, 0, 48, 62
4, 48240, Note_on_c, 0, 55, 62
4, 48240, Note_on_c, 0, 58, 62
4, 48240, Note_on_c, 0, 60, 62
4, 48960, Note_on_c, 0, 60, 0
4, 48960, Note_on_c, 0, 48, 0
4, 48960, Note_on_c, 0, 55, 0
4, 48960, Note_on_c, 0, 58, 0
4, 48960, Note_on_c, 0, 36, 49
4, 48960, Note_on_c, 0, 48, 49
4, 49200, Note_on_c, 0, 48, 0
4, 49200, Note_on_c, 0, 36, 0
4, 49680, Note_on_c, 0, 38, 49
4, 49680, Note_on_c, 0, 50, 49
4, 49920, Note_on_c, 0, 50, 0
4, 49920, Note_on_c, 0, 38, 0
4, 50400, Note_on_c, 0, 39, 49
4, 50400, Note_on_c, 0, 51, 49
4, 50640, Note_on_c, 0, 51, 0
4, 50640, Note_on_c, 0, 39, 0
4, 51120, Note_on_c, 0, 51, 49
4, 51120, Note_on_c, 0, 56, 49
4, 51120, Note_on_c, 0, 60, 49
4, 51840, Note_on_c, 0, 60, 0
4, 51840, Note_on_c, 0, 56, 0
4, 51840, Note_on_c, 0, 51, 0
4, 51840, Note_on_c, 0, 39, 49
4, 51840, Note_on_c, 0, 51, 49
4, 52080, Note_on_c, 0, 51, 0
4, 52080, Note_on_c, 0, 39, 0
4, 52560, Note_on_c, 0, 51, 49
4, 52560, Note_on_c, 0, 55, 49
4, 52560, Note_on_c, 0, 58, 49
4, 53280, Note_on_c, 0, 58, 0
4, 53280, Note_on_c, 0, 55, 0
4, 53280, Note_on_c, 0, 51, 0
4, 53280, Note_on_c, 0, 40, 49
4, 53280, Note_on_c, 0, 52, 49
4, 53520, Note_on_c, 0, 52, 0
4, 53520, Note_on_c, 0, 40, 0
4, 54000, Note_on_c, 0, 52, 49
4, 54000, Note_on_c, 0, 55, 49
4, 54000, Note_on_c, 0, 58, 49
4, 54720, Note_on_c, 0, 58, 0
4, 54720, Note_on_c, 0, 55, 0
4, 54720, Note_on_c, 0, 52, 0
4, 54720, Note_on_c, 0, 41, 49
4, 54720, Note_on_c, 0, 48, 49
4, 54720, Note_on_c, 0, 53, 49
4, 54960, Note_on_c, 0, 53, 0
4, 54960, Note_on_c, 0, 48, 0
4, 54960, Note_on_c, 0, 41, 0
4, 55440, Note_on_c, 0, 34, 49
4, 55440, Note_on_c, 0, 46, 49
4, 55680, Note_on_c, 0, 46, 0
4, 55680, Note_on_c, 0, 34, 0
4, 56160, Note_on_c, 0, 35, 49
4, 56160, Note_on_c, 0, 47, 49
4, 56400, Note_on_c, 0, 47, 0
4, 56400, Note_on_c, 0, 35, 0
4, 56880, Note_on_c, 0, 47, 49
4, 56880, Note_on_c, 0, 53, 49
4, 56880, Note_on_c, 0, 56, 49
4, 57600, Note_on_c, 0, 56, 0
4, 57600, Note_on_c, 0, 53, 0
4, 57600, Note_on_c, 0, 47, 0
4, 57600, Note_on_c, 0, 36, 49
4, 57600, Note_on_c, 0, 48, 49
4, 58320, Note_on_c, 0, 48, 0
4, 58320, Note_on_c, 0, 36, 0
4, 58320, Note_on_c, 0, 48, 49
4, 58320, Note_on_c, 0, 52, 49
4, 58320, Note_on_c, 0, 58, 49
4, 59040, Note_on_c, 0, 58, 0
4, 59040, Note_on_c, 0, 52, 0
4, 59040, Note_on_c, 0, 48, 0
4, 59040, Note_on_c, 0, 53, 62
4, 59160, Note_on_c, 0, 53, 0
4, 59160, Note_on_c, 0, 41, 62
4, 59280, Note_on_c, 0, 41, 0
4, 59280, Note_on_c, 0, 48, 62
4, 59400, Note_on_c, 0, 48, 0
4, 59400, Note_on_c, 0, 53, 62
4, 59520, Note_on_c, 0, 53, 0
4, 59520, Note_on_c, 0, 57, 62
4, 59640, Note_on_c, 0, 57, 0
4, 59640, Note_on_c, 0, 60, 62
4, 59760, Note_on_c, 0, 60, 0
4, 59760, Note_on_c, 0, 65, 88
4, 60360, Note_on_c, 0, 65, 0
4, 60360, Note_on_c, 0, 64, 62
4, 60480, Note_on_c, 0, 64, 0
4, 60480, Note_on_c, 0, 64, 62
4, 61200, Note_on_c, 0, 64, 0
4, 61200, Note_on_c, 0, 62, 62
4, 62040, Note_on_c, 0, 62, 0
4, 62040, Note_on_c, 0, 38, 62
4, 62160, Note_on_c, 0, 38, 0
4, 62160, Note_on_c, 0, 45, 62
4, 62280, Note_on_c, 0, 45, 0
4, 62280, Note_on_c, 0, 50, 62
4, 62400, Note_on_c, 0, 50, 0
4, 62400, Note_on_c, 0, 53, 62
4, 62520, Note_on_c, 0, 53, 0
4, 62520, Note_on_c, 0, 57, 62
4, 62640, Note_on_c, 0, 57, 0
4, 62640, Note_on_c, 0, 62, 88
4, 63240, Note_on_c, 0, 62, 0
4, 63240, Note_on_c, 0, 60, 62
4, 63280, Note_on_c, 0, 43, 62
4, 63320, Note_on_c, 0, 50, 62
4, 63360, Note_on_c, 0, 60, 0
4, 63360, Note_on_c, 0, 60, 62
4, 64080, Note_on_c, 0, 60, 0
4, 64080, Note_on_c, 0, 50, 0
4, 64080, Note_on_c, 0, 43, 0
4, 64080, Note_on_c, 0, 58, 62
4, 64920, Note_on_c, 0, 58, 0
4, 64920, Note_on_c, 0, 43, 62
4, 65040, Note_on_c, 0, 43, 0
4, 65040, Note_on_c, 0, 50, 62
4, 65160, Note_on_c, 0, 50, 0
4, 65160, Note_on_c, 0, 55, 62
4, 65280, Note_on_c, 0, 55, 0
4, 65280, Note_on_c, 0, 58, 62
4, 65400, Note_on_c, 0, 58, 0
4, 65400, Note_on_c, 0, 62, 62
4, 65520, Note_on_c, 0, 62, 0
4, 65520, Note_on_c, 0, 67, 88
4, 66120, Note_on_c, 0, 67, 0
4, 66120, Note_on_c, 0, 65, 62
4, 66240, Note_on_c, 0, 65, 0
4, 66240, Note_on_c, 0, 65, 62
4, 66960, Note_on_c, 0, 65, 0
4, 66960, Note_on_c, 0, 64, 62
4, 67782, Note_on_c, 0, 64, 0
4, 67782, Note_on_c, 0, 40, 62
4, 67885, Note_on_c, 0, 40, 0
4, 67885, Note_on_c, 0, 44, 62
4, 67988, Note_on_c, 0, 44, 0
4, 67988, Note_on_c, 0, 47, 62
4, 68091, Note_on_c, 0, 47, 0
4, 68091, Note_on_c, 0, 52, 62
4, 68194, Note_on_c, 0, 52, 0
4, 68194, Note_on_c, 0, 56, 62
4, 68297, Note_on_c, 0, 56, 0
4, 68297, Note_on_c, 0, 59, 62
4, 68400, Note_on_c, 0, 59, 0
4, 68400, Note_on_c, 0, 64, 88
4, 69000, Note_on_c, 0, 64, 0
4, 69000, Note_on_c, 0, 62, 62
4, 69040, Note_on_c, 0, 45, 62
4, 69080, Note_on_c, 0, 52, 62
4, 69120, Note_on_c, 0, 62, 0
4, 69120, Note_on_c, 0, 62, 62
4, 69840, Note_on_c, 0, 62, 0
4, 69840, Note_on_c, 0, 52, 0
4, 69840, Note_on_c, 0, 45, 0
4, 69840, Note_on_c, 0, 60, 62
4, 70800, Note_on_c, 0, 60, 0
4, 70800, Control_c, 0, 64, 127
4, 70800, Note_on_c, 0, 57, 49
4, 70800, Note_on_c, 0, 64, 49
4, 71040, Note_on_c, 0, 64, 0
4, 71040, Note_on_c, 0, 57, 0
4, 71040, Note_on_c, 0, 57, 49
4, 71040, Note_on_c, 0, 64, 49
4, 71280, Note_on_c, 0, 64, 0
4, 71280, Note_on_c, 0, 57, 0
4, 71280, Note_on_c, 0, 57, 49
4, 71280, Note_on_c, 0, 64, 49
4, 71520, Note_on_c, 0, 64, 0
4, 71520, Note_on_c, 0, 57, 0
4, 71520, Note_on_c, 0, 66, 49
4, 71760, Note_on_c, 0, 66, 0
4, 71760, Control_c, 0, 64, 0
4, 71760, Note_on_c, 0, 68, 49
4, 72000, Note_on_c, 0, 68, 0
4, 72000, Note_on_c, 0, 69, 49
4, 72240, Note_on_c, 0, 69, 0
4, 72240, Control_c, 0, 64, 127
4, 72240, Note_on_c, 0, 57, 49
4, 72240, Note_on_c, 0, 64, 49
4, 72480, Note_on_c, 0, 64, 0
4, 72480, Note_on_c, 0, 57, 0
4, 72480, Note_on_c, 0, 57, 49
4, 72480, Note_on_c, 0, 64, 49
4, 72720, Note_on_c, 0, 64, 0
4, 72720, Note_on_c, 0, 57, 0
4, 72720, Note_on_c, 0, 57, 49
4, 72720, Note_on_c, 0, 64, 49
4, 72960, Note_on_c, 0, 64, 0
4, 72960, Note_on_c, 0, 57, 0
4, 72960, Note_on_c, 0, 66, 49
4, 73200, Note_on_c, 0, 66, 0
4, 73200, Control_c, 0, 64, 0
4, 73200, Note_on_c, 0, 68, 49
4, 73440, Note_on_c, 0, 68, 0
4, 73440, Note_on_c, 0, 69, 62
4, 73560, Note_on_c, 0, 69, 0
4, 73560, Note_on_c, 0, 45, 62
4, 73680, Note_on_c, 0, 45, 0
4, 73680, Note_on_c, 0, 52, 62
4, 73800, Note_on_c, 0, 52, 0
4, 73800, Note_on_c, 0, 57, 62
4, 73920, Note_on_c, 0, 57, 0
4, 73920, Note_on_c, 0, 60, 62
4, 74040, Note_on_c, 0, 60, 0
4, 74040, Note_on_c, 0, 64, 62
4, 74160, Note_on_c, 0, 64, 0
4, 74160, Note_on_c, 0, 69, 62
4, 74760, Note_on_c, 0, 69, 0
4, 74760, Note_on_c, 0, 67, 62
4, 74880, Note_on_c, 0, 67, 0
4, 74880, Note_on_c, 0, 67, 62
4, 75600, Note_on_c, 0, 67, 0
4, 75600, Note_on_c, 0, 66, 62
4, 76320, Note_on_c, 0, 66, 0
4, 76320, Note_on_c, 0, 66, 62
4, 76440, Note_on_c, 0, 66, 0
4, 76440, Note_on_c, 0, 42, 62
4, 76560, Note_on_c, 0, 42, 0
4, 76560, Note_on_c, 0, 49, 62
4, 76680, Note_on_c, 0, 49, 0
4, 76680, Note_on_c, 0, 54, 62
4, 76800, Note_on_c, 0, 54, 0
4, 76800, Note_on_c, 0, 58, 62
4, 76920, Note_on_c, 0, 58, 0
4, 76920, Note_on_c, 0, 61, 62
4, 77040, Note_on_c, 0, 61, 0
4, 77040, Note_on_c, 0, 66, 88
4, 77640, Note_on_c, 0, 66, 0
4, 77640, Note_on_c, 0, 64, 62
4, 77760, Note_on_c, 0, 64, 0
4, 77760, Note_on_c, 0, 64, 62
4, 78480, Note_on_c, 0, 64, 0
4, 78480, Note_on_c, 0, 62, 62
4, 79200, Note_on_c, 0, 62, 0
4, 79200, Note_on_c, 0, 47, 49
4, 79200, Note_on_c, 0, 54, 49
4, 79200, Note_on_c, 0, 62, 49
4, 79440, Note_on_c, 0, 62, 0
4, 79440, Note_on_c, 0, 54, 0
4, 79440, Note_on_c, 0, 47, 0
4, 79440, Note_on_c, 0, 47, 49
4, 79440, Note_on_c, 0, 54, 49
4, 79680, Note_on_c, 0, 54, 0
4, 79680, Note_on_c, 0, 47, 0
4, 79680, Note_on_c, 0, 47, 49
4, 79680, Note_on_c, 0, 54, 49
4, 79920, Note_on_c, 0, 54, 0
4, 79920, Note_on_c, 0, 47, 0
4, 79920, Control_c, 0, 64, 127
4, 79920, Note_on_c, 0, 47, 49
4, 79920, Note_on_c, 0, 54, 49
4, 80160, Note_on_c, 0, 54, 0
4, 80160, Note_on_c, 0, 47, 0
4, 80160, Note_on_c, 0, 56, 49
4, 80400, Note_on_c, 0, 56, 0
4, 80400, Control_c, 0, 64, 0
4, 80400, Note_on_c, 0, 58, 49
4, 80640, Note_on_c, 0, 58, 0
4, 80640, Note_on_c, 0, 59, 49
4, 80880, Note_on_c, 0, 59, 0
4, 80880, Note_on_c, 0, 47, 49
4, 80880, Note_on_c, 0, 54, 49
4, 81120, Note_on_c, 0, 54, 0
4, 81120, Note_on_c, 0, 47, 0
4, 81120, Note_on_c, 0, 47, 49
4, 81120, Note_on_c, 0, 54, 49
4, 81360, Note_on_c, 0, 54, 0
4, 81360, Note_on_c, 0, 47, 0
4, 81360, Control_c, 0, 64, 127
4, 81360, Note_on_c, 0, 47, 49
4, 81360, Note_on_c, 0, 54, 49
4, 81600, Note_on_c, 0, 54, 0
4, 81600, Note_on_c, 0, 47, 0
4, 81600, Note_on_c, 0, 56, 49
4, 81840, Note_on_c, 0, 56, 0
4, 81840, Control_c, 0, 64, 0
4, 81840, Note_on_c, 0, 58, 49
4, 82080, Note_on_c, 0, 58, 0
4, 82080, Note_on_c, 0, 59, 62
4, 82140, Note_on_c, 0, 59, 0
4, 82140, Note_on_c, 0, 42, 62
4, 82200, Note_on_c, 0, 42, 0
4, 82200, Note_on_c, 0, 44, 62
4, 82260, Note_on_c, 0, 44, 0
4, 82260, Note_on_c, 0, 46, 62
4, 82320, Note_on_c, 0, 46, 0
4, 82320, Note_on_c, 0, 47, 62
4, 82380, Note_on_c, 0, 47, 0
4, 82380, Note_on_c, 0, 49, 62
4, 82440, Note_on_c, 0, 49, 0
4, 82440, Note_on_c, 0, 50, 62
4, 82500, Note_on_c, 0, 50, 0
4, 82500, Note_on_c, 0, 52, 62
4, 82560, Note_on_c, 0, 52, 0
4, 82560, Note_on_c, 0, 54, 62
4, 82620, Note_on_c, 0, 54, 0
4, 82620, Note_on_c, 0, 55, 62
4, 82680, Note_on_c, 0, 55, 0
4, 82680, Note_on_c, 0, 56, 62
4, 82740, Note_on_c, 0, 56, 0
4, 82740, Note_on_c, 0, 58, 62
4, 82800, Note_on_c, 0, 58, 0
4, 82800, Note_on_c, 0, 59, 88
4, 83400, Note_on_c, 0, 59, 0
4, 83400, Note_on_c, 0, 57, 62
4, 83520, Note_on_c, 0, 57, 0
4, 83520, Note_on_c, 0, 57, 62
4, 84240, Note_on_c, 0, 57, 0
4, 84240, Note_on_c, 0, 56, 62
4, 85020, Note_on_c, 0, 56, 0
4, 85020, Note_on_c, 0, 39, 62
4, 85080, Note_on_c, 0, 39, 0
4, 85080, Note_on_c, 0, 40, 62
4, 85140, Note_on_c, 0, 40, 0
4, 85140, Note_on_c, 0, 42, 62
4, 85200, Note_on_c, 0, 42, 0
4, 85200, Note_on_c, 0, 44, 62
4, 85260, Note_on_c, 0, 44, 0
4, 85260, Note_on_c, 0, 46, 62
4, 85320, Note_on_c, 0, 46, 0
4, 85320, Note_on_c, 0, 48, 62
4, 85380, Note_on_c, 0, 48, 0
4, 85380, Note_on_c, 0, 49, 62
4, 85440, Note_on_c, 0, 49, 0
4, 85440, Note_on_c, 0, 51, 62
4, 85500, Note_on_c, 0, 51, 0
4, 85500, Note_on_c, 0, 52, 62
4, 85560, Note_on_c, 0, 52, 0
4, 85560, Note_on_c, 0, 54, 62
4, 85620, Note_on_c, 0, 54, 0
4, 85620, Note_on_c, 0, 55, 62
4, 85680, Note_on_c, 0, 55, 0
4, 85680, Note_on_c, 0, 56, 88
4, 86280, Note_on_c, 0, 56, 0
4, 86280, Note_on_c, 0, 54, 62
4, 86400, Note_on_c, 0, 54, 0
4, 86400, Note_on_c, 0, 54, 62
4, 87120, Note_on_c, 0, 54, 0
4, 87120, Note_on_c, 0, 52, 62
4, 88560, Note_on_c, 0, 52, 0
4, 88560, Note_on_c, 0, 51, 49
4, 89280, Note_on_c, 0, 51, 0
4, 89400, Note_on_c, 0, 56, 62
4, 89400, Note_on_c, 0, 61, 62
4, 89640, Note_on_c, 0, 61, 0
4, 89640, Note_on_c, 0, 56, 0
4, 89640, Note_on_c, 0, 56, 62
4, 89640, Note_on_c, 0, 61, 62
4, 89880, Note_on_c, 0, 61, 0
4, 89880, Note_on_c, 0, 56, 0
4, 89880, Note_on_c, 0, 56, 62
4, 89880, Note_on_c, 0, 61, 62
4, 90120, Note_on_c, 0, 61, 0
4, 90120, Note_on_c, 0, 56, 0
4, 90120, Note_on_c, 0, 56, 62
4, 90120, Note_on_c, 0, 60, 62
4, 90360, Note_on_c, 0, 60, 0
4, 90360, Note_on_c, 0, 56, 0
4, 90360, Note_on_c, 0, 56, 62
4, 90360, Note_on_c, 0, 60, 62
4, 90600, Note_on_c, 0, 60, 0
4, 90600, Note_on_c, 0, 56, 0
4, 90600, Note_on_c, 0, 56, 62
4, 90600, Note_on_c, 0, 60, 62
4, 90720, Note_on_c, 0, 60, 0
4, 90720, Note_on_c, 0, 56, 0
4, 90840, Note_on_c, 0, 52, 62
4, 90840, Note_on_c, 0, 58, 62
4, 90960, Note_on_c, 0, 58, 0
4, 90960, Note_on_c, 0, 52, 0
4, 91080, Note_on_c, 0, 52, 62
4, 91080, Note_on_c, 0, 57, 62
4, 91200, Note_on_c, 0, 57, 0
4, 91200, Note_on_c, 0, 52, 0
4, 91320, Note_on_c, 0, 57, 62
4, 91320, Note_on_c, 0, 65, 62
4, 91440, Note_on_c, 0, 65, 0
4, 91440, Note_on_c, 0, 57, 0
4, 91560, Note_on_c, 0, 57, 62
4, 91560, Note_on_c, 0, 64, 62
4, 91800, Note_on_c, 0, 64, 0
4, 91800, Note_on_c, 0, 57, 0
4, 91800, Note_on_c, 0, 57, 62
4, 91800, Note_on_c, 0, 64, 62
4, 92040, Note_on_c, 0, 64, 0
4, 92040, Note_on_c, 0, 57, 0
4, 92040, Note_on_c, 0, 57, 62
4, 92040, Note_on_c, 0, 64, 62
4, 92160, Note_on_c, 0, 64, 0
4, 92160, Note_on_c, 0, 57, 0
4, 92280, Note_on_c, 0, 57, 62
4, 92280, Note_on_c, 0, 62, 62
4, 92520, Note_on_c, 0, 62, 0
4, 92520, Note_on_c, 0, 57, 0
4, 92520, Note_on_c, 0, 57, 62
4, 92520, Note_on_c, 0, 62, 62
4, 92760, Note_on_c, 0, 62, 0
4, 92760, Note_on_c, 0, 57, 0
4, 92760, Note_on_c, 0, 57, 62
4, 92760, Note_on_c, 0, 62, 62
4, 93000, Note_on_c, 0, 62, 0
4, 93000, Note_on_c, 0, 57, 0
4, 93000, Note_on_c, 0, 57, 62
4, 93000, Note_on_c, 0, 61, 62
4, 93240, Note_on_c, 0, 61, 0
4, 93240, Note_on_c, 0, 57, 0
4, 93240, Note_on_c, 0, 57, 62
4, 93240, Note_on_c, 0, 61, 62
4, 93480, Note_on_c, 0, 61, 0
4, 93480, Note_on_c, 0, 57, 0
4, 93480, Note_on_c, 0, 57, 62
4, 93480, Note_on_c, 0, 61, 62
4, 93600, Note_on_c, 0, 61, 0
4, 93600, Note_on_c, 0, 57, 0
4, 93600, Note_on_c, 0, 48, 62
4, 95040, Note_on_c, 0, 48, 0
4, 95040, Note_on_c, 0, 47, 62
4, 96480, Note_on_c, 0, 47, 0
4, 96480, Note_on_c, 0, 65, 101
4, 97200, Note_on_c, 0, 65, 0
4, 97200, Note_on_c, 0, 57, 75
4, 97680, Note_on_c, 0, 57, 0
4, 97680, Note_on_c, 0, 62, 75
4, 97920, Note_on_c, 0, 62, 0
4, 97920, Note_on_c, 0, 55, 75
4, 99120, Note_on_c, 0, 55, 0
4, 99120, Note_on_c, 0, 60, 75
4, 99360, Note_on_c, 0, 60, 0
4, 99360, Note_on_c, 0, 62, 75
4, 99720, Note_on_c, 0, 62, 0
4, 99720, Note_on_c, 0, 64, 75
4, 100080, Note_on_c, 0, 64, 0
4, 100080, Note_on_c, 0, 65, 88
4, 100440, Note_on_c, 0, 65, 0
4, 100440, Note_on_c, 0, 67, 88
4, 100800, Note_on_c, 0, 67, 0
4, 100800, Note_on_c, 0, 60, 88
4, 102000, Note_on_c, 0, 60, 0
4, 102000, Note_on_c, 0, 60, 75
4, 102240, Note_on_c, 0, 60, 0
4, 102240, Note_on_c, 0, 62, 75
4, 102600, Note_on_c, 0, 62, 0
4, 102600, Note_on_c, 0, 64, 75
4, 102960, Note_on_c, 0, 64, 0
4, 102960, Note_on_c, 0, 65, 88
4, 103320, Note_on_c, 0, 65, 0
4, 103320, Note_on_c, 0, 67, 88
4, 103680, Note_on_c, 0, 67, 0
4, 103680, Note_on_c, 0, 69, 101
4, 104880, Note_on_c, 0, 69, 0
4, 104880, Note_on_c, 0, 64, 101
4, 105120, Note_on_c, 0, 64, 0
4, 105120, Note_on_c, 0, 67, 101
4, 105480, Note_on_c, 0, 67, 0
4, 105480, Note_on_c, 0, 65, 101
4, 105840, Note_on_c, 0, 65, 0
4, 105840, Note_on_c, 0, 64, 114
4, 106200, Note_on_c, 0, 64, 0
4, 106200, Note_on_c, 0, 62, 114
4, 106560, Note_on_c, 0, 62, 0
4, 106560, Note_on_c, 0, 55, 75
4, 107040, Note_on_c, 0, 55, 0
4, 107040, Note_on_c, 0, 62, 75
4, 107520, Note_on_c, 0, 62, 0
4, 107520, Note_on_c, 0, 60, 75
4, 107760, Note_on_c, 0, 60, 0
4, 108000, Control_c, 0, 64, 127
4, 108000, Note_on_c, 0, 41, 62
4, 108000, Note_on_c, 0, 48, 62
4, 108000, Note_on_c, 0, 53, 62
4, 108240, Note_on_c, 0, 53, 0
4, 108240, Note_on_c, 0, 48, 0
4, 108240, Note_on_c, 0, 41, 0
4, 108240, Note_on_c, 0, 41, 62
4, 108240, Note_on_c, 0, 48, 62
4, 108240, Note_on_c, 0, 53, 62
4, 108480, Note_on_c, 0, 53, 0
4, 108480, Note_on_c, 0, 48, 0
4, 108480, Note_on_c, 0, 41, 0
4, 108480, Note_on_c, 0, 41, 62
4, 108480, Note_on_c, 0, 48, 62
4, 108480, Note_on_c, 0, 53, 62
4, 108720, Note_on_c, 0, 53, 0
4, 108720, Note_on_c, 0, 48, 0
4, 108720, Note_on_c, 0, 41, 0
4, 108720, Note_on_c, 0, 41, 62
4, 108720, Note_on_c, 0, 48, 62
4, 108720, Note_on_c, 0, 53, 62
4, 108960, Note_on_c, 0, 53, 0
4, 108960, Note_on_c, 0, 48, 0
4, 108960, Note_on_c, 0, 41, 0
4, 108960, Note_on_c, 0, 41, 62
4, 108960, Note_on_c, 0, 48, 62
4, 108960, Note_on_c, 0, 53, 62
4, 109200, Note_on_c, 0, 53, 0
4, 109200, Note_on_c, 0, 48, 0
4, 109200, Note_on_c, 0, 41, 0
4, 109200, Control_c, 0, 64, 0
4, 109200, Note_on_c, 0, 41, 62
4, 109200, Note_on_c, 0, 48, 62
4, 109200, Note_on_c, 0, 53, 62
4, 109440, Note_on_c, 0, 53, 0
4, 109440, Note_on_c, 0, 48, 0
4, 109440, Note_on_c, 0, 41, 0
4, 109440, Control_c, 0, 64, 127
4, 109440, Note_on_c, 0, 40, 62
4, 109440, Note_on_c, 0, 48, 62
4, 109680, Note_on_c, 0, 48, 0
4, 109680, Note_on_c, 0, 40, 0
4, 109680, Note_on_c, 0, 52, 62
4, 109680, Note_on_c, 0, 58, 62
4, 109680, Note_on_c, 0, 60, 62
4, 109920, Note_on_c, 0, 60, 0
4, 109920, Note_on_c, 0, 58, 0
4, 109920, Note_on_c, 0, 52, 0
4, 109920, Note_on_c, 0, 52, 62
4, 109920, Note_on_c, 0, 58, 62
4, 109920, Note_on_c, 0, 60, 62
4, 110160, Note_on_c, 0, 60, 0
4, 110160, Note_on_c, 0, 58, 0
4, 110160, Note_on_c, 0, 52, 0
4, 110160, Note_on_c, 0, 52, 62
4, 110160, Note_on_c, 0, 58, 62
4, 110160, Note_on_c, 0, 60, 62
4, 110400, Note_on_c, 0, 60, 0
4, 110400, Note_on_c, 0, 58, 0
4, 110400, Note_on_c, 0, 52, 0
4, 110400, Note_on_c, 0, 52, 62
4, 110400, Note_on_c, 0, 58, 62
4, 110400, Note_on_c, 0, 60, 62
4, 110640, Note_on_c, 0, 60, 0
4, 110640, Note_on_c, 0, 58, 0
4, 110640, Note_on_c, 0, 52, 0
4, 110640, Control_c, 0, 64, 0
4, 110640, Note_on_c, 0, 52, 62
4, 110640, Note_on_c, 0, 58, 62
4, 110880, Note_on_c, 0, 58, 0
4, 110880, Note_on_c, 0, 52, 0
4, 110880, Control_c, 0, 64, 127
4, 110880, Note_on_c, 0, 50, 62
4, 110880, Note_on_c, 0, 53, 62
4, 110880, Note_on_c, 0, 57, 62
4, 111120, Note_on_c, 0, 57, 0
4, 111120, Note_on_c, 0, 53, 0
4, 111120, Note_on_c, 0, 50, 0
4, 111120, Note_on_c, 0, 50, 62
4, 111120, Note_on_c, 0, 53, 62
4, 111120, Note_on_c, 0, 57, 62
4, 111360, Note_on_c, 0, 57, 0
4, 111360, Note_on_c, 0, 53, 0
4, 111360, Note_on_c, 0, 50, 0
4, 111360, Note_on_c, 0, 50, 62
4, 111360, Note_on_c, 0, 53, 62
4, 111360, Note_on_c, 0, 57, 62
4, 111600, Note_on_c, 0, 57, 0
4, 111600, Note_on_c, 0, 53, 0
4, 111600, Note_on_c, 0, 50, 0
4, 111600, Note_on_c, 0, 50, 62
4, 111600, Note_on_c, 0, 53, 62
4, 111840, Note_on_c, 0, 53, 0
4, 111840, Note_on_c, 0, 50, 0
4, 111840, Control_c, 0, 64, 0
4, 111840, Note_on_c, 0, 50, 62
4, 111840, Note_on_c, 0, 53, 62
4, 112080, Note_on_c, 0, 53, 0
4, 112080, Note_on_c, 0, 50, 0
4, 112080, Note_on_c, 0, 50, 88
4, 112320, Note_on_c, 0, 50, 0
4, 112320, Note_on_c, 0, 52, 88
4, 112680, Note_on_c, 0, 52, 0
4, 112680, Note_on_c, 0, 53, 88
4, 113040, Note_on_c, 0, 53, 0
4, 113040, Note_on_c, 0, 55, 88
4, 113400, Note_on_c, 0, 55, 0
4, 113400, Note_on_c, 0, 57, 88
4, 113760, Note_on_c, 0, 57, 0
4, 113760, Control_c, 0, 64, 127
4, 113760, Note_on_c, 0, 48, 62
4, 113760, Note_on_c, 0, 50, 62
4, 113760, Note_on_c, 0, 57, 62
4, 114000, Note_on_c, 0, 57, 0
4, 114000, Note_on_c, 0, 50, 0
4, 114000, Note_on_c, 0, 48, 0
4, 114000, Note_on_c, 0, 48, 62
4, 114000, Note_on_c, 0, 50, 62
4, 114000, Note_on_c, 0, 57, 62
4, 114240, Note_on_c, 0, 57, 0
4, 114240, Note_on_c, 0, 50, 0
4, 114240, Note_on_c, 0, 48, 0
4, 114240, Note_on_c, 0, 48, 62
4, 114240, Note_on_c, 0, 50, 62
4, 114240, Note_on_c, 0, 57, 62
4, 114480, Note_on_c, 0, 57, 0
4, 114480, Note_on_c, 0, 50, 0
4, 114480, Note_on_c, 0, 48, 0
4, 114480, Note_on_c, 0, 46, 62
4, 114480, Note_on_c, 0, 50, 62
4, 114480, Note_on_c, 0, 53, 62
4, 114720, Note_on_c, 0, 53, 0
4, 114720, Note_on_c, 0, 50, 0
4, 114720, Note_on_c, 0, 46, 0
4, 114720, Note_on_c, 0, 46, 62
4, 114720, Note_on_c, 0, 50, 62
4, 114720, Note_on_c, 0, 53, 62
4, 114960, Note_on_c, 0, 53, 0
4, 114960, Note_on_c, 0, 50, 0
4, 114960, Note_on_c, 0, 46, 0
4, 114960, Control_c, 0, 64, 0
4, 114960, Note_on_c, 0, 46, 62
4, 114960, Note_on_c, 0, 50, 62
4, 114960, Note_on_c, 0, 53, 62
4, 115200, Note_on_c, 0, 53, 0
4, 115200, Note_on_c, 0, 50, 0
4, 115200, Note_on_c, 0, 46, 0
4, 115200, Control_c, 0, 64, 127
4, 115200, Note_on_c, 0, 45, 62
4, 115200, Note_on_c, 0, 48, 62
4, 115200, Note_on_c, 0, 53, 62
4, 115200, Note_on_c, 0, 57, 62
4, 115440, Note_on_c, 0, 57, 0
4, 115440, Note_on_c, 0, 45, 0
4, 115440, Note_on_c, 0, 48, 0
4, 115440, Note_on_c, 0, 53, 0
4, 115440, Note_on_c, 0, 45, 62
4, 115440, Note_on_c, 0, 48, 62
4, 115440, Note_on_c, 0, 53, 62
4, 115440, Note_on_c, 0, 57, 62
4, 115680, Note_on_c, 0, 57, 0
4, 115680, Note_on_c, 0, 45, 0
4, 115680, Note_on_c, 0, 48, 0
4, 115680, Note_on_c, 0, 53, 0
4, 115680, Note_on_c, 0, 45, 62
4, 115680, Note_on_c, 0, 48, 62
4, 115680, Note_on_c, 0, 53, 62
4, 115680, Note_on_c, 0, 57, 62
4, 115920, Note_on_c, 0, 57, 0
4, 115920, Note_on_c, 0, 45, 0
4, 115920, Note_on_c, 0, 48, 0
4, 115920, Note_on_c, 0, 53, 0
4, 115920, Note_on_c, 0, 45, 62
4, 115920, Note_on_c, 0, 48, 62
4, 115920, Note_on_c, 0, 53, 62
4, 115920, Note_on_c, 0, 57, 62
4, 116160, Note_on_c, 0, 57, 0
4, 116160, Note_on_c, 0, 45, 0
4, 116160, Note_on_c, 0, 48, 0
4, 116160, Note_on_c, 0, 53, 0
4, 116160, Note_on_c, 0, 45, 62
4, 116160, Note_on_c, 0, 48, 62
4, 116160, Note_on_c, 0, 53, 62
4, 116160, Note_on_c, 0, 57, 62
4, 116400, Note_on_c, 0, 57, 0
4, 116400, Note_on_c, 0, 45, 0
4, 116400, Note_on_c, 0, 48, 0
4, 116400, Note_on_c, 0, 53, 0
4, 116400, Control_c, 0, 64, 0
4, 116400, Note_on_c, 0, 45, 62
4, 116400, Note_on_c, 0, 48, 62
4, 116400, Note_on_c, 0, 53, 62
4, 116400, Note_on_c, 0, 57, 62
4, 116640, Note_on_c, 0, 57, 0
4, 116640, Note_on_c, 0, 45, 0
4, 116640, Note_on_c, 0, 48, 0
4, 116640, Note_on_c, 0, 53, 0
4, 116640, Control_c, 0, 64, 127
4, 116640, Note_on_c, 0, 44, 62
4, 116640, Note_on_c, 0, 48, 62
4, 116640, Note_on_c, 0, 53, 62
4, 116640, Note_on_c, 0, 56, 62
4, 116880, Note_on_c, 0, 56, 0
4, 116880, Note_on_c, 0, 44, 0
4, 116880, Note_on_c, 0, 48, 0
4, 116880, Note_on_c, 0, 53, 0
4, 116880, Note_on_c, 0, 44, 62
4, 116880, Note_on_c, 0, 48, 62
4, 116880, Note_on_c, 0, 53, 62
4, 116880, Note_on_c, 0, 56, 62
4, 117120, Note_on_c, 0, 56, 0
4, 117120, Note_on_c, 0, 44, 0
4, 117120, Note_on_c, 0, 48, 0
4, 117120, Note_on_c, 0, 53, 0
4, 117120, Note_on_c, 0, 44, 62
4, 117120, Note_on_c, 0, 48, 62
4, 117120, Note_on_c, 0, 53, 62
4, 117120, Note_on_c, 0, 56, 62
4, 117360, Note_on_c, 0, 56, 0
4, 117360, Note_on_c, 0, 44, 0
4, 117360, Note_on_c, 0, 48, 0
4, 117360, Note_on_c, 0, 53, 0
4, 117360, Note_on_c, 0, 44, 62
4, 117360, Note_on_c, 0, 48, 62
4, 117360, Note_on_c, 0, 53, 62
4, 117360, Note_on_c, 0, 56, 62
4, 117600, Note_on_c, 0, 56, 0
4, 117600, Note_on_c, 0, 44, 0
4, 117600, Note_on_c, 0, 48, 0
4, 117600, Note_on_c, 0, 53, 0
4, 117600, Note_on_c, 0, 44, 62
4, 117600, Note_on_c, 0, 48, 62
4, 117600, Note_on_c, 0, 53, 62
4, 117600, Note_on_c, 0, 56, 62
4, 117840, Note_on_c, 0, 56, 0
4, 117840, Note_on_c, 0, 44, 0
4, 117840, Note_on_c, 0, 48, 0
4, 117840, Note_on_c, 0, 53, 0
4, 117840, Control_c, 0, 64, 0
4, 117840, Note_on_c, 0, 44, 62
4, 117840, Note_on_c, 0, 48, 62
4, 117840, Note_on_c, 0, 53, 62
4, 117840, Note_on_c, 0, 56, 62
4, 118080, Note_on_c, 0, 56, 0
4, 118080, Note_on_c, 0, 44, 0
4, 118080, Note_on_c, 0, 48, 0
4, 118080, Note_on_c, 0, 53, 0
4, 118080, Control_c, 0, 64, 127
4, 118080, Note_on_c, 0, 43, 62
4, 118080, Note_on_c, 0, 50, 62
4, 118080, Note_on_c, 0, 53, 62
4, 118080, Note_on_c, 0, 55, 62
4, 118320, Note_on_c, 0, 55, 0
4, 118320, Note_on_c, 0, 43, 0
4, 118320, Note_on_c, 0, 50, 0
4, 118320, Note_on_c, 0, 53, 0
4, 118320, Note_on_c, 0, 55, 62
4, 118320, Note_on_c, 0, 62, 62
4, 118320, Note_on_c, 0, 65, 62
4, 118560, Note_on_c, 0, 65, 0
4, 118560, Note_on_c, 0, 62, 0
4, 118560, Note_on_c, 0, 55, 0
4, 118560, Note_on_c, 0, 55, 62
4, 118560, Note_on_c, 0, 62, 62
4, 118560, Note_on_c, 0, 65, 62
4, 118800, Note_on_c, 0, 65, 0
4, 118800, Note_on_c, 0, 62, 0
4, 118800, Note_on_c, 0, 55, 0
4, 118800, Note_on_c, 0, 55, 62
4, 118800, Note_on_c, 0, 62, 62
4, 118800, Note_on_c, 0, 65, 62
4, 119040, Note_on_c, 0, 65, 0
4, 119040, Note_on_c, 0, 62, 0
4, 119040, Note_on_c, 0, 55, 0
4, 119040, Note_on_c, 0, 55, 62
4, 119040, Note_on_c, 0, 62, 62
4, 119040, Note_on_c, 0, 65, 62
4, 119280, Note_on_c, 0, 65, 0
4, 119280, Note_on_c, 0, 62, 0
4, 119280, Note_on_c, 0, 55, 0
4, 119280, Control_c, 0, 64, 0
4, 119280, Note_on_c, 0, 55, 62
4, 119280, Note_on_c, 0, 62, 62
4, 119280, Note_on_c, 0, 65, 62
4, 119520, Note_on_c, 0, 65, 0
4, 119520, Note_on_c, 0, 62, 0
4, 119520, Note_on_c, 0, 55, 0
4, 119520, Control_c, 0, 64, 127
4, 119520, Note_on_c, 0, 54, 62
4, 119520, Note_on_c, 0, 60, 62
4, 119520, Note_on_c, 0, 64, 62
4, 119760, Note_on_c, 0, 64, 0
4, 119760, Note_on_c, 0, 60, 0
4, 119760, Note_on_c, 0, 54, 0
4, 119760, Note_on_c, 0, 54, 62
4, 119760, Note_on_c, 0, 60, 62
4, 119760, Note_on_c, 0, 64, 62
4, 120000, Note_on_c, 0, 64, 0
4, 120000, Note_on_c, 0, 60, 0
4, 120000, Note_on_c, 0, 54, 0
4, 120000, Note_on_c, 0, 54, 62
4, 120000, Note_on_c, 0, 60, 62
4, 120000, Note_on_c, 0, 64, 62
4, 120240, Note_on_c, 0, 64, 0
4, 120240, Note_on_c, 0, 60, 0
4, 120240, Note_on_c, 0, 54, 0
4, 120240, Note_on_c, 0, 54, 62
4, 120240, Note_on_c, 0, 60, 62
4, 120240, Note_on_c, 0, 64, 62
4, 120480, Note_on_c, 0, 64, 0
4, 120480, Note_on_c, 0, 60, 0
4, 120480, Note_on_c, 0, 54, 0
4, 120480, Note_on_c, 0, 54, 62
4, 120480, Note_on_c, 0, 60, 62
4, 120480, Note_on_c, 0, 64, 62
4, 120720, Note_on_c, 0, 64, 0
4, 120720, Note_on_c, 0, 60, 0
4, 120720, Note_on_c, 0, 54, 0
4, 120720, Control_c, 0, 64, 0
4, 120720, Note_on_c, 0, 54, 62
4, 120720, Note_on_c, 0, 60, 62
4, 120720, Note_on_c, 0, 64, 62
4, 120960, Note_on_c, 0, 64, 0
4, 120960, Note_on_c, 0, 60, 0
4, 120960, Note_on_c, 0, 54, 0
4, 120960, Control_c, 0, 64, 127
4, 120960, Note_on_c, 0, 53, 62
4, 120960, Note_on_c, 0, 60, 62
4, 120960, Note_on_c, 0, 65, 62
4, 121200, Note_on_c, 0, 65, 0
4, 121200, Note_on_c, 0, 60, 0
4, 121200, Note_on_c, 0, 53, 0
4, 121200, Note_on_c, 0, 53, 62
4, 121200, Note_on_c, 0, 60, 62
4, 121200, Note_on_c, 0, 65, 62
4, 121440, Note_on_c, 0, 65, 0
4, 121440, Note_on_c, 0, 60, 0
4, 121440, Note_on_c, 0, 53, 0
4, 121440, Note_on_c, 0, 53, 62
4, 121440, Note_on_c, 0, 60, 62
4, 121440, Note_on_c, 0, 65, 62
4, 121680, Note_on_c, 0, 65, 0
4, 121680, Note_on_c, 0, 60, 0
4, 121680, Note_on_c, 0, 53, 0
4, 121680, Note_on_c, 0, 53, 62
4, 121680, Note_on_c, 0, 60, 62
4, 121920, Note_on_c, 0, 60, 0
4, 121920, Note_on_c, 0, 53, 0
4, 121920, Note_on_c, 0, 53, 62
4, 121920, Note_on_c, 0, 60, 62
4, 122160, Note_on_c, 0, 60, 0
4, 122160, Note_on_c, 0, 53, 0
4, 122160, Control_c, 0, 64, 0
4, 122160, Note_on_c, 0, 53, 62
4, 122160, Note_on_c, 0, 60, 62
4, 122400, Note_on_c, 0, 60, 0
4, 122400, Note_on_c, 0, 53, 0
4, 122400, Note_on_c, 0, 46, 62
4, 122400, Note_on_c, 0, 50, 62
4, 122400, Note_on_c, 0, 55, 62
4, 122640, Note_on_c, 0, 55, 0
4, 122640, Note_on_c, 0, 50, 0
4, 122640, Note_on_c, 0, 46, 0
4, 122640, Note_on_c, 0, 46, 62
4, 122640, Note_on_c, 0, 50, 62
4, 122640, Note_on_c, 0, 55, 62
4, 122880, Note_on_c, 0, 55, 0
4, 122880, Note_on_c, 0, 50, 0
4, 122880, Note_on_c, 0, 46, 0
4, 122880, Note_on_c, 0, 46, 62
4, 122880, Note_on_c, 0, 50, 62
4, 122880, Note_on_c, 0, 55, 62
4, 123120, Note_on_c, 0, 55, 0
4, 123120, Note_on_c, 0, 50, 0
4, 123120, Note_on_c, 0, 46, 0
4, 123120, Note_on_c, 0, 35, 62
4, 123120, Note_on_c, 0, 47, 62
4, 123360, Note_on_c, 0, 47, 0
4, 123360, Note_on_c, 0, 35, 0
4, 123360, Note_on_c, 0, 35, 62
4, 123360, Note_on_c, 0, 47, 62
4, 123600, Note_on_c, 0, 47, 0
4, 123600, Note_on_c, 0, 35, 0
4, 123600, Note_on_c, 0, 35, 62
4, 123600, Note_on_c, 0, 47, 62
4, 123840, Note_on_c, 0, 47, 0
4, 123840, Note_on_c, 0, 35, 0
4, 123840, Note_on_c, 0, 62, 88
4, 124080, Note_on_c, 0, 62, 0
4, 124080, Note_on_c, 0, 60, 88
4, 124320, Note_on_c, 0, 60, 0
4, 124320, Note_on_c, 0, 59, 88
4, 124560, Note_on_c, 0, 59, 0
4, 124560, Note_on_c, 0, 60, 88
4, 124800, Note_on_c, 0, 60, 0
4, 124800, Note_on_c, 0, 57, 88
4, 125040, Note_on_c, 0, 57, 0
4, 125040, Note_on_c, 0, 53, 88
4, 125280, Note_on_c, 0, 53, 0
4, 125280, Note_on_c, 0, 53, 88
4, 125520, Note_on_c, 0, 53, 0
4, 125520, Note_on_c, 0, 52, 88
4, 125760, Note_on_c, 0, 52, 0
4, 125760, Note_on_c, 0, 50, 88
4, 126000, Note_on_c, 0, 50, 0
4, 126000, Note_on_c, 0, 52, 88
4, 126240, Note_on_c, 0, 52, 0
4, 126240, Note_on_c, 0, 55, 88
4, 126480, Note_on_c, 0, 55, 0
4, 126480, Note_on_c, 0, 58, 88
4, 126720, Note_on_c, 0, 58, 0
4, 126720, Note_on_c, 0, 62, 88
4, 126960, Note_on_c, 0, 62, 0
4, 126960, Note_on_c, 0, 60, 88
4, 127200, Note_on_c, 0, 60, 0
4, 127200, Note_on_c, 0, 59, 88
4, 127440, Note_on_c, 0, 59, 0
4, 127440, Note_on_c, 0, 60, 88
4, 127680, Note_on_c, 0, 60, 0
4, 127680, Note_on_c, 0, 57, 88
4, 127920, Note_on_c, 0, 57, 0
4, 127920, Note_on_c, 0, 53, 88
4, 128160, Note_on_c, 0, 53, 0
4, 128160, Note_on_c, 0, 53, 88
4, 128400, Note_on_c, 0, 53, 0
4, 128400, Note_on_c, 0, 52, 88
4, 128640, Note_on_c, 0, 52, 0
4, 128640, Note_on_c, 0, 50, 88
4, 128880, Note_on_c, 0, 50, 0
4, 128880, Note_on_c, 0, 52, 88
4, 129120, Note_on_c, 0, 52, 0
4, 129120, Note_on_c, 0, 55, 88
4, 129360, Note_on_c, 0, 55, 0
4, 129360, Note_on_c, 0, 58, 88
4, 129600, Note_on_c, 0, 58, 0
4, 129600, Control_c, 0, 64, 127
4, 129600, Note_on_c, 0, 47, 75
4, 129600, Note_on_c, 0, 50, 75
4, 129600, Note_on_c, 0, 53, 75
4, 129660, Note_on_c, 0, 53, 0
4, 129660, Note_on_c, 0, 50, 0
4, 129660, Note_on_c, 0, 47, 0
4, 129660, Note_on_c, 0, 56, 49
4, 129720, Note_on_c, 0, 56, 0
4, 129720, Note_on_c, 0, 47, 49
4, 129720, Note_on_c, 0, 50, 49
4, 129720, Note_on_c, 0, 53, 49
4, 129780, Note_on_c, 0, 53, 0
4, 129780, Note_on_c, 0, 50, 0
4, 129780, Note_on_c, 0, 47, 0
4, 129780, Note_on_c, 0, 56, 49
4, 129840, Note_on_c, 0, 56, 0
4, 129840, Note_on_c, 0, 47, 49
4, 129840, Note_on_c, 0, 50, 49
4, 129840, Note_on_c, 0, 53, 49
4, 129900, Note_on_c, 0, 53, 0
4, 129900, Note_on_c, 0, 50, 0
4, 129900, Note_on_c, 0, 47, 0
4, 129900, Note_on_c, 0, 56, 49
4, 129960, Note_on_c, 0, 56, 0
4, 129960, Note_on_c, 0, 47, 49
4, 129960, Note_on_c, 0, 50, 49
4, 129960, Note_on_c, 0, 53, 49
4, 130020, Note_on_c, 0, 53, 0
4, 130020, Note_on_c, 0, 50, 0
4, 130020, Note_on_c, 0, 47, 0
4, 130020, Note_on_c, 0, 56, 49
4, 130080, Note_on_c, 0, 56, 0
4, 130080, Note_on_c, 0, 47, 49
4, 130080, Note_on_c, 0, 50, 49
4, 130080, Note_on_c, 0, 53, 49
4, 130140, Note_on_c, 0, 53, 0
4, 130140, Note_on_c, 0, 50, 0
4, 130140, Note_on_c, 0, 47, 0
4, 130140, Note_on_c, 0, 56, 49
4, 130200, Note_on_c, 0, 56, 0
4, 130200, Note_on_c, 0, 47, 49
4, 130200, Note_on_c, 0, 50, 49
4, 130200, Note_on_c, 0, 53, 49
4, 130260, Note_on_c, 0, 53, 0
4, 130260, Note_on_c, 0, 50, 0
4, 130260, Note_on_c, 0, 47, 0
4, 130260, Note_on_c, 0, 56, 49
4, 130320, Note_on_c, 0, 56, 0
4, 130320, Note_on_c, 0, 47, 49
4, 130320, Note_on_c, 0, 50, 49
4, 130320, Note_on_c, 0, 53, 49
4, 130380, Note_on_c, 0, 53, 0
4, 130380, Note_on_c, 0, 50, 0
4, 130380, Note_on_c, 0, 47, 0
4, 130380, Note_on_c, 0, 56, 49
4, 130440, Note_on_c, 0, 56, 0
4, 130440, Note_on_c, 0, 47, 49
4, 130440, Note_on_c, 0, 50, 49
4, 130440, Note_on_c, 0, 53, 49
4, 130500, Note_on_c, 0, 53, 0
4, 130500, Note_on_c, 0, 50, 0
4, 130500, Note_on_c, 0, 47, 0
4, 130500, Note_on_c, 0, 56, 49
4, 130560, Note_on_c, 0, 56, 0
4, 130560, Note_on_c, 0, 47, 49
4, 130560, Note_on_c, 0, 50, 49
4, 130560, Note_on_c, 0, 53, 49
4, 130620, Note_on_c, 0, 53, 0
4, 130620, Note_on_c, 0, 50, 0
4, 130620, Note_on_c, 0, 47, 0
4, 130620, Note_on_c, 0, 56, 49
4, 130680, Note_on_c, 0, 56, 0
4, 130680, Note_on_c, 0, 47, 49
4, 130680, Note_on_c, 0, 50, 49
4, 130680, Note_on_c, 0, 53, 49
4, 130740, Note_on_c, 0, 53, 0
4, 130740, Note_on_c, 0, 50, 0
4, 130740, Note_on_c, 0, 47, 0
4, 130740, Note_on_c, 0, 56, 49
4, 130800, Note_on_c, 0, 56, 0
4, 130800, Note_on_c, 0, 47, 49
4, 130800, Note_on_c, 0, 50, 49
4, 130800, Note_on_c, 0, 53, 49
4, 130860, Note_on_c, 0, 53, 0
4, 130860, Note_on_c, 0, 50, 0
4, 130860, Note_on_c, 0, 47, 0
4, 130860, Note_on_c, 0, 56, 49
4, 130920, Note_on_c, 0, 56, 0
4, 130920, Note_on_c, 0, 47, 49
4, 130920, Note_on_c, 0, 50, 49
4, 130920, Note_on_c, 0, 53, 49
4, 130980, Note_on_c, 0, 53, 0
4, 130980, Note_on_c, 0, 50, 0
4, 130980, Note_on_c, 0, 47, 0
4, 130980, Note_on_c, 0, 56, 49
4, 131040, Note_on_c, 0, 56, 0
4, 131040, Note_on_c, 0, 47, 49
4, 131040, Note_on_c, 0, 50, 49
4, 131040, Note_on_c, 0, 53, 49
4, 131100, Note_on_c, 0, 53, 0
4, 131100, Note_on_c, 0, 50, 0
4, 131100, Note_on_c, 0, 47, 0
4, 131100, Note_on_c, 0, 56, 49
4, 131160, Note_on_c, 0, 56, 0
4, 131160, Note_on_c, 0, 47, 49
4, 131160, Note_on_c, 0, 50, 49
4, 131160, Note_on_c, 0, 53, 49
4, 131220, Note_on_c, 0, 53, 0
4, 131220, Note_on_c, 0, 50, 0
4, 131220, Note_on_c, 0, 47, 0
4, 131220, Note_on_c, 0, 56, 49
4, 131280, Note_on_c, 0, 56, 0
4, 131280, Note_on_c, 0, 47, 49
4, 131280, Note_on_c, 0, 50, 49
4, 131280, Note_on_c, 0, 53, 49
4, 131340, Note_on_c, 0, 53, 0
4, 131340, Note_on_c, 0, 50, 0
4, 131340, Note_on_c, 0, 47, 0
4, 131340, Note_on_c, 0, 56, 49
4, 131400, Note_on_c, 0, 56, 0
4, 131400, Note_on_c, 0, 47, 49
4, 131400, Note_on_c, 0, 50, 49
4, 131400, Note_on_c, 0, 53, 49
4, 131460, Note_on_c, 0, 53, 0
4, 131460, Note_on_c, 0, 50, 0
4, 131460, Note_on_c, 0, 47, 0
4, 131460, Note_on_c, 0, 56, 49
4, 131520, Note_on_c, 0, 56, 0
4, 131520, Note_on_c, 0, 47, 49
4, 131520, Note_on_c, 0, 50, 49
4, 131520, Note_on_c, 0, 53, 49
4, 131580, Note_on_c, 0, 53, 0
4, 131580, Note_on_c, 0, 50, 0
4, 131580, Note_on_c, 0, 47, 0
4, 131580, Note_on_c, 0, 56, 49
4, 131640, Note_on_c, 0, 56, 0
4, 131640, Note_on_c, 0, 47, 49
4, 131640, Note_on_c, 0, 50, 49
4, 131640, Note_on_c, 0, 53, 49
4, 131700, Note_on_c, 0, 53, 0
4, 131700, Note_on_c, 0, 50, 0
4, 131700, Note_on_c, 0, 47, 0
4, 131700, Note_on_c, 0, 56, 49
4, 131760, Note_on_c, 0, 56, 0
4, 131760, Note_on_c, 0, 47, 49
4, 131760, Note_on_c, 0, 50, 49
4, 131760, Note_on_c, 0, 53, 49
4, 131820, Note_on_c, 0, 53, 0
4, 131820, Note_on_c, 0, 50, 0
4, 131820, Note_on_c, 0, 47, 0
4, 131820, Note_on_c, 0, 56, 49
4, 131880, Note_on_c, 0, 56, 0
4, 131880, Note_on_c, 0, 47, 49
4, 131880, Note_on_c, 0, 50, 49
4, 131880, Note_on_c, 0, 53, 49
4, 131940, Note_on_c, 0, 53, 0
4, 131940, Note_on_c, 0, 50, 0
4, 131940, Note_on_c, 0, 47, 0
4, 131940, Note_on_c, 0, 56, 49
4, 132000, Note_on_c, 0, 56, 0
4, 132000, Note_on_c, 0, 47, 49
4, 132000, Note_on_c, 0, 50, 49
4, 132000, Note_on_c, 0, 53, 49
4, 132060, Note_on_c, 0, 53, 0
4, 132060, Note_on_c, 0, 50, 0
4, 132060, Note_on_c, 0, 47, 0
4, 132060, Note_on_c, 0, 56, 49
4, 132120, Note_on_c, 0, 56, 0
4, 132120, Note_on_c, 0, 47, 49
4, 132120, Note_on_c, 0, 50, 49
4, 132120, Note_on_c, 0, 53, 49
4, 132180, Note_on_c, 0, 53, 0
4, 132180, Note_on_c, 0, 50, 0
4, 132180, Note_on_c, 0, 47, 0
4, 132180, Note_on_c, 0, 56, 49
4, 132240, Note_on_c, 0, 56, 0
4, 132240, Note_on_c, 0, 47, 49
4, 132240, Note_on_c, 0, 50, 49
4, 132240, Note_on_c, 0, 53, 49
4, 132300, Note_on_c, 0, 53, 0
4, 132300, Note_on_c, 0, 50, 0
4, 132300, Note_on_c, 0, 47, 0
4, 132300, Note_on_c, 0, 56, 49
4, 132360, Note_on_c, 0, 56, 0
4, 132360, Note_on_c, 0, 47, 49
4, 132360, Note_on_c, 0, 50, 49
4, 132360, Note_on_c, 0, 53, 49
4, 132420, Note_on_c, 0, 53, 0
4, 132420, Note_on_c, 0, 50, 0
4, 132420, Note_on_c, 0, 47, 0
4, 132420, Note_on_c, 0, 56, 49
4, 132480, Note_on_c, 0, 56, 0
4, 132480, Note_on_c, 0, 47, 49
4, 132480, Note_on_c, 0, 50, 49
4, 132480, Note_on_c, 0, 53, 49
4, 132540, Note_on_c, 0, 53, 0
4, 132540, Note_on_c, 0, 50, 0
4, 132540, Note_on_c, 0, 47, 0
4, 132540, Note_on_c, 0, 56, 49
4, 132600, Note_on_c, 0, 56, 0
4, 132600, Note_on_c, 0, 47, 49
4, 132600, Note_on_c, 0, 50, 49
4, 132600, Note_on_c, 0, 53, 49
4, 132660, Note_on_c, 0, 53, 0
4, 132660, Note_on_c, 0, 50, 0
4, 132660, Note_on_c, 0, 47, 0
4, 132660, Note_on_c, 0, 56, 49
4, 132720, Note_on_c, 0, 56, 0
4, 132720, Note_on_c, 0, 47, 49
4, 132720, Note_on_c, 0, 50, 49
4, 132720, Note_on_c, 0, 53, 49
4, 132780, Note_on_c, 0, 53, 0
4, 132780, Note_on_c, 0, 50, 0
4, 132780, Note_on_c, 0, 47, 0
4, 132780, Note_on_c, 0, 56, 49
4, 132840, Note_on_c, 0, 56, 0
4, 132840, Note_on_c, 0, 47, 49
4, 132840, Note_on_c, 0, 50, 49
4, 132840, Note_on_c, 0, 53, 49
4, 132900, Note_on_c, 0, 53, 0
4, 132900, Note_on_c, 0, 50, 0
4, 132900, Note_on_c, 0, 47, 0
4, 132900, Note_on_c, 0, 56, 49
4, 132960, Note_on_c, 0, 56, 0
4, 132960, Note_on_c, 0, 47, 49
4, 132960, Note_on_c, 0, 50, 49
4, 132960, Note_on_c, 0, 53, 49
4, 133020, Note_on_c, 0, 53, 0
4, 133020, Note_on_c, 0, 50, 0
4, 133020, Note_on_c, 0, 47, 0
4, 133020, Note_on_c, 0, 56, 49
4, 133080, Note_on_c, 0, 56, 0
4, 133080, Note_on_c, 0, 47, 49
4, 133080, Note_on_c, 0, 50, 49
4, 133080, Note_on_c, 0, 53, 49
4, 133140, Note_on_c, 0, 53, 0
4, 133140, Note_on_c, 0, 50, 0
4, 133140, Note_on_c, 0, 47, 0
4, 133140, Note_on_c, 0, 56, 49
4, 133200, Note_on_c, 0, 56, 0
4, 133200, Note_on_c, 0, 47, 49
4, 133200, Note_on_c, 0, 50, 49
4, 133200, Note_on_c, 0, 53, 49
4, 133260, Note_on_c, 0, 53, 0
4, 133260, Note_on_c, 0, 50, 0
4, 133260, Note_on_c, 0, 47, 0
4, 133260, Note_on_c, 0, 56, 49
4, 133320, Note_on_c, 0, 56, 0
4, 133320, Note_on_c, 0, 47, 49
4, 133320, Note_on_c, 0, 50, 49
4, 133320, Note_on_c, 0, 53, 49
4, 133380, Note_on_c, 0, 53, 0
4, 133380, Note_on_c, 0, 50, 0
4, 133380, Note_on_c, 0, 47, 0
4, 133380, Note_on_c, 0, 56, 49
4, 133440, Note_on_c, 0, 56, 0
4, 133440, Note_on_c, 0, 47, 49
4, 133440, Note_on_c, 0, 50, 49
4, 133440, Note_on_c, 0, 53, 49
4, 133500, Note_on_c, 0, 53, 0
4, 133500, Note_on_c, 0, 50, 0
4, 133500, Note_on_c, 0, 47, 0
4, 133500, Note_on_c, 0, 56, 49
4, 133560, Note_on_c, 0, 56, 0
4, 133560, Note_on_c, 0, 47, 49
4, 133560, Note_on_c, 0, 50, 49
4, 133560, Note_on_c, 0, 53, 49
4, 133620, Note_on_c, 0, 53, 0
4, 133620, Note_on_c, 0, 50, 0
4, 133620, Note_on_c, 0, 47, 0
4, 133620, Note_on_c, 0, 56, 49
4, 133680, Note_on_c, 0, 56, 0
4, 133680, Note_on_c, 0, 47, 49
4, 133680, Note_on_c, 0, 50, 49
4, 133680, Note_on_c, 0, 53, 49
4, 133740, Note_on_c, 0, 53, 0
4, 133740, Note_on_c, 0, 50, 0
4, 133740, Note_on_c, 0, 47, 0
4, 133740, Note_on_c, 0, 56, 49
4, 133800, Note_on_c, 0, 56, 0
4, 133800, Note_on_c, 0, 47, 49
4, 133800, Note_on_c, 0, 50, 49
4, 133800, Note_on_c, 0, 53, 49
4, 133860, Note_on_c, 0, 53, 0
4, 133860, Note_on_c, 0, 50, 0
4, 133860, Note_on_c, 0, 47, 0
4, 133860, Control_c, 0, 64, 0
4, 133860, Note_on_c, 0, 56, 49
4, 133920, Note_on_c, 0, 56, 0
4, 133920, Control_c, 0, 64, 127
4, 133920, Note_on_c, 0, 47, 75
4, 133920, Note_on_c, 0, 50, 75
4, 133920, Note_on_c, 0, 53, 75
4, 133980, Note_on_c, 0, 53, 0
4, 133980, Note_on_c, 0, 50, 0
4, 133980, Note_on_c, 0, 47, 0
4, 133980, Note_on_c, 0, 56, 49
4, 134040, Note_on_c, 0, 56, 0
4, 134040, Note_on_c, 0, 47, 49
4, 134040, Note_on_c, 0, 50, 49
4, 134040, Note_on_c, 0, 53, 49
4, 134100, Note_on_c, 0, 53, 0
4, 134100, Note_on_c, 0, 50, 0
4, 134100, Note_on_c, 0, 47, 0
4, 134100, Note_on_c, 0, 56, 49
4, 134160, Note_on_c, 0, 56, 0
4, 134160, Note_on_c, 0, 47, 49
4, 134160, Note_on_c, 0, 50, 49
4, 134160, Note_on_c, 0, 53, 49
4, 134220, Note_on_c, 0, 53, 0
4, 134220, Note_on_c, 0, 50, 0
4, 134220, Note_on_c, 0, 47, 0
4, 134220, Note_on_c, 0, 56, 49
4, 134280, Note_on_c, 0, 56, 0
4, 134280, Note_on_c, 0, 47, 49
4, 134280, Note_on_c, 0, 50, 49
4, 134280, Note_on_c, 0, 53, 49
4, 134340, Note_on_c, 0, 53, 0
4, 134340, Note_on_c, 0, 50, 0
4, 134340, Note_on_c, 0, 47, 0
4, 134340, Note_on_c, 0, 56, 49
4, 134400, Note_on_c, 0, 56, 0
4, 134400, Note_on_c, 0, 47, 49
4, 134400, Note_on_c, 0, 50, 49
4, 134400, Note_on_c, 0, 53, 49
4, 134460, Note_on_c, 0, 53, 0
4, 134460, Note_on_c, 0, 50, 0
4, 134460, Note_on_c, 0, 47, 0
4, 134460, Note_on_c, 0, 56, 49
4, 134520, Note_on_c, 0, 56, 0
4, 134520, Note_on_c, 0, 47, 49
4, 134520, Note_on_c, 0, 50, 49
4, 134520, Note_on_c, 0, 53, 49
4, 134580, Note_on_c, 0, 53, 0
4, 134580, Note_on_c, 0, 50, 0
4, 134580, Note_on_c, 0, 47, 0
4, 134580, Note_on_c, 0, 56, 49
4, 134640, Note_on_c, 0, 56, 0
4, 134640, Note_on_c, 0, 47, 49
4, 134640, Note_on_c, 0, 50, 49
4, 134640, Note_on_c, 0, 53, 49
4, 134700, Note_on_c, 0, 53, 0
4, 134700, Note_on_c, 0, 50, 0
4, 134700, Note_on_c, 0, 47, 0
4, 134700, Note_on_c, 0, 56, 49
4, 134760, Note_on_c, 0, 56, 0
4, 134760, Note_on_c, 0, 47, 49
4, 134760, Note_on_c, 0, 50, 49
4, 134760, Note_on_c, 0, 53, 49
4, 134820, Note_on_c, 0, 53, 0
4, 134820, Note_on_c, 0, 50, 0
4, 134820, Note_on_c, 0, 47, 0
4, 134820, Note_on_c, 0, 56, 49
4, 134880, Note_on_c, 0, 56, 0
4, 134880, Note_on_c, 0, 47, 49
4, 134880, Note_on_c, 0, 50, 49
4, 134880, Note_on_c, 0, 53, 49
4, 134940, Note_on_c, 0, 53, 0
4, 134940, Note_on_c, 0, 50, 0
4, 134940, Note_on_c, 0, 47, 0
4, 134940, Note_on_c, 0, 56, 49
4, 135000, Note_on_c, 0, 56, 0
4, 135000, Note_on_c, 0, 47, 49
4, 135000, Note_on_c, 0, 50, 49
4, 135000, Note_on_c, 0, 53, 49
4, 135060, Note_on_c, 0, 53, 0
4, 135060, Note_on_c, 0, 50, 0
4, 135060, Note_on_c, 0, 47, 0
4, 135060, Note_on_c, 0, 56, 49
4, 135120, Note_on_c, 0, 56, 0
4, 135120, Note_on_c, 0, 47, 49
4, 135120, Note_on_c, 0, 50, 49
4, 135120, Note_on_c, 0, 53, 49
4, 135180, Note_on_c, 0, 53, 0
4, 135180, Note_on_c, 0, 50, 0
4, 135180, Note_on_c, 0, 47, 0
4, 135180, Note_on_c, 0, 56, 49
4, 135240, Note_on_c, 0, 56, 0
4, 135240, Note_on_c, 0, 47, 49
4, 135240, Note_on_c, 0, 50, 49
4, 135240, Note_on_c, 0, 53, 49
4, 135300, Note_on_c, 0, 53, 0
4, 135300, Note_on_c, 0, 50, 0
4, 135300, Note_on_c, 0, 47, 0
4, 135300, Note_on_c, 0, 56, 49
4, 135360, Note_on_c, 0, 56, 0
4, 135360, Note_on_c, 0, 47, 49
4, 135360, Note_on_c, 0, 50, 49
4, 135360, Note_on_c, 0, 53, 49
4, 135420, Note_on_c, 0, 53, 0
4, 135420, Note_on_c, 0, 50, 0
4, 135420, Note_on_c, 0, 47, 0
4, 135420, Note_on_c, 0, 56, 49
4, 135480, Note_on_c, 0, 56, 0
4, 135480, Note_on_c, 0, 47, 49
4, 135480, Note_on_c, 0, 50, 49
4, 135480, Note_on_c, 0, 53, 49
4, 135540, Note_on_c, 0, 53, 0
4, 135540, Note_on_c, 0, 50, 0
4, 135540, Note_on_c, 0, 47, 0
4, 135540, Note_on_c, 0, 56, 49
4, 135600, Note_on_c, 0, 56, 0
4, 135600, Note_on_c, 0, 47, 49
4, 135600, Note_on_c, 0, 50, 49
4, 135600, Note_on_c, 0, 53, 49
4, 135660, Note_on_c, 0, 53, 0
4, 135660, Note_on_c, 0, 50, 0
4, 135660, Note_on_c, 0, 47, 0
4, 135660, Note_on_c, 0, 56, 49
4, 135720, Note_on_c, 0, 56, 0
4, 135720, Note_on_c, 0, 47, 49
4, 135720, Note_on_c, 0, 50, 49
4, 135720, Note_on_c, 0, 53, 49
4, 135780, Note_on_c, 0, 53, 0
4, 135780, Note_on_c, 0, 50, 0
4, 135780, Note_on_c, 0, 47, 0
4, 135780, Note_on_c, 0, 56, 49
4, 135840, Note_on_c, 0, 56, 0
4, 135840, Note_on_c, 0, 47, 49
4, 135840, Note_on_c, 0, 50, 49
4, 135840, Note_on_c, 0, 53, 49
4, 135900, Note_on_c, 0, 53, 0
4, 135900, Note_on_c, 0, 50, 0
4, 135900, Note_on_c, 0, 47, 0
4, 135900, Note_on_c, 0, 56, 49
4, 135960, Note_on_c, 0, 56, 0
4, 135960, Note_on_c, 0, 47, 49
4, 135960, Note_on_c, 0, 50, 49
4, 135960, Note_on_c, 0, 53, 49
4, 136020, Note_on_c, 0, 53, 0
4, 136020, Note_on_c, 0, 50, 0
4, 136020, Note_on_c, 0, 47, 0
4, 136020, Note_on_c, 0, 56, 49
4, 136080, Note_on_c, 0, 56, 0
4, 136080, Note_on_c, 0, 47, 49
4, 136080, Note_on_c, 0, 50, 49
4, 136080, Note_on_c, 0, 53, 49
4, 136140, Note_on_c, 0, 53, 0
4, 136140, Note_on_c, 0, 50, 0
4, 136140, Note_on_c, 0, 47, 0
4, 136140, Note_on_c, 0, 56, 49
4, 136200, Note_on_c, 0, 56, 0
4, 136200, Note_on_c, 0, 47, 49
4, 136200, Note_on_c, 0, 50, 49
4, 136200, Note_on_c, 0, 53, 49
4, 136260, Note_on_c, 0, 53, 0
4, 136260, Note_on_c, 0, 50, 0
4, 136260, Note_on_c, 0, 47, 0
4, 136260, Note_on_c, 0, 56, 49
4, 136320, Note_on_c, 0, 56, 0
4, 136320, Note_on_c, 0, 47, 49
4, 136320, Note_on_c, 0, 50, 49
4, 136320, Note_on_c, 0, 53, 49
4, 136380, Note_on_c, 0, 53, 0
4, 136380, Note_on_c, 0, 50, 0
4, 136380, Note_on_c, 0, 47, 0
4, 136380, Note_on_c, 0, 56, 49
4, 136440, Note_on_c, 0, 56, 0
4, 136440, Note_on_c, 0, 47, 49
4, 136440, Note_on_c, 0, 50, 49
4, 136440, Note_on_c, 0, 53, 49
4, 136500, Note_on_c, 0, 53, 0
4, 136500, Note_on_c, 0, 50, 0
4, 136500, Note_on_c, 0, 47, 0
4, 136500, Note_on_c, 0, 56, 49
4, 136560, Note_on_c, 0, 56, 0
4, 136560, Note_on_c, 0, 47, 49
4, 136560, Note_on_c, 0, 50, 49
4, 136560, Note_on_c, 0, 53, 49
4, 136620, Note_on_c, 0, 53, 0
4, 136620, Note_on_c, 0, 50, 0
4, 136620, Note_on_c, 0, 47, 0
4, 136620, Note_on_c, 0, 56, 49
4, 136680, Note_on_c, 0, 56, 0
4, 136680, Note_on_c, 0, 47, 49
4, 136680, Note_on_c, 0, 50, 49
4, 136680, Note_on_c, 0, 53, 49
4, 136740, Note_on_c, 0, 53, 0
4, 136740, Note_on_c, 0, 50, 0
4, 136740, Note_on_c, 0, 47, 0
4, 136740, Note_on_c, 0, 56, 49
4, 136800, Note_on_c, 0, 56, 0
4, 136800, Note_on_c, 0, 47, 49
4, 136800, Note_on_c, 0, 50, 49
4, 136800, Note_on_c, 0, 53, 49
4, 136860, Note_on_c, 0, 53, 0
4, 136860, Note_on_c, 0, 50, 0
4, 136860, Note_on_c, 0, 47, 0
4, 136860, Note_on_c, 0, 56, 49
4, 136920, Note_on_c, 0, 56, 0
4, 136920, Note_on_c, 0, 47, 49
4, 136920, Note_on_c, 0, 50, 49
4, 136920, Note_on_c, 0, 53, 49
4, 136980, Note_on_c, 0, 53, 0
4, 136980, Note_on_c, 0, 50, 0
4, 136980, Note_on_c, 0, 47, 0
4, 136980, Note_on_c, 0, 56, 49
4, 137040, Note_on_c, 0, 56, 0
4, 137040, Note_on_c, 0, 47, 49
4, 137040, Note_on_c, 0, 50, 49
4, 137040, Note_on_c, 0, 53, 49
4, 137100, Note_on_c, 0, 53, 0
4, 137100, Note_on_c, 0, 50, 0
4, 137100, Note_on_c, 0, 47, 0
4, 137100, Note_on_c, 0, 56, 49
4, 137160, Note_on_c, 0, 56, 0
4, 137160, Note_on_c, 0, 47, 49
4, 137160, Note_on_c, 0, 50, 49
4, 137160, Note_on_c, 0, 53, 49
4, 137220, Note_on_c, 0, 53, 0
4, 137220, Note_on_c, 0, 50, 0
4, 137220, Note_on_c, 0, 47, 0
4, 137220, Note_on_c, 0, 56, 49
4, 137280, Note_on_c, 0, 56, 0
4, 137280, Note_on_c, 0, 47, 49
4, 137280, Note_on_c, 0, 50, 49
4, 137280, Note_on_c, 0, 53, 49
4, 137340, Note_on_c, 0, 53, 0
4, 137340, Note_on_c, 0, 50, 0
4, 137340, Note_on_c, 0, 47, 0
4, 137340, Note_on_c, 0, 56, 49
4, 137400, Note_on_c, 0, 56, 0
4, 137400, Note_on_c, 0, 47, 49
4, 137400, Note_on_c, 0, 50, 49
4, 137400, Note_on_c, 0, 53, 49
4, 137460, Note_on_c, 0, 53, 0
4, 137460, Note_on_c, 0, 50, 0
4, 137460, Note_on_c, 0, 47, 0
4, 137460, Note_on_c, 0, 56, 49
4, 137520, Note_on_c, 0, 56, 0
4, 137520, Note_on_c, 0, 47, 49
4, 137520, Note_on_c, 0, 50, 49
4, 137520, Note_on_c, 0, 53, 49
4, 137580, Note_on_c, 0, 53, 0
4, 137580, Note_on_c, 0, 50, 0
4, 137580, Note_on_c, 0, 47, 0
4, 137580, Note_on_c, 0, 56, 49
4, 137640, Note_on_c, 0, 56, 0
4, 137640, Note_on_c, 0, 47, 49
4, 137640, Note_on_c, 0, 50, 49
4, 137640, Note_on_c, 0, 53, 49
4, 137700, Note_on_c, 0, 53, 0
4, 137700, Note_on_c, 0, 50, 0
4, 137700, Note_on_c, 0, 47, 0
4, 137700, Note_on_c, 0, 56, 49
4, 137760, Note_on_c, 0, 56, 0
4, 137760, Note_on_c, 0, 47, 49
4, 137760, Note_on_c, 0, 50, 49
4, 137760, Note_on_c, 0, 53, 49
4, 137820, Note_on_c, 0, 53, 0
4, 137820, Note_on_c, 0, 50, 0
4, 137820, Note_on_c, 0, 47, 0
4, 137820, Note_on_c, 0, 56, 49
4, 137880, Note_on_c, 0, 56, 0
4, 137880, Note_on_c, 0, 47, 49
4, 137880, Note_on_c, 0, 50, 49
4, 137880, Note_on_c, 0, 53, 49
4, 137940, Note_on_c, 0, 53, 0
4, 137940, Note_on_c, 0, 50, 0
4, 137940, Note_on_c, 0, 47, 0
4, 137940, Note_on_c, 0, 56, 49
4, 138000, Note_on_c, 0, 56, 0
4, 138000, Note_on_c, 0, 47, 49
4, 138000, Note_on_c, 0, 50, 49
4, 138000, Note_on_c, 0, 53, 49
4, 138060, Note_on_c, 0, 53, 0
4, 138060, Note_on_c, 0, 50, 0
4, 138060, Note_on_c, 0, 47, 0
4, 138060, Note_on_c, 0, 56, 49
4, 138120, Note_on_c, 0, 56, 0
4, 138120, Note_on_c, 0, 47, 49
4, 138120, Note_on_c, 0, 50, 49
4, 138120, Note_on_c, 0, 53, 49
4, 138180, Note_on_c, 0, 53, 0
4, 138180, Note_on_c, 0, 50, 0
4, 138180, Note_on_c, 0, 47, 0
4, 138180, Control_c, 0, 64, 0
4, 138180, Note_on_c, 0, 56, 49
4, 138240, Note_on_c, 0, 56, 0
4, 138240, Note_on_c, 0, 47, 114
4, 138240, Note_on_c, 0, 50, 114
4, 138240, Note_on_c, 0, 53, 114
4, 138240, Note_on_c, 0, 56, 114
4, 138720, Note_on_c, 0, 56, 0
4, 138720, Note_on_c, 0, 47, 0
4, 138720, Note_on_c, 0, 50, 0
4, 138720, Note_on_c, 0, 53, 0
4, 140640, Note_on_c, 0, 48, 62
4, 140880, Note_on_c, 0, 48, 0
4, 140880, Note_on_c, 0, 53, 62
4, 140880, Note_on_c, 0, 57, 62
4, 140880, Note_on_c, 0, 60, 62
4, 141120, Note_on_c, 0, 60, 0
4, 141120, Note_on_c, 0, 57, 0
4, 141120, Note_on_c, 0, 53, 0
4, 141120, Note_on_c, 0, 65, 62
4, 141360, Note_on_c, 0, 65, 0
4, 141360, Note_on_c, 0, 60, 62
4, 141360, Note_on_c, 0, 70, 62
4, 141600, Note_on_c, 0, 70, 0
4, 141600, Note_on_c, 0, 60, 0
4, 141600, Note_on_c, 0, 60, 62
4, 141600, Note_on_c, 0, 62, 62
4, 141840, Note_on_c, 0, 62, 0
4, 141840, Note_on_c, 0, 60, 0
4, 141840, Note_on_c, 0, 60, 62
4, 141840, Note_on_c, 0, 64, 62
4, 142080, Note_on_c, 0, 64, 0
4, 142080, Note_on_c, 0, 60, 0
4, 142080, Note_on_c, 0, 48, 62
4, 142080, Note_on_c, 0, 57, 62
4, 142320, Note_on_c, 0, 57, 0
4, 142320, Note_on_c, 0, 48, 0
4, 142320, Note_on_c, 0, 53, 62
4, 142320, Note_on_c, 0, 57, 62
4, 142320, Note_on_c, 0, 60, 62
4, 142560, Note_on_c, 0, 60, 0
4, 142560, Note_on_c, 0, 57, 0
4, 142560, Note_on_c, 0, 53, 0
4, 142560, Note_on_c, 0, 65, 62
4, 142800, Note_on_c, 0, 65, 0
4, 142800, Note_on_c, 0, 60, 62
4, 142800, Note_on_c, 0, 70, 62
4, 143040, Note_on_c, 0, 70, 0
4, 143040, Note_on_c, 0, 60, 0
4, 143040, Note_on_c, 0, 60, 62
4, 143040, Note_on_c, 0, 62, 62
4, 143280, Note_on_c, 0, 62, 0
4, 143280, Note_on_c, 0, 60, 0
4, 143280, Note_on_c, 0, 60, 75
4, 143280, Note_on_c, 0, 64, 75
4, 143520, Note_on_c, 0, 64, 0
4, 143520, Note_on_c, 0, 60, 0
4, 143520, Note_on_c, 0, 47, 75
4, 143760, Note_on_c, 0, 47, 0
4, 143760, Note_on_c, 0, 53, 75
4, 143760, Note_on_c, 0, 56, 75
4, 143760, Note_on_c, 0, 62, 75
4, 144000, Note_on_c, 0, 62, 0
4, 144000, Note_on_c, 0, 56, 0
4, 144000, Note_on_c, 0, 53, 0
4, 144000, Note_on_c, 0, 48, 75
4, 144240, Note_on_c, 0, 48, 0
4, 144240, Note_on_c, 0, 53, 75
4, 144240, Note_on_c, 0, 57, 75
4, 144240, Note_on_c, 0, 60, 75
4, 144480, Note_on_c, 0, 60, 0
4, 144480, Note_on_c, 0, 57, 0
4, 144480, Note_on_c, 0, 53, 0
4, 144480, Note_on_c, 0, 48, 75
4, 144720, Note_on_c, 0, 48, 0
4, 144720, Note_on_c, 0, 54, 75
4, 144720, Note_on_c, 0, 57, 75
4, 144720, Note_on_c, 0, 62, 75
4, 144960, Note_on_c, 0, 62, 0
4, 144960, Note_on_c, 0, 57, 0
4, 144960, Note_on_c, 0, 54, 0
4, 144960, Note_on_c, 0, 48, 75
4, 145200, Note_on_c, 0, 48, 0
4, 145200, Note_on_c, 0, 55, 75
4, 145200, Note_on_c, 0, 58, 75
4, 145200, Note_on_c, 0, 62, 75
4, 145440, Note_on_c, 0, 62, 0
4, 145440, Note_on_c, 0, 58, 0
4, 145440, Note_on_c, 0, 55, 0
4, 145440, Note_on_c, 0, 48, 75
4, 145680, Note_on_c, 0, 48, 0
4, 145680, Note_on_c, 0, 55, 75
4, 145680, Note_on_c, 0, 58, 75
4, 145680, Note_on_c, 0, 60, 75
4, 145920, Note_on_c, 0, 60, 0
4, 145920, Note_on_c, 0, 58, 0
4, 145920, Note_on_c, 0, 55, 0
4, 145920, Note_on_c, 0, 48, 75
4, 145920, Note_on_c, 0, 58, 75
4, 145920, Note_on_c, 0, 64, 75
4, 146160, Note_on_c, 0, 64, 0
4, 146160, Note_on_c, 0, 58, 0
4, 146160, Note_on_c, 0, 48, 0
4, 146400, Note_on_c, 0, 48, 62
4, 146640, Note_on_c, 0, 48, 0
4, 146640, Note_on_c, 0, 53, 62
4, 146640, Note_on_c, 0, 57, 62
4, 146640, Note_on_c, 0, 60, 62
4, 146880, Note_on_c, 0, 60, 0
4, 146880, Note_on_c, 0, 57, 0
4, 146880, Note_on_c, 0, 53, 0
4, 146880, Note_on_c, 0, 65, 62
4, 147120, Note_on_c, 0, 65, 0
4, 147120, Note_on_c, 0, 60, 62
4, 147120, Note_on_c, 0, 70, 62
4, 147360, Note_on_c, 0, 70, 0
4, 147360, Note_on_c, 0, 60, 0
4, 147360, Note_on_c, 0, 60, 62
4, 147360, Note_on_c, 0, 62, 62
4, 147600, Note_on_c, 0, 62, 0
4, 147600, Note_on_c, 0, 60, 0
4, 147600, Note_on_c, 0, 60, 62
4, 147600, Note_on_c, 0, 64, 62
4, 147840, Note_on_c, 0, 64, 0
4, 147840, Note_on_c, 0, 60, 0
4, 147840, Note_on_c, 0, 48, 62
4, 147840, Note_on_c, 0, 57, 62
4, 148080, Note_on_c, 0, 57, 0
4, 148080, Note_on_c, 0, 48, 0
4, 148080, Note_on_c, 0, 53, 62
4, 148080, Note_on_c, 0, 57, 62
4, 148080, Note_on_c, 0, 60, 62
4, 148320, Note_on_c, 0, 60, 0
4, 148320, Note_on_c, 0, 57, 0
4, 148320, Note_on_c, 0, 53, 0
4, 148320, Note_on_c, 0, 65, 62
4, 148560, Note_on_c, 0, 65, 0
4, 148560, Note_on_c, 0, 60, 62
4, 148560, Note_on_c, 0, 70, 62
4, 148800, Note_on_c, 0, 70, 0
4, 148800, Note_on_c, 0, 60, 0
4, 148800, Note_on_c, 0, 60, 62
4, 148800, Note_on_c, 0, 62, 62
4, 149040, Note_on_c, 0, 62, 0
4, 149040, Note_on_c, 0, 60, 0
4, 149040, Note_on_c, 0, 60, 75
4, 149040, Note_on_c, 0, 64, 75
4, 149280, Note_on_c, 0, 64, 0
4, 149280, Note_on_c, 0, 60, 0
4, 149280, Note_on_c, 0, 47, 75
4, 149520, Note_on_c, 0, 47, 0
4, 149520, Note_on_c, 0, 53, 75
4, 149520, Note_on_c, 0, 56, 75
4, 149520, Note_on_c, 0, 62, 75
4, 149760, Note_on_c, 0, 62, 0
4, 149760, Note_on_c, 0, 56, 0
4, 149760, Note_on_c, 0, 53, 0
4, 149760, Note_on_c, 0, 48, 75
4, 150000, Note_on_c, 0, 48, 0
4, 150000, Note_on_c, 0, 53, 75
4, 150000, Note_on_c, 0, 57, 75
4, 150000, Note_on_c, 0, 60, 75
4, 150240, Note_on_c, 0, 60, 0
4, 150240, Note_on_c, 0, 57, 0
4, 150240, Note_on_c, 0, 53, 0
4, 150240, Note_on_c, 0, 48, 75
4, 150480, Note_on_c, 0, 48, 0
4, 150480, Note_on_c, 0, 54, 75
4, 150480, Note_on_c, 0, 57, 75
4, 150480, Note_on_c, 0, 62, 75
4, 150720, Note_on_c, 0, 62, 0
4, 150720, Note_on_c, 0, 57, 0
4, 150720, Note_on_c, 0, 54, 0
4, 150720, Note_on_c, 0, 48, 75
4, 150960, Note_on_c, 0, 48, 0
4, 150960, Note_on_c, 0, 55, 75
4, 150960, Note_on_c, 0, 58, 75
4, 150960, Note_on_c, 0, 62, 75
4, 151200, Note_on_c, 0, 62, 0
4, 151200, Note_on_c, 0, 58, 0
4, 151200, Note_on_c, 0, 55, 0
4, 151200, Note_on_c, 0, 48, 75
4, 151200, Note_on_c, 0, 58, 75
4, 151200, Note_on_c, 0, 64, 75
4, 151440, Note_on_c, 0, 64, 0
4, 151440, Note_on_c, 0, 58, 0
4, 151440, Note_on_c, 0, 48, 0
4, 151440, Note_on_c, 0, 53, 88
4, 151440, Note_on_c, 0, 57, 88
4, 151440, Note_on_c, 0, 60, 88
4, 151440, Note_on_c, 0, 65, 88
4, 151680, Note_on_c, 0, 65, 0
4, 151680, Note_on_c, 0, 53, 0
4, 151680, Note_on_c, 0, 57, 0
4, 151680, Note_on_c, 0, 60, 0
4, 152160, Note_on_c, 0, 31, 127
4, 152160, Note_on_c, 0, 43, 127
4, 152400, Note_on_c, 0, 43, 0
4, 152400, Note_on_c, 0, 31, 0
4, 152400, Note_on_c, 0, 33, 101
4, 152400, Note_on_c, 0, 45, 101
4, 152640, Note_on_c, 0, 45, 0
4, 152640, Note_on_c, 0, 33, 0
4, 152640, Note_on_c, 0, 34, 101
4, 152640, Note_on_c, 0, 46, 101
4, 152880, Note_on_c, 0, 46, 0
4, 152880, Note_on_c, 0, 34, 0
4, 152880, Note_on_c, 0, 35, 101
4, 152880, Note_on_c, 0, 43, 101
4, 152880, Note_on_c, 0, 47, 101
4, 153120, Note_on_c, 0, 47, 0
4, 153120, Note_on_c, 0, 43, 0
4, 153120, Note_on_c, 0, 35, 0
4, 153600, Note_on_c, 0, 36, 101
4, 153600, Note_on_c, 0, 48, 101
4, 153840, Note_on_c, 0, 48, 0
4, 153840, Note_on_c, 0, 36, 0
4, 153840, Note_on_c, 0, 38, 101
4, 153840, Note_on_c, 0, 50, 101
4, 154080, Note_on_c, 0, 50, 0
4, 154080, Note_on_c, 0, 38, 0
4, 154080, Note_on_c, 0, 39, 101
4, 154080, Note_on_c, 0, 51, 101
4, 154320, Note_on_c, 0, 51, 0
4, 154320, Note_on_c, 0, 39, 0
4, 154320, Note_on_c, 0, 40, 75
4, 154320, Note_on_c, 0, 48, 75
4, 154320, Note_on_c, 0, 52, 75
4, 154560, Note_on_c, 0, 52, 0
4, 154560, Note_on_c, 0, 48, 0
4, 154560, Note_on_c, 0, 40, 0
4, 155040, Note_on_c, 0, 53, 75
4, 155040, Note_on_c, 0, 57, 75
4, 155040, Note_on_c, 0, 60, 75
4, 155280, Note_on_c, 0, 60, 0
4, 155280, Note_on_c, 0, 57, 0
4, 155280, Note_on_c, 0, 53, 0
4, 155760, Note_on_c, 0, 55, 75
4, 155760, Note_on_c, 0, 60, 75
4, 155760, Note_on_c, 0, 64, 75
4, 156000, Note_on_c, 0, 64, 0
4, 156000, Note_on_c, 0, 60, 0
4, 156000, Note_on_c, 0, 55, 0
4, 156480, Note_on_c, 0, 57, 75
4, 156480, Note_on_c, 0, 60, 75
4, 156480, Note_on_c, 0, 62, 75
4, 156720, Note_on_c, 0, 62, 0
4, 156720, Note_on_c, 0, 60, 0
4, 156720, Note_on_c, 0, 57, 0
4, 157200, Note_on_c, 0, 59, 88
4, 157200, Note_on_c, 0, 62, 88
4, 157200, Note_on_c, 0, 65, 88
4, 157440, Note_on_c, 0, 65, 0
4, 157440, Note_on_c, 0, 62, 0
4, 157440, Note_on_c, 0, 59, 0
4, 157440, Note_on_c, 0, 60, 88
4, 157440, Note_on_c, 0, 64, 88
4, 157680, Note_on_c, 0, 64, 0
4, 157680, Note_on_c, 0, 60, 0
4, 157920, Note_on_c, 0, 31, 127
4, 157920, Note_on_c, 0, 43, 127
4, 158160, Note_on_c, 0, 43, 0
4, 158160, Note_on_c, 0, 31, 0
4, 158160, Note_on_c, 0, 33, 101
4, 158160, Note_on_c, 0, 45, 101
4, 158400, Note_on_c, 0, 45, 0
4, 158400, Note_on_c, 0, 33, 0
4, 158400, Note_on_c, 0, 34, 101
4, 158400, Note_on_c, 0, 46, 101
4, 158640, Note_on_c, 0, 46, 0
4, 158640, Note_on_c, 0, 34, 0
4, 158640, Note_on_c, 0, 35, 101
4, 158640, Note_on_c, 0, 43, 101
4, 158640, Note_on_c, 0, 47, 101
4, 158880, Note_on_c, 0, 47, 0
4, 158880, Note_on_c, 0, 43, 0
4, 158880, Note_on_c, 0, 35, 0
4, 159360, Note_on_c, 0, 36, 101
4, 159360, Note_on_c, 0, 48, 101
4, 159600, Note_on_c, 0, 48, 0
4, 159600, Note_on_c, 0, 36, 0
4, 159600, Note_on_c, 0, 38, 101
4, 159600, Note_on_c, 0, 50, 101
4, 159840, Note_on_c, 0, 50, 0
4, 159840, Note_on_c, 0, 38, 0
4, 159840, Note_on_c, 0, 39, 101
4, 159840, Note_on_c, 0, 51, 101
4, 160080, Note_on_c, 0, 51, 0
4, 160080, Note_on_c, 0, 39, 0
4, 160080, Note_on_c, 0, 40, 75
4, 160080, Note_on_c, 0, 48, 75
4, 160080, Note_on_c, 0, 52, 75
4, 160320, Note_on_c, 0, 52, 0
4, 160320, Note_on_c, 0, 48, 0
4, 160320, Note_on_c, 0, 40, 0
4, 160800, Note_on_c, 0, 53, 75
4, 160800, Note_on_c, 0, 57, 75
4, 160800, Note_on_c, 0, 60, 75
4, 161040, Note_on_c, 0, 60, 0
4, 161040, Note_on_c, 0, 57, 0
4, 161040, Note_on_c, 0, 53, 0
4, 161520, Note_on_c, 0, 54, 75
4, 161520, Note_on_c, 0, 60, 75
4, 161520, Note_on_c, 0, 63, 75
4, 161760, Note_on_c, 0, 63, 0
4, 161760, Note_on_c, 0, 60, 0
4, 161760, Note_on_c, 0, 54, 0
4, 162240, Note_on_c, 0, 55, 75
4, 162240, Note_on_c, 0, 60, 75
4, 162240, Note_on_c, 0, 64, 75
4, 162480, Note_on_c, 0, 64, 0
4, 162480, Note_on_c, 0, 60, 0
4, 162480, Note_on_c, 0, 55, 0
4, 162720, Note_on_c, 0, 43, 75
4, 162720, Note_on_c, 0, 55, 75
4, 162960, Note_on_c, 0, 55, 0
4, 162960, Note_on_c, 0, 43, 0
4, 162960, Note_on_c, 0, 48, 88
4, 162960, Note_on_c, 0, 55, 88
4, 163200, Note_on_c, 0, 55, 0
4, 163200, Note_on_c, 0, 48, 0
4, 163680, Note_on_c, 0, 31, 127
4, 163680, Note_on_c, 0, 43, 127
4, 163920, Note_on_c, 0, 43, 0
4, 163920, Note_on_c, 0, 31, 0
4, 163920, Note_on_c, 0, 33, 101
4, 163920, Note_on_c, 0, 45, 101
4, 164160, Note_on_c, 0, 45, 0
4, 164160, Note_on_c, 0, 33, 0
4, 164160, Note_on_c, 0, 34, 101
4, 164160, Note_on_c, 0, 46, 101
4, 164400, Note_on_c, 0, 46, 0
4, 164400, Note_on_c, 0, 34, 0
4, 164400, Note_on_c, 0, 35, 101
4, 164400, Note_on_c, 0, 43, 101
4, 164400, Note_on_c, 0, 47, 101
4, 164640, Note_on_c, 0, 47, 0
4, 164640, Note_on_c, 0, 43, 0
4, 164640, Note_on_c, 0, 35, 0
4, 165120, Note_on_c, 0, 36, 101
4, 165120, Note_on_c, 0, 48, 101
4, 165360, Note_on_c, 0, 48, 0
4, 165360, Note_on_c, 0, 36, 0
4, 165360, Note_on_c, 0, 38, 101
4, 165360, Note_on_c, 0, 50, 101
4, 165600, Note_on_c, 0, 50, 0
4, 165600, Note_on_c, 0, 38, 0
4, 165600, Note_on_c, 0, 39, 101
4, 165600, Note_on_c, 0, 51, 101
4, 165840, Note_on_c, 0, 51, 0
4, 165840, Note_on_c, 0, 39, 0
4, 165840, Note_on_c, 0, 40, 75
4, 165840, Note_on_c, 0, 48, 75
4, 165840, Note_on_c, 0, 52, 75
4, 166080, Note_on_c, 0, 52, 0
4, 166080, Note_on_c, 0, 48, 0
4, 166080, Note_on_c, 0, 40, 0
4, 166560, Note_on_c, 0, 53, 75
4, 166560, Note_on_c, 0, 57, 75
4, 166560, Note_on_c, 0, 60, 75
4, 166800, Note_on_c, 0, 60, 0
4, 166800, Note_on_c, 0, 57, 0
4, 166800, Note_on_c, 0, 53, 0
4, 167280, Note_on_c, 0, 55, 75
4, 167280, Note_on_c, 0, 60, 75
4, 167280, Note_on_c, 0, 64, 75
4, 167520, Note_on_c, 0, 64, 0
4, 167520, Note_on_c, 0, 60, 0
4, 167520, Note_on_c, 0, 55, 0
4, 168000, Note_on_c, 0, 57, 75
4, 168000, Note_on_c, 0, 60, 75
4, 168000, Note_on_c, 0, 62, 75
4, 168240, Note_on_c, 0, 62, 0
4, 168240, Note_on_c, 0, 60, 0
4, 168240, Note_on_c, 0, 57, 0
4, 168720, Note_on_c, 0, 59, 88
4, 168720, Note_on_c, 0, 62, 88
4, 168720, Note_on_c, 0, 65, 88
4, 168960, Note_on_c, 0, 65, 0
4, 168960, Note_on_c, 0, 62, 0
4, 168960, Note_on_c, 0, 59, 0
4, 168960, Note_on_c, 0, 60, 88
4, 168960, Note_on_c, 0, 64, 88
4, 169200, Note_on_c, 0, 64, 0
4, 169200, Note_on_c, 0, 60, 0
4, 169440, Note_on_c, 0, 31, 127
4, 169440, Note_on_c, 0, 43, 127
4, 169680, Note_on_c, 0, 43, 0
4, 169680, Note_on_c, 0, 31, 0
4, 169680, Note_on_c, 0, 33, 101
4, 169680, Note_on_c, 0, 45, 101
4, 169920, Note_on_c, 0, 45, 0
4, 169920, Note_on_c, 0, 33, 0
4, 169920, Note_on_c, 0, 34, 101
4, 169920, Note_on_c, 0, 46, 101
4, 170160, Note_on_c, 0, 46, 0
4, 170160, Note_on_c, 0, 34, 0
4, 170160, Note_on_c, 0, 35, 101
4, 170160, Note_on_c, 0, 43, 101
4, 170160, Note_on_c, 0, 47, 101
4, 170400, Note_on_c, 0, 47, 0
4, 170400, Note_on_c, 0, 43, 0
4, 170400, Note_on_c, 0, 35, 0
4, 170880, Note_on_c, 0, 36, 101
4, 170880, Note_on_c, 0, 48, 101
4, 171120, Note_on_c, 0, 48, 0
4, 171120, Note_on_c, 0, 36, 0
4, 171120, Note_on_c, 0, 38, 101
4, 171120, Note_on_c, 0, 50, 101
4, 171360, Note_on_c, 0, 50, 0
4, 171360, Note_on_c, 0, 38, 0
4, 171360, Note_on_c, 0, 39, 101
4, 171360, Note_on_c, 0, 51, 101
4, 171600, Note_on_c, 0, 51, 0
4, 171600, Note_on_c, 0, 39, 0
4, 171600, Note_on_c, 0, 40, 75
4, 171600, Note_on_c, 0, 48, 75
4, 171600, Note_on_c, 0, 52, 75
4, 171840, Note_on_c, 0, 52, 0
4, 171840, Note_on_c, 0, 48, 0
4, 171840, Note_on_c, 0, 40, 0
4, 172320, Note_on_c, 0, 53, 75
4, 172320, Note_on_c, 0, 57, 75
4, 172320, Note_on_c, 0, 60, 75
4, 172560, Note_on_c, 0, 60, 0
4, 172560, Note_on_c, 0, 57, 0
4, 172560, Note_on_c, 0, 53, 0
4, 173040, Note_on_c, 0, 54, 75
4, 173040, Note_on_c, 0, 60, 75
4, 173040, Note_on_c, 0, 63, 75
4, 173280, Note_on_c, 0, 63, 0
4, 173280, Note_on_c, 0, 60, 0
4, 173280, Note_on_c, 0, 54, 0
4, 173760, Note_on_c, 0, 55, 75
4, 173760, Note_on_c, 0, 60, 75
4, 173760, Note_on_c, 0, 64, 75
4, 174000, Note_on_c, 0, 64, 0
4, 174000, Note_on_c, 0, 60, 0
4, 174000, Note_on_c, 0, 55, 0
4, 174240, Note_on_c, 0, 43, 75
4, 174240, Note_on_c, 0, 55, 75
4, 174480, Note_on_c, 0, 55, 0
4, 174480, Note_on_c, 0, 43, 0
4, 174480, Note_on_c, 0, 48, 75
4, 174480, Note_on_c, 0, 55, 75
4, 174720, Note_on_c, 0, 55, 0
4, 174720, Note_on_c, 0, 48, 0
4, 175200, Note_on_c, 0, 48, 62
4, 175440, Note_on_c, 0, 48, 0
4, 175440, Note_on_c, 0, 53, 62
4, 175440, Note_on_c, 0, 57, 62
4, 175440, Note_on_c, 0, 60, 62
4, 175680, Note_on_c, 0, 60, 0
4, 175680, Note_on_c, 0, 57, 0
4, 175680, Note_on_c, 0, 53, 0
4, 175680, Note_on_c, 0, 65, 62
4, 175920, Note_on_c, 0, 65, 0
4, 175920, Note_on_c, 0, 60, 62
4, 175920, Note_on_c, 0, 70, 62
4, 176160, Note_on_c, 0, 70, 0
4, 176160, Note_on_c, 0, 60, 0
4, 176160, Note_on_c, 0, 60, 62
4, 176160, Note_on_c, 0, 62, 62
4, 176400, Note_on_c, 0, 62, 0
4, 176400, Note_on_c, 0, 60, 0
4, 176400, Note_on_c, 0, 60, 62
4, 176400, Note_on_c, 0, 64, 62
4, 176640, Note_on_c, 0, 64, 0
4, 176640, Note_on_c, 0, 60, 0
4, 176640, Note_on_c, 0, 48, 62
4, 176640, Note_on_c, 0, 57, 62
4, 176880, Note_on_c, 0, 57, 0
4, 176880, Note_on_c, 0, 48, 0
4, 176880, Note_on_c, 0, 53, 62
4, 176880, Note_on_c, 0, 57, 62
4, 176880, Note_on_c, 0, 60, 62
4, 177120, Note_on_c, 0, 60, 0
4, 177120, Note_on_c, 0, 57, 0
4, 177120, Note_on_c, 0, 53, 0
4, 177120, Note_on_c, 0, 65, 62
4, 177360, Note_on_c, 0, 65, 0
4, 177360, Note_on_c, 0, 60, 62
4, 177360, Note_on_c, 0, 70, 62
4, 177600, Note_on_c, 0, 70, 0
4, 177600, Note_on_c, 0, 60, 0
4, 177600, Note_on_c, 0, 60, 62
4, 177600, Note_on_c, 0, 62, 62
4, 177840, Note_on_c, 0, 62, 0
4, 177840, Note_on_c, 0, 60, 0
4, 177840, Note_on_c, 0, 60, 75
4, 177840, Note_on_c, 0, 64, 75
4, 178080, Note_on_c, 0, 64, 0
4, 178080, Note_on_c, 0, 60, 0
4, 178080, Note_on_c, 0, 47, 75
4, 178320, Note_on_c, 0, 47, 0
4, 178320, Note_on_c, 0, 53, 75
4, 178320, Note_on_c, 0, 56, 75
4, 178320, Note_on_c, 0, 62, 75
4, 178560, Note_on_c, 0, 62, 0
4, 178560, Note_on_c, 0, 56, 0
4, 178560, Note_on_c, 0, 53, 0
4, 178560, Note_on_c, 0, 48, 75
4, 178800, Note_on_c, 0, 48, 0
4, 178800, Note_on_c, 0, 53, 75
4, 178800, Note_on_c, 0, 57, 75
4, 178800, Note_on_c, 0, 60, 75
4, 179040, Note_on_c, 0, 60, 0
4, 179040, Note_on_c, 0, 57, 0
4, 179040, Note_on_c, 0, 53, 0
4, 179040, Note_on_c, 0, 48, 75
4, 179280, Note_on_c, 0, 48, 0
4, 179280, Note_on_c, 0, 54, 75
4, 179280, Note_on_c, 0, 57, 75
4, 179280, Note_on_c, 0, 62, 75
4, 179520, Note_on_c, 0, 62, 0
4, 179520, Note_on_c, 0, 57, 0
4, 179520, Note_on_c, 0, 54, 0
4, 179520, Note_on_c, 0, 48, 75
4, 179760, Note_on_c, 0, 48, 0
4, 179760, Note_on_c, 0, 55, 75
4, 179760, Note_on_c, 0, 58, 75
4, 179760, Note_on_c, 0, 62, 75
4, 180000, Note_on_c, 0, 62, 0
4, 180000, Note_on_c, 0, 58, 0
4, 180000, Note_on_c, 0, 55, 0
4, 180000, Note_on_c, 0, 48, 75
4, 180240, Note_on_c, 0, 48, 0
4, 180240, Note_on_c, 0, 55, 75
4, 180240, Note_on_c, 0, 58, 75
4, 180240, Note_on_c, 0, 60, 75
4, 180480, Note_on_c, 0, 60, 0
4, 180480, Note_on_c, 0, 58, 0
4, 180480, Note_on_c, 0, 55, 0
4, 180480, Note_on_c, 0, 48, 75
4, 180480, Note_on_c, 0, 58, 75
4, 180480, Note_on_c, 0, 64, 75
4, 180720, Note_on_c, 0, 64, 0
4, 180720, Note_on_c, 0, 58, 0
4, 180720, Note_on_c, 0, 48, 0
4, 180960, Note_on_c, 0, 48, 62
4, 181200, Note_on_c, 0, 48, 0
4, 181200, Note_on_c, 0, 53, 62
4, 181200, Note_on_c, 0, 57, 62
4, 181200, Note_on_c, 0, 60, 62
4, 181440, Note_on_c, 0, 60, 0
4, 181440, Note_on_c, 0, 57, 0
4, 181440, Note_on_c, 0, 53, 0
4, 181440, Note_on_c, 0, 65, 62
4, 181680, Note_on_c, 0, 65, 0
4, 181680, Note_on_c, 0, 60, 62
4, 181680, Note_on_c, 0, 70, 62
4, 181920, Note_on_c, 0, 70, 0
4, 181920, Note_on_c, 0, 60, 0
4, 181920, Note_on_c, 0, 60, 62
4, 181920, Note_on_c, 0, 62, 62
4, 182160, Note_on_c, 0, 62, 0
4, 182160, Note_on_c, 0, 60, 0
4, 182160, Note_on_c, 0, 60, 62
4, 182160, Note_on_c, 0, 64, 62
4, 182400, Note_on_c, 0, 64, 0
4, 182400, Note_on_c, 0, 60, 0
4, 182400, Note_on_c, 0, 48, 62
4, 182400, Note_on_c, 0, 57, 62
4, 182640, Note_on_c, 0, 57, 0
4, 182640, Note_on_c, 0, 48, 0
4, 182640, Note_on_c, 0, 53, 62
4, 182640, Note_on_c, 0, 57, 62
4, 182640, Note_on_c, 0, 60, 62
4, 182880, Note_on_c, 0, 60, 0
4, 182880, Note_on_c, 0, 57, 0
4, 182880, Note_on_c, 0, 53, 0
4, 182880, Note_on_c, 0, 65, 62
4, 183120, Note_on_c, 0, 65, 0
4, 183120, Note_on_c, 0, 60, 62
4, 183120, Note_on_c, 0, 70, 62
4, 183360, Note_on_c, 0, 70, 0
4, 183360, Note_on_c, 0, 60, 0
4, 183360, Note_on_c, 0, 60, 62
4, 183360, Note_on_c, 0, 62, 62
4, 183600, Note_on_c, 0, 62, 0
4, 183600, Note_on_c, 0, 60, 0
4, 183600, Note_on_c, 0, 60, 75
4, 183600, Note_on_c, 0, 64, 75
4, 183840, Note_on_c, 0, 64, 0
4, 183840, Note_on_c, 0, 60, 0
4, 183840, Note_on_c, 0, 47, 75
4, 184080, Note_on_c, 0, 47, 0
4, 184080, Note_on_c, 0, 53, 75
4, 184080, Note_on_c, 0, 56, 75
4, 184080, Note_on_c, 0, 62, 75
4, 184320, Note_on_c, 0, 62, 0
4, 184320, Note_on_c, 0, 56, 0
4, 184320, Note_on_c, 0, 53, 0
4, 184320, Note_on_c, 0, 48, 75
4, 184560, Note_on_c, 0, 48, 0
4, 184560, Note_on_c, 0, 53, 75
4, 184560, Note_on_c, 0, 57, 75
4, 184560, Note_on_c, 0, 60, 75
4, 184800, Note_on_c, 0, 60, 0
4, 184800, Note_on_c, 0, 57, 0
4, 184800, Note_on_c, 0, 53, 0
4, 184800, Note_on_c, 0, 48, 75
4, 185040, Note_on_c, 0, 48, 0
4, 185040, Note_on_c, 0, 54, 75
4, 185040, Note_on_c, 0, 57, 75
4, 185040, Note_on_c, 0, 62, 75
4, 185280, Note_on_c, 0, 62, 0
4, 185280, Note_on_c, 0, 57, 0
4, 185280, Note_on_c, 0, 54, 0
4, 185280, Note_on_c, 0, 48, 75
4, 185520, Note_on_c, 0, 48, 0
4, 185520, Note_on_c, 0, 55, 75
4, 185520, Note_on_c, 0, 58, 75
4, 185520, Note_on_c, 0, 62, 75
4, 185760, Note_on_c, 0, 62, 0
4, 185760, Note_on_c, 0, 58, 0
4, 185760, Note_on_c, 0, 55, 0
4, 185760, Note_on_c, 0, 48, 75
4, 185760, Note_on_c, 0, 58, 75
4, 185760, Note_on_c, 0, 64, 75
4, 186000, Note_on_c, 0, 64, 0
4, 186000, Note_on_c, 0, 58, 0
4, 186000, Note_on_c, 0, 48, 0
4, 186000, Note_on_c, 0, 53, 75
4, 186000, Note_on_c, 0, 57, 75
4, 186000, Note_on_c, 0, 60, 75
4, 186000, Note_on_c, 0, 65, 75
4, 186240, Note_on_c, 0, 65, 0
4, 186240, Note_on_c, 0, 53, 0
4, 186240, Note_on_c, 0, 57, 0
4, 186240, Note_on_c, 0, 60, 0
4, 186240, Note_on_c, 0, 48, 114
4, 186240, Note_on_c, 0, 53, 114
4, 186480, Note_on_c, 0, 53, 0
4, 186480, Note_on_c, 0, 48, 0
4, 186480, Note_on_c, 0, 53, 114
4, 186480, Note_on_c, 0, 57, 114
4, 186720, Note_on_c, 0, 57, 0
4, 186720, Note_on_c, 0, 53, 0
4, 186720, Note_on_c, 0, 60, 114
4, 186960, Note_on_c, 0, 60, 0
4, 186960, Note_on_c, 0, 53, 114
4, 186960, Note_on_c, 0, 57, 114
4, 187200, Note_on_c, 0, 57, 0
4, 187200, Note_on_c, 0, 53, 0
4, 187200, Note_on_c, 0, 57, 114
4, 187200, Note_on_c, 0, 60, 114
4, 187440, Note_on_c, 0, 60, 0
4, 187440, Note_on_c, 0, 57, 0
4, 187440, Note_on_c, 0, 60, 114
4, 187440, Note_on_c, 0, 63, 114
4, 187680, Note_on_c, 0, 63, 0
4, 187680, Note_on_c, 0, 60, 0
4, 187680, Note_on_c, 0, 57, 114
4, 187680, Note_on_c, 0, 60, 114
4, 187920, Note_on_c, 0, 60, 0
4, 187920, Note_on_c, 0, 57, 0
4, 187920, Note_on_c, 0, 60, 114
4, 187920, Note_on_c, 0, 63, 114
4, 188160, Note_on_c, 0, 63, 0
4, 188160, Note_on_c, 0, 60, 0
4, 188160, Note_on_c, 0, 63, 88
4, 188160, Note_on_c, 0, 67, 88
4, 188640, Note_on_c, 0, 67, 0
4, 188640, Note_on_c, 0, 63, 0
4, 188640, Note_on_c, 0, 62, 75
4, 188640, Note_on_c, 0, 65, 75
4, 188880, Note_on_c, 0, 65, 0
4, 188880, Note_on_c, 0, 62, 0
4, 188880, Note_on_c, 0, 60, 62
4, 188880, Note_on_c, 0, 63, 62
4, 190080, Note_on_c, 0, 63, 0
4, 190080, Note_on_c, 0, 60, 0
4, 190080, Note_on_c, 0, 53, 62
4, 190080, Note_on_c, 0, 65, 62
4, 190320, Note_on_c, 0, 65, 0
4, 190320, Note_on_c, 0, 53, 0
4, 190320, Note_on_c, 0, 41, 62
4, 190320, Note_on_c, 0, 53, 62
4, 190800, Note_on_c, 0, 53, 0
4, 190800, Note_on_c, 0, 41, 0
4, 190800, End_track
5, 0, Start_track
5, 0, Title_t, "Grand Piano"
5, 0, Program_c, 0, 0
5, 0, Control_c, 0, 7, 115
5, 0, Control_c, 0, 10, 47
5, 19440, Note_on_c, 0, 49, 62
5, 20160, Note_on_c, 0, 49, 0
5, 20160, Note_on_c, 0, 50, 62
5, 20400, Note_on_c, 0, 50, 0
5, 20880, Note_on_c, 0, 51, 75
5, 21120, Note_on_c, 0, 51, 0
5, 21600, Note_on_c, 0, 52, 75
5, 21840, Note_on_c, 0, 52, 0
5, 22320, Note_on_c, 0, 52, 75
5, 22320, Note_on_c, 0, 57, 75
5, 23040, Note_on_c, 0, 57, 0
5, 23040, Note_on_c, 0, 52, 0
5, 23040, Note_on_c, 0, 52, 62
5, 23040, Note_on_c, 0, 56, 62
5, 23040, Note_on_c, 0, 59, 62
5, 23280, Note_on_c, 0, 59, 0
5, 23280, Note_on_c, 0, 56, 0
5, 23280, Note_on_c, 0, 52, 0
5, 23760, Note_on_c, 0, 52, 62
5, 24480, Note_on_c, 0, 52, 0
5, 24480, Note_on_c, 0, 45, 49
5, 24480, Note_on_c, 0, 52, 49
5, 24720, Note_on_c, 0, 52, 0
5, 24720, Note_on_c, 0, 45, 0
5, 25200, Note_on_c, 0, 57, 49
5, 25920, Note_on_c, 0, 57, 0
5, 60720, Note_on_c, 0, 65, 49
5, 60720, Note_on_c, 0, 69, 49
5, 60960, Note_on_c, 0, 69, 0
5, 60960, Note_on_c, 0, 65, 0
5, 60960, Note_on_c, 0, 65, 49
5, 61200, Note_on_c, 0, 65, 0
5, 61200, Note_on_c, 0, 65, 49
5, 61200, Note_on_c, 0, 69, 49
5, 61440, Note_on_c, 0, 69, 0
5, 61440, Note_on_c, 0, 65, 0
5, 61440, Note_on_c, 0, 65, 49
5, 61440, Note_on_c, 0, 69, 49
5, 61680, Note_on_c, 0, 69, 0
5, 61680, Note_on_c, 0, 65, 0
5, 61680, Note_on_c, 0, 65, 49
5, 61680, Note_on_c, 0, 69, 49
5, 61920, Note_on_c, 0, 69, 0
5, 61920, Note_on_c, 0, 65, 0
5, 61920, Note_on_c, 0, 65, 49
5, 61920, Note_on_c, 0, 69, 49
5, 62160, Note_on_c, 0, 69, 0
5, 62160, Note_on_c, 0, 65, 0
5, 86400, Control_c, 0, 64, 127
5, 86400, Note_on_c, 0, 56, 49
5, 86400, Note_on_c, 0, 61, 49
5, 86640, Note_on_c, 0, 61, 0
5, 86640, Note_on_c, 0, 56, 0
5, 86640, Note_on_c, 0, 56, 49
5, 86640, Note_on_c, 0, 61, 49
5, 86880, Note_on_c, 0, 61, 0
5, 86880, Note_on_c, 0, 56, 0
5, 86880, Note_on_c, 0, 56, 49
5, 86880, Note_on_c, 0, 61, 49
5, 87120, Note_on_c, 0, 61, 0
5, 87120, Note_on_c, 0, 56, 0
5, 87120, Note_on_c, 0, 56, 49
5, 87120, Note_on_c, 0, 61, 49
5, 87360, Note_on_c, 0, 61, 0
5, 87360, Note_on_c, 0, 56, 0
5, 87360, Note_on_c, 0, 56, 49
5, 87360, Note_on_c, 0, 61, 49
5, 87600, Note_on_c, 0, 61, 0
5, 87600, Note_on_c, 0, 56, 0
5, 87600, Control_c, 0, 64, 0
5, 87600, Note_on_c, 0, 56, 49
5, 87600, Note_on_c, 0, 61, 49
5, 87840, Note_on_c, 0, 61, 0
5, 87840, Note_on_c, 0, 56, 0
5, 87960, Note_on_c, 0, 56, 49
5, 87960, Note_on_c, 0, 64, 49
5, 88200, Note_on_c, 0, 64, 0
5, 88200, Note_on_c, 0, 56, 0
5, 88200, Note_on_c, 0, 56, 49
5, 88200, Note_on_c, 0, 64, 49
5, 88440, Note_on_c, 0, 64, 0
5, 88440, Note_on_c, 0, 56, 0
5, 88440, Note_on_c, 0, 56, 49
5, 88440, Note_on_c, 0, 64, 49
5, 88680, Note_on_c, 0, 64, 0
5, 88680, Note_on_c, 0, 56, 0
5, 88680, Note_on_c, 0, 56, 49
5, 88680, Note_on_c, 0, 63, 49
5, 88920, Note_on_c, 0, 63, 0
5, 88920, Note_on_c, 0, 56, 0
5, 88920, Note_on_c, 0, 56, 49
5, 88920, Note_on_c, 0, 63, 49
5, 89160, Note_on_c, 0, 63, 0
5, 89160, Note_on_c, 0, 56, 0
5, 89160, Note_on_c, 0, 56, 49
5, 89160, Note_on_c, 0, 63, 49
5, 89280, Note_on_c, 0, 63, 0
5, 89280, Note_on_c, 0, 56, 0
5, 89280, Note_on_c, 0, 49, 75
5, 90000, Note_on_c, 0, 49, 0
5, 90000, Note_on_c, 0, 48, 75
5, 90720, Note_on_c, 0, 48, 0
5, 90720, Note_on_c, 0, 46, 75
5, 90960, Note_on_c, 0, 46, 0
5, 90960, Note_on_c, 0, 45, 75
5, 91200, Note_on_c, 0, 45, 0
5, 91200, Note_on_c, 0, 53, 75
5, 91440, Note_on_c, 0, 53, 0
5, 91440, Note_on_c, 0, 52, 75
5, 92160, Note_on_c, 0, 52, 0
5, 92160, Note_on_c, 0, 50, 75
5, 92880, Note_on_c, 0, 50, 0
5, 92880, Note_on_c, 0, 49, 75
5, 93600, Note_on_c, 0, 49, 0
5, 93720, Control_c, 0, 64, 127
5, 93720, Note_on_c, 0, 38, 88
5, 93840, Note_on_c, 0, 38, 0
5, 93840, Note_on_c, 0, 45, 88
5, 93960, Note_on_c, 0, 45, 0
5, 93960, Note_on_c, 0, 50, 88
5, 94080, Note_on_c, 0, 50, 0
5, 94080, Note_on_c, 0, 53, 88
5, 94200, Note_on_c, 0, 53, 0
5, 94200, Note_on_c, 0, 57, 88
5, 94320, Note_on_c, 0, 57, 0
5, 94320, Control_c, 0, 64, 0
5, 94320, Note_on_c, 0, 62, 88
5, 94440, Note_on_c, 0, 62, 0
5, 94440, Control_c, 0, 64, 127
5, 94440, Note_on_c, 0, 45, 88
5, 94560, Note_on_c, 0, 45, 0
5, 94560, Note_on_c, 0, 50, 88
5, 94680, Note_on_c, 0, 50, 0
5, 94680, Note_on_c, 0, 53, 88
5, 94800, Note_on_c, 0, 53, 0
5, 94800, Note_on_c, 0, 57, 88
5, 94920, Note_on_c, 0, 57, 0
5, 94920, Note_on_c, 0, 62, 88
5, 95040, Note_on_c, 0, 62, 0
5, 95040, Control_c, 0, 64, 0
5, 95040, Note_on_c, 0, 65, 101
5, 95520, Note_on_c, 0, 65, 0
5, 95520, Note_on_c, 0, 65, 101
5, 96000, Note_on_c, 0, 65, 0
5, 96000, Note_on_c, 0, 65, 101
5, 96400, Note_on_c, 0, 48, 101
5, 96440, Note_on_c, 0, 57, 101
5, 96480, Note_on_c, 0, 65, 0
5, 96480, Note_on_c, 0, 60, 62
5, 96720, Note_on_c, 0, 60, 0
5, 96720, Note_on_c, 0, 57, 0
5, 96720, Note_on_c, 0, 48, 0
5, 97200, Note_on_c, 0, 48, 62
5, 97440, Note_on_c, 0, 48, 0
5, 97920, Note_on_c, 0, 46, 62
5, 97920, Note_on_c, 0, 52, 62
5, 98160, Note_on_c, 0, 52, 0
5, 98160, Note_on_c, 0, 46, 0
5, 98640, Note_on_c, 0, 46, 62
5, 98640, Note_on_c, 0, 52, 62
5, 98880, Note_on_c, 0, 52, 0
5, 98880, Note_on_c, 0, 46, 0
5, 99360, Note_on_c, 0, 57, 62
5, 99600, Note_on_c, 0, 57, 0
5, 100080, Note_on_c, 0, 55, 62
5, 100320, Note_on_c, 0, 55, 0
5, 100800, Note_on_c, 0, 48, 62
5, 101040, Note_on_c, 0, 48, 0
5, 101520, Note_on_c, 0, 48, 62
5, 101760, Note_on_c, 0, 48, 0
5, 102240, Note_on_c, 0, 46, 62
5, 102480, Note_on_c, 0, 46, 0
5, 102960, Note_on_c, 0, 58, 62
5, 103200, Note_on_c, 0, 58, 0
5, 103680, Note_on_c, 0, 57, 62
5, 103920, Note_on_c, 0, 57, 0
5, 104400, Note_on_c, 0, 45, 62
5, 104640, Note_on_c, 0, 45, 0
5, 105120, Note_on_c, 0, 50, 62
5, 105360, Note_on_c, 0, 50, 0
5, 105840, Note_on_c, 0, 50, 62
5, 106080, Note_on_c, 0, 50, 0
5, 106560, Note_on_c, 0, 46, 62
5, 106800, Note_on_c, 0, 46, 0
5, 107280, Note_on_c, 0, 48, 62
5, 107520, Note_on_c, 0, 48, 0
5, 123840, Note_on_c, 0, 48, 75
5, 123840, Note_on_c, 0, 53, 75
5, 123840, Note_on_c, 0, 57, 75
5, 125280, Note_on_c, 0, 57, 0
5, 125280, Note_on_c, 0, 53, 0
5, 125280, Note_on_c, 0, 48, 0
5, 125280, Note_on_c, 0, 48, 75
5, 126720, Note_on_c, 0, 48, 0
5, 126720, Note_on_c, 0, 48, 75
5, 126720, Note_on_c, 0, 53, 75
5, 126720, Note_on_c, 0, 57, 75
5, 128160, Note_on_c, 0, 57, 0
5, 128160, Note_on_c, 0, 53, 0
5, 128160, Note_on_c, 0, 48, 0
5, 128160, Note_on_c, 0, 48, 75
5, 129600, Note_on_c, 0, 48, 0
5, 186720, Note_on_c, 0, 53, 88
5, 186720, Note_on_c, 0, 57, 88
5, 188160, Note_on_c, 0, 57, 0
5, 188160, Note_on_c, 0, 53, 0
5, 188160, Note_on_c, 0, 53, 88
5, 188160, Note_on_c, 0, 57, 88
5, 190320, Note_on_c, 0, 57, 0
5, 190320, Note_on_c, 0, 53, 0
5, 190320, End_track
0, 0, End_of_file
