0, 0, Header, 1, 5, 480
1, 0, Start_track
1, 0, Title_t, "tchaikovsky sleeping beauty act2 15c coda"
1, 0, Copyright_t, "Adaptation for Disklavier pianos, by: Robert C. Kuhmann (c) 2012."
1, 0, Text_t, "Seq. (c) by: Segundo G. Yogore,  2006\012"
1, 0, Time_signature, 2, 2, 24, 8
1, 0, Key_signature, -2, "major"
1, 0, Tempo, 400000
1, 89280, Time_signature, 8, 2, 24, 8
1, 89280, End_track
2, 0, Start_track
2, 0, Title_t, "Grand Piano"
2, 0, Program_c, 0, 0
2, 0, Control_c, 0, 7, 115
2, 0, Control_c, 0, 10, 86
2, 720, Note_on_c, 0, 69, 62
2, 720, Note_on_c, 0, 75, 62
2, 960, Note_on_c, 0, 75, 0
2, 960, Note_on_c, 0, 69, 0
2, 960, Note_on_c, 0, 70, 62
2, 960, Note_on_c, 0, 74, 62
2, 1200, Note_on_c, 0, 74, 0
2, 1200, Note_on_c, 0, 70, 0
2, 1680, Note_on_c, 0, 66, 62
2, 1680, Note_on_c, 0, 72, 62
2, 1920, Note_on_c, 0, 72, 0
2, 1920, Note_on_c, 0, 66, 0
2, 1920, Note_on_c, 0, 67, 62
2, 1920, Note_on_c, 0, 70, 62
2, 2160, Note_on_c, 0, 70, 0
2, 2160, Note_on_c, 0, 67, 0
2, 2640, Note_on_c, 0, 63, 62
2, 2640, Note_on_c, 0, 69, 62
2, 2880, Note_on_c, 0, 69, 0
2, 2880, Note_on_c, 0, 63, 0
2, 3120, Note_on_c, 0, 62, 62
2, 3120, Note_on_c, 0, 67, 62
2, 3360, Note_on_c, 0, 67, 0
2, 3360, Note_on_c, 0, 62, 0
2, 3600, Note_on_c, 0, 60, 62
2, 3600, Note_on_c, 0, 66, 62
2, 3840, Note_on_c, 0, 66, 0
2, 3840, Note_on_c, 0, 60, 0
2, 4080, Note_on_c, 0, 62, 62
2, 4080, Note_on_c, 0, 67, 62
2, 4320, Note_on_c, 0, 67, 0
2, 4320, Note_on_c, 0, 62, 0
2, 4320, Note_on_c, 0, 66, 75
2, 4343, Note_on_c, 0, 66, 0
2, 4440, Note_on_c, 0, 66, 75
2, 4463, Note_on_c, 0, 66, 0
2, 4560, Note_on_c, 0, 66, 75
2, 4583, Note_on_c, 0, 66, 0
2, 4680, Note_on_c, 0, 66, 75
2, 4703, Note_on_c, 0, 66, 0
2, 4800, Note_on_c, 0, 67, 75
2, 4823, Note_on_c, 0, 67, 0
2, 4920, Note_on_c, 0, 67, 75
2, 4943, Note_on_c, 0, 67, 0
2, 5040, Note_on_c, 0, 67, 75
2, 5063, Note_on_c, 0, 67, 0
2, 5160, Note_on_c, 0, 67, 75
2, 5183, Note_on_c, 0, 67, 0
2, 5280, Note_on_c, 0, 69, 75
2, 5303, Note_on_c, 0, 69, 0
2, 5400, Note_on_c, 0, 69, 75
2, 5423, Note_on_c, 0, 69, 0
2, 5520, Note_on_c, 0, 69, 75
2, 5543, Note_on_c, 0, 69, 0
2, 5640, Note_on_c, 0, 69, 75
2, 5663, Note_on_c, 0, 69, 0
2, 5760, Note_on_c, 0, 70, 75
2, 5783, Note_on_c, 0, 70, 0
2, 5880, Note_on_c, 0, 70, 75
2, 5903, Note_on_c, 0, 70, 0
2, 6000, Note_on_c, 0, 70, 75
2, 6023, Note_on_c, 0, 70, 0
2, 6120, Note_on_c, 0, 70, 75
2, 6143, Note_on_c, 0, 70, 0
2, 6240, Note_on_c, 0, 71, 75
2, 6263, Note_on_c, 0, 71, 0
2, 6360, Note_on_c, 0, 71, 75
2, 6383, Note_on_c, 0, 71, 0
2, 6480, Note_on_c, 0, 71, 75
2, 6503, Note_on_c, 0, 71, 0
2, 6600, Note_on_c, 0, 71, 75
2, 6623, Note_on_c, 0, 71, 0
2, 6720, Note_on_c, 0, 72, 75
2, 6840, Note_on_c, 0, 72, 0
2, 6840, Note_on_c, 0, 74, 75
2, 6960, Note_on_c, 0, 74, 0
2, 6960, Note_on_c, 0, 75, 75
2, 6983, Note_on_c, 0, 75, 0
2, 7080, Note_on_c, 0, 74, 75
2, 7103, Note_on_c, 0, 74, 0
2, 7200, Note_on_c, 0, 72, 75
2, 7320, Note_on_c, 0, 72, 0
2, 7320, Note_on_c, 0, 70, 75
2, 7440, Note_on_c, 0, 70, 0
2, 7440, Note_on_c, 0, 69, 62
2, 7560, Note_on_c, 0, 69, 0
2, 7560, Note_on_c, 0, 67, 62
2, 7680, Note_on_c, 0, 67, 0
2, 7680, Note_on_c, 0, 66, 62
2, 7800, Note_on_c, 0, 66, 0
2, 7800, Note_on_c, 0, 63, 62
2, 7920, Note_on_c, 0, 63, 0
2, 7920, Note_on_c, 0, 62, 62
2, 8040, Note_on_c, 0, 62, 0
2, 8040, Note_on_c, 0, 60, 62
2, 8160, Note_on_c, 0, 60, 0
2, 8160, Note_on_c, 0, 58, 62
2, 8400, Note_on_c, 0, 58, 0
2, 8400, Note_on_c, 0, 69, 62
2, 8400, Note_on_c, 0, 75, 62
2, 8640, Note_on_c, 0, 75, 0
2, 8640, Note_on_c, 0, 69, 0
2, 8640, Note_on_c, 0, 70, 62
2, 8640, Note_on_c, 0, 74, 62
2, 8880, Note_on_c, 0, 74, 0
2, 8880, Note_on_c, 0, 70, 0
2, 9360, Note_on_c, 0, 66, 62
2, 9360, Note_on_c, 0, 72, 62
2, 9600, Note_on_c, 0, 72, 0
2, 9600, Note_on_c, 0, 66, 0
2, 9600, Note_on_c, 0, 67, 62
2, 9600, Note_on_c, 0, 70, 62
2, 9840, Note_on_c, 0, 70, 0
2, 9840, Note_on_c, 0, 67, 0
2, 10320, Note_on_c, 0, 63, 62
2, 10320, Note_on_c, 0, 69, 62
2, 10560, Note_on_c, 0, 69, 0
2, 10560, Note_on_c, 0, 63, 0
2, 10800, Note_on_c, 0, 62, 62
2, 10800, Note_on_c, 0, 67, 62
2, 11040, Note_on_c, 0, 67, 0
2, 11040, Note_on_c, 0, 62, 0
2, 11280, Note_on_c, 0, 60, 62
2, 11280, Note_on_c, 0, 66, 62
2, 11520, Note_on_c, 0, 66, 0
2, 11520, Note_on_c, 0, 60, 0
2, 11760, Note_on_c, 0, 62, 62
2, 11760, Note_on_c, 0, 67, 62
2, 12000, Note_on_c, 0, 67, 0
2, 12000, Note_on_c, 0, 62, 0
2, 12000, Note_on_c, 0, 66, 75
2, 12023, Note_on_c, 0, 66, 0
2, 12120, Note_on_c, 0, 66, 75
2, 12143, Note_on_c, 0, 66, 0
2, 12240, Note_on_c, 0, 66, 75
2, 12263, Note_on_c, 0, 66, 0
2, 12360, Note_on_c, 0, 66, 75
2, 12383, Note_on_c, 0, 66, 0
2, 12480, Note_on_c, 0, 67, 75
2, 12503, Note_on_c, 0, 67, 0
2, 12600, Note_on_c, 0, 67, 75
2, 12623, Note_on_c, 0, 67, 0
2, 12720, Note_on_c, 0, 67, 75
2, 12743, Note_on_c, 0, 67, 0
2, 12840, Note_on_c, 0, 67, 75
2, 12863, Note_on_c, 0, 67, 0
2, 12960, Note_on_c, 0, 69, 75
2, 12983, Note_on_c, 0, 69, 0
2, 13080, Note_on_c, 0, 69, 75
2, 13103, Note_on_c, 0, 69, 0
2, 13200, Note_on_c, 0, 69, 75
2, 13223, Note_on_c, 0, 69, 0
2, 13320, Note_on_c, 0, 69, 75
2, 13343, Note_on_c, 0, 69, 0
2, 13440, Note_on_c, 0, 70, 75
2, 13463, Note_on_c, 0, 70, 0
2, 13560, Note_on_c, 0, 70, 75
2, 13583, Note_on_c, 0, 70, 0
2, 13680, Note_on_c, 0, 70, 75
2, 13703, Note_on_c, 0, 70, 0
2, 13800, Note_on_c, 0, 70, 75
2, 13823, Note_on_c, 0, 70, 0
2, 13920, Note_on_c, 0, 71, 75
2, 13943, Note_on_c, 0, 71, 0
2, 14040, Note_on_c, 0, 71, 75
2, 14063, Note_on_c, 0, 71, 0
2, 14160, Note_on_c, 0, 71, 75
2, 14183, Note_on_c, 0, 71, 0
2, 14280, Note_on_c, 0, 71, 75
2, 14303, Note_on_c, 0, 71, 0
2, 14400, Note_on_c, 0, 72, 75
2, 14520, Note_on_c, 0, 72, 0
2, 14520, Note_on_c, 0, 75, 75
2, 14640, Note_on_c, 0, 75, 0
2, 14640, Note_on_c, 0, 79, 75
2, 14663, Note_on_c, 0, 79, 0
2, 14760, Note_on_c, 0, 77, 75
2, 14783, Note_on_c, 0, 77, 0
2, 14880, Note_on_c, 0, 75, 75
2, 15000, Note_on_c, 0, 75, 0
2, 15000, Note_on_c, 0, 74, 75
2, 15120, Note_on_c, 0, 74, 0
2, 15120, Note_on_c, 0, 72, 62
2, 15240, Note_on_c, 0, 72, 0
2, 15240, Note_on_c, 0, 70, 62
2, 15360, Note_on_c, 0, 70, 0
2, 15360, Note_on_c, 0, 69, 62
2, 15480, Note_on_c, 0, 69, 0
2, 15480, Note_on_c, 0, 67, 62
2, 15600, Note_on_c, 0, 67, 0
2, 15600, Note_on_c, 0, 65, 62
2, 15720, Note_on_c, 0, 65, 0
2, 15720, Note_on_c, 0, 63, 62
2, 15840, Note_on_c, 0, 63, 0
2, 15840, Note_on_c, 0, 62, 62
2, 16080, Note_on_c, 0, 62, 0
2, 16080, Note_on_c, 0, 73, 62
2, 16080, Note_on_c, 0, 79, 62
2, 16320, Note_on_c, 0, 79, 0
2, 16320, Note_on_c, 0, 73, 0
2, 16320, Note_on_c, 0, 74, 62
2, 16320, Note_on_c, 0, 77, 62
2, 16320, Note_on_c, 0, 82, 62
2, 16560, Note_on_c, 0, 82, 0
2, 16560, Note_on_c, 0, 77, 0
2, 16560, Note_on_c, 0, 74, 0
2, 17040, Note_on_c, 0, 69, 62
2, 17040, Note_on_c, 0, 75, 62
2, 17280, Note_on_c, 0, 75, 0
2, 17280, Note_on_c, 0, 69, 0
2, 17280, Note_on_c, 0, 71, 62
2, 17280, Note_on_c, 0, 74, 62
2, 17280, Note_on_c, 0, 79, 62
2, 17520, Note_on_c, 0, 79, 0
2, 17520, Note_on_c, 0, 74, 0
2, 17520, Note_on_c, 0, 71, 0
2, 18000, Note_on_c, 0, 66, 75
2, 18000, Note_on_c, 0, 72, 75
2, 18000, Note_on_c, 0, 80, 75
2, 18240, Note_on_c, 0, 80, 0
2, 18240, Note_on_c, 0, 66, 0
2, 18240, Note_on_c, 0, 67, 75
2, 18240, Note_on_c, 0, 79, 75
2, 18480, Note_on_c, 0, 79, 0
2, 18480, Note_on_c, 0, 67, 0
2, 18480, Note_on_c, 0, 72, 0
2, 18960, Note_on_c, 0, 62, 88
2, 18960, Note_on_c, 0, 68, 88
2, 18960, Note_on_c, 0, 77, 88
2, 19200, Note_on_c, 0, 77, 0
2, 19200, Note_on_c, 0, 68, 0
2, 19200, Note_on_c, 0, 62, 0
2, 19200, Note_on_c, 0, 63, 88
2, 19200, Note_on_c, 0, 67, 88
2, 19200, Note_on_c, 0, 75, 88
2, 19440, Note_on_c, 0, 75, 0
2, 19440, Note_on_c, 0, 67, 0
2, 19440, Note_on_c, 0, 63, 0
2, 19920, Note_on_c, 0, 74, 62
2, 19920, Note_on_c, 0, 80, 62
2, 20160, Note_on_c, 0, 80, 0
2, 20160, Note_on_c, 0, 74, 0
2, 20160, Note_on_c, 0, 75, 62
2, 20160, Note_on_c, 0, 79, 62
2, 20160, Note_on_c, 0, 84, 62
2, 20400, Note_on_c, 0, 84, 0
2, 20400, Note_on_c, 0, 79, 0
2, 20400, Note_on_c, 0, 75, 0
2, 20880, Note_on_c, 0, 71, 62
2, 20880, Note_on_c, 0, 77, 62
2, 21120, Note_on_c, 0, 77, 0
2, 21120, Note_on_c, 0, 71, 0
2, 21120, Note_on_c, 0, 73, 62
2, 21120, Note_on_c, 0, 76, 62
2, 21120, Note_on_c, 0, 81, 62
2, 21360, Note_on_c, 0, 81, 0
2, 21360, Note_on_c, 0, 76, 0
2, 21360, Note_on_c, 0, 73, 0
2, 21840, Note_on_c, 0, 68, 88
2, 21840, Note_on_c, 0, 74, 88
2, 21840, Note_on_c, 0, 82, 88
2, 22080, Note_on_c, 0, 82, 0
2, 22080, Note_on_c, 0, 68, 0
2, 22080, Note_on_c, 0, 69, 88
2, 22080, Note_on_c, 0, 81, 88
2, 22320, Note_on_c, 0, 81, 0
2, 22320, Note_on_c, 0, 69, 0
2, 22320, Note_on_c, 0, 74, 0
2, 22800, Note_on_c, 0, 64, 88
2, 22800, Note_on_c, 0, 70, 88
2, 22800, Note_on_c, 0, 79, 88
2, 23040, Note_on_c, 0, 79, 0
2, 23040, Note_on_c, 0, 70, 0
2, 23040, Note_on_c, 0, 64, 0
2, 23040, Note_on_c, 0, 65, 88
2, 23040, Note_on_c, 0, 69, 88
2, 23040, Note_on_c, 0, 77, 88
2, 23280, Note_on_c, 0, 77, 0
2, 23280, Note_on_c, 0, 69, 0
2, 23280, Note_on_c, 0, 65, 0
2, 23760, Note_on_c, 0, 73, 88
2, 23760, Note_on_c, 0, 76, 88
2, 23760, Note_on_c, 0, 82, 88
2, 24000, Note_on_c, 0, 82, 0
2, 24000, Note_on_c, 0, 76, 0
2, 24000, Note_on_c, 0, 73, 0
2, 24240, Note_on_c, 0, 71, 88
2, 24240, Note_on_c, 0, 74, 88
2, 24240, Note_on_c, 0, 81, 88
2, 24480, Note_on_c, 0, 81, 0
2, 24480, Note_on_c, 0, 74, 0
2, 24480, Note_on_c, 0, 71, 0
2, 24720, Note_on_c, 0, 69, 88
2, 24720, Note_on_c, 0, 73, 88
2, 24720, Note_on_c, 0, 79, 88
2, 24960, Note_on_c, 0, 79, 0
2, 24960, Note_on_c, 0, 73, 0
2, 24960, Note_on_c, 0, 69, 0
2, 25200, Note_on_c, 0, 69, 88
2, 25200, Note_on_c, 0, 74, 88
2, 25200, Note_on_c, 0, 77, 88
2, 25440, Note_on_c, 0, 77, 0
2, 25440, Note_on_c, 0, 74, 0
2, 25440, Note_on_c, 0, 69, 0
2, 25680, Note_on_c, 0, 66, 88
2, 25680, Note_on_c, 0, 69, 88
2, 25680, Note_on_c, 0, 75, 88
2, 25920, Note_on_c, 0, 75, 0
2, 25920, Note_on_c, 0, 69, 0
2, 25920, Note_on_c, 0, 66, 0
2, 26160, Note_on_c, 0, 64, 88
2, 26160, Note_on_c, 0, 67, 88
2, 26160, Note_on_c, 0, 74, 88
2, 26400, Note_on_c, 0, 74, 0
2, 26400, Note_on_c, 0, 67, 0
2, 26400, Note_on_c, 0, 64, 0
2, 26640, Note_on_c, 0, 62, 88
2, 26640, Note_on_c, 0, 66, 88
2, 26640, Note_on_c, 0, 72, 88
2, 26880, Note_on_c, 0, 72, 0
2, 26880, Note_on_c, 0, 66, 0
2, 26880, Note_on_c, 0, 62, 0
2, 27120, Note_on_c, 0, 62, 88
2, 27120, Note_on_c, 0, 67, 88
2, 27120, Note_on_c, 0, 70, 88
2, 27360, Note_on_c, 0, 70, 0
2, 27360, Note_on_c, 0, 67, 0
2, 27360, Note_on_c, 0, 62, 0
2, 27600, Note_on_c, 0, 73, 88
2, 27600, Note_on_c, 0, 76, 88
2, 27600, Note_on_c, 0, 82, 88
2, 27840, Note_on_c, 0, 82, 0
2, 27840, Note_on_c, 0, 76, 0
2, 27840, Note_on_c, 0, 73, 0
2, 28080, Note_on_c, 0, 71, 88
2, 28080, Note_on_c, 0, 74, 88
2, 28080, Note_on_c, 0, 81, 88
2, 28320, Note_on_c, 0, 81, 0
2, 28320, Note_on_c, 0, 74, 0
2, 28320, Note_on_c, 0, 71, 0
2, 28560, Note_on_c, 0, 69, 88
2, 28560, Note_on_c, 0, 73, 88
2, 28560, Note_on_c, 0, 79, 88
2, 28800, Note_on_c, 0, 79, 0
2, 28800, Note_on_c, 0, 73, 0
2, 28800, Note_on_c, 0, 69, 0
2, 29040, Note_on_c, 0, 69, 88
2, 29040, Note_on_c, 0, 74, 88
2, 29040, Note_on_c, 0, 77, 88
2, 29280, Note_on_c, 0, 77, 0
2, 29280, Note_on_c, 0, 74, 0
2, 29280, Note_on_c, 0, 69, 0
2, 29520, Note_on_c, 0, 66, 88
2, 29520, Note_on_c, 0, 69, 88
2, 29520, Note_on_c, 0, 75, 88
2, 29760, Note_on_c, 0, 75, 0
2, 29760, Note_on_c, 0, 69, 0
2, 29760, Note_on_c, 0, 66, 0
2, 30000, Note_on_c, 0, 64, 88
2, 30000, Note_on_c, 0, 67, 88
2, 30000, Note_on_c, 0, 74, 88
2, 30240, Note_on_c, 0, 74, 0
2, 30240, Note_on_c, 0, 67, 0
2, 30240, Note_on_c, 0, 64, 0
2, 30480, Note_on_c, 0, 62, 88
2, 30480, Note_on_c, 0, 66, 88
2, 30480, Note_on_c, 0, 72, 88
2, 30720, Note_on_c, 0, 72, 0
2, 30720, Note_on_c, 0, 66, 0
2, 30720, Note_on_c, 0, 62, 0
2, 30960, Note_on_c, 0, 62, 88
2, 30960, Note_on_c, 0, 67, 88
2, 30960, Note_on_c, 0, 70, 88
2, 31200, Note_on_c, 0, 70, 0
2, 31200, Note_on_c, 0, 67, 0
2, 31200, Note_on_c, 0, 62, 0
2, 31440, Note_on_c, 0, 73, 88
2, 31440, Note_on_c, 0, 82, 88
2, 31440, Note_on_c, 0, 85, 88
2, 31680, Note_on_c, 0, 85, 0
2, 31680, Note_on_c, 0, 82, 0
2, 31680, Note_on_c, 0, 73, 0
2, 31680, Note_on_c, 0, 74, 88
2, 31680, Note_on_c, 0, 82, 88
2, 31680, Note_on_c, 0, 86, 88
2, 31920, Note_on_c, 0, 86, 0
2, 31920, Note_on_c, 0, 82, 0
2, 31920, Note_on_c, 0, 74, 0
2, 32400, Note_on_c, 0, 73, 88
2, 32400, Note_on_c, 0, 82, 88
2, 32400, Note_on_c, 0, 85, 88
2, 32640, Note_on_c, 0, 85, 0
2, 32640, Note_on_c, 0, 82, 0
2, 32640, Note_on_c, 0, 73, 0
2, 32640, Note_on_c, 0, 74, 88
2, 32640, Note_on_c, 0, 82, 88
2, 32640, Note_on_c, 0, 86, 88
2, 32880, Note_on_c, 0, 86, 0
2, 32880, Note_on_c, 0, 82, 0
2, 32880, Note_on_c, 0, 74, 0
2, 33360, Note_on_c, 0, 73, 88
2, 33360, Note_on_c, 0, 82, 88
2, 33360, Note_on_c, 0, 85, 88
2, 33600, Note_on_c, 0, 85, 0
2, 33600, Note_on_c, 0, 82, 0
2, 33600, Note_on_c, 0, 73, 0
2, 33600, Note_on_c, 0, 74, 88
2, 33600, Note_on_c, 0, 82, 88
2, 33600, Note_on_c, 0, 86, 88
2, 33840, Note_on_c, 0, 86, 0
2, 33840, Note_on_c, 0, 82, 0
2, 33840, Note_on_c, 0, 74, 0
2, 34320, Note_on_c, 0, 73, 88
2, 34320, Note_on_c, 0, 82, 88
2, 34320, Note_on_c, 0, 85, 88
2, 34560, Note_on_c, 0, 85, 0
2, 34560, Note_on_c, 0, 82, 0
2, 34560, Note_on_c, 0, 73, 0
2, 34560, Note_on_c, 0, 74, 88
2, 34560, Note_on_c, 0, 82, 88
2, 34560, Note_on_c, 0, 86, 88
2, 34800, Note_on_c, 0, 86, 0
2, 34800, Note_on_c, 0, 82, 0
2, 34800, Note_on_c, 0, 74, 0
2, 35280, Note_on_c, 0, 76, 88
2, 35280, Note_on_c, 0, 79, 88
2, 35280, Note_on_c, 0, 85, 88
2, 35520, Note_on_c, 0, 85, 0
2, 35520, Note_on_c, 0, 79, 0
2, 35520, Note_on_c, 0, 76, 0
2, 35520, Note_on_c, 0, 74, 88
2, 35520, Note_on_c, 0, 77, 88
2, 35520, Note_on_c, 0, 86, 88
2, 35760, Note_on_c, 0, 86, 0
2, 35760, Note_on_c, 0, 77, 0
2, 35760, Note_on_c, 0, 74, 0
2, 35760, Note_on_c, 0, 76, 88
2, 35760, Note_on_c, 0, 79, 88
2, 35760, Note_on_c, 0, 85, 88
2, 36000, Note_on_c, 0, 85, 0
2, 36000, Note_on_c, 0, 79, 0
2, 36000, Note_on_c, 0, 76, 0
2, 36000, Note_on_c, 0, 74, 88
2, 36000, Note_on_c, 0, 77, 88
2, 36000, Note_on_c, 0, 86, 88
2, 36240, Note_on_c, 0, 86, 0
2, 36240, Note_on_c, 0, 77, 0
2, 36240, Note_on_c, 0, 74, 0
2, 36240, Note_on_c, 0, 76, 88
2, 36240, Note_on_c, 0, 79, 88
2, 36240, Note_on_c, 0, 85, 88
2, 36480, Note_on_c, 0, 85, 0
2, 36480, Note_on_c, 0, 79, 0
2, 36480, Note_on_c, 0, 76, 0
2, 36480, Note_on_c, 0, 74, 88
2, 36480, Note_on_c, 0, 77, 88
2, 36480, Note_on_c, 0, 86, 88
2, 36720, Note_on_c, 0, 86, 0
2, 36720, Note_on_c, 0, 77, 0
2, 36720, Note_on_c, 0, 74, 0
2, 36720, Note_on_c, 0, 76, 88
2, 36720, Note_on_c, 0, 79, 88
2, 36720, Note_on_c, 0, 85, 88
2, 36960, Note_on_c, 0, 85, 0
2, 36960, Note_on_c, 0, 79, 0
2, 36960, Note_on_c, 0, 76, 0
2, 36960, Note_on_c, 0, 74, 88
2, 36960, Note_on_c, 0, 77, 88
2, 36960, Note_on_c, 0, 86, 88
2, 37200, Note_on_c, 0, 86, 0
2, 37200, Note_on_c, 0, 77, 0
2, 37200, Note_on_c, 0, 74, 0
2, 37200, Note_on_c, 0, 76, 88
2, 37200, Note_on_c, 0, 79, 88
2, 37200, Note_on_c, 0, 85, 88
2, 37440, Note_on_c, 0, 85, 0
2, 37440, Note_on_c, 0, 79, 0
2, 37440, Note_on_c, 0, 76, 0
2, 37440, Note_on_c, 0, 74, 88
2, 37440, Note_on_c, 0, 77, 88
2, 37440, Note_on_c, 0, 86, 88
2, 37680, Note_on_c, 0, 86, 0
2, 37680, Note_on_c, 0, 77, 0
2, 37680, Note_on_c, 0, 74, 0
2, 37680, Note_on_c, 0, 76, 88
2, 37680, Note_on_c, 0, 79, 88
2, 37680, Note_on_c, 0, 85, 88
2, 37920, Note_on_c, 0, 85, 0
2, 37920, Note_on_c, 0, 79, 0
2, 37920, Note_on_c, 0, 76, 0
2, 37920, Note_on_c, 0, 74, 88
2, 37920, Note_on_c, 0, 77, 88
2, 37920, Note_on_c, 0, 86, 88
2, 38160, Note_on_c, 0, 86, 0
2, 38160, Note_on_c, 0, 77, 0
2, 38160, Note_on_c, 0, 74, 0
2, 38160, Note_on_c, 0, 76, 88
2, 38160, Note_on_c, 0, 79, 88
2, 38160, Note_on_c, 0, 85, 88
2, 38400, Note_on_c, 0, 85, 0
2, 38400, Note_on_c, 0, 79, 0
2, 38400, Note_on_c, 0, 76, 0
2, 38400, Note_on_c, 0, 74, 114
2, 38400, Note_on_c, 0, 77, 114
2, 38400, Note_on_c, 0, 86, 114
2, 38520, Note_on_c, 0, 86, 0
2, 38520, Note_on_c, 0, 77, 0
2, 38520, Note_on_c, 0, 74, 0
2, 38520, Note_on_c, 0, 77, 62
2, 38543, Note_on_c, 0, 77, 0
2, 38640, Note_on_c, 0, 77, 62
2, 38663, Note_on_c, 0, 77, 0
2, 38760, Note_on_c, 0, 77, 62
2, 38783, Note_on_c, 0, 77, 0
2, 38880, Note_on_c, 0, 78, 62
2, 38903, Note_on_c, 0, 78, 0
2, 39000, Note_on_c, 0, 78, 62
2, 39023, Note_on_c, 0, 78, 0
2, 39120, Note_on_c, 0, 78, 62
2, 39143, Note_on_c, 0, 78, 0
2, 39240, Note_on_c, 0, 78, 62
2, 39263, Note_on_c, 0, 78, 0
2, 39360, Note_on_c, 0, 79, 75
2, 39383, Note_on_c, 0, 79, 0
2, 39480, Note_on_c, 0, 79, 75
2, 39503, Note_on_c, 0, 79, 0
2, 39600, Note_on_c, 0, 79, 75
2, 39623, Note_on_c, 0, 79, 0
2, 39720, Note_on_c, 0, 79, 75
2, 39743, Note_on_c, 0, 79, 0
2, 39840, Note_on_c, 0, 81, 75
2, 39863, Note_on_c, 0, 81, 0
2, 39960, Note_on_c, 0, 81, 75
2, 39983, Note_on_c, 0, 81, 0
2, 40080, Note_on_c, 0, 81, 75
2, 40103, Note_on_c, 0, 81, 0
2, 40200, Note_on_c, 0, 81, 75
2, 40223, Note_on_c, 0, 81, 0
2, 40320, Note_on_c, 0, 82, 75
2, 40343, Note_on_c, 0, 82, 0
2, 40440, Note_on_c, 0, 82, 75
2, 40463, Note_on_c, 0, 82, 0
2, 40560, Note_on_c, 0, 82, 75
2, 40583, Note_on_c, 0, 82, 0
2, 40680, Note_on_c, 0, 82, 75
2, 40703, Note_on_c, 0, 82, 0
2, 40800, Note_on_c, 0, 83, 75
2, 40823, Note_on_c, 0, 83, 0
2, 40920, Note_on_c, 0, 83, 75
2, 40943, Note_on_c, 0, 83, 0
2, 41040, Note_on_c, 0, 83, 75
2, 41063, Note_on_c, 0, 83, 0
2, 41160, Note_on_c, 0, 83, 75
2, 41183, Note_on_c, 0, 83, 0
2, 41280, Note_on_c, 0, 84, 75
2, 41303, Note_on_c, 0, 84, 0
2, 41400, Note_on_c, 0, 86, 75
2, 41423, Note_on_c, 0, 86, 0
2, 41520, Note_on_c, 0, 87, 75
2, 41543, Note_on_c, 0, 87, 0
2, 41640, Note_on_c, 0, 86, 75
2, 41663, Note_on_c, 0, 86, 0
2, 41760, Note_on_c, 0, 84, 75
2, 41783, Note_on_c, 0, 84, 0
2, 41880, Note_on_c, 0, 82, 75
2, 41903, Note_on_c, 0, 82, 0
2, 42000, Note_on_c, 0, 81, 62
2, 42023, Note_on_c, 0, 81, 0
2, 42120, Note_on_c, 0, 79, 62
2, 42143, Note_on_c, 0, 79, 0
2, 42240, Note_on_c, 0, 78, 62
2, 42360, Note_on_c, 0, 78, 0
2, 42360, Note_on_c, 0, 79, 62
2, 42480, Note_on_c, 0, 79, 0
2, 42480, Note_on_c, 0, 81, 62
2, 42600, Note_on_c, 0, 81, 0
2, 42600, Note_on_c, 0, 79, 62
2, 42720, Note_on_c, 0, 79, 0
2, 42720, Note_on_c, 0, 78, 62
2, 42743, Note_on_c, 0, 78, 0
2, 42840, Note_on_c, 0, 78, 62
2, 42863, Note_on_c, 0, 78, 0
2, 42960, Note_on_c, 0, 78, 62
2, 42983, Note_on_c, 0, 78, 0
2, 43080, Note_on_c, 0, 78, 62
2, 43103, Note_on_c, 0, 78, 0
2, 43200, Note_on_c, 0, 79, 75
2, 43223, Note_on_c, 0, 79, 0
2, 43320, Note_on_c, 0, 79, 75
2, 43343, Note_on_c, 0, 79, 0
2, 43440, Note_on_c, 0, 79, 75
2, 43463, Note_on_c, 0, 79, 0
2, 43560, Note_on_c, 0, 79, 75
2, 43583, Note_on_c, 0, 79, 0
2, 43680, Note_on_c, 0, 81, 75
2, 43703, Note_on_c, 0, 81, 0
2, 43800, Note_on_c, 0, 81, 75
2, 43823, Note_on_c, 0, 81, 0
2, 43920, Note_on_c, 0, 81, 75
2, 43943, Note_on_c, 0, 81, 0
2, 44040, Note_on_c, 0, 81, 75
2, 44063, Note_on_c, 0, 81, 0
2, 44160, Note_on_c, 0, 82, 75
2, 44183, Note_on_c, 0, 82, 0
2, 44280, Note_on_c, 0, 82, 75
2, 44303, Note_on_c, 0, 82, 0
2, 44400, Note_on_c, 0, 82, 75
2, 44423, Note_on_c, 0, 82, 0
2, 44520, Note_on_c, 0, 82, 75
2, 44543, Note_on_c, 0, 82, 0
2, 44640, Note_on_c, 0, 83, 75
2, 44663, Note_on_c, 0, 83, 0
2, 44760, Note_on_c, 0, 83, 75
2, 44783, Note_on_c, 0, 83, 0
2, 44880, Note_on_c, 0, 83, 75
2, 44903, Note_on_c, 0, 83, 0
2, 45000, Note_on_c, 0, 83, 75
2, 45023, Note_on_c, 0, 83, 0
2, 45120, Note_on_c, 0, 84, 75
2, 45143, Note_on_c, 0, 84, 0
2, 45240, Note_on_c, 0, 86, 75
2, 45263, Note_on_c, 0, 86, 0
2, 45360, Note_on_c, 0, 87, 75
2, 45383, Note_on_c, 0, 87, 0
2, 45480, Note_on_c, 0, 86, 75
2, 45503, Note_on_c, 0, 86, 0
2, 45600, Note_on_c, 0, 84, 75
2, 45623, Note_on_c, 0, 84, 0
2, 45720, Note_on_c, 0, 82, 75
2, 45743, Note_on_c, 0, 82, 0
2, 45840, Note_on_c, 0, 81, 62
2, 45863, Note_on_c, 0, 81, 0
2, 45960, Note_on_c, 0, 79, 62
2, 45983, Note_on_c, 0, 79, 0
2, 46080, Note_on_c, 0, 78, 62
2, 46103, Note_on_c, 0, 78, 0
2, 46200, Note_on_c, 0, 75, 62
2, 46223, Note_on_c, 0, 75, 0
2, 46320, Note_on_c, 0, 74, 62
2, 46343, Note_on_c, 0, 74, 0
2, 46440, Note_on_c, 0, 72, 62
2, 46463, Note_on_c, 0, 72, 0
2, 46560, Note_on_c, 0, 70, 62
2, 46607, Note_on_c, 0, 70, 0
2, 46800, Note_on_c, 0, 84, 62
2, 46800, Note_on_c, 0, 87, 62
2, 46800, Note_on_c, 0, 93, 62
2, 46823, Note_on_c, 0, 93, 0
2, 46823, Note_on_c, 0, 87, 0
2, 46823, Note_on_c, 0, 84, 0
2, 46920, Note_on_c, 0, 84, 62
2, 46920, Note_on_c, 0, 87, 62
2, 46920, Note_on_c, 0, 93, 62
2, 46943, Note_on_c, 0, 93, 0
2, 46943, Note_on_c, 0, 87, 0
2, 46943, Note_on_c, 0, 84, 0
2, 47040, Note_on_c, 0, 86, 62
2, 47040, Note_on_c, 0, 94, 62
2, 47087, Note_on_c, 0, 94, 0
2, 47087, Note_on_c, 0, 86, 0
2, 47760, Note_on_c, 0, 81, 62
2, 47760, Note_on_c, 0, 84, 62
2, 47760, Note_on_c, 0, 90, 62
2, 47783, Note_on_c, 0, 90, 0
2, 47783, Note_on_c, 0, 84, 0
2, 47783, Note_on_c, 0, 81, 0
2, 47880, Note_on_c, 0, 81, 62
2, 47880, Note_on_c, 0, 84, 62
2, 47880, Note_on_c, 0, 90, 62
2, 47903, Note_on_c, 0, 90, 0
2, 47903, Note_on_c, 0, 84, 0
2, 47903, Note_on_c, 0, 81, 0
2, 48000, Note_on_c, 0, 82, 62
2, 48000, Note_on_c, 0, 91, 62
2, 48047, Note_on_c, 0, 91, 0
2, 48047, Note_on_c, 0, 82, 0
2, 48720, Note_on_c, 0, 80, 62
2, 48720, Note_on_c, 0, 87, 62
2, 48720, Note_on_c, 0, 90, 62
2, 48720, Note_on_c, 0, 92, 62
2, 48743, Note_on_c, 0, 92, 0
2, 48743, Note_on_c, 0, 80, 0
2, 48743, Note_on_c, 0, 87, 0
2, 48743, Note_on_c, 0, 90, 0
2, 48840, Note_on_c, 0, 80, 62
2, 48840, Note_on_c, 0, 87, 62
2, 48840, Note_on_c, 0, 90, 62
2, 48840, Note_on_c, 0, 92, 62
2, 48863, Note_on_c, 0, 92, 0
2, 48863, Note_on_c, 0, 80, 0
2, 48863, Note_on_c, 0, 87, 0
2, 48863, Note_on_c, 0, 90, 0
2, 48960, Note_on_c, 0, 79, 62
2, 48960, Note_on_c, 0, 87, 62
2, 48960, Note_on_c, 0, 91, 62
2, 49007, Note_on_c, 0, 91, 0
2, 49007, Note_on_c, 0, 87, 0
2, 49007, Note_on_c, 0, 79, 0
2, 49200, Note_on_c, 0, 81, 62
2, 49200, Note_on_c, 0, 87, 62
2, 49200, Note_on_c, 0, 90, 62
2, 49200, Note_on_c, 0, 93, 62
2, 49223, Note_on_c, 0, 93, 0
2, 49223, Note_on_c, 0, 81, 0
2, 49223, Note_on_c, 0, 87, 0
2, 49223, Note_on_c, 0, 90, 0
2, 49320, Note_on_c, 0, 81, 62
2, 49320, Note_on_c, 0, 87, 62
2, 49320, Note_on_c, 0, 90, 62
2, 49320, Note_on_c, 0, 93, 62
2, 49343, Note_on_c, 0, 93, 0
2, 49343, Note_on_c, 0, 81, 0
2, 49343, Note_on_c, 0, 87, 0
2, 49343, Note_on_c, 0, 90, 0
2, 49440, Note_on_c, 0, 82, 62
2, 49440, Note_on_c, 0, 87, 62
2, 49440, Note_on_c, 0, 91, 62
2, 49440, Note_on_c, 0, 94, 62
2, 49487, Note_on_c, 0, 94, 0
2, 49487, Note_on_c, 0, 82, 0
2, 49487, Note_on_c, 0, 87, 0
2, 49487, Note_on_c, 0, 91, 0
2, 49680, Note_on_c, 0, 83, 62
2, 49680, Note_on_c, 0, 91, 62
2, 49680, Note_on_c, 0, 95, 62
2, 49703, Note_on_c, 0, 95, 0
2, 49703, Note_on_c, 0, 91, 0
2, 49703, Note_on_c, 0, 83, 0
2, 49800, Note_on_c, 0, 83, 62
2, 49800, Note_on_c, 0, 91, 62
2, 49800, Note_on_c, 0, 95, 62
2, 49823, Note_on_c, 0, 95, 0
2, 49823, Note_on_c, 0, 91, 0
2, 49823, Note_on_c, 0, 83, 0
2, 49920, Note_on_c, 0, 84, 62
2, 49920, Note_on_c, 0, 91, 62
2, 49920, Note_on_c, 0, 96, 62
2, 49967, Note_on_c, 0, 96, 0
2, 49967, Note_on_c, 0, 91, 0
2, 49967, Note_on_c, 0, 84, 0
2, 50640, Note_on_c, 0, 84, 62
2, 50640, Note_on_c, 0, 87, 62
2, 50640, Note_on_c, 0, 93, 62
2, 50663, Note_on_c, 0, 93, 0
2, 50663, Note_on_c, 0, 87, 0
2, 50663, Note_on_c, 0, 84, 0
2, 50760, Note_on_c, 0, 84, 62
2, 50760, Note_on_c, 0, 87, 62
2, 50760, Note_on_c, 0, 93, 62
2, 50783, Note_on_c, 0, 93, 0
2, 50783, Note_on_c, 0, 87, 0
2, 50783, Note_on_c, 0, 84, 0
2, 50880, Note_on_c, 0, 86, 62
2, 50880, Note_on_c, 0, 94, 62
2, 50927, Note_on_c, 0, 94, 0
2, 50927, Note_on_c, 0, 86, 0
2, 51600, Note_on_c, 0, 81, 62
2, 51600, Note_on_c, 0, 84, 62
2, 51600, Note_on_c, 0, 90, 62
2, 51623, Note_on_c, 0, 90, 0
2, 51623, Note_on_c, 0, 84, 0
2, 51623, Note_on_c, 0, 81, 0
2, 51720, Note_on_c, 0, 81, 62
2, 51720, Note_on_c, 0, 84, 62
2, 51720, Note_on_c, 0, 90, 62
2, 51743, Note_on_c, 0, 90, 0
2, 51743, Note_on_c, 0, 84, 0
2, 51743, Note_on_c, 0, 81, 0
2, 51840, Note_on_c, 0, 82, 62
2, 51840, Note_on_c, 0, 91, 62
2, 51887, Note_on_c, 0, 91, 0
2, 51887, Note_on_c, 0, 82, 0
2, 52560, Note_on_c, 0, 80, 62
2, 52560, Note_on_c, 0, 87, 62
2, 52560, Note_on_c, 0, 90, 62
2, 52560, Note_on_c, 0, 92, 62
2, 52583, Note_on_c, 0, 92, 0
2, 52583, Note_on_c, 0, 80, 0
2, 52583, Note_on_c, 0, 87, 0
2, 52583, Note_on_c, 0, 90, 0
2, 52680, Note_on_c, 0, 80, 62
2, 52680, Note_on_c, 0, 87, 62
2, 52680, Note_on_c, 0, 90, 62
2, 52680, Note_on_c, 0, 92, 62
2, 52703, Note_on_c, 0, 92, 0
2, 52703, Note_on_c, 0, 80, 0
2, 52703, Note_on_c, 0, 87, 0
2, 52703, Note_on_c, 0, 90, 0
2, 52800, Note_on_c, 0, 79, 62
2, 52800, Note_on_c, 0, 87, 62
2, 52800, Note_on_c, 0, 91, 62
2, 52847, Note_on_c, 0, 91, 0
2, 52847, Note_on_c, 0, 87, 0
2, 52847, Note_on_c, 0, 79, 0
2, 53040, Note_on_c, 0, 81, 62
2, 53040, Note_on_c, 0, 87, 62
2, 53040, Note_on_c, 0, 90, 62
2, 53040, Note_on_c, 0, 93, 62
2, 53063, Note_on_c, 0, 93, 0
2, 53063, Note_on_c, 0, 81, 0
2, 53063, Note_on_c, 0, 87, 0
2, 53063, Note_on_c, 0, 90, 0
2, 53160, Note_on_c, 0, 81, 62
2, 53160, Note_on_c, 0, 87, 62
2, 53160, Note_on_c, 0, 90, 62
2, 53160, Note_on_c, 0, 93, 62
2, 53183, Note_on_c, 0, 93, 0
2, 53183, Note_on_c, 0, 81, 0
2, 53183, Note_on_c, 0, 87, 0
2, 53183, Note_on_c, 0, 90, 0
2, 53280, Note_on_c, 0, 82, 62
2, 53280, Note_on_c, 0, 87, 62
2, 53280, Note_on_c, 0, 91, 62
2, 53280, Note_on_c, 0, 94, 62
2, 53327, Note_on_c, 0, 94, 0
2, 53327, Note_on_c, 0, 82, 0
2, 53327, Note_on_c, 0, 87, 0
2, 53327, Note_on_c, 0, 91, 0
2, 53520, Note_on_c, 0, 83, 62
2, 53520, Note_on_c, 0, 91, 62
2, 53520, Note_on_c, 0, 95, 62
2, 53543, Note_on_c, 0, 95, 0
2, 53543, Note_on_c, 0, 91, 0
2, 53543, Note_on_c, 0, 83, 0
2, 53640, Note_on_c, 0, 83, 62
2, 53640, Note_on_c, 0, 91, 62
2, 53640, Note_on_c, 0, 95, 62
2, 53663, Note_on_c, 0, 95, 0
2, 53663, Note_on_c, 0, 91, 0
2, 53663, Note_on_c, 0, 83, 0
2, 53760, Note_on_c, 0, 84, 62
2, 53760, Note_on_c, 0, 91, 62
2, 53760, Note_on_c, 0, 96, 62
2, 53807, Note_on_c, 0, 96, 0
2, 53807, Note_on_c, 0, 91, 0
2, 53807, Note_on_c, 0, 84, 0
2, 54000, Note_on_c, 0, 83, 62
2, 54000, Note_on_c, 0, 91, 62
2, 54000, Note_on_c, 0, 95, 62
2, 54023, Note_on_c, 0, 95, 0
2, 54023, Note_on_c, 0, 91, 0
2, 54023, Note_on_c, 0, 83, 0
2, 54120, Note_on_c, 0, 83, 62
2, 54120, Note_on_c, 0, 91, 62
2, 54120, Note_on_c, 0, 95, 62
2, 54143, Note_on_c, 0, 95, 0
2, 54143, Note_on_c, 0, 91, 0
2, 54143, Note_on_c, 0, 83, 0
2, 54240, Note_on_c, 0, 84, 62
2, 54240, Note_on_c, 0, 91, 62
2, 54240, Note_on_c, 0, 96, 62
2, 54287, Note_on_c, 0, 96, 0
2, 54287, Note_on_c, 0, 91, 0
2, 54287, Note_on_c, 0, 84, 0
2, 54480, Note_on_c, 0, 83, 75
2, 54480, Note_on_c, 0, 91, 75
2, 54480, Note_on_c, 0, 95, 75
2, 54503, Note_on_c, 0, 95, 0
2, 54503, Note_on_c, 0, 91, 0
2, 54503, Note_on_c, 0, 83, 0
2, 54600, Note_on_c, 0, 83, 75
2, 54600, Note_on_c, 0, 91, 75
2, 54600, Note_on_c, 0, 95, 75
2, 54623, Note_on_c, 0, 95, 0
2, 54623, Note_on_c, 0, 91, 0
2, 54623, Note_on_c, 0, 83, 0
2, 54720, Note_on_c, 0, 84, 75
2, 54720, Note_on_c, 0, 91, 75
2, 54720, Note_on_c, 0, 96, 75
2, 54767, Note_on_c, 0, 96, 0
2, 54767, Note_on_c, 0, 91, 0
2, 54767, Note_on_c, 0, 84, 0
2, 54960, Note_on_c, 0, 83, 75
2, 54960, Note_on_c, 0, 91, 75
2, 54960, Note_on_c, 0, 95, 75
2, 54983, Note_on_c, 0, 95, 0
2, 54983, Note_on_c, 0, 91, 0
2, 54983, Note_on_c, 0, 83, 0
2, 55080, Note_on_c, 0, 83, 75
2, 55080, Note_on_c, 0, 91, 75
2, 55080, Note_on_c, 0, 95, 75
2, 55103, Note_on_c, 0, 95, 0
2, 55103, Note_on_c, 0, 91, 0
2, 55103, Note_on_c, 0, 83, 0
2, 55200, Note_on_c, 0, 84, 75
2, 55200, Note_on_c, 0, 91, 75
2, 55200, Note_on_c, 0, 96, 75
2, 55247, Note_on_c, 0, 96, 0
2, 55247, Note_on_c, 0, 91, 0
2, 55247, Note_on_c, 0, 84, 0
2, 55440, Note_on_c, 0, 83, 75
2, 55440, Note_on_c, 0, 91, 75
2, 55440, Note_on_c, 0, 95, 75
2, 55463, Note_on_c, 0, 95, 0
2, 55463, Note_on_c, 0, 91, 0
2, 55463, Note_on_c, 0, 83, 0
2, 55560, Note_on_c, 0, 83, 75
2, 55560, Note_on_c, 0, 91, 75
2, 55560, Note_on_c, 0, 95, 75
2, 55583, Note_on_c, 0, 95, 0
2, 55583, Note_on_c, 0, 91, 0
2, 55583, Note_on_c, 0, 83, 0
2, 55680, Note_on_c, 0, 84, 75
2, 55680, Note_on_c, 0, 91, 75
2, 55680, Note_on_c, 0, 96, 75
2, 55727, Note_on_c, 0, 96, 0
2, 55727, Note_on_c, 0, 91, 0
2, 55727, Note_on_c, 0, 84, 0
2, 55920, Note_on_c, 0, 84, 75
2, 55920, Note_on_c, 0, 91, 75
2, 55920, Note_on_c, 0, 96, 75
2, 55943, Note_on_c, 0, 96, 0
2, 55943, Note_on_c, 0, 91, 0
2, 55943, Note_on_c, 0, 84, 0
2, 56040, Note_on_c, 0, 84, 75
2, 56040, Note_on_c, 0, 91, 75
2, 56040, Note_on_c, 0, 96, 75
2, 56063, Note_on_c, 0, 96, 0
2, 56063, Note_on_c, 0, 91, 0
2, 56063, Note_on_c, 0, 84, 0
2, 56160, Note_on_c, 0, 85, 75
2, 56160, Note_on_c, 0, 91, 75
2, 56160, Note_on_c, 0, 97, 75
2, 56207, Note_on_c, 0, 97, 0
2, 56207, Note_on_c, 0, 91, 0
2, 56207, Note_on_c, 0, 85, 0
2, 56400, Note_on_c, 0, 84, 75
2, 56400, Note_on_c, 0, 91, 75
2, 56400, Note_on_c, 0, 96, 75
2, 56423, Note_on_c, 0, 96, 0
2, 56423, Note_on_c, 0, 91, 0
2, 56423, Note_on_c, 0, 84, 0
2, 56520, Note_on_c, 0, 84, 75
2, 56520, Note_on_c, 0, 91, 75
2, 56520, Note_on_c, 0, 96, 75
2, 56543, Note_on_c, 0, 96, 0
2, 56543, Note_on_c, 0, 91, 0
2, 56543, Note_on_c, 0, 84, 0
2, 56640, Note_on_c, 0, 85, 75
2, 56640, Note_on_c, 0, 91, 75
2, 56640, Note_on_c, 0, 97, 75
2, 56687, Note_on_c, 0, 97, 0
2, 56687, Note_on_c, 0, 91, 0
2, 56687, Note_on_c, 0, 85, 0
2, 56880, Note_on_c, 0, 84, 75
2, 56880, Note_on_c, 0, 91, 75
2, 56880, Note_on_c, 0, 96, 75
2, 56903, Note_on_c, 0, 96, 0
2, 56903, Note_on_c, 0, 91, 0
2, 56903, Note_on_c, 0, 84, 0
2, 57000, Note_on_c, 0, 84, 75
2, 57000, Note_on_c, 0, 91, 75
2, 57000, Note_on_c, 0, 96, 75
2, 57023, Note_on_c, 0, 96, 0
2, 57023, Note_on_c, 0, 91, 0
2, 57023, Note_on_c, 0, 84, 0
2, 57120, Note_on_c, 0, 85, 75
2, 57120, Note_on_c, 0, 91, 75
2, 57120, Note_on_c, 0, 97, 75
2, 57167, Note_on_c, 0, 97, 0
2, 57167, Note_on_c, 0, 91, 0
2, 57167, Note_on_c, 0, 85, 0
2, 57360, Note_on_c, 0, 84, 75
2, 57360, Note_on_c, 0, 91, 75
2, 57360, Note_on_c, 0, 96, 75
2, 57383, Note_on_c, 0, 96, 0
2, 57383, Note_on_c, 0, 91, 0
2, 57383, Note_on_c, 0, 84, 0
2, 57480, Note_on_c, 0, 84, 75
2, 57480, Note_on_c, 0, 91, 75
2, 57480, Note_on_c, 0, 96, 75
2, 57503, Note_on_c, 0, 96, 0
2, 57503, Note_on_c, 0, 91, 0
2, 57503, Note_on_c, 0, 84, 0
2, 57600, Note_on_c, 0, 85, 88
2, 57600, Note_on_c, 0, 91, 88
2, 57600, Note_on_c, 0, 97, 88
2, 57840, Note_on_c, 0, 97, 0
2, 57840, Note_on_c, 0, 91, 0
2, 57840, Note_on_c, 0, 85, 0
2, 57840, Note_on_c, 0, 73, 88
2, 57863, Note_on_c, 0, 73, 0
2, 57960, Note_on_c, 0, 73, 88
2, 57983, Note_on_c, 0, 73, 0
2, 58080, Note_on_c, 0, 74, 88
2, 58200, Note_on_c, 0, 74, 0
2, 58200, Note_on_c, 0, 75, 88
2, 58320, Note_on_c, 0, 75, 0
2, 58320, Note_on_c, 0, 74, 88
2, 58343, Note_on_c, 0, 74, 0
2, 58440, Note_on_c, 0, 72, 88
2, 58463, Note_on_c, 0, 72, 0
2, 58560, Note_on_c, 0, 70, 88
2, 58583, Note_on_c, 0, 70, 0
2, 58680, Note_on_c, 0, 69, 88
2, 58703, Note_on_c, 0, 69, 0
2, 58800, Note_on_c, 0, 67, 88
2, 58823, Note_on_c, 0, 67, 0
2, 58920, Note_on_c, 0, 70, 88
2, 58943, Note_on_c, 0, 70, 0
2, 59040, Note_on_c, 0, 69, 88
2, 59063, Note_on_c, 0, 69, 0
2, 59160, Note_on_c, 0, 67, 88
2, 59183, Note_on_c, 0, 67, 0
2, 59280, Note_on_c, 0, 66, 88
2, 59303, Note_on_c, 0, 66, 0
2, 59400, Note_on_c, 0, 69, 88
2, 59423, Note_on_c, 0, 69, 0
2, 59520, Note_on_c, 0, 67, 88
2, 59543, Note_on_c, 0, 67, 0
2, 59640, Note_on_c, 0, 66, 88
2, 59663, Note_on_c, 0, 66, 0
2, 59760, Note_on_c, 0, 67, 88
2, 59783, Note_on_c, 0, 67, 0
2, 59880, Note_on_c, 0, 70, 88
2, 59903, Note_on_c, 0, 70, 0
2, 60000, Note_on_c, 0, 75, 88
2, 60480, Note_on_c, 0, 75, 0
2, 60480, Note_on_c, 0, 74, 88
2, 60960, Note_on_c, 0, 74, 0
2, 60960, Note_on_c, 0, 78, 88
2, 61440, Note_on_c, 0, 78, 0
2, 61440, Note_on_c, 0, 67, 88
2, 61440, Note_on_c, 0, 79, 88
2, 61560, Note_on_c, 0, 79, 0
2, 61560, Note_on_c, 0, 67, 0
2, 61560, Note_on_c, 0, 69, 88
2, 61583, Note_on_c, 0, 69, 0
2, 61680, Note_on_c, 0, 70, 88
2, 61703, Note_on_c, 0, 70, 0
2, 61800, Note_on_c, 0, 72, 88
2, 61823, Note_on_c, 0, 72, 0
2, 61920, Note_on_c, 0, 74, 88
2, 62040, Note_on_c, 0, 74, 0
2, 62040, Note_on_c, 0, 75, 88
2, 62160, Note_on_c, 0, 75, 0
2, 62160, Note_on_c, 0, 74, 88
2, 62183, Note_on_c, 0, 74, 0
2, 62280, Note_on_c, 0, 72, 88
2, 62303, Note_on_c, 0, 72, 0
2, 62400, Note_on_c, 0, 70, 88
2, 62423, Note_on_c, 0, 70, 0
2, 62520, Note_on_c, 0, 69, 88
2, 62543, Note_on_c, 0, 69, 0
2, 62640, Note_on_c, 0, 67, 88
2, 62663, Note_on_c, 0, 67, 0
2, 62760, Note_on_c, 0, 70, 88
2, 62783, Note_on_c, 0, 70, 0
2, 62880, Note_on_c, 0, 69, 88
2, 62903, Note_on_c, 0, 69, 0
2, 63000, Note_on_c, 0, 67, 88
2, 63023, Note_on_c, 0, 67, 0
2, 63120, Note_on_c, 0, 66, 88
2, 63143, Note_on_c, 0, 66, 0
2, 63240, Note_on_c, 0, 69, 88
2, 63263, Note_on_c, 0, 69, 0
2, 63360, Note_on_c, 0, 67, 88
2, 63383, Note_on_c, 0, 67, 0
2, 63480, Note_on_c, 0, 66, 88
2, 63503, Note_on_c, 0, 66, 0
2, 63600, Note_on_c, 0, 67, 88
2, 63623, Note_on_c, 0, 67, 0
2, 63720, Note_on_c, 0, 70, 88
2, 63743, Note_on_c, 0, 70, 0
2, 63840, Note_on_c, 0, 75, 88
2, 64320, Note_on_c, 0, 75, 0
2, 64320, Note_on_c, 0, 74, 88
2, 64800, Note_on_c, 0, 74, 0
2, 64800, Note_on_c, 0, 78, 88
2, 65280, Note_on_c, 0, 78, 0
2, 65280, Note_on_c, 0, 67, 88
2, 65280, Note_on_c, 0, 79, 88
2, 65400, Note_on_c, 0, 79, 0
2, 65400, Note_on_c, 0, 67, 0
2, 65400, Note_on_c, 0, 69, 88
2, 65423, Note_on_c, 0, 69, 0
2, 65520, Note_on_c, 0, 70, 88
2, 65543, Note_on_c, 0, 70, 0
2, 65640, Note_on_c, 0, 72, 88
2, 65663, Note_on_c, 0, 72, 0
2, 65760, Note_on_c, 0, 74, 88
2, 65880, Note_on_c, 0, 74, 0
2, 65880, Note_on_c, 0, 75, 88
2, 66000, Note_on_c, 0, 75, 0
2, 66000, Note_on_c, 0, 74, 88
2, 66023, Note_on_c, 0, 74, 0
2, 66120, Note_on_c, 0, 73, 88
2, 66143, Note_on_c, 0, 73, 0
2, 66240, Note_on_c, 0, 74, 88
2, 66263, Note_on_c, 0, 74, 0
2, 66360, Note_on_c, 0, 75, 88
2, 66383, Note_on_c, 0, 75, 0
2, 66480, Note_on_c, 0, 74, 88
2, 66503, Note_on_c, 0, 74, 0
2, 66600, Note_on_c, 0, 73, 88
2, 66623, Note_on_c, 0, 73, 0
2, 66720, Note_on_c, 0, 74, 88
2, 66743, Note_on_c, 0, 74, 0
2, 66840, Note_on_c, 0, 72, 88
2, 66863, Note_on_c, 0, 72, 0
2, 66960, Note_on_c, 0, 70, 88
2, 66983, Note_on_c, 0, 70, 0
2, 67080, Note_on_c, 0, 69, 88
2, 67103, Note_on_c, 0, 69, 0
2, 67200, Note_on_c, 0, 79, 88
2, 67223, Note_on_c, 0, 79, 0
2, 67320, Note_on_c, 0, 81, 88
2, 67343, Note_on_c, 0, 81, 0
2, 67440, Note_on_c, 0, 82, 88
2, 67463, Note_on_c, 0, 82, 0
2, 67560, Note_on_c, 0, 84, 88
2, 67583, Note_on_c, 0, 84, 0
2, 67680, Note_on_c, 0, 86, 88
2, 67800, Note_on_c, 0, 86, 0
2, 67800, Note_on_c, 0, 87, 88
2, 67920, Note_on_c, 0, 87, 0
2, 67920, Note_on_c, 0, 86, 88
2, 67943, Note_on_c, 0, 86, 0
2, 68040, Note_on_c, 0, 85, 88
2, 68063, Note_on_c, 0, 85, 0
2, 68160, Note_on_c, 0, 86, 88
2, 68183, Note_on_c, 0, 86, 0
2, 68280, Note_on_c, 0, 87, 88
2, 68303, Note_on_c, 0, 87, 0
2, 68400, Note_on_c, 0, 86, 88
2, 68423, Note_on_c, 0, 86, 0
2, 68520, Note_on_c, 0, 85, 88
2, 68543, Note_on_c, 0, 85, 0
2, 68640, Note_on_c, 0, 86, 88
2, 68663, Note_on_c, 0, 86, 0
2, 68760, Note_on_c, 0, 84, 88
2, 68783, Note_on_c, 0, 84, 0
2, 68880, Note_on_c, 0, 78, 88
2, 68880, Note_on_c, 0, 82, 88
2, 68903, Note_on_c, 0, 82, 0
2, 68903, Note_on_c, 0, 78, 0
2, 69000, Note_on_c, 0, 81, 88
2, 69023, Note_on_c, 0, 81, 0
2, 69120, Note_on_c, 0, 79, 75
2, 69240, Note_on_c, 0, 79, 0
2, 69240, Note_on_c, 0, 69, 75
2, 69263, Note_on_c, 0, 69, 0
2, 69360, Note_on_c, 0, 70, 75
2, 69383, Note_on_c, 0, 70, 0
2, 69480, Note_on_c, 0, 72, 75
2, 69503, Note_on_c, 0, 72, 0
2, 69600, Note_on_c, 0, 74, 75
2, 69720, Note_on_c, 0, 74, 0
2, 69720, Note_on_c, 0, 75, 75
2, 69840, Note_on_c, 0, 75, 0
2, 69840, Note_on_c, 0, 74, 75
2, 69863, Note_on_c, 0, 74, 0
2, 69960, Note_on_c, 0, 73, 75
2, 69983, Note_on_c, 0, 73, 0
2, 70080, Note_on_c, 0, 74, 75
2, 70103, Note_on_c, 0, 74, 0
2, 70200, Note_on_c, 0, 75, 75
2, 70223, Note_on_c, 0, 75, 0
2, 70320, Note_on_c, 0, 74, 75
2, 70343, Note_on_c, 0, 74, 0
2, 70440, Note_on_c, 0, 73, 75
2, 70463, Note_on_c, 0, 73, 0
2, 70560, Note_on_c, 0, 74, 75
2, 70583, Note_on_c, 0, 74, 0
2, 70680, Note_on_c, 0, 72, 75
2, 70703, Note_on_c, 0, 72, 0
2, 70800, Note_on_c, 0, 70, 75
2, 70823, Note_on_c, 0, 70, 0
2, 70920, Note_on_c, 0, 69, 75
2, 70943, Note_on_c, 0, 69, 0
2, 71040, Note_on_c, 0, 79, 75
2, 71063, Note_on_c, 0, 79, 0
2, 71160, Note_on_c, 0, 81, 75
2, 71183, Note_on_c, 0, 81, 0
2, 71280, Note_on_c, 0, 82, 75
2, 71303, Note_on_c, 0, 82, 0
2, 71400, Note_on_c, 0, 84, 75
2, 71423, Note_on_c, 0, 84, 0
2, 71520, Note_on_c, 0, 86, 75
2, 71640, Note_on_c, 0, 86, 0
2, 71640, Note_on_c, 0, 87, 75
2, 71760, Note_on_c, 0, 87, 0
2, 71760, Note_on_c, 0, 86, 75
2, 71783, Note_on_c, 0, 86, 0
2, 71880, Note_on_c, 0, 85, 75
2, 71903, Note_on_c, 0, 85, 0
2, 72000, Note_on_c, 0, 86, 75
2, 72023, Note_on_c, 0, 86, 0
2, 72120, Note_on_c, 0, 87, 75
2, 72143, Note_on_c, 0, 87, 0
2, 72240, Note_on_c, 0, 86, 75
2, 72263, Note_on_c, 0, 86, 0
2, 72360, Note_on_c, 0, 85, 75
2, 72383, Note_on_c, 0, 85, 0
2, 72480, Note_on_c, 0, 86, 75
2, 72503, Note_on_c, 0, 86, 0
2, 72600, Note_on_c, 0, 84, 75
2, 72623, Note_on_c, 0, 84, 0
2, 72720, Note_on_c, 0, 78, 75
2, 72720, Note_on_c, 0, 82, 75
2, 72743, Note_on_c, 0, 82, 0
2, 72743, Note_on_c, 0, 78, 0
2, 72840, Note_on_c, 0, 81, 75
2, 72863, Note_on_c, 0, 81, 0
2, 72960, Note_on_c, 0, 79, 49
2, 72983, Note_on_c, 0, 79, 0
2, 73080, Note_on_c, 0, 79, 49
2, 73103, Note_on_c, 0, 79, 0
2, 73200, Note_on_c, 0, 79, 49
2, 73223, Note_on_c, 0, 79, 0
2, 73320, Note_on_c, 0, 79, 49
2, 73343, Note_on_c, 0, 79, 0
2, 73440, Note_on_c, 0, 79, 49
2, 73463, Note_on_c, 0, 79, 0
2, 73560, Note_on_c, 0, 79, 49
2, 73583, Note_on_c, 0, 79, 0
2, 73680, Note_on_c, 0, 79, 49
2, 73703, Note_on_c, 0, 79, 0
2, 73800, Note_on_c, 0, 79, 49
2, 73823, Note_on_c, 0, 79, 0
2, 73920, Note_on_c, 0, 79, 49
2, 73943, Note_on_c, 0, 79, 0
2, 74040, Note_on_c, 0, 79, 49
2, 74063, Note_on_c, 0, 79, 0
2, 74160, Note_on_c, 0, 79, 49
2, 74183, Note_on_c, 0, 79, 0
2, 74280, Note_on_c, 0, 79, 49
2, 74303, Note_on_c, 0, 79, 0
2, 74400, Note_on_c, 0, 79, 49
2, 74423, Note_on_c, 0, 79, 0
2, 74520, Note_on_c, 0, 79, 49
2, 74543, Note_on_c, 0, 79, 0
2, 74640, Note_on_c, 0, 79, 49
2, 74663, Note_on_c, 0, 79, 0
2, 74760, Note_on_c, 0, 79, 49
2, 74783, Note_on_c, 0, 79, 0
2, 74880, Note_on_c, 0, 70, 62
2, 74880, Note_on_c, 0, 74, 62
2, 74880, Note_on_c, 0, 79, 62
2, 75120, Note_on_c, 0, 79, 0
2, 75120, Note_on_c, 0, 74, 0
2, 75120, Note_on_c, 0, 70, 0
2, 75120, Note_on_c, 0, 81, 62
2, 75120, Note_on_c, 0, 87, 62
2, 75360, Note_on_c, 0, 87, 0
2, 75360, Note_on_c, 0, 81, 0
2, 75360, Note_on_c, 0, 82, 62
2, 75360, Note_on_c, 0, 86, 62
2, 75600, Note_on_c, 0, 86, 0
2, 75600, Note_on_c, 0, 82, 0
2, 76080, Note_on_c, 0, 81, 62
2, 76080, Note_on_c, 0, 84, 62
2, 76320, Note_on_c, 0, 84, 0
2, 76320, Note_on_c, 0, 81, 0
2, 76320, Note_on_c, 0, 79, 62
2, 76320, Note_on_c, 0, 82, 62
2, 76560, Note_on_c, 0, 82, 0
2, 76560, Note_on_c, 0, 79, 0
2, 76560, Note_on_c, 0, 69, 62
2, 76560, Note_on_c, 0, 75, 62
2, 76560, Note_on_c, 0, 81, 62
2, 76800, Note_on_c, 0, 81, 0
2, 76800, Note_on_c, 0, 75, 0
2, 76800, Note_on_c, 0, 69, 0
2, 76800, Note_on_c, 0, 70, 62
2, 76800, Note_on_c, 0, 74, 62
2, 76800, Note_on_c, 0, 79, 62
2, 77040, Note_on_c, 0, 79, 0
2, 77040, Note_on_c, 0, 74, 0
2, 77040, Note_on_c, 0, 70, 0
2, 77040, Note_on_c, 0, 69, 75
2, 77040, Note_on_c, 0, 75, 75
2, 77040, Note_on_c, 0, 81, 75
2, 77280, Note_on_c, 0, 81, 0
2, 77280, Note_on_c, 0, 75, 0
2, 77280, Note_on_c, 0, 69, 0
2, 77280, Note_on_c, 0, 70, 49
2, 77280, Note_on_c, 0, 74, 49
2, 77280, Note_on_c, 0, 79, 49
2, 77520, Note_on_c, 0, 79, 0
2, 77520, Note_on_c, 0, 74, 0
2, 77520, Note_on_c, 0, 70, 0
2, 77520, Note_on_c, 0, 69, 75
2, 77520, Note_on_c, 0, 75, 75
2, 77520, Note_on_c, 0, 81, 75
2, 77760, Note_on_c, 0, 81, 0
2, 77760, Note_on_c, 0, 75, 0
2, 77760, Note_on_c, 0, 69, 0
2, 77760, Note_on_c, 0, 70, 49
2, 77760, Note_on_c, 0, 74, 49
2, 77760, Note_on_c, 0, 79, 49
2, 78000, Note_on_c, 0, 79, 0
2, 78000, Note_on_c, 0, 74, 0
2, 78000, Note_on_c, 0, 70, 0
2, 78000, Note_on_c, 0, 69, 75
2, 78000, Note_on_c, 0, 75, 75
2, 78000, Note_on_c, 0, 81, 75
2, 78240, Note_on_c, 0, 81, 0
2, 78240, Note_on_c, 0, 75, 0
2, 78240, Note_on_c, 0, 69, 0
2, 78240, Note_on_c, 0, 70, 49
2, 78240, Note_on_c, 0, 74, 49
2, 78240, Note_on_c, 0, 79, 49
2, 78480, Note_on_c, 0, 79, 0
2, 78480, Note_on_c, 0, 74, 0
2, 78480, Note_on_c, 0, 70, 0
2, 78480, Note_on_c, 0, 69, 75
2, 78480, Note_on_c, 0, 75, 75
2, 78480, Note_on_c, 0, 81, 75
2, 78720, Note_on_c, 0, 81, 0
2, 78720, Note_on_c, 0, 75, 0
2, 78720, Note_on_c, 0, 69, 0
2, 78720, Note_on_c, 0, 70, 49
2, 78720, Note_on_c, 0, 74, 49
2, 78720, Note_on_c, 0, 79, 49
2, 78960, Note_on_c, 0, 79, 0
2, 78960, Note_on_c, 0, 74, 0
2, 78960, Note_on_c, 0, 70, 0
2, 78960, Note_on_c, 0, 81, 75
2, 78960, Note_on_c, 0, 87, 75
2, 78960, Note_on_c, 0, 93, 75
2, 79200, Note_on_c, 0, 93, 0
2, 79200, Note_on_c, 0, 87, 0
2, 79200, Note_on_c, 0, 81, 0
2, 79200, Note_on_c, 0, 82, 49
2, 79200, Note_on_c, 0, 86, 49
2, 79200, Note_on_c, 0, 91, 49
2, 79440, Note_on_c, 0, 91, 0
2, 79440, Note_on_c, 0, 86, 0
2, 79440, Note_on_c, 0, 82, 0
2, 79440, Note_on_c, 0, 81, 75
2, 79440, Note_on_c, 0, 87, 75
2, 79440, Note_on_c, 0, 93, 75
2, 79680, Note_on_c, 0, 93, 0
2, 79680, Note_on_c, 0, 87, 0
2, 79680, Note_on_c, 0, 81, 0
2, 79680, Note_on_c, 0, 82, 49
2, 79680, Note_on_c, 0, 86, 49
2, 79680, Note_on_c, 0, 91, 49
2, 79920, Note_on_c, 0, 91, 0
2, 79920, Note_on_c, 0, 86, 0
2, 79920, Note_on_c, 0, 82, 0
2, 79920, Note_on_c, 0, 81, 75
2, 79920, Note_on_c, 0, 87, 75
2, 79920, Note_on_c, 0, 93, 75
2, 80160, Note_on_c, 0, 93, 0
2, 80160, Note_on_c, 0, 87, 0
2, 80160, Note_on_c, 0, 81, 0
2, 80160, Note_on_c, 0, 82, 49
2, 80160, Note_on_c, 0, 86, 49
2, 80160, Note_on_c, 0, 91, 49
2, 80400, Note_on_c, 0, 91, 0
2, 80400, Note_on_c, 0, 86, 0
2, 80400, Note_on_c, 0, 82, 0
2, 80400, Note_on_c, 0, 81, 75
2, 80400, Note_on_c, 0, 87, 75
2, 80400, Note_on_c, 0, 93, 75
2, 80640, Note_on_c, 0, 93, 0
2, 80640, Note_on_c, 0, 87, 0
2, 80640, Note_on_c, 0, 81, 0
2, 80640, Note_on_c, 0, 82, 49
2, 80640, Note_on_c, 0, 86, 49
2, 80640, Note_on_c, 0, 91, 49
2, 80760, Note_on_c, 0, 91, 0
2, 80760, Note_on_c, 0, 86, 0
2, 80760, Note_on_c, 0, 82, 0
2, 80760, Note_on_c, 0, 91, 49
2, 80783, Note_on_c, 0, 91, 0
2, 80880, Note_on_c, 0, 89, 49
2, 80903, Note_on_c, 0, 89, 0
2, 81000, Note_on_c, 0, 87, 49
2, 81023, Note_on_c, 0, 87, 0
2, 81120, Note_on_c, 0, 86, 49
2, 81143, Note_on_c, 0, 86, 0
2, 81240, Note_on_c, 0, 84, 49
2, 81263, Note_on_c, 0, 84, 0
2, 81360, Note_on_c, 0, 82, 49
2, 81383, Note_on_c, 0, 82, 0
2, 81480, Note_on_c, 0, 81, 49
2, 81503, Note_on_c, 0, 81, 0
2, 81720, Note_on_c, 0, 79, 49
2, 81743, Note_on_c, 0, 79, 0
2, 81840, Note_on_c, 0, 77, 49
2, 81863, Note_on_c, 0, 77, 0
2, 81960, Note_on_c, 0, 75, 49
2, 81983, Note_on_c, 0, 75, 0
2, 82080, Note_on_c, 0, 74, 49
2, 82103, Note_on_c, 0, 74, 0
2, 82200, Note_on_c, 0, 72, 49
2, 82223, Note_on_c, 0, 72, 0
2, 82320, Note_on_c, 0, 70, 49
2, 82343, Note_on_c, 0, 70, 0
2, 82440, Note_on_c, 0, 69, 49
2, 82463, Note_on_c, 0, 69, 0
2, 82680, Note_on_c, 0, 67, 49
2, 82703, Note_on_c, 0, 67, 0
2, 82800, Note_on_c, 0, 65, 49
2, 82823, Note_on_c, 0, 65, 0
2, 82920, Note_on_c, 0, 63, 49
2, 82943, Note_on_c, 0, 63, 0
2, 83040, Note_on_c, 0, 62, 49
2, 83063, Note_on_c, 0, 62, 0
2, 83160, Note_on_c, 0, 60, 49
2, 83183, Note_on_c, 0, 60, 0
2, 83280, Note_on_c, 0, 58, 49
2, 83303, Note_on_c, 0, 58, 0
2, 83400, Note_on_c, 0, 57, 49
2, 83423, Note_on_c, 0, 57, 0
2, 83640, Note_on_c, 0, 55, 49
2, 83663, Note_on_c, 0, 55, 0
2, 83760, Note_on_c, 0, 53, 49
2, 83783, Note_on_c, 0, 53, 0
2, 83880, Note_on_c, 0, 51, 49
2, 83903, Note_on_c, 0, 51, 0
2, 84000, Note_on_c, 0, 50, 49
2, 84023, Note_on_c, 0, 50, 0
2, 84120, Note_on_c, 0, 48, 49
2, 84143, Note_on_c, 0, 48, 0
2, 84240, Note_on_c, 0, 46, 49
2, 84263, Note_on_c, 0, 46, 0
2, 84360, Note_on_c, 0, 45, 49
2, 84383, Note_on_c, 0, 45, 0
2, 84480, Note_on_c, 0, 43, 62
2, 84503, Note_on_c, 0, 43, 0
2, 84600, Note_on_c, 0, 45, 62
2, 84623, Note_on_c, 0, 45, 0
2, 84720, Note_on_c, 0, 46, 62
2, 84743, Note_on_c, 0, 46, 0
2, 84840, Note_on_c, 0, 50, 62
2, 84863, Note_on_c, 0, 50, 0
2, 84960, Note_on_c, 0, 55, 62
2, 84983, Note_on_c, 0, 55, 0
2, 85080, Note_on_c, 0, 57, 62
2, 85103, Note_on_c, 0, 57, 0
2, 85200, Note_on_c, 0, 58, 62
2, 85223, Note_on_c, 0, 58, 0
2, 85320, Note_on_c, 0, 62, 62
2, 85343, Note_on_c, 0, 62, 0
2, 85440, Note_on_c, 0, 67, 62
2, 85463, Note_on_c, 0, 67, 0
2, 85560, Note_on_c, 0, 69, 62
2, 85583, Note_on_c, 0, 69, 0
2, 85680, Note_on_c, 0, 70, 62
2, 85703, Note_on_c, 0, 70, 0
2, 85800, Note_on_c, 0, 74, 62
2, 85823, Note_on_c, 0, 74, 0
2, 85920, Note_on_c, 0, 79, 62
2, 85943, Note_on_c, 0, 79, 0
2, 86040, Note_on_c, 0, 81, 62
2, 86063, Note_on_c, 0, 81, 0
2, 86160, Note_on_c, 0, 82, 62
2, 86183, Note_on_c, 0, 82, 0
2, 86280, Note_on_c, 0, 86, 62
2, 86303, Note_on_c, 0, 86, 0
2, 86400, Control_c, 0, 64, 127
2, 86400, Note_on_c, 0, 79, 62
2, 86400, Note_on_c, 0, 81, 62
2, 86400, Note_on_c, 0, 84, 62
2, 86400, Note_on_c, 0, 90, 62
2, 86480, Note_on_c, 0, 90, 0
2, 86480, Note_on_c, 0, 79, 0
2, 86480, Note_on_c, 0, 81, 0
2, 86480, Note_on_c, 0, 84, 0
2, 86480, Note_on_c, 0, 91, 62
2, 86559, Note_on_c, 0, 91, 0
2, 86559, Note_on_c, 0, 79, 62
2, 86559, Note_on_c, 0, 81, 62
2, 86559, Note_on_c, 0, 84, 62
2, 86559, Note_on_c, 0, 90, 62
2, 86640, Note_on_c, 0, 90, 0
2, 86640, Note_on_c, 0, 79, 0
2, 86640, Note_on_c, 0, 81, 0
2, 86640, Note_on_c, 0, 84, 0
2, 86640, Note_on_c, 0, 91, 62
2, 86720, Note_on_c, 0, 91, 0
2, 86720, Note_on_c, 0, 79, 62
2, 86720, Note_on_c, 0, 81, 62
2, 86720, Note_on_c, 0, 84, 62
2, 86720, Note_on_c, 0, 90, 62
2, 86799, Note_on_c, 0, 90, 0
2, 86799, Note_on_c, 0, 79, 0
2, 86799, Note_on_c, 0, 81, 0
2, 86799, Note_on_c, 0, 84, 0
2, 86799, Note_on_c, 0, 91, 62
2, 86880, Note_on_c, 0, 91, 0
2, 86880, Note_on_c, 0, 79, 62
2, 86880, Note_on_c, 0, 81, 62
2, 86880, Note_on_c, 0, 84, 62
2, 86880, Note_on_c, 0, 90, 62
2, 86960, Note_on_c, 0, 90, 0
2, 86960, Note_on_c, 0, 79, 0
2, 86960, Note_on_c, 0, 81, 0
2, 86960, Note_on_c, 0, 84, 0
2, 86960, Note_on_c, 0, 91, 62
2, 87039, Note_on_c, 0, 91, 0
2, 87039, Note_on_c, 0, 79, 62
2, 87039, Note_on_c, 0, 81, 62
2, 87039, Note_on_c, 0, 84, 62
2, 87039, Note_on_c, 0, 90, 62
2, 87120, Note_on_c, 0, 90, 0
2, 87120, Note_on_c, 0, 79, 0
2, 87120, Note_on_c, 0, 81, 0
2, 87120, Note_on_c, 0, 84, 0
2, 87120, Note_on_c, 0, 91, 62
2, 87200, Note_on_c, 0, 91, 0
2, 87200, Note_on_c, 0, 79, 62
2, 87200, Note_on_c, 0, 81, 62
2, 87200, Note_on_c, 0, 84, 62
2, 87200, Note_on_c, 0, 90, 62
2, 87279, Note_on_c, 0, 90, 0
2, 87279, Note_on_c, 0, 79, 0
2, 87279, Note_on_c, 0, 81, 0
2, 87279, Note_on_c, 0, 84, 0
2, 87279, Note_on_c, 0, 91, 62
2, 87360, Note_on_c, 0, 91, 0
2, 87360, Note_on_c, 0, 79, 62
2, 87360, Note_on_c, 0, 81, 62
2, 87360, Note_on_c, 0, 84, 62
2, 87360, Note_on_c, 0, 90, 62
2, 87440, Note_on_c, 0, 90, 0
2, 87440, Note_on_c, 0, 79, 0
2, 87440, Note_on_c, 0, 81, 0
2, 87440, Note_on_c, 0, 84, 0
2, 87440, Note_on_c, 0, 91, 62
2, 87519, Note_on_c, 0, 91, 0
2, 87519, Note_on_c, 0, 79, 62
2, 87519, Note_on_c, 0, 81, 62
2, 87519, Note_on_c, 0, 84, 62
2, 87519, Note_on_c, 0, 90, 62
2, 87600, Note_on_c, 0, 90, 0
2, 87600, Note_on_c, 0, 79, 0
2, 87600, Note_on_c, 0, 81, 0
2, 87600, Note_on_c, 0, 84, 0
2, 87600, Note_on_c, 0, 91, 62
2, 87680, Note_on_c, 0, 91, 0
2, 87680, Note_on_c, 0, 79, 62
2, 87680, Note_on_c, 0, 81, 62
2, 87680, Note_on_c, 0, 84, 62
2, 87680, Note_on_c, 0, 90, 62
2, 87759, Note_on_c, 0, 90, 0
2, 87759, Note_on_c, 0, 79, 0
2, 87759, Note_on_c, 0, 81, 0
2, 87759, Note_on_c, 0, 84, 0
2, 87759, Note_on_c, 0, 91, 62
2, 87840, Note_on_c, 0, 91, 0
2, 87840, Note_on_c, 0, 79, 62
2, 87840, Note_on_c, 0, 81, 62
2, 87840, Note_on_c, 0, 84, 62
2, 87840, Note_on_c, 0, 90, 62
2, 87920, Note_on_c, 0, 90, 0
2, 87920, Note_on_c, 0, 79, 0
2, 87920, Note_on_c, 0, 81, 0
2, 87920, Note_on_c, 0, 84, 0
2, 87920, Note_on_c, 0, 91, 62
2, 87999, Note_on_c, 0, 91, 0
2, 87999, Note_on_c, 0, 79, 62
2, 87999, Note_on_c, 0, 81, 62
2, 87999, Note_on_c, 0, 84, 62
2, 87999, Note_on_c, 0, 90, 62
2, 88080, Note_on_c, 0, 90, 0
2, 88080, Note_on_c, 0, 79, 0
2, 88080, Note_on_c, 0, 81, 0
2, 88080, Note_on_c, 0, 84, 0
2, 88080, Control_c, 0, 64, 0
2, 88080, Note_on_c, 0, 91, 62
2, 88160, Note_on_c, 0, 91, 0
2, 88160, Note_on_c, 0, 88, 62
2, 88239, Note_on_c, 0, 88, 0
2, 88239, Note_on_c, 0, 90, 62
2, 88320, Note_on_c, 0, 90, 0
2, 88320, Note_on_c, 0, 82, 62
2, 88320, Note_on_c, 0, 86, 62
2, 88320, Note_on_c, 0, 91, 62
2, 88560, Note_on_c, 0, 91, 0
2, 88560, Note_on_c, 0, 86, 0
2, 88560, Note_on_c, 0, 82, 0
2, 88800, Note_on_c, 0, 70, 62
2, 88800, Note_on_c, 0, 74, 62
2, 88800, Note_on_c, 0, 79, 62
2, 89040, Note_on_c, 0, 79, 0
2, 89040, Note_on_c, 0, 74, 0
2, 89040, Note_on_c, 0, 70, 0
2, 89280, Note_on_c, 0, 79, 62
2, 89280, Note_on_c, 0, 82, 62
2, 89280, Note_on_c, 0, 86, 62
2, 89280, Note_on_c, 0, 91, 62
2, 89760, Note_on_c, 0, 91, 0
2, 89760, Note_on_c, 0, 79, 0
2, 89760, Note_on_c, 0, 82, 0
2, 89760, Note_on_c, 0, 86, 0
2, 89760, Control_c, 0, 64, 127
2, 92640, Control_c, 0, 64, 0
2, 92640, End_track
3, 0, Start_track
3, 0, Title_t, "Grand Piano"
3, 0, Program_c, 0, 0
3, 0, Control_c, 0, 7, 115
3, 0, Control_c, 0, 10, 79
3, 46800, Note_on_c, 0, 67, 62
3, 46847, Note_on_c, 0, 67, 0
3, 47040, Note_on_c, 0, 79, 62
3, 47087, Note_on_c, 0, 79, 0
3, 47760, Note_on_c, 0, 63, 62
3, 47807, Note_on_c, 0, 63, 0
3, 48000, Note_on_c, 0, 75, 62
3, 48047, Note_on_c, 0, 75, 0
3, 48720, Note_on_c, 0, 60, 62
3, 48767, Note_on_c, 0, 60, 0
3, 48960, Note_on_c, 0, 72, 62
3, 49007, Note_on_c, 0, 72, 0
3, 49680, Note_on_c, 0, 63, 62
3, 49727, Note_on_c, 0, 63, 0
3, 49920, Note_on_c, 0, 75, 62
3, 49967, Note_on_c, 0, 75, 0
3, 50640, Note_on_c, 0, 67, 62
3, 50687, Note_on_c, 0, 67, 0
3, 50880, Note_on_c, 0, 79, 62
3, 50927, Note_on_c, 0, 79, 0
3, 51600, Note_on_c, 0, 63, 62
3, 51647, Note_on_c, 0, 63, 0
3, 51840, Note_on_c, 0, 75, 62
3, 51887, Note_on_c, 0, 75, 0
3, 52560, Note_on_c, 0, 60, 62
3, 52607, Note_on_c, 0, 60, 0
3, 52800, Note_on_c, 0, 72, 62
3, 52847, Note_on_c, 0, 72, 0
3, 53520, Note_on_c, 0, 63, 62
3, 53567, Note_on_c, 0, 63, 0
3, 53760, Note_on_c, 0, 75, 62
3, 53807, Note_on_c, 0, 75, 0
3, 60000, Note_on_c, 0, 63, 88
3, 60023, Note_on_c, 0, 63, 0
3, 60120, Note_on_c, 0, 67, 88
3, 60143, Note_on_c, 0, 67, 0
3, 60240, Note_on_c, 0, 69, 88
3, 60263, Note_on_c, 0, 69, 0
3, 60360, Note_on_c, 0, 72, 88
3, 60383, Note_on_c, 0, 72, 0
3, 60480, Note_on_c, 0, 70, 88
3, 60503, Note_on_c, 0, 70, 0
3, 60600, Note_on_c, 0, 69, 88
3, 60623, Note_on_c, 0, 69, 0
3, 60720, Note_on_c, 0, 70, 88
3, 60743, Note_on_c, 0, 70, 0
3, 60840, Note_on_c, 0, 67, 88
3, 60863, Note_on_c, 0, 67, 0
3, 60960, Note_on_c, 0, 72, 88
3, 60983, Note_on_c, 0, 72, 0
3, 61080, Note_on_c, 0, 70, 88
3, 61103, Note_on_c, 0, 70, 0
3, 61200, Note_on_c, 0, 72, 88
3, 61223, Note_on_c, 0, 72, 0
3, 61320, Note_on_c, 0, 67, 88
3, 61343, Note_on_c, 0, 67, 0
3, 63840, Note_on_c, 0, 63, 88
3, 63863, Note_on_c, 0, 63, 0
3, 63960, Note_on_c, 0, 67, 88
3, 63983, Note_on_c, 0, 67, 0
3, 64080, Note_on_c, 0, 69, 88
3, 64103, Note_on_c, 0, 69, 0
3, 64200, Note_on_c, 0, 72, 88
3, 64223, Note_on_c, 0, 72, 0
3, 64320, Note_on_c, 0, 70, 88
3, 64343, Note_on_c, 0, 70, 0
3, 64440, Note_on_c, 0, 69, 88
3, 64463, Note_on_c, 0, 69, 0
3, 64560, Note_on_c, 0, 70, 88
3, 64583, Note_on_c, 0, 70, 0
3, 64680, Note_on_c, 0, 67, 88
3, 64703, Note_on_c, 0, 67, 0
3, 64800, Note_on_c, 0, 72, 88
3, 64823, Note_on_c, 0, 72, 0
3, 64920, Note_on_c, 0, 70, 88
3, 64943, Note_on_c, 0, 70, 0
3, 65040, Note_on_c, 0, 72, 88
3, 65063, Note_on_c, 0, 72, 0
3, 65160, Note_on_c, 0, 67, 88
3, 65183, Note_on_c, 0, 67, 0
3, 72960, Note_on_c, 0, 79, 62
3, 73200, Note_on_c, 0, 79, 0
3, 73200, Note_on_c, 0, 81, 62
3, 73200, Note_on_c, 0, 87, 62
3, 73440, Note_on_c, 0, 87, 0
3, 73440, Note_on_c, 0, 81, 0
3, 73440, Note_on_c, 0, 82, 62
3, 73440, Note_on_c, 0, 86, 62
3, 73680, Note_on_c, 0, 86, 0
3, 73680, Note_on_c, 0, 82, 0
3, 74160, Note_on_c, 0, 81, 62
3, 74160, Note_on_c, 0, 84, 62
3, 74400, Note_on_c, 0, 84, 0
3, 74400, Note_on_c, 0, 81, 0
3, 74400, Note_on_c, 0, 79, 62
3, 74400, Note_on_c, 0, 82, 62
3, 74640, Note_on_c, 0, 82, 0
3, 74640, Note_on_c, 0, 79, 0
3, 74640, Note_on_c, 0, 69, 62
3, 74640, Note_on_c, 0, 75, 62
3, 74640, Note_on_c, 0, 81, 62
3, 74880, Note_on_c, 0, 81, 0
3, 74880, Note_on_c, 0, 75, 0
3, 74880, Note_on_c, 0, 69, 0
3, 81600, Note_on_c, 0, 79, 62
3, 81647, Note_on_c, 0, 79, 0
3, 81840, Note_on_c, 0, 69, 62
3, 81887, Note_on_c, 0, 69, 0
3, 82080, Note_on_c, 0, 70, 62
3, 82127, Note_on_c, 0, 70, 0
3, 82320, Note_on_c, 0, 66, 62
3, 82367, Note_on_c, 0, 66, 0
3, 82560, Note_on_c, 0, 67, 62
3, 82607, Note_on_c, 0, 67, 0
3, 85920, Note_on_c, 0, 70, 62
3, 85920, Note_on_c, 0, 74, 62
3, 85967, Note_on_c, 0, 74, 0
3, 85967, Note_on_c, 0, 70, 0
3, 86160, Note_on_c, 0, 74, 62
3, 86160, Note_on_c, 0, 79, 62
3, 86207, Note_on_c, 0, 79, 0
3, 86207, Note_on_c, 0, 74, 0
3, 86400, Control_c, 0, 64, 127
3, 86400, Note_on_c, 0, 67, 62
3, 86400, Note_on_c, 0, 69, 62
3, 86400, Note_on_c, 0, 72, 62
3, 86480, Note_on_c, 0, 72, 0
3, 86480, Note_on_c, 0, 69, 0
3, 86480, Note_on_c, 0, 67, 0
3, 86480, Note_on_c, 0, 78, 62
3, 86559, Note_on_c, 0, 78, 0
3, 86559, Note_on_c, 0, 67, 62
3, 86559, Note_on_c, 0, 69, 62
3, 86559, Note_on_c, 0, 72, 62
3, 86640, Note_on_c, 0, 72, 0
3, 86640, Note_on_c, 0, 69, 0
3, 86640, Note_on_c, 0, 67, 0
3, 86640, Note_on_c, 0, 78, 62
3, 86720, Note_on_c, 0, 78, 0
3, 86720, Note_on_c, 0, 67, 62
3, 86720, Note_on_c, 0, 69, 62
3, 86720, Note_on_c, 0, 72, 62
3, 86799, Note_on_c, 0, 72, 0
3, 86799, Note_on_c, 0, 69, 0
3, 86799, Note_on_c, 0, 67, 0
3, 86799, Note_on_c, 0, 78, 62
3, 86880, Note_on_c, 0, 78, 0
3, 86880, Note_on_c, 0, 67, 62
3, 86880, Note_on_c, 0, 69, 62
3, 86880, Note_on_c, 0, 72, 62
3, 86960, Note_on_c, 0, 72, 0
3, 86960, Note_on_c, 0, 69, 0
3, 86960, Note_on_c, 0, 67, 0
3, 86960, Note_on_c, 0, 78, 62
3, 87039, Note_on_c, 0, 78, 0
3, 87039, Note_on_c, 0, 67, 62
3, 87039, Note_on_c, 0, 69, 62
3, 87039, Note_on_c, 0, 72, 62
3, 87120, Note_on_c, 0, 72, 0
3, 87120, Note_on_c, 0, 69, 0
3, 87120, Note_on_c, 0, 67, 0
3, 87120, Note_on_c, 0, 78, 62
3, 87200, Note_on_c, 0, 78, 0
3, 87200, Note_on_c, 0, 67, 62
3, 87200, Note_on_c, 0, 69, 62
3, 87200, Note_on_c, 0, 72, 62
3, 87279, Note_on_c, 0, 72, 0
3, 87279, Note_on_c, 0, 69, 0
3, 87279, Note_on_c, 0, 67, 0
3, 87279, Note_on_c, 0, 78, 62
3, 87360, Note_on_c, 0, 78, 0
3, 87360, Note_on_c, 0, 67, 62
3, 87360, Note_on_c, 0, 69, 62
3, 87360, Note_on_c, 0, 72, 62
3, 87440, Note_on_c, 0, 72, 0
3, 87440, Note_on_c, 0, 69, 0
3, 87440, Note_on_c, 0, 67, 0
3, 87440, Note_on_c, 0, 78, 62
3, 87519, Note_on_c, 0, 78, 0
3, 87519, Note_on_c, 0, 67, 62
3, 87519, Note_on_c, 0, 69, 62
3, 87519, Note_on_c, 0, 72, 62
3, 87600, Note_on_c, 0, 72, 0
3, 87600, Note_on_c, 0, 69, 0
3, 87600, Note_on_c, 0, 67, 0
3, 87600, Note_on_c, 0, 78, 62
3, 87680, Note_on_c, 0, 78, 0
3, 87680, Note_on_c, 0, 67, 62
3, 87680, Note_on_c, 0, 69, 62
3, 87680, Note_on_c, 0, 72, 62
3, 87759, Note_on_c, 0, 72, 0
3, 87759, Note_on_c, 0, 69, 0
3, 87759, Note_on_c, 0, 67, 0
3, 87759, Note_on_c, 0, 78, 62
3, 87840, Note_on_c, 0, 78, 0
3, 87840, Note_on_c, 0, 67, 62
3, 87840, Note_on_c, 0, 69, 62
3, 87840, Note_on_c, 0, 72, 62
3, 87920, Note_on_c, 0, 72, 0
3, 87920, Note_on_c, 0, 69, 0
3, 87920, Note_on_c, 0, 67, 0
3, 87920, Note_on_c, 0, 78, 62
3, 87999, Note_on_c, 0, 78, 0
3, 87999, Note_on_c, 0, 67, 62
3, 87999, Note_on_c, 0, 69, 62
3, 87999, Note_on_c, 0, 72, 62
3, 88080, Note_on_c, 0, 72, 0
3, 88080, Note_on_c, 0, 69, 0
3, 88080, Note_on_c, 0, 67, 0
3, 88080, Note_on_c, 0, 78, 62
3, 88160, Note_on_c, 0, 78, 0
3, 88160, Note_on_c, 0, 67, 62
3, 88160, Note_on_c, 0, 69, 62
3, 88160, Note_on_c, 0, 72, 62
3, 88239, Note_on_c, 0, 72, 0
3, 88239, Note_on_c, 0, 69, 0
3, 88239, Note_on_c, 0, 67, 0
3, 88239, Control_c, 0, 64, 0
3, 88239, Note_on_c, 0, 78, 62
3, 88320, Note_on_c, 0, 78, 0
3, 88320, Note_on_c, 0, 67, 62
3, 88320, Note_on_c, 0, 70, 62
3, 88320, Note_on_c, 0, 74, 62
3, 88320, Note_on_c, 0, 79, 62
3, 88560, Note_on_c, 0, 79, 0
3, 88560, Note_on_c, 0, 67, 0
3, 88560, Note_on_c, 0, 70, 0
3, 88560, Note_on_c, 0, 74, 0
3, 88800, Note_on_c, 0, 55, 62
3, 88800, Note_on_c, 0, 62, 62
3, 88800, Note_on_c, 0, 67, 62
3, 89040, Note_on_c, 0, 67, 0
3, 89040, Note_on_c, 0, 62, 0
3, 89040, Note_on_c, 0, 55, 0
3, 89280, Note_on_c, 0, 67, 62
3, 89280, Note_on_c, 0, 70, 62
3, 89280, Note_on_c, 0, 74, 62
3, 89760, Note_on_c, 0, 74, 0
3, 89760, Note_on_c, 0, 70, 0
3, 89760, Note_on_c, 0, 67, 0
3, 89760, End_track
4, 0, Start_track
4, 0, Title_t, "Grand Piano"
4, 0, Program_c, 0, 0
4, 0, Control_c, 0, 7, 115
4, 0, Control_c, 0, 10, 41
4, 480, Note_on_c, 0, 55, 54
4, 720, Note_on_c, 0, 55, 0
4, 720, Note_on_c, 0, 60, 54
4, 720, Note_on_c, 0, 67, 54
4, 960, Note_on_c, 0, 60, 0
4, 960, Note_on_c, 0, 62, 54
4, 1200, Note_on_c, 0, 62, 0
4, 1200, Note_on_c, 0, 67, 0
4, 1440, Note_on_c, 0, 51, 54
4, 1680, Note_on_c, 0, 51, 0
4, 1680, Note_on_c, 0, 57, 54
4, 1680, Note_on_c, 0, 63, 54
4, 1920, Note_on_c, 0, 57, 0
4, 1920, Note_on_c, 0, 58, 54
4, 2160, Note_on_c, 0, 58, 0
4, 2160, Note_on_c, 0, 63, 0
4, 2400, Note_on_c, 0, 48, 54
4, 2640, Note_on_c, 0, 48, 0
4, 2640, Note_on_c, 0, 60, 54
4, 2880, Note_on_c, 0, 60, 0
4, 2880, Note_on_c, 0, 50, 54
4, 3120, Note_on_c, 0, 50, 0
4, 3120, Note_on_c, 0, 58, 54
4, 3360, Note_on_c, 0, 58, 0
4, 3360, Note_on_c, 0, 51, 54
4, 3600, Note_on_c, 0, 51, 0
4, 3600, Note_on_c, 0, 57, 54
4, 3840, Note_on_c, 0, 57, 0
4, 3840, Note_on_c, 0, 50, 54
4, 4080, Note_on_c, 0, 50, 0
4, 4080, Note_on_c, 0, 58, 54
4, 4320, Note_on_c, 0, 58, 0
4, 4320, Note_on_c, 0, 57, 67
4, 4560, Note_on_c, 0, 57, 0
4, 4560, Note_on_c, 0, 60, 67
4, 4560, Note_on_c, 0, 62, 67
4, 4800, Note_on_c, 0, 62, 0
4, 4800, Note_on_c, 0, 60, 0
4, 4800, Note_on_c, 0, 55, 67
4, 5040, Note_on_c, 0, 55, 0
4, 5040, Note_on_c, 0, 58, 67
4, 5040, Note_on_c, 0, 62, 67
4, 5280, Note_on_c, 0, 62, 0
4, 5280, Note_on_c, 0, 58, 0
4, 5280, Note_on_c, 0, 54, 67
4, 5520, Note_on_c, 0, 54, 0
4, 5520, Note_on_c, 0, 60, 67
4, 5520, Note_on_c, 0, 62, 67
4, 5760, Note_on_c, 0, 62, 0
4, 5760, Note_on_c, 0, 60, 0
4, 5760, Note_on_c, 0, 55, 67
4, 6000, Note_on_c, 0, 55, 0
4, 6000, Note_on_c, 0, 55, 67
4, 6000, Note_on_c, 0, 58, 67
4, 6000, Note_on_c, 0, 62, 67
4, 6240, Note_on_c, 0, 62, 0
4, 6240, Note_on_c, 0, 58, 0
4, 6240, Note_on_c, 0, 55, 0
4, 6240, Note_on_c, 0, 53, 67
4, 6480, Note_on_c, 0, 53, 0
4, 6480, Note_on_c, 0, 55, 67
4, 6480, Note_on_c, 0, 59, 67
4, 6480, Note_on_c, 0, 62, 67
4, 6720, Note_on_c, 0, 62, 0
4, 6720, Note_on_c, 0, 59, 0
4, 6720, Note_on_c, 0, 55, 0
4, 6720, Note_on_c, 0, 51, 67
4, 6960, Note_on_c, 0, 51, 0
4, 6960, Note_on_c, 0, 55, 67
4, 6960, Note_on_c, 0, 60, 67
4, 7200, Note_on_c, 0, 60, 0
4, 7200, Note_on_c, 0, 55, 0
4, 7200, Note_on_c, 0, 48, 67
4, 7440, Note_on_c, 0, 48, 0
4, 7440, Note_on_c, 0, 55, 67
4, 7440, Note_on_c, 0, 63, 67
4, 7680, Note_on_c, 0, 63, 0
4, 7680, Note_on_c, 0, 55, 0
4, 7680, Note_on_c, 0, 50, 67
4, 7920, Note_on_c, 0, 50, 0
4, 7920, Note_on_c, 0, 54, 67
4, 7920, Note_on_c, 0, 57, 67
4, 8160, Note_on_c, 0, 57, 0
4, 8160, Note_on_c, 0, 54, 0
4, 8160, Note_on_c, 0, 55, 54
4, 8400, Note_on_c, 0, 55, 0
4, 8400, Note_on_c, 0, 60, 54
4, 8400, Note_on_c, 0, 67, 54
4, 8640, Note_on_c, 0, 60, 0
4, 8640, Note_on_c, 0, 62, 54
4, 8880, Note_on_c, 0, 62, 0
4, 8880, Note_on_c, 0, 67, 0
4, 9120, Note_on_c, 0, 51, 54
4, 9360, Note_on_c, 0, 51, 0
4, 9360, Note_on_c, 0, 57, 54
4, 9360, Note_on_c, 0, 63, 54
4, 9600, Note_on_c, 0, 57, 0
4, 9600, Note_on_c, 0, 58, 54
4, 9840, Note_on_c, 0, 58, 0
4, 9840, Note_on_c, 0, 63, 0
4, 10080, Note_on_c, 0, 48, 54
4, 10320, Note_on_c, 0, 48, 0
4, 10320, Note_on_c, 0, 60, 54
4, 10560, Note_on_c, 0, 60, 0
4, 10560, Note_on_c, 0, 50, 54
4, 10800, Note_on_c, 0, 50, 0
4, 10800, Note_on_c, 0, 58, 54
4, 11040, Note_on_c, 0, 58, 0
4, 11040, Note_on_c, 0, 51, 54
4, 11280, Note_on_c, 0, 51, 0
4, 11280, Note_on_c, 0, 57, 54
4, 11520, Note_on_c, 0, 57, 0
4, 11520, Note_on_c, 0, 50, 54
4, 11760, Note_on_c, 0, 50, 0
4, 11760, Note_on_c, 0, 58, 54
4, 12000, Note_on_c, 0, 58, 0
4, 12000, Note_on_c, 0, 57, 67
4, 12240, Note_on_c, 0, 57, 0
4, 12240, Note_on_c, 0, 60, 67
4, 12240, Note_on_c, 0, 62, 67
4, 12480, Note_on_c, 0, 62, 0
4, 12480, Note_on_c, 0, 60, 0
4, 12480, Note_on_c, 0, 55, 67
4, 12720, Note_on_c, 0, 55, 0
4, 12720, Note_on_c, 0, 58, 67
4, 12720, Note_on_c, 0, 62, 67
4, 12960, Note_on_c, 0, 62, 0
4, 12960, Note_on_c, 0, 58, 0
4, 12960, Note_on_c, 0, 54, 67
4, 13200, Note_on_c, 0, 54, 0
4, 13200, Note_on_c, 0, 60, 67
4, 13200, Note_on_c, 0, 62, 67
4, 13440, Note_on_c, 0, 62, 0
4, 13440, Note_on_c, 0, 60, 0
4, 13440, Note_on_c, 0, 55, 67
4, 13680, Note_on_c, 0, 55, 0
4, 13680, Note_on_c, 0, 55, 67
4, 13680, Note_on_c, 0, 58, 67
4, 13680, Note_on_c, 0, 62, 67
4, 13920, Note_on_c, 0, 62, 0
4, 13920, Note_on_c, 0, 58, 0
4, 13920, Note_on_c, 0, 55, 0
4, 13920, Note_on_c, 0, 53, 67
4, 14160, Note_on_c, 0, 53, 0
4, 14160, Note_on_c, 0, 55, 67
4, 14160, Note_on_c, 0, 59, 67
4, 14160, Note_on_c, 0, 62, 67
4, 14400, Note_on_c, 0, 62, 0
4, 14400, Note_on_c, 0, 59, 0
4, 14400, Note_on_c, 0, 55, 0
4, 14400, Note_on_c, 0, 51, 67
4, 14640, Note_on_c, 0, 51, 0
4, 14640, Note_on_c, 0, 55, 67
4, 14640, Note_on_c, 0, 60, 67
4, 14880, Note_on_c, 0, 60, 0
4, 14880, Note_on_c, 0, 55, 0
4, 14880, Note_on_c, 0, 48, 67
4, 15120, Note_on_c, 0, 48, 0
4, 15120, Note_on_c, 0, 55, 67
4, 15120, Note_on_c, 0, 63, 67
4, 15360, Note_on_c, 0, 63, 0
4, 15360, Note_on_c, 0, 55, 0
4, 15360, Note_on_c, 0, 53, 54
4, 15600, Note_on_c, 0, 53, 0
4, 15600, Note_on_c, 0, 57, 54
4, 15600, Note_on_c, 0, 60, 54
4, 15840, Note_on_c, 0, 60, 0
4, 15840, Note_on_c, 0, 57, 0
4, 15840, Note_on_c, 0, 46, 54
4, 16080, Note_on_c, 0, 46, 0
4, 16080, Note_on_c, 0, 64, 54
4, 16080, Note_on_c, 0, 70, 54
4, 16320, Note_on_c, 0, 64, 0
4, 16320, Note_on_c, 0, 65, 54
4, 16560, Note_on_c, 0, 65, 0
4, 16560, Note_on_c, 0, 70, 0
4, 17040, Note_on_c, 0, 60, 54
4, 17040, Note_on_c, 0, 69, 54
4, 17280, Note_on_c, 0, 69, 0
4, 17280, Note_on_c, 0, 60, 0
4, 17280, Note_on_c, 0, 62, 54
4, 17280, Note_on_c, 0, 67, 54
4, 17520, Note_on_c, 0, 67, 0
4, 17520, Note_on_c, 0, 62, 0
4, 18000, Note_on_c, 0, 60, 67
4, 18000, Note_on_c, 0, 63, 67
4, 18480, Note_on_c, 0, 63, 0
4, 18480, Note_on_c, 0, 60, 0
4, 18960, Note_on_c, 0, 56, 80
4, 18960, Note_on_c, 0, 60, 80
4, 19200, Note_on_c, 0, 56, 0
4, 19200, Note_on_c, 0, 55, 80
4, 19440, Note_on_c, 0, 55, 0
4, 19440, Note_on_c, 0, 60, 0
4, 19920, Note_on_c, 0, 65, 54
4, 19920, Note_on_c, 0, 72, 54
4, 20160, Note_on_c, 0, 65, 0
4, 20160, Note_on_c, 0, 67, 54
4, 20400, Note_on_c, 0, 67, 0
4, 20400, Note_on_c, 0, 72, 0
4, 20880, Note_on_c, 0, 62, 54
4, 20880, Note_on_c, 0, 69, 54
4, 21120, Note_on_c, 0, 62, 0
4, 21120, Note_on_c, 0, 64, 54
4, 21360, Note_on_c, 0, 64, 0
4, 21360, Note_on_c, 0, 69, 0
4, 21840, Note_on_c, 0, 62, 80
4, 21840, Note_on_c, 0, 65, 80
4, 22320, Note_on_c, 0, 65, 0
4, 22320, Note_on_c, 0, 62, 0
4, 22800, Note_on_c, 0, 58, 80
4, 22800, Note_on_c, 0, 62, 80
4, 23040, Note_on_c, 0, 58, 0
4, 23040, Note_on_c, 0, 57, 80
4, 23280, Note_on_c, 0, 57, 0
4, 23280, Note_on_c, 0, 62, 0
4, 23520, Note_on_c, 0, 55, 93
4, 23520, Note_on_c, 0, 57, 93
4, 23520, Note_on_c, 0, 61, 93
4, 23760, Note_on_c, 0, 61, 0
4, 23760, Note_on_c, 0, 57, 0
4, 23760, Note_on_c, 0, 55, 0
4, 24000, Note_on_c, 0, 53, 93
4, 24000, Note_on_c, 0, 57, 93
4, 24000, Note_on_c, 0, 59, 93
4, 24000, Note_on_c, 0, 62, 93
4, 24240, Note_on_c, 0, 62, 0
4, 24240, Note_on_c, 0, 53, 0
4, 24240, Note_on_c, 0, 57, 0
4, 24240, Note_on_c, 0, 59, 0
4, 24480, Note_on_c, 0, 52, 93
4, 24480, Note_on_c, 0, 57, 93
4, 24480, Note_on_c, 0, 61, 93
4, 24480, Note_on_c, 0, 64, 93
4, 24720, Note_on_c, 0, 64, 0
4, 24720, Note_on_c, 0, 52, 0
4, 24720, Note_on_c, 0, 57, 0
4, 24720, Note_on_c, 0, 61, 0
4, 24960, Note_on_c, 0, 50, 93
4, 24960, Note_on_c, 0, 57, 93
4, 24960, Note_on_c, 0, 62, 93
4, 24960, Note_on_c, 0, 65, 93
4, 25200, Note_on_c, 0, 65, 0
4, 25200, Note_on_c, 0, 50, 0
4, 25200, Note_on_c, 0, 57, 0
4, 25200, Note_on_c, 0, 62, 0
4, 25440, Note_on_c, 0, 48, 93
4, 25440, Note_on_c, 0, 51, 93
4, 25440, Note_on_c, 0, 54, 93
4, 25680, Note_on_c, 0, 54, 0
4, 25680, Note_on_c, 0, 51, 0
4, 25680, Note_on_c, 0, 48, 0
4, 25920, Note_on_c, 0, 46, 93
4, 25920, Note_on_c, 0, 50, 93
4, 25920, Note_on_c, 0, 52, 93
4, 25920, Note_on_c, 0, 55, 93
4, 26160, Note_on_c, 0, 55, 0
4, 26160, Note_on_c, 0, 46, 0
4, 26160, Note_on_c, 0, 50, 0
4, 26160, Note_on_c, 0, 52, 0
4, 26400, Note_on_c, 0, 45, 93
4, 26400, Note_on_c, 0, 50, 93
4, 26400, Note_on_c, 0, 54, 93
4, 26400, Note_on_c, 0, 57, 93
4, 26640, Note_on_c, 0, 57, 0
4, 26640, Note_on_c, 0, 45, 0
4, 26640, Note_on_c, 0, 50, 0
4, 26640, Note_on_c, 0, 54, 0
4, 26880, Note_on_c, 0, 43, 93
4, 26880, Note_on_c, 0, 50, 93
4, 26880, Note_on_c, 0, 55, 93
4, 26880, Note_on_c, 0, 58, 93
4, 27120, Note_on_c, 0, 58, 0
4, 27120, Note_on_c, 0, 43, 0
4, 27120, Note_on_c, 0, 50, 0
4, 27120, Note_on_c, 0, 55, 0
4, 27360, Note_on_c, 0, 55, 93
4, 27360, Note_on_c, 0, 57, 93
4, 27360, Note_on_c, 0, 61, 93
4, 27600, Note_on_c, 0, 61, 0
4, 27600, Note_on_c, 0, 57, 0
4, 27600, Note_on_c, 0, 55, 0
4, 27840, Note_on_c, 0, 53, 93
4, 27840, Note_on_c, 0, 57, 93
4, 27840, Note_on_c, 0, 59, 93
4, 27840, Note_on_c, 0, 62, 93
4, 28080, Note_on_c, 0, 62, 0
4, 28080, Note_on_c, 0, 53, 0
4, 28080, Note_on_c, 0, 57, 0
4, 28080, Note_on_c, 0, 59, 0
4, 28320, Note_on_c, 0, 52, 93
4, 28320, Note_on_c, 0, 57, 93
4, 28320, Note_on_c, 0, 61, 93
4, 28320, Note_on_c, 0, 64, 93
4, 28560, Note_on_c, 0, 64, 0
4, 28560, Note_on_c, 0, 52, 0
4, 28560, Note_on_c, 0, 57, 0
4, 28560, Note_on_c, 0, 61, 0
4, 28800, Note_on_c, 0, 50, 93
4, 28800, Note_on_c, 0, 57, 93
4, 28800, Note_on_c, 0, 62, 93
4, 28800, Note_on_c, 0, 65, 93
4, 29040, Note_on_c, 0, 65, 0
4, 29040, Note_on_c, 0, 50, 0
4, 29040, Note_on_c, 0, 57, 0
4, 29040, Note_on_c, 0, 62, 0
4, 29280, Note_on_c, 0, 48, 93
4, 29280, Note_on_c, 0, 51, 93
4, 29280, Note_on_c, 0, 54, 93
4, 29520, Note_on_c, 0, 54, 0
4, 29520, Note_on_c, 0, 51, 0
4, 29520, Note_on_c, 0, 48, 0
4, 29760, Note_on_c, 0, 46, 93
4, 29760, Note_on_c, 0, 50, 93
4, 29760, Note_on_c, 0, 52, 93
4, 29760, Note_on_c, 0, 55, 93
4, 30000, Note_on_c, 0, 55, 0
4, 30000, Note_on_c, 0, 46, 0
4, 30000, Note_on_c, 0, 50, 0
4, 30000, Note_on_c, 0, 52, 0
4, 30240, Note_on_c, 0, 45, 93
4, 30240, Note_on_c, 0, 50, 93
4, 30240, Note_on_c, 0, 54, 93
4, 30240, Note_on_c, 0, 57, 93
4, 30480, Note_on_c, 0, 57, 0
4, 30480, Note_on_c, 0, 45, 0
4, 30480, Note_on_c, 0, 50, 0
4, 30480, Note_on_c, 0, 54, 0
4, 30720, Note_on_c, 0, 43, 93
4, 30720, Note_on_c, 0, 50, 93
4, 30720, Note_on_c, 0, 55, 93
4, 30720, Note_on_c, 0, 58, 93
4, 30960, Note_on_c, 0, 58, 0
4, 30960, Note_on_c, 0, 43, 0
4, 30960, Note_on_c, 0, 50, 0
4, 30960, Note_on_c, 0, 55, 0
4, 31200, Note_on_c, 0, 43, 93
4, 31440, Note_on_c, 0, 43, 0
4, 31440, Note_on_c, 0, 55, 93
4, 31440, Note_on_c, 0, 58, 93
4, 31440, Note_on_c, 0, 64, 93
4, 31680, Note_on_c, 0, 64, 0
4, 31680, Note_on_c, 0, 58, 0
4, 31680, Note_on_c, 0, 55, 0
4, 31680, Note_on_c, 0, 58, 93
4, 31680, Note_on_c, 0, 62, 93
4, 31680, Note_on_c, 0, 67, 93
4, 31920, Note_on_c, 0, 67, 0
4, 31920, Note_on_c, 0, 62, 0
4, 31920, Note_on_c, 0, 58, 0
4, 31920, Note_on_c, 0, 55, 93
4, 32160, Note_on_c, 0, 55, 0
4, 32160, Note_on_c, 0, 43, 93
4, 32400, Note_on_c, 0, 43, 0
4, 32400, Note_on_c, 0, 55, 93
4, 32400, Note_on_c, 0, 58, 93
4, 32400, Note_on_c, 0, 64, 93
4, 32640, Note_on_c, 0, 64, 0
4, 32640, Note_on_c, 0, 58, 0
4, 32640, Note_on_c, 0, 55, 0
4, 32640, Note_on_c, 0, 58, 93
4, 32640, Note_on_c, 0, 62, 93
4, 32640, Note_on_c, 0, 67, 93
4, 32880, Note_on_c, 0, 67, 0
4, 32880, Note_on_c, 0, 62, 0
4, 32880, Note_on_c, 0, 58, 0
4, 32880, Note_on_c, 0, 55, 93
4, 33120, Note_on_c, 0, 55, 0
4, 33120, Note_on_c, 0, 44, 93
4, 33360, Note_on_c, 0, 44, 0
4, 33360, Note_on_c, 0, 56, 93
4, 33360, Note_on_c, 0, 61, 93
4, 33360, Note_on_c, 0, 64, 93
4, 33600, Note_on_c, 0, 64, 0
4, 33600, Note_on_c, 0, 61, 0
4, 33600, Note_on_c, 0, 56, 0
4, 33600, Note_on_c, 0, 62, 93
4, 33600, Note_on_c, 0, 65, 93
4, 33600, Note_on_c, 0, 68, 93
4, 33840, Note_on_c, 0, 68, 0
4, 33840, Note_on_c, 0, 65, 0
4, 33840, Note_on_c, 0, 62, 0
4, 33840, Note_on_c, 0, 56, 93
4, 34080, Note_on_c, 0, 56, 0
4, 34080, Note_on_c, 0, 44, 93
4, 34320, Note_on_c, 0, 44, 0
4, 34320, Note_on_c, 0, 56, 93
4, 34320, Note_on_c, 0, 61, 93
4, 34320, Note_on_c, 0, 64, 93
4, 34560, Note_on_c, 0, 64, 0
4, 34560, Note_on_c, 0, 61, 0
4, 34560, Note_on_c, 0, 56, 0
4, 34560, Note_on_c, 0, 62, 93
4, 34560, Note_on_c, 0, 65, 93
4, 34560, Note_on_c, 0, 68, 93
4, 34800, Note_on_c, 0, 68, 0
4, 34800, Note_on_c, 0, 65, 0
4, 34800, Note_on_c, 0, 62, 0
4, 34800, Note_on_c, 0, 56, 93
4, 35040, Note_on_c, 0, 56, 0
4, 35040, Note_on_c, 0, 45, 93
4, 35280, Note_on_c, 0, 45, 0
4, 35280, Note_on_c, 0, 57, 93
4, 35280, Note_on_c, 0, 64, 93
4, 35280, Note_on_c, 0, 67, 93
4, 35520, Note_on_c, 0, 67, 0
4, 35520, Note_on_c, 0, 64, 0
4, 35520, Note_on_c, 0, 57, 0
4, 35520, Note_on_c, 0, 62, 93
4, 35520, Note_on_c, 0, 65, 93
4, 35520, Note_on_c, 0, 69, 93
4, 35760, Note_on_c, 0, 69, 0
4, 35760, Note_on_c, 0, 65, 0
4, 35760, Note_on_c, 0, 62, 0
4, 35760, Note_on_c, 0, 57, 93
4, 35760, Note_on_c, 0, 64, 93
4, 35760, Note_on_c, 0, 67, 93
4, 36000, Note_on_c, 0, 67, 0
4, 36000, Note_on_c, 0, 64, 0
4, 36000, Note_on_c, 0, 57, 0
4, 36000, Note_on_c, 0, 57, 93
4, 36000, Note_on_c, 0, 62, 93
4, 36000, Note_on_c, 0, 65, 93
4, 36240, Note_on_c, 0, 65, 0
4, 36240, Note_on_c, 0, 62, 0
4, 36240, Note_on_c, 0, 57, 0
4, 36240, Note_on_c, 0, 57, 93
4, 36240, Note_on_c, 0, 64, 93
4, 36240, Note_on_c, 0, 67, 93
4, 36480, Note_on_c, 0, 67, 0
4, 36480, Note_on_c, 0, 64, 0
4, 36480, Note_on_c, 0, 57, 0
4, 36480, Note_on_c, 0, 62, 93
4, 36480, Note_on_c, 0, 65, 93
4, 36480, Note_on_c, 0, 69, 93
4, 36720, Note_on_c, 0, 69, 0
4, 36720, Note_on_c, 0, 65, 0
4, 36720, Note_on_c, 0, 62, 0
4, 36720, Note_on_c, 0, 57, 93
4, 36720, Note_on_c, 0, 64, 93
4, 36720, Note_on_c, 0, 67, 93
4, 36960, Note_on_c, 0, 67, 0
4, 36960, Note_on_c, 0, 64, 0
4, 36960, Note_on_c, 0, 57, 0
4, 36960, Note_on_c, 0, 57, 93
4, 36960, Note_on_c, 0, 62, 93
4, 36960, Note_on_c, 0, 65, 93
4, 37200, Note_on_c, 0, 65, 0
4, 37200, Note_on_c, 0, 62, 0
4, 37200, Note_on_c, 0, 57, 0
4, 37200, Note_on_c, 0, 57, 93
4, 37200, Note_on_c, 0, 64, 93
4, 37200, Note_on_c, 0, 67, 93
4, 37440, Note_on_c, 0, 67, 0
4, 37440, Note_on_c, 0, 64, 0
4, 37440, Note_on_c, 0, 57, 0
4, 37440, Note_on_c, 0, 62, 93
4, 37440, Note_on_c, 0, 65, 93
4, 37440, Note_on_c, 0, 69, 93
4, 37680, Note_on_c, 0, 69, 0
4, 37680, Note_on_c, 0, 65, 0
4, 37680, Note_on_c, 0, 62, 0
4, 37680, Note_on_c, 0, 57, 93
4, 37680, Note_on_c, 0, 64, 93
4, 37680, Note_on_c, 0, 67, 93
4, 37920, Note_on_c, 0, 67, 0
4, 37920, Note_on_c, 0, 64, 0
4, 37920, Note_on_c, 0, 57, 0
4, 37920, Note_on_c, 0, 57, 93
4, 37920, Note_on_c, 0, 62, 93
4, 37920, Note_on_c, 0, 65, 93
4, 38160, Note_on_c, 0, 65, 0
4, 38160, Note_on_c, 0, 62, 0
4, 38160, Note_on_c, 0, 57, 0
4, 38160, Note_on_c, 0, 57, 93
4, 38160, Note_on_c, 0, 64, 93
4, 38160, Note_on_c, 0, 67, 93
4, 38400, Note_on_c, 0, 67, 0
4, 38400, Note_on_c, 0, 64, 0
4, 38400, Note_on_c, 0, 57, 0
4, 38400, Note_on_c, 0, 62, 119
4, 38400, Note_on_c, 0, 65, 119
4, 38400, Note_on_c, 0, 70, 119
4, 38640, Note_on_c, 0, 70, 0
4, 38640, Note_on_c, 0, 65, 0
4, 38640, Note_on_c, 0, 62, 0
4, 38640, Note_on_c, 0, 58, 67
4, 38880, Note_on_c, 0, 58, 0
4, 38880, Note_on_c, 0, 57, 67
4, 39120, Note_on_c, 0, 57, 0
4, 39120, Note_on_c, 0, 60, 67
4, 39120, Note_on_c, 0, 62, 67
4, 39360, Note_on_c, 0, 62, 0
4, 39360, Note_on_c, 0, 60, 0
4, 39360, Note_on_c, 0, 55, 67
4, 39600, Note_on_c, 0, 55, 0
4, 39600, Note_on_c, 0, 58, 67
4, 39600, Note_on_c, 0, 62, 67
4, 39840, Note_on_c, 0, 62, 0
4, 39840, Note_on_c, 0, 58, 0
4, 39840, Note_on_c, 0, 54, 67
4, 40080, Note_on_c, 0, 54, 0
4, 40080, Note_on_c, 0, 60, 67
4, 40080, Note_on_c, 0, 62, 67
4, 40320, Note_on_c, 0, 62, 0
4, 40320, Note_on_c, 0, 60, 0
4, 40320, Note_on_c, 0, 55, 67
4, 40560, Note_on_c, 0, 55, 0
4, 40560, Note_on_c, 0, 55, 67
4, 40560, Note_on_c, 0, 58, 67
4, 40560, Note_on_c, 0, 62, 67
4, 40800, Note_on_c, 0, 62, 0
4, 40800, Note_on_c, 0, 58, 0
4, 40800, Note_on_c, 0, 55, 0
4, 40800, Note_on_c, 0, 53, 67
4, 41040, Note_on_c, 0, 53, 0
4, 41040, Note_on_c, 0, 55, 67
4, 41040, Note_on_c, 0, 59, 67
4, 41040, Note_on_c, 0, 62, 67
4, 41280, Note_on_c, 0, 62, 0
4, 41280, Note_on_c, 0, 59, 0
4, 41280, Note_on_c, 0, 55, 0
4, 41280, Note_on_c, 0, 51, 67
4, 41520, Note_on_c, 0, 51, 0
4, 41520, Note_on_c, 0, 55, 67
4, 41520, Note_on_c, 0, 60, 67
4, 41760, Note_on_c, 0, 60, 0
4, 41760, Note_on_c, 0, 55, 0
4, 41760, Note_on_c, 0, 48, 67
4, 42000, Note_on_c, 0, 48, 0
4, 42000, Note_on_c, 0, 55, 67
4, 42000, Note_on_c, 0, 63, 67
4, 42240, Note_on_c, 0, 63, 0
4, 42240, Note_on_c, 0, 55, 0
4, 42240, Note_on_c, 0, 45, 67
4, 42480, Note_on_c, 0, 45, 0
4, 42480, Note_on_c, 0, 54, 67
4, 42480, Note_on_c, 0, 60, 67
4, 42480, Note_on_c, 0, 62, 67
4, 42720, Note_on_c, 0, 62, 0
4, 42720, Note_on_c, 0, 60, 0
4, 42720, Note_on_c, 0, 54, 0
4, 42720, Note_on_c, 0, 57, 67
4, 42960, Note_on_c, 0, 57, 0
4, 42960, Note_on_c, 0, 60, 67
4, 42960, Note_on_c, 0, 62, 67
4, 43200, Note_on_c, 0, 62, 0
4, 43200, Note_on_c, 0, 60, 0
4, 43200, Note_on_c, 0, 55, 67
4, 43440, Note_on_c, 0, 55, 0
4, 43440, Note_on_c, 0, 58, 67
4, 43440, Note_on_c, 0, 62, 67
4, 43680, Note_on_c, 0, 62, 0
4, 43680, Note_on_c, 0, 58, 0
4, 43680, Note_on_c, 0, 54, 67
4, 43920, Note_on_c, 0, 54, 0
4, 43920, Note_on_c, 0, 60, 67
4, 43920, Note_on_c, 0, 62, 67
4, 44160, Note_on_c, 0, 62, 0
4, 44160, Note_on_c, 0, 60, 0
4, 44160, Note_on_c, 0, 55, 67
4, 44400, Note_on_c, 0, 55, 0
4, 44400, Note_on_c, 0, 55, 67
4, 44400, Note_on_c, 0, 58, 67
4, 44400, Note_on_c, 0, 62, 67
4, 44640, Note_on_c, 0, 62, 0
4, 44640, Note_on_c, 0, 58, 0
4, 44640, Note_on_c, 0, 55, 0
4, 44640, Note_on_c, 0, 53, 67
4, 44880, Note_on_c, 0, 53, 0
4, 44880, Note_on_c, 0, 55, 67
4, 44880, Note_on_c, 0, 59, 67
4, 44880, Note_on_c, 0, 62, 67
4, 45120, Note_on_c, 0, 62, 0
4, 45120, Note_on_c, 0, 59, 0
4, 45120, Note_on_c, 0, 55, 0
4, 45120, Note_on_c, 0, 51, 67
4, 45360, Note_on_c, 0, 51, 0
4, 45360, Note_on_c, 0, 55, 67
4, 45360, Note_on_c, 0, 60, 67
4, 45600, Note_on_c, 0, 60, 0
4, 45600, Note_on_c, 0, 55, 0
4, 45600, Note_on_c, 0, 48, 67
4, 45840, Note_on_c, 0, 48, 0
4, 45840, Note_on_c, 0, 55, 67
4, 45840, Note_on_c, 0, 63, 67
4, 46080, Note_on_c, 0, 63, 0
4, 46080, Note_on_c, 0, 55, 0
4, 46080, Note_on_c, 0, 45, 67
4, 46320, Note_on_c, 0, 45, 0
4, 46320, Note_on_c, 0, 45, 67
4, 46320, Note_on_c, 0, 48, 67
4, 46320, Note_on_c, 0, 50, 67
4, 46320, Note_on_c, 0, 54, 67
4, 46560, Note_on_c, 0, 54, 0
4, 46560, Note_on_c, 0, 45, 0
4, 46560, Note_on_c, 0, 48, 0
4, 46560, Note_on_c, 0, 50, 0
4, 46560, Note_on_c, 0, 43, 67
4, 46560, Note_on_c, 0, 55, 67
4, 46800, Note_on_c, 0, 55, 0
4, 46800, Note_on_c, 0, 43, 0
4, 47280, Note_on_c, 0, 55, 67
4, 47303, Note_on_c, 0, 55, 0
4, 47400, Note_on_c, 0, 55, 67
4, 47423, Note_on_c, 0, 55, 0
4, 47520, Note_on_c, 0, 51, 67
4, 47567, Note_on_c, 0, 51, 0
4, 48240, Note_on_c, 0, 51, 67
4, 48263, Note_on_c, 0, 51, 0
4, 48360, Note_on_c, 0, 51, 67
4, 48383, Note_on_c, 0, 51, 0
4, 48480, Note_on_c, 0, 48, 67
4, 48527, Note_on_c, 0, 48, 0
4, 49200, Note_on_c, 0, 48, 67
4, 49223, Note_on_c, 0, 48, 0
4, 49320, Note_on_c, 0, 48, 67
4, 49343, Note_on_c, 0, 48, 0
4, 49440, Note_on_c, 0, 51, 67
4, 49487, Note_on_c, 0, 51, 0
4, 50160, Note_on_c, 0, 51, 67
4, 50183, Note_on_c, 0, 51, 0
4, 50280, Note_on_c, 0, 51, 67
4, 50303, Note_on_c, 0, 51, 0
4, 50400, Note_on_c, 0, 55, 67
4, 50447, Note_on_c, 0, 55, 0
4, 51120, Note_on_c, 0, 55, 67
4, 51143, Note_on_c, 0, 55, 0
4, 51240, Note_on_c, 0, 55, 67
4, 51263, Note_on_c, 0, 55, 0
4, 51360, Note_on_c, 0, 51, 67
4, 51407, Note_on_c, 0, 51, 0
4, 52080, Note_on_c, 0, 51, 67
4, 52103, Note_on_c, 0, 51, 0
4, 52200, Note_on_c, 0, 51, 67
4, 52223, Note_on_c, 0, 51, 0
4, 52320, Note_on_c, 0, 48, 67
4, 52367, Note_on_c, 0, 48, 0
4, 53040, Note_on_c, 0, 48, 67
4, 53063, Note_on_c, 0, 48, 0
4, 53160, Note_on_c, 0, 48, 67
4, 53183, Note_on_c, 0, 48, 0
4, 53280, Note_on_c, 0, 51, 67
4, 53327, Note_on_c, 0, 51, 0
4, 54000, Note_on_c, 0, 51, 67
4, 54023, Note_on_c, 0, 51, 0
4, 54120, Note_on_c, 0, 51, 67
4, 54143, Note_on_c, 0, 51, 0
4, 54240, Note_on_c, 0, 63, 67
4, 54287, Note_on_c, 0, 63, 0
4, 54480, Note_on_c, 0, 51, 67
4, 54503, Note_on_c, 0, 51, 0
4, 54600, Note_on_c, 0, 51, 67
4, 54623, Note_on_c, 0, 51, 0
4, 54720, Note_on_c, 0, 63, 67
4, 54767, Note_on_c, 0, 63, 0
4, 54960, Note_on_c, 0, 51, 67
4, 54983, Note_on_c, 0, 51, 0
4, 55080, Note_on_c, 0, 51, 67
4, 55103, Note_on_c, 0, 51, 0
4, 55200, Note_on_c, 0, 63, 67
4, 55247, Note_on_c, 0, 63, 0
4, 55440, Note_on_c, 0, 51, 67
4, 55463, Note_on_c, 0, 51, 0
4, 55560, Note_on_c, 0, 51, 67
4, 55583, Note_on_c, 0, 51, 0
4, 55680, Note_on_c, 0, 63, 67
4, 55727, Note_on_c, 0, 63, 0
4, 55920, Note_on_c, 0, 51, 67
4, 55943, Note_on_c, 0, 51, 0
4, 56040, Note_on_c, 0, 51, 67
4, 56063, Note_on_c, 0, 51, 0
4, 56160, Note_on_c, 0, 63, 67
4, 56207, Note_on_c, 0, 63, 0
4, 56400, Note_on_c, 0, 51, 67
4, 56423, Note_on_c, 0, 51, 0
4, 56520, Note_on_c, 0, 51, 67
4, 56543, Note_on_c, 0, 51, 0
4, 56640, Note_on_c, 0, 63, 67
4, 56687, Note_on_c, 0, 63, 0
4, 56880, Note_on_c, 0, 51, 67
4, 56903, Note_on_c, 0, 51, 0
4, 57000, Note_on_c, 0, 51, 67
4, 57023, Note_on_c, 0, 51, 0
4, 57120, Note_on_c, 0, 63, 67
4, 57167, Note_on_c, 0, 63, 0
4, 57360, Note_on_c, 0, 51, 67
4, 57383, Note_on_c, 0, 51, 0
4, 57480, Note_on_c, 0, 51, 67
4, 57503, Note_on_c, 0, 51, 0
4, 57600, Note_on_c, 0, 51, 80
4, 57647, Note_on_c, 0, 51, 0
4, 57840, Note_on_c, 0, 51, 80
4, 57840, Note_on_c, 0, 55, 80
4, 57840, Note_on_c, 0, 58, 80
4, 58080, Note_on_c, 0, 51, 0
4, 58080, Note_on_c, 0, 50, 80
4, 58320, Note_on_c, 0, 50, 0
4, 58320, Note_on_c, 0, 58, 0
4, 58320, Note_on_c, 0, 55, 0
4, 58320, Note_on_c, 0, 50, 80
4, 58320, Note_on_c, 0, 54, 80
4, 58320, Note_on_c, 0, 57, 80
4, 58560, Note_on_c, 0, 57, 0
4, 58560, Note_on_c, 0, 54, 0
4, 58560, Note_on_c, 0, 50, 0
4, 58560, Note_on_c, 0, 43, 80
4, 58800, Note_on_c, 0, 43, 0
4, 58800, Note_on_c, 0, 50, 80
4, 58800, Note_on_c, 0, 58, 80
4, 59040, Note_on_c, 0, 58, 0
4, 59040, Note_on_c, 0, 50, 0
4, 59040, Note_on_c, 0, 45, 80
4, 59280, Note_on_c, 0, 45, 0
4, 59280, Note_on_c, 0, 50, 80
4, 59280, Note_on_c, 0, 60, 80
4, 59520, Note_on_c, 0, 60, 0
4, 59520, Note_on_c, 0, 50, 0
4, 59520, Note_on_c, 0, 46, 80
4, 59760, Note_on_c, 0, 46, 0
4, 59760, Note_on_c, 0, 55, 80
4, 59760, Note_on_c, 0, 62, 80
4, 60000, Note_on_c, 0, 62, 0
4, 60000, Note_on_c, 0, 55, 0
4, 60000, Note_on_c, 0, 48, 80
4, 60240, Note_on_c, 0, 48, 0
4, 60240, Note_on_c, 0, 55, 80
4, 60240, Note_on_c, 0, 57, 80
4, 60480, Note_on_c, 0, 57, 0
4, 60480, Note_on_c, 0, 55, 0
4, 60480, Note_on_c, 0, 50, 80
4, 60720, Note_on_c, 0, 50, 0
4, 60720, Note_on_c, 0, 55, 80
4, 60720, Note_on_c, 0, 58, 80
4, 60960, Note_on_c, 0, 58, 0
4, 60960, Note_on_c, 0, 55, 0
4, 60960, Note_on_c, 0, 50, 80
4, 60960, Note_on_c, 0, 54, 80
4, 61200, Note_on_c, 0, 54, 0
4, 61200, Note_on_c, 0, 50, 0
4, 61200, Note_on_c, 0, 60, 80
4, 61200, Note_on_c, 0, 62, 80
4, 61440, Note_on_c, 0, 62, 0
4, 61440, Note_on_c, 0, 60, 0
4, 61440, Note_on_c, 0, 43, 80
4, 61440, Note_on_c, 0, 55, 80
4, 61680, Note_on_c, 0, 55, 0
4, 61680, Note_on_c, 0, 43, 0
4, 61680, Note_on_c, 0, 50, 80
4, 61680, Note_on_c, 0, 58, 80
4, 61920, Note_on_c, 0, 58, 0
4, 61920, Note_on_c, 0, 50, 0
4, 61920, Note_on_c, 0, 42, 80
4, 62160, Note_on_c, 0, 42, 0
4, 62160, Note_on_c, 0, 50, 80
4, 62160, Note_on_c, 0, 57, 80
4, 62400, Note_on_c, 0, 57, 0
4, 62400, Note_on_c, 0, 50, 0
4, 62400, Note_on_c, 0, 43, 80
4, 62640, Note_on_c, 0, 43, 0
4, 62640, Note_on_c, 0, 50, 80
4, 62640, Note_on_c, 0, 58, 80
4, 62880, Note_on_c, 0, 58, 0
4, 62880, Note_on_c, 0, 50, 0
4, 62880, Note_on_c, 0, 45, 80
4, 63120, Note_on_c, 0, 45, 0
4, 63120, Note_on_c, 0, 50, 80
4, 63120, Note_on_c, 0, 60, 80
4, 63360, Note_on_c, 0, 60, 0
4, 63360, Note_on_c, 0, 50, 0
4, 63360, Note_on_c, 0, 46, 80
4, 63600, Note_on_c, 0, 46, 0
4, 63600, Note_on_c, 0, 55, 80
4, 63600, Note_on_c, 0, 62, 80
4, 63840, Note_on_c, 0, 62, 0
4, 63840, Note_on_c, 0, 55, 0
4, 63840, Note_on_c, 0, 48, 80
4, 64080, Note_on_c, 0, 48, 0
4, 64080, Note_on_c, 0, 55, 80
4, 64080, Note_on_c, 0, 57, 80
4, 64320, Note_on_c, 0, 57, 0
4, 64320, Note_on_c, 0, 55, 0
4, 64320, Note_on_c, 0, 50, 80
4, 64560, Note_on_c, 0, 50, 0
4, 64560, Note_on_c, 0, 55, 80
4, 64560, Note_on_c, 0, 58, 80
4, 64800, Note_on_c, 0, 58, 0
4, 64800, Note_on_c, 0, 55, 0
4, 64800, Note_on_c, 0, 50, 80
4, 64800, Note_on_c, 0, 54, 80
4, 65040, Note_on_c, 0, 54, 0
4, 65040, Note_on_c, 0, 50, 0
4, 65040, Note_on_c, 0, 60, 80
4, 65040, Note_on_c, 0, 62, 80
4, 65280, Note_on_c, 0, 62, 0
4, 65280, Note_on_c, 0, 60, 0
4, 65280, Note_on_c, 0, 50, 80
4, 65280, Note_on_c, 0, 58, 80
4, 65520, Note_on_c, 0, 58, 0
4, 65520, Note_on_c, 0, 50, 0
4, 65520, Note_on_c, 0, 51, 80
4, 65520, Note_on_c, 0, 55, 80
4, 65760, Note_on_c, 0, 55, 0
4, 65760, Note_on_c, 0, 51, 0
4, 65760, Note_on_c, 0, 50, 80
4, 65760, Note_on_c, 0, 54, 80
4, 66000, Note_on_c, 0, 54, 0
4, 66000, Note_on_c, 0, 50, 0
4, 66000, Note_on_c, 0, 54, 80
4, 66000, Note_on_c, 0, 57, 80
4, 66240, Note_on_c, 0, 57, 0
4, 66240, Note_on_c, 0, 54, 0
4, 66240, Note_on_c, 0, 52, 80
4, 66240, Note_on_c, 0, 55, 80
4, 66480, Note_on_c, 0, 55, 0
4, 66480, Note_on_c, 0, 52, 0
4, 66480, Note_on_c, 0, 55, 80
4, 66480, Note_on_c, 0, 58, 80
4, 66720, Note_on_c, 0, 58, 0
4, 66720, Note_on_c, 0, 55, 0
4, 66720, Note_on_c, 0, 54, 80
4, 66720, Note_on_c, 0, 57, 80
4, 66960, Note_on_c, 0, 57, 0
4, 66960, Note_on_c, 0, 54, 0
4, 66960, Note_on_c, 0, 60, 80
4, 66960, Note_on_c, 0, 66, 80
4, 67200, Note_on_c, 0, 66, 0
4, 67200, Note_on_c, 0, 60, 0
4, 67200, Note_on_c, 0, 62, 80
4, 67200, Note_on_c, 0, 70, 80
4, 67440, Note_on_c, 0, 70, 0
4, 67440, Note_on_c, 0, 62, 0
4, 67440, Note_on_c, 0, 63, 80
4, 67440, Note_on_c, 0, 67, 80
4, 67680, Note_on_c, 0, 67, 0
4, 67680, Note_on_c, 0, 63, 0
4, 67680, Note_on_c, 0, 62, 80
4, 67680, Note_on_c, 0, 66, 80
4, 67920, Note_on_c, 0, 66, 0
4, 67920, Note_on_c, 0, 62, 0
4, 67920, Note_on_c, 0, 66, 80
4, 67920, Note_on_c, 0, 69, 80
4, 68160, Note_on_c, 0, 69, 0
4, 68160, Note_on_c, 0, 66, 0
4, 68160, Note_on_c, 0, 64, 80
4, 68160, Note_on_c, 0, 67, 80
4, 68400, Note_on_c, 0, 67, 0
4, 68400, Note_on_c, 0, 64, 0
4, 68400, Note_on_c, 0, 67, 80
4, 68400, Note_on_c, 0, 70, 80
4, 68640, Note_on_c, 0, 70, 0
4, 68640, Note_on_c, 0, 67, 0
4, 68640, Note_on_c, 0, 66, 80
4, 68640, Note_on_c, 0, 69, 80
4, 68880, Note_on_c, 0, 69, 0
4, 68880, Note_on_c, 0, 66, 0
4, 68880, Note_on_c, 0, 72, 80
4, 69120, Note_on_c, 0, 72, 0
4, 69120, Note_on_c, 0, 67, 67
4, 69120, Note_on_c, 0, 70, 67
4, 69360, Note_on_c, 0, 70, 0
4, 69360, Note_on_c, 0, 67, 0
4, 69360, Note_on_c, 0, 51, 67
4, 69360, Note_on_c, 0, 55, 67
4, 69600, Note_on_c, 0, 55, 0
4, 69600, Note_on_c, 0, 51, 0
4, 69600, Note_on_c, 0, 50, 67
4, 69600, Note_on_c, 0, 54, 67
4, 69840, Note_on_c, 0, 54, 0
4, 69840, Note_on_c, 0, 50, 0
4, 69840, Note_on_c, 0, 54, 67
4, 69840, Note_on_c, 0, 57, 67
4, 70080, Note_on_c, 0, 57, 0
4, 70080, Note_on_c, 0, 54, 0
4, 70080, Note_on_c, 0, 52, 67
4, 70080, Note_on_c, 0, 55, 67
4, 70320, Note_on_c, 0, 55, 0
4, 70320, Note_on_c, 0, 52, 0
4, 70320, Note_on_c, 0, 55, 67
4, 70320, Note_on_c, 0, 58, 67
4, 70560, Note_on_c, 0, 58, 0
4, 70560, Note_on_c, 0, 55, 0
4, 70560, Note_on_c, 0, 54, 67
4, 70560, Note_on_c, 0, 57, 67
4, 70800, Note_on_c, 0, 57, 0
4, 70800, Note_on_c, 0, 54, 0
4, 70800, Note_on_c, 0, 60, 67
4, 70800, Note_on_c, 0, 66, 67
4, 71040, Note_on_c, 0, 66, 0
4, 71040, Note_on_c, 0, 60, 0
4, 71040, Note_on_c, 0, 62, 67
4, 71040, Note_on_c, 0, 70, 67
4, 71280, Note_on_c, 0, 70, 0
4, 71280, Note_on_c, 0, 62, 0
4, 71280, Note_on_c, 0, 63, 67
4, 71280, Note_on_c, 0, 67, 67
4, 71520, Note_on_c, 0, 67, 0
4, 71520, Note_on_c, 0, 63, 0
4, 71520, Note_on_c, 0, 62, 67
4, 71520, Note_on_c, 0, 66, 67
4, 71760, Note_on_c, 0, 66, 0
4, 71760, Note_on_c, 0, 62, 0
4, 71760, Note_on_c, 0, 66, 67
4, 71760, Note_on_c, 0, 69, 67
4, 72000, Note_on_c, 0, 69, 0
4, 72000, Note_on_c, 0, 66, 0
4, 72000, Note_on_c, 0, 64, 67
4, 72000, Note_on_c, 0, 67, 67
4, 72240, Note_on_c, 0, 67, 0
4, 72240, Note_on_c, 0, 64, 0
4, 72240, Note_on_c, 0, 67, 67
4, 72240, Note_on_c, 0, 70, 67
4, 72480, Note_on_c, 0, 70, 0
4, 72480, Note_on_c, 0, 67, 0
4, 72480, Note_on_c, 0, 66, 67
4, 72480, Note_on_c, 0, 69, 67
4, 72720, Note_on_c, 0, 69, 0
4, 72720, Note_on_c, 0, 66, 0
4, 72720, Note_on_c, 0, 72, 67
4, 72960, Note_on_c, 0, 72, 0
4, 72960, Note_on_c, 0, 67, 54
4, 72960, Note_on_c, 0, 70, 54
4, 73200, Note_on_c, 0, 70, 0
4, 73200, Note_on_c, 0, 67, 0
4, 73200, Note_on_c, 0, 72, 54
4, 73200, Note_on_c, 0, 79, 54
4, 73440, Note_on_c, 0, 72, 0
4, 73440, Note_on_c, 0, 74, 54
4, 73680, Note_on_c, 0, 74, 0
4, 73680, Note_on_c, 0, 79, 0
4, 73680, Note_on_c, 0, 67, 54
4, 74160, Note_on_c, 0, 67, 0
4, 74160, Note_on_c, 0, 67, 54
4, 74160, Note_on_c, 0, 69, 54
4, 74160, Note_on_c, 0, 72, 54
4, 74400, Note_on_c, 0, 72, 0
4, 74400, Note_on_c, 0, 69, 0
4, 74400, Note_on_c, 0, 67, 0
4, 74400, Note_on_c, 0, 67, 54
4, 74400, Note_on_c, 0, 70, 54
4, 74640, Note_on_c, 0, 70, 0
4, 74640, Note_on_c, 0, 67, 0
4, 74640, Note_on_c, 0, 60, 54
4, 74640, Note_on_c, 0, 63, 54
4, 74640, Note_on_c, 0, 67, 54
4, 74880, Note_on_c, 0, 67, 0
4, 74880, Note_on_c, 0, 63, 0
4, 74880, Note_on_c, 0, 60, 0
4, 74880, Note_on_c, 0, 55, 54
4, 74880, Note_on_c, 0, 62, 54
4, 74880, Note_on_c, 0, 67, 54
4, 75120, Note_on_c, 0, 67, 0
4, 75120, Note_on_c, 0, 62, 0
4, 75120, Note_on_c, 0, 55, 0
4, 75120, Note_on_c, 0, 72, 54
4, 75120, Note_on_c, 0, 79, 54
4, 75360, Note_on_c, 0, 79, 0
4, 75360, Note_on_c, 0, 72, 0
4, 75360, Note_on_c, 0, 74, 54
4, 75360, Note_on_c, 0, 79, 54
4, 75600, Note_on_c, 0, 79, 0
4, 75600, Note_on_c, 0, 74, 0
4, 75600, Note_on_c, 0, 67, 54
4, 76080, Note_on_c, 0, 67, 0
4, 76080, Note_on_c, 0, 67, 54
4, 76080, Note_on_c, 0, 69, 54
4, 76080, Note_on_c, 0, 72, 54
4, 76320, Note_on_c, 0, 72, 0
4, 76320, Note_on_c, 0, 69, 0
4, 76320, Note_on_c, 0, 67, 0
4, 76320, Note_on_c, 0, 67, 54
4, 76320, Note_on_c, 0, 70, 54
4, 76560, Note_on_c, 0, 70, 0
4, 76560, Note_on_c, 0, 67, 0
4, 76560, Note_on_c, 0, 60, 54
4, 76560, Note_on_c, 0, 63, 54
4, 76560, Note_on_c, 0, 67, 54
4, 76800, Note_on_c, 0, 67, 0
4, 76800, Note_on_c, 0, 63, 0
4, 76800, Note_on_c, 0, 60, 0
4, 76800, Note_on_c, 0, 55, 54
4, 76800, Note_on_c, 0, 62, 54
4, 76800, Note_on_c, 0, 67, 54
4, 77040, Note_on_c, 0, 67, 0
4, 77040, Note_on_c, 0, 62, 0
4, 77040, Note_on_c, 0, 55, 0
4, 77040, Note_on_c, 0, 60, 80
4, 77040, Note_on_c, 0, 63, 80
4, 77040, Note_on_c, 0, 67, 80
4, 77280, Note_on_c, 0, 63, 0
4, 77280, Note_on_c, 0, 60, 0
4, 77280, Note_on_c, 0, 55, 54
4, 77280, Note_on_c, 0, 62, 54
4, 77520, Note_on_c, 0, 62, 0
4, 77520, Note_on_c, 0, 55, 0
4, 77520, Note_on_c, 0, 67, 0
4, 77520, Note_on_c, 0, 60, 80
4, 77520, Note_on_c, 0, 63, 80
4, 77520, Note_on_c, 0, 67, 80
4, 77760, Note_on_c, 0, 63, 0
4, 77760, Note_on_c, 0, 60, 0
4, 77760, Note_on_c, 0, 55, 54
4, 77760, Note_on_c, 0, 62, 54
4, 78000, Note_on_c, 0, 62, 0
4, 78000, Note_on_c, 0, 55, 0
4, 78000, Note_on_c, 0, 67, 0
4, 78000, Note_on_c, 0, 60, 80
4, 78000, Note_on_c, 0, 63, 80
4, 78000, Note_on_c, 0, 67, 80
4, 78240, Note_on_c, 0, 63, 0
4, 78240, Note_on_c, 0, 60, 0
4, 78240, Note_on_c, 0, 55, 54
4, 78240, Note_on_c, 0, 62, 54
4, 78480, Note_on_c, 0, 62, 0
4, 78480, Note_on_c, 0, 55, 0
4, 78480, Note_on_c, 0, 67, 0
4, 78480, Note_on_c, 0, 60, 80
4, 78480, Note_on_c, 0, 63, 80
4, 78480, Note_on_c, 0, 67, 80
4, 78720, Note_on_c, 0, 63, 0
4, 78720, Note_on_c, 0, 60, 0
4, 78720, Note_on_c, 0, 55, 54
4, 78720, Note_on_c, 0, 62, 54
4, 78960, Note_on_c, 0, 62, 0
4, 78960, Note_on_c, 0, 55, 0
4, 78960, Note_on_c, 0, 67, 0
4, 78960, Note_on_c, 0, 72, 80
4, 78960, Note_on_c, 0, 75, 80
4, 78960, Note_on_c, 0, 79, 80
4, 79200, Note_on_c, 0, 75, 0
4, 79200, Note_on_c, 0, 72, 0
4, 79200, Note_on_c, 0, 67, 54
4, 79200, Note_on_c, 0, 74, 54
4, 79440, Note_on_c, 0, 74, 0
4, 79440, Note_on_c, 0, 67, 0
4, 79440, Note_on_c, 0, 79, 0
4, 79440, Note_on_c, 0, 72, 80
4, 79440, Note_on_c, 0, 75, 80
4, 79440, Note_on_c, 0, 79, 80
4, 79680, Note_on_c, 0, 75, 0
4, 79680, Note_on_c, 0, 72, 0
4, 79680, Note_on_c, 0, 67, 54
4, 79680, Note_on_c, 0, 74, 54
4, 79920, Note_on_c, 0, 74, 0
4, 79920, Note_on_c, 0, 67, 0
4, 79920, Note_on_c, 0, 79, 0
4, 79920, Note_on_c, 0, 72, 80
4, 79920, Note_on_c, 0, 75, 80
4, 79920, Note_on_c, 0, 79, 80
4, 80160, Note_on_c, 0, 75, 0
4, 80160, Note_on_c, 0, 72, 0
4, 80160, Note_on_c, 0, 67, 54
4, 80160, Note_on_c, 0, 74, 54
4, 80400, Note_on_c, 0, 74, 0
4, 80400, Note_on_c, 0, 67, 0
4, 80400, Note_on_c, 0, 79, 0
4, 80400, Note_on_c, 0, 72, 80
4, 80400, Note_on_c, 0, 75, 80
4, 80400, Note_on_c, 0, 79, 80
4, 80640, Note_on_c, 0, 75, 0
4, 80640, Note_on_c, 0, 72, 0
4, 80640, Note_on_c, 0, 67, 54
4, 80640, Note_on_c, 0, 74, 54
4, 80880, Note_on_c, 0, 74, 0
4, 80880, Note_on_c, 0, 67, 0
4, 80880, Note_on_c, 0, 79, 0
4, 80880, Note_on_c, 0, 81, 54
4, 80927, Note_on_c, 0, 81, 0
4, 81120, Note_on_c, 0, 82, 54
4, 81167, Note_on_c, 0, 82, 0
4, 81360, Note_on_c, 0, 78, 54
4, 81407, Note_on_c, 0, 78, 0
4, 82800, Note_on_c, 0, 57, 54
4, 82847, Note_on_c, 0, 57, 0
4, 83040, Note_on_c, 0, 58, 54
4, 83087, Note_on_c, 0, 58, 0
4, 83280, Note_on_c, 0, 54, 54
4, 83327, Note_on_c, 0, 54, 0
4, 83520, Note_on_c, 0, 55, 54
4, 83567, Note_on_c, 0, 55, 0
4, 83760, Note_on_c, 0, 45, 54
4, 83807, Note_on_c, 0, 45, 0
4, 84000, Note_on_c, 0, 46, 54
4, 84047, Note_on_c, 0, 46, 0
4, 84240, Note_on_c, 0, 42, 54
4, 84287, Note_on_c, 0, 42, 0
4, 84480, Note_on_c, 0, 43, 54
4, 84527, Note_on_c, 0, 43, 0
4, 84720, Note_on_c, 0, 43, 54
4, 84767, Note_on_c, 0, 43, 0
4, 84960, Note_on_c, 0, 46, 54
4, 84960, Note_on_c, 0, 50, 54
4, 85007, Note_on_c, 0, 50, 0
4, 85007, Note_on_c, 0, 46, 0
4, 85200, Note_on_c, 0, 50, 54
4, 85200, Note_on_c, 0, 55, 54
4, 85247, Note_on_c, 0, 55, 0
4, 85247, Note_on_c, 0, 50, 0
4, 85440, Note_on_c, 0, 55, 54
4, 85440, Note_on_c, 0, 58, 54
4, 85440, Note_on_c, 0, 62, 54
4, 85487, Note_on_c, 0, 62, 0
4, 85487, Note_on_c, 0, 58, 0
4, 85487, Note_on_c, 0, 55, 0
4, 85680, Note_on_c, 0, 67, 54
4, 85727, Note_on_c, 0, 67, 0
4, 85727, End_track
5, 0, Start_track
5, 0, Title_t, "Grand Piano"
5, 0, Program_c, 0, 0
5, 0, Control_c, 0, 7, 115
5, 0, Control_c, 0, 10, 48
5, 16560, Note_on_c, 0, 58, 64
5, 16800, Note_on_c, 0, 58, 0
5, 16800, Note_on_c, 0, 55, 64
5, 17520, Note_on_c, 0, 55, 0
5, 17520, Note_on_c, 0, 55, 64
5, 17760, Note_on_c, 0, 55, 0
5, 17760, Note_on_c, 0, 51, 62
5, 18480, Note_on_c, 0, 51, 0
5, 18480, Note_on_c, 0, 51, 62
5, 18720, Note_on_c, 0, 51, 0
5, 18720, Note_on_c, 0, 48, 75
5, 19440, Note_on_c, 0, 48, 0
5, 19440, Note_on_c, 0, 48, 75
5, 19680, Note_on_c, 0, 48, 0
5, 19680, Note_on_c, 0, 60, 49
5, 20400, Note_on_c, 0, 60, 0
5, 20400, Note_on_c, 0, 60, 49
5, 20640, Note_on_c, 0, 60, 0
5, 20640, Note_on_c, 0, 57, 49
5, 21360, Note_on_c, 0, 57, 0
5, 21360, Note_on_c, 0, 57, 49
5, 21600, Note_on_c, 0, 57, 0
5, 21600, Note_on_c, 0, 53, 49
5, 22320, Note_on_c, 0, 53, 0
5, 22320, Note_on_c, 0, 53, 75
5, 22560, Note_on_c, 0, 53, 0
5, 22560, Note_on_c, 0, 50, 75
5, 23280, Note_on_c, 0, 50, 0
5, 23280, Note_on_c, 0, 50, 75
5, 23520, Note_on_c, 0, 50, 0
5, 65280, Note_on_c, 0, 43, 88
5, 67200, Note_on_c, 0, 43, 0
5, 67200, Note_on_c, 0, 55, 88
5, 69120, Note_on_c, 0, 55, 0
5, 69120, Note_on_c, 0, 43, 75
5, 71040, Note_on_c, 0, 43, 0
5, 71040, Note_on_c, 0, 55, 75
5, 72960, Note_on_c, 0, 55, 0
5, 73920, Note_on_c, 0, 67, 36
5, 74640, Note_on_c, 0, 67, 0
5, 75840, Note_on_c, 0, 63, 36
5, 76560, Note_on_c, 0, 63, 0
5, 76560, End_track
0, 0, End_of_file
