0, 0, Header, 1, 5, 480
1, 0, Start_track
1, 0, Title_t, "tchaikovsky sleeping beauty act2 16 scene"
1, 0, Copyright_t, "Adaptation for Disklavier pianos, by: Robert C. Kuhmann (c) 2012."
1, 0, Text_t, "Seq. (c) by: Segundo G. Yogore,  2006\012"
1, 0, Time_signature, 4, 2, 24, 8
1, 0, Key_signature, -3, "major"
1, 0, Tempo, 400000
1, 44160, Time_signature, 8, 2, 24, 8
1, 44160, End_track
2, 0, Start_track
2, 0, Title_t, "Grand Piano"
2, 0, Program_c, 0, 0
2, 0, Control_c, 0, 7, 115
2, 0, Control_c, 0, 10, 86
2, 0, Note_on_c, 0, 62, 83
2, 120, Note_on_c, 0, 62, 0
2, 120, Note_on_c, 0, 57, 83
2, 240, Note_on_c, 0, 57, 0
2, 240, Note_on_c, 0, 57, 83
2, 360, Note_on_c, 0, 57, 0
2, 360, Note_on_c, 0, 58, 83
2, 480, Note_on_c, 0, 58, 0
2, 480, Note_on_c, 0, 58, 83
2, 600, Note_on_c, 0, 58, 0
2, 600, Note_on_c, 0, 60, 83
2, 720, Note_on_c, 0, 60, 0
2, 720, Note_on_c, 0, 60, 83
2, 840, Note_on_c, 0, 60, 0
2, 840, Note_on_c, 0, 62, 83
2, 960, Note_on_c, 0, 62, 0
2, 960, Note_on_c, 0, 62, 83
2, 1080, Note_on_c, 0, 62, 0
2, 1080, Note_on_c, 0, 63, 83
2, 1200, Note_on_c, 0, 63, 0
2, 1200, Note_on_c, 0, 63, 83
2, 1320, Note_on_c, 0, 63, 0
2, 1320, Note_on_c, 0, 65, 83
2, 1440, Note_on_c, 0, 65, 0
2, 1440, Note_on_c, 0, 65, 83
2, 1560, Note_on_c, 0, 65, 0
2, 1560, Note_on_c, 0, 67, 83
2, 1680, Note_on_c, 0, 67, 0
2, 1680, Note_on_c, 0, 67, 83
2, 1800, Note_on_c, 0, 67, 0
2, 1800, Note_on_c, 0, 68, 83
2, 1920, Note_on_c, 0, 68, 0
2, 1920, Note_on_c, 0, 68, 83
2, 2040, Note_on_c, 0, 68, 0
2, 2040, Note_on_c, 0, 64, 83
2, 2160, Note_on_c, 0, 64, 0
2, 2160, Note_on_c, 0, 64, 83
2, 2280, Note_on_c, 0, 64, 0
2, 2280, Note_on_c, 0, 65, 83
2, 2400, Note_on_c, 0, 65, 0
2, 2400, Note_on_c, 0, 65, 83
2, 2520, Note_on_c, 0, 65, 0
2, 2520, Note_on_c, 0, 67, 83
2, 2640, Note_on_c, 0, 67, 0
2, 2640, Note_on_c, 0, 67, 83
2, 2760, Note_on_c, 0, 67, 0
2, 2760, Note_on_c, 0, 68, 83
2, 2880, Note_on_c, 0, 68, 0
2, 2880, Note_on_c, 0, 68, 83
2, 3000, Note_on_c, 0, 68, 0
2, 3000, Note_on_c, 0, 70, 83
2, 3120, Note_on_c, 0, 70, 0
2, 3120, Note_on_c, 0, 70, 83
2, 3240, Note_on_c, 0, 70, 0
2, 3240, Note_on_c, 0, 72, 83
2, 3360, Note_on_c, 0, 72, 0
2, 3360, Note_on_c, 0, 72, 83
2, 3480, Note_on_c, 0, 72, 0
2, 3480, Note_on_c, 0, 74, 83
2, 3600, Note_on_c, 0, 74, 0
2, 3600, Note_on_c, 0, 74, 83
2, 3720, Note_on_c, 0, 74, 0
2, 3720, Note_on_c, 0, 75, 83
2, 3840, Note_on_c, 0, 75, 0
2, 3840, Note_on_c, 0, 63, 109
2, 3840, Note_on_c, 0, 70, 109
2, 3840, Note_on_c, 0, 75, 109
2, 4440, Note_on_c, 0, 75, 0
2, 4440, Note_on_c, 0, 70, 0
2, 4440, Note_on_c, 0, 63, 0
2, 4440, Note_on_c, 0, 70, 83
2, 4560, Note_on_c, 0, 70, 0
2, 4560, Note_on_c, 0, 70, 83
2, 4680, Note_on_c, 0, 70, 0
2, 4680, Note_on_c, 0, 72, 83
2, 4800, Note_on_c, 0, 72, 0
2, 4800, Note_on_c, 0, 72, 83
2, 4920, Note_on_c, 0, 72, 0
2, 4920, Note_on_c, 0, 74, 83
2, 5040, Note_on_c, 0, 74, 0
2, 5040, Note_on_c, 0, 74, 83
2, 5160, Note_on_c, 0, 74, 0
2, 5160, Note_on_c, 0, 75, 83
2, 5280, Note_on_c, 0, 75, 0
2, 5280, Note_on_c, 0, 75, 83
2, 5400, Note_on_c, 0, 75, 0
2, 5400, Note_on_c, 0, 74, 83
2, 5520, Note_on_c, 0, 74, 0
2, 5520, Note_on_c, 0, 74, 83
2, 5640, Note_on_c, 0, 74, 0
2, 5640, Note_on_c, 0, 72, 83
2, 5760, Note_on_c, 0, 72, 0
2, 5760, Note_on_c, 0, 72, 83
2, 5880, Note_on_c, 0, 72, 0
2, 5880, Note_on_c, 0, 70, 83
2, 6000, Note_on_c, 0, 70, 0
2, 6000, Note_on_c, 0, 70, 83
2, 6120, Note_on_c, 0, 70, 0
2, 6120, Note_on_c, 0, 68, 83
2, 6240, Note_on_c, 0, 68, 0
2, 6240, Note_on_c, 0, 68, 83
2, 6360, Note_on_c, 0, 68, 0
2, 6360, Note_on_c, 0, 67, 83
2, 6480, Note_on_c, 0, 67, 0
2, 6480, Note_on_c, 0, 65, 83
2, 6600, Note_on_c, 0, 65, 0
2, 6600, Note_on_c, 0, 63, 83
2, 6720, Note_on_c, 0, 63, 0
2, 6720, Note_on_c, 0, 62, 109
2, 6720, Note_on_c, 0, 65, 109
2, 6720, Note_on_c, 0, 72, 109
2, 7200, Note_on_c, 0, 72, 0
2, 7200, Note_on_c, 0, 65, 0
2, 7200, Note_on_c, 0, 62, 0
2, 7200, Note_on_c, 0, 62, 83
2, 7200, Note_on_c, 0, 65, 83
2, 7200, Note_on_c, 0, 70, 83
2, 7680, Note_on_c, 0, 70, 0
2, 7680, Note_on_c, 0, 65, 0
2, 7680, Note_on_c, 0, 62, 0
2, 7680, Note_on_c, 0, 63, 109
2, 7680, Note_on_c, 0, 70, 109
2, 7680, Note_on_c, 0, 75, 109
2, 8280, Note_on_c, 0, 75, 0
2, 8280, Note_on_c, 0, 70, 0
2, 8280, Note_on_c, 0, 63, 0
2, 8280, Note_on_c, 0, 70, 83
2, 8400, Note_on_c, 0, 70, 0
2, 8400, Note_on_c, 0, 70, 83
2, 8520, Note_on_c, 0, 70, 0
2, 8520, Note_on_c, 0, 72, 83
2, 8640, Note_on_c, 0, 72, 0
2, 8640, Note_on_c, 0, 72, 83
2, 8760, Note_on_c, 0, 72, 0
2, 8760, Note_on_c, 0, 74, 83
2, 8880, Note_on_c, 0, 74, 0
2, 8880, Note_on_c, 0, 74, 83
2, 9000, Note_on_c, 0, 74, 0
2, 9000, Note_on_c, 0, 75, 83
2, 9120, Note_on_c, 0, 75, 0
2, 9120, Note_on_c, 0, 75, 83
2, 9240, Note_on_c, 0, 75, 0
2, 9240, Note_on_c, 0, 74, 83
2, 9360, Note_on_c, 0, 74, 0
2, 9360, Note_on_c, 0, 74, 83
2, 9480, Note_on_c, 0, 74, 0
2, 9480, Note_on_c, 0, 72, 83
2, 9600, Note_on_c, 0, 72, 0
2, 9600, Note_on_c, 0, 72, 83
2, 9720, Note_on_c, 0, 72, 0
2, 9720, Note_on_c, 0, 70, 83
2, 9840, Note_on_c, 0, 70, 0
2, 9840, Note_on_c, 0, 70, 83
2, 9960, Note_on_c, 0, 70, 0
2, 9960, Note_on_c, 0, 68, 83
2, 10080, Note_on_c, 0, 68, 0
2, 10080, Note_on_c, 0, 68, 83
2, 10200, Note_on_c, 0, 68, 0
2, 10200, Note_on_c, 0, 67, 83
2, 10320, Note_on_c, 0, 67, 0
2, 10320, Note_on_c, 0, 65, 83
2, 10440, Note_on_c, 0, 65, 0
2, 10440, Note_on_c, 0, 63, 83
2, 10560, Note_on_c, 0, 63, 0
2, 10560, Note_on_c, 0, 62, 109
2, 10560, Note_on_c, 0, 65, 109
2, 10560, Note_on_c, 0, 72, 109
2, 11040, Note_on_c, 0, 72, 0
2, 11040, Note_on_c, 0, 65, 0
2, 11040, Note_on_c, 0, 62, 0
2, 11040, Note_on_c, 0, 62, 83
2, 11040, Note_on_c, 0, 65, 83
2, 11040, Note_on_c, 0, 70, 83
2, 11520, Note_on_c, 0, 70, 0
2, 11520, Note_on_c, 0, 65, 0
2, 11520, Note_on_c, 0, 62, 0
2, 11520, Note_on_c, 0, 70, 83
2, 11640, Note_on_c, 0, 70, 0
2, 11640, Note_on_c, 0, 72, 83
2, 11760, Note_on_c, 0, 72, 0
2, 11760, Note_on_c, 0, 72, 83
2, 11880, Note_on_c, 0, 72, 0
2, 11880, Note_on_c, 0, 73, 83
2, 12000, Note_on_c, 0, 73, 0
2, 12000, Note_on_c, 0, 73, 109
2, 12360, Note_on_c, 0, 73, 0
2, 12360, Note_on_c, 0, 72, 83
2, 12480, Note_on_c, 0, 72, 0
2, 12480, Note_on_c, 0, 67, 83
2, 12600, Note_on_c, 0, 67, 0
2, 12600, Note_on_c, 0, 68, 83
2, 12720, Note_on_c, 0, 68, 0
2, 12720, Note_on_c, 0, 68, 83
2, 12840, Note_on_c, 0, 68, 0
2, 12840, Note_on_c, 0, 70, 83
2, 12960, Note_on_c, 0, 70, 0
2, 12960, Note_on_c, 0, 70, 109
2, 13320, Note_on_c, 0, 70, 0
2, 13320, Note_on_c, 0, 68, 83
2, 13440, Note_on_c, 0, 68, 0
2, 13440, Note_on_c, 0, 72, 83
2, 13560, Note_on_c, 0, 72, 0
2, 13560, Note_on_c, 0, 74, 83
2, 13680, Note_on_c, 0, 74, 0
2, 13680, Note_on_c, 0, 74, 83
2, 13800, Note_on_c, 0, 74, 0
2, 13800, Note_on_c, 0, 75, 83
2, 13920, Note_on_c, 0, 75, 0
2, 13920, Note_on_c, 0, 75, 109
2, 14280, Note_on_c, 0, 75, 0
2, 14280, Note_on_c, 0, 74, 83
2, 14400, Note_on_c, 0, 74, 0
2, 14400, Note_on_c, 0, 69, 83
2, 14520, Note_on_c, 0, 69, 0
2, 14520, Note_on_c, 0, 70, 83
2, 14640, Note_on_c, 0, 70, 0
2, 14640, Note_on_c, 0, 70, 83
2, 14760, Note_on_c, 0, 70, 0
2, 14760, Note_on_c, 0, 72, 83
2, 14880, Note_on_c, 0, 72, 0
2, 14880, Note_on_c, 0, 72, 109
2, 15240, Note_on_c, 0, 72, 0
2, 15240, Note_on_c, 0, 70, 83
2, 15360, Note_on_c, 0, 70, 0
2, 15360, Note_on_c, 0, 73, 96
2, 15480, Note_on_c, 0, 73, 0
2, 15480, Note_on_c, 0, 74, 96
2, 15600, Note_on_c, 0, 74, 0
2, 15600, Note_on_c, 0, 74, 96
2, 15720, Note_on_c, 0, 74, 0
2, 15720, Note_on_c, 0, 79, 96
2, 15840, Note_on_c, 0, 79, 0
2, 15840, Note_on_c, 0, 79, 96
2, 15960, Note_on_c, 0, 79, 0
2, 15960, Note_on_c, 0, 74, 96
2, 16080, Note_on_c, 0, 74, 0
2, 16080, Note_on_c, 0, 74, 96
2, 16200, Note_on_c, 0, 74, 0
2, 16200, Note_on_c, 0, 77, 96
2, 16320, Note_on_c, 0, 77, 0
2, 16320, Note_on_c, 0, 77, 96
2, 16440, Note_on_c, 0, 77, 0
2, 16440, Note_on_c, 0, 75, 96
2, 16560, Note_on_c, 0, 75, 0
2, 16560, Note_on_c, 0, 75, 96
2, 16680, Note_on_c, 0, 75, 0
2, 16680, Note_on_c, 0, 74, 96
2, 16800, Note_on_c, 0, 74, 0
2, 16800, Note_on_c, 0, 74, 96
2, 16920, Note_on_c, 0, 74, 0
2, 16920, Note_on_c, 0, 72, 96
2, 17040, Note_on_c, 0, 72, 0
2, 17040, Note_on_c, 0, 72, 96
2, 17160, Note_on_c, 0, 72, 0
2, 17160, Note_on_c, 0, 70, 96
2, 17280, Note_on_c, 0, 70, 0
2, 17280, Note_on_c, 0, 70, 96
2, 17400, Note_on_c, 0, 70, 0
2, 17400, Note_on_c, 0, 68, 96
2, 17520, Note_on_c, 0, 68, 0
2, 17520, Control_c, 0, 64, 127
2, 17520, Note_on_c, 0, 74, 96
2, 17640, Note_on_c, 0, 74, 0
2, 17640, Note_on_c, 0, 72, 96
2, 17760, Note_on_c, 0, 72, 0
2, 17760, Note_on_c, 0, 70, 96
2, 17880, Note_on_c, 0, 70, 0
2, 17880, Note_on_c, 0, 68, 96
2, 18000, Note_on_c, 0, 68, 0
2, 18000, Note_on_c, 0, 67, 96
2, 18120, Note_on_c, 0, 67, 0
2, 18120, Note_on_c, 0, 65, 96
2, 18240, Note_on_c, 0, 65, 0
2, 18240, Note_on_c, 0, 63, 96
2, 18360, Note_on_c, 0, 63, 0
2, 18360, Note_on_c, 0, 62, 96
2, 18480, Note_on_c, 0, 62, 0
2, 18480, Note_on_c, 0, 64, 96
2, 18600, Note_on_c, 0, 64, 0
2, 18600, Note_on_c, 0, 65, 96
2, 18720, Note_on_c, 0, 65, 0
2, 18720, Note_on_c, 0, 67, 96
2, 18840, Note_on_c, 0, 67, 0
2, 18840, Note_on_c, 0, 68, 96
2, 18960, Note_on_c, 0, 68, 0
2, 18960, Note_on_c, 0, 69, 96
2, 19080, Note_on_c, 0, 69, 0
2, 19080, Control_c, 0, 64, 0
2, 19080, Note_on_c, 0, 70, 96
2, 19200, Note_on_c, 0, 70, 0
2, 19200, Note_on_c, 0, 63, 109
2, 19200, Note_on_c, 0, 70, 109
2, 19200, Note_on_c, 0, 75, 109
2, 19800, Note_on_c, 0, 75, 0
2, 19800, Note_on_c, 0, 70, 0
2, 19800, Note_on_c, 0, 63, 0
2, 19800, Note_on_c, 0, 70, 83
2, 19920, Note_on_c, 0, 70, 0
2, 19920, Note_on_c, 0, 70, 83
2, 20040, Note_on_c, 0, 70, 0
2, 20040, Note_on_c, 0, 72, 83
2, 20160, Note_on_c, 0, 72, 0
2, 20160, Note_on_c, 0, 72, 83
2, 20280, Note_on_c, 0, 72, 0
2, 20280, Note_on_c, 0, 74, 83
2, 20400, Note_on_c, 0, 74, 0
2, 20400, Note_on_c, 0, 74, 83
2, 20520, Note_on_c, 0, 74, 0
2, 20520, Note_on_c, 0, 75, 83
2, 20640, Note_on_c, 0, 75, 0
2, 20640, Note_on_c, 0, 75, 83
2, 20760, Note_on_c, 0, 75, 0
2, 20760, Note_on_c, 0, 74, 83
2, 20880, Note_on_c, 0, 74, 0
2, 20880, Note_on_c, 0, 74, 83
2, 21000, Note_on_c, 0, 74, 0
2, 21000, Note_on_c, 0, 72, 83
2, 21120, Note_on_c, 0, 72, 0
2, 21120, Note_on_c, 0, 72, 83
2, 21240, Note_on_c, 0, 72, 0
2, 21240, Note_on_c, 0, 70, 83
2, 21360, Note_on_c, 0, 70, 0
2, 21360, Note_on_c, 0, 70, 83
2, 21480, Note_on_c, 0, 70, 0
2, 21480, Note_on_c, 0, 68, 83
2, 21600, Note_on_c, 0, 68, 0
2, 21600, Note_on_c, 0, 68, 83
2, 21720, Note_on_c, 0, 68, 0
2, 21720, Note_on_c, 0, 67, 83
2, 21840, Note_on_c, 0, 67, 0
2, 21840, Note_on_c, 0, 65, 83
2, 21960, Note_on_c, 0, 65, 0
2, 21960, Note_on_c, 0, 63, 83
2, 22080, Note_on_c, 0, 63, 0
2, 22080, Note_on_c, 0, 62, 109
2, 22080, Note_on_c, 0, 65, 109
2, 22080, Note_on_c, 0, 72, 109
2, 22560, Note_on_c, 0, 72, 0
2, 22560, Note_on_c, 0, 65, 0
2, 22560, Note_on_c, 0, 62, 0
2, 22560, Note_on_c, 0, 62, 83
2, 22560, Note_on_c, 0, 65, 83
2, 22560, Note_on_c, 0, 70, 83
2, 23040, Note_on_c, 0, 70, 0
2, 23040, Note_on_c, 0, 65, 0
2, 23040, Note_on_c, 0, 62, 0
2, 23040, Note_on_c, 0, 63, 109
2, 23040, Note_on_c, 0, 70, 109
2, 23040, Note_on_c, 0, 75, 109
2, 23640, Note_on_c, 0, 75, 0
2, 23640, Note_on_c, 0, 70, 0
2, 23640, Note_on_c, 0, 63, 0
2, 23640, Note_on_c, 0, 70, 83
2, 23760, Note_on_c, 0, 70, 0
2, 23760, Note_on_c, 0, 70, 83
2, 23880, Note_on_c, 0, 70, 0
2, 23880, Note_on_c, 0, 72, 83
2, 24000, Note_on_c, 0, 72, 0
2, 24000, Note_on_c, 0, 72, 83
2, 24120, Note_on_c, 0, 72, 0
2, 24120, Note_on_c, 0, 74, 83
2, 24240, Note_on_c, 0, 74, 0
2, 24240, Note_on_c, 0, 74, 83
2, 24360, Note_on_c, 0, 74, 0
2, 24360, Note_on_c, 0, 75, 83
2, 24480, Note_on_c, 0, 75, 0
2, 24480, Note_on_c, 0, 75, 83
2, 24600, Note_on_c, 0, 75, 0
2, 24600, Note_on_c, 0, 74, 83
2, 24720, Note_on_c, 0, 74, 0
2, 24720, Note_on_c, 0, 74, 83
2, 24840, Note_on_c, 0, 74, 0
2, 24840, Note_on_c, 0, 72, 83
2, 24960, Note_on_c, 0, 72, 0
2, 24960, Note_on_c, 0, 72, 83
2, 25080, Note_on_c, 0, 72, 0
2, 25080, Note_on_c, 0, 70, 83
2, 25200, Note_on_c, 0, 70, 0
2, 25200, Note_on_c, 0, 70, 83
2, 25320, Note_on_c, 0, 70, 0
2, 25320, Note_on_c, 0, 68, 83
2, 25440, Note_on_c, 0, 68, 0
2, 25440, Note_on_c, 0, 68, 83
2, 25560, Note_on_c, 0, 68, 0
2, 25560, Note_on_c, 0, 67, 83
2, 25680, Note_on_c, 0, 67, 0
2, 25680, Note_on_c, 0, 65, 83
2, 25800, Note_on_c, 0, 65, 0
2, 25800, Note_on_c, 0, 63, 83
2, 25920, Note_on_c, 0, 63, 0
2, 25920, Note_on_c, 0, 62, 109
2, 25920, Note_on_c, 0, 65, 109
2, 25920, Note_on_c, 0, 72, 109
2, 26400, Note_on_c, 0, 72, 0
2, 26400, Note_on_c, 0, 65, 0
2, 26400, Note_on_c, 0, 62, 0
2, 26400, Note_on_c, 0, 62, 83
2, 26400, Note_on_c, 0, 65, 83
2, 26400, Note_on_c, 0, 70, 83
2, 26880, Note_on_c, 0, 70, 0
2, 26880, Note_on_c, 0, 65, 0
2, 26880, Note_on_c, 0, 62, 0
2, 26880, Note_on_c, 0, 70, 83
2, 27000, Note_on_c, 0, 70, 0
2, 27000, Note_on_c, 0, 72, 83
2, 27120, Note_on_c, 0, 72, 0
2, 27120, Note_on_c, 0, 72, 83
2, 27240, Note_on_c, 0, 72, 0
2, 27240, Note_on_c, 0, 73, 83
2, 27360, Note_on_c, 0, 73, 0
2, 27360, Note_on_c, 0, 73, 109
2, 27720, Note_on_c, 0, 73, 0
2, 27720, Note_on_c, 0, 72, 83
2, 27840, Note_on_c, 0, 72, 0
2, 27840, Note_on_c, 0, 67, 83
2, 27960, Note_on_c, 0, 67, 0
2, 27960, Note_on_c, 0, 68, 83
2, 28080, Note_on_c, 0, 68, 0
2, 28080, Note_on_c, 0, 68, 83
2, 28200, Note_on_c, 0, 68, 0
2, 28200, Note_on_c, 0, 70, 83
2, 28320, Note_on_c, 0, 70, 0
2, 28320, Note_on_c, 0, 70, 109
2, 28680, Note_on_c, 0, 70, 0
2, 28680, Note_on_c, 0, 68, 83
2, 28800, Note_on_c, 0, 68, 0
2, 28800, Note_on_c, 0, 72, 83
2, 28920, Note_on_c, 0, 72, 0
2, 28920, Note_on_c, 0, 74, 83
2, 29040, Note_on_c, 0, 74, 0
2, 29040, Note_on_c, 0, 74, 83
2, 29160, Note_on_c, 0, 74, 0
2, 29160, Note_on_c, 0, 75, 83
2, 29280, Note_on_c, 0, 75, 0
2, 29280, Note_on_c, 0, 75, 109
2, 29640, Note_on_c, 0, 75, 0
2, 29640, Note_on_c, 0, 74, 83
2, 29760, Note_on_c, 0, 74, 0
2, 29760, Note_on_c, 0, 69, 83
2, 29880, Note_on_c, 0, 69, 0
2, 29880, Note_on_c, 0, 70, 83
2, 30000, Note_on_c, 0, 70, 0
2, 30000, Note_on_c, 0, 70, 83
2, 30120, Note_on_c, 0, 70, 0
2, 30120, Note_on_c, 0, 72, 83
2, 30240, Note_on_c, 0, 72, 0
2, 30240, Note_on_c, 0, 72, 109
2, 30600, Note_on_c, 0, 72, 0
2, 30600, Note_on_c, 0, 70, 83
2, 30720, Note_on_c, 0, 70, 0
2, 30720, Note_on_c, 0, 70, 96
2, 30840, Note_on_c, 0, 70, 0
2, 30840, Note_on_c, 0, 72, 96
2, 30960, Note_on_c, 0, 72, 0
2, 30960, Note_on_c, 0, 72, 96
2, 31080, Note_on_c, 0, 72, 0
2, 31080, Note_on_c, 0, 73, 96
2, 31200, Note_on_c, 0, 73, 0
2, 31200, Note_on_c, 0, 73, 96
2, 31320, Note_on_c, 0, 73, 0
2, 31320, Note_on_c, 0, 71, 96
2, 31440, Note_on_c, 0, 71, 0
2, 31440, Note_on_c, 0, 71, 96
2, 31560, Note_on_c, 0, 71, 0
2, 31560, Note_on_c, 0, 72, 96
2, 31680, Note_on_c, 0, 72, 0
2, 31680, Note_on_c, 0, 72, 96
2, 31800, Note_on_c, 0, 72, 0
2, 31800, Note_on_c, 0, 74, 96
2, 31920, Note_on_c, 0, 74, 0
2, 31920, Note_on_c, 0, 74, 96
2, 32040, Note_on_c, 0, 74, 0
2, 32040, Note_on_c, 0, 75, 96
2, 32160, Note_on_c, 0, 75, 0
2, 32160, Note_on_c, 0, 75, 96
2, 32280, Note_on_c, 0, 75, 0
2, 32280, Note_on_c, 0, 73, 96
2, 32400, Note_on_c, 0, 73, 0
2, 32400, Note_on_c, 0, 73, 96
2, 32520, Note_on_c, 0, 73, 0
2, 32520, Note_on_c, 0, 74, 96
2, 32640, Note_on_c, 0, 74, 0
2, 32640, Note_on_c, 0, 74, 96
2, 32760, Note_on_c, 0, 74, 0
2, 32760, Note_on_c, 0, 75, 96
2, 32880, Note_on_c, 0, 75, 0
2, 32880, Note_on_c, 0, 75, 96
2, 33000, Note_on_c, 0, 75, 0
2, 33000, Note_on_c, 0, 77, 96
2, 33120, Note_on_c, 0, 77, 0
2, 33120, Note_on_c, 0, 77, 96
2, 33240, Note_on_c, 0, 77, 0
2, 33240, Note_on_c, 0, 74, 96
2, 33360, Note_on_c, 0, 74, 0
2, 33360, Note_on_c, 0, 74, 96
2, 33480, Note_on_c, 0, 74, 0
2, 33480, Note_on_c, 0, 75, 96
2, 33600, Note_on_c, 0, 75, 0
2, 33600, Note_on_c, 0, 77, 96
2, 33720, Note_on_c, 0, 77, 0
2, 33720, Note_on_c, 0, 74, 96
2, 33840, Note_on_c, 0, 74, 0
2, 33840, Note_on_c, 0, 74, 96
2, 33960, Note_on_c, 0, 74, 0
2, 33960, Note_on_c, 0, 75, 96
2, 34080, Note_on_c, 0, 75, 0
2, 34080, Note_on_c, 0, 77, 96
2, 34200, Note_on_c, 0, 77, 0
2, 34200, Note_on_c, 0, 74, 96
2, 34320, Note_on_c, 0, 74, 0
2, 34320, Note_on_c, 0, 74, 96
2, 34440, Note_on_c, 0, 74, 0
2, 34440, Note_on_c, 0, 75, 96
2, 34560, Note_on_c, 0, 75, 0
2, 34560, Note_on_c, 0, 77, 96
2, 34680, Note_on_c, 0, 77, 0
2, 34680, Note_on_c, 0, 74, 96
2, 34800, Note_on_c, 0, 74, 0
2, 34800, Note_on_c, 0, 74, 96
2, 34920, Note_on_c, 0, 74, 0
2, 34920, Note_on_c, 0, 75, 96
2, 35040, Note_on_c, 0, 75, 0
2, 35040, Note_on_c, 0, 77, 96
2, 35160, Note_on_c, 0, 77, 0
2, 35160, Note_on_c, 0, 74, 96
2, 35280, Note_on_c, 0, 74, 0
2, 35280, Note_on_c, 0, 74, 96
2, 35400, Note_on_c, 0, 74, 0
2, 35400, Note_on_c, 0, 75, 96
2, 35520, Note_on_c, 0, 75, 0
2, 35520, Note_on_c, 0, 77, 96
2, 35640, Note_on_c, 0, 77, 0
2, 35640, Note_on_c, 0, 74, 96
2, 35760, Note_on_c, 0, 74, 0
2, 35760, Note_on_c, 0, 74, 96
2, 35880, Note_on_c, 0, 74, 0
2, 35880, Note_on_c, 0, 75, 96
2, 36000, Note_on_c, 0, 75, 0
2, 36000, Note_on_c, 0, 77, 96
2, 36120, Note_on_c, 0, 77, 0
2, 36120, Note_on_c, 0, 74, 96
2, 36240, Note_on_c, 0, 74, 0
2, 36240, Note_on_c, 0, 74, 96
2, 36360, Note_on_c, 0, 74, 0
2, 36360, Note_on_c, 0, 75, 96
2, 36480, Note_on_c, 0, 75, 0
2, 36480, Note_on_c, 0, 80, 96
2, 36600, Note_on_c, 0, 80, 0
2, 36600, Note_on_c, 0, 78, 96
2, 36720, Note_on_c, 0, 78, 0
2, 36720, Note_on_c, 0, 78, 96
2, 36840, Note_on_c, 0, 78, 0
2, 36840, Note_on_c, 0, 79, 96
2, 36960, Note_on_c, 0, 79, 0
2, 36960, Note_on_c, 0, 80, 96
2, 37080, Note_on_c, 0, 80, 0
2, 37080, Note_on_c, 0, 78, 96
2, 37200, Note_on_c, 0, 78, 0
2, 37200, Note_on_c, 0, 78, 96
2, 37320, Note_on_c, 0, 78, 0
2, 37320, Note_on_c, 0, 79, 96
2, 37440, Note_on_c, 0, 79, 0
2, 37440, Note_on_c, 0, 80, 96
2, 37560, Note_on_c, 0, 80, 0
2, 37560, Note_on_c, 0, 78, 96
2, 37680, Note_on_c, 0, 78, 0
2, 37680, Note_on_c, 0, 78, 96
2, 37800, Note_on_c, 0, 78, 0
2, 37800, Note_on_c, 0, 79, 96
2, 37920, Note_on_c, 0, 79, 0
2, 37920, Note_on_c, 0, 80, 96
2, 38040, Note_on_c, 0, 80, 0
2, 38040, Note_on_c, 0, 78, 96
2, 38160, Note_on_c, 0, 78, 0
2, 38160, Note_on_c, 0, 78, 96
2, 38280, Note_on_c, 0, 78, 0
2, 38280, Note_on_c, 0, 79, 96
2, 38400, Note_on_c, 0, 79, 0
2, 38400, Note_on_c, 0, 84, 96
2, 38520, Note_on_c, 0, 84, 0
2, 38520, Note_on_c, 0, 81, 96
2, 38640, Note_on_c, 0, 81, 0
2, 38640, Note_on_c, 0, 81, 96
2, 38760, Note_on_c, 0, 81, 0
2, 38760, Note_on_c, 0, 82, 96
2, 38880, Note_on_c, 0, 82, 0
2, 38880, Note_on_c, 0, 84, 96
2, 39000, Note_on_c, 0, 84, 0
2, 39000, Note_on_c, 0, 81, 96
2, 39120, Note_on_c, 0, 81, 0
2, 39120, Note_on_c, 0, 81, 96
2, 39240, Note_on_c, 0, 81, 0
2, 39240, Note_on_c, 0, 82, 96
2, 39360, Note_on_c, 0, 82, 0
2, 39360, Note_on_c, 0, 87, 96
2, 39480, Note_on_c, 0, 87, 0
2, 39480, Note_on_c, 0, 85, 96
2, 39600, Note_on_c, 0, 85, 0
2, 39600, Note_on_c, 0, 85, 96
2, 39720, Note_on_c, 0, 85, 0
2, 39720, Note_on_c, 0, 86, 96
2, 39840, Note_on_c, 0, 86, 0
2, 39840, Note_on_c, 0, 87, 96
2, 39960, Note_on_c, 0, 87, 0
2, 39960, Note_on_c, 0, 85, 96
2, 40080, Note_on_c, 0, 85, 0
2, 40080, Note_on_c, 0, 85, 96
2, 40200, Note_on_c, 0, 85, 0
2, 40200, Note_on_c, 0, 86, 96
2, 40320, Note_on_c, 0, 86, 0
2, 40320, Note_on_c, 0, 88, 96
2, 40440, Note_on_c, 0, 88, 0
2, 40440, Note_on_c, 0, 85, 96
2, 40560, Note_on_c, 0, 85, 0
2, 40560, Note_on_c, 0, 85, 96
2, 40680, Note_on_c, 0, 85, 0
2, 40680, Note_on_c, 0, 86, 96
2, 40800, Note_on_c, 0, 86, 0
2, 40800, Note_on_c, 0, 88, 96
2, 40920, Note_on_c, 0, 88, 0
2, 40920, Note_on_c, 0, 85, 96
2, 41040, Note_on_c, 0, 85, 0
2, 41040, Note_on_c, 0, 85, 96
2, 41160, Note_on_c, 0, 85, 0
2, 41160, Note_on_c, 0, 86, 96
2, 41280, Note_on_c, 0, 86, 0
2, 41280, Note_on_c, 0, 88, 96
2, 41400, Note_on_c, 0, 88, 0
2, 41400, Note_on_c, 0, 85, 96
2, 41520, Note_on_c, 0, 85, 0
2, 41520, Note_on_c, 0, 85, 96
2, 41640, Note_on_c, 0, 85, 0
2, 41640, Note_on_c, 0, 86, 96
2, 41760, Note_on_c, 0, 86, 0
2, 41760, Note_on_c, 0, 88, 96
2, 41880, Note_on_c, 0, 88, 0
2, 41880, Note_on_c, 0, 85, 96
2, 42000, Note_on_c, 0, 85, 0
2, 42000, Note_on_c, 0, 85, 96
2, 42120, Note_on_c, 0, 85, 0
2, 42120, Note_on_c, 0, 86, 96
2, 42240, Note_on_c, 0, 86, 0
2, 42240, Note_on_c, 0, 88, 96
2, 42360, Note_on_c, 0, 88, 0
2, 42360, Note_on_c, 0, 85, 96
2, 42480, Note_on_c, 0, 85, 0
2, 42480, Note_on_c, 0, 85, 96
2, 42600, Note_on_c, 0, 85, 0
2, 42600, Note_on_c, 0, 86, 96
2, 42720, Note_on_c, 0, 86, 0
2, 42720, Note_on_c, 0, 93, 96
2, 42840, Note_on_c, 0, 93, 0
2, 42840, Note_on_c, 0, 90, 96
2, 42960, Note_on_c, 0, 90, 0
2, 42960, Note_on_c, 0, 86, 96
2, 43080, Note_on_c, 0, 86, 0
2, 43080, Note_on_c, 0, 85, 96
2, 43200, Note_on_c, 0, 85, 0
2, 43200, Note_on_c, 0, 84, 96
2, 43320, Note_on_c, 0, 84, 0
2, 43320, Note_on_c, 0, 81, 96
2, 43440, Note_on_c, 0, 81, 0
2, 43440, Note_on_c, 0, 78, 96
2, 43560, Note_on_c, 0, 78, 0
2, 43560, Note_on_c, 0, 76, 96
2, 43680, Note_on_c, 0, 76, 0
2, 43680, Note_on_c, 0, 74, 96
2, 43800, Note_on_c, 0, 74, 0
2, 43800, Note_on_c, 0, 73, 96
2, 43920, Note_on_c, 0, 73, 0
2, 43920, Note_on_c, 0, 72, 96
2, 44040, Note_on_c, 0, 72, 0
2, 44040, Note_on_c, 0, 69, 96
2, 44160, Note_on_c, 0, 69, 0
2, 44160, Note_on_c, 0, 66, 96
2, 44280, Note_on_c, 0, 66, 0
2, 44280, Note_on_c, 0, 61, 96
2, 44400, Note_on_c, 0, 61, 0
2, 44400, Note_on_c, 0, 62, 96
2, 44520, Note_on_c, 0, 62, 0
2, 44520, Note_on_c, 0, 66, 96
2, 44640, Note_on_c, 0, 66, 0
2, 44640, Note_on_c, 0, 69, 96
2, 44760, Note_on_c, 0, 69, 0
2, 44760, Note_on_c, 0, 74, 96
2, 44880, Note_on_c, 0, 74, 0
2, 44880, Note_on_c, 0, 78, 96
2, 45000, Note_on_c, 0, 78, 0
2, 45000, Note_on_c, 0, 81, 96
2, 45120, Note_on_c, 0, 81, 0
2, 45120, Note_on_c, 0, 74, 122
2, 45120, Note_on_c, 0, 86, 122
2, 45600, Note_on_c, 0, 86, 0
2, 45600, Note_on_c, 0, 74, 0
2, 45600, Control_c, 0, 64, 127
2, 47520, Control_c, 0, 64, 0
2, 47520, End_track
3, 0, Start_track
3, 0, Title_t, "Grand Piano"
3, 0, Program_c, 0, 0
3, 0, Control_c, 0, 7, 115
3, 0, Control_c, 0, 10, 80
3, 6240, Note_on_c, 0, 70, 106
3, 6480, Note_on_c, 0, 70, 0
3, 10080, Note_on_c, 0, 70, 106
3, 10320, Note_on_c, 0, 70, 0
3, 21600, Note_on_c, 0, 70, 106
3, 21840, Note_on_c, 0, 70, 0
3, 25440, Note_on_c, 0, 70, 106
3, 25680, Note_on_c, 0, 70, 0
3, 25680, End_track
4, 0, Start_track
4, 0, Title_t, "Grand Piano"
4, 0, Program_c, 0, 0
4, 0, Control_c, 0, 7, 115
4, 0, Control_c, 0, 10, 41
4, 3840, Note_on_c, 0, 31, 104
4, 3960, Note_on_c, 0, 31, 0
4, 3960, Note_on_c, 0, 43, 78
4, 4080, Note_on_c, 0, 43, 0
4, 4080, Note_on_c, 0, 31, 78
4, 4200, Note_on_c, 0, 31, 0
4, 4200, Note_on_c, 0, 43, 78
4, 4320, Note_on_c, 0, 43, 0
4, 4320, Note_on_c, 0, 31, 78
4, 4560, Note_on_c, 0, 31, 0
4, 5040, Note_on_c, 0, 43, 78
4, 5040, Note_on_c, 0, 51, 78
4, 5040, Note_on_c, 0, 58, 78
4, 5280, Note_on_c, 0, 58, 0
4, 5280, Note_on_c, 0, 51, 0
4, 5280, Note_on_c, 0, 43, 0
4, 5280, Note_on_c, 0, 55, 78
4, 5520, Note_on_c, 0, 55, 0
4, 5520, Note_on_c, 0, 43, 78
4, 5520, Note_on_c, 0, 51, 78
4, 5520, Note_on_c, 0, 58, 78
4, 5760, Note_on_c, 0, 58, 0
4, 5760, Note_on_c, 0, 51, 0
4, 5760, Note_on_c, 0, 43, 0
4, 5760, Note_on_c, 0, 63, 78
4, 6000, Note_on_c, 0, 63, 0
4, 6000, Note_on_c, 0, 67, 78
4, 6240, Note_on_c, 0, 67, 0
4, 6480, Note_on_c, 0, 43, 78
4, 6720, Note_on_c, 0, 43, 0
4, 6720, Note_on_c, 0, 44, 78
4, 6960, Note_on_c, 0, 44, 0
4, 6960, Note_on_c, 0, 56, 104
4, 7440, Note_on_c, 0, 56, 0
4, 7440, Note_on_c, 0, 44, 78
4, 7680, Note_on_c, 0, 44, 0
4, 7680, Note_on_c, 0, 31, 104
4, 7800, Note_on_c, 0, 31, 0
4, 7800, Note_on_c, 0, 43, 78
4, 7920, Note_on_c, 0, 43, 0
4, 7920, Note_on_c, 0, 31, 78
4, 8040, Note_on_c, 0, 31, 0
4, 8040, Note_on_c, 0, 43, 78
4, 8160, Note_on_c, 0, 43, 0
4, 8160, Note_on_c, 0, 31, 78
4, 8400, Note_on_c, 0, 31, 0
4, 8880, Note_on_c, 0, 43, 78
4, 8880, Note_on_c, 0, 51, 78
4, 8880, Note_on_c, 0, 58, 78
4, 9120, Note_on_c, 0, 58, 0
4, 9120, Note_on_c, 0, 51, 0
4, 9120, Note_on_c, 0, 43, 0
4, 9120, Note_on_c, 0, 55, 78
4, 9360, Note_on_c, 0, 55, 0
4, 9360, Note_on_c, 0, 43, 78
4, 9360, Note_on_c, 0, 51, 78
4, 9360, Note_on_c, 0, 58, 78
4, 9600, Note_on_c, 0, 58, 0
4, 9600, Note_on_c, 0, 51, 0
4, 9600, Note_on_c, 0, 43, 0
4, 9600, Note_on_c, 0, 63, 78
4, 9840, Note_on_c, 0, 63, 0
4, 9840, Note_on_c, 0, 67, 78
4, 10080, Note_on_c, 0, 67, 0
4, 10320, Note_on_c, 0, 43, 78
4, 10560, Note_on_c, 0, 43, 0
4, 10560, Note_on_c, 0, 44, 78
4, 10800, Note_on_c, 0, 44, 0
4, 10800, Note_on_c, 0, 56, 104
4, 11280, Note_on_c, 0, 56, 0
4, 11280, Note_on_c, 0, 44, 78
4, 11520, Note_on_c, 0, 44, 0
4, 11520, Note_on_c, 0, 55, 65
4, 11520, Note_on_c, 0, 61, 65
4, 11520, Note_on_c, 0, 64, 65
4, 11760, Note_on_c, 0, 64, 0
4, 11760, Note_on_c, 0, 61, 0
4, 11760, Note_on_c, 0, 55, 0
4, 11760, Note_on_c, 0, 55, 65
4, 11760, Note_on_c, 0, 58, 65
4, 11760, Note_on_c, 0, 64, 65
4, 12000, Note_on_c, 0, 64, 0
4, 12000, Note_on_c, 0, 58, 0
4, 12000, Note_on_c, 0, 55, 0
4, 12240, Note_on_c, 0, 53, 65
4, 12240, Note_on_c, 0, 58, 65
4, 12240, Note_on_c, 0, 65, 65
4, 12480, Note_on_c, 0, 65, 0
4, 12480, Note_on_c, 0, 58, 0
4, 12480, Note_on_c, 0, 53, 0
4, 12480, Note_on_c, 0, 52, 65
4, 12480, Note_on_c, 0, 58, 65
4, 12480, Note_on_c, 0, 60, 65
4, 12720, Note_on_c, 0, 60, 0
4, 12720, Note_on_c, 0, 58, 0
4, 12720, Note_on_c, 0, 52, 0
4, 12720, Note_on_c, 0, 52, 65
4, 12720, Note_on_c, 0, 58, 65
4, 12720, Note_on_c, 0, 60, 65
4, 12960, Note_on_c, 0, 60, 0
4, 12960, Note_on_c, 0, 58, 0
4, 12960, Note_on_c, 0, 52, 0
4, 13200, Note_on_c, 0, 53, 65
4, 13200, Note_on_c, 0, 56, 65
4, 13200, Note_on_c, 0, 60, 65
4, 13440, Note_on_c, 0, 60, 0
4, 13440, Note_on_c, 0, 56, 0
4, 13440, Note_on_c, 0, 53, 0
4, 13440, Note_on_c, 0, 57, 65
4, 13440, Note_on_c, 0, 60, 65
4, 13440, Note_on_c, 0, 65, 65
4, 13680, Note_on_c, 0, 65, 0
4, 13680, Note_on_c, 0, 60, 0
4, 13680, Note_on_c, 0, 57, 0
4, 13680, Note_on_c, 0, 57, 65
4, 13680, Note_on_c, 0, 60, 65
4, 13680, Note_on_c, 0, 66, 65
4, 13920, Note_on_c, 0, 66, 0
4, 13920, Note_on_c, 0, 60, 0
4, 13920, Note_on_c, 0, 57, 0
4, 14160, Note_on_c, 0, 55, 65
4, 14160, Note_on_c, 0, 60, 65
4, 14160, Note_on_c, 0, 67, 65
4, 14400, Note_on_c, 0, 67, 0
4, 14400, Note_on_c, 0, 60, 0
4, 14400, Note_on_c, 0, 55, 0
4, 14400, Note_on_c, 0, 54, 65
4, 14400, Note_on_c, 0, 60, 65
4, 14400, Note_on_c, 0, 62, 65
4, 14640, Note_on_c, 0, 62, 0
4, 14640, Note_on_c, 0, 60, 0
4, 14640, Note_on_c, 0, 54, 0
4, 14640, Note_on_c, 0, 54, 65
4, 14640, Note_on_c, 0, 60, 65
4, 14640, Note_on_c, 0, 62, 65
4, 14880, Note_on_c, 0, 62, 0
4, 14880, Note_on_c, 0, 60, 0
4, 14880, Note_on_c, 0, 54, 0
4, 15120, Note_on_c, 0, 58, 65
4, 15120, Note_on_c, 0, 62, 65
4, 15360, Note_on_c, 0, 62, 0
4, 15360, Note_on_c, 0, 58, 0
4, 15600, Note_on_c, 0, 46, 78
4, 15600, Note_on_c, 0, 50, 78
4, 15600, Note_on_c, 0, 55, 78
4, 15600, Note_on_c, 0, 58, 78
4, 16080, Note_on_c, 0, 58, 0
4, 16080, Note_on_c, 0, 46, 0
4, 16080, Note_on_c, 0, 50, 0
4, 16080, Note_on_c, 0, 55, 0
4, 16080, Note_on_c, 0, 47, 78
4, 16080, Note_on_c, 0, 50, 78
4, 16080, Note_on_c, 0, 55, 78
4, 16080, Note_on_c, 0, 59, 78
4, 16560, Note_on_c, 0, 59, 0
4, 16560, Note_on_c, 0, 47, 0
4, 16560, Note_on_c, 0, 50, 0
4, 16560, Note_on_c, 0, 55, 0
4, 16560, Note_on_c, 0, 48, 78
4, 16560, Note_on_c, 0, 51, 78
4, 16560, Note_on_c, 0, 55, 78
4, 16560, Note_on_c, 0, 60, 78
4, 16800, Note_on_c, 0, 60, 0
4, 16800, Note_on_c, 0, 48, 0
4, 16800, Note_on_c, 0, 51, 0
4, 16800, Note_on_c, 0, 55, 0
4, 17040, Note_on_c, 0, 51, 78
4, 17040, Note_on_c, 0, 55, 78
4, 17040, Note_on_c, 0, 63, 78
4, 17280, Note_on_c, 0, 63, 0
4, 17280, Note_on_c, 0, 55, 0
4, 17280, Note_on_c, 0, 51, 0
4, 17520, Note_on_c, 0, 53, 78
4, 17520, Note_on_c, 0, 56, 78
4, 17520, Note_on_c, 0, 65, 78
4, 17760, Note_on_c, 0, 65, 0
4, 17760, Note_on_c, 0, 56, 0
4, 17760, Note_on_c, 0, 53, 0
4, 18000, Note_on_c, 0, 44, 78
4, 18000, Note_on_c, 0, 48, 78
4, 18000, Note_on_c, 0, 56, 78
4, 18240, Note_on_c, 0, 56, 0
4, 18240, Note_on_c, 0, 48, 0
4, 18240, Note_on_c, 0, 44, 0
4, 18240, Note_on_c, 0, 48, 78
4, 18240, Note_on_c, 0, 53, 78
4, 18240, Note_on_c, 0, 60, 78
4, 18480, Note_on_c, 0, 60, 0
4, 18480, Note_on_c, 0, 53, 0
4, 18480, Note_on_c, 0, 48, 0
4, 18480, Note_on_c, 0, 46, 78
4, 18480, Note_on_c, 0, 56, 78
4, 18480, Note_on_c, 0, 62, 78
4, 18720, Note_on_c, 0, 62, 0
4, 18720, Note_on_c, 0, 56, 0
4, 18720, Note_on_c, 0, 46, 0
4, 19200, Note_on_c, 0, 31, 104
4, 19320, Note_on_c, 0, 31, 0
4, 19320, Note_on_c, 0, 43, 78
4, 19440, Note_on_c, 0, 43, 0
4, 19440, Note_on_c, 0, 31, 78
4, 19560, Note_on_c, 0, 31, 0
4, 19560, Note_on_c, 0, 43, 78
4, 19680, Note_on_c, 0, 43, 0
4, 19680, Note_on_c, 0, 31, 78
4, 19920, Note_on_c, 0, 31, 0
4, 20400, Note_on_c, 0, 43, 78
4, 20400, Note_on_c, 0, 51, 78
4, 20400, Note_on_c, 0, 58, 78
4, 20640, Note_on_c, 0, 58, 0
4, 20640, Note_on_c, 0, 51, 0
4, 20640, Note_on_c, 0, 43, 0
4, 20640, Note_on_c, 0, 55, 78
4, 20880, Note_on_c, 0, 55, 0
4, 20880, Note_on_c, 0, 43, 78
4, 20880, Note_on_c, 0, 51, 78
4, 20880, Note_on_c, 0, 58, 78
4, 21120, Note_on_c, 0, 58, 0
4, 21120, Note_on_c, 0, 51, 0
4, 21120, Note_on_c, 0, 43, 0
4, 21120, Note_on_c, 0, 63, 78
4, 21360, Note_on_c, 0, 63, 0
4, 21360, Note_on_c, 0, 67, 78
4, 21600, Note_on_c, 0, 67, 0
4, 21840, Note_on_c, 0, 43, 78
4, 22080, Note_on_c, 0, 43, 0
4, 22080, Note_on_c, 0, 44, 78
4, 22320, Note_on_c, 0, 44, 0
4, 22320, Note_on_c, 0, 56, 104
4, 22800, Note_on_c, 0, 56, 0
4, 22800, Note_on_c, 0, 44, 78
4, 23040, Note_on_c, 0, 44, 0
4, 23040, Note_on_c, 0, 31, 104
4, 23160, Note_on_c, 0, 31, 0
4, 23160, Note_on_c, 0, 43, 78
4, 23280, Note_on_c, 0, 43, 0
4, 23280, Note_on_c, 0, 31, 78
4, 23400, Note_on_c, 0, 31, 0
4, 23400, Note_on_c, 0, 43, 78
4, 23520, Note_on_c, 0, 43, 0
4, 23520, Note_on_c, 0, 31, 78
4, 23760, Note_on_c, 0, 31, 0
4, 24240, Note_on_c, 0, 43, 78
4, 24240, Note_on_c, 0, 51, 78
4, 24240, Note_on_c, 0, 58, 78
4, 24480, Note_on_c, 0, 58, 0
4, 24480, Note_on_c, 0, 51, 0
4, 24480, Note_on_c, 0, 43, 0
4, 24480, Note_on_c, 0, 55, 78
4, 24720, Note_on_c, 0, 55, 0
4, 24720, Note_on_c, 0, 43, 78
4, 24720, Note_on_c, 0, 51, 78
4, 24720, Note_on_c, 0, 58, 78
4, 24960, Note_on_c, 0, 58, 0
4, 24960, Note_on_c, 0, 51, 0
4, 24960, Note_on_c, 0, 43, 0
4, 24960, Note_on_c, 0, 63, 78
4, 25200, Note_on_c, 0, 63, 0
4, 25200, Note_on_c, 0, 67, 78
4, 25440, Note_on_c, 0, 67, 0
4, 25680, Note_on_c, 0, 43, 78
4, 25920, Note_on_c, 0, 43, 0
4, 25920, Note_on_c, 0, 44, 78
4, 26160, Note_on_c, 0, 44, 0
4, 26160, Note_on_c, 0, 56, 104
4, 26640, Note_on_c, 0, 56, 0
4, 26640, Note_on_c, 0, 44, 78
4, 26880, Note_on_c, 0, 44, 0
4, 26880, Note_on_c, 0, 55, 65
4, 26880, Note_on_c, 0, 61, 65
4, 26880, Note_on_c, 0, 64, 65
4, 27120, Note_on_c, 0, 64, 0
4, 27120, Note_on_c, 0, 61, 0
4, 27120, Note_on_c, 0, 55, 0
4, 27120, Note_on_c, 0, 55, 65
4, 27120, Note_on_c, 0, 58, 65
4, 27120, Note_on_c, 0, 64, 65
4, 27360, Note_on_c, 0, 64, 0
4, 27360, Note_on_c, 0, 58, 0
4, 27360, Note_on_c, 0, 55, 0
4, 27600, Note_on_c, 0, 53, 65
4, 27600, Note_on_c, 0, 58, 65
4, 27600, Note_on_c, 0, 65, 65
4, 27840, Note_on_c, 0, 65, 0
4, 27840, Note_on_c, 0, 58, 0
4, 27840, Note_on_c, 0, 53, 0
4, 27840, Note_on_c, 0, 52, 65
4, 27840, Note_on_c, 0, 58, 65
4, 27840, Note_on_c, 0, 60, 65
4, 28080, Note_on_c, 0, 60, 0
4, 28080, Note_on_c, 0, 58, 0
4, 28080, Note_on_c, 0, 52, 0
4, 28080, Note_on_c, 0, 52, 65
4, 28080, Note_on_c, 0, 58, 65
4, 28080, Note_on_c, 0, 60, 65
4, 28320, Note_on_c, 0, 60, 0
4, 28320, Note_on_c, 0, 58, 0
4, 28320, Note_on_c, 0, 52, 0
4, 28560, Note_on_c, 0, 53, 65
4, 28560, Note_on_c, 0, 56, 65
4, 28560, Note_on_c, 0, 60, 65
4, 28800, Note_on_c, 0, 60, 0
4, 28800, Note_on_c, 0, 56, 0
4, 28800, Note_on_c, 0, 53, 0
4, 28800, Note_on_c, 0, 57, 65
4, 28800, Note_on_c, 0, 60, 65
4, 28800, Note_on_c, 0, 65, 65
4, 29040, Note_on_c, 0, 65, 0
4, 29040, Note_on_c, 0, 60, 0
4, 29040, Note_on_c, 0, 57, 0
4, 29040, Note_on_c, 0, 57, 65
4, 29040, Note_on_c, 0, 60, 65
4, 29040, Note_on_c, 0, 66, 65
4, 29280, Note_on_c, 0, 66, 0
4, 29280, Note_on_c, 0, 60, 0
4, 29280, Note_on_c, 0, 57, 0
4, 29520, Note_on_c, 0, 55, 65
4, 29520, Note_on_c, 0, 60, 65
4, 29520, Note_on_c, 0, 67, 65
4, 29760, Note_on_c, 0, 67, 0
4, 29760, Note_on_c, 0, 60, 0
4, 29760, Note_on_c, 0, 55, 0
4, 29760, Note_on_c, 0, 54, 65
4, 29760, Note_on_c, 0, 60, 65
4, 29760, Note_on_c, 0, 62, 65
4, 30000, Note_on_c, 0, 62, 0
4, 30000, Note_on_c, 0, 60, 0
4, 30000, Note_on_c, 0, 54, 0
4, 30000, Note_on_c, 0, 54, 65
4, 30000, Note_on_c, 0, 60, 65
4, 30000, Note_on_c, 0, 62, 65
4, 30240, Note_on_c, 0, 62, 0
4, 30240, Note_on_c, 0, 60, 0
4, 30240, Note_on_c, 0, 54, 0
4, 30480, Note_on_c, 0, 58, 65
4, 30480, Note_on_c, 0, 62, 65
4, 30720, Note_on_c, 0, 62, 0
4, 30720, Note_on_c, 0, 58, 0
4, 30720, Note_on_c, 0, 43, 91
4, 30720, Note_on_c, 0, 55, 91
4, 30960, Note_on_c, 0, 55, 0
4, 30960, Note_on_c, 0, 43, 0
4, 30960, Note_on_c, 0, 43, 91
4, 30960, Note_on_c, 0, 55, 91
4, 31200, Note_on_c, 0, 55, 0
4, 31200, Note_on_c, 0, 43, 0
4, 31200, Note_on_c, 0, 44, 91
4, 31200, Note_on_c, 0, 56, 91
4, 31440, Note_on_c, 0, 56, 0
4, 31440, Note_on_c, 0, 44, 0
4, 31440, Note_on_c, 0, 44, 91
4, 31440, Note_on_c, 0, 56, 91
4, 31680, Note_on_c, 0, 56, 0
4, 31680, Note_on_c, 0, 44, 0
4, 31680, Note_on_c, 0, 45, 91
4, 31680, Note_on_c, 0, 57, 91
4, 31920, Note_on_c, 0, 57, 0
4, 31920, Note_on_c, 0, 45, 0
4, 31920, Note_on_c, 0, 45, 91
4, 31920, Note_on_c, 0, 57, 91
4, 32160, Note_on_c, 0, 57, 0
4, 32160, Note_on_c, 0, 45, 0
4, 32160, Note_on_c, 0, 46, 91
4, 32160, Note_on_c, 0, 58, 91
4, 32400, Note_on_c, 0, 58, 0
4, 32400, Note_on_c, 0, 46, 0
4, 32400, Note_on_c, 0, 46, 91
4, 32400, Note_on_c, 0, 58, 91
4, 32640, Note_on_c, 0, 58, 0
4, 32640, Note_on_c, 0, 46, 0
4, 32640, Note_on_c, 0, 47, 91
4, 32640, Note_on_c, 0, 59, 91
4, 32880, Note_on_c, 0, 59, 0
4, 32880, Note_on_c, 0, 47, 0
4, 32880, Note_on_c, 0, 47, 91
4, 32880, Note_on_c, 0, 59, 91
4, 33120, Note_on_c, 0, 59, 0
4, 33120, Note_on_c, 0, 47, 0
4, 33120, Note_on_c, 0, 48, 91
4, 33120, Note_on_c, 0, 60, 91
4, 33360, Note_on_c, 0, 60, 0
4, 33360, Note_on_c, 0, 48, 0
4, 33360, Note_on_c, 0, 48, 91
4, 33360, Note_on_c, 0, 60, 91
4, 33600, Note_on_c, 0, 60, 0
4, 33600, Note_on_c, 0, 48, 0
4, 35040, Note_on_c, 0, 37, 78
4, 35040, Note_on_c, 0, 43, 78
4, 35040, Note_on_c, 0, 46, 78
4, 35040, Note_on_c, 0, 49, 78
4, 35520, Note_on_c, 0, 49, 0
4, 35520, Note_on_c, 0, 37, 0
4, 35520, Note_on_c, 0, 43, 0
4, 35520, Note_on_c, 0, 46, 0
4, 35520, Note_on_c, 0, 49, 78
4, 35520, Note_on_c, 0, 55, 78
4, 35520, Note_on_c, 0, 58, 78
4, 35520, Note_on_c, 0, 61, 78
4, 36000, Note_on_c, 0, 61, 0
4, 36000, Note_on_c, 0, 49, 0
4, 36000, Note_on_c, 0, 55, 0
4, 36000, Note_on_c, 0, 58, 0
4, 36000, Note_on_c, 0, 37, 78
4, 36000, Note_on_c, 0, 43, 78
4, 36000, Note_on_c, 0, 46, 78
4, 36000, Note_on_c, 0, 49, 78
4, 36480, Note_on_c, 0, 49, 0
4, 36480, Note_on_c, 0, 37, 0
4, 36480, Note_on_c, 0, 43, 0
4, 36480, Note_on_c, 0, 46, 0
4, 36960, Note_on_c, 0, 37, 78
4, 36960, Note_on_c, 0, 39, 78
4, 36960, Note_on_c, 0, 46, 78
4, 36960, Note_on_c, 0, 49, 78
4, 37440, Note_on_c, 0, 49, 0
4, 37440, Note_on_c, 0, 37, 0
4, 37440, Note_on_c, 0, 39, 0
4, 37440, Note_on_c, 0, 46, 0
4, 37440, Note_on_c, 0, 49, 78
4, 37440, Note_on_c, 0, 51, 78
4, 37440, Note_on_c, 0, 58, 78
4, 37440, Note_on_c, 0, 61, 78
4, 37920, Note_on_c, 0, 61, 0
4, 37920, Note_on_c, 0, 49, 0
4, 37920, Note_on_c, 0, 51, 0
4, 37920, Note_on_c, 0, 58, 0
4, 37920, Note_on_c, 0, 37, 78
4, 37920, Note_on_c, 0, 39, 78
4, 37920, Note_on_c, 0, 46, 78
4, 37920, Note_on_c, 0, 49, 78
4, 38400, Note_on_c, 0, 49, 0
4, 38400, Note_on_c, 0, 37, 0
4, 38400, Note_on_c, 0, 39, 0
4, 38400, Note_on_c, 0, 46, 0
4, 38880, Note_on_c, 0, 41, 78
4, 38880, Note_on_c, 0, 43, 78
4, 38880, Note_on_c, 0, 46, 78
4, 38880, Note_on_c, 0, 53, 78
4, 39360, Note_on_c, 0, 53, 0
4, 39360, Note_on_c, 0, 41, 0
4, 39360, Note_on_c, 0, 43, 0
4, 39360, Note_on_c, 0, 46, 0
4, 39840, Note_on_c, 0, 38, 78
4, 39840, Note_on_c, 0, 43, 78
4, 39840, Note_on_c, 0, 46, 78
4, 39840, Note_on_c, 0, 50, 78
4, 40320, Note_on_c, 0, 50, 0
4, 40320, Note_on_c, 0, 38, 0
4, 40320, Note_on_c, 0, 43, 0
4, 40320, Note_on_c, 0, 46, 0
4, 40800, Note_on_c, 0, 38, 78
4, 40800, Note_on_c, 0, 41, 78
4, 40800, Note_on_c, 0, 44, 78
4, 40800, Note_on_c, 0, 50, 78
4, 41760, Note_on_c, 0, 50, 0
4, 41760, Note_on_c, 0, 38, 0
4, 41760, Note_on_c, 0, 41, 0
4, 41760, Note_on_c, 0, 44, 0
4, 41760, Note_on_c, 0, 38, 78
4, 41760, Note_on_c, 0, 42, 78
4, 41760, Note_on_c, 0, 45, 78
4, 41760, Note_on_c, 0, 50, 78
4, 42480, Note_on_c, 0, 50, 0
4, 42480, Note_on_c, 0, 38, 0
4, 42480, Note_on_c, 0, 42, 0
4, 42480, Note_on_c, 0, 45, 0
4, 42480, Note_on_c, 0, 38, 78
4, 42480, Note_on_c, 0, 42, 78
4, 42480, Note_on_c, 0, 45, 78
4, 42480, Note_on_c, 0, 50, 78
4, 42960, Note_on_c, 0, 50, 0
4, 42960, Note_on_c, 0, 38, 0
4, 42960, Note_on_c, 0, 42, 0
4, 42960, Note_on_c, 0, 45, 0
4, 42960, Note_on_c, 0, 38, 78
4, 42960, Note_on_c, 0, 42, 78
4, 42960, Note_on_c, 0, 45, 78
4, 42960, Note_on_c, 0, 50, 78
4, 43440, Note_on_c, 0, 50, 0
4, 43440, Note_on_c, 0, 38, 0
4, 43440, Note_on_c, 0, 42, 0
4, 43440, Note_on_c, 0, 45, 0
4, 43440, Note_on_c, 0, 38, 78
4, 43440, Note_on_c, 0, 42, 78
4, 43440, Note_on_c, 0, 45, 78
4, 43440, Note_on_c, 0, 50, 78
4, 43920, Note_on_c, 0, 50, 0
4, 43920, Note_on_c, 0, 38, 0
4, 43920, Note_on_c, 0, 42, 0
4, 43920, Note_on_c, 0, 45, 0
4, 43920, Note_on_c, 0, 38, 78
4, 43920, Note_on_c, 0, 42, 78
4, 43920, Note_on_c, 0, 45, 78
4, 43920, Note_on_c, 0, 50, 78
4, 44160, Note_on_c, 0, 50, 0
4, 44160, Note_on_c, 0, 38, 0
4, 44160, Note_on_c, 0, 42, 0
4, 44160, Note_on_c, 0, 45, 0
4, 45120, Note_on_c, 0, 50, 104
4, 45120, Note_on_c, 0, 54, 104
4, 45120, Note_on_c, 0, 57, 104
4, 45120, Note_on_c, 0, 62, 104
4, 45600, Note_on_c, 0, 62, 0
4, 45600, Note_on_c, 0, 50, 0
4, 45600, Note_on_c, 0, 54, 0
4, 45600, Note_on_c, 0, 57, 0
4, 45600, End_track
5, 0, Start_track
5, 0, Title_t, "Grand Piano"
5, 0, Program_c, 0, 0
5, 0, Control_c, 0, 7, 115
5, 0, Control_c, 0, 10, 47
5, 30720, Note_on_c, 0, 51, 101
5, 31680, Note_on_c, 0, 51, 0
5, 31680, Note_on_c, 0, 53, 101
5, 32640, Note_on_c, 0, 53, 0
5, 32640, Note_on_c, 0, 55, 101
5, 33600, Note_on_c, 0, 55, 0
5, 33600, End_track
0, 0, End_of_file
