0, 0, Header, 1, 5, 480
1, 0, Start_track
1, 0, Title_t, "tchaikovsky sleeping beauty act2 18 entracte"
1, 0, Copyright_t, "Adaptation for Disklavier pianos, by: Robert C. Kuhmann (c) 2012."
1, 0, Text_t, "Seq. (c) by: Segundo G. Yogore,  2006\012"
1, 0, Time_signature, 4, 2, 24, 8
1, 0, Key_signature, 0, "major"
1, 0, Tempo, 857143
1, 147840, Time_signature, 8, 2, 24, 8
1, 147840, End_track
2, 0, Start_track
2, 0, Title_t, "Grand Piano"
2, 0, Program_c, 0, 0
2, 0, Control_c, 0, 7, 115
2, 0, Control_c, 0, 10, 79
2, 1200, Control_c, 0, 64, 127
2, 1200, Note_on_c, 0, 67, 67
2, 1440, Note_on_c, 0, 67, 0
2, 1440, Note_on_c, 0, 69, 67
2, 1680, Note_on_c, 0, 69, 0
2, 1680, Note_on_c, 0, 72, 67
2, 1920, Note_on_c, 0, 72, 0
2, 1920, Control_c, 0, 64, 0
2, 1920, Note_on_c, 0, 76, 67
2, 2160, Note_on_c, 0, 76, 0
2, 2160, Note_on_c, 0, 79, 67
2, 2400, Note_on_c, 0, 79, 0
2, 2400, Note_on_c, 0, 77, 93
2, 2640, Note_on_c, 0, 77, 0
2, 2640, Note_on_c, 0, 76, 93
2, 2880, Note_on_c, 0, 76, 0
2, 2880, Note_on_c, 0, 76, 93
2, 3600, Note_on_c, 0, 76, 0
2, 3600, Note_on_c, 0, 74, 67
2, 3840, Note_on_c, 0, 74, 0
2, 3840, Note_on_c, 0, 67, 67
2, 4320, Note_on_c, 0, 67, 0
2, 4320, Note_on_c, 0, 71, 67
2, 4640, Note_on_c, 0, 71, 0
2, 4640, Note_on_c, 0, 72, 67
2, 4800, Note_on_c, 0, 72, 0
2, 4800, Note_on_c, 0, 74, 93
2, 5280, Note_on_c, 0, 74, 0
2, 5280, Note_on_c, 0, 69, 67
2, 5600, Note_on_c, 0, 69, 0
2, 5600, Note_on_c, 0, 71, 67
2, 5760, Note_on_c, 0, 71, 0
2, 5760, Control_c, 0, 64, 127
2, 5760, Note_on_c, 0, 72, 67
2, 5856, Note_on_c, 0, 72, 0
2, 5856, Note_on_c, 0, 74, 67
2, 5952, Note_on_c, 0, 74, 0
2, 5952, Note_on_c, 0, 72, 67
2, 6047, Note_on_c, 0, 72, 0
2, 6047, Note_on_c, 0, 71, 67
2, 6143, Note_on_c, 0, 71, 0
2, 6143, Note_on_c, 0, 72, 67
2, 6240, Note_on_c, 0, 72, 0
2, 6240, Control_c, 0, 64, 0
2, 6240, Note_on_c, 0, 77, 93
2, 6480, Note_on_c, 0, 77, 0
2, 6480, Note_on_c, 0, 76, 93
2, 6720, Note_on_c, 0, 76, 0
2, 6720, Note_on_c, 0, 74, 67
2, 7440, Note_on_c, 0, 74, 0
2, 7440, Note_on_c, 0, 76, 67
2, 7680, Note_on_c, 0, 76, 0
2, 7680, Note_on_c, 0, 72, 67
2, 7920, Note_on_c, 0, 72, 0
2, 8880, Note_on_c, 0, 67, 67
2, 9120, Note_on_c, 0, 67, 0
2, 9120, Note_on_c, 0, 69, 67
2, 9360, Note_on_c, 0, 69, 0
2, 9360, Note_on_c, 0, 72, 67
2, 9600, Note_on_c, 0, 72, 0
2, 9600, Note_on_c, 0, 76, 67
2, 9840, Note_on_c, 0, 76, 0
2, 9840, Note_on_c, 0, 79, 67
2, 10080, Note_on_c, 0, 79, 0
2, 10080, Note_on_c, 0, 78, 93
2, 10320, Note_on_c, 0, 78, 0
2, 10320, Note_on_c, 0, 76, 93
2, 10560, Note_on_c, 0, 76, 0
2, 10560, Note_on_c, 0, 74, 93
2, 11280, Note_on_c, 0, 74, 0
2, 11280, Note_on_c, 0, 72, 67
2, 11520, Note_on_c, 0, 72, 0
2, 11520, Note_on_c, 0, 71, 67
2, 12000, Note_on_c, 0, 71, 0
2, 12000, Note_on_c, 0, 79, 80
2, 12320, Note_on_c, 0, 79, 0
2, 12320, Note_on_c, 0, 78, 80
2, 12480, Note_on_c, 0, 78, 0
2, 12480, Note_on_c, 0, 76, 80
2, 12960, Note_on_c, 0, 76, 0
2, 12960, Note_on_c, 0, 74, 67
2, 13280, Note_on_c, 0, 74, 0
2, 13280, Note_on_c, 0, 72, 67
2, 13440, Note_on_c, 0, 72, 0
2, 13440, Note_on_c, 0, 71, 67
2, 13520, Note_on_c, 0, 71, 0
2, 13520, Note_on_c, 0, 72, 67
2, 13599, Note_on_c, 0, 72, 0
2, 13599, Note_on_c, 0, 73, 67
2, 13680, Note_on_c, 0, 73, 0
2, 13680, Note_on_c, 0, 74, 80
2, 13760, Note_on_c, 0, 74, 0
2, 13760, Note_on_c, 0, 76, 80
2, 13839, Note_on_c, 0, 76, 0
2, 13839, Note_on_c, 0, 78, 80
2, 13920, Note_on_c, 0, 78, 0
2, 13920, Note_on_c, 0, 79, 80
2, 14160, Note_on_c, 0, 79, 0
2, 14160, Note_on_c, 0, 72, 80
2, 14400, Note_on_c, 0, 72, 0
2, 14400, Note_on_c, 0, 71, 106
2, 15120, Note_on_c, 0, 71, 0
2, 15120, Note_on_c, 0, 69, 67
2, 15360, Note_on_c, 0, 69, 0
2, 15360, Note_on_c, 0, 67, 67
2, 15600, Note_on_c, 0, 67, 0
2, 15600, Control_c, 0, 64, 127
2, 15600, Note_on_c, 0, 62, 67
2, 15840, Note_on_c, 0, 62, 0
2, 15840, Note_on_c, 0, 67, 67
2, 16080, Note_on_c, 0, 67, 0
2, 16080, Note_on_c, 0, 69, 80
2, 16320, Note_on_c, 0, 69, 0
2, 16320, Note_on_c, 0, 71, 80
2, 16560, Note_on_c, 0, 71, 0
2, 16560, Note_on_c, 0, 72, 80
2, 16800, Note_on_c, 0, 72, 0
2, 16800, Note_on_c, 0, 74, 80
2, 17040, Note_on_c, 0, 74, 0
2, 17040, Control_c, 0, 64, 0
2, 17040, Note_on_c, 0, 76, 80
2, 17280, Note_on_c, 0, 76, 0
2, 17280, Note_on_c, 0, 77, 80
2, 17520, Note_on_c, 0, 77, 0
2, 17520, Note_on_c, 0, 81, 80
2, 17760, Note_on_c, 0, 81, 0
2, 17760, Note_on_c, 0, 79, 106
2, 18000, Note_on_c, 0, 79, 0
2, 18000, Note_on_c, 0, 77, 106
2, 18240, Note_on_c, 0, 77, 0
2, 18240, Note_on_c, 0, 76, 80
2, 18960, Note_on_c, 0, 76, 0
2, 18960, Note_on_c, 0, 73, 67
2, 19200, Note_on_c, 0, 73, 0
2, 19200, Control_c, 0, 64, 127
2, 19200, Note_on_c, 0, 74, 67
2, 19359, Note_on_c, 0, 74, 0
2, 19359, Note_on_c, 0, 62, 67
2, 19520, Note_on_c, 0, 62, 0
2, 19520, Note_on_c, 0, 64, 67
2, 19680, Note_on_c, 0, 64, 0
2, 19680, Note_on_c, 0, 65, 67
2, 19839, Note_on_c, 0, 65, 0
2, 19839, Note_on_c, 0, 67, 67
2, 20000, Note_on_c, 0, 67, 0
2, 20000, Note_on_c, 0, 69, 67
2, 20160, Note_on_c, 0, 69, 0
2, 20160, Note_on_c, 0, 71, 80
2, 20319, Note_on_c, 0, 71, 0
2, 20319, Note_on_c, 0, 72, 80
2, 20480, Note_on_c, 0, 72, 0
2, 20480, Note_on_c, 0, 73, 80
2, 20640, Note_on_c, 0, 73, 0
2, 20640, Note_on_c, 0, 74, 80
2, 20799, Note_on_c, 0, 74, 0
2, 20799, Note_on_c, 0, 76, 80
2, 20960, Note_on_c, 0, 76, 0
2, 20960, Control_c, 0, 64, 0
2, 20960, Note_on_c, 0, 77, 80
2, 21120, Note_on_c, 0, 77, 0
2, 21120, Note_on_c, 0, 86, 93
2, 21240, Note_on_c, 0, 86, 0
2, 21240, Note_on_c, 0, 84, 93
2, 21360, Note_on_c, 0, 84, 0
2, 21360, Note_on_c, 0, 83, 93
2, 21383, Note_on_c, 0, 83, 0
2, 21480, Note_on_c, 0, 81, 93
2, 21503, Note_on_c, 0, 81, 0
2, 21600, Note_on_c, 0, 79, 93
2, 21623, Note_on_c, 0, 79, 0
2, 21720, Note_on_c, 0, 77, 93
2, 21743, Note_on_c, 0, 77, 0
2, 21840, Note_on_c, 0, 76, 93
2, 21863, Note_on_c, 0, 76, 0
2, 21960, Note_on_c, 0, 74, 93
2, 21983, Note_on_c, 0, 74, 0
2, 22080, Note_on_c, 0, 72, 93
2, 22200, Note_on_c, 0, 72, 0
2, 22200, Note_on_c, 0, 74, 93
2, 22320, Note_on_c, 0, 74, 0
2, 22320, Note_on_c, 0, 76, 93
2, 22343, Note_on_c, 0, 76, 0
2, 22440, Note_on_c, 0, 77, 93
2, 22463, Note_on_c, 0, 77, 0
2, 22560, Control_c, 0, 64, 127
2, 22560, Note_on_c, 0, 78, 93
2, 22680, Note_on_c, 0, 78, 0
2, 22680, Note_on_c, 0, 79, 93
2, 22800, Note_on_c, 0, 79, 0
2, 22800, Note_on_c, 0, 81, 93
2, 22920, Note_on_c, 0, 81, 0
2, 22920, Note_on_c, 0, 79, 93
2, 23040, Note_on_c, 0, 79, 0
2, 23040, Control_c, 0, 64, 0
2, 23040, Note_on_c, 0, 74, 106
2, 23280, Note_on_c, 0, 74, 0
2, 23520, Note_on_c, 0, 67, 106
2, 23679, Note_on_c, 0, 67, 0
2, 23679, Note_on_c, 0, 71, 106
2, 23840, Note_on_c, 0, 71, 0
2, 23840, Note_on_c, 0, 74, 106
2, 24000, Note_on_c, 0, 74, 0
2, 24000, Note_on_c, 0, 79, 127
2, 24240, Note_on_c, 0, 79, 0
2, 24480, Note_on_c, 0, 67, 106
2, 24639, Note_on_c, 0, 67, 0
2, 24639, Note_on_c, 0, 71, 106
2, 24800, Note_on_c, 0, 71, 0
2, 24800, Note_on_c, 0, 74, 106
2, 24960, Note_on_c, 0, 74, 0
2, 24960, Note_on_c, 0, 79, 127
2, 25200, Note_on_c, 0, 79, 0
2, 25440, Note_on_c, 0, 64, 106
2, 25560, Note_on_c, 0, 64, 0
2, 25560, Note_on_c, 0, 67, 106
2, 25680, Note_on_c, 0, 67, 0
2, 25680, Note_on_c, 0, 70, 106
2, 25800, Note_on_c, 0, 70, 0
2, 25800, Note_on_c, 0, 73, 106
2, 25920, Note_on_c, 0, 73, 0
2, 25920, Note_on_c, 0, 79, 127
2, 26160, Note_on_c, 0, 79, 0
2, 26400, Note_on_c, 0, 63, 106
2, 26520, Note_on_c, 0, 63, 0
2, 26520, Note_on_c, 0, 67, 106
2, 26640, Note_on_c, 0, 67, 0
2, 26640, Note_on_c, 0, 69, 106
2, 26760, Note_on_c, 0, 69, 0
2, 26760, Note_on_c, 0, 72, 106
2, 26880, Note_on_c, 0, 72, 0
2, 26880, Note_on_c, 0, 67, 127
2, 26880, Note_on_c, 0, 79, 127
2, 26960, Note_on_c, 0, 79, 0
2, 26960, Note_on_c, 0, 67, 0
2, 26960, Control_c, 0, 64, 127
2, 26960, Note_on_c, 0, 55, 106
2, 27039, Note_on_c, 0, 55, 0
2, 27039, Note_on_c, 0, 57, 106
2, 27120, Note_on_c, 0, 57, 0
2, 27120, Note_on_c, 0, 59, 106
2, 27200, Note_on_c, 0, 59, 0
2, 27200, Note_on_c, 0, 60, 106
2, 27279, Note_on_c, 0, 60, 0
2, 27279, Note_on_c, 0, 61, 106
2, 27360, Note_on_c, 0, 61, 0
2, 27360, Note_on_c, 0, 62, 106
2, 27440, Note_on_c, 0, 62, 0
2, 27440, Note_on_c, 0, 64, 106
2, 27519, Note_on_c, 0, 64, 0
2, 27519, Note_on_c, 0, 65, 106
2, 27600, Note_on_c, 0, 65, 0
2, 27600, Note_on_c, 0, 66, 106
2, 27680, Note_on_c, 0, 66, 0
2, 27680, Note_on_c, 0, 67, 106
2, 27759, Note_on_c, 0, 67, 0
2, 27759, Note_on_c, 0, 69, 106
2, 27840, Note_on_c, 0, 69, 0
2, 27840, Control_c, 0, 64, 0
2, 27840, Note_on_c, 0, 71, 106
2, 27920, Note_on_c, 0, 71, 0
2, 27920, Control_c, 0, 64, 127
2, 27920, Note_on_c, 0, 59, 106
2, 27999, Note_on_c, 0, 59, 0
2, 27999, Note_on_c, 0, 60, 106
2, 28080, Note_on_c, 0, 60, 0
2, 28080, Note_on_c, 0, 62, 106
2, 28160, Note_on_c, 0, 62, 0
2, 28160, Note_on_c, 0, 64, 106
2, 28239, Note_on_c, 0, 64, 0
2, 28239, Note_on_c, 0, 65, 106
2, 28320, Note_on_c, 0, 65, 0
2, 28320, Note_on_c, 0, 66, 106
2, 28400, Note_on_c, 0, 66, 0
2, 28400, Note_on_c, 0, 67, 106
2, 28479, Note_on_c, 0, 67, 0
2, 28479, Note_on_c, 0, 69, 106
2, 28560, Note_on_c, 0, 69, 0
2, 28560, Note_on_c, 0, 71, 106
2, 28640, Note_on_c, 0, 71, 0
2, 28640, Note_on_c, 0, 72, 106
2, 28719, Note_on_c, 0, 72, 0
2, 28719, Control_c, 0, 64, 0
2, 28719, Note_on_c, 0, 73, 106
2, 28800, Note_on_c, 0, 73, 0
2, 28800, Note_on_c, 0, 74, 106
2, 28860, Note_on_c, 0, 74, 0
2, 28860, Control_c, 0, 64, 127
2, 28860, Note_on_c, 0, 65, 106
2, 28920, Note_on_c, 0, 65, 0
2, 28920, Note_on_c, 0, 67, 106
2, 28980, Note_on_c, 0, 67, 0
2, 28980, Note_on_c, 0, 69, 106
2, 29040, Note_on_c, 0, 69, 0
2, 29040, Note_on_c, 0, 71, 106
2, 29100, Note_on_c, 0, 71, 0
2, 29100, Note_on_c, 0, 72, 106
2, 29160, Note_on_c, 0, 72, 0
2, 29160, Note_on_c, 0, 74, 106
2, 29220, Note_on_c, 0, 74, 0
2, 29220, Note_on_c, 0, 76, 106
2, 29280, Note_on_c, 0, 76, 0
2, 29280, Control_c, 0, 64, 0
2, 29280, Note_on_c, 0, 77, 106
2, 29340, Note_on_c, 0, 77, 0
2, 29340, Control_c, 0, 64, 127
2, 29340, Note_on_c, 0, 71, 106
2, 29400, Note_on_c, 0, 71, 0
2, 29400, Note_on_c, 0, 72, 106
2, 29460, Note_on_c, 0, 72, 0
2, 29460, Note_on_c, 0, 74, 106
2, 29520, Note_on_c, 0, 74, 0
2, 29520, Note_on_c, 0, 76, 106
2, 29580, Note_on_c, 0, 76, 0
2, 29580, Note_on_c, 0, 77, 106
2, 29640, Note_on_c, 0, 77, 0
2, 29640, Note_on_c, 0, 79, 106
2, 29700, Note_on_c, 0, 79, 0
2, 29700, Note_on_c, 0, 81, 106
2, 29760, Note_on_c, 0, 81, 0
2, 29760, Control_c, 0, 64, 0
2, 29760, Note_on_c, 0, 83, 106
2, 29820, Note_on_c, 0, 83, 0
2, 29820, Control_c, 0, 64, 127
2, 29820, Note_on_c, 0, 74, 106
2, 29880, Note_on_c, 0, 74, 0
2, 29880, Note_on_c, 0, 76, 106
2, 29940, Note_on_c, 0, 76, 0
2, 29940, Note_on_c, 0, 77, 106
2, 30000, Note_on_c, 0, 77, 0
2, 30000, Note_on_c, 0, 79, 106
2, 30060, Note_on_c, 0, 79, 0
2, 30060, Note_on_c, 0, 81, 106
2, 30120, Note_on_c, 0, 81, 0
2, 30120, Note_on_c, 0, 83, 106
2, 30180, Note_on_c, 0, 83, 0
2, 30180, Note_on_c, 0, 84, 106
2, 30240, Note_on_c, 0, 84, 0
2, 30240, Control_c, 0, 64, 0
2, 30240, Note_on_c, 0, 86, 106
2, 30300, Note_on_c, 0, 86, 0
2, 30300, Control_c, 0, 64, 127
2, 30300, Note_on_c, 0, 81, 106
2, 30360, Note_on_c, 0, 81, 0
2, 30360, Note_on_c, 0, 83, 106
2, 30420, Note_on_c, 0, 83, 0
2, 30420, Note_on_c, 0, 84, 106
2, 30480, Note_on_c, 0, 84, 0
2, 30480, Note_on_c, 0, 86, 106
2, 30540, Note_on_c, 0, 86, 0
2, 30540, Note_on_c, 0, 88, 106
2, 30600, Note_on_c, 0, 88, 0
2, 30600, Note_on_c, 0, 89, 106
2, 30660, Note_on_c, 0, 89, 0
2, 30660, Control_c, 0, 64, 0
2, 30660, Note_on_c, 0, 90, 106
2, 30720, Note_on_c, 0, 90, 0
2, 30720, Control_c, 0, 64, 127
2, 30720, Note_on_c, 0, 91, 93
2, 30780, Note_on_c, 0, 91, 0
2, 30780, Note_on_c, 0, 93, 93
2, 30840, Note_on_c, 0, 93, 0
2, 30840, Note_on_c, 0, 91, 93
2, 30900, Note_on_c, 0, 91, 0
2, 30900, Note_on_c, 0, 93, 93
2, 30960, Note_on_c, 0, 93, 0
2, 30960, Note_on_c, 0, 91, 93
2, 31020, Note_on_c, 0, 91, 0
2, 31020, Note_on_c, 0, 93, 93
2, 31080, Note_on_c, 0, 93, 0
2, 31080, Note_on_c, 0, 91, 93
2, 31140, Note_on_c, 0, 91, 0
2, 31140, Note_on_c, 0, 93, 93
2, 31200, Note_on_c, 0, 93, 0
2, 31200, Note_on_c, 0, 91, 93
2, 31260, Note_on_c, 0, 91, 0
2, 31260, Note_on_c, 0, 93, 93
2, 31320, Note_on_c, 0, 93, 0
2, 31320, Note_on_c, 0, 91, 93
2, 31380, Note_on_c, 0, 91, 0
2, 31380, Note_on_c, 0, 93, 93
2, 31440, Note_on_c, 0, 93, 0
2, 31440, Note_on_c, 0, 91, 93
2, 31500, Note_on_c, 0, 91, 0
2, 31500, Note_on_c, 0, 93, 93
2, 31560, Note_on_c, 0, 93, 0
2, 31560, Note_on_c, 0, 91, 93
2, 31620, Note_on_c, 0, 91, 0
2, 31620, Note_on_c, 0, 93, 93
2, 31680, Note_on_c, 0, 93, 0
2, 31680, Note_on_c, 0, 91, 80
2, 31740, Note_on_c, 0, 91, 0
2, 31740, Note_on_c, 0, 93, 80
2, 31800, Note_on_c, 0, 93, 0
2, 31800, Note_on_c, 0, 91, 80
2, 31860, Note_on_c, 0, 91, 0
2, 31860, Note_on_c, 0, 93, 80
2, 31920, Note_on_c, 0, 93, 0
2, 31920, Note_on_c, 0, 91, 80
2, 31980, Note_on_c, 0, 91, 0
2, 31980, Note_on_c, 0, 93, 80
2, 32040, Note_on_c, 0, 93, 0
2, 32040, Note_on_c, 0, 91, 80
2, 32100, Note_on_c, 0, 91, 0
2, 32100, Note_on_c, 0, 93, 67
2, 32160, Note_on_c, 0, 93, 0
2, 32160, Note_on_c, 0, 91, 67
2, 32220, Note_on_c, 0, 91, 0
2, 32220, Note_on_c, 0, 93, 67
2, 32280, Note_on_c, 0, 93, 0
2, 32280, Note_on_c, 0, 91, 67
2, 32340, Note_on_c, 0, 91, 0
2, 32340, Note_on_c, 0, 93, 67
2, 32400, Note_on_c, 0, 93, 0
2, 32400, Note_on_c, 0, 91, 67
2, 32460, Note_on_c, 0, 91, 0
2, 32460, Note_on_c, 0, 93, 67
2, 32520, Note_on_c, 0, 93, 0
2, 32520, Note_on_c, 0, 91, 67
2, 32580, Note_on_c, 0, 91, 0
2, 32580, Note_on_c, 0, 93, 67
2, 32640, Note_on_c, 0, 93, 0
2, 32640, Note_on_c, 0, 91, 67
2, 32700, Note_on_c, 0, 91, 0
2, 32700, Note_on_c, 0, 93, 67
2, 32760, Note_on_c, 0, 93, 0
2, 32760, Note_on_c, 0, 91, 67
2, 32820, Note_on_c, 0, 91, 0
2, 32820, Note_on_c, 0, 93, 67
2, 32880, Note_on_c, 0, 93, 0
2, 32880, Note_on_c, 0, 91, 67
2, 32940, Note_on_c, 0, 91, 0
2, 32940, Note_on_c, 0, 93, 67
2, 33000, Note_on_c, 0, 93, 0
2, 33000, Note_on_c, 0, 91, 67
2, 33060, Note_on_c, 0, 91, 0
2, 33060, Note_on_c, 0, 93, 67
2, 33120, Note_on_c, 0, 93, 0
2, 33120, Note_on_c, 0, 91, 67
2, 33180, Note_on_c, 0, 91, 0
2, 33180, Note_on_c, 0, 93, 67
2, 33240, Note_on_c, 0, 93, 0
2, 33240, Note_on_c, 0, 91, 67
2, 33300, Note_on_c, 0, 91, 0
2, 33300, Note_on_c, 0, 93, 67
2, 33360, Note_on_c, 0, 93, 0
2, 33360, Note_on_c, 0, 91, 67
2, 33420, Note_on_c, 0, 91, 0
2, 33420, Note_on_c, 0, 93, 67
2, 33480, Note_on_c, 0, 93, 0
2, 33480, Note_on_c, 0, 91, 67
2, 33540, Note_on_c, 0, 91, 0
2, 33540, Note_on_c, 0, 93, 67
2, 33600, Note_on_c, 0, 93, 0
2, 33600, Note_on_c, 0, 91, 67
2, 33660, Note_on_c, 0, 91, 0
2, 33660, Note_on_c, 0, 93, 67
2, 33720, Note_on_c, 0, 93, 0
2, 33720, Note_on_c, 0, 91, 67
2, 33780, Note_on_c, 0, 91, 0
2, 33780, Note_on_c, 0, 93, 67
2, 33840, Note_on_c, 0, 93, 0
2, 33840, Note_on_c, 0, 91, 67
2, 33900, Note_on_c, 0, 91, 0
2, 33900, Note_on_c, 0, 93, 67
2, 33960, Note_on_c, 0, 93, 0
2, 33960, Note_on_c, 0, 91, 67
2, 34020, Note_on_c, 0, 91, 0
2, 34020, Note_on_c, 0, 93, 67
2, 34080, Note_on_c, 0, 93, 0
2, 34080, Note_on_c, 0, 91, 67
2, 34140, Note_on_c, 0, 91, 0
2, 34140, Note_on_c, 0, 93, 67
2, 34200, Note_on_c, 0, 93, 0
2, 34200, Note_on_c, 0, 91, 67
2, 34260, Note_on_c, 0, 91, 0
2, 34260, Note_on_c, 0, 93, 67
2, 34320, Note_on_c, 0, 93, 0
2, 34320, Note_on_c, 0, 91, 67
2, 34380, Note_on_c, 0, 91, 0
2, 34380, Note_on_c, 0, 93, 67
2, 34440, Note_on_c, 0, 93, 0
2, 34440, Note_on_c, 0, 91, 67
2, 34500, Note_on_c, 0, 91, 0
2, 34500, Control_c, 0, 64, 0
2, 34500, Note_on_c, 0, 93, 67
2, 34560, Note_on_c, 0, 93, 0
2, 34560, Control_c, 0, 64, 127
2, 34560, Note_on_c, 0, 91, 67
2, 34620, Note_on_c, 0, 91, 0
2, 34620, Note_on_c, 0, 93, 67
2, 34680, Note_on_c, 0, 93, 0
2, 34680, Note_on_c, 0, 91, 67
2, 34740, Note_on_c, 0, 91, 0
2, 34740, Note_on_c, 0, 93, 67
2, 34800, Note_on_c, 0, 93, 0
2, 34800, Note_on_c, 0, 91, 67
2, 34860, Note_on_c, 0, 91, 0
2, 34860, Note_on_c, 0, 93, 67
2, 34920, Note_on_c, 0, 93, 0
2, 34920, Note_on_c, 0, 90, 67
2, 34980, Note_on_c, 0, 90, 0
2, 34980, Control_c, 0, 64, 0
2, 34980, Note_on_c, 0, 91, 67
2, 35040, Note_on_c, 0, 91, 0
2, 35040, Control_c, 0, 64, 127
2, 35040, Note_on_c, 0, 92, 67
2, 35100, Note_on_c, 0, 92, 0
2, 35100, Note_on_c, 0, 93, 67
2, 35160, Note_on_c, 0, 93, 0
2, 35160, Note_on_c, 0, 92, 67
2, 35220, Note_on_c, 0, 92, 0
2, 35220, Note_on_c, 0, 93, 67
2, 35280, Note_on_c, 0, 93, 0
2, 35280, Note_on_c, 0, 92, 67
2, 35340, Note_on_c, 0, 92, 0
2, 35340, Note_on_c, 0, 93, 67
2, 35400, Note_on_c, 0, 93, 0
2, 35400, Note_on_c, 0, 91, 67
2, 35460, Note_on_c, 0, 91, 0
2, 35460, Control_c, 0, 64, 0
2, 35460, Note_on_c, 0, 92, 67
2, 35520, Note_on_c, 0, 92, 0
2, 35520, Control_c, 0, 64, 127
2, 35520, Note_on_c, 0, 93, 67
2, 35580, Note_on_c, 0, 93, 0
2, 35580, Note_on_c, 0, 95, 67
2, 35640, Note_on_c, 0, 95, 0
2, 35640, Note_on_c, 0, 93, 67
2, 35700, Note_on_c, 0, 93, 0
2, 35700, Note_on_c, 0, 95, 67
2, 35760, Note_on_c, 0, 95, 0
2, 35760, Note_on_c, 0, 93, 67
2, 35820, Note_on_c, 0, 93, 0
2, 35820, Note_on_c, 0, 95, 67
2, 35880, Note_on_c, 0, 95, 0
2, 35880, Note_on_c, 0, 92, 67
2, 35940, Note_on_c, 0, 92, 0
2, 35940, Control_c, 0, 64, 0
2, 35940, Note_on_c, 0, 93, 67
2, 36000, Note_on_c, 0, 93, 0
2, 36000, Note_on_c, 0, 94, 67
2, 36047, Note_on_c, 0, 94, 0
2, 36047, Note_on_c, 0, 95, 67
2, 36096, Note_on_c, 0, 95, 0
2, 36096, Note_on_c, 0, 94, 67
2, 36143, Note_on_c, 0, 94, 0
2, 36143, Note_on_c, 0, 93, 67
2, 36192, Note_on_c, 0, 93, 0
2, 36192, Note_on_c, 0, 94, 67
2, 36240, Note_on_c, 0, 94, 0
2, 36240, Note_on_c, 0, 95, 67
2, 36287, Note_on_c, 0, 95, 0
2, 36287, Note_on_c, 0, 96, 67
2, 36336, Note_on_c, 0, 96, 0
2, 36336, Note_on_c, 0, 95, 67
2, 36383, Note_on_c, 0, 95, 0
2, 36383, Note_on_c, 0, 94, 67
2, 36432, Note_on_c, 0, 94, 0
2, 36432, Note_on_c, 0, 95, 67
2, 36480, Note_on_c, 0, 95, 0
2, 36480, Control_c, 0, 64, 127
2, 36480, Note_on_c, 0, 96, 67
2, 36540, Note_on_c, 0, 96, 0
2, 36540, Note_on_c, 0, 98, 67
2, 36600, Note_on_c, 0, 98, 0
2, 36600, Note_on_c, 0, 96, 67
2, 36660, Note_on_c, 0, 96, 0
2, 36660, Note_on_c, 0, 98, 67
2, 36720, Note_on_c, 0, 98, 0
2, 36720, Note_on_c, 0, 96, 67
2, 36780, Note_on_c, 0, 96, 0
2, 36780, Note_on_c, 0, 98, 67
2, 36840, Note_on_c, 0, 98, 0
2, 36840, Note_on_c, 0, 95, 67
2, 36900, Note_on_c, 0, 95, 0
2, 36900, Note_on_c, 0, 96, 67
2, 36960, Note_on_c, 0, 96, 0
2, 36960, Control_c, 0, 64, 0
2, 36960, Note_on_c, 0, 98, 67
2, 37359, Note_on_c, 0, 98, 0
2, 37359, Note_on_c, 0, 96, 67
2, 37440, Note_on_c, 0, 96, 0
2, 37440, Note_on_c, 0, 95, 67
2, 37560, Note_on_c, 0, 95, 0
2, 37560, Note_on_c, 0, 93, 67
2, 37680, Note_on_c, 0, 93, 0
2, 37680, Note_on_c, 0, 93, 67
2, 37800, Note_on_c, 0, 93, 0
2, 37800, Note_on_c, 0, 91, 67
2, 37920, Note_on_c, 0, 91, 0
2, 37920, Note_on_c, 0, 91, 67
2, 37980, Note_on_c, 0, 91, 0
2, 37980, Note_on_c, 0, 89, 67
2, 38040, Note_on_c, 0, 89, 0
2, 38040, Note_on_c, 0, 89, 67
2, 38100, Note_on_c, 0, 89, 0
2, 38100, Note_on_c, 0, 88, 67
2, 38160, Note_on_c, 0, 88, 0
2, 38160, Note_on_c, 0, 88, 67
2, 38220, Note_on_c, 0, 88, 0
2, 38220, Note_on_c, 0, 86, 67
2, 38280, Note_on_c, 0, 86, 0
2, 38280, Note_on_c, 0, 86, 67
2, 38340, Note_on_c, 0, 86, 0
2, 38340, Note_on_c, 0, 84, 67
2, 38400, Note_on_c, 0, 84, 0
2, 38400, Control_c, 0, 64, 127
2, 38400, Note_on_c, 0, 84, 67
2, 38520, Note_on_c, 0, 84, 0
2, 38520, Note_on_c, 0, 88, 67
2, 38640, Note_on_c, 0, 88, 0
2, 38640, Note_on_c, 0, 91, 67
2, 38760, Note_on_c, 0, 91, 0
2, 38760, Control_c, 0, 64, 0
2, 38760, Note_on_c, 0, 88, 67
2, 38880, Note_on_c, 0, 88, 0
2, 38880, Note_on_c, 0, 86, 67
2, 38895, Note_on_c, 0, 86, 0
2, 38960, Note_on_c, 0, 84, 67
2, 38976, Note_on_c, 0, 84, 0
2, 39039, Note_on_c, 0, 83, 67
2, 39055, Note_on_c, 0, 83, 0
2, 39120, Control_c, 0, 64, 127
2, 39120, Note_on_c, 0, 81, 67
2, 39180, Note_on_c, 0, 81, 0
2, 39180, Note_on_c, 0, 79, 67
2, 39240, Note_on_c, 0, 79, 0
2, 39240, Note_on_c, 0, 77, 67
2, 39300, Note_on_c, 0, 77, 0
2, 39300, Note_on_c, 0, 76, 67
2, 39360, Note_on_c, 0, 76, 0
2, 39360, Control_c, 0, 64, 0
2, 39360, Note_on_c, 0, 74, 80
2, 40080, Note_on_c, 0, 74, 0
2, 40080, Note_on_c, 0, 76, 80
2, 40320, Note_on_c, 0, 76, 0
2, 40320, Note_on_c, 0, 67, 80
2, 40320, Note_on_c, 0, 72, 80
2, 40560, Note_on_c, 0, 72, 0
2, 40560, Note_on_c, 0, 67, 0
2, 40560, Note_on_c, 0, 55, 93
2, 40800, Note_on_c, 0, 55, 0
2, 40800, Note_on_c, 0, 57, 93
2, 41040, Note_on_c, 0, 57, 0
2, 41040, Note_on_c, 0, 59, 93
2, 41280, Note_on_c, 0, 59, 0
2, 41280, Note_on_c, 0, 60, 67
2, 41520, Note_on_c, 0, 60, 0
2, 41520, Note_on_c, 0, 59, 67
2, 41760, Note_on_c, 0, 59, 0
2, 41760, Note_on_c, 0, 60, 93
2, 42000, Note_on_c, 0, 60, 0
2, 42000, Note_on_c, 0, 62, 93
2, 42240, Note_on_c, 0, 62, 0
2, 42240, Note_on_c, 0, 64, 67
2, 42480, Note_on_c, 0, 64, 0
2, 42480, Note_on_c, 0, 67, 67
2, 42720, Note_on_c, 0, 67, 0
2, 42720, Note_on_c, 0, 66, 93
2, 42960, Note_on_c, 0, 66, 0
2, 42960, Note_on_c, 0, 64, 93
2, 43200, Note_on_c, 0, 64, 0
2, 43200, Note_on_c, 0, 62, 93
2, 43920, Note_on_c, 0, 62, 0
2, 43920, Note_on_c, 0, 60, 67
2, 44160, Note_on_c, 0, 60, 0
2, 44160, Note_on_c, 0, 59, 67
2, 44640, Note_on_c, 0, 59, 0
2, 44640, Note_on_c, 0, 67, 67
2, 44960, Note_on_c, 0, 67, 0
2, 44960, Note_on_c, 0, 66, 67
2, 45120, Note_on_c, 0, 66, 0
2, 45120, Control_c, 0, 64, 127
2, 45120, Note_on_c, 0, 64, 80
2, 45200, Note_on_c, 0, 64, 0
2, 45200, Note_on_c, 0, 66, 80
2, 45279, Note_on_c, 0, 66, 0
2, 45279, Note_on_c, 0, 64, 80
2, 45360, Note_on_c, 0, 64, 0
2, 45360, Note_on_c, 0, 63, 80
2, 45420, Note_on_c, 0, 63, 0
2, 45420, Note_on_c, 0, 64, 80
2, 45480, Note_on_c, 0, 64, 0
2, 45480, Note_on_c, 0, 66, 80
2, 45540, Note_on_c, 0, 66, 0
2, 45540, Control_c, 0, 64, 0
2, 45540, Note_on_c, 0, 64, 80
2, 45600, Note_on_c, 0, 64, 0
2, 45600, Note_on_c, 0, 62, 80
2, 45920, Note_on_c, 0, 62, 0
2, 45920, Note_on_c, 0, 60, 67
2, 46080, Note_on_c, 0, 60, 0
2, 46080, Control_c, 0, 64, 127
2, 46080, Note_on_c, 0, 59, 67
2, 46176, Note_on_c, 0, 59, 0
2, 46176, Note_on_c, 0, 60, 67
2, 46272, Note_on_c, 0, 60, 0
2, 46272, Note_on_c, 0, 59, 67
2, 46367, Note_on_c, 0, 59, 0
2, 46367, Note_on_c, 0, 58, 67
2, 46463, Note_on_c, 0, 58, 0
2, 46463, Control_c, 0, 64, 0
2, 46463, Note_on_c, 0, 59, 67
2, 46560, Note_on_c, 0, 59, 0
2, 46560, Note_on_c, 0, 64, 67
2, 46719, Note_on_c, 0, 64, 0
2, 46719, Note_on_c, 0, 62, 67
2, 46880, Note_on_c, 0, 62, 0
2, 46880, Note_on_c, 0, 60, 67
2, 47040, Note_on_c, 0, 60, 0
2, 47040, Note_on_c, 0, 59, 67
2, 47199, Note_on_c, 0, 59, 0
2, 47199, Note_on_c, 0, 57, 67
2, 47360, Note_on_c, 0, 57, 0
2, 47360, Note_on_c, 0, 55, 67
2, 47520, Note_on_c, 0, 55, 0
2, 47520, Note_on_c, 0, 57, 67
2, 47840, Note_on_c, 0, 57, 0
2, 47840, Note_on_c, 0, 58, 67
2, 48000, Note_on_c, 0, 58, 0
2, 48000, Note_on_c, 0, 59, 67
2, 48240, Note_on_c, 0, 59, 0
2, 49200, Note_on_c, 0, 71, 93
2, 49440, Note_on_c, 0, 71, 0
2, 49440, Note_on_c, 0, 73, 93
2, 49680, Note_on_c, 0, 73, 0
2, 49680, Note_on_c, 0, 75, 93
2, 49920, Note_on_c, 0, 75, 0
2, 49920, Note_on_c, 0, 76, 93
2, 50340, Note_on_c, 0, 76, 0
2, 50340, Note_on_c, 0, 73, 67
2, 50400, Note_on_c, 0, 73, 0
2, 50400, Note_on_c, 0, 73, 67
2, 51120, Note_on_c, 0, 73, 0
2, 51120, Note_on_c, 0, 73, 93
2, 51360, Note_on_c, 0, 73, 0
2, 51360, Note_on_c, 0, 75, 93
2, 51600, Note_on_c, 0, 75, 0
2, 51600, Note_on_c, 0, 76, 93
2, 51840, Note_on_c, 0, 76, 0
2, 51840, Note_on_c, 0, 78, 93
2, 52260, Note_on_c, 0, 78, 0
2, 52260, Note_on_c, 0, 75, 67
2, 52320, Note_on_c, 0, 75, 0
2, 52320, Note_on_c, 0, 75, 80
2, 53040, Note_on_c, 0, 75, 0
2, 53040, Note_on_c, 0, 83, 106
2, 53280, Note_on_c, 0, 83, 0
2, 53280, Note_on_c, 0, 83, 106
2, 53520, Note_on_c, 0, 83, 0
2, 53520, Note_on_c, 0, 83, 106
2, 53760, Note_on_c, 0, 83, 0
2, 53760, Note_on_c, 0, 83, 80
2, 53919, Note_on_c, 0, 83, 0
2, 53919, Note_on_c, 0, 79, 80
2, 54080, Note_on_c, 0, 79, 0
2, 54080, Note_on_c, 0, 78, 80
2, 54240, Note_on_c, 0, 78, 0
2, 54240, Note_on_c, 0, 76, 80
2, 54399, Note_on_c, 0, 76, 0
2, 54399, Note_on_c, 0, 78, 80
2, 54560, Note_on_c, 0, 78, 0
2, 54560, Note_on_c, 0, 79, 106
2, 54720, Note_on_c, 0, 79, 0
2, 54720, Note_on_c, 0, 84, 106
2, 54879, Note_on_c, 0, 84, 0
2, 54879, Note_on_c, 0, 83, 106
2, 55040, Note_on_c, 0, 83, 0
2, 55040, Note_on_c, 0, 81, 106
2, 55200, Note_on_c, 0, 81, 0
2, 55200, Note_on_c, 0, 79, 106
2, 55359, Note_on_c, 0, 79, 0
2, 55359, Note_on_c, 0, 78, 106
2, 55520, Note_on_c, 0, 78, 0
2, 55520, Note_on_c, 0, 76, 106
2, 55680, Note_on_c, 0, 76, 0
2, 55680, Note_on_c, 0, 76, 80
2, 56160, Note_on_c, 0, 76, 0
2, 56160, Note_on_c, 0, 75, 80
2, 56640, Note_on_c, 0, 75, 0
2, 56640, Note_on_c, 0, 71, 80
2, 57360, Note_on_c, 0, 71, 0
2, 57360, Note_on_c, 0, 69, 80
2, 57600, Note_on_c, 0, 69, 0
2, 57840, Note_on_c, 0, 83, 80
2, 58239, Note_on_c, 0, 83, 0
2, 58239, Note_on_c, 0, 79, 80
2, 58400, Note_on_c, 0, 79, 0
2, 58400, Note_on_c, 0, 78, 80
2, 58560, Note_on_c, 0, 78, 0
2, 58560, Note_on_c, 0, 67, 80
2, 58560, Note_on_c, 0, 76, 80
2, 59040, Note_on_c, 0, 76, 0
2, 59040, Note_on_c, 0, 67, 0
2, 59040, Note_on_c, 0, 66, 80
2, 59280, Note_on_c, 0, 66, 0
2, 59280, Note_on_c, 0, 64, 80
2, 59520, Note_on_c, 0, 64, 0
2, 59760, Note_on_c, 0, 81, 80
2, 60159, Note_on_c, 0, 81, 0
2, 60159, Note_on_c, 0, 78, 80
2, 60320, Note_on_c, 0, 78, 0
2, 60320, Note_on_c, 0, 76, 80
2, 60480, Note_on_c, 0, 76, 0
2, 60480, Note_on_c, 0, 75, 80
2, 60720, Note_on_c, 0, 75, 0
2, 61680, Note_on_c, 0, 79, 80
2, 62040, Note_on_c, 0, 79, 0
2, 62040, Note_on_c, 0, 76, 80
2, 62160, Note_on_c, 0, 76, 0
2, 62160, Control_c, 0, 64, 127
2, 62160, Note_on_c, 0, 72, 80
2, 62207, Note_on_c, 0, 72, 0
2, 62207, Note_on_c, 0, 74, 80
2, 62256, Note_on_c, 0, 74, 0
2, 62256, Note_on_c, 0, 72, 80
2, 62303, Note_on_c, 0, 72, 0
2, 62303, Note_on_c, 0, 71, 80
2, 62352, Note_on_c, 0, 71, 0
2, 62352, Note_on_c, 0, 72, 80
2, 62400, Note_on_c, 0, 72, 0
2, 62400, Control_c, 0, 64, 0
2, 62400, Note_on_c, 0, 76, 80
2, 62880, Note_on_c, 0, 76, 0
2, 62880, Note_on_c, 0, 74, 80
2, 63120, Note_on_c, 0, 74, 0
2, 63120, Note_on_c, 0, 72, 80
2, 63360, Note_on_c, 0, 72, 0
2, 63360, Note_on_c, 0, 71, 80
2, 63600, Note_on_c, 0, 71, 0
2, 63600, Note_on_c, 0, 74, 80
2, 63840, Note_on_c, 0, 74, 0
2, 63840, Note_on_c, 0, 79, 80
2, 64080, Note_on_c, 0, 79, 0
2, 64080, Note_on_c, 0, 71, 80
2, 64320, Note_on_c, 0, 71, 0
2, 64320, Note_on_c, 0, 69, 80
2, 64440, Note_on_c, 0, 69, 0
2, 64440, Note_on_c, 0, 72, 80
2, 64560, Note_on_c, 0, 72, 0
2, 64560, Note_on_c, 0, 76, 106
2, 64680, Note_on_c, 0, 76, 0
2, 64680, Note_on_c, 0, 79, 106
2, 64800, Note_on_c, 0, 79, 0
2, 64800, Note_on_c, 0, 78, 80
2, 64920, Note_on_c, 0, 78, 0
2, 64920, Note_on_c, 0, 76, 80
2, 65040, Note_on_c, 0, 76, 0
2, 65040, Note_on_c, 0, 72, 106
2, 65160, Note_on_c, 0, 72, 0
2, 65160, Note_on_c, 0, 69, 106
2, 65280, Note_on_c, 0, 69, 0
2, 65280, Control_c, 0, 64, 127
2, 65280, Note_on_c, 0, 67, 80
2, 65400, Note_on_c, 0, 67, 0
2, 65400, Note_on_c, 0, 66, 80
2, 65520, Note_on_c, 0, 66, 0
2, 65520, Note_on_c, 0, 64, 80
2, 65640, Note_on_c, 0, 64, 0
2, 65640, Control_c, 0, 64, 0
2, 65640, Note_on_c, 0, 67, 80
2, 65760, Note_on_c, 0, 67, 0
2, 65760, Note_on_c, 0, 72, 80
2, 65880, Note_on_c, 0, 72, 0
2, 65880, Note_on_c, 0, 71, 80
2, 66000, Note_on_c, 0, 71, 0
2, 66000, Note_on_c, 0, 67, 106
2, 66120, Note_on_c, 0, 67, 0
2, 66120, Note_on_c, 0, 64, 106
2, 66240, Note_on_c, 0, 64, 0
2, 66240, Note_on_c, 0, 67, 106
2, 66960, Note_on_c, 0, 67, 0
2, 66960, Note_on_c, 0, 66, 80
2, 67200, Note_on_c, 0, 66, 0
2, 67200, Note_on_c, 0, 64, 80
2, 67440, Note_on_c, 0, 64, 0
2, 67440, Note_on_c, 0, 59, 80
2, 67680, Note_on_c, 0, 59, 0
2, 67680, Note_on_c, 0, 67, 80
2, 67920, Note_on_c, 0, 67, 0
2, 67920, Note_on_c, 0, 59, 80
2, 68160, Note_on_c, 0, 59, 0
2, 68160, Note_on_c, 0, 57, 80
2, 68280, Note_on_c, 0, 57, 0
2, 68280, Note_on_c, 0, 60, 80
2, 68400, Note_on_c, 0, 60, 0
2, 68400, Note_on_c, 0, 64, 106
2, 68520, Note_on_c, 0, 64, 0
2, 68520, Note_on_c, 0, 67, 106
2, 68640, Note_on_c, 0, 67, 0
2, 68640, Note_on_c, 0, 66, 80
2, 68760, Note_on_c, 0, 66, 0
2, 68760, Note_on_c, 0, 64, 80
2, 68880, Note_on_c, 0, 64, 0
2, 68880, Note_on_c, 0, 60, 106
2, 69000, Note_on_c, 0, 60, 0
2, 69000, Note_on_c, 0, 57, 106
2, 69120, Note_on_c, 0, 57, 0
2, 69120, Control_c, 0, 64, 127
2, 69120, Note_on_c, 0, 55, 80
2, 69240, Note_on_c, 0, 55, 0
2, 69240, Note_on_c, 0, 57, 80
2, 69360, Note_on_c, 0, 57, 0
2, 69360, Note_on_c, 0, 59, 80
2, 69480, Note_on_c, 0, 59, 0
2, 69480, Control_c, 0, 64, 0
2, 69480, Note_on_c, 0, 61, 80
2, 69600, Note_on_c, 0, 61, 0
2, 69600, Note_on_c, 0, 63, 80
2, 69720, Note_on_c, 0, 63, 0
2, 69720, Note_on_c, 0, 64, 80
2, 69840, Note_on_c, 0, 64, 0
2, 69840, Note_on_c, 0, 66, 80
2, 69960, Note_on_c, 0, 66, 0
2, 69960, Note_on_c, 0, 67, 80
2, 70080, Note_on_c, 0, 67, 0
2, 70080, Note_on_c, 0, 69, 80
2, 70200, Note_on_c, 0, 69, 0
2, 70200, Note_on_c, 0, 71, 80
2, 70320, Note_on_c, 0, 71, 0
2, 70320, Note_on_c, 0, 72, 80
2, 70800, Note_on_c, 0, 72, 0
2, 70800, Note_on_c, 0, 71, 80
2, 71040, Note_on_c, 0, 71, 0
2, 71040, Note_on_c, 0, 71, 67
2, 71520, Note_on_c, 0, 71, 0
2, 71520, Note_on_c, 0, 69, 67
2, 72000, Note_on_c, 0, 69, 0
2, 72240, Note_on_c, 0, 76, 106
2, 72480, Note_on_c, 0, 76, 0
2, 72480, Note_on_c, 0, 76, 106
2, 72720, Note_on_c, 0, 76, 0
2, 72720, Note_on_c, 0, 76, 106
2, 72960, Note_on_c, 0, 76, 0
2, 72960, Note_on_c, 0, 76, 106
2, 73380, Note_on_c, 0, 76, 0
2, 73380, Note_on_c, 0, 74, 80
2, 73440, Note_on_c, 0, 74, 0
2, 73440, Note_on_c, 0, 74, 80
2, 73680, Note_on_c, 0, 74, 0
2, 74160, Note_on_c, 0, 74, 119
2, 74400, Note_on_c, 0, 74, 0
2, 74400, Note_on_c, 0, 76, 119
2, 74640, Note_on_c, 0, 76, 0
2, 74640, Note_on_c, 0, 78, 119
2, 74880, Note_on_c, 0, 78, 0
2, 74880, Note_on_c, 0, 79, 119
2, 75300, Note_on_c, 0, 79, 0
2, 75300, Note_on_c, 0, 76, 93
2, 75360, Note_on_c, 0, 76, 0
2, 75360, Note_on_c, 0, 76, 93
2, 76080, Note_on_c, 0, 76, 0
2, 76080, Note_on_c, 0, 76, 119
2, 76320, Note_on_c, 0, 76, 0
2, 76320, Note_on_c, 0, 78, 119
2, 76560, Note_on_c, 0, 78, 0
2, 76560, Note_on_c, 0, 79, 119
2, 76800, Note_on_c, 0, 79, 0
2, 76800, Note_on_c, 0, 81, 119
2, 77220, Note_on_c, 0, 81, 0
2, 77220, Note_on_c, 0, 78, 93
2, 77280, Note_on_c, 0, 78, 0
2, 77280, Note_on_c, 0, 78, 93
2, 78000, Note_on_c, 0, 78, 0
2, 78000, Note_on_c, 0, 86, 119
2, 78240, Note_on_c, 0, 86, 0
2, 78240, Note_on_c, 0, 86, 119
2, 78480, Note_on_c, 0, 86, 0
2, 78480, Note_on_c, 0, 86, 119
2, 78720, Note_on_c, 0, 86, 0
2, 78720, Note_on_c, 0, 86, 80
2, 78879, Note_on_c, 0, 86, 0
2, 78879, Note_on_c, 0, 82, 80
2, 79040, Note_on_c, 0, 82, 0
2, 79040, Note_on_c, 0, 81, 80
2, 79200, Note_on_c, 0, 81, 0
2, 79200, Note_on_c, 0, 79, 80
2, 79359, Note_on_c, 0, 79, 0
2, 79359, Note_on_c, 0, 81, 80
2, 79520, Note_on_c, 0, 81, 0
2, 79520, Note_on_c, 0, 82, 80
2, 79680, Note_on_c, 0, 82, 0
2, 79680, Note_on_c, 0, 87, 80
2, 79839, Note_on_c, 0, 87, 0
2, 79839, Note_on_c, 0, 86, 80
2, 80000, Note_on_c, 0, 86, 0
2, 80000, Note_on_c, 0, 84, 80
2, 80160, Note_on_c, 0, 84, 0
2, 80160, Note_on_c, 0, 82, 80
2, 80319, Note_on_c, 0, 82, 0
2, 80319, Note_on_c, 0, 81, 80
2, 80480, Note_on_c, 0, 81, 0
2, 80480, Note_on_c, 0, 79, 80
2, 80640, Note_on_c, 0, 79, 0
2, 80880, Note_on_c, 0, 74, 106
2, 80880, Note_on_c, 0, 86, 106
2, 81120, Note_on_c, 0, 86, 0
2, 81120, Note_on_c, 0, 74, 0
2, 81120, Note_on_c, 0, 74, 106
2, 81120, Note_on_c, 0, 86, 106
2, 81360, Note_on_c, 0, 86, 0
2, 81360, Note_on_c, 0, 74, 0
2, 81360, Note_on_c, 0, 74, 106
2, 81360, Note_on_c, 0, 86, 106
2, 81600, Note_on_c, 0, 86, 0
2, 81600, Note_on_c, 0, 74, 0
2, 81600, Note_on_c, 0, 74, 106
2, 81600, Note_on_c, 0, 86, 106
2, 82020, Note_on_c, 0, 86, 0
2, 82020, Note_on_c, 0, 74, 0
2, 82020, Note_on_c, 0, 74, 106
2, 82080, Note_on_c, 0, 74, 0
2, 82080, Note_on_c, 0, 74, 106
2, 82320, Note_on_c, 0, 74, 0
2, 82560, Note_on_c, 0, 67, 127
2, 82980, Note_on_c, 0, 67, 0
2, 82980, Note_on_c, 0, 64, 106
2, 83040, Note_on_c, 0, 64, 0
2, 83040, Control_c, 0, 64, 127
2, 83040, Note_on_c, 0, 64, 106
2, 83100, Note_on_c, 0, 64, 0
2, 83100, Note_on_c, 0, 67, 106
2, 83160, Note_on_c, 0, 67, 0
2, 83160, Note_on_c, 0, 70, 106
2, 83220, Note_on_c, 0, 70, 0
2, 83220, Note_on_c, 0, 74, 106
2, 83280, Note_on_c, 0, 74, 0
2, 83280, Note_on_c, 0, 79, 106
2, 83340, Note_on_c, 0, 79, 0
2, 83340, Note_on_c, 0, 74, 106
2, 83400, Note_on_c, 0, 74, 0
2, 83400, Note_on_c, 0, 70, 106
2, 83460, Note_on_c, 0, 70, 0
2, 83460, Note_on_c, 0, 67, 106
2, 83520, Note_on_c, 0, 67, 0
2, 83520, Control_c, 0, 64, 0
2, 83520, Note_on_c, 0, 64, 106
2, 83760, Note_on_c, 0, 64, 0
2, 83760, Note_on_c, 0, 64, 127
2, 84000, Note_on_c, 0, 64, 0
2, 84000, Note_on_c, 0, 66, 127
2, 84240, Note_on_c, 0, 66, 0
2, 84240, Note_on_c, 0, 67, 127
2, 84480, Note_on_c, 0, 67, 0
2, 84480, Note_on_c, 0, 69, 127
2, 84900, Note_on_c, 0, 69, 0
2, 84900, Note_on_c, 0, 66, 106
2, 84960, Note_on_c, 0, 66, 0
2, 84960, Control_c, 0, 64, 127
2, 84960, Note_on_c, 0, 66, 106
2, 85020, Note_on_c, 0, 66, 0
2, 85020, Note_on_c, 0, 69, 106
2, 85080, Note_on_c, 0, 69, 0
2, 85080, Note_on_c, 0, 74, 106
2, 85140, Note_on_c, 0, 74, 0
2, 85140, Note_on_c, 0, 78, 106
2, 85200, Note_on_c, 0, 78, 0
2, 85200, Note_on_c, 0, 81, 106
2, 85247, Note_on_c, 0, 81, 0
2, 85247, Note_on_c, 0, 78, 106
2, 85296, Note_on_c, 0, 78, 0
2, 85296, Note_on_c, 0, 74, 106
2, 85343, Note_on_c, 0, 74, 0
2, 85343, Note_on_c, 0, 69, 106
2, 85392, Note_on_c, 0, 69, 0
2, 85392, Note_on_c, 0, 66, 106
2, 85440, Note_on_c, 0, 66, 0
2, 85440, Control_c, 0, 64, 0
2, 85440, Note_on_c, 0, 62, 106
2, 85680, Note_on_c, 0, 62, 0
2, 85680, Note_on_c, 0, 74, 127
2, 85920, Note_on_c, 0, 74, 0
2, 85920, Note_on_c, 0, 74, 127
2, 86160, Note_on_c, 0, 74, 0
2, 86160, Note_on_c, 0, 74, 127
2, 86400, Note_on_c, 0, 74, 0
2, 86400, Control_c, 0, 64, 127
2, 86400, Note_on_c, 0, 75, 106
2, 86460, Note_on_c, 0, 75, 0
2, 86460, Note_on_c, 0, 83, 106
2, 86520, Note_on_c, 0, 83, 0
2, 86520, Note_on_c, 0, 78, 106
2, 86580, Note_on_c, 0, 78, 0
2, 86580, Note_on_c, 0, 75, 106
2, 86640, Note_on_c, 0, 75, 0
2, 86640, Note_on_c, 0, 71, 106
2, 86700, Note_on_c, 0, 71, 0
2, 86700, Note_on_c, 0, 78, 106
2, 86760, Note_on_c, 0, 78, 0
2, 86760, Note_on_c, 0, 75, 106
2, 86820, Note_on_c, 0, 75, 0
2, 86820, Note_on_c, 0, 71, 106
2, 86880, Note_on_c, 0, 71, 0
2, 86880, Note_on_c, 0, 66, 106
2, 86940, Note_on_c, 0, 66, 0
2, 86940, Note_on_c, 0, 71, 106
2, 87000, Note_on_c, 0, 71, 0
2, 87000, Note_on_c, 0, 75, 106
2, 87060, Note_on_c, 0, 75, 0
2, 87060, Note_on_c, 0, 78, 106
2, 87120, Note_on_c, 0, 78, 0
2, 87120, Note_on_c, 0, 83, 106
2, 87167, Note_on_c, 0, 83, 0
2, 87167, Note_on_c, 0, 78, 106
2, 87216, Note_on_c, 0, 78, 0
2, 87216, Note_on_c, 0, 75, 106
2, 87263, Note_on_c, 0, 75, 0
2, 87263, Note_on_c, 0, 71, 106
2, 87312, Note_on_c, 0, 71, 0
2, 87312, Note_on_c, 0, 66, 106
2, 87360, Note_on_c, 0, 66, 0
2, 87360, Control_c, 0, 64, 0
2, 87360, Note_on_c, 0, 63, 106
2, 87600, Note_on_c, 0, 63, 0
2, 87600, Note_on_c, 0, 75, 127
2, 87840, Note_on_c, 0, 75, 0
2, 87840, Note_on_c, 0, 75, 127
2, 88080, Note_on_c, 0, 75, 0
2, 88080, Note_on_c, 0, 75, 127
2, 88320, Note_on_c, 0, 75, 0
2, 88320, Control_c, 0, 64, 127
2, 88320, Note_on_c, 0, 76, 106
2, 88380, Note_on_c, 0, 76, 0
2, 88380, Note_on_c, 0, 84, 106
2, 88440, Note_on_c, 0, 84, 0
2, 88440, Note_on_c, 0, 79, 106
2, 88500, Note_on_c, 0, 79, 0
2, 88500, Note_on_c, 0, 76, 106
2, 88560, Note_on_c, 0, 76, 0
2, 88560, Note_on_c, 0, 72, 106
2, 88620, Note_on_c, 0, 72, 0
2, 88620, Note_on_c, 0, 79, 106
2, 88680, Note_on_c, 0, 79, 0
2, 88680, Note_on_c, 0, 76, 106
2, 88740, Note_on_c, 0, 76, 0
2, 88740, Note_on_c, 0, 72, 106
2, 88800, Note_on_c, 0, 72, 0
2, 88800, Note_on_c, 0, 67, 106
2, 88860, Note_on_c, 0, 67, 0
2, 88860, Note_on_c, 0, 72, 106
2, 88920, Note_on_c, 0, 72, 0
2, 88920, Note_on_c, 0, 76, 106
2, 88980, Note_on_c, 0, 76, 0
2, 88980, Note_on_c, 0, 79, 106
2, 89040, Note_on_c, 0, 79, 0
2, 89040, Note_on_c, 0, 84, 106
2, 89087, Note_on_c, 0, 84, 0
2, 89087, Note_on_c, 0, 79, 106
2, 89136, Note_on_c, 0, 79, 0
2, 89136, Note_on_c, 0, 76, 106
2, 89183, Note_on_c, 0, 76, 0
2, 89183, Note_on_c, 0, 72, 106
2, 89232, Note_on_c, 0, 72, 0
2, 89232, Note_on_c, 0, 67, 106
2, 89280, Note_on_c, 0, 67, 0
2, 89280, Control_c, 0, 64, 0
2, 89280, Note_on_c, 0, 64, 106
2, 89520, Note_on_c, 0, 64, 0
2, 89520, Note_on_c, 0, 76, 127
2, 89760, Note_on_c, 0, 76, 0
2, 89760, Note_on_c, 0, 76, 127
2, 90000, Note_on_c, 0, 76, 0
2, 90000, Note_on_c, 0, 76, 127
2, 90240, Note_on_c, 0, 76, 0
2, 90240, Note_on_c, 0, 77, 67
2, 90300, Note_on_c, 0, 77, 0
2, 90300, Note_on_c, 0, 65, 67
2, 90360, Note_on_c, 0, 65, 0
2, 90360, Note_on_c, 0, 67, 67
2, 90420, Note_on_c, 0, 67, 0
2, 90420, Note_on_c, 0, 69, 67
2, 90480, Note_on_c, 0, 69, 0
2, 90480, Note_on_c, 0, 70, 67
2, 90540, Note_on_c, 0, 70, 0
2, 90540, Note_on_c, 0, 72, 67
2, 90600, Note_on_c, 0, 72, 0
2, 90600, Note_on_c, 0, 74, 67
2, 90660, Note_on_c, 0, 74, 0
2, 90660, Note_on_c, 0, 76, 67
2, 90720, Note_on_c, 0, 76, 0
2, 90720, Note_on_c, 0, 77, 67
2, 90780, Note_on_c, 0, 77, 0
2, 90780, Note_on_c, 0, 79, 67
2, 90840, Note_on_c, 0, 79, 0
2, 90840, Note_on_c, 0, 81, 67
2, 90900, Note_on_c, 0, 81, 0
2, 90900, Note_on_c, 0, 82, 67
2, 90960, Note_on_c, 0, 82, 0
2, 90960, Note_on_c, 0, 84, 67
2, 91020, Note_on_c, 0, 84, 0
2, 91020, Note_on_c, 0, 86, 67
2, 91080, Note_on_c, 0, 86, 0
2, 91080, Note_on_c, 0, 88, 67
2, 91140, Note_on_c, 0, 88, 0
2, 91140, Note_on_c, 0, 89, 67
2, 91200, Note_on_c, 0, 89, 0
2, 91200, Note_on_c, 0, 90, 80
2, 91260, Note_on_c, 0, 90, 0
2, 91260, Note_on_c, 0, 71, 80
2, 91320, Note_on_c, 0, 71, 0
2, 91320, Note_on_c, 0, 72, 80
2, 91380, Note_on_c, 0, 72, 0
2, 91380, Note_on_c, 0, 74, 80
2, 91440, Note_on_c, 0, 74, 0
2, 91440, Note_on_c, 0, 75, 80
2, 91500, Note_on_c, 0, 75, 0
2, 91500, Note_on_c, 0, 77, 80
2, 91560, Note_on_c, 0, 77, 0
2, 91560, Note_on_c, 0, 78, 80
2, 91620, Note_on_c, 0, 78, 0
2, 91620, Note_on_c, 0, 79, 80
2, 91680, Note_on_c, 0, 79, 0
2, 91680, Note_on_c, 0, 80, 80
2, 91740, Note_on_c, 0, 80, 0
2, 91740, Note_on_c, 0, 82, 80
2, 91800, Note_on_c, 0, 82, 0
2, 91800, Note_on_c, 0, 83, 80
2, 91860, Note_on_c, 0, 83, 0
2, 91860, Note_on_c, 0, 84, 80
2, 91920, Note_on_c, 0, 84, 0
2, 91920, Note_on_c, 0, 86, 80
2, 91980, Note_on_c, 0, 86, 0
2, 91980, Note_on_c, 0, 87, 80
2, 92040, Note_on_c, 0, 87, 0
2, 92040, Note_on_c, 0, 89, 80
2, 92100, Note_on_c, 0, 89, 0
2, 92100, Note_on_c, 0, 90, 80
2, 92160, Note_on_c, 0, 90, 0
2, 92160, Note_on_c, 0, 91, 93
2, 92220, Note_on_c, 0, 91, 0
2, 92220, Note_on_c, 0, 87, 93
2, 92280, Note_on_c, 0, 87, 0
2, 92280, Note_on_c, 0, 86, 93
2, 92340, Note_on_c, 0, 86, 0
2, 92340, Note_on_c, 0, 87, 93
2, 92400, Note_on_c, 0, 87, 0
2, 92400, Note_on_c, 0, 83, 93
2, 92460, Note_on_c, 0, 83, 0
2, 92460, Note_on_c, 0, 84, 93
2, 92520, Note_on_c, 0, 84, 0
2, 92520, Note_on_c, 0, 78, 93
2, 92580, Note_on_c, 0, 78, 0
2, 92580, Note_on_c, 0, 79, 93
2, 92640, Note_on_c, 0, 79, 0
2, 92640, Note_on_c, 0, 74, 93
2, 92700, Note_on_c, 0, 74, 0
2, 92700, Note_on_c, 0, 75, 93
2, 92760, Note_on_c, 0, 75, 0
2, 92760, Note_on_c, 0, 71, 93
2, 92820, Note_on_c, 0, 71, 0
2, 92820, Note_on_c, 0, 72, 93
2, 92880, Note_on_c, 0, 72, 0
2, 92880, Note_on_c, 0, 67, 93
2, 92940, Note_on_c, 0, 67, 0
2, 92940, Note_on_c, 0, 71, 93
2, 93000, Note_on_c, 0, 71, 0
2, 93000, Note_on_c, 0, 72, 93
2, 93060, Note_on_c, 0, 72, 0
2, 93060, Note_on_c, 0, 75, 93
2, 93120, Note_on_c, 0, 75, 0
2, 93120, Note_on_c, 0, 79, 93
2, 93180, Note_on_c, 0, 79, 0
2, 93180, Note_on_c, 0, 75, 93
2, 93240, Note_on_c, 0, 75, 0
2, 93240, Note_on_c, 0, 74, 93
2, 93300, Note_on_c, 0, 74, 0
2, 93300, Note_on_c, 0, 75, 93
2, 93360, Note_on_c, 0, 75, 0
2, 93360, Note_on_c, 0, 71, 93
2, 93420, Note_on_c, 0, 71, 0
2, 93420, Note_on_c, 0, 72, 93
2, 93480, Note_on_c, 0, 72, 0
2, 93480, Note_on_c, 0, 66, 93
2, 93540, Note_on_c, 0, 66, 0
2, 93540, Note_on_c, 0, 67, 93
2, 93600, Note_on_c, 0, 67, 0
2, 93600, Note_on_c, 0, 62, 93
2, 93660, Note_on_c, 0, 62, 0
2, 93660, Note_on_c, 0, 63, 93
2, 93720, Note_on_c, 0, 63, 0
2, 93720, Note_on_c, 0, 59, 93
2, 93780, Note_on_c, 0, 59, 0
2, 93780, Note_on_c, 0, 60, 93
2, 93840, Note_on_c, 0, 60, 0
2, 93840, Note_on_c, 0, 55, 93
2, 93900, Note_on_c, 0, 55, 0
2, 93900, Note_on_c, 0, 59, 93
2, 93960, Note_on_c, 0, 59, 0
2, 93960, Note_on_c, 0, 60, 93
2, 94020, Note_on_c, 0, 60, 0
2, 94020, Note_on_c, 0, 63, 93
2, 94080, Note_on_c, 0, 63, 0
2, 94080, Note_on_c, 0, 55, 93
2, 94140, Note_on_c, 0, 55, 0
2, 94140, Note_on_c, 0, 57, 93
2, 94200, Note_on_c, 0, 57, 0
2, 94200, Note_on_c, 0, 60, 93
2, 94260, Note_on_c, 0, 60, 0
2, 94260, Note_on_c, 0, 63, 93
2, 94320, Note_on_c, 0, 63, 0
2, 94320, Note_on_c, 0, 55, 93
2, 94380, Note_on_c, 0, 55, 0
2, 94380, Note_on_c, 0, 57, 93
2, 94440, Note_on_c, 0, 57, 0
2, 94440, Note_on_c, 0, 60, 93
2, 94500, Note_on_c, 0, 60, 0
2, 94500, Note_on_c, 0, 63, 93
2, 94560, Note_on_c, 0, 63, 0
2, 94560, Note_on_c, 0, 55, 93
2, 94620, Note_on_c, 0, 55, 0
2, 94620, Note_on_c, 0, 57, 93
2, 94680, Note_on_c, 0, 57, 0
2, 94680, Note_on_c, 0, 60, 93
2, 94740, Note_on_c, 0, 60, 0
2, 94740, Note_on_c, 0, 63, 93
2, 94800, Note_on_c, 0, 63, 0
2, 94800, Note_on_c, 0, 55, 93
2, 94860, Note_on_c, 0, 55, 0
2, 94860, Note_on_c, 0, 57, 93
2, 94920, Note_on_c, 0, 57, 0
2, 94920, Note_on_c, 0, 60, 93
2, 94980, Note_on_c, 0, 60, 0
2, 94980, Note_on_c, 0, 63, 93
2, 95040, Note_on_c, 0, 63, 0
2, 95040, Note_on_c, 0, 55, 80
2, 95100, Note_on_c, 0, 55, 0
2, 95100, Note_on_c, 0, 58, 80
2, 95160, Note_on_c, 0, 58, 0
2, 95160, Note_on_c, 0, 61, 80
2, 95220, Note_on_c, 0, 61, 0
2, 95220, Note_on_c, 0, 64, 80
2, 95280, Note_on_c, 0, 64, 0
2, 95280, Note_on_c, 0, 55, 80
2, 95340, Note_on_c, 0, 55, 0
2, 95340, Note_on_c, 0, 58, 80
2, 95400, Note_on_c, 0, 58, 0
2, 95400, Note_on_c, 0, 61, 80
2, 95460, Note_on_c, 0, 61, 0
2, 95460, Note_on_c, 0, 64, 80
2, 95520, Note_on_c, 0, 64, 0
2, 95520, Note_on_c, 0, 55, 80
2, 95580, Note_on_c, 0, 55, 0
2, 95580, Note_on_c, 0, 58, 80
2, 95640, Note_on_c, 0, 58, 0
2, 95640, Note_on_c, 0, 61, 80
2, 95700, Note_on_c, 0, 61, 0
2, 95700, Note_on_c, 0, 64, 80
2, 95760, Note_on_c, 0, 64, 0
2, 95760, Note_on_c, 0, 55, 80
2, 95820, Note_on_c, 0, 55, 0
2, 95820, Note_on_c, 0, 58, 80
2, 95880, Note_on_c, 0, 58, 0
2, 95880, Note_on_c, 0, 61, 80
2, 95940, Note_on_c, 0, 61, 0
2, 95940, Note_on_c, 0, 64, 80
2, 96000, Note_on_c, 0, 64, 0
2, 96000, Note_on_c, 0, 55, 67
2, 96080, Note_on_c, 0, 55, 0
2, 96080, Note_on_c, 0, 59, 67
2, 96159, Note_on_c, 0, 59, 0
2, 96159, Note_on_c, 0, 62, 67
2, 96240, Note_on_c, 0, 62, 0
2, 96240, Note_on_c, 0, 65, 67
2, 96320, Note_on_c, 0, 65, 0
2, 96320, Note_on_c, 0, 55, 67
2, 96399, Note_on_c, 0, 55, 0
2, 96399, Note_on_c, 0, 59, 67
2, 96480, Note_on_c, 0, 59, 0
2, 96480, Note_on_c, 0, 62, 67
2, 96560, Note_on_c, 0, 62, 0
2, 96560, Note_on_c, 0, 65, 67
2, 96639, Note_on_c, 0, 65, 0
2, 96639, Note_on_c, 0, 55, 67
2, 96720, Note_on_c, 0, 55, 0
2, 96720, Note_on_c, 0, 59, 67
2, 96800, Note_on_c, 0, 59, 0
2, 96800, Note_on_c, 0, 62, 67
2, 96879, Note_on_c, 0, 62, 0
2, 96879, Note_on_c, 0, 65, 67
2, 96960, Note_on_c, 0, 65, 0
2, 96960, Control_c, 0, 64, 127
2, 96960, Note_on_c, 0, 55, 67
2, 97080, Note_on_c, 0, 55, 0
2, 97080, Note_on_c, 0, 59, 67
2, 97200, Note_on_c, 0, 59, 0
2, 97200, Note_on_c, 0, 62, 67
2, 97320, Note_on_c, 0, 62, 0
2, 97320, Control_c, 0, 64, 0
2, 97320, Note_on_c, 0, 65, 67
2, 97440, Note_on_c, 0, 65, 0
2, 97440, Control_c, 0, 64, 127
2, 97440, Note_on_c, 0, 55, 67
2, 97560, Note_on_c, 0, 55, 0
2, 97560, Note_on_c, 0, 59, 67
2, 97680, Note_on_c, 0, 59, 0
2, 97680, Note_on_c, 0, 62, 67
2, 97800, Note_on_c, 0, 62, 0
2, 97800, Control_c, 0, 64, 0
2, 97800, Note_on_c, 0, 65, 67
2, 97920, Note_on_c, 0, 65, 0
2, 97920, Control_c, 0, 64, 127
2, 97920, Note_on_c, 0, 55, 67
2, 98079, Note_on_c, 0, 55, 0
2, 98079, Note_on_c, 0, 59, 67
2, 98240, Note_on_c, 0, 59, 0
2, 98240, Note_on_c, 0, 62, 67
2, 98400, Note_on_c, 0, 62, 0
2, 98400, Control_c, 0, 64, 0
2, 98400, Note_on_c, 0, 65, 67
2, 98559, Note_on_c, 0, 65, 0
2, 98559, Control_c, 0, 64, 127
2, 98559, Note_on_c, 0, 55, 67
2, 98720, Note_on_c, 0, 55, 0
2, 98720, Note_on_c, 0, 59, 67
2, 98880, Note_on_c, 0, 59, 0
2, 98880, Note_on_c, 0, 62, 54
2, 99039, Note_on_c, 0, 62, 0
2, 99039, Control_c, 0, 64, 0
2, 99039, Note_on_c, 0, 65, 54
2, 99200, Note_on_c, 0, 65, 0
2, 99200, Control_c, 0, 64, 127
2, 99200, Note_on_c, 0, 55, 54
2, 99360, Note_on_c, 0, 55, 0
2, 99360, Note_on_c, 0, 59, 54
2, 99519, Note_on_c, 0, 59, 0
2, 99519, Note_on_c, 0, 62, 54
2, 99680, Note_on_c, 0, 62, 0
2, 99680, Control_c, 0, 64, 0
2, 99680, Note_on_c, 0, 65, 54
2, 99840, Note_on_c, 0, 65, 0
2, 101040, Control_c, 0, 64, 127
2, 101040, Note_on_c, 0, 67, 67
2, 101280, Note_on_c, 0, 67, 0
2, 101280, Note_on_c, 0, 69, 67
2, 101520, Note_on_c, 0, 69, 0
2, 101520, Note_on_c, 0, 72, 67
2, 101760, Note_on_c, 0, 72, 0
2, 101760, Control_c, 0, 64, 0
2, 101760, Note_on_c, 0, 76, 67
2, 102000, Note_on_c, 0, 76, 0
2, 102000, Note_on_c, 0, 79, 67
2, 102240, Note_on_c, 0, 79, 0
2, 102240, Note_on_c, 0, 77, 93
2, 102480, Note_on_c, 0, 77, 0
2, 102480, Note_on_c, 0, 76, 93
2, 102720, Note_on_c, 0, 76, 0
2, 102720, Control_c, 0, 64, 127
2, 102720, Note_on_c, 0, 76, 67
2, 102767, Note_on_c, 0, 76, 0
2, 102767, Note_on_c, 0, 77, 67
2, 102816, Note_on_c, 0, 77, 0
2, 102816, Note_on_c, 0, 76, 67
2, 102863, Note_on_c, 0, 76, 0
2, 102863, Note_on_c, 0, 75, 67
2, 102912, Note_on_c, 0, 75, 0
2, 102912, Note_on_c, 0, 76, 67
2, 102960, Note_on_c, 0, 76, 0
2, 102960, Control_c, 0, 64, 0
2, 102960, Note_on_c, 0, 79, 67
2, 103040, Note_on_c, 0, 79, 0
2, 103040, Note_on_c, 0, 77, 67
2, 103119, Note_on_c, 0, 77, 0
2, 103119, Note_on_c, 0, 76, 67
2, 103200, Note_on_c, 0, 76, 0
2, 103200, Control_c, 0, 64, 127
2, 103200, Note_on_c, 0, 74, 67
2, 103260, Note_on_c, 0, 74, 0
2, 103260, Note_on_c, 0, 76, 67
2, 103320, Note_on_c, 0, 76, 0
2, 103320, Note_on_c, 0, 74, 67
2, 103380, Note_on_c, 0, 74, 0
2, 103380, Note_on_c, 0, 73, 67
2, 103440, Note_on_c, 0, 73, 0
2, 103440, Note_on_c, 0, 74, 67
2, 103500, Note_on_c, 0, 74, 0
2, 103500, Note_on_c, 0, 77, 67
2, 103560, Note_on_c, 0, 77, 0
2, 103560, Note_on_c, 0, 76, 67
2, 103620, Note_on_c, 0, 76, 0
2, 103620, Control_c, 0, 64, 0
2, 103620, Note_on_c, 0, 74, 67
2, 103680, Note_on_c, 0, 74, 0
2, 103680, Control_c, 0, 64, 127
2, 103680, Note_on_c, 0, 72, 67
2, 103760, Note_on_c, 0, 72, 0
2, 103760, Note_on_c, 0, 55, 67
2, 103839, Note_on_c, 0, 55, 0
2, 103839, Note_on_c, 0, 60, 67
2, 103920, Note_on_c, 0, 60, 0
2, 103920, Note_on_c, 0, 64, 67
2, 104000, Note_on_c, 0, 64, 0
2, 104000, Note_on_c, 0, 67, 67
2, 104079, Note_on_c, 0, 67, 0
2, 104079, Control_c, 0, 64, 0
2, 104079, Note_on_c, 0, 69, 67
2, 104160, Note_on_c, 0, 69, 0
2, 104160, Control_c, 0, 64, 127
2, 104160, Note_on_c, 0, 71, 93
2, 104240, Note_on_c, 0, 71, 0
2, 104240, Note_on_c, 0, 68, 67
2, 104319, Note_on_c, 0, 68, 0
2, 104319, Note_on_c, 0, 64, 67
2, 104400, Note_on_c, 0, 64, 0
2, 104400, Note_on_c, 0, 64, 67
2, 104480, Note_on_c, 0, 64, 0
2, 104480, Note_on_c, 0, 68, 67
2, 104559, Note_on_c, 0, 68, 0
2, 104559, Control_c, 0, 64, 0
2, 104559, Note_on_c, 0, 72, 93
2, 104640, Note_on_c, 0, 72, 0
2, 104640, Control_c, 0, 64, 127
2, 104640, Note_on_c, 0, 74, 93
2, 104720, Note_on_c, 0, 74, 0
2, 104720, Note_on_c, 0, 57, 67
2, 104799, Note_on_c, 0, 57, 0
2, 104799, Note_on_c, 0, 62, 67
2, 104880, Note_on_c, 0, 62, 0
2, 104880, Note_on_c, 0, 65, 67
2, 104960, Note_on_c, 0, 65, 0
2, 104960, Note_on_c, 0, 67, 67
2, 105039, Note_on_c, 0, 67, 0
2, 105039, Control_c, 0, 64, 0
2, 105039, Note_on_c, 0, 68, 93
2, 105120, Note_on_c, 0, 68, 0
2, 105120, Control_c, 0, 64, 127
2, 105120, Note_on_c, 0, 69, 93
2, 105200, Note_on_c, 0, 69, 0
2, 105200, Note_on_c, 0, 62, 67
2, 105279, Note_on_c, 0, 62, 0
2, 105279, Note_on_c, 0, 64, 67
2, 105360, Note_on_c, 0, 64, 0
2, 105360, Note_on_c, 0, 65, 67
2, 105440, Note_on_c, 0, 65, 0
2, 105440, Note_on_c, 0, 69, 67
2, 105519, Note_on_c, 0, 69, 0
2, 105519, Control_c, 0, 64, 0
2, 105519, Note_on_c, 0, 71, 93
2, 105600, Note_on_c, 0, 71, 0
2, 105600, Control_c, 0, 64, 127
2, 105600, Note_on_c, 0, 72, 67
2, 105660, Note_on_c, 0, 72, 0
2, 105660, Note_on_c, 0, 74, 67
2, 105720, Note_on_c, 0, 74, 0
2, 105720, Note_on_c, 0, 72, 67
2, 105780, Note_on_c, 0, 72, 0
2, 105780, Note_on_c, 0, 74, 67
2, 105840, Note_on_c, 0, 74, 0
2, 105840, Note_on_c, 0, 72, 67
2, 105900, Note_on_c, 0, 72, 0
2, 105900, Note_on_c, 0, 74, 67
2, 105960, Note_on_c, 0, 74, 0
2, 105960, Note_on_c, 0, 71, 67
2, 106020, Note_on_c, 0, 71, 0
2, 106020, Control_c, 0, 64, 0
2, 106020, Note_on_c, 0, 72, 67
2, 106080, Note_on_c, 0, 72, 0
2, 106080, Note_on_c, 0, 77, 67
2, 106160, Note_on_c, 0, 77, 0
2, 106160, Note_on_c, 0, 79, 67
2, 106239, Note_on_c, 0, 79, 0
2, 106239, Note_on_c, 0, 77, 67
2, 106320, Note_on_c, 0, 77, 0
2, 106320, Note_on_c, 0, 76, 67
2, 106400, Note_on_c, 0, 76, 0
2, 106400, Note_on_c, 0, 77, 67
2, 106479, Note_on_c, 0, 77, 0
2, 106479, Note_on_c, 0, 76, 67
2, 106560, Note_on_c, 0, 76, 0
2, 106560, Note_on_c, 0, 74, 67
2, 106680, Note_on_c, 0, 74, 0
2, 106880, Note_on_c, 0, 67, 67
2, 106959, Note_on_c, 0, 67, 0
2, 106959, Note_on_c, 0, 69, 67
2, 107040, Note_on_c, 0, 69, 0
2, 107040, Control_c, 0, 64, 127
2, 107040, Note_on_c, 0, 74, 67
2, 107120, Note_on_c, 0, 74, 0
2, 107120, Note_on_c, 0, 62, 67
2, 107199, Note_on_c, 0, 62, 0
2, 107199, Note_on_c, 0, 65, 67
2, 107280, Note_on_c, 0, 65, 0
2, 107280, Note_on_c, 0, 67, 67
2, 107360, Note_on_c, 0, 67, 0
2, 107360, Note_on_c, 0, 71, 67
2, 107439, Note_on_c, 0, 71, 0
2, 107439, Control_c, 0, 64, 0
2, 107439, Note_on_c, 0, 74, 67
2, 107520, Note_on_c, 0, 74, 0
2, 107520, Note_on_c, 0, 72, 67
2, 107600, Note_on_c, 0, 72, 0
2, 107600, Note_on_c, 0, 76, 67
2, 107616, Note_on_c, 0, 76, 0
2, 107679, Note_on_c, 0, 77, 67
2, 107695, Note_on_c, 0, 77, 0
2, 107700, Note_on_c, 0, 81, 67
2, 107760, Note_on_c, 0, 81, 0
2, 107760, Note_on_c, 0, 79, 67
2, 107840, Note_on_c, 0, 79, 0
2, 107840, Note_on_c, 0, 78, 67
2, 107919, Note_on_c, 0, 78, 0
2, 107919, Note_on_c, 0, 79, 67
2, 107940, Note_on_c, 0, 83, 67
2, 108000, Note_on_c, 0, 83, 0
2, 108000, Note_on_c, 0, 79, 0
2, 108000, Note_on_c, 0, 81, 67
2, 108080, Note_on_c, 0, 81, 0
2, 108080, Note_on_c, 0, 80, 67
2, 108159, Note_on_c, 0, 80, 0
2, 108159, Note_on_c, 0, 81, 67
2, 108180, Note_on_c, 0, 86, 67
2, 108240, Note_on_c, 0, 86, 0
2, 108240, Note_on_c, 0, 81, 0
2, 108240, Note_on_c, 0, 84, 67
2, 108320, Note_on_c, 0, 84, 0
2, 108320, Note_on_c, 0, 83, 67
2, 108399, Note_on_c, 0, 83, 0
2, 108399, Note_on_c, 0, 84, 67
2, 108420, Note_on_c, 0, 90, 67
2, 108480, Note_on_c, 0, 90, 0
2, 108480, Note_on_c, 0, 84, 0
2, 108480, Note_on_c, 0, 88, 67
2, 108560, Note_on_c, 0, 88, 0
2, 108560, Note_on_c, 0, 87, 67
2, 108639, Note_on_c, 0, 87, 0
2, 108639, Note_on_c, 0, 88, 67
2, 108660, Note_on_c, 0, 93, 67
2, 108720, Note_on_c, 0, 93, 0
2, 108720, Note_on_c, 0, 88, 0
2, 108720, Note_on_c, 0, 91, 67
2, 108800, Note_on_c, 0, 91, 0
2, 108800, Note_on_c, 0, 90, 67
2, 108879, Note_on_c, 0, 90, 0
2, 108879, Note_on_c, 0, 91, 67
2, 108900, Note_on_c, 0, 95, 67
2, 108960, Note_on_c, 0, 95, 0
2, 108960, Note_on_c, 0, 91, 0
2, 108960, Note_on_c, 0, 93, 54
2, 109040, Note_on_c, 0, 93, 0
2, 109040, Note_on_c, 0, 92, 54
2, 109119, Note_on_c, 0, 92, 0
2, 109119, Note_on_c, 0, 93, 54
2, 109140, Note_on_c, 0, 98, 54
2, 109200, Note_on_c, 0, 98, 0
2, 109200, Note_on_c, 0, 93, 0
2, 109200, Note_on_c, 0, 96, 54
2, 109280, Note_on_c, 0, 96, 0
2, 109280, Note_on_c, 0, 95, 54
2, 109359, Note_on_c, 0, 95, 0
2, 109359, Note_on_c, 0, 96, 54
2, 109440, Note_on_c, 0, 96, 0
2, 109440, Note_on_c, 0, 100, 54
2, 109680, Note_on_c, 0, 100, 0
2, 109680, Note_on_c, 0, 103, 54
2, 109920, Note_on_c, 0, 103, 0
2, 109920, Note_on_c, 0, 102, 54
2, 110160, Note_on_c, 0, 102, 0
2, 110160, Note_on_c, 0, 100, 54
2, 110400, Note_on_c, 0, 100, 0
2, 110400, Note_on_c, 0, 98, 54
2, 111120, Note_on_c, 0, 98, 0
2, 111120, Note_on_c, 0, 96, 54
2, 111360, Note_on_c, 0, 96, 0
2, 111360, Note_on_c, 0, 95, 54
2, 111840, Note_on_c, 0, 95, 0
2, 111840, Note_on_c, 0, 103, 54
2, 112160, Note_on_c, 0, 103, 0
2, 112160, Note_on_c, 0, 102, 54
2, 112320, Note_on_c, 0, 102, 0
2, 112320, Note_on_c, 0, 100, 54
2, 112800, Note_on_c, 0, 100, 0
2, 112800, Note_on_c, 0, 98, 54
2, 113120, Note_on_c, 0, 98, 0
2, 113120, Note_on_c, 0, 96, 54
2, 113280, Note_on_c, 0, 96, 0
2, 113280, Note_on_c, 0, 95, 54
2, 113439, Note_on_c, 0, 95, 0
2, 113439, Note_on_c, 0, 98, 54
2, 113600, Note_on_c, 0, 98, 0
2, 113600, Note_on_c, 0, 102, 54
2, 113760, Note_on_c, 0, 102, 0
2, 113760, Note_on_c, 0, 103, 54
2, 113919, Note_on_c, 0, 103, 0
2, 113919, Note_on_c, 0, 100, 54
2, 114080, Note_on_c, 0, 100, 0
2, 114080, Note_on_c, 0, 96, 54
2, 114240, Note_on_c, 0, 96, 0
2, 114240, Note_on_c, 0, 95, 54
2, 114960, Note_on_c, 0, 95, 0
2, 114960, Note_on_c, 0, 93, 54
2, 115200, Note_on_c, 0, 93, 0
2, 115200, Note_on_c, 0, 91, 54
2, 115440, Note_on_c, 0, 91, 0
2, 115440, Note_on_c, 0, 62, 67
2, 115680, Note_on_c, 0, 62, 0
2, 115680, Note_on_c, 0, 67, 67
2, 115920, Note_on_c, 0, 67, 0
2, 115920, Note_on_c, 0, 69, 67
2, 116160, Note_on_c, 0, 69, 0
2, 116160, Control_c, 0, 64, 127
2, 116160, Note_on_c, 0, 71, 67
2, 116400, Note_on_c, 0, 71, 0
2, 116400, Note_on_c, 0, 72, 80
2, 116640, Note_on_c, 0, 72, 0
2, 116640, Note_on_c, 0, 74, 80
2, 116880, Note_on_c, 0, 74, 0
2, 116880, Note_on_c, 0, 76, 80
2, 117120, Note_on_c, 0, 76, 0
2, 117120, Control_c, 0, 64, 0
2, 117120, Note_on_c, 0, 77, 80
2, 117360, Note_on_c, 0, 77, 0
2, 117360, Note_on_c, 0, 81, 80
2, 117600, Note_on_c, 0, 81, 0
2, 117600, Note_on_c, 0, 79, 93
2, 117840, Note_on_c, 0, 79, 0
2, 117840, Note_on_c, 0, 77, 93
2, 118080, Note_on_c, 0, 77, 0
2, 118080, Note_on_c, 0, 76, 67
2, 118800, Note_on_c, 0, 76, 0
2, 118800, Note_on_c, 0, 73, 67
2, 119040, Note_on_c, 0, 73, 0
2, 119040, Note_on_c, 0, 74, 67
2, 119199, Note_on_c, 0, 74, 0
2, 119199, Note_on_c, 0, 74, 67
2, 119231, Note_on_c, 0, 74, 0
2, 119360, Note_on_c, 0, 76, 67
2, 119392, Note_on_c, 0, 76, 0
2, 119520, Note_on_c, 0, 77, 67
2, 119551, Note_on_c, 0, 77, 0
2, 119679, Note_on_c, 0, 79, 67
2, 119711, Note_on_c, 0, 79, 0
2, 119840, Note_on_c, 0, 81, 67
2, 119872, Note_on_c, 0, 81, 0
2, 120000, Note_on_c, 0, 83, 80
2, 120159, Note_on_c, 0, 83, 0
2, 120159, Note_on_c, 0, 84, 80
2, 120320, Note_on_c, 0, 84, 0
2, 120320, Note_on_c, 0, 85, 80
2, 120480, Note_on_c, 0, 85, 0
2, 120480, Note_on_c, 0, 86, 80
2, 120639, Note_on_c, 0, 86, 0
2, 120639, Note_on_c, 0, 88, 80
2, 120800, Note_on_c, 0, 88, 0
2, 120800, Note_on_c, 0, 89, 80
2, 120960, Note_on_c, 0, 89, 0
2, 120960, Note_on_c, 0, 98, 80
2, 121080, Note_on_c, 0, 98, 0
2, 121080, Note_on_c, 0, 96, 80
2, 121200, Note_on_c, 0, 96, 0
2, 121200, Note_on_c, 0, 95, 80
2, 121223, Note_on_c, 0, 95, 0
2, 121320, Note_on_c, 0, 93, 80
2, 121343, Note_on_c, 0, 93, 0
2, 121440, Note_on_c, 0, 91, 80
2, 121560, Note_on_c, 0, 91, 0
2, 121560, Note_on_c, 0, 89, 80
2, 121680, Note_on_c, 0, 89, 0
2, 121680, Note_on_c, 0, 88, 80
2, 121703, Note_on_c, 0, 88, 0
2, 121800, Note_on_c, 0, 86, 80
2, 121823, Note_on_c, 0, 86, 0
2, 121920, Control_c, 0, 64, 127
2, 121920, Note_on_c, 0, 84, 80
2, 122040, Note_on_c, 0, 84, 0
2, 122040, Note_on_c, 0, 86, 80
2, 122160, Note_on_c, 0, 86, 0
2, 122160, Note_on_c, 0, 88, 80
2, 122280, Note_on_c, 0, 88, 0
2, 122280, Control_c, 0, 64, 0
2, 122280, Note_on_c, 0, 89, 80
2, 122400, Note_on_c, 0, 89, 0
2, 122400, Control_c, 0, 64, 127
2, 122400, Note_on_c, 0, 90, 80
2, 122520, Note_on_c, 0, 90, 0
2, 122520, Note_on_c, 0, 91, 80
2, 122640, Note_on_c, 0, 91, 0
2, 122640, Note_on_c, 0, 93, 80
2, 122760, Note_on_c, 0, 93, 0
2, 122760, Control_c, 0, 64, 0
2, 122760, Note_on_c, 0, 91, 80
2, 122880, Note_on_c, 0, 91, 0
2, 122880, Control_c, 0, 64, 127
2, 122880, Note_on_c, 0, 85, 80
2, 123000, Note_on_c, 0, 85, 0
2, 123000, Note_on_c, 0, 86, 80
2, 123120, Note_on_c, 0, 86, 0
2, 123120, Note_on_c, 0, 88, 80
2, 123240, Note_on_c, 0, 88, 0
2, 123240, Control_c, 0, 64, 0
2, 123240, Note_on_c, 0, 86, 80
2, 123360, Note_on_c, 0, 86, 0
2, 123360, Control_c, 0, 64, 127
2, 123360, Note_on_c, 0, 78, 80
2, 123480, Note_on_c, 0, 78, 0
2, 123480, Note_on_c, 0, 79, 80
2, 123600, Note_on_c, 0, 79, 0
2, 123600, Note_on_c, 0, 81, 80
2, 123720, Note_on_c, 0, 81, 0
2, 123720, Control_c, 0, 64, 0
2, 123720, Note_on_c, 0, 79, 80
2, 123840, Note_on_c, 0, 79, 0
2, 123840, Control_c, 0, 64, 127
2, 123840, Note_on_c, 0, 73, 93
2, 123960, Note_on_c, 0, 73, 0
2, 123960, Note_on_c, 0, 74, 93
2, 124080, Note_on_c, 0, 74, 0
2, 124080, Note_on_c, 0, 76, 93
2, 124200, Note_on_c, 0, 76, 0
2, 124200, Control_c, 0, 64, 0
2, 124200, Note_on_c, 0, 74, 93
2, 124320, Note_on_c, 0, 74, 0
2, 124320, Control_c, 0, 64, 127
2, 124320, Note_on_c, 0, 66, 93
2, 124440, Note_on_c, 0, 66, 0
2, 124440, Note_on_c, 0, 67, 93
2, 124560, Note_on_c, 0, 67, 0
2, 124560, Note_on_c, 0, 69, 93
2, 124680, Note_on_c, 0, 69, 0
2, 124680, Control_c, 0, 64, 0
2, 124680, Note_on_c, 0, 67, 93
2, 124800, Note_on_c, 0, 67, 0
2, 124800, Control_c, 0, 64, 127
2, 124800, Note_on_c, 0, 61, 93
2, 124920, Note_on_c, 0, 61, 0
2, 124920, Note_on_c, 0, 62, 93
2, 125040, Note_on_c, 0, 62, 0
2, 125040, Note_on_c, 0, 64, 93
2, 125160, Note_on_c, 0, 64, 0
2, 125160, Control_c, 0, 64, 0
2, 125160, Note_on_c, 0, 62, 93
2, 125280, Note_on_c, 0, 62, 0
2, 125280, Control_c, 0, 64, 127
2, 125280, Note_on_c, 0, 61, 93
2, 125400, Note_on_c, 0, 61, 0
2, 125400, Note_on_c, 0, 62, 93
2, 125520, Note_on_c, 0, 62, 0
2, 125520, Note_on_c, 0, 64, 93
2, 125640, Note_on_c, 0, 64, 0
2, 125640, Control_c, 0, 64, 0
2, 125640, Note_on_c, 0, 62, 93
2, 125760, Note_on_c, 0, 62, 0
2, 125760, Control_c, 0, 64, 127
2, 125760, Note_on_c, 0, 61, 80
2, 125880, Note_on_c, 0, 61, 0
2, 125880, Note_on_c, 0, 62, 80
2, 126000, Note_on_c, 0, 62, 0
2, 126000, Note_on_c, 0, 64, 80
2, 126120, Note_on_c, 0, 64, 0
2, 126120, Control_c, 0, 64, 0
2, 126120, Note_on_c, 0, 62, 80
2, 126240, Note_on_c, 0, 62, 0
2, 126240, Control_c, 0, 64, 127
2, 126240, Note_on_c, 0, 61, 80
2, 126360, Note_on_c, 0, 61, 0
2, 126360, Note_on_c, 0, 62, 80
2, 126480, Note_on_c, 0, 62, 0
2, 126480, Note_on_c, 0, 64, 80
2, 126600, Note_on_c, 0, 64, 0
2, 126600, Control_c, 0, 64, 0
2, 126600, Note_on_c, 0, 62, 80
2, 126720, Note_on_c, 0, 62, 0
2, 126720, Note_on_c, 0, 61, 67
2, 126879, Note_on_c, 0, 61, 0
2, 126879, Note_on_c, 0, 62, 67
2, 127040, Note_on_c, 0, 62, 0
2, 127040, Note_on_c, 0, 64, 67
2, 127200, Note_on_c, 0, 64, 0
2, 127200, Note_on_c, 0, 62, 67
2, 127359, Note_on_c, 0, 62, 0
2, 127359, Note_on_c, 0, 64, 67
2, 127520, Note_on_c, 0, 64, 0
2, 127520, Note_on_c, 0, 65, 67
2, 127680, Note_on_c, 0, 65, 0
2, 127680, Note_on_c, 0, 69, 93
2, 128400, Note_on_c, 0, 69, 0
2, 128400, Note_on_c, 0, 67, 67
2, 128640, Note_on_c, 0, 67, 0
2, 128880, Note_on_c, 0, 67, 67
2, 129120, Note_on_c, 0, 67, 0
2, 129120, Note_on_c, 0, 69, 67
2, 129360, Note_on_c, 0, 69, 0
2, 129360, Note_on_c, 0, 72, 67
2, 129600, Note_on_c, 0, 72, 0
2, 129600, Note_on_c, 0, 76, 80
2, 129840, Note_on_c, 0, 76, 0
2, 129840, Note_on_c, 0, 79, 80
2, 130080, Note_on_c, 0, 79, 0
2, 130080, Note_on_c, 0, 77, 106
2, 130320, Note_on_c, 0, 77, 0
2, 130320, Note_on_c, 0, 76, 106
2, 130560, Note_on_c, 0, 76, 0
2, 130560, Note_on_c, 0, 74, 80
2, 130800, Note_on_c, 0, 74, 0
2, 130800, Note_on_c, 0, 81, 80
2, 131040, Note_on_c, 0, 81, 0
2, 131040, Note_on_c, 0, 77, 106
2, 131280, Note_on_c, 0, 77, 0
2, 131280, Note_on_c, 0, 74, 106
2, 131520, Note_on_c, 0, 74, 0
2, 131520, Note_on_c, 0, 72, 93
2, 132240, Note_on_c, 0, 72, 0
2, 132240, Note_on_c, 0, 71, 67
2, 132480, Note_on_c, 0, 71, 0
2, 132480, Note_on_c, 0, 72, 67
2, 132720, Note_on_c, 0, 72, 0
2, 132720, Note_on_c, 0, 55, 67
2, 132960, Note_on_c, 0, 55, 0
2, 132960, Note_on_c, 0, 57, 67
2, 133200, Note_on_c, 0, 57, 0
2, 133200, Note_on_c, 0, 60, 67
2, 133440, Note_on_c, 0, 60, 0
2, 133440, Note_on_c, 0, 64, 80
2, 133680, Note_on_c, 0, 64, 0
2, 133680, Note_on_c, 0, 67, 80
2, 133920, Note_on_c, 0, 67, 0
2, 133920, Note_on_c, 0, 65, 106
2, 134160, Note_on_c, 0, 65, 0
2, 134160, Note_on_c, 0, 64, 106
2, 134400, Note_on_c, 0, 64, 0
2, 134400, Note_on_c, 0, 62, 80
2, 134640, Note_on_c, 0, 62, 0
2, 134640, Note_on_c, 0, 69, 80
2, 134880, Note_on_c, 0, 69, 0
2, 134880, Note_on_c, 0, 65, 80
2, 135120, Note_on_c, 0, 65, 0
2, 135120, Note_on_c, 0, 62, 80
2, 135360, Note_on_c, 0, 62, 0
2, 135360, Note_on_c, 0, 60, 93
2, 136080, Note_on_c, 0, 60, 0
2, 136080, Note_on_c, 0, 59, 67
2, 136320, Note_on_c, 0, 59, 0
2, 136320, Note_on_c, 0, 60, 67
2, 136800, Note_on_c, 0, 60, 0
2, 136800, Note_on_c, 0, 59, 80
2, 137040, Note_on_c, 0, 59, 0
2, 137040, Note_on_c, 0, 60, 80
2, 137280, Note_on_c, 0, 60, 0
2, 137280, Note_on_c, 0, 58, 80
2, 137760, Note_on_c, 0, 58, 0
2, 137760, Note_on_c, 0, 58, 80
2, 138000, Note_on_c, 0, 58, 0
2, 138000, Note_on_c, 0, 60, 80
2, 138240, Note_on_c, 0, 60, 0
2, 138240, Note_on_c, 0, 57, 80
2, 138720, Note_on_c, 0, 57, 0
2, 138720, Note_on_c, 0, 57, 80
2, 138960, Note_on_c, 0, 57, 0
2, 138960, Note_on_c, 0, 60, 80
2, 139200, Note_on_c, 0, 60, 0
2, 139200, Note_on_c, 0, 56, 80
2, 139920, Note_on_c, 0, 56, 0
2, 139920, Note_on_c, 0, 56, 80
2, 140160, Note_on_c, 0, 56, 0
2, 140160, Note_on_c, 0, 55, 80
2, 140400, Note_on_c, 0, 55, 0
2, 140400, Control_c, 0, 64, 127
2, 140400, Note_on_c, 0, 60, 54
2, 140640, Note_on_c, 0, 60, 0
2, 140640, Note_on_c, 0, 64, 54
2, 140880, Note_on_c, 0, 64, 0
2, 140880, Note_on_c, 0, 67, 54
2, 141120, Note_on_c, 0, 67, 0
2, 141120, Control_c, 0, 64, 0
2, 141120, Note_on_c, 0, 72, 54
2, 141360, Note_on_c, 0, 72, 0
2, 141360, Control_c, 0, 64, 127
2, 141360, Note_on_c, 0, 72, 54
2, 141600, Note_on_c, 0, 72, 0
2, 141600, Note_on_c, 0, 76, 54
2, 141840, Note_on_c, 0, 76, 0
2, 141840, Note_on_c, 0, 79, 54
2, 142080, Note_on_c, 0, 79, 0
2, 142080, Control_c, 0, 64, 0
2, 142080, Note_on_c, 0, 84, 54
2, 142320, Note_on_c, 0, 84, 0
2, 142320, Control_c, 0, 64, 127
2, 142320, Note_on_c, 0, 72, 54
2, 142560, Note_on_c, 0, 72, 0
2, 142560, Note_on_c, 0, 77, 54
2, 142800, Note_on_c, 0, 77, 0
2, 142800, Note_on_c, 0, 81, 54
2, 143040, Note_on_c, 0, 81, 0
2, 143040, Control_c, 0, 64, 0
2, 143040, Note_on_c, 0, 84, 54
2, 143280, Note_on_c, 0, 84, 0
2, 143280, Control_c, 0, 64, 127
2, 143280, Note_on_c, 0, 80, 54
2, 143520, Note_on_c, 0, 80, 0
2, 143520, Note_on_c, 0, 84, 54
2, 143760, Note_on_c, 0, 84, 0
2, 143760, Control_c, 0, 64, 0
2, 143760, Note_on_c, 0, 87, 54
2, 144000, Note_on_c, 0, 87, 0
2, 144000, Note_on_c, 0, 88, 54
2, 144960, Note_on_c, 0, 88, 0
2, 144960, Note_on_c, 0, 91, 54
2, 145920, Note_on_c, 0, 91, 0
2, 145920, Note_on_c, 0, 96, 54
2, 148080, Note_on_c, 0, 96, 0
2, 148080, Control_c, 0, 64, 127
2, 151440, Control_c, 0, 64, 0
2, 151440, End_track
3, 0, Start_track
3, 0, Title_t, "Grand Piano"
3, 0, Program_c, 0, 0
3, 0, Control_c, 0, 7, 115
3, 0, Control_c, 0, 10, 80
3, 1200, Note_on_c, 0, 67, 49
3, 2400, Note_on_c, 0, 67, 0
3, 2400, Control_c, 0, 64, 127
3, 2400, Note_on_c, 0, 68, 49
3, 2880, Note_on_c, 0, 68, 0
3, 2880, Note_on_c, 0, 69, 49
3, 3360, Note_on_c, 0, 69, 0
3, 3360, Note_on_c, 0, 70, 49
3, 3600, Note_on_c, 0, 70, 0
3, 3600, Note_on_c, 0, 71, 49
3, 3840, Note_on_c, 0, 71, 0
3, 3840, Control_c, 0, 64, 0
3, 3840, Note_on_c, 0, 72, 49
3, 4320, Note_on_c, 0, 72, 0
3, 4320, Note_on_c, 0, 68, 49
3, 4800, Note_on_c, 0, 68, 0
3, 4800, Note_on_c, 0, 69, 49
3, 5760, Note_on_c, 0, 69, 0
3, 5760, Note_on_c, 0, 67, 49
3, 6240, Note_on_c, 0, 67, 0
3, 6240, Note_on_c, 0, 68, 49
3, 6720, Note_on_c, 0, 68, 0
3, 6720, Note_on_c, 0, 69, 49
3, 7200, Note_on_c, 0, 69, 0
3, 7200, Note_on_c, 0, 67, 49
3, 7200, Note_on_c, 0, 71, 49
3, 7680, Note_on_c, 0, 71, 0
3, 7680, Note_on_c, 0, 67, 0
3, 7680, Note_on_c, 0, 67, 49
3, 7920, Note_on_c, 0, 67, 0
3, 8880, Note_on_c, 0, 67, 49
3, 9600, Note_on_c, 0, 67, 0
3, 9600, Note_on_c, 0, 69, 49
3, 10560, Note_on_c, 0, 69, 0
3, 10560, Note_on_c, 0, 69, 49
3, 11520, Note_on_c, 0, 69, 0
3, 11520, Note_on_c, 0, 67, 49
3, 12000, Note_on_c, 0, 67, 0
3, 12000, Note_on_c, 0, 67, 49
3, 12000, Note_on_c, 0, 71, 49
3, 12480, Note_on_c, 0, 71, 0
3, 12480, Note_on_c, 0, 67, 0
3, 12480, Note_on_c, 0, 67, 49
3, 12480, Note_on_c, 0, 72, 49
3, 12960, Note_on_c, 0, 72, 0
3, 12960, Note_on_c, 0, 67, 0
3, 12960, Note_on_c, 0, 66, 49
3, 12960, Note_on_c, 0, 69, 49
3, 13440, Note_on_c, 0, 69, 0
3, 13440, Note_on_c, 0, 66, 0
3, 13440, Note_on_c, 0, 67, 49
3, 13920, Note_on_c, 0, 67, 0
3, 13920, Note_on_c, 0, 67, 49
3, 13920, Note_on_c, 0, 69, 49
3, 14400, Note_on_c, 0, 69, 0
3, 14400, Note_on_c, 0, 67, 0
3, 14400, Note_on_c, 0, 67, 49
3, 15120, Note_on_c, 0, 67, 0
3, 15120, Note_on_c, 0, 62, 49
3, 15360, Note_on_c, 0, 62, 0
3, 15360, Note_on_c, 0, 62, 49
3, 17280, Note_on_c, 0, 62, 0
3, 17280, Note_on_c, 0, 67, 49
3, 19200, Note_on_c, 0, 67, 0
3, 19200, Note_on_c, 0, 67, 49
3, 22080, Note_on_c, 0, 67, 0
3, 22080, Note_on_c, 0, 67, 75
3, 23040, Note_on_c, 0, 67, 0
3, 23040, Note_on_c, 0, 67, 88
3, 24960, Note_on_c, 0, 67, 0
3, 24960, Note_on_c, 0, 67, 88
3, 25920, Note_on_c, 0, 67, 0
3, 25920, Note_on_c, 0, 67, 88
3, 26880, Note_on_c, 0, 67, 0
3, 32640, Note_on_c, 0, 60, 62
3, 32640, Note_on_c, 0, 64, 62
3, 32880, Note_on_c, 0, 64, 0
3, 32880, Note_on_c, 0, 60, 0
3, 32880, Control_c, 0, 64, 127
3, 32880, Note_on_c, 0, 55, 62
3, 33120, Note_on_c, 0, 55, 0
3, 33120, Note_on_c, 0, 57, 62
3, 33360, Note_on_c, 0, 57, 0
3, 33360, Note_on_c, 0, 60, 62
3, 33600, Note_on_c, 0, 60, 0
3, 33600, Note_on_c, 0, 64, 62
3, 33840, Note_on_c, 0, 64, 0
3, 33840, Note_on_c, 0, 67, 62
3, 34080, Note_on_c, 0, 67, 0
3, 34080, Note_on_c, 0, 69, 62
3, 34320, Note_on_c, 0, 69, 0
3, 34320, Control_c, 0, 64, 0
3, 34320, Note_on_c, 0, 72, 62
3, 34560, Note_on_c, 0, 72, 0
3, 34560, Note_on_c, 0, 67, 62
3, 34560, Note_on_c, 0, 76, 62
3, 34800, Note_on_c, 0, 76, 0
3, 34800, Note_on_c, 0, 67, 0
3, 34800, Note_on_c, 0, 64, 62
3, 34800, Note_on_c, 0, 79, 62
3, 35040, Note_on_c, 0, 79, 0
3, 35040, Note_on_c, 0, 64, 0
3, 35040, Note_on_c, 0, 62, 62
3, 35040, Note_on_c, 0, 77, 62
3, 35280, Note_on_c, 0, 77, 0
3, 35280, Note_on_c, 0, 62, 0
3, 35280, Note_on_c, 0, 64, 62
3, 35280, Note_on_c, 0, 76, 62
3, 35520, Note_on_c, 0, 76, 0
3, 35520, Note_on_c, 0, 64, 0
3, 35520, Note_on_c, 0, 75, 88
3, 36240, Note_on_c, 0, 75, 0
3, 36240, Note_on_c, 0, 74, 62
3, 36480, Note_on_c, 0, 74, 0
3, 36480, Note_on_c, 0, 64, 62
3, 36480, Note_on_c, 0, 67, 62
3, 36960, Note_on_c, 0, 67, 0
3, 36960, Note_on_c, 0, 64, 0
3, 36960, Note_on_c, 0, 71, 62
3, 37280, Note_on_c, 0, 71, 0
3, 37280, Note_on_c, 0, 72, 62
3, 37440, Note_on_c, 0, 72, 0
3, 37440, Note_on_c, 0, 74, 62
3, 37920, Note_on_c, 0, 74, 0
3, 37920, Note_on_c, 0, 69, 62
3, 38240, Note_on_c, 0, 69, 0
3, 38240, Note_on_c, 0, 71, 62
3, 38400, Note_on_c, 0, 71, 0
3, 38400, Note_on_c, 0, 72, 62
3, 38496, Note_on_c, 0, 72, 0
3, 38496, Note_on_c, 0, 74, 62
3, 38592, Note_on_c, 0, 74, 0
3, 38592, Note_on_c, 0, 72, 62
3, 38687, Note_on_c, 0, 72, 0
3, 38687, Note_on_c, 0, 71, 62
3, 38783, Note_on_c, 0, 71, 0
3, 38783, Note_on_c, 0, 72, 62
3, 38880, Note_on_c, 0, 72, 0
3, 38880, Note_on_c, 0, 68, 88
3, 38880, Note_on_c, 0, 77, 88
3, 39120, Note_on_c, 0, 77, 0
3, 39120, Note_on_c, 0, 68, 0
3, 39120, Note_on_c, 0, 69, 88
3, 39120, Note_on_c, 0, 76, 88
3, 39360, Note_on_c, 0, 76, 0
3, 39360, Note_on_c, 0, 69, 0
3, 39360, Note_on_c, 0, 74, 62
3, 39420, Note_on_c, 0, 74, 0
3, 39420, Note_on_c, 0, 76, 62
3, 39480, Note_on_c, 0, 76, 0
3, 39480, Note_on_c, 0, 72, 62
3, 39540, Note_on_c, 0, 72, 0
3, 39540, Note_on_c, 0, 74, 62
3, 39600, Note_on_c, 0, 74, 0
3, 39600, Note_on_c, 0, 71, 62
3, 39660, Note_on_c, 0, 71, 0
3, 39660, Note_on_c, 0, 72, 62
3, 39720, Note_on_c, 0, 72, 0
3, 39720, Note_on_c, 0, 69, 62
3, 39780, Note_on_c, 0, 69, 0
3, 39780, Note_on_c, 0, 71, 62
3, 39840, Note_on_c, 0, 71, 0
3, 39840, Note_on_c, 0, 67, 62
3, 39900, Note_on_c, 0, 67, 0
3, 39900, Note_on_c, 0, 69, 62
3, 39960, Note_on_c, 0, 69, 0
3, 39960, Note_on_c, 0, 66, 62
3, 40020, Note_on_c, 0, 66, 0
3, 40020, Note_on_c, 0, 69, 62
3, 40080, Note_on_c, 0, 69, 0
3, 40080, Note_on_c, 0, 67, 62
3, 40140, Note_on_c, 0, 67, 0
3, 40140, Note_on_c, 0, 69, 62
3, 40200, Note_on_c, 0, 69, 0
3, 40200, Note_on_c, 0, 66, 62
3, 40260, Note_on_c, 0, 66, 0
3, 40260, Note_on_c, 0, 69, 62
3, 40320, Note_on_c, 0, 69, 0
3, 44160, Note_on_c, 0, 59, 62
3, 45120, Note_on_c, 0, 59, 0
3, 45120, Note_on_c, 0, 60, 62
3, 45600, Note_on_c, 0, 60, 0
3, 45600, Note_on_c, 0, 57, 62
3, 46080, Note_on_c, 0, 57, 0
3, 49920, Note_on_c, 0, 71, 62
3, 51840, Note_on_c, 0, 71, 0
3, 51840, Note_on_c, 0, 71, 62
3, 53760, Note_on_c, 0, 71, 0
3, 53760, Note_on_c, 0, 71, 62
3, 55680, Note_on_c, 0, 71, 0
3, 56880, Note_on_c, 0, 59, 75
3, 57120, Note_on_c, 0, 59, 0
3, 57120, Note_on_c, 0, 61, 75
3, 57360, Note_on_c, 0, 61, 0
3, 57360, Note_on_c, 0, 63, 75
3, 57600, Note_on_c, 0, 63, 0
3, 57600, Note_on_c, 0, 64, 75
3, 57600, Note_on_c, 0, 69, 75
3, 57840, Note_on_c, 0, 69, 0
3, 57840, Note_on_c, 0, 67, 75
3, 58020, Note_on_c, 0, 67, 0
3, 58020, Note_on_c, 0, 64, 0
3, 58020, Note_on_c, 0, 61, 75
3, 58080, Note_on_c, 0, 61, 0
3, 58080, Note_on_c, 0, 61, 75
3, 58800, Note_on_c, 0, 61, 0
3, 58800, Note_on_c, 0, 61, 75
3, 59040, Note_on_c, 0, 61, 0
3, 59040, Note_on_c, 0, 63, 75
3, 59280, Note_on_c, 0, 63, 0
3, 59280, Note_on_c, 0, 64, 75
3, 59520, Note_on_c, 0, 64, 0
3, 59520, Note_on_c, 0, 66, 75
3, 59940, Note_on_c, 0, 66, 0
3, 59940, Note_on_c, 0, 63, 75
3, 60000, Note_on_c, 0, 63, 0
3, 60000, Note_on_c, 0, 63, 75
3, 60720, Note_on_c, 0, 63, 0
3, 60720, Note_on_c, 0, 71, 114
3, 60960, Note_on_c, 0, 71, 0
3, 60960, Note_on_c, 0, 71, 114
3, 61200, Note_on_c, 0, 71, 0
3, 61200, Note_on_c, 0, 71, 114
3, 61440, Note_on_c, 0, 71, 0
3, 61440, Control_c, 0, 64, 127
3, 61440, Note_on_c, 0, 72, 75
3, 62040, Note_on_c, 0, 72, 0
3, 62040, Note_on_c, 0, 76, 75
3, 62160, Note_on_c, 0, 76, 0
3, 62160, Note_on_c, 0, 72, 75
3, 62280, Note_on_c, 0, 72, 0
3, 62280, Control_c, 0, 64, 0
3, 62280, Note_on_c, 0, 67, 75
3, 62400, Note_on_c, 0, 67, 0
3, 62400, Note_on_c, 0, 72, 75
3, 62880, Note_on_c, 0, 72, 0
3, 62880, Note_on_c, 0, 71, 75
3, 63120, Note_on_c, 0, 71, 0
3, 63120, Note_on_c, 0, 69, 75
3, 63360, Note_on_c, 0, 69, 0
3, 63360, Note_on_c, 0, 67, 75
3, 63600, Note_on_c, 0, 67, 0
3, 64320, Note_on_c, 0, 67, 75
3, 64800, Note_on_c, 0, 67, 0
3, 71280, Note_on_c, 0, 64, 62
3, 71520, Note_on_c, 0, 64, 0
3, 71520, Note_on_c, 0, 64, 62
3, 71760, Note_on_c, 0, 64, 0
3, 71760, Note_on_c, 0, 64, 62
3, 72000, Note_on_c, 0, 64, 0
3, 72000, Note_on_c, 0, 66, 101
3, 72420, Note_on_c, 0, 66, 0
3, 72420, Note_on_c, 0, 64, 75
3, 72480, Note_on_c, 0, 64, 0
3, 72480, Note_on_c, 0, 64, 75
3, 72720, Note_on_c, 0, 64, 0
3, 73200, Note_on_c, 0, 67, 75
3, 73440, Note_on_c, 0, 67, 0
3, 73440, Note_on_c, 0, 67, 75
3, 73680, Note_on_c, 0, 67, 0
3, 73680, Note_on_c, 0, 67, 75
3, 73920, Note_on_c, 0, 67, 0
3, 73920, Note_on_c, 0, 67, 114
3, 74340, Note_on_c, 0, 67, 0
3, 74340, Note_on_c, 0, 66, 88
3, 74400, Note_on_c, 0, 66, 0
3, 74400, Note_on_c, 0, 66, 88
3, 74640, Note_on_c, 0, 66, 0
3, 75120, Note_on_c, 0, 70, 88
3, 75360, Note_on_c, 0, 70, 0
3, 75360, Note_on_c, 0, 70, 88
3, 75600, Note_on_c, 0, 70, 0
3, 75600, Note_on_c, 0, 70, 88
3, 75840, Note_on_c, 0, 70, 0
3, 75840, Note_on_c, 0, 70, 114
3, 76260, Note_on_c, 0, 70, 0
3, 76260, Note_on_c, 0, 67, 88
3, 76320, Note_on_c, 0, 67, 0
3, 76320, Note_on_c, 0, 64, 88
3, 76560, Note_on_c, 0, 64, 0
3, 77040, Note_on_c, 0, 72, 88
3, 77280, Note_on_c, 0, 72, 0
3, 77280, Note_on_c, 0, 72, 88
3, 77520, Note_on_c, 0, 72, 0
3, 77520, Note_on_c, 0, 72, 88
3, 77760, Note_on_c, 0, 72, 0
3, 77760, Note_on_c, 0, 72, 114
3, 78180, Note_on_c, 0, 72, 0
3, 78180, Note_on_c, 0, 69, 88
3, 78240, Note_on_c, 0, 69, 0
3, 78240, Note_on_c, 0, 66, 88
3, 78480, Note_on_c, 0, 66, 0
3, 78960, Note_on_c, 0, 79, 114
3, 79200, Note_on_c, 0, 79, 0
3, 79200, Note_on_c, 0, 79, 114
3, 79440, Note_on_c, 0, 79, 0
3, 79440, Note_on_c, 0, 79, 114
3, 79680, Note_on_c, 0, 79, 0
3, 79680, Note_on_c, 0, 79, 114
3, 80100, Note_on_c, 0, 79, 0
3, 80100, Note_on_c, 0, 74, 88
3, 80160, Note_on_c, 0, 74, 0
3, 80160, Note_on_c, 0, 74, 88
3, 80400, Note_on_c, 0, 74, 0
3, 80640, Note_on_c, 0, 79, 88
3, 81120, Note_on_c, 0, 79, 0
3, 81120, Note_on_c, 0, 78, 101
3, 81600, Note_on_c, 0, 78, 0
3, 81840, Note_on_c, 0, 62, 127
3, 82080, Note_on_c, 0, 62, 0
3, 82080, Note_on_c, 0, 64, 127
3, 82320, Note_on_c, 0, 64, 0
3, 82320, Note_on_c, 0, 66, 127
3, 82560, Note_on_c, 0, 66, 0
3, 101040, Note_on_c, 0, 67, 49
3, 101760, Note_on_c, 0, 67, 0
3, 101760, Note_on_c, 0, 67, 49
3, 102240, Note_on_c, 0, 67, 0
3, 102240, Note_on_c, 0, 68, 49
3, 102720, Note_on_c, 0, 68, 0
3, 102720, Note_on_c, 0, 69, 49
3, 103200, Note_on_c, 0, 69, 0
3, 103200, Note_on_c, 0, 70, 49
3, 103440, Note_on_c, 0, 70, 0
3, 103440, Note_on_c, 0, 71, 49
3, 103680, Note_on_c, 0, 71, 0
3, 103680, Note_on_c, 0, 72, 49
3, 104160, Note_on_c, 0, 72, 0
3, 104160, Note_on_c, 0, 68, 49
3, 104640, Note_on_c, 0, 68, 0
3, 104640, Note_on_c, 0, 69, 49
3, 105600, Note_on_c, 0, 69, 0
3, 105600, Note_on_c, 0, 67, 49
3, 106080, Note_on_c, 0, 67, 0
3, 106080, Note_on_c, 0, 68, 49
3, 106560, Note_on_c, 0, 68, 0
3, 106560, Note_on_c, 0, 69, 49
3, 107040, Note_on_c, 0, 69, 0
3, 107040, Note_on_c, 0, 71, 49
3, 107520, Note_on_c, 0, 71, 0
3, 107520, Control_c, 0, 64, 127
3, 107520, Note_on_c, 0, 60, 49
3, 107520, Note_on_c, 0, 64, 49
3, 107580, Note_on_c, 0, 64, 0
3, 107580, Note_on_c, 0, 60, 0
3, 107580, Note_on_c, 0, 67, 49
3, 107640, Note_on_c, 0, 67, 0
3, 107640, Note_on_c, 0, 60, 49
3, 107640, Note_on_c, 0, 64, 49
3, 107700, Note_on_c, 0, 64, 0
3, 107700, Note_on_c, 0, 60, 0
3, 107700, Note_on_c, 0, 67, 49
3, 107760, Note_on_c, 0, 67, 0
3, 107760, Note_on_c, 0, 60, 49
3, 107760, Note_on_c, 0, 64, 49
3, 107820, Note_on_c, 0, 64, 0
3, 107820, Note_on_c, 0, 60, 0
3, 107820, Note_on_c, 0, 67, 49
3, 107880, Note_on_c, 0, 67, 0
3, 107880, Note_on_c, 0, 60, 49
3, 107880, Note_on_c, 0, 64, 49
3, 107940, Note_on_c, 0, 64, 0
3, 107940, Note_on_c, 0, 60, 0
3, 107940, Note_on_c, 0, 67, 49
3, 108000, Note_on_c, 0, 67, 0
3, 108000, Note_on_c, 0, 60, 49
3, 108000, Note_on_c, 0, 64, 49
3, 108060, Note_on_c, 0, 64, 0
3, 108060, Note_on_c, 0, 60, 0
3, 108060, Note_on_c, 0, 67, 49
3, 108120, Note_on_c, 0, 67, 0
3, 108120, Note_on_c, 0, 60, 49
3, 108120, Note_on_c, 0, 64, 49
3, 108180, Note_on_c, 0, 64, 0
3, 108180, Note_on_c, 0, 60, 0
3, 108180, Note_on_c, 0, 67, 49
3, 108240, Note_on_c, 0, 67, 0
3, 108240, Note_on_c, 0, 60, 49
3, 108240, Note_on_c, 0, 64, 49
3, 108300, Note_on_c, 0, 64, 0
3, 108300, Note_on_c, 0, 60, 0
3, 108300, Note_on_c, 0, 67, 49
3, 108360, Note_on_c, 0, 67, 0
3, 108360, Note_on_c, 0, 60, 49
3, 108360, Note_on_c, 0, 64, 49
3, 108420, Note_on_c, 0, 64, 0
3, 108420, Note_on_c, 0, 60, 0
3, 108420, Control_c, 0, 64, 0
3, 108420, Note_on_c, 0, 67, 49
3, 108480, Note_on_c, 0, 67, 0
3, 108480, Control_c, 0, 64, 127
3, 108480, Note_on_c, 0, 72, 49
3, 108480, Note_on_c, 0, 76, 49
3, 108540, Note_on_c, 0, 76, 0
3, 108540, Note_on_c, 0, 72, 0
3, 108540, Note_on_c, 0, 79, 49
3, 108600, Note_on_c, 0, 79, 0
3, 108600, Note_on_c, 0, 72, 49
3, 108600, Note_on_c, 0, 76, 49
3, 108660, Note_on_c, 0, 76, 0
3, 108660, Note_on_c, 0, 72, 0
3, 108660, Note_on_c, 0, 79, 49
3, 108720, Note_on_c, 0, 79, 0
3, 108720, Note_on_c, 0, 72, 49
3, 108720, Note_on_c, 0, 76, 49
3, 108780, Note_on_c, 0, 76, 0
3, 108780, Note_on_c, 0, 72, 0
3, 108780, Note_on_c, 0, 79, 49
3, 108840, Note_on_c, 0, 79, 0
3, 108840, Note_on_c, 0, 72, 49
3, 108840, Note_on_c, 0, 76, 49
3, 108900, Note_on_c, 0, 76, 0
3, 108900, Note_on_c, 0, 72, 0
3, 108900, Note_on_c, 0, 79, 49
3, 108960, Note_on_c, 0, 79, 0
3, 108960, Note_on_c, 0, 72, 49
3, 108960, Note_on_c, 0, 76, 49
3, 109020, Note_on_c, 0, 76, 0
3, 109020, Note_on_c, 0, 72, 0
3, 109020, Note_on_c, 0, 79, 49
3, 109080, Note_on_c, 0, 79, 0
3, 109080, Note_on_c, 0, 72, 49
3, 109080, Note_on_c, 0, 76, 49
3, 109140, Note_on_c, 0, 76, 0
3, 109140, Note_on_c, 0, 72, 0
3, 109140, Note_on_c, 0, 79, 49
3, 109200, Note_on_c, 0, 79, 0
3, 109200, Note_on_c, 0, 72, 49
3, 109200, Note_on_c, 0, 76, 49
3, 109260, Note_on_c, 0, 76, 0
3, 109260, Note_on_c, 0, 72, 0
3, 109260, Note_on_c, 0, 79, 49
3, 109320, Note_on_c, 0, 79, 0
3, 109320, Note_on_c, 0, 72, 49
3, 109320, Note_on_c, 0, 76, 49
3, 109380, Note_on_c, 0, 76, 0
3, 109380, Note_on_c, 0, 72, 0
3, 109380, Note_on_c, 0, 79, 49
3, 109440, Note_on_c, 0, 79, 0
3, 109440, Note_on_c, 0, 72, 49
3, 109440, Note_on_c, 0, 76, 49
3, 109500, Note_on_c, 0, 76, 0
3, 109500, Note_on_c, 0, 72, 0
3, 109500, Note_on_c, 0, 79, 49
3, 109560, Note_on_c, 0, 79, 0
3, 109560, Note_on_c, 0, 72, 49
3, 109560, Note_on_c, 0, 76, 49
3, 109620, Note_on_c, 0, 76, 0
3, 109620, Note_on_c, 0, 72, 0
3, 109620, Note_on_c, 0, 79, 49
3, 109680, Note_on_c, 0, 79, 0
3, 109680, Note_on_c, 0, 72, 49
3, 109680, Note_on_c, 0, 76, 49
3, 109740, Note_on_c, 0, 76, 0
3, 109740, Note_on_c, 0, 72, 0
3, 109740, Note_on_c, 0, 79, 49
3, 109800, Note_on_c, 0, 79, 0
3, 109800, Note_on_c, 0, 72, 49
3, 109800, Note_on_c, 0, 76, 49
3, 109860, Note_on_c, 0, 76, 0
3, 109860, Note_on_c, 0, 72, 0
3, 109860, Control_c, 0, 64, 0
3, 109860, Note_on_c, 0, 79, 49
3, 109920, Note_on_c, 0, 79, 0
3, 109920, Note_on_c, 0, 72, 49
3, 109920, Note_on_c, 0, 75, 49
3, 109980, Note_on_c, 0, 75, 0
3, 109980, Note_on_c, 0, 72, 0
3, 109980, Note_on_c, 0, 81, 49
3, 110040, Note_on_c, 0, 81, 0
3, 110040, Note_on_c, 0, 72, 49
3, 110040, Note_on_c, 0, 75, 49
3, 110100, Note_on_c, 0, 75, 0
3, 110100, Note_on_c, 0, 72, 0
3, 110100, Note_on_c, 0, 81, 49
3, 110160, Note_on_c, 0, 81, 0
3, 110160, Note_on_c, 0, 72, 49
3, 110160, Note_on_c, 0, 76, 49
3, 110220, Note_on_c, 0, 76, 0
3, 110220, Note_on_c, 0, 72, 0
3, 110220, Note_on_c, 0, 81, 49
3, 110280, Note_on_c, 0, 81, 0
3, 110280, Note_on_c, 0, 72, 49
3, 110280, Note_on_c, 0, 76, 49
3, 110340, Note_on_c, 0, 76, 0
3, 110340, Note_on_c, 0, 72, 0
3, 110340, Note_on_c, 0, 81, 49
3, 110400, Note_on_c, 0, 81, 0
3, 110400, Note_on_c, 0, 69, 49
3, 110400, Note_on_c, 0, 74, 49
3, 110400, Note_on_c, 0, 77, 49
3, 110460, Note_on_c, 0, 77, 0
3, 110460, Note_on_c, 0, 74, 0
3, 110460, Note_on_c, 0, 69, 0
3, 110460, Note_on_c, 0, 81, 49
3, 110520, Note_on_c, 0, 81, 0
3, 110520, Note_on_c, 0, 69, 49
3, 110520, Note_on_c, 0, 74, 49
3, 110520, Note_on_c, 0, 77, 49
3, 110580, Note_on_c, 0, 77, 0
3, 110580, Note_on_c, 0, 74, 0
3, 110580, Note_on_c, 0, 69, 0
3, 110580, Note_on_c, 0, 81, 49
3, 110640, Note_on_c, 0, 81, 0
3, 110640, Note_on_c, 0, 69, 49
3, 110640, Note_on_c, 0, 74, 49
3, 110640, Note_on_c, 0, 77, 49
3, 110700, Note_on_c, 0, 77, 0
3, 110700, Note_on_c, 0, 74, 0
3, 110700, Note_on_c, 0, 69, 0
3, 110700, Note_on_c, 0, 81, 49
3, 110760, Note_on_c, 0, 81, 0
3, 110760, Note_on_c, 0, 69, 49
3, 110760, Note_on_c, 0, 74, 49
3, 110760, Note_on_c, 0, 77, 49
3, 110820, Note_on_c, 0, 77, 0
3, 110820, Note_on_c, 0, 74, 0
3, 110820, Note_on_c, 0, 69, 0
3, 110820, Note_on_c, 0, 81, 49
3, 110880, Note_on_c, 0, 81, 0
3, 110880, Note_on_c, 0, 69, 49
3, 110880, Note_on_c, 0, 74, 49
3, 110880, Note_on_c, 0, 78, 49
3, 110940, Note_on_c, 0, 78, 0
3, 110940, Note_on_c, 0, 74, 0
3, 110940, Note_on_c, 0, 69, 0
3, 110940, Note_on_c, 0, 81, 49
3, 111000, Note_on_c, 0, 81, 0
3, 111000, Note_on_c, 0, 69, 49
3, 111000, Note_on_c, 0, 74, 49
3, 111000, Note_on_c, 0, 78, 49
3, 111060, Note_on_c, 0, 78, 0
3, 111060, Note_on_c, 0, 74, 0
3, 111060, Note_on_c, 0, 69, 0
3, 111060, Note_on_c, 0, 81, 49
3, 111120, Note_on_c, 0, 81, 0
3, 111120, Note_on_c, 0, 69, 49
3, 111120, Note_on_c, 0, 74, 49
3, 111120, Note_on_c, 0, 78, 49
3, 111180, Note_on_c, 0, 78, 0
3, 111180, Note_on_c, 0, 74, 0
3, 111180, Note_on_c, 0, 69, 0
3, 111180, Note_on_c, 0, 81, 49
3, 111240, Note_on_c, 0, 81, 0
3, 111240, Note_on_c, 0, 69, 49
3, 111240, Note_on_c, 0, 74, 49
3, 111240, Note_on_c, 0, 78, 49
3, 111300, Note_on_c, 0, 78, 0
3, 111300, Note_on_c, 0, 74, 0
3, 111300, Note_on_c, 0, 69, 0
3, 111300, Note_on_c, 0, 81, 49
3, 111360, Note_on_c, 0, 81, 0
3, 111360, Note_on_c, 0, 67, 36
3, 111360, Note_on_c, 0, 71, 36
3, 111360, Note_on_c, 0, 74, 36
3, 111420, Note_on_c, 0, 74, 0
3, 111420, Note_on_c, 0, 71, 0
3, 111420, Note_on_c, 0, 67, 0
3, 111420, Note_on_c, 0, 79, 36
3, 111480, Note_on_c, 0, 79, 0
3, 111480, Note_on_c, 0, 67, 36
3, 111480, Note_on_c, 0, 71, 36
3, 111480, Note_on_c, 0, 74, 36
3, 111540, Note_on_c, 0, 74, 0
3, 111540, Note_on_c, 0, 71, 0
3, 111540, Note_on_c, 0, 67, 0
3, 111540, Note_on_c, 0, 79, 36
3, 111600, Note_on_c, 0, 79, 0
3, 111600, Note_on_c, 0, 67, 36
3, 111600, Note_on_c, 0, 71, 36
3, 111600, Note_on_c, 0, 74, 36
3, 111660, Note_on_c, 0, 74, 0
3, 111660, Note_on_c, 0, 71, 0
3, 111660, Note_on_c, 0, 67, 0
3, 111660, Note_on_c, 0, 79, 36
3, 111720, Note_on_c, 0, 79, 0
3, 111720, Note_on_c, 0, 67, 36
3, 111720, Note_on_c, 0, 71, 36
3, 111720, Note_on_c, 0, 74, 36
3, 111780, Note_on_c, 0, 74, 0
3, 111780, Note_on_c, 0, 71, 0
3, 111780, Note_on_c, 0, 67, 0
3, 111780, Note_on_c, 0, 79, 36
3, 111840, Note_on_c, 0, 79, 0
3, 111840, Note_on_c, 0, 76, 36
3, 111840, Note_on_c, 0, 79, 36
3, 111900, Note_on_c, 0, 79, 0
3, 111900, Note_on_c, 0, 76, 0
3, 111900, Note_on_c, 0, 83, 36
3, 111960, Note_on_c, 0, 83, 0
3, 111960, Note_on_c, 0, 76, 36
3, 111960, Note_on_c, 0, 79, 36
3, 112020, Note_on_c, 0, 79, 0
3, 112020, Note_on_c, 0, 76, 0
3, 112020, Note_on_c, 0, 83, 36
3, 112080, Note_on_c, 0, 83, 0
3, 112080, Note_on_c, 0, 76, 36
3, 112080, Note_on_c, 0, 79, 36
3, 112140, Note_on_c, 0, 79, 0
3, 112140, Note_on_c, 0, 76, 0
3, 112140, Note_on_c, 0, 83, 36
3, 112200, Note_on_c, 0, 83, 0
3, 112200, Note_on_c, 0, 76, 36
3, 112200, Note_on_c, 0, 79, 36
3, 112260, Note_on_c, 0, 79, 0
3, 112260, Note_on_c, 0, 76, 0
3, 112260, Note_on_c, 0, 83, 36
3, 112320, Note_on_c, 0, 83, 0
3, 112320, Note_on_c, 0, 69, 36
3, 112320, Note_on_c, 0, 72, 36
3, 112320, Note_on_c, 0, 76, 36
3, 112380, Note_on_c, 0, 76, 0
3, 112380, Note_on_c, 0, 72, 0
3, 112380, Note_on_c, 0, 69, 0
3, 112380, Note_on_c, 0, 81, 36
3, 112440, Note_on_c, 0, 81, 0
3, 112440, Note_on_c, 0, 69, 36
3, 112440, Note_on_c, 0, 72, 36
3, 112440, Note_on_c, 0, 76, 36
3, 112500, Note_on_c, 0, 76, 0
3, 112500, Note_on_c, 0, 72, 0
3, 112500, Note_on_c, 0, 69, 0
3, 112500, Note_on_c, 0, 81, 36
3, 112560, Note_on_c, 0, 81, 0
3, 112560, Note_on_c, 0, 69, 36
3, 112560, Note_on_c, 0, 72, 36
3, 112560, Note_on_c, 0, 76, 36
3, 112620, Note_on_c, 0, 76, 0
3, 112620, Note_on_c, 0, 72, 0
3, 112620, Note_on_c, 0, 69, 0
3, 112620, Note_on_c, 0, 81, 36
3, 112680, Note_on_c, 0, 81, 0
3, 112680, Note_on_c, 0, 69, 36
3, 112680, Note_on_c, 0, 72, 36
3, 112680, Note_on_c, 0, 76, 36
3, 112740, Note_on_c, 0, 76, 0
3, 112740, Note_on_c, 0, 72, 0
3, 112740, Note_on_c, 0, 69, 0
3, 112740, Note_on_c, 0, 81, 36
3, 112800, Note_on_c, 0, 81, 0
3, 112800, Note_on_c, 0, 74, 36
3, 112800, Note_on_c, 0, 78, 36
3, 112860, Note_on_c, 0, 78, 0
3, 112860, Note_on_c, 0, 74, 0
3, 112860, Note_on_c, 0, 81, 36
3, 112920, Note_on_c, 0, 81, 0
3, 112920, Note_on_c, 0, 74, 36
3, 112920, Note_on_c, 0, 78, 36
3, 112980, Note_on_c, 0, 78, 0
3, 112980, Note_on_c, 0, 74, 0
3, 112980, Note_on_c, 0, 81, 36
3, 113040, Note_on_c, 0, 81, 0
3, 113040, Note_on_c, 0, 74, 36
3, 113040, Note_on_c, 0, 78, 36
3, 113100, Note_on_c, 0, 78, 0
3, 113100, Note_on_c, 0, 74, 0
3, 113100, Note_on_c, 0, 81, 36
3, 113160, Note_on_c, 0, 81, 0
3, 113160, Note_on_c, 0, 74, 36
3, 113160, Note_on_c, 0, 78, 36
3, 113220, Note_on_c, 0, 78, 0
3, 113220, Note_on_c, 0, 74, 0
3, 113220, Note_on_c, 0, 81, 36
3, 113280, Note_on_c, 0, 81, 0
3, 113280, Note_on_c, 0, 67, 36
3, 113280, Note_on_c, 0, 71, 36
3, 113280, Note_on_c, 0, 74, 36
3, 113340, Note_on_c, 0, 74, 0
3, 113340, Note_on_c, 0, 71, 0
3, 113340, Note_on_c, 0, 67, 0
3, 113340, Note_on_c, 0, 79, 36
3, 113400, Note_on_c, 0, 79, 0
3, 113400, Note_on_c, 0, 67, 36
3, 113400, Note_on_c, 0, 71, 36
3, 113400, Note_on_c, 0, 74, 36
3, 113460, Note_on_c, 0, 74, 0
3, 113460, Note_on_c, 0, 71, 0
3, 113460, Note_on_c, 0, 67, 0
3, 113460, Note_on_c, 0, 79, 36
3, 113520, Note_on_c, 0, 79, 0
3, 113520, Note_on_c, 0, 67, 36
3, 113520, Note_on_c, 0, 71, 36
3, 113520, Note_on_c, 0, 74, 36
3, 113580, Note_on_c, 0, 74, 0
3, 113580, Note_on_c, 0, 71, 0
3, 113580, Note_on_c, 0, 67, 0
3, 113580, Note_on_c, 0, 79, 36
3, 113640, Note_on_c, 0, 79, 0
3, 113640, Note_on_c, 0, 67, 36
3, 113640, Note_on_c, 0, 71, 36
3, 113640, Note_on_c, 0, 74, 36
3, 113700, Note_on_c, 0, 74, 0
3, 113700, Note_on_c, 0, 71, 0
3, 113700, Note_on_c, 0, 67, 0
3, 113700, Note_on_c, 0, 79, 36
3, 113760, Note_on_c, 0, 79, 0
3, 113760, Note_on_c, 0, 72, 36
3, 113760, Note_on_c, 0, 76, 36
3, 113820, Note_on_c, 0, 76, 0
3, 113820, Note_on_c, 0, 72, 0
3, 113820, Note_on_c, 0, 81, 36
3, 113880, Note_on_c, 0, 81, 0
3, 113880, Note_on_c, 0, 72, 36
3, 113880, Note_on_c, 0, 76, 36
3, 113940, Note_on_c, 0, 76, 0
3, 113940, Note_on_c, 0, 72, 0
3, 113940, Note_on_c, 0, 81, 36
3, 114000, Note_on_c, 0, 81, 0
3, 114000, Note_on_c, 0, 72, 36
3, 114000, Note_on_c, 0, 76, 36
3, 114060, Note_on_c, 0, 76, 0
3, 114060, Note_on_c, 0, 72, 0
3, 114060, Note_on_c, 0, 81, 36
3, 114120, Note_on_c, 0, 81, 0
3, 114120, Note_on_c, 0, 72, 36
3, 114120, Note_on_c, 0, 76, 36
3, 114180, Note_on_c, 0, 76, 0
3, 114180, Note_on_c, 0, 72, 0
3, 114180, Note_on_c, 0, 81, 36
3, 114240, Note_on_c, 0, 81, 0
3, 114240, Note_on_c, 0, 74, 36
3, 114240, Note_on_c, 0, 79, 36
3, 114300, Note_on_c, 0, 79, 0
3, 114300, Note_on_c, 0, 74, 0
3, 114300, Note_on_c, 0, 83, 36
3, 114360, Note_on_c, 0, 83, 0
3, 114360, Note_on_c, 0, 74, 36
3, 114360, Note_on_c, 0, 79, 36
3, 114420, Note_on_c, 0, 79, 0
3, 114420, Note_on_c, 0, 74, 0
3, 114420, Note_on_c, 0, 83, 36
3, 114480, Note_on_c, 0, 83, 0
3, 114480, Note_on_c, 0, 74, 36
3, 114480, Note_on_c, 0, 79, 36
3, 114540, Note_on_c, 0, 79, 0
3, 114540, Note_on_c, 0, 74, 0
3, 114540, Note_on_c, 0, 83, 36
3, 114600, Note_on_c, 0, 83, 0
3, 114600, Note_on_c, 0, 74, 36
3, 114600, Note_on_c, 0, 79, 36
3, 114660, Note_on_c, 0, 79, 0
3, 114660, Note_on_c, 0, 74, 0
3, 114660, Note_on_c, 0, 83, 36
3, 114720, Note_on_c, 0, 83, 0
3, 114720, Note_on_c, 0, 76, 36
3, 114720, Note_on_c, 0, 79, 36
3, 114780, Note_on_c, 0, 79, 0
3, 114780, Note_on_c, 0, 76, 0
3, 114780, Note_on_c, 0, 85, 36
3, 114840, Note_on_c, 0, 85, 0
3, 114840, Note_on_c, 0, 76, 36
3, 114840, Note_on_c, 0, 79, 36
3, 114900, Note_on_c, 0, 79, 0
3, 114900, Note_on_c, 0, 76, 0
3, 114900, Note_on_c, 0, 85, 36
3, 114960, Note_on_c, 0, 85, 0
3, 114960, Note_on_c, 0, 78, 36
3, 114960, Note_on_c, 0, 84, 36
3, 115020, Note_on_c, 0, 84, 0
3, 115020, Note_on_c, 0, 78, 0
3, 115020, Note_on_c, 0, 86, 36
3, 115080, Note_on_c, 0, 86, 0
3, 115080, Note_on_c, 0, 78, 36
3, 115080, Note_on_c, 0, 84, 36
3, 115140, Note_on_c, 0, 84, 0
3, 115140, Note_on_c, 0, 78, 0
3, 115140, Note_on_c, 0, 86, 36
3, 115200, Note_on_c, 0, 86, 0
3, 115200, Note_on_c, 0, 79, 36
3, 115200, Note_on_c, 0, 83, 36
3, 115200, Note_on_c, 0, 86, 36
3, 115440, Note_on_c, 0, 86, 0
3, 115440, Note_on_c, 0, 83, 0
3, 115440, Note_on_c, 0, 79, 0
3, 128640, Note_on_c, 0, 67, 49
3, 129600, Note_on_c, 0, 67, 0
3, 129600, Note_on_c, 0, 67, 49
3, 130560, Note_on_c, 0, 67, 0
3, 130560, Note_on_c, 0, 69, 49
3, 131520, Note_on_c, 0, 69, 0
3, 131520, Note_on_c, 0, 67, 49
3, 132480, Note_on_c, 0, 67, 0
3, 132480, Note_on_c, 0, 67, 49
3, 133440, Note_on_c, 0, 67, 0
3, 141120, Note_on_c, 0, 60, 49
3, 142080, Note_on_c, 0, 60, 0
3, 142080, Note_on_c, 0, 72, 49
3, 143040, Note_on_c, 0, 72, 0
3, 143040, Note_on_c, 0, 72, 49
3, 144000, Note_on_c, 0, 72, 0
3, 144000, End_track
4, 0, Start_track
4, 0, Title_t, "Grand Piano"
4, 0, Program_c, 0, 0
4, 0, Control_c, 0, 7, 115
4, 0, Control_c, 0, 10, 41
4, 0, Note_on_c, 0, 60, 49
4, 0, Note_on_c, 0, 64, 49
4, 0, Note_on_c, 0, 67, 49
4, 240, Note_on_c, 0, 67, 0
4, 240, Note_on_c, 0, 64, 0
4, 240, Note_on_c, 0, 60, 0
4, 240, Control_c, 0, 64, 127
4, 240, Note_on_c, 0, 55, 62
4, 480, Note_on_c, 0, 55, 0
4, 480, Note_on_c, 0, 57, 62
4, 720, Note_on_c, 0, 57, 0
4, 720, Note_on_c, 0, 60, 62
4, 960, Note_on_c, 0, 60, 0
4, 960, Note_on_c, 0, 64, 62
4, 1920, Control_c, 0, 64, 0
4, 2400, Note_on_c, 0, 64, 0
4, 2400, Note_on_c, 0, 62, 49
4, 2640, Note_on_c, 0, 62, 0
4, 2640, Note_on_c, 0, 64, 49
4, 2880, Note_on_c, 0, 64, 0
4, 2880, Note_on_c, 0, 62, 49
4, 2880, Note_on_c, 0, 65, 49
4, 3600, Note_on_c, 0, 65, 0
4, 3600, Note_on_c, 0, 62, 0
4, 3600, Note_on_c, 0, 65, 49
4, 3600, Note_on_c, 0, 67, 49
4, 3840, Note_on_c, 0, 67, 0
4, 3840, Note_on_c, 0, 65, 0
4, 3840, Note_on_c, 0, 64, 49
4, 4800, Note_on_c, 0, 64, 0
4, 4800, Note_on_c, 0, 62, 49
4, 4800, Note_on_c, 0, 65, 49
4, 5760, Note_on_c, 0, 65, 0
4, 5760, Note_on_c, 0, 62, 0
4, 5760, Note_on_c, 0, 64, 49
4, 6240, Note_on_c, 0, 64, 0
4, 6240, Note_on_c, 0, 62, 49
4, 6480, Note_on_c, 0, 62, 0
4, 6480, Note_on_c, 0, 64, 49
4, 6720, Note_on_c, 0, 64, 0
4, 6720, Note_on_c, 0, 62, 49
4, 6720, Note_on_c, 0, 65, 49
4, 7680, Note_on_c, 0, 65, 0
4, 7680, Note_on_c, 0, 62, 0
4, 7680, Note_on_c, 0, 60, 49
4, 7680, Note_on_c, 0, 64, 49
4, 7920, Note_on_c, 0, 64, 0
4, 7920, Note_on_c, 0, 60, 0
4, 7920, Control_c, 0, 64, 127
4, 7920, Note_on_c, 0, 55, 62
4, 8160, Note_on_c, 0, 55, 0
4, 8160, Note_on_c, 0, 57, 62
4, 8400, Note_on_c, 0, 57, 0
4, 8400, Note_on_c, 0, 60, 62
4, 8640, Control_c, 0, 64, 0
4, 8640, Note_on_c, 0, 64, 62
4, 9600, Note_on_c, 0, 64, 0
4, 9600, Note_on_c, 0, 60, 0
4, 9600, Note_on_c, 0, 64, 49
4, 10080, Note_on_c, 0, 64, 0
4, 10080, Note_on_c, 0, 63, 49
4, 10320, Note_on_c, 0, 63, 0
4, 10320, Note_on_c, 0, 64, 49
4, 10560, Note_on_c, 0, 64, 0
4, 10560, Note_on_c, 0, 65, 49
4, 11040, Note_on_c, 0, 65, 0
4, 11040, Note_on_c, 0, 66, 49
4, 11520, Note_on_c, 0, 66, 0
4, 11520, Note_on_c, 0, 55, 49
4, 11520, Note_on_c, 0, 59, 49
4, 11520, Note_on_c, 0, 62, 49
4, 12000, Note_on_c, 0, 62, 0
4, 12000, Note_on_c, 0, 59, 0
4, 12000, Note_on_c, 0, 55, 0
4, 12000, Note_on_c, 0, 52, 49
4, 12000, Note_on_c, 0, 59, 49
4, 12000, Note_on_c, 0, 64, 49
4, 12480, Note_on_c, 0, 64, 0
4, 12480, Note_on_c, 0, 59, 0
4, 12480, Note_on_c, 0, 52, 0
4, 12480, Note_on_c, 0, 57, 49
4, 12480, Note_on_c, 0, 60, 49
4, 12480, Note_on_c, 0, 64, 49
4, 12960, Note_on_c, 0, 64, 0
4, 12960, Note_on_c, 0, 60, 0
4, 12960, Note_on_c, 0, 57, 0
4, 12960, Note_on_c, 0, 50, 49
4, 12960, Note_on_c, 0, 57, 49
4, 12960, Note_on_c, 0, 62, 49
4, 13440, Note_on_c, 0, 62, 0
4, 13440, Note_on_c, 0, 57, 0
4, 13440, Note_on_c, 0, 50, 0
4, 13440, Note_on_c, 0, 55, 49
4, 13440, Note_on_c, 0, 59, 49
4, 13440, Note_on_c, 0, 62, 49
4, 13920, Note_on_c, 0, 62, 0
4, 13920, Note_on_c, 0, 59, 0
4, 13920, Note_on_c, 0, 55, 0
4, 13920, Note_on_c, 0, 48, 49
4, 13920, Note_on_c, 0, 57, 49
4, 13920, Note_on_c, 0, 64, 49
4, 14400, Note_on_c, 0, 64, 0
4, 14400, Note_on_c, 0, 57, 0
4, 14400, Note_on_c, 0, 48, 0
4, 14400, Note_on_c, 0, 50, 49
4, 14400, Note_on_c, 0, 62, 49
4, 14880, Note_on_c, 0, 62, 0
4, 14880, Note_on_c, 0, 50, 0
4, 14880, Note_on_c, 0, 52, 49
4, 14880, Note_on_c, 0, 61, 49
4, 15120, Note_on_c, 0, 61, 0
4, 15120, Note_on_c, 0, 52, 0
4, 15120, Note_on_c, 0, 54, 49
4, 15120, Note_on_c, 0, 60, 49
4, 15360, Note_on_c, 0, 60, 0
4, 15360, Note_on_c, 0, 54, 0
4, 15360, Note_on_c, 0, 55, 49
4, 15360, Note_on_c, 0, 59, 49
4, 17280, Note_on_c, 0, 59, 0
4, 17280, Note_on_c, 0, 55, 0
4, 17280, Note_on_c, 0, 59, 49
4, 17280, Note_on_c, 0, 62, 49
4, 17760, Note_on_c, 0, 62, 0
4, 17760, Note_on_c, 0, 59, 0
4, 17760, Note_on_c, 0, 58, 49
4, 17760, Note_on_c, 0, 61, 49
4, 18000, Note_on_c, 0, 61, 0
4, 18000, Note_on_c, 0, 58, 0
4, 18000, Note_on_c, 0, 59, 49
4, 18000, Note_on_c, 0, 62, 49
4, 18240, Note_on_c, 0, 62, 0
4, 18240, Note_on_c, 0, 59, 0
4, 18240, Note_on_c, 0, 64, 49
4, 19200, Note_on_c, 0, 64, 0
4, 19200, Note_on_c, 0, 55, 49
4, 19200, Note_on_c, 0, 59, 49
4, 19200, Note_on_c, 0, 65, 49
4, 22080, Note_on_c, 0, 65, 0
4, 22080, Note_on_c, 0, 59, 0
4, 22080, Note_on_c, 0, 55, 0
4, 22080, Note_on_c, 0, 55, 75
4, 22080, Note_on_c, 0, 60, 75
4, 22080, Note_on_c, 0, 64, 75
4, 23040, Note_on_c, 0, 64, 0
4, 23040, Note_on_c, 0, 60, 0
4, 23040, Note_on_c, 0, 55, 0
4, 23040, Note_on_c, 0, 55, 88
4, 23040, Note_on_c, 0, 59, 88
4, 23040, Note_on_c, 0, 62, 88
4, 23199, Note_on_c, 0, 62, 0
4, 23199, Note_on_c, 0, 59, 0
4, 23199, Note_on_c, 0, 55, 0
4, 23199, Note_on_c, 0, 55, 88
4, 23360, Note_on_c, 0, 62, 88
4, 23520, Note_on_c, 0, 59, 88
4, 24000, Note_on_c, 0, 59, 0
4, 24000, Note_on_c, 0, 62, 0
4, 24000, Note_on_c, 0, 55, 0
4, 24000, Note_on_c, 0, 53, 88
4, 24000, Note_on_c, 0, 59, 88
4, 24000, Note_on_c, 0, 62, 88
4, 24159, Note_on_c, 0, 62, 0
4, 24159, Note_on_c, 0, 59, 0
4, 24320, Note_on_c, 0, 62, 88
4, 24480, Note_on_c, 0, 55, 88
4, 24480, Note_on_c, 0, 59, 88
4, 24960, Note_on_c, 0, 59, 0
4, 24960, Note_on_c, 0, 53, 0
4, 24960, Note_on_c, 0, 62, 0
4, 24960, Note_on_c, 0, 55, 0
4, 24960, Control_c, 0, 64, 127
4, 24960, Note_on_c, 0, 52, 88
4, 24960, Note_on_c, 0, 55, 88
4, 24960, Note_on_c, 0, 58, 88
4, 24960, Note_on_c, 0, 61, 88
4, 25080, Note_on_c, 0, 61, 0
4, 25080, Note_on_c, 0, 52, 0
4, 25080, Note_on_c, 0, 55, 0
4, 25080, Note_on_c, 0, 58, 0
4, 25080, Note_on_c, 0, 55, 88
4, 25200, Note_on_c, 0, 55, 0
4, 25200, Note_on_c, 0, 58, 88
4, 25320, Note_on_c, 0, 58, 0
4, 25320, Note_on_c, 0, 61, 88
4, 25440, Control_c, 0, 64, 0
4, 25920, Note_on_c, 0, 61, 0
4, 25920, Control_c, 0, 64, 127
4, 25920, Note_on_c, 0, 51, 88
4, 25920, Note_on_c, 0, 55, 88
4, 25920, Note_on_c, 0, 57, 88
4, 25920, Note_on_c, 0, 60, 88
4, 26040, Note_on_c, 0, 60, 0
4, 26040, Note_on_c, 0, 51, 0
4, 26040, Note_on_c, 0, 55, 0
4, 26040, Note_on_c, 0, 57, 0
4, 26040, Note_on_c, 0, 55, 88
4, 26160, Note_on_c, 0, 55, 0
4, 26160, Note_on_c, 0, 57, 88
4, 26280, Note_on_c, 0, 57, 0
4, 26280, Note_on_c, 0, 60, 88
4, 26400, Control_c, 0, 64, 0
4, 26800, Note_on_c, 0, 43, 88
4, 26840, Note_on_c, 0, 50, 88
4, 26880, Note_on_c, 0, 60, 0
4, 26880, Note_on_c, 0, 59, 88
4, 27120, Note_on_c, 0, 59, 0
4, 27120, Note_on_c, 0, 50, 0
4, 27120, Note_on_c, 0, 43, 0
4, 31200, Note_on_c, 0, 55, 114
4, 31200, Note_on_c, 0, 59, 114
4, 31200, Note_on_c, 0, 62, 114
4, 31200, Note_on_c, 0, 65, 114
4, 31200, Note_on_c, 0, 67, 114
4, 31680, Note_on_c, 0, 67, 0
4, 31680, Note_on_c, 0, 62, 0
4, 31680, Note_on_c, 0, 55, 0
4, 31680, Note_on_c, 0, 59, 0
4, 31680, Note_on_c, 0, 65, 0
4, 31680, Note_on_c, 0, 57, 101
4, 31680, Note_on_c, 0, 60, 101
4, 31680, Note_on_c, 0, 63, 101
4, 31680, Note_on_c, 0, 66, 101
4, 32160, Note_on_c, 0, 66, 0
4, 32160, Note_on_c, 0, 57, 0
4, 32160, Note_on_c, 0, 60, 0
4, 32160, Note_on_c, 0, 63, 0
4, 32160, Note_on_c, 0, 59, 88
4, 32160, Note_on_c, 0, 62, 88
4, 32160, Note_on_c, 0, 65, 88
4, 32640, Note_on_c, 0, 65, 0
4, 32640, Note_on_c, 0, 62, 0
4, 32640, Note_on_c, 0, 59, 0
4, 34560, Note_on_c, 0, 60, 49
4, 35520, Note_on_c, 0, 60, 0
4, 35520, Note_on_c, 0, 66, 75
4, 36000, Note_on_c, 0, 66, 0
4, 36000, Note_on_c, 0, 65, 49
4, 36000, Note_on_c, 0, 67, 49
4, 36480, Note_on_c, 0, 67, 0
4, 36480, Note_on_c, 0, 65, 0
4, 36480, Note_on_c, 0, 60, 49
4, 36960, Note_on_c, 0, 60, 0
4, 36960, Note_on_c, 0, 64, 49
4, 36960, Note_on_c, 0, 68, 49
4, 37440, Note_on_c, 0, 68, 0
4, 37440, Note_on_c, 0, 64, 0
4, 37440, Note_on_c, 0, 65, 49
4, 37440, Note_on_c, 0, 69, 49
4, 38400, Note_on_c, 0, 69, 0
4, 38400, Note_on_c, 0, 65, 0
4, 38400, Note_on_c, 0, 60, 49
4, 38400, Note_on_c, 0, 67, 49
4, 39360, Note_on_c, 0, 67, 0
4, 39360, Note_on_c, 0, 60, 0
4, 39360, Note_on_c, 0, 65, 49
4, 39360, Note_on_c, 0, 69, 49
4, 39840, Note_on_c, 0, 69, 0
4, 40320, Note_on_c, 0, 65, 0
4, 40320, Control_c, 0, 64, 127
4, 40320, Note_on_c, 0, 64, 49
4, 40380, Note_on_c, 0, 64, 0
4, 40380, Note_on_c, 0, 67, 49
4, 40440, Note_on_c, 0, 67, 0
4, 40440, Note_on_c, 0, 64, 49
4, 40500, Note_on_c, 0, 64, 0
4, 40500, Note_on_c, 0, 67, 49
4, 40560, Note_on_c, 0, 67, 0
4, 40560, Note_on_c, 0, 64, 49
4, 40620, Note_on_c, 0, 64, 0
4, 40620, Note_on_c, 0, 67, 49
4, 40680, Note_on_c, 0, 67, 0
4, 40680, Note_on_c, 0, 64, 49
4, 40740, Note_on_c, 0, 64, 0
4, 40740, Note_on_c, 0, 67, 49
4, 40800, Note_on_c, 0, 67, 0
4, 40800, Note_on_c, 0, 64, 49
4, 40860, Note_on_c, 0, 64, 0
4, 40860, Note_on_c, 0, 67, 49
4, 40920, Note_on_c, 0, 67, 0
4, 40920, Note_on_c, 0, 64, 49
4, 40980, Note_on_c, 0, 64, 0
4, 40980, Note_on_c, 0, 67, 49
4, 41040, Note_on_c, 0, 67, 0
4, 41040, Note_on_c, 0, 64, 49
4, 41100, Note_on_c, 0, 64, 0
4, 41100, Note_on_c, 0, 67, 49
4, 41160, Note_on_c, 0, 67, 0
4, 41160, Note_on_c, 0, 64, 49
4, 41220, Note_on_c, 0, 64, 0
4, 41220, Control_c, 0, 64, 0
4, 41220, Note_on_c, 0, 67, 49
4, 41280, Note_on_c, 0, 67, 0
4, 41280, Control_c, 0, 64, 127
4, 41280, Note_on_c, 0, 64, 49
4, 41340, Note_on_c, 0, 64, 0
4, 41340, Note_on_c, 0, 68, 49
4, 41400, Note_on_c, 0, 68, 0
4, 41400, Note_on_c, 0, 64, 49
4, 41460, Note_on_c, 0, 64, 0
4, 41460, Note_on_c, 0, 68, 49
4, 41520, Note_on_c, 0, 68, 0
4, 41520, Note_on_c, 0, 64, 49
4, 41580, Note_on_c, 0, 64, 0
4, 41580, Note_on_c, 0, 68, 49
4, 41640, Note_on_c, 0, 68, 0
4, 41640, Note_on_c, 0, 64, 49
4, 41700, Note_on_c, 0, 64, 0
4, 41700, Note_on_c, 0, 68, 49
4, 41760, Note_on_c, 0, 68, 0
4, 41760, Note_on_c, 0, 64, 49
4, 41820, Note_on_c, 0, 64, 0
4, 41820, Note_on_c, 0, 68, 49
4, 41880, Note_on_c, 0, 68, 0
4, 41880, Note_on_c, 0, 64, 49
4, 41940, Note_on_c, 0, 64, 0
4, 41940, Note_on_c, 0, 68, 49
4, 42000, Note_on_c, 0, 68, 0
4, 42000, Note_on_c, 0, 64, 49
4, 42060, Note_on_c, 0, 64, 0
4, 42060, Note_on_c, 0, 68, 49
4, 42120, Note_on_c, 0, 68, 0
4, 42120, Note_on_c, 0, 64, 49
4, 42180, Note_on_c, 0, 64, 0
4, 42180, Control_c, 0, 64, 0
4, 42180, Note_on_c, 0, 68, 49
4, 42240, Note_on_c, 0, 68, 0
4, 42240, Note_on_c, 0, 60, 49
4, 42300, Note_on_c, 0, 60, 0
4, 42300, Note_on_c, 0, 69, 49
4, 42360, Note_on_c, 0, 69, 0
4, 42360, Note_on_c, 0, 60, 49
4, 42420, Note_on_c, 0, 60, 0
4, 42420, Note_on_c, 0, 69, 49
4, 42480, Note_on_c, 0, 69, 0
4, 42480, Note_on_c, 0, 60, 49
4, 42540, Note_on_c, 0, 60, 0
4, 42540, Note_on_c, 0, 69, 49
4, 42600, Note_on_c, 0, 69, 0
4, 42600, Note_on_c, 0, 60, 49
4, 42660, Note_on_c, 0, 60, 0
4, 42660, Note_on_c, 0, 69, 49
4, 42720, Note_on_c, 0, 69, 0
4, 42720, Note_on_c, 0, 57, 49
4, 42780, Note_on_c, 0, 57, 0
4, 42780, Note_on_c, 0, 60, 49
4, 42840, Note_on_c, 0, 60, 0
4, 42840, Note_on_c, 0, 57, 49
4, 42900, Note_on_c, 0, 57, 0
4, 42900, Note_on_c, 0, 60, 49
4, 42960, Note_on_c, 0, 60, 0
4, 42960, Note_on_c, 0, 57, 49
4, 43020, Note_on_c, 0, 57, 0
4, 43020, Note_on_c, 0, 60, 49
4, 43080, Note_on_c, 0, 60, 0
4, 43080, Note_on_c, 0, 57, 49
4, 43140, Note_on_c, 0, 57, 0
4, 43140, Note_on_c, 0, 60, 49
4, 43200, Note_on_c, 0, 60, 0
4, 43200, Note_on_c, 0, 54, 49
4, 43200, Note_on_c, 0, 57, 49
4, 43260, Note_on_c, 0, 57, 0
4, 43260, Note_on_c, 0, 54, 0
4, 43260, Note_on_c, 0, 60, 49
4, 43320, Note_on_c, 0, 60, 0
4, 43320, Note_on_c, 0, 54, 49
4, 43320, Note_on_c, 0, 57, 49
4, 43380, Note_on_c, 0, 57, 0
4, 43380, Note_on_c, 0, 54, 0
4, 43380, Note_on_c, 0, 60, 49
4, 43440, Note_on_c, 0, 60, 0
4, 43440, Note_on_c, 0, 54, 49
4, 43440, Note_on_c, 0, 57, 49
4, 43500, Note_on_c, 0, 57, 0
4, 43500, Note_on_c, 0, 54, 0
4, 43500, Note_on_c, 0, 60, 49
4, 43560, Note_on_c, 0, 60, 0
4, 43560, Note_on_c, 0, 54, 49
4, 43560, Note_on_c, 0, 57, 49
4, 43620, Note_on_c, 0, 57, 0
4, 43620, Note_on_c, 0, 54, 0
4, 43620, Note_on_c, 0, 60, 49
4, 43680, Note_on_c, 0, 60, 0
4, 43680, Note_on_c, 0, 50, 49
4, 43680, Note_on_c, 0, 54, 49
4, 43740, Note_on_c, 0, 54, 0
4, 43740, Note_on_c, 0, 50, 0
4, 43740, Note_on_c, 0, 57, 49
4, 43800, Note_on_c, 0, 57, 0
4, 43800, Note_on_c, 0, 50, 49
4, 43800, Note_on_c, 0, 54, 49
4, 43860, Note_on_c, 0, 54, 0
4, 43860, Note_on_c, 0, 50, 0
4, 43860, Note_on_c, 0, 57, 49
4, 43920, Note_on_c, 0, 57, 0
4, 43920, Note_on_c, 0, 50, 49
4, 43920, Note_on_c, 0, 54, 49
4, 43980, Note_on_c, 0, 54, 0
4, 43980, Note_on_c, 0, 50, 0
4, 43980, Note_on_c, 0, 57, 49
4, 44040, Note_on_c, 0, 57, 0
4, 44040, Note_on_c, 0, 50, 49
4, 44040, Note_on_c, 0, 54, 49
4, 44100, Note_on_c, 0, 54, 0
4, 44100, Note_on_c, 0, 50, 0
4, 44100, Note_on_c, 0, 57, 49
4, 44160, Note_on_c, 0, 57, 0
4, 44160, Note_on_c, 0, 51, 49
4, 44160, Note_on_c, 0, 54, 49
4, 44220, Note_on_c, 0, 54, 0
4, 44220, Note_on_c, 0, 51, 0
4, 44220, Note_on_c, 0, 57, 49
4, 44280, Note_on_c, 0, 57, 0
4, 44280, Note_on_c, 0, 51, 49
4, 44280, Note_on_c, 0, 54, 49
4, 44340, Note_on_c, 0, 54, 0
4, 44340, Note_on_c, 0, 51, 0
4, 44340, Note_on_c, 0, 57, 49
4, 44400, Note_on_c, 0, 57, 0
4, 44400, Note_on_c, 0, 51, 49
4, 44400, Note_on_c, 0, 54, 49
4, 44460, Note_on_c, 0, 54, 0
4, 44460, Note_on_c, 0, 51, 0
4, 44460, Note_on_c, 0, 57, 49
4, 44520, Note_on_c, 0, 57, 0
4, 44520, Note_on_c, 0, 51, 49
4, 44520, Note_on_c, 0, 54, 49
4, 44580, Note_on_c, 0, 54, 0
4, 44580, Note_on_c, 0, 51, 0
4, 44580, Note_on_c, 0, 57, 49
4, 44640, Note_on_c, 0, 57, 0
4, 44640, Note_on_c, 0, 52, 49
4, 44700, Note_on_c, 0, 52, 0
4, 44700, Note_on_c, 0, 55, 49
4, 44760, Note_on_c, 0, 55, 0
4, 44760, Note_on_c, 0, 52, 49
4, 44820, Note_on_c, 0, 52, 0
4, 44820, Note_on_c, 0, 55, 49
4, 44880, Note_on_c, 0, 55, 0
4, 44880, Note_on_c, 0, 52, 49
4, 44940, Note_on_c, 0, 52, 0
4, 44940, Note_on_c, 0, 55, 49
4, 45000, Note_on_c, 0, 55, 0
4, 45000, Note_on_c, 0, 52, 49
4, 45060, Note_on_c, 0, 52, 0
4, 45060, Note_on_c, 0, 55, 49
4, 45120, Note_on_c, 0, 55, 0
4, 45120, Note_on_c, 0, 45, 49
4, 45180, Note_on_c, 0, 45, 0
4, 45180, Note_on_c, 0, 52, 49
4, 45240, Note_on_c, 0, 52, 0
4, 45240, Note_on_c, 0, 45, 49
4, 45300, Note_on_c, 0, 45, 0
4, 45300, Note_on_c, 0, 52, 49
4, 45360, Note_on_c, 0, 52, 0
4, 45360, Note_on_c, 0, 45, 49
4, 45420, Note_on_c, 0, 45, 0
4, 45420, Note_on_c, 0, 52, 49
4, 45480, Note_on_c, 0, 52, 0
4, 45480, Note_on_c, 0, 45, 49
4, 45540, Note_on_c, 0, 45, 0
4, 45540, Note_on_c, 0, 52, 49
4, 45600, Note_on_c, 0, 52, 0
4, 45600, Note_on_c, 0, 42, 49
4, 45660, Note_on_c, 0, 42, 0
4, 45660, Note_on_c, 0, 52, 49
4, 45720, Note_on_c, 0, 52, 0
4, 45720, Note_on_c, 0, 42, 49
4, 45780, Note_on_c, 0, 42, 0
4, 45780, Note_on_c, 0, 52, 49
4, 45840, Note_on_c, 0, 52, 0
4, 45840, Note_on_c, 0, 42, 49
4, 45900, Note_on_c, 0, 42, 0
4, 45900, Note_on_c, 0, 52, 49
4, 45960, Note_on_c, 0, 52, 0
4, 45960, Note_on_c, 0, 42, 49
4, 46020, Note_on_c, 0, 42, 0
4, 46020, Note_on_c, 0, 52, 49
4, 46080, Note_on_c, 0, 52, 0
4, 46080, Note_on_c, 0, 43, 49
4, 46080, Note_on_c, 0, 52, 49
4, 46140, Note_on_c, 0, 52, 0
4, 46140, Note_on_c, 0, 43, 0
4, 46140, Note_on_c, 0, 55, 49
4, 46200, Note_on_c, 0, 55, 0
4, 46200, Note_on_c, 0, 43, 49
4, 46200, Note_on_c, 0, 52, 49
4, 46260, Note_on_c, 0, 52, 0
4, 46260, Note_on_c, 0, 43, 0
4, 46260, Note_on_c, 0, 55, 49
4, 46320, Note_on_c, 0, 55, 0
4, 46320, Note_on_c, 0, 43, 49
4, 46320, Note_on_c, 0, 52, 49
4, 46380, Note_on_c, 0, 52, 0
4, 46380, Note_on_c, 0, 43, 0
4, 46380, Note_on_c, 0, 55, 49
4, 46440, Note_on_c, 0, 55, 0
4, 46440, Note_on_c, 0, 43, 49
4, 46440, Note_on_c, 0, 52, 49
4, 46500, Note_on_c, 0, 52, 0
4, 46500, Note_on_c, 0, 43, 0
4, 46500, Note_on_c, 0, 55, 49
4, 46560, Note_on_c, 0, 55, 0
4, 46560, Note_on_c, 0, 45, 49
4, 46560, Note_on_c, 0, 52, 49
4, 46620, Note_on_c, 0, 52, 0
4, 46620, Note_on_c, 0, 45, 0
4, 46620, Note_on_c, 0, 54, 49
4, 46680, Note_on_c, 0, 54, 0
4, 46680, Note_on_c, 0, 45, 49
4, 46680, Note_on_c, 0, 52, 49
4, 46740, Note_on_c, 0, 52, 0
4, 46740, Note_on_c, 0, 45, 0
4, 46740, Note_on_c, 0, 54, 49
4, 46800, Note_on_c, 0, 54, 0
4, 46800, Note_on_c, 0, 45, 49
4, 46800, Note_on_c, 0, 52, 49
4, 46860, Note_on_c, 0, 52, 0
4, 46860, Note_on_c, 0, 45, 0
4, 46860, Note_on_c, 0, 54, 49
4, 46920, Note_on_c, 0, 54, 0
4, 46920, Note_on_c, 0, 45, 49
4, 46920, Note_on_c, 0, 52, 49
4, 46980, Note_on_c, 0, 52, 0
4, 46980, Note_on_c, 0, 45, 0
4, 46980, Note_on_c, 0, 54, 49
4, 47040, Note_on_c, 0, 54, 0
4, 47040, Note_on_c, 0, 47, 49
4, 47040, Note_on_c, 0, 52, 49
4, 47100, Note_on_c, 0, 52, 0
4, 47100, Note_on_c, 0, 47, 0
4, 47100, Note_on_c, 0, 55, 49
4, 47160, Note_on_c, 0, 55, 0
4, 47160, Note_on_c, 0, 47, 49
4, 47160, Note_on_c, 0, 52, 49
4, 47220, Note_on_c, 0, 52, 0
4, 47220, Note_on_c, 0, 47, 0
4, 47220, Note_on_c, 0, 55, 49
4, 47280, Note_on_c, 0, 55, 0
4, 47280, Note_on_c, 0, 47, 49
4, 47280, Note_on_c, 0, 52, 49
4, 47340, Note_on_c, 0, 52, 0
4, 47340, Note_on_c, 0, 47, 0
4, 47340, Note_on_c, 0, 55, 49
4, 47400, Note_on_c, 0, 55, 0
4, 47400, Note_on_c, 0, 47, 49
4, 47400, Note_on_c, 0, 52, 49
4, 47460, Note_on_c, 0, 52, 0
4, 47460, Note_on_c, 0, 47, 0
4, 47460, Note_on_c, 0, 55, 49
4, 47520, Note_on_c, 0, 55, 0
4, 47520, Note_on_c, 0, 48, 49
4, 47520, Note_on_c, 0, 52, 49
4, 47580, Note_on_c, 0, 52, 0
4, 47580, Note_on_c, 0, 48, 0
4, 47580, Note_on_c, 0, 54, 49
4, 47640, Note_on_c, 0, 54, 0
4, 47640, Note_on_c, 0, 48, 49
4, 47640, Note_on_c, 0, 52, 49
4, 47700, Note_on_c, 0, 52, 0
4, 47700, Note_on_c, 0, 48, 0
4, 47700, Note_on_c, 0, 54, 49
4, 47760, Note_on_c, 0, 54, 0
4, 47760, Note_on_c, 0, 48, 49
4, 47760, Note_on_c, 0, 52, 49
4, 47820, Note_on_c, 0, 52, 0
4, 47820, Note_on_c, 0, 48, 0
4, 47820, Note_on_c, 0, 54, 49
4, 47880, Note_on_c, 0, 54, 0
4, 47880, Note_on_c, 0, 48, 49
4, 47880, Note_on_c, 0, 52, 49
4, 47940, Note_on_c, 0, 52, 0
4, 47940, Note_on_c, 0, 48, 0
4, 47940, Note_on_c, 0, 54, 49
4, 48000, Note_on_c, 0, 54, 0
4, 48000, Note_on_c, 0, 54, 49
4, 48120, Note_on_c, 0, 54, 0
4, 48120, Note_on_c, 0, 63, 49
4, 48240, Note_on_c, 0, 63, 0
4, 48240, Note_on_c, 0, 63, 49
4, 48360, Note_on_c, 0, 63, 0
4, 48360, Note_on_c, 0, 59, 49
4, 48480, Note_on_c, 0, 59, 0
4, 48600, Note_on_c, 0, 63, 49
4, 48720, Note_on_c, 0, 63, 0
4, 48720, Note_on_c, 0, 63, 49
4, 48840, Note_on_c, 0, 63, 0
4, 48840, Note_on_c, 0, 59, 49
4, 48960, Note_on_c, 0, 59, 0
4, 48960, Note_on_c, 0, 54, 49
4, 49080, Note_on_c, 0, 54, 0
4, 49080, Note_on_c, 0, 63, 49
4, 49200, Note_on_c, 0, 63, 0
4, 49200, Note_on_c, 0, 63, 49
4, 49320, Note_on_c, 0, 63, 0
4, 49320, Note_on_c, 0, 59, 49
4, 49440, Note_on_c, 0, 59, 0
4, 49560, Note_on_c, 0, 63, 49
4, 49680, Note_on_c, 0, 63, 0
4, 49680, Note_on_c, 0, 63, 49
4, 49800, Note_on_c, 0, 63, 0
4, 49800, Note_on_c, 0, 59, 49
4, 49920, Note_on_c, 0, 59, 0
4, 50040, Note_on_c, 0, 64, 49
4, 50160, Note_on_c, 0, 64, 0
4, 50160, Note_on_c, 0, 64, 49
4, 50280, Note_on_c, 0, 64, 0
4, 50280, Note_on_c, 0, 61, 49
4, 50400, Note_on_c, 0, 61, 0
4, 50520, Note_on_c, 0, 64, 49
4, 50640, Note_on_c, 0, 64, 0
4, 50640, Note_on_c, 0, 64, 49
4, 50760, Note_on_c, 0, 64, 0
4, 50760, Note_on_c, 0, 61, 49
4, 50880, Note_on_c, 0, 61, 0
4, 51000, Note_on_c, 0, 64, 49
4, 51120, Note_on_c, 0, 64, 0
4, 51120, Note_on_c, 0, 64, 49
4, 51240, Note_on_c, 0, 64, 0
4, 51240, Note_on_c, 0, 61, 49
4, 51360, Note_on_c, 0, 61, 0
4, 51480, Note_on_c, 0, 64, 49
4, 51600, Note_on_c, 0, 64, 0
4, 51600, Note_on_c, 0, 64, 49
4, 51720, Note_on_c, 0, 64, 0
4, 51720, Note_on_c, 0, 61, 49
4, 51840, Note_on_c, 0, 61, 0
4, 51960, Note_on_c, 0, 66, 49
4, 52080, Note_on_c, 0, 66, 0
4, 52080, Note_on_c, 0, 66, 49
4, 52200, Note_on_c, 0, 66, 0
4, 52200, Note_on_c, 0, 63, 49
4, 52320, Note_on_c, 0, 63, 0
4, 52440, Note_on_c, 0, 66, 49
4, 52560, Note_on_c, 0, 66, 0
4, 52560, Note_on_c, 0, 66, 49
4, 52680, Note_on_c, 0, 66, 0
4, 52680, Note_on_c, 0, 63, 49
4, 52800, Note_on_c, 0, 63, 0
4, 52920, Note_on_c, 0, 66, 49
4, 53040, Note_on_c, 0, 66, 0
4, 53040, Note_on_c, 0, 66, 49
4, 53160, Note_on_c, 0, 66, 0
4, 53160, Note_on_c, 0, 63, 49
4, 53280, Note_on_c, 0, 63, 0
4, 53400, Note_on_c, 0, 66, 49
4, 53520, Note_on_c, 0, 66, 0
4, 53520, Note_on_c, 0, 66, 49
4, 53640, Note_on_c, 0, 66, 0
4, 53640, Note_on_c, 0, 63, 49
4, 53760, Note_on_c, 0, 63, 0
4, 53880, Note_on_c, 0, 67, 49
4, 54000, Note_on_c, 0, 67, 0
4, 54000, Note_on_c, 0, 67, 49
4, 54120, Note_on_c, 0, 67, 0
4, 54120, Note_on_c, 0, 64, 49
4, 54240, Note_on_c, 0, 64, 0
4, 54360, Note_on_c, 0, 67, 49
4, 54480, Note_on_c, 0, 67, 0
4, 54480, Note_on_c, 0, 67, 49
4, 54600, Note_on_c, 0, 67, 0
4, 54600, Note_on_c, 0, 64, 49
4, 54720, Note_on_c, 0, 64, 0
4, 54840, Note_on_c, 0, 67, 49
4, 54960, Note_on_c, 0, 67, 0
4, 54960, Note_on_c, 0, 67, 49
4, 55080, Note_on_c, 0, 67, 0
4, 55080, Note_on_c, 0, 64, 49
4, 55200, Note_on_c, 0, 64, 0
4, 55320, Note_on_c, 0, 67, 49
4, 55440, Note_on_c, 0, 67, 0
4, 55440, Note_on_c, 0, 67, 49
4, 55560, Note_on_c, 0, 67, 0
4, 55560, Note_on_c, 0, 64, 49
4, 55680, Note_on_c, 0, 64, 0
4, 55800, Note_on_c, 0, 69, 49
4, 55920, Note_on_c, 0, 69, 0
4, 55920, Note_on_c, 0, 69, 49
4, 56040, Note_on_c, 0, 69, 0
4, 56040, Note_on_c, 0, 66, 49
4, 56160, Note_on_c, 0, 66, 0
4, 56280, Note_on_c, 0, 66, 49
4, 56400, Note_on_c, 0, 66, 0
4, 56400, Note_on_c, 0, 66, 49
4, 56520, Note_on_c, 0, 66, 0
4, 56520, Note_on_c, 0, 59, 49
4, 56640, Note_on_c, 0, 59, 0
4, 56760, Note_on_c, 0, 57, 49
4, 56880, Note_on_c, 0, 57, 0
4, 56880, Note_on_c, 0, 57, 49
4, 57000, Note_on_c, 0, 57, 0
4, 57000, Note_on_c, 0, 54, 49
4, 57120, Note_on_c, 0, 54, 0
4, 57240, Note_on_c, 0, 59, 49
4, 57360, Note_on_c, 0, 59, 0
4, 57360, Note_on_c, 0, 59, 49
4, 57480, Note_on_c, 0, 59, 0
4, 57480, Note_on_c, 0, 57, 49
4, 57600, Note_on_c, 0, 57, 0
4, 57720, Note_on_c, 0, 55, 62
4, 57720, Note_on_c, 0, 59, 62
4, 57840, Note_on_c, 0, 59, 0
4, 57840, Note_on_c, 0, 55, 0
4, 57840, Note_on_c, 0, 55, 62
4, 57840, Note_on_c, 0, 59, 62
4, 57960, Note_on_c, 0, 59, 0
4, 57960, Note_on_c, 0, 55, 0
4, 57960, Note_on_c, 0, 52, 62
4, 57960, Note_on_c, 0, 55, 62
4, 58080, Note_on_c, 0, 55, 0
4, 58080, Note_on_c, 0, 52, 0
4, 58200, Note_on_c, 0, 55, 62
4, 58200, Note_on_c, 0, 59, 62
4, 58320, Note_on_c, 0, 59, 0
4, 58320, Note_on_c, 0, 55, 0
4, 58320, Note_on_c, 0, 55, 62
4, 58320, Note_on_c, 0, 59, 62
4, 58440, Note_on_c, 0, 59, 0
4, 58440, Note_on_c, 0, 55, 0
4, 58440, Note_on_c, 0, 52, 62
4, 58440, Note_on_c, 0, 55, 62
4, 58560, Note_on_c, 0, 55, 0
4, 58560, Note_on_c, 0, 52, 0
4, 58680, Note_on_c, 0, 55, 62
4, 58680, Note_on_c, 0, 59, 62
4, 58800, Note_on_c, 0, 59, 0
4, 58800, Note_on_c, 0, 55, 0
4, 58800, Note_on_c, 0, 55, 62
4, 58800, Note_on_c, 0, 59, 62
4, 58920, Note_on_c, 0, 59, 0
4, 58920, Note_on_c, 0, 55, 0
4, 58920, Note_on_c, 0, 52, 62
4, 58920, Note_on_c, 0, 55, 62
4, 59040, Note_on_c, 0, 55, 0
4, 59040, Note_on_c, 0, 52, 0
4, 59160, Note_on_c, 0, 55, 62
4, 59160, Note_on_c, 0, 59, 62
4, 59280, Note_on_c, 0, 59, 0
4, 59280, Note_on_c, 0, 55, 0
4, 59280, Note_on_c, 0, 55, 62
4, 59280, Note_on_c, 0, 59, 62
4, 59400, Note_on_c, 0, 59, 0
4, 59400, Note_on_c, 0, 55, 0
4, 59400, Note_on_c, 0, 52, 62
4, 59400, Note_on_c, 0, 55, 62
4, 59520, Note_on_c, 0, 55, 0
4, 59520, Note_on_c, 0, 52, 0
4, 59520, Note_on_c, 0, 64, 62
4, 59679, Note_on_c, 0, 64, 0
4, 59679, Note_on_c, 0, 63, 62
4, 59840, Note_on_c, 0, 63, 0
4, 59840, Note_on_c, 0, 61, 62
4, 60000, Note_on_c, 0, 61, 0
4, 60000, Note_on_c, 0, 59, 62
4, 60120, Note_on_c, 0, 59, 0
4, 60120, Note_on_c, 0, 57, 62
4, 60120, Note_on_c, 0, 59, 62
4, 60240, Note_on_c, 0, 59, 0
4, 60240, Note_on_c, 0, 57, 0
4, 60240, Note_on_c, 0, 57, 62
4, 60240, Note_on_c, 0, 59, 62
4, 60360, Note_on_c, 0, 59, 0
4, 60360, Note_on_c, 0, 57, 0
4, 60360, Note_on_c, 0, 54, 62
4, 60360, Note_on_c, 0, 57, 62
4, 60480, Note_on_c, 0, 57, 0
4, 60480, Note_on_c, 0, 54, 0
4, 60600, Note_on_c, 0, 59, 62
4, 60600, Note_on_c, 0, 63, 62
4, 60720, Note_on_c, 0, 63, 0
4, 60720, Note_on_c, 0, 59, 0
4, 60720, Note_on_c, 0, 59, 62
4, 60720, Note_on_c, 0, 63, 62
4, 60840, Note_on_c, 0, 63, 0
4, 60840, Note_on_c, 0, 59, 0
4, 60840, Note_on_c, 0, 57, 62
4, 60840, Note_on_c, 0, 59, 62
4, 60960, Note_on_c, 0, 59, 0
4, 60960, Note_on_c, 0, 57, 0
4, 61080, Note_on_c, 0, 63, 62
4, 61080, Note_on_c, 0, 66, 62
4, 61200, Note_on_c, 0, 66, 0
4, 61200, Note_on_c, 0, 63, 0
4, 61200, Note_on_c, 0, 63, 62
4, 61200, Note_on_c, 0, 66, 62
4, 61320, Note_on_c, 0, 66, 0
4, 61320, Note_on_c, 0, 63, 0
4, 61320, Note_on_c, 0, 59, 62
4, 61320, Note_on_c, 0, 63, 62
4, 61440, Note_on_c, 0, 63, 0
4, 61440, Note_on_c, 0, 59, 0
4, 61560, Note_on_c, 0, 64, 62
4, 61560, Note_on_c, 0, 67, 62
4, 61680, Note_on_c, 0, 67, 0
4, 61680, Note_on_c, 0, 64, 0
4, 61680, Note_on_c, 0, 64, 62
4, 61680, Note_on_c, 0, 67, 62
4, 61800, Note_on_c, 0, 67, 0
4, 61800, Note_on_c, 0, 64, 0
4, 61800, Note_on_c, 0, 55, 62
4, 61800, Note_on_c, 0, 64, 62
4, 61920, Note_on_c, 0, 64, 0
4, 61920, Note_on_c, 0, 55, 0
4, 62040, Note_on_c, 0, 64, 62
4, 62040, Note_on_c, 0, 67, 62
4, 62160, Note_on_c, 0, 67, 0
4, 62160, Note_on_c, 0, 64, 0
4, 62160, Note_on_c, 0, 64, 62
4, 62160, Note_on_c, 0, 67, 62
4, 62280, Note_on_c, 0, 67, 0
4, 62280, Note_on_c, 0, 64, 0
4, 62280, Note_on_c, 0, 55, 62
4, 62280, Note_on_c, 0, 64, 62
4, 62400, Note_on_c, 0, 64, 0
4, 62400, Note_on_c, 0, 55, 0
4, 62520, Note_on_c, 0, 60, 62
4, 62520, Note_on_c, 0, 69, 62
4, 62640, Note_on_c, 0, 69, 0
4, 62640, Note_on_c, 0, 60, 0
4, 62640, Note_on_c, 0, 60, 62
4, 62640, Note_on_c, 0, 69, 62
4, 62760, Note_on_c, 0, 69, 0
4, 62760, Note_on_c, 0, 60, 0
4, 62760, Note_on_c, 0, 62, 62
4, 62880, Note_on_c, 0, 62, 0
4, 63000, Note_on_c, 0, 60, 62
4, 63000, Note_on_c, 0, 62, 62
4, 63120, Note_on_c, 0, 62, 0
4, 63120, Note_on_c, 0, 60, 0
4, 63120, Note_on_c, 0, 60, 62
4, 63120, Note_on_c, 0, 62, 62
4, 63240, Note_on_c, 0, 62, 0
4, 63240, Note_on_c, 0, 60, 0
4, 63240, Note_on_c, 0, 57, 62
4, 63360, Note_on_c, 0, 57, 0
4, 63480, Note_on_c, 0, 59, 62
4, 63480, Note_on_c, 0, 67, 62
4, 63600, Note_on_c, 0, 67, 0
4, 63600, Note_on_c, 0, 59, 0
4, 63600, Note_on_c, 0, 59, 62
4, 63600, Note_on_c, 0, 67, 62
4, 63720, Note_on_c, 0, 67, 0
4, 63720, Note_on_c, 0, 59, 0
4, 63720, Note_on_c, 0, 62, 62
4, 63840, Note_on_c, 0, 62, 0
4, 63960, Note_on_c, 0, 59, 62
4, 63960, Note_on_c, 0, 67, 62
4, 64080, Note_on_c, 0, 67, 0
4, 64080, Note_on_c, 0, 59, 0
4, 64080, Note_on_c, 0, 59, 62
4, 64080, Note_on_c, 0, 67, 62
4, 64200, Note_on_c, 0, 67, 0
4, 64200, Note_on_c, 0, 59, 0
4, 64200, Note_on_c, 0, 62, 62
4, 64320, Note_on_c, 0, 62, 0
4, 64320, Note_on_c, 0, 48, 62
4, 64320, Note_on_c, 0, 57, 62
4, 64320, Note_on_c, 0, 64, 62
4, 65280, Note_on_c, 0, 64, 0
4, 65280, Note_on_c, 0, 57, 0
4, 65280, Note_on_c, 0, 48, 0
4, 65280, Note_on_c, 0, 47, 62
4, 65280, Note_on_c, 0, 55, 62
4, 65280, Note_on_c, 0, 64, 62
4, 66240, Note_on_c, 0, 64, 0
4, 66240, Note_on_c, 0, 55, 0
4, 66240, Note_on_c, 0, 47, 0
4, 66240, Control_c, 0, 64, 127
4, 66240, Note_on_c, 0, 59, 62
4, 66480, Note_on_c, 0, 59, 0
4, 66480, Note_on_c, 0, 61, 62
4, 66720, Note_on_c, 0, 61, 0
4, 66720, Note_on_c, 0, 62, 62
4, 66960, Note_on_c, 0, 62, 0
4, 66960, Note_on_c, 0, 63, 62
4, 67200, Note_on_c, 0, 63, 0
4, 67200, Control_c, 0, 64, 0
4, 67200, Note_on_c, 0, 55, 62
4, 67200, Note_on_c, 0, 64, 62
4, 67320, Note_on_c, 0, 64, 0
4, 67320, Note_on_c, 0, 55, 0
4, 67320, Note_on_c, 0, 55, 62
4, 67440, Note_on_c, 0, 55, 0
4, 67440, Note_on_c, 0, 55, 62
4, 67560, Note_on_c, 0, 55, 0
4, 67560, Note_on_c, 0, 52, 62
4, 67680, Note_on_c, 0, 52, 0
4, 67800, Note_on_c, 0, 59, 62
4, 67920, Note_on_c, 0, 59, 0
4, 67920, Note_on_c, 0, 55, 62
4, 68040, Note_on_c, 0, 55, 0
4, 68040, Note_on_c, 0, 52, 62
4, 68160, Note_on_c, 0, 52, 0
4, 68160, Note_on_c, 0, 48, 62
4, 68160, Note_on_c, 0, 52, 62
4, 68160, Note_on_c, 0, 55, 62
4, 69120, Note_on_c, 0, 55, 0
4, 69120, Note_on_c, 0, 52, 0
4, 69120, Note_on_c, 0, 48, 0
4, 69120, Note_on_c, 0, 47, 62
4, 69120, Note_on_c, 0, 52, 62
4, 69120, Note_on_c, 0, 55, 62
4, 70080, Note_on_c, 0, 55, 0
4, 70080, Note_on_c, 0, 52, 0
4, 70080, Note_on_c, 0, 47, 0
4, 70080, Note_on_c, 0, 64, 62
4, 70560, Note_on_c, 0, 64, 0
4, 70560, Note_on_c, 0, 63, 62
4, 71040, Note_on_c, 0, 63, 0
4, 71160, Note_on_c, 0, 64, 49
4, 71280, Note_on_c, 0, 64, 0
4, 71280, Note_on_c, 0, 64, 49
4, 71400, Note_on_c, 0, 64, 0
4, 71400, Note_on_c, 0, 57, 49
4, 71520, Note_on_c, 0, 57, 0
4, 71640, Note_on_c, 0, 64, 49
4, 71760, Note_on_c, 0, 64, 0
4, 71760, Note_on_c, 0, 64, 49
4, 71880, Note_on_c, 0, 64, 0
4, 71880, Note_on_c, 0, 57, 49
4, 72000, Note_on_c, 0, 57, 0
4, 72120, Note_on_c, 0, 64, 49
4, 72240, Note_on_c, 0, 64, 0
4, 72240, Note_on_c, 0, 64, 49
4, 72360, Note_on_c, 0, 64, 0
4, 72360, Note_on_c, 0, 58, 49
4, 72480, Note_on_c, 0, 58, 0
4, 72600, Note_on_c, 0, 64, 49
4, 72720, Note_on_c, 0, 64, 0
4, 72720, Note_on_c, 0, 64, 49
4, 72840, Note_on_c, 0, 64, 0
4, 72840, Note_on_c, 0, 58, 49
4, 72960, Note_on_c, 0, 58, 0
4, 73080, Note_on_c, 0, 62, 49
4, 73200, Note_on_c, 0, 62, 0
4, 73200, Note_on_c, 0, 62, 49
4, 73320, Note_on_c, 0, 62, 0
4, 73320, Note_on_c, 0, 59, 49
4, 73440, Note_on_c, 0, 59, 0
4, 73560, Note_on_c, 0, 62, 49
4, 73680, Note_on_c, 0, 62, 0
4, 73680, Note_on_c, 0, 62, 49
4, 73800, Note_on_c, 0, 62, 0
4, 73800, Note_on_c, 0, 59, 49
4, 73920, Note_on_c, 0, 59, 0
4, 74040, Note_on_c, 0, 62, 49
4, 74160, Note_on_c, 0, 62, 0
4, 74160, Note_on_c, 0, 62, 49
4, 74280, Note_on_c, 0, 62, 0
4, 74280, Note_on_c, 0, 60, 49
4, 74400, Note_on_c, 0, 60, 0
4, 74520, Note_on_c, 0, 62, 49
4, 74640, Note_on_c, 0, 62, 0
4, 74640, Note_on_c, 0, 62, 49
4, 74760, Note_on_c, 0, 62, 0
4, 74760, Note_on_c, 0, 60, 49
4, 74880, Note_on_c, 0, 60, 0
4, 75000, Note_on_c, 0, 67, 49
4, 75120, Note_on_c, 0, 67, 0
4, 75120, Note_on_c, 0, 67, 49
4, 75240, Note_on_c, 0, 67, 0
4, 75240, Note_on_c, 0, 61, 49
4, 75360, Note_on_c, 0, 61, 0
4, 75480, Note_on_c, 0, 67, 49
4, 75600, Note_on_c, 0, 67, 0
4, 75600, Note_on_c, 0, 67, 49
4, 75720, Note_on_c, 0, 67, 0
4, 75720, Note_on_c, 0, 61, 49
4, 75840, Note_on_c, 0, 61, 0
4, 75960, Note_on_c, 0, 67, 49
4, 76080, Note_on_c, 0, 67, 0
4, 76080, Note_on_c, 0, 67, 49
4, 76200, Note_on_c, 0, 67, 0
4, 76200, Note_on_c, 0, 61, 49
4, 76320, Note_on_c, 0, 61, 0
4, 76440, Note_on_c, 0, 67, 49
4, 76560, Note_on_c, 0, 67, 0
4, 76560, Note_on_c, 0, 67, 49
4, 76680, Note_on_c, 0, 67, 0
4, 76680, Note_on_c, 0, 61, 49
4, 76800, Note_on_c, 0, 61, 0
4, 76920, Note_on_c, 0, 69, 49
4, 77040, Note_on_c, 0, 69, 0
4, 77040, Note_on_c, 0, 69, 49
4, 77160, Note_on_c, 0, 69, 0
4, 77160, Note_on_c, 0, 62, 49
4, 77280, Note_on_c, 0, 62, 0
4, 77400, Note_on_c, 0, 69, 49
4, 77520, Note_on_c, 0, 69, 0
4, 77520, Note_on_c, 0, 69, 49
4, 77640, Note_on_c, 0, 69, 0
4, 77640, Note_on_c, 0, 62, 49
4, 77760, Note_on_c, 0, 62, 0
4, 77880, Note_on_c, 0, 69, 49
4, 78000, Note_on_c, 0, 69, 0
4, 78000, Note_on_c, 0, 69, 49
4, 78120, Note_on_c, 0, 69, 0
4, 78120, Note_on_c, 0, 62, 49
4, 78240, Note_on_c, 0, 62, 0
4, 78360, Note_on_c, 0, 69, 49
4, 78480, Note_on_c, 0, 69, 0
4, 78480, Note_on_c, 0, 69, 49
4, 78600, Note_on_c, 0, 69, 0
4, 78600, Note_on_c, 0, 62, 49
4, 78720, Note_on_c, 0, 62, 0
4, 78840, Note_on_c, 0, 67, 49
4, 78960, Note_on_c, 0, 67, 0
4, 78960, Note_on_c, 0, 67, 49
4, 79080, Note_on_c, 0, 67, 0
4, 79080, Note_on_c, 0, 62, 49
4, 79200, Note_on_c, 0, 62, 0
4, 79320, Note_on_c, 0, 67, 49
4, 79440, Note_on_c, 0, 67, 0
4, 79440, Note_on_c, 0, 67, 49
4, 79560, Note_on_c, 0, 67, 0
4, 79560, Note_on_c, 0, 62, 49
4, 79680, Note_on_c, 0, 62, 0
4, 79800, Note_on_c, 0, 67, 49
4, 79920, Note_on_c, 0, 67, 0
4, 79920, Note_on_c, 0, 67, 49
4, 80040, Note_on_c, 0, 67, 0
4, 80040, Note_on_c, 0, 62, 49
4, 80160, Note_on_c, 0, 62, 0
4, 80280, Note_on_c, 0, 67, 49
4, 80400, Note_on_c, 0, 67, 0
4, 80400, Note_on_c, 0, 67, 49
4, 80520, Note_on_c, 0, 67, 0
4, 80520, Note_on_c, 0, 62, 49
4, 80640, Note_on_c, 0, 62, 0
4, 80760, Note_on_c, 0, 69, 49
4, 80880, Note_on_c, 0, 69, 0
4, 80880, Note_on_c, 0, 69, 49
4, 81000, Note_on_c, 0, 69, 0
4, 81000, Note_on_c, 0, 62, 49
4, 81120, Note_on_c, 0, 62, 0
4, 81240, Note_on_c, 0, 69, 49
4, 81360, Note_on_c, 0, 69, 0
4, 81360, Note_on_c, 0, 69, 49
4, 81480, Note_on_c, 0, 69, 0
4, 81480, Note_on_c, 0, 62, 49
4, 81600, Note_on_c, 0, 62, 0
4, 81720, Note_on_c, 0, 60, 49
4, 81840, Note_on_c, 0, 60, 0
4, 81840, Note_on_c, 0, 60, 49
4, 81960, Note_on_c, 0, 60, 0
4, 81960, Note_on_c, 0, 57, 49
4, 82080, Note_on_c, 0, 57, 0
4, 82200, Note_on_c, 0, 60, 49
4, 82320, Note_on_c, 0, 60, 0
4, 82320, Note_on_c, 0, 60, 49
4, 82440, Note_on_c, 0, 60, 0
4, 82440, Note_on_c, 0, 57, 49
4, 82560, Note_on_c, 0, 57, 0
4, 82560, Control_c, 0, 64, 127
4, 82560, Note_on_c, 0, 50, 62
4, 82560, Note_on_c, 0, 52, 62
4, 82560, Note_on_c, 0, 55, 62
4, 82620, Note_on_c, 0, 55, 0
4, 82620, Note_on_c, 0, 52, 0
4, 82620, Note_on_c, 0, 50, 0
4, 82620, Note_on_c, 0, 58, 62
4, 82680, Note_on_c, 0, 58, 0
4, 82680, Note_on_c, 0, 50, 62
4, 82680, Note_on_c, 0, 52, 62
4, 82680, Note_on_c, 0, 55, 62
4, 82740, Note_on_c, 0, 55, 0
4, 82740, Note_on_c, 0, 52, 0
4, 82740, Note_on_c, 0, 50, 0
4, 82740, Note_on_c, 0, 58, 62
4, 82800, Note_on_c, 0, 58, 0
4, 82800, Note_on_c, 0, 50, 62
4, 82800, Note_on_c, 0, 52, 62
4, 82800, Note_on_c, 0, 55, 62
4, 82860, Note_on_c, 0, 55, 0
4, 82860, Note_on_c, 0, 52, 0
4, 82860, Note_on_c, 0, 50, 0
4, 82860, Note_on_c, 0, 58, 62
4, 82920, Note_on_c, 0, 58, 0
4, 82920, Note_on_c, 0, 50, 62
4, 82920, Note_on_c, 0, 52, 62
4, 82920, Note_on_c, 0, 55, 62
4, 82980, Note_on_c, 0, 55, 0
4, 82980, Note_on_c, 0, 52, 0
4, 82980, Note_on_c, 0, 50, 0
4, 82980, Note_on_c, 0, 58, 62
4, 83040, Note_on_c, 0, 58, 0
4, 83040, Note_on_c, 0, 50, 62
4, 83040, Note_on_c, 0, 52, 62
4, 83040, Note_on_c, 0, 55, 62
4, 83100, Note_on_c, 0, 55, 0
4, 83100, Note_on_c, 0, 52, 0
4, 83100, Note_on_c, 0, 50, 0
4, 83100, Note_on_c, 0, 58, 62
4, 83160, Note_on_c, 0, 58, 0
4, 83160, Note_on_c, 0, 50, 62
4, 83160, Note_on_c, 0, 52, 62
4, 83160, Note_on_c, 0, 55, 62
4, 83220, Note_on_c, 0, 55, 0
4, 83220, Note_on_c, 0, 52, 0
4, 83220, Note_on_c, 0, 50, 0
4, 83220, Note_on_c, 0, 58, 62
4, 83280, Note_on_c, 0, 58, 0
4, 83280, Note_on_c, 0, 50, 62
4, 83280, Note_on_c, 0, 52, 62
4, 83280, Note_on_c, 0, 55, 62
4, 83340, Note_on_c, 0, 55, 0
4, 83340, Note_on_c, 0, 52, 0
4, 83340, Note_on_c, 0, 50, 0
4, 83340, Note_on_c, 0, 58, 62
4, 83400, Note_on_c, 0, 58, 0
4, 83400, Note_on_c, 0, 50, 62
4, 83400, Note_on_c, 0, 52, 62
4, 83400, Note_on_c, 0, 55, 62
4, 83460, Note_on_c, 0, 55, 0
4, 83460, Note_on_c, 0, 52, 0
4, 83460, Note_on_c, 0, 50, 0
4, 83460, Note_on_c, 0, 58, 62
4, 83520, Note_on_c, 0, 58, 0
4, 83520, Note_on_c, 0, 50, 62
4, 83520, Note_on_c, 0, 52, 62
4, 83520, Note_on_c, 0, 55, 62
4, 83580, Note_on_c, 0, 55, 0
4, 83580, Note_on_c, 0, 52, 0
4, 83580, Note_on_c, 0, 50, 0
4, 83580, Note_on_c, 0, 58, 62
4, 83640, Note_on_c, 0, 58, 0
4, 83640, Note_on_c, 0, 50, 62
4, 83640, Note_on_c, 0, 52, 62
4, 83640, Note_on_c, 0, 55, 62
4, 83700, Note_on_c, 0, 55, 0
4, 83700, Note_on_c, 0, 52, 0
4, 83700, Note_on_c, 0, 50, 0
4, 83700, Note_on_c, 0, 58, 62
4, 83760, Note_on_c, 0, 58, 0
4, 83760, Note_on_c, 0, 50, 62
4, 83760, Note_on_c, 0, 52, 62
4, 83760, Note_on_c, 0, 55, 62
4, 83820, Note_on_c, 0, 55, 0
4, 83820, Note_on_c, 0, 52, 0
4, 83820, Note_on_c, 0, 50, 0
4, 83820, Note_on_c, 0, 58, 62
4, 83880, Note_on_c, 0, 58, 0
4, 83880, Note_on_c, 0, 50, 62
4, 83880, Note_on_c, 0, 52, 62
4, 83880, Note_on_c, 0, 55, 62
4, 83940, Note_on_c, 0, 55, 0
4, 83940, Note_on_c, 0, 52, 0
4, 83940, Note_on_c, 0, 50, 0
4, 83940, Note_on_c, 0, 58, 62
4, 84000, Note_on_c, 0, 58, 0
4, 84000, Note_on_c, 0, 50, 62
4, 84000, Note_on_c, 0, 52, 62
4, 84000, Note_on_c, 0, 55, 62
4, 84060, Note_on_c, 0, 55, 0
4, 84060, Note_on_c, 0, 52, 0
4, 84060, Note_on_c, 0, 50, 0
4, 84060, Note_on_c, 0, 58, 62
4, 84120, Note_on_c, 0, 58, 0
4, 84120, Note_on_c, 0, 50, 62
4, 84120, Note_on_c, 0, 52, 62
4, 84120, Note_on_c, 0, 55, 62
4, 84180, Note_on_c, 0, 55, 0
4, 84180, Note_on_c, 0, 52, 0
4, 84180, Note_on_c, 0, 50, 0
4, 84180, Note_on_c, 0, 58, 62
4, 84240, Note_on_c, 0, 58, 0
4, 84240, Note_on_c, 0, 50, 62
4, 84240, Note_on_c, 0, 52, 62
4, 84240, Note_on_c, 0, 55, 62
4, 84300, Note_on_c, 0, 55, 0
4, 84300, Note_on_c, 0, 52, 0
4, 84300, Note_on_c, 0, 50, 0
4, 84300, Note_on_c, 0, 58, 62
4, 84360, Note_on_c, 0, 58, 0
4, 84360, Note_on_c, 0, 50, 62
4, 84360, Note_on_c, 0, 52, 62
4, 84360, Note_on_c, 0, 55, 62
4, 84420, Note_on_c, 0, 55, 0
4, 84420, Note_on_c, 0, 52, 0
4, 84420, Note_on_c, 0, 50, 0
4, 84420, Control_c, 0, 64, 0
4, 84420, Note_on_c, 0, 58, 62
4, 84480, Note_on_c, 0, 58, 0
4, 84480, Control_c, 0, 64, 127
4, 84480, Note_on_c, 0, 48, 62
4, 84480, Note_on_c, 0, 50, 62
4, 84480, Note_on_c, 0, 54, 62
4, 84540, Note_on_c, 0, 54, 0
4, 84540, Note_on_c, 0, 50, 0
4, 84540, Note_on_c, 0, 48, 0
4, 84540, Note_on_c, 0, 57, 62
4, 84600, Note_on_c, 0, 57, 0
4, 84600, Note_on_c, 0, 48, 62
4, 84600, Note_on_c, 0, 50, 62
4, 84600, Note_on_c, 0, 54, 62
4, 84660, Note_on_c, 0, 54, 0
4, 84660, Note_on_c, 0, 50, 0
4, 84660, Note_on_c, 0, 48, 0
4, 84660, Note_on_c, 0, 57, 62
4, 84720, Note_on_c, 0, 57, 0
4, 84720, Note_on_c, 0, 48, 62
4, 84720, Note_on_c, 0, 50, 62
4, 84720, Note_on_c, 0, 54, 62
4, 84780, Note_on_c, 0, 54, 0
4, 84780, Note_on_c, 0, 50, 0
4, 84780, Note_on_c, 0, 48, 0
4, 84780, Note_on_c, 0, 57, 62
4, 84840, Note_on_c, 0, 57, 0
4, 84840, Note_on_c, 0, 48, 62
4, 84840, Note_on_c, 0, 50, 62
4, 84840, Note_on_c, 0, 54, 62
4, 84900, Note_on_c, 0, 54, 0
4, 84900, Note_on_c, 0, 50, 0
4, 84900, Note_on_c, 0, 48, 0
4, 84900, Note_on_c, 0, 57, 62
4, 84960, Note_on_c, 0, 57, 0
4, 84960, Note_on_c, 0, 48, 62
4, 84960, Note_on_c, 0, 50, 62
4, 84960, Note_on_c, 0, 54, 62
4, 85020, Note_on_c, 0, 54, 0
4, 85020, Note_on_c, 0, 50, 0
4, 85020, Note_on_c, 0, 48, 0
4, 85020, Note_on_c, 0, 57, 62
4, 85080, Note_on_c, 0, 57, 0
4, 85080, Note_on_c, 0, 48, 62
4, 85080, Note_on_c, 0, 50, 62
4, 85080, Note_on_c, 0, 54, 62
4, 85140, Note_on_c, 0, 54, 0
4, 85140, Note_on_c, 0, 50, 0
4, 85140, Note_on_c, 0, 48, 0
4, 85140, Note_on_c, 0, 57, 62
4, 85200, Note_on_c, 0, 57, 0
4, 85200, Note_on_c, 0, 48, 62
4, 85200, Note_on_c, 0, 50, 62
4, 85200, Note_on_c, 0, 54, 62
4, 85260, Note_on_c, 0, 54, 0
4, 85260, Note_on_c, 0, 50, 0
4, 85260, Note_on_c, 0, 48, 0
4, 85260, Note_on_c, 0, 57, 62
4, 85320, Note_on_c, 0, 57, 0
4, 85320, Note_on_c, 0, 48, 62
4, 85320, Note_on_c, 0, 50, 62
4, 85320, Note_on_c, 0, 54, 62
4, 85380, Note_on_c, 0, 54, 0
4, 85380, Note_on_c, 0, 50, 0
4, 85380, Note_on_c, 0, 48, 0
4, 85380, Note_on_c, 0, 57, 62
4, 85440, Note_on_c, 0, 57, 0
4, 85440, Note_on_c, 0, 48, 62
4, 85440, Note_on_c, 0, 50, 62
4, 85440, Note_on_c, 0, 54, 62
4, 85500, Note_on_c, 0, 54, 0
4, 85500, Note_on_c, 0, 50, 0
4, 85500, Note_on_c, 0, 48, 0
4, 85500, Note_on_c, 0, 57, 62
4, 85560, Note_on_c, 0, 57, 0
4, 85560, Note_on_c, 0, 48, 62
4, 85560, Note_on_c, 0, 50, 62
4, 85560, Note_on_c, 0, 54, 62
4, 85620, Note_on_c, 0, 54, 0
4, 85620, Note_on_c, 0, 50, 0
4, 85620, Note_on_c, 0, 48, 0
4, 85620, Note_on_c, 0, 57, 62
4, 85680, Note_on_c, 0, 57, 0
4, 85680, Note_on_c, 0, 48, 62
4, 85680, Note_on_c, 0, 50, 62
4, 85680, Note_on_c, 0, 54, 62
4, 85740, Note_on_c, 0, 54, 0
4, 85740, Note_on_c, 0, 50, 0
4, 85740, Note_on_c, 0, 48, 0
4, 85740, Note_on_c, 0, 57, 62
4, 85800, Note_on_c, 0, 57, 0
4, 85800, Note_on_c, 0, 48, 62
4, 85800, Note_on_c, 0, 50, 62
4, 85800, Note_on_c, 0, 54, 62
4, 85860, Note_on_c, 0, 54, 0
4, 85860, Note_on_c, 0, 50, 0
4, 85860, Note_on_c, 0, 48, 0
4, 85860, Note_on_c, 0, 57, 62
4, 85920, Note_on_c, 0, 57, 0
4, 85920, Note_on_c, 0, 48, 62
4, 85920, Note_on_c, 0, 50, 62
4, 85920, Note_on_c, 0, 54, 62
4, 85980, Note_on_c, 0, 54, 0
4, 85980, Note_on_c, 0, 50, 0
4, 85980, Note_on_c, 0, 48, 0
4, 85980, Note_on_c, 0, 57, 62
4, 86040, Note_on_c, 0, 57, 0
4, 86040, Note_on_c, 0, 48, 62
4, 86040, Note_on_c, 0, 50, 62
4, 86040, Note_on_c, 0, 54, 62
4, 86100, Note_on_c, 0, 54, 0
4, 86100, Note_on_c, 0, 50, 0
4, 86100, Note_on_c, 0, 48, 0
4, 86100, Note_on_c, 0, 57, 62
4, 86160, Note_on_c, 0, 57, 0
4, 86160, Note_on_c, 0, 48, 62
4, 86160, Note_on_c, 0, 50, 62
4, 86160, Note_on_c, 0, 54, 62
4, 86220, Note_on_c, 0, 54, 0
4, 86220, Note_on_c, 0, 50, 0
4, 86220, Note_on_c, 0, 48, 0
4, 86220, Note_on_c, 0, 57, 62
4, 86280, Note_on_c, 0, 57, 0
4, 86280, Note_on_c, 0, 48, 62
4, 86280, Note_on_c, 0, 50, 62
4, 86280, Note_on_c, 0, 54, 62
4, 86340, Note_on_c, 0, 54, 0
4, 86340, Note_on_c, 0, 50, 0
4, 86340, Note_on_c, 0, 48, 0
4, 86340, Control_c, 0, 64, 0
4, 86340, Note_on_c, 0, 57, 62
4, 86400, Note_on_c, 0, 57, 0
4, 86400, Control_c, 0, 64, 127
4, 86400, Note_on_c, 0, 47, 62
4, 86400, Note_on_c, 0, 51, 62
4, 86400, Note_on_c, 0, 54, 62
4, 86460, Note_on_c, 0, 54, 0
4, 86460, Note_on_c, 0, 51, 0
4, 86460, Note_on_c, 0, 47, 0
4, 86460, Note_on_c, 0, 57, 62
4, 86520, Note_on_c, 0, 57, 0
4, 86520, Note_on_c, 0, 47, 62
4, 86520, Note_on_c, 0, 51, 62
4, 86520, Note_on_c, 0, 54, 62
4, 86580, Note_on_c, 0, 54, 0
4, 86580, Note_on_c, 0, 51, 0
4, 86580, Note_on_c, 0, 47, 0
4, 86580, Note_on_c, 0, 57, 62
4, 86640, Note_on_c, 0, 57, 0
4, 86640, Note_on_c, 0, 47, 62
4, 86640, Note_on_c, 0, 51, 62
4, 86640, Note_on_c, 0, 54, 62
4, 86700, Note_on_c, 0, 54, 0
4, 86700, Note_on_c, 0, 51, 0
4, 86700, Note_on_c, 0, 47, 0
4, 86700, Note_on_c, 0, 57, 62
4, 86760, Note_on_c, 0, 57, 0
4, 86760, Note_on_c, 0, 47, 62
4, 86760, Note_on_c, 0, 51, 62
4, 86760, Note_on_c, 0, 54, 62
4, 86820, Note_on_c, 0, 54, 0
4, 86820, Note_on_c, 0, 51, 0
4, 86820, Note_on_c, 0, 47, 0
4, 86820, Note_on_c, 0, 57, 62
4, 86880, Note_on_c, 0, 57, 0
4, 86880, Note_on_c, 0, 47, 62
4, 86880, Note_on_c, 0, 51, 62
4, 86880, Note_on_c, 0, 54, 62
4, 86940, Note_on_c, 0, 54, 0
4, 86940, Note_on_c, 0, 51, 0
4, 86940, Note_on_c, 0, 47, 0
4, 86940, Note_on_c, 0, 57, 62
4, 87000, Note_on_c, 0, 57, 0
4, 87000, Note_on_c, 0, 47, 62
4, 87000, Note_on_c, 0, 51, 62
4, 87000, Note_on_c, 0, 54, 62
4, 87060, Note_on_c, 0, 54, 0
4, 87060, Note_on_c, 0, 51, 0
4, 87060, Note_on_c, 0, 47, 0
4, 87060, Note_on_c, 0, 57, 62
4, 87120, Note_on_c, 0, 57, 0
4, 87120, Note_on_c, 0, 47, 62
4, 87120, Note_on_c, 0, 51, 62
4, 87120, Note_on_c, 0, 54, 62
4, 87180, Note_on_c, 0, 54, 0
4, 87180, Note_on_c, 0, 51, 0
4, 87180, Note_on_c, 0, 47, 0
4, 87180, Note_on_c, 0, 57, 62
4, 87240, Note_on_c, 0, 57, 0
4, 87240, Note_on_c, 0, 47, 62
4, 87240, Note_on_c, 0, 51, 62
4, 87240, Note_on_c, 0, 54, 62
4, 87300, Note_on_c, 0, 54, 0
4, 87300, Note_on_c, 0, 51, 0
4, 87300, Note_on_c, 0, 47, 0
4, 87300, Note_on_c, 0, 57, 62
4, 87360, Note_on_c, 0, 57, 0
4, 87360, Note_on_c, 0, 47, 62
4, 87360, Note_on_c, 0, 51, 62
4, 87360, Note_on_c, 0, 54, 62
4, 87420, Note_on_c, 0, 54, 0
4, 87420, Note_on_c, 0, 51, 0
4, 87420, Note_on_c, 0, 47, 0
4, 87420, Note_on_c, 0, 57, 62
4, 87480, Note_on_c, 0, 57, 0
4, 87480, Note_on_c, 0, 47, 62
4, 87480, Note_on_c, 0, 51, 62
4, 87480, Note_on_c, 0, 54, 62
4, 87540, Note_on_c, 0, 54, 0
4, 87540, Note_on_c, 0, 51, 0
4, 87540, Note_on_c, 0, 47, 0
4, 87540, Note_on_c, 0, 57, 62
4, 87600, Note_on_c, 0, 57, 0
4, 87600, Note_on_c, 0, 47, 62
4, 87600, Note_on_c, 0, 51, 62
4, 87600, Note_on_c, 0, 54, 62
4, 87660, Note_on_c, 0, 54, 0
4, 87660, Note_on_c, 0, 51, 0
4, 87660, Note_on_c, 0, 47, 0
4, 87660, Note_on_c, 0, 57, 62
4, 87720, Note_on_c, 0, 57, 0
4, 87720, Note_on_c, 0, 47, 62
4, 87720, Note_on_c, 0, 51, 62
4, 87720, Note_on_c, 0, 54, 62
4, 87780, Note_on_c, 0, 54, 0
4, 87780, Note_on_c, 0, 51, 0
4, 87780, Note_on_c, 0, 47, 0
4, 87780, Note_on_c, 0, 57, 62
4, 87840, Note_on_c, 0, 57, 0
4, 87840, Note_on_c, 0, 47, 62
4, 87840, Note_on_c, 0, 51, 62
4, 87840, Note_on_c, 0, 54, 62
4, 87900, Note_on_c, 0, 54, 0
4, 87900, Note_on_c, 0, 51, 0
4, 87900, Note_on_c, 0, 47, 0
4, 87900, Note_on_c, 0, 57, 62
4, 87960, Note_on_c, 0, 57, 0
4, 87960, Note_on_c, 0, 47, 62
4, 87960, Note_on_c, 0, 51, 62
4, 87960, Note_on_c, 0, 54, 62
4, 88020, Note_on_c, 0, 54, 0
4, 88020, Note_on_c, 0, 51, 0
4, 88020, Note_on_c, 0, 47, 0
4, 88020, Note_on_c, 0, 57, 62
4, 88080, Note_on_c, 0, 57, 0
4, 88080, Note_on_c, 0, 47, 62
4, 88080, Note_on_c, 0, 51, 62
4, 88080, Note_on_c, 0, 54, 62
4, 88140, Note_on_c, 0, 54, 0
4, 88140, Note_on_c, 0, 51, 0
4, 88140, Note_on_c, 0, 47, 0
4, 88140, Note_on_c, 0, 57, 62
4, 88200, Note_on_c, 0, 57, 0
4, 88200, Note_on_c, 0, 47, 62
4, 88200, Note_on_c, 0, 51, 62
4, 88200, Note_on_c, 0, 54, 62
4, 88260, Note_on_c, 0, 54, 0
4, 88260, Note_on_c, 0, 51, 0
4, 88260, Note_on_c, 0, 47, 0
4, 88260, Control_c, 0, 64, 0
4, 88260, Note_on_c, 0, 57, 62
4, 88320, Note_on_c, 0, 57, 0
4, 88320, Control_c, 0, 64, 127
4, 88320, Note_on_c, 0, 46, 62
4, 88320, Note_on_c, 0, 48, 62
4, 88320, Note_on_c, 0, 52, 62
4, 88380, Note_on_c, 0, 52, 0
4, 88380, Note_on_c, 0, 48, 0
4, 88380, Note_on_c, 0, 46, 0
4, 88380, Note_on_c, 0, 55, 62
4, 88440, Note_on_c, 0, 55, 0
4, 88440, Note_on_c, 0, 46, 62
4, 88440, Note_on_c, 0, 48, 62
4, 88440, Note_on_c, 0, 52, 62
4, 88500, Note_on_c, 0, 52, 0
4, 88500, Note_on_c, 0, 48, 0
4, 88500, Note_on_c, 0, 46, 0
4, 88500, Note_on_c, 0, 55, 62
4, 88560, Note_on_c, 0, 55, 0
4, 88560, Note_on_c, 0, 46, 62
4, 88560, Note_on_c, 0, 48, 62
4, 88560, Note_on_c, 0, 52, 62
4, 88620, Note_on_c, 0, 52, 0
4, 88620, Note_on_c, 0, 48, 0
4, 88620, Note_on_c, 0, 46, 0
4, 88620, Note_on_c, 0, 55, 62
4, 88680, Note_on_c, 0, 55, 0
4, 88680, Note_on_c, 0, 46, 62
4, 88680, Note_on_c, 0, 48, 62
4, 88680, Note_on_c, 0, 52, 62
4, 88740, Note_on_c, 0, 52, 0
4, 88740, Note_on_c, 0, 48, 0
4, 88740, Note_on_c, 0, 46, 0
4, 88740, Note_on_c, 0, 55, 62
4, 88800, Note_on_c, 0, 55, 0
4, 88800, Note_on_c, 0, 46, 62
4, 88800, Note_on_c, 0, 48, 62
4, 88800, Note_on_c, 0, 52, 62
4, 88860, Note_on_c, 0, 52, 0
4, 88860, Note_on_c, 0, 48, 0
4, 88860, Note_on_c, 0, 46, 0
4, 88860, Note_on_c, 0, 55, 62
4, 88920, Note_on_c, 0, 55, 0
4, 88920, Note_on_c, 0, 46, 62
4, 88920, Note_on_c, 0, 48, 62
4, 88920, Note_on_c, 0, 52, 62
4, 88980, Note_on_c, 0, 52, 0
4, 88980, Note_on_c, 0, 48, 0
4, 88980, Note_on_c, 0, 46, 0
4, 88980, Note_on_c, 0, 55, 62
4, 89040, Note_on_c, 0, 55, 0
4, 89040, Note_on_c, 0, 46, 62
4, 89040, Note_on_c, 0, 48, 62
4, 89040, Note_on_c, 0, 52, 62
4, 89100, Note_on_c, 0, 52, 0
4, 89100, Note_on_c, 0, 48, 0
4, 89100, Note_on_c, 0, 46, 0
4, 89100, Note_on_c, 0, 55, 62
4, 89160, Note_on_c, 0, 55, 0
4, 89160, Note_on_c, 0, 46, 62
4, 89160, Note_on_c, 0, 48, 62
4, 89160, Note_on_c, 0, 52, 62
4, 89220, Note_on_c, 0, 52, 0
4, 89220, Note_on_c, 0, 48, 0
4, 89220, Note_on_c, 0, 46, 0
4, 89220, Note_on_c, 0, 55, 62
4, 89280, Note_on_c, 0, 55, 0
4, 89280, Note_on_c, 0, 46, 62
4, 89280, Note_on_c, 0, 48, 62
4, 89280, Note_on_c, 0, 52, 62
4, 89340, Note_on_c, 0, 52, 0
4, 89340, Note_on_c, 0, 48, 0
4, 89340, Note_on_c, 0, 46, 0
4, 89340, Note_on_c, 0, 55, 62
4, 89400, Note_on_c, 0, 55, 0
4, 89400, Note_on_c, 0, 46, 62
4, 89400, Note_on_c, 0, 48, 62
4, 89400, Note_on_c, 0, 52, 62
4, 89460, Note_on_c, 0, 52, 0
4, 89460, Note_on_c, 0, 48, 0
4, 89460, Note_on_c, 0, 46, 0
4, 89460, Note_on_c, 0, 55, 62
4, 89520, Note_on_c, 0, 55, 0
4, 89520, Note_on_c, 0, 46, 62
4, 89520, Note_on_c, 0, 48, 62
4, 89520, Note_on_c, 0, 52, 62
4, 89580, Note_on_c, 0, 52, 0
4, 89580, Note_on_c, 0, 48, 0
4, 89580, Note_on_c, 0, 46, 0
4, 89580, Note_on_c, 0, 55, 62
4, 89640, Note_on_c, 0, 55, 0
4, 89640, Note_on_c, 0, 46, 62
4, 89640, Note_on_c, 0, 48, 62
4, 89640, Note_on_c, 0, 52, 62
4, 89700, Note_on_c, 0, 52, 0
4, 89700, Note_on_c, 0, 48, 0
4, 89700, Note_on_c, 0, 46, 0
4, 89700, Note_on_c, 0, 55, 62
4, 89760, Note_on_c, 0, 55, 0
4, 89760, Note_on_c, 0, 46, 62
4, 89760, Note_on_c, 0, 48, 62
4, 89760, Note_on_c, 0, 52, 62
4, 89820, Note_on_c, 0, 52, 0
4, 89820, Note_on_c, 0, 48, 0
4, 89820, Note_on_c, 0, 46, 0
4, 89820, Note_on_c, 0, 55, 62
4, 89880, Note_on_c, 0, 55, 0
4, 89880, Note_on_c, 0, 46, 62
4, 89880, Note_on_c, 0, 48, 62
4, 89880, Note_on_c, 0, 52, 62
4, 89940, Note_on_c, 0, 52, 0
4, 89940, Note_on_c, 0, 48, 0
4, 89940, Note_on_c, 0, 46, 0
4, 89940, Note_on_c, 0, 55, 62
4, 90000, Note_on_c, 0, 55, 0
4, 90000, Note_on_c, 0, 46, 62
4, 90000, Note_on_c, 0, 48, 62
4, 90000, Note_on_c, 0, 52, 62
4, 90060, Note_on_c, 0, 52, 0
4, 90060, Note_on_c, 0, 48, 0
4, 90060, Note_on_c, 0, 46, 0
4, 90060, Note_on_c, 0, 55, 62
4, 90120, Note_on_c, 0, 55, 0
4, 90120, Note_on_c, 0, 46, 62
4, 90120, Note_on_c, 0, 48, 62
4, 90120, Note_on_c, 0, 52, 62
4, 90180, Note_on_c, 0, 52, 0
4, 90180, Note_on_c, 0, 48, 0
4, 90180, Note_on_c, 0, 46, 0
4, 90180, Control_c, 0, 64, 0
4, 90180, Note_on_c, 0, 55, 62
4, 90240, Note_on_c, 0, 55, 0
4, 90240, Control_c, 0, 64, 127
4, 90240, Note_on_c, 0, 45, 49
4, 90240, Note_on_c, 0, 48, 49
4, 90240, Note_on_c, 0, 53, 49
4, 90300, Note_on_c, 0, 53, 0
4, 90300, Note_on_c, 0, 48, 0
4, 90300, Note_on_c, 0, 45, 0
4, 90300, Note_on_c, 0, 57, 49
4, 90360, Note_on_c, 0, 57, 0
4, 90360, Note_on_c, 0, 45, 49
4, 90360, Note_on_c, 0, 48, 49
4, 90360, Note_on_c, 0, 53, 49
4, 90420, Note_on_c, 0, 53, 0
4, 90420, Note_on_c, 0, 48, 0
4, 90420, Note_on_c, 0, 45, 0
4, 90420, Note_on_c, 0, 57, 49
4, 90480, Note_on_c, 0, 57, 0
4, 90480, Note_on_c, 0, 45, 49
4, 90480, Note_on_c, 0, 48, 49
4, 90480, Note_on_c, 0, 53, 49
4, 90540, Note_on_c, 0, 53, 0
4, 90540, Note_on_c, 0, 48, 0
4, 90540, Note_on_c, 0, 45, 0
4, 90540, Note_on_c, 0, 57, 49
4, 90600, Note_on_c, 0, 57, 0
4, 90600, Note_on_c, 0, 45, 49
4, 90600, Note_on_c, 0, 48, 49
4, 90600, Note_on_c, 0, 53, 49
4, 90660, Note_on_c, 0, 53, 0
4, 90660, Note_on_c, 0, 48, 0
4, 90660, Note_on_c, 0, 45, 0
4, 90660, Note_on_c, 0, 57, 49
4, 90720, Note_on_c, 0, 57, 0
4, 90720, Note_on_c, 0, 45, 49
4, 90720, Note_on_c, 0, 48, 49
4, 90720, Note_on_c, 0, 53, 49
4, 90780, Note_on_c, 0, 53, 0
4, 90780, Note_on_c, 0, 48, 0
4, 90780, Note_on_c, 0, 45, 0
4, 90780, Note_on_c, 0, 57, 49
4, 90840, Note_on_c, 0, 57, 0
4, 90840, Note_on_c, 0, 45, 49
4, 90840, Note_on_c, 0, 48, 49
4, 90840, Note_on_c, 0, 53, 49
4, 90900, Note_on_c, 0, 53, 0
4, 90900, Note_on_c, 0, 48, 0
4, 90900, Note_on_c, 0, 45, 0
4, 90900, Note_on_c, 0, 57, 49
4, 90960, Note_on_c, 0, 57, 0
4, 90960, Note_on_c, 0, 45, 49
4, 90960, Note_on_c, 0, 48, 49
4, 90960, Note_on_c, 0, 53, 49
4, 91020, Note_on_c, 0, 53, 0
4, 91020, Note_on_c, 0, 48, 0
4, 91020, Note_on_c, 0, 45, 0
4, 91020, Note_on_c, 0, 57, 49
4, 91080, Note_on_c, 0, 57, 0
4, 91080, Note_on_c, 0, 45, 49
4, 91080, Note_on_c, 0, 48, 49
4, 91080, Note_on_c, 0, 53, 49
4, 91140, Note_on_c, 0, 53, 0
4, 91140, Note_on_c, 0, 48, 0
4, 91140, Note_on_c, 0, 45, 0
4, 91140, Control_c, 0, 64, 0
4, 91140, Note_on_c, 0, 57, 49
4, 91200, Note_on_c, 0, 57, 0
4, 91200, Control_c, 0, 64, 127
4, 91200, Note_on_c, 0, 44, 49
4, 91200, Note_on_c, 0, 48, 49
4, 91200, Note_on_c, 0, 51, 49
4, 91260, Note_on_c, 0, 51, 0
4, 91260, Note_on_c, 0, 48, 0
4, 91260, Note_on_c, 0, 44, 0
4, 91260, Note_on_c, 0, 56, 49
4, 91320, Note_on_c, 0, 56, 0
4, 91320, Note_on_c, 0, 44, 49
4, 91320, Note_on_c, 0, 48, 49
4, 91320, Note_on_c, 0, 51, 49
4, 91380, Note_on_c, 0, 51, 0
4, 91380, Note_on_c, 0, 48, 0
4, 91380, Note_on_c, 0, 44, 0
4, 91380, Note_on_c, 0, 56, 49
4, 91440, Note_on_c, 0, 56, 0
4, 91440, Note_on_c, 0, 44, 49
4, 91440, Note_on_c, 0, 48, 49
4, 91440, Note_on_c, 0, 51, 49
4, 91500, Note_on_c, 0, 51, 0
4, 91500, Note_on_c, 0, 48, 0
4, 91500, Note_on_c, 0, 44, 0
4, 91500, Note_on_c, 0, 56, 49
4, 91560, Note_on_c, 0, 56, 0
4, 91560, Note_on_c, 0, 44, 49
4, 91560, Note_on_c, 0, 48, 49
4, 91560, Note_on_c, 0, 51, 49
4, 91620, Note_on_c, 0, 51, 0
4, 91620, Note_on_c, 0, 48, 0
4, 91620, Note_on_c, 0, 44, 0
4, 91620, Note_on_c, 0, 56, 49
4, 91680, Note_on_c, 0, 56, 0
4, 91680, Note_on_c, 0, 44, 49
4, 91680, Note_on_c, 0, 48, 49
4, 91680, Note_on_c, 0, 51, 49
4, 91740, Note_on_c, 0, 51, 0
4, 91740, Note_on_c, 0, 48, 0
4, 91740, Note_on_c, 0, 44, 0
4, 91740, Note_on_c, 0, 56, 49
4, 91800, Note_on_c, 0, 56, 0
4, 91800, Note_on_c, 0, 44, 49
4, 91800, Note_on_c, 0, 48, 49
4, 91800, Note_on_c, 0, 51, 49
4, 91860, Note_on_c, 0, 51, 0
4, 91860, Note_on_c, 0, 48, 0
4, 91860, Note_on_c, 0, 44, 0
4, 91860, Note_on_c, 0, 56, 49
4, 91920, Note_on_c, 0, 56, 0
4, 91920, Note_on_c, 0, 44, 49
4, 91920, Note_on_c, 0, 48, 49
4, 91920, Note_on_c, 0, 51, 49
4, 91980, Note_on_c, 0, 51, 0
4, 91980, Note_on_c, 0, 48, 0
4, 91980, Note_on_c, 0, 44, 0
4, 91980, Note_on_c, 0, 56, 49
4, 92040, Note_on_c, 0, 56, 0
4, 92040, Note_on_c, 0, 44, 49
4, 92040, Note_on_c, 0, 48, 49
4, 92040, Note_on_c, 0, 51, 49
4, 92100, Note_on_c, 0, 51, 0
4, 92100, Note_on_c, 0, 48, 0
4, 92100, Note_on_c, 0, 44, 0
4, 92100, Control_c, 0, 64, 0
4, 92100, Note_on_c, 0, 56, 49
4, 92160, Note_on_c, 0, 56, 0
4, 92160, Note_on_c, 0, 43, 75
4, 92160, Note_on_c, 0, 48, 75
4, 92160, Note_on_c, 0, 51, 75
4, 92160, Note_on_c, 0, 55, 75
4, 92400, Note_on_c, 0, 55, 0
4, 92400, Note_on_c, 0, 43, 0
4, 92400, Note_on_c, 0, 48, 0
4, 92400, Note_on_c, 0, 51, 0
4, 99840, Note_on_c, 0, 60, 49
4, 99840, Note_on_c, 0, 64, 49
4, 100080, Note_on_c, 0, 64, 0
4, 100080, Note_on_c, 0, 60, 0
4, 100080, Note_on_c, 0, 55, 62
4, 100320, Note_on_c, 0, 55, 0
4, 100320, Note_on_c, 0, 57, 62
4, 100560, Note_on_c, 0, 57, 0
4, 100560, Note_on_c, 0, 60, 62
4, 100800, Note_on_c, 0, 64, 62
4, 101760, Note_on_c, 0, 64, 0
4, 101760, Note_on_c, 0, 60, 0
4, 101760, Note_on_c, 0, 64, 49
4, 102240, Note_on_c, 0, 64, 0
4, 102240, Note_on_c, 0, 62, 49
4, 102480, Note_on_c, 0, 62, 0
4, 102480, Note_on_c, 0, 64, 49
4, 102720, Note_on_c, 0, 64, 0
4, 102720, Note_on_c, 0, 62, 49
4, 102720, Note_on_c, 0, 65, 49
4, 103440, Note_on_c, 0, 65, 0
4, 103440, Note_on_c, 0, 62, 0
4, 103440, Note_on_c, 0, 65, 49
4, 103440, Note_on_c, 0, 67, 49
4, 103680, Note_on_c, 0, 67, 0
4, 103680, Note_on_c, 0, 65, 0
4, 103680, Note_on_c, 0, 64, 49
4, 103680, Note_on_c, 0, 67, 49
4, 104160, Note_on_c, 0, 67, 0
4, 104160, Note_on_c, 0, 64, 0
4, 104160, Note_on_c, 0, 60, 49
4, 104400, Note_on_c, 0, 60, 0
4, 104640, Note_on_c, 0, 62, 49
4, 104640, Note_on_c, 0, 65, 49
4, 105600, Note_on_c, 0, 65, 0
4, 105600, Note_on_c, 0, 62, 0
4, 105600, Note_on_c, 0, 64, 49
4, 106080, Note_on_c, 0, 64, 0
4, 106080, Note_on_c, 0, 62, 49
4, 106320, Note_on_c, 0, 62, 0
4, 106320, Note_on_c, 0, 64, 49
4, 106560, Note_on_c, 0, 64, 0
4, 106560, Note_on_c, 0, 60, 49
4, 106560, Note_on_c, 0, 62, 49
4, 106560, Note_on_c, 0, 65, 49
4, 106640, Note_on_c, 0, 65, 0
4, 106640, Note_on_c, 0, 62, 0
4, 106640, Note_on_c, 0, 60, 0
4, 106640, Note_on_c, 0, 57, 49
4, 106719, Note_on_c, 0, 57, 0
4, 106719, Note_on_c, 0, 62, 49
4, 106800, Note_on_c, 0, 62, 0
4, 106800, Note_on_c, 0, 60, 49
4, 106800, Note_on_c, 0, 62, 49
4, 106800, Note_on_c, 0, 65, 49
4, 107040, Note_on_c, 0, 65, 0
4, 107040, Note_on_c, 0, 62, 0
4, 107040, Note_on_c, 0, 60, 0
4, 116160, Note_on_c, 0, 55, 49
4, 116160, Note_on_c, 0, 59, 49
4, 116160, Note_on_c, 0, 62, 49
4, 116160, Note_on_c, 0, 67, 49
4, 117120, Note_on_c, 0, 67, 0
4, 117120, Note_on_c, 0, 55, 0
4, 117120, Note_on_c, 0, 59, 0
4, 117120, Note_on_c, 0, 62, 0
4, 117120, Note_on_c, 0, 59, 49
4, 117120, Note_on_c, 0, 62, 49
4, 117600, Note_on_c, 0, 62, 0
4, 117600, Note_on_c, 0, 59, 0
4, 117600, Note_on_c, 0, 58, 49
4, 117600, Note_on_c, 0, 61, 49
4, 117840, Note_on_c, 0, 61, 0
4, 117840, Note_on_c, 0, 58, 0
4, 117840, Note_on_c, 0, 59, 49
4, 117840, Note_on_c, 0, 62, 49
4, 118080, Note_on_c, 0, 62, 0
4, 118080, Note_on_c, 0, 59, 0
4, 118080, Note_on_c, 0, 64, 49
4, 119040, Note_on_c, 0, 64, 0
4, 119040, Note_on_c, 0, 55, 49
4, 119040, Note_on_c, 0, 59, 49
4, 119040, Note_on_c, 0, 65, 49
4, 119040, Note_on_c, 0, 67, 49
4, 120960, Note_on_c, 0, 67, 0
4, 120960, Note_on_c, 0, 55, 0
4, 120960, Note_on_c, 0, 59, 0
4, 120960, Note_on_c, 0, 65, 0
4, 120960, Note_on_c, 0, 59, 62
4, 120960, Note_on_c, 0, 65, 62
4, 121920, Note_on_c, 0, 65, 0
4, 121920, Note_on_c, 0, 59, 0
4, 121920, Note_on_c, 0, 60, 62
4, 121920, Note_on_c, 0, 64, 62
4, 122880, Note_on_c, 0, 64, 0
4, 122880, Note_on_c, 0, 60, 0
4, 122880, Note_on_c, 0, 55, 62
4, 122880, Note_on_c, 0, 59, 62
4, 122880, Note_on_c, 0, 65, 62
4, 124800, Note_on_c, 0, 65, 0
4, 124800, Note_on_c, 0, 59, 0
4, 124800, Note_on_c, 0, 55, 0
4, 126720, Control_c, 0, 64, 127
4, 126720, Note_on_c, 0, 55, 49
4, 126720, Note_on_c, 0, 59, 49
4, 126720, Note_on_c, 0, 65, 49
4, 127839, Note_on_c, 0, 65, 0
4, 127839, Note_on_c, 0, 59, 0
4, 127839, Note_on_c, 0, 55, 0
4, 127839, Note_on_c, 0, 55, 49
4, 127839, Note_on_c, 0, 59, 49
4, 127839, Note_on_c, 0, 65, 49
4, 128000, Note_on_c, 0, 65, 0
4, 128000, Note_on_c, 0, 59, 0
4, 128000, Note_on_c, 0, 55, 0
4, 128000, Note_on_c, 0, 55, 49
4, 128000, Note_on_c, 0, 59, 49
4, 128000, Note_on_c, 0, 65, 49
4, 128160, Note_on_c, 0, 65, 0
4, 128160, Note_on_c, 0, 59, 0
4, 128160, Note_on_c, 0, 55, 0
4, 128160, Note_on_c, 0, 55, 49
4, 128160, Note_on_c, 0, 59, 49
4, 128160, Note_on_c, 0, 65, 49
4, 128319, Note_on_c, 0, 65, 0
4, 128319, Note_on_c, 0, 59, 0
4, 128319, Note_on_c, 0, 55, 0
4, 128319, Note_on_c, 0, 55, 49
4, 128319, Note_on_c, 0, 59, 49
4, 128319, Note_on_c, 0, 65, 49
4, 128480, Note_on_c, 0, 65, 0
4, 128480, Note_on_c, 0, 59, 0
4, 128480, Note_on_c, 0, 55, 0
4, 128480, Control_c, 0, 64, 0
4, 128480, Note_on_c, 0, 55, 49
4, 128480, Note_on_c, 0, 59, 49
4, 128480, Note_on_c, 0, 65, 49
4, 128640, Note_on_c, 0, 65, 0
4, 128640, Note_on_c, 0, 59, 0
4, 128640, Note_on_c, 0, 55, 0
4, 128640, Note_on_c, 0, 55, 49
4, 128640, Note_on_c, 0, 60, 49
4, 128640, Note_on_c, 0, 64, 49
4, 129600, Note_on_c, 0, 64, 0
4, 129600, Note_on_c, 0, 60, 0
4, 129600, Note_on_c, 0, 55, 0
4, 129600, Note_on_c, 0, 55, 49
4, 129600, Note_on_c, 0, 58, 49
4, 129600, Note_on_c, 0, 61, 49
4, 129600, Note_on_c, 0, 64, 49
4, 130560, Note_on_c, 0, 64, 0
4, 130560, Note_on_c, 0, 55, 0
4, 130560, Note_on_c, 0, 58, 0
4, 130560, Note_on_c, 0, 61, 0
4, 130560, Note_on_c, 0, 53, 49
4, 130560, Note_on_c, 0, 57, 49
4, 130560, Note_on_c, 0, 62, 49
4, 131520, Note_on_c, 0, 62, 0
4, 131520, Note_on_c, 0, 57, 0
4, 131520, Note_on_c, 0, 53, 0
4, 131520, Note_on_c, 0, 53, 49
4, 131520, Note_on_c, 0, 55, 49
4, 131520, Note_on_c, 0, 62, 49
4, 132480, Note_on_c, 0, 62, 0
4, 132480, Note_on_c, 0, 55, 0
4, 132480, Note_on_c, 0, 53, 0
4, 132480, Note_on_c, 0, 52, 49
4, 132480, Note_on_c, 0, 55, 49
4, 132480, Note_on_c, 0, 60, 49
4, 133440, Note_on_c, 0, 60, 0
4, 133440, Note_on_c, 0, 55, 0
4, 133440, Note_on_c, 0, 52, 0
4, 133440, Note_on_c, 0, 52, 49
4, 133440, Note_on_c, 0, 55, 49
4, 133440, Note_on_c, 0, 58, 49
4, 133440, Note_on_c, 0, 61, 49
4, 134400, Note_on_c, 0, 61, 0
4, 134400, Note_on_c, 0, 52, 0
4, 134400, Note_on_c, 0, 55, 0
4, 134400, Note_on_c, 0, 58, 0
4, 134400, Note_on_c, 0, 53, 49
4, 134400, Note_on_c, 0, 57, 49
4, 135360, Note_on_c, 0, 57, 0
4, 135360, Note_on_c, 0, 53, 0
4, 135360, Note_on_c, 0, 50, 49
4, 135360, Note_on_c, 0, 53, 49
4, 135360, Note_on_c, 0, 55, 49
4, 136320, Note_on_c, 0, 55, 0
4, 136320, Note_on_c, 0, 53, 0
4, 136320, Note_on_c, 0, 50, 0
4, 136320, Note_on_c, 0, 52, 49
4, 136320, Note_on_c, 0, 55, 49
4, 137280, Note_on_c, 0, 55, 0
4, 137280, Note_on_c, 0, 52, 0
4, 137280, Note_on_c, 0, 52, 49
4, 137280, Note_on_c, 0, 55, 49
4, 138240, Note_on_c, 0, 55, 0
4, 138240, Note_on_c, 0, 52, 0
4, 138240, Note_on_c, 0, 50, 49
4, 138240, Note_on_c, 0, 53, 49
4, 139200, Note_on_c, 0, 53, 0
4, 139200, Note_on_c, 0, 50, 0
4, 139200, Note_on_c, 0, 47, 49
4, 139200, Note_on_c, 0, 50, 49
4, 139200, Note_on_c, 0, 53, 49
4, 140160, Note_on_c, 0, 53, 0
4, 140160, Note_on_c, 0, 50, 0
4, 140160, Note_on_c, 0, 47, 0
4, 140160, Note_on_c, 0, 48, 49
4, 140160, Note_on_c, 0, 52, 49
4, 141120, Note_on_c, 0, 52, 0
4, 141120, Note_on_c, 0, 48, 0
4, 141120, Note_on_c, 0, 52, 49
4, 141120, Note_on_c, 0, 55, 49
4, 142080, Note_on_c, 0, 55, 0
4, 142080, Note_on_c, 0, 52, 0
4, 142080, Note_on_c, 0, 50, 49
4, 142080, Note_on_c, 0, 53, 49
4, 143040, Note_on_c, 0, 53, 0
4, 143040, Note_on_c, 0, 50, 0
4, 143040, Note_on_c, 0, 51, 49
4, 143040, Note_on_c, 0, 54, 49
4, 144000, Note_on_c, 0, 54, 0
4, 144000, Note_on_c, 0, 51, 0
4, 144000, Note_on_c, 0, 52, 49
4, 144000, Note_on_c, 0, 55, 49
4, 144000, Note_on_c, 0, 60, 49
4, 144000, Note_on_c, 0, 64, 49
4, 148080, Note_on_c, 0, 64, 0
4, 148080, Note_on_c, 0, 52, 0
4, 148080, Note_on_c, 0, 55, 0
4, 148080, Note_on_c, 0, 60, 0
4, 148080, End_track
5, 0, Start_track
5, 0, Title_t, "Grand Piano"
5, 0, Program_c, 0, 0
5, 0, Control_c, 0, 7, 115
5, 0, Control_c, 0, 10, 48
5, 720, Note_on_c, 0, 60, 54
5, 3840, Note_on_c, 0, 60, 0
5, 3840, Note_on_c, 0, 60, 54
5, 7680, Note_on_c, 0, 60, 0
5, 9600, Note_on_c, 0, 60, 54
5, 10560, Note_on_c, 0, 60, 0
5, 10560, Note_on_c, 0, 57, 54
5, 10560, Note_on_c, 0, 62, 54
5, 11520, Note_on_c, 0, 62, 0
5, 11520, Note_on_c, 0, 57, 0
5, 17280, Note_on_c, 0, 55, 54
5, 18240, Note_on_c, 0, 55, 0
5, 18240, Note_on_c, 0, 60, 54
5, 18720, Note_on_c, 0, 60, 0
5, 18720, Note_on_c, 0, 58, 54
5, 19200, Note_on_c, 0, 58, 0
5, 48000, Note_on_c, 0, 47, 54
5, 48240, Note_on_c, 0, 47, 0
5, 48480, Note_on_c, 0, 57, 54
5, 48720, Note_on_c, 0, 57, 0
5, 48960, Note_on_c, 0, 47, 54
5, 49200, Note_on_c, 0, 47, 0
5, 49440, Note_on_c, 0, 57, 54
5, 49680, Note_on_c, 0, 57, 0
5, 49920, Note_on_c, 0, 47, 54
5, 49920, Note_on_c, 0, 55, 54
5, 50160, Note_on_c, 0, 55, 0
5, 50160, Note_on_c, 0, 47, 0
5, 50400, Note_on_c, 0, 55, 54
5, 50640, Note_on_c, 0, 55, 0
5, 50880, Note_on_c, 0, 47, 54
5, 50880, Note_on_c, 0, 55, 54
5, 51120, Note_on_c, 0, 55, 0
5, 51120, Note_on_c, 0, 47, 0
5, 51360, Note_on_c, 0, 55, 54
5, 51600, Note_on_c, 0, 55, 0
5, 51840, Note_on_c, 0, 47, 54
5, 51840, Note_on_c, 0, 57, 54
5, 52080, Note_on_c, 0, 57, 0
5, 52080, Note_on_c, 0, 47, 0
5, 52320, Note_on_c, 0, 54, 54
5, 52560, Note_on_c, 0, 54, 0
5, 52800, Note_on_c, 0, 47, 54
5, 52800, Note_on_c, 0, 57, 54
5, 53040, Note_on_c, 0, 57, 0
5, 53040, Note_on_c, 0, 47, 0
5, 53280, Note_on_c, 0, 54, 54
5, 53520, Note_on_c, 0, 54, 0
5, 53760, Note_on_c, 0, 47, 54
5, 53760, Note_on_c, 0, 55, 54
5, 54000, Note_on_c, 0, 55, 0
5, 54000, Note_on_c, 0, 47, 0
5, 54240, Note_on_c, 0, 52, 54
5, 54480, Note_on_c, 0, 52, 0
5, 54720, Note_on_c, 0, 47, 54
5, 54720, Note_on_c, 0, 55, 54
5, 54960, Note_on_c, 0, 55, 0
5, 54960, Note_on_c, 0, 47, 0
5, 55200, Note_on_c, 0, 52, 54
5, 55440, Note_on_c, 0, 52, 0
5, 55680, Note_on_c, 0, 59, 54
5, 55920, Note_on_c, 0, 59, 0
5, 56160, Note_on_c, 0, 54, 54
5, 56160, Note_on_c, 0, 57, 54
5, 56400, Note_on_c, 0, 57, 0
5, 56400, Note_on_c, 0, 54, 0
5, 56640, Note_on_c, 0, 51, 54
5, 56880, Note_on_c, 0, 51, 0
5, 57120, Note_on_c, 0, 47, 54
5, 57120, Note_on_c, 0, 54, 54
5, 57360, Note_on_c, 0, 54, 0
5, 57360, Note_on_c, 0, 47, 0
5, 57600, Note_on_c, 0, 40, 67
5, 57600, Note_on_c, 0, 52, 67
5, 57840, Note_on_c, 0, 52, 0
5, 57840, Note_on_c, 0, 40, 0
5, 58080, Note_on_c, 0, 47, 67
5, 58320, Note_on_c, 0, 47, 0
5, 58560, Note_on_c, 0, 40, 67
5, 58560, Note_on_c, 0, 52, 67
5, 58800, Note_on_c, 0, 52, 0
5, 58800, Note_on_c, 0, 40, 0
5, 59040, Note_on_c, 0, 47, 67
5, 59280, Note_on_c, 0, 47, 0
5, 59520, Note_on_c, 0, 54, 67
5, 59760, Note_on_c, 0, 54, 0
5, 60000, Note_on_c, 0, 47, 67
5, 60240, Note_on_c, 0, 47, 0
5, 60480, Note_on_c, 0, 54, 67
5, 60720, Note_on_c, 0, 54, 0
5, 60960, Note_on_c, 0, 47, 67
5, 61200, Note_on_c, 0, 47, 0
5, 61440, Note_on_c, 0, 52, 67
5, 61680, Note_on_c, 0, 52, 0
5, 61920, Note_on_c, 0, 40, 67
5, 62160, Note_on_c, 0, 40, 0
5, 62400, Note_on_c, 0, 42, 67
5, 62880, Note_on_c, 0, 42, 0
5, 62880, Note_on_c, 0, 54, 67
5, 63360, Note_on_c, 0, 54, 0
5, 63360, Note_on_c, 0, 55, 67
5, 63840, Note_on_c, 0, 55, 0
5, 63840, Note_on_c, 0, 43, 67
5, 64320, Note_on_c, 0, 43, 0
5, 66240, Note_on_c, 0, 47, 67
5, 66240, Note_on_c, 0, 57, 67
5, 67200, Note_on_c, 0, 57, 0
5, 67200, Note_on_c, 0, 47, 0
5, 67200, Note_on_c, 0, 52, 67
5, 67440, Note_on_c, 0, 52, 0
5, 70080, Note_on_c, 0, 47, 67
5, 70080, Note_on_c, 0, 54, 67
5, 70080, Note_on_c, 0, 57, 67
5, 71040, Note_on_c, 0, 57, 0
5, 71040, Note_on_c, 0, 54, 0
5, 71040, Note_on_c, 0, 47, 0
5, 71040, Note_on_c, 0, 48, 54
5, 71040, Note_on_c, 0, 55, 54
5, 71760, Note_on_c, 0, 55, 0
5, 71760, Note_on_c, 0, 48, 0
5, 72000, Note_on_c, 0, 49, 54
5, 72000, Note_on_c, 0, 55, 54
5, 72720, Note_on_c, 0, 55, 0
5, 72720, Note_on_c, 0, 49, 0
5, 72960, Note_on_c, 0, 50, 54
5, 72960, Note_on_c, 0, 59, 54
5, 73920, Note_on_c, 0, 59, 0
5, 73920, Note_on_c, 0, 50, 0
5, 73920, Note_on_c, 0, 50, 54
5, 73920, Note_on_c, 0, 57, 54
5, 74880, Note_on_c, 0, 57, 0
5, 74880, Note_on_c, 0, 50, 0
5, 74880, Note_on_c, 0, 50, 54
5, 74880, Note_on_c, 0, 58, 54
5, 75840, Note_on_c, 0, 58, 0
5, 75840, Note_on_c, 0, 50, 0
5, 75840, Note_on_c, 0, 50, 54
5, 75840, Note_on_c, 0, 58, 54
5, 76800, Note_on_c, 0, 58, 0
5, 76800, Note_on_c, 0, 50, 0
5, 76800, Note_on_c, 0, 50, 54
5, 76800, Note_on_c, 0, 60, 54
5, 77760, Note_on_c, 0, 60, 0
5, 77760, Note_on_c, 0, 50, 0
5, 77760, Note_on_c, 0, 50, 54
5, 77760, Note_on_c, 0, 60, 54
5, 78720, Note_on_c, 0, 60, 0
5, 78720, Note_on_c, 0, 50, 0
5, 78720, Note_on_c, 0, 50, 54
5, 78720, Note_on_c, 0, 58, 54
5, 79680, Note_on_c, 0, 58, 0
5, 79680, Note_on_c, 0, 50, 0
5, 79680, Note_on_c, 0, 50, 54
5, 79680, Note_on_c, 0, 58, 54
5, 80640, Note_on_c, 0, 58, 0
5, 80640, Note_on_c, 0, 50, 0
5, 80640, Note_on_c, 0, 50, 54
5, 80640, Note_on_c, 0, 60, 54
5, 81600, Note_on_c, 0, 60, 0
5, 81600, Note_on_c, 0, 50, 0
5, 81600, Note_on_c, 0, 50, 54
5, 81600, Note_on_c, 0, 54, 54
5, 82560, Note_on_c, 0, 54, 0
5, 82560, Note_on_c, 0, 50, 0
5, 101760, Note_on_c, 0, 60, 54
5, 103680, Note_on_c, 0, 60, 0
5, 103680, Note_on_c, 0, 60, 54
5, 105600, Note_on_c, 0, 60, 0
5, 105600, Note_on_c, 0, 60, 54
5, 107520, Note_on_c, 0, 60, 0
5, 118080, Note_on_c, 0, 60, 54
5, 118560, Note_on_c, 0, 60, 0
5, 118560, Note_on_c, 0, 58, 54
5, 119040, Note_on_c, 0, 58, 0
5, 128640, Control_c, 0, 64, 127
5, 128799, Note_on_c, 0, 36, 54
5, 128799, Note_on_c, 0, 48, 54
5, 128960, Note_on_c, 0, 48, 0
5, 128960, Note_on_c, 0, 36, 0
5, 128960, Note_on_c, 0, 36, 54
5, 128960, Note_on_c, 0, 48, 54
5, 129120, Note_on_c, 0, 48, 0
5, 129120, Note_on_c, 0, 36, 0
5, 129120, Note_on_c, 0, 36, 54
5, 129120, Note_on_c, 0, 48, 54
5, 129279, Note_on_c, 0, 48, 0
5, 129279, Note_on_c, 0, 36, 0
5, 129279, Note_on_c, 0, 36, 54
5, 129279, Note_on_c, 0, 48, 54
5, 129440, Note_on_c, 0, 48, 0
5, 129440, Note_on_c, 0, 36, 0
5, 129440, Control_c, 0, 64, 0
5, 129440, Note_on_c, 0, 36, 54
5, 129440, Note_on_c, 0, 48, 54
5, 129600, Note_on_c, 0, 48, 0
5, 129600, Note_on_c, 0, 36, 0
5, 129600, Control_c, 0, 64, 127
5, 129759, Note_on_c, 0, 36, 54
5, 129759, Note_on_c, 0, 48, 54
5, 129920, Note_on_c, 0, 48, 0
5, 129920, Note_on_c, 0, 36, 0
5, 129920, Note_on_c, 0, 36, 54
5, 129920, Note_on_c, 0, 48, 54
5, 130080, Note_on_c, 0, 48, 0
5, 130080, Note_on_c, 0, 36, 0
5, 130080, Note_on_c, 0, 36, 54
5, 130080, Note_on_c, 0, 48, 54
5, 130239, Note_on_c, 0, 48, 0
5, 130239, Note_on_c, 0, 36, 0
5, 130239, Note_on_c, 0, 36, 54
5, 130239, Note_on_c, 0, 48, 54
5, 130400, Note_on_c, 0, 48, 0
5, 130400, Note_on_c, 0, 36, 0
5, 130400, Control_c, 0, 64, 0
5, 130400, Note_on_c, 0, 36, 54
5, 130400, Note_on_c, 0, 48, 54
5, 130560, Note_on_c, 0, 48, 0
5, 130560, Note_on_c, 0, 36, 0
5, 130560, Control_c, 0, 64, 127
5, 130719, Note_on_c, 0, 36, 54
5, 130719, Note_on_c, 0, 48, 54
5, 130880, Note_on_c, 0, 48, 0
5, 130880, Note_on_c, 0, 36, 0
5, 130880, Note_on_c, 0, 36, 54
5, 130880, Note_on_c, 0, 48, 54
5, 131040, Note_on_c, 0, 48, 0
5, 131040, Note_on_c, 0, 36, 0
5, 131040, Note_on_c, 0, 36, 54
5, 131040, Note_on_c, 0, 48, 54
5, 131199, Note_on_c, 0, 48, 0
5, 131199, Note_on_c, 0, 36, 0
5, 131199, Note_on_c, 0, 36, 54
5, 131199, Note_on_c, 0, 48, 54
5, 131360, Note_on_c, 0, 48, 0
5, 131360, Note_on_c, 0, 36, 0
5, 131360, Control_c, 0, 64, 0
5, 131360, Note_on_c, 0, 36, 54
5, 131360, Note_on_c, 0, 48, 54
5, 131520, Note_on_c, 0, 48, 0
5, 131520, Note_on_c, 0, 36, 0
5, 131520, Control_c, 0, 64, 127
5, 131679, Note_on_c, 0, 36, 54
5, 131679, Note_on_c, 0, 48, 54
5, 131840, Note_on_c, 0, 48, 0
5, 131840, Note_on_c, 0, 36, 0
5, 131840, Note_on_c, 0, 36, 54
5, 131840, Note_on_c, 0, 48, 54
5, 132000, Note_on_c, 0, 48, 0
5, 132000, Note_on_c, 0, 36, 0
5, 132000, Note_on_c, 0, 36, 54
5, 132000, Note_on_c, 0, 48, 54
5, 132159, Note_on_c, 0, 48, 0
5, 132159, Note_on_c, 0, 36, 0
5, 132159, Note_on_c, 0, 36, 54
5, 132159, Note_on_c, 0, 48, 54
5, 132320, Note_on_c, 0, 48, 0
5, 132320, Note_on_c, 0, 36, 0
5, 132320, Control_c, 0, 64, 0
5, 132320, Note_on_c, 0, 36, 54
5, 132320, Note_on_c, 0, 48, 54
5, 132480, Note_on_c, 0, 48, 0
5, 132480, Note_on_c, 0, 36, 0
5, 132480, Control_c, 0, 64, 127
5, 132639, Note_on_c, 0, 36, 54
5, 132639, Note_on_c, 0, 48, 54
5, 132800, Note_on_c, 0, 48, 0
5, 132800, Note_on_c, 0, 36, 0
5, 132800, Note_on_c, 0, 36, 54
5, 132800, Note_on_c, 0, 48, 54
5, 132960, Note_on_c, 0, 48, 0
5, 132960, Note_on_c, 0, 36, 0
5, 132960, Note_on_c, 0, 36, 54
5, 132960, Note_on_c, 0, 48, 54
5, 133119, Note_on_c, 0, 48, 0
5, 133119, Note_on_c, 0, 36, 0
5, 133119, Note_on_c, 0, 36, 54
5, 133119, Note_on_c, 0, 48, 54
5, 133280, Note_on_c, 0, 48, 0
5, 133280, Note_on_c, 0, 36, 0
5, 133280, Control_c, 0, 64, 0
5, 133280, Note_on_c, 0, 36, 54
5, 133280, Note_on_c, 0, 48, 54
5, 133440, Note_on_c, 0, 48, 0
5, 133440, Note_on_c, 0, 36, 0
5, 133440, Control_c, 0, 64, 127
5, 133599, Note_on_c, 0, 36, 54
5, 133599, Note_on_c, 0, 48, 54
5, 133760, Note_on_c, 0, 48, 0
5, 133760, Note_on_c, 0, 36, 0
5, 133760, Note_on_c, 0, 36, 54
5, 133760, Note_on_c, 0, 48, 54
5, 133920, Note_on_c, 0, 48, 0
5, 133920, Note_on_c, 0, 36, 0
5, 133920, Note_on_c, 0, 36, 54
5, 133920, Note_on_c, 0, 48, 54
5, 134079, Note_on_c, 0, 48, 0
5, 134079, Note_on_c, 0, 36, 0
5, 134079, Note_on_c, 0, 36, 54
5, 134079, Note_on_c, 0, 48, 54
5, 134240, Note_on_c, 0, 48, 0
5, 134240, Note_on_c, 0, 36, 0
5, 134240, Control_c, 0, 64, 0
5, 134240, Note_on_c, 0, 36, 54
5, 134240, Note_on_c, 0, 48, 54
5, 134400, Note_on_c, 0, 48, 0
5, 134400, Note_on_c, 0, 36, 0
5, 134400, Control_c, 0, 64, 127
5, 134559, Note_on_c, 0, 36, 54
5, 134559, Note_on_c, 0, 48, 54
5, 134720, Note_on_c, 0, 48, 0
5, 134720, Note_on_c, 0, 36, 0
5, 134720, Note_on_c, 0, 36, 54
5, 134720, Note_on_c, 0, 48, 54
5, 134880, Note_on_c, 0, 48, 0
5, 134880, Note_on_c, 0, 36, 0
5, 134880, Note_on_c, 0, 36, 54
5, 134880, Note_on_c, 0, 48, 54
5, 135039, Note_on_c, 0, 48, 0
5, 135039, Note_on_c, 0, 36, 0
5, 135039, Note_on_c, 0, 36, 54
5, 135039, Note_on_c, 0, 48, 54
5, 135200, Note_on_c, 0, 48, 0
5, 135200, Note_on_c, 0, 36, 0
5, 135200, Control_c, 0, 64, 0
5, 135200, Note_on_c, 0, 36, 54
5, 135200, Note_on_c, 0, 48, 54
5, 135360, Note_on_c, 0, 48, 0
5, 135360, Note_on_c, 0, 36, 0
5, 135360, Control_c, 0, 64, 127
5, 135519, Note_on_c, 0, 36, 54
5, 135519, Note_on_c, 0, 48, 54
5, 135680, Note_on_c, 0, 48, 0
5, 135680, Note_on_c, 0, 36, 0
5, 135680, Note_on_c, 0, 36, 54
5, 135680, Note_on_c, 0, 48, 54
5, 135840, Note_on_c, 0, 48, 0
5, 135840, Note_on_c, 0, 36, 0
5, 135840, Note_on_c, 0, 36, 54
5, 135840, Note_on_c, 0, 48, 54
5, 135999, Note_on_c, 0, 48, 0
5, 135999, Note_on_c, 0, 36, 0
5, 135999, Note_on_c, 0, 36, 54
5, 135999, Note_on_c, 0, 48, 54
5, 136160, Note_on_c, 0, 48, 0
5, 136160, Note_on_c, 0, 36, 0
5, 136160, Control_c, 0, 64, 0
5, 136160, Note_on_c, 0, 36, 54
5, 136160, Note_on_c, 0, 48, 54
5, 136320, Note_on_c, 0, 48, 0
5, 136320, Note_on_c, 0, 36, 0
5, 136320, Control_c, 0, 64, 127
5, 136479, Note_on_c, 0, 36, 54
5, 136640, Note_on_c, 0, 36, 0
5, 136640, Note_on_c, 0, 36, 54
5, 136800, Note_on_c, 0, 36, 0
5, 136800, Note_on_c, 0, 36, 54
5, 136959, Note_on_c, 0, 36, 0
5, 136959, Note_on_c, 0, 36, 54
5, 137120, Note_on_c, 0, 36, 0
5, 137120, Control_c, 0, 64, 0
5, 137120, Note_on_c, 0, 36, 54
5, 137280, Note_on_c, 0, 36, 0
5, 137280, Control_c, 0, 64, 127
5, 137439, Note_on_c, 0, 36, 54
5, 137600, Note_on_c, 0, 36, 0
5, 137600, Note_on_c, 0, 36, 54
5, 137760, Note_on_c, 0, 36, 0
5, 137760, Note_on_c, 0, 36, 54
5, 137919, Note_on_c, 0, 36, 0
5, 137919, Note_on_c, 0, 36, 54
5, 138080, Note_on_c, 0, 36, 0
5, 138080, Control_c, 0, 64, 0
5, 138080, Note_on_c, 0, 36, 54
5, 138240, Note_on_c, 0, 36, 0
5, 138240, Control_c, 0, 64, 127
5, 138399, Note_on_c, 0, 36, 54
5, 138560, Note_on_c, 0, 36, 0
5, 138560, Note_on_c, 0, 36, 54
5, 138720, Note_on_c, 0, 36, 0
5, 138720, Note_on_c, 0, 36, 54
5, 138879, Note_on_c, 0, 36, 0
5, 138879, Note_on_c, 0, 36, 54
5, 139040, Note_on_c, 0, 36, 0
5, 139040, Control_c, 0, 64, 0
5, 139040, Note_on_c, 0, 36, 54
5, 139200, Note_on_c, 0, 36, 0
5, 139200, Control_c, 0, 64, 127
5, 139359, Note_on_c, 0, 36, 54
5, 139520, Note_on_c, 0, 36, 0
5, 139520, Note_on_c, 0, 36, 54
5, 139680, Note_on_c, 0, 36, 0
5, 139680, Note_on_c, 0, 36, 54
5, 139839, Note_on_c, 0, 36, 0
5, 139839, Note_on_c, 0, 36, 54
5, 140000, Note_on_c, 0, 36, 0
5, 140000, Control_c, 0, 64, 0
5, 140000, Note_on_c, 0, 36, 54
5, 140160, Note_on_c, 0, 36, 0
5, 140319, Note_on_c, 0, 36, 54
5, 140480, Note_on_c, 0, 36, 0
5, 140480, Note_on_c, 0, 36, 54
5, 140640, Note_on_c, 0, 36, 0
5, 140640, Note_on_c, 0, 47, 54
5, 140880, Note_on_c, 0, 47, 0
5, 140880, Note_on_c, 0, 48, 54
5, 141120, Note_on_c, 0, 48, 0
5, 141120, Control_c, 0, 64, 127
5, 141120, Note_on_c, 0, 46, 80
5, 141279, Note_on_c, 0, 46, 0
5, 141279, Note_on_c, 0, 36, 54
5, 141440, Note_on_c, 0, 36, 0
5, 141440, Control_c, 0, 64, 0
5, 141440, Note_on_c, 0, 36, 54
5, 141600, Note_on_c, 0, 36, 0
5, 141600, Note_on_c, 0, 46, 54
5, 141840, Note_on_c, 0, 46, 0
5, 141840, Note_on_c, 0, 48, 54
5, 142080, Note_on_c, 0, 48, 0
5, 142080, Control_c, 0, 64, 127
5, 142080, Note_on_c, 0, 45, 80
5, 142239, Note_on_c, 0, 45, 0
5, 142239, Note_on_c, 0, 36, 54
5, 142400, Note_on_c, 0, 36, 0
5, 142400, Control_c, 0, 64, 0
5, 142400, Note_on_c, 0, 36, 54
5, 142560, Note_on_c, 0, 36, 0
5, 142560, Note_on_c, 0, 45, 54
5, 142800, Note_on_c, 0, 45, 0
5, 142800, Note_on_c, 0, 48, 54
5, 143040, Note_on_c, 0, 48, 0
5, 143040, Control_c, 0, 64, 127
5, 143040, Note_on_c, 0, 44, 80
5, 143199, Note_on_c, 0, 44, 0
5, 143199, Note_on_c, 0, 36, 54
5, 143360, Note_on_c, 0, 36, 0
5, 143360, Control_c, 0, 64, 0
5, 143360, Note_on_c, 0, 36, 54
5, 143520, Note_on_c, 0, 36, 0
5, 143520, Note_on_c, 0, 44, 54
5, 143760, Note_on_c, 0, 44, 0
5, 143760, Note_on_c, 0, 48, 54
5, 144000, Note_on_c, 0, 48, 0
5, 144000, Control_c, 0, 64, 127
5, 144159, Note_on_c, 0, 36, 54
5, 144159, Note_on_c, 0, 48, 54
5, 144320, Note_on_c, 0, 48, 0
5, 144320, Note_on_c, 0, 36, 0
5, 144320, Note_on_c, 0, 36, 54
5, 144320, Note_on_c, 0, 48, 54
5, 144480, Note_on_c, 0, 48, 0
5, 144480, Note_on_c, 0, 36, 0
5, 144480, Note_on_c, 0, 36, 54
5, 144480, Note_on_c, 0, 48, 54
5, 144720, Note_on_c, 0, 48, 0
5, 144720, Note_on_c, 0, 36, 0
5, 144720, Control_c, 0, 64, 0
5, 144960, Control_c, 0, 64, 127
5, 145119, Note_on_c, 0, 36, 54
5, 145119, Note_on_c, 0, 48, 54
5, 145280, Note_on_c, 0, 48, 0
5, 145280, Note_on_c, 0, 36, 0
5, 145280, Note_on_c, 0, 36, 54
5, 145280, Note_on_c, 0, 48, 54
5, 145440, Note_on_c, 0, 48, 0
5, 145440, Note_on_c, 0, 36, 0
5, 145440, Note_on_c, 0, 36, 54
5, 145440, Note_on_c, 0, 48, 54
5, 145680, Note_on_c, 0, 48, 0
5, 145680, Note_on_c, 0, 36, 0
5, 145680, Control_c, 0, 64, 0
5, 146400, Note_on_c, 0, 36, 54
5, 146400, Note_on_c, 0, 48, 54
5, 146880, Note_on_c, 0, 48, 0
5, 146880, Note_on_c, 0, 36, 0
5, 147360, Note_on_c, 0, 36, 54
5, 147360, Note_on_c, 0, 48, 54
5, 147840, Note_on_c, 0, 48, 0
5, 147840, Note_on_c, 0, 36, 0
5, 147840, Note_on_c, 0, 36, 54
5, 147840, Note_on_c, 0, 48, 54
5, 148080, Note_on_c, 0, 48, 0
5, 148080, Note_on_c, 0, 36, 0
5, 148080, End_track
0, 0, End_of_file
