0, 0, Header, 1, 5, 480
1, 0, Start_track
1, 0, Title_t, "tchaikovsky sleeping beauty act2 19 le sommeil et scene"
1, 0, Copyright_t, "Adaptation for Disklavier pianos, by: Robert C. Kuhmann (c) 2012."
1, 0, Text_t, "Seq. (c) by: Segundo G. Yogore,  2006\012"
1, 0, Time_signature, 4, 2, 24, 8
1, 0, Key_signature, 0, "major"
1, 0, Tempo, 857143
1, 190080, Tempo, 428571
1, 272640, Time_signature, 8, 2, 24, 8
1, 272640, End_track
2, 0, Start_track
2, 0, Title_t, "Grand Piano"
2, 0, Program_c, 0, 0
2, 0, Control_c, 0, 7, 115
2, 0, Control_c, 0, 10, 86
2, 0, Note_on_c, 0, 84, 36
2, 60, Note_on_c, 0, 84, 0
2, 60, Note_on_c, 0, 84, 36
2, 120, Note_on_c, 0, 84, 0
2, 120, Note_on_c, 0, 84, 36
2, 180, Note_on_c, 0, 84, 0
2, 180, Note_on_c, 0, 84, 36
2, 240, Note_on_c, 0, 84, 0
2, 240, Note_on_c, 0, 84, 36
2, 300, Note_on_c, 0, 84, 0
2, 300, Note_on_c, 0, 84, 36
2, 360, Note_on_c, 0, 84, 0
2, 360, Note_on_c, 0, 84, 36
2, 420, Note_on_c, 0, 84, 0
2, 420, Note_on_c, 0, 84, 36
2, 480, Note_on_c, 0, 84, 0
2, 480, Note_on_c, 0, 84, 36
2, 540, Note_on_c, 0, 84, 0
2, 540, Note_on_c, 0, 84, 36
2, 600, Note_on_c, 0, 84, 0
2, 600, Note_on_c, 0, 84, 36
2, 660, Note_on_c, 0, 84, 0
2, 660, Note_on_c, 0, 84, 36
2, 720, Note_on_c, 0, 84, 0
2, 720, Note_on_c, 0, 84, 36
2, 780, Note_on_c, 0, 84, 0
2, 780, Note_on_c, 0, 84, 36
2, 840, Note_on_c, 0, 84, 0
2, 840, Note_on_c, 0, 84, 36
2, 900, Note_on_c, 0, 84, 0
2, 900, Note_on_c, 0, 84, 36
2, 960, Note_on_c, 0, 84, 0
2, 960, Note_on_c, 0, 84, 36
2, 1020, Note_on_c, 0, 84, 0
2, 1020, Note_on_c, 0, 84, 36
2, 1080, Note_on_c, 0, 84, 0
2, 1080, Note_on_c, 0, 84, 36
2, 1140, Note_on_c, 0, 84, 0
2, 1140, Note_on_c, 0, 84, 36
2, 1200, Note_on_c, 0, 84, 0
2, 1200, Note_on_c, 0, 84, 36
2, 1260, Note_on_c, 0, 84, 0
2, 1260, Note_on_c, 0, 84, 36
2, 1320, Note_on_c, 0, 84, 0
2, 1320, Note_on_c, 0, 84, 36
2, 1380, Note_on_c, 0, 84, 0
2, 1380, Note_on_c, 0, 84, 36
2, 1440, Note_on_c, 0, 84, 0
2, 1440, Note_on_c, 0, 84, 36
2, 1500, Note_on_c, 0, 84, 0
2, 1500, Note_on_c, 0, 84, 36
2, 1560, Note_on_c, 0, 84, 0
2, 1560, Note_on_c, 0, 84, 36
2, 1620, Note_on_c, 0, 84, 0
2, 1620, Note_on_c, 0, 84, 36
2, 1680, Note_on_c, 0, 84, 0
2, 1680, Note_on_c, 0, 84, 36
2, 1740, Note_on_c, 0, 84, 0
2, 1740, Note_on_c, 0, 84, 36
2, 1800, Note_on_c, 0, 84, 0
2, 1800, Note_on_c, 0, 84, 36
2, 1860, Note_on_c, 0, 84, 0
2, 1860, Note_on_c, 0, 84, 36
2, 1920, Note_on_c, 0, 84, 0
2, 1920, Note_on_c, 0, 84, 36
2, 1980, Note_on_c, 0, 84, 0
2, 1980, Note_on_c, 0, 84, 36
2, 2040, Note_on_c, 0, 84, 0
2, 2040, Note_on_c, 0, 84, 36
2, 2100, Note_on_c, 0, 84, 0
2, 2100, Note_on_c, 0, 84, 36
2, 2160, Note_on_c, 0, 84, 0
2, 2160, Note_on_c, 0, 84, 36
2, 2220, Note_on_c, 0, 84, 0
2, 2220, Note_on_c, 0, 84, 36
2, 2280, Note_on_c, 0, 84, 0
2, 2280, Note_on_c, 0, 84, 36
2, 2340, Note_on_c, 0, 84, 0
2, 2340, Note_on_c, 0, 84, 36
2, 2400, Note_on_c, 0, 84, 0
2, 2400, Note_on_c, 0, 84, 36
2, 2460, Note_on_c, 0, 84, 0
2, 2460, Note_on_c, 0, 84, 36
2, 2520, Note_on_c, 0, 84, 0
2, 2520, Note_on_c, 0, 84, 36
2, 2580, Note_on_c, 0, 84, 0
2, 2580, Note_on_c, 0, 84, 36
2, 2640, Note_on_c, 0, 84, 0
2, 2640, Note_on_c, 0, 84, 36
2, 2700, Note_on_c, 0, 84, 0
2, 2700, Note_on_c, 0, 84, 36
2, 2760, Note_on_c, 0, 84, 0
2, 2760, Note_on_c, 0, 84, 36
2, 2820, Note_on_c, 0, 84, 0
2, 2820, Note_on_c, 0, 84, 36
2, 2880, Note_on_c, 0, 84, 0
2, 2880, Note_on_c, 0, 84, 36
2, 2940, Note_on_c, 0, 84, 0
2, 2940, Note_on_c, 0, 84, 36
2, 3000, Note_on_c, 0, 84, 0
2, 3000, Note_on_c, 0, 84, 36
2, 3060, Note_on_c, 0, 84, 0
2, 3060, Note_on_c, 0, 84, 36
2, 3120, Note_on_c, 0, 84, 0
2, 3120, Note_on_c, 0, 84, 36
2, 3180, Note_on_c, 0, 84, 0
2, 3180, Note_on_c, 0, 84, 36
2, 3240, Note_on_c, 0, 84, 0
2, 3240, Note_on_c, 0, 84, 36
2, 3300, Note_on_c, 0, 84, 0
2, 3300, Note_on_c, 0, 84, 36
2, 3360, Note_on_c, 0, 84, 0
2, 3360, Note_on_c, 0, 84, 36
2, 3420, Note_on_c, 0, 84, 0
2, 3420, Note_on_c, 0, 84, 36
2, 3480, Note_on_c, 0, 84, 0
2, 3480, Note_on_c, 0, 84, 36
2, 3540, Note_on_c, 0, 84, 0
2, 3540, Note_on_c, 0, 84, 36
2, 3600, Note_on_c, 0, 84, 0
2, 3600, Note_on_c, 0, 84, 36
2, 3660, Note_on_c, 0, 84, 0
2, 3660, Note_on_c, 0, 84, 36
2, 3720, Note_on_c, 0, 84, 0
2, 3720, Note_on_c, 0, 84, 36
2, 3780, Note_on_c, 0, 84, 0
2, 3780, Note_on_c, 0, 84, 36
2, 3840, Note_on_c, 0, 84, 0
2, 3840, Note_on_c, 0, 84, 36
2, 3900, Note_on_c, 0, 84, 0
2, 3900, Note_on_c, 0, 84, 36
2, 3960, Note_on_c, 0, 84, 0
2, 3960, Note_on_c, 0, 84, 36
2, 4020, Note_on_c, 0, 84, 0
2, 4020, Note_on_c, 0, 84, 36
2, 4080, Note_on_c, 0, 84, 0
2, 4080, Note_on_c, 0, 84, 36
2, 4140, Note_on_c, 0, 84, 0
2, 4140, Note_on_c, 0, 84, 36
2, 4200, Note_on_c, 0, 84, 0
2, 4200, Note_on_c, 0, 84, 36
2, 4260, Note_on_c, 0, 84, 0
2, 4260, Note_on_c, 0, 84, 36
2, 4320, Note_on_c, 0, 84, 0
2, 4320, Note_on_c, 0, 84, 36
2, 4380, Note_on_c, 0, 84, 0
2, 4380, Note_on_c, 0, 84, 36
2, 4440, Note_on_c, 0, 84, 0
2, 4440, Note_on_c, 0, 84, 36
2, 4500, Note_on_c, 0, 84, 0
2, 4500, Note_on_c, 0, 84, 36
2, 4560, Note_on_c, 0, 84, 0
2, 4560, Note_on_c, 0, 84, 36
2, 4620, Note_on_c, 0, 84, 0
2, 4620, Note_on_c, 0, 84, 36
2, 4680, Note_on_c, 0, 84, 0
2, 4680, Note_on_c, 0, 84, 36
2, 4740, Note_on_c, 0, 84, 0
2, 4740, Note_on_c, 0, 84, 36
2, 4800, Note_on_c, 0, 84, 0
2, 4800, Note_on_c, 0, 84, 36
2, 4860, Note_on_c, 0, 84, 0
2, 4860, Note_on_c, 0, 84, 36
2, 4920, Note_on_c, 0, 84, 0
2, 4920, Note_on_c, 0, 84, 36
2, 4980, Note_on_c, 0, 84, 0
2, 4980, Note_on_c, 0, 84, 36
2, 5040, Note_on_c, 0, 84, 0
2, 5040, Note_on_c, 0, 84, 36
2, 5100, Note_on_c, 0, 84, 0
2, 5100, Note_on_c, 0, 84, 36
2, 5160, Note_on_c, 0, 84, 0
2, 5160, Note_on_c, 0, 84, 36
2, 5220, Note_on_c, 0, 84, 0
2, 5220, Note_on_c, 0, 84, 36
2, 5280, Note_on_c, 0, 84, 0
2, 5280, Note_on_c, 0, 84, 36
2, 5340, Note_on_c, 0, 84, 0
2, 5340, Note_on_c, 0, 84, 36
2, 5400, Note_on_c, 0, 84, 0
2, 5400, Note_on_c, 0, 84, 36
2, 5460, Note_on_c, 0, 84, 0
2, 5460, Note_on_c, 0, 84, 36
2, 5520, Note_on_c, 0, 84, 0
2, 5520, Note_on_c, 0, 84, 36
2, 5580, Note_on_c, 0, 84, 0
2, 5580, Note_on_c, 0, 84, 36
2, 5640, Note_on_c, 0, 84, 0
2, 5640, Note_on_c, 0, 84, 36
2, 5700, Note_on_c, 0, 84, 0
2, 5700, Note_on_c, 0, 84, 36
2, 5760, Note_on_c, 0, 84, 0
2, 5760, Note_on_c, 0, 84, 36
2, 5820, Note_on_c, 0, 84, 0
2, 5820, Note_on_c, 0, 84, 36
2, 5880, Note_on_c, 0, 84, 0
2, 5880, Note_on_c, 0, 84, 36
2, 5940, Note_on_c, 0, 84, 0
2, 5940, Note_on_c, 0, 84, 36
2, 6000, Note_on_c, 0, 84, 0
2, 6000, Note_on_c, 0, 84, 36
2, 6060, Note_on_c, 0, 84, 0
2, 6060, Note_on_c, 0, 84, 36
2, 6120, Note_on_c, 0, 84, 0
2, 6120, Note_on_c, 0, 84, 36
2, 6180, Note_on_c, 0, 84, 0
2, 6180, Note_on_c, 0, 84, 36
2, 6240, Note_on_c, 0, 84, 0
2, 6240, Note_on_c, 0, 84, 36
2, 6300, Note_on_c, 0, 84, 0
2, 6300, Note_on_c, 0, 84, 36
2, 6360, Note_on_c, 0, 84, 0
2, 6360, Note_on_c, 0, 84, 36
2, 6420, Note_on_c, 0, 84, 0
2, 6420, Note_on_c, 0, 84, 36
2, 6480, Note_on_c, 0, 84, 0
2, 6480, Note_on_c, 0, 84, 36
2, 6540, Note_on_c, 0, 84, 0
2, 6540, Note_on_c, 0, 84, 36
2, 6600, Note_on_c, 0, 84, 0
2, 6600, Note_on_c, 0, 84, 36
2, 6660, Note_on_c, 0, 84, 0
2, 6660, Note_on_c, 0, 84, 36
2, 6720, Note_on_c, 0, 84, 0
2, 6720, Note_on_c, 0, 84, 36
2, 6780, Note_on_c, 0, 84, 0
2, 6780, Note_on_c, 0, 84, 36
2, 6840, Note_on_c, 0, 84, 0
2, 6840, Note_on_c, 0, 84, 36
2, 6900, Note_on_c, 0, 84, 0
2, 6900, Note_on_c, 0, 84, 36
2, 6960, Note_on_c, 0, 84, 0
2, 6960, Note_on_c, 0, 84, 36
2, 7020, Note_on_c, 0, 84, 0
2, 7020, Note_on_c, 0, 84, 36
2, 7080, Note_on_c, 0, 84, 0
2, 7080, Note_on_c, 0, 84, 36
2, 7140, Note_on_c, 0, 84, 0
2, 7140, Note_on_c, 0, 84, 36
2, 7200, Note_on_c, 0, 84, 0
2, 7200, Note_on_c, 0, 84, 36
2, 7260, Note_on_c, 0, 84, 0
2, 7260, Note_on_c, 0, 84, 36
2, 7320, Note_on_c, 0, 84, 0
2, 7320, Note_on_c, 0, 84, 36
2, 7380, Note_on_c, 0, 84, 0
2, 7380, Note_on_c, 0, 84, 36
2, 7440, Note_on_c, 0, 84, 0
2, 7440, Note_on_c, 0, 84, 36
2, 7500, Note_on_c, 0, 84, 0
2, 7500, Note_on_c, 0, 84, 36
2, 7560, Note_on_c, 0, 84, 0
2, 7560, Note_on_c, 0, 84, 36
2, 7620, Note_on_c, 0, 84, 0
2, 7620, Note_on_c, 0, 84, 36
2, 7680, Note_on_c, 0, 84, 0
2, 7680, Note_on_c, 0, 84, 36
2, 7740, Note_on_c, 0, 84, 0
2, 7740, Note_on_c, 0, 84, 36
2, 7800, Note_on_c, 0, 84, 0
2, 7800, Note_on_c, 0, 84, 36
2, 7860, Note_on_c, 0, 84, 0
2, 7860, Note_on_c, 0, 84, 36
2, 7920, Note_on_c, 0, 84, 0
2, 7920, Note_on_c, 0, 84, 36
2, 7980, Note_on_c, 0, 84, 0
2, 7980, Note_on_c, 0, 84, 36
2, 8040, Note_on_c, 0, 84, 0
2, 8040, Note_on_c, 0, 84, 36
2, 8100, Note_on_c, 0, 84, 0
2, 8100, Note_on_c, 0, 84, 36
2, 8160, Note_on_c, 0, 84, 0
2, 8160, Note_on_c, 0, 84, 36
2, 8220, Note_on_c, 0, 84, 0
2, 8220, Note_on_c, 0, 84, 36
2, 8280, Note_on_c, 0, 84, 0
2, 8280, Note_on_c, 0, 84, 36
2, 8340, Note_on_c, 0, 84, 0
2, 8340, Note_on_c, 0, 84, 36
2, 8400, Note_on_c, 0, 84, 0
2, 8400, Note_on_c, 0, 84, 36
2, 8460, Note_on_c, 0, 84, 0
2, 8460, Note_on_c, 0, 84, 36
2, 8520, Note_on_c, 0, 84, 0
2, 8520, Note_on_c, 0, 84, 36
2, 8580, Note_on_c, 0, 84, 0
2, 8580, Note_on_c, 0, 84, 36
2, 8640, Note_on_c, 0, 84, 0
2, 8640, Note_on_c, 0, 84, 36
2, 8700, Note_on_c, 0, 84, 0
2, 8700, Note_on_c, 0, 84, 36
2, 8760, Note_on_c, 0, 84, 0
2, 8760, Note_on_c, 0, 84, 36
2, 8820, Note_on_c, 0, 84, 0
2, 8820, Note_on_c, 0, 84, 36
2, 8880, Note_on_c, 0, 84, 0
2, 8880, Note_on_c, 0, 84, 36
2, 8940, Note_on_c, 0, 84, 0
2, 8940, Note_on_c, 0, 84, 36
2, 9000, Note_on_c, 0, 84, 0
2, 9000, Note_on_c, 0, 84, 36
2, 9060, Note_on_c, 0, 84, 0
2, 9060, Note_on_c, 0, 84, 36
2, 9120, Note_on_c, 0, 84, 0
2, 9120, Note_on_c, 0, 84, 36
2, 9180, Note_on_c, 0, 84, 0
2, 9180, Note_on_c, 0, 84, 36
2, 9240, Note_on_c, 0, 84, 0
2, 9240, Note_on_c, 0, 84, 36
2, 9300, Note_on_c, 0, 84, 0
2, 9300, Note_on_c, 0, 84, 36
2, 9360, Note_on_c, 0, 84, 0
2, 9360, Note_on_c, 0, 84, 36
2, 9420, Note_on_c, 0, 84, 0
2, 9420, Note_on_c, 0, 84, 36
2, 9480, Note_on_c, 0, 84, 0
2, 9480, Note_on_c, 0, 84, 36
2, 9540, Note_on_c, 0, 84, 0
2, 9540, Note_on_c, 0, 84, 36
2, 9600, Note_on_c, 0, 84, 0
2, 9600, Note_on_c, 0, 84, 36
2, 9660, Note_on_c, 0, 84, 0
2, 9660, Note_on_c, 0, 84, 36
2, 9720, Note_on_c, 0, 84, 0
2, 9720, Note_on_c, 0, 84, 36
2, 9780, Note_on_c, 0, 84, 0
2, 9780, Note_on_c, 0, 84, 36
2, 9840, Note_on_c, 0, 84, 0
2, 9840, Note_on_c, 0, 84, 36
2, 9900, Note_on_c, 0, 84, 0
2, 9900, Note_on_c, 0, 84, 36
2, 9960, Note_on_c, 0, 84, 0
2, 9960, Note_on_c, 0, 84, 36
2, 10020, Note_on_c, 0, 84, 0
2, 10020, Note_on_c, 0, 84, 36
2, 10080, Note_on_c, 0, 84, 0
2, 10080, Note_on_c, 0, 84, 36
2, 10140, Note_on_c, 0, 84, 0
2, 10140, Note_on_c, 0, 84, 36
2, 10200, Note_on_c, 0, 84, 0
2, 10200, Note_on_c, 0, 84, 36
2, 10260, Note_on_c, 0, 84, 0
2, 10260, Note_on_c, 0, 84, 36
2, 10320, Note_on_c, 0, 84, 0
2, 10320, Note_on_c, 0, 84, 36
2, 10380, Note_on_c, 0, 84, 0
2, 10380, Note_on_c, 0, 84, 36
2, 10440, Note_on_c, 0, 84, 0
2, 10440, Note_on_c, 0, 84, 36
2, 10500, Note_on_c, 0, 84, 0
2, 10500, Note_on_c, 0, 84, 36
2, 10560, Note_on_c, 0, 84, 0
2, 10560, Note_on_c, 0, 84, 36
2, 10620, Note_on_c, 0, 84, 0
2, 10620, Note_on_c, 0, 84, 36
2, 10680, Note_on_c, 0, 84, 0
2, 10680, Note_on_c, 0, 84, 36
2, 10740, Note_on_c, 0, 84, 0
2, 10740, Note_on_c, 0, 84, 36
2, 10800, Note_on_c, 0, 84, 0
2, 10800, Note_on_c, 0, 84, 36
2, 10860, Note_on_c, 0, 84, 0
2, 10860, Note_on_c, 0, 84, 36
2, 10920, Note_on_c, 0, 84, 0
2, 10920, Note_on_c, 0, 84, 36
2, 10980, Note_on_c, 0, 84, 0
2, 10980, Note_on_c, 0, 84, 36
2, 11040, Note_on_c, 0, 84, 0
2, 11040, Note_on_c, 0, 84, 36
2, 11100, Note_on_c, 0, 84, 0
2, 11100, Note_on_c, 0, 84, 36
2, 11160, Note_on_c, 0, 84, 0
2, 11160, Note_on_c, 0, 84, 36
2, 11220, Note_on_c, 0, 84, 0
2, 11220, Note_on_c, 0, 84, 36
2, 11280, Note_on_c, 0, 84, 0
2, 11280, Note_on_c, 0, 84, 36
2, 11340, Note_on_c, 0, 84, 0
2, 11340, Note_on_c, 0, 84, 36
2, 11400, Note_on_c, 0, 84, 0
2, 11400, Note_on_c, 0, 84, 36
2, 11460, Note_on_c, 0, 84, 0
2, 11460, Note_on_c, 0, 84, 36
2, 11520, Note_on_c, 0, 84, 0
2, 11520, Note_on_c, 0, 84, 36
2, 11580, Note_on_c, 0, 84, 0
2, 11580, Note_on_c, 0, 84, 36
2, 11640, Note_on_c, 0, 84, 0
2, 11640, Note_on_c, 0, 84, 36
2, 11700, Note_on_c, 0, 84, 0
2, 11700, Note_on_c, 0, 84, 36
2, 11760, Note_on_c, 0, 84, 0
2, 11760, Note_on_c, 0, 84, 36
2, 11820, Note_on_c, 0, 84, 0
2, 11820, Note_on_c, 0, 84, 36
2, 11880, Note_on_c, 0, 84, 0
2, 11880, Note_on_c, 0, 84, 36
2, 11940, Note_on_c, 0, 84, 0
2, 11940, Note_on_c, 0, 84, 36
2, 12000, Note_on_c, 0, 84, 0
2, 12000, Note_on_c, 0, 84, 36
2, 12060, Note_on_c, 0, 84, 0
2, 12060, Note_on_c, 0, 84, 36
2, 12120, Note_on_c, 0, 84, 0
2, 12120, Note_on_c, 0, 84, 36
2, 12180, Note_on_c, 0, 84, 0
2, 12180, Note_on_c, 0, 84, 36
2, 12240, Note_on_c, 0, 84, 0
2, 12240, Note_on_c, 0, 84, 36
2, 12300, Note_on_c, 0, 84, 0
2, 12300, Note_on_c, 0, 84, 36
2, 12360, Note_on_c, 0, 84, 0
2, 12360, Note_on_c, 0, 84, 36
2, 12420, Note_on_c, 0, 84, 0
2, 12420, Note_on_c, 0, 84, 36
2, 12480, Note_on_c, 0, 84, 0
2, 12480, Note_on_c, 0, 84, 36
2, 12540, Note_on_c, 0, 84, 0
2, 12540, Note_on_c, 0, 84, 36
2, 12600, Note_on_c, 0, 84, 0
2, 12600, Note_on_c, 0, 84, 36
2, 12660, Note_on_c, 0, 84, 0
2, 12660, Note_on_c, 0, 84, 36
2, 12720, Note_on_c, 0, 84, 0
2, 12720, Note_on_c, 0, 84, 36
2, 12780, Note_on_c, 0, 84, 0
2, 12780, Note_on_c, 0, 84, 36
2, 12840, Note_on_c, 0, 84, 0
2, 12840, Note_on_c, 0, 84, 36
2, 12900, Note_on_c, 0, 84, 0
2, 12900, Note_on_c, 0, 84, 36
2, 12960, Note_on_c, 0, 84, 0
2, 12960, Note_on_c, 0, 84, 36
2, 13020, Note_on_c, 0, 84, 0
2, 13020, Note_on_c, 0, 84, 36
2, 13080, Note_on_c, 0, 84, 0
2, 13080, Note_on_c, 0, 84, 36
2, 13140, Note_on_c, 0, 84, 0
2, 13140, Note_on_c, 0, 84, 36
2, 13200, Note_on_c, 0, 84, 0
2, 13200, Note_on_c, 0, 84, 36
2, 13260, Note_on_c, 0, 84, 0
2, 13260, Note_on_c, 0, 84, 36
2, 13320, Note_on_c, 0, 84, 0
2, 13320, Note_on_c, 0, 84, 36
2, 13380, Note_on_c, 0, 84, 0
2, 13380, Note_on_c, 0, 84, 36
2, 13440, Note_on_c, 0, 84, 0
2, 13440, Note_on_c, 0, 84, 36
2, 13500, Note_on_c, 0, 84, 0
2, 13500, Note_on_c, 0, 84, 36
2, 13560, Note_on_c, 0, 84, 0
2, 13560, Note_on_c, 0, 84, 36
2, 13620, Note_on_c, 0, 84, 0
2, 13620, Note_on_c, 0, 84, 36
2, 13680, Note_on_c, 0, 84, 0
2, 13680, Note_on_c, 0, 84, 36
2, 13740, Note_on_c, 0, 84, 0
2, 13740, Note_on_c, 0, 84, 36
2, 13800, Note_on_c, 0, 84, 0
2, 13800, Note_on_c, 0, 84, 36
2, 13860, Note_on_c, 0, 84, 0
2, 13860, Note_on_c, 0, 84, 36
2, 13920, Note_on_c, 0, 84, 0
2, 13920, Note_on_c, 0, 84, 36
2, 13980, Note_on_c, 0, 84, 0
2, 13980, Note_on_c, 0, 84, 36
2, 14040, Note_on_c, 0, 84, 0
2, 14040, Note_on_c, 0, 84, 36
2, 14100, Note_on_c, 0, 84, 0
2, 14100, Note_on_c, 0, 84, 36
2, 14160, Note_on_c, 0, 84, 0
2, 14160, Note_on_c, 0, 84, 36
2, 14220, Note_on_c, 0, 84, 0
2, 14220, Note_on_c, 0, 84, 36
2, 14280, Note_on_c, 0, 84, 0
2, 14280, Note_on_c, 0, 84, 36
2, 14340, Note_on_c, 0, 84, 0
2, 14340, Note_on_c, 0, 84, 36
2, 14400, Note_on_c, 0, 84, 0
2, 14400, Note_on_c, 0, 84, 36
2, 14460, Note_on_c, 0, 84, 0
2, 14460, Note_on_c, 0, 84, 36
2, 14520, Note_on_c, 0, 84, 0
2, 14520, Note_on_c, 0, 84, 36
2, 14580, Note_on_c, 0, 84, 0
2, 14580, Note_on_c, 0, 84, 36
2, 14640, Note_on_c, 0, 84, 0
2, 14640, Note_on_c, 0, 84, 36
2, 14700, Note_on_c, 0, 84, 0
2, 14700, Note_on_c, 0, 84, 36
2, 14760, Note_on_c, 0, 84, 0
2, 14760, Note_on_c, 0, 84, 36
2, 14820, Note_on_c, 0, 84, 0
2, 14820, Note_on_c, 0, 84, 36
2, 14880, Note_on_c, 0, 84, 0
2, 14880, Note_on_c, 0, 84, 36
2, 14940, Note_on_c, 0, 84, 0
2, 14940, Note_on_c, 0, 84, 36
2, 15000, Note_on_c, 0, 84, 0
2, 15000, Note_on_c, 0, 84, 36
2, 15060, Note_on_c, 0, 84, 0
2, 15060, Note_on_c, 0, 84, 36
2, 15120, Note_on_c, 0, 84, 0
2, 15120, Note_on_c, 0, 84, 36
2, 15180, Note_on_c, 0, 84, 0
2, 15180, Note_on_c, 0, 84, 36
2, 15240, Note_on_c, 0, 84, 0
2, 15240, Note_on_c, 0, 84, 36
2, 15300, Note_on_c, 0, 84, 0
2, 15300, Note_on_c, 0, 84, 36
2, 15360, Note_on_c, 0, 84, 0
2, 15360, Note_on_c, 0, 84, 36
2, 15420, Note_on_c, 0, 84, 0
2, 15420, Note_on_c, 0, 84, 36
2, 15480, Note_on_c, 0, 84, 0
2, 15480, Note_on_c, 0, 84, 36
2, 15540, Note_on_c, 0, 84, 0
2, 15540, Note_on_c, 0, 84, 36
2, 15600, Note_on_c, 0, 84, 0
2, 15600, Note_on_c, 0, 84, 36
2, 15660, Note_on_c, 0, 84, 0
2, 15660, Note_on_c, 0, 84, 36
2, 15720, Note_on_c, 0, 84, 0
2, 15720, Note_on_c, 0, 84, 36
2, 15780, Note_on_c, 0, 84, 0
2, 15780, Note_on_c, 0, 84, 36
2, 15840, Note_on_c, 0, 84, 0
2, 15840, Note_on_c, 0, 84, 36
2, 15900, Note_on_c, 0, 84, 0
2, 15900, Note_on_c, 0, 84, 36
2, 15960, Note_on_c, 0, 84, 0
2, 15960, Note_on_c, 0, 84, 36
2, 16020, Note_on_c, 0, 84, 0
2, 16020, Note_on_c, 0, 84, 36
2, 16080, Note_on_c, 0, 84, 0
2, 16080, Note_on_c, 0, 84, 36
2, 16140, Note_on_c, 0, 84, 0
2, 16140, Note_on_c, 0, 84, 36
2, 16200, Note_on_c, 0, 84, 0
2, 16200, Note_on_c, 0, 84, 36
2, 16260, Note_on_c, 0, 84, 0
2, 16260, Note_on_c, 0, 84, 36
2, 16320, Note_on_c, 0, 84, 0
2, 16320, Note_on_c, 0, 84, 36
2, 16380, Note_on_c, 0, 84, 0
2, 16380, Note_on_c, 0, 84, 36
2, 16440, Note_on_c, 0, 84, 0
2, 16440, Note_on_c, 0, 84, 36
2, 16500, Note_on_c, 0, 84, 0
2, 16500, Note_on_c, 0, 84, 36
2, 16560, Note_on_c, 0, 84, 0
2, 16560, Note_on_c, 0, 84, 36
2, 16620, Note_on_c, 0, 84, 0
2, 16620, Note_on_c, 0, 84, 36
2, 16680, Note_on_c, 0, 84, 0
2, 16680, Note_on_c, 0, 84, 36
2, 16740, Note_on_c, 0, 84, 0
2, 16740, Note_on_c, 0, 84, 36
2, 16800, Note_on_c, 0, 84, 0
2, 16800, Note_on_c, 0, 84, 36
2, 16860, Note_on_c, 0, 84, 0
2, 16860, Note_on_c, 0, 84, 36
2, 16920, Note_on_c, 0, 84, 0
2, 16920, Note_on_c, 0, 84, 36
2, 16980, Note_on_c, 0, 84, 0
2, 16980, Note_on_c, 0, 84, 36
2, 17040, Note_on_c, 0, 84, 0
2, 17040, Note_on_c, 0, 84, 36
2, 17100, Note_on_c, 0, 84, 0
2, 17100, Note_on_c, 0, 84, 36
2, 17160, Note_on_c, 0, 84, 0
2, 17160, Note_on_c, 0, 84, 36
2, 17220, Note_on_c, 0, 84, 0
2, 17220, Note_on_c, 0, 84, 36
2, 17280, Note_on_c, 0, 84, 0
2, 17280, Note_on_c, 0, 84, 36
2, 17340, Note_on_c, 0, 84, 0
2, 17340, Note_on_c, 0, 84, 36
2, 17400, Note_on_c, 0, 84, 0
2, 17400, Note_on_c, 0, 84, 36
2, 17460, Note_on_c, 0, 84, 0
2, 17460, Note_on_c, 0, 84, 36
2, 17520, Note_on_c, 0, 84, 0
2, 17520, Note_on_c, 0, 84, 36
2, 17580, Note_on_c, 0, 84, 0
2, 17580, Note_on_c, 0, 84, 36
2, 17640, Note_on_c, 0, 84, 0
2, 17640, Note_on_c, 0, 84, 36
2, 17700, Note_on_c, 0, 84, 0
2, 17700, Note_on_c, 0, 84, 36
2, 17760, Note_on_c, 0, 84, 0
2, 17760, Note_on_c, 0, 84, 36
2, 17820, Note_on_c, 0, 84, 0
2, 17820, Note_on_c, 0, 84, 36
2, 17880, Note_on_c, 0, 84, 0
2, 17880, Note_on_c, 0, 84, 36
2, 17940, Note_on_c, 0, 84, 0
2, 17940, Note_on_c, 0, 84, 36
2, 18000, Note_on_c, 0, 84, 0
2, 18000, Note_on_c, 0, 84, 36
2, 18060, Note_on_c, 0, 84, 0
2, 18060, Note_on_c, 0, 84, 36
2, 18120, Note_on_c, 0, 84, 0
2, 18120, Note_on_c, 0, 84, 36
2, 18180, Note_on_c, 0, 84, 0
2, 18180, Note_on_c, 0, 84, 36
2, 18240, Note_on_c, 0, 84, 0
2, 18240, Note_on_c, 0, 84, 36
2, 18300, Note_on_c, 0, 84, 0
2, 18300, Note_on_c, 0, 84, 36
2, 18360, Note_on_c, 0, 84, 0
2, 18360, Note_on_c, 0, 84, 36
2, 18420, Note_on_c, 0, 84, 0
2, 18420, Note_on_c, 0, 84, 36
2, 18480, Note_on_c, 0, 84, 0
2, 18480, Note_on_c, 0, 84, 36
2, 18540, Note_on_c, 0, 84, 0
2, 18540, Note_on_c, 0, 84, 36
2, 18600, Note_on_c, 0, 84, 0
2, 18600, Note_on_c, 0, 84, 36
2, 18660, Note_on_c, 0, 84, 0
2, 18660, Note_on_c, 0, 84, 36
2, 18720, Note_on_c, 0, 84, 0
2, 18720, Note_on_c, 0, 84, 36
2, 18780, Note_on_c, 0, 84, 0
2, 18780, Note_on_c, 0, 84, 36
2, 18840, Note_on_c, 0, 84, 0
2, 18840, Note_on_c, 0, 84, 36
2, 18900, Note_on_c, 0, 84, 0
2, 18900, Note_on_c, 0, 84, 36
2, 18960, Note_on_c, 0, 84, 0
2, 18960, Note_on_c, 0, 84, 36
2, 19020, Note_on_c, 0, 84, 0
2, 19020, Note_on_c, 0, 84, 36
2, 19080, Note_on_c, 0, 84, 0
2, 19080, Note_on_c, 0, 84, 36
2, 19140, Note_on_c, 0, 84, 0
2, 19140, Note_on_c, 0, 84, 36
2, 19200, Note_on_c, 0, 84, 0
2, 19200, Note_on_c, 0, 84, 36
2, 19260, Note_on_c, 0, 84, 0
2, 19260, Note_on_c, 0, 84, 36
2, 19320, Note_on_c, 0, 84, 0
2, 19320, Note_on_c, 0, 84, 36
2, 19380, Note_on_c, 0, 84, 0
2, 19380, Note_on_c, 0, 84, 36
2, 19440, Note_on_c, 0, 84, 0
2, 19440, Note_on_c, 0, 84, 36
2, 19500, Note_on_c, 0, 84, 0
2, 19500, Note_on_c, 0, 84, 36
2, 19560, Note_on_c, 0, 84, 0
2, 19560, Note_on_c, 0, 84, 36
2, 19620, Note_on_c, 0, 84, 0
2, 19620, Note_on_c, 0, 84, 36
2, 19680, Note_on_c, 0, 84, 0
2, 19680, Note_on_c, 0, 84, 36
2, 19740, Note_on_c, 0, 84, 0
2, 19740, Note_on_c, 0, 84, 36
2, 19800, Note_on_c, 0, 84, 0
2, 19800, Note_on_c, 0, 84, 36
2, 19860, Note_on_c, 0, 84, 0
2, 19860, Note_on_c, 0, 84, 36
2, 19920, Note_on_c, 0, 84, 0
2, 19920, Note_on_c, 0, 84, 36
2, 19980, Note_on_c, 0, 84, 0
2, 19980, Note_on_c, 0, 84, 36
2, 20040, Note_on_c, 0, 84, 0
2, 20040, Note_on_c, 0, 84, 36
2, 20100, Note_on_c, 0, 84, 0
2, 20100, Note_on_c, 0, 84, 36
2, 20160, Note_on_c, 0, 84, 0
2, 20160, Note_on_c, 0, 84, 36
2, 20220, Note_on_c, 0, 84, 0
2, 20220, Note_on_c, 0, 84, 36
2, 20280, Note_on_c, 0, 84, 0
2, 20280, Note_on_c, 0, 84, 36
2, 20340, Note_on_c, 0, 84, 0
2, 20340, Note_on_c, 0, 84, 36
2, 20400, Note_on_c, 0, 84, 0
2, 20400, Note_on_c, 0, 84, 36
2, 20460, Note_on_c, 0, 84, 0
2, 20460, Note_on_c, 0, 84, 36
2, 20520, Note_on_c, 0, 84, 0
2, 20520, Note_on_c, 0, 84, 36
2, 20580, Note_on_c, 0, 84, 0
2, 20580, Note_on_c, 0, 84, 36
2, 20640, Note_on_c, 0, 84, 0
2, 20640, Note_on_c, 0, 84, 36
2, 20700, Note_on_c, 0, 84, 0
2, 20700, Note_on_c, 0, 84, 36
2, 20760, Note_on_c, 0, 84, 0
2, 20760, Note_on_c, 0, 84, 36
2, 20820, Note_on_c, 0, 84, 0
2, 20820, Note_on_c, 0, 84, 36
2, 20880, Note_on_c, 0, 84, 0
2, 20880, Note_on_c, 0, 84, 36
2, 20940, Note_on_c, 0, 84, 0
2, 20940, Note_on_c, 0, 84, 36
2, 21000, Note_on_c, 0, 84, 0
2, 21000, Note_on_c, 0, 84, 36
2, 21060, Note_on_c, 0, 84, 0
2, 21060, Note_on_c, 0, 84, 36
2, 21120, Note_on_c, 0, 84, 0
2, 21120, Note_on_c, 0, 84, 36
2, 21180, Note_on_c, 0, 84, 0
2, 21180, Note_on_c, 0, 84, 36
2, 21240, Note_on_c, 0, 84, 0
2, 21240, Note_on_c, 0, 84, 36
2, 21300, Note_on_c, 0, 84, 0
2, 21300, Note_on_c, 0, 84, 36
2, 21360, Note_on_c, 0, 84, 0
2, 21360, Note_on_c, 0, 84, 36
2, 21420, Note_on_c, 0, 84, 0
2, 21420, Note_on_c, 0, 84, 36
2, 21480, Note_on_c, 0, 84, 0
2, 21480, Note_on_c, 0, 84, 36
2, 21540, Note_on_c, 0, 84, 0
2, 21540, Note_on_c, 0, 84, 36
2, 21600, Note_on_c, 0, 84, 0
2, 21600, Note_on_c, 0, 84, 36
2, 21660, Note_on_c, 0, 84, 0
2, 21660, Note_on_c, 0, 84, 36
2, 21720, Note_on_c, 0, 84, 0
2, 21720, Note_on_c, 0, 84, 36
2, 21780, Note_on_c, 0, 84, 0
2, 21780, Note_on_c, 0, 84, 36
2, 21840, Note_on_c, 0, 84, 0
2, 21840, Note_on_c, 0, 84, 36
2, 21900, Note_on_c, 0, 84, 0
2, 21900, Note_on_c, 0, 84, 36
2, 21960, Note_on_c, 0, 84, 0
2, 21960, Note_on_c, 0, 84, 36
2, 22020, Note_on_c, 0, 84, 0
2, 22020, Note_on_c, 0, 84, 36
2, 22080, Note_on_c, 0, 84, 0
2, 22080, Note_on_c, 0, 84, 36
2, 22140, Note_on_c, 0, 84, 0
2, 22140, Note_on_c, 0, 84, 36
2, 22200, Note_on_c, 0, 84, 0
2, 22200, Note_on_c, 0, 84, 36
2, 22260, Note_on_c, 0, 84, 0
2, 22260, Note_on_c, 0, 84, 36
2, 22320, Note_on_c, 0, 84, 0
2, 22320, Note_on_c, 0, 84, 36
2, 22380, Note_on_c, 0, 84, 0
2, 22380, Note_on_c, 0, 84, 36
2, 22440, Note_on_c, 0, 84, 0
2, 22440, Note_on_c, 0, 84, 36
2, 22500, Note_on_c, 0, 84, 0
2, 22500, Note_on_c, 0, 84, 36
2, 22560, Note_on_c, 0, 84, 0
2, 22560, Note_on_c, 0, 84, 36
2, 22620, Note_on_c, 0, 84, 0
2, 22620, Note_on_c, 0, 84, 36
2, 22680, Note_on_c, 0, 84, 0
2, 22680, Note_on_c, 0, 84, 36
2, 22740, Note_on_c, 0, 84, 0
2, 22740, Note_on_c, 0, 84, 36
2, 22800, Note_on_c, 0, 84, 0
2, 22800, Note_on_c, 0, 84, 36
2, 22860, Note_on_c, 0, 84, 0
2, 22860, Note_on_c, 0, 84, 36
2, 22920, Note_on_c, 0, 84, 0
2, 22920, Note_on_c, 0, 84, 36
2, 22980, Note_on_c, 0, 84, 0
2, 22980, Note_on_c, 0, 84, 36
2, 23040, Note_on_c, 0, 84, 0
2, 23040, Note_on_c, 0, 84, 36
2, 23100, Note_on_c, 0, 84, 0
2, 23100, Note_on_c, 0, 84, 36
2, 23160, Note_on_c, 0, 84, 0
2, 23160, Note_on_c, 0, 84, 36
2, 23220, Note_on_c, 0, 84, 0
2, 23220, Note_on_c, 0, 84, 36
2, 23280, Note_on_c, 0, 84, 0
2, 23280, Note_on_c, 0, 84, 36
2, 23340, Note_on_c, 0, 84, 0
2, 23340, Note_on_c, 0, 84, 36
2, 23400, Note_on_c, 0, 84, 0
2, 23400, Note_on_c, 0, 84, 36
2, 23460, Note_on_c, 0, 84, 0
2, 23460, Note_on_c, 0, 84, 36
2, 23520, Note_on_c, 0, 84, 0
2, 23520, Note_on_c, 0, 84, 36
2, 23580, Note_on_c, 0, 84, 0
2, 23580, Note_on_c, 0, 84, 36
2, 23640, Note_on_c, 0, 84, 0
2, 23640, Note_on_c, 0, 84, 36
2, 23700, Note_on_c, 0, 84, 0
2, 23700, Note_on_c, 0, 84, 36
2, 23760, Note_on_c, 0, 84, 0
2, 23760, Note_on_c, 0, 84, 36
2, 23820, Note_on_c, 0, 84, 0
2, 23820, Note_on_c, 0, 84, 36
2, 23880, Note_on_c, 0, 84, 0
2, 23880, Note_on_c, 0, 84, 36
2, 23940, Note_on_c, 0, 84, 0
2, 23940, Note_on_c, 0, 84, 36
2, 24000, Note_on_c, 0, 84, 0
2, 24000, Note_on_c, 0, 84, 36
2, 24060, Note_on_c, 0, 84, 0
2, 24060, Note_on_c, 0, 84, 36
2, 24120, Note_on_c, 0, 84, 0
2, 24120, Note_on_c, 0, 84, 36
2, 24180, Note_on_c, 0, 84, 0
2, 24180, Note_on_c, 0, 84, 36
2, 24240, Note_on_c, 0, 84, 0
2, 24240, Note_on_c, 0, 84, 36
2, 24300, Note_on_c, 0, 84, 0
2, 24300, Note_on_c, 0, 84, 36
2, 24360, Note_on_c, 0, 84, 0
2, 24360, Note_on_c, 0, 84, 36
2, 24420, Note_on_c, 0, 84, 0
2, 24420, Note_on_c, 0, 84, 36
2, 24480, Note_on_c, 0, 84, 0
2, 24480, Note_on_c, 0, 84, 36
2, 24540, Note_on_c, 0, 84, 0
2, 24540, Note_on_c, 0, 84, 36
2, 24600, Note_on_c, 0, 84, 0
2, 24600, Note_on_c, 0, 84, 36
2, 24660, Note_on_c, 0, 84, 0
2, 24660, Note_on_c, 0, 84, 36
2, 24720, Note_on_c, 0, 84, 0
2, 24720, Note_on_c, 0, 84, 36
2, 24780, Note_on_c, 0, 84, 0
2, 24780, Note_on_c, 0, 84, 36
2, 24840, Note_on_c, 0, 84, 0
2, 24840, Note_on_c, 0, 84, 36
2, 24900, Note_on_c, 0, 84, 0
2, 24900, Note_on_c, 0, 84, 36
2, 24960, Note_on_c, 0, 84, 0
2, 24960, Note_on_c, 0, 84, 36
2, 25020, Note_on_c, 0, 84, 0
2, 25020, Note_on_c, 0, 84, 36
2, 25080, Note_on_c, 0, 84, 0
2, 25080, Note_on_c, 0, 84, 36
2, 25140, Note_on_c, 0, 84, 0
2, 25140, Note_on_c, 0, 84, 36
2, 25200, Note_on_c, 0, 84, 0
2, 25200, Note_on_c, 0, 84, 36
2, 25260, Note_on_c, 0, 84, 0
2, 25260, Note_on_c, 0, 84, 36
2, 25320, Note_on_c, 0, 84, 0
2, 25320, Note_on_c, 0, 84, 36
2, 25380, Note_on_c, 0, 84, 0
2, 25380, Note_on_c, 0, 84, 36
2, 25440, Note_on_c, 0, 84, 0
2, 25440, Note_on_c, 0, 84, 36
2, 25500, Note_on_c, 0, 84, 0
2, 25500, Note_on_c, 0, 84, 36
2, 25560, Note_on_c, 0, 84, 0
2, 25560, Note_on_c, 0, 84, 36
2, 25620, Note_on_c, 0, 84, 0
2, 25620, Note_on_c, 0, 84, 36
2, 25680, Note_on_c, 0, 84, 0
2, 25680, Note_on_c, 0, 84, 36
2, 25740, Note_on_c, 0, 84, 0
2, 25740, Note_on_c, 0, 84, 36
2, 25800, Note_on_c, 0, 84, 0
2, 25800, Note_on_c, 0, 84, 36
2, 25860, Note_on_c, 0, 84, 0
2, 25860, Note_on_c, 0, 84, 36
2, 25920, Note_on_c, 0, 84, 0
2, 25920, Note_on_c, 0, 84, 36
2, 25980, Note_on_c, 0, 84, 0
2, 25980, Note_on_c, 0, 84, 36
2, 26040, Note_on_c, 0, 84, 0
2, 26040, Note_on_c, 0, 84, 36
2, 26100, Note_on_c, 0, 84, 0
2, 26100, Note_on_c, 0, 84, 36
2, 26160, Note_on_c, 0, 84, 0
2, 26160, Note_on_c, 0, 84, 36
2, 26220, Note_on_c, 0, 84, 0
2, 26220, Note_on_c, 0, 84, 36
2, 26280, Note_on_c, 0, 84, 0
2, 26280, Note_on_c, 0, 84, 36
2, 26340, Note_on_c, 0, 84, 0
2, 26340, Note_on_c, 0, 84, 36
2, 26400, Note_on_c, 0, 84, 0
2, 26400, Note_on_c, 0, 84, 36
2, 26460, Note_on_c, 0, 84, 0
2, 26460, Note_on_c, 0, 84, 36
2, 26520, Note_on_c, 0, 84, 0
2, 26520, Note_on_c, 0, 84, 36
2, 26580, Note_on_c, 0, 84, 0
2, 26580, Note_on_c, 0, 84, 36
2, 26640, Note_on_c, 0, 84, 0
2, 26640, Note_on_c, 0, 84, 36
2, 26700, Note_on_c, 0, 84, 0
2, 26700, Note_on_c, 0, 84, 36
2, 26760, Note_on_c, 0, 84, 0
2, 26760, Note_on_c, 0, 84, 36
2, 26820, Note_on_c, 0, 84, 0
2, 26820, Note_on_c, 0, 84, 36
2, 26880, Note_on_c, 0, 84, 0
2, 26880, Note_on_c, 0, 84, 36
2, 26940, Note_on_c, 0, 84, 0
2, 26940, Note_on_c, 0, 84, 36
2, 27000, Note_on_c, 0, 84, 0
2, 27000, Note_on_c, 0, 84, 36
2, 27060, Note_on_c, 0, 84, 0
2, 27060, Note_on_c, 0, 84, 36
2, 27120, Note_on_c, 0, 84, 0
2, 27120, Note_on_c, 0, 84, 36
2, 27180, Note_on_c, 0, 84, 0
2, 27180, Note_on_c, 0, 84, 36
2, 27240, Note_on_c, 0, 84, 0
2, 27240, Note_on_c, 0, 84, 36
2, 27300, Note_on_c, 0, 84, 0
2, 27300, Note_on_c, 0, 84, 36
2, 27360, Note_on_c, 0, 84, 0
2, 27360, Note_on_c, 0, 84, 36
2, 27420, Note_on_c, 0, 84, 0
2, 27420, Note_on_c, 0, 84, 36
2, 27480, Note_on_c, 0, 84, 0
2, 27480, Note_on_c, 0, 84, 36
2, 27540, Note_on_c, 0, 84, 0
2, 27540, Note_on_c, 0, 84, 36
2, 27600, Note_on_c, 0, 84, 0
2, 27600, Note_on_c, 0, 84, 36
2, 27660, Note_on_c, 0, 84, 0
2, 27660, Note_on_c, 0, 84, 36
2, 27720, Note_on_c, 0, 84, 0
2, 27720, Note_on_c, 0, 84, 36
2, 27780, Note_on_c, 0, 84, 0
2, 27780, Note_on_c, 0, 84, 36
2, 27840, Note_on_c, 0, 84, 0
2, 27840, Note_on_c, 0, 84, 36
2, 27900, Note_on_c, 0, 84, 0
2, 27900, Note_on_c, 0, 84, 36
2, 27960, Note_on_c, 0, 84, 0
2, 27960, Note_on_c, 0, 84, 36
2, 28020, Note_on_c, 0, 84, 0
2, 28020, Note_on_c, 0, 84, 36
2, 28080, Note_on_c, 0, 84, 0
2, 28080, Note_on_c, 0, 84, 36
2, 28140, Note_on_c, 0, 84, 0
2, 28140, Note_on_c, 0, 84, 36
2, 28200, Note_on_c, 0, 84, 0
2, 28200, Note_on_c, 0, 84, 36
2, 28260, Note_on_c, 0, 84, 0
2, 28260, Note_on_c, 0, 84, 36
2, 28320, Note_on_c, 0, 84, 0
2, 28320, Note_on_c, 0, 84, 36
2, 28380, Note_on_c, 0, 84, 0
2, 28380, Note_on_c, 0, 84, 36
2, 28440, Note_on_c, 0, 84, 0
2, 28440, Note_on_c, 0, 84, 36
2, 28500, Note_on_c, 0, 84, 0
2, 28500, Note_on_c, 0, 84, 36
2, 28560, Note_on_c, 0, 84, 0
2, 28560, Note_on_c, 0, 84, 36
2, 28620, Note_on_c, 0, 84, 0
2, 28620, Note_on_c, 0, 84, 36
2, 28680, Note_on_c, 0, 84, 0
2, 28680, Note_on_c, 0, 84, 36
2, 28740, Note_on_c, 0, 84, 0
2, 28740, Note_on_c, 0, 84, 36
2, 28800, Note_on_c, 0, 84, 0
2, 28800, Note_on_c, 0, 84, 36
2, 28860, Note_on_c, 0, 84, 0
2, 28860, Note_on_c, 0, 84, 36
2, 28920, Note_on_c, 0, 84, 0
2, 28920, Note_on_c, 0, 84, 36
2, 28980, Note_on_c, 0, 84, 0
2, 28980, Note_on_c, 0, 84, 36
2, 29040, Note_on_c, 0, 84, 0
2, 29040, Note_on_c, 0, 84, 36
2, 29100, Note_on_c, 0, 84, 0
2, 29100, Note_on_c, 0, 84, 36
2, 29160, Note_on_c, 0, 84, 0
2, 29160, Note_on_c, 0, 84, 36
2, 29220, Note_on_c, 0, 84, 0
2, 29220, Note_on_c, 0, 84, 36
2, 29280, Note_on_c, 0, 84, 0
2, 29280, Note_on_c, 0, 84, 36
2, 29340, Note_on_c, 0, 84, 0
2, 29340, Note_on_c, 0, 84, 36
2, 29400, Note_on_c, 0, 84, 0
2, 29400, Note_on_c, 0, 84, 36
2, 29460, Note_on_c, 0, 84, 0
2, 29460, Note_on_c, 0, 84, 36
2, 29520, Note_on_c, 0, 84, 0
2, 29520, Note_on_c, 0, 84, 36
2, 29580, Note_on_c, 0, 84, 0
2, 29580, Note_on_c, 0, 84, 36
2, 29640, Note_on_c, 0, 84, 0
2, 29640, Note_on_c, 0, 84, 36
2, 29700, Note_on_c, 0, 84, 0
2, 29700, Note_on_c, 0, 84, 36
2, 29760, Note_on_c, 0, 84, 0
2, 29760, Note_on_c, 0, 84, 36
2, 29820, Note_on_c, 0, 84, 0
2, 29820, Note_on_c, 0, 84, 36
2, 29880, Note_on_c, 0, 84, 0
2, 29880, Note_on_c, 0, 84, 36
2, 29940, Note_on_c, 0, 84, 0
2, 29940, Note_on_c, 0, 84, 36
2, 30000, Note_on_c, 0, 84, 0
2, 30000, Note_on_c, 0, 84, 36
2, 30060, Note_on_c, 0, 84, 0
2, 30060, Note_on_c, 0, 84, 36
2, 30120, Note_on_c, 0, 84, 0
2, 30120, Note_on_c, 0, 84, 36
2, 30180, Note_on_c, 0, 84, 0
2, 30180, Note_on_c, 0, 84, 36
2, 30240, Note_on_c, 0, 84, 0
2, 30240, Note_on_c, 0, 84, 36
2, 30300, Note_on_c, 0, 84, 0
2, 30300, Note_on_c, 0, 84, 36
2, 30360, Note_on_c, 0, 84, 0
2, 30360, Note_on_c, 0, 84, 36
2, 30420, Note_on_c, 0, 84, 0
2, 30420, Note_on_c, 0, 84, 36
2, 30480, Note_on_c, 0, 84, 0
2, 30480, Note_on_c, 0, 84, 36
2, 30540, Note_on_c, 0, 84, 0
2, 30540, Note_on_c, 0, 84, 36
2, 30600, Note_on_c, 0, 84, 0
2, 30600, Note_on_c, 0, 84, 36
2, 30660, Note_on_c, 0, 84, 0
2, 30660, Note_on_c, 0, 84, 36
2, 30720, Note_on_c, 0, 84, 0
2, 30720, Note_on_c, 0, 84, 36
2, 30780, Note_on_c, 0, 84, 0
2, 30780, Note_on_c, 0, 84, 36
2, 30840, Note_on_c, 0, 84, 0
2, 30840, Note_on_c, 0, 84, 36
2, 30900, Note_on_c, 0, 84, 0
2, 30900, Note_on_c, 0, 84, 36
2, 30960, Note_on_c, 0, 84, 0
2, 30960, Note_on_c, 0, 84, 36
2, 31020, Note_on_c, 0, 84, 0
2, 31020, Note_on_c, 0, 84, 36
2, 31080, Note_on_c, 0, 84, 0
2, 31080, Note_on_c, 0, 84, 36
2, 31140, Note_on_c, 0, 84, 0
2, 31140, Note_on_c, 0, 84, 36
2, 31200, Note_on_c, 0, 84, 0
2, 31200, Note_on_c, 0, 84, 36
2, 31260, Note_on_c, 0, 84, 0
2, 31260, Note_on_c, 0, 84, 36
2, 31320, Note_on_c, 0, 84, 0
2, 31320, Note_on_c, 0, 84, 36
2, 31380, Note_on_c, 0, 84, 0
2, 31380, Note_on_c, 0, 84, 36
2, 31440, Note_on_c, 0, 84, 0
2, 31440, Note_on_c, 0, 84, 36
2, 31500, Note_on_c, 0, 84, 0
2, 31500, Note_on_c, 0, 84, 36
2, 31560, Note_on_c, 0, 84, 0
2, 31560, Note_on_c, 0, 84, 36
2, 31620, Note_on_c, 0, 84, 0
2, 31620, Note_on_c, 0, 84, 36
2, 31680, Note_on_c, 0, 84, 0
2, 31680, Note_on_c, 0, 84, 36
2, 31740, Note_on_c, 0, 84, 0
2, 31740, Note_on_c, 0, 84, 36
2, 31800, Note_on_c, 0, 84, 0
2, 31800, Note_on_c, 0, 84, 36
2, 31860, Note_on_c, 0, 84, 0
2, 31860, Note_on_c, 0, 84, 36
2, 31920, Note_on_c, 0, 84, 0
2, 31920, Note_on_c, 0, 84, 36
2, 31980, Note_on_c, 0, 84, 0
2, 31980, Note_on_c, 0, 84, 36
2, 32040, Note_on_c, 0, 84, 0
2, 32040, Note_on_c, 0, 84, 36
2, 32100, Note_on_c, 0, 84, 0
2, 32100, Note_on_c, 0, 84, 36
2, 32160, Note_on_c, 0, 84, 0
2, 32160, Note_on_c, 0, 84, 36
2, 32220, Note_on_c, 0, 84, 0
2, 32220, Note_on_c, 0, 84, 36
2, 32280, Note_on_c, 0, 84, 0
2, 32280, Note_on_c, 0, 84, 36
2, 32340, Note_on_c, 0, 84, 0
2, 32340, Note_on_c, 0, 84, 36
2, 32400, Note_on_c, 0, 84, 0
2, 32400, Note_on_c, 0, 84, 36
2, 32460, Note_on_c, 0, 84, 0
2, 32460, Note_on_c, 0, 84, 36
2, 32520, Note_on_c, 0, 84, 0
2, 32520, Note_on_c, 0, 84, 36
2, 32580, Note_on_c, 0, 84, 0
2, 32580, Note_on_c, 0, 84, 36
2, 32640, Note_on_c, 0, 84, 0
2, 32640, Note_on_c, 0, 84, 36
2, 32700, Note_on_c, 0, 84, 0
2, 32700, Note_on_c, 0, 84, 36
2, 32760, Note_on_c, 0, 84, 0
2, 32760, Note_on_c, 0, 84, 36
2, 32820, Note_on_c, 0, 84, 0
2, 32820, Note_on_c, 0, 84, 36
2, 32880, Note_on_c, 0, 84, 0
2, 32880, Note_on_c, 0, 84, 36
2, 32940, Note_on_c, 0, 84, 0
2, 32940, Note_on_c, 0, 84, 36
2, 33000, Note_on_c, 0, 84, 0
2, 33000, Note_on_c, 0, 84, 36
2, 33060, Note_on_c, 0, 84, 0
2, 33060, Note_on_c, 0, 84, 36
2, 33120, Note_on_c, 0, 84, 0
2, 33120, Note_on_c, 0, 84, 36
2, 33180, Note_on_c, 0, 84, 0
2, 33180, Note_on_c, 0, 84, 36
2, 33240, Note_on_c, 0, 84, 0
2, 33240, Note_on_c, 0, 84, 36
2, 33300, Note_on_c, 0, 84, 0
2, 33300, Note_on_c, 0, 84, 36
2, 33360, Note_on_c, 0, 84, 0
2, 33360, Note_on_c, 0, 84, 36
2, 33420, Note_on_c, 0, 84, 0
2, 33420, Note_on_c, 0, 84, 36
2, 33480, Note_on_c, 0, 84, 0
2, 33480, Note_on_c, 0, 84, 36
2, 33540, Note_on_c, 0, 84, 0
2, 33540, Note_on_c, 0, 84, 36
2, 33600, Note_on_c, 0, 84, 0
2, 33600, Note_on_c, 0, 84, 36
2, 33660, Note_on_c, 0, 84, 0
2, 33660, Note_on_c, 0, 84, 36
2, 33720, Note_on_c, 0, 84, 0
2, 33720, Note_on_c, 0, 84, 36
2, 33780, Note_on_c, 0, 84, 0
2, 33780, Note_on_c, 0, 84, 36
2, 33840, Note_on_c, 0, 84, 0
2, 33840, Note_on_c, 0, 84, 36
2, 33900, Note_on_c, 0, 84, 0
2, 33900, Note_on_c, 0, 84, 36
2, 33960, Note_on_c, 0, 84, 0
2, 33960, Note_on_c, 0, 84, 36
2, 34020, Note_on_c, 0, 84, 0
2, 34020, Note_on_c, 0, 84, 36
2, 34080, Note_on_c, 0, 84, 0
2, 34080, Note_on_c, 0, 84, 36
2, 34140, Note_on_c, 0, 84, 0
2, 34140, Note_on_c, 0, 84, 36
2, 34200, Note_on_c, 0, 84, 0
2, 34200, Note_on_c, 0, 84, 36
2, 34260, Note_on_c, 0, 84, 0
2, 34260, Note_on_c, 0, 84, 36
2, 34320, Note_on_c, 0, 84, 0
2, 34320, Note_on_c, 0, 84, 36
2, 34380, Note_on_c, 0, 84, 0
2, 34380, Note_on_c, 0, 84, 36
2, 34440, Note_on_c, 0, 84, 0
2, 34440, Note_on_c, 0, 84, 36
2, 34500, Note_on_c, 0, 84, 0
2, 34500, Note_on_c, 0, 84, 36
2, 34560, Note_on_c, 0, 84, 0
2, 34560, Note_on_c, 0, 84, 36
2, 34620, Note_on_c, 0, 84, 0
2, 34620, Note_on_c, 0, 84, 36
2, 34680, Note_on_c, 0, 84, 0
2, 34680, Note_on_c, 0, 84, 36
2, 34740, Note_on_c, 0, 84, 0
2, 34740, Note_on_c, 0, 84, 36
2, 34800, Note_on_c, 0, 84, 0
2, 34800, Note_on_c, 0, 84, 36
2, 34860, Note_on_c, 0, 84, 0
2, 34860, Note_on_c, 0, 84, 36
2, 34920, Note_on_c, 0, 84, 0
2, 34920, Note_on_c, 0, 84, 36
2, 34980, Note_on_c, 0, 84, 0
2, 34980, Note_on_c, 0, 84, 36
2, 35040, Note_on_c, 0, 84, 0
2, 35040, Note_on_c, 0, 84, 36
2, 35100, Note_on_c, 0, 84, 0
2, 35100, Note_on_c, 0, 84, 36
2, 35160, Note_on_c, 0, 84, 0
2, 35160, Note_on_c, 0, 84, 36
2, 35220, Note_on_c, 0, 84, 0
2, 35220, Note_on_c, 0, 84, 36
2, 35280, Note_on_c, 0, 84, 0
2, 35280, Note_on_c, 0, 84, 36
2, 35340, Note_on_c, 0, 84, 0
2, 35340, Note_on_c, 0, 84, 36
2, 35400, Note_on_c, 0, 84, 0
2, 35400, Note_on_c, 0, 84, 36
2, 35460, Note_on_c, 0, 84, 0
2, 35460, Note_on_c, 0, 84, 36
2, 35520, Note_on_c, 0, 84, 0
2, 35520, Note_on_c, 0, 84, 36
2, 35580, Note_on_c, 0, 84, 0
2, 35580, Note_on_c, 0, 84, 36
2, 35640, Note_on_c, 0, 84, 0
2, 35640, Note_on_c, 0, 84, 36
2, 35700, Note_on_c, 0, 84, 0
2, 35700, Note_on_c, 0, 84, 36
2, 35760, Note_on_c, 0, 84, 0
2, 35760, Note_on_c, 0, 84, 36
2, 35820, Note_on_c, 0, 84, 0
2, 35820, Note_on_c, 0, 84, 36
2, 35880, Note_on_c, 0, 84, 0
2, 35880, Note_on_c, 0, 84, 36
2, 35940, Note_on_c, 0, 84, 0
2, 35940, Note_on_c, 0, 84, 36
2, 36000, Note_on_c, 0, 84, 0
2, 36000, Note_on_c, 0, 84, 36
2, 36060, Note_on_c, 0, 84, 0
2, 36060, Note_on_c, 0, 84, 36
2, 36120, Note_on_c, 0, 84, 0
2, 36120, Note_on_c, 0, 84, 36
2, 36180, Note_on_c, 0, 84, 0
2, 36180, Note_on_c, 0, 84, 36
2, 36240, Note_on_c, 0, 84, 0
2, 36240, Note_on_c, 0, 84, 36
2, 36300, Note_on_c, 0, 84, 0
2, 36300, Note_on_c, 0, 84, 36
2, 36360, Note_on_c, 0, 84, 0
2, 36360, Note_on_c, 0, 84, 36
2, 36420, Note_on_c, 0, 84, 0
2, 36420, Note_on_c, 0, 84, 36
2, 36480, Note_on_c, 0, 84, 0
2, 36480, Note_on_c, 0, 84, 36
2, 36540, Note_on_c, 0, 84, 0
2, 36540, Note_on_c, 0, 84, 36
2, 36600, Note_on_c, 0, 84, 0
2, 36600, Note_on_c, 0, 84, 36
2, 36660, Note_on_c, 0, 84, 0
2, 36660, Note_on_c, 0, 84, 36
2, 36720, Note_on_c, 0, 84, 0
2, 36720, Note_on_c, 0, 84, 36
2, 36780, Note_on_c, 0, 84, 0
2, 36780, Note_on_c, 0, 84, 36
2, 36840, Note_on_c, 0, 84, 0
2, 36840, Note_on_c, 0, 84, 36
2, 36900, Note_on_c, 0, 84, 0
2, 36900, Note_on_c, 0, 84, 36
2, 36960, Note_on_c, 0, 84, 0
2, 36960, Note_on_c, 0, 84, 36
2, 37020, Note_on_c, 0, 84, 0
2, 37020, Note_on_c, 0, 84, 36
2, 37080, Note_on_c, 0, 84, 0
2, 37080, Note_on_c, 0, 84, 36
2, 37140, Note_on_c, 0, 84, 0
2, 37140, Note_on_c, 0, 84, 36
2, 37200, Note_on_c, 0, 84, 0
2, 37200, Note_on_c, 0, 84, 36
2, 37260, Note_on_c, 0, 84, 0
2, 37260, Note_on_c, 0, 84, 36
2, 37320, Note_on_c, 0, 84, 0
2, 37320, Note_on_c, 0, 84, 36
2, 37380, Note_on_c, 0, 84, 0
2, 37380, Note_on_c, 0, 84, 36
2, 37440, Note_on_c, 0, 84, 0
2, 37440, Note_on_c, 0, 84, 36
2, 37500, Note_on_c, 0, 84, 0
2, 37500, Note_on_c, 0, 84, 36
2, 37560, Note_on_c, 0, 84, 0
2, 37560, Note_on_c, 0, 84, 36
2, 37620, Note_on_c, 0, 84, 0
2, 37620, Note_on_c, 0, 84, 36
2, 37680, Note_on_c, 0, 84, 0
2, 37680, Note_on_c, 0, 84, 36
2, 37740, Note_on_c, 0, 84, 0
2, 37740, Note_on_c, 0, 84, 36
2, 37800, Note_on_c, 0, 84, 0
2, 37800, Note_on_c, 0, 84, 36
2, 37860, Note_on_c, 0, 84, 0
2, 37860, Note_on_c, 0, 84, 36
2, 37920, Note_on_c, 0, 84, 0
2, 37920, Note_on_c, 0, 84, 36
2, 37980, Note_on_c, 0, 84, 0
2, 37980, Note_on_c, 0, 84, 36
2, 38040, Note_on_c, 0, 84, 0
2, 38040, Note_on_c, 0, 84, 36
2, 38100, Note_on_c, 0, 84, 0
2, 38100, Note_on_c, 0, 84, 36
2, 38160, Note_on_c, 0, 84, 0
2, 38160, Note_on_c, 0, 84, 36
2, 38220, Note_on_c, 0, 84, 0
2, 38220, Note_on_c, 0, 84, 36
2, 38280, Note_on_c, 0, 84, 0
2, 38280, Note_on_c, 0, 84, 36
2, 38340, Note_on_c, 0, 84, 0
2, 38340, Note_on_c, 0, 84, 36
2, 38400, Note_on_c, 0, 84, 0
2, 38400, Note_on_c, 0, 84, 36
2, 38460, Note_on_c, 0, 84, 0
2, 38460, Note_on_c, 0, 84, 36
2, 38520, Note_on_c, 0, 84, 0
2, 38520, Note_on_c, 0, 84, 36
2, 38580, Note_on_c, 0, 84, 0
2, 38580, Note_on_c, 0, 84, 36
2, 38640, Note_on_c, 0, 84, 0
2, 38640, Note_on_c, 0, 84, 36
2, 38700, Note_on_c, 0, 84, 0
2, 38700, Note_on_c, 0, 84, 36
2, 38760, Note_on_c, 0, 84, 0
2, 38760, Note_on_c, 0, 84, 36
2, 38820, Note_on_c, 0, 84, 0
2, 38820, Note_on_c, 0, 84, 36
2, 38880, Note_on_c, 0, 84, 0
2, 38880, Note_on_c, 0, 84, 36
2, 38940, Note_on_c, 0, 84, 0
2, 38940, Note_on_c, 0, 84, 36
2, 39000, Note_on_c, 0, 84, 0
2, 39000, Note_on_c, 0, 84, 36
2, 39060, Note_on_c, 0, 84, 0
2, 39060, Note_on_c, 0, 84, 36
2, 39120, Note_on_c, 0, 84, 0
2, 39120, Note_on_c, 0, 84, 36
2, 39180, Note_on_c, 0, 84, 0
2, 39180, Note_on_c, 0, 84, 36
2, 39240, Note_on_c, 0, 84, 0
2, 39240, Note_on_c, 0, 84, 36
2, 39300, Note_on_c, 0, 84, 0
2, 39300, Note_on_c, 0, 84, 36
2, 39360, Note_on_c, 0, 84, 0
2, 39360, Note_on_c, 0, 84, 36
2, 39420, Note_on_c, 0, 84, 0
2, 39420, Note_on_c, 0, 84, 36
2, 39480, Note_on_c, 0, 84, 0
2, 39480, Note_on_c, 0, 84, 36
2, 39540, Note_on_c, 0, 84, 0
2, 39540, Note_on_c, 0, 84, 36
2, 39600, Note_on_c, 0, 84, 0
2, 39600, Note_on_c, 0, 84, 36
2, 39660, Note_on_c, 0, 84, 0
2, 39660, Note_on_c, 0, 84, 36
2, 39720, Note_on_c, 0, 84, 0
2, 39720, Note_on_c, 0, 84, 36
2, 39780, Note_on_c, 0, 84, 0
2, 39780, Note_on_c, 0, 84, 36
2, 39840, Note_on_c, 0, 84, 0
2, 39840, Note_on_c, 0, 84, 36
2, 39900, Note_on_c, 0, 84, 0
2, 39900, Note_on_c, 0, 84, 36
2, 39960, Note_on_c, 0, 84, 0
2, 39960, Note_on_c, 0, 84, 36
2, 40020, Note_on_c, 0, 84, 0
2, 40020, Note_on_c, 0, 84, 36
2, 40080, Note_on_c, 0, 84, 0
2, 40080, Note_on_c, 0, 84, 36
2, 40140, Note_on_c, 0, 84, 0
2, 40140, Note_on_c, 0, 84, 36
2, 40200, Note_on_c, 0, 84, 0
2, 40200, Note_on_c, 0, 84, 36
2, 40260, Note_on_c, 0, 84, 0
2, 40260, Note_on_c, 0, 84, 36
2, 40320, Note_on_c, 0, 84, 0
2, 40320, Note_on_c, 0, 84, 36
2, 40380, Note_on_c, 0, 84, 0
2, 40380, Note_on_c, 0, 84, 36
2, 40440, Note_on_c, 0, 84, 0
2, 40440, Note_on_c, 0, 84, 36
2, 40500, Note_on_c, 0, 84, 0
2, 40500, Note_on_c, 0, 84, 36
2, 40560, Note_on_c, 0, 84, 0
2, 40560, Note_on_c, 0, 84, 36
2, 40620, Note_on_c, 0, 84, 0
2, 40620, Note_on_c, 0, 84, 36
2, 40680, Note_on_c, 0, 84, 0
2, 40680, Note_on_c, 0, 84, 36
2, 40740, Note_on_c, 0, 84, 0
2, 40740, Note_on_c, 0, 84, 36
2, 40800, Note_on_c, 0, 84, 0
2, 40800, Note_on_c, 0, 84, 36
2, 40860, Note_on_c, 0, 84, 0
2, 40860, Note_on_c, 0, 84, 36
2, 40920, Note_on_c, 0, 84, 0
2, 40920, Note_on_c, 0, 84, 36
2, 40980, Note_on_c, 0, 84, 0
2, 40980, Note_on_c, 0, 84, 36
2, 41040, Note_on_c, 0, 84, 0
2, 41040, Note_on_c, 0, 84, 36
2, 41100, Note_on_c, 0, 84, 0
2, 41100, Note_on_c, 0, 84, 36
2, 41160, Note_on_c, 0, 84, 0
2, 41160, Note_on_c, 0, 84, 36
2, 41220, Note_on_c, 0, 84, 0
2, 41220, Note_on_c, 0, 84, 36
2, 41280, Note_on_c, 0, 84, 0
2, 41280, Note_on_c, 0, 84, 36
2, 41340, Note_on_c, 0, 84, 0
2, 41340, Note_on_c, 0, 84, 36
2, 41400, Note_on_c, 0, 84, 0
2, 41400, Note_on_c, 0, 84, 36
2, 41460, Note_on_c, 0, 84, 0
2, 41460, Note_on_c, 0, 84, 36
2, 41520, Note_on_c, 0, 84, 0
2, 41520, Note_on_c, 0, 84, 36
2, 41580, Note_on_c, 0, 84, 0
2, 41580, Note_on_c, 0, 84, 36
2, 41640, Note_on_c, 0, 84, 0
2, 41640, Note_on_c, 0, 84, 36
2, 41700, Note_on_c, 0, 84, 0
2, 41700, Note_on_c, 0, 84, 36
2, 41760, Note_on_c, 0, 84, 0
2, 41760, Note_on_c, 0, 84, 36
2, 41820, Note_on_c, 0, 84, 0
2, 41820, Note_on_c, 0, 84, 36
2, 41880, Note_on_c, 0, 84, 0
2, 41880, Note_on_c, 0, 84, 36
2, 41940, Note_on_c, 0, 84, 0
2, 41940, Note_on_c, 0, 84, 36
2, 42000, Note_on_c, 0, 84, 0
2, 42000, Note_on_c, 0, 84, 36
2, 42060, Note_on_c, 0, 84, 0
2, 42060, Note_on_c, 0, 84, 36
2, 42120, Note_on_c, 0, 84, 0
2, 42120, Note_on_c, 0, 84, 36
2, 42180, Note_on_c, 0, 84, 0
2, 42180, Note_on_c, 0, 84, 36
2, 42240, Note_on_c, 0, 84, 0
2, 42240, Note_on_c, 0, 84, 36
2, 42300, Note_on_c, 0, 84, 0
2, 42300, Note_on_c, 0, 84, 36
2, 42360, Note_on_c, 0, 84, 0
2, 42360, Note_on_c, 0, 84, 36
2, 42420, Note_on_c, 0, 84, 0
2, 42420, Note_on_c, 0, 84, 36
2, 42480, Note_on_c, 0, 84, 0
2, 42480, Note_on_c, 0, 84, 36
2, 42540, Note_on_c, 0, 84, 0
2, 42540, Note_on_c, 0, 84, 36
2, 42600, Note_on_c, 0, 84, 0
2, 42600, Note_on_c, 0, 84, 36
2, 42660, Note_on_c, 0, 84, 0
2, 42660, Note_on_c, 0, 84, 36
2, 42720, Note_on_c, 0, 84, 0
2, 42720, Note_on_c, 0, 84, 36
2, 42780, Note_on_c, 0, 84, 0
2, 42780, Note_on_c, 0, 84, 36
2, 42840, Note_on_c, 0, 84, 0
2, 42840, Note_on_c, 0, 84, 36
2, 42900, Note_on_c, 0, 84, 0
2, 42900, Note_on_c, 0, 84, 36
2, 42960, Note_on_c, 0, 84, 0
2, 42960, Note_on_c, 0, 84, 36
2, 43020, Note_on_c, 0, 84, 0
2, 43020, Note_on_c, 0, 84, 36
2, 43080, Note_on_c, 0, 84, 0
2, 43080, Note_on_c, 0, 84, 36
2, 43140, Note_on_c, 0, 84, 0
2, 43140, Note_on_c, 0, 84, 36
2, 43200, Note_on_c, 0, 84, 0
2, 43200, Note_on_c, 0, 84, 36
2, 43260, Note_on_c, 0, 84, 0
2, 43260, Note_on_c, 0, 84, 36
2, 43320, Note_on_c, 0, 84, 0
2, 43320, Note_on_c, 0, 84, 36
2, 43380, Note_on_c, 0, 84, 0
2, 43380, Note_on_c, 0, 84, 36
2, 43440, Note_on_c, 0, 84, 0
2, 43440, Note_on_c, 0, 84, 36
2, 43500, Note_on_c, 0, 84, 0
2, 43500, Note_on_c, 0, 84, 36
2, 43560, Note_on_c, 0, 84, 0
2, 43560, Note_on_c, 0, 84, 36
2, 43620, Note_on_c, 0, 84, 0
2, 43620, Note_on_c, 0, 84, 36
2, 43680, Note_on_c, 0, 84, 0
2, 43680, Note_on_c, 0, 84, 36
2, 43740, Note_on_c, 0, 84, 0
2, 43740, Note_on_c, 0, 84, 36
2, 43800, Note_on_c, 0, 84, 0
2, 43800, Note_on_c, 0, 84, 36
2, 43860, Note_on_c, 0, 84, 0
2, 43860, Note_on_c, 0, 84, 36
2, 43920, Note_on_c, 0, 84, 0
2, 43920, Note_on_c, 0, 84, 36
2, 43980, Note_on_c, 0, 84, 0
2, 43980, Note_on_c, 0, 84, 36
2, 44040, Note_on_c, 0, 84, 0
2, 44040, Note_on_c, 0, 84, 36
2, 44100, Note_on_c, 0, 84, 0
2, 44100, Note_on_c, 0, 84, 36
2, 44160, Note_on_c, 0, 84, 0
2, 44160, Note_on_c, 0, 84, 36
2, 44220, Note_on_c, 0, 84, 0
2, 44220, Note_on_c, 0, 84, 36
2, 44280, Note_on_c, 0, 84, 0
2, 44280, Note_on_c, 0, 84, 36
2, 44340, Note_on_c, 0, 84, 0
2, 44340, Note_on_c, 0, 84, 36
2, 44400, Note_on_c, 0, 84, 0
2, 44400, Note_on_c, 0, 84, 36
2, 44460, Note_on_c, 0, 84, 0
2, 44460, Note_on_c, 0, 84, 36
2, 44520, Note_on_c, 0, 84, 0
2, 44520, Note_on_c, 0, 84, 36
2, 44580, Note_on_c, 0, 84, 0
2, 44580, Note_on_c, 0, 84, 36
2, 44640, Note_on_c, 0, 84, 0
2, 44640, Note_on_c, 0, 84, 36
2, 44700, Note_on_c, 0, 84, 0
2, 44700, Note_on_c, 0, 84, 36
2, 44760, Note_on_c, 0, 84, 0
2, 44760, Note_on_c, 0, 84, 36
2, 44820, Note_on_c, 0, 84, 0
2, 44820, Note_on_c, 0, 84, 36
2, 44880, Note_on_c, 0, 84, 0
2, 44880, Note_on_c, 0, 84, 36
2, 44940, Note_on_c, 0, 84, 0
2, 44940, Note_on_c, 0, 84, 36
2, 45000, Note_on_c, 0, 84, 0
2, 45000, Note_on_c, 0, 84, 36
2, 45060, Note_on_c, 0, 84, 0
2, 45060, Note_on_c, 0, 84, 36
2, 45120, Note_on_c, 0, 84, 0
2, 45120, Note_on_c, 0, 84, 36
2, 45180, Note_on_c, 0, 84, 0
2, 45180, Note_on_c, 0, 84, 36
2, 45240, Note_on_c, 0, 84, 0
2, 45240, Note_on_c, 0, 84, 36
2, 45300, Note_on_c, 0, 84, 0
2, 45300, Note_on_c, 0, 84, 36
2, 45360, Note_on_c, 0, 84, 0
2, 45360, Note_on_c, 0, 84, 36
2, 45420, Note_on_c, 0, 84, 0
2, 45420, Note_on_c, 0, 84, 36
2, 45480, Note_on_c, 0, 84, 0
2, 45480, Note_on_c, 0, 84, 36
2, 45540, Note_on_c, 0, 84, 0
2, 45540, Note_on_c, 0, 84, 36
2, 45600, Note_on_c, 0, 84, 0
2, 45600, Note_on_c, 0, 84, 36
2, 45660, Note_on_c, 0, 84, 0
2, 45660, Note_on_c, 0, 84, 36
2, 45720, Note_on_c, 0, 84, 0
2, 45720, Note_on_c, 0, 84, 36
2, 45780, Note_on_c, 0, 84, 0
2, 45780, Note_on_c, 0, 84, 36
2, 45840, Note_on_c, 0, 84, 0
2, 45840, Note_on_c, 0, 84, 36
2, 45900, Note_on_c, 0, 84, 0
2, 45900, Note_on_c, 0, 84, 36
2, 45960, Note_on_c, 0, 84, 0
2, 45960, Note_on_c, 0, 84, 36
2, 46020, Note_on_c, 0, 84, 0
2, 46020, Note_on_c, 0, 84, 36
2, 46080, Note_on_c, 0, 84, 0
2, 46080, Note_on_c, 0, 84, 36
2, 46140, Note_on_c, 0, 84, 0
2, 46140, Note_on_c, 0, 84, 36
2, 46200, Note_on_c, 0, 84, 0
2, 46200, Note_on_c, 0, 84, 36
2, 46260, Note_on_c, 0, 84, 0
2, 46260, Note_on_c, 0, 84, 36
2, 46320, Note_on_c, 0, 84, 0
2, 46320, Note_on_c, 0, 84, 36
2, 46380, Note_on_c, 0, 84, 0
2, 46380, Note_on_c, 0, 84, 36
2, 46440, Note_on_c, 0, 84, 0
2, 46440, Note_on_c, 0, 84, 36
2, 46500, Note_on_c, 0, 84, 0
2, 46500, Note_on_c, 0, 84, 36
2, 46560, Note_on_c, 0, 84, 0
2, 46560, Note_on_c, 0, 84, 36
2, 46620, Note_on_c, 0, 84, 0
2, 46620, Note_on_c, 0, 84, 36
2, 46680, Note_on_c, 0, 84, 0
2, 46680, Note_on_c, 0, 84, 36
2, 46740, Note_on_c, 0, 84, 0
2, 46740, Note_on_c, 0, 84, 36
2, 46800, Note_on_c, 0, 84, 0
2, 46800, Note_on_c, 0, 84, 36
2, 46860, Note_on_c, 0, 84, 0
2, 46860, Note_on_c, 0, 84, 36
2, 46920, Note_on_c, 0, 84, 0
2, 46920, Note_on_c, 0, 84, 36
2, 46980, Note_on_c, 0, 84, 0
2, 46980, Note_on_c, 0, 84, 36
2, 47040, Note_on_c, 0, 84, 0
2, 47040, Note_on_c, 0, 84, 36
2, 47100, Note_on_c, 0, 84, 0
2, 47100, Note_on_c, 0, 84, 36
2, 47160, Note_on_c, 0, 84, 0
2, 47160, Note_on_c, 0, 84, 36
2, 47220, Note_on_c, 0, 84, 0
2, 47220, Note_on_c, 0, 84, 36
2, 47280, Note_on_c, 0, 84, 0
2, 47280, Note_on_c, 0, 84, 36
2, 47340, Note_on_c, 0, 84, 0
2, 47340, Note_on_c, 0, 84, 36
2, 47400, Note_on_c, 0, 84, 0
2, 47400, Note_on_c, 0, 84, 36
2, 47460, Note_on_c, 0, 84, 0
2, 47460, Note_on_c, 0, 84, 36
2, 47520, Note_on_c, 0, 84, 0
2, 47520, Note_on_c, 0, 84, 36
2, 47580, Note_on_c, 0, 84, 0
2, 47580, Note_on_c, 0, 84, 36
2, 47640, Note_on_c, 0, 84, 0
2, 47640, Note_on_c, 0, 84, 36
2, 47700, Note_on_c, 0, 84, 0
2, 47700, Note_on_c, 0, 84, 36
2, 47760, Note_on_c, 0, 84, 0
2, 47760, Note_on_c, 0, 84, 36
2, 47820, Note_on_c, 0, 84, 0
2, 47820, Note_on_c, 0, 84, 36
2, 47880, Note_on_c, 0, 84, 0
2, 47880, Note_on_c, 0, 84, 36
2, 47940, Note_on_c, 0, 84, 0
2, 47940, Note_on_c, 0, 84, 36
2, 48000, Note_on_c, 0, 84, 0
2, 48000, Note_on_c, 0, 84, 36
2, 48060, Note_on_c, 0, 84, 0
2, 48060, Note_on_c, 0, 84, 36
2, 48120, Note_on_c, 0, 84, 0
2, 48120, Note_on_c, 0, 84, 36
2, 48180, Note_on_c, 0, 84, 0
2, 48180, Note_on_c, 0, 84, 36
2, 48240, Note_on_c, 0, 84, 0
2, 48240, Note_on_c, 0, 84, 36
2, 48300, Note_on_c, 0, 84, 0
2, 48300, Note_on_c, 0, 84, 36
2, 48360, Note_on_c, 0, 84, 0
2, 48360, Note_on_c, 0, 84, 36
2, 48420, Note_on_c, 0, 84, 0
2, 48420, Note_on_c, 0, 84, 36
2, 48480, Note_on_c, 0, 84, 0
2, 48480, Note_on_c, 0, 84, 36
2, 48540, Note_on_c, 0, 84, 0
2, 48540, Note_on_c, 0, 84, 36
2, 48600, Note_on_c, 0, 84, 0
2, 48600, Note_on_c, 0, 84, 36
2, 48660, Note_on_c, 0, 84, 0
2, 48660, Note_on_c, 0, 84, 36
2, 48720, Note_on_c, 0, 84, 0
2, 48720, Note_on_c, 0, 84, 36
2, 48780, Note_on_c, 0, 84, 0
2, 48780, Note_on_c, 0, 84, 36
2, 48840, Note_on_c, 0, 84, 0
2, 48840, Note_on_c, 0, 84, 36
2, 48900, Note_on_c, 0, 84, 0
2, 48900, Note_on_c, 0, 84, 36
2, 48960, Note_on_c, 0, 84, 0
2, 48960, Note_on_c, 0, 84, 36
2, 49020, Note_on_c, 0, 84, 0
2, 49020, Note_on_c, 0, 84, 36
2, 49080, Note_on_c, 0, 84, 0
2, 49080, Note_on_c, 0, 84, 36
2, 49140, Note_on_c, 0, 84, 0
2, 49140, Note_on_c, 0, 84, 36
2, 49200, Note_on_c, 0, 84, 0
2, 49200, Note_on_c, 0, 84, 36
2, 49260, Note_on_c, 0, 84, 0
2, 49260, Note_on_c, 0, 84, 36
2, 49320, Note_on_c, 0, 84, 0
2, 49320, Note_on_c, 0, 84, 36
2, 49380, Note_on_c, 0, 84, 0
2, 49380, Note_on_c, 0, 84, 36
2, 49440, Note_on_c, 0, 84, 0
2, 49440, Note_on_c, 0, 84, 36
2, 49500, Note_on_c, 0, 84, 0
2, 49500, Note_on_c, 0, 84, 36
2, 49560, Note_on_c, 0, 84, 0
2, 49560, Note_on_c, 0, 84, 36
2, 49620, Note_on_c, 0, 84, 0
2, 49620, Note_on_c, 0, 84, 36
2, 49680, Note_on_c, 0, 84, 0
2, 49680, Note_on_c, 0, 84, 36
2, 49740, Note_on_c, 0, 84, 0
2, 49740, Note_on_c, 0, 84, 36
2, 49800, Note_on_c, 0, 84, 0
2, 49800, Note_on_c, 0, 84, 36
2, 49860, Note_on_c, 0, 84, 0
2, 49860, Note_on_c, 0, 84, 36
2, 49920, Note_on_c, 0, 84, 0
2, 49920, Note_on_c, 0, 84, 36
2, 49980, Note_on_c, 0, 84, 0
2, 49980, Note_on_c, 0, 84, 36
2, 50040, Note_on_c, 0, 84, 0
2, 50040, Note_on_c, 0, 84, 36
2, 50100, Note_on_c, 0, 84, 0
2, 50100, Note_on_c, 0, 84, 36
2, 50160, Note_on_c, 0, 84, 0
2, 50160, Note_on_c, 0, 84, 36
2, 50220, Note_on_c, 0, 84, 0
2, 50220, Note_on_c, 0, 84, 36
2, 50280, Note_on_c, 0, 84, 0
2, 50280, Note_on_c, 0, 84, 36
2, 50340, Note_on_c, 0, 84, 0
2, 50340, Note_on_c, 0, 84, 36
2, 50400, Note_on_c, 0, 84, 0
2, 50400, Note_on_c, 0, 84, 36
2, 50460, Note_on_c, 0, 84, 0
2, 50460, Note_on_c, 0, 84, 36
2, 50520, Note_on_c, 0, 84, 0
2, 50520, Note_on_c, 0, 84, 36
2, 50580, Note_on_c, 0, 84, 0
2, 50580, Note_on_c, 0, 84, 36
2, 50640, Note_on_c, 0, 84, 0
2, 50640, Note_on_c, 0, 84, 36
2, 50700, Note_on_c, 0, 84, 0
2, 50700, Note_on_c, 0, 84, 36
2, 50760, Note_on_c, 0, 84, 0
2, 50760, Note_on_c, 0, 84, 36
2, 50820, Note_on_c, 0, 84, 0
2, 50820, Note_on_c, 0, 84, 36
2, 50880, Note_on_c, 0, 84, 0
2, 50880, Note_on_c, 0, 84, 36
2, 50940, Note_on_c, 0, 84, 0
2, 50940, Note_on_c, 0, 84, 36
2, 51000, Note_on_c, 0, 84, 0
2, 51000, Note_on_c, 0, 84, 36
2, 51060, Note_on_c, 0, 84, 0
2, 51060, Note_on_c, 0, 84, 36
2, 51120, Note_on_c, 0, 84, 0
2, 51120, Note_on_c, 0, 84, 36
2, 51180, Note_on_c, 0, 84, 0
2, 51180, Note_on_c, 0, 84, 36
2, 51240, Note_on_c, 0, 84, 0
2, 51240, Note_on_c, 0, 84, 36
2, 51300, Note_on_c, 0, 84, 0
2, 51300, Note_on_c, 0, 84, 36
2, 51360, Note_on_c, 0, 84, 0
2, 51360, Note_on_c, 0, 84, 36
2, 51420, Note_on_c, 0, 84, 0
2, 51420, Note_on_c, 0, 84, 36
2, 51480, Note_on_c, 0, 84, 0
2, 51480, Note_on_c, 0, 84, 36
2, 51540, Note_on_c, 0, 84, 0
2, 51540, Note_on_c, 0, 84, 36
2, 51600, Note_on_c, 0, 84, 0
2, 51600, Note_on_c, 0, 84, 36
2, 51660, Note_on_c, 0, 84, 0
2, 51660, Note_on_c, 0, 84, 36
2, 51720, Note_on_c, 0, 84, 0
2, 51720, Note_on_c, 0, 84, 36
2, 51780, Note_on_c, 0, 84, 0
2, 51780, Note_on_c, 0, 84, 36
2, 51840, Note_on_c, 0, 84, 0
2, 51840, Note_on_c, 0, 84, 36
2, 51900, Note_on_c, 0, 84, 0
2, 51900, Note_on_c, 0, 84, 36
2, 51960, Note_on_c, 0, 84, 0
2, 51960, Note_on_c, 0, 84, 36
2, 52020, Note_on_c, 0, 84, 0
2, 52020, Note_on_c, 0, 84, 36
2, 52080, Note_on_c, 0, 84, 0
2, 52080, Note_on_c, 0, 84, 36
2, 52140, Note_on_c, 0, 84, 0
2, 52140, Note_on_c, 0, 84, 36
2, 52200, Note_on_c, 0, 84, 0
2, 52200, Note_on_c, 0, 84, 36
2, 52260, Note_on_c, 0, 84, 0
2, 52260, Note_on_c, 0, 84, 36
2, 52320, Note_on_c, 0, 84, 0
2, 52320, Note_on_c, 0, 84, 36
2, 52380, Note_on_c, 0, 84, 0
2, 52380, Note_on_c, 0, 84, 36
2, 52440, Note_on_c, 0, 84, 0
2, 52440, Note_on_c, 0, 84, 36
2, 52500, Note_on_c, 0, 84, 0
2, 52500, Note_on_c, 0, 84, 36
2, 52560, Note_on_c, 0, 84, 0
2, 52560, Note_on_c, 0, 84, 36
2, 52620, Note_on_c, 0, 84, 0
2, 52620, Note_on_c, 0, 84, 36
2, 52680, Note_on_c, 0, 84, 0
2, 52680, Note_on_c, 0, 84, 36
2, 52740, Note_on_c, 0, 84, 0
2, 52740, Note_on_c, 0, 84, 36
2, 52800, Note_on_c, 0, 84, 0
2, 52800, Note_on_c, 0, 84, 36
2, 52860, Note_on_c, 0, 84, 0
2, 52860, Note_on_c, 0, 84, 36
2, 52920, Note_on_c, 0, 84, 0
2, 52920, Note_on_c, 0, 84, 36
2, 52980, Note_on_c, 0, 84, 0
2, 52980, Note_on_c, 0, 84, 36
2, 53040, Note_on_c, 0, 84, 0
2, 53040, Note_on_c, 0, 84, 36
2, 53100, Note_on_c, 0, 84, 0
2, 53100, Note_on_c, 0, 84, 36
2, 53160, Note_on_c, 0, 84, 0
2, 53160, Note_on_c, 0, 84, 36
2, 53220, Note_on_c, 0, 84, 0
2, 53220, Note_on_c, 0, 84, 36
2, 53280, Note_on_c, 0, 84, 0
2, 53280, Note_on_c, 0, 84, 36
2, 53340, Note_on_c, 0, 84, 0
2, 53340, Note_on_c, 0, 84, 36
2, 53400, Note_on_c, 0, 84, 0
2, 53400, Note_on_c, 0, 84, 36
2, 53460, Note_on_c, 0, 84, 0
2, 53460, Note_on_c, 0, 84, 36
2, 53520, Note_on_c, 0, 84, 0
2, 53520, Note_on_c, 0, 84, 36
2, 53580, Note_on_c, 0, 84, 0
2, 53580, Note_on_c, 0, 84, 36
2, 53640, Note_on_c, 0, 84, 0
2, 53640, Note_on_c, 0, 84, 36
2, 53700, Note_on_c, 0, 84, 0
2, 53700, Note_on_c, 0, 84, 36
2, 53760, Note_on_c, 0, 84, 0
2, 53760, Note_on_c, 0, 84, 36
2, 53820, Note_on_c, 0, 84, 0
2, 53820, Note_on_c, 0, 84, 36
2, 53880, Note_on_c, 0, 84, 0
2, 53880, Note_on_c, 0, 84, 36
2, 53940, Note_on_c, 0, 84, 0
2, 53940, Note_on_c, 0, 84, 36
2, 54000, Note_on_c, 0, 84, 0
2, 54000, Note_on_c, 0, 84, 36
2, 54060, Note_on_c, 0, 84, 0
2, 54060, Note_on_c, 0, 84, 36
2, 54120, Note_on_c, 0, 84, 0
2, 54120, Note_on_c, 0, 84, 36
2, 54180, Note_on_c, 0, 84, 0
2, 54180, Note_on_c, 0, 84, 36
2, 54240, Note_on_c, 0, 84, 0
2, 54240, Note_on_c, 0, 84, 36
2, 54300, Note_on_c, 0, 84, 0
2, 54300, Note_on_c, 0, 84, 36
2, 54360, Note_on_c, 0, 84, 0
2, 54360, Note_on_c, 0, 84, 36
2, 54420, Note_on_c, 0, 84, 0
2, 54420, Note_on_c, 0, 84, 36
2, 54480, Note_on_c, 0, 84, 0
2, 54480, Note_on_c, 0, 84, 36
2, 54540, Note_on_c, 0, 84, 0
2, 54540, Note_on_c, 0, 84, 36
2, 54600, Note_on_c, 0, 84, 0
2, 54600, Note_on_c, 0, 84, 36
2, 54660, Note_on_c, 0, 84, 0
2, 54660, Note_on_c, 0, 84, 36
2, 54720, Note_on_c, 0, 84, 0
2, 54720, Note_on_c, 0, 84, 36
2, 54780, Note_on_c, 0, 84, 0
2, 54780, Note_on_c, 0, 84, 36
2, 54840, Note_on_c, 0, 84, 0
2, 54840, Note_on_c, 0, 84, 36
2, 54900, Note_on_c, 0, 84, 0
2, 54900, Note_on_c, 0, 84, 36
2, 54960, Note_on_c, 0, 84, 0
2, 54960, Note_on_c, 0, 84, 36
2, 55020, Note_on_c, 0, 84, 0
2, 55020, Note_on_c, 0, 84, 36
2, 55080, Note_on_c, 0, 84, 0
2, 55080, Note_on_c, 0, 84, 36
2, 55140, Note_on_c, 0, 84, 0
2, 55140, Note_on_c, 0, 84, 36
2, 55200, Note_on_c, 0, 84, 0
2, 55200, Note_on_c, 0, 84, 36
2, 55260, Note_on_c, 0, 84, 0
2, 55260, Note_on_c, 0, 84, 36
2, 55320, Note_on_c, 0, 84, 0
2, 55320, Note_on_c, 0, 84, 36
2, 55380, Note_on_c, 0, 84, 0
2, 55380, Note_on_c, 0, 84, 36
2, 55440, Note_on_c, 0, 84, 0
2, 55440, Note_on_c, 0, 84, 36
2, 55500, Note_on_c, 0, 84, 0
2, 55500, Note_on_c, 0, 84, 36
2, 55560, Note_on_c, 0, 84, 0
2, 55560, Note_on_c, 0, 84, 36
2, 55620, Note_on_c, 0, 84, 0
2, 55620, Note_on_c, 0, 84, 36
2, 55680, Note_on_c, 0, 84, 0
2, 55680, Note_on_c, 0, 84, 36
2, 55740, Note_on_c, 0, 84, 0
2, 55740, Note_on_c, 0, 84, 36
2, 55800, Note_on_c, 0, 84, 0
2, 55800, Note_on_c, 0, 84, 36
2, 55860, Note_on_c, 0, 84, 0
2, 55860, Note_on_c, 0, 84, 36
2, 55920, Note_on_c, 0, 84, 0
2, 55920, Note_on_c, 0, 84, 36
2, 55980, Note_on_c, 0, 84, 0
2, 55980, Note_on_c, 0, 84, 36
2, 56040, Note_on_c, 0, 84, 0
2, 56040, Note_on_c, 0, 84, 36
2, 56100, Note_on_c, 0, 84, 0
2, 56100, Note_on_c, 0, 84, 36
2, 56160, Note_on_c, 0, 84, 0
2, 56160, Note_on_c, 0, 84, 36
2, 56220, Note_on_c, 0, 84, 0
2, 56220, Note_on_c, 0, 84, 36
2, 56280, Note_on_c, 0, 84, 0
2, 56280, Note_on_c, 0, 84, 36
2, 56340, Note_on_c, 0, 84, 0
2, 56340, Note_on_c, 0, 84, 36
2, 56400, Note_on_c, 0, 84, 0
2, 56400, Note_on_c, 0, 84, 36
2, 56460, Note_on_c, 0, 84, 0
2, 56460, Note_on_c, 0, 84, 36
2, 56520, Note_on_c, 0, 84, 0
2, 56520, Note_on_c, 0, 84, 36
2, 56580, Note_on_c, 0, 84, 0
2, 56580, Note_on_c, 0, 84, 36
2, 56640, Note_on_c, 0, 84, 0
2, 56640, Note_on_c, 0, 84, 36
2, 56700, Note_on_c, 0, 84, 0
2, 56700, Note_on_c, 0, 84, 36
2, 56760, Note_on_c, 0, 84, 0
2, 56760, Note_on_c, 0, 84, 36
2, 56820, Note_on_c, 0, 84, 0
2, 56820, Note_on_c, 0, 84, 36
2, 56880, Note_on_c, 0, 84, 0
2, 56880, Note_on_c, 0, 84, 36
2, 56940, Note_on_c, 0, 84, 0
2, 56940, Note_on_c, 0, 84, 36
2, 57000, Note_on_c, 0, 84, 0
2, 57000, Note_on_c, 0, 84, 36
2, 57060, Note_on_c, 0, 84, 0
2, 57060, Note_on_c, 0, 84, 36
2, 57120, Note_on_c, 0, 84, 0
2, 57120, Note_on_c, 0, 84, 36
2, 57180, Note_on_c, 0, 84, 0
2, 57180, Note_on_c, 0, 84, 36
2, 57240, Note_on_c, 0, 84, 0
2, 57240, Note_on_c, 0, 84, 36
2, 57300, Note_on_c, 0, 84, 0
2, 57300, Note_on_c, 0, 84, 36
2, 57360, Note_on_c, 0, 84, 0
2, 57360, Note_on_c, 0, 84, 36
2, 57420, Note_on_c, 0, 84, 0
2, 57420, Note_on_c, 0, 84, 36
2, 57480, Note_on_c, 0, 84, 0
2, 57480, Note_on_c, 0, 84, 36
2, 57540, Note_on_c, 0, 84, 0
2, 57540, Note_on_c, 0, 84, 36
2, 57600, Note_on_c, 0, 84, 0
2, 57600, Note_on_c, 0, 84, 36
2, 57660, Note_on_c, 0, 84, 0
2, 57660, Note_on_c, 0, 84, 36
2, 57720, Note_on_c, 0, 84, 0
2, 57720, Note_on_c, 0, 84, 36
2, 57780, Note_on_c, 0, 84, 0
2, 57780, Note_on_c, 0, 84, 36
2, 57840, Note_on_c, 0, 84, 0
2, 57840, Note_on_c, 0, 84, 36
2, 57900, Note_on_c, 0, 84, 0
2, 57900, Note_on_c, 0, 84, 36
2, 57960, Note_on_c, 0, 84, 0
2, 57960, Note_on_c, 0, 84, 36
2, 58020, Note_on_c, 0, 84, 0
2, 58020, Note_on_c, 0, 84, 36
2, 58080, Note_on_c, 0, 84, 0
2, 58080, Note_on_c, 0, 84, 36
2, 58140, Note_on_c, 0, 84, 0
2, 58140, Note_on_c, 0, 84, 36
2, 58200, Note_on_c, 0, 84, 0
2, 58200, Note_on_c, 0, 84, 36
2, 58260, Note_on_c, 0, 84, 0
2, 58260, Note_on_c, 0, 84, 36
2, 58320, Note_on_c, 0, 84, 0
2, 58320, Note_on_c, 0, 84, 36
2, 58380, Note_on_c, 0, 84, 0
2, 58380, Note_on_c, 0, 84, 36
2, 58440, Note_on_c, 0, 84, 0
2, 58440, Note_on_c, 0, 84, 36
2, 58500, Note_on_c, 0, 84, 0
2, 58500, Note_on_c, 0, 84, 36
2, 58560, Note_on_c, 0, 84, 0
2, 58560, Note_on_c, 0, 84, 36
2, 58620, Note_on_c, 0, 84, 0
2, 58620, Note_on_c, 0, 84, 36
2, 58680, Note_on_c, 0, 84, 0
2, 58680, Note_on_c, 0, 84, 36
2, 58740, Note_on_c, 0, 84, 0
2, 58740, Note_on_c, 0, 84, 36
2, 58800, Note_on_c, 0, 84, 0
2, 58800, Note_on_c, 0, 84, 36
2, 58860, Note_on_c, 0, 84, 0
2, 58860, Note_on_c, 0, 84, 36
2, 58920, Note_on_c, 0, 84, 0
2, 58920, Note_on_c, 0, 84, 36
2, 58980, Note_on_c, 0, 84, 0
2, 58980, Note_on_c, 0, 84, 36
2, 59040, Note_on_c, 0, 84, 0
2, 59040, Note_on_c, 0, 84, 36
2, 59100, Note_on_c, 0, 84, 0
2, 59100, Note_on_c, 0, 84, 36
2, 59160, Note_on_c, 0, 84, 0
2, 59160, Note_on_c, 0, 84, 36
2, 59220, Note_on_c, 0, 84, 0
2, 59220, Note_on_c, 0, 84, 36
2, 59280, Note_on_c, 0, 84, 0
2, 59280, Note_on_c, 0, 84, 36
2, 59340, Note_on_c, 0, 84, 0
2, 59340, Note_on_c, 0, 84, 36
2, 59400, Note_on_c, 0, 84, 0
2, 59400, Note_on_c, 0, 84, 36
2, 59460, Note_on_c, 0, 84, 0
2, 59460, Note_on_c, 0, 84, 36
2, 59520, Note_on_c, 0, 84, 0
2, 59520, Note_on_c, 0, 84, 36
2, 59580, Note_on_c, 0, 84, 0
2, 59580, Note_on_c, 0, 84, 36
2, 59640, Note_on_c, 0, 84, 0
2, 59640, Note_on_c, 0, 84, 36
2, 59700, Note_on_c, 0, 84, 0
2, 59700, Note_on_c, 0, 84, 36
2, 59760, Note_on_c, 0, 84, 0
2, 59760, Note_on_c, 0, 84, 36
2, 59820, Note_on_c, 0, 84, 0
2, 59820, Note_on_c, 0, 84, 36
2, 59880, Note_on_c, 0, 84, 0
2, 59880, Note_on_c, 0, 84, 36
2, 59940, Note_on_c, 0, 84, 0
2, 59940, Note_on_c, 0, 84, 36
2, 60000, Note_on_c, 0, 84, 0
2, 60000, Note_on_c, 0, 84, 36
2, 60060, Note_on_c, 0, 84, 0
2, 60060, Note_on_c, 0, 84, 36
2, 60120, Note_on_c, 0, 84, 0
2, 60120, Note_on_c, 0, 84, 36
2, 60180, Note_on_c, 0, 84, 0
2, 60180, Note_on_c, 0, 84, 36
2, 60240, Note_on_c, 0, 84, 0
2, 60240, Note_on_c, 0, 84, 36
2, 60300, Note_on_c, 0, 84, 0
2, 60300, Note_on_c, 0, 84, 36
2, 60360, Note_on_c, 0, 84, 0
2, 60360, Note_on_c, 0, 84, 36
2, 60420, Note_on_c, 0, 84, 0
2, 60420, Note_on_c, 0, 84, 36
2, 60480, Note_on_c, 0, 84, 0
2, 60480, Note_on_c, 0, 84, 36
2, 60540, Note_on_c, 0, 84, 0
2, 60540, Note_on_c, 0, 84, 36
2, 60600, Note_on_c, 0, 84, 0
2, 60600, Note_on_c, 0, 84, 36
2, 60660, Note_on_c, 0, 84, 0
2, 60660, Note_on_c, 0, 84, 36
2, 60720, Note_on_c, 0, 84, 0
2, 60720, Note_on_c, 0, 84, 36
2, 60780, Note_on_c, 0, 84, 0
2, 60780, Note_on_c, 0, 84, 36
2, 60840, Note_on_c, 0, 84, 0
2, 60840, Note_on_c, 0, 84, 36
2, 60900, Note_on_c, 0, 84, 0
2, 60900, Note_on_c, 0, 84, 36
2, 60960, Note_on_c, 0, 84, 0
2, 60960, Note_on_c, 0, 84, 36
2, 61020, Note_on_c, 0, 84, 0
2, 61020, Note_on_c, 0, 84, 36
2, 61080, Note_on_c, 0, 84, 0
2, 61080, Note_on_c, 0, 84, 36
2, 61140, Note_on_c, 0, 84, 0
2, 61140, Note_on_c, 0, 84, 36
2, 61200, Note_on_c, 0, 84, 0
2, 61200, Note_on_c, 0, 84, 36
2, 61260, Note_on_c, 0, 84, 0
2, 61260, Note_on_c, 0, 84, 36
2, 61320, Note_on_c, 0, 84, 0
2, 61320, Note_on_c, 0, 84, 36
2, 61380, Note_on_c, 0, 84, 0
2, 61380, Note_on_c, 0, 84, 36
2, 61440, Note_on_c, 0, 84, 0
2, 61440, Note_on_c, 0, 84, 36
2, 61500, Note_on_c, 0, 84, 0
2, 61500, Note_on_c, 0, 84, 36
2, 61560, Note_on_c, 0, 84, 0
2, 61560, Note_on_c, 0, 84, 36
2, 61620, Note_on_c, 0, 84, 0
2, 61620, Note_on_c, 0, 84, 36
2, 61680, Note_on_c, 0, 84, 0
2, 61680, Note_on_c, 0, 84, 36
2, 61740, Note_on_c, 0, 84, 0
2, 61740, Note_on_c, 0, 84, 36
2, 61800, Note_on_c, 0, 84, 0
2, 61800, Note_on_c, 0, 84, 36
2, 61860, Note_on_c, 0, 84, 0
2, 61860, Note_on_c, 0, 84, 36
2, 61920, Note_on_c, 0, 84, 0
2, 61920, Note_on_c, 0, 84, 36
2, 61980, Note_on_c, 0, 84, 0
2, 61980, Note_on_c, 0, 84, 36
2, 62040, Note_on_c, 0, 84, 0
2, 62040, Note_on_c, 0, 84, 36
2, 62100, Note_on_c, 0, 84, 0
2, 62100, Note_on_c, 0, 84, 36
2, 62160, Note_on_c, 0, 84, 0
2, 62160, Note_on_c, 0, 84, 36
2, 62220, Note_on_c, 0, 84, 0
2, 62220, Note_on_c, 0, 84, 36
2, 62280, Note_on_c, 0, 84, 0
2, 62280, Note_on_c, 0, 84, 36
2, 62340, Note_on_c, 0, 84, 0
2, 62340, Note_on_c, 0, 84, 36
2, 62400, Note_on_c, 0, 84, 0
2, 62400, Note_on_c, 0, 84, 36
2, 62460, Note_on_c, 0, 84, 0
2, 62460, Note_on_c, 0, 84, 36
2, 62520, Note_on_c, 0, 84, 0
2, 62520, Note_on_c, 0, 84, 36
2, 62580, Note_on_c, 0, 84, 0
2, 62580, Note_on_c, 0, 84, 36
2, 62640, Note_on_c, 0, 84, 0
2, 62640, Note_on_c, 0, 84, 36
2, 62700, Note_on_c, 0, 84, 0
2, 62700, Note_on_c, 0, 84, 36
2, 62760, Note_on_c, 0, 84, 0
2, 62760, Note_on_c, 0, 84, 36
2, 62820, Note_on_c, 0, 84, 0
2, 62820, Note_on_c, 0, 84, 36
2, 62880, Note_on_c, 0, 84, 0
2, 62880, Note_on_c, 0, 84, 36
2, 62940, Note_on_c, 0, 84, 0
2, 62940, Note_on_c, 0, 84, 36
2, 63000, Note_on_c, 0, 84, 0
2, 63000, Note_on_c, 0, 84, 36
2, 63060, Note_on_c, 0, 84, 0
2, 63060, Note_on_c, 0, 84, 36
2, 63120, Note_on_c, 0, 84, 0
2, 63120, Note_on_c, 0, 84, 36
2, 63180, Note_on_c, 0, 84, 0
2, 63180, Note_on_c, 0, 84, 36
2, 63240, Note_on_c, 0, 84, 0
2, 63240, Note_on_c, 0, 84, 36
2, 63300, Note_on_c, 0, 84, 0
2, 63300, Note_on_c, 0, 84, 36
2, 63360, Note_on_c, 0, 84, 0
2, 63360, Note_on_c, 0, 84, 36
2, 63420, Note_on_c, 0, 84, 0
2, 63420, Note_on_c, 0, 84, 36
2, 63480, Note_on_c, 0, 84, 0
2, 63480, Note_on_c, 0, 84, 36
2, 63540, Note_on_c, 0, 84, 0
2, 63540, Note_on_c, 0, 84, 36
2, 63600, Note_on_c, 0, 84, 0
2, 63600, Note_on_c, 0, 84, 36
2, 63660, Note_on_c, 0, 84, 0
2, 63660, Note_on_c, 0, 84, 36
2, 63720, Note_on_c, 0, 84, 0
2, 63720, Note_on_c, 0, 84, 36
2, 63780, Note_on_c, 0, 84, 0
2, 63780, Note_on_c, 0, 84, 36
2, 63840, Note_on_c, 0, 84, 0
2, 63840, Note_on_c, 0, 84, 36
2, 63900, Note_on_c, 0, 84, 0
2, 63900, Note_on_c, 0, 84, 36
2, 63960, Note_on_c, 0, 84, 0
2, 63960, Note_on_c, 0, 84, 36
2, 64020, Note_on_c, 0, 84, 0
2, 64020, Note_on_c, 0, 84, 36
2, 64080, Note_on_c, 0, 84, 0
2, 64080, Note_on_c, 0, 84, 36
2, 64140, Note_on_c, 0, 84, 0
2, 64140, Note_on_c, 0, 84, 36
2, 64200, Note_on_c, 0, 84, 0
2, 64200, Note_on_c, 0, 84, 36
2, 64260, Note_on_c, 0, 84, 0
2, 64260, Note_on_c, 0, 84, 36
2, 64320, Note_on_c, 0, 84, 0
2, 64320, Note_on_c, 0, 84, 36
2, 64380, Note_on_c, 0, 84, 0
2, 64380, Note_on_c, 0, 84, 36
2, 64440, Note_on_c, 0, 84, 0
2, 64440, Note_on_c, 0, 84, 36
2, 64500, Note_on_c, 0, 84, 0
2, 64500, Note_on_c, 0, 84, 36
2, 64560, Note_on_c, 0, 84, 0
2, 64560, Note_on_c, 0, 84, 36
2, 64620, Note_on_c, 0, 84, 0
2, 64620, Note_on_c, 0, 84, 36
2, 64680, Note_on_c, 0, 84, 0
2, 64680, Note_on_c, 0, 84, 36
2, 64740, Note_on_c, 0, 84, 0
2, 64740, Note_on_c, 0, 84, 36
2, 64800, Note_on_c, 0, 84, 0
2, 64800, Note_on_c, 0, 84, 36
2, 64860, Note_on_c, 0, 84, 0
2, 64860, Note_on_c, 0, 84, 36
2, 64920, Note_on_c, 0, 84, 0
2, 64920, Note_on_c, 0, 84, 36
2, 64980, Note_on_c, 0, 84, 0
2, 64980, Note_on_c, 0, 84, 36
2, 65040, Note_on_c, 0, 84, 0
2, 65040, Note_on_c, 0, 84, 36
2, 65100, Note_on_c, 0, 84, 0
2, 65100, Note_on_c, 0, 84, 36
2, 65160, Note_on_c, 0, 84, 0
2, 65160, Note_on_c, 0, 84, 36
2, 65220, Note_on_c, 0, 84, 0
2, 65220, Note_on_c, 0, 84, 36
2, 65280, Note_on_c, 0, 84, 0
2, 65280, Note_on_c, 0, 84, 36
2, 65340, Note_on_c, 0, 84, 0
2, 65340, Note_on_c, 0, 84, 36
2, 65400, Note_on_c, 0, 84, 0
2, 65400, Note_on_c, 0, 84, 36
2, 65460, Note_on_c, 0, 84, 0
2, 65460, Note_on_c, 0, 84, 36
2, 65520, Note_on_c, 0, 84, 0
2, 65520, Note_on_c, 0, 84, 36
2, 65580, Note_on_c, 0, 84, 0
2, 65580, Note_on_c, 0, 84, 36
2, 65640, Note_on_c, 0, 84, 0
2, 65640, Note_on_c, 0, 84, 36
2, 65700, Note_on_c, 0, 84, 0
2, 65700, Note_on_c, 0, 84, 36
2, 65760, Note_on_c, 0, 84, 0
2, 65760, Note_on_c, 0, 84, 36
2, 65820, Note_on_c, 0, 84, 0
2, 65820, Note_on_c, 0, 84, 36
2, 65880, Note_on_c, 0, 84, 0
2, 65880, Note_on_c, 0, 84, 36
2, 65940, Note_on_c, 0, 84, 0
2, 65940, Note_on_c, 0, 84, 36
2, 66000, Note_on_c, 0, 84, 0
2, 66000, Note_on_c, 0, 84, 36
2, 66060, Note_on_c, 0, 84, 0
2, 66060, Note_on_c, 0, 84, 36
2, 66120, Note_on_c, 0, 84, 0
2, 66120, Note_on_c, 0, 84, 36
2, 66180, Note_on_c, 0, 84, 0
2, 66180, Note_on_c, 0, 84, 36
2, 66240, Note_on_c, 0, 84, 0
2, 66240, Note_on_c, 0, 84, 36
2, 66300, Note_on_c, 0, 84, 0
2, 66300, Note_on_c, 0, 84, 36
2, 66360, Note_on_c, 0, 84, 0
2, 66360, Note_on_c, 0, 84, 36
2, 66420, Note_on_c, 0, 84, 0
2, 66420, Note_on_c, 0, 84, 36
2, 66480, Note_on_c, 0, 84, 0
2, 66480, Note_on_c, 0, 84, 36
2, 66540, Note_on_c, 0, 84, 0
2, 66540, Note_on_c, 0, 84, 36
2, 66600, Note_on_c, 0, 84, 0
2, 66600, Note_on_c, 0, 84, 36
2, 66660, Note_on_c, 0, 84, 0
2, 66660, Note_on_c, 0, 84, 36
2, 66720, Note_on_c, 0, 84, 0
2, 66720, Note_on_c, 0, 84, 36
2, 66780, Note_on_c, 0, 84, 0
2, 66780, Note_on_c, 0, 84, 36
2, 66840, Note_on_c, 0, 84, 0
2, 66840, Note_on_c, 0, 84, 36
2, 66900, Note_on_c, 0, 84, 0
2, 66900, Note_on_c, 0, 84, 36
2, 66960, Note_on_c, 0, 84, 0
2, 66960, Note_on_c, 0, 84, 36
2, 67020, Note_on_c, 0, 84, 0
2, 67020, Note_on_c, 0, 84, 36
2, 67080, Note_on_c, 0, 84, 0
2, 67080, Note_on_c, 0, 84, 36
2, 67140, Note_on_c, 0, 84, 0
2, 67140, Note_on_c, 0, 84, 36
2, 67200, Note_on_c, 0, 84, 0
2, 67200, Note_on_c, 0, 84, 36
2, 67260, Note_on_c, 0, 84, 0
2, 67260, Note_on_c, 0, 84, 36
2, 67320, Note_on_c, 0, 84, 0
2, 67320, Note_on_c, 0, 84, 36
2, 67380, Note_on_c, 0, 84, 0
2, 67380, Note_on_c, 0, 84, 36
2, 67440, Note_on_c, 0, 84, 0
2, 67440, Note_on_c, 0, 84, 36
2, 67500, Note_on_c, 0, 84, 0
2, 67500, Note_on_c, 0, 84, 36
2, 67560, Note_on_c, 0, 84, 0
2, 67560, Note_on_c, 0, 84, 36
2, 67620, Note_on_c, 0, 84, 0
2, 67620, Note_on_c, 0, 84, 36
2, 67680, Note_on_c, 0, 84, 0
2, 67680, Note_on_c, 0, 84, 36
2, 67740, Note_on_c, 0, 84, 0
2, 67740, Note_on_c, 0, 84, 36
2, 67800, Note_on_c, 0, 84, 0
2, 67800, Note_on_c, 0, 84, 36
2, 67860, Note_on_c, 0, 84, 0
2, 67860, Note_on_c, 0, 84, 36
2, 67920, Note_on_c, 0, 84, 0
2, 67920, Note_on_c, 0, 84, 36
2, 67980, Note_on_c, 0, 84, 0
2, 67980, Note_on_c, 0, 84, 36
2, 68040, Note_on_c, 0, 84, 0
2, 68040, Note_on_c, 0, 84, 36
2, 68100, Note_on_c, 0, 84, 0
2, 68100, Note_on_c, 0, 84, 36
2, 68160, Note_on_c, 0, 84, 0
2, 68160, Note_on_c, 0, 84, 36
2, 68220, Note_on_c, 0, 84, 0
2, 68220, Note_on_c, 0, 84, 36
2, 68280, Note_on_c, 0, 84, 0
2, 68280, Note_on_c, 0, 84, 36
2, 68340, Note_on_c, 0, 84, 0
2, 68340, Note_on_c, 0, 84, 36
2, 68400, Note_on_c, 0, 84, 0
2, 68400, Note_on_c, 0, 84, 36
2, 68460, Note_on_c, 0, 84, 0
2, 68460, Note_on_c, 0, 84, 36
2, 68520, Note_on_c, 0, 84, 0
2, 68520, Note_on_c, 0, 84, 36
2, 68580, Note_on_c, 0, 84, 0
2, 68580, Note_on_c, 0, 84, 36
2, 68640, Note_on_c, 0, 84, 0
2, 68640, Note_on_c, 0, 84, 36
2, 68700, Note_on_c, 0, 84, 0
2, 68700, Note_on_c, 0, 84, 36
2, 68760, Note_on_c, 0, 84, 0
2, 68760, Note_on_c, 0, 84, 36
2, 68820, Note_on_c, 0, 84, 0
2, 68820, Note_on_c, 0, 84, 36
2, 68880, Note_on_c, 0, 84, 0
2, 68880, Note_on_c, 0, 84, 36
2, 68940, Note_on_c, 0, 84, 0
2, 68940, Note_on_c, 0, 84, 36
2, 69000, Note_on_c, 0, 84, 0
2, 69000, Note_on_c, 0, 84, 36
2, 69060, Note_on_c, 0, 84, 0
2, 69060, Note_on_c, 0, 84, 36
2, 69120, Note_on_c, 0, 84, 0
2, 69120, Note_on_c, 0, 84, 36
2, 69180, Note_on_c, 0, 84, 0
2, 69180, Note_on_c, 0, 84, 36
2, 69240, Note_on_c, 0, 84, 0
2, 69240, Note_on_c, 0, 84, 36
2, 69300, Note_on_c, 0, 84, 0
2, 69300, Note_on_c, 0, 84, 36
2, 69360, Note_on_c, 0, 84, 0
2, 69360, Note_on_c, 0, 84, 36
2, 69420, Note_on_c, 0, 84, 0
2, 69420, Note_on_c, 0, 84, 36
2, 69480, Note_on_c, 0, 84, 0
2, 69480, Note_on_c, 0, 84, 36
2, 69540, Note_on_c, 0, 84, 0
2, 69540, Note_on_c, 0, 84, 36
2, 69600, Note_on_c, 0, 84, 0
2, 69600, Note_on_c, 0, 84, 36
2, 69660, Note_on_c, 0, 84, 0
2, 69660, Note_on_c, 0, 84, 36
2, 69720, Note_on_c, 0, 84, 0
2, 69720, Note_on_c, 0, 84, 36
2, 69780, Note_on_c, 0, 84, 0
2, 69780, Note_on_c, 0, 84, 36
2, 69840, Note_on_c, 0, 84, 0
2, 69840, Note_on_c, 0, 84, 36
2, 69900, Note_on_c, 0, 84, 0
2, 69900, Note_on_c, 0, 84, 36
2, 69960, Note_on_c, 0, 84, 0
2, 69960, Note_on_c, 0, 84, 36
2, 70020, Note_on_c, 0, 84, 0
2, 70020, Note_on_c, 0, 84, 36
2, 70080, Note_on_c, 0, 84, 0
2, 70080, Note_on_c, 0, 84, 36
2, 70140, Note_on_c, 0, 84, 0
2, 70140, Note_on_c, 0, 84, 36
2, 70200, Note_on_c, 0, 84, 0
2, 70200, Note_on_c, 0, 84, 36
2, 70260, Note_on_c, 0, 84, 0
2, 70260, Note_on_c, 0, 84, 36
2, 70320, Note_on_c, 0, 84, 0
2, 70320, Note_on_c, 0, 84, 36
2, 70380, Note_on_c, 0, 84, 0
2, 70380, Note_on_c, 0, 84, 36
2, 70440, Note_on_c, 0, 84, 0
2, 70440, Note_on_c, 0, 84, 36
2, 70500, Note_on_c, 0, 84, 0
2, 70500, Note_on_c, 0, 84, 36
2, 70560, Note_on_c, 0, 84, 0
2, 70560, Note_on_c, 0, 84, 36
2, 70620, Note_on_c, 0, 84, 0
2, 70620, Note_on_c, 0, 84, 36
2, 70680, Note_on_c, 0, 84, 0
2, 70680, Note_on_c, 0, 84, 36
2, 70740, Note_on_c, 0, 84, 0
2, 70740, Note_on_c, 0, 84, 36
2, 70800, Note_on_c, 0, 84, 0
2, 70800, Note_on_c, 0, 84, 36
2, 70860, Note_on_c, 0, 84, 0
2, 70860, Note_on_c, 0, 84, 36
2, 70920, Note_on_c, 0, 84, 0
2, 70920, Note_on_c, 0, 84, 36
2, 70980, Note_on_c, 0, 84, 0
2, 70980, Note_on_c, 0, 84, 36
2, 71040, Note_on_c, 0, 84, 0
2, 71040, Note_on_c, 0, 84, 36
2, 71100, Note_on_c, 0, 84, 0
2, 71100, Note_on_c, 0, 84, 36
2, 71160, Note_on_c, 0, 84, 0
2, 71160, Note_on_c, 0, 84, 36
2, 71220, Note_on_c, 0, 84, 0
2, 71220, Note_on_c, 0, 84, 36
2, 71280, Note_on_c, 0, 84, 0
2, 71280, Note_on_c, 0, 84, 36
2, 71340, Note_on_c, 0, 84, 0
2, 71340, Note_on_c, 0, 84, 36
2, 71400, Note_on_c, 0, 84, 0
2, 71400, Note_on_c, 0, 84, 36
2, 71460, Note_on_c, 0, 84, 0
2, 71460, Note_on_c, 0, 84, 36
2, 71520, Note_on_c, 0, 84, 0
2, 71520, Note_on_c, 0, 84, 36
2, 71580, Note_on_c, 0, 84, 0
2, 71580, Note_on_c, 0, 84, 36
2, 71640, Note_on_c, 0, 84, 0
2, 71640, Note_on_c, 0, 84, 36
2, 71700, Note_on_c, 0, 84, 0
2, 71700, Note_on_c, 0, 84, 36
2, 71760, Note_on_c, 0, 84, 0
2, 71760, Note_on_c, 0, 84, 36
2, 71820, Note_on_c, 0, 84, 0
2, 71820, Note_on_c, 0, 84, 36
2, 71880, Note_on_c, 0, 84, 0
2, 71880, Note_on_c, 0, 84, 36
2, 71940, Note_on_c, 0, 84, 0
2, 71940, Note_on_c, 0, 84, 36
2, 72000, Note_on_c, 0, 84, 0
2, 72000, Note_on_c, 0, 84, 36
2, 72060, Note_on_c, 0, 84, 0
2, 72060, Note_on_c, 0, 84, 36
2, 72120, Note_on_c, 0, 84, 0
2, 72120, Note_on_c, 0, 84, 36
2, 72180, Note_on_c, 0, 84, 0
2, 72180, Note_on_c, 0, 84, 36
2, 72240, Note_on_c, 0, 84, 0
2, 72240, Note_on_c, 0, 84, 36
2, 72300, Note_on_c, 0, 84, 0
2, 72300, Note_on_c, 0, 84, 36
2, 72360, Note_on_c, 0, 84, 0
2, 72360, Note_on_c, 0, 84, 36
2, 72420, Note_on_c, 0, 84, 0
2, 72420, Note_on_c, 0, 84, 36
2, 72480, Note_on_c, 0, 84, 0
2, 72480, Note_on_c, 0, 84, 36
2, 72540, Note_on_c, 0, 84, 0
2, 72540, Note_on_c, 0, 84, 36
2, 72600, Note_on_c, 0, 84, 0
2, 72600, Note_on_c, 0, 84, 36
2, 72660, Note_on_c, 0, 84, 0
2, 72660, Note_on_c, 0, 84, 36
2, 72720, Note_on_c, 0, 84, 0
2, 72720, Note_on_c, 0, 84, 36
2, 72780, Note_on_c, 0, 84, 0
2, 72780, Note_on_c, 0, 84, 36
2, 72840, Note_on_c, 0, 84, 0
2, 72840, Note_on_c, 0, 84, 36
2, 72900, Note_on_c, 0, 84, 0
2, 72900, Note_on_c, 0, 84, 36
2, 72960, Note_on_c, 0, 84, 0
2, 72960, Note_on_c, 0, 84, 36
2, 73020, Note_on_c, 0, 84, 0
2, 73020, Note_on_c, 0, 84, 36
2, 73080, Note_on_c, 0, 84, 0
2, 73080, Note_on_c, 0, 84, 36
2, 73140, Note_on_c, 0, 84, 0
2, 73140, Note_on_c, 0, 84, 36
2, 73200, Note_on_c, 0, 84, 0
2, 73200, Note_on_c, 0, 84, 36
2, 73260, Note_on_c, 0, 84, 0
2, 73260, Note_on_c, 0, 84, 36
2, 73320, Note_on_c, 0, 84, 0
2, 73320, Note_on_c, 0, 84, 36
2, 73380, Note_on_c, 0, 84, 0
2, 73380, Note_on_c, 0, 84, 36
2, 73440, Note_on_c, 0, 84, 0
2, 73440, Note_on_c, 0, 84, 36
2, 73500, Note_on_c, 0, 84, 0
2, 73500, Note_on_c, 0, 84, 36
2, 73560, Note_on_c, 0, 84, 0
2, 73560, Note_on_c, 0, 84, 36
2, 73620, Note_on_c, 0, 84, 0
2, 73620, Note_on_c, 0, 84, 36
2, 73680, Note_on_c, 0, 84, 0
2, 73680, Note_on_c, 0, 84, 36
2, 73740, Note_on_c, 0, 84, 0
2, 73740, Note_on_c, 0, 84, 36
2, 73800, Note_on_c, 0, 84, 0
2, 73800, Note_on_c, 0, 84, 36
2, 73860, Note_on_c, 0, 84, 0
2, 73860, Note_on_c, 0, 84, 36
2, 73920, Note_on_c, 0, 84, 0
2, 73920, Note_on_c, 0, 84, 36
2, 73980, Note_on_c, 0, 84, 0
2, 73980, Note_on_c, 0, 84, 36
2, 74040, Note_on_c, 0, 84, 0
2, 74040, Note_on_c, 0, 84, 36
2, 74100, Note_on_c, 0, 84, 0
2, 74100, Note_on_c, 0, 84, 36
2, 74160, Note_on_c, 0, 84, 0
2, 74160, Note_on_c, 0, 84, 36
2, 74220, Note_on_c, 0, 84, 0
2, 74220, Note_on_c, 0, 84, 36
2, 74280, Note_on_c, 0, 84, 0
2, 74280, Note_on_c, 0, 84, 36
2, 74340, Note_on_c, 0, 84, 0
2, 74340, Note_on_c, 0, 84, 36
2, 74400, Note_on_c, 0, 84, 0
2, 74400, Note_on_c, 0, 84, 36
2, 74460, Note_on_c, 0, 84, 0
2, 74460, Note_on_c, 0, 84, 36
2, 74520, Note_on_c, 0, 84, 0
2, 74520, Note_on_c, 0, 84, 36
2, 74580, Note_on_c, 0, 84, 0
2, 74580, Note_on_c, 0, 84, 36
2, 74640, Note_on_c, 0, 84, 0
2, 74640, Note_on_c, 0, 84, 36
2, 74700, Note_on_c, 0, 84, 0
2, 74700, Note_on_c, 0, 84, 36
2, 74760, Note_on_c, 0, 84, 0
2, 74760, Note_on_c, 0, 84, 36
2, 74820, Note_on_c, 0, 84, 0
2, 74820, Note_on_c, 0, 84, 36
2, 74880, Note_on_c, 0, 84, 0
2, 74880, Note_on_c, 0, 84, 36
2, 74940, Note_on_c, 0, 84, 0
2, 74940, Note_on_c, 0, 84, 36
2, 75000, Note_on_c, 0, 84, 0
2, 75000, Note_on_c, 0, 84, 36
2, 75060, Note_on_c, 0, 84, 0
2, 75060, Note_on_c, 0, 84, 36
2, 75120, Note_on_c, 0, 84, 0
2, 75120, Note_on_c, 0, 84, 36
2, 75180, Note_on_c, 0, 84, 0
2, 75180, Note_on_c, 0, 84, 36
2, 75240, Note_on_c, 0, 84, 0
2, 75240, Note_on_c, 0, 84, 36
2, 75300, Note_on_c, 0, 84, 0
2, 75300, Note_on_c, 0, 84, 36
2, 75360, Note_on_c, 0, 84, 0
2, 75360, Note_on_c, 0, 84, 36
2, 75420, Note_on_c, 0, 84, 0
2, 75420, Note_on_c, 0, 84, 36
2, 75480, Note_on_c, 0, 84, 0
2, 75480, Note_on_c, 0, 84, 36
2, 75540, Note_on_c, 0, 84, 0
2, 75540, Note_on_c, 0, 84, 36
2, 75600, Note_on_c, 0, 84, 0
2, 75600, Note_on_c, 0, 84, 36
2, 75660, Note_on_c, 0, 84, 0
2, 75660, Note_on_c, 0, 84, 36
2, 75720, Note_on_c, 0, 84, 0
2, 75720, Note_on_c, 0, 84, 36
2, 75780, Note_on_c, 0, 84, 0
2, 75780, Note_on_c, 0, 84, 36
2, 75840, Note_on_c, 0, 84, 0
2, 75840, Note_on_c, 0, 84, 36
2, 75900, Note_on_c, 0, 84, 0
2, 75900, Note_on_c, 0, 84, 36
2, 75960, Note_on_c, 0, 84, 0
2, 75960, Note_on_c, 0, 84, 36
2, 76020, Note_on_c, 0, 84, 0
2, 76020, Note_on_c, 0, 84, 36
2, 76080, Note_on_c, 0, 84, 0
2, 76080, Note_on_c, 0, 84, 36
2, 76140, Note_on_c, 0, 84, 0
2, 76140, Note_on_c, 0, 84, 36
2, 76200, Note_on_c, 0, 84, 0
2, 76200, Note_on_c, 0, 84, 36
2, 76260, Note_on_c, 0, 84, 0
2, 76260, Note_on_c, 0, 84, 36
2, 76320, Note_on_c, 0, 84, 0
2, 76320, Note_on_c, 0, 84, 36
2, 76380, Note_on_c, 0, 84, 0
2, 76380, Note_on_c, 0, 84, 36
2, 76440, Note_on_c, 0, 84, 0
2, 76440, Note_on_c, 0, 84, 36
2, 76500, Note_on_c, 0, 84, 0
2, 76500, Note_on_c, 0, 84, 36
2, 76560, Note_on_c, 0, 84, 0
2, 76560, Note_on_c, 0, 84, 36
2, 76620, Note_on_c, 0, 84, 0
2, 76620, Note_on_c, 0, 84, 36
2, 76680, Note_on_c, 0, 84, 0
2, 76680, Note_on_c, 0, 84, 36
2, 76740, Note_on_c, 0, 84, 0
2, 76740, Note_on_c, 0, 84, 36
2, 76800, Note_on_c, 0, 84, 0
2, 76800, Note_on_c, 0, 84, 36
2, 76860, Note_on_c, 0, 84, 0
2, 76860, Note_on_c, 0, 84, 36
2, 76920, Note_on_c, 0, 84, 0
2, 76920, Note_on_c, 0, 84, 36
2, 76980, Note_on_c, 0, 84, 0
2, 76980, Note_on_c, 0, 84, 36
2, 77040, Note_on_c, 0, 84, 0
2, 77040, Note_on_c, 0, 84, 36
2, 77100, Note_on_c, 0, 84, 0
2, 77100, Note_on_c, 0, 84, 36
2, 77160, Note_on_c, 0, 84, 0
2, 77160, Note_on_c, 0, 84, 36
2, 77220, Note_on_c, 0, 84, 0
2, 77220, Note_on_c, 0, 84, 36
2, 77280, Note_on_c, 0, 84, 0
2, 77280, Note_on_c, 0, 84, 36
2, 77340, Note_on_c, 0, 84, 0
2, 77340, Note_on_c, 0, 84, 36
2, 77400, Note_on_c, 0, 84, 0
2, 77400, Note_on_c, 0, 84, 36
2, 77460, Note_on_c, 0, 84, 0
2, 77460, Note_on_c, 0, 84, 36
2, 77520, Note_on_c, 0, 84, 0
2, 77520, Note_on_c, 0, 84, 36
2, 77580, Note_on_c, 0, 84, 0
2, 77580, Note_on_c, 0, 84, 36
2, 77640, Note_on_c, 0, 84, 0
2, 77640, Note_on_c, 0, 84, 36
2, 77700, Note_on_c, 0, 84, 0
2, 77700, Note_on_c, 0, 84, 36
2, 77760, Note_on_c, 0, 84, 0
2, 77760, Note_on_c, 0, 84, 36
2, 77820, Note_on_c, 0, 84, 0
2, 77820, Note_on_c, 0, 84, 36
2, 77880, Note_on_c, 0, 84, 0
2, 77880, Note_on_c, 0, 84, 36
2, 77940, Note_on_c, 0, 84, 0
2, 77940, Note_on_c, 0, 84, 36
2, 78000, Note_on_c, 0, 84, 0
2, 78000, Note_on_c, 0, 84, 36
2, 78060, Note_on_c, 0, 84, 0
2, 78060, Note_on_c, 0, 84, 36
2, 78120, Note_on_c, 0, 84, 0
2, 78120, Note_on_c, 0, 84, 36
2, 78180, Note_on_c, 0, 84, 0
2, 78180, Note_on_c, 0, 84, 36
2, 78240, Note_on_c, 0, 84, 0
2, 78240, Note_on_c, 0, 84, 36
2, 78300, Note_on_c, 0, 84, 0
2, 78300, Note_on_c, 0, 84, 36
2, 78360, Note_on_c, 0, 84, 0
2, 78360, Note_on_c, 0, 84, 36
2, 78420, Note_on_c, 0, 84, 0
2, 78420, Note_on_c, 0, 84, 36
2, 78480, Note_on_c, 0, 84, 0
2, 78480, Note_on_c, 0, 84, 36
2, 78540, Note_on_c, 0, 84, 0
2, 78540, Note_on_c, 0, 84, 36
2, 78600, Note_on_c, 0, 84, 0
2, 78600, Note_on_c, 0, 84, 36
2, 78660, Note_on_c, 0, 84, 0
2, 78660, Note_on_c, 0, 84, 36
2, 78720, Note_on_c, 0, 84, 0
2, 78720, Note_on_c, 0, 84, 36
2, 78780, Note_on_c, 0, 84, 0
2, 78780, Note_on_c, 0, 84, 36
2, 78840, Note_on_c, 0, 84, 0
2, 78840, Note_on_c, 0, 84, 36
2, 78900, Note_on_c, 0, 84, 0
2, 78900, Note_on_c, 0, 84, 36
2, 78960, Note_on_c, 0, 84, 0
2, 78960, Note_on_c, 0, 84, 36
2, 79020, Note_on_c, 0, 84, 0
2, 79020, Note_on_c, 0, 84, 36
2, 79080, Note_on_c, 0, 84, 0
2, 79080, Note_on_c, 0, 84, 36
2, 79140, Note_on_c, 0, 84, 0
2, 79140, Note_on_c, 0, 84, 36
2, 79200, Note_on_c, 0, 84, 0
2, 79200, Note_on_c, 0, 84, 36
2, 79260, Note_on_c, 0, 84, 0
2, 79260, Note_on_c, 0, 84, 36
2, 79320, Note_on_c, 0, 84, 0
2, 79320, Note_on_c, 0, 84, 36
2, 79380, Note_on_c, 0, 84, 0
2, 79380, Note_on_c, 0, 84, 36
2, 79440, Note_on_c, 0, 84, 0
2, 79440, Note_on_c, 0, 84, 36
2, 79500, Note_on_c, 0, 84, 0
2, 79500, Note_on_c, 0, 84, 36
2, 79560, Note_on_c, 0, 84, 0
2, 79560, Note_on_c, 0, 84, 36
2, 79620, Note_on_c, 0, 84, 0
2, 79620, Note_on_c, 0, 84, 36
2, 79680, Note_on_c, 0, 84, 0
2, 79680, Note_on_c, 0, 84, 36
2, 79740, Note_on_c, 0, 84, 0
2, 79740, Note_on_c, 0, 84, 36
2, 79800, Note_on_c, 0, 84, 0
2, 79800, Note_on_c, 0, 84, 36
2, 79860, Note_on_c, 0, 84, 0
2, 79860, Note_on_c, 0, 84, 36
2, 79920, Note_on_c, 0, 84, 0
2, 79920, Note_on_c, 0, 84, 36
2, 79980, Note_on_c, 0, 84, 0
2, 79980, Note_on_c, 0, 84, 36
2, 80040, Note_on_c, 0, 84, 0
2, 80040, Note_on_c, 0, 84, 36
2, 80100, Note_on_c, 0, 84, 0
2, 80100, Note_on_c, 0, 84, 36
2, 80160, Note_on_c, 0, 84, 0
2, 80160, Note_on_c, 0, 84, 36
2, 80220, Note_on_c, 0, 84, 0
2, 80220, Note_on_c, 0, 84, 36
2, 80280, Note_on_c, 0, 84, 0
2, 80280, Note_on_c, 0, 84, 36
2, 80340, Note_on_c, 0, 84, 0
2, 80340, Note_on_c, 0, 84, 36
2, 80400, Note_on_c, 0, 84, 0
2, 80400, Note_on_c, 0, 84, 36
2, 80460, Note_on_c, 0, 84, 0
2, 80460, Note_on_c, 0, 84, 36
2, 80520, Note_on_c, 0, 84, 0
2, 80520, Note_on_c, 0, 84, 36
2, 80580, Note_on_c, 0, 84, 0
2, 80580, Note_on_c, 0, 84, 36
2, 80640, Note_on_c, 0, 84, 0
2, 80640, Note_on_c, 0, 84, 36
2, 80700, Note_on_c, 0, 84, 0
2, 80700, Note_on_c, 0, 84, 36
2, 80760, Note_on_c, 0, 84, 0
2, 80760, Note_on_c, 0, 84, 36
2, 80820, Note_on_c, 0, 84, 0
2, 80820, Note_on_c, 0, 84, 36
2, 80880, Note_on_c, 0, 84, 0
2, 80880, Note_on_c, 0, 84, 36
2, 80940, Note_on_c, 0, 84, 0
2, 80940, Note_on_c, 0, 84, 36
2, 81000, Note_on_c, 0, 84, 0
2, 81000, Note_on_c, 0, 84, 36
2, 81060, Note_on_c, 0, 84, 0
2, 81060, Note_on_c, 0, 84, 36
2, 81120, Note_on_c, 0, 84, 0
2, 81120, Note_on_c, 0, 84, 36
2, 81180, Note_on_c, 0, 84, 0
2, 81180, Note_on_c, 0, 84, 36
2, 81240, Note_on_c, 0, 84, 0
2, 81240, Note_on_c, 0, 84, 36
2, 81300, Note_on_c, 0, 84, 0
2, 81300, Note_on_c, 0, 84, 36
2, 81360, Note_on_c, 0, 84, 0
2, 81360, Note_on_c, 0, 84, 36
2, 81420, Note_on_c, 0, 84, 0
2, 81420, Note_on_c, 0, 84, 36
2, 81480, Note_on_c, 0, 84, 0
2, 81480, Note_on_c, 0, 84, 36
2, 81540, Note_on_c, 0, 84, 0
2, 81540, Note_on_c, 0, 84, 36
2, 81600, Note_on_c, 0, 84, 0
2, 81600, Note_on_c, 0, 84, 36
2, 81660, Note_on_c, 0, 84, 0
2, 81660, Note_on_c, 0, 84, 36
2, 81720, Note_on_c, 0, 84, 0
2, 81720, Note_on_c, 0, 84, 36
2, 81780, Note_on_c, 0, 84, 0
2, 81780, Note_on_c, 0, 84, 36
2, 81840, Note_on_c, 0, 84, 0
2, 81840, Note_on_c, 0, 84, 36
2, 81900, Note_on_c, 0, 84, 0
2, 81900, Note_on_c, 0, 84, 36
2, 81960, Note_on_c, 0, 84, 0
2, 81960, Note_on_c, 0, 84, 36
2, 82020, Note_on_c, 0, 84, 0
2, 82020, Note_on_c, 0, 84, 36
2, 82080, Note_on_c, 0, 84, 0
2, 82080, Note_on_c, 0, 84, 36
2, 82140, Note_on_c, 0, 84, 0
2, 82140, Note_on_c, 0, 84, 36
2, 82200, Note_on_c, 0, 84, 0
2, 82200, Note_on_c, 0, 84, 36
2, 82260, Note_on_c, 0, 84, 0
2, 82260, Note_on_c, 0, 84, 36
2, 82320, Note_on_c, 0, 84, 0
2, 82320, Note_on_c, 0, 84, 36
2, 82380, Note_on_c, 0, 84, 0
2, 82380, Note_on_c, 0, 84, 36
2, 82440, Note_on_c, 0, 84, 0
2, 82440, Note_on_c, 0, 84, 36
2, 82500, Note_on_c, 0, 84, 0
2, 82500, Note_on_c, 0, 84, 36
2, 82560, Note_on_c, 0, 84, 0
2, 82560, Note_on_c, 0, 84, 36
2, 82620, Note_on_c, 0, 84, 0
2, 82620, Note_on_c, 0, 84, 36
2, 82680, Note_on_c, 0, 84, 0
2, 82680, Note_on_c, 0, 84, 36
2, 82740, Note_on_c, 0, 84, 0
2, 82740, Note_on_c, 0, 84, 36
2, 82800, Note_on_c, 0, 84, 0
2, 82800, Note_on_c, 0, 84, 36
2, 82860, Note_on_c, 0, 84, 0
2, 82860, Note_on_c, 0, 84, 36
2, 82920, Note_on_c, 0, 84, 0
2, 82920, Note_on_c, 0, 84, 36
2, 82980, Note_on_c, 0, 84, 0
2, 82980, Note_on_c, 0, 84, 36
2, 83040, Note_on_c, 0, 84, 0
2, 83040, Note_on_c, 0, 84, 36
2, 83100, Note_on_c, 0, 84, 0
2, 83100, Note_on_c, 0, 84, 36
2, 83160, Note_on_c, 0, 84, 0
2, 83160, Note_on_c, 0, 84, 36
2, 83220, Note_on_c, 0, 84, 0
2, 83220, Note_on_c, 0, 84, 36
2, 83280, Note_on_c, 0, 84, 0
2, 83280, Note_on_c, 0, 84, 36
2, 83340, Note_on_c, 0, 84, 0
2, 83340, Note_on_c, 0, 84, 36
2, 83400, Note_on_c, 0, 84, 0
2, 83400, Note_on_c, 0, 84, 36
2, 83460, Note_on_c, 0, 84, 0
2, 83460, Note_on_c, 0, 84, 36
2, 83520, Note_on_c, 0, 84, 0
2, 83520, Note_on_c, 0, 84, 36
2, 83580, Note_on_c, 0, 84, 0
2, 83580, Note_on_c, 0, 84, 36
2, 83640, Note_on_c, 0, 84, 0
2, 83640, Note_on_c, 0, 84, 36
2, 83700, Note_on_c, 0, 84, 0
2, 83700, Note_on_c, 0, 84, 36
2, 83760, Note_on_c, 0, 84, 0
2, 83760, Note_on_c, 0, 84, 36
2, 83820, Note_on_c, 0, 84, 0
2, 83820, Note_on_c, 0, 84, 36
2, 83880, Note_on_c, 0, 84, 0
2, 83880, Note_on_c, 0, 84, 36
2, 83940, Note_on_c, 0, 84, 0
2, 83940, Note_on_c, 0, 84, 36
2, 84000, Note_on_c, 0, 84, 0
2, 84000, Note_on_c, 0, 84, 36
2, 84060, Note_on_c, 0, 84, 0
2, 84060, Note_on_c, 0, 84, 36
2, 84120, Note_on_c, 0, 84, 0
2, 84120, Note_on_c, 0, 84, 36
2, 84180, Note_on_c, 0, 84, 0
2, 84180, Note_on_c, 0, 84, 36
2, 84240, Note_on_c, 0, 84, 0
2, 84240, Note_on_c, 0, 84, 36
2, 84300, Note_on_c, 0, 84, 0
2, 84300, Note_on_c, 0, 84, 36
2, 84360, Note_on_c, 0, 84, 0
2, 84360, Note_on_c, 0, 84, 36
2, 84420, Note_on_c, 0, 84, 0
2, 84420, Note_on_c, 0, 84, 36
2, 84480, Note_on_c, 0, 84, 0
2, 84480, Note_on_c, 0, 84, 36
2, 84540, Note_on_c, 0, 84, 0
2, 84540, Note_on_c, 0, 84, 36
2, 84600, Note_on_c, 0, 84, 0
2, 84600, Note_on_c, 0, 84, 36
2, 84660, Note_on_c, 0, 84, 0
2, 84660, Note_on_c, 0, 84, 36
2, 84720, Note_on_c, 0, 84, 0
2, 84720, Note_on_c, 0, 84, 36
2, 84780, Note_on_c, 0, 84, 0
2, 84780, Note_on_c, 0, 84, 36
2, 84840, Note_on_c, 0, 84, 0
2, 84840, Note_on_c, 0, 84, 36
2, 84900, Note_on_c, 0, 84, 0
2, 84900, Note_on_c, 0, 84, 36
2, 84960, Note_on_c, 0, 84, 0
2, 84960, Note_on_c, 0, 84, 36
2, 85020, Note_on_c, 0, 84, 0
2, 85020, Note_on_c, 0, 84, 36
2, 85080, Note_on_c, 0, 84, 0
2, 85080, Note_on_c, 0, 84, 36
2, 85140, Note_on_c, 0, 84, 0
2, 85140, Note_on_c, 0, 84, 36
2, 85200, Note_on_c, 0, 84, 0
2, 85200, Note_on_c, 0, 84, 36
2, 85260, Note_on_c, 0, 84, 0
2, 85260, Note_on_c, 0, 84, 36
2, 85320, Note_on_c, 0, 84, 0
2, 85320, Note_on_c, 0, 84, 36
2, 85380, Note_on_c, 0, 84, 0
2, 85380, Note_on_c, 0, 84, 36
2, 85440, Note_on_c, 0, 84, 0
2, 85440, Note_on_c, 0, 84, 36
2, 85500, Note_on_c, 0, 84, 0
2, 85500, Note_on_c, 0, 84, 36
2, 85560, Note_on_c, 0, 84, 0
2, 85560, Note_on_c, 0, 84, 36
2, 85620, Note_on_c, 0, 84, 0
2, 85620, Note_on_c, 0, 84, 36
2, 85680, Note_on_c, 0, 84, 0
2, 85680, Note_on_c, 0, 84, 36
2, 85740, Note_on_c, 0, 84, 0
2, 85740, Note_on_c, 0, 84, 36
2, 85800, Note_on_c, 0, 84, 0
2, 85800, Note_on_c, 0, 84, 36
2, 85860, Note_on_c, 0, 84, 0
2, 85860, Note_on_c, 0, 84, 36
2, 85920, Note_on_c, 0, 84, 0
2, 85920, Note_on_c, 0, 84, 36
2, 85980, Note_on_c, 0, 84, 0
2, 85980, Note_on_c, 0, 84, 36
2, 86040, Note_on_c, 0, 84, 0
2, 86040, Note_on_c, 0, 84, 36
2, 86100, Note_on_c, 0, 84, 0
2, 86100, Note_on_c, 0, 84, 36
2, 86160, Note_on_c, 0, 84, 0
2, 86160, Note_on_c, 0, 84, 36
2, 86220, Note_on_c, 0, 84, 0
2, 86220, Note_on_c, 0, 84, 36
2, 86280, Note_on_c, 0, 84, 0
2, 86280, Note_on_c, 0, 84, 36
2, 86340, Note_on_c, 0, 84, 0
2, 86340, Note_on_c, 0, 84, 36
2, 86400, Note_on_c, 0, 84, 0
2, 86400, Note_on_c, 0, 84, 36
2, 86460, Note_on_c, 0, 84, 0
2, 86460, Note_on_c, 0, 84, 36
2, 86520, Note_on_c, 0, 84, 0
2, 86520, Note_on_c, 0, 84, 36
2, 86580, Note_on_c, 0, 84, 0
2, 86580, Note_on_c, 0, 84, 36
2, 86640, Note_on_c, 0, 84, 0
2, 86640, Note_on_c, 0, 84, 36
2, 86700, Note_on_c, 0, 84, 0
2, 86700, Note_on_c, 0, 84, 36
2, 86760, Note_on_c, 0, 84, 0
2, 86760, Note_on_c, 0, 84, 36
2, 86820, Note_on_c, 0, 84, 0
2, 86820, Note_on_c, 0, 84, 36
2, 86880, Note_on_c, 0, 84, 0
2, 86880, Note_on_c, 0, 84, 36
2, 86940, Note_on_c, 0, 84, 0
2, 86940, Note_on_c, 0, 84, 36
2, 87000, Note_on_c, 0, 84, 0
2, 87000, Note_on_c, 0, 84, 36
2, 87060, Note_on_c, 0, 84, 0
2, 87060, Note_on_c, 0, 84, 36
2, 87120, Note_on_c, 0, 84, 0
2, 87120, Note_on_c, 0, 84, 36
2, 87180, Note_on_c, 0, 84, 0
2, 87180, Note_on_c, 0, 84, 36
2, 87240, Note_on_c, 0, 84, 0
2, 87240, Note_on_c, 0, 84, 36
2, 87300, Note_on_c, 0, 84, 0
2, 87300, Note_on_c, 0, 84, 36
2, 87360, Note_on_c, 0, 84, 0
2, 87360, Note_on_c, 0, 84, 36
2, 87420, Note_on_c, 0, 84, 0
2, 87420, Note_on_c, 0, 84, 36
2, 87480, Note_on_c, 0, 84, 0
2, 87480, Note_on_c, 0, 84, 36
2, 87540, Note_on_c, 0, 84, 0
2, 87540, Note_on_c, 0, 84, 36
2, 87600, Note_on_c, 0, 84, 0
2, 87600, Note_on_c, 0, 84, 36
2, 87660, Note_on_c, 0, 84, 0
2, 87660, Note_on_c, 0, 84, 36
2, 87720, Note_on_c, 0, 84, 0
2, 87720, Note_on_c, 0, 84, 36
2, 87780, Note_on_c, 0, 84, 0
2, 87780, Note_on_c, 0, 84, 36
2, 87840, Note_on_c, 0, 84, 0
2, 87840, Note_on_c, 0, 84, 36
2, 87900, Note_on_c, 0, 84, 0
2, 87900, Note_on_c, 0, 84, 36
2, 87960, Note_on_c, 0, 84, 0
2, 87960, Note_on_c, 0, 84, 36
2, 88020, Note_on_c, 0, 84, 0
2, 88020, Note_on_c, 0, 84, 36
2, 88080, Note_on_c, 0, 84, 0
2, 88080, Note_on_c, 0, 84, 36
2, 88140, Note_on_c, 0, 84, 0
2, 88140, Note_on_c, 0, 84, 36
2, 88200, Note_on_c, 0, 84, 0
2, 88200, Note_on_c, 0, 84, 36
2, 88260, Note_on_c, 0, 84, 0
2, 88260, Note_on_c, 0, 84, 36
2, 88320, Note_on_c, 0, 84, 0
2, 88320, Note_on_c, 0, 84, 36
2, 88380, Note_on_c, 0, 84, 0
2, 88380, Note_on_c, 0, 84, 36
2, 88440, Note_on_c, 0, 84, 0
2, 88440, Note_on_c, 0, 84, 36
2, 88500, Note_on_c, 0, 84, 0
2, 88500, Note_on_c, 0, 84, 36
2, 88560, Note_on_c, 0, 84, 0
2, 88560, Note_on_c, 0, 84, 36
2, 88620, Note_on_c, 0, 84, 0
2, 88620, Note_on_c, 0, 84, 36
2, 88680, Note_on_c, 0, 84, 0
2, 88680, Note_on_c, 0, 84, 36
2, 88740, Note_on_c, 0, 84, 0
2, 88740, Note_on_c, 0, 84, 36
2, 88800, Note_on_c, 0, 84, 0
2, 88800, Note_on_c, 0, 84, 36
2, 88860, Note_on_c, 0, 84, 0
2, 88860, Note_on_c, 0, 84, 36
2, 88920, Note_on_c, 0, 84, 0
2, 88920, Note_on_c, 0, 84, 36
2, 88980, Note_on_c, 0, 84, 0
2, 88980, Note_on_c, 0, 84, 36
2, 89040, Note_on_c, 0, 84, 0
2, 89040, Note_on_c, 0, 84, 36
2, 89100, Note_on_c, 0, 84, 0
2, 89100, Note_on_c, 0, 84, 36
2, 89160, Note_on_c, 0, 84, 0
2, 89160, Note_on_c, 0, 84, 36
2, 89220, Note_on_c, 0, 84, 0
2, 89220, Note_on_c, 0, 84, 36
2, 89280, Note_on_c, 0, 84, 0
2, 89280, Note_on_c, 0, 84, 36
2, 89340, Note_on_c, 0, 84, 0
2, 89340, Note_on_c, 0, 84, 36
2, 89400, Note_on_c, 0, 84, 0
2, 89400, Note_on_c, 0, 84, 36
2, 89460, Note_on_c, 0, 84, 0
2, 89460, Note_on_c, 0, 84, 36
2, 89520, Note_on_c, 0, 84, 0
2, 89520, Note_on_c, 0, 84, 36
2, 89580, Note_on_c, 0, 84, 0
2, 89580, Note_on_c, 0, 84, 36
2, 89640, Note_on_c, 0, 84, 0
2, 89640, Note_on_c, 0, 84, 36
2, 89700, Note_on_c, 0, 84, 0
2, 89700, Note_on_c, 0, 84, 36
2, 89760, Note_on_c, 0, 84, 0
2, 89760, Note_on_c, 0, 84, 36
2, 89820, Note_on_c, 0, 84, 0
2, 89820, Note_on_c, 0, 84, 36
2, 89880, Note_on_c, 0, 84, 0
2, 89880, Note_on_c, 0, 84, 36
2, 89940, Note_on_c, 0, 84, 0
2, 89940, Note_on_c, 0, 84, 36
2, 90000, Note_on_c, 0, 84, 0
2, 90000, Note_on_c, 0, 84, 36
2, 90060, Note_on_c, 0, 84, 0
2, 90060, Note_on_c, 0, 84, 36
2, 90120, Note_on_c, 0, 84, 0
2, 90120, Note_on_c, 0, 84, 36
2, 90180, Note_on_c, 0, 84, 0
2, 90180, Note_on_c, 0, 84, 36
2, 90240, Note_on_c, 0, 84, 0
2, 90240, Note_on_c, 0, 84, 36
2, 90300, Note_on_c, 0, 84, 0
2, 90300, Note_on_c, 0, 84, 36
2, 90360, Note_on_c, 0, 84, 0
2, 90360, Note_on_c, 0, 84, 36
2, 90420, Note_on_c, 0, 84, 0
2, 90420, Note_on_c, 0, 84, 36
2, 90480, Note_on_c, 0, 84, 0
2, 90480, Note_on_c, 0, 84, 36
2, 90540, Note_on_c, 0, 84, 0
2, 90540, Note_on_c, 0, 84, 36
2, 90600, Note_on_c, 0, 84, 0
2, 90600, Note_on_c, 0, 84, 36
2, 90660, Note_on_c, 0, 84, 0
2, 90660, Note_on_c, 0, 84, 36
2, 90720, Note_on_c, 0, 84, 0
2, 90720, Note_on_c, 0, 84, 36
2, 90780, Note_on_c, 0, 84, 0
2, 90780, Note_on_c, 0, 84, 36
2, 90840, Note_on_c, 0, 84, 0
2, 90840, Note_on_c, 0, 84, 36
2, 90900, Note_on_c, 0, 84, 0
2, 90900, Note_on_c, 0, 84, 36
2, 90960, Note_on_c, 0, 84, 0
2, 90960, Note_on_c, 0, 84, 36
2, 91020, Note_on_c, 0, 84, 0
2, 91020, Note_on_c, 0, 84, 36
2, 91080, Note_on_c, 0, 84, 0
2, 91080, Note_on_c, 0, 84, 36
2, 91140, Note_on_c, 0, 84, 0
2, 91140, Note_on_c, 0, 84, 36
2, 91200, Note_on_c, 0, 84, 0
2, 91200, Note_on_c, 0, 84, 36
2, 91260, Note_on_c, 0, 84, 0
2, 91260, Note_on_c, 0, 84, 36
2, 91320, Note_on_c, 0, 84, 0
2, 91320, Note_on_c, 0, 84, 36
2, 91380, Note_on_c, 0, 84, 0
2, 91380, Note_on_c, 0, 84, 36
2, 91440, Note_on_c, 0, 84, 0
2, 91440, Note_on_c, 0, 84, 36
2, 91500, Note_on_c, 0, 84, 0
2, 91500, Note_on_c, 0, 84, 36
2, 91560, Note_on_c, 0, 84, 0
2, 91560, Note_on_c, 0, 84, 36
2, 91620, Note_on_c, 0, 84, 0
2, 91620, Note_on_c, 0, 84, 36
2, 91680, Note_on_c, 0, 84, 0
2, 91680, Note_on_c, 0, 84, 36
2, 91740, Note_on_c, 0, 84, 0
2, 91740, Note_on_c, 0, 84, 36
2, 91800, Note_on_c, 0, 84, 0
2, 91800, Note_on_c, 0, 84, 36
2, 91860, Note_on_c, 0, 84, 0
2, 91860, Note_on_c, 0, 84, 36
2, 91920, Note_on_c, 0, 84, 0
2, 91920, Note_on_c, 0, 84, 36
2, 91980, Note_on_c, 0, 84, 0
2, 91980, Note_on_c, 0, 84, 36
2, 92040, Note_on_c, 0, 84, 0
2, 92040, Note_on_c, 0, 84, 36
2, 92100, Note_on_c, 0, 84, 0
2, 92100, Note_on_c, 0, 84, 36
2, 92160, Note_on_c, 0, 84, 0
2, 92160, Note_on_c, 0, 84, 36
2, 92220, Note_on_c, 0, 84, 0
2, 92220, Note_on_c, 0, 84, 36
2, 92280, Note_on_c, 0, 84, 0
2, 92280, Note_on_c, 0, 84, 36
2, 92340, Note_on_c, 0, 84, 0
2, 92340, Note_on_c, 0, 84, 36
2, 92400, Note_on_c, 0, 84, 0
2, 92400, Note_on_c, 0, 84, 36
2, 92460, Note_on_c, 0, 84, 0
2, 92460, Note_on_c, 0, 84, 36
2, 92520, Note_on_c, 0, 84, 0
2, 92520, Note_on_c, 0, 84, 36
2, 92580, Note_on_c, 0, 84, 0
2, 92580, Note_on_c, 0, 84, 36
2, 92640, Note_on_c, 0, 84, 0
2, 92640, Note_on_c, 0, 84, 36
2, 92700, Note_on_c, 0, 84, 0
2, 92700, Note_on_c, 0, 84, 36
2, 92760, Note_on_c, 0, 84, 0
2, 92760, Note_on_c, 0, 84, 36
2, 92820, Note_on_c, 0, 84, 0
2, 92820, Note_on_c, 0, 84, 36
2, 92880, Note_on_c, 0, 84, 0
2, 92880, Note_on_c, 0, 84, 36
2, 92940, Note_on_c, 0, 84, 0
2, 92940, Note_on_c, 0, 84, 36
2, 93000, Note_on_c, 0, 84, 0
2, 93000, Note_on_c, 0, 84, 36
2, 93060, Note_on_c, 0, 84, 0
2, 93060, Note_on_c, 0, 84, 36
2, 93120, Note_on_c, 0, 84, 0
2, 93120, Note_on_c, 0, 84, 36
2, 93180, Note_on_c, 0, 84, 0
2, 93180, Note_on_c, 0, 84, 36
2, 93240, Note_on_c, 0, 84, 0
2, 93240, Note_on_c, 0, 84, 36
2, 93300, Note_on_c, 0, 84, 0
2, 93300, Note_on_c, 0, 84, 36
2, 93360, Note_on_c, 0, 84, 0
2, 93360, Note_on_c, 0, 84, 36
2, 93420, Note_on_c, 0, 84, 0
2, 93420, Note_on_c, 0, 84, 36
2, 93480, Note_on_c, 0, 84, 0
2, 93480, Note_on_c, 0, 84, 36
2, 93540, Note_on_c, 0, 84, 0
2, 93540, Note_on_c, 0, 84, 36
2, 93600, Note_on_c, 0, 84, 0
2, 93600, Note_on_c, 0, 84, 36
2, 93660, Note_on_c, 0, 84, 0
2, 93660, Note_on_c, 0, 84, 36
2, 93720, Note_on_c, 0, 84, 0
2, 93720, Note_on_c, 0, 84, 36
2, 93780, Note_on_c, 0, 84, 0
2, 93780, Note_on_c, 0, 84, 36
2, 93840, Note_on_c, 0, 84, 0
2, 93840, Note_on_c, 0, 84, 36
2, 93900, Note_on_c, 0, 84, 0
2, 93900, Note_on_c, 0, 84, 36
2, 93960, Note_on_c, 0, 84, 0
2, 93960, Note_on_c, 0, 84, 36
2, 94020, Note_on_c, 0, 84, 0
2, 94020, Note_on_c, 0, 84, 36
2, 94080, Note_on_c, 0, 84, 0
2, 94080, Note_on_c, 0, 84, 36
2, 94140, Note_on_c, 0, 84, 0
2, 94140, Note_on_c, 0, 84, 36
2, 94200, Note_on_c, 0, 84, 0
2, 94200, Note_on_c, 0, 84, 36
2, 94260, Note_on_c, 0, 84, 0
2, 94260, Note_on_c, 0, 84, 36
2, 94320, Note_on_c, 0, 84, 0
2, 94320, Note_on_c, 0, 84, 36
2, 94380, Note_on_c, 0, 84, 0
2, 94380, Note_on_c, 0, 84, 36
2, 94440, Note_on_c, 0, 84, 0
2, 94440, Note_on_c, 0, 84, 36
2, 94500, Note_on_c, 0, 84, 0
2, 94500, Note_on_c, 0, 84, 36
2, 94560, Note_on_c, 0, 84, 0
2, 94560, Note_on_c, 0, 84, 36
2, 94620, Note_on_c, 0, 84, 0
2, 94620, Note_on_c, 0, 84, 36
2, 94680, Note_on_c, 0, 84, 0
2, 94680, Note_on_c, 0, 84, 36
2, 94740, Note_on_c, 0, 84, 0
2, 94740, Note_on_c, 0, 84, 36
2, 94800, Note_on_c, 0, 84, 0
2, 94800, Note_on_c, 0, 84, 36
2, 94860, Note_on_c, 0, 84, 0
2, 94860, Note_on_c, 0, 84, 36
2, 94920, Note_on_c, 0, 84, 0
2, 94920, Note_on_c, 0, 84, 36
2, 94980, Note_on_c, 0, 84, 0
2, 94980, Note_on_c, 0, 84, 36
2, 95040, Note_on_c, 0, 84, 0
2, 95040, Note_on_c, 0, 84, 36
2, 95100, Note_on_c, 0, 84, 0
2, 95100, Note_on_c, 0, 84, 36
2, 95160, Note_on_c, 0, 84, 0
2, 95160, Note_on_c, 0, 84, 36
2, 95220, Note_on_c, 0, 84, 0
2, 95220, Note_on_c, 0, 84, 36
2, 95280, Note_on_c, 0, 84, 0
2, 95280, Note_on_c, 0, 84, 36
2, 95340, Note_on_c, 0, 84, 0
2, 95340, Note_on_c, 0, 84, 36
2, 95400, Note_on_c, 0, 84, 0
2, 95400, Note_on_c, 0, 84, 36
2, 95460, Note_on_c, 0, 84, 0
2, 95460, Note_on_c, 0, 84, 36
2, 95520, Note_on_c, 0, 84, 0
2, 95520, Note_on_c, 0, 84, 36
2, 95580, Note_on_c, 0, 84, 0
2, 95580, Note_on_c, 0, 84, 36
2, 95640, Note_on_c, 0, 84, 0
2, 95640, Note_on_c, 0, 84, 36
2, 95700, Note_on_c, 0, 84, 0
2, 95700, Note_on_c, 0, 84, 36
2, 95760, Note_on_c, 0, 84, 0
2, 95760, Note_on_c, 0, 84, 36
2, 95820, Note_on_c, 0, 84, 0
2, 95820, Note_on_c, 0, 84, 36
2, 95880, Note_on_c, 0, 84, 0
2, 95880, Note_on_c, 0, 84, 36
2, 95940, Note_on_c, 0, 84, 0
2, 95940, Note_on_c, 0, 84, 36
2, 96000, Note_on_c, 0, 84, 0
2, 96000, Note_on_c, 0, 84, 36
2, 96060, Note_on_c, 0, 84, 0
2, 96060, Note_on_c, 0, 84, 36
2, 96120, Note_on_c, 0, 84, 0
2, 96120, Note_on_c, 0, 84, 36
2, 96180, Note_on_c, 0, 84, 0
2, 96180, Note_on_c, 0, 84, 36
2, 96240, Note_on_c, 0, 84, 0
2, 96240, Note_on_c, 0, 84, 36
2, 96300, Note_on_c, 0, 84, 0
2, 96300, Note_on_c, 0, 84, 36
2, 96360, Note_on_c, 0, 84, 0
2, 96360, Note_on_c, 0, 84, 36
2, 96420, Note_on_c, 0, 84, 0
2, 96420, Note_on_c, 0, 84, 36
2, 96480, Note_on_c, 0, 84, 0
2, 96480, Note_on_c, 0, 84, 36
2, 96540, Note_on_c, 0, 84, 0
2, 96540, Note_on_c, 0, 84, 36
2, 96600, Note_on_c, 0, 84, 0
2, 96600, Note_on_c, 0, 84, 36
2, 96660, Note_on_c, 0, 84, 0
2, 96660, Note_on_c, 0, 84, 36
2, 96720, Note_on_c, 0, 84, 0
2, 96720, Note_on_c, 0, 84, 36
2, 96780, Note_on_c, 0, 84, 0
2, 96780, Note_on_c, 0, 84, 36
2, 96840, Note_on_c, 0, 84, 0
2, 96840, Note_on_c, 0, 84, 36
2, 96900, Note_on_c, 0, 84, 0
2, 96900, Note_on_c, 0, 84, 36
2, 96960, Note_on_c, 0, 84, 0
2, 96960, Note_on_c, 0, 84, 36
2, 97020, Note_on_c, 0, 84, 0
2, 97020, Note_on_c, 0, 84, 36
2, 97080, Note_on_c, 0, 84, 0
2, 97080, Note_on_c, 0, 84, 36
2, 97140, Note_on_c, 0, 84, 0
2, 97140, Note_on_c, 0, 84, 36
2, 97200, Note_on_c, 0, 84, 0
2, 97200, Note_on_c, 0, 84, 36
2, 97260, Note_on_c, 0, 84, 0
2, 97260, Note_on_c, 0, 84, 36
2, 97320, Note_on_c, 0, 84, 0
2, 97320, Note_on_c, 0, 84, 36
2, 97380, Note_on_c, 0, 84, 0
2, 97380, Note_on_c, 0, 84, 36
2, 97440, Note_on_c, 0, 84, 0
2, 97440, Note_on_c, 0, 84, 36
2, 97500, Note_on_c, 0, 84, 0
2, 97500, Note_on_c, 0, 84, 36
2, 97560, Note_on_c, 0, 84, 0
2, 97560, Note_on_c, 0, 84, 36
2, 97620, Note_on_c, 0, 84, 0
2, 97620, Note_on_c, 0, 84, 36
2, 97680, Note_on_c, 0, 84, 0
2, 97680, Note_on_c, 0, 84, 36
2, 97740, Note_on_c, 0, 84, 0
2, 97740, Note_on_c, 0, 84, 36
2, 97800, Note_on_c, 0, 84, 0
2, 97800, Note_on_c, 0, 84, 36
2, 97860, Note_on_c, 0, 84, 0
2, 97860, Note_on_c, 0, 84, 36
2, 97920, Note_on_c, 0, 84, 0
2, 97920, Note_on_c, 0, 84, 36
2, 97980, Note_on_c, 0, 84, 0
2, 97980, Note_on_c, 0, 84, 36
2, 98040, Note_on_c, 0, 84, 0
2, 98040, Note_on_c, 0, 84, 36
2, 98100, Note_on_c, 0, 84, 0
2, 98100, Note_on_c, 0, 84, 36
2, 98160, Note_on_c, 0, 84, 0
2, 98160, Note_on_c, 0, 84, 36
2, 98220, Note_on_c, 0, 84, 0
2, 98220, Note_on_c, 0, 84, 36
2, 98280, Note_on_c, 0, 84, 0
2, 98280, Note_on_c, 0, 84, 36
2, 98340, Note_on_c, 0, 84, 0
2, 98340, Note_on_c, 0, 84, 36
2, 98400, Note_on_c, 0, 84, 0
2, 98400, Note_on_c, 0, 84, 36
2, 98460, Note_on_c, 0, 84, 0
2, 98460, Note_on_c, 0, 84, 36
2, 98520, Note_on_c, 0, 84, 0
2, 98520, Note_on_c, 0, 84, 36
2, 98580, Note_on_c, 0, 84, 0
2, 98580, Note_on_c, 0, 84, 36
2, 98640, Note_on_c, 0, 84, 0
2, 98640, Note_on_c, 0, 84, 36
2, 98700, Note_on_c, 0, 84, 0
2, 98700, Note_on_c, 0, 84, 36
2, 98760, Note_on_c, 0, 84, 0
2, 98760, Note_on_c, 0, 84, 36
2, 98820, Note_on_c, 0, 84, 0
2, 98820, Note_on_c, 0, 84, 36
2, 98880, Note_on_c, 0, 84, 0
2, 98880, Note_on_c, 0, 84, 36
2, 98940, Note_on_c, 0, 84, 0
2, 98940, Note_on_c, 0, 84, 36
2, 99000, Note_on_c, 0, 84, 0
2, 99000, Note_on_c, 0, 84, 36
2, 99060, Note_on_c, 0, 84, 0
2, 99060, Note_on_c, 0, 84, 36
2, 99120, Note_on_c, 0, 84, 0
2, 99120, Note_on_c, 0, 84, 36
2, 99180, Note_on_c, 0, 84, 0
2, 99180, Note_on_c, 0, 84, 36
2, 99240, Note_on_c, 0, 84, 0
2, 99240, Note_on_c, 0, 84, 36
2, 99300, Note_on_c, 0, 84, 0
2, 99300, Note_on_c, 0, 84, 36
2, 99360, Note_on_c, 0, 84, 0
2, 99360, Note_on_c, 0, 84, 36
2, 99420, Note_on_c, 0, 84, 0
2, 99420, Note_on_c, 0, 84, 36
2, 99480, Note_on_c, 0, 84, 0
2, 99480, Note_on_c, 0, 84, 36
2, 99540, Note_on_c, 0, 84, 0
2, 99540, Note_on_c, 0, 84, 36
2, 99600, Note_on_c, 0, 84, 0
2, 99600, Note_on_c, 0, 84, 36
2, 99660, Note_on_c, 0, 84, 0
2, 99660, Note_on_c, 0, 84, 36
2, 99720, Note_on_c, 0, 84, 0
2, 99720, Note_on_c, 0, 84, 36
2, 99780, Note_on_c, 0, 84, 0
2, 99780, Note_on_c, 0, 84, 36
2, 99840, Note_on_c, 0, 84, 0
2, 99840, Note_on_c, 0, 84, 36
2, 99900, Note_on_c, 0, 84, 0
2, 99900, Note_on_c, 0, 84, 36
2, 99960, Note_on_c, 0, 84, 0
2, 99960, Note_on_c, 0, 84, 36
2, 100020, Note_on_c, 0, 84, 0
2, 100020, Note_on_c, 0, 84, 36
2, 100080, Note_on_c, 0, 84, 0
2, 100080, Note_on_c, 0, 84, 36
2, 100140, Note_on_c, 0, 84, 0
2, 100140, Note_on_c, 0, 84, 36
2, 100200, Note_on_c, 0, 84, 0
2, 100200, Note_on_c, 0, 84, 36
2, 100260, Note_on_c, 0, 84, 0
2, 100260, Note_on_c, 0, 84, 36
2, 100320, Note_on_c, 0, 84, 0
2, 100320, Note_on_c, 0, 84, 36
2, 100380, Note_on_c, 0, 84, 0
2, 100380, Note_on_c, 0, 84, 36
2, 100440, Note_on_c, 0, 84, 0
2, 100440, Note_on_c, 0, 84, 36
2, 100500, Note_on_c, 0, 84, 0
2, 100500, Note_on_c, 0, 84, 36
2, 100560, Note_on_c, 0, 84, 0
2, 100560, Note_on_c, 0, 84, 36
2, 100620, Note_on_c, 0, 84, 0
2, 100620, Note_on_c, 0, 84, 36
2, 100680, Note_on_c, 0, 84, 0
2, 100680, Note_on_c, 0, 84, 36
2, 100740, Note_on_c, 0, 84, 0
2, 100740, Note_on_c, 0, 84, 36
2, 100800, Note_on_c, 0, 84, 0
2, 100800, Note_on_c, 0, 84, 36
2, 100860, Note_on_c, 0, 84, 0
2, 100860, Note_on_c, 0, 84, 36
2, 100920, Note_on_c, 0, 84, 0
2, 100920, Note_on_c, 0, 84, 36
2, 100980, Note_on_c, 0, 84, 0
2, 100980, Note_on_c, 0, 84, 36
2, 101040, Note_on_c, 0, 84, 0
2, 101040, Note_on_c, 0, 84, 36
2, 101100, Note_on_c, 0, 84, 0
2, 101100, Note_on_c, 0, 84, 36
2, 101160, Note_on_c, 0, 84, 0
2, 101160, Note_on_c, 0, 84, 36
2, 101220, Note_on_c, 0, 84, 0
2, 101220, Note_on_c, 0, 84, 36
2, 101280, Note_on_c, 0, 84, 0
2, 101280, Note_on_c, 0, 84, 36
2, 101340, Note_on_c, 0, 84, 0
2, 101340, Note_on_c, 0, 84, 36
2, 101400, Note_on_c, 0, 84, 0
2, 101400, Note_on_c, 0, 84, 36
2, 101460, Note_on_c, 0, 84, 0
2, 101460, Note_on_c, 0, 84, 36
2, 101520, Note_on_c, 0, 84, 0
2, 101520, Note_on_c, 0, 84, 36
2, 101580, Note_on_c, 0, 84, 0
2, 101580, Note_on_c, 0, 84, 36
2, 101640, Note_on_c, 0, 84, 0
2, 101640, Note_on_c, 0, 84, 36
2, 101700, Note_on_c, 0, 84, 0
2, 101700, Note_on_c, 0, 84, 36
2, 101760, Note_on_c, 0, 84, 0
2, 101760, Note_on_c, 0, 84, 36
2, 101820, Note_on_c, 0, 84, 0
2, 101820, Note_on_c, 0, 84, 36
2, 101880, Note_on_c, 0, 84, 0
2, 101880, Note_on_c, 0, 84, 36
2, 101940, Note_on_c, 0, 84, 0
2, 101940, Note_on_c, 0, 84, 36
2, 102000, Note_on_c, 0, 84, 0
2, 102000, Note_on_c, 0, 84, 36
2, 102060, Note_on_c, 0, 84, 0
2, 102060, Note_on_c, 0, 84, 36
2, 102120, Note_on_c, 0, 84, 0
2, 102120, Note_on_c, 0, 84, 36
2, 102180, Note_on_c, 0, 84, 0
2, 102180, Note_on_c, 0, 84, 36
2, 102240, Note_on_c, 0, 84, 0
2, 102240, Note_on_c, 0, 84, 36
2, 102300, Note_on_c, 0, 84, 0
2, 102300, Note_on_c, 0, 84, 36
2, 102360, Note_on_c, 0, 84, 0
2, 102360, Note_on_c, 0, 84, 36
2, 102420, Note_on_c, 0, 84, 0
2, 102420, Note_on_c, 0, 84, 36
2, 102480, Note_on_c, 0, 84, 0
2, 102480, Note_on_c, 0, 84, 36
2, 102540, Note_on_c, 0, 84, 0
2, 102540, Note_on_c, 0, 84, 36
2, 102600, Note_on_c, 0, 84, 0
2, 102600, Note_on_c, 0, 84, 36
2, 102660, Note_on_c, 0, 84, 0
2, 102660, Note_on_c, 0, 84, 36
2, 102720, Note_on_c, 0, 84, 0
2, 102720, Note_on_c, 0, 84, 36
2, 102780, Note_on_c, 0, 84, 0
2, 102780, Note_on_c, 0, 84, 36
2, 102840, Note_on_c, 0, 84, 0
2, 102840, Note_on_c, 0, 84, 36
2, 102900, Note_on_c, 0, 84, 0
2, 102900, Note_on_c, 0, 84, 36
2, 102960, Note_on_c, 0, 84, 0
2, 102960, Note_on_c, 0, 84, 36
2, 103020, Note_on_c, 0, 84, 0
2, 103020, Note_on_c, 0, 84, 36
2, 103080, Note_on_c, 0, 84, 0
2, 103080, Note_on_c, 0, 84, 36
2, 103140, Note_on_c, 0, 84, 0
2, 103140, Note_on_c, 0, 84, 36
2, 103200, Note_on_c, 0, 84, 0
2, 103200, Note_on_c, 0, 84, 36
2, 103260, Note_on_c, 0, 84, 0
2, 103260, Note_on_c, 0, 84, 36
2, 103320, Note_on_c, 0, 84, 0
2, 103320, Note_on_c, 0, 84, 36
2, 103380, Note_on_c, 0, 84, 0
2, 103380, Note_on_c, 0, 84, 36
2, 103440, Note_on_c, 0, 84, 0
2, 103440, Note_on_c, 0, 84, 36
2, 103500, Note_on_c, 0, 84, 0
2, 103500, Note_on_c, 0, 84, 36
2, 103560, Note_on_c, 0, 84, 0
2, 103560, Note_on_c, 0, 84, 36
2, 103620, Note_on_c, 0, 84, 0
2, 103620, Note_on_c, 0, 84, 36
2, 103680, Note_on_c, 0, 84, 0
2, 103680, Note_on_c, 0, 84, 36
2, 103740, Note_on_c, 0, 84, 0
2, 103740, Note_on_c, 0, 84, 36
2, 103800, Note_on_c, 0, 84, 0
2, 103800, Note_on_c, 0, 84, 36
2, 103860, Note_on_c, 0, 84, 0
2, 103860, Note_on_c, 0, 84, 36
2, 103920, Note_on_c, 0, 84, 0
2, 103920, Note_on_c, 0, 84, 36
2, 103980, Note_on_c, 0, 84, 0
2, 103980, Note_on_c, 0, 84, 36
2, 104040, Note_on_c, 0, 84, 0
2, 104040, Note_on_c, 0, 84, 36
2, 104100, Note_on_c, 0, 84, 0
2, 104100, Note_on_c, 0, 84, 36
2, 104160, Note_on_c, 0, 84, 0
2, 104160, Note_on_c, 0, 84, 36
2, 104220, Note_on_c, 0, 84, 0
2, 104220, Note_on_c, 0, 84, 36
2, 104280, Note_on_c, 0, 84, 0
2, 104280, Note_on_c, 0, 84, 36
2, 104340, Note_on_c, 0, 84, 0
2, 104340, Note_on_c, 0, 84, 36
2, 104400, Note_on_c, 0, 84, 0
2, 104400, Note_on_c, 0, 84, 36
2, 104460, Note_on_c, 0, 84, 0
2, 104460, Note_on_c, 0, 84, 36
2, 104520, Note_on_c, 0, 84, 0
2, 104520, Note_on_c, 0, 84, 36
2, 104580, Note_on_c, 0, 84, 0
2, 104580, Note_on_c, 0, 84, 36
2, 104640, Note_on_c, 0, 84, 0
2, 104640, Note_on_c, 0, 84, 36
2, 104700, Note_on_c, 0, 84, 0
2, 104700, Note_on_c, 0, 84, 36
2, 104760, Note_on_c, 0, 84, 0
2, 104760, Note_on_c, 0, 84, 36
2, 104820, Note_on_c, 0, 84, 0
2, 104820, Note_on_c, 0, 84, 36
2, 104880, Note_on_c, 0, 84, 0
2, 104880, Note_on_c, 0, 84, 36
2, 104940, Note_on_c, 0, 84, 0
2, 104940, Note_on_c, 0, 84, 36
2, 105000, Note_on_c, 0, 84, 0
2, 105000, Note_on_c, 0, 84, 36
2, 105060, Note_on_c, 0, 84, 0
2, 105060, Note_on_c, 0, 84, 36
2, 105120, Note_on_c, 0, 84, 0
2, 105120, Note_on_c, 0, 84, 36
2, 105180, Note_on_c, 0, 84, 0
2, 105180, Note_on_c, 0, 84, 36
2, 105240, Note_on_c, 0, 84, 0
2, 105240, Note_on_c, 0, 84, 36
2, 105300, Note_on_c, 0, 84, 0
2, 105300, Note_on_c, 0, 84, 36
2, 105360, Note_on_c, 0, 84, 0
2, 105360, Note_on_c, 0, 84, 36
2, 105420, Note_on_c, 0, 84, 0
2, 105420, Note_on_c, 0, 84, 36
2, 105480, Note_on_c, 0, 84, 0
2, 105480, Note_on_c, 0, 84, 36
2, 105540, Note_on_c, 0, 84, 0
2, 105540, Note_on_c, 0, 84, 36
2, 105600, Note_on_c, 0, 84, 0
2, 105600, Note_on_c, 0, 84, 36
2, 105660, Note_on_c, 0, 84, 0
2, 105660, Note_on_c, 0, 84, 36
2, 105720, Note_on_c, 0, 84, 0
2, 105720, Note_on_c, 0, 84, 36
2, 105780, Note_on_c, 0, 84, 0
2, 105780, Note_on_c, 0, 84, 36
2, 105840, Note_on_c, 0, 84, 0
2, 105840, Note_on_c, 0, 84, 36
2, 105900, Note_on_c, 0, 84, 0
2, 105900, Note_on_c, 0, 84, 36
2, 105960, Note_on_c, 0, 84, 0
2, 105960, Note_on_c, 0, 84, 36
2, 106020, Note_on_c, 0, 84, 0
2, 106020, Note_on_c, 0, 84, 36
2, 106080, Note_on_c, 0, 84, 0
2, 106080, Note_on_c, 0, 84, 36
2, 106140, Note_on_c, 0, 84, 0
2, 106140, Note_on_c, 0, 84, 36
2, 106200, Note_on_c, 0, 84, 0
2, 106200, Note_on_c, 0, 84, 36
2, 106260, Note_on_c, 0, 84, 0
2, 106260, Note_on_c, 0, 84, 36
2, 106320, Note_on_c, 0, 84, 0
2, 106320, Note_on_c, 0, 84, 36
2, 106380, Note_on_c, 0, 84, 0
2, 106380, Note_on_c, 0, 84, 36
2, 106440, Note_on_c, 0, 84, 0
2, 106440, Note_on_c, 0, 84, 36
2, 106500, Note_on_c, 0, 84, 0
2, 106500, Note_on_c, 0, 84, 36
2, 106560, Note_on_c, 0, 84, 0
2, 106560, Note_on_c, 0, 84, 36
2, 106620, Note_on_c, 0, 84, 0
2, 106620, Note_on_c, 0, 84, 36
2, 106680, Note_on_c, 0, 84, 0
2, 106680, Note_on_c, 0, 84, 36
2, 106740, Note_on_c, 0, 84, 0
2, 106740, Note_on_c, 0, 84, 36
2, 106800, Note_on_c, 0, 84, 0
2, 106800, Note_on_c, 0, 84, 36
2, 106860, Note_on_c, 0, 84, 0
2, 106860, Note_on_c, 0, 84, 36
2, 106920, Note_on_c, 0, 84, 0
2, 106920, Note_on_c, 0, 84, 36
2, 106980, Note_on_c, 0, 84, 0
2, 106980, Note_on_c, 0, 84, 36
2, 107040, Note_on_c, 0, 84, 0
2, 107040, Note_on_c, 0, 84, 36
2, 107100, Note_on_c, 0, 84, 0
2, 107100, Note_on_c, 0, 84, 36
2, 107160, Note_on_c, 0, 84, 0
2, 107160, Note_on_c, 0, 84, 36
2, 107220, Note_on_c, 0, 84, 0
2, 107220, Note_on_c, 0, 84, 36
2, 107280, Note_on_c, 0, 84, 0
2, 107280, Note_on_c, 0, 84, 36
2, 107340, Note_on_c, 0, 84, 0
2, 107340, Note_on_c, 0, 84, 36
2, 107400, Note_on_c, 0, 84, 0
2, 107400, Note_on_c, 0, 84, 36
2, 107460, Note_on_c, 0, 84, 0
2, 107460, Note_on_c, 0, 84, 36
2, 107520, Note_on_c, 0, 84, 0
2, 107520, Note_on_c, 0, 84, 36
2, 107580, Note_on_c, 0, 84, 0
2, 107580, Note_on_c, 0, 84, 36
2, 107640, Note_on_c, 0, 84, 0
2, 107640, Note_on_c, 0, 84, 36
2, 107700, Note_on_c, 0, 84, 0
2, 107700, Note_on_c, 0, 84, 36
2, 107760, Note_on_c, 0, 84, 0
2, 107760, Note_on_c, 0, 84, 36
2, 107820, Note_on_c, 0, 84, 0
2, 107820, Note_on_c, 0, 84, 36
2, 107880, Note_on_c, 0, 84, 0
2, 107880, Note_on_c, 0, 84, 36
2, 107940, Note_on_c, 0, 84, 0
2, 107940, Note_on_c, 0, 84, 36
2, 108000, Note_on_c, 0, 84, 0
2, 108000, Note_on_c, 0, 84, 36
2, 108060, Note_on_c, 0, 84, 0
2, 108060, Note_on_c, 0, 84, 36
2, 108120, Note_on_c, 0, 84, 0
2, 108120, Note_on_c, 0, 84, 36
2, 108180, Note_on_c, 0, 84, 0
2, 108180, Note_on_c, 0, 84, 36
2, 108240, Note_on_c, 0, 84, 0
2, 108240, Note_on_c, 0, 84, 36
2, 108300, Note_on_c, 0, 84, 0
2, 108300, Note_on_c, 0, 84, 36
2, 108360, Note_on_c, 0, 84, 0
2, 108360, Note_on_c, 0, 84, 36
2, 108420, Note_on_c, 0, 84, 0
2, 108420, Note_on_c, 0, 84, 36
2, 108480, Note_on_c, 0, 84, 0
2, 108480, Note_on_c, 0, 84, 36
2, 108540, Note_on_c, 0, 84, 0
2, 108540, Note_on_c, 0, 84, 36
2, 108600, Note_on_c, 0, 84, 0
2, 108600, Note_on_c, 0, 84, 36
2, 108660, Note_on_c, 0, 84, 0
2, 108660, Note_on_c, 0, 84, 36
2, 108720, Note_on_c, 0, 84, 0
2, 108720, Note_on_c, 0, 84, 36
2, 108780, Note_on_c, 0, 84, 0
2, 108780, Note_on_c, 0, 84, 36
2, 108840, Note_on_c, 0, 84, 0
2, 108840, Note_on_c, 0, 84, 36
2, 108900, Note_on_c, 0, 84, 0
2, 108900, Note_on_c, 0, 84, 36
2, 108960, Note_on_c, 0, 84, 0
2, 108960, Note_on_c, 0, 84, 36
2, 109020, Note_on_c, 0, 84, 0
2, 109020, Note_on_c, 0, 84, 36
2, 109080, Note_on_c, 0, 84, 0
2, 109080, Note_on_c, 0, 84, 36
2, 109140, Note_on_c, 0, 84, 0
2, 109140, Note_on_c, 0, 84, 36
2, 109200, Note_on_c, 0, 84, 0
2, 109200, Note_on_c, 0, 84, 36
2, 109260, Note_on_c, 0, 84, 0
2, 109260, Note_on_c, 0, 84, 36
2, 109320, Note_on_c, 0, 84, 0
2, 109320, Note_on_c, 0, 84, 36
2, 109380, Note_on_c, 0, 84, 0
2, 109380, Note_on_c, 0, 84, 36
2, 109440, Note_on_c, 0, 84, 0
2, 109440, Note_on_c, 0, 84, 36
2, 109500, Note_on_c, 0, 84, 0
2, 109500, Note_on_c, 0, 84, 36
2, 109560, Note_on_c, 0, 84, 0
2, 109560, Note_on_c, 0, 84, 36
2, 109620, Note_on_c, 0, 84, 0
2, 109620, Note_on_c, 0, 84, 36
2, 109680, Note_on_c, 0, 84, 0
2, 109680, Note_on_c, 0, 84, 36
2, 109740, Note_on_c, 0, 84, 0
2, 109740, Note_on_c, 0, 84, 36
2, 109800, Note_on_c, 0, 84, 0
2, 109800, Note_on_c, 0, 84, 36
2, 109860, Note_on_c, 0, 84, 0
2, 109860, Note_on_c, 0, 84, 36
2, 109920, Note_on_c, 0, 84, 0
2, 109920, Note_on_c, 0, 84, 36
2, 109980, Note_on_c, 0, 84, 0
2, 109980, Note_on_c, 0, 84, 36
2, 110040, Note_on_c, 0, 84, 0
2, 110040, Note_on_c, 0, 84, 36
2, 110100, Note_on_c, 0, 84, 0
2, 110100, Note_on_c, 0, 84, 36
2, 110160, Note_on_c, 0, 84, 0
2, 110160, Note_on_c, 0, 84, 36
2, 110220, Note_on_c, 0, 84, 0
2, 110220, Note_on_c, 0, 84, 36
2, 110280, Note_on_c, 0, 84, 0
2, 110280, Note_on_c, 0, 84, 36
2, 110340, Note_on_c, 0, 84, 0
2, 110340, Note_on_c, 0, 84, 36
2, 110400, Note_on_c, 0, 84, 0
2, 110400, Note_on_c, 0, 84, 36
2, 110460, Note_on_c, 0, 84, 0
2, 110460, Note_on_c, 0, 84, 36
2, 110520, Note_on_c, 0, 84, 0
2, 110520, Note_on_c, 0, 84, 36
2, 110580, Note_on_c, 0, 84, 0
2, 110580, Note_on_c, 0, 84, 36
2, 110640, Note_on_c, 0, 84, 0
2, 110640, Note_on_c, 0, 84, 36
2, 110700, Note_on_c, 0, 84, 0
2, 110700, Note_on_c, 0, 84, 36
2, 110760, Note_on_c, 0, 84, 0
2, 110760, Note_on_c, 0, 84, 36
2, 110820, Note_on_c, 0, 84, 0
2, 110820, Note_on_c, 0, 84, 36
2, 110880, Note_on_c, 0, 84, 0
2, 110880, Note_on_c, 0, 84, 36
2, 110940, Note_on_c, 0, 84, 0
2, 110940, Note_on_c, 0, 84, 36
2, 111000, Note_on_c, 0, 84, 0
2, 111000, Note_on_c, 0, 84, 36
2, 111060, Note_on_c, 0, 84, 0
2, 111060, Note_on_c, 0, 84, 36
2, 111120, Note_on_c, 0, 84, 0
2, 111120, Note_on_c, 0, 84, 36
2, 111180, Note_on_c, 0, 84, 0
2, 111180, Note_on_c, 0, 84, 36
2, 111240, Note_on_c, 0, 84, 0
2, 111240, Note_on_c, 0, 84, 36
2, 111300, Note_on_c, 0, 84, 0
2, 111300, Note_on_c, 0, 84, 36
2, 111360, Note_on_c, 0, 84, 0
2, 111360, Note_on_c, 0, 84, 36
2, 111420, Note_on_c, 0, 84, 0
2, 111420, Note_on_c, 0, 84, 36
2, 111480, Note_on_c, 0, 84, 0
2, 111480, Note_on_c, 0, 84, 36
2, 111540, Note_on_c, 0, 84, 0
2, 111540, Note_on_c, 0, 84, 36
2, 111600, Note_on_c, 0, 84, 0
2, 111600, Note_on_c, 0, 84, 36
2, 111660, Note_on_c, 0, 84, 0
2, 111660, Note_on_c, 0, 84, 36
2, 111720, Note_on_c, 0, 84, 0
2, 111720, Note_on_c, 0, 84, 36
2, 111780, Note_on_c, 0, 84, 0
2, 111780, Note_on_c, 0, 84, 36
2, 111840, Note_on_c, 0, 84, 0
2, 111840, Note_on_c, 0, 84, 36
2, 111900, Note_on_c, 0, 84, 0
2, 111900, Note_on_c, 0, 84, 36
2, 111960, Note_on_c, 0, 84, 0
2, 111960, Note_on_c, 0, 84, 36
2, 112020, Note_on_c, 0, 84, 0
2, 112020, Note_on_c, 0, 84, 36
2, 112080, Note_on_c, 0, 84, 0
2, 112080, Note_on_c, 0, 84, 36
2, 112140, Note_on_c, 0, 84, 0
2, 112140, Note_on_c, 0, 84, 36
2, 112200, Note_on_c, 0, 84, 0
2, 112200, Note_on_c, 0, 84, 36
2, 112260, Note_on_c, 0, 84, 0
2, 112260, Note_on_c, 0, 84, 36
2, 112320, Note_on_c, 0, 84, 0
2, 112320, Note_on_c, 0, 84, 36
2, 112380, Note_on_c, 0, 84, 0
2, 112380, Note_on_c, 0, 84, 36
2, 112440, Note_on_c, 0, 84, 0
2, 112440, Note_on_c, 0, 84, 36
2, 112500, Note_on_c, 0, 84, 0
2, 112500, Note_on_c, 0, 84, 36
2, 112560, Note_on_c, 0, 84, 0
2, 112560, Note_on_c, 0, 84, 36
2, 112620, Note_on_c, 0, 84, 0
2, 112620, Note_on_c, 0, 84, 36
2, 112680, Note_on_c, 0, 84, 0
2, 112680, Note_on_c, 0, 84, 36
2, 112740, Note_on_c, 0, 84, 0
2, 112740, Note_on_c, 0, 84, 36
2, 112800, Note_on_c, 0, 84, 0
2, 112800, Note_on_c, 0, 84, 36
2, 112860, Note_on_c, 0, 84, 0
2, 112860, Note_on_c, 0, 84, 36
2, 112920, Note_on_c, 0, 84, 0
2, 112920, Note_on_c, 0, 84, 36
2, 112980, Note_on_c, 0, 84, 0
2, 112980, Note_on_c, 0, 84, 36
2, 113040, Note_on_c, 0, 84, 0
2, 113040, Note_on_c, 0, 84, 36
2, 113100, Note_on_c, 0, 84, 0
2, 113100, Note_on_c, 0, 84, 36
2, 113160, Note_on_c, 0, 84, 0
2, 113160, Note_on_c, 0, 84, 36
2, 113220, Note_on_c, 0, 84, 0
2, 113220, Note_on_c, 0, 84, 36
2, 113280, Note_on_c, 0, 84, 0
2, 113280, Note_on_c, 0, 84, 36
2, 113340, Note_on_c, 0, 84, 0
2, 113340, Note_on_c, 0, 84, 36
2, 113400, Note_on_c, 0, 84, 0
2, 113400, Note_on_c, 0, 84, 36
2, 113460, Note_on_c, 0, 84, 0
2, 113460, Note_on_c, 0, 84, 36
2, 113520, Note_on_c, 0, 84, 0
2, 113520, Note_on_c, 0, 84, 36
2, 113580, Note_on_c, 0, 84, 0
2, 113580, Note_on_c, 0, 84, 36
2, 113640, Note_on_c, 0, 84, 0
2, 113640, Note_on_c, 0, 84, 36
2, 113700, Note_on_c, 0, 84, 0
2, 113700, Note_on_c, 0, 84, 36
2, 113760, Note_on_c, 0, 84, 0
2, 113760, Note_on_c, 0, 84, 36
2, 113820, Note_on_c, 0, 84, 0
2, 113820, Note_on_c, 0, 84, 36
2, 113880, Note_on_c, 0, 84, 0
2, 113880, Note_on_c, 0, 84, 36
2, 113940, Note_on_c, 0, 84, 0
2, 113940, Note_on_c, 0, 84, 36
2, 114000, Note_on_c, 0, 84, 0
2, 114000, Note_on_c, 0, 84, 36
2, 114060, Note_on_c, 0, 84, 0
2, 114060, Note_on_c, 0, 84, 36
2, 114120, Note_on_c, 0, 84, 0
2, 114120, Note_on_c, 0, 84, 36
2, 114180, Note_on_c, 0, 84, 0
2, 114180, Note_on_c, 0, 84, 36
2, 114240, Note_on_c, 0, 84, 0
2, 114240, Note_on_c, 0, 84, 36
2, 114300, Note_on_c, 0, 84, 0
2, 114300, Note_on_c, 0, 84, 36
2, 114360, Note_on_c, 0, 84, 0
2, 114360, Note_on_c, 0, 84, 36
2, 114420, Note_on_c, 0, 84, 0
2, 114420, Note_on_c, 0, 84, 36
2, 114480, Note_on_c, 0, 84, 0
2, 114480, Note_on_c, 0, 84, 36
2, 114540, Note_on_c, 0, 84, 0
2, 114540, Note_on_c, 0, 84, 36
2, 114600, Note_on_c, 0, 84, 0
2, 114600, Note_on_c, 0, 84, 36
2, 114660, Note_on_c, 0, 84, 0
2, 114660, Note_on_c, 0, 84, 36
2, 114720, Note_on_c, 0, 84, 0
2, 114720, Note_on_c, 0, 84, 36
2, 114780, Note_on_c, 0, 84, 0
2, 114780, Note_on_c, 0, 84, 36
2, 114840, Note_on_c, 0, 84, 0
2, 114840, Note_on_c, 0, 84, 36
2, 114900, Note_on_c, 0, 84, 0
2, 114900, Note_on_c, 0, 84, 36
2, 114960, Note_on_c, 0, 84, 0
2, 114960, Note_on_c, 0, 84, 36
2, 115020, Note_on_c, 0, 84, 0
2, 115020, Note_on_c, 0, 84, 36
2, 115080, Note_on_c, 0, 84, 0
2, 115080, Note_on_c, 0, 84, 36
2, 115140, Note_on_c, 0, 84, 0
2, 115140, Note_on_c, 0, 84, 36
2, 115200, Note_on_c, 0, 84, 0
2, 115200, Note_on_c, 0, 84, 36
2, 115260, Note_on_c, 0, 84, 0
2, 115260, Note_on_c, 0, 84, 36
2, 115320, Note_on_c, 0, 84, 0
2, 115320, Note_on_c, 0, 84, 36
2, 115380, Note_on_c, 0, 84, 0
2, 115380, Note_on_c, 0, 84, 36
2, 115440, Note_on_c, 0, 84, 0
2, 115440, Note_on_c, 0, 84, 36
2, 115500, Note_on_c, 0, 84, 0
2, 115500, Note_on_c, 0, 84, 36
2, 115560, Note_on_c, 0, 84, 0
2, 115560, Note_on_c, 0, 84, 36
2, 115620, Note_on_c, 0, 84, 0
2, 115620, Note_on_c, 0, 84, 36
2, 115680, Note_on_c, 0, 84, 0
2, 115680, Note_on_c, 0, 84, 36
2, 115740, Note_on_c, 0, 84, 0
2, 115740, Note_on_c, 0, 84, 36
2, 115800, Note_on_c, 0, 84, 0
2, 115800, Note_on_c, 0, 84, 36
2, 115860, Note_on_c, 0, 84, 0
2, 115860, Note_on_c, 0, 84, 36
2, 115920, Note_on_c, 0, 84, 0
2, 115920, Note_on_c, 0, 84, 36
2, 115980, Note_on_c, 0, 84, 0
2, 115980, Note_on_c, 0, 84, 36
2, 116040, Note_on_c, 0, 84, 0
2, 116040, Note_on_c, 0, 84, 36
2, 116100, Note_on_c, 0, 84, 0
2, 116100, Note_on_c, 0, 84, 36
2, 116160, Note_on_c, 0, 84, 0
2, 116160, Note_on_c, 0, 84, 36
2, 116220, Note_on_c, 0, 84, 0
2, 116220, Note_on_c, 0, 84, 36
2, 116280, Note_on_c, 0, 84, 0
2, 116280, Note_on_c, 0, 84, 36
2, 116340, Note_on_c, 0, 84, 0
2, 116340, Note_on_c, 0, 84, 36
2, 116400, Note_on_c, 0, 84, 0
2, 116400, Note_on_c, 0, 84, 36
2, 116460, Note_on_c, 0, 84, 0
2, 116460, Note_on_c, 0, 84, 36
2, 116520, Note_on_c, 0, 84, 0
2, 116520, Note_on_c, 0, 84, 36
2, 116580, Note_on_c, 0, 84, 0
2, 116580, Note_on_c, 0, 84, 36
2, 116640, Note_on_c, 0, 84, 0
2, 116640, Note_on_c, 0, 84, 36
2, 116700, Note_on_c, 0, 84, 0
2, 116700, Note_on_c, 0, 84, 36
2, 116760, Note_on_c, 0, 84, 0
2, 116760, Note_on_c, 0, 84, 36
2, 116820, Note_on_c, 0, 84, 0
2, 116820, Note_on_c, 0, 84, 36
2, 116880, Note_on_c, 0, 84, 0
2, 116880, Note_on_c, 0, 84, 36
2, 116940, Note_on_c, 0, 84, 0
2, 116940, Note_on_c, 0, 84, 36
2, 117000, Note_on_c, 0, 84, 0
2, 117000, Note_on_c, 0, 84, 36
2, 117060, Note_on_c, 0, 84, 0
2, 117060, Note_on_c, 0, 84, 36
2, 117120, Note_on_c, 0, 84, 0
2, 117120, Note_on_c, 0, 84, 36
2, 117180, Note_on_c, 0, 84, 0
2, 117180, Note_on_c, 0, 84, 36
2, 117240, Note_on_c, 0, 84, 0
2, 117240, Note_on_c, 0, 84, 36
2, 117300, Note_on_c, 0, 84, 0
2, 117300, Note_on_c, 0, 84, 36
2, 117360, Note_on_c, 0, 84, 0
2, 117360, Note_on_c, 0, 84, 36
2, 117420, Note_on_c, 0, 84, 0
2, 117420, Note_on_c, 0, 84, 36
2, 117480, Note_on_c, 0, 84, 0
2, 117480, Note_on_c, 0, 84, 36
2, 117540, Note_on_c, 0, 84, 0
2, 117540, Note_on_c, 0, 84, 36
2, 117600, Note_on_c, 0, 84, 0
2, 117600, Note_on_c, 0, 84, 36
2, 117660, Note_on_c, 0, 84, 0
2, 117660, Note_on_c, 0, 84, 36
2, 117720, Note_on_c, 0, 84, 0
2, 117720, Note_on_c, 0, 84, 36
2, 117780, Note_on_c, 0, 84, 0
2, 117780, Note_on_c, 0, 84, 36
2, 117840, Note_on_c, 0, 84, 0
2, 117840, Note_on_c, 0, 84, 36
2, 117900, Note_on_c, 0, 84, 0
2, 117900, Note_on_c, 0, 84, 36
2, 117960, Note_on_c, 0, 84, 0
2, 117960, Note_on_c, 0, 84, 36
2, 118020, Note_on_c, 0, 84, 0
2, 118020, Note_on_c, 0, 84, 36
2, 118080, Note_on_c, 0, 84, 0
2, 118080, Note_on_c, 0, 84, 36
2, 118140, Note_on_c, 0, 84, 0
2, 118140, Note_on_c, 0, 84, 36
2, 118200, Note_on_c, 0, 84, 0
2, 118200, Note_on_c, 0, 84, 36
2, 118260, Note_on_c, 0, 84, 0
2, 118260, Note_on_c, 0, 84, 36
2, 118320, Note_on_c, 0, 84, 0
2, 118320, Note_on_c, 0, 84, 36
2, 118380, Note_on_c, 0, 84, 0
2, 118380, Note_on_c, 0, 84, 36
2, 118440, Note_on_c, 0, 84, 0
2, 118440, Note_on_c, 0, 84, 36
2, 118500, Note_on_c, 0, 84, 0
2, 118500, Note_on_c, 0, 84, 36
2, 118560, Note_on_c, 0, 84, 0
2, 118560, Note_on_c, 0, 84, 36
2, 118620, Note_on_c, 0, 84, 0
2, 118620, Note_on_c, 0, 84, 36
2, 118680, Note_on_c, 0, 84, 0
2, 118680, Note_on_c, 0, 84, 36
2, 118740, Note_on_c, 0, 84, 0
2, 118740, Note_on_c, 0, 84, 36
2, 118800, Note_on_c, 0, 84, 0
2, 118800, Note_on_c, 0, 84, 36
2, 118860, Note_on_c, 0, 84, 0
2, 118860, Note_on_c, 0, 84, 36
2, 118920, Note_on_c, 0, 84, 0
2, 118920, Note_on_c, 0, 84, 36
2, 118980, Note_on_c, 0, 84, 0
2, 118980, Note_on_c, 0, 84, 36
2, 119040, Note_on_c, 0, 84, 0
2, 119040, Note_on_c, 0, 84, 36
2, 119100, Note_on_c, 0, 84, 0
2, 119100, Note_on_c, 0, 84, 36
2, 119160, Note_on_c, 0, 84, 0
2, 119160, Note_on_c, 0, 84, 36
2, 119220, Note_on_c, 0, 84, 0
2, 119220, Note_on_c, 0, 84, 36
2, 119280, Note_on_c, 0, 84, 0
2, 119280, Note_on_c, 0, 84, 36
2, 119340, Note_on_c, 0, 84, 0
2, 119340, Note_on_c, 0, 84, 36
2, 119400, Note_on_c, 0, 84, 0
2, 119400, Note_on_c, 0, 84, 36
2, 119460, Note_on_c, 0, 84, 0
2, 119460, Note_on_c, 0, 84, 36
2, 119520, Note_on_c, 0, 84, 0
2, 119520, Note_on_c, 0, 84, 36
2, 119580, Note_on_c, 0, 84, 0
2, 119580, Note_on_c, 0, 84, 36
2, 119640, Note_on_c, 0, 84, 0
2, 119640, Note_on_c, 0, 84, 36
2, 119700, Note_on_c, 0, 84, 0
2, 119700, Note_on_c, 0, 84, 36
2, 119760, Note_on_c, 0, 84, 0
2, 119760, Note_on_c, 0, 84, 36
2, 119820, Note_on_c, 0, 84, 0
2, 119820, Note_on_c, 0, 84, 36
2, 119880, Note_on_c, 0, 84, 0
2, 119880, Note_on_c, 0, 84, 36
2, 119940, Note_on_c, 0, 84, 0
2, 119940, Note_on_c, 0, 84, 36
2, 120000, Note_on_c, 0, 84, 0
2, 120000, Note_on_c, 0, 84, 36
2, 120060, Note_on_c, 0, 84, 0
2, 120060, Note_on_c, 0, 84, 36
2, 120120, Note_on_c, 0, 84, 0
2, 120120, Note_on_c, 0, 84, 36
2, 120180, Note_on_c, 0, 84, 0
2, 120180, Note_on_c, 0, 84, 36
2, 120240, Note_on_c, 0, 84, 0
2, 120240, Note_on_c, 0, 84, 36
2, 120300, Note_on_c, 0, 84, 0
2, 120300, Note_on_c, 0, 84, 36
2, 120360, Note_on_c, 0, 84, 0
2, 120360, Note_on_c, 0, 84, 36
2, 120420, Note_on_c, 0, 84, 0
2, 120420, Note_on_c, 0, 84, 36
2, 120480, Note_on_c, 0, 84, 0
2, 120480, Note_on_c, 0, 84, 36
2, 120540, Note_on_c, 0, 84, 0
2, 120540, Note_on_c, 0, 84, 36
2, 120600, Note_on_c, 0, 84, 0
2, 120600, Note_on_c, 0, 84, 36
2, 120660, Note_on_c, 0, 84, 0
2, 120660, Note_on_c, 0, 84, 36
2, 120720, Note_on_c, 0, 84, 0
2, 120720, Note_on_c, 0, 84, 36
2, 120780, Note_on_c, 0, 84, 0
2, 120780, Note_on_c, 0, 84, 36
2, 120840, Note_on_c, 0, 84, 0
2, 120840, Note_on_c, 0, 84, 36
2, 120900, Note_on_c, 0, 84, 0
2, 120900, Note_on_c, 0, 84, 36
2, 120960, Note_on_c, 0, 84, 0
2, 120960, Note_on_c, 0, 84, 36
2, 121020, Note_on_c, 0, 84, 0
2, 121020, Note_on_c, 0, 84, 36
2, 121080, Note_on_c, 0, 84, 0
2, 121080, Note_on_c, 0, 84, 36
2, 121140, Note_on_c, 0, 84, 0
2, 121140, Note_on_c, 0, 84, 36
2, 121200, Note_on_c, 0, 84, 0
2, 121200, Note_on_c, 0, 84, 36
2, 121260, Note_on_c, 0, 84, 0
2, 121260, Note_on_c, 0, 84, 36
2, 121320, Note_on_c, 0, 84, 0
2, 121320, Note_on_c, 0, 84, 36
2, 121380, Note_on_c, 0, 84, 0
2, 121380, Note_on_c, 0, 84, 36
2, 121440, Note_on_c, 0, 84, 0
2, 121440, Note_on_c, 0, 84, 36
2, 121500, Note_on_c, 0, 84, 0
2, 121500, Note_on_c, 0, 84, 36
2, 121560, Note_on_c, 0, 84, 0
2, 121560, Note_on_c, 0, 84, 36
2, 121620, Note_on_c, 0, 84, 0
2, 121620, Note_on_c, 0, 84, 36
2, 121680, Note_on_c, 0, 84, 0
2, 121680, Note_on_c, 0, 84, 36
2, 121740, Note_on_c, 0, 84, 0
2, 121740, Note_on_c, 0, 84, 36
2, 121800, Note_on_c, 0, 84, 0
2, 121800, Note_on_c, 0, 84, 36
2, 121860, Note_on_c, 0, 84, 0
2, 121860, Note_on_c, 0, 84, 36
2, 121920, Note_on_c, 0, 84, 0
2, 121920, Note_on_c, 0, 84, 36
2, 121980, Note_on_c, 0, 84, 0
2, 121980, Note_on_c, 0, 84, 36
2, 122040, Note_on_c, 0, 84, 0
2, 122040, Note_on_c, 0, 84, 36
2, 122100, Note_on_c, 0, 84, 0
2, 122100, Note_on_c, 0, 84, 36
2, 122160, Note_on_c, 0, 84, 0
2, 122160, Note_on_c, 0, 84, 36
2, 122220, Note_on_c, 0, 84, 0
2, 122220, Note_on_c, 0, 84, 36
2, 122280, Note_on_c, 0, 84, 0
2, 122280, Note_on_c, 0, 84, 36
2, 122340, Note_on_c, 0, 84, 0
2, 122340, Note_on_c, 0, 84, 36
2, 122400, Note_on_c, 0, 84, 0
2, 122400, Note_on_c, 0, 84, 36
2, 122460, Note_on_c, 0, 84, 0
2, 122460, Note_on_c, 0, 84, 36
2, 122520, Note_on_c, 0, 84, 0
2, 122520, Note_on_c, 0, 84, 36
2, 122580, Note_on_c, 0, 84, 0
2, 122580, Note_on_c, 0, 84, 36
2, 122640, Note_on_c, 0, 84, 0
2, 122640, Note_on_c, 0, 84, 36
2, 122700, Note_on_c, 0, 84, 0
2, 122700, Note_on_c, 0, 84, 36
2, 122760, Note_on_c, 0, 84, 0
2, 122760, Note_on_c, 0, 84, 36
2, 122820, Note_on_c, 0, 84, 0
2, 122820, Note_on_c, 0, 84, 36
2, 122880, Note_on_c, 0, 84, 0
2, 122880, Note_on_c, 0, 84, 36
2, 122940, Note_on_c, 0, 84, 0
2, 122940, Note_on_c, 0, 84, 36
2, 123000, Note_on_c, 0, 84, 0
2, 123000, Note_on_c, 0, 84, 36
2, 123060, Note_on_c, 0, 84, 0
2, 123060, Note_on_c, 0, 84, 36
2, 123120, Note_on_c, 0, 84, 0
2, 123120, Note_on_c, 0, 84, 36
2, 123180, Note_on_c, 0, 84, 0
2, 123180, Note_on_c, 0, 84, 36
2, 123240, Note_on_c, 0, 84, 0
2, 123240, Note_on_c, 0, 84, 36
2, 123300, Note_on_c, 0, 84, 0
2, 123300, Note_on_c, 0, 84, 36
2, 123360, Note_on_c, 0, 84, 0
2, 123360, Note_on_c, 0, 84, 36
2, 123420, Note_on_c, 0, 84, 0
2, 123420, Note_on_c, 0, 84, 36
2, 123480, Note_on_c, 0, 84, 0
2, 123480, Note_on_c, 0, 84, 36
2, 123540, Note_on_c, 0, 84, 0
2, 123540, Note_on_c, 0, 84, 36
2, 123600, Note_on_c, 0, 84, 0
2, 123600, Note_on_c, 0, 84, 36
2, 123660, Note_on_c, 0, 84, 0
2, 123660, Note_on_c, 0, 84, 36
2, 123720, Note_on_c, 0, 84, 0
2, 123720, Note_on_c, 0, 84, 36
2, 123780, Note_on_c, 0, 84, 0
2, 123780, Note_on_c, 0, 84, 36
2, 123840, Note_on_c, 0, 84, 0
2, 123840, Note_on_c, 0, 84, 36
2, 123900, Note_on_c, 0, 84, 0
2, 123900, Note_on_c, 0, 84, 36
2, 123960, Note_on_c, 0, 84, 0
2, 123960, Note_on_c, 0, 84, 36
2, 124020, Note_on_c, 0, 84, 0
2, 124020, Note_on_c, 0, 84, 36
2, 124080, Note_on_c, 0, 84, 0
2, 124080, Note_on_c, 0, 84, 36
2, 124140, Note_on_c, 0, 84, 0
2, 124140, Note_on_c, 0, 84, 36
2, 124200, Note_on_c, 0, 84, 0
2, 124200, Note_on_c, 0, 84, 36
2, 124260, Note_on_c, 0, 84, 0
2, 124260, Note_on_c, 0, 84, 36
2, 124320, Note_on_c, 0, 84, 0
2, 124320, Note_on_c, 0, 84, 36
2, 124380, Note_on_c, 0, 84, 0
2, 124380, Note_on_c, 0, 84, 36
2, 124440, Note_on_c, 0, 84, 0
2, 124440, Note_on_c, 0, 84, 36
2, 124500, Note_on_c, 0, 84, 0
2, 124500, Note_on_c, 0, 84, 36
2, 124560, Note_on_c, 0, 84, 0
2, 124560, Note_on_c, 0, 84, 36
2, 124620, Note_on_c, 0, 84, 0
2, 124620, Note_on_c, 0, 84, 36
2, 124680, Note_on_c, 0, 84, 0
2, 124680, Note_on_c, 0, 84, 36
2, 124740, Note_on_c, 0, 84, 0
2, 124740, Note_on_c, 0, 84, 36
2, 124800, Note_on_c, 0, 84, 0
2, 124800, Note_on_c, 0, 84, 36
2, 124860, Note_on_c, 0, 84, 0
2, 124860, Note_on_c, 0, 84, 36
2, 124920, Note_on_c, 0, 84, 0
2, 124920, Note_on_c, 0, 84, 36
2, 124980, Note_on_c, 0, 84, 0
2, 124980, Note_on_c, 0, 84, 36
2, 125040, Note_on_c, 0, 84, 0
2, 125040, Note_on_c, 0, 84, 36
2, 125100, Note_on_c, 0, 84, 0
2, 125100, Note_on_c, 0, 84, 36
2, 125160, Note_on_c, 0, 84, 0
2, 125160, Note_on_c, 0, 84, 36
2, 125220, Note_on_c, 0, 84, 0
2, 125220, Note_on_c, 0, 84, 36
2, 125280, Note_on_c, 0, 84, 0
2, 125280, Note_on_c, 0, 84, 36
2, 125340, Note_on_c, 0, 84, 0
2, 125340, Note_on_c, 0, 84, 36
2, 125400, Note_on_c, 0, 84, 0
2, 125400, Note_on_c, 0, 84, 36
2, 125460, Note_on_c, 0, 84, 0
2, 125460, Note_on_c, 0, 84, 36
2, 125520, Note_on_c, 0, 84, 0
2, 125520, Note_on_c, 0, 84, 36
2, 125580, Note_on_c, 0, 84, 0
2, 125580, Note_on_c, 0, 84, 36
2, 125640, Note_on_c, 0, 84, 0
2, 125640, Note_on_c, 0, 84, 36
2, 125700, Note_on_c, 0, 84, 0
2, 125700, Note_on_c, 0, 84, 36
2, 125760, Note_on_c, 0, 84, 0
2, 125760, Note_on_c, 0, 84, 36
2, 125820, Note_on_c, 0, 84, 0
2, 125820, Note_on_c, 0, 84, 36
2, 125880, Note_on_c, 0, 84, 0
2, 125880, Note_on_c, 0, 84, 36
2, 125940, Note_on_c, 0, 84, 0
2, 125940, Note_on_c, 0, 84, 36
2, 126000, Note_on_c, 0, 84, 0
2, 126000, Note_on_c, 0, 84, 36
2, 126060, Note_on_c, 0, 84, 0
2, 126060, Note_on_c, 0, 84, 36
2, 126120, Note_on_c, 0, 84, 0
2, 126120, Note_on_c, 0, 84, 36
2, 126180, Note_on_c, 0, 84, 0
2, 126180, Note_on_c, 0, 84, 36
2, 126240, Note_on_c, 0, 84, 0
2, 126240, Note_on_c, 0, 84, 36
2, 126300, Note_on_c, 0, 84, 0
2, 126300, Note_on_c, 0, 84, 36
2, 126360, Note_on_c, 0, 84, 0
2, 126360, Note_on_c, 0, 84, 36
2, 126420, Note_on_c, 0, 84, 0
2, 126420, Note_on_c, 0, 84, 36
2, 126480, Note_on_c, 0, 84, 0
2, 126480, Note_on_c, 0, 84, 36
2, 126540, Note_on_c, 0, 84, 0
2, 126540, Note_on_c, 0, 84, 36
2, 126600, Note_on_c, 0, 84, 0
2, 126600, Note_on_c, 0, 84, 36
2, 126660, Note_on_c, 0, 84, 0
2, 126660, Note_on_c, 0, 84, 36
2, 126720, Note_on_c, 0, 84, 0
2, 126720, Note_on_c, 0, 84, 36
2, 126780, Note_on_c, 0, 84, 0
2, 126780, Note_on_c, 0, 84, 36
2, 126840, Note_on_c, 0, 84, 0
2, 126840, Note_on_c, 0, 84, 36
2, 126900, Note_on_c, 0, 84, 0
2, 126900, Note_on_c, 0, 84, 36
2, 126960, Note_on_c, 0, 84, 0
2, 126960, Note_on_c, 0, 84, 36
2, 127020, Note_on_c, 0, 84, 0
2, 127020, Note_on_c, 0, 84, 36
2, 127080, Note_on_c, 0, 84, 0
2, 127080, Note_on_c, 0, 84, 36
2, 127140, Note_on_c, 0, 84, 0
2, 127140, Note_on_c, 0, 84, 36
2, 127200, Note_on_c, 0, 84, 0
2, 127200, Note_on_c, 0, 84, 36
2, 127260, Note_on_c, 0, 84, 0
2, 127260, Note_on_c, 0, 84, 36
2, 127320, Note_on_c, 0, 84, 0
2, 127320, Note_on_c, 0, 84, 36
2, 127380, Note_on_c, 0, 84, 0
2, 127380, Note_on_c, 0, 84, 36
2, 127440, Note_on_c, 0, 84, 0
2, 127440, Note_on_c, 0, 84, 36
2, 127500, Note_on_c, 0, 84, 0
2, 127500, Note_on_c, 0, 84, 36
2, 127560, Note_on_c, 0, 84, 0
2, 127560, Note_on_c, 0, 84, 36
2, 127620, Note_on_c, 0, 84, 0
2, 127620, Note_on_c, 0, 84, 36
2, 127680, Note_on_c, 0, 84, 0
2, 127680, Note_on_c, 0, 84, 36
2, 127740, Note_on_c, 0, 84, 0
2, 127740, Note_on_c, 0, 84, 36
2, 127800, Note_on_c, 0, 84, 0
2, 127800, Note_on_c, 0, 84, 36
2, 127860, Note_on_c, 0, 84, 0
2, 127860, Note_on_c, 0, 84, 36
2, 127920, Note_on_c, 0, 84, 0
2, 127920, Note_on_c, 0, 84, 36
2, 127980, Note_on_c, 0, 84, 0
2, 127980, Note_on_c, 0, 84, 36
2, 128040, Note_on_c, 0, 84, 0
2, 128040, Note_on_c, 0, 84, 36
2, 128100, Note_on_c, 0, 84, 0
2, 128100, Note_on_c, 0, 84, 36
2, 128160, Note_on_c, 0, 84, 0
2, 128160, Note_on_c, 0, 84, 36
2, 128220, Note_on_c, 0, 84, 0
2, 128220, Note_on_c, 0, 84, 36
2, 128280, Note_on_c, 0, 84, 0
2, 128280, Note_on_c, 0, 84, 36
2, 128340, Note_on_c, 0, 84, 0
2, 128340, Note_on_c, 0, 84, 36
2, 128400, Note_on_c, 0, 84, 0
2, 128400, Note_on_c, 0, 84, 36
2, 128460, Note_on_c, 0, 84, 0
2, 128460, Note_on_c, 0, 84, 36
2, 128520, Note_on_c, 0, 84, 0
2, 128520, Note_on_c, 0, 84, 36
2, 128580, Note_on_c, 0, 84, 0
2, 128580, Note_on_c, 0, 84, 36
2, 128640, Note_on_c, 0, 84, 0
2, 128640, Note_on_c, 0, 84, 36
2, 128700, Note_on_c, 0, 84, 0
2, 128700, Note_on_c, 0, 84, 36
2, 128760, Note_on_c, 0, 84, 0
2, 128760, Note_on_c, 0, 84, 36
2, 128820, Note_on_c, 0, 84, 0
2, 128820, Note_on_c, 0, 84, 36
2, 128880, Note_on_c, 0, 84, 0
2, 128880, Note_on_c, 0, 84, 36
2, 128940, Note_on_c, 0, 84, 0
2, 128940, Note_on_c, 0, 84, 36
2, 129000, Note_on_c, 0, 84, 0
2, 129000, Note_on_c, 0, 84, 36
2, 129060, Note_on_c, 0, 84, 0
2, 129060, Note_on_c, 0, 84, 36
2, 129120, Note_on_c, 0, 84, 0
2, 129120, Note_on_c, 0, 84, 36
2, 129180, Note_on_c, 0, 84, 0
2, 129180, Note_on_c, 0, 84, 36
2, 129240, Note_on_c, 0, 84, 0
2, 129240, Note_on_c, 0, 84, 36
2, 129300, Note_on_c, 0, 84, 0
2, 129300, Note_on_c, 0, 84, 36
2, 129360, Note_on_c, 0, 84, 0
2, 129360, Note_on_c, 0, 84, 36
2, 129420, Note_on_c, 0, 84, 0
2, 129420, Note_on_c, 0, 84, 36
2, 129480, Note_on_c, 0, 84, 0
2, 129480, Note_on_c, 0, 84, 36
2, 129540, Note_on_c, 0, 84, 0
2, 129540, Note_on_c, 0, 84, 36
2, 129600, Note_on_c, 0, 84, 0
2, 129600, Note_on_c, 0, 84, 36
2, 129660, Note_on_c, 0, 84, 0
2, 129660, Note_on_c, 0, 84, 36
2, 129720, Note_on_c, 0, 84, 0
2, 129720, Note_on_c, 0, 84, 36
2, 129780, Note_on_c, 0, 84, 0
2, 129780, Note_on_c, 0, 84, 36
2, 129840, Note_on_c, 0, 84, 0
2, 129840, Note_on_c, 0, 84, 36
2, 129900, Note_on_c, 0, 84, 0
2, 129900, Note_on_c, 0, 84, 36
2, 129960, Note_on_c, 0, 84, 0
2, 129960, Note_on_c, 0, 84, 36
2, 130020, Note_on_c, 0, 84, 0
2, 130020, Note_on_c, 0, 84, 36
2, 130080, Note_on_c, 0, 84, 0
2, 130080, Note_on_c, 0, 84, 36
2, 130140, Note_on_c, 0, 84, 0
2, 130140, Note_on_c, 0, 84, 36
2, 130200, Note_on_c, 0, 84, 0
2, 130200, Note_on_c, 0, 84, 36
2, 130260, Note_on_c, 0, 84, 0
2, 130260, Note_on_c, 0, 84, 36
2, 130320, Note_on_c, 0, 84, 0
2, 130320, Note_on_c, 0, 84, 36
2, 130380, Note_on_c, 0, 84, 0
2, 130380, Note_on_c, 0, 84, 36
2, 130440, Note_on_c, 0, 84, 0
2, 130440, Note_on_c, 0, 84, 36
2, 130500, Note_on_c, 0, 84, 0
2, 130500, Note_on_c, 0, 84, 36
2, 130560, Note_on_c, 0, 84, 0
2, 130560, Note_on_c, 0, 84, 36
2, 130620, Note_on_c, 0, 84, 0
2, 130620, Note_on_c, 0, 84, 36
2, 130680, Note_on_c, 0, 84, 0
2, 130680, Note_on_c, 0, 84, 36
2, 130740, Note_on_c, 0, 84, 0
2, 130740, Note_on_c, 0, 84, 36
2, 130800, Note_on_c, 0, 84, 0
2, 130800, Note_on_c, 0, 84, 36
2, 130860, Note_on_c, 0, 84, 0
2, 130860, Note_on_c, 0, 84, 36
2, 130920, Note_on_c, 0, 84, 0
2, 130920, Note_on_c, 0, 84, 36
2, 130980, Note_on_c, 0, 84, 0
2, 130980, Note_on_c, 0, 84, 36
2, 131040, Note_on_c, 0, 84, 0
2, 131040, Note_on_c, 0, 84, 36
2, 131100, Note_on_c, 0, 84, 0
2, 131100, Note_on_c, 0, 84, 36
2, 131160, Note_on_c, 0, 84, 0
2, 131160, Note_on_c, 0, 84, 36
2, 131220, Note_on_c, 0, 84, 0
2, 131220, Note_on_c, 0, 84, 36
2, 131280, Note_on_c, 0, 84, 0
2, 131280, Note_on_c, 0, 84, 36
2, 131340, Note_on_c, 0, 84, 0
2, 131340, Note_on_c, 0, 84, 36
2, 131400, Note_on_c, 0, 84, 0
2, 131400, Note_on_c, 0, 84, 36
2, 131460, Note_on_c, 0, 84, 0
2, 131460, Note_on_c, 0, 84, 36
2, 131520, Note_on_c, 0, 84, 0
2, 131520, Note_on_c, 0, 84, 36
2, 131580, Note_on_c, 0, 84, 0
2, 131580, Note_on_c, 0, 84, 36
2, 131640, Note_on_c, 0, 84, 0
2, 131640, Note_on_c, 0, 84, 36
2, 131700, Note_on_c, 0, 84, 0
2, 131700, Note_on_c, 0, 84, 36
2, 131760, Note_on_c, 0, 84, 0
2, 131760, Note_on_c, 0, 84, 36
2, 131820, Note_on_c, 0, 84, 0
2, 131820, Note_on_c, 0, 84, 36
2, 131880, Note_on_c, 0, 84, 0
2, 131880, Note_on_c, 0, 84, 36
2, 131940, Note_on_c, 0, 84, 0
2, 131940, Note_on_c, 0, 84, 36
2, 132000, Note_on_c, 0, 84, 0
2, 132000, Note_on_c, 0, 84, 36
2, 132060, Note_on_c, 0, 84, 0
2, 132060, Note_on_c, 0, 84, 36
2, 132120, Note_on_c, 0, 84, 0
2, 132120, Note_on_c, 0, 84, 36
2, 132180, Note_on_c, 0, 84, 0
2, 132180, Note_on_c, 0, 84, 36
2, 132240, Note_on_c, 0, 84, 0
2, 132240, Note_on_c, 0, 84, 36
2, 132300, Note_on_c, 0, 84, 0
2, 132300, Note_on_c, 0, 84, 36
2, 132360, Note_on_c, 0, 84, 0
2, 132360, Note_on_c, 0, 84, 36
2, 132420, Note_on_c, 0, 84, 0
2, 132420, Note_on_c, 0, 84, 36
2, 132480, Note_on_c, 0, 84, 0
2, 132480, Note_on_c, 0, 84, 36
2, 132540, Note_on_c, 0, 84, 0
2, 132540, Note_on_c, 0, 84, 36
2, 132600, Note_on_c, 0, 84, 0
2, 132600, Note_on_c, 0, 84, 36
2, 132660, Note_on_c, 0, 84, 0
2, 132660, Note_on_c, 0, 84, 36
2, 132720, Note_on_c, 0, 84, 0
2, 132720, Note_on_c, 0, 84, 36
2, 132780, Note_on_c, 0, 84, 0
2, 132780, Note_on_c, 0, 84, 36
2, 132840, Note_on_c, 0, 84, 0
2, 132840, Note_on_c, 0, 84, 36
2, 132900, Note_on_c, 0, 84, 0
2, 132900, Note_on_c, 0, 84, 36
2, 132960, Note_on_c, 0, 84, 0
2, 132960, Note_on_c, 0, 84, 36
2, 133020, Note_on_c, 0, 84, 0
2, 133020, Note_on_c, 0, 84, 36
2, 133080, Note_on_c, 0, 84, 0
2, 133080, Note_on_c, 0, 84, 36
2, 133140, Note_on_c, 0, 84, 0
2, 133140, Note_on_c, 0, 84, 36
2, 133200, Note_on_c, 0, 84, 0
2, 133200, Note_on_c, 0, 84, 36
2, 133260, Note_on_c, 0, 84, 0
2, 133260, Note_on_c, 0, 84, 36
2, 133320, Note_on_c, 0, 84, 0
2, 133320, Note_on_c, 0, 84, 36
2, 133380, Note_on_c, 0, 84, 0
2, 133380, Note_on_c, 0, 84, 36
2, 133440, Note_on_c, 0, 84, 0
2, 133440, Note_on_c, 0, 84, 36
2, 133500, Note_on_c, 0, 84, 0
2, 133500, Note_on_c, 0, 84, 36
2, 133560, Note_on_c, 0, 84, 0
2, 133560, Note_on_c, 0, 84, 36
2, 133620, Note_on_c, 0, 84, 0
2, 133620, Note_on_c, 0, 84, 36
2, 133680, Note_on_c, 0, 84, 0
2, 133680, Note_on_c, 0, 84, 36
2, 133740, Note_on_c, 0, 84, 0
2, 133740, Note_on_c, 0, 84, 36
2, 133800, Note_on_c, 0, 84, 0
2, 133800, Note_on_c, 0, 84, 36
2, 133860, Note_on_c, 0, 84, 0
2, 133860, Note_on_c, 0, 84, 36
2, 133920, Note_on_c, 0, 84, 0
2, 133920, Note_on_c, 0, 84, 36
2, 133980, Note_on_c, 0, 84, 0
2, 133980, Note_on_c, 0, 84, 36
2, 134040, Note_on_c, 0, 84, 0
2, 134040, Note_on_c, 0, 84, 36
2, 134100, Note_on_c, 0, 84, 0
2, 134100, Note_on_c, 0, 84, 36
2, 134160, Note_on_c, 0, 84, 0
2, 134160, Note_on_c, 0, 84, 36
2, 134220, Note_on_c, 0, 84, 0
2, 134220, Note_on_c, 0, 84, 36
2, 134280, Note_on_c, 0, 84, 0
2, 134280, Note_on_c, 0, 84, 36
2, 134340, Note_on_c, 0, 84, 0
2, 134340, Note_on_c, 0, 84, 36
2, 134400, Note_on_c, 0, 84, 0
2, 134400, Note_on_c, 0, 84, 36
2, 134460, Note_on_c, 0, 84, 0
2, 134460, Note_on_c, 0, 84, 36
2, 134520, Note_on_c, 0, 84, 0
2, 134520, Note_on_c, 0, 84, 36
2, 134580, Note_on_c, 0, 84, 0
2, 134580, Note_on_c, 0, 84, 36
2, 134640, Note_on_c, 0, 84, 0
2, 134640, Note_on_c, 0, 84, 36
2, 134700, Note_on_c, 0, 84, 0
2, 134700, Note_on_c, 0, 84, 36
2, 134760, Note_on_c, 0, 84, 0
2, 134760, Note_on_c, 0, 84, 36
2, 134820, Note_on_c, 0, 84, 0
2, 134820, Note_on_c, 0, 84, 36
2, 134880, Note_on_c, 0, 84, 0
2, 134880, Note_on_c, 0, 84, 36
2, 134940, Note_on_c, 0, 84, 0
2, 134940, Note_on_c, 0, 84, 36
2, 135000, Note_on_c, 0, 84, 0
2, 135000, Note_on_c, 0, 84, 36
2, 135060, Note_on_c, 0, 84, 0
2, 135060, Note_on_c, 0, 84, 36
2, 135120, Note_on_c, 0, 84, 0
2, 135120, Note_on_c, 0, 84, 36
2, 135180, Note_on_c, 0, 84, 0
2, 135180, Note_on_c, 0, 84, 36
2, 135240, Note_on_c, 0, 84, 0
2, 135240, Note_on_c, 0, 84, 36
2, 135300, Note_on_c, 0, 84, 0
2, 135300, Note_on_c, 0, 84, 36
2, 135360, Note_on_c, 0, 84, 0
2, 135360, Note_on_c, 0, 84, 36
2, 135420, Note_on_c, 0, 84, 0
2, 135420, Note_on_c, 0, 84, 36
2, 135480, Note_on_c, 0, 84, 0
2, 135480, Note_on_c, 0, 84, 36
2, 135540, Note_on_c, 0, 84, 0
2, 135540, Note_on_c, 0, 84, 36
2, 135600, Note_on_c, 0, 84, 0
2, 135600, Note_on_c, 0, 84, 36
2, 135660, Note_on_c, 0, 84, 0
2, 135660, Note_on_c, 0, 84, 36
2, 135720, Note_on_c, 0, 84, 0
2, 135720, Note_on_c, 0, 84, 36
2, 135780, Note_on_c, 0, 84, 0
2, 135780, Note_on_c, 0, 84, 36
2, 135840, Note_on_c, 0, 84, 0
2, 135840, Note_on_c, 0, 84, 36
2, 135900, Note_on_c, 0, 84, 0
2, 135900, Note_on_c, 0, 84, 36
2, 135960, Note_on_c, 0, 84, 0
2, 135960, Note_on_c, 0, 84, 36
2, 136020, Note_on_c, 0, 84, 0
2, 136020, Note_on_c, 0, 84, 36
2, 136080, Note_on_c, 0, 84, 0
2, 136080, Note_on_c, 0, 84, 36
2, 136140, Note_on_c, 0, 84, 0
2, 136140, Note_on_c, 0, 84, 36
2, 136200, Note_on_c, 0, 84, 0
2, 136200, Note_on_c, 0, 84, 36
2, 136260, Note_on_c, 0, 84, 0
2, 136260, Note_on_c, 0, 84, 36
2, 136320, Note_on_c, 0, 84, 0
2, 136320, Note_on_c, 0, 84, 36
2, 136380, Note_on_c, 0, 84, 0
2, 136380, Note_on_c, 0, 84, 36
2, 136440, Note_on_c, 0, 84, 0
2, 136440, Note_on_c, 0, 84, 36
2, 136500, Note_on_c, 0, 84, 0
2, 136500, Note_on_c, 0, 84, 36
2, 136560, Note_on_c, 0, 84, 0
2, 136560, Note_on_c, 0, 84, 36
2, 136620, Note_on_c, 0, 84, 0
2, 136620, Note_on_c, 0, 84, 36
2, 136680, Note_on_c, 0, 84, 0
2, 136680, Note_on_c, 0, 84, 36
2, 136740, Note_on_c, 0, 84, 0
2, 136740, Note_on_c, 0, 84, 36
2, 136800, Note_on_c, 0, 84, 0
2, 136800, Note_on_c, 0, 84, 36
2, 136860, Note_on_c, 0, 84, 0
2, 136860, Note_on_c, 0, 84, 36
2, 136920, Note_on_c, 0, 84, 0
2, 136920, Note_on_c, 0, 84, 36
2, 136980, Note_on_c, 0, 84, 0
2, 136980, Note_on_c, 0, 84, 36
2, 137040, Note_on_c, 0, 84, 0
2, 137040, Note_on_c, 0, 84, 36
2, 137100, Note_on_c, 0, 84, 0
2, 137100, Note_on_c, 0, 84, 36
2, 137160, Note_on_c, 0, 84, 0
2, 137160, Note_on_c, 0, 84, 36
2, 137220, Note_on_c, 0, 84, 0
2, 137220, Note_on_c, 0, 84, 36
2, 137280, Note_on_c, 0, 84, 0
2, 137280, Note_on_c, 0, 84, 36
2, 137340, Note_on_c, 0, 84, 0
2, 137340, Note_on_c, 0, 84, 36
2, 137400, Note_on_c, 0, 84, 0
2, 137400, Note_on_c, 0, 84, 36
2, 137460, Note_on_c, 0, 84, 0
2, 137460, Note_on_c, 0, 84, 36
2, 137520, Note_on_c, 0, 84, 0
2, 137520, Note_on_c, 0, 84, 36
2, 137580, Note_on_c, 0, 84, 0
2, 137580, Note_on_c, 0, 84, 36
2, 137640, Note_on_c, 0, 84, 0
2, 137640, Note_on_c, 0, 84, 36
2, 137700, Note_on_c, 0, 84, 0
2, 137700, Note_on_c, 0, 84, 36
2, 137760, Note_on_c, 0, 84, 0
2, 137760, Note_on_c, 0, 84, 36
2, 137820, Note_on_c, 0, 84, 0
2, 137820, Note_on_c, 0, 84, 36
2, 137880, Note_on_c, 0, 84, 0
2, 137880, Note_on_c, 0, 84, 36
2, 137940, Note_on_c, 0, 84, 0
2, 137940, Note_on_c, 0, 84, 36
2, 138000, Note_on_c, 0, 84, 0
2, 138000, Note_on_c, 0, 84, 36
2, 138060, Note_on_c, 0, 84, 0
2, 138060, Note_on_c, 0, 84, 36
2, 138120, Note_on_c, 0, 84, 0
2, 138120, Note_on_c, 0, 84, 36
2, 138180, Note_on_c, 0, 84, 0
2, 138180, Note_on_c, 0, 84, 36
2, 138240, Note_on_c, 0, 84, 0
2, 138240, Note_on_c, 0, 84, 36
2, 138300, Note_on_c, 0, 84, 0
2, 138300, Note_on_c, 0, 84, 36
2, 138360, Note_on_c, 0, 84, 0
2, 138360, Note_on_c, 0, 84, 36
2, 138420, Note_on_c, 0, 84, 0
2, 138420, Note_on_c, 0, 84, 36
2, 138480, Note_on_c, 0, 84, 0
2, 138480, Note_on_c, 0, 84, 36
2, 138540, Note_on_c, 0, 84, 0
2, 138540, Note_on_c, 0, 84, 36
2, 138600, Note_on_c, 0, 84, 0
2, 138600, Note_on_c, 0, 84, 36
2, 138660, Note_on_c, 0, 84, 0
2, 138660, Note_on_c, 0, 84, 36
2, 138720, Note_on_c, 0, 84, 0
2, 138720, Note_on_c, 0, 84, 36
2, 138780, Note_on_c, 0, 84, 0
2, 138780, Note_on_c, 0, 84, 36
2, 138840, Note_on_c, 0, 84, 0
2, 138840, Note_on_c, 0, 84, 36
2, 138900, Note_on_c, 0, 84, 0
2, 138900, Note_on_c, 0, 84, 36
2, 138960, Note_on_c, 0, 84, 0
2, 138960, Note_on_c, 0, 84, 36
2, 139020, Note_on_c, 0, 84, 0
2, 139020, Note_on_c, 0, 84, 36
2, 139080, Note_on_c, 0, 84, 0
2, 139080, Note_on_c, 0, 84, 36
2, 139140, Note_on_c, 0, 84, 0
2, 139140, Note_on_c, 0, 84, 36
2, 139200, Note_on_c, 0, 84, 0
2, 139200, Note_on_c, 0, 84, 36
2, 139260, Note_on_c, 0, 84, 0
2, 139260, Note_on_c, 0, 84, 36
2, 139320, Note_on_c, 0, 84, 0
2, 139320, Note_on_c, 0, 84, 36
2, 139380, Note_on_c, 0, 84, 0
2, 139380, Note_on_c, 0, 84, 36
2, 139440, Note_on_c, 0, 84, 0
2, 139440, Note_on_c, 0, 84, 36
2, 139500, Note_on_c, 0, 84, 0
2, 139500, Note_on_c, 0, 84, 36
2, 139560, Note_on_c, 0, 84, 0
2, 139560, Note_on_c, 0, 84, 36
2, 139620, Note_on_c, 0, 84, 0
2, 139620, Note_on_c, 0, 84, 36
2, 139680, Note_on_c, 0, 84, 0
2, 139680, Note_on_c, 0, 84, 36
2, 139740, Note_on_c, 0, 84, 0
2, 139740, Note_on_c, 0, 84, 36
2, 139800, Note_on_c, 0, 84, 0
2, 139800, Note_on_c, 0, 84, 36
2, 139860, Note_on_c, 0, 84, 0
2, 139860, Note_on_c, 0, 84, 36
2, 139920, Note_on_c, 0, 84, 0
2, 139920, Note_on_c, 0, 84, 36
2, 139980, Note_on_c, 0, 84, 0
2, 139980, Note_on_c, 0, 84, 36
2, 140040, Note_on_c, 0, 84, 0
2, 140040, Note_on_c, 0, 84, 36
2, 140100, Note_on_c, 0, 84, 0
2, 140100, Note_on_c, 0, 84, 36
2, 140160, Note_on_c, 0, 84, 0
2, 140160, Note_on_c, 0, 84, 36
2, 140220, Note_on_c, 0, 84, 0
2, 140220, Note_on_c, 0, 84, 36
2, 140280, Note_on_c, 0, 84, 0
2, 140280, Note_on_c, 0, 84, 36
2, 140340, Note_on_c, 0, 84, 0
2, 140340, Note_on_c, 0, 84, 36
2, 140400, Note_on_c, 0, 84, 0
2, 140400, Note_on_c, 0, 84, 36
2, 140460, Note_on_c, 0, 84, 0
2, 140460, Note_on_c, 0, 84, 36
2, 140520, Note_on_c, 0, 84, 0
2, 140520, Note_on_c, 0, 84, 36
2, 140580, Note_on_c, 0, 84, 0
2, 140580, Note_on_c, 0, 84, 36
2, 140640, Note_on_c, 0, 84, 0
2, 140640, Note_on_c, 0, 84, 36
2, 140700, Note_on_c, 0, 84, 0
2, 140700, Note_on_c, 0, 84, 36
2, 140760, Note_on_c, 0, 84, 0
2, 140760, Note_on_c, 0, 84, 36
2, 140820, Note_on_c, 0, 84, 0
2, 140820, Note_on_c, 0, 84, 36
2, 140880, Note_on_c, 0, 84, 0
2, 140880, Note_on_c, 0, 84, 36
2, 140940, Note_on_c, 0, 84, 0
2, 140940, Note_on_c, 0, 84, 36
2, 141000, Note_on_c, 0, 84, 0
2, 141000, Note_on_c, 0, 84, 36
2, 141060, Note_on_c, 0, 84, 0
2, 141060, Note_on_c, 0, 84, 36
2, 141120, Note_on_c, 0, 84, 0
2, 141120, Note_on_c, 0, 84, 36
2, 141180, Note_on_c, 0, 84, 0
2, 141180, Note_on_c, 0, 84, 36
2, 141240, Note_on_c, 0, 84, 0
2, 141240, Note_on_c, 0, 84, 36
2, 141300, Note_on_c, 0, 84, 0
2, 141300, Note_on_c, 0, 84, 36
2, 141360, Note_on_c, 0, 84, 0
2, 141360, Note_on_c, 0, 84, 36
2, 141420, Note_on_c, 0, 84, 0
2, 141420, Note_on_c, 0, 84, 36
2, 141480, Note_on_c, 0, 84, 0
2, 141480, Note_on_c, 0, 84, 36
2, 141540, Note_on_c, 0, 84, 0
2, 141540, Note_on_c, 0, 84, 36
2, 141600, Note_on_c, 0, 84, 0
2, 141600, Note_on_c, 0, 84, 36
2, 141660, Note_on_c, 0, 84, 0
2, 141660, Note_on_c, 0, 84, 36
2, 141720, Note_on_c, 0, 84, 0
2, 141720, Note_on_c, 0, 84, 36
2, 141780, Note_on_c, 0, 84, 0
2, 141780, Note_on_c, 0, 84, 36
2, 141840, Note_on_c, 0, 84, 0
2, 141840, Note_on_c, 0, 84, 36
2, 141900, Note_on_c, 0, 84, 0
2, 141900, Note_on_c, 0, 84, 36
2, 141960, Note_on_c, 0, 84, 0
2, 141960, Note_on_c, 0, 84, 36
2, 142020, Note_on_c, 0, 84, 0
2, 142020, Note_on_c, 0, 84, 36
2, 142080, Note_on_c, 0, 84, 0
2, 142080, Note_on_c, 0, 84, 36
2, 142140, Note_on_c, 0, 84, 0
2, 142140, Note_on_c, 0, 84, 36
2, 142200, Note_on_c, 0, 84, 0
2, 142200, Note_on_c, 0, 84, 36
2, 142260, Note_on_c, 0, 84, 0
2, 142260, Note_on_c, 0, 84, 36
2, 142320, Note_on_c, 0, 84, 0
2, 142320, Note_on_c, 0, 84, 36
2, 142380, Note_on_c, 0, 84, 0
2, 142380, Note_on_c, 0, 84, 36
2, 142440, Note_on_c, 0, 84, 0
2, 142440, Note_on_c, 0, 84, 36
2, 142500, Note_on_c, 0, 84, 0
2, 142500, Note_on_c, 0, 84, 36
2, 142560, Note_on_c, 0, 84, 0
2, 142560, Note_on_c, 0, 84, 36
2, 142620, Note_on_c, 0, 84, 0
2, 142620, Note_on_c, 0, 84, 36
2, 142680, Note_on_c, 0, 84, 0
2, 142680, Note_on_c, 0, 84, 36
2, 142740, Note_on_c, 0, 84, 0
2, 142740, Note_on_c, 0, 84, 36
2, 142800, Note_on_c, 0, 84, 0
2, 142800, Note_on_c, 0, 84, 36
2, 142860, Note_on_c, 0, 84, 0
2, 142860, Note_on_c, 0, 84, 36
2, 142920, Note_on_c, 0, 84, 0
2, 142920, Note_on_c, 0, 84, 36
2, 142980, Note_on_c, 0, 84, 0
2, 142980, Note_on_c, 0, 84, 36
2, 143040, Note_on_c, 0, 84, 0
2, 143040, Note_on_c, 0, 84, 36
2, 143100, Note_on_c, 0, 84, 0
2, 143100, Note_on_c, 0, 84, 36
2, 143160, Note_on_c, 0, 84, 0
2, 143160, Note_on_c, 0, 84, 36
2, 143220, Note_on_c, 0, 84, 0
2, 143220, Note_on_c, 0, 84, 36
2, 143280, Note_on_c, 0, 84, 0
2, 143280, Note_on_c, 0, 84, 36
2, 143340, Note_on_c, 0, 84, 0
2, 143340, Note_on_c, 0, 84, 36
2, 143400, Note_on_c, 0, 84, 0
2, 143400, Note_on_c, 0, 84, 36
2, 143460, Note_on_c, 0, 84, 0
2, 143460, Note_on_c, 0, 84, 36
2, 143520, Note_on_c, 0, 84, 0
2, 143520, Note_on_c, 0, 84, 36
2, 143580, Note_on_c, 0, 84, 0
2, 143580, Note_on_c, 0, 84, 36
2, 143640, Note_on_c, 0, 84, 0
2, 143640, Note_on_c, 0, 84, 36
2, 143700, Note_on_c, 0, 84, 0
2, 143700, Note_on_c, 0, 84, 36
2, 143760, Note_on_c, 0, 84, 0
2, 143760, Note_on_c, 0, 84, 36
2, 143820, Note_on_c, 0, 84, 0
2, 143820, Note_on_c, 0, 84, 36
2, 143880, Note_on_c, 0, 84, 0
2, 143880, Note_on_c, 0, 84, 36
2, 143940, Note_on_c, 0, 84, 0
2, 143940, Note_on_c, 0, 84, 36
2, 144000, Note_on_c, 0, 84, 0
2, 144000, Note_on_c, 0, 84, 36
2, 144060, Note_on_c, 0, 84, 0
2, 144060, Note_on_c, 0, 84, 36
2, 144120, Note_on_c, 0, 84, 0
2, 144120, Note_on_c, 0, 84, 36
2, 144180, Note_on_c, 0, 84, 0
2, 144180, Note_on_c, 0, 84, 36
2, 144240, Note_on_c, 0, 84, 0
2, 144240, Note_on_c, 0, 84, 36
2, 144300, Note_on_c, 0, 84, 0
2, 144300, Note_on_c, 0, 84, 36
2, 144360, Note_on_c, 0, 84, 0
2, 144360, Note_on_c, 0, 84, 36
2, 144420, Note_on_c, 0, 84, 0
2, 144420, Note_on_c, 0, 84, 36
2, 144480, Note_on_c, 0, 84, 0
2, 144480, Note_on_c, 0, 84, 36
2, 144540, Note_on_c, 0, 84, 0
2, 144540, Note_on_c, 0, 84, 36
2, 144600, Note_on_c, 0, 84, 0
2, 144600, Note_on_c, 0, 84, 36
2, 144660, Note_on_c, 0, 84, 0
2, 144660, Note_on_c, 0, 84, 36
2, 144720, Note_on_c, 0, 84, 0
2, 144720, Note_on_c, 0, 84, 36
2, 144780, Note_on_c, 0, 84, 0
2, 144780, Note_on_c, 0, 84, 36
2, 144840, Note_on_c, 0, 84, 0
2, 144840, Note_on_c, 0, 84, 36
2, 144900, Note_on_c, 0, 84, 0
2, 144900, Note_on_c, 0, 84, 36
2, 144960, Note_on_c, 0, 84, 0
2, 144960, Note_on_c, 0, 84, 36
2, 145020, Note_on_c, 0, 84, 0
2, 145020, Note_on_c, 0, 84, 36
2, 145080, Note_on_c, 0, 84, 0
2, 145080, Note_on_c, 0, 84, 36
2, 145140, Note_on_c, 0, 84, 0
2, 145140, Note_on_c, 0, 84, 36
2, 145200, Note_on_c, 0, 84, 0
2, 145200, Note_on_c, 0, 84, 36
2, 145260, Note_on_c, 0, 84, 0
2, 145260, Note_on_c, 0, 84, 36
2, 145320, Note_on_c, 0, 84, 0
2, 145320, Note_on_c, 0, 84, 36
2, 145380, Note_on_c, 0, 84, 0
2, 145380, Note_on_c, 0, 84, 36
2, 145440, Note_on_c, 0, 84, 0
2, 145440, Note_on_c, 0, 84, 36
2, 145500, Note_on_c, 0, 84, 0
2, 145500, Note_on_c, 0, 84, 36
2, 145560, Note_on_c, 0, 84, 0
2, 145560, Note_on_c, 0, 84, 36
2, 145620, Note_on_c, 0, 84, 0
2, 145620, Note_on_c, 0, 84, 36
2, 145680, Note_on_c, 0, 84, 0
2, 145680, Note_on_c, 0, 84, 36
2, 145740, Note_on_c, 0, 84, 0
2, 145740, Note_on_c, 0, 84, 36
2, 145800, Note_on_c, 0, 84, 0
2, 145800, Note_on_c, 0, 84, 36
2, 145860, Note_on_c, 0, 84, 0
2, 145860, Note_on_c, 0, 84, 36
2, 145920, Note_on_c, 0, 84, 0
2, 145920, Note_on_c, 0, 84, 36
2, 145980, Note_on_c, 0, 84, 0
2, 145980, Note_on_c, 0, 84, 36
2, 146040, Note_on_c, 0, 84, 0
2, 146040, Note_on_c, 0, 84, 36
2, 146100, Note_on_c, 0, 84, 0
2, 146100, Note_on_c, 0, 84, 36
2, 146160, Note_on_c, 0, 84, 0
2, 146160, Note_on_c, 0, 84, 36
2, 146220, Note_on_c, 0, 84, 0
2, 146220, Note_on_c, 0, 84, 36
2, 146280, Note_on_c, 0, 84, 0
2, 146280, Note_on_c, 0, 84, 36
2, 146340, Note_on_c, 0, 84, 0
2, 146340, Note_on_c, 0, 84, 36
2, 146400, Note_on_c, 0, 84, 0
2, 146400, Note_on_c, 0, 84, 36
2, 146460, Note_on_c, 0, 84, 0
2, 146460, Note_on_c, 0, 84, 36
2, 146520, Note_on_c, 0, 84, 0
2, 146520, Note_on_c, 0, 84, 36
2, 146580, Note_on_c, 0, 84, 0
2, 146580, Note_on_c, 0, 84, 36
2, 146640, Note_on_c, 0, 84, 0
2, 146640, Note_on_c, 0, 84, 36
2, 146700, Note_on_c, 0, 84, 0
2, 146700, Note_on_c, 0, 84, 36
2, 146760, Note_on_c, 0, 84, 0
2, 146760, Note_on_c, 0, 84, 36
2, 146820, Note_on_c, 0, 84, 0
2, 146820, Note_on_c, 0, 84, 36
2, 146880, Note_on_c, 0, 84, 0
2, 146880, Note_on_c, 0, 84, 36
2, 146940, Note_on_c, 0, 84, 0
2, 146940, Note_on_c, 0, 84, 36
2, 147000, Note_on_c, 0, 84, 0
2, 147000, Note_on_c, 0, 84, 36
2, 147060, Note_on_c, 0, 84, 0
2, 147060, Note_on_c, 0, 84, 36
2, 147120, Note_on_c, 0, 84, 0
2, 147120, Note_on_c, 0, 84, 36
2, 147180, Note_on_c, 0, 84, 0
2, 147180, Note_on_c, 0, 84, 36
2, 147240, Note_on_c, 0, 84, 0
2, 147240, Note_on_c, 0, 84, 36
2, 147300, Note_on_c, 0, 84, 0
2, 147300, Note_on_c, 0, 84, 36
2, 147360, Note_on_c, 0, 84, 0
2, 147360, Note_on_c, 0, 84, 36
2, 147420, Note_on_c, 0, 84, 0
2, 147420, Note_on_c, 0, 84, 36
2, 147480, Note_on_c, 0, 84, 0
2, 147480, Note_on_c, 0, 84, 36
2, 147540, Note_on_c, 0, 84, 0
2, 147540, Note_on_c, 0, 84, 36
2, 147600, Note_on_c, 0, 84, 0
2, 147600, Note_on_c, 0, 84, 36
2, 147660, Note_on_c, 0, 84, 0
2, 147660, Note_on_c, 0, 84, 36
2, 147720, Note_on_c, 0, 84, 0
2, 147720, Note_on_c, 0, 84, 36
2, 147780, Note_on_c, 0, 84, 0
2, 147780, Note_on_c, 0, 84, 36
2, 147840, Note_on_c, 0, 84, 0
2, 147840, Note_on_c, 0, 84, 36
2, 147900, Note_on_c, 0, 84, 0
2, 147900, Note_on_c, 0, 84, 36
2, 147960, Note_on_c, 0, 84, 0
2, 147960, Note_on_c, 0, 84, 36
2, 148020, Note_on_c, 0, 84, 0
2, 148020, Note_on_c, 0, 84, 36
2, 148080, Note_on_c, 0, 84, 0
2, 148080, Note_on_c, 0, 84, 36
2, 148140, Note_on_c, 0, 84, 0
2, 148140, Note_on_c, 0, 84, 36
2, 148200, Note_on_c, 0, 84, 0
2, 148200, Note_on_c, 0, 84, 36
2, 148260, Note_on_c, 0, 84, 0
2, 148260, Note_on_c, 0, 84, 36
2, 148320, Note_on_c, 0, 84, 0
2, 148320, Note_on_c, 0, 84, 36
2, 148380, Note_on_c, 0, 84, 0
2, 148380, Note_on_c, 0, 84, 36
2, 148440, Note_on_c, 0, 84, 0
2, 148440, Note_on_c, 0, 84, 36
2, 148500, Note_on_c, 0, 84, 0
2, 148500, Note_on_c, 0, 84, 36
2, 148560, Note_on_c, 0, 84, 0
2, 148560, Note_on_c, 0, 84, 36
2, 148620, Note_on_c, 0, 84, 0
2, 148620, Note_on_c, 0, 84, 36
2, 148680, Note_on_c, 0, 84, 0
2, 148680, Note_on_c, 0, 84, 36
2, 148740, Note_on_c, 0, 84, 0
2, 148740, Note_on_c, 0, 84, 36
2, 148800, Note_on_c, 0, 84, 0
2, 148800, Note_on_c, 0, 84, 36
2, 148860, Note_on_c, 0, 84, 0
2, 148860, Note_on_c, 0, 84, 36
2, 148920, Note_on_c, 0, 84, 0
2, 148920, Note_on_c, 0, 84, 36
2, 148980, Note_on_c, 0, 84, 0
2, 148980, Note_on_c, 0, 84, 36
2, 149040, Note_on_c, 0, 84, 0
2, 149040, Note_on_c, 0, 84, 36
2, 149100, Note_on_c, 0, 84, 0
2, 149100, Note_on_c, 0, 84, 36
2, 149160, Note_on_c, 0, 84, 0
2, 149160, Note_on_c, 0, 84, 36
2, 149220, Note_on_c, 0, 84, 0
2, 149220, Note_on_c, 0, 84, 36
2, 149280, Note_on_c, 0, 84, 0
2, 149280, Note_on_c, 0, 84, 36
2, 149340, Note_on_c, 0, 84, 0
2, 149340, Note_on_c, 0, 84, 36
2, 149400, Note_on_c, 0, 84, 0
2, 149400, Note_on_c, 0, 84, 36
2, 149460, Note_on_c, 0, 84, 0
2, 149460, Note_on_c, 0, 84, 36
2, 149520, Note_on_c, 0, 84, 0
2, 149520, Note_on_c, 0, 84, 36
2, 149580, Note_on_c, 0, 84, 0
2, 149580, Note_on_c, 0, 84, 36
2, 149640, Note_on_c, 0, 84, 0
2, 149640, Note_on_c, 0, 84, 36
2, 149700, Note_on_c, 0, 84, 0
2, 149700, Note_on_c, 0, 84, 36
2, 149760, Note_on_c, 0, 84, 0
2, 149760, Note_on_c, 0, 84, 36
2, 149820, Note_on_c, 0, 84, 0
2, 149820, Note_on_c, 0, 84, 36
2, 149880, Note_on_c, 0, 84, 0
2, 149880, Note_on_c, 0, 84, 36
2, 149940, Note_on_c, 0, 84, 0
2, 149940, Note_on_c, 0, 84, 36
2, 150000, Note_on_c, 0, 84, 0
2, 150000, Note_on_c, 0, 84, 36
2, 150060, Note_on_c, 0, 84, 0
2, 150060, Note_on_c, 0, 84, 36
2, 150120, Note_on_c, 0, 84, 0
2, 150120, Note_on_c, 0, 84, 36
2, 150180, Note_on_c, 0, 84, 0
2, 150180, Note_on_c, 0, 84, 36
2, 150240, Note_on_c, 0, 84, 0
2, 150240, Note_on_c, 0, 84, 36
2, 150300, Note_on_c, 0, 84, 0
2, 150300, Note_on_c, 0, 84, 36
2, 150360, Note_on_c, 0, 84, 0
2, 150360, Note_on_c, 0, 84, 36
2, 150420, Note_on_c, 0, 84, 0
2, 150420, Note_on_c, 0, 84, 36
2, 150480, Note_on_c, 0, 84, 0
2, 150480, Note_on_c, 0, 84, 36
2, 150540, Note_on_c, 0, 84, 0
2, 150540, Note_on_c, 0, 84, 36
2, 150600, Note_on_c, 0, 84, 0
2, 150600, Note_on_c, 0, 84, 36
2, 150660, Note_on_c, 0, 84, 0
2, 150660, Note_on_c, 0, 84, 36
2, 150720, Note_on_c, 0, 84, 0
2, 150720, Note_on_c, 0, 84, 36
2, 150780, Note_on_c, 0, 84, 0
2, 150780, Note_on_c, 0, 84, 36
2, 150840, Note_on_c, 0, 84, 0
2, 150840, Note_on_c, 0, 84, 36
2, 150900, Note_on_c, 0, 84, 0
2, 150900, Note_on_c, 0, 84, 36
2, 150960, Note_on_c, 0, 84, 0
2, 150960, Note_on_c, 0, 84, 36
2, 151020, Note_on_c, 0, 84, 0
2, 151020, Note_on_c, 0, 84, 36
2, 151080, Note_on_c, 0, 84, 0
2, 151080, Note_on_c, 0, 84, 36
2, 151140, Note_on_c, 0, 84, 0
2, 151140, Note_on_c, 0, 84, 36
2, 151200, Note_on_c, 0, 84, 0
2, 151200, Note_on_c, 0, 84, 36
2, 151260, Note_on_c, 0, 84, 0
2, 151260, Note_on_c, 0, 84, 36
2, 151320, Note_on_c, 0, 84, 0
2, 151320, Note_on_c, 0, 84, 36
2, 151380, Note_on_c, 0, 84, 0
2, 151380, Note_on_c, 0, 84, 36
2, 151440, Note_on_c, 0, 84, 0
2, 151440, Note_on_c, 0, 84, 36
2, 151500, Note_on_c, 0, 84, 0
2, 151500, Note_on_c, 0, 84, 36
2, 151560, Note_on_c, 0, 84, 0
2, 151560, Note_on_c, 0, 84, 36
2, 151620, Note_on_c, 0, 84, 0
2, 151620, Note_on_c, 0, 84, 36
2, 151680, Note_on_c, 0, 84, 0
2, 151680, Note_on_c, 0, 84, 36
2, 151740, Note_on_c, 0, 84, 0
2, 151740, Note_on_c, 0, 84, 36
2, 151800, Note_on_c, 0, 84, 0
2, 151800, Note_on_c, 0, 84, 36
2, 151860, Note_on_c, 0, 84, 0
2, 151860, Note_on_c, 0, 84, 36
2, 151920, Note_on_c, 0, 84, 0
2, 151920, Note_on_c, 0, 84, 36
2, 151980, Note_on_c, 0, 84, 0
2, 151980, Note_on_c, 0, 84, 36
2, 152040, Note_on_c, 0, 84, 0
2, 152040, Note_on_c, 0, 84, 36
2, 152100, Note_on_c, 0, 84, 0
2, 152100, Note_on_c, 0, 84, 36
2, 152160, Note_on_c, 0, 84, 0
2, 152160, Note_on_c, 0, 84, 36
2, 152220, Note_on_c, 0, 84, 0
2, 152220, Note_on_c, 0, 84, 36
2, 152280, Note_on_c, 0, 84, 0
2, 152280, Note_on_c, 0, 84, 36
2, 152340, Note_on_c, 0, 84, 0
2, 152340, Note_on_c, 0, 84, 36
2, 152400, Note_on_c, 0, 84, 0
2, 152400, Note_on_c, 0, 84, 36
2, 152460, Note_on_c, 0, 84, 0
2, 152460, Note_on_c, 0, 84, 36
2, 152520, Note_on_c, 0, 84, 0
2, 152520, Note_on_c, 0, 84, 36
2, 152580, Note_on_c, 0, 84, 0
2, 152580, Note_on_c, 0, 84, 36
2, 152640, Note_on_c, 0, 84, 0
2, 152640, Note_on_c, 0, 84, 36
2, 152700, Note_on_c, 0, 84, 0
2, 152700, Note_on_c, 0, 84, 36
2, 152760, Note_on_c, 0, 84, 0
2, 152760, Note_on_c, 0, 84, 36
2, 152820, Note_on_c, 0, 84, 0
2, 152820, Note_on_c, 0, 84, 36
2, 152880, Note_on_c, 0, 84, 0
2, 152880, Note_on_c, 0, 84, 36
2, 152940, Note_on_c, 0, 84, 0
2, 152940, Note_on_c, 0, 84, 36
2, 153000, Note_on_c, 0, 84, 0
2, 153000, Note_on_c, 0, 84, 36
2, 153060, Note_on_c, 0, 84, 0
2, 153060, Note_on_c, 0, 84, 36
2, 153120, Note_on_c, 0, 84, 0
2, 153120, Note_on_c, 0, 84, 36
2, 153180, Note_on_c, 0, 84, 0
2, 153180, Note_on_c, 0, 84, 36
2, 153240, Note_on_c, 0, 84, 0
2, 153240, Note_on_c, 0, 84, 36
2, 153300, Note_on_c, 0, 84, 0
2, 153300, Note_on_c, 0, 84, 36
2, 153360, Note_on_c, 0, 84, 0
2, 153360, Note_on_c, 0, 84, 36
2, 153420, Note_on_c, 0, 84, 0
2, 153420, Note_on_c, 0, 84, 36
2, 153480, Note_on_c, 0, 84, 0
2, 153480, Note_on_c, 0, 84, 36
2, 153540, Note_on_c, 0, 84, 0
2, 153540, Note_on_c, 0, 84, 36
2, 153600, Note_on_c, 0, 84, 0
2, 153600, Note_on_c, 0, 84, 36
2, 153660, Note_on_c, 0, 84, 0
2, 153660, Note_on_c, 0, 84, 36
2, 153720, Note_on_c, 0, 84, 0
2, 153720, Note_on_c, 0, 84, 36
2, 153780, Note_on_c, 0, 84, 0
2, 153780, Note_on_c, 0, 84, 36
2, 153840, Note_on_c, 0, 84, 0
2, 153840, Note_on_c, 0, 84, 36
2, 153900, Note_on_c, 0, 84, 0
2, 153900, Note_on_c, 0, 84, 36
2, 153960, Note_on_c, 0, 84, 0
2, 153960, Note_on_c, 0, 84, 36
2, 154020, Note_on_c, 0, 84, 0
2, 154020, Note_on_c, 0, 84, 36
2, 154080, Note_on_c, 0, 84, 0
2, 154080, Note_on_c, 0, 84, 36
2, 154140, Note_on_c, 0, 84, 0
2, 154140, Note_on_c, 0, 84, 36
2, 154200, Note_on_c, 0, 84, 0
2, 154200, Note_on_c, 0, 84, 36
2, 154260, Note_on_c, 0, 84, 0
2, 154260, Note_on_c, 0, 84, 36
2, 154320, Note_on_c, 0, 84, 0
2, 154320, Note_on_c, 0, 84, 36
2, 154380, Note_on_c, 0, 84, 0
2, 154380, Note_on_c, 0, 84, 36
2, 154440, Note_on_c, 0, 84, 0
2, 154440, Note_on_c, 0, 84, 36
2, 154500, Note_on_c, 0, 84, 0
2, 154500, Note_on_c, 0, 84, 36
2, 154560, Note_on_c, 0, 84, 0
2, 154560, Note_on_c, 0, 84, 36
2, 154620, Note_on_c, 0, 84, 0
2, 154620, Note_on_c, 0, 84, 36
2, 154680, Note_on_c, 0, 84, 0
2, 154680, Note_on_c, 0, 84, 36
2, 154740, Note_on_c, 0, 84, 0
2, 154740, Note_on_c, 0, 84, 36
2, 154800, Note_on_c, 0, 84, 0
2, 154800, Note_on_c, 0, 84, 36
2, 154860, Note_on_c, 0, 84, 0
2, 154860, Note_on_c, 0, 84, 36
2, 154920, Note_on_c, 0, 84, 0
2, 154920, Note_on_c, 0, 84, 36
2, 154980, Note_on_c, 0, 84, 0
2, 154980, Note_on_c, 0, 84, 36
2, 155040, Note_on_c, 0, 84, 0
2, 155040, Note_on_c, 0, 84, 36
2, 155100, Note_on_c, 0, 84, 0
2, 155100, Note_on_c, 0, 84, 36
2, 155160, Note_on_c, 0, 84, 0
2, 155160, Note_on_c, 0, 84, 36
2, 155220, Note_on_c, 0, 84, 0
2, 155220, Note_on_c, 0, 84, 36
2, 155280, Note_on_c, 0, 84, 0
2, 155280, Note_on_c, 0, 84, 36
2, 155340, Note_on_c, 0, 84, 0
2, 155340, Note_on_c, 0, 84, 36
2, 155400, Note_on_c, 0, 84, 0
2, 155400, Note_on_c, 0, 84, 36
2, 155460, Note_on_c, 0, 84, 0
2, 155460, Note_on_c, 0, 84, 36
2, 155520, Note_on_c, 0, 84, 0
2, 155520, Note_on_c, 0, 84, 36
2, 155580, Note_on_c, 0, 84, 0
2, 155580, Note_on_c, 0, 84, 36
2, 155640, Note_on_c, 0, 84, 0
2, 155640, Note_on_c, 0, 84, 36
2, 155700, Note_on_c, 0, 84, 0
2, 155700, Note_on_c, 0, 84, 36
2, 155760, Note_on_c, 0, 84, 0
2, 155760, Note_on_c, 0, 84, 36
2, 155820, Note_on_c, 0, 84, 0
2, 155820, Note_on_c, 0, 84, 36
2, 155880, Note_on_c, 0, 84, 0
2, 155880, Note_on_c, 0, 84, 36
2, 155940, Note_on_c, 0, 84, 0
2, 155940, Note_on_c, 0, 84, 36
2, 156000, Note_on_c, 0, 84, 0
2, 156000, Note_on_c, 0, 84, 36
2, 156060, Note_on_c, 0, 84, 0
2, 156060, Note_on_c, 0, 84, 36
2, 156120, Note_on_c, 0, 84, 0
2, 156120, Note_on_c, 0, 84, 36
2, 156180, Note_on_c, 0, 84, 0
2, 156180, Note_on_c, 0, 84, 36
2, 156240, Note_on_c, 0, 84, 0
2, 156240, Note_on_c, 0, 84, 36
2, 156300, Note_on_c, 0, 84, 0
2, 156300, Note_on_c, 0, 84, 36
2, 156360, Note_on_c, 0, 84, 0
2, 156360, Note_on_c, 0, 84, 36
2, 156420, Note_on_c, 0, 84, 0
2, 156420, Note_on_c, 0, 84, 36
2, 156480, Note_on_c, 0, 84, 0
2, 156480, Note_on_c, 0, 84, 36
2, 156540, Note_on_c, 0, 84, 0
2, 156540, Note_on_c, 0, 84, 36
2, 156600, Note_on_c, 0, 84, 0
2, 156600, Note_on_c, 0, 84, 36
2, 156660, Note_on_c, 0, 84, 0
2, 156660, Note_on_c, 0, 84, 36
2, 156720, Note_on_c, 0, 84, 0
2, 156720, Note_on_c, 0, 84, 36
2, 156780, Note_on_c, 0, 84, 0
2, 156780, Note_on_c, 0, 84, 36
2, 156840, Note_on_c, 0, 84, 0
2, 156840, Note_on_c, 0, 84, 36
2, 156900, Note_on_c, 0, 84, 0
2, 156900, Note_on_c, 0, 84, 36
2, 156960, Note_on_c, 0, 84, 0
2, 156960, Note_on_c, 0, 84, 36
2, 157020, Note_on_c, 0, 84, 0
2, 157020, Note_on_c, 0, 84, 36
2, 157080, Note_on_c, 0, 84, 0
2, 157080, Note_on_c, 0, 84, 36
2, 157140, Note_on_c, 0, 84, 0
2, 157140, Note_on_c, 0, 84, 36
2, 157200, Note_on_c, 0, 84, 0
2, 157200, Note_on_c, 0, 84, 36
2, 157260, Note_on_c, 0, 84, 0
2, 157260, Note_on_c, 0, 84, 36
2, 157320, Note_on_c, 0, 84, 0
2, 157320, Note_on_c, 0, 84, 36
2, 157380, Note_on_c, 0, 84, 0
2, 157380, Note_on_c, 0, 84, 36
2, 157440, Note_on_c, 0, 84, 0
2, 157440, Note_on_c, 0, 84, 36
2, 157500, Note_on_c, 0, 84, 0
2, 157500, Note_on_c, 0, 84, 36
2, 157560, Note_on_c, 0, 84, 0
2, 157560, Note_on_c, 0, 84, 36
2, 157620, Note_on_c, 0, 84, 0
2, 157620, Note_on_c, 0, 84, 36
2, 157680, Note_on_c, 0, 84, 0
2, 157680, Note_on_c, 0, 84, 36
2, 157740, Note_on_c, 0, 84, 0
2, 157740, Note_on_c, 0, 84, 36
2, 157800, Note_on_c, 0, 84, 0
2, 157800, Note_on_c, 0, 84, 36
2, 157860, Note_on_c, 0, 84, 0
2, 157860, Note_on_c, 0, 84, 36
2, 157920, Note_on_c, 0, 84, 0
2, 157920, Note_on_c, 0, 84, 36
2, 157980, Note_on_c, 0, 84, 0
2, 157980, Note_on_c, 0, 84, 36
2, 158040, Note_on_c, 0, 84, 0
2, 158040, Note_on_c, 0, 84, 36
2, 158100, Note_on_c, 0, 84, 0
2, 158100, Note_on_c, 0, 84, 36
2, 158160, Note_on_c, 0, 84, 0
2, 158160, Note_on_c, 0, 84, 36
2, 158220, Note_on_c, 0, 84, 0
2, 158220, Note_on_c, 0, 84, 36
2, 158280, Note_on_c, 0, 84, 0
2, 158280, Note_on_c, 0, 84, 36
2, 158340, Note_on_c, 0, 84, 0
2, 158340, Note_on_c, 0, 84, 36
2, 158400, Note_on_c, 0, 84, 0
2, 158400, Note_on_c, 0, 84, 36
2, 158460, Note_on_c, 0, 84, 0
2, 158460, Note_on_c, 0, 84, 36
2, 158520, Note_on_c, 0, 84, 0
2, 158520, Note_on_c, 0, 84, 36
2, 158580, Note_on_c, 0, 84, 0
2, 158580, Note_on_c, 0, 84, 36
2, 158640, Note_on_c, 0, 84, 0
2, 158640, Note_on_c, 0, 84, 36
2, 158700, Note_on_c, 0, 84, 0
2, 158700, Note_on_c, 0, 84, 36
2, 158760, Note_on_c, 0, 84, 0
2, 158760, Note_on_c, 0, 84, 36
2, 158820, Note_on_c, 0, 84, 0
2, 158820, Note_on_c, 0, 84, 36
2, 158880, Note_on_c, 0, 84, 0
2, 158880, Note_on_c, 0, 84, 36
2, 158940, Note_on_c, 0, 84, 0
2, 158940, Note_on_c, 0, 84, 36
2, 159000, Note_on_c, 0, 84, 0
2, 159000, Note_on_c, 0, 84, 36
2, 159060, Note_on_c, 0, 84, 0
2, 159060, Note_on_c, 0, 84, 36
2, 159120, Note_on_c, 0, 84, 0
2, 159120, Note_on_c, 0, 84, 36
2, 159180, Note_on_c, 0, 84, 0
2, 159180, Note_on_c, 0, 84, 36
2, 159240, Note_on_c, 0, 84, 0
2, 159240, Note_on_c, 0, 84, 36
2, 159300, Note_on_c, 0, 84, 0
2, 159300, Note_on_c, 0, 84, 36
2, 159360, Note_on_c, 0, 84, 0
2, 159360, Note_on_c, 0, 84, 36
2, 159420, Note_on_c, 0, 84, 0
2, 159420, Note_on_c, 0, 84, 36
2, 159480, Note_on_c, 0, 84, 0
2, 159480, Note_on_c, 0, 84, 36
2, 159540, Note_on_c, 0, 84, 0
2, 159540, Note_on_c, 0, 84, 36
2, 159600, Note_on_c, 0, 84, 0
2, 159600, Note_on_c, 0, 84, 36
2, 159660, Note_on_c, 0, 84, 0
2, 159660, Note_on_c, 0, 84, 36
2, 159720, Note_on_c, 0, 84, 0
2, 159720, Note_on_c, 0, 84, 36
2, 159780, Note_on_c, 0, 84, 0
2, 159780, Note_on_c, 0, 84, 36
2, 159840, Note_on_c, 0, 84, 0
2, 159840, Note_on_c, 0, 84, 36
2, 159900, Note_on_c, 0, 84, 0
2, 159900, Note_on_c, 0, 84, 36
2, 159960, Note_on_c, 0, 84, 0
2, 159960, Note_on_c, 0, 84, 36
2, 160020, Note_on_c, 0, 84, 0
2, 160020, Note_on_c, 0, 84, 36
2, 160080, Note_on_c, 0, 84, 0
2, 160080, Note_on_c, 0, 84, 36
2, 160140, Note_on_c, 0, 84, 0
2, 160140, Note_on_c, 0, 84, 36
2, 160200, Note_on_c, 0, 84, 0
2, 160200, Note_on_c, 0, 84, 36
2, 160260, Note_on_c, 0, 84, 0
2, 160260, Note_on_c, 0, 84, 36
2, 160320, Note_on_c, 0, 84, 0
2, 160320, Note_on_c, 0, 84, 36
2, 160380, Note_on_c, 0, 84, 0
2, 160380, Note_on_c, 0, 84, 36
2, 160440, Note_on_c, 0, 84, 0
2, 160440, Note_on_c, 0, 84, 36
2, 160500, Note_on_c, 0, 84, 0
2, 160500, Note_on_c, 0, 84, 36
2, 160560, Note_on_c, 0, 84, 0
2, 160560, Note_on_c, 0, 84, 36
2, 160620, Note_on_c, 0, 84, 0
2, 160620, Note_on_c, 0, 84, 36
2, 160680, Note_on_c, 0, 84, 0
2, 160680, Note_on_c, 0, 84, 36
2, 160740, Note_on_c, 0, 84, 0
2, 160740, Note_on_c, 0, 84, 36
2, 160800, Note_on_c, 0, 84, 0
2, 160800, Note_on_c, 0, 84, 36
2, 160860, Note_on_c, 0, 84, 0
2, 160860, Note_on_c, 0, 84, 36
2, 160920, Note_on_c, 0, 84, 0
2, 160920, Note_on_c, 0, 84, 36
2, 160980, Note_on_c, 0, 84, 0
2, 160980, Note_on_c, 0, 84, 36
2, 161040, Note_on_c, 0, 84, 0
2, 161040, Note_on_c, 0, 84, 36
2, 161100, Note_on_c, 0, 84, 0
2, 161100, Note_on_c, 0, 84, 36
2, 161160, Note_on_c, 0, 84, 0
2, 161160, Note_on_c, 0, 84, 36
2, 161220, Note_on_c, 0, 84, 0
2, 161220, Note_on_c, 0, 84, 36
2, 161280, Note_on_c, 0, 84, 0
2, 161280, Note_on_c, 0, 84, 36
2, 161340, Note_on_c, 0, 84, 0
2, 161340, Note_on_c, 0, 84, 36
2, 161400, Note_on_c, 0, 84, 0
2, 161400, Note_on_c, 0, 84, 36
2, 161460, Note_on_c, 0, 84, 0
2, 161460, Note_on_c, 0, 84, 36
2, 161520, Note_on_c, 0, 84, 0
2, 161520, Note_on_c, 0, 84, 36
2, 161580, Note_on_c, 0, 84, 0
2, 161580, Note_on_c, 0, 84, 36
2, 161640, Note_on_c, 0, 84, 0
2, 161640, Note_on_c, 0, 84, 36
2, 161700, Note_on_c, 0, 84, 0
2, 161700, Note_on_c, 0, 84, 36
2, 161760, Note_on_c, 0, 84, 0
2, 161760, Note_on_c, 0, 84, 36
2, 161820, Note_on_c, 0, 84, 0
2, 161820, Note_on_c, 0, 84, 36
2, 161880, Note_on_c, 0, 84, 0
2, 161880, Note_on_c, 0, 84, 36
2, 161940, Note_on_c, 0, 84, 0
2, 161940, Note_on_c, 0, 84, 36
2, 162000, Note_on_c, 0, 84, 0
2, 162000, Note_on_c, 0, 84, 36
2, 162060, Note_on_c, 0, 84, 0
2, 162060, Note_on_c, 0, 84, 36
2, 162120, Note_on_c, 0, 84, 0
2, 162120, Note_on_c, 0, 84, 36
2, 162180, Note_on_c, 0, 84, 0
2, 162180, Note_on_c, 0, 84, 36
2, 162240, Note_on_c, 0, 84, 0
2, 162240, Note_on_c, 0, 84, 36
2, 162300, Note_on_c, 0, 84, 0
2, 162300, Note_on_c, 0, 84, 36
2, 162360, Note_on_c, 0, 84, 0
2, 162360, Note_on_c, 0, 84, 36
2, 162420, Note_on_c, 0, 84, 0
2, 162420, Note_on_c, 0, 84, 36
2, 162480, Note_on_c, 0, 84, 0
2, 162480, Note_on_c, 0, 84, 36
2, 162540, Note_on_c, 0, 84, 0
2, 162540, Note_on_c, 0, 84, 36
2, 162600, Note_on_c, 0, 84, 0
2, 162600, Note_on_c, 0, 84, 36
2, 162660, Note_on_c, 0, 84, 0
2, 162660, Note_on_c, 0, 84, 36
2, 162720, Note_on_c, 0, 84, 0
2, 162720, Note_on_c, 0, 84, 36
2, 162780, Note_on_c, 0, 84, 0
2, 162780, Note_on_c, 0, 84, 36
2, 162840, Note_on_c, 0, 84, 0
2, 162840, Note_on_c, 0, 84, 36
2, 162900, Note_on_c, 0, 84, 0
2, 162900, Note_on_c, 0, 84, 36
2, 162960, Note_on_c, 0, 84, 0
2, 162960, Note_on_c, 0, 84, 36
2, 163020, Note_on_c, 0, 84, 0
2, 163020, Note_on_c, 0, 84, 36
2, 163080, Note_on_c, 0, 84, 0
2, 163080, Note_on_c, 0, 84, 36
2, 163140, Note_on_c, 0, 84, 0
2, 163140, Note_on_c, 0, 84, 36
2, 163200, Note_on_c, 0, 84, 0
2, 163200, Note_on_c, 0, 84, 36
2, 163260, Note_on_c, 0, 84, 0
2, 163260, Note_on_c, 0, 84, 36
2, 163320, Note_on_c, 0, 84, 0
2, 163320, Note_on_c, 0, 84, 36
2, 163380, Note_on_c, 0, 84, 0
2, 163380, Note_on_c, 0, 84, 36
2, 163440, Note_on_c, 0, 84, 0
2, 163440, Note_on_c, 0, 84, 36
2, 163500, Note_on_c, 0, 84, 0
2, 163500, Note_on_c, 0, 84, 36
2, 163560, Note_on_c, 0, 84, 0
2, 163560, Note_on_c, 0, 84, 36
2, 163620, Note_on_c, 0, 84, 0
2, 163620, Note_on_c, 0, 84, 36
2, 163680, Note_on_c, 0, 84, 0
2, 163680, Note_on_c, 0, 84, 36
2, 163740, Note_on_c, 0, 84, 0
2, 163740, Note_on_c, 0, 84, 36
2, 163800, Note_on_c, 0, 84, 0
2, 163800, Note_on_c, 0, 84, 36
2, 163860, Note_on_c, 0, 84, 0
2, 163860, Note_on_c, 0, 84, 36
2, 163920, Note_on_c, 0, 84, 0
2, 163920, Note_on_c, 0, 84, 36
2, 163980, Note_on_c, 0, 84, 0
2, 163980, Note_on_c, 0, 84, 36
2, 164040, Note_on_c, 0, 84, 0
2, 164040, Note_on_c, 0, 84, 36
2, 164100, Note_on_c, 0, 84, 0
2, 164100, Note_on_c, 0, 84, 36
2, 164160, Note_on_c, 0, 84, 0
2, 164160, Note_on_c, 0, 84, 36
2, 164220, Note_on_c, 0, 84, 0
2, 164220, Note_on_c, 0, 84, 36
2, 164280, Note_on_c, 0, 84, 0
2, 164280, Note_on_c, 0, 84, 36
2, 164340, Note_on_c, 0, 84, 0
2, 164340, Note_on_c, 0, 84, 36
2, 164400, Note_on_c, 0, 84, 0
2, 164400, Note_on_c, 0, 84, 36
2, 164460, Note_on_c, 0, 84, 0
2, 164460, Note_on_c, 0, 84, 36
2, 164520, Note_on_c, 0, 84, 0
2, 164520, Note_on_c, 0, 84, 36
2, 164580, Note_on_c, 0, 84, 0
2, 164580, Note_on_c, 0, 84, 36
2, 164640, Note_on_c, 0, 84, 0
2, 164640, Note_on_c, 0, 84, 36
2, 164700, Note_on_c, 0, 84, 0
2, 164700, Note_on_c, 0, 84, 36
2, 164760, Note_on_c, 0, 84, 0
2, 164760, Note_on_c, 0, 84, 36
2, 164820, Note_on_c, 0, 84, 0
2, 164820, Note_on_c, 0, 84, 36
2, 164880, Note_on_c, 0, 84, 0
2, 164880, Note_on_c, 0, 84, 36
2, 164940, Note_on_c, 0, 84, 0
2, 164940, Note_on_c, 0, 84, 36
2, 165000, Note_on_c, 0, 84, 0
2, 165000, Note_on_c, 0, 84, 36
2, 165060, Note_on_c, 0, 84, 0
2, 165060, Note_on_c, 0, 84, 36
2, 165120, Note_on_c, 0, 84, 0
2, 165120, Note_on_c, 0, 72, 36
2, 165180, Note_on_c, 0, 72, 0
2, 165180, Note_on_c, 0, 72, 36
2, 165240, Note_on_c, 0, 72, 0
2, 165240, Note_on_c, 0, 72, 36
2, 165300, Note_on_c, 0, 72, 0
2, 165300, Note_on_c, 0, 72, 36
2, 165360, Note_on_c, 0, 72, 0
2, 165360, Note_on_c, 0, 72, 36
2, 165420, Note_on_c, 0, 72, 0
2, 165420, Note_on_c, 0, 72, 36
2, 165480, Note_on_c, 0, 72, 0
2, 165480, Note_on_c, 0, 72, 36
2, 165540, Note_on_c, 0, 72, 0
2, 165540, Note_on_c, 0, 72, 36
2, 165600, Note_on_c, 0, 72, 0
2, 165600, Note_on_c, 0, 72, 36
2, 165660, Note_on_c, 0, 72, 0
2, 165660, Note_on_c, 0, 72, 36
2, 165720, Note_on_c, 0, 72, 0
2, 165720, Note_on_c, 0, 72, 36
2, 165780, Note_on_c, 0, 72, 0
2, 165780, Note_on_c, 0, 72, 36
2, 165840, Note_on_c, 0, 72, 0
2, 165840, Note_on_c, 0, 72, 36
2, 165900, Note_on_c, 0, 72, 0
2, 165900, Note_on_c, 0, 72, 36
2, 165960, Note_on_c, 0, 72, 0
2, 165960, Note_on_c, 0, 72, 36
2, 166020, Note_on_c, 0, 72, 0
2, 166020, Note_on_c, 0, 72, 36
2, 166080, Note_on_c, 0, 72, 0
2, 166080, Note_on_c, 0, 72, 36
2, 166140, Note_on_c, 0, 72, 0
2, 166140, Note_on_c, 0, 72, 36
2, 166200, Note_on_c, 0, 72, 0
2, 166200, Note_on_c, 0, 72, 36
2, 166260, Note_on_c, 0, 72, 0
2, 166260, Note_on_c, 0, 72, 36
2, 166320, Note_on_c, 0, 72, 0
2, 166320, Note_on_c, 0, 72, 36
2, 166380, Note_on_c, 0, 72, 0
2, 166380, Note_on_c, 0, 72, 36
2, 166440, Note_on_c, 0, 72, 0
2, 166440, Note_on_c, 0, 72, 36
2, 166500, Note_on_c, 0, 72, 0
2, 166500, Note_on_c, 0, 72, 36
2, 166560, Note_on_c, 0, 72, 0
2, 166560, Note_on_c, 0, 72, 36
2, 166620, Note_on_c, 0, 72, 0
2, 166620, Note_on_c, 0, 72, 36
2, 166680, Note_on_c, 0, 72, 0
2, 166680, Note_on_c, 0, 72, 36
2, 166740, Note_on_c, 0, 72, 0
2, 166740, Note_on_c, 0, 72, 36
2, 166800, Note_on_c, 0, 72, 0
2, 166800, Note_on_c, 0, 72, 36
2, 166860, Note_on_c, 0, 72, 0
2, 166860, Note_on_c, 0, 72, 36
2, 166920, Note_on_c, 0, 72, 0
2, 166920, Note_on_c, 0, 72, 36
2, 166980, Note_on_c, 0, 72, 0
2, 166980, Note_on_c, 0, 72, 36
2, 167040, Note_on_c, 0, 72, 0
2, 167040, Note_on_c, 0, 60, 36
2, 167100, Note_on_c, 0, 60, 0
2, 167100, Note_on_c, 0, 60, 36
2, 167160, Note_on_c, 0, 60, 0
2, 167160, Note_on_c, 0, 60, 36
2, 167220, Note_on_c, 0, 60, 0
2, 167220, Note_on_c, 0, 60, 36
2, 167280, Note_on_c, 0, 60, 0
2, 167280, Note_on_c, 0, 60, 36
2, 167340, Note_on_c, 0, 60, 0
2, 167340, Note_on_c, 0, 60, 36
2, 167400, Note_on_c, 0, 60, 0
2, 167400, Note_on_c, 0, 60, 36
2, 167460, Note_on_c, 0, 60, 0
2, 167460, Note_on_c, 0, 60, 36
2, 167520, Note_on_c, 0, 60, 0
2, 167520, Note_on_c, 0, 60, 36
2, 167580, Note_on_c, 0, 60, 0
2, 167580, Note_on_c, 0, 60, 36
2, 167640, Note_on_c, 0, 60, 0
2, 167640, Note_on_c, 0, 60, 36
2, 167700, Note_on_c, 0, 60, 0
2, 167700, Note_on_c, 0, 60, 36
2, 167760, Note_on_c, 0, 60, 0
2, 167760, Note_on_c, 0, 60, 36
2, 167820, Note_on_c, 0, 60, 0
2, 167820, Note_on_c, 0, 60, 36
2, 167880, Note_on_c, 0, 60, 0
2, 167880, Note_on_c, 0, 60, 36
2, 167940, Note_on_c, 0, 60, 0
2, 167940, Note_on_c, 0, 60, 36
2, 168000, Note_on_c, 0, 60, 0
2, 168000, Note_on_c, 0, 60, 36
2, 168060, Note_on_c, 0, 60, 0
2, 168060, Note_on_c, 0, 60, 36
2, 168120, Note_on_c, 0, 60, 0
2, 168120, Note_on_c, 0, 60, 36
2, 168180, Note_on_c, 0, 60, 0
2, 168180, Note_on_c, 0, 60, 36
2, 168240, Note_on_c, 0, 60, 0
2, 168240, Note_on_c, 0, 60, 36
2, 168300, Note_on_c, 0, 60, 0
2, 168300, Note_on_c, 0, 60, 36
2, 168360, Note_on_c, 0, 60, 0
2, 168360, Note_on_c, 0, 60, 36
2, 168420, Note_on_c, 0, 60, 0
2, 168420, Note_on_c, 0, 60, 36
2, 168480, Note_on_c, 0, 60, 0
2, 168480, Note_on_c, 0, 60, 36
2, 168540, Note_on_c, 0, 60, 0
2, 168540, Note_on_c, 0, 60, 36
2, 168600, Note_on_c, 0, 60, 0
2, 168600, Note_on_c, 0, 60, 36
2, 168660, Note_on_c, 0, 60, 0
2, 168660, Note_on_c, 0, 60, 36
2, 168720, Note_on_c, 0, 60, 0
2, 168720, Note_on_c, 0, 60, 36
2, 168780, Note_on_c, 0, 60, 0
2, 168780, Note_on_c, 0, 60, 36
2, 168840, Note_on_c, 0, 60, 0
2, 168840, Note_on_c, 0, 60, 36
2, 168900, Note_on_c, 0, 60, 0
2, 168900, Note_on_c, 0, 60, 36
2, 168960, Note_on_c, 0, 60, 0
2, 168960, Note_on_c, 0, 48, 36
2, 169020, Note_on_c, 0, 48, 0
2, 169020, Note_on_c, 0, 48, 36
2, 169080, Note_on_c, 0, 48, 0
2, 169080, Note_on_c, 0, 48, 36
2, 169140, Note_on_c, 0, 48, 0
2, 169140, Note_on_c, 0, 48, 36
2, 169200, Note_on_c, 0, 48, 0
2, 169200, Note_on_c, 0, 48, 36
2, 169260, Note_on_c, 0, 48, 0
2, 169260, Note_on_c, 0, 48, 36
2, 169320, Note_on_c, 0, 48, 0
2, 169320, Note_on_c, 0, 48, 36
2, 169380, Note_on_c, 0, 48, 0
2, 169380, Note_on_c, 0, 48, 36
2, 169440, Note_on_c, 0, 48, 0
2, 169440, Note_on_c, 0, 48, 36
2, 169500, Note_on_c, 0, 48, 0
2, 169500, Note_on_c, 0, 48, 36
2, 169560, Note_on_c, 0, 48, 0
2, 169560, Note_on_c, 0, 48, 36
2, 169620, Note_on_c, 0, 48, 0
2, 169620, Note_on_c, 0, 48, 36
2, 169680, Note_on_c, 0, 48, 0
2, 169680, Note_on_c, 0, 48, 36
2, 169740, Note_on_c, 0, 48, 0
2, 169740, Note_on_c, 0, 48, 36
2, 169800, Note_on_c, 0, 48, 0
2, 169800, Note_on_c, 0, 48, 36
2, 169860, Note_on_c, 0, 48, 0
2, 169860, Note_on_c, 0, 48, 36
2, 169920, Note_on_c, 0, 48, 0
2, 169920, Note_on_c, 0, 48, 36
2, 169980, Note_on_c, 0, 48, 0
2, 169980, Note_on_c, 0, 48, 36
2, 170040, Note_on_c, 0, 48, 0
2, 170040, Note_on_c, 0, 48, 36
2, 170100, Note_on_c, 0, 48, 0
2, 170100, Note_on_c, 0, 48, 36
2, 170160, Note_on_c, 0, 48, 0
2, 170160, Note_on_c, 0, 48, 36
2, 170220, Note_on_c, 0, 48, 0
2, 170220, Note_on_c, 0, 48, 36
2, 170280, Note_on_c, 0, 48, 0
2, 170280, Note_on_c, 0, 48, 36
2, 170340, Note_on_c, 0, 48, 0
2, 170340, Note_on_c, 0, 48, 36
2, 170400, Note_on_c, 0, 48, 0
2, 170400, Note_on_c, 0, 48, 36
2, 170460, Note_on_c, 0, 48, 0
2, 170460, Note_on_c, 0, 48, 36
2, 170520, Note_on_c, 0, 48, 0
2, 170520, Note_on_c, 0, 48, 36
2, 170580, Note_on_c, 0, 48, 0
2, 170580, Note_on_c, 0, 48, 36
2, 170640, Note_on_c, 0, 48, 0
2, 170640, Note_on_c, 0, 48, 36
2, 170700, Note_on_c, 0, 48, 0
2, 170700, Note_on_c, 0, 48, 36
2, 170760, Note_on_c, 0, 48, 0
2, 170760, Note_on_c, 0, 48, 36
2, 170820, Note_on_c, 0, 48, 0
2, 170820, Note_on_c, 0, 48, 36
2, 170880, Note_on_c, 0, 48, 0
2, 170880, Note_on_c, 0, 48, 36
2, 170940, Note_on_c, 0, 48, 0
2, 170940, Note_on_c, 0, 48, 36
2, 171000, Note_on_c, 0, 48, 0
2, 171000, Note_on_c, 0, 48, 36
2, 171060, Note_on_c, 0, 48, 0
2, 171060, Note_on_c, 0, 48, 36
2, 171120, Note_on_c, 0, 48, 0
2, 171120, Note_on_c, 0, 48, 36
2, 171180, Note_on_c, 0, 48, 0
2, 171180, Note_on_c, 0, 48, 36
2, 171240, Note_on_c, 0, 48, 0
2, 171240, Note_on_c, 0, 48, 36
2, 171300, Note_on_c, 0, 48, 0
2, 171300, Note_on_c, 0, 48, 36
2, 171360, Note_on_c, 0, 48, 0
2, 171360, Note_on_c, 0, 48, 36
2, 171420, Note_on_c, 0, 48, 0
2, 171420, Note_on_c, 0, 48, 36
2, 171480, Note_on_c, 0, 48, 0
2, 171480, Note_on_c, 0, 48, 36
2, 171540, Note_on_c, 0, 48, 0
2, 171540, Note_on_c, 0, 48, 36
2, 171600, Note_on_c, 0, 48, 0
2, 171600, Note_on_c, 0, 48, 36
2, 171660, Note_on_c, 0, 48, 0
2, 171660, Note_on_c, 0, 48, 36
2, 171720, Note_on_c, 0, 48, 0
2, 171720, Note_on_c, 0, 48, 36
2, 171780, Note_on_c, 0, 48, 0
2, 171780, Note_on_c, 0, 48, 36
2, 171840, Note_on_c, 0, 48, 0
2, 171840, Note_on_c, 0, 48, 36
2, 171900, Note_on_c, 0, 48, 0
2, 171900, Note_on_c, 0, 48, 36
2, 171960, Note_on_c, 0, 48, 0
2, 171960, Note_on_c, 0, 48, 36
2, 172020, Note_on_c, 0, 48, 0
2, 172020, Note_on_c, 0, 48, 36
2, 172080, Note_on_c, 0, 48, 0
2, 172080, Note_on_c, 0, 48, 36
2, 172140, Note_on_c, 0, 48, 0
2, 172140, Note_on_c, 0, 48, 36
2, 172200, Note_on_c, 0, 48, 0
2, 172200, Note_on_c, 0, 48, 36
2, 172260, Note_on_c, 0, 48, 0
2, 172260, Note_on_c, 0, 48, 36
2, 172320, Note_on_c, 0, 48, 0
2, 172320, Note_on_c, 0, 48, 36
2, 172380, Note_on_c, 0, 48, 0
2, 172380, Note_on_c, 0, 48, 36
2, 172440, Note_on_c, 0, 48, 0
2, 172440, Note_on_c, 0, 48, 36
2, 172500, Note_on_c, 0, 48, 0
2, 172500, Note_on_c, 0, 48, 36
2, 172560, Note_on_c, 0, 48, 0
2, 172560, Note_on_c, 0, 48, 36
2, 172620, Note_on_c, 0, 48, 0
2, 172620, Note_on_c, 0, 48, 36
2, 172680, Note_on_c, 0, 48, 0
2, 172680, Note_on_c, 0, 48, 36
2, 172740, Note_on_c, 0, 48, 0
2, 172740, Note_on_c, 0, 48, 36
2, 172800, Note_on_c, 0, 48, 0
2, 172800, Note_on_c, 0, 48, 36
2, 172860, Note_on_c, 0, 48, 0
2, 172860, Note_on_c, 0, 48, 36
2, 172920, Note_on_c, 0, 48, 0
2, 172920, Note_on_c, 0, 48, 36
2, 172980, Note_on_c, 0, 48, 0
2, 172980, Note_on_c, 0, 48, 36
2, 173040, Note_on_c, 0, 48, 0
2, 173040, Note_on_c, 0, 48, 36
2, 173100, Note_on_c, 0, 48, 0
2, 173100, Note_on_c, 0, 48, 36
2, 173160, Note_on_c, 0, 48, 0
2, 173160, Note_on_c, 0, 48, 36
2, 173220, Note_on_c, 0, 48, 0
2, 173220, Note_on_c, 0, 48, 36
2, 173280, Note_on_c, 0, 48, 0
2, 173280, Note_on_c, 0, 48, 36
2, 173340, Note_on_c, 0, 48, 0
2, 173340, Note_on_c, 0, 48, 36
2, 173400, Note_on_c, 0, 48, 0
2, 173400, Note_on_c, 0, 48, 36
2, 173460, Note_on_c, 0, 48, 0
2, 173460, Note_on_c, 0, 48, 36
2, 173520, Note_on_c, 0, 48, 0
2, 173520, Note_on_c, 0, 48, 36
2, 173580, Note_on_c, 0, 48, 0
2, 173580, Note_on_c, 0, 48, 36
2, 173640, Note_on_c, 0, 48, 0
2, 173640, Note_on_c, 0, 48, 36
2, 173700, Note_on_c, 0, 48, 0
2, 173700, Note_on_c, 0, 48, 36
2, 173760, Note_on_c, 0, 48, 0
2, 173760, Note_on_c, 0, 48, 36
2, 173820, Note_on_c, 0, 48, 0
2, 173820, Note_on_c, 0, 48, 36
2, 173880, Note_on_c, 0, 48, 0
2, 173880, Note_on_c, 0, 48, 36
2, 173940, Note_on_c, 0, 48, 0
2, 173940, Note_on_c, 0, 48, 36
2, 174000, Note_on_c, 0, 48, 0
2, 174000, Note_on_c, 0, 48, 36
2, 174060, Note_on_c, 0, 48, 0
2, 174060, Note_on_c, 0, 48, 36
2, 174120, Note_on_c, 0, 48, 0
2, 174120, Note_on_c, 0, 48, 36
2, 174180, Note_on_c, 0, 48, 0
2, 174180, Note_on_c, 0, 48, 36
2, 174240, Note_on_c, 0, 48, 0
2, 174240, Note_on_c, 0, 48, 36
2, 174300, Note_on_c, 0, 48, 0
2, 174300, Note_on_c, 0, 48, 36
2, 174360, Note_on_c, 0, 48, 0
2, 174360, Note_on_c, 0, 48, 36
2, 174420, Note_on_c, 0, 48, 0
2, 174420, Note_on_c, 0, 48, 36
2, 174480, Note_on_c, 0, 48, 0
2, 174480, Note_on_c, 0, 48, 36
2, 174540, Note_on_c, 0, 48, 0
2, 174540, Note_on_c, 0, 48, 36
2, 174600, Note_on_c, 0, 48, 0
2, 174600, Note_on_c, 0, 48, 36
2, 174660, Note_on_c, 0, 48, 0
2, 174660, Note_on_c, 0, 48, 36
2, 174720, Note_on_c, 0, 48, 0
2, 174720, Note_on_c, 0, 48, 36
2, 174780, Note_on_c, 0, 48, 0
2, 174780, Note_on_c, 0, 48, 36
2, 174840, Note_on_c, 0, 48, 0
2, 174840, Note_on_c, 0, 48, 36
2, 174900, Note_on_c, 0, 48, 0
2, 174900, Note_on_c, 0, 48, 36
2, 174960, Note_on_c, 0, 48, 0
2, 174960, Note_on_c, 0, 48, 36
2, 175020, Note_on_c, 0, 48, 0
2, 175020, Note_on_c, 0, 48, 36
2, 175080, Note_on_c, 0, 48, 0
2, 175080, Note_on_c, 0, 48, 36
2, 175140, Note_on_c, 0, 48, 0
2, 175140, Note_on_c, 0, 48, 36
2, 175200, Note_on_c, 0, 48, 0
2, 175200, Note_on_c, 0, 48, 36
2, 175260, Note_on_c, 0, 48, 0
2, 175260, Note_on_c, 0, 48, 36
2, 175320, Note_on_c, 0, 48, 0
2, 175320, Note_on_c, 0, 48, 36
2, 175380, Note_on_c, 0, 48, 0
2, 175380, Note_on_c, 0, 48, 36
2, 175440, Note_on_c, 0, 48, 0
2, 175440, Note_on_c, 0, 48, 36
2, 175500, Note_on_c, 0, 48, 0
2, 175500, Note_on_c, 0, 48, 36
2, 175560, Note_on_c, 0, 48, 0
2, 175560, Note_on_c, 0, 48, 36
2, 175620, Note_on_c, 0, 48, 0
2, 175620, Note_on_c, 0, 48, 36
2, 175680, Note_on_c, 0, 48, 0
2, 175680, Note_on_c, 0, 48, 36
2, 175740, Note_on_c, 0, 48, 0
2, 175740, Note_on_c, 0, 48, 36
2, 175800, Note_on_c, 0, 48, 0
2, 175800, Note_on_c, 0, 48, 36
2, 175860, Note_on_c, 0, 48, 0
2, 175860, Note_on_c, 0, 48, 36
2, 175920, Note_on_c, 0, 48, 0
2, 175920, Note_on_c, 0, 48, 36
2, 175980, Note_on_c, 0, 48, 0
2, 175980, Note_on_c, 0, 48, 36
2, 176040, Note_on_c, 0, 48, 0
2, 176040, Note_on_c, 0, 48, 36
2, 176100, Note_on_c, 0, 48, 0
2, 176100, Note_on_c, 0, 48, 36
2, 176160, Note_on_c, 0, 48, 0
2, 176160, Note_on_c, 0, 48, 36
2, 176220, Note_on_c, 0, 48, 0
2, 176220, Note_on_c, 0, 48, 36
2, 176280, Note_on_c, 0, 48, 0
2, 176280, Note_on_c, 0, 48, 36
2, 176340, Note_on_c, 0, 48, 0
2, 176340, Note_on_c, 0, 48, 36
2, 176400, Note_on_c, 0, 48, 0
2, 176400, Note_on_c, 0, 48, 36
2, 176460, Note_on_c, 0, 48, 0
2, 176460, Note_on_c, 0, 48, 36
2, 176520, Note_on_c, 0, 48, 0
2, 176520, Note_on_c, 0, 48, 36
2, 176580, Note_on_c, 0, 48, 0
2, 176580, Note_on_c, 0, 48, 36
2, 176640, Note_on_c, 0, 48, 0
2, 176640, Note_on_c, 0, 48, 36
2, 176700, Note_on_c, 0, 48, 0
2, 176700, Note_on_c, 0, 48, 36
2, 176760, Note_on_c, 0, 48, 0
2, 176760, Note_on_c, 0, 48, 36
2, 176820, Note_on_c, 0, 48, 0
2, 176820, Note_on_c, 0, 48, 36
2, 176880, Note_on_c, 0, 48, 0
2, 176880, Note_on_c, 0, 48, 36
2, 176940, Note_on_c, 0, 48, 0
2, 176940, Note_on_c, 0, 48, 36
2, 177000, Note_on_c, 0, 48, 0
2, 177000, Note_on_c, 0, 48, 36
2, 177060, Note_on_c, 0, 48, 0
2, 177060, Note_on_c, 0, 48, 36
2, 177120, Note_on_c, 0, 48, 0
2, 177120, Note_on_c, 0, 48, 36
2, 177180, Note_on_c, 0, 48, 0
2, 177180, Note_on_c, 0, 48, 36
2, 177240, Note_on_c, 0, 48, 0
2, 177240, Note_on_c, 0, 48, 36
2, 177300, Note_on_c, 0, 48, 0
2, 177300, Note_on_c, 0, 48, 36
2, 177360, Note_on_c, 0, 48, 0
2, 177360, Note_on_c, 0, 48, 36
2, 177420, Note_on_c, 0, 48, 0
2, 177420, Note_on_c, 0, 48, 36
2, 177480, Note_on_c, 0, 48, 0
2, 177480, Note_on_c, 0, 48, 36
2, 177540, Note_on_c, 0, 48, 0
2, 177540, Note_on_c, 0, 48, 36
2, 177600, Note_on_c, 0, 48, 0
2, 177600, Note_on_c, 0, 48, 36
2, 177660, Note_on_c, 0, 48, 0
2, 177660, Note_on_c, 0, 48, 36
2, 177720, Note_on_c, 0, 48, 0
2, 177720, Note_on_c, 0, 48, 36
2, 177780, Note_on_c, 0, 48, 0
2, 177780, Note_on_c, 0, 48, 36
2, 177840, Note_on_c, 0, 48, 0
2, 177840, Note_on_c, 0, 48, 36
2, 177900, Note_on_c, 0, 48, 0
2, 177900, Note_on_c, 0, 48, 36
2, 177960, Note_on_c, 0, 48, 0
2, 177960, Note_on_c, 0, 48, 36
2, 178020, Note_on_c, 0, 48, 0
2, 178020, Note_on_c, 0, 48, 36
2, 178080, Note_on_c, 0, 48, 0
2, 178080, Note_on_c, 0, 48, 36
2, 178140, Note_on_c, 0, 48, 0
2, 178140, Note_on_c, 0, 48, 36
2, 178200, Note_on_c, 0, 48, 0
2, 178200, Note_on_c, 0, 48, 36
2, 178260, Note_on_c, 0, 48, 0
2, 178260, Note_on_c, 0, 48, 36
2, 178320, Note_on_c, 0, 48, 0
2, 178320, Note_on_c, 0, 48, 36
2, 178380, Note_on_c, 0, 48, 0
2, 178380, Note_on_c, 0, 48, 36
2, 178440, Note_on_c, 0, 48, 0
2, 178440, Note_on_c, 0, 48, 36
2, 178500, Note_on_c, 0, 48, 0
2, 178500, Note_on_c, 0, 48, 36
2, 178560, Note_on_c, 0, 48, 0
2, 178560, Note_on_c, 0, 48, 36
2, 178620, Note_on_c, 0, 48, 0
2, 178620, Note_on_c, 0, 48, 36
2, 178680, Note_on_c, 0, 48, 0
2, 178680, Note_on_c, 0, 48, 36
2, 178740, Note_on_c, 0, 48, 0
2, 178740, Note_on_c, 0, 48, 36
2, 178800, Note_on_c, 0, 48, 0
2, 178800, Note_on_c, 0, 48, 36
2, 178860, Note_on_c, 0, 48, 0
2, 178860, Note_on_c, 0, 48, 36
2, 178920, Note_on_c, 0, 48, 0
2, 178920, Note_on_c, 0, 48, 36
2, 178980, Note_on_c, 0, 48, 0
2, 178980, Note_on_c, 0, 48, 36
2, 179040, Note_on_c, 0, 48, 0
2, 179040, Note_on_c, 0, 48, 36
2, 179100, Note_on_c, 0, 48, 0
2, 179100, Note_on_c, 0, 48, 36
2, 179160, Note_on_c, 0, 48, 0
2, 179160, Note_on_c, 0, 48, 36
2, 179220, Note_on_c, 0, 48, 0
2, 179220, Note_on_c, 0, 48, 36
2, 179280, Note_on_c, 0, 48, 0
2, 179280, Note_on_c, 0, 48, 36
2, 179340, Note_on_c, 0, 48, 0
2, 179340, Note_on_c, 0, 48, 36
2, 179400, Note_on_c, 0, 48, 0
2, 179400, Note_on_c, 0, 48, 36
2, 179460, Note_on_c, 0, 48, 0
2, 179460, Note_on_c, 0, 48, 36
2, 179520, Note_on_c, 0, 48, 0
2, 179520, Note_on_c, 0, 48, 36
2, 179580, Note_on_c, 0, 48, 0
2, 179580, Note_on_c, 0, 48, 36
2, 179640, Note_on_c, 0, 48, 0
2, 179640, Note_on_c, 0, 48, 36
2, 179700, Note_on_c, 0, 48, 0
2, 179700, Note_on_c, 0, 48, 36
2, 179760, Note_on_c, 0, 48, 0
2, 179760, Note_on_c, 0, 48, 36
2, 179820, Note_on_c, 0, 48, 0
2, 179820, Note_on_c, 0, 48, 36
2, 179880, Note_on_c, 0, 48, 0
2, 179880, Note_on_c, 0, 48, 36
2, 179940, Note_on_c, 0, 48, 0
2, 179940, Note_on_c, 0, 48, 36
2, 180000, Note_on_c, 0, 48, 0
2, 180000, Note_on_c, 0, 48, 36
2, 180060, Note_on_c, 0, 48, 0
2, 180060, Note_on_c, 0, 48, 36
2, 180120, Note_on_c, 0, 48, 0
2, 180120, Note_on_c, 0, 48, 36
2, 180180, Note_on_c, 0, 48, 0
2, 180180, Note_on_c, 0, 48, 36
2, 180240, Note_on_c, 0, 48, 0
2, 180240, Note_on_c, 0, 48, 36
2, 180300, Note_on_c, 0, 48, 0
2, 180300, Note_on_c, 0, 48, 36
2, 180360, Note_on_c, 0, 48, 0
2, 180360, Note_on_c, 0, 48, 36
2, 180420, Note_on_c, 0, 48, 0
2, 180420, Note_on_c, 0, 48, 36
2, 180480, Note_on_c, 0, 48, 0
2, 180480, Note_on_c, 0, 48, 36
2, 180540, Note_on_c, 0, 48, 0
2, 180540, Note_on_c, 0, 48, 36
2, 180600, Note_on_c, 0, 48, 0
2, 180600, Note_on_c, 0, 48, 36
2, 180660, Note_on_c, 0, 48, 0
2, 180660, Note_on_c, 0, 48, 36
2, 180720, Note_on_c, 0, 48, 0
2, 180720, Note_on_c, 0, 48, 36
2, 180780, Note_on_c, 0, 48, 0
2, 180780, Note_on_c, 0, 48, 36
2, 180840, Note_on_c, 0, 48, 0
2, 180840, Note_on_c, 0, 48, 36
2, 180900, Note_on_c, 0, 48, 0
2, 180900, Note_on_c, 0, 48, 36
2, 180960, Note_on_c, 0, 48, 0
2, 180960, Note_on_c, 0, 48, 36
2, 181020, Note_on_c, 0, 48, 0
2, 181020, Note_on_c, 0, 48, 36
2, 181080, Note_on_c, 0, 48, 0
2, 181080, Note_on_c, 0, 48, 36
2, 181140, Note_on_c, 0, 48, 0
2, 181140, Note_on_c, 0, 48, 36
2, 181200, Note_on_c, 0, 48, 0
2, 181200, Note_on_c, 0, 48, 36
2, 181260, Note_on_c, 0, 48, 0
2, 181260, Note_on_c, 0, 48, 36
2, 181320, Note_on_c, 0, 48, 0
2, 181320, Note_on_c, 0, 48, 36
2, 181380, Note_on_c, 0, 48, 0
2, 181380, Note_on_c, 0, 48, 36
2, 181440, Note_on_c, 0, 48, 0
2, 181440, Note_on_c, 0, 48, 36
2, 181500, Note_on_c, 0, 48, 0
2, 181500, Note_on_c, 0, 48, 36
2, 181560, Note_on_c, 0, 48, 0
2, 181560, Note_on_c, 0, 48, 36
2, 181620, Note_on_c, 0, 48, 0
2, 181620, Note_on_c, 0, 48, 36
2, 181680, Note_on_c, 0, 48, 0
2, 181680, Note_on_c, 0, 48, 36
2, 181740, Note_on_c, 0, 48, 0
2, 181740, Note_on_c, 0, 48, 36
2, 181800, Note_on_c, 0, 48, 0
2, 181800, Note_on_c, 0, 48, 36
2, 181860, Note_on_c, 0, 48, 0
2, 181860, Note_on_c, 0, 48, 36
2, 181920, Note_on_c, 0, 48, 0
2, 181920, Note_on_c, 0, 48, 36
2, 181980, Note_on_c, 0, 48, 0
2, 181980, Note_on_c, 0, 48, 36
2, 182040, Note_on_c, 0, 48, 0
2, 182040, Note_on_c, 0, 48, 36
2, 182100, Note_on_c, 0, 48, 0
2, 182100, Note_on_c, 0, 48, 36
2, 182160, Note_on_c, 0, 48, 0
2, 182160, Note_on_c, 0, 48, 36
2, 182220, Note_on_c, 0, 48, 0
2, 182220, Note_on_c, 0, 48, 36
2, 182280, Note_on_c, 0, 48, 0
2, 182280, Note_on_c, 0, 48, 36
2, 182340, Note_on_c, 0, 48, 0
2, 182340, Note_on_c, 0, 48, 36
2, 182400, Note_on_c, 0, 48, 0
2, 182400, Note_on_c, 0, 63, 49
2, 182447, Note_on_c, 0, 63, 0
2, 182640, Note_on_c, 0, 63, 49
2, 182687, Note_on_c, 0, 63, 0
2, 183000, Note_on_c, 0, 65, 49
2, 183023, Note_on_c, 0, 65, 0
2, 183120, Note_on_c, 0, 66, 49
2, 183143, Note_on_c, 0, 66, 0
2, 183240, Note_on_c, 0, 65, 49
2, 183263, Note_on_c, 0, 65, 0
2, 183360, Note_on_c, 0, 63, 49
2, 183383, Note_on_c, 0, 63, 0
2, 183480, Note_on_c, 0, 66, 49
2, 183503, Note_on_c, 0, 66, 0
2, 183600, Note_on_c, 0, 65, 49
2, 183623, Note_on_c, 0, 65, 0
2, 183720, Note_on_c, 0, 68, 49
2, 183743, Note_on_c, 0, 68, 0
2, 184080, Control_c, 0, 64, 127
2, 184080, Note_on_c, 0, 68, 49
2, 184114, Note_on_c, 0, 68, 0
2, 184114, Note_on_c, 0, 70, 49
2, 184148, Note_on_c, 0, 70, 0
2, 184148, Note_on_c, 0, 72, 49
2, 184182, Note_on_c, 0, 72, 0
2, 184182, Note_on_c, 0, 73, 49
2, 184217, Note_on_c, 0, 73, 0
2, 184217, Note_on_c, 0, 75, 49
2, 184251, Note_on_c, 0, 75, 0
2, 184251, Note_on_c, 0, 77, 49
2, 184285, Note_on_c, 0, 77, 0
2, 184285, Note_on_c, 0, 78, 49
2, 184320, Note_on_c, 0, 78, 0
2, 184320, Control_c, 0, 64, 0
2, 184320, Note_on_c, 0, 80, 49
2, 184479, Note_on_c, 0, 80, 0
2, 184479, Note_on_c, 0, 75, 75
2, 184640, Note_on_c, 0, 75, 0
2, 184640, Note_on_c, 0, 72, 49
2, 184800, Note_on_c, 0, 72, 0
2, 184959, Note_on_c, 0, 87, 75
2, 185120, Note_on_c, 0, 87, 0
2, 185120, Note_on_c, 0, 84, 49
2, 185280, Note_on_c, 0, 84, 0
2, 185280, Note_on_c, 0, 84, 49
2, 185439, Note_on_c, 0, 84, 0
2, 185439, Note_on_c, 0, 82, 49
2, 185600, Note_on_c, 0, 82, 0
2, 185600, Note_on_c, 0, 80, 49
2, 185760, Note_on_c, 0, 80, 0
2, 185760, Note_on_c, 0, 75, 49
2, 185760, Note_on_c, 0, 80, 49
2, 185919, Note_on_c, 0, 80, 0
2, 185919, Note_on_c, 0, 75, 0
2, 185919, Note_on_c, 0, 82, 49
2, 186080, Note_on_c, 0, 82, 0
2, 186080, Note_on_c, 0, 84, 49
2, 186240, Note_on_c, 0, 84, 0
2, 186240, Note_on_c, 0, 75, 62
2, 186240, Note_on_c, 0, 87, 62
2, 186480, Note_on_c, 0, 87, 0
2, 186480, Note_on_c, 0, 75, 0
2, 186840, Note_on_c, 0, 60, 62
2, 186840, Note_on_c, 0, 65, 62
2, 186863, Note_on_c, 0, 65, 0
2, 186863, Note_on_c, 0, 60, 0
2, 186960, Note_on_c, 0, 60, 62
2, 186960, Note_on_c, 0, 67, 62
2, 186983, Note_on_c, 0, 67, 0
2, 186983, Note_on_c, 0, 60, 0
2, 187080, Note_on_c, 0, 60, 62
2, 187080, Note_on_c, 0, 65, 62
2, 187103, Note_on_c, 0, 65, 0
2, 187103, Note_on_c, 0, 60, 0
2, 187200, Note_on_c, 0, 60, 62
2, 187200, Note_on_c, 0, 63, 62
2, 187223, Note_on_c, 0, 63, 0
2, 187223, Note_on_c, 0, 60, 0
2, 187320, Note_on_c, 0, 60, 62
2, 187320, Note_on_c, 0, 67, 62
2, 187343, Note_on_c, 0, 67, 0
2, 187343, Note_on_c, 0, 60, 0
2, 187440, Note_on_c, 0, 60, 62
2, 187440, Note_on_c, 0, 65, 62
2, 187463, Note_on_c, 0, 65, 0
2, 187463, Note_on_c, 0, 60, 0
2, 187560, Note_on_c, 0, 62, 62
2, 187560, Note_on_c, 0, 68, 62
2, 187583, Note_on_c, 0, 68, 0
2, 187583, Note_on_c, 0, 62, 0
2, 187920, Control_c, 0, 64, 127
2, 187920, Note_on_c, 0, 67, 62
2, 187954, Note_on_c, 0, 67, 0
2, 187954, Note_on_c, 0, 69, 62
2, 187988, Note_on_c, 0, 69, 0
2, 187988, Note_on_c, 0, 71, 62
2, 188022, Note_on_c, 0, 71, 0
2, 188022, Note_on_c, 0, 72, 62
2, 188057, Note_on_c, 0, 72, 0
2, 188057, Note_on_c, 0, 74, 62
2, 188091, Note_on_c, 0, 74, 0
2, 188091, Note_on_c, 0, 76, 62
2, 188125, Note_on_c, 0, 76, 0
2, 188125, Note_on_c, 0, 77, 62
2, 188160, Note_on_c, 0, 77, 0
2, 188160, Control_c, 0, 64, 0
2, 188160, Note_on_c, 0, 79, 62
2, 188319, Note_on_c, 0, 79, 0
2, 188319, Note_on_c, 0, 79, 88
2, 188480, Note_on_c, 0, 79, 0
2, 188480, Note_on_c, 0, 75, 88
2, 188640, Note_on_c, 0, 75, 0
2, 188799, Note_on_c, 0, 91, 88
2, 188960, Note_on_c, 0, 91, 0
2, 188960, Note_on_c, 0, 87, 88
2, 189120, Note_on_c, 0, 87, 0
2, 189120, Note_on_c, 0, 87, 62
2, 189279, Note_on_c, 0, 87, 0
2, 189279, Note_on_c, 0, 86, 62
2, 189440, Note_on_c, 0, 86, 0
2, 189440, Note_on_c, 0, 84, 62
2, 189600, Note_on_c, 0, 84, 0
2, 189600, Note_on_c, 0, 84, 62
2, 189759, Note_on_c, 0, 84, 0
2, 189759, Note_on_c, 0, 86, 62
2, 189920, Note_on_c, 0, 86, 0
2, 189920, Note_on_c, 0, 87, 62
2, 190080, Note_on_c, 0, 87, 0
2, 190080, Note_on_c, 0, 79, 62
2, 190080, Note_on_c, 0, 91, 62
2, 190320, Note_on_c, 0, 91, 0
2, 190320, Note_on_c, 0, 79, 0
2, 190560, Note_on_c, 0, 64, 88
2, 191280, Note_on_c, 0, 64, 0
2, 191280, Note_on_c, 0, 64, 62
2, 191520, Note_on_c, 0, 64, 0
2, 191520, Note_on_c, 0, 67, 62
2, 191760, Note_on_c, 0, 67, 0
2, 191760, Note_on_c, 0, 60, 62
2, 192000, Note_on_c, 0, 60, 0
2, 192000, Note_on_c, 0, 62, 62
2, 192047, Note_on_c, 0, 62, 0
2, 192240, Note_on_c, 0, 64, 62
2, 192287, Note_on_c, 0, 64, 0
2, 192480, Note_on_c, 0, 65, 62
2, 192511, Note_on_c, 0, 65, 0
2, 192639, Note_on_c, 0, 72, 62
2, 192800, Note_on_c, 0, 72, 0
2, 192800, Note_on_c, 0, 68, 62
2, 192960, Note_on_c, 0, 68, 0
2, 192960, Note_on_c, 0, 68, 75
2, 193119, Note_on_c, 0, 68, 0
2, 193119, Note_on_c, 0, 67, 75
2, 193280, Note_on_c, 0, 67, 0
2, 193280, Note_on_c, 0, 65, 75
2, 193440, Note_on_c, 0, 65, 0
2, 193440, Note_on_c, 0, 68, 75
2, 193680, Note_on_c, 0, 68, 0
2, 193920, Note_on_c, 0, 69, 101
2, 194160, Note_on_c, 0, 69, 0
2, 194400, Note_on_c, 0, 69, 101
2, 195120, Note_on_c, 0, 69, 0
2, 195120, Note_on_c, 0, 69, 75
2, 195360, Note_on_c, 0, 69, 0
2, 195360, Note_on_c, 0, 72, 75
2, 195600, Note_on_c, 0, 72, 0
2, 195600, Note_on_c, 0, 65, 75
2, 195840, Note_on_c, 0, 65, 0
2, 195840, Note_on_c, 0, 67, 62
2, 195887, Note_on_c, 0, 67, 0
2, 196080, Note_on_c, 0, 69, 62
2, 196127, Note_on_c, 0, 69, 0
2, 196320, Note_on_c, 0, 70, 62
2, 196351, Note_on_c, 0, 70, 0
2, 196479, Note_on_c, 0, 77, 62
2, 196640, Note_on_c, 0, 77, 0
2, 196640, Note_on_c, 0, 73, 62
2, 196800, Note_on_c, 0, 73, 0
2, 196800, Note_on_c, 0, 73, 75
2, 196959, Note_on_c, 0, 73, 0
2, 196959, Note_on_c, 0, 72, 75
2, 197120, Note_on_c, 0, 72, 0
2, 197120, Note_on_c, 0, 70, 75
2, 197280, Note_on_c, 0, 70, 0
2, 197280, Note_on_c, 0, 73, 75
2, 197520, Note_on_c, 0, 73, 0
2, 197760, Note_on_c, 0, 63, 101
2, 197760, Note_on_c, 0, 78, 101
2, 198480, Note_on_c, 0, 78, 0
2, 198480, Note_on_c, 0, 63, 0
2, 198480, Note_on_c, 0, 65, 75
2, 198480, Note_on_c, 0, 77, 75
2, 198720, Note_on_c, 0, 77, 0
2, 198720, Note_on_c, 0, 65, 0
2, 198720, Note_on_c, 0, 66, 101
2, 198720, Note_on_c, 0, 75, 101
2, 199440, Note_on_c, 0, 75, 0
2, 199440, Note_on_c, 0, 66, 0
2, 199440, Note_on_c, 0, 65, 75
2, 199440, Note_on_c, 0, 73, 75
2, 199680, Note_on_c, 0, 73, 0
2, 199680, Note_on_c, 0, 65, 0
2, 199680, Control_c, 0, 64, 127
2, 199680, Note_on_c, 0, 72, 101
2, 199920, Note_on_c, 0, 72, 0
2, 199920, Note_on_c, 0, 73, 75
2, 200160, Note_on_c, 0, 73, 0
2, 200160, Note_on_c, 0, 72, 75
2, 200400, Note_on_c, 0, 72, 0
2, 200400, Control_c, 0, 64, 0
2, 200400, Note_on_c, 0, 70, 75
2, 200640, Note_on_c, 0, 70, 0
2, 200640, Note_on_c, 0, 65, 101
2, 200640, Note_on_c, 0, 69, 101
2, 201360, Note_on_c, 0, 69, 0
2, 201360, Note_on_c, 0, 65, 0
2, 201360, Note_on_c, 0, 70, 75
2, 201600, Note_on_c, 0, 70, 0
2, 201600, Note_on_c, 0, 63, 101
2, 201600, Note_on_c, 0, 78, 101
2, 202320, Note_on_c, 0, 78, 0
2, 202320, Note_on_c, 0, 63, 0
2, 202320, Note_on_c, 0, 65, 75
2, 202320, Note_on_c, 0, 77, 75
2, 202560, Note_on_c, 0, 77, 0
2, 202560, Note_on_c, 0, 65, 0
2, 202560, Note_on_c, 0, 66, 101
2, 202560, Note_on_c, 0, 75, 101
2, 203280, Note_on_c, 0, 75, 0
2, 203280, Note_on_c, 0, 66, 0
2, 203280, Note_on_c, 0, 65, 75
2, 203280, Note_on_c, 0, 73, 75
2, 203520, Note_on_c, 0, 73, 0
2, 203520, Note_on_c, 0, 65, 0
2, 203520, Control_c, 0, 64, 127
2, 203520, Note_on_c, 0, 72, 101
2, 203760, Note_on_c, 0, 72, 0
2, 203760, Note_on_c, 0, 73, 75
2, 204000, Note_on_c, 0, 73, 0
2, 204000, Note_on_c, 0, 72, 75
2, 204240, Note_on_c, 0, 72, 0
2, 204240, Control_c, 0, 64, 0
2, 204240, Note_on_c, 0, 70, 75
2, 204480, Note_on_c, 0, 70, 0
2, 204480, Note_on_c, 0, 65, 101
2, 204480, Note_on_c, 0, 69, 101
2, 205200, Note_on_c, 0, 69, 0
2, 205200, Note_on_c, 0, 65, 0
2, 205200, Note_on_c, 0, 70, 75
2, 205440, Note_on_c, 0, 70, 0
2, 205440, Note_on_c, 0, 65, 101
2, 205440, Note_on_c, 0, 77, 101
2, 206160, Note_on_c, 0, 77, 0
2, 206160, Note_on_c, 0, 65, 0
2, 206160, Note_on_c, 0, 64, 75
2, 206160, Note_on_c, 0, 76, 75
2, 206400, Note_on_c, 0, 76, 0
2, 206400, Note_on_c, 0, 64, 0
2, 206400, Note_on_c, 0, 65, 101
2, 206400, Note_on_c, 0, 77, 101
2, 207120, Note_on_c, 0, 77, 0
2, 207120, Note_on_c, 0, 65, 0
2, 207120, Note_on_c, 0, 64, 75
2, 207120, Note_on_c, 0, 76, 75
2, 207360, Note_on_c, 0, 76, 0
2, 207360, Note_on_c, 0, 64, 0
2, 207360, Note_on_c, 0, 67, 101
2, 207360, Note_on_c, 0, 79, 101
2, 208080, Note_on_c, 0, 79, 0
2, 208080, Note_on_c, 0, 67, 0
2, 208080, Note_on_c, 0, 65, 75
2, 208080, Note_on_c, 0, 77, 75
2, 208320, Note_on_c, 0, 77, 0
2, 208320, Note_on_c, 0, 65, 0
2, 208320, Control_c, 0, 64, 127
2, 208320, Note_on_c, 0, 64, 101
2, 208320, Note_on_c, 0, 76, 101
2, 208560, Note_on_c, 0, 76, 0
2, 208560, Note_on_c, 0, 64, 0
2, 208560, Note_on_c, 0, 65, 75
2, 208560, Note_on_c, 0, 77, 75
2, 208800, Note_on_c, 0, 77, 0
2, 208800, Note_on_c, 0, 65, 0
2, 208800, Note_on_c, 0, 63, 75
2, 208800, Note_on_c, 0, 75, 75
2, 209040, Note_on_c, 0, 75, 0
2, 209040, Note_on_c, 0, 63, 0
2, 209040, Control_c, 0, 64, 0
2, 209040, Note_on_c, 0, 61, 75
2, 209040, Note_on_c, 0, 73, 75
2, 209280, Note_on_c, 0, 73, 0
2, 209280, Note_on_c, 0, 61, 0
2, 209280, Control_c, 0, 64, 127
2, 209280, Note_on_c, 0, 60, 101
2, 209280, Note_on_c, 0, 72, 101
2, 209520, Note_on_c, 0, 72, 0
2, 209520, Note_on_c, 0, 60, 0
2, 209520, Note_on_c, 0, 61, 75
2, 209520, Note_on_c, 0, 73, 75
2, 209760, Note_on_c, 0, 73, 0
2, 209760, Note_on_c, 0, 61, 0
2, 209760, Note_on_c, 0, 60, 75
2, 209760, Note_on_c, 0, 72, 75
2, 210000, Note_on_c, 0, 72, 0
2, 210000, Note_on_c, 0, 60, 0
2, 210000, Control_c, 0, 64, 0
2, 210000, Note_on_c, 0, 58, 75
2, 210000, Note_on_c, 0, 70, 75
2, 210240, Note_on_c, 0, 70, 0
2, 210240, Note_on_c, 0, 58, 0
2, 210240, Control_c, 0, 64, 127
2, 210240, Note_on_c, 0, 69, 75
2, 210360, Note_on_c, 0, 69, 0
2, 210360, Note_on_c, 0, 70, 75
2, 210480, Note_on_c, 0, 70, 0
2, 210480, Note_on_c, 0, 72, 75
2, 210600, Note_on_c, 0, 72, 0
2, 210600, Note_on_c, 0, 73, 75
2, 210720, Note_on_c, 0, 73, 0
2, 210720, Note_on_c, 0, 76, 75
2, 210840, Note_on_c, 0, 76, 0
2, 210840, Note_on_c, 0, 77, 75
2, 210960, Note_on_c, 0, 77, 0
2, 210960, Note_on_c, 0, 81, 75
2, 211080, Note_on_c, 0, 81, 0
2, 211080, Control_c, 0, 64, 0
2, 211080, Note_on_c, 0, 82, 75
2, 211200, Note_on_c, 0, 82, 0
2, 211200, Control_c, 0, 64, 127
2, 211200, Note_on_c, 0, 85, 101
2, 211260, Note_on_c, 0, 85, 0
2, 211260, Note_on_c, 0, 73, 101
2, 211320, Note_on_c, 0, 73, 0
2, 211320, Note_on_c, 0, 85, 75
2, 211380, Note_on_c, 0, 85, 0
2, 211380, Note_on_c, 0, 73, 75
2, 211440, Note_on_c, 0, 73, 0
2, 211440, Note_on_c, 0, 85, 75
2, 211500, Note_on_c, 0, 85, 0
2, 211500, Note_on_c, 0, 73, 75
2, 211560, Note_on_c, 0, 73, 0
2, 211560, Note_on_c, 0, 85, 75
2, 211620, Note_on_c, 0, 85, 0
2, 211620, Note_on_c, 0, 73, 75
2, 211680, Note_on_c, 0, 73, 0
2, 211680, Note_on_c, 0, 85, 75
2, 211740, Note_on_c, 0, 85, 0
2, 211740, Note_on_c, 0, 73, 75
2, 211800, Note_on_c, 0, 73, 0
2, 211800, Note_on_c, 0, 85, 75
2, 211860, Note_on_c, 0, 85, 0
2, 211860, Note_on_c, 0, 73, 75
2, 211920, Note_on_c, 0, 73, 0
2, 211920, Note_on_c, 0, 85, 75
2, 211980, Note_on_c, 0, 85, 0
2, 211980, Note_on_c, 0, 73, 75
2, 212040, Note_on_c, 0, 73, 0
2, 212040, Note_on_c, 0, 85, 75
2, 212100, Note_on_c, 0, 85, 0
2, 212100, Note_on_c, 0, 73, 75
2, 212160, Note_on_c, 0, 73, 0
2, 212160, Note_on_c, 0, 85, 75
2, 212220, Note_on_c, 0, 85, 0
2, 212220, Note_on_c, 0, 73, 75
2, 212280, Note_on_c, 0, 73, 0
2, 212280, Note_on_c, 0, 85, 75
2, 212340, Note_on_c, 0, 85, 0
2, 212340, Note_on_c, 0, 73, 75
2, 212400, Note_on_c, 0, 73, 0
2, 212400, Note_on_c, 0, 85, 75
2, 212460, Note_on_c, 0, 85, 0
2, 212460, Note_on_c, 0, 73, 75
2, 212520, Note_on_c, 0, 73, 0
2, 212520, Note_on_c, 0, 85, 75
2, 212580, Note_on_c, 0, 85, 0
2, 212580, Note_on_c, 0, 73, 75
2, 212640, Note_on_c, 0, 73, 0
2, 212640, Note_on_c, 0, 85, 75
2, 212700, Note_on_c, 0, 85, 0
2, 212700, Note_on_c, 0, 73, 75
2, 212760, Note_on_c, 0, 73, 0
2, 212760, Note_on_c, 0, 85, 75
2, 212820, Note_on_c, 0, 85, 0
2, 212820, Note_on_c, 0, 73, 75
2, 212880, Note_on_c, 0, 73, 0
2, 212880, Note_on_c, 0, 85, 75
2, 212940, Note_on_c, 0, 85, 0
2, 212940, Note_on_c, 0, 73, 75
2, 213000, Note_on_c, 0, 73, 0
2, 213000, Note_on_c, 0, 85, 75
2, 213060, Note_on_c, 0, 85, 0
2, 213060, Control_c, 0, 64, 0
2, 213060, Note_on_c, 0, 73, 75
2, 213120, Note_on_c, 0, 73, 0
2, 213120, Note_on_c, 0, 73, 127
2, 215040, Note_on_c, 0, 73, 0
2, 215040, Note_on_c, 0, 73, 127
2, 216960, Note_on_c, 0, 73, 0
2, 216960, Note_on_c, 0, 73, 127
2, 218880, Note_on_c, 0, 73, 0
2, 218880, Note_on_c, 0, 57, 101
2, 218880, Note_on_c, 0, 61, 101
2, 218880, Note_on_c, 0, 64, 101
2, 218880, Note_on_c, 0, 69, 101
2, 219360, Note_on_c, 0, 69, 0
2, 219360, Note_on_c, 0, 57, 0
2, 219360, Note_on_c, 0, 61, 0
2, 219360, Note_on_c, 0, 64, 0
2, 219360, Note_on_c, 0, 58, 101
2, 219360, Note_on_c, 0, 61, 101
2, 219360, Note_on_c, 0, 64, 101
2, 219360, Note_on_c, 0, 70, 101
2, 220800, Note_on_c, 0, 70, 0
2, 220800, Note_on_c, 0, 58, 0
2, 220800, Note_on_c, 0, 61, 0
2, 220800, Note_on_c, 0, 64, 0
2, 220800, Note_on_c, 0, 69, 101
2, 220800, Note_on_c, 0, 73, 101
2, 220800, Note_on_c, 0, 76, 101
2, 221280, Note_on_c, 0, 76, 0
2, 221280, Note_on_c, 0, 73, 0
2, 221280, Note_on_c, 0, 69, 0
2, 221280, Note_on_c, 0, 73, 101
2, 221280, Note_on_c, 0, 77, 101
2, 221760, Note_on_c, 0, 77, 0
2, 221760, Note_on_c, 0, 73, 0
2, 221760, Note_on_c, 0, 73, 101
2, 221760, Note_on_c, 0, 78, 101
2, 222480, Note_on_c, 0, 78, 0
2, 222480, Note_on_c, 0, 73, 0
2, 222480, Note_on_c, 0, 70, 101
2, 222480, Note_on_c, 0, 73, 101
2, 222720, Note_on_c, 0, 73, 0
2, 222720, Note_on_c, 0, 70, 0
2, 222720, Note_on_c, 0, 70, 101
2, 222720, Note_on_c, 0, 75, 101
2, 223200, Note_on_c, 0, 75, 0
2, 223200, Note_on_c, 0, 70, 0
2, 223200, Note_on_c, 0, 70, 101
2, 223200, Note_on_c, 0, 76, 101
2, 223680, Note_on_c, 0, 76, 0
2, 223680, Note_on_c, 0, 70, 0
2, 223680, Note_on_c, 0, 70, 101
2, 223680, Note_on_c, 0, 77, 101
2, 224400, Note_on_c, 0, 77, 0
2, 224400, Note_on_c, 0, 70, 0
2, 224400, Note_on_c, 0, 65, 101
2, 224400, Note_on_c, 0, 70, 101
2, 224640, Note_on_c, 0, 70, 0
2, 224640, Note_on_c, 0, 65, 0
2, 224640, Note_on_c, 0, 65, 101
2, 224640, Note_on_c, 0, 68, 101
2, 224640, Note_on_c, 0, 71, 101
2, 225120, Note_on_c, 0, 71, 0
2, 225120, Note_on_c, 0, 68, 0
2, 225120, Note_on_c, 0, 65, 0
2, 225120, Note_on_c, 0, 67, 101
2, 225120, Note_on_c, 0, 69, 101
2, 225120, Note_on_c, 0, 73, 101
2, 225600, Note_on_c, 0, 73, 0
2, 225600, Note_on_c, 0, 69, 0
2, 225600, Note_on_c, 0, 67, 0
2, 225600, Note_on_c, 0, 66, 101
2, 225600, Note_on_c, 0, 69, 101
2, 225600, Note_on_c, 0, 73, 101
2, 225600, Note_on_c, 0, 75, 101
2, 226080, Note_on_c, 0, 75, 0
2, 226080, Note_on_c, 0, 66, 0
2, 226080, Note_on_c, 0, 69, 0
2, 226080, Note_on_c, 0, 73, 0
2, 226080, Note_on_c, 0, 64, 101
2, 226080, Note_on_c, 0, 68, 101
2, 226080, Note_on_c, 0, 73, 101
2, 226080, Note_on_c, 0, 76, 101
2, 226560, Note_on_c, 0, 76, 0
2, 226560, Note_on_c, 0, 64, 0
2, 226560, Note_on_c, 0, 68, 0
2, 226560, Note_on_c, 0, 73, 0
2, 226560, Note_on_c, 0, 65, 101
2, 226560, Note_on_c, 0, 69, 101
2, 226560, Note_on_c, 0, 73, 101
2, 226560, Note_on_c, 0, 77, 101
2, 227040, Note_on_c, 0, 77, 0
2, 227040, Note_on_c, 0, 65, 0
2, 227040, Note_on_c, 0, 69, 0
2, 227040, Note_on_c, 0, 73, 0
2, 227040, Note_on_c, 0, 66, 101
2, 227040, Note_on_c, 0, 70, 101
2, 227040, Note_on_c, 0, 73, 101
2, 227040, Note_on_c, 0, 78, 101
2, 227520, Note_on_c, 0, 78, 0
2, 227520, Note_on_c, 0, 66, 0
2, 227520, Note_on_c, 0, 70, 0
2, 227520, Note_on_c, 0, 73, 0
2, 227520, Note_on_c, 0, 67, 101
2, 227520, Note_on_c, 0, 70, 101
2, 227520, Note_on_c, 0, 73, 101
2, 227520, Note_on_c, 0, 79, 101
2, 228480, Note_on_c, 0, 79, 0
2, 228480, Note_on_c, 0, 67, 0
2, 228480, Note_on_c, 0, 70, 0
2, 228480, Note_on_c, 0, 73, 0
2, 228480, Note_on_c, 0, 91, 101
2, 228720, Note_on_c, 0, 91, 0
2, 228720, Note_on_c, 0, 63, 49
2, 228960, Note_on_c, 0, 63, 0
2, 228960, Note_on_c, 0, 64, 49
2, 229200, Note_on_c, 0, 64, 0
2, 229200, Note_on_c, 0, 65, 49
2, 229440, Note_on_c, 0, 65, 0
2, 229440, Note_on_c, 0, 64, 49
2, 229680, Note_on_c, 0, 64, 0
2, 229680, Note_on_c, 0, 63, 49
2, 229920, Note_on_c, 0, 63, 0
2, 229920, Note_on_c, 0, 62, 49
2, 230160, Note_on_c, 0, 62, 0
2, 230160, Note_on_c, 0, 67, 49
2, 230400, Note_on_c, 0, 67, 0
2, 230400, Note_on_c, 0, 74, 62
2, 232320, Note_on_c, 0, 74, 0
2, 232320, Note_on_c, 0, 86, 62
2, 234240, Note_on_c, 0, 86, 0
2, 234240, Note_on_c, 0, 86, 62
2, 236160, Note_on_c, 0, 86, 0
2, 236160, Note_on_c, 0, 75, 62
2, 238080, Note_on_c, 0, 75, 0
2, 238080, Note_on_c, 0, 75, 62
2, 240000, Note_on_c, 0, 75, 0
2, 240000, Note_on_c, 0, 88, 62
2, 241920, Note_on_c, 0, 88, 0
2, 241920, Note_on_c, 0, 88, 62
2, 243840, Note_on_c, 0, 88, 0
2, 243840, Note_on_c, 0, 77, 62
2, 245760, Note_on_c, 0, 77, 0
2, 245760, Note_on_c, 0, 87, 62
2, 247680, Note_on_c, 0, 87, 0
2, 247680, Note_on_c, 0, 79, 75
2, 249600, Note_on_c, 0, 79, 0
2, 249600, Note_on_c, 0, 80, 75
2, 251520, Note_on_c, 0, 80, 0
2, 251520, Note_on_c, 0, 81, 75
2, 252480, Note_on_c, 0, 81, 0
2, 252480, Note_on_c, 0, 82, 88
2, 253440, Note_on_c, 0, 82, 0
2, 253440, Note_on_c, 0, 83, 88
2, 254400, Note_on_c, 0, 83, 0
2, 254400, Note_on_c, 0, 84, 88
2, 255360, Note_on_c, 0, 84, 0
2, 255360, Note_on_c, 0, 85, 88
2, 257280, Note_on_c, 0, 85, 0
2, 257280, Note_on_c, 0, 85, 101
2, 259200, Note_on_c, 0, 85, 0
2, 259200, Control_c, 0, 64, 127
2, 259200, Note_on_c, 0, 78, 127
2, 259200, Note_on_c, 0, 81, 127
2, 259200, Note_on_c, 0, 86, 127
2, 259320, Note_on_c, 0, 86, 0
2, 259320, Note_on_c, 0, 81, 0
2, 259320, Note_on_c, 0, 78, 0
2, 259320, Note_on_c, 0, 74, 101
2, 259440, Note_on_c, 0, 74, 0
2, 259440, Note_on_c, 0, 78, 101
2, 259440, Note_on_c, 0, 81, 101
2, 259440, Note_on_c, 0, 86, 101
2, 259560, Note_on_c, 0, 86, 0
2, 259560, Note_on_c, 0, 81, 0
2, 259560, Note_on_c, 0, 78, 0
2, 259560, Note_on_c, 0, 74, 101
2, 259680, Note_on_c, 0, 74, 0
2, 259680, Note_on_c, 0, 86, 127
2, 259680, Note_on_c, 0, 90, 127
2, 259680, Note_on_c, 0, 93, 127
2, 259800, Note_on_c, 0, 93, 0
2, 259800, Note_on_c, 0, 90, 0
2, 259800, Note_on_c, 0, 86, 0
2, 259800, Note_on_c, 0, 81, 101
2, 259920, Note_on_c, 0, 81, 0
2, 259920, Note_on_c, 0, 86, 101
2, 259920, Note_on_c, 0, 90, 101
2, 259920, Note_on_c, 0, 93, 101
2, 260040, Note_on_c, 0, 93, 0
2, 260040, Note_on_c, 0, 90, 0
2, 260040, Note_on_c, 0, 86, 0
2, 260040, Note_on_c, 0, 81, 101
2, 260160, Note_on_c, 0, 81, 0
2, 260160, Note_on_c, 0, 81, 127
2, 260160, Note_on_c, 0, 86, 127
2, 260160, Note_on_c, 0, 90, 127
2, 260280, Note_on_c, 0, 90, 0
2, 260280, Note_on_c, 0, 86, 0
2, 260280, Note_on_c, 0, 81, 0
2, 260280, Note_on_c, 0, 78, 101
2, 260400, Note_on_c, 0, 78, 0
2, 260400, Note_on_c, 0, 81, 101
2, 260400, Note_on_c, 0, 86, 101
2, 260400, Note_on_c, 0, 90, 101
2, 260520, Note_on_c, 0, 90, 0
2, 260520, Note_on_c, 0, 86, 0
2, 260520, Note_on_c, 0, 81, 0
2, 260520, Note_on_c, 0, 78, 101
2, 260640, Note_on_c, 0, 78, 0
2, 260640, Note_on_c, 0, 78, 127
2, 260640, Note_on_c, 0, 81, 127
2, 260640, Note_on_c, 0, 86, 127
2, 260760, Note_on_c, 0, 86, 0
2, 260760, Note_on_c, 0, 81, 0
2, 260760, Note_on_c, 0, 78, 0
2, 260760, Note_on_c, 0, 74, 101
2, 260880, Note_on_c, 0, 74, 0
2, 260880, Note_on_c, 0, 78, 101
2, 260880, Note_on_c, 0, 81, 101
2, 260880, Note_on_c, 0, 86, 101
2, 261000, Note_on_c, 0, 86, 0
2, 261000, Note_on_c, 0, 81, 0
2, 261000, Note_on_c, 0, 78, 0
2, 261000, Control_c, 0, 64, 0
2, 261000, Note_on_c, 0, 74, 101
2, 261120, Note_on_c, 0, 74, 0
2, 261120, Control_c, 0, 64, 127
2, 261120, Note_on_c, 0, 74, 127
2, 261120, Note_on_c, 0, 78, 127
2, 261120, Note_on_c, 0, 81, 127
2, 261240, Note_on_c, 0, 81, 0
2, 261240, Note_on_c, 0, 78, 0
2, 261240, Note_on_c, 0, 74, 0
2, 261240, Note_on_c, 0, 69, 101
2, 261360, Note_on_c, 0, 69, 0
2, 261360, Note_on_c, 0, 74, 101
2, 261360, Note_on_c, 0, 78, 101
2, 261360, Note_on_c, 0, 81, 101
2, 261480, Note_on_c, 0, 81, 0
2, 261480, Note_on_c, 0, 78, 0
2, 261480, Note_on_c, 0, 74, 0
2, 261480, Note_on_c, 0, 69, 101
2, 261600, Note_on_c, 0, 69, 0
2, 261600, Note_on_c, 0, 69, 127
2, 261600, Note_on_c, 0, 74, 127
2, 261600, Note_on_c, 0, 78, 127
2, 261720, Note_on_c, 0, 78, 0
2, 261720, Note_on_c, 0, 74, 0
2, 261720, Note_on_c, 0, 69, 0
2, 261720, Note_on_c, 0, 66, 101
2, 261840, Note_on_c, 0, 66, 0
2, 261840, Note_on_c, 0, 69, 101
2, 261840, Note_on_c, 0, 74, 101
2, 261840, Note_on_c, 0, 78, 101
2, 261960, Note_on_c, 0, 78, 0
2, 261960, Note_on_c, 0, 74, 0
2, 261960, Note_on_c, 0, 69, 0
2, 261960, Note_on_c, 0, 66, 101
2, 262080, Note_on_c, 0, 66, 0
2, 262080, Note_on_c, 0, 66, 127
2, 262080, Note_on_c, 0, 69, 127
2, 262080, Note_on_c, 0, 74, 127
2, 262200, Note_on_c, 0, 74, 0
2, 262200, Note_on_c, 0, 69, 0
2, 262200, Note_on_c, 0, 66, 0
2, 262200, Note_on_c, 0, 62, 101
2, 262320, Note_on_c, 0, 62, 0
2, 262320, Note_on_c, 0, 66, 101
2, 262320, Note_on_c, 0, 69, 101
2, 262320, Note_on_c, 0, 74, 101
2, 262440, Note_on_c, 0, 74, 0
2, 262440, Note_on_c, 0, 69, 0
2, 262440, Note_on_c, 0, 66, 0
2, 262440, Note_on_c, 0, 62, 101
2, 262560, Note_on_c, 0, 62, 0
2, 262560, Note_on_c, 0, 62, 127
2, 262560, Note_on_c, 0, 66, 127
2, 262560, Note_on_c, 0, 69, 127
2, 262680, Note_on_c, 0, 69, 0
2, 262680, Note_on_c, 0, 66, 0
2, 262680, Note_on_c, 0, 62, 0
2, 262680, Note_on_c, 0, 57, 101
2, 262800, Note_on_c, 0, 57, 0
2, 262800, Note_on_c, 0, 62, 101
2, 262800, Note_on_c, 0, 66, 101
2, 262800, Note_on_c, 0, 69, 101
2, 262920, Note_on_c, 0, 69, 0
2, 262920, Note_on_c, 0, 66, 0
2, 262920, Note_on_c, 0, 62, 0
2, 262920, Control_c, 0, 64, 0
2, 262920, Note_on_c, 0, 57, 101
2, 263040, Note_on_c, 0, 57, 0
2, 263040, Control_c, 0, 64, 127
2, 263040, Note_on_c, 0, 78, 127
2, 263040, Note_on_c, 0, 81, 127
2, 263040, Note_on_c, 0, 86, 127
2, 263160, Note_on_c, 0, 86, 0
2, 263160, Note_on_c, 0, 81, 0
2, 263160, Note_on_c, 0, 78, 0
2, 263160, Note_on_c, 0, 74, 101
2, 263280, Note_on_c, 0, 74, 0
2, 263280, Note_on_c, 0, 78, 101
2, 263280, Note_on_c, 0, 81, 101
2, 263280, Note_on_c, 0, 86, 101
2, 263400, Note_on_c, 0, 86, 0
2, 263400, Note_on_c, 0, 81, 0
2, 263400, Note_on_c, 0, 78, 0
2, 263400, Note_on_c, 0, 74, 101
2, 263520, Note_on_c, 0, 74, 0
2, 263520, Note_on_c, 0, 74, 127
2, 263520, Note_on_c, 0, 78, 127
2, 263520, Note_on_c, 0, 81, 127
2, 263640, Note_on_c, 0, 81, 0
2, 263640, Note_on_c, 0, 78, 0
2, 263640, Note_on_c, 0, 74, 0
2, 263640, Note_on_c, 0, 69, 101
2, 263760, Note_on_c, 0, 69, 0
2, 263760, Note_on_c, 0, 74, 101
2, 263760, Note_on_c, 0, 78, 101
2, 263760, Note_on_c, 0, 81, 101
2, 263880, Note_on_c, 0, 81, 0
2, 263880, Note_on_c, 0, 78, 0
2, 263880, Note_on_c, 0, 74, 0
2, 263880, Note_on_c, 0, 69, 101
2, 264000, Note_on_c, 0, 69, 0
2, 264000, Note_on_c, 0, 69, 127
2, 264000, Note_on_c, 0, 74, 127
2, 264000, Note_on_c, 0, 78, 127
2, 264120, Note_on_c, 0, 78, 0
2, 264120, Note_on_c, 0, 74, 0
2, 264120, Note_on_c, 0, 69, 0
2, 264120, Note_on_c, 0, 66, 101
2, 264240, Note_on_c, 0, 66, 0
2, 264240, Note_on_c, 0, 69, 101
2, 264240, Note_on_c, 0, 74, 101
2, 264240, Note_on_c, 0, 78, 101
2, 264360, Note_on_c, 0, 78, 0
2, 264360, Note_on_c, 0, 74, 0
2, 264360, Note_on_c, 0, 69, 0
2, 264360, Note_on_c, 0, 66, 101
2, 264480, Note_on_c, 0, 66, 0
2, 264480, Note_on_c, 0, 66, 127
2, 264480, Note_on_c, 0, 69, 127
2, 264480, Note_on_c, 0, 74, 127
2, 264600, Note_on_c, 0, 74, 0
2, 264600, Note_on_c, 0, 69, 0
2, 264600, Note_on_c, 0, 66, 0
2, 264600, Note_on_c, 0, 62, 101
2, 264720, Note_on_c, 0, 62, 0
2, 264720, Note_on_c, 0, 66, 101
2, 264720, Note_on_c, 0, 69, 101
2, 264720, Note_on_c, 0, 74, 101
2, 264840, Note_on_c, 0, 74, 0
2, 264840, Note_on_c, 0, 69, 0
2, 264840, Note_on_c, 0, 66, 0
2, 264840, Control_c, 0, 64, 0
2, 264840, Note_on_c, 0, 62, 101
2, 264960, Note_on_c, 0, 62, 0
2, 264960, Control_c, 0, 64, 127
2, 264960, Note_on_c, 0, 65, 127
2, 264960, Note_on_c, 0, 68, 127
2, 264960, Note_on_c, 0, 74, 127
2, 265080, Note_on_c, 0, 74, 0
2, 265080, Note_on_c, 0, 68, 0
2, 265080, Note_on_c, 0, 65, 0
2, 265080, Note_on_c, 0, 62, 101
2, 265200, Note_on_c, 0, 62, 0
2, 265200, Note_on_c, 0, 65, 101
2, 265200, Note_on_c, 0, 68, 101
2, 265200, Note_on_c, 0, 74, 101
2, 265320, Note_on_c, 0, 74, 0
2, 265320, Note_on_c, 0, 68, 0
2, 265320, Note_on_c, 0, 65, 0
2, 265320, Note_on_c, 0, 62, 101
2, 265440, Note_on_c, 0, 62, 0
2, 265440, Note_on_c, 0, 62, 127
2, 265440, Note_on_c, 0, 65, 127
2, 265440, Note_on_c, 0, 68, 127
2, 265560, Note_on_c, 0, 68, 0
2, 265560, Note_on_c, 0, 65, 0
2, 265560, Note_on_c, 0, 62, 0
2, 265560, Note_on_c, 0, 56, 101
2, 265680, Note_on_c, 0, 56, 0
2, 265680, Note_on_c, 0, 62, 101
2, 265680, Note_on_c, 0, 65, 101
2, 265680, Note_on_c, 0, 68, 101
2, 265800, Note_on_c, 0, 68, 0
2, 265800, Note_on_c, 0, 65, 0
2, 265800, Note_on_c, 0, 62, 0
2, 265800, Note_on_c, 0, 56, 101
2, 265920, Note_on_c, 0, 56, 0
2, 265920, Note_on_c, 0, 56, 127
2, 265920, Note_on_c, 0, 62, 127
2, 265920, Note_on_c, 0, 65, 127
2, 266040, Note_on_c, 0, 65, 0
2, 266040, Note_on_c, 0, 62, 0
2, 266040, Note_on_c, 0, 56, 0
2, 266040, Note_on_c, 0, 53, 101
2, 266160, Note_on_c, 0, 53, 0
2, 266160, Note_on_c, 0, 56, 101
2, 266160, Note_on_c, 0, 62, 101
2, 266160, Note_on_c, 0, 65, 101
2, 266280, Note_on_c, 0, 65, 0
2, 266280, Note_on_c, 0, 62, 0
2, 266280, Note_on_c, 0, 56, 0
2, 266280, Note_on_c, 0, 53, 101
2, 266400, Note_on_c, 0, 53, 0
2, 266400, Note_on_c, 0, 53, 127
2, 266400, Note_on_c, 0, 56, 127
2, 266400, Note_on_c, 0, 62, 127
2, 266520, Note_on_c, 0, 62, 0
2, 266520, Note_on_c, 0, 56, 0
2, 266520, Note_on_c, 0, 53, 0
2, 266520, Note_on_c, 0, 50, 101
2, 266640, Note_on_c, 0, 50, 0
2, 266640, Note_on_c, 0, 53, 101
2, 266640, Note_on_c, 0, 56, 101
2, 266640, Note_on_c, 0, 62, 101
2, 266760, Note_on_c, 0, 62, 0
2, 266760, Note_on_c, 0, 56, 0
2, 266760, Note_on_c, 0, 53, 0
2, 266760, Control_c, 0, 64, 0
2, 266760, Note_on_c, 0, 50, 101
2, 266880, Note_on_c, 0, 50, 0
2, 266880, Note_on_c, 0, 53, 101
2, 266880, Note_on_c, 0, 57, 101
2, 266880, Note_on_c, 0, 62, 101
2, 267120, Note_on_c, 0, 62, 0
2, 267120, Note_on_c, 0, 57, 0
2, 267120, Note_on_c, 0, 53, 0
2, 267120, Control_c, 0, 64, 127
2, 267120, Note_on_c, 0, 50, 101
2, 267120, Note_on_c, 0, 53, 101
2, 267120, Note_on_c, 0, 57, 101
2, 267360, Note_on_c, 0, 57, 0
2, 267360, Note_on_c, 0, 53, 0
2, 267360, Note_on_c, 0, 50, 0
2, 267360, Note_on_c, 0, 53, 101
2, 267360, Note_on_c, 0, 57, 101
2, 267360, Note_on_c, 0, 62, 101
2, 267600, Note_on_c, 0, 62, 0
2, 267600, Note_on_c, 0, 57, 0
2, 267600, Note_on_c, 0, 53, 0
2, 267600, Note_on_c, 0, 57, 101
2, 267600, Note_on_c, 0, 62, 101
2, 267600, Note_on_c, 0, 65, 101
2, 267840, Note_on_c, 0, 65, 0
2, 267840, Note_on_c, 0, 62, 0
2, 267840, Note_on_c, 0, 57, 0
2, 267840, Control_c, 0, 64, 0
2, 267840, Note_on_c, 0, 62, 101
2, 267840, Note_on_c, 0, 65, 101
2, 267840, Note_on_c, 0, 69, 101
2, 268080, Note_on_c, 0, 69, 0
2, 268080, Note_on_c, 0, 65, 0
2, 268080, Note_on_c, 0, 62, 0
2, 268080, Control_c, 0, 64, 127
2, 268080, Note_on_c, 0, 53, 101
2, 268080, Note_on_c, 0, 57, 101
2, 268080, Note_on_c, 0, 62, 101
2, 268320, Note_on_c, 0, 62, 0
2, 268320, Note_on_c, 0, 57, 0
2, 268320, Note_on_c, 0, 53, 0
2, 268320, Note_on_c, 0, 57, 101
2, 268320, Note_on_c, 0, 62, 101
2, 268320, Note_on_c, 0, 65, 101
2, 268560, Note_on_c, 0, 65, 0
2, 268560, Note_on_c, 0, 62, 0
2, 268560, Note_on_c, 0, 57, 0
2, 268560, Note_on_c, 0, 62, 101
2, 268560, Note_on_c, 0, 65, 101
2, 268560, Note_on_c, 0, 69, 101
2, 268800, Note_on_c, 0, 69, 0
2, 268800, Note_on_c, 0, 65, 0
2, 268800, Note_on_c, 0, 62, 0
2, 268800, Control_c, 0, 64, 0
2, 268800, Note_on_c, 0, 65, 101
2, 268800, Note_on_c, 0, 69, 101
2, 268800, Note_on_c, 0, 74, 101
2, 269040, Note_on_c, 0, 74, 0
2, 269040, Note_on_c, 0, 69, 0
2, 269040, Note_on_c, 0, 65, 0
2, 269040, Control_c, 0, 64, 127
2, 269040, Note_on_c, 0, 62, 101
2, 269040, Note_on_c, 0, 65, 101
2, 269040, Note_on_c, 0, 69, 101
2, 269280, Note_on_c, 0, 69, 0
2, 269280, Note_on_c, 0, 65, 0
2, 269280, Note_on_c, 0, 62, 0
2, 269280, Note_on_c, 0, 65, 101
2, 269280, Note_on_c, 0, 69, 101
2, 269280, Note_on_c, 0, 74, 101
2, 269520, Note_on_c, 0, 74, 0
2, 269520, Note_on_c, 0, 69, 0
2, 269520, Note_on_c, 0, 65, 0
2, 269520, Note_on_c, 0, 69, 101
2, 269520, Note_on_c, 0, 74, 101
2, 269520, Note_on_c, 0, 77, 101
2, 269760, Note_on_c, 0, 77, 0
2, 269760, Note_on_c, 0, 74, 0
2, 269760, Note_on_c, 0, 69, 0
2, 269760, Control_c, 0, 64, 0
2, 269760, Note_on_c, 0, 74, 101
2, 269760, Note_on_c, 0, 77, 101
2, 269760, Note_on_c, 0, 81, 101
2, 270000, Note_on_c, 0, 81, 0
2, 270000, Note_on_c, 0, 77, 0
2, 270000, Note_on_c, 0, 74, 0
2, 270000, Note_on_c, 0, 69, 101
2, 270000, Note_on_c, 0, 74, 101
2, 270000, Note_on_c, 0, 77, 101
2, 270240, Note_on_c, 0, 77, 0
2, 270240, Note_on_c, 0, 74, 0
2, 270240, Note_on_c, 0, 69, 0
2, 270240, Note_on_c, 0, 74, 101
2, 270240, Note_on_c, 0, 77, 101
2, 270240, Note_on_c, 0, 81, 101
2, 270480, Note_on_c, 0, 81, 0
2, 270480, Note_on_c, 0, 77, 0
2, 270480, Note_on_c, 0, 74, 0
2, 270480, Note_on_c, 0, 77, 101
2, 270480, Note_on_c, 0, 81, 101
2, 270480, Note_on_c, 0, 86, 101
2, 270720, Note_on_c, 0, 86, 0
2, 270720, Note_on_c, 0, 81, 0
2, 270720, Note_on_c, 0, 77, 0
2, 270720, Control_c, 0, 64, 127
2, 270720, Note_on_c, 0, 74, 127
2, 270720, Note_on_c, 0, 77, 127
2, 270720, Note_on_c, 0, 82, 127
2, 270720, Note_on_c, 0, 86, 127
2, 270840, Note_on_c, 0, 86, 0
2, 270840, Note_on_c, 0, 74, 0
2, 270840, Note_on_c, 0, 77, 0
2, 270840, Note_on_c, 0, 82, 0
2, 270840, Note_on_c, 0, 86, 101
2, 270900, Note_on_c, 0, 86, 0
2, 270900, Note_on_c, 0, 74, 101
2, 270960, Note_on_c, 0, 74, 0
2, 270960, Note_on_c, 0, 86, 101
2, 271020, Note_on_c, 0, 86, 0
2, 271020, Note_on_c, 0, 74, 101
2, 271080, Note_on_c, 0, 74, 0
2, 271080, Note_on_c, 0, 86, 101
2, 271140, Note_on_c, 0, 86, 0
2, 271140, Note_on_c, 0, 74, 101
2, 271200, Note_on_c, 0, 74, 0
2, 271200, Note_on_c, 0, 86, 101
2, 271260, Note_on_c, 0, 86, 0
2, 271260, Note_on_c, 0, 74, 101
2, 271320, Note_on_c, 0, 74, 0
2, 271320, Note_on_c, 0, 86, 101
2, 271380, Note_on_c, 0, 86, 0
2, 271380, Note_on_c, 0, 74, 101
2, 271440, Note_on_c, 0, 74, 0
2, 271440, Note_on_c, 0, 86, 101
2, 271500, Note_on_c, 0, 86, 0
2, 271500, Note_on_c, 0, 74, 101
2, 271560, Note_on_c, 0, 74, 0
2, 271560, Note_on_c, 0, 86, 101
2, 271620, Note_on_c, 0, 86, 0
2, 271620, Note_on_c, 0, 74, 101
2, 271680, Note_on_c, 0, 74, 0
2, 271680, Note_on_c, 0, 86, 101
2, 271740, Note_on_c, 0, 86, 0
2, 271740, Note_on_c, 0, 74, 101
2, 271800, Note_on_c, 0, 74, 0
2, 271800, Note_on_c, 0, 86, 101
2, 271860, Note_on_c, 0, 86, 0
2, 271860, Note_on_c, 0, 74, 101
2, 271920, Note_on_c, 0, 74, 0
2, 271920, Note_on_c, 0, 86, 101
2, 271980, Note_on_c, 0, 86, 0
2, 271980, Note_on_c, 0, 74, 101
2, 272040, Note_on_c, 0, 74, 0
2, 272040, Note_on_c, 0, 86, 101
2, 272100, Note_on_c, 0, 86, 0
2, 272100, Note_on_c, 0, 74, 101
2, 272160, Note_on_c, 0, 74, 0
2, 272160, Note_on_c, 0, 86, 101
2, 272220, Note_on_c, 0, 86, 0
2, 272220, Note_on_c, 0, 74, 101
2, 272280, Note_on_c, 0, 74, 0
2, 272280, Note_on_c, 0, 86, 101
2, 272340, Note_on_c, 0, 86, 0
2, 272340, Note_on_c, 0, 74, 101
2, 272400, Note_on_c, 0, 74, 0
2, 272400, Note_on_c, 0, 86, 101
2, 272460, Note_on_c, 0, 86, 0
2, 272460, Note_on_c, 0, 74, 101
2, 272520, Note_on_c, 0, 74, 0
2, 272520, Note_on_c, 0, 86, 101
2, 272580, Note_on_c, 0, 86, 0
2, 272580, Control_c, 0, 64, 0
2, 272580, Note_on_c, 0, 74, 101
2, 272640, Note_on_c, 0, 74, 0
2, 272640, Note_on_c, 0, 74, 127
2, 272640, Note_on_c, 0, 86, 127
2, 276480, Note_on_c, 0, 86, 0
2, 276480, Note_on_c, 0, 74, 0
2, 276480, End_track
3, 0, Start_track
3, 0, Title_t, "Grand Piano"
3, 0, Program_c, 0, 0
3, 0, Control_c, 0, 7, 115
3, 0, Control_c, 0, 10, 79
3, 3840, Note_on_c, 0, 76, 49
3, 3840, Note_on_c, 0, 79, 49
3, 4800, Note_on_c, 0, 79, 0
3, 4800, Note_on_c, 0, 76, 0
3, 4800, Note_on_c, 0, 75, 62
3, 4800, Note_on_c, 0, 80, 62
3, 5760, Note_on_c, 0, 80, 0
3, 5760, Note_on_c, 0, 75, 0
3, 5760, Note_on_c, 0, 72, 88
3, 5760, Note_on_c, 0, 76, 88
3, 5760, Note_on_c, 0, 81, 88
3, 7440, Note_on_c, 0, 81, 0
3, 7440, Note_on_c, 0, 76, 0
3, 7440, Note_on_c, 0, 72, 0
3, 7440, Note_on_c, 0, 72, 62
3, 7440, Note_on_c, 0, 76, 62
3, 7680, Note_on_c, 0, 76, 0
3, 7680, Note_on_c, 0, 72, 0
3, 7680, Note_on_c, 0, 72, 49
3, 7680, Note_on_c, 0, 77, 49
3, 8640, Note_on_c, 0, 77, 0
3, 8640, Note_on_c, 0, 72, 0
3, 8640, Note_on_c, 0, 72, 62
3, 8640, Note_on_c, 0, 75, 62
3, 8640, Note_on_c, 0, 78, 62
3, 9600, Note_on_c, 0, 78, 0
3, 9600, Note_on_c, 0, 75, 0
3, 9600, Note_on_c, 0, 72, 0
3, 9600, Note_on_c, 0, 72, 88
3, 9600, Note_on_c, 0, 75, 88
3, 9600, Note_on_c, 0, 79, 88
3, 11280, Note_on_c, 0, 79, 0
3, 11280, Note_on_c, 0, 75, 0
3, 11280, Note_on_c, 0, 72, 0
3, 11280, Note_on_c, 0, 68, 62
3, 11280, Note_on_c, 0, 72, 62
3, 11280, Note_on_c, 0, 74, 62
3, 11520, Note_on_c, 0, 74, 0
3, 11520, Note_on_c, 0, 72, 0
3, 11520, Note_on_c, 0, 68, 0
3, 11520, Note_on_c, 0, 67, 49
3, 11520, Note_on_c, 0, 72, 49
3, 11520, Note_on_c, 0, 75, 49
3, 12480, Note_on_c, 0, 75, 0
3, 12480, Note_on_c, 0, 72, 0
3, 12480, Note_on_c, 0, 67, 0
3, 12480, Note_on_c, 0, 68, 62
3, 12480, Note_on_c, 0, 72, 62
3, 12480, Note_on_c, 0, 77, 62
3, 13440, Note_on_c, 0, 77, 0
3, 13440, Note_on_c, 0, 72, 0
3, 13440, Note_on_c, 0, 68, 0
3, 13440, Note_on_c, 0, 68, 62
3, 13440, Note_on_c, 0, 72, 62
3, 13440, Note_on_c, 0, 75, 62
3, 13440, Note_on_c, 0, 78, 62
3, 14400, Note_on_c, 0, 78, 0
3, 14400, Note_on_c, 0, 68, 0
3, 14400, Note_on_c, 0, 72, 0
3, 14400, Note_on_c, 0, 75, 0
3, 14400, Note_on_c, 0, 67, 62
3, 14400, Note_on_c, 0, 72, 62
3, 14400, Note_on_c, 0, 75, 62
3, 14400, Note_on_c, 0, 79, 62
3, 15360, Note_on_c, 0, 79, 0
3, 15360, Note_on_c, 0, 67, 0
3, 15360, Note_on_c, 0, 72, 0
3, 15360, Note_on_c, 0, 75, 0
3, 15360, Note_on_c, 0, 68, 62
3, 15360, Note_on_c, 0, 72, 62
3, 15360, Note_on_c, 0, 75, 62
3, 15360, Note_on_c, 0, 80, 62
3, 16320, Note_on_c, 0, 80, 0
3, 16320, Note_on_c, 0, 68, 0
3, 16320, Note_on_c, 0, 72, 0
3, 16320, Note_on_c, 0, 75, 0
3, 16320, Note_on_c, 0, 69, 75
3, 16320, Note_on_c, 0, 72, 75
3, 16320, Note_on_c, 0, 75, 75
3, 16320, Note_on_c, 0, 81, 75
3, 18240, Note_on_c, 0, 81, 0
3, 18240, Note_on_c, 0, 69, 0
3, 18240, Note_on_c, 0, 72, 0
3, 18240, Note_on_c, 0, 75, 0
3, 19200, Note_on_c, 0, 63, 62
3, 19247, Note_on_c, 0, 63, 0
3, 19440, Note_on_c, 0, 64, 62
3, 19487, Note_on_c, 0, 64, 0
3, 19680, Note_on_c, 0, 65, 88
3, 19740, Note_on_c, 0, 65, 0
3, 19740, Note_on_c, 0, 66, 62
3, 19800, Note_on_c, 0, 66, 0
3, 19800, Note_on_c, 0, 67, 62
3, 19860, Note_on_c, 0, 67, 0
3, 19860, Note_on_c, 0, 66, 62
3, 19920, Note_on_c, 0, 66, 0
3, 19920, Note_on_c, 0, 66, 62
3, 20040, Note_on_c, 0, 66, 0
3, 20040, Note_on_c, 0, 65, 62
3, 20040, Note_on_c, 0, 69, 62
3, 20040, Note_on_c, 0, 72, 62
3, 20063, Note_on_c, 0, 72, 0
3, 20063, Note_on_c, 0, 69, 0
3, 20063, Note_on_c, 0, 65, 0
3, 20160, Note_on_c, 0, 66, 62
3, 20183, Note_on_c, 0, 66, 0
3, 20280, Note_on_c, 0, 65, 62
3, 20280, Note_on_c, 0, 69, 62
3, 20280, Note_on_c, 0, 72, 62
3, 20303, Note_on_c, 0, 72, 0
3, 20303, Note_on_c, 0, 69, 0
3, 20303, Note_on_c, 0, 65, 0
3, 20400, Note_on_c, 0, 66, 62
3, 20423, Note_on_c, 0, 66, 0
3, 20520, Note_on_c, 0, 65, 62
3, 20520, Note_on_c, 0, 69, 62
3, 20520, Note_on_c, 0, 72, 62
3, 20543, Note_on_c, 0, 72, 0
3, 20543, Note_on_c, 0, 69, 0
3, 20543, Note_on_c, 0, 65, 0
3, 20640, Note_on_c, 0, 66, 62
3, 20663, Note_on_c, 0, 66, 0
3, 21120, Note_on_c, 0, 72, 88
3, 21120, Note_on_c, 0, 78, 88
3, 21840, Note_on_c, 0, 78, 0
3, 21840, Note_on_c, 0, 72, 0
3, 21840, Note_on_c, 0, 77, 62
3, 22080, Note_on_c, 0, 77, 0
3, 22080, Note_on_c, 0, 75, 62
3, 22560, Note_on_c, 0, 75, 0
3, 22560, Control_c, 0, 64, 127
3, 22560, Note_on_c, 0, 65, 62
3, 22620, Note_on_c, 0, 65, 0
3, 22620, Note_on_c, 0, 67, 62
3, 22680, Note_on_c, 0, 67, 0
3, 22680, Note_on_c, 0, 69, 62
3, 22740, Note_on_c, 0, 69, 0
3, 22740, Note_on_c, 0, 71, 62
3, 22800, Note_on_c, 0, 71, 0
3, 22800, Note_on_c, 0, 72, 62
3, 22860, Note_on_c, 0, 72, 0
3, 22860, Note_on_c, 0, 74, 62
3, 22920, Note_on_c, 0, 74, 0
3, 22920, Note_on_c, 0, 75, 62
3, 22980, Note_on_c, 0, 75, 0
3, 22980, Control_c, 0, 64, 0
3, 22980, Note_on_c, 0, 77, 62
3, 23040, Note_on_c, 0, 77, 0
3, 23040, Note_on_c, 0, 75, 49
3, 23040, Note_on_c, 0, 78, 49
3, 23087, Note_on_c, 0, 78, 0
3, 23087, Note_on_c, 0, 75, 0
3, 23280, Note_on_c, 0, 75, 49
3, 23280, Note_on_c, 0, 79, 49
3, 23327, Note_on_c, 0, 79, 0
3, 23327, Note_on_c, 0, 75, 0
3, 23520, Note_on_c, 0, 75, 75
3, 23520, Note_on_c, 0, 80, 75
3, 23580, Note_on_c, 0, 80, 0
3, 23580, Note_on_c, 0, 75, 0
3, 23580, Note_on_c, 0, 81, 49
3, 23640, Note_on_c, 0, 81, 0
3, 23640, Note_on_c, 0, 82, 49
3, 23700, Note_on_c, 0, 82, 0
3, 23700, Note_on_c, 0, 81, 49
3, 23760, Note_on_c, 0, 81, 0
3, 23760, Note_on_c, 0, 81, 49
3, 23880, Note_on_c, 0, 81, 0
3, 23880, Note_on_c, 0, 77, 49
3, 23880, Note_on_c, 0, 80, 49
3, 23880, Note_on_c, 0, 87, 49
3, 23903, Note_on_c, 0, 87, 0
3, 23903, Note_on_c, 0, 80, 0
3, 23903, Note_on_c, 0, 77, 0
3, 24000, Note_on_c, 0, 75, 49
3, 24000, Note_on_c, 0, 81, 49
3, 24023, Note_on_c, 0, 81, 0
3, 24023, Note_on_c, 0, 75, 0
3, 24120, Note_on_c, 0, 77, 49
3, 24120, Note_on_c, 0, 80, 49
3, 24120, Note_on_c, 0, 87, 49
3, 24143, Note_on_c, 0, 87, 0
3, 24143, Note_on_c, 0, 80, 0
3, 24143, Note_on_c, 0, 77, 0
3, 24240, Note_on_c, 0, 75, 49
3, 24240, Note_on_c, 0, 81, 49
3, 24263, Note_on_c, 0, 81, 0
3, 24263, Note_on_c, 0, 75, 0
3, 24360, Note_on_c, 0, 77, 49
3, 24360, Note_on_c, 0, 80, 49
3, 24360, Note_on_c, 0, 87, 49
3, 24383, Note_on_c, 0, 87, 0
3, 24383, Note_on_c, 0, 80, 0
3, 24383, Note_on_c, 0, 77, 0
3, 24480, Note_on_c, 0, 75, 49
3, 24480, Note_on_c, 0, 81, 49
3, 24503, Note_on_c, 0, 81, 0
3, 24503, Note_on_c, 0, 75, 0
3, 24960, Note_on_c, 0, 87, 88
3, 24960, Note_on_c, 0, 93, 88
3, 25680, Note_on_c, 0, 93, 0
3, 25680, Note_on_c, 0, 87, 0
3, 25680, Note_on_c, 0, 92, 62
3, 25920, Note_on_c, 0, 92, 0
3, 25920, Note_on_c, 0, 90, 49
3, 26640, Note_on_c, 0, 90, 0
3, 27280, Note_on_c, 0, 69, 62
3, 27320, Note_on_c, 0, 75, 62
3, 27360, Note_on_c, 0, 78, 62
3, 27760, Note_on_c, 0, 57, 62
3, 27800, Note_on_c, 0, 63, 62
3, 27840, Note_on_c, 0, 78, 0
3, 27840, Note_on_c, 0, 69, 0
3, 27840, Note_on_c, 0, 75, 0
3, 27840, Note_on_c, 0, 66, 62
3, 28240, Note_on_c, 0, 45, 62
3, 28280, Note_on_c, 0, 51, 62
3, 28320, Note_on_c, 0, 66, 0
3, 28320, Note_on_c, 0, 63, 0
3, 28320, Note_on_c, 0, 57, 0
3, 28320, Note_on_c, 0, 54, 62
3, 28800, Note_on_c, 0, 54, 0
3, 28800, Note_on_c, 0, 45, 0
3, 28800, Note_on_c, 0, 51, 0
3, 29200, Note_on_c, 0, 66, 62
3, 29240, Note_on_c, 0, 69, 62
3, 29280, Note_on_c, 0, 75, 62
3, 29680, Note_on_c, 0, 54, 62
3, 29720, Note_on_c, 0, 57, 62
3, 29760, Note_on_c, 0, 75, 0
3, 29760, Note_on_c, 0, 66, 0
3, 29760, Note_on_c, 0, 69, 0
3, 29760, Note_on_c, 0, 63, 62
3, 30160, Note_on_c, 0, 42, 62
3, 30200, Note_on_c, 0, 45, 62
3, 30240, Note_on_c, 0, 63, 0
3, 30240, Note_on_c, 0, 57, 0
3, 30240, Note_on_c, 0, 54, 0
3, 30240, Note_on_c, 0, 51, 62
3, 30720, Note_on_c, 0, 51, 0
3, 30720, Note_on_c, 0, 42, 0
3, 30720, Note_on_c, 0, 45, 0
3, 31120, Note_on_c, 0, 63, 62
3, 31160, Note_on_c, 0, 66, 62
3, 31200, Note_on_c, 0, 69, 62
3, 31600, Note_on_c, 0, 51, 62
3, 31640, Note_on_c, 0, 54, 62
3, 31680, Note_on_c, 0, 69, 0
3, 31680, Note_on_c, 0, 63, 0
3, 31680, Note_on_c, 0, 66, 0
3, 31680, Note_on_c, 0, 57, 62
3, 32080, Note_on_c, 0, 39, 62
3, 32120, Note_on_c, 0, 42, 62
3, 32160, Note_on_c, 0, 57, 0
3, 32160, Note_on_c, 0, 54, 0
3, 32160, Note_on_c, 0, 51, 0
3, 32160, Note_on_c, 0, 45, 62
3, 32640, Note_on_c, 0, 45, 0
3, 32640, Note_on_c, 0, 39, 0
3, 32640, Note_on_c, 0, 42, 0
3, 33040, Note_on_c, 0, 63, 49
3, 33080, Note_on_c, 0, 66, 49
3, 33120, Note_on_c, 0, 69, 49
3, 33520, Note_on_c, 0, 51, 49
3, 33560, Note_on_c, 0, 54, 49
3, 33600, Note_on_c, 0, 69, 0
3, 33600, Note_on_c, 0, 63, 0
3, 33600, Note_on_c, 0, 66, 0
3, 33600, Note_on_c, 0, 57, 49
3, 34000, Note_on_c, 0, 39, 49
3, 34040, Note_on_c, 0, 42, 49
3, 34080, Note_on_c, 0, 57, 0
3, 34080, Note_on_c, 0, 54, 0
3, 34080, Note_on_c, 0, 51, 0
3, 34080, Note_on_c, 0, 45, 49
3, 34560, Note_on_c, 0, 45, 0
3, 34560, Note_on_c, 0, 39, 0
3, 34560, Note_on_c, 0, 42, 0
3, 35199, Note_on_c, 0, 67, 49
3, 35360, Note_on_c, 0, 67, 0
3, 35360, Note_on_c, 0, 64, 49
3, 35520, Note_on_c, 0, 64, 0
3, 35520, Note_on_c, 0, 64, 49
3, 35679, Note_on_c, 0, 64, 0
3, 35679, Note_on_c, 0, 62, 49
3, 35840, Note_on_c, 0, 62, 0
3, 35840, Note_on_c, 0, 60, 49
3, 36000, Note_on_c, 0, 60, 0
3, 36000, Note_on_c, 0, 62, 49
3, 36159, Note_on_c, 0, 62, 0
3, 36159, Note_on_c, 0, 64, 49
3, 36320, Note_on_c, 0, 64, 0
3, 36320, Note_on_c, 0, 65, 49
3, 36480, Note_on_c, 0, 65, 0
3, 36480, Note_on_c, 0, 67, 49
3, 37440, Note_on_c, 0, 67, 0
3, 37599, Note_on_c, 0, 68, 62
3, 37760, Note_on_c, 0, 68, 0
3, 37760, Note_on_c, 0, 70, 62
3, 37920, Note_on_c, 0, 70, 0
3, 37920, Note_on_c, 0, 72, 62
3, 38079, Note_on_c, 0, 72, 0
3, 38079, Note_on_c, 0, 70, 62
3, 38240, Note_on_c, 0, 70, 0
3, 38240, Note_on_c, 0, 68, 62
3, 38400, Note_on_c, 0, 68, 0
3, 38400, Note_on_c, 0, 67, 49
3, 38760, Note_on_c, 0, 67, 0
3, 38760, Note_on_c, 0, 64, 49
3, 38880, Note_on_c, 0, 64, 0
3, 38880, Note_on_c, 0, 64, 49
3, 39840, Note_on_c, 0, 64, 0
3, 39840, Note_on_c, 0, 76, 49
3, 39840, Note_on_c, 0, 79, 49
3, 40200, Note_on_c, 0, 79, 0
3, 40200, Note_on_c, 0, 76, 0
3, 40200, Note_on_c, 0, 72, 49
3, 40200, Note_on_c, 0, 76, 49
3, 40320, Note_on_c, 0, 76, 0
3, 40320, Note_on_c, 0, 72, 0
3, 40320, Note_on_c, 0, 72, 49
3, 40320, Note_on_c, 0, 76, 49
3, 41040, Note_on_c, 0, 76, 0
3, 41040, Note_on_c, 0, 72, 0
3, 42240, Note_on_c, 0, 72, 49
3, 42240, Note_on_c, 0, 75, 49
3, 43200, Note_on_c, 0, 75, 0
3, 43200, Note_on_c, 0, 72, 0
3, 43200, Note_on_c, 0, 72, 49
3, 43200, Note_on_c, 0, 76, 49
3, 44160, Note_on_c, 0, 76, 0
3, 44160, Note_on_c, 0, 72, 0
3, 44160, Note_on_c, 0, 72, 62
3, 44160, Note_on_c, 0, 77, 62
3, 45840, Note_on_c, 0, 77, 0
3, 45840, Note_on_c, 0, 72, 0
3, 45840, Note_on_c, 0, 72, 62
3, 46080, Note_on_c, 0, 72, 0
3, 46080, Note_on_c, 0, 69, 49
3, 46080, Note_on_c, 0, 72, 49
3, 46080, Note_on_c, 0, 74, 49
3, 47040, Note_on_c, 0, 74, 0
3, 47040, Note_on_c, 0, 72, 0
3, 47040, Note_on_c, 0, 69, 0
3, 47040, Note_on_c, 0, 69, 49
3, 47040, Note_on_c, 0, 72, 49
3, 47040, Note_on_c, 0, 75, 49
3, 48000, Note_on_c, 0, 75, 0
3, 48000, Note_on_c, 0, 72, 0
3, 48000, Note_on_c, 0, 69, 0
3, 48000, Note_on_c, 0, 69, 62
3, 48000, Note_on_c, 0, 72, 62
3, 48000, Note_on_c, 0, 76, 62
3, 49680, Note_on_c, 0, 76, 0
3, 49680, Note_on_c, 0, 72, 0
3, 49680, Note_on_c, 0, 69, 0
3, 49680, Note_on_c, 0, 69, 49
3, 49920, Note_on_c, 0, 69, 0
3, 49920, Note_on_c, 0, 67, 49
3, 49920, Note_on_c, 0, 70, 49
3, 50880, Note_on_c, 0, 70, 0
3, 50880, Note_on_c, 0, 67, 0
3, 50880, Note_on_c, 0, 66, 49
3, 50880, Note_on_c, 0, 68, 49
3, 50880, Note_on_c, 0, 72, 49
3, 51840, Note_on_c, 0, 72, 0
3, 51840, Note_on_c, 0, 68, 0
3, 51840, Note_on_c, 0, 66, 0
3, 51840, Note_on_c, 0, 65, 62
3, 51840, Note_on_c, 0, 68, 62
3, 51840, Note_on_c, 0, 72, 62
3, 51840, Note_on_c, 0, 74, 62
3, 52800, Note_on_c, 0, 74, 0
3, 52800, Note_on_c, 0, 65, 0
3, 52800, Note_on_c, 0, 68, 0
3, 52800, Note_on_c, 0, 72, 0
3, 52800, Note_on_c, 0, 63, 62
3, 52800, Note_on_c, 0, 67, 62
3, 52800, Note_on_c, 0, 72, 62
3, 52800, Note_on_c, 0, 75, 62
3, 53760, Note_on_c, 0, 75, 0
3, 53760, Note_on_c, 0, 63, 0
3, 53760, Note_on_c, 0, 67, 0
3, 53760, Note_on_c, 0, 72, 0
3, 53760, Note_on_c, 0, 64, 75
3, 53760, Note_on_c, 0, 68, 75
3, 53760, Note_on_c, 0, 72, 75
3, 53760, Note_on_c, 0, 76, 75
3, 54720, Note_on_c, 0, 76, 0
3, 54720, Note_on_c, 0, 64, 0
3, 54720, Note_on_c, 0, 68, 0
3, 54720, Note_on_c, 0, 72, 0
3, 54720, Note_on_c, 0, 65, 75
3, 54720, Note_on_c, 0, 69, 75
3, 54720, Note_on_c, 0, 72, 75
3, 54720, Note_on_c, 0, 77, 75
3, 55680, Note_on_c, 0, 77, 0
3, 55680, Note_on_c, 0, 65, 0
3, 55680, Note_on_c, 0, 69, 0
3, 55680, Note_on_c, 0, 72, 0
3, 57600, Note_on_c, 0, 65, 49
3, 57647, Note_on_c, 0, 65, 0
3, 57840, Note_on_c, 0, 66, 49
3, 57887, Note_on_c, 0, 66, 0
3, 58080, Note_on_c, 0, 67, 75
3, 58140, Note_on_c, 0, 67, 0
3, 58140, Note_on_c, 0, 68, 49
3, 58200, Note_on_c, 0, 68, 0
3, 58200, Note_on_c, 0, 70, 49
3, 58260, Note_on_c, 0, 70, 0
3, 58260, Note_on_c, 0, 68, 49
3, 58320, Note_on_c, 0, 68, 0
3, 58320, Note_on_c, 0, 68, 49
3, 58440, Note_on_c, 0, 68, 0
3, 58440, Note_on_c, 0, 69, 49
3, 58440, Note_on_c, 0, 75, 49
3, 58463, Note_on_c, 0, 75, 0
3, 58463, Note_on_c, 0, 69, 0
3, 58560, Note_on_c, 0, 68, 49
3, 58583, Note_on_c, 0, 68, 0
3, 58680, Note_on_c, 0, 69, 49
3, 58680, Note_on_c, 0, 75, 49
3, 58703, Note_on_c, 0, 75, 0
3, 58703, Note_on_c, 0, 69, 0
3, 58800, Note_on_c, 0, 68, 49
3, 58823, Note_on_c, 0, 68, 0
3, 58920, Note_on_c, 0, 69, 49
3, 58920, Note_on_c, 0, 75, 49
3, 58943, Note_on_c, 0, 75, 0
3, 58943, Note_on_c, 0, 69, 0
3, 59040, Note_on_c, 0, 68, 49
3, 59063, Note_on_c, 0, 68, 0
3, 59520, Note_on_c, 0, 75, 88
3, 59520, Note_on_c, 0, 80, 88
3, 60240, Note_on_c, 0, 80, 0
3, 60240, Note_on_c, 0, 75, 0
3, 60240, Note_on_c, 0, 79, 62
3, 60480, Note_on_c, 0, 79, 0
3, 60480, Note_on_c, 0, 78, 49
3, 61200, Note_on_c, 0, 78, 0
3, 61440, Note_on_c, 0, 63, 49
3, 61487, Note_on_c, 0, 63, 0
3, 61680, Note_on_c, 0, 64, 49
3, 61727, Note_on_c, 0, 64, 0
3, 61920, Note_on_c, 0, 65, 75
3, 61980, Note_on_c, 0, 65, 0
3, 61980, Note_on_c, 0, 66, 49
3, 62040, Note_on_c, 0, 66, 0
3, 62040, Note_on_c, 0, 68, 49
3, 62100, Note_on_c, 0, 68, 0
3, 62100, Note_on_c, 0, 66, 49
3, 62160, Note_on_c, 0, 66, 0
3, 62160, Note_on_c, 0, 66, 49
3, 62280, Note_on_c, 0, 66, 0
3, 62280, Note_on_c, 0, 65, 49
3, 62280, Note_on_c, 0, 72, 49
3, 62400, Note_on_c, 0, 72, 0
3, 62400, Note_on_c, 0, 65, 0
3, 62400, Note_on_c, 0, 66, 49
3, 62423, Note_on_c, 0, 66, 0
3, 62520, Note_on_c, 0, 65, 49
3, 62520, Note_on_c, 0, 72, 49
3, 62543, Note_on_c, 0, 72, 0
3, 62543, Note_on_c, 0, 65, 0
3, 62640, Note_on_c, 0, 66, 49
3, 62663, Note_on_c, 0, 66, 0
3, 62760, Note_on_c, 0, 65, 49
3, 62760, Note_on_c, 0, 72, 49
3, 62783, Note_on_c, 0, 72, 0
3, 62783, Note_on_c, 0, 65, 0
3, 62880, Note_on_c, 0, 66, 49
3, 62903, Note_on_c, 0, 66, 0
3, 63360, Note_on_c, 0, 84, 88
3, 63360, Note_on_c, 0, 90, 88
3, 64080, Note_on_c, 0, 90, 0
3, 64080, Note_on_c, 0, 84, 0
3, 64080, Note_on_c, 0, 89, 62
3, 64320, Note_on_c, 0, 89, 0
3, 64320, Note_on_c, 0, 87, 49
3, 65040, Note_on_c, 0, 87, 0
3, 65670, Note_on_c, 0, 81, 75
3, 65700, Note_on_c, 0, 84, 75
3, 65730, Note_on_c, 0, 87, 75
3, 65760, Note_on_c, 0, 90, 75
3, 66150, Note_on_c, 0, 69, 75
3, 66180, Note_on_c, 0, 72, 75
3, 66210, Note_on_c, 0, 75, 75
3, 66240, Note_on_c, 0, 90, 0
3, 66240, Note_on_c, 0, 87, 0
3, 66240, Note_on_c, 0, 81, 0
3, 66240, Note_on_c, 0, 84, 0
3, 66240, Note_on_c, 0, 78, 75
3, 66630, Note_on_c, 0, 57, 75
3, 66660, Note_on_c, 0, 60, 75
3, 66690, Note_on_c, 0, 63, 75
3, 66720, Note_on_c, 0, 78, 0
3, 66720, Note_on_c, 0, 75, 0
3, 66720, Note_on_c, 0, 72, 0
3, 66720, Note_on_c, 0, 69, 0
3, 66720, Note_on_c, 0, 66, 75
3, 67200, Note_on_c, 0, 66, 0
3, 67200, Note_on_c, 0, 60, 0
3, 67200, Note_on_c, 0, 57, 0
3, 67200, Note_on_c, 0, 63, 0
3, 67590, Note_on_c, 0, 78, 75
3, 67620, Note_on_c, 0, 81, 75
3, 67650, Note_on_c, 0, 84, 75
3, 67680, Note_on_c, 0, 87, 75
3, 68070, Note_on_c, 0, 66, 75
3, 68100, Note_on_c, 0, 69, 75
3, 68130, Note_on_c, 0, 72, 75
3, 68160, Note_on_c, 0, 87, 0
3, 68160, Note_on_c, 0, 84, 0
3, 68160, Note_on_c, 0, 78, 0
3, 68160, Note_on_c, 0, 81, 0
3, 68160, Note_on_c, 0, 75, 75
3, 68550, Note_on_c, 0, 54, 75
3, 68580, Note_on_c, 0, 57, 75
3, 68610, Note_on_c, 0, 60, 75
3, 68640, Note_on_c, 0, 75, 0
3, 68640, Note_on_c, 0, 72, 0
3, 68640, Note_on_c, 0, 69, 0
3, 68640, Note_on_c, 0, 66, 0
3, 68640, Note_on_c, 0, 63, 75
3, 69120, Note_on_c, 0, 63, 0
3, 69120, Note_on_c, 0, 57, 0
3, 69120, Note_on_c, 0, 54, 0
3, 69120, Note_on_c, 0, 60, 0
3, 69510, Note_on_c, 0, 75, 62
3, 69540, Note_on_c, 0, 78, 62
3, 69570, Note_on_c, 0, 80, 62
3, 69600, Note_on_c, 0, 84, 62
3, 69990, Note_on_c, 0, 63, 62
3, 70020, Note_on_c, 0, 66, 62
3, 70050, Note_on_c, 0, 68, 62
3, 70080, Note_on_c, 0, 84, 0
3, 70080, Note_on_c, 0, 80, 0
3, 70080, Note_on_c, 0, 75, 0
3, 70080, Note_on_c, 0, 78, 0
3, 70080, Note_on_c, 0, 72, 62
3, 70470, Note_on_c, 0, 51, 62
3, 70500, Note_on_c, 0, 54, 62
3, 70530, Note_on_c, 0, 56, 62
3, 70560, Note_on_c, 0, 72, 0
3, 70560, Note_on_c, 0, 68, 0
3, 70560, Note_on_c, 0, 66, 0
3, 70560, Note_on_c, 0, 63, 0
3, 70560, Note_on_c, 0, 60, 62
3, 71040, Note_on_c, 0, 60, 0
3, 71040, Note_on_c, 0, 54, 0
3, 71040, Note_on_c, 0, 51, 0
3, 71040, Note_on_c, 0, 56, 0
3, 71430, Note_on_c, 0, 76, 49
3, 71460, Note_on_c, 0, 79, 49
3, 71490, Note_on_c, 0, 82, 49
3, 71520, Note_on_c, 0, 84, 49
3, 71910, Note_on_c, 0, 64, 49
3, 71940, Note_on_c, 0, 67, 49
3, 71970, Note_on_c, 0, 70, 49
3, 72000, Note_on_c, 0, 84, 0
3, 72000, Note_on_c, 0, 82, 0
3, 72000, Note_on_c, 0, 76, 0
3, 72000, Note_on_c, 0, 79, 0
3, 72000, Note_on_c, 0, 72, 49
3, 72390, Note_on_c, 0, 52, 49
3, 72420, Note_on_c, 0, 55, 49
3, 72450, Note_on_c, 0, 58, 49
3, 72480, Note_on_c, 0, 72, 0
3, 72480, Note_on_c, 0, 70, 0
3, 72480, Note_on_c, 0, 67, 0
3, 72480, Note_on_c, 0, 64, 0
3, 72480, Note_on_c, 0, 60, 49
3, 72960, Note_on_c, 0, 60, 0
3, 72960, Note_on_c, 0, 55, 0
3, 72960, Note_on_c, 0, 52, 0
3, 72960, Note_on_c, 0, 58, 0
3, 73599, Note_on_c, 0, 72, 62
3, 73760, Note_on_c, 0, 72, 0
3, 73760, Note_on_c, 0, 69, 62
3, 73920, Note_on_c, 0, 69, 0
3, 73920, Note_on_c, 0, 69, 62
3, 74079, Note_on_c, 0, 69, 0
3, 74079, Note_on_c, 0, 67, 62
3, 74240, Note_on_c, 0, 67, 0
3, 74240, Note_on_c, 0, 66, 62
3, 74400, Note_on_c, 0, 66, 0
3, 74400, Note_on_c, 0, 67, 62
3, 74559, Note_on_c, 0, 67, 0
3, 74559, Note_on_c, 0, 69, 62
3, 74720, Note_on_c, 0, 69, 0
3, 74720, Note_on_c, 0, 70, 62
3, 74880, Note_on_c, 0, 70, 0
3, 74880, Note_on_c, 0, 72, 62
3, 75840, Note_on_c, 0, 72, 0
3, 75999, Note_on_c, 0, 74, 75
3, 76160, Note_on_c, 0, 74, 0
3, 76160, Note_on_c, 0, 76, 75
3, 76320, Note_on_c, 0, 76, 0
3, 76320, Note_on_c, 0, 77, 75
3, 76479, Note_on_c, 0, 77, 0
3, 76479, Note_on_c, 0, 76, 75
3, 76640, Note_on_c, 0, 76, 0
3, 76640, Note_on_c, 0, 74, 62
3, 76800, Note_on_c, 0, 74, 0
3, 76800, Note_on_c, 0, 60, 88
3, 76800, Note_on_c, 0, 72, 88
3, 77160, Note_on_c, 0, 72, 0
3, 77160, Note_on_c, 0, 60, 0
3, 77160, Note_on_c, 0, 69, 62
3, 77280, Note_on_c, 0, 69, 0
3, 77280, Note_on_c, 0, 69, 62
3, 78000, Note_on_c, 0, 69, 0
3, 78240, Note_on_c, 0, 81, 49
3, 78240, Note_on_c, 0, 84, 49
3, 78600, Note_on_c, 0, 84, 0
3, 78600, Note_on_c, 0, 81, 0
3, 78600, Note_on_c, 0, 77, 49
3, 78600, Note_on_c, 0, 81, 49
3, 78720, Note_on_c, 0, 81, 0
3, 78720, Note_on_c, 0, 77, 0
3, 78720, Note_on_c, 0, 77, 49
3, 78720, Note_on_c, 0, 81, 49
3, 79350, Note_on_c, 0, 72, 49
3, 79380, Note_on_c, 0, 77, 49
3, 79410, Note_on_c, 0, 81, 49
3, 79440, Note_on_c, 0, 81, 0
3, 79440, Note_on_c, 0, 77, 0
3, 79440, Note_on_c, 0, 84, 49
3, 79590, Note_on_c, 0, 77, 49
3, 79620, Note_on_c, 0, 81, 49
3, 79650, Note_on_c, 0, 84, 49
3, 79680, Note_on_c, 0, 84, 0
3, 79680, Note_on_c, 0, 77, 0
3, 79680, Note_on_c, 0, 81, 0
3, 79680, Note_on_c, 0, 72, 0
3, 79680, Note_on_c, 0, 89, 49
3, 79920, Note_on_c, 0, 89, 0
3, 79920, Note_on_c, 0, 81, 0
3, 79920, Note_on_c, 0, 77, 0
3, 79920, Note_on_c, 0, 84, 0
3, 80160, Note_on_c, 0, 72, 49
3, 81120, Note_on_c, 0, 72, 0
3, 81120, Note_on_c, 0, 72, 49
3, 82080, Note_on_c, 0, 72, 0
3, 82080, Note_on_c, 0, 72, 49
3, 83040, Note_on_c, 0, 72, 0
3, 83040, Note_on_c, 0, 70, 75
3, 83400, Note_on_c, 0, 70, 0
3, 83400, Note_on_c, 0, 68, 75
3, 83520, Note_on_c, 0, 68, 0
3, 83520, Note_on_c, 0, 67, 75
3, 84000, Note_on_c, 0, 67, 0
3, 84000, Note_on_c, 0, 65, 75
3, 84360, Note_on_c, 0, 65, 0
3, 84360, Note_on_c, 0, 63, 75
3, 84480, Note_on_c, 0, 63, 0
3, 84480, Note_on_c, 0, 63, 101
3, 84960, Note_on_c, 0, 63, 0
3, 84960, Note_on_c, 0, 62, 75
3, 85320, Note_on_c, 0, 62, 0
3, 85320, Note_on_c, 0, 60, 75
3, 85440, Note_on_c, 0, 60, 0
3, 85440, Note_on_c, 0, 60, 101
3, 85440, Note_on_c, 0, 63, 101
3, 85920, Note_on_c, 0, 63, 0
3, 85920, Note_on_c, 0, 60, 0
3, 85920, Note_on_c, 0, 64, 75
3, 86160, Note_on_c, 0, 64, 0
3, 86160, Note_on_c, 0, 58, 75
3, 86400, Note_on_c, 0, 58, 0
3, 86400, Note_on_c, 0, 58, 75
3, 86400, Note_on_c, 0, 65, 75
3, 86640, Note_on_c, 0, 65, 0
3, 86640, Note_on_c, 0, 58, 0
3, 86640, Note_on_c, 0, 55, 75
3, 86880, Note_on_c, 0, 55, 0
3, 86880, Note_on_c, 0, 58, 75
3, 87240, Note_on_c, 0, 58, 0
3, 87240, Note_on_c, 0, 56, 62
3, 87360, Note_on_c, 0, 56, 0
3, 87360, Note_on_c, 0, 56, 62
3, 87600, Note_on_c, 0, 56, 0
3, 87840, Note_on_c, 0, 72, 49
3, 88320, Note_on_c, 0, 65, 49
3, 88800, Note_on_c, 0, 65, 0
3, 88800, Note_on_c, 0, 72, 0
3, 88800, Note_on_c, 0, 72, 49
3, 89280, Note_on_c, 0, 72, 0
3, 89280, Note_on_c, 0, 64, 49
3, 89760, Note_on_c, 0, 64, 0
3, 89760, Note_on_c, 0, 72, 49
3, 90240, Note_on_c, 0, 63, 49
3, 90720, Note_on_c, 0, 63, 0
3, 90720, Note_on_c, 0, 72, 0
3, 90720, Note_on_c, 0, 70, 88
3, 91080, Note_on_c, 0, 70, 0
3, 91080, Note_on_c, 0, 68, 62
3, 91200, Note_on_c, 0, 68, 0
3, 91200, Note_on_c, 0, 63, 62
3, 91200, Note_on_c, 0, 68, 62
3, 91680, Note_on_c, 0, 68, 0
3, 91680, Note_on_c, 0, 63, 0
3, 91680, Note_on_c, 0, 67, 62
3, 92040, Note_on_c, 0, 67, 0
3, 92040, Note_on_c, 0, 65, 62
3, 92160, Note_on_c, 0, 65, 0
3, 92160, Note_on_c, 0, 60, 62
3, 92160, Note_on_c, 0, 65, 62
3, 92640, Note_on_c, 0, 65, 0
3, 92640, Note_on_c, 0, 60, 0
3, 92640, Note_on_c, 0, 63, 62
3, 93000, Note_on_c, 0, 63, 0
3, 93000, Note_on_c, 0, 62, 62
3, 93120, Note_on_c, 0, 62, 0
3, 93120, Note_on_c, 0, 63, 88
3, 93600, Note_on_c, 0, 63, 0
3, 93600, Note_on_c, 0, 64, 62
3, 93840, Note_on_c, 0, 64, 0
3, 93840, Note_on_c, 0, 58, 62
3, 94080, Note_on_c, 0, 58, 0
3, 94080, Note_on_c, 0, 58, 62
3, 94080, Note_on_c, 0, 65, 62
3, 94320, Note_on_c, 0, 65, 0
3, 94320, Note_on_c, 0, 58, 0
3, 94320, Note_on_c, 0, 56, 62
3, 94560, Note_on_c, 0, 56, 0
3, 94560, Note_on_c, 0, 58, 62
3, 94920, Note_on_c, 0, 58, 0
3, 94920, Note_on_c, 0, 57, 62
3, 95040, Note_on_c, 0, 57, 0
3, 95040, Note_on_c, 0, 57, 62
3, 95280, Note_on_c, 0, 57, 0
3, 96000, Note_on_c, 0, 60, 49
3, 96240, Note_on_c, 0, 60, 0
3, 96639, Note_on_c, 0, 56, 49
3, 96800, Note_on_c, 0, 56, 0
3, 96800, Note_on_c, 0, 57, 49
3, 96960, Note_on_c, 0, 57, 0
3, 96960, Note_on_c, 0, 69, 49
3, 97200, Note_on_c, 0, 69, 0
3, 97599, Note_on_c, 0, 64, 62
3, 97760, Note_on_c, 0, 64, 0
3, 97760, Note_on_c, 0, 65, 62
3, 97920, Note_on_c, 0, 65, 0
3, 97920, Note_on_c, 0, 69, 62
3, 98160, Note_on_c, 0, 69, 0
3, 98559, Note_on_c, 0, 68, 62
3, 98720, Note_on_c, 0, 68, 0
3, 98720, Note_on_c, 0, 69, 62
3, 98880, Note_on_c, 0, 69, 0
3, 98880, Note_on_c, 0, 72, 62
3, 99120, Note_on_c, 0, 72, 0
3, 99519, Note_on_c, 0, 52, 49
3, 99680, Note_on_c, 0, 52, 0
3, 99680, Note_on_c, 0, 53, 49
3, 99840, Note_on_c, 0, 53, 0
3, 99840, Note_on_c, 0, 60, 49
3, 100080, Note_on_c, 0, 60, 0
3, 100479, Note_on_c, 0, 65, 62
3, 100640, Note_on_c, 0, 65, 0
3, 100640, Note_on_c, 0, 66, 62
3, 100800, Note_on_c, 0, 66, 0
3, 100800, Note_on_c, 0, 72, 62
3, 101040, Note_on_c, 0, 72, 0
3, 101439, Note_on_c, 0, 64, 62
3, 101600, Note_on_c, 0, 64, 0
3, 101600, Note_on_c, 0, 65, 62
3, 101760, Note_on_c, 0, 65, 0
3, 101760, Note_on_c, 0, 72, 62
3, 102000, Note_on_c, 0, 72, 0
3, 102399, Note_on_c, 0, 77, 49
3, 102560, Note_on_c, 0, 77, 0
3, 102560, Note_on_c, 0, 78, 49
3, 102720, Note_on_c, 0, 78, 0
3, 102720, Note_on_c, 0, 84, 49
3, 102879, Note_on_c, 0, 84, 0
3, 102879, Note_on_c, 0, 80, 49
3, 103040, Note_on_c, 0, 80, 0
3, 103040, Note_on_c, 0, 81, 49
3, 103200, Note_on_c, 0, 81, 0
3, 103200, Note_on_c, 0, 93, 49
3, 103359, Note_on_c, 0, 93, 0
3, 103359, Note_on_c, 0, 81, 49
3, 103520, Note_on_c, 0, 81, 0
3, 103520, Note_on_c, 0, 93, 49
3, 103680, Note_on_c, 0, 93, 0
3, 103680, Note_on_c, 0, 76, 49
3, 104160, Note_on_c, 0, 76, 0
3, 104160, Note_on_c, 0, 76, 62
3, 105120, Note_on_c, 0, 76, 0
3, 105120, Note_on_c, 0, 76, 62
3, 106080, Note_on_c, 0, 76, 0
3, 106080, Note_on_c, 0, 74, 62
3, 106440, Note_on_c, 0, 74, 0
3, 106440, Note_on_c, 0, 72, 62
3, 106560, Note_on_c, 0, 72, 0
3, 106560, Note_on_c, 0, 72, 88
3, 107040, Note_on_c, 0, 72, 0
3, 107040, Note_on_c, 0, 71, 62
3, 107400, Note_on_c, 0, 71, 0
3, 107400, Note_on_c, 0, 69, 62
3, 107520, Note_on_c, 0, 69, 0
3, 107520, Note_on_c, 0, 67, 88
3, 108000, Note_on_c, 0, 67, 0
3, 108000, Note_on_c, 0, 65, 62
3, 108360, Note_on_c, 0, 65, 0
3, 108360, Note_on_c, 0, 64, 62
3, 108480, Note_on_c, 0, 64, 0
3, 108480, Note_on_c, 0, 64, 88
3, 109200, Note_on_c, 0, 64, 0
3, 109200, Note_on_c, 0, 62, 62
3, 109440, Note_on_c, 0, 62, 0
3, 109440, Note_on_c, 0, 60, 62
3, 109680, Note_on_c, 0, 60, 0
3, 109680, Note_on_c, 0, 62, 62
3, 109920, Note_on_c, 0, 62, 0
3, 109920, Note_on_c, 0, 64, 62
3, 110280, Note_on_c, 0, 64, 0
3, 110280, Note_on_c, 0, 69, 62
3, 110400, Note_on_c, 0, 69, 0
3, 110400, Note_on_c, 0, 64, 62
3, 110880, Note_on_c, 0, 64, 0
3, 110880, Note_on_c, 0, 76, 49
3, 111840, Note_on_c, 0, 76, 0
3, 111840, Note_on_c, 0, 76, 49
3, 112800, Note_on_c, 0, 76, 0
3, 112800, Note_on_c, 0, 76, 62
3, 113760, Note_on_c, 0, 76, 0
3, 113760, Note_on_c, 0, 74, 62
3, 114120, Note_on_c, 0, 74, 0
3, 114120, Note_on_c, 0, 72, 62
3, 114240, Note_on_c, 0, 72, 0
3, 114240, Note_on_c, 0, 72, 88
3, 114720, Note_on_c, 0, 72, 0
3, 114720, Note_on_c, 0, 71, 62
3, 115080, Note_on_c, 0, 71, 0
3, 115080, Note_on_c, 0, 69, 62
3, 115200, Note_on_c, 0, 69, 0
3, 115200, Note_on_c, 0, 69, 88
3, 115680, Note_on_c, 0, 69, 0
3, 115680, Note_on_c, 0, 67, 62
3, 116040, Note_on_c, 0, 67, 0
3, 116040, Note_on_c, 0, 66, 62
3, 116160, Note_on_c, 0, 66, 0
3, 116160, Note_on_c, 0, 65, 88
3, 116640, Note_on_c, 0, 65, 0
3, 116640, Note_on_c, 0, 64, 62
3, 117000, Note_on_c, 0, 64, 0
3, 117000, Note_on_c, 0, 62, 62
3, 117120, Note_on_c, 0, 62, 0
3, 117120, Note_on_c, 0, 60, 62
3, 117360, Note_on_c, 0, 60, 0
3, 117360, Note_on_c, 0, 62, 62
3, 117600, Note_on_c, 0, 62, 0
3, 117600, Note_on_c, 0, 64, 62
3, 117960, Note_on_c, 0, 64, 0
3, 117960, Note_on_c, 0, 67, 62
3, 118080, Note_on_c, 0, 67, 0
3, 118080, Note_on_c, 0, 64, 62
3, 118320, Note_on_c, 0, 64, 0
3, 118719, Note_on_c, 0, 54, 62
3, 118880, Note_on_c, 0, 54, 0
3, 118880, Note_on_c, 0, 55, 62
3, 119040, Note_on_c, 0, 55, 0
3, 119040, Note_on_c, 0, 64, 62
3, 119679, Note_on_c, 0, 64, 0
3, 119679, Note_on_c, 0, 63, 62
3, 119840, Note_on_c, 0, 63, 0
3, 119840, Note_on_c, 0, 64, 62
3, 120000, Note_on_c, 0, 64, 0
3, 120000, Note_on_c, 0, 70, 62
3, 120240, Note_on_c, 0, 70, 0
3, 120639, Note_on_c, 0, 66, 62
3, 120800, Note_on_c, 0, 66, 0
3, 120800, Note_on_c, 0, 67, 62
3, 120960, Note_on_c, 0, 67, 0
3, 120960, Note_on_c, 0, 76, 62
3, 121599, Note_on_c, 0, 76, 0
3, 121599, Note_on_c, 0, 75, 62
3, 121760, Note_on_c, 0, 75, 0
3, 121760, Note_on_c, 0, 76, 62
3, 121920, Note_on_c, 0, 76, 0
3, 121920, Note_on_c, 0, 82, 62
3, 122160, Note_on_c, 0, 82, 0
3, 122559, Note_on_c, 0, 52, 62
3, 122720, Note_on_c, 0, 52, 0
3, 122720, Note_on_c, 0, 53, 62
3, 122880, Note_on_c, 0, 53, 0
3, 122880, Note_on_c, 0, 60, 62
3, 123120, Note_on_c, 0, 60, 0
3, 123519, Note_on_c, 0, 55, 62
3, 123680, Note_on_c, 0, 55, 0
3, 123680, Note_on_c, 0, 56, 62
3, 123840, Note_on_c, 0, 56, 0
3, 123840, Note_on_c, 0, 68, 62
3, 124320, Note_on_c, 0, 68, 0
3, 124479, Note_on_c, 0, 64, 62
3, 124640, Note_on_c, 0, 64, 0
3, 124640, Note_on_c, 0, 65, 62
3, 124800, Note_on_c, 0, 65, 0
3, 124800, Note_on_c, 0, 72, 62
3, 125040, Note_on_c, 0, 72, 0
3, 125439, Note_on_c, 0, 67, 62
3, 125600, Note_on_c, 0, 67, 0
3, 125600, Note_on_c, 0, 68, 62
3, 125760, Note_on_c, 0, 68, 0
3, 125760, Control_c, 0, 64, 127
3, 125760, Note_on_c, 0, 77, 62
3, 125760, Note_on_c, 0, 80, 62
3, 126000, Note_on_c, 0, 80, 0
3, 126000, Note_on_c, 0, 77, 0
3, 126000, Note_on_c, 0, 77, 62
3, 126240, Note_on_c, 0, 77, 0
3, 126240, Note_on_c, 0, 72, 62
3, 126480, Note_on_c, 0, 72, 0
3, 126480, Control_c, 0, 64, 0
3, 126480, Note_on_c, 0, 68, 62
3, 126720, Note_on_c, 0, 68, 0
3, 126720, Control_c, 0, 64, 127
3, 126720, Note_on_c, 0, 77, 62
3, 126960, Note_on_c, 0, 77, 0
3, 126960, Note_on_c, 0, 72, 62
3, 127200, Note_on_c, 0, 72, 0
3, 127200, Note_on_c, 0, 68, 62
3, 127440, Note_on_c, 0, 68, 0
3, 127440, Control_c, 0, 64, 0
3, 127440, Note_on_c, 0, 65, 62
3, 127680, Note_on_c, 0, 65, 0
3, 127680, Control_c, 0, 64, 127
3, 127680, Note_on_c, 0, 72, 62
3, 127920, Note_on_c, 0, 72, 0
3, 127920, Note_on_c, 0, 68, 62
3, 128160, Note_on_c, 0, 68, 0
3, 128160, Control_c, 0, 64, 0
3, 128160, Note_on_c, 0, 68, 62
3, 128640, Note_on_c, 0, 72, 62
3, 128799, Note_on_c, 0, 72, 0
3, 128799, Note_on_c, 0, 68, 0
3, 128799, Note_on_c, 0, 67, 62
3, 128960, Note_on_c, 0, 67, 0
3, 128960, Note_on_c, 0, 68, 62
3, 129120, Note_on_c, 0, 68, 0
3, 129120, Note_on_c, 0, 77, 62
3, 129279, Note_on_c, 0, 67, 62
3, 129440, Note_on_c, 0, 67, 0
3, 129440, Note_on_c, 0, 68, 62
3, 129600, Note_on_c, 0, 68, 0
3, 129600, Note_on_c, 0, 77, 0
3, 129600, Control_c, 0, 64, 127
3, 129600, Note_on_c, 0, 77, 62
3, 129600, Note_on_c, 0, 80, 62
3, 129840, Note_on_c, 0, 80, 0
3, 129840, Note_on_c, 0, 77, 0
3, 129840, Note_on_c, 0, 77, 62
3, 130080, Note_on_c, 0, 77, 0
3, 130080, Note_on_c, 0, 72, 62
3, 130320, Note_on_c, 0, 72, 0
3, 130320, Control_c, 0, 64, 0
3, 130320, Note_on_c, 0, 68, 62
3, 130560, Note_on_c, 0, 68, 0
3, 130560, Control_c, 0, 64, 127
3, 130560, Note_on_c, 0, 77, 62
3, 130800, Note_on_c, 0, 77, 0
3, 130800, Note_on_c, 0, 72, 62
3, 131040, Note_on_c, 0, 72, 0
3, 131040, Note_on_c, 0, 68, 62
3, 131280, Note_on_c, 0, 68, 0
3, 131280, Control_c, 0, 64, 0
3, 131280, Note_on_c, 0, 65, 62
3, 131520, Note_on_c, 0, 65, 0
3, 131520, Control_c, 0, 64, 127
3, 131520, Note_on_c, 0, 72, 62
3, 131760, Note_on_c, 0, 72, 0
3, 131760, Note_on_c, 0, 68, 62
3, 132000, Note_on_c, 0, 68, 0
3, 132000, Control_c, 0, 64, 0
3, 132000, Note_on_c, 0, 68, 62
3, 132159, Note_on_c, 0, 64, 62
3, 132320, Note_on_c, 0, 64, 0
3, 132320, Note_on_c, 0, 65, 62
3, 132480, Note_on_c, 0, 65, 0
3, 132480, Note_on_c, 0, 68, 0
3, 132480, Note_on_c, 0, 72, 62
3, 132639, Note_on_c, 0, 72, 0
3, 132639, Note_on_c, 0, 67, 62
3, 132800, Note_on_c, 0, 67, 0
3, 132800, Note_on_c, 0, 68, 62
3, 132960, Note_on_c, 0, 68, 0
3, 132960, Note_on_c, 0, 77, 62
3, 133119, Note_on_c, 0, 67, 62
3, 133280, Note_on_c, 0, 67, 0
3, 133280, Note_on_c, 0, 68, 62
3, 133440, Note_on_c, 0, 68, 0
3, 133440, Note_on_c, 0, 77, 0
3, 133440, Control_c, 0, 64, 127
3, 133440, Note_on_c, 0, 77, 62
3, 133440, Note_on_c, 0, 80, 62
3, 133440, Note_on_c, 0, 84, 62
3, 133680, Note_on_c, 0, 84, 0
3, 133680, Note_on_c, 0, 80, 0
3, 133680, Note_on_c, 0, 77, 0
3, 133680, Note_on_c, 0, 72, 62
3, 133680, Note_on_c, 0, 77, 62
3, 133680, Note_on_c, 0, 80, 62
3, 133920, Note_on_c, 0, 80, 0
3, 133920, Note_on_c, 0, 77, 0
3, 133920, Note_on_c, 0, 72, 0
3, 133920, Note_on_c, 0, 68, 62
3, 133920, Note_on_c, 0, 72, 62
3, 133920, Note_on_c, 0, 77, 62
3, 134160, Note_on_c, 0, 77, 0
3, 134160, Note_on_c, 0, 72, 0
3, 134160, Note_on_c, 0, 68, 0
3, 134160, Control_c, 0, 64, 0
3, 134160, Note_on_c, 0, 65, 62
3, 134160, Note_on_c, 0, 68, 62
3, 134160, Note_on_c, 0, 72, 62
3, 134400, Note_on_c, 0, 72, 0
3, 134400, Note_on_c, 0, 68, 0
3, 134400, Note_on_c, 0, 65, 0
3, 134400, Control_c, 0, 64, 127
3, 134400, Note_on_c, 0, 72, 62
3, 134400, Note_on_c, 0, 77, 62
3, 134400, Note_on_c, 0, 80, 62
3, 134640, Note_on_c, 0, 80, 0
3, 134640, Note_on_c, 0, 77, 0
3, 134640, Note_on_c, 0, 72, 0
3, 134640, Note_on_c, 0, 68, 62
3, 134640, Note_on_c, 0, 72, 62
3, 134640, Note_on_c, 0, 77, 62
3, 134880, Note_on_c, 0, 77, 0
3, 134880, Note_on_c, 0, 72, 0
3, 134880, Note_on_c, 0, 68, 0
3, 134880, Note_on_c, 0, 65, 62
3, 134880, Note_on_c, 0, 68, 62
3, 134880, Note_on_c, 0, 72, 62
3, 135120, Note_on_c, 0, 72, 0
3, 135120, Note_on_c, 0, 68, 0
3, 135120, Note_on_c, 0, 65, 0
3, 135120, Control_c, 0, 64, 0
3, 135120, Note_on_c, 0, 60, 62
3, 135120, Note_on_c, 0, 65, 62
3, 135120, Note_on_c, 0, 68, 62
3, 135360, Note_on_c, 0, 68, 0
3, 135360, Note_on_c, 0, 65, 0
3, 135360, Note_on_c, 0, 60, 0
3, 135360, Control_c, 0, 64, 127
3, 135360, Note_on_c, 0, 77, 62
3, 135360, Note_on_c, 0, 80, 62
3, 135360, Note_on_c, 0, 86, 62
3, 135600, Note_on_c, 0, 86, 0
3, 135600, Note_on_c, 0, 80, 0
3, 135600, Note_on_c, 0, 77, 0
3, 135600, Note_on_c, 0, 74, 62
3, 135600, Note_on_c, 0, 77, 62
3, 135600, Note_on_c, 0, 80, 62
3, 135840, Note_on_c, 0, 80, 0
3, 135840, Note_on_c, 0, 77, 0
3, 135840, Note_on_c, 0, 74, 0
3, 135840, Note_on_c, 0, 68, 62
3, 135840, Note_on_c, 0, 74, 62
3, 135840, Note_on_c, 0, 77, 62
3, 136080, Note_on_c, 0, 77, 0
3, 136080, Note_on_c, 0, 74, 0
3, 136080, Note_on_c, 0, 68, 0
3, 136080, Control_c, 0, 64, 0
3, 136080, Note_on_c, 0, 65, 62
3, 136080, Note_on_c, 0, 68, 62
3, 136080, Note_on_c, 0, 74, 62
3, 136320, Note_on_c, 0, 74, 0
3, 136320, Note_on_c, 0, 68, 0
3, 136320, Note_on_c, 0, 65, 0
3, 136320, Control_c, 0, 64, 127
3, 136320, Note_on_c, 0, 74, 62
3, 136320, Note_on_c, 0, 77, 62
3, 136320, Note_on_c, 0, 80, 62
3, 136560, Note_on_c, 0, 80, 0
3, 136560, Note_on_c, 0, 77, 0
3, 136560, Note_on_c, 0, 74, 0
3, 136560, Note_on_c, 0, 68, 62
3, 136560, Note_on_c, 0, 74, 62
3, 136560, Note_on_c, 0, 77, 62
3, 136800, Note_on_c, 0, 77, 0
3, 136800, Note_on_c, 0, 74, 0
3, 136800, Note_on_c, 0, 68, 0
3, 136800, Note_on_c, 0, 65, 62
3, 136800, Note_on_c, 0, 68, 62
3, 136800, Note_on_c, 0, 74, 62
3, 137040, Note_on_c, 0, 74, 0
3, 137040, Note_on_c, 0, 68, 0
3, 137040, Note_on_c, 0, 65, 0
3, 137040, Control_c, 0, 64, 0
3, 137040, Note_on_c, 0, 62, 62
3, 137040, Note_on_c, 0, 65, 62
3, 137040, Note_on_c, 0, 68, 62
3, 137280, Note_on_c, 0, 68, 0
3, 137280, Note_on_c, 0, 65, 0
3, 137280, Note_on_c, 0, 62, 0
3, 137280, Control_c, 0, 64, 127
3, 137280, Note_on_c, 0, 80, 75
3, 137280, Note_on_c, 0, 84, 75
3, 137280, Note_on_c, 0, 87, 75
3, 137520, Note_on_c, 0, 87, 0
3, 137520, Note_on_c, 0, 84, 0
3, 137520, Note_on_c, 0, 80, 0
3, 137520, Note_on_c, 0, 75, 75
3, 137520, Note_on_c, 0, 80, 75
3, 137520, Note_on_c, 0, 84, 75
3, 137760, Note_on_c, 0, 84, 0
3, 137760, Note_on_c, 0, 80, 0
3, 137760, Note_on_c, 0, 75, 0
3, 137760, Note_on_c, 0, 72, 75
3, 137760, Note_on_c, 0, 75, 75
3, 137760, Note_on_c, 0, 80, 75
3, 138000, Note_on_c, 0, 80, 0
3, 138000, Note_on_c, 0, 75, 0
3, 138000, Note_on_c, 0, 72, 0
3, 138000, Control_c, 0, 64, 0
3, 138000, Note_on_c, 0, 68, 75
3, 138000, Note_on_c, 0, 72, 75
3, 138000, Note_on_c, 0, 75, 75
3, 138240, Note_on_c, 0, 75, 0
3, 138240, Note_on_c, 0, 72, 0
3, 138240, Note_on_c, 0, 68, 0
3, 138240, Control_c, 0, 64, 127
3, 138240, Note_on_c, 0, 80, 75
3, 138240, Note_on_c, 0, 84, 75
3, 138240, Note_on_c, 0, 88, 75
3, 138480, Note_on_c, 0, 88, 0
3, 138480, Note_on_c, 0, 84, 0
3, 138480, Note_on_c, 0, 80, 0
3, 138480, Note_on_c, 0, 76, 75
3, 138480, Note_on_c, 0, 80, 75
3, 138480, Note_on_c, 0, 84, 75
3, 138720, Note_on_c, 0, 84, 0
3, 138720, Note_on_c, 0, 80, 0
3, 138720, Note_on_c, 0, 76, 0
3, 138720, Note_on_c, 0, 72, 75
3, 138720, Note_on_c, 0, 76, 75
3, 138720, Note_on_c, 0, 80, 75
3, 138960, Note_on_c, 0, 80, 0
3, 138960, Note_on_c, 0, 76, 0
3, 138960, Note_on_c, 0, 72, 0
3, 138960, Control_c, 0, 64, 0
3, 138960, Note_on_c, 0, 68, 75
3, 138960, Note_on_c, 0, 72, 75
3, 138960, Note_on_c, 0, 76, 75
3, 139200, Note_on_c, 0, 76, 0
3, 139200, Note_on_c, 0, 72, 0
3, 139200, Note_on_c, 0, 68, 0
3, 139200, Control_c, 0, 64, 127
3, 139200, Note_on_c, 0, 80, 75
3, 139200, Note_on_c, 0, 84, 75
3, 139200, Note_on_c, 0, 89, 75
3, 139440, Note_on_c, 0, 89, 0
3, 139440, Note_on_c, 0, 84, 0
3, 139440, Note_on_c, 0, 80, 0
3, 139440, Note_on_c, 0, 77, 75
3, 139440, Note_on_c, 0, 80, 75
3, 139440, Note_on_c, 0, 84, 75
3, 139680, Note_on_c, 0, 84, 0
3, 139680, Note_on_c, 0, 80, 0
3, 139680, Note_on_c, 0, 77, 0
3, 139680, Note_on_c, 0, 72, 75
3, 139680, Note_on_c, 0, 77, 75
3, 139680, Note_on_c, 0, 80, 75
3, 139920, Note_on_c, 0, 80, 0
3, 139920, Note_on_c, 0, 77, 0
3, 139920, Note_on_c, 0, 72, 0
3, 139920, Control_c, 0, 64, 0
3, 139920, Note_on_c, 0, 68, 75
3, 139920, Note_on_c, 0, 72, 75
3, 139920, Note_on_c, 0, 77, 75
3, 140160, Note_on_c, 0, 77, 0
3, 140160, Note_on_c, 0, 72, 0
3, 140160, Note_on_c, 0, 68, 0
3, 140160, Control_c, 0, 64, 127
3, 140160, Note_on_c, 0, 84, 75
3, 140160, Note_on_c, 0, 88, 75
3, 140160, Note_on_c, 0, 91, 75
3, 140400, Note_on_c, 0, 91, 0
3, 140400, Note_on_c, 0, 88, 0
3, 140400, Note_on_c, 0, 84, 0
3, 140400, Note_on_c, 0, 79, 75
3, 140400, Note_on_c, 0, 84, 75
3, 140400, Note_on_c, 0, 88, 75
3, 140640, Note_on_c, 0, 88, 0
3, 140640, Note_on_c, 0, 84, 0
3, 140640, Note_on_c, 0, 79, 0
3, 140640, Note_on_c, 0, 76, 75
3, 140640, Note_on_c, 0, 79, 75
3, 140640, Note_on_c, 0, 84, 75
3, 140880, Note_on_c, 0, 84, 0
3, 140880, Note_on_c, 0, 79, 0
3, 140880, Note_on_c, 0, 76, 0
3, 140880, Control_c, 0, 64, 0
3, 140880, Note_on_c, 0, 72, 75
3, 140880, Note_on_c, 0, 76, 75
3, 140880, Note_on_c, 0, 79, 75
3, 141120, Note_on_c, 0, 79, 0
3, 141120, Note_on_c, 0, 76, 0
3, 141120, Note_on_c, 0, 72, 0
3, 141120, Control_c, 0, 64, 127
3, 141120, Note_on_c, 0, 79, 75
3, 141120, Note_on_c, 0, 84, 75
3, 141120, Note_on_c, 0, 88, 75
3, 141360, Note_on_c, 0, 88, 0
3, 141360, Note_on_c, 0, 84, 0
3, 141360, Note_on_c, 0, 79, 0
3, 141360, Note_on_c, 0, 76, 75
3, 141360, Note_on_c, 0, 79, 75
3, 141360, Note_on_c, 0, 84, 75
3, 141600, Note_on_c, 0, 84, 0
3, 141600, Note_on_c, 0, 79, 0
3, 141600, Note_on_c, 0, 76, 0
3, 141600, Note_on_c, 0, 72, 75
3, 141600, Note_on_c, 0, 76, 75
3, 141600, Note_on_c, 0, 79, 75
3, 141840, Note_on_c, 0, 79, 0
3, 141840, Note_on_c, 0, 76, 0
3, 141840, Note_on_c, 0, 72, 0
3, 141840, Control_c, 0, 64, 0
3, 141840, Note_on_c, 0, 67, 75
3, 141840, Note_on_c, 0, 72, 75
3, 141840, Note_on_c, 0, 76, 75
3, 142080, Note_on_c, 0, 76, 0
3, 142080, Note_on_c, 0, 72, 0
3, 142080, Note_on_c, 0, 67, 0
3, 142080, Control_c, 0, 64, 127
3, 142080, Note_on_c, 0, 76, 62
3, 142080, Note_on_c, 0, 79, 62
3, 142080, Note_on_c, 0, 84, 62
3, 142320, Note_on_c, 0, 84, 0
3, 142320, Note_on_c, 0, 79, 0
3, 142320, Note_on_c, 0, 76, 0
3, 142320, Note_on_c, 0, 72, 62
3, 142320, Note_on_c, 0, 76, 62
3, 142320, Note_on_c, 0, 79, 62
3, 142560, Note_on_c, 0, 79, 0
3, 142560, Note_on_c, 0, 76, 0
3, 142560, Note_on_c, 0, 72, 0
3, 142560, Note_on_c, 0, 67, 62
3, 142560, Note_on_c, 0, 72, 62
3, 142560, Note_on_c, 0, 76, 62
3, 142800, Note_on_c, 0, 76, 0
3, 142800, Note_on_c, 0, 72, 0
3, 142800, Note_on_c, 0, 67, 0
3, 142800, Control_c, 0, 64, 0
3, 142800, Note_on_c, 0, 64, 62
3, 142800, Note_on_c, 0, 67, 62
3, 142800, Note_on_c, 0, 72, 62
3, 143040, Note_on_c, 0, 72, 0
3, 143040, Note_on_c, 0, 67, 0
3, 143040, Note_on_c, 0, 64, 0
3, 143040, Control_c, 0, 64, 127
3, 143040, Note_on_c, 0, 72, 62
3, 143040, Note_on_c, 0, 76, 62
3, 143040, Note_on_c, 0, 79, 62
3, 143280, Note_on_c, 0, 79, 0
3, 143280, Note_on_c, 0, 76, 0
3, 143280, Note_on_c, 0, 72, 0
3, 143280, Note_on_c, 0, 67, 62
3, 143280, Note_on_c, 0, 72, 62
3, 143280, Note_on_c, 0, 76, 62
3, 143520, Note_on_c, 0, 76, 0
3, 143520, Note_on_c, 0, 72, 0
3, 143520, Note_on_c, 0, 67, 0
3, 143520, Note_on_c, 0, 64, 62
3, 143520, Note_on_c, 0, 67, 62
3, 143520, Note_on_c, 0, 72, 62
3, 143760, Note_on_c, 0, 72, 0
3, 143760, Note_on_c, 0, 67, 0
3, 143760, Note_on_c, 0, 64, 0
3, 143760, Control_c, 0, 64, 0
3, 143760, Note_on_c, 0, 60, 62
3, 143760, Note_on_c, 0, 64, 62
3, 143760, Note_on_c, 0, 67, 62
3, 144000, Note_on_c, 0, 67, 0
3, 144000, Note_on_c, 0, 64, 0
3, 144000, Note_on_c, 0, 60, 0
3, 144000, Control_c, 0, 64, 127
3, 144000, Note_on_c, 0, 67, 62
3, 144000, Note_on_c, 0, 72, 62
3, 144000, Note_on_c, 0, 76, 62
3, 144240, Note_on_c, 0, 76, 0
3, 144240, Note_on_c, 0, 72, 0
3, 144240, Note_on_c, 0, 67, 0
3, 144240, Note_on_c, 0, 64, 62
3, 144240, Note_on_c, 0, 67, 62
3, 144240, Note_on_c, 0, 72, 62
3, 144480, Note_on_c, 0, 72, 0
3, 144480, Note_on_c, 0, 67, 0
3, 144480, Note_on_c, 0, 64, 0
3, 144480, Note_on_c, 0, 60, 62
3, 144480, Note_on_c, 0, 64, 62
3, 144480, Note_on_c, 0, 67, 62
3, 144720, Note_on_c, 0, 67, 0
3, 144720, Note_on_c, 0, 64, 0
3, 144720, Note_on_c, 0, 60, 0
3, 144720, Control_c, 0, 64, 0
3, 144720, Note_on_c, 0, 55, 62
3, 144720, Note_on_c, 0, 60, 62
3, 144720, Note_on_c, 0, 64, 62
3, 144960, Note_on_c, 0, 64, 0
3, 144960, Note_on_c, 0, 60, 0
3, 144960, Note_on_c, 0, 55, 0
3, 144960, Control_c, 0, 64, 127
3, 144960, Note_on_c, 0, 64, 62
3, 144960, Note_on_c, 0, 67, 62
3, 144960, Note_on_c, 0, 72, 62
3, 145200, Note_on_c, 0, 72, 0
3, 145200, Note_on_c, 0, 67, 0
3, 145200, Note_on_c, 0, 64, 0
3, 145200, Note_on_c, 0, 60, 62
3, 145200, Note_on_c, 0, 64, 62
3, 145200, Note_on_c, 0, 67, 62
3, 145440, Note_on_c, 0, 67, 0
3, 145440, Note_on_c, 0, 64, 0
3, 145440, Note_on_c, 0, 60, 0
3, 145440, Note_on_c, 0, 55, 62
3, 145440, Note_on_c, 0, 60, 62
3, 145440, Note_on_c, 0, 64, 62
3, 145680, Note_on_c, 0, 64, 0
3, 145680, Note_on_c, 0, 60, 0
3, 145680, Note_on_c, 0, 55, 0
3, 145680, Control_c, 0, 64, 0
3, 145680, Note_on_c, 0, 52, 62
3, 145680, Note_on_c, 0, 55, 62
3, 145680, Note_on_c, 0, 60, 62
3, 145920, Note_on_c, 0, 60, 0
3, 145920, Note_on_c, 0, 55, 0
3, 145920, Note_on_c, 0, 52, 0
3, 145920, Control_c, 0, 64, 127
3, 145920, Note_on_c, 0, 60, 62
3, 145920, Note_on_c, 0, 64, 62
3, 145920, Note_on_c, 0, 67, 62
3, 146160, Note_on_c, 0, 67, 0
3, 146160, Note_on_c, 0, 64, 0
3, 146160, Note_on_c, 0, 60, 0
3, 146160, Note_on_c, 0, 55, 62
3, 146160, Note_on_c, 0, 60, 62
3, 146160, Note_on_c, 0, 64, 62
3, 146400, Note_on_c, 0, 64, 0
3, 146400, Note_on_c, 0, 60, 0
3, 146400, Note_on_c, 0, 55, 0
3, 146400, Note_on_c, 0, 52, 62
3, 146400, Note_on_c, 0, 55, 62
3, 146400, Note_on_c, 0, 60, 62
3, 146640, Note_on_c, 0, 60, 0
3, 146640, Note_on_c, 0, 55, 0
3, 146640, Note_on_c, 0, 52, 0
3, 146640, Note_on_c, 0, 52, 62
3, 146640, Note_on_c, 0, 55, 62
3, 147120, Note_on_c, 0, 55, 0
3, 147120, Note_on_c, 0, 52, 0
3, 147360, Control_c, 0, 64, 0
3, 147840, Note_on_c, 0, 76, 49
3, 147840, Note_on_c, 0, 79, 49
3, 148800, Note_on_c, 0, 79, 0
3, 148800, Note_on_c, 0, 76, 0
3, 148800, Note_on_c, 0, 75, 62
3, 148800, Note_on_c, 0, 80, 62
3, 149760, Note_on_c, 0, 80, 0
3, 149760, Note_on_c, 0, 75, 0
3, 149760, Note_on_c, 0, 72, 88
3, 149760, Note_on_c, 0, 76, 88
3, 149760, Note_on_c, 0, 81, 88
3, 151440, Note_on_c, 0, 81, 0
3, 151440, Note_on_c, 0, 76, 0
3, 151440, Note_on_c, 0, 72, 0
3, 151440, Note_on_c, 0, 72, 62
3, 151440, Note_on_c, 0, 76, 62
3, 151680, Note_on_c, 0, 76, 0
3, 151680, Note_on_c, 0, 72, 0
3, 151680, Note_on_c, 0, 72, 49
3, 151680, Note_on_c, 0, 77, 49
3, 152640, Note_on_c, 0, 77, 0
3, 152640, Note_on_c, 0, 72, 0
3, 152640, Note_on_c, 0, 72, 62
3, 152640, Note_on_c, 0, 75, 62
3, 152640, Note_on_c, 0, 78, 62
3, 153600, Note_on_c, 0, 78, 0
3, 153600, Note_on_c, 0, 75, 0
3, 153600, Note_on_c, 0, 72, 0
3, 153600, Note_on_c, 0, 72, 88
3, 153600, Note_on_c, 0, 75, 88
3, 153600, Note_on_c, 0, 79, 88
3, 155280, Note_on_c, 0, 79, 0
3, 155280, Note_on_c, 0, 75, 0
3, 155280, Note_on_c, 0, 72, 0
3, 155280, Note_on_c, 0, 67, 62
3, 155280, Note_on_c, 0, 72, 62
3, 155280, Note_on_c, 0, 74, 62
3, 155520, Note_on_c, 0, 74, 0
3, 155520, Note_on_c, 0, 72, 0
3, 155520, Note_on_c, 0, 67, 0
3, 155520, Note_on_c, 0, 67, 49
3, 155520, Note_on_c, 0, 72, 49
3, 155520, Note_on_c, 0, 75, 49
3, 156480, Note_on_c, 0, 75, 0
3, 156480, Note_on_c, 0, 72, 0
3, 156480, Note_on_c, 0, 67, 0
3, 156480, Note_on_c, 0, 68, 62
3, 156480, Note_on_c, 0, 72, 62
3, 156480, Note_on_c, 0, 76, 62
3, 157440, Note_on_c, 0, 76, 0
3, 157440, Note_on_c, 0, 72, 0
3, 157440, Note_on_c, 0, 68, 0
3, 157440, Note_on_c, 0, 68, 36
3, 157440, Note_on_c, 0, 72, 36
3, 157440, Note_on_c, 0, 77, 36
3, 159120, Note_on_c, 0, 77, 0
3, 159120, Note_on_c, 0, 72, 0
3, 159120, Note_on_c, 0, 68, 0
3, 159120, Note_on_c, 0, 65, 49
3, 159120, Note_on_c, 0, 68, 49
3, 159120, Note_on_c, 0, 72, 49
3, 159360, Note_on_c, 0, 72, 0
3, 159360, Note_on_c, 0, 68, 0
3, 159360, Note_on_c, 0, 65, 0
3, 159360, Note_on_c, 0, 65, 49
3, 159360, Note_on_c, 0, 68, 49
3, 159360, Note_on_c, 0, 72, 49
3, 159360, Note_on_c, 0, 74, 49
3, 160320, Note_on_c, 0, 74, 0
3, 160320, Note_on_c, 0, 65, 0
3, 160320, Note_on_c, 0, 68, 0
3, 160320, Note_on_c, 0, 72, 0
3, 160320, Note_on_c, 0, 66, 62
3, 160320, Note_on_c, 0, 68, 62
3, 160320, Note_on_c, 0, 72, 62
3, 160320, Note_on_c, 0, 75, 62
3, 161280, Note_on_c, 0, 75, 0
3, 161280, Note_on_c, 0, 66, 0
3, 161280, Note_on_c, 0, 68, 0
3, 161280, Note_on_c, 0, 72, 0
3, 161280, Note_on_c, 0, 64, 62
3, 161280, Note_on_c, 0, 67, 62
3, 161280, Note_on_c, 0, 72, 62
3, 161280, Note_on_c, 0, 76, 62
3, 162720, Note_on_c, 0, 76, 0
3, 162720, Note_on_c, 0, 64, 0
3, 162720, Note_on_c, 0, 67, 0
3, 162720, Note_on_c, 0, 72, 0
3, 163200, Note_on_c, 0, 75, 49
3, 163200, Note_on_c, 0, 78, 49
3, 163200, Note_on_c, 0, 84, 49
3, 163200, Note_on_c, 0, 87, 49
3, 164160, Note_on_c, 0, 87, 0
3, 164160, Note_on_c, 0, 75, 0
3, 164160, Note_on_c, 0, 78, 0
3, 164160, Note_on_c, 0, 84, 0
3, 164160, Note_on_c, 0, 76, 49
3, 164160, Note_on_c, 0, 79, 49
3, 164160, Note_on_c, 0, 84, 49
3, 164160, Note_on_c, 0, 88, 49
3, 165120, Note_on_c, 0, 88, 0
3, 165120, Note_on_c, 0, 76, 0
3, 165120, Note_on_c, 0, 79, 0
3, 165120, Note_on_c, 0, 84, 0
3, 165120, Note_on_c, 0, 66, 49
3, 165120, Note_on_c, 0, 72, 49
3, 165120, Note_on_c, 0, 75, 49
3, 165120, Note_on_c, 0, 78, 49
3, 166080, Note_on_c, 0, 78, 0
3, 166080, Note_on_c, 0, 66, 0
3, 166080, Note_on_c, 0, 72, 0
3, 166080, Note_on_c, 0, 75, 0
3, 166080, Note_on_c, 0, 67, 49
3, 166080, Note_on_c, 0, 72, 49
3, 166080, Note_on_c, 0, 76, 49
3, 166080, Note_on_c, 0, 79, 49
3, 167040, Note_on_c, 0, 79, 0
3, 167040, Note_on_c, 0, 67, 0
3, 167040, Note_on_c, 0, 72, 0
3, 167040, Note_on_c, 0, 76, 0
3, 167040, Note_on_c, 0, 63, 49
3, 167040, Note_on_c, 0, 66, 49
3, 167040, Note_on_c, 0, 72, 49
3, 167040, Note_on_c, 0, 75, 49
3, 168000, Note_on_c, 0, 75, 0
3, 168000, Note_on_c, 0, 63, 0
3, 168000, Note_on_c, 0, 66, 0
3, 168000, Note_on_c, 0, 72, 0
3, 168000, Note_on_c, 0, 64, 49
3, 168000, Note_on_c, 0, 67, 49
3, 168000, Note_on_c, 0, 72, 49
3, 168000, Note_on_c, 0, 76, 49
3, 168960, Note_on_c, 0, 76, 0
3, 168960, Note_on_c, 0, 64, 0
3, 168960, Note_on_c, 0, 67, 0
3, 168960, Note_on_c, 0, 72, 0
3, 168960, Note_on_c, 0, 54, 49
3, 168960, Note_on_c, 0, 60, 49
3, 168960, Note_on_c, 0, 63, 49
3, 168960, Note_on_c, 0, 66, 49
3, 169920, Note_on_c, 0, 66, 0
3, 169920, Note_on_c, 0, 54, 0
3, 169920, Note_on_c, 0, 60, 0
3, 169920, Note_on_c, 0, 63, 0
3, 169920, Note_on_c, 0, 55, 49
3, 169920, Note_on_c, 0, 60, 49
3, 169920, Note_on_c, 0, 64, 49
3, 169920, Note_on_c, 0, 67, 49
3, 170880, Note_on_c, 0, 67, 0
3, 170880, Note_on_c, 0, 55, 0
3, 170880, Note_on_c, 0, 60, 0
3, 170880, Note_on_c, 0, 64, 0
3, 170880, Note_on_c, 0, 54, 49
3, 170880, Note_on_c, 0, 60, 49
3, 170880, Note_on_c, 0, 63, 49
3, 171840, Note_on_c, 0, 63, 0
3, 171840, Note_on_c, 0, 60, 0
3, 171840, Note_on_c, 0, 54, 0
3, 171840, Note_on_c, 0, 52, 49
3, 171840, Note_on_c, 0, 55, 49
3, 171840, Note_on_c, 0, 60, 49
3, 172320, Note_on_c, 0, 60, 0
3, 172320, Note_on_c, 0, 55, 0
3, 172320, Note_on_c, 0, 52, 0
3, 172320, Note_on_c, 0, 48, 49
3, 172320, Note_on_c, 0, 52, 49
3, 172320, Note_on_c, 0, 55, 49
3, 172800, Note_on_c, 0, 55, 0
3, 172800, Note_on_c, 0, 52, 0
3, 172800, Note_on_c, 0, 48, 0
3, 172800, Control_c, 0, 64, 127
3, 172800, Note_on_c, 0, 52, 49
3, 174720, Note_on_c, 0, 52, 0
3, 178560, Control_c, 0, 64, 0
3, 183840, Control_c, 0, 64, 127
3, 183840, Note_on_c, 0, 63, 75
3, 184320, Note_on_c, 0, 63, 0
3, 184800, Note_on_c, 0, 72, 49
3, 184959, Note_on_c, 0, 72, 0
3, 184959, Note_on_c, 0, 70, 49
3, 185120, Note_on_c, 0, 70, 0
3, 185120, Control_c, 0, 64, 0
3, 185120, Note_on_c, 0, 68, 49
3, 185280, Note_on_c, 0, 68, 0
3, 185280, Note_on_c, 0, 68, 49
3, 185439, Note_on_c, 0, 68, 0
3, 185439, Note_on_c, 0, 70, 49
3, 185600, Note_on_c, 0, 70, 0
3, 185600, Note_on_c, 0, 72, 49
3, 185760, Note_on_c, 0, 72, 0
3, 187680, Control_c, 0, 64, 127
3, 187680, Note_on_c, 0, 63, 88
3, 187680, Note_on_c, 0, 67, 88
3, 188160, Note_on_c, 0, 67, 0
3, 188160, Note_on_c, 0, 63, 0
3, 188640, Note_on_c, 0, 75, 62
3, 188799, Note_on_c, 0, 75, 0
3, 188799, Note_on_c, 0, 74, 62
3, 188960, Note_on_c, 0, 74, 0
3, 188960, Control_c, 0, 64, 0
3, 188960, Note_on_c, 0, 72, 62
3, 189120, Note_on_c, 0, 72, 0
3, 189120, Note_on_c, 0, 72, 62
3, 189279, Note_on_c, 0, 72, 0
3, 189279, Note_on_c, 0, 74, 62
3, 189440, Note_on_c, 0, 74, 0
3, 189440, Note_on_c, 0, 75, 62
3, 189600, Note_on_c, 0, 75, 0
3, 189600, Note_on_c, 0, 79, 62
3, 190080, Note_on_c, 0, 79, 0
3, 197760, Note_on_c, 0, 70, 62
3, 199680, Note_on_c, 0, 70, 0
3, 199680, Note_on_c, 0, 64, 62
3, 199680, Note_on_c, 0, 70, 62
3, 200640, Note_on_c, 0, 70, 0
3, 200640, Note_on_c, 0, 64, 0
3, 200640, Control_c, 0, 64, 127
3, 200640, Note_on_c, 0, 63, 62
3, 200880, Note_on_c, 0, 63, 0
3, 200880, Note_on_c, 0, 65, 62
3, 201120, Note_on_c, 0, 65, 0
3, 201120, Note_on_c, 0, 63, 62
3, 201360, Note_on_c, 0, 63, 0
3, 201360, Control_c, 0, 64, 0
3, 201360, Note_on_c, 0, 61, 62
3, 201600, Note_on_c, 0, 61, 0
3, 201600, Note_on_c, 0, 70, 62
3, 203520, Note_on_c, 0, 70, 0
3, 203520, Note_on_c, 0, 64, 62
3, 203520, Note_on_c, 0, 70, 62
3, 204480, Note_on_c, 0, 70, 0
3, 204480, Note_on_c, 0, 64, 0
3, 204480, Control_c, 0, 64, 127
3, 204480, Note_on_c, 0, 63, 62
3, 204720, Note_on_c, 0, 63, 0
3, 204720, Note_on_c, 0, 65, 62
3, 204960, Note_on_c, 0, 65, 0
3, 204960, Note_on_c, 0, 63, 62
3, 205200, Note_on_c, 0, 63, 0
3, 205200, Control_c, 0, 64, 0
3, 205200, Note_on_c, 0, 61, 62
3, 205440, Note_on_c, 0, 61, 0
3, 212160, Note_on_c, 0, 57, 101
3, 212160, Note_on_c, 0, 61, 101
3, 212160, Note_on_c, 0, 64, 101
3, 212160, Note_on_c, 0, 67, 101
3, 212160, Note_on_c, 0, 69, 101
3, 212400, Note_on_c, 0, 69, 0
3, 212400, Note_on_c, 0, 64, 0
3, 212400, Note_on_c, 0, 57, 0
3, 212400, Note_on_c, 0, 61, 0
3, 212400, Note_on_c, 0, 67, 0
3, 212400, Note_on_c, 0, 57, 101
3, 212400, Note_on_c, 0, 61, 101
3, 212400, Note_on_c, 0, 64, 101
3, 212400, Note_on_c, 0, 67, 101
3, 212400, Note_on_c, 0, 69, 101
3, 212640, Note_on_c, 0, 69, 0
3, 212640, Note_on_c, 0, 64, 0
3, 212640, Note_on_c, 0, 57, 0
3, 212640, Note_on_c, 0, 61, 0
3, 212640, Note_on_c, 0, 67, 0
3, 213120, Note_on_c, 0, 65, 101
3, 213120, Note_on_c, 0, 68, 101
3, 213600, Note_on_c, 0, 68, 0
3, 213600, Note_on_c, 0, 65, 0
3, 213600, Note_on_c, 0, 65, 101
3, 213600, Note_on_c, 0, 69, 101
3, 214080, Note_on_c, 0, 69, 0
3, 214080, Note_on_c, 0, 65, 0
3, 214080, Note_on_c, 0, 65, 101
3, 214080, Note_on_c, 0, 70, 101
3, 214800, Note_on_c, 0, 70, 0
3, 214800, Note_on_c, 0, 65, 0
3, 214800, Note_on_c, 0, 61, 101
3, 214800, Note_on_c, 0, 65, 101
3, 215040, Note_on_c, 0, 65, 0
3, 215040, Note_on_c, 0, 61, 0
3, 215040, Note_on_c, 0, 61, 101
3, 215040, Note_on_c, 0, 66, 101
3, 215520, Note_on_c, 0, 66, 0
3, 215520, Note_on_c, 0, 61, 0
3, 215520, Note_on_c, 0, 61, 101
3, 215520, Note_on_c, 0, 67, 101
3, 216000, Note_on_c, 0, 67, 0
3, 216000, Note_on_c, 0, 61, 0
3, 216000, Note_on_c, 0, 61, 101
3, 216000, Note_on_c, 0, 64, 101
3, 216000, Note_on_c, 0, 68, 101
3, 216720, Note_on_c, 0, 68, 0
3, 216720, Note_on_c, 0, 64, 0
3, 216720, Note_on_c, 0, 61, 0
3, 216720, Note_on_c, 0, 63, 101
3, 216960, Note_on_c, 0, 63, 0
3, 216960, Note_on_c, 0, 61, 101
3, 216960, Note_on_c, 0, 64, 101
3, 217440, Note_on_c, 0, 64, 0
3, 217440, Note_on_c, 0, 61, 0
3, 217440, Note_on_c, 0, 58, 101
3, 217440, Note_on_c, 0, 61, 101
3, 217440, Note_on_c, 0, 64, 101
3, 217440, Note_on_c, 0, 66, 101
3, 217920, Note_on_c, 0, 66, 0
3, 217920, Note_on_c, 0, 58, 0
3, 217920, Note_on_c, 0, 61, 0
3, 217920, Note_on_c, 0, 64, 0
3, 217920, Note_on_c, 0, 57, 101
3, 217920, Note_on_c, 0, 61, 101
3, 217920, Note_on_c, 0, 64, 101
3, 217920, Note_on_c, 0, 67, 101
3, 218400, Note_on_c, 0, 67, 0
3, 218400, Note_on_c, 0, 57, 0
3, 218400, Note_on_c, 0, 61, 0
3, 218400, Note_on_c, 0, 64, 0
3, 218400, Note_on_c, 0, 56, 101
3, 218400, Note_on_c, 0, 61, 101
3, 218400, Note_on_c, 0, 64, 101
3, 218400, Note_on_c, 0, 68, 101
3, 218880, Note_on_c, 0, 68, 0
3, 218880, Note_on_c, 0, 56, 0
3, 218880, Note_on_c, 0, 61, 0
3, 218880, Note_on_c, 0, 64, 0
3, 219360, Control_c, 0, 64, 127
3, 219360, Note_on_c, 0, 43, 75
3, 219440, Note_on_c, 0, 43, 0
3, 219440, Note_on_c, 0, 46, 75
3, 219519, Note_on_c, 0, 46, 0
3, 219519, Note_on_c, 0, 49, 75
3, 219600, Note_on_c, 0, 49, 0
3, 219600, Note_on_c, 0, 52, 75
3, 219680, Note_on_c, 0, 52, 0
3, 219680, Note_on_c, 0, 55, 75
3, 219759, Note_on_c, 0, 55, 0
3, 219759, Note_on_c, 0, 58, 75
3, 219840, Note_on_c, 0, 58, 0
3, 219840, Note_on_c, 0, 61, 75
3, 219900, Note_on_c, 0, 61, 0
3, 219900, Note_on_c, 0, 64, 75
3, 219960, Note_on_c, 0, 64, 0
3, 219960, Note_on_c, 0, 67, 75
3, 220020, Note_on_c, 0, 67, 0
3, 220020, Note_on_c, 0, 70, 75
3, 220080, Note_on_c, 0, 70, 0
3, 220080, Note_on_c, 0, 73, 75
3, 220140, Note_on_c, 0, 73, 0
3, 220140, Note_on_c, 0, 76, 75
3, 220200, Note_on_c, 0, 76, 0
3, 220200, Note_on_c, 0, 79, 75
3, 220260, Note_on_c, 0, 79, 0
3, 220260, Note_on_c, 0, 82, 75
3, 220320, Note_on_c, 0, 82, 0
3, 220320, Note_on_c, 0, 85, 75
3, 220560, Note_on_c, 0, 85, 0
3, 220560, Control_c, 0, 64, 0
3, 221280, Note_on_c, 0, 65, 88
3, 221280, Note_on_c, 0, 69, 88
3, 221760, Note_on_c, 0, 69, 0
3, 221760, Note_on_c, 0, 65, 0
3, 221760, Note_on_c, 0, 61, 88
3, 221760, Note_on_c, 0, 66, 88
3, 221760, Note_on_c, 0, 70, 88
3, 222480, Note_on_c, 0, 70, 0
3, 222480, Note_on_c, 0, 66, 0
3, 222480, Note_on_c, 0, 61, 0
3, 222480, Note_on_c, 0, 61, 88
3, 222480, Note_on_c, 0, 66, 88
3, 222720, Note_on_c, 0, 66, 0
3, 222720, Note_on_c, 0, 61, 0
3, 222720, Note_on_c, 0, 66, 88
3, 223200, Note_on_c, 0, 66, 0
3, 223200, Note_on_c, 0, 61, 88
3, 223200, Note_on_c, 0, 66, 88
3, 223680, Note_on_c, 0, 66, 0
3, 223680, Note_on_c, 0, 61, 0
3, 223680, Note_on_c, 0, 58, 88
3, 223680, Note_on_c, 0, 61, 88
3, 223680, Note_on_c, 0, 65, 88
3, 224400, Note_on_c, 0, 65, 0
3, 224400, Note_on_c, 0, 61, 0
3, 224400, Note_on_c, 0, 58, 0
3, 224400, Note_on_c, 0, 58, 88
3, 224400, Note_on_c, 0, 61, 88
3, 224640, Note_on_c, 0, 61, 0
3, 224640, Note_on_c, 0, 58, 0
3, 227520, Control_c, 0, 64, 127
3, 227520, Note_on_c, 0, 43, 75
3, 227580, Note_on_c, 0, 43, 0
3, 227580, Note_on_c, 0, 46, 75
3, 227640, Note_on_c, 0, 46, 0
3, 227640, Note_on_c, 0, 49, 75
3, 227700, Note_on_c, 0, 49, 0
3, 227700, Note_on_c, 0, 52, 75
3, 227760, Note_on_c, 0, 52, 0
3, 227760, Note_on_c, 0, 55, 75
3, 227820, Note_on_c, 0, 55, 0
3, 227820, Note_on_c, 0, 58, 75
3, 227880, Note_on_c, 0, 58, 0
3, 227880, Note_on_c, 0, 61, 75
3, 227940, Note_on_c, 0, 61, 0
3, 227940, Note_on_c, 0, 64, 75
3, 228000, Note_on_c, 0, 64, 0
3, 228000, Note_on_c, 0, 67, 75
3, 228060, Note_on_c, 0, 67, 0
3, 228060, Note_on_c, 0, 70, 75
3, 228120, Note_on_c, 0, 70, 0
3, 228120, Note_on_c, 0, 73, 75
3, 228180, Note_on_c, 0, 73, 0
3, 228180, Note_on_c, 0, 76, 75
3, 228240, Note_on_c, 0, 76, 0
3, 228240, Note_on_c, 0, 79, 75
3, 228300, Note_on_c, 0, 79, 0
3, 228300, Note_on_c, 0, 82, 75
3, 228360, Note_on_c, 0, 82, 0
3, 228360, Note_on_c, 0, 85, 75
3, 228420, Note_on_c, 0, 85, 0
3, 228420, Note_on_c, 0, 88, 75
3, 228480, Note_on_c, 0, 88, 0
3, 228480, Note_on_c, 0, 91, 75
3, 228720, Note_on_c, 0, 91, 0
3, 228960, Control_c, 0, 64, 0
3, 230400, Note_on_c, 0, 62, 62
3, 230640, Note_on_c, 0, 62, 0
3, 230640, Note_on_c, 0, 63, 62
3, 230880, Note_on_c, 0, 63, 0
3, 230880, Note_on_c, 0, 64, 62
3, 231120, Note_on_c, 0, 64, 0
3, 231120, Note_on_c, 0, 65, 62
3, 231360, Note_on_c, 0, 65, 0
3, 231360, Note_on_c, 0, 64, 62
3, 231600, Note_on_c, 0, 64, 0
3, 231600, Note_on_c, 0, 63, 62
3, 231840, Note_on_c, 0, 63, 0
3, 231840, Note_on_c, 0, 62, 62
3, 232080, Note_on_c, 0, 62, 0
3, 232080, Note_on_c, 0, 67, 62
3, 232320, Note_on_c, 0, 67, 0
3, 232320, Note_on_c, 0, 77, 62
3, 232320, Note_on_c, 0, 79, 62
3, 232560, Note_on_c, 0, 79, 0
3, 232560, Note_on_c, 0, 77, 0
3, 232560, Note_on_c, 0, 77, 62
3, 232560, Note_on_c, 0, 80, 62
3, 232800, Note_on_c, 0, 80, 0
3, 232800, Note_on_c, 0, 77, 0
3, 232800, Note_on_c, 0, 77, 62
3, 232800, Note_on_c, 0, 81, 62
3, 233040, Note_on_c, 0, 81, 0
3, 233040, Note_on_c, 0, 77, 0
3, 233040, Note_on_c, 0, 77, 62
3, 233040, Note_on_c, 0, 83, 62
3, 233280, Note_on_c, 0, 83, 0
3, 233280, Note_on_c, 0, 77, 0
3, 233280, Note_on_c, 0, 77, 62
3, 233280, Note_on_c, 0, 81, 62
3, 233520, Note_on_c, 0, 81, 0
3, 233520, Note_on_c, 0, 77, 0
3, 233520, Note_on_c, 0, 77, 62
3, 233520, Note_on_c, 0, 80, 62
3, 233760, Note_on_c, 0, 80, 0
3, 233760, Note_on_c, 0, 77, 0
3, 233760, Note_on_c, 0, 77, 62
3, 233760, Note_on_c, 0, 79, 62
3, 234000, Note_on_c, 0, 79, 0
3, 234000, Note_on_c, 0, 77, 0
3, 234000, Note_on_c, 0, 77, 62
3, 234000, Note_on_c, 0, 83, 62
3, 234240, Note_on_c, 0, 83, 0
3, 234240, Note_on_c, 0, 77, 0
3, 234240, Note_on_c, 0, 77, 62
3, 234240, Note_on_c, 0, 79, 62
3, 234480, Note_on_c, 0, 79, 0
3, 234480, Note_on_c, 0, 77, 0
3, 234480, Note_on_c, 0, 77, 62
3, 234480, Note_on_c, 0, 80, 62
3, 234720, Note_on_c, 0, 80, 0
3, 234720, Note_on_c, 0, 77, 0
3, 234720, Note_on_c, 0, 77, 62
3, 234720, Note_on_c, 0, 81, 62
3, 234960, Note_on_c, 0, 81, 0
3, 234960, Note_on_c, 0, 77, 0
3, 234960, Note_on_c, 0, 77, 62
3, 234960, Note_on_c, 0, 83, 62
3, 235200, Note_on_c, 0, 83, 0
3, 235200, Note_on_c, 0, 77, 0
3, 235200, Note_on_c, 0, 77, 62
3, 235200, Note_on_c, 0, 81, 62
3, 235440, Note_on_c, 0, 81, 0
3, 235440, Note_on_c, 0, 77, 0
3, 235440, Note_on_c, 0, 77, 62
3, 235440, Note_on_c, 0, 80, 62
3, 235680, Note_on_c, 0, 80, 0
3, 235680, Note_on_c, 0, 77, 0
3, 235680, Note_on_c, 0, 77, 62
3, 235680, Note_on_c, 0, 79, 62
3, 235920, Note_on_c, 0, 79, 0
3, 235920, Note_on_c, 0, 77, 0
3, 235920, Note_on_c, 0, 77, 62
3, 235920, Note_on_c, 0, 83, 62
3, 236160, Note_on_c, 0, 83, 0
3, 236160, Note_on_c, 0, 77, 0
3, 236160, Note_on_c, 0, 67, 62
3, 236400, Note_on_c, 0, 67, 0
3, 236400, Note_on_c, 0, 67, 62
3, 236400, Note_on_c, 0, 68, 62
3, 236640, Note_on_c, 0, 68, 0
3, 236640, Note_on_c, 0, 67, 0
3, 236640, Note_on_c, 0, 67, 62
3, 236640, Note_on_c, 0, 69, 62
3, 236880, Note_on_c, 0, 69, 0
3, 236880, Note_on_c, 0, 67, 0
3, 236880, Note_on_c, 0, 67, 62
3, 236880, Note_on_c, 0, 70, 62
3, 237120, Note_on_c, 0, 70, 0
3, 237120, Note_on_c, 0, 67, 0
3, 237120, Note_on_c, 0, 67, 62
3, 237120, Note_on_c, 0, 69, 62
3, 237360, Note_on_c, 0, 69, 0
3, 237360, Note_on_c, 0, 67, 0
3, 237360, Note_on_c, 0, 67, 62
3, 237360, Note_on_c, 0, 68, 62
3, 237600, Note_on_c, 0, 68, 0
3, 237600, Note_on_c, 0, 67, 0
3, 237600, Note_on_c, 0, 67, 62
3, 237840, Note_on_c, 0, 67, 0
3, 237840, Note_on_c, 0, 67, 62
3, 237840, Note_on_c, 0, 72, 62
3, 238080, Note_on_c, 0, 72, 0
3, 238080, Note_on_c, 0, 67, 0
3, 238080, Note_on_c, 0, 67, 62
3, 238320, Note_on_c, 0, 67, 0
3, 238320, Note_on_c, 0, 67, 62
3, 238320, Note_on_c, 0, 68, 62
3, 238560, Note_on_c, 0, 68, 0
3, 238560, Note_on_c, 0, 67, 0
3, 238560, Note_on_c, 0, 67, 62
3, 238560, Note_on_c, 0, 69, 62
3, 238800, Note_on_c, 0, 69, 0
3, 238800, Note_on_c, 0, 67, 0
3, 238800, Note_on_c, 0, 67, 62
3, 238800, Note_on_c, 0, 70, 62
3, 239040, Note_on_c, 0, 70, 0
3, 239040, Note_on_c, 0, 67, 0
3, 239040, Note_on_c, 0, 67, 62
3, 239040, Note_on_c, 0, 69, 62
3, 239280, Note_on_c, 0, 69, 0
3, 239280, Note_on_c, 0, 67, 0
3, 239280, Note_on_c, 0, 67, 62
3, 239280, Note_on_c, 0, 68, 62
3, 239520, Note_on_c, 0, 68, 0
3, 239520, Note_on_c, 0, 67, 0
3, 239520, Note_on_c, 0, 67, 62
3, 239760, Note_on_c, 0, 67, 0
3, 239760, Note_on_c, 0, 67, 62
3, 239760, Note_on_c, 0, 72, 62
3, 240000, Note_on_c, 0, 72, 0
3, 240000, Note_on_c, 0, 67, 0
3, 240000, Note_on_c, 0, 79, 62
3, 240000, Note_on_c, 0, 81, 62
3, 240240, Note_on_c, 0, 81, 0
3, 240240, Note_on_c, 0, 79, 0
3, 240240, Note_on_c, 0, 79, 62
3, 240240, Note_on_c, 0, 82, 62
3, 240480, Note_on_c, 0, 82, 0
3, 240480, Note_on_c, 0, 79, 0
3, 240480, Note_on_c, 0, 79, 62
3, 240480, Note_on_c, 0, 83, 62
3, 240720, Note_on_c, 0, 83, 0
3, 240720, Note_on_c, 0, 79, 0
3, 240720, Note_on_c, 0, 79, 62
3, 240720, Note_on_c, 0, 85, 62
3, 240960, Note_on_c, 0, 85, 0
3, 240960, Note_on_c, 0, 79, 0
3, 240960, Note_on_c, 0, 79, 62
3, 240960, Note_on_c, 0, 83, 62
3, 241200, Note_on_c, 0, 83, 0
3, 241200, Note_on_c, 0, 79, 0
3, 241200, Note_on_c, 0, 79, 62
3, 241200, Note_on_c, 0, 82, 62
3, 241440, Note_on_c, 0, 82, 0
3, 241440, Note_on_c, 0, 79, 0
3, 241440, Note_on_c, 0, 79, 62
3, 241440, Note_on_c, 0, 81, 62
3, 241680, Note_on_c, 0, 81, 0
3, 241680, Note_on_c, 0, 79, 0
3, 241680, Note_on_c, 0, 79, 62
3, 241680, Note_on_c, 0, 85, 62
3, 241920, Note_on_c, 0, 85, 0
3, 241920, Note_on_c, 0, 79, 0
3, 241920, Note_on_c, 0, 79, 62
3, 241920, Note_on_c, 0, 81, 62
3, 242160, Note_on_c, 0, 81, 0
3, 242160, Note_on_c, 0, 79, 0
3, 242160, Note_on_c, 0, 79, 62
3, 242160, Note_on_c, 0, 82, 62
3, 242400, Note_on_c, 0, 82, 0
3, 242400, Note_on_c, 0, 79, 0
3, 242400, Note_on_c, 0, 79, 62
3, 242400, Note_on_c, 0, 83, 62
3, 242640, Note_on_c, 0, 83, 0
3, 242640, Note_on_c, 0, 79, 0
3, 242640, Note_on_c, 0, 79, 62
3, 242640, Note_on_c, 0, 85, 62
3, 242880, Note_on_c, 0, 85, 0
3, 242880, Note_on_c, 0, 79, 0
3, 242880, Note_on_c, 0, 79, 62
3, 242880, Note_on_c, 0, 83, 62
3, 243120, Note_on_c, 0, 83, 0
3, 243120, Note_on_c, 0, 79, 0
3, 243120, Note_on_c, 0, 79, 62
3, 243120, Note_on_c, 0, 82, 62
3, 243360, Note_on_c, 0, 82, 0
3, 243360, Note_on_c, 0, 79, 0
3, 243360, Note_on_c, 0, 79, 62
3, 243360, Note_on_c, 0, 81, 62
3, 243600, Note_on_c, 0, 81, 0
3, 243600, Note_on_c, 0, 79, 0
3, 243600, Note_on_c, 0, 79, 62
3, 243600, Note_on_c, 0, 85, 62
3, 243840, Note_on_c, 0, 85, 0
3, 243840, Note_on_c, 0, 79, 0
3, 243840, Note_on_c, 0, 69, 62
3, 244080, Note_on_c, 0, 69, 0
3, 244080, Note_on_c, 0, 69, 62
3, 244080, Note_on_c, 0, 71, 62
3, 244320, Note_on_c, 0, 71, 0
3, 244320, Note_on_c, 0, 69, 0
3, 244320, Note_on_c, 0, 69, 62
3, 244320, Note_on_c, 0, 73, 62
3, 244560, Note_on_c, 0, 73, 0
3, 244560, Note_on_c, 0, 69, 0
3, 244560, Note_on_c, 0, 69, 62
3, 244560, Note_on_c, 0, 74, 62
3, 244800, Note_on_c, 0, 74, 0
3, 244800, Note_on_c, 0, 69, 0
3, 244800, Note_on_c, 0, 69, 62
3, 245040, Note_on_c, 0, 69, 0
3, 245040, Note_on_c, 0, 69, 62
3, 245040, Note_on_c, 0, 71, 62
3, 245280, Note_on_c, 0, 71, 0
3, 245280, Note_on_c, 0, 69, 0
3, 245280, Note_on_c, 0, 69, 62
3, 245280, Note_on_c, 0, 73, 62
3, 245520, Note_on_c, 0, 73, 0
3, 245520, Note_on_c, 0, 69, 0
3, 245520, Note_on_c, 0, 69, 62
3, 245520, Note_on_c, 0, 74, 62
3, 245760, Note_on_c, 0, 74, 0
3, 245760, Note_on_c, 0, 69, 0
3, 245760, Note_on_c, 0, 78, 62
3, 245760, Note_on_c, 0, 81, 62
3, 246000, Note_on_c, 0, 81, 0
3, 246000, Note_on_c, 0, 78, 0
3, 246000, Note_on_c, 0, 78, 62
3, 246000, Note_on_c, 0, 81, 62
3, 246000, Note_on_c, 0, 83, 62
3, 246240, Note_on_c, 0, 83, 0
3, 246240, Note_on_c, 0, 81, 0
3, 246240, Note_on_c, 0, 78, 0
3, 246240, Note_on_c, 0, 78, 62
3, 246240, Note_on_c, 0, 81, 62
3, 246240, Note_on_c, 0, 85, 62
3, 246480, Note_on_c, 0, 85, 0
3, 246480, Note_on_c, 0, 81, 0
3, 246480, Note_on_c, 0, 78, 0
3, 246480, Note_on_c, 0, 78, 62
3, 246480, Note_on_c, 0, 81, 62
3, 246480, Note_on_c, 0, 86, 62
3, 246720, Note_on_c, 0, 86, 0
3, 246720, Note_on_c, 0, 81, 0
3, 246720, Note_on_c, 0, 78, 0
3, 246720, Note_on_c, 0, 78, 62
3, 246720, Note_on_c, 0, 81, 62
3, 246960, Note_on_c, 0, 81, 0
3, 246960, Note_on_c, 0, 78, 0
3, 246960, Note_on_c, 0, 78, 62
3, 246960, Note_on_c, 0, 81, 62
3, 246960, Note_on_c, 0, 83, 62
3, 247200, Note_on_c, 0, 83, 0
3, 247200, Note_on_c, 0, 81, 0
3, 247200, Note_on_c, 0, 78, 0
3, 247200, Note_on_c, 0, 78, 62
3, 247200, Note_on_c, 0, 81, 62
3, 247200, Note_on_c, 0, 85, 62
3, 247440, Note_on_c, 0, 85, 0
3, 247440, Note_on_c, 0, 81, 0
3, 247440, Note_on_c, 0, 78, 0
3, 247440, Note_on_c, 0, 78, 62
3, 247440, Note_on_c, 0, 81, 62
3, 247440, Note_on_c, 0, 86, 62
3, 247680, Note_on_c, 0, 86, 0
3, 247680, Note_on_c, 0, 81, 0
3, 247680, Note_on_c, 0, 78, 0
3, 247680, Note_on_c, 0, 67, 75
3, 247680, Note_on_c, 0, 70, 75
3, 247920, Note_on_c, 0, 70, 0
3, 247920, Note_on_c, 0, 67, 0
3, 247920, Note_on_c, 0, 67, 75
3, 247920, Note_on_c, 0, 70, 75
3, 247920, Note_on_c, 0, 72, 75
3, 248160, Note_on_c, 0, 72, 0
3, 248160, Note_on_c, 0, 70, 0
3, 248160, Note_on_c, 0, 67, 0
3, 248160, Note_on_c, 0, 67, 75
3, 248160, Note_on_c, 0, 70, 75
3, 248160, Note_on_c, 0, 74, 75
3, 248400, Note_on_c, 0, 74, 0
3, 248400, Note_on_c, 0, 70, 0
3, 248400, Note_on_c, 0, 67, 0
3, 248400, Note_on_c, 0, 67, 75
3, 248400, Note_on_c, 0, 70, 75
3, 248400, Note_on_c, 0, 75, 75
3, 248640, Note_on_c, 0, 75, 0
3, 248640, Note_on_c, 0, 70, 0
3, 248640, Note_on_c, 0, 67, 0
3, 248640, Note_on_c, 0, 67, 75
3, 248640, Note_on_c, 0, 70, 75
3, 248880, Note_on_c, 0, 70, 0
3, 248880, Note_on_c, 0, 67, 0
3, 248880, Note_on_c, 0, 67, 75
3, 248880, Note_on_c, 0, 70, 75
3, 248880, Note_on_c, 0, 72, 75
3, 249120, Note_on_c, 0, 72, 0
3, 249120, Note_on_c, 0, 70, 0
3, 249120, Note_on_c, 0, 67, 0
3, 249120, Note_on_c, 0, 67, 75
3, 249120, Note_on_c, 0, 70, 75
3, 249120, Note_on_c, 0, 74, 75
3, 249360, Note_on_c, 0, 74, 0
3, 249360, Note_on_c, 0, 70, 0
3, 249360, Note_on_c, 0, 67, 0
3, 249360, Note_on_c, 0, 67, 75
3, 249360, Note_on_c, 0, 70, 75
3, 249360, Note_on_c, 0, 75, 75
3, 249600, Note_on_c, 0, 75, 0
3, 249600, Note_on_c, 0, 70, 0
3, 249600, Note_on_c, 0, 67, 0
3, 249600, Note_on_c, 0, 71, 75
3, 249840, Note_on_c, 0, 71, 0
3, 249840, Note_on_c, 0, 71, 75
3, 249840, Note_on_c, 0, 73, 75
3, 250080, Note_on_c, 0, 73, 0
3, 250080, Note_on_c, 0, 71, 0
3, 250080, Note_on_c, 0, 71, 75
3, 250080, Note_on_c, 0, 75, 75
3, 250320, Note_on_c, 0, 75, 0
3, 250320, Note_on_c, 0, 71, 0
3, 250320, Note_on_c, 0, 71, 75
3, 250320, Note_on_c, 0, 76, 75
3, 250560, Note_on_c, 0, 76, 0
3, 250560, Note_on_c, 0, 71, 0
3, 250560, Note_on_c, 0, 71, 75
3, 250800, Note_on_c, 0, 71, 0
3, 250800, Note_on_c, 0, 71, 75
3, 250800, Note_on_c, 0, 73, 75
3, 251040, Note_on_c, 0, 73, 0
3, 251040, Note_on_c, 0, 71, 0
3, 251040, Note_on_c, 0, 71, 75
3, 251040, Note_on_c, 0, 75, 75
3, 251280, Note_on_c, 0, 75, 0
3, 251280, Note_on_c, 0, 71, 0
3, 251280, Note_on_c, 0, 71, 75
3, 251280, Note_on_c, 0, 76, 75
3, 251520, Note_on_c, 0, 76, 0
3, 251520, Note_on_c, 0, 71, 0
3, 251520, Note_on_c, 0, 72, 75
3, 251760, Note_on_c, 0, 72, 0
3, 251760, Note_on_c, 0, 74, 75
3, 252000, Note_on_c, 0, 74, 0
3, 252000, Note_on_c, 0, 76, 75
3, 252240, Note_on_c, 0, 76, 0
3, 252240, Note_on_c, 0, 77, 75
3, 252480, Note_on_c, 0, 77, 0
3, 252480, Note_on_c, 0, 73, 88
3, 252720, Note_on_c, 0, 73, 0
3, 252720, Note_on_c, 0, 74, 88
3, 252960, Note_on_c, 0, 74, 0
3, 252960, Note_on_c, 0, 76, 88
3, 253200, Note_on_c, 0, 76, 0
3, 253200, Note_on_c, 0, 74, 88
3, 253200, Note_on_c, 0, 77, 88
3, 253440, Note_on_c, 0, 77, 0
3, 253440, Note_on_c, 0, 74, 0
3, 253440, Note_on_c, 0, 71, 88
3, 253440, Note_on_c, 0, 74, 88
3, 253680, Note_on_c, 0, 74, 0
3, 253680, Note_on_c, 0, 71, 0
3, 253680, Note_on_c, 0, 71, 88
3, 253680, Note_on_c, 0, 75, 88
3, 253920, Note_on_c, 0, 75, 0
3, 253920, Note_on_c, 0, 71, 0
3, 253920, Note_on_c, 0, 71, 88
3, 253920, Note_on_c, 0, 76, 88
3, 254160, Note_on_c, 0, 76, 0
3, 254160, Note_on_c, 0, 71, 0
3, 254160, Note_on_c, 0, 71, 88
3, 254160, Note_on_c, 0, 77, 88
3, 254400, Note_on_c, 0, 77, 0
3, 254400, Note_on_c, 0, 71, 0
3, 254400, Note_on_c, 0, 72, 88
3, 254400, Note_on_c, 0, 75, 88
3, 254640, Note_on_c, 0, 75, 0
3, 254640, Note_on_c, 0, 72, 0
3, 254640, Note_on_c, 0, 72, 88
3, 254640, Note_on_c, 0, 77, 88
3, 254880, Note_on_c, 0, 77, 0
3, 254880, Note_on_c, 0, 72, 0
3, 254880, Note_on_c, 0, 72, 88
3, 254880, Note_on_c, 0, 79, 88
3, 255120, Note_on_c, 0, 79, 0
3, 255120, Note_on_c, 0, 72, 0
3, 255120, Note_on_c, 0, 72, 88
3, 255120, Note_on_c, 0, 80, 88
3, 255360, Note_on_c, 0, 80, 0
3, 255360, Note_on_c, 0, 72, 0
3, 255360, Note_on_c, 0, 73, 88
3, 255360, Note_on_c, 0, 76, 88
3, 255600, Note_on_c, 0, 76, 0
3, 255600, Note_on_c, 0, 73, 0
3, 255600, Note_on_c, 0, 73, 88
3, 255600, Note_on_c, 0, 77, 88
3, 255840, Note_on_c, 0, 77, 0
3, 255840, Note_on_c, 0, 73, 0
3, 255840, Note_on_c, 0, 73, 88
3, 255840, Note_on_c, 0, 78, 88
3, 256080, Note_on_c, 0, 78, 0
3, 256080, Note_on_c, 0, 73, 0
3, 256080, Note_on_c, 0, 73, 88
3, 256080, Note_on_c, 0, 79, 88
3, 256320, Note_on_c, 0, 79, 0
3, 256320, Note_on_c, 0, 73, 0
3, 256320, Note_on_c, 0, 73, 88
3, 256320, Note_on_c, 0, 76, 88
3, 256560, Note_on_c, 0, 76, 0
3, 256560, Note_on_c, 0, 73, 0
3, 256560, Note_on_c, 0, 73, 88
3, 256560, Note_on_c, 0, 77, 88
3, 256800, Note_on_c, 0, 77, 0
3, 256800, Note_on_c, 0, 73, 0
3, 256800, Note_on_c, 0, 73, 88
3, 256800, Note_on_c, 0, 78, 88
3, 257040, Note_on_c, 0, 78, 0
3, 257040, Note_on_c, 0, 73, 0
3, 257040, Note_on_c, 0, 73, 88
3, 257040, Note_on_c, 0, 79, 88
3, 257280, Note_on_c, 0, 79, 0
3, 257280, Note_on_c, 0, 73, 0
3, 257280, Note_on_c, 0, 73, 101
3, 257280, Note_on_c, 0, 76, 101
3, 257520, Note_on_c, 0, 76, 0
3, 257520, Note_on_c, 0, 73, 0
3, 257520, Note_on_c, 0, 73, 101
3, 257520, Note_on_c, 0, 77, 101
3, 257760, Note_on_c, 0, 77, 0
3, 257760, Note_on_c, 0, 73, 0
3, 257760, Note_on_c, 0, 73, 101
3, 257760, Note_on_c, 0, 78, 101
3, 258000, Note_on_c, 0, 78, 0
3, 258000, Note_on_c, 0, 73, 0
3, 258000, Note_on_c, 0, 73, 101
3, 258000, Note_on_c, 0, 79, 101
3, 258240, Note_on_c, 0, 79, 0
3, 258240, Note_on_c, 0, 73, 0
3, 258240, Note_on_c, 0, 73, 101
3, 258240, Note_on_c, 0, 76, 101
3, 258480, Note_on_c, 0, 76, 0
3, 258480, Note_on_c, 0, 73, 0
3, 258480, Note_on_c, 0, 73, 101
3, 258480, Note_on_c, 0, 77, 101
3, 258720, Note_on_c, 0, 77, 0
3, 258720, Note_on_c, 0, 73, 0
3, 258720, Note_on_c, 0, 73, 101
3, 258720, Note_on_c, 0, 78, 101
3, 258960, Note_on_c, 0, 78, 0
3, 258960, Note_on_c, 0, 73, 0
3, 258960, Note_on_c, 0, 73, 101
3, 258960, Note_on_c, 0, 79, 101
3, 259200, Note_on_c, 0, 79, 0
3, 259200, Note_on_c, 0, 73, 0
3, 259200, End_track
4, 0, Start_track
4, 0, Title_t, "Grand Piano"
4, 0, Program_c, 0, 0
4, 0, Control_c, 0, 7, 115
4, 0, Control_c, 0, 10, 41
4, 3840, Note_on_c, 0, 72, 49
4, 4800, Note_on_c, 0, 72, 0
4, 4800, Note_on_c, 0, 68, 49
4, 4800, Note_on_c, 0, 72, 49
4, 5760, Note_on_c, 0, 72, 0
4, 5760, Note_on_c, 0, 68, 0
4, 5760, Note_on_c, 0, 64, 49
4, 5760, Note_on_c, 0, 69, 49
4, 7440, Note_on_c, 0, 69, 0
4, 7440, Note_on_c, 0, 64, 0
4, 7440, Note_on_c, 0, 64, 49
4, 7440, Note_on_c, 0, 69, 49
4, 7680, Note_on_c, 0, 69, 0
4, 7680, Note_on_c, 0, 64, 0
4, 7680, Note_on_c, 0, 69, 49
4, 8640, Note_on_c, 0, 69, 0
4, 8640, Note_on_c, 0, 63, 49
4, 8640, Note_on_c, 0, 66, 49
4, 8640, Note_on_c, 0, 68, 49
4, 9600, Note_on_c, 0, 68, 0
4, 9600, Note_on_c, 0, 66, 0
4, 9600, Note_on_c, 0, 63, 0
4, 9600, Note_on_c, 0, 60, 49
4, 9600, Note_on_c, 0, 63, 49
4, 9600, Note_on_c, 0, 67, 49
4, 11280, Note_on_c, 0, 67, 0
4, 11280, Note_on_c, 0, 63, 0
4, 11280, Note_on_c, 0, 60, 0
4, 11280, Note_on_c, 0, 60, 49
4, 11280, Note_on_c, 0, 62, 49
4, 11280, Note_on_c, 0, 66, 49
4, 11520, Note_on_c, 0, 66, 0
4, 11520, Note_on_c, 0, 62, 0
4, 11520, Note_on_c, 0, 60, 0
4, 11520, Note_on_c, 0, 63, 49
4, 12480, Note_on_c, 0, 63, 0
4, 12480, Note_on_c, 0, 60, 49
4, 12480, Note_on_c, 0, 63, 49
4, 12480, Note_on_c, 0, 65, 49
4, 13440, Note_on_c, 0, 65, 0
4, 13440, Note_on_c, 0, 63, 0
4, 13440, Note_on_c, 0, 60, 0
4, 13440, Note_on_c, 0, 56, 49
4, 13440, Note_on_c, 0, 60, 49
4, 13440, Note_on_c, 0, 63, 49
4, 13440, Note_on_c, 0, 66, 49
4, 14400, Note_on_c, 0, 66, 0
4, 14400, Note_on_c, 0, 56, 0
4, 14400, Note_on_c, 0, 60, 0
4, 14400, Note_on_c, 0, 63, 0
4, 14400, Note_on_c, 0, 51, 49
4, 14400, Note_on_c, 0, 55, 49
4, 14400, Note_on_c, 0, 60, 49
4, 14400, Note_on_c, 0, 63, 49
4, 15360, Note_on_c, 0, 63, 0
4, 15360, Note_on_c, 0, 51, 0
4, 15360, Note_on_c, 0, 55, 0
4, 15360, Note_on_c, 0, 60, 0
4, 16320, Control_c, 0, 64, 127
4, 16320, Note_on_c, 0, 41, 75
4, 16388, Note_on_c, 0, 41, 0
4, 16388, Note_on_c, 0, 45, 75
4, 16457, Note_on_c, 0, 45, 0
4, 16457, Note_on_c, 0, 48, 75
4, 16525, Note_on_c, 0, 48, 0
4, 16525, Note_on_c, 0, 53, 75
4, 16594, Note_on_c, 0, 53, 0
4, 16594, Note_on_c, 0, 57, 75
4, 16662, Note_on_c, 0, 57, 0
4, 16662, Note_on_c, 0, 60, 75
4, 16731, Note_on_c, 0, 60, 0
4, 16731, Note_on_c, 0, 63, 75
4, 16800, Note_on_c, 0, 63, 0
4, 16800, Note_on_c, 0, 69, 75
4, 16868, Note_on_c, 0, 69, 0
4, 16868, Note_on_c, 0, 72, 75
4, 16937, Note_on_c, 0, 72, 0
4, 16937, Note_on_c, 0, 75, 75
4, 17005, Note_on_c, 0, 75, 0
4, 17005, Note_on_c, 0, 81, 75
4, 17074, Note_on_c, 0, 81, 0
4, 17074, Note_on_c, 0, 84, 75
4, 17142, Note_on_c, 0, 84, 0
4, 17142, Note_on_c, 0, 87, 75
4, 17211, Note_on_c, 0, 87, 0
4, 17211, Note_on_c, 0, 93, 75
4, 17280, Note_on_c, 0, 93, 0
4, 17280, Note_on_c, 0, 96, 75
4, 17348, Note_on_c, 0, 96, 0
4, 17348, Note_on_c, 0, 93, 75
4, 17417, Note_on_c, 0, 93, 0
4, 17417, Note_on_c, 0, 87, 75
4, 17485, Note_on_c, 0, 87, 0
4, 17485, Note_on_c, 0, 84, 75
4, 17554, Note_on_c, 0, 84, 0
4, 17554, Note_on_c, 0, 81, 75
4, 17622, Note_on_c, 0, 81, 0
4, 17622, Note_on_c, 0, 75, 75
4, 17691, Note_on_c, 0, 75, 0
4, 17691, Note_on_c, 0, 72, 75
4, 17760, Note_on_c, 0, 72, 0
4, 17760, Note_on_c, 0, 69, 75
4, 17828, Note_on_c, 0, 69, 0
4, 17828, Note_on_c, 0, 63, 75
4, 17897, Note_on_c, 0, 63, 0
4, 17897, Note_on_c, 0, 60, 75
4, 17965, Note_on_c, 0, 60, 0
4, 17965, Note_on_c, 0, 57, 75
4, 18034, Note_on_c, 0, 57, 0
4, 18034, Note_on_c, 0, 53, 75
4, 18102, Note_on_c, 0, 53, 0
4, 18102, Note_on_c, 0, 48, 75
4, 18171, Note_on_c, 0, 48, 0
4, 18171, Note_on_c, 0, 45, 75
4, 18240, Note_on_c, 0, 45, 0
4, 18240, Note_on_c, 0, 41, 75
4, 18480, Note_on_c, 0, 41, 0
4, 18480, Control_c, 0, 64, 0
4, 19200, Note_on_c, 0, 53, 49
4, 19200, Note_on_c, 0, 57, 49
4, 19200, Note_on_c, 0, 60, 49
4, 19247, Note_on_c, 0, 60, 0
4, 19247, Note_on_c, 0, 57, 0
4, 19247, Note_on_c, 0, 53, 0
4, 19440, Note_on_c, 0, 52, 49
4, 19440, Note_on_c, 0, 57, 49
4, 19440, Note_on_c, 0, 60, 49
4, 19487, Note_on_c, 0, 60, 0
4, 19487, Note_on_c, 0, 57, 0
4, 19487, Note_on_c, 0, 52, 0
4, 19680, Note_on_c, 0, 51, 49
4, 19680, Note_on_c, 0, 57, 49
4, 19680, Note_on_c, 0, 60, 49
4, 20040, Note_on_c, 0, 60, 0
4, 20040, Note_on_c, 0, 57, 0
4, 20040, Note_on_c, 0, 51, 0
4, 20040, Note_on_c, 0, 50, 49
4, 20040, Note_on_c, 0, 57, 49
4, 20040, Note_on_c, 0, 62, 49
4, 20063, Note_on_c, 0, 62, 0
4, 20063, Note_on_c, 0, 57, 0
4, 20063, Note_on_c, 0, 50, 0
4, 20160, Note_on_c, 0, 51, 49
4, 20160, Note_on_c, 0, 57, 49
4, 20160, Note_on_c, 0, 60, 49
4, 20183, Note_on_c, 0, 60, 0
4, 20183, Note_on_c, 0, 57, 0
4, 20183, Note_on_c, 0, 51, 0
4, 20280, Note_on_c, 0, 50, 49
4, 20280, Note_on_c, 0, 57, 49
4, 20280, Note_on_c, 0, 62, 49
4, 20303, Note_on_c, 0, 62, 0
4, 20303, Note_on_c, 0, 57, 0
4, 20303, Note_on_c, 0, 50, 0
4, 20400, Note_on_c, 0, 51, 49
4, 20400, Note_on_c, 0, 57, 49
4, 20400, Note_on_c, 0, 60, 49
4, 20423, Note_on_c, 0, 60, 0
4, 20423, Note_on_c, 0, 57, 0
4, 20423, Note_on_c, 0, 51, 0
4, 20520, Note_on_c, 0, 50, 49
4, 20520, Note_on_c, 0, 57, 49
4, 20520, Note_on_c, 0, 62, 49
4, 20543, Note_on_c, 0, 62, 0
4, 20543, Note_on_c, 0, 57, 0
4, 20543, Note_on_c, 0, 50, 0
4, 20640, Note_on_c, 0, 51, 49
4, 20640, Note_on_c, 0, 57, 49
4, 20640, Note_on_c, 0, 60, 49
4, 20663, Note_on_c, 0, 60, 0
4, 20663, Note_on_c, 0, 57, 0
4, 20663, Note_on_c, 0, 51, 0
4, 21120, Note_on_c, 0, 63, 49
4, 21120, Note_on_c, 0, 69, 49
4, 21840, Note_on_c, 0, 69, 0
4, 21840, Note_on_c, 0, 63, 0
4, 21840, Note_on_c, 0, 65, 49
4, 22080, Note_on_c, 0, 65, 0
4, 22080, Note_on_c, 0, 66, 49
4, 22800, Note_on_c, 0, 66, 0
4, 23040, Note_on_c, 0, 69, 49
4, 23040, Note_on_c, 0, 72, 49
4, 23087, Note_on_c, 0, 72, 0
4, 23087, Note_on_c, 0, 69, 0
4, 23280, Note_on_c, 0, 67, 49
4, 23280, Note_on_c, 0, 72, 49
4, 23327, Note_on_c, 0, 72, 0
4, 23327, Note_on_c, 0, 67, 0
4, 23520, Note_on_c, 0, 66, 49
4, 23520, Note_on_c, 0, 72, 49
4, 23592, Note_on_c, 0, 72, 0
4, 23592, Note_on_c, 0, 66, 0
4, 23880, Note_on_c, 0, 65, 49
4, 23880, Note_on_c, 0, 72, 49
4, 23903, Note_on_c, 0, 72, 0
4, 23903, Note_on_c, 0, 65, 0
4, 24000, Note_on_c, 0, 66, 49
4, 24000, Note_on_c, 0, 72, 49
4, 24023, Note_on_c, 0, 72, 0
4, 24023, Note_on_c, 0, 66, 0
4, 24120, Note_on_c, 0, 65, 49
4, 24120, Note_on_c, 0, 72, 49
4, 24143, Note_on_c, 0, 72, 0
4, 24143, Note_on_c, 0, 65, 0
4, 24240, Note_on_c, 0, 66, 49
4, 24240, Note_on_c, 0, 72, 49
4, 24263, Note_on_c, 0, 72, 0
4, 24263, Note_on_c, 0, 66, 0
4, 24360, Note_on_c, 0, 65, 49
4, 24360, Note_on_c, 0, 72, 49
4, 24383, Note_on_c, 0, 72, 0
4, 24383, Note_on_c, 0, 65, 0
4, 24480, Note_on_c, 0, 66, 49
4, 24480, Note_on_c, 0, 72, 49
4, 24503, Note_on_c, 0, 72, 0
4, 24503, Note_on_c, 0, 66, 0
4, 24960, Note_on_c, 0, 78, 75
4, 24960, Note_on_c, 0, 84, 75
4, 25680, Note_on_c, 0, 84, 0
4, 25680, Note_on_c, 0, 78, 0
4, 25680, Note_on_c, 0, 80, 49
4, 25920, Note_on_c, 0, 80, 0
4, 25920, Note_on_c, 0, 81, 49
4, 26400, Note_on_c, 0, 81, 0
4, 26400, Note_on_c, 0, 84, 49
4, 26640, Note_on_c, 0, 84, 0
4, 29200, Note_on_c, 0, 54, 49
4, 29240, Note_on_c, 0, 57, 49
4, 29280, Note_on_c, 0, 63, 49
4, 29680, Note_on_c, 0, 42, 49
4, 29720, Note_on_c, 0, 45, 49
4, 29760, Note_on_c, 0, 63, 0
4, 29760, Note_on_c, 0, 54, 0
4, 29760, Note_on_c, 0, 57, 0
4, 29760, Note_on_c, 0, 51, 49
4, 30160, Note_on_c, 0, 30, 49
4, 30200, Note_on_c, 0, 33, 49
4, 30240, Note_on_c, 0, 51, 0
4, 30240, Note_on_c, 0, 45, 0
4, 30240, Note_on_c, 0, 42, 0
4, 30240, Note_on_c, 0, 39, 49
4, 30720, Note_on_c, 0, 39, 0
4, 30720, Note_on_c, 0, 30, 0
4, 30720, Note_on_c, 0, 33, 0
4, 31120, Note_on_c, 0, 51, 49
4, 31160, Note_on_c, 0, 54, 49
4, 31200, Note_on_c, 0, 57, 49
4, 31600, Note_on_c, 0, 39, 49
4, 31640, Note_on_c, 0, 42, 49
4, 31680, Note_on_c, 0, 57, 0
4, 31680, Note_on_c, 0, 51, 0
4, 31680, Note_on_c, 0, 54, 0
4, 31680, Note_on_c, 0, 45, 49
4, 32080, Note_on_c, 0, 27, 49
4, 32120, Note_on_c, 0, 30, 49
4, 32160, Note_on_c, 0, 45, 0
4, 32160, Note_on_c, 0, 42, 0
4, 32160, Note_on_c, 0, 39, 0
4, 32160, Note_on_c, 0, 33, 49
4, 32640, Note_on_c, 0, 33, 0
4, 32640, Note_on_c, 0, 27, 0
4, 32640, Note_on_c, 0, 30, 0
4, 33040, Note_on_c, 0, 51, 49
4, 33080, Note_on_c, 0, 54, 49
4, 33120, Note_on_c, 0, 57, 49
4, 33520, Note_on_c, 0, 39, 49
4, 33560, Note_on_c, 0, 42, 49
4, 33600, Note_on_c, 0, 57, 0
4, 33600, Note_on_c, 0, 51, 0
4, 33600, Note_on_c, 0, 54, 0
4, 33600, Note_on_c, 0, 45, 49
4, 34000, Note_on_c, 0, 27, 49
4, 34040, Note_on_c, 0, 30, 49
4, 34080, Note_on_c, 0, 45, 0
4, 34080, Note_on_c, 0, 42, 0
4, 34080, Note_on_c, 0, 39, 0
4, 34080, Note_on_c, 0, 33, 49
4, 34560, Note_on_c, 0, 33, 0
4, 34560, Note_on_c, 0, 27, 0
4, 34560, Note_on_c, 0, 30, 0
4, 34560, Note_on_c, 0, 28, 49
4, 34560, Note_on_c, 0, 31, 49
4, 34560, Note_on_c, 0, 43, 49
4, 35520, Note_on_c, 0, 43, 0
4, 35520, Note_on_c, 0, 31, 0
4, 35520, Note_on_c, 0, 28, 0
4, 35520, Note_on_c, 0, 29, 49
4, 35520, Note_on_c, 0, 32, 49
4, 35520, Note_on_c, 0, 44, 49
4, 36480, Note_on_c, 0, 44, 0
4, 36480, Note_on_c, 0, 32, 0
4, 36480, Note_on_c, 0, 29, 0
4, 36480, Note_on_c, 0, 28, 49
4, 36480, Note_on_c, 0, 31, 49
4, 36480, Note_on_c, 0, 43, 49
4, 36960, Note_on_c, 0, 43, 0
4, 36960, Note_on_c, 0, 31, 0
4, 36960, Note_on_c, 0, 28, 0
4, 36960, Note_on_c, 0, 40, 49
4, 36960, Note_on_c, 0, 43, 49
4, 37440, Note_on_c, 0, 43, 0
4, 37440, Note_on_c, 0, 40, 0
4, 37440, Note_on_c, 0, 39, 49
4, 37440, Note_on_c, 0, 42, 49
4, 37440, Note_on_c, 0, 44, 49
4, 38400, Note_on_c, 0, 44, 0
4, 38400, Note_on_c, 0, 42, 0
4, 38400, Note_on_c, 0, 39, 0
4, 38400, Control_c, 0, 64, 127
4, 38400, Note_on_c, 0, 40, 49
4, 38400, Note_on_c, 0, 43, 49
4, 39120, Note_on_c, 0, 43, 0
4, 39120, Note_on_c, 0, 40, 0
4, 39120, Note_on_c, 0, 43, 49
4, 39120, Note_on_c, 0, 48, 49
4, 39360, Note_on_c, 0, 48, 0
4, 39360, Note_on_c, 0, 43, 0
4, 39360, Note_on_c, 0, 48, 49
4, 39360, Note_on_c, 0, 52, 49
4, 39600, Note_on_c, 0, 52, 0
4, 39600, Note_on_c, 0, 48, 0
4, 39600, Note_on_c, 0, 52, 49
4, 39600, Note_on_c, 0, 55, 49
4, 39840, Note_on_c, 0, 55, 0
4, 39840, Note_on_c, 0, 52, 0
4, 39840, Note_on_c, 0, 55, 49
4, 39840, Note_on_c, 0, 60, 49
4, 40080, Note_on_c, 0, 60, 0
4, 40080, Note_on_c, 0, 55, 0
4, 40080, Note_on_c, 0, 60, 49
4, 40080, Note_on_c, 0, 64, 49
4, 40320, Note_on_c, 0, 64, 0
4, 40320, Note_on_c, 0, 60, 0
4, 40320, Note_on_c, 0, 64, 49
4, 40320, Note_on_c, 0, 67, 49
4, 40560, Note_on_c, 0, 67, 0
4, 40560, Note_on_c, 0, 64, 0
4, 40560, Note_on_c, 0, 67, 49
4, 40560, Note_on_c, 0, 72, 49
4, 40800, Note_on_c, 0, 72, 0
4, 40800, Note_on_c, 0, 67, 0
4, 40800, Control_c, 0, 64, 0
4, 40800, Note_on_c, 0, 72, 49
4, 40800, Note_on_c, 0, 76, 49
4, 41520, Note_on_c, 0, 76, 0
4, 41520, Note_on_c, 0, 72, 0
4, 42240, Note_on_c, 0, 68, 49
4, 43200, Note_on_c, 0, 68, 0
4, 43200, Note_on_c, 0, 64, 49
4, 43200, Note_on_c, 0, 68, 49
4, 44160, Note_on_c, 0, 68, 0
4, 44160, Note_on_c, 0, 64, 0
4, 44160, Note_on_c, 0, 60, 49
4, 44160, Note_on_c, 0, 65, 49
4, 44160, Note_on_c, 0, 69, 49
4, 45840, Note_on_c, 0, 69, 0
4, 45840, Note_on_c, 0, 65, 0
4, 45840, Note_on_c, 0, 60, 0
4, 45840, Note_on_c, 0, 60, 49
4, 45840, Note_on_c, 0, 65, 49
4, 45840, Note_on_c, 0, 69, 49
4, 46080, Note_on_c, 0, 69, 0
4, 46080, Note_on_c, 0, 65, 0
4, 46080, Note_on_c, 0, 60, 0
4, 46080, Note_on_c, 0, 65, 49
4, 47040, Note_on_c, 0, 65, 0
4, 47040, Note_on_c, 0, 60, 49
4, 47040, Note_on_c, 0, 65, 49
4, 48000, Note_on_c, 0, 65, 0
4, 48000, Note_on_c, 0, 60, 0
4, 48000, Note_on_c, 0, 57, 49
4, 48000, Note_on_c, 0, 60, 49
4, 48000, Note_on_c, 0, 64, 49
4, 49680, Note_on_c, 0, 64, 0
4, 49680, Note_on_c, 0, 60, 0
4, 49680, Note_on_c, 0, 57, 0
4, 49680, Note_on_c, 0, 57, 49
4, 49680, Note_on_c, 0, 60, 49
4, 49680, Note_on_c, 0, 64, 49
4, 49920, Note_on_c, 0, 64, 0
4, 49920, Note_on_c, 0, 60, 0
4, 49920, Note_on_c, 0, 57, 0
4, 49920, Note_on_c, 0, 60, 49
4, 49920, Note_on_c, 0, 64, 49
4, 50880, Note_on_c, 0, 64, 0
4, 50880, Note_on_c, 0, 60, 0
4, 50880, Note_on_c, 0, 56, 49
4, 50880, Note_on_c, 0, 60, 49
4, 50880, Note_on_c, 0, 63, 49
4, 51840, Note_on_c, 0, 63, 0
4, 51840, Note_on_c, 0, 60, 0
4, 51840, Note_on_c, 0, 56, 0
4, 51840, Note_on_c, 0, 53, 49
4, 51840, Note_on_c, 0, 56, 49
4, 51840, Note_on_c, 0, 60, 49
4, 51840, Note_on_c, 0, 62, 49
4, 52800, Note_on_c, 0, 62, 0
4, 52800, Note_on_c, 0, 53, 0
4, 52800, Note_on_c, 0, 56, 0
4, 52800, Note_on_c, 0, 60, 0
4, 52800, Note_on_c, 0, 48, 49
4, 52800, Note_on_c, 0, 51, 49
4, 52800, Note_on_c, 0, 55, 49
4, 52800, Note_on_c, 0, 60, 49
4, 53760, Note_on_c, 0, 60, 0
4, 53760, Note_on_c, 0, 48, 0
4, 53760, Note_on_c, 0, 51, 0
4, 53760, Note_on_c, 0, 55, 0
4, 53760, Note_on_c, 0, 44, 49
4, 53760, Note_on_c, 0, 52, 49
4, 53760, Note_on_c, 0, 56, 49
4, 53760, Note_on_c, 0, 60, 49
4, 54720, Note_on_c, 0, 60, 0
4, 54720, Note_on_c, 0, 44, 0
4, 54720, Note_on_c, 0, 52, 0
4, 54720, Note_on_c, 0, 56, 0
4, 54720, Note_on_c, 0, 39, 49
4, 54720, Note_on_c, 0, 51, 49
4, 55680, Note_on_c, 0, 51, 0
4, 55680, Note_on_c, 0, 39, 0
4, 57600, Note_on_c, 0, 57, 49
4, 57600, Note_on_c, 0, 60, 49
4, 57600, Note_on_c, 0, 63, 49
4, 57647, Note_on_c, 0, 63, 0
4, 57647, Note_on_c, 0, 60, 0
4, 57647, Note_on_c, 0, 57, 0
4, 57840, Note_on_c, 0, 56, 49
4, 57840, Note_on_c, 0, 60, 49
4, 57840, Note_on_c, 0, 63, 49
4, 57887, Note_on_c, 0, 63, 0
4, 57887, Note_on_c, 0, 60, 0
4, 57887, Note_on_c, 0, 56, 0
4, 58080, Note_on_c, 0, 54, 49
4, 58080, Note_on_c, 0, 60, 49
4, 58080, Note_on_c, 0, 63, 49
4, 58440, Note_on_c, 0, 63, 0
4, 58440, Note_on_c, 0, 60, 0
4, 58440, Note_on_c, 0, 54, 0
4, 58440, Note_on_c, 0, 53, 49
4, 58440, Note_on_c, 0, 60, 49
4, 58440, Note_on_c, 0, 63, 49
4, 58463, Note_on_c, 0, 63, 0
4, 58463, Note_on_c, 0, 60, 0
4, 58463, Note_on_c, 0, 53, 0
4, 58560, Note_on_c, 0, 54, 49
4, 58560, Note_on_c, 0, 60, 49
4, 58560, Note_on_c, 0, 63, 49
4, 58583, Note_on_c, 0, 63, 0
4, 58583, Note_on_c, 0, 60, 0
4, 58583, Note_on_c, 0, 54, 0
4, 58680, Note_on_c, 0, 53, 49
4, 58680, Note_on_c, 0, 60, 49
4, 58680, Note_on_c, 0, 63, 49
4, 58703, Note_on_c, 0, 63, 0
4, 58703, Note_on_c, 0, 60, 0
4, 58703, Note_on_c, 0, 53, 0
4, 58800, Note_on_c, 0, 54, 49
4, 58800, Note_on_c, 0, 60, 49
4, 58800, Note_on_c, 0, 63, 49
4, 58823, Note_on_c, 0, 63, 0
4, 58823, Note_on_c, 0, 60, 0
4, 58823, Note_on_c, 0, 54, 0
4, 58920, Note_on_c, 0, 53, 49
4, 58920, Note_on_c, 0, 60, 49
4, 58920, Note_on_c, 0, 63, 49
4, 58943, Note_on_c, 0, 63, 0
4, 58943, Note_on_c, 0, 60, 0
4, 58943, Note_on_c, 0, 53, 0
4, 59040, Note_on_c, 0, 54, 49
4, 59040, Note_on_c, 0, 60, 49
4, 59040, Note_on_c, 0, 63, 49
4, 59063, Note_on_c, 0, 63, 0
4, 59063, Note_on_c, 0, 60, 0
4, 59063, Note_on_c, 0, 54, 0
4, 59520, Note_on_c, 0, 66, 75
4, 59520, Note_on_c, 0, 72, 75
4, 60240, Note_on_c, 0, 72, 0
4, 60240, Note_on_c, 0, 66, 0
4, 60240, Note_on_c, 0, 67, 49
4, 60480, Note_on_c, 0, 67, 0
4, 60480, Note_on_c, 0, 68, 49
4, 61200, Note_on_c, 0, 68, 0
4, 61440, Note_on_c, 0, 54, 49
4, 61440, Note_on_c, 0, 56, 49
4, 61440, Note_on_c, 0, 60, 49
4, 61487, Note_on_c, 0, 60, 0
4, 61487, Note_on_c, 0, 56, 0
4, 61487, Note_on_c, 0, 54, 0
4, 61680, Note_on_c, 0, 52, 49
4, 61680, Note_on_c, 0, 56, 49
4, 61680, Note_on_c, 0, 60, 49
4, 61727, Note_on_c, 0, 60, 0
4, 61727, Note_on_c, 0, 56, 0
4, 61727, Note_on_c, 0, 52, 0
4, 61920, Note_on_c, 0, 51, 75
4, 61920, Note_on_c, 0, 57, 75
4, 61920, Note_on_c, 0, 60, 75
4, 62280, Note_on_c, 0, 60, 0
4, 62280, Note_on_c, 0, 57, 0
4, 62280, Note_on_c, 0, 51, 0
4, 62280, Note_on_c, 0, 50, 49
4, 62280, Note_on_c, 0, 56, 49
4, 62280, Note_on_c, 0, 60, 49
4, 62400, Note_on_c, 0, 60, 0
4, 62400, Note_on_c, 0, 56, 0
4, 62400, Note_on_c, 0, 50, 0
4, 62400, Note_on_c, 0, 51, 49
4, 62400, Note_on_c, 0, 57, 49
4, 62400, Note_on_c, 0, 60, 49
4, 62423, Note_on_c, 0, 60, 0
4, 62423, Note_on_c, 0, 57, 0
4, 62423, Note_on_c, 0, 51, 0
4, 62520, Note_on_c, 0, 50, 49
4, 62520, Note_on_c, 0, 56, 49
4, 62520, Note_on_c, 0, 60, 49
4, 62543, Note_on_c, 0, 60, 0
4, 62543, Note_on_c, 0, 56, 0
4, 62543, Note_on_c, 0, 50, 0
4, 62640, Note_on_c, 0, 51, 49
4, 62640, Note_on_c, 0, 57, 49
4, 62640, Note_on_c, 0, 60, 49
4, 62663, Note_on_c, 0, 60, 0
4, 62663, Note_on_c, 0, 57, 0
4, 62663, Note_on_c, 0, 51, 0
4, 62760, Note_on_c, 0, 50, 49
4, 62760, Note_on_c, 0, 56, 49
4, 62760, Note_on_c, 0, 60, 49
4, 62783, Note_on_c, 0, 60, 0
4, 62783, Note_on_c, 0, 56, 0
4, 62783, Note_on_c, 0, 50, 0
4, 62880, Note_on_c, 0, 51, 49
4, 62880, Note_on_c, 0, 57, 49
4, 62880, Note_on_c, 0, 60, 49
4, 62903, Note_on_c, 0, 60, 0
4, 62903, Note_on_c, 0, 57, 0
4, 62903, Note_on_c, 0, 51, 0
4, 63360, Note_on_c, 0, 75, 75
4, 63360, Note_on_c, 0, 81, 75
4, 64080, Note_on_c, 0, 81, 0
4, 64080, Note_on_c, 0, 75, 0
4, 64080, Note_on_c, 0, 77, 49
4, 64320, Note_on_c, 0, 77, 0
4, 64320, Note_on_c, 0, 78, 49
4, 65040, Note_on_c, 0, 78, 0
4, 65670, Note_on_c, 0, 69, 75
4, 65700, Note_on_c, 0, 72, 75
4, 65730, Note_on_c, 0, 75, 75
4, 65760, Note_on_c, 0, 78, 75
4, 66150, Note_on_c, 0, 57, 75
4, 66180, Note_on_c, 0, 60, 75
4, 66210, Note_on_c, 0, 63, 75
4, 66240, Note_on_c, 0, 78, 0
4, 66240, Note_on_c, 0, 75, 0
4, 66240, Note_on_c, 0, 69, 0
4, 66240, Note_on_c, 0, 72, 0
4, 66240, Note_on_c, 0, 66, 75
4, 66630, Note_on_c, 0, 45, 75
4, 66660, Note_on_c, 0, 48, 75
4, 66690, Note_on_c, 0, 51, 75
4, 66720, Note_on_c, 0, 66, 0
4, 66720, Note_on_c, 0, 63, 0
4, 66720, Note_on_c, 0, 60, 0
4, 66720, Note_on_c, 0, 57, 0
4, 66720, Note_on_c, 0, 54, 75
4, 67200, Note_on_c, 0, 54, 0
4, 67200, Note_on_c, 0, 48, 0
4, 67200, Note_on_c, 0, 45, 0
4, 67200, Note_on_c, 0, 51, 0
4, 67590, Note_on_c, 0, 66, 75
4, 67620, Note_on_c, 0, 69, 75
4, 67650, Note_on_c, 0, 72, 75
4, 67680, Note_on_c, 0, 75, 75
4, 68070, Note_on_c, 0, 54, 75
4, 68100, Note_on_c, 0, 57, 75
4, 68130, Note_on_c, 0, 60, 75
4, 68160, Note_on_c, 0, 75, 0
4, 68160, Note_on_c, 0, 72, 0
4, 68160, Note_on_c, 0, 66, 0
4, 68160, Note_on_c, 0, 69, 0
4, 68160, Note_on_c, 0, 63, 75
4, 68550, Note_on_c, 0, 42, 75
4, 68580, Note_on_c, 0, 45, 75
4, 68610, Note_on_c, 0, 48, 75
4, 68640, Note_on_c, 0, 63, 0
4, 68640, Note_on_c, 0, 60, 0
4, 68640, Note_on_c, 0, 57, 0
4, 68640, Note_on_c, 0, 54, 0
4, 68640, Note_on_c, 0, 51, 75
4, 69120, Note_on_c, 0, 51, 0
4, 69120, Note_on_c, 0, 45, 0
4, 69120, Note_on_c, 0, 42, 0
4, 69120, Note_on_c, 0, 48, 0
4, 69510, Note_on_c, 0, 63, 62
4, 69540, Note_on_c, 0, 66, 62
4, 69570, Note_on_c, 0, 68, 62
4, 69600, Note_on_c, 0, 72, 62
4, 69990, Note_on_c, 0, 51, 62
4, 70020, Note_on_c, 0, 54, 62
4, 70050, Note_on_c, 0, 56, 62
4, 70080, Note_on_c, 0, 72, 0
4, 70080, Note_on_c, 0, 68, 0
4, 70080, Note_on_c, 0, 63, 0
4, 70080, Note_on_c, 0, 66, 0
4, 70080, Note_on_c, 0, 60, 62
4, 70470, Note_on_c, 0, 39, 62
4, 70500, Note_on_c, 0, 42, 62
4, 70530, Note_on_c, 0, 44, 62
4, 70560, Note_on_c, 0, 60, 0
4, 70560, Note_on_c, 0, 56, 0
4, 70560, Note_on_c, 0, 54, 0
4, 70560, Note_on_c, 0, 51, 0
4, 70560, Note_on_c, 0, 48, 62
4, 71040, Note_on_c, 0, 48, 0
4, 71040, Note_on_c, 0, 42, 0
4, 71040, Note_on_c, 0, 39, 0
4, 71040, Note_on_c, 0, 44, 0
4, 71430, Note_on_c, 0, 64, 49
4, 71460, Note_on_c, 0, 67, 49
4, 71490, Note_on_c, 0, 70, 49
4, 71520, Note_on_c, 0, 72, 49
4, 71910, Note_on_c, 0, 52, 49
4, 71940, Note_on_c, 0, 55, 49
4, 71970, Note_on_c, 0, 58, 49
4, 72000, Note_on_c, 0, 72, 0
4, 72000, Note_on_c, 0, 70, 0
4, 72000, Note_on_c, 0, 64, 0
4, 72000, Note_on_c, 0, 67, 0
4, 72000, Note_on_c, 0, 60, 49
4, 72390, Note_on_c, 0, 40, 49
4, 72420, Note_on_c, 0, 43, 49
4, 72450, Note_on_c, 0, 46, 49
4, 72480, Note_on_c, 0, 60, 0
4, 72480, Note_on_c, 0, 58, 0
4, 72480, Note_on_c, 0, 55, 0
4, 72480, Note_on_c, 0, 52, 0
4, 72480, Note_on_c, 0, 48, 49
4, 72960, Note_on_c, 0, 48, 0
4, 72960, Note_on_c, 0, 43, 0
4, 72960, Note_on_c, 0, 40, 0
4, 72960, Note_on_c, 0, 46, 0
4, 72960, Note_on_c, 0, 41, 49
4, 72960, Note_on_c, 0, 48, 49
4, 72960, Note_on_c, 0, 53, 49
4, 72960, Note_on_c, 0, 57, 49
4, 72960, Note_on_c, 0, 60, 49
4, 73920, Note_on_c, 0, 60, 0
4, 73920, Note_on_c, 0, 53, 0
4, 73920, Note_on_c, 0, 41, 0
4, 73920, Note_on_c, 0, 48, 0
4, 73920, Note_on_c, 0, 57, 0
4, 73920, Note_on_c, 0, 41, 49
4, 73920, Note_on_c, 0, 48, 49
4, 73920, Note_on_c, 0, 52, 49
4, 73920, Note_on_c, 0, 58, 49
4, 73920, Note_on_c, 0, 60, 49
4, 74880, Note_on_c, 0, 60, 0
4, 74880, Note_on_c, 0, 52, 0
4, 74880, Note_on_c, 0, 41, 0
4, 74880, Note_on_c, 0, 48, 0
4, 74880, Note_on_c, 0, 58, 0
4, 74880, Note_on_c, 0, 41, 49
4, 74880, Note_on_c, 0, 48, 49
4, 74880, Note_on_c, 0, 53, 49
4, 74880, Note_on_c, 0, 57, 49
4, 74880, Note_on_c, 0, 60, 49
4, 75840, Note_on_c, 0, 60, 0
4, 75840, Note_on_c, 0, 53, 0
4, 75840, Note_on_c, 0, 41, 0
4, 75840, Note_on_c, 0, 48, 0
4, 75840, Note_on_c, 0, 57, 0
4, 75840, Note_on_c, 0, 41, 49
4, 75840, Note_on_c, 0, 48, 49
4, 75840, Note_on_c, 0, 53, 49
4, 75840, Note_on_c, 0, 56, 49
4, 75840, Note_on_c, 0, 60, 49
4, 76800, Note_on_c, 0, 60, 0
4, 76800, Note_on_c, 0, 53, 0
4, 76800, Note_on_c, 0, 41, 0
4, 76800, Note_on_c, 0, 48, 0
4, 76800, Note_on_c, 0, 56, 0
4, 76800, Note_on_c, 0, 41, 49
4, 76800, Note_on_c, 0, 48, 49
4, 76800, Note_on_c, 0, 53, 49
4, 76800, Note_on_c, 0, 57, 49
4, 77430, Note_on_c, 0, 41, 49
4, 77460, Note_on_c, 0, 45, 49
4, 77490, Note_on_c, 0, 48, 49
4, 77520, Note_on_c, 0, 57, 0
4, 77520, Note_on_c, 0, 53, 0
4, 77520, Note_on_c, 0, 41, 0
4, 77520, Note_on_c, 0, 48, 0
4, 77520, Note_on_c, 0, 53, 49
4, 77670, Note_on_c, 0, 45, 49
4, 77700, Note_on_c, 0, 48, 49
4, 77730, Note_on_c, 0, 53, 49
4, 77760, Note_on_c, 0, 53, 0
4, 77760, Note_on_c, 0, 48, 0
4, 77760, Note_on_c, 0, 45, 0
4, 77760, Note_on_c, 0, 41, 0
4, 77760, Note_on_c, 0, 57, 49
4, 77910, Note_on_c, 0, 48, 49
4, 77940, Note_on_c, 0, 53, 49
4, 77970, Note_on_c, 0, 57, 49
4, 78000, Note_on_c, 0, 57, 0
4, 78000, Note_on_c, 0, 53, 0
4, 78000, Note_on_c, 0, 48, 0
4, 78000, Note_on_c, 0, 45, 0
4, 78000, Note_on_c, 0, 60, 49
4, 78150, Note_on_c, 0, 53, 49
4, 78180, Note_on_c, 0, 57, 49
4, 78210, Note_on_c, 0, 60, 49
4, 78240, Note_on_c, 0, 60, 0
4, 78240, Note_on_c, 0, 57, 0
4, 78240, Note_on_c, 0, 53, 0
4, 78240, Note_on_c, 0, 48, 0
4, 78240, Note_on_c, 0, 65, 49
4, 78390, Note_on_c, 0, 57, 49
4, 78420, Note_on_c, 0, 60, 49
4, 78450, Note_on_c, 0, 65, 49
4, 78480, Note_on_c, 0, 65, 0
4, 78480, Note_on_c, 0, 60, 0
4, 78480, Note_on_c, 0, 57, 0
4, 78480, Note_on_c, 0, 53, 0
4, 78480, Note_on_c, 0, 69, 49
4, 78630, Note_on_c, 0, 60, 49
4, 78660, Note_on_c, 0, 65, 49
4, 78690, Note_on_c, 0, 69, 49
4, 78720, Note_on_c, 0, 69, 0
4, 78720, Note_on_c, 0, 65, 0
4, 78720, Note_on_c, 0, 60, 0
4, 78720, Note_on_c, 0, 57, 0
4, 78720, Note_on_c, 0, 72, 49
4, 78870, Note_on_c, 0, 65, 49
4, 78900, Note_on_c, 0, 69, 49
4, 78930, Note_on_c, 0, 72, 49
4, 78960, Note_on_c, 0, 72, 0
4, 78960, Note_on_c, 0, 69, 0
4, 78960, Note_on_c, 0, 65, 0
4, 78960, Note_on_c, 0, 60, 0
4, 78960, Note_on_c, 0, 77, 49
4, 79110, Note_on_c, 0, 69, 49
4, 79140, Note_on_c, 0, 72, 49
4, 79170, Note_on_c, 0, 77, 49
4, 79200, Note_on_c, 0, 77, 0
4, 79200, Note_on_c, 0, 72, 0
4, 79200, Note_on_c, 0, 69, 0
4, 79200, Note_on_c, 0, 65, 0
4, 79200, Note_on_c, 0, 81, 49
4, 79440, Note_on_c, 0, 81, 0
4, 79440, Note_on_c, 0, 72, 0
4, 79440, Note_on_c, 0, 69, 0
4, 79440, Note_on_c, 0, 77, 0
4, 79680, Note_on_c, 0, 53, 49
4, 79680, Note_on_c, 0, 57, 49
4, 79680, Note_on_c, 0, 60, 49
4, 79680, Note_on_c, 0, 65, 49
4, 80640, Note_on_c, 0, 65, 0
4, 80640, Note_on_c, 0, 53, 0
4, 80640, Note_on_c, 0, 57, 0
4, 80640, Note_on_c, 0, 60, 0
4, 80640, Note_on_c, 0, 53, 49
4, 80640, Note_on_c, 0, 57, 49
4, 80640, Note_on_c, 0, 60, 49
4, 80640, Note_on_c, 0, 65, 49
4, 81600, Note_on_c, 0, 65, 0
4, 81600, Note_on_c, 0, 53, 0
4, 81600, Note_on_c, 0, 57, 0
4, 81600, Note_on_c, 0, 60, 0
4, 81600, Note_on_c, 0, 54, 49
4, 81600, Note_on_c, 0, 56, 49
4, 81600, Note_on_c, 0, 60, 49
4, 81600, Note_on_c, 0, 63, 49
4, 82560, Note_on_c, 0, 63, 0
4, 82560, Note_on_c, 0, 54, 0
4, 82560, Note_on_c, 0, 56, 0
4, 82560, Note_on_c, 0, 60, 0
4, 82560, Note_on_c, 0, 55, 49
4, 82560, Note_on_c, 0, 60, 49
4, 82560, Note_on_c, 0, 63, 49
4, 82560, Note_on_c, 0, 67, 49
4, 83520, Note_on_c, 0, 67, 0
4, 83520, Note_on_c, 0, 55, 0
4, 83520, Note_on_c, 0, 60, 0
4, 83520, Note_on_c, 0, 63, 0
4, 83520, Note_on_c, 0, 51, 49
4, 83520, Note_on_c, 0, 55, 49
4, 83520, Note_on_c, 0, 60, 49
4, 84480, Note_on_c, 0, 60, 0
4, 84480, Note_on_c, 0, 55, 0
4, 84480, Note_on_c, 0, 51, 0
4, 84480, Note_on_c, 0, 48, 49
4, 84480, Note_on_c, 0, 55, 49
4, 84480, Note_on_c, 0, 60, 49
4, 85440, Note_on_c, 0, 60, 0
4, 85440, Note_on_c, 0, 55, 0
4, 85440, Note_on_c, 0, 48, 0
4, 85440, Note_on_c, 0, 43, 49
4, 85440, Note_on_c, 0, 48, 49
4, 85440, Note_on_c, 0, 55, 49
4, 86400, Note_on_c, 0, 55, 0
4, 86400, Note_on_c, 0, 48, 0
4, 86400, Note_on_c, 0, 43, 0
4, 86400, Note_on_c, 0, 41, 49
4, 86400, Note_on_c, 0, 48, 49
4, 86400, Note_on_c, 0, 53, 49
4, 87360, Note_on_c, 0, 53, 0
4, 87360, Note_on_c, 0, 48, 0
4, 87360, Note_on_c, 0, 41, 0
4, 87360, Note_on_c, 0, 41, 49
4, 87360, Note_on_c, 0, 48, 49
4, 87360, Note_on_c, 0, 53, 49
4, 88320, Note_on_c, 0, 53, 0
4, 88320, Note_on_c, 0, 48, 0
4, 88320, Note_on_c, 0, 41, 0
4, 88320, Note_on_c, 0, 48, 49
4, 88320, Note_on_c, 0, 56, 49
4, 88320, Note_on_c, 0, 60, 49
4, 89280, Note_on_c, 0, 60, 0
4, 89280, Note_on_c, 0, 56, 0
4, 89280, Note_on_c, 0, 48, 0
4, 89280, Note_on_c, 0, 50, 49
4, 89280, Note_on_c, 0, 56, 49
4, 89280, Note_on_c, 0, 60, 49
4, 90240, Note_on_c, 0, 60, 0
4, 90240, Note_on_c, 0, 56, 0
4, 90240, Note_on_c, 0, 50, 0
4, 90240, Note_on_c, 0, 51, 49
4, 90240, Note_on_c, 0, 56, 49
4, 90240, Note_on_c, 0, 60, 49
4, 91200, Note_on_c, 0, 60, 0
4, 91200, Note_on_c, 0, 56, 0
4, 91200, Note_on_c, 0, 51, 0
4, 91200, Note_on_c, 0, 48, 49
4, 91200, Note_on_c, 0, 51, 49
4, 91200, Note_on_c, 0, 56, 49
4, 92160, Note_on_c, 0, 56, 0
4, 92160, Note_on_c, 0, 51, 0
4, 92160, Note_on_c, 0, 48, 0
4, 92160, Note_on_c, 0, 44, 49
4, 92160, Note_on_c, 0, 56, 49
4, 92640, Note_on_c, 0, 56, 0
4, 92640, Note_on_c, 0, 44, 0
4, 92640, Note_on_c, 0, 51, 49
4, 92880, Note_on_c, 0, 51, 0
4, 92880, Note_on_c, 0, 53, 49
4, 93120, Note_on_c, 0, 53, 0
4, 93120, Note_on_c, 0, 44, 49
4, 93120, Note_on_c, 0, 51, 49
4, 93120, Note_on_c, 0, 56, 49
4, 93120, Note_on_c, 0, 60, 49
4, 93600, Note_on_c, 0, 60, 0
4, 93600, Note_on_c, 0, 44, 0
4, 93600, Note_on_c, 0, 51, 0
4, 93600, Note_on_c, 0, 56, 0
4, 93600, Note_on_c, 0, 42, 49
4, 93600, Note_on_c, 0, 48, 49
4, 93600, Note_on_c, 0, 54, 49
4, 94080, Note_on_c, 0, 54, 0
4, 94080, Note_on_c, 0, 48, 0
4, 94080, Note_on_c, 0, 42, 0
4, 94080, Note_on_c, 0, 41, 49
4, 94080, Note_on_c, 0, 48, 49
4, 94080, Note_on_c, 0, 53, 49
4, 95520, Note_on_c, 0, 53, 0
4, 95520, Note_on_c, 0, 48, 0
4, 95520, Note_on_c, 0, 41, 0
4, 95520, Note_on_c, 0, 57, 49
4, 96000, Note_on_c, 0, 57, 0
4, 96000, Note_on_c, 0, 57, 49
4, 96159, Note_on_c, 0, 57, 0
4, 96159, Note_on_c, 0, 56, 49
4, 96320, Note_on_c, 0, 56, 0
4, 96320, Note_on_c, 0, 57, 49
4, 96480, Note_on_c, 0, 57, 0
4, 96480, Note_on_c, 0, 64, 49
4, 96800, Note_on_c, 0, 64, 0
4, 96800, Note_on_c, 0, 65, 49
4, 97119, Note_on_c, 0, 65, 0
4, 97119, Note_on_c, 0, 63, 49
4, 97280, Note_on_c, 0, 63, 0
4, 97280, Note_on_c, 0, 64, 49
4, 97440, Note_on_c, 0, 64, 0
4, 97440, Note_on_c, 0, 69, 49
4, 98079, Note_on_c, 0, 69, 0
4, 98079, Note_on_c, 0, 68, 62
4, 98240, Note_on_c, 0, 68, 0
4, 98240, Note_on_c, 0, 69, 62
4, 98400, Note_on_c, 0, 69, 0
4, 98400, Note_on_c, 0, 76, 62
4, 98720, Note_on_c, 0, 76, 0
4, 98720, Note_on_c, 0, 77, 62
4, 98880, Note_on_c, 0, 77, 0
4, 99039, Note_on_c, 0, 50, 49
4, 99200, Note_on_c, 0, 50, 0
4, 99200, Note_on_c, 0, 51, 49
4, 99360, Note_on_c, 0, 51, 0
4, 99360, Note_on_c, 0, 57, 49
4, 99999, Note_on_c, 0, 57, 0
4, 99999, Note_on_c, 0, 56, 49
4, 100160, Note_on_c, 0, 56, 0
4, 100160, Note_on_c, 0, 57, 49
4, 100320, Note_on_c, 0, 57, 0
4, 100320, Note_on_c, 0, 63, 49
4, 100959, Note_on_c, 0, 63, 0
4, 100959, Note_on_c, 0, 62, 49
4, 101120, Note_on_c, 0, 62, 0
4, 101120, Note_on_c, 0, 63, 49
4, 101280, Note_on_c, 0, 63, 0
4, 101280, Note_on_c, 0, 69, 49
4, 101919, Note_on_c, 0, 69, 0
4, 101919, Note_on_c, 0, 68, 49
4, 102080, Note_on_c, 0, 68, 0
4, 102080, Note_on_c, 0, 69, 49
4, 102240, Note_on_c, 0, 69, 0
4, 102240, Note_on_c, 0, 75, 49
4, 103200, Note_on_c, 0, 75, 0
4, 103200, Note_on_c, 0, 76, 49
4, 103680, Note_on_c, 0, 76, 0
4, 103839, Note_on_c, 0, 57, 49
4, 104000, Note_on_c, 0, 57, 0
4, 104000, Note_on_c, 0, 60, 49
4, 104160, Note_on_c, 0, 60, 0
4, 104160, Note_on_c, 0, 64, 49
4, 104319, Note_on_c, 0, 64, 0
4, 104319, Note_on_c, 0, 66, 49
4, 104480, Note_on_c, 0, 66, 0
4, 104480, Note_on_c, 0, 72, 49
4, 104640, Note_on_c, 0, 72, 0
4, 104640, Note_on_c, 0, 69, 49
4, 104799, Note_on_c, 0, 69, 0
4, 104799, Note_on_c, 0, 57, 49
4, 104960, Note_on_c, 0, 57, 0
4, 104960, Note_on_c, 0, 60, 49
4, 105120, Note_on_c, 0, 60, 0
4, 105120, Note_on_c, 0, 64, 49
4, 105279, Note_on_c, 0, 64, 0
4, 105279, Note_on_c, 0, 66, 49
4, 105440, Note_on_c, 0, 66, 0
4, 105440, Note_on_c, 0, 72, 49
4, 105600, Note_on_c, 0, 72, 0
4, 105759, Note_on_c, 0, 55, 49
4, 105920, Note_on_c, 0, 55, 0
4, 105920, Note_on_c, 0, 60, 49
4, 106080, Note_on_c, 0, 60, 0
4, 106080, Note_on_c, 0, 64, 62
4, 106239, Note_on_c, 0, 64, 0
4, 106239, Note_on_c, 0, 67, 62
4, 106400, Note_on_c, 0, 67, 0
4, 106400, Note_on_c, 0, 64, 62
4, 106560, Note_on_c, 0, 64, 0
4, 106719, Note_on_c, 0, 55, 62
4, 106880, Note_on_c, 0, 55, 0
4, 106880, Note_on_c, 0, 60, 62
4, 107040, Note_on_c, 0, 60, 0
4, 107040, Note_on_c, 0, 64, 62
4, 107199, Note_on_c, 0, 64, 0
4, 107199, Note_on_c, 0, 55, 62
4, 107360, Note_on_c, 0, 55, 0
4, 107360, Note_on_c, 0, 60, 62
4, 107520, Note_on_c, 0, 60, 0
4, 107679, Note_on_c, 0, 48, 62
4, 107840, Note_on_c, 0, 48, 0
4, 107840, Note_on_c, 0, 52, 62
4, 108000, Note_on_c, 0, 52, 0
4, 108000, Note_on_c, 0, 55, 62
4, 108000, Note_on_c, 0, 67, 62
4, 108159, Note_on_c, 0, 67, 0
4, 108159, Note_on_c, 0, 55, 0
4, 108159, Note_on_c, 0, 60, 62
4, 108320, Note_on_c, 0, 60, 0
4, 108320, Note_on_c, 0, 55, 62
4, 108480, Note_on_c, 0, 55, 0
4, 108480, Note_on_c, 0, 43, 62
4, 108639, Note_on_c, 0, 43, 0
4, 108639, Note_on_c, 0, 52, 62
4, 108800, Note_on_c, 0, 52, 0
4, 108800, Note_on_c, 0, 40, 62
4, 108960, Note_on_c, 0, 40, 0
4, 108960, Note_on_c, 0, 40, 62
4, 108960, Note_on_c, 0, 56, 62
4, 109119, Note_on_c, 0, 56, 0
4, 109119, Note_on_c, 0, 40, 0
4, 109119, Note_on_c, 0, 52, 62
4, 109280, Note_on_c, 0, 52, 0
4, 109280, Note_on_c, 0, 40, 62
4, 109440, Note_on_c, 0, 40, 0
4, 109599, Note_on_c, 0, 57, 62
4, 109760, Note_on_c, 0, 57, 0
4, 109760, Note_on_c, 0, 45, 62
4, 109920, Note_on_c, 0, 45, 0
4, 110079, Note_on_c, 0, 64, 62
4, 110240, Note_on_c, 0, 64, 0
4, 110240, Note_on_c, 0, 52, 62
4, 110400, Note_on_c, 0, 52, 0
4, 110559, Note_on_c, 0, 52, 49
4, 110720, Note_on_c, 0, 52, 0
4, 110720, Note_on_c, 0, 57, 49
4, 110880, Note_on_c, 0, 57, 0
4, 110880, Note_on_c, 0, 60, 49
4, 111039, Note_on_c, 0, 60, 0
4, 111039, Note_on_c, 0, 64, 49
4, 111200, Note_on_c, 0, 64, 0
4, 111200, Note_on_c, 0, 69, 49
4, 111360, Note_on_c, 0, 69, 0
4, 111519, Note_on_c, 0, 60, 49
4, 111680, Note_on_c, 0, 60, 0
4, 111680, Note_on_c, 0, 64, 49
4, 111840, Note_on_c, 0, 64, 0
4, 111840, Note_on_c, 0, 69, 49
4, 111999, Note_on_c, 0, 69, 0
4, 111999, Note_on_c, 0, 60, 49
4, 112160, Note_on_c, 0, 60, 0
4, 112160, Note_on_c, 0, 64, 49
4, 112320, Note_on_c, 0, 64, 0
4, 112479, Note_on_c, 0, 64, 49
4, 112640, Note_on_c, 0, 64, 0
4, 112640, Note_on_c, 0, 67, 49
4, 112800, Note_on_c, 0, 67, 0
4, 112800, Note_on_c, 0, 60, 62
4, 112959, Note_on_c, 0, 60, 0
4, 112959, Note_on_c, 0, 64, 62
4, 113120, Note_on_c, 0, 64, 0
4, 113120, Note_on_c, 0, 67, 62
4, 113280, Note_on_c, 0, 67, 0
4, 113439, Note_on_c, 0, 57, 62
4, 113600, Note_on_c, 0, 57, 0
4, 113600, Note_on_c, 0, 60, 62
4, 113760, Note_on_c, 0, 60, 0
4, 113760, Note_on_c, 0, 64, 62
4, 113919, Note_on_c, 0, 64, 0
4, 113919, Note_on_c, 0, 65, 62
4, 114080, Note_on_c, 0, 65, 0
4, 114080, Note_on_c, 0, 69, 62
4, 114240, Note_on_c, 0, 69, 0
4, 114399, Note_on_c, 0, 55, 62
4, 114560, Note_on_c, 0, 55, 0
4, 114560, Note_on_c, 0, 60, 62
4, 114720, Note_on_c, 0, 60, 0
4, 114720, Note_on_c, 0, 64, 62
4, 114879, Note_on_c, 0, 64, 0
4, 114879, Note_on_c, 0, 60, 62
4, 115040, Note_on_c, 0, 60, 0
4, 115040, Note_on_c, 0, 55, 62
4, 115200, Note_on_c, 0, 55, 0
4, 115200, Note_on_c, 0, 54, 62
4, 115359, Note_on_c, 0, 54, 0
4, 115359, Note_on_c, 0, 48, 62
4, 115520, Note_on_c, 0, 48, 0
4, 115520, Note_on_c, 0, 52, 62
4, 115680, Note_on_c, 0, 52, 0
4, 115680, Note_on_c, 0, 55, 62
4, 115839, Note_on_c, 0, 55, 0
4, 115839, Note_on_c, 0, 60, 62
4, 116000, Note_on_c, 0, 60, 0
4, 116000, Note_on_c, 0, 64, 62
4, 116160, Note_on_c, 0, 64, 0
4, 116319, Note_on_c, 0, 48, 62
4, 116480, Note_on_c, 0, 48, 0
4, 116480, Note_on_c, 0, 53, 62
4, 116640, Note_on_c, 0, 53, 0
4, 116799, Note_on_c, 0, 48, 62
4, 116960, Note_on_c, 0, 48, 0
4, 116960, Note_on_c, 0, 53, 62
4, 117120, Note_on_c, 0, 53, 0
4, 117279, Note_on_c, 0, 55, 62
4, 117440, Note_on_c, 0, 55, 0
4, 117440, Note_on_c, 0, 43, 62
4, 117600, Note_on_c, 0, 43, 0
4, 117759, Note_on_c, 0, 55, 62
4, 117920, Note_on_c, 0, 55, 0
4, 117920, Note_on_c, 0, 43, 62
4, 118080, Note_on_c, 0, 43, 0
4, 118239, Note_on_c, 0, 51, 62
4, 118400, Note_on_c, 0, 51, 0
4, 118400, Note_on_c, 0, 52, 62
4, 118560, Note_on_c, 0, 52, 0
4, 118560, Note_on_c, 0, 58, 62
4, 119199, Note_on_c, 0, 58, 0
4, 119199, Note_on_c, 0, 57, 62
4, 119360, Note_on_c, 0, 57, 0
4, 119360, Note_on_c, 0, 58, 62
4, 119520, Note_on_c, 0, 58, 0
4, 119520, Note_on_c, 0, 67, 62
4, 120159, Note_on_c, 0, 67, 0
4, 120159, Note_on_c, 0, 63, 62
4, 120320, Note_on_c, 0, 63, 0
4, 120320, Note_on_c, 0, 64, 62
4, 120480, Note_on_c, 0, 64, 0
4, 120480, Note_on_c, 0, 70, 62
4, 121119, Note_on_c, 0, 70, 0
4, 121119, Note_on_c, 0, 69, 62
4, 121280, Note_on_c, 0, 69, 0
4, 121280, Note_on_c, 0, 70, 62
4, 121440, Note_on_c, 0, 70, 0
4, 121440, Note_on_c, 0, 79, 62
4, 122079, Note_on_c, 0, 79, 0
4, 122079, Note_on_c, 0, 51, 62
4, 122240, Note_on_c, 0, 51, 0
4, 122240, Note_on_c, 0, 52, 62
4, 122400, Note_on_c, 0, 52, 0
4, 122400, Note_on_c, 0, 56, 62
4, 123039, Note_on_c, 0, 56, 0
4, 123039, Note_on_c, 0, 55, 62
4, 123200, Note_on_c, 0, 55, 0
4, 123200, Note_on_c, 0, 56, 62
4, 123360, Note_on_c, 0, 56, 0
4, 123360, Note_on_c, 0, 64, 62
4, 123999, Note_on_c, 0, 64, 0
4, 123999, Note_on_c, 0, 63, 62
4, 124160, Note_on_c, 0, 63, 0
4, 124160, Note_on_c, 0, 64, 62
4, 124320, Note_on_c, 0, 64, 0
4, 124320, Note_on_c, 0, 68, 62
4, 124959, Note_on_c, 0, 68, 0
4, 124959, Note_on_c, 0, 67, 62
4, 125120, Note_on_c, 0, 67, 0
4, 125120, Note_on_c, 0, 68, 62
4, 125280, Note_on_c, 0, 68, 0
4, 125280, Note_on_c, 0, 76, 62
4, 125760, Note_on_c, 0, 76, 0
4, 126240, Note_on_c, 0, 56, 62
4, 126720, Note_on_c, 0, 56, 0
4, 126720, Note_on_c, 0, 60, 62
4, 126960, Note_on_c, 0, 60, 0
4, 127200, Note_on_c, 0, 65, 62
4, 127680, Note_on_c, 0, 65, 0
4, 127680, Note_on_c, 0, 68, 62
4, 127839, Note_on_c, 0, 68, 0
4, 127839, Note_on_c, 0, 64, 62
4, 128000, Note_on_c, 0, 64, 0
4, 128000, Note_on_c, 0, 65, 62
4, 128160, Note_on_c, 0, 65, 0
4, 128160, Note_on_c, 0, 65, 62
4, 128400, Note_on_c, 0, 65, 0
4, 128400, Note_on_c, 0, 60, 62
4, 128640, Note_on_c, 0, 60, 0
4, 128640, Control_c, 0, 64, 127
4, 128640, Note_on_c, 0, 65, 62
4, 128880, Note_on_c, 0, 65, 0
4, 128880, Note_on_c, 0, 60, 62
4, 129120, Note_on_c, 0, 60, 0
4, 129120, Note_on_c, 0, 56, 62
4, 129360, Note_on_c, 0, 56, 0
4, 129360, Control_c, 0, 64, 0
4, 129360, Note_on_c, 0, 53, 62
4, 129600, Note_on_c, 0, 53, 0
4, 129759, Note_on_c, 0, 52, 62
4, 129920, Note_on_c, 0, 52, 0
4, 129920, Note_on_c, 0, 53, 62
4, 130080, Note_on_c, 0, 53, 0
4, 130080, Note_on_c, 0, 56, 62
4, 130239, Note_on_c, 0, 52, 62
4, 130400, Note_on_c, 0, 52, 0
4, 130400, Note_on_c, 0, 53, 62
4, 130560, Note_on_c, 0, 53, 0
4, 130560, Note_on_c, 0, 56, 0
4, 130560, Note_on_c, 0, 56, 62
4, 130719, Note_on_c, 0, 56, 0
4, 130719, Note_on_c, 0, 55, 62
4, 130880, Note_on_c, 0, 55, 0
4, 130880, Note_on_c, 0, 56, 62
4, 131040, Note_on_c, 0, 56, 0
4, 131040, Note_on_c, 0, 65, 62
4, 131199, Note_on_c, 0, 55, 62
4, 131360, Note_on_c, 0, 55, 0
4, 131360, Note_on_c, 0, 56, 62
4, 131520, Note_on_c, 0, 56, 0
4, 131520, Note_on_c, 0, 65, 0
4, 131520, Note_on_c, 0, 65, 62
4, 131520, Note_on_c, 0, 68, 62
4, 131679, Note_on_c, 0, 68, 0
4, 131679, Note_on_c, 0, 65, 0
4, 131679, Note_on_c, 0, 64, 62
4, 131840, Note_on_c, 0, 64, 0
4, 131840, Note_on_c, 0, 65, 62
4, 132000, Note_on_c, 0, 65, 0
4, 132000, Note_on_c, 0, 65, 62
4, 132240, Note_on_c, 0, 65, 0
4, 132240, Note_on_c, 0, 60, 62
4, 132480, Note_on_c, 0, 60, 0
4, 132480, Control_c, 0, 64, 127
4, 132480, Note_on_c, 0, 65, 62
4, 132720, Note_on_c, 0, 65, 0
4, 132720, Note_on_c, 0, 60, 62
4, 132960, Note_on_c, 0, 60, 0
4, 132960, Note_on_c, 0, 56, 62
4, 133200, Note_on_c, 0, 56, 0
4, 133200, Control_c, 0, 64, 0
4, 133200, Note_on_c, 0, 53, 62
4, 133440, Note_on_c, 0, 53, 0
4, 133599, Note_on_c, 0, 50, 49
4, 133599, Note_on_c, 0, 53, 49
4, 133599, Note_on_c, 0, 56, 49
4, 133760, Note_on_c, 0, 56, 0
4, 133760, Note_on_c, 0, 53, 0
4, 133760, Note_on_c, 0, 50, 0
4, 133760, Note_on_c, 0, 53, 49
4, 133760, Note_on_c, 0, 56, 49
4, 133760, Note_on_c, 0, 60, 49
4, 134079, Note_on_c, 0, 60, 0
4, 134079, Note_on_c, 0, 56, 0
4, 134079, Note_on_c, 0, 53, 0
4, 134079, Note_on_c, 0, 53, 49
4, 134079, Note_on_c, 0, 56, 49
4, 134079, Note_on_c, 0, 60, 49
4, 134240, Note_on_c, 0, 60, 0
4, 134240, Note_on_c, 0, 56, 0
4, 134240, Note_on_c, 0, 53, 0
4, 134240, Note_on_c, 0, 56, 49
4, 134240, Note_on_c, 0, 60, 49
4, 134240, Note_on_c, 0, 65, 49
4, 134400, Note_on_c, 0, 65, 0
4, 134400, Note_on_c, 0, 60, 0
4, 134400, Note_on_c, 0, 56, 0
4, 134559, Note_on_c, 0, 50, 49
4, 134559, Note_on_c, 0, 53, 49
4, 134559, Note_on_c, 0, 56, 49
4, 134720, Note_on_c, 0, 56, 0
4, 134720, Note_on_c, 0, 53, 0
4, 134720, Note_on_c, 0, 50, 0
4, 134720, Note_on_c, 0, 53, 49
4, 134720, Note_on_c, 0, 56, 49
4, 134720, Note_on_c, 0, 60, 49
4, 135039, Note_on_c, 0, 60, 0
4, 135039, Note_on_c, 0, 56, 0
4, 135039, Note_on_c, 0, 53, 0
4, 135039, Note_on_c, 0, 53, 49
4, 135039, Note_on_c, 0, 56, 49
4, 135200, Note_on_c, 0, 56, 0
4, 135200, Note_on_c, 0, 53, 0
4, 135200, Note_on_c, 0, 56, 49
4, 135200, Note_on_c, 0, 60, 49
4, 135360, Note_on_c, 0, 60, 0
4, 135360, Note_on_c, 0, 56, 0
4, 135519, Note_on_c, 0, 48, 49
4, 135519, Note_on_c, 0, 53, 49
4, 135519, Note_on_c, 0, 56, 49
4, 135680, Note_on_c, 0, 56, 0
4, 135680, Note_on_c, 0, 53, 0
4, 135680, Note_on_c, 0, 48, 0
4, 135680, Note_on_c, 0, 53, 49
4, 135680, Note_on_c, 0, 56, 49
4, 135680, Note_on_c, 0, 60, 49
4, 135999, Note_on_c, 0, 60, 0
4, 135999, Note_on_c, 0, 56, 0
4, 135999, Note_on_c, 0, 53, 0
4, 135999, Note_on_c, 0, 53, 49
4, 135999, Note_on_c, 0, 56, 49
4, 135999, Note_on_c, 0, 60, 49
4, 136160, Note_on_c, 0, 60, 0
4, 136160, Note_on_c, 0, 56, 0
4, 136160, Note_on_c, 0, 53, 0
4, 136160, Note_on_c, 0, 56, 49
4, 136160, Note_on_c, 0, 60, 49
4, 136160, Note_on_c, 0, 65, 49
4, 136320, Note_on_c, 0, 65, 0
4, 136320, Note_on_c, 0, 60, 0
4, 136320, Note_on_c, 0, 56, 0
4, 136479, Note_on_c, 0, 48, 49
4, 136479, Note_on_c, 0, 53, 49
4, 136479, Note_on_c, 0, 56, 49
4, 136640, Note_on_c, 0, 56, 0
4, 136640, Note_on_c, 0, 53, 0
4, 136640, Note_on_c, 0, 48, 0
4, 136640, Note_on_c, 0, 53, 49
4, 136640, Note_on_c, 0, 56, 49
4, 136640, Note_on_c, 0, 60, 49
4, 136959, Note_on_c, 0, 60, 0
4, 136959, Note_on_c, 0, 56, 0
4, 136959, Note_on_c, 0, 53, 0
4, 136959, Note_on_c, 0, 53, 49
4, 136959, Note_on_c, 0, 56, 49
4, 137120, Note_on_c, 0, 56, 0
4, 137120, Note_on_c, 0, 53, 0
4, 137120, Note_on_c, 0, 56, 49
4, 137120, Note_on_c, 0, 60, 49
4, 137280, Note_on_c, 0, 60, 0
4, 137280, Note_on_c, 0, 56, 0
4, 137439, Note_on_c, 0, 48, 62
4, 137439, Note_on_c, 0, 51, 62
4, 137439, Note_on_c, 0, 56, 62
4, 137600, Note_on_c, 0, 56, 0
4, 137600, Note_on_c, 0, 51, 0
4, 137600, Note_on_c, 0, 48, 0
4, 137600, Note_on_c, 0, 51, 62
4, 137600, Note_on_c, 0, 56, 62
4, 137600, Note_on_c, 0, 60, 62
4, 137919, Note_on_c, 0, 60, 0
4, 137919, Note_on_c, 0, 56, 0
4, 137919, Note_on_c, 0, 51, 0
4, 137919, Note_on_c, 0, 51, 62
4, 137919, Note_on_c, 0, 56, 62
4, 137919, Note_on_c, 0, 60, 62
4, 138080, Note_on_c, 0, 60, 0
4, 138080, Note_on_c, 0, 56, 0
4, 138080, Note_on_c, 0, 51, 0
4, 138080, Note_on_c, 0, 56, 62
4, 138080, Note_on_c, 0, 60, 62
4, 138080, Note_on_c, 0, 63, 62
4, 138240, Note_on_c, 0, 63, 0
4, 138240, Note_on_c, 0, 60, 0
4, 138240, Note_on_c, 0, 56, 0
4, 138399, Note_on_c, 0, 48, 62
4, 138399, Note_on_c, 0, 52, 62
4, 138399, Note_on_c, 0, 56, 62
4, 138560, Note_on_c, 0, 56, 0
4, 138560, Note_on_c, 0, 52, 0
4, 138560, Note_on_c, 0, 48, 0
4, 138560, Note_on_c, 0, 52, 62
4, 138560, Note_on_c, 0, 56, 62
4, 138560, Note_on_c, 0, 60, 62
4, 138879, Note_on_c, 0, 60, 0
4, 138879, Note_on_c, 0, 56, 0
4, 138879, Note_on_c, 0, 52, 0
4, 138879, Note_on_c, 0, 52, 62
4, 138879, Note_on_c, 0, 56, 62
4, 138879, Note_on_c, 0, 60, 62
4, 139040, Note_on_c, 0, 60, 0
4, 139040, Note_on_c, 0, 56, 0
4, 139040, Note_on_c, 0, 52, 0
4, 139040, Note_on_c, 0, 56, 62
4, 139040, Note_on_c, 0, 60, 62
4, 139040, Note_on_c, 0, 64, 62
4, 139200, Note_on_c, 0, 64, 0
4, 139200, Note_on_c, 0, 60, 0
4, 139200, Note_on_c, 0, 56, 0
4, 139359, Note_on_c, 0, 48, 62
4, 139359, Note_on_c, 0, 53, 62
4, 139359, Note_on_c, 0, 56, 62
4, 139520, Note_on_c, 0, 56, 0
4, 139520, Note_on_c, 0, 53, 0
4, 139520, Note_on_c, 0, 48, 0
4, 139520, Note_on_c, 0, 53, 62
4, 139520, Note_on_c, 0, 56, 62
4, 139520, Note_on_c, 0, 60, 62
4, 139839, Note_on_c, 0, 60, 0
4, 139839, Note_on_c, 0, 56, 0
4, 139839, Note_on_c, 0, 53, 0
4, 139839, Note_on_c, 0, 53, 62
4, 139839, Note_on_c, 0, 56, 62
4, 139839, Note_on_c, 0, 60, 62
4, 140000, Note_on_c, 0, 60, 0
4, 140000, Note_on_c, 0, 56, 0
4, 140000, Note_on_c, 0, 53, 0
4, 140000, Note_on_c, 0, 56, 62
4, 140000, Note_on_c, 0, 60, 62
4, 140000, Note_on_c, 0, 65, 62
4, 140160, Note_on_c, 0, 65, 0
4, 140160, Note_on_c, 0, 60, 0
4, 140160, Note_on_c, 0, 56, 0
4, 140319, Note_on_c, 0, 52, 62
4, 140319, Note_on_c, 0, 55, 62
4, 140319, Note_on_c, 0, 60, 62
4, 140480, Note_on_c, 0, 60, 0
4, 140480, Note_on_c, 0, 55, 0
4, 140480, Note_on_c, 0, 52, 0
4, 140480, Note_on_c, 0, 55, 62
4, 140480, Note_on_c, 0, 60, 62
4, 140480, Note_on_c, 0, 64, 62
4, 140799, Note_on_c, 0, 64, 0
4, 140799, Note_on_c, 0, 60, 0
4, 140799, Note_on_c, 0, 55, 0
4, 140799, Note_on_c, 0, 55, 62
4, 140799, Note_on_c, 0, 60, 62
4, 140799, Note_on_c, 0, 64, 62
4, 140960, Note_on_c, 0, 64, 0
4, 140960, Note_on_c, 0, 60, 0
4, 140960, Note_on_c, 0, 55, 0
4, 140960, Note_on_c, 0, 60, 62
4, 140960, Note_on_c, 0, 64, 62
4, 140960, Note_on_c, 0, 67, 62
4, 141120, Note_on_c, 0, 67, 0
4, 141120, Note_on_c, 0, 64, 0
4, 141120, Note_on_c, 0, 60, 0
4, 141279, Note_on_c, 0, 52, 62
4, 141279, Note_on_c, 0, 55, 62
4, 141279, Note_on_c, 0, 60, 62
4, 141440, Note_on_c, 0, 60, 0
4, 141440, Note_on_c, 0, 55, 0
4, 141440, Note_on_c, 0, 52, 0
4, 141440, Note_on_c, 0, 55, 62
4, 141440, Note_on_c, 0, 60, 62
4, 141440, Note_on_c, 0, 64, 62
4, 141759, Note_on_c, 0, 64, 0
4, 141759, Note_on_c, 0, 60, 0
4, 141759, Note_on_c, 0, 55, 0
4, 141759, Note_on_c, 0, 55, 62
4, 141759, Note_on_c, 0, 60, 62
4, 141759, Note_on_c, 0, 64, 62
4, 141920, Note_on_c, 0, 64, 0
4, 141920, Note_on_c, 0, 60, 0
4, 141920, Note_on_c, 0, 55, 0
4, 141920, Note_on_c, 0, 60, 62
4, 141920, Note_on_c, 0, 64, 62
4, 141920, Note_on_c, 0, 67, 62
4, 142080, Note_on_c, 0, 67, 0
4, 142080, Note_on_c, 0, 64, 0
4, 142080, Note_on_c, 0, 60, 0
4, 142239, Note_on_c, 0, 48, 49
4, 142239, Note_on_c, 0, 52, 49
4, 142239, Note_on_c, 0, 55, 49
4, 142400, Note_on_c, 0, 55, 0
4, 142400, Note_on_c, 0, 52, 0
4, 142400, Note_on_c, 0, 48, 0
4, 142400, Note_on_c, 0, 52, 49
4, 142400, Note_on_c, 0, 55, 49
4, 142400, Note_on_c, 0, 60, 49
4, 142719, Note_on_c, 0, 60, 0
4, 142719, Note_on_c, 0, 55, 0
4, 142719, Note_on_c, 0, 52, 0
4, 142719, Note_on_c, 0, 52, 49
4, 142719, Note_on_c, 0, 55, 49
4, 142719, Note_on_c, 0, 60, 49
4, 142880, Note_on_c, 0, 60, 0
4, 142880, Note_on_c, 0, 55, 0
4, 142880, Note_on_c, 0, 52, 0
4, 142880, Note_on_c, 0, 55, 49
4, 142880, Note_on_c, 0, 60, 49
4, 142880, Note_on_c, 0, 64, 49
4, 143040, Note_on_c, 0, 64, 0
4, 143040, Note_on_c, 0, 60, 0
4, 143040, Note_on_c, 0, 55, 0
4, 143199, Note_on_c, 0, 43, 49
4, 143199, Note_on_c, 0, 48, 49
4, 143199, Note_on_c, 0, 52, 49
4, 143360, Note_on_c, 0, 52, 0
4, 143360, Note_on_c, 0, 48, 0
4, 143360, Note_on_c, 0, 43, 0
4, 143360, Note_on_c, 0, 48, 49
4, 143360, Note_on_c, 0, 52, 49
4, 143360, Note_on_c, 0, 55, 49
4, 143679, Note_on_c, 0, 55, 0
4, 143679, Note_on_c, 0, 52, 0
4, 143679, Note_on_c, 0, 48, 0
4, 143679, Note_on_c, 0, 48, 49
4, 143679, Note_on_c, 0, 52, 49
4, 143679, Note_on_c, 0, 55, 49
4, 143840, Note_on_c, 0, 55, 0
4, 143840, Note_on_c, 0, 52, 0
4, 143840, Note_on_c, 0, 48, 0
4, 143840, Note_on_c, 0, 52, 49
4, 143840, Note_on_c, 0, 55, 49
4, 143840, Note_on_c, 0, 60, 49
4, 144000, Note_on_c, 0, 60, 0
4, 144000, Note_on_c, 0, 55, 0
4, 144000, Note_on_c, 0, 52, 0
4, 144159, Note_on_c, 0, 43, 49
4, 144159, Note_on_c, 0, 48, 49
4, 144159, Note_on_c, 0, 52, 49
4, 144320, Note_on_c, 0, 52, 0
4, 144320, Note_on_c, 0, 48, 0
4, 144320, Note_on_c, 0, 43, 0
4, 144320, Note_on_c, 0, 48, 49
4, 144320, Note_on_c, 0, 52, 49
4, 144320, Note_on_c, 0, 55, 49
4, 144639, Note_on_c, 0, 55, 0
4, 144639, Note_on_c, 0, 52, 0
4, 144639, Note_on_c, 0, 48, 0
4, 144639, Note_on_c, 0, 48, 49
4, 144639, Note_on_c, 0, 52, 49
4, 144800, Note_on_c, 0, 52, 0
4, 144800, Note_on_c, 0, 48, 0
4, 144800, Note_on_c, 0, 52, 49
4, 144800, Note_on_c, 0, 55, 49
4, 144960, Note_on_c, 0, 55, 0
4, 144960, Note_on_c, 0, 52, 0
4, 145119, Note_on_c, 0, 43, 49
4, 145119, Note_on_c, 0, 48, 49
4, 145119, Note_on_c, 0, 52, 49
4, 145280, Note_on_c, 0, 52, 0
4, 145280, Note_on_c, 0, 48, 0
4, 145280, Note_on_c, 0, 43, 0
4, 145280, Note_on_c, 0, 48, 49
4, 145280, Note_on_c, 0, 52, 49
4, 145280, Note_on_c, 0, 55, 49
4, 145599, Note_on_c, 0, 55, 0
4, 145599, Note_on_c, 0, 52, 0
4, 145599, Note_on_c, 0, 48, 0
4, 145599, Note_on_c, 0, 43, 49
4, 145599, Note_on_c, 0, 48, 49
4, 145760, Note_on_c, 0, 48, 0
4, 145760, Note_on_c, 0, 43, 0
4, 145760, Note_on_c, 0, 48, 49
4, 145760, Note_on_c, 0, 52, 49
4, 145920, Note_on_c, 0, 52, 0
4, 145920, Note_on_c, 0, 48, 0
4, 146079, Note_on_c, 0, 43, 49
4, 146079, Note_on_c, 0, 48, 49
4, 146240, Note_on_c, 0, 48, 0
4, 146240, Note_on_c, 0, 43, 0
4, 146240, Note_on_c, 0, 48, 49
4, 146240, Note_on_c, 0, 52, 49
4, 146400, Note_on_c, 0, 52, 0
4, 146400, Note_on_c, 0, 48, 0
4, 146400, Note_on_c, 0, 48, 49
4, 146400, Note_on_c, 0, 52, 49
4, 146559, Note_on_c, 0, 52, 0
4, 146559, Note_on_c, 0, 48, 0
4, 146559, Note_on_c, 0, 43, 49
4, 146720, Note_on_c, 0, 43, 0
4, 146720, Note_on_c, 0, 48, 49
4, 146880, Note_on_c, 0, 36, 49
4, 147120, Note_on_c, 0, 36, 0
4, 147120, Note_on_c, 0, 48, 0
4, 147840, Note_on_c, 0, 72, 49
4, 148800, Note_on_c, 0, 72, 0
4, 148800, Note_on_c, 0, 68, 49
4, 148800, Note_on_c, 0, 72, 49
4, 149760, Note_on_c, 0, 72, 0
4, 149760, Note_on_c, 0, 68, 0
4, 149760, Note_on_c, 0, 64, 49
4, 149760, Note_on_c, 0, 69, 49
4, 151440, Note_on_c, 0, 69, 0
4, 151440, Note_on_c, 0, 64, 0
4, 151440, Note_on_c, 0, 64, 49
4, 151440, Note_on_c, 0, 69, 49
4, 151680, Note_on_c, 0, 69, 0
4, 151680, Note_on_c, 0, 64, 0
4, 151680, Note_on_c, 0, 69, 49
4, 152640, Note_on_c, 0, 69, 0
4, 152640, Note_on_c, 0, 63, 49
4, 152640, Note_on_c, 0, 66, 49
4, 152640, Note_on_c, 0, 68, 49
4, 153600, Note_on_c, 0, 68, 0
4, 153600, Note_on_c, 0, 66, 0
4, 153600, Note_on_c, 0, 63, 0
4, 153600, Note_on_c, 0, 60, 49
4, 153600, Note_on_c, 0, 63, 49
4, 153600, Note_on_c, 0, 67, 49
4, 155280, Note_on_c, 0, 67, 0
4, 155280, Note_on_c, 0, 63, 0
4, 155280, Note_on_c, 0, 60, 0
4, 155280, Note_on_c, 0, 55, 49
4, 155280, Note_on_c, 0, 60, 49
4, 155280, Note_on_c, 0, 62, 49
4, 155520, Note_on_c, 0, 62, 0
4, 155520, Note_on_c, 0, 60, 0
4, 155520, Note_on_c, 0, 55, 0
4, 155520, Note_on_c, 0, 60, 49
4, 155520, Note_on_c, 0, 63, 49
4, 156480, Note_on_c, 0, 63, 0
4, 156480, Note_on_c, 0, 60, 0
4, 156480, Note_on_c, 0, 56, 49
4, 156480, Note_on_c, 0, 60, 49
4, 156480, Note_on_c, 0, 64, 49
4, 157440, Note_on_c, 0, 64, 0
4, 157440, Note_on_c, 0, 60, 0
4, 157440, Note_on_c, 0, 56, 0
4, 157440, Note_on_c, 0, 53, 49
4, 157440, Note_on_c, 0, 56, 49
4, 157440, Note_on_c, 0, 60, 49
4, 157440, Note_on_c, 0, 65, 49
4, 159120, Note_on_c, 0, 65, 0
4, 159120, Note_on_c, 0, 53, 0
4, 159120, Note_on_c, 0, 56, 0
4, 159120, Note_on_c, 0, 60, 0
4, 159120, Note_on_c, 0, 53, 49
4, 159120, Note_on_c, 0, 56, 49
4, 159120, Note_on_c, 0, 60, 49
4, 159360, Note_on_c, 0, 60, 0
4, 159360, Note_on_c, 0, 56, 0
4, 159360, Note_on_c, 0, 53, 0
4, 159360, Note_on_c, 0, 56, 49
4, 159360, Note_on_c, 0, 60, 49
4, 159360, Note_on_c, 0, 62, 49
4, 160320, Note_on_c, 0, 62, 0
4, 160320, Note_on_c, 0, 60, 0
4, 160320, Note_on_c, 0, 56, 0
4, 160320, Note_on_c, 0, 51, 49
4, 160320, Note_on_c, 0, 56, 49
4, 160320, Note_on_c, 0, 60, 49
4, 160320, Note_on_c, 0, 63, 49
4, 161280, Note_on_c, 0, 63, 0
4, 161280, Note_on_c, 0, 51, 0
4, 161280, Note_on_c, 0, 56, 0
4, 161280, Note_on_c, 0, 60, 0
4, 161280, Note_on_c, 0, 48, 49
4, 161280, Note_on_c, 0, 52, 49
4, 161280, Note_on_c, 0, 55, 49
4, 161280, Note_on_c, 0, 60, 49
4, 162720, Note_on_c, 0, 60, 0
4, 162720, Note_on_c, 0, 48, 0
4, 162720, Note_on_c, 0, 52, 0
4, 162720, Note_on_c, 0, 55, 0
4, 163200, Note_on_c, 0, 33, 62
4, 163200, Note_on_c, 0, 45, 62
4, 163296, Note_on_c, 0, 45, 0
4, 163296, Note_on_c, 0, 33, 0
4, 163680, Note_on_c, 0, 32, 62
4, 163680, Note_on_c, 0, 44, 62
4, 163776, Note_on_c, 0, 44, 0
4, 163776, Note_on_c, 0, 32, 0
4, 164160, Note_on_c, 0, 36, 62
4, 164160, Note_on_c, 0, 48, 62
4, 164256, Note_on_c, 0, 48, 0
4, 164256, Note_on_c, 0, 36, 0
4, 172800, Note_on_c, 0, 48, 62
4, 173040, Note_on_c, 0, 48, 0
4, 174720, Note_on_c, 0, 48, 62
4, 174960, Note_on_c, 0, 48, 0
4, 176640, Note_on_c, 0, 48, 62
4, 176880, Note_on_c, 0, 48, 0
4, 182400, Note_on_c, 0, 54, 49
4, 182400, Note_on_c, 0, 56, 49
4, 182447, Note_on_c, 0, 56, 0
4, 182447, Note_on_c, 0, 54, 0
4, 182640, Note_on_c, 0, 54, 49
4, 182640, Note_on_c, 0, 56, 49
4, 182687, Note_on_c, 0, 56, 0
4, 182687, Note_on_c, 0, 54, 0
4, 183000, Note_on_c, 0, 53, 49
4, 183000, Note_on_c, 0, 56, 49
4, 183023, Note_on_c, 0, 56, 0
4, 183023, Note_on_c, 0, 53, 0
4, 183120, Note_on_c, 0, 51, 49
4, 183120, Note_on_c, 0, 56, 49
4, 183143, Note_on_c, 0, 56, 0
4, 183143, Note_on_c, 0, 51, 0
4, 183240, Note_on_c, 0, 53, 49
4, 183240, Note_on_c, 0, 56, 49
4, 183263, Note_on_c, 0, 56, 0
4, 183263, Note_on_c, 0, 53, 0
4, 183360, Note_on_c, 0, 54, 49
4, 183360, Note_on_c, 0, 56, 49
4, 183383, Note_on_c, 0, 56, 0
4, 183383, Note_on_c, 0, 54, 0
4, 183480, Note_on_c, 0, 51, 49
4, 183480, Note_on_c, 0, 56, 49
4, 183503, Note_on_c, 0, 56, 0
4, 183503, Note_on_c, 0, 51, 0
4, 183600, Note_on_c, 0, 53, 49
4, 183600, Note_on_c, 0, 56, 49
4, 183623, Note_on_c, 0, 56, 0
4, 183623, Note_on_c, 0, 53, 0
4, 183720, Note_on_c, 0, 53, 49
4, 183720, Note_on_c, 0, 56, 49
4, 183743, Note_on_c, 0, 56, 0
4, 183743, Note_on_c, 0, 53, 0
4, 183840, Control_c, 0, 64, 127
4, 183840, Note_on_c, 0, 54, 75
4, 183840, Note_on_c, 0, 56, 75
4, 184320, Note_on_c, 0, 56, 0
4, 184320, Note_on_c, 0, 54, 0
4, 185760, Control_c, 0, 64, 0
4, 186240, Note_on_c, 0, 48, 49
4, 186240, Note_on_c, 0, 55, 49
4, 186240, Note_on_c, 0, 63, 49
4, 186287, Note_on_c, 0, 63, 0
4, 186287, Note_on_c, 0, 55, 0
4, 186287, Note_on_c, 0, 48, 0
4, 186480, Note_on_c, 0, 48, 49
4, 186480, Note_on_c, 0, 55, 49
4, 186480, Note_on_c, 0, 63, 49
4, 186527, Note_on_c, 0, 63, 0
4, 186527, Note_on_c, 0, 55, 0
4, 186527, Note_on_c, 0, 48, 0
4, 186840, Note_on_c, 0, 53, 49
4, 186840, Note_on_c, 0, 56, 49
4, 186863, Note_on_c, 0, 56, 0
4, 186863, Note_on_c, 0, 53, 0
4, 186960, Note_on_c, 0, 51, 49
4, 186960, Note_on_c, 0, 55, 49
4, 186983, Note_on_c, 0, 55, 0
4, 186983, Note_on_c, 0, 51, 0
4, 187080, Note_on_c, 0, 53, 49
4, 187080, Note_on_c, 0, 56, 49
4, 187103, Note_on_c, 0, 56, 0
4, 187103, Note_on_c, 0, 53, 0
4, 187200, Note_on_c, 0, 55, 49
4, 187223, Note_on_c, 0, 55, 0
4, 187320, Note_on_c, 0, 51, 49
4, 187320, Note_on_c, 0, 55, 49
4, 187343, Note_on_c, 0, 55, 0
4, 187343, Note_on_c, 0, 51, 0
4, 187440, Note_on_c, 0, 50, 49
4, 187440, Note_on_c, 0, 56, 49
4, 187463, Note_on_c, 0, 56, 0
4, 187463, Note_on_c, 0, 50, 0
4, 187560, Note_on_c, 0, 53, 49
4, 187560, Note_on_c, 0, 60, 49
4, 187583, Note_on_c, 0, 60, 0
4, 187583, Note_on_c, 0, 53, 0
4, 187680, Control_c, 0, 64, 127
4, 187680, Note_on_c, 0, 55, 75
4, 187680, Note_on_c, 0, 60, 75
4, 188160, Note_on_c, 0, 60, 0
4, 188160, Note_on_c, 0, 55, 0
4, 188880, Control_c, 0, 64, 0
4, 190080, Note_on_c, 0, 48, 75
4, 190080, Note_on_c, 0, 55, 75
4, 190080, Note_on_c, 0, 58, 75
4, 190080, Note_on_c, 0, 64, 75
4, 190320, Note_on_c, 0, 64, 0
4, 190320, Note_on_c, 0, 48, 0
4, 190320, Note_on_c, 0, 55, 0
4, 190320, Note_on_c, 0, 58, 0
4, 190320, Note_on_c, 0, 55, 49
4, 190320, Note_on_c, 0, 58, 49
4, 190560, Note_on_c, 0, 58, 0
4, 190560, Note_on_c, 0, 55, 0
4, 190560, Note_on_c, 0, 49, 49
4, 190800, Note_on_c, 0, 49, 0
4, 190800, Note_on_c, 0, 55, 49
4, 190800, Note_on_c, 0, 58, 49
4, 191040, Note_on_c, 0, 58, 0
4, 191040, Note_on_c, 0, 55, 0
4, 191040, Note_on_c, 0, 48, 49
4, 191280, Note_on_c, 0, 48, 0
4, 191280, Note_on_c, 0, 55, 49
4, 191280, Note_on_c, 0, 58, 49
4, 191520, Note_on_c, 0, 58, 0
4, 191520, Note_on_c, 0, 55, 0
4, 191520, Note_on_c, 0, 46, 49
4, 191760, Note_on_c, 0, 46, 0
4, 191760, Note_on_c, 0, 52, 49
4, 191760, Note_on_c, 0, 55, 49
4, 192000, Note_on_c, 0, 55, 0
4, 192000, Note_on_c, 0, 52, 0
4, 192000, Note_on_c, 0, 44, 49
4, 192240, Note_on_c, 0, 44, 0
4, 192240, Note_on_c, 0, 53, 49
4, 192240, Note_on_c, 0, 56, 49
4, 192240, Note_on_c, 0, 60, 49
4, 192480, Note_on_c, 0, 60, 0
4, 192480, Note_on_c, 0, 56, 0
4, 192480, Note_on_c, 0, 53, 0
4, 192480, Note_on_c, 0, 41, 49
4, 192720, Note_on_c, 0, 41, 0
4, 192720, Note_on_c, 0, 53, 49
4, 192720, Note_on_c, 0, 56, 49
4, 192720, Note_on_c, 0, 60, 49
4, 192960, Note_on_c, 0, 60, 0
4, 192960, Note_on_c, 0, 56, 0
4, 192960, Note_on_c, 0, 53, 0
4, 192960, Note_on_c, 0, 48, 49
4, 193200, Note_on_c, 0, 48, 0
4, 193200, Note_on_c, 0, 56, 49
4, 193200, Note_on_c, 0, 60, 49
4, 193440, Note_on_c, 0, 60, 0
4, 193440, Note_on_c, 0, 56, 0
4, 193440, Note_on_c, 0, 53, 49
4, 193680, Note_on_c, 0, 53, 0
4, 193680, Note_on_c, 0, 56, 49
4, 193680, Note_on_c, 0, 60, 49
4, 193920, Note_on_c, 0, 60, 0
4, 193920, Note_on_c, 0, 56, 0
4, 193920, Note_on_c, 0, 53, 62
4, 194160, Note_on_c, 0, 53, 0
4, 194160, Note_on_c, 0, 60, 62
4, 194160, Note_on_c, 0, 63, 62
4, 194400, Note_on_c, 0, 63, 0
4, 194400, Note_on_c, 0, 60, 0
4, 194400, Note_on_c, 0, 54, 62
4, 194640, Note_on_c, 0, 54, 0
4, 194640, Note_on_c, 0, 60, 62
4, 194640, Note_on_c, 0, 63, 62
4, 194880, Note_on_c, 0, 63, 0
4, 194880, Note_on_c, 0, 60, 0
4, 194880, Note_on_c, 0, 53, 62
4, 195120, Note_on_c, 0, 53, 0
4, 195120, Note_on_c, 0, 60, 62
4, 195120, Note_on_c, 0, 63, 62
4, 195360, Note_on_c, 0, 63, 0
4, 195360, Note_on_c, 0, 60, 0
4, 195360, Note_on_c, 0, 51, 62
4, 195600, Note_on_c, 0, 51, 0
4, 195600, Note_on_c, 0, 57, 62
4, 195600, Note_on_c, 0, 60, 62
4, 195840, Note_on_c, 0, 60, 0
4, 195840, Note_on_c, 0, 57, 0
4, 195840, Note_on_c, 0, 49, 49
4, 196080, Note_on_c, 0, 49, 0
4, 196080, Note_on_c, 0, 58, 49
4, 196080, Note_on_c, 0, 61, 49
4, 196080, Note_on_c, 0, 65, 49
4, 196320, Note_on_c, 0, 65, 0
4, 196320, Note_on_c, 0, 61, 0
4, 196320, Note_on_c, 0, 58, 0
4, 196320, Note_on_c, 0, 46, 49
4, 196560, Note_on_c, 0, 46, 0
4, 196560, Note_on_c, 0, 58, 49
4, 196560, Note_on_c, 0, 61, 49
4, 196560, Note_on_c, 0, 65, 49
4, 196800, Note_on_c, 0, 65, 0
4, 196800, Note_on_c, 0, 61, 0
4, 196800, Note_on_c, 0, 58, 0
4, 196800, Note_on_c, 0, 53, 49
4, 197040, Note_on_c, 0, 53, 0
4, 197040, Note_on_c, 0, 61, 49
4, 197040, Note_on_c, 0, 65, 49
4, 197280, Note_on_c, 0, 65, 0
4, 197280, Note_on_c, 0, 61, 0
4, 197280, Note_on_c, 0, 58, 49
4, 197520, Note_on_c, 0, 58, 0
4, 197520, Note_on_c, 0, 61, 49
4, 197520, Note_on_c, 0, 65, 49
4, 197760, Note_on_c, 0, 65, 0
4, 197760, Note_on_c, 0, 61, 0
4, 197760, Note_on_c, 0, 46, 62
4, 198000, Note_on_c, 0, 46, 0
4, 198000, Note_on_c, 0, 51, 62
4, 198000, Note_on_c, 0, 58, 62
4, 198000, Note_on_c, 0, 60, 62
4, 198240, Note_on_c, 0, 60, 0
4, 198240, Note_on_c, 0, 58, 0
4, 198240, Note_on_c, 0, 51, 0
4, 198240, Note_on_c, 0, 53, 62
4, 198480, Note_on_c, 0, 53, 0
4, 198480, Note_on_c, 0, 58, 62
4, 198480, Note_on_c, 0, 61, 62
4, 198720, Note_on_c, 0, 61, 0
4, 198720, Note_on_c, 0, 58, 0
4, 198720, Note_on_c, 0, 58, 62
4, 198960, Note_on_c, 0, 58, 0
4, 198960, Note_on_c, 0, 60, 62
4, 198960, Note_on_c, 0, 63, 62
4, 199200, Note_on_c, 0, 63, 0
4, 199200, Note_on_c, 0, 60, 0
4, 199200, Note_on_c, 0, 53, 62
4, 199440, Note_on_c, 0, 53, 0
4, 199440, Note_on_c, 0, 58, 62
4, 199440, Note_on_c, 0, 61, 62
4, 199680, Note_on_c, 0, 61, 0
4, 199680, Note_on_c, 0, 58, 0
4, 199680, Note_on_c, 0, 46, 62
4, 199920, Note_on_c, 0, 46, 0
4, 199920, Note_on_c, 0, 58, 62
4, 199920, Note_on_c, 0, 61, 62
4, 200160, Note_on_c, 0, 61, 0
4, 200160, Note_on_c, 0, 58, 0
4, 200160, Note_on_c, 0, 54, 62
4, 200400, Note_on_c, 0, 54, 0
4, 200400, Note_on_c, 0, 58, 62
4, 200400, Note_on_c, 0, 61, 62
4, 200640, Note_on_c, 0, 61, 0
4, 200640, Note_on_c, 0, 58, 0
4, 200640, Note_on_c, 0, 46, 62
4, 200880, Note_on_c, 0, 46, 0
4, 200880, Note_on_c, 0, 51, 62
4, 200880, Note_on_c, 0, 57, 62
4, 200880, Note_on_c, 0, 60, 62
4, 201120, Note_on_c, 0, 60, 0
4, 201120, Note_on_c, 0, 57, 0
4, 201120, Note_on_c, 0, 51, 0
4, 201120, Note_on_c, 0, 53, 62
4, 201360, Note_on_c, 0, 53, 0
4, 201360, Note_on_c, 0, 58, 62
4, 201600, Note_on_c, 0, 58, 0
4, 201600, Note_on_c, 0, 46, 62
4, 201840, Note_on_c, 0, 46, 0
4, 201840, Note_on_c, 0, 51, 62
4, 201840, Note_on_c, 0, 58, 62
4, 201840, Note_on_c, 0, 60, 62
4, 202080, Note_on_c, 0, 60, 0
4, 202080, Note_on_c, 0, 58, 0
4, 202080, Note_on_c, 0, 51, 0
4, 202080, Note_on_c, 0, 53, 62
4, 202320, Note_on_c, 0, 53, 0
4, 202320, Note_on_c, 0, 58, 62
4, 202320, Note_on_c, 0, 61, 62
4, 202560, Note_on_c, 0, 61, 0
4, 202560, Note_on_c, 0, 58, 0
4, 202560, Note_on_c, 0, 58, 62
4, 202800, Note_on_c, 0, 58, 0
4, 202800, Note_on_c, 0, 60, 62
4, 202800, Note_on_c, 0, 63, 62
4, 203040, Note_on_c, 0, 63, 0
4, 203040, Note_on_c, 0, 60, 0
4, 203040, Note_on_c, 0, 53, 62
4, 203280, Note_on_c, 0, 53, 0
4, 203280, Note_on_c, 0, 58, 62
4, 203280, Note_on_c, 0, 61, 62
4, 203520, Note_on_c, 0, 61, 0
4, 203520, Note_on_c, 0, 58, 0
4, 203520, Note_on_c, 0, 46, 62
4, 203760, Note_on_c, 0, 46, 0
4, 203760, Note_on_c, 0, 58, 62
4, 203760, Note_on_c, 0, 61, 62
4, 204000, Note_on_c, 0, 61, 0
4, 204000, Note_on_c, 0, 58, 0
4, 204000, Note_on_c, 0, 54, 62
4, 204240, Note_on_c, 0, 54, 0
4, 204240, Note_on_c, 0, 58, 62
4, 204240, Note_on_c, 0, 61, 62
4, 204480, Note_on_c, 0, 61, 0
4, 204480, Note_on_c, 0, 58, 0
4, 204480, Note_on_c, 0, 46, 62
4, 204720, Note_on_c, 0, 46, 0
4, 204720, Note_on_c, 0, 51, 62
4, 204720, Note_on_c, 0, 57, 62
4, 204720, Note_on_c, 0, 60, 62
4, 204960, Note_on_c, 0, 60, 0
4, 204960, Note_on_c, 0, 57, 0
4, 204960, Note_on_c, 0, 51, 0
4, 204960, Note_on_c, 0, 53, 62
4, 205200, Note_on_c, 0, 53, 0
4, 205200, Note_on_c, 0, 58, 62
4, 205440, Note_on_c, 0, 58, 0
4, 205440, Note_on_c, 0, 49, 62
4, 205680, Note_on_c, 0, 49, 0
4, 205680, Note_on_c, 0, 55, 62
4, 205680, Note_on_c, 0, 58, 62
4, 205920, Note_on_c, 0, 58, 0
4, 205920, Note_on_c, 0, 55, 0
4, 205920, Note_on_c, 0, 43, 62
4, 206160, Note_on_c, 0, 43, 0
4, 206160, Note_on_c, 0, 55, 62
4, 206160, Note_on_c, 0, 58, 62
4, 206400, Note_on_c, 0, 58, 0
4, 206400, Note_on_c, 0, 55, 0
4, 206400, Note_on_c, 0, 49, 62
4, 206640, Note_on_c, 0, 49, 0
4, 206640, Note_on_c, 0, 55, 62
4, 206640, Note_on_c, 0, 58, 62
4, 206880, Note_on_c, 0, 58, 0
4, 206880, Note_on_c, 0, 55, 0
4, 206880, Note_on_c, 0, 43, 62
4, 207120, Note_on_c, 0, 43, 0
4, 207120, Note_on_c, 0, 55, 62
4, 207120, Note_on_c, 0, 58, 62
4, 207360, Note_on_c, 0, 58, 0
4, 207360, Note_on_c, 0, 55, 0
4, 207360, Note_on_c, 0, 49, 62
4, 207600, Note_on_c, 0, 49, 0
4, 207600, Note_on_c, 0, 55, 62
4, 207600, Note_on_c, 0, 58, 62
4, 207840, Note_on_c, 0, 58, 0
4, 207840, Note_on_c, 0, 55, 0
4, 207840, Note_on_c, 0, 43, 62
4, 208080, Note_on_c, 0, 43, 0
4, 208080, Note_on_c, 0, 55, 62
4, 208080, Note_on_c, 0, 58, 62
4, 208320, Note_on_c, 0, 58, 0
4, 208320, Note_on_c, 0, 55, 0
4, 208320, Note_on_c, 0, 49, 62
4, 208560, Note_on_c, 0, 49, 0
4, 208560, Note_on_c, 0, 55, 62
4, 208560, Note_on_c, 0, 58, 62
4, 208800, Note_on_c, 0, 58, 0
4, 208800, Note_on_c, 0, 55, 0
4, 208800, Note_on_c, 0, 43, 62
4, 209040, Note_on_c, 0, 43, 0
4, 209040, Note_on_c, 0, 53, 62
4, 209040, Note_on_c, 0, 58, 62
4, 209280, Note_on_c, 0, 58, 0
4, 209280, Note_on_c, 0, 53, 0
4, 209280, Note_on_c, 0, 49, 62
4, 209520, Note_on_c, 0, 49, 0
4, 209520, Note_on_c, 0, 53, 62
4, 209520, Note_on_c, 0, 58, 62
4, 209760, Note_on_c, 0, 58, 0
4, 209760, Note_on_c, 0, 53, 0
4, 209760, Note_on_c, 0, 41, 62
4, 210000, Note_on_c, 0, 41, 0
4, 210000, Note_on_c, 0, 49, 62
4, 210000, Note_on_c, 0, 53, 62
4, 210480, Note_on_c, 0, 53, 0
4, 210480, Note_on_c, 0, 49, 0
4, 210480, Note_on_c, 0, 49, 62
4, 210480, Note_on_c, 0, 53, 62
4, 210480, Note_on_c, 0, 58, 62
4, 210720, Note_on_c, 0, 58, 0
4, 210720, Note_on_c, 0, 53, 0
4, 210720, Note_on_c, 0, 49, 0
4, 211200, Note_on_c, 0, 52, 101
4, 211200, Note_on_c, 0, 54, 101
4, 211200, Note_on_c, 0, 58, 101
4, 211200, Note_on_c, 0, 61, 101
4, 211200, Note_on_c, 0, 64, 101
4, 211440, Note_on_c, 0, 64, 0
4, 211440, Note_on_c, 0, 58, 0
4, 211440, Note_on_c, 0, 52, 0
4, 211440, Note_on_c, 0, 54, 0
4, 211440, Note_on_c, 0, 61, 0
4, 211440, Note_on_c, 0, 52, 101
4, 211440, Note_on_c, 0, 54, 101
4, 211440, Note_on_c, 0, 58, 101
4, 211440, Note_on_c, 0, 61, 101
4, 211440, Note_on_c, 0, 64, 101
4, 211680, Note_on_c, 0, 64, 0
4, 211680, Note_on_c, 0, 58, 0
4, 211680, Note_on_c, 0, 52, 0
4, 211680, Note_on_c, 0, 54, 0
4, 211680, Note_on_c, 0, 61, 0
4, 213120, Note_on_c, 0, 61, 88
4, 213600, Note_on_c, 0, 61, 0
4, 213600, Note_on_c, 0, 57, 88
4, 213600, Note_on_c, 0, 61, 88
4, 214080, Note_on_c, 0, 61, 0
4, 214080, Note_on_c, 0, 57, 0
4, 214080, Note_on_c, 0, 53, 88
4, 214080, Note_on_c, 0, 58, 88
4, 214080, Note_on_c, 0, 61, 88
4, 214800, Note_on_c, 0, 61, 0
4, 214800, Note_on_c, 0, 58, 0
4, 214800, Note_on_c, 0, 53, 0
4, 214800, Note_on_c, 0, 53, 88
4, 214800, Note_on_c, 0, 58, 88
4, 215040, Note_on_c, 0, 58, 0
4, 215040, Note_on_c, 0, 53, 0
4, 215040, Note_on_c, 0, 58, 88
4, 215520, Note_on_c, 0, 58, 0
4, 215520, Note_on_c, 0, 52, 88
4, 215520, Note_on_c, 0, 55, 88
4, 215520, Note_on_c, 0, 58, 88
4, 216000, Note_on_c, 0, 58, 0
4, 216000, Note_on_c, 0, 55, 0
4, 216000, Note_on_c, 0, 52, 0
4, 216000, Note_on_c, 0, 49, 88
4, 216000, Note_on_c, 0, 52, 88
4, 216000, Note_on_c, 0, 56, 88
4, 216720, Note_on_c, 0, 56, 0
4, 216720, Note_on_c, 0, 52, 0
4, 216720, Note_on_c, 0, 49, 0
4, 216720, Note_on_c, 0, 49, 88
4, 216720, Note_on_c, 0, 54, 88
4, 216720, Note_on_c, 0, 56, 88
4, 216960, Note_on_c, 0, 56, 0
4, 216960, Note_on_c, 0, 54, 0
4, 216960, Note_on_c, 0, 49, 0
4, 216960, Note_on_c, 0, 52, 88
4, 216960, Note_on_c, 0, 56, 88
4, 217440, Note_on_c, 0, 56, 0
4, 217440, Note_on_c, 0, 52, 0
4, 217440, Note_on_c, 0, 49, 88
4, 217440, Note_on_c, 0, 52, 88
4, 217440, Note_on_c, 0, 54, 88
4, 217920, Note_on_c, 0, 54, 0
4, 217920, Note_on_c, 0, 52, 0
4, 217920, Note_on_c, 0, 49, 0
4, 217920, Note_on_c, 0, 45, 88
4, 217920, Note_on_c, 0, 49, 88
4, 217920, Note_on_c, 0, 52, 88
4, 217920, Note_on_c, 0, 55, 88
4, 218400, Note_on_c, 0, 55, 0
4, 218400, Note_on_c, 0, 45, 0
4, 218400, Note_on_c, 0, 49, 0
4, 218400, Note_on_c, 0, 52, 0
4, 218400, Note_on_c, 0, 40, 88
4, 218400, Note_on_c, 0, 49, 88
4, 218400, Note_on_c, 0, 52, 88
4, 218880, Note_on_c, 0, 52, 0
4, 218880, Note_on_c, 0, 49, 0
4, 218880, Note_on_c, 0, 40, 0
4, 218880, Note_on_c, 0, 33, 101
4, 218880, Note_on_c, 0, 45, 101
4, 219360, Note_on_c, 0, 45, 0
4, 219360, Note_on_c, 0, 33, 0
4, 219360, Note_on_c, 0, 28, 101
4, 219360, Note_on_c, 0, 40, 101
4, 219840, Note_on_c, 0, 40, 0
4, 219840, Note_on_c, 0, 28, 0
4, 219840, Note_on_c, 0, 31, 101
4, 219840, Note_on_c, 0, 43, 101
4, 220560, Note_on_c, 0, 43, 0
4, 220560, Note_on_c, 0, 31, 0
4, 220560, Note_on_c, 0, 30, 101
4, 220560, Note_on_c, 0, 42, 101
4, 220800, Note_on_c, 0, 42, 0
4, 220800, Note_on_c, 0, 30, 0
4, 220800, Control_c, 0, 64, 127
4, 220800, Note_on_c, 0, 28, 101
4, 220800, Note_on_c, 0, 40, 101
4, 220800, Note_on_c, 0, 52, 101
4, 220800, Note_on_c, 0, 57, 101
4, 220800, Note_on_c, 0, 61, 101
4, 221040, Note_on_c, 0, 61, 0
4, 221040, Note_on_c, 0, 52, 0
4, 221040, Note_on_c, 0, 28, 0
4, 221040, Note_on_c, 0, 40, 0
4, 221040, Note_on_c, 0, 57, 0
4, 222720, Control_c, 0, 64, 0
4, 224640, Note_on_c, 0, 61, 88
4, 225120, Note_on_c, 0, 61, 0
4, 225120, Note_on_c, 0, 57, 88
4, 225120, Note_on_c, 0, 61, 88
4, 225120, Note_on_c, 0, 64, 88
4, 225600, Note_on_c, 0, 64, 0
4, 225600, Note_on_c, 0, 61, 0
4, 225600, Note_on_c, 0, 57, 0
4, 225600, Note_on_c, 0, 54, 88
4, 225600, Note_on_c, 0, 57, 88
4, 225600, Note_on_c, 0, 61, 88
4, 225600, Note_on_c, 0, 63, 88
4, 226080, Note_on_c, 0, 63, 0
4, 226080, Note_on_c, 0, 54, 0
4, 226080, Note_on_c, 0, 57, 0
4, 226080, Note_on_c, 0, 61, 0
4, 226080, Note_on_c, 0, 49, 88
4, 226080, Note_on_c, 0, 52, 88
4, 226080, Note_on_c, 0, 56, 88
4, 226080, Note_on_c, 0, 61, 88
4, 226560, Note_on_c, 0, 61, 0
4, 226560, Note_on_c, 0, 49, 0
4, 226560, Note_on_c, 0, 52, 0
4, 226560, Note_on_c, 0, 56, 0
4, 226560, Note_on_c, 0, 45, 88
4, 226560, Note_on_c, 0, 49, 88
4, 226560, Note_on_c, 0, 53, 88
4, 226560, Note_on_c, 0, 57, 88
4, 227040, Note_on_c, 0, 57, 0
4, 227040, Note_on_c, 0, 45, 0
4, 227040, Note_on_c, 0, 49, 0
4, 227040, Note_on_c, 0, 53, 0
4, 227040, Note_on_c, 0, 40, 88
4, 227040, Note_on_c, 0, 52, 88
4, 227520, Note_on_c, 0, 52, 0
4, 227520, Note_on_c, 0, 40, 0
4, 227520, Note_on_c, 0, 52, 88
4, 227520, Note_on_c, 0, 58, 88
4, 227520, Note_on_c, 0, 61, 88
4, 228000, Note_on_c, 0, 61, 0
4, 228000, Note_on_c, 0, 58, 0
4, 228000, Note_on_c, 0, 52, 0
4, 228000, Note_on_c, 0, 52, 88
4, 228000, Note_on_c, 0, 55, 88
4, 228000, Note_on_c, 0, 58, 88
4, 228000, Note_on_c, 0, 61, 88
4, 228240, Note_on_c, 0, 61, 0
4, 228240, Note_on_c, 0, 52, 0
4, 228240, Note_on_c, 0, 55, 0
4, 228240, Note_on_c, 0, 58, 0
4, 228240, Note_on_c, 0, 51, 88
4, 228480, Note_on_c, 0, 51, 0
4, 228480, Control_c, 0, 64, 127
4, 228480, Note_on_c, 0, 55, 88
4, 228480, Note_on_c, 0, 59, 88
4, 228480, Note_on_c, 0, 62, 88
4, 228720, Note_on_c, 0, 62, 0
4, 228720, Note_on_c, 0, 59, 0
4, 228720, Note_on_c, 0, 55, 0
4, 228720, Note_on_c, 0, 55, 49
4, 228720, Note_on_c, 0, 59, 49
4, 228960, Note_on_c, 0, 59, 0
4, 228960, Note_on_c, 0, 55, 0
4, 228960, Note_on_c, 0, 55, 49
4, 228960, Note_on_c, 0, 59, 49
4, 229200, Note_on_c, 0, 59, 0
4, 229200, Note_on_c, 0, 55, 0
4, 229200, Note_on_c, 0, 55, 49
4, 229200, Note_on_c, 0, 59, 49
4, 229440, Note_on_c, 0, 59, 0
4, 229440, Note_on_c, 0, 55, 0
4, 229440, Note_on_c, 0, 55, 49
4, 229440, Note_on_c, 0, 59, 49
4, 229680, Note_on_c, 0, 59, 0
4, 229680, Note_on_c, 0, 55, 0
4, 229680, Note_on_c, 0, 55, 49
4, 229680, Note_on_c, 0, 59, 49
4, 229920, Note_on_c, 0, 59, 0
4, 229920, Note_on_c, 0, 55, 0
4, 229920, Note_on_c, 0, 55, 49
4, 229920, Note_on_c, 0, 59, 49
4, 230160, Note_on_c, 0, 59, 0
4, 230160, Note_on_c, 0, 55, 0
4, 230160, Note_on_c, 0, 55, 49
4, 230160, Note_on_c, 0, 59, 49
4, 230400, Note_on_c, 0, 59, 0
4, 230400, Note_on_c, 0, 55, 0
4, 230400, Note_on_c, 0, 55, 49
4, 230400, Note_on_c, 0, 59, 49
4, 230640, Note_on_c, 0, 59, 0
4, 230640, Note_on_c, 0, 55, 0
4, 230640, Note_on_c, 0, 55, 49
4, 230640, Note_on_c, 0, 59, 49
4, 230880, Note_on_c, 0, 59, 0
4, 230880, Note_on_c, 0, 55, 0
4, 230880, Note_on_c, 0, 55, 49
4, 230880, Note_on_c, 0, 59, 49
4, 231120, Note_on_c, 0, 59, 0
4, 231120, Note_on_c, 0, 55, 0
4, 231120, Note_on_c, 0, 55, 49
4, 231120, Note_on_c, 0, 59, 49
4, 231360, Note_on_c, 0, 59, 0
4, 231360, Note_on_c, 0, 55, 0
4, 231360, Note_on_c, 0, 55, 49
4, 231360, Note_on_c, 0, 59, 49
4, 231600, Note_on_c, 0, 59, 0
4, 231600, Note_on_c, 0, 55, 0
4, 231600, Note_on_c, 0, 55, 49
4, 231600, Note_on_c, 0, 59, 49
4, 231840, Note_on_c, 0, 59, 0
4, 231840, Note_on_c, 0, 55, 0
4, 231840, Note_on_c, 0, 55, 49
4, 231840, Note_on_c, 0, 59, 49
4, 232080, Note_on_c, 0, 59, 0
4, 232080, Note_on_c, 0, 55, 0
4, 232080, Control_c, 0, 64, 0
4, 232080, Note_on_c, 0, 55, 49
4, 232080, Note_on_c, 0, 59, 49
4, 232320, Note_on_c, 0, 59, 0
4, 232320, Note_on_c, 0, 55, 0
4, 232320, Note_on_c, 0, 59, 49
4, 232320, Note_on_c, 0, 62, 49
4, 232560, Note_on_c, 0, 62, 0
4, 232560, Note_on_c, 0, 59, 0
4, 232560, Note_on_c, 0, 58, 49
4, 232560, Note_on_c, 0, 62, 49
4, 232800, Note_on_c, 0, 62, 0
4, 232800, Note_on_c, 0, 58, 0
4, 232800, Note_on_c, 0, 57, 49
4, 232800, Note_on_c, 0, 62, 49
4, 233040, Note_on_c, 0, 62, 0
4, 233040, Note_on_c, 0, 57, 0
4, 233040, Note_on_c, 0, 56, 49
4, 233040, Note_on_c, 0, 62, 49
4, 233280, Note_on_c, 0, 62, 0
4, 233280, Note_on_c, 0, 56, 0
4, 233280, Note_on_c, 0, 57, 49
4, 233280, Note_on_c, 0, 62, 49
4, 233520, Note_on_c, 0, 62, 0
4, 233520, Note_on_c, 0, 57, 0
4, 233520, Note_on_c, 0, 58, 49
4, 233520, Note_on_c, 0, 62, 49
4, 233760, Note_on_c, 0, 62, 0
4, 233760, Note_on_c, 0, 58, 0
4, 233760, Note_on_c, 0, 59, 49
4, 233760, Note_on_c, 0, 62, 49
4, 234000, Note_on_c, 0, 62, 0
4, 234000, Note_on_c, 0, 59, 0
4, 234000, Note_on_c, 0, 67, 49
4, 234240, Note_on_c, 0, 67, 0
4, 234240, Note_on_c, 0, 59, 49
4, 234240, Note_on_c, 0, 62, 49
4, 234480, Note_on_c, 0, 62, 0
4, 234480, Note_on_c, 0, 59, 0
4, 234480, Note_on_c, 0, 58, 49
4, 234480, Note_on_c, 0, 62, 49
4, 234720, Note_on_c, 0, 62, 0
4, 234720, Note_on_c, 0, 58, 0
4, 234720, Note_on_c, 0, 57, 49
4, 234720, Note_on_c, 0, 62, 49
4, 234960, Note_on_c, 0, 62, 0
4, 234960, Note_on_c, 0, 57, 0
4, 234960, Note_on_c, 0, 56, 49
4, 234960, Note_on_c, 0, 62, 49
4, 235200, Note_on_c, 0, 62, 0
4, 235200, Note_on_c, 0, 56, 0
4, 235200, Note_on_c, 0, 57, 49
4, 235200, Note_on_c, 0, 62, 49
4, 235440, Note_on_c, 0, 62, 0
4, 235440, Note_on_c, 0, 57, 0
4, 235440, Note_on_c, 0, 58, 49
4, 235440, Note_on_c, 0, 62, 49
4, 235680, Note_on_c, 0, 62, 0
4, 235680, Note_on_c, 0, 58, 0
4, 235680, Note_on_c, 0, 59, 49
4, 235680, Note_on_c, 0, 62, 49
4, 235920, Note_on_c, 0, 62, 0
4, 235920, Note_on_c, 0, 59, 0
4, 235920, Note_on_c, 0, 67, 49
4, 236160, Note_on_c, 0, 67, 0
4, 236160, Control_c, 0, 64, 127
4, 236160, Note_on_c, 0, 55, 49
4, 236160, Note_on_c, 0, 60, 49
4, 236400, Note_on_c, 0, 60, 0
4, 236400, Note_on_c, 0, 55, 0
4, 236400, Note_on_c, 0, 55, 49
4, 236400, Note_on_c, 0, 60, 49
4, 236640, Note_on_c, 0, 60, 0
4, 236640, Note_on_c, 0, 55, 0
4, 236640, Note_on_c, 0, 55, 49
4, 236640, Note_on_c, 0, 60, 49
4, 236880, Note_on_c, 0, 60, 0
4, 236880, Note_on_c, 0, 55, 0
4, 236880, Note_on_c, 0, 55, 49
4, 236880, Note_on_c, 0, 60, 49
4, 237120, Note_on_c, 0, 60, 0
4, 237120, Note_on_c, 0, 55, 0
4, 237120, Note_on_c, 0, 55, 49
4, 237120, Note_on_c, 0, 60, 49
4, 237360, Note_on_c, 0, 60, 0
4, 237360, Note_on_c, 0, 55, 0
4, 237360, Note_on_c, 0, 55, 49
4, 237360, Note_on_c, 0, 60, 49
4, 237600, Note_on_c, 0, 60, 0
4, 237600, Note_on_c, 0, 55, 0
4, 237600, Note_on_c, 0, 55, 49
4, 237600, Note_on_c, 0, 60, 49
4, 237840, Note_on_c, 0, 60, 0
4, 237840, Note_on_c, 0, 55, 0
4, 237840, Note_on_c, 0, 55, 49
4, 237840, Note_on_c, 0, 60, 49
4, 238080, Note_on_c, 0, 60, 0
4, 238080, Note_on_c, 0, 55, 0
4, 238080, Note_on_c, 0, 55, 49
4, 238080, Note_on_c, 0, 60, 49
4, 238320, Note_on_c, 0, 60, 0
4, 238320, Note_on_c, 0, 55, 0
4, 238320, Note_on_c, 0, 55, 49
4, 238320, Note_on_c, 0, 60, 49
4, 238560, Note_on_c, 0, 60, 0
4, 238560, Note_on_c, 0, 55, 0
4, 238560, Note_on_c, 0, 55, 49
4, 238560, Note_on_c, 0, 60, 49
4, 238800, Note_on_c, 0, 60, 0
4, 238800, Note_on_c, 0, 55, 0
4, 238800, Note_on_c, 0, 55, 49
4, 238800, Note_on_c, 0, 60, 49
4, 239040, Note_on_c, 0, 60, 0
4, 239040, Note_on_c, 0, 55, 0
4, 239040, Note_on_c, 0, 55, 49
4, 239040, Note_on_c, 0, 60, 49
4, 239280, Note_on_c, 0, 60, 0
4, 239280, Note_on_c, 0, 55, 0
4, 239280, Note_on_c, 0, 55, 49
4, 239280, Note_on_c, 0, 60, 49
4, 239520, Note_on_c, 0, 60, 0
4, 239520, Note_on_c, 0, 55, 0
4, 239520, Note_on_c, 0, 55, 49
4, 239520, Note_on_c, 0, 60, 49
4, 239760, Note_on_c, 0, 60, 0
4, 239760, Note_on_c, 0, 55, 0
4, 239760, Control_c, 0, 64, 0
4, 239760, Note_on_c, 0, 55, 49
4, 239760, Note_on_c, 0, 60, 49
4, 240000, Note_on_c, 0, 60, 0
4, 240000, Note_on_c, 0, 55, 0
4, 240000, Control_c, 0, 64, 127
4, 240000, Note_on_c, 0, 55, 49
4, 240000, Note_on_c, 0, 61, 49
4, 240240, Note_on_c, 0, 61, 0
4, 240240, Note_on_c, 0, 55, 0
4, 240240, Note_on_c, 0, 55, 49
4, 240240, Note_on_c, 0, 61, 49
4, 240480, Note_on_c, 0, 61, 0
4, 240480, Note_on_c, 0, 55, 0
4, 240480, Note_on_c, 0, 55, 49
4, 240480, Note_on_c, 0, 61, 49
4, 240720, Note_on_c, 0, 61, 0
4, 240720, Note_on_c, 0, 55, 0
4, 240720, Note_on_c, 0, 55, 49
4, 240720, Note_on_c, 0, 61, 49
4, 240960, Note_on_c, 0, 61, 0
4, 240960, Note_on_c, 0, 55, 0
4, 240960, Note_on_c, 0, 55, 49
4, 240960, Note_on_c, 0, 61, 49
4, 241200, Note_on_c, 0, 61, 0
4, 241200, Note_on_c, 0, 55, 0
4, 241200, Note_on_c, 0, 55, 49
4, 241200, Note_on_c, 0, 61, 49
4, 241440, Note_on_c, 0, 61, 0
4, 241440, Note_on_c, 0, 55, 0
4, 241440, Note_on_c, 0, 55, 49
4, 241440, Note_on_c, 0, 61, 49
4, 241680, Note_on_c, 0, 61, 0
4, 241680, Note_on_c, 0, 55, 0
4, 241680, Note_on_c, 0, 55, 49
4, 241680, Note_on_c, 0, 61, 49
4, 241920, Note_on_c, 0, 61, 0
4, 241920, Note_on_c, 0, 55, 0
4, 241920, Note_on_c, 0, 55, 49
4, 241920, Note_on_c, 0, 61, 49
4, 242160, Note_on_c, 0, 61, 0
4, 242160, Note_on_c, 0, 55, 0
4, 242160, Note_on_c, 0, 55, 49
4, 242160, Note_on_c, 0, 61, 49
4, 242400, Note_on_c, 0, 61, 0
4, 242400, Note_on_c, 0, 55, 0
4, 242400, Note_on_c, 0, 55, 49
4, 242400, Note_on_c, 0, 61, 49
4, 242640, Note_on_c, 0, 61, 0
4, 242640, Note_on_c, 0, 55, 0
4, 242640, Note_on_c, 0, 55, 49
4, 242640, Note_on_c, 0, 61, 49
4, 242880, Note_on_c, 0, 61, 0
4, 242880, Note_on_c, 0, 55, 0
4, 242880, Note_on_c, 0, 55, 49
4, 242880, Note_on_c, 0, 61, 49
4, 243120, Note_on_c, 0, 61, 0
4, 243120, Note_on_c, 0, 55, 0
4, 243120, Note_on_c, 0, 55, 49
4, 243120, Note_on_c, 0, 61, 49
4, 243360, Note_on_c, 0, 61, 0
4, 243360, Note_on_c, 0, 55, 0
4, 243360, Note_on_c, 0, 55, 49
4, 243360, Note_on_c, 0, 61, 49
4, 243600, Note_on_c, 0, 61, 0
4, 243600, Note_on_c, 0, 55, 0
4, 243600, Control_c, 0, 64, 0
4, 243600, Note_on_c, 0, 55, 49
4, 243600, Note_on_c, 0, 61, 49
4, 243840, Note_on_c, 0, 61, 0
4, 243840, Note_on_c, 0, 55, 0
4, 243840, Note_on_c, 0, 57, 49
4, 244080, Note_on_c, 0, 57, 0
4, 244080, Note_on_c, 0, 53, 49
4, 244080, Note_on_c, 0, 57, 49
4, 244080, Note_on_c, 0, 59, 49
4, 244320, Note_on_c, 0, 59, 0
4, 244320, Note_on_c, 0, 57, 0
4, 244320, Note_on_c, 0, 53, 0
4, 244320, Note_on_c, 0, 53, 49
4, 244320, Note_on_c, 0, 57, 49
4, 244320, Note_on_c, 0, 61, 49
4, 244560, Note_on_c, 0, 61, 0
4, 244560, Note_on_c, 0, 57, 0
4, 244560, Note_on_c, 0, 53, 0
4, 244560, Note_on_c, 0, 53, 49
4, 244560, Note_on_c, 0, 57, 49
4, 244560, Note_on_c, 0, 62, 49
4, 244800, Note_on_c, 0, 62, 0
4, 244800, Note_on_c, 0, 57, 0
4, 244800, Note_on_c, 0, 53, 0
4, 244800, Note_on_c, 0, 53, 49
4, 244800, Note_on_c, 0, 57, 49
4, 245040, Note_on_c, 0, 57, 0
4, 245040, Note_on_c, 0, 53, 0
4, 245040, Note_on_c, 0, 53, 49
4, 245040, Note_on_c, 0, 57, 49
4, 245040, Note_on_c, 0, 59, 49
4, 245280, Note_on_c, 0, 59, 0
4, 245280, Note_on_c, 0, 57, 0
4, 245280, Note_on_c, 0, 53, 0
4, 245280, Note_on_c, 0, 53, 49
4, 245280, Note_on_c, 0, 57, 49
4, 245280, Note_on_c, 0, 61, 49
4, 245520, Note_on_c, 0, 61, 0
4, 245520, Note_on_c, 0, 57, 0
4, 245520, Note_on_c, 0, 53, 0
4, 245520, Note_on_c, 0, 53, 49
4, 245520, Note_on_c, 0, 57, 49
4, 245520, Note_on_c, 0, 62, 49
4, 245760, Note_on_c, 0, 62, 0
4, 245760, Note_on_c, 0, 57, 0
4, 245760, Note_on_c, 0, 53, 0
4, 245760, Note_on_c, 0, 54, 49
4, 245760, Note_on_c, 0, 57, 49
4, 246000, Note_on_c, 0, 57, 0
4, 246000, Note_on_c, 0, 54, 0
4, 246000, Note_on_c, 0, 54, 49
4, 246000, Note_on_c, 0, 57, 49
4, 246000, Note_on_c, 0, 59, 49
4, 246240, Note_on_c, 0, 59, 0
4, 246240, Note_on_c, 0, 57, 0
4, 246240, Note_on_c, 0, 54, 0
4, 246240, Note_on_c, 0, 54, 49
4, 246240, Note_on_c, 0, 57, 49
4, 246240, Note_on_c, 0, 61, 49
4, 246480, Note_on_c, 0, 61, 0
4, 246480, Note_on_c, 0, 57, 0
4, 246480, Note_on_c, 0, 54, 0
4, 246480, Note_on_c, 0, 54, 49
4, 246480, Note_on_c, 0, 57, 49
4, 246480, Note_on_c, 0, 62, 49
4, 246720, Note_on_c, 0, 62, 0
4, 246720, Note_on_c, 0, 57, 0
4, 246720, Note_on_c, 0, 54, 0
4, 246720, Note_on_c, 0, 54, 49
4, 246720, Note_on_c, 0, 57, 49
4, 246960, Note_on_c, 0, 57, 0
4, 246960, Note_on_c, 0, 54, 0
4, 246960, Note_on_c, 0, 54, 49
4, 246960, Note_on_c, 0, 57, 49
4, 246960, Note_on_c, 0, 59, 49
4, 247200, Note_on_c, 0, 59, 0
4, 247200, Note_on_c, 0, 57, 0
4, 247200, Note_on_c, 0, 54, 0
4, 247200, Note_on_c, 0, 54, 49
4, 247200, Note_on_c, 0, 57, 49
4, 247200, Note_on_c, 0, 61, 49
4, 247440, Note_on_c, 0, 61, 0
4, 247440, Note_on_c, 0, 57, 0
4, 247440, Note_on_c, 0, 54, 0
4, 247440, Note_on_c, 0, 54, 49
4, 247440, Note_on_c, 0, 57, 49
4, 247440, Note_on_c, 0, 62, 49
4, 247680, Note_on_c, 0, 62, 0
4, 247680, Note_on_c, 0, 57, 0
4, 247680, Note_on_c, 0, 54, 0
4, 247680, Note_on_c, 0, 55, 62
4, 247680, Note_on_c, 0, 58, 62
4, 247920, Note_on_c, 0, 58, 0
4, 247920, Note_on_c, 0, 55, 0
4, 247920, Note_on_c, 0, 55, 62
4, 247920, Note_on_c, 0, 58, 62
4, 247920, Note_on_c, 0, 60, 62
4, 248160, Note_on_c, 0, 60, 0
4, 248160, Note_on_c, 0, 58, 0
4, 248160, Note_on_c, 0, 55, 0
4, 248160, Note_on_c, 0, 55, 62
4, 248160, Note_on_c, 0, 58, 62
4, 248160, Note_on_c, 0, 62, 62
4, 248400, Note_on_c, 0, 62, 0
4, 248400, Note_on_c, 0, 58, 0
4, 248400, Note_on_c, 0, 55, 0
4, 248400, Note_on_c, 0, 55, 62
4, 248400, Note_on_c, 0, 58, 62
4, 248400, Note_on_c, 0, 63, 62
4, 248640, Note_on_c, 0, 63, 0
4, 248640, Note_on_c, 0, 58, 0
4, 248640, Note_on_c, 0, 55, 0
4, 248640, Note_on_c, 0, 55, 62
4, 248640, Note_on_c, 0, 58, 62
4, 248880, Note_on_c, 0, 58, 0
4, 248880, Note_on_c, 0, 55, 0
4, 248880, Note_on_c, 0, 55, 62
4, 248880, Note_on_c, 0, 58, 62
4, 248880, Note_on_c, 0, 60, 62
4, 249120, Note_on_c, 0, 60, 0
4, 249120, Note_on_c, 0, 58, 0
4, 249120, Note_on_c, 0, 55, 0
4, 249120, Note_on_c, 0, 55, 62
4, 249120, Note_on_c, 0, 58, 62
4, 249120, Note_on_c, 0, 62, 62
4, 249360, Note_on_c, 0, 62, 0
4, 249360, Note_on_c, 0, 58, 0
4, 249360, Note_on_c, 0, 55, 0
4, 249360, Note_on_c, 0, 55, 62
4, 249360, Note_on_c, 0, 58, 62
4, 249360, Note_on_c, 0, 63, 62
4, 249600, Note_on_c, 0, 63, 0
4, 249600, Note_on_c, 0, 58, 0
4, 249600, Note_on_c, 0, 55, 0
4, 249600, Note_on_c, 0, 56, 62
4, 249600, Note_on_c, 0, 59, 62
4, 249840, Note_on_c, 0, 59, 0
4, 249840, Note_on_c, 0, 56, 0
4, 249840, Note_on_c, 0, 56, 62
4, 249840, Note_on_c, 0, 59, 62
4, 249840, Note_on_c, 0, 61, 62
4, 250080, Note_on_c, 0, 61, 0
4, 250080, Note_on_c, 0, 59, 0
4, 250080, Note_on_c, 0, 56, 0
4, 250080, Note_on_c, 0, 56, 62
4, 250080, Note_on_c, 0, 59, 62
4, 250080, Note_on_c, 0, 63, 62
4, 250320, Note_on_c, 0, 63, 0
4, 250320, Note_on_c, 0, 59, 0
4, 250320, Note_on_c, 0, 56, 0
4, 250320, Note_on_c, 0, 56, 62
4, 250320, Note_on_c, 0, 59, 62
4, 250320, Note_on_c, 0, 64, 62
4, 250560, Note_on_c, 0, 64, 0
4, 250560, Note_on_c, 0, 59, 0
4, 250560, Note_on_c, 0, 56, 0
4, 250560, Note_on_c, 0, 56, 62
4, 250560, Note_on_c, 0, 59, 62
4, 250800, Note_on_c, 0, 59, 0
4, 250800, Note_on_c, 0, 56, 0
4, 250800, Note_on_c, 0, 56, 62
4, 250800, Note_on_c, 0, 59, 62
4, 250800, Note_on_c, 0, 61, 62
4, 251040, Note_on_c, 0, 61, 0
4, 251040, Note_on_c, 0, 59, 0
4, 251040, Note_on_c, 0, 56, 0
4, 251040, Note_on_c, 0, 56, 62
4, 251040, Note_on_c, 0, 59, 62
4, 251040, Note_on_c, 0, 63, 62
4, 251280, Note_on_c, 0, 63, 0
4, 251280, Note_on_c, 0, 59, 0
4, 251280, Note_on_c, 0, 56, 0
4, 251280, Note_on_c, 0, 56, 62
4, 251280, Note_on_c, 0, 59, 62
4, 251280, Note_on_c, 0, 64, 62
4, 251520, Note_on_c, 0, 64, 0
4, 251520, Note_on_c, 0, 59, 0
4, 251520, Note_on_c, 0, 56, 0
4, 251520, Note_on_c, 0, 55, 62
4, 251520, Note_on_c, 0, 57, 62
4, 251520, Note_on_c, 0, 60, 62
4, 251760, Note_on_c, 0, 60, 0
4, 251760, Note_on_c, 0, 57, 0
4, 251760, Note_on_c, 0, 55, 0
4, 251760, Note_on_c, 0, 55, 62
4, 251760, Note_on_c, 0, 57, 62
4, 251760, Note_on_c, 0, 60, 62
4, 252000, Note_on_c, 0, 60, 0
4, 252000, Note_on_c, 0, 57, 0
4, 252000, Note_on_c, 0, 55, 0
4, 252000, Note_on_c, 0, 55, 62
4, 252000, Note_on_c, 0, 57, 62
4, 252000, Note_on_c, 0, 60, 62
4, 252240, Note_on_c, 0, 60, 0
4, 252240, Note_on_c, 0, 57, 0
4, 252240, Note_on_c, 0, 55, 0
4, 252240, Note_on_c, 0, 55, 62
4, 252240, Note_on_c, 0, 57, 62
4, 252240, Note_on_c, 0, 60, 62
4, 252480, Note_on_c, 0, 60, 0
4, 252480, Note_on_c, 0, 57, 0
4, 252480, Note_on_c, 0, 55, 0
4, 252480, Note_on_c, 0, 53, 75
4, 252480, Note_on_c, 0, 58, 75
4, 252480, Note_on_c, 0, 61, 75
4, 252720, Note_on_c, 0, 61, 0
4, 252720, Note_on_c, 0, 58, 0
4, 252720, Note_on_c, 0, 53, 0
4, 252720, Note_on_c, 0, 53, 75
4, 252720, Note_on_c, 0, 58, 75
4, 252720, Note_on_c, 0, 62, 75
4, 252960, Note_on_c, 0, 62, 0
4, 252960, Note_on_c, 0, 58, 0
4, 252960, Note_on_c, 0, 53, 0
4, 252960, Note_on_c, 0, 53, 75
4, 252960, Note_on_c, 0, 58, 75
4, 252960, Note_on_c, 0, 62, 75
4, 253200, Note_on_c, 0, 62, 0
4, 253200, Note_on_c, 0, 58, 0
4, 253200, Note_on_c, 0, 53, 0
4, 253200, Note_on_c, 0, 53, 75
4, 253200, Note_on_c, 0, 58, 75
4, 253200, Note_on_c, 0, 62, 75
4, 253440, Note_on_c, 0, 62, 0
4, 253440, Note_on_c, 0, 58, 0
4, 253440, Note_on_c, 0, 53, 0
4, 253440, Note_on_c, 0, 55, 75
4, 253440, Note_on_c, 0, 59, 75
4, 253440, Note_on_c, 0, 62, 75
4, 253680, Note_on_c, 0, 62, 0
4, 253680, Note_on_c, 0, 59, 0
4, 253680, Note_on_c, 0, 55, 0
4, 253680, Note_on_c, 0, 55, 75
4, 253680, Note_on_c, 0, 59, 75
4, 253680, Note_on_c, 0, 62, 75
4, 253920, Note_on_c, 0, 62, 0
4, 253920, Note_on_c, 0, 59, 0
4, 253920, Note_on_c, 0, 55, 0
4, 253920, Note_on_c, 0, 55, 75
4, 253920, Note_on_c, 0, 59, 75
4, 253920, Note_on_c, 0, 62, 75
4, 254160, Note_on_c, 0, 62, 0
4, 254160, Note_on_c, 0, 59, 0
4, 254160, Note_on_c, 0, 55, 0
4, 254160, Note_on_c, 0, 55, 75
4, 254160, Note_on_c, 0, 59, 75
4, 254160, Note_on_c, 0, 62, 75
4, 254400, Note_on_c, 0, 62, 0
4, 254400, Note_on_c, 0, 59, 0
4, 254400, Note_on_c, 0, 55, 0
4, 254400, Note_on_c, 0, 56, 75
4, 254400, Note_on_c, 0, 60, 75
4, 254400, Note_on_c, 0, 63, 75
4, 254640, Note_on_c, 0, 63, 0
4, 254640, Note_on_c, 0, 60, 0
4, 254640, Note_on_c, 0, 56, 0
4, 254640, Note_on_c, 0, 56, 75
4, 254640, Note_on_c, 0, 60, 75
4, 254640, Note_on_c, 0, 63, 75
4, 254880, Note_on_c, 0, 63, 0
4, 254880, Note_on_c, 0, 60, 0
4, 254880, Note_on_c, 0, 56, 0
4, 254880, Note_on_c, 0, 56, 75
4, 254880, Note_on_c, 0, 60, 75
4, 254880, Note_on_c, 0, 63, 75
4, 255120, Note_on_c, 0, 63, 0
4, 255120, Note_on_c, 0, 60, 0
4, 255120, Note_on_c, 0, 56, 0
4, 255120, Note_on_c, 0, 56, 75
4, 255120, Note_on_c, 0, 60, 75
4, 255120, Note_on_c, 0, 63, 75
4, 255360, Note_on_c, 0, 63, 0
4, 255360, Note_on_c, 0, 60, 0
4, 255360, Note_on_c, 0, 56, 0
4, 255360, Control_c, 0, 64, 127
4, 255360, Note_on_c, 0, 57, 75
4, 255360, Note_on_c, 0, 61, 75
4, 255360, Note_on_c, 0, 64, 75
4, 255600, Note_on_c, 0, 64, 0
4, 255600, Note_on_c, 0, 61, 0
4, 255600, Note_on_c, 0, 57, 0
4, 255600, Note_on_c, 0, 57, 75
4, 255600, Note_on_c, 0, 61, 75
4, 255600, Note_on_c, 0, 64, 75
4, 255840, Note_on_c, 0, 64, 0
4, 255840, Note_on_c, 0, 61, 0
4, 255840, Note_on_c, 0, 57, 0
4, 255840, Note_on_c, 0, 57, 75
4, 255840, Note_on_c, 0, 61, 75
4, 255840, Note_on_c, 0, 64, 75
4, 256080, Note_on_c, 0, 64, 0
4, 256080, Note_on_c, 0, 61, 0
4, 256080, Note_on_c, 0, 57, 0
4, 256080, Note_on_c, 0, 57, 75
4, 256080, Note_on_c, 0, 61, 75
4, 256080, Note_on_c, 0, 64, 75
4, 256320, Note_on_c, 0, 64, 0
4, 256320, Note_on_c, 0, 61, 0
4, 256320, Note_on_c, 0, 57, 0
4, 256320, Note_on_c, 0, 57, 75
4, 256320, Note_on_c, 0, 61, 75
4, 256320, Note_on_c, 0, 64, 75
4, 256560, Note_on_c, 0, 64, 0
4, 256560, Note_on_c, 0, 61, 0
4, 256560, Note_on_c, 0, 57, 0
4, 256560, Note_on_c, 0, 57, 75
4, 256560, Note_on_c, 0, 61, 75
4, 256560, Note_on_c, 0, 64, 75
4, 256800, Note_on_c, 0, 64, 0
4, 256800, Note_on_c, 0, 61, 0
4, 256800, Note_on_c, 0, 57, 0
4, 256800, Note_on_c, 0, 57, 75
4, 256800, Note_on_c, 0, 61, 75
4, 256800, Note_on_c, 0, 64, 75
4, 257040, Note_on_c, 0, 64, 0
4, 257040, Note_on_c, 0, 61, 0
4, 257040, Note_on_c, 0, 57, 0
4, 257040, Note_on_c, 0, 57, 75
4, 257040, Note_on_c, 0, 61, 75
4, 257040, Note_on_c, 0, 64, 75
4, 257280, Note_on_c, 0, 64, 0
4, 257280, Note_on_c, 0, 61, 0
4, 257280, Note_on_c, 0, 57, 0
4, 257280, Note_on_c, 0, 57, 88
4, 257280, Note_on_c, 0, 61, 88
4, 257280, Note_on_c, 0, 64, 88
4, 257520, Note_on_c, 0, 64, 0
4, 257520, Note_on_c, 0, 61, 0
4, 257520, Note_on_c, 0, 57, 0
4, 257520, Note_on_c, 0, 57, 88
4, 257520, Note_on_c, 0, 61, 88
4, 257520, Note_on_c, 0, 64, 88
4, 257760, Note_on_c, 0, 64, 0
4, 257760, Note_on_c, 0, 61, 0
4, 257760, Note_on_c, 0, 57, 0
4, 257760, Note_on_c, 0, 57, 88
4, 257760, Note_on_c, 0, 61, 88
4, 257760, Note_on_c, 0, 64, 88
4, 258000, Note_on_c, 0, 64, 0
4, 258000, Note_on_c, 0, 61, 0
4, 258000, Note_on_c, 0, 57, 0
4, 258000, Note_on_c, 0, 57, 88
4, 258000, Note_on_c, 0, 61, 88
4, 258000, Note_on_c, 0, 64, 88
4, 258240, Note_on_c, 0, 64, 0
4, 258240, Note_on_c, 0, 61, 0
4, 258240, Note_on_c, 0, 57, 0
4, 258240, Note_on_c, 0, 57, 88
4, 258240, Note_on_c, 0, 61, 88
4, 258240, Note_on_c, 0, 64, 88
4, 258480, Note_on_c, 0, 64, 0
4, 258480, Note_on_c, 0, 61, 0
4, 258480, Note_on_c, 0, 57, 0
4, 258480, Note_on_c, 0, 57, 88
4, 258480, Note_on_c, 0, 61, 88
4, 258480, Note_on_c, 0, 64, 88
4, 258720, Note_on_c, 0, 64, 0
4, 258720, Note_on_c, 0, 61, 0
4, 258720, Note_on_c, 0, 57, 0
4, 258720, Note_on_c, 0, 57, 88
4, 258720, Note_on_c, 0, 61, 88
4, 258720, Note_on_c, 0, 64, 88
4, 258960, Note_on_c, 0, 64, 0
4, 258960, Note_on_c, 0, 61, 0
4, 258960, Note_on_c, 0, 57, 0
4, 258960, Control_c, 0, 64, 0
4, 258960, Note_on_c, 0, 57, 88
4, 258960, Note_on_c, 0, 61, 88
4, 258960, Note_on_c, 0, 64, 88
4, 259200, Note_on_c, 0, 64, 0
4, 259200, Note_on_c, 0, 61, 0
4, 259200, Note_on_c, 0, 57, 0
4, 259200, Control_c, 0, 64, 127
4, 259200, Note_on_c, 0, 38, 114
4, 259260, Note_on_c, 0, 38, 0
4, 259260, Note_on_c, 0, 50, 88
4, 259320, Note_on_c, 0, 50, 0
4, 259320, Note_on_c, 0, 38, 88
4, 259380, Note_on_c, 0, 38, 0
4, 259380, Note_on_c, 0, 50, 88
4, 259440, Note_on_c, 0, 50, 0
4, 259440, Note_on_c, 0, 38, 88
4, 259500, Note_on_c, 0, 38, 0
4, 259500, Note_on_c, 0, 50, 88
4, 259560, Note_on_c, 0, 50, 0
4, 259560, Note_on_c, 0, 38, 88
4, 259620, Note_on_c, 0, 38, 0
4, 259620, Note_on_c, 0, 50, 88
4, 259680, Note_on_c, 0, 50, 0
4, 259680, Note_on_c, 0, 38, 88
4, 259740, Note_on_c, 0, 38, 0
4, 259740, Note_on_c, 0, 50, 88
4, 259800, Note_on_c, 0, 50, 0
4, 259800, Note_on_c, 0, 38, 88
4, 259860, Note_on_c, 0, 38, 0
4, 259860, Note_on_c, 0, 50, 88
4, 259920, Note_on_c, 0, 50, 0
4, 259920, Note_on_c, 0, 38, 88
4, 259980, Note_on_c, 0, 38, 0
4, 259980, Note_on_c, 0, 50, 88
4, 260040, Note_on_c, 0, 50, 0
4, 260040, Note_on_c, 0, 38, 88
4, 260100, Note_on_c, 0, 38, 0
4, 260100, Note_on_c, 0, 50, 88
4, 260160, Note_on_c, 0, 50, 0
4, 260160, Note_on_c, 0, 38, 88
4, 260220, Note_on_c, 0, 38, 0
4, 260220, Note_on_c, 0, 50, 88
4, 260280, Note_on_c, 0, 50, 0
4, 260280, Note_on_c, 0, 38, 88
4, 260340, Note_on_c, 0, 38, 0
4, 260340, Note_on_c, 0, 50, 88
4, 260400, Note_on_c, 0, 50, 0
4, 260400, Note_on_c, 0, 38, 88
4, 260460, Note_on_c, 0, 38, 0
4, 260460, Note_on_c, 0, 50, 88
4, 260520, Note_on_c, 0, 50, 0
4, 260520, Note_on_c, 0, 38, 88
4, 260580, Note_on_c, 0, 38, 0
4, 260580, Note_on_c, 0, 50, 88
4, 260640, Note_on_c, 0, 50, 0
4, 260640, Note_on_c, 0, 38, 88
4, 260700, Note_on_c, 0, 38, 0
4, 260700, Note_on_c, 0, 50, 88
4, 260760, Note_on_c, 0, 50, 0
4, 260760, Note_on_c, 0, 38, 88
4, 260820, Note_on_c, 0, 38, 0
4, 260820, Note_on_c, 0, 50, 88
4, 260880, Note_on_c, 0, 50, 0
4, 260880, Note_on_c, 0, 38, 88
4, 260940, Note_on_c, 0, 38, 0
4, 260940, Note_on_c, 0, 50, 88
4, 261000, Note_on_c, 0, 50, 0
4, 261000, Note_on_c, 0, 38, 88
4, 261060, Note_on_c, 0, 38, 0
4, 261060, Control_c, 0, 64, 0
4, 261060, Note_on_c, 0, 50, 88
4, 261120, Note_on_c, 0, 50, 0
4, 261120, Control_c, 0, 64, 127
4, 261120, Note_on_c, 0, 38, 88
4, 261180, Note_on_c, 0, 38, 0
4, 261180, Note_on_c, 0, 50, 88
4, 261240, Note_on_c, 0, 50, 0
4, 261240, Note_on_c, 0, 38, 88
4, 261300, Note_on_c, 0, 38, 0
4, 261300, Note_on_c, 0, 50, 88
4, 261360, Note_on_c, 0, 50, 0
4, 261360, Note_on_c, 0, 38, 88
4, 261420, Note_on_c, 0, 38, 0
4, 261420, Note_on_c, 0, 50, 88
4, 261480, Note_on_c, 0, 50, 0
4, 261480, Note_on_c, 0, 38, 88
4, 261540, Note_on_c, 0, 38, 0
4, 261540, Note_on_c, 0, 50, 88
4, 261600, Note_on_c, 0, 50, 0
4, 261600, Note_on_c, 0, 38, 88
4, 261660, Note_on_c, 0, 38, 0
4, 261660, Note_on_c, 0, 50, 88
4, 261720, Note_on_c, 0, 50, 0
4, 261720, Note_on_c, 0, 38, 88
4, 261780, Note_on_c, 0, 38, 0
4, 261780, Note_on_c, 0, 50, 88
4, 261840, Note_on_c, 0, 50, 0
4, 261840, Note_on_c, 0, 38, 88
4, 261900, Note_on_c, 0, 38, 0
4, 261900, Note_on_c, 0, 50, 88
4, 261960, Note_on_c, 0, 50, 0
4, 261960, Note_on_c, 0, 38, 88
4, 262020, Note_on_c, 0, 38, 0
4, 262020, Note_on_c, 0, 50, 88
4, 262080, Note_on_c, 0, 50, 0
4, 262080, Note_on_c, 0, 38, 88
4, 262140, Note_on_c, 0, 38, 0
4, 262140, Note_on_c, 0, 50, 88
4, 262200, Note_on_c, 0, 50, 0
4, 262200, Note_on_c, 0, 38, 88
4, 262260, Note_on_c, 0, 38, 0
4, 262260, Note_on_c, 0, 50, 88
4, 262320, Note_on_c, 0, 50, 0
4, 262320, Note_on_c, 0, 38, 88
4, 262380, Note_on_c, 0, 38, 0
4, 262380, Note_on_c, 0, 50, 88
4, 262440, Note_on_c, 0, 50, 0
4, 262440, Note_on_c, 0, 38, 88
4, 262500, Note_on_c, 0, 38, 0
4, 262500, Note_on_c, 0, 50, 88
4, 262560, Note_on_c, 0, 50, 0
4, 262560, Note_on_c, 0, 38, 88
4, 262620, Note_on_c, 0, 38, 0
4, 262620, Note_on_c, 0, 50, 88
4, 262680, Note_on_c, 0, 50, 0
4, 262680, Note_on_c, 0, 38, 88
4, 262740, Note_on_c, 0, 38, 0
4, 262740, Note_on_c, 0, 50, 88
4, 262800, Note_on_c, 0, 50, 0
4, 262800, Note_on_c, 0, 38, 88
4, 262860, Note_on_c, 0, 38, 0
4, 262860, Note_on_c, 0, 50, 88
4, 262920, Note_on_c, 0, 50, 0
4, 262920, Note_on_c, 0, 38, 88
4, 262980, Note_on_c, 0, 38, 0
4, 262980, Control_c, 0, 64, 0
4, 262980, Note_on_c, 0, 50, 88
4, 263040, Note_on_c, 0, 50, 0
4, 263040, Control_c, 0, 64, 127
4, 263040, Note_on_c, 0, 36, 88
4, 263100, Note_on_c, 0, 36, 0
4, 263100, Note_on_c, 0, 48, 88
4, 263160, Note_on_c, 0, 48, 0
4, 263160, Note_on_c, 0, 36, 88
4, 263220, Note_on_c, 0, 36, 0
4, 263220, Note_on_c, 0, 48, 88
4, 263280, Note_on_c, 0, 48, 0
4, 263280, Note_on_c, 0, 36, 88
4, 263340, Note_on_c, 0, 36, 0
4, 263340, Note_on_c, 0, 48, 88
4, 263400, Note_on_c, 0, 48, 0
4, 263400, Note_on_c, 0, 36, 88
4, 263460, Note_on_c, 0, 36, 0
4, 263460, Note_on_c, 0, 48, 88
4, 263520, Note_on_c, 0, 48, 0
4, 263520, Note_on_c, 0, 36, 88
4, 263580, Note_on_c, 0, 36, 0
4, 263580, Note_on_c, 0, 48, 88
4, 263640, Note_on_c, 0, 48, 0
4, 263640, Note_on_c, 0, 36, 88
4, 263700, Note_on_c, 0, 36, 0
4, 263700, Note_on_c, 0, 48, 88
4, 263760, Note_on_c, 0, 48, 0
4, 263760, Note_on_c, 0, 36, 88
4, 263820, Note_on_c, 0, 36, 0
4, 263820, Note_on_c, 0, 48, 88
4, 263880, Note_on_c, 0, 48, 0
4, 263880, Note_on_c, 0, 36, 88
4, 263940, Note_on_c, 0, 36, 0
4, 263940, Note_on_c, 0, 48, 88
4, 264000, Note_on_c, 0, 48, 0
4, 264000, Note_on_c, 0, 36, 88
4, 264060, Note_on_c, 0, 36, 0
4, 264060, Note_on_c, 0, 48, 88
4, 264120, Note_on_c, 0, 48, 0
4, 264120, Note_on_c, 0, 36, 88
4, 264180, Note_on_c, 0, 36, 0
4, 264180, Note_on_c, 0, 48, 88
4, 264240, Note_on_c, 0, 48, 0
4, 264240, Note_on_c, 0, 36, 88
4, 264300, Note_on_c, 0, 36, 0
4, 264300, Note_on_c, 0, 48, 88
4, 264360, Note_on_c, 0, 48, 0
4, 264360, Note_on_c, 0, 36, 88
4, 264420, Note_on_c, 0, 36, 0
4, 264420, Note_on_c, 0, 48, 88
4, 264480, Note_on_c, 0, 48, 0
4, 264480, Note_on_c, 0, 36, 88
4, 264540, Note_on_c, 0, 36, 0
4, 264540, Note_on_c, 0, 48, 88
4, 264600, Note_on_c, 0, 48, 0
4, 264600, Note_on_c, 0, 36, 88
4, 264660, Note_on_c, 0, 36, 0
4, 264660, Note_on_c, 0, 48, 88
4, 264720, Note_on_c, 0, 48, 0
4, 264720, Note_on_c, 0, 36, 88
4, 264780, Note_on_c, 0, 36, 0
4, 264780, Note_on_c, 0, 48, 88
4, 264840, Note_on_c, 0, 48, 0
4, 264840, Note_on_c, 0, 36, 88
4, 264900, Note_on_c, 0, 36, 0
4, 264900, Control_c, 0, 64, 0
4, 264900, Note_on_c, 0, 48, 88
4, 264960, Note_on_c, 0, 48, 0
4, 264960, Control_c, 0, 64, 127
4, 264960, Note_on_c, 0, 35, 88
4, 265020, Note_on_c, 0, 35, 0
4, 265020, Note_on_c, 0, 47, 88
4, 265080, Note_on_c, 0, 47, 0
4, 265080, Note_on_c, 0, 35, 88
4, 265140, Note_on_c, 0, 35, 0
4, 265140, Note_on_c, 0, 47, 88
4, 265200, Note_on_c, 0, 47, 0
4, 265200, Note_on_c, 0, 35, 88
4, 265260, Note_on_c, 0, 35, 0
4, 265260, Note_on_c, 0, 47, 88
4, 265320, Note_on_c, 0, 47, 0
4, 265320, Note_on_c, 0, 35, 88
4, 265380, Note_on_c, 0, 35, 0
4, 265380, Note_on_c, 0, 47, 88
4, 265440, Note_on_c, 0, 47, 0
4, 265440, Note_on_c, 0, 35, 88
4, 265500, Note_on_c, 0, 35, 0
4, 265500, Note_on_c, 0, 47, 88
4, 265560, Note_on_c, 0, 47, 0
4, 265560, Note_on_c, 0, 35, 88
4, 265620, Note_on_c, 0, 35, 0
4, 265620, Note_on_c, 0, 47, 88
4, 265680, Note_on_c, 0, 47, 0
4, 265680, Note_on_c, 0, 35, 88
4, 265740, Note_on_c, 0, 35, 0
4, 265740, Note_on_c, 0, 47, 88
4, 265800, Note_on_c, 0, 47, 0
4, 265800, Note_on_c, 0, 35, 88
4, 265860, Note_on_c, 0, 35, 0
4, 265860, Control_c, 0, 64, 0
4, 265860, Note_on_c, 0, 47, 88
4, 265920, Note_on_c, 0, 47, 0
4, 265920, Control_c, 0, 64, 127
4, 265920, Note_on_c, 0, 34, 88
4, 265980, Note_on_c, 0, 34, 0
4, 265980, Note_on_c, 0, 46, 88
4, 266040, Note_on_c, 0, 46, 0
4, 266040, Note_on_c, 0, 34, 88
4, 266100, Note_on_c, 0, 34, 0
4, 266100, Note_on_c, 0, 46, 88
4, 266160, Note_on_c, 0, 46, 0
4, 266160, Note_on_c, 0, 34, 88
4, 266220, Note_on_c, 0, 34, 0
4, 266220, Note_on_c, 0, 46, 88
4, 266280, Note_on_c, 0, 46, 0
4, 266280, Note_on_c, 0, 34, 88
4, 266340, Note_on_c, 0, 34, 0
4, 266340, Note_on_c, 0, 46, 88
4, 266400, Note_on_c, 0, 46, 0
4, 266400, Note_on_c, 0, 34, 88
4, 266460, Note_on_c, 0, 34, 0
4, 266460, Note_on_c, 0, 46, 88
4, 266520, Note_on_c, 0, 46, 0
4, 266520, Note_on_c, 0, 34, 88
4, 266580, Note_on_c, 0, 34, 0
4, 266580, Note_on_c, 0, 46, 88
4, 266640, Note_on_c, 0, 46, 0
4, 266640, Note_on_c, 0, 34, 88
4, 266700, Note_on_c, 0, 34, 0
4, 266700, Note_on_c, 0, 46, 88
4, 266760, Note_on_c, 0, 46, 0
4, 266760, Note_on_c, 0, 34, 88
4, 266820, Note_on_c, 0, 34, 0
4, 266820, Control_c, 0, 64, 0
4, 266820, Note_on_c, 0, 46, 88
4, 266880, Note_on_c, 0, 46, 0
4, 266880, Control_c, 0, 64, 127
4, 266880, Note_on_c, 0, 33, 88
4, 266940, Note_on_c, 0, 33, 0
4, 266940, Note_on_c, 0, 45, 88
4, 267000, Note_on_c, 0, 45, 0
4, 267000, Note_on_c, 0, 33, 88
4, 267060, Note_on_c, 0, 33, 0
4, 267060, Note_on_c, 0, 45, 88
4, 267120, Note_on_c, 0, 45, 0
4, 267120, Note_on_c, 0, 33, 88
4, 267180, Note_on_c, 0, 33, 0
4, 267180, Note_on_c, 0, 45, 88
4, 267240, Note_on_c, 0, 45, 0
4, 267240, Note_on_c, 0, 33, 88
4, 267300, Note_on_c, 0, 33, 0
4, 267300, Note_on_c, 0, 45, 88
4, 267360, Note_on_c, 0, 45, 0
4, 267360, Note_on_c, 0, 33, 88
4, 267420, Note_on_c, 0, 33, 0
4, 267420, Note_on_c, 0, 45, 88
4, 267480, Note_on_c, 0, 45, 0
4, 267480, Note_on_c, 0, 33, 88
4, 267540, Note_on_c, 0, 33, 0
4, 267540, Note_on_c, 0, 45, 88
4, 267600, Note_on_c, 0, 45, 0
4, 267600, Note_on_c, 0, 33, 88
4, 267660, Note_on_c, 0, 33, 0
4, 267660, Note_on_c, 0, 45, 88
4, 267720, Note_on_c, 0, 45, 0
4, 267720, Note_on_c, 0, 33, 88
4, 267780, Note_on_c, 0, 33, 0
4, 267780, Note_on_c, 0, 45, 88
4, 267840, Note_on_c, 0, 45, 0
4, 267840, Note_on_c, 0, 33, 88
4, 267900, Note_on_c, 0, 33, 0
4, 267900, Note_on_c, 0, 45, 88
4, 267960, Note_on_c, 0, 45, 0
4, 267960, Note_on_c, 0, 33, 88
4, 268020, Note_on_c, 0, 33, 0
4, 268020, Note_on_c, 0, 45, 88
4, 268080, Note_on_c, 0, 45, 0
4, 268080, Note_on_c, 0, 33, 88
4, 268140, Note_on_c, 0, 33, 0
4, 268140, Note_on_c, 0, 45, 88
4, 268200, Note_on_c, 0, 45, 0
4, 268200, Note_on_c, 0, 33, 88
4, 268260, Note_on_c, 0, 33, 0
4, 268260, Note_on_c, 0, 45, 88
4, 268320, Note_on_c, 0, 45, 0
4, 268320, Note_on_c, 0, 33, 88
4, 268380, Note_on_c, 0, 33, 0
4, 268380, Note_on_c, 0, 45, 88
4, 268440, Note_on_c, 0, 45, 0
4, 268440, Note_on_c, 0, 33, 88
4, 268500, Note_on_c, 0, 33, 0
4, 268500, Note_on_c, 0, 45, 88
4, 268560, Note_on_c, 0, 45, 0
4, 268560, Note_on_c, 0, 33, 88
4, 268620, Note_on_c, 0, 33, 0
4, 268620, Note_on_c, 0, 45, 88
4, 268680, Note_on_c, 0, 45, 0
4, 268680, Note_on_c, 0, 33, 88
4, 268740, Note_on_c, 0, 33, 0
4, 268740, Note_on_c, 0, 45, 88
4, 268800, Note_on_c, 0, 45, 0
4, 268800, Note_on_c, 0, 33, 88
4, 268860, Note_on_c, 0, 33, 0
4, 268860, Note_on_c, 0, 45, 88
4, 268920, Note_on_c, 0, 45, 0
4, 268920, Note_on_c, 0, 33, 88
4, 268980, Note_on_c, 0, 33, 0
4, 268980, Note_on_c, 0, 45, 88
4, 269040, Note_on_c, 0, 45, 0
4, 269040, Note_on_c, 0, 33, 88
4, 269100, Note_on_c, 0, 33, 0
4, 269100, Note_on_c, 0, 45, 88
4, 269160, Note_on_c, 0, 45, 0
4, 269160, Note_on_c, 0, 33, 88
4, 269220, Note_on_c, 0, 33, 0
4, 269220, Note_on_c, 0, 45, 88
4, 269280, Note_on_c, 0, 45, 0
4, 269280, Note_on_c, 0, 33, 88
4, 269340, Note_on_c, 0, 33, 0
4, 269340, Note_on_c, 0, 45, 88
4, 269400, Note_on_c, 0, 45, 0
4, 269400, Note_on_c, 0, 33, 88
4, 269460, Note_on_c, 0, 33, 0
4, 269460, Note_on_c, 0, 45, 88
4, 269520, Note_on_c, 0, 45, 0
4, 269520, Note_on_c, 0, 33, 88
4, 269580, Note_on_c, 0, 33, 0
4, 269580, Note_on_c, 0, 45, 88
4, 269640, Note_on_c, 0, 45, 0
4, 269640, Note_on_c, 0, 33, 88
4, 269700, Note_on_c, 0, 33, 0
4, 269700, Note_on_c, 0, 45, 88
4, 269760, Note_on_c, 0, 45, 0
4, 269760, Note_on_c, 0, 33, 88
4, 269820, Note_on_c, 0, 33, 0
4, 269820, Note_on_c, 0, 45, 88
4, 269880, Note_on_c, 0, 45, 0
4, 269880, Note_on_c, 0, 33, 88
4, 269940, Note_on_c, 0, 33, 0
4, 269940, Note_on_c, 0, 45, 88
4, 270000, Note_on_c, 0, 45, 0
4, 270000, Note_on_c, 0, 33, 88
4, 270060, Note_on_c, 0, 33, 0
4, 270060, Note_on_c, 0, 45, 88
4, 270120, Note_on_c, 0, 45, 0
4, 270120, Note_on_c, 0, 33, 88
4, 270180, Note_on_c, 0, 33, 0
4, 270180, Note_on_c, 0, 45, 88
4, 270240, Note_on_c, 0, 45, 0
4, 270240, Note_on_c, 0, 33, 88
4, 270300, Note_on_c, 0, 33, 0
4, 270300, Note_on_c, 0, 45, 88
4, 270360, Note_on_c, 0, 45, 0
4, 270360, Note_on_c, 0, 33, 88
4, 270420, Note_on_c, 0, 33, 0
4, 270420, Note_on_c, 0, 45, 88
4, 270480, Note_on_c, 0, 45, 0
4, 270480, Note_on_c, 0, 33, 88
4, 270540, Note_on_c, 0, 33, 0
4, 270540, Note_on_c, 0, 45, 88
4, 270600, Note_on_c, 0, 45, 0
4, 270600, Control_c, 0, 64, 0
4, 270600, Note_on_c, 0, 33, 88
4, 270660, Note_on_c, 0, 33, 0
4, 270660, Note_on_c, 0, 45, 88
4, 270720, Note_on_c, 0, 45, 0
4, 270720, Note_on_c, 0, 32, 127
4, 270720, Note_on_c, 0, 44, 127
4, 271200, Note_on_c, 0, 44, 0
4, 271200, Note_on_c, 0, 32, 0
4, 272640, Note_on_c, 0, 34, 127
4, 272640, Note_on_c, 0, 38, 127
4, 276480, Note_on_c, 0, 38, 0
4, 276480, Note_on_c, 0, 34, 0
4, 276480, End_track
5, 0, Start_track
5, 0, Title_t, "Grand Piano"
5, 0, Program_c, 0, 0
5, 0, Control_c, 0, 7, 115
5, 0, Control_c, 0, 10, 47
5, 15360, Note_on_c, 0, 48, 64
5, 15360, Note_on_c, 0, 51, 64
5, 15360, Note_on_c, 0, 56, 64
5, 15360, Note_on_c, 0, 60, 64
5, 16320, Note_on_c, 0, 60, 0
5, 16320, Note_on_c, 0, 48, 0
5, 16320, Note_on_c, 0, 51, 0
5, 16320, Note_on_c, 0, 56, 0
5, 16320, Note_on_c, 0, 41, 62
5, 16320, Note_on_c, 0, 48, 62
5, 16320, Note_on_c, 0, 53, 62
5, 18240, Note_on_c, 0, 53, 0
5, 18240, Note_on_c, 0, 48, 0
5, 18240, Note_on_c, 0, 41, 0
5, 27280, Note_on_c, 0, 57, 62
5, 27320, Note_on_c, 0, 63, 62
5, 27360, Note_on_c, 0, 66, 62
5, 27760, Note_on_c, 0, 45, 62
5, 27800, Note_on_c, 0, 51, 62
5, 27840, Note_on_c, 0, 66, 0
5, 27840, Note_on_c, 0, 57, 0
5, 27840, Note_on_c, 0, 63, 0
5, 27840, Note_on_c, 0, 54, 62
5, 28240, Note_on_c, 0, 33, 62
5, 28280, Note_on_c, 0, 39, 62
5, 28320, Note_on_c, 0, 54, 0
5, 28320, Note_on_c, 0, 51, 0
5, 28320, Note_on_c, 0, 45, 0
5, 28320, Note_on_c, 0, 42, 62
5, 28800, Note_on_c, 0, 42, 0
5, 28800, Note_on_c, 0, 33, 0
5, 28800, Note_on_c, 0, 39, 0
5, 54720, Control_c, 0, 64, 127
5, 54720, Note_on_c, 0, 39, 75
5, 54800, Note_on_c, 0, 39, 0
5, 54800, Note_on_c, 0, 45, 75
5, 54879, Note_on_c, 0, 45, 0
5, 54879, Note_on_c, 0, 48, 75
5, 54960, Note_on_c, 0, 48, 0
5, 54960, Note_on_c, 0, 51, 75
5, 55040, Note_on_c, 0, 51, 0
5, 55040, Note_on_c, 0, 57, 75
5, 55119, Note_on_c, 0, 57, 0
5, 55119, Note_on_c, 0, 60, 75
5, 55200, Note_on_c, 0, 60, 0
5, 55200, Note_on_c, 0, 65, 75
5, 55280, Note_on_c, 0, 65, 0
5, 55280, Note_on_c, 0, 69, 75
5, 55359, Note_on_c, 0, 69, 0
5, 55359, Note_on_c, 0, 72, 75
5, 55440, Note_on_c, 0, 72, 0
5, 55440, Note_on_c, 0, 77, 75
5, 55520, Note_on_c, 0, 77, 0
5, 55520, Note_on_c, 0, 81, 75
5, 55599, Note_on_c, 0, 81, 0
5, 55599, Note_on_c, 0, 84, 75
5, 55680, Note_on_c, 0, 84, 0
5, 55680, Note_on_c, 0, 89, 75
5, 55760, Note_on_c, 0, 89, 0
5, 55760, Note_on_c, 0, 84, 75
5, 55839, Note_on_c, 0, 84, 0
5, 55839, Note_on_c, 0, 81, 75
5, 55920, Note_on_c, 0, 81, 0
5, 55920, Note_on_c, 0, 77, 75
5, 56000, Note_on_c, 0, 77, 0
5, 56000, Note_on_c, 0, 72, 75
5, 56079, Note_on_c, 0, 72, 0
5, 56079, Note_on_c, 0, 69, 75
5, 56160, Note_on_c, 0, 69, 0
5, 56160, Note_on_c, 0, 65, 75
5, 56240, Note_on_c, 0, 65, 0
5, 56240, Note_on_c, 0, 60, 75
5, 56319, Note_on_c, 0, 60, 0
5, 56319, Note_on_c, 0, 57, 75
5, 56400, Note_on_c, 0, 57, 0
5, 56400, Note_on_c, 0, 51, 75
5, 56480, Note_on_c, 0, 51, 0
5, 56480, Note_on_c, 0, 48, 75
5, 56559, Note_on_c, 0, 48, 0
5, 56559, Note_on_c, 0, 45, 75
5, 56640, Note_on_c, 0, 45, 0
5, 57120, Control_c, 0, 64, 0
5, 79839, Note_on_c, 0, 48, 49
5, 80000, Note_on_c, 0, 48, 0
5, 80000, Note_on_c, 0, 53, 49
5, 80160, Note_on_c, 0, 53, 0
5, 80160, Note_on_c, 0, 57, 49
5, 80319, Note_on_c, 0, 57, 0
5, 80319, Note_on_c, 0, 60, 49
5, 80480, Note_on_c, 0, 60, 0
5, 80480, Note_on_c, 0, 65, 49
5, 80640, Note_on_c, 0, 65, 0
5, 80799, Note_on_c, 0, 53, 49
5, 80960, Note_on_c, 0, 53, 0
5, 80960, Note_on_c, 0, 57, 49
5, 81120, Note_on_c, 0, 57, 0
5, 81120, Note_on_c, 0, 60, 49
5, 81279, Note_on_c, 0, 60, 0
5, 81279, Note_on_c, 0, 65, 49
5, 81440, Note_on_c, 0, 65, 0
5, 81440, Note_on_c, 0, 69, 49
5, 81600, Note_on_c, 0, 69, 0
5, 81759, Note_on_c, 0, 56, 49
5, 81920, Note_on_c, 0, 56, 0
5, 81920, Note_on_c, 0, 60, 49
5, 82080, Note_on_c, 0, 60, 0
5, 82080, Note_on_c, 0, 63, 49
5, 82239, Note_on_c, 0, 63, 0
5, 82239, Note_on_c, 0, 60, 49
5, 82400, Note_on_c, 0, 60, 0
5, 82400, Note_on_c, 0, 68, 49
5, 82560, Note_on_c, 0, 68, 0
5, 82719, Note_on_c, 0, 55, 49
5, 82880, Note_on_c, 0, 55, 0
5, 82880, Note_on_c, 0, 60, 49
5, 83040, Note_on_c, 0, 60, 0
5, 83040, Note_on_c, 0, 63, 49
5, 83199, Note_on_c, 0, 63, 0
5, 83199, Note_on_c, 0, 67, 49
5, 83360, Note_on_c, 0, 67, 0
5, 83360, Note_on_c, 0, 60, 49
5, 83520, Note_on_c, 0, 60, 0
5, 83679, Note_on_c, 0, 51, 49
5, 83840, Note_on_c, 0, 51, 0
5, 83840, Note_on_c, 0, 55, 49
5, 84000, Note_on_c, 0, 55, 0
5, 84000, Note_on_c, 0, 60, 49
5, 84159, Note_on_c, 0, 60, 0
5, 84159, Note_on_c, 0, 55, 49
5, 84320, Note_on_c, 0, 55, 0
5, 84320, Note_on_c, 0, 51, 49
5, 84480, Note_on_c, 0, 51, 0
5, 84639, Note_on_c, 0, 48, 49
5, 84800, Note_on_c, 0, 48, 0
5, 84800, Note_on_c, 0, 51, 49
5, 84960, Note_on_c, 0, 51, 0
5, 84960, Note_on_c, 0, 55, 49
5, 85119, Note_on_c, 0, 55, 0
5, 85119, Note_on_c, 0, 48, 49
5, 85280, Note_on_c, 0, 48, 0
5, 85280, Note_on_c, 0, 51, 49
5, 85440, Note_on_c, 0, 51, 0
5, 85599, Note_on_c, 0, 55, 49
5, 85760, Note_on_c, 0, 55, 0
5, 85760, Note_on_c, 0, 43, 49
5, 85920, Note_on_c, 0, 43, 0
5, 86079, Note_on_c, 0, 48, 49
5, 86240, Note_on_c, 0, 48, 0
5, 86240, Note_on_c, 0, 36, 49
5, 86400, Note_on_c, 0, 36, 0
5, 86559, Note_on_c, 0, 53, 49
5, 86720, Note_on_c, 0, 53, 0
5, 86720, Note_on_c, 0, 41, 49
5, 86880, Note_on_c, 0, 41, 0
5, 87039, Note_on_c, 0, 60, 49
5, 87200, Note_on_c, 0, 60, 0
5, 87200, Note_on_c, 0, 48, 49
5, 87360, Note_on_c, 0, 48, 0
5, 87519, Note_on_c, 0, 48, 49
5, 87680, Note_on_c, 0, 48, 0
5, 87680, Note_on_c, 0, 53, 49
5, 87840, Note_on_c, 0, 53, 0
5, 87840, Note_on_c, 0, 56, 49
5, 87999, Note_on_c, 0, 56, 0
5, 87999, Note_on_c, 0, 60, 49
5, 88160, Note_on_c, 0, 60, 0
5, 88160, Note_on_c, 0, 65, 49
5, 88320, Note_on_c, 0, 65, 0
5, 88479, Note_on_c, 0, 53, 49
5, 88640, Note_on_c, 0, 53, 0
5, 88640, Note_on_c, 0, 56, 49
5, 88800, Note_on_c, 0, 56, 0
5, 88800, Note_on_c, 0, 60, 49
5, 88959, Note_on_c, 0, 60, 0
5, 88959, Note_on_c, 0, 65, 49
5, 89120, Note_on_c, 0, 65, 0
5, 89120, Note_on_c, 0, 68, 49
5, 89280, Note_on_c, 0, 68, 0
5, 89439, Note_on_c, 0, 56, 49
5, 89600, Note_on_c, 0, 56, 0
5, 89600, Note_on_c, 0, 60, 49
5, 89760, Note_on_c, 0, 60, 0
5, 89760, Note_on_c, 0, 65, 49
5, 89919, Note_on_c, 0, 65, 0
5, 89919, Note_on_c, 0, 68, 49
5, 90080, Note_on_c, 0, 68, 0
5, 90080, Note_on_c, 0, 60, 49
5, 90240, Note_on_c, 0, 60, 0
5, 90399, Note_on_c, 0, 51, 49
5, 90560, Note_on_c, 0, 51, 0
5, 90560, Note_on_c, 0, 56, 49
5, 90720, Note_on_c, 0, 56, 0
5, 90720, Note_on_c, 0, 60, 49
5, 90879, Note_on_c, 0, 60, 0
5, 90879, Note_on_c, 0, 56, 49
5, 91040, Note_on_c, 0, 56, 0
5, 91040, Note_on_c, 0, 63, 49
5, 91200, Note_on_c, 0, 63, 0
5, 91359, Note_on_c, 0, 51, 49
5, 91520, Note_on_c, 0, 51, 0
5, 91520, Note_on_c, 0, 56, 49
5, 91680, Note_on_c, 0, 56, 0
5, 91680, Note_on_c, 0, 60, 49
5, 91839, Note_on_c, 0, 60, 0
5, 91839, Note_on_c, 0, 63, 49
5, 92000, Note_on_c, 0, 63, 0
5, 92000, Note_on_c, 0, 56, 49
5, 92160, Note_on_c, 0, 56, 0
5, 92160, Note_on_c, 0, 50, 49
5, 92319, Note_on_c, 0, 50, 0
5, 92319, Note_on_c, 0, 44, 49
5, 92480, Note_on_c, 0, 44, 0
5, 92480, Note_on_c, 0, 48, 49
5, 92640, Note_on_c, 0, 48, 0
5, 92640, Note_on_c, 0, 51, 49
5, 92799, Note_on_c, 0, 51, 0
5, 92799, Note_on_c, 0, 56, 49
5, 92960, Note_on_c, 0, 56, 0
5, 92960, Note_on_c, 0, 60, 49
5, 93120, Note_on_c, 0, 60, 0
5, 93279, Note_on_c, 0, 60, 49
5, 93440, Note_on_c, 0, 60, 0
5, 93440, Note_on_c, 0, 48, 49
5, 93600, Note_on_c, 0, 48, 0
5, 93759, Note_on_c, 0, 60, 49
5, 93920, Note_on_c, 0, 60, 0
5, 93920, Note_on_c, 0, 48, 49
5, 94080, Note_on_c, 0, 48, 0
5, 94239, Note_on_c, 0, 53, 49
5, 94400, Note_on_c, 0, 53, 0
5, 94400, Note_on_c, 0, 41, 49
5, 94560, Note_on_c, 0, 41, 0
5, 94719, Note_on_c, 0, 60, 49
5, 94880, Note_on_c, 0, 60, 0
5, 94880, Note_on_c, 0, 48, 49
5, 95040, Note_on_c, 0, 48, 0
5, 95199, Note_on_c, 0, 51, 49
5, 95360, Note_on_c, 0, 51, 0
5, 95360, Note_on_c, 0, 52, 49
5, 95520, Note_on_c, 0, 52, 0
5, 95679, Note_on_c, 0, 52, 49
5, 95840, Note_on_c, 0, 52, 0
5, 95840, Note_on_c, 0, 53, 49
5, 96000, Note_on_c, 0, 53, 0
5, 103680, Note_on_c, 0, 57, 49
5, 103680, Note_on_c, 0, 60, 49
5, 103680, Note_on_c, 0, 64, 49
5, 104640, Note_on_c, 0, 64, 0
5, 104640, Note_on_c, 0, 60, 0
5, 104640, Note_on_c, 0, 57, 0
5, 104640, Note_on_c, 0, 56, 49
5, 104640, Note_on_c, 0, 60, 49
5, 104640, Note_on_c, 0, 64, 49
5, 105600, Note_on_c, 0, 64, 0
5, 105600, Note_on_c, 0, 60, 0
5, 105600, Note_on_c, 0, 56, 0
5, 105600, Note_on_c, 0, 55, 49
5, 105600, Note_on_c, 0, 60, 49
5, 105600, Note_on_c, 0, 64, 49
5, 105600, Note_on_c, 0, 67, 49
5, 106560, Note_on_c, 0, 67, 0
5, 106560, Note_on_c, 0, 55, 0
5, 106560, Note_on_c, 0, 60, 0
5, 106560, Note_on_c, 0, 64, 0
5, 106560, Note_on_c, 0, 52, 49
5, 106560, Note_on_c, 0, 55, 49
5, 106560, Note_on_c, 0, 60, 49
5, 106560, Note_on_c, 0, 67, 49
5, 107520, Note_on_c, 0, 67, 0
5, 107520, Note_on_c, 0, 52, 0
5, 107520, Note_on_c, 0, 55, 0
5, 107520, Note_on_c, 0, 60, 0
5, 107520, Note_on_c, 0, 48, 49
5, 107520, Note_on_c, 0, 55, 49
5, 107520, Note_on_c, 0, 60, 49
5, 107520, Note_on_c, 0, 64, 49
5, 108480, Note_on_c, 0, 64, 0
5, 108480, Note_on_c, 0, 48, 0
5, 108480, Note_on_c, 0, 55, 0
5, 108480, Note_on_c, 0, 60, 0
5, 108480, Note_on_c, 0, 48, 49
5, 108480, Note_on_c, 0, 52, 49
5, 108480, Note_on_c, 0, 55, 49
5, 109440, Note_on_c, 0, 55, 0
5, 109440, Note_on_c, 0, 52, 0
5, 109440, Note_on_c, 0, 48, 0
5, 109440, Note_on_c, 0, 36, 49
5, 109440, Note_on_c, 0, 45, 49
5, 109440, Note_on_c, 0, 52, 49
5, 109440, Note_on_c, 0, 57, 49
5, 110880, Note_on_c, 0, 57, 0
5, 110880, Note_on_c, 0, 36, 0
5, 110880, Note_on_c, 0, 45, 0
5, 110880, Note_on_c, 0, 52, 0
5, 111360, Note_on_c, 0, 60, 49
5, 111360, Note_on_c, 0, 64, 49
5, 111360, Note_on_c, 0, 69, 49
5, 112320, Note_on_c, 0, 69, 0
5, 112320, Note_on_c, 0, 64, 0
5, 112320, Note_on_c, 0, 60, 0
5, 112320, Note_on_c, 0, 58, 49
5, 112320, Note_on_c, 0, 60, 49
5, 112320, Note_on_c, 0, 64, 49
5, 112320, Note_on_c, 0, 67, 49
5, 113280, Note_on_c, 0, 67, 0
5, 113280, Note_on_c, 0, 58, 0
5, 113280, Note_on_c, 0, 60, 0
5, 113280, Note_on_c, 0, 64, 0
5, 113280, Note_on_c, 0, 57, 49
5, 113280, Note_on_c, 0, 60, 49
5, 113280, Note_on_c, 0, 64, 49
5, 113280, Note_on_c, 0, 66, 49
5, 114240, Note_on_c, 0, 66, 0
5, 114240, Note_on_c, 0, 57, 0
5, 114240, Note_on_c, 0, 60, 0
5, 114240, Note_on_c, 0, 64, 0
5, 114240, Note_on_c, 0, 55, 49
5, 114240, Note_on_c, 0, 60, 49
5, 114240, Note_on_c, 0, 64, 49
5, 114240, Note_on_c, 0, 67, 49
5, 115200, Note_on_c, 0, 67, 0
5, 115200, Note_on_c, 0, 55, 0
5, 115200, Note_on_c, 0, 60, 0
5, 115200, Note_on_c, 0, 64, 0
5, 115200, Note_on_c, 0, 52, 49
5, 115200, Note_on_c, 0, 60, 49
5, 115680, Note_on_c, 0, 60, 0
5, 115680, Note_on_c, 0, 52, 0
5, 115680, Note_on_c, 0, 55, 62
5, 115920, Note_on_c, 0, 55, 0
5, 115920, Note_on_c, 0, 56, 62
5, 116160, Note_on_c, 0, 56, 0
5, 116160, Note_on_c, 0, 45, 49
5, 116160, Note_on_c, 0, 50, 49
5, 116160, Note_on_c, 0, 57, 49
5, 116160, Note_on_c, 0, 60, 49
5, 116640, Note_on_c, 0, 60, 0
5, 116640, Note_on_c, 0, 45, 0
5, 116640, Note_on_c, 0, 50, 0
5, 116640, Note_on_c, 0, 57, 0
5, 116640, Note_on_c, 0, 41, 49
5, 116640, Note_on_c, 0, 48, 49
5, 116640, Note_on_c, 0, 53, 49
5, 116640, Note_on_c, 0, 56, 49
5, 117120, Note_on_c, 0, 56, 0
5, 117120, Note_on_c, 0, 41, 0
5, 117120, Note_on_c, 0, 48, 0
5, 117120, Note_on_c, 0, 53, 0
5, 117120, Note_on_c, 0, 36, 49
5, 117120, Note_on_c, 0, 46, 49
5, 117120, Note_on_c, 0, 52, 49
5, 117120, Note_on_c, 0, 67, 49
5, 118560, Note_on_c, 0, 67, 0
5, 118560, Note_on_c, 0, 36, 0
5, 118560, Note_on_c, 0, 46, 0
5, 118560, Note_on_c, 0, 52, 0
5, 125919, Note_on_c, 0, 52, 62
5, 126080, Note_on_c, 0, 52, 0
5, 126080, Note_on_c, 0, 53, 62
5, 126240, Note_on_c, 0, 53, 0
5, 126399, Note_on_c, 0, 52, 62
5, 126560, Note_on_c, 0, 52, 0
5, 126560, Note_on_c, 0, 53, 62
5, 126720, Note_on_c, 0, 53, 0
5, 126720, Note_on_c, 0, 57, 62
5, 126879, Note_on_c, 0, 57, 0
5, 126879, Note_on_c, 0, 55, 62
5, 127040, Note_on_c, 0, 55, 0
5, 127040, Note_on_c, 0, 56, 62
5, 127200, Note_on_c, 0, 56, 0
5, 127359, Note_on_c, 0, 53, 62
5, 127520, Note_on_c, 0, 53, 0
5, 127520, Note_on_c, 0, 56, 62
5, 127680, Note_on_c, 0, 56, 0
5, 127680, Note_on_c, 0, 65, 62
5, 127920, Note_on_c, 0, 65, 0
5, 128319, Note_on_c, 0, 64, 62
5, 128480, Note_on_c, 0, 64, 0
5, 128480, Note_on_c, 0, 65, 62
5, 128640, Note_on_c, 0, 65, 0
5, 129600, Control_c, 0, 64, 127
5, 129600, Note_on_c, 0, 39, 62
5, 129600, Note_on_c, 0, 51, 62
5, 130560, Note_on_c, 0, 51, 0
5, 130560, Note_on_c, 0, 39, 0
5, 132960, Control_c, 0, 64, 0
5, 133440, Note_on_c, 0, 38, 49
5, 133440, Note_on_c, 0, 50, 49
5, 135360, Note_on_c, 0, 50, 0
5, 135360, Note_on_c, 0, 38, 0
5, 135360, Note_on_c, 0, 36, 49
5, 135360, Note_on_c, 0, 48, 49
5, 137280, Note_on_c, 0, 48, 0
5, 137280, Note_on_c, 0, 36, 0
5, 137280, Note_on_c, 0, 32, 62
5, 137280, Note_on_c, 0, 44, 62
5, 139200, Note_on_c, 0, 44, 0
5, 139200, Note_on_c, 0, 32, 0
5, 139200, Note_on_c, 0, 29, 62
5, 139200, Note_on_c, 0, 41, 62
5, 140160, Note_on_c, 0, 41, 0
5, 140160, Note_on_c, 0, 29, 0
5, 140160, Note_on_c, 0, 36, 75
5, 140160, Note_on_c, 0, 48, 75
5, 142080, Note_on_c, 0, 48, 0
5, 142080, Note_on_c, 0, 36, 0
5, 142080, Note_on_c, 0, 36, 62
5, 142080, Note_on_c, 0, 48, 62
5, 145920, Note_on_c, 0, 48, 0
5, 145920, Note_on_c, 0, 36, 0
5, 145920, Note_on_c, 0, 36, 62
5, 145920, Note_on_c, 0, 48, 62
5, 146880, Note_on_c, 0, 48, 0
5, 146880, Note_on_c, 0, 36, 0
5, 165120, Note_on_c, 0, 33, 62
5, 165120, Note_on_c, 0, 45, 62
5, 165216, Note_on_c, 0, 45, 0
5, 165216, Note_on_c, 0, 33, 0
5, 165600, Note_on_c, 0, 32, 62
5, 165600, Note_on_c, 0, 44, 62
5, 165696, Note_on_c, 0, 44, 0
5, 165696, Note_on_c, 0, 32, 0
5, 166080, Note_on_c, 0, 36, 62
5, 166080, Note_on_c, 0, 48, 62
5, 166176, Note_on_c, 0, 48, 0
5, 166176, Note_on_c, 0, 36, 0
5, 167040, Note_on_c, 0, 33, 62
5, 167040, Note_on_c, 0, 45, 62
5, 167136, Note_on_c, 0, 45, 0
5, 167136, Note_on_c, 0, 33, 0
5, 167520, Note_on_c, 0, 32, 62
5, 167520, Note_on_c, 0, 44, 62
5, 167616, Note_on_c, 0, 44, 0
5, 167616, Note_on_c, 0, 32, 0
5, 168000, Note_on_c, 0, 36, 62
5, 168000, Note_on_c, 0, 48, 62
5, 168096, Note_on_c, 0, 48, 0
5, 168096, Note_on_c, 0, 36, 0
5, 168960, Note_on_c, 0, 33, 62
5, 168960, Note_on_c, 0, 45, 62
5, 169056, Note_on_c, 0, 45, 0
5, 169056, Note_on_c, 0, 33, 0
5, 169440, Note_on_c, 0, 32, 62
5, 169440, Note_on_c, 0, 44, 62
5, 169536, Note_on_c, 0, 44, 0
5, 169536, Note_on_c, 0, 32, 0
5, 169920, Note_on_c, 0, 36, 62
5, 169920, Note_on_c, 0, 48, 62
5, 170016, Note_on_c, 0, 48, 0
5, 170016, Note_on_c, 0, 36, 0
5, 170880, Note_on_c, 0, 33, 62
5, 170880, Note_on_c, 0, 45, 62
5, 170976, Note_on_c, 0, 45, 0
5, 170976, Note_on_c, 0, 33, 0
5, 171360, Note_on_c, 0, 32, 62
5, 171360, Note_on_c, 0, 44, 62
5, 171456, Note_on_c, 0, 44, 0
5, 171456, Note_on_c, 0, 32, 0
5, 171840, Note_on_c, 0, 36, 62
5, 171840, Note_on_c, 0, 48, 62
5, 171936, Note_on_c, 0, 48, 0
5, 171936, Note_on_c, 0, 36, 0
5, 172800, Note_on_c, 0, 32, 62
5, 172800, Note_on_c, 0, 44, 62
5, 172896, Note_on_c, 0, 44, 0
5, 172896, Note_on_c, 0, 32, 0
5, 173280, Note_on_c, 0, 31, 62
5, 173280, Note_on_c, 0, 43, 62
5, 173376, Note_on_c, 0, 43, 0
5, 173376, Note_on_c, 0, 31, 0
5, 173760, Note_on_c, 0, 36, 62
5, 173760, Note_on_c, 0, 48, 62
5, 173856, Note_on_c, 0, 48, 0
5, 173856, Note_on_c, 0, 36, 0
5, 174720, Note_on_c, 0, 32, 62
5, 174720, Note_on_c, 0, 44, 62
5, 174816, Note_on_c, 0, 44, 0
5, 174816, Note_on_c, 0, 32, 0
5, 175200, Note_on_c, 0, 31, 62
5, 175200, Note_on_c, 0, 43, 62
5, 175296, Note_on_c, 0, 43, 0
5, 175296, Note_on_c, 0, 31, 0
5, 175680, Note_on_c, 0, 36, 62
5, 175680, Note_on_c, 0, 48, 62
5, 175776, Note_on_c, 0, 48, 0
5, 175776, Note_on_c, 0, 36, 0
5, 176640, Note_on_c, 0, 32, 62
5, 176640, Note_on_c, 0, 44, 62
5, 176736, Note_on_c, 0, 44, 0
5, 176736, Note_on_c, 0, 32, 0
5, 177120, Note_on_c, 0, 31, 62
5, 177120, Note_on_c, 0, 43, 62
5, 177216, Note_on_c, 0, 43, 0
5, 177216, Note_on_c, 0, 31, 0
5, 177600, Note_on_c, 0, 36, 62
5, 177600, Note_on_c, 0, 48, 62
5, 177696, Note_on_c, 0, 48, 0
5, 177696, Note_on_c, 0, 36, 0
5, 179040, Note_on_c, 0, 36, 62
5, 179040, Note_on_c, 0, 48, 62
5, 179136, Note_on_c, 0, 48, 0
5, 179136, Note_on_c, 0, 36, 0
5, 180000, Note_on_c, 0, 36, 62
5, 180000, Note_on_c, 0, 48, 62
5, 180096, Note_on_c, 0, 48, 0
5, 180096, Note_on_c, 0, 36, 0
5, 180960, Note_on_c, 0, 36, 62
5, 180960, Note_on_c, 0, 48, 62
5, 181056, Note_on_c, 0, 48, 0
5, 181056, Note_on_c, 0, 36, 0
5, 181440, Note_on_c, 0, 36, 62
5, 181440, Note_on_c, 0, 48, 62
5, 181536, Note_on_c, 0, 48, 0
5, 181536, Note_on_c, 0, 36, 0
5, 182400, Note_on_c, 0, 48, 49
5, 184320, Note_on_c, 0, 48, 0
5, 184320, Note_on_c, 0, 48, 49
5, 186240, Note_on_c, 0, 48, 0
5, 186240, Note_on_c, 0, 48, 49
5, 188160, Note_on_c, 0, 48, 0
5, 188160, Note_on_c, 0, 48, 49
5, 190080, Note_on_c, 0, 48, 0
5, 228480, Note_on_c, 0, 50, 88
5, 232320, Note_on_c, 0, 50, 0
5, 232320, End_track
0, 0, End_of_file
