0, 0, Header, 1, 5, 480
1, 0, Start_track
1, 0, Title_t, "tchaikovsky sleeping beauty act2 20 finale"
1, 0, Copyright_t, "Adaptation for Disklavier pianos, by: Robert C. Kuhmann (c) 2012."
1, 0, Text_t, "Seq. (c) by: Segundo G. Yogore,  2006\012"
1, 0, Time_signature, 4, 2, 24, 8
1, 0, Key_signature, -3, "major"
1, 0, Tempo, 400000
1, 40320, Tempo, 500000
1, 55680, Tempo, 400000
1, 71040, Tempo, 400000
1, 142080, Time_signature, 8, 2, 24, 8
1, 142080, End_track
2, 0, Start_track
2, 0, Title_t, "Grand Piano"
2, 0, Program_c, 0, 0
2, 0, Control_c, 0, 7, 115
2, 0, Control_c, 0, 10, 86
2, 0, Note_on_c, 0, 75, 97
2, 0, Note_on_c, 0, 82, 97
2, 0, Note_on_c, 0, 87, 97
2, 600, Note_on_c, 0, 87, 0
2, 600, Note_on_c, 0, 82, 0
2, 600, Note_on_c, 0, 75, 0
2, 600, Note_on_c, 0, 82, 71
2, 623, Note_on_c, 0, 82, 0
2, 720, Note_on_c, 0, 82, 71
2, 840, Note_on_c, 0, 82, 0
2, 840, Note_on_c, 0, 84, 71
2, 960, Note_on_c, 0, 84, 0
2, 960, Note_on_c, 0, 84, 71
2, 1080, Note_on_c, 0, 84, 0
2, 1080, Note_on_c, 0, 86, 71
2, 1200, Note_on_c, 0, 86, 0
2, 1200, Note_on_c, 0, 86, 71
2, 1320, Note_on_c, 0, 86, 0
2, 1320, Note_on_c, 0, 87, 71
2, 1440, Note_on_c, 0, 87, 0
2, 1440, Note_on_c, 0, 87, 71
2, 1560, Note_on_c, 0, 87, 0
2, 1560, Note_on_c, 0, 86, 71
2, 1680, Note_on_c, 0, 86, 0
2, 1680, Note_on_c, 0, 86, 71
2, 1800, Note_on_c, 0, 86, 0
2, 1800, Note_on_c, 0, 84, 71
2, 1920, Note_on_c, 0, 84, 0
2, 1920, Note_on_c, 0, 84, 71
2, 2040, Note_on_c, 0, 84, 0
2, 2040, Note_on_c, 0, 82, 71
2, 2160, Note_on_c, 0, 82, 0
2, 2160, Note_on_c, 0, 82, 71
2, 2280, Note_on_c, 0, 82, 0
2, 2280, Note_on_c, 0, 80, 71
2, 2400, Note_on_c, 0, 80, 0
2, 2400, Note_on_c, 0, 80, 71
2, 2423, Note_on_c, 0, 80, 0
2, 2520, Note_on_c, 0, 79, 71
2, 2543, Note_on_c, 0, 79, 0
2, 2640, Note_on_c, 0, 77, 71
2, 2663, Note_on_c, 0, 77, 0
2, 2760, Note_on_c, 0, 75, 71
2, 2783, Note_on_c, 0, 75, 0
2, 2880, Note_on_c, 0, 72, 97
2, 2880, Note_on_c, 0, 74, 97
2, 2880, Note_on_c, 0, 77, 97
2, 2880, Note_on_c, 0, 84, 97
2, 3360, Note_on_c, 0, 84, 0
2, 3360, Note_on_c, 0, 72, 0
2, 3360, Note_on_c, 0, 74, 0
2, 3360, Note_on_c, 0, 77, 0
2, 3360, Note_on_c, 0, 70, 71
2, 3360, Note_on_c, 0, 74, 71
2, 3360, Note_on_c, 0, 77, 71
2, 3360, Note_on_c, 0, 82, 71
2, 3840, Note_on_c, 0, 82, 0
2, 3840, Note_on_c, 0, 70, 0
2, 3840, Note_on_c, 0, 74, 0
2, 3840, Note_on_c, 0, 77, 0
2, 3840, Note_on_c, 0, 75, 97
2, 3840, Note_on_c, 0, 82, 97
2, 3840, Note_on_c, 0, 87, 97
2, 4440, Note_on_c, 0, 87, 0
2, 4440, Note_on_c, 0, 82, 0
2, 4440, Note_on_c, 0, 75, 0
2, 4440, Note_on_c, 0, 82, 71
2, 4463, Note_on_c, 0, 82, 0
2, 4560, Note_on_c, 0, 82, 71
2, 4680, Note_on_c, 0, 82, 0
2, 4680, Note_on_c, 0, 84, 71
2, 4800, Note_on_c, 0, 84, 0
2, 4800, Note_on_c, 0, 84, 71
2, 4920, Note_on_c, 0, 84, 0
2, 4920, Note_on_c, 0, 86, 71
2, 5040, Note_on_c, 0, 86, 0
2, 5040, Note_on_c, 0, 86, 71
2, 5160, Note_on_c, 0, 86, 0
2, 5160, Note_on_c, 0, 87, 71
2, 5280, Note_on_c, 0, 87, 0
2, 5280, Note_on_c, 0, 87, 71
2, 5400, Note_on_c, 0, 87, 0
2, 5400, Note_on_c, 0, 86, 71
2, 5520, Note_on_c, 0, 86, 0
2, 5520, Note_on_c, 0, 86, 71
2, 5640, Note_on_c, 0, 86, 0
2, 5640, Note_on_c, 0, 84, 71
2, 5760, Note_on_c, 0, 84, 0
2, 5760, Note_on_c, 0, 84, 71
2, 5880, Note_on_c, 0, 84, 0
2, 5880, Note_on_c, 0, 82, 71
2, 6000, Note_on_c, 0, 82, 0
2, 6000, Note_on_c, 0, 82, 71
2, 6120, Note_on_c, 0, 82, 0
2, 6120, Note_on_c, 0, 80, 71
2, 6240, Note_on_c, 0, 80, 0
2, 6240, Note_on_c, 0, 80, 71
2, 6263, Note_on_c, 0, 80, 0
2, 6360, Note_on_c, 0, 79, 71
2, 6383, Note_on_c, 0, 79, 0
2, 6480, Note_on_c, 0, 77, 71
2, 6503, Note_on_c, 0, 77, 0
2, 6600, Note_on_c, 0, 75, 71
2, 6623, Note_on_c, 0, 75, 0
2, 6720, Note_on_c, 0, 72, 97
2, 6720, Note_on_c, 0, 74, 97
2, 6720, Note_on_c, 0, 77, 97
2, 6720, Note_on_c, 0, 84, 97
2, 7200, Note_on_c, 0, 84, 0
2, 7200, Note_on_c, 0, 72, 0
2, 7200, Note_on_c, 0, 74, 0
2, 7200, Note_on_c, 0, 77, 0
2, 7200, Note_on_c, 0, 70, 71
2, 7200, Note_on_c, 0, 74, 71
2, 7200, Note_on_c, 0, 77, 71
2, 7200, Note_on_c, 0, 82, 71
2, 7680, Note_on_c, 0, 82, 0
2, 7680, Note_on_c, 0, 70, 0
2, 7680, Note_on_c, 0, 74, 0
2, 7680, Note_on_c, 0, 77, 0
2, 7680, Note_on_c, 0, 82, 71
2, 7800, Note_on_c, 0, 82, 0
2, 7800, Note_on_c, 0, 84, 71
2, 7920, Note_on_c, 0, 84, 0
2, 7920, Note_on_c, 0, 84, 71
2, 8040, Note_on_c, 0, 84, 0
2, 8040, Note_on_c, 0, 85, 71
2, 8160, Note_on_c, 0, 85, 0
2, 8160, Note_on_c, 0, 85, 97
2, 8520, Note_on_c, 0, 85, 0
2, 8520, Note_on_c, 0, 84, 71
2, 8640, Note_on_c, 0, 84, 0
2, 8640, Note_on_c, 0, 79, 71
2, 8760, Note_on_c, 0, 79, 0
2, 8760, Note_on_c, 0, 80, 71
2, 8880, Note_on_c, 0, 80, 0
2, 8880, Note_on_c, 0, 80, 71
2, 9000, Note_on_c, 0, 80, 0
2, 9000, Note_on_c, 0, 82, 71
2, 9120, Note_on_c, 0, 82, 0
2, 9120, Note_on_c, 0, 82, 97
2, 9480, Note_on_c, 0, 82, 0
2, 9480, Note_on_c, 0, 80, 71
2, 9600, Note_on_c, 0, 80, 0
2, 9600, Note_on_c, 0, 84, 71
2, 9720, Note_on_c, 0, 84, 0
2, 9720, Note_on_c, 0, 86, 71
2, 9840, Note_on_c, 0, 86, 0
2, 9840, Note_on_c, 0, 86, 71
2, 9960, Note_on_c, 0, 86, 0
2, 9960, Note_on_c, 0, 87, 71
2, 10080, Note_on_c, 0, 87, 0
2, 10080, Note_on_c, 0, 87, 97
2, 10440, Note_on_c, 0, 87, 0
2, 10440, Note_on_c, 0, 86, 71
2, 10560, Note_on_c, 0, 86, 0
2, 10560, Note_on_c, 0, 81, 71
2, 10680, Note_on_c, 0, 81, 0
2, 10680, Note_on_c, 0, 82, 71
2, 10800, Note_on_c, 0, 82, 0
2, 10800, Note_on_c, 0, 82, 71
2, 10920, Note_on_c, 0, 82, 0
2, 10920, Note_on_c, 0, 84, 71
2, 11040, Note_on_c, 0, 84, 0
2, 11040, Note_on_c, 0, 84, 97
2, 11400, Note_on_c, 0, 84, 0
2, 11400, Note_on_c, 0, 82, 71
2, 11520, Note_on_c, 0, 82, 0
2, 11520, Note_on_c, 0, 85, 71
2, 11640, Note_on_c, 0, 85, 0
2, 11640, Note_on_c, 0, 86, 71
2, 11760, Note_on_c, 0, 86, 0
2, 11760, Note_on_c, 0, 86, 71
2, 11880, Note_on_c, 0, 86, 0
2, 11880, Note_on_c, 0, 91, 71
2, 12000, Note_on_c, 0, 91, 0
2, 12000, Note_on_c, 0, 91, 71
2, 12120, Note_on_c, 0, 91, 0
2, 12120, Note_on_c, 0, 86, 71
2, 12240, Note_on_c, 0, 86, 0
2, 12240, Note_on_c, 0, 86, 71
2, 12360, Note_on_c, 0, 86, 0
2, 12360, Note_on_c, 0, 89, 71
2, 12480, Note_on_c, 0, 89, 0
2, 12480, Note_on_c, 0, 89, 71
2, 12600, Note_on_c, 0, 89, 0
2, 12600, Note_on_c, 0, 87, 71
2, 12720, Note_on_c, 0, 87, 0
2, 12720, Note_on_c, 0, 87, 71
2, 12840, Note_on_c, 0, 87, 0
2, 12840, Note_on_c, 0, 86, 71
2, 12960, Note_on_c, 0, 86, 0
2, 12960, Note_on_c, 0, 86, 71
2, 13080, Note_on_c, 0, 86, 0
2, 13080, Note_on_c, 0, 85, 71
2, 13200, Note_on_c, 0, 85, 0
2, 13200, Note_on_c, 0, 85, 71
2, 13320, Note_on_c, 0, 85, 0
2, 13320, Note_on_c, 0, 82, 71
2, 13440, Note_on_c, 0, 82, 0
2, 13440, Note_on_c, 0, 82, 71
2, 13560, Note_on_c, 0, 82, 0
2, 13560, Note_on_c, 0, 80, 71
2, 13680, Note_on_c, 0, 80, 0
2, 13680, Note_on_c, 0, 86, 71
2, 13703, Note_on_c, 0, 86, 0
2, 13800, Note_on_c, 0, 84, 71
2, 13823, Note_on_c, 0, 84, 0
2, 13920, Note_on_c, 0, 82, 71
2, 13943, Note_on_c, 0, 82, 0
2, 14040, Note_on_c, 0, 80, 71
2, 14063, Note_on_c, 0, 80, 0
2, 14160, Note_on_c, 0, 79, 71
2, 14183, Note_on_c, 0, 79, 0
2, 14280, Note_on_c, 0, 77, 71
2, 14303, Note_on_c, 0, 77, 0
2, 14400, Note_on_c, 0, 75, 71
2, 14520, Note_on_c, 0, 75, 0
2, 14520, Note_on_c, 0, 74, 71
2, 14640, Note_on_c, 0, 74, 0
2, 14640, Note_on_c, 0, 76, 71
2, 14663, Note_on_c, 0, 76, 0
2, 14760, Note_on_c, 0, 77, 71
2, 14783, Note_on_c, 0, 77, 0
2, 14880, Note_on_c, 0, 79, 71
2, 14903, Note_on_c, 0, 79, 0
2, 15000, Note_on_c, 0, 80, 71
2, 15023, Note_on_c, 0, 80, 0
2, 15120, Note_on_c, 0, 81, 71
2, 15143, Note_on_c, 0, 81, 0
2, 15240, Note_on_c, 0, 82, 71
2, 15263, Note_on_c, 0, 82, 0
2, 15360, Note_on_c, 0, 75, 97
2, 15360, Note_on_c, 0, 82, 97
2, 15360, Note_on_c, 0, 87, 97
2, 15960, Note_on_c, 0, 87, 0
2, 15960, Note_on_c, 0, 82, 0
2, 15960, Note_on_c, 0, 75, 0
2, 15960, Note_on_c, 0, 82, 71
2, 15983, Note_on_c, 0, 82, 0
2, 16080, Note_on_c, 0, 82, 71
2, 16200, Note_on_c, 0, 82, 0
2, 16200, Note_on_c, 0, 84, 71
2, 16320, Note_on_c, 0, 84, 0
2, 16320, Note_on_c, 0, 84, 71
2, 16440, Note_on_c, 0, 84, 0
2, 16440, Note_on_c, 0, 86, 71
2, 16560, Note_on_c, 0, 86, 0
2, 16560, Note_on_c, 0, 86, 71
2, 16680, Note_on_c, 0, 86, 0
2, 16680, Note_on_c, 0, 87, 71
2, 16800, Note_on_c, 0, 87, 0
2, 16800, Note_on_c, 0, 87, 71
2, 16920, Note_on_c, 0, 87, 0
2, 16920, Note_on_c, 0, 86, 71
2, 17040, Note_on_c, 0, 86, 0
2, 17040, Note_on_c, 0, 86, 71
2, 17160, Note_on_c, 0, 86, 0
2, 17160, Note_on_c, 0, 84, 71
2, 17280, Note_on_c, 0, 84, 0
2, 17280, Note_on_c, 0, 84, 71
2, 17400, Note_on_c, 0, 84, 0
2, 17400, Note_on_c, 0, 82, 71
2, 17520, Note_on_c, 0, 82, 0
2, 17520, Note_on_c, 0, 82, 71
2, 17640, Note_on_c, 0, 82, 0
2, 17640, Note_on_c, 0, 80, 71
2, 17760, Note_on_c, 0, 80, 0
2, 17760, Note_on_c, 0, 80, 71
2, 17783, Note_on_c, 0, 80, 0
2, 17880, Note_on_c, 0, 79, 71
2, 17903, Note_on_c, 0, 79, 0
2, 18000, Note_on_c, 0, 77, 71
2, 18023, Note_on_c, 0, 77, 0
2, 18120, Note_on_c, 0, 75, 71
2, 18143, Note_on_c, 0, 75, 0
2, 18240, Note_on_c, 0, 72, 97
2, 18240, Note_on_c, 0, 74, 97
2, 18240, Note_on_c, 0, 77, 97
2, 18240, Note_on_c, 0, 84, 97
2, 18720, Note_on_c, 0, 84, 0
2, 18720, Note_on_c, 0, 72, 0
2, 18720, Note_on_c, 0, 74, 0
2, 18720, Note_on_c, 0, 77, 0
2, 18720, Note_on_c, 0, 70, 71
2, 18720, Note_on_c, 0, 74, 71
2, 18720, Note_on_c, 0, 77, 71
2, 18720, Note_on_c, 0, 82, 71
2, 19200, Note_on_c, 0, 82, 0
2, 19200, Note_on_c, 0, 70, 0
2, 19200, Note_on_c, 0, 74, 0
2, 19200, Note_on_c, 0, 77, 0
2, 19200, Note_on_c, 0, 75, 97
2, 19200, Note_on_c, 0, 82, 97
2, 19200, Note_on_c, 0, 87, 97
2, 19800, Note_on_c, 0, 87, 0
2, 19800, Note_on_c, 0, 82, 0
2, 19800, Note_on_c, 0, 75, 0
2, 19800, Note_on_c, 0, 82, 71
2, 19823, Note_on_c, 0, 82, 0
2, 19920, Note_on_c, 0, 82, 71
2, 20040, Note_on_c, 0, 82, 0
2, 20040, Note_on_c, 0, 84, 71
2, 20160, Note_on_c, 0, 84, 0
2, 20160, Note_on_c, 0, 84, 71
2, 20280, Note_on_c, 0, 84, 0
2, 20280, Note_on_c, 0, 86, 71
2, 20400, Note_on_c, 0, 86, 0
2, 20400, Note_on_c, 0, 86, 71
2, 20520, Note_on_c, 0, 86, 0
2, 20520, Note_on_c, 0, 87, 71
2, 20640, Note_on_c, 0, 87, 0
2, 20640, Note_on_c, 0, 87, 71
2, 20760, Note_on_c, 0, 87, 0
2, 20760, Note_on_c, 0, 86, 71
2, 20880, Note_on_c, 0, 86, 0
2, 20880, Note_on_c, 0, 86, 71
2, 21000, Note_on_c, 0, 86, 0
2, 21000, Note_on_c, 0, 84, 71
2, 21120, Note_on_c, 0, 84, 0
2, 21120, Note_on_c, 0, 84, 71
2, 21240, Note_on_c, 0, 84, 0
2, 21240, Note_on_c, 0, 82, 71
2, 21360, Note_on_c, 0, 82, 0
2, 21360, Note_on_c, 0, 82, 71
2, 21480, Note_on_c, 0, 82, 0
2, 21480, Note_on_c, 0, 80, 71
2, 21600, Note_on_c, 0, 80, 0
2, 21600, Note_on_c, 0, 80, 71
2, 21623, Note_on_c, 0, 80, 0
2, 21720, Note_on_c, 0, 79, 71
2, 21743, Note_on_c, 0, 79, 0
2, 21840, Note_on_c, 0, 77, 71
2, 21863, Note_on_c, 0, 77, 0
2, 21960, Note_on_c, 0, 75, 71
2, 21983, Note_on_c, 0, 75, 0
2, 22080, Note_on_c, 0, 72, 97
2, 22080, Note_on_c, 0, 74, 97
2, 22080, Note_on_c, 0, 77, 97
2, 22080, Note_on_c, 0, 84, 97
2, 22560, Note_on_c, 0, 84, 0
2, 22560, Note_on_c, 0, 72, 0
2, 22560, Note_on_c, 0, 74, 0
2, 22560, Note_on_c, 0, 77, 0
2, 22560, Note_on_c, 0, 70, 71
2, 22560, Note_on_c, 0, 74, 71
2, 22560, Note_on_c, 0, 77, 71
2, 22560, Note_on_c, 0, 82, 71
2, 23040, Note_on_c, 0, 82, 0
2, 23040, Note_on_c, 0, 70, 0
2, 23040, Note_on_c, 0, 74, 0
2, 23040, Note_on_c, 0, 77, 0
2, 23040, Note_on_c, 0, 82, 71
2, 23160, Note_on_c, 0, 82, 0
2, 23160, Note_on_c, 0, 84, 71
2, 23280, Note_on_c, 0, 84, 0
2, 23280, Note_on_c, 0, 84, 71
2, 23400, Note_on_c, 0, 84, 0
2, 23400, Note_on_c, 0, 85, 71
2, 23520, Note_on_c, 0, 85, 0
2, 23520, Note_on_c, 0, 85, 97
2, 23880, Note_on_c, 0, 85, 0
2, 23880, Note_on_c, 0, 84, 71
2, 24000, Note_on_c, 0, 84, 0
2, 24000, Note_on_c, 0, 79, 71
2, 24120, Note_on_c, 0, 79, 0
2, 24120, Note_on_c, 0, 80, 71
2, 24240, Note_on_c, 0, 80, 0
2, 24240, Note_on_c, 0, 80, 71
2, 24360, Note_on_c, 0, 80, 0
2, 24360, Note_on_c, 0, 82, 71
2, 24480, Note_on_c, 0, 82, 0
2, 24480, Note_on_c, 0, 82, 97
2, 24840, Note_on_c, 0, 82, 0
2, 24840, Note_on_c, 0, 80, 71
2, 24960, Note_on_c, 0, 80, 0
2, 24960, Note_on_c, 0, 84, 71
2, 25080, Note_on_c, 0, 84, 0
2, 25080, Note_on_c, 0, 86, 71
2, 25200, Note_on_c, 0, 86, 0
2, 25200, Note_on_c, 0, 86, 71
2, 25320, Note_on_c, 0, 86, 0
2, 25320, Note_on_c, 0, 87, 71
2, 25440, Note_on_c, 0, 87, 0
2, 25440, Note_on_c, 0, 87, 97
2, 25800, Note_on_c, 0, 87, 0
2, 25800, Note_on_c, 0, 86, 71
2, 25920, Note_on_c, 0, 86, 0
2, 25920, Note_on_c, 0, 81, 71
2, 26040, Note_on_c, 0, 81, 0
2, 26040, Note_on_c, 0, 82, 71
2, 26160, Note_on_c, 0, 82, 0
2, 26160, Note_on_c, 0, 82, 71
2, 26280, Note_on_c, 0, 82, 0
2, 26280, Note_on_c, 0, 84, 71
2, 26400, Note_on_c, 0, 84, 0
2, 26400, Note_on_c, 0, 84, 97
2, 26760, Note_on_c, 0, 84, 0
2, 26760, Note_on_c, 0, 82, 71
2, 26880, Note_on_c, 0, 82, 0
2, 26880, Note_on_c, 0, 82, 71
2, 27000, Note_on_c, 0, 82, 0
2, 27000, Note_on_c, 0, 84, 71
2, 27120, Note_on_c, 0, 84, 0
2, 27120, Note_on_c, 0, 84, 71
2, 27240, Note_on_c, 0, 84, 0
2, 27240, Note_on_c, 0, 85, 71
2, 27360, Note_on_c, 0, 85, 0
2, 27360, Note_on_c, 0, 85, 71
2, 27480, Note_on_c, 0, 85, 0
2, 27480, Note_on_c, 0, 83, 71
2, 27600, Note_on_c, 0, 83, 0
2, 27600, Note_on_c, 0, 83, 71
2, 27720, Note_on_c, 0, 83, 0
2, 27720, Note_on_c, 0, 84, 71
2, 27840, Note_on_c, 0, 84, 0
2, 27840, Note_on_c, 0, 84, 71
2, 27960, Note_on_c, 0, 84, 0
2, 27960, Note_on_c, 0, 86, 71
2, 28080, Note_on_c, 0, 86, 0
2, 28080, Note_on_c, 0, 86, 71
2, 28200, Note_on_c, 0, 86, 0
2, 28200, Note_on_c, 0, 87, 71
2, 28320, Note_on_c, 0, 87, 0
2, 28320, Note_on_c, 0, 87, 71
2, 28440, Note_on_c, 0, 87, 0
2, 28440, Note_on_c, 0, 85, 71
2, 28560, Note_on_c, 0, 85, 0
2, 28560, Note_on_c, 0, 85, 71
2, 28680, Note_on_c, 0, 85, 0
2, 28680, Note_on_c, 0, 86, 71
2, 28800, Note_on_c, 0, 86, 0
2, 28800, Note_on_c, 0, 86, 71
2, 28920, Note_on_c, 0, 86, 0
2, 28920, Note_on_c, 0, 87, 71
2, 29040, Note_on_c, 0, 87, 0
2, 29040, Note_on_c, 0, 87, 71
2, 29160, Note_on_c, 0, 87, 0
2, 29160, Note_on_c, 0, 89, 71
2, 29280, Note_on_c, 0, 89, 0
2, 29280, Note_on_c, 0, 89, 71
2, 29400, Note_on_c, 0, 89, 0
2, 29400, Note_on_c, 0, 86, 71
2, 29520, Note_on_c, 0, 86, 0
2, 29520, Note_on_c, 0, 86, 71
2, 29640, Note_on_c, 0, 86, 0
2, 29640, Note_on_c, 0, 87, 71
2, 29760, Note_on_c, 0, 87, 0
2, 29760, Note_on_c, 0, 89, 71
2, 29880, Note_on_c, 0, 89, 0
2, 29880, Note_on_c, 0, 86, 71
2, 30000, Note_on_c, 0, 86, 0
2, 30000, Note_on_c, 0, 86, 71
2, 30120, Note_on_c, 0, 86, 0
2, 30120, Note_on_c, 0, 87, 71
2, 30240, Note_on_c, 0, 87, 0
2, 30240, Note_on_c, 0, 89, 71
2, 30360, Note_on_c, 0, 89, 0
2, 30360, Note_on_c, 0, 86, 71
2, 30480, Note_on_c, 0, 86, 0
2, 30480, Note_on_c, 0, 86, 71
2, 30600, Note_on_c, 0, 86, 0
2, 30600, Note_on_c, 0, 87, 71
2, 30720, Note_on_c, 0, 87, 0
2, 30720, Note_on_c, 0, 89, 71
2, 30840, Note_on_c, 0, 89, 0
2, 30840, Note_on_c, 0, 86, 71
2, 30960, Note_on_c, 0, 86, 0
2, 30960, Note_on_c, 0, 86, 71
2, 31080, Note_on_c, 0, 86, 0
2, 31080, Note_on_c, 0, 87, 71
2, 31200, Note_on_c, 0, 87, 0
2, 31200, Note_on_c, 0, 89, 71
2, 31320, Note_on_c, 0, 89, 0
2, 31320, Note_on_c, 0, 86, 71
2, 31440, Note_on_c, 0, 86, 0
2, 31440, Note_on_c, 0, 86, 71
2, 31560, Note_on_c, 0, 86, 0
2, 31560, Note_on_c, 0, 87, 71
2, 31680, Note_on_c, 0, 87, 0
2, 31680, Note_on_c, 0, 89, 71
2, 31800, Note_on_c, 0, 89, 0
2, 31800, Note_on_c, 0, 86, 71
2, 31920, Note_on_c, 0, 86, 0
2, 31920, Note_on_c, 0, 86, 71
2, 32040, Note_on_c, 0, 86, 0
2, 32040, Note_on_c, 0, 87, 71
2, 32160, Note_on_c, 0, 87, 0
2, 32160, Note_on_c, 0, 89, 71
2, 32280, Note_on_c, 0, 89, 0
2, 32280, Note_on_c, 0, 86, 71
2, 32400, Note_on_c, 0, 86, 0
2, 32400, Note_on_c, 0, 86, 71
2, 32520, Note_on_c, 0, 86, 0
2, 32520, Note_on_c, 0, 87, 71
2, 32640, Note_on_c, 0, 87, 0
2, 32640, Note_on_c, 0, 82, 71
2, 32760, Note_on_c, 0, 82, 0
2, 32760, Note_on_c, 0, 81, 71
2, 32880, Note_on_c, 0, 81, 0
2, 32880, Note_on_c, 0, 81, 71
2, 33000, Note_on_c, 0, 81, 0
2, 33000, Note_on_c, 0, 82, 71
2, 33120, Note_on_c, 0, 82, 0
2, 33120, Note_on_c, 0, 82, 71
2, 33240, Note_on_c, 0, 82, 0
2, 33240, Note_on_c, 0, 81, 71
2, 33360, Note_on_c, 0, 81, 0
2, 33360, Note_on_c, 0, 81, 71
2, 33480, Note_on_c, 0, 81, 0
2, 33480, Note_on_c, 0, 82, 71
2, 33600, Note_on_c, 0, 82, 0
2, 33600, Note_on_c, 0, 94, 71
2, 33720, Note_on_c, 0, 94, 0
2, 33720, Note_on_c, 0, 93, 71
2, 33840, Note_on_c, 0, 93, 0
2, 33840, Note_on_c, 0, 93, 71
2, 33960, Note_on_c, 0, 93, 0
2, 33960, Note_on_c, 0, 94, 71
2, 34080, Note_on_c, 0, 94, 0
2, 34080, Note_on_c, 0, 94, 71
2, 34200, Note_on_c, 0, 94, 0
2, 34200, Note_on_c, 0, 93, 71
2, 34320, Note_on_c, 0, 93, 0
2, 34320, Note_on_c, 0, 93, 71
2, 34440, Note_on_c, 0, 93, 0
2, 34440, Note_on_c, 0, 94, 71
2, 34560, Note_on_c, 0, 94, 0
2, 34560, Note_on_c, 0, 91, 71
2, 34680, Note_on_c, 0, 91, 0
2, 34680, Note_on_c, 0, 90, 71
2, 34800, Note_on_c, 0, 90, 0
2, 34800, Note_on_c, 0, 90, 71
2, 34920, Note_on_c, 0, 90, 0
2, 34920, Note_on_c, 0, 91, 71
2, 35040, Note_on_c, 0, 91, 0
2, 35040, Note_on_c, 0, 87, 71
2, 35160, Note_on_c, 0, 87, 0
2, 35160, Note_on_c, 0, 86, 71
2, 35280, Note_on_c, 0, 86, 0
2, 35280, Note_on_c, 0, 86, 71
2, 35400, Note_on_c, 0, 86, 0
2, 35400, Note_on_c, 0, 87, 71
2, 35520, Note_on_c, 0, 87, 0
2, 35520, Note_on_c, 0, 82, 71
2, 35640, Note_on_c, 0, 82, 0
2, 35640, Note_on_c, 0, 81, 71
2, 35760, Note_on_c, 0, 81, 0
2, 35760, Note_on_c, 0, 81, 71
2, 35880, Note_on_c, 0, 81, 0
2, 35880, Note_on_c, 0, 82, 71
2, 36000, Note_on_c, 0, 82, 0
2, 36000, Note_on_c, 0, 82, 71
2, 36120, Note_on_c, 0, 82, 0
2, 36120, Note_on_c, 0, 81, 71
2, 36240, Note_on_c, 0, 81, 0
2, 36240, Note_on_c, 0, 81, 71
2, 36360, Note_on_c, 0, 81, 0
2, 36360, Note_on_c, 0, 82, 71
2, 36480, Note_on_c, 0, 82, 0
2, 36480, Note_on_c, 0, 80, 71
2, 36600, Note_on_c, 0, 80, 0
2, 36600, Note_on_c, 0, 79, 71
2, 36720, Note_on_c, 0, 79, 0
2, 36720, Note_on_c, 0, 79, 71
2, 36840, Note_on_c, 0, 79, 0
2, 36840, Note_on_c, 0, 80, 71
2, 36960, Note_on_c, 0, 80, 0
2, 36960, Note_on_c, 0, 80, 71
2, 37080, Note_on_c, 0, 80, 0
2, 37080, Note_on_c, 0, 79, 71
2, 37200, Note_on_c, 0, 79, 0
2, 37200, Note_on_c, 0, 79, 71
2, 37320, Note_on_c, 0, 79, 0
2, 37320, Note_on_c, 0, 80, 71
2, 37440, Note_on_c, 0, 80, 0
2, 37440, Note_on_c, 0, 82, 71
2, 37560, Note_on_c, 0, 82, 0
2, 37560, Note_on_c, 0, 81, 71
2, 37680, Note_on_c, 0, 81, 0
2, 37680, Note_on_c, 0, 81, 71
2, 37800, Note_on_c, 0, 81, 0
2, 37800, Note_on_c, 0, 82, 71
2, 37920, Note_on_c, 0, 82, 0
2, 37920, Note_on_c, 0, 83, 71
2, 38040, Note_on_c, 0, 83, 0
2, 38040, Note_on_c, 0, 82, 71
2, 38160, Note_on_c, 0, 82, 0
2, 38160, Note_on_c, 0, 82, 71
2, 38280, Note_on_c, 0, 82, 0
2, 38280, Note_on_c, 0, 83, 71
2, 38400, Note_on_c, 0, 83, 0
2, 38400, Note_on_c, 0, 84, 71
2, 38520, Note_on_c, 0, 84, 0
2, 38520, Note_on_c, 0, 83, 71
2, 38640, Note_on_c, 0, 83, 0
2, 38640, Note_on_c, 0, 83, 71
2, 38760, Note_on_c, 0, 83, 0
2, 38760, Note_on_c, 0, 84, 71
2, 38880, Note_on_c, 0, 84, 0
2, 38880, Note_on_c, 0, 85, 71
2, 39000, Note_on_c, 0, 85, 0
2, 39000, Note_on_c, 0, 84, 71
2, 39120, Note_on_c, 0, 84, 0
2, 39120, Note_on_c, 0, 84, 71
2, 39240, Note_on_c, 0, 84, 0
2, 39240, Note_on_c, 0, 85, 71
2, 39360, Note_on_c, 0, 85, 0
2, 39360, Note_on_c, 0, 85, 71
2, 39480, Note_on_c, 0, 85, 0
2, 39480, Note_on_c, 0, 84, 71
2, 39600, Note_on_c, 0, 84, 0
2, 39600, Note_on_c, 0, 84, 71
2, 39720, Note_on_c, 0, 84, 0
2, 39720, Note_on_c, 0, 85, 71
2, 39840, Note_on_c, 0, 85, 0
2, 39840, Note_on_c, 0, 86, 71
2, 39960, Note_on_c, 0, 86, 0
2, 39960, Note_on_c, 0, 85, 71
2, 40080, Note_on_c, 0, 85, 0
2, 40080, Note_on_c, 0, 85, 71
2, 40200, Note_on_c, 0, 85, 0
2, 40200, Note_on_c, 0, 86, 71
2, 40320, Note_on_c, 0, 86, 0
2, 40320, Note_on_c, 0, 75, 71
2, 40320, Note_on_c, 0, 87, 71
2, 40560, Note_on_c, 0, 87, 0
2, 40560, Note_on_c, 0, 75, 0
2, 40560, Note_on_c, 0, 67, 71
2, 40560, Note_on_c, 0, 72, 71
2, 40800, Note_on_c, 0, 72, 0
2, 40800, Note_on_c, 0, 67, 0
2, 40800, Note_on_c, 0, 65, 71
2, 40800, Note_on_c, 0, 67, 71
2, 40800, Note_on_c, 0, 71, 71
2, 41040, Note_on_c, 0, 71, 0
2, 41040, Note_on_c, 0, 67, 0
2, 41040, Note_on_c, 0, 65, 0
2, 41040, Note_on_c, 0, 63, 71
2, 41040, Note_on_c, 0, 67, 71
2, 41040, Note_on_c, 0, 72, 71
2, 41280, Note_on_c, 0, 72, 0
2, 41280, Note_on_c, 0, 67, 0
2, 41280, Note_on_c, 0, 63, 0
2, 41280, Note_on_c, 0, 62, 71
2, 41280, Note_on_c, 0, 67, 71
2, 41280, Note_on_c, 0, 74, 71
2, 41700, Note_on_c, 0, 74, 0
2, 41700, Note_on_c, 0, 67, 0
2, 41700, Note_on_c, 0, 62, 0
2, 41700, Note_on_c, 0, 67, 71
2, 41760, Note_on_c, 0, 67, 0
2, 41760, Note_on_c, 0, 65, 71
2, 41760, Note_on_c, 0, 69, 71
2, 41940, Note_on_c, 0, 69, 0
2, 41940, Note_on_c, 0, 65, 0
2, 41940, Note_on_c, 0, 67, 71
2, 41940, Note_on_c, 0, 71, 71
2, 42000, Note_on_c, 0, 71, 0
2, 42000, Note_on_c, 0, 67, 0
2, 42000, Note_on_c, 0, 69, 71
2, 42000, Note_on_c, 0, 72, 71
2, 42180, Note_on_c, 0, 72, 0
2, 42180, Note_on_c, 0, 69, 0
2, 42180, Note_on_c, 0, 71, 71
2, 42180, Note_on_c, 0, 74, 71
2, 42240, Note_on_c, 0, 74, 0
2, 42240, Note_on_c, 0, 71, 0
2, 42240, Note_on_c, 0, 67, 71
2, 42480, Note_on_c, 0, 67, 0
2, 42480, Note_on_c, 0, 67, 71
2, 42480, Note_on_c, 0, 72, 71
2, 42720, Note_on_c, 0, 72, 0
2, 42720, Note_on_c, 0, 67, 0
2, 42720, Note_on_c, 0, 65, 71
2, 42720, Note_on_c, 0, 67, 71
2, 42720, Note_on_c, 0, 71, 71
2, 42960, Note_on_c, 0, 71, 0
2, 42960, Note_on_c, 0, 67, 0
2, 42960, Note_on_c, 0, 65, 0
2, 42960, Note_on_c, 0, 63, 71
2, 42960, Note_on_c, 0, 67, 71
2, 42960, Note_on_c, 0, 72, 71
2, 43200, Note_on_c, 0, 72, 0
2, 43200, Note_on_c, 0, 67, 0
2, 43200, Note_on_c, 0, 63, 0
2, 43200, Note_on_c, 0, 62, 71
2, 43200, Note_on_c, 0, 67, 71
2, 43200, Note_on_c, 0, 74, 71
2, 43620, Note_on_c, 0, 74, 0
2, 43620, Note_on_c, 0, 67, 0
2, 43620, Note_on_c, 0, 62, 0
2, 43620, Note_on_c, 0, 67, 71
2, 43680, Note_on_c, 0, 67, 0
2, 43680, Note_on_c, 0, 65, 71
2, 43680, Note_on_c, 0, 69, 71
2, 43860, Note_on_c, 0, 69, 0
2, 43860, Note_on_c, 0, 65, 0
2, 43860, Note_on_c, 0, 67, 71
2, 43860, Note_on_c, 0, 71, 71
2, 43920, Note_on_c, 0, 71, 0
2, 43920, Note_on_c, 0, 67, 0
2, 43920, Note_on_c, 0, 69, 71
2, 43920, Note_on_c, 0, 72, 71
2, 44100, Note_on_c, 0, 72, 0
2, 44100, Note_on_c, 0, 69, 0
2, 44100, Note_on_c, 0, 71, 71
2, 44100, Note_on_c, 0, 74, 71
2, 44160, Note_on_c, 0, 74, 0
2, 44160, Note_on_c, 0, 71, 0
2, 44160, Note_on_c, 0, 67, 71
2, 44160, Note_on_c, 0, 72, 71
2, 44160, Note_on_c, 0, 79, 71
2, 44400, Note_on_c, 0, 79, 0
2, 44400, Note_on_c, 0, 72, 0
2, 44400, Note_on_c, 0, 67, 0
2, 44400, Note_on_c, 0, 67, 71
2, 44400, Note_on_c, 0, 72, 71
2, 44640, Note_on_c, 0, 72, 0
2, 44640, Note_on_c, 0, 67, 0
2, 44640, Note_on_c, 0, 65, 71
2, 44640, Note_on_c, 0, 67, 71
2, 44640, Note_on_c, 0, 71, 71
2, 44880, Note_on_c, 0, 71, 0
2, 44880, Note_on_c, 0, 67, 0
2, 44880, Note_on_c, 0, 65, 0
2, 44880, Note_on_c, 0, 63, 71
2, 44880, Note_on_c, 0, 67, 71
2, 44880, Note_on_c, 0, 72, 71
2, 45120, Note_on_c, 0, 72, 0
2, 45120, Note_on_c, 0, 67, 0
2, 45120, Note_on_c, 0, 63, 0
2, 45120, Note_on_c, 0, 62, 71
2, 45120, Note_on_c, 0, 67, 71
2, 45120, Note_on_c, 0, 74, 71
2, 45540, Note_on_c, 0, 74, 0
2, 45540, Note_on_c, 0, 67, 0
2, 45540, Note_on_c, 0, 62, 0
2, 45540, Note_on_c, 0, 67, 71
2, 45600, Note_on_c, 0, 67, 0
2, 45600, Note_on_c, 0, 65, 71
2, 45600, Note_on_c, 0, 69, 71
2, 45780, Note_on_c, 0, 69, 0
2, 45780, Note_on_c, 0, 65, 0
2, 45780, Note_on_c, 0, 67, 71
2, 45780, Note_on_c, 0, 71, 71
2, 45840, Note_on_c, 0, 71, 0
2, 45840, Note_on_c, 0, 67, 0
2, 45840, Note_on_c, 0, 69, 71
2, 45840, Note_on_c, 0, 72, 71
2, 46020, Note_on_c, 0, 72, 0
2, 46020, Note_on_c, 0, 69, 0
2, 46020, Note_on_c, 0, 71, 71
2, 46020, Note_on_c, 0, 74, 71
2, 46080, Note_on_c, 0, 74, 0
2, 46080, Note_on_c, 0, 71, 0
2, 46080, Note_on_c, 0, 67, 71
2, 46320, Note_on_c, 0, 67, 0
2, 46320, Note_on_c, 0, 67, 71
2, 46320, Note_on_c, 0, 72, 71
2, 46560, Note_on_c, 0, 72, 0
2, 46560, Note_on_c, 0, 67, 0
2, 46560, Note_on_c, 0, 67, 71
2, 46560, Note_on_c, 0, 70, 71
2, 46800, Note_on_c, 0, 70, 0
2, 46800, Note_on_c, 0, 67, 0
2, 46800, Note_on_c, 0, 63, 71
2, 46800, Note_on_c, 0, 66, 71
2, 46800, Note_on_c, 0, 69, 71
2, 47040, Note_on_c, 0, 69, 0
2, 47040, Note_on_c, 0, 66, 0
2, 47040, Note_on_c, 0, 63, 0
2, 47040, Note_on_c, 0, 74, 71
2, 47460, Note_on_c, 0, 74, 0
2, 47460, Note_on_c, 0, 73, 71
2, 47520, Note_on_c, 0, 73, 0
2, 47520, Note_on_c, 0, 74, 71
2, 47700, Note_on_c, 0, 74, 0
2, 47700, Note_on_c, 0, 75, 71
2, 47760, Note_on_c, 0, 75, 0
2, 47760, Note_on_c, 0, 76, 71
2, 47940, Note_on_c, 0, 76, 0
2, 47940, Note_on_c, 0, 78, 71
2, 48000, Note_on_c, 0, 78, 0
2, 48000, Note_on_c, 0, 71, 71
2, 48000, Note_on_c, 0, 74, 71
2, 48000, Note_on_c, 0, 79, 71
2, 48240, Note_on_c, 0, 79, 0
2, 48240, Note_on_c, 0, 74, 0
2, 48240, Note_on_c, 0, 71, 0
2, 48240, Note_on_c, 0, 67, 71
2, 48240, Note_on_c, 0, 72, 71
2, 48480, Note_on_c, 0, 72, 0
2, 48480, Note_on_c, 0, 67, 0
2, 48480, Note_on_c, 0, 65, 71
2, 48480, Note_on_c, 0, 67, 71
2, 48480, Note_on_c, 0, 71, 71
2, 48720, Note_on_c, 0, 71, 0
2, 48720, Note_on_c, 0, 67, 0
2, 48720, Note_on_c, 0, 65, 0
2, 48720, Note_on_c, 0, 63, 71
2, 48720, Note_on_c, 0, 67, 71
2, 48720, Note_on_c, 0, 72, 71
2, 48960, Note_on_c, 0, 72, 0
2, 48960, Note_on_c, 0, 67, 0
2, 48960, Note_on_c, 0, 63, 0
2, 48960, Note_on_c, 0, 62, 71
2, 48960, Note_on_c, 0, 67, 71
2, 48960, Note_on_c, 0, 74, 71
2, 49380, Note_on_c, 0, 74, 0
2, 49380, Note_on_c, 0, 67, 0
2, 49380, Note_on_c, 0, 62, 0
2, 49380, Note_on_c, 0, 67, 71
2, 49440, Note_on_c, 0, 67, 0
2, 49440, Note_on_c, 0, 65, 71
2, 49440, Note_on_c, 0, 69, 71
2, 49620, Note_on_c, 0, 69, 0
2, 49620, Note_on_c, 0, 65, 0
2, 49620, Note_on_c, 0, 67, 71
2, 49620, Note_on_c, 0, 71, 71
2, 49680, Note_on_c, 0, 71, 0
2, 49680, Note_on_c, 0, 67, 0
2, 49680, Note_on_c, 0, 69, 71
2, 49680, Note_on_c, 0, 72, 71
2, 49860, Note_on_c, 0, 72, 0
2, 49860, Note_on_c, 0, 69, 0
2, 49860, Note_on_c, 0, 71, 71
2, 49860, Note_on_c, 0, 74, 71
2, 49920, Note_on_c, 0, 74, 0
2, 49920, Note_on_c, 0, 71, 0
2, 49920, Note_on_c, 0, 67, 71
2, 50160, Note_on_c, 0, 67, 0
2, 50160, Note_on_c, 0, 67, 71
2, 50160, Note_on_c, 0, 72, 71
2, 50400, Note_on_c, 0, 72, 0
2, 50400, Note_on_c, 0, 67, 0
2, 50400, Note_on_c, 0, 65, 71
2, 50400, Note_on_c, 0, 67, 71
2, 50400, Note_on_c, 0, 71, 71
2, 50640, Note_on_c, 0, 71, 0
2, 50640, Note_on_c, 0, 67, 0
2, 50640, Note_on_c, 0, 65, 0
2, 50640, Note_on_c, 0, 63, 71
2, 50640, Note_on_c, 0, 67, 71
2, 50640, Note_on_c, 0, 72, 71
2, 50880, Note_on_c, 0, 72, 0
2, 50880, Note_on_c, 0, 67, 0
2, 50880, Note_on_c, 0, 63, 0
2, 50880, Note_on_c, 0, 62, 71
2, 50880, Note_on_c, 0, 67, 71
2, 50880, Note_on_c, 0, 74, 71
2, 51300, Note_on_c, 0, 74, 0
2, 51300, Note_on_c, 0, 67, 0
2, 51300, Note_on_c, 0, 62, 0
2, 51300, Note_on_c, 0, 67, 71
2, 51360, Note_on_c, 0, 67, 0
2, 51360, Note_on_c, 0, 65, 71
2, 51360, Note_on_c, 0, 69, 71
2, 51540, Note_on_c, 0, 69, 0
2, 51540, Note_on_c, 0, 65, 0
2, 51540, Note_on_c, 0, 67, 71
2, 51540, Note_on_c, 0, 71, 71
2, 51600, Note_on_c, 0, 71, 0
2, 51600, Note_on_c, 0, 67, 0
2, 51600, Note_on_c, 0, 69, 71
2, 51600, Note_on_c, 0, 72, 71
2, 51780, Note_on_c, 0, 72, 0
2, 51780, Note_on_c, 0, 69, 0
2, 51780, Note_on_c, 0, 71, 71
2, 51780, Note_on_c, 0, 74, 71
2, 51840, Note_on_c, 0, 74, 0
2, 51840, Note_on_c, 0, 71, 0
2, 51840, Note_on_c, 0, 67, 71
2, 51840, Note_on_c, 0, 72, 71
2, 51840, Note_on_c, 0, 79, 71
2, 52080, Note_on_c, 0, 79, 0
2, 52080, Note_on_c, 0, 72, 0
2, 52080, Note_on_c, 0, 67, 0
2, 52080, Note_on_c, 0, 67, 71
2, 52080, Note_on_c, 0, 72, 71
2, 52320, Note_on_c, 0, 72, 0
2, 52320, Note_on_c, 0, 67, 0
2, 52320, Note_on_c, 0, 65, 71
2, 52320, Note_on_c, 0, 67, 71
2, 52320, Note_on_c, 0, 71, 71
2, 52560, Note_on_c, 0, 71, 0
2, 52560, Note_on_c, 0, 67, 0
2, 52560, Note_on_c, 0, 65, 0
2, 52560, Note_on_c, 0, 63, 71
2, 52560, Note_on_c, 0, 67, 71
2, 52560, Note_on_c, 0, 72, 71
2, 52800, Note_on_c, 0, 72, 0
2, 52800, Note_on_c, 0, 67, 0
2, 52800, Note_on_c, 0, 63, 0
2, 52800, Note_on_c, 0, 62, 71
2, 52800, Note_on_c, 0, 67, 71
2, 52800, Note_on_c, 0, 74, 71
2, 53220, Note_on_c, 0, 74, 0
2, 53220, Note_on_c, 0, 67, 0
2, 53220, Note_on_c, 0, 62, 0
2, 53220, Note_on_c, 0, 67, 71
2, 53280, Note_on_c, 0, 67, 0
2, 53280, Note_on_c, 0, 65, 71
2, 53280, Note_on_c, 0, 69, 71
2, 53460, Note_on_c, 0, 69, 0
2, 53460, Note_on_c, 0, 65, 0
2, 53460, Note_on_c, 0, 67, 71
2, 53460, Note_on_c, 0, 71, 71
2, 53520, Note_on_c, 0, 71, 0
2, 53520, Note_on_c, 0, 67, 0
2, 53520, Note_on_c, 0, 69, 71
2, 53520, Note_on_c, 0, 72, 71
2, 53700, Note_on_c, 0, 72, 0
2, 53700, Note_on_c, 0, 69, 0
2, 53700, Note_on_c, 0, 71, 71
2, 53700, Note_on_c, 0, 74, 71
2, 53760, Note_on_c, 0, 74, 0
2, 53760, Note_on_c, 0, 71, 0
2, 53760, Note_on_c, 0, 67, 71
2, 54000, Note_on_c, 0, 67, 0
2, 54000, Note_on_c, 0, 63, 71
2, 54000, Note_on_c, 0, 72, 71
2, 54000, Note_on_c, 0, 75, 71
2, 54240, Note_on_c, 0, 75, 0
2, 54240, Note_on_c, 0, 72, 0
2, 54240, Note_on_c, 0, 63, 0
2, 54240, Note_on_c, 0, 62, 71
2, 54240, Note_on_c, 0, 71, 71
2, 54240, Note_on_c, 0, 74, 71
2, 54480, Note_on_c, 0, 74, 0
2, 54480, Note_on_c, 0, 71, 0
2, 54480, Note_on_c, 0, 62, 0
2, 54480, Note_on_c, 0, 60, 71
2, 54480, Note_on_c, 0, 67, 71
2, 54480, Note_on_c, 0, 72, 71
2, 54720, Note_on_c, 0, 72, 0
2, 54720, Note_on_c, 0, 67, 0
2, 54720, Note_on_c, 0, 60, 0
2, 54720, Note_on_c, 0, 65, 71
2, 54720, Note_on_c, 0, 70, 71
2, 54720, Note_on_c, 0, 77, 71
2, 55140, Note_on_c, 0, 77, 0
2, 55140, Note_on_c, 0, 70, 0
2, 55140, Note_on_c, 0, 65, 0
2, 55140, Note_on_c, 0, 64, 71
2, 55140, Note_on_c, 0, 76, 71
2, 55200, Note_on_c, 0, 76, 0
2, 55200, Note_on_c, 0, 64, 0
2, 55200, Note_on_c, 0, 65, 71
2, 55200, Note_on_c, 0, 77, 71
2, 55380, Note_on_c, 0, 77, 0
2, 55380, Note_on_c, 0, 65, 0
2, 55380, Note_on_c, 0, 66, 71
2, 55380, Note_on_c, 0, 78, 71
2, 55440, Note_on_c, 0, 78, 0
2, 55440, Note_on_c, 0, 66, 0
2, 55440, Note_on_c, 0, 67, 71
2, 55440, Note_on_c, 0, 75, 71
2, 55440, Note_on_c, 0, 79, 71
2, 55620, Note_on_c, 0, 79, 0
2, 55620, Note_on_c, 0, 75, 0
2, 55620, Note_on_c, 0, 67, 0
2, 55620, Note_on_c, 0, 69, 71
2, 55620, Note_on_c, 0, 81, 71
2, 55680, Note_on_c, 0, 81, 0
2, 55680, Note_on_c, 0, 69, 0
2, 55680, Note_on_c, 0, 70, 97
2, 55680, Note_on_c, 0, 74, 97
2, 55680, Note_on_c, 0, 82, 97
2, 56160, Note_on_c, 0, 82, 0
2, 56160, Note_on_c, 0, 74, 0
2, 56280, Note_on_c, 0, 70, 0
2, 56280, Note_on_c, 0, 68, 71
2, 56400, Note_on_c, 0, 68, 0
2, 56400, Note_on_c, 0, 68, 71
2, 56520, Note_on_c, 0, 68, 0
2, 56520, Note_on_c, 0, 67, 71
2, 56640, Note_on_c, 0, 67, 0
2, 56640, Note_on_c, 0, 67, 71
2, 56760, Note_on_c, 0, 67, 0
2, 56760, Note_on_c, 0, 65, 71
2, 56880, Note_on_c, 0, 65, 0
2, 56880, Note_on_c, 0, 65, 71
2, 57000, Note_on_c, 0, 65, 0
2, 57000, Note_on_c, 0, 63, 71
2, 57120, Note_on_c, 0, 63, 0
2, 57120, Note_on_c, 0, 63, 71
2, 57240, Note_on_c, 0, 63, 0
2, 57240, Note_on_c, 0, 61, 71
2, 57360, Note_on_c, 0, 61, 0
2, 57360, Note_on_c, 0, 61, 71
2, 57480, Note_on_c, 0, 61, 0
2, 57480, Note_on_c, 0, 62, 71
2, 57600, Note_on_c, 0, 62, 0
2, 57600, Note_on_c, 0, 63, 97
2, 57600, Note_on_c, 0, 67, 97
2, 57600, Note_on_c, 0, 75, 97
2, 58200, Note_on_c, 0, 75, 0
2, 58200, Note_on_c, 0, 67, 0
2, 58200, Note_on_c, 0, 63, 0
2, 58200, Note_on_c, 0, 73, 71
2, 58320, Note_on_c, 0, 73, 0
2, 58320, Note_on_c, 0, 73, 71
2, 58440, Note_on_c, 0, 73, 0
2, 58440, Note_on_c, 0, 72, 71
2, 58560, Note_on_c, 0, 72, 0
2, 58560, Note_on_c, 0, 72, 71
2, 58680, Note_on_c, 0, 72, 0
2, 58680, Note_on_c, 0, 70, 71
2, 58800, Note_on_c, 0, 70, 0
2, 58800, Note_on_c, 0, 70, 71
2, 58920, Note_on_c, 0, 70, 0
2, 58920, Note_on_c, 0, 68, 71
2, 59040, Note_on_c, 0, 68, 0
2, 59040, Note_on_c, 0, 68, 71
2, 59160, Note_on_c, 0, 68, 0
2, 59160, Note_on_c, 0, 66, 71
2, 59280, Note_on_c, 0, 66, 0
2, 59280, Note_on_c, 0, 66, 71
2, 59400, Note_on_c, 0, 66, 0
2, 59400, Note_on_c, 0, 67, 71
2, 59520, Note_on_c, 0, 67, 0
2, 59520, Note_on_c, 0, 64, 97
2, 59520, Note_on_c, 0, 67, 97
2, 59520, Note_on_c, 0, 72, 97
2, 60000, Note_on_c, 0, 67, 0
2, 60000, Note_on_c, 0, 64, 0
2, 60120, Note_on_c, 0, 72, 0
2, 60120, Note_on_c, 0, 70, 71
2, 60240, Note_on_c, 0, 70, 0
2, 60240, Note_on_c, 0, 70, 71
2, 60360, Note_on_c, 0, 70, 0
2, 60360, Note_on_c, 0, 68, 71
2, 60480, Note_on_c, 0, 68, 0
2, 60480, Note_on_c, 0, 68, 71
2, 60600, Note_on_c, 0, 68, 0
2, 60600, Note_on_c, 0, 67, 71
2, 60720, Note_on_c, 0, 67, 0
2, 60720, Note_on_c, 0, 67, 71
2, 60840, Note_on_c, 0, 67, 0
2, 60840, Note_on_c, 0, 65, 71
2, 60960, Note_on_c, 0, 65, 0
2, 60960, Note_on_c, 0, 65, 71
2, 61080, Note_on_c, 0, 65, 0
2, 61080, Note_on_c, 0, 63, 71
2, 61200, Note_on_c, 0, 63, 0
2, 61200, Note_on_c, 0, 63, 71
2, 61320, Note_on_c, 0, 63, 0
2, 61320, Note_on_c, 0, 64, 71
2, 61440, Note_on_c, 0, 64, 0
2, 61440, Note_on_c, 0, 65, 97
2, 61440, Note_on_c, 0, 68, 97
2, 61440, Note_on_c, 0, 77, 97
2, 62040, Note_on_c, 0, 77, 0
2, 62040, Note_on_c, 0, 68, 0
2, 62040, Note_on_c, 0, 65, 0
2, 62040, Note_on_c, 0, 75, 71
2, 62160, Note_on_c, 0, 75, 0
2, 62160, Note_on_c, 0, 75, 71
2, 62280, Note_on_c, 0, 75, 0
2, 62280, Note_on_c, 0, 74, 71
2, 62400, Note_on_c, 0, 74, 0
2, 62400, Note_on_c, 0, 74, 71
2, 62520, Note_on_c, 0, 74, 0
2, 62520, Note_on_c, 0, 72, 71
2, 62640, Note_on_c, 0, 72, 0
2, 62640, Note_on_c, 0, 72, 71
2, 62760, Note_on_c, 0, 72, 0
2, 62760, Note_on_c, 0, 70, 71
2, 62880, Note_on_c, 0, 70, 0
2, 62880, Note_on_c, 0, 70, 71
2, 63000, Note_on_c, 0, 70, 0
2, 63000, Note_on_c, 0, 67, 71
2, 63120, Note_on_c, 0, 67, 0
2, 63120, Note_on_c, 0, 67, 71
2, 63240, Note_on_c, 0, 67, 0
2, 63240, Note_on_c, 0, 68, 71
2, 63360, Note_on_c, 0, 68, 0
2, 63360, Note_on_c, 0, 68, 32
2, 63480, Note_on_c, 0, 68, 0
2, 63480, Note_on_c, 0, 67, 32
2, 63600, Note_on_c, 0, 67, 0
2, 63600, Note_on_c, 0, 67, 32
2, 63720, Note_on_c, 0, 67, 0
2, 63720, Note_on_c, 0, 72, 32
2, 63840, Note_on_c, 0, 72, 0
2, 63840, Note_on_c, 0, 72, 32
2, 63960, Note_on_c, 0, 72, 0
2, 63960, Note_on_c, 0, 67, 32
2, 64080, Note_on_c, 0, 67, 0
2, 64080, Note_on_c, 0, 67, 32
2, 64200, Note_on_c, 0, 67, 0
2, 64200, Note_on_c, 0, 65, 32
2, 64320, Note_on_c, 0, 65, 0
2, 64320, Note_on_c, 0, 70, 32
2, 64440, Note_on_c, 0, 70, 0
2, 64440, Note_on_c, 0, 69, 32
2, 64560, Note_on_c, 0, 69, 0
2, 64560, Note_on_c, 0, 69, 32
2, 64680, Note_on_c, 0, 69, 0
2, 64680, Note_on_c, 0, 74, 32
2, 64800, Note_on_c, 0, 74, 0
2, 64800, Note_on_c, 0, 74, 32
2, 64920, Note_on_c, 0, 74, 0
2, 64920, Note_on_c, 0, 69, 32
2, 65040, Note_on_c, 0, 69, 0
2, 65040, Note_on_c, 0, 69, 32
2, 65160, Note_on_c, 0, 69, 0
2, 65160, Note_on_c, 0, 67, 32
2, 65280, Note_on_c, 0, 67, 0
2, 65280, Note_on_c, 0, 72, 45
2, 65400, Note_on_c, 0, 72, 0
2, 65400, Note_on_c, 0, 70, 45
2, 65520, Note_on_c, 0, 70, 0
2, 65520, Note_on_c, 0, 70, 45
2, 65640, Note_on_c, 0, 70, 0
2, 65640, Note_on_c, 0, 75, 45
2, 65760, Note_on_c, 0, 75, 0
2, 65760, Note_on_c, 0, 75, 45
2, 65880, Note_on_c, 0, 75, 0
2, 65880, Note_on_c, 0, 70, 45
2, 66000, Note_on_c, 0, 70, 0
2, 66000, Note_on_c, 0, 70, 45
2, 66120, Note_on_c, 0, 70, 0
2, 66120, Note_on_c, 0, 68, 45
2, 66240, Note_on_c, 0, 68, 0
2, 66240, Note_on_c, 0, 74, 45
2, 66360, Note_on_c, 0, 74, 0
2, 66360, Note_on_c, 0, 72, 45
2, 66480, Note_on_c, 0, 72, 0
2, 66480, Note_on_c, 0, 72, 45
2, 66600, Note_on_c, 0, 72, 0
2, 66600, Note_on_c, 0, 77, 45
2, 66720, Note_on_c, 0, 77, 0
2, 66720, Note_on_c, 0, 77, 45
2, 66840, Note_on_c, 0, 77, 0
2, 66840, Note_on_c, 0, 74, 45
2, 66960, Note_on_c, 0, 74, 0
2, 66960, Note_on_c, 0, 74, 45
2, 67080, Note_on_c, 0, 74, 0
2, 67080, Note_on_c, 0, 79, 45
2, 67200, Note_on_c, 0, 79, 0
2, 67200, Note_on_c, 0, 79, 58
2, 67320, Note_on_c, 0, 79, 0
2, 67320, Note_on_c, 0, 75, 58
2, 67440, Note_on_c, 0, 75, 0
2, 67440, Note_on_c, 0, 75, 58
2, 67560, Note_on_c, 0, 75, 0
2, 67560, Note_on_c, 0, 80, 58
2, 67680, Note_on_c, 0, 80, 0
2, 67680, Note_on_c, 0, 80, 58
2, 67800, Note_on_c, 0, 80, 0
2, 67800, Note_on_c, 0, 77, 58
2, 67920, Note_on_c, 0, 77, 0
2, 67920, Note_on_c, 0, 77, 58
2, 68040, Note_on_c, 0, 77, 0
2, 68040, Note_on_c, 0, 82, 58
2, 68160, Note_on_c, 0, 82, 0
2, 68160, Note_on_c, 0, 82, 58
2, 68280, Note_on_c, 0, 82, 0
2, 68280, Note_on_c, 0, 79, 58
2, 68400, Note_on_c, 0, 79, 0
2, 68400, Note_on_c, 0, 79, 58
2, 68520, Note_on_c, 0, 79, 0
2, 68520, Note_on_c, 0, 84, 58
2, 68640, Note_on_c, 0, 84, 0
2, 68640, Note_on_c, 0, 84, 58
2, 68760, Note_on_c, 0, 84, 0
2, 68760, Note_on_c, 0, 81, 58
2, 68880, Note_on_c, 0, 81, 0
2, 68880, Note_on_c, 0, 81, 58
2, 69000, Note_on_c, 0, 81, 0
2, 69000, Note_on_c, 0, 86, 58
2, 69120, Note_on_c, 0, 86, 0
2, 69120, Note_on_c, 0, 86, 71
2, 69240, Note_on_c, 0, 86, 0
2, 69240, Note_on_c, 0, 79, 71
2, 69360, Note_on_c, 0, 79, 0
2, 69360, Note_on_c, 0, 79, 71
2, 69480, Note_on_c, 0, 79, 0
2, 69480, Note_on_c, 0, 80, 71
2, 69600, Note_on_c, 0, 80, 0
2, 69600, Note_on_c, 0, 80, 71
2, 69720, Note_on_c, 0, 80, 0
2, 69720, Note_on_c, 0, 81, 71
2, 69840, Note_on_c, 0, 81, 0
2, 69840, Note_on_c, 0, 81, 71
2, 69960, Note_on_c, 0, 81, 0
2, 69960, Note_on_c, 0, 82, 71
2, 70080, Note_on_c, 0, 82, 0
2, 70080, Note_on_c, 0, 82, 71
2, 70200, Note_on_c, 0, 82, 0
2, 70200, Note_on_c, 0, 83, 71
2, 70320, Note_on_c, 0, 83, 0
2, 70320, Note_on_c, 0, 83, 71
2, 70440, Note_on_c, 0, 83, 0
2, 70440, Note_on_c, 0, 84, 71
2, 70560, Note_on_c, 0, 84, 0
2, 70560, Note_on_c, 0, 84, 71
2, 70680, Note_on_c, 0, 84, 0
2, 70680, Note_on_c, 0, 85, 71
2, 70800, Note_on_c, 0, 85, 0
2, 70800, Note_on_c, 0, 77, 71
2, 70800, Note_on_c, 0, 82, 71
2, 70800, Note_on_c, 0, 85, 71
2, 70920, Note_on_c, 0, 85, 0
2, 70920, Note_on_c, 0, 82, 0
2, 70920, Note_on_c, 0, 77, 0
2, 70920, Note_on_c, 0, 86, 71
2, 71040, Note_on_c, 0, 86, 0
2, 71040, Note_on_c, 0, 75, 97
2, 71040, Note_on_c, 0, 82, 97
2, 71040, Note_on_c, 0, 87, 97
2, 71640, Note_on_c, 0, 87, 0
2, 71640, Note_on_c, 0, 82, 0
2, 71640, Note_on_c, 0, 75, 0
2, 71640, Note_on_c, 0, 82, 71
2, 71663, Note_on_c, 0, 82, 0
2, 71760, Note_on_c, 0, 82, 71
2, 71880, Note_on_c, 0, 82, 0
2, 71880, Note_on_c, 0, 84, 71
2, 72000, Note_on_c, 0, 84, 0
2, 72000, Note_on_c, 0, 84, 71
2, 72120, Note_on_c, 0, 84, 0
2, 72120, Note_on_c, 0, 86, 71
2, 72240, Note_on_c, 0, 86, 0
2, 72240, Note_on_c, 0, 86, 71
2, 72360, Note_on_c, 0, 86, 0
2, 72360, Note_on_c, 0, 87, 71
2, 72480, Note_on_c, 0, 87, 0
2, 72480, Note_on_c, 0, 87, 71
2, 72600, Note_on_c, 0, 87, 0
2, 72600, Note_on_c, 0, 86, 71
2, 72720, Note_on_c, 0, 86, 0
2, 72720, Note_on_c, 0, 86, 71
2, 72840, Note_on_c, 0, 86, 0
2, 72840, Note_on_c, 0, 84, 71
2, 72960, Note_on_c, 0, 84, 0
2, 72960, Note_on_c, 0, 84, 71
2, 73080, Note_on_c, 0, 84, 0
2, 73080, Note_on_c, 0, 82, 71
2, 73200, Note_on_c, 0, 82, 0
2, 73200, Note_on_c, 0, 82, 71
2, 73320, Note_on_c, 0, 82, 0
2, 73320, Note_on_c, 0, 80, 71
2, 73440, Note_on_c, 0, 80, 0
2, 73440, Note_on_c, 0, 80, 71
2, 73463, Note_on_c, 0, 80, 0
2, 73560, Note_on_c, 0, 79, 71
2, 73583, Note_on_c, 0, 79, 0
2, 73680, Note_on_c, 0, 77, 71
2, 73703, Note_on_c, 0, 77, 0
2, 73800, Note_on_c, 0, 75, 71
2, 73823, Note_on_c, 0, 75, 0
2, 73920, Note_on_c, 0, 72, 97
2, 73920, Note_on_c, 0, 74, 97
2, 73920, Note_on_c, 0, 77, 97
2, 73920, Note_on_c, 0, 84, 97
2, 74400, Note_on_c, 0, 84, 0
2, 74400, Note_on_c, 0, 72, 0
2, 74400, Note_on_c, 0, 74, 0
2, 74400, Note_on_c, 0, 77, 0
2, 74400, Note_on_c, 0, 70, 71
2, 74400, Note_on_c, 0, 74, 71
2, 74400, Note_on_c, 0, 77, 71
2, 74400, Note_on_c, 0, 82, 71
2, 74880, Note_on_c, 0, 82, 0
2, 74880, Note_on_c, 0, 70, 0
2, 74880, Note_on_c, 0, 74, 0
2, 74880, Note_on_c, 0, 77, 0
2, 74880, Note_on_c, 0, 75, 97
2, 74880, Note_on_c, 0, 82, 97
2, 74880, Note_on_c, 0, 87, 97
2, 75480, Note_on_c, 0, 87, 0
2, 75480, Note_on_c, 0, 82, 0
2, 75480, Note_on_c, 0, 75, 0
2, 75480, Note_on_c, 0, 82, 71
2, 75503, Note_on_c, 0, 82, 0
2, 75600, Note_on_c, 0, 82, 71
2, 75720, Note_on_c, 0, 82, 0
2, 75720, Note_on_c, 0, 84, 71
2, 75840, Note_on_c, 0, 84, 0
2, 75840, Note_on_c, 0, 84, 71
2, 75960, Note_on_c, 0, 84, 0
2, 75960, Note_on_c, 0, 86, 71
2, 76080, Note_on_c, 0, 86, 0
2, 76080, Note_on_c, 0, 86, 71
2, 76200, Note_on_c, 0, 86, 0
2, 76200, Note_on_c, 0, 87, 71
2, 76320, Note_on_c, 0, 87, 0
2, 76320, Note_on_c, 0, 87, 71
2, 76440, Note_on_c, 0, 87, 0
2, 76440, Note_on_c, 0, 86, 71
2, 76560, Note_on_c, 0, 86, 0
2, 76560, Note_on_c, 0, 86, 71
2, 76680, Note_on_c, 0, 86, 0
2, 76680, Note_on_c, 0, 84, 71
2, 76800, Note_on_c, 0, 84, 0
2, 76800, Note_on_c, 0, 84, 71
2, 76920, Note_on_c, 0, 84, 0
2, 76920, Note_on_c, 0, 82, 71
2, 77040, Note_on_c, 0, 82, 0
2, 77040, Note_on_c, 0, 82, 71
2, 77160, Note_on_c, 0, 82, 0
2, 77160, Note_on_c, 0, 80, 71
2, 77280, Note_on_c, 0, 80, 0
2, 77280, Note_on_c, 0, 80, 71
2, 77303, Note_on_c, 0, 80, 0
2, 77400, Note_on_c, 0, 79, 71
2, 77423, Note_on_c, 0, 79, 0
2, 77520, Note_on_c, 0, 77, 71
2, 77543, Note_on_c, 0, 77, 0
2, 77640, Note_on_c, 0, 75, 71
2, 77663, Note_on_c, 0, 75, 0
2, 77760, Note_on_c, 0, 72, 97
2, 77760, Note_on_c, 0, 74, 97
2, 77760, Note_on_c, 0, 77, 97
2, 77760, Note_on_c, 0, 84, 97
2, 78240, Note_on_c, 0, 84, 0
2, 78240, Note_on_c, 0, 72, 0
2, 78240, Note_on_c, 0, 74, 0
2, 78240, Note_on_c, 0, 77, 0
2, 78240, Note_on_c, 0, 70, 71
2, 78240, Note_on_c, 0, 74, 71
2, 78240, Note_on_c, 0, 77, 71
2, 78240, Note_on_c, 0, 82, 71
2, 78720, Note_on_c, 0, 82, 0
2, 78720, Note_on_c, 0, 70, 0
2, 78720, Note_on_c, 0, 74, 0
2, 78720, Note_on_c, 0, 77, 0
2, 78720, Note_on_c, 0, 82, 71
2, 78840, Note_on_c, 0, 82, 0
2, 78840, Note_on_c, 0, 84, 71
2, 78960, Note_on_c, 0, 84, 0
2, 78960, Note_on_c, 0, 84, 71
2, 79080, Note_on_c, 0, 84, 0
2, 79080, Note_on_c, 0, 85, 71
2, 79200, Note_on_c, 0, 85, 0
2, 79200, Note_on_c, 0, 85, 97
2, 79560, Note_on_c, 0, 85, 0
2, 79560, Note_on_c, 0, 84, 71
2, 79680, Note_on_c, 0, 84, 0
2, 79680, Note_on_c, 0, 79, 71
2, 79800, Note_on_c, 0, 79, 0
2, 79800, Note_on_c, 0, 80, 71
2, 79920, Note_on_c, 0, 80, 0
2, 79920, Note_on_c, 0, 80, 71
2, 80040, Note_on_c, 0, 80, 0
2, 80040, Note_on_c, 0, 82, 71
2, 80160, Note_on_c, 0, 82, 0
2, 80160, Note_on_c, 0, 82, 97
2, 80520, Note_on_c, 0, 82, 0
2, 80520, Note_on_c, 0, 80, 71
2, 80640, Note_on_c, 0, 80, 0
2, 80640, Note_on_c, 0, 84, 71
2, 80760, Note_on_c, 0, 84, 0
2, 80760, Note_on_c, 0, 86, 71
2, 80880, Note_on_c, 0, 86, 0
2, 80880, Note_on_c, 0, 86, 71
2, 81000, Note_on_c, 0, 86, 0
2, 81000, Note_on_c, 0, 87, 71
2, 81120, Note_on_c, 0, 87, 0
2, 81120, Note_on_c, 0, 87, 97
2, 81480, Note_on_c, 0, 87, 0
2, 81480, Note_on_c, 0, 86, 71
2, 81600, Note_on_c, 0, 86, 0
2, 81600, Note_on_c, 0, 81, 71
2, 81720, Note_on_c, 0, 81, 0
2, 81720, Note_on_c, 0, 82, 71
2, 81840, Note_on_c, 0, 82, 0
2, 81840, Note_on_c, 0, 82, 71
2, 81960, Note_on_c, 0, 82, 0
2, 81960, Note_on_c, 0, 84, 71
2, 82080, Note_on_c, 0, 84, 0
2, 82080, Note_on_c, 0, 84, 97
2, 82440, Note_on_c, 0, 84, 0
2, 82440, Note_on_c, 0, 82, 71
2, 82560, Note_on_c, 0, 82, 0
2, 82560, Note_on_c, 0, 85, 71
2, 82680, Note_on_c, 0, 85, 0
2, 82680, Note_on_c, 0, 86, 71
2, 82800, Note_on_c, 0, 86, 0
2, 82800, Note_on_c, 0, 86, 71
2, 82920, Note_on_c, 0, 86, 0
2, 82920, Note_on_c, 0, 91, 71
2, 83040, Note_on_c, 0, 91, 0
2, 83040, Note_on_c, 0, 91, 71
2, 83160, Note_on_c, 0, 91, 0
2, 83160, Note_on_c, 0, 86, 71
2, 83280, Note_on_c, 0, 86, 0
2, 83280, Note_on_c, 0, 86, 71
2, 83400, Note_on_c, 0, 86, 0
2, 83400, Note_on_c, 0, 89, 71
2, 83520, Note_on_c, 0, 89, 0
2, 83520, Note_on_c, 0, 89, 71
2, 83640, Note_on_c, 0, 89, 0
2, 83640, Note_on_c, 0, 87, 71
2, 83760, Note_on_c, 0, 87, 0
2, 83760, Note_on_c, 0, 87, 71
2, 83880, Note_on_c, 0, 87, 0
2, 83880, Note_on_c, 0, 86, 71
2, 84000, Note_on_c, 0, 86, 0
2, 84000, Note_on_c, 0, 86, 71
2, 84120, Note_on_c, 0, 86, 0
2, 84120, Note_on_c, 0, 85, 71
2, 84240, Note_on_c, 0, 85, 0
2, 84240, Note_on_c, 0, 85, 71
2, 84360, Note_on_c, 0, 85, 0
2, 84360, Note_on_c, 0, 82, 71
2, 84480, Note_on_c, 0, 82, 0
2, 84480, Note_on_c, 0, 82, 71
2, 84600, Note_on_c, 0, 82, 0
2, 84600, Note_on_c, 0, 80, 71
2, 84720, Note_on_c, 0, 80, 0
2, 84720, Note_on_c, 0, 86, 71
2, 84743, Note_on_c, 0, 86, 0
2, 84840, Note_on_c, 0, 84, 71
2, 84863, Note_on_c, 0, 84, 0
2, 84960, Note_on_c, 0, 82, 71
2, 84983, Note_on_c, 0, 82, 0
2, 85080, Note_on_c, 0, 80, 71
2, 85103, Note_on_c, 0, 80, 0
2, 85200, Note_on_c, 0, 79, 71
2, 85223, Note_on_c, 0, 79, 0
2, 85320, Note_on_c, 0, 77, 71
2, 85343, Note_on_c, 0, 77, 0
2, 85440, Note_on_c, 0, 75, 71
2, 85560, Note_on_c, 0, 75, 0
2, 85560, Note_on_c, 0, 74, 71
2, 85680, Note_on_c, 0, 74, 0
2, 85680, Note_on_c, 0, 76, 71
2, 85703, Note_on_c, 0, 76, 0
2, 85800, Note_on_c, 0, 77, 71
2, 85823, Note_on_c, 0, 77, 0
2, 85920, Note_on_c, 0, 79, 71
2, 85943, Note_on_c, 0, 79, 0
2, 86040, Note_on_c, 0, 80, 71
2, 86063, Note_on_c, 0, 80, 0
2, 86160, Note_on_c, 0, 81, 71
2, 86183, Note_on_c, 0, 81, 0
2, 86280, Note_on_c, 0, 82, 71
2, 86303, Note_on_c, 0, 82, 0
2, 86400, Note_on_c, 0, 75, 97
2, 86400, Note_on_c, 0, 82, 97
2, 86400, Note_on_c, 0, 87, 97
2, 87000, Note_on_c, 0, 87, 0
2, 87000, Note_on_c, 0, 82, 0
2, 87000, Note_on_c, 0, 75, 0
2, 87000, Note_on_c, 0, 82, 71
2, 87023, Note_on_c, 0, 82, 0
2, 87120, Note_on_c, 0, 82, 71
2, 87240, Note_on_c, 0, 82, 0
2, 87240, Note_on_c, 0, 84, 71
2, 87360, Note_on_c, 0, 84, 0
2, 87360, Note_on_c, 0, 84, 71
2, 87480, Note_on_c, 0, 84, 0
2, 87480, Note_on_c, 0, 86, 71
2, 87600, Note_on_c, 0, 86, 0
2, 87600, Note_on_c, 0, 86, 71
2, 87720, Note_on_c, 0, 86, 0
2, 87720, Note_on_c, 0, 87, 71
2, 87840, Note_on_c, 0, 87, 0
2, 87840, Note_on_c, 0, 87, 71
2, 87960, Note_on_c, 0, 87, 0
2, 87960, Note_on_c, 0, 86, 71
2, 88080, Note_on_c, 0, 86, 0
2, 88080, Note_on_c, 0, 86, 71
2, 88200, Note_on_c, 0, 86, 0
2, 88200, Note_on_c, 0, 84, 71
2, 88320, Note_on_c, 0, 84, 0
2, 88320, Note_on_c, 0, 84, 71
2, 88440, Note_on_c, 0, 84, 0
2, 88440, Note_on_c, 0, 82, 71
2, 88560, Note_on_c, 0, 82, 0
2, 88560, Note_on_c, 0, 82, 71
2, 88680, Note_on_c, 0, 82, 0
2, 88680, Note_on_c, 0, 80, 71
2, 88800, Note_on_c, 0, 80, 0
2, 88800, Note_on_c, 0, 80, 71
2, 88823, Note_on_c, 0, 80, 0
2, 88920, Note_on_c, 0, 79, 71
2, 88943, Note_on_c, 0, 79, 0
2, 89040, Note_on_c, 0, 77, 71
2, 89063, Note_on_c, 0, 77, 0
2, 89160, Note_on_c, 0, 75, 71
2, 89183, Note_on_c, 0, 75, 0
2, 89280, Note_on_c, 0, 72, 97
2, 89280, Note_on_c, 0, 74, 97
2, 89280, Note_on_c, 0, 77, 97
2, 89280, Note_on_c, 0, 84, 97
2, 89760, Note_on_c, 0, 84, 0
2, 89760, Note_on_c, 0, 72, 0
2, 89760, Note_on_c, 0, 74, 0
2, 89760, Note_on_c, 0, 77, 0
2, 89760, Note_on_c, 0, 70, 71
2, 89760, Note_on_c, 0, 74, 71
2, 89760, Note_on_c, 0, 77, 71
2, 89760, Note_on_c, 0, 82, 71
2, 90240, Note_on_c, 0, 82, 0
2, 90240, Note_on_c, 0, 70, 0
2, 90240, Note_on_c, 0, 74, 0
2, 90240, Note_on_c, 0, 77, 0
2, 90240, Note_on_c, 0, 75, 97
2, 90240, Note_on_c, 0, 82, 97
2, 90240, Note_on_c, 0, 87, 97
2, 90840, Note_on_c, 0, 87, 0
2, 90840, Note_on_c, 0, 82, 0
2, 90840, Note_on_c, 0, 75, 0
2, 90840, Note_on_c, 0, 82, 71
2, 90863, Note_on_c, 0, 82, 0
2, 90960, Note_on_c, 0, 82, 71
2, 91080, Note_on_c, 0, 82, 0
2, 91080, Note_on_c, 0, 84, 71
2, 91200, Note_on_c, 0, 84, 0
2, 91200, Note_on_c, 0, 84, 71
2, 91320, Note_on_c, 0, 84, 0
2, 91320, Note_on_c, 0, 86, 71
2, 91440, Note_on_c, 0, 86, 0
2, 91440, Note_on_c, 0, 86, 71
2, 91560, Note_on_c, 0, 86, 0
2, 91560, Note_on_c, 0, 87, 71
2, 91680, Note_on_c, 0, 87, 0
2, 91680, Note_on_c, 0, 87, 71
2, 91800, Note_on_c, 0, 87, 0
2, 91800, Note_on_c, 0, 86, 71
2, 91920, Note_on_c, 0, 86, 0
2, 91920, Note_on_c, 0, 86, 71
2, 92040, Note_on_c, 0, 86, 0
2, 92040, Note_on_c, 0, 84, 71
2, 92160, Note_on_c, 0, 84, 0
2, 92160, Note_on_c, 0, 84, 71
2, 92280, Note_on_c, 0, 84, 0
2, 92280, Note_on_c, 0, 82, 71
2, 92400, Note_on_c, 0, 82, 0
2, 92400, Note_on_c, 0, 82, 71
2, 92520, Note_on_c, 0, 82, 0
2, 92520, Note_on_c, 0, 80, 71
2, 92640, Note_on_c, 0, 80, 0
2, 92640, Note_on_c, 0, 80, 71
2, 92663, Note_on_c, 0, 80, 0
2, 92760, Note_on_c, 0, 79, 71
2, 92783, Note_on_c, 0, 79, 0
2, 92880, Note_on_c, 0, 77, 71
2, 92903, Note_on_c, 0, 77, 0
2, 93000, Note_on_c, 0, 75, 71
2, 93023, Note_on_c, 0, 75, 0
2, 93120, Note_on_c, 0, 72, 97
2, 93120, Note_on_c, 0, 74, 97
2, 93120, Note_on_c, 0, 77, 97
2, 93120, Note_on_c, 0, 84, 97
2, 93600, Note_on_c, 0, 84, 0
2, 93600, Note_on_c, 0, 72, 0
2, 93600, Note_on_c, 0, 74, 0
2, 93600, Note_on_c, 0, 77, 0
2, 93600, Note_on_c, 0, 70, 71
2, 93600, Note_on_c, 0, 74, 71
2, 93600, Note_on_c, 0, 77, 71
2, 93600, Note_on_c, 0, 82, 71
2, 94080, Note_on_c, 0, 82, 0
2, 94080, Note_on_c, 0, 70, 0
2, 94080, Note_on_c, 0, 74, 0
2, 94080, Note_on_c, 0, 77, 0
2, 94080, Note_on_c, 0, 82, 71
2, 94200, Note_on_c, 0, 82, 0
2, 94200, Note_on_c, 0, 84, 71
2, 94320, Note_on_c, 0, 84, 0
2, 94320, Note_on_c, 0, 84, 71
2, 94440, Note_on_c, 0, 84, 0
2, 94440, Note_on_c, 0, 85, 71
2, 94560, Note_on_c, 0, 85, 0
2, 94560, Note_on_c, 0, 85, 97
2, 94920, Note_on_c, 0, 85, 0
2, 94920, Note_on_c, 0, 84, 71
2, 95040, Note_on_c, 0, 84, 0
2, 95040, Note_on_c, 0, 79, 71
2, 95160, Note_on_c, 0, 79, 0
2, 95160, Note_on_c, 0, 80, 71
2, 95280, Note_on_c, 0, 80, 0
2, 95280, Note_on_c, 0, 80, 71
2, 95400, Note_on_c, 0, 80, 0
2, 95400, Note_on_c, 0, 82, 71
2, 95520, Note_on_c, 0, 82, 0
2, 95520, Note_on_c, 0, 82, 97
2, 95880, Note_on_c, 0, 82, 0
2, 95880, Note_on_c, 0, 80, 71
2, 96000, Note_on_c, 0, 80, 0
2, 96000, Note_on_c, 0, 84, 71
2, 96120, Note_on_c, 0, 84, 0
2, 96120, Note_on_c, 0, 86, 71
2, 96240, Note_on_c, 0, 86, 0
2, 96240, Note_on_c, 0, 86, 71
2, 96360, Note_on_c, 0, 86, 0
2, 96360, Note_on_c, 0, 87, 71
2, 96480, Note_on_c, 0, 87, 0
2, 96480, Note_on_c, 0, 87, 97
2, 96840, Note_on_c, 0, 87, 0
2, 96840, Note_on_c, 0, 86, 71
2, 96960, Note_on_c, 0, 86, 0
2, 96960, Note_on_c, 0, 81, 71
2, 97080, Note_on_c, 0, 81, 0
2, 97080, Note_on_c, 0, 82, 71
2, 97200, Note_on_c, 0, 82, 0
2, 97200, Note_on_c, 0, 82, 71
2, 97320, Note_on_c, 0, 82, 0
2, 97320, Note_on_c, 0, 84, 71
2, 97440, Note_on_c, 0, 84, 0
2, 97440, Note_on_c, 0, 84, 97
2, 97800, Note_on_c, 0, 84, 0
2, 97800, Note_on_c, 0, 82, 71
2, 97920, Note_on_c, 0, 82, 0
2, 97920, Note_on_c, 0, 82, 71
2, 98040, Note_on_c, 0, 82, 0
2, 98040, Note_on_c, 0, 84, 71
2, 98160, Note_on_c, 0, 84, 0
2, 98160, Note_on_c, 0, 84, 71
2, 98280, Note_on_c, 0, 84, 0
2, 98280, Note_on_c, 0, 85, 71
2, 98400, Note_on_c, 0, 85, 0
2, 98400, Note_on_c, 0, 85, 71
2, 98520, Note_on_c, 0, 85, 0
2, 98520, Note_on_c, 0, 83, 71
2, 98640, Note_on_c, 0, 83, 0
2, 98640, Note_on_c, 0, 83, 71
2, 98760, Note_on_c, 0, 83, 0
2, 98760, Note_on_c, 0, 84, 71
2, 98880, Note_on_c, 0, 84, 0
2, 98880, Note_on_c, 0, 84, 71
2, 99000, Note_on_c, 0, 84, 0
2, 99000, Note_on_c, 0, 86, 71
2, 99120, Note_on_c, 0, 86, 0
2, 99120, Note_on_c, 0, 86, 71
2, 99240, Note_on_c, 0, 86, 0
2, 99240, Note_on_c, 0, 87, 71
2, 99360, Note_on_c, 0, 87, 0
2, 99360, Note_on_c, 0, 87, 71
2, 99480, Note_on_c, 0, 87, 0
2, 99480, Note_on_c, 0, 85, 71
2, 99600, Note_on_c, 0, 85, 0
2, 99600, Note_on_c, 0, 85, 71
2, 99720, Note_on_c, 0, 85, 0
2, 99720, Note_on_c, 0, 86, 71
2, 99840, Note_on_c, 0, 86, 0
2, 99840, Note_on_c, 0, 86, 71
2, 99960, Note_on_c, 0, 86, 0
2, 99960, Note_on_c, 0, 87, 71
2, 100080, Note_on_c, 0, 87, 0
2, 100080, Note_on_c, 0, 87, 71
2, 100200, Note_on_c, 0, 87, 0
2, 100200, Note_on_c, 0, 89, 71
2, 100320, Note_on_c, 0, 89, 0
2, 100320, Note_on_c, 0, 89, 71
2, 100440, Note_on_c, 0, 89, 0
2, 100440, Note_on_c, 0, 86, 71
2, 100560, Note_on_c, 0, 86, 0
2, 100560, Note_on_c, 0, 86, 71
2, 100680, Note_on_c, 0, 86, 0
2, 100680, Note_on_c, 0, 87, 71
2, 100800, Note_on_c, 0, 87, 0
2, 100800, Note_on_c, 0, 89, 71
2, 100920, Note_on_c, 0, 89, 0
2, 100920, Note_on_c, 0, 86, 71
2, 101040, Note_on_c, 0, 86, 0
2, 101040, Note_on_c, 0, 86, 71
2, 101160, Note_on_c, 0, 86, 0
2, 101160, Note_on_c, 0, 87, 71
2, 101280, Note_on_c, 0, 87, 0
2, 101280, Note_on_c, 0, 89, 71
2, 101400, Note_on_c, 0, 89, 0
2, 101400, Note_on_c, 0, 86, 71
2, 101520, Note_on_c, 0, 86, 0
2, 101520, Note_on_c, 0, 86, 71
2, 101640, Note_on_c, 0, 86, 0
2, 101640, Note_on_c, 0, 87, 71
2, 101760, Note_on_c, 0, 87, 0
2, 101760, Note_on_c, 0, 89, 71
2, 101880, Note_on_c, 0, 89, 0
2, 101880, Note_on_c, 0, 86, 71
2, 102000, Note_on_c, 0, 86, 0
2, 102000, Note_on_c, 0, 86, 71
2, 102120, Note_on_c, 0, 86, 0
2, 102120, Note_on_c, 0, 87, 71
2, 102240, Note_on_c, 0, 87, 0
2, 102240, Note_on_c, 0, 89, 71
2, 102360, Note_on_c, 0, 89, 0
2, 102360, Note_on_c, 0, 86, 71
2, 102480, Note_on_c, 0, 86, 0
2, 102480, Note_on_c, 0, 86, 71
2, 102600, Note_on_c, 0, 86, 0
2, 102600, Note_on_c, 0, 87, 71
2, 102720, Note_on_c, 0, 87, 0
2, 102720, Note_on_c, 0, 89, 71
2, 102840, Note_on_c, 0, 89, 0
2, 102840, Note_on_c, 0, 86, 71
2, 102960, Note_on_c, 0, 86, 0
2, 102960, Note_on_c, 0, 86, 71
2, 103080, Note_on_c, 0, 86, 0
2, 103080, Note_on_c, 0, 87, 71
2, 103200, Note_on_c, 0, 87, 0
2, 103200, Note_on_c, 0, 89, 71
2, 103320, Note_on_c, 0, 89, 0
2, 103320, Note_on_c, 0, 86, 71
2, 103440, Note_on_c, 0, 86, 0
2, 103440, Note_on_c, 0, 86, 71
2, 103560, Note_on_c, 0, 86, 0
2, 103560, Note_on_c, 0, 87, 71
2, 103680, Note_on_c, 0, 87, 0
2, 103680, Note_on_c, 0, 82, 71
2, 103800, Note_on_c, 0, 82, 0
2, 103800, Note_on_c, 0, 81, 71
2, 103920, Note_on_c, 0, 81, 0
2, 103920, Note_on_c, 0, 81, 71
2, 104040, Note_on_c, 0, 81, 0
2, 104040, Note_on_c, 0, 82, 71
2, 104160, Note_on_c, 0, 82, 0
2, 104160, Note_on_c, 0, 82, 71
2, 104280, Note_on_c, 0, 82, 0
2, 104280, Note_on_c, 0, 81, 71
2, 104400, Note_on_c, 0, 81, 0
2, 104400, Note_on_c, 0, 81, 71
2, 104520, Note_on_c, 0, 81, 0
2, 104520, Note_on_c, 0, 82, 71
2, 104640, Note_on_c, 0, 82, 0
2, 104640, Note_on_c, 0, 94, 71
2, 104760, Note_on_c, 0, 94, 0
2, 104760, Note_on_c, 0, 93, 71
2, 104880, Note_on_c, 0, 93, 0
2, 104880, Note_on_c, 0, 93, 71
2, 105000, Note_on_c, 0, 93, 0
2, 105000, Note_on_c, 0, 94, 71
2, 105120, Note_on_c, 0, 94, 0
2, 105120, Note_on_c, 0, 94, 71
2, 105240, Note_on_c, 0, 94, 0
2, 105240, Note_on_c, 0, 93, 71
2, 105360, Note_on_c, 0, 93, 0
2, 105360, Note_on_c, 0, 93, 71
2, 105480, Note_on_c, 0, 93, 0
2, 105480, Note_on_c, 0, 94, 71
2, 105600, Note_on_c, 0, 94, 0
2, 105600, Note_on_c, 0, 91, 71
2, 105720, Note_on_c, 0, 91, 0
2, 105720, Note_on_c, 0, 90, 71
2, 105840, Note_on_c, 0, 90, 0
2, 105840, Note_on_c, 0, 90, 71
2, 105960, Note_on_c, 0, 90, 0
2, 105960, Note_on_c, 0, 91, 71
2, 106080, Note_on_c, 0, 91, 0
2, 106080, Note_on_c, 0, 87, 71
2, 106200, Note_on_c, 0, 87, 0
2, 106200, Note_on_c, 0, 86, 71
2, 106320, Note_on_c, 0, 86, 0
2, 106320, Note_on_c, 0, 86, 71
2, 106440, Note_on_c, 0, 86, 0
2, 106440, Note_on_c, 0, 87, 71
2, 106560, Note_on_c, 0, 87, 0
2, 106560, Note_on_c, 0, 82, 71
2, 106680, Note_on_c, 0, 82, 0
2, 106680, Note_on_c, 0, 81, 71
2, 106800, Note_on_c, 0, 81, 0
2, 106800, Note_on_c, 0, 81, 71
2, 106920, Note_on_c, 0, 81, 0
2, 106920, Note_on_c, 0, 82, 71
2, 107040, Note_on_c, 0, 82, 0
2, 107040, Note_on_c, 0, 82, 71
2, 107160, Note_on_c, 0, 82, 0
2, 107160, Note_on_c, 0, 81, 71
2, 107280, Note_on_c, 0, 81, 0
2, 107280, Note_on_c, 0, 81, 71
2, 107400, Note_on_c, 0, 81, 0
2, 107400, Note_on_c, 0, 82, 71
2, 107520, Note_on_c, 0, 82, 0
2, 107520, Note_on_c, 0, 80, 71
2, 107640, Note_on_c, 0, 80, 0
2, 107640, Note_on_c, 0, 79, 71
2, 107760, Note_on_c, 0, 79, 0
2, 107760, Note_on_c, 0, 79, 71
2, 107880, Note_on_c, 0, 79, 0
2, 107880, Note_on_c, 0, 80, 71
2, 108000, Note_on_c, 0, 80, 0
2, 108000, Note_on_c, 0, 80, 71
2, 108120, Note_on_c, 0, 80, 0
2, 108120, Note_on_c, 0, 79, 71
2, 108240, Note_on_c, 0, 79, 0
2, 108240, Note_on_c, 0, 79, 71
2, 108360, Note_on_c, 0, 79, 0
2, 108360, Note_on_c, 0, 80, 71
2, 108480, Note_on_c, 0, 80, 0
2, 108480, Note_on_c, 0, 82, 71
2, 108600, Note_on_c, 0, 82, 0
2, 108600, Note_on_c, 0, 81, 71
2, 108720, Note_on_c, 0, 81, 0
2, 108720, Note_on_c, 0, 81, 71
2, 108840, Note_on_c, 0, 81, 0
2, 108840, Note_on_c, 0, 82, 71
2, 108960, Note_on_c, 0, 82, 0
2, 108960, Note_on_c, 0, 83, 71
2, 109080, Note_on_c, 0, 83, 0
2, 109080, Note_on_c, 0, 82, 71
2, 109200, Note_on_c, 0, 82, 0
2, 109200, Note_on_c, 0, 82, 71
2, 109320, Note_on_c, 0, 82, 0
2, 109320, Note_on_c, 0, 83, 71
2, 109440, Note_on_c, 0, 83, 0
2, 109440, Note_on_c, 0, 84, 71
2, 109560, Note_on_c, 0, 84, 0
2, 109560, Note_on_c, 0, 83, 71
2, 109680, Note_on_c, 0, 83, 0
2, 109680, Note_on_c, 0, 83, 71
2, 109800, Note_on_c, 0, 83, 0
2, 109800, Note_on_c, 0, 84, 71
2, 109920, Note_on_c, 0, 84, 0
2, 109920, Note_on_c, 0, 85, 71
2, 110040, Note_on_c, 0, 85, 0
2, 110040, Note_on_c, 0, 84, 71
2, 110160, Note_on_c, 0, 84, 0
2, 110160, Note_on_c, 0, 84, 71
2, 110280, Note_on_c, 0, 84, 0
2, 110280, Note_on_c, 0, 85, 71
2, 110400, Note_on_c, 0, 85, 0
2, 110400, Note_on_c, 0, 85, 71
2, 110520, Note_on_c, 0, 85, 0
2, 110520, Note_on_c, 0, 84, 71
2, 110640, Note_on_c, 0, 84, 0
2, 110640, Note_on_c, 0, 84, 71
2, 110760, Note_on_c, 0, 84, 0
2, 110760, Note_on_c, 0, 85, 71
2, 110880, Note_on_c, 0, 85, 0
2, 110880, Note_on_c, 0, 86, 71
2, 111000, Note_on_c, 0, 86, 0
2, 111000, Note_on_c, 0, 85, 71
2, 111120, Note_on_c, 0, 85, 0
2, 111120, Note_on_c, 0, 85, 71
2, 111240, Note_on_c, 0, 85, 0
2, 111240, Note_on_c, 0, 86, 71
2, 111360, Note_on_c, 0, 86, 0
2, 111360, Note_on_c, 0, 75, 71
2, 111360, Note_on_c, 0, 87, 71
2, 111720, Note_on_c, 0, 87, 0
2, 111720, Note_on_c, 0, 75, 0
2, 111720, Note_on_c, 0, 82, 71
2, 111840, Note_on_c, 0, 82, 0
2, 111840, Note_on_c, 0, 82, 71
2, 111960, Note_on_c, 0, 82, 0
2, 111960, Note_on_c, 0, 84, 71
2, 112080, Note_on_c, 0, 84, 0
2, 112080, Note_on_c, 0, 84, 71
2, 112200, Note_on_c, 0, 84, 0
2, 112200, Note_on_c, 0, 86, 71
2, 112320, Note_on_c, 0, 86, 0
2, 112320, Note_on_c, 0, 86, 71
2, 112440, Note_on_c, 0, 86, 0
2, 112440, Note_on_c, 0, 87, 71
2, 112560, Note_on_c, 0, 87, 0
2, 112560, Note_on_c, 0, 87, 71
2, 112680, Note_on_c, 0, 87, 0
2, 112680, Note_on_c, 0, 86, 71
2, 112800, Note_on_c, 0, 86, 0
2, 112800, Note_on_c, 0, 86, 71
2, 112920, Note_on_c, 0, 86, 0
2, 112920, Note_on_c, 0, 84, 71
2, 113040, Note_on_c, 0, 84, 0
2, 113040, Note_on_c, 0, 84, 71
2, 113160, Note_on_c, 0, 84, 0
2, 113160, Note_on_c, 0, 82, 71
2, 113280, Note_on_c, 0, 82, 0
2, 113280, Note_on_c, 0, 75, 71
2, 113280, Note_on_c, 0, 87, 71
2, 113640, Note_on_c, 0, 87, 0
2, 113640, Note_on_c, 0, 75, 0
2, 113640, Note_on_c, 0, 82, 71
2, 113760, Note_on_c, 0, 82, 0
2, 113760, Note_on_c, 0, 82, 71
2, 113880, Note_on_c, 0, 82, 0
2, 113880, Note_on_c, 0, 84, 71
2, 114000, Note_on_c, 0, 84, 0
2, 114000, Note_on_c, 0, 84, 71
2, 114120, Note_on_c, 0, 84, 0
2, 114120, Note_on_c, 0, 86, 71
2, 114240, Note_on_c, 0, 86, 0
2, 114240, Note_on_c, 0, 86, 71
2, 114360, Note_on_c, 0, 86, 0
2, 114360, Note_on_c, 0, 87, 71
2, 114480, Note_on_c, 0, 87, 0
2, 114480, Note_on_c, 0, 87, 71
2, 114600, Note_on_c, 0, 87, 0
2, 114600, Note_on_c, 0, 86, 71
2, 114720, Note_on_c, 0, 86, 0
2, 114720, Note_on_c, 0, 86, 71
2, 114840, Note_on_c, 0, 86, 0
2, 114840, Note_on_c, 0, 84, 71
2, 114960, Note_on_c, 0, 84, 0
2, 114960, Note_on_c, 0, 84, 71
2, 115080, Note_on_c, 0, 84, 0
2, 115080, Note_on_c, 0, 82, 71
2, 115200, Note_on_c, 0, 82, 0
2, 115200, Note_on_c, 0, 87, 71
2, 115560, Note_on_c, 0, 87, 0
2, 115560, Note_on_c, 0, 82, 71
2, 115680, Note_on_c, 0, 82, 0
2, 115680, Note_on_c, 0, 83, 71
2, 115800, Note_on_c, 0, 83, 0
2, 115800, Note_on_c, 0, 84, 71
2, 115920, Note_on_c, 0, 84, 0
2, 115920, Note_on_c, 0, 85, 71
2, 116040, Note_on_c, 0, 85, 0
2, 116040, Note_on_c, 0, 86, 71
2, 116160, Note_on_c, 0, 86, 0
2, 116160, Note_on_c, 0, 87, 71
2, 116520, Note_on_c, 0, 87, 0
2, 116520, Note_on_c, 0, 82, 71
2, 116640, Note_on_c, 0, 82, 0
2, 116640, Note_on_c, 0, 83, 71
2, 116760, Note_on_c, 0, 83, 0
2, 116760, Note_on_c, 0, 84, 71
2, 116880, Note_on_c, 0, 84, 0
2, 116880, Note_on_c, 0, 85, 71
2, 117000, Note_on_c, 0, 85, 0
2, 117000, Note_on_c, 0, 86, 71
2, 117120, Note_on_c, 0, 86, 0
2, 117120, Note_on_c, 0, 87, 71
2, 117240, Note_on_c, 0, 87, 0
2, 117240, Note_on_c, 0, 86, 71
2, 117360, Note_on_c, 0, 86, 0
2, 117360, Note_on_c, 0, 86, 71
2, 117480, Note_on_c, 0, 86, 0
2, 117480, Note_on_c, 0, 87, 71
2, 117600, Note_on_c, 0, 87, 0
2, 117600, Note_on_c, 0, 87, 71
2, 117720, Note_on_c, 0, 87, 0
2, 117720, Note_on_c, 0, 86, 71
2, 117840, Note_on_c, 0, 86, 0
2, 117840, Note_on_c, 0, 86, 71
2, 117960, Note_on_c, 0, 86, 0
2, 117960, Note_on_c, 0, 87, 71
2, 118080, Note_on_c, 0, 87, 0
2, 118080, Note_on_c, 0, 87, 71
2, 118200, Note_on_c, 0, 87, 0
2, 118200, Note_on_c, 0, 86, 71
2, 118320, Note_on_c, 0, 86, 0
2, 118320, Note_on_c, 0, 86, 71
2, 118440, Note_on_c, 0, 86, 0
2, 118440, Note_on_c, 0, 87, 71
2, 118560, Note_on_c, 0, 87, 0
2, 118560, Note_on_c, 0, 87, 71
2, 118680, Note_on_c, 0, 87, 0
2, 118680, Note_on_c, 0, 86, 71
2, 118800, Note_on_c, 0, 86, 0
2, 118800, Note_on_c, 0, 86, 71
2, 118920, Note_on_c, 0, 86, 0
2, 118920, Note_on_c, 0, 87, 71
2, 119040, Note_on_c, 0, 87, 0
2, 119040, Note_on_c, 0, 87, 71
2, 119160, Note_on_c, 0, 87, 0
2, 119160, Note_on_c, 0, 89, 71
2, 119280, Note_on_c, 0, 89, 0
2, 119280, Note_on_c, 0, 89, 71
2, 119400, Note_on_c, 0, 89, 0
2, 119400, Note_on_c, 0, 91, 71
2, 119520, Note_on_c, 0, 91, 0
2, 119520, Note_on_c, 0, 91, 71
2, 119640, Note_on_c, 0, 91, 0
2, 119640, Note_on_c, 0, 89, 71
2, 119760, Note_on_c, 0, 89, 0
2, 119760, Note_on_c, 0, 89, 71
2, 119880, Note_on_c, 0, 89, 0
2, 119880, Note_on_c, 0, 91, 71
2, 120000, Note_on_c, 0, 91, 0
2, 120000, Note_on_c, 0, 91, 71
2, 120120, Note_on_c, 0, 91, 0
2, 120120, Note_on_c, 0, 89, 71
2, 120240, Note_on_c, 0, 89, 0
2, 120240, Note_on_c, 0, 89, 71
2, 120360, Note_on_c, 0, 89, 0
2, 120360, Note_on_c, 0, 91, 71
2, 120480, Note_on_c, 0, 91, 0
2, 120480, Note_on_c, 0, 91, 71
2, 120600, Note_on_c, 0, 91, 0
2, 120600, Note_on_c, 0, 89, 71
2, 120720, Note_on_c, 0, 89, 0
2, 120720, Note_on_c, 0, 89, 71
2, 120840, Note_on_c, 0, 89, 0
2, 120840, Note_on_c, 0, 91, 71
2, 120960, Note_on_c, 0, 91, 0
2, 120960, Note_on_c, 0, 91, 71
2, 121080, Note_on_c, 0, 91, 0
2, 121080, Note_on_c, 0, 87, 71
2, 121200, Note_on_c, 0, 87, 0
2, 121200, Note_on_c, 0, 87, 71
2, 121320, Note_on_c, 0, 87, 0
2, 121320, Note_on_c, 0, 82, 71
2, 121440, Note_on_c, 0, 82, 0
2, 121440, Note_on_c, 0, 82, 71
2, 121560, Note_on_c, 0, 82, 0
2, 121560, Note_on_c, 0, 79, 71
2, 121680, Note_on_c, 0, 79, 0
2, 121680, Note_on_c, 0, 87, 71
2, 121800, Note_on_c, 0, 87, 0
2, 121800, Note_on_c, 0, 82, 71
2, 121920, Note_on_c, 0, 82, 0
2, 121920, Note_on_c, 0, 82, 71
2, 122040, Note_on_c, 0, 82, 0
2, 122040, Note_on_c, 0, 79, 71
2, 122160, Note_on_c, 0, 79, 0
2, 122160, Note_on_c, 0, 79, 71
2, 122280, Note_on_c, 0, 79, 0
2, 122280, Note_on_c, 0, 75, 71
2, 122400, Note_on_c, 0, 75, 0
2, 122400, Note_on_c, 0, 82, 71
2, 122520, Note_on_c, 0, 82, 0
2, 122520, Note_on_c, 0, 79, 71
2, 122640, Note_on_c, 0, 79, 0
2, 122640, Note_on_c, 0, 79, 71
2, 122760, Note_on_c, 0, 79, 0
2, 122760, Note_on_c, 0, 75, 71
2, 122880, Note_on_c, 0, 75, 0
2, 122880, Note_on_c, 0, 75, 71
2, 123000, Note_on_c, 0, 75, 0
2, 123000, Note_on_c, 0, 70, 71
2, 123120, Note_on_c, 0, 70, 0
2, 123120, Note_on_c, 0, 79, 71
2, 123240, Note_on_c, 0, 79, 0
2, 123240, Note_on_c, 0, 75, 71
2, 123360, Note_on_c, 0, 75, 0
2, 123360, Note_on_c, 0, 75, 71
2, 123480, Note_on_c, 0, 75, 0
2, 123480, Note_on_c, 0, 70, 71
2, 123600, Note_on_c, 0, 70, 0
2, 123600, Note_on_c, 0, 70, 71
2, 123720, Note_on_c, 0, 70, 0
2, 123720, Note_on_c, 0, 67, 71
2, 123840, Note_on_c, 0, 67, 0
2, 123840, Note_on_c, 0, 67, 71
2, 123960, Note_on_c, 0, 67, 0
2, 123960, Note_on_c, 0, 70, 71
2, 124080, Note_on_c, 0, 70, 0
2, 124080, Note_on_c, 0, 70, 71
2, 124200, Note_on_c, 0, 70, 0
2, 124200, Note_on_c, 0, 75, 71
2, 124320, Note_on_c, 0, 75, 0
2, 124320, Note_on_c, 0, 75, 71
2, 124440, Note_on_c, 0, 75, 0
2, 124440, Note_on_c, 0, 79, 71
2, 124560, Note_on_c, 0, 79, 0
2, 124560, Note_on_c, 0, 79, 71
2, 124680, Note_on_c, 0, 79, 0
2, 124680, Note_on_c, 0, 82, 71
2, 124800, Note_on_c, 0, 82, 0
2, 124800, Control_c, 0, 64, 127
2, 124800, Note_on_c, 0, 87, 45
2, 124880, Note_on_c, 0, 87, 0
2, 124880, Note_on_c, 0, 89, 45
2, 124959, Note_on_c, 0, 89, 0
2, 124959, Note_on_c, 0, 87, 45
2, 125040, Note_on_c, 0, 87, 0
2, 125040, Note_on_c, 0, 89, 45
2, 125120, Note_on_c, 0, 89, 0
2, 125120, Note_on_c, 0, 87, 45
2, 125199, Note_on_c, 0, 87, 0
2, 125199, Note_on_c, 0, 89, 45
2, 125280, Note_on_c, 0, 89, 0
2, 125280, Note_on_c, 0, 87, 45
2, 125360, Note_on_c, 0, 87, 0
2, 125360, Note_on_c, 0, 89, 45
2, 125439, Note_on_c, 0, 89, 0
2, 125439, Note_on_c, 0, 87, 45
2, 125520, Note_on_c, 0, 87, 0
2, 125520, Note_on_c, 0, 89, 45
2, 125600, Note_on_c, 0, 89, 0
2, 125600, Note_on_c, 0, 87, 45
2, 125679, Note_on_c, 0, 87, 0
2, 125679, Note_on_c, 0, 89, 45
2, 125760, Note_on_c, 0, 89, 0
2, 125760, Note_on_c, 0, 87, 45
2, 125840, Note_on_c, 0, 87, 0
2, 125840, Note_on_c, 0, 89, 45
2, 125919, Note_on_c, 0, 89, 0
2, 125919, Note_on_c, 0, 87, 45
2, 126000, Note_on_c, 0, 87, 0
2, 126000, Note_on_c, 0, 89, 45
2, 126080, Note_on_c, 0, 89, 0
2, 126080, Note_on_c, 0, 87, 45
2, 126159, Note_on_c, 0, 87, 0
2, 126159, Note_on_c, 0, 89, 45
2, 126240, Note_on_c, 0, 89, 0
2, 126240, Note_on_c, 0, 87, 45
2, 126320, Note_on_c, 0, 87, 0
2, 126320, Note_on_c, 0, 89, 45
2, 126399, Note_on_c, 0, 89, 0
2, 126399, Note_on_c, 0, 87, 45
2, 126480, Note_on_c, 0, 87, 0
2, 126480, Note_on_c, 0, 89, 45
2, 126560, Note_on_c, 0, 89, 0
2, 126560, Note_on_c, 0, 87, 45
2, 126639, Note_on_c, 0, 87, 0
2, 126639, Note_on_c, 0, 89, 45
2, 126720, Note_on_c, 0, 89, 0
2, 126720, Note_on_c, 0, 87, 45
2, 126800, Note_on_c, 0, 87, 0
2, 126800, Note_on_c, 0, 89, 45
2, 126879, Note_on_c, 0, 89, 0
2, 126879, Note_on_c, 0, 87, 45
2, 126960, Note_on_c, 0, 87, 0
2, 126960, Note_on_c, 0, 89, 45
2, 127040, Note_on_c, 0, 89, 0
2, 127040, Note_on_c, 0, 87, 45
2, 127119, Note_on_c, 0, 87, 0
2, 127119, Note_on_c, 0, 89, 45
2, 127200, Note_on_c, 0, 89, 0
2, 127200, Note_on_c, 0, 87, 45
2, 127280, Note_on_c, 0, 87, 0
2, 127280, Note_on_c, 0, 89, 45
2, 127359, Note_on_c, 0, 89, 0
2, 127359, Note_on_c, 0, 87, 45
2, 127440, Note_on_c, 0, 87, 0
2, 127440, Note_on_c, 0, 89, 45
2, 127520, Note_on_c, 0, 89, 0
2, 127520, Note_on_c, 0, 87, 45
2, 127599, Note_on_c, 0, 87, 0
2, 127599, Note_on_c, 0, 89, 45
2, 127680, Note_on_c, 0, 89, 0
2, 127680, Note_on_c, 0, 87, 45
2, 127760, Note_on_c, 0, 87, 0
2, 127760, Note_on_c, 0, 89, 45
2, 127839, Note_on_c, 0, 89, 0
2, 127839, Note_on_c, 0, 87, 45
2, 127920, Note_on_c, 0, 87, 0
2, 127920, Note_on_c, 0, 89, 45
2, 128000, Note_on_c, 0, 89, 0
2, 128000, Note_on_c, 0, 87, 45
2, 128079, Note_on_c, 0, 87, 0
2, 128079, Note_on_c, 0, 89, 45
2, 128160, Note_on_c, 0, 89, 0
2, 128160, Note_on_c, 0, 87, 45
2, 128240, Note_on_c, 0, 87, 0
2, 128240, Note_on_c, 0, 89, 45
2, 128319, Note_on_c, 0, 89, 0
2, 128319, Note_on_c, 0, 87, 45
2, 128400, Note_on_c, 0, 87, 0
2, 128400, Note_on_c, 0, 89, 45
2, 128480, Note_on_c, 0, 89, 0
2, 128480, Note_on_c, 0, 87, 45
2, 128559, Note_on_c, 0, 87, 0
2, 128559, Note_on_c, 0, 89, 45
2, 128640, Note_on_c, 0, 89, 0
2, 128640, Note_on_c, 0, 87, 45
2, 128720, Note_on_c, 0, 87, 0
2, 128720, Note_on_c, 0, 89, 45
2, 128799, Note_on_c, 0, 89, 0
2, 128799, Note_on_c, 0, 87, 45
2, 128880, Note_on_c, 0, 87, 0
2, 128880, Note_on_c, 0, 89, 45
2, 128960, Note_on_c, 0, 89, 0
2, 128960, Note_on_c, 0, 87, 45
2, 129039, Note_on_c, 0, 87, 0
2, 129039, Note_on_c, 0, 89, 45
2, 129120, Note_on_c, 0, 89, 0
2, 129120, Note_on_c, 0, 87, 45
2, 129200, Note_on_c, 0, 87, 0
2, 129200, Note_on_c, 0, 89, 45
2, 129279, Note_on_c, 0, 89, 0
2, 129279, Note_on_c, 0, 87, 45
2, 129360, Note_on_c, 0, 87, 0
2, 129360, Note_on_c, 0, 89, 45
2, 129440, Note_on_c, 0, 89, 0
2, 129440, Note_on_c, 0, 87, 45
2, 129519, Note_on_c, 0, 87, 0
2, 129519, Note_on_c, 0, 89, 45
2, 129600, Note_on_c, 0, 89, 0
2, 129600, Note_on_c, 0, 87, 45
2, 129680, Note_on_c, 0, 87, 0
2, 129680, Note_on_c, 0, 89, 45
2, 129759, Note_on_c, 0, 89, 0
2, 129759, Note_on_c, 0, 87, 45
2, 129840, Note_on_c, 0, 87, 0
2, 129840, Note_on_c, 0, 89, 45
2, 129920, Note_on_c, 0, 89, 0
2, 129920, Note_on_c, 0, 87, 45
2, 129999, Note_on_c, 0, 87, 0
2, 129999, Note_on_c, 0, 89, 45
2, 130080, Note_on_c, 0, 89, 0
2, 130080, Note_on_c, 0, 87, 45
2, 130160, Note_on_c, 0, 87, 0
2, 130160, Note_on_c, 0, 89, 45
2, 130239, Note_on_c, 0, 89, 0
2, 130239, Note_on_c, 0, 87, 45
2, 130320, Note_on_c, 0, 87, 0
2, 130320, Note_on_c, 0, 89, 45
2, 130400, Note_on_c, 0, 89, 0
2, 130400, Note_on_c, 0, 87, 45
2, 130479, Note_on_c, 0, 87, 0
2, 130479, Note_on_c, 0, 89, 45
2, 130560, Note_on_c, 0, 89, 0
2, 130560, Note_on_c, 0, 87, 45
2, 130640, Note_on_c, 0, 87, 0
2, 130640, Note_on_c, 0, 89, 45
2, 130719, Note_on_c, 0, 89, 0
2, 130719, Note_on_c, 0, 87, 45
2, 130800, Note_on_c, 0, 87, 0
2, 130800, Note_on_c, 0, 89, 45
2, 130880, Note_on_c, 0, 89, 0
2, 130880, Note_on_c, 0, 87, 45
2, 130959, Note_on_c, 0, 87, 0
2, 130959, Note_on_c, 0, 89, 45
2, 131040, Note_on_c, 0, 89, 0
2, 131040, Note_on_c, 0, 87, 45
2, 131120, Note_on_c, 0, 87, 0
2, 131120, Note_on_c, 0, 89, 45
2, 131199, Note_on_c, 0, 89, 0
2, 131199, Note_on_c, 0, 87, 45
2, 131280, Note_on_c, 0, 87, 0
2, 131280, Note_on_c, 0, 89, 45
2, 131360, Note_on_c, 0, 89, 0
2, 131360, Note_on_c, 0, 87, 45
2, 131439, Note_on_c, 0, 87, 0
2, 131439, Note_on_c, 0, 89, 45
2, 131520, Note_on_c, 0, 89, 0
2, 131520, Note_on_c, 0, 87, 45
2, 131600, Note_on_c, 0, 87, 0
2, 131600, Note_on_c, 0, 89, 45
2, 131679, Note_on_c, 0, 89, 0
2, 131679, Note_on_c, 0, 87, 45
2, 131760, Note_on_c, 0, 87, 0
2, 131760, Note_on_c, 0, 89, 45
2, 131840, Note_on_c, 0, 89, 0
2, 131840, Note_on_c, 0, 87, 45
2, 131919, Note_on_c, 0, 87, 0
2, 131919, Note_on_c, 0, 89, 45
2, 132000, Note_on_c, 0, 89, 0
2, 132000, Note_on_c, 0, 87, 45
2, 132080, Note_on_c, 0, 87, 0
2, 132080, Note_on_c, 0, 89, 45
2, 132159, Note_on_c, 0, 89, 0
2, 132159, Note_on_c, 0, 87, 45
2, 132240, Note_on_c, 0, 87, 0
2, 132240, Note_on_c, 0, 89, 45
2, 132320, Note_on_c, 0, 89, 0
2, 132320, Note_on_c, 0, 87, 45
2, 132399, Note_on_c, 0, 87, 0
2, 132399, Note_on_c, 0, 89, 45
2, 132480, Note_on_c, 0, 89, 0
2, 132480, Note_on_c, 0, 87, 45
2, 132560, Note_on_c, 0, 87, 0
2, 132560, Note_on_c, 0, 89, 45
2, 132639, Note_on_c, 0, 89, 0
2, 132639, Note_on_c, 0, 87, 45
2, 132720, Note_on_c, 0, 87, 0
2, 132720, Note_on_c, 0, 89, 45
2, 132800, Note_on_c, 0, 89, 0
2, 132800, Note_on_c, 0, 87, 45
2, 132879, Note_on_c, 0, 87, 0
2, 132879, Note_on_c, 0, 89, 45
2, 132960, Note_on_c, 0, 89, 0
2, 132960, Note_on_c, 0, 87, 45
2, 133040, Note_on_c, 0, 87, 0
2, 133040, Note_on_c, 0, 89, 45
2, 133119, Note_on_c, 0, 89, 0
2, 133119, Note_on_c, 0, 87, 45
2, 133200, Note_on_c, 0, 87, 0
2, 133200, Note_on_c, 0, 89, 45
2, 133280, Note_on_c, 0, 89, 0
2, 133280, Note_on_c, 0, 87, 45
2, 133359, Note_on_c, 0, 87, 0
2, 133359, Note_on_c, 0, 89, 45
2, 133440, Note_on_c, 0, 89, 0
2, 133440, Note_on_c, 0, 87, 45
2, 133520, Note_on_c, 0, 87, 0
2, 133520, Note_on_c, 0, 89, 45
2, 133599, Note_on_c, 0, 89, 0
2, 133599, Note_on_c, 0, 87, 45
2, 133680, Note_on_c, 0, 87, 0
2, 133680, Note_on_c, 0, 89, 45
2, 133760, Note_on_c, 0, 89, 0
2, 133760, Note_on_c, 0, 87, 45
2, 133839, Note_on_c, 0, 87, 0
2, 133839, Note_on_c, 0, 89, 45
2, 133920, Note_on_c, 0, 89, 0
2, 133920, Note_on_c, 0, 87, 45
2, 134000, Note_on_c, 0, 87, 0
2, 134000, Note_on_c, 0, 89, 45
2, 134079, Note_on_c, 0, 89, 0
2, 134079, Note_on_c, 0, 87, 45
2, 134160, Note_on_c, 0, 87, 0
2, 134160, Note_on_c, 0, 89, 45
2, 134240, Note_on_c, 0, 89, 0
2, 134240, Note_on_c, 0, 87, 45
2, 134319, Note_on_c, 0, 87, 0
2, 134319, Note_on_c, 0, 89, 45
2, 134400, Note_on_c, 0, 89, 0
2, 134400, Note_on_c, 0, 87, 45
2, 134480, Note_on_c, 0, 87, 0
2, 134480, Note_on_c, 0, 89, 45
2, 134559, Note_on_c, 0, 89, 0
2, 134559, Note_on_c, 0, 87, 45
2, 134640, Note_on_c, 0, 87, 0
2, 134640, Note_on_c, 0, 89, 45
2, 134720, Note_on_c, 0, 89, 0
2, 134720, Note_on_c, 0, 87, 45
2, 134799, Note_on_c, 0, 87, 0
2, 134799, Note_on_c, 0, 89, 45
2, 134880, Note_on_c, 0, 89, 0
2, 134880, Note_on_c, 0, 87, 45
2, 134960, Note_on_c, 0, 87, 0
2, 134960, Note_on_c, 0, 89, 45
2, 135039, Note_on_c, 0, 89, 0
2, 135039, Note_on_c, 0, 87, 45
2, 135120, Note_on_c, 0, 87, 0
2, 135120, Note_on_c, 0, 89, 45
2, 135200, Note_on_c, 0, 89, 0
2, 135200, Note_on_c, 0, 87, 45
2, 135279, Note_on_c, 0, 87, 0
2, 135279, Note_on_c, 0, 89, 45
2, 135360, Note_on_c, 0, 89, 0
2, 135360, Note_on_c, 0, 87, 45
2, 135440, Note_on_c, 0, 87, 0
2, 135440, Note_on_c, 0, 89, 45
2, 135519, Note_on_c, 0, 89, 0
2, 135519, Note_on_c, 0, 87, 45
2, 135600, Note_on_c, 0, 87, 0
2, 135600, Note_on_c, 0, 89, 45
2, 135680, Note_on_c, 0, 89, 0
2, 135680, Note_on_c, 0, 87, 45
2, 135759, Note_on_c, 0, 87, 0
2, 135759, Note_on_c, 0, 89, 45
2, 135840, Note_on_c, 0, 89, 0
2, 135840, Note_on_c, 0, 87, 45
2, 135920, Note_on_c, 0, 87, 0
2, 135920, Note_on_c, 0, 89, 45
2, 135999, Note_on_c, 0, 89, 0
2, 135999, Note_on_c, 0, 87, 45
2, 136080, Note_on_c, 0, 87, 0
2, 136080, Note_on_c, 0, 89, 45
2, 136160, Note_on_c, 0, 89, 0
2, 136160, Note_on_c, 0, 87, 45
2, 136239, Note_on_c, 0, 87, 0
2, 136239, Control_c, 0, 64, 0
2, 136239, Note_on_c, 0, 89, 45
2, 136320, Note_on_c, 0, 89, 0
2, 136320, Note_on_c, 0, 75, 71
2, 136320, Note_on_c, 0, 87, 71
2, 136560, Note_on_c, 0, 87, 0
2, 136560, Note_on_c, 0, 75, 0
2, 137280, Note_on_c, 0, 79, 71
2, 137280, Note_on_c, 0, 82, 71
2, 137280, Note_on_c, 0, 87, 71
2, 137280, Note_on_c, 0, 91, 71
2, 137760, Note_on_c, 0, 91, 0
2, 137760, Note_on_c, 0, 79, 0
2, 137760, Note_on_c, 0, 82, 0
2, 137760, Note_on_c, 0, 87, 0
2, 139200, Note_on_c, 0, 79, 71
2, 139200, Note_on_c, 0, 82, 71
2, 139200, Note_on_c, 0, 87, 71
2, 139200, Note_on_c, 0, 91, 71
2, 139680, Note_on_c, 0, 91, 0
2, 139680, Note_on_c, 0, 79, 0
2, 139680, Note_on_c, 0, 82, 0
2, 139680, Note_on_c, 0, 87, 0
2, 140160, Note_on_c, 0, 55, 71
2, 140160, Note_on_c, 0, 58, 71
2, 140160, Note_on_c, 0, 63, 71
2, 141600, Note_on_c, 0, 63, 0
2, 141600, Note_on_c, 0, 58, 0
2, 141600, Note_on_c, 0, 55, 0
2, 141600, Note_on_c, 0, 55, 71
2, 141600, Note_on_c, 0, 58, 71
2, 141600, Note_on_c, 0, 63, 71
2, 141759, Note_on_c, 0, 63, 0
2, 141759, Note_on_c, 0, 58, 0
2, 141759, Note_on_c, 0, 55, 0
2, 141759, Note_on_c, 0, 55, 71
2, 141759, Note_on_c, 0, 58, 71
2, 141759, Note_on_c, 0, 63, 71
2, 141920, Note_on_c, 0, 63, 0
2, 141920, Note_on_c, 0, 58, 0
2, 141920, Note_on_c, 0, 55, 0
2, 141920, Note_on_c, 0, 55, 71
2, 141920, Note_on_c, 0, 58, 71
2, 141920, Note_on_c, 0, 63, 71
2, 142080, Note_on_c, 0, 63, 0
2, 142080, Note_on_c, 0, 58, 0
2, 142080, Note_on_c, 0, 55, 0
2, 142080, Note_on_c, 0, 55, 71
2, 142080, Note_on_c, 0, 58, 71
2, 142080, Note_on_c, 0, 63, 71
2, 142320, Note_on_c, 0, 63, 0
2, 142320, Note_on_c, 0, 58, 0
2, 142320, Note_on_c, 0, 55, 0
2, 142560, Note_on_c, 0, 56, 71
2, 142560, Note_on_c, 0, 62, 71
2, 142560, Note_on_c, 0, 70, 71
2, 142800, Note_on_c, 0, 70, 0
2, 142800, Note_on_c, 0, 62, 0
2, 142800, Note_on_c, 0, 56, 0
2, 143040, Note_on_c, 0, 55, 97
2, 143040, Note_on_c, 0, 58, 97
2, 143040, Note_on_c, 0, 63, 97
2, 143520, Note_on_c, 0, 63, 0
2, 143520, Note_on_c, 0, 58, 0
2, 143520, Note_on_c, 0, 55, 0
2, 143520, Control_c, 0, 64, 127
2, 145440, Control_c, 0, 64, 0
2, 145440, End_track
3, 0, Start_track
3, 0, Title_t, "Grand Piano"
3, 0, Program_c, 0, 0
3, 0, Control_c, 0, 7, 115
3, 0, Control_c, 0, 10, 80
3, 32640, Note_on_c, 0, 75, 78
3, 33600, Note_on_c, 0, 75, 0
3, 33600, Note_on_c, 0, 62, 104
3, 33600, Note_on_c, 0, 74, 104
3, 34080, Note_on_c, 0, 74, 0
3, 34080, Note_on_c, 0, 62, 0
3, 34080, Note_on_c, 0, 60, 104
3, 34080, Note_on_c, 0, 72, 104
3, 34560, Note_on_c, 0, 72, 0
3, 34560, Note_on_c, 0, 60, 0
3, 34560, Note_on_c, 0, 58, 104
3, 34560, Note_on_c, 0, 63, 104
3, 34560, Note_on_c, 0, 67, 104
3, 34560, Note_on_c, 0, 70, 104
3, 35040, Note_on_c, 0, 70, 0
3, 35040, Note_on_c, 0, 58, 0
3, 35040, Note_on_c, 0, 63, 0
3, 35040, Note_on_c, 0, 67, 0
3, 35040, Note_on_c, 0, 58, 104
3, 35040, Note_on_c, 0, 63, 104
3, 35040, Note_on_c, 0, 67, 104
3, 35520, Note_on_c, 0, 67, 0
3, 35520, Note_on_c, 0, 63, 0
3, 35520, Note_on_c, 0, 58, 0
3, 35520, Note_on_c, 0, 55, 104
3, 35520, Note_on_c, 0, 58, 104
3, 35520, Note_on_c, 0, 65, 104
3, 36000, Note_on_c, 0, 65, 0
3, 36000, Note_on_c, 0, 58, 0
3, 36000, Note_on_c, 0, 55, 0
3, 36000, Note_on_c, 0, 55, 104
3, 36000, Note_on_c, 0, 58, 104
3, 36000, Note_on_c, 0, 63, 104
3, 36480, Note_on_c, 0, 63, 0
3, 36480, Note_on_c, 0, 58, 0
3, 36480, Note_on_c, 0, 55, 0
3, 47040, Note_on_c, 0, 62, 78
3, 47040, Note_on_c, 0, 67, 78
3, 47760, Note_on_c, 0, 67, 0
3, 47760, Note_on_c, 0, 62, 0
3, 47760, Note_on_c, 0, 72, 78
3, 47760, Note_on_c, 0, 74, 78
3, 48000, Note_on_c, 0, 74, 0
3, 48000, Note_on_c, 0, 72, 0
3, 59520, Note_on_c, 0, 60, 78
3, 61440, Note_on_c, 0, 60, 0
3, 63360, Note_on_c, 0, 64, 39
3, 64080, Note_on_c, 0, 64, 0
3, 64080, Note_on_c, 0, 64, 39
3, 64200, Note_on_c, 0, 64, 0
3, 64200, Note_on_c, 0, 65, 39
3, 64320, Note_on_c, 0, 65, 0
3, 64320, Note_on_c, 0, 66, 39
3, 65040, Note_on_c, 0, 66, 0
3, 65040, Note_on_c, 0, 66, 39
3, 65160, Note_on_c, 0, 66, 0
3, 65160, Note_on_c, 0, 67, 39
3, 65280, Note_on_c, 0, 67, 0
3, 65280, Note_on_c, 0, 67, 52
3, 66000, Note_on_c, 0, 67, 0
3, 66000, Note_on_c, 0, 67, 52
3, 66120, Note_on_c, 0, 67, 0
3, 66120, Note_on_c, 0, 68, 52
3, 66240, Note_on_c, 0, 68, 0
3, 66240, Note_on_c, 0, 69, 52
3, 66720, Note_on_c, 0, 69, 0
3, 66720, Note_on_c, 0, 70, 52
3, 67200, Note_on_c, 0, 70, 0
3, 103680, Note_on_c, 0, 75, 78
3, 104640, Note_on_c, 0, 75, 0
3, 104640, Note_on_c, 0, 62, 104
3, 104640, Note_on_c, 0, 74, 104
3, 105120, Note_on_c, 0, 74, 0
3, 105120, Note_on_c, 0, 62, 0
3, 105120, Note_on_c, 0, 60, 104
3, 105120, Note_on_c, 0, 72, 104
3, 105600, Note_on_c, 0, 72, 0
3, 105600, Note_on_c, 0, 60, 0
3, 105600, Note_on_c, 0, 58, 104
3, 105600, Note_on_c, 0, 63, 104
3, 105600, Note_on_c, 0, 67, 104
3, 105600, Note_on_c, 0, 70, 104
3, 106080, Note_on_c, 0, 70, 0
3, 106080, Note_on_c, 0, 58, 0
3, 106080, Note_on_c, 0, 63, 0
3, 106080, Note_on_c, 0, 67, 0
3, 106080, Note_on_c, 0, 58, 104
3, 106080, Note_on_c, 0, 63, 104
3, 106080, Note_on_c, 0, 67, 104
3, 106560, Note_on_c, 0, 67, 0
3, 106560, Note_on_c, 0, 63, 0
3, 106560, Note_on_c, 0, 58, 0
3, 106560, Note_on_c, 0, 55, 104
3, 106560, Note_on_c, 0, 58, 104
3, 106560, Note_on_c, 0, 65, 104
3, 107040, Note_on_c, 0, 65, 0
3, 107040, Note_on_c, 0, 58, 0
3, 107040, Note_on_c, 0, 55, 0
3, 107040, Note_on_c, 0, 55, 104
3, 107040, Note_on_c, 0, 58, 104
3, 107040, Note_on_c, 0, 63, 104
3, 107520, Note_on_c, 0, 63, 0
3, 107520, Note_on_c, 0, 58, 0
3, 107520, Note_on_c, 0, 55, 0
3, 125280, Note_on_c, 0, 63, 104
3, 125280, Note_on_c, 0, 67, 104
3, 125280, Note_on_c, 0, 70, 104
3, 125760, Note_on_c, 0, 70, 0
3, 125760, Note_on_c, 0, 67, 0
3, 125760, Note_on_c, 0, 63, 0
3, 125760, Note_on_c, 0, 59, 104
3, 125760, Note_on_c, 0, 63, 104
3, 125760, Note_on_c, 0, 67, 104
3, 125760, Note_on_c, 0, 71, 104
3, 126150, Note_on_c, 0, 55, 104
3, 126180, Note_on_c, 0, 63, 104
3, 126210, Note_on_c, 0, 67, 104
3, 126240, Note_on_c, 0, 71, 0
3, 126240, Note_on_c, 0, 67, 0
3, 126240, Note_on_c, 0, 59, 0
3, 126240, Note_on_c, 0, 63, 0
3, 126240, Note_on_c, 0, 72, 104
3, 126720, Note_on_c, 0, 72, 0
3, 126720, Note_on_c, 0, 63, 0
3, 126720, Note_on_c, 0, 55, 0
3, 126720, Note_on_c, 0, 67, 0
3, 129120, Note_on_c, 0, 63, 104
3, 129120, Note_on_c, 0, 67, 104
3, 129120, Note_on_c, 0, 70, 104
3, 129600, Note_on_c, 0, 70, 0
3, 129600, Note_on_c, 0, 67, 0
3, 129600, Note_on_c, 0, 63, 0
3, 129600, Note_on_c, 0, 59, 104
3, 129600, Note_on_c, 0, 63, 104
3, 129600, Note_on_c, 0, 67, 104
3, 129600, Note_on_c, 0, 71, 104
3, 129990, Note_on_c, 0, 55, 104
3, 130020, Note_on_c, 0, 63, 104
3, 130050, Note_on_c, 0, 67, 104
3, 130080, Note_on_c, 0, 71, 0
3, 130080, Note_on_c, 0, 67, 0
3, 130080, Note_on_c, 0, 59, 0
3, 130080, Note_on_c, 0, 63, 0
3, 130080, Note_on_c, 0, 72, 104
3, 130560, Note_on_c, 0, 72, 0
3, 130560, Note_on_c, 0, 63, 0
3, 130560, Note_on_c, 0, 55, 0
3, 130560, Note_on_c, 0, 67, 0
3, 130560, End_track
4, 0, Start_track
4, 0, Title_t, "Grand Piano"
4, 0, Program_c, 0, 0
4, 0, Control_c, 0, 7, 115
4, 0, Control_c, 0, 10, 41
4, 240, Note_on_c, 0, 46, 67
4, 240, Note_on_c, 0, 58, 67
4, 360, Note_on_c, 0, 58, 0
4, 360, Note_on_c, 0, 46, 0
4, 360, Note_on_c, 0, 46, 67
4, 360, Note_on_c, 0, 58, 67
4, 480, Note_on_c, 0, 58, 0
4, 480, Note_on_c, 0, 46, 0
4, 480, Note_on_c, 0, 46, 67
4, 480, Note_on_c, 0, 58, 67
4, 720, Note_on_c, 0, 58, 0
4, 720, Note_on_c, 0, 46, 0
4, 1200, Note_on_c, 0, 46, 80
4, 1440, Note_on_c, 0, 46, 0
4, 1440, Note_on_c, 0, 43, 80
4, 1680, Note_on_c, 0, 43, 0
4, 1680, Note_on_c, 0, 46, 80
4, 1920, Note_on_c, 0, 46, 0
4, 1920, Note_on_c, 0, 51, 80
4, 2160, Note_on_c, 0, 51, 0
4, 2160, Note_on_c, 0, 55, 80
4, 2400, Note_on_c, 0, 55, 0
4, 2400, Note_on_c, 0, 58, 80
4, 2640, Note_on_c, 0, 58, 0
4, 2640, Note_on_c, 0, 31, 67
4, 2640, Note_on_c, 0, 43, 67
4, 2880, Note_on_c, 0, 43, 0
4, 2880, Note_on_c, 0, 31, 0
4, 2880, Note_on_c, 0, 32, 67
4, 2880, Note_on_c, 0, 44, 67
4, 3120, Note_on_c, 0, 44, 0
4, 3120, Note_on_c, 0, 32, 0
4, 3120, Note_on_c, 0, 44, 93
4, 3120, Note_on_c, 0, 56, 93
4, 3600, Note_on_c, 0, 56, 0
4, 3600, Note_on_c, 0, 44, 0
4, 3600, Note_on_c, 0, 32, 67
4, 3600, Note_on_c, 0, 44, 67
4, 3840, Note_on_c, 0, 44, 0
4, 3840, Note_on_c, 0, 32, 0
4, 4080, Note_on_c, 0, 46, 67
4, 4080, Note_on_c, 0, 58, 67
4, 4200, Note_on_c, 0, 58, 0
4, 4200, Note_on_c, 0, 46, 0
4, 4200, Note_on_c, 0, 46, 67
4, 4200, Note_on_c, 0, 58, 67
4, 4320, Note_on_c, 0, 58, 0
4, 4320, Note_on_c, 0, 46, 0
4, 4320, Note_on_c, 0, 46, 67
4, 4320, Note_on_c, 0, 58, 67
4, 4560, Note_on_c, 0, 58, 0
4, 4560, Note_on_c, 0, 46, 0
4, 5040, Note_on_c, 0, 46, 80
4, 5280, Note_on_c, 0, 46, 0
4, 5280, Note_on_c, 0, 43, 80
4, 5520, Note_on_c, 0, 43, 0
4, 5520, Note_on_c, 0, 46, 80
4, 5760, Note_on_c, 0, 46, 0
4, 5760, Note_on_c, 0, 51, 80
4, 6000, Note_on_c, 0, 51, 0
4, 6000, Note_on_c, 0, 55, 80
4, 6240, Note_on_c, 0, 55, 0
4, 6240, Note_on_c, 0, 58, 80
4, 6480, Note_on_c, 0, 58, 0
4, 6480, Note_on_c, 0, 31, 67
4, 6480, Note_on_c, 0, 43, 67
4, 6720, Note_on_c, 0, 43, 0
4, 6720, Note_on_c, 0, 31, 0
4, 6720, Note_on_c, 0, 32, 67
4, 6720, Note_on_c, 0, 44, 67
4, 6960, Note_on_c, 0, 44, 0
4, 6960, Note_on_c, 0, 32, 0
4, 6960, Note_on_c, 0, 44, 93
4, 6960, Note_on_c, 0, 56, 93
4, 7440, Note_on_c, 0, 56, 0
4, 7440, Note_on_c, 0, 44, 0
4, 7440, Note_on_c, 0, 32, 67
4, 7440, Note_on_c, 0, 44, 67
4, 7680, Note_on_c, 0, 44, 0
4, 7680, Note_on_c, 0, 32, 0
4, 7680, Note_on_c, 0, 43, 67
4, 7680, Note_on_c, 0, 46, 67
4, 7680, Note_on_c, 0, 52, 67
4, 7920, Note_on_c, 0, 52, 0
4, 7920, Note_on_c, 0, 46, 0
4, 7920, Note_on_c, 0, 43, 0
4, 7920, Note_on_c, 0, 55, 67
4, 7920, Note_on_c, 0, 58, 67
4, 7920, Note_on_c, 0, 64, 67
4, 8160, Note_on_c, 0, 64, 0
4, 8160, Note_on_c, 0, 58, 0
4, 8160, Note_on_c, 0, 55, 0
4, 8400, Note_on_c, 0, 53, 67
4, 8400, Note_on_c, 0, 58, 67
4, 8400, Note_on_c, 0, 65, 67
4, 8640, Note_on_c, 0, 65, 0
4, 8640, Note_on_c, 0, 58, 0
4, 8640, Note_on_c, 0, 53, 0
4, 8640, Note_on_c, 0, 52, 67
4, 8640, Note_on_c, 0, 58, 67
4, 8640, Note_on_c, 0, 60, 67
4, 8880, Note_on_c, 0, 60, 0
4, 8880, Note_on_c, 0, 58, 0
4, 8880, Note_on_c, 0, 52, 0
4, 8880, Note_on_c, 0, 52, 67
4, 8880, Note_on_c, 0, 58, 67
4, 8880, Note_on_c, 0, 60, 67
4, 9120, Note_on_c, 0, 60, 0
4, 9120, Note_on_c, 0, 58, 0
4, 9120, Note_on_c, 0, 52, 0
4, 9360, Note_on_c, 0, 53, 67
4, 9360, Note_on_c, 0, 56, 67
4, 9360, Note_on_c, 0, 60, 67
4, 9600, Note_on_c, 0, 60, 0
4, 9600, Note_on_c, 0, 56, 0
4, 9600, Note_on_c, 0, 53, 0
4, 9600, Note_on_c, 0, 57, 67
4, 9600, Note_on_c, 0, 60, 67
4, 9600, Note_on_c, 0, 66, 67
4, 9840, Note_on_c, 0, 66, 0
4, 9840, Note_on_c, 0, 60, 0
4, 9840, Note_on_c, 0, 57, 0
4, 9840, Note_on_c, 0, 57, 67
4, 9840, Note_on_c, 0, 60, 67
4, 9840, Note_on_c, 0, 66, 67
4, 10080, Note_on_c, 0, 66, 0
4, 10080, Note_on_c, 0, 60, 0
4, 10080, Note_on_c, 0, 57, 0
4, 10320, Note_on_c, 0, 55, 67
4, 10320, Note_on_c, 0, 60, 67
4, 10320, Note_on_c, 0, 67, 67
4, 10560, Note_on_c, 0, 67, 0
4, 10560, Note_on_c, 0, 60, 0
4, 10560, Note_on_c, 0, 55, 0
4, 10560, Note_on_c, 0, 54, 67
4, 10560, Note_on_c, 0, 60, 67
4, 10560, Note_on_c, 0, 62, 67
4, 10800, Note_on_c, 0, 62, 0
4, 10800, Note_on_c, 0, 60, 0
4, 10800, Note_on_c, 0, 54, 0
4, 10800, Note_on_c, 0, 54, 67
4, 10800, Note_on_c, 0, 60, 67
4, 10800, Note_on_c, 0, 62, 67
4, 11040, Note_on_c, 0, 62, 0
4, 11040, Note_on_c, 0, 60, 0
4, 11040, Note_on_c, 0, 54, 0
4, 11280, Note_on_c, 0, 55, 67
4, 11280, Note_on_c, 0, 58, 67
4, 11280, Note_on_c, 0, 62, 67
4, 11520, Note_on_c, 0, 62, 0
4, 11520, Note_on_c, 0, 58, 0
4, 11520, Note_on_c, 0, 55, 0
4, 11760, Note_on_c, 0, 46, 67
4, 11760, Note_on_c, 0, 55, 67
4, 11760, Note_on_c, 0, 62, 67
4, 12240, Note_on_c, 0, 62, 0
4, 12240, Note_on_c, 0, 55, 0
4, 12240, Note_on_c, 0, 46, 0
4, 12240, Note_on_c, 0, 47, 67
4, 12240, Note_on_c, 0, 55, 67
4, 12240, Note_on_c, 0, 62, 67
4, 12720, Note_on_c, 0, 62, 0
4, 12720, Note_on_c, 0, 55, 0
4, 12720, Note_on_c, 0, 47, 0
4, 12720, Note_on_c, 0, 48, 67
4, 12720, Note_on_c, 0, 55, 67
4, 12720, Note_on_c, 0, 60, 67
4, 12960, Note_on_c, 0, 60, 0
4, 12960, Note_on_c, 0, 55, 0
4, 12960, Note_on_c, 0, 48, 0
4, 13200, Note_on_c, 0, 51, 67
4, 13200, Note_on_c, 0, 55, 67
4, 13200, Note_on_c, 0, 63, 67
4, 13440, Note_on_c, 0, 63, 0
4, 13440, Note_on_c, 0, 55, 0
4, 13440, Note_on_c, 0, 51, 0
4, 13680, Note_on_c, 0, 53, 67
4, 13680, Note_on_c, 0, 56, 67
4, 13680, Note_on_c, 0, 65, 67
4, 13920, Note_on_c, 0, 65, 0
4, 13920, Note_on_c, 0, 56, 0
4, 13920, Note_on_c, 0, 53, 0
4, 14160, Note_on_c, 0, 53, 67
4, 14160, Note_on_c, 0, 56, 67
4, 14160, Note_on_c, 0, 60, 67
4, 14400, Note_on_c, 0, 60, 0
4, 14400, Note_on_c, 0, 56, 0
4, 14400, Note_on_c, 0, 53, 0
4, 14400, Note_on_c, 0, 48, 67
4, 14400, Note_on_c, 0, 53, 67
4, 14400, Note_on_c, 0, 56, 67
4, 14400, Note_on_c, 0, 60, 67
4, 14640, Note_on_c, 0, 60, 0
4, 14640, Note_on_c, 0, 48, 0
4, 14640, Note_on_c, 0, 53, 0
4, 14640, Note_on_c, 0, 56, 0
4, 14640, Note_on_c, 0, 46, 67
4, 14640, Note_on_c, 0, 50, 67
4, 14640, Note_on_c, 0, 56, 67
4, 14640, Note_on_c, 0, 58, 67
4, 14880, Note_on_c, 0, 58, 0
4, 14880, Note_on_c, 0, 46, 0
4, 14880, Note_on_c, 0, 50, 0
4, 14880, Note_on_c, 0, 56, 0
4, 15600, Note_on_c, 0, 46, 67
4, 15600, Note_on_c, 0, 58, 67
4, 15720, Note_on_c, 0, 58, 0
4, 15720, Note_on_c, 0, 46, 0
4, 15720, Note_on_c, 0, 46, 67
4, 15720, Note_on_c, 0, 58, 67
4, 15840, Note_on_c, 0, 58, 0
4, 15840, Note_on_c, 0, 46, 0
4, 15840, Note_on_c, 0, 46, 67
4, 15840, Note_on_c, 0, 58, 67
4, 16080, Note_on_c, 0, 58, 0
4, 16080, Note_on_c, 0, 46, 0
4, 16560, Note_on_c, 0, 46, 80
4, 16800, Note_on_c, 0, 46, 0
4, 16800, Note_on_c, 0, 43, 80
4, 17040, Note_on_c, 0, 43, 0
4, 17040, Note_on_c, 0, 46, 80
4, 17280, Note_on_c, 0, 46, 0
4, 17280, Note_on_c, 0, 51, 80
4, 17520, Note_on_c, 0, 51, 0
4, 17520, Note_on_c, 0, 55, 80
4, 17760, Note_on_c, 0, 55, 0
4, 17760, Note_on_c, 0, 58, 80
4, 18000, Note_on_c, 0, 58, 0
4, 18000, Note_on_c, 0, 31, 67
4, 18000, Note_on_c, 0, 43, 67
4, 18240, Note_on_c, 0, 43, 0
4, 18240, Note_on_c, 0, 31, 0
4, 18240, Note_on_c, 0, 32, 67
4, 18240, Note_on_c, 0, 44, 67
4, 18480, Note_on_c, 0, 44, 0
4, 18480, Note_on_c, 0, 32, 0
4, 18480, Note_on_c, 0, 44, 93
4, 18480, Note_on_c, 0, 56, 93
4, 18960, Note_on_c, 0, 56, 0
4, 18960, Note_on_c, 0, 44, 0
4, 18960, Note_on_c, 0, 32, 67
4, 18960, Note_on_c, 0, 44, 67
4, 19200, Note_on_c, 0, 44, 0
4, 19200, Note_on_c, 0, 32, 0
4, 19440, Note_on_c, 0, 46, 67
4, 19440, Note_on_c, 0, 58, 67
4, 19560, Note_on_c, 0, 58, 0
4, 19560, Note_on_c, 0, 46, 0
4, 19560, Note_on_c, 0, 46, 67
4, 19560, Note_on_c, 0, 58, 67
4, 19680, Note_on_c, 0, 58, 0
4, 19680, Note_on_c, 0, 46, 0
4, 19680, Note_on_c, 0, 46, 67
4, 19680, Note_on_c, 0, 58, 67
4, 19920, Note_on_c, 0, 58, 0
4, 19920, Note_on_c, 0, 46, 0
4, 20400, Note_on_c, 0, 46, 80
4, 20640, Note_on_c, 0, 46, 0
4, 20640, Note_on_c, 0, 43, 80
4, 20880, Note_on_c, 0, 43, 0
4, 20880, Note_on_c, 0, 46, 80
4, 21120, Note_on_c, 0, 46, 0
4, 21120, Note_on_c, 0, 51, 80
4, 21360, Note_on_c, 0, 51, 0
4, 21360, Note_on_c, 0, 55, 80
4, 21600, Note_on_c, 0, 55, 0
4, 21600, Note_on_c, 0, 58, 80
4, 21840, Note_on_c, 0, 58, 0
4, 21840, Note_on_c, 0, 31, 67
4, 21840, Note_on_c, 0, 43, 67
4, 22080, Note_on_c, 0, 43, 0
4, 22080, Note_on_c, 0, 31, 0
4, 22080, Note_on_c, 0, 32, 67
4, 22080, Note_on_c, 0, 44, 67
4, 22320, Note_on_c, 0, 44, 0
4, 22320, Note_on_c, 0, 32, 0
4, 22320, Note_on_c, 0, 44, 93
4, 22320, Note_on_c, 0, 56, 93
4, 22800, Note_on_c, 0, 56, 0
4, 22800, Note_on_c, 0, 44, 0
4, 22800, Note_on_c, 0, 32, 67
4, 22800, Note_on_c, 0, 44, 67
4, 23040, Note_on_c, 0, 44, 0
4, 23040, Note_on_c, 0, 32, 0
4, 23040, Note_on_c, 0, 43, 67
4, 23040, Note_on_c, 0, 46, 67
4, 23040, Note_on_c, 0, 52, 67
4, 23280, Note_on_c, 0, 52, 0
4, 23280, Note_on_c, 0, 46, 0
4, 23280, Note_on_c, 0, 43, 0
4, 23280, Note_on_c, 0, 55, 67
4, 23280, Note_on_c, 0, 58, 67
4, 23280, Note_on_c, 0, 64, 67
4, 23520, Note_on_c, 0, 64, 0
4, 23520, Note_on_c, 0, 58, 0
4, 23520, Note_on_c, 0, 55, 0
4, 23760, Note_on_c, 0, 53, 67
4, 23760, Note_on_c, 0, 58, 67
4, 23760, Note_on_c, 0, 65, 67
4, 24000, Note_on_c, 0, 65, 0
4, 24000, Note_on_c, 0, 58, 0
4, 24000, Note_on_c, 0, 53, 0
4, 24000, Note_on_c, 0, 52, 67
4, 24000, Note_on_c, 0, 58, 67
4, 24000, Note_on_c, 0, 60, 67
4, 24240, Note_on_c, 0, 60, 0
4, 24240, Note_on_c, 0, 58, 0
4, 24240, Note_on_c, 0, 52, 0
4, 24240, Note_on_c, 0, 52, 67
4, 24240, Note_on_c, 0, 58, 67
4, 24240, Note_on_c, 0, 60, 67
4, 24480, Note_on_c, 0, 60, 0
4, 24480, Note_on_c, 0, 58, 0
4, 24480, Note_on_c, 0, 52, 0
4, 24720, Note_on_c, 0, 53, 67
4, 24720, Note_on_c, 0, 56, 67
4, 24720, Note_on_c, 0, 60, 67
4, 24960, Note_on_c, 0, 60, 0
4, 24960, Note_on_c, 0, 56, 0
4, 24960, Note_on_c, 0, 53, 0
4, 24960, Note_on_c, 0, 57, 67
4, 24960, Note_on_c, 0, 60, 67
4, 24960, Note_on_c, 0, 66, 67
4, 25200, Note_on_c, 0, 66, 0
4, 25200, Note_on_c, 0, 60, 0
4, 25200, Note_on_c, 0, 57, 0
4, 25200, Note_on_c, 0, 57, 67
4, 25200, Note_on_c, 0, 60, 67
4, 25200, Note_on_c, 0, 66, 67
4, 25440, Note_on_c, 0, 66, 0
4, 25440, Note_on_c, 0, 60, 0
4, 25440, Note_on_c, 0, 57, 0
4, 25680, Note_on_c, 0, 55, 67
4, 25680, Note_on_c, 0, 60, 67
4, 25680, Note_on_c, 0, 67, 67
4, 25920, Note_on_c, 0, 67, 0
4, 25920, Note_on_c, 0, 60, 0
4, 25920, Note_on_c, 0, 55, 0
4, 25920, Note_on_c, 0, 54, 67
4, 25920, Note_on_c, 0, 60, 67
4, 25920, Note_on_c, 0, 62, 67
4, 26160, Note_on_c, 0, 62, 0
4, 26160, Note_on_c, 0, 60, 0
4, 26160, Note_on_c, 0, 54, 0
4, 26160, Note_on_c, 0, 54, 67
4, 26160, Note_on_c, 0, 60, 67
4, 26160, Note_on_c, 0, 62, 67
4, 26400, Note_on_c, 0, 62, 0
4, 26400, Note_on_c, 0, 60, 0
4, 26400, Note_on_c, 0, 54, 0
4, 26640, Note_on_c, 0, 55, 67
4, 26640, Note_on_c, 0, 58, 67
4, 26640, Note_on_c, 0, 62, 67
4, 26880, Note_on_c, 0, 62, 0
4, 26880, Note_on_c, 0, 58, 0
4, 26880, Note_on_c, 0, 55, 0
4, 26880, Note_on_c, 0, 43, 67
4, 27120, Note_on_c, 0, 43, 0
4, 27120, Note_on_c, 0, 51, 67
4, 27120, Note_on_c, 0, 58, 67
4, 27360, Note_on_c, 0, 58, 0
4, 27360, Note_on_c, 0, 51, 0
4, 27360, Note_on_c, 0, 44, 67
4, 27600, Note_on_c, 0, 44, 0
4, 27600, Note_on_c, 0, 51, 67
4, 27600, Note_on_c, 0, 56, 67
4, 27840, Note_on_c, 0, 56, 0
4, 27840, Note_on_c, 0, 51, 0
4, 27840, Note_on_c, 0, 45, 67
4, 28080, Note_on_c, 0, 45, 0
4, 28080, Note_on_c, 0, 53, 67
4, 28080, Note_on_c, 0, 60, 67
4, 28320, Note_on_c, 0, 60, 0
4, 28320, Note_on_c, 0, 53, 0
4, 28320, Note_on_c, 0, 46, 67
4, 28560, Note_on_c, 0, 46, 0
4, 28560, Note_on_c, 0, 53, 67
4, 28560, Note_on_c, 0, 58, 67
4, 28800, Note_on_c, 0, 58, 0
4, 28800, Note_on_c, 0, 53, 0
4, 28800, Note_on_c, 0, 47, 67
4, 29040, Note_on_c, 0, 47, 0
4, 29040, Note_on_c, 0, 55, 67
4, 29040, Note_on_c, 0, 62, 67
4, 29280, Note_on_c, 0, 62, 0
4, 29280, Note_on_c, 0, 55, 0
4, 29280, Note_on_c, 0, 48, 67
4, 29520, Note_on_c, 0, 48, 0
4, 29520, Note_on_c, 0, 55, 67
4, 29520, Note_on_c, 0, 60, 67
4, 29760, Note_on_c, 0, 60, 0
4, 29760, Note_on_c, 0, 55, 0
4, 30240, Note_on_c, 0, 49, 67
4, 30240, Note_on_c, 0, 55, 67
4, 30240, Note_on_c, 0, 58, 67
4, 30720, Note_on_c, 0, 58, 0
4, 30720, Note_on_c, 0, 55, 0
4, 30720, Note_on_c, 0, 49, 0
4, 30720, Note_on_c, 0, 48, 67
4, 30720, Note_on_c, 0, 56, 67
4, 30720, Note_on_c, 0, 60, 67
4, 31200, Note_on_c, 0, 60, 0
4, 31200, Note_on_c, 0, 56, 0
4, 31200, Note_on_c, 0, 48, 0
4, 31200, Note_on_c, 0, 46, 67
4, 31200, Note_on_c, 0, 55, 67
4, 31200, Note_on_c, 0, 61, 67
4, 31680, Note_on_c, 0, 61, 0
4, 31680, Note_on_c, 0, 55, 0
4, 31680, Note_on_c, 0, 46, 0
4, 31680, Note_on_c, 0, 44, 67
4, 31680, Note_on_c, 0, 56, 67
4, 31680, Note_on_c, 0, 60, 67
4, 32160, Note_on_c, 0, 60, 0
4, 32160, Note_on_c, 0, 56, 0
4, 32160, Note_on_c, 0, 44, 0
4, 32160, Note_on_c, 0, 45, 67
4, 32160, Note_on_c, 0, 54, 67
4, 32160, Note_on_c, 0, 60, 67
4, 32640, Note_on_c, 0, 60, 0
4, 32640, Note_on_c, 0, 54, 0
4, 32640, Note_on_c, 0, 45, 0
4, 32640, Note_on_c, 0, 46, 93
4, 32640, Note_on_c, 0, 55, 93
4, 32640, Note_on_c, 0, 63, 93
4, 33600, Note_on_c, 0, 63, 0
4, 33600, Note_on_c, 0, 55, 0
4, 33600, Note_on_c, 0, 46, 0
4, 36480, Note_on_c, 0, 48, 93
4, 36480, Note_on_c, 0, 51, 93
4, 36480, Note_on_c, 0, 53, 93
4, 36480, Note_on_c, 0, 60, 93
4, 37440, Note_on_c, 0, 60, 0
4, 37440, Note_on_c, 0, 48, 0
4, 37440, Note_on_c, 0, 51, 0
4, 37440, Note_on_c, 0, 53, 0
4, 37440, Note_on_c, 0, 46, 93
4, 37440, Note_on_c, 0, 58, 93
4, 37920, Note_on_c, 0, 58, 0
4, 37920, Note_on_c, 0, 46, 0
4, 37920, Note_on_c, 0, 44, 93
4, 37920, Note_on_c, 0, 56, 93
4, 38400, Note_on_c, 0, 56, 0
4, 38400, Note_on_c, 0, 44, 0
4, 38400, Note_on_c, 0, 43, 93
4, 38400, Note_on_c, 0, 46, 93
4, 38400, Note_on_c, 0, 51, 93
4, 38400, Note_on_c, 0, 55, 93
4, 38880, Note_on_c, 0, 55, 0
4, 38880, Note_on_c, 0, 43, 0
4, 38880, Note_on_c, 0, 46, 0
4, 38880, Note_on_c, 0, 51, 0
4, 38880, Note_on_c, 0, 42, 93
4, 38880, Note_on_c, 0, 46, 93
4, 38880, Note_on_c, 0, 52, 93
4, 38880, Note_on_c, 0, 54, 93
4, 39360, Note_on_c, 0, 54, 0
4, 39360, Note_on_c, 0, 42, 0
4, 39360, Note_on_c, 0, 46, 0
4, 39360, Note_on_c, 0, 52, 0
4, 39360, Note_on_c, 0, 41, 93
4, 39360, Note_on_c, 0, 53, 93
4, 39840, Note_on_c, 0, 53, 0
4, 39840, Note_on_c, 0, 41, 0
4, 39840, Note_on_c, 0, 40, 93
4, 39840, Note_on_c, 0, 52, 93
4, 40320, Note_on_c, 0, 52, 0
4, 40320, Note_on_c, 0, 40, 0
4, 40320, Note_on_c, 0, 39, 67
4, 40320, Note_on_c, 0, 43, 67
4, 40320, Note_on_c, 0, 46, 67
4, 40320, Note_on_c, 0, 51, 67
4, 40560, Note_on_c, 0, 51, 0
4, 40560, Note_on_c, 0, 39, 0
4, 40560, Note_on_c, 0, 43, 0
4, 40560, Note_on_c, 0, 46, 0
4, 40560, Note_on_c, 0, 51, 67
4, 40560, Note_on_c, 0, 63, 67
4, 40800, Note_on_c, 0, 63, 0
4, 40800, Note_on_c, 0, 51, 0
4, 40800, Note_on_c, 0, 50, 67
4, 40800, Note_on_c, 0, 62, 67
4, 41040, Note_on_c, 0, 62, 0
4, 41040, Note_on_c, 0, 50, 0
4, 41040, Note_on_c, 0, 48, 67
4, 41040, Note_on_c, 0, 60, 67
4, 41280, Note_on_c, 0, 60, 0
4, 41280, Note_on_c, 0, 48, 0
4, 41280, Note_on_c, 0, 47, 67
4, 41280, Note_on_c, 0, 59, 67
4, 41520, Note_on_c, 0, 59, 0
4, 41520, Note_on_c, 0, 47, 0
4, 41520, Note_on_c, 0, 45, 67
4, 41520, Note_on_c, 0, 57, 67
4, 41760, Note_on_c, 0, 57, 0
4, 41760, Note_on_c, 0, 45, 0
4, 41760, Note_on_c, 0, 43, 67
4, 41760, Note_on_c, 0, 55, 67
4, 42000, Note_on_c, 0, 55, 0
4, 42000, Note_on_c, 0, 43, 0
4, 42000, Note_on_c, 0, 41, 67
4, 42000, Note_on_c, 0, 53, 67
4, 42240, Note_on_c, 0, 53, 0
4, 42240, Note_on_c, 0, 41, 0
4, 42240, Note_on_c, 0, 39, 67
4, 42240, Note_on_c, 0, 51, 67
4, 42480, Note_on_c, 0, 51, 0
4, 42480, Note_on_c, 0, 39, 0
4, 42480, Note_on_c, 0, 51, 67
4, 42480, Note_on_c, 0, 63, 67
4, 42720, Note_on_c, 0, 63, 0
4, 42720, Note_on_c, 0, 51, 0
4, 42720, Note_on_c, 0, 50, 67
4, 42720, Note_on_c, 0, 62, 67
4, 42960, Note_on_c, 0, 62, 0
4, 42960, Note_on_c, 0, 50, 0
4, 42960, Note_on_c, 0, 48, 67
4, 42960, Note_on_c, 0, 60, 67
4, 43200, Note_on_c, 0, 60, 0
4, 43200, Note_on_c, 0, 48, 0
4, 43200, Note_on_c, 0, 47, 67
4, 43200, Note_on_c, 0, 59, 67
4, 43440, Note_on_c, 0, 59, 0
4, 43440, Note_on_c, 0, 47, 0
4, 43440, Note_on_c, 0, 45, 67
4, 43440, Note_on_c, 0, 57, 67
4, 43680, Note_on_c, 0, 57, 0
4, 43680, Note_on_c, 0, 45, 0
4, 43680, Note_on_c, 0, 43, 67
4, 43680, Note_on_c, 0, 55, 67
4, 43920, Note_on_c, 0, 55, 0
4, 43920, Note_on_c, 0, 43, 0
4, 43920, Note_on_c, 0, 41, 67
4, 43920, Note_on_c, 0, 53, 67
4, 44160, Note_on_c, 0, 53, 0
4, 44160, Note_on_c, 0, 41, 0
4, 44160, Note_on_c, 0, 39, 67
4, 44160, Note_on_c, 0, 51, 67
4, 44400, Note_on_c, 0, 51, 0
4, 44400, Note_on_c, 0, 39, 0
4, 44400, Note_on_c, 0, 51, 67
4, 44400, Note_on_c, 0, 63, 67
4, 44640, Note_on_c, 0, 63, 0
4, 44640, Note_on_c, 0, 51, 0
4, 44640, Note_on_c, 0, 50, 67
4, 44640, Note_on_c, 0, 62, 67
4, 44880, Note_on_c, 0, 62, 0
4, 44880, Note_on_c, 0, 50, 0
4, 44880, Note_on_c, 0, 48, 67
4, 44880, Note_on_c, 0, 60, 67
4, 45120, Note_on_c, 0, 60, 0
4, 45120, Note_on_c, 0, 48, 0
4, 45120, Note_on_c, 0, 47, 67
4, 45120, Note_on_c, 0, 59, 67
4, 45360, Note_on_c, 0, 59, 0
4, 45360, Note_on_c, 0, 47, 0
4, 45360, Note_on_c, 0, 45, 67
4, 45360, Note_on_c, 0, 57, 67
4, 45600, Note_on_c, 0, 57, 0
4, 45600, Note_on_c, 0, 45, 0
4, 45600, Note_on_c, 0, 43, 67
4, 45600, Note_on_c, 0, 55, 67
4, 45840, Note_on_c, 0, 55, 0
4, 45840, Note_on_c, 0, 43, 0
4, 45840, Note_on_c, 0, 41, 67
4, 45840, Note_on_c, 0, 53, 67
4, 46080, Note_on_c, 0, 53, 0
4, 46080, Note_on_c, 0, 41, 0
4, 46080, Note_on_c, 0, 39, 67
4, 46080, Note_on_c, 0, 51, 67
4, 46320, Note_on_c, 0, 51, 0
4, 46320, Note_on_c, 0, 39, 0
4, 46320, Note_on_c, 0, 51, 67
4, 46320, Note_on_c, 0, 63, 67
4, 46560, Note_on_c, 0, 63, 0
4, 46560, Note_on_c, 0, 51, 0
4, 46560, Note_on_c, 0, 50, 67
4, 46560, Note_on_c, 0, 62, 67
4, 46800, Note_on_c, 0, 62, 0
4, 46800, Note_on_c, 0, 50, 0
4, 46800, Note_on_c, 0, 48, 67
4, 46800, Note_on_c, 0, 60, 67
4, 47040, Note_on_c, 0, 60, 0
4, 47040, Note_on_c, 0, 48, 0
4, 47040, Note_on_c, 0, 46, 67
4, 47040, Note_on_c, 0, 58, 67
4, 47280, Note_on_c, 0, 58, 0
4, 47280, Note_on_c, 0, 46, 0
4, 47280, Note_on_c, 0, 48, 67
4, 47280, Note_on_c, 0, 60, 67
4, 47520, Note_on_c, 0, 60, 0
4, 47520, Note_on_c, 0, 48, 0
4, 47520, Note_on_c, 0, 46, 67
4, 47520, Note_on_c, 0, 58, 67
4, 47760, Note_on_c, 0, 58, 0
4, 47760, Note_on_c, 0, 46, 0
4, 47760, Note_on_c, 0, 45, 67
4, 47760, Note_on_c, 0, 57, 67
4, 48000, Note_on_c, 0, 57, 0
4, 48000, Note_on_c, 0, 45, 0
4, 48000, Note_on_c, 0, 43, 67
4, 48000, Note_on_c, 0, 55, 67
4, 48240, Note_on_c, 0, 55, 0
4, 48240, Note_on_c, 0, 43, 0
4, 48240, Note_on_c, 0, 51, 67
4, 48240, Note_on_c, 0, 63, 67
4, 48480, Note_on_c, 0, 63, 0
4, 48480, Note_on_c, 0, 51, 0
4, 48480, Note_on_c, 0, 50, 67
4, 48480, Note_on_c, 0, 62, 67
4, 48720, Note_on_c, 0, 62, 0
4, 48720, Note_on_c, 0, 50, 0
4, 48720, Note_on_c, 0, 48, 67
4, 48720, Note_on_c, 0, 60, 67
4, 48960, Note_on_c, 0, 60, 0
4, 48960, Note_on_c, 0, 48, 0
4, 48960, Note_on_c, 0, 47, 67
4, 48960, Note_on_c, 0, 59, 67
4, 49200, Note_on_c, 0, 59, 0
4, 49200, Note_on_c, 0, 47, 0
4, 49200, Note_on_c, 0, 45, 67
4, 49200, Note_on_c, 0, 57, 67
4, 49440, Note_on_c, 0, 57, 0
4, 49440, Note_on_c, 0, 45, 0
4, 49440, Note_on_c, 0, 43, 67
4, 49440, Note_on_c, 0, 55, 67
4, 49680, Note_on_c, 0, 55, 0
4, 49680, Note_on_c, 0, 43, 0
4, 49680, Note_on_c, 0, 41, 67
4, 49680, Note_on_c, 0, 53, 67
4, 49920, Note_on_c, 0, 53, 0
4, 49920, Note_on_c, 0, 41, 0
4, 49920, Note_on_c, 0, 39, 67
4, 49920, Note_on_c, 0, 51, 67
4, 50160, Note_on_c, 0, 51, 0
4, 50160, Note_on_c, 0, 39, 0
4, 50160, Note_on_c, 0, 51, 67
4, 50160, Note_on_c, 0, 63, 67
4, 50400, Note_on_c, 0, 63, 0
4, 50400, Note_on_c, 0, 51, 0
4, 50400, Note_on_c, 0, 50, 67
4, 50400, Note_on_c, 0, 62, 67
4, 50640, Note_on_c, 0, 62, 0
4, 50640, Note_on_c, 0, 50, 0
4, 50640, Note_on_c, 0, 48, 67
4, 50640, Note_on_c, 0, 60, 67
4, 50880, Note_on_c, 0, 60, 0
4, 50880, Note_on_c, 0, 48, 0
4, 50880, Note_on_c, 0, 47, 67
4, 50880, Note_on_c, 0, 59, 67
4, 51120, Note_on_c, 0, 59, 0
4, 51120, Note_on_c, 0, 47, 0
4, 51120, Note_on_c, 0, 45, 67
4, 51120, Note_on_c, 0, 57, 67
4, 51360, Note_on_c, 0, 57, 0
4, 51360, Note_on_c, 0, 45, 0
4, 51360, Note_on_c, 0, 43, 67
4, 51360, Note_on_c, 0, 55, 67
4, 51600, Note_on_c, 0, 55, 0
4, 51600, Note_on_c, 0, 43, 0
4, 51600, Note_on_c, 0, 41, 67
4, 51600, Note_on_c, 0, 53, 67
4, 51840, Note_on_c, 0, 53, 0
4, 51840, Note_on_c, 0, 41, 0
4, 51840, Note_on_c, 0, 39, 67
4, 51840, Note_on_c, 0, 51, 67
4, 52080, Note_on_c, 0, 51, 0
4, 52080, Note_on_c, 0, 39, 0
4, 52080, Note_on_c, 0, 51, 67
4, 52080, Note_on_c, 0, 63, 67
4, 52320, Note_on_c, 0, 63, 0
4, 52320, Note_on_c, 0, 51, 0
4, 52320, Note_on_c, 0, 50, 67
4, 52320, Note_on_c, 0, 62, 67
4, 52560, Note_on_c, 0, 62, 0
4, 52560, Note_on_c, 0, 50, 0
4, 52560, Note_on_c, 0, 48, 67
4, 52560, Note_on_c, 0, 60, 67
4, 52800, Note_on_c, 0, 60, 0
4, 52800, Note_on_c, 0, 48, 0
4, 52800, Note_on_c, 0, 47, 67
4, 52800, Note_on_c, 0, 59, 67
4, 53040, Note_on_c, 0, 59, 0
4, 53040, Note_on_c, 0, 47, 0
4, 53040, Note_on_c, 0, 45, 67
4, 53040, Note_on_c, 0, 57, 67
4, 53280, Note_on_c, 0, 57, 0
4, 53280, Note_on_c, 0, 45, 0
4, 53280, Note_on_c, 0, 43, 67
4, 53280, Note_on_c, 0, 55, 67
4, 53520, Note_on_c, 0, 55, 0
4, 53520, Note_on_c, 0, 43, 0
4, 53520, Note_on_c, 0, 41, 67
4, 53520, Note_on_c, 0, 53, 67
4, 53760, Note_on_c, 0, 53, 0
4, 53760, Note_on_c, 0, 41, 0
4, 53760, Note_on_c, 0, 39, 67
4, 53760, Note_on_c, 0, 51, 67
4, 54000, Note_on_c, 0, 51, 0
4, 54000, Note_on_c, 0, 39, 0
4, 54000, Note_on_c, 0, 43, 67
4, 54000, Note_on_c, 0, 55, 67
4, 54240, Note_on_c, 0, 55, 0
4, 54240, Note_on_c, 0, 43, 0
4, 54240, Note_on_c, 0, 41, 67
4, 54240, Note_on_c, 0, 53, 67
4, 54480, Note_on_c, 0, 53, 0
4, 54480, Note_on_c, 0, 41, 0
4, 54480, Note_on_c, 0, 39, 67
4, 54480, Note_on_c, 0, 51, 67
4, 54720, Note_on_c, 0, 51, 0
4, 54720, Note_on_c, 0, 39, 0
4, 54720, Note_on_c, 0, 38, 67
4, 54720, Note_on_c, 0, 50, 67
4, 54960, Note_on_c, 0, 50, 0
4, 54960, Note_on_c, 0, 38, 0
4, 54960, Note_on_c, 0, 39, 67
4, 54960, Note_on_c, 0, 51, 67
4, 55200, Note_on_c, 0, 51, 0
4, 55200, Note_on_c, 0, 39, 0
4, 55200, Note_on_c, 0, 38, 67
4, 55200, Note_on_c, 0, 50, 67
4, 55440, Note_on_c, 0, 50, 0
4, 55440, Note_on_c, 0, 38, 0
4, 55440, Note_on_c, 0, 36, 67
4, 55440, Note_on_c, 0, 48, 67
4, 55680, Note_on_c, 0, 48, 0
4, 55680, Note_on_c, 0, 36, 0
4, 55680, Control_c, 0, 64, 127
4, 55680, Note_on_c, 0, 46, 80
4, 55920, Note_on_c, 0, 46, 0
4, 55920, Note_on_c, 0, 48, 80
4, 56160, Note_on_c, 0, 48, 0
4, 56160, Note_on_c, 0, 49, 80
4, 56400, Note_on_c, 0, 49, 0
4, 56400, Control_c, 0, 64, 0
4, 56400, Note_on_c, 0, 50, 80
4, 56640, Note_on_c, 0, 50, 0
4, 56640, Control_c, 0, 64, 127
4, 56640, Note_on_c, 0, 51, 80
4, 56880, Note_on_c, 0, 51, 0
4, 56880, Note_on_c, 0, 53, 80
4, 57120, Note_on_c, 0, 53, 0
4, 57120, Note_on_c, 0, 55, 80
4, 57360, Note_on_c, 0, 55, 0
4, 57360, Control_c, 0, 64, 0
4, 57360, Note_on_c, 0, 56, 80
4, 57600, Note_on_c, 0, 56, 0
4, 57600, Control_c, 0, 64, 127
4, 57600, Note_on_c, 0, 51, 80
4, 57840, Note_on_c, 0, 51, 0
4, 57840, Note_on_c, 0, 53, 80
4, 58080, Note_on_c, 0, 53, 0
4, 58080, Note_on_c, 0, 54, 80
4, 58320, Note_on_c, 0, 54, 0
4, 58320, Control_c, 0, 64, 0
4, 58320, Note_on_c, 0, 55, 80
4, 58560, Note_on_c, 0, 55, 0
4, 58560, Control_c, 0, 64, 127
4, 58560, Note_on_c, 0, 56, 80
4, 58800, Note_on_c, 0, 56, 0
4, 58800, Note_on_c, 0, 58, 80
4, 59040, Note_on_c, 0, 58, 0
4, 59040, Note_on_c, 0, 60, 80
4, 59280, Note_on_c, 0, 60, 0
4, 59280, Control_c, 0, 64, 0
4, 59280, Note_on_c, 0, 61, 80
4, 59520, Note_on_c, 0, 61, 0
4, 59520, Control_c, 0, 64, 127
4, 59520, Note_on_c, 0, 48, 80
4, 59760, Note_on_c, 0, 48, 0
4, 59760, Note_on_c, 0, 50, 80
4, 60000, Note_on_c, 0, 50, 0
4, 60000, Note_on_c, 0, 51, 80
4, 60240, Note_on_c, 0, 51, 0
4, 60240, Control_c, 0, 64, 0
4, 60240, Note_on_c, 0, 52, 80
4, 60480, Note_on_c, 0, 52, 0
4, 60480, Control_c, 0, 64, 127
4, 60480, Note_on_c, 0, 53, 80
4, 60720, Note_on_c, 0, 53, 0
4, 60720, Note_on_c, 0, 55, 80
4, 60960, Note_on_c, 0, 55, 0
4, 60960, Note_on_c, 0, 56, 80
4, 61200, Note_on_c, 0, 56, 0
4, 61200, Control_c, 0, 64, 0
4, 61200, Note_on_c, 0, 58, 80
4, 61440, Note_on_c, 0, 58, 0
4, 61440, Control_c, 0, 64, 127
4, 61440, Note_on_c, 0, 53, 80
4, 61680, Note_on_c, 0, 53, 0
4, 61680, Note_on_c, 0, 55, 80
4, 61920, Note_on_c, 0, 55, 0
4, 61920, Note_on_c, 0, 56, 80
4, 62160, Note_on_c, 0, 56, 0
4, 62160, Control_c, 0, 64, 0
4, 62160, Note_on_c, 0, 57, 80
4, 62400, Note_on_c, 0, 57, 0
4, 62400, Control_c, 0, 64, 127
4, 62400, Note_on_c, 0, 58, 80
4, 62640, Note_on_c, 0, 58, 0
4, 62640, Note_on_c, 0, 60, 80
4, 62880, Note_on_c, 0, 60, 0
4, 62880, Note_on_c, 0, 61, 80
4, 63120, Note_on_c, 0, 61, 0
4, 63120, Control_c, 0, 64, 0
4, 63120, Note_on_c, 0, 62, 80
4, 63360, Note_on_c, 0, 62, 0
4, 63360, Note_on_c, 0, 60, 28
4, 63600, Note_on_c, 0, 60, 0
4, 63600, Note_on_c, 0, 58, 28
4, 63840, Note_on_c, 0, 58, 0
4, 63840, Note_on_c, 0, 56, 28
4, 64320, Note_on_c, 0, 56, 0
4, 64320, Note_on_c, 0, 62, 28
4, 64560, Note_on_c, 0, 62, 0
4, 64560, Note_on_c, 0, 60, 28
4, 64800, Note_on_c, 0, 60, 0
4, 64800, Note_on_c, 0, 58, 28
4, 65280, Note_on_c, 0, 58, 0
4, 65280, Note_on_c, 0, 63, 28
4, 65520, Note_on_c, 0, 63, 0
4, 65520, Note_on_c, 0, 61, 28
4, 65760, Note_on_c, 0, 61, 0
4, 65760, Note_on_c, 0, 60, 28
4, 66240, Note_on_c, 0, 60, 0
4, 66240, Note_on_c, 0, 65, 28
4, 66480, Note_on_c, 0, 65, 0
4, 66480, Note_on_c, 0, 63, 28
4, 66720, Note_on_c, 0, 63, 0
4, 66720, Note_on_c, 0, 62, 28
4, 67200, Note_on_c, 0, 62, 0
4, 67200, Note_on_c, 0, 58, 54
4, 67200, Note_on_c, 0, 61, 54
4, 67200, Note_on_c, 0, 63, 54
4, 67680, Note_on_c, 0, 63, 0
4, 67680, Note_on_c, 0, 61, 0
4, 67680, Note_on_c, 0, 58, 0
4, 67680, Note_on_c, 0, 56, 54
4, 67680, Note_on_c, 0, 60, 54
4, 67680, Note_on_c, 0, 63, 54
4, 68160, Note_on_c, 0, 63, 0
4, 68160, Note_on_c, 0, 60, 0
4, 68160, Note_on_c, 0, 56, 0
4, 68160, Note_on_c, 0, 55, 54
4, 68160, Note_on_c, 0, 58, 54
4, 68160, Note_on_c, 0, 63, 54
4, 68640, Note_on_c, 0, 63, 0
4, 68640, Note_on_c, 0, 58, 0
4, 68640, Note_on_c, 0, 55, 0
4, 68640, Note_on_c, 0, 54, 54
4, 68640, Note_on_c, 0, 57, 54
4, 68640, Note_on_c, 0, 63, 54
4, 69120, Note_on_c, 0, 63, 0
4, 69120, Note_on_c, 0, 57, 0
4, 69120, Note_on_c, 0, 54, 0
4, 69120, Note_on_c, 0, 46, 67
4, 69120, Note_on_c, 0, 53, 67
4, 69120, Note_on_c, 0, 56, 67
4, 69120, Note_on_c, 0, 58, 67
4, 69360, Note_on_c, 0, 58, 0
4, 69360, Note_on_c, 0, 46, 0
4, 69360, Note_on_c, 0, 53, 0
4, 69360, Note_on_c, 0, 56, 0
4, 70800, Note_on_c, 0, 32, 67
4, 70800, Note_on_c, 0, 44, 67
4, 71040, Note_on_c, 0, 44, 0
4, 71040, Note_on_c, 0, 32, 0
4, 71280, Note_on_c, 0, 46, 67
4, 71280, Note_on_c, 0, 58, 67
4, 71400, Note_on_c, 0, 58, 0
4, 71400, Note_on_c, 0, 46, 0
4, 71400, Note_on_c, 0, 46, 67
4, 71400, Note_on_c, 0, 58, 67
4, 71520, Note_on_c, 0, 58, 0
4, 71520, Note_on_c, 0, 46, 0
4, 71520, Note_on_c, 0, 46, 67
4, 71520, Note_on_c, 0, 58, 67
4, 71760, Note_on_c, 0, 58, 0
4, 71760, Note_on_c, 0, 46, 0
4, 72240, Note_on_c, 0, 46, 80
4, 72480, Note_on_c, 0, 46, 0
4, 72480, Note_on_c, 0, 43, 80
4, 72720, Note_on_c, 0, 43, 0
4, 72720, Note_on_c, 0, 46, 80
4, 72960, Note_on_c, 0, 46, 0
4, 72960, Note_on_c, 0, 51, 80
4, 73200, Note_on_c, 0, 51, 0
4, 73200, Note_on_c, 0, 55, 80
4, 73440, Note_on_c, 0, 55, 0
4, 73440, Note_on_c, 0, 58, 80
4, 73680, Note_on_c, 0, 58, 0
4, 73680, Note_on_c, 0, 31, 67
4, 73680, Note_on_c, 0, 43, 67
4, 73920, Note_on_c, 0, 43, 0
4, 73920, Note_on_c, 0, 31, 0
4, 73920, Note_on_c, 0, 32, 67
4, 73920, Note_on_c, 0, 44, 67
4, 74160, Note_on_c, 0, 44, 0
4, 74160, Note_on_c, 0, 32, 0
4, 74160, Note_on_c, 0, 44, 93
4, 74160, Note_on_c, 0, 56, 93
4, 74640, Note_on_c, 0, 56, 0
4, 74640, Note_on_c, 0, 44, 0
4, 74640, Note_on_c, 0, 32, 67
4, 74640, Note_on_c, 0, 44, 67
4, 74880, Note_on_c, 0, 44, 0
4, 74880, Note_on_c, 0, 32, 0
4, 75120, Note_on_c, 0, 46, 67
4, 75120, Note_on_c, 0, 58, 67
4, 75240, Note_on_c, 0, 58, 0
4, 75240, Note_on_c, 0, 46, 0
4, 75240, Note_on_c, 0, 46, 67
4, 75240, Note_on_c, 0, 58, 67
4, 75360, Note_on_c, 0, 58, 0
4, 75360, Note_on_c, 0, 46, 0
4, 75360, Note_on_c, 0, 46, 67
4, 75360, Note_on_c, 0, 58, 67
4, 75600, Note_on_c, 0, 58, 0
4, 75600, Note_on_c, 0, 46, 0
4, 76080, Note_on_c, 0, 46, 80
4, 76320, Note_on_c, 0, 46, 0
4, 76320, Note_on_c, 0, 43, 80
4, 76560, Note_on_c, 0, 43, 0
4, 76560, Note_on_c, 0, 46, 80
4, 76800, Note_on_c, 0, 46, 0
4, 76800, Note_on_c, 0, 51, 80
4, 77040, Note_on_c, 0, 51, 0
4, 77040, Note_on_c, 0, 55, 80
4, 77280, Note_on_c, 0, 55, 0
4, 77280, Note_on_c, 0, 58, 80
4, 77520, Note_on_c, 0, 58, 0
4, 77520, Note_on_c, 0, 31, 67
4, 77520, Note_on_c, 0, 43, 67
4, 77760, Note_on_c, 0, 43, 0
4, 77760, Note_on_c, 0, 31, 0
4, 77760, Note_on_c, 0, 32, 67
4, 77760, Note_on_c, 0, 44, 67
4, 78000, Note_on_c, 0, 44, 0
4, 78000, Note_on_c, 0, 32, 0
4, 78000, Note_on_c, 0, 44, 93
4, 78000, Note_on_c, 0, 56, 93
4, 78480, Note_on_c, 0, 56, 0
4, 78480, Note_on_c, 0, 44, 0
4, 78480, Note_on_c, 0, 32, 67
4, 78480, Note_on_c, 0, 44, 67
4, 78720, Note_on_c, 0, 44, 0
4, 78720, Note_on_c, 0, 32, 0
4, 78720, Note_on_c, 0, 43, 67
4, 78720, Note_on_c, 0, 46, 67
4, 78720, Note_on_c, 0, 52, 67
4, 78960, Note_on_c, 0, 52, 0
4, 78960, Note_on_c, 0, 46, 0
4, 78960, Note_on_c, 0, 43, 0
4, 78960, Note_on_c, 0, 55, 67
4, 78960, Note_on_c, 0, 58, 67
4, 78960, Note_on_c, 0, 64, 67
4, 79200, Note_on_c, 0, 64, 0
4, 79200, Note_on_c, 0, 58, 0
4, 79200, Note_on_c, 0, 55, 0
4, 79440, Note_on_c, 0, 53, 67
4, 79440, Note_on_c, 0, 58, 67
4, 79440, Note_on_c, 0, 65, 67
4, 79680, Note_on_c, 0, 65, 0
4, 79680, Note_on_c, 0, 58, 0
4, 79680, Note_on_c, 0, 53, 0
4, 79680, Note_on_c, 0, 52, 67
4, 79680, Note_on_c, 0, 58, 67
4, 79680, Note_on_c, 0, 60, 67
4, 79920, Note_on_c, 0, 60, 0
4, 79920, Note_on_c, 0, 58, 0
4, 79920, Note_on_c, 0, 52, 0
4, 79920, Note_on_c, 0, 52, 67
4, 79920, Note_on_c, 0, 58, 67
4, 79920, Note_on_c, 0, 60, 67
4, 80160, Note_on_c, 0, 60, 0
4, 80160, Note_on_c, 0, 58, 0
4, 80160, Note_on_c, 0, 52, 0
4, 80400, Note_on_c, 0, 53, 67
4, 80400, Note_on_c, 0, 56, 67
4, 80400, Note_on_c, 0, 60, 67
4, 80640, Note_on_c, 0, 60, 0
4, 80640, Note_on_c, 0, 56, 0
4, 80640, Note_on_c, 0, 53, 0
4, 80640, Note_on_c, 0, 56, 67
4, 80640, Note_on_c, 0, 60, 67
4, 80640, Note_on_c, 0, 65, 67
4, 80880, Note_on_c, 0, 65, 0
4, 80880, Note_on_c, 0, 60, 0
4, 80880, Note_on_c, 0, 56, 0
4, 80880, Note_on_c, 0, 56, 67
4, 80880, Note_on_c, 0, 60, 67
4, 80880, Note_on_c, 0, 66, 67
4, 81120, Note_on_c, 0, 66, 0
4, 81120, Note_on_c, 0, 60, 0
4, 81120, Note_on_c, 0, 56, 0
4, 81360, Note_on_c, 0, 55, 67
4, 81360, Note_on_c, 0, 60, 67
4, 81360, Note_on_c, 0, 67, 67
4, 81600, Note_on_c, 0, 67, 0
4, 81600, Note_on_c, 0, 60, 0
4, 81600, Note_on_c, 0, 55, 0
4, 81600, Note_on_c, 0, 54, 67
4, 81600, Note_on_c, 0, 60, 67
4, 81600, Note_on_c, 0, 62, 67
4, 81840, Note_on_c, 0, 62, 0
4, 81840, Note_on_c, 0, 60, 0
4, 81840, Note_on_c, 0, 54, 0
4, 81840, Note_on_c, 0, 54, 67
4, 81840, Note_on_c, 0, 60, 67
4, 81840, Note_on_c, 0, 62, 67
4, 82080, Note_on_c, 0, 62, 0
4, 82080, Note_on_c, 0, 60, 0
4, 82080, Note_on_c, 0, 54, 0
4, 82320, Note_on_c, 0, 55, 67
4, 82320, Note_on_c, 0, 58, 67
4, 82320, Note_on_c, 0, 62, 67
4, 82560, Note_on_c, 0, 62, 0
4, 82560, Note_on_c, 0, 58, 0
4, 82560, Note_on_c, 0, 55, 0
4, 82800, Note_on_c, 0, 46, 67
4, 82800, Note_on_c, 0, 55, 67
4, 82800, Note_on_c, 0, 62, 67
4, 83280, Note_on_c, 0, 62, 0
4, 83280, Note_on_c, 0, 55, 0
4, 83280, Note_on_c, 0, 46, 0
4, 83280, Note_on_c, 0, 47, 67
4, 83280, Note_on_c, 0, 55, 67
4, 83280, Note_on_c, 0, 62, 67
4, 83760, Note_on_c, 0, 62, 0
4, 83760, Note_on_c, 0, 55, 0
4, 83760, Note_on_c, 0, 47, 0
4, 83760, Note_on_c, 0, 48, 67
4, 83760, Note_on_c, 0, 55, 67
4, 83760, Note_on_c, 0, 60, 67
4, 84000, Note_on_c, 0, 60, 0
4, 84000, Note_on_c, 0, 55, 0
4, 84000, Note_on_c, 0, 48, 0
4, 84240, Note_on_c, 0, 51, 67
4, 84240, Note_on_c, 0, 55, 67
4, 84240, Note_on_c, 0, 63, 67
4, 84480, Note_on_c, 0, 63, 0
4, 84480, Note_on_c, 0, 55, 0
4, 84480, Note_on_c, 0, 51, 0
4, 84720, Note_on_c, 0, 53, 67
4, 84720, Note_on_c, 0, 56, 67
4, 84720, Note_on_c, 0, 65, 67
4, 84960, Note_on_c, 0, 65, 0
4, 84960, Note_on_c, 0, 56, 0
4, 84960, Note_on_c, 0, 53, 0
4, 85200, Note_on_c, 0, 53, 67
4, 85200, Note_on_c, 0, 56, 67
4, 85200, Note_on_c, 0, 60, 67
4, 85440, Note_on_c, 0, 60, 0
4, 85440, Note_on_c, 0, 56, 0
4, 85440, Note_on_c, 0, 53, 0
4, 85440, Note_on_c, 0, 48, 67
4, 85440, Note_on_c, 0, 53, 67
4, 85440, Note_on_c, 0, 56, 67
4, 85440, Note_on_c, 0, 60, 67
4, 85680, Note_on_c, 0, 60, 0
4, 85680, Note_on_c, 0, 48, 0
4, 85680, Note_on_c, 0, 53, 0
4, 85680, Note_on_c, 0, 56, 0
4, 85680, Note_on_c, 0, 46, 67
4, 85680, Note_on_c, 0, 50, 67
4, 85680, Note_on_c, 0, 56, 67
4, 85680, Note_on_c, 0, 58, 67
4, 85920, Note_on_c, 0, 58, 0
4, 85920, Note_on_c, 0, 46, 0
4, 85920, Note_on_c, 0, 50, 0
4, 85920, Note_on_c, 0, 56, 0
4, 86640, Note_on_c, 0, 46, 67
4, 86640, Note_on_c, 0, 58, 67
4, 86760, Note_on_c, 0, 58, 0
4, 86760, Note_on_c, 0, 46, 0
4, 86760, Note_on_c, 0, 46, 67
4, 86760, Note_on_c, 0, 58, 67
4, 86880, Note_on_c, 0, 58, 0
4, 86880, Note_on_c, 0, 46, 0
4, 86880, Note_on_c, 0, 46, 67
4, 86880, Note_on_c, 0, 58, 67
4, 87120, Note_on_c, 0, 58, 0
4, 87120, Note_on_c, 0, 46, 0
4, 87600, Note_on_c, 0, 46, 80
4, 87840, Note_on_c, 0, 46, 0
4, 87840, Note_on_c, 0, 43, 80
4, 88080, Note_on_c, 0, 43, 0
4, 88080, Note_on_c, 0, 46, 80
4, 88320, Note_on_c, 0, 46, 0
4, 88320, Note_on_c, 0, 51, 80
4, 88560, Note_on_c, 0, 51, 0
4, 88560, Note_on_c, 0, 55, 80
4, 88800, Note_on_c, 0, 55, 0
4, 88800, Note_on_c, 0, 58, 80
4, 89040, Note_on_c, 0, 58, 0
4, 89040, Note_on_c, 0, 31, 67
4, 89040, Note_on_c, 0, 43, 67
4, 89280, Note_on_c, 0, 43, 0
4, 89280, Note_on_c, 0, 31, 0
4, 89280, Note_on_c, 0, 32, 67
4, 89280, Note_on_c, 0, 44, 67
4, 89520, Note_on_c, 0, 44, 0
4, 89520, Note_on_c, 0, 32, 0
4, 89520, Note_on_c, 0, 44, 93
4, 89520, Note_on_c, 0, 56, 93
4, 90000, Note_on_c, 0, 56, 0
4, 90000, Note_on_c, 0, 44, 0
4, 90000, Note_on_c, 0, 32, 67
4, 90000, Note_on_c, 0, 44, 67
4, 90240, Note_on_c, 0, 44, 0
4, 90240, Note_on_c, 0, 32, 0
4, 90480, Note_on_c, 0, 46, 67
4, 90480, Note_on_c, 0, 58, 67
4, 90600, Note_on_c, 0, 58, 0
4, 90600, Note_on_c, 0, 46, 0
4, 90600, Note_on_c, 0, 46, 67
4, 90600, Note_on_c, 0, 58, 67
4, 90720, Note_on_c, 0, 58, 0
4, 90720, Note_on_c, 0, 46, 0
4, 90720, Note_on_c, 0, 46, 67
4, 90720, Note_on_c, 0, 58, 67
4, 90960, Note_on_c, 0, 58, 0
4, 90960, Note_on_c, 0, 46, 0
4, 91440, Note_on_c, 0, 46, 80
4, 91680, Note_on_c, 0, 46, 0
4, 91680, Note_on_c, 0, 43, 80
4, 91920, Note_on_c, 0, 43, 0
4, 91920, Note_on_c, 0, 46, 80
4, 92160, Note_on_c, 0, 46, 0
4, 92160, Note_on_c, 0, 51, 80
4, 92400, Note_on_c, 0, 51, 0
4, 92400, Note_on_c, 0, 55, 80
4, 92640, Note_on_c, 0, 55, 0
4, 92640, Note_on_c, 0, 58, 80
4, 92880, Note_on_c, 0, 58, 0
4, 92880, Note_on_c, 0, 31, 67
4, 92880, Note_on_c, 0, 43, 67
4, 93120, Note_on_c, 0, 43, 0
4, 93120, Note_on_c, 0, 31, 0
4, 93120, Note_on_c, 0, 32, 67
4, 93120, Note_on_c, 0, 44, 67
4, 93360, Note_on_c, 0, 44, 0
4, 93360, Note_on_c, 0, 32, 0
4, 93360, Note_on_c, 0, 44, 93
4, 93360, Note_on_c, 0, 56, 93
4, 93840, Note_on_c, 0, 56, 0
4, 93840, Note_on_c, 0, 44, 0
4, 93840, Note_on_c, 0, 32, 67
4, 93840, Note_on_c, 0, 44, 67
4, 94080, Note_on_c, 0, 44, 0
4, 94080, Note_on_c, 0, 32, 0
4, 94080, Note_on_c, 0, 43, 67
4, 94080, Note_on_c, 0, 46, 67
4, 94080, Note_on_c, 0, 52, 67
4, 94320, Note_on_c, 0, 52, 0
4, 94320, Note_on_c, 0, 46, 0
4, 94320, Note_on_c, 0, 43, 0
4, 94320, Note_on_c, 0, 55, 67
4, 94320, Note_on_c, 0, 58, 67
4, 94320, Note_on_c, 0, 64, 67
4, 94560, Note_on_c, 0, 64, 0
4, 94560, Note_on_c, 0, 58, 0
4, 94560, Note_on_c, 0, 55, 0
4, 94800, Note_on_c, 0, 53, 67
4, 94800, Note_on_c, 0, 58, 67
4, 94800, Note_on_c, 0, 65, 67
4, 95040, Note_on_c, 0, 65, 0
4, 95040, Note_on_c, 0, 58, 0
4, 95040, Note_on_c, 0, 53, 0
4, 95040, Note_on_c, 0, 52, 67
4, 95040, Note_on_c, 0, 58, 67
4, 95040, Note_on_c, 0, 60, 67
4, 95280, Note_on_c, 0, 60, 0
4, 95280, Note_on_c, 0, 58, 0
4, 95280, Note_on_c, 0, 52, 0
4, 95280, Note_on_c, 0, 52, 67
4, 95280, Note_on_c, 0, 58, 67
4, 95280, Note_on_c, 0, 60, 67
4, 95520, Note_on_c, 0, 60, 0
4, 95520, Note_on_c, 0, 58, 0
4, 95520, Note_on_c, 0, 52, 0
4, 95760, Note_on_c, 0, 53, 67
4, 95760, Note_on_c, 0, 56, 67
4, 95760, Note_on_c, 0, 60, 67
4, 96000, Note_on_c, 0, 60, 0
4, 96000, Note_on_c, 0, 56, 0
4, 96000, Note_on_c, 0, 53, 0
4, 96000, Note_on_c, 0, 56, 67
4, 96000, Note_on_c, 0, 60, 67
4, 96000, Note_on_c, 0, 65, 67
4, 96240, Note_on_c, 0, 65, 0
4, 96240, Note_on_c, 0, 60, 0
4, 96240, Note_on_c, 0, 56, 0
4, 96240, Note_on_c, 0, 56, 67
4, 96240, Note_on_c, 0, 60, 67
4, 96240, Note_on_c, 0, 66, 67
4, 96480, Note_on_c, 0, 66, 0
4, 96480, Note_on_c, 0, 60, 0
4, 96480, Note_on_c, 0, 56, 0
4, 96720, Note_on_c, 0, 55, 67
4, 96720, Note_on_c, 0, 60, 67
4, 96720, Note_on_c, 0, 67, 67
4, 96960, Note_on_c, 0, 67, 0
4, 96960, Note_on_c, 0, 60, 0
4, 96960, Note_on_c, 0, 55, 0
4, 96960, Note_on_c, 0, 54, 67
4, 96960, Note_on_c, 0, 60, 67
4, 96960, Note_on_c, 0, 62, 67
4, 97200, Note_on_c, 0, 62, 0
4, 97200, Note_on_c, 0, 60, 0
4, 97200, Note_on_c, 0, 54, 0
4, 97200, Note_on_c, 0, 54, 67
4, 97200, Note_on_c, 0, 60, 67
4, 97200, Note_on_c, 0, 62, 67
4, 97440, Note_on_c, 0, 62, 0
4, 97440, Note_on_c, 0, 60, 0
4, 97440, Note_on_c, 0, 54, 0
4, 97680, Note_on_c, 0, 55, 67
4, 97680, Note_on_c, 0, 58, 67
4, 97680, Note_on_c, 0, 62, 67
4, 97920, Note_on_c, 0, 62, 0
4, 97920, Note_on_c, 0, 58, 0
4, 97920, Note_on_c, 0, 55, 0
4, 97920, Note_on_c, 0, 43, 67
4, 98160, Note_on_c, 0, 43, 0
4, 98160, Note_on_c, 0, 51, 67
4, 98160, Note_on_c, 0, 58, 67
4, 98400, Note_on_c, 0, 58, 0
4, 98400, Note_on_c, 0, 51, 0
4, 98400, Note_on_c, 0, 44, 67
4, 98640, Note_on_c, 0, 44, 0
4, 98640, Note_on_c, 0, 51, 67
4, 98640, Note_on_c, 0, 56, 67
4, 98880, Note_on_c, 0, 56, 0
4, 98880, Note_on_c, 0, 51, 0
4, 98880, Note_on_c, 0, 45, 67
4, 99120, Note_on_c, 0, 45, 0
4, 99120, Note_on_c, 0, 53, 67
4, 99120, Note_on_c, 0, 60, 67
4, 99360, Note_on_c, 0, 60, 0
4, 99360, Note_on_c, 0, 53, 0
4, 99360, Note_on_c, 0, 46, 67
4, 99600, Note_on_c, 0, 46, 0
4, 99600, Note_on_c, 0, 53, 67
4, 99600, Note_on_c, 0, 58, 67
4, 99840, Note_on_c, 0, 58, 0
4, 99840, Note_on_c, 0, 53, 0
4, 99840, Note_on_c, 0, 47, 67
4, 100080, Note_on_c, 0, 47, 0
4, 100080, Note_on_c, 0, 55, 67
4, 100080, Note_on_c, 0, 62, 67
4, 100320, Note_on_c, 0, 62, 0
4, 100320, Note_on_c, 0, 55, 0
4, 100320, Note_on_c, 0, 48, 67
4, 100560, Note_on_c, 0, 48, 0
4, 100560, Note_on_c, 0, 55, 67
4, 100560, Note_on_c, 0, 60, 67
4, 100800, Note_on_c, 0, 60, 0
4, 100800, Note_on_c, 0, 55, 0
4, 101280, Note_on_c, 0, 49, 67
4, 101280, Note_on_c, 0, 55, 67
4, 101280, Note_on_c, 0, 58, 67
4, 101760, Note_on_c, 0, 58, 0
4, 101760, Note_on_c, 0, 55, 0
4, 101760, Note_on_c, 0, 49, 0
4, 101760, Note_on_c, 0, 48, 67
4, 101760, Note_on_c, 0, 56, 67
4, 101760, Note_on_c, 0, 60, 67
4, 102160, Note_on_c, 0, 46, 67
4, 102200, Note_on_c, 0, 55, 67
4, 102240, Note_on_c, 0, 60, 0
4, 102240, Note_on_c, 0, 48, 0
4, 102240, Note_on_c, 0, 56, 0
4, 102240, Note_on_c, 0, 61, 67
4, 102640, Note_on_c, 0, 44, 67
4, 102680, Note_on_c, 0, 56, 67
4, 102720, Note_on_c, 0, 61, 0
4, 102720, Note_on_c, 0, 55, 0
4, 102720, Note_on_c, 0, 46, 0
4, 102720, Note_on_c, 0, 60, 67
4, 103120, Note_on_c, 0, 45, 67
4, 103160, Note_on_c, 0, 54, 67
4, 103200, Note_on_c, 0, 60, 0
4, 103200, Note_on_c, 0, 56, 0
4, 103200, Note_on_c, 0, 44, 0
4, 103200, Note_on_c, 0, 60, 67
4, 103680, Note_on_c, 0, 60, 0
4, 103680, Note_on_c, 0, 45, 0
4, 103680, Note_on_c, 0, 54, 0
4, 103680, Note_on_c, 0, 46, 93
4, 103680, Note_on_c, 0, 55, 93
4, 103680, Note_on_c, 0, 63, 93
4, 104640, Note_on_c, 0, 63, 0
4, 104640, Note_on_c, 0, 55, 0
4, 104640, Note_on_c, 0, 46, 0
4, 107520, Note_on_c, 0, 48, 93
4, 107520, Note_on_c, 0, 51, 93
4, 107520, Note_on_c, 0, 53, 93
4, 107520, Note_on_c, 0, 60, 93
4, 108480, Note_on_c, 0, 60, 0
4, 108480, Note_on_c, 0, 48, 0
4, 108480, Note_on_c, 0, 51, 0
4, 108480, Note_on_c, 0, 53, 0
4, 108480, Note_on_c, 0, 46, 93
4, 108480, Note_on_c, 0, 58, 93
4, 108960, Note_on_c, 0, 58, 0
4, 108960, Note_on_c, 0, 46, 0
4, 108960, Note_on_c, 0, 44, 93
4, 108960, Note_on_c, 0, 56, 93
4, 109440, Note_on_c, 0, 56, 0
4, 109440, Note_on_c, 0, 44, 0
4, 109440, Note_on_c, 0, 43, 93
4, 109440, Note_on_c, 0, 46, 93
4, 109440, Note_on_c, 0, 51, 93
4, 109440, Note_on_c, 0, 55, 93
4, 109920, Note_on_c, 0, 55, 0
4, 109920, Note_on_c, 0, 43, 0
4, 109920, Note_on_c, 0, 46, 0
4, 109920, Note_on_c, 0, 51, 0
4, 109920, Note_on_c, 0, 42, 93
4, 109920, Note_on_c, 0, 46, 93
4, 109920, Note_on_c, 0, 52, 93
4, 109920, Note_on_c, 0, 54, 93
4, 110400, Note_on_c, 0, 54, 0
4, 110400, Note_on_c, 0, 42, 0
4, 110400, Note_on_c, 0, 46, 0
4, 110400, Note_on_c, 0, 52, 0
4, 110400, Note_on_c, 0, 41, 93
4, 110400, Note_on_c, 0, 53, 93
4, 110880, Note_on_c, 0, 53, 0
4, 110880, Note_on_c, 0, 41, 0
4, 110880, Note_on_c, 0, 40, 93
4, 110880, Note_on_c, 0, 52, 93
4, 111360, Note_on_c, 0, 52, 0
4, 111360, Note_on_c, 0, 40, 0
4, 111360, Note_on_c, 0, 39, 67
4, 111360, Note_on_c, 0, 43, 67
4, 111360, Note_on_c, 0, 46, 67
4, 111360, Note_on_c, 0, 51, 67
4, 111600, Note_on_c, 0, 51, 0
4, 111600, Note_on_c, 0, 39, 0
4, 111600, Note_on_c, 0, 43, 0
4, 111600, Note_on_c, 0, 46, 0
4, 111600, Note_on_c, 0, 51, 67
4, 111600, Note_on_c, 0, 55, 67
4, 111600, Note_on_c, 0, 58, 67
4, 111840, Note_on_c, 0, 58, 0
4, 111840, Note_on_c, 0, 55, 0
4, 111840, Note_on_c, 0, 51, 0
4, 112560, Note_on_c, 0, 55, 67
4, 112560, Note_on_c, 0, 58, 67
4, 112800, Note_on_c, 0, 58, 0
4, 112800, Note_on_c, 0, 55, 0
4, 112800, Note_on_c, 0, 54, 67
4, 112800, Note_on_c, 0, 57, 67
4, 112800, Note_on_c, 0, 60, 67
4, 113040, Note_on_c, 0, 60, 0
4, 113040, Note_on_c, 0, 57, 0
4, 113040, Note_on_c, 0, 54, 0
4, 113040, Note_on_c, 0, 53, 67
4, 113040, Note_on_c, 0, 56, 67
4, 113040, Note_on_c, 0, 62, 67
4, 113280, Note_on_c, 0, 62, 0
4, 113280, Note_on_c, 0, 56, 0
4, 113280, Note_on_c, 0, 53, 0
4, 113280, Note_on_c, 0, 51, 67
4, 113280, Note_on_c, 0, 55, 67
4, 113280, Note_on_c, 0, 58, 67
4, 113280, Note_on_c, 0, 63, 67
4, 113520, Note_on_c, 0, 63, 0
4, 113520, Note_on_c, 0, 51, 0
4, 113520, Note_on_c, 0, 55, 0
4, 113520, Note_on_c, 0, 58, 0
4, 113520, Note_on_c, 0, 51, 67
4, 113520, Note_on_c, 0, 55, 67
4, 113520, Note_on_c, 0, 58, 67
4, 113520, Note_on_c, 0, 63, 67
4, 113760, Note_on_c, 0, 63, 0
4, 113760, Note_on_c, 0, 51, 0
4, 113760, Note_on_c, 0, 55, 0
4, 113760, Note_on_c, 0, 58, 0
4, 114480, Note_on_c, 0, 55, 67
4, 114480, Note_on_c, 0, 58, 67
4, 114720, Note_on_c, 0, 58, 0
4, 114720, Note_on_c, 0, 55, 0
4, 114720, Note_on_c, 0, 54, 67
4, 114720, Note_on_c, 0, 57, 67
4, 114720, Note_on_c, 0, 60, 67
4, 114960, Note_on_c, 0, 60, 0
4, 114960, Note_on_c, 0, 57, 0
4, 114960, Note_on_c, 0, 54, 0
4, 114960, Note_on_c, 0, 53, 67
4, 114960, Note_on_c, 0, 56, 67
4, 114960, Note_on_c, 0, 62, 67
4, 115200, Note_on_c, 0, 62, 0
4, 115200, Note_on_c, 0, 56, 0
4, 115200, Note_on_c, 0, 53, 0
4, 115200, Note_on_c, 0, 51, 67
4, 115200, Note_on_c, 0, 55, 67
4, 115200, Note_on_c, 0, 58, 67
4, 115200, Note_on_c, 0, 63, 67
4, 115440, Note_on_c, 0, 63, 0
4, 115440, Note_on_c, 0, 51, 0
4, 115440, Note_on_c, 0, 55, 0
4, 115440, Note_on_c, 0, 58, 0
4, 115440, Note_on_c, 0, 51, 67
4, 115440, Note_on_c, 0, 55, 67
4, 115440, Note_on_c, 0, 58, 67
4, 115680, Note_on_c, 0, 58, 0
4, 115680, Note_on_c, 0, 55, 0
4, 115680, Note_on_c, 0, 51, 0
4, 115920, Note_on_c, 0, 46, 67
4, 115920, Note_on_c, 0, 56, 67
4, 115920, Note_on_c, 0, 58, 67
4, 116160, Note_on_c, 0, 58, 0
4, 116160, Note_on_c, 0, 56, 0
4, 116160, Note_on_c, 0, 46, 0
4, 116160, Note_on_c, 0, 51, 67
4, 116160, Note_on_c, 0, 55, 67
4, 116160, Note_on_c, 0, 58, 67
4, 116400, Note_on_c, 0, 58, 0
4, 116400, Note_on_c, 0, 55, 0
4, 116400, Note_on_c, 0, 51, 0
4, 116400, Note_on_c, 0, 51, 67
4, 116400, Note_on_c, 0, 55, 67
4, 116400, Note_on_c, 0, 58, 67
4, 116640, Note_on_c, 0, 58, 0
4, 116640, Note_on_c, 0, 55, 0
4, 116640, Note_on_c, 0, 51, 0
4, 116880, Note_on_c, 0, 46, 67
4, 116880, Note_on_c, 0, 56, 67
4, 116880, Note_on_c, 0, 58, 67
4, 117120, Note_on_c, 0, 58, 0
4, 117120, Note_on_c, 0, 56, 0
4, 117120, Note_on_c, 0, 46, 0
4, 117120, Note_on_c, 0, 51, 67
4, 117120, Note_on_c, 0, 55, 67
4, 117120, Note_on_c, 0, 58, 67
4, 117360, Note_on_c, 0, 58, 0
4, 117360, Note_on_c, 0, 55, 0
4, 117360, Note_on_c, 0, 51, 0
4, 117360, Note_on_c, 0, 46, 67
4, 117360, Note_on_c, 0, 56, 67
4, 117360, Note_on_c, 0, 58, 67
4, 117600, Note_on_c, 0, 58, 0
4, 117600, Note_on_c, 0, 56, 0
4, 117600, Note_on_c, 0, 46, 0
4, 117600, Note_on_c, 0, 51, 67
4, 117600, Note_on_c, 0, 55, 67
4, 117600, Note_on_c, 0, 58, 67
4, 117840, Note_on_c, 0, 58, 0
4, 117840, Note_on_c, 0, 55, 0
4, 117840, Note_on_c, 0, 51, 0
4, 117840, Note_on_c, 0, 46, 67
4, 117840, Note_on_c, 0, 56, 67
4, 117840, Note_on_c, 0, 58, 67
4, 118080, Note_on_c, 0, 58, 0
4, 118080, Note_on_c, 0, 56, 0
4, 118080, Note_on_c, 0, 46, 0
4, 118080, Note_on_c, 0, 51, 67
4, 118080, Note_on_c, 0, 55, 67
4, 118080, Note_on_c, 0, 58, 67
4, 118320, Note_on_c, 0, 58, 0
4, 118320, Note_on_c, 0, 55, 0
4, 118320, Note_on_c, 0, 51, 0
4, 118320, Note_on_c, 0, 46, 67
4, 118320, Note_on_c, 0, 56, 67
4, 118320, Note_on_c, 0, 58, 67
4, 118560, Note_on_c, 0, 58, 0
4, 118560, Note_on_c, 0, 56, 0
4, 118560, Note_on_c, 0, 46, 0
4, 118560, Note_on_c, 0, 51, 67
4, 118560, Note_on_c, 0, 55, 67
4, 118560, Note_on_c, 0, 58, 67
4, 118800, Note_on_c, 0, 58, 0
4, 118800, Note_on_c, 0, 55, 0
4, 118800, Note_on_c, 0, 51, 0
4, 118800, Note_on_c, 0, 46, 67
4, 118800, Note_on_c, 0, 56, 67
4, 118800, Note_on_c, 0, 58, 67
4, 119040, Note_on_c, 0, 58, 0
4, 119040, Note_on_c, 0, 56, 0
4, 119040, Note_on_c, 0, 46, 0
4, 119040, Note_on_c, 0, 51, 67
4, 119040, Note_on_c, 0, 55, 67
4, 119040, Note_on_c, 0, 58, 67
4, 119280, Note_on_c, 0, 58, 0
4, 119280, Note_on_c, 0, 55, 0
4, 119280, Note_on_c, 0, 51, 0
4, 119280, Note_on_c, 0, 46, 67
4, 119280, Note_on_c, 0, 56, 67
4, 119280, Note_on_c, 0, 58, 67
4, 119520, Note_on_c, 0, 58, 0
4, 119520, Note_on_c, 0, 56, 0
4, 119520, Note_on_c, 0, 46, 0
4, 119520, Note_on_c, 0, 51, 67
4, 119520, Note_on_c, 0, 55, 67
4, 119520, Note_on_c, 0, 58, 67
4, 119760, Note_on_c, 0, 58, 0
4, 119760, Note_on_c, 0, 55, 0
4, 119760, Note_on_c, 0, 51, 0
4, 119760, Note_on_c, 0, 46, 67
4, 119760, Note_on_c, 0, 56, 67
4, 119760, Note_on_c, 0, 58, 67
4, 120000, Note_on_c, 0, 58, 0
4, 120000, Note_on_c, 0, 56, 0
4, 120000, Note_on_c, 0, 46, 0
4, 120000, Note_on_c, 0, 51, 67
4, 120000, Note_on_c, 0, 55, 67
4, 120000, Note_on_c, 0, 58, 67
4, 120240, Note_on_c, 0, 58, 0
4, 120240, Note_on_c, 0, 55, 0
4, 120240, Note_on_c, 0, 51, 0
4, 120240, Note_on_c, 0, 46, 67
4, 120240, Note_on_c, 0, 56, 67
4, 120240, Note_on_c, 0, 58, 67
4, 120480, Note_on_c, 0, 58, 0
4, 120480, Note_on_c, 0, 56, 0
4, 120480, Note_on_c, 0, 46, 0
4, 120480, Note_on_c, 0, 51, 67
4, 120480, Note_on_c, 0, 55, 67
4, 120480, Note_on_c, 0, 58, 67
4, 120720, Note_on_c, 0, 58, 0
4, 120720, Note_on_c, 0, 55, 0
4, 120720, Note_on_c, 0, 51, 0
4, 120720, Note_on_c, 0, 46, 67
4, 120720, Note_on_c, 0, 56, 67
4, 120720, Note_on_c, 0, 58, 67
4, 120960, Note_on_c, 0, 58, 0
4, 120960, Note_on_c, 0, 56, 0
4, 120960, Note_on_c, 0, 46, 0
4, 120960, Note_on_c, 0, 51, 67
4, 120960, Note_on_c, 0, 55, 67
4, 120960, Note_on_c, 0, 58, 67
4, 121200, Note_on_c, 0, 58, 0
4, 121200, Note_on_c, 0, 55, 0
4, 121200, Note_on_c, 0, 51, 0
4, 121200, Note_on_c, 0, 39, 67
4, 121200, Note_on_c, 0, 43, 67
4, 121200, Note_on_c, 0, 46, 67
4, 121200, Note_on_c, 0, 51, 67
4, 121680, Note_on_c, 0, 51, 0
4, 121680, Note_on_c, 0, 39, 0
4, 121680, Note_on_c, 0, 43, 0
4, 121680, Note_on_c, 0, 46, 0
4, 121680, Note_on_c, 0, 39, 67
4, 121680, Note_on_c, 0, 43, 67
4, 121680, Note_on_c, 0, 46, 67
4, 121680, Note_on_c, 0, 51, 67
4, 122160, Note_on_c, 0, 51, 0
4, 122160, Note_on_c, 0, 39, 0
4, 122160, Note_on_c, 0, 43, 0
4, 122160, Note_on_c, 0, 46, 0
4, 122160, Note_on_c, 0, 39, 67
4, 122160, Note_on_c, 0, 43, 67
4, 122160, Note_on_c, 0, 46, 67
4, 122160, Note_on_c, 0, 51, 67
4, 122640, Note_on_c, 0, 51, 0
4, 122640, Note_on_c, 0, 39, 0
4, 122640, Note_on_c, 0, 43, 0
4, 122640, Note_on_c, 0, 46, 0
4, 122640, Note_on_c, 0, 39, 67
4, 122640, Note_on_c, 0, 43, 67
4, 122640, Note_on_c, 0, 46, 67
4, 122640, Note_on_c, 0, 51, 67
4, 123600, Note_on_c, 0, 51, 0
4, 123600, Note_on_c, 0, 39, 0
4, 123600, Note_on_c, 0, 43, 0
4, 123600, Note_on_c, 0, 46, 0
4, 123600, Note_on_c, 0, 39, 67
4, 123600, Note_on_c, 0, 43, 67
4, 123600, Note_on_c, 0, 46, 67
4, 123600, Note_on_c, 0, 51, 67
4, 124080, Note_on_c, 0, 51, 0
4, 124080, Note_on_c, 0, 39, 0
4, 124080, Note_on_c, 0, 43, 0
4, 124080, Note_on_c, 0, 46, 0
4, 124080, Note_on_c, 0, 39, 67
4, 124080, Note_on_c, 0, 43, 67
4, 124080, Note_on_c, 0, 46, 67
4, 124080, Note_on_c, 0, 51, 67
4, 124320, Note_on_c, 0, 51, 0
4, 124320, Note_on_c, 0, 39, 0
4, 124320, Note_on_c, 0, 43, 0
4, 124320, Note_on_c, 0, 46, 0
4, 124320, Note_on_c, 0, 39, 67
4, 124320, Note_on_c, 0, 43, 67
4, 124320, Note_on_c, 0, 46, 67
4, 124320, Note_on_c, 0, 51, 67
4, 124560, Note_on_c, 0, 51, 0
4, 124560, Note_on_c, 0, 39, 0
4, 124560, Note_on_c, 0, 43, 0
4, 124560, Note_on_c, 0, 46, 0
4, 124560, Note_on_c, 0, 39, 67
4, 124560, Note_on_c, 0, 43, 67
4, 124560, Note_on_c, 0, 46, 67
4, 124560, Note_on_c, 0, 51, 67
4, 124800, Note_on_c, 0, 51, 0
4, 124800, Note_on_c, 0, 39, 0
4, 124800, Note_on_c, 0, 43, 0
4, 124800, Note_on_c, 0, 46, 0
4, 124800, Note_on_c, 0, 39, 67
4, 124800, Note_on_c, 0, 43, 67
4, 124800, Note_on_c, 0, 46, 67
4, 124800, Note_on_c, 0, 51, 67
4, 126720, Note_on_c, 0, 51, 0
4, 126720, Note_on_c, 0, 39, 0
4, 126720, Note_on_c, 0, 43, 0
4, 126720, Note_on_c, 0, 46, 0
4, 126720, Note_on_c, 0, 51, 93
4, 126720, Note_on_c, 0, 55, 93
4, 127200, Note_on_c, 0, 55, 0
4, 127200, Note_on_c, 0, 51, 0
4, 127200, Note_on_c, 0, 48, 93
4, 127200, Note_on_c, 0, 51, 93
4, 127200, Note_on_c, 0, 56, 93
4, 127680, Note_on_c, 0, 56, 0
4, 127680, Note_on_c, 0, 51, 0
4, 127680, Note_on_c, 0, 48, 0
4, 127680, Note_on_c, 0, 43, 93
4, 127680, Note_on_c, 0, 51, 93
4, 127680, Note_on_c, 0, 58, 93
4, 128080, Note_on_c, 0, 39, 93
4, 128120, Note_on_c, 0, 54, 93
4, 128160, Note_on_c, 0, 58, 0
4, 128160, Note_on_c, 0, 43, 0
4, 128160, Note_on_c, 0, 51, 0
4, 128160, Note_on_c, 0, 59, 93
4, 128640, Note_on_c, 0, 59, 0
4, 128640, Note_on_c, 0, 39, 0
4, 128640, Note_on_c, 0, 54, 0
4, 128640, Note_on_c, 0, 51, 93
4, 128640, Note_on_c, 0, 55, 93
4, 128640, Note_on_c, 0, 58, 93
4, 130560, Note_on_c, 0, 58, 0
4, 130560, Note_on_c, 0, 55, 0
4, 130560, Note_on_c, 0, 51, 0
4, 130560, Note_on_c, 0, 51, 93
4, 130560, Note_on_c, 0, 55, 93
4, 131040, Note_on_c, 0, 55, 0
4, 131040, Note_on_c, 0, 51, 0
4, 131040, Note_on_c, 0, 48, 93
4, 131040, Note_on_c, 0, 51, 93
4, 131040, Note_on_c, 0, 56, 93
4, 131520, Note_on_c, 0, 56, 0
4, 131520, Note_on_c, 0, 51, 0
4, 131520, Note_on_c, 0, 48, 0
4, 131520, Note_on_c, 0, 43, 93
4, 131520, Note_on_c, 0, 51, 93
4, 131520, Note_on_c, 0, 58, 93
4, 131920, Note_on_c, 0, 39, 93
4, 131960, Note_on_c, 0, 54, 93
4, 132000, Note_on_c, 0, 58, 0
4, 132000, Note_on_c, 0, 43, 0
4, 132000, Note_on_c, 0, 51, 0
4, 132000, Note_on_c, 0, 59, 93
4, 132480, Note_on_c, 0, 59, 0
4, 132480, Note_on_c, 0, 39, 0
4, 132480, Note_on_c, 0, 54, 0
4, 132480, Note_on_c, 0, 51, 93
4, 132480, Note_on_c, 0, 55, 93
4, 132480, Note_on_c, 0, 58, 93
4, 132960, Note_on_c, 0, 58, 0
4, 132960, Note_on_c, 0, 55, 0
4, 132960, Note_on_c, 0, 51, 0
4, 132960, Note_on_c, 0, 39, 93
4, 132960, Note_on_c, 0, 54, 93
4, 132960, Note_on_c, 0, 59, 93
4, 133440, Note_on_c, 0, 59, 0
4, 133440, Note_on_c, 0, 54, 0
4, 133440, Note_on_c, 0, 39, 0
4, 133440, Note_on_c, 0, 51, 93
4, 133440, Note_on_c, 0, 55, 93
4, 133440, Note_on_c, 0, 58, 93
4, 133920, Note_on_c, 0, 58, 0
4, 133920, Note_on_c, 0, 55, 0
4, 133920, Note_on_c, 0, 51, 0
4, 133920, Note_on_c, 0, 39, 93
4, 133920, Note_on_c, 0, 54, 93
4, 133920, Note_on_c, 0, 59, 93
4, 134400, Note_on_c, 0, 59, 0
4, 134400, Note_on_c, 0, 54, 0
4, 134400, Note_on_c, 0, 39, 0
4, 134400, Note_on_c, 0, 51, 93
4, 134400, Note_on_c, 0, 55, 93
4, 134400, Note_on_c, 0, 58, 93
4, 134880, Note_on_c, 0, 58, 0
4, 134880, Note_on_c, 0, 55, 0
4, 134880, Note_on_c, 0, 51, 0
4, 134880, Note_on_c, 0, 39, 93
4, 134880, Note_on_c, 0, 54, 93
4, 134880, Note_on_c, 0, 59, 93
4, 135360, Note_on_c, 0, 59, 0
4, 135360, Note_on_c, 0, 54, 0
4, 135360, Note_on_c, 0, 39, 0
4, 135360, Note_on_c, 0, 51, 93
4, 135360, Note_on_c, 0, 55, 93
4, 135360, Note_on_c, 0, 58, 93
4, 135840, Note_on_c, 0, 58, 0
4, 135840, Note_on_c, 0, 55, 0
4, 135840, Note_on_c, 0, 51, 0
4, 135840, Note_on_c, 0, 39, 93
4, 135840, Note_on_c, 0, 54, 93
4, 135840, Note_on_c, 0, 59, 93
4, 136320, Note_on_c, 0, 59, 0
4, 136320, Note_on_c, 0, 54, 0
4, 136320, Note_on_c, 0, 39, 0
4, 136320, Control_c, 0, 64, 127
4, 136320, Note_on_c, 0, 51, 67
4, 136320, Note_on_c, 0, 55, 67
4, 136320, Note_on_c, 0, 58, 67
4, 136560, Note_on_c, 0, 58, 0
4, 136560, Note_on_c, 0, 55, 0
4, 136560, Note_on_c, 0, 51, 0
4, 136560, Note_on_c, 0, 39, 67
4, 136640, Note_on_c, 0, 39, 0
4, 136640, Note_on_c, 0, 51, 67
4, 136719, Note_on_c, 0, 51, 0
4, 136719, Note_on_c, 0, 39, 67
4, 136800, Note_on_c, 0, 39, 0
4, 136800, Note_on_c, 0, 51, 67
4, 136880, Note_on_c, 0, 51, 0
4, 136880, Note_on_c, 0, 39, 67
4, 136959, Note_on_c, 0, 39, 0
4, 136959, Note_on_c, 0, 51, 67
4, 137040, Note_on_c, 0, 51, 0
4, 137040, Note_on_c, 0, 39, 67
4, 137120, Note_on_c, 0, 39, 0
4, 137120, Note_on_c, 0, 51, 67
4, 137199, Note_on_c, 0, 51, 0
4, 137199, Note_on_c, 0, 39, 67
4, 137280, Note_on_c, 0, 39, 0
4, 137280, Control_c, 0, 64, 0
4, 137280, Note_on_c, 0, 55, 93
4, 137280, Note_on_c, 0, 58, 93
4, 137280, Note_on_c, 0, 63, 93
4, 137280, Note_on_c, 0, 67, 93
4, 137760, Note_on_c, 0, 67, 0
4, 137760, Note_on_c, 0, 55, 0
4, 137760, Note_on_c, 0, 58, 0
4, 137760, Note_on_c, 0, 63, 0
4, 138240, Control_c, 0, 64, 127
4, 138240, Note_on_c, 0, 51, 67
4, 138320, Note_on_c, 0, 51, 0
4, 138320, Note_on_c, 0, 39, 67
4, 138399, Note_on_c, 0, 39, 0
4, 138399, Note_on_c, 0, 51, 67
4, 138480, Note_on_c, 0, 51, 0
4, 138480, Note_on_c, 0, 39, 67
4, 138560, Note_on_c, 0, 39, 0
4, 138560, Note_on_c, 0, 51, 67
4, 138639, Note_on_c, 0, 51, 0
4, 138639, Note_on_c, 0, 39, 67
4, 138720, Note_on_c, 0, 39, 0
4, 138720, Note_on_c, 0, 51, 67
4, 138800, Note_on_c, 0, 51, 0
4, 138800, Note_on_c, 0, 39, 67
4, 138879, Note_on_c, 0, 39, 0
4, 138879, Note_on_c, 0, 51, 67
4, 138960, Note_on_c, 0, 51, 0
4, 138960, Note_on_c, 0, 39, 67
4, 139040, Note_on_c, 0, 39, 0
4, 139040, Note_on_c, 0, 51, 67
4, 139119, Note_on_c, 0, 51, 0
4, 139119, Note_on_c, 0, 39, 67
4, 139200, Note_on_c, 0, 39, 0
4, 139200, Control_c, 0, 64, 0
4, 139200, Note_on_c, 0, 55, 93
4, 139200, Note_on_c, 0, 58, 93
4, 139200, Note_on_c, 0, 63, 93
4, 139200, Note_on_c, 0, 67, 93
4, 139680, Note_on_c, 0, 67, 0
4, 139680, Note_on_c, 0, 55, 0
4, 139680, Note_on_c, 0, 58, 0
4, 139680, Note_on_c, 0, 63, 0
4, 140160, Control_c, 0, 64, 127
4, 140160, Note_on_c, 0, 51, 67
4, 140240, Note_on_c, 0, 51, 0
4, 140240, Note_on_c, 0, 39, 67
4, 140319, Note_on_c, 0, 39, 0
4, 140319, Note_on_c, 0, 51, 67
4, 140400, Note_on_c, 0, 51, 0
4, 140400, Note_on_c, 0, 39, 67
4, 140480, Note_on_c, 0, 39, 0
4, 140480, Note_on_c, 0, 51, 67
4, 140559, Note_on_c, 0, 51, 0
4, 140559, Note_on_c, 0, 39, 67
4, 140640, Note_on_c, 0, 39, 0
4, 140640, Note_on_c, 0, 51, 67
4, 140720, Note_on_c, 0, 51, 0
4, 140720, Note_on_c, 0, 39, 67
4, 140799, Note_on_c, 0, 39, 0
4, 140799, Note_on_c, 0, 51, 67
4, 140880, Note_on_c, 0, 51, 0
4, 140880, Note_on_c, 0, 39, 67
4, 140960, Note_on_c, 0, 39, 0
4, 140960, Note_on_c, 0, 51, 67
4, 141039, Note_on_c, 0, 51, 0
4, 141039, Note_on_c, 0, 39, 67
4, 141120, Note_on_c, 0, 39, 0
4, 141120, Note_on_c, 0, 51, 67
4, 141200, Note_on_c, 0, 51, 0
4, 141200, Note_on_c, 0, 39, 67
4, 141279, Note_on_c, 0, 39, 0
4, 141279, Note_on_c, 0, 51, 67
4, 141360, Note_on_c, 0, 51, 0
4, 141360, Note_on_c, 0, 39, 67
4, 141440, Note_on_c, 0, 39, 0
4, 141440, Note_on_c, 0, 51, 67
4, 141519, Note_on_c, 0, 51, 0
4, 141519, Note_on_c, 0, 39, 67
4, 141600, Note_on_c, 0, 39, 0
4, 141600, Note_on_c, 0, 51, 67
4, 141680, Note_on_c, 0, 51, 0
4, 141680, Note_on_c, 0, 39, 67
4, 141759, Note_on_c, 0, 39, 0
4, 141759, Note_on_c, 0, 51, 67
4, 141840, Note_on_c, 0, 51, 0
4, 141840, Note_on_c, 0, 39, 67
4, 141920, Note_on_c, 0, 39, 0
4, 141920, Note_on_c, 0, 51, 67
4, 141999, Note_on_c, 0, 51, 0
4, 141999, Note_on_c, 0, 39, 67
4, 142080, Note_on_c, 0, 39, 0
4, 142080, Control_c, 0, 64, 0
4, 142080, Note_on_c, 0, 39, 80
4, 142080, Note_on_c, 0, 51, 80
4, 142320, Note_on_c, 0, 51, 0
4, 142320, Note_on_c, 0, 39, 0
4, 142560, Note_on_c, 0, 34, 80
4, 142560, Note_on_c, 0, 46, 80
4, 142800, Note_on_c, 0, 46, 0
4, 142800, Note_on_c, 0, 34, 0
4, 143040, Note_on_c, 0, 39, 80
4, 143040, Note_on_c, 0, 51, 80
4, 143520, Note_on_c, 0, 51, 0
4, 143520, Note_on_c, 0, 39, 0
4, 143520, End_track
5, 0, Start_track
5, 0, Title_t, "Grand Piano"
5, 0, Program_c, 0, 0
5, 0, Control_c, 0, 7, 115
5, 0, Control_c, 0, 10, 47
5, 0, Note_on_c, 0, 31, 88
5, 0, Note_on_c, 0, 43, 88
5, 720, Note_on_c, 0, 43, 0
5, 720, Note_on_c, 0, 31, 0
5, 3840, Note_on_c, 0, 31, 88
5, 3840, Note_on_c, 0, 43, 88
5, 4560, Note_on_c, 0, 43, 0
5, 4560, Note_on_c, 0, 31, 0
5, 15360, Note_on_c, 0, 31, 88
5, 15360, Note_on_c, 0, 43, 88
5, 16080, Note_on_c, 0, 43, 0
5, 16080, Note_on_c, 0, 31, 0
5, 19200, Note_on_c, 0, 31, 88
5, 19200, Note_on_c, 0, 43, 88
5, 19920, Note_on_c, 0, 43, 0
5, 19920, Note_on_c, 0, 31, 0
5, 37440, Note_on_c, 0, 50, 88
5, 37440, Note_on_c, 0, 53, 88
5, 38400, Note_on_c, 0, 53, 0
5, 38400, Note_on_c, 0, 50, 0
5, 39360, Note_on_c, 0, 44, 114
5, 39360, Note_on_c, 0, 46, 114
5, 40320, Note_on_c, 0, 46, 0
5, 40320, Note_on_c, 0, 44, 0
5, 55680, Note_on_c, 0, 34, 88
5, 55680, Note_on_c, 0, 46, 88
5, 59520, Note_on_c, 0, 46, 0
5, 59520, Note_on_c, 0, 34, 0
5, 59520, Note_on_c, 0, 34, 88
5, 59520, Note_on_c, 0, 46, 88
5, 63360, Note_on_c, 0, 46, 0
5, 63360, Note_on_c, 0, 34, 0
5, 63360, Control_c, 0, 64, 127
5, 63360, Note_on_c, 0, 34, 49
5, 63360, Note_on_c, 0, 46, 49
5, 65280, Note_on_c, 0, 46, 0
5, 65280, Note_on_c, 0, 34, 0
5, 69120, Control_c, 0, 64, 0
5, 71040, Note_on_c, 0, 31, 88
5, 71040, Note_on_c, 0, 43, 88
5, 71760, Note_on_c, 0, 43, 0
5, 71760, Note_on_c, 0, 31, 0
5, 74880, Note_on_c, 0, 31, 88
5, 74880, Note_on_c, 0, 43, 88
5, 75600, Note_on_c, 0, 43, 0
5, 75600, Note_on_c, 0, 31, 0
5, 86400, Note_on_c, 0, 31, 88
5, 86400, Note_on_c, 0, 43, 88
5, 87120, Note_on_c, 0, 43, 0
5, 87120, Note_on_c, 0, 31, 0
5, 90240, Note_on_c, 0, 31, 88
5, 90240, Note_on_c, 0, 43, 88
5, 90960, Note_on_c, 0, 43, 0
5, 90960, Note_on_c, 0, 31, 0
5, 108480, Note_on_c, 0, 50, 88
5, 108480, Note_on_c, 0, 53, 88
5, 109440, Note_on_c, 0, 53, 0
5, 109440, Note_on_c, 0, 50, 0
5, 110400, Note_on_c, 0, 44, 114
5, 110400, Note_on_c, 0, 46, 114
5, 111360, Note_on_c, 0, 46, 0
5, 111360, Note_on_c, 0, 44, 0
5, 137280, Control_c, 0, 64, 127
5, 137280, Note_on_c, 0, 51, 88
5, 137360, Note_on_c, 0, 51, 0
5, 137360, Note_on_c, 0, 39, 88
5, 137439, Note_on_c, 0, 39, 0
5, 137439, Note_on_c, 0, 51, 88
5, 137520, Note_on_c, 0, 51, 0
5, 137520, Note_on_c, 0, 39, 88
5, 137600, Note_on_c, 0, 39, 0
5, 137600, Note_on_c, 0, 51, 88
5, 137679, Note_on_c, 0, 51, 0
5, 137679, Note_on_c, 0, 39, 88
5, 137760, Note_on_c, 0, 39, 0
5, 137760, Note_on_c, 0, 51, 88
5, 137840, Note_on_c, 0, 51, 0
5, 137840, Note_on_c, 0, 39, 88
5, 137919, Note_on_c, 0, 39, 0
5, 137919, Note_on_c, 0, 51, 88
5, 138000, Note_on_c, 0, 51, 0
5, 138000, Note_on_c, 0, 39, 88
5, 138080, Note_on_c, 0, 39, 0
5, 138080, Note_on_c, 0, 51, 88
5, 138159, Note_on_c, 0, 51, 0
5, 138159, Control_c, 0, 64, 0
5, 138159, Note_on_c, 0, 39, 88
5, 138240, Note_on_c, 0, 39, 0
5, 139200, Control_c, 0, 64, 127
5, 139200, Note_on_c, 0, 51, 88
5, 139280, Note_on_c, 0, 51, 0
5, 139280, Note_on_c, 0, 39, 88
5, 139359, Note_on_c, 0, 39, 0
5, 139359, Note_on_c, 0, 51, 88
5, 139440, Note_on_c, 0, 51, 0
5, 139440, Note_on_c, 0, 39, 88
5, 139520, Note_on_c, 0, 39, 0
5, 139520, Note_on_c, 0, 51, 88
5, 139599, Note_on_c, 0, 51, 0
5, 139599, Note_on_c, 0, 39, 88
5, 139680, Note_on_c, 0, 39, 0
5, 139680, Note_on_c, 0, 51, 88
5, 139760, Note_on_c, 0, 51, 0
5, 139760, Note_on_c, 0, 39, 88
5, 139839, Note_on_c, 0, 39, 0
5, 139839, Note_on_c, 0, 51, 88
5, 139920, Note_on_c, 0, 51, 0
5, 139920, Note_on_c, 0, 39, 88
5, 140000, Note_on_c, 0, 39, 0
5, 140000, Note_on_c, 0, 51, 88
5, 140079, Note_on_c, 0, 51, 0
5, 140079, Control_c, 0, 64, 0
5, 140079, Note_on_c, 0, 39, 88
5, 140160, Note_on_c, 0, 39, 0
5, 140160, End_track
0, 0, End_of_file
