0, 0, Header, 1, 5, 480
1, 0, Start_track
1, 0, Title_t, "tchaikovsky sleeping beauty act3 23e la fee diamant"
1, 0, Copyright_t, "Adaptation for Disklavier pianos, by: Robert C. Kuhmann (c) 2012."
1, 0, Text_t, "Seq. (c) by: Segundo G. Yogore,  2007\012"
1, 0, Time_signature, 2, 2, 24, 8
1, 0, Key_signature, 1, "major"
1, 0, Tempo, 375000
1, 48960, Time_signature, 8, 2, 24, 8
1, 48960, End_track
2, 0, Start_track
2, 0, Title_t, "Grand Piano"
2, 0, Program_c, 0, 0
2, 0, Control_c, 0, 7, 115
2, 0, Control_c, 0, 10, 86
2, 3120, Note_on_c, 0, 83, 73
2, 3120, Note_on_c, 0, 91, 73
2, 3240, Note_on_c, 0, 91, 0
2, 3240, Note_on_c, 0, 83, 0
2, 3240, Note_on_c, 0, 82, 73
2, 3240, Note_on_c, 0, 86, 73
2, 3360, Note_on_c, 0, 86, 0
2, 3360, Note_on_c, 0, 82, 0
2, 3360, Note_on_c, 0, 83, 73
2, 3360, Note_on_c, 0, 91, 73
2, 3600, Note_on_c, 0, 91, 0
2, 3600, Note_on_c, 0, 83, 0
2, 4080, Note_on_c, 0, 83, 73
2, 4080, Note_on_c, 0, 90, 73
2, 4200, Note_on_c, 0, 90, 0
2, 4200, Note_on_c, 0, 83, 0
2, 4200, Note_on_c, 0, 82, 73
2, 4200, Note_on_c, 0, 86, 73
2, 4320, Note_on_c, 0, 86, 0
2, 4320, Note_on_c, 0, 82, 0
2, 4320, Note_on_c, 0, 83, 73
2, 4320, Note_on_c, 0, 90, 73
2, 4560, Note_on_c, 0, 90, 0
2, 4560, Note_on_c, 0, 83, 0
2, 5040, Note_on_c, 0, 83, 73
2, 5040, Note_on_c, 0, 91, 73
2, 5160, Note_on_c, 0, 91, 0
2, 5160, Note_on_c, 0, 83, 0
2, 5160, Note_on_c, 0, 82, 73
2, 5160, Note_on_c, 0, 86, 73
2, 5280, Note_on_c, 0, 86, 0
2, 5280, Note_on_c, 0, 82, 0
2, 5280, Note_on_c, 0, 83, 73
2, 5280, Note_on_c, 0, 91, 73
2, 5520, Note_on_c, 0, 91, 0
2, 5520, Note_on_c, 0, 83, 0
2, 5520, Note_on_c, 0, 79, 73
2, 5520, Note_on_c, 0, 86, 73
2, 5640, Note_on_c, 0, 86, 0
2, 5640, Note_on_c, 0, 79, 0
2, 5640, Note_on_c, 0, 78, 73
2, 5640, Note_on_c, 0, 83, 73
2, 5760, Note_on_c, 0, 83, 0
2, 5760, Note_on_c, 0, 78, 0
2, 5760, Note_on_c, 0, 79, 73
2, 5760, Note_on_c, 0, 86, 73
2, 6000, Note_on_c, 0, 86, 0
2, 6000, Note_on_c, 0, 79, 0
2, 6000, Note_on_c, 0, 79, 73
2, 6000, Note_on_c, 0, 88, 73
2, 6120, Note_on_c, 0, 88, 0
2, 6120, Note_on_c, 0, 79, 0
2, 6120, Note_on_c, 0, 78, 73
2, 6120, Note_on_c, 0, 83, 73
2, 6240, Note_on_c, 0, 83, 0
2, 6240, Note_on_c, 0, 78, 0
2, 6240, Note_on_c, 0, 79, 73
2, 6240, Note_on_c, 0, 88, 73
2, 6480, Note_on_c, 0, 88, 0
2, 6480, Note_on_c, 0, 79, 0
2, 6480, Note_on_c, 0, 76, 73
2, 6480, Note_on_c, 0, 86, 73
2, 6600, Note_on_c, 0, 86, 0
2, 6600, Note_on_c, 0, 76, 0
2, 6600, Note_on_c, 0, 75, 73
2, 6600, Note_on_c, 0, 81, 73
2, 6720, Note_on_c, 0, 81, 0
2, 6720, Note_on_c, 0, 75, 0
2, 6720, Note_on_c, 0, 76, 73
2, 6720, Note_on_c, 0, 86, 73
2, 6960, Note_on_c, 0, 86, 0
2, 6960, Note_on_c, 0, 76, 0
2, 6960, Note_on_c, 0, 76, 73
2, 6960, Note_on_c, 0, 84, 73
2, 7080, Note_on_c, 0, 84, 0
2, 7080, Note_on_c, 0, 76, 0
2, 7080, Note_on_c, 0, 75, 73
2, 7080, Note_on_c, 0, 81, 73
2, 7200, Note_on_c, 0, 81, 0
2, 7200, Note_on_c, 0, 75, 0
2, 7200, Note_on_c, 0, 76, 73
2, 7200, Note_on_c, 0, 84, 73
2, 7440, Note_on_c, 0, 84, 0
2, 7440, Note_on_c, 0, 76, 0
2, 7440, Note_on_c, 0, 72, 73
2, 7440, Note_on_c, 0, 83, 73
2, 7560, Note_on_c, 0, 83, 0
2, 7560, Note_on_c, 0, 72, 0
2, 7560, Note_on_c, 0, 71, 73
2, 7560, Note_on_c, 0, 76, 73
2, 7680, Note_on_c, 0, 76, 0
2, 7680, Note_on_c, 0, 71, 0
2, 7680, Note_on_c, 0, 72, 73
2, 7680, Note_on_c, 0, 83, 73
2, 7920, Note_on_c, 0, 83, 0
2, 7920, Note_on_c, 0, 72, 0
2, 7920, Note_on_c, 0, 72, 73
2, 7920, Note_on_c, 0, 81, 73
2, 8040, Note_on_c, 0, 81, 0
2, 8040, Note_on_c, 0, 72, 0
2, 8040, Note_on_c, 0, 71, 73
2, 8040, Note_on_c, 0, 76, 73
2, 8160, Note_on_c, 0, 76, 0
2, 8160, Note_on_c, 0, 71, 0
2, 8160, Note_on_c, 0, 72, 73
2, 8160, Note_on_c, 0, 81, 73
2, 8400, Note_on_c, 0, 81, 0
2, 8400, Note_on_c, 0, 72, 0
2, 8400, Note_on_c, 0, 72, 73
2, 8400, Note_on_c, 0, 79, 73
2, 8520, Note_on_c, 0, 79, 0
2, 8520, Note_on_c, 0, 72, 0
2, 8520, Note_on_c, 0, 69, 73
2, 8520, Note_on_c, 0, 72, 73
2, 8640, Note_on_c, 0, 72, 0
2, 8640, Note_on_c, 0, 69, 0
2, 8640, Note_on_c, 0, 72, 73
2, 8640, Note_on_c, 0, 79, 73
2, 8880, Note_on_c, 0, 79, 0
2, 8880, Note_on_c, 0, 72, 0
2, 8880, Note_on_c, 0, 69, 73
2, 8880, Note_on_c, 0, 78, 73
2, 9000, Note_on_c, 0, 78, 0
2, 9000, Note_on_c, 0, 69, 0
2, 9000, Note_on_c, 0, 68, 73
2, 9000, Note_on_c, 0, 72, 73
2, 9120, Note_on_c, 0, 72, 0
2, 9120, Note_on_c, 0, 68, 0
2, 9120, Note_on_c, 0, 69, 73
2, 9120, Note_on_c, 0, 78, 73
2, 9360, Note_on_c, 0, 78, 0
2, 9360, Note_on_c, 0, 69, 0
2, 9360, Note_on_c, 0, 78, 73
2, 9360, Note_on_c, 0, 88, 73
2, 9480, Note_on_c, 0, 88, 0
2, 9480, Note_on_c, 0, 78, 0
2, 9480, Note_on_c, 0, 77, 73
2, 9480, Note_on_c, 0, 81, 73
2, 9600, Note_on_c, 0, 81, 0
2, 9600, Note_on_c, 0, 77, 0
2, 9600, Note_on_c, 0, 78, 73
2, 9600, Note_on_c, 0, 88, 73
2, 9840, Note_on_c, 0, 88, 0
2, 9840, Note_on_c, 0, 78, 0
2, 9840, Note_on_c, 0, 78, 73
2, 9840, Note_on_c, 0, 86, 73
2, 9960, Note_on_c, 0, 86, 0
2, 9960, Note_on_c, 0, 78, 0
2, 9960, Note_on_c, 0, 77, 73
2, 9960, Note_on_c, 0, 81, 73
2, 10080, Note_on_c, 0, 81, 0
2, 10080, Note_on_c, 0, 77, 0
2, 10080, Note_on_c, 0, 78, 73
2, 10080, Note_on_c, 0, 86, 73
2, 10320, Note_on_c, 0, 86, 0
2, 10320, Note_on_c, 0, 78, 0
2, 10320, Note_on_c, 0, 79, 73
2, 10320, Note_on_c, 0, 86, 73
2, 10440, Note_on_c, 0, 86, 0
2, 10440, Note_on_c, 0, 79, 0
2, 10440, Note_on_c, 0, 78, 73
2, 10440, Note_on_c, 0, 83, 73
2, 10560, Note_on_c, 0, 83, 0
2, 10560, Note_on_c, 0, 78, 0
2, 10560, Note_on_c, 0, 79, 73
2, 10560, Note_on_c, 0, 86, 73
2, 10800, Note_on_c, 0, 86, 0
2, 10800, Note_on_c, 0, 79, 0
2, 10800, Note_on_c, 0, 83, 73
2, 10800, Note_on_c, 0, 91, 73
2, 10920, Note_on_c, 0, 91, 0
2, 10920, Note_on_c, 0, 83, 0
2, 10920, Note_on_c, 0, 82, 73
2, 10920, Note_on_c, 0, 86, 73
2, 11040, Note_on_c, 0, 86, 0
2, 11040, Note_on_c, 0, 82, 0
2, 11040, Note_on_c, 0, 83, 73
2, 11040, Note_on_c, 0, 91, 73
2, 11280, Note_on_c, 0, 91, 0
2, 11280, Note_on_c, 0, 83, 0
2, 11760, Note_on_c, 0, 83, 73
2, 11760, Note_on_c, 0, 90, 73
2, 11880, Note_on_c, 0, 90, 0
2, 11880, Note_on_c, 0, 83, 0
2, 11880, Note_on_c, 0, 82, 73
2, 11880, Note_on_c, 0, 86, 73
2, 12000, Note_on_c, 0, 86, 0
2, 12000, Note_on_c, 0, 82, 0
2, 12000, Note_on_c, 0, 83, 73
2, 12000, Note_on_c, 0, 90, 73
2, 12240, Note_on_c, 0, 90, 0
2, 12240, Note_on_c, 0, 83, 0
2, 12720, Note_on_c, 0, 83, 73
2, 12720, Note_on_c, 0, 91, 73
2, 12840, Note_on_c, 0, 91, 0
2, 12840, Note_on_c, 0, 83, 0
2, 12840, Note_on_c, 0, 82, 73
2, 12840, Note_on_c, 0, 86, 73
2, 12960, Note_on_c, 0, 86, 0
2, 12960, Note_on_c, 0, 82, 0
2, 12960, Note_on_c, 0, 83, 73
2, 12960, Note_on_c, 0, 91, 73
2, 13200, Note_on_c, 0, 91, 0
2, 13200, Note_on_c, 0, 83, 0
2, 13200, Note_on_c, 0, 79, 73
2, 13200, Note_on_c, 0, 86, 73
2, 13320, Note_on_c, 0, 86, 0
2, 13320, Note_on_c, 0, 79, 0
2, 13320, Note_on_c, 0, 78, 73
2, 13320, Note_on_c, 0, 83, 73
2, 13440, Note_on_c, 0, 83, 0
2, 13440, Note_on_c, 0, 78, 0
2, 13440, Note_on_c, 0, 79, 73
2, 13440, Note_on_c, 0, 86, 73
2, 13680, Note_on_c, 0, 86, 0
2, 13680, Note_on_c, 0, 79, 0
2, 13680, Note_on_c, 0, 79, 73
2, 13680, Note_on_c, 0, 88, 73
2, 13800, Note_on_c, 0, 88, 0
2, 13800, Note_on_c, 0, 79, 0
2, 13800, Note_on_c, 0, 78, 73
2, 13800, Note_on_c, 0, 83, 73
2, 13920, Note_on_c, 0, 83, 0
2, 13920, Note_on_c, 0, 78, 0
2, 13920, Note_on_c, 0, 79, 73
2, 13920, Note_on_c, 0, 88, 73
2, 14160, Note_on_c, 0, 88, 0
2, 14160, Note_on_c, 0, 79, 0
2, 14160, Note_on_c, 0, 76, 73
2, 14160, Note_on_c, 0, 86, 73
2, 14280, Note_on_c, 0, 86, 0
2, 14280, Note_on_c, 0, 76, 0
2, 14280, Note_on_c, 0, 75, 73
2, 14280, Note_on_c, 0, 81, 73
2, 14400, Note_on_c, 0, 81, 0
2, 14400, Note_on_c, 0, 75, 0
2, 14400, Note_on_c, 0, 76, 73
2, 14400, Note_on_c, 0, 86, 73
2, 14640, Note_on_c, 0, 86, 0
2, 14640, Note_on_c, 0, 76, 0
2, 14640, Note_on_c, 0, 76, 73
2, 14640, Note_on_c, 0, 84, 73
2, 14760, Note_on_c, 0, 84, 0
2, 14760, Note_on_c, 0, 76, 0
2, 14760, Note_on_c, 0, 75, 73
2, 14760, Note_on_c, 0, 81, 73
2, 14880, Note_on_c, 0, 81, 0
2, 14880, Note_on_c, 0, 75, 0
2, 14880, Note_on_c, 0, 76, 73
2, 14880, Note_on_c, 0, 84, 73
2, 15120, Note_on_c, 0, 84, 0
2, 15120, Note_on_c, 0, 76, 0
2, 15120, Note_on_c, 0, 72, 73
2, 15120, Note_on_c, 0, 83, 73
2, 15240, Note_on_c, 0, 83, 0
2, 15240, Note_on_c, 0, 72, 0
2, 15240, Note_on_c, 0, 71, 73
2, 15240, Note_on_c, 0, 76, 73
2, 15360, Note_on_c, 0, 76, 0
2, 15360, Note_on_c, 0, 71, 0
2, 15360, Note_on_c, 0, 72, 73
2, 15360, Note_on_c, 0, 83, 73
2, 15600, Note_on_c, 0, 83, 0
2, 15600, Note_on_c, 0, 72, 0
2, 15600, Note_on_c, 0, 72, 73
2, 15600, Note_on_c, 0, 81, 73
2, 15720, Note_on_c, 0, 81, 0
2, 15720, Note_on_c, 0, 72, 0
2, 15720, Note_on_c, 0, 71, 73
2, 15720, Note_on_c, 0, 76, 73
2, 15840, Note_on_c, 0, 76, 0
2, 15840, Note_on_c, 0, 71, 0
2, 15840, Note_on_c, 0, 72, 73
2, 15840, Note_on_c, 0, 81, 73
2, 16080, Note_on_c, 0, 81, 0
2, 16080, Note_on_c, 0, 72, 0
2, 16080, Note_on_c, 0, 72, 73
2, 16080, Note_on_c, 0, 79, 73
2, 16200, Note_on_c, 0, 79, 0
2, 16200, Note_on_c, 0, 72, 0
2, 16200, Note_on_c, 0, 69, 73
2, 16200, Note_on_c, 0, 72, 73
2, 16320, Note_on_c, 0, 72, 0
2, 16320, Note_on_c, 0, 69, 0
2, 16320, Note_on_c, 0, 72, 73
2, 16320, Note_on_c, 0, 79, 73
2, 16560, Note_on_c, 0, 79, 0
2, 16560, Note_on_c, 0, 72, 0
2, 16560, Note_on_c, 0, 69, 73
2, 16560, Note_on_c, 0, 78, 73
2, 16680, Note_on_c, 0, 78, 0
2, 16680, Note_on_c, 0, 69, 0
2, 16680, Note_on_c, 0, 68, 73
2, 16680, Note_on_c, 0, 72, 73
2, 16800, Note_on_c, 0, 72, 0
2, 16800, Note_on_c, 0, 68, 0
2, 16800, Note_on_c, 0, 69, 73
2, 16800, Note_on_c, 0, 78, 73
2, 17040, Note_on_c, 0, 78, 0
2, 17040, Note_on_c, 0, 69, 0
2, 17040, Note_on_c, 0, 78, 73
2, 17040, Note_on_c, 0, 88, 73
2, 17160, Note_on_c, 0, 88, 0
2, 17160, Note_on_c, 0, 78, 0
2, 17160, Note_on_c, 0, 77, 73
2, 17160, Note_on_c, 0, 81, 73
2, 17280, Note_on_c, 0, 81, 0
2, 17280, Note_on_c, 0, 77, 0
2, 17280, Note_on_c, 0, 78, 73
2, 17280, Note_on_c, 0, 88, 73
2, 17520, Note_on_c, 0, 88, 0
2, 17520, Note_on_c, 0, 78, 0
2, 17520, Note_on_c, 0, 78, 73
2, 17520, Note_on_c, 0, 86, 73
2, 17640, Note_on_c, 0, 86, 0
2, 17640, Note_on_c, 0, 78, 0
2, 17640, Note_on_c, 0, 77, 73
2, 17640, Note_on_c, 0, 81, 73
2, 17760, Note_on_c, 0, 81, 0
2, 17760, Note_on_c, 0, 77, 0
2, 17760, Note_on_c, 0, 78, 73
2, 17760, Note_on_c, 0, 86, 73
2, 18000, Note_on_c, 0, 86, 0
2, 18000, Note_on_c, 0, 78, 0
2, 18000, Note_on_c, 0, 79, 73
2, 18000, Note_on_c, 0, 86, 73
2, 18120, Note_on_c, 0, 86, 0
2, 18120, Note_on_c, 0, 79, 0
2, 18120, Note_on_c, 0, 78, 73
2, 18120, Note_on_c, 0, 83, 73
2, 18240, Note_on_c, 0, 83, 0
2, 18240, Note_on_c, 0, 78, 0
2, 18240, Note_on_c, 0, 79, 73
2, 18240, Note_on_c, 0, 86, 73
2, 18480, Note_on_c, 0, 86, 0
2, 18480, Note_on_c, 0, 79, 0
2, 18480, Note_on_c, 0, 83, 73
2, 18720, Note_on_c, 0, 83, 0
2, 18720, Note_on_c, 0, 69, 73
2, 18960, Note_on_c, 0, 69, 0
2, 18960, Note_on_c, 0, 83, 73
2, 19200, Note_on_c, 0, 83, 0
2, 19200, Note_on_c, 0, 69, 73
2, 19440, Note_on_c, 0, 69, 0
2, 19440, Note_on_c, 0, 83, 73
2, 19680, Note_on_c, 0, 83, 0
2, 19680, Note_on_c, 0, 69, 73
2, 19920, Note_on_c, 0, 69, 0
2, 19920, Note_on_c, 0, 83, 73
2, 20160, Note_on_c, 0, 83, 0
2, 20160, Note_on_c, 0, 69, 73
2, 20280, Note_on_c, 0, 69, 0
2, 20280, Note_on_c, 0, 69, 73
2, 20400, Note_on_c, 0, 69, 0
2, 20400, Note_on_c, 0, 83, 73
2, 20520, Note_on_c, 0, 83, 0
2, 20520, Note_on_c, 0, 83, 73
2, 20640, Note_on_c, 0, 83, 0
2, 20640, Note_on_c, 0, 69, 73
2, 20760, Note_on_c, 0, 69, 0
2, 20760, Note_on_c, 0, 69, 73
2, 20880, Note_on_c, 0, 69, 0
2, 20880, Note_on_c, 0, 83, 73
2, 21000, Note_on_c, 0, 83, 0
2, 21000, Note_on_c, 0, 83, 73
2, 21120, Note_on_c, 0, 83, 0
2, 21120, Note_on_c, 0, 69, 73
2, 21143, Note_on_c, 0, 69, 0
2, 21240, Note_on_c, 0, 69, 73
2, 21263, Note_on_c, 0, 69, 0
2, 21360, Note_on_c, 0, 83, 73
2, 21383, Note_on_c, 0, 83, 0
2, 21480, Note_on_c, 0, 83, 73
2, 21503, Note_on_c, 0, 83, 0
2, 21600, Note_on_c, 0, 69, 73
2, 21623, Note_on_c, 0, 69, 0
2, 21720, Note_on_c, 0, 69, 73
2, 21743, Note_on_c, 0, 69, 0
2, 21840, Note_on_c, 0, 83, 73
2, 21863, Note_on_c, 0, 83, 0
2, 21960, Note_on_c, 0, 83, 73
2, 21983, Note_on_c, 0, 83, 0
2, 22080, Note_on_c, 0, 85, 73
2, 22103, Note_on_c, 0, 85, 0
2, 22200, Note_on_c, 0, 83, 73
2, 22223, Note_on_c, 0, 83, 0
2, 22320, Note_on_c, 0, 81, 73
2, 22343, Note_on_c, 0, 81, 0
2, 22440, Note_on_c, 0, 79, 73
2, 22463, Note_on_c, 0, 79, 0
2, 22560, Note_on_c, 0, 81, 73
2, 22583, Note_on_c, 0, 81, 0
2, 22680, Note_on_c, 0, 79, 73
2, 22703, Note_on_c, 0, 79, 0
2, 22800, Note_on_c, 0, 78, 73
2, 22823, Note_on_c, 0, 78, 0
2, 22920, Note_on_c, 0, 76, 73
2, 22943, Note_on_c, 0, 76, 0
2, 23040, Note_on_c, 0, 79, 73
2, 23063, Note_on_c, 0, 79, 0
2, 23160, Note_on_c, 0, 78, 73
2, 23183, Note_on_c, 0, 78, 0
2, 23280, Note_on_c, 0, 76, 73
2, 23303, Note_on_c, 0, 76, 0
2, 23400, Note_on_c, 0, 75, 73
2, 23423, Note_on_c, 0, 75, 0
2, 23520, Note_on_c, 0, 76, 73
2, 23543, Note_on_c, 0, 76, 0
2, 23640, Note_on_c, 0, 74, 73
2, 23663, Note_on_c, 0, 74, 0
2, 23760, Note_on_c, 0, 73, 73
2, 23783, Note_on_c, 0, 73, 0
2, 23880, Note_on_c, 0, 71, 73
2, 23903, Note_on_c, 0, 71, 0
2, 24000, Note_on_c, 0, 78, 73
2, 24023, Note_on_c, 0, 78, 0
2, 24120, Note_on_c, 0, 76, 73
2, 24143, Note_on_c, 0, 76, 0
2, 24240, Note_on_c, 0, 74, 73
2, 24263, Note_on_c, 0, 74, 0
2, 24360, Note_on_c, 0, 73, 73
2, 24383, Note_on_c, 0, 73, 0
2, 24480, Note_on_c, 0, 74, 73
2, 24503, Note_on_c, 0, 74, 0
2, 24600, Note_on_c, 0, 73, 73
2, 24623, Note_on_c, 0, 73, 0
2, 24720, Note_on_c, 0, 71, 73
2, 24743, Note_on_c, 0, 71, 0
2, 24840, Note_on_c, 0, 69, 73
2, 24863, Note_on_c, 0, 69, 0
2, 24960, Note_on_c, 0, 67, 73
2, 24960, Note_on_c, 0, 71, 73
2, 24983, Note_on_c, 0, 71, 0
2, 24983, Note_on_c, 0, 67, 0
2, 25080, Note_on_c, 0, 69, 73
2, 25103, Note_on_c, 0, 69, 0
2, 25200, Note_on_c, 0, 68, 73
2, 25223, Note_on_c, 0, 68, 0
2, 25320, Note_on_c, 0, 69, 73
2, 25343, Note_on_c, 0, 69, 0
2, 25440, Note_on_c, 0, 71, 73
2, 25463, Note_on_c, 0, 71, 0
2, 25560, Note_on_c, 0, 73, 73
2, 25583, Note_on_c, 0, 73, 0
2, 25680, Note_on_c, 0, 74, 73
2, 25703, Note_on_c, 0, 74, 0
2, 25800, Note_on_c, 0, 76, 73
2, 25823, Note_on_c, 0, 76, 0
2, 25920, Note_on_c, 0, 78, 73
2, 25967, Note_on_c, 0, 78, 0
2, 26160, Note_on_c, 0, 83, 73
2, 26207, Note_on_c, 0, 83, 0
2, 26400, Note_on_c, 0, 69, 73
2, 26447, Note_on_c, 0, 69, 0
2, 26640, Note_on_c, 0, 83, 73
2, 26687, Note_on_c, 0, 83, 0
2, 26880, Note_on_c, 0, 69, 73
2, 27120, Note_on_c, 0, 69, 0
2, 27120, Note_on_c, 0, 83, 73
2, 27360, Note_on_c, 0, 83, 0
2, 27360, Note_on_c, 0, 69, 73
2, 27600, Note_on_c, 0, 69, 0
2, 27600, Note_on_c, 0, 83, 73
2, 27840, Note_on_c, 0, 83, 0
2, 27840, Note_on_c, 0, 69, 73
2, 27960, Note_on_c, 0, 69, 0
2, 27960, Note_on_c, 0, 69, 73
2, 28080, Note_on_c, 0, 69, 0
2, 28080, Note_on_c, 0, 83, 73
2, 28200, Note_on_c, 0, 83, 0
2, 28200, Note_on_c, 0, 83, 73
2, 28320, Note_on_c, 0, 83, 0
2, 28320, Note_on_c, 0, 69, 73
2, 28440, Note_on_c, 0, 69, 0
2, 28440, Note_on_c, 0, 69, 73
2, 28560, Note_on_c, 0, 69, 0
2, 28560, Note_on_c, 0, 83, 73
2, 28680, Note_on_c, 0, 83, 0
2, 28680, Note_on_c, 0, 83, 73
2, 28800, Note_on_c, 0, 83, 0
2, 28800, Note_on_c, 0, 69, 73
2, 28823, Note_on_c, 0, 69, 0
2, 28920, Note_on_c, 0, 69, 73
2, 28943, Note_on_c, 0, 69, 0
2, 29040, Note_on_c, 0, 83, 73
2, 29063, Note_on_c, 0, 83, 0
2, 29160, Note_on_c, 0, 83, 73
2, 29183, Note_on_c, 0, 83, 0
2, 29280, Note_on_c, 0, 69, 73
2, 29303, Note_on_c, 0, 69, 0
2, 29400, Note_on_c, 0, 69, 73
2, 29423, Note_on_c, 0, 69, 0
2, 29520, Note_on_c, 0, 83, 73
2, 29543, Note_on_c, 0, 83, 0
2, 29640, Note_on_c, 0, 83, 73
2, 29663, Note_on_c, 0, 83, 0
2, 29760, Note_on_c, 0, 85, 73
2, 29783, Note_on_c, 0, 85, 0
2, 29880, Note_on_c, 0, 83, 73
2, 29903, Note_on_c, 0, 83, 0
2, 30000, Note_on_c, 0, 81, 73
2, 30023, Note_on_c, 0, 81, 0
2, 30120, Note_on_c, 0, 79, 73
2, 30143, Note_on_c, 0, 79, 0
2, 30240, Note_on_c, 0, 81, 73
2, 30263, Note_on_c, 0, 81, 0
2, 30360, Note_on_c, 0, 79, 73
2, 30383, Note_on_c, 0, 79, 0
2, 30480, Note_on_c, 0, 78, 73
2, 30503, Note_on_c, 0, 78, 0
2, 30600, Note_on_c, 0, 76, 73
2, 30623, Note_on_c, 0, 76, 0
2, 30720, Note_on_c, 0, 79, 73
2, 30743, Note_on_c, 0, 79, 0
2, 30840, Note_on_c, 0, 78, 73
2, 30863, Note_on_c, 0, 78, 0
2, 30960, Note_on_c, 0, 76, 73
2, 30983, Note_on_c, 0, 76, 0
2, 31080, Note_on_c, 0, 75, 73
2, 31103, Note_on_c, 0, 75, 0
2, 31200, Note_on_c, 0, 76, 73
2, 31223, Note_on_c, 0, 76, 0
2, 31320, Note_on_c, 0, 74, 73
2, 31343, Note_on_c, 0, 74, 0
2, 31440, Note_on_c, 0, 73, 73
2, 31463, Note_on_c, 0, 73, 0
2, 31560, Note_on_c, 0, 71, 73
2, 31583, Note_on_c, 0, 71, 0
2, 31680, Note_on_c, 0, 78, 73
2, 31703, Note_on_c, 0, 78, 0
2, 31800, Note_on_c, 0, 76, 73
2, 31823, Note_on_c, 0, 76, 0
2, 31920, Note_on_c, 0, 74, 73
2, 31943, Note_on_c, 0, 74, 0
2, 32040, Note_on_c, 0, 73, 73
2, 32063, Note_on_c, 0, 73, 0
2, 32160, Note_on_c, 0, 74, 73
2, 32183, Note_on_c, 0, 74, 0
2, 32280, Note_on_c, 0, 73, 73
2, 32303, Note_on_c, 0, 73, 0
2, 32400, Note_on_c, 0, 71, 73
2, 32423, Note_on_c, 0, 71, 0
2, 32520, Note_on_c, 0, 69, 73
2, 32543, Note_on_c, 0, 69, 0
2, 32640, Note_on_c, 0, 67, 73
2, 32640, Note_on_c, 0, 71, 73
2, 32663, Note_on_c, 0, 71, 0
2, 32663, Note_on_c, 0, 67, 0
2, 32760, Note_on_c, 0, 69, 73
2, 32783, Note_on_c, 0, 69, 0
2, 32880, Note_on_c, 0, 68, 73
2, 32903, Note_on_c, 0, 68, 0
2, 33000, Note_on_c, 0, 69, 73
2, 33023, Note_on_c, 0, 69, 0
2, 33120, Note_on_c, 0, 70, 73
2, 33143, Note_on_c, 0, 70, 0
2, 33240, Note_on_c, 0, 71, 73
2, 33263, Note_on_c, 0, 71, 0
2, 33360, Note_on_c, 0, 72, 73
2, 33383, Note_on_c, 0, 72, 0
2, 33480, Note_on_c, 0, 73, 73
2, 33503, Note_on_c, 0, 73, 0
2, 33600, Note_on_c, 0, 74, 73
2, 33647, Note_on_c, 0, 74, 0
2, 33840, Note_on_c, 0, 95, 73
2, 33840, Note_on_c, 0, 103, 73
2, 33960, Note_on_c, 0, 103, 0
2, 33960, Note_on_c, 0, 95, 0
2, 33960, Note_on_c, 0, 94, 73
2, 33960, Note_on_c, 0, 98, 73
2, 34080, Note_on_c, 0, 98, 0
2, 34080, Note_on_c, 0, 94, 0
2, 34080, Note_on_c, 0, 95, 73
2, 34080, Note_on_c, 0, 103, 73
2, 34320, Note_on_c, 0, 103, 0
2, 34320, Note_on_c, 0, 95, 0
2, 34800, Note_on_c, 0, 95, 73
2, 34800, Note_on_c, 0, 102, 73
2, 34920, Note_on_c, 0, 102, 0
2, 34920, Note_on_c, 0, 95, 0
2, 34920, Note_on_c, 0, 94, 73
2, 34920, Note_on_c, 0, 98, 73
2, 35040, Note_on_c, 0, 98, 0
2, 35040, Note_on_c, 0, 94, 0
2, 35040, Note_on_c, 0, 95, 73
2, 35040, Note_on_c, 0, 102, 73
2, 35280, Note_on_c, 0, 102, 0
2, 35280, Note_on_c, 0, 95, 0
2, 35760, Note_on_c, 0, 95, 73
2, 35760, Note_on_c, 0, 103, 73
2, 35880, Note_on_c, 0, 103, 0
2, 35880, Note_on_c, 0, 95, 0
2, 35880, Note_on_c, 0, 94, 73
2, 35880, Note_on_c, 0, 98, 73
2, 36000, Note_on_c, 0, 98, 0
2, 36000, Note_on_c, 0, 94, 0
2, 36000, Note_on_c, 0, 95, 73
2, 36000, Note_on_c, 0, 103, 73
2, 36240, Note_on_c, 0, 103, 0
2, 36240, Note_on_c, 0, 95, 0
2, 36240, Note_on_c, 0, 91, 73
2, 36240, Note_on_c, 0, 98, 73
2, 36360, Note_on_c, 0, 98, 0
2, 36360, Note_on_c, 0, 91, 0
2, 36360, Note_on_c, 0, 90, 73
2, 36360, Note_on_c, 0, 95, 73
2, 36480, Note_on_c, 0, 95, 0
2, 36480, Note_on_c, 0, 90, 0
2, 36480, Note_on_c, 0, 91, 73
2, 36480, Note_on_c, 0, 98, 73
2, 36720, Note_on_c, 0, 98, 0
2, 36720, Note_on_c, 0, 91, 0
2, 36720, Note_on_c, 0, 91, 73
2, 36720, Note_on_c, 0, 100, 73
2, 36840, Note_on_c, 0, 100, 0
2, 36840, Note_on_c, 0, 91, 0
2, 36840, Note_on_c, 0, 90, 73
2, 36840, Note_on_c, 0, 95, 73
2, 36960, Note_on_c, 0, 95, 0
2, 36960, Note_on_c, 0, 90, 0
2, 36960, Note_on_c, 0, 91, 73
2, 36960, Note_on_c, 0, 100, 73
2, 37200, Note_on_c, 0, 100, 0
2, 37200, Note_on_c, 0, 91, 0
2, 37200, Note_on_c, 0, 88, 73
2, 37200, Note_on_c, 0, 98, 73
2, 37320, Note_on_c, 0, 98, 0
2, 37320, Note_on_c, 0, 88, 0
2, 37320, Note_on_c, 0, 87, 73
2, 37320, Note_on_c, 0, 93, 73
2, 37440, Note_on_c, 0, 93, 0
2, 37440, Note_on_c, 0, 87, 0
2, 37440, Note_on_c, 0, 88, 73
2, 37440, Note_on_c, 0, 98, 73
2, 37680, Note_on_c, 0, 98, 0
2, 37680, Note_on_c, 0, 88, 0
2, 37680, Note_on_c, 0, 88, 73
2, 37680, Note_on_c, 0, 96, 73
2, 37800, Note_on_c, 0, 96, 0
2, 37800, Note_on_c, 0, 88, 0
2, 37800, Note_on_c, 0, 87, 73
2, 37800, Note_on_c, 0, 93, 73
2, 37920, Note_on_c, 0, 93, 0
2, 37920, Note_on_c, 0, 87, 0
2, 37920, Note_on_c, 0, 88, 73
2, 37920, Note_on_c, 0, 96, 73
2, 38160, Note_on_c, 0, 96, 0
2, 38160, Note_on_c, 0, 88, 0
2, 38160, Note_on_c, 0, 84, 73
2, 38160, Note_on_c, 0, 95, 73
2, 38280, Note_on_c, 0, 95, 0
2, 38280, Note_on_c, 0, 84, 0
2, 38280, Note_on_c, 0, 83, 73
2, 38280, Note_on_c, 0, 88, 73
2, 38400, Note_on_c, 0, 88, 0
2, 38400, Note_on_c, 0, 83, 0
2, 38400, Note_on_c, 0, 84, 73
2, 38400, Note_on_c, 0, 95, 73
2, 38640, Note_on_c, 0, 95, 0
2, 38640, Note_on_c, 0, 84, 0
2, 38640, Note_on_c, 0, 84, 73
2, 38640, Note_on_c, 0, 93, 73
2, 38760, Note_on_c, 0, 93, 0
2, 38760, Note_on_c, 0, 84, 0
2, 38760, Note_on_c, 0, 83, 73
2, 38760, Note_on_c, 0, 88, 73
2, 38880, Note_on_c, 0, 88, 0
2, 38880, Note_on_c, 0, 83, 0
2, 38880, Note_on_c, 0, 84, 73
2, 38880, Note_on_c, 0, 93, 73
2, 39120, Note_on_c, 0, 93, 0
2, 39120, Note_on_c, 0, 84, 0
2, 39120, Note_on_c, 0, 84, 73
2, 39120, Note_on_c, 0, 91, 73
2, 39240, Note_on_c, 0, 91, 0
2, 39240, Note_on_c, 0, 84, 0
2, 39240, Note_on_c, 0, 81, 73
2, 39240, Note_on_c, 0, 84, 73
2, 39360, Note_on_c, 0, 84, 0
2, 39360, Note_on_c, 0, 81, 0
2, 39360, Note_on_c, 0, 84, 73
2, 39360, Note_on_c, 0, 91, 73
2, 39600, Note_on_c, 0, 91, 0
2, 39600, Note_on_c, 0, 84, 0
2, 39600, Note_on_c, 0, 81, 73
2, 39600, Note_on_c, 0, 90, 73
2, 39720, Note_on_c, 0, 90, 0
2, 39720, Note_on_c, 0, 81, 0
2, 39720, Note_on_c, 0, 80, 73
2, 39720, Note_on_c, 0, 84, 73
2, 39840, Note_on_c, 0, 84, 0
2, 39840, Note_on_c, 0, 80, 0
2, 39840, Note_on_c, 0, 81, 73
2, 39840, Note_on_c, 0, 90, 73
2, 40080, Note_on_c, 0, 90, 0
2, 40080, Note_on_c, 0, 81, 0
2, 40080, Note_on_c, 0, 90, 73
2, 40080, Note_on_c, 0, 100, 73
2, 40200, Note_on_c, 0, 100, 0
2, 40200, Note_on_c, 0, 90, 0
2, 40200, Note_on_c, 0, 89, 73
2, 40200, Note_on_c, 0, 93, 73
2, 40320, Note_on_c, 0, 93, 0
2, 40320, Note_on_c, 0, 89, 0
2, 40320, Note_on_c, 0, 90, 73
2, 40320, Note_on_c, 0, 100, 73
2, 40560, Note_on_c, 0, 100, 0
2, 40560, Note_on_c, 0, 90, 0
2, 40560, Note_on_c, 0, 90, 73
2, 40560, Note_on_c, 0, 98, 73
2, 40680, Note_on_c, 0, 98, 0
2, 40680, Note_on_c, 0, 90, 0
2, 40680, Note_on_c, 0, 89, 73
2, 40680, Note_on_c, 0, 93, 73
2, 40800, Note_on_c, 0, 93, 0
2, 40800, Note_on_c, 0, 89, 0
2, 40800, Note_on_c, 0, 90, 73
2, 40800, Note_on_c, 0, 98, 73
2, 41040, Note_on_c, 0, 98, 0
2, 41040, Note_on_c, 0, 90, 0
2, 41040, Note_on_c, 0, 91, 73
2, 41040, Note_on_c, 0, 98, 73
2, 41160, Note_on_c, 0, 98, 0
2, 41160, Note_on_c, 0, 91, 0
2, 41160, Note_on_c, 0, 90, 73
2, 41160, Note_on_c, 0, 95, 73
2, 41280, Note_on_c, 0, 95, 0
2, 41280, Note_on_c, 0, 90, 0
2, 41280, Note_on_c, 0, 91, 73
2, 41280, Note_on_c, 0, 98, 73
2, 41520, Note_on_c, 0, 98, 0
2, 41520, Note_on_c, 0, 91, 0
2, 41520, Note_on_c, 0, 83, 73
2, 41520, Note_on_c, 0, 91, 73
2, 41640, Note_on_c, 0, 91, 0
2, 41640, Note_on_c, 0, 83, 0
2, 41640, Note_on_c, 0, 82, 73
2, 41640, Note_on_c, 0, 86, 73
2, 41760, Note_on_c, 0, 86, 0
2, 41760, Note_on_c, 0, 82, 0
2, 41760, Note_on_c, 0, 83, 73
2, 41760, Note_on_c, 0, 91, 73
2, 42000, Note_on_c, 0, 91, 0
2, 42000, Note_on_c, 0, 83, 0
2, 42480, Note_on_c, 0, 83, 73
2, 42480, Note_on_c, 0, 90, 73
2, 42600, Note_on_c, 0, 90, 0
2, 42600, Note_on_c, 0, 83, 0
2, 42600, Note_on_c, 0, 82, 73
2, 42600, Note_on_c, 0, 86, 73
2, 42720, Note_on_c, 0, 86, 0
2, 42720, Note_on_c, 0, 82, 0
2, 42720, Note_on_c, 0, 83, 73
2, 42720, Note_on_c, 0, 90, 73
2, 42960, Note_on_c, 0, 90, 0
2, 42960, Note_on_c, 0, 83, 0
2, 43440, Note_on_c, 0, 83, 73
2, 43440, Note_on_c, 0, 91, 73
2, 43560, Note_on_c, 0, 91, 0
2, 43560, Note_on_c, 0, 83, 0
2, 43560, Note_on_c, 0, 82, 73
2, 43560, Note_on_c, 0, 86, 73
2, 43680, Note_on_c, 0, 86, 0
2, 43680, Note_on_c, 0, 82, 0
2, 43680, Note_on_c, 0, 83, 73
2, 43680, Note_on_c, 0, 91, 73
2, 43920, Note_on_c, 0, 91, 0
2, 43920, Note_on_c, 0, 83, 0
2, 43920, Note_on_c, 0, 79, 73
2, 43920, Note_on_c, 0, 86, 73
2, 44040, Note_on_c, 0, 86, 0
2, 44040, Note_on_c, 0, 79, 0
2, 44040, Note_on_c, 0, 78, 73
2, 44040, Note_on_c, 0, 83, 73
2, 44160, Note_on_c, 0, 83, 0
2, 44160, Note_on_c, 0, 78, 0
2, 44160, Note_on_c, 0, 79, 73
2, 44160, Note_on_c, 0, 86, 73
2, 44400, Note_on_c, 0, 86, 0
2, 44400, Note_on_c, 0, 79, 0
2, 44400, Note_on_c, 0, 79, 73
2, 44400, Note_on_c, 0, 88, 73
2, 44520, Note_on_c, 0, 88, 0
2, 44520, Note_on_c, 0, 79, 0
2, 44520, Note_on_c, 0, 78, 73
2, 44520, Note_on_c, 0, 83, 73
2, 44640, Note_on_c, 0, 83, 0
2, 44640, Note_on_c, 0, 78, 0
2, 44640, Note_on_c, 0, 79, 73
2, 44640, Note_on_c, 0, 88, 73
2, 44880, Note_on_c, 0, 88, 0
2, 44880, Note_on_c, 0, 79, 0
2, 44880, Note_on_c, 0, 76, 73
2, 44880, Note_on_c, 0, 86, 73
2, 45000, Note_on_c, 0, 86, 0
2, 45000, Note_on_c, 0, 76, 0
2, 45000, Note_on_c, 0, 75, 73
2, 45000, Note_on_c, 0, 81, 73
2, 45120, Note_on_c, 0, 81, 0
2, 45120, Note_on_c, 0, 75, 0
2, 45120, Note_on_c, 0, 76, 73
2, 45120, Note_on_c, 0, 86, 73
2, 45360, Note_on_c, 0, 86, 0
2, 45360, Note_on_c, 0, 76, 0
2, 45360, Note_on_c, 0, 76, 73
2, 45360, Note_on_c, 0, 84, 73
2, 45480, Note_on_c, 0, 84, 0
2, 45480, Note_on_c, 0, 76, 0
2, 45480, Note_on_c, 0, 75, 73
2, 45480, Note_on_c, 0, 81, 73
2, 45600, Note_on_c, 0, 81, 0
2, 45600, Note_on_c, 0, 75, 0
2, 45600, Note_on_c, 0, 76, 73
2, 45600, Note_on_c, 0, 84, 73
2, 45840, Note_on_c, 0, 84, 0
2, 45840, Note_on_c, 0, 76, 0
2, 45840, Note_on_c, 0, 72, 73
2, 45840, Note_on_c, 0, 83, 73
2, 45960, Note_on_c, 0, 83, 0
2, 45960, Note_on_c, 0, 72, 0
2, 45960, Note_on_c, 0, 71, 73
2, 45960, Note_on_c, 0, 76, 73
2, 46080, Note_on_c, 0, 76, 0
2, 46080, Note_on_c, 0, 71, 0
2, 46080, Note_on_c, 0, 72, 73
2, 46080, Note_on_c, 0, 83, 73
2, 46320, Note_on_c, 0, 83, 0
2, 46320, Note_on_c, 0, 72, 0
2, 46320, Note_on_c, 0, 72, 73
2, 46320, Note_on_c, 0, 81, 73
2, 46440, Note_on_c, 0, 81, 0
2, 46440, Note_on_c, 0, 72, 0
2, 46440, Note_on_c, 0, 71, 73
2, 46440, Note_on_c, 0, 76, 73
2, 46560, Note_on_c, 0, 76, 0
2, 46560, Note_on_c, 0, 71, 0
2, 46560, Note_on_c, 0, 72, 73
2, 46560, Note_on_c, 0, 81, 73
2, 46800, Note_on_c, 0, 81, 0
2, 46800, Note_on_c, 0, 72, 0
2, 46800, Note_on_c, 0, 69, 73
2, 46800, Note_on_c, 0, 79, 73
2, 46920, Note_on_c, 0, 79, 0
2, 46920, Note_on_c, 0, 69, 0
2, 46920, Note_on_c, 0, 67, 73
2, 46920, Note_on_c, 0, 76, 73
2, 47040, Note_on_c, 0, 76, 0
2, 47040, Note_on_c, 0, 67, 0
2, 47040, Note_on_c, 0, 69, 73
2, 47040, Note_on_c, 0, 79, 73
2, 47280, Note_on_c, 0, 79, 0
2, 47280, Note_on_c, 0, 69, 0
2, 47280, Note_on_c, 0, 69, 73
2, 47280, Note_on_c, 0, 78, 73
2, 47400, Note_on_c, 0, 78, 0
2, 47400, Note_on_c, 0, 69, 0
2, 47400, Note_on_c, 0, 67, 73
2, 47400, Note_on_c, 0, 76, 73
2, 47520, Note_on_c, 0, 76, 0
2, 47520, Note_on_c, 0, 67, 0
2, 47520, Note_on_c, 0, 69, 73
2, 47520, Note_on_c, 0, 78, 73
2, 47760, Note_on_c, 0, 78, 0
2, 47760, Note_on_c, 0, 69, 0
2, 47760, Note_on_c, 0, 69, 73
2, 47760, Note_on_c, 0, 79, 73
2, 47880, Note_on_c, 0, 79, 0
2, 47880, Note_on_c, 0, 69, 0
2, 47880, Note_on_c, 0, 67, 73
2, 47880, Note_on_c, 0, 76, 73
2, 48000, Note_on_c, 0, 76, 0
2, 48000, Note_on_c, 0, 67, 0
2, 48000, Note_on_c, 0, 69, 73
2, 48000, Note_on_c, 0, 79, 73
2, 48240, Note_on_c, 0, 79, 0
2, 48240, Note_on_c, 0, 69, 0
2, 48240, Note_on_c, 0, 76, 73
2, 48240, Note_on_c, 0, 81, 73
2, 48360, Note_on_c, 0, 81, 0
2, 48360, Note_on_c, 0, 76, 0
2, 48360, Note_on_c, 0, 69, 73
2, 48360, Note_on_c, 0, 76, 73
2, 48480, Note_on_c, 0, 76, 0
2, 48480, Note_on_c, 0, 69, 0
2, 48480, Note_on_c, 0, 76, 73
2, 48480, Note_on_c, 0, 81, 73
2, 48720, Note_on_c, 0, 81, 0
2, 48720, Note_on_c, 0, 76, 0
2, 48720, Note_on_c, 0, 75, 86
2, 48720, Note_on_c, 0, 83, 86
2, 48840, Note_on_c, 0, 83, 0
2, 48840, Note_on_c, 0, 75, 0
2, 48840, Note_on_c, 0, 75, 86
2, 48840, Note_on_c, 0, 78, 86
2, 48960, Note_on_c, 0, 78, 0
2, 48960, Note_on_c, 0, 75, 0
2, 48960, Note_on_c, 0, 71, 112
2, 48960, Note_on_c, 0, 75, 112
2, 48960, Note_on_c, 0, 83, 112
2, 49440, Note_on_c, 0, 83, 0
2, 49440, Note_on_c, 0, 75, 0
2, 49440, Note_on_c, 0, 71, 0
2, 49440, Control_c, 0, 64, 127
2, 52320, Control_c, 0, 64, 0
2, 52320, End_track
3, 0, Start_track
3, 0, Title_t, "Grand Piano"
3, 0, Program_c, 0, 0
3, 0, Control_c, 0, 7, 115
3, 0, Control_c, 0, 10, 80
3, 0, Note_on_c, 0, 74, 93
3, 240, Note_on_c, 0, 74, 0
3, 480, Note_on_c, 0, 74, 93
3, 720, Note_on_c, 0, 74, 0
3, 960, Note_on_c, 0, 74, 93
3, 1200, Note_on_c, 0, 74, 0
3, 1440, Note_on_c, 0, 74, 93
3, 1680, Note_on_c, 0, 74, 0
3, 1920, Note_on_c, 0, 74, 93
3, 2160, Note_on_c, 0, 74, 0
3, 2400, Note_on_c, 0, 74, 93
3, 2640, Note_on_c, 0, 74, 0
3, 2880, Note_on_c, 0, 74, 93
3, 2927, Note_on_c, 0, 74, 0
3, 3120, Note_on_c, 0, 74, 93
3, 3240, Note_on_c, 0, 74, 0
3, 3240, Note_on_c, 0, 79, 93
3, 3360, Note_on_c, 0, 79, 0
3, 3360, Note_on_c, 0, 74, 93
3, 3600, Note_on_c, 0, 74, 0
3, 3600, Note_on_c, 0, 62, 93
3, 3600, Note_on_c, 0, 71, 93
3, 3600, Note_on_c, 0, 74, 93
3, 3647, Note_on_c, 0, 74, 0
3, 3647, Note_on_c, 0, 71, 0
3, 3647, Note_on_c, 0, 62, 0
3, 3840, Note_on_c, 0, 67, 93
3, 3840, Note_on_c, 0, 71, 93
3, 3840, Note_on_c, 0, 74, 93
3, 3887, Note_on_c, 0, 74, 0
3, 3887, Note_on_c, 0, 71, 0
3, 3887, Note_on_c, 0, 67, 0
3, 4080, Note_on_c, 0, 74, 93
3, 4200, Note_on_c, 0, 74, 0
3, 4200, Note_on_c, 0, 79, 93
3, 4320, Note_on_c, 0, 79, 0
3, 4320, Note_on_c, 0, 74, 93
3, 4560, Note_on_c, 0, 74, 0
3, 4560, Note_on_c, 0, 62, 93
3, 4560, Note_on_c, 0, 71, 93
3, 4560, Note_on_c, 0, 74, 93
3, 4607, Note_on_c, 0, 74, 0
3, 4607, Note_on_c, 0, 71, 0
3, 4607, Note_on_c, 0, 62, 0
3, 4800, Note_on_c, 0, 67, 93
3, 4800, Note_on_c, 0, 71, 93
3, 4800, Note_on_c, 0, 74, 93
3, 4847, Note_on_c, 0, 74, 0
3, 4847, Note_on_c, 0, 71, 0
3, 4847, Note_on_c, 0, 67, 0
3, 5040, Note_on_c, 0, 74, 93
3, 5160, Note_on_c, 0, 74, 0
3, 5160, Note_on_c, 0, 79, 93
3, 5280, Note_on_c, 0, 79, 0
3, 5280, Note_on_c, 0, 74, 93
3, 5520, Note_on_c, 0, 74, 0
3, 5520, Note_on_c, 0, 71, 93
3, 5640, Note_on_c, 0, 71, 0
3, 5640, Note_on_c, 0, 74, 93
3, 5760, Note_on_c, 0, 74, 0
3, 5760, Note_on_c, 0, 71, 93
3, 6000, Note_on_c, 0, 71, 0
3, 6000, Note_on_c, 0, 71, 93
3, 6120, Note_on_c, 0, 71, 0
3, 6120, Note_on_c, 0, 76, 93
3, 6240, Note_on_c, 0, 76, 0
3, 6240, Note_on_c, 0, 71, 93
3, 6480, Note_on_c, 0, 71, 0
3, 6480, Note_on_c, 0, 69, 93
3, 6600, Note_on_c, 0, 69, 0
3, 6600, Note_on_c, 0, 72, 93
3, 6720, Note_on_c, 0, 72, 0
3, 6720, Note_on_c, 0, 69, 93
3, 6960, Note_on_c, 0, 69, 0
3, 6960, Note_on_c, 0, 69, 93
3, 7080, Note_on_c, 0, 69, 0
3, 7080, Note_on_c, 0, 72, 93
3, 7200, Note_on_c, 0, 72, 0
3, 7200, Note_on_c, 0, 69, 93
3, 7440, Note_on_c, 0, 69, 0
3, 7440, Note_on_c, 0, 64, 93
3, 7560, Note_on_c, 0, 64, 0
3, 7560, Note_on_c, 0, 69, 93
3, 7680, Note_on_c, 0, 69, 0
3, 7680, Note_on_c, 0, 64, 93
3, 7920, Note_on_c, 0, 64, 0
3, 7920, Note_on_c, 0, 64, 93
3, 8040, Note_on_c, 0, 64, 0
3, 8040, Note_on_c, 0, 69, 93
3, 8160, Note_on_c, 0, 69, 0
3, 8160, Note_on_c, 0, 64, 93
3, 8400, Note_on_c, 0, 64, 0
3, 8400, Note_on_c, 0, 62, 93
3, 8520, Note_on_c, 0, 62, 0
3, 8520, Note_on_c, 0, 67, 93
3, 8640, Note_on_c, 0, 67, 0
3, 8640, Note_on_c, 0, 62, 93
3, 8880, Note_on_c, 0, 62, 0
3, 8880, Note_on_c, 0, 62, 93
3, 9000, Note_on_c, 0, 62, 0
3, 9000, Note_on_c, 0, 66, 93
3, 9120, Note_on_c, 0, 66, 0
3, 9120, Note_on_c, 0, 62, 93
3, 9360, Note_on_c, 0, 62, 0
3, 9360, Note_on_c, 0, 69, 93
3, 9480, Note_on_c, 0, 69, 0
3, 9480, Note_on_c, 0, 72, 93
3, 9600, Note_on_c, 0, 72, 0
3, 9600, Note_on_c, 0, 69, 93
3, 9840, Note_on_c, 0, 69, 0
3, 9840, Note_on_c, 0, 69, 93
3, 9960, Note_on_c, 0, 69, 0
3, 9960, Note_on_c, 0, 72, 93
3, 10080, Note_on_c, 0, 72, 0
3, 10080, Note_on_c, 0, 69, 93
3, 10320, Note_on_c, 0, 69, 0
3, 10320, Note_on_c, 0, 71, 93
3, 10440, Note_on_c, 0, 71, 0
3, 10440, Note_on_c, 0, 74, 93
3, 10560, Note_on_c, 0, 74, 0
3, 10560, Note_on_c, 0, 74, 93
3, 10607, Note_on_c, 0, 74, 0
3, 10800, Note_on_c, 0, 74, 93
3, 10920, Note_on_c, 0, 74, 0
3, 10920, Note_on_c, 0, 79, 93
3, 11040, Note_on_c, 0, 79, 0
3, 11040, Note_on_c, 0, 74, 93
3, 11280, Note_on_c, 0, 74, 0
3, 11280, Note_on_c, 0, 62, 93
3, 11280, Note_on_c, 0, 71, 93
3, 11280, Note_on_c, 0, 74, 93
3, 11327, Note_on_c, 0, 74, 0
3, 11327, Note_on_c, 0, 71, 0
3, 11327, Note_on_c, 0, 62, 0
3, 11520, Note_on_c, 0, 67, 93
3, 11520, Note_on_c, 0, 71, 93
3, 11520, Note_on_c, 0, 74, 93
3, 11567, Note_on_c, 0, 74, 0
3, 11567, Note_on_c, 0, 71, 0
3, 11567, Note_on_c, 0, 67, 0
3, 11760, Note_on_c, 0, 74, 93
3, 11880, Note_on_c, 0, 74, 0
3, 11880, Note_on_c, 0, 79, 93
3, 12000, Note_on_c, 0, 79, 0
3, 12000, Note_on_c, 0, 74, 93
3, 12240, Note_on_c, 0, 74, 0
3, 12240, Note_on_c, 0, 62, 93
3, 12240, Note_on_c, 0, 71, 93
3, 12240, Note_on_c, 0, 74, 93
3, 12287, Note_on_c, 0, 74, 0
3, 12287, Note_on_c, 0, 71, 0
3, 12287, Note_on_c, 0, 62, 0
3, 12480, Note_on_c, 0, 67, 93
3, 12480, Note_on_c, 0, 71, 93
3, 12480, Note_on_c, 0, 74, 93
3, 12527, Note_on_c, 0, 74, 0
3, 12527, Note_on_c, 0, 71, 0
3, 12527, Note_on_c, 0, 67, 0
3, 12720, Note_on_c, 0, 74, 93
3, 12840, Note_on_c, 0, 74, 0
3, 12840, Note_on_c, 0, 79, 93
3, 12960, Note_on_c, 0, 79, 0
3, 12960, Note_on_c, 0, 74, 93
3, 13200, Note_on_c, 0, 74, 0
3, 13200, Note_on_c, 0, 71, 93
3, 13320, Note_on_c, 0, 71, 0
3, 13320, Note_on_c, 0, 74, 93
3, 13440, Note_on_c, 0, 74, 0
3, 13440, Note_on_c, 0, 71, 93
3, 13680, Note_on_c, 0, 71, 0
3, 13680, Note_on_c, 0, 71, 93
3, 13800, Note_on_c, 0, 71, 0
3, 13800, Note_on_c, 0, 76, 93
3, 13920, Note_on_c, 0, 76, 0
3, 13920, Note_on_c, 0, 71, 93
3, 14160, Note_on_c, 0, 71, 0
3, 14160, Note_on_c, 0, 69, 93
3, 14280, Note_on_c, 0, 69, 0
3, 14280, Note_on_c, 0, 72, 93
3, 14400, Note_on_c, 0, 72, 0
3, 14400, Note_on_c, 0, 69, 93
3, 14640, Note_on_c, 0, 69, 0
3, 14640, Note_on_c, 0, 69, 93
3, 14760, Note_on_c, 0, 69, 0
3, 14760, Note_on_c, 0, 72, 93
3, 14880, Note_on_c, 0, 72, 0
3, 14880, Note_on_c, 0, 69, 93
3, 15120, Note_on_c, 0, 69, 0
3, 15120, Note_on_c, 0, 64, 93
3, 15240, Note_on_c, 0, 64, 0
3, 15240, Note_on_c, 0, 69, 93
3, 15360, Note_on_c, 0, 69, 0
3, 15360, Note_on_c, 0, 64, 93
3, 15600, Note_on_c, 0, 64, 0
3, 15600, Note_on_c, 0, 64, 93
3, 15720, Note_on_c, 0, 64, 0
3, 15720, Note_on_c, 0, 69, 93
3, 15840, Note_on_c, 0, 69, 0
3, 15840, Note_on_c, 0, 64, 93
3, 16080, Note_on_c, 0, 64, 0
3, 16080, Note_on_c, 0, 62, 93
3, 16200, Note_on_c, 0, 62, 0
3, 16200, Note_on_c, 0, 67, 93
3, 16320, Note_on_c, 0, 67, 0
3, 16320, Note_on_c, 0, 62, 93
3, 16560, Note_on_c, 0, 62, 0
3, 16560, Note_on_c, 0, 62, 93
3, 16680, Note_on_c, 0, 62, 0
3, 16680, Note_on_c, 0, 66, 93
3, 16800, Note_on_c, 0, 66, 0
3, 16800, Note_on_c, 0, 62, 93
3, 17040, Note_on_c, 0, 62, 0
3, 17040, Note_on_c, 0, 69, 93
3, 17160, Note_on_c, 0, 69, 0
3, 17160, Note_on_c, 0, 72, 93
3, 17280, Note_on_c, 0, 72, 0
3, 17280, Note_on_c, 0, 69, 93
3, 17520, Note_on_c, 0, 69, 0
3, 17520, Note_on_c, 0, 69, 93
3, 17640, Note_on_c, 0, 69, 0
3, 17640, Note_on_c, 0, 72, 93
3, 17760, Note_on_c, 0, 72, 0
3, 17760, Note_on_c, 0, 69, 93
3, 18000, Note_on_c, 0, 69, 0
3, 18000, Note_on_c, 0, 71, 93
3, 18120, Note_on_c, 0, 71, 0
3, 18120, Note_on_c, 0, 74, 93
3, 18240, Note_on_c, 0, 74, 0
3, 18240, Note_on_c, 0, 71, 93
3, 18480, Note_on_c, 0, 71, 0
3, 22080, Note_on_c, 0, 79, 80
3, 23040, Note_on_c, 0, 79, 0
3, 23040, Note_on_c, 0, 67, 80
3, 24960, Note_on_c, 0, 67, 0
3, 29760, Note_on_c, 0, 79, 80
3, 30720, Note_on_c, 0, 79, 0
3, 30720, Note_on_c, 0, 67, 80
3, 32640, Note_on_c, 0, 67, 0
3, 33840, Note_on_c, 0, 86, 80
3, 33960, Note_on_c, 0, 86, 0
3, 33960, Note_on_c, 0, 91, 80
3, 34080, Note_on_c, 0, 91, 0
3, 34080, Note_on_c, 0, 86, 80
3, 34320, Note_on_c, 0, 86, 0
3, 34320, Note_on_c, 0, 74, 80
3, 34320, Note_on_c, 0, 83, 80
3, 34320, Note_on_c, 0, 86, 80
3, 34367, Note_on_c, 0, 86, 0
3, 34367, Note_on_c, 0, 83, 0
3, 34367, Note_on_c, 0, 74, 0
3, 34560, Note_on_c, 0, 79, 80
3, 34560, Note_on_c, 0, 83, 80
3, 34560, Note_on_c, 0, 86, 80
3, 34607, Note_on_c, 0, 86, 0
3, 34607, Note_on_c, 0, 83, 0
3, 34607, Note_on_c, 0, 79, 0
3, 34800, Note_on_c, 0, 86, 80
3, 34920, Note_on_c, 0, 86, 0
3, 34920, Note_on_c, 0, 91, 80
3, 35040, Note_on_c, 0, 91, 0
3, 35040, Note_on_c, 0, 86, 80
3, 35280, Note_on_c, 0, 86, 0
3, 35280, Note_on_c, 0, 74, 80
3, 35280, Note_on_c, 0, 83, 80
3, 35280, Note_on_c, 0, 86, 80
3, 35327, Note_on_c, 0, 86, 0
3, 35327, Note_on_c, 0, 83, 0
3, 35327, Note_on_c, 0, 74, 0
3, 35520, Note_on_c, 0, 79, 80
3, 35520, Note_on_c, 0, 83, 80
3, 35520, Note_on_c, 0, 86, 80
3, 35567, Note_on_c, 0, 86, 0
3, 35567, Note_on_c, 0, 83, 0
3, 35567, Note_on_c, 0, 79, 0
3, 35760, Note_on_c, 0, 86, 80
3, 35880, Note_on_c, 0, 86, 0
3, 35880, Note_on_c, 0, 91, 80
3, 36000, Note_on_c, 0, 91, 0
3, 36000, Note_on_c, 0, 86, 80
3, 36240, Note_on_c, 0, 86, 0
3, 36240, Note_on_c, 0, 83, 80
3, 36360, Note_on_c, 0, 83, 0
3, 36360, Note_on_c, 0, 86, 80
3, 36480, Note_on_c, 0, 86, 0
3, 36480, Note_on_c, 0, 83, 80
3, 36720, Note_on_c, 0, 83, 0
3, 36720, Note_on_c, 0, 83, 80
3, 36840, Note_on_c, 0, 83, 0
3, 36840, Note_on_c, 0, 88, 80
3, 36960, Note_on_c, 0, 88, 0
3, 36960, Note_on_c, 0, 83, 80
3, 37200, Note_on_c, 0, 83, 0
3, 37200, Note_on_c, 0, 81, 80
3, 37320, Note_on_c, 0, 81, 0
3, 37320, Note_on_c, 0, 84, 80
3, 37440, Note_on_c, 0, 84, 0
3, 37440, Note_on_c, 0, 81, 80
3, 37680, Note_on_c, 0, 81, 0
3, 37680, Note_on_c, 0, 81, 80
3, 37800, Note_on_c, 0, 81, 0
3, 37800, Note_on_c, 0, 84, 80
3, 37920, Note_on_c, 0, 84, 0
3, 37920, Note_on_c, 0, 81, 80
3, 38160, Note_on_c, 0, 81, 0
3, 38160, Note_on_c, 0, 76, 80
3, 38280, Note_on_c, 0, 76, 0
3, 38280, Note_on_c, 0, 81, 80
3, 38400, Note_on_c, 0, 81, 0
3, 38400, Note_on_c, 0, 76, 80
3, 38640, Note_on_c, 0, 76, 0
3, 38640, Note_on_c, 0, 76, 80
3, 38760, Note_on_c, 0, 76, 0
3, 38760, Note_on_c, 0, 81, 80
3, 38880, Note_on_c, 0, 81, 0
3, 38880, Note_on_c, 0, 76, 80
3, 39120, Note_on_c, 0, 76, 0
3, 39120, Note_on_c, 0, 74, 80
3, 39240, Note_on_c, 0, 74, 0
3, 39240, Note_on_c, 0, 79, 80
3, 39360, Note_on_c, 0, 79, 0
3, 39360, Note_on_c, 0, 74, 80
3, 39600, Note_on_c, 0, 74, 0
3, 39600, Note_on_c, 0, 74, 80
3, 39720, Note_on_c, 0, 74, 0
3, 39720, Note_on_c, 0, 78, 80
3, 39840, Note_on_c, 0, 78, 0
3, 39840, Note_on_c, 0, 74, 80
3, 40080, Note_on_c, 0, 74, 0
3, 40080, Note_on_c, 0, 81, 80
3, 40200, Note_on_c, 0, 81, 0
3, 40200, Note_on_c, 0, 84, 80
3, 40320, Note_on_c, 0, 84, 0
3, 40320, Note_on_c, 0, 81, 80
3, 40560, Note_on_c, 0, 81, 0
3, 40560, Note_on_c, 0, 81, 80
3, 40680, Note_on_c, 0, 81, 0
3, 40680, Note_on_c, 0, 84, 80
3, 40800, Note_on_c, 0, 84, 0
3, 40800, Note_on_c, 0, 81, 80
3, 41040, Note_on_c, 0, 81, 0
3, 41040, Note_on_c, 0, 83, 80
3, 41160, Note_on_c, 0, 83, 0
3, 41160, Note_on_c, 0, 86, 80
3, 41280, Note_on_c, 0, 86, 0
3, 41280, Note_on_c, 0, 86, 80
3, 41327, Note_on_c, 0, 86, 0
3, 41520, Note_on_c, 0, 74, 80
3, 41640, Note_on_c, 0, 74, 0
3, 41640, Note_on_c, 0, 79, 80
3, 41760, Note_on_c, 0, 79, 0
3, 41760, Note_on_c, 0, 74, 80
3, 42000, Note_on_c, 0, 74, 0
3, 42000, Note_on_c, 0, 62, 80
3, 42000, Note_on_c, 0, 71, 80
3, 42000, Note_on_c, 0, 74, 80
3, 42047, Note_on_c, 0, 74, 0
3, 42047, Note_on_c, 0, 71, 0
3, 42047, Note_on_c, 0, 62, 0
3, 42240, Note_on_c, 0, 67, 80
3, 42240, Note_on_c, 0, 71, 80
3, 42240, Note_on_c, 0, 74, 80
3, 42287, Note_on_c, 0, 74, 0
3, 42287, Note_on_c, 0, 71, 0
3, 42287, Note_on_c, 0, 67, 0
3, 42480, Note_on_c, 0, 74, 80
3, 42600, Note_on_c, 0, 74, 0
3, 42600, Note_on_c, 0, 79, 80
3, 42720, Note_on_c, 0, 79, 0
3, 42720, Note_on_c, 0, 74, 80
3, 42960, Note_on_c, 0, 74, 0
3, 42960, Note_on_c, 0, 62, 80
3, 42960, Note_on_c, 0, 71, 80
3, 42960, Note_on_c, 0, 74, 80
3, 43007, Note_on_c, 0, 74, 0
3, 43007, Note_on_c, 0, 71, 0
3, 43007, Note_on_c, 0, 62, 0
3, 43200, Note_on_c, 0, 67, 80
3, 43200, Note_on_c, 0, 71, 80
3, 43200, Note_on_c, 0, 74, 80
3, 43247, Note_on_c, 0, 74, 0
3, 43247, Note_on_c, 0, 71, 0
3, 43247, Note_on_c, 0, 67, 0
3, 43440, Note_on_c, 0, 74, 80
3, 43560, Note_on_c, 0, 74, 0
3, 43560, Note_on_c, 0, 79, 80
3, 43680, Note_on_c, 0, 79, 0
3, 43680, Note_on_c, 0, 74, 80
3, 43920, Note_on_c, 0, 74, 0
3, 43920, Note_on_c, 0, 71, 80
3, 44040, Note_on_c, 0, 71, 0
3, 44040, Note_on_c, 0, 74, 80
3, 44160, Note_on_c, 0, 74, 0
3, 44160, Note_on_c, 0, 71, 80
3, 44400, Note_on_c, 0, 71, 0
3, 44400, Note_on_c, 0, 71, 80
3, 44520, Note_on_c, 0, 71, 0
3, 44520, Note_on_c, 0, 76, 80
3, 44640, Note_on_c, 0, 76, 0
3, 44640, Note_on_c, 0, 71, 80
3, 44880, Note_on_c, 0, 71, 0
3, 44880, Note_on_c, 0, 69, 80
3, 45000, Note_on_c, 0, 69, 0
3, 45000, Note_on_c, 0, 72, 80
3, 45120, Note_on_c, 0, 72, 0
3, 45120, Note_on_c, 0, 69, 80
3, 45360, Note_on_c, 0, 69, 0
3, 45360, Note_on_c, 0, 69, 80
3, 45480, Note_on_c, 0, 69, 0
3, 45480, Note_on_c, 0, 72, 80
3, 45600, Note_on_c, 0, 72, 0
3, 45600, Note_on_c, 0, 69, 80
3, 45840, Note_on_c, 0, 69, 0
3, 45840, Note_on_c, 0, 64, 80
3, 45960, Note_on_c, 0, 64, 0
3, 45960, Note_on_c, 0, 69, 80
3, 46080, Note_on_c, 0, 69, 0
3, 46080, Note_on_c, 0, 64, 80
3, 46320, Note_on_c, 0, 64, 0
3, 46320, Note_on_c, 0, 64, 80
3, 46440, Note_on_c, 0, 64, 0
3, 46440, Note_on_c, 0, 69, 80
3, 46560, Note_on_c, 0, 69, 0
3, 46560, Note_on_c, 0, 64, 80
3, 46800, Note_on_c, 0, 64, 0
3, 46800, End_track
4, 0, Start_track
4, 0, Title_t, "Grand Piano"
4, 0, Program_c, 0, 0
4, 0, Control_c, 0, 7, 115
4, 0, Control_c, 0, 10, 41
4, 4080, Note_on_c, 0, 67, 93
4, 4320, Note_on_c, 0, 67, 0
4, 5040, Note_on_c, 0, 67, 93
4, 5280, Note_on_c, 0, 67, 0
4, 5520, Note_on_c, 0, 67, 93
4, 5760, Note_on_c, 0, 67, 0
4, 6000, Note_on_c, 0, 67, 93
4, 6240, Note_on_c, 0, 67, 0
4, 6480, Note_on_c, 0, 67, 93
4, 6720, Note_on_c, 0, 67, 0
4, 6960, Note_on_c, 0, 67, 93
4, 7200, Note_on_c, 0, 67, 0
4, 7440, Note_on_c, 0, 55, 93
4, 7680, Note_on_c, 0, 55, 0
4, 7920, Note_on_c, 0, 55, 93
4, 8160, Note_on_c, 0, 55, 0
4, 8400, Note_on_c, 0, 55, 93
4, 8640, Note_on_c, 0, 55, 0
4, 8880, Note_on_c, 0, 55, 93
4, 9120, Note_on_c, 0, 55, 0
4, 9360, Note_on_c, 0, 67, 93
4, 9600, Note_on_c, 0, 67, 0
4, 9840, Note_on_c, 0, 67, 93
4, 10080, Note_on_c, 0, 67, 0
4, 10320, Note_on_c, 0, 67, 93
4, 10560, Note_on_c, 0, 67, 0
4, 11760, Note_on_c, 0, 67, 93
4, 12000, Note_on_c, 0, 67, 0
4, 12720, Note_on_c, 0, 67, 93
4, 12960, Note_on_c, 0, 67, 0
4, 13200, Note_on_c, 0, 67, 93
4, 13440, Note_on_c, 0, 67, 0
4, 13680, Note_on_c, 0, 67, 93
4, 13920, Note_on_c, 0, 67, 0
4, 14160, Note_on_c, 0, 67, 93
4, 14400, Note_on_c, 0, 67, 0
4, 14640, Note_on_c, 0, 67, 93
4, 14880, Note_on_c, 0, 67, 0
4, 15120, Note_on_c, 0, 55, 93
4, 15360, Note_on_c, 0, 55, 0
4, 15600, Note_on_c, 0, 55, 93
4, 15840, Note_on_c, 0, 55, 0
4, 16080, Note_on_c, 0, 55, 93
4, 16320, Note_on_c, 0, 55, 0
4, 16560, Note_on_c, 0, 55, 93
4, 16800, Note_on_c, 0, 55, 0
4, 17040, Note_on_c, 0, 67, 93
4, 17280, Note_on_c, 0, 67, 0
4, 17520, Note_on_c, 0, 67, 93
4, 17760, Note_on_c, 0, 67, 0
4, 18000, Note_on_c, 0, 67, 93
4, 18240, Note_on_c, 0, 67, 0
4, 18480, Note_on_c, 0, 55, 93
4, 18600, Note_on_c, 0, 55, 0
4, 18600, Note_on_c, 0, 62, 93
4, 18720, Note_on_c, 0, 62, 0
4, 18720, Note_on_c, 0, 47, 80
4, 18720, Note_on_c, 0, 54, 80
4, 18720, Note_on_c, 0, 63, 80
4, 18960, Note_on_c, 0, 63, 0
4, 18960, Note_on_c, 0, 54, 0
4, 18960, Note_on_c, 0, 47, 0
4, 19200, Note_on_c, 0, 49, 80
4, 19200, Note_on_c, 0, 59, 80
4, 19200, Note_on_c, 0, 64, 80
4, 19440, Note_on_c, 0, 64, 0
4, 19440, Note_on_c, 0, 59, 0
4, 19440, Note_on_c, 0, 49, 0
4, 19680, Note_on_c, 0, 50, 80
4, 19680, Note_on_c, 0, 59, 80
4, 19680, Note_on_c, 0, 65, 80
4, 19920, Note_on_c, 0, 65, 0
4, 19920, Note_on_c, 0, 59, 0
4, 19920, Note_on_c, 0, 50, 0
4, 20160, Note_on_c, 0, 51, 80
4, 20160, Note_on_c, 0, 59, 80
4, 20160, Note_on_c, 0, 66, 80
4, 20400, Note_on_c, 0, 66, 0
4, 20400, Note_on_c, 0, 59, 0
4, 20400, Note_on_c, 0, 51, 0
4, 20640, Note_on_c, 0, 52, 80
4, 20640, Note_on_c, 0, 59, 80
4, 20640, Note_on_c, 0, 61, 80
4, 20880, Note_on_c, 0, 61, 0
4, 20880, Note_on_c, 0, 59, 0
4, 20880, Note_on_c, 0, 52, 0
4, 21120, Note_on_c, 0, 53, 80
4, 21120, Note_on_c, 0, 59, 80
4, 21120, Note_on_c, 0, 62, 80
4, 21360, Note_on_c, 0, 62, 0
4, 21360, Note_on_c, 0, 59, 0
4, 21360, Note_on_c, 0, 53, 0
4, 21600, Note_on_c, 0, 54, 80
4, 21600, Note_on_c, 0, 59, 80
4, 21600, Note_on_c, 0, 63, 80
4, 21840, Note_on_c, 0, 63, 0
4, 21840, Note_on_c, 0, 59, 0
4, 21840, Note_on_c, 0, 54, 0
4, 22080, Note_on_c, 0, 52, 80
4, 22080, Note_on_c, 0, 55, 80
4, 22080, Note_on_c, 0, 59, 80
4, 22320, Note_on_c, 0, 59, 0
4, 22320, Note_on_c, 0, 55, 0
4, 22320, Note_on_c, 0, 52, 0
4, 22320, Note_on_c, 0, 52, 80
4, 22320, Note_on_c, 0, 55, 80
4, 22320, Note_on_c, 0, 59, 80
4, 22560, Note_on_c, 0, 59, 0
4, 22560, Note_on_c, 0, 55, 0
4, 22560, Note_on_c, 0, 52, 0
4, 22800, Note_on_c, 0, 52, 80
4, 22800, Note_on_c, 0, 55, 80
4, 22800, Note_on_c, 0, 59, 80
4, 23040, Note_on_c, 0, 59, 0
4, 23040, Note_on_c, 0, 55, 0
4, 23040, Note_on_c, 0, 52, 0
4, 23040, Note_on_c, 0, 52, 80
4, 23040, Note_on_c, 0, 55, 80
4, 23040, Note_on_c, 0, 59, 80
4, 23280, Note_on_c, 0, 59, 0
4, 23280, Note_on_c, 0, 55, 0
4, 23280, Note_on_c, 0, 52, 0
4, 23280, Note_on_c, 0, 52, 80
4, 23280, Note_on_c, 0, 55, 80
4, 23280, Note_on_c, 0, 59, 80
4, 23520, Note_on_c, 0, 59, 0
4, 23520, Note_on_c, 0, 55, 0
4, 23520, Note_on_c, 0, 52, 0
4, 23760, Note_on_c, 0, 52, 80
4, 23760, Note_on_c, 0, 55, 80
4, 23760, Note_on_c, 0, 59, 80
4, 24000, Note_on_c, 0, 59, 0
4, 24000, Note_on_c, 0, 55, 0
4, 24000, Note_on_c, 0, 52, 0
4, 24000, Note_on_c, 0, 45, 80
4, 24000, Note_on_c, 0, 52, 80
4, 24000, Note_on_c, 0, 55, 80
4, 24240, Note_on_c, 0, 55, 0
4, 24240, Note_on_c, 0, 52, 0
4, 24240, Note_on_c, 0, 45, 0
4, 24240, Note_on_c, 0, 45, 80
4, 24240, Note_on_c, 0, 52, 80
4, 24240, Note_on_c, 0, 55, 80
4, 24480, Note_on_c, 0, 55, 0
4, 24480, Note_on_c, 0, 52, 0
4, 24480, Note_on_c, 0, 45, 0
4, 24720, Note_on_c, 0, 45, 80
4, 24720, Note_on_c, 0, 52, 80
4, 24720, Note_on_c, 0, 55, 80
4, 24960, Note_on_c, 0, 55, 0
4, 24960, Note_on_c, 0, 52, 0
4, 24960, Note_on_c, 0, 45, 0
4, 25200, Note_on_c, 0, 45, 80
4, 25200, Note_on_c, 0, 52, 80
4, 25200, Note_on_c, 0, 55, 80
4, 25440, Note_on_c, 0, 55, 0
4, 25440, Note_on_c, 0, 52, 0
4, 25440, Note_on_c, 0, 45, 0
4, 25680, Note_on_c, 0, 55, 80
4, 25680, Note_on_c, 0, 57, 80
4, 25680, Note_on_c, 0, 61, 80
4, 25920, Note_on_c, 0, 61, 0
4, 25920, Note_on_c, 0, 57, 0
4, 25920, Note_on_c, 0, 55, 0
4, 25920, Note_on_c, 0, 50, 80
4, 25920, Note_on_c, 0, 54, 80
4, 25920, Note_on_c, 0, 57, 80
4, 25920, Note_on_c, 0, 62, 80
4, 26160, Note_on_c, 0, 62, 0
4, 26160, Note_on_c, 0, 50, 0
4, 26160, Note_on_c, 0, 54, 0
4, 26160, Note_on_c, 0, 57, 0
4, 26400, Note_on_c, 0, 47, 80
4, 26400, Note_on_c, 0, 54, 80
4, 26400, Note_on_c, 0, 63, 80
4, 26640, Note_on_c, 0, 63, 0
4, 26640, Note_on_c, 0, 54, 0
4, 26640, Note_on_c, 0, 47, 0
4, 26880, Note_on_c, 0, 49, 80
4, 26880, Note_on_c, 0, 59, 80
4, 26880, Note_on_c, 0, 64, 80
4, 27120, Note_on_c, 0, 64, 0
4, 27120, Note_on_c, 0, 59, 0
4, 27120, Note_on_c, 0, 49, 0
4, 27360, Note_on_c, 0, 50, 80
4, 27360, Note_on_c, 0, 59, 80
4, 27360, Note_on_c, 0, 65, 80
4, 27600, Note_on_c, 0, 65, 0
4, 27600, Note_on_c, 0, 59, 0
4, 27600, Note_on_c, 0, 50, 0
4, 27840, Note_on_c, 0, 51, 80
4, 27840, Note_on_c, 0, 59, 80
4, 27840, Note_on_c, 0, 66, 80
4, 28080, Note_on_c, 0, 66, 0
4, 28080, Note_on_c, 0, 59, 0
4, 28080, Note_on_c, 0, 51, 0
4, 28320, Note_on_c, 0, 52, 80
4, 28320, Note_on_c, 0, 59, 80
4, 28320, Note_on_c, 0, 61, 80
4, 28560, Note_on_c, 0, 61, 0
4, 28560, Note_on_c, 0, 59, 0
4, 28560, Note_on_c, 0, 52, 0
4, 28800, Note_on_c, 0, 53, 80
4, 28800, Note_on_c, 0, 59, 80
4, 28800, Note_on_c, 0, 62, 80
4, 29040, Note_on_c, 0, 62, 0
4, 29040, Note_on_c, 0, 59, 0
4, 29040, Note_on_c, 0, 53, 0
4, 29280, Note_on_c, 0, 54, 80
4, 29280, Note_on_c, 0, 59, 80
4, 29280, Note_on_c, 0, 63, 80
4, 29520, Note_on_c, 0, 63, 0
4, 29520, Note_on_c, 0, 59, 0
4, 29520, Note_on_c, 0, 54, 0
4, 29760, Note_on_c, 0, 52, 80
4, 29760, Note_on_c, 0, 55, 80
4, 29760, Note_on_c, 0, 59, 80
4, 30000, Note_on_c, 0, 59, 0
4, 30000, Note_on_c, 0, 55, 0
4, 30000, Note_on_c, 0, 52, 0
4, 30000, Note_on_c, 0, 52, 80
4, 30000, Note_on_c, 0, 55, 80
4, 30000, Note_on_c, 0, 59, 80
4, 30240, Note_on_c, 0, 59, 0
4, 30240, Note_on_c, 0, 55, 0
4, 30240, Note_on_c, 0, 52, 0
4, 30480, Note_on_c, 0, 52, 80
4, 30480, Note_on_c, 0, 55, 80
4, 30480, Note_on_c, 0, 59, 80
4, 30720, Note_on_c, 0, 59, 0
4, 30720, Note_on_c, 0, 55, 0
4, 30720, Note_on_c, 0, 52, 0
4, 30720, Note_on_c, 0, 52, 80
4, 30720, Note_on_c, 0, 55, 80
4, 30720, Note_on_c, 0, 59, 80
4, 30960, Note_on_c, 0, 59, 0
4, 30960, Note_on_c, 0, 55, 0
4, 30960, Note_on_c, 0, 52, 0
4, 30960, Note_on_c, 0, 52, 80
4, 30960, Note_on_c, 0, 55, 80
4, 30960, Note_on_c, 0, 59, 80
4, 31200, Note_on_c, 0, 59, 0
4, 31200, Note_on_c, 0, 55, 0
4, 31200, Note_on_c, 0, 52, 0
4, 31440, Note_on_c, 0, 52, 80
4, 31440, Note_on_c, 0, 55, 80
4, 31440, Note_on_c, 0, 59, 80
4, 31680, Note_on_c, 0, 59, 0
4, 31680, Note_on_c, 0, 55, 0
4, 31680, Note_on_c, 0, 52, 0
4, 31680, Note_on_c, 0, 45, 80
4, 31680, Note_on_c, 0, 52, 80
4, 31680, Note_on_c, 0, 55, 80
4, 31920, Note_on_c, 0, 55, 0
4, 31920, Note_on_c, 0, 52, 0
4, 31920, Note_on_c, 0, 45, 0
4, 31920, Note_on_c, 0, 45, 80
4, 31920, Note_on_c, 0, 52, 80
4, 31920, Note_on_c, 0, 55, 80
4, 32160, Note_on_c, 0, 55, 0
4, 32160, Note_on_c, 0, 52, 0
4, 32160, Note_on_c, 0, 45, 0
4, 32400, Note_on_c, 0, 45, 80
4, 32400, Note_on_c, 0, 52, 80
4, 32400, Note_on_c, 0, 55, 80
4, 32640, Note_on_c, 0, 55, 0
4, 32640, Note_on_c, 0, 52, 0
4, 32640, Note_on_c, 0, 45, 0
4, 32880, Note_on_c, 0, 45, 80
4, 32880, Note_on_c, 0, 52, 80
4, 32880, Note_on_c, 0, 55, 80
4, 33120, Note_on_c, 0, 55, 0
4, 33120, Note_on_c, 0, 52, 0
4, 33120, Note_on_c, 0, 45, 0
4, 33360, Note_on_c, 0, 55, 80
4, 33360, Note_on_c, 0, 57, 80
4, 33360, Note_on_c, 0, 61, 80
4, 33600, Note_on_c, 0, 61, 0
4, 33600, Note_on_c, 0, 57, 0
4, 33600, Note_on_c, 0, 55, 0
4, 33600, Note_on_c, 0, 50, 80
4, 33600, Note_on_c, 0, 54, 80
4, 33600, Note_on_c, 0, 57, 80
4, 33600, Note_on_c, 0, 62, 80
4, 33840, Note_on_c, 0, 62, 0
4, 33840, Note_on_c, 0, 50, 0
4, 33840, Note_on_c, 0, 54, 0
4, 33840, Note_on_c, 0, 57, 0
4, 35760, Note_on_c, 0, 79, 93
4, 36000, Note_on_c, 0, 79, 0
4, 36240, Note_on_c, 0, 79, 93
4, 36480, Note_on_c, 0, 79, 0
4, 36720, Note_on_c, 0, 79, 93
4, 36960, Note_on_c, 0, 79, 0
4, 37200, Note_on_c, 0, 79, 93
4, 37440, Note_on_c, 0, 79, 0
4, 37680, Note_on_c, 0, 79, 93
4, 37920, Note_on_c, 0, 79, 0
4, 38160, Note_on_c, 0, 67, 93
4, 38400, Note_on_c, 0, 67, 0
4, 38640, Note_on_c, 0, 67, 93
4, 38880, Note_on_c, 0, 67, 0
4, 39120, Note_on_c, 0, 67, 93
4, 39360, Note_on_c, 0, 67, 0
4, 39600, Note_on_c, 0, 67, 93
4, 39840, Note_on_c, 0, 67, 0
4, 40080, Note_on_c, 0, 79, 93
4, 40320, Note_on_c, 0, 79, 0
4, 40560, Note_on_c, 0, 79, 93
4, 40800, Note_on_c, 0, 79, 0
4, 41040, Note_on_c, 0, 79, 93
4, 41280, Note_on_c, 0, 79, 0
4, 41520, Note_on_c, 0, 67, 93
4, 41760, Note_on_c, 0, 67, 0
4, 43440, Note_on_c, 0, 67, 93
4, 43680, Note_on_c, 0, 67, 0
4, 43920, Note_on_c, 0, 67, 93
4, 44160, Note_on_c, 0, 67, 0
4, 44400, Note_on_c, 0, 67, 93
4, 44640, Note_on_c, 0, 67, 0
4, 44880, Note_on_c, 0, 67, 93
4, 45120, Note_on_c, 0, 67, 0
4, 45360, Note_on_c, 0, 69, 93
4, 45600, Note_on_c, 0, 69, 0
4, 45840, Note_on_c, 0, 57, 93
4, 46080, Note_on_c, 0, 57, 0
4, 46320, Note_on_c, 0, 57, 93
4, 46560, Note_on_c, 0, 57, 0
4, 46800, Note_on_c, 0, 52, 93
4, 46920, Note_on_c, 0, 52, 0
4, 46920, Note_on_c, 0, 57, 93
4, 47040, Note_on_c, 0, 57, 0
4, 47040, Note_on_c, 0, 52, 93
4, 47280, Note_on_c, 0, 52, 0
4, 47280, Note_on_c, 0, 52, 93
4, 47400, Note_on_c, 0, 52, 0
4, 47400, Note_on_c, 0, 57, 93
4, 47520, Note_on_c, 0, 57, 0
4, 47520, Note_on_c, 0, 52, 93
4, 47760, Note_on_c, 0, 52, 0
4, 47760, Note_on_c, 0, 52, 93
4, 47880, Note_on_c, 0, 52, 0
4, 47880, Note_on_c, 0, 57, 93
4, 48000, Note_on_c, 0, 57, 0
4, 48000, Note_on_c, 0, 52, 93
4, 48240, Note_on_c, 0, 52, 0
4, 48240, Note_on_c, 0, 54, 93
4, 48360, Note_on_c, 0, 54, 0
4, 48360, Note_on_c, 0, 60, 93
4, 48480, Note_on_c, 0, 60, 0
4, 48480, Note_on_c, 0, 54, 93
4, 48720, Note_on_c, 0, 54, 0
4, 48720, Note_on_c, 0, 54, 93
4, 48840, Note_on_c, 0, 54, 0
4, 48840, Note_on_c, 0, 59, 93
4, 48960, Note_on_c, 0, 59, 0
4, 48960, Note_on_c, 0, 54, 119
4, 49440, Note_on_c, 0, 54, 0
4, 49440, End_track
5, 0, Start_track
5, 0, Title_t, "Grand Piano"
5, 0, Program_c, 0, 0
5, 0, Control_c, 0, 7, 115
5, 0, Control_c, 0, 10, 48
5, 46800, Note_on_c, 0, 48, 75
5, 47040, Note_on_c, 0, 48, 0
5, 47280, Note_on_c, 0, 48, 75
5, 47520, Note_on_c, 0, 48, 0
5, 47760, Note_on_c, 0, 48, 75
5, 48000, Note_on_c, 0, 48, 0
5, 48240, Note_on_c, 0, 48, 75
5, 48480, Note_on_c, 0, 48, 0
5, 48720, Note_on_c, 0, 47, 75
5, 48960, Note_on_c, 0, 47, 0
5, 48960, Note_on_c, 0, 47, 101
5, 49440, Note_on_c, 0, 47, 0
5, 49440, End_track
0, 0, End_of_file
