0, 0, Header, 1, 3, 480
1, 0, Start_track
1, 0, Title_t, "tchaikovsky sleeping beauty act3 23f coda"
1, 0, Copyright_t, "Adaptation for Disklavier pianos, by: Robert C. Kuhmann (c) 2012."
1, 0, Text_t, "Seq. (c) by: Segundo G. Yogore,  2007\012"
1, 0, Time_signature, 2, 2, 24, 8
1, 0, Key_signature, 4, "major"
1, 0, Tempo, 375000
1, 46080, Time_signature, 8, 2, 24, 8
1, 46080, End_track
2, 0, Start_track
2, 0, Title_t, "Grand Piano"
2, 0, Program_c, 0, 0
2, 0, Control_c, 0, 7, 115
2, 0, Control_c, 0, 10, 86
2, 480, Note_on_c, 0, 83, 47
2, 527, Note_on_c, 0, 83, 0
2, 960, Note_on_c, 0, 69, 47
2, 1007, Note_on_c, 0, 69, 0
2, 1440, Note_on_c, 0, 83, 47
2, 1487, Note_on_c, 0, 83, 0
2, 1920, Note_on_c, 0, 69, 47
2, 1967, Note_on_c, 0, 69, 0
2, 2400, Note_on_c, 0, 83, 47
2, 2447, Note_on_c, 0, 83, 0
2, 2880, Note_on_c, 0, 69, 60
2, 2927, Note_on_c, 0, 69, 0
2, 3360, Note_on_c, 0, 83, 60
2, 3407, Note_on_c, 0, 83, 0
2, 3840, Note_on_c, 0, 69, 60
2, 4080, Note_on_c, 0, 69, 0
2, 4080, Note_on_c, 0, 83, 60
2, 4320, Note_on_c, 0, 83, 0
2, 4320, Note_on_c, 0, 69, 60
2, 4560, Note_on_c, 0, 69, 0
2, 4560, Note_on_c, 0, 83, 60
2, 4800, Note_on_c, 0, 83, 0
2, 4800, Note_on_c, 0, 69, 60
2, 5040, Note_on_c, 0, 69, 0
2, 5040, Note_on_c, 0, 83, 60
2, 5280, Note_on_c, 0, 83, 0
2, 5280, Note_on_c, 0, 69, 60
2, 5520, Note_on_c, 0, 69, 0
2, 5520, Note_on_c, 0, 83, 60
2, 5760, Note_on_c, 0, 83, 0
2, 5760, Note_on_c, 0, 69, 73
2, 6000, Note_on_c, 0, 69, 0
2, 6000, Note_on_c, 0, 83, 73
2, 6240, Note_on_c, 0, 83, 0
2, 6240, Note_on_c, 0, 69, 73
2, 6480, Note_on_c, 0, 69, 0
2, 6480, Note_on_c, 0, 83, 73
2, 6720, Note_on_c, 0, 83, 0
2, 6720, Note_on_c, 0, 69, 73
2, 6767, Note_on_c, 0, 69, 0
2, 6960, Note_on_c, 0, 83, 73
2, 7007, Note_on_c, 0, 83, 0
2, 7200, Note_on_c, 0, 69, 73
2, 7247, Note_on_c, 0, 69, 0
2, 7440, Note_on_c, 0, 83, 73
2, 7487, Note_on_c, 0, 83, 0
2, 7680, Note_on_c, 0, 69, 73
2, 7727, Note_on_c, 0, 69, 0
2, 7920, Note_on_c, 0, 83, 73
2, 7967, Note_on_c, 0, 83, 0
2, 8160, Note_on_c, 0, 69, 86
2, 8207, Note_on_c, 0, 69, 0
2, 8400, Note_on_c, 0, 83, 86
2, 8447, Note_on_c, 0, 83, 0
2, 8640, Note_on_c, 0, 69, 86
2, 8687, Note_on_c, 0, 69, 0
2, 8880, Note_on_c, 0, 83, 86
2, 8927, Note_on_c, 0, 83, 0
2, 9120, Note_on_c, 0, 69, 86
2, 9167, Note_on_c, 0, 69, 0
2, 9360, Note_on_c, 0, 83, 86
2, 9407, Note_on_c, 0, 83, 0
2, 9600, Note_on_c, 0, 69, 86
2, 9623, Note_on_c, 0, 69, 0
2, 9720, Note_on_c, 0, 69, 86
2, 9743, Note_on_c, 0, 69, 0
2, 9840, Note_on_c, 0, 83, 86
2, 9960, Note_on_c, 0, 83, 0
2, 9960, Note_on_c, 0, 83, 86
2, 10080, Note_on_c, 0, 83, 0
2, 10080, Note_on_c, 0, 69, 86
2, 10103, Note_on_c, 0, 69, 0
2, 10200, Note_on_c, 0, 69, 86
2, 10223, Note_on_c, 0, 69, 0
2, 10320, Note_on_c, 0, 83, 86
2, 10440, Note_on_c, 0, 83, 0
2, 10440, Note_on_c, 0, 83, 86
2, 10560, Note_on_c, 0, 83, 0
2, 10560, Note_on_c, 0, 69, 86
2, 10583, Note_on_c, 0, 69, 0
2, 10680, Note_on_c, 0, 69, 86
2, 10703, Note_on_c, 0, 69, 0
2, 10800, Note_on_c, 0, 83, 86
2, 10920, Note_on_c, 0, 83, 0
2, 10920, Note_on_c, 0, 83, 86
2, 11040, Note_on_c, 0, 83, 0
2, 11040, Note_on_c, 0, 69, 86
2, 11160, Note_on_c, 0, 69, 0
2, 11160, Note_on_c, 0, 69, 86
2, 11280, Note_on_c, 0, 69, 0
2, 11280, Note_on_c, 0, 83, 86
2, 11400, Note_on_c, 0, 83, 0
2, 11400, Note_on_c, 0, 83, 86
2, 11520, Note_on_c, 0, 83, 0
2, 11520, Control_c, 0, 64, 127
2, 11520, Note_on_c, 0, 76, 86
2, 11520, Note_on_c, 0, 85, 86
2, 11640, Note_on_c, 0, 85, 0
2, 11640, Note_on_c, 0, 76, 0
2, 11640, Note_on_c, 0, 83, 86
2, 11760, Note_on_c, 0, 83, 0
2, 11760, Note_on_c, 0, 81, 86
2, 11880, Note_on_c, 0, 81, 0
2, 11880, Control_c, 0, 64, 0
2, 11880, Note_on_c, 0, 80, 86
2, 12000, Note_on_c, 0, 80, 0
2, 12000, Control_c, 0, 64, 127
2, 12000, Note_on_c, 0, 81, 86
2, 12120, Note_on_c, 0, 81, 0
2, 12120, Note_on_c, 0, 80, 86
2, 12240, Note_on_c, 0, 80, 0
2, 12240, Note_on_c, 0, 78, 86
2, 12360, Note_on_c, 0, 78, 0
2, 12360, Control_c, 0, 64, 0
2, 12360, Note_on_c, 0, 76, 86
2, 12480, Note_on_c, 0, 76, 0
2, 12480, Control_c, 0, 64, 127
2, 12480, Note_on_c, 0, 76, 86
2, 12480, Note_on_c, 0, 85, 86
2, 12600, Note_on_c, 0, 85, 0
2, 12600, Note_on_c, 0, 76, 0
2, 12600, Note_on_c, 0, 83, 86
2, 12720, Note_on_c, 0, 83, 0
2, 12720, Note_on_c, 0, 81, 86
2, 12840, Note_on_c, 0, 81, 0
2, 12840, Control_c, 0, 64, 0
2, 12840, Note_on_c, 0, 80, 86
2, 12960, Note_on_c, 0, 80, 0
2, 12960, Control_c, 0, 64, 127
2, 12960, Note_on_c, 0, 81, 86
2, 13080, Note_on_c, 0, 81, 0
2, 13080, Note_on_c, 0, 80, 86
2, 13200, Note_on_c, 0, 80, 0
2, 13200, Note_on_c, 0, 78, 86
2, 13320, Note_on_c, 0, 78, 0
2, 13320, Control_c, 0, 64, 0
2, 13320, Note_on_c, 0, 76, 86
2, 13440, Note_on_c, 0, 76, 0
2, 13440, Control_c, 0, 64, 127
2, 13440, Note_on_c, 0, 75, 86
2, 13440, Note_on_c, 0, 87, 86
2, 13560, Note_on_c, 0, 87, 0
2, 13560, Note_on_c, 0, 75, 0
2, 13560, Note_on_c, 0, 85, 86
2, 13680, Note_on_c, 0, 85, 0
2, 13680, Note_on_c, 0, 83, 86
2, 13800, Note_on_c, 0, 83, 0
2, 13800, Control_c, 0, 64, 0
2, 13800, Note_on_c, 0, 81, 86
2, 13920, Note_on_c, 0, 81, 0
2, 13920, Control_c, 0, 64, 127
2, 13920, Note_on_c, 0, 75, 86
2, 13920, Note_on_c, 0, 83, 86
2, 14040, Note_on_c, 0, 83, 0
2, 14040, Note_on_c, 0, 75, 0
2, 14040, Note_on_c, 0, 81, 86
2, 14160, Note_on_c, 0, 81, 0
2, 14160, Note_on_c, 0, 80, 86
2, 14280, Note_on_c, 0, 80, 0
2, 14280, Control_c, 0, 64, 0
2, 14280, Note_on_c, 0, 78, 86
2, 14400, Note_on_c, 0, 78, 0
2, 14400, Control_c, 0, 64, 127
2, 14400, Note_on_c, 0, 75, 86
2, 14400, Note_on_c, 0, 87, 86
2, 14520, Note_on_c, 0, 87, 0
2, 14520, Note_on_c, 0, 75, 0
2, 14520, Note_on_c, 0, 85, 86
2, 14640, Note_on_c, 0, 85, 0
2, 14640, Note_on_c, 0, 83, 86
2, 14760, Note_on_c, 0, 83, 0
2, 14760, Control_c, 0, 64, 0
2, 14760, Note_on_c, 0, 81, 86
2, 14880, Note_on_c, 0, 81, 0
2, 14880, Control_c, 0, 64, 127
2, 14880, Note_on_c, 0, 75, 86
2, 14880, Note_on_c, 0, 83, 86
2, 15000, Note_on_c, 0, 83, 0
2, 15000, Note_on_c, 0, 75, 0
2, 15000, Note_on_c, 0, 81, 86
2, 15120, Note_on_c, 0, 81, 0
2, 15120, Note_on_c, 0, 80, 86
2, 15240, Note_on_c, 0, 80, 0
2, 15240, Control_c, 0, 64, 0
2, 15240, Note_on_c, 0, 78, 86
2, 15360, Note_on_c, 0, 78, 0
2, 15360, Note_on_c, 0, 80, 86
2, 15407, Note_on_c, 0, 80, 0
2, 15600, Note_on_c, 0, 83, 86
2, 15647, Note_on_c, 0, 83, 0
2, 15840, Note_on_c, 0, 69, 86
2, 15887, Note_on_c, 0, 69, 0
2, 16080, Note_on_c, 0, 83, 86
2, 16127, Note_on_c, 0, 83, 0
2, 16320, Note_on_c, 0, 69, 86
2, 16367, Note_on_c, 0, 69, 0
2, 16560, Note_on_c, 0, 83, 86
2, 16607, Note_on_c, 0, 83, 0
2, 16800, Note_on_c, 0, 69, 86
2, 16847, Note_on_c, 0, 69, 0
2, 17040, Note_on_c, 0, 83, 86
2, 17087, Note_on_c, 0, 83, 0
2, 17280, Note_on_c, 0, 69, 86
2, 17303, Note_on_c, 0, 69, 0
2, 17400, Note_on_c, 0, 69, 86
2, 17423, Note_on_c, 0, 69, 0
2, 17520, Note_on_c, 0, 83, 86
2, 17640, Note_on_c, 0, 83, 0
2, 17640, Note_on_c, 0, 83, 86
2, 17760, Note_on_c, 0, 83, 0
2, 17760, Note_on_c, 0, 69, 86
2, 17783, Note_on_c, 0, 69, 0
2, 17880, Note_on_c, 0, 69, 86
2, 17903, Note_on_c, 0, 69, 0
2, 18000, Note_on_c, 0, 83, 86
2, 18120, Note_on_c, 0, 83, 0
2, 18120, Note_on_c, 0, 83, 86
2, 18240, Note_on_c, 0, 83, 0
2, 18240, Note_on_c, 0, 69, 86
2, 18263, Note_on_c, 0, 69, 0
2, 18360, Note_on_c, 0, 69, 86
2, 18383, Note_on_c, 0, 69, 0
2, 18480, Note_on_c, 0, 83, 86
2, 18600, Note_on_c, 0, 83, 0
2, 18600, Note_on_c, 0, 83, 86
2, 18720, Note_on_c, 0, 83, 0
2, 18720, Note_on_c, 0, 69, 86
2, 18840, Note_on_c, 0, 69, 0
2, 18840, Note_on_c, 0, 69, 86
2, 18960, Note_on_c, 0, 69, 0
2, 18960, Note_on_c, 0, 83, 86
2, 19080, Note_on_c, 0, 83, 0
2, 19080, Note_on_c, 0, 83, 86
2, 19200, Note_on_c, 0, 83, 0
2, 19200, Control_c, 0, 64, 127
2, 19200, Note_on_c, 0, 76, 86
2, 19200, Note_on_c, 0, 85, 86
2, 19320, Note_on_c, 0, 85, 0
2, 19320, Note_on_c, 0, 76, 0
2, 19320, Note_on_c, 0, 83, 86
2, 19440, Note_on_c, 0, 83, 0
2, 19440, Note_on_c, 0, 81, 86
2, 19560, Note_on_c, 0, 81, 0
2, 19560, Control_c, 0, 64, 0
2, 19560, Note_on_c, 0, 80, 86
2, 19680, Note_on_c, 0, 80, 0
2, 19680, Control_c, 0, 64, 127
2, 19680, Note_on_c, 0, 81, 86
2, 19800, Note_on_c, 0, 81, 0
2, 19800, Note_on_c, 0, 80, 86
2, 19920, Note_on_c, 0, 80, 0
2, 19920, Note_on_c, 0, 78, 86
2, 20040, Note_on_c, 0, 78, 0
2, 20040, Control_c, 0, 64, 0
2, 20040, Note_on_c, 0, 76, 86
2, 20160, Note_on_c, 0, 76, 0
2, 20160, Control_c, 0, 64, 127
2, 20160, Note_on_c, 0, 76, 86
2, 20160, Note_on_c, 0, 85, 86
2, 20280, Note_on_c, 0, 85, 0
2, 20280, Note_on_c, 0, 76, 0
2, 20280, Note_on_c, 0, 83, 86
2, 20400, Note_on_c, 0, 83, 0
2, 20400, Note_on_c, 0, 81, 86
2, 20520, Note_on_c, 0, 81, 0
2, 20520, Control_c, 0, 64, 0
2, 20520, Note_on_c, 0, 80, 86
2, 20640, Note_on_c, 0, 80, 0
2, 20640, Control_c, 0, 64, 127
2, 20640, Note_on_c, 0, 81, 86
2, 20760, Note_on_c, 0, 81, 0
2, 20760, Note_on_c, 0, 80, 86
2, 20880, Note_on_c, 0, 80, 0
2, 20880, Note_on_c, 0, 78, 86
2, 21000, Note_on_c, 0, 78, 0
2, 21000, Control_c, 0, 64, 0
2, 21000, Note_on_c, 0, 76, 86
2, 21120, Note_on_c, 0, 76, 0
2, 21120, Control_c, 0, 64, 127
2, 21120, Note_on_c, 0, 75, 86
2, 21120, Note_on_c, 0, 87, 86
2, 21240, Note_on_c, 0, 87, 0
2, 21240, Note_on_c, 0, 75, 0
2, 21240, Note_on_c, 0, 85, 86
2, 21360, Note_on_c, 0, 85, 0
2, 21360, Note_on_c, 0, 83, 86
2, 21480, Note_on_c, 0, 83, 0
2, 21480, Control_c, 0, 64, 0
2, 21480, Note_on_c, 0, 81, 86
2, 21600, Note_on_c, 0, 81, 0
2, 21600, Control_c, 0, 64, 127
2, 21600, Note_on_c, 0, 75, 86
2, 21600, Note_on_c, 0, 83, 86
2, 21720, Note_on_c, 0, 83, 0
2, 21720, Note_on_c, 0, 75, 0
2, 21720, Note_on_c, 0, 81, 86
2, 21840, Note_on_c, 0, 81, 0
2, 21840, Note_on_c, 0, 80, 86
2, 21960, Note_on_c, 0, 80, 0
2, 21960, Control_c, 0, 64, 0
2, 21960, Note_on_c, 0, 78, 86
2, 22080, Note_on_c, 0, 78, 0
2, 22080, Control_c, 0, 64, 127
2, 22080, Note_on_c, 0, 75, 86
2, 22080, Note_on_c, 0, 87, 86
2, 22200, Note_on_c, 0, 87, 0
2, 22200, Note_on_c, 0, 75, 0
2, 22200, Note_on_c, 0, 85, 86
2, 22320, Note_on_c, 0, 85, 0
2, 22320, Note_on_c, 0, 83, 86
2, 22440, Note_on_c, 0, 83, 0
2, 22440, Control_c, 0, 64, 0
2, 22440, Note_on_c, 0, 81, 86
2, 22560, Note_on_c, 0, 81, 0
2, 22560, Control_c, 0, 64, 127
2, 22560, Note_on_c, 0, 75, 86
2, 22560, Note_on_c, 0, 83, 86
2, 22680, Note_on_c, 0, 83, 0
2, 22680, Note_on_c, 0, 75, 0
2, 22680, Note_on_c, 0, 81, 86
2, 22800, Note_on_c, 0, 81, 0
2, 22800, Note_on_c, 0, 80, 86
2, 22920, Note_on_c, 0, 80, 0
2, 22920, Control_c, 0, 64, 0
2, 22920, Note_on_c, 0, 78, 86
2, 23040, Note_on_c, 0, 78, 0
2, 23040, Note_on_c, 0, 76, 86
2, 23280, Note_on_c, 0, 76, 0
2, 23280, Control_c, 0, 64, 127
2, 23280, Note_on_c, 0, 56, 47
2, 23280, Note_on_c, 0, 64, 47
2, 23400, Note_on_c, 0, 64, 0
2, 23400, Note_on_c, 0, 56, 0
2, 23400, Note_on_c, 0, 59, 47
2, 23400, Note_on_c, 0, 66, 47
2, 23520, Note_on_c, 0, 66, 0
2, 23520, Note_on_c, 0, 59, 0
2, 23520, Note_on_c, 0, 64, 47
2, 23520, Note_on_c, 0, 68, 47
2, 23640, Note_on_c, 0, 68, 0
2, 23640, Note_on_c, 0, 64, 0
2, 23640, Note_on_c, 0, 66, 47
2, 23640, Note_on_c, 0, 69, 47
2, 23760, Note_on_c, 0, 69, 0
2, 23760, Note_on_c, 0, 66, 0
2, 23760, Note_on_c, 0, 68, 47
2, 23760, Note_on_c, 0, 71, 47
2, 23880, Note_on_c, 0, 71, 0
2, 23880, Note_on_c, 0, 68, 0
2, 23880, Control_c, 0, 64, 0
2, 23880, Note_on_c, 0, 69, 47
2, 23880, Note_on_c, 0, 73, 47
2, 24000, Note_on_c, 0, 73, 0
2, 24000, Note_on_c, 0, 69, 0
2, 24000, Control_c, 0, 64, 127
2, 24000, Note_on_c, 0, 71, 60
2, 24000, Note_on_c, 0, 74, 60
2, 24120, Note_on_c, 0, 74, 0
2, 24120, Note_on_c, 0, 71, 0
2, 24120, Note_on_c, 0, 73, 60
2, 24120, Note_on_c, 0, 76, 60
2, 24240, Note_on_c, 0, 76, 0
2, 24240, Note_on_c, 0, 73, 0
2, 24240, Note_on_c, 0, 74, 60
2, 24240, Note_on_c, 0, 78, 60
2, 24360, Note_on_c, 0, 78, 0
2, 24360, Note_on_c, 0, 74, 0
2, 24360, Note_on_c, 0, 76, 60
2, 24360, Note_on_c, 0, 80, 60
2, 24480, Note_on_c, 0, 80, 0
2, 24480, Note_on_c, 0, 76, 0
2, 24480, Note_on_c, 0, 78, 73
2, 24480, Note_on_c, 0, 81, 73
2, 24600, Note_on_c, 0, 81, 0
2, 24600, Note_on_c, 0, 78, 0
2, 24600, Note_on_c, 0, 80, 73
2, 24600, Note_on_c, 0, 83, 73
2, 24720, Note_on_c, 0, 83, 0
2, 24720, Note_on_c, 0, 80, 0
2, 24720, Note_on_c, 0, 81, 73
2, 24720, Note_on_c, 0, 85, 73
2, 24840, Note_on_c, 0, 85, 0
2, 24840, Note_on_c, 0, 81, 0
2, 24840, Note_on_c, 0, 83, 73
2, 24840, Note_on_c, 0, 86, 73
2, 24960, Note_on_c, 0, 86, 0
2, 24960, Note_on_c, 0, 83, 0
2, 24960, Control_c, 0, 64, 0
2, 24960, Note_on_c, 0, 81, 73
2, 24960, Note_on_c, 0, 88, 73
2, 25200, Note_on_c, 0, 88, 0
2, 25200, Note_on_c, 0, 81, 0
2, 25200, Control_c, 0, 64, 127
2, 25200, Note_on_c, 0, 56, 47
2, 25200, Note_on_c, 0, 64, 47
2, 25320, Note_on_c, 0, 64, 0
2, 25320, Note_on_c, 0, 56, 0
2, 25320, Note_on_c, 0, 59, 47
2, 25320, Note_on_c, 0, 66, 47
2, 25440, Note_on_c, 0, 66, 0
2, 25440, Note_on_c, 0, 59, 0
2, 25440, Note_on_c, 0, 64, 47
2, 25440, Note_on_c, 0, 68, 47
2, 25560, Note_on_c, 0, 68, 0
2, 25560, Note_on_c, 0, 64, 0
2, 25560, Note_on_c, 0, 66, 47
2, 25560, Note_on_c, 0, 69, 47
2, 25680, Note_on_c, 0, 69, 0
2, 25680, Note_on_c, 0, 66, 0
2, 25680, Note_on_c, 0, 68, 47
2, 25680, Note_on_c, 0, 71, 47
2, 25800, Note_on_c, 0, 71, 0
2, 25800, Note_on_c, 0, 68, 0
2, 25800, Control_c, 0, 64, 0
2, 25800, Note_on_c, 0, 69, 47
2, 25800, Note_on_c, 0, 73, 47
2, 25920, Note_on_c, 0, 73, 0
2, 25920, Note_on_c, 0, 69, 0
2, 25920, Control_c, 0, 64, 127
2, 25920, Note_on_c, 0, 71, 60
2, 25920, Note_on_c, 0, 74, 60
2, 26040, Note_on_c, 0, 74, 0
2, 26040, Note_on_c, 0, 71, 0
2, 26040, Note_on_c, 0, 73, 60
2, 26040, Note_on_c, 0, 76, 60
2, 26160, Note_on_c, 0, 76, 0
2, 26160, Note_on_c, 0, 73, 0
2, 26160, Note_on_c, 0, 74, 60
2, 26160, Note_on_c, 0, 78, 60
2, 26280, Note_on_c, 0, 78, 0
2, 26280, Note_on_c, 0, 74, 0
2, 26280, Note_on_c, 0, 76, 60
2, 26280, Note_on_c, 0, 80, 60
2, 26400, Note_on_c, 0, 80, 0
2, 26400, Note_on_c, 0, 76, 0
2, 26400, Note_on_c, 0, 78, 73
2, 26400, Note_on_c, 0, 81, 73
2, 26520, Note_on_c, 0, 81, 0
2, 26520, Note_on_c, 0, 78, 0
2, 26520, Note_on_c, 0, 80, 73
2, 26520, Note_on_c, 0, 83, 73
2, 26640, Note_on_c, 0, 83, 0
2, 26640, Note_on_c, 0, 80, 0
2, 26640, Note_on_c, 0, 81, 73
2, 26640, Note_on_c, 0, 85, 73
2, 26760, Note_on_c, 0, 85, 0
2, 26760, Note_on_c, 0, 81, 0
2, 26760, Control_c, 0, 64, 0
2, 26760, Note_on_c, 0, 83, 73
2, 26760, Note_on_c, 0, 86, 73
2, 26880, Note_on_c, 0, 86, 0
2, 26880, Note_on_c, 0, 83, 0
2, 26880, Note_on_c, 0, 81, 73
2, 26880, Note_on_c, 0, 88, 73
2, 27120, Note_on_c, 0, 88, 0
2, 27120, Note_on_c, 0, 81, 0
2, 27120, Note_on_c, 0, 72, 73
2, 27120, Note_on_c, 0, 84, 73
2, 27360, Note_on_c, 0, 84, 0
2, 27360, Note_on_c, 0, 72, 0
2, 27360, Note_on_c, 0, 70, 73
2, 27360, Note_on_c, 0, 82, 73
2, 27600, Note_on_c, 0, 82, 0
2, 27600, Note_on_c, 0, 70, 0
2, 27600, Note_on_c, 0, 72, 73
2, 27600, Note_on_c, 0, 84, 73
2, 27840, Note_on_c, 0, 84, 0
2, 27840, Note_on_c, 0, 72, 0
2, 27840, Note_on_c, 0, 70, 73
2, 27840, Note_on_c, 0, 82, 73
2, 28080, Note_on_c, 0, 82, 0
2, 28080, Note_on_c, 0, 70, 0
2, 28080, Note_on_c, 0, 72, 73
2, 28080, Note_on_c, 0, 84, 73
2, 28320, Note_on_c, 0, 84, 0
2, 28320, Note_on_c, 0, 72, 0
2, 28320, Note_on_c, 0, 70, 73
2, 28320, Note_on_c, 0, 82, 73
2, 28560, Note_on_c, 0, 82, 0
2, 28560, Note_on_c, 0, 70, 0
2, 28560, Note_on_c, 0, 72, 73
2, 28560, Note_on_c, 0, 84, 73
2, 28800, Note_on_c, 0, 84, 0
2, 28800, Note_on_c, 0, 72, 0
2, 28800, Control_c, 0, 64, 127
2, 28800, Note_on_c, 0, 69, 73
2, 28800, Note_on_c, 0, 81, 73
2, 29040, Note_on_c, 0, 81, 0
2, 29040, Note_on_c, 0, 69, 0
2, 29040, Note_on_c, 0, 81, 73
2, 29160, Note_on_c, 0, 81, 0
2, 29160, Note_on_c, 0, 83, 73
2, 29280, Note_on_c, 0, 83, 0
2, 29280, Note_on_c, 0, 84, 73
2, 29400, Note_on_c, 0, 84, 0
2, 29400, Note_on_c, 0, 85, 73
2, 29520, Note_on_c, 0, 85, 0
2, 29520, Note_on_c, 0, 86, 73
2, 29640, Note_on_c, 0, 86, 0
2, 29640, Control_c, 0, 64, 0
2, 29640, Note_on_c, 0, 87, 73
2, 29760, Note_on_c, 0, 87, 0
2, 29760, Control_c, 0, 64, 127
2, 29760, Note_on_c, 0, 88, 73
2, 29880, Note_on_c, 0, 88, 0
2, 29880, Note_on_c, 0, 86, 73
2, 30000, Note_on_c, 0, 86, 0
2, 30000, Note_on_c, 0, 85, 73
2, 30120, Note_on_c, 0, 85, 0
2, 30120, Note_on_c, 0, 83, 73
2, 30240, Note_on_c, 0, 83, 0
2, 30240, Note_on_c, 0, 81, 73
2, 30360, Note_on_c, 0, 81, 0
2, 30360, Note_on_c, 0, 80, 73
2, 30480, Note_on_c, 0, 80, 0
2, 30480, Note_on_c, 0, 78, 73
2, 30600, Note_on_c, 0, 78, 0
2, 30600, Note_on_c, 0, 76, 73
2, 30720, Note_on_c, 0, 76, 0
2, 30720, Control_c, 0, 64, 0
2, 30720, Note_on_c, 0, 81, 73
2, 30960, Note_on_c, 0, 81, 0
2, 30960, Control_c, 0, 64, 127
2, 30960, Note_on_c, 0, 56, 47
2, 30960, Note_on_c, 0, 64, 47
2, 31080, Note_on_c, 0, 64, 0
2, 31080, Note_on_c, 0, 56, 0
2, 31080, Note_on_c, 0, 59, 47
2, 31080, Note_on_c, 0, 66, 47
2, 31200, Note_on_c, 0, 66, 0
2, 31200, Note_on_c, 0, 59, 0
2, 31200, Note_on_c, 0, 64, 47
2, 31200, Note_on_c, 0, 68, 47
2, 31320, Note_on_c, 0, 68, 0
2, 31320, Note_on_c, 0, 64, 0
2, 31320, Note_on_c, 0, 66, 47
2, 31320, Note_on_c, 0, 69, 47
2, 31440, Note_on_c, 0, 69, 0
2, 31440, Note_on_c, 0, 66, 0
2, 31440, Note_on_c, 0, 68, 47
2, 31440, Note_on_c, 0, 71, 47
2, 31560, Note_on_c, 0, 71, 0
2, 31560, Note_on_c, 0, 68, 0
2, 31560, Control_c, 0, 64, 0
2, 31560, Note_on_c, 0, 69, 47
2, 31560, Note_on_c, 0, 73, 47
2, 31680, Note_on_c, 0, 73, 0
2, 31680, Note_on_c, 0, 69, 0
2, 31680, Control_c, 0, 64, 127
2, 31680, Note_on_c, 0, 71, 60
2, 31680, Note_on_c, 0, 74, 60
2, 31800, Note_on_c, 0, 74, 0
2, 31800, Note_on_c, 0, 71, 0
2, 31800, Note_on_c, 0, 73, 60
2, 31800, Note_on_c, 0, 76, 60
2, 31920, Note_on_c, 0, 76, 0
2, 31920, Note_on_c, 0, 73, 0
2, 31920, Note_on_c, 0, 74, 60
2, 31920, Note_on_c, 0, 78, 60
2, 32040, Note_on_c, 0, 78, 0
2, 32040, Note_on_c, 0, 74, 0
2, 32040, Note_on_c, 0, 76, 60
2, 32040, Note_on_c, 0, 80, 60
2, 32160, Note_on_c, 0, 80, 0
2, 32160, Note_on_c, 0, 76, 0
2, 32160, Note_on_c, 0, 78, 73
2, 32160, Note_on_c, 0, 81, 73
2, 32280, Note_on_c, 0, 81, 0
2, 32280, Note_on_c, 0, 78, 0
2, 32280, Note_on_c, 0, 80, 73
2, 32280, Note_on_c, 0, 83, 73
2, 32400, Note_on_c, 0, 83, 0
2, 32400, Note_on_c, 0, 80, 0
2, 32400, Note_on_c, 0, 81, 73
2, 32400, Note_on_c, 0, 85, 73
2, 32520, Note_on_c, 0, 85, 0
2, 32520, Note_on_c, 0, 81, 0
2, 32520, Note_on_c, 0, 83, 73
2, 32520, Note_on_c, 0, 86, 73
2, 32640, Note_on_c, 0, 86, 0
2, 32640, Note_on_c, 0, 83, 0
2, 32640, Control_c, 0, 64, 0
2, 32640, Note_on_c, 0, 81, 73
2, 32640, Note_on_c, 0, 88, 73
2, 32880, Note_on_c, 0, 88, 0
2, 32880, Note_on_c, 0, 81, 0
2, 32880, Control_c, 0, 64, 127
2, 32880, Note_on_c, 0, 56, 47
2, 32880, Note_on_c, 0, 64, 47
2, 33000, Note_on_c, 0, 64, 0
2, 33000, Note_on_c, 0, 56, 0
2, 33000, Note_on_c, 0, 59, 47
2, 33000, Note_on_c, 0, 66, 47
2, 33120, Note_on_c, 0, 66, 0
2, 33120, Note_on_c, 0, 59, 0
2, 33120, Note_on_c, 0, 64, 47
2, 33120, Note_on_c, 0, 68, 47
2, 33240, Note_on_c, 0, 68, 0
2, 33240, Note_on_c, 0, 64, 0
2, 33240, Note_on_c, 0, 66, 47
2, 33240, Note_on_c, 0, 69, 47
2, 33360, Note_on_c, 0, 69, 0
2, 33360, Note_on_c, 0, 66, 0
2, 33360, Note_on_c, 0, 68, 47
2, 33360, Note_on_c, 0, 71, 47
2, 33480, Note_on_c, 0, 71, 0
2, 33480, Note_on_c, 0, 68, 0
2, 33480, Control_c, 0, 64, 0
2, 33480, Note_on_c, 0, 69, 47
2, 33480, Note_on_c, 0, 73, 47
2, 33600, Note_on_c, 0, 73, 0
2, 33600, Note_on_c, 0, 69, 0
2, 33600, Control_c, 0, 64, 127
2, 33600, Note_on_c, 0, 71, 60
2, 33600, Note_on_c, 0, 74, 60
2, 33720, Note_on_c, 0, 74, 0
2, 33720, Note_on_c, 0, 71, 0
2, 33720, Note_on_c, 0, 73, 60
2, 33720, Note_on_c, 0, 76, 60
2, 33840, Note_on_c, 0, 76, 0
2, 33840, Note_on_c, 0, 73, 0
2, 33840, Note_on_c, 0, 74, 60
2, 33840, Note_on_c, 0, 78, 60
2, 33960, Note_on_c, 0, 78, 0
2, 33960, Note_on_c, 0, 74, 0
2, 33960, Note_on_c, 0, 76, 60
2, 33960, Note_on_c, 0, 80, 60
2, 34080, Note_on_c, 0, 80, 0
2, 34080, Note_on_c, 0, 76, 0
2, 34080, Note_on_c, 0, 78, 73
2, 34080, Note_on_c, 0, 81, 73
2, 34200, Note_on_c, 0, 81, 0
2, 34200, Note_on_c, 0, 78, 0
2, 34200, Note_on_c, 0, 80, 73
2, 34200, Note_on_c, 0, 83, 73
2, 34320, Note_on_c, 0, 83, 0
2, 34320, Note_on_c, 0, 80, 0
2, 34320, Note_on_c, 0, 81, 73
2, 34320, Note_on_c, 0, 85, 73
2, 34440, Note_on_c, 0, 85, 0
2, 34440, Note_on_c, 0, 81, 0
2, 34440, Control_c, 0, 64, 0
2, 34440, Note_on_c, 0, 83, 73
2, 34440, Note_on_c, 0, 86, 73
2, 34560, Note_on_c, 0, 86, 0
2, 34560, Note_on_c, 0, 83, 0
2, 34560, Note_on_c, 0, 81, 73
2, 34560, Note_on_c, 0, 88, 73
2, 34800, Note_on_c, 0, 88, 0
2, 34800, Note_on_c, 0, 81, 0
2, 34800, Note_on_c, 0, 72, 73
2, 34800, Note_on_c, 0, 84, 73
2, 35040, Note_on_c, 0, 84, 0
2, 35040, Note_on_c, 0, 72, 0
2, 35040, Note_on_c, 0, 70, 73
2, 35040, Note_on_c, 0, 82, 73
2, 35280, Note_on_c, 0, 82, 0
2, 35280, Note_on_c, 0, 70, 0
2, 35280, Note_on_c, 0, 72, 73
2, 35280, Note_on_c, 0, 84, 73
2, 35520, Note_on_c, 0, 84, 0
2, 35520, Note_on_c, 0, 72, 0
2, 35520, Note_on_c, 0, 70, 73
2, 35520, Note_on_c, 0, 82, 73
2, 35760, Note_on_c, 0, 82, 0
2, 35760, Note_on_c, 0, 70, 0
2, 35760, Note_on_c, 0, 72, 73
2, 35760, Note_on_c, 0, 84, 73
2, 36000, Note_on_c, 0, 84, 0
2, 36000, Note_on_c, 0, 72, 0
2, 36000, Note_on_c, 0, 70, 73
2, 36000, Note_on_c, 0, 82, 73
2, 36240, Note_on_c, 0, 82, 0
2, 36240, Note_on_c, 0, 70, 0
2, 36240, Note_on_c, 0, 72, 73
2, 36240, Note_on_c, 0, 84, 73
2, 36480, Note_on_c, 0, 84, 0
2, 36480, Note_on_c, 0, 72, 0
2, 36480, Control_c, 0, 64, 127
2, 36480, Note_on_c, 0, 69, 73
2, 36480, Note_on_c, 0, 81, 73
2, 36720, Note_on_c, 0, 81, 0
2, 36720, Note_on_c, 0, 69, 0
2, 36720, Note_on_c, 0, 81, 73
2, 36840, Note_on_c, 0, 81, 0
2, 36840, Note_on_c, 0, 83, 73
2, 36960, Note_on_c, 0, 83, 0
2, 36960, Note_on_c, 0, 84, 73
2, 37080, Note_on_c, 0, 84, 0
2, 37080, Note_on_c, 0, 86, 73
2, 37200, Note_on_c, 0, 86, 0
2, 37200, Note_on_c, 0, 88, 73
2, 37320, Note_on_c, 0, 88, 0
2, 37320, Control_c, 0, 64, 0
2, 37320, Note_on_c, 0, 89, 73
2, 37440, Note_on_c, 0, 89, 0
2, 37440, Control_c, 0, 64, 127
2, 37440, Note_on_c, 0, 88, 73
2, 37560, Note_on_c, 0, 88, 0
2, 37560, Note_on_c, 0, 90, 73
2, 37680, Note_on_c, 0, 90, 0
2, 37680, Note_on_c, 0, 92, 73
2, 37800, Note_on_c, 0, 92, 0
2, 37800, Note_on_c, 0, 93, 73
2, 37920, Note_on_c, 0, 93, 0
2, 37920, Note_on_c, 0, 95, 73
2, 38040, Note_on_c, 0, 95, 0
2, 38040, Note_on_c, 0, 93, 73
2, 38160, Note_on_c, 0, 93, 0
2, 38160, Note_on_c, 0, 92, 73
2, 38280, Note_on_c, 0, 92, 0
2, 38280, Control_c, 0, 64, 0
2, 38280, Note_on_c, 0, 90, 73
2, 38400, Note_on_c, 0, 90, 0
2, 38400, Control_c, 0, 64, 127
2, 38400, Note_on_c, 0, 88, 86
2, 38520, Note_on_c, 0, 88, 0
2, 38520, Note_on_c, 0, 90, 86
2, 38640, Note_on_c, 0, 90, 0
2, 38640, Note_on_c, 0, 92, 86
2, 38760, Note_on_c, 0, 92, 0
2, 38760, Control_c, 0, 64, 0
2, 38760, Note_on_c, 0, 90, 86
2, 38880, Note_on_c, 0, 90, 0
2, 38880, Control_c, 0, 64, 127
2, 38880, Note_on_c, 0, 88, 86
2, 39000, Note_on_c, 0, 88, 0
2, 39000, Note_on_c, 0, 90, 86
2, 39120, Note_on_c, 0, 90, 0
2, 39120, Note_on_c, 0, 92, 86
2, 39240, Note_on_c, 0, 92, 0
2, 39240, Control_c, 0, 64, 0
2, 39240, Note_on_c, 0, 90, 86
2, 39360, Note_on_c, 0, 90, 0
2, 39360, Control_c, 0, 64, 127
2, 39360, Note_on_c, 0, 88, 86
2, 39480, Note_on_c, 0, 88, 0
2, 39480, Note_on_c, 0, 90, 86
2, 39600, Note_on_c, 0, 90, 0
2, 39600, Note_on_c, 0, 92, 86
2, 39720, Note_on_c, 0, 92, 0
2, 39720, Control_c, 0, 64, 0
2, 39720, Note_on_c, 0, 90, 86
2, 39840, Note_on_c, 0, 90, 0
2, 39840, Control_c, 0, 64, 127
2, 39840, Note_on_c, 0, 88, 86
2, 39960, Note_on_c, 0, 88, 0
2, 39960, Note_on_c, 0, 90, 86
2, 40080, Note_on_c, 0, 90, 0
2, 40080, Note_on_c, 0, 92, 86
2, 40200, Note_on_c, 0, 92, 0
2, 40200, Control_c, 0, 64, 0
2, 40200, Note_on_c, 0, 90, 86
2, 40320, Note_on_c, 0, 90, 0
2, 40320, Control_c, 0, 64, 127
2, 40320, Note_on_c, 0, 88, 86
2, 40440, Note_on_c, 0, 88, 0
2, 40440, Note_on_c, 0, 90, 86
2, 40560, Note_on_c, 0, 90, 0
2, 40560, Note_on_c, 0, 92, 86
2, 40680, Note_on_c, 0, 92, 0
2, 40680, Control_c, 0, 64, 0
2, 40680, Note_on_c, 0, 90, 86
2, 40800, Note_on_c, 0, 90, 0
2, 40800, Control_c, 0, 64, 127
2, 40800, Note_on_c, 0, 88, 86
2, 40920, Note_on_c, 0, 88, 0
2, 40920, Note_on_c, 0, 90, 86
2, 41040, Note_on_c, 0, 90, 0
2, 41040, Note_on_c, 0, 92, 86
2, 41160, Note_on_c, 0, 92, 0
2, 41160, Control_c, 0, 64, 0
2, 41160, Note_on_c, 0, 90, 86
2, 41280, Note_on_c, 0, 90, 0
2, 41280, Control_c, 0, 64, 127
2, 41280, Note_on_c, 0, 88, 86
2, 41400, Note_on_c, 0, 88, 0
2, 41400, Note_on_c, 0, 90, 86
2, 41520, Note_on_c, 0, 90, 0
2, 41520, Note_on_c, 0, 92, 86
2, 41640, Note_on_c, 0, 92, 0
2, 41640, Control_c, 0, 64, 0
2, 41640, Note_on_c, 0, 90, 86
2, 41760, Note_on_c, 0, 90, 0
2, 41760, Control_c, 0, 64, 127
2, 41760, Note_on_c, 0, 88, 86
2, 41880, Note_on_c, 0, 88, 0
2, 41880, Note_on_c, 0, 90, 86
2, 42000, Note_on_c, 0, 90, 0
2, 42000, Note_on_c, 0, 92, 86
2, 42120, Note_on_c, 0, 92, 0
2, 42120, Control_c, 0, 64, 0
2, 42120, Note_on_c, 0, 90, 86
2, 42240, Note_on_c, 0, 90, 0
2, 42240, Control_c, 0, 64, 127
2, 42240, Note_on_c, 0, 88, 86
2, 42360, Note_on_c, 0, 88, 0
2, 42360, Note_on_c, 0, 90, 86
2, 42480, Note_on_c, 0, 90, 0
2, 42480, Note_on_c, 0, 92, 86
2, 42600, Note_on_c, 0, 92, 0
2, 42600, Control_c, 0, 64, 0
2, 42600, Note_on_c, 0, 90, 86
2, 42720, Note_on_c, 0, 90, 0
2, 42720, Control_c, 0, 64, 127
2, 42720, Note_on_c, 0, 88, 86
2, 42840, Note_on_c, 0, 88, 0
2, 42840, Note_on_c, 0, 90, 86
2, 42960, Note_on_c, 0, 90, 0
2, 42960, Note_on_c, 0, 92, 86
2, 43080, Note_on_c, 0, 92, 0
2, 43080, Control_c, 0, 64, 0
2, 43080, Note_on_c, 0, 90, 86
2, 43200, Note_on_c, 0, 90, 0
2, 43200, Control_c, 0, 64, 127
2, 43200, Note_on_c, 0, 88, 86
2, 43320, Note_on_c, 0, 88, 0
2, 43320, Note_on_c, 0, 90, 86
2, 43440, Note_on_c, 0, 90, 0
2, 43440, Note_on_c, 0, 92, 86
2, 43560, Note_on_c, 0, 92, 0
2, 43560, Control_c, 0, 64, 0
2, 43560, Note_on_c, 0, 90, 86
2, 43680, Note_on_c, 0, 90, 0
2, 43680, Control_c, 0, 64, 127
2, 43680, Note_on_c, 0, 88, 86
2, 43800, Note_on_c, 0, 88, 0
2, 43800, Note_on_c, 0, 90, 86
2, 43920, Note_on_c, 0, 90, 0
2, 43920, Note_on_c, 0, 92, 86
2, 44040, Note_on_c, 0, 92, 0
2, 44040, Control_c, 0, 64, 0
2, 44040, Note_on_c, 0, 90, 86
2, 44160, Note_on_c, 0, 90, 0
2, 44160, Control_c, 0, 64, 127
2, 44160, Note_on_c, 0, 88, 86
2, 44280, Note_on_c, 0, 88, 0
2, 44280, Note_on_c, 0, 90, 86
2, 44400, Note_on_c, 0, 90, 0
2, 44400, Note_on_c, 0, 88, 86
2, 44520, Note_on_c, 0, 88, 0
2, 44520, Control_c, 0, 64, 0
2, 44520, Note_on_c, 0, 90, 86
2, 44640, Note_on_c, 0, 90, 0
2, 44640, Control_c, 0, 64, 127
2, 44640, Note_on_c, 0, 88, 86
2, 44760, Note_on_c, 0, 88, 0
2, 44760, Note_on_c, 0, 90, 86
2, 44880, Note_on_c, 0, 90, 0
2, 44880, Note_on_c, 0, 88, 86
2, 45000, Note_on_c, 0, 88, 0
2, 45000, Control_c, 0, 64, 0
2, 45000, Note_on_c, 0, 90, 86
2, 45120, Note_on_c, 0, 90, 0
2, 45120, Control_c, 0, 64, 127
2, 45120, Note_on_c, 0, 88, 86
2, 45240, Note_on_c, 0, 88, 0
2, 45240, Note_on_c, 0, 90, 86
2, 45360, Note_on_c, 0, 90, 0
2, 45360, Note_on_c, 0, 88, 86
2, 45480, Note_on_c, 0, 88, 0
2, 45480, Control_c, 0, 64, 0
2, 45480, Note_on_c, 0, 90, 86
2, 45600, Note_on_c, 0, 90, 0
2, 45600, Control_c, 0, 64, 127
2, 45600, Note_on_c, 0, 88, 86
2, 45720, Note_on_c, 0, 88, 0
2, 45720, Note_on_c, 0, 90, 86
2, 45840, Note_on_c, 0, 90, 0
2, 45840, Note_on_c, 0, 88, 86
2, 45960, Note_on_c, 0, 88, 0
2, 45960, Control_c, 0, 64, 0
2, 45960, Note_on_c, 0, 90, 86
2, 46080, Note_on_c, 0, 90, 0
2, 46080, Note_on_c, 0, 92, 86
2, 46127, Note_on_c, 0, 92, 0
2, 46320, Note_on_c, 0, 76, 112
2, 46800, Note_on_c, 0, 76, 0
2, 46800, Control_c, 0, 64, 127
2, 49440, Control_c, 0, 64, 0
2, 49440, End_track
3, 0, Start_track
3, 0, Title_t, "Grand Piano"
3, 0, Program_c, 0, 0
3, 0, Control_c, 0, 7, 115
3, 0, Control_c, 0, 10, 41
3, 8160, Note_on_c, 0, 47, 78
3, 8160, Note_on_c, 0, 54, 78
3, 8160, Note_on_c, 0, 63, 78
3, 8400, Note_on_c, 0, 63, 0
3, 8400, Note_on_c, 0, 54, 0
3, 8400, Note_on_c, 0, 47, 0
3, 8640, Note_on_c, 0, 49, 78
3, 8640, Note_on_c, 0, 59, 78
3, 8640, Note_on_c, 0, 64, 78
3, 8880, Note_on_c, 0, 64, 0
3, 8880, Note_on_c, 0, 59, 0
3, 8880, Note_on_c, 0, 49, 0
3, 9120, Note_on_c, 0, 51, 78
3, 9120, Note_on_c, 0, 59, 78
3, 9120, Note_on_c, 0, 65, 78
3, 9360, Note_on_c, 0, 65, 0
3, 9360, Note_on_c, 0, 59, 0
3, 9360, Note_on_c, 0, 51, 0
3, 9600, Note_on_c, 0, 51, 78
3, 9600, Note_on_c, 0, 59, 78
3, 9600, Note_on_c, 0, 66, 78
3, 9840, Note_on_c, 0, 66, 0
3, 9840, Note_on_c, 0, 59, 0
3, 9840, Note_on_c, 0, 51, 0
3, 10080, Note_on_c, 0, 52, 78
3, 10080, Note_on_c, 0, 59, 78
3, 10080, Note_on_c, 0, 61, 78
3, 10320, Note_on_c, 0, 61, 0
3, 10320, Note_on_c, 0, 59, 0
3, 10320, Note_on_c, 0, 52, 0
3, 10560, Note_on_c, 0, 53, 78
3, 10560, Note_on_c, 0, 59, 78
3, 10560, Note_on_c, 0, 62, 78
3, 10800, Note_on_c, 0, 62, 0
3, 10800, Note_on_c, 0, 59, 0
3, 10800, Note_on_c, 0, 53, 0
3, 11040, Note_on_c, 0, 54, 78
3, 11040, Note_on_c, 0, 59, 78
3, 11040, Note_on_c, 0, 63, 78
3, 11280, Note_on_c, 0, 63, 0
3, 11280, Note_on_c, 0, 59, 0
3, 11280, Note_on_c, 0, 54, 0
3, 11520, Note_on_c, 0, 52, 78
3, 11520, Note_on_c, 0, 56, 78
3, 11520, Note_on_c, 0, 59, 78
3, 11567, Note_on_c, 0, 59, 0
3, 11567, Note_on_c, 0, 56, 0
3, 11567, Note_on_c, 0, 52, 0
3, 11760, Note_on_c, 0, 61, 78
3, 11807, Note_on_c, 0, 61, 0
3, 12000, Note_on_c, 0, 47, 78
3, 12000, Note_on_c, 0, 56, 78
3, 12000, Note_on_c, 0, 59, 78
3, 12047, Note_on_c, 0, 59, 0
3, 12047, Note_on_c, 0, 56, 0
3, 12047, Note_on_c, 0, 47, 0
3, 12240, Note_on_c, 0, 61, 78
3, 12287, Note_on_c, 0, 61, 0
3, 12480, Note_on_c, 0, 52, 78
3, 12480, Note_on_c, 0, 56, 78
3, 12480, Note_on_c, 0, 59, 78
3, 12527, Note_on_c, 0, 59, 0
3, 12527, Note_on_c, 0, 56, 0
3, 12527, Note_on_c, 0, 52, 0
3, 12720, Note_on_c, 0, 61, 78
3, 12767, Note_on_c, 0, 61, 0
3, 12960, Note_on_c, 0, 47, 78
3, 12960, Note_on_c, 0, 56, 78
3, 12960, Note_on_c, 0, 59, 78
3, 13007, Note_on_c, 0, 59, 0
3, 13007, Note_on_c, 0, 56, 0
3, 13007, Note_on_c, 0, 47, 0
3, 13200, Note_on_c, 0, 61, 78
3, 13247, Note_on_c, 0, 61, 0
3, 13440, Note_on_c, 0, 54, 78
3, 13440, Note_on_c, 0, 57, 78
3, 13440, Note_on_c, 0, 59, 78
3, 13487, Note_on_c, 0, 59, 0
3, 13487, Note_on_c, 0, 57, 0
3, 13487, Note_on_c, 0, 54, 0
3, 13680, Note_on_c, 0, 61, 78
3, 13727, Note_on_c, 0, 61, 0
3, 13920, Note_on_c, 0, 47, 78
3, 13920, Note_on_c, 0, 57, 78
3, 13920, Note_on_c, 0, 59, 78
3, 13967, Note_on_c, 0, 59, 0
3, 13967, Note_on_c, 0, 57, 0
3, 13967, Note_on_c, 0, 47, 0
3, 14160, Note_on_c, 0, 61, 78
3, 14207, Note_on_c, 0, 61, 0
3, 14400, Note_on_c, 0, 54, 78
3, 14400, Note_on_c, 0, 57, 78
3, 14400, Note_on_c, 0, 59, 78
3, 14447, Note_on_c, 0, 59, 0
3, 14447, Note_on_c, 0, 57, 0
3, 14447, Note_on_c, 0, 54, 0
3, 14640, Note_on_c, 0, 61, 78
3, 14687, Note_on_c, 0, 61, 0
3, 14880, Note_on_c, 0, 47, 78
3, 14880, Note_on_c, 0, 57, 78
3, 14880, Note_on_c, 0, 59, 78
3, 14927, Note_on_c, 0, 59, 0
3, 14927, Note_on_c, 0, 57, 0
3, 14927, Note_on_c, 0, 47, 0
3, 15120, Note_on_c, 0, 61, 78
3, 15167, Note_on_c, 0, 61, 0
3, 15360, Note_on_c, 0, 52, 78
3, 15360, Note_on_c, 0, 56, 78
3, 15360, Note_on_c, 0, 59, 78
3, 15600, Note_on_c, 0, 59, 0
3, 15600, Note_on_c, 0, 56, 0
3, 15600, Note_on_c, 0, 52, 0
3, 15840, Note_on_c, 0, 47, 78
3, 15840, Note_on_c, 0, 54, 78
3, 15840, Note_on_c, 0, 63, 78
3, 16080, Note_on_c, 0, 63, 0
3, 16080, Note_on_c, 0, 54, 0
3, 16080, Note_on_c, 0, 47, 0
3, 16320, Note_on_c, 0, 49, 78
3, 16320, Note_on_c, 0, 59, 78
3, 16320, Note_on_c, 0, 64, 78
3, 16560, Note_on_c, 0, 64, 0
3, 16560, Note_on_c, 0, 59, 0
3, 16560, Note_on_c, 0, 49, 0
3, 16800, Note_on_c, 0, 51, 78
3, 16800, Note_on_c, 0, 59, 78
3, 16800, Note_on_c, 0, 65, 78
3, 17040, Note_on_c, 0, 65, 0
3, 17040, Note_on_c, 0, 59, 0
3, 17040, Note_on_c, 0, 51, 0
3, 17280, Note_on_c, 0, 51, 78
3, 17280, Note_on_c, 0, 59, 78
3, 17280, Note_on_c, 0, 66, 78
3, 17520, Note_on_c, 0, 66, 0
3, 17520, Note_on_c, 0, 59, 0
3, 17520, Note_on_c, 0, 51, 0
3, 17760, Note_on_c, 0, 52, 78
3, 17760, Note_on_c, 0, 59, 78
3, 17760, Note_on_c, 0, 61, 78
3, 18000, Note_on_c, 0, 61, 0
3, 18000, Note_on_c, 0, 59, 0
3, 18000, Note_on_c, 0, 52, 0
3, 18240, Note_on_c, 0, 53, 78
3, 18240, Note_on_c, 0, 59, 78
3, 18240, Note_on_c, 0, 62, 78
3, 18480, Note_on_c, 0, 62, 0
3, 18480, Note_on_c, 0, 59, 0
3, 18480, Note_on_c, 0, 53, 0
3, 18720, Note_on_c, 0, 54, 78
3, 18720, Note_on_c, 0, 59, 78
3, 18720, Note_on_c, 0, 63, 78
3, 18960, Note_on_c, 0, 63, 0
3, 18960, Note_on_c, 0, 59, 0
3, 18960, Note_on_c, 0, 54, 0
3, 19200, Note_on_c, 0, 52, 78
3, 19200, Note_on_c, 0, 56, 78
3, 19200, Note_on_c, 0, 59, 78
3, 19247, Note_on_c, 0, 59, 0
3, 19247, Note_on_c, 0, 56, 0
3, 19247, Note_on_c, 0, 52, 0
3, 19440, Note_on_c, 0, 61, 78
3, 19487, Note_on_c, 0, 61, 0
3, 19680, Note_on_c, 0, 47, 78
3, 19680, Note_on_c, 0, 56, 78
3, 19680, Note_on_c, 0, 59, 78
3, 19727, Note_on_c, 0, 59, 0
3, 19727, Note_on_c, 0, 56, 0
3, 19727, Note_on_c, 0, 47, 0
3, 19920, Note_on_c, 0, 61, 78
3, 19967, Note_on_c, 0, 61, 0
3, 20160, Note_on_c, 0, 52, 78
3, 20160, Note_on_c, 0, 56, 78
3, 20160, Note_on_c, 0, 59, 78
3, 20207, Note_on_c, 0, 59, 0
3, 20207, Note_on_c, 0, 56, 0
3, 20207, Note_on_c, 0, 52, 0
3, 20400, Note_on_c, 0, 61, 78
3, 20447, Note_on_c, 0, 61, 0
3, 20640, Note_on_c, 0, 47, 78
3, 20640, Note_on_c, 0, 56, 78
3, 20640, Note_on_c, 0, 59, 78
3, 20687, Note_on_c, 0, 59, 0
3, 20687, Note_on_c, 0, 56, 0
3, 20687, Note_on_c, 0, 47, 0
3, 20880, Note_on_c, 0, 61, 78
3, 20927, Note_on_c, 0, 61, 0
3, 21120, Note_on_c, 0, 54, 78
3, 21120, Note_on_c, 0, 57, 78
3, 21120, Note_on_c, 0, 59, 78
3, 21167, Note_on_c, 0, 59, 0
3, 21167, Note_on_c, 0, 57, 0
3, 21167, Note_on_c, 0, 54, 0
3, 21360, Note_on_c, 0, 61, 78
3, 21407, Note_on_c, 0, 61, 0
3, 21600, Note_on_c, 0, 47, 78
3, 21600, Note_on_c, 0, 57, 78
3, 21600, Note_on_c, 0, 59, 78
3, 21647, Note_on_c, 0, 59, 0
3, 21647, Note_on_c, 0, 57, 0
3, 21647, Note_on_c, 0, 47, 0
3, 21840, Note_on_c, 0, 61, 78
3, 21887, Note_on_c, 0, 61, 0
3, 22080, Note_on_c, 0, 54, 78
3, 22080, Note_on_c, 0, 57, 78
3, 22080, Note_on_c, 0, 59, 78
3, 22127, Note_on_c, 0, 59, 0
3, 22127, Note_on_c, 0, 57, 0
3, 22127, Note_on_c, 0, 54, 0
3, 22320, Note_on_c, 0, 61, 78
3, 22367, Note_on_c, 0, 61, 0
3, 22560, Note_on_c, 0, 47, 78
3, 22560, Note_on_c, 0, 57, 78
3, 22560, Note_on_c, 0, 59, 78
3, 22607, Note_on_c, 0, 59, 0
3, 22607, Note_on_c, 0, 57, 0
3, 22607, Note_on_c, 0, 47, 0
3, 22800, Note_on_c, 0, 61, 78
3, 22847, Note_on_c, 0, 61, 0
3, 23040, Note_on_c, 0, 52, 78
3, 23040, Note_on_c, 0, 56, 78
3, 23040, Note_on_c, 0, 59, 78
3, 23280, Note_on_c, 0, 59, 0
3, 23280, Note_on_c, 0, 56, 0
3, 23280, Note_on_c, 0, 52, 0
3, 23280, Note_on_c, 0, 52, 39
3, 23520, Note_on_c, 0, 52, 0
3, 23520, Note_on_c, 0, 50, 39
3, 23520, Note_on_c, 0, 62, 39
3, 23760, Note_on_c, 0, 62, 0
3, 23760, Note_on_c, 0, 50, 0
3, 23760, Note_on_c, 0, 52, 39
3, 23760, Note_on_c, 0, 64, 39
3, 24000, Note_on_c, 0, 64, 0
3, 24000, Note_on_c, 0, 52, 0
3, 24000, Note_on_c, 0, 50, 52
3, 24000, Note_on_c, 0, 62, 52
3, 24240, Note_on_c, 0, 62, 0
3, 24240, Note_on_c, 0, 50, 0
3, 24240, Note_on_c, 0, 52, 52
3, 24240, Note_on_c, 0, 64, 52
3, 24480, Note_on_c, 0, 64, 0
3, 24480, Note_on_c, 0, 52, 0
3, 24480, Note_on_c, 0, 50, 65
3, 24480, Note_on_c, 0, 62, 65
3, 24720, Note_on_c, 0, 62, 0
3, 24720, Note_on_c, 0, 50, 0
3, 24720, Note_on_c, 0, 52, 65
3, 24720, Note_on_c, 0, 64, 65
3, 24960, Note_on_c, 0, 64, 0
3, 24960, Note_on_c, 0, 52, 0
3, 24960, Note_on_c, 0, 49, 65
3, 24960, Note_on_c, 0, 61, 65
3, 25200, Note_on_c, 0, 61, 0
3, 25200, Note_on_c, 0, 49, 0
3, 25200, Note_on_c, 0, 52, 39
3, 25200, Note_on_c, 0, 64, 39
3, 25440, Note_on_c, 0, 64, 0
3, 25440, Note_on_c, 0, 52, 0
3, 25440, Note_on_c, 0, 50, 39
3, 25440, Note_on_c, 0, 62, 39
3, 25680, Note_on_c, 0, 62, 0
3, 25680, Note_on_c, 0, 50, 0
3, 25680, Note_on_c, 0, 52, 39
3, 25680, Note_on_c, 0, 64, 39
3, 25920, Note_on_c, 0, 64, 0
3, 25920, Note_on_c, 0, 52, 0
3, 25920, Note_on_c, 0, 50, 52
3, 25920, Note_on_c, 0, 62, 52
3, 26160, Note_on_c, 0, 62, 0
3, 26160, Note_on_c, 0, 50, 0
3, 26160, Note_on_c, 0, 52, 52
3, 26160, Note_on_c, 0, 64, 52
3, 26400, Note_on_c, 0, 64, 0
3, 26400, Note_on_c, 0, 52, 0
3, 26400, Note_on_c, 0, 50, 65
3, 26400, Note_on_c, 0, 62, 65
3, 26640, Note_on_c, 0, 62, 0
3, 26640, Note_on_c, 0, 50, 0
3, 26640, Note_on_c, 0, 52, 65
3, 26640, Note_on_c, 0, 64, 65
3, 26880, Note_on_c, 0, 64, 0
3, 26880, Note_on_c, 0, 52, 0
3, 26880, Note_on_c, 0, 49, 65
3, 26880, Note_on_c, 0, 61, 65
3, 27120, Note_on_c, 0, 61, 0
3, 27120, Note_on_c, 0, 49, 0
3, 27120, Control_c, 0, 64, 127
3, 27120, Note_on_c, 0, 48, 65
3, 27240, Note_on_c, 0, 48, 0
3, 27240, Note_on_c, 0, 50, 65
3, 27360, Note_on_c, 0, 50, 0
3, 27360, Note_on_c, 0, 52, 65
3, 27480, Note_on_c, 0, 52, 0
3, 27480, Note_on_c, 0, 51, 65
3, 27600, Note_on_c, 0, 51, 0
3, 27600, Note_on_c, 0, 52, 65
3, 27720, Note_on_c, 0, 52, 0
3, 27720, Control_c, 0, 64, 0
3, 27720, Note_on_c, 0, 53, 65
3, 27840, Note_on_c, 0, 53, 0
3, 27840, Control_c, 0, 64, 127
3, 27840, Note_on_c, 0, 55, 65
3, 27960, Note_on_c, 0, 55, 0
3, 27960, Note_on_c, 0, 57, 65
3, 28080, Note_on_c, 0, 57, 0
3, 28080, Note_on_c, 0, 58, 65
3, 28200, Note_on_c, 0, 58, 0
3, 28200, Note_on_c, 0, 60, 65
3, 28320, Note_on_c, 0, 60, 0
3, 28320, Note_on_c, 0, 62, 65
3, 28440, Note_on_c, 0, 62, 0
3, 28440, Note_on_c, 0, 60, 65
3, 28560, Note_on_c, 0, 60, 0
3, 28560, Note_on_c, 0, 62, 65
3, 28680, Note_on_c, 0, 62, 0
3, 28680, Note_on_c, 0, 64, 65
3, 28800, Note_on_c, 0, 64, 0
3, 28800, Control_c, 0, 64, 0
3, 28800, Note_on_c, 0, 65, 65
3, 29040, Note_on_c, 0, 65, 0
3, 29040, Note_on_c, 0, 53, 65
3, 29040, Note_on_c, 0, 57, 65
3, 29520, Note_on_c, 0, 57, 0
3, 29520, Note_on_c, 0, 53, 0
3, 29520, Note_on_c, 0, 53, 65
3, 29520, Note_on_c, 0, 57, 65
3, 29760, Note_on_c, 0, 57, 0
3, 29760, Note_on_c, 0, 53, 0
3, 29760, Note_on_c, 0, 52, 65
3, 29760, Note_on_c, 0, 57, 65
3, 29760, Note_on_c, 0, 61, 65
3, 30000, Note_on_c, 0, 61, 0
3, 30000, Note_on_c, 0, 57, 0
3, 30000, Note_on_c, 0, 52, 0
3, 30240, Note_on_c, 0, 52, 65
3, 30240, Note_on_c, 0, 59, 65
3, 30240, Note_on_c, 0, 62, 65
3, 30480, Note_on_c, 0, 62, 0
3, 30480, Note_on_c, 0, 59, 0
3, 30480, Note_on_c, 0, 52, 0
3, 30720, Note_on_c, 0, 57, 65
3, 30720, Note_on_c, 0, 61, 65
3, 30720, Note_on_c, 0, 64, 65
3, 30960, Note_on_c, 0, 64, 0
3, 30960, Note_on_c, 0, 61, 0
3, 30960, Note_on_c, 0, 57, 0
3, 30960, Note_on_c, 0, 52, 39
3, 31200, Note_on_c, 0, 52, 0
3, 31200, Note_on_c, 0, 50, 39
3, 31200, Note_on_c, 0, 62, 39
3, 31440, Note_on_c, 0, 62, 0
3, 31440, Note_on_c, 0, 50, 0
3, 31440, Note_on_c, 0, 52, 39
3, 31440, Note_on_c, 0, 64, 39
3, 31680, Note_on_c, 0, 64, 0
3, 31680, Note_on_c, 0, 52, 0
3, 31680, Note_on_c, 0, 50, 52
3, 31680, Note_on_c, 0, 62, 52
3, 31920, Note_on_c, 0, 62, 0
3, 31920, Note_on_c, 0, 50, 0
3, 31920, Note_on_c, 0, 52, 52
3, 31920, Note_on_c, 0, 64, 52
3, 32160, Note_on_c, 0, 64, 0
3, 32160, Note_on_c, 0, 52, 0
3, 32160, Note_on_c, 0, 50, 65
3, 32160, Note_on_c, 0, 62, 65
3, 32400, Note_on_c, 0, 62, 0
3, 32400, Note_on_c, 0, 50, 0
3, 32400, Note_on_c, 0, 52, 65
3, 32400, Note_on_c, 0, 64, 65
3, 32640, Note_on_c, 0, 64, 0
3, 32640, Note_on_c, 0, 52, 0
3, 32640, Note_on_c, 0, 49, 65
3, 32640, Note_on_c, 0, 61, 65
3, 32880, Note_on_c, 0, 61, 0
3, 32880, Note_on_c, 0, 49, 0
3, 32880, Note_on_c, 0, 52, 39
3, 32880, Note_on_c, 0, 64, 39
3, 33120, Note_on_c, 0, 64, 0
3, 33120, Note_on_c, 0, 52, 0
3, 33120, Note_on_c, 0, 50, 39
3, 33120, Note_on_c, 0, 62, 39
3, 33360, Note_on_c, 0, 62, 0
3, 33360, Note_on_c, 0, 50, 0
3, 33360, Note_on_c, 0, 52, 39
3, 33360, Note_on_c, 0, 64, 39
3, 33600, Note_on_c, 0, 64, 0
3, 33600, Note_on_c, 0, 52, 0
3, 33600, Note_on_c, 0, 50, 52
3, 33600, Note_on_c, 0, 62, 52
3, 33840, Note_on_c, 0, 62, 0
3, 33840, Note_on_c, 0, 50, 0
3, 33840, Note_on_c, 0, 52, 52
3, 33840, Note_on_c, 0, 64, 52
3, 34080, Note_on_c, 0, 64, 0
3, 34080, Note_on_c, 0, 52, 0
3, 34080, Note_on_c, 0, 50, 65
3, 34080, Note_on_c, 0, 62, 65
3, 34320, Note_on_c, 0, 62, 0
3, 34320, Note_on_c, 0, 50, 0
3, 34320, Note_on_c, 0, 52, 65
3, 34320, Note_on_c, 0, 64, 65
3, 34560, Note_on_c, 0, 64, 0
3, 34560, Note_on_c, 0, 52, 0
3, 34560, Note_on_c, 0, 49, 65
3, 34560, Note_on_c, 0, 61, 65
3, 34800, Note_on_c, 0, 61, 0
3, 34800, Note_on_c, 0, 49, 0
3, 34800, Control_c, 0, 64, 127
3, 34800, Note_on_c, 0, 48, 65
3, 34920, Note_on_c, 0, 48, 0
3, 34920, Note_on_c, 0, 50, 65
3, 35040, Note_on_c, 0, 50, 0
3, 35040, Note_on_c, 0, 52, 65
3, 35160, Note_on_c, 0, 52, 0
3, 35160, Note_on_c, 0, 51, 65
3, 35280, Note_on_c, 0, 51, 0
3, 35280, Note_on_c, 0, 52, 65
3, 35400, Note_on_c, 0, 52, 0
3, 35400, Control_c, 0, 64, 0
3, 35400, Note_on_c, 0, 53, 65
3, 35520, Note_on_c, 0, 53, 0
3, 35520, Control_c, 0, 64, 127
3, 35520, Note_on_c, 0, 55, 65
3, 35640, Note_on_c, 0, 55, 0
3, 35640, Note_on_c, 0, 57, 65
3, 35760, Note_on_c, 0, 57, 0
3, 35760, Note_on_c, 0, 58, 65
3, 35880, Note_on_c, 0, 58, 0
3, 35880, Note_on_c, 0, 60, 65
3, 36000, Note_on_c, 0, 60, 0
3, 36000, Note_on_c, 0, 62, 65
3, 36120, Note_on_c, 0, 62, 0
3, 36120, Note_on_c, 0, 60, 65
3, 36240, Note_on_c, 0, 60, 0
3, 36240, Note_on_c, 0, 62, 65
3, 36360, Note_on_c, 0, 62, 0
3, 36360, Control_c, 0, 64, 0
3, 36360, Note_on_c, 0, 64, 65
3, 36480, Note_on_c, 0, 64, 0
3, 36480, Note_on_c, 0, 65, 65
3, 36720, Note_on_c, 0, 65, 0
3, 36720, Note_on_c, 0, 53, 65
3, 36720, Note_on_c, 0, 57, 65
3, 36720, Note_on_c, 0, 65, 65
3, 36960, Note_on_c, 0, 65, 0
3, 36960, Note_on_c, 0, 57, 0
3, 36960, Note_on_c, 0, 53, 0
3, 37200, Note_on_c, 0, 45, 65
3, 37200, Note_on_c, 0, 48, 65
3, 37200, Note_on_c, 0, 57, 65
3, 37440, Note_on_c, 0, 57, 0
3, 37440, Note_on_c, 0, 48, 0
3, 37440, Note_on_c, 0, 45, 0
3, 37440, Note_on_c, 0, 47, 65
3, 37440, Note_on_c, 0, 52, 65
3, 37440, Note_on_c, 0, 56, 65
3, 37440, Note_on_c, 0, 59, 65
3, 37680, Note_on_c, 0, 59, 0
3, 37680, Note_on_c, 0, 47, 0
3, 37680, Note_on_c, 0, 52, 0
3, 37680, Note_on_c, 0, 56, 0
3, 37920, Note_on_c, 0, 47, 65
3, 37920, Note_on_c, 0, 51, 65
3, 37920, Note_on_c, 0, 54, 65
3, 37920, Note_on_c, 0, 57, 65
3, 37920, Note_on_c, 0, 59, 65
3, 38160, Note_on_c, 0, 59, 0
3, 38160, Note_on_c, 0, 54, 0
3, 38160, Note_on_c, 0, 47, 0
3, 38160, Note_on_c, 0, 51, 0
3, 38160, Note_on_c, 0, 57, 0
3, 38400, Note_on_c, 0, 52, 78
3, 38400, Note_on_c, 0, 56, 78
3, 38400, Note_on_c, 0, 59, 78
3, 38640, Note_on_c, 0, 59, 0
3, 38640, Note_on_c, 0, 56, 0
3, 38640, Note_on_c, 0, 52, 0
3, 38640, Note_on_c, 0, 64, 78
3, 38880, Note_on_c, 0, 64, 0
3, 38880, Note_on_c, 0, 52, 78
3, 38880, Note_on_c, 0, 62, 78
3, 39120, Note_on_c, 0, 62, 0
3, 39120, Note_on_c, 0, 52, 0
3, 39120, Note_on_c, 0, 64, 78
3, 39360, Note_on_c, 0, 64, 0
3, 39360, Note_on_c, 0, 52, 78
3, 39360, Note_on_c, 0, 61, 78
3, 39600, Note_on_c, 0, 61, 0
3, 39600, Note_on_c, 0, 52, 0
3, 39600, Note_on_c, 0, 64, 78
3, 39840, Note_on_c, 0, 64, 0
3, 39840, Note_on_c, 0, 52, 78
3, 39840, Note_on_c, 0, 60, 78
3, 40080, Note_on_c, 0, 60, 0
3, 40080, Note_on_c, 0, 52, 0
3, 40080, Note_on_c, 0, 64, 78
3, 40320, Note_on_c, 0, 64, 0
3, 40320, Note_on_c, 0, 52, 78
3, 40320, Note_on_c, 0, 59, 78
3, 40560, Note_on_c, 0, 59, 0
3, 40560, Note_on_c, 0, 52, 0
3, 40560, Note_on_c, 0, 64, 78
3, 40800, Note_on_c, 0, 64, 0
3, 40800, Note_on_c, 0, 52, 78
3, 40800, Note_on_c, 0, 62, 78
3, 41040, Note_on_c, 0, 62, 0
3, 41040, Note_on_c, 0, 52, 0
3, 41040, Note_on_c, 0, 64, 78
3, 41280, Note_on_c, 0, 64, 0
3, 41280, Note_on_c, 0, 52, 78
3, 41280, Note_on_c, 0, 61, 78
3, 41520, Note_on_c, 0, 61, 0
3, 41520, Note_on_c, 0, 52, 0
3, 41520, Note_on_c, 0, 64, 78
3, 41760, Note_on_c, 0, 64, 0
3, 41760, Note_on_c, 0, 52, 78
3, 41760, Note_on_c, 0, 60, 78
3, 42000, Note_on_c, 0, 60, 0
3, 42000, Note_on_c, 0, 52, 0
3, 42000, Note_on_c, 0, 64, 78
3, 42240, Note_on_c, 0, 64, 0
3, 42240, Note_on_c, 0, 52, 78
3, 42240, Note_on_c, 0, 59, 78
3, 42480, Note_on_c, 0, 59, 0
3, 42480, Note_on_c, 0, 52, 0
3, 42480, Note_on_c, 0, 52, 78
3, 42480, Note_on_c, 0, 62, 78
3, 42480, Note_on_c, 0, 64, 78
3, 42720, Note_on_c, 0, 64, 0
3, 42720, Note_on_c, 0, 62, 0
3, 42720, Note_on_c, 0, 52, 0
3, 42720, Note_on_c, 0, 52, 78
3, 42720, Note_on_c, 0, 61, 78
3, 42720, Note_on_c, 0, 64, 78
3, 42960, Note_on_c, 0, 64, 0
3, 42960, Note_on_c, 0, 61, 0
3, 42960, Note_on_c, 0, 52, 0
3, 42960, Note_on_c, 0, 52, 78
3, 42960, Note_on_c, 0, 60, 78
3, 42960, Note_on_c, 0, 64, 78
3, 43200, Note_on_c, 0, 64, 0
3, 43200, Note_on_c, 0, 60, 0
3, 43200, Note_on_c, 0, 52, 0
3, 43200, Note_on_c, 0, 52, 78
3, 43200, Note_on_c, 0, 59, 78
3, 43200, Note_on_c, 0, 64, 78
3, 43440, Note_on_c, 0, 64, 0
3, 43440, Note_on_c, 0, 59, 0
3, 43440, Note_on_c, 0, 52, 0
3, 43440, Note_on_c, 0, 52, 78
3, 43440, Note_on_c, 0, 62, 78
3, 43440, Note_on_c, 0, 64, 78
3, 43680, Note_on_c, 0, 64, 0
3, 43680, Note_on_c, 0, 62, 0
3, 43680, Note_on_c, 0, 52, 0
3, 43680, Note_on_c, 0, 52, 78
3, 43680, Note_on_c, 0, 61, 78
3, 43680, Note_on_c, 0, 64, 78
3, 43920, Note_on_c, 0, 64, 0
3, 43920, Note_on_c, 0, 61, 0
3, 43920, Note_on_c, 0, 52, 0
3, 43920, Note_on_c, 0, 52, 78
3, 43920, Note_on_c, 0, 60, 78
3, 43920, Note_on_c, 0, 64, 78
3, 44160, Note_on_c, 0, 64, 0
3, 44160, Note_on_c, 0, 60, 0
3, 44160, Note_on_c, 0, 52, 0
3, 44160, Note_on_c, 0, 52, 78
3, 44160, Note_on_c, 0, 59, 78
3, 44160, Note_on_c, 0, 64, 78
3, 44400, Note_on_c, 0, 64, 0
3, 44400, Note_on_c, 0, 59, 0
3, 44400, Note_on_c, 0, 52, 0
3, 44400, Note_on_c, 0, 61, 78
3, 44400, Note_on_c, 0, 64, 78
3, 44640, Note_on_c, 0, 64, 0
3, 44640, Note_on_c, 0, 61, 0
3, 44640, Note_on_c, 0, 57, 78
3, 44640, Note_on_c, 0, 61, 78
3, 44640, Note_on_c, 0, 64, 78
3, 44880, Note_on_c, 0, 64, 0
3, 44880, Note_on_c, 0, 61, 0
3, 44880, Note_on_c, 0, 57, 0
3, 44880, Note_on_c, 0, 61, 78
3, 44880, Note_on_c, 0, 64, 78
3, 45120, Note_on_c, 0, 64, 0
3, 45120, Note_on_c, 0, 61, 0
3, 45120, Note_on_c, 0, 57, 78
3, 45120, Note_on_c, 0, 61, 78
3, 45120, Note_on_c, 0, 64, 78
3, 45360, Note_on_c, 0, 64, 0
3, 45360, Note_on_c, 0, 61, 0
3, 45360, Note_on_c, 0, 57, 0
3, 45360, Note_on_c, 0, 61, 78
3, 45360, Note_on_c, 0, 64, 78
3, 45600, Note_on_c, 0, 64, 0
3, 45600, Note_on_c, 0, 61, 0
3, 45600, Note_on_c, 0, 57, 78
3, 45600, Note_on_c, 0, 61, 78
3, 45600, Note_on_c, 0, 64, 78
3, 45840, Note_on_c, 0, 64, 0
3, 45840, Note_on_c, 0, 61, 0
3, 45840, Note_on_c, 0, 57, 0
3, 45840, Note_on_c, 0, 61, 78
3, 45840, Note_on_c, 0, 64, 78
3, 46080, Note_on_c, 0, 64, 0
3, 46080, Note_on_c, 0, 61, 0
3, 46080, Note_on_c, 0, 52, 78
3, 46080, Note_on_c, 0, 56, 78
3, 46080, Note_on_c, 0, 59, 78
3, 46080, Note_on_c, 0, 64, 78
3, 46320, Note_on_c, 0, 64, 0
3, 46320, Note_on_c, 0, 52, 0
3, 46320, Note_on_c, 0, 56, 0
3, 46320, Note_on_c, 0, 59, 0
3, 46320, Note_on_c, 0, 52, 104
3, 46320, Note_on_c, 0, 56, 104
3, 46320, Note_on_c, 0, 59, 104
3, 46320, Note_on_c, 0, 64, 104
3, 46800, Note_on_c, 0, 64, 0
3, 46800, Note_on_c, 0, 52, 0
3, 46800, Note_on_c, 0, 56, 0
3, 46800, Note_on_c, 0, 59, 0
3, 46800, End_track
0, 0, End_of_file
