0, 0, Header, 1, 5, 480
1, 0, Start_track
1, 0, Title_t, "tchaikovsky sleeping beauty act3 26a pas de caractere"
1, 0, Copyright_t, "Adaptation for Disklavier pianos, by: Robert C. Kuhmann (c) 2012."
1, 0, Text_t, "Seq. (c) by: Segundo G. Yogore,  2007\012"
1, 0, Time_signature, 2, 2, 24, 8
1, 0, Key_signature, -2, "major"
1, 0, Tempo, 500000
1, 49920, Tempo, 461538
1, 53760, Tempo, 428571
1, 64320, Time_signature, 8, 2, 24, 8
1, 64320, End_track
2, 0, Start_track
2, 0, Title_t, "Grand Piano"
2, 0, Program_c, 0, 0
2, 0, Control_c, 0, 7, 115
2, 0, Control_c, 0, 10, 86
2, 0, Note_on_c, 0, 70, 57
2, 0, Note_on_c, 0, 73, 57
2, 0, Note_on_c, 0, 79, 57
2, 240, Note_on_c, 0, 79, 0
2, 240, Note_on_c, 0, 73, 0
2, 240, Note_on_c, 0, 70, 0
2, 240, Note_on_c, 0, 70, 57
2, 240, Note_on_c, 0, 73, 57
2, 240, Note_on_c, 0, 79, 57
2, 480, Note_on_c, 0, 79, 0
2, 480, Note_on_c, 0, 73, 0
2, 480, Note_on_c, 0, 70, 0
2, 480, Note_on_c, 0, 70, 57
2, 480, Note_on_c, 0, 74, 57
2, 720, Note_on_c, 0, 74, 0
2, 720, Note_on_c, 0, 70, 0
2, 720, Note_on_c, 0, 70, 57
2, 720, Note_on_c, 0, 74, 57
2, 960, Note_on_c, 0, 74, 0
2, 960, Note_on_c, 0, 70, 0
2, 960, Note_on_c, 0, 70, 57
2, 960, Note_on_c, 0, 73, 57
2, 960, Note_on_c, 0, 79, 57
2, 1200, Note_on_c, 0, 79, 0
2, 1200, Note_on_c, 0, 73, 0
2, 1200, Note_on_c, 0, 70, 0
2, 1200, Note_on_c, 0, 70, 57
2, 1200, Note_on_c, 0, 73, 57
2, 1200, Note_on_c, 0, 79, 57
2, 1440, Note_on_c, 0, 79, 0
2, 1440, Note_on_c, 0, 73, 0
2, 1440, Note_on_c, 0, 70, 0
2, 1440, Note_on_c, 0, 70, 57
2, 1440, Note_on_c, 0, 74, 57
2, 1680, Note_on_c, 0, 74, 0
2, 1680, Note_on_c, 0, 70, 0
2, 1680, Note_on_c, 0, 70, 57
2, 1680, Note_on_c, 0, 74, 57
2, 1920, Note_on_c, 0, 74, 0
2, 1920, Note_on_c, 0, 70, 0
2, 1920, Note_on_c, 0, 72, 57
2, 1943, Note_on_c, 0, 72, 0
2, 2040, Note_on_c, 0, 74, 57
2, 2063, Note_on_c, 0, 74, 0
2, 2160, Note_on_c, 0, 72, 57
2, 2183, Note_on_c, 0, 72, 0
2, 2280, Note_on_c, 0, 74, 57
2, 2303, Note_on_c, 0, 74, 0
2, 2400, Note_on_c, 0, 70, 57
2, 2423, Note_on_c, 0, 70, 0
2, 2520, Note_on_c, 0, 72, 57
2, 2543, Note_on_c, 0, 72, 0
2, 2640, Note_on_c, 0, 70, 57
2, 2663, Note_on_c, 0, 70, 0
2, 2760, Note_on_c, 0, 72, 57
2, 2783, Note_on_c, 0, 72, 0
2, 2880, Note_on_c, 0, 69, 57
2, 2903, Note_on_c, 0, 69, 0
2, 3000, Note_on_c, 0, 70, 57
2, 3023, Note_on_c, 0, 70, 0
2, 3120, Note_on_c, 0, 69, 57
2, 3143, Note_on_c, 0, 69, 0
2, 3240, Note_on_c, 0, 70, 57
2, 3263, Note_on_c, 0, 70, 0
2, 3360, Note_on_c, 0, 67, 57
2, 3480, Note_on_c, 0, 67, 0
2, 3480, Note_on_c, 0, 69, 57
2, 3600, Note_on_c, 0, 69, 0
2, 3600, Note_on_c, 0, 70, 57
2, 3623, Note_on_c, 0, 70, 0
2, 3720, Note_on_c, 0, 74, 57
2, 3743, Note_on_c, 0, 74, 0
2, 3840, Note_on_c, 0, 70, 57
2, 3840, Note_on_c, 0, 73, 57
2, 3840, Note_on_c, 0, 79, 57
2, 4080, Note_on_c, 0, 79, 0
2, 4080, Note_on_c, 0, 73, 0
2, 4080, Note_on_c, 0, 70, 0
2, 4080, Note_on_c, 0, 70, 57
2, 4080, Note_on_c, 0, 73, 57
2, 4080, Note_on_c, 0, 79, 57
2, 4320, Note_on_c, 0, 79, 0
2, 4320, Note_on_c, 0, 73, 0
2, 4320, Note_on_c, 0, 70, 0
2, 4320, Note_on_c, 0, 70, 57
2, 4320, Note_on_c, 0, 74, 57
2, 4560, Note_on_c, 0, 74, 0
2, 4560, Note_on_c, 0, 70, 0
2, 4560, Note_on_c, 0, 70, 57
2, 4560, Note_on_c, 0, 74, 57
2, 4800, Note_on_c, 0, 74, 0
2, 4800, Note_on_c, 0, 70, 0
2, 4800, Note_on_c, 0, 70, 57
2, 4800, Note_on_c, 0, 73, 57
2, 4800, Note_on_c, 0, 79, 57
2, 5040, Note_on_c, 0, 79, 0
2, 5040, Note_on_c, 0, 73, 0
2, 5040, Note_on_c, 0, 70, 0
2, 5040, Note_on_c, 0, 70, 57
2, 5040, Note_on_c, 0, 73, 57
2, 5040, Note_on_c, 0, 79, 57
2, 5280, Note_on_c, 0, 79, 0
2, 5280, Note_on_c, 0, 73, 0
2, 5280, Note_on_c, 0, 70, 0
2, 5280, Note_on_c, 0, 70, 57
2, 5280, Note_on_c, 0, 74, 57
2, 5520, Note_on_c, 0, 74, 0
2, 5520, Note_on_c, 0, 70, 0
2, 5520, Note_on_c, 0, 70, 57
2, 5520, Note_on_c, 0, 74, 57
2, 5760, Note_on_c, 0, 74, 0
2, 5760, Note_on_c, 0, 70, 0
2, 5760, Note_on_c, 0, 72, 57
2, 5783, Note_on_c, 0, 72, 0
2, 5880, Note_on_c, 0, 74, 57
2, 5903, Note_on_c, 0, 74, 0
2, 6000, Note_on_c, 0, 72, 57
2, 6023, Note_on_c, 0, 72, 0
2, 6120, Note_on_c, 0, 74, 57
2, 6143, Note_on_c, 0, 74, 0
2, 6240, Note_on_c, 0, 70, 57
2, 6263, Note_on_c, 0, 70, 0
2, 6360, Note_on_c, 0, 72, 57
2, 6383, Note_on_c, 0, 72, 0
2, 6480, Note_on_c, 0, 70, 57
2, 6503, Note_on_c, 0, 70, 0
2, 6600, Note_on_c, 0, 72, 57
2, 6623, Note_on_c, 0, 72, 0
2, 6720, Note_on_c, 0, 69, 57
2, 6743, Note_on_c, 0, 69, 0
2, 6840, Note_on_c, 0, 70, 57
2, 6863, Note_on_c, 0, 70, 0
2, 6960, Note_on_c, 0, 69, 57
2, 6983, Note_on_c, 0, 69, 0
2, 7080, Note_on_c, 0, 70, 57
2, 7103, Note_on_c, 0, 70, 0
2, 7200, Note_on_c, 0, 67, 57
2, 7320, Note_on_c, 0, 67, 0
2, 7320, Note_on_c, 0, 69, 57
2, 7440, Note_on_c, 0, 69, 0
2, 7440, Note_on_c, 0, 70, 57
2, 7463, Note_on_c, 0, 70, 0
2, 7560, Note_on_c, 0, 74, 57
2, 7583, Note_on_c, 0, 74, 0
2, 7680, Note_on_c, 0, 70, 57
2, 7680, Note_on_c, 0, 73, 57
2, 7680, Note_on_c, 0, 79, 57
2, 7920, Note_on_c, 0, 79, 0
2, 7920, Note_on_c, 0, 73, 0
2, 7920, Note_on_c, 0, 70, 0
2, 7920, Note_on_c, 0, 70, 57
2, 7920, Note_on_c, 0, 73, 57
2, 7920, Note_on_c, 0, 79, 57
2, 8160, Note_on_c, 0, 79, 0
2, 8160, Note_on_c, 0, 73, 0
2, 8160, Note_on_c, 0, 70, 0
2, 8160, Note_on_c, 0, 70, 57
2, 8160, Note_on_c, 0, 74, 57
2, 8400, Note_on_c, 0, 74, 0
2, 8400, Note_on_c, 0, 70, 0
2, 8400, Note_on_c, 0, 70, 57
2, 8400, Note_on_c, 0, 74, 57
2, 8640, Note_on_c, 0, 74, 0
2, 8640, Note_on_c, 0, 70, 0
2, 8640, Note_on_c, 0, 70, 57
2, 8640, Note_on_c, 0, 73, 57
2, 8640, Note_on_c, 0, 79, 57
2, 8880, Note_on_c, 0, 79, 0
2, 8880, Note_on_c, 0, 73, 0
2, 8880, Note_on_c, 0, 70, 0
2, 8880, Note_on_c, 0, 70, 57
2, 8880, Note_on_c, 0, 73, 57
2, 8880, Note_on_c, 0, 79, 57
2, 9120, Note_on_c, 0, 79, 0
2, 9120, Note_on_c, 0, 73, 0
2, 9120, Note_on_c, 0, 70, 0
2, 9120, Note_on_c, 0, 70, 57
2, 9120, Note_on_c, 0, 74, 57
2, 9360, Note_on_c, 0, 74, 0
2, 9360, Note_on_c, 0, 70, 0
2, 9360, Note_on_c, 0, 70, 57
2, 9360, Note_on_c, 0, 74, 57
2, 9600, Note_on_c, 0, 74, 0
2, 9600, Note_on_c, 0, 70, 0
2, 9600, Note_on_c, 0, 72, 57
2, 9623, Note_on_c, 0, 72, 0
2, 9720, Note_on_c, 0, 74, 57
2, 9743, Note_on_c, 0, 74, 0
2, 9840, Note_on_c, 0, 72, 57
2, 9863, Note_on_c, 0, 72, 0
2, 9960, Note_on_c, 0, 74, 57
2, 9983, Note_on_c, 0, 74, 0
2, 10080, Note_on_c, 0, 70, 57
2, 10103, Note_on_c, 0, 70, 0
2, 10200, Note_on_c, 0, 72, 57
2, 10223, Note_on_c, 0, 72, 0
2, 10320, Note_on_c, 0, 70, 57
2, 10343, Note_on_c, 0, 70, 0
2, 10440, Note_on_c, 0, 72, 57
2, 10463, Note_on_c, 0, 72, 0
2, 10560, Note_on_c, 0, 69, 57
2, 10583, Note_on_c, 0, 69, 0
2, 10680, Note_on_c, 0, 70, 57
2, 10703, Note_on_c, 0, 70, 0
2, 10800, Note_on_c, 0, 69, 57
2, 10823, Note_on_c, 0, 69, 0
2, 10920, Note_on_c, 0, 70, 57
2, 10943, Note_on_c, 0, 70, 0
2, 11040, Note_on_c, 0, 67, 57
2, 11160, Note_on_c, 0, 67, 0
2, 11160, Note_on_c, 0, 69, 57
2, 11280, Note_on_c, 0, 69, 0
2, 11280, Note_on_c, 0, 70, 57
2, 11303, Note_on_c, 0, 70, 0
2, 11400, Note_on_c, 0, 74, 57
2, 11423, Note_on_c, 0, 74, 0
2, 11520, Note_on_c, 0, 70, 57
2, 11520, Note_on_c, 0, 73, 57
2, 11520, Note_on_c, 0, 79, 57
2, 11760, Note_on_c, 0, 79, 0
2, 11760, Note_on_c, 0, 73, 0
2, 11760, Note_on_c, 0, 70, 0
2, 11760, Note_on_c, 0, 70, 57
2, 11760, Note_on_c, 0, 73, 57
2, 11760, Note_on_c, 0, 79, 57
2, 12000, Note_on_c, 0, 79, 0
2, 12000, Note_on_c, 0, 73, 0
2, 12000, Note_on_c, 0, 70, 0
2, 12000, Note_on_c, 0, 70, 57
2, 12000, Note_on_c, 0, 74, 57
2, 12240, Note_on_c, 0, 74, 0
2, 12240, Note_on_c, 0, 70, 0
2, 12240, Note_on_c, 0, 70, 57
2, 12240, Note_on_c, 0, 74, 57
2, 12480, Note_on_c, 0, 74, 0
2, 12480, Note_on_c, 0, 70, 0
2, 12480, Note_on_c, 0, 70, 57
2, 12480, Note_on_c, 0, 73, 57
2, 12480, Note_on_c, 0, 79, 57
2, 12720, Note_on_c, 0, 79, 0
2, 12720, Note_on_c, 0, 73, 0
2, 12720, Note_on_c, 0, 70, 0
2, 12720, Note_on_c, 0, 70, 57
2, 12720, Note_on_c, 0, 73, 57
2, 12720, Note_on_c, 0, 79, 57
2, 12960, Note_on_c, 0, 79, 0
2, 12960, Note_on_c, 0, 73, 0
2, 12960, Note_on_c, 0, 70, 0
2, 12960, Note_on_c, 0, 70, 57
2, 12960, Note_on_c, 0, 74, 57
2, 13200, Note_on_c, 0, 74, 0
2, 13200, Note_on_c, 0, 70, 0
2, 13200, Note_on_c, 0, 70, 57
2, 13200, Note_on_c, 0, 74, 57
2, 13440, Note_on_c, 0, 74, 0
2, 13440, Note_on_c, 0, 70, 0
2, 13440, Note_on_c, 0, 72, 57
2, 13463, Note_on_c, 0, 72, 0
2, 13560, Note_on_c, 0, 74, 57
2, 13583, Note_on_c, 0, 74, 0
2, 13680, Note_on_c, 0, 72, 57
2, 13703, Note_on_c, 0, 72, 0
2, 13800, Note_on_c, 0, 74, 57
2, 13823, Note_on_c, 0, 74, 0
2, 13920, Note_on_c, 0, 70, 57
2, 13943, Note_on_c, 0, 70, 0
2, 14040, Note_on_c, 0, 72, 57
2, 14063, Note_on_c, 0, 72, 0
2, 14160, Note_on_c, 0, 70, 57
2, 14183, Note_on_c, 0, 70, 0
2, 14280, Note_on_c, 0, 72, 57
2, 14303, Note_on_c, 0, 72, 0
2, 14400, Note_on_c, 0, 69, 57
2, 14423, Note_on_c, 0, 69, 0
2, 14520, Note_on_c, 0, 70, 57
2, 14543, Note_on_c, 0, 70, 0
2, 14640, Note_on_c, 0, 69, 57
2, 14663, Note_on_c, 0, 69, 0
2, 14760, Note_on_c, 0, 70, 57
2, 14783, Note_on_c, 0, 70, 0
2, 14880, Note_on_c, 0, 67, 70
2, 14903, Note_on_c, 0, 67, 0
2, 15000, Note_on_c, 0, 70, 70
2, 15023, Note_on_c, 0, 70, 0
2, 15120, Note_on_c, 0, 74, 70
2, 15143, Note_on_c, 0, 74, 0
2, 15240, Note_on_c, 0, 79, 70
2, 15263, Note_on_c, 0, 79, 0
2, 15360, Note_on_c, 0, 81, 70
2, 15407, Note_on_c, 0, 81, 0
2, 15600, Note_on_c, 0, 81, 70
2, 15623, Note_on_c, 0, 81, 0
2, 15720, Note_on_c, 0, 81, 70
2, 15743, Note_on_c, 0, 81, 0
2, 15840, Note_on_c, 0, 81, 70
2, 15960, Note_on_c, 0, 81, 0
2, 15960, Note_on_c, 0, 79, 70
2, 16080, Note_on_c, 0, 79, 0
2, 16080, Note_on_c, 0, 78, 70
2, 16103, Note_on_c, 0, 78, 0
2, 16200, Note_on_c, 0, 76, 70
2, 16223, Note_on_c, 0, 76, 0
2, 16320, Note_on_c, 0, 74, 70
2, 16343, Note_on_c, 0, 74, 0
2, 16440, Note_on_c, 0, 83, 70
2, 16463, Note_on_c, 0, 83, 0
2, 16560, Note_on_c, 0, 81, 70
2, 16583, Note_on_c, 0, 81, 0
2, 16680, Note_on_c, 0, 83, 70
2, 16703, Note_on_c, 0, 83, 0
2, 16800, Note_on_c, 0, 79, 70
2, 17040, Note_on_c, 0, 79, 0
2, 17040, Note_on_c, 0, 86, 70
2, 17280, Note_on_c, 0, 86, 0
2, 17280, Note_on_c, 0, 81, 70
2, 17327, Note_on_c, 0, 81, 0
2, 17520, Note_on_c, 0, 81, 70
2, 17543, Note_on_c, 0, 81, 0
2, 17640, Note_on_c, 0, 81, 70
2, 17663, Note_on_c, 0, 81, 0
2, 17760, Note_on_c, 0, 81, 70
2, 17880, Note_on_c, 0, 81, 0
2, 17880, Note_on_c, 0, 79, 70
2, 18000, Note_on_c, 0, 79, 0
2, 18000, Note_on_c, 0, 78, 70
2, 18023, Note_on_c, 0, 78, 0
2, 18120, Note_on_c, 0, 76, 70
2, 18143, Note_on_c, 0, 76, 0
2, 18240, Note_on_c, 0, 74, 70
2, 18263, Note_on_c, 0, 74, 0
2, 18360, Note_on_c, 0, 81, 70
2, 18383, Note_on_c, 0, 81, 0
2, 18480, Note_on_c, 0, 83, 70
2, 18503, Note_on_c, 0, 83, 0
2, 18600, Note_on_c, 0, 81, 70
2, 18623, Note_on_c, 0, 81, 0
2, 18720, Control_c, 0, 64, 127
2, 18720, Note_on_c, 0, 79, 70
2, 18840, Note_on_c, 0, 79, 0
2, 18840, Note_on_c, 0, 78, 70
2, 18960, Note_on_c, 0, 78, 0
2, 18960, Note_on_c, 0, 79, 70
2, 19080, Note_on_c, 0, 79, 0
2, 19080, Control_c, 0, 64, 0
2, 19080, Note_on_c, 0, 74, 70
2, 19200, Note_on_c, 0, 74, 0
2, 19200, Note_on_c, 0, 81, 70
2, 19247, Note_on_c, 0, 81, 0
2, 19440, Note_on_c, 0, 81, 70
2, 19463, Note_on_c, 0, 81, 0
2, 19560, Note_on_c, 0, 81, 70
2, 19583, Note_on_c, 0, 81, 0
2, 19680, Note_on_c, 0, 81, 70
2, 19800, Note_on_c, 0, 81, 0
2, 19800, Note_on_c, 0, 79, 70
2, 19920, Note_on_c, 0, 79, 0
2, 19920, Note_on_c, 0, 78, 70
2, 19943, Note_on_c, 0, 78, 0
2, 20040, Note_on_c, 0, 76, 70
2, 20063, Note_on_c, 0, 76, 0
2, 20160, Note_on_c, 0, 74, 70
2, 20183, Note_on_c, 0, 74, 0
2, 20280, Note_on_c, 0, 83, 70
2, 20303, Note_on_c, 0, 83, 0
2, 20400, Note_on_c, 0, 81, 70
2, 20423, Note_on_c, 0, 81, 0
2, 20520, Note_on_c, 0, 83, 70
2, 20543, Note_on_c, 0, 83, 0
2, 20640, Note_on_c, 0, 79, 70
2, 20880, Note_on_c, 0, 79, 0
2, 20880, Note_on_c, 0, 86, 70
2, 21120, Note_on_c, 0, 86, 0
2, 21120, Note_on_c, 0, 81, 70
2, 21167, Note_on_c, 0, 81, 0
2, 21360, Note_on_c, 0, 81, 70
2, 21383, Note_on_c, 0, 81, 0
2, 21480, Note_on_c, 0, 81, 70
2, 21503, Note_on_c, 0, 81, 0
2, 21600, Note_on_c, 0, 81, 70
2, 21720, Note_on_c, 0, 81, 0
2, 21720, Note_on_c, 0, 79, 70
2, 21840, Note_on_c, 0, 79, 0
2, 21840, Note_on_c, 0, 78, 70
2, 21863, Note_on_c, 0, 78, 0
2, 21960, Note_on_c, 0, 76, 70
2, 21983, Note_on_c, 0, 76, 0
2, 22080, Note_on_c, 0, 74, 70
2, 22103, Note_on_c, 0, 74, 0
2, 22200, Note_on_c, 0, 83, 70
2, 22223, Note_on_c, 0, 83, 0
2, 22320, Note_on_c, 0, 81, 70
2, 22343, Note_on_c, 0, 81, 0
2, 22440, Note_on_c, 0, 83, 70
2, 22463, Note_on_c, 0, 83, 0
2, 22560, Note_on_c, 0, 79, 70
2, 22680, Note_on_c, 0, 79, 0
2, 22680, Note_on_c, 0, 78, 70
2, 22800, Note_on_c, 0, 78, 0
2, 22800, Note_on_c, 0, 76, 70
2, 22823, Note_on_c, 0, 76, 0
2, 22920, Note_on_c, 0, 74, 70
2, 22943, Note_on_c, 0, 74, 0
2, 23040, Note_on_c, 0, 81, 70
2, 23087, Note_on_c, 0, 81, 0
2, 23280, Note_on_c, 0, 81, 70
2, 23303, Note_on_c, 0, 81, 0
2, 23400, Note_on_c, 0, 81, 70
2, 23423, Note_on_c, 0, 81, 0
2, 23520, Note_on_c, 0, 81, 70
2, 23640, Note_on_c, 0, 81, 0
2, 23640, Note_on_c, 0, 79, 70
2, 23760, Note_on_c, 0, 79, 0
2, 23760, Note_on_c, 0, 78, 70
2, 23783, Note_on_c, 0, 78, 0
2, 23880, Note_on_c, 0, 76, 70
2, 23903, Note_on_c, 0, 76, 0
2, 24000, Note_on_c, 0, 74, 70
2, 24023, Note_on_c, 0, 74, 0
2, 24120, Note_on_c, 0, 83, 70
2, 24143, Note_on_c, 0, 83, 0
2, 24240, Note_on_c, 0, 81, 70
2, 24263, Note_on_c, 0, 81, 0
2, 24360, Note_on_c, 0, 83, 70
2, 24383, Note_on_c, 0, 83, 0
2, 24480, Note_on_c, 0, 79, 70
2, 24720, Note_on_c, 0, 79, 0
2, 24720, Note_on_c, 0, 86, 70
2, 24960, Note_on_c, 0, 86, 0
2, 24960, Note_on_c, 0, 81, 70
2, 25007, Note_on_c, 0, 81, 0
2, 25200, Note_on_c, 0, 81, 70
2, 25223, Note_on_c, 0, 81, 0
2, 25320, Note_on_c, 0, 81, 70
2, 25343, Note_on_c, 0, 81, 0
2, 25440, Note_on_c, 0, 81, 70
2, 25560, Note_on_c, 0, 81, 0
2, 25560, Note_on_c, 0, 79, 70
2, 25680, Note_on_c, 0, 79, 0
2, 25680, Note_on_c, 0, 78, 70
2, 25703, Note_on_c, 0, 78, 0
2, 25800, Note_on_c, 0, 76, 70
2, 25823, Note_on_c, 0, 76, 0
2, 25920, Note_on_c, 0, 74, 70
2, 25943, Note_on_c, 0, 74, 0
2, 26040, Note_on_c, 0, 81, 70
2, 26063, Note_on_c, 0, 81, 0
2, 26160, Note_on_c, 0, 83, 70
2, 26183, Note_on_c, 0, 83, 0
2, 26280, Note_on_c, 0, 81, 70
2, 26303, Note_on_c, 0, 81, 0
2, 26400, Control_c, 0, 64, 127
2, 26400, Note_on_c, 0, 79, 70
2, 26520, Note_on_c, 0, 79, 0
2, 26520, Note_on_c, 0, 78, 70
2, 26640, Note_on_c, 0, 78, 0
2, 26640, Note_on_c, 0, 79, 70
2, 26760, Note_on_c, 0, 79, 0
2, 26760, Control_c, 0, 64, 0
2, 26760, Note_on_c, 0, 74, 70
2, 26880, Note_on_c, 0, 74, 0
2, 26880, Note_on_c, 0, 81, 70
2, 26927, Note_on_c, 0, 81, 0
2, 27120, Note_on_c, 0, 81, 70
2, 27143, Note_on_c, 0, 81, 0
2, 27240, Note_on_c, 0, 81, 70
2, 27263, Note_on_c, 0, 81, 0
2, 27360, Note_on_c, 0, 81, 70
2, 27480, Note_on_c, 0, 81, 0
2, 27480, Note_on_c, 0, 79, 70
2, 27600, Note_on_c, 0, 79, 0
2, 27600, Note_on_c, 0, 78, 70
2, 27623, Note_on_c, 0, 78, 0
2, 27720, Note_on_c, 0, 76, 70
2, 27743, Note_on_c, 0, 76, 0
2, 27840, Note_on_c, 0, 74, 70
2, 27863, Note_on_c, 0, 74, 0
2, 27960, Note_on_c, 0, 83, 70
2, 27983, Note_on_c, 0, 83, 0
2, 28080, Note_on_c, 0, 81, 70
2, 28103, Note_on_c, 0, 81, 0
2, 28200, Note_on_c, 0, 83, 70
2, 28223, Note_on_c, 0, 83, 0
2, 28320, Note_on_c, 0, 79, 70
2, 28560, Note_on_c, 0, 79, 0
2, 28560, Note_on_c, 0, 86, 70
2, 28800, Note_on_c, 0, 86, 0
2, 28800, Note_on_c, 0, 81, 70
2, 28847, Note_on_c, 0, 81, 0
2, 29040, Note_on_c, 0, 81, 70
2, 29063, Note_on_c, 0, 81, 0
2, 29160, Note_on_c, 0, 81, 70
2, 29183, Note_on_c, 0, 81, 0
2, 29280, Note_on_c, 0, 81, 70
2, 29400, Note_on_c, 0, 81, 0
2, 29400, Note_on_c, 0, 79, 70
2, 29520, Note_on_c, 0, 79, 0
2, 29520, Note_on_c, 0, 78, 70
2, 29543, Note_on_c, 0, 78, 0
2, 29640, Note_on_c, 0, 76, 70
2, 29663, Note_on_c, 0, 76, 0
2, 29760, Note_on_c, 0, 74, 70
2, 29783, Note_on_c, 0, 74, 0
2, 29880, Note_on_c, 0, 83, 70
2, 29903, Note_on_c, 0, 83, 0
2, 30000, Note_on_c, 0, 81, 70
2, 30023, Note_on_c, 0, 81, 0
2, 30120, Note_on_c, 0, 83, 70
2, 30143, Note_on_c, 0, 83, 0
2, 30240, Note_on_c, 0, 79, 70
2, 30263, Note_on_c, 0, 79, 0
2, 30360, Note_on_c, 0, 74, 70
2, 30383, Note_on_c, 0, 74, 0
2, 30480, Note_on_c, 0, 76, 70
2, 30503, Note_on_c, 0, 76, 0
2, 30600, Note_on_c, 0, 78, 70
2, 30623, Note_on_c, 0, 78, 0
2, 30720, Note_on_c, 0, 70, 70
2, 30720, Note_on_c, 0, 73, 70
2, 30720, Note_on_c, 0, 79, 70
2, 30960, Note_on_c, 0, 79, 0
2, 30960, Note_on_c, 0, 73, 0
2, 30960, Note_on_c, 0, 70, 0
2, 30960, Note_on_c, 0, 70, 70
2, 30960, Note_on_c, 0, 73, 70
2, 30960, Note_on_c, 0, 79, 70
2, 31200, Note_on_c, 0, 79, 0
2, 31200, Note_on_c, 0, 73, 0
2, 31200, Note_on_c, 0, 70, 0
2, 31200, Note_on_c, 0, 70, 70
2, 31200, Note_on_c, 0, 74, 70
2, 31440, Note_on_c, 0, 74, 0
2, 31440, Note_on_c, 0, 70, 0
2, 31440, Note_on_c, 0, 70, 70
2, 31440, Note_on_c, 0, 74, 70
2, 31680, Note_on_c, 0, 74, 0
2, 31680, Note_on_c, 0, 70, 0
2, 31680, Note_on_c, 0, 70, 70
2, 31680, Note_on_c, 0, 73, 70
2, 31680, Note_on_c, 0, 79, 70
2, 31920, Note_on_c, 0, 79, 0
2, 31920, Note_on_c, 0, 73, 0
2, 31920, Note_on_c, 0, 70, 0
2, 31920, Note_on_c, 0, 70, 70
2, 31920, Note_on_c, 0, 73, 70
2, 31920, Note_on_c, 0, 79, 70
2, 32160, Note_on_c, 0, 79, 0
2, 32160, Note_on_c, 0, 73, 0
2, 32160, Note_on_c, 0, 70, 0
2, 32160, Note_on_c, 0, 70, 70
2, 32160, Note_on_c, 0, 74, 70
2, 32400, Note_on_c, 0, 74, 0
2, 32400, Note_on_c, 0, 70, 0
2, 32400, Note_on_c, 0, 70, 70
2, 32400, Note_on_c, 0, 74, 70
2, 32640, Note_on_c, 0, 74, 0
2, 32640, Note_on_c, 0, 70, 0
2, 32640, Note_on_c, 0, 72, 96
2, 32663, Note_on_c, 0, 72, 0
2, 32760, Note_on_c, 0, 74, 96
2, 32783, Note_on_c, 0, 74, 0
2, 32880, Note_on_c, 0, 72, 96
2, 32903, Note_on_c, 0, 72, 0
2, 33000, Note_on_c, 0, 74, 96
2, 33023, Note_on_c, 0, 74, 0
2, 33120, Note_on_c, 0, 70, 96
2, 33143, Note_on_c, 0, 70, 0
2, 33240, Note_on_c, 0, 72, 96
2, 33263, Note_on_c, 0, 72, 0
2, 33360, Note_on_c, 0, 70, 96
2, 33383, Note_on_c, 0, 70, 0
2, 33480, Note_on_c, 0, 72, 96
2, 33503, Note_on_c, 0, 72, 0
2, 33600, Note_on_c, 0, 69, 96
2, 33623, Note_on_c, 0, 69, 0
2, 33720, Note_on_c, 0, 70, 96
2, 33743, Note_on_c, 0, 70, 0
2, 33840, Note_on_c, 0, 69, 96
2, 33863, Note_on_c, 0, 69, 0
2, 33960, Note_on_c, 0, 70, 96
2, 33983, Note_on_c, 0, 70, 0
2, 34080, Note_on_c, 0, 57, 96
2, 34080, Note_on_c, 0, 61, 96
2, 34103, Note_on_c, 0, 61, 0
2, 34103, Note_on_c, 0, 57, 0
2, 34200, Note_on_c, 0, 58, 96
2, 34223, Note_on_c, 0, 58, 0
2, 34320, Note_on_c, 0, 57, 96
2, 34343, Note_on_c, 0, 57, 0
2, 34440, Note_on_c, 0, 58, 96
2, 34463, Note_on_c, 0, 58, 0
2, 34560, Note_on_c, 0, 70, 70
2, 34560, Note_on_c, 0, 73, 70
2, 34560, Note_on_c, 0, 79, 70
2, 34800, Note_on_c, 0, 79, 0
2, 34800, Note_on_c, 0, 73, 0
2, 34800, Note_on_c, 0, 70, 0
2, 34800, Note_on_c, 0, 70, 70
2, 34800, Note_on_c, 0, 73, 70
2, 34800, Note_on_c, 0, 79, 70
2, 35040, Note_on_c, 0, 79, 0
2, 35040, Note_on_c, 0, 73, 0
2, 35040, Note_on_c, 0, 70, 0
2, 35040, Note_on_c, 0, 70, 70
2, 35040, Note_on_c, 0, 74, 70
2, 35280, Note_on_c, 0, 74, 0
2, 35280, Note_on_c, 0, 70, 0
2, 35280, Note_on_c, 0, 70, 70
2, 35280, Note_on_c, 0, 74, 70
2, 35520, Note_on_c, 0, 74, 0
2, 35520, Note_on_c, 0, 70, 0
2, 35520, Note_on_c, 0, 70, 70
2, 35520, Note_on_c, 0, 73, 70
2, 35520, Note_on_c, 0, 79, 70
2, 35760, Note_on_c, 0, 79, 0
2, 35760, Note_on_c, 0, 73, 0
2, 35760, Note_on_c, 0, 70, 0
2, 35760, Note_on_c, 0, 70, 70
2, 35760, Note_on_c, 0, 73, 70
2, 35760, Note_on_c, 0, 79, 70
2, 36000, Note_on_c, 0, 79, 0
2, 36000, Note_on_c, 0, 73, 0
2, 36000, Note_on_c, 0, 70, 0
2, 36000, Note_on_c, 0, 70, 70
2, 36000, Note_on_c, 0, 74, 70
2, 36240, Note_on_c, 0, 74, 0
2, 36240, Note_on_c, 0, 70, 0
2, 36240, Note_on_c, 0, 70, 70
2, 36240, Note_on_c, 0, 74, 70
2, 36480, Note_on_c, 0, 74, 0
2, 36480, Note_on_c, 0, 70, 0
2, 36480, Note_on_c, 0, 72, 96
2, 36503, Note_on_c, 0, 72, 0
2, 36600, Note_on_c, 0, 74, 96
2, 36623, Note_on_c, 0, 74, 0
2, 36720, Note_on_c, 0, 72, 96
2, 36743, Note_on_c, 0, 72, 0
2, 36840, Note_on_c, 0, 74, 96
2, 36863, Note_on_c, 0, 74, 0
2, 36960, Note_on_c, 0, 70, 96
2, 36983, Note_on_c, 0, 70, 0
2, 37080, Note_on_c, 0, 72, 96
2, 37103, Note_on_c, 0, 72, 0
2, 37200, Note_on_c, 0, 70, 96
2, 37223, Note_on_c, 0, 70, 0
2, 37320, Note_on_c, 0, 72, 96
2, 37343, Note_on_c, 0, 72, 0
2, 37440, Note_on_c, 0, 69, 96
2, 37463, Note_on_c, 0, 69, 0
2, 37560, Note_on_c, 0, 70, 96
2, 37583, Note_on_c, 0, 70, 0
2, 37680, Note_on_c, 0, 69, 96
2, 37703, Note_on_c, 0, 69, 0
2, 37800, Note_on_c, 0, 70, 96
2, 37823, Note_on_c, 0, 70, 0
2, 37920, Note_on_c, 0, 57, 96
2, 37920, Note_on_c, 0, 61, 96
2, 37943, Note_on_c, 0, 61, 0
2, 37943, Note_on_c, 0, 57, 0
2, 38040, Note_on_c, 0, 58, 96
2, 38063, Note_on_c, 0, 58, 0
2, 38160, Note_on_c, 0, 57, 96
2, 38183, Note_on_c, 0, 57, 0
2, 38280, Note_on_c, 0, 58, 96
2, 38303, Note_on_c, 0, 58, 0
2, 38400, Note_on_c, 0, 72, 96
2, 38423, Note_on_c, 0, 72, 0
2, 38520, Note_on_c, 0, 74, 96
2, 38543, Note_on_c, 0, 74, 0
2, 38640, Note_on_c, 0, 70, 96
2, 38663, Note_on_c, 0, 70, 0
2, 38760, Note_on_c, 0, 72, 96
2, 38783, Note_on_c, 0, 72, 0
2, 38880, Note_on_c, 0, 69, 83
2, 38903, Note_on_c, 0, 69, 0
2, 39000, Note_on_c, 0, 70, 83
2, 39023, Note_on_c, 0, 70, 0
2, 39120, Note_on_c, 0, 67, 83
2, 39143, Note_on_c, 0, 67, 0
2, 39240, Note_on_c, 0, 70, 83
2, 39263, Note_on_c, 0, 70, 0
2, 39360, Note_on_c, 0, 72, 96
2, 39383, Note_on_c, 0, 72, 0
2, 39480, Note_on_c, 0, 74, 96
2, 39503, Note_on_c, 0, 74, 0
2, 39600, Note_on_c, 0, 70, 96
2, 39623, Note_on_c, 0, 70, 0
2, 39720, Note_on_c, 0, 72, 96
2, 39743, Note_on_c, 0, 72, 0
2, 39840, Note_on_c, 0, 69, 83
2, 39863, Note_on_c, 0, 69, 0
2, 39960, Note_on_c, 0, 70, 83
2, 39983, Note_on_c, 0, 70, 0
2, 40080, Note_on_c, 0, 67, 83
2, 40103, Note_on_c, 0, 67, 0
2, 40200, Note_on_c, 0, 70, 83
2, 40223, Note_on_c, 0, 70, 0
2, 40320, Note_on_c, 0, 72, 122
2, 40440, Note_on_c, 0, 72, 0
2, 40440, Note_on_c, 0, 70, 96
2, 40560, Note_on_c, 0, 70, 0
2, 40560, Note_on_c, 0, 69, 96
2, 40583, Note_on_c, 0, 69, 0
2, 40680, Note_on_c, 0, 67, 96
2, 40703, Note_on_c, 0, 67, 0
2, 40800, Note_on_c, 0, 72, 122
2, 40920, Note_on_c, 0, 72, 0
2, 40920, Note_on_c, 0, 70, 96
2, 41040, Note_on_c, 0, 70, 0
2, 41040, Note_on_c, 0, 69, 96
2, 41063, Note_on_c, 0, 69, 0
2, 41160, Note_on_c, 0, 67, 96
2, 41183, Note_on_c, 0, 67, 0
2, 41280, Note_on_c, 0, 72, 122
2, 41400, Note_on_c, 0, 72, 0
2, 41400, Note_on_c, 0, 70, 96
2, 41520, Note_on_c, 0, 70, 0
2, 41520, Note_on_c, 0, 69, 96
2, 41543, Note_on_c, 0, 69, 0
2, 41640, Note_on_c, 0, 67, 96
2, 41663, Note_on_c, 0, 67, 0
2, 41760, Note_on_c, 0, 72, 122
2, 41880, Note_on_c, 0, 72, 0
2, 41880, Note_on_c, 0, 70, 96
2, 42000, Note_on_c, 0, 70, 0
2, 42000, Note_on_c, 0, 69, 96
2, 42023, Note_on_c, 0, 69, 0
2, 42120, Note_on_c, 0, 67, 96
2, 42143, Note_on_c, 0, 67, 0
2, 42240, Note_on_c, 0, 70, 70
2, 42240, Note_on_c, 0, 73, 70
2, 42240, Note_on_c, 0, 78, 70
2, 42240, Note_on_c, 0, 82, 70
2, 42480, Note_on_c, 0, 82, 0
2, 42480, Note_on_c, 0, 70, 0
2, 42480, Note_on_c, 0, 73, 0
2, 42480, Note_on_c, 0, 78, 0
2, 42480, Note_on_c, 0, 70, 70
2, 42480, Note_on_c, 0, 73, 70
2, 42480, Note_on_c, 0, 78, 70
2, 42480, Note_on_c, 0, 82, 70
2, 42720, Note_on_c, 0, 82, 0
2, 42720, Note_on_c, 0, 70, 0
2, 42720, Note_on_c, 0, 73, 0
2, 42720, Note_on_c, 0, 78, 0
2, 42720, Note_on_c, 0, 70, 70
2, 42720, Note_on_c, 0, 73, 70
2, 42720, Note_on_c, 0, 77, 70
2, 42960, Note_on_c, 0, 77, 0
2, 42960, Note_on_c, 0, 73, 0
2, 42960, Note_on_c, 0, 70, 0
2, 42960, Note_on_c, 0, 70, 70
2, 42960, Note_on_c, 0, 73, 70
2, 42960, Note_on_c, 0, 77, 70
2, 43200, Note_on_c, 0, 77, 0
2, 43200, Note_on_c, 0, 73, 0
2, 43200, Note_on_c, 0, 70, 0
2, 43200, Note_on_c, 0, 70, 70
2, 43200, Note_on_c, 0, 73, 70
2, 43200, Note_on_c, 0, 78, 70
2, 43200, Note_on_c, 0, 82, 70
2, 43440, Note_on_c, 0, 82, 0
2, 43440, Note_on_c, 0, 70, 0
2, 43440, Note_on_c, 0, 73, 0
2, 43440, Note_on_c, 0, 78, 0
2, 43440, Note_on_c, 0, 70, 70
2, 43440, Note_on_c, 0, 73, 70
2, 43440, Note_on_c, 0, 78, 70
2, 43440, Note_on_c, 0, 82, 70
2, 43680, Note_on_c, 0, 82, 0
2, 43680, Note_on_c, 0, 70, 0
2, 43680, Note_on_c, 0, 73, 0
2, 43680, Note_on_c, 0, 78, 0
2, 43680, Note_on_c, 0, 70, 70
2, 43680, Note_on_c, 0, 73, 70
2, 43680, Note_on_c, 0, 77, 70
2, 43920, Note_on_c, 0, 77, 0
2, 43920, Note_on_c, 0, 73, 0
2, 43920, Note_on_c, 0, 70, 0
2, 43920, Note_on_c, 0, 70, 70
2, 43920, Note_on_c, 0, 73, 70
2, 43920, Note_on_c, 0, 77, 70
2, 44160, Note_on_c, 0, 77, 0
2, 44160, Note_on_c, 0, 73, 0
2, 44160, Note_on_c, 0, 70, 0
2, 44160, Note_on_c, 0, 75, 122
2, 44280, Note_on_c, 0, 75, 0
2, 44280, Note_on_c, 0, 73, 96
2, 44400, Note_on_c, 0, 73, 0
2, 44400, Note_on_c, 0, 72, 96
2, 44423, Note_on_c, 0, 72, 0
2, 44520, Note_on_c, 0, 70, 96
2, 44543, Note_on_c, 0, 70, 0
2, 44640, Note_on_c, 0, 75, 96
2, 44760, Note_on_c, 0, 75, 0
2, 44760, Note_on_c, 0, 73, 96
2, 44880, Note_on_c, 0, 73, 0
2, 44880, Note_on_c, 0, 72, 96
2, 44903, Note_on_c, 0, 72, 0
2, 45000, Note_on_c, 0, 70, 96
2, 45023, Note_on_c, 0, 70, 0
2, 45120, Note_on_c, 0, 75, 96
2, 45240, Note_on_c, 0, 75, 0
2, 45240, Note_on_c, 0, 73, 96
2, 45360, Note_on_c, 0, 73, 0
2, 45360, Note_on_c, 0, 72, 96
2, 45383, Note_on_c, 0, 72, 0
2, 45480, Note_on_c, 0, 70, 96
2, 45503, Note_on_c, 0, 70, 0
2, 45600, Note_on_c, 0, 75, 96
2, 45720, Note_on_c, 0, 75, 0
2, 45720, Note_on_c, 0, 73, 96
2, 45840, Note_on_c, 0, 73, 0
2, 45840, Note_on_c, 0, 72, 96
2, 45863, Note_on_c, 0, 72, 0
2, 45960, Note_on_c, 0, 70, 96
2, 45983, Note_on_c, 0, 70, 0
2, 46080, Note_on_c, 0, 73, 70
2, 46080, Note_on_c, 0, 76, 70
2, 46080, Note_on_c, 0, 81, 70
2, 46080, Note_on_c, 0, 85, 70
2, 46320, Note_on_c, 0, 85, 0
2, 46320, Note_on_c, 0, 73, 0
2, 46320, Note_on_c, 0, 76, 0
2, 46320, Note_on_c, 0, 81, 0
2, 46320, Note_on_c, 0, 73, 70
2, 46320, Note_on_c, 0, 76, 70
2, 46320, Note_on_c, 0, 81, 70
2, 46320, Note_on_c, 0, 85, 70
2, 46560, Note_on_c, 0, 85, 0
2, 46560, Note_on_c, 0, 73, 0
2, 46560, Note_on_c, 0, 76, 0
2, 46560, Note_on_c, 0, 81, 0
2, 46560, Note_on_c, 0, 73, 70
2, 46560, Note_on_c, 0, 76, 70
2, 46560, Note_on_c, 0, 80, 70
2, 46800, Note_on_c, 0, 80, 0
2, 46800, Note_on_c, 0, 76, 0
2, 46800, Note_on_c, 0, 73, 0
2, 46800, Note_on_c, 0, 73, 70
2, 46800, Note_on_c, 0, 76, 70
2, 46800, Note_on_c, 0, 80, 70
2, 47040, Note_on_c, 0, 80, 0
2, 47040, Note_on_c, 0, 76, 0
2, 47040, Note_on_c, 0, 73, 0
2, 47040, Note_on_c, 0, 73, 70
2, 47040, Note_on_c, 0, 76, 70
2, 47040, Note_on_c, 0, 81, 70
2, 47040, Note_on_c, 0, 85, 70
2, 47280, Note_on_c, 0, 85, 0
2, 47280, Note_on_c, 0, 73, 0
2, 47280, Note_on_c, 0, 76, 0
2, 47280, Note_on_c, 0, 81, 0
2, 47280, Note_on_c, 0, 73, 70
2, 47280, Note_on_c, 0, 76, 70
2, 47280, Note_on_c, 0, 81, 70
2, 47280, Note_on_c, 0, 85, 70
2, 47520, Note_on_c, 0, 85, 0
2, 47520, Note_on_c, 0, 73, 0
2, 47520, Note_on_c, 0, 76, 0
2, 47520, Note_on_c, 0, 81, 0
2, 47520, Note_on_c, 0, 73, 70
2, 47520, Note_on_c, 0, 76, 70
2, 47520, Note_on_c, 0, 80, 70
2, 47760, Note_on_c, 0, 80, 0
2, 47760, Note_on_c, 0, 76, 0
2, 47760, Note_on_c, 0, 73, 0
2, 47760, Note_on_c, 0, 73, 70
2, 47760, Note_on_c, 0, 76, 70
2, 47760, Note_on_c, 0, 80, 70
2, 48000, Note_on_c, 0, 80, 0
2, 48000, Note_on_c, 0, 76, 0
2, 48000, Note_on_c, 0, 73, 0
2, 48000, Note_on_c, 0, 78, 122
2, 48120, Note_on_c, 0, 78, 0
2, 48120, Note_on_c, 0, 76, 96
2, 48240, Note_on_c, 0, 76, 0
2, 48240, Note_on_c, 0, 75, 96
2, 48263, Note_on_c, 0, 75, 0
2, 48360, Note_on_c, 0, 73, 96
2, 48383, Note_on_c, 0, 73, 0
2, 48480, Note_on_c, 0, 78, 122
2, 48600, Note_on_c, 0, 78, 0
2, 48600, Note_on_c, 0, 76, 96
2, 48720, Note_on_c, 0, 76, 0
2, 48720, Note_on_c, 0, 75, 96
2, 48743, Note_on_c, 0, 75, 0
2, 48840, Note_on_c, 0, 73, 96
2, 48863, Note_on_c, 0, 73, 0
2, 48960, Note_on_c, 0, 78, 122
2, 49080, Note_on_c, 0, 78, 0
2, 49080, Note_on_c, 0, 76, 96
2, 49200, Note_on_c, 0, 76, 0
2, 49200, Note_on_c, 0, 75, 96
2, 49223, Note_on_c, 0, 75, 0
2, 49320, Note_on_c, 0, 73, 96
2, 49343, Note_on_c, 0, 73, 0
2, 49440, Note_on_c, 0, 78, 122
2, 49560, Note_on_c, 0, 78, 0
2, 49560, Note_on_c, 0, 76, 96
2, 49680, Note_on_c, 0, 76, 0
2, 49680, Note_on_c, 0, 75, 96
2, 49703, Note_on_c, 0, 75, 0
2, 49800, Note_on_c, 0, 73, 96
2, 49823, Note_on_c, 0, 73, 0
2, 49920, Note_on_c, 0, 64, 57
2, 49920, Note_on_c, 0, 67, 57
2, 49920, Note_on_c, 0, 76, 57
2, 50160, Note_on_c, 0, 76, 0
2, 50160, Note_on_c, 0, 67, 0
2, 50160, Note_on_c, 0, 64, 0
2, 50160, Note_on_c, 0, 64, 57
2, 50160, Note_on_c, 0, 67, 57
2, 50160, Note_on_c, 0, 76, 57
2, 50400, Note_on_c, 0, 76, 0
2, 50400, Note_on_c, 0, 67, 0
2, 50400, Note_on_c, 0, 64, 0
2, 50400, Note_on_c, 0, 64, 57
2, 50400, Note_on_c, 0, 67, 57
2, 50640, Note_on_c, 0, 67, 0
2, 50640, Note_on_c, 0, 64, 0
2, 50640, Note_on_c, 0, 64, 57
2, 50640, Note_on_c, 0, 67, 57
2, 50880, Note_on_c, 0, 67, 0
2, 50880, Note_on_c, 0, 64, 0
2, 50880, Note_on_c, 0, 67, 57
2, 50880, Note_on_c, 0, 71, 57
2, 50880, Note_on_c, 0, 79, 57
2, 51120, Note_on_c, 0, 79, 0
2, 51120, Note_on_c, 0, 71, 0
2, 51120, Note_on_c, 0, 67, 0
2, 51120, Note_on_c, 0, 67, 57
2, 51120, Note_on_c, 0, 71, 57
2, 51120, Note_on_c, 0, 79, 57
2, 51360, Note_on_c, 0, 79, 0
2, 51360, Note_on_c, 0, 71, 0
2, 51360, Note_on_c, 0, 67, 0
2, 51360, Note_on_c, 0, 67, 70
2, 51360, Note_on_c, 0, 70, 70
2, 51600, Note_on_c, 0, 70, 0
2, 51600, Note_on_c, 0, 67, 0
2, 51600, Note_on_c, 0, 67, 70
2, 51600, Note_on_c, 0, 70, 70
2, 51840, Note_on_c, 0, 70, 0
2, 51840, Note_on_c, 0, 67, 0
2, 51840, Note_on_c, 0, 67, 70
2, 51840, Note_on_c, 0, 70, 70
2, 51840, Note_on_c, 0, 79, 70
2, 52080, Note_on_c, 0, 79, 0
2, 52080, Note_on_c, 0, 70, 0
2, 52080, Note_on_c, 0, 67, 0
2, 52080, Note_on_c, 0, 67, 70
2, 52080, Note_on_c, 0, 70, 70
2, 52080, Note_on_c, 0, 79, 70
2, 52320, Note_on_c, 0, 79, 0
2, 52320, Note_on_c, 0, 70, 0
2, 52320, Note_on_c, 0, 67, 0
2, 52320, Note_on_c, 0, 67, 70
2, 52320, Note_on_c, 0, 70, 70
2, 52560, Note_on_c, 0, 70, 0
2, 52560, Note_on_c, 0, 67, 0
2, 52560, Note_on_c, 0, 67, 70
2, 52560, Note_on_c, 0, 70, 70
2, 52800, Note_on_c, 0, 70, 0
2, 52800, Note_on_c, 0, 67, 0
2, 52800, Note_on_c, 0, 70, 83
2, 52800, Note_on_c, 0, 73, 83
2, 52800, Note_on_c, 0, 82, 83
2, 53040, Note_on_c, 0, 82, 0
2, 53040, Note_on_c, 0, 73, 0
2, 53040, Note_on_c, 0, 70, 0
2, 53040, Note_on_c, 0, 70, 83
2, 53040, Note_on_c, 0, 73, 83
2, 53040, Note_on_c, 0, 82, 83
2, 53280, Note_on_c, 0, 82, 0
2, 53280, Note_on_c, 0, 73, 0
2, 53280, Note_on_c, 0, 70, 0
2, 53280, Note_on_c, 0, 70, 83
2, 53280, Note_on_c, 0, 74, 83
2, 53520, Note_on_c, 0, 74, 0
2, 53520, Note_on_c, 0, 70, 0
2, 53520, Note_on_c, 0, 67, 83
2, 53520, Note_on_c, 0, 70, 83
2, 53520, Note_on_c, 0, 74, 83
2, 53760, Note_on_c, 0, 74, 0
2, 53760, Note_on_c, 0, 70, 0
2, 53760, Note_on_c, 0, 67, 0
2, 53760, Note_on_c, 0, 79, 96
2, 53760, Note_on_c, 0, 82, 96
2, 53760, Note_on_c, 0, 85, 96
2, 53760, Note_on_c, 0, 91, 96
2, 54000, Note_on_c, 0, 91, 0
2, 54000, Note_on_c, 0, 79, 0
2, 54000, Note_on_c, 0, 82, 0
2, 54000, Note_on_c, 0, 85, 0
2, 54000, Note_on_c, 0, 79, 96
2, 54000, Note_on_c, 0, 82, 96
2, 54000, Note_on_c, 0, 85, 96
2, 54000, Note_on_c, 0, 91, 96
2, 54240, Note_on_c, 0, 91, 0
2, 54240, Note_on_c, 0, 79, 0
2, 54240, Note_on_c, 0, 82, 0
2, 54240, Note_on_c, 0, 85, 0
2, 54240, Note_on_c, 0, 73, 96
2, 54240, Note_on_c, 0, 79, 96
2, 54240, Note_on_c, 0, 82, 96
2, 54240, Note_on_c, 0, 85, 96
2, 54480, Note_on_c, 0, 85, 0
2, 54480, Note_on_c, 0, 73, 0
2, 54480, Note_on_c, 0, 79, 0
2, 54480, Note_on_c, 0, 82, 0
2, 54480, Note_on_c, 0, 73, 96
2, 54480, Note_on_c, 0, 79, 96
2, 54480, Note_on_c, 0, 82, 96
2, 54480, Note_on_c, 0, 85, 96
2, 54720, Note_on_c, 0, 85, 0
2, 54720, Note_on_c, 0, 73, 0
2, 54720, Note_on_c, 0, 79, 0
2, 54720, Note_on_c, 0, 82, 0
2, 54720, Note_on_c, 0, 79, 96
2, 54720, Note_on_c, 0, 82, 96
2, 54720, Note_on_c, 0, 85, 96
2, 54720, Note_on_c, 0, 91, 96
2, 54960, Note_on_c, 0, 91, 0
2, 54960, Note_on_c, 0, 79, 0
2, 54960, Note_on_c, 0, 82, 0
2, 54960, Note_on_c, 0, 85, 0
2, 54960, Note_on_c, 0, 79, 96
2, 54960, Note_on_c, 0, 82, 96
2, 54960, Note_on_c, 0, 85, 96
2, 54960, Note_on_c, 0, 91, 96
2, 55200, Note_on_c, 0, 91, 0
2, 55200, Note_on_c, 0, 79, 0
2, 55200, Note_on_c, 0, 82, 0
2, 55200, Note_on_c, 0, 85, 0
2, 55200, Note_on_c, 0, 73, 96
2, 55200, Note_on_c, 0, 79, 96
2, 55200, Note_on_c, 0, 82, 96
2, 55200, Note_on_c, 0, 85, 96
2, 55440, Note_on_c, 0, 85, 0
2, 55440, Note_on_c, 0, 73, 0
2, 55440, Note_on_c, 0, 79, 0
2, 55440, Note_on_c, 0, 82, 0
2, 55440, Note_on_c, 0, 73, 96
2, 55440, Note_on_c, 0, 79, 96
2, 55440, Note_on_c, 0, 82, 96
2, 55440, Note_on_c, 0, 85, 96
2, 55680, Note_on_c, 0, 85, 0
2, 55680, Note_on_c, 0, 73, 0
2, 55680, Note_on_c, 0, 79, 0
2, 55680, Note_on_c, 0, 82, 0
2, 55680, Note_on_c, 0, 81, 96
2, 55680, Note_on_c, 0, 84, 96
2, 55800, Note_on_c, 0, 84, 0
2, 55800, Note_on_c, 0, 81, 0
2, 55800, Note_on_c, 0, 86, 96
2, 55920, Note_on_c, 0, 86, 0
2, 55920, Note_on_c, 0, 81, 96
2, 55920, Note_on_c, 0, 84, 96
2, 56040, Note_on_c, 0, 84, 0
2, 56040, Note_on_c, 0, 81, 0
2, 56040, Note_on_c, 0, 86, 96
2, 56160, Note_on_c, 0, 86, 0
2, 56160, Note_on_c, 0, 79, 96
2, 56160, Note_on_c, 0, 82, 96
2, 56280, Note_on_c, 0, 82, 0
2, 56280, Note_on_c, 0, 79, 0
2, 56280, Note_on_c, 0, 84, 96
2, 56400, Note_on_c, 0, 84, 0
2, 56400, Note_on_c, 0, 79, 96
2, 56400, Note_on_c, 0, 82, 96
2, 56520, Note_on_c, 0, 82, 0
2, 56520, Note_on_c, 0, 79, 0
2, 56520, Note_on_c, 0, 84, 96
2, 56640, Note_on_c, 0, 84, 0
2, 56640, Note_on_c, 0, 72, 96
2, 56640, Note_on_c, 0, 81, 96
2, 56760, Note_on_c, 0, 81, 0
2, 56760, Note_on_c, 0, 72, 0
2, 56760, Note_on_c, 0, 82, 96
2, 56880, Note_on_c, 0, 82, 0
2, 56880, Note_on_c, 0, 72, 96
2, 56880, Note_on_c, 0, 81, 96
2, 57000, Note_on_c, 0, 81, 0
2, 57000, Note_on_c, 0, 72, 0
2, 57000, Note_on_c, 0, 82, 96
2, 57120, Note_on_c, 0, 82, 0
2, 57120, Note_on_c, 0, 70, 96
2, 57120, Note_on_c, 0, 79, 96
2, 57240, Note_on_c, 0, 79, 0
2, 57240, Note_on_c, 0, 70, 0
2, 57240, Note_on_c, 0, 81, 96
2, 57360, Note_on_c, 0, 81, 0
2, 57360, Note_on_c, 0, 70, 96
2, 57360, Note_on_c, 0, 79, 96
2, 57480, Note_on_c, 0, 79, 0
2, 57480, Note_on_c, 0, 70, 0
2, 57480, Note_on_c, 0, 82, 96
2, 57600, Note_on_c, 0, 82, 0
2, 57600, Note_on_c, 0, 79, 96
2, 57600, Note_on_c, 0, 82, 96
2, 57600, Note_on_c, 0, 85, 96
2, 57600, Note_on_c, 0, 91, 96
2, 57840, Note_on_c, 0, 91, 0
2, 57840, Note_on_c, 0, 79, 0
2, 57840, Note_on_c, 0, 82, 0
2, 57840, Note_on_c, 0, 85, 0
2, 57840, Note_on_c, 0, 79, 96
2, 57840, Note_on_c, 0, 82, 96
2, 57840, Note_on_c, 0, 85, 96
2, 57840, Note_on_c, 0, 91, 96
2, 58080, Note_on_c, 0, 91, 0
2, 58080, Note_on_c, 0, 79, 0
2, 58080, Note_on_c, 0, 82, 0
2, 58080, Note_on_c, 0, 85, 0
2, 58080, Note_on_c, 0, 73, 96
2, 58080, Note_on_c, 0, 79, 96
2, 58080, Note_on_c, 0, 82, 96
2, 58080, Note_on_c, 0, 85, 96
2, 58320, Note_on_c, 0, 85, 0
2, 58320, Note_on_c, 0, 73, 0
2, 58320, Note_on_c, 0, 79, 0
2, 58320, Note_on_c, 0, 82, 0
2, 58320, Note_on_c, 0, 73, 96
2, 58320, Note_on_c, 0, 79, 96
2, 58320, Note_on_c, 0, 82, 96
2, 58320, Note_on_c, 0, 85, 96
2, 58560, Note_on_c, 0, 85, 0
2, 58560, Note_on_c, 0, 73, 0
2, 58560, Note_on_c, 0, 79, 0
2, 58560, Note_on_c, 0, 82, 0
2, 58560, Note_on_c, 0, 79, 96
2, 58560, Note_on_c, 0, 82, 96
2, 58560, Note_on_c, 0, 85, 96
2, 58560, Note_on_c, 0, 91, 96
2, 58800, Note_on_c, 0, 91, 0
2, 58800, Note_on_c, 0, 79, 0
2, 58800, Note_on_c, 0, 82, 0
2, 58800, Note_on_c, 0, 85, 0
2, 58800, Note_on_c, 0, 79, 96
2, 58800, Note_on_c, 0, 82, 96
2, 58800, Note_on_c, 0, 85, 96
2, 58800, Note_on_c, 0, 91, 96
2, 59040, Note_on_c, 0, 91, 0
2, 59040, Note_on_c, 0, 79, 0
2, 59040, Note_on_c, 0, 82, 0
2, 59040, Note_on_c, 0, 85, 0
2, 59040, Note_on_c, 0, 73, 96
2, 59040, Note_on_c, 0, 79, 96
2, 59040, Note_on_c, 0, 82, 96
2, 59040, Note_on_c, 0, 85, 96
2, 59280, Note_on_c, 0, 85, 0
2, 59280, Note_on_c, 0, 73, 0
2, 59280, Note_on_c, 0, 79, 0
2, 59280, Note_on_c, 0, 82, 0
2, 59280, Note_on_c, 0, 73, 96
2, 59280, Note_on_c, 0, 79, 96
2, 59280, Note_on_c, 0, 82, 96
2, 59280, Note_on_c, 0, 85, 96
2, 59520, Note_on_c, 0, 85, 0
2, 59520, Note_on_c, 0, 73, 0
2, 59520, Note_on_c, 0, 79, 0
2, 59520, Note_on_c, 0, 82, 0
2, 59520, Note_on_c, 0, 81, 96
2, 59520, Note_on_c, 0, 84, 96
2, 59640, Note_on_c, 0, 84, 0
2, 59640, Note_on_c, 0, 81, 0
2, 59640, Note_on_c, 0, 86, 96
2, 59760, Note_on_c, 0, 86, 0
2, 59760, Note_on_c, 0, 81, 96
2, 59760, Note_on_c, 0, 84, 96
2, 59880, Note_on_c, 0, 84, 0
2, 59880, Note_on_c, 0, 81, 0
2, 59880, Note_on_c, 0, 86, 96
2, 60000, Note_on_c, 0, 86, 0
2, 60000, Note_on_c, 0, 79, 96
2, 60000, Note_on_c, 0, 82, 96
2, 60120, Note_on_c, 0, 82, 0
2, 60120, Note_on_c, 0, 79, 0
2, 60120, Note_on_c, 0, 84, 96
2, 60240, Note_on_c, 0, 84, 0
2, 60240, Note_on_c, 0, 79, 96
2, 60240, Note_on_c, 0, 82, 96
2, 60360, Note_on_c, 0, 82, 0
2, 60360, Note_on_c, 0, 79, 0
2, 60360, Note_on_c, 0, 84, 96
2, 60480, Note_on_c, 0, 84, 0
2, 60480, Note_on_c, 0, 72, 96
2, 60480, Note_on_c, 0, 81, 96
2, 60600, Note_on_c, 0, 81, 0
2, 60600, Note_on_c, 0, 72, 0
2, 60600, Note_on_c, 0, 82, 96
2, 60720, Note_on_c, 0, 82, 0
2, 60720, Note_on_c, 0, 72, 96
2, 60720, Note_on_c, 0, 81, 96
2, 60840, Note_on_c, 0, 81, 0
2, 60840, Note_on_c, 0, 72, 0
2, 60840, Note_on_c, 0, 82, 96
2, 60960, Note_on_c, 0, 82, 0
2, 60960, Note_on_c, 0, 70, 96
2, 60960, Note_on_c, 0, 79, 96
2, 61080, Note_on_c, 0, 79, 0
2, 61080, Note_on_c, 0, 70, 0
2, 61080, Note_on_c, 0, 81, 96
2, 61200, Note_on_c, 0, 81, 0
2, 61200, Note_on_c, 0, 70, 96
2, 61200, Note_on_c, 0, 79, 96
2, 61320, Note_on_c, 0, 79, 0
2, 61320, Note_on_c, 0, 70, 0
2, 61320, Note_on_c, 0, 82, 96
2, 61440, Note_on_c, 0, 82, 0
2, 61440, Note_on_c, 0, 72, 96
2, 61440, Note_on_c, 0, 81, 96
2, 61560, Note_on_c, 0, 81, 0
2, 61560, Note_on_c, 0, 72, 0
2, 61560, Note_on_c, 0, 82, 96
2, 61680, Note_on_c, 0, 82, 0
2, 61680, Note_on_c, 0, 72, 96
2, 61680, Note_on_c, 0, 81, 96
2, 61800, Note_on_c, 0, 81, 0
2, 61800, Note_on_c, 0, 72, 0
2, 61800, Note_on_c, 0, 82, 96
2, 61920, Note_on_c, 0, 82, 0
2, 61920, Note_on_c, 0, 70, 96
2, 61920, Note_on_c, 0, 79, 96
2, 62040, Note_on_c, 0, 79, 0
2, 62040, Note_on_c, 0, 70, 0
2, 62040, Note_on_c, 0, 81, 96
2, 62160, Note_on_c, 0, 81, 0
2, 62160, Note_on_c, 0, 70, 96
2, 62160, Note_on_c, 0, 79, 96
2, 62280, Note_on_c, 0, 79, 0
2, 62280, Note_on_c, 0, 70, 0
2, 62280, Note_on_c, 0, 82, 96
2, 62400, Note_on_c, 0, 82, 0
2, 62400, Note_on_c, 0, 72, 96
2, 62400, Note_on_c, 0, 81, 96
2, 62520, Note_on_c, 0, 81, 0
2, 62520, Note_on_c, 0, 72, 0
2, 62520, Note_on_c, 0, 82, 96
2, 62640, Note_on_c, 0, 82, 0
2, 62640, Note_on_c, 0, 72, 96
2, 62640, Note_on_c, 0, 81, 96
2, 62760, Note_on_c, 0, 81, 0
2, 62760, Note_on_c, 0, 72, 0
2, 62760, Note_on_c, 0, 82, 96
2, 62880, Note_on_c, 0, 82, 0
2, 62880, Note_on_c, 0, 70, 96
2, 62880, Note_on_c, 0, 79, 96
2, 63000, Note_on_c, 0, 79, 0
2, 63000, Note_on_c, 0, 70, 0
2, 63000, Note_on_c, 0, 81, 96
2, 63120, Note_on_c, 0, 81, 0
2, 63120, Note_on_c, 0, 70, 96
2, 63120, Note_on_c, 0, 79, 96
2, 63240, Note_on_c, 0, 79, 0
2, 63240, Note_on_c, 0, 70, 0
2, 63240, Note_on_c, 0, 82, 96
2, 63360, Note_on_c, 0, 82, 0
2, 63360, Note_on_c, 0, 72, 96
2, 63360, Note_on_c, 0, 81, 96
2, 63480, Note_on_c, 0, 81, 0
2, 63480, Note_on_c, 0, 72, 0
2, 63480, Note_on_c, 0, 82, 96
2, 63600, Note_on_c, 0, 82, 0
2, 63600, Note_on_c, 0, 72, 96
2, 63600, Note_on_c, 0, 81, 96
2, 63720, Note_on_c, 0, 81, 0
2, 63720, Note_on_c, 0, 72, 0
2, 63720, Note_on_c, 0, 82, 96
2, 63840, Note_on_c, 0, 82, 0
2, 63840, Note_on_c, 0, 70, 96
2, 63840, Note_on_c, 0, 79, 96
2, 63960, Note_on_c, 0, 79, 0
2, 63960, Note_on_c, 0, 70, 0
2, 63960, Note_on_c, 0, 81, 96
2, 64080, Note_on_c, 0, 81, 0
2, 64080, Note_on_c, 0, 70, 96
2, 64080, Note_on_c, 0, 79, 96
2, 64200, Note_on_c, 0, 79, 0
2, 64200, Note_on_c, 0, 70, 0
2, 64200, Note_on_c, 0, 82, 96
2, 64320, Note_on_c, 0, 82, 0
2, 64320, Note_on_c, 0, 72, 96
2, 64320, Note_on_c, 0, 81, 96
2, 64440, Note_on_c, 0, 81, 0
2, 64440, Note_on_c, 0, 72, 0
2, 64440, Note_on_c, 0, 82, 96
2, 64560, Note_on_c, 0, 82, 0
2, 64560, Note_on_c, 0, 72, 96
2, 64560, Note_on_c, 0, 81, 96
2, 64680, Note_on_c, 0, 81, 0
2, 64680, Note_on_c, 0, 72, 0
2, 64680, Note_on_c, 0, 82, 96
2, 64800, Note_on_c, 0, 82, 0
2, 64800, Note_on_c, 0, 70, 122
2, 64800, Note_on_c, 0, 79, 122
2, 65280, Note_on_c, 0, 79, 0
2, 65280, Note_on_c, 0, 70, 0
2, 65280, Control_c, 0, 64, 127
2, 67680, Control_c, 0, 64, 0
2, 67680, End_track
3, 0, Start_track
3, 0, Title_t, "Grand Piano"
3, 0, Program_c, 0, 0
3, 0, Control_c, 0, 7, 115
3, 0, Control_c, 0, 10, 80
3, 15360, Note_on_c, 0, 72, 72
3, 16320, Note_on_c, 0, 72, 0
3, 16320, Note_on_c, 0, 72, 72
3, 16800, Note_on_c, 0, 72, 0
3, 16800, Note_on_c, 0, 71, 72
3, 17280, Note_on_c, 0, 71, 0
3, 17280, Note_on_c, 0, 72, 72
3, 18240, Note_on_c, 0, 72, 0
3, 18240, Note_on_c, 0, 72, 72
3, 18720, Note_on_c, 0, 72, 0
3, 18720, Note_on_c, 0, 71, 72
3, 19200, Note_on_c, 0, 71, 0
3, 19200, Note_on_c, 0, 72, 72
3, 20160, Note_on_c, 0, 72, 0
3, 20160, Note_on_c, 0, 72, 72
3, 20640, Note_on_c, 0, 72, 0
3, 20640, Note_on_c, 0, 71, 72
3, 21120, Note_on_c, 0, 71, 0
3, 21120, Note_on_c, 0, 72, 72
3, 22080, Note_on_c, 0, 72, 0
3, 22080, Note_on_c, 0, 72, 72
3, 22560, Note_on_c, 0, 72, 0
3, 22560, Note_on_c, 0, 71, 72
3, 22800, Note_on_c, 0, 71, 0
3, 23040, Note_on_c, 0, 72, 72
3, 24000, Note_on_c, 0, 72, 0
3, 24000, Note_on_c, 0, 72, 72
3, 24480, Note_on_c, 0, 72, 0
3, 24480, Note_on_c, 0, 71, 72
3, 24960, Note_on_c, 0, 71, 0
3, 24960, Note_on_c, 0, 72, 72
3, 25920, Note_on_c, 0, 72, 0
3, 25920, Note_on_c, 0, 72, 72
3, 26400, Note_on_c, 0, 72, 0
3, 26400, Note_on_c, 0, 71, 72
3, 26880, Note_on_c, 0, 71, 0
3, 26880, Note_on_c, 0, 72, 72
3, 27840, Note_on_c, 0, 72, 0
3, 27840, Note_on_c, 0, 72, 72
3, 28320, Note_on_c, 0, 72, 0
3, 28320, Note_on_c, 0, 71, 72
3, 28800, Note_on_c, 0, 71, 0
3, 28800, Note_on_c, 0, 72, 72
3, 29760, Note_on_c, 0, 72, 0
3, 29760, Note_on_c, 0, 72, 72
3, 30240, Note_on_c, 0, 72, 0
3, 30240, Note_on_c, 0, 71, 72
3, 30480, Note_on_c, 0, 71, 0
3, 30480, End_track
4, 0, Start_track
4, 0, Title_t, "Grand Piano"
4, 0, Program_c, 0, 0
4, 0, Control_c, 0, 7, 115
4, 0, Control_c, 0, 10, 41
4, 0, Note_on_c, 0, 55, 34
4, 0, Note_on_c, 0, 58, 34
4, 0, Note_on_c, 0, 63, 34
4, 0, Note_on_c, 0, 67, 34
4, 240, Note_on_c, 0, 67, 0
4, 240, Note_on_c, 0, 55, 0
4, 240, Note_on_c, 0, 58, 0
4, 240, Note_on_c, 0, 63, 0
4, 240, Note_on_c, 0, 55, 34
4, 240, Note_on_c, 0, 58, 34
4, 240, Note_on_c, 0, 63, 34
4, 240, Note_on_c, 0, 67, 34
4, 480, Note_on_c, 0, 67, 0
4, 480, Note_on_c, 0, 55, 0
4, 480, Note_on_c, 0, 58, 0
4, 480, Note_on_c, 0, 63, 0
4, 480, Note_on_c, 0, 55, 34
4, 480, Note_on_c, 0, 58, 34
4, 480, Note_on_c, 0, 62, 34
4, 480, Note_on_c, 0, 67, 34
4, 720, Note_on_c, 0, 67, 0
4, 720, Note_on_c, 0, 55, 0
4, 720, Note_on_c, 0, 58, 0
4, 720, Note_on_c, 0, 62, 0
4, 720, Note_on_c, 0, 55, 34
4, 720, Note_on_c, 0, 58, 34
4, 720, Note_on_c, 0, 62, 34
4, 720, Note_on_c, 0, 67, 34
4, 960, Note_on_c, 0, 67, 0
4, 960, Note_on_c, 0, 55, 0
4, 960, Note_on_c, 0, 58, 0
4, 960, Note_on_c, 0, 62, 0
4, 960, Note_on_c, 0, 55, 34
4, 960, Note_on_c, 0, 58, 34
4, 960, Note_on_c, 0, 63, 34
4, 960, Note_on_c, 0, 67, 34
4, 1200, Note_on_c, 0, 67, 0
4, 1200, Note_on_c, 0, 55, 0
4, 1200, Note_on_c, 0, 58, 0
4, 1200, Note_on_c, 0, 63, 0
4, 1200, Note_on_c, 0, 55, 34
4, 1200, Note_on_c, 0, 58, 34
4, 1200, Note_on_c, 0, 63, 34
4, 1200, Note_on_c, 0, 67, 34
4, 1440, Note_on_c, 0, 67, 0
4, 1440, Note_on_c, 0, 55, 0
4, 1440, Note_on_c, 0, 58, 0
4, 1440, Note_on_c, 0, 63, 0
4, 1440, Note_on_c, 0, 55, 34
4, 1440, Note_on_c, 0, 58, 34
4, 1440, Note_on_c, 0, 62, 34
4, 1440, Note_on_c, 0, 67, 34
4, 1680, Note_on_c, 0, 67, 0
4, 1680, Note_on_c, 0, 55, 0
4, 1680, Note_on_c, 0, 58, 0
4, 1680, Note_on_c, 0, 62, 0
4, 1680, Note_on_c, 0, 55, 34
4, 1680, Note_on_c, 0, 58, 34
4, 1680, Note_on_c, 0, 62, 34
4, 1680, Note_on_c, 0, 67, 34
4, 1920, Note_on_c, 0, 67, 0
4, 1920, Note_on_c, 0, 55, 0
4, 1920, Note_on_c, 0, 58, 0
4, 1920, Note_on_c, 0, 62, 0
4, 1920, Note_on_c, 0, 55, 34
4, 1920, Note_on_c, 0, 57, 34
4, 1920, Note_on_c, 0, 63, 34
4, 1920, Note_on_c, 0, 67, 34
4, 2160, Note_on_c, 0, 67, 0
4, 2160, Note_on_c, 0, 55, 0
4, 2160, Note_on_c, 0, 57, 0
4, 2160, Note_on_c, 0, 63, 0
4, 2160, Note_on_c, 0, 55, 34
4, 2160, Note_on_c, 0, 57, 34
4, 2160, Note_on_c, 0, 63, 34
4, 2160, Note_on_c, 0, 67, 34
4, 2400, Note_on_c, 0, 67, 0
4, 2400, Note_on_c, 0, 55, 0
4, 2400, Note_on_c, 0, 57, 0
4, 2400, Note_on_c, 0, 63, 0
4, 2400, Note_on_c, 0, 55, 34
4, 2400, Note_on_c, 0, 58, 34
4, 2400, Note_on_c, 0, 62, 34
4, 2400, Note_on_c, 0, 67, 34
4, 2640, Note_on_c, 0, 67, 0
4, 2640, Note_on_c, 0, 55, 0
4, 2640, Note_on_c, 0, 58, 0
4, 2640, Note_on_c, 0, 62, 0
4, 2640, Note_on_c, 0, 55, 34
4, 2640, Note_on_c, 0, 58, 34
4, 2640, Note_on_c, 0, 62, 34
4, 2640, Note_on_c, 0, 67, 34
4, 2880, Note_on_c, 0, 67, 0
4, 2880, Note_on_c, 0, 55, 0
4, 2880, Note_on_c, 0, 58, 0
4, 2880, Note_on_c, 0, 62, 0
4, 2880, Note_on_c, 0, 55, 34
4, 2880, Note_on_c, 0, 60, 34
4, 2880, Note_on_c, 0, 63, 34
4, 2880, Note_on_c, 0, 66, 34
4, 3120, Note_on_c, 0, 66, 0
4, 3120, Note_on_c, 0, 55, 0
4, 3120, Note_on_c, 0, 60, 0
4, 3120, Note_on_c, 0, 63, 0
4, 3120, Note_on_c, 0, 55, 34
4, 3120, Note_on_c, 0, 60, 34
4, 3120, Note_on_c, 0, 63, 34
4, 3120, Note_on_c, 0, 66, 34
4, 3360, Note_on_c, 0, 66, 0
4, 3360, Note_on_c, 0, 55, 0
4, 3360, Note_on_c, 0, 60, 0
4, 3360, Note_on_c, 0, 63, 0
4, 3360, Note_on_c, 0, 55, 34
4, 3360, Note_on_c, 0, 58, 34
4, 3360, Note_on_c, 0, 62, 34
4, 3600, Note_on_c, 0, 62, 0
4, 3600, Note_on_c, 0, 58, 0
4, 3600, Note_on_c, 0, 55, 0
4, 3600, Note_on_c, 0, 55, 34
4, 3600, Note_on_c, 0, 58, 34
4, 3600, Note_on_c, 0, 62, 34
4, 3600, Note_on_c, 0, 67, 34
4, 3840, Note_on_c, 0, 67, 0
4, 3840, Note_on_c, 0, 55, 0
4, 3840, Note_on_c, 0, 58, 0
4, 3840, Note_on_c, 0, 62, 0
4, 3840, Note_on_c, 0, 55, 34
4, 3840, Note_on_c, 0, 58, 34
4, 3840, Note_on_c, 0, 63, 34
4, 3840, Note_on_c, 0, 67, 34
4, 4080, Note_on_c, 0, 67, 0
4, 4080, Note_on_c, 0, 55, 0
4, 4080, Note_on_c, 0, 58, 0
4, 4080, Note_on_c, 0, 63, 0
4, 4080, Note_on_c, 0, 55, 34
4, 4080, Note_on_c, 0, 58, 34
4, 4080, Note_on_c, 0, 63, 34
4, 4080, Note_on_c, 0, 67, 34
4, 4320, Note_on_c, 0, 67, 0
4, 4320, Note_on_c, 0, 55, 0
4, 4320, Note_on_c, 0, 58, 0
4, 4320, Note_on_c, 0, 63, 0
4, 4320, Note_on_c, 0, 55, 34
4, 4320, Note_on_c, 0, 58, 34
4, 4320, Note_on_c, 0, 62, 34
4, 4320, Note_on_c, 0, 67, 34
4, 4560, Note_on_c, 0, 67, 0
4, 4560, Note_on_c, 0, 55, 0
4, 4560, Note_on_c, 0, 58, 0
4, 4560, Note_on_c, 0, 62, 0
4, 4560, Note_on_c, 0, 55, 34
4, 4560, Note_on_c, 0, 58, 34
4, 4560, Note_on_c, 0, 62, 34
4, 4560, Note_on_c, 0, 67, 34
4, 4800, Note_on_c, 0, 67, 0
4, 4800, Note_on_c, 0, 55, 0
4, 4800, Note_on_c, 0, 58, 0
4, 4800, Note_on_c, 0, 62, 0
4, 4800, Note_on_c, 0, 55, 34
4, 4800, Note_on_c, 0, 58, 34
4, 4800, Note_on_c, 0, 63, 34
4, 4800, Note_on_c, 0, 67, 34
4, 5040, Note_on_c, 0, 67, 0
4, 5040, Note_on_c, 0, 55, 0
4, 5040, Note_on_c, 0, 58, 0
4, 5040, Note_on_c, 0, 63, 0
4, 5040, Note_on_c, 0, 55, 34
4, 5040, Note_on_c, 0, 58, 34
4, 5040, Note_on_c, 0, 63, 34
4, 5040, Note_on_c, 0, 67, 34
4, 5280, Note_on_c, 0, 67, 0
4, 5280, Note_on_c, 0, 55, 0
4, 5280, Note_on_c, 0, 58, 0
4, 5280, Note_on_c, 0, 63, 0
4, 5280, Note_on_c, 0, 55, 34
4, 5280, Note_on_c, 0, 58, 34
4, 5280, Note_on_c, 0, 62, 34
4, 5280, Note_on_c, 0, 67, 34
4, 5520, Note_on_c, 0, 67, 0
4, 5520, Note_on_c, 0, 55, 0
4, 5520, Note_on_c, 0, 58, 0
4, 5520, Note_on_c, 0, 62, 0
4, 5520, Note_on_c, 0, 55, 34
4, 5520, Note_on_c, 0, 58, 34
4, 5520, Note_on_c, 0, 62, 34
4, 5520, Note_on_c, 0, 67, 34
4, 5760, Note_on_c, 0, 67, 0
4, 5760, Note_on_c, 0, 55, 0
4, 5760, Note_on_c, 0, 58, 0
4, 5760, Note_on_c, 0, 62, 0
4, 5760, Note_on_c, 0, 55, 34
4, 5760, Note_on_c, 0, 57, 34
4, 5760, Note_on_c, 0, 63, 34
4, 5760, Note_on_c, 0, 67, 34
4, 6000, Note_on_c, 0, 67, 0
4, 6000, Note_on_c, 0, 55, 0
4, 6000, Note_on_c, 0, 57, 0
4, 6000, Note_on_c, 0, 63, 0
4, 6000, Note_on_c, 0, 55, 34
4, 6000, Note_on_c, 0, 57, 34
4, 6000, Note_on_c, 0, 63, 34
4, 6000, Note_on_c, 0, 67, 34
4, 6240, Note_on_c, 0, 67, 0
4, 6240, Note_on_c, 0, 55, 0
4, 6240, Note_on_c, 0, 57, 0
4, 6240, Note_on_c, 0, 63, 0
4, 6240, Note_on_c, 0, 55, 34
4, 6240, Note_on_c, 0, 58, 34
4, 6240, Note_on_c, 0, 62, 34
4, 6240, Note_on_c, 0, 67, 34
4, 6480, Note_on_c, 0, 67, 0
4, 6480, Note_on_c, 0, 55, 0
4, 6480, Note_on_c, 0, 58, 0
4, 6480, Note_on_c, 0, 62, 0
4, 6480, Note_on_c, 0, 55, 34
4, 6480, Note_on_c, 0, 58, 34
4, 6480, Note_on_c, 0, 62, 34
4, 6480, Note_on_c, 0, 67, 34
4, 6720, Note_on_c, 0, 67, 0
4, 6720, Note_on_c, 0, 55, 0
4, 6720, Note_on_c, 0, 58, 0
4, 6720, Note_on_c, 0, 62, 0
4, 6720, Note_on_c, 0, 55, 34
4, 6720, Note_on_c, 0, 60, 34
4, 6720, Note_on_c, 0, 63, 34
4, 6720, Note_on_c, 0, 66, 34
4, 6960, Note_on_c, 0, 66, 0
4, 6960, Note_on_c, 0, 55, 0
4, 6960, Note_on_c, 0, 60, 0
4, 6960, Note_on_c, 0, 63, 0
4, 6960, Note_on_c, 0, 55, 34
4, 6960, Note_on_c, 0, 60, 34
4, 6960, Note_on_c, 0, 63, 34
4, 6960, Note_on_c, 0, 66, 34
4, 7200, Note_on_c, 0, 66, 0
4, 7200, Note_on_c, 0, 55, 0
4, 7200, Note_on_c, 0, 60, 0
4, 7200, Note_on_c, 0, 63, 0
4, 7200, Note_on_c, 0, 55, 34
4, 7200, Note_on_c, 0, 58, 34
4, 7200, Note_on_c, 0, 62, 34
4, 7440, Note_on_c, 0, 62, 0
4, 7440, Note_on_c, 0, 58, 0
4, 7440, Note_on_c, 0, 55, 0
4, 7440, Note_on_c, 0, 55, 34
4, 7440, Note_on_c, 0, 58, 34
4, 7440, Note_on_c, 0, 62, 34
4, 7440, Note_on_c, 0, 67, 34
4, 7680, Note_on_c, 0, 67, 0
4, 7680, Note_on_c, 0, 55, 0
4, 7680, Note_on_c, 0, 58, 0
4, 7680, Note_on_c, 0, 62, 0
4, 7680, Note_on_c, 0, 55, 34
4, 7680, Note_on_c, 0, 58, 34
4, 7680, Note_on_c, 0, 63, 34
4, 7680, Note_on_c, 0, 67, 34
4, 7920, Note_on_c, 0, 67, 0
4, 7920, Note_on_c, 0, 55, 0
4, 7920, Note_on_c, 0, 58, 0
4, 7920, Note_on_c, 0, 63, 0
4, 7920, Note_on_c, 0, 55, 34
4, 7920, Note_on_c, 0, 58, 34
4, 7920, Note_on_c, 0, 63, 34
4, 7920, Note_on_c, 0, 67, 34
4, 8160, Note_on_c, 0, 67, 0
4, 8160, Note_on_c, 0, 55, 0
4, 8160, Note_on_c, 0, 58, 0
4, 8160, Note_on_c, 0, 63, 0
4, 8160, Note_on_c, 0, 55, 34
4, 8160, Note_on_c, 0, 58, 34
4, 8160, Note_on_c, 0, 62, 34
4, 8160, Note_on_c, 0, 67, 34
4, 8400, Note_on_c, 0, 67, 0
4, 8400, Note_on_c, 0, 55, 0
4, 8400, Note_on_c, 0, 58, 0
4, 8400, Note_on_c, 0, 62, 0
4, 8400, Note_on_c, 0, 55, 34
4, 8400, Note_on_c, 0, 58, 34
4, 8400, Note_on_c, 0, 62, 34
4, 8400, Note_on_c, 0, 67, 34
4, 8640, Note_on_c, 0, 67, 0
4, 8640, Note_on_c, 0, 55, 0
4, 8640, Note_on_c, 0, 58, 0
4, 8640, Note_on_c, 0, 62, 0
4, 8640, Note_on_c, 0, 55, 34
4, 8640, Note_on_c, 0, 58, 34
4, 8640, Note_on_c, 0, 63, 34
4, 8640, Note_on_c, 0, 67, 34
4, 8880, Note_on_c, 0, 67, 0
4, 8880, Note_on_c, 0, 55, 0
4, 8880, Note_on_c, 0, 58, 0
4, 8880, Note_on_c, 0, 63, 0
4, 8880, Note_on_c, 0, 55, 34
4, 8880, Note_on_c, 0, 58, 34
4, 8880, Note_on_c, 0, 63, 34
4, 8880, Note_on_c, 0, 67, 34
4, 9120, Note_on_c, 0, 67, 0
4, 9120, Note_on_c, 0, 55, 0
4, 9120, Note_on_c, 0, 58, 0
4, 9120, Note_on_c, 0, 63, 0
4, 9120, Note_on_c, 0, 55, 34
4, 9120, Note_on_c, 0, 58, 34
4, 9120, Note_on_c, 0, 62, 34
4, 9120, Note_on_c, 0, 67, 34
4, 9360, Note_on_c, 0, 67, 0
4, 9360, Note_on_c, 0, 55, 0
4, 9360, Note_on_c, 0, 58, 0
4, 9360, Note_on_c, 0, 62, 0
4, 9360, Note_on_c, 0, 55, 34
4, 9360, Note_on_c, 0, 58, 34
4, 9360, Note_on_c, 0, 62, 34
4, 9360, Note_on_c, 0, 67, 34
4, 9600, Note_on_c, 0, 67, 0
4, 9600, Note_on_c, 0, 55, 0
4, 9600, Note_on_c, 0, 58, 0
4, 9600, Note_on_c, 0, 62, 0
4, 9600, Note_on_c, 0, 55, 34
4, 9600, Note_on_c, 0, 57, 34
4, 9600, Note_on_c, 0, 63, 34
4, 9600, Note_on_c, 0, 67, 34
4, 9840, Note_on_c, 0, 67, 0
4, 9840, Note_on_c, 0, 55, 0
4, 9840, Note_on_c, 0, 57, 0
4, 9840, Note_on_c, 0, 63, 0
4, 9840, Note_on_c, 0, 55, 34
4, 9840, Note_on_c, 0, 57, 34
4, 9840, Note_on_c, 0, 63, 34
4, 9840, Note_on_c, 0, 67, 34
4, 10080, Note_on_c, 0, 67, 0
4, 10080, Note_on_c, 0, 55, 0
4, 10080, Note_on_c, 0, 57, 0
4, 10080, Note_on_c, 0, 63, 0
4, 10080, Note_on_c, 0, 55, 34
4, 10080, Note_on_c, 0, 58, 34
4, 10080, Note_on_c, 0, 62, 34
4, 10080, Note_on_c, 0, 67, 34
4, 10320, Note_on_c, 0, 67, 0
4, 10320, Note_on_c, 0, 55, 0
4, 10320, Note_on_c, 0, 58, 0
4, 10320, Note_on_c, 0, 62, 0
4, 10320, Note_on_c, 0, 55, 34
4, 10320, Note_on_c, 0, 58, 34
4, 10320, Note_on_c, 0, 62, 34
4, 10320, Note_on_c, 0, 67, 34
4, 10560, Note_on_c, 0, 67, 0
4, 10560, Note_on_c, 0, 55, 0
4, 10560, Note_on_c, 0, 58, 0
4, 10560, Note_on_c, 0, 62, 0
4, 10560, Note_on_c, 0, 55, 34
4, 10560, Note_on_c, 0, 60, 34
4, 10560, Note_on_c, 0, 63, 34
4, 10560, Note_on_c, 0, 66, 34
4, 10800, Note_on_c, 0, 66, 0
4, 10800, Note_on_c, 0, 55, 0
4, 10800, Note_on_c, 0, 60, 0
4, 10800, Note_on_c, 0, 63, 0
4, 10800, Note_on_c, 0, 55, 34
4, 10800, Note_on_c, 0, 60, 34
4, 10800, Note_on_c, 0, 63, 34
4, 10800, Note_on_c, 0, 66, 34
4, 11040, Note_on_c, 0, 66, 0
4, 11040, Note_on_c, 0, 55, 0
4, 11040, Note_on_c, 0, 60, 0
4, 11040, Note_on_c, 0, 63, 0
4, 11040, Note_on_c, 0, 55, 34
4, 11040, Note_on_c, 0, 58, 34
4, 11040, Note_on_c, 0, 62, 34
4, 11280, Note_on_c, 0, 62, 0
4, 11280, Note_on_c, 0, 58, 0
4, 11280, Note_on_c, 0, 55, 0
4, 11280, Note_on_c, 0, 55, 34
4, 11280, Note_on_c, 0, 58, 34
4, 11280, Note_on_c, 0, 62, 34
4, 11280, Note_on_c, 0, 67, 34
4, 11520, Note_on_c, 0, 67, 0
4, 11520, Note_on_c, 0, 55, 0
4, 11520, Note_on_c, 0, 58, 0
4, 11520, Note_on_c, 0, 62, 0
4, 11520, Note_on_c, 0, 55, 34
4, 11520, Note_on_c, 0, 58, 34
4, 11520, Note_on_c, 0, 63, 34
4, 11520, Note_on_c, 0, 67, 34
4, 11760, Note_on_c, 0, 67, 0
4, 11760, Note_on_c, 0, 55, 0
4, 11760, Note_on_c, 0, 58, 0
4, 11760, Note_on_c, 0, 63, 0
4, 11760, Note_on_c, 0, 55, 34
4, 11760, Note_on_c, 0, 58, 34
4, 11760, Note_on_c, 0, 63, 34
4, 11760, Note_on_c, 0, 67, 34
4, 12000, Note_on_c, 0, 67, 0
4, 12000, Note_on_c, 0, 55, 0
4, 12000, Note_on_c, 0, 58, 0
4, 12000, Note_on_c, 0, 63, 0
4, 12000, Note_on_c, 0, 55, 34
4, 12000, Note_on_c, 0, 58, 34
4, 12000, Note_on_c, 0, 62, 34
4, 12000, Note_on_c, 0, 67, 34
4, 12240, Note_on_c, 0, 67, 0
4, 12240, Note_on_c, 0, 55, 0
4, 12240, Note_on_c, 0, 58, 0
4, 12240, Note_on_c, 0, 62, 0
4, 12240, Note_on_c, 0, 55, 34
4, 12240, Note_on_c, 0, 58, 34
4, 12240, Note_on_c, 0, 62, 34
4, 12240, Note_on_c, 0, 67, 34
4, 12480, Note_on_c, 0, 67, 0
4, 12480, Note_on_c, 0, 55, 0
4, 12480, Note_on_c, 0, 58, 0
4, 12480, Note_on_c, 0, 62, 0
4, 12480, Note_on_c, 0, 55, 34
4, 12480, Note_on_c, 0, 58, 34
4, 12480, Note_on_c, 0, 63, 34
4, 12480, Note_on_c, 0, 67, 34
4, 12720, Note_on_c, 0, 67, 0
4, 12720, Note_on_c, 0, 55, 0
4, 12720, Note_on_c, 0, 58, 0
4, 12720, Note_on_c, 0, 63, 0
4, 12720, Note_on_c, 0, 55, 34
4, 12720, Note_on_c, 0, 58, 34
4, 12720, Note_on_c, 0, 63, 34
4, 12720, Note_on_c, 0, 67, 34
4, 12960, Note_on_c, 0, 67, 0
4, 12960, Note_on_c, 0, 55, 0
4, 12960, Note_on_c, 0, 58, 0
4, 12960, Note_on_c, 0, 63, 0
4, 12960, Note_on_c, 0, 55, 34
4, 12960, Note_on_c, 0, 58, 34
4, 12960, Note_on_c, 0, 62, 34
4, 12960, Note_on_c, 0, 67, 34
4, 13200, Note_on_c, 0, 67, 0
4, 13200, Note_on_c, 0, 55, 0
4, 13200, Note_on_c, 0, 58, 0
4, 13200, Note_on_c, 0, 62, 0
4, 13200, Note_on_c, 0, 55, 34
4, 13200, Note_on_c, 0, 58, 34
4, 13200, Note_on_c, 0, 62, 34
4, 13200, Note_on_c, 0, 67, 34
4, 13440, Note_on_c, 0, 67, 0
4, 13440, Note_on_c, 0, 55, 0
4, 13440, Note_on_c, 0, 58, 0
4, 13440, Note_on_c, 0, 62, 0
4, 13440, Note_on_c, 0, 55, 34
4, 13440, Note_on_c, 0, 57, 34
4, 13440, Note_on_c, 0, 63, 34
4, 13440, Note_on_c, 0, 67, 34
4, 13680, Note_on_c, 0, 67, 0
4, 13680, Note_on_c, 0, 55, 0
4, 13680, Note_on_c, 0, 57, 0
4, 13680, Note_on_c, 0, 63, 0
4, 13680, Note_on_c, 0, 55, 34
4, 13680, Note_on_c, 0, 57, 34
4, 13680, Note_on_c, 0, 63, 34
4, 13680, Note_on_c, 0, 67, 34
4, 13920, Note_on_c, 0, 67, 0
4, 13920, Note_on_c, 0, 55, 0
4, 13920, Note_on_c, 0, 57, 0
4, 13920, Note_on_c, 0, 63, 0
4, 13920, Note_on_c, 0, 55, 34
4, 13920, Note_on_c, 0, 58, 34
4, 13920, Note_on_c, 0, 62, 34
4, 13920, Note_on_c, 0, 67, 34
4, 14160, Note_on_c, 0, 67, 0
4, 14160, Note_on_c, 0, 55, 0
4, 14160, Note_on_c, 0, 58, 0
4, 14160, Note_on_c, 0, 62, 0
4, 14160, Note_on_c, 0, 55, 34
4, 14160, Note_on_c, 0, 58, 34
4, 14160, Note_on_c, 0, 62, 34
4, 14160, Note_on_c, 0, 67, 34
4, 14400, Note_on_c, 0, 67, 0
4, 14400, Note_on_c, 0, 55, 0
4, 14400, Note_on_c, 0, 58, 0
4, 14400, Note_on_c, 0, 62, 0
4, 14400, Note_on_c, 0, 55, 34
4, 14400, Note_on_c, 0, 60, 34
4, 14400, Note_on_c, 0, 63, 34
4, 14400, Note_on_c, 0, 66, 34
4, 14640, Note_on_c, 0, 66, 0
4, 14640, Note_on_c, 0, 55, 0
4, 14640, Note_on_c, 0, 60, 0
4, 14640, Note_on_c, 0, 63, 0
4, 14640, Note_on_c, 0, 55, 34
4, 14640, Note_on_c, 0, 60, 34
4, 14640, Note_on_c, 0, 63, 34
4, 14640, Note_on_c, 0, 66, 34
4, 14880, Note_on_c, 0, 66, 0
4, 14880, Note_on_c, 0, 55, 0
4, 14880, Note_on_c, 0, 60, 0
4, 14880, Note_on_c, 0, 63, 0
4, 14880, Note_on_c, 0, 55, 47
4, 14880, Note_on_c, 0, 58, 47
4, 14880, Note_on_c, 0, 62, 47
4, 15120, Note_on_c, 0, 62, 0
4, 15120, Note_on_c, 0, 58, 0
4, 15120, Note_on_c, 0, 55, 0
4, 15360, Note_on_c, 0, 54, 47
4, 15360, Note_on_c, 0, 62, 47
4, 15407, Note_on_c, 0, 62, 0
4, 15407, Note_on_c, 0, 54, 0
4, 15600, Note_on_c, 0, 54, 47
4, 15600, Note_on_c, 0, 63, 47
4, 15647, Note_on_c, 0, 63, 0
4, 15647, Note_on_c, 0, 54, 0
4, 15840, Note_on_c, 0, 54, 47
4, 15840, Note_on_c, 0, 64, 47
4, 15887, Note_on_c, 0, 64, 0
4, 15887, Note_on_c, 0, 54, 0
4, 16080, Note_on_c, 0, 50, 47
4, 16080, Note_on_c, 0, 62, 47
4, 16127, Note_on_c, 0, 62, 0
4, 16127, Note_on_c, 0, 50, 0
4, 16320, Note_on_c, 0, 54, 47
4, 16320, Note_on_c, 0, 62, 47
4, 16367, Note_on_c, 0, 62, 0
4, 16367, Note_on_c, 0, 54, 0
4, 16560, Note_on_c, 0, 54, 47
4, 16560, Note_on_c, 0, 63, 47
4, 16607, Note_on_c, 0, 63, 0
4, 16607, Note_on_c, 0, 54, 0
4, 16800, Note_on_c, 0, 54, 47
4, 16800, Note_on_c, 0, 64, 47
4, 16847, Note_on_c, 0, 64, 0
4, 16847, Note_on_c, 0, 54, 0
4, 17040, Note_on_c, 0, 50, 47
4, 17040, Note_on_c, 0, 62, 47
4, 17087, Note_on_c, 0, 62, 0
4, 17087, Note_on_c, 0, 50, 0
4, 17280, Note_on_c, 0, 54, 47
4, 17280, Note_on_c, 0, 62, 47
4, 17327, Note_on_c, 0, 62, 0
4, 17327, Note_on_c, 0, 54, 0
4, 17520, Note_on_c, 0, 54, 47
4, 17520, Note_on_c, 0, 63, 47
4, 17567, Note_on_c, 0, 63, 0
4, 17567, Note_on_c, 0, 54, 0
4, 17760, Note_on_c, 0, 54, 47
4, 17760, Note_on_c, 0, 64, 47
4, 17807, Note_on_c, 0, 64, 0
4, 17807, Note_on_c, 0, 54, 0
4, 18000, Note_on_c, 0, 50, 47
4, 18000, Note_on_c, 0, 62, 47
4, 18047, Note_on_c, 0, 62, 0
4, 18047, Note_on_c, 0, 50, 0
4, 18240, Note_on_c, 0, 54, 47
4, 18240, Note_on_c, 0, 62, 47
4, 18287, Note_on_c, 0, 62, 0
4, 18287, Note_on_c, 0, 54, 0
4, 18480, Note_on_c, 0, 54, 47
4, 18480, Note_on_c, 0, 63, 47
4, 18527, Note_on_c, 0, 63, 0
4, 18527, Note_on_c, 0, 54, 0
4, 18720, Note_on_c, 0, 54, 47
4, 18720, Note_on_c, 0, 64, 47
4, 18767, Note_on_c, 0, 64, 0
4, 18767, Note_on_c, 0, 54, 0
4, 18960, Note_on_c, 0, 50, 47
4, 18960, Note_on_c, 0, 62, 47
4, 19007, Note_on_c, 0, 62, 0
4, 19007, Note_on_c, 0, 50, 0
4, 19200, Note_on_c, 0, 54, 47
4, 19200, Note_on_c, 0, 62, 47
4, 19247, Note_on_c, 0, 62, 0
4, 19247, Note_on_c, 0, 54, 0
4, 19440, Note_on_c, 0, 54, 47
4, 19440, Note_on_c, 0, 63, 47
4, 19487, Note_on_c, 0, 63, 0
4, 19487, Note_on_c, 0, 54, 0
4, 19680, Note_on_c, 0, 54, 47
4, 19680, Note_on_c, 0, 64, 47
4, 19727, Note_on_c, 0, 64, 0
4, 19727, Note_on_c, 0, 54, 0
4, 19920, Note_on_c, 0, 50, 47
4, 19920, Note_on_c, 0, 62, 47
4, 19967, Note_on_c, 0, 62, 0
4, 19967, Note_on_c, 0, 50, 0
4, 20160, Note_on_c, 0, 54, 47
4, 20160, Note_on_c, 0, 62, 47
4, 20207, Note_on_c, 0, 62, 0
4, 20207, Note_on_c, 0, 54, 0
4, 20400, Note_on_c, 0, 54, 47
4, 20400, Note_on_c, 0, 63, 47
4, 20447, Note_on_c, 0, 63, 0
4, 20447, Note_on_c, 0, 54, 0
4, 20640, Note_on_c, 0, 54, 47
4, 20640, Note_on_c, 0, 64, 47
4, 20687, Note_on_c, 0, 64, 0
4, 20687, Note_on_c, 0, 54, 0
4, 20880, Note_on_c, 0, 50, 47
4, 20880, Note_on_c, 0, 62, 47
4, 20927, Note_on_c, 0, 62, 0
4, 20927, Note_on_c, 0, 50, 0
4, 21120, Note_on_c, 0, 54, 47
4, 21120, Note_on_c, 0, 62, 47
4, 21167, Note_on_c, 0, 62, 0
4, 21167, Note_on_c, 0, 54, 0
4, 21360, Note_on_c, 0, 54, 47
4, 21360, Note_on_c, 0, 63, 47
4, 21407, Note_on_c, 0, 63, 0
4, 21407, Note_on_c, 0, 54, 0
4, 21600, Note_on_c, 0, 54, 47
4, 21600, Note_on_c, 0, 64, 47
4, 21647, Note_on_c, 0, 64, 0
4, 21647, Note_on_c, 0, 54, 0
4, 21840, Note_on_c, 0, 50, 47
4, 21840, Note_on_c, 0, 62, 47
4, 21887, Note_on_c, 0, 62, 0
4, 21887, Note_on_c, 0, 50, 0
4, 22080, Note_on_c, 0, 54, 47
4, 22080, Note_on_c, 0, 62, 47
4, 22127, Note_on_c, 0, 62, 0
4, 22127, Note_on_c, 0, 54, 0
4, 22320, Note_on_c, 0, 50, 47
4, 22320, Note_on_c, 0, 64, 47
4, 22367, Note_on_c, 0, 64, 0
4, 22367, Note_on_c, 0, 50, 0
4, 22560, Note_on_c, 0, 55, 47
4, 22560, Note_on_c, 0, 62, 47
4, 22607, Note_on_c, 0, 62, 0
4, 22607, Note_on_c, 0, 55, 0
4, 23040, Note_on_c, 0, 54, 47
4, 23040, Note_on_c, 0, 62, 47
4, 23087, Note_on_c, 0, 62, 0
4, 23087, Note_on_c, 0, 54, 0
4, 23280, Note_on_c, 0, 54, 47
4, 23280, Note_on_c, 0, 63, 47
4, 23327, Note_on_c, 0, 63, 0
4, 23327, Note_on_c, 0, 54, 0
4, 23520, Note_on_c, 0, 54, 47
4, 23520, Note_on_c, 0, 64, 47
4, 23567, Note_on_c, 0, 64, 0
4, 23567, Note_on_c, 0, 54, 0
4, 23760, Note_on_c, 0, 50, 47
4, 23760, Note_on_c, 0, 62, 47
4, 23807, Note_on_c, 0, 62, 0
4, 23807, Note_on_c, 0, 50, 0
4, 24000, Note_on_c, 0, 54, 47
4, 24000, Note_on_c, 0, 62, 47
4, 24047, Note_on_c, 0, 62, 0
4, 24047, Note_on_c, 0, 54, 0
4, 24240, Note_on_c, 0, 54, 47
4, 24240, Note_on_c, 0, 63, 47
4, 24287, Note_on_c, 0, 63, 0
4, 24287, Note_on_c, 0, 54, 0
4, 24480, Note_on_c, 0, 54, 47
4, 24480, Note_on_c, 0, 64, 47
4, 24527, Note_on_c, 0, 64, 0
4, 24527, Note_on_c, 0, 54, 0
4, 24720, Note_on_c, 0, 50, 47
4, 24720, Note_on_c, 0, 62, 47
4, 24767, Note_on_c, 0, 62, 0
4, 24767, Note_on_c, 0, 50, 0
4, 24960, Note_on_c, 0, 54, 47
4, 24960, Note_on_c, 0, 62, 47
4, 25007, Note_on_c, 0, 62, 0
4, 25007, Note_on_c, 0, 54, 0
4, 25200, Note_on_c, 0, 54, 47
4, 25200, Note_on_c, 0, 63, 47
4, 25247, Note_on_c, 0, 63, 0
4, 25247, Note_on_c, 0, 54, 0
4, 25440, Note_on_c, 0, 54, 47
4, 25440, Note_on_c, 0, 64, 47
4, 25487, Note_on_c, 0, 64, 0
4, 25487, Note_on_c, 0, 54, 0
4, 25680, Note_on_c, 0, 50, 47
4, 25680, Note_on_c, 0, 62, 47
4, 25727, Note_on_c, 0, 62, 0
4, 25727, Note_on_c, 0, 50, 0
4, 25920, Note_on_c, 0, 54, 47
4, 25920, Note_on_c, 0, 62, 47
4, 25967, Note_on_c, 0, 62, 0
4, 25967, Note_on_c, 0, 54, 0
4, 26160, Note_on_c, 0, 54, 47
4, 26160, Note_on_c, 0, 63, 47
4, 26207, Note_on_c, 0, 63, 0
4, 26207, Note_on_c, 0, 54, 0
4, 26400, Note_on_c, 0, 54, 47
4, 26400, Note_on_c, 0, 64, 47
4, 26447, Note_on_c, 0, 64, 0
4, 26447, Note_on_c, 0, 54, 0
4, 26640, Note_on_c, 0, 50, 47
4, 26640, Note_on_c, 0, 62, 47
4, 26687, Note_on_c, 0, 62, 0
4, 26687, Note_on_c, 0, 50, 0
4, 26880, Note_on_c, 0, 54, 47
4, 26880, Note_on_c, 0, 62, 47
4, 26927, Note_on_c, 0, 62, 0
4, 26927, Note_on_c, 0, 54, 0
4, 27120, Note_on_c, 0, 54, 47
4, 27120, Note_on_c, 0, 63, 47
4, 27167, Note_on_c, 0, 63, 0
4, 27167, Note_on_c, 0, 54, 0
4, 27360, Note_on_c, 0, 54, 47
4, 27360, Note_on_c, 0, 64, 47
4, 27407, Note_on_c, 0, 64, 0
4, 27407, Note_on_c, 0, 54, 0
4, 27600, Note_on_c, 0, 50, 47
4, 27600, Note_on_c, 0, 62, 47
4, 27647, Note_on_c, 0, 62, 0
4, 27647, Note_on_c, 0, 50, 0
4, 27840, Note_on_c, 0, 54, 47
4, 27840, Note_on_c, 0, 62, 47
4, 27887, Note_on_c, 0, 62, 0
4, 27887, Note_on_c, 0, 54, 0
4, 28080, Note_on_c, 0, 54, 47
4, 28080, Note_on_c, 0, 63, 47
4, 28127, Note_on_c, 0, 63, 0
4, 28127, Note_on_c, 0, 54, 0
4, 28320, Note_on_c, 0, 54, 47
4, 28320, Note_on_c, 0, 64, 47
4, 28367, Note_on_c, 0, 64, 0
4, 28367, Note_on_c, 0, 54, 0
4, 28560, Note_on_c, 0, 50, 47
4, 28560, Note_on_c, 0, 62, 47
4, 28607, Note_on_c, 0, 62, 0
4, 28607, Note_on_c, 0, 50, 0
4, 28800, Note_on_c, 0, 54, 47
4, 28800, Note_on_c, 0, 62, 47
4, 28847, Note_on_c, 0, 62, 0
4, 28847, Note_on_c, 0, 54, 0
4, 29040, Note_on_c, 0, 54, 47
4, 29040, Note_on_c, 0, 63, 47
4, 29087, Note_on_c, 0, 63, 0
4, 29087, Note_on_c, 0, 54, 0
4, 29280, Note_on_c, 0, 54, 47
4, 29280, Note_on_c, 0, 64, 47
4, 29327, Note_on_c, 0, 64, 0
4, 29327, Note_on_c, 0, 54, 0
4, 29520, Note_on_c, 0, 50, 47
4, 29520, Note_on_c, 0, 62, 47
4, 29567, Note_on_c, 0, 62, 0
4, 29567, Note_on_c, 0, 50, 0
4, 29760, Note_on_c, 0, 54, 47
4, 29760, Note_on_c, 0, 62, 47
4, 29807, Note_on_c, 0, 62, 0
4, 29807, Note_on_c, 0, 54, 0
4, 30000, Note_on_c, 0, 50, 47
4, 30000, Note_on_c, 0, 64, 47
4, 30047, Note_on_c, 0, 64, 0
4, 30047, Note_on_c, 0, 50, 0
4, 30240, Note_on_c, 0, 55, 47
4, 30240, Note_on_c, 0, 62, 47
4, 30287, Note_on_c, 0, 62, 0
4, 30287, Note_on_c, 0, 55, 0
4, 30720, Note_on_c, 0, 55, 47
4, 30720, Note_on_c, 0, 58, 47
4, 30720, Note_on_c, 0, 63, 47
4, 30720, Note_on_c, 0, 67, 47
4, 30960, Note_on_c, 0, 67, 0
4, 30960, Note_on_c, 0, 55, 0
4, 30960, Note_on_c, 0, 58, 0
4, 30960, Note_on_c, 0, 63, 0
4, 30960, Note_on_c, 0, 55, 47
4, 30960, Note_on_c, 0, 58, 47
4, 30960, Note_on_c, 0, 63, 47
4, 30960, Note_on_c, 0, 67, 47
4, 31200, Note_on_c, 0, 67, 0
4, 31200, Note_on_c, 0, 55, 0
4, 31200, Note_on_c, 0, 58, 0
4, 31200, Note_on_c, 0, 63, 0
4, 31200, Note_on_c, 0, 55, 47
4, 31200, Note_on_c, 0, 58, 47
4, 31200, Note_on_c, 0, 62, 47
4, 31200, Note_on_c, 0, 67, 47
4, 31440, Note_on_c, 0, 67, 0
4, 31440, Note_on_c, 0, 55, 0
4, 31440, Note_on_c, 0, 58, 0
4, 31440, Note_on_c, 0, 62, 0
4, 31440, Note_on_c, 0, 55, 47
4, 31440, Note_on_c, 0, 58, 47
4, 31440, Note_on_c, 0, 62, 47
4, 31440, Note_on_c, 0, 67, 47
4, 31680, Note_on_c, 0, 67, 0
4, 31680, Note_on_c, 0, 55, 0
4, 31680, Note_on_c, 0, 58, 0
4, 31680, Note_on_c, 0, 62, 0
4, 31680, Note_on_c, 0, 55, 47
4, 31680, Note_on_c, 0, 58, 47
4, 31680, Note_on_c, 0, 63, 47
4, 31680, Note_on_c, 0, 67, 47
4, 31920, Note_on_c, 0, 67, 0
4, 31920, Note_on_c, 0, 55, 0
4, 31920, Note_on_c, 0, 58, 0
4, 31920, Note_on_c, 0, 63, 0
4, 31920, Note_on_c, 0, 55, 47
4, 31920, Note_on_c, 0, 58, 47
4, 31920, Note_on_c, 0, 63, 47
4, 31920, Note_on_c, 0, 67, 47
4, 32160, Note_on_c, 0, 67, 0
4, 32160, Note_on_c, 0, 55, 0
4, 32160, Note_on_c, 0, 58, 0
4, 32160, Note_on_c, 0, 63, 0
4, 32160, Note_on_c, 0, 55, 47
4, 32160, Note_on_c, 0, 58, 47
4, 32160, Note_on_c, 0, 62, 47
4, 32160, Note_on_c, 0, 67, 47
4, 32400, Note_on_c, 0, 67, 0
4, 32400, Note_on_c, 0, 55, 0
4, 32400, Note_on_c, 0, 58, 0
4, 32400, Note_on_c, 0, 62, 0
4, 32400, Note_on_c, 0, 55, 47
4, 32400, Note_on_c, 0, 58, 47
4, 32400, Note_on_c, 0, 62, 47
4, 32400, Note_on_c, 0, 67, 47
4, 32640, Note_on_c, 0, 67, 0
4, 32640, Note_on_c, 0, 55, 0
4, 32640, Note_on_c, 0, 58, 0
4, 32640, Note_on_c, 0, 62, 0
4, 32640, Control_c, 0, 64, 127
4, 32640, Note_on_c, 0, 45, 112
4, 33000, Note_on_c, 0, 45, 0
4, 33000, Note_on_c, 0, 46, 86
4, 33060, Note_on_c, 0, 46, 0
4, 33060, Note_on_c, 0, 48, 86
4, 33120, Note_on_c, 0, 48, 0
4, 33120, Control_c, 0, 64, 0
4, 33120, Note_on_c, 0, 49, 86
4, 33360, Note_on_c, 0, 49, 0
4, 33600, Control_c, 0, 64, 127
4, 33600, Note_on_c, 0, 48, 112
4, 33960, Note_on_c, 0, 48, 0
4, 33960, Note_on_c, 0, 49, 86
4, 34020, Note_on_c, 0, 49, 0
4, 34020, Note_on_c, 0, 50, 86
4, 34080, Note_on_c, 0, 50, 0
4, 34080, Control_c, 0, 64, 0
4, 34080, Note_on_c, 0, 51, 86
4, 34320, Note_on_c, 0, 51, 0
4, 34560, Note_on_c, 0, 55, 47
4, 34560, Note_on_c, 0, 58, 47
4, 34560, Note_on_c, 0, 63, 47
4, 34560, Note_on_c, 0, 67, 47
4, 34800, Note_on_c, 0, 67, 0
4, 34800, Note_on_c, 0, 55, 0
4, 34800, Note_on_c, 0, 58, 0
4, 34800, Note_on_c, 0, 63, 0
4, 34800, Note_on_c, 0, 55, 47
4, 34800, Note_on_c, 0, 58, 47
4, 34800, Note_on_c, 0, 63, 47
4, 34800, Note_on_c, 0, 67, 47
4, 35040, Note_on_c, 0, 67, 0
4, 35040, Note_on_c, 0, 55, 0
4, 35040, Note_on_c, 0, 58, 0
4, 35040, Note_on_c, 0, 63, 0
4, 35040, Note_on_c, 0, 55, 47
4, 35040, Note_on_c, 0, 58, 47
4, 35040, Note_on_c, 0, 62, 47
4, 35040, Note_on_c, 0, 67, 47
4, 35280, Note_on_c, 0, 67, 0
4, 35280, Note_on_c, 0, 55, 0
4, 35280, Note_on_c, 0, 58, 0
4, 35280, Note_on_c, 0, 62, 0
4, 35280, Note_on_c, 0, 55, 47
4, 35280, Note_on_c, 0, 58, 47
4, 35280, Note_on_c, 0, 62, 47
4, 35280, Note_on_c, 0, 67, 47
4, 35520, Note_on_c, 0, 67, 0
4, 35520, Note_on_c, 0, 55, 0
4, 35520, Note_on_c, 0, 58, 0
4, 35520, Note_on_c, 0, 62, 0
4, 35520, Note_on_c, 0, 55, 47
4, 35520, Note_on_c, 0, 58, 47
4, 35520, Note_on_c, 0, 63, 47
4, 35520, Note_on_c, 0, 67, 47
4, 35760, Note_on_c, 0, 67, 0
4, 35760, Note_on_c, 0, 55, 0
4, 35760, Note_on_c, 0, 58, 0
4, 35760, Note_on_c, 0, 63, 0
4, 35760, Note_on_c, 0, 55, 47
4, 35760, Note_on_c, 0, 58, 47
4, 35760, Note_on_c, 0, 63, 47
4, 35760, Note_on_c, 0, 67, 47
4, 36000, Note_on_c, 0, 67, 0
4, 36000, Note_on_c, 0, 55, 0
4, 36000, Note_on_c, 0, 58, 0
4, 36000, Note_on_c, 0, 63, 0
4, 36000, Note_on_c, 0, 55, 47
4, 36000, Note_on_c, 0, 58, 47
4, 36000, Note_on_c, 0, 62, 47
4, 36000, Note_on_c, 0, 67, 47
4, 36240, Note_on_c, 0, 67, 0
4, 36240, Note_on_c, 0, 55, 0
4, 36240, Note_on_c, 0, 58, 0
4, 36240, Note_on_c, 0, 62, 0
4, 36240, Note_on_c, 0, 55, 47
4, 36240, Note_on_c, 0, 58, 47
4, 36240, Note_on_c, 0, 62, 47
4, 36240, Note_on_c, 0, 67, 47
4, 36480, Note_on_c, 0, 67, 0
4, 36480, Note_on_c, 0, 55, 0
4, 36480, Note_on_c, 0, 58, 0
4, 36480, Note_on_c, 0, 62, 0
4, 36480, Control_c, 0, 64, 127
4, 36480, Note_on_c, 0, 45, 112
4, 36840, Note_on_c, 0, 45, 0
4, 36840, Note_on_c, 0, 46, 86
4, 36900, Note_on_c, 0, 46, 0
4, 36900, Note_on_c, 0, 48, 86
4, 36960, Note_on_c, 0, 48, 0
4, 36960, Control_c, 0, 64, 0
4, 36960, Note_on_c, 0, 49, 86
4, 37200, Note_on_c, 0, 49, 0
4, 37440, Control_c, 0, 64, 127
4, 37440, Note_on_c, 0, 48, 112
4, 37800, Note_on_c, 0, 48, 0
4, 37800, Note_on_c, 0, 49, 86
4, 37860, Note_on_c, 0, 49, 0
4, 37860, Note_on_c, 0, 50, 86
4, 37920, Note_on_c, 0, 50, 0
4, 37920, Control_c, 0, 64, 0
4, 37920, Note_on_c, 0, 51, 86
4, 38160, Note_on_c, 0, 51, 0
4, 38400, Note_on_c, 0, 45, 86
4, 38640, Note_on_c, 0, 45, 0
4, 38640, Note_on_c, 0, 46, 86
4, 38880, Note_on_c, 0, 46, 0
4, 38880, Note_on_c, 0, 48, 73
4, 39240, Note_on_c, 0, 48, 0
4, 39240, Note_on_c, 0, 49, 73
4, 39360, Note_on_c, 0, 49, 0
4, 39360, Note_on_c, 0, 45, 86
4, 39600, Note_on_c, 0, 45, 0
4, 39600, Note_on_c, 0, 46, 86
4, 39840, Note_on_c, 0, 46, 0
4, 39840, Note_on_c, 0, 48, 73
4, 40200, Note_on_c, 0, 48, 0
4, 40200, Note_on_c, 0, 49, 73
4, 40320, Note_on_c, 0, 49, 0
4, 40320, Note_on_c, 0, 45, 112
4, 40440, Note_on_c, 0, 45, 0
4, 40440, Note_on_c, 0, 46, 86
4, 40560, Note_on_c, 0, 46, 0
4, 40560, Note_on_c, 0, 48, 86
4, 40583, Note_on_c, 0, 48, 0
4, 40680, Note_on_c, 0, 49, 86
4, 40703, Note_on_c, 0, 49, 0
4, 40800, Note_on_c, 0, 45, 112
4, 40920, Note_on_c, 0, 45, 0
4, 40920, Note_on_c, 0, 46, 86
4, 41040, Note_on_c, 0, 46, 0
4, 41040, Note_on_c, 0, 48, 86
4, 41063, Note_on_c, 0, 48, 0
4, 41160, Note_on_c, 0, 49, 86
4, 41183, Note_on_c, 0, 49, 0
4, 41280, Note_on_c, 0, 45, 112
4, 41400, Note_on_c, 0, 45, 0
4, 41400, Note_on_c, 0, 46, 86
4, 41520, Note_on_c, 0, 46, 0
4, 41520, Note_on_c, 0, 48, 86
4, 41543, Note_on_c, 0, 48, 0
4, 41640, Note_on_c, 0, 49, 86
4, 41663, Note_on_c, 0, 49, 0
4, 41760, Note_on_c, 0, 45, 112
4, 41880, Note_on_c, 0, 45, 0
4, 41880, Note_on_c, 0, 46, 86
4, 42000, Note_on_c, 0, 46, 0
4, 42000, Note_on_c, 0, 48, 86
4, 42023, Note_on_c, 0, 48, 0
4, 42120, Note_on_c, 0, 49, 86
4, 42143, Note_on_c, 0, 49, 0
4, 42240, Note_on_c, 0, 51, 47
4, 42240, Note_on_c, 0, 58, 47
4, 42240, Note_on_c, 0, 61, 47
4, 42240, Note_on_c, 0, 66, 47
4, 42480, Note_on_c, 0, 66, 0
4, 42480, Note_on_c, 0, 51, 0
4, 42480, Note_on_c, 0, 58, 0
4, 42480, Note_on_c, 0, 61, 0
4, 42480, Note_on_c, 0, 51, 47
4, 42480, Note_on_c, 0, 58, 47
4, 42480, Note_on_c, 0, 61, 47
4, 42480, Note_on_c, 0, 66, 47
4, 42720, Note_on_c, 0, 66, 0
4, 42720, Note_on_c, 0, 51, 0
4, 42720, Note_on_c, 0, 58, 0
4, 42720, Note_on_c, 0, 61, 0
4, 42720, Note_on_c, 0, 53, 47
4, 42720, Note_on_c, 0, 58, 47
4, 42720, Note_on_c, 0, 61, 47
4, 42720, Note_on_c, 0, 65, 47
4, 42960, Note_on_c, 0, 65, 0
4, 42960, Note_on_c, 0, 53, 0
4, 42960, Note_on_c, 0, 58, 0
4, 42960, Note_on_c, 0, 61, 0
4, 42960, Note_on_c, 0, 53, 47
4, 42960, Note_on_c, 0, 58, 47
4, 42960, Note_on_c, 0, 61, 47
4, 42960, Note_on_c, 0, 65, 47
4, 43200, Note_on_c, 0, 65, 0
4, 43200, Note_on_c, 0, 53, 0
4, 43200, Note_on_c, 0, 58, 0
4, 43200, Note_on_c, 0, 61, 0
4, 43200, Note_on_c, 0, 51, 47
4, 43200, Note_on_c, 0, 58, 47
4, 43200, Note_on_c, 0, 61, 47
4, 43200, Note_on_c, 0, 66, 47
4, 43440, Note_on_c, 0, 66, 0
4, 43440, Note_on_c, 0, 51, 0
4, 43440, Note_on_c, 0, 58, 0
4, 43440, Note_on_c, 0, 61, 0
4, 43440, Note_on_c, 0, 51, 47
4, 43440, Note_on_c, 0, 58, 47
4, 43440, Note_on_c, 0, 61, 47
4, 43440, Note_on_c, 0, 66, 47
4, 43680, Note_on_c, 0, 66, 0
4, 43680, Note_on_c, 0, 51, 0
4, 43680, Note_on_c, 0, 58, 0
4, 43680, Note_on_c, 0, 61, 0
4, 43680, Note_on_c, 0, 53, 47
4, 43680, Note_on_c, 0, 58, 47
4, 43680, Note_on_c, 0, 61, 47
4, 43680, Note_on_c, 0, 65, 47
4, 43920, Note_on_c, 0, 65, 0
4, 43920, Note_on_c, 0, 53, 0
4, 43920, Note_on_c, 0, 58, 0
4, 43920, Note_on_c, 0, 61, 0
4, 43920, Note_on_c, 0, 53, 47
4, 43920, Note_on_c, 0, 58, 47
4, 43920, Note_on_c, 0, 61, 47
4, 43920, Note_on_c, 0, 65, 47
4, 44160, Note_on_c, 0, 65, 0
4, 44160, Note_on_c, 0, 53, 0
4, 44160, Note_on_c, 0, 58, 0
4, 44160, Note_on_c, 0, 61, 0
4, 44160, Note_on_c, 0, 48, 86
4, 44280, Note_on_c, 0, 48, 0
4, 44280, Note_on_c, 0, 49, 86
4, 44400, Note_on_c, 0, 49, 0
4, 44400, Note_on_c, 0, 51, 86
4, 44423, Note_on_c, 0, 51, 0
4, 44520, Note_on_c, 0, 52, 86
4, 44543, Note_on_c, 0, 52, 0
4, 44640, Note_on_c, 0, 48, 86
4, 44760, Note_on_c, 0, 48, 0
4, 44760, Note_on_c, 0, 49, 86
4, 44880, Note_on_c, 0, 49, 0
4, 44880, Note_on_c, 0, 51, 86
4, 44903, Note_on_c, 0, 51, 0
4, 45000, Note_on_c, 0, 52, 86
4, 45023, Note_on_c, 0, 52, 0
4, 45120, Note_on_c, 0, 48, 86
4, 45240, Note_on_c, 0, 48, 0
4, 45240, Note_on_c, 0, 49, 86
4, 45360, Note_on_c, 0, 49, 0
4, 45360, Note_on_c, 0, 51, 86
4, 45383, Note_on_c, 0, 51, 0
4, 45480, Note_on_c, 0, 52, 86
4, 45503, Note_on_c, 0, 52, 0
4, 45600, Note_on_c, 0, 48, 86
4, 45720, Note_on_c, 0, 48, 0
4, 45720, Note_on_c, 0, 49, 86
4, 45840, Note_on_c, 0, 49, 0
4, 45840, Note_on_c, 0, 51, 86
4, 45863, Note_on_c, 0, 51, 0
4, 45960, Note_on_c, 0, 52, 86
4, 45983, Note_on_c, 0, 52, 0
4, 46080, Note_on_c, 0, 55, 47
4, 46080, Note_on_c, 0, 61, 47
4, 46080, Note_on_c, 0, 64, 47
4, 46080, Note_on_c, 0, 69, 47
4, 46320, Note_on_c, 0, 69, 0
4, 46320, Note_on_c, 0, 55, 0
4, 46320, Note_on_c, 0, 61, 0
4, 46320, Note_on_c, 0, 64, 0
4, 46320, Note_on_c, 0, 55, 47
4, 46320, Note_on_c, 0, 61, 47
4, 46320, Note_on_c, 0, 64, 47
4, 46320, Note_on_c, 0, 69, 47
4, 46560, Note_on_c, 0, 69, 0
4, 46560, Note_on_c, 0, 55, 0
4, 46560, Note_on_c, 0, 61, 0
4, 46560, Note_on_c, 0, 64, 0
4, 46560, Note_on_c, 0, 56, 47
4, 46560, Note_on_c, 0, 61, 47
4, 46560, Note_on_c, 0, 64, 47
4, 46560, Note_on_c, 0, 68, 47
4, 46800, Note_on_c, 0, 68, 0
4, 46800, Note_on_c, 0, 56, 0
4, 46800, Note_on_c, 0, 61, 0
4, 46800, Note_on_c, 0, 64, 0
4, 46800, Note_on_c, 0, 56, 47
4, 46800, Note_on_c, 0, 61, 47
4, 46800, Note_on_c, 0, 64, 47
4, 46800, Note_on_c, 0, 68, 47
4, 47040, Note_on_c, 0, 68, 0
4, 47040, Note_on_c, 0, 56, 0
4, 47040, Note_on_c, 0, 61, 0
4, 47040, Note_on_c, 0, 64, 0
4, 47040, Note_on_c, 0, 55, 47
4, 47040, Note_on_c, 0, 61, 47
4, 47040, Note_on_c, 0, 64, 47
4, 47040, Note_on_c, 0, 69, 47
4, 47280, Note_on_c, 0, 69, 0
4, 47280, Note_on_c, 0, 55, 0
4, 47280, Note_on_c, 0, 61, 0
4, 47280, Note_on_c, 0, 64, 0
4, 47280, Note_on_c, 0, 55, 47
4, 47280, Note_on_c, 0, 61, 47
4, 47280, Note_on_c, 0, 64, 47
4, 47280, Note_on_c, 0, 69, 47
4, 47520, Note_on_c, 0, 69, 0
4, 47520, Note_on_c, 0, 55, 0
4, 47520, Note_on_c, 0, 61, 0
4, 47520, Note_on_c, 0, 64, 0
4, 47520, Note_on_c, 0, 56, 47
4, 47520, Note_on_c, 0, 61, 47
4, 47520, Note_on_c, 0, 64, 47
4, 47520, Note_on_c, 0, 68, 47
4, 47760, Note_on_c, 0, 68, 0
4, 47760, Note_on_c, 0, 56, 0
4, 47760, Note_on_c, 0, 61, 0
4, 47760, Note_on_c, 0, 64, 0
4, 47760, Note_on_c, 0, 56, 47
4, 47760, Note_on_c, 0, 61, 47
4, 47760, Note_on_c, 0, 64, 47
4, 47760, Note_on_c, 0, 68, 47
4, 48000, Note_on_c, 0, 68, 0
4, 48000, Note_on_c, 0, 56, 0
4, 48000, Note_on_c, 0, 61, 0
4, 48000, Note_on_c, 0, 64, 0
4, 48000, Note_on_c, 0, 51, 86
4, 48120, Note_on_c, 0, 51, 0
4, 48120, Note_on_c, 0, 52, 86
4, 48240, Note_on_c, 0, 52, 0
4, 48240, Note_on_c, 0, 54, 86
4, 48263, Note_on_c, 0, 54, 0
4, 48360, Note_on_c, 0, 55, 86
4, 48383, Note_on_c, 0, 55, 0
4, 48480, Note_on_c, 0, 51, 86
4, 48600, Note_on_c, 0, 51, 0
4, 48600, Note_on_c, 0, 52, 86
4, 48720, Note_on_c, 0, 52, 0
4, 48720, Note_on_c, 0, 54, 86
4, 48743, Note_on_c, 0, 54, 0
4, 48840, Note_on_c, 0, 55, 86
4, 48863, Note_on_c, 0, 55, 0
4, 48960, Note_on_c, 0, 51, 86
4, 49080, Note_on_c, 0, 51, 0
4, 49080, Note_on_c, 0, 52, 86
4, 49200, Note_on_c, 0, 52, 0
4, 49200, Note_on_c, 0, 54, 86
4, 49223, Note_on_c, 0, 54, 0
4, 49320, Note_on_c, 0, 55, 86
4, 49343, Note_on_c, 0, 55, 0
4, 49440, Note_on_c, 0, 51, 86
4, 49560, Note_on_c, 0, 51, 0
4, 49560, Note_on_c, 0, 52, 86
4, 49680, Note_on_c, 0, 52, 0
4, 49680, Note_on_c, 0, 54, 86
4, 49703, Note_on_c, 0, 54, 0
4, 49800, Note_on_c, 0, 55, 86
4, 49823, Note_on_c, 0, 55, 0
4, 49920, Note_on_c, 0, 46, 34
4, 49920, Note_on_c, 0, 52, 34
4, 49920, Note_on_c, 0, 55, 34
4, 49920, Note_on_c, 0, 60, 34
4, 50160, Note_on_c, 0, 60, 0
4, 50160, Note_on_c, 0, 46, 0
4, 50160, Note_on_c, 0, 52, 0
4, 50160, Note_on_c, 0, 55, 0
4, 50160, Note_on_c, 0, 58, 34
4, 50160, Note_on_c, 0, 60, 34
4, 50400, Note_on_c, 0, 60, 0
4, 50400, Note_on_c, 0, 58, 0
4, 50400, Note_on_c, 0, 47, 34
4, 50400, Note_on_c, 0, 50, 34
4, 50400, Note_on_c, 0, 53, 34
4, 50400, Note_on_c, 0, 59, 34
4, 50640, Note_on_c, 0, 59, 0
4, 50640, Note_on_c, 0, 47, 0
4, 50640, Note_on_c, 0, 50, 0
4, 50640, Note_on_c, 0, 53, 0
4, 50640, Note_on_c, 0, 59, 34
4, 50880, Note_on_c, 0, 59, 0
4, 50880, Note_on_c, 0, 47, 34
4, 50880, Note_on_c, 0, 52, 34
4, 50880, Note_on_c, 0, 55, 34
4, 50880, Note_on_c, 0, 64, 34
4, 51120, Note_on_c, 0, 64, 0
4, 51120, Note_on_c, 0, 47, 0
4, 51120, Note_on_c, 0, 52, 0
4, 51120, Note_on_c, 0, 55, 0
4, 51120, Note_on_c, 0, 59, 34
4, 51120, Note_on_c, 0, 64, 34
4, 51360, Note_on_c, 0, 64, 0
4, 51360, Note_on_c, 0, 59, 0
4, 51360, Note_on_c, 0, 48, 47
4, 51360, Note_on_c, 0, 52, 47
4, 51360, Note_on_c, 0, 55, 47
4, 51360, Note_on_c, 0, 64, 47
4, 51600, Note_on_c, 0, 64, 0
4, 51600, Note_on_c, 0, 48, 0
4, 51600, Note_on_c, 0, 52, 0
4, 51600, Note_on_c, 0, 55, 0
4, 51600, Note_on_c, 0, 60, 47
4, 51600, Note_on_c, 0, 64, 47
4, 51840, Note_on_c, 0, 64, 0
4, 51840, Note_on_c, 0, 60, 0
4, 51840, Note_on_c, 0, 48, 47
4, 51840, Note_on_c, 0, 55, 47
4, 51840, Note_on_c, 0, 58, 47
4, 51840, Note_on_c, 0, 64, 47
4, 52080, Note_on_c, 0, 64, 0
4, 52080, Note_on_c, 0, 48, 0
4, 52080, Note_on_c, 0, 55, 0
4, 52080, Note_on_c, 0, 58, 0
4, 52080, Note_on_c, 0, 60, 47
4, 52080, Note_on_c, 0, 64, 47
4, 52320, Note_on_c, 0, 64, 0
4, 52320, Note_on_c, 0, 60, 0
4, 52320, Note_on_c, 0, 49, 47
4, 52320, Note_on_c, 0, 55, 47
4, 52320, Note_on_c, 0, 58, 47
4, 52320, Note_on_c, 0, 63, 47
4, 52560, Note_on_c, 0, 63, 0
4, 52560, Note_on_c, 0, 49, 0
4, 52560, Note_on_c, 0, 55, 0
4, 52560, Note_on_c, 0, 58, 0
4, 52560, Note_on_c, 0, 61, 47
4, 52560, Note_on_c, 0, 63, 47
4, 52800, Note_on_c, 0, 63, 0
4, 52800, Note_on_c, 0, 61, 0
4, 52800, Note_on_c, 0, 49, 60
4, 52800, Note_on_c, 0, 55, 60
4, 52800, Note_on_c, 0, 58, 60
4, 52800, Note_on_c, 0, 63, 60
4, 53040, Note_on_c, 0, 63, 0
4, 53040, Note_on_c, 0, 49, 0
4, 53040, Note_on_c, 0, 55, 0
4, 53040, Note_on_c, 0, 58, 0
4, 53040, Note_on_c, 0, 61, 60
4, 53040, Note_on_c, 0, 63, 60
4, 53280, Note_on_c, 0, 63, 0
4, 53280, Note_on_c, 0, 61, 0
4, 53280, Note_on_c, 0, 50, 60
4, 53280, Note_on_c, 0, 55, 60
4, 53280, Note_on_c, 0, 58, 60
4, 53280, Note_on_c, 0, 62, 60
4, 53520, Note_on_c, 0, 62, 0
4, 53520, Note_on_c, 0, 50, 0
4, 53520, Note_on_c, 0, 55, 0
4, 53520, Note_on_c, 0, 58, 0
4, 53520, Note_on_c, 0, 62, 60
4, 53760, Note_on_c, 0, 62, 0
4, 53760, Note_on_c, 0, 51, 86
4, 53840, Note_on_c, 0, 51, 0
4, 53840, Note_on_c, 0, 52, 86
4, 53919, Note_on_c, 0, 52, 0
4, 53919, Note_on_c, 0, 54, 86
4, 54000, Note_on_c, 0, 54, 0
4, 54000, Note_on_c, 0, 55, 86
4, 54240, Note_on_c, 0, 55, 0
4, 54240, Note_on_c, 0, 51, 86
4, 54320, Note_on_c, 0, 51, 0
4, 54320, Note_on_c, 0, 52, 86
4, 54399, Note_on_c, 0, 52, 0
4, 54399, Note_on_c, 0, 54, 86
4, 54480, Note_on_c, 0, 54, 0
4, 54480, Note_on_c, 0, 55, 86
4, 54720, Note_on_c, 0, 55, 0
4, 54720, Note_on_c, 0, 51, 86
4, 54800, Note_on_c, 0, 51, 0
4, 54800, Note_on_c, 0, 52, 86
4, 54879, Note_on_c, 0, 52, 0
4, 54879, Note_on_c, 0, 54, 86
4, 54960, Note_on_c, 0, 54, 0
4, 54960, Note_on_c, 0, 55, 86
4, 55200, Note_on_c, 0, 55, 0
4, 55200, Note_on_c, 0, 51, 86
4, 55280, Note_on_c, 0, 51, 0
4, 55280, Note_on_c, 0, 52, 86
4, 55359, Note_on_c, 0, 52, 0
4, 55359, Note_on_c, 0, 54, 86
4, 55440, Note_on_c, 0, 54, 0
4, 55440, Note_on_c, 0, 55, 86
4, 55680, Note_on_c, 0, 55, 0
4, 55680, Note_on_c, 0, 51, 86
4, 55760, Note_on_c, 0, 51, 0
4, 55760, Note_on_c, 0, 52, 86
4, 55839, Note_on_c, 0, 52, 0
4, 55839, Note_on_c, 0, 54, 86
4, 55920, Note_on_c, 0, 54, 0
4, 55920, Note_on_c, 0, 55, 86
4, 56160, Note_on_c, 0, 55, 0
4, 56160, Note_on_c, 0, 51, 86
4, 56240, Note_on_c, 0, 51, 0
4, 56240, Note_on_c, 0, 52, 86
4, 56319, Note_on_c, 0, 52, 0
4, 56319, Note_on_c, 0, 54, 86
4, 56400, Note_on_c, 0, 54, 0
4, 56400, Note_on_c, 0, 55, 86
4, 56640, Note_on_c, 0, 55, 0
4, 56640, Note_on_c, 0, 51, 86
4, 56720, Note_on_c, 0, 51, 0
4, 56720, Note_on_c, 0, 52, 86
4, 56799, Note_on_c, 0, 52, 0
4, 56799, Note_on_c, 0, 54, 86
4, 56880, Note_on_c, 0, 54, 0
4, 56880, Note_on_c, 0, 55, 86
4, 57120, Note_on_c, 0, 55, 0
4, 57120, Note_on_c, 0, 51, 86
4, 57200, Note_on_c, 0, 51, 0
4, 57200, Note_on_c, 0, 52, 86
4, 57279, Note_on_c, 0, 52, 0
4, 57279, Note_on_c, 0, 54, 86
4, 57360, Note_on_c, 0, 54, 0
4, 57360, Note_on_c, 0, 55, 86
4, 57600, Note_on_c, 0, 55, 0
4, 57600, Note_on_c, 0, 51, 86
4, 57680, Note_on_c, 0, 51, 0
4, 57680, Note_on_c, 0, 52, 86
4, 57759, Note_on_c, 0, 52, 0
4, 57759, Note_on_c, 0, 54, 86
4, 57840, Note_on_c, 0, 54, 0
4, 57840, Note_on_c, 0, 55, 86
4, 58080, Note_on_c, 0, 55, 0
4, 58080, Note_on_c, 0, 51, 86
4, 58160, Note_on_c, 0, 51, 0
4, 58160, Note_on_c, 0, 52, 86
4, 58239, Note_on_c, 0, 52, 0
4, 58239, Note_on_c, 0, 54, 86
4, 58320, Note_on_c, 0, 54, 0
4, 58320, Note_on_c, 0, 55, 86
4, 58560, Note_on_c, 0, 55, 0
4, 58560, Note_on_c, 0, 51, 86
4, 58640, Note_on_c, 0, 51, 0
4, 58640, Note_on_c, 0, 52, 86
4, 58719, Note_on_c, 0, 52, 0
4, 58719, Note_on_c, 0, 54, 86
4, 58800, Note_on_c, 0, 54, 0
4, 58800, Note_on_c, 0, 55, 86
4, 59040, Note_on_c, 0, 55, 0
4, 59040, Note_on_c, 0, 51, 86
4, 59120, Note_on_c, 0, 51, 0
4, 59120, Note_on_c, 0, 52, 86
4, 59199, Note_on_c, 0, 52, 0
4, 59199, Note_on_c, 0, 54, 86
4, 59280, Note_on_c, 0, 54, 0
4, 59280, Note_on_c, 0, 55, 86
4, 59520, Note_on_c, 0, 55, 0
4, 59520, Note_on_c, 0, 51, 86
4, 59600, Note_on_c, 0, 51, 0
4, 59600, Note_on_c, 0, 52, 86
4, 59679, Note_on_c, 0, 52, 0
4, 59679, Note_on_c, 0, 54, 86
4, 59760, Note_on_c, 0, 54, 0
4, 59760, Note_on_c, 0, 55, 86
4, 60000, Note_on_c, 0, 55, 0
4, 60000, Note_on_c, 0, 51, 86
4, 60080, Note_on_c, 0, 51, 0
4, 60080, Note_on_c, 0, 52, 86
4, 60159, Note_on_c, 0, 52, 0
4, 60159, Note_on_c, 0, 54, 86
4, 60240, Note_on_c, 0, 54, 0
4, 60240, Note_on_c, 0, 55, 86
4, 60480, Note_on_c, 0, 55, 0
4, 60480, Note_on_c, 0, 51, 86
4, 60560, Note_on_c, 0, 51, 0
4, 60560, Note_on_c, 0, 52, 86
4, 60639, Note_on_c, 0, 52, 0
4, 60639, Note_on_c, 0, 54, 86
4, 60720, Note_on_c, 0, 54, 0
4, 60720, Note_on_c, 0, 55, 86
4, 60960, Note_on_c, 0, 55, 0
4, 60960, Note_on_c, 0, 51, 86
4, 61040, Note_on_c, 0, 51, 0
4, 61040, Note_on_c, 0, 52, 86
4, 61119, Note_on_c, 0, 52, 0
4, 61119, Note_on_c, 0, 54, 86
4, 61200, Note_on_c, 0, 54, 0
4, 61200, Note_on_c, 0, 55, 86
4, 61440, Note_on_c, 0, 55, 0
4, 61440, Note_on_c, 0, 51, 86
4, 61520, Note_on_c, 0, 51, 0
4, 61520, Note_on_c, 0, 52, 86
4, 61599, Note_on_c, 0, 52, 0
4, 61599, Note_on_c, 0, 54, 86
4, 61680, Note_on_c, 0, 54, 0
4, 61680, Note_on_c, 0, 55, 86
4, 61920, Note_on_c, 0, 55, 0
4, 61920, Note_on_c, 0, 51, 86
4, 62000, Note_on_c, 0, 51, 0
4, 62000, Note_on_c, 0, 52, 86
4, 62079, Note_on_c, 0, 52, 0
4, 62079, Note_on_c, 0, 54, 86
4, 62160, Note_on_c, 0, 54, 0
4, 62160, Note_on_c, 0, 55, 86
4, 62400, Note_on_c, 0, 55, 0
4, 62400, Note_on_c, 0, 51, 86
4, 62480, Note_on_c, 0, 51, 0
4, 62480, Note_on_c, 0, 52, 86
4, 62559, Note_on_c, 0, 52, 0
4, 62559, Note_on_c, 0, 54, 86
4, 62640, Note_on_c, 0, 54, 0
4, 62640, Note_on_c, 0, 55, 86
4, 62880, Note_on_c, 0, 55, 0
4, 62880, Note_on_c, 0, 51, 86
4, 62960, Note_on_c, 0, 51, 0
4, 62960, Note_on_c, 0, 52, 86
4, 63039, Note_on_c, 0, 52, 0
4, 63039, Note_on_c, 0, 54, 86
4, 63120, Note_on_c, 0, 54, 0
4, 63120, Note_on_c, 0, 55, 86
4, 63360, Note_on_c, 0, 55, 0
4, 63360, Note_on_c, 0, 51, 86
4, 63440, Note_on_c, 0, 51, 0
4, 63440, Note_on_c, 0, 52, 86
4, 63519, Note_on_c, 0, 52, 0
4, 63519, Note_on_c, 0, 54, 86
4, 63600, Note_on_c, 0, 54, 0
4, 63600, Note_on_c, 0, 55, 86
4, 63840, Note_on_c, 0, 55, 0
4, 63840, Note_on_c, 0, 51, 86
4, 63920, Note_on_c, 0, 51, 0
4, 63920, Note_on_c, 0, 52, 86
4, 63999, Note_on_c, 0, 52, 0
4, 63999, Note_on_c, 0, 54, 86
4, 64080, Note_on_c, 0, 54, 0
4, 64080, Note_on_c, 0, 55, 86
4, 64320, Note_on_c, 0, 55, 0
4, 64320, Note_on_c, 0, 51, 86
4, 64400, Note_on_c, 0, 51, 0
4, 64400, Note_on_c, 0, 52, 86
4, 64479, Note_on_c, 0, 52, 0
4, 64479, Note_on_c, 0, 54, 86
4, 64560, Note_on_c, 0, 54, 0
4, 64560, Note_on_c, 0, 55, 86
4, 64800, Note_on_c, 0, 55, 0
4, 64800, Note_on_c, 0, 55, 112
4, 64800, Note_on_c, 0, 58, 112
4, 64800, Note_on_c, 0, 62, 112
4, 65280, Note_on_c, 0, 62, 0
4, 65280, Note_on_c, 0, 58, 0
4, 65280, Note_on_c, 0, 55, 0
4, 65280, End_track
5, 0, Start_track
5, 0, Title_t, "Grand Piano"
5, 0, Program_c, 0, 0
5, 0, Control_c, 0, 7, 115
5, 0, Control_c, 0, 10, 47
5, 32640, Note_on_c, 0, 39, 68
5, 32640, Note_on_c, 0, 43, 68
5, 33360, Note_on_c, 0, 43, 0
5, 33360, Note_on_c, 0, 39, 0
5, 33600, Note_on_c, 0, 39, 68
5, 33600, Note_on_c, 0, 43, 68
5, 34320, Note_on_c, 0, 43, 0
5, 34320, Note_on_c, 0, 39, 0
5, 36480, Note_on_c, 0, 39, 68
5, 36480, Note_on_c, 0, 43, 68
5, 37200, Note_on_c, 0, 43, 0
5, 37200, Note_on_c, 0, 39, 0
5, 37440, Note_on_c, 0, 39, 68
5, 37440, Note_on_c, 0, 43, 68
5, 38160, Note_on_c, 0, 43, 0
5, 38160, Note_on_c, 0, 39, 0
5, 38400, Note_on_c, 0, 39, 68
5, 38400, Note_on_c, 0, 43, 68
5, 39360, Note_on_c, 0, 43, 0
5, 39360, Note_on_c, 0, 39, 0
5, 39360, Note_on_c, 0, 39, 68
5, 39360, Note_on_c, 0, 43, 68
5, 40320, Note_on_c, 0, 43, 0
5, 40320, Note_on_c, 0, 39, 0
5, 40320, Note_on_c, 0, 39, 94
5, 40320, Note_on_c, 0, 43, 94
5, 40800, Note_on_c, 0, 43, 0
5, 40800, Note_on_c, 0, 39, 0
5, 40800, Note_on_c, 0, 39, 94
5, 40800, Note_on_c, 0, 43, 94
5, 41280, Note_on_c, 0, 43, 0
5, 41280, Note_on_c, 0, 39, 0
5, 41280, Note_on_c, 0, 39, 94
5, 41280, Note_on_c, 0, 43, 94
5, 41760, Note_on_c, 0, 43, 0
5, 41760, Note_on_c, 0, 39, 0
5, 41760, Note_on_c, 0, 39, 94
5, 41760, Note_on_c, 0, 43, 94
5, 42240, Note_on_c, 0, 43, 0
5, 42240, Note_on_c, 0, 39, 0
5, 44160, Note_on_c, 0, 42, 94
5, 44160, Note_on_c, 0, 46, 94
5, 44640, Note_on_c, 0, 46, 0
5, 44640, Note_on_c, 0, 42, 0
5, 44640, Note_on_c, 0, 42, 94
5, 44640, Note_on_c, 0, 46, 94
5, 45120, Note_on_c, 0, 46, 0
5, 45120, Note_on_c, 0, 42, 0
5, 45120, Note_on_c, 0, 42, 94
5, 45120, Note_on_c, 0, 46, 94
5, 45600, Note_on_c, 0, 46, 0
5, 45600, Note_on_c, 0, 42, 0
5, 45600, Note_on_c, 0, 42, 94
5, 45600, Note_on_c, 0, 46, 94
5, 46080, Note_on_c, 0, 46, 0
5, 46080, Note_on_c, 0, 42, 0
5, 48000, Note_on_c, 0, 45, 94
5, 48000, Note_on_c, 0, 49, 94
5, 48480, Note_on_c, 0, 49, 0
5, 48480, Note_on_c, 0, 45, 0
5, 48480, Note_on_c, 0, 45, 94
5, 48480, Note_on_c, 0, 49, 94
5, 48960, Note_on_c, 0, 49, 0
5, 48960, Note_on_c, 0, 45, 0
5, 48960, Note_on_c, 0, 45, 94
5, 48960, Note_on_c, 0, 49, 94
5, 49440, Note_on_c, 0, 49, 0
5, 49440, Note_on_c, 0, 45, 0
5, 49440, Note_on_c, 0, 45, 94
5, 49440, Note_on_c, 0, 49, 94
5, 49920, Note_on_c, 0, 49, 0
5, 49920, Note_on_c, 0, 45, 0
5, 53760, Note_on_c, 0, 43, 68
5, 54000, Note_on_c, 0, 43, 0
5, 54000, Note_on_c, 0, 43, 68
5, 54240, Note_on_c, 0, 43, 0
5, 54240, Note_on_c, 0, 43, 68
5, 54480, Note_on_c, 0, 43, 0
5, 54480, Note_on_c, 0, 43, 68
5, 54720, Note_on_c, 0, 43, 0
5, 54720, Note_on_c, 0, 43, 68
5, 54960, Note_on_c, 0, 43, 0
5, 54960, Note_on_c, 0, 43, 68
5, 55200, Note_on_c, 0, 43, 0
5, 55200, Note_on_c, 0, 43, 68
5, 55440, Note_on_c, 0, 43, 0
5, 55440, Note_on_c, 0, 43, 68
5, 55680, Note_on_c, 0, 43, 0
5, 55680, Note_on_c, 0, 43, 68
5, 55920, Note_on_c, 0, 43, 0
5, 55920, Note_on_c, 0, 43, 68
5, 56160, Note_on_c, 0, 43, 0
5, 56160, Note_on_c, 0, 43, 68
5, 56400, Note_on_c, 0, 43, 0
5, 56400, Note_on_c, 0, 43, 68
5, 56640, Note_on_c, 0, 43, 0
5, 56640, Note_on_c, 0, 43, 68
5, 56880, Note_on_c, 0, 43, 0
5, 56880, Note_on_c, 0, 43, 68
5, 57120, Note_on_c, 0, 43, 0
5, 57120, Note_on_c, 0, 43, 68
5, 57360, Note_on_c, 0, 43, 0
5, 57360, Note_on_c, 0, 43, 68
5, 57600, Note_on_c, 0, 43, 0
5, 57600, Note_on_c, 0, 43, 68
5, 57840, Note_on_c, 0, 43, 0
5, 57840, Note_on_c, 0, 43, 68
5, 58080, Note_on_c, 0, 43, 0
5, 58080, Note_on_c, 0, 43, 68
5, 58320, Note_on_c, 0, 43, 0
5, 58320, Note_on_c, 0, 43, 68
5, 58560, Note_on_c, 0, 43, 0
5, 58560, Note_on_c, 0, 43, 68
5, 58800, Note_on_c, 0, 43, 0
5, 58800, Note_on_c, 0, 43, 68
5, 59040, Note_on_c, 0, 43, 0
5, 59040, Note_on_c, 0, 43, 68
5, 59280, Note_on_c, 0, 43, 0
5, 59280, Note_on_c, 0, 43, 68
5, 59520, Note_on_c, 0, 43, 0
5, 59520, Note_on_c, 0, 43, 68
5, 59760, Note_on_c, 0, 43, 0
5, 59760, Note_on_c, 0, 43, 68
5, 60000, Note_on_c, 0, 43, 0
5, 60000, Note_on_c, 0, 43, 68
5, 60240, Note_on_c, 0, 43, 0
5, 60240, Note_on_c, 0, 43, 68
5, 60480, Note_on_c, 0, 43, 0
5, 60480, Note_on_c, 0, 43, 68
5, 60720, Note_on_c, 0, 43, 0
5, 60720, Note_on_c, 0, 43, 68
5, 60960, Note_on_c, 0, 43, 0
5, 60960, Note_on_c, 0, 43, 68
5, 61200, Note_on_c, 0, 43, 0
5, 61200, Note_on_c, 0, 43, 68
5, 61440, Note_on_c, 0, 43, 0
5, 61440, Note_on_c, 0, 43, 68
5, 61680, Note_on_c, 0, 43, 0
5, 61680, Note_on_c, 0, 43, 68
5, 61920, Note_on_c, 0, 43, 0
5, 61920, Note_on_c, 0, 43, 68
5, 62160, Note_on_c, 0, 43, 0
5, 62160, Note_on_c, 0, 43, 68
5, 62400, Note_on_c, 0, 43, 0
5, 62400, Note_on_c, 0, 43, 68
5, 62640, Note_on_c, 0, 43, 0
5, 62640, Note_on_c, 0, 43, 68
5, 62880, Note_on_c, 0, 43, 0
5, 62880, Note_on_c, 0, 43, 68
5, 63120, Note_on_c, 0, 43, 0
5, 63120, Note_on_c, 0, 43, 68
5, 63360, Note_on_c, 0, 43, 0
5, 63360, Note_on_c, 0, 43, 68
5, 63600, Note_on_c, 0, 43, 0
5, 63600, Note_on_c, 0, 43, 68
5, 63840, Note_on_c, 0, 43, 0
5, 63840, Note_on_c, 0, 43, 68
5, 64080, Note_on_c, 0, 43, 0
5, 64080, Note_on_c, 0, 43, 68
5, 64320, Note_on_c, 0, 43, 0
5, 64320, Note_on_c, 0, 43, 68
5, 64560, Note_on_c, 0, 43, 0
5, 64560, Note_on_c, 0, 43, 68
5, 64800, Note_on_c, 0, 43, 0
5, 64800, End_track
0, 0, End_of_file
