0, 0, Header, 1, 5, 480
1, 0, Start_track
1, 0, Title_t, "tchaikovsky sleeping beauty act3 26b cendrillon et le prince fortune"
1, 0, Copyright_t, "Adaptation for Disklavier pianos, by: Robert C. Kuhmann (c) 2012."
1, 0, Text_t, "Seq. (c) by: Segundo G. Yogore,  2007\012"
1, 0, Time_signature, 2, 2, 24, 8
1, 0, Key_signature, -2, "major"
1, 0, Tempo, 428571
1, 62640, Tempo, 437956
1, 62880, Tempo, 447761
1, 63120, Tempo, 458015
1, 63360, Tempo, 472441
1, 63600, Tempo, 483871
1, 63840, Tempo, 495868
1, 64080, Tempo, 508475
1, 64320, Tempo, 526316
1, 65280, Time_signature, 3, 2, 24, 8
1, 65280, Tempo, 352941
1, 66720, Tempo, 352941
1, 76800, Tempo, 352941
1, 78240, Tempo, 352941
1, 156000, Time_signature, 5, 2, 24, 8
1, 158400, Time_signature, 3, 2, 24, 8
1, 158400, Tempo, 300000
1, 203040, Tempo, 285714
1, 211680, Tempo, 272727
1, 214560, Time_signature, 8, 2, 24, 8
1, 214560, End_track
2, 0, Start_track
2, 0, Title_t, "Grand Piano"
2, 0, Program_c, 0, 0
2, 0, Control_c, 0, 7, 115
2, 0, Control_c, 0, 10, 86
2, 480, Note_on_c, 0, 63, 75
2, 480, Note_on_c, 0, 67, 75
2, 1200, Note_on_c, 0, 67, 0
2, 1200, Note_on_c, 0, 63, 0
2, 1440, Note_on_c, 0, 63, 75
2, 1440, Note_on_c, 0, 67, 75
2, 2160, Note_on_c, 0, 67, 0
2, 2160, Note_on_c, 0, 63, 0
2, 2400, Note_on_c, 0, 63, 75
2, 2400, Note_on_c, 0, 67, 75
2, 3120, Note_on_c, 0, 67, 0
2, 3120, Note_on_c, 0, 63, 0
2, 3480, Note_on_c, 0, 67, 62
2, 3600, Note_on_c, 0, 67, 0
2, 3600, Note_on_c, 0, 69, 62
2, 3720, Note_on_c, 0, 69, 0
2, 3720, Note_on_c, 0, 70, 62
2, 3840, Note_on_c, 0, 70, 0
2, 3840, Note_on_c, 0, 71, 75
2, 3960, Note_on_c, 0, 71, 0
2, 3960, Note_on_c, 0, 67, 75
2, 4080, Note_on_c, 0, 67, 0
2, 4080, Note_on_c, 0, 67, 75
2, 4200, Note_on_c, 0, 67, 0
2, 4200, Note_on_c, 0, 59, 75
2, 4320, Note_on_c, 0, 59, 0
2, 4320, Note_on_c, 0, 59, 62
2, 4440, Note_on_c, 0, 59, 0
2, 4440, Note_on_c, 0, 67, 62
2, 4560, Note_on_c, 0, 67, 0
2, 4560, Note_on_c, 0, 69, 62
2, 4680, Note_on_c, 0, 69, 0
2, 4680, Note_on_c, 0, 71, 62
2, 4800, Note_on_c, 0, 71, 0
2, 4800, Note_on_c, 0, 72, 75
2, 4920, Note_on_c, 0, 72, 0
2, 4920, Note_on_c, 0, 67, 75
2, 5040, Note_on_c, 0, 67, 0
2, 5040, Note_on_c, 0, 67, 75
2, 5160, Note_on_c, 0, 67, 0
2, 5160, Note_on_c, 0, 60, 75
2, 5280, Note_on_c, 0, 60, 0
2, 5280, Note_on_c, 0, 60, 62
2, 5400, Note_on_c, 0, 60, 0
2, 5400, Note_on_c, 0, 67, 62
2, 5520, Note_on_c, 0, 67, 0
2, 5520, Note_on_c, 0, 69, 62
2, 5640, Note_on_c, 0, 69, 0
2, 5640, Note_on_c, 0, 70, 62
2, 5760, Note_on_c, 0, 70, 0
2, 5760, Note_on_c, 0, 71, 75
2, 5880, Note_on_c, 0, 71, 0
2, 5880, Note_on_c, 0, 67, 75
2, 6000, Note_on_c, 0, 67, 0
2, 6000, Note_on_c, 0, 67, 75
2, 6120, Note_on_c, 0, 67, 0
2, 6120, Note_on_c, 0, 59, 75
2, 6240, Note_on_c, 0, 59, 0
2, 6240, Note_on_c, 0, 59, 62
2, 6360, Note_on_c, 0, 59, 0
2, 6360, Note_on_c, 0, 67, 62
2, 6480, Note_on_c, 0, 67, 0
2, 6480, Note_on_c, 0, 69, 62
2, 6600, Note_on_c, 0, 69, 0
2, 6600, Note_on_c, 0, 71, 62
2, 6720, Note_on_c, 0, 71, 0
2, 6720, Note_on_c, 0, 72, 75
2, 6840, Note_on_c, 0, 72, 0
2, 6840, Note_on_c, 0, 67, 75
2, 6960, Note_on_c, 0, 67, 0
2, 6960, Note_on_c, 0, 67, 75
2, 7080, Note_on_c, 0, 67, 0
2, 7080, Note_on_c, 0, 60, 75
2, 7200, Note_on_c, 0, 60, 0
2, 7200, Note_on_c, 0, 60, 62
2, 7320, Note_on_c, 0, 60, 0
2, 7320, Note_on_c, 0, 67, 62
2, 7440, Note_on_c, 0, 67, 0
2, 7440, Note_on_c, 0, 69, 62
2, 7560, Note_on_c, 0, 69, 0
2, 7560, Note_on_c, 0, 70, 62
2, 7680, Note_on_c, 0, 70, 0
2, 7680, Note_on_c, 0, 65, 75
2, 7680, Note_on_c, 0, 67, 75
2, 7680, Note_on_c, 0, 71, 75
2, 7920, Note_on_c, 0, 71, 0
2, 7920, Note_on_c, 0, 67, 0
2, 7920, Note_on_c, 0, 65, 0
2, 7920, Note_on_c, 0, 67, 75
2, 8040, Note_on_c, 0, 67, 0
2, 8040, Note_on_c, 0, 71, 75
2, 8160, Note_on_c, 0, 71, 0
2, 8160, Note_on_c, 0, 65, 75
2, 8160, Note_on_c, 0, 67, 75
2, 8160, Note_on_c, 0, 72, 75
2, 8400, Note_on_c, 0, 72, 0
2, 8400, Note_on_c, 0, 67, 0
2, 8400, Note_on_c, 0, 65, 0
2, 8400, Note_on_c, 0, 67, 75
2, 8520, Note_on_c, 0, 67, 0
2, 8520, Note_on_c, 0, 72, 75
2, 8640, Note_on_c, 0, 72, 0
2, 8640, Note_on_c, 0, 65, 75
2, 8640, Note_on_c, 0, 67, 75
2, 8640, Note_on_c, 0, 74, 75
2, 8880, Note_on_c, 0, 74, 0
2, 8880, Note_on_c, 0, 67, 0
2, 8880, Note_on_c, 0, 65, 0
2, 8880, Note_on_c, 0, 67, 75
2, 9000, Note_on_c, 0, 67, 0
2, 9000, Note_on_c, 0, 74, 75
2, 9120, Note_on_c, 0, 74, 0
2, 9120, Note_on_c, 0, 65, 88
2, 9120, Note_on_c, 0, 67, 88
2, 9120, Note_on_c, 0, 75, 88
2, 9360, Note_on_c, 0, 75, 0
2, 9360, Note_on_c, 0, 67, 0
2, 9360, Note_on_c, 0, 65, 0
2, 9360, Note_on_c, 0, 67, 88
2, 9480, Note_on_c, 0, 67, 0
2, 9480, Note_on_c, 0, 75, 88
2, 9600, Note_on_c, 0, 75, 0
2, 9600, Note_on_c, 0, 65, 88
2, 9600, Note_on_c, 0, 67, 88
2, 9600, Note_on_c, 0, 74, 88
2, 9840, Note_on_c, 0, 74, 0
2, 9840, Note_on_c, 0, 67, 0
2, 9840, Note_on_c, 0, 65, 0
2, 9840, Note_on_c, 0, 67, 88
2, 9960, Note_on_c, 0, 67, 0
2, 9960, Note_on_c, 0, 74, 88
2, 10080, Note_on_c, 0, 74, 0
2, 10080, Note_on_c, 0, 65, 75
2, 10080, Note_on_c, 0, 67, 75
2, 10080, Note_on_c, 0, 72, 75
2, 10320, Note_on_c, 0, 72, 0
2, 10320, Note_on_c, 0, 67, 0
2, 10320, Note_on_c, 0, 65, 0
2, 10320, Note_on_c, 0, 67, 75
2, 10440, Note_on_c, 0, 67, 0
2, 10440, Note_on_c, 0, 72, 75
2, 10560, Note_on_c, 0, 72, 0
2, 10560, Note_on_c, 0, 71, 75
2, 10680, Note_on_c, 0, 71, 0
2, 10680, Note_on_c, 0, 67, 75
2, 10800, Note_on_c, 0, 67, 0
2, 10800, Note_on_c, 0, 67, 75
2, 11040, Note_on_c, 0, 59, 75
2, 11160, Note_on_c, 0, 59, 0
2, 11160, Note_on_c, 0, 67, 0
2, 11160, Note_on_c, 0, 67, 75
2, 11280, Note_on_c, 0, 67, 0
2, 11280, Note_on_c, 0, 69, 75
2, 11400, Note_on_c, 0, 69, 0
2, 11400, Note_on_c, 0, 70, 75
2, 11520, Note_on_c, 0, 70, 0
2, 11520, Note_on_c, 0, 71, 75
2, 11640, Note_on_c, 0, 71, 0
2, 11640, Note_on_c, 0, 67, 75
2, 11760, Note_on_c, 0, 67, 0
2, 11760, Note_on_c, 0, 67, 75
2, 11880, Note_on_c, 0, 67, 0
2, 11880, Note_on_c, 0, 59, 75
2, 12000, Note_on_c, 0, 59, 0
2, 12000, Note_on_c, 0, 59, 62
2, 12120, Note_on_c, 0, 59, 0
2, 12120, Note_on_c, 0, 67, 62
2, 12240, Note_on_c, 0, 67, 0
2, 12240, Note_on_c, 0, 69, 62
2, 12360, Note_on_c, 0, 69, 0
2, 12360, Note_on_c, 0, 71, 62
2, 12480, Note_on_c, 0, 71, 0
2, 12480, Note_on_c, 0, 72, 75
2, 12600, Note_on_c, 0, 72, 0
2, 12600, Note_on_c, 0, 67, 75
2, 12720, Note_on_c, 0, 67, 0
2, 12720, Note_on_c, 0, 67, 75
2, 12840, Note_on_c, 0, 67, 0
2, 12840, Note_on_c, 0, 60, 75
2, 12960, Note_on_c, 0, 60, 0
2, 12960, Note_on_c, 0, 60, 62
2, 13080, Note_on_c, 0, 60, 0
2, 13080, Note_on_c, 0, 67, 62
2, 13200, Note_on_c, 0, 67, 0
2, 13200, Note_on_c, 0, 69, 62
2, 13320, Note_on_c, 0, 69, 0
2, 13320, Note_on_c, 0, 70, 62
2, 13440, Note_on_c, 0, 70, 0
2, 13440, Note_on_c, 0, 71, 75
2, 13560, Note_on_c, 0, 71, 0
2, 13560, Note_on_c, 0, 67, 75
2, 13680, Note_on_c, 0, 67, 0
2, 13680, Note_on_c, 0, 67, 75
2, 13800, Note_on_c, 0, 67, 0
2, 13800, Note_on_c, 0, 59, 75
2, 13920, Note_on_c, 0, 59, 0
2, 13920, Note_on_c, 0, 59, 62
2, 14040, Note_on_c, 0, 59, 0
2, 14040, Note_on_c, 0, 67, 62
2, 14160, Note_on_c, 0, 67, 0
2, 14160, Note_on_c, 0, 69, 62
2, 14280, Note_on_c, 0, 69, 0
2, 14280, Note_on_c, 0, 71, 62
2, 14400, Note_on_c, 0, 71, 0
2, 14400, Note_on_c, 0, 72, 75
2, 14520, Note_on_c, 0, 72, 0
2, 14520, Note_on_c, 0, 67, 75
2, 14640, Note_on_c, 0, 67, 0
2, 14640, Note_on_c, 0, 67, 75
2, 14760, Note_on_c, 0, 67, 0
2, 14760, Note_on_c, 0, 60, 75
2, 14880, Note_on_c, 0, 60, 0
2, 14880, Note_on_c, 0, 60, 62
2, 15000, Note_on_c, 0, 60, 0
2, 15000, Note_on_c, 0, 67, 62
2, 15120, Note_on_c, 0, 67, 0
2, 15120, Note_on_c, 0, 69, 62
2, 15240, Note_on_c, 0, 69, 0
2, 15240, Note_on_c, 0, 70, 62
2, 15360, Note_on_c, 0, 70, 0
2, 15360, Note_on_c, 0, 65, 75
2, 15360, Note_on_c, 0, 67, 75
2, 15360, Note_on_c, 0, 71, 75
2, 15600, Note_on_c, 0, 71, 0
2, 15600, Note_on_c, 0, 67, 0
2, 15600, Note_on_c, 0, 65, 0
2, 15600, Note_on_c, 0, 67, 75
2, 15720, Note_on_c, 0, 67, 0
2, 15720, Note_on_c, 0, 71, 75
2, 15840, Note_on_c, 0, 71, 0
2, 15840, Note_on_c, 0, 63, 75
2, 15840, Note_on_c, 0, 67, 75
2, 15840, Note_on_c, 0, 72, 75
2, 16080, Note_on_c, 0, 72, 0
2, 16080, Note_on_c, 0, 67, 0
2, 16080, Note_on_c, 0, 63, 0
2, 16080, Note_on_c, 0, 67, 75
2, 16200, Note_on_c, 0, 67, 0
2, 16200, Note_on_c, 0, 72, 75
2, 16320, Note_on_c, 0, 72, 0
2, 16320, Note_on_c, 0, 62, 75
2, 16320, Note_on_c, 0, 65, 75
2, 16320, Note_on_c, 0, 67, 75
2, 16320, Note_on_c, 0, 74, 75
2, 16560, Note_on_c, 0, 74, 0
2, 16560, Note_on_c, 0, 62, 0
2, 16560, Note_on_c, 0, 65, 0
2, 16560, Note_on_c, 0, 67, 0
2, 16560, Note_on_c, 0, 67, 75
2, 16680, Note_on_c, 0, 67, 0
2, 16680, Note_on_c, 0, 74, 75
2, 16800, Note_on_c, 0, 74, 0
2, 16800, Note_on_c, 0, 63, 88
2, 16800, Note_on_c, 0, 67, 88
2, 16800, Note_on_c, 0, 75, 88
2, 17040, Note_on_c, 0, 75, 0
2, 17040, Note_on_c, 0, 67, 0
2, 17040, Note_on_c, 0, 63, 0
2, 17040, Note_on_c, 0, 72, 88
2, 17160, Note_on_c, 0, 72, 0
2, 17160, Note_on_c, 0, 75, 88
2, 17280, Note_on_c, 0, 75, 0
2, 17280, Note_on_c, 0, 67, 88
2, 17280, Note_on_c, 0, 71, 88
2, 17280, Note_on_c, 0, 74, 88
2, 17520, Note_on_c, 0, 74, 0
2, 17520, Note_on_c, 0, 71, 0
2, 17520, Note_on_c, 0, 67, 0
2, 17520, Note_on_c, 0, 71, 88
2, 17640, Note_on_c, 0, 71, 0
2, 17640, Note_on_c, 0, 74, 88
2, 17760, Note_on_c, 0, 74, 0
2, 17760, Note_on_c, 0, 66, 88
2, 17760, Note_on_c, 0, 69, 88
2, 17760, Note_on_c, 0, 74, 88
2, 18000, Note_on_c, 0, 74, 0
2, 18000, Note_on_c, 0, 69, 0
2, 18000, Note_on_c, 0, 66, 0
2, 18000, Note_on_c, 0, 69, 88
2, 18120, Note_on_c, 0, 69, 0
2, 18120, Note_on_c, 0, 74, 88
2, 18240, Note_on_c, 0, 74, 0
2, 18240, Note_on_c, 0, 67, 88
2, 18240, Note_on_c, 0, 71, 88
2, 18240, Note_on_c, 0, 74, 88
2, 18263, Note_on_c, 0, 74, 0
2, 18263, Note_on_c, 0, 71, 0
2, 18263, Note_on_c, 0, 67, 0
2, 18360, Note_on_c, 0, 71, 88
2, 18383, Note_on_c, 0, 71, 0
2, 18480, Note_on_c, 0, 67, 88
2, 18503, Note_on_c, 0, 67, 0
2, 18600, Note_on_c, 0, 62, 88
2, 18623, Note_on_c, 0, 62, 0
2, 18720, Note_on_c, 0, 59, 62
2, 18743, Note_on_c, 0, 59, 0
2, 18840, Note_on_c, 0, 62, 62
2, 18863, Note_on_c, 0, 62, 0
2, 18960, Note_on_c, 0, 67, 62
2, 18983, Note_on_c, 0, 67, 0
2, 19080, Note_on_c, 0, 71, 62
2, 19103, Note_on_c, 0, 71, 0
2, 19200, Note_on_c, 0, 74, 62
2, 19320, Note_on_c, 0, 74, 0
2, 19320, Note_on_c, 0, 71, 62
2, 19440, Note_on_c, 0, 71, 0
2, 19440, Note_on_c, 0, 74, 62
2, 19560, Note_on_c, 0, 74, 0
2, 19560, Note_on_c, 0, 71, 62
2, 19680, Note_on_c, 0, 71, 0
2, 19680, Note_on_c, 0, 74, 75
2, 19800, Note_on_c, 0, 74, 0
2, 19800, Note_on_c, 0, 69, 75
2, 19920, Note_on_c, 0, 69, 0
2, 19920, Note_on_c, 0, 74, 75
2, 20040, Note_on_c, 0, 74, 0
2, 20040, Note_on_c, 0, 69, 75
2, 20160, Note_on_c, 0, 69, 0
2, 20160, Note_on_c, 0, 77, 88
2, 20280, Note_on_c, 0, 77, 0
2, 20280, Note_on_c, 0, 74, 88
2, 20400, Note_on_c, 0, 74, 0
2, 20400, Note_on_c, 0, 77, 88
2, 20520, Note_on_c, 0, 77, 0
2, 20520, Note_on_c, 0, 74, 88
2, 20640, Note_on_c, 0, 74, 0
2, 20640, Note_on_c, 0, 74, 75
2, 20760, Note_on_c, 0, 74, 0
2, 20760, Note_on_c, 0, 69, 75
2, 20880, Note_on_c, 0, 69, 0
2, 20880, Note_on_c, 0, 74, 75
2, 21000, Note_on_c, 0, 74, 0
2, 21000, Note_on_c, 0, 69, 75
2, 21120, Note_on_c, 0, 69, 0
2, 21120, Note_on_c, 0, 67, 62
2, 21120, Note_on_c, 0, 70, 62
2, 21240, Note_on_c, 0, 70, 0
2, 21240, Note_on_c, 0, 67, 0
2, 21240, Note_on_c, 0, 63, 62
2, 21360, Note_on_c, 0, 63, 0
2, 21360, Note_on_c, 0, 67, 62
2, 21360, Note_on_c, 0, 72, 62
2, 21480, Note_on_c, 0, 72, 0
2, 21480, Note_on_c, 0, 67, 0
2, 21480, Note_on_c, 0, 63, 62
2, 21600, Note_on_c, 0, 63, 0
2, 21600, Note_on_c, 0, 63, 62
2, 21600, Note_on_c, 0, 69, 62
2, 21720, Note_on_c, 0, 69, 0
2, 21720, Note_on_c, 0, 63, 0
2, 21720, Note_on_c, 0, 60, 62
2, 21840, Note_on_c, 0, 60, 0
2, 21840, Note_on_c, 0, 67, 62
2, 21840, Note_on_c, 0, 70, 62
2, 21960, Note_on_c, 0, 70, 0
2, 21960, Note_on_c, 0, 67, 0
2, 21960, Note_on_c, 0, 61, 62
2, 22080, Note_on_c, 0, 61, 0
2, 22080, Note_on_c, 0, 67, 62
2, 22200, Note_on_c, 0, 67, 0
2, 22200, Note_on_c, 0, 62, 62
2, 22320, Note_on_c, 0, 62, 0
2, 22320, Note_on_c, 0, 64, 62
2, 22320, Note_on_c, 0, 69, 62
2, 22440, Note_on_c, 0, 69, 0
2, 22440, Note_on_c, 0, 64, 0
2, 22440, Note_on_c, 0, 61, 62
2, 22560, Note_on_c, 0, 61, 0
2, 22560, Note_on_c, 0, 62, 62
2, 22560, Note_on_c, 0, 66, 62
2, 22680, Note_on_c, 0, 66, 0
2, 22680, Note_on_c, 0, 62, 0
2, 22680, Note_on_c, 0, 60, 62
2, 22800, Note_on_c, 0, 60, 0
2, 22800, Note_on_c, 0, 62, 62
2, 22800, Note_on_c, 0, 67, 62
2, 22920, Note_on_c, 0, 67, 0
2, 22920, Note_on_c, 0, 62, 0
2, 22920, Note_on_c, 0, 59, 62
2, 23040, Note_on_c, 0, 59, 0
2, 23040, Note_on_c, 0, 62, 62
2, 23040, Note_on_c, 0, 65, 62
2, 23160, Note_on_c, 0, 65, 0
2, 23160, Note_on_c, 0, 62, 0
2, 23160, Note_on_c, 0, 56, 62
2, 23280, Note_on_c, 0, 56, 0
2, 23280, Note_on_c, 0, 63, 62
2, 23400, Note_on_c, 0, 63, 0
2, 23400, Note_on_c, 0, 55, 62
2, 23520, Note_on_c, 0, 55, 0
2, 23520, Note_on_c, 0, 67, 75
2, 23520, Note_on_c, 0, 69, 75
2, 23640, Note_on_c, 0, 69, 0
2, 23640, Note_on_c, 0, 67, 0
2, 23640, Note_on_c, 0, 63, 75
2, 23760, Note_on_c, 0, 63, 0
2, 23760, Note_on_c, 0, 67, 75
2, 23760, Note_on_c, 0, 70, 75
2, 23880, Note_on_c, 0, 70, 0
2, 23880, Note_on_c, 0, 67, 0
2, 23880, Note_on_c, 0, 62, 75
2, 24000, Note_on_c, 0, 62, 0
2, 24000, Note_on_c, 0, 66, 75
2, 24000, Note_on_c, 0, 69, 75
2, 24120, Note_on_c, 0, 69, 0
2, 24120, Note_on_c, 0, 66, 0
2, 24120, Note_on_c, 0, 60, 75
2, 24240, Note_on_c, 0, 60, 0
2, 24240, Note_on_c, 0, 67, 75
2, 24360, Note_on_c, 0, 67, 0
2, 24360, Note_on_c, 0, 60, 75
2, 24480, Note_on_c, 0, 60, 0
2, 24480, Note_on_c, 0, 60, 75
2, 24480, Note_on_c, 0, 63, 75
2, 24600, Note_on_c, 0, 63, 0
2, 24600, Note_on_c, 0, 60, 0
2, 24600, Note_on_c, 0, 57, 75
2, 24720, Note_on_c, 0, 57, 0
2, 24720, Note_on_c, 0, 62, 75
2, 24840, Note_on_c, 0, 62, 0
2, 24840, Note_on_c, 0, 58, 75
2, 24960, Note_on_c, 0, 58, 0
2, 24960, Note_on_c, 0, 65, 75
2, 25080, Note_on_c, 0, 65, 0
2, 25080, Note_on_c, 0, 60, 75
2, 25200, Note_on_c, 0, 60, 0
2, 25200, Note_on_c, 0, 67, 75
2, 25320, Note_on_c, 0, 67, 0
2, 25320, Note_on_c, 0, 62, 75
2, 25440, Note_on_c, 0, 62, 0
2, 25440, Note_on_c, 0, 67, 75
2, 25440, Note_on_c, 0, 74, 75
2, 25560, Note_on_c, 0, 74, 0
2, 25560, Note_on_c, 0, 67, 0
2, 25560, Note_on_c, 0, 65, 75
2, 25680, Note_on_c, 0, 65, 0
2, 25680, Note_on_c, 0, 67, 75
2, 25680, Note_on_c, 0, 75, 75
2, 25800, Note_on_c, 0, 75, 0
2, 25800, Note_on_c, 0, 67, 0
2, 25800, Note_on_c, 0, 65, 75
2, 25920, Note_on_c, 0, 65, 0
2, 25920, Note_on_c, 0, 71, 88
2, 25920, Note_on_c, 0, 74, 88
2, 26040, Note_on_c, 0, 74, 0
2, 26040, Note_on_c, 0, 71, 0
2, 26040, Note_on_c, 0, 65, 88
2, 26160, Note_on_c, 0, 65, 0
2, 26160, Note_on_c, 0, 72, 88
2, 26280, Note_on_c, 0, 72, 0
2, 26280, Note_on_c, 0, 67, 88
2, 26400, Note_on_c, 0, 67, 0
2, 26400, Note_on_c, 0, 64, 88
2, 26400, Note_on_c, 0, 67, 88
2, 26400, Note_on_c, 0, 70, 88
2, 26520, Note_on_c, 0, 70, 0
2, 26520, Note_on_c, 0, 67, 0
2, 26520, Note_on_c, 0, 64, 0
2, 26520, Note_on_c, 0, 61, 88
2, 26640, Note_on_c, 0, 61, 0
2, 26640, Note_on_c, 0, 66, 88
2, 26640, Note_on_c, 0, 69, 88
2, 26760, Note_on_c, 0, 69, 0
2, 26760, Note_on_c, 0, 66, 0
2, 26760, Note_on_c, 0, 62, 88
2, 26880, Note_on_c, 0, 62, 0
2, 26880, Note_on_c, 0, 74, 62
2, 27000, Note_on_c, 0, 74, 0
2, 27000, Note_on_c, 0, 71, 62
2, 27120, Note_on_c, 0, 71, 0
2, 27120, Note_on_c, 0, 74, 62
2, 27240, Note_on_c, 0, 74, 0
2, 27240, Note_on_c, 0, 71, 62
2, 27360, Note_on_c, 0, 71, 0
2, 27360, Note_on_c, 0, 74, 75
2, 27480, Note_on_c, 0, 74, 0
2, 27480, Note_on_c, 0, 69, 75
2, 27600, Note_on_c, 0, 69, 0
2, 27600, Note_on_c, 0, 74, 75
2, 27720, Note_on_c, 0, 74, 0
2, 27720, Note_on_c, 0, 69, 75
2, 27840, Note_on_c, 0, 69, 0
2, 27840, Note_on_c, 0, 77, 88
2, 27960, Note_on_c, 0, 77, 0
2, 27960, Note_on_c, 0, 74, 88
2, 28080, Note_on_c, 0, 74, 0
2, 28080, Note_on_c, 0, 77, 88
2, 28200, Note_on_c, 0, 77, 0
2, 28200, Note_on_c, 0, 74, 88
2, 28320, Note_on_c, 0, 74, 0
2, 28320, Note_on_c, 0, 74, 75
2, 28440, Note_on_c, 0, 74, 0
2, 28440, Note_on_c, 0, 69, 75
2, 28560, Note_on_c, 0, 69, 0
2, 28560, Note_on_c, 0, 74, 75
2, 28680, Note_on_c, 0, 74, 0
2, 28680, Note_on_c, 0, 69, 75
2, 28800, Note_on_c, 0, 69, 0
2, 28800, Note_on_c, 0, 67, 62
2, 28800, Note_on_c, 0, 70, 62
2, 28920, Note_on_c, 0, 70, 0
2, 28920, Note_on_c, 0, 67, 0
2, 28920, Note_on_c, 0, 63, 62
2, 29040, Note_on_c, 0, 63, 0
2, 29040, Note_on_c, 0, 67, 62
2, 29040, Note_on_c, 0, 72, 62
2, 29160, Note_on_c, 0, 72, 0
2, 29160, Note_on_c, 0, 67, 0
2, 29160, Note_on_c, 0, 63, 62
2, 29280, Note_on_c, 0, 63, 0
2, 29280, Note_on_c, 0, 63, 62
2, 29280, Note_on_c, 0, 69, 62
2, 29400, Note_on_c, 0, 69, 0
2, 29400, Note_on_c, 0, 63, 0
2, 29400, Note_on_c, 0, 60, 62
2, 29520, Note_on_c, 0, 60, 0
2, 29520, Note_on_c, 0, 67, 62
2, 29520, Note_on_c, 0, 70, 62
2, 29640, Note_on_c, 0, 70, 0
2, 29640, Note_on_c, 0, 67, 0
2, 29640, Note_on_c, 0, 61, 62
2, 29760, Note_on_c, 0, 61, 0
2, 29760, Note_on_c, 0, 67, 62
2, 29880, Note_on_c, 0, 67, 0
2, 29880, Note_on_c, 0, 62, 62
2, 30000, Note_on_c, 0, 62, 0
2, 30000, Note_on_c, 0, 64, 62
2, 30000, Note_on_c, 0, 69, 62
2, 30120, Note_on_c, 0, 69, 0
2, 30120, Note_on_c, 0, 64, 0
2, 30120, Note_on_c, 0, 61, 62
2, 30240, Note_on_c, 0, 61, 0
2, 30240, Note_on_c, 0, 62, 62
2, 30240, Note_on_c, 0, 66, 62
2, 30360, Note_on_c, 0, 66, 0
2, 30360, Note_on_c, 0, 62, 0
2, 30360, Note_on_c, 0, 60, 62
2, 30480, Note_on_c, 0, 60, 0
2, 30480, Note_on_c, 0, 62, 62
2, 30480, Note_on_c, 0, 67, 62
2, 30600, Note_on_c, 0, 67, 0
2, 30600, Note_on_c, 0, 62, 0
2, 30600, Note_on_c, 0, 59, 62
2, 30720, Note_on_c, 0, 59, 0
2, 30720, Note_on_c, 0, 62, 62
2, 30720, Note_on_c, 0, 65, 62
2, 30840, Note_on_c, 0, 65, 0
2, 30840, Note_on_c, 0, 62, 0
2, 30840, Note_on_c, 0, 56, 62
2, 30960, Note_on_c, 0, 56, 0
2, 30960, Note_on_c, 0, 63, 62
2, 31080, Note_on_c, 0, 63, 0
2, 31080, Note_on_c, 0, 55, 62
2, 31200, Note_on_c, 0, 55, 0
2, 31200, Note_on_c, 0, 67, 75
2, 31200, Note_on_c, 0, 69, 75
2, 31320, Note_on_c, 0, 69, 0
2, 31320, Note_on_c, 0, 67, 0
2, 31320, Note_on_c, 0, 63, 75
2, 31440, Note_on_c, 0, 63, 0
2, 31440, Note_on_c, 0, 67, 75
2, 31440, Note_on_c, 0, 70, 75
2, 31560, Note_on_c, 0, 70, 0
2, 31560, Note_on_c, 0, 67, 0
2, 31560, Note_on_c, 0, 62, 75
2, 31680, Note_on_c, 0, 62, 0
2, 31680, Note_on_c, 0, 66, 75
2, 31680, Note_on_c, 0, 69, 75
2, 31800, Note_on_c, 0, 69, 0
2, 31800, Note_on_c, 0, 66, 0
2, 31800, Note_on_c, 0, 60, 75
2, 31920, Note_on_c, 0, 60, 0
2, 31920, Note_on_c, 0, 67, 75
2, 32040, Note_on_c, 0, 67, 0
2, 32040, Note_on_c, 0, 60, 75
2, 32160, Note_on_c, 0, 60, 0
2, 32160, Note_on_c, 0, 60, 75
2, 32160, Note_on_c, 0, 63, 75
2, 32280, Note_on_c, 0, 63, 0
2, 32280, Note_on_c, 0, 60, 0
2, 32280, Note_on_c, 0, 57, 75
2, 32400, Note_on_c, 0, 57, 0
2, 32400, Note_on_c, 0, 62, 75
2, 32520, Note_on_c, 0, 62, 0
2, 32520, Note_on_c, 0, 58, 75
2, 32640, Note_on_c, 0, 58, 0
2, 32640, Note_on_c, 0, 63, 75
2, 32640, Note_on_c, 0, 66, 75
2, 32760, Note_on_c, 0, 66, 0
2, 32760, Note_on_c, 0, 63, 0
2, 32760, Note_on_c, 0, 60, 75
2, 32880, Note_on_c, 0, 60, 0
2, 32880, Note_on_c, 0, 67, 75
2, 33000, Note_on_c, 0, 67, 0
2, 33000, Note_on_c, 0, 62, 75
2, 33120, Note_on_c, 0, 62, 0
2, 33120, Note_on_c, 0, 67, 75
2, 33120, Note_on_c, 0, 74, 75
2, 33240, Note_on_c, 0, 74, 0
2, 33240, Note_on_c, 0, 67, 0
2, 33240, Note_on_c, 0, 65, 75
2, 33360, Note_on_c, 0, 65, 0
2, 33360, Note_on_c, 0, 67, 75
2, 33360, Note_on_c, 0, 75, 75
2, 33480, Note_on_c, 0, 75, 0
2, 33480, Note_on_c, 0, 67, 0
2, 33480, Note_on_c, 0, 63, 75
2, 33600, Note_on_c, 0, 63, 0
2, 33600, Note_on_c, 0, 71, 88
2, 33600, Note_on_c, 0, 74, 88
2, 33720, Note_on_c, 0, 74, 0
2, 33720, Note_on_c, 0, 71, 0
2, 33720, Note_on_c, 0, 65, 88
2, 33840, Note_on_c, 0, 65, 0
2, 33840, Note_on_c, 0, 72, 88
2, 33960, Note_on_c, 0, 72, 0
2, 33960, Note_on_c, 0, 67, 88
2, 34080, Note_on_c, 0, 67, 0
2, 34080, Note_on_c, 0, 64, 88
2, 34080, Note_on_c, 0, 67, 88
2, 34080, Note_on_c, 0, 70, 88
2, 34200, Note_on_c, 0, 70, 0
2, 34200, Note_on_c, 0, 67, 0
2, 34200, Note_on_c, 0, 64, 0
2, 34200, Note_on_c, 0, 61, 88
2, 34320, Note_on_c, 0, 61, 0
2, 34320, Note_on_c, 0, 66, 88
2, 34320, Note_on_c, 0, 69, 88
2, 34440, Note_on_c, 0, 69, 0
2, 34440, Note_on_c, 0, 66, 0
2, 34440, Note_on_c, 0, 62, 88
2, 34560, Note_on_c, 0, 62, 0
2, 34560, Note_on_c, 0, 74, 62
2, 34680, Note_on_c, 0, 74, 0
2, 34680, Note_on_c, 0, 71, 62
2, 34800, Note_on_c, 0, 71, 0
2, 34800, Note_on_c, 0, 74, 62
2, 34920, Note_on_c, 0, 74, 0
2, 34920, Note_on_c, 0, 71, 62
2, 35040, Note_on_c, 0, 71, 0
2, 35040, Note_on_c, 0, 74, 75
2, 35160, Note_on_c, 0, 74, 0
2, 35160, Note_on_c, 0, 69, 75
2, 35280, Note_on_c, 0, 69, 0
2, 35280, Note_on_c, 0, 74, 75
2, 35400, Note_on_c, 0, 74, 0
2, 35400, Note_on_c, 0, 69, 75
2, 35520, Note_on_c, 0, 69, 0
2, 35520, Note_on_c, 0, 77, 88
2, 35640, Note_on_c, 0, 77, 0
2, 35640, Note_on_c, 0, 74, 88
2, 35760, Note_on_c, 0, 74, 0
2, 35760, Note_on_c, 0, 77, 88
2, 35880, Note_on_c, 0, 77, 0
2, 35880, Note_on_c, 0, 74, 88
2, 36000, Note_on_c, 0, 74, 0
2, 36000, Note_on_c, 0, 74, 75
2, 36120, Note_on_c, 0, 74, 0
2, 36120, Note_on_c, 0, 69, 75
2, 36240, Note_on_c, 0, 69, 0
2, 36240, Note_on_c, 0, 74, 75
2, 36360, Note_on_c, 0, 74, 0
2, 36360, Note_on_c, 0, 69, 75
2, 36480, Note_on_c, 0, 69, 0
2, 36480, Note_on_c, 0, 74, 62
2, 36600, Note_on_c, 0, 74, 0
2, 36600, Note_on_c, 0, 71, 62
2, 36720, Note_on_c, 0, 71, 0
2, 36720, Note_on_c, 0, 74, 62
2, 36840, Note_on_c, 0, 74, 0
2, 36840, Note_on_c, 0, 71, 62
2, 36960, Note_on_c, 0, 71, 0
2, 36960, Note_on_c, 0, 74, 75
2, 37080, Note_on_c, 0, 74, 0
2, 37080, Note_on_c, 0, 69, 75
2, 37200, Note_on_c, 0, 69, 0
2, 37200, Note_on_c, 0, 74, 75
2, 37320, Note_on_c, 0, 74, 0
2, 37320, Note_on_c, 0, 69, 75
2, 37440, Note_on_c, 0, 69, 0
2, 37440, Note_on_c, 0, 77, 88
2, 37560, Note_on_c, 0, 77, 0
2, 37560, Note_on_c, 0, 74, 88
2, 37680, Note_on_c, 0, 74, 0
2, 37680, Note_on_c, 0, 77, 88
2, 37800, Note_on_c, 0, 77, 0
2, 37800, Note_on_c, 0, 74, 88
2, 37920, Note_on_c, 0, 74, 0
2, 37920, Note_on_c, 0, 74, 75
2, 38040, Note_on_c, 0, 74, 0
2, 38040, Note_on_c, 0, 69, 75
2, 38160, Note_on_c, 0, 69, 0
2, 38160, Note_on_c, 0, 74, 75
2, 38280, Note_on_c, 0, 74, 0
2, 38280, Note_on_c, 0, 69, 75
2, 38400, Note_on_c, 0, 69, 0
2, 38400, Note_on_c, 0, 74, 62
2, 38520, Note_on_c, 0, 74, 0
2, 38520, Note_on_c, 0, 71, 62
2, 38640, Note_on_c, 0, 71, 0
2, 38640, Note_on_c, 0, 74, 75
2, 38760, Note_on_c, 0, 74, 0
2, 38760, Note_on_c, 0, 69, 75
2, 38880, Note_on_c, 0, 69, 0
2, 38880, Note_on_c, 0, 77, 114
2, 39000, Note_on_c, 0, 77, 0
2, 39000, Note_on_c, 0, 70, 88
2, 39120, Note_on_c, 0, 70, 0
2, 39120, Note_on_c, 0, 74, 75
2, 39240, Note_on_c, 0, 74, 0
2, 39240, Note_on_c, 0, 69, 75
2, 39360, Note_on_c, 0, 69, 0
2, 39360, Note_on_c, 0, 74, 62
2, 39480, Note_on_c, 0, 74, 0
2, 39480, Note_on_c, 0, 71, 62
2, 39600, Note_on_c, 0, 71, 0
2, 39600, Note_on_c, 0, 74, 75
2, 39720, Note_on_c, 0, 74, 0
2, 39720, Note_on_c, 0, 69, 75
2, 39840, Note_on_c, 0, 69, 0
2, 39840, Note_on_c, 0, 77, 114
2, 39960, Note_on_c, 0, 77, 0
2, 39960, Note_on_c, 0, 70, 88
2, 40080, Note_on_c, 0, 70, 0
2, 40080, Note_on_c, 0, 74, 75
2, 40200, Note_on_c, 0, 74, 0
2, 40200, Note_on_c, 0, 69, 75
2, 40320, Note_on_c, 0, 69, 0
2, 40320, Note_on_c, 0, 78, 88
2, 40440, Note_on_c, 0, 78, 0
2, 40440, Note_on_c, 0, 70, 62
2, 40560, Note_on_c, 0, 70, 0
2, 40560, Note_on_c, 0, 74, 62
2, 40680, Note_on_c, 0, 74, 0
2, 40680, Note_on_c, 0, 69, 62
2, 40800, Note_on_c, 0, 69, 0
2, 40800, Note_on_c, 0, 78, 88
2, 40920, Note_on_c, 0, 78, 0
2, 40920, Note_on_c, 0, 70, 62
2, 41040, Note_on_c, 0, 70, 0
2, 41040, Note_on_c, 0, 74, 62
2, 41160, Note_on_c, 0, 74, 0
2, 41160, Note_on_c, 0, 69, 62
2, 41280, Note_on_c, 0, 69, 0
2, 41280, Note_on_c, 0, 78, 88
2, 41400, Note_on_c, 0, 78, 0
2, 41400, Note_on_c, 0, 70, 62
2, 41520, Note_on_c, 0, 70, 0
2, 41520, Note_on_c, 0, 74, 62
2, 41640, Note_on_c, 0, 74, 0
2, 41640, Note_on_c, 0, 70, 62
2, 41760, Note_on_c, 0, 70, 0
2, 41760, Note_on_c, 0, 78, 88
2, 41880, Note_on_c, 0, 78, 0
2, 41880, Note_on_c, 0, 70, 62
2, 42000, Note_on_c, 0, 70, 0
2, 42000, Note_on_c, 0, 74, 62
2, 42120, Note_on_c, 0, 74, 0
2, 42120, Note_on_c, 0, 70, 62
2, 42240, Note_on_c, 0, 70, 0
2, 42240, Note_on_c, 0, 74, 88
2, 42240, Note_on_c, 0, 79, 88
2, 42360, Note_on_c, 0, 79, 0
2, 42360, Note_on_c, 0, 74, 0
2, 42360, Note_on_c, 0, 70, 88
2, 42480, Note_on_c, 0, 70, 0
2, 42480, Note_on_c, 0, 74, 88
2, 42480, Note_on_c, 0, 79, 88
2, 42600, Note_on_c, 0, 79, 0
2, 42600, Note_on_c, 0, 74, 0
2, 42600, Note_on_c, 0, 69, 88
2, 42720, Note_on_c, 0, 69, 0
2, 42720, Note_on_c, 0, 74, 88
2, 42840, Note_on_c, 0, 74, 0
2, 42840, Note_on_c, 0, 67, 88
2, 42960, Note_on_c, 0, 67, 0
2, 42960, Note_on_c, 0, 67, 88
2, 42960, Note_on_c, 0, 74, 88
2, 43080, Note_on_c, 0, 74, 0
2, 43080, Note_on_c, 0, 67, 0
2, 43080, Note_on_c, 0, 65, 88
2, 43200, Note_on_c, 0, 65, 0
2, 43200, Note_on_c, 0, 67, 88
2, 43200, Note_on_c, 0, 72, 88
2, 43320, Note_on_c, 0, 72, 0
2, 43320, Note_on_c, 0, 67, 0
2, 43320, Note_on_c, 0, 63, 88
2, 43440, Note_on_c, 0, 63, 0
2, 43440, Note_on_c, 0, 67, 88
2, 43440, Note_on_c, 0, 70, 88
2, 43560, Note_on_c, 0, 70, 0
2, 43560, Note_on_c, 0, 67, 0
2, 43560, Note_on_c, 0, 62, 88
2, 43680, Note_on_c, 0, 62, 0
2, 43680, Note_on_c, 0, 66, 88
2, 43680, Note_on_c, 0, 69, 88
2, 43800, Note_on_c, 0, 69, 0
2, 43800, Note_on_c, 0, 66, 0
2, 43800, Note_on_c, 0, 60, 88
2, 43920, Note_on_c, 0, 60, 0
2, 43920, Note_on_c, 0, 67, 88
2, 44040, Note_on_c, 0, 67, 0
2, 44040, Note_on_c, 0, 58, 88
2, 44160, Note_on_c, 0, 58, 0
2, 44160, Control_c, 0, 64, 127
2, 44160, Note_on_c, 0, 85, 101
2, 44280, Note_on_c, 0, 85, 0
2, 44280, Note_on_c, 0, 82, 101
2, 44400, Note_on_c, 0, 82, 0
2, 44400, Note_on_c, 0, 79, 101
2, 44520, Note_on_c, 0, 79, 0
2, 44520, Control_c, 0, 64, 0
2, 44520, Note_on_c, 0, 73, 101
2, 44640, Note_on_c, 0, 73, 0
2, 44640, Control_c, 0, 64, 127
2, 44640, Note_on_c, 0, 70, 101
2, 44760, Note_on_c, 0, 70, 0
2, 44760, Note_on_c, 0, 82, 101
2, 44880, Note_on_c, 0, 82, 0
2, 44880, Note_on_c, 0, 84, 101
2, 45000, Note_on_c, 0, 84, 0
2, 45000, Control_c, 0, 64, 0
2, 45000, Note_on_c, 0, 85, 101
2, 45120, Note_on_c, 0, 85, 0
2, 45120, Control_c, 0, 64, 127
2, 45120, Note_on_c, 0, 86, 101
2, 45240, Note_on_c, 0, 86, 0
2, 45240, Note_on_c, 0, 81, 101
2, 45360, Note_on_c, 0, 81, 0
2, 45360, Note_on_c, 0, 78, 101
2, 45480, Note_on_c, 0, 78, 0
2, 45480, Control_c, 0, 64, 0
2, 45480, Note_on_c, 0, 74, 101
2, 45600, Note_on_c, 0, 74, 0
2, 45600, Control_c, 0, 64, 127
2, 45600, Note_on_c, 0, 69, 101
2, 45720, Note_on_c, 0, 69, 0
2, 45720, Note_on_c, 0, 74, 101
2, 45840, Note_on_c, 0, 74, 0
2, 45840, Note_on_c, 0, 76, 101
2, 45960, Note_on_c, 0, 76, 0
2, 45960, Control_c, 0, 64, 0
2, 45960, Note_on_c, 0, 78, 101
2, 46080, Note_on_c, 0, 78, 0
2, 46080, Note_on_c, 0, 74, 88
2, 46080, Note_on_c, 0, 79, 88
2, 46200, Note_on_c, 0, 79, 0
2, 46200, Note_on_c, 0, 74, 0
2, 46200, Note_on_c, 0, 70, 88
2, 46320, Note_on_c, 0, 70, 0
2, 46320, Note_on_c, 0, 74, 88
2, 46320, Note_on_c, 0, 79, 88
2, 46440, Note_on_c, 0, 79, 0
2, 46440, Note_on_c, 0, 74, 0
2, 46440, Note_on_c, 0, 69, 88
2, 46560, Note_on_c, 0, 69, 0
2, 46560, Note_on_c, 0, 74, 88
2, 46680, Note_on_c, 0, 74, 0
2, 46680, Note_on_c, 0, 67, 88
2, 46800, Note_on_c, 0, 67, 0
2, 46800, Note_on_c, 0, 67, 88
2, 46800, Note_on_c, 0, 74, 88
2, 46920, Note_on_c, 0, 74, 0
2, 46920, Note_on_c, 0, 67, 0
2, 46920, Note_on_c, 0, 65, 88
2, 47040, Note_on_c, 0, 65, 0
2, 47040, Note_on_c, 0, 67, 88
2, 47040, Note_on_c, 0, 72, 88
2, 47160, Note_on_c, 0, 72, 0
2, 47160, Note_on_c, 0, 67, 0
2, 47160, Note_on_c, 0, 63, 88
2, 47280, Note_on_c, 0, 63, 0
2, 47280, Note_on_c, 0, 67, 88
2, 47280, Note_on_c, 0, 70, 88
2, 47400, Note_on_c, 0, 70, 0
2, 47400, Note_on_c, 0, 67, 0
2, 47400, Note_on_c, 0, 62, 88
2, 47520, Note_on_c, 0, 62, 0
2, 47520, Note_on_c, 0, 66, 88
2, 47520, Note_on_c, 0, 69, 88
2, 47640, Note_on_c, 0, 69, 0
2, 47640, Note_on_c, 0, 66, 0
2, 47640, Note_on_c, 0, 60, 88
2, 47760, Note_on_c, 0, 60, 0
2, 47760, Note_on_c, 0, 67, 88
2, 47880, Note_on_c, 0, 67, 0
2, 47880, Note_on_c, 0, 58, 88
2, 48000, Note_on_c, 0, 58, 0
2, 48000, Control_c, 0, 64, 127
2, 48000, Note_on_c, 0, 85, 101
2, 48120, Note_on_c, 0, 85, 0
2, 48120, Note_on_c, 0, 82, 101
2, 48240, Note_on_c, 0, 82, 0
2, 48240, Note_on_c, 0, 79, 101
2, 48360, Note_on_c, 0, 79, 0
2, 48360, Control_c, 0, 64, 0
2, 48360, Note_on_c, 0, 73, 101
2, 48480, Note_on_c, 0, 73, 0
2, 48480, Control_c, 0, 64, 127
2, 48480, Note_on_c, 0, 70, 101
2, 48600, Note_on_c, 0, 70, 0
2, 48600, Note_on_c, 0, 82, 101
2, 48720, Note_on_c, 0, 82, 0
2, 48720, Note_on_c, 0, 84, 101
2, 48840, Note_on_c, 0, 84, 0
2, 48840, Control_c, 0, 64, 0
2, 48840, Note_on_c, 0, 85, 101
2, 48960, Note_on_c, 0, 85, 0
2, 48960, Control_c, 0, 64, 127
2, 48960, Note_on_c, 0, 86, 101
2, 49080, Note_on_c, 0, 86, 0
2, 49080, Note_on_c, 0, 81, 101
2, 49200, Note_on_c, 0, 81, 0
2, 49200, Note_on_c, 0, 78, 101
2, 49320, Note_on_c, 0, 78, 0
2, 49320, Control_c, 0, 64, 0
2, 49320, Note_on_c, 0, 74, 101
2, 49440, Note_on_c, 0, 74, 0
2, 49440, Control_c, 0, 64, 127
2, 49440, Note_on_c, 0, 69, 101
2, 49560, Note_on_c, 0, 69, 0
2, 49560, Note_on_c, 0, 74, 101
2, 49680, Note_on_c, 0, 74, 0
2, 49680, Note_on_c, 0, 76, 101
2, 49800, Note_on_c, 0, 76, 0
2, 49800, Control_c, 0, 64, 0
2, 49800, Note_on_c, 0, 78, 101
2, 49920, Note_on_c, 0, 78, 0
2, 49920, Note_on_c, 0, 74, 88
2, 49920, Note_on_c, 0, 79, 88
2, 50040, Note_on_c, 0, 79, 0
2, 50040, Note_on_c, 0, 74, 0
2, 50040, Note_on_c, 0, 70, 88
2, 50160, Note_on_c, 0, 70, 0
2, 50160, Note_on_c, 0, 74, 88
2, 50160, Note_on_c, 0, 79, 88
2, 50280, Note_on_c, 0, 79, 0
2, 50280, Note_on_c, 0, 74, 0
2, 50280, Note_on_c, 0, 69, 88
2, 50400, Note_on_c, 0, 69, 0
2, 50400, Note_on_c, 0, 74, 88
2, 50400, Note_on_c, 0, 79, 88
2, 50520, Note_on_c, 0, 79, 0
2, 50520, Note_on_c, 0, 74, 0
2, 50520, Control_c, 0, 64, 127
2, 50520, Note_on_c, 0, 86, 88
2, 50640, Note_on_c, 0, 86, 0
2, 50640, Note_on_c, 0, 87, 88
2, 50760, Note_on_c, 0, 87, 0
2, 50760, Note_on_c, 0, 89, 88
2, 50880, Note_on_c, 0, 89, 0
2, 50880, Note_on_c, 0, 91, 88
2, 51000, Note_on_c, 0, 91, 0
2, 51000, Note_on_c, 0, 87, 88
2, 51120, Note_on_c, 0, 87, 0
2, 51120, Note_on_c, 0, 84, 88
2, 51240, Note_on_c, 0, 84, 0
2, 51240, Note_on_c, 0, 79, 88
2, 51360, Note_on_c, 0, 79, 0
2, 51360, Note_on_c, 0, 78, 88
2, 51480, Note_on_c, 0, 78, 0
2, 51480, Note_on_c, 0, 81, 88
2, 51600, Note_on_c, 0, 81, 0
2, 51600, Note_on_c, 0, 78, 88
2, 51720, Note_on_c, 0, 78, 0
2, 51720, Control_c, 0, 64, 0
2, 51720, Note_on_c, 0, 74, 88
2, 51840, Note_on_c, 0, 74, 0
2, 51840, Note_on_c, 0, 74, 88
2, 51840, Note_on_c, 0, 79, 88
2, 51960, Note_on_c, 0, 79, 0
2, 51960, Note_on_c, 0, 74, 0
2, 51960, Note_on_c, 0, 70, 88
2, 52080, Note_on_c, 0, 70, 0
2, 52080, Note_on_c, 0, 74, 88
2, 52080, Note_on_c, 0, 79, 88
2, 52200, Note_on_c, 0, 79, 0
2, 52200, Note_on_c, 0, 74, 0
2, 52200, Note_on_c, 0, 69, 88
2, 52320, Note_on_c, 0, 69, 0
2, 52320, Note_on_c, 0, 74, 88
2, 52320, Note_on_c, 0, 79, 88
2, 52440, Note_on_c, 0, 79, 0
2, 52440, Note_on_c, 0, 74, 0
2, 52440, Control_c, 0, 64, 127
2, 52440, Note_on_c, 0, 86, 88
2, 52560, Note_on_c, 0, 86, 0
2, 52560, Note_on_c, 0, 87, 88
2, 52680, Note_on_c, 0, 87, 0
2, 52680, Note_on_c, 0, 89, 88
2, 52800, Note_on_c, 0, 89, 0
2, 52800, Note_on_c, 0, 91, 88
2, 52920, Note_on_c, 0, 91, 0
2, 52920, Note_on_c, 0, 87, 88
2, 53040, Note_on_c, 0, 87, 0
2, 53040, Note_on_c, 0, 84, 88
2, 53160, Note_on_c, 0, 84, 0
2, 53160, Note_on_c, 0, 79, 88
2, 53280, Note_on_c, 0, 79, 0
2, 53280, Note_on_c, 0, 78, 88
2, 53280, Note_on_c, 0, 86, 88
2, 53400, Note_on_c, 0, 86, 0
2, 53400, Note_on_c, 0, 78, 0
2, 53400, Note_on_c, 0, 81, 88
2, 53520, Note_on_c, 0, 81, 0
2, 53520, Note_on_c, 0, 78, 88
2, 53640, Note_on_c, 0, 78, 0
2, 53640, Control_c, 0, 64, 0
2, 53640, Note_on_c, 0, 74, 88
2, 53760, Note_on_c, 0, 74, 0
2, 53760, Control_c, 0, 64, 127
2, 53760, Note_on_c, 0, 91, 88
2, 53880, Note_on_c, 0, 91, 0
2, 53880, Note_on_c, 0, 87, 88
2, 54000, Note_on_c, 0, 87, 0
2, 54000, Note_on_c, 0, 84, 88
2, 54120, Note_on_c, 0, 84, 0
2, 54120, Note_on_c, 0, 79, 88
2, 54240, Note_on_c, 0, 79, 0
2, 54240, Note_on_c, 0, 78, 88
2, 54240, Note_on_c, 0, 86, 88
2, 54360, Note_on_c, 0, 86, 0
2, 54360, Note_on_c, 0, 78, 0
2, 54360, Note_on_c, 0, 81, 88
2, 54480, Note_on_c, 0, 81, 0
2, 54480, Note_on_c, 0, 78, 88
2, 54600, Note_on_c, 0, 78, 0
2, 54600, Control_c, 0, 64, 0
2, 54600, Note_on_c, 0, 74, 88
2, 54720, Note_on_c, 0, 74, 0
2, 54720, Control_c, 0, 64, 127
2, 54720, Note_on_c, 0, 91, 88
2, 54840, Note_on_c, 0, 91, 0
2, 54840, Note_on_c, 0, 87, 88
2, 54960, Note_on_c, 0, 87, 0
2, 54960, Note_on_c, 0, 84, 88
2, 55080, Note_on_c, 0, 84, 0
2, 55080, Note_on_c, 0, 79, 88
2, 55200, Note_on_c, 0, 79, 0
2, 55200, Note_on_c, 0, 78, 88
2, 55200, Note_on_c, 0, 86, 88
2, 55320, Note_on_c, 0, 86, 0
2, 55320, Note_on_c, 0, 78, 0
2, 55320, Note_on_c, 0, 81, 88
2, 55440, Note_on_c, 0, 81, 0
2, 55440, Note_on_c, 0, 78, 88
2, 55560, Note_on_c, 0, 78, 0
2, 55560, Control_c, 0, 64, 0
2, 55560, Note_on_c, 0, 74, 88
2, 55680, Note_on_c, 0, 74, 0
2, 55680, Control_c, 0, 64, 127
2, 55680, Note_on_c, 0, 79, 88
2, 55800, Note_on_c, 0, 79, 0
2, 55800, Note_on_c, 0, 75, 88
2, 55920, Note_on_c, 0, 75, 0
2, 55920, Note_on_c, 0, 72, 88
2, 56040, Note_on_c, 0, 72, 0
2, 56040, Note_on_c, 0, 67, 88
2, 56160, Note_on_c, 0, 67, 0
2, 56160, Note_on_c, 0, 74, 88
2, 56280, Note_on_c, 0, 74, 0
2, 56280, Note_on_c, 0, 69, 88
2, 56400, Note_on_c, 0, 69, 0
2, 56400, Note_on_c, 0, 66, 88
2, 56520, Note_on_c, 0, 66, 0
2, 56520, Control_c, 0, 64, 0
2, 56520, Note_on_c, 0, 62, 88
2, 56640, Note_on_c, 0, 62, 0
2, 56640, Control_c, 0, 64, 127
2, 56640, Note_on_c, 0, 79, 88
2, 56760, Note_on_c, 0, 79, 0
2, 56760, Note_on_c, 0, 75, 88
2, 56880, Note_on_c, 0, 75, 0
2, 56880, Note_on_c, 0, 72, 88
2, 57000, Note_on_c, 0, 72, 0
2, 57000, Note_on_c, 0, 67, 88
2, 57120, Note_on_c, 0, 67, 0
2, 57120, Note_on_c, 0, 74, 88
2, 57240, Note_on_c, 0, 74, 0
2, 57240, Note_on_c, 0, 69, 88
2, 57360, Note_on_c, 0, 69, 0
2, 57360, Note_on_c, 0, 66, 88
2, 57480, Note_on_c, 0, 66, 0
2, 57480, Control_c, 0, 64, 0
2, 57480, Note_on_c, 0, 62, 88
2, 57600, Note_on_c, 0, 62, 0
2, 57600, Control_c, 0, 64, 127
2, 57600, Note_on_c, 0, 79, 101
2, 57720, Note_on_c, 0, 79, 0
2, 57720, Note_on_c, 0, 75, 101
2, 57840, Note_on_c, 0, 75, 0
2, 57840, Note_on_c, 0, 72, 101
2, 57960, Note_on_c, 0, 72, 0
2, 57960, Note_on_c, 0, 67, 101
2, 58080, Note_on_c, 0, 67, 0
2, 58080, Note_on_c, 0, 63, 101
2, 58200, Note_on_c, 0, 63, 0
2, 58200, Note_on_c, 0, 60, 101
2, 58320, Note_on_c, 0, 60, 0
2, 58320, Note_on_c, 0, 55, 101
2, 58440, Note_on_c, 0, 55, 0
2, 58440, Note_on_c, 0, 60, 101
2, 58560, Note_on_c, 0, 60, 0
2, 58560, Note_on_c, 0, 63, 101
2, 58680, Note_on_c, 0, 63, 0
2, 58680, Note_on_c, 0, 67, 101
2, 58800, Note_on_c, 0, 67, 0
2, 58800, Note_on_c, 0, 72, 101
2, 58920, Note_on_c, 0, 72, 0
2, 58920, Note_on_c, 0, 75, 101
2, 59040, Note_on_c, 0, 75, 0
2, 59040, Control_c, 0, 64, 0
2, 59040, Note_on_c, 0, 79, 101
2, 59280, Note_on_c, 0, 79, 0
2, 59280, Note_on_c, 0, 79, 101
2, 59760, Note_on_c, 0, 79, 0
2, 59760, Note_on_c, 0, 79, 101
2, 60240, Note_on_c, 0, 79, 0
2, 60240, Note_on_c, 0, 79, 101
2, 60480, Note_on_c, 0, 72, 101
2, 60480, Note_on_c, 0, 75, 101
2, 60720, Note_on_c, 0, 75, 0
2, 60720, Note_on_c, 0, 72, 0
2, 60720, Note_on_c, 0, 79, 0
2, 60720, Note_on_c, 0, 79, 101
2, 61200, Note_on_c, 0, 79, 0
2, 61200, Note_on_c, 0, 79, 101
2, 61760, Note_on_c, 0, 79, 0
2, 61760, Note_on_c, 0, 79, 101
2, 61823, Note_on_c, 0, 79, 0
2, 62079, Note_on_c, 0, 79, 101
2, 62144, Note_on_c, 0, 79, 0
2, 62400, Note_on_c, 0, 79, 88
2, 62464, Note_on_c, 0, 79, 0
2, 62720, Note_on_c, 0, 79, 88
2, 62783, Note_on_c, 0, 79, 0
2, 63039, Note_on_c, 0, 79, 75
2, 63104, Note_on_c, 0, 79, 0
2, 63360, Note_on_c, 0, 79, 75
2, 63424, Note_on_c, 0, 79, 0
2, 63680, Note_on_c, 0, 79, 75
2, 63743, Note_on_c, 0, 79, 0
2, 63999, Note_on_c, 0, 79, 88
2, 64064, Note_on_c, 0, 79, 0
2, 64320, Note_on_c, 0, 79, 88
2, 64384, Note_on_c, 0, 79, 0
2, 64640, Note_on_c, 0, 79, 88
2, 64703, Note_on_c, 0, 79, 0
2, 64959, Note_on_c, 0, 79, 88
2, 65024, Note_on_c, 0, 79, 0
2, 65280, Note_on_c, 0, 79, 101
2, 66960, Note_on_c, 0, 79, 0
2, 66960, Note_on_c, 0, 77, 75
2, 67200, Note_on_c, 0, 77, 0
2, 67200, Control_c, 0, 64, 127
2, 67200, Note_on_c, 0, 75, 75
2, 67440, Note_on_c, 0, 75, 0
2, 67440, Note_on_c, 0, 72, 75
2, 67680, Note_on_c, 0, 72, 0
2, 67680, Note_on_c, 0, 69, 75
2, 67920, Note_on_c, 0, 69, 0
2, 67920, Control_c, 0, 64, 0
2, 67920, Note_on_c, 0, 63, 75
2, 68160, Note_on_c, 0, 63, 0
2, 68160, Control_c, 0, 64, 127
2, 68160, Note_on_c, 0, 62, 75
2, 68400, Note_on_c, 0, 62, 0
2, 68400, Note_on_c, 0, 65, 75
2, 68640, Note_on_c, 0, 65, 0
2, 68640, Note_on_c, 0, 70, 75
2, 68880, Note_on_c, 0, 70, 0
2, 68880, Note_on_c, 0, 74, 75
2, 69120, Note_on_c, 0, 74, 0
2, 69120, Note_on_c, 0, 79, 75
2, 69360, Note_on_c, 0, 79, 0
2, 69360, Control_c, 0, 64, 0
2, 69360, Note_on_c, 0, 74, 75
2, 69600, Note_on_c, 0, 74, 0
2, 69600, Note_on_c, 0, 79, 75
2, 70560, Note_on_c, 0, 79, 0
2, 70560, Note_on_c, 0, 74, 75
2, 71040, Note_on_c, 0, 74, 0
2, 71040, Note_on_c, 0, 79, 75
2, 72720, Note_on_c, 0, 79, 0
2, 72720, Note_on_c, 0, 77, 75
2, 72960, Note_on_c, 0, 77, 0
2, 72960, Control_c, 0, 64, 127
2, 72960, Note_on_c, 0, 75, 75
2, 73200, Note_on_c, 0, 75, 0
2, 73200, Note_on_c, 0, 72, 75
2, 73440, Note_on_c, 0, 72, 0
2, 73440, Note_on_c, 0, 69, 75
2, 73680, Note_on_c, 0, 69, 0
2, 73680, Control_c, 0, 64, 0
2, 73680, Note_on_c, 0, 63, 75
2, 73920, Note_on_c, 0, 63, 0
2, 73920, Control_c, 0, 64, 127
2, 73920, Note_on_c, 0, 61, 75
2, 74160, Note_on_c, 0, 61, 0
2, 74160, Note_on_c, 0, 62, 75
2, 74400, Note_on_c, 0, 62, 0
2, 74400, Note_on_c, 0, 65, 75
2, 74640, Note_on_c, 0, 65, 0
2, 74640, Note_on_c, 0, 70, 75
2, 74880, Note_on_c, 0, 70, 0
2, 74880, Note_on_c, 0, 75, 75
2, 75120, Note_on_c, 0, 75, 0
2, 75120, Control_c, 0, 64, 0
2, 75120, Note_on_c, 0, 74, 75
2, 75360, Note_on_c, 0, 74, 0
2, 75360, Control_c, 0, 64, 127
2, 75360, Note_on_c, 0, 72, 75
2, 75600, Note_on_c, 0, 72, 0
2, 75600, Note_on_c, 0, 70, 75
2, 75840, Note_on_c, 0, 70, 0
2, 75840, Note_on_c, 0, 69, 75
2, 76080, Note_on_c, 0, 69, 0
2, 76080, Note_on_c, 0, 70, 75
2, 76320, Note_on_c, 0, 70, 0
2, 76320, Note_on_c, 0, 65, 75
2, 76560, Note_on_c, 0, 65, 0
2, 76560, Control_c, 0, 64, 0
2, 76560, Note_on_c, 0, 62, 75
2, 76800, Note_on_c, 0, 62, 0
2, 76800, Note_on_c, 0, 79, 101
2, 78480, Note_on_c, 0, 79, 0
2, 78480, Note_on_c, 0, 77, 75
2, 78720, Note_on_c, 0, 77, 0
2, 78720, Control_c, 0, 64, 127
2, 78720, Note_on_c, 0, 75, 75
2, 78960, Note_on_c, 0, 75, 0
2, 78960, Note_on_c, 0, 72, 75
2, 79200, Note_on_c, 0, 72, 0
2, 79200, Note_on_c, 0, 69, 75
2, 79440, Note_on_c, 0, 69, 0
2, 79440, Control_c, 0, 64, 0
2, 79440, Note_on_c, 0, 63, 75
2, 79680, Note_on_c, 0, 63, 0
2, 79680, Control_c, 0, 64, 127
2, 79680, Note_on_c, 0, 62, 75
2, 79920, Note_on_c, 0, 62, 0
2, 79920, Note_on_c, 0, 65, 75
2, 80160, Note_on_c, 0, 65, 0
2, 80160, Note_on_c, 0, 70, 75
2, 80400, Note_on_c, 0, 70, 0
2, 80400, Note_on_c, 0, 74, 75
2, 80640, Note_on_c, 0, 74, 0
2, 80640, Note_on_c, 0, 79, 75
2, 80880, Note_on_c, 0, 79, 0
2, 80880, Control_c, 0, 64, 0
2, 80880, Note_on_c, 0, 74, 75
2, 81120, Note_on_c, 0, 74, 0
2, 81120, Note_on_c, 0, 79, 75
2, 82080, Note_on_c, 0, 79, 0
2, 82080, Note_on_c, 0, 74, 75
2, 82560, Note_on_c, 0, 74, 0
2, 82560, Note_on_c, 0, 79, 75
2, 84240, Note_on_c, 0, 79, 0
2, 84240, Note_on_c, 0, 78, 88
2, 84480, Note_on_c, 0, 78, 0
2, 84480, Control_c, 0, 64, 127
2, 84480, Note_on_c, 0, 74, 88
2, 84720, Note_on_c, 0, 74, 0
2, 84720, Note_on_c, 0, 69, 88
2, 84960, Note_on_c, 0, 69, 0
2, 84960, Note_on_c, 0, 66, 88
2, 85200, Note_on_c, 0, 66, 0
2, 85200, Control_c, 0, 64, 0
2, 85200, Note_on_c, 0, 62, 88
2, 85440, Note_on_c, 0, 62, 0
2, 85440, Control_c, 0, 64, 127
2, 85440, Note_on_c, 0, 61, 88
2, 85680, Note_on_c, 0, 61, 0
2, 85680, Note_on_c, 0, 64, 88
2, 85920, Note_on_c, 0, 64, 0
2, 85920, Note_on_c, 0, 69, 88
2, 86160, Note_on_c, 0, 69, 0
2, 86160, Note_on_c, 0, 73, 88
2, 86400, Note_on_c, 0, 73, 0
2, 86400, Note_on_c, 0, 78, 88
2, 86640, Note_on_c, 0, 78, 0
2, 86640, Control_c, 0, 64, 0
2, 86640, Note_on_c, 0, 76, 88
2, 86880, Note_on_c, 0, 76, 0
2, 86880, Control_c, 0, 64, 127
2, 86880, Note_on_c, 0, 73, 88
2, 87120, Note_on_c, 0, 73, 0
2, 87120, Note_on_c, 0, 74, 88
2, 87360, Note_on_c, 0, 74, 0
2, 87360, Note_on_c, 0, 76, 88
2, 87600, Note_on_c, 0, 76, 0
2, 87600, Note_on_c, 0, 74, 88
2, 87840, Note_on_c, 0, 74, 0
2, 87840, Note_on_c, 0, 69, 88
2, 88080, Note_on_c, 0, 69, 0
2, 88080, Control_c, 0, 64, 0
2, 88080, Note_on_c, 0, 62, 88
2, 88320, Note_on_c, 0, 62, 0
2, 88320, Note_on_c, 0, 79, 88
2, 88320, Note_on_c, 0, 91, 88
2, 90000, Note_on_c, 0, 91, 0
2, 90000, Note_on_c, 0, 79, 0
2, 90000, Note_on_c, 0, 77, 88
2, 90000, Note_on_c, 0, 89, 88
2, 90240, Note_on_c, 0, 89, 0
2, 90240, Note_on_c, 0, 77, 0
2, 90240, Control_c, 0, 64, 127
2, 90240, Note_on_c, 0, 75, 88
2, 90240, Note_on_c, 0, 87, 88
2, 90480, Note_on_c, 0, 87, 0
2, 90480, Note_on_c, 0, 75, 0
2, 90480, Note_on_c, 0, 72, 88
2, 90480, Note_on_c, 0, 84, 88
2, 90720, Note_on_c, 0, 84, 0
2, 90720, Note_on_c, 0, 72, 0
2, 90720, Note_on_c, 0, 81, 88
2, 90960, Note_on_c, 0, 81, 0
2, 90960, Control_c, 0, 64, 0
2, 90960, Note_on_c, 0, 75, 88
2, 91200, Note_on_c, 0, 75, 0
2, 91200, Control_c, 0, 64, 127
2, 91200, Note_on_c, 0, 74, 88
2, 91440, Note_on_c, 0, 74, 0
2, 91440, Note_on_c, 0, 77, 88
2, 91680, Note_on_c, 0, 77, 0
2, 91680, Note_on_c, 0, 82, 88
2, 91920, Note_on_c, 0, 82, 0
2, 91920, Note_on_c, 0, 86, 88
2, 92160, Note_on_c, 0, 86, 0
2, 92160, Note_on_c, 0, 79, 88
2, 92160, Note_on_c, 0, 91, 88
2, 92400, Note_on_c, 0, 91, 0
2, 92400, Note_on_c, 0, 79, 0
2, 92400, Control_c, 0, 64, 0
2, 92400, Note_on_c, 0, 86, 88
2, 92640, Note_on_c, 0, 86, 0
2, 92640, Note_on_c, 0, 79, 88
2, 92640, Note_on_c, 0, 91, 88
2, 93600, Note_on_c, 0, 91, 0
2, 93600, Note_on_c, 0, 79, 0
2, 93600, Note_on_c, 0, 74, 88
2, 93600, Note_on_c, 0, 86, 88
2, 94080, Note_on_c, 0, 86, 0
2, 94080, Note_on_c, 0, 74, 0
2, 94080, Note_on_c, 0, 79, 88
2, 94080, Note_on_c, 0, 91, 88
2, 95760, Note_on_c, 0, 91, 0
2, 95760, Note_on_c, 0, 79, 0
2, 95760, Control_c, 0, 64, 127
2, 95760, Note_on_c, 0, 77, 88
2, 95760, Note_on_c, 0, 89, 88
2, 96000, Note_on_c, 0, 89, 0
2, 96000, Note_on_c, 0, 77, 0
2, 96000, Note_on_c, 0, 75, 88
2, 96000, Note_on_c, 0, 87, 88
2, 96240, Note_on_c, 0, 87, 0
2, 96240, Note_on_c, 0, 75, 0
2, 96240, Note_on_c, 0, 72, 88
2, 96240, Note_on_c, 0, 84, 88
2, 96480, Note_on_c, 0, 84, 0
2, 96480, Note_on_c, 0, 72, 0
2, 96480, Note_on_c, 0, 81, 88
2, 96720, Note_on_c, 0, 81, 0
2, 96720, Control_c, 0, 64, 0
2, 96720, Note_on_c, 0, 75, 88
2, 96960, Note_on_c, 0, 75, 0
2, 96960, Control_c, 0, 64, 127
2, 96960, Note_on_c, 0, 73, 88
2, 97200, Note_on_c, 0, 73, 0
2, 97200, Note_on_c, 0, 74, 88
2, 97440, Note_on_c, 0, 74, 0
2, 97440, Note_on_c, 0, 77, 88
2, 97680, Note_on_c, 0, 77, 0
2, 97680, Note_on_c, 0, 82, 88
2, 97920, Note_on_c, 0, 82, 0
2, 97920, Note_on_c, 0, 75, 88
2, 97920, Note_on_c, 0, 87, 88
2, 98160, Note_on_c, 0, 87, 0
2, 98160, Note_on_c, 0, 75, 0
2, 98160, Control_c, 0, 64, 0
2, 98160, Note_on_c, 0, 74, 88
2, 98160, Note_on_c, 0, 86, 88
2, 98400, Note_on_c, 0, 86, 0
2, 98400, Note_on_c, 0, 74, 0
2, 98400, Control_c, 0, 64, 127
2, 98400, Note_on_c, 0, 72, 88
2, 98400, Note_on_c, 0, 84, 88
2, 98640, Note_on_c, 0, 84, 0
2, 98640, Note_on_c, 0, 72, 0
2, 98640, Note_on_c, 0, 82, 88
2, 98880, Note_on_c, 0, 82, 0
2, 98880, Note_on_c, 0, 81, 88
2, 99120, Note_on_c, 0, 81, 0
2, 99120, Note_on_c, 0, 82, 88
2, 99360, Note_on_c, 0, 82, 0
2, 99360, Note_on_c, 0, 77, 88
2, 99600, Note_on_c, 0, 77, 0
2, 99600, Control_c, 0, 64, 0
2, 99600, Note_on_c, 0, 74, 88
2, 99840, Note_on_c, 0, 74, 0
2, 99840, Note_on_c, 0, 79, 88
2, 99840, Note_on_c, 0, 91, 88
2, 101520, Note_on_c, 0, 91, 0
2, 101520, Note_on_c, 0, 79, 0
2, 101520, Note_on_c, 0, 77, 88
2, 101520, Note_on_c, 0, 89, 88
2, 101760, Note_on_c, 0, 89, 0
2, 101760, Note_on_c, 0, 77, 0
2, 101760, Control_c, 0, 64, 127
2, 101760, Note_on_c, 0, 75, 88
2, 101760, Note_on_c, 0, 87, 88
2, 102000, Note_on_c, 0, 87, 0
2, 102000, Note_on_c, 0, 75, 0
2, 102000, Note_on_c, 0, 72, 88
2, 102000, Note_on_c, 0, 84, 88
2, 102240, Note_on_c, 0, 84, 0
2, 102240, Note_on_c, 0, 72, 0
2, 102240, Note_on_c, 0, 81, 88
2, 102480, Note_on_c, 0, 81, 0
2, 102480, Control_c, 0, 64, 0
2, 102480, Note_on_c, 0, 75, 88
2, 102720, Note_on_c, 0, 75, 0
2, 102720, Control_c, 0, 64, 127
2, 102720, Note_on_c, 0, 74, 88
2, 102960, Note_on_c, 0, 74, 0
2, 102960, Note_on_c, 0, 77, 88
2, 103200, Note_on_c, 0, 77, 0
2, 103200, Note_on_c, 0, 82, 88
2, 103440, Note_on_c, 0, 82, 0
2, 103440, Note_on_c, 0, 86, 88
2, 103680, Note_on_c, 0, 86, 0
2, 103680, Note_on_c, 0, 79, 88
2, 103680, Note_on_c, 0, 91, 88
2, 103920, Note_on_c, 0, 91, 0
2, 103920, Note_on_c, 0, 79, 0
2, 103920, Control_c, 0, 64, 0
2, 103920, Note_on_c, 0, 86, 88
2, 104160, Note_on_c, 0, 86, 0
2, 104160, Note_on_c, 0, 79, 88
2, 104160, Note_on_c, 0, 91, 88
2, 105120, Note_on_c, 0, 91, 0
2, 105120, Note_on_c, 0, 79, 0
2, 105120, Note_on_c, 0, 74, 88
2, 105120, Note_on_c, 0, 86, 88
2, 105600, Note_on_c, 0, 86, 0
2, 105600, Note_on_c, 0, 74, 0
2, 105600, Note_on_c, 0, 79, 88
2, 105600, Note_on_c, 0, 91, 88
2, 107280, Note_on_c, 0, 91, 0
2, 107280, Note_on_c, 0, 79, 0
2, 107280, Note_on_c, 0, 78, 88
2, 107280, Note_on_c, 0, 90, 88
2, 107520, Note_on_c, 0, 90, 0
2, 107520, Note_on_c, 0, 78, 0
2, 107520, Control_c, 0, 64, 127
2, 107520, Note_on_c, 0, 74, 88
2, 107520, Note_on_c, 0, 86, 88
2, 107760, Note_on_c, 0, 86, 0
2, 107760, Note_on_c, 0, 74, 0
2, 107760, Note_on_c, 0, 81, 88
2, 108000, Note_on_c, 0, 81, 0
2, 108000, Note_on_c, 0, 78, 88
2, 108240, Note_on_c, 0, 78, 0
2, 108240, Control_c, 0, 64, 0
2, 108240, Note_on_c, 0, 74, 88
2, 108480, Note_on_c, 0, 74, 0
2, 108480, Control_c, 0, 64, 127
2, 108480, Note_on_c, 0, 73, 88
2, 108720, Note_on_c, 0, 73, 0
2, 108720, Note_on_c, 0, 76, 88
2, 108960, Note_on_c, 0, 76, 0
2, 108960, Note_on_c, 0, 81, 88
2, 109200, Note_on_c, 0, 81, 0
2, 109200, Note_on_c, 0, 85, 88
2, 109440, Note_on_c, 0, 85, 0
2, 109440, Note_on_c, 0, 78, 88
2, 109440, Note_on_c, 0, 90, 88
2, 109680, Note_on_c, 0, 90, 0
2, 109680, Note_on_c, 0, 78, 0
2, 109680, Control_c, 0, 64, 0
2, 109680, Note_on_c, 0, 76, 88
2, 109680, Note_on_c, 0, 88, 88
2, 109920, Note_on_c, 0, 88, 0
2, 109920, Note_on_c, 0, 76, 0
2, 109920, Control_c, 0, 64, 127
2, 109920, Note_on_c, 0, 73, 88
2, 109920, Note_on_c, 0, 85, 88
2, 110160, Note_on_c, 0, 85, 0
2, 110160, Note_on_c, 0, 73, 0
2, 110160, Note_on_c, 0, 74, 88
2, 110160, Note_on_c, 0, 86, 88
2, 110400, Note_on_c, 0, 86, 0
2, 110400, Note_on_c, 0, 74, 0
2, 110400, Note_on_c, 0, 78, 88
2, 110400, Note_on_c, 0, 90, 88
2, 110640, Note_on_c, 0, 90, 0
2, 110640, Note_on_c, 0, 78, 0
2, 110640, Note_on_c, 0, 76, 88
2, 110640, Note_on_c, 0, 88, 88
2, 110880, Note_on_c, 0, 88, 0
2, 110880, Note_on_c, 0, 76, 0
2, 110880, Control_c, 0, 64, 0
2, 110880, Note_on_c, 0, 74, 88
2, 110880, Note_on_c, 0, 86, 88
2, 111120, Note_on_c, 0, 86, 0
2, 111120, Note_on_c, 0, 74, 0
2, 111360, Control_c, 0, 64, 127
2, 111360, Note_on_c, 0, 76, 101
2, 111600, Note_on_c, 0, 76, 0
2, 111600, Note_on_c, 0, 71, 101
2, 111840, Note_on_c, 0, 71, 0
2, 111840, Note_on_c, 0, 68, 101
2, 112080, Note_on_c, 0, 68, 0
2, 112080, Note_on_c, 0, 64, 101
2, 112320, Note_on_c, 0, 64, 0
2, 112320, Note_on_c, 0, 69, 101
2, 112560, Note_on_c, 0, 69, 0
2, 112560, Note_on_c, 0, 73, 101
2, 112800, Note_on_c, 0, 73, 0
2, 112800, Control_c, 0, 64, 0
2, 112800, Note_on_c, 0, 76, 101
2, 113040, Note_on_c, 0, 76, 0
2, 113280, Note_on_c, 0, 64, 101
2, 113280, Note_on_c, 0, 68, 101
2, 113280, Note_on_c, 0, 71, 101
2, 113280, Note_on_c, 0, 76, 101
2, 113520, Note_on_c, 0, 76, 0
2, 113520, Note_on_c, 0, 64, 0
2, 113520, Note_on_c, 0, 68, 0
2, 113520, Note_on_c, 0, 71, 0
2, 113760, Note_on_c, 0, 64, 101
2, 113760, Note_on_c, 0, 69, 101
2, 113760, Note_on_c, 0, 73, 101
2, 113760, Note_on_c, 0, 76, 101
2, 114000, Note_on_c, 0, 76, 0
2, 114000, Note_on_c, 0, 64, 0
2, 114000, Note_on_c, 0, 69, 0
2, 114000, Note_on_c, 0, 73, 0
2, 114180, Note_on_c, 0, 78, 101
2, 114180, Note_on_c, 0, 90, 101
2, 114240, Note_on_c, 0, 90, 0
2, 114240, Note_on_c, 0, 78, 0
2, 114240, Note_on_c, 0, 76, 101
2, 114240, Note_on_c, 0, 88, 101
2, 114480, Note_on_c, 0, 88, 0
2, 114480, Note_on_c, 0, 76, 0
2, 114720, Note_on_c, 0, 64, 101
2, 114720, Note_on_c, 0, 70, 101
2, 114720, Note_on_c, 0, 73, 101
2, 114720, Note_on_c, 0, 76, 101
2, 114960, Note_on_c, 0, 76, 0
2, 114960, Note_on_c, 0, 64, 0
2, 114960, Note_on_c, 0, 70, 0
2, 114960, Note_on_c, 0, 73, 0
2, 115200, Note_on_c, 0, 64, 101
2, 115200, Note_on_c, 0, 71, 101
2, 115200, Note_on_c, 0, 74, 101
2, 115200, Note_on_c, 0, 76, 101
2, 115440, Note_on_c, 0, 76, 0
2, 115440, Note_on_c, 0, 64, 0
2, 115440, Note_on_c, 0, 71, 0
2, 115440, Note_on_c, 0, 74, 0
2, 115620, Note_on_c, 0, 78, 101
2, 115620, Note_on_c, 0, 90, 101
2, 115680, Note_on_c, 0, 90, 0
2, 115680, Note_on_c, 0, 78, 0
2, 115680, Note_on_c, 0, 76, 101
2, 115680, Note_on_c, 0, 88, 101
2, 115920, Note_on_c, 0, 88, 0
2, 115920, Note_on_c, 0, 76, 0
2, 116160, Note_on_c, 0, 64, 101
2, 116160, Note_on_c, 0, 69, 101
2, 116160, Note_on_c, 0, 72, 101
2, 116160, Note_on_c, 0, 76, 101
2, 116400, Note_on_c, 0, 76, 0
2, 116400, Note_on_c, 0, 64, 0
2, 116400, Note_on_c, 0, 69, 0
2, 116400, Note_on_c, 0, 72, 0
2, 116640, Note_on_c, 0, 64, 101
2, 116640, Note_on_c, 0, 69, 101
2, 116640, Note_on_c, 0, 73, 101
2, 116640, Note_on_c, 0, 76, 101
2, 116880, Note_on_c, 0, 76, 0
2, 116880, Note_on_c, 0, 64, 0
2, 116880, Note_on_c, 0, 69, 0
2, 116880, Note_on_c, 0, 73, 0
2, 117120, Control_c, 0, 64, 127
2, 117120, Note_on_c, 0, 76, 101
2, 117360, Note_on_c, 0, 76, 0
2, 117360, Note_on_c, 0, 71, 101
2, 117600, Note_on_c, 0, 71, 0
2, 117600, Note_on_c, 0, 68, 101
2, 117840, Note_on_c, 0, 68, 0
2, 117840, Note_on_c, 0, 64, 101
2, 118080, Note_on_c, 0, 64, 0
2, 118080, Note_on_c, 0, 69, 101
2, 118320, Note_on_c, 0, 69, 0
2, 118320, Note_on_c, 0, 73, 101
2, 118560, Note_on_c, 0, 73, 0
2, 118560, Control_c, 0, 64, 0
2, 118560, Note_on_c, 0, 76, 101
2, 118800, Note_on_c, 0, 76, 0
2, 119040, Note_on_c, 0, 64, 101
2, 119040, Note_on_c, 0, 68, 101
2, 119040, Note_on_c, 0, 71, 101
2, 119040, Note_on_c, 0, 76, 101
2, 119280, Note_on_c, 0, 76, 0
2, 119280, Note_on_c, 0, 64, 0
2, 119280, Note_on_c, 0, 68, 0
2, 119280, Note_on_c, 0, 71, 0
2, 119520, Note_on_c, 0, 64, 101
2, 119520, Note_on_c, 0, 69, 101
2, 119520, Note_on_c, 0, 73, 101
2, 119520, Note_on_c, 0, 76, 101
2, 119760, Note_on_c, 0, 76, 0
2, 119760, Note_on_c, 0, 64, 0
2, 119760, Note_on_c, 0, 69, 0
2, 119760, Note_on_c, 0, 73, 0
2, 119940, Note_on_c, 0, 78, 101
2, 119940, Note_on_c, 0, 90, 101
2, 120000, Note_on_c, 0, 90, 0
2, 120000, Note_on_c, 0, 78, 0
2, 120000, Note_on_c, 0, 76, 101
2, 120000, Note_on_c, 0, 88, 101
2, 120240, Note_on_c, 0, 88, 0
2, 120240, Note_on_c, 0, 76, 0
2, 120480, Note_on_c, 0, 64, 101
2, 120480, Note_on_c, 0, 70, 101
2, 120480, Note_on_c, 0, 73, 101
2, 120480, Note_on_c, 0, 76, 101
2, 120720, Note_on_c, 0, 76, 0
2, 120720, Note_on_c, 0, 64, 0
2, 120720, Note_on_c, 0, 70, 0
2, 120720, Note_on_c, 0, 73, 0
2, 120960, Note_on_c, 0, 64, 101
2, 120960, Note_on_c, 0, 71, 101
2, 120960, Note_on_c, 0, 74, 101
2, 120960, Note_on_c, 0, 76, 101
2, 121200, Note_on_c, 0, 76, 0
2, 121200, Note_on_c, 0, 64, 0
2, 121200, Note_on_c, 0, 71, 0
2, 121200, Note_on_c, 0, 74, 0
2, 121380, Note_on_c, 0, 78, 101
2, 121380, Note_on_c, 0, 90, 101
2, 121440, Note_on_c, 0, 90, 0
2, 121440, Note_on_c, 0, 78, 0
2, 121440, Note_on_c, 0, 76, 101
2, 121440, Note_on_c, 0, 88, 101
2, 121680, Note_on_c, 0, 88, 0
2, 121680, Note_on_c, 0, 76, 0
2, 121920, Note_on_c, 0, 64, 101
2, 121920, Note_on_c, 0, 69, 101
2, 121920, Note_on_c, 0, 72, 101
2, 121920, Note_on_c, 0, 76, 101
2, 122160, Note_on_c, 0, 76, 0
2, 122160, Note_on_c, 0, 64, 0
2, 122160, Note_on_c, 0, 69, 0
2, 122160, Note_on_c, 0, 72, 0
2, 122400, Note_on_c, 0, 64, 101
2, 122400, Note_on_c, 0, 69, 101
2, 122400, Note_on_c, 0, 73, 101
2, 122400, Note_on_c, 0, 76, 101
2, 122640, Note_on_c, 0, 76, 0
2, 122640, Note_on_c, 0, 64, 0
2, 122640, Note_on_c, 0, 69, 0
2, 122640, Note_on_c, 0, 73, 0
2, 122880, Control_c, 0, 64, 127
2, 122880, Note_on_c, 0, 76, 88
2, 123120, Note_on_c, 0, 76, 0
2, 123120, Note_on_c, 0, 71, 88
2, 123360, Note_on_c, 0, 71, 0
2, 123360, Note_on_c, 0, 68, 88
2, 123600, Note_on_c, 0, 68, 0
2, 123600, Note_on_c, 0, 64, 88
2, 123840, Note_on_c, 0, 64, 0
2, 123840, Note_on_c, 0, 69, 88
2, 124080, Note_on_c, 0, 69, 0
2, 124080, Note_on_c, 0, 73, 88
2, 124320, Note_on_c, 0, 73, 0
2, 124320, Control_c, 0, 64, 0
2, 124320, Note_on_c, 0, 76, 88
2, 124560, Note_on_c, 0, 76, 0
2, 124800, Note_on_c, 0, 64, 88
2, 124800, Note_on_c, 0, 68, 88
2, 124800, Note_on_c, 0, 71, 88
2, 124800, Note_on_c, 0, 76, 88
2, 125040, Note_on_c, 0, 76, 0
2, 125040, Note_on_c, 0, 64, 0
2, 125040, Note_on_c, 0, 68, 0
2, 125040, Note_on_c, 0, 71, 0
2, 125280, Note_on_c, 0, 64, 88
2, 125280, Note_on_c, 0, 69, 88
2, 125280, Note_on_c, 0, 72, 88
2, 125280, Note_on_c, 0, 76, 88
2, 125520, Note_on_c, 0, 76, 0
2, 125520, Note_on_c, 0, 64, 0
2, 125520, Note_on_c, 0, 69, 0
2, 125520, Note_on_c, 0, 72, 0
2, 125700, Note_on_c, 0, 78, 88
2, 125700, Note_on_c, 0, 90, 88
2, 125760, Note_on_c, 0, 90, 0
2, 125760, Note_on_c, 0, 78, 0
2, 125760, Note_on_c, 0, 76, 88
2, 125760, Note_on_c, 0, 88, 88
2, 126000, Note_on_c, 0, 88, 0
2, 126000, Note_on_c, 0, 76, 0
2, 126240, Note_on_c, 0, 64, 88
2, 126240, Note_on_c, 0, 70, 88
2, 126240, Note_on_c, 0, 73, 88
2, 126240, Note_on_c, 0, 76, 88
2, 126480, Note_on_c, 0, 76, 0
2, 126480, Note_on_c, 0, 64, 0
2, 126480, Note_on_c, 0, 70, 0
2, 126480, Note_on_c, 0, 73, 0
2, 126720, Note_on_c, 0, 64, 88
2, 126720, Note_on_c, 0, 71, 88
2, 126720, Note_on_c, 0, 74, 88
2, 126720, Note_on_c, 0, 76, 88
2, 126960, Note_on_c, 0, 76, 0
2, 126960, Note_on_c, 0, 64, 0
2, 126960, Note_on_c, 0, 71, 0
2, 126960, Note_on_c, 0, 74, 0
2, 127140, Note_on_c, 0, 78, 88
2, 127140, Note_on_c, 0, 90, 88
2, 127200, Note_on_c, 0, 90, 0
2, 127200, Note_on_c, 0, 78, 0
2, 127200, Note_on_c, 0, 76, 88
2, 127200, Note_on_c, 0, 88, 88
2, 127440, Note_on_c, 0, 88, 0
2, 127440, Note_on_c, 0, 76, 0
2, 127680, Note_on_c, 0, 64, 88
2, 127680, Note_on_c, 0, 69, 88
2, 127680, Note_on_c, 0, 72, 88
2, 127680, Note_on_c, 0, 76, 88
2, 127920, Note_on_c, 0, 76, 0
2, 127920, Note_on_c, 0, 64, 0
2, 127920, Note_on_c, 0, 69, 0
2, 127920, Note_on_c, 0, 72, 0
2, 128160, Note_on_c, 0, 64, 88
2, 128160, Note_on_c, 0, 69, 88
2, 128160, Note_on_c, 0, 73, 88
2, 128160, Note_on_c, 0, 76, 88
2, 128400, Note_on_c, 0, 76, 0
2, 128400, Note_on_c, 0, 64, 0
2, 128400, Note_on_c, 0, 69, 0
2, 128400, Note_on_c, 0, 73, 0
2, 128640, Control_c, 0, 64, 127
2, 128640, Note_on_c, 0, 76, 88
2, 128880, Note_on_c, 0, 76, 0
2, 128880, Note_on_c, 0, 69, 88
2, 129120, Note_on_c, 0, 69, 0
2, 129120, Note_on_c, 0, 66, 88
2, 129360, Note_on_c, 0, 66, 0
2, 129360, Note_on_c, 0, 64, 88
2, 129600, Note_on_c, 0, 64, 0
2, 129600, Note_on_c, 0, 66, 88
2, 129840, Note_on_c, 0, 66, 0
2, 129840, Note_on_c, 0, 69, 88
2, 130080, Note_on_c, 0, 69, 0
2, 130080, Control_c, 0, 64, 0
2, 130080, Note_on_c, 0, 76, 88
2, 130320, Note_on_c, 0, 76, 0
2, 130560, Note_on_c, 0, 64, 88
2, 130560, Note_on_c, 0, 68, 88
2, 130560, Note_on_c, 0, 71, 88
2, 130560, Note_on_c, 0, 76, 88
2, 130800, Note_on_c, 0, 76, 0
2, 130800, Note_on_c, 0, 64, 0
2, 130800, Note_on_c, 0, 68, 0
2, 130800, Note_on_c, 0, 71, 0
2, 131040, Note_on_c, 0, 64, 88
2, 131040, Note_on_c, 0, 67, 88
2, 131040, Note_on_c, 0, 71, 88
2, 131040, Note_on_c, 0, 76, 88
2, 131280, Note_on_c, 0, 76, 0
2, 131280, Note_on_c, 0, 64, 0
2, 131280, Note_on_c, 0, 67, 0
2, 131280, Note_on_c, 0, 71, 0
2, 131460, Note_on_c, 0, 70, 88
2, 131460, Note_on_c, 0, 82, 88
2, 131520, Note_on_c, 0, 82, 0
2, 131520, Note_on_c, 0, 70, 0
2, 131520, Note_on_c, 0, 71, 88
2, 131520, Note_on_c, 0, 83, 88
2, 131760, Note_on_c, 0, 83, 0
2, 131760, Note_on_c, 0, 71, 0
2, 132000, Note_on_c, 0, 64, 88
2, 132000, Note_on_c, 0, 67, 88
2, 132000, Note_on_c, 0, 70, 88
2, 132000, Note_on_c, 0, 76, 88
2, 132240, Note_on_c, 0, 76, 0
2, 132240, Note_on_c, 0, 64, 0
2, 132240, Note_on_c, 0, 67, 0
2, 132240, Note_on_c, 0, 70, 0
2, 132480, Note_on_c, 0, 64, 88
2, 132480, Note_on_c, 0, 66, 88
2, 132480, Note_on_c, 0, 70, 88
2, 132480, Note_on_c, 0, 76, 88
2, 132720, Note_on_c, 0, 76, 0
2, 132720, Note_on_c, 0, 64, 0
2, 132720, Note_on_c, 0, 66, 0
2, 132720, Note_on_c, 0, 70, 0
2, 132900, Note_on_c, 0, 70, 88
2, 132900, Note_on_c, 0, 82, 88
2, 132960, Note_on_c, 0, 82, 0
2, 132960, Note_on_c, 0, 70, 0
2, 132960, Note_on_c, 0, 71, 88
2, 132960, Note_on_c, 0, 83, 88
2, 133200, Note_on_c, 0, 83, 0
2, 133200, Note_on_c, 0, 71, 0
2, 133440, Note_on_c, 0, 71, 88
2, 133440, Note_on_c, 0, 75, 88
2, 133440, Note_on_c, 0, 78, 88
2, 133440, Note_on_c, 0, 83, 88
2, 133680, Note_on_c, 0, 83, 0
2, 133680, Note_on_c, 0, 71, 0
2, 133680, Note_on_c, 0, 75, 0
2, 133680, Note_on_c, 0, 78, 0
2, 133920, Note_on_c, 0, 64, 88
2, 133920, Note_on_c, 0, 76, 88
2, 134160, Note_on_c, 0, 76, 0
2, 134160, Note_on_c, 0, 64, 0
2, 134400, Note_on_c, 0, 78, 62
2, 136080, Note_on_c, 0, 78, 0
2, 136080, Note_on_c, 0, 76, 62
2, 136320, Note_on_c, 0, 76, 0
2, 136320, Control_c, 0, 64, 127
2, 136320, Note_on_c, 0, 74, 62
2, 136560, Note_on_c, 0, 74, 0
2, 136560, Note_on_c, 0, 71, 62
2, 136800, Note_on_c, 0, 71, 0
2, 136800, Note_on_c, 0, 68, 62
2, 137040, Note_on_c, 0, 68, 0
2, 137040, Control_c, 0, 64, 0
2, 137040, Note_on_c, 0, 66, 62
2, 137280, Note_on_c, 0, 66, 0
2, 137280, Control_c, 0, 64, 127
2, 137280, Note_on_c, 0, 64, 62
2, 137520, Note_on_c, 0, 64, 0
2, 137520, Note_on_c, 0, 66, 62
2, 137760, Note_on_c, 0, 66, 0
2, 137760, Note_on_c, 0, 69, 62
2, 138000, Note_on_c, 0, 69, 0
2, 138000, Note_on_c, 0, 73, 62
2, 138240, Note_on_c, 0, 73, 0
2, 138240, Note_on_c, 0, 78, 62
2, 138480, Note_on_c, 0, 78, 0
2, 138480, Control_c, 0, 64, 0
2, 138480, Note_on_c, 0, 73, 62
2, 138720, Note_on_c, 0, 73, 0
2, 138720, Note_on_c, 0, 78, 62
2, 139680, Note_on_c, 0, 78, 0
2, 139680, Note_on_c, 0, 73, 62
2, 140160, Note_on_c, 0, 73, 0
2, 140160, Note_on_c, 0, 78, 75
2, 141840, Note_on_c, 0, 78, 0
2, 141840, Note_on_c, 0, 76, 75
2, 142080, Note_on_c, 0, 76, 0
2, 142080, Control_c, 0, 64, 127
2, 142080, Note_on_c, 0, 74, 75
2, 142320, Note_on_c, 0, 74, 0
2, 142320, Note_on_c, 0, 71, 75
2, 142560, Note_on_c, 0, 71, 0
2, 142560, Note_on_c, 0, 68, 75
2, 142800, Note_on_c, 0, 68, 0
2, 142800, Control_c, 0, 64, 0
2, 142800, Note_on_c, 0, 66, 75
2, 143040, Note_on_c, 0, 66, 0
2, 143040, Control_c, 0, 64, 127
2, 143040, Note_on_c, 0, 64, 75
2, 143280, Note_on_c, 0, 64, 0
2, 143280, Note_on_c, 0, 66, 75
2, 143520, Note_on_c, 0, 66, 0
2, 143520, Note_on_c, 0, 69, 75
2, 143760, Note_on_c, 0, 69, 0
2, 143760, Note_on_c, 0, 73, 75
2, 144000, Note_on_c, 0, 73, 0
2, 144000, Note_on_c, 0, 78, 75
2, 144240, Note_on_c, 0, 78, 0
2, 144240, Control_c, 0, 64, 0
2, 144240, Note_on_c, 0, 73, 75
2, 144480, Note_on_c, 0, 73, 0
2, 144480, Note_on_c, 0, 78, 75
2, 145440, Note_on_c, 0, 78, 0
2, 145440, Note_on_c, 0, 73, 75
2, 145920, Note_on_c, 0, 73, 0
2, 145920, Note_on_c, 0, 78, 75
2, 147600, Note_on_c, 0, 78, 0
2, 147600, Note_on_c, 0, 75, 75
2, 147840, Note_on_c, 0, 75, 0
2, 147840, Control_c, 0, 64, 127
2, 147840, Note_on_c, 0, 72, 75
2, 148080, Note_on_c, 0, 72, 0
2, 148080, Note_on_c, 0, 66, 75
2, 148320, Note_on_c, 0, 66, 0
2, 148320, Note_on_c, 0, 63, 75
2, 148560, Note_on_c, 0, 63, 0
2, 148560, Control_c, 0, 64, 0
2, 148560, Note_on_c, 0, 60, 75
2, 148800, Note_on_c, 0, 60, 0
2, 148800, Control_c, 0, 64, 127
2, 148800, Note_on_c, 0, 63, 75
2, 149040, Note_on_c, 0, 63, 0
2, 149040, Note_on_c, 0, 67, 75
2, 149280, Note_on_c, 0, 67, 0
2, 149280, Note_on_c, 0, 72, 75
2, 149520, Note_on_c, 0, 72, 0
2, 149520, Note_on_c, 0, 75, 75
2, 149760, Note_on_c, 0, 75, 0
2, 149760, Note_on_c, 0, 79, 75
2, 150000, Note_on_c, 0, 79, 0
2, 150000, Control_c, 0, 64, 0
2, 150000, Note_on_c, 0, 75, 75
2, 150240, Note_on_c, 0, 75, 0
2, 150240, Note_on_c, 0, 79, 88
2, 151200, Note_on_c, 0, 79, 0
2, 151200, Note_on_c, 0, 74, 88
2, 151680, Note_on_c, 0, 74, 0
2, 151680, Control_c, 0, 64, 127
2, 151680, Note_on_c, 0, 79, 88
2, 152400, Note_on_c, 0, 79, 0
2, 152400, Note_on_c, 0, 73, 88
2, 152640, Note_on_c, 0, 73, 0
2, 152640, Note_on_c, 0, 70, 88
2, 152880, Note_on_c, 0, 70, 0
2, 152880, Control_c, 0, 64, 0
2, 152880, Note_on_c, 0, 67, 88
2, 153120, Note_on_c, 0, 67, 0
2, 153120, Control_c, 0, 64, 127
2, 153120, Note_on_c, 0, 79, 88
2, 153840, Note_on_c, 0, 79, 0
2, 153840, Note_on_c, 0, 72, 88
2, 154080, Note_on_c, 0, 72, 0
2, 154080, Note_on_c, 0, 69, 88
2, 154320, Note_on_c, 0, 69, 0
2, 154320, Control_c, 0, 64, 0
2, 154320, Note_on_c, 0, 67, 88
2, 154560, Note_on_c, 0, 67, 0
2, 154560, Control_c, 0, 64, 127
2, 154560, Note_on_c, 0, 79, 88
2, 155280, Note_on_c, 0, 79, 0
2, 155280, Note_on_c, 0, 74, 101
2, 155520, Note_on_c, 0, 74, 0
2, 155520, Note_on_c, 0, 71, 101
2, 155760, Note_on_c, 0, 71, 0
2, 155760, Control_c, 0, 64, 0
2, 155760, Note_on_c, 0, 67, 101
2, 156000, Note_on_c, 0, 67, 0
2, 156000, Control_c, 0, 64, 127
2, 156000, Note_on_c, 0, 79, 101
2, 156720, Note_on_c, 0, 79, 0
2, 156720, Note_on_c, 0, 75, 101
2, 156960, Note_on_c, 0, 75, 0
2, 156960, Note_on_c, 0, 72, 101
2, 157200, Note_on_c, 0, 72, 0
2, 157200, Control_c, 0, 64, 0
2, 157200, Note_on_c, 0, 67, 101
2, 157440, Note_on_c, 0, 67, 0
2, 158640, Control_c, 0, 64, 127
2, 158640, Note_on_c, 0, 59, 101
2, 158880, Note_on_c, 0, 59, 0
2, 158880, Note_on_c, 0, 60, 101
2, 159120, Note_on_c, 0, 60, 0
2, 159120, Note_on_c, 0, 62, 101
2, 159360, Note_on_c, 0, 62, 0
2, 159360, Note_on_c, 0, 63, 101
2, 159600, Note_on_c, 0, 63, 0
2, 159600, Note_on_c, 0, 65, 101
2, 159840, Note_on_c, 0, 65, 0
2, 159840, Control_c, 0, 64, 0
2, 159840, Note_on_c, 0, 67, 101
2, 160080, Note_on_c, 0, 67, 0
2, 160080, Control_c, 0, 64, 127
2, 160080, Note_on_c, 0, 63, 101
2, 160320, Note_on_c, 0, 63, 0
2, 160320, Note_on_c, 0, 65, 101
2, 160560, Note_on_c, 0, 65, 0
2, 160560, Note_on_c, 0, 67, 101
2, 160800, Note_on_c, 0, 67, 0
2, 160800, Note_on_c, 0, 69, 101
2, 161040, Note_on_c, 0, 69, 0
2, 161040, Note_on_c, 0, 71, 101
2, 161280, Note_on_c, 0, 71, 0
2, 161280, Control_c, 0, 64, 0
2, 161280, Note_on_c, 0, 72, 101
2, 161520, Note_on_c, 0, 72, 0
2, 161520, Control_c, 0, 64, 127
2, 161520, Note_on_c, 0, 67, 101
2, 161760, Note_on_c, 0, 67, 0
2, 161760, Note_on_c, 0, 69, 101
2, 162000, Note_on_c, 0, 69, 0
2, 162000, Note_on_c, 0, 71, 101
2, 162240, Note_on_c, 0, 71, 0
2, 162240, Note_on_c, 0, 72, 101
2, 162480, Note_on_c, 0, 72, 0
2, 162480, Note_on_c, 0, 74, 101
2, 162720, Note_on_c, 0, 74, 0
2, 162720, Control_c, 0, 64, 0
2, 162720, Note_on_c, 0, 75, 101
2, 162960, Note_on_c, 0, 75, 0
2, 162960, Control_c, 0, 64, 127
2, 162960, Note_on_c, 0, 71, 101
2, 163200, Note_on_c, 0, 71, 0
2, 163200, Note_on_c, 0, 72, 101
2, 163440, Note_on_c, 0, 72, 0
2, 163440, Note_on_c, 0, 74, 101
2, 163680, Note_on_c, 0, 74, 0
2, 163680, Note_on_c, 0, 75, 101
2, 163920, Note_on_c, 0, 75, 0
2, 163920, Control_c, 0, 64, 0
2, 163920, Note_on_c, 0, 77, 101
2, 164160, Note_on_c, 0, 77, 0
2, 164160, Note_on_c, 0, 79, 101
2, 165840, Note_on_c, 0, 79, 0
2, 165840, Note_on_c, 0, 77, 101
2, 166080, Note_on_c, 0, 77, 0
2, 166080, Control_c, 0, 64, 127
2, 166080, Note_on_c, 0, 75, 101
2, 166320, Note_on_c, 0, 75, 0
2, 166320, Note_on_c, 0, 72, 101
2, 166560, Note_on_c, 0, 72, 0
2, 166560, Note_on_c, 0, 69, 101
2, 166800, Note_on_c, 0, 69, 0
2, 166800, Control_c, 0, 64, 0
2, 166800, Note_on_c, 0, 63, 101
2, 167040, Note_on_c, 0, 63, 0
2, 167040, Control_c, 0, 64, 127
2, 167040, Note_on_c, 0, 62, 101
2, 167280, Note_on_c, 0, 62, 0
2, 167280, Note_on_c, 0, 65, 101
2, 167520, Note_on_c, 0, 65, 0
2, 167520, Note_on_c, 0, 70, 101
2, 167760, Note_on_c, 0, 70, 0
2, 167760, Note_on_c, 0, 74, 101
2, 168000, Note_on_c, 0, 74, 0
2, 168000, Note_on_c, 0, 79, 101
2, 168240, Note_on_c, 0, 79, 0
2, 168240, Control_c, 0, 64, 0
2, 168240, Note_on_c, 0, 74, 101
2, 168480, Note_on_c, 0, 74, 0
2, 168480, Note_on_c, 0, 79, 101
2, 169440, Note_on_c, 0, 79, 0
2, 169440, Note_on_c, 0, 74, 101
2, 169920, Note_on_c, 0, 74, 0
2, 169920, Note_on_c, 0, 79, 101
2, 171600, Note_on_c, 0, 79, 0
2, 171600, Note_on_c, 0, 77, 101
2, 171840, Note_on_c, 0, 77, 0
2, 171840, Control_c, 0, 64, 127
2, 171840, Note_on_c, 0, 75, 101
2, 172080, Note_on_c, 0, 75, 0
2, 172080, Note_on_c, 0, 72, 101
2, 172320, Note_on_c, 0, 72, 0
2, 172320, Note_on_c, 0, 69, 101
2, 172560, Note_on_c, 0, 69, 0
2, 172560, Control_c, 0, 64, 0
2, 172560, Note_on_c, 0, 63, 101
2, 172800, Note_on_c, 0, 63, 0
2, 172800, Control_c, 0, 64, 127
2, 172800, Note_on_c, 0, 61, 101
2, 173040, Note_on_c, 0, 61, 0
2, 173040, Note_on_c, 0, 62, 101
2, 173280, Note_on_c, 0, 62, 0
2, 173280, Note_on_c, 0, 65, 101
2, 173520, Note_on_c, 0, 65, 0
2, 173520, Note_on_c, 0, 70, 101
2, 173760, Note_on_c, 0, 70, 0
2, 173760, Note_on_c, 0, 75, 101
2, 174000, Note_on_c, 0, 75, 0
2, 174000, Control_c, 0, 64, 0
2, 174000, Note_on_c, 0, 74, 101
2, 174240, Note_on_c, 0, 74, 0
2, 174240, Control_c, 0, 64, 127
2, 174240, Note_on_c, 0, 72, 101
2, 174480, Note_on_c, 0, 72, 0
2, 174480, Note_on_c, 0, 70, 101
2, 174720, Note_on_c, 0, 70, 0
2, 174720, Note_on_c, 0, 69, 101
2, 174960, Note_on_c, 0, 69, 0
2, 174960, Note_on_c, 0, 70, 101
2, 175200, Note_on_c, 0, 70, 0
2, 175200, Note_on_c, 0, 65, 101
2, 175440, Note_on_c, 0, 65, 0
2, 175440, Control_c, 0, 64, 0
2, 175440, Note_on_c, 0, 62, 101
2, 175680, Note_on_c, 0, 62, 0
2, 175680, Note_on_c, 0, 79, 101
2, 177360, Note_on_c, 0, 79, 0
2, 177360, Note_on_c, 0, 77, 101
2, 177600, Note_on_c, 0, 77, 0
2, 177600, Control_c, 0, 64, 127
2, 177600, Note_on_c, 0, 75, 101
2, 177840, Note_on_c, 0, 75, 0
2, 177840, Note_on_c, 0, 72, 101
2, 178080, Note_on_c, 0, 72, 0
2, 178080, Note_on_c, 0, 69, 101
2, 178320, Note_on_c, 0, 69, 0
2, 178320, Control_c, 0, 64, 0
2, 178320, Note_on_c, 0, 63, 101
2, 178560, Note_on_c, 0, 63, 0
2, 178560, Control_c, 0, 64, 127
2, 178560, Note_on_c, 0, 62, 101
2, 178800, Note_on_c, 0, 62, 0
2, 178800, Note_on_c, 0, 65, 101
2, 179040, Note_on_c, 0, 65, 0
2, 179040, Note_on_c, 0, 70, 101
2, 179280, Note_on_c, 0, 70, 0
2, 179280, Note_on_c, 0, 74, 101
2, 179520, Note_on_c, 0, 74, 0
2, 179520, Note_on_c, 0, 79, 101
2, 179760, Note_on_c, 0, 79, 0
2, 179760, Control_c, 0, 64, 0
2, 179760, Note_on_c, 0, 74, 101
2, 180000, Note_on_c, 0, 74, 0
2, 180000, Note_on_c, 0, 79, 101
2, 180960, Note_on_c, 0, 79, 0
2, 180960, Note_on_c, 0, 74, 101
2, 181440, Note_on_c, 0, 74, 0
2, 181440, Control_c, 0, 64, 127
2, 181440, Note_on_c, 0, 79, 101
2, 183120, Note_on_c, 0, 79, 0
2, 183120, Note_on_c, 0, 78, 101
2, 183360, Note_on_c, 0, 78, 0
2, 183360, Note_on_c, 0, 74, 101
2, 183600, Note_on_c, 0, 74, 0
2, 183600, Note_on_c, 0, 69, 101
2, 183840, Note_on_c, 0, 69, 0
2, 183840, Note_on_c, 0, 66, 101
2, 184080, Note_on_c, 0, 66, 0
2, 184080, Control_c, 0, 64, 0
2, 184080, Note_on_c, 0, 62, 101
2, 184320, Note_on_c, 0, 62, 0
2, 184320, Control_c, 0, 64, 127
2, 184320, Note_on_c, 0, 61, 101
2, 184560, Note_on_c, 0, 61, 0
2, 184560, Note_on_c, 0, 64, 101
2, 184800, Note_on_c, 0, 64, 0
2, 184800, Note_on_c, 0, 69, 101
2, 185040, Note_on_c, 0, 69, 0
2, 185040, Note_on_c, 0, 73, 101
2, 185280, Note_on_c, 0, 73, 0
2, 185280, Note_on_c, 0, 78, 101
2, 185520, Note_on_c, 0, 78, 0
2, 185520, Control_c, 0, 64, 0
2, 185520, Note_on_c, 0, 76, 101
2, 185760, Note_on_c, 0, 76, 0
2, 185760, Control_c, 0, 64, 127
2, 185760, Note_on_c, 0, 73, 101
2, 186000, Note_on_c, 0, 73, 0
2, 186000, Note_on_c, 0, 74, 101
2, 186240, Note_on_c, 0, 74, 0
2, 186240, Note_on_c, 0, 76, 101
2, 186480, Note_on_c, 0, 76, 0
2, 186480, Note_on_c, 0, 74, 101
2, 186720, Note_on_c, 0, 74, 0
2, 186720, Note_on_c, 0, 69, 101
2, 186960, Note_on_c, 0, 69, 0
2, 186960, Control_c, 0, 64, 0
2, 186960, Note_on_c, 0, 66, 101
2, 187200, Note_on_c, 0, 66, 0
2, 187200, Control_c, 0, 64, 127
2, 187200, Note_on_c, 0, 79, 101
2, 187200, Note_on_c, 0, 91, 101
2, 188880, Note_on_c, 0, 91, 0
2, 188880, Note_on_c, 0, 79, 0
2, 188880, Note_on_c, 0, 77, 101
2, 188880, Note_on_c, 0, 89, 101
2, 189120, Note_on_c, 0, 89, 0
2, 189120, Note_on_c, 0, 77, 0
2, 189120, Note_on_c, 0, 75, 101
2, 189120, Note_on_c, 0, 87, 101
2, 189360, Note_on_c, 0, 87, 0
2, 189360, Note_on_c, 0, 75, 0
2, 189360, Note_on_c, 0, 72, 101
2, 189360, Note_on_c, 0, 84, 101
2, 189600, Note_on_c, 0, 84, 0
2, 189600, Note_on_c, 0, 72, 0
2, 189600, Note_on_c, 0, 81, 101
2, 189840, Note_on_c, 0, 81, 0
2, 189840, Control_c, 0, 64, 0
2, 189840, Note_on_c, 0, 75, 101
2, 190080, Note_on_c, 0, 75, 0
2, 190080, Control_c, 0, 64, 127
2, 190080, Note_on_c, 0, 74, 101
2, 190320, Note_on_c, 0, 74, 0
2, 190320, Note_on_c, 0, 77, 101
2, 190560, Note_on_c, 0, 77, 0
2, 190560, Note_on_c, 0, 82, 101
2, 190800, Note_on_c, 0, 82, 0
2, 190800, Note_on_c, 0, 86, 101
2, 191040, Note_on_c, 0, 86, 0
2, 191040, Note_on_c, 0, 79, 101
2, 191040, Note_on_c, 0, 91, 101
2, 191280, Note_on_c, 0, 91, 0
2, 191280, Note_on_c, 0, 79, 0
2, 191280, Control_c, 0, 64, 0
2, 191280, Note_on_c, 0, 86, 101
2, 191520, Note_on_c, 0, 86, 0
2, 191520, Note_on_c, 0, 79, 101
2, 191520, Note_on_c, 0, 91, 101
2, 192480, Note_on_c, 0, 91, 0
2, 192480, Note_on_c, 0, 79, 0
2, 192480, Note_on_c, 0, 74, 101
2, 192480, Note_on_c, 0, 86, 101
2, 192960, Note_on_c, 0, 86, 0
2, 192960, Note_on_c, 0, 74, 0
2, 192960, Control_c, 0, 64, 127
2, 192960, Note_on_c, 0, 79, 101
2, 192960, Note_on_c, 0, 91, 101
2, 194640, Note_on_c, 0, 91, 0
2, 194640, Note_on_c, 0, 79, 0
2, 194640, Note_on_c, 0, 77, 101
2, 194640, Note_on_c, 0, 89, 101
2, 194880, Note_on_c, 0, 89, 0
2, 194880, Note_on_c, 0, 77, 0
2, 194880, Note_on_c, 0, 75, 101
2, 194880, Note_on_c, 0, 87, 101
2, 195120, Note_on_c, 0, 87, 0
2, 195120, Note_on_c, 0, 75, 0
2, 195120, Note_on_c, 0, 72, 101
2, 195120, Note_on_c, 0, 84, 101
2, 195360, Note_on_c, 0, 84, 0
2, 195360, Note_on_c, 0, 72, 0
2, 195360, Note_on_c, 0, 81, 101
2, 195600, Note_on_c, 0, 81, 0
2, 195600, Control_c, 0, 64, 0
2, 195600, Note_on_c, 0, 75, 101
2, 195840, Note_on_c, 0, 75, 0
2, 195840, Control_c, 0, 64, 127
2, 195840, Note_on_c, 0, 73, 101
2, 196080, Note_on_c, 0, 73, 0
2, 196080, Note_on_c, 0, 74, 101
2, 196320, Note_on_c, 0, 74, 0
2, 196320, Note_on_c, 0, 77, 101
2, 196560, Note_on_c, 0, 77, 0
2, 196560, Note_on_c, 0, 82, 101
2, 196800, Note_on_c, 0, 82, 0
2, 196800, Note_on_c, 0, 75, 101
2, 196800, Note_on_c, 0, 87, 101
2, 197040, Note_on_c, 0, 87, 0
2, 197040, Note_on_c, 0, 75, 0
2, 197040, Control_c, 0, 64, 0
2, 197040, Note_on_c, 0, 74, 101
2, 197040, Note_on_c, 0, 86, 101
2, 197280, Note_on_c, 0, 86, 0
2, 197280, Note_on_c, 0, 74, 0
2, 197280, Control_c, 0, 64, 127
2, 197280, Note_on_c, 0, 72, 101
2, 197280, Note_on_c, 0, 84, 101
2, 197520, Note_on_c, 0, 84, 0
2, 197520, Note_on_c, 0, 72, 0
2, 197520, Note_on_c, 0, 82, 101
2, 197760, Note_on_c, 0, 82, 0
2, 197760, Note_on_c, 0, 81, 101
2, 198000, Note_on_c, 0, 81, 0
2, 198000, Note_on_c, 0, 82, 101
2, 198240, Note_on_c, 0, 82, 0
2, 198240, Note_on_c, 0, 77, 101
2, 198480, Note_on_c, 0, 77, 0
2, 198480, Control_c, 0, 64, 0
2, 198480, Note_on_c, 0, 74, 101
2, 198720, Note_on_c, 0, 74, 0
2, 198720, Control_c, 0, 64, 127
2, 198720, Note_on_c, 0, 79, 101
2, 198720, Note_on_c, 0, 91, 101
2, 200400, Note_on_c, 0, 91, 0
2, 200400, Note_on_c, 0, 79, 0
2, 200400, Note_on_c, 0, 77, 101
2, 200400, Note_on_c, 0, 89, 101
2, 200640, Note_on_c, 0, 89, 0
2, 200640, Note_on_c, 0, 77, 0
2, 200640, Note_on_c, 0, 75, 101
2, 200640, Note_on_c, 0, 87, 101
2, 200880, Note_on_c, 0, 87, 0
2, 200880, Note_on_c, 0, 75, 0
2, 200880, Note_on_c, 0, 72, 101
2, 200880, Note_on_c, 0, 84, 101
2, 201120, Note_on_c, 0, 84, 0
2, 201120, Note_on_c, 0, 72, 0
2, 201120, Note_on_c, 0, 81, 101
2, 201360, Note_on_c, 0, 81, 0
2, 201360, Control_c, 0, 64, 0
2, 201360, Note_on_c, 0, 75, 101
2, 201600, Note_on_c, 0, 75, 0
2, 201600, Control_c, 0, 64, 127
2, 201600, Note_on_c, 0, 74, 101
2, 201840, Note_on_c, 0, 74, 0
2, 201840, Note_on_c, 0, 77, 101
2, 202080, Note_on_c, 0, 77, 0
2, 202080, Note_on_c, 0, 82, 101
2, 202320, Note_on_c, 0, 82, 0
2, 202320, Note_on_c, 0, 86, 101
2, 202560, Note_on_c, 0, 86, 0
2, 202560, Note_on_c, 0, 79, 101
2, 202560, Note_on_c, 0, 91, 101
2, 202800, Note_on_c, 0, 91, 0
2, 202800, Note_on_c, 0, 79, 0
2, 202800, Control_c, 0, 64, 0
2, 202800, Note_on_c, 0, 86, 101
2, 203040, Note_on_c, 0, 86, 0
2, 203040, Note_on_c, 0, 79, 101
2, 203040, Note_on_c, 0, 91, 101
2, 204000, Note_on_c, 0, 91, 0
2, 204000, Note_on_c, 0, 79, 0
2, 204000, Note_on_c, 0, 72, 101
2, 204000, Note_on_c, 0, 84, 101
2, 204480, Note_on_c, 0, 84, 0
2, 204480, Note_on_c, 0, 72, 0
2, 204480, Note_on_c, 0, 79, 101
2, 204480, Note_on_c, 0, 91, 101
2, 205440, Note_on_c, 0, 91, 0
2, 205440, Note_on_c, 0, 79, 0
2, 205440, Note_on_c, 0, 74, 101
2, 205440, Note_on_c, 0, 86, 101
2, 205920, Note_on_c, 0, 86, 0
2, 205920, Note_on_c, 0, 74, 0
2, 205920, Note_on_c, 0, 79, 101
2, 205920, Note_on_c, 0, 91, 101
2, 206880, Note_on_c, 0, 91, 0
2, 206880, Note_on_c, 0, 79, 0
2, 206880, Note_on_c, 0, 72, 101
2, 206880, Note_on_c, 0, 84, 101
2, 207360, Note_on_c, 0, 84, 0
2, 207360, Note_on_c, 0, 72, 0
2, 207360, Note_on_c, 0, 79, 101
2, 207360, Note_on_c, 0, 91, 101
2, 208320, Note_on_c, 0, 91, 0
2, 208320, Note_on_c, 0, 79, 0
2, 208320, Note_on_c, 0, 74, 101
2, 208320, Note_on_c, 0, 86, 101
2, 208800, Note_on_c, 0, 86, 0
2, 208800, Note_on_c, 0, 74, 0
2, 208800, Note_on_c, 0, 79, 101
2, 208800, Note_on_c, 0, 91, 101
2, 209760, Note_on_c, 0, 91, 0
2, 209760, Note_on_c, 0, 79, 0
2, 209760, Note_on_c, 0, 72, 101
2, 209760, Note_on_c, 0, 84, 101
2, 210240, Note_on_c, 0, 84, 0
2, 210240, Note_on_c, 0, 72, 0
2, 210240, Note_on_c, 0, 79, 101
2, 210240, Note_on_c, 0, 91, 101
2, 211200, Note_on_c, 0, 91, 0
2, 211200, Note_on_c, 0, 79, 0
2, 211200, Note_on_c, 0, 74, 101
2, 211200, Note_on_c, 0, 86, 101
2, 211680, Note_on_c, 0, 86, 0
2, 211680, Note_on_c, 0, 74, 0
2, 211680, Control_c, 0, 64, 127
2, 211680, Note_on_c, 0, 79, 101
2, 211680, Note_on_c, 0, 91, 101
2, 212400, Note_on_c, 0, 91, 0
2, 212400, Note_on_c, 0, 79, 0
2, 212400, Note_on_c, 0, 87, 101
2, 212640, Note_on_c, 0, 87, 0
2, 212640, Note_on_c, 0, 84, 101
2, 212880, Note_on_c, 0, 84, 0
2, 212880, Control_c, 0, 64, 0
2, 212880, Note_on_c, 0, 86, 101
2, 213120, Note_on_c, 0, 86, 0
2, 213120, Control_c, 0, 64, 127
2, 213120, Note_on_c, 0, 87, 101
2, 213360, Note_on_c, 0, 87, 0
2, 213360, Note_on_c, 0, 86, 101
2, 213600, Note_on_c, 0, 86, 0
2, 213600, Note_on_c, 0, 87, 101
2, 213840, Note_on_c, 0, 87, 0
2, 213840, Note_on_c, 0, 89, 101
2, 214080, Note_on_c, 0, 89, 0
2, 214080, Note_on_c, 0, 91, 101
2, 214320, Note_on_c, 0, 91, 0
2, 214320, Note_on_c, 0, 93, 101
2, 214560, Note_on_c, 0, 93, 0
2, 214560, Control_c, 0, 64, 0
2, 214560, Note_on_c, 0, 82, 127
2, 214560, Note_on_c, 0, 94, 127
2, 215040, Note_on_c, 0, 94, 0
2, 215040, Note_on_c, 0, 82, 0
2, 215040, Control_c, 0, 64, 127
2, 217920, Control_c, 0, 64, 0
2, 217920, End_track
3, 0, Start_track
3, 0, Title_t, "Grand Piano"
3, 0, Program_c, 0, 0
3, 0, Control_c, 0, 7, 115
3, 0, Control_c, 0, 10, 80
3, 10560, Note_on_c, 0, 65, 62
3, 10800, Note_on_c, 0, 65, 0
3, 10800, Note_on_c, 0, 65, 62
3, 10920, Note_on_c, 0, 65, 0
3, 10920, Note_on_c, 0, 59, 62
3, 11040, Note_on_c, 0, 59, 0
3, 20160, Note_on_c, 0, 70, 75
3, 20640, Note_on_c, 0, 70, 0
3, 27840, Note_on_c, 0, 70, 75
3, 28320, Note_on_c, 0, 70, 0
3, 35520, Note_on_c, 0, 70, 75
3, 36000, Note_on_c, 0, 70, 0
3, 37440, Note_on_c, 0, 70, 75
3, 37920, Note_on_c, 0, 70, 0
3, 150720, Note_on_c, 0, 67, 75
3, 152160, Note_on_c, 0, 67, 0
3, 152160, Note_on_c, 0, 67, 75
3, 153600, Note_on_c, 0, 67, 0
3, 153600, Note_on_c, 0, 67, 75
3, 155040, Note_on_c, 0, 67, 0
3, 155040, Note_on_c, 0, 67, 88
3, 156480, Note_on_c, 0, 67, 0
3, 156480, Note_on_c, 0, 67, 88
3, 157440, Note_on_c, 0, 67, 0
3, 164400, Control_c, 0, 64, 127
3, 164400, Note_on_c, 0, 72, 88
3, 164640, Note_on_c, 0, 72, 0
3, 164640, Note_on_c, 0, 75, 88
3, 164880, Note_on_c, 0, 75, 0
3, 164880, Note_on_c, 0, 72, 88
3, 165120, Note_on_c, 0, 72, 0
3, 165120, Note_on_c, 0, 67, 88
3, 165360, Note_on_c, 0, 67, 0
3, 165360, Note_on_c, 0, 72, 88
3, 165600, Note_on_c, 0, 72, 0
3, 165600, Control_c, 0, 64, 0
3, 165600, Note_on_c, 0, 75, 88
3, 165840, Note_on_c, 0, 75, 0
3, 170160, Control_c, 0, 64, 127
3, 170160, Note_on_c, 0, 72, 88
3, 170400, Note_on_c, 0, 72, 0
3, 170400, Note_on_c, 0, 75, 88
3, 170640, Note_on_c, 0, 75, 0
3, 170640, Note_on_c, 0, 72, 88
3, 170880, Note_on_c, 0, 72, 0
3, 170880, Note_on_c, 0, 67, 88
3, 171120, Note_on_c, 0, 67, 0
3, 171120, Note_on_c, 0, 72, 88
3, 171360, Note_on_c, 0, 72, 0
3, 171360, Control_c, 0, 64, 0
3, 171360, Note_on_c, 0, 75, 88
3, 171600, Note_on_c, 0, 75, 0
3, 175920, Control_c, 0, 64, 127
3, 175920, Note_on_c, 0, 72, 88
3, 176160, Note_on_c, 0, 72, 0
3, 176160, Note_on_c, 0, 75, 88
3, 176400, Note_on_c, 0, 75, 0
3, 176400, Note_on_c, 0, 72, 88
3, 176640, Note_on_c, 0, 72, 0
3, 176640, Note_on_c, 0, 67, 88
3, 176880, Note_on_c, 0, 67, 0
3, 176880, Note_on_c, 0, 72, 88
3, 177120, Note_on_c, 0, 72, 0
3, 177120, Control_c, 0, 64, 0
3, 177120, Note_on_c, 0, 75, 88
3, 177360, Note_on_c, 0, 75, 0
3, 181680, Control_c, 0, 64, 127
3, 181680, Note_on_c, 0, 74, 88
3, 181920, Note_on_c, 0, 74, 0
3, 181920, Note_on_c, 0, 69, 88
3, 182160, Note_on_c, 0, 69, 0
3, 182160, Note_on_c, 0, 62, 88
3, 182400, Note_on_c, 0, 62, 0
3, 182400, Note_on_c, 0, 69, 88
3, 182640, Note_on_c, 0, 69, 0
3, 182640, Note_on_c, 0, 74, 88
3, 182880, Note_on_c, 0, 74, 0
3, 182880, Control_c, 0, 64, 0
3, 182880, Note_on_c, 0, 79, 88
3, 183120, Note_on_c, 0, 79, 0
3, 183120, End_track
4, 0, Start_track
4, 0, Title_t, "Grand Piano"
4, 0, Program_c, 0, 0
4, 0, Control_c, 0, 7, 115
4, 0, Control_c, 0, 10, 41
4, 0, Note_on_c, 0, 39, 75
4, 120, Note_on_c, 0, 39, 0
4, 120, Note_on_c, 0, 55, 75
4, 240, Note_on_c, 0, 55, 0
4, 240, Note_on_c, 0, 51, 75
4, 480, Note_on_c, 0, 51, 0
4, 480, Note_on_c, 0, 39, 75
4, 600, Note_on_c, 0, 39, 0
4, 600, Note_on_c, 0, 55, 75
4, 720, Note_on_c, 0, 55, 0
4, 720, Note_on_c, 0, 51, 75
4, 960, Note_on_c, 0, 51, 0
4, 960, Note_on_c, 0, 39, 75
4, 1080, Note_on_c, 0, 39, 0
4, 1080, Note_on_c, 0, 55, 75
4, 1200, Note_on_c, 0, 55, 0
4, 1200, Note_on_c, 0, 51, 75
4, 1440, Note_on_c, 0, 51, 0
4, 1440, Note_on_c, 0, 39, 75
4, 1560, Note_on_c, 0, 39, 0
4, 1560, Note_on_c, 0, 55, 75
4, 1680, Note_on_c, 0, 55, 0
4, 1680, Note_on_c, 0, 51, 75
4, 1920, Note_on_c, 0, 51, 0
4, 1920, Note_on_c, 0, 39, 75
4, 2040, Note_on_c, 0, 39, 0
4, 2040, Note_on_c, 0, 55, 75
4, 2160, Note_on_c, 0, 55, 0
4, 2160, Note_on_c, 0, 51, 75
4, 2400, Note_on_c, 0, 51, 0
4, 2400, Note_on_c, 0, 39, 75
4, 2520, Note_on_c, 0, 39, 0
4, 2520, Note_on_c, 0, 55, 75
4, 2640, Note_on_c, 0, 55, 0
4, 2640, Note_on_c, 0, 51, 75
4, 2880, Note_on_c, 0, 51, 0
4, 2880, Note_on_c, 0, 39, 75
4, 3000, Note_on_c, 0, 39, 0
4, 3000, Note_on_c, 0, 55, 75
4, 3120, Note_on_c, 0, 55, 0
4, 3120, Note_on_c, 0, 51, 75
4, 3360, Note_on_c, 0, 51, 0
4, 3360, Note_on_c, 0, 39, 62
4, 3480, Note_on_c, 0, 39, 0
4, 3480, Note_on_c, 0, 55, 62
4, 3600, Note_on_c, 0, 55, 0
4, 3600, Note_on_c, 0, 51, 62
4, 3840, Note_on_c, 0, 51, 0
4, 3840, Note_on_c, 0, 39, 62
4, 3960, Note_on_c, 0, 39, 0
4, 3960, Note_on_c, 0, 55, 62
4, 4080, Note_on_c, 0, 55, 0
4, 4080, Note_on_c, 0, 51, 62
4, 4320, Note_on_c, 0, 51, 0
4, 4320, Note_on_c, 0, 39, 62
4, 4440, Note_on_c, 0, 39, 0
4, 4440, Note_on_c, 0, 55, 62
4, 4560, Note_on_c, 0, 55, 0
4, 4560, Note_on_c, 0, 51, 62
4, 4800, Note_on_c, 0, 51, 0
4, 4800, Note_on_c, 0, 39, 62
4, 4920, Note_on_c, 0, 39, 0
4, 4920, Note_on_c, 0, 55, 62
4, 5040, Note_on_c, 0, 55, 0
4, 5040, Note_on_c, 0, 51, 62
4, 5280, Note_on_c, 0, 51, 0
4, 5280, Note_on_c, 0, 39, 62
4, 5400, Note_on_c, 0, 39, 0
4, 5400, Note_on_c, 0, 55, 62
4, 5520, Note_on_c, 0, 55, 0
4, 5520, Note_on_c, 0, 51, 62
4, 5760, Note_on_c, 0, 51, 0
4, 5760, Note_on_c, 0, 39, 62
4, 5880, Note_on_c, 0, 39, 0
4, 5880, Note_on_c, 0, 55, 62
4, 6000, Note_on_c, 0, 55, 0
4, 6000, Note_on_c, 0, 51, 62
4, 6240, Note_on_c, 0, 51, 0
4, 6240, Note_on_c, 0, 39, 62
4, 6360, Note_on_c, 0, 39, 0
4, 6360, Note_on_c, 0, 55, 62
4, 6480, Note_on_c, 0, 55, 0
4, 6480, Note_on_c, 0, 51, 62
4, 6720, Note_on_c, 0, 51, 0
4, 6720, Note_on_c, 0, 39, 62
4, 6840, Note_on_c, 0, 39, 0
4, 6840, Note_on_c, 0, 55, 62
4, 6960, Note_on_c, 0, 55, 0
4, 6960, Note_on_c, 0, 51, 62
4, 7200, Note_on_c, 0, 51, 0
4, 7200, Note_on_c, 0, 39, 62
4, 7320, Note_on_c, 0, 39, 0
4, 7320, Note_on_c, 0, 55, 62
4, 7440, Note_on_c, 0, 55, 0
4, 7440, Note_on_c, 0, 51, 62
4, 7680, Note_on_c, 0, 51, 0
4, 7680, Note_on_c, 0, 50, 75
4, 7800, Note_on_c, 0, 50, 0
4, 7800, Note_on_c, 0, 55, 75
4, 7920, Note_on_c, 0, 55, 0
4, 7920, Note_on_c, 0, 50, 75
4, 8160, Note_on_c, 0, 50, 0
4, 8160, Note_on_c, 0, 48, 75
4, 8280, Note_on_c, 0, 48, 0
4, 8280, Note_on_c, 0, 55, 75
4, 8400, Note_on_c, 0, 55, 0
4, 8400, Note_on_c, 0, 48, 75
4, 8640, Note_on_c, 0, 48, 0
4, 8640, Note_on_c, 0, 47, 75
4, 8760, Note_on_c, 0, 47, 0
4, 8760, Note_on_c, 0, 55, 75
4, 8880, Note_on_c, 0, 55, 0
4, 8880, Note_on_c, 0, 47, 75
4, 9120, Note_on_c, 0, 47, 0
4, 9120, Note_on_c, 0, 45, 88
4, 9240, Note_on_c, 0, 45, 0
4, 9240, Note_on_c, 0, 55, 88
4, 9360, Note_on_c, 0, 55, 0
4, 9360, Note_on_c, 0, 45, 88
4, 9600, Note_on_c, 0, 45, 0
4, 9600, Note_on_c, 0, 47, 88
4, 9720, Note_on_c, 0, 47, 0
4, 9720, Note_on_c, 0, 55, 88
4, 9840, Note_on_c, 0, 55, 0
4, 9840, Note_on_c, 0, 47, 88
4, 10080, Note_on_c, 0, 47, 0
4, 10080, Note_on_c, 0, 48, 88
4, 10200, Note_on_c, 0, 48, 0
4, 10200, Note_on_c, 0, 55, 88
4, 10320, Note_on_c, 0, 55, 0
4, 10320, Note_on_c, 0, 48, 88
4, 10560, Note_on_c, 0, 48, 0
4, 10560, Note_on_c, 0, 50, 88
4, 10680, Note_on_c, 0, 50, 0
4, 10680, Note_on_c, 0, 55, 88
4, 10800, Note_on_c, 0, 55, 0
4, 10800, Note_on_c, 0, 50, 88
4, 11040, Note_on_c, 0, 50, 0
4, 11040, Note_on_c, 0, 51, 88
4, 11160, Note_on_c, 0, 51, 0
4, 11160, Note_on_c, 0, 55, 88
4, 11280, Note_on_c, 0, 55, 0
4, 11280, Note_on_c, 0, 51, 88
4, 11520, Note_on_c, 0, 51, 0
4, 11520, Note_on_c, 0, 39, 88
4, 11640, Note_on_c, 0, 39, 0
4, 11640, Note_on_c, 0, 55, 88
4, 11760, Note_on_c, 0, 55, 0
4, 11760, Note_on_c, 0, 51, 88
4, 12000, Note_on_c, 0, 51, 0
4, 12000, Note_on_c, 0, 39, 88
4, 12120, Note_on_c, 0, 39, 0
4, 12120, Note_on_c, 0, 55, 88
4, 12240, Note_on_c, 0, 55, 0
4, 12240, Note_on_c, 0, 51, 88
4, 12480, Note_on_c, 0, 51, 0
4, 12480, Note_on_c, 0, 39, 88
4, 12600, Note_on_c, 0, 39, 0
4, 12600, Note_on_c, 0, 55, 88
4, 12720, Note_on_c, 0, 55, 0
4, 12720, Note_on_c, 0, 51, 88
4, 12960, Note_on_c, 0, 51, 0
4, 12960, Note_on_c, 0, 39, 88
4, 13080, Note_on_c, 0, 39, 0
4, 13080, Note_on_c, 0, 55, 88
4, 13200, Note_on_c, 0, 55, 0
4, 13200, Note_on_c, 0, 51, 88
4, 13440, Note_on_c, 0, 51, 0
4, 13440, Note_on_c, 0, 39, 88
4, 13560, Note_on_c, 0, 39, 0
4, 13560, Note_on_c, 0, 55, 88
4, 13680, Note_on_c, 0, 55, 0
4, 13680, Note_on_c, 0, 51, 88
4, 13920, Note_on_c, 0, 51, 0
4, 13920, Note_on_c, 0, 39, 88
4, 14040, Note_on_c, 0, 39, 0
4, 14040, Note_on_c, 0, 55, 88
4, 14160, Note_on_c, 0, 55, 0
4, 14160, Note_on_c, 0, 51, 88
4, 14400, Note_on_c, 0, 51, 0
4, 14400, Note_on_c, 0, 39, 88
4, 14520, Note_on_c, 0, 39, 0
4, 14520, Note_on_c, 0, 55, 88
4, 14640, Note_on_c, 0, 55, 0
4, 14640, Note_on_c, 0, 51, 88
4, 14880, Note_on_c, 0, 51, 0
4, 14880, Note_on_c, 0, 39, 88
4, 15000, Note_on_c, 0, 39, 0
4, 15000, Note_on_c, 0, 55, 88
4, 15120, Note_on_c, 0, 55, 0
4, 15120, Note_on_c, 0, 51, 88
4, 15360, Note_on_c, 0, 51, 0
4, 15360, Note_on_c, 0, 50, 75
4, 15480, Note_on_c, 0, 50, 0
4, 15480, Note_on_c, 0, 55, 75
4, 15600, Note_on_c, 0, 55, 0
4, 15600, Note_on_c, 0, 50, 75
4, 15840, Note_on_c, 0, 50, 0
4, 15840, Note_on_c, 0, 48, 75
4, 15960, Note_on_c, 0, 48, 0
4, 15960, Note_on_c, 0, 55, 75
4, 16080, Note_on_c, 0, 55, 0
4, 16080, Note_on_c, 0, 48, 75
4, 16320, Note_on_c, 0, 48, 0
4, 16320, Note_on_c, 0, 47, 75
4, 16440, Note_on_c, 0, 47, 0
4, 16440, Note_on_c, 0, 55, 75
4, 16560, Note_on_c, 0, 55, 0
4, 16560, Note_on_c, 0, 47, 75
4, 16800, Note_on_c, 0, 47, 0
4, 16800, Note_on_c, 0, 45, 88
4, 16920, Note_on_c, 0, 45, 0
4, 16920, Note_on_c, 0, 55, 88
4, 17040, Note_on_c, 0, 55, 0
4, 17040, Note_on_c, 0, 45, 88
4, 17280, Note_on_c, 0, 45, 0
4, 17280, Note_on_c, 0, 50, 88
4, 17400, Note_on_c, 0, 50, 0
4, 17400, Note_on_c, 0, 59, 88
4, 17520, Note_on_c, 0, 59, 0
4, 17520, Note_on_c, 0, 50, 88
4, 17760, Note_on_c, 0, 50, 0
4, 17760, Note_on_c, 0, 50, 88
4, 17880, Note_on_c, 0, 50, 0
4, 17880, Note_on_c, 0, 54, 88
4, 18000, Note_on_c, 0, 54, 0
4, 18000, Note_on_c, 0, 50, 88
4, 18240, Note_on_c, 0, 50, 0
4, 18240, Note_on_c, 0, 43, 88
4, 18360, Note_on_c, 0, 43, 0
4, 18360, Note_on_c, 0, 55, 88
4, 18480, Note_on_c, 0, 55, 0
4, 18480, Note_on_c, 0, 43, 88
4, 18720, Note_on_c, 0, 43, 0
4, 18720, Note_on_c, 0, 50, 49
4, 18743, Note_on_c, 0, 50, 0
4, 18840, Note_on_c, 0, 55, 49
4, 18863, Note_on_c, 0, 55, 0
4, 18960, Note_on_c, 0, 59, 49
4, 18983, Note_on_c, 0, 59, 0
4, 19080, Note_on_c, 0, 62, 49
4, 19103, Note_on_c, 0, 62, 0
4, 19200, Note_on_c, 0, 67, 49
4, 19680, Note_on_c, 0, 67, 0
4, 19680, Note_on_c, 0, 62, 62
4, 19680, Note_on_c, 0, 66, 62
4, 20160, Note_on_c, 0, 66, 0
4, 20160, Note_on_c, 0, 62, 0
4, 20160, Note_on_c, 0, 58, 75
4, 20160, Note_on_c, 0, 62, 75
4, 20160, Note_on_c, 0, 65, 75
4, 20640, Note_on_c, 0, 65, 0
4, 20640, Note_on_c, 0, 62, 0
4, 20640, Note_on_c, 0, 58, 0
4, 20640, Note_on_c, 0, 62, 62
4, 20640, Note_on_c, 0, 66, 62
4, 21120, Note_on_c, 0, 66, 0
4, 21120, Note_on_c, 0, 62, 0
4, 21360, Note_on_c, 0, 60, 62
4, 21407, Note_on_c, 0, 60, 0
4, 21600, Note_on_c, 0, 55, 62
4, 21647, Note_on_c, 0, 55, 0
4, 21840, Note_on_c, 0, 51, 62
4, 21887, Note_on_c, 0, 51, 0
4, 22080, Note_on_c, 0, 58, 62
4, 22127, Note_on_c, 0, 58, 0
4, 22320, Note_on_c, 0, 55, 62
4, 22367, Note_on_c, 0, 55, 0
4, 22560, Note_on_c, 0, 50, 62
4, 22560, Note_on_c, 0, 57, 62
4, 22607, Note_on_c, 0, 57, 0
4, 22607, Note_on_c, 0, 50, 0
4, 22800, Note_on_c, 0, 43, 62
4, 22800, Note_on_c, 0, 55, 62
4, 22847, Note_on_c, 0, 55, 0
4, 22847, Note_on_c, 0, 43, 0
4, 23040, Note_on_c, 0, 47, 62
4, 23087, Note_on_c, 0, 47, 0
4, 23280, Note_on_c, 0, 48, 62
4, 23327, Note_on_c, 0, 48, 0
4, 23520, Note_on_c, 0, 49, 62
4, 23567, Note_on_c, 0, 49, 0
4, 23760, Note_on_c, 0, 50, 62
4, 23807, Note_on_c, 0, 50, 0
4, 24000, Note_on_c, 0, 51, 62
4, 24047, Note_on_c, 0, 51, 0
4, 24240, Note_on_c, 0, 52, 62
4, 24287, Note_on_c, 0, 52, 0
4, 24480, Note_on_c, 0, 54, 62
4, 24527, Note_on_c, 0, 54, 0
4, 24720, Note_on_c, 0, 55, 62
4, 24767, Note_on_c, 0, 55, 0
4, 24960, Note_on_c, 0, 57, 62
4, 25007, Note_on_c, 0, 57, 0
4, 25200, Note_on_c, 0, 58, 62
4, 25247, Note_on_c, 0, 58, 0
4, 25440, Note_on_c, 0, 59, 62
4, 25487, Note_on_c, 0, 59, 0
4, 25680, Note_on_c, 0, 60, 62
4, 25727, Note_on_c, 0, 60, 0
4, 25920, Note_on_c, 0, 62, 88
4, 25967, Note_on_c, 0, 62, 0
4, 26160, Note_on_c, 0, 63, 88
4, 26207, Note_on_c, 0, 63, 0
4, 26400, Note_on_c, 0, 61, 88
4, 26640, Note_on_c, 0, 61, 0
4, 26640, Note_on_c, 0, 62, 88
4, 26880, Note_on_c, 0, 62, 0
4, 26880, Note_on_c, 0, 67, 49
4, 27360, Note_on_c, 0, 67, 0
4, 27360, Note_on_c, 0, 62, 62
4, 27360, Note_on_c, 0, 66, 62
4, 27840, Note_on_c, 0, 66, 0
4, 27840, Note_on_c, 0, 62, 0
4, 27840, Note_on_c, 0, 58, 75
4, 27840, Note_on_c, 0, 62, 75
4, 27840, Note_on_c, 0, 65, 75
4, 28320, Note_on_c, 0, 65, 0
4, 28320, Note_on_c, 0, 62, 0
4, 28320, Note_on_c, 0, 58, 0
4, 28320, Note_on_c, 0, 62, 62
4, 28320, Note_on_c, 0, 66, 62
4, 28800, Note_on_c, 0, 66, 0
4, 28800, Note_on_c, 0, 62, 0
4, 29040, Note_on_c, 0, 60, 62
4, 29087, Note_on_c, 0, 60, 0
4, 29280, Note_on_c, 0, 55, 62
4, 29327, Note_on_c, 0, 55, 0
4, 29520, Note_on_c, 0, 51, 62
4, 29567, Note_on_c, 0, 51, 0
4, 29760, Note_on_c, 0, 58, 62
4, 29807, Note_on_c, 0, 58, 0
4, 30000, Note_on_c, 0, 55, 62
4, 30047, Note_on_c, 0, 55, 0
4, 30240, Note_on_c, 0, 50, 62
4, 30240, Note_on_c, 0, 57, 62
4, 30287, Note_on_c, 0, 57, 0
4, 30287, Note_on_c, 0, 50, 0
4, 30480, Note_on_c, 0, 43, 62
4, 30480, Note_on_c, 0, 55, 62
4, 30527, Note_on_c, 0, 55, 0
4, 30527, Note_on_c, 0, 43, 0
4, 30720, Note_on_c, 0, 47, 62
4, 30767, Note_on_c, 0, 47, 0
4, 30960, Note_on_c, 0, 48, 62
4, 31007, Note_on_c, 0, 48, 0
4, 31200, Note_on_c, 0, 49, 62
4, 31247, Note_on_c, 0, 49, 0
4, 31440, Note_on_c, 0, 50, 62
4, 31487, Note_on_c, 0, 50, 0
4, 31680, Note_on_c, 0, 51, 62
4, 31727, Note_on_c, 0, 51, 0
4, 31920, Note_on_c, 0, 52, 62
4, 31967, Note_on_c, 0, 52, 0
4, 32160, Note_on_c, 0, 54, 62
4, 32207, Note_on_c, 0, 54, 0
4, 32400, Note_on_c, 0, 55, 62
4, 32447, Note_on_c, 0, 55, 0
4, 32640, Note_on_c, 0, 57, 62
4, 32687, Note_on_c, 0, 57, 0
4, 32880, Note_on_c, 0, 58, 62
4, 32927, Note_on_c, 0, 58, 0
4, 33120, Note_on_c, 0, 59, 62
4, 33167, Note_on_c, 0, 59, 0
4, 33360, Note_on_c, 0, 60, 62
4, 33407, Note_on_c, 0, 60, 0
4, 33600, Note_on_c, 0, 62, 88
4, 33647, Note_on_c, 0, 62, 0
4, 33840, Note_on_c, 0, 63, 88
4, 33887, Note_on_c, 0, 63, 0
4, 34080, Note_on_c, 0, 61, 88
4, 34320, Note_on_c, 0, 61, 0
4, 34320, Note_on_c, 0, 62, 88
4, 34560, Note_on_c, 0, 62, 0
4, 34560, Note_on_c, 0, 67, 49
4, 35040, Note_on_c, 0, 67, 0
4, 35040, Note_on_c, 0, 62, 62
4, 35040, Note_on_c, 0, 66, 62
4, 35520, Note_on_c, 0, 66, 0
4, 35520, Note_on_c, 0, 62, 0
4, 35520, Note_on_c, 0, 58, 75
4, 35520, Note_on_c, 0, 62, 75
4, 35520, Note_on_c, 0, 65, 75
4, 36000, Note_on_c, 0, 65, 0
4, 36000, Note_on_c, 0, 62, 0
4, 36000, Note_on_c, 0, 58, 0
4, 36000, Note_on_c, 0, 62, 62
4, 36000, Note_on_c, 0, 66, 62
4, 36480, Note_on_c, 0, 66, 0
4, 36480, Note_on_c, 0, 62, 0
4, 36480, Note_on_c, 0, 67, 49
4, 36960, Note_on_c, 0, 67, 0
4, 36960, Note_on_c, 0, 62, 62
4, 36960, Note_on_c, 0, 66, 62
4, 37440, Note_on_c, 0, 66, 0
4, 37440, Note_on_c, 0, 62, 0
4, 37440, Note_on_c, 0, 58, 75
4, 37440, Note_on_c, 0, 62, 75
4, 37440, Note_on_c, 0, 65, 75
4, 37920, Note_on_c, 0, 65, 0
4, 37920, Note_on_c, 0, 62, 0
4, 37920, Note_on_c, 0, 58, 0
4, 37920, Note_on_c, 0, 62, 62
4, 37920, Note_on_c, 0, 66, 62
4, 38400, Note_on_c, 0, 66, 0
4, 38400, Note_on_c, 0, 62, 0
4, 38400, Note_on_c, 0, 67, 49
4, 38640, Note_on_c, 0, 67, 0
4, 38640, Note_on_c, 0, 62, 62
4, 38640, Note_on_c, 0, 66, 62
4, 38880, Note_on_c, 0, 66, 0
4, 38880, Note_on_c, 0, 62, 0
4, 38880, Note_on_c, 0, 58, 75
4, 38880, Note_on_c, 0, 62, 75
4, 38880, Note_on_c, 0, 65, 75
4, 39120, Note_on_c, 0, 65, 0
4, 39120, Note_on_c, 0, 62, 0
4, 39120, Note_on_c, 0, 58, 0
4, 39120, Note_on_c, 0, 62, 62
4, 39120, Note_on_c, 0, 66, 62
4, 39360, Note_on_c, 0, 66, 0
4, 39360, Note_on_c, 0, 62, 0
4, 39360, Note_on_c, 0, 67, 49
4, 39600, Note_on_c, 0, 67, 0
4, 39600, Note_on_c, 0, 62, 62
4, 39600, Note_on_c, 0, 66, 62
4, 39840, Note_on_c, 0, 66, 0
4, 39840, Note_on_c, 0, 62, 0
4, 39840, Note_on_c, 0, 58, 75
4, 39840, Note_on_c, 0, 62, 75
4, 39840, Note_on_c, 0, 65, 75
4, 40080, Note_on_c, 0, 65, 0
4, 40080, Note_on_c, 0, 62, 0
4, 40080, Note_on_c, 0, 58, 0
4, 40080, Note_on_c, 0, 62, 62
4, 40080, Note_on_c, 0, 66, 62
4, 40320, Note_on_c, 0, 66, 0
4, 40320, Note_on_c, 0, 62, 0
4, 40320, Note_on_c, 0, 58, 75
4, 40320, Note_on_c, 0, 62, 75
4, 40560, Note_on_c, 0, 62, 0
4, 40560, Note_on_c, 0, 58, 0
4, 40560, Note_on_c, 0, 62, 49
4, 40560, Note_on_c, 0, 66, 49
4, 40800, Note_on_c, 0, 66, 0
4, 40800, Note_on_c, 0, 62, 0
4, 40800, Note_on_c, 0, 58, 75
4, 40800, Note_on_c, 0, 62, 75
4, 41040, Note_on_c, 0, 62, 0
4, 41040, Note_on_c, 0, 58, 0
4, 41040, Note_on_c, 0, 62, 49
4, 41040, Note_on_c, 0, 66, 49
4, 41280, Note_on_c, 0, 66, 0
4, 41280, Note_on_c, 0, 62, 0
4, 41280, Note_on_c, 0, 58, 75
4, 41280, Note_on_c, 0, 62, 75
4, 41520, Note_on_c, 0, 62, 0
4, 41520, Note_on_c, 0, 58, 0
4, 41520, Note_on_c, 0, 62, 49
4, 41520, Note_on_c, 0, 66, 49
4, 41760, Note_on_c, 0, 66, 0
4, 41760, Note_on_c, 0, 62, 0
4, 41760, Note_on_c, 0, 58, 75
4, 41760, Note_on_c, 0, 62, 75
4, 42000, Note_on_c, 0, 62, 0
4, 42000, Note_on_c, 0, 58, 0
4, 42000, Note_on_c, 0, 62, 49
4, 42000, Note_on_c, 0, 66, 49
4, 42240, Note_on_c, 0, 66, 0
4, 42240, Note_on_c, 0, 62, 0
4, 42240, Note_on_c, 0, 43, 75
4, 42240, Note_on_c, 0, 55, 75
4, 42480, Note_on_c, 0, 55, 0
4, 42480, Note_on_c, 0, 43, 0
4, 42480, Note_on_c, 0, 43, 75
4, 42480, Note_on_c, 0, 45, 75
4, 42720, Note_on_c, 0, 45, 0
4, 42720, Note_on_c, 0, 43, 0
4, 42720, Note_on_c, 0, 43, 75
4, 42720, Note_on_c, 0, 46, 75
4, 42960, Note_on_c, 0, 46, 0
4, 42960, Note_on_c, 0, 43, 0
4, 42960, Note_on_c, 0, 43, 75
4, 42960, Note_on_c, 0, 47, 75
4, 43200, Note_on_c, 0, 47, 0
4, 43200, Note_on_c, 0, 43, 0
4, 43200, Note_on_c, 0, 43, 75
4, 43200, Note_on_c, 0, 48, 75
4, 43440, Note_on_c, 0, 48, 0
4, 43440, Note_on_c, 0, 43, 0
4, 43440, Note_on_c, 0, 43, 75
4, 43440, Note_on_c, 0, 50, 75
4, 43680, Note_on_c, 0, 50, 0
4, 43680, Note_on_c, 0, 43, 0
4, 43680, Note_on_c, 0, 43, 75
4, 43680, Note_on_c, 0, 51, 75
4, 43920, Note_on_c, 0, 51, 0
4, 43920, Note_on_c, 0, 43, 0
4, 43920, Note_on_c, 0, 43, 75
4, 43920, Note_on_c, 0, 51, 75
4, 44160, Note_on_c, 0, 51, 0
4, 44160, Note_on_c, 0, 43, 0
4, 44160, Note_on_c, 0, 52, 88
4, 44280, Note_on_c, 0, 52, 0
4, 44280, Note_on_c, 0, 55, 88
4, 44400, Note_on_c, 0, 55, 0
4, 44400, Note_on_c, 0, 52, 88
4, 44520, Note_on_c, 0, 52, 0
4, 44520, Note_on_c, 0, 55, 88
4, 44640, Note_on_c, 0, 55, 0
4, 44640, Note_on_c, 0, 52, 88
4, 44760, Note_on_c, 0, 52, 0
4, 44760, Note_on_c, 0, 55, 88
4, 44880, Note_on_c, 0, 55, 0
4, 44880, Note_on_c, 0, 52, 88
4, 45000, Note_on_c, 0, 52, 0
4, 45000, Note_on_c, 0, 55, 88
4, 45120, Note_on_c, 0, 55, 0
4, 45120, Note_on_c, 0, 50, 88
4, 45120, Note_on_c, 0, 54, 88
4, 45240, Note_on_c, 0, 54, 0
4, 45240, Note_on_c, 0, 50, 0
4, 45240, Note_on_c, 0, 57, 88
4, 45360, Note_on_c, 0, 57, 0
4, 45360, Note_on_c, 0, 50, 88
4, 45360, Note_on_c, 0, 54, 88
4, 45480, Note_on_c, 0, 54, 0
4, 45480, Note_on_c, 0, 50, 0
4, 45480, Note_on_c, 0, 57, 88
4, 45600, Note_on_c, 0, 57, 0
4, 45600, Note_on_c, 0, 50, 88
4, 45600, Note_on_c, 0, 54, 88
4, 45720, Note_on_c, 0, 54, 0
4, 45720, Note_on_c, 0, 50, 0
4, 45720, Note_on_c, 0, 57, 88
4, 45840, Note_on_c, 0, 57, 0
4, 45840, Note_on_c, 0, 50, 88
4, 45840, Note_on_c, 0, 54, 88
4, 45960, Note_on_c, 0, 54, 0
4, 45960, Note_on_c, 0, 50, 0
4, 45960, Note_on_c, 0, 57, 88
4, 46080, Note_on_c, 0, 57, 0
4, 46080, Note_on_c, 0, 43, 75
4, 46080, Note_on_c, 0, 55, 75
4, 46320, Note_on_c, 0, 55, 0
4, 46320, Note_on_c, 0, 43, 0
4, 46320, Note_on_c, 0, 43, 75
4, 46320, Note_on_c, 0, 45, 75
4, 46560, Note_on_c, 0, 45, 0
4, 46560, Note_on_c, 0, 43, 0
4, 46560, Note_on_c, 0, 43, 75
4, 46560, Note_on_c, 0, 46, 75
4, 46800, Note_on_c, 0, 46, 0
4, 46800, Note_on_c, 0, 43, 0
4, 46800, Note_on_c, 0, 43, 75
4, 46800, Note_on_c, 0, 47, 75
4, 47040, Note_on_c, 0, 47, 0
4, 47040, Note_on_c, 0, 43, 0
4, 47040, Note_on_c, 0, 43, 75
4, 47040, Note_on_c, 0, 48, 75
4, 47280, Note_on_c, 0, 48, 0
4, 47280, Note_on_c, 0, 43, 0
4, 47280, Note_on_c, 0, 43, 75
4, 47280, Note_on_c, 0, 50, 75
4, 47520, Note_on_c, 0, 50, 0
4, 47520, Note_on_c, 0, 43, 0
4, 47520, Note_on_c, 0, 43, 75
4, 47520, Note_on_c, 0, 51, 75
4, 47760, Note_on_c, 0, 51, 0
4, 47760, Note_on_c, 0, 43, 0
4, 47760, Note_on_c, 0, 43, 75
4, 47760, Note_on_c, 0, 51, 75
4, 48000, Note_on_c, 0, 51, 0
4, 48000, Note_on_c, 0, 43, 0
4, 48000, Note_on_c, 0, 52, 88
4, 48120, Note_on_c, 0, 52, 0
4, 48120, Note_on_c, 0, 55, 88
4, 48240, Note_on_c, 0, 55, 0
4, 48240, Note_on_c, 0, 52, 88
4, 48360, Note_on_c, 0, 52, 0
4, 48360, Note_on_c, 0, 55, 88
4, 48480, Note_on_c, 0, 55, 0
4, 48480, Note_on_c, 0, 52, 88
4, 48600, Note_on_c, 0, 52, 0
4, 48600, Note_on_c, 0, 55, 88
4, 48720, Note_on_c, 0, 55, 0
4, 48720, Note_on_c, 0, 52, 88
4, 48840, Note_on_c, 0, 52, 0
4, 48840, Note_on_c, 0, 55, 88
4, 48960, Note_on_c, 0, 55, 0
4, 48960, Note_on_c, 0, 50, 88
4, 48960, Note_on_c, 0, 54, 88
4, 49080, Note_on_c, 0, 54, 0
4, 49080, Note_on_c, 0, 50, 0
4, 49080, Note_on_c, 0, 57, 88
4, 49200, Note_on_c, 0, 57, 0
4, 49200, Note_on_c, 0, 50, 88
4, 49200, Note_on_c, 0, 54, 88
4, 49320, Note_on_c, 0, 54, 0
4, 49320, Note_on_c, 0, 50, 0
4, 49320, Note_on_c, 0, 57, 88
4, 49440, Note_on_c, 0, 57, 0
4, 49440, Note_on_c, 0, 50, 88
4, 49440, Note_on_c, 0, 54, 88
4, 49560, Note_on_c, 0, 54, 0
4, 49560, Note_on_c, 0, 50, 0
4, 49560, Note_on_c, 0, 57, 88
4, 49680, Note_on_c, 0, 57, 0
4, 49680, Note_on_c, 0, 50, 88
4, 49680, Note_on_c, 0, 54, 88
4, 49800, Note_on_c, 0, 54, 0
4, 49800, Note_on_c, 0, 50, 0
4, 49800, Note_on_c, 0, 57, 88
4, 49920, Note_on_c, 0, 57, 0
4, 49920, Note_on_c, 0, 55, 88
4, 50160, Note_on_c, 0, 55, 0
4, 50160, Note_on_c, 0, 45, 88
4, 50280, Note_on_c, 0, 45, 0
4, 50280, Note_on_c, 0, 55, 88
4, 50400, Note_on_c, 0, 55, 0
4, 50400, Note_on_c, 0, 46, 88
4, 50520, Note_on_c, 0, 46, 0
4, 50520, Note_on_c, 0, 55, 88
4, 50640, Note_on_c, 0, 55, 0
4, 50640, Note_on_c, 0, 47, 88
4, 50640, Note_on_c, 0, 53, 88
4, 50760, Note_on_c, 0, 53, 0
4, 50760, Note_on_c, 0, 47, 0
4, 50760, Note_on_c, 0, 55, 88
4, 50880, Note_on_c, 0, 55, 0
4, 50880, Note_on_c, 0, 48, 88
4, 50880, Note_on_c, 0, 51, 88
4, 51000, Note_on_c, 0, 51, 0
4, 51000, Note_on_c, 0, 48, 0
4, 51000, Note_on_c, 0, 55, 88
4, 51120, Note_on_c, 0, 55, 0
4, 51120, Note_on_c, 0, 48, 88
4, 51120, Note_on_c, 0, 51, 88
4, 51240, Note_on_c, 0, 51, 0
4, 51240, Note_on_c, 0, 48, 0
4, 51240, Note_on_c, 0, 55, 88
4, 51360, Note_on_c, 0, 55, 0
4, 51360, Note_on_c, 0, 50, 88
4, 51360, Note_on_c, 0, 54, 88
4, 51480, Note_on_c, 0, 54, 0
4, 51480, Note_on_c, 0, 50, 0
4, 51480, Note_on_c, 0, 57, 88
4, 51600, Note_on_c, 0, 57, 0
4, 51600, Note_on_c, 0, 50, 88
4, 51600, Note_on_c, 0, 54, 88
4, 51720, Note_on_c, 0, 54, 0
4, 51720, Note_on_c, 0, 50, 0
4, 51720, Note_on_c, 0, 57, 88
4, 51840, Note_on_c, 0, 57, 0
4, 51840, Note_on_c, 0, 55, 88
4, 52080, Note_on_c, 0, 55, 0
4, 52080, Note_on_c, 0, 45, 88
4, 52200, Note_on_c, 0, 45, 0
4, 52200, Note_on_c, 0, 55, 88
4, 52320, Note_on_c, 0, 55, 0
4, 52320, Note_on_c, 0, 46, 88
4, 52440, Note_on_c, 0, 46, 0
4, 52440, Note_on_c, 0, 55, 88
4, 52560, Note_on_c, 0, 55, 0
4, 52560, Note_on_c, 0, 47, 88
4, 52560, Note_on_c, 0, 53, 88
4, 52680, Note_on_c, 0, 53, 0
4, 52680, Note_on_c, 0, 47, 0
4, 52680, Note_on_c, 0, 55, 88
4, 52800, Note_on_c, 0, 55, 0
4, 52800, Note_on_c, 0, 48, 88
4, 52800, Note_on_c, 0, 51, 88
4, 52920, Note_on_c, 0, 51, 0
4, 52920, Note_on_c, 0, 48, 0
4, 52920, Note_on_c, 0, 55, 88
4, 53040, Note_on_c, 0, 55, 0
4, 53040, Note_on_c, 0, 48, 88
4, 53040, Note_on_c, 0, 51, 88
4, 53160, Note_on_c, 0, 51, 0
4, 53160, Note_on_c, 0, 48, 0
4, 53160, Note_on_c, 0, 55, 88
4, 53280, Note_on_c, 0, 55, 0
4, 53280, Note_on_c, 0, 50, 88
4, 53280, Note_on_c, 0, 54, 88
4, 53400, Note_on_c, 0, 54, 0
4, 53400, Note_on_c, 0, 50, 0
4, 53400, Note_on_c, 0, 57, 88
4, 53520, Note_on_c, 0, 57, 0
4, 53520, Note_on_c, 0, 50, 88
4, 53520, Note_on_c, 0, 54, 88
4, 53640, Note_on_c, 0, 54, 0
4, 53640, Note_on_c, 0, 50, 0
4, 53640, Note_on_c, 0, 57, 88
4, 53760, Note_on_c, 0, 57, 0
4, 53760, Note_on_c, 0, 48, 88
4, 53760, Note_on_c, 0, 51, 88
4, 53880, Note_on_c, 0, 51, 0
4, 53880, Note_on_c, 0, 48, 0
4, 53880, Note_on_c, 0, 55, 88
4, 54000, Note_on_c, 0, 55, 0
4, 54000, Note_on_c, 0, 48, 88
4, 54000, Note_on_c, 0, 51, 88
4, 54120, Note_on_c, 0, 51, 0
4, 54120, Note_on_c, 0, 48, 0
4, 54120, Note_on_c, 0, 55, 88
4, 54240, Note_on_c, 0, 55, 0
4, 54240, Note_on_c, 0, 50, 88
4, 54240, Note_on_c, 0, 54, 88
4, 54360, Note_on_c, 0, 54, 0
4, 54360, Note_on_c, 0, 50, 0
4, 54360, Note_on_c, 0, 57, 88
4, 54480, Note_on_c, 0, 57, 0
4, 54480, Note_on_c, 0, 50, 88
4, 54480, Note_on_c, 0, 54, 88
4, 54600, Note_on_c, 0, 54, 0
4, 54600, Note_on_c, 0, 50, 0
4, 54600, Note_on_c, 0, 57, 88
4, 54720, Note_on_c, 0, 57, 0
4, 54720, Note_on_c, 0, 48, 88
4, 54720, Note_on_c, 0, 51, 88
4, 54840, Note_on_c, 0, 51, 0
4, 54840, Note_on_c, 0, 48, 0
4, 54840, Note_on_c, 0, 55, 88
4, 54960, Note_on_c, 0, 55, 0
4, 54960, Note_on_c, 0, 48, 88
4, 54960, Note_on_c, 0, 51, 88
4, 55080, Note_on_c, 0, 51, 0
4, 55080, Note_on_c, 0, 48, 0
4, 55080, Note_on_c, 0, 55, 88
4, 55200, Note_on_c, 0, 55, 0
4, 55200, Note_on_c, 0, 50, 88
4, 55200, Note_on_c, 0, 54, 88
4, 55320, Note_on_c, 0, 54, 0
4, 55320, Note_on_c, 0, 50, 0
4, 55320, Note_on_c, 0, 57, 88
4, 55440, Note_on_c, 0, 57, 0
4, 55440, Note_on_c, 0, 50, 88
4, 55440, Note_on_c, 0, 54, 88
4, 55560, Note_on_c, 0, 54, 0
4, 55560, Note_on_c, 0, 50, 0
4, 55560, Note_on_c, 0, 57, 88
4, 55680, Note_on_c, 0, 57, 0
4, 55680, Note_on_c, 0, 51, 88
4, 55800, Note_on_c, 0, 51, 0
4, 55800, Note_on_c, 0, 55, 88
4, 55920, Note_on_c, 0, 55, 0
4, 55920, Note_on_c, 0, 51, 88
4, 56040, Note_on_c, 0, 51, 0
4, 56040, Note_on_c, 0, 55, 88
4, 56160, Note_on_c, 0, 55, 0
4, 56160, Note_on_c, 0, 50, 88
4, 56280, Note_on_c, 0, 50, 0
4, 56280, Note_on_c, 0, 54, 88
4, 56400, Note_on_c, 0, 54, 0
4, 56400, Note_on_c, 0, 50, 88
4, 56520, Note_on_c, 0, 50, 0
4, 56520, Note_on_c, 0, 54, 88
4, 56640, Note_on_c, 0, 54, 0
4, 56640, Note_on_c, 0, 51, 88
4, 56760, Note_on_c, 0, 51, 0
4, 56760, Note_on_c, 0, 55, 88
4, 56880, Note_on_c, 0, 55, 0
4, 56880, Note_on_c, 0, 51, 88
4, 57000, Note_on_c, 0, 51, 0
4, 57000, Note_on_c, 0, 55, 88
4, 57120, Note_on_c, 0, 55, 0
4, 57120, Note_on_c, 0, 50, 88
4, 57240, Note_on_c, 0, 50, 0
4, 57240, Note_on_c, 0, 54, 88
4, 57360, Note_on_c, 0, 54, 0
4, 57360, Note_on_c, 0, 50, 88
4, 57480, Note_on_c, 0, 50, 0
4, 57480, Note_on_c, 0, 54, 88
4, 57600, Note_on_c, 0, 54, 0
4, 57600, Note_on_c, 0, 43, 88
4, 57600, Note_on_c, 0, 48, 88
4, 57600, Note_on_c, 0, 51, 88
4, 57600, Note_on_c, 0, 55, 88
4, 58320, Note_on_c, 0, 55, 0
4, 58320, Note_on_c, 0, 43, 0
4, 58320, Note_on_c, 0, 48, 0
4, 58320, Note_on_c, 0, 51, 0
4, 60480, Note_on_c, 0, 55, 88
4, 60480, Note_on_c, 0, 60, 88
4, 60480, Note_on_c, 0, 63, 88
4, 60480, Note_on_c, 0, 67, 88
4, 60720, Note_on_c, 0, 67, 0
4, 60720, Note_on_c, 0, 55, 0
4, 60720, Note_on_c, 0, 60, 0
4, 60720, Note_on_c, 0, 63, 0
4, 65280, Note_on_c, 0, 55, 49
4, 65280, Note_on_c, 0, 60, 49
4, 65280, Note_on_c, 0, 63, 49
4, 65760, Note_on_c, 0, 63, 0
4, 65760, Note_on_c, 0, 60, 0
4, 65760, Note_on_c, 0, 55, 0
4, 65760, Note_on_c, 0, 48, 49
4, 66240, Note_on_c, 0, 48, 0
4, 66240, Note_on_c, 0, 55, 49
4, 66240, Note_on_c, 0, 60, 49
4, 66240, Note_on_c, 0, 63, 49
4, 66720, Note_on_c, 0, 63, 0
4, 66720, Note_on_c, 0, 60, 0
4, 66720, Note_on_c, 0, 55, 0
4, 66720, Note_on_c, 0, 41, 49
4, 67200, Note_on_c, 0, 41, 0
4, 67200, Note_on_c, 0, 53, 49
4, 67200, Note_on_c, 0, 57, 49
4, 67200, Note_on_c, 0, 60, 49
4, 67680, Note_on_c, 0, 60, 0
4, 67680, Note_on_c, 0, 57, 0
4, 67680, Note_on_c, 0, 53, 0
4, 67680, Note_on_c, 0, 41, 49
4, 68160, Note_on_c, 0, 41, 0
4, 68160, Note_on_c, 0, 53, 49
4, 68160, Note_on_c, 0, 58, 49
4, 68640, Note_on_c, 0, 58, 0
4, 68640, Note_on_c, 0, 53, 0
4, 68640, Note_on_c, 0, 46, 49
4, 69120, Note_on_c, 0, 46, 0
4, 69120, Note_on_c, 0, 53, 49
4, 69120, Note_on_c, 0, 58, 49
4, 69120, Note_on_c, 0, 62, 49
4, 69600, Note_on_c, 0, 62, 0
4, 69600, Note_on_c, 0, 58, 0
4, 69600, Note_on_c, 0, 53, 0
4, 69600, Note_on_c, 0, 50, 49
4, 70080, Note_on_c, 0, 50, 0
4, 70080, Note_on_c, 0, 53, 49
4, 70080, Note_on_c, 0, 59, 49
4, 70080, Note_on_c, 0, 62, 49
4, 70560, Note_on_c, 0, 62, 0
4, 70560, Note_on_c, 0, 59, 0
4, 70560, Note_on_c, 0, 53, 0
4, 70560, Note_on_c, 0, 43, 49
4, 71040, Note_on_c, 0, 43, 0
4, 71040, Note_on_c, 0, 55, 49
4, 71040, Note_on_c, 0, 60, 49
4, 71040, Note_on_c, 0, 63, 49
4, 71520, Note_on_c, 0, 63, 0
4, 71520, Note_on_c, 0, 60, 0
4, 71520, Note_on_c, 0, 55, 0
4, 71520, Note_on_c, 0, 48, 49
4, 72000, Note_on_c, 0, 48, 0
4, 72000, Note_on_c, 0, 55, 49
4, 72000, Note_on_c, 0, 60, 49
4, 72000, Note_on_c, 0, 63, 49
4, 72480, Note_on_c, 0, 63, 0
4, 72480, Note_on_c, 0, 60, 0
4, 72480, Note_on_c, 0, 55, 0
4, 72480, Note_on_c, 0, 41, 49
4, 72960, Note_on_c, 0, 41, 0
4, 72960, Note_on_c, 0, 53, 49
4, 72960, Note_on_c, 0, 57, 49
4, 72960, Note_on_c, 0, 60, 49
4, 73440, Note_on_c, 0, 60, 0
4, 73440, Note_on_c, 0, 57, 0
4, 73440, Note_on_c, 0, 53, 0
4, 73440, Note_on_c, 0, 41, 49
4, 73920, Note_on_c, 0, 41, 0
4, 73920, Note_on_c, 0, 53, 49
4, 73920, Note_on_c, 0, 58, 49
4, 74400, Note_on_c, 0, 58, 0
4, 74400, Note_on_c, 0, 53, 0
4, 74400, Note_on_c, 0, 46, 49
4, 74880, Note_on_c, 0, 46, 0
4, 74880, Note_on_c, 0, 53, 49
4, 74880, Note_on_c, 0, 58, 49
4, 74880, Note_on_c, 0, 65, 49
4, 75360, Note_on_c, 0, 65, 0
4, 75360, Note_on_c, 0, 58, 0
4, 75360, Note_on_c, 0, 53, 0
4, 75360, Note_on_c, 0, 50, 49
4, 75840, Note_on_c, 0, 50, 0
4, 75840, Note_on_c, 0, 53, 49
4, 75840, Note_on_c, 0, 58, 49
4, 76320, Note_on_c, 0, 58, 0
4, 76320, Note_on_c, 0, 53, 0
4, 76320, Note_on_c, 0, 50, 49
4, 76800, Note_on_c, 0, 50, 0
4, 76800, Note_on_c, 0, 55, 49
4, 76800, Note_on_c, 0, 60, 49
4, 76800, Note_on_c, 0, 63, 49
4, 77280, Note_on_c, 0, 63, 0
4, 77280, Note_on_c, 0, 60, 0
4, 77280, Note_on_c, 0, 55, 0
4, 77280, Note_on_c, 0, 48, 49
4, 77760, Note_on_c, 0, 48, 0
4, 77760, Note_on_c, 0, 55, 49
4, 77760, Note_on_c, 0, 60, 49
4, 77760, Note_on_c, 0, 63, 49
4, 78240, Note_on_c, 0, 63, 0
4, 78240, Note_on_c, 0, 60, 0
4, 78240, Note_on_c, 0, 55, 0
4, 78240, Note_on_c, 0, 41, 49
4, 78720, Note_on_c, 0, 41, 0
4, 78720, Note_on_c, 0, 53, 49
4, 78720, Note_on_c, 0, 57, 49
4, 78720, Note_on_c, 0, 60, 49
4, 79200, Note_on_c, 0, 60, 0
4, 79200, Note_on_c, 0, 57, 0
4, 79200, Note_on_c, 0, 53, 0
4, 79200, Note_on_c, 0, 41, 49
4, 79680, Note_on_c, 0, 41, 0
4, 79680, Note_on_c, 0, 53, 49
4, 79680, Note_on_c, 0, 58, 49
4, 80160, Note_on_c, 0, 58, 0
4, 80160, Note_on_c, 0, 53, 0
4, 80160, Note_on_c, 0, 46, 49
4, 80640, Note_on_c, 0, 46, 0
4, 80640, Note_on_c, 0, 53, 49
4, 80640, Note_on_c, 0, 58, 49
4, 80640, Note_on_c, 0, 62, 49
4, 81120, Note_on_c, 0, 62, 0
4, 81120, Note_on_c, 0, 58, 0
4, 81120, Note_on_c, 0, 53, 0
4, 81120, Note_on_c, 0, 46, 49
4, 81600, Note_on_c, 0, 46, 0
4, 81600, Note_on_c, 0, 55, 49
4, 81600, Note_on_c, 0, 62, 49
4, 81600, Note_on_c, 0, 64, 49
4, 82080, Note_on_c, 0, 64, 0
4, 82080, Note_on_c, 0, 62, 0
4, 82080, Note_on_c, 0, 55, 0
4, 82080, Note_on_c, 0, 46, 49
4, 82560, Note_on_c, 0, 46, 0
4, 82560, Note_on_c, 0, 57, 49
4, 82560, Note_on_c, 0, 62, 49
4, 82560, Note_on_c, 0, 69, 49
4, 83040, Note_on_c, 0, 69, 0
4, 83040, Note_on_c, 0, 62, 0
4, 83040, Note_on_c, 0, 57, 0
4, 83040, Note_on_c, 0, 45, 49
4, 83520, Note_on_c, 0, 45, 0
4, 83520, Note_on_c, 0, 57, 49
4, 83520, Note_on_c, 0, 62, 49
4, 83520, Note_on_c, 0, 69, 49
4, 84000, Note_on_c, 0, 69, 0
4, 84000, Note_on_c, 0, 62, 0
4, 84000, Note_on_c, 0, 57, 0
4, 84000, Note_on_c, 0, 45, 75
4, 84480, Note_on_c, 0, 45, 0
4, 84480, Note_on_c, 0, 57, 75
4, 84480, Note_on_c, 0, 62, 75
4, 84960, Note_on_c, 0, 62, 0
4, 84960, Note_on_c, 0, 57, 0
4, 84960, Note_on_c, 0, 45, 75
4, 85440, Note_on_c, 0, 45, 0
4, 85440, Note_on_c, 0, 52, 75
4, 85440, Note_on_c, 0, 55, 75
4, 85440, Note_on_c, 0, 57, 75
4, 85920, Note_on_c, 0, 57, 0
4, 85920, Note_on_c, 0, 55, 0
4, 85920, Note_on_c, 0, 52, 0
4, 85920, Note_on_c, 0, 45, 75
4, 86400, Note_on_c, 0, 45, 0
4, 86400, Note_on_c, 0, 57, 75
4, 86400, Note_on_c, 0, 61, 75
4, 86400, Note_on_c, 0, 67, 75
4, 86880, Note_on_c, 0, 67, 0
4, 86880, Note_on_c, 0, 61, 0
4, 86880, Note_on_c, 0, 57, 0
4, 86880, Note_on_c, 0, 50, 75
4, 87360, Note_on_c, 0, 50, 0
4, 87360, Note_on_c, 0, 57, 75
4, 87360, Note_on_c, 0, 66, 75
4, 87840, Note_on_c, 0, 66, 0
4, 87840, Note_on_c, 0, 57, 0
4, 87840, Note_on_c, 0, 38, 75
4, 87840, Note_on_c, 0, 50, 75
4, 88320, Note_on_c, 0, 50, 0
4, 88320, Note_on_c, 0, 38, 0
4, 88320, Note_on_c, 0, 55, 75
4, 88320, Note_on_c, 0, 60, 75
4, 88320, Note_on_c, 0, 63, 75
4, 88320, Note_on_c, 0, 67, 75
4, 88800, Note_on_c, 0, 67, 0
4, 88800, Note_on_c, 0, 55, 0
4, 88800, Note_on_c, 0, 60, 0
4, 88800, Note_on_c, 0, 63, 0
4, 88800, Note_on_c, 0, 36, 75
4, 88800, Note_on_c, 0, 48, 75
4, 89280, Note_on_c, 0, 48, 0
4, 89280, Note_on_c, 0, 36, 0
4, 89280, Note_on_c, 0, 55, 75
4, 89280, Note_on_c, 0, 60, 75
4, 89280, Note_on_c, 0, 63, 75
4, 89280, Note_on_c, 0, 67, 75
4, 89760, Note_on_c, 0, 67, 0
4, 89760, Note_on_c, 0, 55, 0
4, 89760, Note_on_c, 0, 60, 0
4, 89760, Note_on_c, 0, 63, 0
4, 89760, Note_on_c, 0, 29, 75
4, 89760, Note_on_c, 0, 41, 75
4, 90240, Note_on_c, 0, 41, 0
4, 90240, Note_on_c, 0, 29, 0
4, 90240, Note_on_c, 0, 53, 75
4, 90240, Note_on_c, 0, 57, 75
4, 90240, Note_on_c, 0, 60, 75
4, 90240, Note_on_c, 0, 65, 75
4, 90720, Note_on_c, 0, 65, 0
4, 90720, Note_on_c, 0, 53, 0
4, 90720, Note_on_c, 0, 57, 0
4, 90720, Note_on_c, 0, 60, 0
4, 90720, Note_on_c, 0, 29, 75
4, 90720, Note_on_c, 0, 41, 75
4, 91200, Note_on_c, 0, 41, 0
4, 91200, Note_on_c, 0, 29, 0
4, 91200, Note_on_c, 0, 53, 75
4, 91200, Note_on_c, 0, 58, 75
4, 91200, Note_on_c, 0, 62, 75
4, 91200, Note_on_c, 0, 65, 75
4, 91680, Note_on_c, 0, 65, 0
4, 91680, Note_on_c, 0, 53, 0
4, 91680, Note_on_c, 0, 58, 0
4, 91680, Note_on_c, 0, 62, 0
4, 91680, Note_on_c, 0, 34, 75
4, 91680, Note_on_c, 0, 46, 75
4, 92160, Note_on_c, 0, 46, 0
4, 92160, Note_on_c, 0, 34, 0
4, 92160, Note_on_c, 0, 53, 75
4, 92160, Note_on_c, 0, 58, 75
4, 92160, Note_on_c, 0, 62, 75
4, 92160, Note_on_c, 0, 65, 75
4, 92640, Note_on_c, 0, 65, 0
4, 92640, Note_on_c, 0, 53, 0
4, 92640, Note_on_c, 0, 58, 0
4, 92640, Note_on_c, 0, 62, 0
4, 92640, Note_on_c, 0, 38, 75
4, 92640, Note_on_c, 0, 50, 75
4, 93120, Note_on_c, 0, 50, 0
4, 93120, Note_on_c, 0, 38, 0
4, 93120, Note_on_c, 0, 53, 75
4, 93120, Note_on_c, 0, 59, 75
4, 93120, Note_on_c, 0, 62, 75
4, 93120, Note_on_c, 0, 65, 75
4, 93600, Note_on_c, 0, 65, 0
4, 93600, Note_on_c, 0, 53, 0
4, 93600, Note_on_c, 0, 59, 0
4, 93600, Note_on_c, 0, 62, 0
4, 93600, Note_on_c, 0, 43, 75
4, 93600, Note_on_c, 0, 55, 75
4, 94080, Note_on_c, 0, 55, 0
4, 94080, Note_on_c, 0, 43, 0
4, 94080, Note_on_c, 0, 55, 75
4, 94080, Note_on_c, 0, 60, 75
4, 94080, Note_on_c, 0, 63, 75
4, 94080, Note_on_c, 0, 67, 75
4, 94560, Note_on_c, 0, 67, 0
4, 94560, Note_on_c, 0, 55, 0
4, 94560, Note_on_c, 0, 60, 0
4, 94560, Note_on_c, 0, 63, 0
4, 94560, Note_on_c, 0, 36, 75
4, 94560, Note_on_c, 0, 48, 75
4, 95040, Note_on_c, 0, 48, 0
4, 95040, Note_on_c, 0, 36, 0
4, 95040, Note_on_c, 0, 55, 75
4, 95040, Note_on_c, 0, 60, 75
4, 95040, Note_on_c, 0, 63, 75
4, 95040, Note_on_c, 0, 67, 75
4, 95520, Note_on_c, 0, 67, 0
4, 95520, Note_on_c, 0, 55, 0
4, 95520, Note_on_c, 0, 60, 0
4, 95520, Note_on_c, 0, 63, 0
4, 95520, Note_on_c, 0, 29, 75
4, 95520, Note_on_c, 0, 41, 75
4, 96000, Note_on_c, 0, 41, 0
4, 96000, Note_on_c, 0, 29, 0
4, 96000, Note_on_c, 0, 53, 75
4, 96000, Note_on_c, 0, 57, 75
4, 96000, Note_on_c, 0, 60, 75
4, 96000, Note_on_c, 0, 65, 75
4, 96480, Note_on_c, 0, 65, 0
4, 96480, Note_on_c, 0, 53, 0
4, 96480, Note_on_c, 0, 57, 0
4, 96480, Note_on_c, 0, 60, 0
4, 96480, Note_on_c, 0, 29, 75
4, 96480, Note_on_c, 0, 41, 75
4, 96960, Note_on_c, 0, 41, 0
4, 96960, Note_on_c, 0, 29, 0
4, 96960, Note_on_c, 0, 53, 75
4, 96960, Note_on_c, 0, 58, 75
4, 96960, Note_on_c, 0, 65, 75
4, 97440, Note_on_c, 0, 65, 0
4, 97440, Note_on_c, 0, 58, 0
4, 97440, Note_on_c, 0, 53, 0
4, 97440, Note_on_c, 0, 34, 75
4, 97440, Note_on_c, 0, 46, 75
4, 97920, Note_on_c, 0, 46, 0
4, 97920, Note_on_c, 0, 34, 0
4, 97920, Note_on_c, 0, 53, 75
4, 97920, Note_on_c, 0, 58, 75
4, 97920, Note_on_c, 0, 65, 75
4, 98400, Note_on_c, 0, 65, 0
4, 98400, Note_on_c, 0, 58, 0
4, 98400, Note_on_c, 0, 53, 0
4, 98400, Note_on_c, 0, 38, 75
4, 98400, Note_on_c, 0, 50, 75
4, 98880, Note_on_c, 0, 50, 0
4, 98880, Note_on_c, 0, 38, 0
4, 98880, Note_on_c, 0, 53, 75
4, 98880, Note_on_c, 0, 58, 75
4, 98880, Note_on_c, 0, 62, 75
4, 98880, Note_on_c, 0, 65, 75
4, 99360, Note_on_c, 0, 65, 0
4, 99360, Note_on_c, 0, 53, 0
4, 99360, Note_on_c, 0, 58, 0
4, 99360, Note_on_c, 0, 62, 0
4, 99360, Note_on_c, 0, 38, 75
4, 99360, Note_on_c, 0, 50, 75
4, 99840, Note_on_c, 0, 50, 0
4, 99840, Note_on_c, 0, 38, 0
4, 99840, Note_on_c, 0, 55, 75
4, 99840, Note_on_c, 0, 60, 75
4, 99840, Note_on_c, 0, 63, 75
4, 99840, Note_on_c, 0, 67, 75
4, 100320, Note_on_c, 0, 67, 0
4, 100320, Note_on_c, 0, 55, 0
4, 100320, Note_on_c, 0, 60, 0
4, 100320, Note_on_c, 0, 63, 0
4, 100320, Note_on_c, 0, 36, 75
4, 100320, Note_on_c, 0, 48, 75
4, 100800, Note_on_c, 0, 48, 0
4, 100800, Note_on_c, 0, 36, 0
4, 100800, Note_on_c, 0, 55, 75
4, 100800, Note_on_c, 0, 60, 75
4, 100800, Note_on_c, 0, 63, 75
4, 100800, Note_on_c, 0, 67, 75
4, 101280, Note_on_c, 0, 67, 0
4, 101280, Note_on_c, 0, 55, 0
4, 101280, Note_on_c, 0, 60, 0
4, 101280, Note_on_c, 0, 63, 0
4, 101280, Note_on_c, 0, 29, 75
4, 101280, Note_on_c, 0, 41, 75
4, 101760, Note_on_c, 0, 41, 0
4, 101760, Note_on_c, 0, 29, 0
4, 101760, Note_on_c, 0, 53, 75
4, 101760, Note_on_c, 0, 57, 75
4, 101760, Note_on_c, 0, 60, 75
4, 101760, Note_on_c, 0, 65, 75
4, 102240, Note_on_c, 0, 65, 0
4, 102240, Note_on_c, 0, 53, 0
4, 102240, Note_on_c, 0, 57, 0
4, 102240, Note_on_c, 0, 60, 0
4, 102240, Note_on_c, 0, 29, 75
4, 102240, Note_on_c, 0, 41, 75
4, 102720, Note_on_c, 0, 41, 0
4, 102720, Note_on_c, 0, 29, 0
4, 102720, Note_on_c, 0, 53, 75
4, 102720, Note_on_c, 0, 58, 75
4, 102720, Note_on_c, 0, 62, 75
4, 102720, Note_on_c, 0, 65, 75
4, 103200, Note_on_c, 0, 65, 0
4, 103200, Note_on_c, 0, 53, 0
4, 103200, Note_on_c, 0, 58, 0
4, 103200, Note_on_c, 0, 62, 0
4, 103200, Note_on_c, 0, 34, 75
4, 103200, Note_on_c, 0, 46, 75
4, 103680, Note_on_c, 0, 46, 0
4, 103680, Note_on_c, 0, 34, 0
4, 103680, Note_on_c, 0, 53, 75
4, 103680, Note_on_c, 0, 58, 75
4, 103680, Note_on_c, 0, 62, 75
4, 103680, Note_on_c, 0, 65, 75
4, 104160, Note_on_c, 0, 65, 0
4, 104160, Note_on_c, 0, 53, 0
4, 104160, Note_on_c, 0, 58, 0
4, 104160, Note_on_c, 0, 62, 0
4, 104160, Note_on_c, 0, 34, 75
4, 104160, Note_on_c, 0, 46, 75
4, 104640, Note_on_c, 0, 46, 0
4, 104640, Note_on_c, 0, 34, 0
4, 104640, Note_on_c, 0, 55, 75
4, 104640, Note_on_c, 0, 58, 75
4, 104640, Note_on_c, 0, 62, 75
4, 104640, Note_on_c, 0, 64, 75
4, 105120, Note_on_c, 0, 64, 0
4, 105120, Note_on_c, 0, 55, 0
4, 105120, Note_on_c, 0, 58, 0
4, 105120, Note_on_c, 0, 62, 0
4, 105120, Note_on_c, 0, 34, 75
4, 105120, Note_on_c, 0, 46, 75
4, 105600, Note_on_c, 0, 46, 0
4, 105600, Note_on_c, 0, 34, 0
4, 105600, Note_on_c, 0, 57, 75
4, 105600, Note_on_c, 0, 62, 75
4, 105600, Note_on_c, 0, 69, 75
4, 106080, Note_on_c, 0, 69, 0
4, 106080, Note_on_c, 0, 62, 0
4, 106080, Note_on_c, 0, 57, 0
4, 106080, Note_on_c, 0, 33, 75
4, 106080, Note_on_c, 0, 45, 75
4, 106560, Note_on_c, 0, 45, 0
4, 106560, Note_on_c, 0, 33, 0
4, 106560, Note_on_c, 0, 57, 75
4, 106560, Note_on_c, 0, 62, 75
4, 106560, Note_on_c, 0, 69, 75
4, 107040, Note_on_c, 0, 69, 0
4, 107040, Note_on_c, 0, 62, 0
4, 107040, Note_on_c, 0, 57, 0
4, 107040, Note_on_c, 0, 33, 75
4, 107040, Note_on_c, 0, 45, 75
4, 107520, Note_on_c, 0, 45, 0
4, 107520, Note_on_c, 0, 33, 0
4, 107520, Note_on_c, 0, 57, 75
4, 107520, Note_on_c, 0, 62, 75
4, 107520, Note_on_c, 0, 66, 75
4, 107520, Note_on_c, 0, 69, 75
4, 108000, Note_on_c, 0, 69, 0
4, 108000, Note_on_c, 0, 57, 0
4, 108000, Note_on_c, 0, 62, 0
4, 108000, Note_on_c, 0, 66, 0
4, 108000, Note_on_c, 0, 33, 75
4, 108000, Note_on_c, 0, 45, 75
4, 108480, Note_on_c, 0, 45, 0
4, 108480, Note_on_c, 0, 33, 0
4, 108480, Note_on_c, 0, 55, 75
4, 108480, Note_on_c, 0, 57, 75
4, 108480, Note_on_c, 0, 61, 75
4, 108480, Note_on_c, 0, 67, 75
4, 108960, Note_on_c, 0, 67, 0
4, 108960, Note_on_c, 0, 55, 0
4, 108960, Note_on_c, 0, 57, 0
4, 108960, Note_on_c, 0, 61, 0
4, 108960, Note_on_c, 0, 33, 75
4, 108960, Note_on_c, 0, 45, 75
4, 109440, Note_on_c, 0, 45, 0
4, 109440, Note_on_c, 0, 33, 0
4, 109440, Note_on_c, 0, 55, 75
4, 109440, Note_on_c, 0, 57, 75
4, 109440, Note_on_c, 0, 61, 75
4, 109440, Note_on_c, 0, 67, 75
4, 109920, Note_on_c, 0, 67, 0
4, 109920, Note_on_c, 0, 55, 0
4, 109920, Note_on_c, 0, 57, 0
4, 109920, Note_on_c, 0, 61, 0
4, 109920, Note_on_c, 0, 38, 75
4, 109920, Note_on_c, 0, 50, 75
4, 110400, Note_on_c, 0, 50, 0
4, 110400, Note_on_c, 0, 38, 0
4, 110400, Note_on_c, 0, 54, 75
4, 110400, Note_on_c, 0, 57, 75
4, 110400, Note_on_c, 0, 62, 75
4, 110400, Note_on_c, 0, 66, 75
4, 110880, Note_on_c, 0, 66, 0
4, 110880, Note_on_c, 0, 54, 0
4, 110880, Note_on_c, 0, 57, 0
4, 110880, Note_on_c, 0, 62, 0
4, 110880, Note_on_c, 0, 38, 75
4, 110880, Note_on_c, 0, 50, 75
4, 111360, Note_on_c, 0, 50, 0
4, 111360, Note_on_c, 0, 38, 0
4, 111360, Note_on_c, 0, 50, 88
4, 111360, Note_on_c, 0, 52, 88
4, 111360, Note_on_c, 0, 56, 88
4, 111360, Note_on_c, 0, 59, 88
4, 112320, Note_on_c, 0, 59, 0
4, 112320, Note_on_c, 0, 50, 0
4, 112320, Note_on_c, 0, 52, 0
4, 112320, Note_on_c, 0, 56, 0
4, 112320, Note_on_c, 0, 49, 88
4, 112320, Note_on_c, 0, 52, 88
4, 112320, Note_on_c, 0, 57, 88
4, 112800, Note_on_c, 0, 57, 0
4, 112800, Note_on_c, 0, 52, 0
4, 112800, Note_on_c, 0, 49, 0
4, 112800, Note_on_c, 0, 47, 88
4, 112800, Note_on_c, 0, 52, 88
4, 112800, Note_on_c, 0, 56, 88
4, 112800, Note_on_c, 0, 62, 88
4, 113040, Note_on_c, 0, 62, 0
4, 113040, Note_on_c, 0, 47, 0
4, 113040, Note_on_c, 0, 52, 0
4, 113040, Note_on_c, 0, 56, 0
4, 113040, Control_c, 0, 64, 127
4, 113040, Note_on_c, 0, 51, 101
4, 113280, Note_on_c, 0, 51, 0
4, 113280, Note_on_c, 0, 40, 101
4, 113280, Note_on_c, 0, 52, 101
4, 113520, Note_on_c, 0, 52, 0
4, 113520, Note_on_c, 0, 40, 0
4, 113520, Note_on_c, 0, 51, 101
4, 113760, Note_on_c, 0, 51, 0
4, 113760, Note_on_c, 0, 52, 101
4, 114000, Note_on_c, 0, 52, 0
4, 114000, Control_c, 0, 64, 0
4, 114000, Note_on_c, 0, 51, 101
4, 114240, Note_on_c, 0, 51, 0
4, 114240, Control_c, 0, 64, 127
4, 114240, Note_on_c, 0, 52, 101
4, 114480, Note_on_c, 0, 52, 0
4, 114480, Note_on_c, 0, 51, 101
4, 114720, Note_on_c, 0, 51, 0
4, 114720, Note_on_c, 0, 40, 101
4, 114720, Note_on_c, 0, 52, 101
4, 114960, Note_on_c, 0, 52, 0
4, 114960, Note_on_c, 0, 40, 0
4, 114960, Note_on_c, 0, 51, 101
4, 115200, Note_on_c, 0, 51, 0
4, 115200, Note_on_c, 0, 52, 101
4, 115440, Note_on_c, 0, 52, 0
4, 115440, Control_c, 0, 64, 0
4, 115440, Note_on_c, 0, 51, 101
4, 115680, Note_on_c, 0, 51, 0
4, 115680, Control_c, 0, 64, 127
4, 115680, Note_on_c, 0, 52, 101
4, 115920, Note_on_c, 0, 52, 0
4, 115920, Note_on_c, 0, 51, 101
4, 116160, Note_on_c, 0, 51, 0
4, 116160, Note_on_c, 0, 40, 101
4, 116160, Note_on_c, 0, 52, 101
4, 116400, Note_on_c, 0, 52, 0
4, 116400, Note_on_c, 0, 40, 0
4, 116400, Note_on_c, 0, 51, 101
4, 116640, Note_on_c, 0, 51, 0
4, 116640, Note_on_c, 0, 52, 101
4, 116880, Note_on_c, 0, 52, 0
4, 116880, Control_c, 0, 64, 0
4, 116880, Note_on_c, 0, 51, 101
4, 117120, Note_on_c, 0, 51, 0
4, 117120, Note_on_c, 0, 50, 88
4, 117120, Note_on_c, 0, 52, 88
4, 117120, Note_on_c, 0, 56, 88
4, 117120, Note_on_c, 0, 59, 88
4, 118080, Note_on_c, 0, 59, 0
4, 118080, Note_on_c, 0, 50, 0
4, 118080, Note_on_c, 0, 52, 0
4, 118080, Note_on_c, 0, 56, 0
4, 118080, Note_on_c, 0, 49, 88
4, 118080, Note_on_c, 0, 52, 88
4, 118080, Note_on_c, 0, 57, 88
4, 118560, Note_on_c, 0, 57, 0
4, 118560, Note_on_c, 0, 52, 0
4, 118560, Note_on_c, 0, 49, 0
4, 118560, Note_on_c, 0, 47, 88
4, 118560, Note_on_c, 0, 52, 88
4, 118560, Note_on_c, 0, 56, 88
4, 118560, Note_on_c, 0, 62, 88
4, 118800, Note_on_c, 0, 62, 0
4, 118800, Note_on_c, 0, 47, 0
4, 118800, Note_on_c, 0, 52, 0
4, 118800, Note_on_c, 0, 56, 0
4, 118800, Control_c, 0, 64, 127
4, 118800, Note_on_c, 0, 51, 101
4, 119040, Note_on_c, 0, 51, 0
4, 119040, Note_on_c, 0, 40, 101
4, 119040, Note_on_c, 0, 52, 101
4, 119280, Note_on_c, 0, 52, 0
4, 119280, Note_on_c, 0, 40, 0
4, 119280, Note_on_c, 0, 51, 101
4, 119520, Note_on_c, 0, 51, 0
4, 119520, Note_on_c, 0, 52, 101
4, 119760, Note_on_c, 0, 52, 0
4, 119760, Control_c, 0, 64, 0
4, 119760, Note_on_c, 0, 51, 101
4, 120000, Note_on_c, 0, 51, 0
4, 120000, Control_c, 0, 64, 127
4, 120000, Note_on_c, 0, 52, 101
4, 120240, Note_on_c, 0, 52, 0
4, 120240, Note_on_c, 0, 51, 101
4, 120480, Note_on_c, 0, 51, 0
4, 120480, Note_on_c, 0, 40, 101
4, 120480, Note_on_c, 0, 52, 101
4, 120720, Note_on_c, 0, 52, 0
4, 120720, Note_on_c, 0, 40, 0
4, 120720, Note_on_c, 0, 51, 101
4, 120960, Note_on_c, 0, 51, 0
4, 120960, Note_on_c, 0, 52, 101
4, 121200, Note_on_c, 0, 52, 0
4, 121200, Control_c, 0, 64, 0
4, 121200, Note_on_c, 0, 51, 101
4, 121440, Note_on_c, 0, 51, 0
4, 121440, Control_c, 0, 64, 127
4, 121440, Note_on_c, 0, 52, 101
4, 121680, Note_on_c, 0, 52, 0
4, 121680, Note_on_c, 0, 51, 101
4, 121920, Note_on_c, 0, 51, 0
4, 121920, Note_on_c, 0, 40, 101
4, 121920, Note_on_c, 0, 52, 101
4, 122160, Note_on_c, 0, 52, 0
4, 122160, Note_on_c, 0, 40, 0
4, 122160, Note_on_c, 0, 51, 101
4, 122400, Note_on_c, 0, 51, 0
4, 122400, Note_on_c, 0, 52, 101
4, 122640, Note_on_c, 0, 52, 0
4, 122640, Control_c, 0, 64, 0
4, 122640, Note_on_c, 0, 51, 101
4, 122880, Note_on_c, 0, 51, 0
4, 122880, Note_on_c, 0, 50, 75
4, 122880, Note_on_c, 0, 52, 75
4, 122880, Note_on_c, 0, 56, 75
4, 122880, Note_on_c, 0, 59, 75
4, 123840, Note_on_c, 0, 59, 0
4, 123840, Note_on_c, 0, 50, 0
4, 123840, Note_on_c, 0, 52, 0
4, 123840, Note_on_c, 0, 56, 0
4, 123840, Note_on_c, 0, 49, 75
4, 123840, Note_on_c, 0, 52, 75
4, 123840, Note_on_c, 0, 57, 75
4, 124320, Note_on_c, 0, 57, 0
4, 124320, Note_on_c, 0, 52, 0
4, 124320, Note_on_c, 0, 49, 0
4, 124320, Note_on_c, 0, 47, 75
4, 124320, Note_on_c, 0, 52, 75
4, 124320, Note_on_c, 0, 56, 75
4, 124320, Note_on_c, 0, 62, 75
4, 124560, Note_on_c, 0, 62, 0
4, 124560, Note_on_c, 0, 47, 0
4, 124560, Note_on_c, 0, 52, 0
4, 124560, Note_on_c, 0, 56, 0
4, 124560, Control_c, 0, 64, 127
4, 124560, Note_on_c, 0, 51, 88
4, 124800, Note_on_c, 0, 51, 0
4, 124800, Note_on_c, 0, 40, 88
4, 124800, Note_on_c, 0, 52, 88
4, 125040, Note_on_c, 0, 52, 0
4, 125040, Note_on_c, 0, 40, 0
4, 125040, Note_on_c, 0, 51, 88
4, 125280, Note_on_c, 0, 51, 0
4, 125280, Note_on_c, 0, 52, 88
4, 125520, Note_on_c, 0, 52, 0
4, 125520, Control_c, 0, 64, 0
4, 125520, Note_on_c, 0, 51, 88
4, 125760, Note_on_c, 0, 51, 0
4, 125760, Control_c, 0, 64, 127
4, 125760, Note_on_c, 0, 52, 88
4, 126000, Note_on_c, 0, 52, 0
4, 126000, Note_on_c, 0, 51, 88
4, 126240, Note_on_c, 0, 51, 0
4, 126240, Note_on_c, 0, 40, 88
4, 126240, Note_on_c, 0, 52, 88
4, 126480, Note_on_c, 0, 52, 0
4, 126480, Note_on_c, 0, 40, 0
4, 126480, Note_on_c, 0, 51, 88
4, 126720, Note_on_c, 0, 51, 0
4, 126720, Note_on_c, 0, 52, 88
4, 126960, Note_on_c, 0, 52, 0
4, 126960, Control_c, 0, 64, 0
4, 126960, Note_on_c, 0, 51, 88
4, 127200, Note_on_c, 0, 51, 0
4, 127200, Control_c, 0, 64, 127
4, 127200, Note_on_c, 0, 52, 88
4, 127440, Note_on_c, 0, 52, 0
4, 127440, Note_on_c, 0, 51, 88
4, 127680, Note_on_c, 0, 51, 0
4, 127680, Note_on_c, 0, 40, 88
4, 127680, Note_on_c, 0, 52, 88
4, 127920, Note_on_c, 0, 52, 0
4, 127920, Note_on_c, 0, 40, 0
4, 127920, Note_on_c, 0, 51, 88
4, 128160, Note_on_c, 0, 51, 0
4, 128160, Note_on_c, 0, 52, 88
4, 128400, Note_on_c, 0, 52, 0
4, 128400, Control_c, 0, 64, 0
4, 128400, Note_on_c, 0, 51, 88
4, 128640, Note_on_c, 0, 51, 0
4, 128640, Note_on_c, 0, 49, 88
4, 128640, Note_on_c, 0, 52, 88
4, 128640, Note_on_c, 0, 57, 88
4, 129600, Note_on_c, 0, 57, 0
4, 129600, Note_on_c, 0, 52, 0
4, 129600, Note_on_c, 0, 49, 0
4, 129600, Note_on_c, 0, 48, 88
4, 129600, Note_on_c, 0, 52, 88
4, 129600, Note_on_c, 0, 54, 88
4, 129600, Note_on_c, 0, 57, 88
4, 130080, Note_on_c, 0, 57, 0
4, 130080, Note_on_c, 0, 48, 0
4, 130080, Note_on_c, 0, 52, 0
4, 130080, Note_on_c, 0, 54, 0
4, 130080, Note_on_c, 0, 47, 88
4, 130080, Note_on_c, 0, 52, 88
4, 130080, Note_on_c, 0, 56, 88
4, 130080, Note_on_c, 0, 59, 88
4, 130320, Note_on_c, 0, 59, 0
4, 130320, Note_on_c, 0, 47, 0
4, 130320, Note_on_c, 0, 52, 0
4, 130320, Note_on_c, 0, 56, 0
4, 130320, Control_c, 0, 64, 127
4, 130320, Note_on_c, 0, 46, 88
4, 130560, Note_on_c, 0, 46, 0
4, 130560, Note_on_c, 0, 47, 88
4, 130800, Note_on_c, 0, 47, 0
4, 130800, Note_on_c, 0, 46, 88
4, 131040, Note_on_c, 0, 46, 0
4, 131040, Note_on_c, 0, 47, 88
4, 131280, Note_on_c, 0, 47, 0
4, 131280, Control_c, 0, 64, 0
4, 131280, Note_on_c, 0, 46, 88
4, 131520, Note_on_c, 0, 46, 0
4, 131520, Control_c, 0, 64, 127
4, 131520, Note_on_c, 0, 47, 88
4, 131760, Note_on_c, 0, 47, 0
4, 131760, Note_on_c, 0, 46, 88
4, 132000, Note_on_c, 0, 46, 0
4, 132000, Note_on_c, 0, 47, 88
4, 132240, Note_on_c, 0, 47, 0
4, 132240, Note_on_c, 0, 46, 88
4, 132480, Note_on_c, 0, 46, 0
4, 132480, Note_on_c, 0, 47, 88
4, 132720, Note_on_c, 0, 47, 0
4, 132720, Control_c, 0, 64, 0
4, 132720, Note_on_c, 0, 46, 88
4, 132960, Note_on_c, 0, 46, 0
4, 132960, Note_on_c, 0, 47, 88
4, 133200, Note_on_c, 0, 47, 0
4, 133200, Note_on_c, 0, 46, 88
4, 133440, Note_on_c, 0, 46, 0
4, 133440, Note_on_c, 0, 47, 88
4, 133680, Note_on_c, 0, 47, 0
4, 133680, Note_on_c, 0, 47, 88
4, 133920, Note_on_c, 0, 47, 0
4, 133920, Note_on_c, 0, 40, 88
4, 133920, Note_on_c, 0, 52, 88
4, 134160, Note_on_c, 0, 52, 0
4, 134160, Note_on_c, 0, 40, 0
4, 134400, Note_on_c, 0, 50, 49
4, 134400, Note_on_c, 0, 56, 49
4, 134400, Note_on_c, 0, 59, 49
4, 134400, Note_on_c, 0, 64, 49
4, 134880, Note_on_c, 0, 64, 0
4, 134880, Note_on_c, 0, 50, 0
4, 134880, Note_on_c, 0, 56, 0
4, 134880, Note_on_c, 0, 59, 0
4, 134880, Note_on_c, 0, 56, 49
4, 134880, Note_on_c, 0, 59, 49
4, 134880, Note_on_c, 0, 64, 49
4, 135360, Note_on_c, 0, 64, 0
4, 135360, Note_on_c, 0, 59, 0
4, 135360, Note_on_c, 0, 56, 0
4, 135360, Note_on_c, 0, 50, 49
4, 135840, Note_on_c, 0, 50, 0
4, 135840, Note_on_c, 0, 50, 49
4, 136320, Note_on_c, 0, 50, 0
4, 136320, Note_on_c, 0, 56, 49
4, 136320, Note_on_c, 0, 59, 49
4, 136320, Note_on_c, 0, 64, 49
4, 136800, Note_on_c, 0, 64, 0
4, 136800, Note_on_c, 0, 59, 0
4, 136800, Note_on_c, 0, 56, 0
4, 136800, Note_on_c, 0, 50, 49
4, 137280, Note_on_c, 0, 50, 0
4, 137280, Note_on_c, 0, 49, 49
4, 137760, Note_on_c, 0, 49, 0
4, 137760, Note_on_c, 0, 57, 49
4, 137760, Note_on_c, 0, 61, 49
4, 137760, Note_on_c, 0, 64, 49
4, 138240, Note_on_c, 0, 64, 0
4, 138240, Note_on_c, 0, 61, 0
4, 138240, Note_on_c, 0, 57, 0
4, 138240, Note_on_c, 0, 49, 49
4, 138720, Note_on_c, 0, 49, 0
4, 138720, Note_on_c, 0, 49, 49
4, 139200, Note_on_c, 0, 49, 0
4, 139200, Note_on_c, 0, 57, 49
4, 139200, Note_on_c, 0, 61, 49
4, 139200, Note_on_c, 0, 64, 49
4, 139680, Note_on_c, 0, 64, 0
4, 139680, Note_on_c, 0, 61, 0
4, 139680, Note_on_c, 0, 57, 0
4, 139680, Note_on_c, 0, 49, 49
4, 140160, Note_on_c, 0, 49, 0
4, 140160, Note_on_c, 0, 47, 62
4, 140640, Note_on_c, 0, 47, 0
4, 140640, Note_on_c, 0, 56, 62
4, 140640, Note_on_c, 0, 62, 62
4, 140640, Note_on_c, 0, 64, 62
4, 141120, Note_on_c, 0, 64, 0
4, 141120, Note_on_c, 0, 62, 0
4, 141120, Note_on_c, 0, 56, 0
4, 141120, Note_on_c, 0, 47, 62
4, 141600, Note_on_c, 0, 47, 0
4, 141600, Note_on_c, 0, 47, 62
4, 142080, Note_on_c, 0, 47, 0
4, 142080, Note_on_c, 0, 56, 62
4, 142080, Note_on_c, 0, 62, 62
4, 142080, Note_on_c, 0, 64, 62
4, 142560, Note_on_c, 0, 64, 0
4, 142560, Note_on_c, 0, 62, 0
4, 142560, Note_on_c, 0, 56, 0
4, 142560, Note_on_c, 0, 47, 62
4, 143040, Note_on_c, 0, 47, 0
4, 143040, Note_on_c, 0, 46, 62
4, 143520, Note_on_c, 0, 46, 0
4, 143520, Note_on_c, 0, 54, 62
4, 143520, Note_on_c, 0, 61, 62
4, 143520, Note_on_c, 0, 64, 62
4, 144000, Note_on_c, 0, 64, 0
4, 144000, Note_on_c, 0, 61, 0
4, 144000, Note_on_c, 0, 54, 0
4, 144000, Note_on_c, 0, 46, 62
4, 144480, Note_on_c, 0, 46, 0
4, 144480, Note_on_c, 0, 46, 62
4, 144960, Note_on_c, 0, 46, 0
4, 144960, Note_on_c, 0, 54, 62
4, 144960, Note_on_c, 0, 61, 62
4, 144960, Note_on_c, 0, 63, 62
4, 145440, Note_on_c, 0, 63, 0
4, 145440, Note_on_c, 0, 61, 0
4, 145440, Note_on_c, 0, 54, 0
4, 145440, Note_on_c, 0, 46, 62
4, 145920, Note_on_c, 0, 46, 0
4, 145920, Note_on_c, 0, 45, 62
4, 146400, Note_on_c, 0, 45, 0
4, 146400, Note_on_c, 0, 54, 62
4, 146400, Note_on_c, 0, 61, 62
4, 146400, Note_on_c, 0, 63, 62
4, 146880, Note_on_c, 0, 63, 0
4, 146880, Note_on_c, 0, 61, 0
4, 146880, Note_on_c, 0, 54, 0
4, 146880, Note_on_c, 0, 45, 62
4, 147360, Note_on_c, 0, 45, 0
4, 147360, Note_on_c, 0, 44, 62
4, 147840, Note_on_c, 0, 44, 0
4, 147840, Note_on_c, 0, 54, 62
4, 147840, Note_on_c, 0, 60, 62
4, 147840, Note_on_c, 0, 63, 62
4, 148320, Note_on_c, 0, 63, 0
4, 148320, Note_on_c, 0, 60, 0
4, 148320, Note_on_c, 0, 54, 0
4, 148320, Note_on_c, 0, 44, 62
4, 148800, Note_on_c, 0, 44, 0
4, 148800, Note_on_c, 0, 43, 62
4, 149280, Note_on_c, 0, 43, 0
4, 149280, Note_on_c, 0, 55, 62
4, 149280, Note_on_c, 0, 60, 62
4, 149280, Note_on_c, 0, 63, 62
4, 149760, Note_on_c, 0, 63, 0
4, 149760, Note_on_c, 0, 60, 0
4, 149760, Note_on_c, 0, 55, 0
4, 149760, Note_on_c, 0, 43, 62
4, 150240, Note_on_c, 0, 43, 0
4, 150240, Note_on_c, 0, 53, 75
4, 150240, Note_on_c, 0, 59, 75
4, 150240, Note_on_c, 0, 62, 75
4, 150720, Note_on_c, 0, 62, 0
4, 150720, Note_on_c, 0, 59, 0
4, 150720, Note_on_c, 0, 53, 0
4, 150720, Note_on_c, 0, 59, 75
4, 150720, Note_on_c, 0, 62, 75
4, 151200, Note_on_c, 0, 62, 0
4, 151200, Note_on_c, 0, 59, 0
4, 151200, Note_on_c, 0, 53, 75
4, 151680, Note_on_c, 0, 53, 0
4, 151680, Note_on_c, 0, 52, 75
4, 151680, Note_on_c, 0, 58, 75
4, 151680, Note_on_c, 0, 61, 75
4, 152160, Note_on_c, 0, 61, 0
4, 152160, Note_on_c, 0, 58, 0
4, 152160, Note_on_c, 0, 52, 0
4, 152160, Note_on_c, 0, 58, 75
4, 152160, Note_on_c, 0, 61, 75
4, 152640, Note_on_c, 0, 61, 0
4, 152640, Note_on_c, 0, 58, 0
4, 152640, Note_on_c, 0, 52, 75
4, 153120, Note_on_c, 0, 52, 0
4, 153120, Note_on_c, 0, 51, 75
4, 153120, Note_on_c, 0, 57, 75
4, 153120, Note_on_c, 0, 60, 75
4, 153600, Note_on_c, 0, 60, 0
4, 153600, Note_on_c, 0, 57, 0
4, 153600, Note_on_c, 0, 51, 0
4, 153600, Note_on_c, 0, 57, 75
4, 153600, Note_on_c, 0, 60, 75
4, 154080, Note_on_c, 0, 60, 0
4, 154080, Note_on_c, 0, 57, 0
4, 154080, Note_on_c, 0, 51, 75
4, 154560, Note_on_c, 0, 51, 0
4, 154560, Note_on_c, 0, 50, 75
4, 154560, Note_on_c, 0, 59, 75
4, 154560, Note_on_c, 0, 62, 75
4, 155040, Note_on_c, 0, 62, 0
4, 155040, Note_on_c, 0, 59, 0
4, 155040, Note_on_c, 0, 50, 0
4, 155040, Note_on_c, 0, 59, 75
4, 155040, Note_on_c, 0, 62, 75
4, 155520, Note_on_c, 0, 62, 0
4, 155520, Note_on_c, 0, 59, 0
4, 155520, Note_on_c, 0, 50, 88
4, 156000, Note_on_c, 0, 50, 0
4, 156000, Note_on_c, 0, 48, 88
4, 156000, Note_on_c, 0, 63, 88
4, 156480, Note_on_c, 0, 63, 0
4, 156480, Note_on_c, 0, 48, 0
4, 156480, Note_on_c, 0, 60, 88
4, 156480, Note_on_c, 0, 63, 88
4, 156960, Note_on_c, 0, 63, 0
4, 156960, Note_on_c, 0, 60, 0
4, 156960, Note_on_c, 0, 48, 88
4, 157440, Note_on_c, 0, 48, 0
4, 164160, Note_on_c, 0, 48, 75
4, 164160, Note_on_c, 0, 55, 75
4, 164160, Note_on_c, 0, 63, 75
4, 164640, Note_on_c, 0, 63, 0
4, 164640, Note_on_c, 0, 55, 0
4, 164640, Note_on_c, 0, 48, 0
4, 164640, Control_c, 0, 64, 127
4, 164640, Note_on_c, 0, 55, 75
4, 164880, Note_on_c, 0, 55, 0
4, 164880, Note_on_c, 0, 60, 75
4, 165120, Note_on_c, 0, 60, 0
4, 165120, Note_on_c, 0, 63, 75
4, 165360, Note_on_c, 0, 63, 0
4, 165360, Control_c, 0, 64, 0
4, 165360, Note_on_c, 0, 60, 75
4, 165600, Note_on_c, 0, 60, 0
4, 165600, Note_on_c, 0, 53, 75
4, 165600, Note_on_c, 0, 57, 75
4, 165600, Note_on_c, 0, 60, 75
4, 165600, Note_on_c, 0, 63, 75
4, 165840, Note_on_c, 0, 63, 0
4, 165840, Note_on_c, 0, 53, 0
4, 165840, Note_on_c, 0, 57, 0
4, 165840, Note_on_c, 0, 60, 0
4, 167520, Note_on_c, 0, 46, 75
4, 167520, Note_on_c, 0, 50, 75
4, 167520, Note_on_c, 0, 53, 75
4, 167520, Note_on_c, 0, 58, 75
4, 168000, Note_on_c, 0, 58, 0
4, 168000, Note_on_c, 0, 46, 0
4, 168000, Note_on_c, 0, 50, 0
4, 168000, Note_on_c, 0, 53, 0
4, 168000, Note_on_c, 0, 46, 75
4, 168000, Note_on_c, 0, 50, 75
4, 168000, Note_on_c, 0, 53, 75
4, 168000, Note_on_c, 0, 58, 75
4, 168480, Note_on_c, 0, 58, 0
4, 168480, Note_on_c, 0, 46, 0
4, 168480, Note_on_c, 0, 50, 0
4, 168480, Note_on_c, 0, 53, 0
4, 168480, Note_on_c, 0, 46, 75
4, 168480, Note_on_c, 0, 50, 75
4, 168480, Note_on_c, 0, 53, 75
4, 168480, Note_on_c, 0, 58, 75
4, 168960, Note_on_c, 0, 58, 0
4, 168960, Note_on_c, 0, 46, 0
4, 168960, Note_on_c, 0, 50, 0
4, 168960, Note_on_c, 0, 53, 0
4, 168960, Note_on_c, 0, 46, 75
4, 168960, Note_on_c, 0, 50, 75
4, 168960, Note_on_c, 0, 53, 75
4, 168960, Note_on_c, 0, 58, 75
4, 169440, Note_on_c, 0, 58, 0
4, 169440, Note_on_c, 0, 46, 0
4, 169440, Note_on_c, 0, 50, 0
4, 169440, Note_on_c, 0, 53, 0
4, 169440, Note_on_c, 0, 50, 75
4, 169440, Note_on_c, 0, 53, 75
4, 169440, Note_on_c, 0, 58, 75
4, 169440, Note_on_c, 0, 62, 75
4, 169920, Note_on_c, 0, 62, 0
4, 169920, Note_on_c, 0, 50, 0
4, 169920, Note_on_c, 0, 53, 0
4, 169920, Note_on_c, 0, 58, 0
4, 169920, Note_on_c, 0, 48, 75
4, 169920, Note_on_c, 0, 55, 75
4, 169920, Note_on_c, 0, 63, 75
4, 170400, Note_on_c, 0, 63, 0
4, 170400, Note_on_c, 0, 55, 0
4, 170400, Note_on_c, 0, 48, 0
4, 170400, Control_c, 0, 64, 127
4, 170400, Note_on_c, 0, 55, 75
4, 170640, Note_on_c, 0, 55, 0
4, 170640, Note_on_c, 0, 60, 75
4, 170880, Note_on_c, 0, 60, 0
4, 170880, Note_on_c, 0, 63, 75
4, 171120, Note_on_c, 0, 63, 0
4, 171120, Control_c, 0, 64, 0
4, 171120, Note_on_c, 0, 60, 75
4, 171360, Note_on_c, 0, 60, 0
4, 171360, Note_on_c, 0, 53, 75
4, 171360, Note_on_c, 0, 57, 75
4, 171360, Note_on_c, 0, 60, 75
4, 171360, Note_on_c, 0, 63, 75
4, 171600, Note_on_c, 0, 63, 0
4, 171600, Note_on_c, 0, 53, 0
4, 171600, Note_on_c, 0, 57, 0
4, 171600, Note_on_c, 0, 60, 0
4, 173280, Note_on_c, 0, 46, 75
4, 173280, Note_on_c, 0, 50, 75
4, 173280, Note_on_c, 0, 53, 75
4, 173280, Note_on_c, 0, 58, 75
4, 173760, Note_on_c, 0, 58, 0
4, 173760, Note_on_c, 0, 46, 0
4, 173760, Note_on_c, 0, 50, 0
4, 173760, Note_on_c, 0, 53, 0
4, 173760, Note_on_c, 0, 46, 75
4, 173760, Note_on_c, 0, 50, 75
4, 173760, Note_on_c, 0, 53, 75
4, 173760, Note_on_c, 0, 58, 75
4, 174240, Note_on_c, 0, 58, 0
4, 174240, Note_on_c, 0, 46, 0
4, 174240, Note_on_c, 0, 50, 0
4, 174240, Note_on_c, 0, 53, 0
4, 174240, Note_on_c, 0, 46, 75
4, 174240, Note_on_c, 0, 50, 75
4, 174240, Note_on_c, 0, 53, 75
4, 174240, Note_on_c, 0, 58, 75
4, 174720, Note_on_c, 0, 58, 0
4, 174720, Note_on_c, 0, 46, 0
4, 174720, Note_on_c, 0, 50, 0
4, 174720, Note_on_c, 0, 53, 0
4, 174720, Note_on_c, 0, 46, 75
4, 174720, Note_on_c, 0, 50, 75
4, 174720, Note_on_c, 0, 53, 75
4, 174720, Note_on_c, 0, 58, 75
4, 175200, Note_on_c, 0, 58, 0
4, 175200, Note_on_c, 0, 46, 0
4, 175200, Note_on_c, 0, 50, 0
4, 175200, Note_on_c, 0, 53, 0
4, 175200, Note_on_c, 0, 50, 75
4, 175200, Note_on_c, 0, 53, 75
4, 175200, Note_on_c, 0, 58, 75
4, 175680, Note_on_c, 0, 58, 0
4, 175680, Note_on_c, 0, 53, 0
4, 175680, Note_on_c, 0, 50, 0
4, 175680, Note_on_c, 0, 48, 75
4, 175680, Note_on_c, 0, 55, 75
4, 175680, Note_on_c, 0, 63, 75
4, 176160, Note_on_c, 0, 63, 0
4, 176160, Note_on_c, 0, 55, 0
4, 176160, Note_on_c, 0, 48, 0
4, 176160, Control_c, 0, 64, 127
4, 176160, Note_on_c, 0, 55, 75
4, 176400, Note_on_c, 0, 55, 0
4, 176400, Note_on_c, 0, 60, 75
4, 176640, Note_on_c, 0, 60, 0
4, 176640, Note_on_c, 0, 63, 75
4, 176880, Note_on_c, 0, 63, 0
4, 176880, Control_c, 0, 64, 0
4, 176880, Note_on_c, 0, 60, 75
4, 177120, Note_on_c, 0, 60, 0
4, 177120, Note_on_c, 0, 53, 75
4, 177120, Note_on_c, 0, 57, 75
4, 177120, Note_on_c, 0, 60, 75
4, 177120, Note_on_c, 0, 63, 75
4, 177360, Note_on_c, 0, 63, 0
4, 177360, Note_on_c, 0, 53, 0
4, 177360, Note_on_c, 0, 57, 0
4, 177360, Note_on_c, 0, 60, 0
4, 179040, Note_on_c, 0, 46, 75
4, 179040, Note_on_c, 0, 50, 75
4, 179040, Note_on_c, 0, 53, 75
4, 179040, Note_on_c, 0, 58, 75
4, 179520, Note_on_c, 0, 58, 0
4, 179520, Note_on_c, 0, 46, 0
4, 179520, Note_on_c, 0, 50, 0
4, 179520, Note_on_c, 0, 53, 0
4, 179520, Note_on_c, 0, 46, 75
4, 179520, Note_on_c, 0, 50, 75
4, 179520, Note_on_c, 0, 53, 75
4, 179520, Note_on_c, 0, 58, 75
4, 180000, Note_on_c, 0, 58, 0
4, 180000, Note_on_c, 0, 46, 0
4, 180000, Note_on_c, 0, 50, 0
4, 180000, Note_on_c, 0, 53, 0
4, 180000, Note_on_c, 0, 46, 75
4, 180000, Note_on_c, 0, 50, 75
4, 180000, Note_on_c, 0, 53, 75
4, 180000, Note_on_c, 0, 58, 75
4, 180480, Note_on_c, 0, 58, 0
4, 180480, Note_on_c, 0, 46, 0
4, 180480, Note_on_c, 0, 50, 0
4, 180480, Note_on_c, 0, 53, 0
4, 180480, Note_on_c, 0, 46, 75
4, 180480, Note_on_c, 0, 50, 75
4, 180480, Note_on_c, 0, 53, 75
4, 180480, Note_on_c, 0, 58, 75
4, 180960, Note_on_c, 0, 58, 0
4, 180960, Note_on_c, 0, 46, 0
4, 180960, Note_on_c, 0, 50, 0
4, 180960, Note_on_c, 0, 53, 0
4, 180960, Note_on_c, 0, 46, 75
4, 180960, Note_on_c, 0, 50, 75
4, 180960, Note_on_c, 0, 52, 75
4, 180960, Note_on_c, 0, 55, 75
4, 181440, Note_on_c, 0, 55, 0
4, 181440, Note_on_c, 0, 46, 0
4, 181440, Note_on_c, 0, 50, 0
4, 181440, Note_on_c, 0, 52, 0
4, 181440, Control_c, 0, 64, 127
4, 181440, Note_on_c, 0, 45, 75
4, 181440, Note_on_c, 0, 57, 75
4, 181680, Note_on_c, 0, 57, 0
4, 181680, Note_on_c, 0, 45, 0
4, 181680, Note_on_c, 0, 62, 75
4, 181920, Note_on_c, 0, 62, 0
4, 181920, Note_on_c, 0, 57, 75
4, 182160, Note_on_c, 0, 57, 0
4, 182160, Note_on_c, 0, 50, 75
4, 182400, Note_on_c, 0, 50, 0
4, 182400, Note_on_c, 0, 57, 75
4, 182640, Note_on_c, 0, 57, 0
4, 182640, Note_on_c, 0, 62, 75
4, 182880, Note_on_c, 0, 62, 0
4, 182880, Control_c, 0, 64, 0
4, 182880, Note_on_c, 0, 45, 75
4, 182880, Note_on_c, 0, 50, 75
4, 182880, Note_on_c, 0, 57, 75
4, 183120, Note_on_c, 0, 57, 0
4, 183120, Note_on_c, 0, 50, 0
4, 183120, Note_on_c, 0, 45, 0
4, 184800, Note_on_c, 0, 45, 75
4, 184800, Note_on_c, 0, 49, 75
4, 184800, Note_on_c, 0, 55, 75
4, 184800, Note_on_c, 0, 57, 75
4, 185280, Note_on_c, 0, 57, 0
4, 185280, Note_on_c, 0, 45, 0
4, 185280, Note_on_c, 0, 49, 0
4, 185280, Note_on_c, 0, 55, 0
4, 185280, Note_on_c, 0, 45, 75
4, 185280, Note_on_c, 0, 49, 75
4, 185280, Note_on_c, 0, 55, 75
4, 185280, Note_on_c, 0, 57, 75
4, 185760, Note_on_c, 0, 57, 0
4, 185760, Note_on_c, 0, 45, 0
4, 185760, Note_on_c, 0, 49, 0
4, 185760, Note_on_c, 0, 55, 0
4, 185760, Note_on_c, 0, 50, 75
4, 185760, Note_on_c, 0, 54, 75
4, 185760, Note_on_c, 0, 57, 75
4, 185760, Note_on_c, 0, 62, 75
4, 186000, Note_on_c, 0, 62, 0
4, 186000, Note_on_c, 0, 50, 0
4, 186000, Note_on_c, 0, 54, 0
4, 186000, Note_on_c, 0, 57, 0
4, 187200, Control_c, 0, 64, 127
4, 187200, Note_on_c, 0, 48, 88
4, 187200, Note_on_c, 0, 55, 88
4, 187200, Note_on_c, 0, 63, 88
4, 187440, Note_on_c, 0, 63, 0
4, 187440, Note_on_c, 0, 55, 0
4, 187440, Note_on_c, 0, 48, 0
4, 187440, Note_on_c, 0, 60, 88
4, 187680, Note_on_c, 0, 60, 0
4, 187680, Note_on_c, 0, 63, 88
4, 187920, Note_on_c, 0, 63, 0
4, 187920, Note_on_c, 0, 60, 88
4, 188160, Note_on_c, 0, 60, 0
4, 188160, Note_on_c, 0, 55, 88
4, 188400, Note_on_c, 0, 55, 0
4, 188400, Note_on_c, 0, 60, 88
4, 188640, Note_on_c, 0, 60, 0
4, 188640, Control_c, 0, 64, 0
4, 188640, Note_on_c, 0, 53, 88
4, 188640, Note_on_c, 0, 57, 88
4, 188640, Note_on_c, 0, 60, 88
4, 188640, Note_on_c, 0, 63, 88
4, 188880, Note_on_c, 0, 63, 0
4, 188880, Note_on_c, 0, 53, 0
4, 188880, Note_on_c, 0, 57, 0
4, 188880, Note_on_c, 0, 60, 0
4, 190560, Note_on_c, 0, 46, 75
4, 190560, Note_on_c, 0, 50, 75
4, 190560, Note_on_c, 0, 53, 75
4, 190560, Note_on_c, 0, 58, 75
4, 191040, Note_on_c, 0, 58, 0
4, 191040, Note_on_c, 0, 46, 0
4, 191040, Note_on_c, 0, 50, 0
4, 191040, Note_on_c, 0, 53, 0
4, 191040, Note_on_c, 0, 46, 75
4, 191040, Note_on_c, 0, 50, 75
4, 191040, Note_on_c, 0, 53, 75
4, 191040, Note_on_c, 0, 58, 75
4, 191520, Note_on_c, 0, 58, 0
4, 191520, Note_on_c, 0, 46, 0
4, 191520, Note_on_c, 0, 50, 0
4, 191520, Note_on_c, 0, 53, 0
4, 191520, Note_on_c, 0, 46, 75
4, 191520, Note_on_c, 0, 50, 75
4, 191520, Note_on_c, 0, 53, 75
4, 191520, Note_on_c, 0, 58, 75
4, 192000, Note_on_c, 0, 58, 0
4, 192000, Note_on_c, 0, 46, 0
4, 192000, Note_on_c, 0, 50, 0
4, 192000, Note_on_c, 0, 53, 0
4, 192000, Note_on_c, 0, 46, 75
4, 192000, Note_on_c, 0, 50, 75
4, 192000, Note_on_c, 0, 53, 75
4, 192000, Note_on_c, 0, 58, 75
4, 192480, Note_on_c, 0, 58, 0
4, 192480, Note_on_c, 0, 46, 0
4, 192480, Note_on_c, 0, 50, 0
4, 192480, Note_on_c, 0, 53, 0
4, 192480, Note_on_c, 0, 50, 75
4, 192480, Note_on_c, 0, 53, 75
4, 192480, Note_on_c, 0, 58, 75
4, 192480, Note_on_c, 0, 62, 75
4, 192960, Note_on_c, 0, 62, 0
4, 192960, Note_on_c, 0, 50, 0
4, 192960, Note_on_c, 0, 53, 0
4, 192960, Note_on_c, 0, 58, 0
4, 192960, Control_c, 0, 64, 127
4, 192960, Note_on_c, 0, 48, 88
4, 192960, Note_on_c, 0, 55, 88
4, 192960, Note_on_c, 0, 63, 88
4, 193200, Note_on_c, 0, 63, 0
4, 193200, Note_on_c, 0, 55, 0
4, 193200, Note_on_c, 0, 48, 0
4, 193200, Note_on_c, 0, 60, 88
4, 193440, Note_on_c, 0, 60, 0
4, 193440, Note_on_c, 0, 63, 88
4, 193680, Note_on_c, 0, 63, 0
4, 193680, Note_on_c, 0, 60, 88
4, 193920, Note_on_c, 0, 60, 0
4, 193920, Note_on_c, 0, 55, 88
4, 194160, Note_on_c, 0, 55, 0
4, 194160, Note_on_c, 0, 60, 88
4, 194400, Note_on_c, 0, 60, 0
4, 194400, Control_c, 0, 64, 0
4, 194400, Note_on_c, 0, 53, 88
4, 194400, Note_on_c, 0, 57, 88
4, 194400, Note_on_c, 0, 60, 88
4, 194400, Note_on_c, 0, 63, 88
4, 194640, Note_on_c, 0, 63, 0
4, 194640, Note_on_c, 0, 53, 0
4, 194640, Note_on_c, 0, 57, 0
4, 194640, Note_on_c, 0, 60, 0
4, 196320, Note_on_c, 0, 46, 75
4, 196320, Note_on_c, 0, 50, 75
4, 196320, Note_on_c, 0, 53, 75
4, 196320, Note_on_c, 0, 58, 75
4, 196800, Note_on_c, 0, 58, 0
4, 196800, Note_on_c, 0, 46, 0
4, 196800, Note_on_c, 0, 50, 0
4, 196800, Note_on_c, 0, 53, 0
4, 196800, Note_on_c, 0, 46, 75
4, 196800, Note_on_c, 0, 50, 75
4, 196800, Note_on_c, 0, 53, 75
4, 196800, Note_on_c, 0, 58, 75
4, 197280, Note_on_c, 0, 58, 0
4, 197280, Note_on_c, 0, 46, 0
4, 197280, Note_on_c, 0, 50, 0
4, 197280, Note_on_c, 0, 53, 0
4, 197280, Note_on_c, 0, 46, 75
4, 197280, Note_on_c, 0, 50, 75
4, 197280, Note_on_c, 0, 53, 75
4, 197280, Note_on_c, 0, 58, 75
4, 197760, Note_on_c, 0, 58, 0
4, 197760, Note_on_c, 0, 46, 0
4, 197760, Note_on_c, 0, 50, 0
4, 197760, Note_on_c, 0, 53, 0
4, 197760, Note_on_c, 0, 46, 75
4, 197760, Note_on_c, 0, 50, 75
4, 197760, Note_on_c, 0, 53, 75
4, 197760, Note_on_c, 0, 58, 75
4, 198240, Note_on_c, 0, 58, 0
4, 198240, Note_on_c, 0, 46, 0
4, 198240, Note_on_c, 0, 50, 0
4, 198240, Note_on_c, 0, 53, 0
4, 198240, Note_on_c, 0, 50, 75
4, 198240, Note_on_c, 0, 53, 75
4, 198240, Note_on_c, 0, 58, 75
4, 198240, Note_on_c, 0, 62, 75
4, 198720, Note_on_c, 0, 62, 0
4, 198720, Note_on_c, 0, 50, 0
4, 198720, Note_on_c, 0, 53, 0
4, 198720, Note_on_c, 0, 58, 0
4, 198720, Control_c, 0, 64, 127
4, 198720, Note_on_c, 0, 48, 88
4, 198720, Note_on_c, 0, 55, 88
4, 198720, Note_on_c, 0, 63, 88
4, 198960, Note_on_c, 0, 63, 0
4, 198960, Note_on_c, 0, 55, 0
4, 198960, Note_on_c, 0, 48, 0
4, 198960, Note_on_c, 0, 60, 88
4, 199200, Note_on_c, 0, 60, 0
4, 199200, Note_on_c, 0, 63, 88
4, 199440, Note_on_c, 0, 63, 0
4, 199440, Note_on_c, 0, 60, 88
4, 199680, Note_on_c, 0, 60, 0
4, 199680, Note_on_c, 0, 55, 88
4, 199920, Note_on_c, 0, 55, 0
4, 199920, Note_on_c, 0, 60, 88
4, 200160, Note_on_c, 0, 60, 0
4, 200160, Control_c, 0, 64, 0
4, 200160, Note_on_c, 0, 53, 88
4, 200160, Note_on_c, 0, 57, 88
4, 200160, Note_on_c, 0, 60, 88
4, 200160, Note_on_c, 0, 63, 88
4, 200400, Note_on_c, 0, 63, 0
4, 200400, Note_on_c, 0, 53, 0
4, 200400, Note_on_c, 0, 57, 0
4, 200400, Note_on_c, 0, 60, 0
4, 202080, Note_on_c, 0, 46, 75
4, 202080, Note_on_c, 0, 50, 75
4, 202080, Note_on_c, 0, 53, 75
4, 202080, Note_on_c, 0, 58, 75
4, 202560, Note_on_c, 0, 58, 0
4, 202560, Note_on_c, 0, 46, 0
4, 202560, Note_on_c, 0, 50, 0
4, 202560, Note_on_c, 0, 53, 0
4, 202560, Note_on_c, 0, 46, 75
4, 202560, Note_on_c, 0, 50, 75
4, 202560, Note_on_c, 0, 53, 75
4, 202560, Note_on_c, 0, 58, 75
4, 203040, Note_on_c, 0, 58, 0
4, 203040, Note_on_c, 0, 46, 0
4, 203040, Note_on_c, 0, 50, 0
4, 203040, Note_on_c, 0, 53, 0
4, 203520, Note_on_c, 0, 53, 75
4, 203520, Note_on_c, 0, 57, 75
4, 203520, Note_on_c, 0, 60, 75
4, 203520, Note_on_c, 0, 63, 75
4, 204000, Note_on_c, 0, 63, 0
4, 204000, Note_on_c, 0, 53, 0
4, 204000, Note_on_c, 0, 57, 0
4, 204000, Note_on_c, 0, 60, 0
4, 204000, Note_on_c, 0, 53, 75
4, 204000, Note_on_c, 0, 57, 75
4, 204000, Note_on_c, 0, 60, 75
4, 204000, Note_on_c, 0, 63, 75
4, 204480, Note_on_c, 0, 63, 0
4, 204480, Note_on_c, 0, 53, 0
4, 204480, Note_on_c, 0, 57, 0
4, 204480, Note_on_c, 0, 60, 0
4, 204960, Note_on_c, 0, 46, 75
4, 204960, Note_on_c, 0, 50, 75
4, 204960, Note_on_c, 0, 53, 75
4, 204960, Note_on_c, 0, 58, 75
4, 205440, Note_on_c, 0, 58, 0
4, 205440, Note_on_c, 0, 46, 0
4, 205440, Note_on_c, 0, 50, 0
4, 205440, Note_on_c, 0, 53, 0
4, 205440, Note_on_c, 0, 46, 75
4, 205440, Note_on_c, 0, 50, 75
4, 205440, Note_on_c, 0, 53, 75
4, 205440, Note_on_c, 0, 58, 75
4, 205920, Note_on_c, 0, 58, 0
4, 205920, Note_on_c, 0, 46, 0
4, 205920, Note_on_c, 0, 50, 0
4, 205920, Note_on_c, 0, 53, 0
4, 206400, Note_on_c, 0, 53, 75
4, 206400, Note_on_c, 0, 57, 75
4, 206400, Note_on_c, 0, 60, 75
4, 206400, Note_on_c, 0, 63, 75
4, 206880, Note_on_c, 0, 63, 0
4, 206880, Note_on_c, 0, 53, 0
4, 206880, Note_on_c, 0, 57, 0
4, 206880, Note_on_c, 0, 60, 0
4, 206880, Note_on_c, 0, 53, 75
4, 206880, Note_on_c, 0, 57, 75
4, 206880, Note_on_c, 0, 60, 75
4, 206880, Note_on_c, 0, 63, 75
4, 207360, Note_on_c, 0, 63, 0
4, 207360, Note_on_c, 0, 53, 0
4, 207360, Note_on_c, 0, 57, 0
4, 207360, Note_on_c, 0, 60, 0
4, 207840, Note_on_c, 0, 46, 75
4, 207840, Note_on_c, 0, 50, 75
4, 207840, Note_on_c, 0, 53, 75
4, 207840, Note_on_c, 0, 58, 75
4, 208320, Note_on_c, 0, 58, 0
4, 208320, Note_on_c, 0, 46, 0
4, 208320, Note_on_c, 0, 50, 0
4, 208320, Note_on_c, 0, 53, 0
4, 208320, Note_on_c, 0, 46, 75
4, 208320, Note_on_c, 0, 50, 75
4, 208320, Note_on_c, 0, 53, 75
4, 208320, Note_on_c, 0, 58, 75
4, 208800, Note_on_c, 0, 58, 0
4, 208800, Note_on_c, 0, 46, 0
4, 208800, Note_on_c, 0, 50, 0
4, 208800, Note_on_c, 0, 53, 0
4, 209280, Note_on_c, 0, 53, 75
4, 209280, Note_on_c, 0, 57, 75
4, 209280, Note_on_c, 0, 60, 75
4, 209280, Note_on_c, 0, 63, 75
4, 209760, Note_on_c, 0, 63, 0
4, 209760, Note_on_c, 0, 53, 0
4, 209760, Note_on_c, 0, 57, 0
4, 209760, Note_on_c, 0, 60, 0
4, 209760, Note_on_c, 0, 53, 75
4, 209760, Note_on_c, 0, 57, 75
4, 209760, Note_on_c, 0, 60, 75
4, 209760, Note_on_c, 0, 63, 75
4, 210240, Note_on_c, 0, 63, 0
4, 210240, Note_on_c, 0, 53, 0
4, 210240, Note_on_c, 0, 57, 0
4, 210240, Note_on_c, 0, 60, 0
4, 210720, Note_on_c, 0, 46, 88
4, 210720, Note_on_c, 0, 50, 88
4, 210720, Note_on_c, 0, 53, 88
4, 210720, Note_on_c, 0, 58, 88
4, 211200, Note_on_c, 0, 58, 0
4, 211200, Note_on_c, 0, 46, 0
4, 211200, Note_on_c, 0, 50, 0
4, 211200, Note_on_c, 0, 53, 0
4, 211200, Note_on_c, 0, 46, 88
4, 211200, Note_on_c, 0, 50, 88
4, 211200, Note_on_c, 0, 53, 88
4, 211200, Note_on_c, 0, 58, 88
4, 211680, Note_on_c, 0, 58, 0
4, 211680, Note_on_c, 0, 46, 0
4, 211680, Note_on_c, 0, 50, 0
4, 211680, Note_on_c, 0, 53, 0
4, 212160, Note_on_c, 0, 53, 88
4, 212160, Note_on_c, 0, 57, 88
4, 212160, Note_on_c, 0, 60, 88
4, 212160, Note_on_c, 0, 63, 88
4, 212640, Note_on_c, 0, 63, 0
4, 212640, Note_on_c, 0, 53, 0
4, 212640, Note_on_c, 0, 57, 0
4, 212640, Note_on_c, 0, 60, 0
4, 212640, Note_on_c, 0, 53, 88
4, 212640, Note_on_c, 0, 57, 88
4, 212640, Note_on_c, 0, 60, 88
4, 212640, Note_on_c, 0, 63, 88
4, 213120, Note_on_c, 0, 63, 0
4, 213120, Note_on_c, 0, 53, 0
4, 213120, Note_on_c, 0, 57, 0
4, 213120, Note_on_c, 0, 60, 0
4, 213600, Note_on_c, 0, 53, 88
4, 213600, Note_on_c, 0, 57, 88
4, 213600, Note_on_c, 0, 60, 88
4, 213600, Note_on_c, 0, 63, 88
4, 213600, Note_on_c, 0, 65, 88
4, 213840, Note_on_c, 0, 65, 0
4, 213840, Note_on_c, 0, 60, 0
4, 213840, Note_on_c, 0, 53, 0
4, 213840, Note_on_c, 0, 57, 0
4, 213840, Note_on_c, 0, 63, 0
4, 214560, Note_on_c, 0, 46, 114
4, 214560, Note_on_c, 0, 53, 114
4, 214560, Note_on_c, 0, 62, 114
4, 215040, Note_on_c, 0, 62, 0
4, 215040, Note_on_c, 0, 53, 0
4, 215040, Note_on_c, 0, 46, 0
4, 215040, End_track
5, 0, Start_track
5, 0, Title_t, "Grand Piano"
5, 0, Program_c, 0, 0
5, 0, Control_c, 0, 7, 115
5, 0, Control_c, 0, 10, 47
5, 23040, Note_on_c, 0, 43, 49
5, 23520, Note_on_c, 0, 43, 0
5, 23520, Note_on_c, 0, 43, 62
5, 24000, Note_on_c, 0, 43, 0
5, 24000, Note_on_c, 0, 43, 62
5, 24480, Note_on_c, 0, 43, 0
5, 24480, Note_on_c, 0, 43, 62
5, 24960, Note_on_c, 0, 43, 0
5, 24960, Note_on_c, 0, 55, 62
5, 25440, Note_on_c, 0, 55, 0
5, 25440, Note_on_c, 0, 55, 62
5, 25920, Note_on_c, 0, 55, 0
5, 25920, Note_on_c, 0, 55, 75
5, 26400, Note_on_c, 0, 55, 0
5, 26400, Note_on_c, 0, 55, 75
5, 26880, Note_on_c, 0, 55, 0
5, 30720, Note_on_c, 0, 43, 49
5, 31200, Note_on_c, 0, 43, 0
5, 31200, Note_on_c, 0, 43, 62
5, 31680, Note_on_c, 0, 43, 0
5, 31680, Note_on_c, 0, 43, 62
5, 32160, Note_on_c, 0, 43, 0
5, 32160, Note_on_c, 0, 43, 62
5, 32640, Note_on_c, 0, 43, 0
5, 32640, Note_on_c, 0, 55, 62
5, 33120, Note_on_c, 0, 55, 0
5, 33120, Note_on_c, 0, 55, 62
5, 33600, Note_on_c, 0, 55, 0
5, 33600, Note_on_c, 0, 55, 75
5, 34080, Note_on_c, 0, 55, 0
5, 34080, Note_on_c, 0, 55, 75
5, 34560, Note_on_c, 0, 55, 0
5, 44160, Note_on_c, 0, 43, 88
5, 45120, Note_on_c, 0, 43, 0
5, 45120, Note_on_c, 0, 43, 88
5, 46080, Note_on_c, 0, 43, 0
5, 48000, Note_on_c, 0, 43, 88
5, 48960, Note_on_c, 0, 43, 0
5, 48960, Note_on_c, 0, 43, 88
5, 49920, Note_on_c, 0, 43, 0
5, 49920, Note_on_c, 0, 43, 88
5, 50880, Note_on_c, 0, 43, 0
5, 50880, Note_on_c, 0, 43, 88
5, 51840, Note_on_c, 0, 43, 0
5, 51840, Note_on_c, 0, 43, 88
5, 52800, Note_on_c, 0, 43, 0
5, 52800, Note_on_c, 0, 43, 88
5, 53760, Note_on_c, 0, 43, 0
5, 53760, Note_on_c, 0, 43, 88
5, 54720, Note_on_c, 0, 43, 0
5, 54720, Note_on_c, 0, 43, 88
5, 55680, Note_on_c, 0, 43, 0
5, 55680, Note_on_c, 0, 43, 88
5, 56640, Note_on_c, 0, 43, 0
5, 56640, Note_on_c, 0, 43, 88
5, 57600, Note_on_c, 0, 43, 0
5, 57600, End_track
0, 0, End_of_file
