0, 0, Header, 1, 5, 480
1, 0, Start_track
1, 0, Title_t, "tchaikovsky sleeping beauty act3 27 pas berrichon"
1, 0, Copyright_t, "Adaptation for Disklavier pianos, by: Robert C. Kuhmann (c) 2012."
1, 0, Text_t, "Seq. (c) by: Segundo G. Yogore,  2007\012"
1, 0, Time_signature, 2, 2, 24, 8
1, 0, Key_signature, 3, "major"
1, 0, Tempo, 444444
1, 960, Time_signature, 4, 2, 24, 8
1, 2880, Time_signature, 2, 2, 24, 8
1, 59520, Time_signature, 4, 2, 24, 8
1, 61440, Time_signature, 2, 2, 24, 8
1, 72960, Time_signature, 8, 2, 24, 8
1, 72960, End_track
2, 0, Start_track
2, 0, Title_t, "Grand Piano"
2, 0, Program_c, 0, 0
2, 0, Control_c, 0, 7, 115
2, 0, Control_c, 0, 10, 86
2, 0, Note_on_c, 0, 76, 90
2, 120, Note_on_c, 0, 76, 0
2, 120, Note_on_c, 0, 78, 90
2, 240, Note_on_c, 0, 78, 0
2, 240, Note_on_c, 0, 76, 90
2, 360, Note_on_c, 0, 76, 0
2, 360, Note_on_c, 0, 78, 90
2, 480, Note_on_c, 0, 78, 0
2, 480, Note_on_c, 0, 76, 90
2, 600, Note_on_c, 0, 76, 0
2, 600, Note_on_c, 0, 78, 90
2, 720, Note_on_c, 0, 78, 0
2, 720, Note_on_c, 0, 76, 90
2, 840, Note_on_c, 0, 76, 0
2, 840, Note_on_c, 0, 78, 90
2, 960, Note_on_c, 0, 78, 0
2, 960, Note_on_c, 0, 76, 90
2, 1080, Note_on_c, 0, 76, 0
2, 1080, Note_on_c, 0, 78, 90
2, 1200, Note_on_c, 0, 78, 0
2, 1200, Note_on_c, 0, 76, 90
2, 1320, Note_on_c, 0, 76, 0
2, 1320, Note_on_c, 0, 78, 90
2, 1440, Note_on_c, 0, 78, 0
2, 1440, Note_on_c, 0, 76, 116
2, 1680, Note_on_c, 0, 76, 0
2, 4320, Note_on_c, 0, 75, 90
2, 4800, Note_on_c, 0, 75, 0
2, 4800, Note_on_c, 0, 71, 90
2, 4800, Note_on_c, 0, 83, 90
2, 5280, Note_on_c, 0, 83, 0
2, 5280, Note_on_c, 0, 71, 0
2, 5280, Note_on_c, 0, 74, 90
2, 5760, Note_on_c, 0, 74, 0
2, 5760, Note_on_c, 0, 69, 90
2, 6240, Note_on_c, 0, 69, 0
2, 6240, Note_on_c, 0, 64, 90
2, 6720, Note_on_c, 0, 64, 0
2, 7680, Note_on_c, 0, 66, 64
2, 8160, Note_on_c, 0, 66, 0
2, 8160, Note_on_c, 0, 75, 90
2, 8640, Note_on_c, 0, 75, 0
2, 8640, Note_on_c, 0, 71, 90
2, 8640, Note_on_c, 0, 83, 90
2, 9120, Note_on_c, 0, 83, 0
2, 9120, Note_on_c, 0, 71, 0
2, 9120, Note_on_c, 0, 74, 90
2, 9600, Note_on_c, 0, 74, 0
2, 9600, Note_on_c, 0, 69, 90
2, 10080, Note_on_c, 0, 69, 0
2, 10080, Note_on_c, 0, 64, 90
2, 10560, Note_on_c, 0, 64, 0
2, 11040, Note_on_c, 0, 73, 77
2, 11040, Note_on_c, 0, 76, 77
2, 11040, Note_on_c, 0, 81, 77
2, 11087, Note_on_c, 0, 81, 0
2, 11087, Note_on_c, 0, 76, 0
2, 11087, Note_on_c, 0, 73, 0
2, 11280, Note_on_c, 0, 83, 77
2, 11327, Note_on_c, 0, 83, 0
2, 11520, Note_on_c, 0, 75, 103
2, 11520, Note_on_c, 0, 85, 103
2, 11760, Note_on_c, 0, 85, 0
2, 11760, Note_on_c, 0, 75, 0
2, 11760, Note_on_c, 0, 83, 77
2, 11840, Note_on_c, 0, 83, 0
2, 11840, Note_on_c, 0, 81, 77
2, 11919, Note_on_c, 0, 81, 0
2, 11919, Note_on_c, 0, 80, 77
2, 12000, Note_on_c, 0, 80, 0
2, 12000, Note_on_c, 0, 73, 103
2, 12000, Note_on_c, 0, 78, 103
2, 12240, Note_on_c, 0, 78, 0
2, 12240, Note_on_c, 0, 73, 0
2, 12240, Note_on_c, 0, 81, 77
2, 12320, Note_on_c, 0, 81, 0
2, 12320, Note_on_c, 0, 80, 77
2, 12399, Note_on_c, 0, 80, 0
2, 12399, Note_on_c, 0, 78, 77
2, 12480, Note_on_c, 0, 78, 0
2, 12480, Note_on_c, 0, 69, 103
2, 12480, Note_on_c, 0, 76, 103
2, 12720, Note_on_c, 0, 76, 0
2, 12720, Note_on_c, 0, 69, 0
2, 12720, Note_on_c, 0, 75, 77
2, 12960, Note_on_c, 0, 75, 0
2, 12960, Note_on_c, 0, 71, 77
2, 12960, Note_on_c, 0, 76, 77
2, 13007, Note_on_c, 0, 76, 0
2, 13007, Note_on_c, 0, 71, 0
2, 13200, Note_on_c, 0, 78, 77
2, 13247, Note_on_c, 0, 78, 0
2, 13440, Note_on_c, 0, 73, 77
2, 13440, Note_on_c, 0, 81, 77
2, 13560, Note_on_c, 0, 81, 0
2, 13560, Note_on_c, 0, 73, 0
2, 13560, Note_on_c, 0, 80, 77
2, 13680, Note_on_c, 0, 80, 0
2, 13680, Note_on_c, 0, 78, 77
2, 13703, Note_on_c, 0, 78, 0
2, 13800, Note_on_c, 0, 76, 77
2, 13823, Note_on_c, 0, 76, 0
2, 13920, Note_on_c, 0, 71, 77
2, 13920, Note_on_c, 0, 80, 77
2, 14040, Note_on_c, 0, 80, 0
2, 14040, Note_on_c, 0, 71, 0
2, 14040, Note_on_c, 0, 78, 77
2, 14160, Note_on_c, 0, 78, 0
2, 14160, Note_on_c, 0, 76, 77
2, 14183, Note_on_c, 0, 76, 0
2, 14280, Note_on_c, 0, 74, 77
2, 14303, Note_on_c, 0, 74, 0
2, 14400, Note_on_c, 0, 69, 77
2, 14400, Note_on_c, 0, 73, 77
2, 14400, Note_on_c, 0, 78, 77
2, 14520, Note_on_c, 0, 78, 0
2, 14520, Note_on_c, 0, 73, 0
2, 14520, Note_on_c, 0, 69, 0
2, 14520, Note_on_c, 0, 76, 77
2, 14640, Note_on_c, 0, 76, 0
2, 14640, Note_on_c, 0, 74, 77
2, 14663, Note_on_c, 0, 74, 0
2, 14760, Note_on_c, 0, 73, 77
2, 14783, Note_on_c, 0, 73, 0
2, 14880, Note_on_c, 0, 73, 77
2, 14880, Note_on_c, 0, 76, 77
2, 14880, Note_on_c, 0, 81, 77
2, 14927, Note_on_c, 0, 81, 0
2, 14927, Note_on_c, 0, 76, 0
2, 14927, Note_on_c, 0, 73, 0
2, 15120, Note_on_c, 0, 83, 77
2, 15167, Note_on_c, 0, 83, 0
2, 15360, Note_on_c, 0, 75, 103
2, 15360, Note_on_c, 0, 85, 103
2, 15600, Note_on_c, 0, 85, 0
2, 15600, Note_on_c, 0, 75, 0
2, 15600, Note_on_c, 0, 83, 77
2, 15680, Note_on_c, 0, 83, 0
2, 15680, Note_on_c, 0, 81, 77
2, 15759, Note_on_c, 0, 81, 0
2, 15759, Note_on_c, 0, 80, 77
2, 15840, Note_on_c, 0, 80, 0
2, 15840, Note_on_c, 0, 73, 103
2, 15840, Note_on_c, 0, 78, 103
2, 16080, Note_on_c, 0, 78, 0
2, 16080, Note_on_c, 0, 73, 0
2, 16080, Note_on_c, 0, 81, 77
2, 16160, Note_on_c, 0, 81, 0
2, 16160, Note_on_c, 0, 80, 77
2, 16239, Note_on_c, 0, 80, 0
2, 16239, Note_on_c, 0, 78, 77
2, 16320, Note_on_c, 0, 78, 0
2, 16320, Note_on_c, 0, 69, 103
2, 16320, Note_on_c, 0, 76, 103
2, 16560, Note_on_c, 0, 76, 0
2, 16560, Note_on_c, 0, 69, 0
2, 16560, Note_on_c, 0, 75, 77
2, 16800, Note_on_c, 0, 75, 0
2, 16800, Note_on_c, 0, 71, 77
2, 16800, Note_on_c, 0, 76, 77
2, 16847, Note_on_c, 0, 76, 0
2, 16847, Note_on_c, 0, 71, 0
2, 17040, Note_on_c, 0, 78, 77
2, 17087, Note_on_c, 0, 78, 0
2, 17280, Note_on_c, 0, 73, 77
2, 17280, Note_on_c, 0, 81, 77
2, 17400, Note_on_c, 0, 81, 0
2, 17400, Note_on_c, 0, 73, 0
2, 17400, Note_on_c, 0, 80, 77
2, 17520, Note_on_c, 0, 80, 0
2, 17520, Note_on_c, 0, 78, 77
2, 17543, Note_on_c, 0, 78, 0
2, 17640, Note_on_c, 0, 76, 77
2, 17663, Note_on_c, 0, 76, 0
2, 17760, Note_on_c, 0, 71, 77
2, 17760, Note_on_c, 0, 80, 77
2, 17880, Note_on_c, 0, 80, 0
2, 17880, Note_on_c, 0, 71, 0
2, 17880, Note_on_c, 0, 78, 77
2, 18000, Note_on_c, 0, 78, 0
2, 18000, Note_on_c, 0, 76, 77
2, 18023, Note_on_c, 0, 76, 0
2, 18120, Note_on_c, 0, 74, 77
2, 18143, Note_on_c, 0, 74, 0
2, 18240, Note_on_c, 0, 73, 77
2, 18287, Note_on_c, 0, 73, 0
2, 18480, Note_on_c, 0, 76, 77
2, 18480, Note_on_c, 0, 85, 77
2, 18480, Note_on_c, 0, 88, 77
2, 18527, Note_on_c, 0, 88, 0
2, 18527, Note_on_c, 0, 85, 0
2, 18527, Note_on_c, 0, 76, 0
2, 18720, Note_on_c, 0, 76, 103
2, 18720, Note_on_c, 0, 83, 103
2, 18720, Note_on_c, 0, 86, 103
2, 19080, Note_on_c, 0, 86, 0
2, 19080, Note_on_c, 0, 83, 0
2, 19080, Note_on_c, 0, 76, 0
2, 19080, Note_on_c, 0, 81, 77
2, 19080, Note_on_c, 0, 85, 77
2, 19200, Note_on_c, 0, 85, 0
2, 19200, Note_on_c, 0, 81, 0
2, 19200, Note_on_c, 0, 76, 77
2, 19200, Note_on_c, 0, 80, 77
2, 19200, Note_on_c, 0, 83, 77
2, 19560, Note_on_c, 0, 83, 0
2, 19560, Note_on_c, 0, 80, 0
2, 19560, Note_on_c, 0, 76, 0
2, 19560, Note_on_c, 0, 78, 77
2, 19560, Note_on_c, 0, 81, 77
2, 19680, Note_on_c, 0, 81, 0
2, 19680, Note_on_c, 0, 78, 0
2, 19680, Note_on_c, 0, 76, 77
2, 19680, Note_on_c, 0, 80, 77
2, 19800, Note_on_c, 0, 80, 0
2, 19800, Note_on_c, 0, 76, 0
2, 19800, Note_on_c, 0, 74, 77
2, 19800, Note_on_c, 0, 78, 77
2, 19823, Note_on_c, 0, 78, 0
2, 19823, Note_on_c, 0, 74, 0
2, 19920, Note_on_c, 0, 73, 77
2, 19920, Note_on_c, 0, 76, 77
2, 19943, Note_on_c, 0, 76, 0
2, 19943, Note_on_c, 0, 73, 0
2, 20040, Note_on_c, 0, 71, 77
2, 20040, Note_on_c, 0, 74, 77
2, 20063, Note_on_c, 0, 74, 0
2, 20063, Note_on_c, 0, 71, 0
2, 20160, Note_on_c, 0, 73, 77
2, 20207, Note_on_c, 0, 73, 0
2, 20400, Note_on_c, 0, 76, 77
2, 20400, Note_on_c, 0, 81, 77
2, 20400, Note_on_c, 0, 85, 77
2, 20447, Note_on_c, 0, 85, 0
2, 20447, Note_on_c, 0, 81, 0
2, 20447, Note_on_c, 0, 76, 0
2, 20640, Note_on_c, 0, 76, 77
2, 20640, Note_on_c, 0, 80, 77
2, 20640, Note_on_c, 0, 83, 77
2, 20760, Note_on_c, 0, 83, 0
2, 20760, Note_on_c, 0, 80, 0
2, 20760, Note_on_c, 0, 76, 0
2, 20760, Note_on_c, 0, 78, 77
2, 20760, Note_on_c, 0, 81, 77
2, 20880, Note_on_c, 0, 81, 0
2, 20880, Note_on_c, 0, 78, 0
2, 20880, Note_on_c, 0, 76, 77
2, 20880, Note_on_c, 0, 80, 77
2, 20903, Note_on_c, 0, 80, 0
2, 20903, Note_on_c, 0, 76, 0
2, 21000, Note_on_c, 0, 74, 77
2, 21000, Note_on_c, 0, 78, 77
2, 21023, Note_on_c, 0, 78, 0
2, 21023, Note_on_c, 0, 74, 0
2, 21120, Note_on_c, 0, 73, 77
2, 21120, Note_on_c, 0, 76, 77
2, 21167, Note_on_c, 0, 76, 0
2, 21167, Note_on_c, 0, 73, 0
2, 21360, Note_on_c, 0, 76, 77
2, 21360, Note_on_c, 0, 81, 77
2, 21360, Note_on_c, 0, 85, 77
2, 21407, Note_on_c, 0, 85, 0
2, 21407, Note_on_c, 0, 81, 0
2, 21407, Note_on_c, 0, 76, 0
2, 21600, Note_on_c, 0, 76, 77
2, 21600, Note_on_c, 0, 80, 77
2, 21600, Note_on_c, 0, 83, 77
2, 21720, Note_on_c, 0, 83, 0
2, 21720, Note_on_c, 0, 80, 0
2, 21720, Note_on_c, 0, 76, 0
2, 21720, Note_on_c, 0, 78, 77
2, 21720, Note_on_c, 0, 81, 77
2, 21840, Note_on_c, 0, 81, 0
2, 21840, Note_on_c, 0, 78, 0
2, 21840, Note_on_c, 0, 76, 77
2, 21840, Note_on_c, 0, 80, 77
2, 21863, Note_on_c, 0, 80, 0
2, 21863, Note_on_c, 0, 76, 0
2, 21960, Note_on_c, 0, 74, 77
2, 21960, Note_on_c, 0, 78, 77
2, 21983, Note_on_c, 0, 78, 0
2, 21983, Note_on_c, 0, 74, 0
2, 22080, Note_on_c, 0, 73, 77
2, 22080, Note_on_c, 0, 76, 77
2, 22127, Note_on_c, 0, 76, 0
2, 22127, Note_on_c, 0, 73, 0
2, 22320, Note_on_c, 0, 76, 77
2, 22320, Note_on_c, 0, 85, 77
2, 22320, Note_on_c, 0, 88, 77
2, 22367, Note_on_c, 0, 88, 0
2, 22367, Note_on_c, 0, 85, 0
2, 22367, Note_on_c, 0, 76, 0
2, 22560, Note_on_c, 0, 76, 103
2, 22560, Note_on_c, 0, 83, 103
2, 22560, Note_on_c, 0, 86, 103
2, 22920, Note_on_c, 0, 86, 0
2, 22920, Note_on_c, 0, 83, 0
2, 22920, Note_on_c, 0, 76, 0
2, 22920, Note_on_c, 0, 81, 77
2, 22920, Note_on_c, 0, 85, 77
2, 23040, Note_on_c, 0, 85, 0
2, 23040, Note_on_c, 0, 81, 0
2, 23040, Note_on_c, 0, 76, 77
2, 23040, Note_on_c, 0, 80, 77
2, 23040, Note_on_c, 0, 83, 77
2, 23400, Note_on_c, 0, 83, 0
2, 23400, Note_on_c, 0, 80, 0
2, 23400, Note_on_c, 0, 76, 0
2, 23400, Note_on_c, 0, 78, 77
2, 23400, Note_on_c, 0, 81, 77
2, 23520, Note_on_c, 0, 81, 0
2, 23520, Note_on_c, 0, 78, 0
2, 23520, Note_on_c, 0, 76, 77
2, 23520, Note_on_c, 0, 80, 77
2, 23640, Note_on_c, 0, 80, 0
2, 23640, Note_on_c, 0, 76, 0
2, 23640, Note_on_c, 0, 74, 77
2, 23640, Note_on_c, 0, 78, 77
2, 23663, Note_on_c, 0, 78, 0
2, 23663, Note_on_c, 0, 74, 0
2, 23760, Note_on_c, 0, 73, 77
2, 23760, Note_on_c, 0, 76, 77
2, 23783, Note_on_c, 0, 76, 0
2, 23783, Note_on_c, 0, 73, 0
2, 23880, Note_on_c, 0, 71, 77
2, 23880, Note_on_c, 0, 74, 77
2, 23903, Note_on_c, 0, 74, 0
2, 23903, Note_on_c, 0, 71, 0
2, 24000, Note_on_c, 0, 73, 77
2, 24047, Note_on_c, 0, 73, 0
2, 24240, Note_on_c, 0, 81, 77
2, 24240, Note_on_c, 0, 85, 77
2, 24287, Note_on_c, 0, 85, 0
2, 24287, Note_on_c, 0, 81, 0
2, 24480, Note_on_c, 0, 76, 77
2, 24480, Note_on_c, 0, 80, 77
2, 24480, Note_on_c, 0, 83, 77
2, 24600, Note_on_c, 0, 83, 0
2, 24600, Note_on_c, 0, 80, 0
2, 24600, Note_on_c, 0, 76, 0
2, 24600, Note_on_c, 0, 78, 77
2, 24600, Note_on_c, 0, 81, 77
2, 24720, Note_on_c, 0, 81, 0
2, 24720, Note_on_c, 0, 78, 0
2, 24720, Note_on_c, 0, 76, 77
2, 24720, Note_on_c, 0, 80, 77
2, 24743, Note_on_c, 0, 80, 0
2, 24743, Note_on_c, 0, 76, 0
2, 24840, Note_on_c, 0, 74, 77
2, 24840, Note_on_c, 0, 78, 77
2, 24863, Note_on_c, 0, 78, 0
2, 24863, Note_on_c, 0, 74, 0
2, 24960, Note_on_c, 0, 73, 77
2, 24960, Note_on_c, 0, 76, 77
2, 25007, Note_on_c, 0, 76, 0
2, 25007, Note_on_c, 0, 73, 0
2, 25200, Note_on_c, 0, 76, 77
2, 25200, Note_on_c, 0, 81, 77
2, 25200, Note_on_c, 0, 85, 77
2, 25247, Note_on_c, 0, 85, 0
2, 25247, Note_on_c, 0, 81, 0
2, 25247, Note_on_c, 0, 76, 0
2, 25440, Note_on_c, 0, 76, 77
2, 25440, Note_on_c, 0, 80, 77
2, 25440, Note_on_c, 0, 83, 77
2, 25560, Note_on_c, 0, 83, 0
2, 25560, Note_on_c, 0, 80, 0
2, 25560, Note_on_c, 0, 76, 0
2, 25560, Note_on_c, 0, 78, 77
2, 25560, Note_on_c, 0, 81, 77
2, 25680, Note_on_c, 0, 81, 0
2, 25680, Note_on_c, 0, 78, 0
2, 25680, Note_on_c, 0, 76, 77
2, 25680, Note_on_c, 0, 80, 77
2, 25703, Note_on_c, 0, 80, 0
2, 25703, Note_on_c, 0, 76, 0
2, 25800, Note_on_c, 0, 74, 77
2, 25800, Note_on_c, 0, 78, 77
2, 25823, Note_on_c, 0, 78, 0
2, 25823, Note_on_c, 0, 74, 0
2, 25920, Note_on_c, 0, 73, 64
2, 25920, Note_on_c, 0, 76, 64
2, 25967, Note_on_c, 0, 76, 0
2, 25967, Note_on_c, 0, 73, 0
2, 26160, Note_on_c, 0, 81, 64
2, 26160, Note_on_c, 0, 85, 64
2, 26183, Note_on_c, 0, 85, 0
2, 26183, Note_on_c, 0, 81, 0
2, 26280, Note_on_c, 0, 85, 64
2, 26303, Note_on_c, 0, 85, 0
2, 26400, Note_on_c, 0, 80, 64
2, 26400, Note_on_c, 0, 85, 64
2, 26520, Note_on_c, 0, 85, 0
2, 26520, Note_on_c, 0, 80, 0
2, 26520, Note_on_c, 0, 86, 64
2, 26640, Note_on_c, 0, 86, 0
2, 26640, Note_on_c, 0, 80, 64
2, 26640, Note_on_c, 0, 85, 64
2, 26663, Note_on_c, 0, 85, 0
2, 26663, Note_on_c, 0, 80, 0
2, 26760, Note_on_c, 0, 83, 64
2, 26783, Note_on_c, 0, 83, 0
2, 26880, Note_on_c, 0, 81, 64
2, 26903, Note_on_c, 0, 81, 0
2, 27000, Note_on_c, 0, 80, 64
2, 27023, Note_on_c, 0, 80, 0
2, 27120, Note_on_c, 0, 73, 64
2, 27120, Note_on_c, 0, 78, 64
2, 27143, Note_on_c, 0, 78, 0
2, 27143, Note_on_c, 0, 73, 0
2, 27240, Note_on_c, 0, 81, 64
2, 27263, Note_on_c, 0, 81, 0
2, 27360, Note_on_c, 0, 73, 64
2, 27360, Note_on_c, 0, 77, 64
2, 27480, Note_on_c, 0, 77, 0
2, 27480, Note_on_c, 0, 73, 0
2, 27480, Note_on_c, 0, 74, 64
2, 27600, Note_on_c, 0, 74, 0
2, 27600, Note_on_c, 0, 73, 64
2, 27623, Note_on_c, 0, 73, 0
2, 27720, Note_on_c, 0, 77, 64
2, 27743, Note_on_c, 0, 77, 0
2, 27840, Note_on_c, 0, 73, 64
2, 27840, Note_on_c, 0, 78, 64
2, 27960, Note_on_c, 0, 78, 0
2, 27960, Note_on_c, 0, 73, 0
2, 27960, Note_on_c, 0, 74, 64
2, 28080, Note_on_c, 0, 74, 0
2, 28080, Note_on_c, 0, 66, 64
2, 28080, Note_on_c, 0, 73, 64
2, 28103, Note_on_c, 0, 73, 0
2, 28103, Note_on_c, 0, 66, 0
2, 28200, Note_on_c, 0, 76, 64
2, 28223, Note_on_c, 0, 76, 0
2, 28320, Note_on_c, 0, 68, 64
2, 28320, Note_on_c, 0, 73, 64
2, 28440, Note_on_c, 0, 73, 0
2, 28440, Note_on_c, 0, 68, 0
2, 28440, Note_on_c, 0, 71, 64
2, 28560, Note_on_c, 0, 71, 0
2, 28560, Note_on_c, 0, 69, 64
2, 28583, Note_on_c, 0, 69, 0
2, 28680, Note_on_c, 0, 68, 64
2, 28703, Note_on_c, 0, 68, 0
2, 28800, Note_on_c, 0, 66, 64
2, 28800, Note_on_c, 0, 71, 64
2, 28920, Note_on_c, 0, 71, 0
2, 28920, Note_on_c, 0, 66, 0
2, 28920, Note_on_c, 0, 69, 64
2, 29040, Note_on_c, 0, 69, 0
2, 29040, Note_on_c, 0, 68, 64
2, 29063, Note_on_c, 0, 68, 0
2, 29160, Note_on_c, 0, 66, 64
2, 29183, Note_on_c, 0, 66, 0
2, 29280, Note_on_c, 0, 65, 64
2, 29280, Note_on_c, 0, 69, 64
2, 29400, Note_on_c, 0, 69, 0
2, 29400, Note_on_c, 0, 65, 0
2, 29400, Note_on_c, 0, 68, 64
2, 29520, Note_on_c, 0, 68, 0
2, 29520, Note_on_c, 0, 66, 64
2, 29543, Note_on_c, 0, 66, 0
2, 29640, Note_on_c, 0, 65, 64
2, 29663, Note_on_c, 0, 65, 0
2, 29760, Note_on_c, 0, 68, 64
2, 29880, Note_on_c, 0, 68, 0
2, 29880, Note_on_c, 0, 66, 64
2, 30000, Note_on_c, 0, 66, 0
2, 30000, Note_on_c, 0, 81, 64
2, 30000, Note_on_c, 0, 85, 64
2, 30023, Note_on_c, 0, 85, 0
2, 30023, Note_on_c, 0, 81, 0
2, 30120, Note_on_c, 0, 85, 64
2, 30143, Note_on_c, 0, 85, 0
2, 30240, Note_on_c, 0, 80, 64
2, 30240, Note_on_c, 0, 85, 64
2, 30360, Note_on_c, 0, 85, 0
2, 30360, Note_on_c, 0, 80, 0
2, 30360, Note_on_c, 0, 86, 64
2, 30480, Note_on_c, 0, 86, 0
2, 30480, Note_on_c, 0, 85, 64
2, 30503, Note_on_c, 0, 85, 0
2, 30600, Note_on_c, 0, 83, 64
2, 30623, Note_on_c, 0, 83, 0
2, 30720, Note_on_c, 0, 81, 64
2, 30743, Note_on_c, 0, 81, 0
2, 30840, Note_on_c, 0, 80, 64
2, 30863, Note_on_c, 0, 80, 0
2, 30960, Note_on_c, 0, 78, 64
2, 30983, Note_on_c, 0, 78, 0
2, 31080, Note_on_c, 0, 81, 64
2, 31103, Note_on_c, 0, 81, 0
2, 31200, Note_on_c, 0, 73, 64
2, 31200, Note_on_c, 0, 77, 64
2, 31320, Note_on_c, 0, 77, 0
2, 31320, Note_on_c, 0, 73, 0
2, 31320, Note_on_c, 0, 74, 64
2, 31440, Note_on_c, 0, 74, 0
2, 31440, Note_on_c, 0, 73, 64
2, 31463, Note_on_c, 0, 73, 0
2, 31560, Note_on_c, 0, 77, 64
2, 31583, Note_on_c, 0, 77, 0
2, 31680, Note_on_c, 0, 73, 64
2, 31680, Note_on_c, 0, 78, 64
2, 31800, Note_on_c, 0, 78, 0
2, 31800, Note_on_c, 0, 73, 0
2, 31800, Note_on_c, 0, 74, 64
2, 31920, Note_on_c, 0, 74, 0
2, 31920, Note_on_c, 0, 66, 64
2, 31920, Note_on_c, 0, 73, 64
2, 31943, Note_on_c, 0, 73, 0
2, 31943, Note_on_c, 0, 66, 0
2, 32040, Note_on_c, 0, 76, 64
2, 32063, Note_on_c, 0, 76, 0
2, 32160, Note_on_c, 0, 68, 64
2, 32160, Note_on_c, 0, 73, 64
2, 32280, Note_on_c, 0, 73, 0
2, 32280, Note_on_c, 0, 68, 0
2, 32280, Note_on_c, 0, 71, 64
2, 32400, Note_on_c, 0, 71, 0
2, 32400, Note_on_c, 0, 69, 64
2, 32423, Note_on_c, 0, 69, 0
2, 32520, Note_on_c, 0, 68, 64
2, 32543, Note_on_c, 0, 68, 0
2, 32640, Note_on_c, 0, 66, 64
2, 32640, Note_on_c, 0, 71, 64
2, 32760, Note_on_c, 0, 71, 0
2, 32760, Note_on_c, 0, 66, 0
2, 32760, Note_on_c, 0, 69, 64
2, 32880, Note_on_c, 0, 69, 0
2, 32880, Note_on_c, 0, 68, 64
2, 32903, Note_on_c, 0, 68, 0
2, 33000, Note_on_c, 0, 66, 64
2, 33023, Note_on_c, 0, 66, 0
2, 33120, Note_on_c, 0, 65, 64
2, 33120, Note_on_c, 0, 69, 64
2, 33240, Note_on_c, 0, 69, 0
2, 33240, Note_on_c, 0, 65, 0
2, 33240, Note_on_c, 0, 68, 64
2, 33360, Note_on_c, 0, 68, 0
2, 33360, Note_on_c, 0, 66, 64
2, 33383, Note_on_c, 0, 66, 0
2, 33480, Note_on_c, 0, 65, 64
2, 33503, Note_on_c, 0, 65, 0
2, 33600, Note_on_c, 0, 68, 77
2, 33720, Note_on_c, 0, 68, 0
2, 33720, Note_on_c, 0, 66, 77
2, 33840, Note_on_c, 0, 66, 0
2, 33840, Note_on_c, 0, 86, 77
2, 33840, Note_on_c, 0, 90, 77
2, 33863, Note_on_c, 0, 90, 0
2, 33863, Note_on_c, 0, 86, 0
2, 33960, Note_on_c, 0, 90, 77
2, 33983, Note_on_c, 0, 90, 0
2, 34080, Note_on_c, 0, 85, 77
2, 34080, Note_on_c, 0, 90, 77
2, 34200, Note_on_c, 0, 90, 0
2, 34200, Note_on_c, 0, 85, 0
2, 34200, Note_on_c, 0, 91, 77
2, 34320, Note_on_c, 0, 91, 0
2, 34320, Note_on_c, 0, 85, 77
2, 34320, Note_on_c, 0, 90, 77
2, 34343, Note_on_c, 0, 90, 0
2, 34343, Note_on_c, 0, 85, 0
2, 34440, Note_on_c, 0, 88, 77
2, 34463, Note_on_c, 0, 88, 0
2, 34560, Note_on_c, 0, 86, 77
2, 34680, Note_on_c, 0, 86, 0
2, 34680, Note_on_c, 0, 85, 77
2, 34800, Note_on_c, 0, 85, 0
2, 34800, Note_on_c, 0, 78, 77
2, 34800, Note_on_c, 0, 83, 77
2, 34823, Note_on_c, 0, 83, 0
2, 34823, Note_on_c, 0, 78, 0
2, 34920, Note_on_c, 0, 86, 77
2, 34943, Note_on_c, 0, 86, 0
2, 35040, Note_on_c, 0, 76, 77
2, 35040, Note_on_c, 0, 82, 77
2, 35160, Note_on_c, 0, 82, 0
2, 35160, Note_on_c, 0, 76, 0
2, 35160, Note_on_c, 0, 79, 77
2, 35280, Note_on_c, 0, 79, 0
2, 35280, Note_on_c, 0, 70, 77
2, 35280, Note_on_c, 0, 78, 77
2, 35303, Note_on_c, 0, 78, 0
2, 35303, Note_on_c, 0, 70, 0
2, 35400, Note_on_c, 0, 82, 77
2, 35423, Note_on_c, 0, 82, 0
2, 35520, Note_on_c, 0, 78, 77
2, 35520, Note_on_c, 0, 83, 77
2, 35640, Note_on_c, 0, 83, 0
2, 35640, Note_on_c, 0, 78, 0
2, 35640, Note_on_c, 0, 79, 77
2, 35760, Note_on_c, 0, 79, 0
2, 35760, Note_on_c, 0, 71, 77
2, 35760, Note_on_c, 0, 78, 77
2, 35783, Note_on_c, 0, 78, 0
2, 35783, Note_on_c, 0, 71, 0
2, 35880, Note_on_c, 0, 83, 77
2, 35903, Note_on_c, 0, 83, 0
2, 36000, Note_on_c, 0, 73, 77
2, 36000, Note_on_c, 0, 78, 77
2, 36120, Note_on_c, 0, 78, 0
2, 36120, Note_on_c, 0, 73, 0
2, 36120, Note_on_c, 0, 76, 77
2, 36240, Note_on_c, 0, 76, 0
2, 36240, Note_on_c, 0, 74, 77
2, 36263, Note_on_c, 0, 74, 0
2, 36360, Note_on_c, 0, 73, 77
2, 36383, Note_on_c, 0, 73, 0
2, 36480, Note_on_c, 0, 71, 77
2, 36480, Note_on_c, 0, 76, 77
2, 36600, Note_on_c, 0, 76, 0
2, 36600, Note_on_c, 0, 71, 0
2, 36600, Note_on_c, 0, 74, 77
2, 36720, Note_on_c, 0, 74, 0
2, 36720, Note_on_c, 0, 73, 77
2, 36743, Note_on_c, 0, 73, 0
2, 36840, Note_on_c, 0, 71, 77
2, 36863, Note_on_c, 0, 71, 0
2, 36960, Note_on_c, 0, 70, 77
2, 36960, Note_on_c, 0, 74, 77
2, 37080, Note_on_c, 0, 74, 0
2, 37080, Note_on_c, 0, 70, 0
2, 37080, Note_on_c, 0, 73, 77
2, 37200, Note_on_c, 0, 73, 0
2, 37200, Note_on_c, 0, 71, 77
2, 37223, Note_on_c, 0, 71, 0
2, 37320, Note_on_c, 0, 70, 77
2, 37343, Note_on_c, 0, 70, 0
2, 37440, Note_on_c, 0, 73, 77
2, 37560, Note_on_c, 0, 73, 0
2, 37560, Note_on_c, 0, 71, 77
2, 37680, Note_on_c, 0, 71, 0
2, 37680, Note_on_c, 0, 86, 77
2, 37680, Note_on_c, 0, 90, 77
2, 37703, Note_on_c, 0, 90, 0
2, 37703, Note_on_c, 0, 86, 0
2, 37800, Note_on_c, 0, 90, 77
2, 37823, Note_on_c, 0, 90, 0
2, 37920, Note_on_c, 0, 85, 77
2, 37920, Note_on_c, 0, 90, 77
2, 38040, Note_on_c, 0, 90, 0
2, 38040, Note_on_c, 0, 85, 0
2, 38040, Note_on_c, 0, 91, 77
2, 38160, Note_on_c, 0, 91, 0
2, 38160, Note_on_c, 0, 85, 77
2, 38160, Note_on_c, 0, 90, 77
2, 38183, Note_on_c, 0, 90, 0
2, 38183, Note_on_c, 0, 85, 0
2, 38280, Note_on_c, 0, 88, 77
2, 38303, Note_on_c, 0, 88, 0
2, 38400, Note_on_c, 0, 86, 77
2, 38520, Note_on_c, 0, 86, 0
2, 38520, Note_on_c, 0, 85, 77
2, 38640, Note_on_c, 0, 85, 0
2, 38640, Note_on_c, 0, 78, 77
2, 38640, Note_on_c, 0, 83, 77
2, 38663, Note_on_c, 0, 83, 0
2, 38663, Note_on_c, 0, 78, 0
2, 38760, Note_on_c, 0, 86, 77
2, 38783, Note_on_c, 0, 86, 0
2, 38880, Note_on_c, 0, 76, 77
2, 38880, Note_on_c, 0, 82, 77
2, 39000, Note_on_c, 0, 82, 0
2, 39000, Note_on_c, 0, 76, 0
2, 39000, Note_on_c, 0, 79, 77
2, 39120, Note_on_c, 0, 79, 0
2, 39120, Note_on_c, 0, 70, 77
2, 39120, Note_on_c, 0, 78, 77
2, 39143, Note_on_c, 0, 78, 0
2, 39143, Note_on_c, 0, 70, 0
2, 39240, Note_on_c, 0, 82, 77
2, 39263, Note_on_c, 0, 82, 0
2, 39360, Note_on_c, 0, 78, 77
2, 39360, Note_on_c, 0, 83, 77
2, 39480, Note_on_c, 0, 83, 0
2, 39480, Note_on_c, 0, 78, 0
2, 39480, Note_on_c, 0, 79, 77
2, 39600, Note_on_c, 0, 79, 0
2, 39600, Note_on_c, 0, 71, 77
2, 39600, Note_on_c, 0, 78, 77
2, 39623, Note_on_c, 0, 78, 0
2, 39623, Note_on_c, 0, 71, 0
2, 39720, Note_on_c, 0, 83, 77
2, 39743, Note_on_c, 0, 83, 0
2, 39840, Note_on_c, 0, 73, 77
2, 39840, Note_on_c, 0, 78, 77
2, 39960, Note_on_c, 0, 78, 0
2, 39960, Note_on_c, 0, 73, 0
2, 39960, Note_on_c, 0, 76, 77
2, 40080, Note_on_c, 0, 76, 0
2, 40080, Note_on_c, 0, 74, 77
2, 40103, Note_on_c, 0, 74, 0
2, 40200, Note_on_c, 0, 73, 77
2, 40223, Note_on_c, 0, 73, 0
2, 40320, Note_on_c, 0, 71, 77
2, 40320, Note_on_c, 0, 76, 77
2, 40440, Note_on_c, 0, 76, 0
2, 40440, Note_on_c, 0, 71, 0
2, 40440, Note_on_c, 0, 74, 77
2, 40560, Note_on_c, 0, 74, 0
2, 40560, Note_on_c, 0, 73, 77
2, 40583, Note_on_c, 0, 73, 0
2, 40680, Note_on_c, 0, 71, 77
2, 40703, Note_on_c, 0, 71, 0
2, 40800, Note_on_c, 0, 70, 77
2, 40800, Note_on_c, 0, 74, 77
2, 40920, Note_on_c, 0, 74, 0
2, 40920, Note_on_c, 0, 70, 0
2, 40920, Note_on_c, 0, 73, 77
2, 41040, Note_on_c, 0, 73, 0
2, 41040, Note_on_c, 0, 71, 77
2, 41063, Note_on_c, 0, 71, 0
2, 41160, Note_on_c, 0, 70, 77
2, 41183, Note_on_c, 0, 70, 0
2, 41280, Note_on_c, 0, 73, 77
2, 41400, Note_on_c, 0, 73, 0
2, 41400, Note_on_c, 0, 71, 77
2, 41520, Note_on_c, 0, 71, 0
2, 41520, Note_on_c, 0, 78, 90
2, 41520, Note_on_c, 0, 90, 90
2, 41640, Note_on_c, 0, 90, 0
2, 41640, Note_on_c, 0, 78, 0
2, 41640, Note_on_c, 0, 76, 90
2, 41640, Note_on_c, 0, 88, 90
2, 41760, Note_on_c, 0, 88, 0
2, 41760, Note_on_c, 0, 76, 0
2, 41760, Note_on_c, 0, 74, 90
2, 41760, Note_on_c, 0, 86, 90
2, 41880, Note_on_c, 0, 86, 0
2, 41880, Note_on_c, 0, 74, 0
2, 41880, Note_on_c, 0, 73, 90
2, 41880, Note_on_c, 0, 85, 90
2, 42000, Note_on_c, 0, 85, 0
2, 42000, Note_on_c, 0, 73, 0
2, 42000, Note_on_c, 0, 71, 90
2, 42000, Note_on_c, 0, 83, 90
2, 42120, Note_on_c, 0, 83, 0
2, 42120, Note_on_c, 0, 71, 0
2, 42120, Note_on_c, 0, 70, 90
2, 42120, Note_on_c, 0, 82, 90
2, 42240, Note_on_c, 0, 82, 0
2, 42240, Note_on_c, 0, 70, 0
2, 42240, Note_on_c, 0, 71, 90
2, 42240, Note_on_c, 0, 83, 90
2, 42360, Note_on_c, 0, 83, 0
2, 42360, Note_on_c, 0, 71, 0
2, 42360, Note_on_c, 0, 74, 90
2, 42360, Note_on_c, 0, 86, 90
2, 42480, Note_on_c, 0, 86, 0
2, 42480, Note_on_c, 0, 74, 0
2, 42480, Note_on_c, 0, 78, 90
2, 42480, Note_on_c, 0, 90, 90
2, 42600, Note_on_c, 0, 90, 0
2, 42600, Note_on_c, 0, 78, 0
2, 42600, Note_on_c, 0, 76, 90
2, 42600, Note_on_c, 0, 88, 90
2, 42720, Note_on_c, 0, 88, 0
2, 42720, Note_on_c, 0, 76, 0
2, 42720, Note_on_c, 0, 74, 90
2, 42720, Note_on_c, 0, 86, 90
2, 42840, Note_on_c, 0, 86, 0
2, 42840, Note_on_c, 0, 74, 0
2, 42840, Note_on_c, 0, 73, 90
2, 42840, Note_on_c, 0, 85, 90
2, 42960, Note_on_c, 0, 85, 0
2, 42960, Note_on_c, 0, 73, 0
2, 42960, Note_on_c, 0, 71, 90
2, 42960, Note_on_c, 0, 83, 90
2, 43080, Note_on_c, 0, 83, 0
2, 43080, Note_on_c, 0, 71, 0
2, 43080, Note_on_c, 0, 70, 90
2, 43080, Note_on_c, 0, 82, 90
2, 43200, Note_on_c, 0, 82, 0
2, 43200, Note_on_c, 0, 70, 0
2, 43200, Note_on_c, 0, 71, 90
2, 43200, Note_on_c, 0, 83, 90
2, 43320, Note_on_c, 0, 83, 0
2, 43320, Note_on_c, 0, 71, 0
2, 43320, Note_on_c, 0, 74, 90
2, 43320, Note_on_c, 0, 86, 90
2, 43440, Note_on_c, 0, 86, 0
2, 43440, Note_on_c, 0, 74, 0
2, 43440, Note_on_c, 0, 78, 90
2, 43440, Note_on_c, 0, 90, 90
2, 43560, Note_on_c, 0, 90, 0
2, 43560, Note_on_c, 0, 78, 0
2, 43560, Note_on_c, 0, 76, 90
2, 43560, Note_on_c, 0, 88, 90
2, 43680, Note_on_c, 0, 88, 0
2, 43680, Note_on_c, 0, 76, 0
2, 43680, Note_on_c, 0, 74, 90
2, 43680, Note_on_c, 0, 86, 90
2, 43800, Note_on_c, 0, 86, 0
2, 43800, Note_on_c, 0, 74, 0
2, 43800, Note_on_c, 0, 76, 90
2, 43800, Note_on_c, 0, 88, 90
2, 43920, Note_on_c, 0, 88, 0
2, 43920, Note_on_c, 0, 76, 0
2, 43920, Note_on_c, 0, 74, 90
2, 43920, Note_on_c, 0, 86, 90
2, 44040, Note_on_c, 0, 86, 0
2, 44040, Note_on_c, 0, 74, 0
2, 44040, Note_on_c, 0, 73, 90
2, 44040, Note_on_c, 0, 85, 90
2, 44160, Note_on_c, 0, 85, 0
2, 44160, Note_on_c, 0, 73, 0
2, 44160, Note_on_c, 0, 71, 90
2, 44160, Note_on_c, 0, 83, 90
2, 44280, Note_on_c, 0, 83, 0
2, 44280, Note_on_c, 0, 71, 0
2, 44280, Note_on_c, 0, 73, 90
2, 44280, Note_on_c, 0, 85, 90
2, 44400, Note_on_c, 0, 85, 0
2, 44400, Note_on_c, 0, 73, 0
2, 44400, Note_on_c, 0, 71, 90
2, 44400, Note_on_c, 0, 83, 90
2, 44520, Note_on_c, 0, 83, 0
2, 44520, Note_on_c, 0, 71, 0
2, 44520, Note_on_c, 0, 69, 90
2, 44520, Note_on_c, 0, 81, 90
2, 44640, Note_on_c, 0, 81, 0
2, 44640, Note_on_c, 0, 69, 0
2, 44640, Note_on_c, 0, 68, 90
2, 44640, Note_on_c, 0, 80, 90
2, 44760, Note_on_c, 0, 80, 0
2, 44760, Note_on_c, 0, 68, 0
2, 44760, Note_on_c, 0, 69, 90
2, 44760, Note_on_c, 0, 81, 90
2, 44880, Note_on_c, 0, 81, 0
2, 44880, Note_on_c, 0, 69, 0
2, 44880, Note_on_c, 0, 68, 90
2, 44880, Note_on_c, 0, 80, 90
2, 45000, Note_on_c, 0, 80, 0
2, 45000, Note_on_c, 0, 68, 0
2, 45000, Note_on_c, 0, 66, 90
2, 45000, Note_on_c, 0, 78, 90
2, 45120, Note_on_c, 0, 78, 0
2, 45120, Note_on_c, 0, 66, 0
2, 45120, Note_on_c, 0, 64, 90
2, 45120, Note_on_c, 0, 76, 90
2, 45360, Note_on_c, 0, 76, 0
2, 45360, Note_on_c, 0, 64, 0
2, 45360, Note_on_c, 0, 76, 90
2, 45360, Note_on_c, 0, 85, 90
2, 45360, Note_on_c, 0, 88, 90
2, 45383, Note_on_c, 0, 88, 0
2, 45383, Note_on_c, 0, 85, 0
2, 45383, Note_on_c, 0, 76, 0
2, 45480, Note_on_c, 0, 76, 90
2, 45480, Note_on_c, 0, 85, 90
2, 45480, Note_on_c, 0, 88, 90
2, 45503, Note_on_c, 0, 88, 0
2, 45503, Note_on_c, 0, 85, 0
2, 45503, Note_on_c, 0, 76, 0
2, 45600, Note_on_c, 0, 76, 90
2, 45600, Note_on_c, 0, 83, 90
2, 45600, Note_on_c, 0, 86, 90
2, 45623, Note_on_c, 0, 86, 0
2, 45623, Note_on_c, 0, 83, 0
2, 45623, Note_on_c, 0, 76, 0
2, 45720, Note_on_c, 0, 76, 90
2, 45720, Note_on_c, 0, 83, 90
2, 45720, Note_on_c, 0, 86, 90
2, 45743, Note_on_c, 0, 86, 0
2, 45743, Note_on_c, 0, 83, 0
2, 45743, Note_on_c, 0, 76, 0
2, 45840, Note_on_c, 0, 76, 90
2, 45840, Note_on_c, 0, 83, 90
2, 45840, Note_on_c, 0, 86, 90
2, 45863, Note_on_c, 0, 86, 0
2, 45863, Note_on_c, 0, 83, 0
2, 45863, Note_on_c, 0, 76, 0
2, 45960, Note_on_c, 0, 76, 90
2, 45960, Note_on_c, 0, 81, 90
2, 45960, Note_on_c, 0, 85, 90
2, 45983, Note_on_c, 0, 85, 0
2, 45983, Note_on_c, 0, 81, 0
2, 45983, Note_on_c, 0, 76, 0
2, 46080, Note_on_c, 0, 76, 90
2, 46080, Note_on_c, 0, 80, 90
2, 46080, Note_on_c, 0, 83, 90
2, 46103, Note_on_c, 0, 83, 0
2, 46103, Note_on_c, 0, 80, 0
2, 46103, Note_on_c, 0, 76, 0
2, 46200, Note_on_c, 0, 76, 90
2, 46200, Note_on_c, 0, 80, 90
2, 46200, Note_on_c, 0, 83, 90
2, 46223, Note_on_c, 0, 83, 0
2, 46223, Note_on_c, 0, 80, 0
2, 46223, Note_on_c, 0, 76, 0
2, 46320, Note_on_c, 0, 76, 90
2, 46320, Note_on_c, 0, 80, 90
2, 46320, Note_on_c, 0, 83, 90
2, 46343, Note_on_c, 0, 83, 0
2, 46343, Note_on_c, 0, 80, 0
2, 46343, Note_on_c, 0, 76, 0
2, 46440, Note_on_c, 0, 76, 90
2, 46440, Note_on_c, 0, 78, 90
2, 46440, Note_on_c, 0, 81, 90
2, 46463, Note_on_c, 0, 81, 0
2, 46463, Note_on_c, 0, 78, 0
2, 46463, Note_on_c, 0, 76, 0
2, 46560, Note_on_c, 0, 76, 90
2, 46560, Note_on_c, 0, 80, 90
2, 46583, Note_on_c, 0, 80, 0
2, 46583, Note_on_c, 0, 76, 0
2, 46680, Note_on_c, 0, 74, 90
2, 46680, Note_on_c, 0, 78, 90
2, 46703, Note_on_c, 0, 78, 0
2, 46703, Note_on_c, 0, 74, 0
2, 46800, Note_on_c, 0, 73, 90
2, 46800, Note_on_c, 0, 76, 90
2, 46823, Note_on_c, 0, 76, 0
2, 46823, Note_on_c, 0, 73, 0
2, 46920, Note_on_c, 0, 71, 90
2, 46920, Note_on_c, 0, 74, 90
2, 46943, Note_on_c, 0, 74, 0
2, 46943, Note_on_c, 0, 71, 0
2, 47040, Note_on_c, 0, 73, 90
2, 47063, Note_on_c, 0, 73, 0
2, 47160, Note_on_c, 0, 73, 90
2, 47160, Note_on_c, 0, 76, 90
2, 47183, Note_on_c, 0, 76, 0
2, 47183, Note_on_c, 0, 73, 0
2, 47280, Note_on_c, 0, 76, 90
2, 47280, Note_on_c, 0, 81, 90
2, 47303, Note_on_c, 0, 81, 0
2, 47303, Note_on_c, 0, 76, 0
2, 47400, Note_on_c, 0, 76, 90
2, 47400, Note_on_c, 0, 81, 90
2, 47400, Note_on_c, 0, 85, 90
2, 47423, Note_on_c, 0, 85, 0
2, 47423, Note_on_c, 0, 81, 0
2, 47423, Note_on_c, 0, 76, 0
2, 47520, Note_on_c, 0, 76, 90
2, 47520, Note_on_c, 0, 80, 90
2, 47520, Note_on_c, 0, 83, 90
2, 47543, Note_on_c, 0, 83, 0
2, 47543, Note_on_c, 0, 80, 0
2, 47543, Note_on_c, 0, 76, 0
2, 47640, Note_on_c, 0, 76, 90
2, 47640, Note_on_c, 0, 78, 90
2, 47640, Note_on_c, 0, 81, 90
2, 47663, Note_on_c, 0, 81, 0
2, 47663, Note_on_c, 0, 78, 0
2, 47663, Note_on_c, 0, 76, 0
2, 47760, Note_on_c, 0, 76, 90
2, 47760, Note_on_c, 0, 80, 90
2, 47783, Note_on_c, 0, 80, 0
2, 47783, Note_on_c, 0, 76, 0
2, 47880, Note_on_c, 0, 74, 90
2, 47880, Note_on_c, 0, 78, 90
2, 47903, Note_on_c, 0, 78, 0
2, 47903, Note_on_c, 0, 74, 0
2, 48000, Note_on_c, 0, 73, 90
2, 48000, Note_on_c, 0, 76, 90
2, 48023, Note_on_c, 0, 76, 0
2, 48023, Note_on_c, 0, 73, 0
2, 48120, Note_on_c, 0, 76, 90
2, 48143, Note_on_c, 0, 76, 0
2, 48240, Note_on_c, 0, 76, 90
2, 48240, Note_on_c, 0, 81, 90
2, 48263, Note_on_c, 0, 81, 0
2, 48263, Note_on_c, 0, 76, 0
2, 48360, Note_on_c, 0, 76, 90
2, 48360, Note_on_c, 0, 81, 90
2, 48360, Note_on_c, 0, 85, 90
2, 48383, Note_on_c, 0, 85, 0
2, 48383, Note_on_c, 0, 81, 0
2, 48383, Note_on_c, 0, 76, 0
2, 48480, Note_on_c, 0, 76, 90
2, 48480, Note_on_c, 0, 80, 90
2, 48480, Note_on_c, 0, 83, 90
2, 48503, Note_on_c, 0, 83, 0
2, 48503, Note_on_c, 0, 80, 0
2, 48503, Note_on_c, 0, 76, 0
2, 48600, Note_on_c, 0, 76, 90
2, 48600, Note_on_c, 0, 78, 90
2, 48600, Note_on_c, 0, 81, 90
2, 48623, Note_on_c, 0, 81, 0
2, 48623, Note_on_c, 0, 78, 0
2, 48623, Note_on_c, 0, 76, 0
2, 48720, Note_on_c, 0, 76, 90
2, 48720, Note_on_c, 0, 80, 90
2, 48743, Note_on_c, 0, 80, 0
2, 48743, Note_on_c, 0, 76, 0
2, 48840, Note_on_c, 0, 74, 90
2, 48840, Note_on_c, 0, 78, 90
2, 48863, Note_on_c, 0, 78, 0
2, 48863, Note_on_c, 0, 74, 0
2, 48960, Note_on_c, 0, 73, 90
2, 48960, Note_on_c, 0, 76, 90
2, 48983, Note_on_c, 0, 76, 0
2, 48983, Note_on_c, 0, 73, 0
2, 49080, Note_on_c, 0, 76, 90
2, 49080, Note_on_c, 0, 81, 90
2, 49103, Note_on_c, 0, 81, 0
2, 49103, Note_on_c, 0, 76, 0
2, 49200, Note_on_c, 0, 76, 90
2, 49200, Note_on_c, 0, 81, 90
2, 49200, Note_on_c, 0, 85, 90
2, 49223, Note_on_c, 0, 85, 0
2, 49223, Note_on_c, 0, 81, 0
2, 49223, Note_on_c, 0, 76, 0
2, 49320, Note_on_c, 0, 76, 90
2, 49320, Note_on_c, 0, 85, 90
2, 49320, Note_on_c, 0, 88, 90
2, 49343, Note_on_c, 0, 88, 0
2, 49343, Note_on_c, 0, 85, 0
2, 49343, Note_on_c, 0, 76, 0
2, 49440, Note_on_c, 0, 76, 90
2, 49440, Note_on_c, 0, 83, 90
2, 49440, Note_on_c, 0, 86, 90
2, 49463, Note_on_c, 0, 86, 0
2, 49463, Note_on_c, 0, 83, 0
2, 49463, Note_on_c, 0, 76, 0
2, 49560, Note_on_c, 0, 76, 90
2, 49560, Note_on_c, 0, 83, 90
2, 49560, Note_on_c, 0, 86, 90
2, 49583, Note_on_c, 0, 86, 0
2, 49583, Note_on_c, 0, 83, 0
2, 49583, Note_on_c, 0, 76, 0
2, 49680, Note_on_c, 0, 76, 90
2, 49680, Note_on_c, 0, 83, 90
2, 49680, Note_on_c, 0, 86, 90
2, 49703, Note_on_c, 0, 86, 0
2, 49703, Note_on_c, 0, 83, 0
2, 49703, Note_on_c, 0, 76, 0
2, 49800, Note_on_c, 0, 76, 90
2, 49800, Note_on_c, 0, 81, 90
2, 49800, Note_on_c, 0, 85, 90
2, 49823, Note_on_c, 0, 85, 0
2, 49823, Note_on_c, 0, 81, 0
2, 49823, Note_on_c, 0, 76, 0
2, 49920, Note_on_c, 0, 76, 90
2, 49920, Note_on_c, 0, 80, 90
2, 49920, Note_on_c, 0, 83, 90
2, 49943, Note_on_c, 0, 83, 0
2, 49943, Note_on_c, 0, 80, 0
2, 49943, Note_on_c, 0, 76, 0
2, 50040, Note_on_c, 0, 76, 90
2, 50040, Note_on_c, 0, 80, 90
2, 50040, Note_on_c, 0, 83, 90
2, 50063, Note_on_c, 0, 83, 0
2, 50063, Note_on_c, 0, 80, 0
2, 50063, Note_on_c, 0, 76, 0
2, 50160, Note_on_c, 0, 76, 90
2, 50160, Note_on_c, 0, 80, 90
2, 50160, Note_on_c, 0, 83, 90
2, 50183, Note_on_c, 0, 83, 0
2, 50183, Note_on_c, 0, 80, 0
2, 50183, Note_on_c, 0, 76, 0
2, 50280, Note_on_c, 0, 76, 90
2, 50280, Note_on_c, 0, 78, 90
2, 50280, Note_on_c, 0, 81, 90
2, 50303, Note_on_c, 0, 81, 0
2, 50303, Note_on_c, 0, 78, 0
2, 50303, Note_on_c, 0, 76, 0
2, 50400, Note_on_c, 0, 76, 90
2, 50400, Note_on_c, 0, 80, 90
2, 50423, Note_on_c, 0, 80, 0
2, 50423, Note_on_c, 0, 76, 0
2, 50520, Note_on_c, 0, 74, 90
2, 50520, Note_on_c, 0, 78, 90
2, 50543, Note_on_c, 0, 78, 0
2, 50543, Note_on_c, 0, 74, 0
2, 50640, Note_on_c, 0, 73, 90
2, 50640, Note_on_c, 0, 76, 90
2, 50663, Note_on_c, 0, 76, 0
2, 50663, Note_on_c, 0, 73, 0
2, 50760, Note_on_c, 0, 71, 90
2, 50760, Note_on_c, 0, 74, 90
2, 50783, Note_on_c, 0, 74, 0
2, 50783, Note_on_c, 0, 71, 0
2, 50880, Note_on_c, 0, 73, 90
2, 50903, Note_on_c, 0, 73, 0
2, 51000, Note_on_c, 0, 73, 90
2, 51000, Note_on_c, 0, 76, 90
2, 51023, Note_on_c, 0, 76, 0
2, 51023, Note_on_c, 0, 73, 0
2, 51120, Note_on_c, 0, 76, 90
2, 51120, Note_on_c, 0, 81, 90
2, 51143, Note_on_c, 0, 81, 0
2, 51143, Note_on_c, 0, 76, 0
2, 51240, Note_on_c, 0, 76, 90
2, 51240, Note_on_c, 0, 81, 90
2, 51240, Note_on_c, 0, 85, 90
2, 51263, Note_on_c, 0, 85, 0
2, 51263, Note_on_c, 0, 81, 0
2, 51263, Note_on_c, 0, 76, 0
2, 51360, Note_on_c, 0, 76, 90
2, 51360, Note_on_c, 0, 80, 90
2, 51360, Note_on_c, 0, 83, 90
2, 51383, Note_on_c, 0, 83, 0
2, 51383, Note_on_c, 0, 80, 0
2, 51383, Note_on_c, 0, 76, 0
2, 51480, Note_on_c, 0, 76, 90
2, 51480, Note_on_c, 0, 78, 90
2, 51480, Note_on_c, 0, 81, 90
2, 51503, Note_on_c, 0, 81, 0
2, 51503, Note_on_c, 0, 78, 0
2, 51503, Note_on_c, 0, 76, 0
2, 51600, Note_on_c, 0, 76, 90
2, 51600, Note_on_c, 0, 80, 90
2, 51623, Note_on_c, 0, 80, 0
2, 51623, Note_on_c, 0, 76, 0
2, 51720, Note_on_c, 0, 74, 90
2, 51720, Note_on_c, 0, 78, 90
2, 51743, Note_on_c, 0, 78, 0
2, 51743, Note_on_c, 0, 74, 0
2, 51840, Note_on_c, 0, 73, 90
2, 51840, Note_on_c, 0, 76, 90
2, 51863, Note_on_c, 0, 76, 0
2, 51863, Note_on_c, 0, 73, 0
2, 51960, Note_on_c, 0, 76, 90
2, 51983, Note_on_c, 0, 76, 0
2, 52080, Note_on_c, 0, 76, 90
2, 52080, Note_on_c, 0, 81, 90
2, 52103, Note_on_c, 0, 81, 0
2, 52103, Note_on_c, 0, 76, 0
2, 52200, Note_on_c, 0, 76, 90
2, 52200, Note_on_c, 0, 81, 90
2, 52200, Note_on_c, 0, 85, 90
2, 52223, Note_on_c, 0, 85, 0
2, 52223, Note_on_c, 0, 81, 0
2, 52223, Note_on_c, 0, 76, 0
2, 52320, Note_on_c, 0, 76, 90
2, 52320, Note_on_c, 0, 80, 90
2, 52320, Note_on_c, 0, 83, 90
2, 52343, Note_on_c, 0, 83, 0
2, 52343, Note_on_c, 0, 80, 0
2, 52343, Note_on_c, 0, 76, 0
2, 52440, Note_on_c, 0, 76, 90
2, 52440, Note_on_c, 0, 78, 90
2, 52440, Note_on_c, 0, 81, 90
2, 52463, Note_on_c, 0, 81, 0
2, 52463, Note_on_c, 0, 78, 0
2, 52463, Note_on_c, 0, 76, 0
2, 52560, Note_on_c, 0, 76, 90
2, 52560, Note_on_c, 0, 80, 90
2, 52583, Note_on_c, 0, 80, 0
2, 52583, Note_on_c, 0, 76, 0
2, 52680, Note_on_c, 0, 74, 90
2, 52680, Note_on_c, 0, 78, 90
2, 52703, Note_on_c, 0, 78, 0
2, 52703, Note_on_c, 0, 74, 0
2, 52800, Note_on_c, 0, 73, 90
2, 52800, Note_on_c, 0, 76, 90
2, 52980, Note_on_c, 0, 79, 90
2, 53040, Note_on_c, 0, 79, 0
2, 53040, Note_on_c, 0, 76, 0
2, 53040, Note_on_c, 0, 73, 0
2, 53040, Note_on_c, 0, 69, 90
2, 53040, Note_on_c, 0, 72, 90
2, 53040, Note_on_c, 0, 77, 90
2, 53220, Note_on_c, 0, 79, 90
2, 53280, Note_on_c, 0, 79, 0
2, 53280, Note_on_c, 0, 69, 0
2, 53280, Note_on_c, 0, 72, 0
2, 53280, Note_on_c, 0, 77, 0
2, 53280, Note_on_c, 0, 69, 90
2, 53280, Note_on_c, 0, 72, 90
2, 53280, Note_on_c, 0, 77, 90
2, 53460, Note_on_c, 0, 79, 90
2, 53520, Note_on_c, 0, 79, 0
2, 53520, Note_on_c, 0, 69, 0
2, 53520, Note_on_c, 0, 72, 0
2, 53520, Note_on_c, 0, 77, 0
2, 53520, Note_on_c, 0, 69, 90
2, 53520, Note_on_c, 0, 72, 90
2, 53520, Note_on_c, 0, 77, 90
2, 53700, Note_on_c, 0, 79, 90
2, 53760, Note_on_c, 0, 79, 0
2, 53760, Note_on_c, 0, 69, 0
2, 53760, Note_on_c, 0, 72, 0
2, 53760, Note_on_c, 0, 77, 0
2, 53760, Note_on_c, 0, 69, 90
2, 53760, Note_on_c, 0, 72, 90
2, 53760, Note_on_c, 0, 77, 90
2, 53940, Note_on_c, 0, 79, 90
2, 54000, Note_on_c, 0, 79, 0
2, 54000, Note_on_c, 0, 69, 0
2, 54000, Note_on_c, 0, 72, 0
2, 54000, Note_on_c, 0, 77, 0
2, 54000, Note_on_c, 0, 69, 90
2, 54000, Note_on_c, 0, 72, 90
2, 54000, Note_on_c, 0, 77, 90
2, 54180, Note_on_c, 0, 79, 90
2, 54240, Note_on_c, 0, 79, 0
2, 54240, Note_on_c, 0, 69, 0
2, 54240, Note_on_c, 0, 72, 0
2, 54240, Note_on_c, 0, 77, 0
2, 54240, Note_on_c, 0, 69, 90
2, 54240, Note_on_c, 0, 72, 90
2, 54240, Note_on_c, 0, 77, 90
2, 54420, Note_on_c, 0, 79, 90
2, 54480, Note_on_c, 0, 79, 0
2, 54480, Note_on_c, 0, 69, 0
2, 54480, Note_on_c, 0, 72, 0
2, 54480, Note_on_c, 0, 77, 0
2, 54480, Note_on_c, 0, 69, 90
2, 54480, Note_on_c, 0, 72, 90
2, 54480, Note_on_c, 0, 77, 90
2, 54660, Note_on_c, 0, 79, 90
2, 54720, Note_on_c, 0, 79, 0
2, 54720, Note_on_c, 0, 69, 0
2, 54720, Note_on_c, 0, 72, 0
2, 54720, Note_on_c, 0, 77, 0
2, 54720, Note_on_c, 0, 69, 90
2, 54720, Note_on_c, 0, 72, 90
2, 54720, Note_on_c, 0, 77, 90
2, 54900, Note_on_c, 0, 79, 90
2, 54960, Note_on_c, 0, 79, 0
2, 54960, Note_on_c, 0, 69, 0
2, 54960, Note_on_c, 0, 72, 0
2, 54960, Note_on_c, 0, 77, 0
2, 54960, Note_on_c, 0, 69, 90
2, 54960, Note_on_c, 0, 72, 90
2, 54960, Note_on_c, 0, 77, 90
2, 55140, Note_on_c, 0, 79, 90
2, 55200, Note_on_c, 0, 79, 0
2, 55200, Note_on_c, 0, 69, 0
2, 55200, Note_on_c, 0, 72, 0
2, 55200, Note_on_c, 0, 77, 0
2, 55200, Note_on_c, 0, 69, 90
2, 55200, Note_on_c, 0, 72, 90
2, 55200, Note_on_c, 0, 77, 90
2, 55380, Note_on_c, 0, 79, 90
2, 55440, Note_on_c, 0, 79, 0
2, 55440, Note_on_c, 0, 69, 0
2, 55440, Note_on_c, 0, 72, 0
2, 55440, Note_on_c, 0, 77, 0
2, 55440, Note_on_c, 0, 69, 90
2, 55440, Note_on_c, 0, 72, 90
2, 55440, Note_on_c, 0, 77, 90
2, 55620, Note_on_c, 0, 79, 90
2, 55680, Note_on_c, 0, 79, 0
2, 55680, Note_on_c, 0, 69, 0
2, 55680, Note_on_c, 0, 72, 0
2, 55680, Note_on_c, 0, 77, 0
2, 55680, Note_on_c, 0, 69, 90
2, 55680, Note_on_c, 0, 72, 90
2, 55680, Note_on_c, 0, 77, 90
2, 55860, Note_on_c, 0, 79, 90
2, 55920, Note_on_c, 0, 79, 0
2, 55920, Note_on_c, 0, 69, 0
2, 55920, Note_on_c, 0, 72, 0
2, 55920, Note_on_c, 0, 77, 0
2, 55920, Note_on_c, 0, 69, 90
2, 55920, Note_on_c, 0, 72, 90
2, 55920, Note_on_c, 0, 77, 90
2, 56100, Note_on_c, 0, 79, 90
2, 56160, Note_on_c, 0, 79, 0
2, 56160, Note_on_c, 0, 69, 0
2, 56160, Note_on_c, 0, 72, 0
2, 56160, Note_on_c, 0, 77, 0
2, 56160, Note_on_c, 0, 69, 90
2, 56160, Note_on_c, 0, 72, 90
2, 56160, Note_on_c, 0, 77, 90
2, 56340, Note_on_c, 0, 79, 90
2, 56400, Note_on_c, 0, 79, 0
2, 56400, Note_on_c, 0, 69, 0
2, 56400, Note_on_c, 0, 72, 0
2, 56400, Note_on_c, 0, 77, 0
2, 56400, Note_on_c, 0, 69, 90
2, 56400, Note_on_c, 0, 72, 90
2, 56400, Note_on_c, 0, 77, 90
2, 56580, Note_on_c, 0, 79, 90
2, 56640, Note_on_c, 0, 79, 0
2, 56640, Note_on_c, 0, 69, 0
2, 56640, Note_on_c, 0, 72, 0
2, 56640, Note_on_c, 0, 77, 0
2, 56640, Note_on_c, 0, 69, 90
2, 56640, Note_on_c, 0, 72, 90
2, 56640, Note_on_c, 0, 77, 90
2, 56820, Note_on_c, 0, 79, 90
2, 56880, Note_on_c, 0, 79, 0
2, 56880, Note_on_c, 0, 69, 0
2, 56880, Note_on_c, 0, 72, 0
2, 56880, Note_on_c, 0, 77, 0
2, 56880, Note_on_c, 0, 69, 90
2, 56880, Note_on_c, 0, 72, 90
2, 56880, Note_on_c, 0, 77, 90
2, 57060, Note_on_c, 0, 79, 90
2, 57120, Note_on_c, 0, 79, 0
2, 57120, Note_on_c, 0, 69, 0
2, 57120, Note_on_c, 0, 72, 0
2, 57120, Note_on_c, 0, 77, 0
2, 57120, Note_on_c, 0, 69, 90
2, 57120, Note_on_c, 0, 72, 90
2, 57120, Note_on_c, 0, 77, 90
2, 57300, Note_on_c, 0, 79, 90
2, 57360, Note_on_c, 0, 79, 0
2, 57360, Note_on_c, 0, 69, 0
2, 57360, Note_on_c, 0, 72, 0
2, 57360, Note_on_c, 0, 77, 0
2, 57360, Note_on_c, 0, 69, 90
2, 57360, Note_on_c, 0, 72, 90
2, 57360, Note_on_c, 0, 77, 90
2, 57540, Note_on_c, 0, 79, 90
2, 57600, Note_on_c, 0, 79, 0
2, 57600, Note_on_c, 0, 69, 0
2, 57600, Note_on_c, 0, 72, 0
2, 57600, Note_on_c, 0, 77, 0
2, 57600, Note_on_c, 0, 69, 90
2, 57600, Note_on_c, 0, 72, 90
2, 57600, Note_on_c, 0, 77, 90
2, 57780, Note_on_c, 0, 79, 90
2, 57840, Note_on_c, 0, 79, 0
2, 57840, Note_on_c, 0, 69, 0
2, 57840, Note_on_c, 0, 72, 0
2, 57840, Note_on_c, 0, 77, 0
2, 57840, Note_on_c, 0, 69, 90
2, 57840, Note_on_c, 0, 72, 90
2, 57840, Note_on_c, 0, 77, 90
2, 58020, Note_on_c, 0, 79, 90
2, 58080, Note_on_c, 0, 79, 0
2, 58080, Note_on_c, 0, 69, 0
2, 58080, Note_on_c, 0, 72, 0
2, 58080, Note_on_c, 0, 77, 0
2, 58080, Note_on_c, 0, 69, 90
2, 58080, Note_on_c, 0, 72, 90
2, 58080, Note_on_c, 0, 77, 90
2, 58260, Note_on_c, 0, 79, 90
2, 58320, Note_on_c, 0, 79, 0
2, 58320, Note_on_c, 0, 69, 0
2, 58320, Note_on_c, 0, 72, 0
2, 58320, Note_on_c, 0, 77, 0
2, 58320, Note_on_c, 0, 69, 90
2, 58320, Note_on_c, 0, 72, 90
2, 58320, Note_on_c, 0, 77, 90
2, 58500, Note_on_c, 0, 79, 90
2, 58560, Note_on_c, 0, 79, 0
2, 58560, Note_on_c, 0, 69, 0
2, 58560, Note_on_c, 0, 72, 0
2, 58560, Note_on_c, 0, 77, 0
2, 58560, Note_on_c, 0, 69, 90
2, 58560, Note_on_c, 0, 72, 90
2, 58560, Note_on_c, 0, 77, 90
2, 58740, Note_on_c, 0, 79, 90
2, 58800, Note_on_c, 0, 79, 0
2, 58800, Note_on_c, 0, 69, 0
2, 58800, Note_on_c, 0, 72, 0
2, 58800, Note_on_c, 0, 77, 0
2, 58800, Note_on_c, 0, 69, 90
2, 58800, Note_on_c, 0, 72, 90
2, 58800, Note_on_c, 0, 77, 90
2, 58980, Note_on_c, 0, 79, 90
2, 59040, Note_on_c, 0, 79, 0
2, 59040, Note_on_c, 0, 69, 0
2, 59040, Note_on_c, 0, 72, 0
2, 59040, Note_on_c, 0, 77, 0
2, 59040, Note_on_c, 0, 69, 90
2, 59040, Note_on_c, 0, 72, 90
2, 59040, Note_on_c, 0, 77, 90
2, 59220, Note_on_c, 0, 79, 90
2, 59280, Note_on_c, 0, 79, 0
2, 59280, Note_on_c, 0, 69, 0
2, 59280, Note_on_c, 0, 72, 0
2, 59280, Note_on_c, 0, 77, 0
2, 59280, Note_on_c, 0, 69, 90
2, 59280, Note_on_c, 0, 72, 90
2, 59280, Note_on_c, 0, 77, 90
2, 59460, Note_on_c, 0, 79, 90
2, 59520, Note_on_c, 0, 79, 0
2, 59520, Note_on_c, 0, 69, 0
2, 59520, Note_on_c, 0, 72, 0
2, 59520, Note_on_c, 0, 77, 0
2, 59520, Note_on_c, 0, 69, 90
2, 59520, Note_on_c, 0, 72, 90
2, 59520, Note_on_c, 0, 77, 90
2, 59760, Note_on_c, 0, 77, 0
2, 59760, Note_on_c, 0, 72, 0
2, 59760, Note_on_c, 0, 69, 0
2, 61680, Note_on_c, 0, 81, 90
2, 61800, Note_on_c, 0, 81, 0
2, 61800, Note_on_c, 0, 83, 90
2, 61920, Note_on_c, 0, 83, 0
2, 61920, Note_on_c, 0, 85, 90
2, 62040, Note_on_c, 0, 85, 0
2, 62040, Note_on_c, 0, 81, 90
2, 62160, Note_on_c, 0, 81, 0
2, 62160, Note_on_c, 0, 78, 90
2, 62280, Note_on_c, 0, 78, 0
2, 62280, Note_on_c, 0, 81, 90
2, 62400, Note_on_c, 0, 81, 0
2, 62400, Note_on_c, 0, 71, 90
2, 62400, Note_on_c, 0, 76, 90
2, 62520, Note_on_c, 0, 76, 0
2, 62520, Note_on_c, 0, 71, 0
2, 62520, Note_on_c, 0, 75, 90
2, 62640, Note_on_c, 0, 75, 0
2, 62640, Note_on_c, 0, 76, 90
2, 62760, Note_on_c, 0, 76, 0
2, 62760, Note_on_c, 0, 78, 90
2, 62880, Note_on_c, 0, 78, 0
2, 62880, Note_on_c, 0, 81, 90
2, 63000, Note_on_c, 0, 81, 0
2, 63000, Note_on_c, 0, 78, 90
2, 63120, Note_on_c, 0, 78, 0
2, 63120, Note_on_c, 0, 80, 90
2, 63240, Note_on_c, 0, 80, 0
2, 63240, Note_on_c, 0, 76, 90
2, 63360, Note_on_c, 0, 76, 0
2, 63360, Note_on_c, 0, 78, 90
2, 63480, Note_on_c, 0, 78, 0
2, 63480, Note_on_c, 0, 80, 90
2, 63600, Note_on_c, 0, 80, 0
2, 63600, Note_on_c, 0, 81, 90
2, 63720, Note_on_c, 0, 81, 0
2, 63720, Note_on_c, 0, 83, 90
2, 63840, Note_on_c, 0, 83, 0
2, 63840, Note_on_c, 0, 85, 90
2, 63960, Note_on_c, 0, 85, 0
2, 63960, Note_on_c, 0, 81, 90
2, 64080, Note_on_c, 0, 81, 0
2, 64080, Note_on_c, 0, 78, 90
2, 64200, Note_on_c, 0, 78, 0
2, 64200, Note_on_c, 0, 81, 90
2, 64320, Note_on_c, 0, 81, 0
2, 64320, Note_on_c, 0, 71, 90
2, 64320, Note_on_c, 0, 76, 90
2, 64440, Note_on_c, 0, 76, 0
2, 64440, Note_on_c, 0, 71, 0
2, 64440, Note_on_c, 0, 75, 90
2, 64560, Note_on_c, 0, 75, 0
2, 64560, Note_on_c, 0, 76, 90
2, 64680, Note_on_c, 0, 76, 0
2, 64680, Note_on_c, 0, 78, 90
2, 64800, Note_on_c, 0, 78, 0
2, 64800, Note_on_c, 0, 81, 90
2, 64920, Note_on_c, 0, 81, 0
2, 64920, Note_on_c, 0, 78, 90
2, 65040, Note_on_c, 0, 78, 0
2, 65040, Note_on_c, 0, 80, 90
2, 65160, Note_on_c, 0, 80, 0
2, 65160, Note_on_c, 0, 76, 90
2, 65280, Note_on_c, 0, 76, 0
2, 65280, Note_on_c, 0, 81, 90
2, 65400, Note_on_c, 0, 81, 0
2, 65400, Note_on_c, 0, 76, 90
2, 65520, Note_on_c, 0, 76, 0
2, 65520, Note_on_c, 0, 81, 90
2, 65640, Note_on_c, 0, 81, 0
2, 65640, Note_on_c, 0, 83, 90
2, 65760, Note_on_c, 0, 83, 0
2, 65760, Note_on_c, 0, 85, 90
2, 65880, Note_on_c, 0, 85, 0
2, 65880, Note_on_c, 0, 81, 90
2, 66000, Note_on_c, 0, 81, 0
2, 66000, Note_on_c, 0, 78, 90
2, 66120, Note_on_c, 0, 78, 0
2, 66120, Note_on_c, 0, 81, 90
2, 66240, Note_on_c, 0, 81, 0
2, 66240, Note_on_c, 0, 71, 90
2, 66240, Note_on_c, 0, 76, 90
2, 66360, Note_on_c, 0, 76, 0
2, 66360, Note_on_c, 0, 71, 0
2, 66360, Note_on_c, 0, 75, 90
2, 66480, Note_on_c, 0, 75, 0
2, 66480, Note_on_c, 0, 76, 90
2, 66600, Note_on_c, 0, 76, 0
2, 66600, Note_on_c, 0, 78, 90
2, 66720, Note_on_c, 0, 78, 0
2, 66720, Note_on_c, 0, 81, 90
2, 66840, Note_on_c, 0, 81, 0
2, 66840, Note_on_c, 0, 78, 90
2, 66960, Note_on_c, 0, 78, 0
2, 66960, Note_on_c, 0, 80, 90
2, 67080, Note_on_c, 0, 80, 0
2, 67080, Note_on_c, 0, 76, 90
2, 67200, Note_on_c, 0, 76, 0
2, 67200, Note_on_c, 0, 78, 90
2, 67320, Note_on_c, 0, 78, 0
2, 67320, Note_on_c, 0, 80, 90
2, 67440, Note_on_c, 0, 80, 0
2, 67440, Note_on_c, 0, 81, 90
2, 67560, Note_on_c, 0, 81, 0
2, 67560, Note_on_c, 0, 83, 90
2, 67680, Note_on_c, 0, 83, 0
2, 67680, Note_on_c, 0, 85, 90
2, 67800, Note_on_c, 0, 85, 0
2, 67800, Note_on_c, 0, 81, 90
2, 67920, Note_on_c, 0, 81, 0
2, 67920, Note_on_c, 0, 78, 90
2, 68040, Note_on_c, 0, 78, 0
2, 68040, Note_on_c, 0, 81, 90
2, 68160, Note_on_c, 0, 81, 0
2, 68160, Note_on_c, 0, 71, 90
2, 68160, Note_on_c, 0, 76, 90
2, 68280, Note_on_c, 0, 76, 0
2, 68280, Note_on_c, 0, 71, 0
2, 68280, Note_on_c, 0, 75, 90
2, 68400, Note_on_c, 0, 75, 0
2, 68400, Note_on_c, 0, 76, 90
2, 68520, Note_on_c, 0, 76, 0
2, 68520, Note_on_c, 0, 78, 90
2, 68640, Note_on_c, 0, 78, 0
2, 68640, Note_on_c, 0, 81, 90
2, 68760, Note_on_c, 0, 81, 0
2, 68760, Note_on_c, 0, 78, 90
2, 68880, Note_on_c, 0, 78, 0
2, 68880, Note_on_c, 0, 80, 90
2, 69000, Note_on_c, 0, 80, 0
2, 69000, Note_on_c, 0, 76, 90
2, 69120, Note_on_c, 0, 76, 0
2, 69120, Note_on_c, 0, 73, 90
2, 69120, Note_on_c, 0, 81, 90
2, 69240, Note_on_c, 0, 81, 0
2, 69240, Note_on_c, 0, 73, 0
2, 69240, Note_on_c, 0, 76, 90
2, 69360, Note_on_c, 0, 76, 0
2, 69360, Note_on_c, 0, 78, 90
2, 69480, Note_on_c, 0, 78, 0
2, 69480, Note_on_c, 0, 80, 90
2, 69600, Note_on_c, 0, 80, 0
2, 69600, Note_on_c, 0, 73, 90
2, 69600, Note_on_c, 0, 81, 90
2, 69720, Note_on_c, 0, 81, 0
2, 69720, Note_on_c, 0, 73, 0
2, 69720, Note_on_c, 0, 78, 90
2, 69840, Note_on_c, 0, 78, 0
2, 69840, Note_on_c, 0, 74, 90
2, 69840, Note_on_c, 0, 80, 90
2, 69960, Note_on_c, 0, 80, 0
2, 69960, Note_on_c, 0, 74, 0
2, 69960, Note_on_c, 0, 76, 90
2, 70080, Note_on_c, 0, 76, 0
2, 70080, Note_on_c, 0, 73, 90
2, 70080, Note_on_c, 0, 81, 90
2, 70200, Note_on_c, 0, 81, 0
2, 70200, Note_on_c, 0, 73, 0
2, 70200, Note_on_c, 0, 76, 90
2, 70320, Note_on_c, 0, 76, 0
2, 70320, Note_on_c, 0, 78, 90
2, 70440, Note_on_c, 0, 78, 0
2, 70440, Note_on_c, 0, 80, 90
2, 70560, Note_on_c, 0, 80, 0
2, 70560, Note_on_c, 0, 73, 90
2, 70560, Note_on_c, 0, 81, 90
2, 70680, Note_on_c, 0, 81, 0
2, 70680, Note_on_c, 0, 73, 0
2, 70680, Note_on_c, 0, 78, 90
2, 70800, Note_on_c, 0, 78, 0
2, 70800, Note_on_c, 0, 74, 90
2, 70800, Note_on_c, 0, 80, 90
2, 70920, Note_on_c, 0, 80, 0
2, 70920, Note_on_c, 0, 74, 0
2, 70920, Note_on_c, 0, 76, 90
2, 71040, Note_on_c, 0, 76, 0
2, 71040, Note_on_c, 0, 73, 90
2, 71040, Note_on_c, 0, 81, 90
2, 71160, Note_on_c, 0, 81, 0
2, 71160, Note_on_c, 0, 73, 0
2, 71160, Note_on_c, 0, 76, 90
2, 71280, Note_on_c, 0, 76, 0
2, 71280, Note_on_c, 0, 78, 90
2, 71400, Note_on_c, 0, 78, 0
2, 71400, Note_on_c, 0, 80, 90
2, 71520, Note_on_c, 0, 80, 0
2, 71520, Note_on_c, 0, 73, 90
2, 71520, Note_on_c, 0, 81, 90
2, 71640, Note_on_c, 0, 81, 0
2, 71640, Note_on_c, 0, 73, 0
2, 71640, Note_on_c, 0, 78, 90
2, 71760, Note_on_c, 0, 78, 0
2, 71760, Note_on_c, 0, 74, 90
2, 71760, Note_on_c, 0, 80, 90
2, 71880, Note_on_c, 0, 80, 0
2, 71880, Note_on_c, 0, 74, 0
2, 71880, Note_on_c, 0, 76, 90
2, 72000, Note_on_c, 0, 76, 0
2, 72000, Note_on_c, 0, 73, 90
2, 72000, Note_on_c, 0, 81, 90
2, 72120, Note_on_c, 0, 81, 0
2, 72120, Note_on_c, 0, 73, 0
2, 72120, Note_on_c, 0, 76, 90
2, 72240, Note_on_c, 0, 76, 0
2, 72240, Note_on_c, 0, 78, 90
2, 72360, Note_on_c, 0, 78, 0
2, 72360, Note_on_c, 0, 80, 90
2, 72480, Note_on_c, 0, 80, 0
2, 72480, Note_on_c, 0, 73, 90
2, 72480, Note_on_c, 0, 81, 90
2, 72600, Note_on_c, 0, 81, 0
2, 72600, Note_on_c, 0, 73, 0
2, 72600, Note_on_c, 0, 78, 90
2, 72720, Note_on_c, 0, 78, 0
2, 72720, Note_on_c, 0, 74, 90
2, 72720, Note_on_c, 0, 80, 90
2, 72840, Note_on_c, 0, 80, 0
2, 72840, Note_on_c, 0, 74, 0
2, 72840, Note_on_c, 0, 76, 90
2, 72960, Note_on_c, 0, 76, 0
2, 72960, Note_on_c, 0, 73, 90
2, 72960, Note_on_c, 0, 81, 90
2, 73200, Note_on_c, 0, 81, 0
2, 73200, Note_on_c, 0, 73, 0
2, 73200, Note_on_c, 0, 61, 116
2, 73200, Note_on_c, 0, 64, 116
2, 73200, Note_on_c, 0, 69, 116
2, 73680, Note_on_c, 0, 69, 0
2, 73680, Note_on_c, 0, 64, 0
2, 73680, Note_on_c, 0, 61, 0
2, 73680, Control_c, 0, 64, 127
2, 76560, Control_c, 0, 64, 0
2, 76560, End_track
3, 0, Start_track
3, 0, Title_t, "Grand Piano"
3, 0, Program_c, 0, 0
3, 0, Control_c, 0, 7, 115
3, 0, Control_c, 0, 10, 80
3, 0, Note_on_c, 0, 74, 83
3, 1440, Note_on_c, 0, 74, 0
3, 1440, Note_on_c, 0, 73, 109
3, 1680, Note_on_c, 0, 73, 0
3, 1680, End_track
4, 0, Start_track
4, 0, Title_t, "Grand Piano"
4, 0, Program_c, 0, 0
4, 0, Control_c, 0, 7, 115
4, 0, Control_c, 0, 10, 41
4, 0, Note_on_c, 0, 74, 91
4, 1440, Note_on_c, 0, 74, 0
4, 1440, Note_on_c, 0, 76, 117
4, 1680, Note_on_c, 0, 76, 0
4, 3360, Note_on_c, 0, 45, 91
4, 3360, Note_on_c, 0, 57, 91
4, 3840, Note_on_c, 0, 57, 0
4, 3840, Note_on_c, 0, 45, 0
4, 3840, Note_on_c, 0, 54, 91
4, 3840, Note_on_c, 0, 66, 91
4, 4320, Note_on_c, 0, 66, 0
4, 4320, Note_on_c, 0, 54, 0
4, 4320, Note_on_c, 0, 63, 91
4, 4800, Note_on_c, 0, 63, 0
4, 5280, Note_on_c, 0, 62, 91
4, 5760, Note_on_c, 0, 62, 0
4, 5760, Note_on_c, 0, 57, 91
4, 6240, Note_on_c, 0, 57, 0
4, 6240, Note_on_c, 0, 52, 91
4, 6720, Note_on_c, 0, 52, 0
4, 6720, Note_on_c, 0, 45, 91
4, 6720, Note_on_c, 0, 57, 91
4, 6960, Note_on_c, 0, 57, 0
4, 6960, Note_on_c, 0, 45, 0
4, 6960, Note_on_c, 0, 40, 91
4, 6960, Note_on_c, 0, 52, 91
4, 7200, Note_on_c, 0, 52, 0
4, 7200, Note_on_c, 0, 40, 0
4, 7200, Note_on_c, 0, 45, 91
4, 7200, Note_on_c, 0, 57, 91
4, 7680, Note_on_c, 0, 57, 0
4, 7680, Note_on_c, 0, 45, 0
4, 7680, Note_on_c, 0, 54, 91
4, 8160, Note_on_c, 0, 54, 0
4, 8160, Note_on_c, 0, 63, 91
4, 8640, Note_on_c, 0, 63, 0
4, 9120, Note_on_c, 0, 62, 91
4, 9600, Note_on_c, 0, 62, 0
4, 9600, Note_on_c, 0, 57, 91
4, 10080, Note_on_c, 0, 57, 0
4, 10080, Note_on_c, 0, 52, 91
4, 10560, Note_on_c, 0, 52, 0
4, 10560, Note_on_c, 0, 45, 91
4, 10560, Note_on_c, 0, 57, 91
4, 10800, Note_on_c, 0, 57, 0
4, 10800, Note_on_c, 0, 45, 0
4, 10800, Note_on_c, 0, 40, 91
4, 10800, Note_on_c, 0, 52, 91
4, 11040, Note_on_c, 0, 52, 0
4, 11040, Note_on_c, 0, 40, 0
4, 11040, Note_on_c, 0, 45, 91
4, 11040, Note_on_c, 0, 57, 91
4, 11520, Note_on_c, 0, 57, 0
4, 11520, Note_on_c, 0, 45, 0
4, 11520, Note_on_c, 0, 66, 91
4, 11520, Note_on_c, 0, 69, 91
4, 11520, Note_on_c, 0, 73, 91
4, 12000, Note_on_c, 0, 73, 0
4, 12000, Note_on_c, 0, 69, 0
4, 12000, Note_on_c, 0, 66, 0
4, 12000, Note_on_c, 0, 63, 91
4, 12000, Note_on_c, 0, 66, 91
4, 12000, Note_on_c, 0, 69, 91
4, 12480, Note_on_c, 0, 69, 0
4, 12480, Note_on_c, 0, 66, 0
4, 12480, Note_on_c, 0, 63, 0
4, 12480, Note_on_c, 0, 59, 91
4, 12480, Note_on_c, 0, 66, 91
4, 12960, Note_on_c, 0, 66, 0
4, 12960, Note_on_c, 0, 59, 0
4, 12960, Note_on_c, 0, 62, 91
4, 12960, Note_on_c, 0, 64, 91
4, 12960, Note_on_c, 0, 68, 91
4, 13440, Note_on_c, 0, 68, 0
4, 13440, Note_on_c, 0, 64, 0
4, 13440, Note_on_c, 0, 62, 0
4, 13440, Note_on_c, 0, 57, 91
4, 13440, Note_on_c, 0, 66, 91
4, 13440, Note_on_c, 0, 69, 91
4, 13920, Note_on_c, 0, 69, 0
4, 13920, Note_on_c, 0, 66, 0
4, 13920, Note_on_c, 0, 57, 0
4, 13920, Note_on_c, 0, 52, 91
4, 13920, Note_on_c, 0, 64, 91
4, 14400, Note_on_c, 0, 64, 0
4, 14400, Note_on_c, 0, 52, 0
4, 14400, Note_on_c, 0, 45, 91
4, 14400, Note_on_c, 0, 57, 91
4, 14640, Note_on_c, 0, 57, 0
4, 14640, Note_on_c, 0, 45, 0
4, 14640, Note_on_c, 0, 40, 91
4, 14640, Note_on_c, 0, 52, 91
4, 14880, Note_on_c, 0, 52, 0
4, 14880, Note_on_c, 0, 40, 0
4, 14880, Note_on_c, 0, 45, 91
4, 14880, Note_on_c, 0, 57, 91
4, 15360, Note_on_c, 0, 57, 0
4, 15360, Note_on_c, 0, 45, 0
4, 15360, Note_on_c, 0, 66, 91
4, 15360, Note_on_c, 0, 69, 91
4, 15360, Note_on_c, 0, 73, 91
4, 15840, Note_on_c, 0, 73, 0
4, 15840, Note_on_c, 0, 69, 0
4, 15840, Note_on_c, 0, 66, 0
4, 15840, Note_on_c, 0, 63, 91
4, 15840, Note_on_c, 0, 66, 91
4, 15840, Note_on_c, 0, 69, 91
4, 16320, Note_on_c, 0, 69, 0
4, 16320, Note_on_c, 0, 66, 0
4, 16320, Note_on_c, 0, 63, 0
4, 16320, Note_on_c, 0, 59, 91
4, 16320, Note_on_c, 0, 66, 91
4, 16800, Note_on_c, 0, 66, 0
4, 16800, Note_on_c, 0, 59, 0
4, 16800, Note_on_c, 0, 62, 91
4, 16800, Note_on_c, 0, 64, 91
4, 16800, Note_on_c, 0, 68, 91
4, 17280, Note_on_c, 0, 68, 0
4, 17280, Note_on_c, 0, 64, 0
4, 17280, Note_on_c, 0, 62, 0
4, 17280, Note_on_c, 0, 57, 91
4, 17280, Note_on_c, 0, 66, 91
4, 17280, Note_on_c, 0, 69, 91
4, 17760, Note_on_c, 0, 69, 0
4, 17760, Note_on_c, 0, 66, 0
4, 17760, Note_on_c, 0, 57, 0
4, 17760, Note_on_c, 0, 52, 91
4, 17760, Note_on_c, 0, 64, 91
4, 18240, Note_on_c, 0, 64, 0
4, 18240, Note_on_c, 0, 52, 0
4, 18480, Note_on_c, 0, 54, 78
4, 18480, Note_on_c, 0, 57, 78
4, 18720, Note_on_c, 0, 57, 0
4, 18720, Note_on_c, 0, 54, 0
4, 18720, Note_on_c, 0, 56, 78
4, 18720, Note_on_c, 0, 59, 78
4, 19080, Note_on_c, 0, 59, 0
4, 19080, Note_on_c, 0, 56, 0
4, 19080, Note_on_c, 0, 57, 78
4, 19080, Note_on_c, 0, 61, 78
4, 19200, Note_on_c, 0, 61, 0
4, 19200, Note_on_c, 0, 57, 0
4, 19200, Note_on_c, 0, 59, 78
4, 19200, Note_on_c, 0, 62, 78
4, 19560, Note_on_c, 0, 62, 0
4, 19560, Note_on_c, 0, 59, 0
4, 19560, Note_on_c, 0, 61, 78
4, 19560, Note_on_c, 0, 64, 78
4, 19680, Note_on_c, 0, 64, 0
4, 19680, Note_on_c, 0, 61, 0
4, 19680, Note_on_c, 0, 62, 78
4, 19680, Note_on_c, 0, 66, 78
4, 19800, Note_on_c, 0, 66, 0
4, 19800, Note_on_c, 0, 62, 0
4, 19800, Note_on_c, 0, 64, 78
4, 19800, Note_on_c, 0, 68, 78
4, 19823, Note_on_c, 0, 68, 0
4, 19823, Note_on_c, 0, 64, 0
4, 19920, Note_on_c, 0, 66, 78
4, 19920, Note_on_c, 0, 69, 78
4, 19943, Note_on_c, 0, 69, 0
4, 19943, Note_on_c, 0, 66, 0
4, 20040, Note_on_c, 0, 68, 78
4, 20063, Note_on_c, 0, 68, 0
4, 20160, Note_on_c, 0, 64, 78
4, 20160, Note_on_c, 0, 69, 78
4, 20207, Note_on_c, 0, 69, 0
4, 20207, Note_on_c, 0, 64, 0
4, 20400, Note_on_c, 0, 61, 78
4, 20400, Note_on_c, 0, 64, 78
4, 20447, Note_on_c, 0, 64, 0
4, 20447, Note_on_c, 0, 61, 0
4, 20640, Note_on_c, 0, 62, 78
4, 20640, Note_on_c, 0, 66, 78
4, 20687, Note_on_c, 0, 66, 0
4, 20687, Note_on_c, 0, 62, 0
4, 20880, Note_on_c, 0, 66, 78
4, 20880, Note_on_c, 0, 69, 78
4, 20927, Note_on_c, 0, 69, 0
4, 20927, Note_on_c, 0, 66, 0
4, 21120, Note_on_c, 0, 69, 78
4, 21167, Note_on_c, 0, 69, 0
4, 21360, Note_on_c, 0, 61, 78
4, 21360, Note_on_c, 0, 64, 78
4, 21407, Note_on_c, 0, 64, 0
4, 21407, Note_on_c, 0, 61, 0
4, 21600, Note_on_c, 0, 62, 78
4, 21600, Note_on_c, 0, 66, 78
4, 21647, Note_on_c, 0, 66, 0
4, 21647, Note_on_c, 0, 62, 0
4, 21840, Note_on_c, 0, 66, 78
4, 21840, Note_on_c, 0, 69, 78
4, 21887, Note_on_c, 0, 69, 0
4, 21887, Note_on_c, 0, 66, 0
4, 22080, Note_on_c, 0, 69, 78
4, 22320, Note_on_c, 0, 69, 0
4, 22320, Note_on_c, 0, 54, 78
4, 22320, Note_on_c, 0, 57, 78
4, 22367, Note_on_c, 0, 57, 0
4, 22367, Note_on_c, 0, 54, 0
4, 22560, Note_on_c, 0, 56, 104
4, 22560, Note_on_c, 0, 59, 104
4, 22920, Note_on_c, 0, 59, 0
4, 22920, Note_on_c, 0, 56, 0
4, 22920, Note_on_c, 0, 57, 78
4, 22920, Note_on_c, 0, 61, 78
4, 23040, Note_on_c, 0, 61, 0
4, 23040, Note_on_c, 0, 57, 0
4, 23040, Note_on_c, 0, 59, 78
4, 23040, Note_on_c, 0, 62, 78
4, 23400, Note_on_c, 0, 62, 0
4, 23400, Note_on_c, 0, 59, 0
4, 23400, Note_on_c, 0, 61, 78
4, 23400, Note_on_c, 0, 64, 78
4, 23520, Note_on_c, 0, 64, 0
4, 23520, Note_on_c, 0, 61, 0
4, 23520, Note_on_c, 0, 62, 78
4, 23520, Note_on_c, 0, 66, 78
4, 23640, Note_on_c, 0, 66, 0
4, 23640, Note_on_c, 0, 62, 0
4, 23640, Note_on_c, 0, 64, 78
4, 23640, Note_on_c, 0, 68, 78
4, 23663, Note_on_c, 0, 68, 0
4, 23663, Note_on_c, 0, 64, 0
4, 23760, Note_on_c, 0, 66, 78
4, 23760, Note_on_c, 0, 69, 78
4, 23783, Note_on_c, 0, 69, 0
4, 23783, Note_on_c, 0, 66, 0
4, 23880, Note_on_c, 0, 68, 78
4, 23903, Note_on_c, 0, 68, 0
4, 24000, Note_on_c, 0, 64, 78
4, 24000, Note_on_c, 0, 69, 78
4, 24047, Note_on_c, 0, 69, 0
4, 24047, Note_on_c, 0, 64, 0
4, 24240, Note_on_c, 0, 61, 78
4, 24240, Note_on_c, 0, 64, 78
4, 24287, Note_on_c, 0, 64, 0
4, 24287, Note_on_c, 0, 61, 0
4, 24480, Note_on_c, 0, 62, 78
4, 24480, Note_on_c, 0, 66, 78
4, 24527, Note_on_c, 0, 66, 0
4, 24527, Note_on_c, 0, 62, 0
4, 24720, Note_on_c, 0, 66, 78
4, 24720, Note_on_c, 0, 69, 78
4, 24767, Note_on_c, 0, 69, 0
4, 24767, Note_on_c, 0, 66, 0
4, 24960, Note_on_c, 0, 64, 78
4, 24960, Note_on_c, 0, 69, 78
4, 25007, Note_on_c, 0, 69, 0
4, 25007, Note_on_c, 0, 64, 0
4, 25200, Note_on_c, 0, 61, 78
4, 25200, Note_on_c, 0, 64, 78
4, 25247, Note_on_c, 0, 64, 0
4, 25247, Note_on_c, 0, 61, 0
4, 25440, Note_on_c, 0, 62, 78
4, 25440, Note_on_c, 0, 66, 78
4, 25487, Note_on_c, 0, 66, 0
4, 25487, Note_on_c, 0, 62, 0
4, 25680, Note_on_c, 0, 66, 78
4, 25680, Note_on_c, 0, 69, 78
4, 25727, Note_on_c, 0, 69, 0
4, 25727, Note_on_c, 0, 66, 0
4, 25920, Note_on_c, 0, 57, 78
4, 25920, Note_on_c, 0, 69, 78
4, 25967, Note_on_c, 0, 69, 0
4, 25967, Note_on_c, 0, 57, 0
4, 26160, Note_on_c, 0, 45, 52
4, 26160, Note_on_c, 0, 52, 52
4, 26400, Note_on_c, 0, 52, 0
4, 26400, Note_on_c, 0, 45, 0
4, 26400, Note_on_c, 0, 45, 52
4, 26400, Note_on_c, 0, 53, 52
4, 26640, Note_on_c, 0, 53, 0
4, 26640, Note_on_c, 0, 45, 0
4, 26640, Note_on_c, 0, 45, 52
4, 26640, Note_on_c, 0, 53, 52
4, 26880, Note_on_c, 0, 53, 0
4, 26880, Note_on_c, 0, 45, 0
4, 26880, Note_on_c, 0, 45, 52
4, 26880, Note_on_c, 0, 54, 52
4, 27120, Note_on_c, 0, 54, 0
4, 27120, Note_on_c, 0, 45, 0
4, 27120, Note_on_c, 0, 45, 52
4, 27120, Note_on_c, 0, 54, 52
4, 27360, Note_on_c, 0, 54, 0
4, 27360, Note_on_c, 0, 45, 0
4, 27360, Note_on_c, 0, 49, 52
4, 27360, Note_on_c, 0, 56, 52
4, 27600, Note_on_c, 0, 56, 0
4, 27600, Note_on_c, 0, 49, 0
4, 27600, Note_on_c, 0, 49, 52
4, 27600, Note_on_c, 0, 56, 52
4, 27840, Note_on_c, 0, 56, 0
4, 27840, Note_on_c, 0, 49, 0
4, 27840, Note_on_c, 0, 49, 52
4, 27840, Note_on_c, 0, 57, 52
4, 28080, Note_on_c, 0, 57, 0
4, 28080, Note_on_c, 0, 49, 0
4, 28080, Note_on_c, 0, 49, 52
4, 28080, Note_on_c, 0, 57, 52
4, 28320, Note_on_c, 0, 57, 0
4, 28320, Note_on_c, 0, 49, 0
4, 28320, Note_on_c, 0, 53, 52
4, 28320, Note_on_c, 0, 61, 52
4, 28560, Note_on_c, 0, 61, 0
4, 28560, Note_on_c, 0, 53, 0
4, 28560, Note_on_c, 0, 53, 52
4, 28560, Note_on_c, 0, 59, 52
4, 28560, Note_on_c, 0, 61, 52
4, 28800, Note_on_c, 0, 61, 0
4, 28800, Note_on_c, 0, 59, 0
4, 28800, Note_on_c, 0, 53, 0
4, 28800, Note_on_c, 0, 54, 52
4, 28800, Note_on_c, 0, 61, 52
4, 29040, Note_on_c, 0, 61, 0
4, 29040, Note_on_c, 0, 54, 0
4, 29040, Note_on_c, 0, 54, 52
4, 29040, Note_on_c, 0, 57, 52
4, 29040, Note_on_c, 0, 61, 52
4, 29280, Note_on_c, 0, 61, 0
4, 29280, Note_on_c, 0, 57, 0
4, 29280, Note_on_c, 0, 54, 0
4, 29280, Note_on_c, 0, 56, 52
4, 29280, Note_on_c, 0, 61, 52
4, 29520, Note_on_c, 0, 61, 0
4, 29520, Note_on_c, 0, 56, 0
4, 29520, Note_on_c, 0, 56, 52
4, 29520, Note_on_c, 0, 59, 52
4, 29520, Note_on_c, 0, 61, 52
4, 29760, Note_on_c, 0, 61, 0
4, 29760, Note_on_c, 0, 59, 0
4, 29760, Note_on_c, 0, 56, 0
4, 29760, Note_on_c, 0, 54, 52
4, 29760, Note_on_c, 0, 57, 52
4, 30000, Note_on_c, 0, 57, 0
4, 30000, Note_on_c, 0, 54, 0
4, 30000, Note_on_c, 0, 45, 52
4, 30000, Note_on_c, 0, 52, 52
4, 30240, Note_on_c, 0, 52, 0
4, 30240, Note_on_c, 0, 45, 0
4, 30240, Note_on_c, 0, 45, 52
4, 30240, Note_on_c, 0, 53, 52
4, 30480, Note_on_c, 0, 53, 0
4, 30480, Note_on_c, 0, 45, 0
4, 30480, Note_on_c, 0, 45, 52
4, 30480, Note_on_c, 0, 53, 52
4, 30720, Note_on_c, 0, 53, 0
4, 30720, Note_on_c, 0, 45, 0
4, 30720, Note_on_c, 0, 45, 52
4, 30720, Note_on_c, 0, 54, 52
4, 30960, Note_on_c, 0, 54, 0
4, 30960, Note_on_c, 0, 45, 0
4, 30960, Note_on_c, 0, 45, 52
4, 30960, Note_on_c, 0, 54, 52
4, 31200, Note_on_c, 0, 54, 0
4, 31200, Note_on_c, 0, 45, 0
4, 31200, Note_on_c, 0, 49, 52
4, 31200, Note_on_c, 0, 56, 52
4, 31440, Note_on_c, 0, 56, 0
4, 31440, Note_on_c, 0, 49, 0
4, 31440, Note_on_c, 0, 49, 52
4, 31440, Note_on_c, 0, 56, 52
4, 31680, Note_on_c, 0, 56, 0
4, 31680, Note_on_c, 0, 49, 0
4, 31680, Note_on_c, 0, 49, 52
4, 31680, Note_on_c, 0, 57, 52
4, 31920, Note_on_c, 0, 57, 0
4, 31920, Note_on_c, 0, 49, 0
4, 31920, Note_on_c, 0, 49, 52
4, 31920, Note_on_c, 0, 57, 52
4, 32160, Note_on_c, 0, 57, 0
4, 32160, Note_on_c, 0, 49, 0
4, 32160, Note_on_c, 0, 53, 52
4, 32160, Note_on_c, 0, 61, 52
4, 32400, Note_on_c, 0, 61, 0
4, 32400, Note_on_c, 0, 53, 0
4, 32400, Note_on_c, 0, 53, 52
4, 32400, Note_on_c, 0, 59, 52
4, 32400, Note_on_c, 0, 61, 52
4, 32640, Note_on_c, 0, 61, 0
4, 32640, Note_on_c, 0, 59, 0
4, 32640, Note_on_c, 0, 53, 0
4, 32640, Note_on_c, 0, 54, 52
4, 32640, Note_on_c, 0, 61, 52
4, 32880, Note_on_c, 0, 61, 0
4, 32880, Note_on_c, 0, 54, 0
4, 32880, Note_on_c, 0, 54, 52
4, 32880, Note_on_c, 0, 57, 52
4, 32880, Note_on_c, 0, 61, 52
4, 33120, Note_on_c, 0, 61, 0
4, 33120, Note_on_c, 0, 57, 0
4, 33120, Note_on_c, 0, 54, 0
4, 33120, Note_on_c, 0, 56, 52
4, 33120, Note_on_c, 0, 61, 52
4, 33360, Note_on_c, 0, 61, 0
4, 33360, Note_on_c, 0, 56, 0
4, 33360, Note_on_c, 0, 56, 52
4, 33360, Note_on_c, 0, 59, 52
4, 33360, Note_on_c, 0, 61, 52
4, 33600, Note_on_c, 0, 61, 0
4, 33600, Note_on_c, 0, 59, 0
4, 33600, Note_on_c, 0, 56, 0
4, 33600, Note_on_c, 0, 57, 65
4, 33600, Note_on_c, 0, 61, 65
4, 33840, Note_on_c, 0, 61, 0
4, 33840, Note_on_c, 0, 57, 0
4, 33840, Note_on_c, 0, 38, 65
4, 33840, Note_on_c, 0, 45, 65
4, 33840, Note_on_c, 0, 54, 65
4, 34080, Note_on_c, 0, 54, 0
4, 34080, Note_on_c, 0, 45, 0
4, 34080, Note_on_c, 0, 38, 0
4, 34080, Note_on_c, 0, 38, 65
4, 34080, Note_on_c, 0, 46, 65
4, 34320, Note_on_c, 0, 46, 0
4, 34320, Note_on_c, 0, 38, 0
4, 34320, Note_on_c, 0, 38, 65
4, 34320, Note_on_c, 0, 46, 65
4, 34560, Note_on_c, 0, 46, 0
4, 34560, Note_on_c, 0, 38, 0
4, 34560, Note_on_c, 0, 38, 65
4, 34560, Note_on_c, 0, 47, 65
4, 34800, Note_on_c, 0, 47, 0
4, 34800, Note_on_c, 0, 38, 0
4, 34800, Note_on_c, 0, 38, 65
4, 34800, Note_on_c, 0, 47, 65
4, 35040, Note_on_c, 0, 47, 0
4, 35040, Note_on_c, 0, 38, 0
4, 35040, Note_on_c, 0, 42, 65
4, 35040, Note_on_c, 0, 49, 65
4, 35280, Note_on_c, 0, 49, 0
4, 35280, Note_on_c, 0, 42, 0
4, 35280, Note_on_c, 0, 42, 65
4, 35280, Note_on_c, 0, 49, 65
4, 35520, Note_on_c, 0, 49, 0
4, 35520, Note_on_c, 0, 42, 0
4, 35520, Note_on_c, 0, 42, 65
4, 35520, Note_on_c, 0, 50, 65
4, 35760, Note_on_c, 0, 50, 0
4, 35760, Note_on_c, 0, 42, 0
4, 35760, Note_on_c, 0, 42, 65
4, 35760, Note_on_c, 0, 50, 65
4, 36000, Note_on_c, 0, 50, 0
4, 36000, Note_on_c, 0, 42, 0
4, 36000, Note_on_c, 0, 46, 65
4, 36000, Note_on_c, 0, 54, 65
4, 36240, Note_on_c, 0, 54, 0
4, 36240, Note_on_c, 0, 46, 0
4, 36240, Note_on_c, 0, 46, 65
4, 36240, Note_on_c, 0, 52, 65
4, 36240, Note_on_c, 0, 54, 65
4, 36480, Note_on_c, 0, 54, 0
4, 36480, Note_on_c, 0, 52, 0
4, 36480, Note_on_c, 0, 46, 0
4, 36480, Note_on_c, 0, 47, 65
4, 36480, Note_on_c, 0, 54, 65
4, 36720, Note_on_c, 0, 54, 0
4, 36720, Note_on_c, 0, 47, 0
4, 36720, Note_on_c, 0, 47, 65
4, 36720, Note_on_c, 0, 50, 65
4, 36720, Note_on_c, 0, 54, 65
4, 36960, Note_on_c, 0, 54, 0
4, 36960, Note_on_c, 0, 50, 0
4, 36960, Note_on_c, 0, 47, 0
4, 36960, Note_on_c, 0, 49, 65
4, 36960, Note_on_c, 0, 54, 65
4, 37200, Note_on_c, 0, 54, 0
4, 37200, Note_on_c, 0, 49, 0
4, 37200, Note_on_c, 0, 49, 65
4, 37200, Note_on_c, 0, 52, 65
4, 37200, Note_on_c, 0, 54, 65
4, 37440, Note_on_c, 0, 54, 0
4, 37440, Note_on_c, 0, 52, 0
4, 37440, Note_on_c, 0, 49, 0
4, 37440, Note_on_c, 0, 50, 65
4, 37440, Note_on_c, 0, 54, 65
4, 37680, Note_on_c, 0, 54, 0
4, 37680, Note_on_c, 0, 50, 0
4, 37680, Note_on_c, 0, 38, 65
4, 37920, Note_on_c, 0, 38, 0
4, 37920, Note_on_c, 0, 38, 65
4, 37920, Note_on_c, 0, 46, 65
4, 38160, Note_on_c, 0, 46, 0
4, 38160, Note_on_c, 0, 38, 0
4, 38160, Note_on_c, 0, 38, 65
4, 38160, Note_on_c, 0, 46, 65
4, 38400, Note_on_c, 0, 46, 0
4, 38400, Note_on_c, 0, 38, 0
4, 38400, Note_on_c, 0, 38, 65
4, 38400, Note_on_c, 0, 47, 65
4, 38640, Note_on_c, 0, 47, 0
4, 38640, Note_on_c, 0, 38, 0
4, 38640, Note_on_c, 0, 38, 65
4, 38640, Note_on_c, 0, 47, 65
4, 38880, Note_on_c, 0, 47, 0
4, 38880, Note_on_c, 0, 38, 0
4, 38880, Note_on_c, 0, 42, 65
4, 38880, Note_on_c, 0, 49, 65
4, 39120, Note_on_c, 0, 49, 0
4, 39120, Note_on_c, 0, 42, 0
4, 39120, Note_on_c, 0, 42, 65
4, 39120, Note_on_c, 0, 49, 65
4, 39360, Note_on_c, 0, 49, 0
4, 39360, Note_on_c, 0, 42, 0
4, 39360, Note_on_c, 0, 42, 65
4, 39360, Note_on_c, 0, 50, 65
4, 39600, Note_on_c, 0, 50, 0
4, 39600, Note_on_c, 0, 42, 0
4, 39600, Note_on_c, 0, 42, 65
4, 39600, Note_on_c, 0, 50, 65
4, 39840, Note_on_c, 0, 50, 0
4, 39840, Note_on_c, 0, 42, 0
4, 39840, Note_on_c, 0, 46, 65
4, 39840, Note_on_c, 0, 54, 65
4, 40080, Note_on_c, 0, 54, 0
4, 40080, Note_on_c, 0, 46, 0
4, 40080, Note_on_c, 0, 46, 65
4, 40080, Note_on_c, 0, 52, 65
4, 40080, Note_on_c, 0, 54, 65
4, 40320, Note_on_c, 0, 54, 0
4, 40320, Note_on_c, 0, 52, 0
4, 40320, Note_on_c, 0, 46, 0
4, 40320, Note_on_c, 0, 47, 65
4, 40320, Note_on_c, 0, 54, 65
4, 40560, Note_on_c, 0, 54, 0
4, 40560, Note_on_c, 0, 47, 0
4, 40560, Note_on_c, 0, 47, 65
4, 40560, Note_on_c, 0, 50, 65
4, 40560, Note_on_c, 0, 54, 65
4, 40800, Note_on_c, 0, 54, 0
4, 40800, Note_on_c, 0, 50, 0
4, 40800, Note_on_c, 0, 47, 0
4, 40800, Note_on_c, 0, 49, 65
4, 40800, Note_on_c, 0, 54, 65
4, 41040, Note_on_c, 0, 54, 0
4, 41040, Note_on_c, 0, 49, 0
4, 41040, Note_on_c, 0, 49, 65
4, 41040, Note_on_c, 0, 52, 65
4, 41040, Note_on_c, 0, 54, 65
4, 41280, Note_on_c, 0, 54, 0
4, 41280, Note_on_c, 0, 52, 0
4, 41280, Note_on_c, 0, 49, 0
4, 41280, Note_on_c, 0, 50, 65
4, 41280, Note_on_c, 0, 54, 65
4, 41520, Note_on_c, 0, 54, 0
4, 41520, Note_on_c, 0, 50, 0
4, 41520, Note_on_c, 0, 46, 78
4, 41520, Note_on_c, 0, 54, 78
4, 41520, Note_on_c, 0, 61, 78
4, 41760, Note_on_c, 0, 61, 0
4, 41760, Note_on_c, 0, 54, 0
4, 41760, Note_on_c, 0, 46, 0
4, 41760, Note_on_c, 0, 47, 78
4, 41760, Note_on_c, 0, 54, 78
4, 41760, Note_on_c, 0, 59, 78
4, 42000, Note_on_c, 0, 59, 0
4, 42000, Note_on_c, 0, 54, 0
4, 42000, Note_on_c, 0, 47, 0
4, 42480, Note_on_c, 0, 46, 78
4, 42480, Note_on_c, 0, 54, 78
4, 42480, Note_on_c, 0, 61, 78
4, 42720, Note_on_c, 0, 61, 0
4, 42720, Note_on_c, 0, 54, 0
4, 42720, Note_on_c, 0, 46, 0
4, 42720, Note_on_c, 0, 47, 78
4, 42720, Note_on_c, 0, 54, 78
4, 42720, Note_on_c, 0, 59, 78
4, 42960, Note_on_c, 0, 59, 0
4, 42960, Note_on_c, 0, 54, 0
4, 42960, Note_on_c, 0, 47, 0
4, 43440, Note_on_c, 0, 46, 78
4, 43440, Note_on_c, 0, 54, 78
4, 43440, Note_on_c, 0, 61, 78
4, 43680, Note_on_c, 0, 61, 0
4, 43680, Note_on_c, 0, 54, 0
4, 43680, Note_on_c, 0, 46, 0
4, 43680, Note_on_c, 0, 47, 78
4, 43680, Note_on_c, 0, 54, 78
4, 43680, Note_on_c, 0, 59, 78
4, 43920, Note_on_c, 0, 59, 0
4, 43920, Note_on_c, 0, 54, 0
4, 43920, Note_on_c, 0, 47, 0
4, 44160, Note_on_c, 0, 50, 78
4, 44160, Note_on_c, 0, 59, 78
4, 44160, Note_on_c, 0, 66, 78
4, 44400, Note_on_c, 0, 66, 0
4, 44400, Note_on_c, 0, 59, 0
4, 44400, Note_on_c, 0, 50, 0
4, 44640, Note_on_c, 0, 52, 78
4, 44640, Note_on_c, 0, 59, 78
4, 44640, Note_on_c, 0, 64, 78
4, 44880, Note_on_c, 0, 64, 0
4, 44880, Note_on_c, 0, 59, 0
4, 44880, Note_on_c, 0, 52, 0
4, 45120, Note_on_c, 0, 52, 78
4, 45360, Note_on_c, 0, 52, 0
4, 45360, Note_on_c, 0, 54, 91
4, 45360, Note_on_c, 0, 57, 91
4, 45383, Note_on_c, 0, 57, 0
4, 45383, Note_on_c, 0, 54, 0
4, 45480, Note_on_c, 0, 54, 91
4, 45480, Note_on_c, 0, 57, 91
4, 45503, Note_on_c, 0, 57, 0
4, 45503, Note_on_c, 0, 54, 0
4, 45600, Note_on_c, 0, 45, 91
4, 45600, Note_on_c, 0, 56, 91
4, 45600, Note_on_c, 0, 59, 91
4, 45623, Note_on_c, 0, 59, 0
4, 45623, Note_on_c, 0, 56, 0
4, 45623, Note_on_c, 0, 45, 0
4, 45720, Note_on_c, 0, 56, 91
4, 45720, Note_on_c, 0, 59, 91
4, 45743, Note_on_c, 0, 59, 0
4, 45743, Note_on_c, 0, 56, 0
4, 45840, Note_on_c, 0, 56, 91
4, 45840, Note_on_c, 0, 59, 91
4, 45863, Note_on_c, 0, 59, 0
4, 45863, Note_on_c, 0, 56, 0
4, 45960, Note_on_c, 0, 57, 91
4, 45960, Note_on_c, 0, 61, 91
4, 45983, Note_on_c, 0, 61, 0
4, 45983, Note_on_c, 0, 57, 0
4, 46080, Note_on_c, 0, 59, 91
4, 46080, Note_on_c, 0, 62, 91
4, 46103, Note_on_c, 0, 62, 0
4, 46103, Note_on_c, 0, 59, 0
4, 46200, Note_on_c, 0, 59, 91
4, 46200, Note_on_c, 0, 62, 91
4, 46223, Note_on_c, 0, 62, 0
4, 46223, Note_on_c, 0, 59, 0
4, 46320, Note_on_c, 0, 59, 91
4, 46320, Note_on_c, 0, 62, 91
4, 46343, Note_on_c, 0, 62, 0
4, 46343, Note_on_c, 0, 59, 0
4, 46440, Note_on_c, 0, 61, 91
4, 46440, Note_on_c, 0, 64, 91
4, 46463, Note_on_c, 0, 64, 0
4, 46463, Note_on_c, 0, 61, 0
4, 46560, Note_on_c, 0, 57, 91
4, 46560, Note_on_c, 0, 62, 91
4, 46560, Note_on_c, 0, 66, 91
4, 46583, Note_on_c, 0, 66, 0
4, 46583, Note_on_c, 0, 62, 0
4, 46583, Note_on_c, 0, 57, 0
4, 46680, Note_on_c, 0, 64, 91
4, 46680, Note_on_c, 0, 68, 91
4, 46703, Note_on_c, 0, 68, 0
4, 46703, Note_on_c, 0, 64, 0
4, 46800, Note_on_c, 0, 66, 91
4, 46800, Note_on_c, 0, 69, 91
4, 46823, Note_on_c, 0, 69, 0
4, 46823, Note_on_c, 0, 66, 0
4, 46920, Note_on_c, 0, 68, 91
4, 46943, Note_on_c, 0, 68, 0
4, 47040, Note_on_c, 0, 69, 91
4, 47063, Note_on_c, 0, 69, 0
4, 47160, Note_on_c, 0, 69, 91
4, 47183, Note_on_c, 0, 69, 0
4, 47280, Note_on_c, 0, 61, 91
4, 47280, Note_on_c, 0, 64, 91
4, 47303, Note_on_c, 0, 64, 0
4, 47303, Note_on_c, 0, 61, 0
4, 47400, Note_on_c, 0, 61, 91
4, 47400, Note_on_c, 0, 64, 91
4, 47423, Note_on_c, 0, 64, 0
4, 47423, Note_on_c, 0, 61, 0
4, 47520, Note_on_c, 0, 57, 91
4, 47520, Note_on_c, 0, 62, 91
4, 47520, Note_on_c, 0, 66, 91
4, 47543, Note_on_c, 0, 66, 0
4, 47543, Note_on_c, 0, 62, 0
4, 47543, Note_on_c, 0, 57, 0
4, 47640, Note_on_c, 0, 62, 91
4, 47640, Note_on_c, 0, 66, 91
4, 47663, Note_on_c, 0, 66, 0
4, 47663, Note_on_c, 0, 62, 0
4, 47760, Note_on_c, 0, 66, 91
4, 47760, Note_on_c, 0, 69, 91
4, 47783, Note_on_c, 0, 69, 0
4, 47783, Note_on_c, 0, 66, 0
4, 47880, Note_on_c, 0, 66, 91
4, 47880, Note_on_c, 0, 69, 91
4, 47903, Note_on_c, 0, 69, 0
4, 47903, Note_on_c, 0, 66, 0
4, 48000, Note_on_c, 0, 69, 91
4, 48023, Note_on_c, 0, 69, 0
4, 48120, Note_on_c, 0, 69, 91
4, 48143, Note_on_c, 0, 69, 0
4, 48240, Note_on_c, 0, 61, 91
4, 48240, Note_on_c, 0, 64, 91
4, 48263, Note_on_c, 0, 64, 0
4, 48263, Note_on_c, 0, 61, 0
4, 48360, Note_on_c, 0, 61, 91
4, 48360, Note_on_c, 0, 64, 91
4, 48383, Note_on_c, 0, 64, 0
4, 48383, Note_on_c, 0, 61, 0
4, 48480, Note_on_c, 0, 57, 91
4, 48480, Note_on_c, 0, 62, 91
4, 48480, Note_on_c, 0, 66, 91
4, 48503, Note_on_c, 0, 66, 0
4, 48503, Note_on_c, 0, 62, 0
4, 48503, Note_on_c, 0, 57, 0
4, 48600, Note_on_c, 0, 62, 91
4, 48600, Note_on_c, 0, 66, 91
4, 48623, Note_on_c, 0, 66, 0
4, 48623, Note_on_c, 0, 62, 0
4, 48720, Note_on_c, 0, 66, 91
4, 48720, Note_on_c, 0, 69, 91
4, 48743, Note_on_c, 0, 69, 0
4, 48743, Note_on_c, 0, 66, 0
4, 48840, Note_on_c, 0, 66, 91
4, 48840, Note_on_c, 0, 69, 91
4, 48863, Note_on_c, 0, 69, 0
4, 48863, Note_on_c, 0, 66, 0
4, 48960, Note_on_c, 0, 69, 91
4, 48983, Note_on_c, 0, 69, 0
4, 49080, Note_on_c, 0, 69, 91
4, 49103, Note_on_c, 0, 69, 0
4, 49200, Note_on_c, 0, 54, 91
4, 49200, Note_on_c, 0, 57, 91
4, 49223, Note_on_c, 0, 57, 0
4, 49223, Note_on_c, 0, 54, 0
4, 49320, Note_on_c, 0, 54, 91
4, 49320, Note_on_c, 0, 57, 91
4, 49343, Note_on_c, 0, 57, 0
4, 49343, Note_on_c, 0, 54, 0
4, 49440, Note_on_c, 0, 45, 91
4, 49440, Note_on_c, 0, 56, 91
4, 49440, Note_on_c, 0, 59, 91
4, 49463, Note_on_c, 0, 59, 0
4, 49463, Note_on_c, 0, 56, 0
4, 49463, Note_on_c, 0, 45, 0
4, 49560, Note_on_c, 0, 56, 91
4, 49560, Note_on_c, 0, 59, 91
4, 49583, Note_on_c, 0, 59, 0
4, 49583, Note_on_c, 0, 56, 0
4, 49680, Note_on_c, 0, 56, 91
4, 49680, Note_on_c, 0, 59, 91
4, 49703, Note_on_c, 0, 59, 0
4, 49703, Note_on_c, 0, 56, 0
4, 49800, Note_on_c, 0, 57, 91
4, 49800, Note_on_c, 0, 61, 91
4, 49823, Note_on_c, 0, 61, 0
4, 49823, Note_on_c, 0, 57, 0
4, 49920, Note_on_c, 0, 59, 91
4, 49920, Note_on_c, 0, 62, 91
4, 49943, Note_on_c, 0, 62, 0
4, 49943, Note_on_c, 0, 59, 0
4, 50040, Note_on_c, 0, 59, 91
4, 50040, Note_on_c, 0, 62, 91
4, 50063, Note_on_c, 0, 62, 0
4, 50063, Note_on_c, 0, 59, 0
4, 50160, Note_on_c, 0, 59, 91
4, 50160, Note_on_c, 0, 62, 91
4, 50183, Note_on_c, 0, 62, 0
4, 50183, Note_on_c, 0, 59, 0
4, 50280, Note_on_c, 0, 61, 91
4, 50280, Note_on_c, 0, 64, 91
4, 50303, Note_on_c, 0, 64, 0
4, 50303, Note_on_c, 0, 61, 0
4, 50400, Note_on_c, 0, 57, 91
4, 50400, Note_on_c, 0, 62, 91
4, 50400, Note_on_c, 0, 66, 91
4, 50423, Note_on_c, 0, 66, 0
4, 50423, Note_on_c, 0, 62, 0
4, 50423, Note_on_c, 0, 57, 0
4, 50520, Note_on_c, 0, 64, 91
4, 50520, Note_on_c, 0, 68, 91
4, 50543, Note_on_c, 0, 68, 0
4, 50543, Note_on_c, 0, 64, 0
4, 50640, Note_on_c, 0, 66, 91
4, 50640, Note_on_c, 0, 69, 91
4, 50663, Note_on_c, 0, 69, 0
4, 50663, Note_on_c, 0, 66, 0
4, 50760, Note_on_c, 0, 68, 91
4, 50783, Note_on_c, 0, 68, 0
4, 50880, Note_on_c, 0, 69, 91
4, 50903, Note_on_c, 0, 69, 0
4, 51000, Note_on_c, 0, 69, 91
4, 51023, Note_on_c, 0, 69, 0
4, 51120, Note_on_c, 0, 61, 91
4, 51120, Note_on_c, 0, 64, 91
4, 51143, Note_on_c, 0, 64, 0
4, 51143, Note_on_c, 0, 61, 0
4, 51240, Note_on_c, 0, 61, 91
4, 51240, Note_on_c, 0, 64, 91
4, 51263, Note_on_c, 0, 64, 0
4, 51263, Note_on_c, 0, 61, 0
4, 51360, Note_on_c, 0, 57, 91
4, 51360, Note_on_c, 0, 62, 91
4, 51360, Note_on_c, 0, 66, 91
4, 51383, Note_on_c, 0, 66, 0
4, 51383, Note_on_c, 0, 62, 0
4, 51383, Note_on_c, 0, 57, 0
4, 51480, Note_on_c, 0, 62, 91
4, 51480, Note_on_c, 0, 66, 91
4, 51503, Note_on_c, 0, 66, 0
4, 51503, Note_on_c, 0, 62, 0
4, 51600, Note_on_c, 0, 66, 91
4, 51600, Note_on_c, 0, 69, 91
4, 51623, Note_on_c, 0, 69, 0
4, 51623, Note_on_c, 0, 66, 0
4, 51720, Note_on_c, 0, 66, 91
4, 51720, Note_on_c, 0, 69, 91
4, 51743, Note_on_c, 0, 69, 0
4, 51743, Note_on_c, 0, 66, 0
4, 51840, Note_on_c, 0, 69, 91
4, 51863, Note_on_c, 0, 69, 0
4, 51960, Note_on_c, 0, 69, 91
4, 51983, Note_on_c, 0, 69, 0
4, 52080, Note_on_c, 0, 61, 91
4, 52080, Note_on_c, 0, 64, 91
4, 52103, Note_on_c, 0, 64, 0
4, 52103, Note_on_c, 0, 61, 0
4, 52200, Note_on_c, 0, 61, 91
4, 52200, Note_on_c, 0, 64, 91
4, 52223, Note_on_c, 0, 64, 0
4, 52223, Note_on_c, 0, 61, 0
4, 52320, Note_on_c, 0, 57, 91
4, 52320, Note_on_c, 0, 62, 91
4, 52320, Note_on_c, 0, 66, 91
4, 52343, Note_on_c, 0, 66, 0
4, 52343, Note_on_c, 0, 62, 0
4, 52343, Note_on_c, 0, 57, 0
4, 52440, Note_on_c, 0, 62, 91
4, 52440, Note_on_c, 0, 66, 91
4, 52463, Note_on_c, 0, 66, 0
4, 52463, Note_on_c, 0, 62, 0
4, 52560, Note_on_c, 0, 66, 91
4, 52560, Note_on_c, 0, 69, 91
4, 52583, Note_on_c, 0, 69, 0
4, 52583, Note_on_c, 0, 66, 0
4, 52680, Note_on_c, 0, 66, 91
4, 52680, Note_on_c, 0, 69, 91
4, 52703, Note_on_c, 0, 69, 0
4, 52703, Note_on_c, 0, 66, 0
4, 52800, Note_on_c, 0, 69, 91
4, 53040, Note_on_c, 0, 69, 0
4, 53280, Control_c, 0, 64, 127
4, 53280, Note_on_c, 0, 39, 117
4, 53520, Note_on_c, 0, 39, 0
4, 53520, Note_on_c, 0, 41, 91
4, 53559, Note_on_c, 0, 41, 0
4, 53559, Note_on_c, 0, 43, 91
4, 53600, Note_on_c, 0, 43, 0
4, 53600, Note_on_c, 0, 45, 91
4, 53640, Note_on_c, 0, 45, 0
4, 53640, Note_on_c, 0, 47, 91
4, 53679, Note_on_c, 0, 47, 0
4, 53679, Note_on_c, 0, 48, 91
4, 53720, Note_on_c, 0, 48, 0
4, 53720, Control_c, 0, 64, 0
4, 53720, Note_on_c, 0, 50, 91
4, 53760, Note_on_c, 0, 50, 0
4, 54000, Note_on_c, 0, 57, 91
4, 54000, Note_on_c, 0, 60, 91
4, 54240, Note_on_c, 0, 60, 0
4, 54240, Note_on_c, 0, 57, 0
4, 54240, Note_on_c, 0, 57, 91
4, 54240, Note_on_c, 0, 60, 91
4, 54480, Note_on_c, 0, 60, 0
4, 54480, Note_on_c, 0, 57, 0
4, 54480, Note_on_c, 0, 57, 91
4, 54480, Note_on_c, 0, 60, 91
4, 54720, Note_on_c, 0, 60, 0
4, 54720, Note_on_c, 0, 57, 0
4, 54720, Note_on_c, 0, 57, 91
4, 54720, Note_on_c, 0, 60, 91
4, 54960, Note_on_c, 0, 60, 0
4, 54960, Note_on_c, 0, 57, 0
4, 54960, Note_on_c, 0, 57, 91
4, 54960, Note_on_c, 0, 60, 91
4, 55200, Note_on_c, 0, 60, 0
4, 55200, Note_on_c, 0, 57, 0
4, 55200, Control_c, 0, 64, 127
4, 55200, Note_on_c, 0, 39, 117
4, 55440, Note_on_c, 0, 39, 0
4, 55440, Note_on_c, 0, 41, 91
4, 55479, Note_on_c, 0, 41, 0
4, 55479, Note_on_c, 0, 43, 91
4, 55520, Note_on_c, 0, 43, 0
4, 55520, Note_on_c, 0, 45, 91
4, 55560, Note_on_c, 0, 45, 0
4, 55560, Note_on_c, 0, 47, 91
4, 55599, Note_on_c, 0, 47, 0
4, 55599, Note_on_c, 0, 48, 91
4, 55640, Note_on_c, 0, 48, 0
4, 55640, Control_c, 0, 64, 0
4, 55640, Note_on_c, 0, 50, 91
4, 55680, Note_on_c, 0, 50, 0
4, 55920, Note_on_c, 0, 57, 91
4, 55920, Note_on_c, 0, 60, 91
4, 56160, Note_on_c, 0, 60, 0
4, 56160, Note_on_c, 0, 57, 0
4, 56160, Note_on_c, 0, 57, 91
4, 56160, Note_on_c, 0, 60, 91
4, 56400, Note_on_c, 0, 60, 0
4, 56400, Note_on_c, 0, 57, 0
4, 56400, Note_on_c, 0, 57, 91
4, 56400, Note_on_c, 0, 60, 91
4, 56640, Note_on_c, 0, 60, 0
4, 56640, Note_on_c, 0, 57, 0
4, 56640, Note_on_c, 0, 57, 91
4, 56640, Note_on_c, 0, 60, 91
4, 56880, Note_on_c, 0, 60, 0
4, 56880, Note_on_c, 0, 57, 0
4, 56880, Note_on_c, 0, 39, 91
4, 56880, Note_on_c, 0, 51, 91
4, 57360, Note_on_c, 0, 51, 0
4, 57360, Note_on_c, 0, 39, 0
4, 57360, Note_on_c, 0, 51, 91
4, 57360, Note_on_c, 0, 57, 91
4, 57360, Note_on_c, 0, 60, 91
4, 57840, Note_on_c, 0, 60, 0
4, 57840, Note_on_c, 0, 57, 0
4, 57840, Note_on_c, 0, 51, 0
4, 57840, Note_on_c, 0, 39, 91
4, 57840, Note_on_c, 0, 51, 91
4, 58320, Note_on_c, 0, 51, 0
4, 58320, Note_on_c, 0, 39, 0
4, 58320, Note_on_c, 0, 51, 91
4, 58320, Note_on_c, 0, 57, 91
4, 58320, Note_on_c, 0, 60, 91
4, 58800, Note_on_c, 0, 60, 0
4, 58800, Note_on_c, 0, 57, 0
4, 58800, Note_on_c, 0, 51, 0
4, 58800, Note_on_c, 0, 39, 91
4, 58800, Note_on_c, 0, 51, 91
4, 59280, Note_on_c, 0, 51, 0
4, 59280, Note_on_c, 0, 39, 0
4, 59280, Note_on_c, 0, 51, 91
4, 59280, Note_on_c, 0, 57, 91
4, 59280, Note_on_c, 0, 60, 91
4, 59760, Note_on_c, 0, 60, 0
4, 59760, Note_on_c, 0, 57, 0
4, 59760, Note_on_c, 0, 51, 0
4, 61680, Note_on_c, 0, 33, 78
4, 61680, Note_on_c, 0, 45, 78
4, 61920, Note_on_c, 0, 45, 0
4, 61920, Note_on_c, 0, 33, 0
4, 61920, Note_on_c, 0, 42, 78
4, 61920, Note_on_c, 0, 54, 78
4, 62160, Note_on_c, 0, 54, 0
4, 62160, Note_on_c, 0, 42, 0
4, 62160, Note_on_c, 0, 51, 78
4, 62160, Note_on_c, 0, 63, 78
4, 62400, Note_on_c, 0, 63, 0
4, 62400, Note_on_c, 0, 51, 0
4, 62400, Note_on_c, 0, 59, 78
4, 62640, Note_on_c, 0, 59, 0
4, 62640, Note_on_c, 0, 50, 78
4, 62640, Note_on_c, 0, 62, 78
4, 62880, Note_on_c, 0, 62, 0
4, 62880, Note_on_c, 0, 50, 0
4, 62880, Note_on_c, 0, 45, 78
4, 62880, Note_on_c, 0, 57, 78
4, 63120, Note_on_c, 0, 57, 0
4, 63120, Note_on_c, 0, 45, 0
4, 63120, Note_on_c, 0, 40, 78
4, 63120, Note_on_c, 0, 52, 78
4, 63360, Note_on_c, 0, 52, 0
4, 63360, Note_on_c, 0, 40, 0
4, 63360, Note_on_c, 0, 33, 78
4, 63360, Note_on_c, 0, 45, 78
4, 63480, Note_on_c, 0, 45, 0
4, 63480, Note_on_c, 0, 33, 0
4, 63480, Note_on_c, 0, 40, 78
4, 63600, Note_on_c, 0, 40, 0
4, 63600, Note_on_c, 0, 33, 78
4, 63600, Note_on_c, 0, 45, 78
4, 63840, Note_on_c, 0, 45, 0
4, 63840, Note_on_c, 0, 33, 0
4, 63840, Note_on_c, 0, 42, 78
4, 63840, Note_on_c, 0, 54, 78
4, 64080, Note_on_c, 0, 54, 0
4, 64080, Note_on_c, 0, 42, 0
4, 64080, Note_on_c, 0, 51, 78
4, 64080, Note_on_c, 0, 63, 78
4, 64320, Note_on_c, 0, 63, 0
4, 64320, Note_on_c, 0, 51, 0
4, 64320, Note_on_c, 0, 59, 78
4, 64560, Note_on_c, 0, 59, 0
4, 64560, Note_on_c, 0, 50, 78
4, 64560, Note_on_c, 0, 62, 78
4, 64800, Note_on_c, 0, 62, 0
4, 64800, Note_on_c, 0, 50, 0
4, 64800, Note_on_c, 0, 45, 78
4, 64800, Note_on_c, 0, 57, 78
4, 65040, Note_on_c, 0, 57, 0
4, 65040, Note_on_c, 0, 45, 0
4, 65040, Note_on_c, 0, 40, 78
4, 65040, Note_on_c, 0, 52, 78
4, 65280, Note_on_c, 0, 52, 0
4, 65280, Note_on_c, 0, 40, 0
4, 65280, Note_on_c, 0, 33, 78
4, 65280, Note_on_c, 0, 45, 78
4, 65400, Note_on_c, 0, 45, 0
4, 65400, Note_on_c, 0, 33, 0
4, 65400, Note_on_c, 0, 40, 78
4, 65520, Note_on_c, 0, 40, 0
4, 65520, Note_on_c, 0, 33, 78
4, 65520, Note_on_c, 0, 45, 78
4, 65760, Note_on_c, 0, 45, 0
4, 65760, Note_on_c, 0, 33, 0
4, 65760, Note_on_c, 0, 42, 78
4, 65760, Note_on_c, 0, 54, 78
4, 66000, Note_on_c, 0, 54, 0
4, 66000, Note_on_c, 0, 42, 0
4, 66000, Note_on_c, 0, 51, 78
4, 66000, Note_on_c, 0, 63, 78
4, 66240, Note_on_c, 0, 63, 0
4, 66240, Note_on_c, 0, 51, 0
4, 66240, Note_on_c, 0, 59, 78
4, 66480, Note_on_c, 0, 59, 0
4, 66480, Note_on_c, 0, 50, 78
4, 66480, Note_on_c, 0, 62, 78
4, 66720, Note_on_c, 0, 62, 0
4, 66720, Note_on_c, 0, 50, 0
4, 66720, Note_on_c, 0, 45, 78
4, 66720, Note_on_c, 0, 57, 78
4, 66960, Note_on_c, 0, 57, 0
4, 66960, Note_on_c, 0, 45, 0
4, 66960, Note_on_c, 0, 40, 78
4, 66960, Note_on_c, 0, 52, 78
4, 67200, Note_on_c, 0, 52, 0
4, 67200, Note_on_c, 0, 40, 0
4, 67200, Note_on_c, 0, 33, 78
4, 67200, Note_on_c, 0, 45, 78
4, 67320, Note_on_c, 0, 45, 0
4, 67320, Note_on_c, 0, 33, 0
4, 67320, Note_on_c, 0, 40, 78
4, 67440, Note_on_c, 0, 40, 0
4, 67440, Note_on_c, 0, 33, 78
4, 67440, Note_on_c, 0, 45, 78
4, 67680, Note_on_c, 0, 45, 0
4, 67680, Note_on_c, 0, 33, 0
4, 67680, Note_on_c, 0, 42, 78
4, 67680, Note_on_c, 0, 54, 78
4, 67920, Note_on_c, 0, 54, 0
4, 67920, Note_on_c, 0, 42, 0
4, 67920, Note_on_c, 0, 51, 78
4, 67920, Note_on_c, 0, 63, 78
4, 68160, Note_on_c, 0, 63, 0
4, 68160, Note_on_c, 0, 51, 0
4, 68160, Note_on_c, 0, 59, 78
4, 68400, Note_on_c, 0, 59, 0
4, 68400, Note_on_c, 0, 50, 78
4, 68400, Note_on_c, 0, 62, 78
4, 68640, Note_on_c, 0, 62, 0
4, 68640, Note_on_c, 0, 50, 0
4, 68640, Note_on_c, 0, 45, 78
4, 68640, Note_on_c, 0, 57, 78
4, 68880, Note_on_c, 0, 57, 0
4, 68880, Note_on_c, 0, 45, 0
4, 68880, Note_on_c, 0, 40, 78
4, 68880, Note_on_c, 0, 52, 78
4, 69120, Note_on_c, 0, 52, 0
4, 69120, Note_on_c, 0, 40, 0
4, 69120, Note_on_c, 0, 33, 78
4, 69120, Note_on_c, 0, 45, 78
4, 69360, Note_on_c, 0, 45, 0
4, 69360, Note_on_c, 0, 33, 0
4, 69360, Note_on_c, 0, 50, 78
4, 69360, Note_on_c, 0, 62, 78
4, 69600, Note_on_c, 0, 62, 0
4, 69600, Note_on_c, 0, 50, 0
4, 69600, Note_on_c, 0, 45, 78
4, 69600, Note_on_c, 0, 57, 78
4, 69840, Note_on_c, 0, 57, 0
4, 69840, Note_on_c, 0, 45, 0
4, 69840, Note_on_c, 0, 40, 78
4, 69840, Note_on_c, 0, 52, 78
4, 70080, Note_on_c, 0, 52, 0
4, 70080, Note_on_c, 0, 40, 0
4, 70080, Note_on_c, 0, 33, 78
4, 70080, Note_on_c, 0, 45, 78
4, 70320, Note_on_c, 0, 45, 0
4, 70320, Note_on_c, 0, 33, 0
4, 70320, Note_on_c, 0, 50, 78
4, 70320, Note_on_c, 0, 62, 78
4, 70560, Note_on_c, 0, 62, 0
4, 70560, Note_on_c, 0, 50, 0
4, 70560, Note_on_c, 0, 45, 78
4, 70560, Note_on_c, 0, 57, 78
4, 70800, Note_on_c, 0, 57, 0
4, 70800, Note_on_c, 0, 45, 0
4, 70800, Note_on_c, 0, 40, 78
4, 70800, Note_on_c, 0, 52, 78
4, 71040, Note_on_c, 0, 52, 0
4, 71040, Note_on_c, 0, 40, 0
4, 71040, Note_on_c, 0, 33, 78
4, 71040, Note_on_c, 0, 45, 78
4, 71280, Note_on_c, 0, 45, 0
4, 71280, Note_on_c, 0, 33, 0
4, 71280, Note_on_c, 0, 50, 78
4, 71280, Note_on_c, 0, 62, 78
4, 71520, Note_on_c, 0, 62, 0
4, 71520, Note_on_c, 0, 50, 0
4, 71520, Note_on_c, 0, 45, 78
4, 71520, Note_on_c, 0, 57, 78
4, 71760, Note_on_c, 0, 57, 0
4, 71760, Note_on_c, 0, 45, 0
4, 71760, Note_on_c, 0, 40, 78
4, 71760, Note_on_c, 0, 52, 78
4, 72000, Note_on_c, 0, 52, 0
4, 72000, Note_on_c, 0, 40, 0
4, 72000, Note_on_c, 0, 33, 78
4, 72000, Note_on_c, 0, 45, 78
4, 72240, Note_on_c, 0, 45, 0
4, 72240, Note_on_c, 0, 33, 0
4, 72240, Note_on_c, 0, 50, 78
4, 72240, Note_on_c, 0, 62, 78
4, 72480, Note_on_c, 0, 62, 0
4, 72480, Note_on_c, 0, 50, 0
4, 72480, Note_on_c, 0, 45, 78
4, 72480, Note_on_c, 0, 57, 78
4, 72720, Note_on_c, 0, 57, 0
4, 72720, Note_on_c, 0, 45, 0
4, 72720, Note_on_c, 0, 40, 78
4, 72720, Note_on_c, 0, 52, 78
4, 72960, Note_on_c, 0, 52, 0
4, 72960, Note_on_c, 0, 40, 0
4, 72960, Note_on_c, 0, 33, 78
4, 72960, Note_on_c, 0, 45, 78
4, 73200, Note_on_c, 0, 45, 0
4, 73200, Note_on_c, 0, 33, 0
4, 73200, Note_on_c, 0, 45, 104
4, 73200, Note_on_c, 0, 52, 104
4, 73680, Note_on_c, 0, 52, 0
4, 73680, Note_on_c, 0, 45, 0
4, 73680, End_track
5, 0, Start_track
5, 0, Title_t, "Grand Piano"
5, 0, Program_c, 0, 0
5, 0, Control_c, 0, 7, 115
5, 0, Control_c, 0, 10, 48
5, 0, Note_on_c, 0, 67, 91
5, 80, Note_on_c, 0, 67, 0
5, 80, Note_on_c, 0, 68, 91
5, 159, Note_on_c, 0, 68, 0
5, 159, Note_on_c, 0, 69, 91
5, 240, Note_on_c, 0, 69, 0
5, 240, Note_on_c, 0, 70, 91
5, 480, Note_on_c, 0, 70, 0
5, 480, Note_on_c, 0, 67, 91
5, 560, Note_on_c, 0, 67, 0
5, 560, Note_on_c, 0, 68, 91
5, 639, Note_on_c, 0, 68, 0
5, 639, Note_on_c, 0, 69, 91
5, 720, Note_on_c, 0, 69, 0
5, 720, Note_on_c, 0, 70, 91
5, 960, Note_on_c, 0, 70, 0
5, 960, Note_on_c, 0, 67, 91
5, 1040, Note_on_c, 0, 67, 0
5, 1040, Note_on_c, 0, 68, 91
5, 1119, Note_on_c, 0, 68, 0
5, 1119, Note_on_c, 0, 69, 91
5, 1200, Note_on_c, 0, 69, 0
5, 1200, Note_on_c, 0, 70, 91
5, 1440, Note_on_c, 0, 70, 0
5, 1440, Note_on_c, 0, 69, 117
5, 1440, Note_on_c, 0, 73, 117
5, 1680, Note_on_c, 0, 73, 0
5, 1680, Note_on_c, 0, 69, 0
5, 18240, Note_on_c, 0, 45, 91
5, 18240, Note_on_c, 0, 52, 91
5, 18240, Note_on_c, 0, 57, 91
5, 18480, Note_on_c, 0, 57, 0
5, 18480, Note_on_c, 0, 52, 0
5, 18480, Note_on_c, 0, 45, 0
5, 18720, Note_on_c, 0, 45, 65
5, 18960, Note_on_c, 0, 45, 0
5, 19200, Note_on_c, 0, 57, 65
5, 19440, Note_on_c, 0, 57, 0
5, 19680, Note_on_c, 0, 57, 65
5, 19920, Note_on_c, 0, 57, 0
5, 20160, Note_on_c, 0, 57, 65
5, 20400, Note_on_c, 0, 57, 0
5, 20640, Note_on_c, 0, 57, 65
5, 20880, Note_on_c, 0, 57, 0
5, 21120, Note_on_c, 0, 57, 65
5, 21360, Note_on_c, 0, 57, 0
5, 21600, Note_on_c, 0, 57, 65
5, 21840, Note_on_c, 0, 57, 0
5, 22080, Note_on_c, 0, 57, 91
5, 22320, Note_on_c, 0, 57, 0
5, 22560, Note_on_c, 0, 45, 65
5, 22800, Note_on_c, 0, 45, 0
5, 23040, Note_on_c, 0, 57, 65
5, 23280, Note_on_c, 0, 57, 0
5, 23520, Note_on_c, 0, 57, 65
5, 23760, Note_on_c, 0, 57, 0
5, 24000, Note_on_c, 0, 57, 65
5, 24240, Note_on_c, 0, 57, 0
5, 24480, Note_on_c, 0, 57, 65
5, 24720, Note_on_c, 0, 57, 0
5, 24960, Note_on_c, 0, 57, 65
5, 25200, Note_on_c, 0, 57, 0
5, 25440, Note_on_c, 0, 57, 65
5, 25680, Note_on_c, 0, 57, 0
5, 53760, Note_on_c, 0, 51, 91
5, 55200, Note_on_c, 0, 51, 0
5, 55680, Note_on_c, 0, 51, 91
5, 57120, Note_on_c, 0, 51, 0
5, 57120, End_track
0, 0, End_of_file
