0, 0, Header, 1, 5, 480
1, 0, Start_track
1, 0, Title_t, "tchaikovsky sleeping beauty act3 28d aurore"
1, 0, Copyright_t, "Adaptation for Disklavier pianos, by: Robert C. Kuhmann (c) 2012."
1, 0, Text_t, "Seq. (c) by: Segundo G. Yogore,  2007\012"
1, 0, Time_signature, 2, 2, 24, 8
1, 0, Key_signature, 3, "major"
1, 0, Tempo, 750000
1, 62400, Time_signature, 8, 2, 24, 8
1, 62400, End_track
2, 0, Start_track
2, 0, Title_t, "Grand Piano"
2, 0, Program_c, 0, 0
2, 0, Control_c, 0, 7, 115
2, 0, Control_c, 0, 10, 86
2, 0, Note_on_c, 0, 64, 62
2, 23, Note_on_c, 0, 64, 0
2, 120, Note_on_c, 0, 68, 62
2, 143, Note_on_c, 0, 68, 0
2, 240, Note_on_c, 0, 69, 62
2, 263, Note_on_c, 0, 69, 0
2, 360, Note_on_c, 0, 71, 62
2, 383, Note_on_c, 0, 71, 0
2, 480, Control_c, 0, 64, 127
2, 480, Note_on_c, 0, 73, 62
2, 600, Note_on_c, 0, 73, 0
2, 600, Note_on_c, 0, 76, 62
2, 720, Note_on_c, 0, 76, 0
2, 720, Note_on_c, 0, 78, 62
2, 840, Note_on_c, 0, 78, 0
2, 840, Note_on_c, 0, 75, 62
2, 960, Note_on_c, 0, 75, 0
2, 960, Control_c, 0, 64, 0
2, 960, Note_on_c, 0, 76, 62
2, 1007, Note_on_c, 0, 76, 0
2, 1200, Note_on_c, 0, 76, 62
2, 1247, Note_on_c, 0, 76, 0
2, 1440, Note_on_c, 0, 76, 62
2, 1487, Note_on_c, 0, 76, 0
2, 1920, Note_on_c, 0, 74, 62
2, 2160, Note_on_c, 0, 74, 0
2, 2160, Note_on_c, 0, 88, 62
2, 2207, Note_on_c, 0, 88, 0
2, 2400, Note_on_c, 0, 73, 62
2, 2640, Note_on_c, 0, 73, 0
2, 2640, Note_on_c, 0, 88, 62
2, 2687, Note_on_c, 0, 88, 0
2, 2820, Note_on_c, 0, 88, 62
2, 2880, Note_on_c, 0, 88, 0
2, 2880, Note_on_c, 0, 71, 62
2, 2927, Note_on_c, 0, 71, 0
2, 3120, Note_on_c, 0, 71, 62
2, 3167, Note_on_c, 0, 71, 0
2, 3360, Note_on_c, 0, 71, 62
2, 3407, Note_on_c, 0, 71, 0
2, 3840, Note_on_c, 0, 64, 62
2, 3863, Note_on_c, 0, 64, 0
2, 3960, Note_on_c, 0, 68, 62
2, 3983, Note_on_c, 0, 68, 0
2, 4080, Note_on_c, 0, 69, 62
2, 4103, Note_on_c, 0, 69, 0
2, 4200, Note_on_c, 0, 71, 62
2, 4223, Note_on_c, 0, 71, 0
2, 4320, Note_on_c, 0, 73, 62
2, 4440, Note_on_c, 0, 73, 0
2, 4440, Note_on_c, 0, 76, 62
2, 4560, Note_on_c, 0, 76, 0
2, 4560, Note_on_c, 0, 78, 62
2, 4680, Note_on_c, 0, 78, 0
2, 4680, Note_on_c, 0, 75, 62
2, 4800, Note_on_c, 0, 75, 0
2, 4800, Note_on_c, 0, 76, 62
2, 4847, Note_on_c, 0, 76, 0
2, 5040, Note_on_c, 0, 76, 62
2, 5087, Note_on_c, 0, 76, 0
2, 5280, Note_on_c, 0, 76, 62
2, 5327, Note_on_c, 0, 76, 0
2, 5760, Note_on_c, 0, 71, 62
2, 6000, Note_on_c, 0, 71, 0
2, 6000, Note_on_c, 0, 83, 62
2, 6047, Note_on_c, 0, 83, 0
2, 6240, Note_on_c, 0, 69, 62
2, 6480, Note_on_c, 0, 69, 0
2, 6480, Note_on_c, 0, 83, 62
2, 6527, Note_on_c, 0, 83, 0
2, 6660, Note_on_c, 0, 83, 62
2, 6720, Note_on_c, 0, 83, 0
2, 6720, Note_on_c, 0, 69, 62
2, 6767, Note_on_c, 0, 69, 0
2, 6960, Note_on_c, 0, 69, 62
2, 7007, Note_on_c, 0, 69, 0
2, 7200, Note_on_c, 0, 68, 62
2, 7247, Note_on_c, 0, 68, 0
2, 7680, Note_on_c, 0, 71, 62
2, 7920, Note_on_c, 0, 71, 0
2, 7920, Note_on_c, 0, 83, 62
2, 7967, Note_on_c, 0, 83, 0
2, 8160, Note_on_c, 0, 69, 62
2, 8400, Note_on_c, 0, 69, 0
2, 8400, Note_on_c, 0, 83, 62
2, 8447, Note_on_c, 0, 83, 0
2, 8580, Note_on_c, 0, 83, 62
2, 8640, Note_on_c, 0, 83, 0
2, 8640, Note_on_c, 0, 69, 62
2, 8687, Note_on_c, 0, 69, 0
2, 8880, Note_on_c, 0, 69, 62
2, 8927, Note_on_c, 0, 69, 0
2, 9120, Note_on_c, 0, 68, 62
2, 9167, Note_on_c, 0, 68, 0
2, 9720, Note_on_c, 0, 83, 75
2, 9743, Note_on_c, 0, 83, 0
2, 9840, Note_on_c, 0, 88, 75
2, 9863, Note_on_c, 0, 88, 0
2, 9960, Note_on_c, 0, 87, 75
2, 10080, Note_on_c, 0, 87, 0
2, 10080, Note_on_c, 0, 85, 75
2, 10200, Note_on_c, 0, 85, 0
2, 10200, Note_on_c, 0, 83, 75
2, 10320, Note_on_c, 0, 83, 0
2, 10320, Note_on_c, 0, 81, 75
2, 10343, Note_on_c, 0, 81, 0
2, 10440, Note_on_c, 0, 80, 75
2, 10463, Note_on_c, 0, 80, 0
2, 10560, Note_on_c, 0, 78, 88
2, 10680, Note_on_c, 0, 78, 0
2, 10680, Note_on_c, 0, 85, 88
2, 10800, Note_on_c, 0, 85, 0
2, 10800, Note_on_c, 0, 83, 88
2, 10823, Note_on_c, 0, 83, 0
2, 10920, Note_on_c, 0, 81, 88
2, 10943, Note_on_c, 0, 81, 0
2, 11040, Note_on_c, 0, 80, 88
2, 11160, Note_on_c, 0, 80, 0
2, 11160, Note_on_c, 0, 78, 88
2, 11280, Note_on_c, 0, 78, 0
2, 11280, Note_on_c, 0, 76, 88
2, 11303, Note_on_c, 0, 76, 0
2, 11400, Note_on_c, 0, 75, 88
2, 11423, Note_on_c, 0, 75, 0
2, 11520, Note_on_c, 0, 73, 88
2, 11640, Note_on_c, 0, 73, 0
2, 11640, Note_on_c, 0, 72, 88
2, 11760, Note_on_c, 0, 72, 0
2, 11760, Note_on_c, 0, 73, 88
2, 11783, Note_on_c, 0, 73, 0
2, 11880, Note_on_c, 0, 75, 88
2, 11903, Note_on_c, 0, 75, 0
2, 12000, Note_on_c, 0, 76, 88
2, 12120, Note_on_c, 0, 76, 0
2, 12120, Note_on_c, 0, 70, 88
2, 12240, Note_on_c, 0, 70, 0
2, 12240, Note_on_c, 0, 71, 88
2, 12263, Note_on_c, 0, 71, 0
2, 12360, Note_on_c, 0, 73, 88
2, 12383, Note_on_c, 0, 73, 0
2, 12480, Note_on_c, 0, 75, 88
2, 12503, Note_on_c, 0, 75, 0
2, 12600, Note_on_c, 0, 71, 88
2, 12623, Note_on_c, 0, 71, 0
2, 12720, Note_on_c, 0, 69, 88
2, 12720, Note_on_c, 0, 73, 88
2, 12743, Note_on_c, 0, 73, 0
2, 12743, Note_on_c, 0, 69, 0
2, 12840, Note_on_c, 0, 75, 88
2, 12863, Note_on_c, 0, 75, 0
2, 12960, Note_on_c, 0, 68, 88
2, 12960, Note_on_c, 0, 76, 88
2, 13007, Note_on_c, 0, 76, 0
2, 13007, Note_on_c, 0, 68, 0
2, 13440, Note_on_c, 0, 64, 62
2, 13560, Note_on_c, 0, 64, 0
2, 13560, Note_on_c, 0, 66, 62
2, 13680, Note_on_c, 0, 66, 0
2, 13680, Note_on_c, 0, 68, 62
2, 13703, Note_on_c, 0, 68, 0
2, 13800, Note_on_c, 0, 69, 62
2, 13823, Note_on_c, 0, 69, 0
2, 13920, Note_on_c, 0, 71, 62
2, 14160, Note_on_c, 0, 71, 0
2, 14160, Note_on_c, 0, 63, 62
2, 14160, Note_on_c, 0, 69, 62
2, 14160, Note_on_c, 0, 71, 62
2, 14207, Note_on_c, 0, 71, 0
2, 14207, Note_on_c, 0, 69, 0
2, 14207, Note_on_c, 0, 63, 0
2, 14400, Note_on_c, 0, 62, 62
2, 14400, Note_on_c, 0, 69, 62
2, 14400, Note_on_c, 0, 71, 62
2, 14447, Note_on_c, 0, 71, 0
2, 14447, Note_on_c, 0, 69, 0
2, 14447, Note_on_c, 0, 62, 0
2, 14640, Note_on_c, 0, 63, 62
2, 14640, Note_on_c, 0, 69, 62
2, 14640, Note_on_c, 0, 71, 62
2, 14687, Note_on_c, 0, 71, 0
2, 14687, Note_on_c, 0, 69, 0
2, 14687, Note_on_c, 0, 63, 0
2, 14880, Note_on_c, 0, 64, 62
2, 14880, Note_on_c, 0, 68, 62
2, 14880, Note_on_c, 0, 71, 62
2, 14927, Note_on_c, 0, 71, 0
2, 14927, Note_on_c, 0, 68, 0
2, 14927, Note_on_c, 0, 64, 0
2, 15120, Note_on_c, 0, 76, 62
2, 15120, Note_on_c, 0, 80, 62
2, 15120, Note_on_c, 0, 83, 62
2, 15167, Note_on_c, 0, 83, 0
2, 15167, Note_on_c, 0, 80, 0
2, 15167, Note_on_c, 0, 76, 0
2, 15360, Note_on_c, 0, 64, 62
2, 15480, Note_on_c, 0, 64, 0
2, 15480, Note_on_c, 0, 66, 62
2, 15600, Note_on_c, 0, 66, 0
2, 15600, Note_on_c, 0, 68, 62
2, 15623, Note_on_c, 0, 68, 0
2, 15720, Note_on_c, 0, 69, 62
2, 15743, Note_on_c, 0, 69, 0
2, 15840, Note_on_c, 0, 71, 62
2, 15887, Note_on_c, 0, 71, 0
2, 16080, Note_on_c, 0, 63, 62
2, 16080, Note_on_c, 0, 69, 62
2, 16080, Note_on_c, 0, 71, 62
2, 16127, Note_on_c, 0, 71, 0
2, 16127, Note_on_c, 0, 69, 0
2, 16127, Note_on_c, 0, 63, 0
2, 16320, Note_on_c, 0, 62, 62
2, 16320, Note_on_c, 0, 69, 62
2, 16320, Note_on_c, 0, 71, 62
2, 16367, Note_on_c, 0, 71, 0
2, 16367, Note_on_c, 0, 69, 0
2, 16367, Note_on_c, 0, 62, 0
2, 16560, Note_on_c, 0, 63, 62
2, 16560, Note_on_c, 0, 69, 62
2, 16560, Note_on_c, 0, 71, 62
2, 16607, Note_on_c, 0, 71, 0
2, 16607, Note_on_c, 0, 69, 0
2, 16607, Note_on_c, 0, 63, 0
2, 16800, Note_on_c, 0, 64, 62
2, 16800, Note_on_c, 0, 68, 62
2, 16800, Note_on_c, 0, 71, 62
2, 16847, Note_on_c, 0, 71, 0
2, 16847, Note_on_c, 0, 68, 0
2, 16847, Note_on_c, 0, 64, 0
2, 17280, Note_on_c, 0, 64, 62
2, 17400, Note_on_c, 0, 64, 0
2, 17400, Note_on_c, 0, 66, 62
2, 17520, Note_on_c, 0, 66, 0
2, 17520, Note_on_c, 0, 68, 62
2, 17543, Note_on_c, 0, 68, 0
2, 17640, Note_on_c, 0, 69, 62
2, 17663, Note_on_c, 0, 69, 0
2, 17760, Note_on_c, 0, 71, 62
2, 18000, Note_on_c, 0, 71, 0
2, 18000, Note_on_c, 0, 63, 62
2, 18000, Note_on_c, 0, 69, 62
2, 18000, Note_on_c, 0, 71, 62
2, 18047, Note_on_c, 0, 71, 0
2, 18047, Note_on_c, 0, 69, 0
2, 18047, Note_on_c, 0, 63, 0
2, 18240, Note_on_c, 0, 62, 62
2, 18240, Note_on_c, 0, 69, 62
2, 18240, Note_on_c, 0, 71, 62
2, 18287, Note_on_c, 0, 71, 0
2, 18287, Note_on_c, 0, 69, 0
2, 18287, Note_on_c, 0, 62, 0
2, 18480, Note_on_c, 0, 63, 62
2, 18480, Note_on_c, 0, 69, 62
2, 18480, Note_on_c, 0, 71, 62
2, 18527, Note_on_c, 0, 71, 0
2, 18527, Note_on_c, 0, 69, 0
2, 18527, Note_on_c, 0, 63, 0
2, 18720, Note_on_c, 0, 64, 62
2, 18720, Note_on_c, 0, 68, 62
2, 18720, Note_on_c, 0, 71, 62
2, 18767, Note_on_c, 0, 71, 0
2, 18767, Note_on_c, 0, 68, 0
2, 18767, Note_on_c, 0, 64, 0
2, 18960, Note_on_c, 0, 76, 62
2, 18960, Note_on_c, 0, 80, 62
2, 18960, Note_on_c, 0, 83, 62
2, 19007, Note_on_c, 0, 83, 0
2, 19007, Note_on_c, 0, 80, 0
2, 19007, Note_on_c, 0, 76, 0
2, 19200, Note_on_c, 0, 64, 62
2, 19320, Note_on_c, 0, 64, 0
2, 19320, Note_on_c, 0, 66, 62
2, 19440, Note_on_c, 0, 66, 0
2, 19440, Note_on_c, 0, 68, 62
2, 19463, Note_on_c, 0, 68, 0
2, 19560, Note_on_c, 0, 69, 62
2, 19583, Note_on_c, 0, 69, 0
2, 19680, Note_on_c, 0, 71, 62
2, 19727, Note_on_c, 0, 71, 0
2, 19920, Note_on_c, 0, 63, 62
2, 19920, Note_on_c, 0, 69, 62
2, 19920, Note_on_c, 0, 71, 62
2, 19967, Note_on_c, 0, 71, 0
2, 19967, Note_on_c, 0, 69, 0
2, 19967, Note_on_c, 0, 63, 0
2, 20160, Note_on_c, 0, 62, 62
2, 20160, Note_on_c, 0, 69, 62
2, 20160, Note_on_c, 0, 71, 62
2, 20207, Note_on_c, 0, 71, 0
2, 20207, Note_on_c, 0, 69, 0
2, 20207, Note_on_c, 0, 62, 0
2, 20400, Note_on_c, 0, 63, 62
2, 20400, Note_on_c, 0, 69, 62
2, 20400, Note_on_c, 0, 71, 62
2, 20447, Note_on_c, 0, 71, 0
2, 20447, Note_on_c, 0, 69, 0
2, 20447, Note_on_c, 0, 63, 0
2, 20640, Note_on_c, 0, 64, 62
2, 20640, Note_on_c, 0, 68, 62
2, 20640, Note_on_c, 0, 71, 62
2, 20687, Note_on_c, 0, 71, 0
2, 20687, Note_on_c, 0, 68, 0
2, 20687, Note_on_c, 0, 64, 0
2, 21120, Note_on_c, 0, 76, 62
2, 21120, Note_on_c, 0, 80, 62
2, 21120, Note_on_c, 0, 83, 62
2, 21360, Note_on_c, 0, 83, 0
2, 21360, Note_on_c, 0, 80, 0
2, 21360, Note_on_c, 0, 76, 0
2, 21600, Note_on_c, 0, 76, 62
2, 21600, Note_on_c, 0, 80, 62
2, 21600, Note_on_c, 0, 83, 62
2, 21840, Note_on_c, 0, 83, 0
2, 21840, Note_on_c, 0, 80, 0
2, 21840, Note_on_c, 0, 76, 0
2, 22080, Note_on_c, 0, 76, 62
2, 22080, Note_on_c, 0, 80, 62
2, 22080, Note_on_c, 0, 83, 62
2, 22320, Note_on_c, 0, 83, 0
2, 22320, Note_on_c, 0, 80, 0
2, 22320, Note_on_c, 0, 76, 0
2, 22560, Note_on_c, 0, 76, 62
2, 22560, Note_on_c, 0, 80, 62
2, 22560, Note_on_c, 0, 83, 62
2, 22800, Note_on_c, 0, 83, 0
2, 22800, Note_on_c, 0, 80, 0
2, 22800, Note_on_c, 0, 76, 0
2, 23040, Note_on_c, 0, 76, 62
2, 23040, Note_on_c, 0, 80, 62
2, 23040, Note_on_c, 0, 83, 62
2, 23280, Note_on_c, 0, 83, 0
2, 23280, Note_on_c, 0, 80, 0
2, 23280, Note_on_c, 0, 76, 0
2, 23520, Note_on_c, 0, 76, 62
2, 23520, Note_on_c, 0, 80, 62
2, 23520, Note_on_c, 0, 83, 62
2, 23760, Note_on_c, 0, 83, 0
2, 23760, Note_on_c, 0, 80, 0
2, 23760, Note_on_c, 0, 76, 0
2, 24000, Note_on_c, 0, 71, 62
2, 24000, Note_on_c, 0, 76, 62
2, 24000, Note_on_c, 0, 80, 62
2, 24240, Note_on_c, 0, 80, 0
2, 24240, Note_on_c, 0, 76, 0
2, 24240, Note_on_c, 0, 71, 0
2, 24480, Note_on_c, 0, 71, 62
2, 24480, Note_on_c, 0, 76, 62
2, 24480, Note_on_c, 0, 80, 62
2, 24720, Note_on_c, 0, 80, 0
2, 24720, Note_on_c, 0, 76, 0
2, 24720, Note_on_c, 0, 71, 0
2, 24960, Note_on_c, 0, 68, 62
2, 24960, Note_on_c, 0, 71, 62
2, 24960, Note_on_c, 0, 76, 62
2, 25200, Note_on_c, 0, 76, 0
2, 25200, Note_on_c, 0, 71, 0
2, 25200, Note_on_c, 0, 68, 0
2, 25440, Note_on_c, 0, 68, 62
2, 25440, Note_on_c, 0, 71, 62
2, 25440, Note_on_c, 0, 76, 62
2, 25680, Note_on_c, 0, 76, 0
2, 25680, Note_on_c, 0, 71, 0
2, 25680, Note_on_c, 0, 68, 0
2, 25920, Note_on_c, 0, 64, 49
2, 25920, Note_on_c, 0, 68, 49
2, 25920, Note_on_c, 0, 71, 49
2, 26160, Note_on_c, 0, 71, 0
2, 26160, Note_on_c, 0, 68, 0
2, 26160, Note_on_c, 0, 64, 0
2, 26400, Note_on_c, 0, 64, 49
2, 26400, Note_on_c, 0, 68, 49
2, 26400, Note_on_c, 0, 71, 49
2, 26640, Note_on_c, 0, 71, 0
2, 26640, Note_on_c, 0, 68, 0
2, 26640, Note_on_c, 0, 64, 0
2, 26880, Note_on_c, 0, 76, 75
2, 26903, Note_on_c, 0, 76, 0
2, 27000, Note_on_c, 0, 80, 49
2, 27023, Note_on_c, 0, 80, 0
2, 27120, Note_on_c, 0, 81, 49
2, 27143, Note_on_c, 0, 81, 0
2, 27240, Note_on_c, 0, 83, 49
2, 27263, Note_on_c, 0, 83, 0
2, 27360, Control_c, 0, 64, 127
2, 27360, Note_on_c, 0, 85, 49
2, 27480, Note_on_c, 0, 85, 0
2, 27480, Note_on_c, 0, 88, 49
2, 27600, Note_on_c, 0, 88, 0
2, 27600, Note_on_c, 0, 90, 49
2, 27720, Note_on_c, 0, 90, 0
2, 27720, Note_on_c, 0, 87, 49
2, 27840, Note_on_c, 0, 87, 0
2, 27840, Control_c, 0, 64, 0
2, 27840, Note_on_c, 0, 88, 49
2, 27887, Note_on_c, 0, 88, 0
2, 28080, Note_on_c, 0, 88, 49
2, 28127, Note_on_c, 0, 88, 0
2, 28320, Note_on_c, 0, 88, 75
2, 28560, Note_on_c, 0, 88, 0
2, 28800, Note_on_c, 0, 86, 49
2, 29040, Note_on_c, 0, 86, 0
2, 29040, Note_on_c, 0, 100, 49
2, 29087, Note_on_c, 0, 100, 0
2, 29280, Note_on_c, 0, 85, 49
2, 29520, Note_on_c, 0, 85, 0
2, 29520, Note_on_c, 0, 100, 49
2, 29567, Note_on_c, 0, 100, 0
2, 29700, Note_on_c, 0, 100, 49
2, 29760, Note_on_c, 0, 100, 0
2, 29760, Note_on_c, 0, 83, 49
2, 29807, Note_on_c, 0, 83, 0
2, 30000, Note_on_c, 0, 83, 49
2, 30047, Note_on_c, 0, 83, 0
2, 30240, Note_on_c, 0, 83, 49
2, 30287, Note_on_c, 0, 83, 0
2, 30720, Note_on_c, 0, 76, 49
2, 30743, Note_on_c, 0, 76, 0
2, 30840, Note_on_c, 0, 80, 49
2, 30863, Note_on_c, 0, 80, 0
2, 30960, Note_on_c, 0, 81, 49
2, 30983, Note_on_c, 0, 81, 0
2, 31080, Note_on_c, 0, 83, 49
2, 31103, Note_on_c, 0, 83, 0
2, 31200, Control_c, 0, 64, 127
2, 31200, Note_on_c, 0, 85, 49
2, 31320, Note_on_c, 0, 85, 0
2, 31320, Note_on_c, 0, 88, 49
2, 31440, Note_on_c, 0, 88, 0
2, 31440, Note_on_c, 0, 90, 49
2, 31560, Note_on_c, 0, 90, 0
2, 31560, Control_c, 0, 64, 0
2, 31560, Note_on_c, 0, 87, 49
2, 31680, Note_on_c, 0, 87, 0
2, 31680, Note_on_c, 0, 88, 49
2, 31800, Note_on_c, 0, 88, 0
2, 31800, Note_on_c, 0, 76, 49
2, 31920, Note_on_c, 0, 76, 0
2, 31920, Note_on_c, 0, 88, 49
2, 31943, Note_on_c, 0, 88, 0
2, 32040, Note_on_c, 0, 88, 49
2, 32063, Note_on_c, 0, 88, 0
2, 32160, Note_on_c, 0, 88, 62
2, 32183, Note_on_c, 0, 88, 0
2, 32280, Note_on_c, 0, 100, 62
2, 32303, Note_on_c, 0, 100, 0
2, 32400, Note_on_c, 0, 100, 62
2, 32423, Note_on_c, 0, 100, 0
2, 32520, Note_on_c, 0, 100, 62
2, 32543, Note_on_c, 0, 100, 0
2, 32640, Note_on_c, 0, 83, 88
2, 32760, Note_on_c, 0, 83, 0
2, 32760, Note_on_c, 0, 95, 62
2, 32880, Note_on_c, 0, 95, 0
2, 32880, Note_on_c, 0, 95, 62
2, 32903, Note_on_c, 0, 95, 0
2, 33000, Note_on_c, 0, 95, 62
2, 33023, Note_on_c, 0, 95, 0
2, 33120, Note_on_c, 0, 81, 88
2, 33240, Note_on_c, 0, 81, 0
2, 33240, Note_on_c, 0, 95, 62
2, 33360, Note_on_c, 0, 95, 0
2, 33360, Note_on_c, 0, 95, 62
2, 33383, Note_on_c, 0, 95, 0
2, 33480, Note_on_c, 0, 95, 62
2, 33503, Note_on_c, 0, 95, 0
2, 33600, Note_on_c, 0, 81, 88
2, 33720, Note_on_c, 0, 81, 0
2, 33720, Note_on_c, 0, 95, 62
2, 33743, Note_on_c, 0, 95, 0
2, 33840, Note_on_c, 0, 81, 88
2, 33960, Note_on_c, 0, 81, 0
2, 33960, Note_on_c, 0, 95, 62
2, 33983, Note_on_c, 0, 95, 0
2, 34080, Note_on_c, 0, 80, 62
2, 34160, Note_on_c, 0, 80, 0
2, 34160, Note_on_c, 0, 83, 62
2, 34239, Note_on_c, 0, 83, 0
2, 34239, Note_on_c, 0, 88, 62
2, 34320, Note_on_c, 0, 88, 0
2, 34320, Note_on_c, 0, 88, 75
2, 34400, Note_on_c, 0, 88, 0
2, 34400, Note_on_c, 0, 90, 75
2, 34479, Note_on_c, 0, 90, 0
2, 34479, Note_on_c, 0, 88, 75
2, 34560, Note_on_c, 0, 88, 0
2, 34560, Note_on_c, 0, 83, 75
2, 34680, Note_on_c, 0, 83, 0
2, 34680, Note_on_c, 0, 95, 75
2, 34703, Note_on_c, 0, 95, 0
2, 34800, Note_on_c, 0, 95, 75
2, 34823, Note_on_c, 0, 95, 0
2, 34920, Note_on_c, 0, 95, 75
2, 34943, Note_on_c, 0, 95, 0
2, 35040, Note_on_c, 0, 81, 88
2, 35160, Note_on_c, 0, 81, 0
2, 35160, Note_on_c, 0, 95, 88
2, 35183, Note_on_c, 0, 95, 0
2, 35280, Note_on_c, 0, 95, 88
2, 35303, Note_on_c, 0, 95, 0
2, 35400, Note_on_c, 0, 95, 88
2, 35423, Note_on_c, 0, 95, 0
2, 35520, Note_on_c, 0, 81, 88
2, 35640, Note_on_c, 0, 81, 0
2, 35640, Note_on_c, 0, 95, 88
2, 35663, Note_on_c, 0, 95, 0
2, 35760, Note_on_c, 0, 81, 88
2, 35880, Note_on_c, 0, 81, 0
2, 35880, Note_on_c, 0, 95, 88
2, 35903, Note_on_c, 0, 95, 0
2, 36080, Note_on_c, 0, 71, 88
2, 36159, Note_on_c, 0, 71, 0
2, 36159, Note_on_c, 0, 76, 88
2, 36240, Note_on_c, 0, 76, 0
2, 36240, Note_on_c, 0, 76, 88
2, 36320, Note_on_c, 0, 76, 0
2, 36320, Note_on_c, 0, 80, 88
2, 36399, Note_on_c, 0, 80, 0
2, 36399, Note_on_c, 0, 83, 88
2, 36480, Note_on_c, 0, 83, 0
2, 36480, Note_on_c, 0, 88, 88
2, 36503, Note_on_c, 0, 88, 0
2, 36600, Note_on_c, 0, 83, 88
2, 36623, Note_on_c, 0, 83, 0
2, 36720, Note_on_c, 0, 88, 88
2, 36743, Note_on_c, 0, 88, 0
2, 36840, Note_on_c, 0, 87, 88
2, 36863, Note_on_c, 0, 87, 0
2, 36960, Note_on_c, 0, 85, 88
2, 37080, Note_on_c, 0, 85, 0
2, 37080, Note_on_c, 0, 83, 88
2, 37200, Note_on_c, 0, 83, 0
2, 37200, Note_on_c, 0, 81, 88
2, 37223, Note_on_c, 0, 81, 0
2, 37320, Note_on_c, 0, 80, 88
2, 37343, Note_on_c, 0, 80, 0
2, 37440, Note_on_c, 0, 78, 101
2, 37560, Note_on_c, 0, 78, 0
2, 37560, Note_on_c, 0, 85, 101
2, 37680, Note_on_c, 0, 85, 0
2, 37680, Note_on_c, 0, 83, 101
2, 37703, Note_on_c, 0, 83, 0
2, 37800, Note_on_c, 0, 81, 101
2, 37823, Note_on_c, 0, 81, 0
2, 37920, Note_on_c, 0, 80, 101
2, 38040, Note_on_c, 0, 80, 0
2, 38040, Note_on_c, 0, 78, 101
2, 38160, Note_on_c, 0, 78, 0
2, 38160, Note_on_c, 0, 76, 101
2, 38183, Note_on_c, 0, 76, 0
2, 38280, Note_on_c, 0, 75, 101
2, 38303, Note_on_c, 0, 75, 0
2, 38400, Note_on_c, 0, 73, 88
2, 38520, Note_on_c, 0, 73, 0
2, 38520, Note_on_c, 0, 72, 88
2, 38640, Note_on_c, 0, 72, 0
2, 38640, Note_on_c, 0, 73, 88
2, 38663, Note_on_c, 0, 73, 0
2, 38760, Note_on_c, 0, 75, 88
2, 38783, Note_on_c, 0, 75, 0
2, 38880, Note_on_c, 0, 76, 88
2, 39000, Note_on_c, 0, 76, 0
2, 39000, Note_on_c, 0, 70, 88
2, 39120, Note_on_c, 0, 70, 0
2, 39120, Note_on_c, 0, 71, 88
2, 39143, Note_on_c, 0, 71, 0
2, 39240, Note_on_c, 0, 73, 88
2, 39263, Note_on_c, 0, 73, 0
2, 39360, Note_on_c, 0, 75, 88
2, 39383, Note_on_c, 0, 75, 0
2, 39480, Note_on_c, 0, 71, 88
2, 39503, Note_on_c, 0, 71, 0
2, 39600, Note_on_c, 0, 69, 88
2, 39600, Note_on_c, 0, 73, 88
2, 39623, Note_on_c, 0, 73, 0
2, 39623, Note_on_c, 0, 69, 0
2, 39720, Note_on_c, 0, 75, 88
2, 39743, Note_on_c, 0, 75, 0
2, 39840, Note_on_c, 0, 68, 88
2, 39840, Note_on_c, 0, 76, 88
2, 39887, Note_on_c, 0, 76, 0
2, 39887, Note_on_c, 0, 68, 0
2, 40080, Control_c, 0, 64, 127
2, 40080, Note_on_c, 0, 76, 88
2, 40140, Note_on_c, 0, 76, 0
2, 40140, Note_on_c, 0, 78, 88
2, 40200, Note_on_c, 0, 78, 0
2, 40200, Note_on_c, 0, 80, 88
2, 40260, Note_on_c, 0, 80, 0
2, 40260, Note_on_c, 0, 81, 88
2, 40320, Note_on_c, 0, 81, 0
2, 40320, Control_c, 0, 64, 0
2, 40320, Note_on_c, 0, 83, 88
2, 40560, Note_on_c, 0, 83, 0
2, 41040, Control_c, 0, 64, 127
2, 41040, Note_on_c, 0, 76, 88
2, 41100, Note_on_c, 0, 76, 0
2, 41100, Note_on_c, 0, 78, 88
2, 41160, Note_on_c, 0, 78, 0
2, 41160, Note_on_c, 0, 80, 88
2, 41220, Note_on_c, 0, 80, 0
2, 41220, Note_on_c, 0, 81, 88
2, 41280, Note_on_c, 0, 81, 0
2, 41280, Control_c, 0, 64, 0
2, 41280, Note_on_c, 0, 83, 88
2, 41520, Note_on_c, 0, 83, 0
2, 42000, Control_c, 0, 64, 127
2, 42000, Note_on_c, 0, 76, 101
2, 42060, Note_on_c, 0, 76, 0
2, 42060, Note_on_c, 0, 78, 101
2, 42120, Note_on_c, 0, 78, 0
2, 42120, Note_on_c, 0, 80, 101
2, 42180, Note_on_c, 0, 80, 0
2, 42180, Note_on_c, 0, 81, 101
2, 42240, Note_on_c, 0, 81, 0
2, 42240, Control_c, 0, 64, 0
2, 42240, Note_on_c, 0, 83, 101
2, 42480, Note_on_c, 0, 83, 0
2, 42480, Control_c, 0, 64, 127
2, 42480, Note_on_c, 0, 76, 101
2, 42540, Note_on_c, 0, 76, 0
2, 42540, Note_on_c, 0, 78, 101
2, 42600, Note_on_c, 0, 78, 0
2, 42600, Note_on_c, 0, 80, 101
2, 42660, Note_on_c, 0, 80, 0
2, 42660, Note_on_c, 0, 81, 101
2, 42720, Note_on_c, 0, 81, 0
2, 42720, Control_c, 0, 64, 0
2, 42720, Note_on_c, 0, 83, 101
2, 42960, Note_on_c, 0, 83, 0
2, 42960, Control_c, 0, 64, 127
2, 42960, Note_on_c, 0, 76, 101
2, 43020, Note_on_c, 0, 76, 0
2, 43020, Note_on_c, 0, 78, 101
2, 43080, Note_on_c, 0, 78, 0
2, 43080, Note_on_c, 0, 80, 101
2, 43140, Note_on_c, 0, 80, 0
2, 43140, Note_on_c, 0, 81, 101
2, 43200, Note_on_c, 0, 81, 0
2, 43200, Control_c, 0, 64, 0
2, 43200, Note_on_c, 0, 83, 101
2, 43440, Note_on_c, 0, 83, 0
2, 43440, Control_c, 0, 64, 127
2, 43440, Note_on_c, 0, 76, 101
2, 43500, Note_on_c, 0, 76, 0
2, 43500, Note_on_c, 0, 78, 101
2, 43560, Note_on_c, 0, 78, 0
2, 43560, Note_on_c, 0, 80, 101
2, 43620, Note_on_c, 0, 80, 0
2, 43620, Note_on_c, 0, 81, 101
2, 43680, Note_on_c, 0, 81, 0
2, 43680, Control_c, 0, 64, 0
2, 43680, Note_on_c, 0, 83, 101
2, 43920, Note_on_c, 0, 83, 0
2, 43920, Control_c, 0, 64, 127
2, 43920, Note_on_c, 0, 76, 101
2, 43980, Note_on_c, 0, 76, 0
2, 43980, Note_on_c, 0, 78, 101
2, 44040, Note_on_c, 0, 78, 0
2, 44040, Note_on_c, 0, 80, 101
2, 44100, Note_on_c, 0, 80, 0
2, 44100, Note_on_c, 0, 81, 101
2, 44160, Note_on_c, 0, 81, 0
2, 44160, Control_c, 0, 64, 0
2, 44160, Note_on_c, 0, 83, 101
2, 44280, Note_on_c, 0, 83, 0
2, 44280, Note_on_c, 0, 71, 127
2, 44400, Note_on_c, 0, 71, 0
2, 44400, Note_on_c, 0, 68, 127
2, 44520, Note_on_c, 0, 68, 0
2, 44520, Note_on_c, 0, 66, 127
2, 44640, Note_on_c, 0, 66, 0
2, 44640, Note_on_c, 0, 65, 127
2, 44760, Note_on_c, 0, 65, 0
2, 44760, Note_on_c, 0, 64, 101
2, 44880, Note_on_c, 0, 64, 0
2, 44880, Control_c, 0, 64, 127
2, 44880, Note_on_c, 0, 76, 101
2, 44940, Note_on_c, 0, 76, 0
2, 44940, Note_on_c, 0, 80, 101
2, 45000, Note_on_c, 0, 80, 0
2, 45000, Note_on_c, 0, 81, 101
2, 45060, Note_on_c, 0, 81, 0
2, 45060, Note_on_c, 0, 83, 101
2, 45120, Note_on_c, 0, 83, 0
2, 45120, Control_c, 0, 64, 0
2, 45120, Note_on_c, 0, 85, 101
2, 45240, Note_on_c, 0, 85, 0
2, 45240, Note_on_c, 0, 73, 127
2, 45360, Note_on_c, 0, 73, 0
2, 45360, Note_on_c, 0, 69, 127
2, 45480, Note_on_c, 0, 69, 0
2, 45480, Note_on_c, 0, 68, 127
2, 45600, Note_on_c, 0, 68, 0
2, 45600, Note_on_c, 0, 66, 127
2, 45720, Note_on_c, 0, 66, 0
2, 45720, Note_on_c, 0, 64, 101
2, 45840, Note_on_c, 0, 64, 0
2, 45840, Control_c, 0, 64, 127
2, 45840, Note_on_c, 0, 76, 101
2, 45900, Note_on_c, 0, 76, 0
2, 45900, Note_on_c, 0, 78, 101
2, 45960, Note_on_c, 0, 78, 0
2, 45960, Note_on_c, 0, 80, 101
2, 46020, Note_on_c, 0, 80, 0
2, 46020, Control_c, 0, 64, 0
2, 46020, Note_on_c, 0, 81, 101
2, 46080, Note_on_c, 0, 81, 0
2, 46080, Control_c, 0, 64, 0
2, 46080, Note_on_c, 0, 83, 101
2, 46200, Note_on_c, 0, 83, 0
2, 46200, Note_on_c, 0, 71, 127
2, 46320, Note_on_c, 0, 71, 0
2, 46320, Note_on_c, 0, 68, 127
2, 46440, Note_on_c, 0, 68, 0
2, 46440, Note_on_c, 0, 66, 127
2, 46560, Note_on_c, 0, 66, 0
2, 46560, Note_on_c, 0, 65, 127
2, 46680, Note_on_c, 0, 65, 0
2, 46680, Note_on_c, 0, 64, 101
2, 46800, Note_on_c, 0, 64, 0
2, 46800, Control_c, 0, 64, 127
2, 46800, Note_on_c, 0, 76, 101
2, 46860, Note_on_c, 0, 76, 0
2, 46860, Note_on_c, 0, 80, 101
2, 46920, Note_on_c, 0, 80, 0
2, 46920, Note_on_c, 0, 81, 101
2, 46980, Note_on_c, 0, 81, 0
2, 46980, Note_on_c, 0, 83, 101
2, 47040, Note_on_c, 0, 83, 0
2, 47040, Control_c, 0, 64, 0
2, 47040, Note_on_c, 0, 85, 101
2, 47160, Note_on_c, 0, 85, 0
2, 47160, Note_on_c, 0, 73, 127
2, 47280, Note_on_c, 0, 73, 0
2, 47280, Note_on_c, 0, 69, 127
2, 47400, Note_on_c, 0, 69, 0
2, 47400, Note_on_c, 0, 68, 127
2, 47520, Note_on_c, 0, 68, 0
2, 47520, Note_on_c, 0, 66, 127
2, 47640, Note_on_c, 0, 66, 0
2, 47640, Note_on_c, 0, 64, 101
2, 47760, Note_on_c, 0, 64, 0
2, 47760, Control_c, 0, 64, 127
2, 47760, Note_on_c, 0, 76, 101
2, 47820, Note_on_c, 0, 76, 0
2, 47820, Note_on_c, 0, 80, 101
2, 47880, Note_on_c, 0, 80, 0
2, 47880, Note_on_c, 0, 81, 101
2, 47940, Note_on_c, 0, 81, 0
2, 47940, Control_c, 0, 64, 0
2, 47940, Note_on_c, 0, 83, 101
2, 48000, Note_on_c, 0, 83, 0
2, 48000, Note_on_c, 0, 85, 101
2, 48080, Note_on_c, 0, 85, 0
2, 48080, Note_on_c, 0, 84, 101
2, 48159, Note_on_c, 0, 84, 0
2, 48159, Note_on_c, 0, 85, 101
2, 48240, Note_on_c, 0, 85, 0
2, 48240, Note_on_c, 0, 85, 101
2, 48320, Note_on_c, 0, 85, 0
2, 48320, Note_on_c, 0, 84, 101
2, 48399, Note_on_c, 0, 84, 0
2, 48399, Note_on_c, 0, 85, 101
2, 48480, Note_on_c, 0, 85, 0
2, 48480, Note_on_c, 0, 85, 101
2, 48560, Note_on_c, 0, 85, 0
2, 48560, Note_on_c, 0, 84, 101
2, 48639, Note_on_c, 0, 84, 0
2, 48639, Note_on_c, 0, 85, 101
2, 48720, Note_on_c, 0, 85, 0
2, 48720, Note_on_c, 0, 85, 101
2, 48800, Note_on_c, 0, 85, 0
2, 48800, Note_on_c, 0, 84, 101
2, 48879, Note_on_c, 0, 84, 0
2, 48879, Note_on_c, 0, 85, 101
2, 48960, Note_on_c, 0, 85, 0
2, 48960, Note_on_c, 0, 78, 101
2, 48960, Note_on_c, 0, 85, 101
2, 49080, Note_on_c, 0, 85, 0
2, 49080, Note_on_c, 0, 78, 0
2, 49080, Note_on_c, 0, 90, 101
2, 49200, Note_on_c, 0, 90, 0
2, 49200, Note_on_c, 0, 77, 101
2, 49200, Note_on_c, 0, 85, 101
2, 49200, Note_on_c, 0, 89, 101
2, 49320, Note_on_c, 0, 89, 0
2, 49320, Note_on_c, 0, 85, 0
2, 49320, Note_on_c, 0, 77, 0
2, 49320, Note_on_c, 0, 75, 101
2, 49320, Note_on_c, 0, 87, 101
2, 49440, Note_on_c, 0, 87, 0
2, 49440, Note_on_c, 0, 75, 0
2, 49440, Note_on_c, 0, 77, 101
2, 49440, Note_on_c, 0, 85, 101
2, 49440, Note_on_c, 0, 89, 101
2, 49560, Note_on_c, 0, 89, 0
2, 49560, Note_on_c, 0, 85, 0
2, 49560, Note_on_c, 0, 77, 0
2, 49680, Control_c, 0, 64, 127
2, 49680, Note_on_c, 0, 74, 101
2, 49740, Note_on_c, 0, 74, 0
2, 49740, Note_on_c, 0, 77, 101
2, 49800, Note_on_c, 0, 77, 0
2, 49800, Note_on_c, 0, 78, 101
2, 49860, Note_on_c, 0, 78, 0
2, 49860, Control_c, 0, 64, 0
2, 49860, Note_on_c, 0, 80, 101
2, 49920, Note_on_c, 0, 80, 0
2, 49920, Note_on_c, 0, 81, 101
2, 50000, Note_on_c, 0, 81, 0
2, 50000, Note_on_c, 0, 80, 101
2, 50079, Note_on_c, 0, 80, 0
2, 50079, Note_on_c, 0, 81, 101
2, 50160, Note_on_c, 0, 81, 0
2, 50160, Note_on_c, 0, 81, 101
2, 50240, Note_on_c, 0, 81, 0
2, 50240, Note_on_c, 0, 80, 101
2, 50319, Note_on_c, 0, 80, 0
2, 50319, Note_on_c, 0, 81, 101
2, 50400, Note_on_c, 0, 81, 0
2, 50400, Note_on_c, 0, 81, 101
2, 50480, Note_on_c, 0, 81, 0
2, 50480, Note_on_c, 0, 80, 101
2, 50559, Note_on_c, 0, 80, 0
2, 50559, Note_on_c, 0, 81, 101
2, 50640, Note_on_c, 0, 81, 0
2, 50640, Note_on_c, 0, 81, 101
2, 50720, Note_on_c, 0, 81, 0
2, 50720, Note_on_c, 0, 80, 101
2, 50799, Note_on_c, 0, 80, 0
2, 50799, Note_on_c, 0, 81, 101
2, 50880, Note_on_c, 0, 81, 0
2, 50880, Note_on_c, 0, 74, 101
2, 50880, Note_on_c, 0, 81, 101
2, 51000, Note_on_c, 0, 81, 0
2, 51000, Note_on_c, 0, 74, 0
2, 51000, Note_on_c, 0, 86, 101
2, 51120, Note_on_c, 0, 86, 0
2, 51120, Note_on_c, 0, 73, 101
2, 51120, Note_on_c, 0, 81, 101
2, 51120, Note_on_c, 0, 85, 101
2, 51240, Note_on_c, 0, 85, 0
2, 51240, Note_on_c, 0, 81, 0
2, 51240, Note_on_c, 0, 73, 0
2, 51240, Note_on_c, 0, 72, 101
2, 51240, Note_on_c, 0, 84, 101
2, 51360, Note_on_c, 0, 84, 0
2, 51360, Note_on_c, 0, 72, 0
2, 51360, Note_on_c, 0, 73, 101
2, 51360, Note_on_c, 0, 81, 101
2, 51360, Note_on_c, 0, 85, 101
2, 51480, Note_on_c, 0, 85, 0
2, 51480, Note_on_c, 0, 81, 0
2, 51480, Note_on_c, 0, 73, 0
2, 51600, Note_on_c, 0, 76, 101
2, 51660, Note_on_c, 0, 76, 0
2, 51660, Note_on_c, 0, 78, 101
2, 51720, Note_on_c, 0, 78, 0
2, 51720, Note_on_c, 0, 80, 101
2, 51780, Note_on_c, 0, 80, 0
2, 51780, Note_on_c, 0, 81, 101
2, 51840, Note_on_c, 0, 81, 0
2, 51840, Control_c, 0, 64, 0
2, 51840, Note_on_c, 0, 83, 101
2, 51960, Note_on_c, 0, 83, 0
2, 51960, Note_on_c, 0, 71, 127
2, 52080, Note_on_c, 0, 71, 0
2, 52080, Note_on_c, 0, 68, 127
2, 52200, Note_on_c, 0, 68, 0
2, 52200, Note_on_c, 0, 66, 127
2, 52320, Note_on_c, 0, 66, 0
2, 52320, Note_on_c, 0, 65, 127
2, 52440, Note_on_c, 0, 65, 0
2, 52440, Note_on_c, 0, 64, 101
2, 52560, Note_on_c, 0, 64, 0
2, 52560, Control_c, 0, 64, 127
2, 52560, Note_on_c, 0, 76, 101
2, 52620, Note_on_c, 0, 76, 0
2, 52620, Note_on_c, 0, 80, 101
2, 52680, Note_on_c, 0, 80, 0
2, 52680, Note_on_c, 0, 81, 101
2, 52740, Note_on_c, 0, 81, 0
2, 52740, Note_on_c, 0, 83, 101
2, 52800, Note_on_c, 0, 83, 0
2, 52800, Control_c, 0, 64, 0
2, 52800, Note_on_c, 0, 85, 101
2, 52920, Note_on_c, 0, 85, 0
2, 52920, Note_on_c, 0, 73, 127
2, 53040, Note_on_c, 0, 73, 0
2, 53040, Note_on_c, 0, 69, 127
2, 53160, Note_on_c, 0, 69, 0
2, 53160, Note_on_c, 0, 68, 127
2, 53280, Note_on_c, 0, 68, 0
2, 53280, Note_on_c, 0, 66, 127
2, 53400, Note_on_c, 0, 66, 0
2, 53400, Note_on_c, 0, 64, 101
2, 53520, Note_on_c, 0, 64, 0
2, 53520, Control_c, 0, 64, 127
2, 53520, Note_on_c, 0, 76, 101
2, 53580, Note_on_c, 0, 76, 0
2, 53580, Note_on_c, 0, 78, 101
2, 53640, Note_on_c, 0, 78, 0
2, 53640, Note_on_c, 0, 80, 101
2, 53700, Note_on_c, 0, 80, 0
2, 53700, Control_c, 0, 64, 0
2, 53700, Note_on_c, 0, 81, 101
2, 53760, Note_on_c, 0, 81, 0
2, 53760, Control_c, 0, 64, 0
2, 53760, Note_on_c, 0, 83, 101
2, 53880, Note_on_c, 0, 83, 0
2, 53880, Note_on_c, 0, 71, 127
2, 54000, Note_on_c, 0, 71, 0
2, 54000, Note_on_c, 0, 68, 127
2, 54120, Note_on_c, 0, 68, 0
2, 54120, Note_on_c, 0, 66, 127
2, 54240, Note_on_c, 0, 66, 0
2, 54240, Note_on_c, 0, 65, 127
2, 54360, Note_on_c, 0, 65, 0
2, 54360, Note_on_c, 0, 64, 101
2, 54480, Note_on_c, 0, 64, 0
2, 54480, Control_c, 0, 64, 127
2, 54480, Note_on_c, 0, 76, 101
2, 54540, Note_on_c, 0, 76, 0
2, 54540, Note_on_c, 0, 80, 101
2, 54600, Note_on_c, 0, 80, 0
2, 54600, Note_on_c, 0, 81, 101
2, 54660, Note_on_c, 0, 81, 0
2, 54660, Note_on_c, 0, 83, 101
2, 54720, Note_on_c, 0, 83, 0
2, 54720, Control_c, 0, 64, 0
2, 54720, Note_on_c, 0, 85, 101
2, 54840, Note_on_c, 0, 85, 0
2, 54840, Note_on_c, 0, 73, 127
2, 54960, Note_on_c, 0, 73, 0
2, 54960, Note_on_c, 0, 69, 127
2, 55080, Note_on_c, 0, 69, 0
2, 55080, Note_on_c, 0, 68, 127
2, 55200, Note_on_c, 0, 68, 0
2, 55200, Note_on_c, 0, 66, 127
2, 55320, Note_on_c, 0, 66, 0
2, 55320, Note_on_c, 0, 64, 101
2, 55440, Note_on_c, 0, 64, 0
2, 55440, Note_on_c, 0, 81, 101
2, 55500, Note_on_c, 0, 81, 0
2, 55500, Note_on_c, 0, 82, 101
2, 55560, Note_on_c, 0, 82, 0
2, 55560, Note_on_c, 0, 84, 101
2, 55620, Note_on_c, 0, 84, 0
2, 55620, Note_on_c, 0, 85, 101
2, 55680, Note_on_c, 0, 85, 0
2, 55680, Note_on_c, 0, 86, 101
2, 55760, Note_on_c, 0, 86, 0
2, 55760, Note_on_c, 0, 85, 101
2, 55839, Note_on_c, 0, 85, 0
2, 55839, Note_on_c, 0, 84, 101
2, 55920, Note_on_c, 0, 84, 0
2, 55920, Note_on_c, 0, 82, 101
2, 56000, Note_on_c, 0, 82, 0
2, 56000, Note_on_c, 0, 84, 101
2, 56079, Note_on_c, 0, 84, 0
2, 56079, Note_on_c, 0, 85, 101
2, 56160, Note_on_c, 0, 85, 0
2, 56160, Note_on_c, 0, 86, 101
2, 56240, Note_on_c, 0, 86, 0
2, 56240, Note_on_c, 0, 85, 101
2, 56319, Note_on_c, 0, 85, 0
2, 56319, Note_on_c, 0, 84, 101
2, 56400, Note_on_c, 0, 84, 0
2, 56400, Note_on_c, 0, 82, 101
2, 56480, Note_on_c, 0, 82, 0
2, 56480, Note_on_c, 0, 84, 101
2, 56559, Note_on_c, 0, 84, 0
2, 56559, Note_on_c, 0, 85, 101
2, 56640, Note_on_c, 0, 85, 0
2, 56640, Note_on_c, 0, 86, 101
2, 56720, Note_on_c, 0, 86, 0
2, 56720, Note_on_c, 0, 85, 101
2, 56799, Note_on_c, 0, 85, 0
2, 56799, Note_on_c, 0, 84, 101
2, 56880, Note_on_c, 0, 84, 0
2, 56880, Note_on_c, 0, 82, 101
2, 56960, Note_on_c, 0, 82, 0
2, 56960, Note_on_c, 0, 84, 101
2, 57039, Note_on_c, 0, 84, 0
2, 57039, Note_on_c, 0, 85, 101
2, 57120, Note_on_c, 0, 85, 0
2, 57120, Note_on_c, 0, 86, 101
2, 57200, Note_on_c, 0, 86, 0
2, 57200, Note_on_c, 0, 85, 101
2, 57279, Note_on_c, 0, 85, 0
2, 57279, Note_on_c, 0, 84, 101
2, 57360, Note_on_c, 0, 84, 0
2, 57360, Note_on_c, 0, 82, 101
2, 57440, Note_on_c, 0, 82, 0
2, 57440, Note_on_c, 0, 84, 101
2, 57519, Note_on_c, 0, 84, 0
2, 57519, Note_on_c, 0, 85, 101
2, 57600, Note_on_c, 0, 85, 0
2, 57840, Note_on_c, 0, 89, 101
2, 57920, Note_on_c, 0, 89, 0
2, 57920, Note_on_c, 0, 91, 101
2, 57999, Note_on_c, 0, 91, 0
2, 57999, Note_on_c, 0, 89, 101
2, 58080, Note_on_c, 0, 89, 0
2, 58080, Note_on_c, 0, 88, 101
2, 58160, Note_on_c, 0, 88, 0
2, 58160, Note_on_c, 0, 89, 101
2, 58239, Note_on_c, 0, 89, 0
2, 58239, Note_on_c, 0, 86, 101
2, 58320, Note_on_c, 0, 86, 0
2, 58320, Note_on_c, 0, 80, 101
2, 58400, Note_on_c, 0, 80, 0
2, 58400, Note_on_c, 0, 81, 101
2, 58479, Note_on_c, 0, 81, 0
2, 58479, Note_on_c, 0, 80, 101
2, 58560, Note_on_c, 0, 80, 0
2, 58560, Note_on_c, 0, 81, 101
2, 58640, Note_on_c, 0, 81, 0
2, 58640, Note_on_c, 0, 82, 101
2, 58719, Note_on_c, 0, 82, 0
2, 58719, Note_on_c, 0, 81, 101
2, 58800, Note_on_c, 0, 81, 0
2, 58800, Note_on_c, 0, 89, 101
2, 58880, Note_on_c, 0, 89, 0
2, 58880, Note_on_c, 0, 91, 101
2, 58959, Note_on_c, 0, 91, 0
2, 58959, Note_on_c, 0, 89, 101
2, 59040, Note_on_c, 0, 89, 0
2, 59040, Note_on_c, 0, 88, 101
2, 59120, Note_on_c, 0, 88, 0
2, 59120, Note_on_c, 0, 89, 101
2, 59199, Note_on_c, 0, 89, 0
2, 59199, Note_on_c, 0, 86, 101
2, 59280, Note_on_c, 0, 86, 0
2, 59280, Note_on_c, 0, 80, 101
2, 59360, Note_on_c, 0, 80, 0
2, 59360, Note_on_c, 0, 81, 101
2, 59439, Note_on_c, 0, 81, 0
2, 59439, Note_on_c, 0, 80, 101
2, 59520, Note_on_c, 0, 80, 0
2, 59520, Note_on_c, 0, 81, 101
2, 59640, Note_on_c, 0, 81, 0
2, 59640, Note_on_c, 0, 89, 101
2, 59760, Note_on_c, 0, 89, 0
2, 59760, Note_on_c, 0, 88, 101
2, 59880, Note_on_c, 0, 88, 0
2, 59880, Note_on_c, 0, 80, 101
2, 60000, Note_on_c, 0, 80, 0
2, 60000, Note_on_c, 0, 81, 101
2, 60120, Note_on_c, 0, 81, 0
2, 60120, Note_on_c, 0, 89, 101
2, 60240, Note_on_c, 0, 89, 0
2, 60240, Note_on_c, 0, 88, 101
2, 60360, Note_on_c, 0, 88, 0
2, 60360, Note_on_c, 0, 80, 101
2, 60480, Note_on_c, 0, 80, 0
2, 60480, Note_on_c, 0, 81, 101
2, 60600, Note_on_c, 0, 81, 0
2, 60600, Note_on_c, 0, 89, 101
2, 60720, Note_on_c, 0, 89, 0
2, 60720, Note_on_c, 0, 88, 101
2, 60840, Note_on_c, 0, 88, 0
2, 60840, Note_on_c, 0, 80, 101
2, 60960, Note_on_c, 0, 80, 0
2, 60960, Note_on_c, 0, 81, 101
2, 61080, Note_on_c, 0, 81, 0
2, 61080, Note_on_c, 0, 89, 101
2, 61200, Note_on_c, 0, 89, 0
2, 61200, Note_on_c, 0, 88, 101
2, 61320, Note_on_c, 0, 88, 0
2, 61320, Note_on_c, 0, 80, 101
2, 61440, Note_on_c, 0, 80, 0
2, 61440, Note_on_c, 0, 81, 101
2, 61680, Note_on_c, 0, 81, 0
2, 61680, Note_on_c, 0, 73, 101
2, 61680, Note_on_c, 0, 76, 101
2, 61680, Note_on_c, 0, 81, 101
2, 61680, Note_on_c, 0, 85, 101
2, 61920, Note_on_c, 0, 85, 0
2, 61920, Note_on_c, 0, 73, 0
2, 61920, Note_on_c, 0, 76, 0
2, 61920, Note_on_c, 0, 81, 0
2, 61920, Note_on_c, 0, 69, 101
2, 62160, Note_on_c, 0, 69, 0
2, 62160, Note_on_c, 0, 73, 101
2, 62160, Note_on_c, 0, 76, 101
2, 62160, Note_on_c, 0, 81, 101
2, 62160, Note_on_c, 0, 85, 101
2, 62400, Note_on_c, 0, 85, 0
2, 62400, Note_on_c, 0, 73, 0
2, 62400, Note_on_c, 0, 76, 0
2, 62400, Note_on_c, 0, 81, 0
2, 62400, Note_on_c, 0, 69, 101
2, 62640, Note_on_c, 0, 69, 0
2, 62640, Note_on_c, 0, 73, 101
2, 62640, Note_on_c, 0, 76, 101
2, 62640, Note_on_c, 0, 81, 101
2, 62640, Note_on_c, 0, 85, 101
2, 62880, Note_on_c, 0, 85, 0
2, 62880, Note_on_c, 0, 73, 0
2, 62880, Note_on_c, 0, 76, 0
2, 62880, Note_on_c, 0, 81, 0
2, 62880, Note_on_c, 0, 57, 127
2, 63360, Note_on_c, 0, 57, 0
2, 63360, Control_c, 0, 64, 127
2, 65760, Control_c, 0, 64, 0
2, 65760, End_track
3, 0, Start_track
3, 0, Title_t, "Grand Piano"
3, 0, Program_c, 0, 0
3, 0, Control_c, 0, 7, 115
3, 0, Control_c, 0, 10, 79
3, 48000, Note_on_c, 0, 81, 88
3, 48240, Note_on_c, 0, 81, 0
3, 48240, Note_on_c, 0, 80, 88
3, 48480, Note_on_c, 0, 80, 0
3, 48480, Note_on_c, 0, 78, 88
3, 48720, Note_on_c, 0, 78, 0
3, 48720, Note_on_c, 0, 77, 88
3, 48960, Note_on_c, 0, 77, 0
3, 49920, Note_on_c, 0, 78, 88
3, 50160, Note_on_c, 0, 78, 0
3, 50160, Note_on_c, 0, 76, 88
3, 50400, Note_on_c, 0, 76, 0
3, 50400, Note_on_c, 0, 74, 88
3, 50640, Note_on_c, 0, 74, 0
3, 50640, Note_on_c, 0, 73, 88
3, 50880, Note_on_c, 0, 73, 0
3, 50880, End_track
4, 0, Start_track
4, 0, Title_t, "Grand Piano"
4, 0, Program_c, 0, 0
4, 0, Control_c, 0, 7, 115
4, 0, Control_c, 0, 10, 41
4, 0, Note_on_c, 0, 45, 49
4, 0, Note_on_c, 0, 52, 49
4, 0, Note_on_c, 0, 61, 49
4, 47, Note_on_c, 0, 61, 0
4, 47, Note_on_c, 0, 52, 0
4, 47, Note_on_c, 0, 45, 0
4, 240, Note_on_c, 0, 57, 49
4, 240, Note_on_c, 0, 61, 49
4, 240, Note_on_c, 0, 64, 49
4, 720, Note_on_c, 0, 64, 0
4, 720, Note_on_c, 0, 61, 0
4, 720, Note_on_c, 0, 57, 0
4, 720, Note_on_c, 0, 60, 49
4, 720, Note_on_c, 0, 63, 49
4, 840, Note_on_c, 0, 63, 0
4, 840, Note_on_c, 0, 60, 0
4, 840, Note_on_c, 0, 66, 49
4, 960, Note_on_c, 0, 66, 0
4, 960, Note_on_c, 0, 57, 49
4, 960, Note_on_c, 0, 61, 49
4, 960, Note_on_c, 0, 64, 49
4, 1200, Note_on_c, 0, 64, 0
4, 1200, Note_on_c, 0, 61, 0
4, 1200, Note_on_c, 0, 57, 0
4, 1200, Note_on_c, 0, 52, 49
4, 1200, Note_on_c, 0, 57, 49
4, 1200, Note_on_c, 0, 61, 49
4, 1247, Note_on_c, 0, 61, 0
4, 1247, Note_on_c, 0, 57, 0
4, 1247, Note_on_c, 0, 52, 0
4, 1440, Note_on_c, 0, 57, 49
4, 1440, Note_on_c, 0, 61, 49
4, 1440, Note_on_c, 0, 64, 49
4, 1487, Note_on_c, 0, 64, 0
4, 1487, Note_on_c, 0, 61, 0
4, 1487, Note_on_c, 0, 57, 0
4, 1680, Note_on_c, 0, 61, 49
4, 1680, Note_on_c, 0, 64, 49
4, 1680, Note_on_c, 0, 69, 49
4, 1727, Note_on_c, 0, 69, 0
4, 1727, Note_on_c, 0, 64, 0
4, 1727, Note_on_c, 0, 61, 0
4, 1920, Note_on_c, 0, 59, 49
4, 2160, Note_on_c, 0, 59, 0
4, 2160, Note_on_c, 0, 62, 49
4, 2160, Note_on_c, 0, 64, 49
4, 2160, Note_on_c, 0, 68, 49
4, 2207, Note_on_c, 0, 68, 0
4, 2207, Note_on_c, 0, 64, 0
4, 2207, Note_on_c, 0, 62, 0
4, 2400, Note_on_c, 0, 57, 49
4, 2640, Note_on_c, 0, 57, 0
4, 2640, Note_on_c, 0, 61, 49
4, 2640, Note_on_c, 0, 64, 49
4, 2640, Note_on_c, 0, 69, 49
4, 2687, Note_on_c, 0, 69, 0
4, 2687, Note_on_c, 0, 64, 0
4, 2687, Note_on_c, 0, 61, 0
4, 2880, Note_on_c, 0, 52, 49
4, 3120, Note_on_c, 0, 52, 0
4, 3120, Note_on_c, 0, 56, 49
4, 3120, Note_on_c, 0, 59, 49
4, 3120, Note_on_c, 0, 64, 49
4, 3167, Note_on_c, 0, 64, 0
4, 3167, Note_on_c, 0, 59, 0
4, 3167, Note_on_c, 0, 56, 0
4, 3360, Note_on_c, 0, 56, 49
4, 3360, Note_on_c, 0, 59, 49
4, 3360, Note_on_c, 0, 64, 49
4, 3407, Note_on_c, 0, 64, 0
4, 3407, Note_on_c, 0, 59, 0
4, 3407, Note_on_c, 0, 56, 0
4, 3600, Note_on_c, 0, 52, 49
4, 3840, Note_on_c, 0, 52, 0
4, 3840, Note_on_c, 0, 45, 49
4, 3840, Note_on_c, 0, 52, 49
4, 3840, Note_on_c, 0, 61, 49
4, 3887, Note_on_c, 0, 61, 0
4, 3887, Note_on_c, 0, 52, 0
4, 3887, Note_on_c, 0, 45, 0
4, 4080, Note_on_c, 0, 57, 49
4, 4080, Note_on_c, 0, 61, 49
4, 4080, Note_on_c, 0, 64, 49
4, 4560, Note_on_c, 0, 64, 0
4, 4560, Note_on_c, 0, 61, 0
4, 4560, Note_on_c, 0, 57, 0
4, 4560, Note_on_c, 0, 60, 49
4, 4560, Note_on_c, 0, 63, 49
4, 4680, Note_on_c, 0, 63, 0
4, 4680, Note_on_c, 0, 60, 0
4, 4680, Note_on_c, 0, 66, 49
4, 4800, Note_on_c, 0, 66, 0
4, 4800, Note_on_c, 0, 57, 49
4, 4800, Note_on_c, 0, 61, 49
4, 4800, Note_on_c, 0, 64, 49
4, 5040, Note_on_c, 0, 64, 0
4, 5040, Note_on_c, 0, 61, 0
4, 5040, Note_on_c, 0, 57, 0
4, 5040, Note_on_c, 0, 52, 49
4, 5040, Note_on_c, 0, 57, 49
4, 5040, Note_on_c, 0, 61, 49
4, 5087, Note_on_c, 0, 61, 0
4, 5087, Note_on_c, 0, 57, 0
4, 5087, Note_on_c, 0, 52, 0
4, 5280, Note_on_c, 0, 57, 49
4, 5280, Note_on_c, 0, 61, 49
4, 5280, Note_on_c, 0, 64, 49
4, 5327, Note_on_c, 0, 64, 0
4, 5327, Note_on_c, 0, 61, 0
4, 5327, Note_on_c, 0, 57, 0
4, 5520, Note_on_c, 0, 61, 49
4, 5520, Note_on_c, 0, 64, 49
4, 5520, Note_on_c, 0, 69, 49
4, 5567, Note_on_c, 0, 69, 0
4, 5567, Note_on_c, 0, 64, 0
4, 5567, Note_on_c, 0, 61, 0
4, 5760, Note_on_c, 0, 56, 49
4, 6000, Note_on_c, 0, 56, 0
4, 6000, Note_on_c, 0, 59, 49
4, 6000, Note_on_c, 0, 64, 49
4, 6047, Note_on_c, 0, 64, 0
4, 6047, Note_on_c, 0, 59, 0
4, 6240, Note_on_c, 0, 54, 49
4, 6480, Note_on_c, 0, 54, 0
4, 6480, Note_on_c, 0, 59, 49
4, 6480, Note_on_c, 0, 63, 49
4, 6527, Note_on_c, 0, 63, 0
4, 6527, Note_on_c, 0, 59, 0
4, 6960, Note_on_c, 0, 47, 49
4, 6960, Note_on_c, 0, 54, 49
4, 6960, Note_on_c, 0, 63, 49
4, 7007, Note_on_c, 0, 63, 0
4, 7007, Note_on_c, 0, 54, 0
4, 7007, Note_on_c, 0, 47, 0
4, 7200, Note_on_c, 0, 52, 49
4, 7200, Note_on_c, 0, 56, 49
4, 7200, Note_on_c, 0, 59, 49
4, 7200, Note_on_c, 0, 64, 49
4, 7247, Note_on_c, 0, 64, 0
4, 7247, Note_on_c, 0, 52, 0
4, 7247, Note_on_c, 0, 56, 0
4, 7247, Note_on_c, 0, 59, 0
4, 7440, Note_on_c, 0, 56, 49
4, 7440, Note_on_c, 0, 59, 49
4, 7440, Note_on_c, 0, 64, 49
4, 7487, Note_on_c, 0, 64, 0
4, 7487, Note_on_c, 0, 59, 0
4, 7487, Note_on_c, 0, 56, 0
4, 7680, Note_on_c, 0, 56, 49
4, 7920, Note_on_c, 0, 56, 0
4, 7920, Note_on_c, 0, 59, 49
4, 7920, Note_on_c, 0, 64, 49
4, 7967, Note_on_c, 0, 64, 0
4, 7967, Note_on_c, 0, 59, 0
4, 8160, Note_on_c, 0, 54, 49
4, 8400, Note_on_c, 0, 54, 0
4, 8400, Note_on_c, 0, 59, 49
4, 8400, Note_on_c, 0, 63, 49
4, 8447, Note_on_c, 0, 63, 0
4, 8447, Note_on_c, 0, 59, 0
4, 8880, Note_on_c, 0, 47, 49
4, 8880, Note_on_c, 0, 54, 49
4, 8880, Note_on_c, 0, 63, 49
4, 8927, Note_on_c, 0, 63, 0
4, 8927, Note_on_c, 0, 54, 0
4, 8927, Note_on_c, 0, 47, 0
4, 9120, Note_on_c, 0, 52, 49
4, 9120, Note_on_c, 0, 56, 49
4, 9120, Note_on_c, 0, 59, 49
4, 9120, Note_on_c, 0, 64, 49
4, 9167, Note_on_c, 0, 64, 0
4, 9167, Note_on_c, 0, 52, 0
4, 9167, Note_on_c, 0, 56, 0
4, 9167, Note_on_c, 0, 59, 0
4, 9360, Note_on_c, 0, 56, 49
4, 9360, Note_on_c, 0, 59, 49
4, 9360, Note_on_c, 0, 64, 49
4, 9407, Note_on_c, 0, 64, 0
4, 9407, Note_on_c, 0, 59, 0
4, 9407, Note_on_c, 0, 56, 0
4, 9600, Note_on_c, 0, 59, 75
4, 10080, Note_on_c, 0, 59, 0
4, 10080, Note_on_c, 0, 61, 75
4, 10560, Note_on_c, 0, 61, 0
4, 10560, Note_on_c, 0, 63, 88
4, 11040, Note_on_c, 0, 63, 0
4, 11040, Note_on_c, 0, 64, 88
4, 11520, Note_on_c, 0, 64, 0
4, 11520, Note_on_c, 0, 69, 88
4, 12000, Note_on_c, 0, 69, 0
4, 12000, Note_on_c, 0, 68, 88
4, 12480, Note_on_c, 0, 68, 0
4, 12480, Note_on_c, 0, 66, 88
4, 12960, Note_on_c, 0, 66, 0
4, 12960, Note_on_c, 0, 64, 88
4, 13440, Note_on_c, 0, 64, 0
4, 14160, Note_on_c, 0, 53, 49
4, 14160, Note_on_c, 0, 59, 49
4, 14207, Note_on_c, 0, 59, 0
4, 14207, Note_on_c, 0, 53, 0
4, 14400, Note_on_c, 0, 54, 49
4, 14400, Note_on_c, 0, 59, 49
4, 14447, Note_on_c, 0, 59, 0
4, 14447, Note_on_c, 0, 54, 0
4, 14640, Note_on_c, 0, 53, 49
4, 14640, Note_on_c, 0, 59, 49
4, 14687, Note_on_c, 0, 59, 0
4, 14687, Note_on_c, 0, 53, 0
4, 14880, Note_on_c, 0, 52, 49
4, 14880, Note_on_c, 0, 59, 49
4, 14927, Note_on_c, 0, 59, 0
4, 14927, Note_on_c, 0, 52, 0
4, 16080, Note_on_c, 0, 53, 49
4, 16080, Note_on_c, 0, 59, 49
4, 16127, Note_on_c, 0, 59, 0
4, 16127, Note_on_c, 0, 53, 0
4, 16320, Note_on_c, 0, 54, 49
4, 16320, Note_on_c, 0, 59, 49
4, 16367, Note_on_c, 0, 59, 0
4, 16367, Note_on_c, 0, 54, 0
4, 16560, Note_on_c, 0, 53, 49
4, 16560, Note_on_c, 0, 59, 49
4, 16607, Note_on_c, 0, 59, 0
4, 16607, Note_on_c, 0, 53, 0
4, 16800, Note_on_c, 0, 52, 49
4, 16800, Note_on_c, 0, 59, 49
4, 16847, Note_on_c, 0, 59, 0
4, 16847, Note_on_c, 0, 52, 0
4, 17040, Note_on_c, 0, 40, 49
4, 17040, Note_on_c, 0, 44, 49
4, 17040, Note_on_c, 0, 47, 49
4, 17087, Note_on_c, 0, 47, 0
4, 17087, Note_on_c, 0, 44, 0
4, 17087, Note_on_c, 0, 40, 0
4, 18000, Note_on_c, 0, 53, 49
4, 18000, Note_on_c, 0, 59, 49
4, 18047, Note_on_c, 0, 59, 0
4, 18047, Note_on_c, 0, 53, 0
4, 18240, Note_on_c, 0, 54, 49
4, 18240, Note_on_c, 0, 59, 49
4, 18287, Note_on_c, 0, 59, 0
4, 18287, Note_on_c, 0, 54, 0
4, 18480, Note_on_c, 0, 53, 49
4, 18480, Note_on_c, 0, 59, 49
4, 18527, Note_on_c, 0, 59, 0
4, 18527, Note_on_c, 0, 53, 0
4, 18720, Note_on_c, 0, 52, 49
4, 18720, Note_on_c, 0, 59, 49
4, 18767, Note_on_c, 0, 59, 0
4, 18767, Note_on_c, 0, 52, 0
4, 19920, Note_on_c, 0, 53, 49
4, 19920, Note_on_c, 0, 59, 49
4, 19967, Note_on_c, 0, 59, 0
4, 19967, Note_on_c, 0, 53, 0
4, 20160, Note_on_c, 0, 54, 49
4, 20160, Note_on_c, 0, 59, 49
4, 20207, Note_on_c, 0, 59, 0
4, 20207, Note_on_c, 0, 54, 0
4, 20400, Note_on_c, 0, 53, 49
4, 20400, Note_on_c, 0, 59, 49
4, 20447, Note_on_c, 0, 59, 0
4, 20447, Note_on_c, 0, 53, 0
4, 20640, Note_on_c, 0, 52, 49
4, 20640, Note_on_c, 0, 59, 49
4, 20687, Note_on_c, 0, 59, 0
4, 20687, Note_on_c, 0, 52, 0
4, 20880, Note_on_c, 0, 40, 49
4, 20880, Note_on_c, 0, 44, 49
4, 20880, Note_on_c, 0, 47, 49
4, 20927, Note_on_c, 0, 47, 0
4, 20927, Note_on_c, 0, 44, 0
4, 20927, Note_on_c, 0, 40, 0
4, 21360, Note_on_c, 0, 40, 49
4, 21360, Note_on_c, 0, 44, 49
4, 21360, Note_on_c, 0, 47, 49
4, 21600, Note_on_c, 0, 47, 0
4, 21600, Note_on_c, 0, 44, 0
4, 21600, Note_on_c, 0, 40, 0
4, 21840, Note_on_c, 0, 40, 49
4, 21840, Note_on_c, 0, 44, 49
4, 21840, Note_on_c, 0, 47, 49
4, 22080, Note_on_c, 0, 47, 0
4, 22080, Note_on_c, 0, 44, 0
4, 22080, Note_on_c, 0, 40, 0
4, 22320, Note_on_c, 0, 40, 49
4, 22320, Note_on_c, 0, 44, 49
4, 22320, Note_on_c, 0, 47, 49
4, 22560, Note_on_c, 0, 47, 0
4, 22560, Note_on_c, 0, 44, 0
4, 22560, Note_on_c, 0, 40, 0
4, 22800, Note_on_c, 0, 40, 49
4, 22800, Note_on_c, 0, 44, 49
4, 22800, Note_on_c, 0, 47, 49
4, 23040, Note_on_c, 0, 47, 0
4, 23040, Note_on_c, 0, 44, 0
4, 23040, Note_on_c, 0, 40, 0
4, 23280, Control_c, 0, 64, 127
4, 23280, Note_on_c, 0, 54, 88
4, 23319, Note_on_c, 0, 54, 0
4, 23319, Note_on_c, 0, 56, 88
4, 23360, Note_on_c, 0, 56, 0
4, 23360, Note_on_c, 0, 57, 88
4, 23400, Note_on_c, 0, 57, 0
4, 23400, Note_on_c, 0, 59, 88
4, 23439, Note_on_c, 0, 59, 0
4, 23439, Note_on_c, 0, 61, 88
4, 23480, Note_on_c, 0, 61, 0
4, 23480, Control_c, 0, 64, 0
4, 23480, Note_on_c, 0, 62, 88
4, 23520, Note_on_c, 0, 62, 0
4, 23520, Note_on_c, 0, 64, 114
4, 24960, Note_on_c, 0, 64, 0
4, 25200, Note_on_c, 0, 47, 49
4, 25200, Note_on_c, 0, 52, 49
4, 25200, Note_on_c, 0, 56, 49
4, 25440, Note_on_c, 0, 56, 0
4, 25440, Note_on_c, 0, 52, 0
4, 25440, Note_on_c, 0, 47, 0
4, 25680, Note_on_c, 0, 47, 49
4, 25680, Note_on_c, 0, 52, 49
4, 25680, Note_on_c, 0, 56, 49
4, 25920, Note_on_c, 0, 56, 0
4, 25920, Note_on_c, 0, 52, 0
4, 25920, Note_on_c, 0, 47, 0
4, 26160, Note_on_c, 0, 52, 49
4, 26160, Note_on_c, 0, 56, 49
4, 26160, Note_on_c, 0, 59, 49
4, 26400, Note_on_c, 0, 59, 0
4, 26400, Note_on_c, 0, 56, 0
4, 26400, Note_on_c, 0, 52, 0
4, 26640, Note_on_c, 0, 52, 49
4, 26640, Note_on_c, 0, 56, 49
4, 26640, Note_on_c, 0, 59, 49
4, 26880, Note_on_c, 0, 59, 0
4, 26880, Note_on_c, 0, 56, 0
4, 26880, Note_on_c, 0, 52, 0
4, 26880, Note_on_c, 0, 61, 49
4, 26880, Note_on_c, 0, 64, 49
4, 26880, Note_on_c, 0, 69, 49
4, 27120, Note_on_c, 0, 69, 0
4, 27120, Note_on_c, 0, 64, 0
4, 27120, Note_on_c, 0, 61, 0
4, 27120, Note_on_c, 0, 45, 49
4, 27120, Note_on_c, 0, 52, 49
4, 27120, Note_on_c, 0, 57, 49
4, 27360, Note_on_c, 0, 57, 0
4, 27360, Note_on_c, 0, 52, 0
4, 27360, Note_on_c, 0, 45, 0
4, 27360, Note_on_c, 0, 61, 49
4, 27360, Note_on_c, 0, 64, 49
4, 27360, Note_on_c, 0, 69, 49
4, 27600, Note_on_c, 0, 69, 0
4, 27600, Note_on_c, 0, 64, 0
4, 27600, Note_on_c, 0, 61, 0
4, 27600, Note_on_c, 0, 45, 49
4, 27600, Note_on_c, 0, 51, 49
4, 27600, Note_on_c, 0, 60, 49
4, 27840, Note_on_c, 0, 60, 0
4, 27840, Note_on_c, 0, 51, 0
4, 27840, Note_on_c, 0, 45, 0
4, 27840, Note_on_c, 0, 61, 49
4, 27840, Note_on_c, 0, 64, 49
4, 27840, Note_on_c, 0, 69, 49
4, 28080, Note_on_c, 0, 69, 0
4, 28080, Note_on_c, 0, 64, 0
4, 28080, Note_on_c, 0, 61, 0
4, 28080, Note_on_c, 0, 45, 49
4, 28080, Note_on_c, 0, 52, 49
4, 28080, Note_on_c, 0, 57, 49
4, 28320, Note_on_c, 0, 57, 0
4, 28320, Note_on_c, 0, 52, 0
4, 28320, Note_on_c, 0, 45, 0
4, 28320, Note_on_c, 0, 61, 49
4, 28320, Note_on_c, 0, 64, 49
4, 28320, Note_on_c, 0, 69, 49
4, 28560, Note_on_c, 0, 69, 0
4, 28560, Note_on_c, 0, 64, 0
4, 28560, Note_on_c, 0, 61, 0
4, 28560, Note_on_c, 0, 45, 49
4, 28560, Note_on_c, 0, 52, 49
4, 28560, Note_on_c, 0, 57, 49
4, 28800, Note_on_c, 0, 57, 0
4, 28800, Note_on_c, 0, 52, 0
4, 28800, Note_on_c, 0, 45, 0
4, 28800, Note_on_c, 0, 59, 49
4, 28800, Note_on_c, 0, 64, 49
4, 28800, Note_on_c, 0, 68, 49
4, 29040, Note_on_c, 0, 68, 0
4, 29040, Note_on_c, 0, 64, 0
4, 29040, Note_on_c, 0, 59, 0
4, 29040, Note_on_c, 0, 47, 49
4, 29040, Note_on_c, 0, 56, 49
4, 29040, Note_on_c, 0, 59, 49
4, 29280, Note_on_c, 0, 59, 0
4, 29280, Note_on_c, 0, 56, 0
4, 29280, Note_on_c, 0, 47, 0
4, 29280, Note_on_c, 0, 61, 49
4, 29280, Note_on_c, 0, 64, 49
4, 29280, Note_on_c, 0, 69, 49
4, 29520, Note_on_c, 0, 69, 0
4, 29520, Note_on_c, 0, 64, 0
4, 29520, Note_on_c, 0, 61, 0
4, 29520, Note_on_c, 0, 45, 49
4, 29520, Note_on_c, 0, 52, 49
4, 29520, Note_on_c, 0, 57, 49
4, 29760, Note_on_c, 0, 57, 0
4, 29760, Note_on_c, 0, 52, 0
4, 29760, Note_on_c, 0, 45, 0
4, 29760, Note_on_c, 0, 59, 49
4, 29760, Note_on_c, 0, 64, 49
4, 29760, Note_on_c, 0, 68, 49
4, 30000, Note_on_c, 0, 68, 0
4, 30000, Note_on_c, 0, 64, 0
4, 30000, Note_on_c, 0, 59, 0
4, 30000, Note_on_c, 0, 52, 49
4, 30000, Note_on_c, 0, 56, 49
4, 30000, Note_on_c, 0, 59, 49
4, 30240, Note_on_c, 0, 59, 0
4, 30240, Note_on_c, 0, 56, 0
4, 30240, Note_on_c, 0, 52, 0
4, 30240, Note_on_c, 0, 59, 49
4, 30240, Note_on_c, 0, 64, 49
4, 30240, Note_on_c, 0, 68, 49
4, 30480, Note_on_c, 0, 68, 0
4, 30480, Note_on_c, 0, 64, 0
4, 30480, Note_on_c, 0, 59, 0
4, 30480, Note_on_c, 0, 52, 49
4, 30480, Note_on_c, 0, 56, 49
4, 30480, Note_on_c, 0, 59, 49
4, 30720, Note_on_c, 0, 59, 0
4, 30720, Note_on_c, 0, 56, 0
4, 30720, Note_on_c, 0, 52, 0
4, 30720, Note_on_c, 0, 61, 49
4, 30720, Note_on_c, 0, 64, 49
4, 30720, Note_on_c, 0, 69, 49
4, 30960, Note_on_c, 0, 69, 0
4, 30960, Note_on_c, 0, 64, 0
4, 30960, Note_on_c, 0, 61, 0
4, 30960, Note_on_c, 0, 45, 49
4, 30960, Note_on_c, 0, 52, 49
4, 30960, Note_on_c, 0, 57, 49
4, 31200, Note_on_c, 0, 57, 0
4, 31200, Note_on_c, 0, 52, 0
4, 31200, Note_on_c, 0, 45, 0
4, 31200, Note_on_c, 0, 61, 49
4, 31200, Note_on_c, 0, 64, 49
4, 31200, Note_on_c, 0, 69, 49
4, 31440, Note_on_c, 0, 69, 0
4, 31440, Note_on_c, 0, 64, 0
4, 31440, Note_on_c, 0, 61, 0
4, 31440, Note_on_c, 0, 45, 49
4, 31440, Note_on_c, 0, 51, 49
4, 31440, Note_on_c, 0, 60, 49
4, 31680, Note_on_c, 0, 60, 0
4, 31680, Note_on_c, 0, 51, 0
4, 31680, Note_on_c, 0, 45, 0
4, 31680, Note_on_c, 0, 61, 49
4, 31680, Note_on_c, 0, 64, 49
4, 31680, Note_on_c, 0, 69, 49
4, 31920, Note_on_c, 0, 69, 0
4, 31920, Note_on_c, 0, 64, 0
4, 31920, Note_on_c, 0, 61, 0
4, 31920, Note_on_c, 0, 45, 49
4, 31920, Note_on_c, 0, 52, 49
4, 31920, Note_on_c, 0, 57, 49
4, 32160, Note_on_c, 0, 57, 0
4, 32160, Note_on_c, 0, 52, 0
4, 32160, Note_on_c, 0, 45, 0
4, 32160, Note_on_c, 0, 61, 49
4, 32160, Note_on_c, 0, 64, 49
4, 32160, Note_on_c, 0, 69, 49
4, 32400, Note_on_c, 0, 69, 0
4, 32400, Note_on_c, 0, 64, 0
4, 32400, Note_on_c, 0, 61, 0
4, 32400, Note_on_c, 0, 45, 49
4, 32400, Note_on_c, 0, 52, 49
4, 32400, Note_on_c, 0, 57, 49
4, 32640, Note_on_c, 0, 57, 0
4, 32640, Note_on_c, 0, 52, 0
4, 32640, Note_on_c, 0, 45, 0
4, 32640, Note_on_c, 0, 56, 49
4, 32640, Note_on_c, 0, 59, 49
4, 32640, Note_on_c, 0, 64, 49
4, 32880, Note_on_c, 0, 64, 0
4, 32880, Note_on_c, 0, 59, 0
4, 32880, Note_on_c, 0, 56, 0
4, 32880, Note_on_c, 0, 44, 49
4, 32880, Note_on_c, 0, 52, 49
4, 33120, Note_on_c, 0, 52, 0
4, 33120, Note_on_c, 0, 44, 0
4, 33120, Note_on_c, 0, 54, 49
4, 33120, Note_on_c, 0, 59, 49
4, 33120, Note_on_c, 0, 63, 49
4, 33360, Note_on_c, 0, 63, 0
4, 33360, Note_on_c, 0, 59, 0
4, 33360, Note_on_c, 0, 54, 0
4, 33360, Note_on_c, 0, 42, 49
4, 33360, Note_on_c, 0, 51, 49
4, 33600, Note_on_c, 0, 51, 0
4, 33600, Note_on_c, 0, 42, 0
4, 33600, Note_on_c, 0, 54, 49
4, 33600, Note_on_c, 0, 59, 49
4, 33600, Note_on_c, 0, 63, 49
4, 33840, Note_on_c, 0, 63, 0
4, 33840, Note_on_c, 0, 59, 0
4, 33840, Note_on_c, 0, 54, 0
4, 33840, Note_on_c, 0, 42, 49
4, 33840, Note_on_c, 0, 51, 49
4, 34080, Note_on_c, 0, 51, 0
4, 34080, Note_on_c, 0, 42, 0
4, 34080, Note_on_c, 0, 56, 49
4, 34080, Note_on_c, 0, 59, 49
4, 34080, Note_on_c, 0, 64, 49
4, 34320, Note_on_c, 0, 64, 0
4, 34320, Note_on_c, 0, 59, 0
4, 34320, Note_on_c, 0, 56, 0
4, 34320, Note_on_c, 0, 40, 49
4, 34320, Note_on_c, 0, 47, 49
4, 34320, Note_on_c, 0, 52, 49
4, 34560, Note_on_c, 0, 52, 0
4, 34560, Note_on_c, 0, 47, 0
4, 34560, Note_on_c, 0, 40, 0
4, 34560, Note_on_c, 0, 56, 49
4, 34560, Note_on_c, 0, 59, 49
4, 34560, Note_on_c, 0, 64, 49
4, 34800, Note_on_c, 0, 64, 0
4, 34800, Note_on_c, 0, 59, 0
4, 34800, Note_on_c, 0, 56, 0
4, 34800, Note_on_c, 0, 44, 49
4, 34800, Note_on_c, 0, 52, 49
4, 35040, Note_on_c, 0, 52, 0
4, 35040, Note_on_c, 0, 44, 0
4, 35040, Note_on_c, 0, 54, 49
4, 35040, Note_on_c, 0, 59, 49
4, 35040, Note_on_c, 0, 63, 49
4, 35280, Note_on_c, 0, 63, 0
4, 35280, Note_on_c, 0, 59, 0
4, 35280, Note_on_c, 0, 54, 0
4, 35280, Note_on_c, 0, 42, 49
4, 35280, Note_on_c, 0, 51, 49
4, 35520, Note_on_c, 0, 51, 0
4, 35520, Note_on_c, 0, 42, 0
4, 35520, Note_on_c, 0, 54, 49
4, 35520, Note_on_c, 0, 59, 49
4, 35520, Note_on_c, 0, 63, 49
4, 35760, Note_on_c, 0, 63, 0
4, 35760, Note_on_c, 0, 59, 0
4, 35760, Note_on_c, 0, 54, 0
4, 35760, Note_on_c, 0, 42, 49
4, 35760, Note_on_c, 0, 51, 49
4, 36000, Note_on_c, 0, 51, 0
4, 36000, Note_on_c, 0, 42, 0
4, 36000, Note_on_c, 0, 56, 49
4, 36000, Note_on_c, 0, 59, 49
4, 36000, Note_on_c, 0, 64, 49
4, 36240, Note_on_c, 0, 64, 0
4, 36240, Note_on_c, 0, 59, 0
4, 36240, Note_on_c, 0, 56, 0
4, 36240, Note_on_c, 0, 40, 49
4, 36240, Note_on_c, 0, 47, 49
4, 36240, Note_on_c, 0, 52, 49
4, 36480, Note_on_c, 0, 52, 0
4, 36480, Note_on_c, 0, 47, 0
4, 36480, Note_on_c, 0, 40, 0
4, 36480, Note_on_c, 0, 59, 88
4, 36960, Note_on_c, 0, 59, 0
4, 36960, Note_on_c, 0, 61, 88
4, 37440, Note_on_c, 0, 61, 0
4, 37440, Note_on_c, 0, 63, 88
4, 37920, Note_on_c, 0, 63, 0
4, 37920, Note_on_c, 0, 64, 88
4, 38400, Note_on_c, 0, 64, 0
4, 38400, Note_on_c, 0, 69, 88
4, 38880, Note_on_c, 0, 69, 0
4, 38880, Note_on_c, 0, 68, 88
4, 39360, Note_on_c, 0, 68, 0
4, 39360, Note_on_c, 0, 66, 88
4, 39840, Note_on_c, 0, 66, 0
4, 39840, Note_on_c, 0, 64, 88
4, 40080, Note_on_c, 0, 64, 0
4, 40560, Note_on_c, 0, 52, 88
4, 40560, Note_on_c, 0, 56, 88
4, 40583, Note_on_c, 0, 56, 0
4, 40583, Note_on_c, 0, 52, 0
4, 40680, Note_on_c, 0, 54, 88
4, 40680, Note_on_c, 0, 57, 88
4, 40703, Note_on_c, 0, 57, 0
4, 40703, Note_on_c, 0, 54, 0
4, 40800, Note_on_c, 0, 56, 88
4, 40800, Note_on_c, 0, 59, 88
4, 40847, Note_on_c, 0, 59, 0
4, 40847, Note_on_c, 0, 56, 0
4, 41520, Note_on_c, 0, 56, 88
4, 41520, Note_on_c, 0, 59, 88
4, 41543, Note_on_c, 0, 59, 0
4, 41543, Note_on_c, 0, 56, 0
4, 41640, Note_on_c, 0, 57, 88
4, 41640, Note_on_c, 0, 61, 88
4, 41663, Note_on_c, 0, 61, 0
4, 41663, Note_on_c, 0, 57, 0
4, 41760, Note_on_c, 0, 59, 88
4, 41760, Note_on_c, 0, 62, 88
4, 41807, Note_on_c, 0, 62, 0
4, 41807, Note_on_c, 0, 59, 0
4, 42480, Note_on_c, 0, 59, 88
4, 42480, Note_on_c, 0, 62, 88
4, 42503, Note_on_c, 0, 62, 0
4, 42503, Note_on_c, 0, 59, 0
4, 42600, Note_on_c, 0, 61, 88
4, 42600, Note_on_c, 0, 64, 88
4, 42623, Note_on_c, 0, 64, 0
4, 42623, Note_on_c, 0, 61, 0
4, 42720, Note_on_c, 0, 62, 114
4, 42720, Note_on_c, 0, 66, 114
4, 43320, Note_on_c, 0, 66, 0
4, 43320, Note_on_c, 0, 62, 0
4, 43320, Note_on_c, 0, 61, 88
4, 43320, Note_on_c, 0, 64, 88
4, 43343, Note_on_c, 0, 64, 0
4, 43343, Note_on_c, 0, 61, 0
4, 43440, Note_on_c, 0, 59, 88
4, 43440, Note_on_c, 0, 62, 88
4, 43463, Note_on_c, 0, 62, 0
4, 43463, Note_on_c, 0, 59, 0
4, 43560, Note_on_c, 0, 57, 88
4, 43560, Note_on_c, 0, 61, 88
4, 43583, Note_on_c, 0, 61, 0
4, 43583, Note_on_c, 0, 57, 0
4, 43680, Note_on_c, 0, 56, 88
4, 43680, Note_on_c, 0, 59, 88
4, 43703, Note_on_c, 0, 59, 0
4, 43703, Note_on_c, 0, 56, 0
4, 43800, Note_on_c, 0, 54, 88
4, 43800, Note_on_c, 0, 57, 88
4, 43823, Note_on_c, 0, 57, 0
4, 43823, Note_on_c, 0, 54, 0
4, 43920, Note_on_c, 0, 52, 88
4, 43920, Note_on_c, 0, 56, 88
4, 43967, Note_on_c, 0, 56, 0
4, 43967, Note_on_c, 0, 52, 0
4, 44160, Note_on_c, 0, 40, 88
4, 44160, Note_on_c, 0, 44, 88
4, 44160, Note_on_c, 0, 47, 88
4, 44160, Note_on_c, 0, 52, 88
4, 44280, Note_on_c, 0, 52, 0
4, 44280, Note_on_c, 0, 40, 0
4, 44280, Note_on_c, 0, 44, 0
4, 44280, Note_on_c, 0, 47, 0
4, 44400, Note_on_c, 0, 52, 114
4, 44400, Note_on_c, 0, 56, 114
4, 44520, Note_on_c, 0, 56, 0
4, 44520, Note_on_c, 0, 52, 0
4, 44520, Note_on_c, 0, 54, 114
4, 44520, Note_on_c, 0, 57, 114
4, 44640, Note_on_c, 0, 57, 0
4, 44640, Note_on_c, 0, 54, 0
4, 44640, Note_on_c, 0, 56, 114
4, 44640, Note_on_c, 0, 59, 114
4, 44880, Note_on_c, 0, 59, 0
4, 44880, Note_on_c, 0, 56, 0
4, 45120, Note_on_c, 0, 45, 88
4, 45120, Note_on_c, 0, 49, 88
4, 45120, Note_on_c, 0, 52, 88
4, 45120, Note_on_c, 0, 57, 88
4, 45240, Note_on_c, 0, 57, 0
4, 45240, Note_on_c, 0, 45, 0
4, 45240, Note_on_c, 0, 49, 0
4, 45240, Note_on_c, 0, 52, 0
4, 45360, Note_on_c, 0, 54, 114
4, 45360, Note_on_c, 0, 57, 114
4, 45480, Note_on_c, 0, 57, 0
4, 45480, Note_on_c, 0, 54, 0
4, 45480, Note_on_c, 0, 56, 114
4, 45480, Note_on_c, 0, 59, 114
4, 45600, Note_on_c, 0, 59, 0
4, 45600, Note_on_c, 0, 56, 0
4, 45600, Note_on_c, 0, 57, 114
4, 45600, Note_on_c, 0, 61, 114
4, 45840, Note_on_c, 0, 61, 0
4, 45840, Note_on_c, 0, 57, 0
4, 46080, Note_on_c, 0, 40, 88
4, 46080, Note_on_c, 0, 44, 88
4, 46080, Note_on_c, 0, 47, 88
4, 46080, Note_on_c, 0, 52, 88
4, 46200, Note_on_c, 0, 52, 0
4, 46200, Note_on_c, 0, 40, 0
4, 46200, Note_on_c, 0, 44, 0
4, 46200, Note_on_c, 0, 47, 0
4, 46320, Note_on_c, 0, 52, 114
4, 46320, Note_on_c, 0, 56, 114
4, 46440, Note_on_c, 0, 56, 0
4, 46440, Note_on_c, 0, 52, 0
4, 46440, Note_on_c, 0, 54, 114
4, 46440, Note_on_c, 0, 57, 114
4, 46560, Note_on_c, 0, 57, 0
4, 46560, Note_on_c, 0, 54, 0
4, 46560, Note_on_c, 0, 56, 114
4, 46560, Note_on_c, 0, 59, 114
4, 46800, Note_on_c, 0, 59, 0
4, 46800, Note_on_c, 0, 56, 0
4, 47040, Note_on_c, 0, 45, 88
4, 47040, Note_on_c, 0, 49, 88
4, 47040, Note_on_c, 0, 52, 88
4, 47040, Note_on_c, 0, 57, 88
4, 47160, Note_on_c, 0, 57, 0
4, 47160, Note_on_c, 0, 45, 0
4, 47160, Note_on_c, 0, 49, 0
4, 47160, Note_on_c, 0, 52, 0
4, 47280, Note_on_c, 0, 54, 114
4, 47280, Note_on_c, 0, 57, 114
4, 47400, Note_on_c, 0, 57, 0
4, 47400, Note_on_c, 0, 54, 0
4, 47400, Note_on_c, 0, 56, 114
4, 47400, Note_on_c, 0, 59, 114
4, 47520, Note_on_c, 0, 59, 0
4, 47520, Note_on_c, 0, 56, 0
4, 47520, Note_on_c, 0, 57, 114
4, 47520, Note_on_c, 0, 61, 114
4, 47760, Note_on_c, 0, 61, 0
4, 47760, Note_on_c, 0, 57, 0
4, 48000, Note_on_c, 0, 39, 88
4, 48000, Note_on_c, 0, 42, 88
4, 48000, Note_on_c, 0, 51, 88
4, 48240, Note_on_c, 0, 51, 0
4, 48240, Note_on_c, 0, 42, 0
4, 48240, Note_on_c, 0, 39, 0
4, 48240, Note_on_c, 0, 41, 88
4, 48240, Note_on_c, 0, 44, 88
4, 48240, Note_on_c, 0, 53, 88
4, 48480, Note_on_c, 0, 53, 0
4, 48480, Note_on_c, 0, 44, 0
4, 48480, Note_on_c, 0, 41, 0
4, 48480, Note_on_c, 0, 42, 88
4, 48480, Note_on_c, 0, 45, 88
4, 48480, Note_on_c, 0, 54, 88
4, 48720, Note_on_c, 0, 54, 0
4, 48720, Note_on_c, 0, 45, 0
4, 48720, Note_on_c, 0, 42, 0
4, 48720, Note_on_c, 0, 44, 88
4, 48720, Note_on_c, 0, 47, 88
4, 48720, Note_on_c, 0, 56, 88
4, 48960, Note_on_c, 0, 56, 0
4, 48960, Note_on_c, 0, 47, 0
4, 48960, Note_on_c, 0, 44, 0
4, 48960, Note_on_c, 0, 45, 88
4, 48960, Note_on_c, 0, 49, 88
4, 48960, Note_on_c, 0, 57, 88
4, 49200, Note_on_c, 0, 57, 0
4, 49200, Note_on_c, 0, 49, 0
4, 49200, Note_on_c, 0, 45, 0
4, 49200, Note_on_c, 0, 49, 88
4, 49200, Note_on_c, 0, 56, 88
4, 49200, Note_on_c, 0, 61, 88
4, 49223, Note_on_c, 0, 61, 0
4, 49223, Note_on_c, 0, 56, 0
4, 49223, Note_on_c, 0, 49, 0
4, 49320, Note_on_c, 0, 54, 88
4, 49320, Note_on_c, 0, 57, 88
4, 49320, Note_on_c, 0, 61, 88
4, 49343, Note_on_c, 0, 61, 0
4, 49343, Note_on_c, 0, 57, 0
4, 49343, Note_on_c, 0, 54, 0
4, 49440, Note_on_c, 0, 49, 88
4, 49440, Note_on_c, 0, 56, 88
4, 49440, Note_on_c, 0, 61, 88
4, 49463, Note_on_c, 0, 61, 0
4, 49463, Note_on_c, 0, 56, 0
4, 49463, Note_on_c, 0, 49, 0
4, 49920, Note_on_c, 0, 35, 88
4, 49920, Note_on_c, 0, 38, 88
4, 49920, Note_on_c, 0, 47, 88
4, 50160, Note_on_c, 0, 47, 0
4, 50160, Note_on_c, 0, 38, 0
4, 50160, Note_on_c, 0, 35, 0
4, 50160, Note_on_c, 0, 37, 88
4, 50160, Note_on_c, 0, 40, 88
4, 50160, Note_on_c, 0, 49, 88
4, 50400, Note_on_c, 0, 49, 0
4, 50400, Note_on_c, 0, 40, 0
4, 50400, Note_on_c, 0, 37, 0
4, 50400, Note_on_c, 0, 38, 88
4, 50400, Note_on_c, 0, 42, 88
4, 50400, Note_on_c, 0, 50, 88
4, 50640, Note_on_c, 0, 50, 0
4, 50640, Note_on_c, 0, 42, 0
4, 50640, Note_on_c, 0, 38, 0
4, 50640, Note_on_c, 0, 40, 88
4, 50640, Note_on_c, 0, 43, 88
4, 50640, Note_on_c, 0, 52, 88
4, 50880, Note_on_c, 0, 52, 0
4, 50880, Note_on_c, 0, 43, 0
4, 50880, Note_on_c, 0, 40, 0
4, 50880, Note_on_c, 0, 42, 88
4, 50880, Note_on_c, 0, 45, 88
4, 50880, Note_on_c, 0, 54, 88
4, 51120, Note_on_c, 0, 54, 0
4, 51120, Note_on_c, 0, 45, 0
4, 51120, Note_on_c, 0, 42, 0
4, 51120, Note_on_c, 0, 45, 88
4, 51120, Note_on_c, 0, 52, 88
4, 51120, Note_on_c, 0, 57, 88
4, 51143, Note_on_c, 0, 57, 0
4, 51143, Note_on_c, 0, 52, 0
4, 51143, Note_on_c, 0, 45, 0
4, 51240, Note_on_c, 0, 50, 88
4, 51240, Note_on_c, 0, 54, 88
4, 51240, Note_on_c, 0, 57, 88
4, 51263, Note_on_c, 0, 57, 0
4, 51263, Note_on_c, 0, 54, 0
4, 51263, Note_on_c, 0, 50, 0
4, 51360, Note_on_c, 0, 45, 88
4, 51360, Note_on_c, 0, 52, 88
4, 51360, Note_on_c, 0, 57, 88
4, 51383, Note_on_c, 0, 57, 0
4, 51383, Note_on_c, 0, 52, 0
4, 51383, Note_on_c, 0, 45, 0
4, 51840, Note_on_c, 0, 40, 88
4, 51840, Note_on_c, 0, 44, 88
4, 51840, Note_on_c, 0, 47, 88
4, 51840, Note_on_c, 0, 52, 88
4, 51960, Note_on_c, 0, 52, 0
4, 51960, Note_on_c, 0, 40, 0
4, 51960, Note_on_c, 0, 44, 0
4, 51960, Note_on_c, 0, 47, 0
4, 52080, Note_on_c, 0, 52, 114
4, 52080, Note_on_c, 0, 56, 114
4, 52200, Note_on_c, 0, 56, 0
4, 52200, Note_on_c, 0, 52, 0
4, 52200, Note_on_c, 0, 54, 114
4, 52200, Note_on_c, 0, 57, 114
4, 52320, Note_on_c, 0, 57, 0
4, 52320, Note_on_c, 0, 54, 0
4, 52320, Note_on_c, 0, 56, 114
4, 52320, Note_on_c, 0, 59, 114
4, 52560, Note_on_c, 0, 59, 0
4, 52560, Note_on_c, 0, 56, 0
4, 52800, Note_on_c, 0, 45, 88
4, 52800, Note_on_c, 0, 49, 88
4, 52800, Note_on_c, 0, 52, 88
4, 52800, Note_on_c, 0, 57, 88
4, 52920, Note_on_c, 0, 57, 0
4, 52920, Note_on_c, 0, 45, 0
4, 52920, Note_on_c, 0, 49, 0
4, 52920, Note_on_c, 0, 52, 0
4, 53040, Note_on_c, 0, 54, 114
4, 53040, Note_on_c, 0, 57, 114
4, 53160, Note_on_c, 0, 57, 0
4, 53160, Note_on_c, 0, 54, 0
4, 53160, Note_on_c, 0, 56, 114
4, 53160, Note_on_c, 0, 59, 114
4, 53280, Note_on_c, 0, 59, 0
4, 53280, Note_on_c, 0, 56, 0
4, 53280, Note_on_c, 0, 57, 114
4, 53280, Note_on_c, 0, 61, 114
4, 53520, Note_on_c, 0, 61, 0
4, 53520, Note_on_c, 0, 57, 0
4, 53760, Note_on_c, 0, 40, 88
4, 53760, Note_on_c, 0, 44, 88
4, 53760, Note_on_c, 0, 47, 88
4, 53760, Note_on_c, 0, 52, 88
4, 53880, Note_on_c, 0, 52, 0
4, 53880, Note_on_c, 0, 40, 0
4, 53880, Note_on_c, 0, 44, 0
4, 53880, Note_on_c, 0, 47, 0
4, 54000, Note_on_c, 0, 52, 114
4, 54000, Note_on_c, 0, 56, 114
4, 54120, Note_on_c, 0, 56, 0
4, 54120, Note_on_c, 0, 52, 0
4, 54120, Note_on_c, 0, 54, 114
4, 54120, Note_on_c, 0, 57, 114
4, 54240, Note_on_c, 0, 57, 0
4, 54240, Note_on_c, 0, 54, 0
4, 54240, Note_on_c, 0, 56, 114
4, 54240, Note_on_c, 0, 59, 114
4, 54480, Note_on_c, 0, 59, 0
4, 54480, Note_on_c, 0, 56, 0
4, 54720, Note_on_c, 0, 45, 88
4, 54720, Note_on_c, 0, 49, 88
4, 54720, Note_on_c, 0, 52, 88
4, 54720, Note_on_c, 0, 57, 88
4, 54840, Note_on_c, 0, 57, 0
4, 54840, Note_on_c, 0, 45, 0
4, 54840, Note_on_c, 0, 49, 0
4, 54840, Note_on_c, 0, 52, 0
4, 54960, Note_on_c, 0, 54, 114
4, 54960, Note_on_c, 0, 57, 114
4, 55080, Note_on_c, 0, 57, 0
4, 55080, Note_on_c, 0, 54, 0
4, 55080, Note_on_c, 0, 56, 114
4, 55080, Note_on_c, 0, 59, 114
4, 55200, Note_on_c, 0, 59, 0
4, 55200, Note_on_c, 0, 56, 0
4, 55200, Note_on_c, 0, 57, 114
4, 55200, Note_on_c, 0, 61, 114
4, 55440, Note_on_c, 0, 61, 0
4, 55440, Note_on_c, 0, 57, 0
4, 55680, Note_on_c, 0, 62, 88
4, 55800, Note_on_c, 0, 62, 0
4, 55800, Note_on_c, 0, 64, 88
4, 55920, Note_on_c, 0, 64, 0
4, 55920, Note_on_c, 0, 50, 88
4, 55920, Note_on_c, 0, 58, 88
4, 55920, Note_on_c, 0, 65, 88
4, 56160, Note_on_c, 0, 65, 0
4, 56160, Note_on_c, 0, 58, 0
4, 56160, Note_on_c, 0, 50, 0
4, 56160, Note_on_c, 0, 62, 88
4, 56280, Note_on_c, 0, 62, 0
4, 56280, Note_on_c, 0, 64, 88
4, 56400, Note_on_c, 0, 64, 0
4, 56400, Note_on_c, 0, 50, 88
4, 56400, Note_on_c, 0, 58, 88
4, 56400, Note_on_c, 0, 65, 88
4, 56640, Note_on_c, 0, 65, 0
4, 56640, Note_on_c, 0, 58, 0
4, 56640, Note_on_c, 0, 50, 0
4, 56640, Note_on_c, 0, 62, 88
4, 56760, Note_on_c, 0, 62, 0
4, 56760, Note_on_c, 0, 64, 88
4, 56880, Note_on_c, 0, 64, 0
4, 56880, Note_on_c, 0, 50, 88
4, 56880, Note_on_c, 0, 58, 88
4, 56880, Note_on_c, 0, 65, 88
4, 57120, Note_on_c, 0, 65, 0
4, 57120, Note_on_c, 0, 58, 0
4, 57120, Note_on_c, 0, 50, 0
4, 57120, Note_on_c, 0, 62, 88
4, 57240, Note_on_c, 0, 62, 0
4, 57240, Note_on_c, 0, 64, 88
4, 57360, Note_on_c, 0, 64, 0
4, 57360, Note_on_c, 0, 50, 88
4, 57360, Note_on_c, 0, 58, 88
4, 57360, Note_on_c, 0, 65, 88
4, 57600, Note_on_c, 0, 65, 0
4, 57600, Note_on_c, 0, 58, 0
4, 57600, Note_on_c, 0, 50, 0
4, 57840, Note_on_c, 0, 50, 88
4, 57840, Note_on_c, 0, 53, 88
4, 57840, Note_on_c, 0, 58, 88
4, 57840, Note_on_c, 0, 62, 88
4, 58080, Note_on_c, 0, 62, 0
4, 58080, Note_on_c, 0, 50, 0
4, 58080, Note_on_c, 0, 53, 0
4, 58080, Note_on_c, 0, 58, 0
4, 58080, Note_on_c, 0, 52, 88
4, 58080, Note_on_c, 0, 56, 88
4, 58080, Note_on_c, 0, 62, 88
4, 58080, Note_on_c, 0, 64, 88
4, 58320, Note_on_c, 0, 64, 0
4, 58320, Note_on_c, 0, 52, 0
4, 58320, Note_on_c, 0, 56, 0
4, 58320, Note_on_c, 0, 62, 0
4, 58320, Note_on_c, 0, 46, 88
4, 58320, Note_on_c, 0, 50, 88
4, 58320, Note_on_c, 0, 52, 88
4, 58320, Note_on_c, 0, 58, 88
4, 58560, Note_on_c, 0, 58, 0
4, 58560, Note_on_c, 0, 46, 0
4, 58560, Note_on_c, 0, 50, 0
4, 58560, Note_on_c, 0, 52, 0
4, 58560, Note_on_c, 0, 45, 88
4, 58560, Note_on_c, 0, 49, 88
4, 58560, Note_on_c, 0, 52, 88
4, 58560, Note_on_c, 0, 57, 88
4, 58800, Note_on_c, 0, 57, 0
4, 58800, Note_on_c, 0, 45, 0
4, 58800, Note_on_c, 0, 49, 0
4, 58800, Note_on_c, 0, 52, 0
4, 58800, Note_on_c, 0, 50, 88
4, 58800, Note_on_c, 0, 53, 88
4, 58800, Note_on_c, 0, 58, 88
4, 58800, Note_on_c, 0, 62, 88
4, 59040, Note_on_c, 0, 62, 0
4, 59040, Note_on_c, 0, 50, 0
4, 59040, Note_on_c, 0, 53, 0
4, 59040, Note_on_c, 0, 58, 0
4, 59040, Note_on_c, 0, 52, 88
4, 59040, Note_on_c, 0, 56, 88
4, 59040, Note_on_c, 0, 62, 88
4, 59040, Note_on_c, 0, 64, 88
4, 59280, Note_on_c, 0, 64, 0
4, 59280, Note_on_c, 0, 52, 0
4, 59280, Note_on_c, 0, 56, 0
4, 59280, Note_on_c, 0, 62, 0
4, 59280, Note_on_c, 0, 46, 88
4, 59280, Note_on_c, 0, 50, 88
4, 59280, Note_on_c, 0, 52, 88
4, 59280, Note_on_c, 0, 58, 88
4, 59520, Note_on_c, 0, 58, 0
4, 59520, Note_on_c, 0, 46, 0
4, 59520, Note_on_c, 0, 50, 0
4, 59520, Note_on_c, 0, 52, 0
4, 59520, Note_on_c, 0, 45, 88
4, 59520, Note_on_c, 0, 49, 88
4, 59520, Note_on_c, 0, 52, 88
4, 59520, Note_on_c, 0, 57, 88
4, 59640, Note_on_c, 0, 57, 0
4, 59640, Note_on_c, 0, 45, 0
4, 59640, Note_on_c, 0, 49, 0
4, 59640, Note_on_c, 0, 52, 0
4, 59880, Note_on_c, 0, 46, 88
4, 59880, Note_on_c, 0, 50, 88
4, 59880, Note_on_c, 0, 52, 88
4, 59880, Note_on_c, 0, 58, 88
4, 60000, Note_on_c, 0, 58, 0
4, 60000, Note_on_c, 0, 46, 0
4, 60000, Note_on_c, 0, 50, 0
4, 60000, Note_on_c, 0, 52, 0
4, 60000, Note_on_c, 0, 45, 88
4, 60000, Note_on_c, 0, 49, 88
4, 60000, Note_on_c, 0, 52, 88
4, 60000, Note_on_c, 0, 57, 88
4, 60120, Note_on_c, 0, 57, 0
4, 60120, Note_on_c, 0, 45, 0
4, 60120, Note_on_c, 0, 49, 0
4, 60120, Note_on_c, 0, 52, 0
4, 60360, Note_on_c, 0, 46, 88
4, 60360, Note_on_c, 0, 50, 88
4, 60360, Note_on_c, 0, 52, 88
4, 60360, Note_on_c, 0, 58, 88
4, 60480, Note_on_c, 0, 58, 0
4, 60480, Note_on_c, 0, 46, 0
4, 60480, Note_on_c, 0, 50, 0
4, 60480, Note_on_c, 0, 52, 0
4, 60480, Note_on_c, 0, 45, 88
4, 60480, Note_on_c, 0, 49, 88
4, 60480, Note_on_c, 0, 52, 88
4, 60480, Note_on_c, 0, 57, 88
4, 60600, Note_on_c, 0, 57, 0
4, 60600, Note_on_c, 0, 45, 0
4, 60600, Note_on_c, 0, 49, 0
4, 60600, Note_on_c, 0, 52, 0
4, 60840, Note_on_c, 0, 46, 88
4, 60840, Note_on_c, 0, 50, 88
4, 60840, Note_on_c, 0, 52, 88
4, 60840, Note_on_c, 0, 58, 88
4, 60960, Note_on_c, 0, 58, 0
4, 60960, Note_on_c, 0, 46, 0
4, 60960, Note_on_c, 0, 50, 0
4, 60960, Note_on_c, 0, 52, 0
4, 60960, Note_on_c, 0, 45, 88
4, 60960, Note_on_c, 0, 49, 88
4, 60960, Note_on_c, 0, 52, 88
4, 60960, Note_on_c, 0, 57, 88
4, 61080, Note_on_c, 0, 57, 0
4, 61080, Note_on_c, 0, 45, 0
4, 61080, Note_on_c, 0, 49, 0
4, 61080, Note_on_c, 0, 52, 0
4, 61320, Note_on_c, 0, 46, 88
4, 61320, Note_on_c, 0, 50, 88
4, 61320, Note_on_c, 0, 52, 88
4, 61320, Note_on_c, 0, 58, 88
4, 61440, Note_on_c, 0, 58, 0
4, 61440, Note_on_c, 0, 46, 0
4, 61440, Note_on_c, 0, 50, 0
4, 61440, Note_on_c, 0, 52, 0
4, 61440, Note_on_c, 0, 45, 88
4, 61440, Note_on_c, 0, 49, 88
4, 61440, Note_on_c, 0, 52, 88
4, 61440, Note_on_c, 0, 57, 88
4, 61680, Note_on_c, 0, 57, 0
4, 61680, Note_on_c, 0, 45, 0
4, 61680, Note_on_c, 0, 49, 0
4, 61680, Note_on_c, 0, 52, 0
4, 61680, Note_on_c, 0, 57, 88
4, 61680, Note_on_c, 0, 61, 88
4, 61680, Note_on_c, 0, 64, 88
4, 61920, Note_on_c, 0, 64, 0
4, 61920, Note_on_c, 0, 61, 0
4, 61920, Note_on_c, 0, 57, 0
4, 61920, Note_on_c, 0, 45, 88
4, 61920, Note_on_c, 0, 57, 88
4, 62160, Note_on_c, 0, 57, 0
4, 62160, Note_on_c, 0, 45, 0
4, 62160, Note_on_c, 0, 57, 88
4, 62160, Note_on_c, 0, 61, 88
4, 62160, Note_on_c, 0, 64, 88
4, 62400, Note_on_c, 0, 64, 0
4, 62400, Note_on_c, 0, 61, 0
4, 62400, Note_on_c, 0, 57, 0
4, 62400, Note_on_c, 0, 45, 88
4, 62400, Note_on_c, 0, 57, 88
4, 62640, Note_on_c, 0, 57, 0
4, 62640, Note_on_c, 0, 45, 0
4, 62640, Note_on_c, 0, 57, 88
4, 62640, Note_on_c, 0, 61, 88
4, 62640, Note_on_c, 0, 64, 88
4, 62880, Note_on_c, 0, 64, 0
4, 62880, Note_on_c, 0, 61, 0
4, 62880, Note_on_c, 0, 57, 0
4, 62880, Note_on_c, 0, 33, 114
4, 62880, Note_on_c, 0, 45, 114
4, 63360, Note_on_c, 0, 45, 0
4, 63360, Note_on_c, 0, 33, 0
4, 63360, End_track
5, 0, Start_track
5, 0, Title_t, "Grand Piano"
5, 0, Program_c, 0, 0
5, 0, Control_c, 0, 7, 115
5, 0, Control_c, 0, 10, 47
5, 9840, Note_on_c, 0, 44, 62
5, 9840, Note_on_c, 0, 52, 62
5, 10080, Note_on_c, 0, 52, 0
5, 10080, Note_on_c, 0, 44, 0
5, 10320, Note_on_c, 0, 45, 62
5, 10320, Note_on_c, 0, 52, 62
5, 10560, Note_on_c, 0, 52, 0
5, 10560, Note_on_c, 0, 45, 0
5, 10800, Note_on_c, 0, 47, 75
5, 10800, Note_on_c, 0, 57, 75
5, 11040, Note_on_c, 0, 57, 0
5, 11040, Note_on_c, 0, 47, 0
5, 11280, Note_on_c, 0, 49, 75
5, 11280, Note_on_c, 0, 56, 75
5, 11520, Note_on_c, 0, 56, 0
5, 11520, Note_on_c, 0, 49, 0
5, 11760, Note_on_c, 0, 54, 75
5, 11760, Note_on_c, 0, 61, 75
5, 12000, Note_on_c, 0, 61, 0
5, 12000, Note_on_c, 0, 54, 0
5, 12240, Note_on_c, 0, 56, 75
5, 12240, Note_on_c, 0, 64, 75
5, 12480, Note_on_c, 0, 64, 0
5, 12480, Note_on_c, 0, 56, 0
5, 12720, Note_on_c, 0, 59, 75
5, 12960, Note_on_c, 0, 59, 0
5, 13200, Note_on_c, 0, 52, 75
5, 13200, Note_on_c, 0, 59, 75
5, 13440, Note_on_c, 0, 59, 0
5, 13440, Note_on_c, 0, 52, 0
5, 23760, Note_on_c, 0, 40, 49
5, 23760, Note_on_c, 0, 44, 49
5, 23760, Note_on_c, 0, 47, 49
5, 24000, Note_on_c, 0, 47, 0
5, 24000, Note_on_c, 0, 44, 0
5, 24000, Note_on_c, 0, 40, 0
5, 24240, Note_on_c, 0, 44, 49
5, 24240, Note_on_c, 0, 47, 49
5, 24240, Note_on_c, 0, 52, 49
5, 24480, Note_on_c, 0, 52, 0
5, 24480, Note_on_c, 0, 47, 0
5, 24480, Note_on_c, 0, 44, 0
5, 24720, Note_on_c, 0, 44, 49
5, 24720, Note_on_c, 0, 47, 49
5, 24720, Note_on_c, 0, 52, 49
5, 24960, Note_on_c, 0, 52, 0
5, 24960, Note_on_c, 0, 47, 0
5, 24960, Note_on_c, 0, 44, 0
5, 36720, Note_on_c, 0, 44, 75
5, 36720, Note_on_c, 0, 52, 75
5, 36960, Note_on_c, 0, 52, 0
5, 36960, Note_on_c, 0, 44, 0
5, 37200, Note_on_c, 0, 45, 75
5, 37200, Note_on_c, 0, 52, 75
5, 37440, Note_on_c, 0, 52, 0
5, 37440, Note_on_c, 0, 45, 0
5, 37680, Note_on_c, 0, 47, 75
5, 37680, Note_on_c, 0, 57, 75
5, 37920, Note_on_c, 0, 57, 0
5, 37920, Note_on_c, 0, 47, 0
5, 38160, Note_on_c, 0, 49, 75
5, 38160, Note_on_c, 0, 56, 75
5, 38400, Note_on_c, 0, 56, 0
5, 38400, Note_on_c, 0, 49, 0
5, 38640, Note_on_c, 0, 54, 75
5, 38640, Note_on_c, 0, 61, 75
5, 38880, Note_on_c, 0, 61, 0
5, 38880, Note_on_c, 0, 54, 0
5, 39120, Note_on_c, 0, 56, 75
5, 39120, Note_on_c, 0, 64, 75
5, 39360, Note_on_c, 0, 64, 0
5, 39360, Note_on_c, 0, 56, 0
5, 39600, Note_on_c, 0, 59, 75
5, 39840, Note_on_c, 0, 59, 0
5, 39840, Note_on_c, 0, 52, 75
5, 39840, Note_on_c, 0, 59, 75
5, 40080, Note_on_c, 0, 59, 0
5, 40080, Note_on_c, 0, 52, 0
5, 40080, End_track
0, 0, End_of_file
