0, 0, Header, 1, 5, 480
1, 0, Start_track
1, 0, Title_t, "tchaikovsky sleeping beauty act3 30b apotheose"
1, 0, Copyright_t, "Adaptation for Disklavier pianos, by: Robert C. Kuhmann (c) 2012."
1, 0, Text_t, "Seq. (c) by: Segundo G. Yogore,  2007\012"
1, 0, Time_signature, 2, 2, 24, 8
1, 0, Key_signature, -2, "major"
1, 0, Tempo, 800000
1, 64320, Time_signature, 8, 2, 24, 8
1, 64320, End_track
2, 0, Start_track
2, 0, Title_t, "Grand Piano"
2, 0, Program_c, 0, 0
2, 0, Control_c, 0, 7, 115
2, 0, Control_c, 0, 10, 86
2, 0, Note_on_c, 0, 70, 104
2, 480, Note_on_c, 0, 70, 0
2, 480, Note_on_c, 0, 70, 104
2, 720, Note_on_c, 0, 70, 0
2, 720, Note_on_c, 0, 70, 104
2, 960, Note_on_c, 0, 70, 0
2, 960, Note_on_c, 0, 70, 104
2, 1920, Note_on_c, 0, 70, 0
2, 1920, Note_on_c, 0, 70, 104
2, 1920, Note_on_c, 0, 74, 104
2, 2400, Note_on_c, 0, 74, 0
2, 2400, Note_on_c, 0, 70, 0
2, 2400, Note_on_c, 0, 70, 104
2, 2400, Note_on_c, 0, 74, 104
2, 2640, Note_on_c, 0, 74, 0
2, 2640, Note_on_c, 0, 70, 0
2, 2640, Note_on_c, 0, 70, 104
2, 2640, Note_on_c, 0, 74, 104
2, 2880, Note_on_c, 0, 74, 0
2, 2880, Note_on_c, 0, 70, 0
2, 2880, Note_on_c, 0, 70, 104
2, 2880, Note_on_c, 0, 74, 104
2, 3840, Note_on_c, 0, 74, 0
2, 3840, Note_on_c, 0, 70, 0
2, 3840, Note_on_c, 0, 70, 104
2, 3840, Note_on_c, 0, 74, 104
2, 3840, Note_on_c, 0, 77, 104
2, 4320, Note_on_c, 0, 77, 0
2, 4320, Note_on_c, 0, 74, 0
2, 4320, Note_on_c, 0, 70, 0
2, 4320, Note_on_c, 0, 70, 104
2, 4320, Note_on_c, 0, 74, 104
2, 4320, Note_on_c, 0, 77, 104
2, 4560, Note_on_c, 0, 77, 0
2, 4560, Note_on_c, 0, 74, 0
2, 4560, Note_on_c, 0, 70, 0
2, 4560, Note_on_c, 0, 70, 104
2, 4560, Note_on_c, 0, 74, 104
2, 4560, Note_on_c, 0, 77, 104
2, 4800, Note_on_c, 0, 77, 0
2, 4800, Note_on_c, 0, 74, 0
2, 4800, Note_on_c, 0, 70, 0
2, 4800, Control_c, 0, 64, 127
2, 4800, Note_on_c, 0, 70, 104
2, 4800, Note_on_c, 0, 74, 104
2, 4800, Note_on_c, 0, 77, 104
2, 5760, Note_on_c, 0, 77, 0
2, 5760, Note_on_c, 0, 74, 0
2, 5760, Note_on_c, 0, 70, 0
2, 6720, Control_c, 0, 64, 0
2, 7680, Note_on_c, 0, 67, 91
2, 7680, Note_on_c, 0, 70, 91
2, 7680, Note_on_c, 0, 74, 91
2, 7680, Note_on_c, 0, 79, 91
2, 8160, Note_on_c, 0, 79, 0
2, 8160, Note_on_c, 0, 67, 0
2, 8160, Note_on_c, 0, 70, 0
2, 8160, Note_on_c, 0, 74, 0
2, 8160, Note_on_c, 0, 67, 91
2, 8160, Note_on_c, 0, 70, 91
2, 8160, Note_on_c, 0, 74, 91
2, 8160, Note_on_c, 0, 79, 91
2, 8400, Note_on_c, 0, 79, 0
2, 8400, Note_on_c, 0, 67, 0
2, 8400, Note_on_c, 0, 70, 0
2, 8400, Note_on_c, 0, 74, 0
2, 8400, Note_on_c, 0, 67, 91
2, 8400, Note_on_c, 0, 70, 91
2, 8400, Note_on_c, 0, 74, 91
2, 8400, Note_on_c, 0, 79, 91
2, 8640, Note_on_c, 0, 79, 0
2, 8640, Note_on_c, 0, 67, 0
2, 8640, Note_on_c, 0, 70, 0
2, 8640, Note_on_c, 0, 74, 0
2, 8640, Note_on_c, 0, 65, 91
2, 8640, Note_on_c, 0, 69, 91
2, 8640, Note_on_c, 0, 77, 91
2, 9120, Note_on_c, 0, 77, 0
2, 9120, Note_on_c, 0, 69, 0
2, 9120, Note_on_c, 0, 65, 0
2, 9120, Note_on_c, 0, 65, 91
2, 9120, Note_on_c, 0, 69, 91
2, 9120, Note_on_c, 0, 77, 91
2, 9360, Note_on_c, 0, 77, 0
2, 9360, Note_on_c, 0, 69, 0
2, 9360, Note_on_c, 0, 65, 0
2, 9360, Note_on_c, 0, 70, 91
2, 9360, Note_on_c, 0, 74, 91
2, 9360, Note_on_c, 0, 82, 91
2, 9600, Note_on_c, 0, 82, 0
2, 9600, Note_on_c, 0, 74, 0
2, 9600, Note_on_c, 0, 70, 0
2, 9600, Note_on_c, 0, 69, 91
2, 9600, Note_on_c, 0, 72, 91
2, 9600, Note_on_c, 0, 74, 91
2, 9600, Note_on_c, 0, 81, 91
2, 9840, Note_on_c, 0, 81, 0
2, 9840, Note_on_c, 0, 69, 0
2, 9840, Note_on_c, 0, 72, 0
2, 9840, Note_on_c, 0, 74, 0
2, 9840, Note_on_c, 0, 67, 91
2, 9840, Note_on_c, 0, 70, 91
2, 9840, Note_on_c, 0, 74, 91
2, 9840, Note_on_c, 0, 79, 91
2, 10080, Note_on_c, 0, 79, 0
2, 10080, Note_on_c, 0, 67, 0
2, 10080, Note_on_c, 0, 70, 0
2, 10080, Note_on_c, 0, 74, 0
2, 10080, Note_on_c, 0, 66, 91
2, 10080, Note_on_c, 0, 72, 91
2, 10080, Note_on_c, 0, 74, 91
2, 10080, Note_on_c, 0, 78, 91
2, 10320, Note_on_c, 0, 78, 0
2, 10320, Note_on_c, 0, 66, 0
2, 10320, Note_on_c, 0, 72, 0
2, 10320, Note_on_c, 0, 74, 0
2, 10320, Note_on_c, 0, 67, 91
2, 10320, Note_on_c, 0, 70, 91
2, 10320, Note_on_c, 0, 74, 91
2, 10320, Note_on_c, 0, 79, 91
2, 10560, Note_on_c, 0, 79, 0
2, 10560, Note_on_c, 0, 67, 0
2, 10560, Note_on_c, 0, 70, 0
2, 10560, Note_on_c, 0, 74, 0
2, 10560, Note_on_c, 0, 66, 91
2, 10560, Note_on_c, 0, 69, 91
2, 10560, Note_on_c, 0, 74, 91
2, 11520, Note_on_c, 0, 74, 0
2, 11520, Note_on_c, 0, 69, 0
2, 11520, Note_on_c, 0, 66, 0
2, 11520, Note_on_c, 0, 67, 91
2, 11520, Note_on_c, 0, 70, 91
2, 11520, Note_on_c, 0, 74, 91
2, 11520, Note_on_c, 0, 79, 91
2, 12000, Note_on_c, 0, 79, 0
2, 12000, Note_on_c, 0, 67, 0
2, 12000, Note_on_c, 0, 70, 0
2, 12000, Note_on_c, 0, 74, 0
2, 12000, Note_on_c, 0, 67, 91
2, 12000, Note_on_c, 0, 70, 91
2, 12000, Note_on_c, 0, 74, 91
2, 12000, Note_on_c, 0, 79, 91
2, 12240, Note_on_c, 0, 79, 0
2, 12240, Note_on_c, 0, 67, 0
2, 12240, Note_on_c, 0, 70, 0
2, 12240, Note_on_c, 0, 74, 0
2, 12240, Note_on_c, 0, 67, 91
2, 12240, Note_on_c, 0, 70, 91
2, 12240, Note_on_c, 0, 74, 91
2, 12240, Note_on_c, 0, 79, 91
2, 12480, Note_on_c, 0, 79, 0
2, 12480, Note_on_c, 0, 67, 0
2, 12480, Note_on_c, 0, 70, 0
2, 12480, Note_on_c, 0, 74, 0
2, 12480, Note_on_c, 0, 65, 91
2, 12480, Note_on_c, 0, 69, 91
2, 12480, Note_on_c, 0, 77, 91
2, 12960, Note_on_c, 0, 77, 0
2, 12960, Note_on_c, 0, 69, 0
2, 12960, Note_on_c, 0, 65, 0
2, 12960, Note_on_c, 0, 65, 91
2, 12960, Note_on_c, 0, 69, 91
2, 12960, Note_on_c, 0, 77, 91
2, 13200, Note_on_c, 0, 77, 0
2, 13200, Note_on_c, 0, 69, 0
2, 13200, Note_on_c, 0, 65, 0
2, 13200, Note_on_c, 0, 70, 91
2, 13200, Note_on_c, 0, 74, 91
2, 13200, Note_on_c, 0, 82, 91
2, 13440, Note_on_c, 0, 82, 0
2, 13440, Note_on_c, 0, 74, 0
2, 13440, Note_on_c, 0, 70, 0
2, 13440, Note_on_c, 0, 69, 91
2, 13440, Note_on_c, 0, 72, 91
2, 13440, Note_on_c, 0, 74, 91
2, 13440, Note_on_c, 0, 81, 91
2, 13680, Note_on_c, 0, 81, 0
2, 13680, Note_on_c, 0, 69, 0
2, 13680, Note_on_c, 0, 72, 0
2, 13680, Note_on_c, 0, 74, 0
2, 13680, Note_on_c, 0, 67, 91
2, 13680, Note_on_c, 0, 70, 91
2, 13680, Note_on_c, 0, 74, 91
2, 13680, Note_on_c, 0, 79, 91
2, 13920, Note_on_c, 0, 79, 0
2, 13920, Note_on_c, 0, 67, 0
2, 13920, Note_on_c, 0, 70, 0
2, 13920, Note_on_c, 0, 74, 0
2, 13920, Note_on_c, 0, 66, 91
2, 13920, Note_on_c, 0, 72, 91
2, 13920, Note_on_c, 0, 74, 91
2, 13920, Note_on_c, 0, 78, 91
2, 14160, Note_on_c, 0, 78, 0
2, 14160, Note_on_c, 0, 66, 0
2, 14160, Note_on_c, 0, 72, 0
2, 14160, Note_on_c, 0, 74, 0
2, 14160, Note_on_c, 0, 67, 91
2, 14160, Note_on_c, 0, 70, 91
2, 14160, Note_on_c, 0, 74, 91
2, 14160, Note_on_c, 0, 79, 91
2, 14400, Note_on_c, 0, 79, 0
2, 14400, Note_on_c, 0, 67, 0
2, 14400, Note_on_c, 0, 70, 0
2, 14400, Note_on_c, 0, 74, 0
2, 14400, Note_on_c, 0, 66, 91
2, 14400, Note_on_c, 0, 69, 91
2, 14400, Note_on_c, 0, 74, 91
2, 15360, Note_on_c, 0, 74, 0
2, 15360, Note_on_c, 0, 69, 0
2, 15360, Note_on_c, 0, 66, 0
2, 15360, Note_on_c, 0, 70, 91
2, 15360, Note_on_c, 0, 74, 91
2, 15360, Note_on_c, 0, 79, 91
2, 15360, Note_on_c, 0, 82, 91
2, 15840, Note_on_c, 0, 82, 0
2, 15840, Note_on_c, 0, 70, 0
2, 15840, Note_on_c, 0, 74, 0
2, 15840, Note_on_c, 0, 79, 0
2, 15840, Note_on_c, 0, 69, 91
2, 15840, Note_on_c, 0, 72, 91
2, 15840, Note_on_c, 0, 74, 91
2, 15840, Note_on_c, 0, 81, 91
2, 16080, Note_on_c, 0, 81, 0
2, 16080, Note_on_c, 0, 69, 0
2, 16080, Note_on_c, 0, 72, 0
2, 16080, Note_on_c, 0, 74, 0
2, 16080, Note_on_c, 0, 67, 91
2, 16080, Note_on_c, 0, 70, 91
2, 16080, Note_on_c, 0, 74, 91
2, 16080, Note_on_c, 0, 79, 91
2, 16320, Note_on_c, 0, 79, 0
2, 16320, Note_on_c, 0, 67, 0
2, 16320, Note_on_c, 0, 70, 0
2, 16320, Note_on_c, 0, 74, 0
2, 16320, Note_on_c, 0, 69, 91
2, 16320, Note_on_c, 0, 74, 91
2, 16320, Note_on_c, 0, 78, 91
2, 16320, Note_on_c, 0, 81, 91
2, 16800, Note_on_c, 0, 81, 0
2, 16800, Note_on_c, 0, 69, 0
2, 16800, Note_on_c, 0, 74, 0
2, 16800, Note_on_c, 0, 78, 0
2, 16800, Note_on_c, 0, 69, 91
2, 16800, Note_on_c, 0, 74, 91
2, 16800, Note_on_c, 0, 78, 91
2, 16800, Note_on_c, 0, 81, 91
2, 16980, Note_on_c, 0, 82, 91
2, 17040, Note_on_c, 0, 82, 0
2, 17040, Note_on_c, 0, 78, 0
2, 17040, Note_on_c, 0, 69, 0
2, 17040, Note_on_c, 0, 74, 0
2, 17040, Note_on_c, 0, 81, 0
2, 17040, Note_on_c, 0, 69, 91
2, 17040, Note_on_c, 0, 74, 91
2, 17040, Note_on_c, 0, 78, 91
2, 17040, Note_on_c, 0, 81, 91
2, 17280, Note_on_c, 0, 81, 0
2, 17280, Note_on_c, 0, 69, 0
2, 17280, Note_on_c, 0, 74, 0
2, 17280, Note_on_c, 0, 78, 0
2, 17280, Note_on_c, 0, 67, 91
2, 17280, Note_on_c, 0, 74, 91
2, 17280, Note_on_c, 0, 79, 91
2, 17520, Note_on_c, 0, 79, 0
2, 17520, Note_on_c, 0, 74, 0
2, 17520, Note_on_c, 0, 67, 0
2, 17520, Note_on_c, 0, 67, 91
2, 17520, Note_on_c, 0, 74, 91
2, 17520, Note_on_c, 0, 79, 91
2, 17760, Note_on_c, 0, 79, 0
2, 17760, Note_on_c, 0, 74, 0
2, 17760, Note_on_c, 0, 67, 0
2, 17760, Note_on_c, 0, 66, 91
2, 17760, Note_on_c, 0, 74, 91
2, 17760, Note_on_c, 0, 78, 91
2, 18000, Note_on_c, 0, 78, 0
2, 18000, Note_on_c, 0, 74, 0
2, 18000, Note_on_c, 0, 66, 0
2, 18000, Note_on_c, 0, 67, 91
2, 18000, Note_on_c, 0, 70, 91
2, 18000, Note_on_c, 0, 74, 91
2, 18000, Note_on_c, 0, 79, 91
2, 18240, Note_on_c, 0, 79, 0
2, 18240, Note_on_c, 0, 67, 0
2, 18240, Note_on_c, 0, 70, 0
2, 18240, Note_on_c, 0, 74, 0
2, 18240, Note_on_c, 0, 69, 91
2, 18240, Note_on_c, 0, 74, 91
2, 18480, Note_on_c, 0, 74, 0
2, 18480, Note_on_c, 0, 69, 0
2, 18480, Note_on_c, 0, 69, 91
2, 18480, Note_on_c, 0, 74, 91
2, 18600, Note_on_c, 0, 74, 0
2, 18600, Note_on_c, 0, 69, 0
2, 18600, Note_on_c, 0, 67, 91
2, 18600, Note_on_c, 0, 70, 91
2, 18600, Note_on_c, 0, 75, 91
2, 18720, Note_on_c, 0, 75, 0
2, 18720, Note_on_c, 0, 70, 0
2, 18720, Note_on_c, 0, 67, 0
2, 18720, Note_on_c, 0, 65, 91
2, 18720, Note_on_c, 0, 70, 91
2, 18720, Note_on_c, 0, 77, 91
2, 18960, Note_on_c, 0, 77, 0
2, 18960, Note_on_c, 0, 70, 0
2, 18960, Note_on_c, 0, 65, 0
2, 18960, Note_on_c, 0, 63, 91
2, 18960, Note_on_c, 0, 69, 91
2, 18960, Note_on_c, 0, 77, 91
2, 19200, Note_on_c, 0, 77, 0
2, 19200, Note_on_c, 0, 69, 0
2, 19200, Note_on_c, 0, 63, 0
2, 19200, Note_on_c, 0, 65, 91
2, 19200, Note_on_c, 0, 70, 91
2, 19680, Note_on_c, 0, 70, 0
2, 19680, Note_on_c, 0, 65, 0
2, 19680, Note_on_c, 0, 65, 91
2, 19680, Note_on_c, 0, 70, 91
2, 19920, Note_on_c, 0, 70, 0
2, 19920, Note_on_c, 0, 65, 0
2, 19920, Note_on_c, 0, 65, 91
2, 19920, Note_on_c, 0, 70, 91
2, 20160, Note_on_c, 0, 70, 0
2, 20160, Note_on_c, 0, 65, 0
2, 20160, Note_on_c, 0, 72, 91
2, 20640, Note_on_c, 0, 72, 0
2, 20640, Note_on_c, 0, 74, 91
2, 21000, Note_on_c, 0, 74, 0
2, 21000, Note_on_c, 0, 74, 91
2, 21120, Note_on_c, 0, 74, 0
2, 21120, Note_on_c, 0, 67, 91
2, 21240, Note_on_c, 0, 67, 0
2, 21240, Note_on_c, 0, 55, 91
2, 21360, Note_on_c, 0, 55, 0
2, 21360, Note_on_c, 0, 58, 91
2, 21480, Note_on_c, 0, 58, 0
2, 21480, Note_on_c, 0, 62, 91
2, 21600, Note_on_c, 0, 62, 0
2, 21600, Note_on_c, 0, 67, 91
2, 21720, Note_on_c, 0, 67, 0
2, 21720, Note_on_c, 0, 70, 91
2, 21840, Note_on_c, 0, 70, 0
2, 21840, Note_on_c, 0, 74, 91
2, 21960, Note_on_c, 0, 74, 0
2, 21960, Note_on_c, 0, 79, 91
2, 22080, Note_on_c, 0, 79, 0
2, 22080, Note_on_c, 0, 70, 91
2, 22080, Note_on_c, 0, 74, 91
2, 22080, Note_on_c, 0, 79, 91
2, 22080, Note_on_c, 0, 82, 91
2, 22560, Note_on_c, 0, 82, 0
2, 22560, Note_on_c, 0, 70, 0
2, 22560, Note_on_c, 0, 74, 0
2, 22560, Note_on_c, 0, 79, 0
2, 22560, Note_on_c, 0, 69, 91
2, 22560, Note_on_c, 0, 72, 91
2, 22560, Note_on_c, 0, 74, 91
2, 22560, Note_on_c, 0, 81, 91
2, 22800, Note_on_c, 0, 81, 0
2, 22800, Note_on_c, 0, 69, 0
2, 22800, Note_on_c, 0, 72, 0
2, 22800, Note_on_c, 0, 74, 0
2, 22800, Note_on_c, 0, 67, 91
2, 22800, Note_on_c, 0, 70, 91
2, 22800, Note_on_c, 0, 74, 91
2, 22800, Note_on_c, 0, 79, 91
2, 23040, Note_on_c, 0, 79, 0
2, 23040, Note_on_c, 0, 67, 0
2, 23040, Note_on_c, 0, 70, 0
2, 23040, Note_on_c, 0, 74, 0
2, 23040, Note_on_c, 0, 69, 91
2, 23040, Note_on_c, 0, 74, 91
2, 23040, Note_on_c, 0, 78, 91
2, 23040, Note_on_c, 0, 81, 91
2, 23280, Note_on_c, 0, 81, 0
2, 23280, Note_on_c, 0, 69, 0
2, 23280, Note_on_c, 0, 74, 0
2, 23280, Note_on_c, 0, 78, 0
2, 23280, Note_on_c, 0, 69, 91
2, 23280, Note_on_c, 0, 74, 91
2, 23280, Note_on_c, 0, 78, 91
2, 23280, Note_on_c, 0, 81, 91
2, 23360, Note_on_c, 0, 81, 0
2, 23360, Note_on_c, 0, 69, 0
2, 23360, Note_on_c, 0, 74, 0
2, 23360, Note_on_c, 0, 78, 0
2, 23360, Note_on_c, 0, 69, 91
2, 23360, Note_on_c, 0, 74, 91
2, 23360, Note_on_c, 0, 78, 91
2, 23360, Note_on_c, 0, 81, 91
2, 23439, Note_on_c, 0, 81, 0
2, 23439, Note_on_c, 0, 69, 0
2, 23439, Note_on_c, 0, 74, 0
2, 23439, Note_on_c, 0, 78, 0
2, 23439, Note_on_c, 0, 69, 91
2, 23439, Note_on_c, 0, 74, 91
2, 23439, Note_on_c, 0, 78, 91
2, 23439, Note_on_c, 0, 81, 91
2, 23520, Note_on_c, 0, 81, 0
2, 23520, Note_on_c, 0, 69, 0
2, 23520, Note_on_c, 0, 74, 0
2, 23520, Note_on_c, 0, 78, 0
2, 23520, Note_on_c, 0, 69, 91
2, 23520, Note_on_c, 0, 74, 91
2, 23520, Note_on_c, 0, 78, 91
2, 23520, Note_on_c, 0, 81, 91
2, 23700, Note_on_c, 0, 82, 91
2, 23760, Note_on_c, 0, 82, 0
2, 23760, Note_on_c, 0, 78, 0
2, 23760, Note_on_c, 0, 69, 0
2, 23760, Note_on_c, 0, 74, 0
2, 23760, Note_on_c, 0, 81, 0
2, 23760, Note_on_c, 0, 69, 91
2, 23760, Note_on_c, 0, 74, 91
2, 23760, Note_on_c, 0, 78, 91
2, 23760, Note_on_c, 0, 81, 91
2, 24000, Note_on_c, 0, 81, 0
2, 24000, Note_on_c, 0, 69, 0
2, 24000, Note_on_c, 0, 74, 0
2, 24000, Note_on_c, 0, 78, 0
2, 24000, Note_on_c, 0, 67, 91
2, 24000, Note_on_c, 0, 74, 91
2, 24000, Note_on_c, 0, 79, 91
2, 24240, Note_on_c, 0, 79, 0
2, 24240, Note_on_c, 0, 74, 0
2, 24240, Note_on_c, 0, 67, 0
2, 24240, Note_on_c, 0, 67, 91
2, 24240, Note_on_c, 0, 74, 91
2, 24240, Note_on_c, 0, 79, 91
2, 24480, Note_on_c, 0, 79, 0
2, 24480, Note_on_c, 0, 74, 0
2, 24480, Note_on_c, 0, 67, 0
2, 24480, Note_on_c, 0, 66, 91
2, 24480, Note_on_c, 0, 74, 91
2, 24480, Note_on_c, 0, 78, 91
2, 24720, Note_on_c, 0, 78, 0
2, 24720, Note_on_c, 0, 74, 0
2, 24720, Note_on_c, 0, 66, 0
2, 24720, Note_on_c, 0, 67, 91
2, 24720, Note_on_c, 0, 70, 91
2, 24720, Note_on_c, 0, 74, 91
2, 24720, Note_on_c, 0, 79, 91
2, 24960, Note_on_c, 0, 79, 0
2, 24960, Note_on_c, 0, 67, 0
2, 24960, Note_on_c, 0, 70, 0
2, 24960, Note_on_c, 0, 74, 0
2, 24960, Note_on_c, 0, 62, 91
2, 24960, Note_on_c, 0, 69, 91
2, 24960, Note_on_c, 0, 74, 91
2, 25200, Note_on_c, 0, 74, 0
2, 25200, Note_on_c, 0, 69, 0
2, 25200, Note_on_c, 0, 62, 0
2, 25200, Note_on_c, 0, 62, 91
2, 25200, Note_on_c, 0, 69, 91
2, 25200, Note_on_c, 0, 74, 91
2, 25320, Note_on_c, 0, 74, 0
2, 25320, Note_on_c, 0, 69, 0
2, 25320, Note_on_c, 0, 62, 0
2, 25320, Note_on_c, 0, 63, 91
2, 25320, Note_on_c, 0, 67, 91
2, 25320, Note_on_c, 0, 70, 91
2, 25320, Note_on_c, 0, 75, 91
2, 25440, Note_on_c, 0, 75, 0
2, 25440, Note_on_c, 0, 63, 0
2, 25440, Note_on_c, 0, 67, 0
2, 25440, Note_on_c, 0, 70, 0
2, 25440, Note_on_c, 0, 65, 91
2, 25440, Note_on_c, 0, 70, 91
2, 25440, Note_on_c, 0, 77, 91
2, 25680, Note_on_c, 0, 77, 0
2, 25680, Note_on_c, 0, 70, 0
2, 25680, Note_on_c, 0, 65, 0
2, 25680, Note_on_c, 0, 63, 91
2, 25680, Note_on_c, 0, 69, 91
2, 25680, Note_on_c, 0, 77, 91
2, 25920, Note_on_c, 0, 77, 0
2, 25920, Note_on_c, 0, 69, 0
2, 25920, Note_on_c, 0, 63, 0
2, 25920, Note_on_c, 0, 65, 91
2, 25920, Note_on_c, 0, 70, 91
2, 26400, Note_on_c, 0, 70, 0
2, 26400, Note_on_c, 0, 65, 0
2, 26400, Note_on_c, 0, 65, 91
2, 26400, Note_on_c, 0, 70, 91
2, 26640, Note_on_c, 0, 70, 0
2, 26640, Note_on_c, 0, 65, 0
2, 26640, Note_on_c, 0, 65, 91
2, 26640, Note_on_c, 0, 70, 91
2, 26880, Note_on_c, 0, 70, 0
2, 26880, Note_on_c, 0, 65, 0
2, 26880, Note_on_c, 0, 60, 91
2, 26880, Note_on_c, 0, 67, 91
2, 26880, Note_on_c, 0, 70, 91
2, 26880, Note_on_c, 0, 72, 91
2, 27120, Note_on_c, 0, 70, 0
2, 27120, Note_on_c, 0, 67, 0
2, 27120, Note_on_c, 0, 69, 91
2, 27240, Note_on_c, 0, 69, 0
2, 27240, Note_on_c, 0, 60, 0
2, 27240, Note_on_c, 0, 72, 0
2, 27240, Note_on_c, 0, 67, 91
2, 27360, Note_on_c, 0, 67, 0
2, 27360, Note_on_c, 0, 62, 91
2, 27360, Note_on_c, 0, 66, 91
2, 27360, Note_on_c, 0, 69, 91
2, 27360, Note_on_c, 0, 74, 91
2, 27720, Note_on_c, 0, 74, 0
2, 27720, Note_on_c, 0, 62, 0
2, 27720, Note_on_c, 0, 66, 0
2, 27720, Note_on_c, 0, 69, 0
2, 27720, Note_on_c, 0, 62, 91
2, 27720, Note_on_c, 0, 66, 91
2, 27720, Note_on_c, 0, 69, 91
2, 27720, Note_on_c, 0, 74, 91
2, 27840, Note_on_c, 0, 74, 0
2, 27840, Note_on_c, 0, 62, 0
2, 27840, Note_on_c, 0, 66, 0
2, 27840, Note_on_c, 0, 69, 0
2, 27840, Note_on_c, 0, 67, 91
2, 27840, Note_on_c, 0, 70, 91
2, 27840, Note_on_c, 0, 74, 91
2, 27840, Note_on_c, 0, 79, 91
2, 27960, Note_on_c, 0, 79, 0
2, 27960, Note_on_c, 0, 67, 0
2, 27960, Note_on_c, 0, 70, 0
2, 27960, Note_on_c, 0, 74, 0
2, 27960, Note_on_c, 0, 62, 91
2, 28080, Note_on_c, 0, 62, 0
2, 28080, Note_on_c, 0, 63, 91
2, 28200, Note_on_c, 0, 63, 0
2, 28200, Note_on_c, 0, 66, 91
2, 28320, Note_on_c, 0, 66, 0
2, 28320, Note_on_c, 0, 67, 91
2, 28440, Note_on_c, 0, 67, 0
2, 28440, Note_on_c, 0, 69, 91
2, 28560, Note_on_c, 0, 69, 0
2, 28560, Note_on_c, 0, 70, 91
2, 28680, Note_on_c, 0, 70, 0
2, 28680, Note_on_c, 0, 74, 91
2, 28800, Note_on_c, 0, 74, 0
2, 28800, Note_on_c, 0, 67, 91
2, 28800, Note_on_c, 0, 79, 91
2, 28920, Note_on_c, 0, 79, 0
2, 28920, Note_on_c, 0, 67, 0
2, 28920, Note_on_c, 0, 62, 91
2, 28920, Note_on_c, 0, 74, 91
2, 29040, Note_on_c, 0, 74, 0
2, 29040, Note_on_c, 0, 62, 0
2, 29040, Note_on_c, 0, 64, 91
2, 29040, Note_on_c, 0, 76, 91
2, 29160, Note_on_c, 0, 76, 0
2, 29160, Note_on_c, 0, 64, 0
2, 29160, Note_on_c, 0, 66, 91
2, 29160, Note_on_c, 0, 78, 91
2, 29280, Note_on_c, 0, 78, 0
2, 29280, Note_on_c, 0, 66, 0
2, 29280, Note_on_c, 0, 67, 91
2, 29280, Note_on_c, 0, 79, 91
2, 29400, Note_on_c, 0, 79, 0
2, 29400, Note_on_c, 0, 67, 0
2, 29400, Note_on_c, 0, 69, 91
2, 29400, Note_on_c, 0, 81, 91
2, 29520, Note_on_c, 0, 81, 0
2, 29520, Note_on_c, 0, 69, 0
2, 29520, Note_on_c, 0, 70, 91
2, 29520, Note_on_c, 0, 82, 91
2, 29640, Note_on_c, 0, 82, 0
2, 29640, Note_on_c, 0, 70, 0
2, 29640, Note_on_c, 0, 74, 91
2, 29640, Note_on_c, 0, 86, 91
2, 29760, Note_on_c, 0, 86, 0
2, 29760, Note_on_c, 0, 74, 0
2, 29760, Note_on_c, 0, 79, 91
2, 29760, Note_on_c, 0, 82, 91
2, 29760, Note_on_c, 0, 86, 91
2, 29760, Note_on_c, 0, 91, 91
2, 30240, Note_on_c, 0, 91, 0
2, 30240, Note_on_c, 0, 79, 0
2, 30240, Note_on_c, 0, 82, 0
2, 30240, Note_on_c, 0, 86, 0
2, 30240, Note_on_c, 0, 79, 91
2, 30240, Note_on_c, 0, 82, 91
2, 30240, Note_on_c, 0, 86, 91
2, 30240, Note_on_c, 0, 91, 91
2, 30480, Note_on_c, 0, 91, 0
2, 30480, Note_on_c, 0, 79, 0
2, 30480, Note_on_c, 0, 82, 0
2, 30480, Note_on_c, 0, 86, 0
2, 30480, Note_on_c, 0, 79, 91
2, 30480, Note_on_c, 0, 82, 91
2, 30480, Note_on_c, 0, 86, 91
2, 30480, Note_on_c, 0, 91, 91
2, 30720, Note_on_c, 0, 91, 0
2, 30720, Note_on_c, 0, 79, 0
2, 30720, Note_on_c, 0, 82, 0
2, 30720, Note_on_c, 0, 86, 0
2, 30720, Note_on_c, 0, 77, 91
2, 30720, Note_on_c, 0, 81, 91
2, 30720, Note_on_c, 0, 86, 91
2, 30720, Note_on_c, 0, 89, 91
2, 31200, Note_on_c, 0, 89, 0
2, 31200, Note_on_c, 0, 77, 0
2, 31200, Note_on_c, 0, 81, 0
2, 31200, Note_on_c, 0, 86, 0
2, 31200, Note_on_c, 0, 77, 91
2, 31200, Note_on_c, 0, 81, 91
2, 31200, Note_on_c, 0, 86, 91
2, 31200, Note_on_c, 0, 89, 91
2, 31440, Note_on_c, 0, 89, 0
2, 31440, Note_on_c, 0, 77, 0
2, 31440, Note_on_c, 0, 81, 0
2, 31440, Note_on_c, 0, 86, 0
2, 31440, Note_on_c, 0, 82, 91
2, 31440, Note_on_c, 0, 86, 91
2, 31440, Note_on_c, 0, 91, 91
2, 31440, Note_on_c, 0, 94, 91
2, 31680, Note_on_c, 0, 94, 0
2, 31680, Note_on_c, 0, 82, 0
2, 31680, Note_on_c, 0, 86, 0
2, 31680, Note_on_c, 0, 91, 0
2, 31680, Note_on_c, 0, 81, 91
2, 31680, Note_on_c, 0, 84, 91
2, 31680, Note_on_c, 0, 86, 91
2, 31680, Note_on_c, 0, 93, 91
2, 31920, Note_on_c, 0, 93, 0
2, 31920, Note_on_c, 0, 81, 0
2, 31920, Note_on_c, 0, 84, 0
2, 31920, Note_on_c, 0, 86, 0
2, 31920, Note_on_c, 0, 79, 91
2, 31920, Note_on_c, 0, 82, 91
2, 31920, Note_on_c, 0, 86, 91
2, 31920, Note_on_c, 0, 91, 91
2, 32160, Note_on_c, 0, 91, 0
2, 32160, Note_on_c, 0, 79, 0
2, 32160, Note_on_c, 0, 82, 0
2, 32160, Note_on_c, 0, 86, 0
2, 32160, Note_on_c, 0, 78, 91
2, 32160, Note_on_c, 0, 84, 91
2, 32160, Note_on_c, 0, 86, 91
2, 32160, Note_on_c, 0, 90, 91
2, 32400, Note_on_c, 0, 90, 0
2, 32400, Note_on_c, 0, 78, 0
2, 32400, Note_on_c, 0, 84, 0
2, 32400, Note_on_c, 0, 86, 0
2, 32400, Note_on_c, 0, 79, 91
2, 32400, Note_on_c, 0, 82, 91
2, 32400, Note_on_c, 0, 86, 91
2, 32400, Note_on_c, 0, 91, 91
2, 32640, Note_on_c, 0, 91, 0
2, 32640, Note_on_c, 0, 79, 0
2, 32640, Note_on_c, 0, 82, 0
2, 32640, Note_on_c, 0, 86, 0
2, 32640, Note_on_c, 0, 74, 91
2, 32640, Note_on_c, 0, 78, 91
2, 32640, Note_on_c, 0, 81, 91
2, 32640, Note_on_c, 0, 86, 91
2, 32760, Note_on_c, 0, 86, 0
2, 32760, Note_on_c, 0, 74, 0
2, 32760, Note_on_c, 0, 78, 0
2, 32760, Note_on_c, 0, 81, 0
2, 32820, Note_on_c, 0, 62, 91
2, 32940, Note_on_c, 0, 62, 0
2, 32940, Note_on_c, 0, 66, 91
2, 33060, Note_on_c, 0, 66, 0
2, 33060, Note_on_c, 0, 69, 91
2, 33180, Note_on_c, 0, 69, 0
2, 33180, Note_on_c, 0, 74, 91
2, 33300, Note_on_c, 0, 74, 0
2, 33300, Note_on_c, 0, 78, 91
2, 33420, Note_on_c, 0, 78, 0
2, 33420, Note_on_c, 0, 81, 91
2, 33540, Note_on_c, 0, 81, 0
2, 33540, Note_on_c, 0, 86, 91
2, 33600, Note_on_c, 0, 86, 0
2, 33600, Note_on_c, 0, 79, 91
2, 33600, Note_on_c, 0, 82, 91
2, 33600, Note_on_c, 0, 86, 91
2, 33600, Note_on_c, 0, 91, 91
2, 34080, Note_on_c, 0, 91, 0
2, 34080, Note_on_c, 0, 79, 0
2, 34080, Note_on_c, 0, 82, 0
2, 34080, Note_on_c, 0, 86, 0
2, 34080, Note_on_c, 0, 79, 91
2, 34080, Note_on_c, 0, 82, 91
2, 34080, Note_on_c, 0, 86, 91
2, 34080, Note_on_c, 0, 91, 91
2, 34320, Note_on_c, 0, 91, 0
2, 34320, Note_on_c, 0, 79, 0
2, 34320, Note_on_c, 0, 82, 0
2, 34320, Note_on_c, 0, 86, 0
2, 34320, Note_on_c, 0, 79, 91
2, 34320, Note_on_c, 0, 82, 91
2, 34320, Note_on_c, 0, 86, 91
2, 34320, Note_on_c, 0, 91, 91
2, 34560, Note_on_c, 0, 91, 0
2, 34560, Note_on_c, 0, 79, 0
2, 34560, Note_on_c, 0, 82, 0
2, 34560, Note_on_c, 0, 86, 0
2, 34560, Note_on_c, 0, 77, 91
2, 34560, Note_on_c, 0, 81, 91
2, 34560, Note_on_c, 0, 86, 91
2, 34560, Note_on_c, 0, 89, 91
2, 35040, Note_on_c, 0, 89, 0
2, 35040, Note_on_c, 0, 77, 0
2, 35040, Note_on_c, 0, 81, 0
2, 35040, Note_on_c, 0, 86, 0
2, 35040, Note_on_c, 0, 77, 91
2, 35040, Note_on_c, 0, 81, 91
2, 35040, Note_on_c, 0, 86, 91
2, 35040, Note_on_c, 0, 89, 91
2, 35280, Note_on_c, 0, 89, 0
2, 35280, Note_on_c, 0, 77, 0
2, 35280, Note_on_c, 0, 81, 0
2, 35280, Note_on_c, 0, 86, 0
2, 35280, Note_on_c, 0, 82, 91
2, 35280, Note_on_c, 0, 86, 91
2, 35280, Note_on_c, 0, 91, 91
2, 35280, Note_on_c, 0, 94, 91
2, 35520, Note_on_c, 0, 94, 0
2, 35520, Note_on_c, 0, 82, 0
2, 35520, Note_on_c, 0, 86, 0
2, 35520, Note_on_c, 0, 91, 0
2, 35520, Note_on_c, 0, 81, 91
2, 35520, Note_on_c, 0, 84, 91
2, 35520, Note_on_c, 0, 86, 91
2, 35520, Note_on_c, 0, 93, 91
2, 35760, Note_on_c, 0, 93, 0
2, 35760, Note_on_c, 0, 81, 0
2, 35760, Note_on_c, 0, 84, 0
2, 35760, Note_on_c, 0, 86, 0
2, 35760, Note_on_c, 0, 79, 91
2, 35760, Note_on_c, 0, 82, 91
2, 35760, Note_on_c, 0, 86, 91
2, 35760, Note_on_c, 0, 91, 91
2, 36000, Note_on_c, 0, 91, 0
2, 36000, Note_on_c, 0, 79, 0
2, 36000, Note_on_c, 0, 82, 0
2, 36000, Note_on_c, 0, 86, 0
2, 36000, Note_on_c, 0, 78, 91
2, 36000, Note_on_c, 0, 84, 91
2, 36000, Note_on_c, 0, 86, 91
2, 36000, Note_on_c, 0, 90, 91
2, 36240, Note_on_c, 0, 90, 0
2, 36240, Note_on_c, 0, 78, 0
2, 36240, Note_on_c, 0, 84, 0
2, 36240, Note_on_c, 0, 86, 0
2, 36240, Note_on_c, 0, 79, 91
2, 36240, Note_on_c, 0, 82, 91
2, 36240, Note_on_c, 0, 86, 91
2, 36240, Note_on_c, 0, 91, 91
2, 36480, Note_on_c, 0, 91, 0
2, 36480, Note_on_c, 0, 79, 0
2, 36480, Note_on_c, 0, 82, 0
2, 36480, Note_on_c, 0, 86, 0
2, 36480, Note_on_c, 0, 74, 91
2, 36480, Note_on_c, 0, 78, 91
2, 36480, Note_on_c, 0, 81, 91
2, 36480, Note_on_c, 0, 86, 91
2, 36600, Note_on_c, 0, 86, 0
2, 36600, Note_on_c, 0, 74, 0
2, 36600, Note_on_c, 0, 78, 0
2, 36600, Note_on_c, 0, 81, 0
2, 36660, Note_on_c, 0, 69, 91
2, 36780, Note_on_c, 0, 69, 0
2, 36780, Note_on_c, 0, 74, 91
2, 36900, Note_on_c, 0, 74, 0
2, 36900, Note_on_c, 0, 78, 91
2, 37020, Note_on_c, 0, 78, 0
2, 37020, Note_on_c, 0, 81, 91
2, 37140, Note_on_c, 0, 81, 0
2, 37140, Note_on_c, 0, 86, 91
2, 37260, Note_on_c, 0, 86, 0
2, 37260, Note_on_c, 0, 90, 91
2, 37380, Note_on_c, 0, 90, 0
2, 37380, Note_on_c, 0, 93, 91
2, 37440, Note_on_c, 0, 93, 0
2, 37440, Note_on_c, 0, 82, 91
2, 37440, Note_on_c, 0, 86, 91
2, 37440, Note_on_c, 0, 91, 91
2, 37440, Note_on_c, 0, 94, 91
2, 37920, Note_on_c, 0, 94, 0
2, 37920, Note_on_c, 0, 82, 0
2, 37920, Note_on_c, 0, 86, 0
2, 37920, Note_on_c, 0, 91, 0
2, 37920, Note_on_c, 0, 81, 91
2, 37920, Note_on_c, 0, 84, 91
2, 37920, Note_on_c, 0, 86, 91
2, 37920, Note_on_c, 0, 93, 91
2, 38160, Note_on_c, 0, 93, 0
2, 38160, Note_on_c, 0, 81, 0
2, 38160, Note_on_c, 0, 84, 0
2, 38160, Note_on_c, 0, 86, 0
2, 38160, Note_on_c, 0, 79, 91
2, 38160, Note_on_c, 0, 82, 91
2, 38160, Note_on_c, 0, 86, 91
2, 38160, Note_on_c, 0, 91, 91
2, 38400, Note_on_c, 0, 91, 0
2, 38400, Note_on_c, 0, 79, 0
2, 38400, Note_on_c, 0, 82, 0
2, 38400, Note_on_c, 0, 86, 0
2, 38400, Note_on_c, 0, 81, 91
2, 38400, Note_on_c, 0, 86, 91
2, 38400, Note_on_c, 0, 90, 91
2, 38400, Note_on_c, 0, 93, 91
2, 38880, Note_on_c, 0, 93, 0
2, 38880, Note_on_c, 0, 81, 0
2, 38880, Note_on_c, 0, 86, 0
2, 38880, Note_on_c, 0, 90, 0
2, 38880, Note_on_c, 0, 81, 91
2, 38880, Note_on_c, 0, 86, 91
2, 38880, Note_on_c, 0, 90, 91
2, 38880, Note_on_c, 0, 93, 91
2, 39060, Note_on_c, 0, 94, 91
2, 39120, Note_on_c, 0, 94, 0
2, 39120, Note_on_c, 0, 90, 0
2, 39120, Note_on_c, 0, 81, 0
2, 39120, Note_on_c, 0, 86, 0
2, 39120, Note_on_c, 0, 93, 0
2, 39120, Note_on_c, 0, 81, 91
2, 39120, Note_on_c, 0, 86, 91
2, 39120, Note_on_c, 0, 90, 91
2, 39120, Note_on_c, 0, 93, 91
2, 39360, Note_on_c, 0, 93, 0
2, 39360, Note_on_c, 0, 81, 0
2, 39360, Note_on_c, 0, 86, 0
2, 39360, Note_on_c, 0, 90, 0
2, 39360, Note_on_c, 0, 79, 91
2, 39360, Note_on_c, 0, 86, 91
2, 39360, Note_on_c, 0, 91, 91
2, 39600, Note_on_c, 0, 91, 0
2, 39600, Note_on_c, 0, 86, 0
2, 39600, Note_on_c, 0, 79, 0
2, 39600, Note_on_c, 0, 79, 91
2, 39600, Note_on_c, 0, 82, 91
2, 39600, Note_on_c, 0, 86, 91
2, 39600, Note_on_c, 0, 91, 91
2, 39840, Note_on_c, 0, 91, 0
2, 39840, Note_on_c, 0, 79, 0
2, 39840, Note_on_c, 0, 82, 0
2, 39840, Note_on_c, 0, 86, 0
2, 39840, Note_on_c, 0, 78, 91
2, 39840, Note_on_c, 0, 84, 91
2, 39840, Note_on_c, 0, 86, 91
2, 39840, Note_on_c, 0, 90, 91
2, 40080, Note_on_c, 0, 90, 0
2, 40080, Note_on_c, 0, 78, 0
2, 40080, Note_on_c, 0, 84, 0
2, 40080, Note_on_c, 0, 86, 0
2, 40080, Note_on_c, 0, 79, 91
2, 40080, Note_on_c, 0, 82, 91
2, 40080, Note_on_c, 0, 86, 91
2, 40080, Note_on_c, 0, 91, 91
2, 40320, Note_on_c, 0, 91, 0
2, 40320, Note_on_c, 0, 79, 0
2, 40320, Note_on_c, 0, 82, 0
2, 40320, Note_on_c, 0, 86, 0
2, 40320, Note_on_c, 0, 74, 91
2, 40320, Note_on_c, 0, 81, 91
2, 40320, Note_on_c, 0, 86, 91
2, 40560, Note_on_c, 0, 86, 0
2, 40560, Note_on_c, 0, 81, 0
2, 40560, Note_on_c, 0, 74, 0
2, 40560, Note_on_c, 0, 74, 91
2, 40560, Note_on_c, 0, 81, 91
2, 40560, Note_on_c, 0, 86, 91
2, 40680, Note_on_c, 0, 86, 0
2, 40680, Note_on_c, 0, 81, 0
2, 40680, Note_on_c, 0, 74, 0
2, 40680, Note_on_c, 0, 75, 91
2, 40680, Note_on_c, 0, 79, 91
2, 40680, Note_on_c, 0, 82, 91
2, 40680, Note_on_c, 0, 87, 91
2, 40800, Note_on_c, 0, 87, 0
2, 40800, Note_on_c, 0, 75, 0
2, 40800, Note_on_c, 0, 79, 0
2, 40800, Note_on_c, 0, 82, 0
2, 40800, Note_on_c, 0, 77, 91
2, 40800, Note_on_c, 0, 82, 91
2, 40800, Note_on_c, 0, 89, 91
2, 41040, Note_on_c, 0, 89, 0
2, 41040, Note_on_c, 0, 82, 0
2, 41040, Note_on_c, 0, 77, 0
2, 41040, Note_on_c, 0, 77, 91
2, 41040, Note_on_c, 0, 81, 91
2, 41040, Note_on_c, 0, 87, 91
2, 41040, Note_on_c, 0, 89, 91
2, 41280, Note_on_c, 0, 89, 0
2, 41280, Note_on_c, 0, 77, 0
2, 41280, Note_on_c, 0, 81, 0
2, 41280, Note_on_c, 0, 87, 0
2, 41280, Note_on_c, 0, 82, 91
2, 41760, Note_on_c, 0, 82, 0
2, 41760, Note_on_c, 0, 70, 91
2, 41760, Note_on_c, 0, 77, 91
2, 41760, Note_on_c, 0, 82, 91
2, 42000, Note_on_c, 0, 82, 0
2, 42000, Note_on_c, 0, 77, 0
2, 42000, Note_on_c, 0, 70, 0
2, 42000, Note_on_c, 0, 70, 91
2, 42000, Note_on_c, 0, 74, 91
2, 42000, Note_on_c, 0, 77, 91
2, 42000, Note_on_c, 0, 82, 91
2, 42240, Note_on_c, 0, 82, 0
2, 42240, Note_on_c, 0, 70, 0
2, 42240, Note_on_c, 0, 74, 0
2, 42240, Note_on_c, 0, 77, 0
2, 42240, Note_on_c, 0, 72, 91
2, 42240, Note_on_c, 0, 84, 91
2, 42720, Note_on_c, 0, 84, 0
2, 42720, Note_on_c, 0, 72, 0
2, 42720, Note_on_c, 0, 74, 91
2, 42720, Note_on_c, 0, 78, 91
2, 42720, Note_on_c, 0, 81, 91
2, 42720, Note_on_c, 0, 86, 91
2, 42960, Note_on_c, 0, 86, 0
2, 42960, Note_on_c, 0, 74, 0
2, 42960, Note_on_c, 0, 78, 0
2, 42960, Note_on_c, 0, 81, 0
2, 42960, Note_on_c, 0, 74, 91
2, 42960, Note_on_c, 0, 78, 91
2, 42960, Note_on_c, 0, 81, 91
2, 42960, Note_on_c, 0, 86, 91
2, 43200, Note_on_c, 0, 86, 0
2, 43200, Note_on_c, 0, 74, 0
2, 43200, Note_on_c, 0, 78, 0
2, 43200, Note_on_c, 0, 81, 0
2, 43200, Note_on_c, 0, 67, 91
2, 43200, Note_on_c, 0, 70, 91
2, 43200, Note_on_c, 0, 74, 91
2, 43200, Note_on_c, 0, 79, 91
2, 43320, Note_on_c, 0, 79, 0
2, 43320, Note_on_c, 0, 67, 0
2, 43320, Note_on_c, 0, 70, 0
2, 43320, Note_on_c, 0, 74, 0
2, 43380, Note_on_c, 0, 67, 91
2, 43500, Note_on_c, 0, 67, 0
2, 43500, Note_on_c, 0, 70, 91
2, 43620, Note_on_c, 0, 70, 0
2, 43620, Note_on_c, 0, 74, 91
2, 43740, Note_on_c, 0, 74, 0
2, 43740, Note_on_c, 0, 79, 91
2, 43860, Note_on_c, 0, 79, 0
2, 43860, Note_on_c, 0, 82, 91
2, 43980, Note_on_c, 0, 82, 0
2, 43980, Note_on_c, 0, 86, 91
2, 44100, Note_on_c, 0, 86, 0
2, 44100, Note_on_c, 0, 91, 91
2, 44160, Note_on_c, 0, 91, 0
2, 44160, Note_on_c, 0, 82, 91
2, 44160, Note_on_c, 0, 86, 91
2, 44160, Note_on_c, 0, 91, 91
2, 44160, Note_on_c, 0, 94, 91
2, 44640, Note_on_c, 0, 94, 0
2, 44640, Note_on_c, 0, 82, 0
2, 44640, Note_on_c, 0, 86, 0
2, 44640, Note_on_c, 0, 91, 0
2, 44640, Note_on_c, 0, 81, 91
2, 44640, Note_on_c, 0, 84, 91
2, 44640, Note_on_c, 0, 86, 91
2, 44640, Note_on_c, 0, 93, 91
2, 44880, Note_on_c, 0, 93, 0
2, 44880, Note_on_c, 0, 81, 0
2, 44880, Note_on_c, 0, 84, 0
2, 44880, Note_on_c, 0, 86, 0
2, 44880, Note_on_c, 0, 79, 91
2, 44880, Note_on_c, 0, 82, 91
2, 44880, Note_on_c, 0, 86, 91
2, 44880, Note_on_c, 0, 91, 91
2, 45120, Note_on_c, 0, 91, 0
2, 45120, Note_on_c, 0, 79, 0
2, 45120, Note_on_c, 0, 82, 0
2, 45120, Note_on_c, 0, 86, 0
2, 45120, Note_on_c, 0, 81, 91
2, 45120, Note_on_c, 0, 86, 91
2, 45120, Note_on_c, 0, 90, 91
2, 45120, Note_on_c, 0, 93, 91
2, 45600, Note_on_c, 0, 93, 0
2, 45600, Note_on_c, 0, 81, 0
2, 45600, Note_on_c, 0, 86, 0
2, 45600, Note_on_c, 0, 90, 0
2, 45600, Note_on_c, 0, 81, 91
2, 45600, Note_on_c, 0, 86, 91
2, 45600, Note_on_c, 0, 90, 91
2, 45600, Note_on_c, 0, 93, 91
2, 45780, Note_on_c, 0, 94, 91
2, 45840, Note_on_c, 0, 94, 0
2, 45840, Note_on_c, 0, 90, 0
2, 45840, Note_on_c, 0, 81, 0
2, 45840, Note_on_c, 0, 86, 0
2, 45840, Note_on_c, 0, 93, 0
2, 45840, Note_on_c, 0, 81, 91
2, 45840, Note_on_c, 0, 86, 91
2, 45840, Note_on_c, 0, 90, 91
2, 45840, Note_on_c, 0, 93, 91
2, 46080, Note_on_c, 0, 93, 0
2, 46080, Note_on_c, 0, 81, 0
2, 46080, Note_on_c, 0, 86, 0
2, 46080, Note_on_c, 0, 90, 0
2, 46080, Note_on_c, 0, 79, 91
2, 46080, Note_on_c, 0, 86, 91
2, 46080, Note_on_c, 0, 91, 91
2, 46320, Note_on_c, 0, 91, 0
2, 46320, Note_on_c, 0, 86, 0
2, 46320, Note_on_c, 0, 79, 0
2, 46320, Note_on_c, 0, 79, 91
2, 46320, Note_on_c, 0, 82, 91
2, 46320, Note_on_c, 0, 86, 91
2, 46320, Note_on_c, 0, 91, 91
2, 46560, Note_on_c, 0, 91, 0
2, 46560, Note_on_c, 0, 79, 0
2, 46560, Note_on_c, 0, 82, 0
2, 46560, Note_on_c, 0, 86, 0
2, 46560, Note_on_c, 0, 78, 91
2, 46560, Note_on_c, 0, 84, 91
2, 46560, Note_on_c, 0, 86, 91
2, 46560, Note_on_c, 0, 90, 91
2, 46800, Note_on_c, 0, 90, 0
2, 46800, Note_on_c, 0, 78, 0
2, 46800, Note_on_c, 0, 84, 0
2, 46800, Note_on_c, 0, 86, 0
2, 46800, Note_on_c, 0, 79, 91
2, 46800, Note_on_c, 0, 82, 91
2, 46800, Note_on_c, 0, 86, 91
2, 46800, Note_on_c, 0, 91, 91
2, 47040, Note_on_c, 0, 91, 0
2, 47040, Note_on_c, 0, 79, 0
2, 47040, Note_on_c, 0, 82, 0
2, 47040, Note_on_c, 0, 86, 0
2, 47040, Note_on_c, 0, 74, 91
2, 47040, Note_on_c, 0, 81, 91
2, 47040, Note_on_c, 0, 86, 91
2, 47280, Note_on_c, 0, 86, 0
2, 47280, Note_on_c, 0, 81, 0
2, 47280, Note_on_c, 0, 74, 0
2, 47280, Note_on_c, 0, 74, 91
2, 47280, Note_on_c, 0, 81, 91
2, 47280, Note_on_c, 0, 86, 91
2, 47400, Note_on_c, 0, 86, 0
2, 47400, Note_on_c, 0, 81, 0
2, 47400, Note_on_c, 0, 74, 0
2, 47400, Note_on_c, 0, 75, 91
2, 47400, Note_on_c, 0, 79, 91
2, 47400, Note_on_c, 0, 82, 91
2, 47400, Note_on_c, 0, 87, 91
2, 47520, Note_on_c, 0, 87, 0
2, 47520, Note_on_c, 0, 75, 0
2, 47520, Note_on_c, 0, 79, 0
2, 47520, Note_on_c, 0, 82, 0
2, 47520, Note_on_c, 0, 77, 91
2, 47520, Note_on_c, 0, 82, 91
2, 47520, Note_on_c, 0, 89, 91
2, 47760, Note_on_c, 0, 89, 0
2, 47760, Note_on_c, 0, 82, 0
2, 47760, Note_on_c, 0, 77, 0
2, 47760, Note_on_c, 0, 77, 91
2, 47760, Note_on_c, 0, 81, 91
2, 47760, Note_on_c, 0, 87, 91
2, 47760, Note_on_c, 0, 89, 91
2, 48000, Note_on_c, 0, 89, 0
2, 48000, Note_on_c, 0, 77, 0
2, 48000, Note_on_c, 0, 81, 0
2, 48000, Note_on_c, 0, 87, 0
2, 48000, Note_on_c, 0, 82, 91
2, 48480, Note_on_c, 0, 82, 0
2, 48480, Note_on_c, 0, 70, 91
2, 48480, Note_on_c, 0, 77, 91
2, 48480, Note_on_c, 0, 82, 91
2, 48720, Note_on_c, 0, 82, 0
2, 48720, Note_on_c, 0, 77, 0
2, 48720, Note_on_c, 0, 70, 0
2, 48720, Note_on_c, 0, 70, 91
2, 48720, Note_on_c, 0, 74, 91
2, 48720, Note_on_c, 0, 77, 91
2, 48720, Note_on_c, 0, 82, 91
2, 48960, Note_on_c, 0, 82, 0
2, 48960, Note_on_c, 0, 70, 0
2, 48960, Note_on_c, 0, 74, 0
2, 48960, Note_on_c, 0, 77, 0
2, 48960, Note_on_c, 0, 72, 91
2, 48960, Note_on_c, 0, 84, 91
2, 49440, Note_on_c, 0, 84, 0
2, 49440, Note_on_c, 0, 72, 0
2, 49440, Note_on_c, 0, 74, 91
2, 49440, Note_on_c, 0, 78, 91
2, 49440, Note_on_c, 0, 81, 91
2, 49440, Note_on_c, 0, 86, 91
2, 49680, Note_on_c, 0, 86, 0
2, 49680, Note_on_c, 0, 74, 0
2, 49680, Note_on_c, 0, 78, 0
2, 49680, Note_on_c, 0, 81, 0
2, 49680, Note_on_c, 0, 74, 91
2, 49680, Note_on_c, 0, 78, 91
2, 49680, Note_on_c, 0, 81, 91
2, 49680, Note_on_c, 0, 86, 91
2, 49920, Note_on_c, 0, 86, 0
2, 49920, Note_on_c, 0, 74, 0
2, 49920, Note_on_c, 0, 78, 0
2, 49920, Note_on_c, 0, 81, 0
2, 49920, Control_c, 0, 64, 127
2, 49920, Note_on_c, 0, 70, 78
2, 49920, Note_on_c, 0, 74, 78
2, 49920, Note_on_c, 0, 79, 78
2, 49980, Note_on_c, 0, 79, 0
2, 49980, Note_on_c, 0, 74, 0
2, 49980, Note_on_c, 0, 70, 0
2, 49980, Note_on_c, 0, 67, 78
2, 50040, Note_on_c, 0, 67, 0
2, 50040, Note_on_c, 0, 70, 78
2, 50040, Note_on_c, 0, 74, 78
2, 50040, Note_on_c, 0, 79, 78
2, 50100, Note_on_c, 0, 79, 0
2, 50100, Note_on_c, 0, 74, 0
2, 50100, Note_on_c, 0, 70, 0
2, 50100, Note_on_c, 0, 67, 78
2, 50160, Note_on_c, 0, 67, 0
2, 50160, Note_on_c, 0, 70, 78
2, 50160, Note_on_c, 0, 74, 78
2, 50160, Note_on_c, 0, 79, 78
2, 50220, Note_on_c, 0, 79, 0
2, 50220, Note_on_c, 0, 74, 0
2, 50220, Note_on_c, 0, 70, 0
2, 50220, Note_on_c, 0, 67, 78
2, 50280, Note_on_c, 0, 67, 0
2, 50280, Note_on_c, 0, 70, 78
2, 50280, Note_on_c, 0, 74, 78
2, 50280, Note_on_c, 0, 79, 78
2, 50340, Note_on_c, 0, 79, 0
2, 50340, Note_on_c, 0, 74, 0
2, 50340, Note_on_c, 0, 70, 0
2, 50340, Note_on_c, 0, 67, 78
2, 50400, Note_on_c, 0, 67, 0
2, 50400, Note_on_c, 0, 70, 78
2, 50400, Note_on_c, 0, 74, 78
2, 50400, Note_on_c, 0, 79, 78
2, 50460, Note_on_c, 0, 79, 0
2, 50460, Note_on_c, 0, 74, 0
2, 50460, Note_on_c, 0, 70, 0
2, 50460, Note_on_c, 0, 67, 78
2, 50520, Note_on_c, 0, 67, 0
2, 50520, Note_on_c, 0, 70, 78
2, 50520, Note_on_c, 0, 74, 78
2, 50520, Note_on_c, 0, 79, 78
2, 50580, Note_on_c, 0, 79, 0
2, 50580, Note_on_c, 0, 74, 0
2, 50580, Note_on_c, 0, 70, 0
2, 50580, Note_on_c, 0, 67, 78
2, 50640, Note_on_c, 0, 67, 0
2, 50640, Note_on_c, 0, 70, 78
2, 50640, Note_on_c, 0, 74, 78
2, 50640, Note_on_c, 0, 79, 78
2, 50700, Note_on_c, 0, 79, 0
2, 50700, Note_on_c, 0, 74, 0
2, 50700, Note_on_c, 0, 70, 0
2, 50700, Note_on_c, 0, 67, 78
2, 50760, Note_on_c, 0, 67, 0
2, 50760, Control_c, 0, 64, 0
2, 50760, Note_on_c, 0, 70, 78
2, 50760, Note_on_c, 0, 74, 78
2, 50760, Note_on_c, 0, 79, 78
2, 50820, Note_on_c, 0, 79, 0
2, 50820, Note_on_c, 0, 74, 0
2, 50820, Note_on_c, 0, 70, 0
2, 50820, Note_on_c, 0, 67, 78
2, 50880, Note_on_c, 0, 67, 0
2, 50880, Control_c, 0, 64, 127
2, 50880, Note_on_c, 0, 74, 78
2, 50880, Note_on_c, 0, 79, 78
2, 50880, Note_on_c, 0, 82, 78
2, 50940, Note_on_c, 0, 82, 0
2, 50940, Note_on_c, 0, 79, 0
2, 50940, Note_on_c, 0, 74, 0
2, 50940, Note_on_c, 0, 70, 78
2, 51000, Note_on_c, 0, 70, 0
2, 51000, Note_on_c, 0, 74, 78
2, 51000, Note_on_c, 0, 79, 78
2, 51000, Note_on_c, 0, 82, 78
2, 51060, Note_on_c, 0, 82, 0
2, 51060, Note_on_c, 0, 79, 0
2, 51060, Note_on_c, 0, 74, 0
2, 51060, Note_on_c, 0, 70, 78
2, 51120, Note_on_c, 0, 70, 0
2, 51120, Note_on_c, 0, 74, 78
2, 51120, Note_on_c, 0, 79, 78
2, 51120, Note_on_c, 0, 82, 78
2, 51180, Note_on_c, 0, 82, 0
2, 51180, Note_on_c, 0, 79, 0
2, 51180, Note_on_c, 0, 74, 0
2, 51180, Note_on_c, 0, 70, 78
2, 51240, Note_on_c, 0, 70, 0
2, 51240, Control_c, 0, 64, 0
2, 51240, Note_on_c, 0, 74, 78
2, 51240, Note_on_c, 0, 79, 78
2, 51240, Note_on_c, 0, 82, 78
2, 51300, Note_on_c, 0, 82, 0
2, 51300, Note_on_c, 0, 79, 0
2, 51300, Note_on_c, 0, 74, 0
2, 51300, Note_on_c, 0, 70, 78
2, 51360, Note_on_c, 0, 70, 0
2, 51360, Control_c, 0, 64, 127
2, 51360, Note_on_c, 0, 79, 78
2, 51360, Note_on_c, 0, 81, 78
2, 51360, Note_on_c, 0, 84, 78
2, 51420, Note_on_c, 0, 84, 0
2, 51420, Note_on_c, 0, 81, 0
2, 51420, Note_on_c, 0, 79, 0
2, 51420, Note_on_c, 0, 72, 78
2, 51480, Note_on_c, 0, 72, 0
2, 51480, Note_on_c, 0, 79, 78
2, 51480, Note_on_c, 0, 81, 78
2, 51480, Note_on_c, 0, 84, 78
2, 51540, Note_on_c, 0, 84, 0
2, 51540, Note_on_c, 0, 81, 0
2, 51540, Note_on_c, 0, 79, 0
2, 51540, Note_on_c, 0, 72, 78
2, 51600, Note_on_c, 0, 72, 0
2, 51600, Note_on_c, 0, 79, 78
2, 51600, Note_on_c, 0, 81, 78
2, 51600, Note_on_c, 0, 84, 78
2, 51660, Note_on_c, 0, 84, 0
2, 51660, Note_on_c, 0, 81, 0
2, 51660, Note_on_c, 0, 79, 0
2, 51660, Note_on_c, 0, 72, 78
2, 51720, Note_on_c, 0, 72, 0
2, 51720, Note_on_c, 0, 79, 78
2, 51720, Note_on_c, 0, 81, 78
2, 51720, Note_on_c, 0, 84, 78
2, 51780, Note_on_c, 0, 84, 0
2, 51780, Note_on_c, 0, 81, 0
2, 51780, Note_on_c, 0, 79, 0
2, 51780, Control_c, 0, 64, 0
2, 51780, Note_on_c, 0, 72, 78
2, 51840, Note_on_c, 0, 72, 0
2, 51840, Control_c, 0, 64, 127
2, 51840, Note_on_c, 0, 78, 78
2, 51840, Note_on_c, 0, 81, 78
2, 51840, Note_on_c, 0, 86, 78
2, 51900, Note_on_c, 0, 86, 0
2, 51900, Note_on_c, 0, 81, 0
2, 51900, Note_on_c, 0, 78, 0
2, 51900, Note_on_c, 0, 74, 78
2, 51960, Note_on_c, 0, 74, 0
2, 51960, Note_on_c, 0, 78, 78
2, 51960, Note_on_c, 0, 81, 78
2, 51960, Note_on_c, 0, 86, 78
2, 52020, Note_on_c, 0, 86, 0
2, 52020, Note_on_c, 0, 81, 0
2, 52020, Note_on_c, 0, 78, 0
2, 52020, Note_on_c, 0, 74, 78
2, 52080, Note_on_c, 0, 74, 0
2, 52080, Note_on_c, 0, 78, 78
2, 52080, Note_on_c, 0, 81, 78
2, 52080, Note_on_c, 0, 86, 78
2, 52140, Note_on_c, 0, 86, 0
2, 52140, Note_on_c, 0, 81, 0
2, 52140, Note_on_c, 0, 78, 0
2, 52140, Note_on_c, 0, 74, 78
2, 52200, Note_on_c, 0, 74, 0
2, 52200, Note_on_c, 0, 78, 78
2, 52200, Note_on_c, 0, 81, 78
2, 52200, Note_on_c, 0, 86, 78
2, 52260, Note_on_c, 0, 86, 0
2, 52260, Note_on_c, 0, 81, 0
2, 52260, Note_on_c, 0, 78, 0
2, 52260, Note_on_c, 0, 74, 78
2, 52320, Note_on_c, 0, 74, 0
2, 52320, Note_on_c, 0, 78, 78
2, 52320, Note_on_c, 0, 81, 78
2, 52320, Note_on_c, 0, 86, 78
2, 52380, Note_on_c, 0, 86, 0
2, 52380, Note_on_c, 0, 81, 0
2, 52380, Note_on_c, 0, 78, 0
2, 52380, Note_on_c, 0, 74, 78
2, 52440, Note_on_c, 0, 74, 0
2, 52440, Note_on_c, 0, 78, 78
2, 52440, Note_on_c, 0, 81, 78
2, 52440, Note_on_c, 0, 86, 78
2, 52500, Note_on_c, 0, 86, 0
2, 52500, Note_on_c, 0, 81, 0
2, 52500, Note_on_c, 0, 78, 0
2, 52500, Note_on_c, 0, 74, 78
2, 52560, Note_on_c, 0, 74, 0
2, 52560, Note_on_c, 0, 78, 78
2, 52560, Note_on_c, 0, 81, 78
2, 52560, Note_on_c, 0, 86, 78
2, 52620, Note_on_c, 0, 86, 0
2, 52620, Note_on_c, 0, 81, 0
2, 52620, Note_on_c, 0, 78, 0
2, 52620, Note_on_c, 0, 74, 78
2, 52680, Note_on_c, 0, 74, 0
2, 52680, Note_on_c, 0, 78, 78
2, 52680, Note_on_c, 0, 81, 78
2, 52680, Note_on_c, 0, 86, 78
2, 52740, Note_on_c, 0, 86, 0
2, 52740, Note_on_c, 0, 81, 0
2, 52740, Note_on_c, 0, 78, 0
2, 52740, Control_c, 0, 64, 0
2, 52740, Note_on_c, 0, 74, 78
2, 52800, Note_on_c, 0, 74, 0
2, 52800, Control_c, 0, 64, 127
2, 52800, Note_on_c, 0, 79, 78
2, 52800, Note_on_c, 0, 86, 78
2, 52800, Note_on_c, 0, 88, 78
2, 52860, Note_on_c, 0, 88, 0
2, 52860, Note_on_c, 0, 86, 0
2, 52860, Note_on_c, 0, 79, 0
2, 52860, Note_on_c, 0, 76, 78
2, 52920, Note_on_c, 0, 76, 0
2, 52920, Note_on_c, 0, 79, 78
2, 52920, Note_on_c, 0, 86, 78
2, 52920, Note_on_c, 0, 88, 78
2, 52980, Note_on_c, 0, 88, 0
2, 52980, Note_on_c, 0, 86, 0
2, 52980, Note_on_c, 0, 79, 0
2, 52980, Note_on_c, 0, 76, 78
2, 53040, Note_on_c, 0, 76, 0
2, 53040, Note_on_c, 0, 79, 78
2, 53040, Note_on_c, 0, 86, 78
2, 53040, Note_on_c, 0, 88, 78
2, 53100, Note_on_c, 0, 88, 0
2, 53100, Note_on_c, 0, 86, 0
2, 53100, Note_on_c, 0, 79, 0
2, 53100, Note_on_c, 0, 76, 78
2, 53160, Note_on_c, 0, 76, 0
2, 53160, Note_on_c, 0, 79, 78
2, 53160, Note_on_c, 0, 86, 78
2, 53160, Note_on_c, 0, 88, 78
2, 53220, Note_on_c, 0, 88, 0
2, 53220, Note_on_c, 0, 86, 0
2, 53220, Note_on_c, 0, 79, 0
2, 53220, Control_c, 0, 64, 0
2, 53220, Note_on_c, 0, 76, 78
2, 53280, Note_on_c, 0, 76, 0
2, 53280, Control_c, 0, 64, 127
2, 53280, Note_on_c, 0, 84, 78
2, 53280, Note_on_c, 0, 86, 78
2, 53280, Note_on_c, 0, 90, 78
2, 53340, Note_on_c, 0, 90, 0
2, 53340, Note_on_c, 0, 86, 0
2, 53340, Note_on_c, 0, 84, 0
2, 53340, Note_on_c, 0, 78, 78
2, 53400, Note_on_c, 0, 78, 0
2, 53400, Note_on_c, 0, 84, 78
2, 53400, Note_on_c, 0, 86, 78
2, 53400, Note_on_c, 0, 90, 78
2, 53460, Note_on_c, 0, 90, 0
2, 53460, Note_on_c, 0, 86, 0
2, 53460, Note_on_c, 0, 84, 0
2, 53460, Note_on_c, 0, 78, 78
2, 53520, Note_on_c, 0, 78, 0
2, 53520, Note_on_c, 0, 84, 78
2, 53520, Note_on_c, 0, 86, 78
2, 53520, Note_on_c, 0, 90, 78
2, 53580, Note_on_c, 0, 90, 0
2, 53580, Note_on_c, 0, 86, 0
2, 53580, Note_on_c, 0, 84, 0
2, 53580, Note_on_c, 0, 78, 78
2, 53640, Note_on_c, 0, 78, 0
2, 53640, Note_on_c, 0, 84, 78
2, 53640, Note_on_c, 0, 86, 78
2, 53640, Note_on_c, 0, 90, 78
2, 53700, Note_on_c, 0, 90, 0
2, 53700, Note_on_c, 0, 86, 0
2, 53700, Note_on_c, 0, 84, 0
2, 53700, Control_c, 0, 64, 0
2, 53700, Note_on_c, 0, 78, 78
2, 53760, Note_on_c, 0, 78, 0
2, 53760, Note_on_c, 0, 79, 91
2, 53760, Note_on_c, 0, 82, 91
2, 53760, Note_on_c, 0, 86, 91
2, 53760, Note_on_c, 0, 91, 91
2, 54000, Note_on_c, 0, 91, 0
2, 54000, Note_on_c, 0, 79, 0
2, 54000, Note_on_c, 0, 82, 0
2, 54000, Note_on_c, 0, 86, 0
2, 54000, Note_on_c, 0, 67, 91
2, 54000, Note_on_c, 0, 70, 91
2, 54000, Note_on_c, 0, 74, 91
2, 54000, Note_on_c, 0, 79, 91
2, 54240, Note_on_c, 0, 79, 0
2, 54240, Note_on_c, 0, 67, 0
2, 54240, Note_on_c, 0, 70, 0
2, 54240, Note_on_c, 0, 74, 0
2, 54240, Note_on_c, 0, 70, 91
2, 54240, Note_on_c, 0, 74, 91
2, 54240, Note_on_c, 0, 79, 91
2, 54240, Note_on_c, 0, 82, 91
2, 54480, Note_on_c, 0, 82, 0
2, 54480, Note_on_c, 0, 70, 0
2, 54480, Note_on_c, 0, 74, 0
2, 54480, Note_on_c, 0, 79, 0
2, 54480, Note_on_c, 0, 72, 91
2, 54480, Note_on_c, 0, 79, 91
2, 54480, Note_on_c, 0, 81, 91
2, 54480, Note_on_c, 0, 84, 91
2, 54720, Note_on_c, 0, 84, 0
2, 54720, Note_on_c, 0, 72, 0
2, 54720, Note_on_c, 0, 79, 0
2, 54720, Note_on_c, 0, 81, 0
2, 54720, Note_on_c, 0, 74, 91
2, 54720, Note_on_c, 0, 78, 91
2, 54720, Note_on_c, 0, 81, 91
2, 54720, Note_on_c, 0, 86, 91
2, 54960, Note_on_c, 0, 86, 0
2, 54960, Note_on_c, 0, 74, 0
2, 54960, Note_on_c, 0, 78, 0
2, 54960, Note_on_c, 0, 81, 0
2, 54960, Note_on_c, 0, 74, 91
2, 54960, Note_on_c, 0, 78, 91
2, 54960, Note_on_c, 0, 81, 91
2, 54960, Note_on_c, 0, 86, 91
2, 55200, Note_on_c, 0, 86, 0
2, 55200, Note_on_c, 0, 74, 0
2, 55200, Note_on_c, 0, 78, 0
2, 55200, Note_on_c, 0, 81, 0
2, 55200, Note_on_c, 0, 76, 91
2, 55200, Note_on_c, 0, 79, 91
2, 55200, Note_on_c, 0, 86, 91
2, 55200, Note_on_c, 0, 88, 91
2, 55440, Note_on_c, 0, 88, 0
2, 55440, Note_on_c, 0, 76, 0
2, 55440, Note_on_c, 0, 79, 0
2, 55440, Note_on_c, 0, 86, 0
2, 55440, Note_on_c, 0, 78, 91
2, 55440, Note_on_c, 0, 84, 91
2, 55440, Note_on_c, 0, 86, 91
2, 55440, Note_on_c, 0, 90, 91
2, 55680, Note_on_c, 0, 90, 0
2, 55680, Note_on_c, 0, 78, 0
2, 55680, Note_on_c, 0, 84, 0
2, 55680, Note_on_c, 0, 86, 0
2, 55680, Note_on_c, 0, 79, 91
2, 55680, Note_on_c, 0, 82, 91
2, 55680, Note_on_c, 0, 86, 91
2, 55680, Note_on_c, 0, 91, 91
2, 55920, Note_on_c, 0, 91, 0
2, 55920, Note_on_c, 0, 79, 0
2, 55920, Note_on_c, 0, 82, 0
2, 55920, Note_on_c, 0, 86, 0
2, 55920, Note_on_c, 0, 67, 91
2, 55920, Note_on_c, 0, 70, 91
2, 55920, Note_on_c, 0, 74, 91
2, 55920, Note_on_c, 0, 79, 91
2, 56160, Note_on_c, 0, 79, 0
2, 56160, Note_on_c, 0, 67, 0
2, 56160, Note_on_c, 0, 70, 0
2, 56160, Note_on_c, 0, 74, 0
2, 56160, Note_on_c, 0, 70, 91
2, 56160, Note_on_c, 0, 74, 91
2, 56160, Note_on_c, 0, 79, 91
2, 56160, Note_on_c, 0, 82, 91
2, 56400, Note_on_c, 0, 82, 0
2, 56400, Note_on_c, 0, 70, 0
2, 56400, Note_on_c, 0, 74, 0
2, 56400, Note_on_c, 0, 79, 0
2, 56400, Note_on_c, 0, 72, 91
2, 56400, Note_on_c, 0, 79, 91
2, 56400, Note_on_c, 0, 81, 91
2, 56400, Note_on_c, 0, 84, 91
2, 56640, Note_on_c, 0, 84, 0
2, 56640, Note_on_c, 0, 72, 0
2, 56640, Note_on_c, 0, 79, 0
2, 56640, Note_on_c, 0, 81, 0
2, 56640, Note_on_c, 0, 74, 91
2, 56640, Note_on_c, 0, 78, 91
2, 56640, Note_on_c, 0, 81, 91
2, 56640, Note_on_c, 0, 86, 91
2, 56880, Note_on_c, 0, 86, 0
2, 56880, Note_on_c, 0, 74, 0
2, 56880, Note_on_c, 0, 78, 0
2, 56880, Note_on_c, 0, 81, 0
2, 56880, Note_on_c, 0, 74, 91
2, 56880, Note_on_c, 0, 78, 91
2, 56880, Note_on_c, 0, 81, 91
2, 56880, Note_on_c, 0, 86, 91
2, 57120, Note_on_c, 0, 86, 0
2, 57120, Note_on_c, 0, 74, 0
2, 57120, Note_on_c, 0, 78, 0
2, 57120, Note_on_c, 0, 81, 0
2, 57120, Note_on_c, 0, 76, 91
2, 57120, Note_on_c, 0, 79, 91
2, 57120, Note_on_c, 0, 86, 91
2, 57120, Note_on_c, 0, 88, 91
2, 57360, Note_on_c, 0, 88, 0
2, 57360, Note_on_c, 0, 76, 0
2, 57360, Note_on_c, 0, 79, 0
2, 57360, Note_on_c, 0, 86, 0
2, 57360, Note_on_c, 0, 78, 91
2, 57360, Note_on_c, 0, 84, 91
2, 57360, Note_on_c, 0, 86, 91
2, 57360, Note_on_c, 0, 90, 91
2, 57600, Note_on_c, 0, 90, 0
2, 57600, Note_on_c, 0, 78, 0
2, 57600, Note_on_c, 0, 84, 0
2, 57600, Note_on_c, 0, 86, 0
2, 57600, Control_c, 0, 64, 127
2, 57600, Note_on_c, 0, 82, 78
2, 57600, Note_on_c, 0, 86, 78
2, 57600, Note_on_c, 0, 91, 78
2, 57660, Note_on_c, 0, 91, 0
2, 57660, Note_on_c, 0, 86, 0
2, 57660, Note_on_c, 0, 82, 0
2, 57660, Note_on_c, 0, 79, 78
2, 57720, Note_on_c, 0, 79, 0
2, 57720, Note_on_c, 0, 82, 78
2, 57720, Note_on_c, 0, 86, 78
2, 57720, Note_on_c, 0, 91, 78
2, 57780, Note_on_c, 0, 91, 0
2, 57780, Note_on_c, 0, 86, 0
2, 57780, Note_on_c, 0, 82, 0
2, 57780, Note_on_c, 0, 79, 78
2, 57840, Note_on_c, 0, 79, 0
2, 57840, Note_on_c, 0, 82, 78
2, 57840, Note_on_c, 0, 86, 78
2, 57840, Note_on_c, 0, 91, 78
2, 57900, Note_on_c, 0, 91, 0
2, 57900, Note_on_c, 0, 86, 0
2, 57900, Note_on_c, 0, 82, 0
2, 57900, Note_on_c, 0, 79, 78
2, 57960, Note_on_c, 0, 79, 0
2, 57960, Note_on_c, 0, 82, 78
2, 57960, Note_on_c, 0, 86, 78
2, 57960, Note_on_c, 0, 91, 78
2, 58020, Note_on_c, 0, 91, 0
2, 58020, Note_on_c, 0, 86, 0
2, 58020, Note_on_c, 0, 82, 0
2, 58020, Note_on_c, 0, 79, 78
2, 58080, Note_on_c, 0, 79, 0
2, 58080, Note_on_c, 0, 82, 78
2, 58080, Note_on_c, 0, 86, 78
2, 58080, Note_on_c, 0, 91, 78
2, 58140, Note_on_c, 0, 91, 0
2, 58140, Note_on_c, 0, 86, 0
2, 58140, Note_on_c, 0, 82, 0
2, 58140, Note_on_c, 0, 79, 78
2, 58200, Note_on_c, 0, 79, 0
2, 58200, Note_on_c, 0, 82, 78
2, 58200, Note_on_c, 0, 86, 78
2, 58200, Note_on_c, 0, 91, 78
2, 58260, Note_on_c, 0, 91, 0
2, 58260, Note_on_c, 0, 86, 0
2, 58260, Note_on_c, 0, 82, 0
2, 58260, Note_on_c, 0, 79, 78
2, 58320, Note_on_c, 0, 79, 0
2, 58320, Note_on_c, 0, 82, 78
2, 58320, Note_on_c, 0, 86, 78
2, 58320, Note_on_c, 0, 91, 78
2, 58380, Note_on_c, 0, 91, 0
2, 58380, Note_on_c, 0, 86, 0
2, 58380, Note_on_c, 0, 82, 0
2, 58380, Note_on_c, 0, 79, 78
2, 58440, Note_on_c, 0, 79, 0
2, 58440, Note_on_c, 0, 82, 78
2, 58440, Note_on_c, 0, 86, 78
2, 58440, Note_on_c, 0, 91, 78
2, 58500, Note_on_c, 0, 91, 0
2, 58500, Note_on_c, 0, 86, 0
2, 58500, Note_on_c, 0, 82, 0
2, 58500, Control_c, 0, 64, 0
2, 58500, Note_on_c, 0, 79, 78
2, 58560, Note_on_c, 0, 79, 0
2, 58560, Control_c, 0, 64, 127
2, 58560, Note_on_c, 0, 86, 78
2, 58560, Note_on_c, 0, 91, 78
2, 58560, Note_on_c, 0, 94, 78
2, 58620, Note_on_c, 0, 94, 0
2, 58620, Note_on_c, 0, 91, 0
2, 58620, Note_on_c, 0, 86, 0
2, 58620, Note_on_c, 0, 82, 78
2, 58680, Note_on_c, 0, 82, 0
2, 58680, Note_on_c, 0, 86, 78
2, 58680, Note_on_c, 0, 91, 78
2, 58680, Note_on_c, 0, 94, 78
2, 58740, Note_on_c, 0, 94, 0
2, 58740, Note_on_c, 0, 91, 0
2, 58740, Note_on_c, 0, 86, 0
2, 58740, Note_on_c, 0, 82, 78
2, 58800, Note_on_c, 0, 82, 0
2, 58800, Note_on_c, 0, 86, 78
2, 58800, Note_on_c, 0, 91, 78
2, 58800, Note_on_c, 0, 94, 78
2, 58860, Note_on_c, 0, 94, 0
2, 58860, Note_on_c, 0, 91, 0
2, 58860, Note_on_c, 0, 86, 0
2, 58860, Note_on_c, 0, 82, 78
2, 58920, Note_on_c, 0, 82, 0
2, 58920, Note_on_c, 0, 86, 78
2, 58920, Note_on_c, 0, 91, 78
2, 58920, Note_on_c, 0, 94, 78
2, 58980, Note_on_c, 0, 94, 0
2, 58980, Note_on_c, 0, 91, 0
2, 58980, Note_on_c, 0, 86, 0
2, 58980, Note_on_c, 0, 82, 78
2, 59040, Note_on_c, 0, 82, 0
2, 59040, Note_on_c, 0, 86, 78
2, 59040, Note_on_c, 0, 91, 78
2, 59040, Note_on_c, 0, 94, 78
2, 59100, Note_on_c, 0, 94, 0
2, 59100, Note_on_c, 0, 91, 0
2, 59100, Note_on_c, 0, 86, 0
2, 59100, Note_on_c, 0, 82, 78
2, 59160, Note_on_c, 0, 82, 0
2, 59160, Note_on_c, 0, 86, 78
2, 59160, Note_on_c, 0, 91, 78
2, 59160, Note_on_c, 0, 94, 78
2, 59220, Note_on_c, 0, 94, 0
2, 59220, Note_on_c, 0, 91, 0
2, 59220, Note_on_c, 0, 86, 0
2, 59220, Note_on_c, 0, 82, 78
2, 59280, Note_on_c, 0, 82, 0
2, 59280, Note_on_c, 0, 86, 78
2, 59280, Note_on_c, 0, 91, 78
2, 59280, Note_on_c, 0, 94, 78
2, 59340, Note_on_c, 0, 94, 0
2, 59340, Note_on_c, 0, 91, 0
2, 59340, Note_on_c, 0, 86, 0
2, 59340, Note_on_c, 0, 82, 78
2, 59400, Note_on_c, 0, 82, 0
2, 59400, Note_on_c, 0, 86, 78
2, 59400, Note_on_c, 0, 91, 78
2, 59400, Note_on_c, 0, 94, 78
2, 59460, Note_on_c, 0, 94, 0
2, 59460, Note_on_c, 0, 91, 0
2, 59460, Note_on_c, 0, 86, 0
2, 59460, Control_c, 0, 64, 0
2, 59460, Note_on_c, 0, 82, 78
2, 59520, Note_on_c, 0, 82, 0
2, 59520, Control_c, 0, 64, 127
2, 59520, Note_on_c, 0, 91, 78
2, 59520, Note_on_c, 0, 94, 78
2, 59520, Note_on_c, 0, 98, 78
2, 59580, Note_on_c, 0, 98, 0
2, 59580, Note_on_c, 0, 94, 0
2, 59580, Note_on_c, 0, 91, 0
2, 59580, Note_on_c, 0, 86, 78
2, 59640, Note_on_c, 0, 86, 0
2, 59640, Note_on_c, 0, 91, 78
2, 59640, Note_on_c, 0, 94, 78
2, 59640, Note_on_c, 0, 98, 78
2, 59700, Note_on_c, 0, 98, 0
2, 59700, Note_on_c, 0, 94, 0
2, 59700, Note_on_c, 0, 91, 0
2, 59700, Note_on_c, 0, 86, 78
2, 59760, Note_on_c, 0, 86, 0
2, 59760, Note_on_c, 0, 91, 78
2, 59760, Note_on_c, 0, 94, 78
2, 59760, Note_on_c, 0, 98, 78
2, 59820, Note_on_c, 0, 98, 0
2, 59820, Note_on_c, 0, 94, 0
2, 59820, Note_on_c, 0, 91, 0
2, 59820, Note_on_c, 0, 86, 78
2, 59880, Note_on_c, 0, 86, 0
2, 59880, Note_on_c, 0, 91, 78
2, 59880, Note_on_c, 0, 94, 78
2, 59880, Note_on_c, 0, 98, 78
2, 59940, Note_on_c, 0, 98, 0
2, 59940, Note_on_c, 0, 94, 0
2, 59940, Note_on_c, 0, 91, 0
2, 59940, Note_on_c, 0, 86, 78
2, 60000, Note_on_c, 0, 86, 0
2, 60000, Note_on_c, 0, 91, 78
2, 60000, Note_on_c, 0, 94, 78
2, 60000, Note_on_c, 0, 98, 78
2, 60060, Note_on_c, 0, 98, 0
2, 60060, Note_on_c, 0, 94, 0
2, 60060, Note_on_c, 0, 91, 0
2, 60060, Note_on_c, 0, 86, 78
2, 60120, Note_on_c, 0, 86, 0
2, 60120, Note_on_c, 0, 91, 78
2, 60120, Note_on_c, 0, 94, 78
2, 60120, Note_on_c, 0, 98, 78
2, 60180, Note_on_c, 0, 98, 0
2, 60180, Note_on_c, 0, 94, 0
2, 60180, Note_on_c, 0, 91, 0
2, 60180, Note_on_c, 0, 86, 78
2, 60240, Note_on_c, 0, 86, 0
2, 60240, Note_on_c, 0, 91, 78
2, 60240, Note_on_c, 0, 94, 78
2, 60240, Note_on_c, 0, 98, 78
2, 60300, Note_on_c, 0, 98, 0
2, 60300, Note_on_c, 0, 94, 0
2, 60300, Note_on_c, 0, 91, 0
2, 60300, Note_on_c, 0, 86, 78
2, 60360, Note_on_c, 0, 86, 0
2, 60360, Note_on_c, 0, 91, 78
2, 60360, Note_on_c, 0, 94, 78
2, 60360, Note_on_c, 0, 98, 78
2, 60420, Note_on_c, 0, 98, 0
2, 60420, Note_on_c, 0, 94, 0
2, 60420, Note_on_c, 0, 91, 0
2, 60420, Note_on_c, 0, 86, 78
2, 60480, Note_on_c, 0, 86, 0
2, 60480, Note_on_c, 0, 91, 78
2, 60480, Note_on_c, 0, 94, 78
2, 60480, Note_on_c, 0, 98, 78
2, 60540, Note_on_c, 0, 98, 0
2, 60540, Note_on_c, 0, 94, 0
2, 60540, Note_on_c, 0, 91, 0
2, 60540, Note_on_c, 0, 86, 78
2, 60600, Note_on_c, 0, 86, 0
2, 60600, Note_on_c, 0, 91, 78
2, 60600, Note_on_c, 0, 94, 78
2, 60600, Note_on_c, 0, 98, 78
2, 60660, Note_on_c, 0, 98, 0
2, 60660, Note_on_c, 0, 94, 0
2, 60660, Note_on_c, 0, 91, 0
2, 60660, Note_on_c, 0, 86, 78
2, 60720, Note_on_c, 0, 86, 0
2, 60720, Note_on_c, 0, 91, 78
2, 60720, Note_on_c, 0, 94, 78
2, 60720, Note_on_c, 0, 98, 78
2, 60780, Note_on_c, 0, 98, 0
2, 60780, Note_on_c, 0, 94, 0
2, 60780, Note_on_c, 0, 91, 0
2, 60780, Note_on_c, 0, 86, 78
2, 60840, Note_on_c, 0, 86, 0
2, 60840, Note_on_c, 0, 91, 78
2, 60840, Note_on_c, 0, 94, 78
2, 60840, Note_on_c, 0, 98, 78
2, 60900, Note_on_c, 0, 98, 0
2, 60900, Note_on_c, 0, 94, 0
2, 60900, Note_on_c, 0, 91, 0
2, 60900, Note_on_c, 0, 86, 78
2, 60960, Note_on_c, 0, 86, 0
2, 60960, Note_on_c, 0, 91, 78
2, 60960, Note_on_c, 0, 94, 78
2, 60960, Note_on_c, 0, 98, 78
2, 61020, Note_on_c, 0, 98, 0
2, 61020, Note_on_c, 0, 94, 0
2, 61020, Note_on_c, 0, 91, 0
2, 61020, Note_on_c, 0, 86, 78
2, 61080, Note_on_c, 0, 86, 0
2, 61080, Note_on_c, 0, 91, 78
2, 61080, Note_on_c, 0, 94, 78
2, 61080, Note_on_c, 0, 98, 78
2, 61140, Note_on_c, 0, 98, 0
2, 61140, Note_on_c, 0, 94, 0
2, 61140, Note_on_c, 0, 91, 0
2, 61140, Note_on_c, 0, 86, 78
2, 61200, Note_on_c, 0, 86, 0
2, 61200, Note_on_c, 0, 91, 78
2, 61200, Note_on_c, 0, 94, 78
2, 61200, Note_on_c, 0, 98, 78
2, 61260, Note_on_c, 0, 98, 0
2, 61260, Note_on_c, 0, 94, 0
2, 61260, Note_on_c, 0, 91, 0
2, 61260, Note_on_c, 0, 86, 78
2, 61320, Note_on_c, 0, 86, 0
2, 61320, Note_on_c, 0, 91, 78
2, 61320, Note_on_c, 0, 94, 78
2, 61320, Note_on_c, 0, 98, 78
2, 61380, Note_on_c, 0, 98, 0
2, 61380, Note_on_c, 0, 94, 0
2, 61380, Note_on_c, 0, 91, 0
2, 61380, Control_c, 0, 64, 0
2, 61380, Note_on_c, 0, 86, 78
2, 61440, Note_on_c, 0, 86, 0
2, 61440, Note_on_c, 0, 86, 78
2, 61440, Note_on_c, 0, 91, 78
2, 61440, Note_on_c, 0, 94, 78
2, 61440, Note_on_c, 0, 98, 78
2, 61680, Note_on_c, 0, 98, 0
2, 61680, Note_on_c, 0, 86, 0
2, 61680, Note_on_c, 0, 91, 0
2, 61680, Note_on_c, 0, 94, 0
2, 61680, Note_on_c, 0, 67, 78
2, 61680, Note_on_c, 0, 70, 78
2, 61680, Note_on_c, 0, 74, 78
2, 61680, Note_on_c, 0, 79, 78
2, 61920, Note_on_c, 0, 79, 0
2, 61920, Note_on_c, 0, 67, 0
2, 61920, Note_on_c, 0, 70, 0
2, 61920, Note_on_c, 0, 74, 0
2, 61920, Note_on_c, 0, 67, 78
2, 61920, Note_on_c, 0, 70, 78
2, 61920, Note_on_c, 0, 74, 78
2, 61920, Note_on_c, 0, 79, 78
2, 62160, Note_on_c, 0, 79, 0
2, 62160, Note_on_c, 0, 67, 0
2, 62160, Note_on_c, 0, 70, 0
2, 62160, Note_on_c, 0, 74, 0
2, 62160, Note_on_c, 0, 67, 78
2, 62160, Note_on_c, 0, 70, 78
2, 62160, Note_on_c, 0, 74, 78
2, 62160, Note_on_c, 0, 79, 78
2, 62400, Note_on_c, 0, 79, 0
2, 62400, Note_on_c, 0, 67, 0
2, 62400, Note_on_c, 0, 70, 0
2, 62400, Note_on_c, 0, 74, 0
2, 62400, Note_on_c, 0, 67, 78
2, 62400, Note_on_c, 0, 70, 78
2, 62400, Note_on_c, 0, 74, 78
2, 62400, Note_on_c, 0, 79, 78
2, 62640, Note_on_c, 0, 79, 0
2, 62640, Note_on_c, 0, 67, 0
2, 62640, Note_on_c, 0, 70, 0
2, 62640, Note_on_c, 0, 74, 0
2, 62640, Note_on_c, 0, 67, 78
2, 62640, Note_on_c, 0, 70, 78
2, 62640, Note_on_c, 0, 74, 78
2, 62640, Note_on_c, 0, 79, 78
2, 62760, Note_on_c, 0, 79, 0
2, 62760, Note_on_c, 0, 67, 0
2, 62760, Note_on_c, 0, 70, 0
2, 62760, Note_on_c, 0, 74, 0
2, 62760, Note_on_c, 0, 67, 78
2, 62760, Note_on_c, 0, 70, 78
2, 62760, Note_on_c, 0, 74, 78
2, 62760, Note_on_c, 0, 79, 78
2, 62880, Note_on_c, 0, 79, 0
2, 62880, Note_on_c, 0, 67, 0
2, 62880, Note_on_c, 0, 70, 0
2, 62880, Note_on_c, 0, 74, 0
2, 62880, Note_on_c, 0, 67, 78
2, 62880, Note_on_c, 0, 70, 78
2, 62880, Note_on_c, 0, 74, 78
2, 62880, Note_on_c, 0, 79, 78
2, 63120, Note_on_c, 0, 79, 0
2, 63120, Note_on_c, 0, 67, 0
2, 63120, Note_on_c, 0, 70, 0
2, 63120, Note_on_c, 0, 74, 0
2, 63120, Note_on_c, 0, 67, 78
2, 63120, Note_on_c, 0, 70, 78
2, 63120, Note_on_c, 0, 74, 78
2, 63120, Note_on_c, 0, 79, 78
2, 63360, Note_on_c, 0, 79, 0
2, 63360, Note_on_c, 0, 67, 0
2, 63360, Note_on_c, 0, 70, 0
2, 63360, Note_on_c, 0, 74, 0
2, 63360, Note_on_c, 0, 67, 78
2, 63360, Note_on_c, 0, 70, 78
2, 63360, Note_on_c, 0, 74, 78
2, 63360, Note_on_c, 0, 79, 78
2, 63840, Note_on_c, 0, 79, 0
2, 63840, Note_on_c, 0, 67, 0
2, 63840, Note_on_c, 0, 70, 0
2, 63840, Note_on_c, 0, 74, 0
2, 63840, Note_on_c, 0, 67, 78
2, 63840, Note_on_c, 0, 70, 78
2, 63840, Note_on_c, 0, 74, 78
2, 63840, Note_on_c, 0, 79, 78
2, 64320, Note_on_c, 0, 79, 0
2, 64320, Note_on_c, 0, 67, 0
2, 64320, Note_on_c, 0, 70, 0
2, 64320, Note_on_c, 0, 74, 0
2, 64320, Note_on_c, 0, 55, 104
2, 64800, Note_on_c, 0, 55, 0
2, 64800, Control_c, 0, 64, 127
2, 67680, Control_c, 0, 64, 0
2, 67680, End_track
3, 0, Start_track
3, 0, Title_t, "Grand Piano"
3, 0, Program_c, 0, 0
3, 0, Control_c, 0, 7, 115
3, 0, Control_c, 0, 10, 79
3, 1440, Control_c, 0, 64, 127
3, 1440, Note_on_c, 0, 46, 83
3, 1483, Note_on_c, 0, 46, 0
3, 1483, Note_on_c, 0, 50, 83
3, 1527, Note_on_c, 0, 50, 0
3, 1527, Note_on_c, 0, 53, 83
3, 1570, Note_on_c, 0, 53, 0
3, 1570, Note_on_c, 0, 58, 83
3, 1614, Note_on_c, 0, 58, 0
3, 1614, Note_on_c, 0, 62, 83
3, 1657, Note_on_c, 0, 62, 0
3, 1657, Note_on_c, 0, 65, 83
3, 1702, Note_on_c, 0, 65, 0
3, 1702, Note_on_c, 0, 70, 83
3, 1745, Note_on_c, 0, 70, 0
3, 1745, Note_on_c, 0, 74, 83
3, 1789, Note_on_c, 0, 74, 0
3, 1789, Note_on_c, 0, 77, 83
3, 1832, Note_on_c, 0, 77, 0
3, 1832, Note_on_c, 0, 82, 83
3, 1876, Note_on_c, 0, 82, 0
3, 1876, Control_c, 0, 64, 0
3, 1876, Note_on_c, 0, 86, 83
3, 1920, Note_on_c, 0, 86, 0
3, 3360, Control_c, 0, 64, 127
3, 3360, Note_on_c, 0, 53, 83
3, 3407, Note_on_c, 0, 53, 0
3, 3407, Note_on_c, 0, 58, 83
3, 3456, Note_on_c, 0, 58, 0
3, 3456, Note_on_c, 0, 62, 83
3, 3503, Note_on_c, 0, 62, 0
3, 3503, Note_on_c, 0, 65, 83
3, 3552, Note_on_c, 0, 65, 0
3, 3552, Note_on_c, 0, 70, 83
3, 3600, Note_on_c, 0, 70, 0
3, 3600, Note_on_c, 0, 74, 83
3, 3647, Note_on_c, 0, 74, 0
3, 3647, Note_on_c, 0, 77, 83
3, 3696, Note_on_c, 0, 77, 0
3, 3696, Note_on_c, 0, 82, 83
3, 3743, Note_on_c, 0, 82, 0
3, 3743, Note_on_c, 0, 86, 83
3, 3792, Note_on_c, 0, 86, 0
3, 3792, Control_c, 0, 64, 0
3, 3792, Note_on_c, 0, 89, 83
3, 3840, Note_on_c, 0, 89, 0
3, 5280, Control_c, 0, 64, 127
3, 5280, Note_on_c, 0, 58, 83
3, 5333, Note_on_c, 0, 58, 0
3, 5333, Note_on_c, 0, 62, 83
3, 5386, Note_on_c, 0, 62, 0
3, 5386, Note_on_c, 0, 65, 83
3, 5439, Note_on_c, 0, 65, 0
3, 5439, Note_on_c, 0, 70, 83
3, 5493, Note_on_c, 0, 70, 0
3, 5493, Note_on_c, 0, 74, 83
3, 5546, Note_on_c, 0, 74, 0
3, 5546, Note_on_c, 0, 77, 83
3, 5600, Note_on_c, 0, 77, 0
3, 5600, Note_on_c, 0, 82, 83
3, 5653, Note_on_c, 0, 82, 0
3, 5653, Note_on_c, 0, 86, 83
3, 5706, Note_on_c, 0, 86, 0
3, 5706, Note_on_c, 0, 89, 83
3, 5760, Note_on_c, 0, 89, 0
3, 5760, Note_on_c, 0, 94, 83
3, 5813, Note_on_c, 0, 94, 0
3, 5813, Note_on_c, 0, 89, 83
3, 5866, Note_on_c, 0, 89, 0
3, 5866, Note_on_c, 0, 86, 83
3, 5919, Note_on_c, 0, 86, 0
3, 5919, Note_on_c, 0, 82, 83
3, 5973, Note_on_c, 0, 82, 0
3, 5973, Note_on_c, 0, 77, 83
3, 6026, Note_on_c, 0, 77, 0
3, 6026, Note_on_c, 0, 74, 83
3, 6080, Note_on_c, 0, 74, 0
3, 6080, Note_on_c, 0, 70, 83
3, 6133, Note_on_c, 0, 70, 0
3, 6133, Note_on_c, 0, 65, 83
3, 6186, Note_on_c, 0, 65, 0
3, 6186, Control_c, 0, 64, 0
3, 6186, Note_on_c, 0, 62, 83
3, 6240, Note_on_c, 0, 62, 0
3, 6240, Control_c, 0, 64, 127
3, 6240, Note_on_c, 0, 58, 83
3, 6293, Note_on_c, 0, 58, 0
3, 6293, Note_on_c, 0, 62, 83
3, 6346, Note_on_c, 0, 62, 0
3, 6346, Note_on_c, 0, 65, 83
3, 6399, Note_on_c, 0, 65, 0
3, 6399, Note_on_c, 0, 70, 83
3, 6453, Note_on_c, 0, 70, 0
3, 6453, Note_on_c, 0, 74, 83
3, 6506, Note_on_c, 0, 74, 0
3, 6506, Note_on_c, 0, 77, 83
3, 6560, Note_on_c, 0, 77, 0
3, 6560, Note_on_c, 0, 82, 83
3, 6613, Note_on_c, 0, 82, 0
3, 6613, Note_on_c, 0, 86, 83
3, 6666, Note_on_c, 0, 86, 0
3, 6666, Note_on_c, 0, 89, 83
3, 6720, Note_on_c, 0, 89, 0
3, 6720, Note_on_c, 0, 94, 83
3, 6773, Note_on_c, 0, 94, 0
3, 6773, Note_on_c, 0, 89, 83
3, 6826, Note_on_c, 0, 89, 0
3, 6826, Note_on_c, 0, 86, 83
3, 6879, Note_on_c, 0, 86, 0
3, 6879, Note_on_c, 0, 82, 83
3, 6933, Note_on_c, 0, 82, 0
3, 6933, Note_on_c, 0, 77, 83
3, 6986, Note_on_c, 0, 77, 0
3, 6986, Note_on_c, 0, 74, 83
3, 7040, Note_on_c, 0, 74, 0
3, 7040, Note_on_c, 0, 70, 83
3, 7093, Note_on_c, 0, 70, 0
3, 7093, Note_on_c, 0, 65, 83
3, 7146, Note_on_c, 0, 65, 0
3, 7146, Control_c, 0, 64, 0
3, 7146, Note_on_c, 0, 62, 83
3, 7200, Note_on_c, 0, 62, 0
3, 7247, Control_c, 0, 64, 127
3, 7247, Note_on_c, 0, 62, 83
3, 7296, Note_on_c, 0, 62, 0
3, 7296, Note_on_c, 0, 65, 83
3, 7343, Note_on_c, 0, 65, 0
3, 7343, Note_on_c, 0, 70, 83
3, 7392, Note_on_c, 0, 70, 0
3, 7392, Note_on_c, 0, 74, 83
3, 7440, Note_on_c, 0, 74, 0
3, 7440, Note_on_c, 0, 77, 83
3, 7487, Note_on_c, 0, 77, 0
3, 7487, Note_on_c, 0, 82, 83
3, 7536, Note_on_c, 0, 82, 0
3, 7536, Note_on_c, 0, 86, 83
3, 7583, Note_on_c, 0, 86, 0
3, 7583, Note_on_c, 0, 89, 83
3, 7632, Note_on_c, 0, 89, 0
3, 7632, Control_c, 0, 64, 0
3, 7632, Note_on_c, 0, 94, 83
3, 7680, Note_on_c, 0, 94, 0
3, 19200, Note_on_c, 0, 62, 83
3, 19440, Note_on_c, 0, 62, 0
3, 19440, Note_on_c, 0, 62, 83
3, 19560, Note_on_c, 0, 62, 0
3, 19560, Note_on_c, 0, 60, 83
3, 19680, Note_on_c, 0, 60, 0
3, 19680, Note_on_c, 0, 58, 83
3, 19920, Note_on_c, 0, 58, 0
3, 19920, Note_on_c, 0, 62, 83
3, 20160, Note_on_c, 0, 62, 0
3, 20160, Note_on_c, 0, 67, 83
3, 20160, Note_on_c, 0, 70, 83
3, 20400, Note_on_c, 0, 70, 0
3, 20400, Note_on_c, 0, 67, 0
3, 20400, Note_on_c, 0, 69, 83
3, 20520, Note_on_c, 0, 69, 0
3, 20520, Note_on_c, 0, 67, 83
3, 20640, Note_on_c, 0, 67, 0
3, 20640, Note_on_c, 0, 66, 83
3, 20640, Note_on_c, 0, 69, 83
3, 21000, Note_on_c, 0, 69, 0
3, 21000, Note_on_c, 0, 66, 0
3, 21000, Note_on_c, 0, 66, 83
3, 21000, Note_on_c, 0, 69, 83
3, 21120, Note_on_c, 0, 69, 0
3, 21120, Note_on_c, 0, 66, 0
3, 25920, Note_on_c, 0, 62, 83
3, 26160, Note_on_c, 0, 62, 0
3, 26160, Note_on_c, 0, 62, 83
3, 26280, Note_on_c, 0, 62, 0
3, 26280, Note_on_c, 0, 60, 83
3, 26400, Note_on_c, 0, 60, 0
3, 26400, Note_on_c, 0, 58, 83
3, 26640, Note_on_c, 0, 58, 0
3, 26640, Note_on_c, 0, 62, 83
3, 26880, Note_on_c, 0, 62, 0
3, 41280, Note_on_c, 0, 70, 83
3, 41280, Note_on_c, 0, 74, 83
3, 41280, Note_on_c, 0, 77, 83
3, 41520, Note_on_c, 0, 77, 0
3, 41520, Note_on_c, 0, 74, 0
3, 41520, Note_on_c, 0, 70, 0
3, 41520, Note_on_c, 0, 74, 83
3, 41640, Note_on_c, 0, 74, 0
3, 41640, Note_on_c, 0, 72, 83
3, 41760, Note_on_c, 0, 72, 0
3, 42240, Note_on_c, 0, 79, 83
3, 42240, Note_on_c, 0, 82, 83
3, 42480, Note_on_c, 0, 82, 0
3, 42480, Note_on_c, 0, 79, 0
3, 42480, Note_on_c, 0, 81, 83
3, 42600, Note_on_c, 0, 81, 0
3, 42600, Note_on_c, 0, 79, 83
3, 42720, Note_on_c, 0, 79, 0
3, 48000, Note_on_c, 0, 70, 83
3, 48000, Note_on_c, 0, 74, 83
3, 48000, Note_on_c, 0, 77, 83
3, 48240, Note_on_c, 0, 77, 0
3, 48240, Note_on_c, 0, 74, 0
3, 48240, Note_on_c, 0, 70, 0
3, 48240, Note_on_c, 0, 74, 83
3, 48360, Note_on_c, 0, 74, 0
3, 48360, Note_on_c, 0, 72, 83
3, 48480, Note_on_c, 0, 72, 0
3, 48960, Note_on_c, 0, 79, 83
3, 48960, Note_on_c, 0, 82, 83
3, 49200, Note_on_c, 0, 82, 0
3, 49200, Note_on_c, 0, 79, 0
3, 49200, Note_on_c, 0, 81, 83
3, 49320, Note_on_c, 0, 81, 0
3, 49320, Note_on_c, 0, 79, 83
3, 49440, Note_on_c, 0, 79, 0
3, 49440, End_track
4, 0, Start_track
4, 0, Title_t, "Grand Piano"
4, 0, Program_c, 0, 0
4, 0, Control_c, 0, 7, 115
4, 0, Control_c, 0, 10, 41
4, 0, Note_on_c, 0, 58, 102
4, 480, Note_on_c, 0, 58, 0
4, 480, Note_on_c, 0, 58, 102
4, 720, Note_on_c, 0, 58, 0
4, 720, Note_on_c, 0, 58, 102
4, 960, Note_on_c, 0, 58, 0
4, 960, Note_on_c, 0, 58, 102
4, 1920, Note_on_c, 0, 58, 0
4, 1920, Note_on_c, 0, 58, 102
4, 1920, Note_on_c, 0, 62, 102
4, 2400, Note_on_c, 0, 62, 0
4, 2400, Note_on_c, 0, 58, 0
4, 2400, Note_on_c, 0, 58, 102
4, 2400, Note_on_c, 0, 62, 102
4, 2640, Note_on_c, 0, 62, 0
4, 2640, Note_on_c, 0, 58, 0
4, 2640, Note_on_c, 0, 58, 102
4, 2640, Note_on_c, 0, 62, 102
4, 2880, Note_on_c, 0, 62, 0
4, 2880, Note_on_c, 0, 58, 0
4, 2880, Note_on_c, 0, 58, 102
4, 2880, Note_on_c, 0, 62, 102
4, 3840, Note_on_c, 0, 62, 0
4, 3840, Note_on_c, 0, 58, 0
4, 3840, Note_on_c, 0, 58, 102
4, 3840, Note_on_c, 0, 62, 102
4, 3840, Note_on_c, 0, 65, 102
4, 4320, Note_on_c, 0, 65, 0
4, 4320, Note_on_c, 0, 62, 0
4, 4320, Note_on_c, 0, 58, 0
4, 4320, Note_on_c, 0, 58, 102
4, 4320, Note_on_c, 0, 62, 102
4, 4320, Note_on_c, 0, 65, 102
4, 4560, Note_on_c, 0, 65, 0
4, 4560, Note_on_c, 0, 62, 0
4, 4560, Note_on_c, 0, 58, 0
4, 4560, Note_on_c, 0, 58, 102
4, 4560, Note_on_c, 0, 62, 102
4, 4560, Note_on_c, 0, 65, 102
4, 4800, Note_on_c, 0, 65, 0
4, 4800, Note_on_c, 0, 62, 0
4, 4800, Note_on_c, 0, 58, 0
4, 4800, Note_on_c, 0, 58, 102
4, 4800, Note_on_c, 0, 62, 102
4, 4800, Note_on_c, 0, 65, 102
4, 6720, Note_on_c, 0, 65, 0
4, 6720, Note_on_c, 0, 62, 0
4, 6720, Note_on_c, 0, 58, 0
4, 6720, Note_on_c, 0, 58, 102
4, 6720, Note_on_c, 0, 62, 102
4, 7200, Note_on_c, 0, 62, 0
4, 7200, Note_on_c, 0, 58, 0
4, 7200, Note_on_c, 0, 58, 102
4, 7200, Note_on_c, 0, 62, 102
4, 7440, Note_on_c, 0, 62, 0
4, 7440, Note_on_c, 0, 58, 0
4, 7440, Note_on_c, 0, 58, 102
4, 7440, Note_on_c, 0, 62, 102
4, 7680, Note_on_c, 0, 62, 0
4, 7680, Note_on_c, 0, 58, 0
4, 7680, Note_on_c, 0, 55, 76
4, 7680, Note_on_c, 0, 58, 76
4, 7680, Note_on_c, 0, 62, 76
4, 8160, Note_on_c, 0, 62, 0
4, 8160, Note_on_c, 0, 58, 0
4, 8160, Note_on_c, 0, 55, 0
4, 8160, Note_on_c, 0, 55, 76
4, 8160, Note_on_c, 0, 58, 76
4, 8160, Note_on_c, 0, 62, 76
4, 8400, Note_on_c, 0, 62, 0
4, 8400, Note_on_c, 0, 58, 0
4, 8400, Note_on_c, 0, 55, 0
4, 8400, Note_on_c, 0, 55, 76
4, 8400, Note_on_c, 0, 58, 76
4, 8400, Note_on_c, 0, 62, 76
4, 8640, Note_on_c, 0, 62, 0
4, 8640, Note_on_c, 0, 58, 0
4, 8640, Note_on_c, 0, 55, 0
4, 8640, Note_on_c, 0, 50, 76
4, 8640, Note_on_c, 0, 57, 76
4, 8640, Note_on_c, 0, 62, 76
4, 9120, Note_on_c, 0, 62, 0
4, 9120, Note_on_c, 0, 57, 0
4, 9120, Note_on_c, 0, 50, 0
4, 9120, Note_on_c, 0, 50, 76
4, 9120, Note_on_c, 0, 57, 76
4, 9120, Note_on_c, 0, 62, 76
4, 9360, Note_on_c, 0, 62, 0
4, 9360, Note_on_c, 0, 57, 0
4, 9360, Note_on_c, 0, 50, 0
4, 9360, Note_on_c, 0, 55, 76
4, 9360, Note_on_c, 0, 58, 76
4, 9360, Note_on_c, 0, 62, 76
4, 9600, Note_on_c, 0, 62, 0
4, 9600, Note_on_c, 0, 58, 0
4, 9600, Note_on_c, 0, 55, 0
4, 9600, Note_on_c, 0, 54, 76
4, 9600, Note_on_c, 0, 60, 76
4, 9600, Note_on_c, 0, 62, 76
4, 9840, Note_on_c, 0, 62, 0
4, 9840, Note_on_c, 0, 60, 0
4, 9840, Note_on_c, 0, 54, 0
4, 9840, Note_on_c, 0, 55, 76
4, 9840, Note_on_c, 0, 58, 76
4, 9840, Note_on_c, 0, 62, 76
4, 10080, Note_on_c, 0, 62, 0
4, 10080, Note_on_c, 0, 58, 0
4, 10080, Note_on_c, 0, 55, 0
4, 10080, Note_on_c, 0, 57, 76
4, 10080, Note_on_c, 0, 60, 76
4, 10080, Note_on_c, 0, 62, 76
4, 10320, Note_on_c, 0, 62, 0
4, 10320, Note_on_c, 0, 60, 0
4, 10320, Note_on_c, 0, 57, 0
4, 10320, Note_on_c, 0, 55, 76
4, 10320, Note_on_c, 0, 58, 76
4, 10320, Note_on_c, 0, 62, 76
4, 10560, Note_on_c, 0, 62, 0
4, 10560, Note_on_c, 0, 58, 0
4, 10560, Note_on_c, 0, 55, 0
4, 10560, Note_on_c, 0, 62, 76
4, 10800, Note_on_c, 0, 62, 0
4, 10800, Note_on_c, 0, 62, 76
4, 10880, Note_on_c, 0, 62, 0
4, 10880, Note_on_c, 0, 62, 76
4, 10959, Note_on_c, 0, 62, 0
4, 10959, Note_on_c, 0, 62, 76
4, 11040, Note_on_c, 0, 62, 0
4, 11040, Note_on_c, 0, 62, 76
4, 11280, Note_on_c, 0, 62, 0
4, 11280, Note_on_c, 0, 62, 76
4, 11520, Note_on_c, 0, 62, 0
4, 11520, Note_on_c, 0, 55, 76
4, 11520, Note_on_c, 0, 58, 76
4, 11520, Note_on_c, 0, 62, 76
4, 12000, Note_on_c, 0, 62, 0
4, 12000, Note_on_c, 0, 58, 0
4, 12000, Note_on_c, 0, 55, 0
4, 12000, Note_on_c, 0, 55, 76
4, 12000, Note_on_c, 0, 58, 76
4, 12000, Note_on_c, 0, 62, 76
4, 12240, Note_on_c, 0, 62, 0
4, 12240, Note_on_c, 0, 58, 0
4, 12240, Note_on_c, 0, 55, 0
4, 12240, Note_on_c, 0, 55, 76
4, 12240, Note_on_c, 0, 58, 76
4, 12240, Note_on_c, 0, 62, 76
4, 12480, Note_on_c, 0, 62, 0
4, 12480, Note_on_c, 0, 58, 0
4, 12480, Note_on_c, 0, 55, 0
4, 12480, Note_on_c, 0, 50, 76
4, 12480, Note_on_c, 0, 57, 76
4, 12480, Note_on_c, 0, 62, 76
4, 12960, Note_on_c, 0, 62, 0
4, 12960, Note_on_c, 0, 57, 0
4, 12960, Note_on_c, 0, 50, 0
4, 12960, Note_on_c, 0, 50, 76
4, 12960, Note_on_c, 0, 57, 76
4, 12960, Note_on_c, 0, 62, 76
4, 13200, Note_on_c, 0, 62, 0
4, 13200, Note_on_c, 0, 57, 0
4, 13200, Note_on_c, 0, 50, 0
4, 13200, Note_on_c, 0, 55, 76
4, 13200, Note_on_c, 0, 58, 76
4, 13200, Note_on_c, 0, 62, 76
4, 13440, Note_on_c, 0, 62, 0
4, 13440, Note_on_c, 0, 58, 0
4, 13440, Note_on_c, 0, 55, 0
4, 13440, Note_on_c, 0, 54, 76
4, 13440, Note_on_c, 0, 60, 76
4, 13440, Note_on_c, 0, 62, 76
4, 13680, Note_on_c, 0, 62, 0
4, 13680, Note_on_c, 0, 60, 0
4, 13680, Note_on_c, 0, 54, 0
4, 13680, Note_on_c, 0, 55, 76
4, 13680, Note_on_c, 0, 58, 76
4, 13680, Note_on_c, 0, 62, 76
4, 13920, Note_on_c, 0, 62, 0
4, 13920, Note_on_c, 0, 58, 0
4, 13920, Note_on_c, 0, 55, 0
4, 13920, Note_on_c, 0, 57, 76
4, 13920, Note_on_c, 0, 60, 76
4, 13920, Note_on_c, 0, 62, 76
4, 14160, Note_on_c, 0, 62, 0
4, 14160, Note_on_c, 0, 60, 0
4, 14160, Note_on_c, 0, 57, 0
4, 14160, Note_on_c, 0, 55, 76
4, 14160, Note_on_c, 0, 58, 76
4, 14160, Note_on_c, 0, 62, 76
4, 14400, Note_on_c, 0, 62, 0
4, 14400, Note_on_c, 0, 58, 0
4, 14400, Note_on_c, 0, 55, 0
4, 14400, Note_on_c, 0, 62, 76
4, 14640, Note_on_c, 0, 62, 0
4, 14640, Note_on_c, 0, 62, 76
4, 14720, Note_on_c, 0, 62, 0
4, 14720, Note_on_c, 0, 62, 76
4, 14799, Note_on_c, 0, 62, 0
4, 14799, Note_on_c, 0, 62, 76
4, 14880, Note_on_c, 0, 62, 0
4, 14880, Note_on_c, 0, 62, 76
4, 15120, Note_on_c, 0, 62, 0
4, 15120, Note_on_c, 0, 62, 76
4, 15360, Note_on_c, 0, 62, 0
4, 15360, Note_on_c, 0, 55, 76
4, 15360, Note_on_c, 0, 58, 76
4, 15360, Note_on_c, 0, 62, 76
4, 15840, Note_on_c, 0, 62, 0
4, 15840, Note_on_c, 0, 58, 0
4, 15840, Note_on_c, 0, 55, 0
4, 15840, Note_on_c, 0, 54, 76
4, 15840, Note_on_c, 0, 60, 76
4, 15840, Note_on_c, 0, 62, 76
4, 16080, Note_on_c, 0, 62, 0
4, 16080, Note_on_c, 0, 60, 0
4, 16080, Note_on_c, 0, 54, 0
4, 16080, Note_on_c, 0, 55, 76
4, 16080, Note_on_c, 0, 58, 76
4, 16080, Note_on_c, 0, 62, 76
4, 16320, Note_on_c, 0, 62, 0
4, 16320, Note_on_c, 0, 58, 0
4, 16320, Note_on_c, 0, 55, 0
4, 16320, Note_on_c, 0, 50, 76
4, 16320, Note_on_c, 0, 57, 76
4, 16320, Note_on_c, 0, 62, 76
4, 16800, Note_on_c, 0, 62, 0
4, 16800, Note_on_c, 0, 57, 0
4, 16800, Note_on_c, 0, 50, 0
4, 16800, Note_on_c, 0, 50, 76
4, 16800, Note_on_c, 0, 57, 76
4, 16800, Note_on_c, 0, 62, 76
4, 17040, Note_on_c, 0, 62, 0
4, 17040, Note_on_c, 0, 57, 0
4, 17040, Note_on_c, 0, 50, 0
4, 17040, Note_on_c, 0, 48, 76
4, 17040, Note_on_c, 0, 62, 76
4, 17280, Note_on_c, 0, 62, 0
4, 17280, Note_on_c, 0, 48, 0
4, 17280, Note_on_c, 0, 46, 76
4, 17280, Note_on_c, 0, 50, 76
4, 17280, Note_on_c, 0, 55, 76
4, 17520, Note_on_c, 0, 55, 0
4, 17520, Note_on_c, 0, 50, 0
4, 17520, Note_on_c, 0, 46, 0
4, 17520, Note_on_c, 0, 46, 76
4, 17520, Note_on_c, 0, 50, 76
4, 17520, Note_on_c, 0, 55, 76
4, 17760, Note_on_c, 0, 55, 0
4, 17760, Note_on_c, 0, 50, 0
4, 17760, Note_on_c, 0, 46, 0
4, 17760, Note_on_c, 0, 45, 76
4, 17760, Note_on_c, 0, 50, 76
4, 17760, Note_on_c, 0, 57, 76
4, 18000, Note_on_c, 0, 57, 0
4, 18000, Note_on_c, 0, 50, 0
4, 18000, Note_on_c, 0, 45, 0
4, 18000, Note_on_c, 0, 43, 76
4, 18000, Note_on_c, 0, 50, 76
4, 18000, Note_on_c, 0, 55, 76
4, 18240, Note_on_c, 0, 55, 0
4, 18240, Note_on_c, 0, 50, 0
4, 18240, Note_on_c, 0, 43, 0
4, 18240, Note_on_c, 0, 41, 76
4, 18240, Note_on_c, 0, 53, 76
4, 18480, Note_on_c, 0, 53, 0
4, 18480, Note_on_c, 0, 41, 0
4, 18480, Note_on_c, 0, 41, 76
4, 18480, Note_on_c, 0, 53, 76
4, 18600, Note_on_c, 0, 53, 0
4, 18600, Note_on_c, 0, 41, 0
4, 18600, Note_on_c, 0, 39, 76
4, 18600, Note_on_c, 0, 51, 76
4, 18720, Note_on_c, 0, 51, 0
4, 18720, Note_on_c, 0, 39, 0
4, 18720, Note_on_c, 0, 38, 76
4, 18720, Note_on_c, 0, 50, 76
4, 18960, Note_on_c, 0, 50, 0
4, 18960, Note_on_c, 0, 38, 0
4, 18960, Note_on_c, 0, 36, 76
4, 18960, Note_on_c, 0, 48, 76
4, 19200, Note_on_c, 0, 48, 0
4, 19200, Note_on_c, 0, 36, 0
4, 19200, Note_on_c, 0, 34, 76
4, 19200, Note_on_c, 0, 46, 76
4, 19440, Note_on_c, 0, 46, 0
4, 19440, Note_on_c, 0, 34, 0
4, 19440, Note_on_c, 0, 34, 76
4, 19440, Note_on_c, 0, 46, 76
4, 19560, Note_on_c, 0, 46, 0
4, 19560, Note_on_c, 0, 34, 0
4, 19560, Note_on_c, 0, 36, 76
4, 19560, Note_on_c, 0, 48, 76
4, 19680, Note_on_c, 0, 48, 0
4, 19680, Note_on_c, 0, 36, 0
4, 19680, Note_on_c, 0, 38, 76
4, 19680, Note_on_c, 0, 50, 76
4, 19920, Note_on_c, 0, 50, 0
4, 19920, Note_on_c, 0, 38, 0
4, 19920, Note_on_c, 0, 34, 76
4, 19920, Note_on_c, 0, 46, 76
4, 20160, Note_on_c, 0, 46, 0
4, 20160, Note_on_c, 0, 34, 0
4, 20160, Note_on_c, 0, 39, 76
4, 20160, Note_on_c, 0, 51, 76
4, 20640, Note_on_c, 0, 51, 0
4, 20640, Note_on_c, 0, 39, 0
4, 20640, Note_on_c, 0, 38, 76
4, 20640, Note_on_c, 0, 45, 76
4, 20640, Note_on_c, 0, 50, 76
4, 21000, Note_on_c, 0, 50, 0
4, 21000, Note_on_c, 0, 45, 0
4, 21000, Note_on_c, 0, 38, 0
4, 21000, Note_on_c, 0, 38, 76
4, 21000, Note_on_c, 0, 45, 76
4, 21000, Note_on_c, 0, 50, 76
4, 21120, Note_on_c, 0, 50, 0
4, 21120, Note_on_c, 0, 45, 0
4, 21120, Note_on_c, 0, 38, 0
4, 21120, Note_on_c, 0, 43, 76
4, 21120, Note_on_c, 0, 55, 76
4, 21240, Note_on_c, 0, 55, 0
4, 21240, Note_on_c, 0, 43, 0
4, 21300, Note_on_c, 0, 55, 76
4, 21420, Note_on_c, 0, 55, 0
4, 21420, Note_on_c, 0, 55, 76
4, 21540, Note_on_c, 0, 55, 0
4, 21540, Note_on_c, 0, 55, 76
4, 21540, Note_on_c, 0, 58, 76
4, 21660, Note_on_c, 0, 58, 0
4, 21660, Note_on_c, 0, 55, 0
4, 21660, Note_on_c, 0, 55, 76
4, 21660, Note_on_c, 0, 58, 76
4, 21660, Note_on_c, 0, 62, 76
4, 21780, Note_on_c, 0, 62, 0
4, 21780, Note_on_c, 0, 58, 0
4, 21780, Note_on_c, 0, 55, 0
4, 21780, Note_on_c, 0, 55, 76
4, 21780, Note_on_c, 0, 58, 76
4, 21780, Note_on_c, 0, 62, 76
4, 21900, Note_on_c, 0, 62, 0
4, 21900, Note_on_c, 0, 58, 0
4, 21900, Note_on_c, 0, 55, 0
4, 21900, Note_on_c, 0, 55, 76
4, 21900, Note_on_c, 0, 58, 76
4, 21900, Note_on_c, 0, 62, 76
4, 22020, Note_on_c, 0, 62, 0
4, 22020, Note_on_c, 0, 58, 0
4, 22020, Note_on_c, 0, 55, 0
4, 22020, Note_on_c, 0, 55, 76
4, 22020, Note_on_c, 0, 58, 76
4, 22020, Note_on_c, 0, 62, 76
4, 22080, Note_on_c, 0, 62, 0
4, 22080, Note_on_c, 0, 58, 0
4, 22080, Note_on_c, 0, 55, 0
4, 22080, Note_on_c, 0, 55, 76
4, 22080, Note_on_c, 0, 58, 76
4, 22080, Note_on_c, 0, 62, 76
4, 22080, Note_on_c, 0, 67, 76
4, 22560, Note_on_c, 0, 67, 0
4, 22560, Note_on_c, 0, 55, 0
4, 22560, Note_on_c, 0, 58, 0
4, 22560, Note_on_c, 0, 62, 0
4, 22560, Note_on_c, 0, 54, 76
4, 22560, Note_on_c, 0, 57, 76
4, 22560, Note_on_c, 0, 60, 76
4, 22560, Note_on_c, 0, 62, 76
4, 22800, Note_on_c, 0, 62, 0
4, 22800, Note_on_c, 0, 54, 0
4, 22800, Note_on_c, 0, 57, 0
4, 22800, Note_on_c, 0, 60, 0
4, 22800, Note_on_c, 0, 55, 76
4, 22800, Note_on_c, 0, 58, 76
4, 22800, Note_on_c, 0, 62, 76
4, 23040, Note_on_c, 0, 62, 0
4, 23040, Note_on_c, 0, 58, 0
4, 23040, Note_on_c, 0, 55, 0
4, 23040, Note_on_c, 0, 50, 76
4, 23040, Note_on_c, 0, 54, 76
4, 23040, Note_on_c, 0, 57, 76
4, 23040, Note_on_c, 0, 62, 76
4, 23280, Note_on_c, 0, 62, 0
4, 23280, Note_on_c, 0, 50, 0
4, 23280, Note_on_c, 0, 54, 0
4, 23280, Note_on_c, 0, 57, 0
4, 23280, Note_on_c, 0, 50, 76
4, 23280, Note_on_c, 0, 54, 76
4, 23280, Note_on_c, 0, 57, 76
4, 23280, Note_on_c, 0, 62, 76
4, 23360, Note_on_c, 0, 62, 0
4, 23360, Note_on_c, 0, 50, 0
4, 23360, Note_on_c, 0, 54, 0
4, 23360, Note_on_c, 0, 57, 0
4, 23360, Note_on_c, 0, 50, 76
4, 23360, Note_on_c, 0, 54, 76
4, 23360, Note_on_c, 0, 57, 76
4, 23360, Note_on_c, 0, 62, 76
4, 23439, Note_on_c, 0, 62, 0
4, 23439, Note_on_c, 0, 50, 0
4, 23439, Note_on_c, 0, 54, 0
4, 23439, Note_on_c, 0, 57, 0
4, 23439, Note_on_c, 0, 50, 76
4, 23439, Note_on_c, 0, 54, 76
4, 23439, Note_on_c, 0, 57, 76
4, 23439, Note_on_c, 0, 62, 76
4, 23520, Note_on_c, 0, 62, 0
4, 23520, Note_on_c, 0, 50, 0
4, 23520, Note_on_c, 0, 54, 0
4, 23520, Note_on_c, 0, 57, 0
4, 23520, Note_on_c, 0, 50, 76
4, 23520, Note_on_c, 0, 54, 76
4, 23520, Note_on_c, 0, 57, 76
4, 23520, Note_on_c, 0, 62, 76
4, 23760, Note_on_c, 0, 62, 0
4, 23760, Note_on_c, 0, 50, 0
4, 23760, Note_on_c, 0, 54, 0
4, 23760, Note_on_c, 0, 57, 0
4, 23760, Note_on_c, 0, 48, 76
4, 23760, Note_on_c, 0, 54, 76
4, 23760, Note_on_c, 0, 57, 76
4, 23760, Note_on_c, 0, 62, 76
4, 24000, Note_on_c, 0, 62, 0
4, 24000, Note_on_c, 0, 48, 0
4, 24000, Note_on_c, 0, 54, 0
4, 24000, Note_on_c, 0, 57, 0
4, 24000, Note_on_c, 0, 46, 76
4, 24000, Note_on_c, 0, 50, 76
4, 24000, Note_on_c, 0, 55, 76
4, 24240, Note_on_c, 0, 55, 0
4, 24240, Note_on_c, 0, 50, 0
4, 24240, Note_on_c, 0, 46, 0
4, 24240, Note_on_c, 0, 46, 76
4, 24240, Note_on_c, 0, 50, 76
4, 24240, Note_on_c, 0, 55, 76
4, 24480, Note_on_c, 0, 55, 0
4, 24480, Note_on_c, 0, 50, 0
4, 24480, Note_on_c, 0, 46, 0
4, 24480, Note_on_c, 0, 45, 76
4, 24480, Note_on_c, 0, 50, 76
4, 24480, Note_on_c, 0, 57, 76
4, 24720, Note_on_c, 0, 57, 0
4, 24720, Note_on_c, 0, 50, 0
4, 24720, Note_on_c, 0, 45, 0
4, 24720, Note_on_c, 0, 43, 76
4, 24720, Note_on_c, 0, 50, 76
4, 24720, Note_on_c, 0, 55, 76
4, 24960, Note_on_c, 0, 55, 0
4, 24960, Note_on_c, 0, 50, 0
4, 24960, Note_on_c, 0, 43, 0
4, 24960, Note_on_c, 0, 41, 76
4, 24960, Note_on_c, 0, 53, 76
4, 25200, Note_on_c, 0, 53, 0
4, 25200, Note_on_c, 0, 41, 0
4, 25200, Note_on_c, 0, 41, 76
4, 25200, Note_on_c, 0, 53, 76
4, 25320, Note_on_c, 0, 53, 0
4, 25320, Note_on_c, 0, 41, 0
4, 25320, Note_on_c, 0, 39, 76
4, 25320, Note_on_c, 0, 51, 76
4, 25440, Note_on_c, 0, 51, 0
4, 25440, Note_on_c, 0, 39, 0
4, 25440, Note_on_c, 0, 38, 76
4, 25440, Note_on_c, 0, 50, 76
4, 25680, Note_on_c, 0, 50, 0
4, 25680, Note_on_c, 0, 38, 0
4, 25680, Note_on_c, 0, 36, 76
4, 25680, Note_on_c, 0, 48, 76
4, 25920, Note_on_c, 0, 48, 0
4, 25920, Note_on_c, 0, 36, 0
4, 25920, Note_on_c, 0, 34, 76
4, 25920, Note_on_c, 0, 46, 76
4, 26160, Note_on_c, 0, 46, 0
4, 26160, Note_on_c, 0, 34, 0
4, 26160, Note_on_c, 0, 34, 76
4, 26160, Note_on_c, 0, 46, 76
4, 26280, Note_on_c, 0, 46, 0
4, 26280, Note_on_c, 0, 34, 0
4, 26280, Note_on_c, 0, 36, 76
4, 26280, Note_on_c, 0, 48, 76
4, 26400, Note_on_c, 0, 48, 0
4, 26400, Note_on_c, 0, 36, 0
4, 26400, Note_on_c, 0, 38, 76
4, 26400, Note_on_c, 0, 50, 76
4, 26640, Note_on_c, 0, 50, 0
4, 26640, Note_on_c, 0, 38, 0
4, 26640, Note_on_c, 0, 34, 76
4, 26640, Note_on_c, 0, 46, 76
4, 26880, Note_on_c, 0, 46, 0
4, 26880, Note_on_c, 0, 34, 0
4, 26880, Note_on_c, 0, 39, 76
4, 26880, Note_on_c, 0, 51, 76
4, 27120, Note_on_c, 0, 39, 0
4, 27120, Note_on_c, 0, 57, 76
4, 27240, Note_on_c, 0, 57, 0
4, 27240, Note_on_c, 0, 51, 0
4, 27240, Note_on_c, 0, 55, 76
4, 27360, Note_on_c, 0, 55, 0
4, 27360, Note_on_c, 0, 50, 76
4, 27360, Note_on_c, 0, 54, 76
4, 27360, Note_on_c, 0, 57, 76
4, 27720, Note_on_c, 0, 57, 0
4, 27720, Note_on_c, 0, 54, 0
4, 27720, Note_on_c, 0, 50, 0
4, 27720, Note_on_c, 0, 50, 76
4, 27720, Note_on_c, 0, 54, 76
4, 27720, Note_on_c, 0, 57, 76
4, 27840, Note_on_c, 0, 57, 0
4, 27840, Note_on_c, 0, 54, 0
4, 27840, Note_on_c, 0, 50, 0
4, 27840, Note_on_c, 0, 46, 76
4, 27840, Note_on_c, 0, 50, 76
4, 27840, Note_on_c, 0, 55, 76
4, 27960, Note_on_c, 0, 55, 0
4, 27960, Note_on_c, 0, 50, 0
4, 27960, Note_on_c, 0, 46, 0
4, 28020, Note_on_c, 0, 50, 76
4, 28140, Note_on_c, 0, 50, 0
4, 28140, Note_on_c, 0, 51, 76
4, 28260, Note_on_c, 0, 51, 0
4, 28260, Note_on_c, 0, 54, 76
4, 28380, Note_on_c, 0, 54, 0
4, 28380, Note_on_c, 0, 55, 76
4, 28500, Note_on_c, 0, 55, 0
4, 28500, Note_on_c, 0, 57, 76
4, 28620, Note_on_c, 0, 57, 0
4, 28620, Note_on_c, 0, 58, 76
4, 28740, Note_on_c, 0, 58, 0
4, 28740, Note_on_c, 0, 62, 76
4, 28800, Note_on_c, 0, 62, 0
4, 28860, Note_on_c, 0, 43, 76
4, 28860, Note_on_c, 0, 55, 76
4, 28980, Note_on_c, 0, 55, 0
4, 28980, Note_on_c, 0, 43, 0
4, 28980, Note_on_c, 0, 50, 76
4, 29100, Note_on_c, 0, 50, 0
4, 29100, Note_on_c, 0, 52, 76
4, 29220, Note_on_c, 0, 52, 0
4, 29220, Note_on_c, 0, 54, 76
4, 29340, Note_on_c, 0, 54, 0
4, 29340, Note_on_c, 0, 55, 76
4, 29460, Note_on_c, 0, 55, 0
4, 29460, Note_on_c, 0, 57, 76
4, 29580, Note_on_c, 0, 57, 0
4, 29580, Note_on_c, 0, 58, 76
4, 29700, Note_on_c, 0, 58, 0
4, 29700, Note_on_c, 0, 62, 76
4, 29760, Note_on_c, 0, 62, 0
4, 29760, Note_on_c, 0, 43, 76
4, 29760, Note_on_c, 0, 46, 76
4, 29760, Note_on_c, 0, 50, 76
4, 29760, Note_on_c, 0, 55, 76
4, 30240, Note_on_c, 0, 55, 0
4, 30240, Note_on_c, 0, 43, 0
4, 30240, Note_on_c, 0, 46, 0
4, 30240, Note_on_c, 0, 50, 0
4, 30240, Note_on_c, 0, 43, 76
4, 30240, Note_on_c, 0, 46, 76
4, 30240, Note_on_c, 0, 50, 76
4, 30240, Note_on_c, 0, 55, 76
4, 30480, Note_on_c, 0, 55, 0
4, 30480, Note_on_c, 0, 43, 0
4, 30480, Note_on_c, 0, 46, 0
4, 30480, Note_on_c, 0, 50, 0
4, 30480, Note_on_c, 0, 43, 76
4, 30480, Note_on_c, 0, 46, 76
4, 30480, Note_on_c, 0, 50, 76
4, 30480, Note_on_c, 0, 55, 76
4, 30720, Note_on_c, 0, 55, 0
4, 30720, Note_on_c, 0, 43, 0
4, 30720, Note_on_c, 0, 46, 0
4, 30720, Note_on_c, 0, 50, 0
4, 30720, Note_on_c, 0, 38, 76
4, 30720, Note_on_c, 0, 41, 76
4, 30720, Note_on_c, 0, 45, 76
4, 30720, Note_on_c, 0, 50, 76
4, 31200, Note_on_c, 0, 50, 0
4, 31200, Note_on_c, 0, 38, 0
4, 31200, Note_on_c, 0, 41, 0
4, 31200, Note_on_c, 0, 45, 0
4, 31200, Note_on_c, 0, 38, 76
4, 31200, Note_on_c, 0, 41, 76
4, 31200, Note_on_c, 0, 45, 76
4, 31200, Note_on_c, 0, 50, 76
4, 31440, Note_on_c, 0, 50, 0
4, 31440, Note_on_c, 0, 38, 0
4, 31440, Note_on_c, 0, 41, 0
4, 31440, Note_on_c, 0, 45, 0
4, 31440, Note_on_c, 0, 43, 76
4, 31440, Note_on_c, 0, 46, 76
4, 31440, Note_on_c, 0, 50, 76
4, 31440, Note_on_c, 0, 55, 76
4, 31680, Note_on_c, 0, 55, 0
4, 31680, Note_on_c, 0, 43, 0
4, 31680, Note_on_c, 0, 46, 0
4, 31680, Note_on_c, 0, 50, 0
4, 31680, Note_on_c, 0, 42, 76
4, 31680, Note_on_c, 0, 45, 76
4, 31680, Note_on_c, 0, 48, 76
4, 31680, Note_on_c, 0, 50, 76
4, 31680, Note_on_c, 0, 54, 76
4, 31920, Note_on_c, 0, 54, 0
4, 31920, Note_on_c, 0, 48, 0
4, 31920, Note_on_c, 0, 42, 0
4, 31920, Note_on_c, 0, 45, 0
4, 31920, Note_on_c, 0, 50, 0
4, 31920, Note_on_c, 0, 43, 76
4, 31920, Note_on_c, 0, 46, 76
4, 31920, Note_on_c, 0, 50, 76
4, 31920, Note_on_c, 0, 55, 76
4, 32160, Note_on_c, 0, 55, 0
4, 32160, Note_on_c, 0, 43, 0
4, 32160, Note_on_c, 0, 46, 0
4, 32160, Note_on_c, 0, 50, 0
4, 32160, Note_on_c, 0, 45, 76
4, 32160, Note_on_c, 0, 48, 76
4, 32160, Note_on_c, 0, 50, 76
4, 32160, Note_on_c, 0, 57, 76
4, 32400, Note_on_c, 0, 57, 0
4, 32400, Note_on_c, 0, 45, 0
4, 32400, Note_on_c, 0, 48, 0
4, 32400, Note_on_c, 0, 50, 0
4, 32400, Note_on_c, 0, 43, 76
4, 32400, Note_on_c, 0, 46, 76
4, 32400, Note_on_c, 0, 50, 76
4, 32400, Note_on_c, 0, 55, 76
4, 32640, Note_on_c, 0, 55, 0
4, 32640, Note_on_c, 0, 43, 0
4, 32640, Note_on_c, 0, 46, 0
4, 32640, Note_on_c, 0, 50, 0
4, 32640, Note_on_c, 0, 38, 76
4, 32640, Note_on_c, 0, 42, 76
4, 32640, Note_on_c, 0, 45, 76
4, 32640, Note_on_c, 0, 50, 76
4, 32760, Note_on_c, 0, 50, 0
4, 32760, Note_on_c, 0, 38, 0
4, 32760, Note_on_c, 0, 42, 0
4, 32760, Note_on_c, 0, 45, 0
4, 32760, Note_on_c, 0, 50, 76
4, 32880, Note_on_c, 0, 50, 0
4, 32880, Note_on_c, 0, 54, 76
4, 33000, Note_on_c, 0, 54, 0
4, 33000, Note_on_c, 0, 57, 76
4, 33120, Note_on_c, 0, 57, 0
4, 33120, Note_on_c, 0, 62, 76
4, 33240, Note_on_c, 0, 62, 0
4, 33240, Note_on_c, 0, 66, 76
4, 33360, Note_on_c, 0, 66, 0
4, 33360, Note_on_c, 0, 69, 76
4, 33480, Note_on_c, 0, 69, 0
4, 33480, Note_on_c, 0, 74, 76
4, 33600, Note_on_c, 0, 74, 0
4, 33600, Note_on_c, 0, 43, 76
4, 33600, Note_on_c, 0, 46, 76
4, 33600, Note_on_c, 0, 50, 76
4, 33600, Note_on_c, 0, 55, 76
4, 34080, Note_on_c, 0, 55, 0
4, 34080, Note_on_c, 0, 43, 0
4, 34080, Note_on_c, 0, 46, 0
4, 34080, Note_on_c, 0, 50, 0
4, 34080, Note_on_c, 0, 43, 76
4, 34080, Note_on_c, 0, 46, 76
4, 34080, Note_on_c, 0, 50, 76
4, 34080, Note_on_c, 0, 55, 76
4, 34320, Note_on_c, 0, 55, 0
4, 34320, Note_on_c, 0, 43, 0
4, 34320, Note_on_c, 0, 46, 0
4, 34320, Note_on_c, 0, 50, 0
4, 34320, Note_on_c, 0, 43, 76
4, 34320, Note_on_c, 0, 46, 76
4, 34320, Note_on_c, 0, 50, 76
4, 34320, Note_on_c, 0, 55, 76
4, 34560, Note_on_c, 0, 55, 0
4, 34560, Note_on_c, 0, 43, 0
4, 34560, Note_on_c, 0, 46, 0
4, 34560, Note_on_c, 0, 50, 0
4, 34560, Note_on_c, 0, 38, 76
4, 34560, Note_on_c, 0, 41, 76
4, 34560, Note_on_c, 0, 45, 76
4, 34560, Note_on_c, 0, 50, 76
4, 35040, Note_on_c, 0, 50, 0
4, 35040, Note_on_c, 0, 38, 0
4, 35040, Note_on_c, 0, 41, 0
4, 35040, Note_on_c, 0, 45, 0
4, 35040, Note_on_c, 0, 38, 76
4, 35040, Note_on_c, 0, 41, 76
4, 35040, Note_on_c, 0, 45, 76
4, 35040, Note_on_c, 0, 50, 76
4, 35280, Note_on_c, 0, 50, 0
4, 35280, Note_on_c, 0, 38, 0
4, 35280, Note_on_c, 0, 41, 0
4, 35280, Note_on_c, 0, 45, 0
4, 35280, Note_on_c, 0, 43, 76
4, 35280, Note_on_c, 0, 46, 76
4, 35280, Note_on_c, 0, 50, 76
4, 35280, Note_on_c, 0, 55, 76
4, 35520, Note_on_c, 0, 55, 0
4, 35520, Note_on_c, 0, 43, 0
4, 35520, Note_on_c, 0, 46, 0
4, 35520, Note_on_c, 0, 50, 0
4, 35520, Note_on_c, 0, 42, 76
4, 35520, Note_on_c, 0, 45, 76
4, 35520, Note_on_c, 0, 48, 76
4, 35520, Note_on_c, 0, 50, 76
4, 35520, Note_on_c, 0, 54, 76
4, 35760, Note_on_c, 0, 54, 0
4, 35760, Note_on_c, 0, 48, 0
4, 35760, Note_on_c, 0, 42, 0
4, 35760, Note_on_c, 0, 45, 0
4, 35760, Note_on_c, 0, 50, 0
4, 35760, Note_on_c, 0, 43, 76
4, 35760, Note_on_c, 0, 46, 76
4, 35760, Note_on_c, 0, 50, 76
4, 35760, Note_on_c, 0, 55, 76
4, 36000, Note_on_c, 0, 55, 0
4, 36000, Note_on_c, 0, 43, 0
4, 36000, Note_on_c, 0, 46, 0
4, 36000, Note_on_c, 0, 50, 0
4, 36000, Note_on_c, 0, 45, 76
4, 36000, Note_on_c, 0, 48, 76
4, 36000, Note_on_c, 0, 50, 76
4, 36000, Note_on_c, 0, 57, 76
4, 36240, Note_on_c, 0, 57, 0
4, 36240, Note_on_c, 0, 45, 0
4, 36240, Note_on_c, 0, 48, 0
4, 36240, Note_on_c, 0, 50, 0
4, 36240, Note_on_c, 0, 43, 76
4, 36240, Note_on_c, 0, 46, 76
4, 36240, Note_on_c, 0, 50, 76
4, 36240, Note_on_c, 0, 55, 76
4, 36480, Note_on_c, 0, 55, 0
4, 36480, Note_on_c, 0, 43, 0
4, 36480, Note_on_c, 0, 46, 0
4, 36480, Note_on_c, 0, 50, 0
4, 36480, Note_on_c, 0, 38, 76
4, 36480, Note_on_c, 0, 42, 76
4, 36480, Note_on_c, 0, 45, 76
4, 36480, Note_on_c, 0, 50, 76
4, 36600, Note_on_c, 0, 50, 0
4, 36600, Note_on_c, 0, 38, 0
4, 36600, Note_on_c, 0, 42, 0
4, 36600, Note_on_c, 0, 45, 0
4, 36600, Note_on_c, 0, 50, 76
4, 36720, Note_on_c, 0, 50, 0
4, 36720, Note_on_c, 0, 54, 76
4, 36840, Note_on_c, 0, 54, 0
4, 36840, Note_on_c, 0, 57, 76
4, 36960, Note_on_c, 0, 57, 0
4, 36960, Note_on_c, 0, 62, 76
4, 37080, Note_on_c, 0, 62, 0
4, 37080, Note_on_c, 0, 66, 76
4, 37200, Note_on_c, 0, 66, 0
4, 37200, Note_on_c, 0, 69, 76
4, 37320, Note_on_c, 0, 69, 0
4, 37320, Note_on_c, 0, 74, 76
4, 37440, Note_on_c, 0, 74, 0
4, 37440, Note_on_c, 0, 43, 76
4, 37440, Note_on_c, 0, 46, 76
4, 37440, Note_on_c, 0, 50, 76
4, 37440, Note_on_c, 0, 55, 76
4, 37920, Note_on_c, 0, 55, 0
4, 37920, Note_on_c, 0, 43, 0
4, 37920, Note_on_c, 0, 46, 0
4, 37920, Note_on_c, 0, 50, 0
4, 37920, Note_on_c, 0, 42, 76
4, 37920, Note_on_c, 0, 45, 76
4, 37920, Note_on_c, 0, 48, 76
4, 37920, Note_on_c, 0, 50, 76
4, 37920, Note_on_c, 0, 54, 76
4, 38160, Note_on_c, 0, 54, 0
4, 38160, Note_on_c, 0, 48, 0
4, 38160, Note_on_c, 0, 42, 0
4, 38160, Note_on_c, 0, 45, 0
4, 38160, Note_on_c, 0, 50, 0
4, 38160, Note_on_c, 0, 43, 76
4, 38160, Note_on_c, 0, 46, 76
4, 38160, Note_on_c, 0, 50, 76
4, 38160, Note_on_c, 0, 55, 76
4, 38400, Note_on_c, 0, 55, 0
4, 38400, Note_on_c, 0, 43, 0
4, 38400, Note_on_c, 0, 46, 0
4, 38400, Note_on_c, 0, 50, 0
4, 38400, Note_on_c, 0, 38, 76
4, 38400, Note_on_c, 0, 42, 76
4, 38400, Note_on_c, 0, 45, 76
4, 38400, Note_on_c, 0, 50, 76
4, 38880, Note_on_c, 0, 50, 0
4, 38880, Note_on_c, 0, 38, 0
4, 38880, Note_on_c, 0, 42, 0
4, 38880, Note_on_c, 0, 45, 0
4, 38880, Note_on_c, 0, 50, 76
4, 38880, Note_on_c, 0, 54, 76
4, 38880, Note_on_c, 0, 57, 76
4, 38880, Note_on_c, 0, 62, 76
4, 39120, Note_on_c, 0, 62, 0
4, 39120, Note_on_c, 0, 50, 0
4, 39120, Note_on_c, 0, 54, 0
4, 39120, Note_on_c, 0, 57, 0
4, 39120, Note_on_c, 0, 48, 76
4, 39120, Note_on_c, 0, 54, 76
4, 39120, Note_on_c, 0, 57, 76
4, 39120, Note_on_c, 0, 60, 76
4, 39360, Note_on_c, 0, 60, 0
4, 39360, Note_on_c, 0, 48, 0
4, 39360, Note_on_c, 0, 54, 0
4, 39360, Note_on_c, 0, 57, 0
4, 39360, Note_on_c, 0, 46, 76
4, 39360, Note_on_c, 0, 50, 76
4, 39360, Note_on_c, 0, 55, 76
4, 39360, Note_on_c, 0, 58, 76
4, 39600, Note_on_c, 0, 58, 0
4, 39600, Note_on_c, 0, 46, 0
4, 39600, Note_on_c, 0, 50, 0
4, 39600, Note_on_c, 0, 55, 0
4, 39600, Note_on_c, 0, 46, 76
4, 39600, Note_on_c, 0, 50, 76
4, 39600, Note_on_c, 0, 55, 76
4, 39600, Note_on_c, 0, 58, 76
4, 39840, Note_on_c, 0, 58, 0
4, 39840, Note_on_c, 0, 46, 0
4, 39840, Note_on_c, 0, 50, 0
4, 39840, Note_on_c, 0, 55, 0
4, 39840, Note_on_c, 0, 45, 76
4, 39840, Note_on_c, 0, 48, 76
4, 39840, Note_on_c, 0, 50, 76
4, 39840, Note_on_c, 0, 54, 76
4, 39840, Note_on_c, 0, 57, 76
4, 40080, Note_on_c, 0, 57, 0
4, 40080, Note_on_c, 0, 50, 0
4, 40080, Note_on_c, 0, 45, 0
4, 40080, Note_on_c, 0, 48, 0
4, 40080, Note_on_c, 0, 54, 0
4, 40080, Note_on_c, 0, 43, 76
4, 40080, Note_on_c, 0, 46, 76
4, 40080, Note_on_c, 0, 50, 76
4, 40080, Note_on_c, 0, 55, 76
4, 40320, Note_on_c, 0, 55, 0
4, 40320, Note_on_c, 0, 43, 0
4, 40320, Note_on_c, 0, 46, 0
4, 40320, Note_on_c, 0, 50, 0
4, 40320, Note_on_c, 0, 41, 76
4, 40320, Note_on_c, 0, 45, 76
4, 40320, Note_on_c, 0, 50, 76
4, 40320, Note_on_c, 0, 53, 76
4, 40560, Note_on_c, 0, 53, 0
4, 40560, Note_on_c, 0, 41, 0
4, 40560, Note_on_c, 0, 45, 0
4, 40560, Note_on_c, 0, 50, 0
4, 40560, Note_on_c, 0, 41, 76
4, 40560, Note_on_c, 0, 53, 76
4, 40680, Note_on_c, 0, 53, 0
4, 40680, Note_on_c, 0, 41, 0
4, 40680, Note_on_c, 0, 39, 76
4, 40680, Note_on_c, 0, 51, 76
4, 40800, Note_on_c, 0, 51, 0
4, 40800, Note_on_c, 0, 39, 0
4, 40800, Note_on_c, 0, 38, 76
4, 40800, Note_on_c, 0, 46, 76
4, 40800, Note_on_c, 0, 50, 76
4, 41040, Note_on_c, 0, 50, 0
4, 41040, Note_on_c, 0, 46, 0
4, 41040, Note_on_c, 0, 38, 0
4, 41040, Note_on_c, 0, 36, 76
4, 41040, Note_on_c, 0, 41, 76
4, 41040, Note_on_c, 0, 48, 76
4, 41280, Note_on_c, 0, 48, 0
4, 41280, Note_on_c, 0, 41, 0
4, 41280, Note_on_c, 0, 36, 0
4, 41280, Note_on_c, 0, 34, 76
4, 41280, Note_on_c, 0, 46, 76
4, 41520, Note_on_c, 0, 46, 0
4, 41520, Note_on_c, 0, 34, 0
4, 41520, Note_on_c, 0, 34, 76
4, 41520, Note_on_c, 0, 46, 76
4, 41640, Note_on_c, 0, 46, 0
4, 41640, Note_on_c, 0, 34, 0
4, 41640, Note_on_c, 0, 36, 76
4, 41640, Note_on_c, 0, 48, 76
4, 41760, Note_on_c, 0, 48, 0
4, 41760, Note_on_c, 0, 36, 0
4, 41760, Note_on_c, 0, 38, 76
4, 41760, Note_on_c, 0, 50, 76
4, 42000, Note_on_c, 0, 50, 0
4, 42000, Note_on_c, 0, 38, 0
4, 42000, Note_on_c, 0, 34, 76
4, 42000, Note_on_c, 0, 41, 76
4, 42000, Note_on_c, 0, 46, 76
4, 42240, Note_on_c, 0, 46, 0
4, 42240, Note_on_c, 0, 41, 0
4, 42240, Note_on_c, 0, 34, 0
4, 42240, Note_on_c, 0, 39, 76
4, 42240, Note_on_c, 0, 46, 76
4, 42240, Note_on_c, 0, 51, 76
4, 42720, Note_on_c, 0, 51, 0
4, 42720, Note_on_c, 0, 46, 0
4, 42720, Note_on_c, 0, 39, 0
4, 42720, Note_on_c, 0, 38, 76
4, 42720, Note_on_c, 0, 42, 76
4, 42720, Note_on_c, 0, 45, 76
4, 42720, Note_on_c, 0, 50, 76
4, 42960, Note_on_c, 0, 50, 0
4, 42960, Note_on_c, 0, 38, 0
4, 42960, Note_on_c, 0, 42, 0
4, 42960, Note_on_c, 0, 45, 0
4, 42960, Note_on_c, 0, 38, 76
4, 42960, Note_on_c, 0, 42, 76
4, 42960, Note_on_c, 0, 45, 76
4, 42960, Note_on_c, 0, 50, 76
4, 43200, Note_on_c, 0, 50, 0
4, 43200, Note_on_c, 0, 38, 0
4, 43200, Note_on_c, 0, 42, 0
4, 43200, Note_on_c, 0, 45, 0
4, 43200, Note_on_c, 0, 43, 76
4, 43200, Note_on_c, 0, 46, 76
4, 43200, Note_on_c, 0, 50, 76
4, 43200, Note_on_c, 0, 55, 76
4, 43320, Note_on_c, 0, 55, 0
4, 43320, Note_on_c, 0, 43, 0
4, 43320, Note_on_c, 0, 46, 0
4, 43320, Note_on_c, 0, 50, 0
4, 43320, Note_on_c, 0, 46, 76
4, 43320, Note_on_c, 0, 50, 76
4, 43440, Note_on_c, 0, 50, 0
4, 43440, Note_on_c, 0, 46, 0
4, 43440, Note_on_c, 0, 50, 76
4, 43440, Note_on_c, 0, 55, 76
4, 43560, Note_on_c, 0, 55, 0
4, 43560, Note_on_c, 0, 50, 0
4, 43560, Note_on_c, 0, 55, 76
4, 43560, Note_on_c, 0, 58, 76
4, 43680, Note_on_c, 0, 58, 0
4, 43680, Note_on_c, 0, 55, 0
4, 43680, Note_on_c, 0, 58, 76
4, 43680, Note_on_c, 0, 62, 76
4, 43800, Note_on_c, 0, 62, 0
4, 43800, Note_on_c, 0, 58, 0
4, 43800, Note_on_c, 0, 62, 76
4, 43800, Note_on_c, 0, 67, 76
4, 43920, Note_on_c, 0, 67, 0
4, 43920, Note_on_c, 0, 62, 0
4, 43920, Note_on_c, 0, 67, 76
4, 43920, Note_on_c, 0, 70, 76
4, 44040, Note_on_c, 0, 70, 0
4, 44040, Note_on_c, 0, 67, 0
4, 44040, Note_on_c, 0, 70, 76
4, 44040, Note_on_c, 0, 74, 76
4, 44160, Note_on_c, 0, 74, 0
4, 44160, Note_on_c, 0, 70, 0
4, 44160, Note_on_c, 0, 43, 76
4, 44160, Note_on_c, 0, 46, 76
4, 44160, Note_on_c, 0, 50, 76
4, 44160, Note_on_c, 0, 55, 76
4, 44640, Note_on_c, 0, 55, 0
4, 44640, Note_on_c, 0, 43, 0
4, 44640, Note_on_c, 0, 46, 0
4, 44640, Note_on_c, 0, 50, 0
4, 44640, Note_on_c, 0, 42, 76
4, 44640, Note_on_c, 0, 45, 76
4, 44640, Note_on_c, 0, 48, 76
4, 44640, Note_on_c, 0, 50, 76
4, 44640, Note_on_c, 0, 54, 76
4, 44880, Note_on_c, 0, 54, 0
4, 44880, Note_on_c, 0, 48, 0
4, 44880, Note_on_c, 0, 42, 0
4, 44880, Note_on_c, 0, 45, 0
4, 44880, Note_on_c, 0, 50, 0
4, 44880, Note_on_c, 0, 43, 76
4, 44880, Note_on_c, 0, 46, 76
4, 44880, Note_on_c, 0, 50, 76
4, 44880, Note_on_c, 0, 55, 76
4, 45120, Note_on_c, 0, 55, 0
4, 45120, Note_on_c, 0, 43, 0
4, 45120, Note_on_c, 0, 46, 0
4, 45120, Note_on_c, 0, 50, 0
4, 45120, Note_on_c, 0, 38, 76
4, 45120, Note_on_c, 0, 42, 76
4, 45120, Note_on_c, 0, 45, 76
4, 45120, Note_on_c, 0, 50, 76
4, 45600, Note_on_c, 0, 50, 0
4, 45600, Note_on_c, 0, 38, 0
4, 45600, Note_on_c, 0, 42, 0
4, 45600, Note_on_c, 0, 45, 0
4, 45600, Note_on_c, 0, 50, 76
4, 45600, Note_on_c, 0, 54, 76
4, 45600, Note_on_c, 0, 57, 76
4, 45600, Note_on_c, 0, 62, 76
4, 45840, Note_on_c, 0, 62, 0
4, 45840, Note_on_c, 0, 50, 0
4, 45840, Note_on_c, 0, 54, 0
4, 45840, Note_on_c, 0, 57, 0
4, 45840, Note_on_c, 0, 48, 76
4, 45840, Note_on_c, 0, 54, 76
4, 45840, Note_on_c, 0, 57, 76
4, 45840, Note_on_c, 0, 60, 76
4, 46080, Note_on_c, 0, 60, 0
4, 46080, Note_on_c, 0, 48, 0
4, 46080, Note_on_c, 0, 54, 0
4, 46080, Note_on_c, 0, 57, 0
4, 46080, Note_on_c, 0, 46, 76
4, 46080, Note_on_c, 0, 50, 76
4, 46080, Note_on_c, 0, 55, 76
4, 46080, Note_on_c, 0, 58, 76
4, 46320, Note_on_c, 0, 58, 0
4, 46320, Note_on_c, 0, 46, 0
4, 46320, Note_on_c, 0, 50, 0
4, 46320, Note_on_c, 0, 55, 0
4, 46320, Note_on_c, 0, 46, 76
4, 46320, Note_on_c, 0, 50, 76
4, 46320, Note_on_c, 0, 55, 76
4, 46320, Note_on_c, 0, 58, 76
4, 46560, Note_on_c, 0, 58, 0
4, 46560, Note_on_c, 0, 46, 0
4, 46560, Note_on_c, 0, 50, 0
4, 46560, Note_on_c, 0, 55, 0
4, 46560, Note_on_c, 0, 45, 76
4, 46560, Note_on_c, 0, 48, 76
4, 46560, Note_on_c, 0, 50, 76
4, 46560, Note_on_c, 0, 54, 76
4, 46560, Note_on_c, 0, 57, 76
4, 46800, Note_on_c, 0, 57, 0
4, 46800, Note_on_c, 0, 50, 0
4, 46800, Note_on_c, 0, 45, 0
4, 46800, Note_on_c, 0, 48, 0
4, 46800, Note_on_c, 0, 54, 0
4, 46800, Note_on_c, 0, 43, 76
4, 46800, Note_on_c, 0, 46, 76
4, 46800, Note_on_c, 0, 50, 76
4, 46800, Note_on_c, 0, 55, 76
4, 47040, Note_on_c, 0, 55, 0
4, 47040, Note_on_c, 0, 43, 0
4, 47040, Note_on_c, 0, 46, 0
4, 47040, Note_on_c, 0, 50, 0
4, 47040, Note_on_c, 0, 41, 76
4, 47040, Note_on_c, 0, 45, 76
4, 47040, Note_on_c, 0, 50, 76
4, 47040, Note_on_c, 0, 53, 76
4, 47280, Note_on_c, 0, 53, 0
4, 47280, Note_on_c, 0, 41, 0
4, 47280, Note_on_c, 0, 45, 0
4, 47280, Note_on_c, 0, 50, 0
4, 47280, Note_on_c, 0, 41, 76
4, 47280, Note_on_c, 0, 53, 76
4, 47400, Note_on_c, 0, 53, 0
4, 47400, Note_on_c, 0, 41, 0
4, 47400, Note_on_c, 0, 39, 76
4, 47400, Note_on_c, 0, 51, 76
4, 47520, Note_on_c, 0, 51, 0
4, 47520, Note_on_c, 0, 39, 0
4, 47520, Note_on_c, 0, 38, 76
4, 47520, Note_on_c, 0, 46, 76
4, 47520, Note_on_c, 0, 50, 76
4, 47760, Note_on_c, 0, 50, 0
4, 47760, Note_on_c, 0, 46, 0
4, 47760, Note_on_c, 0, 38, 0
4, 47760, Note_on_c, 0, 36, 76
4, 47760, Note_on_c, 0, 41, 76
4, 47760, Note_on_c, 0, 48, 76
4, 48000, Note_on_c, 0, 48, 0
4, 48000, Note_on_c, 0, 41, 0
4, 48000, Note_on_c, 0, 36, 0
4, 48000, Note_on_c, 0, 34, 76
4, 48000, Note_on_c, 0, 46, 76
4, 48240, Note_on_c, 0, 46, 0
4, 48240, Note_on_c, 0, 34, 0
4, 48240, Note_on_c, 0, 34, 76
4, 48240, Note_on_c, 0, 46, 76
4, 48360, Note_on_c, 0, 46, 0
4, 48360, Note_on_c, 0, 34, 0
4, 48360, Note_on_c, 0, 36, 76
4, 48360, Note_on_c, 0, 48, 76
4, 48480, Note_on_c, 0, 48, 0
4, 48480, Note_on_c, 0, 36, 0
4, 48480, Note_on_c, 0, 38, 76
4, 48480, Note_on_c, 0, 50, 76
4, 48720, Note_on_c, 0, 50, 0
4, 48720, Note_on_c, 0, 38, 0
4, 48720, Note_on_c, 0, 34, 76
4, 48720, Note_on_c, 0, 41, 76
4, 48720, Note_on_c, 0, 46, 76
4, 48960, Note_on_c, 0, 46, 0
4, 48960, Note_on_c, 0, 41, 0
4, 48960, Note_on_c, 0, 34, 0
4, 48960, Note_on_c, 0, 39, 76
4, 48960, Note_on_c, 0, 46, 76
4, 48960, Note_on_c, 0, 51, 76
4, 49440, Note_on_c, 0, 51, 0
4, 49440, Note_on_c, 0, 46, 0
4, 49440, Note_on_c, 0, 39, 0
4, 49440, Note_on_c, 0, 38, 76
4, 49440, Note_on_c, 0, 42, 76
4, 49440, Note_on_c, 0, 45, 76
4, 49440, Note_on_c, 0, 50, 76
4, 49680, Note_on_c, 0, 50, 0
4, 49680, Note_on_c, 0, 38, 0
4, 49680, Note_on_c, 0, 42, 0
4, 49680, Note_on_c, 0, 45, 0
4, 49680, Note_on_c, 0, 38, 76
4, 49680, Note_on_c, 0, 42, 76
4, 49680, Note_on_c, 0, 45, 76
4, 49680, Note_on_c, 0, 50, 76
4, 49920, Note_on_c, 0, 50, 0
4, 49920, Note_on_c, 0, 38, 0
4, 49920, Note_on_c, 0, 42, 0
4, 49920, Note_on_c, 0, 45, 0
4, 49920, Control_c, 0, 64, 127
4, 49920, Note_on_c, 0, 43, 76
4, 49920, Note_on_c, 0, 46, 76
4, 49920, Note_on_c, 0, 50, 76
4, 49980, Note_on_c, 0, 50, 0
4, 49980, Note_on_c, 0, 46, 0
4, 49980, Note_on_c, 0, 43, 0
4, 49980, Note_on_c, 0, 55, 76
4, 50040, Note_on_c, 0, 55, 0
4, 50040, Note_on_c, 0, 43, 76
4, 50040, Note_on_c, 0, 46, 76
4, 50040, Note_on_c, 0, 50, 76
4, 50100, Note_on_c, 0, 50, 0
4, 50100, Note_on_c, 0, 46, 0
4, 50100, Note_on_c, 0, 43, 0
4, 50100, Note_on_c, 0, 55, 76
4, 50160, Note_on_c, 0, 55, 0
4, 50160, Note_on_c, 0, 43, 76
4, 50160, Note_on_c, 0, 46, 76
4, 50160, Note_on_c, 0, 50, 76
4, 50220, Note_on_c, 0, 50, 0
4, 50220, Note_on_c, 0, 46, 0
4, 50220, Note_on_c, 0, 43, 0
4, 50220, Note_on_c, 0, 55, 76
4, 50280, Note_on_c, 0, 55, 0
4, 50280, Note_on_c, 0, 43, 76
4, 50280, Note_on_c, 0, 46, 76
4, 50280, Note_on_c, 0, 50, 76
4, 50340, Note_on_c, 0, 50, 0
4, 50340, Note_on_c, 0, 46, 0
4, 50340, Note_on_c, 0, 43, 0
4, 50340, Note_on_c, 0, 55, 76
4, 50400, Note_on_c, 0, 55, 0
4, 50400, Note_on_c, 0, 43, 76
4, 50400, Note_on_c, 0, 46, 76
4, 50400, Note_on_c, 0, 50, 76
4, 50460, Note_on_c, 0, 50, 0
4, 50460, Note_on_c, 0, 46, 0
4, 50460, Note_on_c, 0, 43, 0
4, 50460, Note_on_c, 0, 55, 76
4, 50520, Note_on_c, 0, 55, 0
4, 50520, Note_on_c, 0, 43, 76
4, 50520, Note_on_c, 0, 46, 76
4, 50520, Note_on_c, 0, 50, 76
4, 50580, Note_on_c, 0, 50, 0
4, 50580, Note_on_c, 0, 46, 0
4, 50580, Note_on_c, 0, 43, 0
4, 50580, Control_c, 0, 64, 0
4, 50580, Note_on_c, 0, 55, 76
4, 50640, Note_on_c, 0, 55, 0
4, 50640, Note_on_c, 0, 41, 76
4, 50700, Note_on_c, 0, 41, 0
4, 50700, Note_on_c, 0, 53, 76
4, 50760, Note_on_c, 0, 53, 0
4, 50760, Note_on_c, 0, 41, 76
4, 50820, Note_on_c, 0, 41, 0
4, 50820, Note_on_c, 0, 53, 76
4, 50880, Note_on_c, 0, 53, 0
4, 50880, Control_c, 0, 64, 127
4, 50880, Note_on_c, 0, 40, 76
4, 50880, Note_on_c, 0, 43, 76
4, 50880, Note_on_c, 0, 46, 76
4, 50940, Note_on_c, 0, 46, 0
4, 50940, Note_on_c, 0, 43, 0
4, 50940, Note_on_c, 0, 40, 0
4, 50940, Note_on_c, 0, 52, 76
4, 51000, Note_on_c, 0, 52, 0
4, 51000, Note_on_c, 0, 40, 76
4, 51000, Note_on_c, 0, 43, 76
4, 51000, Note_on_c, 0, 46, 76
4, 51060, Note_on_c, 0, 46, 0
4, 51060, Note_on_c, 0, 43, 0
4, 51060, Note_on_c, 0, 40, 0
4, 51060, Note_on_c, 0, 52, 76
4, 51120, Note_on_c, 0, 52, 0
4, 51120, Note_on_c, 0, 40, 76
4, 51120, Note_on_c, 0, 43, 76
4, 51120, Note_on_c, 0, 46, 76
4, 51180, Note_on_c, 0, 46, 0
4, 51180, Note_on_c, 0, 43, 0
4, 51180, Note_on_c, 0, 40, 0
4, 51180, Note_on_c, 0, 52, 76
4, 51240, Note_on_c, 0, 52, 0
4, 51240, Note_on_c, 0, 40, 76
4, 51240, Note_on_c, 0, 43, 76
4, 51240, Note_on_c, 0, 46, 76
4, 51300, Note_on_c, 0, 46, 0
4, 51300, Note_on_c, 0, 43, 0
4, 51300, Note_on_c, 0, 40, 0
4, 51300, Control_c, 0, 64, 0
4, 51300, Note_on_c, 0, 52, 76
4, 51360, Note_on_c, 0, 52, 0
4, 51360, Control_c, 0, 64, 127
4, 51360, Note_on_c, 0, 39, 76
4, 51360, Note_on_c, 0, 43, 76
4, 51360, Note_on_c, 0, 45, 76
4, 51420, Note_on_c, 0, 45, 0
4, 51420, Note_on_c, 0, 43, 0
4, 51420, Note_on_c, 0, 39, 0
4, 51420, Note_on_c, 0, 51, 76
4, 51480, Note_on_c, 0, 51, 0
4, 51480, Note_on_c, 0, 39, 76
4, 51480, Note_on_c, 0, 43, 76
4, 51480, Note_on_c, 0, 45, 76
4, 51540, Note_on_c, 0, 45, 0
4, 51540, Note_on_c, 0, 43, 0
4, 51540, Note_on_c, 0, 39, 0
4, 51540, Note_on_c, 0, 51, 76
4, 51600, Note_on_c, 0, 51, 0
4, 51600, Note_on_c, 0, 39, 76
4, 51600, Note_on_c, 0, 43, 76
4, 51600, Note_on_c, 0, 45, 76
4, 51660, Note_on_c, 0, 45, 0
4, 51660, Note_on_c, 0, 43, 0
4, 51660, Note_on_c, 0, 39, 0
4, 51660, Note_on_c, 0, 51, 76
4, 51720, Note_on_c, 0, 51, 0
4, 51720, Note_on_c, 0, 39, 76
4, 51720, Note_on_c, 0, 43, 76
4, 51720, Note_on_c, 0, 45, 76
4, 51780, Note_on_c, 0, 45, 0
4, 51780, Note_on_c, 0, 43, 0
4, 51780, Note_on_c, 0, 39, 0
4, 51780, Control_c, 0, 64, 0
4, 51780, Note_on_c, 0, 51, 76
4, 51840, Note_on_c, 0, 51, 0
4, 51840, Control_c, 0, 64, 127
4, 51840, Note_on_c, 0, 38, 76
4, 51840, Note_on_c, 0, 42, 76
4, 51840, Note_on_c, 0, 45, 76
4, 51900, Note_on_c, 0, 45, 0
4, 51900, Note_on_c, 0, 42, 0
4, 51900, Note_on_c, 0, 38, 0
4, 51900, Note_on_c, 0, 50, 76
4, 51960, Note_on_c, 0, 50, 0
4, 51960, Note_on_c, 0, 38, 76
4, 51960, Note_on_c, 0, 42, 76
4, 51960, Note_on_c, 0, 45, 76
4, 52020, Note_on_c, 0, 45, 0
4, 52020, Note_on_c, 0, 42, 0
4, 52020, Note_on_c, 0, 38, 0
4, 52020, Note_on_c, 0, 50, 76
4, 52080, Note_on_c, 0, 50, 0
4, 52080, Note_on_c, 0, 38, 76
4, 52080, Note_on_c, 0, 42, 76
4, 52080, Note_on_c, 0, 45, 76
4, 52140, Note_on_c, 0, 45, 0
4, 52140, Note_on_c, 0, 42, 0
4, 52140, Note_on_c, 0, 38, 0
4, 52140, Note_on_c, 0, 50, 76
4, 52200, Note_on_c, 0, 50, 0
4, 52200, Note_on_c, 0, 38, 76
4, 52200, Note_on_c, 0, 42, 76
4, 52200, Note_on_c, 0, 45, 76
4, 52260, Note_on_c, 0, 45, 0
4, 52260, Note_on_c, 0, 42, 0
4, 52260, Note_on_c, 0, 38, 0
4, 52260, Note_on_c, 0, 50, 76
4, 52320, Note_on_c, 0, 50, 0
4, 52320, Note_on_c, 0, 38, 76
4, 52320, Note_on_c, 0, 42, 76
4, 52320, Note_on_c, 0, 45, 76
4, 52380, Note_on_c, 0, 45, 0
4, 52380, Note_on_c, 0, 42, 0
4, 52380, Note_on_c, 0, 38, 0
4, 52380, Note_on_c, 0, 50, 76
4, 52440, Note_on_c, 0, 50, 0
4, 52440, Note_on_c, 0, 38, 76
4, 52440, Note_on_c, 0, 42, 76
4, 52440, Note_on_c, 0, 45, 76
4, 52500, Note_on_c, 0, 45, 0
4, 52500, Note_on_c, 0, 42, 0
4, 52500, Note_on_c, 0, 38, 0
4, 52500, Control_c, 0, 64, 0
4, 52500, Note_on_c, 0, 50, 76
4, 52560, Note_on_c, 0, 50, 0
4, 52560, Note_on_c, 0, 36, 76
4, 52620, Note_on_c, 0, 36, 0
4, 52620, Note_on_c, 0, 48, 76
4, 52680, Note_on_c, 0, 48, 0
4, 52680, Note_on_c, 0, 36, 76
4, 52740, Note_on_c, 0, 36, 0
4, 52740, Note_on_c, 0, 48, 76
4, 52800, Note_on_c, 0, 48, 0
4, 52800, Control_c, 0, 64, 127
4, 52800, Note_on_c, 0, 34, 76
4, 52800, Note_on_c, 0, 38, 76
4, 52860, Note_on_c, 0, 38, 0
4, 52860, Note_on_c, 0, 34, 0
4, 52860, Note_on_c, 0, 46, 76
4, 52920, Note_on_c, 0, 46, 0
4, 52920, Note_on_c, 0, 34, 76
4, 52920, Note_on_c, 0, 38, 76
4, 52980, Note_on_c, 0, 38, 0
4, 52980, Note_on_c, 0, 34, 0
4, 52980, Note_on_c, 0, 46, 76
4, 53040, Note_on_c, 0, 46, 0
4, 53040, Note_on_c, 0, 34, 76
4, 53040, Note_on_c, 0, 38, 76
4, 53100, Note_on_c, 0, 38, 0
4, 53100, Note_on_c, 0, 34, 0
4, 53100, Note_on_c, 0, 46, 76
4, 53160, Note_on_c, 0, 46, 0
4, 53160, Control_c, 0, 64, 0
4, 53160, Note_on_c, 0, 34, 76
4, 53160, Note_on_c, 0, 38, 76
4, 53220, Note_on_c, 0, 38, 0
4, 53220, Note_on_c, 0, 34, 0
4, 53220, Note_on_c, 0, 46, 76
4, 53280, Note_on_c, 0, 46, 0
4, 53280, Control_c, 0, 64, 127
4, 53280, Note_on_c, 0, 33, 76
4, 53280, Note_on_c, 0, 38, 76
4, 53340, Note_on_c, 0, 38, 0
4, 53340, Note_on_c, 0, 33, 0
4, 53340, Note_on_c, 0, 45, 76
4, 53400, Note_on_c, 0, 45, 0
4, 53400, Note_on_c, 0, 33, 76
4, 53400, Note_on_c, 0, 38, 76
4, 53460, Note_on_c, 0, 38, 0
4, 53460, Note_on_c, 0, 33, 0
4, 53460, Note_on_c, 0, 45, 76
4, 53520, Note_on_c, 0, 45, 0
4, 53520, Note_on_c, 0, 33, 76
4, 53520, Note_on_c, 0, 38, 76
4, 53580, Note_on_c, 0, 38, 0
4, 53580, Note_on_c, 0, 33, 0
4, 53580, Note_on_c, 0, 45, 76
4, 53640, Note_on_c, 0, 45, 0
4, 53640, Note_on_c, 0, 33, 76
4, 53640, Note_on_c, 0, 38, 76
4, 53700, Note_on_c, 0, 38, 0
4, 53700, Note_on_c, 0, 33, 0
4, 53700, Control_c, 0, 64, 0
4, 53700, Note_on_c, 0, 45, 76
4, 53760, Note_on_c, 0, 45, 0
4, 53760, Note_on_c, 0, 31, 76
4, 53760, Note_on_c, 0, 38, 76
4, 53760, Note_on_c, 0, 43, 76
4, 54000, Note_on_c, 0, 43, 0
4, 54000, Note_on_c, 0, 38, 0
4, 54000, Note_on_c, 0, 31, 0
4, 54000, Note_on_c, 0, 43, 76
4, 54000, Note_on_c, 0, 50, 76
4, 54000, Note_on_c, 0, 55, 76
4, 54120, Note_on_c, 0, 55, 0
4, 54120, Note_on_c, 0, 50, 0
4, 54120, Note_on_c, 0, 43, 0
4, 54120, Note_on_c, 0, 41, 76
4, 54120, Note_on_c, 0, 53, 76
4, 54240, Note_on_c, 0, 53, 0
4, 54240, Note_on_c, 0, 41, 0
4, 54240, Note_on_c, 0, 40, 76
4, 54240, Note_on_c, 0, 43, 76
4, 54240, Note_on_c, 0, 46, 76
4, 54240, Note_on_c, 0, 52, 76
4, 54480, Note_on_c, 0, 52, 0
4, 54480, Note_on_c, 0, 40, 0
4, 54480, Note_on_c, 0, 43, 0
4, 54480, Note_on_c, 0, 46, 0
4, 54480, Note_on_c, 0, 39, 76
4, 54480, Note_on_c, 0, 43, 76
4, 54480, Note_on_c, 0, 45, 76
4, 54480, Note_on_c, 0, 51, 76
4, 54720, Note_on_c, 0, 51, 0
4, 54720, Note_on_c, 0, 39, 0
4, 54720, Note_on_c, 0, 43, 0
4, 54720, Note_on_c, 0, 45, 0
4, 54720, Note_on_c, 0, 38, 76
4, 54720, Note_on_c, 0, 42, 76
4, 54720, Note_on_c, 0, 45, 76
4, 54720, Note_on_c, 0, 50, 76
4, 54960, Note_on_c, 0, 50, 0
4, 54960, Note_on_c, 0, 38, 0
4, 54960, Note_on_c, 0, 42, 0
4, 54960, Note_on_c, 0, 45, 0
4, 54960, Note_on_c, 0, 38, 76
4, 54960, Note_on_c, 0, 42, 76
4, 54960, Note_on_c, 0, 45, 76
4, 54960, Note_on_c, 0, 50, 76
4, 55080, Note_on_c, 0, 50, 0
4, 55080, Note_on_c, 0, 38, 0
4, 55080, Note_on_c, 0, 42, 0
4, 55080, Note_on_c, 0, 45, 0
4, 55080, Note_on_c, 0, 36, 76
4, 55080, Note_on_c, 0, 48, 76
4, 55200, Note_on_c, 0, 48, 0
4, 55200, Note_on_c, 0, 36, 0
4, 55200, Note_on_c, 0, 34, 76
4, 55200, Note_on_c, 0, 38, 76
4, 55200, Note_on_c, 0, 46, 76
4, 55440, Note_on_c, 0, 46, 0
4, 55440, Note_on_c, 0, 38, 0
4, 55440, Note_on_c, 0, 34, 0
4, 55440, Note_on_c, 0, 33, 76
4, 55440, Note_on_c, 0, 38, 76
4, 55440, Note_on_c, 0, 45, 76
4, 55680, Note_on_c, 0, 45, 0
4, 55680, Note_on_c, 0, 38, 0
4, 55680, Note_on_c, 0, 33, 0
4, 55680, Note_on_c, 0, 31, 76
4, 55680, Note_on_c, 0, 38, 76
4, 55680, Note_on_c, 0, 43, 76
4, 55920, Note_on_c, 0, 43, 0
4, 55920, Note_on_c, 0, 38, 0
4, 55920, Note_on_c, 0, 31, 0
4, 55920, Note_on_c, 0, 43, 76
4, 55920, Note_on_c, 0, 55, 76
4, 56040, Note_on_c, 0, 55, 0
4, 56040, Note_on_c, 0, 43, 0
4, 56040, Note_on_c, 0, 41, 76
4, 56040, Note_on_c, 0, 53, 76
4, 56160, Note_on_c, 0, 53, 0
4, 56160, Note_on_c, 0, 41, 0
4, 56160, Note_on_c, 0, 40, 76
4, 56160, Note_on_c, 0, 43, 76
4, 56160, Note_on_c, 0, 46, 76
4, 56160, Note_on_c, 0, 52, 76
4, 56400, Note_on_c, 0, 52, 0
4, 56400, Note_on_c, 0, 40, 0
4, 56400, Note_on_c, 0, 43, 0
4, 56400, Note_on_c, 0, 46, 0
4, 56400, Note_on_c, 0, 39, 76
4, 56400, Note_on_c, 0, 43, 76
4, 56400, Note_on_c, 0, 45, 76
4, 56400, Note_on_c, 0, 51, 76
4, 56640, Note_on_c, 0, 51, 0
4, 56640, Note_on_c, 0, 39, 0
4, 56640, Note_on_c, 0, 43, 0
4, 56640, Note_on_c, 0, 45, 0
4, 56640, Note_on_c, 0, 38, 76
4, 56640, Note_on_c, 0, 42, 76
4, 56640, Note_on_c, 0, 45, 76
4, 56640, Note_on_c, 0, 50, 76
4, 56880, Note_on_c, 0, 50, 0
4, 56880, Note_on_c, 0, 38, 0
4, 56880, Note_on_c, 0, 42, 0
4, 56880, Note_on_c, 0, 45, 0
4, 56880, Note_on_c, 0, 38, 76
4, 56880, Note_on_c, 0, 42, 76
4, 56880, Note_on_c, 0, 45, 76
4, 56880, Note_on_c, 0, 50, 76
4, 57000, Note_on_c, 0, 50, 0
4, 57000, Note_on_c, 0, 38, 0
4, 57000, Note_on_c, 0, 42, 0
4, 57000, Note_on_c, 0, 45, 0
4, 57000, Note_on_c, 0, 36, 76
4, 57000, Note_on_c, 0, 48, 76
4, 57120, Note_on_c, 0, 48, 0
4, 57120, Note_on_c, 0, 36, 0
4, 57120, Note_on_c, 0, 34, 76
4, 57120, Note_on_c, 0, 38, 76
4, 57120, Note_on_c, 0, 46, 76
4, 57360, Note_on_c, 0, 46, 0
4, 57360, Note_on_c, 0, 38, 0
4, 57360, Note_on_c, 0, 34, 0
4, 57360, Note_on_c, 0, 33, 76
4, 57360, Note_on_c, 0, 38, 76
4, 57360, Note_on_c, 0, 45, 76
4, 57600, Note_on_c, 0, 45, 0
4, 57600, Note_on_c, 0, 38, 0
4, 57600, Note_on_c, 0, 33, 0
4, 57600, Note_on_c, 0, 31, 76
4, 57600, Note_on_c, 0, 43, 76
4, 57840, Note_on_c, 0, 43, 0
4, 57840, Note_on_c, 0, 31, 0
4, 57840, Note_on_c, 0, 43, 76
4, 57840, Note_on_c, 0, 55, 76
4, 58080, Note_on_c, 0, 55, 0
4, 58080, Note_on_c, 0, 43, 0
4, 58080, Note_on_c, 0, 38, 76
4, 58080, Note_on_c, 0, 50, 76
4, 58320, Note_on_c, 0, 50, 0
4, 58320, Note_on_c, 0, 38, 0
4, 58320, Note_on_c, 0, 34, 76
4, 58320, Note_on_c, 0, 46, 76
4, 58560, Note_on_c, 0, 46, 0
4, 58560, Note_on_c, 0, 34, 0
4, 58560, Note_on_c, 0, 31, 76
4, 58560, Note_on_c, 0, 43, 76
4, 58800, Note_on_c, 0, 43, 0
4, 58800, Note_on_c, 0, 31, 0
4, 58800, Note_on_c, 0, 43, 76
4, 58800, Note_on_c, 0, 55, 76
4, 59040, Note_on_c, 0, 55, 0
4, 59040, Note_on_c, 0, 43, 0
4, 59040, Note_on_c, 0, 38, 76
4, 59040, Note_on_c, 0, 50, 76
4, 59280, Note_on_c, 0, 50, 0
4, 59280, Note_on_c, 0, 38, 0
4, 59280, Note_on_c, 0, 34, 76
4, 59280, Note_on_c, 0, 46, 76
4, 59520, Note_on_c, 0, 46, 0
4, 59520, Note_on_c, 0, 34, 0
4, 59520, Note_on_c, 0, 31, 76
4, 59520, Note_on_c, 0, 43, 76
4, 59760, Note_on_c, 0, 43, 0
4, 59760, Note_on_c, 0, 31, 0
4, 59760, Note_on_c, 0, 43, 76
4, 59760, Note_on_c, 0, 55, 76
4, 60000, Note_on_c, 0, 55, 0
4, 60000, Note_on_c, 0, 43, 0
4, 60000, Note_on_c, 0, 38, 76
4, 60000, Note_on_c, 0, 50, 76
4, 60240, Note_on_c, 0, 50, 0
4, 60240, Note_on_c, 0, 38, 0
4, 60240, Note_on_c, 0, 34, 76
4, 60240, Note_on_c, 0, 46, 76
4, 60480, Note_on_c, 0, 46, 0
4, 60480, Note_on_c, 0, 34, 0
4, 60480, Note_on_c, 0, 31, 76
4, 60480, Note_on_c, 0, 43, 76
4, 60720, Note_on_c, 0, 43, 0
4, 60720, Note_on_c, 0, 31, 0
4, 60720, Note_on_c, 0, 43, 76
4, 60720, Note_on_c, 0, 55, 76
4, 60960, Note_on_c, 0, 55, 0
4, 60960, Note_on_c, 0, 43, 0
4, 60960, Note_on_c, 0, 38, 76
4, 60960, Note_on_c, 0, 50, 76
4, 61200, Note_on_c, 0, 50, 0
4, 61200, Note_on_c, 0, 38, 0
4, 61200, Note_on_c, 0, 34, 76
4, 61200, Note_on_c, 0, 46, 76
4, 61440, Note_on_c, 0, 46, 0
4, 61440, Note_on_c, 0, 34, 0
4, 61440, Note_on_c, 0, 31, 76
4, 61440, Note_on_c, 0, 43, 76
4, 61680, Note_on_c, 0, 43, 0
4, 61680, Note_on_c, 0, 31, 0
4, 61680, Note_on_c, 0, 43, 76
4, 61680, Note_on_c, 0, 46, 76
4, 61680, Note_on_c, 0, 50, 76
4, 61680, Note_on_c, 0, 55, 76
4, 61920, Note_on_c, 0, 55, 0
4, 61920, Note_on_c, 0, 43, 0
4, 61920, Note_on_c, 0, 46, 0
4, 61920, Note_on_c, 0, 50, 0
4, 61920, Note_on_c, 0, 43, 76
4, 61920, Note_on_c, 0, 46, 76
4, 61920, Note_on_c, 0, 50, 76
4, 61920, Note_on_c, 0, 55, 76
4, 62160, Note_on_c, 0, 55, 0
4, 62160, Note_on_c, 0, 43, 0
4, 62160, Note_on_c, 0, 46, 0
4, 62160, Note_on_c, 0, 50, 0
4, 62160, Note_on_c, 0, 43, 76
4, 62160, Note_on_c, 0, 46, 76
4, 62160, Note_on_c, 0, 50, 76
4, 62160, Note_on_c, 0, 55, 76
4, 62400, Note_on_c, 0, 55, 0
4, 62400, Note_on_c, 0, 43, 0
4, 62400, Note_on_c, 0, 46, 0
4, 62400, Note_on_c, 0, 50, 0
4, 62400, Note_on_c, 0, 43, 76
4, 62400, Note_on_c, 0, 46, 76
4, 62400, Note_on_c, 0, 50, 76
4, 62400, Note_on_c, 0, 55, 76
4, 62640, Note_on_c, 0, 55, 0
4, 62640, Note_on_c, 0, 43, 0
4, 62640, Note_on_c, 0, 46, 0
4, 62640, Note_on_c, 0, 50, 0
4, 62640, Note_on_c, 0, 43, 76
4, 62640, Note_on_c, 0, 46, 76
4, 62640, Note_on_c, 0, 50, 76
4, 62640, Note_on_c, 0, 55, 76
4, 62760, Note_on_c, 0, 55, 0
4, 62760, Note_on_c, 0, 43, 0
4, 62760, Note_on_c, 0, 46, 0
4, 62760, Note_on_c, 0, 50, 0
4, 62760, Note_on_c, 0, 43, 76
4, 62760, Note_on_c, 0, 46, 76
4, 62760, Note_on_c, 0, 50, 76
4, 62760, Note_on_c, 0, 55, 76
4, 62880, Note_on_c, 0, 55, 0
4, 62880, Note_on_c, 0, 43, 0
4, 62880, Note_on_c, 0, 46, 0
4, 62880, Note_on_c, 0, 50, 0
4, 62880, Note_on_c, 0, 43, 76
4, 62880, Note_on_c, 0, 46, 76
4, 62880, Note_on_c, 0, 50, 76
4, 62880, Note_on_c, 0, 55, 76
4, 63120, Note_on_c, 0, 55, 0
4, 63120, Note_on_c, 0, 43, 0
4, 63120, Note_on_c, 0, 46, 0
4, 63120, Note_on_c, 0, 50, 0
4, 63120, Note_on_c, 0, 43, 76
4, 63120, Note_on_c, 0, 46, 76
4, 63120, Note_on_c, 0, 50, 76
4, 63120, Note_on_c, 0, 55, 76
4, 63360, Note_on_c, 0, 55, 0
4, 63360, Note_on_c, 0, 43, 0
4, 63360, Note_on_c, 0, 46, 0
4, 63360, Note_on_c, 0, 50, 0
4, 63360, Note_on_c, 0, 43, 76
4, 63360, Note_on_c, 0, 46, 76
4, 63360, Note_on_c, 0, 50, 76
4, 63360, Note_on_c, 0, 55, 76
4, 63840, Note_on_c, 0, 55, 0
4, 63840, Note_on_c, 0, 43, 0
4, 63840, Note_on_c, 0, 46, 0
4, 63840, Note_on_c, 0, 50, 0
4, 63840, Note_on_c, 0, 43, 76
4, 63840, Note_on_c, 0, 46, 76
4, 63840, Note_on_c, 0, 50, 76
4, 63840, Note_on_c, 0, 55, 76
4, 64320, Note_on_c, 0, 55, 0
4, 64320, Note_on_c, 0, 43, 0
4, 64320, Note_on_c, 0, 46, 0
4, 64320, Note_on_c, 0, 50, 0
4, 64320, Note_on_c, 0, 31, 102
4, 64320, Note_on_c, 0, 43, 102
4, 64800, Note_on_c, 0, 43, 0
4, 64800, Note_on_c, 0, 31, 0
4, 64800, End_track
5, 0, Start_track
5, 0, Title_t, "Grand Piano"
5, 0, Program_c, 0, 0
5, 0, Control_c, 0, 7, 115
5, 0, Control_c, 0, 10, 48
5, 1440, Note_on_c, 0, 34, 88
5, 1440, Note_on_c, 0, 38, 88
5, 1440, Note_on_c, 0, 41, 88
5, 2160, Note_on_c, 0, 41, 0
5, 2160, Note_on_c, 0, 38, 0
5, 2160, Note_on_c, 0, 34, 0
5, 3360, Note_on_c, 0, 34, 88
5, 3360, Note_on_c, 0, 38, 88
5, 3360, Note_on_c, 0, 41, 88
5, 3360, Note_on_c, 0, 46, 88
5, 4080, Note_on_c, 0, 46, 0
5, 4080, Note_on_c, 0, 34, 0
5, 4080, Note_on_c, 0, 38, 0
5, 4080, Note_on_c, 0, 41, 0
5, 5280, Control_c, 0, 64, 127
5, 5280, Note_on_c, 0, 34, 88
5, 5280, Note_on_c, 0, 41, 88
5, 5280, Note_on_c, 0, 46, 88
5, 5280, Note_on_c, 0, 50, 88
5, 5760, Note_on_c, 0, 50, 0
5, 5760, Note_on_c, 0, 34, 0
5, 5760, Note_on_c, 0, 41, 0
5, 5760, Note_on_c, 0, 46, 0
5, 6720, Control_c, 0, 64, 0
5, 10560, Note_on_c, 0, 50, 88
5, 10560, Note_on_c, 0, 54, 88
5, 10560, Note_on_c, 0, 57, 88
5, 11520, Note_on_c, 0, 57, 0
5, 11520, Note_on_c, 0, 54, 0
5, 11520, Note_on_c, 0, 50, 0
5, 14400, Note_on_c, 0, 50, 88
5, 14400, Note_on_c, 0, 54, 88
5, 14400, Note_on_c, 0, 57, 88
5, 15360, Note_on_c, 0, 57, 0
5, 15360, Note_on_c, 0, 54, 0
5, 15360, Note_on_c, 0, 50, 0
5, 15360, End_track
0, 0, End_of_file
