0, 0, Header, 1, 5, 480
1, 0, Start_track
1, 0, Title_t, "tchaikovsky swan lake act1 1 intro et scene"
1, 0, Copyright_t, "Adaptation for Disklavier pianos, by: Robert C. Kuhmann (c) 2012."
1, 0, Text_t, "Seq. (c) by: Segundo G. Yogore,  2007\012"
1, 0, Time_signature, 4, 2, 24, 8
1, 0, Key_signature, 2, "major"
1, 0, Tempo, 631579
1, 55680, Tempo, 545455
1, 61440, Tempo, 500000
1, 67200, Tempo, 416667
1, 71040, Tempo, 416667
1, 96000, Tempo, 631579
1, 119040, Tempo, 416667
1, 326400, Time_signature, 8, 2, 24, 8
1, 326400, End_track
2, 0, Start_track
2, 0, Title_t, "Grand Piano"
2, 0, Program_c, 0, 0
2, 0, Control_c, 0, 7, 115
2, 0, Control_c, 0, 10, 86
2, 0, Note_on_c, 0, 78, 62
2, 960, Note_on_c, 0, 78, 0
2, 960, Control_c, 0, 64, 127
2, 960, Note_on_c, 0, 76, 62
2, 1200, Note_on_c, 0, 76, 0
2, 1200, Note_on_c, 0, 74, 62
2, 1440, Note_on_c, 0, 74, 0
2, 1440, Note_on_c, 0, 73, 62
2, 1680, Note_on_c, 0, 73, 0
2, 1680, Control_c, 0, 64, 0
2, 1680, Note_on_c, 0, 71, 62
2, 1920, Note_on_c, 0, 71, 0
2, 1920, Note_on_c, 0, 73, 62
2, 2640, Note_on_c, 0, 73, 0
2, 2640, Note_on_c, 0, 70, 62
2, 2880, Note_on_c, 0, 70, 0
2, 2880, Note_on_c, 0, 66, 62
2, 3120, Note_on_c, 0, 66, 0
2, 3120, Note_on_c, 0, 73, 62
2, 3360, Note_on_c, 0, 73, 0
2, 3360, Note_on_c, 0, 74, 62
2, 3600, Note_on_c, 0, 74, 0
2, 3600, Note_on_c, 0, 76, 62
2, 3840, Note_on_c, 0, 76, 0
2, 3840, Note_on_c, 0, 71, 62
2, 4800, Note_on_c, 0, 71, 0
2, 5040, Note_on_c, 0, 71, 62
2, 5280, Note_on_c, 0, 71, 0
2, 5280, Note_on_c, 0, 73, 62
2, 5520, Note_on_c, 0, 73, 0
2, 5520, Note_on_c, 0, 74, 62
2, 5760, Note_on_c, 0, 74, 0
2, 5760, Note_on_c, 0, 67, 62
2, 6720, Note_on_c, 0, 67, 0
2, 6720, Note_on_c, 0, 66, 62
2, 7680, Note_on_c, 0, 66, 0
2, 8160, Note_on_c, 0, 64, 49
2, 8160, Note_on_c, 0, 67, 49
2, 8160, Note_on_c, 0, 71, 49
2, 8640, Note_on_c, 0, 71, 0
2, 8640, Note_on_c, 0, 67, 0
2, 8640, Note_on_c, 0, 64, 0
2, 10080, Note_on_c, 0, 66, 49
2, 10080, Note_on_c, 0, 74, 49
2, 10560, Note_on_c, 0, 74, 0
2, 10560, Note_on_c, 0, 66, 0
2, 11040, Note_on_c, 0, 64, 49
2, 11040, Note_on_c, 0, 67, 49
2, 11040, Note_on_c, 0, 76, 49
2, 11520, Note_on_c, 0, 76, 0
2, 11520, Note_on_c, 0, 67, 0
2, 11520, Note_on_c, 0, 64, 0
2, 12000, Note_on_c, 0, 65, 49
2, 12000, Note_on_c, 0, 71, 49
2, 12000, Note_on_c, 0, 77, 49
2, 12480, Note_on_c, 0, 77, 0
2, 12480, Note_on_c, 0, 71, 0
2, 12480, Note_on_c, 0, 65, 0
2, 13920, Note_on_c, 0, 65, 49
2, 13920, Note_on_c, 0, 71, 49
2, 13920, Note_on_c, 0, 77, 49
2, 14400, Note_on_c, 0, 77, 0
2, 14400, Note_on_c, 0, 71, 0
2, 14400, Note_on_c, 0, 65, 0
2, 14880, Note_on_c, 0, 64, 62
2, 14880, Note_on_c, 0, 70, 62
2, 14880, Note_on_c, 0, 78, 62
2, 15280, Note_on_c, 0, 62, 62
2, 15320, Note_on_c, 0, 71, 62
2, 15360, Note_on_c, 0, 78, 0
2, 15360, Note_on_c, 0, 64, 0
2, 15360, Note_on_c, 0, 70, 0
2, 15360, Note_on_c, 0, 78, 62
2, 15600, Note_on_c, 0, 78, 0
2, 15600, Note_on_c, 0, 62, 0
2, 15600, Note_on_c, 0, 71, 0
2, 15840, Note_on_c, 0, 59, 62
2, 15840, Note_on_c, 0, 62, 62
2, 15999, Note_on_c, 0, 62, 0
2, 15999, Note_on_c, 0, 59, 0
2, 15999, Note_on_c, 0, 62, 62
2, 15999, Note_on_c, 0, 71, 62
2, 16160, Note_on_c, 0, 71, 0
2, 16160, Note_on_c, 0, 62, 0
2, 16160, Note_on_c, 0, 71, 62
2, 16160, Note_on_c, 0, 74, 62
2, 16240, Note_on_c, 0, 66, 62
2, 16280, Note_on_c, 0, 71, 62
2, 16320, Note_on_c, 0, 74, 0
2, 16320, Note_on_c, 0, 71, 0
2, 16320, Note_on_c, 0, 78, 62
2, 16800, Note_on_c, 0, 78, 0
2, 16800, Note_on_c, 0, 66, 0
2, 16800, Note_on_c, 0, 71, 0
2, 17760, Note_on_c, 0, 58, 62
2, 17760, Note_on_c, 0, 66, 62
2, 17919, Note_on_c, 0, 66, 0
2, 17919, Note_on_c, 0, 58, 0
2, 17919, Note_on_c, 0, 66, 62
2, 17919, Note_on_c, 0, 70, 62
2, 18080, Note_on_c, 0, 70, 0
2, 18080, Note_on_c, 0, 66, 0
2, 18080, Note_on_c, 0, 66, 62
2, 18080, Note_on_c, 0, 70, 62
2, 18080, Note_on_c, 0, 73, 62
2, 18240, Note_on_c, 0, 73, 0
2, 18240, Note_on_c, 0, 70, 0
2, 18240, Note_on_c, 0, 66, 0
2, 18240, Note_on_c, 0, 70, 62
2, 18240, Note_on_c, 0, 73, 62
2, 18240, Note_on_c, 0, 78, 62
2, 18480, Note_on_c, 0, 78, 0
2, 18480, Note_on_c, 0, 73, 0
2, 18480, Note_on_c, 0, 70, 0
2, 19680, Note_on_c, 0, 64, 62
2, 19680, Note_on_c, 0, 67, 62
2, 19839, Note_on_c, 0, 67, 0
2, 19839, Note_on_c, 0, 64, 0
2, 19839, Note_on_c, 0, 64, 62
2, 19839, Note_on_c, 0, 67, 62
2, 19839, Note_on_c, 0, 71, 62
2, 20000, Note_on_c, 0, 71, 0
2, 20000, Note_on_c, 0, 67, 0
2, 20000, Note_on_c, 0, 64, 0
2, 20000, Note_on_c, 0, 67, 62
2, 20000, Note_on_c, 0, 71, 62
2, 20000, Note_on_c, 0, 76, 62
2, 20160, Note_on_c, 0, 76, 0
2, 20160, Note_on_c, 0, 71, 0
2, 20160, Note_on_c, 0, 67, 0
2, 20160, Note_on_c, 0, 71, 62
2, 20160, Note_on_c, 0, 76, 62
2, 20160, Note_on_c, 0, 79, 62
2, 20400, Note_on_c, 0, 79, 0
2, 20400, Note_on_c, 0, 76, 0
2, 20400, Note_on_c, 0, 71, 0
2, 21600, Note_on_c, 0, 64, 62
2, 21600, Note_on_c, 0, 67, 62
2, 21600, Note_on_c, 0, 71, 62
2, 21759, Note_on_c, 0, 71, 0
2, 21759, Note_on_c, 0, 67, 0
2, 21759, Note_on_c, 0, 64, 0
2, 21759, Note_on_c, 0, 67, 62
2, 21759, Note_on_c, 0, 71, 62
2, 21759, Note_on_c, 0, 76, 62
2, 21920, Note_on_c, 0, 76, 0
2, 21920, Note_on_c, 0, 71, 0
2, 21920, Note_on_c, 0, 67, 0
2, 21920, Note_on_c, 0, 71, 62
2, 21920, Note_on_c, 0, 76, 62
2, 21920, Note_on_c, 0, 79, 62
2, 22080, Note_on_c, 0, 79, 0
2, 22080, Note_on_c, 0, 76, 0
2, 22080, Note_on_c, 0, 71, 0
2, 22239, Note_on_c, 0, 58, 62
2, 22239, Note_on_c, 0, 61, 62
2, 22400, Note_on_c, 0, 61, 0
2, 22400, Note_on_c, 0, 58, 0
2, 22400, Note_on_c, 0, 58, 62
2, 22400, Note_on_c, 0, 61, 62
2, 22400, Note_on_c, 0, 66, 62
2, 22560, Note_on_c, 0, 66, 0
2, 22560, Note_on_c, 0, 61, 0
2, 22560, Note_on_c, 0, 58, 0
2, 22560, Note_on_c, 0, 61, 62
2, 22560, Note_on_c, 0, 66, 62
2, 22560, Note_on_c, 0, 70, 62
2, 22719, Note_on_c, 0, 70, 0
2, 22719, Note_on_c, 0, 66, 0
2, 22719, Note_on_c, 0, 61, 0
2, 22719, Note_on_c, 0, 66, 62
2, 22719, Note_on_c, 0, 70, 62
2, 22719, Note_on_c, 0, 73, 62
2, 22880, Note_on_c, 0, 73, 0
2, 22880, Note_on_c, 0, 70, 0
2, 22880, Note_on_c, 0, 66, 0
2, 22880, Note_on_c, 0, 70, 62
2, 22880, Note_on_c, 0, 73, 62
2, 22880, Note_on_c, 0, 78, 62
2, 23040, Note_on_c, 0, 78, 0
2, 23040, Note_on_c, 0, 73, 0
2, 23040, Note_on_c, 0, 70, 0
2, 23040, Note_on_c, 0, 71, 62
2, 23040, Note_on_c, 0, 83, 62
2, 24000, Note_on_c, 0, 83, 0
2, 24000, Note_on_c, 0, 71, 0
2, 24000, Control_c, 0, 64, 127
2, 24000, Note_on_c, 0, 73, 62
2, 24000, Note_on_c, 0, 85, 62
2, 24240, Note_on_c, 0, 85, 0
2, 24240, Note_on_c, 0, 73, 0
2, 24240, Note_on_c, 0, 74, 62
2, 24240, Note_on_c, 0, 86, 62
2, 24480, Note_on_c, 0, 86, 0
2, 24480, Note_on_c, 0, 74, 0
2, 24480, Note_on_c, 0, 76, 62
2, 24480, Note_on_c, 0, 88, 62
2, 24720, Note_on_c, 0, 88, 0
2, 24720, Note_on_c, 0, 76, 0
2, 24720, Control_c, 0, 64, 0
2, 24720, Note_on_c, 0, 73, 62
2, 24720, Note_on_c, 0, 85, 62
2, 24960, Note_on_c, 0, 85, 0
2, 24960, Note_on_c, 0, 73, 0
2, 24960, Note_on_c, 0, 71, 62
2, 24960, Note_on_c, 0, 83, 62
2, 25680, Note_on_c, 0, 83, 0
2, 25680, Note_on_c, 0, 71, 0
2, 25680, Note_on_c, 0, 70, 62
2, 25680, Note_on_c, 0, 82, 62
2, 25920, Note_on_c, 0, 82, 0
2, 25920, Note_on_c, 0, 70, 0
2, 25920, Control_c, 0, 64, 127
2, 25920, Note_on_c, 0, 69, 62
2, 25920, Note_on_c, 0, 81, 62
2, 26160, Note_on_c, 0, 81, 0
2, 26160, Note_on_c, 0, 69, 0
2, 26160, Note_on_c, 0, 62, 62
2, 26160, Note_on_c, 0, 74, 62
2, 26400, Note_on_c, 0, 74, 0
2, 26400, Note_on_c, 0, 62, 0
2, 26400, Note_on_c, 0, 64, 62
2, 26400, Note_on_c, 0, 76, 62
2, 26640, Note_on_c, 0, 76, 0
2, 26640, Note_on_c, 0, 64, 0
2, 26640, Control_c, 0, 64, 0
2, 26640, Note_on_c, 0, 66, 62
2, 26640, Note_on_c, 0, 78, 62
2, 26880, Note_on_c, 0, 78, 0
2, 26880, Note_on_c, 0, 66, 0
2, 26880, Note_on_c, 0, 67, 62
2, 26880, Note_on_c, 0, 79, 62
2, 28080, Note_on_c, 0, 79, 0
2, 28080, Note_on_c, 0, 67, 0
2, 28080, Note_on_c, 0, 66, 62
2, 28080, Note_on_c, 0, 78, 62
2, 28320, Note_on_c, 0, 78, 0
2, 28320, Note_on_c, 0, 66, 0
2, 28320, Note_on_c, 0, 68, 75
2, 28320, Note_on_c, 0, 80, 75
2, 28560, Note_on_c, 0, 80, 0
2, 28560, Note_on_c, 0, 68, 0
2, 28560, Note_on_c, 0, 70, 75
2, 28560, Note_on_c, 0, 82, 75
2, 28800, Note_on_c, 0, 82, 0
2, 28800, Note_on_c, 0, 70, 0
2, 28800, Note_on_c, 0, 71, 75
2, 28800, Note_on_c, 0, 83, 75
2, 30000, Note_on_c, 0, 83, 0
2, 30000, Note_on_c, 0, 71, 0
2, 30000, Note_on_c, 0, 70, 75
2, 30000, Note_on_c, 0, 82, 75
2, 30240, Note_on_c, 0, 82, 0
2, 30240, Note_on_c, 0, 70, 0
2, 30240, Note_on_c, 0, 71, 75
2, 30240, Note_on_c, 0, 83, 75
2, 30480, Note_on_c, 0, 83, 0
2, 30480, Note_on_c, 0, 71, 0
2, 30480, Note_on_c, 0, 73, 75
2, 30480, Note_on_c, 0, 85, 75
2, 30720, Note_on_c, 0, 85, 0
2, 30720, Note_on_c, 0, 73, 0
2, 30720, Note_on_c, 0, 74, 75
2, 30720, Note_on_c, 0, 86, 75
2, 31440, Note_on_c, 0, 86, 0
2, 31440, Note_on_c, 0, 74, 0
2, 31440, Note_on_c, 0, 75, 75
2, 31440, Note_on_c, 0, 87, 75
2, 31680, Note_on_c, 0, 87, 0
2, 31680, Note_on_c, 0, 75, 0
2, 31680, Note_on_c, 0, 76, 75
2, 31680, Note_on_c, 0, 88, 75
2, 32400, Note_on_c, 0, 88, 0
2, 32400, Note_on_c, 0, 76, 0
2, 32400, Note_on_c, 0, 78, 75
2, 32400, Note_on_c, 0, 90, 75
2, 32640, Note_on_c, 0, 90, 0
2, 32640, Note_on_c, 0, 78, 0
2, 32640, Note_on_c, 0, 79, 88
2, 32640, Note_on_c, 0, 91, 88
2, 33840, Note_on_c, 0, 91, 0
2, 33840, Note_on_c, 0, 79, 0
2, 33840, Note_on_c, 0, 76, 75
2, 33840, Note_on_c, 0, 88, 75
2, 34080, Note_on_c, 0, 88, 0
2, 34080, Note_on_c, 0, 76, 0
2, 34080, Note_on_c, 0, 86, 75
2, 34320, Note_on_c, 0, 86, 0
2, 34320, Note_on_c, 0, 88, 75
2, 34560, Note_on_c, 0, 88, 0
2, 34560, Control_c, 0, 64, 127
2, 34560, Note_on_c, 0, 86, 75
2, 34800, Note_on_c, 0, 86, 0
2, 34800, Note_on_c, 0, 84, 75
2, 35040, Note_on_c, 0, 84, 0
2, 35040, Note_on_c, 0, 81, 75
2, 35280, Note_on_c, 0, 81, 0
2, 35280, Control_c, 0, 64, 0
2, 35280, Note_on_c, 0, 83, 75
2, 35520, Note_on_c, 0, 83, 0
2, 35520, Control_c, 0, 64, 127
2, 35520, Note_on_c, 0, 81, 75
2, 35760, Note_on_c, 0, 81, 0
2, 35760, Note_on_c, 0, 79, 75
2, 36000, Note_on_c, 0, 79, 0
2, 36000, Note_on_c, 0, 76, 75
2, 36240, Note_on_c, 0, 76, 0
2, 36240, Control_c, 0, 64, 0
2, 36240, Note_on_c, 0, 79, 75
2, 36480, Note_on_c, 0, 79, 0
2, 36480, Control_c, 0, 64, 127
2, 36480, Note_on_c, 0, 74, 62
2, 36720, Note_on_c, 0, 74, 0
2, 36720, Note_on_c, 0, 72, 62
2, 36960, Note_on_c, 0, 72, 0
2, 36960, Note_on_c, 0, 69, 62
2, 37200, Note_on_c, 0, 69, 0
2, 37200, Control_c, 0, 64, 0
2, 37200, Note_on_c, 0, 71, 62
2, 37440, Note_on_c, 0, 71, 0
2, 37440, Control_c, 0, 64, 127
2, 37440, Note_on_c, 0, 69, 62
2, 37680, Note_on_c, 0, 69, 0
2, 37680, Note_on_c, 0, 67, 62
2, 37920, Note_on_c, 0, 67, 0
2, 37920, Note_on_c, 0, 64, 62
2, 38160, Note_on_c, 0, 64, 0
2, 38160, Control_c, 0, 64, 0
2, 38160, Note_on_c, 0, 67, 62
2, 38400, Note_on_c, 0, 67, 0
2, 39600, Note_on_c, 0, 52, 62
2, 39600, Note_on_c, 0, 64, 62
2, 39840, Note_on_c, 0, 64, 0
2, 39840, Note_on_c, 0, 52, 0
2, 39840, Note_on_c, 0, 53, 62
2, 39840, Note_on_c, 0, 65, 62
2, 40080, Note_on_c, 0, 65, 0
2, 40080, Note_on_c, 0, 53, 0
2, 40080, Note_on_c, 0, 55, 62
2, 40080, Note_on_c, 0, 67, 62
2, 40320, Note_on_c, 0, 67, 0
2, 40320, Note_on_c, 0, 55, 0
2, 40320, Note_on_c, 0, 48, 62
2, 40320, Note_on_c, 0, 60, 62
2, 40560, Note_on_c, 0, 60, 0
2, 40560, Note_on_c, 0, 48, 0
2, 41520, Control_c, 0, 64, 127
2, 41520, Note_on_c, 0, 55, 62
2, 41760, Note_on_c, 0, 55, 0
2, 41760, Note_on_c, 0, 56, 62
2, 42000, Note_on_c, 0, 56, 0
2, 42000, Note_on_c, 0, 58, 62
2, 42240, Note_on_c, 0, 58, 0
2, 42240, Control_c, 0, 64, 0
2, 42240, Note_on_c, 0, 60, 62
2, 42480, Note_on_c, 0, 60, 0
2, 43440, Control_c, 0, 64, 127
2, 43440, Note_on_c, 0, 52, 62
2, 43680, Note_on_c, 0, 52, 0
2, 43680, Note_on_c, 0, 53, 62
2, 43920, Note_on_c, 0, 53, 0
2, 43920, Note_on_c, 0, 55, 62
2, 44160, Note_on_c, 0, 55, 0
2, 44160, Control_c, 0, 64, 0
2, 44160, Note_on_c, 0, 56, 62
2, 44400, Note_on_c, 0, 56, 0
2, 45360, Control_c, 0, 64, 127
2, 45360, Note_on_c, 0, 53, 62
2, 45600, Note_on_c, 0, 53, 0
2, 45600, Note_on_c, 0, 55, 62
2, 45840, Note_on_c, 0, 55, 0
2, 45840, Note_on_c, 0, 56, 62
2, 46080, Note_on_c, 0, 56, 0
2, 46080, Control_c, 0, 64, 0
2, 46080, Note_on_c, 0, 58, 62
2, 46320, Note_on_c, 0, 58, 0
2, 47280, Control_c, 0, 64, 127
2, 47280, Note_on_c, 0, 52, 62
2, 47280, Note_on_c, 0, 64, 62
2, 47520, Note_on_c, 0, 64, 0
2, 47520, Note_on_c, 0, 52, 0
2, 47520, Note_on_c, 0, 53, 62
2, 47520, Note_on_c, 0, 65, 62
2, 47760, Note_on_c, 0, 65, 0
2, 47760, Note_on_c, 0, 53, 0
2, 47760, Note_on_c, 0, 55, 62
2, 47760, Note_on_c, 0, 67, 62
2, 48000, Note_on_c, 0, 67, 0
2, 48000, Note_on_c, 0, 55, 0
2, 48000, Control_c, 0, 64, 0
2, 48000, Note_on_c, 0, 48, 62
2, 48000, Note_on_c, 0, 60, 62
2, 48240, Note_on_c, 0, 60, 0
2, 48240, Note_on_c, 0, 48, 0
2, 49200, Control_c, 0, 64, 127
2, 49200, Note_on_c, 0, 55, 62
2, 49440, Note_on_c, 0, 55, 0
2, 49440, Note_on_c, 0, 56, 62
2, 49680, Note_on_c, 0, 56, 0
2, 49680, Note_on_c, 0, 58, 62
2, 49920, Note_on_c, 0, 58, 0
2, 49920, Control_c, 0, 64, 0
2, 49920, Note_on_c, 0, 60, 62
2, 50160, Note_on_c, 0, 60, 0
2, 51120, Control_c, 0, 64, 127
2, 51120, Note_on_c, 0, 52, 62
2, 51360, Note_on_c, 0, 52, 0
2, 51360, Note_on_c, 0, 53, 62
2, 51600, Note_on_c, 0, 53, 0
2, 51600, Note_on_c, 0, 55, 62
2, 51840, Note_on_c, 0, 55, 0
2, 51840, Control_c, 0, 64, 0
2, 51840, Note_on_c, 0, 56, 62
2, 52080, Note_on_c, 0, 56, 0
2, 53040, Control_c, 0, 64, 127
2, 53040, Note_on_c, 0, 53, 62
2, 53280, Note_on_c, 0, 53, 0
2, 53280, Note_on_c, 0, 55, 62
2, 53520, Note_on_c, 0, 55, 0
2, 53520, Note_on_c, 0, 56, 62
2, 53760, Note_on_c, 0, 56, 0
2, 53760, Control_c, 0, 64, 0
2, 53760, Note_on_c, 0, 58, 62
2, 54000, Note_on_c, 0, 58, 0
2, 54960, Note_on_c, 0, 52, 62
2, 54960, Note_on_c, 0, 64, 62
2, 55200, Note_on_c, 0, 64, 0
2, 55200, Note_on_c, 0, 52, 0
2, 55200, Note_on_c, 0, 53, 62
2, 55200, Note_on_c, 0, 65, 62
2, 55440, Note_on_c, 0, 65, 0
2, 55440, Note_on_c, 0, 53, 0
2, 55440, Note_on_c, 0, 55, 62
2, 55440, Note_on_c, 0, 67, 62
2, 55680, Note_on_c, 0, 67, 0
2, 55680, Note_on_c, 0, 55, 0
2, 55680, Note_on_c, 0, 59, 75
2, 56880, Note_on_c, 0, 59, 0
2, 56880, Note_on_c, 0, 59, 75
2, 57120, Note_on_c, 0, 59, 0
2, 57120, Note_on_c, 0, 57, 75
2, 57360, Note_on_c, 0, 57, 0
2, 57360, Note_on_c, 0, 56, 75
2, 57600, Note_on_c, 0, 56, 0
2, 57600, Note_on_c, 0, 54, 75
2, 58080, Note_on_c, 0, 54, 0
2, 58800, Note_on_c, 0, 54, 75
2, 58800, Note_on_c, 0, 66, 75
2, 59040, Note_on_c, 0, 66, 0
2, 59040, Note_on_c, 0, 54, 0
2, 59040, Note_on_c, 0, 56, 75
2, 59040, Note_on_c, 0, 68, 75
2, 59280, Note_on_c, 0, 68, 0
2, 59280, Note_on_c, 0, 56, 0
2, 59280, Note_on_c, 0, 57, 75
2, 59280, Note_on_c, 0, 69, 75
2, 59520, Note_on_c, 0, 69, 0
2, 59520, Note_on_c, 0, 57, 0
2, 59520, Note_on_c, 0, 60, 75
2, 60720, Note_on_c, 0, 60, 0
2, 60720, Note_on_c, 0, 60, 75
2, 60960, Note_on_c, 0, 60, 0
2, 60960, Note_on_c, 0, 59, 75
2, 61200, Note_on_c, 0, 59, 0
2, 61200, Note_on_c, 0, 57, 75
2, 61440, Note_on_c, 0, 57, 0
2, 61440, Note_on_c, 0, 55, 75
2, 61920, Note_on_c, 0, 55, 0
2, 62640, Note_on_c, 0, 67, 75
2, 62880, Note_on_c, 0, 67, 0
2, 62880, Note_on_c, 0, 69, 75
2, 63120, Note_on_c, 0, 69, 0
2, 63120, Note_on_c, 0, 71, 75
2, 63360, Note_on_c, 0, 71, 0
2, 63360, Note_on_c, 0, 64, 75
2, 64320, Note_on_c, 0, 64, 0
2, 64320, Note_on_c, 0, 64, 75
2, 64560, Note_on_c, 0, 64, 0
2, 64560, Note_on_c, 0, 69, 75
2, 64800, Note_on_c, 0, 69, 0
2, 64800, Note_on_c, 0, 71, 75
2, 65040, Note_on_c, 0, 71, 0
2, 65040, Note_on_c, 0, 73, 75
2, 65280, Note_on_c, 0, 73, 0
2, 65280, Note_on_c, 0, 66, 88
2, 66240, Note_on_c, 0, 66, 0
2, 66240, Note_on_c, 0, 66, 88
2, 66480, Note_on_c, 0, 66, 0
2, 66480, Note_on_c, 0, 71, 88
2, 66720, Note_on_c, 0, 71, 0
2, 66720, Note_on_c, 0, 73, 88
2, 66960, Note_on_c, 0, 73, 0
2, 66960, Note_on_c, 0, 74, 88
2, 67200, Note_on_c, 0, 74, 0
2, 67200, Control_c, 0, 64, 127
2, 67200, Note_on_c, 0, 62, 114
2, 67200, Note_on_c, 0, 65, 114
2, 67200, Note_on_c, 0, 67, 114
2, 67359, Note_on_c, 0, 67, 0
2, 67359, Note_on_c, 0, 65, 0
2, 67359, Note_on_c, 0, 62, 0
2, 67359, Note_on_c, 0, 55, 88
2, 67520, Note_on_c, 0, 55, 0
2, 67520, Note_on_c, 0, 62, 88
2, 67680, Note_on_c, 0, 62, 0
2, 67680, Note_on_c, 0, 65, 88
2, 67680, Note_on_c, 0, 67, 88
2, 67839, Note_on_c, 0, 67, 0
2, 67839, Note_on_c, 0, 65, 0
2, 67839, Note_on_c, 0, 62, 88
2, 68000, Note_on_c, 0, 62, 0
2, 68000, Note_on_c, 0, 65, 88
2, 68000, Note_on_c, 0, 67, 88
2, 68160, Note_on_c, 0, 67, 0
2, 68160, Note_on_c, 0, 65, 0
2, 68160, Note_on_c, 0, 65, 88
2, 68160, Note_on_c, 0, 67, 88
2, 68160, Note_on_c, 0, 74, 88
2, 68319, Note_on_c, 0, 74, 0
2, 68319, Note_on_c, 0, 67, 0
2, 68319, Note_on_c, 0, 65, 0
2, 68319, Note_on_c, 0, 62, 88
2, 68480, Note_on_c, 0, 62, 0
2, 68480, Note_on_c, 0, 65, 88
2, 68480, Note_on_c, 0, 67, 88
2, 68480, Note_on_c, 0, 74, 88
2, 68640, Note_on_c, 0, 74, 0
2, 68640, Note_on_c, 0, 67, 0
2, 68640, Note_on_c, 0, 65, 0
2, 68640, Note_on_c, 0, 74, 88
2, 68640, Note_on_c, 0, 77, 88
2, 68640, Note_on_c, 0, 79, 88
2, 68799, Note_on_c, 0, 79, 0
2, 68799, Note_on_c, 0, 77, 0
2, 68799, Note_on_c, 0, 74, 0
2, 68799, Note_on_c, 0, 67, 88
2, 68960, Note_on_c, 0, 67, 0
2, 68960, Note_on_c, 0, 74, 88
2, 68960, Note_on_c, 0, 77, 88
2, 68960, Note_on_c, 0, 79, 88
2, 69120, Note_on_c, 0, 79, 0
2, 69120, Note_on_c, 0, 77, 0
2, 69120, Note_on_c, 0, 74, 0
2, 69120, Control_c, 0, 64, 0
2, 69120, Note_on_c, 0, 74, 88
2, 69120, Note_on_c, 0, 77, 88
2, 69120, Note_on_c, 0, 79, 88
2, 69360, Note_on_c, 0, 79, 0
2, 69360, Note_on_c, 0, 77, 0
2, 69360, Note_on_c, 0, 74, 0
2, 69600, Note_on_c, 0, 67, 101
2, 69600, Note_on_c, 0, 79, 101
2, 69960, Note_on_c, 0, 79, 0
2, 69960, Note_on_c, 0, 67, 0
2, 69960, Note_on_c, 0, 68, 101
2, 69960, Note_on_c, 0, 80, 101
2, 70080, Note_on_c, 0, 80, 0
2, 70080, Note_on_c, 0, 68, 0
2, 70080, Note_on_c, 0, 68, 127
2, 70080, Note_on_c, 0, 80, 127
2, 70560, Note_on_c, 0, 80, 0
2, 70560, Note_on_c, 0, 68, 0
2, 70560, Note_on_c, 0, 67, 101
2, 70560, Note_on_c, 0, 79, 101
2, 70800, Note_on_c, 0, 79, 0
2, 70800, Note_on_c, 0, 67, 0
2, 71040, Control_c, 0, 64, 127
2, 71040, Note_on_c, 0, 62, 88
2, 71040, Note_on_c, 0, 65, 88
2, 71040, Note_on_c, 0, 67, 88
2, 71199, Note_on_c, 0, 67, 0
2, 71199, Note_on_c, 0, 65, 0
2, 71199, Note_on_c, 0, 62, 0
2, 71199, Note_on_c, 0, 55, 88
2, 71360, Note_on_c, 0, 55, 0
2, 71360, Note_on_c, 0, 62, 88
2, 71520, Note_on_c, 0, 62, 0
2, 71520, Note_on_c, 0, 65, 88
2, 71520, Note_on_c, 0, 67, 88
2, 71679, Note_on_c, 0, 67, 0
2, 71679, Note_on_c, 0, 65, 0
2, 71679, Note_on_c, 0, 62, 88
2, 71840, Note_on_c, 0, 62, 0
2, 71840, Note_on_c, 0, 65, 88
2, 71840, Note_on_c, 0, 67, 88
2, 72000, Note_on_c, 0, 67, 0
2, 72000, Note_on_c, 0, 65, 0
2, 72000, Note_on_c, 0, 65, 88
2, 72000, Note_on_c, 0, 67, 88
2, 72000, Note_on_c, 0, 74, 88
2, 72159, Note_on_c, 0, 74, 0
2, 72159, Note_on_c, 0, 67, 0
2, 72159, Note_on_c, 0, 65, 0
2, 72159, Note_on_c, 0, 62, 88
2, 72320, Note_on_c, 0, 62, 0
2, 72320, Note_on_c, 0, 65, 88
2, 72320, Note_on_c, 0, 67, 88
2, 72320, Note_on_c, 0, 74, 88
2, 72480, Note_on_c, 0, 74, 0
2, 72480, Note_on_c, 0, 67, 0
2, 72480, Note_on_c, 0, 65, 0
2, 72480, Note_on_c, 0, 74, 88
2, 72480, Note_on_c, 0, 77, 88
2, 72480, Note_on_c, 0, 79, 88
2, 72639, Note_on_c, 0, 79, 0
2, 72639, Note_on_c, 0, 77, 0
2, 72639, Note_on_c, 0, 74, 0
2, 72639, Note_on_c, 0, 67, 88
2, 72800, Note_on_c, 0, 67, 0
2, 72800, Note_on_c, 0, 74, 88
2, 72800, Note_on_c, 0, 77, 88
2, 72800, Note_on_c, 0, 79, 88
2, 72960, Note_on_c, 0, 79, 0
2, 72960, Note_on_c, 0, 77, 0
2, 72960, Note_on_c, 0, 74, 0
2, 72960, Control_c, 0, 64, 0
2, 72960, Note_on_c, 0, 74, 88
2, 72960, Note_on_c, 0, 77, 88
2, 72960, Note_on_c, 0, 79, 88
2, 73200, Note_on_c, 0, 79, 0
2, 73200, Note_on_c, 0, 77, 0
2, 73200, Note_on_c, 0, 74, 0
2, 73440, Note_on_c, 0, 67, 101
2, 73440, Note_on_c, 0, 79, 101
2, 73800, Note_on_c, 0, 79, 0
2, 73800, Note_on_c, 0, 67, 0
2, 73800, Note_on_c, 0, 68, 101
2, 73800, Note_on_c, 0, 80, 101
2, 73920, Note_on_c, 0, 80, 0
2, 73920, Note_on_c, 0, 68, 0
2, 73920, Note_on_c, 0, 68, 127
2, 73920, Note_on_c, 0, 80, 127
2, 74400, Note_on_c, 0, 80, 0
2, 74400, Note_on_c, 0, 68, 0
2, 74400, Note_on_c, 0, 67, 101
2, 74400, Note_on_c, 0, 79, 101
2, 74640, Note_on_c, 0, 79, 0
2, 74640, Note_on_c, 0, 67, 0
2, 74880, Control_c, 0, 64, 127
2, 74880, Note_on_c, 0, 61, 88
2, 74880, Note_on_c, 0, 64, 88
2, 74880, Note_on_c, 0, 67, 88
2, 75039, Note_on_c, 0, 67, 0
2, 75039, Note_on_c, 0, 64, 0
2, 75039, Note_on_c, 0, 61, 0
2, 75039, Note_on_c, 0, 55, 88
2, 75200, Note_on_c, 0, 55, 0
2, 75200, Note_on_c, 0, 61, 88
2, 75200, Note_on_c, 0, 64, 88
2, 75200, Note_on_c, 0, 67, 88
2, 75360, Note_on_c, 0, 67, 0
2, 75360, Note_on_c, 0, 64, 0
2, 75360, Note_on_c, 0, 61, 0
2, 75360, Note_on_c, 0, 64, 88
2, 75360, Note_on_c, 0, 67, 88
2, 75360, Note_on_c, 0, 73, 88
2, 75519, Note_on_c, 0, 73, 0
2, 75519, Note_on_c, 0, 67, 0
2, 75519, Note_on_c, 0, 64, 0
2, 75519, Note_on_c, 0, 61, 88
2, 75680, Note_on_c, 0, 61, 0
2, 75680, Note_on_c, 0, 64, 88
2, 75680, Note_on_c, 0, 67, 88
2, 75680, Note_on_c, 0, 73, 88
2, 75840, Note_on_c, 0, 73, 0
2, 75840, Note_on_c, 0, 67, 0
2, 75840, Note_on_c, 0, 64, 0
2, 75840, Note_on_c, 0, 67, 88
2, 75840, Note_on_c, 0, 73, 88
2, 75840, Note_on_c, 0, 76, 88
2, 75999, Note_on_c, 0, 76, 0
2, 75999, Note_on_c, 0, 73, 0
2, 75999, Note_on_c, 0, 67, 0
2, 75999, Note_on_c, 0, 64, 88
2, 76160, Note_on_c, 0, 64, 0
2, 76160, Note_on_c, 0, 67, 88
2, 76160, Note_on_c, 0, 73, 88
2, 76160, Note_on_c, 0, 76, 88
2, 76320, Note_on_c, 0, 76, 0
2, 76320, Note_on_c, 0, 73, 0
2, 76320, Note_on_c, 0, 67, 0
2, 76320, Note_on_c, 0, 73, 88
2, 76320, Note_on_c, 0, 76, 88
2, 76320, Note_on_c, 0, 79, 88
2, 76479, Note_on_c, 0, 79, 0
2, 76479, Note_on_c, 0, 76, 0
2, 76479, Note_on_c, 0, 73, 0
2, 76479, Note_on_c, 0, 67, 88
2, 76640, Note_on_c, 0, 67, 0
2, 76640, Note_on_c, 0, 73, 88
2, 76640, Note_on_c, 0, 76, 88
2, 76640, Note_on_c, 0, 79, 88
2, 76800, Note_on_c, 0, 79, 0
2, 76800, Note_on_c, 0, 76, 0
2, 76800, Note_on_c, 0, 73, 0
2, 76800, Control_c, 0, 64, 0
2, 76800, Note_on_c, 0, 73, 88
2, 76800, Note_on_c, 0, 76, 88
2, 76800, Note_on_c, 0, 79, 88
2, 77040, Note_on_c, 0, 79, 0
2, 77040, Note_on_c, 0, 76, 0
2, 77040, Note_on_c, 0, 73, 0
2, 77280, Note_on_c, 0, 70, 101
2, 77280, Note_on_c, 0, 82, 101
2, 77640, Note_on_c, 0, 82, 0
2, 77640, Note_on_c, 0, 70, 0
2, 77640, Note_on_c, 0, 69, 101
2, 77640, Note_on_c, 0, 81, 101
2, 77760, Note_on_c, 0, 81, 0
2, 77760, Note_on_c, 0, 69, 0
2, 77760, Note_on_c, 0, 69, 127
2, 77760, Note_on_c, 0, 81, 127
2, 78240, Note_on_c, 0, 81, 0
2, 78240, Note_on_c, 0, 69, 0
2, 78240, Note_on_c, 0, 70, 101
2, 78240, Note_on_c, 0, 82, 101
2, 78480, Note_on_c, 0, 82, 0
2, 78480, Note_on_c, 0, 70, 0
2, 78720, Control_c, 0, 64, 127
2, 78720, Note_on_c, 0, 61, 88
2, 78720, Note_on_c, 0, 64, 88
2, 78720, Note_on_c, 0, 67, 88
2, 78879, Note_on_c, 0, 67, 0
2, 78879, Note_on_c, 0, 64, 0
2, 78879, Note_on_c, 0, 61, 0
2, 78879, Note_on_c, 0, 55, 88
2, 79040, Note_on_c, 0, 55, 0
2, 79040, Note_on_c, 0, 61, 88
2, 79040, Note_on_c, 0, 64, 88
2, 79040, Note_on_c, 0, 67, 88
2, 79200, Note_on_c, 0, 67, 0
2, 79200, Note_on_c, 0, 64, 0
2, 79200, Note_on_c, 0, 61, 0
2, 79200, Note_on_c, 0, 64, 88
2, 79200, Note_on_c, 0, 67, 88
2, 79200, Note_on_c, 0, 73, 88
2, 79359, Note_on_c, 0, 73, 0
2, 79359, Note_on_c, 0, 67, 0
2, 79359, Note_on_c, 0, 64, 0
2, 79359, Note_on_c, 0, 61, 88
2, 79520, Note_on_c, 0, 61, 0
2, 79520, Note_on_c, 0, 64, 88
2, 79520, Note_on_c, 0, 67, 88
2, 79520, Note_on_c, 0, 73, 88
2, 79680, Note_on_c, 0, 73, 0
2, 79680, Note_on_c, 0, 67, 0
2, 79680, Note_on_c, 0, 64, 0
2, 79680, Note_on_c, 0, 67, 88
2, 79680, Note_on_c, 0, 73, 88
2, 79680, Note_on_c, 0, 76, 88
2, 79839, Note_on_c, 0, 76, 0
2, 79839, Note_on_c, 0, 73, 0
2, 79839, Note_on_c, 0, 67, 0
2, 79839, Note_on_c, 0, 64, 88
2, 80000, Note_on_c, 0, 64, 0
2, 80000, Note_on_c, 0, 67, 88
2, 80000, Note_on_c, 0, 73, 88
2, 80000, Note_on_c, 0, 76, 88
2, 80160, Note_on_c, 0, 76, 0
2, 80160, Note_on_c, 0, 73, 0
2, 80160, Note_on_c, 0, 67, 0
2, 80160, Note_on_c, 0, 73, 88
2, 80160, Note_on_c, 0, 76, 88
2, 80160, Note_on_c, 0, 79, 88
2, 80319, Note_on_c, 0, 79, 0
2, 80319, Note_on_c, 0, 76, 0
2, 80319, Note_on_c, 0, 73, 0
2, 80319, Note_on_c, 0, 67, 88
2, 80480, Note_on_c, 0, 67, 0
2, 80480, Note_on_c, 0, 73, 88
2, 80480, Note_on_c, 0, 76, 88
2, 80480, Note_on_c, 0, 79, 88
2, 80640, Note_on_c, 0, 79, 0
2, 80640, Note_on_c, 0, 76, 0
2, 80640, Note_on_c, 0, 73, 0
2, 80640, Control_c, 0, 64, 0
2, 80640, Note_on_c, 0, 73, 88
2, 80640, Note_on_c, 0, 76, 88
2, 80640, Note_on_c, 0, 79, 88
2, 80880, Note_on_c, 0, 79, 0
2, 80880, Note_on_c, 0, 76, 0
2, 80880, Note_on_c, 0, 73, 0
2, 81120, Note_on_c, 0, 70, 101
2, 81120, Note_on_c, 0, 82, 101
2, 81480, Note_on_c, 0, 82, 0
2, 81480, Note_on_c, 0, 70, 0
2, 81480, Note_on_c, 0, 69, 101
2, 81480, Note_on_c, 0, 81, 101
2, 81600, Note_on_c, 0, 81, 0
2, 81600, Note_on_c, 0, 69, 0
2, 81600, Note_on_c, 0, 69, 127
2, 81600, Note_on_c, 0, 81, 127
2, 82080, Note_on_c, 0, 81, 0
2, 82080, Note_on_c, 0, 69, 0
2, 82080, Note_on_c, 0, 70, 101
2, 82080, Note_on_c, 0, 82, 101
2, 82320, Note_on_c, 0, 82, 0
2, 82320, Note_on_c, 0, 70, 0
2, 82560, Note_on_c, 0, 59, 101
2, 82560, Note_on_c, 0, 62, 101
2, 82560, Note_on_c, 0, 65, 101
2, 82800, Note_on_c, 0, 65, 0
2, 82800, Note_on_c, 0, 62, 0
2, 82800, Note_on_c, 0, 59, 0
2, 83040, Note_on_c, 0, 71, 101
2, 83040, Note_on_c, 0, 74, 101
2, 83040, Note_on_c, 0, 77, 101
2, 83040, Note_on_c, 0, 83, 101
2, 83400, Note_on_c, 0, 83, 0
2, 83400, Note_on_c, 0, 71, 0
2, 83400, Note_on_c, 0, 74, 0
2, 83400, Note_on_c, 0, 77, 0
2, 83400, Note_on_c, 0, 70, 101
2, 83400, Note_on_c, 0, 82, 101
2, 83520, Note_on_c, 0, 82, 0
2, 83520, Note_on_c, 0, 70, 0
2, 83520, Note_on_c, 0, 70, 127
2, 83520, Note_on_c, 0, 82, 127
2, 84000, Note_on_c, 0, 82, 0
2, 84000, Note_on_c, 0, 70, 0
2, 84000, Note_on_c, 0, 71, 101
2, 84000, Note_on_c, 0, 83, 101
2, 84240, Note_on_c, 0, 83, 0
2, 84240, Note_on_c, 0, 71, 0
2, 84960, Note_on_c, 0, 71, 101
2, 84960, Note_on_c, 0, 83, 101
2, 85320, Note_on_c, 0, 83, 0
2, 85320, Note_on_c, 0, 71, 0
2, 85320, Note_on_c, 0, 70, 101
2, 85320, Note_on_c, 0, 82, 101
2, 85440, Note_on_c, 0, 82, 0
2, 85440, Note_on_c, 0, 70, 0
2, 85440, Note_on_c, 0, 70, 127
2, 85440, Note_on_c, 0, 82, 127
2, 85920, Note_on_c, 0, 82, 0
2, 85920, Note_on_c, 0, 70, 0
2, 85920, Note_on_c, 0, 71, 101
2, 85920, Note_on_c, 0, 83, 101
2, 86160, Note_on_c, 0, 83, 0
2, 86160, Note_on_c, 0, 71, 0
2, 86880, Note_on_c, 0, 71, 101
2, 86880, Note_on_c, 0, 83, 101
2, 87240, Note_on_c, 0, 83, 0
2, 87240, Note_on_c, 0, 71, 0
2, 87240, Note_on_c, 0, 70, 101
2, 87240, Note_on_c, 0, 82, 101
2, 87360, Note_on_c, 0, 82, 0
2, 87360, Note_on_c, 0, 70, 0
2, 87360, Note_on_c, 0, 70, 127
2, 87360, Note_on_c, 0, 82, 127
2, 87600, Note_on_c, 0, 82, 0
2, 87600, Note_on_c, 0, 70, 0
2, 87600, Note_on_c, 0, 71, 101
2, 87600, Note_on_c, 0, 83, 101
2, 87840, Note_on_c, 0, 83, 0
2, 87840, Note_on_c, 0, 71, 0
2, 87840, Note_on_c, 0, 70, 127
2, 87840, Note_on_c, 0, 82, 127
2, 88080, Note_on_c, 0, 82, 0
2, 88080, Note_on_c, 0, 70, 0
2, 88080, Note_on_c, 0, 71, 101
2, 88080, Note_on_c, 0, 83, 101
2, 88320, Note_on_c, 0, 83, 0
2, 88320, Note_on_c, 0, 71, 0
2, 88320, Note_on_c, 0, 70, 127
2, 88320, Note_on_c, 0, 82, 127
2, 88560, Note_on_c, 0, 82, 0
2, 88560, Note_on_c, 0, 70, 0
2, 88560, Note_on_c, 0, 71, 101
2, 88560, Note_on_c, 0, 83, 101
2, 88800, Note_on_c, 0, 83, 0
2, 88800, Note_on_c, 0, 71, 0
2, 88800, Note_on_c, 0, 70, 127
2, 88800, Note_on_c, 0, 82, 127
2, 89040, Note_on_c, 0, 82, 0
2, 89040, Note_on_c, 0, 70, 0
2, 89040, Note_on_c, 0, 71, 101
2, 89040, Note_on_c, 0, 83, 101
2, 89280, Note_on_c, 0, 83, 0
2, 89280, Note_on_c, 0, 71, 0
2, 89280, Note_on_c, 0, 70, 127
2, 89280, Note_on_c, 0, 82, 127
2, 89520, Note_on_c, 0, 82, 0
2, 89520, Note_on_c, 0, 70, 0
2, 89520, Note_on_c, 0, 71, 101
2, 89520, Note_on_c, 0, 83, 101
2, 89760, Note_on_c, 0, 83, 0
2, 89760, Note_on_c, 0, 71, 0
2, 89760, Note_on_c, 0, 70, 127
2, 89760, Note_on_c, 0, 82, 127
2, 90000, Note_on_c, 0, 82, 0
2, 90000, Note_on_c, 0, 70, 0
2, 90000, Note_on_c, 0, 71, 101
2, 90000, Note_on_c, 0, 83, 101
2, 90240, Note_on_c, 0, 83, 0
2, 90240, Note_on_c, 0, 71, 0
2, 90240, Note_on_c, 0, 71, 75
2, 90240, Note_on_c, 0, 74, 75
2, 90240, Note_on_c, 0, 77, 75
2, 90240, Note_on_c, 0, 83, 75
2, 90720, Note_on_c, 0, 83, 0
2, 90720, Note_on_c, 0, 71, 0
2, 90720, Note_on_c, 0, 74, 0
2, 90720, Note_on_c, 0, 77, 0
2, 90720, Note_on_c, 0, 71, 75
2, 90720, Note_on_c, 0, 74, 75
2, 90720, Note_on_c, 0, 78, 75
2, 90720, Note_on_c, 0, 83, 75
2, 91200, Note_on_c, 0, 83, 0
2, 91200, Note_on_c, 0, 71, 0
2, 91200, Note_on_c, 0, 74, 0
2, 91200, Note_on_c, 0, 78, 0
2, 91200, Note_on_c, 0, 71, 88
2, 91200, Note_on_c, 0, 74, 88
2, 91200, Note_on_c, 0, 79, 88
2, 91200, Note_on_c, 0, 83, 88
2, 91680, Note_on_c, 0, 83, 0
2, 91680, Note_on_c, 0, 71, 0
2, 91680, Note_on_c, 0, 74, 0
2, 91680, Note_on_c, 0, 79, 0
2, 91680, Note_on_c, 0, 71, 88
2, 91680, Note_on_c, 0, 76, 88
2, 91680, Note_on_c, 0, 80, 88
2, 91680, Note_on_c, 0, 83, 88
2, 92160, Note_on_c, 0, 83, 0
2, 92160, Note_on_c, 0, 71, 0
2, 92160, Note_on_c, 0, 76, 0
2, 92160, Note_on_c, 0, 80, 0
2, 92160, Note_on_c, 0, 71, 101
2, 92160, Note_on_c, 0, 77, 101
2, 92160, Note_on_c, 0, 80, 101
2, 92160, Note_on_c, 0, 83, 101
2, 92640, Note_on_c, 0, 83, 0
2, 92640, Note_on_c, 0, 71, 0
2, 92640, Note_on_c, 0, 77, 0
2, 92640, Note_on_c, 0, 80, 0
2, 92640, Note_on_c, 0, 73, 101
2, 92640, Note_on_c, 0, 77, 101
2, 92640, Note_on_c, 0, 80, 101
2, 92640, Note_on_c, 0, 85, 101
2, 93120, Note_on_c, 0, 85, 0
2, 93120, Note_on_c, 0, 73, 0
2, 93120, Note_on_c, 0, 77, 0
2, 93120, Note_on_c, 0, 80, 0
2, 93120, Note_on_c, 0, 74, 101
2, 93120, Note_on_c, 0, 77, 101
2, 93120, Note_on_c, 0, 80, 101
2, 93120, Note_on_c, 0, 86, 101
2, 93600, Note_on_c, 0, 86, 0
2, 93600, Note_on_c, 0, 74, 0
2, 93600, Note_on_c, 0, 77, 0
2, 93600, Note_on_c, 0, 80, 0
2, 93600, Note_on_c, 0, 74, 127
2, 93600, Note_on_c, 0, 77, 127
2, 93600, Note_on_c, 0, 80, 127
2, 93600, Note_on_c, 0, 86, 127
2, 94080, Note_on_c, 0, 86, 0
2, 94080, Note_on_c, 0, 74, 0
2, 94080, Note_on_c, 0, 77, 0
2, 94080, Note_on_c, 0, 80, 0
2, 94080, Note_on_c, 0, 74, 101
2, 94080, Note_on_c, 0, 77, 101
2, 94080, Note_on_c, 0, 81, 101
2, 94080, Note_on_c, 0, 86, 101
2, 94560, Note_on_c, 0, 86, 0
2, 94560, Note_on_c, 0, 74, 0
2, 94560, Note_on_c, 0, 77, 0
2, 94560, Note_on_c, 0, 81, 0
2, 96000, Control_c, 0, 64, 127
2, 96000, Note_on_c, 0, 81, 127
2, 96960, Note_on_c, 0, 81, 0
2, 96960, Control_c, 0, 64, 0
2, 96960, Note_on_c, 0, 79, 127
2, 97200, Note_on_c, 0, 79, 0
2, 97200, Note_on_c, 0, 77, 127
2, 97440, Note_on_c, 0, 77, 0
2, 97440, Note_on_c, 0, 76, 101
2, 97680, Note_on_c, 0, 76, 0
2, 97680, Note_on_c, 0, 74, 101
2, 97920, Note_on_c, 0, 74, 0
2, 97920, Note_on_c, 0, 76, 101
2, 98640, Note_on_c, 0, 76, 0
2, 98640, Note_on_c, 0, 73, 101
2, 98880, Note_on_c, 0, 73, 0
2, 98880, Note_on_c, 0, 69, 101
2, 99120, Note_on_c, 0, 69, 0
2, 99120, Note_on_c, 0, 76, 101
2, 99360, Note_on_c, 0, 76, 0
2, 99360, Note_on_c, 0, 77, 101
2, 99600, Note_on_c, 0, 77, 0
2, 99600, Note_on_c, 0, 79, 101
2, 99840, Note_on_c, 0, 79, 0
2, 99840, Note_on_c, 0, 74, 101
2, 100800, Note_on_c, 0, 74, 0
2, 101040, Note_on_c, 0, 67, 101
2, 101280, Note_on_c, 0, 67, 0
2, 101280, Note_on_c, 0, 69, 101
2, 101520, Note_on_c, 0, 69, 0
2, 101520, Note_on_c, 0, 70, 101
2, 101760, Note_on_c, 0, 70, 0
2, 101760, Note_on_c, 0, 69, 101
2, 102240, Note_on_c, 0, 69, 0
2, 103680, Note_on_c, 0, 69, 75
2, 104640, Note_on_c, 0, 69, 0
2, 104640, Control_c, 0, 64, 127
2, 104640, Note_on_c, 0, 67, 75
2, 104880, Note_on_c, 0, 67, 0
2, 104880, Note_on_c, 0, 65, 75
2, 105120, Note_on_c, 0, 65, 0
2, 105120, Note_on_c, 0, 64, 75
2, 105360, Note_on_c, 0, 64, 0
2, 105360, Control_c, 0, 64, 0
2, 105360, Note_on_c, 0, 62, 75
2, 105600, Note_on_c, 0, 62, 0
2, 105600, Note_on_c, 0, 64, 75
2, 106320, Note_on_c, 0, 64, 0
2, 106320, Note_on_c, 0, 61, 75
2, 106560, Note_on_c, 0, 61, 0
2, 106560, Note_on_c, 0, 57, 75
2, 106800, Note_on_c, 0, 57, 0
2, 106800, Note_on_c, 0, 64, 75
2, 107040, Note_on_c, 0, 64, 0
2, 107040, Note_on_c, 0, 65, 75
2, 107280, Note_on_c, 0, 65, 0
2, 107280, Note_on_c, 0, 67, 75
2, 107520, Note_on_c, 0, 67, 0
2, 107520, Note_on_c, 0, 62, 75
2, 108480, Note_on_c, 0, 62, 0
2, 108720, Control_c, 0, 64, 127
2, 108720, Note_on_c, 0, 55, 75
2, 108960, Note_on_c, 0, 55, 0
2, 108960, Note_on_c, 0, 57, 75
2, 109200, Note_on_c, 0, 57, 0
2, 109200, Note_on_c, 0, 58, 75
2, 109440, Note_on_c, 0, 58, 0
2, 109440, Control_c, 0, 64, 0
2, 109440, Note_on_c, 0, 57, 75
2, 109920, Note_on_c, 0, 57, 0
2, 112320, Note_on_c, 0, 50, 75
2, 112320, Note_on_c, 0, 52, 75
2, 112320, Note_on_c, 0, 55, 75
2, 112320, Note_on_c, 0, 58, 75
2, 113280, Note_on_c, 0, 58, 0
2, 113280, Note_on_c, 0, 50, 0
2, 113280, Note_on_c, 0, 52, 0
2, 113280, Note_on_c, 0, 55, 0
2, 113280, Note_on_c, 0, 49, 75
2, 113280, Note_on_c, 0, 52, 75
2, 113280, Note_on_c, 0, 57, 75
2, 113760, Note_on_c, 0, 57, 0
2, 113760, Note_on_c, 0, 52, 0
2, 113760, Note_on_c, 0, 49, 0
2, 116160, Note_on_c, 0, 50, 49
2, 116160, Note_on_c, 0, 52, 49
2, 116160, Note_on_c, 0, 55, 49
2, 116160, Note_on_c, 0, 58, 49
2, 117120, Note_on_c, 0, 58, 0
2, 117120, Note_on_c, 0, 50, 0
2, 117120, Note_on_c, 0, 52, 0
2, 117120, Note_on_c, 0, 55, 0
2, 117120, Note_on_c, 0, 49, 49
2, 117120, Note_on_c, 0, 52, 49
2, 117120, Note_on_c, 0, 57, 49
2, 117600, Note_on_c, 0, 57, 0
2, 117600, Note_on_c, 0, 52, 0
2, 117600, Note_on_c, 0, 49, 0
2, 122880, Note_on_c, 0, 49, 75
2, 122880, Note_on_c, 0, 57, 75
2, 123360, Note_on_c, 0, 57, 0
2, 123360, Note_on_c, 0, 49, 0
2, 123360, Note_on_c, 0, 47, 75
2, 123360, Note_on_c, 0, 50, 75
2, 123360, Note_on_c, 0, 57, 75
2, 123840, Note_on_c, 0, 57, 0
2, 123840, Note_on_c, 0, 50, 0
2, 123840, Note_on_c, 0, 47, 0
2, 123840, Note_on_c, 0, 48, 75
2, 123840, Note_on_c, 0, 51, 75
2, 123840, Note_on_c, 0, 57, 75
2, 124320, Note_on_c, 0, 57, 0
2, 124320, Note_on_c, 0, 51, 0
2, 124320, Note_on_c, 0, 48, 0
2, 124320, Note_on_c, 0, 49, 75
2, 124320, Note_on_c, 0, 52, 75
2, 124320, Note_on_c, 0, 57, 75
2, 124800, Note_on_c, 0, 57, 0
2, 124800, Note_on_c, 0, 52, 0
2, 124800, Note_on_c, 0, 49, 0
2, 124800, Note_on_c, 0, 59, 75
2, 124920, Note_on_c, 0, 59, 0
2, 124920, Note_on_c, 0, 57, 75
2, 125040, Note_on_c, 0, 57, 0
2, 125040, Note_on_c, 0, 59, 75
2, 125160, Note_on_c, 0, 59, 0
2, 125160, Note_on_c, 0, 62, 75
2, 125280, Note_on_c, 0, 62, 0
2, 125280, Note_on_c, 0, 61, 75
2, 125400, Note_on_c, 0, 61, 0
2, 125400, Note_on_c, 0, 60, 75
2, 125520, Note_on_c, 0, 60, 0
2, 125520, Note_on_c, 0, 61, 75
2, 125640, Note_on_c, 0, 61, 0
2, 125640, Note_on_c, 0, 64, 75
2, 125760, Note_on_c, 0, 64, 0
2, 125760, Note_on_c, 0, 62, 75
2, 125880, Note_on_c, 0, 62, 0
2, 125880, Note_on_c, 0, 61, 75
2, 126000, Note_on_c, 0, 61, 0
2, 126000, Note_on_c, 0, 59, 75
2, 126120, Note_on_c, 0, 59, 0
2, 126120, Note_on_c, 0, 57, 75
2, 126240, Note_on_c, 0, 57, 0
2, 126240, Note_on_c, 0, 59, 75
2, 126360, Note_on_c, 0, 59, 0
2, 126360, Note_on_c, 0, 57, 75
2, 126480, Note_on_c, 0, 57, 0
2, 126480, Note_on_c, 0, 59, 75
2, 126600, Note_on_c, 0, 59, 0
2, 126600, Note_on_c, 0, 61, 75
2, 126720, Note_on_c, 0, 61, 0
2, 126720, Note_on_c, 0, 50, 75
2, 126720, Note_on_c, 0, 54, 75
2, 126720, Note_on_c, 0, 62, 75
2, 127200, Note_on_c, 0, 62, 0
2, 127200, Note_on_c, 0, 54, 0
2, 127200, Note_on_c, 0, 50, 0
2, 127200, Note_on_c, 0, 52, 75
2, 127200, Note_on_c, 0, 55, 75
2, 127200, Note_on_c, 0, 62, 75
2, 127680, Note_on_c, 0, 62, 0
2, 127680, Note_on_c, 0, 55, 0
2, 127680, Note_on_c, 0, 52, 0
2, 127680, Note_on_c, 0, 53, 75
2, 127680, Note_on_c, 0, 56, 75
2, 127680, Note_on_c, 0, 62, 75
2, 128160, Note_on_c, 0, 62, 0
2, 128160, Note_on_c, 0, 56, 0
2, 128160, Note_on_c, 0, 53, 0
2, 128160, Note_on_c, 0, 54, 75
2, 128160, Note_on_c, 0, 57, 75
2, 128160, Note_on_c, 0, 62, 75
2, 128640, Note_on_c, 0, 62, 0
2, 128640, Note_on_c, 0, 57, 0
2, 128640, Note_on_c, 0, 54, 0
2, 128640, Note_on_c, 0, 59, 75
2, 128640, Note_on_c, 0, 64, 75
2, 128760, Note_on_c, 0, 64, 0
2, 128760, Note_on_c, 0, 59, 0
2, 128760, Note_on_c, 0, 62, 75
2, 128880, Note_on_c, 0, 62, 0
2, 128880, Note_on_c, 0, 64, 75
2, 129000, Note_on_c, 0, 64, 0
2, 129000, Note_on_c, 0, 67, 75
2, 129120, Note_on_c, 0, 67, 0
2, 129120, Note_on_c, 0, 66, 75
2, 129240, Note_on_c, 0, 66, 0
2, 129240, Note_on_c, 0, 65, 75
2, 129360, Note_on_c, 0, 65, 0
2, 129360, Note_on_c, 0, 66, 75
2, 129480, Note_on_c, 0, 66, 0
2, 129480, Note_on_c, 0, 69, 75
2, 129600, Note_on_c, 0, 69, 0
2, 129600, Note_on_c, 0, 67, 75
2, 129720, Note_on_c, 0, 67, 0
2, 129720, Note_on_c, 0, 66, 75
2, 129840, Note_on_c, 0, 66, 0
2, 129840, Note_on_c, 0, 64, 75
2, 129960, Note_on_c, 0, 64, 0
2, 129960, Note_on_c, 0, 62, 75
2, 130080, Note_on_c, 0, 62, 0
2, 130080, Note_on_c, 0, 64, 75
2, 130200, Note_on_c, 0, 64, 0
2, 130200, Note_on_c, 0, 62, 75
2, 130320, Note_on_c, 0, 62, 0
2, 130320, Note_on_c, 0, 61, 75
2, 130320, Note_on_c, 0, 64, 75
2, 130440, Note_on_c, 0, 64, 0
2, 130440, Note_on_c, 0, 61, 0
2, 130440, Note_on_c, 0, 61, 75
2, 130440, Note_on_c, 0, 66, 75
2, 130560, Note_on_c, 0, 66, 0
2, 130560, Note_on_c, 0, 61, 0
2, 130560, Note_on_c, 0, 59, 75
2, 130560, Note_on_c, 0, 62, 75
2, 130560, Note_on_c, 0, 67, 75
2, 130800, Note_on_c, 0, 67, 0
2, 130800, Note_on_c, 0, 62, 0
2, 130800, Note_on_c, 0, 59, 0
2, 131520, Control_c, 0, 64, 127
2, 131520, Note_on_c, 0, 67, 88
2, 131640, Note_on_c, 0, 67, 0
2, 131640, Note_on_c, 0, 66, 88
2, 131760, Note_on_c, 0, 66, 0
2, 131760, Note_on_c, 0, 67, 88
2, 131880, Note_on_c, 0, 67, 0
2, 131880, Note_on_c, 0, 68, 88
2, 132000, Note_on_c, 0, 68, 0
2, 132000, Note_on_c, 0, 69, 88
2, 132120, Note_on_c, 0, 69, 0
2, 132120, Note_on_c, 0, 64, 88
2, 132240, Note_on_c, 0, 64, 0
2, 132240, Note_on_c, 0, 66, 88
2, 132360, Note_on_c, 0, 66, 0
2, 132360, Control_c, 0, 64, 0
2, 132360, Note_on_c, 0, 68, 88
2, 132480, Note_on_c, 0, 68, 0
2, 132480, Note_on_c, 0, 61, 88
2, 132480, Note_on_c, 0, 64, 88
2, 132480, Note_on_c, 0, 69, 88
2, 132720, Note_on_c, 0, 69, 0
2, 132720, Note_on_c, 0, 64, 0
2, 132720, Note_on_c, 0, 61, 0
2, 133440, Control_c, 0, 64, 127
2, 133440, Note_on_c, 0, 69, 88
2, 133560, Note_on_c, 0, 69, 0
2, 133560, Note_on_c, 0, 68, 88
2, 133680, Note_on_c, 0, 68, 0
2, 133680, Note_on_c, 0, 69, 88
2, 133800, Note_on_c, 0, 69, 0
2, 133800, Note_on_c, 0, 70, 88
2, 133920, Note_on_c, 0, 70, 0
2, 133920, Note_on_c, 0, 71, 88
2, 134040, Note_on_c, 0, 71, 0
2, 134040, Note_on_c, 0, 66, 88
2, 134160, Note_on_c, 0, 66, 0
2, 134160, Note_on_c, 0, 68, 88
2, 134280, Note_on_c, 0, 68, 0
2, 134280, Note_on_c, 0, 70, 88
2, 134400, Note_on_c, 0, 70, 0
2, 134400, Control_c, 0, 64, 0
2, 134400, Note_on_c, 0, 71, 88
2, 134640, Note_on_c, 0, 71, 0
2, 135360, Control_c, 0, 64, 127
2, 135360, Note_on_c, 0, 71, 88
2, 135480, Note_on_c, 0, 71, 0
2, 135480, Note_on_c, 0, 67, 88
2, 135600, Note_on_c, 0, 67, 0
2, 135600, Note_on_c, 0, 69, 88
2, 135720, Note_on_c, 0, 69, 0
2, 135720, Note_on_c, 0, 71, 88
2, 135840, Note_on_c, 0, 71, 0
2, 135840, Note_on_c, 0, 72, 88
2, 135960, Note_on_c, 0, 72, 0
2, 135960, Note_on_c, 0, 71, 88
2, 136080, Note_on_c, 0, 71, 0
2, 136080, Note_on_c, 0, 69, 88
2, 136200, Note_on_c, 0, 69, 0
2, 136200, Note_on_c, 0, 71, 88
2, 136320, Note_on_c, 0, 71, 0
2, 136320, Control_c, 0, 64, 0
2, 136320, Note_on_c, 0, 72, 88
2, 136560, Note_on_c, 0, 72, 0
2, 137280, Control_c, 0, 64, 127
2, 137280, Note_on_c, 0, 72, 88
2, 137400, Note_on_c, 0, 72, 0
2, 137400, Note_on_c, 0, 71, 88
2, 137520, Note_on_c, 0, 71, 0
2, 137520, Note_on_c, 0, 72, 88
2, 137640, Note_on_c, 0, 72, 0
2, 137640, Note_on_c, 0, 73, 88
2, 137760, Note_on_c, 0, 73, 0
2, 137760, Note_on_c, 0, 74, 88
2, 137880, Note_on_c, 0, 74, 0
2, 137880, Note_on_c, 0, 69, 88
2, 138000, Note_on_c, 0, 69, 0
2, 138000, Note_on_c, 0, 71, 88
2, 138120, Note_on_c, 0, 71, 0
2, 138120, Control_c, 0, 64, 0
2, 138120, Note_on_c, 0, 73, 88
2, 138240, Note_on_c, 0, 73, 0
2, 138240, Control_c, 0, 64, 127
2, 138240, Note_on_c, 0, 74, 88
2, 138360, Note_on_c, 0, 74, 0
2, 138360, Note_on_c, 0, 73, 88
2, 138480, Note_on_c, 0, 73, 0
2, 138480, Note_on_c, 0, 71, 88
2, 138600, Note_on_c, 0, 71, 0
2, 138600, Note_on_c, 0, 73, 88
2, 138720, Note_on_c, 0, 73, 0
2, 138720, Control_c, 0, 64, 0
2, 138720, Note_on_c, 0, 74, 88
2, 138960, Note_on_c, 0, 74, 0
2, 139200, Control_c, 0, 64, 127
2, 139200, Note_on_c, 0, 76, 88
2, 139320, Note_on_c, 0, 76, 0
2, 139320, Note_on_c, 0, 74, 88
2, 139440, Note_on_c, 0, 74, 0
2, 139440, Note_on_c, 0, 73, 88
2, 139560, Note_on_c, 0, 73, 0
2, 139560, Note_on_c, 0, 74, 88
2, 139680, Note_on_c, 0, 74, 0
2, 139680, Control_c, 0, 64, 0
2, 139680, Note_on_c, 0, 76, 88
2, 139920, Note_on_c, 0, 76, 0
2, 140160, Control_c, 0, 64, 127
2, 140160, Note_on_c, 0, 78, 88
2, 140280, Note_on_c, 0, 78, 0
2, 140280, Note_on_c, 0, 76, 88
2, 140400, Note_on_c, 0, 76, 0
2, 140400, Note_on_c, 0, 74, 88
2, 140520, Note_on_c, 0, 74, 0
2, 140520, Note_on_c, 0, 76, 88
2, 140640, Note_on_c, 0, 76, 0
2, 140640, Control_c, 0, 64, 0
2, 140640, Note_on_c, 0, 78, 88
2, 140880, Note_on_c, 0, 78, 0
2, 141120, Control_c, 0, 64, 127
2, 141120, Note_on_c, 0, 79, 88
2, 141240, Note_on_c, 0, 79, 0
2, 141240, Note_on_c, 0, 78, 88
2, 141360, Note_on_c, 0, 78, 0
2, 141360, Note_on_c, 0, 76, 88
2, 141480, Note_on_c, 0, 76, 0
2, 141480, Note_on_c, 0, 78, 88
2, 141600, Note_on_c, 0, 78, 0
2, 141600, Note_on_c, 0, 79, 88
2, 141840, Note_on_c, 0, 79, 0
2, 141840, Control_c, 0, 64, 0
2, 141840, Note_on_c, 0, 80, 88
2, 142080, Note_on_c, 0, 80, 0
2, 142080, Note_on_c, 0, 81, 101
2, 142560, Note_on_c, 0, 81, 0
2, 143760, Note_on_c, 0, 73, 101
2, 143760, Note_on_c, 0, 76, 101
2, 143760, Note_on_c, 0, 81, 101
2, 144000, Note_on_c, 0, 81, 0
2, 144000, Note_on_c, 0, 76, 0
2, 144000, Note_on_c, 0, 73, 0
2, 144000, Note_on_c, 0, 71, 101
2, 144000, Note_on_c, 0, 77, 101
2, 144000, Note_on_c, 0, 83, 101
2, 144480, Note_on_c, 0, 83, 0
2, 144480, Note_on_c, 0, 77, 0
2, 144480, Note_on_c, 0, 71, 0
2, 144480, Note_on_c, 0, 71, 101
2, 144480, Note_on_c, 0, 77, 101
2, 144480, Note_on_c, 0, 83, 101
2, 144960, Note_on_c, 0, 83, 0
2, 144960, Note_on_c, 0, 77, 0
2, 144960, Note_on_c, 0, 71, 0
2, 144960, Note_on_c, 0, 71, 101
2, 144960, Note_on_c, 0, 77, 101
2, 144960, Note_on_c, 0, 83, 101
2, 145440, Note_on_c, 0, 83, 0
2, 145440, Note_on_c, 0, 77, 0
2, 145440, Note_on_c, 0, 71, 0
2, 145440, Note_on_c, 0, 71, 101
2, 145440, Note_on_c, 0, 77, 101
2, 145440, Note_on_c, 0, 83, 101
2, 145920, Note_on_c, 0, 83, 0
2, 145920, Note_on_c, 0, 77, 0
2, 145920, Note_on_c, 0, 71, 0
2, 145920, Note_on_c, 0, 73, 101
2, 145920, Note_on_c, 0, 76, 101
2, 145920, Note_on_c, 0, 85, 101
2, 146400, Note_on_c, 0, 85, 0
2, 146400, Note_on_c, 0, 76, 0
2, 146400, Note_on_c, 0, 73, 0
2, 147600, Note_on_c, 0, 73, 101
2, 147600, Note_on_c, 0, 76, 101
2, 147600, Note_on_c, 0, 81, 101
2, 147840, Note_on_c, 0, 81, 0
2, 147840, Note_on_c, 0, 76, 0
2, 147840, Note_on_c, 0, 73, 0
2, 147840, Note_on_c, 0, 71, 101
2, 147840, Note_on_c, 0, 77, 101
2, 147840, Note_on_c, 0, 83, 101
2, 148320, Note_on_c, 0, 83, 0
2, 148320, Note_on_c, 0, 77, 0
2, 148320, Note_on_c, 0, 71, 0
2, 148320, Note_on_c, 0, 71, 101
2, 148320, Note_on_c, 0, 77, 101
2, 148320, Note_on_c, 0, 83, 101
2, 148800, Note_on_c, 0, 83, 0
2, 148800, Note_on_c, 0, 77, 0
2, 148800, Note_on_c, 0, 71, 0
2, 148800, Note_on_c, 0, 71, 101
2, 148800, Note_on_c, 0, 77, 101
2, 148800, Note_on_c, 0, 83, 101
2, 149280, Note_on_c, 0, 83, 0
2, 149280, Note_on_c, 0, 77, 0
2, 149280, Note_on_c, 0, 71, 0
2, 149280, Note_on_c, 0, 71, 101
2, 149280, Note_on_c, 0, 77, 101
2, 149280, Note_on_c, 0, 83, 101
2, 149760, Note_on_c, 0, 83, 0
2, 149760, Note_on_c, 0, 77, 0
2, 149760, Note_on_c, 0, 71, 0
2, 149760, Note_on_c, 0, 73, 101
2, 149760, Note_on_c, 0, 76, 101
2, 149760, Note_on_c, 0, 85, 101
2, 150240, Note_on_c, 0, 85, 0
2, 150240, Note_on_c, 0, 76, 0
2, 150240, Note_on_c, 0, 73, 0
2, 152160, Note_on_c, 0, 61, 101
2, 152280, Note_on_c, 0, 61, 0
2, 152280, Note_on_c, 0, 59, 101
2, 152400, Note_on_c, 0, 59, 0
2, 152400, Note_on_c, 0, 61, 101
2, 152520, Note_on_c, 0, 61, 0
2, 152520, Note_on_c, 0, 62, 101
2, 152640, Note_on_c, 0, 62, 0
2, 152640, Note_on_c, 0, 64, 101
2, 152760, Note_on_c, 0, 64, 0
2, 152760, Note_on_c, 0, 63, 101
2, 152880, Note_on_c, 0, 63, 0
2, 152880, Note_on_c, 0, 64, 101
2, 153000, Note_on_c, 0, 64, 0
2, 153000, Note_on_c, 0, 66, 101
2, 153120, Note_on_c, 0, 66, 0
2, 153120, Note_on_c, 0, 67, 101
2, 153240, Note_on_c, 0, 67, 0
2, 153240, Note_on_c, 0, 66, 101
2, 153360, Note_on_c, 0, 66, 0
2, 153360, Note_on_c, 0, 67, 101
2, 153480, Note_on_c, 0, 67, 0
2, 153480, Note_on_c, 0, 68, 101
2, 153600, Note_on_c, 0, 68, 0
2, 153600, Note_on_c, 0, 69, 101
2, 153720, Note_on_c, 0, 69, 0
2, 153720, Note_on_c, 0, 68, 101
2, 153840, Note_on_c, 0, 68, 0
2, 153840, Note_on_c, 0, 69, 101
2, 153960, Note_on_c, 0, 69, 0
2, 153960, Note_on_c, 0, 71, 101
2, 154080, Note_on_c, 0, 71, 0
2, 154080, Note_on_c, 0, 73, 101
2, 154200, Note_on_c, 0, 73, 0
2, 154200, Note_on_c, 0, 71, 101
2, 154320, Note_on_c, 0, 71, 0
2, 154320, Note_on_c, 0, 73, 101
2, 154440, Note_on_c, 0, 73, 0
2, 154440, Note_on_c, 0, 74, 101
2, 154560, Note_on_c, 0, 74, 0
2, 154560, Note_on_c, 0, 76, 101
2, 154680, Note_on_c, 0, 76, 0
2, 154680, Note_on_c, 0, 75, 101
2, 154800, Note_on_c, 0, 75, 0
2, 154800, Note_on_c, 0, 76, 101
2, 154920, Note_on_c, 0, 76, 0
2, 154920, Note_on_c, 0, 78, 101
2, 155040, Note_on_c, 0, 78, 0
2, 155040, Note_on_c, 0, 79, 101
2, 155160, Note_on_c, 0, 79, 0
2, 155160, Note_on_c, 0, 78, 101
2, 155280, Note_on_c, 0, 78, 0
2, 155280, Note_on_c, 0, 79, 101
2, 155400, Note_on_c, 0, 79, 0
2, 155400, Note_on_c, 0, 80, 101
2, 155520, Note_on_c, 0, 80, 0
2, 155520, Note_on_c, 0, 81, 101
2, 155640, Note_on_c, 0, 81, 0
2, 155640, Note_on_c, 0, 80, 101
2, 155760, Note_on_c, 0, 80, 0
2, 155760, Note_on_c, 0, 81, 101
2, 155880, Note_on_c, 0, 81, 0
2, 155880, Note_on_c, 0, 82, 101
2, 156000, Note_on_c, 0, 82, 0
2, 156000, Note_on_c, 0, 83, 101
2, 156120, Note_on_c, 0, 83, 0
2, 156120, Note_on_c, 0, 81, 101
2, 156240, Note_on_c, 0, 81, 0
2, 156240, Note_on_c, 0, 80, 101
2, 156360, Note_on_c, 0, 80, 0
2, 156360, Note_on_c, 0, 81, 101
2, 156480, Note_on_c, 0, 81, 0
2, 156480, Note_on_c, 0, 83, 101
2, 156600, Note_on_c, 0, 83, 0
2, 156600, Note_on_c, 0, 81, 101
2, 156720, Note_on_c, 0, 81, 0
2, 156720, Note_on_c, 0, 80, 101
2, 156840, Note_on_c, 0, 80, 0
2, 156840, Note_on_c, 0, 81, 101
2, 156960, Note_on_c, 0, 81, 0
2, 156960, Note_on_c, 0, 83, 101
2, 157080, Note_on_c, 0, 83, 0
2, 157080, Note_on_c, 0, 81, 101
2, 157200, Note_on_c, 0, 81, 0
2, 157200, Note_on_c, 0, 83, 101
2, 157320, Note_on_c, 0, 83, 0
2, 157320, Note_on_c, 0, 85, 101
2, 157440, Note_on_c, 0, 85, 0
2, 157440, Note_on_c, 0, 74, 101
2, 157440, Note_on_c, 0, 78, 101
2, 157440, Note_on_c, 0, 86, 101
2, 157920, Note_on_c, 0, 86, 0
2, 157920, Note_on_c, 0, 78, 0
2, 157920, Note_on_c, 0, 74, 0
2, 157920, Note_on_c, 0, 74, 101
2, 157920, Note_on_c, 0, 79, 101
2, 157920, Note_on_c, 0, 86, 101
2, 158400, Note_on_c, 0, 86, 0
2, 158400, Note_on_c, 0, 79, 0
2, 158400, Note_on_c, 0, 74, 0
2, 158400, Note_on_c, 0, 74, 101
2, 158400, Note_on_c, 0, 80, 101
2, 158400, Note_on_c, 0, 86, 101
2, 158880, Note_on_c, 0, 86, 0
2, 158880, Note_on_c, 0, 80, 0
2, 158880, Note_on_c, 0, 74, 0
2, 158880, Note_on_c, 0, 74, 101
2, 158880, Note_on_c, 0, 81, 101
2, 158880, Note_on_c, 0, 86, 101
2, 159360, Note_on_c, 0, 86, 0
2, 159360, Note_on_c, 0, 81, 0
2, 159360, Note_on_c, 0, 74, 0
2, 159360, Note_on_c, 0, 74, 101
2, 159360, Note_on_c, 0, 79, 101
2, 159360, Note_on_c, 0, 82, 101
2, 159360, Note_on_c, 0, 86, 101
2, 159840, Note_on_c, 0, 86, 0
2, 159840, Note_on_c, 0, 74, 0
2, 159840, Note_on_c, 0, 79, 0
2, 159840, Note_on_c, 0, 82, 0
2, 159840, Note_on_c, 0, 77, 101
2, 159840, Note_on_c, 0, 83, 101
2, 159840, Note_on_c, 0, 86, 101
2, 159960, Note_on_c, 0, 86, 0
2, 159960, Note_on_c, 0, 83, 0
2, 159960, Note_on_c, 0, 77, 0
2, 159960, Note_on_c, 0, 85, 101
2, 160080, Note_on_c, 0, 85, 0
2, 160080, Note_on_c, 0, 86, 101
2, 160200, Note_on_c, 0, 86, 0
2, 160200, Note_on_c, 0, 88, 101
2, 160320, Note_on_c, 0, 88, 0
2, 160320, Note_on_c, 0, 78, 101
2, 160320, Note_on_c, 0, 86, 101
2, 160320, Note_on_c, 0, 90, 101
2, 160560, Note_on_c, 0, 90, 0
2, 160560, Note_on_c, 0, 86, 0
2, 160560, Note_on_c, 0, 78, 0
2, 160560, Note_on_c, 0, 76, 101
2, 160560, Note_on_c, 0, 81, 101
2, 160560, Note_on_c, 0, 85, 101
2, 160560, Note_on_c, 0, 88, 101
2, 160800, Note_on_c, 0, 88, 0
2, 160800, Note_on_c, 0, 76, 0
2, 160800, Note_on_c, 0, 81, 0
2, 160800, Note_on_c, 0, 85, 0
2, 160800, Note_on_c, 0, 74, 101
2, 160800, Note_on_c, 0, 78, 101
2, 160800, Note_on_c, 0, 81, 101
2, 160800, Note_on_c, 0, 86, 101
2, 161040, Note_on_c, 0, 86, 0
2, 161040, Note_on_c, 0, 74, 0
2, 161040, Note_on_c, 0, 78, 0
2, 161040, Note_on_c, 0, 81, 0
2, 161040, Note_on_c, 0, 81, 101
2, 161280, Note_on_c, 0, 81, 0
2, 161280, Note_on_c, 0, 74, 101
2, 161280, Note_on_c, 0, 78, 101
2, 161280, Note_on_c, 0, 81, 101
2, 161280, Note_on_c, 0, 86, 101
2, 161520, Note_on_c, 0, 86, 0
2, 161520, Note_on_c, 0, 74, 0
2, 161520, Note_on_c, 0, 78, 0
2, 161520, Note_on_c, 0, 81, 0
2, 161520, Note_on_c, 0, 85, 101
2, 161640, Note_on_c, 0, 85, 0
2, 161640, Note_on_c, 0, 83, 101
2, 161760, Note_on_c, 0, 83, 0
2, 161760, Note_on_c, 0, 81, 101
2, 161880, Note_on_c, 0, 81, 0
2, 161880, Note_on_c, 0, 83, 101
2, 162000, Note_on_c, 0, 83, 0
2, 162000, Note_on_c, 0, 81, 101
2, 162120, Note_on_c, 0, 81, 0
2, 162120, Note_on_c, 0, 79, 101
2, 162240, Note_on_c, 0, 79, 0
2, 162240, Note_on_c, 0, 78, 101
2, 162360, Note_on_c, 0, 78, 0
2, 162360, Note_on_c, 0, 76, 101
2, 162480, Note_on_c, 0, 76, 0
2, 162480, Note_on_c, 0, 74, 101
2, 162600, Note_on_c, 0, 74, 0
2, 162600, Note_on_c, 0, 76, 101
2, 162720, Note_on_c, 0, 76, 0
2, 162720, Note_on_c, 0, 78, 101
2, 162840, Note_on_c, 0, 78, 0
2, 162840, Note_on_c, 0, 76, 101
2, 162960, Note_on_c, 0, 76, 0
2, 162960, Note_on_c, 0, 78, 101
2, 163080, Note_on_c, 0, 78, 0
2, 163080, Note_on_c, 0, 79, 101
2, 163200, Note_on_c, 0, 79, 0
2, 163200, Note_on_c, 0, 81, 101
2, 163320, Note_on_c, 0, 81, 0
2, 163320, Note_on_c, 0, 79, 101
2, 163440, Note_on_c, 0, 79, 0
2, 163440, Note_on_c, 0, 78, 101
2, 163560, Note_on_c, 0, 78, 0
2, 163560, Note_on_c, 0, 79, 101
2, 163680, Note_on_c, 0, 79, 0
2, 163680, Note_on_c, 0, 81, 101
2, 163800, Note_on_c, 0, 81, 0
2, 163800, Note_on_c, 0, 83, 101
2, 163920, Note_on_c, 0, 83, 0
2, 163920, Note_on_c, 0, 81, 101
2, 163920, Note_on_c, 0, 85, 101
2, 164040, Note_on_c, 0, 85, 0
2, 164040, Note_on_c, 0, 81, 0
2, 164040, Note_on_c, 0, 83, 101
2, 164040, Note_on_c, 0, 86, 101
2, 164160, Note_on_c, 0, 86, 0
2, 164160, Note_on_c, 0, 83, 0
2, 164160, Note_on_c, 0, 76, 101
2, 164160, Note_on_c, 0, 81, 101
2, 164160, Note_on_c, 0, 85, 101
2, 164160, Note_on_c, 0, 88, 101
2, 164400, Note_on_c, 0, 88, 0
2, 164400, Note_on_c, 0, 76, 0
2, 164400, Note_on_c, 0, 81, 0
2, 164400, Note_on_c, 0, 85, 0
2, 164400, Note_on_c, 0, 78, 101
2, 164400, Note_on_c, 0, 81, 101
2, 164400, Note_on_c, 0, 86, 101
2, 164400, Note_on_c, 0, 90, 101
2, 164640, Note_on_c, 0, 90, 0
2, 164640, Note_on_c, 0, 78, 0
2, 164640, Note_on_c, 0, 81, 0
2, 164640, Note_on_c, 0, 86, 0
2, 164640, Note_on_c, 0, 76, 101
2, 164640, Note_on_c, 0, 81, 101
2, 164640, Note_on_c, 0, 85, 101
2, 164640, Note_on_c, 0, 88, 101
2, 164880, Note_on_c, 0, 88, 0
2, 164880, Note_on_c, 0, 76, 0
2, 164880, Note_on_c, 0, 81, 0
2, 164880, Note_on_c, 0, 85, 0
2, 164880, Note_on_c, 0, 81, 101
2, 165120, Note_on_c, 0, 81, 0
2, 165120, Note_on_c, 0, 74, 101
2, 165120, Note_on_c, 0, 78, 101
2, 165120, Note_on_c, 0, 86, 101
2, 165600, Note_on_c, 0, 86, 0
2, 165600, Note_on_c, 0, 78, 0
2, 165600, Note_on_c, 0, 74, 0
2, 165600, Note_on_c, 0, 74, 101
2, 165600, Note_on_c, 0, 79, 101
2, 165600, Note_on_c, 0, 86, 101
2, 166080, Note_on_c, 0, 86, 0
2, 166080, Note_on_c, 0, 79, 0
2, 166080, Note_on_c, 0, 74, 0
2, 166080, Note_on_c, 0, 74, 101
2, 166080, Note_on_c, 0, 80, 101
2, 166080, Note_on_c, 0, 86, 101
2, 166560, Note_on_c, 0, 86, 0
2, 166560, Note_on_c, 0, 80, 0
2, 166560, Note_on_c, 0, 74, 0
2, 166560, Note_on_c, 0, 74, 101
2, 166560, Note_on_c, 0, 81, 101
2, 166560, Note_on_c, 0, 86, 101
2, 167040, Note_on_c, 0, 86, 0
2, 167040, Note_on_c, 0, 81, 0
2, 167040, Note_on_c, 0, 74, 0
2, 167040, Note_on_c, 0, 74, 101
2, 167040, Note_on_c, 0, 79, 101
2, 167040, Note_on_c, 0, 82, 101
2, 167040, Note_on_c, 0, 86, 101
2, 167520, Note_on_c, 0, 86, 0
2, 167520, Note_on_c, 0, 74, 0
2, 167520, Note_on_c, 0, 79, 0
2, 167520, Note_on_c, 0, 82, 0
2, 167520, Note_on_c, 0, 77, 101
2, 167520, Note_on_c, 0, 83, 101
2, 167520, Note_on_c, 0, 86, 101
2, 167640, Note_on_c, 0, 86, 0
2, 167640, Note_on_c, 0, 83, 0
2, 167640, Note_on_c, 0, 77, 0
2, 167640, Note_on_c, 0, 85, 101
2, 167760, Note_on_c, 0, 85, 0
2, 167760, Note_on_c, 0, 86, 101
2, 167880, Note_on_c, 0, 86, 0
2, 167880, Note_on_c, 0, 88, 101
2, 168000, Note_on_c, 0, 88, 0
2, 168000, Note_on_c, 0, 78, 101
2, 168000, Note_on_c, 0, 81, 101
2, 168000, Note_on_c, 0, 86, 101
2, 168000, Note_on_c, 0, 90, 101
2, 168240, Note_on_c, 0, 90, 0
2, 168240, Note_on_c, 0, 78, 0
2, 168240, Note_on_c, 0, 81, 0
2, 168240, Note_on_c, 0, 86, 0
2, 168240, Note_on_c, 0, 76, 101
2, 168240, Note_on_c, 0, 81, 101
2, 168240, Note_on_c, 0, 85, 101
2, 168240, Note_on_c, 0, 88, 101
2, 168480, Note_on_c, 0, 88, 0
2, 168480, Note_on_c, 0, 76, 0
2, 168480, Note_on_c, 0, 81, 0
2, 168480, Note_on_c, 0, 85, 0
2, 168480, Note_on_c, 0, 74, 101
2, 168480, Note_on_c, 0, 78, 101
2, 168480, Note_on_c, 0, 81, 101
2, 168480, Note_on_c, 0, 86, 101
2, 168720, Note_on_c, 0, 86, 0
2, 168720, Note_on_c, 0, 74, 0
2, 168720, Note_on_c, 0, 78, 0
2, 168720, Note_on_c, 0, 81, 0
2, 168720, Note_on_c, 0, 81, 101
2, 168960, Note_on_c, 0, 81, 0
2, 168960, Note_on_c, 0, 74, 101
2, 168960, Note_on_c, 0, 78, 101
2, 168960, Note_on_c, 0, 81, 101
2, 168960, Note_on_c, 0, 86, 101
2, 169200, Note_on_c, 0, 86, 0
2, 169200, Note_on_c, 0, 74, 0
2, 169200, Note_on_c, 0, 78, 0
2, 169200, Note_on_c, 0, 81, 0
2, 169200, Note_on_c, 0, 85, 101
2, 169320, Note_on_c, 0, 85, 0
2, 169320, Note_on_c, 0, 83, 101
2, 169440, Note_on_c, 0, 83, 0
2, 169440, Note_on_c, 0, 81, 101
2, 169560, Note_on_c, 0, 81, 0
2, 169560, Note_on_c, 0, 83, 101
2, 169680, Note_on_c, 0, 83, 0
2, 169680, Note_on_c, 0, 81, 101
2, 169800, Note_on_c, 0, 81, 0
2, 169800, Note_on_c, 0, 79, 101
2, 169920, Note_on_c, 0, 79, 0
2, 169920, Note_on_c, 0, 78, 101
2, 170040, Note_on_c, 0, 78, 0
2, 170040, Note_on_c, 0, 76, 101
2, 170160, Note_on_c, 0, 76, 0
2, 170160, Note_on_c, 0, 74, 101
2, 170280, Note_on_c, 0, 74, 0
2, 170280, Note_on_c, 0, 76, 101
2, 170400, Note_on_c, 0, 76, 0
2, 170400, Note_on_c, 0, 78, 101
2, 170520, Note_on_c, 0, 78, 0
2, 170520, Note_on_c, 0, 76, 101
2, 170640, Note_on_c, 0, 76, 0
2, 170640, Note_on_c, 0, 78, 101
2, 170760, Note_on_c, 0, 78, 0
2, 170760, Note_on_c, 0, 79, 101
2, 170880, Note_on_c, 0, 79, 0
2, 170880, Note_on_c, 0, 81, 101
2, 171000, Note_on_c, 0, 81, 0
2, 171000, Note_on_c, 0, 79, 101
2, 171120, Note_on_c, 0, 79, 0
2, 171120, Note_on_c, 0, 78, 101
2, 171240, Note_on_c, 0, 78, 0
2, 171240, Note_on_c, 0, 79, 101
2, 171360, Note_on_c, 0, 79, 0
2, 171360, Note_on_c, 0, 81, 101
2, 171480, Note_on_c, 0, 81, 0
2, 171480, Note_on_c, 0, 83, 101
2, 171600, Note_on_c, 0, 83, 0
2, 171600, Note_on_c, 0, 81, 101
2, 171600, Note_on_c, 0, 85, 101
2, 171720, Note_on_c, 0, 85, 0
2, 171720, Note_on_c, 0, 81, 0
2, 171720, Note_on_c, 0, 83, 101
2, 171720, Note_on_c, 0, 86, 101
2, 171840, Note_on_c, 0, 86, 0
2, 171840, Note_on_c, 0, 83, 0
2, 171840, Note_on_c, 0, 81, 101
2, 171840, Note_on_c, 0, 85, 101
2, 171840, Note_on_c, 0, 88, 101
2, 172080, Note_on_c, 0, 88, 0
2, 172080, Note_on_c, 0, 85, 0
2, 172080, Note_on_c, 0, 81, 0
2, 172080, Note_on_c, 0, 79, 101
2, 172080, Note_on_c, 0, 81, 101
2, 172080, Note_on_c, 0, 85, 101
2, 172080, Note_on_c, 0, 90, 101
2, 172320, Note_on_c, 0, 90, 0
2, 172320, Note_on_c, 0, 79, 0
2, 172320, Note_on_c, 0, 81, 0
2, 172320, Note_on_c, 0, 85, 0
2, 172320, Note_on_c, 0, 78, 101
2, 172320, Note_on_c, 0, 81, 101
2, 172320, Note_on_c, 0, 86, 101
2, 172560, Note_on_c, 0, 86, 0
2, 172560, Note_on_c, 0, 81, 0
2, 172560, Note_on_c, 0, 78, 0
2, 174720, Note_on_c, 0, 61, 101
2, 174720, Note_on_c, 0, 69, 101
2, 174840, Note_on_c, 0, 69, 0
2, 174840, Note_on_c, 0, 61, 0
2, 174840, Note_on_c, 0, 64, 101
2, 174960, Note_on_c, 0, 64, 0
2, 174960, Note_on_c, 0, 61, 101
2, 175080, Note_on_c, 0, 61, 0
2, 175080, Note_on_c, 0, 64, 101
2, 175200, Note_on_c, 0, 64, 0
2, 175200, Note_on_c, 0, 69, 101
2, 175320, Note_on_c, 0, 69, 0
2, 175320, Note_on_c, 0, 64, 101
2, 175440, Note_on_c, 0, 64, 0
2, 175440, Note_on_c, 0, 69, 101
2, 175560, Note_on_c, 0, 69, 0
2, 175560, Note_on_c, 0, 71, 101
2, 175680, Note_on_c, 0, 71, 0
2, 175680, Note_on_c, 0, 73, 101
2, 175800, Note_on_c, 0, 73, 0
2, 175800, Note_on_c, 0, 71, 101
2, 175920, Note_on_c, 0, 71, 0
2, 175920, Note_on_c, 0, 73, 101
2, 176040, Note_on_c, 0, 73, 0
2, 176040, Note_on_c, 0, 74, 101
2, 176160, Note_on_c, 0, 74, 0
2, 176160, Note_on_c, 0, 76, 101
2, 176400, Note_on_c, 0, 76, 0
2, 178560, Note_on_c, 0, 61, 101
2, 178560, Note_on_c, 0, 69, 101
2, 178680, Note_on_c, 0, 69, 0
2, 178680, Note_on_c, 0, 61, 0
2, 178680, Note_on_c, 0, 64, 101
2, 178800, Note_on_c, 0, 64, 0
2, 178800, Note_on_c, 0, 61, 101
2, 178920, Note_on_c, 0, 61, 0
2, 178920, Note_on_c, 0, 64, 101
2, 179040, Note_on_c, 0, 64, 0
2, 179040, Note_on_c, 0, 69, 101
2, 179160, Note_on_c, 0, 69, 0
2, 179160, Note_on_c, 0, 64, 101
2, 179280, Note_on_c, 0, 64, 0
2, 179280, Note_on_c, 0, 69, 101
2, 179400, Note_on_c, 0, 69, 0
2, 179400, Note_on_c, 0, 71, 101
2, 179520, Note_on_c, 0, 71, 0
2, 179520, Note_on_c, 0, 73, 101
2, 179640, Note_on_c, 0, 73, 0
2, 179640, Note_on_c, 0, 71, 101
2, 179760, Note_on_c, 0, 71, 0
2, 179760, Note_on_c, 0, 73, 101
2, 179880, Note_on_c, 0, 73, 0
2, 179880, Note_on_c, 0, 74, 101
2, 180000, Note_on_c, 0, 74, 0
2, 180000, Note_on_c, 0, 76, 101
2, 180120, Note_on_c, 0, 76, 0
2, 180120, Note_on_c, 0, 72, 101
2, 180120, Note_on_c, 0, 75, 101
2, 180240, Note_on_c, 0, 75, 0
2, 180240, Note_on_c, 0, 72, 0
2, 180240, Note_on_c, 0, 73, 101
2, 180240, Note_on_c, 0, 76, 101
2, 180480, Note_on_c, 0, 76, 0
2, 180480, Note_on_c, 0, 73, 0
2, 180480, Note_on_c, 0, 85, 101
2, 180480, Note_on_c, 0, 88, 101
2, 180600, Note_on_c, 0, 88, 0
2, 180600, Note_on_c, 0, 85, 0
2, 180600, Note_on_c, 0, 84, 101
2, 180600, Note_on_c, 0, 87, 101
2, 180720, Note_on_c, 0, 87, 0
2, 180720, Note_on_c, 0, 84, 0
2, 180720, Note_on_c, 0, 85, 101
2, 180720, Note_on_c, 0, 88, 101
2, 180960, Note_on_c, 0, 88, 0
2, 180960, Note_on_c, 0, 85, 0
2, 180960, Note_on_c, 0, 85, 101
2, 180960, Note_on_c, 0, 88, 101
2, 181080, Note_on_c, 0, 88, 0
2, 181080, Note_on_c, 0, 85, 0
2, 181080, Note_on_c, 0, 84, 101
2, 181080, Note_on_c, 0, 87, 101
2, 181200, Note_on_c, 0, 87, 0
2, 181200, Note_on_c, 0, 84, 0
2, 181200, Note_on_c, 0, 85, 101
2, 181200, Note_on_c, 0, 88, 101
2, 181440, Note_on_c, 0, 88, 0
2, 181440, Note_on_c, 0, 85, 0
2, 181440, Note_on_c, 0, 83, 101
2, 181440, Note_on_c, 0, 86, 101
2, 181560, Note_on_c, 0, 86, 0
2, 181560, Note_on_c, 0, 83, 0
2, 181560, Note_on_c, 0, 82, 101
2, 181560, Note_on_c, 0, 85, 101
2, 181680, Note_on_c, 0, 85, 0
2, 181680, Note_on_c, 0, 82, 0
2, 181680, Note_on_c, 0, 83, 101
2, 181680, Note_on_c, 0, 86, 101
2, 181920, Note_on_c, 0, 86, 0
2, 181920, Note_on_c, 0, 83, 0
2, 181920, Note_on_c, 0, 83, 101
2, 181920, Note_on_c, 0, 86, 101
2, 182040, Note_on_c, 0, 86, 0
2, 182040, Note_on_c, 0, 83, 0
2, 182040, Note_on_c, 0, 82, 101
2, 182040, Note_on_c, 0, 85, 101
2, 182160, Note_on_c, 0, 85, 0
2, 182160, Note_on_c, 0, 82, 0
2, 182160, Note_on_c, 0, 83, 101
2, 182160, Note_on_c, 0, 86, 101
2, 182400, Note_on_c, 0, 86, 0
2, 182400, Note_on_c, 0, 83, 0
2, 182400, Note_on_c, 0, 83, 101
2, 182400, Note_on_c, 0, 86, 101
2, 182520, Note_on_c, 0, 86, 0
2, 182520, Note_on_c, 0, 83, 0
2, 182520, Note_on_c, 0, 82, 101
2, 182520, Note_on_c, 0, 85, 101
2, 182640, Note_on_c, 0, 85, 0
2, 182640, Note_on_c, 0, 82, 0
2, 182640, Note_on_c, 0, 83, 101
2, 182640, Note_on_c, 0, 86, 101
2, 182880, Note_on_c, 0, 86, 0
2, 182880, Note_on_c, 0, 83, 0
2, 182880, Note_on_c, 0, 83, 101
2, 182880, Note_on_c, 0, 86, 101
2, 183000, Note_on_c, 0, 86, 0
2, 183000, Note_on_c, 0, 83, 0
2, 183000, Note_on_c, 0, 82, 101
2, 183000, Note_on_c, 0, 85, 101
2, 183120, Note_on_c, 0, 85, 0
2, 183120, Note_on_c, 0, 82, 0
2, 183120, Note_on_c, 0, 83, 101
2, 183120, Note_on_c, 0, 86, 101
2, 183360, Note_on_c, 0, 86, 0
2, 183360, Note_on_c, 0, 83, 0
2, 183360, Note_on_c, 0, 81, 101
2, 183360, Note_on_c, 0, 85, 101
2, 183480, Note_on_c, 0, 85, 0
2, 183480, Note_on_c, 0, 81, 0
2, 183480, Note_on_c, 0, 80, 101
2, 183480, Note_on_c, 0, 84, 101
2, 183600, Note_on_c, 0, 84, 0
2, 183600, Note_on_c, 0, 80, 0
2, 183600, Note_on_c, 0, 81, 101
2, 183600, Note_on_c, 0, 85, 101
2, 183840, Note_on_c, 0, 85, 0
2, 183840, Note_on_c, 0, 81, 0
2, 183840, Note_on_c, 0, 85, 101
2, 183960, Note_on_c, 0, 85, 0
2, 183960, Note_on_c, 0, 81, 101
2, 184080, Note_on_c, 0, 81, 0
2, 184080, Note_on_c, 0, 83, 101
2, 184200, Note_on_c, 0, 83, 0
2, 184200, Note_on_c, 0, 85, 101
2, 184320, Note_on_c, 0, 85, 0
2, 184320, Note_on_c, 0, 74, 101
2, 184320, Note_on_c, 0, 81, 101
2, 184320, Note_on_c, 0, 86, 101
2, 184560, Note_on_c, 0, 86, 0
2, 184560, Note_on_c, 0, 81, 0
2, 184560, Note_on_c, 0, 74, 0
2, 184560, Note_on_c, 0, 73, 101
2, 184560, Note_on_c, 0, 85, 101
2, 184800, Note_on_c, 0, 85, 0
2, 184800, Note_on_c, 0, 73, 0
2, 184800, Note_on_c, 0, 71, 101
2, 184800, Note_on_c, 0, 83, 101
2, 185040, Note_on_c, 0, 83, 0
2, 185040, Note_on_c, 0, 71, 0
2, 185040, Note_on_c, 0, 69, 101
2, 185040, Note_on_c, 0, 74, 101
2, 185040, Note_on_c, 0, 81, 101
2, 185280, Note_on_c, 0, 81, 0
2, 185280, Note_on_c, 0, 74, 0
2, 185280, Note_on_c, 0, 69, 0
2, 185280, Note_on_c, 0, 67, 101
2, 185280, Note_on_c, 0, 74, 101
2, 185280, Note_on_c, 0, 79, 101
2, 185520, Note_on_c, 0, 79, 0
2, 185520, Note_on_c, 0, 74, 0
2, 185520, Note_on_c, 0, 67, 0
2, 185520, Note_on_c, 0, 66, 101
2, 185520, Note_on_c, 0, 74, 101
2, 185520, Note_on_c, 0, 78, 101
2, 185760, Note_on_c, 0, 78, 0
2, 185760, Note_on_c, 0, 74, 0
2, 185760, Note_on_c, 0, 66, 0
2, 185760, Note_on_c, 0, 71, 101
2, 185760, Note_on_c, 0, 76, 101
2, 185760, Note_on_c, 0, 83, 101
2, 186000, Note_on_c, 0, 83, 0
2, 186000, Note_on_c, 0, 76, 0
2, 186000, Note_on_c, 0, 71, 0
2, 186000, Note_on_c, 0, 69, 101
2, 186000, Note_on_c, 0, 73, 101
2, 186000, Note_on_c, 0, 81, 101
2, 186240, Note_on_c, 0, 81, 0
2, 186240, Note_on_c, 0, 73, 0
2, 186240, Note_on_c, 0, 69, 0
2, 186240, Note_on_c, 0, 74, 101
2, 186240, Note_on_c, 0, 81, 101
2, 186240, Note_on_c, 0, 86, 101
2, 186480, Note_on_c, 0, 86, 0
2, 186480, Note_on_c, 0, 81, 0
2, 186480, Note_on_c, 0, 74, 0
2, 186480, Note_on_c, 0, 73, 101
2, 186480, Note_on_c, 0, 85, 101
2, 186720, Note_on_c, 0, 85, 0
2, 186720, Note_on_c, 0, 73, 0
2, 186720, Note_on_c, 0, 71, 101
2, 186720, Note_on_c, 0, 83, 101
2, 186960, Note_on_c, 0, 83, 0
2, 186960, Note_on_c, 0, 71, 0
2, 186960, Note_on_c, 0, 69, 101
2, 186960, Note_on_c, 0, 74, 101
2, 186960, Note_on_c, 0, 81, 101
2, 187200, Note_on_c, 0, 81, 0
2, 187200, Note_on_c, 0, 74, 0
2, 187200, Note_on_c, 0, 69, 0
2, 187200, Note_on_c, 0, 67, 101
2, 187200, Note_on_c, 0, 74, 101
2, 187200, Note_on_c, 0, 79, 101
2, 187440, Note_on_c, 0, 79, 0
2, 187440, Note_on_c, 0, 74, 0
2, 187440, Note_on_c, 0, 67, 0
2, 187440, Note_on_c, 0, 66, 101
2, 187440, Note_on_c, 0, 74, 101
2, 187440, Note_on_c, 0, 78, 101
2, 187680, Note_on_c, 0, 78, 0
2, 187680, Note_on_c, 0, 74, 0
2, 187680, Note_on_c, 0, 66, 0
2, 187680, Note_on_c, 0, 71, 101
2, 187680, Note_on_c, 0, 76, 101
2, 187680, Note_on_c, 0, 83, 101
2, 187920, Note_on_c, 0, 83, 0
2, 187920, Note_on_c, 0, 76, 0
2, 187920, Note_on_c, 0, 71, 0
2, 187920, Note_on_c, 0, 69, 101
2, 187920, Note_on_c, 0, 73, 101
2, 187920, Note_on_c, 0, 81, 101
2, 188160, Note_on_c, 0, 81, 0
2, 188160, Note_on_c, 0, 73, 0
2, 188160, Note_on_c, 0, 69, 0
2, 188160, Note_on_c, 0, 74, 101
2, 188160, Note_on_c, 0, 81, 101
2, 188160, Note_on_c, 0, 86, 101
2, 188400, Note_on_c, 0, 86, 0
2, 188400, Note_on_c, 0, 81, 0
2, 188400, Note_on_c, 0, 74, 0
2, 188400, Note_on_c, 0, 73, 101
2, 188400, Note_on_c, 0, 85, 101
2, 188640, Note_on_c, 0, 85, 0
2, 188640, Note_on_c, 0, 73, 0
2, 188640, Note_on_c, 0, 71, 101
2, 188640, Note_on_c, 0, 83, 101
2, 188880, Note_on_c, 0, 83, 0
2, 188880, Note_on_c, 0, 71, 0
2, 188880, Note_on_c, 0, 81, 101
2, 189120, Note_on_c, 0, 81, 0
2, 189120, Note_on_c, 0, 76, 101
2, 189120, Note_on_c, 0, 81, 101
2, 189120, Note_on_c, 0, 85, 101
2, 189120, Note_on_c, 0, 88, 101
2, 189360, Note_on_c, 0, 88, 0
2, 189360, Note_on_c, 0, 76, 0
2, 189360, Note_on_c, 0, 81, 0
2, 189360, Note_on_c, 0, 85, 0
2, 189360, Note_on_c, 0, 73, 101
2, 189360, Note_on_c, 0, 85, 101
2, 189600, Note_on_c, 0, 85, 0
2, 189600, Note_on_c, 0, 73, 0
2, 189600, Note_on_c, 0, 71, 101
2, 189600, Note_on_c, 0, 83, 101
2, 189840, Note_on_c, 0, 83, 0
2, 189840, Note_on_c, 0, 71, 0
2, 189840, Note_on_c, 0, 69, 101
2, 189840, Note_on_c, 0, 81, 101
2, 190080, Note_on_c, 0, 81, 0
2, 190080, Note_on_c, 0, 69, 0
2, 190080, Note_on_c, 0, 80, 101
2, 190200, Note_on_c, 0, 80, 0
2, 190200, Note_on_c, 0, 78, 101
2, 190320, Note_on_c, 0, 78, 0
2, 190320, Note_on_c, 0, 76, 101
2, 190440, Note_on_c, 0, 76, 0
2, 190440, Note_on_c, 0, 75, 101
2, 190560, Note_on_c, 0, 75, 0
2, 190560, Note_on_c, 0, 76, 101
2, 190680, Note_on_c, 0, 76, 0
2, 190680, Note_on_c, 0, 77, 101
2, 190800, Note_on_c, 0, 77, 0
2, 190800, Note_on_c, 0, 78, 101
2, 190920, Note_on_c, 0, 78, 0
2, 190920, Note_on_c, 0, 77, 101
2, 191040, Note_on_c, 0, 77, 0
2, 191040, Note_on_c, 0, 78, 101
2, 191160, Note_on_c, 0, 78, 0
2, 191160, Note_on_c, 0, 76, 101
2, 191280, Note_on_c, 0, 76, 0
2, 191280, Note_on_c, 0, 78, 101
2, 191400, Note_on_c, 0, 78, 0
2, 191400, Note_on_c, 0, 80, 101
2, 191520, Note_on_c, 0, 80, 0
2, 191520, Note_on_c, 0, 69, 101
2, 191520, Note_on_c, 0, 73, 101
2, 191520, Note_on_c, 0, 81, 101
2, 192000, Note_on_c, 0, 81, 0
2, 192000, Note_on_c, 0, 73, 0
2, 192000, Note_on_c, 0, 69, 0
2, 192000, Control_c, 0, 64, 127
2, 192000, Note_on_c, 0, 81, 88
2, 192080, Note_on_c, 0, 81, 0
2, 192080, Note_on_c, 0, 83, 88
2, 192159, Note_on_c, 0, 83, 0
2, 192159, Note_on_c, 0, 81, 88
2, 192240, Note_on_c, 0, 81, 0
2, 192240, Note_on_c, 0, 83, 88
2, 192320, Note_on_c, 0, 83, 0
2, 192320, Note_on_c, 0, 81, 88
2, 192399, Note_on_c, 0, 81, 0
2, 192399, Note_on_c, 0, 83, 88
2, 192480, Note_on_c, 0, 83, 0
2, 192480, Note_on_c, 0, 81, 88
2, 192560, Note_on_c, 0, 81, 0
2, 192560, Note_on_c, 0, 83, 88
2, 192639, Note_on_c, 0, 83, 0
2, 192639, Note_on_c, 0, 81, 88
2, 192720, Note_on_c, 0, 81, 0
2, 192720, Note_on_c, 0, 83, 88
2, 192800, Note_on_c, 0, 83, 0
2, 192800, Note_on_c, 0, 81, 88
2, 192879, Note_on_c, 0, 81, 0
2, 192879, Note_on_c, 0, 83, 88
2, 192960, Note_on_c, 0, 83, 0
2, 192960, Note_on_c, 0, 81, 88
2, 193040, Note_on_c, 0, 81, 0
2, 193040, Note_on_c, 0, 83, 88
2, 193119, Note_on_c, 0, 83, 0
2, 193119, Note_on_c, 0, 81, 88
2, 193200, Note_on_c, 0, 81, 0
2, 193200, Note_on_c, 0, 83, 88
2, 193280, Note_on_c, 0, 83, 0
2, 193280, Note_on_c, 0, 81, 88
2, 193359, Note_on_c, 0, 81, 0
2, 193359, Note_on_c, 0, 83, 88
2, 193440, Note_on_c, 0, 83, 0
2, 193440, Note_on_c, 0, 81, 88
2, 193520, Note_on_c, 0, 81, 0
2, 193520, Note_on_c, 0, 83, 88
2, 193599, Note_on_c, 0, 83, 0
2, 193599, Note_on_c, 0, 81, 88
2, 193680, Note_on_c, 0, 81, 0
2, 193680, Note_on_c, 0, 80, 88
2, 193800, Note_on_c, 0, 80, 0
2, 193800, Control_c, 0, 64, 0
2, 193800, Note_on_c, 0, 81, 88
2, 193920, Note_on_c, 0, 81, 0
2, 193920, Control_c, 0, 64, 127
2, 193920, Note_on_c, 0, 88, 88
2, 194000, Note_on_c, 0, 88, 0
2, 194000, Note_on_c, 0, 90, 88
2, 194079, Note_on_c, 0, 90, 0
2, 194079, Note_on_c, 0, 88, 88
2, 194160, Note_on_c, 0, 88, 0
2, 194160, Note_on_c, 0, 90, 88
2, 194240, Note_on_c, 0, 90, 0
2, 194240, Note_on_c, 0, 88, 88
2, 194319, Note_on_c, 0, 88, 0
2, 194319, Note_on_c, 0, 90, 88
2, 194400, Note_on_c, 0, 90, 0
2, 194400, Note_on_c, 0, 88, 88
2, 194480, Note_on_c, 0, 88, 0
2, 194480, Note_on_c, 0, 90, 88
2, 194559, Note_on_c, 0, 90, 0
2, 194559, Note_on_c, 0, 88, 88
2, 194640, Note_on_c, 0, 88, 0
2, 194640, Note_on_c, 0, 90, 88
2, 194720, Note_on_c, 0, 90, 0
2, 194720, Note_on_c, 0, 88, 88
2, 194799, Note_on_c, 0, 88, 0
2, 194799, Note_on_c, 0, 90, 88
2, 194880, Note_on_c, 0, 90, 0
2, 194880, Note_on_c, 0, 88, 88
2, 194960, Note_on_c, 0, 88, 0
2, 194960, Note_on_c, 0, 90, 88
2, 195039, Note_on_c, 0, 90, 0
2, 195039, Note_on_c, 0, 88, 88
2, 195120, Note_on_c, 0, 88, 0
2, 195120, Note_on_c, 0, 90, 88
2, 195200, Note_on_c, 0, 90, 0
2, 195200, Note_on_c, 0, 88, 88
2, 195279, Note_on_c, 0, 88, 0
2, 195279, Note_on_c, 0, 90, 88
2, 195360, Note_on_c, 0, 90, 0
2, 195360, Note_on_c, 0, 88, 88
2, 195440, Note_on_c, 0, 88, 0
2, 195440, Note_on_c, 0, 90, 88
2, 195519, Note_on_c, 0, 90, 0
2, 195519, Note_on_c, 0, 88, 88
2, 195600, Note_on_c, 0, 88, 0
2, 195600, Note_on_c, 0, 87, 88
2, 195720, Note_on_c, 0, 87, 0
2, 195720, Control_c, 0, 64, 0
2, 195720, Note_on_c, 0, 88, 88
2, 195840, Note_on_c, 0, 88, 0
2, 195840, Control_c, 0, 64, 127
2, 195840, Note_on_c, 0, 81, 88
2, 195920, Note_on_c, 0, 81, 0
2, 195920, Note_on_c, 0, 83, 88
2, 195999, Note_on_c, 0, 83, 0
2, 195999, Note_on_c, 0, 81, 88
2, 196080, Note_on_c, 0, 81, 0
2, 196080, Note_on_c, 0, 83, 88
2, 196160, Note_on_c, 0, 83, 0
2, 196160, Note_on_c, 0, 81, 88
2, 196239, Note_on_c, 0, 81, 0
2, 196239, Note_on_c, 0, 83, 88
2, 196320, Note_on_c, 0, 83, 0
2, 196320, Note_on_c, 0, 81, 88
2, 196400, Note_on_c, 0, 81, 0
2, 196400, Note_on_c, 0, 83, 88
2, 196479, Note_on_c, 0, 83, 0
2, 196479, Note_on_c, 0, 81, 88
2, 196560, Note_on_c, 0, 81, 0
2, 196560, Note_on_c, 0, 83, 88
2, 196640, Note_on_c, 0, 83, 0
2, 196640, Note_on_c, 0, 81, 88
2, 196719, Note_on_c, 0, 81, 0
2, 196719, Note_on_c, 0, 83, 88
2, 196800, Note_on_c, 0, 83, 0
2, 196800, Note_on_c, 0, 81, 88
2, 196880, Note_on_c, 0, 81, 0
2, 196880, Note_on_c, 0, 83, 88
2, 196959, Note_on_c, 0, 83, 0
2, 196959, Note_on_c, 0, 81, 88
2, 197040, Note_on_c, 0, 81, 0
2, 197040, Note_on_c, 0, 83, 88
2, 197120, Note_on_c, 0, 83, 0
2, 197120, Note_on_c, 0, 81, 88
2, 197199, Note_on_c, 0, 81, 0
2, 197199, Note_on_c, 0, 83, 88
2, 197280, Note_on_c, 0, 83, 0
2, 197280, Note_on_c, 0, 81, 88
2, 197360, Note_on_c, 0, 81, 0
2, 197360, Note_on_c, 0, 83, 88
2, 197439, Note_on_c, 0, 83, 0
2, 197439, Note_on_c, 0, 81, 88
2, 197520, Note_on_c, 0, 81, 0
2, 197520, Note_on_c, 0, 80, 88
2, 197640, Note_on_c, 0, 80, 0
2, 197640, Control_c, 0, 64, 0
2, 197640, Note_on_c, 0, 81, 88
2, 197760, Note_on_c, 0, 81, 0
2, 197760, Control_c, 0, 64, 127
2, 197760, Note_on_c, 0, 88, 88
2, 197840, Note_on_c, 0, 88, 0
2, 197840, Note_on_c, 0, 90, 88
2, 197919, Note_on_c, 0, 90, 0
2, 197919, Note_on_c, 0, 88, 88
2, 198000, Note_on_c, 0, 88, 0
2, 198000, Note_on_c, 0, 90, 88
2, 198080, Note_on_c, 0, 90, 0
2, 198080, Note_on_c, 0, 88, 88
2, 198159, Note_on_c, 0, 88, 0
2, 198159, Note_on_c, 0, 90, 88
2, 198240, Note_on_c, 0, 90, 0
2, 198240, Note_on_c, 0, 88, 88
2, 198320, Note_on_c, 0, 88, 0
2, 198320, Note_on_c, 0, 90, 88
2, 198399, Note_on_c, 0, 90, 0
2, 198399, Note_on_c, 0, 88, 88
2, 198480, Note_on_c, 0, 88, 0
2, 198480, Note_on_c, 0, 90, 88
2, 198560, Note_on_c, 0, 90, 0
2, 198560, Note_on_c, 0, 88, 88
2, 198639, Note_on_c, 0, 88, 0
2, 198639, Note_on_c, 0, 90, 88
2, 198720, Note_on_c, 0, 90, 0
2, 198720, Note_on_c, 0, 88, 88
2, 198800, Note_on_c, 0, 88, 0
2, 198800, Note_on_c, 0, 90, 88
2, 198879, Note_on_c, 0, 90, 0
2, 198879, Note_on_c, 0, 88, 88
2, 198960, Note_on_c, 0, 88, 0
2, 198960, Note_on_c, 0, 90, 88
2, 199040, Note_on_c, 0, 90, 0
2, 199040, Note_on_c, 0, 88, 88
2, 199119, Note_on_c, 0, 88, 0
2, 199119, Note_on_c, 0, 90, 88
2, 199200, Note_on_c, 0, 90, 0
2, 199200, Note_on_c, 0, 88, 88
2, 199280, Note_on_c, 0, 88, 0
2, 199280, Note_on_c, 0, 90, 88
2, 199359, Note_on_c, 0, 90, 0
2, 199359, Note_on_c, 0, 88, 88
2, 199440, Note_on_c, 0, 88, 0
2, 199440, Note_on_c, 0, 90, 88
2, 199520, Note_on_c, 0, 90, 0
2, 199520, Note_on_c, 0, 88, 88
2, 199599, Note_on_c, 0, 88, 0
2, 199599, Note_on_c, 0, 90, 88
2, 199680, Note_on_c, 0, 90, 0
2, 199680, Control_c, 0, 64, 127
2, 199680, Note_on_c, 0, 88, 88
2, 199760, Note_on_c, 0, 88, 0
2, 199760, Note_on_c, 0, 90, 88
2, 199839, Note_on_c, 0, 90, 0
2, 199839, Note_on_c, 0, 88, 88
2, 199920, Note_on_c, 0, 88, 0
2, 199920, Note_on_c, 0, 90, 88
2, 200000, Note_on_c, 0, 90, 0
2, 200000, Note_on_c, 0, 88, 88
2, 200079, Note_on_c, 0, 88, 0
2, 200079, Note_on_c, 0, 90, 88
2, 200160, Note_on_c, 0, 90, 0
2, 200160, Note_on_c, 0, 88, 88
2, 200240, Note_on_c, 0, 88, 0
2, 200240, Note_on_c, 0, 90, 88
2, 200319, Note_on_c, 0, 90, 0
2, 200319, Note_on_c, 0, 88, 88
2, 200400, Note_on_c, 0, 88, 0
2, 200400, Note_on_c, 0, 90, 88
2, 200480, Note_on_c, 0, 90, 0
2, 200480, Note_on_c, 0, 88, 88
2, 200559, Note_on_c, 0, 88, 0
2, 200559, Note_on_c, 0, 90, 88
2, 200640, Note_on_c, 0, 90, 0
2, 200640, Note_on_c, 0, 88, 88
2, 200720, Note_on_c, 0, 88, 0
2, 200720, Note_on_c, 0, 90, 88
2, 200799, Note_on_c, 0, 90, 0
2, 200799, Note_on_c, 0, 88, 88
2, 200880, Note_on_c, 0, 88, 0
2, 200880, Note_on_c, 0, 90, 88
2, 200960, Note_on_c, 0, 90, 0
2, 200960, Note_on_c, 0, 88, 88
2, 201039, Note_on_c, 0, 88, 0
2, 201039, Note_on_c, 0, 90, 88
2, 201120, Note_on_c, 0, 90, 0
2, 201120, Note_on_c, 0, 88, 88
2, 201200, Note_on_c, 0, 88, 0
2, 201200, Note_on_c, 0, 90, 88
2, 201279, Note_on_c, 0, 90, 0
2, 201279, Note_on_c, 0, 88, 88
2, 201360, Note_on_c, 0, 88, 0
2, 201360, Note_on_c, 0, 90, 88
2, 201440, Note_on_c, 0, 90, 0
2, 201440, Note_on_c, 0, 88, 88
2, 201519, Note_on_c, 0, 88, 0
2, 201519, Control_c, 0, 64, 0
2, 201519, Note_on_c, 0, 90, 88
2, 201600, Note_on_c, 0, 90, 0
2, 201600, Control_c, 0, 64, 127
2, 201600, Note_on_c, 0, 88, 88
2, 201680, Note_on_c, 0, 88, 0
2, 201680, Note_on_c, 0, 90, 88
2, 201759, Note_on_c, 0, 90, 0
2, 201759, Note_on_c, 0, 88, 88
2, 201840, Note_on_c, 0, 88, 0
2, 201840, Note_on_c, 0, 90, 88
2, 201920, Note_on_c, 0, 90, 0
2, 201920, Note_on_c, 0, 88, 88
2, 201999, Note_on_c, 0, 88, 0
2, 201999, Note_on_c, 0, 90, 88
2, 202080, Note_on_c, 0, 90, 0
2, 202080, Note_on_c, 0, 88, 88
2, 202160, Note_on_c, 0, 88, 0
2, 202160, Note_on_c, 0, 90, 88
2, 202239, Note_on_c, 0, 90, 0
2, 202239, Note_on_c, 0, 88, 88
2, 202320, Note_on_c, 0, 88, 0
2, 202320, Note_on_c, 0, 90, 88
2, 202400, Note_on_c, 0, 90, 0
2, 202400, Note_on_c, 0, 88, 88
2, 202479, Note_on_c, 0, 88, 0
2, 202479, Control_c, 0, 64, 0
2, 202479, Note_on_c, 0, 90, 88
2, 202560, Note_on_c, 0, 90, 0
2, 202560, Control_c, 0, 64, 127
2, 202560, Note_on_c, 0, 88, 88
2, 202680, Note_on_c, 0, 88, 0
2, 202680, Note_on_c, 0, 90, 88
2, 202800, Note_on_c, 0, 90, 0
2, 202800, Note_on_c, 0, 91, 88
2, 202920, Note_on_c, 0, 91, 0
2, 202920, Note_on_c, 0, 92, 88
2, 203040, Note_on_c, 0, 92, 0
2, 203040, Note_on_c, 0, 93, 88
2, 203160, Note_on_c, 0, 93, 0
2, 203160, Note_on_c, 0, 91, 88
2, 203280, Note_on_c, 0, 91, 0
2, 203280, Note_on_c, 0, 90, 88
2, 203400, Note_on_c, 0, 90, 0
2, 203400, Control_c, 0, 64, 0
2, 203400, Note_on_c, 0, 88, 88
2, 203520, Note_on_c, 0, 88, 0
2, 203520, Note_on_c, 0, 74, 101
2, 203520, Note_on_c, 0, 78, 101
2, 203520, Note_on_c, 0, 86, 101
2, 204000, Note_on_c, 0, 86, 0
2, 204000, Note_on_c, 0, 78, 0
2, 204000, Note_on_c, 0, 74, 0
2, 204000, Note_on_c, 0, 74, 101
2, 204000, Note_on_c, 0, 79, 101
2, 204000, Note_on_c, 0, 86, 101
2, 204480, Note_on_c, 0, 86, 0
2, 204480, Note_on_c, 0, 79, 0
2, 204480, Note_on_c, 0, 74, 0
2, 204480, Note_on_c, 0, 74, 101
2, 204480, Note_on_c, 0, 80, 101
2, 204480, Note_on_c, 0, 86, 101
2, 204960, Note_on_c, 0, 86, 0
2, 204960, Note_on_c, 0, 80, 0
2, 204960, Note_on_c, 0, 74, 0
2, 204960, Note_on_c, 0, 74, 101
2, 204960, Note_on_c, 0, 81, 101
2, 204960, Note_on_c, 0, 86, 101
2, 205440, Note_on_c, 0, 86, 0
2, 205440, Note_on_c, 0, 81, 0
2, 205440, Note_on_c, 0, 74, 0
2, 205440, Note_on_c, 0, 74, 101
2, 205440, Note_on_c, 0, 79, 101
2, 205440, Note_on_c, 0, 82, 101
2, 205440, Note_on_c, 0, 86, 101
2, 205920, Note_on_c, 0, 86, 0
2, 205920, Note_on_c, 0, 74, 0
2, 205920, Note_on_c, 0, 79, 0
2, 205920, Note_on_c, 0, 82, 0
2, 205920, Note_on_c, 0, 77, 101
2, 205920, Note_on_c, 0, 83, 101
2, 205920, Note_on_c, 0, 86, 101
2, 206040, Note_on_c, 0, 86, 0
2, 206040, Note_on_c, 0, 83, 0
2, 206040, Note_on_c, 0, 77, 0
2, 206040, Note_on_c, 0, 85, 101
2, 206160, Note_on_c, 0, 85, 0
2, 206160, Note_on_c, 0, 86, 101
2, 206280, Note_on_c, 0, 86, 0
2, 206280, Note_on_c, 0, 88, 101
2, 206400, Note_on_c, 0, 88, 0
2, 206400, Note_on_c, 0, 78, 101
2, 206400, Note_on_c, 0, 86, 101
2, 206400, Note_on_c, 0, 90, 101
2, 206640, Note_on_c, 0, 90, 0
2, 206640, Note_on_c, 0, 86, 0
2, 206640, Note_on_c, 0, 78, 0
2, 206640, Note_on_c, 0, 76, 101
2, 206640, Note_on_c, 0, 81, 101
2, 206640, Note_on_c, 0, 85, 101
2, 206640, Note_on_c, 0, 88, 101
2, 206880, Note_on_c, 0, 88, 0
2, 206880, Note_on_c, 0, 76, 0
2, 206880, Note_on_c, 0, 81, 0
2, 206880, Note_on_c, 0, 85, 0
2, 206880, Note_on_c, 0, 74, 101
2, 206880, Note_on_c, 0, 78, 101
2, 206880, Note_on_c, 0, 81, 101
2, 206880, Note_on_c, 0, 86, 101
2, 207120, Note_on_c, 0, 86, 0
2, 207120, Note_on_c, 0, 74, 0
2, 207120, Note_on_c, 0, 78, 0
2, 207120, Note_on_c, 0, 81, 0
2, 207120, Note_on_c, 0, 81, 101
2, 207360, Note_on_c, 0, 81, 0
2, 207360, Note_on_c, 0, 74, 101
2, 207360, Note_on_c, 0, 78, 101
2, 207360, Note_on_c, 0, 81, 101
2, 207360, Note_on_c, 0, 86, 101
2, 207600, Note_on_c, 0, 86, 0
2, 207600, Note_on_c, 0, 74, 0
2, 207600, Note_on_c, 0, 78, 0
2, 207600, Note_on_c, 0, 81, 0
2, 207600, Note_on_c, 0, 85, 101
2, 207720, Note_on_c, 0, 85, 0
2, 207720, Note_on_c, 0, 83, 101
2, 207840, Note_on_c, 0, 83, 0
2, 207840, Note_on_c, 0, 81, 101
2, 207960, Note_on_c, 0, 81, 0
2, 207960, Note_on_c, 0, 83, 101
2, 208080, Note_on_c, 0, 83, 0
2, 208080, Note_on_c, 0, 81, 101
2, 208200, Note_on_c, 0, 81, 0
2, 208200, Note_on_c, 0, 79, 101
2, 208320, Note_on_c, 0, 79, 0
2, 208320, Note_on_c, 0, 78, 101
2, 208440, Note_on_c, 0, 78, 0
2, 208440, Note_on_c, 0, 76, 101
2, 208560, Note_on_c, 0, 76, 0
2, 208560, Note_on_c, 0, 74, 101
2, 208680, Note_on_c, 0, 74, 0
2, 208680, Note_on_c, 0, 76, 101
2, 208800, Note_on_c, 0, 76, 0
2, 208800, Note_on_c, 0, 78, 101
2, 208920, Note_on_c, 0, 78, 0
2, 208920, Note_on_c, 0, 76, 101
2, 209040, Note_on_c, 0, 76, 0
2, 209040, Note_on_c, 0, 78, 101
2, 209160, Note_on_c, 0, 78, 0
2, 209160, Note_on_c, 0, 79, 101
2, 209280, Note_on_c, 0, 79, 0
2, 209280, Note_on_c, 0, 81, 101
2, 209400, Note_on_c, 0, 81, 0
2, 209400, Note_on_c, 0, 79, 101
2, 209520, Note_on_c, 0, 79, 0
2, 209520, Note_on_c, 0, 78, 101
2, 209640, Note_on_c, 0, 78, 0
2, 209640, Note_on_c, 0, 79, 101
2, 209760, Note_on_c, 0, 79, 0
2, 209760, Note_on_c, 0, 81, 101
2, 209880, Note_on_c, 0, 81, 0
2, 209880, Note_on_c, 0, 83, 101
2, 210000, Note_on_c, 0, 83, 0
2, 210000, Note_on_c, 0, 81, 101
2, 210000, Note_on_c, 0, 85, 101
2, 210120, Note_on_c, 0, 85, 0
2, 210120, Note_on_c, 0, 81, 0
2, 210120, Note_on_c, 0, 83, 101
2, 210120, Note_on_c, 0, 86, 101
2, 210240, Note_on_c, 0, 86, 0
2, 210240, Note_on_c, 0, 83, 0
2, 210240, Note_on_c, 0, 76, 101
2, 210240, Note_on_c, 0, 81, 101
2, 210240, Note_on_c, 0, 85, 101
2, 210240, Note_on_c, 0, 88, 101
2, 210480, Note_on_c, 0, 88, 0
2, 210480, Note_on_c, 0, 76, 0
2, 210480, Note_on_c, 0, 81, 0
2, 210480, Note_on_c, 0, 85, 0
2, 210480, Note_on_c, 0, 78, 101
2, 210480, Note_on_c, 0, 81, 101
2, 210480, Note_on_c, 0, 86, 101
2, 210480, Note_on_c, 0, 90, 101
2, 210720, Note_on_c, 0, 90, 0
2, 210720, Note_on_c, 0, 78, 0
2, 210720, Note_on_c, 0, 81, 0
2, 210720, Note_on_c, 0, 86, 0
2, 210720, Note_on_c, 0, 76, 101
2, 210720, Note_on_c, 0, 81, 101
2, 210720, Note_on_c, 0, 85, 101
2, 210720, Note_on_c, 0, 88, 101
2, 210960, Note_on_c, 0, 88, 0
2, 210960, Note_on_c, 0, 76, 0
2, 210960, Note_on_c, 0, 81, 0
2, 210960, Note_on_c, 0, 85, 0
2, 210960, Note_on_c, 0, 81, 101
2, 211200, Note_on_c, 0, 81, 0
2, 211200, Note_on_c, 0, 74, 101
2, 211200, Note_on_c, 0, 78, 101
2, 211200, Note_on_c, 0, 86, 101
2, 211680, Note_on_c, 0, 86, 0
2, 211680, Note_on_c, 0, 78, 0
2, 211680, Note_on_c, 0, 74, 0
2, 211680, Note_on_c, 0, 74, 101
2, 211680, Note_on_c, 0, 79, 101
2, 211680, Note_on_c, 0, 86, 101
2, 212160, Note_on_c, 0, 86, 0
2, 212160, Note_on_c, 0, 79, 0
2, 212160, Note_on_c, 0, 74, 0
2, 212160, Note_on_c, 0, 74, 101
2, 212160, Note_on_c, 0, 80, 101
2, 212160, Note_on_c, 0, 86, 101
2, 212640, Note_on_c, 0, 86, 0
2, 212640, Note_on_c, 0, 80, 0
2, 212640, Note_on_c, 0, 74, 0
2, 212640, Note_on_c, 0, 74, 101
2, 212640, Note_on_c, 0, 81, 101
2, 212640, Note_on_c, 0, 86, 101
2, 213120, Note_on_c, 0, 86, 0
2, 213120, Note_on_c, 0, 81, 0
2, 213120, Note_on_c, 0, 74, 0
2, 213120, Note_on_c, 0, 74, 101
2, 213120, Note_on_c, 0, 79, 101
2, 213120, Note_on_c, 0, 82, 101
2, 213120, Note_on_c, 0, 86, 101
2, 213600, Note_on_c, 0, 86, 0
2, 213600, Note_on_c, 0, 74, 0
2, 213600, Note_on_c, 0, 79, 0
2, 213600, Note_on_c, 0, 82, 0
2, 213600, Note_on_c, 0, 77, 101
2, 213600, Note_on_c, 0, 83, 101
2, 213600, Note_on_c, 0, 86, 101
2, 213720, Note_on_c, 0, 86, 0
2, 213720, Note_on_c, 0, 83, 0
2, 213720, Note_on_c, 0, 77, 0
2, 213720, Note_on_c, 0, 85, 101
2, 213840, Note_on_c, 0, 85, 0
2, 213840, Note_on_c, 0, 86, 101
2, 213960, Note_on_c, 0, 86, 0
2, 213960, Note_on_c, 0, 88, 101
2, 214080, Note_on_c, 0, 88, 0
2, 214080, Note_on_c, 0, 78, 101
2, 214080, Note_on_c, 0, 81, 101
2, 214080, Note_on_c, 0, 86, 101
2, 214080, Note_on_c, 0, 90, 101
2, 214320, Note_on_c, 0, 90, 0
2, 214320, Note_on_c, 0, 78, 0
2, 214320, Note_on_c, 0, 81, 0
2, 214320, Note_on_c, 0, 86, 0
2, 214320, Note_on_c, 0, 76, 101
2, 214320, Note_on_c, 0, 81, 101
2, 214320, Note_on_c, 0, 85, 101
2, 214320, Note_on_c, 0, 88, 101
2, 214560, Note_on_c, 0, 88, 0
2, 214560, Note_on_c, 0, 76, 0
2, 214560, Note_on_c, 0, 81, 0
2, 214560, Note_on_c, 0, 85, 0
2, 214560, Note_on_c, 0, 74, 101
2, 214560, Note_on_c, 0, 78, 101
2, 214560, Note_on_c, 0, 81, 101
2, 214560, Note_on_c, 0, 86, 101
2, 214800, Note_on_c, 0, 86, 0
2, 214800, Note_on_c, 0, 74, 0
2, 214800, Note_on_c, 0, 78, 0
2, 214800, Note_on_c, 0, 81, 0
2, 214800, Note_on_c, 0, 81, 101
2, 215040, Note_on_c, 0, 81, 0
2, 215040, Note_on_c, 0, 74, 101
2, 215040, Note_on_c, 0, 78, 101
2, 215040, Note_on_c, 0, 81, 101
2, 215040, Note_on_c, 0, 86, 101
2, 215280, Note_on_c, 0, 86, 0
2, 215280, Note_on_c, 0, 74, 0
2, 215280, Note_on_c, 0, 78, 0
2, 215280, Note_on_c, 0, 81, 0
2, 215280, Note_on_c, 0, 85, 101
2, 215400, Note_on_c, 0, 85, 0
2, 215400, Note_on_c, 0, 83, 101
2, 215520, Note_on_c, 0, 83, 0
2, 215520, Note_on_c, 0, 81, 101
2, 215640, Note_on_c, 0, 81, 0
2, 215640, Note_on_c, 0, 83, 101
2, 215760, Note_on_c, 0, 83, 0
2, 215760, Note_on_c, 0, 81, 101
2, 215880, Note_on_c, 0, 81, 0
2, 215880, Note_on_c, 0, 79, 101
2, 216000, Note_on_c, 0, 79, 0
2, 216000, Note_on_c, 0, 78, 101
2, 216120, Note_on_c, 0, 78, 0
2, 216120, Note_on_c, 0, 76, 101
2, 216240, Note_on_c, 0, 76, 0
2, 216240, Note_on_c, 0, 74, 101
2, 216360, Note_on_c, 0, 74, 0
2, 216360, Note_on_c, 0, 76, 101
2, 216480, Note_on_c, 0, 76, 0
2, 216480, Note_on_c, 0, 78, 101
2, 216600, Note_on_c, 0, 78, 0
2, 216600, Note_on_c, 0, 76, 101
2, 216720, Note_on_c, 0, 76, 0
2, 216720, Note_on_c, 0, 78, 101
2, 216840, Note_on_c, 0, 78, 0
2, 216840, Note_on_c, 0, 79, 101
2, 216960, Note_on_c, 0, 79, 0
2, 216960, Note_on_c, 0, 81, 101
2, 217080, Note_on_c, 0, 81, 0
2, 217080, Note_on_c, 0, 79, 101
2, 217200, Note_on_c, 0, 79, 0
2, 217200, Note_on_c, 0, 78, 101
2, 217320, Note_on_c, 0, 78, 0
2, 217320, Note_on_c, 0, 79, 101
2, 217440, Note_on_c, 0, 79, 0
2, 217440, Note_on_c, 0, 81, 101
2, 217560, Note_on_c, 0, 81, 0
2, 217560, Note_on_c, 0, 83, 101
2, 217680, Note_on_c, 0, 83, 0
2, 217680, Note_on_c, 0, 81, 101
2, 217680, Note_on_c, 0, 85, 101
2, 217800, Note_on_c, 0, 85, 0
2, 217800, Note_on_c, 0, 81, 0
2, 217800, Note_on_c, 0, 83, 101
2, 217800, Note_on_c, 0, 86, 101
2, 217920, Note_on_c, 0, 86, 0
2, 217920, Note_on_c, 0, 83, 0
2, 217920, Note_on_c, 0, 81, 101
2, 217920, Note_on_c, 0, 85, 101
2, 217920, Note_on_c, 0, 88, 101
2, 218160, Note_on_c, 0, 88, 0
2, 218160, Note_on_c, 0, 85, 0
2, 218160, Note_on_c, 0, 81, 0
2, 218160, Note_on_c, 0, 79, 101
2, 218160, Note_on_c, 0, 81, 101
2, 218160, Note_on_c, 0, 85, 101
2, 218160, Note_on_c, 0, 90, 101
2, 218400, Note_on_c, 0, 90, 0
2, 218400, Note_on_c, 0, 79, 0
2, 218400, Note_on_c, 0, 81, 0
2, 218400, Note_on_c, 0, 85, 0
2, 218400, Note_on_c, 0, 78, 101
2, 218400, Note_on_c, 0, 81, 101
2, 218400, Note_on_c, 0, 86, 101
2, 218640, Note_on_c, 0, 86, 0
2, 218640, Note_on_c, 0, 81, 0
2, 218640, Note_on_c, 0, 78, 0
2, 218880, Note_on_c, 0, 71, 75
2, 218880, Note_on_c, 0, 74, 75
2, 219120, Note_on_c, 0, 74, 0
2, 219120, Note_on_c, 0, 71, 0
2, 219120, Note_on_c, 0, 71, 75
2, 219120, Note_on_c, 0, 74, 75
2, 219360, Note_on_c, 0, 74, 0
2, 219360, Note_on_c, 0, 71, 0
2, 219360, Note_on_c, 0, 71, 75
2, 219360, Note_on_c, 0, 74, 75
2, 219840, Note_on_c, 0, 74, 0
2, 219840, Note_on_c, 0, 71, 0
2, 219840, Note_on_c, 0, 66, 75
2, 219840, Note_on_c, 0, 73, 75
2, 220080, Note_on_c, 0, 73, 0
2, 220080, Note_on_c, 0, 66, 0
2, 220080, Note_on_c, 0, 66, 75
2, 220080, Note_on_c, 0, 73, 75
2, 220320, Note_on_c, 0, 73, 0
2, 220320, Note_on_c, 0, 66, 0
2, 220320, Note_on_c, 0, 66, 75
2, 220320, Note_on_c, 0, 73, 75
2, 220800, Note_on_c, 0, 73, 0
2, 220800, Note_on_c, 0, 66, 0
2, 220800, Note_on_c, 0, 62, 75
2, 220800, Note_on_c, 0, 71, 75
2, 221040, Note_on_c, 0, 71, 0
2, 221040, Note_on_c, 0, 62, 0
2, 221040, Note_on_c, 0, 62, 75
2, 221040, Note_on_c, 0, 71, 75
2, 221280, Note_on_c, 0, 71, 0
2, 221280, Note_on_c, 0, 62, 0
2, 221280, Note_on_c, 0, 62, 75
2, 221280, Note_on_c, 0, 71, 75
2, 221760, Note_on_c, 0, 71, 0
2, 221760, Note_on_c, 0, 62, 0
2, 221760, Note_on_c, 0, 61, 101
2, 221760, Note_on_c, 0, 64, 101
2, 221760, Note_on_c, 0, 66, 101
2, 222240, Note_on_c, 0, 66, 0
2, 222240, Note_on_c, 0, 64, 0
2, 222240, Note_on_c, 0, 61, 0
2, 222240, Note_on_c, 0, 62, 75
2, 222240, Note_on_c, 0, 66, 75
2, 222240, Note_on_c, 0, 71, 75
2, 222480, Note_on_c, 0, 71, 0
2, 222480, Note_on_c, 0, 66, 0
2, 222480, Note_on_c, 0, 62, 0
2, 222480, Note_on_c, 0, 66, 75
2, 222480, Note_on_c, 0, 70, 75
2, 222480, Note_on_c, 0, 73, 75
2, 222720, Note_on_c, 0, 73, 0
2, 222720, Note_on_c, 0, 70, 0
2, 222720, Note_on_c, 0, 66, 0
2, 222720, Note_on_c, 0, 71, 75
2, 222720, Note_on_c, 0, 74, 75
2, 223200, Note_on_c, 0, 74, 0
2, 223200, Note_on_c, 0, 71, 0
2, 223200, Note_on_c, 0, 71, 75
2, 223200, Note_on_c, 0, 74, 75
2, 223680, Note_on_c, 0, 74, 0
2, 223680, Note_on_c, 0, 71, 0
2, 223680, Note_on_c, 0, 73, 101
2, 223680, Note_on_c, 0, 76, 101
2, 224160, Note_on_c, 0, 76, 0
2, 224160, Note_on_c, 0, 73, 0
2, 224160, Note_on_c, 0, 70, 75
2, 224160, Note_on_c, 0, 73, 75
2, 224400, Note_on_c, 0, 73, 0
2, 224400, Note_on_c, 0, 70, 0
2, 224400, Note_on_c, 0, 71, 75
2, 224400, Note_on_c, 0, 74, 75
2, 224640, Note_on_c, 0, 74, 0
2, 224640, Note_on_c, 0, 71, 0
2, 224640, Note_on_c, 0, 73, 75
2, 224640, Note_on_c, 0, 76, 75
2, 225120, Note_on_c, 0, 76, 0
2, 225120, Note_on_c, 0, 73, 0
2, 225120, Note_on_c, 0, 73, 75
2, 225120, Note_on_c, 0, 76, 75
2, 225600, Note_on_c, 0, 76, 0
2, 225600, Note_on_c, 0, 73, 0
2, 225600, Note_on_c, 0, 74, 101
2, 225600, Note_on_c, 0, 78, 101
2, 226560, Note_on_c, 0, 78, 0
2, 226560, Note_on_c, 0, 74, 0
2, 226560, Note_on_c, 0, 71, 75
2, 226560, Note_on_c, 0, 74, 75
2, 226800, Note_on_c, 0, 74, 0
2, 226800, Note_on_c, 0, 71, 0
2, 226800, Note_on_c, 0, 71, 75
2, 226800, Note_on_c, 0, 74, 75
2, 227040, Note_on_c, 0, 74, 0
2, 227040, Note_on_c, 0, 71, 0
2, 227040, Note_on_c, 0, 71, 75
2, 227040, Note_on_c, 0, 74, 75
2, 227520, Note_on_c, 0, 74, 0
2, 227520, Note_on_c, 0, 71, 0
2, 227520, Note_on_c, 0, 66, 75
2, 227520, Note_on_c, 0, 73, 75
2, 227760, Note_on_c, 0, 73, 0
2, 227760, Note_on_c, 0, 66, 0
2, 227760, Note_on_c, 0, 66, 75
2, 227760, Note_on_c, 0, 73, 75
2, 228000, Note_on_c, 0, 73, 0
2, 228000, Note_on_c, 0, 66, 0
2, 228000, Note_on_c, 0, 66, 75
2, 228000, Note_on_c, 0, 73, 75
2, 228480, Note_on_c, 0, 73, 0
2, 228480, Note_on_c, 0, 66, 0
2, 228480, Note_on_c, 0, 62, 75
2, 228480, Note_on_c, 0, 71, 75
2, 228720, Note_on_c, 0, 71, 0
2, 228720, Note_on_c, 0, 62, 0
2, 228720, Note_on_c, 0, 62, 75
2, 228720, Note_on_c, 0, 71, 75
2, 228960, Note_on_c, 0, 71, 0
2, 228960, Note_on_c, 0, 62, 0
2, 228960, Note_on_c, 0, 62, 75
2, 228960, Note_on_c, 0, 71, 75
2, 229440, Note_on_c, 0, 71, 0
2, 229440, Note_on_c, 0, 62, 0
2, 229440, Note_on_c, 0, 61, 101
2, 229440, Note_on_c, 0, 64, 101
2, 229440, Note_on_c, 0, 66, 101
2, 229920, Note_on_c, 0, 66, 0
2, 229920, Note_on_c, 0, 64, 0
2, 229920, Note_on_c, 0, 61, 0
2, 229920, Note_on_c, 0, 62, 75
2, 229920, Note_on_c, 0, 66, 75
2, 229920, Note_on_c, 0, 71, 75
2, 230160, Note_on_c, 0, 71, 0
2, 230160, Note_on_c, 0, 66, 0
2, 230160, Note_on_c, 0, 62, 0
2, 230160, Note_on_c, 0, 66, 75
2, 230160, Note_on_c, 0, 70, 75
2, 230160, Note_on_c, 0, 73, 75
2, 230400, Note_on_c, 0, 73, 0
2, 230400, Note_on_c, 0, 70, 0
2, 230400, Note_on_c, 0, 66, 0
2, 230400, Note_on_c, 0, 71, 75
2, 230400, Note_on_c, 0, 74, 75
2, 230880, Note_on_c, 0, 74, 0
2, 230880, Note_on_c, 0, 71, 0
2, 230880, Note_on_c, 0, 71, 75
2, 230880, Note_on_c, 0, 74, 75
2, 231360, Note_on_c, 0, 74, 0
2, 231360, Note_on_c, 0, 71, 0
2, 231360, Note_on_c, 0, 73, 75
2, 231360, Note_on_c, 0, 76, 75
2, 231600, Note_on_c, 0, 76, 0
2, 231600, Note_on_c, 0, 73, 0
2, 231600, Note_on_c, 0, 70, 75
2, 231600, Note_on_c, 0, 73, 75
2, 231840, Note_on_c, 0, 73, 0
2, 231840, Note_on_c, 0, 70, 0
2, 231840, Note_on_c, 0, 74, 75
2, 231840, Note_on_c, 0, 78, 75
2, 232080, Note_on_c, 0, 78, 0
2, 232080, Note_on_c, 0, 74, 0
2, 232080, Note_on_c, 0, 73, 75
2, 232080, Note_on_c, 0, 76, 75
2, 232320, Note_on_c, 0, 76, 0
2, 232320, Note_on_c, 0, 73, 0
2, 232320, Note_on_c, 0, 71, 75
2, 232320, Note_on_c, 0, 74, 75
2, 232800, Note_on_c, 0, 74, 0
2, 232800, Note_on_c, 0, 71, 0
2, 232800, Note_on_c, 0, 66, 75
2, 232800, Note_on_c, 0, 70, 75
2, 232800, Note_on_c, 0, 73, 75
2, 233280, Note_on_c, 0, 73, 0
2, 233280, Note_on_c, 0, 70, 0
2, 233280, Note_on_c, 0, 66, 0
2, 233280, Note_on_c, 0, 66, 75
2, 233280, Note_on_c, 0, 71, 75
2, 233760, Note_on_c, 0, 71, 0
2, 233760, Note_on_c, 0, 66, 0
2, 234240, Note_on_c, 0, 74, 88
2, 234240, Note_on_c, 0, 83, 88
2, 234240, Note_on_c, 0, 86, 88
2, 234480, Note_on_c, 0, 86, 0
2, 234480, Note_on_c, 0, 83, 0
2, 234480, Note_on_c, 0, 74, 0
2, 234480, Note_on_c, 0, 74, 88
2, 234480, Note_on_c, 0, 83, 88
2, 234480, Note_on_c, 0, 86, 88
2, 234720, Note_on_c, 0, 86, 0
2, 234720, Note_on_c, 0, 83, 0
2, 234720, Note_on_c, 0, 74, 0
2, 234720, Note_on_c, 0, 74, 88
2, 234720, Note_on_c, 0, 83, 88
2, 234720, Note_on_c, 0, 86, 88
2, 235200, Note_on_c, 0, 86, 0
2, 235200, Note_on_c, 0, 83, 0
2, 235200, Note_on_c, 0, 74, 0
2, 235200, Note_on_c, 0, 73, 88
2, 235200, Note_on_c, 0, 78, 88
2, 235200, Note_on_c, 0, 85, 88
2, 235440, Note_on_c, 0, 85, 0
2, 235440, Note_on_c, 0, 78, 0
2, 235440, Note_on_c, 0, 73, 0
2, 235440, Note_on_c, 0, 73, 88
2, 235440, Note_on_c, 0, 78, 88
2, 235440, Note_on_c, 0, 85, 88
2, 235680, Note_on_c, 0, 85, 0
2, 235680, Note_on_c, 0, 78, 0
2, 235680, Note_on_c, 0, 73, 0
2, 235680, Note_on_c, 0, 73, 88
2, 235680, Note_on_c, 0, 78, 88
2, 235680, Note_on_c, 0, 85, 88
2, 236160, Note_on_c, 0, 85, 0
2, 236160, Note_on_c, 0, 78, 0
2, 236160, Note_on_c, 0, 73, 0
2, 236160, Note_on_c, 0, 71, 88
2, 236160, Note_on_c, 0, 74, 88
2, 236160, Note_on_c, 0, 83, 88
2, 236400, Note_on_c, 0, 83, 0
2, 236400, Note_on_c, 0, 74, 0
2, 236400, Note_on_c, 0, 71, 0
2, 236400, Note_on_c, 0, 71, 88
2, 236400, Note_on_c, 0, 74, 88
2, 236400, Note_on_c, 0, 83, 88
2, 236640, Note_on_c, 0, 83, 0
2, 236640, Note_on_c, 0, 74, 0
2, 236640, Note_on_c, 0, 71, 0
2, 236640, Note_on_c, 0, 71, 88
2, 236640, Note_on_c, 0, 78, 88
2, 236640, Note_on_c, 0, 83, 88
2, 237120, Note_on_c, 0, 83, 0
2, 237120, Note_on_c, 0, 78, 0
2, 237120, Note_on_c, 0, 71, 0
2, 237120, Note_on_c, 0, 66, 88
2, 237120, Note_on_c, 0, 76, 88
2, 237120, Note_on_c, 0, 78, 88
2, 237600, Note_on_c, 0, 78, 0
2, 237600, Note_on_c, 0, 76, 0
2, 237600, Note_on_c, 0, 66, 0
2, 237600, Note_on_c, 0, 71, 88
2, 237600, Note_on_c, 0, 74, 88
2, 237600, Note_on_c, 0, 83, 88
2, 237840, Note_on_c, 0, 83, 0
2, 237840, Note_on_c, 0, 74, 0
2, 237840, Note_on_c, 0, 71, 0
2, 237840, Note_on_c, 0, 73, 88
2, 237840, Note_on_c, 0, 78, 88
2, 237840, Note_on_c, 0, 85, 88
2, 238080, Note_on_c, 0, 85, 0
2, 238080, Note_on_c, 0, 78, 0
2, 238080, Note_on_c, 0, 73, 0
2, 238080, Note_on_c, 0, 74, 88
2, 238080, Note_on_c, 0, 83, 88
2, 238080, Note_on_c, 0, 86, 88
2, 238560, Note_on_c, 0, 86, 0
2, 238560, Note_on_c, 0, 83, 0
2, 238560, Note_on_c, 0, 74, 0
2, 238560, Note_on_c, 0, 74, 88
2, 238560, Note_on_c, 0, 83, 88
2, 238560, Note_on_c, 0, 86, 88
2, 239040, Note_on_c, 0, 86, 0
2, 239040, Note_on_c, 0, 83, 0
2, 239040, Note_on_c, 0, 74, 0
2, 239040, Note_on_c, 0, 76, 88
2, 239040, Note_on_c, 0, 85, 88
2, 239040, Note_on_c, 0, 88, 88
2, 239520, Note_on_c, 0, 88, 0
2, 239520, Note_on_c, 0, 85, 0
2, 239520, Note_on_c, 0, 76, 0
2, 239520, Note_on_c, 0, 73, 88
2, 239520, Note_on_c, 0, 82, 88
2, 239520, Note_on_c, 0, 85, 88
2, 239760, Note_on_c, 0, 85, 0
2, 239760, Note_on_c, 0, 82, 0
2, 239760, Note_on_c, 0, 73, 0
2, 239760, Note_on_c, 0, 74, 88
2, 239760, Note_on_c, 0, 83, 88
2, 239760, Note_on_c, 0, 86, 88
2, 240000, Note_on_c, 0, 86, 0
2, 240000, Note_on_c, 0, 83, 0
2, 240000, Note_on_c, 0, 74, 0
2, 240000, Note_on_c, 0, 76, 88
2, 240000, Note_on_c, 0, 85, 88
2, 240000, Note_on_c, 0, 88, 88
2, 240480, Note_on_c, 0, 88, 0
2, 240480, Note_on_c, 0, 85, 0
2, 240480, Note_on_c, 0, 76, 0
2, 240480, Note_on_c, 0, 76, 88
2, 240480, Note_on_c, 0, 85, 88
2, 240480, Note_on_c, 0, 88, 88
2, 240960, Note_on_c, 0, 88, 0
2, 240960, Note_on_c, 0, 85, 0
2, 240960, Note_on_c, 0, 76, 0
2, 240960, Note_on_c, 0, 78, 88
2, 240960, Note_on_c, 0, 86, 88
2, 240960, Note_on_c, 0, 90, 88
2, 241920, Note_on_c, 0, 90, 0
2, 241920, Note_on_c, 0, 86, 0
2, 241920, Note_on_c, 0, 78, 0
2, 241920, Note_on_c, 0, 74, 88
2, 241920, Note_on_c, 0, 83, 88
2, 241920, Note_on_c, 0, 86, 88
2, 242160, Note_on_c, 0, 86, 0
2, 242160, Note_on_c, 0, 83, 0
2, 242160, Note_on_c, 0, 74, 0
2, 242160, Note_on_c, 0, 74, 88
2, 242160, Note_on_c, 0, 83, 88
2, 242160, Note_on_c, 0, 86, 88
2, 242400, Note_on_c, 0, 86, 0
2, 242400, Note_on_c, 0, 83, 0
2, 242400, Note_on_c, 0, 74, 0
2, 242400, Note_on_c, 0, 74, 88
2, 242400, Note_on_c, 0, 83, 88
2, 242400, Note_on_c, 0, 86, 88
2, 242880, Note_on_c, 0, 86, 0
2, 242880, Note_on_c, 0, 83, 0
2, 242880, Note_on_c, 0, 74, 0
2, 242880, Note_on_c, 0, 73, 88
2, 242880, Note_on_c, 0, 78, 88
2, 242880, Note_on_c, 0, 85, 88
2, 243120, Note_on_c, 0, 85, 0
2, 243120, Note_on_c, 0, 78, 0
2, 243120, Note_on_c, 0, 73, 0
2, 243120, Note_on_c, 0, 73, 88
2, 243120, Note_on_c, 0, 78, 88
2, 243120, Note_on_c, 0, 85, 88
2, 243360, Note_on_c, 0, 85, 0
2, 243360, Note_on_c, 0, 78, 0
2, 243360, Note_on_c, 0, 73, 0
2, 243360, Note_on_c, 0, 73, 88
2, 243360, Note_on_c, 0, 78, 88
2, 243360, Note_on_c, 0, 85, 88
2, 243840, Note_on_c, 0, 85, 0
2, 243840, Note_on_c, 0, 78, 0
2, 243840, Note_on_c, 0, 73, 0
2, 243840, Note_on_c, 0, 71, 88
2, 243840, Note_on_c, 0, 74, 88
2, 243840, Note_on_c, 0, 83, 88
2, 244080, Note_on_c, 0, 83, 0
2, 244080, Note_on_c, 0, 74, 0
2, 244080, Note_on_c, 0, 71, 0
2, 244080, Note_on_c, 0, 71, 88
2, 244080, Note_on_c, 0, 74, 88
2, 244080, Note_on_c, 0, 83, 88
2, 244320, Note_on_c, 0, 83, 0
2, 244320, Note_on_c, 0, 74, 0
2, 244320, Note_on_c, 0, 71, 0
2, 244320, Note_on_c, 0, 71, 88
2, 244320, Note_on_c, 0, 78, 88
2, 244320, Note_on_c, 0, 83, 88
2, 244800, Note_on_c, 0, 83, 0
2, 244800, Note_on_c, 0, 78, 0
2, 244800, Note_on_c, 0, 71, 0
2, 244800, Note_on_c, 0, 66, 88
2, 244800, Note_on_c, 0, 76, 88
2, 244800, Note_on_c, 0, 78, 88
2, 245280, Note_on_c, 0, 78, 0
2, 245280, Note_on_c, 0, 76, 0
2, 245280, Note_on_c, 0, 66, 0
2, 245280, Note_on_c, 0, 71, 88
2, 245280, Note_on_c, 0, 74, 88
2, 245280, Note_on_c, 0, 83, 88
2, 245520, Note_on_c, 0, 83, 0
2, 245520, Note_on_c, 0, 74, 0
2, 245520, Note_on_c, 0, 71, 0
2, 245520, Note_on_c, 0, 73, 88
2, 245520, Note_on_c, 0, 78, 88
2, 245520, Note_on_c, 0, 85, 88
2, 245760, Note_on_c, 0, 85, 0
2, 245760, Note_on_c, 0, 78, 0
2, 245760, Note_on_c, 0, 73, 0
2, 245760, Note_on_c, 0, 74, 88
2, 245760, Note_on_c, 0, 83, 88
2, 245760, Note_on_c, 0, 86, 88
2, 246240, Note_on_c, 0, 86, 0
2, 246240, Note_on_c, 0, 83, 0
2, 246240, Note_on_c, 0, 74, 0
2, 246240, Note_on_c, 0, 74, 88
2, 246240, Note_on_c, 0, 83, 88
2, 246240, Note_on_c, 0, 86, 88
2, 246720, Note_on_c, 0, 86, 0
2, 246720, Note_on_c, 0, 83, 0
2, 246720, Note_on_c, 0, 74, 0
2, 246720, Note_on_c, 0, 76, 88
2, 246720, Note_on_c, 0, 85, 88
2, 246720, Note_on_c, 0, 88, 88
2, 246960, Note_on_c, 0, 88, 0
2, 246960, Note_on_c, 0, 85, 0
2, 246960, Note_on_c, 0, 76, 0
2, 246960, Note_on_c, 0, 73, 88
2, 246960, Note_on_c, 0, 82, 88
2, 246960, Note_on_c, 0, 85, 88
2, 247200, Note_on_c, 0, 85, 0
2, 247200, Note_on_c, 0, 82, 0
2, 247200, Note_on_c, 0, 73, 0
2, 247200, Note_on_c, 0, 78, 88
2, 247200, Note_on_c, 0, 86, 88
2, 247200, Note_on_c, 0, 90, 88
2, 247440, Note_on_c, 0, 90, 0
2, 247440, Note_on_c, 0, 86, 0
2, 247440, Note_on_c, 0, 78, 0
2, 247440, Note_on_c, 0, 76, 88
2, 247440, Note_on_c, 0, 85, 88
2, 247440, Note_on_c, 0, 88, 88
2, 247680, Note_on_c, 0, 88, 0
2, 247680, Note_on_c, 0, 85, 0
2, 247680, Note_on_c, 0, 76, 0
2, 247680, Note_on_c, 0, 74, 88
2, 247680, Note_on_c, 0, 83, 88
2, 247680, Note_on_c, 0, 86, 88
2, 248160, Note_on_c, 0, 86, 0
2, 248160, Note_on_c, 0, 83, 0
2, 248160, Note_on_c, 0, 74, 0
2, 248160, Note_on_c, 0, 73, 88
2, 248160, Note_on_c, 0, 78, 88
2, 248160, Note_on_c, 0, 85, 88
2, 248640, Note_on_c, 0, 85, 0
2, 248640, Note_on_c, 0, 78, 0
2, 248640, Note_on_c, 0, 73, 0
2, 248640, Note_on_c, 0, 71, 88
2, 248640, Note_on_c, 0, 78, 88
2, 248640, Note_on_c, 0, 83, 88
2, 248687, Note_on_c, 0, 83, 0
2, 248687, Note_on_c, 0, 78, 0
2, 248687, Note_on_c, 0, 71, 0
2, 248880, Note_on_c, 0, 71, 62
2, 248927, Note_on_c, 0, 71, 0
2, 249120, Note_on_c, 0, 73, 62
2, 249167, Note_on_c, 0, 73, 0
2, 249360, Note_on_c, 0, 74, 62
2, 249407, Note_on_c, 0, 74, 0
2, 249600, Note_on_c, 0, 76, 62
2, 249623, Note_on_c, 0, 76, 0
2, 249720, Note_on_c, 0, 73, 62
2, 249743, Note_on_c, 0, 73, 0
2, 249840, Note_on_c, 0, 76, 62
2, 249887, Note_on_c, 0, 76, 0
2, 250080, Note_on_c, 0, 78, 62
2, 250103, Note_on_c, 0, 78, 0
2, 250200, Note_on_c, 0, 69, 62
2, 250223, Note_on_c, 0, 69, 0
2, 250320, Note_on_c, 0, 78, 62
2, 250367, Note_on_c, 0, 78, 0
2, 250560, Note_on_c, 0, 74, 62
2, 250583, Note_on_c, 0, 74, 0
2, 250680, Note_on_c, 0, 69, 62
2, 250703, Note_on_c, 0, 69, 0
2, 250800, Note_on_c, 0, 74, 62
2, 250847, Note_on_c, 0, 74, 0
2, 251040, Note_on_c, 0, 69, 62
2, 251040, Note_on_c, 0, 73, 62
2, 251087, Note_on_c, 0, 73, 0
2, 251087, Note_on_c, 0, 69, 0
2, 251280, Note_on_c, 0, 69, 62
2, 251280, Note_on_c, 0, 71, 62
2, 251327, Note_on_c, 0, 71, 0
2, 251327, Note_on_c, 0, 69, 0
2, 251520, Note_on_c, 0, 69, 62
2, 251543, Note_on_c, 0, 69, 0
2, 251640, Note_on_c, 0, 69, 62
2, 251663, Note_on_c, 0, 69, 0
2, 251760, Note_on_c, 0, 69, 62
2, 251807, Note_on_c, 0, 69, 0
2, 252000, Note_on_c, 0, 67, 62
2, 252000, Note_on_c, 0, 71, 62
2, 252047, Note_on_c, 0, 71, 0
2, 252047, Note_on_c, 0, 67, 0
2, 252240, Note_on_c, 0, 64, 62
2, 252240, Note_on_c, 0, 73, 62
2, 252287, Note_on_c, 0, 73, 0
2, 252287, Note_on_c, 0, 64, 0
2, 252480, Note_on_c, 0, 66, 62
2, 252480, Note_on_c, 0, 69, 62
2, 252600, Note_on_c, 0, 69, 0
2, 252600, Note_on_c, 0, 66, 0
2, 252600, Note_on_c, 0, 67, 62
2, 252720, Note_on_c, 0, 67, 0
2, 252720, Note_on_c, 0, 66, 62
2, 252840, Note_on_c, 0, 66, 0
2, 252840, Note_on_c, 0, 67, 62
2, 252960, Note_on_c, 0, 67, 0
2, 252960, Note_on_c, 0, 69, 62
2, 253080, Note_on_c, 0, 69, 0
2, 253080, Note_on_c, 0, 71, 62
2, 253200, Note_on_c, 0, 71, 0
2, 253200, Note_on_c, 0, 73, 62
2, 253320, Note_on_c, 0, 73, 0
2, 253320, Note_on_c, 0, 74, 62
2, 253440, Note_on_c, 0, 74, 0
2, 253440, Note_on_c, 0, 76, 62
2, 253463, Note_on_c, 0, 76, 0
2, 253560, Note_on_c, 0, 73, 62
2, 253583, Note_on_c, 0, 73, 0
2, 253680, Note_on_c, 0, 76, 62
2, 253727, Note_on_c, 0, 76, 0
2, 253920, Note_on_c, 0, 78, 62
2, 253943, Note_on_c, 0, 78, 0
2, 254040, Note_on_c, 0, 69, 62
2, 254063, Note_on_c, 0, 69, 0
2, 254160, Note_on_c, 0, 78, 62
2, 254207, Note_on_c, 0, 78, 0
2, 254400, Note_on_c, 0, 74, 62
2, 254423, Note_on_c, 0, 74, 0
2, 254520, Note_on_c, 0, 69, 62
2, 254543, Note_on_c, 0, 69, 0
2, 254640, Note_on_c, 0, 74, 62
2, 254687, Note_on_c, 0, 74, 0
2, 254880, Note_on_c, 0, 69, 62
2, 254880, Note_on_c, 0, 73, 62
2, 254927, Note_on_c, 0, 73, 0
2, 254927, Note_on_c, 0, 69, 0
2, 255120, Note_on_c, 0, 69, 62
2, 255120, Note_on_c, 0, 71, 62
2, 255167, Note_on_c, 0, 71, 0
2, 255167, Note_on_c, 0, 69, 0
2, 255360, Note_on_c, 0, 69, 62
2, 255383, Note_on_c, 0, 69, 0
2, 255480, Note_on_c, 0, 69, 62
2, 255503, Note_on_c, 0, 69, 0
2, 255600, Note_on_c, 0, 69, 62
2, 255647, Note_on_c, 0, 69, 0
2, 255840, Note_on_c, 0, 67, 62
2, 255840, Note_on_c, 0, 71, 62
2, 255887, Note_on_c, 0, 71, 0
2, 255887, Note_on_c, 0, 67, 0
2, 256080, Note_on_c, 0, 64, 62
2, 256080, Note_on_c, 0, 73, 62
2, 256127, Note_on_c, 0, 73, 0
2, 256127, Note_on_c, 0, 64, 0
2, 256320, Note_on_c, 0, 66, 62
2, 256320, Note_on_c, 0, 69, 62
2, 256440, Note_on_c, 0, 69, 0
2, 256440, Note_on_c, 0, 66, 0
2, 256440, Note_on_c, 0, 67, 62
2, 256560, Note_on_c, 0, 67, 0
2, 256560, Note_on_c, 0, 66, 62
2, 256680, Note_on_c, 0, 66, 0
2, 256680, Note_on_c, 0, 67, 62
2, 256800, Note_on_c, 0, 67, 0
2, 256800, Note_on_c, 0, 69, 62
2, 256920, Note_on_c, 0, 69, 0
2, 256920, Note_on_c, 0, 71, 62
2, 257040, Note_on_c, 0, 71, 0
2, 257040, Note_on_c, 0, 73, 62
2, 257160, Note_on_c, 0, 73, 0
2, 257160, Note_on_c, 0, 74, 62
2, 257280, Note_on_c, 0, 74, 0
2, 257280, Note_on_c, 0, 76, 62
2, 257303, Note_on_c, 0, 76, 0
2, 257400, Note_on_c, 0, 73, 62
2, 257423, Note_on_c, 0, 73, 0
2, 257520, Note_on_c, 0, 76, 62
2, 257567, Note_on_c, 0, 76, 0
2, 257760, Note_on_c, 0, 78, 62
2, 257783, Note_on_c, 0, 78, 0
2, 257880, Note_on_c, 0, 69, 62
2, 257903, Note_on_c, 0, 69, 0
2, 258000, Note_on_c, 0, 78, 62
2, 258047, Note_on_c, 0, 78, 0
2, 258240, Note_on_c, 0, 74, 62
2, 258263, Note_on_c, 0, 74, 0
2, 258360, Note_on_c, 0, 69, 62
2, 258383, Note_on_c, 0, 69, 0
2, 258480, Note_on_c, 0, 74, 62
2, 258527, Note_on_c, 0, 74, 0
2, 258720, Note_on_c, 0, 69, 62
2, 258720, Note_on_c, 0, 73, 62
2, 258767, Note_on_c, 0, 73, 0
2, 258767, Note_on_c, 0, 69, 0
2, 258960, Note_on_c, 0, 69, 62
2, 258960, Note_on_c, 0, 71, 62
2, 259007, Note_on_c, 0, 71, 0
2, 259007, Note_on_c, 0, 69, 0
2, 259200, Note_on_c, 0, 69, 62
2, 259223, Note_on_c, 0, 69, 0
2, 259320, Note_on_c, 0, 69, 62
2, 259343, Note_on_c, 0, 69, 0
2, 259440, Note_on_c, 0, 69, 62
2, 259487, Note_on_c, 0, 69, 0
2, 259680, Note_on_c, 0, 67, 62
2, 259680, Note_on_c, 0, 71, 62
2, 259727, Note_on_c, 0, 71, 0
2, 259727, Note_on_c, 0, 67, 0
2, 259920, Note_on_c, 0, 64, 62
2, 259920, Note_on_c, 0, 73, 62
2, 259967, Note_on_c, 0, 73, 0
2, 259967, Note_on_c, 0, 64, 0
2, 260160, Note_on_c, 0, 66, 62
2, 260160, Note_on_c, 0, 69, 62
2, 260280, Note_on_c, 0, 69, 0
2, 260280, Note_on_c, 0, 66, 0
2, 260280, Note_on_c, 0, 67, 62
2, 260400, Note_on_c, 0, 67, 0
2, 260400, Note_on_c, 0, 66, 62
2, 260520, Note_on_c, 0, 66, 0
2, 260520, Note_on_c, 0, 67, 62
2, 260640, Note_on_c, 0, 67, 0
2, 260640, Note_on_c, 0, 69, 75
2, 260760, Note_on_c, 0, 69, 0
2, 260760, Note_on_c, 0, 71, 75
2, 260880, Note_on_c, 0, 71, 0
2, 260880, Note_on_c, 0, 73, 75
2, 261000, Note_on_c, 0, 73, 0
2, 261000, Note_on_c, 0, 74, 75
2, 261120, Note_on_c, 0, 74, 0
2, 261120, Note_on_c, 0, 76, 101
2, 261600, Note_on_c, 0, 76, 0
2, 261600, Note_on_c, 0, 78, 75
2, 262080, Note_on_c, 0, 78, 0
2, 262080, Note_on_c, 0, 76, 101
2, 262560, Note_on_c, 0, 76, 0
2, 262560, Note_on_c, 0, 78, 75
2, 263040, Note_on_c, 0, 78, 0
2, 263040, Note_on_c, 0, 76, 101
2, 263520, Note_on_c, 0, 76, 0
2, 263520, Note_on_c, 0, 78, 75
2, 264000, Note_on_c, 0, 78, 0
2, 264000, Note_on_c, 0, 79, 101
2, 264480, Note_on_c, 0, 79, 0
2, 264480, Note_on_c, 0, 80, 75
2, 264960, Note_on_c, 0, 80, 0
2, 264960, Note_on_c, 0, 81, 101
2, 265440, Note_on_c, 0, 81, 0
2, 265440, Note_on_c, 0, 82, 75
2, 265920, Note_on_c, 0, 82, 0
2, 265920, Note_on_c, 0, 83, 101
2, 266400, Note_on_c, 0, 83, 0
2, 266400, Note_on_c, 0, 85, 75
2, 266520, Note_on_c, 0, 85, 0
2, 266520, Note_on_c, 0, 82, 75
2, 266640, Note_on_c, 0, 82, 0
2, 266640, Note_on_c, 0, 83, 75
2, 266760, Note_on_c, 0, 83, 0
2, 266760, Note_on_c, 0, 85, 75
2, 266880, Note_on_c, 0, 85, 0
2, 266880, Note_on_c, 0, 74, 101
2, 266880, Note_on_c, 0, 78, 101
2, 266880, Note_on_c, 0, 86, 101
2, 267360, Note_on_c, 0, 86, 0
2, 267360, Note_on_c, 0, 78, 0
2, 267360, Note_on_c, 0, 74, 0
2, 267360, Note_on_c, 0, 74, 101
2, 267360, Note_on_c, 0, 79, 101
2, 267360, Note_on_c, 0, 86, 101
2, 267840, Note_on_c, 0, 86, 0
2, 267840, Note_on_c, 0, 79, 0
2, 267840, Note_on_c, 0, 74, 0
2, 267840, Note_on_c, 0, 74, 101
2, 267840, Note_on_c, 0, 80, 101
2, 267840, Note_on_c, 0, 86, 101
2, 268320, Note_on_c, 0, 86, 0
2, 268320, Note_on_c, 0, 80, 0
2, 268320, Note_on_c, 0, 74, 0
2, 268320, Note_on_c, 0, 74, 101
2, 268320, Note_on_c, 0, 81, 101
2, 268320, Note_on_c, 0, 86, 101
2, 268800, Note_on_c, 0, 86, 0
2, 268800, Note_on_c, 0, 81, 0
2, 268800, Note_on_c, 0, 74, 0
2, 268800, Note_on_c, 0, 74, 101
2, 268800, Note_on_c, 0, 79, 101
2, 268800, Note_on_c, 0, 82, 101
2, 268800, Note_on_c, 0, 86, 101
2, 269280, Note_on_c, 0, 86, 0
2, 269280, Note_on_c, 0, 74, 0
2, 269280, Note_on_c, 0, 79, 0
2, 269280, Note_on_c, 0, 82, 0
2, 269280, Note_on_c, 0, 77, 101
2, 269280, Note_on_c, 0, 83, 101
2, 269280, Note_on_c, 0, 86, 101
2, 269400, Note_on_c, 0, 86, 0
2, 269400, Note_on_c, 0, 83, 0
2, 269400, Note_on_c, 0, 77, 0
2, 269400, Note_on_c, 0, 85, 101
2, 269520, Note_on_c, 0, 85, 0
2, 269520, Note_on_c, 0, 86, 101
2, 269640, Note_on_c, 0, 86, 0
2, 269640, Note_on_c, 0, 88, 101
2, 269760, Note_on_c, 0, 88, 0
2, 269760, Note_on_c, 0, 78, 101
2, 269760, Note_on_c, 0, 86, 101
2, 269760, Note_on_c, 0, 90, 101
2, 270000, Note_on_c, 0, 90, 0
2, 270000, Note_on_c, 0, 86, 0
2, 270000, Note_on_c, 0, 78, 0
2, 270000, Note_on_c, 0, 76, 101
2, 270000, Note_on_c, 0, 81, 101
2, 270000, Note_on_c, 0, 85, 101
2, 270000, Note_on_c, 0, 88, 101
2, 270240, Note_on_c, 0, 88, 0
2, 270240, Note_on_c, 0, 76, 0
2, 270240, Note_on_c, 0, 81, 0
2, 270240, Note_on_c, 0, 85, 0
2, 270240, Note_on_c, 0, 74, 101
2, 270240, Note_on_c, 0, 78, 101
2, 270240, Note_on_c, 0, 81, 101
2, 270240, Note_on_c, 0, 86, 101
2, 270480, Note_on_c, 0, 86, 0
2, 270480, Note_on_c, 0, 74, 0
2, 270480, Note_on_c, 0, 78, 0
2, 270480, Note_on_c, 0, 81, 0
2, 270480, Note_on_c, 0, 81, 101
2, 270720, Note_on_c, 0, 81, 0
2, 270720, Note_on_c, 0, 74, 101
2, 270720, Note_on_c, 0, 78, 101
2, 270720, Note_on_c, 0, 81, 101
2, 270720, Note_on_c, 0, 86, 101
2, 270960, Note_on_c, 0, 86, 0
2, 270960, Note_on_c, 0, 74, 0
2, 270960, Note_on_c, 0, 78, 0
2, 270960, Note_on_c, 0, 81, 0
2, 270960, Note_on_c, 0, 85, 101
2, 271080, Note_on_c, 0, 85, 0
2, 271080, Note_on_c, 0, 83, 101
2, 271200, Note_on_c, 0, 83, 0
2, 271200, Note_on_c, 0, 81, 101
2, 271320, Note_on_c, 0, 81, 0
2, 271320, Note_on_c, 0, 83, 101
2, 271440, Note_on_c, 0, 83, 0
2, 271440, Note_on_c, 0, 81, 101
2, 271560, Note_on_c, 0, 81, 0
2, 271560, Note_on_c, 0, 79, 101
2, 271680, Note_on_c, 0, 79, 0
2, 271680, Note_on_c, 0, 78, 101
2, 271800, Note_on_c, 0, 78, 0
2, 271800, Note_on_c, 0, 76, 101
2, 271920, Note_on_c, 0, 76, 0
2, 271920, Note_on_c, 0, 74, 101
2, 272040, Note_on_c, 0, 74, 0
2, 272040, Note_on_c, 0, 76, 101
2, 272160, Note_on_c, 0, 76, 0
2, 272160, Note_on_c, 0, 78, 101
2, 272280, Note_on_c, 0, 78, 0
2, 272280, Note_on_c, 0, 76, 101
2, 272400, Note_on_c, 0, 76, 0
2, 272400, Note_on_c, 0, 78, 101
2, 272520, Note_on_c, 0, 78, 0
2, 272520, Note_on_c, 0, 79, 101
2, 272640, Note_on_c, 0, 79, 0
2, 272640, Note_on_c, 0, 81, 101
2, 272760, Note_on_c, 0, 81, 0
2, 272760, Note_on_c, 0, 79, 101
2, 272880, Note_on_c, 0, 79, 0
2, 272880, Note_on_c, 0, 78, 101
2, 273000, Note_on_c, 0, 78, 0
2, 273000, Note_on_c, 0, 79, 101
2, 273120, Note_on_c, 0, 79, 0
2, 273120, Note_on_c, 0, 81, 101
2, 273240, Note_on_c, 0, 81, 0
2, 273240, Note_on_c, 0, 83, 101
2, 273360, Note_on_c, 0, 83, 0
2, 273360, Note_on_c, 0, 81, 101
2, 273360, Note_on_c, 0, 85, 101
2, 273480, Note_on_c, 0, 85, 0
2, 273480, Note_on_c, 0, 81, 0
2, 273480, Note_on_c, 0, 83, 101
2, 273480, Note_on_c, 0, 86, 101
2, 273600, Note_on_c, 0, 86, 0
2, 273600, Note_on_c, 0, 83, 0
2, 273600, Note_on_c, 0, 76, 101
2, 273600, Note_on_c, 0, 81, 101
2, 273600, Note_on_c, 0, 85, 101
2, 273600, Note_on_c, 0, 88, 101
2, 273840, Note_on_c, 0, 88, 0
2, 273840, Note_on_c, 0, 76, 0
2, 273840, Note_on_c, 0, 81, 0
2, 273840, Note_on_c, 0, 85, 0
2, 273840, Note_on_c, 0, 78, 101
2, 273840, Note_on_c, 0, 81, 101
2, 273840, Note_on_c, 0, 86, 101
2, 273840, Note_on_c, 0, 90, 101
2, 274080, Note_on_c, 0, 90, 0
2, 274080, Note_on_c, 0, 78, 0
2, 274080, Note_on_c, 0, 81, 0
2, 274080, Note_on_c, 0, 86, 0
2, 274080, Note_on_c, 0, 76, 101
2, 274080, Note_on_c, 0, 81, 101
2, 274080, Note_on_c, 0, 85, 101
2, 274080, Note_on_c, 0, 88, 101
2, 274320, Note_on_c, 0, 88, 0
2, 274320, Note_on_c, 0, 76, 0
2, 274320, Note_on_c, 0, 81, 0
2, 274320, Note_on_c, 0, 85, 0
2, 274320, Note_on_c, 0, 81, 101
2, 274560, Note_on_c, 0, 81, 0
2, 274560, Note_on_c, 0, 74, 101
2, 274560, Note_on_c, 0, 78, 101
2, 274560, Note_on_c, 0, 86, 101
2, 275040, Note_on_c, 0, 86, 0
2, 275040, Note_on_c, 0, 78, 0
2, 275040, Note_on_c, 0, 74, 0
2, 275040, Note_on_c, 0, 74, 101
2, 275040, Note_on_c, 0, 79, 101
2, 275040, Note_on_c, 0, 86, 101
2, 275520, Note_on_c, 0, 86, 0
2, 275520, Note_on_c, 0, 79, 0
2, 275520, Note_on_c, 0, 74, 0
2, 275520, Note_on_c, 0, 74, 101
2, 275520, Note_on_c, 0, 80, 101
2, 275520, Note_on_c, 0, 86, 101
2, 276000, Note_on_c, 0, 86, 0
2, 276000, Note_on_c, 0, 80, 0
2, 276000, Note_on_c, 0, 74, 0
2, 276000, Note_on_c, 0, 74, 101
2, 276000, Note_on_c, 0, 81, 101
2, 276000, Note_on_c, 0, 86, 101
2, 276480, Note_on_c, 0, 86, 0
2, 276480, Note_on_c, 0, 81, 0
2, 276480, Note_on_c, 0, 74, 0
2, 276480, Note_on_c, 0, 74, 101
2, 276480, Note_on_c, 0, 79, 101
2, 276480, Note_on_c, 0, 82, 101
2, 276480, Note_on_c, 0, 86, 101
2, 276960, Note_on_c, 0, 86, 0
2, 276960, Note_on_c, 0, 74, 0
2, 276960, Note_on_c, 0, 79, 0
2, 276960, Note_on_c, 0, 82, 0
2, 276960, Note_on_c, 0, 77, 101
2, 276960, Note_on_c, 0, 83, 101
2, 276960, Note_on_c, 0, 86, 101
2, 277080, Note_on_c, 0, 86, 0
2, 277080, Note_on_c, 0, 83, 0
2, 277080, Note_on_c, 0, 77, 0
2, 277080, Note_on_c, 0, 85, 101
2, 277200, Note_on_c, 0, 85, 0
2, 277200, Note_on_c, 0, 86, 101
2, 277320, Note_on_c, 0, 86, 0
2, 277320, Note_on_c, 0, 88, 101
2, 277440, Note_on_c, 0, 88, 0
2, 277440, Note_on_c, 0, 78, 101
2, 277440, Note_on_c, 0, 81, 101
2, 277440, Note_on_c, 0, 86, 101
2, 277440, Note_on_c, 0, 90, 101
2, 277680, Note_on_c, 0, 90, 0
2, 277680, Note_on_c, 0, 78, 0
2, 277680, Note_on_c, 0, 81, 0
2, 277680, Note_on_c, 0, 86, 0
2, 277680, Note_on_c, 0, 76, 101
2, 277680, Note_on_c, 0, 81, 101
2, 277680, Note_on_c, 0, 85, 101
2, 277680, Note_on_c, 0, 88, 101
2, 277920, Note_on_c, 0, 88, 0
2, 277920, Note_on_c, 0, 76, 0
2, 277920, Note_on_c, 0, 81, 0
2, 277920, Note_on_c, 0, 85, 0
2, 277920, Note_on_c, 0, 74, 101
2, 277920, Note_on_c, 0, 78, 101
2, 277920, Note_on_c, 0, 81, 101
2, 277920, Note_on_c, 0, 86, 101
2, 278160, Note_on_c, 0, 86, 0
2, 278160, Note_on_c, 0, 74, 0
2, 278160, Note_on_c, 0, 78, 0
2, 278160, Note_on_c, 0, 81, 0
2, 278160, Note_on_c, 0, 81, 101
2, 278400, Note_on_c, 0, 81, 0
2, 278400, Note_on_c, 0, 74, 101
2, 278400, Note_on_c, 0, 78, 101
2, 278400, Note_on_c, 0, 81, 101
2, 278400, Note_on_c, 0, 86, 101
2, 278640, Note_on_c, 0, 86, 0
2, 278640, Note_on_c, 0, 74, 0
2, 278640, Note_on_c, 0, 78, 0
2, 278640, Note_on_c, 0, 81, 0
2, 278640, Note_on_c, 0, 85, 101
2, 278760, Note_on_c, 0, 85, 0
2, 278760, Note_on_c, 0, 83, 101
2, 278880, Note_on_c, 0, 83, 0
2, 278880, Note_on_c, 0, 81, 101
2, 279000, Note_on_c, 0, 81, 0
2, 279000, Note_on_c, 0, 83, 101
2, 279120, Note_on_c, 0, 83, 0
2, 279120, Note_on_c, 0, 81, 101
2, 279240, Note_on_c, 0, 81, 0
2, 279240, Note_on_c, 0, 79, 101
2, 279360, Note_on_c, 0, 79, 0
2, 279360, Note_on_c, 0, 78, 101
2, 279480, Note_on_c, 0, 78, 0
2, 279480, Note_on_c, 0, 76, 101
2, 279600, Note_on_c, 0, 76, 0
2, 279600, Note_on_c, 0, 74, 101
2, 279720, Note_on_c, 0, 74, 0
2, 279720, Note_on_c, 0, 76, 101
2, 279840, Note_on_c, 0, 76, 0
2, 279840, Note_on_c, 0, 78, 101
2, 279960, Note_on_c, 0, 78, 0
2, 279960, Note_on_c, 0, 76, 101
2, 280080, Note_on_c, 0, 76, 0
2, 280080, Note_on_c, 0, 78, 101
2, 280200, Note_on_c, 0, 78, 0
2, 280200, Note_on_c, 0, 79, 101
2, 280320, Note_on_c, 0, 79, 0
2, 280320, Note_on_c, 0, 81, 101
2, 280440, Note_on_c, 0, 81, 0
2, 280440, Note_on_c, 0, 79, 101
2, 280560, Note_on_c, 0, 79, 0
2, 280560, Note_on_c, 0, 78, 101
2, 280680, Note_on_c, 0, 78, 0
2, 280680, Note_on_c, 0, 79, 101
2, 280800, Note_on_c, 0, 79, 0
2, 280800, Note_on_c, 0, 81, 101
2, 280920, Note_on_c, 0, 81, 0
2, 280920, Note_on_c, 0, 83, 101
2, 281040, Note_on_c, 0, 83, 0
2, 281040, Note_on_c, 0, 81, 101
2, 281040, Note_on_c, 0, 85, 101
2, 281160, Note_on_c, 0, 85, 0
2, 281160, Note_on_c, 0, 81, 0
2, 281160, Note_on_c, 0, 83, 101
2, 281160, Note_on_c, 0, 86, 101
2, 281280, Note_on_c, 0, 86, 0
2, 281280, Note_on_c, 0, 83, 0
2, 281280, Note_on_c, 0, 81, 101
2, 281280, Note_on_c, 0, 85, 101
2, 281280, Note_on_c, 0, 88, 101
2, 281520, Note_on_c, 0, 88, 0
2, 281520, Note_on_c, 0, 85, 0
2, 281520, Note_on_c, 0, 81, 0
2, 281520, Note_on_c, 0, 79, 101
2, 281520, Note_on_c, 0, 81, 101
2, 281520, Note_on_c, 0, 85, 101
2, 281520, Note_on_c, 0, 90, 101
2, 281760, Note_on_c, 0, 90, 0
2, 281760, Note_on_c, 0, 79, 0
2, 281760, Note_on_c, 0, 81, 0
2, 281760, Note_on_c, 0, 85, 0
2, 281760, Note_on_c, 0, 78, 101
2, 281760, Note_on_c, 0, 81, 101
2, 281760, Note_on_c, 0, 86, 101
2, 282000, Note_on_c, 0, 86, 0
2, 282000, Note_on_c, 0, 81, 0
2, 282000, Note_on_c, 0, 78, 0
2, 284160, Note_on_c, 0, 61, 101
2, 284160, Note_on_c, 0, 69, 101
2, 284280, Note_on_c, 0, 69, 0
2, 284280, Note_on_c, 0, 61, 0
2, 284280, Note_on_c, 0, 64, 101
2, 284400, Note_on_c, 0, 64, 0
2, 284400, Note_on_c, 0, 61, 101
2, 284520, Note_on_c, 0, 61, 0
2, 284520, Note_on_c, 0, 64, 101
2, 284640, Note_on_c, 0, 64, 0
2, 284640, Note_on_c, 0, 69, 101
2, 284760, Note_on_c, 0, 69, 0
2, 284760, Note_on_c, 0, 64, 101
2, 284880, Note_on_c, 0, 64, 0
2, 284880, Note_on_c, 0, 69, 101
2, 285000, Note_on_c, 0, 69, 0
2, 285000, Note_on_c, 0, 71, 101
2, 285120, Note_on_c, 0, 71, 0
2, 285120, Note_on_c, 0, 73, 101
2, 285240, Note_on_c, 0, 73, 0
2, 285240, Note_on_c, 0, 71, 101
2, 285360, Note_on_c, 0, 71, 0
2, 285360, Note_on_c, 0, 73, 101
2, 285480, Note_on_c, 0, 73, 0
2, 285480, Note_on_c, 0, 74, 101
2, 285600, Note_on_c, 0, 74, 0
2, 285600, Note_on_c, 0, 76, 101
2, 285840, Note_on_c, 0, 76, 0
2, 288000, Note_on_c, 0, 61, 101
2, 288000, Note_on_c, 0, 69, 101
2, 288120, Note_on_c, 0, 69, 0
2, 288120, Note_on_c, 0, 61, 0
2, 288120, Note_on_c, 0, 64, 101
2, 288240, Note_on_c, 0, 64, 0
2, 288240, Note_on_c, 0, 61, 101
2, 288360, Note_on_c, 0, 61, 0
2, 288360, Note_on_c, 0, 64, 101
2, 288480, Note_on_c, 0, 64, 0
2, 288480, Note_on_c, 0, 69, 101
2, 288600, Note_on_c, 0, 69, 0
2, 288600, Note_on_c, 0, 64, 101
2, 288720, Note_on_c, 0, 64, 0
2, 288720, Note_on_c, 0, 69, 101
2, 288840, Note_on_c, 0, 69, 0
2, 288840, Note_on_c, 0, 71, 101
2, 288960, Note_on_c, 0, 71, 0
2, 288960, Note_on_c, 0, 73, 101
2, 289080, Note_on_c, 0, 73, 0
2, 289080, Note_on_c, 0, 71, 101
2, 289200, Note_on_c, 0, 71, 0
2, 289200, Note_on_c, 0, 73, 101
2, 289320, Note_on_c, 0, 73, 0
2, 289320, Note_on_c, 0, 74, 101
2, 289440, Note_on_c, 0, 74, 0
2, 289440, Note_on_c, 0, 76, 101
2, 289560, Note_on_c, 0, 76, 0
2, 289560, Note_on_c, 0, 72, 101
2, 289560, Note_on_c, 0, 75, 101
2, 289680, Note_on_c, 0, 75, 0
2, 289680, Note_on_c, 0, 72, 0
2, 289680, Note_on_c, 0, 73, 101
2, 289680, Note_on_c, 0, 76, 101
2, 289920, Note_on_c, 0, 76, 0
2, 289920, Note_on_c, 0, 73, 0
2, 289920, Note_on_c, 0, 85, 101
2, 289920, Note_on_c, 0, 88, 101
2, 290040, Note_on_c, 0, 88, 0
2, 290040, Note_on_c, 0, 85, 0
2, 290040, Note_on_c, 0, 84, 101
2, 290040, Note_on_c, 0, 87, 101
2, 290160, Note_on_c, 0, 87, 0
2, 290160, Note_on_c, 0, 84, 0
2, 290160, Note_on_c, 0, 85, 101
2, 290160, Note_on_c, 0, 88, 101
2, 290400, Note_on_c, 0, 88, 0
2, 290400, Note_on_c, 0, 85, 0
2, 290400, Note_on_c, 0, 85, 101
2, 290400, Note_on_c, 0, 88, 101
2, 290520, Note_on_c, 0, 88, 0
2, 290520, Note_on_c, 0, 85, 0
2, 290520, Note_on_c, 0, 84, 101
2, 290520, Note_on_c, 0, 87, 101
2, 290640, Note_on_c, 0, 87, 0
2, 290640, Note_on_c, 0, 84, 0
2, 290640, Note_on_c, 0, 85, 101
2, 290640, Note_on_c, 0, 88, 101
2, 290880, Note_on_c, 0, 88, 0
2, 290880, Note_on_c, 0, 85, 0
2, 290880, Note_on_c, 0, 83, 101
2, 290880, Note_on_c, 0, 86, 101
2, 291000, Note_on_c, 0, 86, 0
2, 291000, Note_on_c, 0, 83, 0
2, 291000, Note_on_c, 0, 82, 101
2, 291000, Note_on_c, 0, 85, 101
2, 291120, Note_on_c, 0, 85, 0
2, 291120, Note_on_c, 0, 82, 0
2, 291120, Note_on_c, 0, 83, 101
2, 291120, Note_on_c, 0, 86, 101
2, 291360, Note_on_c, 0, 86, 0
2, 291360, Note_on_c, 0, 83, 0
2, 291360, Note_on_c, 0, 83, 101
2, 291360, Note_on_c, 0, 86, 101
2, 291480, Note_on_c, 0, 86, 0
2, 291480, Note_on_c, 0, 83, 0
2, 291480, Note_on_c, 0, 82, 101
2, 291480, Note_on_c, 0, 85, 101
2, 291600, Note_on_c, 0, 85, 0
2, 291600, Note_on_c, 0, 82, 0
2, 291600, Note_on_c, 0, 83, 101
2, 291600, Note_on_c, 0, 86, 101
2, 291840, Note_on_c, 0, 86, 0
2, 291840, Note_on_c, 0, 83, 0
2, 291840, Note_on_c, 0, 83, 101
2, 291840, Note_on_c, 0, 86, 101
2, 291960, Note_on_c, 0, 86, 0
2, 291960, Note_on_c, 0, 83, 0
2, 291960, Note_on_c, 0, 82, 101
2, 291960, Note_on_c, 0, 85, 101
2, 292080, Note_on_c, 0, 85, 0
2, 292080, Note_on_c, 0, 82, 0
2, 292080, Note_on_c, 0, 83, 101
2, 292080, Note_on_c, 0, 86, 101
2, 292320, Note_on_c, 0, 86, 0
2, 292320, Note_on_c, 0, 83, 0
2, 292320, Note_on_c, 0, 83, 101
2, 292320, Note_on_c, 0, 86, 101
2, 292440, Note_on_c, 0, 86, 0
2, 292440, Note_on_c, 0, 83, 0
2, 292440, Note_on_c, 0, 82, 101
2, 292440, Note_on_c, 0, 85, 101
2, 292560, Note_on_c, 0, 85, 0
2, 292560, Note_on_c, 0, 82, 0
2, 292560, Note_on_c, 0, 83, 101
2, 292560, Note_on_c, 0, 86, 101
2, 292800, Note_on_c, 0, 86, 0
2, 292800, Note_on_c, 0, 83, 0
2, 292800, Note_on_c, 0, 81, 101
2, 292800, Note_on_c, 0, 85, 101
2, 292920, Note_on_c, 0, 85, 0
2, 292920, Note_on_c, 0, 81, 0
2, 292920, Note_on_c, 0, 80, 101
2, 292920, Note_on_c, 0, 84, 101
2, 293040, Note_on_c, 0, 84, 0
2, 293040, Note_on_c, 0, 80, 0
2, 293040, Note_on_c, 0, 81, 101
2, 293040, Note_on_c, 0, 85, 101
2, 293280, Note_on_c, 0, 85, 0
2, 293280, Note_on_c, 0, 81, 0
2, 293280, Note_on_c, 0, 85, 101
2, 293400, Note_on_c, 0, 85, 0
2, 293400, Note_on_c, 0, 81, 101
2, 293520, Note_on_c, 0, 81, 0
2, 293520, Note_on_c, 0, 83, 101
2, 293640, Note_on_c, 0, 83, 0
2, 293640, Note_on_c, 0, 85, 101
2, 293760, Note_on_c, 0, 85, 0
2, 293760, Note_on_c, 0, 74, 101
2, 293760, Note_on_c, 0, 81, 101
2, 293760, Note_on_c, 0, 86, 101
2, 294000, Note_on_c, 0, 86, 0
2, 294000, Note_on_c, 0, 81, 0
2, 294000, Note_on_c, 0, 74, 0
2, 294000, Note_on_c, 0, 73, 101
2, 294000, Note_on_c, 0, 85, 101
2, 294240, Note_on_c, 0, 85, 0
2, 294240, Note_on_c, 0, 73, 0
2, 294240, Note_on_c, 0, 71, 101
2, 294240, Note_on_c, 0, 83, 101
2, 294480, Note_on_c, 0, 83, 0
2, 294480, Note_on_c, 0, 71, 0
2, 294480, Note_on_c, 0, 69, 101
2, 294480, Note_on_c, 0, 74, 101
2, 294480, Note_on_c, 0, 81, 101
2, 294720, Note_on_c, 0, 81, 0
2, 294720, Note_on_c, 0, 74, 0
2, 294720, Note_on_c, 0, 69, 0
2, 294720, Note_on_c, 0, 67, 101
2, 294720, Note_on_c, 0, 74, 101
2, 294720, Note_on_c, 0, 79, 101
2, 294960, Note_on_c, 0, 79, 0
2, 294960, Note_on_c, 0, 74, 0
2, 294960, Note_on_c, 0, 67, 0
2, 294960, Note_on_c, 0, 66, 101
2, 294960, Note_on_c, 0, 74, 101
2, 294960, Note_on_c, 0, 78, 101
2, 295200, Note_on_c, 0, 78, 0
2, 295200, Note_on_c, 0, 74, 0
2, 295200, Note_on_c, 0, 66, 0
2, 295200, Note_on_c, 0, 71, 101
2, 295200, Note_on_c, 0, 76, 101
2, 295200, Note_on_c, 0, 83, 101
2, 295440, Note_on_c, 0, 83, 0
2, 295440, Note_on_c, 0, 76, 0
2, 295440, Note_on_c, 0, 71, 0
2, 295440, Note_on_c, 0, 69, 101
2, 295440, Note_on_c, 0, 73, 101
2, 295440, Note_on_c, 0, 81, 101
2, 295680, Note_on_c, 0, 81, 0
2, 295680, Note_on_c, 0, 73, 0
2, 295680, Note_on_c, 0, 69, 0
2, 295680, Note_on_c, 0, 74, 101
2, 295680, Note_on_c, 0, 81, 101
2, 295680, Note_on_c, 0, 86, 101
2, 295920, Note_on_c, 0, 86, 0
2, 295920, Note_on_c, 0, 81, 0
2, 295920, Note_on_c, 0, 74, 0
2, 295920, Note_on_c, 0, 73, 101
2, 295920, Note_on_c, 0, 85, 101
2, 296160, Note_on_c, 0, 85, 0
2, 296160, Note_on_c, 0, 73, 0
2, 296160, Note_on_c, 0, 71, 101
2, 296160, Note_on_c, 0, 83, 101
2, 296400, Note_on_c, 0, 83, 0
2, 296400, Note_on_c, 0, 71, 0
2, 296400, Note_on_c, 0, 69, 101
2, 296400, Note_on_c, 0, 74, 101
2, 296400, Note_on_c, 0, 81, 101
2, 296640, Note_on_c, 0, 81, 0
2, 296640, Note_on_c, 0, 74, 0
2, 296640, Note_on_c, 0, 69, 0
2, 296640, Note_on_c, 0, 67, 101
2, 296640, Note_on_c, 0, 74, 101
2, 296640, Note_on_c, 0, 79, 101
2, 296880, Note_on_c, 0, 79, 0
2, 296880, Note_on_c, 0, 74, 0
2, 296880, Note_on_c, 0, 67, 0
2, 296880, Note_on_c, 0, 66, 101
2, 296880, Note_on_c, 0, 74, 101
2, 296880, Note_on_c, 0, 78, 101
2, 297120, Note_on_c, 0, 78, 0
2, 297120, Note_on_c, 0, 74, 0
2, 297120, Note_on_c, 0, 66, 0
2, 297120, Note_on_c, 0, 71, 101
2, 297120, Note_on_c, 0, 76, 101
2, 297120, Note_on_c, 0, 83, 101
2, 297360, Note_on_c, 0, 83, 0
2, 297360, Note_on_c, 0, 76, 0
2, 297360, Note_on_c, 0, 71, 0
2, 297360, Note_on_c, 0, 69, 101
2, 297360, Note_on_c, 0, 73, 101
2, 297360, Note_on_c, 0, 81, 101
2, 297600, Note_on_c, 0, 81, 0
2, 297600, Note_on_c, 0, 73, 0
2, 297600, Note_on_c, 0, 69, 0
2, 297600, Note_on_c, 0, 74, 101
2, 297600, Note_on_c, 0, 81, 101
2, 297600, Note_on_c, 0, 86, 101
2, 297840, Note_on_c, 0, 86, 0
2, 297840, Note_on_c, 0, 81, 0
2, 297840, Note_on_c, 0, 74, 0
2, 297840, Note_on_c, 0, 73, 101
2, 297840, Note_on_c, 0, 85, 101
2, 298080, Note_on_c, 0, 85, 0
2, 298080, Note_on_c, 0, 73, 0
2, 298080, Note_on_c, 0, 71, 101
2, 298080, Note_on_c, 0, 83, 101
2, 298320, Note_on_c, 0, 83, 0
2, 298320, Note_on_c, 0, 71, 0
2, 298320, Note_on_c, 0, 81, 101
2, 298560, Note_on_c, 0, 81, 0
2, 298560, Note_on_c, 0, 76, 101
2, 298560, Note_on_c, 0, 81, 101
2, 298560, Note_on_c, 0, 85, 101
2, 298560, Note_on_c, 0, 88, 101
2, 298800, Note_on_c, 0, 88, 0
2, 298800, Note_on_c, 0, 76, 0
2, 298800, Note_on_c, 0, 81, 0
2, 298800, Note_on_c, 0, 85, 0
2, 298800, Note_on_c, 0, 73, 101
2, 298800, Note_on_c, 0, 85, 101
2, 299040, Note_on_c, 0, 85, 0
2, 299040, Note_on_c, 0, 73, 0
2, 299040, Note_on_c, 0, 71, 101
2, 299040, Note_on_c, 0, 83, 101
2, 299280, Note_on_c, 0, 83, 0
2, 299280, Note_on_c, 0, 71, 0
2, 299280, Note_on_c, 0, 69, 101
2, 299280, Note_on_c, 0, 81, 101
2, 299520, Note_on_c, 0, 81, 0
2, 299520, Note_on_c, 0, 69, 0
2, 299520, Note_on_c, 0, 80, 101
2, 299640, Note_on_c, 0, 80, 0
2, 299640, Note_on_c, 0, 78, 101
2, 299760, Note_on_c, 0, 78, 0
2, 299760, Note_on_c, 0, 76, 101
2, 299880, Note_on_c, 0, 76, 0
2, 299880, Note_on_c, 0, 75, 101
2, 300000, Note_on_c, 0, 75, 0
2, 300000, Note_on_c, 0, 76, 101
2, 300120, Note_on_c, 0, 76, 0
2, 300120, Note_on_c, 0, 77, 101
2, 300240, Note_on_c, 0, 77, 0
2, 300240, Note_on_c, 0, 78, 101
2, 300360, Note_on_c, 0, 78, 0
2, 300360, Note_on_c, 0, 77, 101
2, 300480, Note_on_c, 0, 77, 0
2, 300480, Note_on_c, 0, 78, 101
2, 300600, Note_on_c, 0, 78, 0
2, 300600, Note_on_c, 0, 76, 101
2, 300720, Note_on_c, 0, 76, 0
2, 300720, Note_on_c, 0, 78, 101
2, 300840, Note_on_c, 0, 78, 0
2, 300840, Note_on_c, 0, 80, 101
2, 300960, Note_on_c, 0, 80, 0
2, 300960, Note_on_c, 0, 69, 101
2, 300960, Note_on_c, 0, 73, 101
2, 300960, Note_on_c, 0, 81, 101
2, 301440, Note_on_c, 0, 81, 0
2, 301440, Note_on_c, 0, 73, 0
2, 301440, Note_on_c, 0, 69, 0
2, 301440, Control_c, 0, 64, 127
2, 301440, Note_on_c, 0, 81, 88
2, 301520, Note_on_c, 0, 81, 0
2, 301520, Note_on_c, 0, 83, 88
2, 301599, Note_on_c, 0, 83, 0
2, 301599, Note_on_c, 0, 81, 88
2, 301680, Note_on_c, 0, 81, 0
2, 301680, Note_on_c, 0, 83, 88
2, 301760, Note_on_c, 0, 83, 0
2, 301760, Note_on_c, 0, 81, 88
2, 301839, Note_on_c, 0, 81, 0
2, 301839, Note_on_c, 0, 83, 88
2, 301920, Note_on_c, 0, 83, 0
2, 301920, Note_on_c, 0, 81, 88
2, 302000, Note_on_c, 0, 81, 0
2, 302000, Note_on_c, 0, 83, 88
2, 302079, Note_on_c, 0, 83, 0
2, 302079, Note_on_c, 0, 81, 88
2, 302160, Note_on_c, 0, 81, 0
2, 302160, Note_on_c, 0, 83, 88
2, 302240, Note_on_c, 0, 83, 0
2, 302240, Note_on_c, 0, 81, 88
2, 302319, Note_on_c, 0, 81, 0
2, 302319, Note_on_c, 0, 83, 88
2, 302400, Note_on_c, 0, 83, 0
2, 302400, Note_on_c, 0, 81, 88
2, 302480, Note_on_c, 0, 81, 0
2, 302480, Note_on_c, 0, 83, 88
2, 302559, Note_on_c, 0, 83, 0
2, 302559, Note_on_c, 0, 81, 88
2, 302640, Note_on_c, 0, 81, 0
2, 302640, Note_on_c, 0, 83, 88
2, 302720, Note_on_c, 0, 83, 0
2, 302720, Note_on_c, 0, 81, 88
2, 302799, Note_on_c, 0, 81, 0
2, 302799, Note_on_c, 0, 83, 88
2, 302880, Note_on_c, 0, 83, 0
2, 302880, Note_on_c, 0, 81, 88
2, 302960, Note_on_c, 0, 81, 0
2, 302960, Note_on_c, 0, 83, 88
2, 303039, Note_on_c, 0, 83, 0
2, 303039, Note_on_c, 0, 81, 88
2, 303120, Note_on_c, 0, 81, 0
2, 303120, Note_on_c, 0, 80, 88
2, 303240, Note_on_c, 0, 80, 0
2, 303240, Control_c, 0, 64, 0
2, 303240, Note_on_c, 0, 81, 88
2, 303360, Note_on_c, 0, 81, 0
2, 303360, Control_c, 0, 64, 127
2, 303360, Note_on_c, 0, 88, 88
2, 303440, Note_on_c, 0, 88, 0
2, 303440, Note_on_c, 0, 90, 88
2, 303519, Note_on_c, 0, 90, 0
2, 303519, Note_on_c, 0, 88, 88
2, 303600, Note_on_c, 0, 88, 0
2, 303600, Note_on_c, 0, 90, 88
2, 303680, Note_on_c, 0, 90, 0
2, 303680, Note_on_c, 0, 88, 88
2, 303759, Note_on_c, 0, 88, 0
2, 303759, Note_on_c, 0, 90, 88
2, 303840, Note_on_c, 0, 90, 0
2, 303840, Note_on_c, 0, 88, 88
2, 303920, Note_on_c, 0, 88, 0
2, 303920, Note_on_c, 0, 90, 88
2, 303999, Note_on_c, 0, 90, 0
2, 303999, Note_on_c, 0, 88, 88
2, 304080, Note_on_c, 0, 88, 0
2, 304080, Note_on_c, 0, 90, 88
2, 304160, Note_on_c, 0, 90, 0
2, 304160, Note_on_c, 0, 88, 88
2, 304239, Note_on_c, 0, 88, 0
2, 304239, Note_on_c, 0, 90, 88
2, 304320, Note_on_c, 0, 90, 0
2, 304320, Note_on_c, 0, 88, 88
2, 304400, Note_on_c, 0, 88, 0
2, 304400, Note_on_c, 0, 90, 88
2, 304479, Note_on_c, 0, 90, 0
2, 304479, Note_on_c, 0, 88, 88
2, 304560, Note_on_c, 0, 88, 0
2, 304560, Note_on_c, 0, 90, 88
2, 304640, Note_on_c, 0, 90, 0
2, 304640, Note_on_c, 0, 88, 88
2, 304719, Note_on_c, 0, 88, 0
2, 304719, Note_on_c, 0, 90, 88
2, 304800, Note_on_c, 0, 90, 0
2, 304800, Note_on_c, 0, 88, 88
2, 304880, Note_on_c, 0, 88, 0
2, 304880, Note_on_c, 0, 90, 88
2, 304959, Note_on_c, 0, 90, 0
2, 304959, Note_on_c, 0, 88, 88
2, 305040, Note_on_c, 0, 88, 0
2, 305040, Note_on_c, 0, 87, 88
2, 305160, Note_on_c, 0, 87, 0
2, 305160, Control_c, 0, 64, 0
2, 305160, Note_on_c, 0, 88, 88
2, 305280, Note_on_c, 0, 88, 0
2, 305280, Control_c, 0, 64, 127
2, 305280, Note_on_c, 0, 81, 88
2, 305360, Note_on_c, 0, 81, 0
2, 305360, Note_on_c, 0, 83, 88
2, 305439, Note_on_c, 0, 83, 0
2, 305439, Note_on_c, 0, 81, 88
2, 305520, Note_on_c, 0, 81, 0
2, 305520, Note_on_c, 0, 83, 88
2, 305600, Note_on_c, 0, 83, 0
2, 305600, Note_on_c, 0, 81, 88
2, 305679, Note_on_c, 0, 81, 0
2, 305679, Note_on_c, 0, 83, 88
2, 305760, Note_on_c, 0, 83, 0
2, 305760, Note_on_c, 0, 81, 88
2, 305840, Note_on_c, 0, 81, 0
2, 305840, Note_on_c, 0, 83, 88
2, 305919, Note_on_c, 0, 83, 0
2, 305919, Note_on_c, 0, 81, 88
2, 306000, Note_on_c, 0, 81, 0
2, 306000, Note_on_c, 0, 83, 88
2, 306080, Note_on_c, 0, 83, 0
2, 306080, Note_on_c, 0, 81, 88
2, 306159, Note_on_c, 0, 81, 0
2, 306159, Note_on_c, 0, 83, 88
2, 306240, Note_on_c, 0, 83, 0
2, 306240, Note_on_c, 0, 81, 88
2, 306320, Note_on_c, 0, 81, 0
2, 306320, Note_on_c, 0, 83, 88
2, 306399, Note_on_c, 0, 83, 0
2, 306399, Note_on_c, 0, 81, 88
2, 306480, Note_on_c, 0, 81, 0
2, 306480, Note_on_c, 0, 83, 88
2, 306560, Note_on_c, 0, 83, 0
2, 306560, Note_on_c, 0, 81, 88
2, 306639, Note_on_c, 0, 81, 0
2, 306639, Note_on_c, 0, 83, 88
2, 306720, Note_on_c, 0, 83, 0
2, 306720, Note_on_c, 0, 81, 88
2, 306800, Note_on_c, 0, 81, 0
2, 306800, Note_on_c, 0, 83, 88
2, 306879, Note_on_c, 0, 83, 0
2, 306879, Note_on_c, 0, 81, 88
2, 306960, Note_on_c, 0, 81, 0
2, 306960, Note_on_c, 0, 80, 88
2, 307080, Note_on_c, 0, 80, 0
2, 307080, Control_c, 0, 64, 0
2, 307080, Note_on_c, 0, 81, 88
2, 307200, Note_on_c, 0, 81, 0
2, 307200, Control_c, 0, 64, 127
2, 307200, Note_on_c, 0, 88, 88
2, 307280, Note_on_c, 0, 88, 0
2, 307280, Note_on_c, 0, 90, 88
2, 307359, Note_on_c, 0, 90, 0
2, 307359, Note_on_c, 0, 88, 88
2, 307440, Note_on_c, 0, 88, 0
2, 307440, Note_on_c, 0, 90, 88
2, 307520, Note_on_c, 0, 90, 0
2, 307520, Note_on_c, 0, 88, 88
2, 307599, Note_on_c, 0, 88, 0
2, 307599, Note_on_c, 0, 90, 88
2, 307680, Note_on_c, 0, 90, 0
2, 307680, Note_on_c, 0, 88, 88
2, 307760, Note_on_c, 0, 88, 0
2, 307760, Note_on_c, 0, 90, 88
2, 307839, Note_on_c, 0, 90, 0
2, 307839, Note_on_c, 0, 88, 88
2, 307920, Note_on_c, 0, 88, 0
2, 307920, Note_on_c, 0, 90, 88
2, 308000, Note_on_c, 0, 90, 0
2, 308000, Note_on_c, 0, 88, 88
2, 308079, Note_on_c, 0, 88, 0
2, 308079, Note_on_c, 0, 90, 88
2, 308160, Note_on_c, 0, 90, 0
2, 308160, Note_on_c, 0, 88, 88
2, 308240, Note_on_c, 0, 88, 0
2, 308240, Note_on_c, 0, 90, 88
2, 308319, Note_on_c, 0, 90, 0
2, 308319, Note_on_c, 0, 88, 88
2, 308400, Note_on_c, 0, 88, 0
2, 308400, Note_on_c, 0, 90, 88
2, 308480, Note_on_c, 0, 90, 0
2, 308480, Note_on_c, 0, 88, 88
2, 308559, Note_on_c, 0, 88, 0
2, 308559, Note_on_c, 0, 90, 88
2, 308640, Note_on_c, 0, 90, 0
2, 308640, Note_on_c, 0, 88, 88
2, 308720, Note_on_c, 0, 88, 0
2, 308720, Note_on_c, 0, 90, 88
2, 308799, Note_on_c, 0, 90, 0
2, 308799, Note_on_c, 0, 88, 88
2, 308880, Note_on_c, 0, 88, 0
2, 308880, Note_on_c, 0, 90, 88
2, 308960, Note_on_c, 0, 90, 0
2, 308960, Note_on_c, 0, 88, 88
2, 309039, Note_on_c, 0, 88, 0
2, 309039, Note_on_c, 0, 90, 88
2, 309120, Note_on_c, 0, 90, 0
2, 309120, Control_c, 0, 64, 127
2, 309120, Note_on_c, 0, 88, 88
2, 309200, Note_on_c, 0, 88, 0
2, 309200, Note_on_c, 0, 90, 88
2, 309279, Note_on_c, 0, 90, 0
2, 309279, Note_on_c, 0, 88, 88
2, 309360, Note_on_c, 0, 88, 0
2, 309360, Note_on_c, 0, 90, 88
2, 309440, Note_on_c, 0, 90, 0
2, 309440, Note_on_c, 0, 88, 88
2, 309519, Note_on_c, 0, 88, 0
2, 309519, Note_on_c, 0, 90, 88
2, 309600, Note_on_c, 0, 90, 0
2, 309600, Note_on_c, 0, 88, 88
2, 309680, Note_on_c, 0, 88, 0
2, 309680, Note_on_c, 0, 90, 88
2, 309759, Note_on_c, 0, 90, 0
2, 309759, Note_on_c, 0, 88, 88
2, 309840, Note_on_c, 0, 88, 0
2, 309840, Note_on_c, 0, 90, 88
2, 309920, Note_on_c, 0, 90, 0
2, 309920, Note_on_c, 0, 88, 88
2, 309999, Note_on_c, 0, 88, 0
2, 309999, Note_on_c, 0, 90, 88
2, 310080, Note_on_c, 0, 90, 0
2, 310080, Note_on_c, 0, 88, 88
2, 310160, Note_on_c, 0, 88, 0
2, 310160, Note_on_c, 0, 90, 88
2, 310239, Note_on_c, 0, 90, 0
2, 310239, Note_on_c, 0, 88, 88
2, 310320, Note_on_c, 0, 88, 0
2, 310320, Note_on_c, 0, 90, 88
2, 310400, Note_on_c, 0, 90, 0
2, 310400, Note_on_c, 0, 88, 88
2, 310479, Note_on_c, 0, 88, 0
2, 310479, Note_on_c, 0, 90, 88
2, 310560, Note_on_c, 0, 90, 0
2, 310560, Note_on_c, 0, 88, 88
2, 310640, Note_on_c, 0, 88, 0
2, 310640, Note_on_c, 0, 90, 88
2, 310719, Note_on_c, 0, 90, 0
2, 310719, Note_on_c, 0, 88, 88
2, 310800, Note_on_c, 0, 88, 0
2, 310800, Note_on_c, 0, 90, 88
2, 310880, Note_on_c, 0, 90, 0
2, 310880, Note_on_c, 0, 88, 88
2, 310959, Note_on_c, 0, 88, 0
2, 310959, Control_c, 0, 64, 0
2, 310959, Note_on_c, 0, 90, 88
2, 311040, Note_on_c, 0, 90, 0
2, 311040, Control_c, 0, 64, 127
2, 311040, Note_on_c, 0, 88, 88
2, 311120, Note_on_c, 0, 88, 0
2, 311120, Note_on_c, 0, 90, 88
2, 311199, Note_on_c, 0, 90, 0
2, 311199, Note_on_c, 0, 88, 88
2, 311280, Note_on_c, 0, 88, 0
2, 311280, Note_on_c, 0, 90, 88
2, 311360, Note_on_c, 0, 90, 0
2, 311360, Note_on_c, 0, 88, 88
2, 311439, Note_on_c, 0, 88, 0
2, 311439, Note_on_c, 0, 90, 88
2, 311520, Note_on_c, 0, 90, 0
2, 311520, Note_on_c, 0, 88, 88
2, 311600, Note_on_c, 0, 88, 0
2, 311600, Note_on_c, 0, 90, 88
2, 311679, Note_on_c, 0, 90, 0
2, 311679, Note_on_c, 0, 88, 88
2, 311760, Note_on_c, 0, 88, 0
2, 311760, Note_on_c, 0, 90, 88
2, 311840, Note_on_c, 0, 90, 0
2, 311840, Note_on_c, 0, 88, 88
2, 311919, Note_on_c, 0, 88, 0
2, 311919, Control_c, 0, 64, 0
2, 311919, Note_on_c, 0, 90, 88
2, 312000, Note_on_c, 0, 90, 0
2, 312000, Control_c, 0, 64, 127
2, 312000, Note_on_c, 0, 88, 88
2, 312120, Note_on_c, 0, 88, 0
2, 312120, Note_on_c, 0, 90, 88
2, 312240, Note_on_c, 0, 90, 0
2, 312240, Note_on_c, 0, 91, 88
2, 312360, Note_on_c, 0, 91, 0
2, 312360, Note_on_c, 0, 92, 88
2, 312480, Note_on_c, 0, 92, 0
2, 312480, Note_on_c, 0, 93, 88
2, 312600, Note_on_c, 0, 93, 0
2, 312600, Note_on_c, 0, 91, 88
2, 312720, Note_on_c, 0, 91, 0
2, 312720, Note_on_c, 0, 90, 88
2, 312840, Note_on_c, 0, 90, 0
2, 312840, Control_c, 0, 64, 0
2, 312840, Note_on_c, 0, 88, 88
2, 312960, Note_on_c, 0, 88, 0
2, 312960, Note_on_c, 0, 74, 101
2, 312960, Note_on_c, 0, 78, 101
2, 312960, Note_on_c, 0, 86, 101
2, 313440, Note_on_c, 0, 86, 0
2, 313440, Note_on_c, 0, 78, 0
2, 313440, Note_on_c, 0, 74, 0
2, 313440, Note_on_c, 0, 74, 101
2, 313440, Note_on_c, 0, 79, 101
2, 313440, Note_on_c, 0, 86, 101
2, 313920, Note_on_c, 0, 86, 0
2, 313920, Note_on_c, 0, 79, 0
2, 313920, Note_on_c, 0, 74, 0
2, 313920, Note_on_c, 0, 74, 101
2, 313920, Note_on_c, 0, 80, 101
2, 313920, Note_on_c, 0, 86, 101
2, 314400, Note_on_c, 0, 86, 0
2, 314400, Note_on_c, 0, 80, 0
2, 314400, Note_on_c, 0, 74, 0
2, 314400, Note_on_c, 0, 74, 101
2, 314400, Note_on_c, 0, 81, 101
2, 314400, Note_on_c, 0, 86, 101
2, 314880, Note_on_c, 0, 86, 0
2, 314880, Note_on_c, 0, 81, 0
2, 314880, Note_on_c, 0, 74, 0
2, 314880, Note_on_c, 0, 74, 101
2, 314880, Note_on_c, 0, 79, 101
2, 314880, Note_on_c, 0, 82, 101
2, 314880, Note_on_c, 0, 86, 101
2, 315360, Note_on_c, 0, 86, 0
2, 315360, Note_on_c, 0, 74, 0
2, 315360, Note_on_c, 0, 79, 0
2, 315360, Note_on_c, 0, 82, 0
2, 315360, Note_on_c, 0, 77, 101
2, 315360, Note_on_c, 0, 83, 101
2, 315360, Note_on_c, 0, 86, 101
2, 315480, Note_on_c, 0, 86, 0
2, 315480, Note_on_c, 0, 83, 0
2, 315480, Note_on_c, 0, 77, 0
2, 315480, Note_on_c, 0, 85, 101
2, 315600, Note_on_c, 0, 85, 0
2, 315600, Note_on_c, 0, 86, 101
2, 315720, Note_on_c, 0, 86, 0
2, 315720, Note_on_c, 0, 88, 101
2, 315840, Note_on_c, 0, 88, 0
2, 315840, Note_on_c, 0, 78, 101
2, 315840, Note_on_c, 0, 86, 101
2, 315840, Note_on_c, 0, 90, 101
2, 316080, Note_on_c, 0, 90, 0
2, 316080, Note_on_c, 0, 86, 0
2, 316080, Note_on_c, 0, 78, 0
2, 316080, Note_on_c, 0, 76, 101
2, 316080, Note_on_c, 0, 81, 101
2, 316080, Note_on_c, 0, 85, 101
2, 316080, Note_on_c, 0, 88, 101
2, 316320, Note_on_c, 0, 88, 0
2, 316320, Note_on_c, 0, 76, 0
2, 316320, Note_on_c, 0, 81, 0
2, 316320, Note_on_c, 0, 85, 0
2, 316320, Note_on_c, 0, 74, 101
2, 316320, Note_on_c, 0, 78, 101
2, 316320, Note_on_c, 0, 81, 101
2, 316320, Note_on_c, 0, 86, 101
2, 316560, Note_on_c, 0, 86, 0
2, 316560, Note_on_c, 0, 74, 0
2, 316560, Note_on_c, 0, 78, 0
2, 316560, Note_on_c, 0, 81, 0
2, 316560, Note_on_c, 0, 81, 101
2, 316800, Note_on_c, 0, 81, 0
2, 316800, Note_on_c, 0, 74, 101
2, 316800, Note_on_c, 0, 78, 101
2, 316800, Note_on_c, 0, 81, 101
2, 316800, Note_on_c, 0, 86, 101
2, 317040, Note_on_c, 0, 86, 0
2, 317040, Note_on_c, 0, 74, 0
2, 317040, Note_on_c, 0, 78, 0
2, 317040, Note_on_c, 0, 81, 0
2, 317040, Note_on_c, 0, 85, 101
2, 317160, Note_on_c, 0, 85, 0
2, 317160, Note_on_c, 0, 83, 101
2, 317280, Note_on_c, 0, 83, 0
2, 317280, Note_on_c, 0, 81, 101
2, 317400, Note_on_c, 0, 81, 0
2, 317400, Note_on_c, 0, 83, 101
2, 317520, Note_on_c, 0, 83, 0
2, 317520, Note_on_c, 0, 81, 101
2, 317640, Note_on_c, 0, 81, 0
2, 317640, Note_on_c, 0, 79, 101
2, 317760, Note_on_c, 0, 79, 0
2, 317760, Note_on_c, 0, 78, 101
2, 317880, Note_on_c, 0, 78, 0
2, 317880, Note_on_c, 0, 76, 101
2, 318000, Note_on_c, 0, 76, 0
2, 318000, Note_on_c, 0, 74, 101
2, 318120, Note_on_c, 0, 74, 0
2, 318120, Note_on_c, 0, 76, 101
2, 318240, Note_on_c, 0, 76, 0
2, 318240, Note_on_c, 0, 78, 101
2, 318360, Note_on_c, 0, 78, 0
2, 318360, Note_on_c, 0, 76, 101
2, 318480, Note_on_c, 0, 76, 0
2, 318480, Note_on_c, 0, 78, 101
2, 318600, Note_on_c, 0, 78, 0
2, 318600, Note_on_c, 0, 79, 101
2, 318720, Note_on_c, 0, 79, 0
2, 318720, Note_on_c, 0, 81, 101
2, 318840, Note_on_c, 0, 81, 0
2, 318840, Note_on_c, 0, 79, 101
2, 318960, Note_on_c, 0, 79, 0
2, 318960, Note_on_c, 0, 78, 101
2, 319080, Note_on_c, 0, 78, 0
2, 319080, Note_on_c, 0, 79, 101
2, 319200, Note_on_c, 0, 79, 0
2, 319200, Note_on_c, 0, 81, 101
2, 319320, Note_on_c, 0, 81, 0
2, 319320, Note_on_c, 0, 83, 101
2, 319440, Note_on_c, 0, 83, 0
2, 319440, Note_on_c, 0, 81, 101
2, 319440, Note_on_c, 0, 85, 101
2, 319560, Note_on_c, 0, 85, 0
2, 319560, Note_on_c, 0, 81, 0
2, 319560, Note_on_c, 0, 83, 101
2, 319560, Note_on_c, 0, 86, 101
2, 319680, Note_on_c, 0, 86, 0
2, 319680, Note_on_c, 0, 83, 0
2, 319680, Note_on_c, 0, 76, 101
2, 319680, Note_on_c, 0, 81, 101
2, 319680, Note_on_c, 0, 85, 101
2, 319680, Note_on_c, 0, 88, 101
2, 319920, Note_on_c, 0, 88, 0
2, 319920, Note_on_c, 0, 76, 0
2, 319920, Note_on_c, 0, 81, 0
2, 319920, Note_on_c, 0, 85, 0
2, 319920, Note_on_c, 0, 78, 101
2, 319920, Note_on_c, 0, 81, 101
2, 319920, Note_on_c, 0, 86, 101
2, 319920, Note_on_c, 0, 90, 101
2, 320160, Note_on_c, 0, 90, 0
2, 320160, Note_on_c, 0, 78, 0
2, 320160, Note_on_c, 0, 81, 0
2, 320160, Note_on_c, 0, 86, 0
2, 320160, Note_on_c, 0, 76, 101
2, 320160, Note_on_c, 0, 81, 101
2, 320160, Note_on_c, 0, 85, 101
2, 320160, Note_on_c, 0, 88, 101
2, 320400, Note_on_c, 0, 88, 0
2, 320400, Note_on_c, 0, 76, 0
2, 320400, Note_on_c, 0, 81, 0
2, 320400, Note_on_c, 0, 85, 0
2, 320400, Note_on_c, 0, 81, 101
2, 320640, Note_on_c, 0, 81, 0
2, 320640, Note_on_c, 0, 74, 101
2, 320640, Note_on_c, 0, 78, 101
2, 320640, Note_on_c, 0, 86, 101
2, 321120, Note_on_c, 0, 86, 0
2, 321120, Note_on_c, 0, 78, 0
2, 321120, Note_on_c, 0, 74, 0
2, 321120, Note_on_c, 0, 74, 101
2, 321120, Note_on_c, 0, 79, 101
2, 321120, Note_on_c, 0, 86, 101
2, 321600, Note_on_c, 0, 86, 0
2, 321600, Note_on_c, 0, 79, 0
2, 321600, Note_on_c, 0, 74, 0
2, 321600, Note_on_c, 0, 74, 101
2, 321600, Note_on_c, 0, 80, 101
2, 321600, Note_on_c, 0, 86, 101
2, 322080, Note_on_c, 0, 86, 0
2, 322080, Note_on_c, 0, 80, 0
2, 322080, Note_on_c, 0, 74, 0
2, 322080, Note_on_c, 0, 74, 101
2, 322080, Note_on_c, 0, 81, 101
2, 322080, Note_on_c, 0, 86, 101
2, 322560, Note_on_c, 0, 86, 0
2, 322560, Note_on_c, 0, 81, 0
2, 322560, Note_on_c, 0, 74, 0
2, 322560, Note_on_c, 0, 74, 101
2, 322560, Note_on_c, 0, 79, 101
2, 322560, Note_on_c, 0, 82, 101
2, 322560, Note_on_c, 0, 86, 101
2, 323040, Note_on_c, 0, 86, 0
2, 323040, Note_on_c, 0, 74, 0
2, 323040, Note_on_c, 0, 79, 0
2, 323040, Note_on_c, 0, 82, 0
2, 323040, Note_on_c, 0, 77, 101
2, 323040, Note_on_c, 0, 83, 101
2, 323040, Note_on_c, 0, 86, 101
2, 323160, Note_on_c, 0, 86, 0
2, 323160, Note_on_c, 0, 83, 0
2, 323160, Note_on_c, 0, 77, 0
2, 323160, Note_on_c, 0, 85, 101
2, 323280, Note_on_c, 0, 85, 0
2, 323280, Note_on_c, 0, 86, 101
2, 323400, Note_on_c, 0, 86, 0
2, 323400, Note_on_c, 0, 88, 101
2, 323520, Note_on_c, 0, 88, 0
2, 323520, Note_on_c, 0, 78, 101
2, 323520, Note_on_c, 0, 81, 101
2, 323520, Note_on_c, 0, 86, 101
2, 323520, Note_on_c, 0, 90, 101
2, 323760, Note_on_c, 0, 90, 0
2, 323760, Note_on_c, 0, 78, 0
2, 323760, Note_on_c, 0, 81, 0
2, 323760, Note_on_c, 0, 86, 0
2, 323760, Note_on_c, 0, 76, 101
2, 323760, Note_on_c, 0, 81, 101
2, 323760, Note_on_c, 0, 85, 101
2, 323760, Note_on_c, 0, 88, 101
2, 324000, Note_on_c, 0, 88, 0
2, 324000, Note_on_c, 0, 76, 0
2, 324000, Note_on_c, 0, 81, 0
2, 324000, Note_on_c, 0, 85, 0
2, 324000, Note_on_c, 0, 74, 101
2, 324000, Note_on_c, 0, 78, 101
2, 324000, Note_on_c, 0, 81, 101
2, 324000, Note_on_c, 0, 86, 101
2, 324240, Note_on_c, 0, 86, 0
2, 324240, Note_on_c, 0, 74, 0
2, 324240, Note_on_c, 0, 78, 0
2, 324240, Note_on_c, 0, 81, 0
2, 324240, Note_on_c, 0, 81, 101
2, 324480, Note_on_c, 0, 81, 0
2, 324480, Note_on_c, 0, 74, 101
2, 324480, Note_on_c, 0, 78, 101
2, 324480, Note_on_c, 0, 81, 101
2, 324480, Note_on_c, 0, 86, 101
2, 324720, Note_on_c, 0, 86, 0
2, 324720, Note_on_c, 0, 74, 0
2, 324720, Note_on_c, 0, 78, 0
2, 324720, Note_on_c, 0, 81, 0
2, 324720, Note_on_c, 0, 85, 101
2, 324840, Note_on_c, 0, 85, 0
2, 324840, Note_on_c, 0, 83, 101
2, 324960, Note_on_c, 0, 83, 0
2, 324960, Note_on_c, 0, 81, 101
2, 325080, Note_on_c, 0, 81, 0
2, 325080, Note_on_c, 0, 83, 101
2, 325200, Note_on_c, 0, 83, 0
2, 325200, Note_on_c, 0, 81, 101
2, 325320, Note_on_c, 0, 81, 0
2, 325320, Note_on_c, 0, 79, 101
2, 325440, Note_on_c, 0, 79, 0
2, 325440, Note_on_c, 0, 78, 101
2, 325560, Note_on_c, 0, 78, 0
2, 325560, Note_on_c, 0, 76, 101
2, 325680, Note_on_c, 0, 76, 0
2, 325680, Note_on_c, 0, 74, 101
2, 325800, Note_on_c, 0, 74, 0
2, 325800, Note_on_c, 0, 76, 101
2, 325920, Note_on_c, 0, 76, 0
2, 325920, Note_on_c, 0, 78, 101
2, 326040, Note_on_c, 0, 78, 0
2, 326040, Note_on_c, 0, 76, 101
2, 326160, Note_on_c, 0, 76, 0
2, 326160, Note_on_c, 0, 78, 101
2, 326280, Note_on_c, 0, 78, 0
2, 326280, Note_on_c, 0, 79, 101
2, 326400, Note_on_c, 0, 79, 0
2, 326400, Note_on_c, 0, 81, 101
2, 326520, Note_on_c, 0, 81, 0
2, 326520, Note_on_c, 0, 79, 101
2, 326640, Note_on_c, 0, 79, 0
2, 326640, Note_on_c, 0, 78, 101
2, 326760, Note_on_c, 0, 78, 0
2, 326760, Note_on_c, 0, 79, 101
2, 326880, Note_on_c, 0, 79, 0
2, 326880, Note_on_c, 0, 81, 101
2, 327000, Note_on_c, 0, 81, 0
2, 327000, Note_on_c, 0, 83, 101
2, 327120, Note_on_c, 0, 83, 0
2, 327120, Note_on_c, 0, 81, 101
2, 327120, Note_on_c, 0, 85, 101
2, 327240, Note_on_c, 0, 85, 0
2, 327240, Note_on_c, 0, 81, 0
2, 327240, Note_on_c, 0, 83, 101
2, 327240, Note_on_c, 0, 86, 101
2, 327360, Note_on_c, 0, 86, 0
2, 327360, Note_on_c, 0, 83, 0
2, 327360, Note_on_c, 0, 81, 101
2, 327360, Note_on_c, 0, 85, 101
2, 327360, Note_on_c, 0, 88, 101
2, 327600, Note_on_c, 0, 88, 0
2, 327600, Note_on_c, 0, 85, 0
2, 327600, Note_on_c, 0, 81, 0
2, 327600, Note_on_c, 0, 79, 101
2, 327600, Note_on_c, 0, 81, 101
2, 327600, Note_on_c, 0, 85, 101
2, 327600, Note_on_c, 0, 90, 101
2, 327840, Note_on_c, 0, 90, 0
2, 327840, Note_on_c, 0, 79, 0
2, 327840, Note_on_c, 0, 81, 0
2, 327840, Note_on_c, 0, 85, 0
2, 327840, Note_on_c, 0, 78, 127
2, 327840, Note_on_c, 0, 81, 127
2, 327840, Note_on_c, 0, 86, 127
2, 328080, Note_on_c, 0, 86, 0
2, 328080, Note_on_c, 0, 81, 0
2, 328080, Note_on_c, 0, 78, 0
2, 328080, Control_c, 0, 64, 127
2, 329760, Control_c, 0, 64, 0
2, 329760, End_track
3, 0, Start_track
3, 0, Title_t, "Grand Piano"
3, 0, Program_c, 0, 0
3, 0, Control_c, 0, 7, 115
3, 0, Control_c, 0, 10, 80
3, 17439, Note_on_c, 0, 49, 62
3, 17439, Note_on_c, 0, 54, 62
3, 17439, Note_on_c, 0, 58, 62
3, 17600, Note_on_c, 0, 58, 0
3, 17600, Note_on_c, 0, 54, 0
3, 17600, Note_on_c, 0, 49, 0
3, 17600, Note_on_c, 0, 54, 62
3, 17600, Note_on_c, 0, 58, 62
3, 17760, Note_on_c, 0, 58, 0
3, 17760, Note_on_c, 0, 54, 0
3, 19359, Note_on_c, 0, 52, 62
3, 19359, Note_on_c, 0, 55, 62
3, 19520, Note_on_c, 0, 55, 0
3, 19520, Note_on_c, 0, 52, 0
3, 19520, Note_on_c, 0, 55, 62
3, 19520, Note_on_c, 0, 64, 62
3, 19680, Note_on_c, 0, 64, 0
3, 19680, Note_on_c, 0, 55, 0
3, 21120, Note_on_c, 0, 49, 62
3, 21120, Note_on_c, 0, 59, 62
3, 21120, Note_on_c, 0, 64, 62
3, 21279, Note_on_c, 0, 64, 0
3, 21279, Note_on_c, 0, 59, 0
3, 21279, Note_on_c, 0, 49, 0
3, 21279, Note_on_c, 0, 64, 62
3, 21279, Note_on_c, 0, 67, 62
3, 21440, Note_on_c, 0, 67, 0
3, 21440, Note_on_c, 0, 64, 0
3, 21440, Note_on_c, 0, 64, 62
3, 21440, Note_on_c, 0, 67, 62
3, 21440, Note_on_c, 0, 71, 62
3, 21600, Note_on_c, 0, 71, 0
3, 21600, Note_on_c, 0, 67, 0
3, 21600, Note_on_c, 0, 64, 0
3, 34080, Note_on_c, 0, 74, 75
3, 34320, Note_on_c, 0, 74, 0
3, 34320, Note_on_c, 0, 76, 75
3, 34560, Note_on_c, 0, 76, 0
3, 34560, Control_c, 0, 64, 127
3, 34560, Note_on_c, 0, 74, 75
3, 34800, Note_on_c, 0, 74, 0
3, 34800, Note_on_c, 0, 72, 75
3, 35040, Note_on_c, 0, 72, 0
3, 35040, Note_on_c, 0, 69, 75
3, 35280, Note_on_c, 0, 69, 0
3, 35280, Control_c, 0, 64, 0
3, 35280, Note_on_c, 0, 71, 75
3, 35520, Note_on_c, 0, 71, 0
3, 35520, Control_c, 0, 64, 127
3, 35520, Note_on_c, 0, 69, 75
3, 35760, Note_on_c, 0, 69, 0
3, 35760, Note_on_c, 0, 67, 75
3, 36000, Note_on_c, 0, 67, 0
3, 36000, Note_on_c, 0, 64, 75
3, 36240, Note_on_c, 0, 64, 0
3, 36240, Control_c, 0, 64, 0
3, 36240, Note_on_c, 0, 67, 75
3, 36480, Note_on_c, 0, 67, 0
3, 38400, Note_on_c, 0, 48, 62
3, 38400, Note_on_c, 0, 60, 62
3, 40320, Note_on_c, 0, 60, 0
3, 40320, Note_on_c, 0, 48, 0
3, 40320, Note_on_c, 0, 48, 75
3, 40320, Note_on_c, 0, 60, 75
3, 42240, Note_on_c, 0, 60, 0
3, 42240, Note_on_c, 0, 48, 0
3, 42240, Note_on_c, 0, 48, 49
3, 42240, Note_on_c, 0, 60, 49
3, 44160, Note_on_c, 0, 60, 0
3, 44160, Note_on_c, 0, 48, 0
3, 44160, Note_on_c, 0, 48, 75
3, 44160, Note_on_c, 0, 60, 75
3, 46080, Note_on_c, 0, 60, 0
3, 46080, Note_on_c, 0, 48, 0
3, 46080, Note_on_c, 0, 48, 75
3, 46080, Note_on_c, 0, 60, 75
3, 48000, Note_on_c, 0, 60, 0
3, 48000, Note_on_c, 0, 48, 0
3, 48000, Note_on_c, 0, 48, 49
3, 48000, Note_on_c, 0, 60, 49
3, 49920, Note_on_c, 0, 60, 0
3, 49920, Note_on_c, 0, 48, 0
3, 49920, Note_on_c, 0, 48, 49
3, 49920, Note_on_c, 0, 60, 49
3, 51840, Note_on_c, 0, 60, 0
3, 51840, Note_on_c, 0, 48, 0
3, 51840, Note_on_c, 0, 48, 49
3, 51840, Note_on_c, 0, 60, 49
3, 53760, Note_on_c, 0, 60, 0
3, 53760, Note_on_c, 0, 48, 0
3, 53760, Note_on_c, 0, 48, 49
3, 53760, Note_on_c, 0, 60, 49
3, 55680, Note_on_c, 0, 60, 0
3, 55680, Note_on_c, 0, 48, 0
3, 55680, Note_on_c, 0, 49, 75
3, 55680, Note_on_c, 0, 61, 75
3, 57600, Note_on_c, 0, 61, 0
3, 57600, Note_on_c, 0, 49, 0
3, 57600, Note_on_c, 0, 49, 75
3, 57600, Note_on_c, 0, 57, 75
3, 57600, Note_on_c, 0, 61, 75
3, 59520, Note_on_c, 0, 61, 0
3, 59520, Note_on_c, 0, 57, 0
3, 59520, Note_on_c, 0, 49, 0
3, 59520, Note_on_c, 0, 50, 101
3, 59520, Note_on_c, 0, 62, 101
3, 61440, Note_on_c, 0, 62, 0
3, 61440, Note_on_c, 0, 50, 0
3, 61440, Note_on_c, 0, 50, 75
3, 61440, Note_on_c, 0, 59, 75
3, 61440, Note_on_c, 0, 62, 75
3, 62400, Note_on_c, 0, 62, 0
3, 62400, Note_on_c, 0, 59, 0
3, 62400, Note_on_c, 0, 50, 0
3, 63360, Note_on_c, 0, 62, 62
3, 63600, Note_on_c, 0, 62, 0
3, 63600, Control_c, 0, 64, 127
3, 63600, Note_on_c, 0, 62, 62
3, 63840, Note_on_c, 0, 62, 0
3, 63840, Note_on_c, 0, 61, 62
3, 64080, Note_on_c, 0, 61, 0
3, 64080, Note_on_c, 0, 59, 62
3, 64320, Note_on_c, 0, 59, 0
3, 64320, Control_c, 0, 64, 0
3, 64320, Note_on_c, 0, 57, 62
3, 64320, Note_on_c, 0, 61, 62
3, 64560, Note_on_c, 0, 61, 0
3, 64560, Note_on_c, 0, 57, 0
3, 64800, Note_on_c, 0, 61, 62
3, 64800, Note_on_c, 0, 64, 62
3, 65040, Note_on_c, 0, 64, 0
3, 65040, Note_on_c, 0, 61, 0
3, 65280, Note_on_c, 0, 64, 75
3, 65520, Note_on_c, 0, 64, 0
3, 65520, Control_c, 0, 64, 127
3, 65520, Note_on_c, 0, 64, 75
3, 65760, Note_on_c, 0, 64, 0
3, 65760, Note_on_c, 0, 62, 75
3, 66000, Note_on_c, 0, 62, 0
3, 66000, Note_on_c, 0, 61, 75
3, 66240, Note_on_c, 0, 61, 0
3, 66240, Control_c, 0, 64, 0
3, 66240, Note_on_c, 0, 59, 75
3, 66240, Note_on_c, 0, 62, 75
3, 66480, Note_on_c, 0, 62, 0
3, 66480, Note_on_c, 0, 59, 0
3, 66720, Note_on_c, 0, 62, 75
3, 66720, Note_on_c, 0, 66, 75
3, 66960, Note_on_c, 0, 66, 0
3, 66960, Note_on_c, 0, 62, 0
3, 84000, Note_on_c, 0, 74, 88
3, 84000, Note_on_c, 0, 77, 88
3, 84159, Note_on_c, 0, 77, 0
3, 84159, Note_on_c, 0, 74, 0
3, 84159, Note_on_c, 0, 74, 88
3, 84159, Note_on_c, 0, 77, 88
3, 84320, Note_on_c, 0, 77, 0
3, 84320, Note_on_c, 0, 74, 0
3, 84320, Note_on_c, 0, 74, 88
3, 84320, Note_on_c, 0, 77, 88
3, 84480, Note_on_c, 0, 77, 0
3, 84480, Note_on_c, 0, 74, 0
3, 84480, Note_on_c, 0, 74, 88
3, 84480, Note_on_c, 0, 77, 88
3, 84639, Note_on_c, 0, 77, 0
3, 84639, Note_on_c, 0, 74, 0
3, 84639, Note_on_c, 0, 74, 88
3, 84639, Note_on_c, 0, 77, 88
3, 84800, Note_on_c, 0, 77, 0
3, 84800, Note_on_c, 0, 74, 0
3, 84800, Note_on_c, 0, 74, 88
3, 84800, Note_on_c, 0, 77, 88
3, 84960, Note_on_c, 0, 77, 0
3, 84960, Note_on_c, 0, 74, 0
3, 84960, Note_on_c, 0, 74, 88
3, 84960, Note_on_c, 0, 77, 88
3, 85119, Note_on_c, 0, 77, 0
3, 85119, Note_on_c, 0, 74, 0
3, 85119, Note_on_c, 0, 74, 88
3, 85119, Note_on_c, 0, 77, 88
3, 85280, Note_on_c, 0, 77, 0
3, 85280, Note_on_c, 0, 74, 0
3, 85280, Note_on_c, 0, 74, 88
3, 85280, Note_on_c, 0, 77, 88
3, 85440, Note_on_c, 0, 77, 0
3, 85440, Note_on_c, 0, 74, 0
3, 85440, Note_on_c, 0, 74, 88
3, 85440, Note_on_c, 0, 77, 88
3, 85599, Note_on_c, 0, 77, 0
3, 85599, Note_on_c, 0, 74, 0
3, 85599, Note_on_c, 0, 74, 88
3, 85599, Note_on_c, 0, 77, 88
3, 85760, Note_on_c, 0, 77, 0
3, 85760, Note_on_c, 0, 74, 0
3, 85760, Note_on_c, 0, 74, 88
3, 85760, Note_on_c, 0, 77, 88
3, 85920, Note_on_c, 0, 77, 0
3, 85920, Note_on_c, 0, 74, 0
3, 85920, Note_on_c, 0, 74, 88
3, 85920, Note_on_c, 0, 77, 88
3, 86079, Note_on_c, 0, 77, 0
3, 86079, Note_on_c, 0, 74, 0
3, 86079, Note_on_c, 0, 74, 88
3, 86079, Note_on_c, 0, 77, 88
3, 86240, Note_on_c, 0, 77, 0
3, 86240, Note_on_c, 0, 74, 0
3, 86240, Note_on_c, 0, 74, 88
3, 86240, Note_on_c, 0, 77, 88
3, 86400, Note_on_c, 0, 77, 0
3, 86400, Note_on_c, 0, 74, 0
3, 86400, Note_on_c, 0, 74, 88
3, 86400, Note_on_c, 0, 77, 88
3, 86559, Note_on_c, 0, 77, 0
3, 86559, Note_on_c, 0, 74, 0
3, 86559, Note_on_c, 0, 74, 88
3, 86559, Note_on_c, 0, 77, 88
3, 86720, Note_on_c, 0, 77, 0
3, 86720, Note_on_c, 0, 74, 0
3, 86720, Note_on_c, 0, 74, 88
3, 86720, Note_on_c, 0, 77, 88
3, 86880, Note_on_c, 0, 77, 0
3, 86880, Note_on_c, 0, 74, 0
3, 86880, Note_on_c, 0, 74, 88
3, 86880, Note_on_c, 0, 77, 88
3, 87039, Note_on_c, 0, 77, 0
3, 87039, Note_on_c, 0, 74, 0
3, 87039, Note_on_c, 0, 74, 88
3, 87039, Note_on_c, 0, 77, 88
3, 87200, Note_on_c, 0, 77, 0
3, 87200, Note_on_c, 0, 74, 0
3, 87200, Note_on_c, 0, 74, 88
3, 87200, Note_on_c, 0, 77, 88
3, 87360, Note_on_c, 0, 77, 0
3, 87360, Note_on_c, 0, 74, 0
3, 87360, Note_on_c, 0, 74, 88
3, 87360, Note_on_c, 0, 77, 88
3, 87519, Note_on_c, 0, 77, 0
3, 87519, Note_on_c, 0, 74, 0
3, 87519, Note_on_c, 0, 74, 88
3, 87519, Note_on_c, 0, 77, 88
3, 87680, Note_on_c, 0, 77, 0
3, 87680, Note_on_c, 0, 74, 0
3, 87680, Note_on_c, 0, 74, 88
3, 87680, Note_on_c, 0, 77, 88
3, 87840, Note_on_c, 0, 77, 0
3, 87840, Note_on_c, 0, 74, 0
3, 87840, Note_on_c, 0, 74, 88
3, 87840, Note_on_c, 0, 77, 88
3, 87999, Note_on_c, 0, 77, 0
3, 87999, Note_on_c, 0, 74, 0
3, 87999, Note_on_c, 0, 74, 88
3, 87999, Note_on_c, 0, 77, 88
3, 88160, Note_on_c, 0, 77, 0
3, 88160, Note_on_c, 0, 74, 0
3, 88160, Note_on_c, 0, 74, 88
3, 88160, Note_on_c, 0, 77, 88
3, 88320, Note_on_c, 0, 77, 0
3, 88320, Note_on_c, 0, 74, 0
3, 88320, Note_on_c, 0, 74, 88
3, 88320, Note_on_c, 0, 77, 88
3, 88479, Note_on_c, 0, 77, 0
3, 88479, Note_on_c, 0, 74, 0
3, 88479, Note_on_c, 0, 74, 88
3, 88479, Note_on_c, 0, 77, 88
3, 88640, Note_on_c, 0, 77, 0
3, 88640, Note_on_c, 0, 74, 0
3, 88640, Note_on_c, 0, 74, 88
3, 88640, Note_on_c, 0, 77, 88
3, 88800, Note_on_c, 0, 77, 0
3, 88800, Note_on_c, 0, 74, 0
3, 88800, Note_on_c, 0, 74, 88
3, 88800, Note_on_c, 0, 77, 88
3, 88959, Note_on_c, 0, 77, 0
3, 88959, Note_on_c, 0, 74, 0
3, 88959, Note_on_c, 0, 74, 88
3, 88959, Note_on_c, 0, 77, 88
3, 89120, Note_on_c, 0, 77, 0
3, 89120, Note_on_c, 0, 74, 0
3, 89120, Note_on_c, 0, 74, 88
3, 89120, Note_on_c, 0, 77, 88
3, 89280, Note_on_c, 0, 77, 0
3, 89280, Note_on_c, 0, 74, 0
3, 89280, Note_on_c, 0, 74, 88
3, 89280, Note_on_c, 0, 77, 88
3, 89439, Note_on_c, 0, 77, 0
3, 89439, Note_on_c, 0, 74, 0
3, 89439, Note_on_c, 0, 74, 88
3, 89439, Note_on_c, 0, 77, 88
3, 89600, Note_on_c, 0, 77, 0
3, 89600, Note_on_c, 0, 74, 0
3, 89600, Note_on_c, 0, 74, 88
3, 89600, Note_on_c, 0, 77, 88
3, 89760, Note_on_c, 0, 77, 0
3, 89760, Note_on_c, 0, 74, 0
3, 89760, Note_on_c, 0, 74, 88
3, 89760, Note_on_c, 0, 77, 88
3, 89919, Note_on_c, 0, 77, 0
3, 89919, Note_on_c, 0, 74, 0
3, 89919, Note_on_c, 0, 74, 88
3, 89919, Note_on_c, 0, 77, 88
3, 90080, Note_on_c, 0, 77, 0
3, 90080, Note_on_c, 0, 74, 0
3, 90080, Note_on_c, 0, 74, 88
3, 90080, Note_on_c, 0, 77, 88
3, 90240, Note_on_c, 0, 77, 0
3, 90240, Note_on_c, 0, 74, 0
3, 96000, Note_on_c, 0, 69, 127
3, 96000, Note_on_c, 0, 74, 127
3, 96000, Note_on_c, 0, 77, 127
3, 96960, Note_on_c, 0, 77, 0
3, 96960, Note_on_c, 0, 74, 0
3, 96960, Note_on_c, 0, 69, 0
3, 97920, Note_on_c, 0, 67, 101
3, 97920, Note_on_c, 0, 69, 101
3, 97920, Note_on_c, 0, 73, 101
3, 98400, Note_on_c, 0, 73, 0
3, 98400, Note_on_c, 0, 69, 0
3, 98400, Note_on_c, 0, 67, 0
3, 99840, Note_on_c, 0, 62, 101
3, 99840, Note_on_c, 0, 65, 101
3, 99840, Note_on_c, 0, 70, 101
3, 100800, Note_on_c, 0, 70, 0
3, 100800, Note_on_c, 0, 65, 0
3, 100800, Note_on_c, 0, 62, 0
3, 100800, Note_on_c, 0, 62, 101
3, 100800, Note_on_c, 0, 64, 101
3, 101760, Note_on_c, 0, 64, 0
3, 101760, Note_on_c, 0, 62, 0
3, 101760, Note_on_c, 0, 61, 101
3, 101760, Note_on_c, 0, 64, 101
3, 103680, Note_on_c, 0, 64, 0
3, 103680, Note_on_c, 0, 61, 0
3, 103680, Note_on_c, 0, 57, 62
3, 103680, Note_on_c, 0, 62, 62
3, 103680, Note_on_c, 0, 65, 62
3, 104640, Note_on_c, 0, 65, 0
3, 104640, Note_on_c, 0, 62, 0
3, 104640, Note_on_c, 0, 57, 0
3, 105600, Note_on_c, 0, 55, 62
3, 105600, Note_on_c, 0, 57, 62
3, 105600, Note_on_c, 0, 61, 62
3, 106080, Note_on_c, 0, 61, 0
3, 106080, Note_on_c, 0, 57, 0
3, 106080, Note_on_c, 0, 55, 0
3, 107520, Note_on_c, 0, 50, 62
3, 107520, Note_on_c, 0, 53, 62
3, 107520, Note_on_c, 0, 58, 62
3, 108480, Note_on_c, 0, 58, 0
3, 108480, Note_on_c, 0, 53, 0
3, 108480, Note_on_c, 0, 50, 0
3, 108480, Note_on_c, 0, 50, 62
3, 108480, Note_on_c, 0, 52, 62
3, 109440, Note_on_c, 0, 52, 0
3, 109440, Note_on_c, 0, 50, 0
3, 109440, Note_on_c, 0, 49, 62
3, 109440, Note_on_c, 0, 52, 62
3, 109920, Note_on_c, 0, 52, 0
3, 109920, Note_on_c, 0, 49, 0
3, 134400, Note_on_c, 0, 62, 75
3, 134400, Note_on_c, 0, 66, 75
3, 134880, Note_on_c, 0, 66, 0
3, 134880, Note_on_c, 0, 62, 0
3, 220800, Note_on_c, 0, 66, 62
3, 221760, Note_on_c, 0, 66, 0
3, 228480, Note_on_c, 0, 66, 62
3, 229440, Note_on_c, 0, 66, 0
3, 261120, Note_on_c, 0, 73, 62
3, 261240, Note_on_c, 0, 73, 0
3, 261240, Note_on_c, 0, 64, 62
3, 261360, Note_on_c, 0, 64, 0
3, 261360, Note_on_c, 0, 73, 62
3, 261600, Note_on_c, 0, 73, 0
3, 261600, Note_on_c, 0, 73, 62
3, 261720, Note_on_c, 0, 73, 0
3, 261720, Note_on_c, 0, 64, 62
3, 261840, Note_on_c, 0, 64, 0
3, 261840, Note_on_c, 0, 73, 62
3, 262080, Note_on_c, 0, 73, 0
3, 262080, Note_on_c, 0, 74, 62
3, 262200, Note_on_c, 0, 74, 0
3, 262200, Note_on_c, 0, 64, 62
3, 262320, Note_on_c, 0, 64, 0
3, 262320, Note_on_c, 0, 74, 62
3, 262560, Note_on_c, 0, 74, 0
3, 262560, Note_on_c, 0, 74, 62
3, 262680, Note_on_c, 0, 74, 0
3, 262680, Note_on_c, 0, 64, 62
3, 262800, Note_on_c, 0, 64, 0
3, 262800, Note_on_c, 0, 74, 62
3, 263040, Note_on_c, 0, 74, 0
3, 263040, Note_on_c, 0, 76, 62
3, 263160, Note_on_c, 0, 76, 0
3, 263160, Note_on_c, 0, 64, 62
3, 263280, Note_on_c, 0, 64, 0
3, 263280, Note_on_c, 0, 76, 62
3, 263520, Note_on_c, 0, 76, 0
3, 263520, Note_on_c, 0, 78, 62
3, 263640, Note_on_c, 0, 78, 0
3, 263640, Note_on_c, 0, 66, 62
3, 263760, Note_on_c, 0, 66, 0
3, 263760, Note_on_c, 0, 78, 62
3, 264000, Note_on_c, 0, 78, 0
3, 264000, Note_on_c, 0, 76, 62
3, 264120, Note_on_c, 0, 76, 0
3, 264120, Note_on_c, 0, 64, 62
3, 264240, Note_on_c, 0, 64, 0
3, 264240, Note_on_c, 0, 76, 62
3, 264480, Note_on_c, 0, 76, 0
3, 264480, Note_on_c, 0, 74, 62
3, 264600, Note_on_c, 0, 74, 0
3, 264600, Note_on_c, 0, 68, 62
3, 264720, Note_on_c, 0, 68, 0
3, 264720, Note_on_c, 0, 74, 62
3, 264960, Note_on_c, 0, 74, 0
3, 264960, Note_on_c, 0, 73, 62
3, 265080, Note_on_c, 0, 73, 0
3, 265080, Note_on_c, 0, 69, 62
3, 265200, Note_on_c, 0, 69, 0
3, 265200, Note_on_c, 0, 73, 62
3, 265440, Note_on_c, 0, 73, 0
3, 265440, Note_on_c, 0, 73, 62
3, 265560, Note_on_c, 0, 73, 0
3, 265560, Note_on_c, 0, 70, 62
3, 265680, Note_on_c, 0, 70, 0
3, 265680, Note_on_c, 0, 73, 62
3, 265920, Note_on_c, 0, 73, 0
3, 265920, Note_on_c, 0, 74, 62
3, 265920, Note_on_c, 0, 81, 62
3, 266040, Note_on_c, 0, 81, 0
3, 266040, Note_on_c, 0, 74, 0
3, 266040, Note_on_c, 0, 71, 62
3, 266160, Note_on_c, 0, 71, 0
3, 266160, Note_on_c, 0, 74, 62
3, 266400, Note_on_c, 0, 74, 0
3, 266400, End_track
4, 0, Start_track
4, 0, Title_t, "Grand Piano"
4, 0, Program_c, 0, 0
4, 0, Control_c, 0, 7, 115
4, 0, Control_c, 0, 10, 41
4, 480, Note_on_c, 0, 54, 49
4, 480, Note_on_c, 0, 59, 49
4, 480, Note_on_c, 0, 62, 49
4, 480, Note_on_c, 0, 66, 49
4, 1920, Note_on_c, 0, 66, 0
4, 1920, Note_on_c, 0, 54, 0
4, 1920, Note_on_c, 0, 59, 0
4, 1920, Note_on_c, 0, 62, 0
4, 2400, Note_on_c, 0, 54, 49
4, 2400, Note_on_c, 0, 58, 49
4, 2400, Note_on_c, 0, 64, 49
4, 2400, Note_on_c, 0, 66, 49
4, 3840, Note_on_c, 0, 66, 0
4, 3840, Note_on_c, 0, 54, 0
4, 3840, Note_on_c, 0, 58, 0
4, 3840, Note_on_c, 0, 64, 0
4, 4320, Note_on_c, 0, 59, 49
4, 4320, Note_on_c, 0, 62, 49
4, 4320, Note_on_c, 0, 66, 49
4, 4710, Note_on_c, 0, 52, 49
4, 4740, Note_on_c, 0, 59, 49
4, 4770, Note_on_c, 0, 62, 49
4, 4800, Note_on_c, 0, 66, 0
4, 4800, Note_on_c, 0, 59, 0
4, 4800, Note_on_c, 0, 62, 0
4, 4800, Note_on_c, 0, 67, 49
4, 5280, Note_on_c, 0, 67, 0
4, 5280, Note_on_c, 0, 62, 0
4, 5280, Note_on_c, 0, 59, 0
4, 5280, Note_on_c, 0, 52, 0
4, 6160, Note_on_c, 0, 49, 49
4, 6200, Note_on_c, 0, 59, 49
4, 6240, Note_on_c, 0, 64, 49
4, 6720, Note_on_c, 0, 64, 0
4, 6720, Note_on_c, 0, 59, 0
4, 6720, Note_on_c, 0, 49, 0
4, 7200, Note_on_c, 0, 54, 49
4, 7200, Note_on_c, 0, 58, 49
4, 7200, Note_on_c, 0, 64, 49
4, 7680, Note_on_c, 0, 64, 0
4, 7680, Note_on_c, 0, 58, 0
4, 7680, Note_on_c, 0, 54, 0
4, 7680, Note_on_c, 0, 59, 62
4, 8640, Note_on_c, 0, 59, 0
4, 8640, Control_c, 0, 64, 127
4, 8640, Note_on_c, 0, 61, 62
4, 8880, Note_on_c, 0, 61, 0
4, 8880, Note_on_c, 0, 62, 62
4, 9120, Note_on_c, 0, 62, 0
4, 9120, Note_on_c, 0, 64, 62
4, 9360, Note_on_c, 0, 64, 0
4, 9360, Control_c, 0, 64, 0
4, 9360, Note_on_c, 0, 61, 62
4, 9600, Note_on_c, 0, 61, 0
4, 9600, Note_on_c, 0, 59, 62
4, 10320, Note_on_c, 0, 59, 0
4, 10320, Note_on_c, 0, 58, 62
4, 10560, Note_on_c, 0, 58, 0
4, 10560, Note_on_c, 0, 57, 62
4, 11040, Note_on_c, 0, 57, 0
4, 11520, Note_on_c, 0, 55, 62
4, 12480, Note_on_c, 0, 55, 0
4, 12480, Control_c, 0, 64, 127
4, 12480, Note_on_c, 0, 61, 62
4, 12720, Note_on_c, 0, 61, 0
4, 12720, Note_on_c, 0, 62, 62
4, 12960, Note_on_c, 0, 62, 0
4, 12960, Note_on_c, 0, 61, 62
4, 13200, Note_on_c, 0, 61, 0
4, 13200, Control_c, 0, 64, 0
4, 13200, Note_on_c, 0, 59, 62
4, 13440, Note_on_c, 0, 59, 0
4, 13440, Note_on_c, 0, 57, 62
4, 14160, Note_on_c, 0, 57, 0
4, 14160, Note_on_c, 0, 55, 62
4, 14400, Note_on_c, 0, 55, 0
4, 14400, Note_on_c, 0, 54, 62
4, 15360, Note_on_c, 0, 54, 0
4, 15360, Note_on_c, 0, 66, 75
4, 16320, Note_on_c, 0, 66, 0
4, 16320, Control_c, 0, 64, 127
4, 16320, Note_on_c, 0, 64, 75
4, 16560, Note_on_c, 0, 64, 0
4, 16560, Note_on_c, 0, 62, 75
4, 16800, Note_on_c, 0, 62, 0
4, 16800, Note_on_c, 0, 61, 75
4, 17040, Note_on_c, 0, 61, 0
4, 17040, Control_c, 0, 64, 0
4, 17040, Note_on_c, 0, 59, 75
4, 17280, Note_on_c, 0, 59, 0
4, 17280, Note_on_c, 0, 61, 75
4, 18000, Note_on_c, 0, 61, 0
4, 18000, Note_on_c, 0, 58, 75
4, 18240, Note_on_c, 0, 58, 0
4, 18240, Note_on_c, 0, 54, 75
4, 18480, Note_on_c, 0, 54, 0
4, 18480, Note_on_c, 0, 61, 75
4, 18720, Note_on_c, 0, 61, 0
4, 18720, Note_on_c, 0, 62, 75
4, 18960, Note_on_c, 0, 62, 0
4, 18960, Note_on_c, 0, 64, 75
4, 19200, Note_on_c, 0, 64, 0
4, 19200, Note_on_c, 0, 59, 75
4, 20160, Note_on_c, 0, 59, 0
4, 20400, Note_on_c, 0, 59, 75
4, 20640, Note_on_c, 0, 59, 0
4, 20640, Note_on_c, 0, 61, 75
4, 20880, Note_on_c, 0, 61, 0
4, 20880, Note_on_c, 0, 62, 75
4, 21120, Note_on_c, 0, 62, 0
4, 21120, Note_on_c, 0, 55, 101
4, 22080, Note_on_c, 0, 55, 0
4, 22080, Note_on_c, 0, 54, 101
4, 23040, Note_on_c, 0, 54, 0
4, 23040, Note_on_c, 0, 59, 49
4, 23280, Note_on_c, 0, 59, 0
4, 23280, Note_on_c, 0, 59, 49
4, 23520, Note_on_c, 0, 59, 0
4, 23520, Note_on_c, 0, 61, 49
4, 23760, Note_on_c, 0, 61, 0
4, 23760, Note_on_c, 0, 62, 49
4, 24000, Note_on_c, 0, 62, 0
4, 24000, Note_on_c, 0, 52, 49
4, 24000, Note_on_c, 0, 55, 49
4, 24000, Note_on_c, 0, 57, 49
4, 24000, Note_on_c, 0, 64, 49
4, 24960, Note_on_c, 0, 64, 0
4, 24960, Note_on_c, 0, 52, 0
4, 24960, Note_on_c, 0, 55, 0
4, 24960, Note_on_c, 0, 57, 0
4, 24960, Note_on_c, 0, 56, 49
4, 24960, Note_on_c, 0, 59, 49
4, 24960, Note_on_c, 0, 65, 49
4, 25440, Note_on_c, 0, 65, 0
4, 25440, Note_on_c, 0, 59, 0
4, 25440, Note_on_c, 0, 56, 0
4, 25440, Note_on_c, 0, 54, 49
4, 25440, Note_on_c, 0, 62, 49
4, 25440, Note_on_c, 0, 66, 49
4, 26310, Note_on_c, 0, 48, 49
4, 26340, Note_on_c, 0, 54, 49
4, 26370, Note_on_c, 0, 57, 49
4, 26400, Note_on_c, 0, 66, 0
4, 26400, Note_on_c, 0, 54, 0
4, 26400, Note_on_c, 0, 62, 0
4, 26400, Note_on_c, 0, 62, 49
4, 26880, Note_on_c, 0, 62, 0
4, 26880, Note_on_c, 0, 57, 0
4, 26880, Note_on_c, 0, 54, 0
4, 26880, Note_on_c, 0, 48, 0
4, 27280, Note_on_c, 0, 47, 49
4, 27320, Note_on_c, 0, 55, 49
4, 27360, Note_on_c, 0, 62, 49
4, 27780, Note_on_c, 0, 46, 49
4, 27840, Note_on_c, 0, 62, 0
4, 27840, Note_on_c, 0, 47, 0
4, 27840, Note_on_c, 0, 55, 0
4, 27840, Note_on_c, 0, 54, 49
4, 27840, Note_on_c, 0, 61, 49
4, 27840, Note_on_c, 0, 64, 49
4, 28800, Note_on_c, 0, 64, 0
4, 28800, Note_on_c, 0, 46, 0
4, 28800, Note_on_c, 0, 54, 0
4, 28800, Note_on_c, 0, 61, 0
4, 29190, Note_on_c, 0, 45, 62
4, 29220, Note_on_c, 0, 51, 62
4, 29250, Note_on_c, 0, 54, 62
4, 29280, Note_on_c, 0, 59, 62
4, 29670, Note_on_c, 0, 43, 62
4, 29700, Note_on_c, 0, 52, 62
4, 29730, Note_on_c, 0, 55, 62
4, 29760, Note_on_c, 0, 59, 0
4, 29760, Note_on_c, 0, 54, 0
4, 29760, Note_on_c, 0, 45, 0
4, 29760, Note_on_c, 0, 51, 0
4, 29760, Note_on_c, 0, 59, 62
4, 30240, Note_on_c, 0, 59, 0
4, 30240, Note_on_c, 0, 52, 0
4, 30240, Note_on_c, 0, 43, 0
4, 30240, Note_on_c, 0, 55, 0
4, 31110, Note_on_c, 0, 42, 62
4, 31140, Note_on_c, 0, 45, 62
4, 31170, Note_on_c, 0, 47, 62
4, 31200, Note_on_c, 0, 54, 62
4, 31680, Note_on_c, 0, 54, 0
4, 31680, Note_on_c, 0, 42, 0
4, 31680, Note_on_c, 0, 45, 0
4, 31680, Note_on_c, 0, 47, 0
4, 32160, Note_on_c, 0, 40, 62
4, 32160, Note_on_c, 0, 43, 62
4, 32160, Note_on_c, 0, 47, 62
4, 32160, Note_on_c, 0, 52, 62
4, 32640, Note_on_c, 0, 52, 0
4, 32640, Note_on_c, 0, 40, 0
4, 32640, Note_on_c, 0, 43, 0
4, 32640, Note_on_c, 0, 47, 0
4, 33030, Note_on_c, 0, 38, 75
4, 33060, Note_on_c, 0, 43, 75
4, 33090, Note_on_c, 0, 47, 75
4, 33120, Note_on_c, 0, 53, 75
4, 33510, Note_on_c, 0, 36, 75
4, 33540, Note_on_c, 0, 43, 75
4, 33570, Note_on_c, 0, 48, 75
4, 33600, Note_on_c, 0, 53, 0
4, 33600, Note_on_c, 0, 47, 0
4, 33600, Note_on_c, 0, 38, 0
4, 33600, Note_on_c, 0, 43, 0
4, 33600, Note_on_c, 0, 52, 75
4, 34080, Note_on_c, 0, 52, 0
4, 34080, Note_on_c, 0, 43, 0
4, 34080, Note_on_c, 0, 36, 0
4, 34080, Note_on_c, 0, 48, 0
4, 36480, Control_c, 0, 64, 127
4, 36480, Note_on_c, 0, 62, 62
4, 36720, Note_on_c, 0, 62, 0
4, 36720, Note_on_c, 0, 60, 62
4, 36960, Note_on_c, 0, 60, 0
4, 36960, Note_on_c, 0, 57, 62
4, 37200, Note_on_c, 0, 57, 0
4, 37200, Control_c, 0, 64, 0
4, 37200, Note_on_c, 0, 59, 62
4, 37440, Note_on_c, 0, 59, 0
4, 37440, Control_c, 0, 64, 127
4, 37440, Note_on_c, 0, 57, 62
4, 37680, Note_on_c, 0, 57, 0
4, 37680, Note_on_c, 0, 55, 62
4, 37920, Note_on_c, 0, 55, 0
4, 37920, Note_on_c, 0, 52, 62
4, 38160, Note_on_c, 0, 52, 0
4, 38160, Control_c, 0, 64, 0
4, 38160, Note_on_c, 0, 55, 62
4, 38400, Note_on_c, 0, 55, 0
4, 38880, Note_on_c, 0, 40, 62
4, 38880, Note_on_c, 0, 52, 62
4, 38976, Note_on_c, 0, 52, 0
4, 38976, Note_on_c, 0, 40, 0
4, 39360, Note_on_c, 0, 46, 62
4, 39360, Note_on_c, 0, 58, 62
4, 39456, Note_on_c, 0, 58, 0
4, 39456, Note_on_c, 0, 46, 0
4, 40800, Note_on_c, 0, 40, 62
4, 40800, Note_on_c, 0, 52, 62
4, 40896, Note_on_c, 0, 52, 0
4, 40896, Note_on_c, 0, 40, 0
4, 41280, Note_on_c, 0, 46, 62
4, 41280, Note_on_c, 0, 58, 62
4, 41376, Note_on_c, 0, 58, 0
4, 41376, Note_on_c, 0, 46, 0
4, 42720, Note_on_c, 0, 38, 62
4, 42720, Note_on_c, 0, 50, 62
4, 42816, Note_on_c, 0, 50, 0
4, 42816, Note_on_c, 0, 38, 0
4, 43200, Note_on_c, 0, 44, 62
4, 43200, Note_on_c, 0, 56, 62
4, 43296, Note_on_c, 0, 56, 0
4, 43296, Note_on_c, 0, 44, 0
4, 44640, Note_on_c, 0, 29, 62
4, 44640, Note_on_c, 0, 41, 62
4, 44736, Note_on_c, 0, 41, 0
4, 44736, Note_on_c, 0, 29, 0
4, 45120, Note_on_c, 0, 38, 62
4, 45120, Note_on_c, 0, 50, 62
4, 45216, Note_on_c, 0, 50, 0
4, 45216, Note_on_c, 0, 38, 0
4, 46560, Note_on_c, 0, 28, 62
4, 46560, Note_on_c, 0, 40, 62
4, 46656, Note_on_c, 0, 40, 0
4, 46656, Note_on_c, 0, 28, 0
4, 47040, Note_on_c, 0, 36, 62
4, 47040, Note_on_c, 0, 48, 62
4, 47136, Note_on_c, 0, 48, 0
4, 47136, Note_on_c, 0, 36, 0
4, 48480, Note_on_c, 0, 34, 62
4, 48480, Note_on_c, 0, 46, 62
4, 48576, Note_on_c, 0, 46, 0
4, 48576, Note_on_c, 0, 34, 0
4, 48960, Note_on_c, 0, 46, 62
4, 48960, Note_on_c, 0, 58, 62
4, 49056, Note_on_c, 0, 58, 0
4, 49056, Note_on_c, 0, 46, 0
4, 50400, Note_on_c, 0, 38, 62
4, 50400, Note_on_c, 0, 50, 62
4, 50496, Note_on_c, 0, 50, 0
4, 50496, Note_on_c, 0, 38, 0
4, 50880, Note_on_c, 0, 44, 62
4, 50880, Note_on_c, 0, 56, 62
4, 50976, Note_on_c, 0, 56, 0
4, 50976, Note_on_c, 0, 44, 0
4, 52320, Note_on_c, 0, 29, 62
4, 52320, Note_on_c, 0, 41, 62
4, 52416, Note_on_c, 0, 41, 0
4, 52416, Note_on_c, 0, 29, 0
4, 52800, Note_on_c, 0, 38, 62
4, 52800, Note_on_c, 0, 50, 62
4, 52896, Note_on_c, 0, 50, 0
4, 52896, Note_on_c, 0, 38, 0
4, 54240, Note_on_c, 0, 28, 62
4, 54240, Note_on_c, 0, 40, 62
4, 54336, Note_on_c, 0, 40, 0
4, 54336, Note_on_c, 0, 28, 0
4, 54720, Note_on_c, 0, 36, 62
4, 54720, Note_on_c, 0, 48, 62
4, 54816, Note_on_c, 0, 48, 0
4, 54816, Note_on_c, 0, 36, 0
4, 56160, Note_on_c, 0, 29, 75
4, 56160, Note_on_c, 0, 41, 75
4, 56256, Note_on_c, 0, 41, 0
4, 56256, Note_on_c, 0, 29, 0
4, 56640, Note_on_c, 0, 37, 75
4, 56640, Note_on_c, 0, 49, 75
4, 56736, Note_on_c, 0, 49, 0
4, 56736, Note_on_c, 0, 37, 0
4, 58080, Note_on_c, 0, 30, 75
4, 58080, Note_on_c, 0, 42, 75
4, 58176, Note_on_c, 0, 42, 0
4, 58176, Note_on_c, 0, 30, 0
4, 58560, Note_on_c, 0, 37, 75
4, 58656, Note_on_c, 0, 37, 0
4, 60000, Note_on_c, 0, 30, 75
4, 60000, Note_on_c, 0, 42, 75
4, 60096, Note_on_c, 0, 42, 0
4, 60096, Note_on_c, 0, 30, 0
4, 60480, Note_on_c, 0, 38, 75
4, 60576, Note_on_c, 0, 38, 0
4, 61920, Note_on_c, 0, 31, 75
4, 61920, Note_on_c, 0, 43, 75
4, 62016, Note_on_c, 0, 43, 0
4, 62016, Note_on_c, 0, 31, 0
4, 62400, Note_on_c, 0, 38, 75
4, 62496, Note_on_c, 0, 38, 0
4, 63600, Note_on_c, 0, 32, 75
4, 63600, Note_on_c, 0, 44, 75
4, 63647, Note_on_c, 0, 44, 0
4, 63647, Note_on_c, 0, 32, 0
4, 63840, Note_on_c, 0, 40, 75
4, 63840, Note_on_c, 0, 52, 75
4, 63887, Note_on_c, 0, 52, 0
4, 63887, Note_on_c, 0, 40, 0
4, 64560, Note_on_c, 0, 33, 75
4, 64560, Note_on_c, 0, 45, 75
4, 64607, Note_on_c, 0, 45, 0
4, 64607, Note_on_c, 0, 33, 0
4, 64800, Note_on_c, 0, 40, 75
4, 64800, Note_on_c, 0, 52, 75
4, 64847, Note_on_c, 0, 52, 0
4, 64847, Note_on_c, 0, 40, 0
4, 65520, Note_on_c, 0, 34, 75
4, 65520, Note_on_c, 0, 46, 75
4, 65567, Note_on_c, 0, 46, 0
4, 65567, Note_on_c, 0, 34, 0
4, 65760, Note_on_c, 0, 42, 75
4, 65760, Note_on_c, 0, 54, 75
4, 65807, Note_on_c, 0, 54, 0
4, 65807, Note_on_c, 0, 42, 0
4, 66480, Note_on_c, 0, 35, 75
4, 66480, Note_on_c, 0, 47, 75
4, 66527, Note_on_c, 0, 47, 0
4, 66527, Note_on_c, 0, 35, 0
4, 66720, Note_on_c, 0, 42, 75
4, 66720, Note_on_c, 0, 54, 75
4, 66767, Note_on_c, 0, 54, 0
4, 66767, Note_on_c, 0, 42, 0
4, 67200, Note_on_c, 0, 35, 127
4, 67200, Note_on_c, 0, 47, 127
4, 67440, Note_on_c, 0, 47, 0
4, 67440, Note_on_c, 0, 35, 0
4, 67680, Note_on_c, 0, 47, 101
4, 67680, Note_on_c, 0, 59, 101
4, 68640, Note_on_c, 0, 59, 0
4, 68640, Note_on_c, 0, 47, 0
4, 68640, Note_on_c, 0, 46, 101
4, 68640, Note_on_c, 0, 58, 101
4, 69000, Note_on_c, 0, 58, 0
4, 69000, Note_on_c, 0, 46, 0
4, 69000, Note_on_c, 0, 47, 101
4, 69000, Note_on_c, 0, 59, 101
4, 69120, Note_on_c, 0, 59, 0
4, 69120, Note_on_c, 0, 47, 0
4, 69120, Note_on_c, 0, 47, 101
4, 69120, Note_on_c, 0, 59, 101
4, 69151, Note_on_c, 0, 59, 0
4, 69151, Note_on_c, 0, 47, 0
4, 69279, Control_c, 0, 64, 127
4, 69279, Note_on_c, 0, 59, 88
4, 69440, Note_on_c, 0, 59, 0
4, 69440, Note_on_c, 0, 50, 88
4, 69440, Note_on_c, 0, 53, 88
4, 69600, Note_on_c, 0, 53, 0
4, 69600, Note_on_c, 0, 50, 0
4, 69600, Note_on_c, 0, 50, 88
4, 69600, Note_on_c, 0, 53, 88
4, 69759, Note_on_c, 0, 53, 0
4, 69759, Note_on_c, 0, 50, 0
4, 69759, Note_on_c, 0, 59, 88
4, 69920, Note_on_c, 0, 59, 0
4, 69920, Note_on_c, 0, 50, 88
4, 69920, Note_on_c, 0, 53, 88
4, 70080, Note_on_c, 0, 53, 0
4, 70080, Note_on_c, 0, 50, 0
4, 70080, Note_on_c, 0, 50, 88
4, 70080, Note_on_c, 0, 53, 88
4, 70239, Note_on_c, 0, 53, 0
4, 70239, Note_on_c, 0, 50, 0
4, 70239, Note_on_c, 0, 59, 88
4, 70400, Note_on_c, 0, 59, 0
4, 70400, Note_on_c, 0, 50, 88
4, 70400, Note_on_c, 0, 53, 88
4, 70560, Note_on_c, 0, 53, 0
4, 70560, Note_on_c, 0, 50, 0
4, 70560, Note_on_c, 0, 50, 88
4, 70560, Note_on_c, 0, 53, 88
4, 70719, Note_on_c, 0, 53, 0
4, 70719, Note_on_c, 0, 50, 0
4, 70719, Note_on_c, 0, 59, 88
4, 70880, Note_on_c, 0, 59, 0
4, 70880, Control_c, 0, 64, 0
4, 70880, Note_on_c, 0, 50, 88
4, 70880, Note_on_c, 0, 53, 88
4, 71040, Note_on_c, 0, 53, 0
4, 71040, Note_on_c, 0, 50, 0
4, 71040, Note_on_c, 0, 35, 101
4, 71040, Note_on_c, 0, 47, 101
4, 71280, Note_on_c, 0, 47, 0
4, 71280, Note_on_c, 0, 35, 0
4, 71520, Note_on_c, 0, 47, 101
4, 71520, Note_on_c, 0, 59, 101
4, 72480, Note_on_c, 0, 59, 0
4, 72480, Note_on_c, 0, 47, 0
4, 72480, Note_on_c, 0, 46, 101
4, 72480, Note_on_c, 0, 58, 101
4, 72840, Note_on_c, 0, 58, 0
4, 72840, Note_on_c, 0, 46, 0
4, 72840, Note_on_c, 0, 47, 101
4, 72840, Note_on_c, 0, 59, 101
4, 72960, Note_on_c, 0, 59, 0
4, 72960, Note_on_c, 0, 47, 0
4, 72960, Note_on_c, 0, 47, 101
4, 72960, Note_on_c, 0, 59, 101
4, 72991, Note_on_c, 0, 59, 0
4, 72991, Note_on_c, 0, 47, 0
4, 73119, Control_c, 0, 64, 127
4, 73119, Note_on_c, 0, 59, 88
4, 73280, Note_on_c, 0, 59, 0
4, 73280, Note_on_c, 0, 50, 88
4, 73280, Note_on_c, 0, 53, 88
4, 73440, Note_on_c, 0, 53, 0
4, 73440, Note_on_c, 0, 50, 0
4, 73440, Note_on_c, 0, 50, 88
4, 73440, Note_on_c, 0, 53, 88
4, 73599, Note_on_c, 0, 53, 0
4, 73599, Note_on_c, 0, 50, 0
4, 73599, Note_on_c, 0, 59, 88
4, 73760, Note_on_c, 0, 59, 0
4, 73760, Note_on_c, 0, 50, 88
4, 73760, Note_on_c, 0, 53, 88
4, 73920, Note_on_c, 0, 53, 0
4, 73920, Note_on_c, 0, 50, 0
4, 73920, Note_on_c, 0, 50, 88
4, 73920, Note_on_c, 0, 53, 88
4, 74079, Note_on_c, 0, 53, 0
4, 74079, Note_on_c, 0, 50, 0
4, 74079, Note_on_c, 0, 59, 88
4, 74240, Note_on_c, 0, 59, 0
4, 74240, Note_on_c, 0, 50, 88
4, 74240, Note_on_c, 0, 53, 88
4, 74400, Note_on_c, 0, 53, 0
4, 74400, Note_on_c, 0, 50, 0
4, 74400, Note_on_c, 0, 50, 88
4, 74400, Note_on_c, 0, 53, 88
4, 74559, Note_on_c, 0, 53, 0
4, 74559, Note_on_c, 0, 50, 0
4, 74559, Note_on_c, 0, 59, 88
4, 74720, Note_on_c, 0, 59, 0
4, 74720, Control_c, 0, 64, 0
4, 74720, Note_on_c, 0, 50, 88
4, 74720, Note_on_c, 0, 53, 88
4, 74880, Note_on_c, 0, 53, 0
4, 74880, Note_on_c, 0, 50, 0
4, 74880, Note_on_c, 0, 34, 101
4, 74880, Note_on_c, 0, 46, 101
4, 75120, Note_on_c, 0, 46, 0
4, 75120, Note_on_c, 0, 34, 0
4, 75360, Note_on_c, 0, 46, 101
4, 75360, Note_on_c, 0, 58, 101
4, 76320, Note_on_c, 0, 58, 0
4, 76320, Note_on_c, 0, 46, 0
4, 76320, Note_on_c, 0, 45, 101
4, 76320, Note_on_c, 0, 57, 101
4, 76680, Note_on_c, 0, 57, 0
4, 76680, Note_on_c, 0, 45, 0
4, 76680, Note_on_c, 0, 46, 101
4, 76680, Note_on_c, 0, 58, 101
4, 76800, Note_on_c, 0, 58, 0
4, 76800, Note_on_c, 0, 46, 0
4, 76800, Note_on_c, 0, 46, 101
4, 76800, Note_on_c, 0, 58, 101
4, 76959, Note_on_c, 0, 58, 0
4, 76959, Note_on_c, 0, 46, 0
4, 76959, Control_c, 0, 64, 127
4, 76959, Note_on_c, 0, 61, 88
4, 77120, Note_on_c, 0, 61, 0
4, 77120, Note_on_c, 0, 52, 88
4, 77120, Note_on_c, 0, 55, 88
4, 77280, Note_on_c, 0, 55, 0
4, 77280, Note_on_c, 0, 52, 0
4, 77280, Note_on_c, 0, 52, 88
4, 77280, Note_on_c, 0, 55, 88
4, 77439, Note_on_c, 0, 55, 0
4, 77439, Note_on_c, 0, 52, 0
4, 77439, Note_on_c, 0, 61, 88
4, 77600, Note_on_c, 0, 61, 0
4, 77600, Note_on_c, 0, 52, 88
4, 77600, Note_on_c, 0, 55, 88
4, 77760, Note_on_c, 0, 55, 0
4, 77760, Note_on_c, 0, 52, 0
4, 77760, Note_on_c, 0, 52, 88
4, 77760, Note_on_c, 0, 55, 88
4, 77919, Note_on_c, 0, 55, 0
4, 77919, Note_on_c, 0, 52, 0
4, 77919, Note_on_c, 0, 61, 88
4, 78080, Note_on_c, 0, 61, 0
4, 78080, Note_on_c, 0, 52, 88
4, 78080, Note_on_c, 0, 55, 88
4, 78240, Note_on_c, 0, 55, 0
4, 78240, Note_on_c, 0, 52, 0
4, 78240, Note_on_c, 0, 52, 88
4, 78240, Note_on_c, 0, 55, 88
4, 78399, Note_on_c, 0, 55, 0
4, 78399, Note_on_c, 0, 52, 0
4, 78399, Note_on_c, 0, 61, 88
4, 78560, Note_on_c, 0, 61, 0
4, 78560, Control_c, 0, 64, 0
4, 78560, Note_on_c, 0, 52, 88
4, 78560, Note_on_c, 0, 55, 88
4, 78720, Note_on_c, 0, 55, 0
4, 78720, Note_on_c, 0, 52, 0
4, 78720, Note_on_c, 0, 34, 101
4, 78720, Note_on_c, 0, 46, 101
4, 78960, Note_on_c, 0, 46, 0
4, 78960, Note_on_c, 0, 34, 0
4, 79200, Note_on_c, 0, 46, 101
4, 79200, Note_on_c, 0, 58, 101
4, 80160, Note_on_c, 0, 58, 0
4, 80160, Note_on_c, 0, 46, 0
4, 80160, Note_on_c, 0, 45, 101
4, 80160, Note_on_c, 0, 57, 101
4, 80520, Note_on_c, 0, 57, 0
4, 80520, Note_on_c, 0, 45, 0
4, 80520, Note_on_c, 0, 46, 101
4, 80520, Note_on_c, 0, 58, 101
4, 80640, Note_on_c, 0, 58, 0
4, 80640, Note_on_c, 0, 46, 0
4, 80640, Note_on_c, 0, 46, 101
4, 80640, Note_on_c, 0, 58, 101
4, 80799, Note_on_c, 0, 58, 0
4, 80799, Note_on_c, 0, 46, 0
4, 80799, Control_c, 0, 64, 127
4, 80799, Note_on_c, 0, 61, 88
4, 80960, Note_on_c, 0, 61, 0
4, 80960, Note_on_c, 0, 52, 88
4, 80960, Note_on_c, 0, 55, 88
4, 81120, Note_on_c, 0, 55, 0
4, 81120, Note_on_c, 0, 52, 0
4, 81120, Note_on_c, 0, 52, 88
4, 81120, Note_on_c, 0, 55, 88
4, 81279, Note_on_c, 0, 55, 0
4, 81279, Note_on_c, 0, 52, 0
4, 81279, Note_on_c, 0, 61, 88
4, 81440, Note_on_c, 0, 61, 0
4, 81440, Note_on_c, 0, 52, 88
4, 81440, Note_on_c, 0, 55, 88
4, 81600, Note_on_c, 0, 55, 0
4, 81600, Note_on_c, 0, 52, 0
4, 81600, Note_on_c, 0, 52, 88
4, 81600, Note_on_c, 0, 55, 88
4, 81759, Note_on_c, 0, 55, 0
4, 81759, Note_on_c, 0, 52, 0
4, 81759, Note_on_c, 0, 61, 88
4, 81920, Note_on_c, 0, 61, 0
4, 81920, Note_on_c, 0, 52, 88
4, 81920, Note_on_c, 0, 55, 88
4, 82080, Note_on_c, 0, 55, 0
4, 82080, Note_on_c, 0, 52, 0
4, 82080, Note_on_c, 0, 52, 88
4, 82080, Note_on_c, 0, 55, 88
4, 82239, Note_on_c, 0, 55, 0
4, 82239, Note_on_c, 0, 52, 0
4, 82239, Note_on_c, 0, 61, 88
4, 82400, Note_on_c, 0, 61, 0
4, 82400, Control_c, 0, 64, 0
4, 82400, Note_on_c, 0, 52, 88
4, 82400, Note_on_c, 0, 55, 88
4, 82560, Note_on_c, 0, 55, 0
4, 82560, Note_on_c, 0, 52, 0
4, 82560, Control_c, 0, 64, 127
4, 82560, Note_on_c, 0, 44, 88
4, 82719, Note_on_c, 0, 44, 0
4, 82719, Note_on_c, 0, 50, 88
4, 82719, Note_on_c, 0, 53, 88
4, 82880, Note_on_c, 0, 53, 0
4, 82880, Note_on_c, 0, 50, 0
4, 82880, Note_on_c, 0, 56, 88
4, 83040, Note_on_c, 0, 56, 0
4, 83040, Note_on_c, 0, 50, 88
4, 83040, Note_on_c, 0, 53, 88
4, 83199, Note_on_c, 0, 53, 0
4, 83199, Note_on_c, 0, 50, 0
4, 83199, Note_on_c, 0, 56, 88
4, 83360, Note_on_c, 0, 56, 0
4, 83360, Note_on_c, 0, 50, 88
4, 83360, Note_on_c, 0, 53, 88
4, 83520, Note_on_c, 0, 53, 0
4, 83520, Note_on_c, 0, 50, 0
4, 83520, Note_on_c, 0, 50, 88
4, 83520, Note_on_c, 0, 53, 88
4, 83679, Note_on_c, 0, 53, 0
4, 83679, Note_on_c, 0, 50, 0
4, 83679, Note_on_c, 0, 56, 88
4, 83840, Note_on_c, 0, 56, 0
4, 83840, Control_c, 0, 64, 0
4, 83840, Note_on_c, 0, 50, 88
4, 83840, Note_on_c, 0, 53, 88
4, 84000, Note_on_c, 0, 53, 0
4, 84000, Note_on_c, 0, 50, 0
4, 84000, Note_on_c, 0, 44, 101
4, 84000, Note_on_c, 0, 50, 101
4, 84000, Note_on_c, 0, 53, 101
4, 84000, Note_on_c, 0, 56, 101
4, 84360, Note_on_c, 0, 56, 0
4, 84360, Note_on_c, 0, 44, 0
4, 84360, Note_on_c, 0, 50, 0
4, 84360, Note_on_c, 0, 53, 0
4, 84360, Note_on_c, 0, 43, 101
4, 84360, Note_on_c, 0, 55, 101
4, 84480, Note_on_c, 0, 55, 0
4, 84480, Note_on_c, 0, 43, 0
4, 84480, Note_on_c, 0, 43, 127
4, 84480, Note_on_c, 0, 55, 127
4, 84960, Note_on_c, 0, 55, 0
4, 84960, Note_on_c, 0, 43, 0
4, 84960, Note_on_c, 0, 44, 101
4, 84960, Note_on_c, 0, 50, 101
4, 84960, Note_on_c, 0, 53, 101
4, 84960, Note_on_c, 0, 56, 101
4, 85200, Note_on_c, 0, 56, 0
4, 85200, Note_on_c, 0, 44, 0
4, 85200, Note_on_c, 0, 50, 0
4, 85200, Note_on_c, 0, 53, 0
4, 85920, Note_on_c, 0, 44, 101
4, 85920, Note_on_c, 0, 50, 101
4, 85920, Note_on_c, 0, 53, 101
4, 85920, Note_on_c, 0, 56, 101
4, 86280, Note_on_c, 0, 56, 0
4, 86280, Note_on_c, 0, 44, 0
4, 86280, Note_on_c, 0, 50, 0
4, 86280, Note_on_c, 0, 53, 0
4, 86280, Note_on_c, 0, 43, 101
4, 86280, Note_on_c, 0, 55, 101
4, 86400, Note_on_c, 0, 55, 0
4, 86400, Note_on_c, 0, 43, 0
4, 86400, Note_on_c, 0, 43, 127
4, 86400, Note_on_c, 0, 55, 127
4, 86880, Note_on_c, 0, 55, 0
4, 86880, Note_on_c, 0, 43, 0
4, 86880, Note_on_c, 0, 44, 101
4, 86880, Note_on_c, 0, 50, 101
4, 86880, Note_on_c, 0, 53, 101
4, 86880, Note_on_c, 0, 56, 101
4, 87120, Note_on_c, 0, 56, 0
4, 87120, Note_on_c, 0, 44, 0
4, 87120, Note_on_c, 0, 50, 0
4, 87120, Note_on_c, 0, 53, 0
4, 87360, Note_on_c, 0, 44, 101
4, 87360, Note_on_c, 0, 50, 101
4, 87360, Note_on_c, 0, 53, 101
4, 87360, Note_on_c, 0, 56, 101
4, 87600, Note_on_c, 0, 56, 0
4, 87600, Note_on_c, 0, 44, 0
4, 87600, Note_on_c, 0, 50, 0
4, 87600, Note_on_c, 0, 53, 0
4, 87840, Note_on_c, 0, 44, 101
4, 87840, Note_on_c, 0, 50, 101
4, 87840, Note_on_c, 0, 53, 101
4, 87840, Note_on_c, 0, 56, 101
4, 88080, Note_on_c, 0, 56, 0
4, 88080, Note_on_c, 0, 44, 0
4, 88080, Note_on_c, 0, 50, 0
4, 88080, Note_on_c, 0, 53, 0
4, 88320, Note_on_c, 0, 44, 101
4, 88320, Note_on_c, 0, 50, 101
4, 88320, Note_on_c, 0, 53, 101
4, 88320, Note_on_c, 0, 56, 101
4, 88560, Note_on_c, 0, 56, 0
4, 88560, Note_on_c, 0, 44, 0
4, 88560, Note_on_c, 0, 50, 0
4, 88560, Note_on_c, 0, 53, 0
4, 88800, Note_on_c, 0, 44, 101
4, 88800, Note_on_c, 0, 50, 101
4, 88800, Note_on_c, 0, 53, 101
4, 88800, Note_on_c, 0, 56, 101
4, 89040, Note_on_c, 0, 56, 0
4, 89040, Note_on_c, 0, 44, 0
4, 89040, Note_on_c, 0, 50, 0
4, 89040, Note_on_c, 0, 53, 0
4, 89280, Note_on_c, 0, 44, 101
4, 89280, Note_on_c, 0, 50, 101
4, 89280, Note_on_c, 0, 53, 101
4, 89280, Note_on_c, 0, 56, 101
4, 89520, Note_on_c, 0, 56, 0
4, 89520, Note_on_c, 0, 44, 0
4, 89520, Note_on_c, 0, 50, 0
4, 89520, Note_on_c, 0, 53, 0
4, 89760, Note_on_c, 0, 44, 101
4, 89760, Note_on_c, 0, 50, 101
4, 89760, Note_on_c, 0, 53, 101
4, 89760, Note_on_c, 0, 56, 101
4, 90000, Note_on_c, 0, 56, 0
4, 90000, Note_on_c, 0, 44, 0
4, 90000, Note_on_c, 0, 50, 0
4, 90000, Note_on_c, 0, 53, 0
4, 90240, Note_on_c, 0, 43, 75
4, 90240, Note_on_c, 0, 55, 75
4, 90720, Note_on_c, 0, 55, 0
4, 90720, Note_on_c, 0, 43, 0
4, 90720, Note_on_c, 0, 42, 75
4, 90720, Note_on_c, 0, 54, 75
4, 91200, Note_on_c, 0, 54, 0
4, 91200, Note_on_c, 0, 42, 0
4, 91200, Note_on_c, 0, 41, 88
4, 91200, Note_on_c, 0, 53, 88
4, 91680, Note_on_c, 0, 53, 0
4, 91680, Note_on_c, 0, 41, 0
4, 91680, Note_on_c, 0, 40, 88
4, 91680, Note_on_c, 0, 52, 88
4, 92160, Note_on_c, 0, 52, 0
4, 92160, Note_on_c, 0, 40, 0
4, 92160, Note_on_c, 0, 38, 101
4, 92160, Note_on_c, 0, 50, 101
4, 92640, Note_on_c, 0, 50, 0
4, 92640, Note_on_c, 0, 38, 0
4, 92640, Note_on_c, 0, 37, 101
4, 92640, Note_on_c, 0, 49, 101
4, 93120, Note_on_c, 0, 49, 0
4, 93120, Note_on_c, 0, 37, 0
4, 93120, Note_on_c, 0, 35, 101
4, 93120, Note_on_c, 0, 47, 101
4, 93600, Note_on_c, 0, 47, 0
4, 93600, Note_on_c, 0, 35, 0
4, 93600, Note_on_c, 0, 34, 101
4, 93600, Note_on_c, 0, 46, 101
4, 94080, Note_on_c, 0, 46, 0
4, 94080, Note_on_c, 0, 34, 0
4, 94080, Control_c, 0, 64, 127
4, 94080, Note_on_c, 0, 33, 114
4, 94160, Note_on_c, 0, 33, 0
4, 94160, Note_on_c, 0, 45, 114
4, 94239, Note_on_c, 0, 45, 0
4, 94239, Note_on_c, 0, 33, 88
4, 94320, Note_on_c, 0, 33, 0
4, 94320, Note_on_c, 0, 45, 88
4, 94400, Note_on_c, 0, 45, 0
4, 94400, Note_on_c, 0, 33, 88
4, 94479, Note_on_c, 0, 33, 0
4, 94479, Note_on_c, 0, 45, 88
4, 94560, Note_on_c, 0, 45, 0
4, 94560, Note_on_c, 0, 33, 88
4, 94640, Note_on_c, 0, 33, 0
4, 94640, Note_on_c, 0, 45, 88
4, 94719, Note_on_c, 0, 45, 0
4, 94719, Note_on_c, 0, 33, 88
4, 94800, Note_on_c, 0, 33, 0
4, 94800, Note_on_c, 0, 45, 88
4, 94880, Note_on_c, 0, 45, 0
4, 94880, Note_on_c, 0, 33, 88
4, 94959, Note_on_c, 0, 33, 0
4, 94959, Note_on_c, 0, 45, 88
4, 95040, Note_on_c, 0, 45, 0
4, 95040, Note_on_c, 0, 33, 75
4, 95120, Note_on_c, 0, 33, 0
4, 95120, Note_on_c, 0, 45, 75
4, 95199, Note_on_c, 0, 45, 0
4, 95199, Note_on_c, 0, 33, 75
4, 95280, Note_on_c, 0, 33, 0
4, 95280, Note_on_c, 0, 45, 75
4, 95360, Note_on_c, 0, 45, 0
4, 95360, Note_on_c, 0, 33, 75
4, 95439, Note_on_c, 0, 33, 0
4, 95439, Note_on_c, 0, 45, 75
4, 95520, Note_on_c, 0, 45, 0
4, 95520, Note_on_c, 0, 33, 75
4, 95600, Note_on_c, 0, 33, 0
4, 95600, Note_on_c, 0, 45, 75
4, 95679, Note_on_c, 0, 45, 0
4, 95679, Note_on_c, 0, 33, 75
4, 95760, Note_on_c, 0, 33, 0
4, 95760, Note_on_c, 0, 45, 75
4, 95840, Note_on_c, 0, 45, 0
4, 95840, Note_on_c, 0, 33, 75
4, 95919, Note_on_c, 0, 33, 0
4, 95919, Control_c, 0, 64, 0
4, 95919, Note_on_c, 0, 45, 75
4, 96000, Note_on_c, 0, 45, 0
4, 96000, Control_c, 0, 64, 127
4, 96000, Note_on_c, 0, 33, 75
4, 96080, Note_on_c, 0, 33, 0
4, 96080, Note_on_c, 0, 45, 75
4, 96159, Note_on_c, 0, 45, 0
4, 96159, Note_on_c, 0, 33, 75
4, 96240, Note_on_c, 0, 33, 0
4, 96240, Note_on_c, 0, 45, 75
4, 96320, Note_on_c, 0, 45, 0
4, 96320, Note_on_c, 0, 33, 75
4, 96399, Note_on_c, 0, 33, 0
4, 96399, Note_on_c, 0, 45, 75
4, 96480, Note_on_c, 0, 45, 0
4, 96480, Note_on_c, 0, 33, 75
4, 96560, Note_on_c, 0, 33, 0
4, 96560, Note_on_c, 0, 45, 75
4, 96639, Note_on_c, 0, 45, 0
4, 96639, Note_on_c, 0, 33, 75
4, 96720, Note_on_c, 0, 33, 0
4, 96720, Note_on_c, 0, 45, 75
4, 96800, Note_on_c, 0, 45, 0
4, 96800, Note_on_c, 0, 33, 75
4, 96879, Note_on_c, 0, 33, 0
4, 96879, Note_on_c, 0, 45, 75
4, 96960, Note_on_c, 0, 45, 0
4, 96960, Note_on_c, 0, 33, 75
4, 97040, Note_on_c, 0, 33, 0
4, 97040, Note_on_c, 0, 45, 75
4, 97119, Note_on_c, 0, 45, 0
4, 97119, Note_on_c, 0, 33, 75
4, 97200, Note_on_c, 0, 33, 0
4, 97200, Note_on_c, 0, 45, 75
4, 97280, Note_on_c, 0, 45, 0
4, 97280, Note_on_c, 0, 33, 75
4, 97359, Note_on_c, 0, 33, 0
4, 97359, Note_on_c, 0, 45, 75
4, 97440, Note_on_c, 0, 45, 0
4, 97440, Note_on_c, 0, 33, 75
4, 97520, Note_on_c, 0, 33, 0
4, 97520, Note_on_c, 0, 45, 75
4, 97599, Note_on_c, 0, 45, 0
4, 97599, Note_on_c, 0, 33, 75
4, 97680, Note_on_c, 0, 33, 0
4, 97680, Note_on_c, 0, 45, 75
4, 97760, Note_on_c, 0, 45, 0
4, 97760, Note_on_c, 0, 33, 75
4, 97839, Note_on_c, 0, 33, 0
4, 97839, Note_on_c, 0, 45, 75
4, 97920, Note_on_c, 0, 45, 0
4, 97920, Note_on_c, 0, 33, 75
4, 98000, Note_on_c, 0, 33, 0
4, 98000, Note_on_c, 0, 45, 75
4, 98079, Note_on_c, 0, 45, 0
4, 98079, Note_on_c, 0, 33, 75
4, 98160, Note_on_c, 0, 33, 0
4, 98160, Note_on_c, 0, 45, 75
4, 98240, Note_on_c, 0, 45, 0
4, 98240, Note_on_c, 0, 33, 75
4, 98319, Note_on_c, 0, 33, 0
4, 98319, Note_on_c, 0, 45, 75
4, 98400, Note_on_c, 0, 45, 0
4, 98400, Note_on_c, 0, 33, 75
4, 98480, Note_on_c, 0, 33, 0
4, 98480, Note_on_c, 0, 45, 75
4, 98559, Note_on_c, 0, 45, 0
4, 98559, Note_on_c, 0, 33, 75
4, 98640, Note_on_c, 0, 33, 0
4, 98640, Note_on_c, 0, 45, 75
4, 98720, Note_on_c, 0, 45, 0
4, 98720, Note_on_c, 0, 33, 75
4, 98799, Note_on_c, 0, 33, 0
4, 98799, Note_on_c, 0, 45, 75
4, 98880, Note_on_c, 0, 45, 0
4, 98880, Note_on_c, 0, 33, 75
4, 98960, Note_on_c, 0, 33, 0
4, 98960, Note_on_c, 0, 45, 75
4, 99039, Note_on_c, 0, 45, 0
4, 99039, Note_on_c, 0, 33, 75
4, 99120, Note_on_c, 0, 33, 0
4, 99120, Note_on_c, 0, 45, 75
4, 99200, Note_on_c, 0, 45, 0
4, 99200, Note_on_c, 0, 33, 75
4, 99279, Note_on_c, 0, 33, 0
4, 99279, Note_on_c, 0, 45, 75
4, 99360, Note_on_c, 0, 45, 0
4, 99360, Note_on_c, 0, 33, 75
4, 99440, Note_on_c, 0, 33, 0
4, 99440, Note_on_c, 0, 45, 75
4, 99519, Note_on_c, 0, 45, 0
4, 99519, Note_on_c, 0, 33, 75
4, 99600, Note_on_c, 0, 33, 0
4, 99600, Note_on_c, 0, 45, 75
4, 99680, Note_on_c, 0, 45, 0
4, 99680, Note_on_c, 0, 33, 75
4, 99759, Note_on_c, 0, 33, 0
4, 99759, Note_on_c, 0, 45, 75
4, 99840, Note_on_c, 0, 45, 0
4, 99840, Note_on_c, 0, 33, 75
4, 99920, Note_on_c, 0, 33, 0
4, 99920, Note_on_c, 0, 45, 75
4, 99999, Note_on_c, 0, 45, 0
4, 99999, Note_on_c, 0, 33, 75
4, 100080, Note_on_c, 0, 33, 0
4, 100080, Note_on_c, 0, 45, 75
4, 100160, Note_on_c, 0, 45, 0
4, 100160, Note_on_c, 0, 33, 75
4, 100239, Note_on_c, 0, 33, 0
4, 100239, Note_on_c, 0, 45, 75
4, 100320, Note_on_c, 0, 45, 0
4, 100320, Note_on_c, 0, 33, 75
4, 100400, Note_on_c, 0, 33, 0
4, 100400, Note_on_c, 0, 45, 75
4, 100479, Note_on_c, 0, 45, 0
4, 100479, Note_on_c, 0, 33, 75
4, 100560, Note_on_c, 0, 33, 0
4, 100560, Note_on_c, 0, 45, 75
4, 100640, Note_on_c, 0, 45, 0
4, 100640, Note_on_c, 0, 33, 75
4, 100719, Note_on_c, 0, 33, 0
4, 100719, Note_on_c, 0, 45, 75
4, 100800, Note_on_c, 0, 45, 0
4, 100800, Note_on_c, 0, 33, 75
4, 100880, Note_on_c, 0, 33, 0
4, 100880, Note_on_c, 0, 45, 75
4, 100959, Note_on_c, 0, 45, 0
4, 100959, Note_on_c, 0, 33, 75
4, 101040, Note_on_c, 0, 33, 0
4, 101040, Note_on_c, 0, 45, 75
4, 101120, Note_on_c, 0, 45, 0
4, 101120, Note_on_c, 0, 33, 75
4, 101199, Note_on_c, 0, 33, 0
4, 101199, Note_on_c, 0, 45, 75
4, 101280, Note_on_c, 0, 45, 0
4, 101280, Note_on_c, 0, 33, 75
4, 101360, Note_on_c, 0, 33, 0
4, 101360, Note_on_c, 0, 45, 75
4, 101439, Note_on_c, 0, 45, 0
4, 101439, Note_on_c, 0, 33, 75
4, 101520, Note_on_c, 0, 33, 0
4, 101520, Note_on_c, 0, 45, 75
4, 101600, Note_on_c, 0, 45, 0
4, 101600, Note_on_c, 0, 33, 75
4, 101679, Note_on_c, 0, 33, 0
4, 101679, Note_on_c, 0, 45, 75
4, 101760, Note_on_c, 0, 45, 0
4, 101760, Note_on_c, 0, 33, 75
4, 101840, Note_on_c, 0, 33, 0
4, 101840, Note_on_c, 0, 45, 75
4, 101919, Note_on_c, 0, 45, 0
4, 101919, Note_on_c, 0, 33, 75
4, 102000, Note_on_c, 0, 33, 0
4, 102000, Note_on_c, 0, 45, 75
4, 102080, Note_on_c, 0, 45, 0
4, 102080, Note_on_c, 0, 33, 75
4, 102159, Note_on_c, 0, 33, 0
4, 102159, Note_on_c, 0, 45, 75
4, 102240, Note_on_c, 0, 45, 0
4, 102240, Note_on_c, 0, 33, 75
4, 102320, Note_on_c, 0, 33, 0
4, 102320, Note_on_c, 0, 45, 75
4, 102399, Note_on_c, 0, 45, 0
4, 102399, Note_on_c, 0, 33, 75
4, 102480, Note_on_c, 0, 33, 0
4, 102480, Note_on_c, 0, 45, 75
4, 102560, Note_on_c, 0, 45, 0
4, 102560, Note_on_c, 0, 33, 75
4, 102639, Note_on_c, 0, 33, 0
4, 102639, Note_on_c, 0, 45, 75
4, 102720, Note_on_c, 0, 45, 0
4, 102720, Note_on_c, 0, 33, 75
4, 102800, Note_on_c, 0, 33, 0
4, 102800, Note_on_c, 0, 45, 75
4, 102879, Note_on_c, 0, 45, 0
4, 102879, Note_on_c, 0, 33, 75
4, 102960, Note_on_c, 0, 33, 0
4, 102960, Note_on_c, 0, 45, 75
4, 103040, Note_on_c, 0, 45, 0
4, 103040, Note_on_c, 0, 33, 75
4, 103119, Note_on_c, 0, 33, 0
4, 103119, Note_on_c, 0, 45, 75
4, 103200, Note_on_c, 0, 45, 0
4, 103200, Note_on_c, 0, 33, 75
4, 103280, Note_on_c, 0, 33, 0
4, 103280, Note_on_c, 0, 45, 75
4, 103359, Note_on_c, 0, 45, 0
4, 103359, Note_on_c, 0, 33, 75
4, 103440, Note_on_c, 0, 33, 0
4, 103440, Note_on_c, 0, 45, 75
4, 103520, Note_on_c, 0, 45, 0
4, 103520, Note_on_c, 0, 33, 75
4, 103599, Note_on_c, 0, 33, 0
4, 103599, Control_c, 0, 64, 0
4, 103599, Note_on_c, 0, 45, 75
4, 103680, Note_on_c, 0, 45, 0
4, 103680, Control_c, 0, 64, 127
4, 103680, Note_on_c, 0, 33, 62
4, 103760, Note_on_c, 0, 33, 0
4, 103760, Note_on_c, 0, 45, 62
4, 103839, Note_on_c, 0, 45, 0
4, 103839, Note_on_c, 0, 33, 62
4, 103920, Note_on_c, 0, 33, 0
4, 103920, Note_on_c, 0, 45, 62
4, 104000, Note_on_c, 0, 45, 0
4, 104000, Note_on_c, 0, 33, 62
4, 104079, Note_on_c, 0, 33, 0
4, 104079, Note_on_c, 0, 45, 62
4, 104160, Note_on_c, 0, 45, 0
4, 104160, Note_on_c, 0, 33, 62
4, 104240, Note_on_c, 0, 33, 0
4, 104240, Note_on_c, 0, 45, 62
4, 104319, Note_on_c, 0, 45, 0
4, 104319, Note_on_c, 0, 33, 62
4, 104400, Note_on_c, 0, 33, 0
4, 104400, Note_on_c, 0, 45, 62
4, 104480, Note_on_c, 0, 45, 0
4, 104480, Note_on_c, 0, 33, 62
4, 104559, Note_on_c, 0, 33, 0
4, 104559, Note_on_c, 0, 45, 62
4, 104640, Note_on_c, 0, 45, 0
4, 104640, Note_on_c, 0, 33, 62
4, 104720, Note_on_c, 0, 33, 0
4, 104720, Note_on_c, 0, 45, 62
4, 104799, Note_on_c, 0, 45, 0
4, 104799, Note_on_c, 0, 33, 62
4, 104880, Note_on_c, 0, 33, 0
4, 104880, Note_on_c, 0, 45, 62
4, 104960, Note_on_c, 0, 45, 0
4, 104960, Note_on_c, 0, 33, 62
4, 105039, Note_on_c, 0, 33, 0
4, 105039, Note_on_c, 0, 45, 62
4, 105120, Note_on_c, 0, 45, 0
4, 105120, Note_on_c, 0, 33, 62
4, 105200, Note_on_c, 0, 33, 0
4, 105200, Note_on_c, 0, 45, 62
4, 105279, Note_on_c, 0, 45, 0
4, 105279, Note_on_c, 0, 33, 62
4, 105360, Note_on_c, 0, 33, 0
4, 105360, Note_on_c, 0, 45, 62
4, 105440, Note_on_c, 0, 45, 0
4, 105440, Note_on_c, 0, 33, 62
4, 105519, Note_on_c, 0, 33, 0
4, 105519, Note_on_c, 0, 45, 62
4, 105600, Note_on_c, 0, 45, 0
4, 105600, Note_on_c, 0, 33, 62
4, 105680, Note_on_c, 0, 33, 0
4, 105680, Note_on_c, 0, 45, 62
4, 105759, Note_on_c, 0, 45, 0
4, 105759, Note_on_c, 0, 33, 62
4, 105840, Note_on_c, 0, 33, 0
4, 105840, Note_on_c, 0, 45, 62
4, 105920, Note_on_c, 0, 45, 0
4, 105920, Note_on_c, 0, 33, 62
4, 105999, Note_on_c, 0, 33, 0
4, 105999, Note_on_c, 0, 45, 62
4, 106080, Note_on_c, 0, 45, 0
4, 106080, Note_on_c, 0, 33, 62
4, 106160, Note_on_c, 0, 33, 0
4, 106160, Note_on_c, 0, 45, 62
4, 106239, Note_on_c, 0, 45, 0
4, 106239, Note_on_c, 0, 33, 62
4, 106320, Note_on_c, 0, 33, 0
4, 106320, Note_on_c, 0, 45, 62
4, 106400, Note_on_c, 0, 45, 0
4, 106400, Note_on_c, 0, 33, 62
4, 106479, Note_on_c, 0, 33, 0
4, 106479, Note_on_c, 0, 45, 62
4, 106560, Note_on_c, 0, 45, 0
4, 106560, Note_on_c, 0, 33, 62
4, 106640, Note_on_c, 0, 33, 0
4, 106640, Note_on_c, 0, 45, 62
4, 106719, Note_on_c, 0, 45, 0
4, 106719, Note_on_c, 0, 33, 62
4, 106800, Note_on_c, 0, 33, 0
4, 106800, Note_on_c, 0, 45, 62
4, 106880, Note_on_c, 0, 45, 0
4, 106880, Note_on_c, 0, 33, 62
4, 106959, Note_on_c, 0, 33, 0
4, 106959, Note_on_c, 0, 45, 62
4, 107040, Note_on_c, 0, 45, 0
4, 107040, Note_on_c, 0, 33, 62
4, 107120, Note_on_c, 0, 33, 0
4, 107120, Note_on_c, 0, 45, 62
4, 107199, Note_on_c, 0, 45, 0
4, 107199, Note_on_c, 0, 33, 62
4, 107280, Note_on_c, 0, 33, 0
4, 107280, Note_on_c, 0, 45, 62
4, 107360, Note_on_c, 0, 45, 0
4, 107360, Note_on_c, 0, 33, 62
4, 107439, Note_on_c, 0, 33, 0
4, 107439, Note_on_c, 0, 45, 62
4, 107520, Note_on_c, 0, 45, 0
4, 107520, Note_on_c, 0, 33, 62
4, 107600, Note_on_c, 0, 33, 0
4, 107600, Note_on_c, 0, 45, 62
4, 107679, Note_on_c, 0, 45, 0
4, 107679, Note_on_c, 0, 33, 62
4, 107760, Note_on_c, 0, 33, 0
4, 107760, Note_on_c, 0, 45, 62
4, 107840, Note_on_c, 0, 45, 0
4, 107840, Note_on_c, 0, 33, 62
4, 107919, Note_on_c, 0, 33, 0
4, 107919, Note_on_c, 0, 45, 62
4, 108000, Note_on_c, 0, 45, 0
4, 108000, Note_on_c, 0, 33, 62
4, 108080, Note_on_c, 0, 33, 0
4, 108080, Note_on_c, 0, 45, 62
4, 108159, Note_on_c, 0, 45, 0
4, 108159, Note_on_c, 0, 33, 62
4, 108240, Note_on_c, 0, 33, 0
4, 108240, Note_on_c, 0, 45, 62
4, 108320, Note_on_c, 0, 45, 0
4, 108320, Note_on_c, 0, 33, 62
4, 108399, Note_on_c, 0, 33, 0
4, 108399, Note_on_c, 0, 45, 62
4, 108480, Note_on_c, 0, 45, 0
4, 108480, Note_on_c, 0, 33, 62
4, 108560, Note_on_c, 0, 33, 0
4, 108560, Note_on_c, 0, 45, 62
4, 108639, Note_on_c, 0, 45, 0
4, 108639, Note_on_c, 0, 33, 62
4, 108720, Note_on_c, 0, 33, 0
4, 108720, Note_on_c, 0, 45, 62
4, 108800, Note_on_c, 0, 45, 0
4, 108800, Note_on_c, 0, 33, 62
4, 108879, Note_on_c, 0, 33, 0
4, 108879, Note_on_c, 0, 45, 62
4, 108960, Note_on_c, 0, 45, 0
4, 108960, Note_on_c, 0, 33, 62
4, 109040, Note_on_c, 0, 33, 0
4, 109040, Note_on_c, 0, 45, 62
4, 109119, Note_on_c, 0, 45, 0
4, 109119, Note_on_c, 0, 33, 62
4, 109200, Note_on_c, 0, 33, 0
4, 109200, Note_on_c, 0, 45, 62
4, 109280, Note_on_c, 0, 45, 0
4, 109280, Note_on_c, 0, 33, 62
4, 109359, Note_on_c, 0, 33, 0
4, 109359, Note_on_c, 0, 45, 62
4, 109440, Note_on_c, 0, 45, 0
4, 109440, Note_on_c, 0, 33, 62
4, 109520, Note_on_c, 0, 33, 0
4, 109520, Note_on_c, 0, 45, 62
4, 109599, Note_on_c, 0, 45, 0
4, 109599, Note_on_c, 0, 33, 62
4, 109680, Note_on_c, 0, 33, 0
4, 109680, Note_on_c, 0, 45, 62
4, 109760, Note_on_c, 0, 45, 0
4, 109760, Note_on_c, 0, 33, 62
4, 109839, Note_on_c, 0, 33, 0
4, 109839, Note_on_c, 0, 45, 62
4, 109920, Note_on_c, 0, 45, 0
4, 109920, Note_on_c, 0, 33, 62
4, 110000, Note_on_c, 0, 33, 0
4, 110000, Note_on_c, 0, 45, 62
4, 110079, Note_on_c, 0, 45, 0
4, 110079, Note_on_c, 0, 33, 62
4, 110160, Note_on_c, 0, 33, 0
4, 110160, Note_on_c, 0, 45, 62
4, 110240, Note_on_c, 0, 45, 0
4, 110240, Note_on_c, 0, 33, 62
4, 110319, Note_on_c, 0, 33, 0
4, 110319, Note_on_c, 0, 45, 62
4, 110400, Note_on_c, 0, 45, 0
4, 110400, Note_on_c, 0, 33, 49
4, 110480, Note_on_c, 0, 33, 0
4, 110480, Note_on_c, 0, 45, 49
4, 110559, Note_on_c, 0, 45, 0
4, 110559, Note_on_c, 0, 33, 49
4, 110640, Note_on_c, 0, 33, 0
4, 110640, Note_on_c, 0, 45, 49
4, 110720, Note_on_c, 0, 45, 0
4, 110720, Note_on_c, 0, 33, 49
4, 110799, Note_on_c, 0, 33, 0
4, 110799, Note_on_c, 0, 45, 49
4, 110880, Note_on_c, 0, 45, 0
4, 110880, Note_on_c, 0, 33, 49
4, 110960, Note_on_c, 0, 33, 0
4, 110960, Note_on_c, 0, 45, 49
4, 111039, Note_on_c, 0, 45, 0
4, 111039, Note_on_c, 0, 33, 49
4, 111120, Note_on_c, 0, 33, 0
4, 111120, Note_on_c, 0, 45, 49
4, 111200, Note_on_c, 0, 45, 0
4, 111200, Note_on_c, 0, 33, 49
4, 111279, Note_on_c, 0, 33, 0
4, 111279, Control_c, 0, 64, 0
4, 111279, Note_on_c, 0, 45, 49
4, 111360, Note_on_c, 0, 45, 0
4, 111360, Note_on_c, 0, 33, 49
4, 111840, Note_on_c, 0, 33, 0
4, 113280, Control_c, 0, 64, 127
4, 113280, Note_on_c, 0, 33, 49
4, 113360, Note_on_c, 0, 33, 0
4, 113360, Note_on_c, 0, 45, 49
4, 113439, Note_on_c, 0, 45, 0
4, 113439, Note_on_c, 0, 33, 49
4, 113520, Note_on_c, 0, 33, 0
4, 113520, Note_on_c, 0, 45, 49
4, 113600, Note_on_c, 0, 45, 0
4, 113600, Note_on_c, 0, 33, 49
4, 113679, Note_on_c, 0, 33, 0
4, 113679, Note_on_c, 0, 45, 49
4, 113760, Note_on_c, 0, 45, 0
4, 113760, Note_on_c, 0, 33, 49
4, 113840, Note_on_c, 0, 33, 0
4, 113840, Note_on_c, 0, 45, 49
4, 113919, Note_on_c, 0, 45, 0
4, 113919, Note_on_c, 0, 33, 49
4, 114000, Note_on_c, 0, 33, 0
4, 114000, Note_on_c, 0, 45, 49
4, 114080, Note_on_c, 0, 45, 0
4, 114080, Note_on_c, 0, 33, 49
4, 114159, Note_on_c, 0, 33, 0
4, 114159, Note_on_c, 0, 45, 49
4, 114240, Note_on_c, 0, 45, 0
4, 114240, Note_on_c, 0, 33, 49
4, 114320, Note_on_c, 0, 33, 0
4, 114320, Note_on_c, 0, 45, 49
4, 114399, Note_on_c, 0, 45, 0
4, 114399, Note_on_c, 0, 33, 49
4, 114480, Note_on_c, 0, 33, 0
4, 114480, Note_on_c, 0, 45, 49
4, 114560, Note_on_c, 0, 45, 0
4, 114560, Note_on_c, 0, 33, 49
4, 114639, Note_on_c, 0, 33, 0
4, 114639, Note_on_c, 0, 45, 49
4, 114720, Note_on_c, 0, 45, 0
4, 114720, Note_on_c, 0, 33, 49
4, 114800, Note_on_c, 0, 33, 0
4, 114800, Note_on_c, 0, 45, 49
4, 114879, Note_on_c, 0, 45, 0
4, 114879, Note_on_c, 0, 33, 49
4, 114960, Note_on_c, 0, 33, 0
4, 114960, Note_on_c, 0, 45, 49
4, 115040, Note_on_c, 0, 45, 0
4, 115040, Note_on_c, 0, 33, 49
4, 115119, Note_on_c, 0, 33, 0
4, 115119, Note_on_c, 0, 45, 49
4, 115200, Note_on_c, 0, 45, 0
4, 115200, Control_c, 0, 64, 0
4, 115200, Note_on_c, 0, 33, 49
4, 115680, Note_on_c, 0, 33, 0
4, 117120, Control_c, 0, 64, 127
4, 117120, Note_on_c, 0, 33, 49
4, 117200, Note_on_c, 0, 33, 0
4, 117200, Note_on_c, 0, 45, 49
4, 117279, Note_on_c, 0, 45, 0
4, 117279, Note_on_c, 0, 33, 49
4, 117360, Note_on_c, 0, 33, 0
4, 117360, Note_on_c, 0, 45, 49
4, 117440, Note_on_c, 0, 45, 0
4, 117440, Note_on_c, 0, 33, 49
4, 117519, Note_on_c, 0, 33, 0
4, 117519, Note_on_c, 0, 45, 49
4, 117600, Note_on_c, 0, 45, 0
4, 117600, Note_on_c, 0, 33, 49
4, 117680, Note_on_c, 0, 33, 0
4, 117680, Note_on_c, 0, 45, 49
4, 117759, Note_on_c, 0, 45, 0
4, 117759, Note_on_c, 0, 33, 49
4, 117840, Note_on_c, 0, 33, 0
4, 117840, Note_on_c, 0, 45, 49
4, 117920, Note_on_c, 0, 45, 0
4, 117920, Note_on_c, 0, 33, 49
4, 117999, Note_on_c, 0, 33, 0
4, 117999, Note_on_c, 0, 45, 49
4, 118080, Note_on_c, 0, 45, 0
4, 118080, Note_on_c, 0, 33, 49
4, 118160, Note_on_c, 0, 33, 0
4, 118160, Note_on_c, 0, 45, 49
4, 118239, Note_on_c, 0, 45, 0
4, 118239, Note_on_c, 0, 33, 49
4, 118320, Note_on_c, 0, 33, 0
4, 118320, Note_on_c, 0, 45, 49
4, 118400, Note_on_c, 0, 45, 0
4, 118400, Note_on_c, 0, 33, 49
4, 118479, Note_on_c, 0, 33, 0
4, 118479, Note_on_c, 0, 45, 49
4, 118560, Note_on_c, 0, 45, 0
4, 118560, Note_on_c, 0, 33, 49
4, 118640, Note_on_c, 0, 33, 0
4, 118640, Note_on_c, 0, 45, 49
4, 118719, Note_on_c, 0, 45, 0
4, 118719, Note_on_c, 0, 33, 49
4, 118800, Note_on_c, 0, 33, 0
4, 118800, Note_on_c, 0, 45, 49
4, 118880, Note_on_c, 0, 45, 0
4, 118880, Note_on_c, 0, 33, 49
4, 118959, Note_on_c, 0, 33, 0
4, 118959, Note_on_c, 0, 45, 49
4, 119040, Note_on_c, 0, 45, 0
4, 119040, Note_on_c, 0, 33, 62
4, 119120, Note_on_c, 0, 33, 0
4, 119120, Note_on_c, 0, 45, 62
4, 119199, Note_on_c, 0, 45, 0
4, 119199, Note_on_c, 0, 33, 62
4, 119280, Note_on_c, 0, 33, 0
4, 119280, Note_on_c, 0, 45, 62
4, 119360, Note_on_c, 0, 45, 0
4, 119360, Note_on_c, 0, 33, 62
4, 119439, Note_on_c, 0, 33, 0
4, 119439, Note_on_c, 0, 45, 62
4, 119520, Note_on_c, 0, 45, 0
4, 119520, Note_on_c, 0, 33, 62
4, 119600, Note_on_c, 0, 33, 0
4, 119600, Note_on_c, 0, 45, 62
4, 119679, Note_on_c, 0, 45, 0
4, 119679, Note_on_c, 0, 33, 62
4, 119760, Note_on_c, 0, 33, 0
4, 119760, Note_on_c, 0, 45, 62
4, 119840, Note_on_c, 0, 45, 0
4, 119840, Note_on_c, 0, 33, 62
4, 119919, Note_on_c, 0, 33, 0
4, 119919, Note_on_c, 0, 45, 62
4, 120000, Note_on_c, 0, 45, 0
4, 120000, Note_on_c, 0, 33, 62
4, 120080, Note_on_c, 0, 33, 0
4, 120080, Note_on_c, 0, 45, 62
4, 120159, Note_on_c, 0, 45, 0
4, 120159, Note_on_c, 0, 33, 62
4, 120240, Note_on_c, 0, 33, 0
4, 120240, Note_on_c, 0, 45, 62
4, 120320, Note_on_c, 0, 45, 0
4, 120320, Note_on_c, 0, 33, 62
4, 120399, Note_on_c, 0, 33, 0
4, 120399, Note_on_c, 0, 45, 62
4, 120480, Note_on_c, 0, 45, 0
4, 120480, Note_on_c, 0, 33, 62
4, 120560, Note_on_c, 0, 33, 0
4, 120560, Note_on_c, 0, 45, 62
4, 120639, Note_on_c, 0, 45, 0
4, 120639, Note_on_c, 0, 33, 62
4, 120720, Note_on_c, 0, 33, 0
4, 120720, Note_on_c, 0, 45, 62
4, 120800, Note_on_c, 0, 45, 0
4, 120800, Note_on_c, 0, 33, 62
4, 120879, Note_on_c, 0, 33, 0
4, 120879, Note_on_c, 0, 45, 62
4, 120960, Note_on_c, 0, 45, 0
4, 120960, Note_on_c, 0, 33, 62
4, 121040, Note_on_c, 0, 33, 0
4, 121040, Note_on_c, 0, 45, 62
4, 121119, Note_on_c, 0, 45, 0
4, 121119, Note_on_c, 0, 33, 62
4, 121200, Note_on_c, 0, 33, 0
4, 121200, Note_on_c, 0, 45, 62
4, 121280, Note_on_c, 0, 45, 0
4, 121280, Note_on_c, 0, 33, 62
4, 121359, Note_on_c, 0, 33, 0
4, 121359, Note_on_c, 0, 45, 62
4, 121440, Note_on_c, 0, 45, 0
4, 121440, Note_on_c, 0, 33, 62
4, 121520, Note_on_c, 0, 33, 0
4, 121520, Note_on_c, 0, 45, 62
4, 121599, Note_on_c, 0, 45, 0
4, 121599, Note_on_c, 0, 33, 62
4, 121680, Note_on_c, 0, 33, 0
4, 121680, Note_on_c, 0, 45, 62
4, 121760, Note_on_c, 0, 45, 0
4, 121760, Note_on_c, 0, 33, 62
4, 121839, Note_on_c, 0, 33, 0
4, 121839, Note_on_c, 0, 45, 62
4, 121920, Note_on_c, 0, 45, 0
4, 121920, Note_on_c, 0, 33, 62
4, 122000, Note_on_c, 0, 33, 0
4, 122000, Note_on_c, 0, 45, 62
4, 122079, Note_on_c, 0, 45, 0
4, 122079, Note_on_c, 0, 33, 62
4, 122160, Note_on_c, 0, 33, 0
4, 122160, Note_on_c, 0, 45, 62
4, 122240, Note_on_c, 0, 45, 0
4, 122240, Note_on_c, 0, 33, 62
4, 122319, Note_on_c, 0, 33, 0
4, 122319, Note_on_c, 0, 45, 62
4, 122400, Note_on_c, 0, 45, 0
4, 122400, Note_on_c, 0, 33, 62
4, 122480, Note_on_c, 0, 33, 0
4, 122480, Note_on_c, 0, 45, 62
4, 122559, Note_on_c, 0, 45, 0
4, 122559, Note_on_c, 0, 33, 62
4, 122640, Note_on_c, 0, 33, 0
4, 122640, Note_on_c, 0, 45, 62
4, 122720, Note_on_c, 0, 45, 0
4, 122720, Note_on_c, 0, 33, 62
4, 122799, Note_on_c, 0, 33, 0
4, 122799, Note_on_c, 0, 45, 62
4, 122880, Note_on_c, 0, 45, 0
4, 122880, Note_on_c, 0, 33, 62
4, 122960, Note_on_c, 0, 33, 0
4, 122960, Note_on_c, 0, 45, 62
4, 123039, Note_on_c, 0, 45, 0
4, 123039, Note_on_c, 0, 33, 62
4, 123120, Note_on_c, 0, 33, 0
4, 123120, Note_on_c, 0, 45, 62
4, 123200, Note_on_c, 0, 45, 0
4, 123200, Note_on_c, 0, 33, 62
4, 123279, Note_on_c, 0, 33, 0
4, 123279, Note_on_c, 0, 45, 62
4, 123360, Note_on_c, 0, 45, 0
4, 123360, Note_on_c, 0, 33, 62
4, 123440, Note_on_c, 0, 33, 0
4, 123440, Note_on_c, 0, 45, 62
4, 123519, Note_on_c, 0, 45, 0
4, 123519, Note_on_c, 0, 33, 62
4, 123600, Note_on_c, 0, 33, 0
4, 123600, Note_on_c, 0, 45, 62
4, 123680, Note_on_c, 0, 45, 0
4, 123680, Note_on_c, 0, 33, 62
4, 123759, Note_on_c, 0, 33, 0
4, 123759, Note_on_c, 0, 45, 62
4, 123840, Note_on_c, 0, 45, 0
4, 123840, Note_on_c, 0, 33, 62
4, 123920, Note_on_c, 0, 33, 0
4, 123920, Note_on_c, 0, 45, 62
4, 123999, Note_on_c, 0, 45, 0
4, 123999, Note_on_c, 0, 33, 62
4, 124080, Note_on_c, 0, 33, 0
4, 124080, Note_on_c, 0, 45, 62
4, 124160, Note_on_c, 0, 45, 0
4, 124160, Note_on_c, 0, 33, 62
4, 124239, Note_on_c, 0, 33, 0
4, 124239, Note_on_c, 0, 45, 62
4, 124320, Note_on_c, 0, 45, 0
4, 124320, Note_on_c, 0, 33, 62
4, 124400, Note_on_c, 0, 33, 0
4, 124400, Note_on_c, 0, 45, 62
4, 124479, Note_on_c, 0, 45, 0
4, 124479, Note_on_c, 0, 33, 62
4, 124560, Note_on_c, 0, 33, 0
4, 124560, Note_on_c, 0, 45, 62
4, 124640, Note_on_c, 0, 45, 0
4, 124640, Note_on_c, 0, 33, 62
4, 124719, Note_on_c, 0, 33, 0
4, 124719, Control_c, 0, 64, 0
4, 124719, Note_on_c, 0, 45, 62
4, 124800, Note_on_c, 0, 45, 0
4, 124800, Note_on_c, 0, 45, 62
4, 124800, Note_on_c, 0, 50, 62
4, 124800, Note_on_c, 0, 53, 62
4, 125280, Note_on_c, 0, 53, 0
4, 125280, Note_on_c, 0, 50, 0
4, 125280, Note_on_c, 0, 45, 0
4, 125280, Note_on_c, 0, 45, 62
4, 125280, Note_on_c, 0, 52, 62
4, 125280, Note_on_c, 0, 55, 62
4, 125760, Note_on_c, 0, 55, 0
4, 125760, Note_on_c, 0, 52, 0
4, 125760, Note_on_c, 0, 45, 0
4, 125760, Note_on_c, 0, 45, 62
4, 125760, Note_on_c, 0, 53, 62
4, 125760, Note_on_c, 0, 57, 62
4, 126480, Note_on_c, 0, 57, 0
4, 126480, Note_on_c, 0, 53, 0
4, 126480, Note_on_c, 0, 45, 0
4, 126480, Note_on_c, 0, 45, 62
4, 126480, Note_on_c, 0, 52, 62
4, 126480, Note_on_c, 0, 55, 62
4, 126720, Note_on_c, 0, 55, 0
4, 126720, Note_on_c, 0, 52, 0
4, 126720, Note_on_c, 0, 45, 0
4, 126720, Control_c, 0, 64, 127
4, 126720, Note_on_c, 0, 33, 62
4, 126800, Note_on_c, 0, 33, 0
4, 126800, Note_on_c, 0, 45, 62
4, 126879, Note_on_c, 0, 45, 0
4, 126879, Note_on_c, 0, 33, 62
4, 126960, Note_on_c, 0, 33, 0
4, 126960, Note_on_c, 0, 45, 62
4, 127040, Note_on_c, 0, 45, 0
4, 127040, Note_on_c, 0, 33, 62
4, 127119, Note_on_c, 0, 33, 0
4, 127119, Note_on_c, 0, 45, 62
4, 127200, Note_on_c, 0, 45, 0
4, 127200, Note_on_c, 0, 33, 62
4, 127280, Note_on_c, 0, 33, 0
4, 127280, Note_on_c, 0, 45, 62
4, 127359, Note_on_c, 0, 45, 0
4, 127359, Note_on_c, 0, 33, 62
4, 127440, Note_on_c, 0, 33, 0
4, 127440, Note_on_c, 0, 45, 62
4, 127520, Note_on_c, 0, 45, 0
4, 127520, Note_on_c, 0, 33, 62
4, 127599, Note_on_c, 0, 33, 0
4, 127599, Note_on_c, 0, 45, 62
4, 127680, Note_on_c, 0, 45, 0
4, 127680, Note_on_c, 0, 33, 62
4, 127760, Note_on_c, 0, 33, 0
4, 127760, Note_on_c, 0, 45, 62
4, 127839, Note_on_c, 0, 45, 0
4, 127839, Note_on_c, 0, 33, 62
4, 127920, Note_on_c, 0, 33, 0
4, 127920, Note_on_c, 0, 45, 62
4, 128000, Note_on_c, 0, 45, 0
4, 128000, Note_on_c, 0, 33, 62
4, 128079, Note_on_c, 0, 33, 0
4, 128079, Note_on_c, 0, 45, 62
4, 128160, Note_on_c, 0, 45, 0
4, 128160, Note_on_c, 0, 33, 62
4, 128240, Note_on_c, 0, 33, 0
4, 128240, Note_on_c, 0, 45, 62
4, 128319, Note_on_c, 0, 45, 0
4, 128319, Note_on_c, 0, 33, 62
4, 128400, Note_on_c, 0, 33, 0
4, 128400, Note_on_c, 0, 45, 62
4, 128480, Note_on_c, 0, 45, 0
4, 128480, Note_on_c, 0, 33, 62
4, 128559, Note_on_c, 0, 33, 0
4, 128559, Control_c, 0, 64, 0
4, 128559, Note_on_c, 0, 45, 62
4, 128640, Note_on_c, 0, 45, 0
4, 128640, Note_on_c, 0, 45, 62
4, 128640, Note_on_c, 0, 55, 62
4, 129120, Note_on_c, 0, 55, 0
4, 129120, Note_on_c, 0, 45, 0
4, 129120, Note_on_c, 0, 57, 62
4, 129120, Note_on_c, 0, 60, 62
4, 129600, Note_on_c, 0, 60, 0
4, 129600, Note_on_c, 0, 57, 0
4, 129600, Note_on_c, 0, 57, 62
4, 129600, Note_on_c, 0, 59, 62
4, 129600, Note_on_c, 0, 62, 62
4, 130320, Note_on_c, 0, 62, 0
4, 130320, Note_on_c, 0, 59, 0
4, 130320, Note_on_c, 0, 57, 0
4, 130320, Note_on_c, 0, 57, 62
4, 130440, Note_on_c, 0, 57, 0
4, 130440, Note_on_c, 0, 57, 62
4, 130560, Note_on_c, 0, 57, 0
4, 130560, Note_on_c, 0, 45, 62
4, 130560, Note_on_c, 0, 55, 62
4, 131040, Note_on_c, 0, 55, 0
4, 131040, Note_on_c, 0, 45, 0
4, 131040, Note_on_c, 0, 57, 75
4, 131040, Note_on_c, 0, 60, 75
4, 131520, Note_on_c, 0, 60, 0
4, 131520, Note_on_c, 0, 57, 0
4, 131520, Note_on_c, 0, 57, 75
4, 131520, Note_on_c, 0, 59, 75
4, 131520, Note_on_c, 0, 62, 75
4, 132000, Note_on_c, 0, 62, 0
4, 132000, Note_on_c, 0, 59, 0
4, 132000, Note_on_c, 0, 57, 0
4, 132000, Note_on_c, 0, 57, 75
4, 132000, Note_on_c, 0, 61, 75
4, 132000, Note_on_c, 0, 64, 75
4, 132480, Note_on_c, 0, 64, 0
4, 132480, Note_on_c, 0, 61, 0
4, 132480, Note_on_c, 0, 57, 0
4, 132480, Note_on_c, 0, 45, 75
4, 132480, Note_on_c, 0, 57, 75
4, 132960, Note_on_c, 0, 57, 0
4, 132960, Note_on_c, 0, 45, 0
4, 132960, Note_on_c, 0, 57, 75
4, 132960, Note_on_c, 0, 59, 75
4, 132960, Note_on_c, 0, 62, 75
4, 133440, Note_on_c, 0, 62, 0
4, 133440, Note_on_c, 0, 59, 0
4, 133440, Note_on_c, 0, 57, 0
4, 133440, Note_on_c, 0, 57, 75
4, 133440, Note_on_c, 0, 61, 75
4, 133440, Note_on_c, 0, 64, 75
4, 133920, Note_on_c, 0, 64, 0
4, 133920, Note_on_c, 0, 61, 0
4, 133920, Note_on_c, 0, 57, 0
4, 133920, Note_on_c, 0, 57, 75
4, 133920, Note_on_c, 0, 62, 75
4, 133920, Note_on_c, 0, 66, 75
4, 134400, Note_on_c, 0, 66, 0
4, 134400, Note_on_c, 0, 62, 0
4, 134400, Note_on_c, 0, 57, 0
4, 134400, Note_on_c, 0, 45, 75
4, 134400, Note_on_c, 0, 57, 75
4, 134400, Note_on_c, 0, 59, 75
4, 134880, Note_on_c, 0, 59, 0
4, 134880, Note_on_c, 0, 57, 0
4, 134880, Note_on_c, 0, 45, 0
4, 134880, Note_on_c, 0, 57, 75
4, 134880, Note_on_c, 0, 61, 75
4, 134880, Note_on_c, 0, 64, 75
4, 135360, Note_on_c, 0, 64, 0
4, 135360, Note_on_c, 0, 61, 0
4, 135360, Note_on_c, 0, 57, 0
4, 135360, Note_on_c, 0, 57, 75
4, 135360, Note_on_c, 0, 62, 75
4, 135360, Note_on_c, 0, 65, 75
4, 135840, Note_on_c, 0, 65, 0
4, 135840, Note_on_c, 0, 62, 0
4, 135840, Note_on_c, 0, 57, 0
4, 135840, Note_on_c, 0, 57, 75
4, 135840, Note_on_c, 0, 64, 75
4, 135840, Note_on_c, 0, 67, 75
4, 136320, Note_on_c, 0, 67, 0
4, 136320, Note_on_c, 0, 64, 0
4, 136320, Note_on_c, 0, 57, 0
4, 136320, Note_on_c, 0, 57, 75
4, 136320, Note_on_c, 0, 60, 75
4, 136320, Note_on_c, 0, 64, 75
4, 136800, Note_on_c, 0, 64, 0
4, 136800, Note_on_c, 0, 60, 0
4, 136800, Note_on_c, 0, 57, 0
4, 136800, Note_on_c, 0, 57, 75
4, 136800, Note_on_c, 0, 62, 75
4, 136800, Note_on_c, 0, 65, 75
4, 137280, Note_on_c, 0, 65, 0
4, 137280, Note_on_c, 0, 62, 0
4, 137280, Note_on_c, 0, 57, 0
4, 137280, Note_on_c, 0, 57, 75
4, 137280, Note_on_c, 0, 64, 75
4, 137280, Note_on_c, 0, 67, 75
4, 137760, Note_on_c, 0, 67, 0
4, 137760, Note_on_c, 0, 64, 0
4, 137760, Note_on_c, 0, 57, 0
4, 137760, Note_on_c, 0, 57, 75
4, 137760, Note_on_c, 0, 66, 75
4, 137760, Note_on_c, 0, 69, 75
4, 138240, Note_on_c, 0, 69, 0
4, 138240, Note_on_c, 0, 66, 0
4, 138240, Note_on_c, 0, 57, 0
4, 138240, Note_on_c, 0, 57, 75
4, 138240, Note_on_c, 0, 62, 75
4, 138240, Note_on_c, 0, 66, 75
4, 138480, Note_on_c, 0, 66, 0
4, 138480, Note_on_c, 0, 62, 0
4, 138480, Note_on_c, 0, 57, 0
4, 138480, Note_on_c, 0, 64, 75
4, 138480, Note_on_c, 0, 67, 75
4, 138720, Note_on_c, 0, 67, 0
4, 138720, Note_on_c, 0, 64, 0
4, 138720, Note_on_c, 0, 66, 75
4, 138720, Note_on_c, 0, 69, 75
4, 138960, Note_on_c, 0, 69, 0
4, 138960, Note_on_c, 0, 66, 0
4, 138960, Note_on_c, 0, 67, 75
4, 138960, Note_on_c, 0, 71, 75
4, 139200, Note_on_c, 0, 71, 0
4, 139200, Note_on_c, 0, 67, 0
4, 139200, Note_on_c, 0, 57, 75
4, 139200, Note_on_c, 0, 64, 75
4, 139200, Note_on_c, 0, 67, 75
4, 139440, Note_on_c, 0, 67, 0
4, 139440, Note_on_c, 0, 64, 0
4, 139440, Note_on_c, 0, 57, 0
4, 139440, Note_on_c, 0, 66, 75
4, 139440, Note_on_c, 0, 69, 75
4, 139680, Note_on_c, 0, 69, 0
4, 139680, Note_on_c, 0, 66, 0
4, 139680, Note_on_c, 0, 67, 75
4, 139680, Note_on_c, 0, 71, 75
4, 139920, Note_on_c, 0, 71, 0
4, 139920, Note_on_c, 0, 67, 0
4, 139920, Note_on_c, 0, 69, 75
4, 139920, Note_on_c, 0, 73, 75
4, 140160, Note_on_c, 0, 73, 0
4, 140160, Note_on_c, 0, 69, 0
4, 140160, Note_on_c, 0, 57, 75
4, 140160, Note_on_c, 0, 66, 75
4, 140160, Note_on_c, 0, 69, 75
4, 140400, Note_on_c, 0, 69, 0
4, 140400, Note_on_c, 0, 66, 0
4, 140400, Note_on_c, 0, 57, 0
4, 140400, Note_on_c, 0, 67, 75
4, 140400, Note_on_c, 0, 71, 75
4, 140640, Note_on_c, 0, 71, 0
4, 140640, Note_on_c, 0, 67, 0
4, 140640, Note_on_c, 0, 69, 75
4, 140640, Note_on_c, 0, 72, 75
4, 140880, Note_on_c, 0, 72, 0
4, 140880, Note_on_c, 0, 69, 0
4, 140880, Note_on_c, 0, 71, 75
4, 140880, Note_on_c, 0, 74, 75
4, 141120, Note_on_c, 0, 74, 0
4, 141120, Note_on_c, 0, 71, 0
4, 141120, Note_on_c, 0, 67, 75
4, 141120, Note_on_c, 0, 71, 75
4, 141360, Note_on_c, 0, 71, 0
4, 141360, Note_on_c, 0, 67, 0
4, 141360, Note_on_c, 0, 69, 75
4, 141360, Note_on_c, 0, 72, 75
4, 141600, Note_on_c, 0, 72, 0
4, 141600, Note_on_c, 0, 69, 0
4, 141600, Note_on_c, 0, 71, 75
4, 141600, Note_on_c, 0, 74, 75
4, 141840, Note_on_c, 0, 74, 0
4, 141840, Note_on_c, 0, 71, 0
4, 141840, Note_on_c, 0, 64, 75
4, 142080, Note_on_c, 0, 64, 0
4, 142080, Note_on_c, 0, 57, 88
4, 142080, Note_on_c, 0, 61, 88
4, 142080, Note_on_c, 0, 64, 88
4, 142080, Note_on_c, 0, 69, 88
4, 142560, Note_on_c, 0, 69, 0
4, 142560, Note_on_c, 0, 57, 0
4, 142560, Note_on_c, 0, 61, 0
4, 142560, Note_on_c, 0, 64, 0
4, 142560, Note_on_c, 0, 57, 88
4, 142560, Note_on_c, 0, 61, 88
4, 142560, Note_on_c, 0, 64, 88
4, 142560, Note_on_c, 0, 69, 88
4, 143040, Note_on_c, 0, 69, 0
4, 143040, Note_on_c, 0, 57, 0
4, 143040, Note_on_c, 0, 61, 0
4, 143040, Note_on_c, 0, 64, 0
4, 143040, Note_on_c, 0, 57, 88
4, 143040, Note_on_c, 0, 61, 88
4, 143040, Note_on_c, 0, 64, 88
4, 143040, Note_on_c, 0, 69, 88
4, 143520, Note_on_c, 0, 69, 0
4, 143520, Note_on_c, 0, 57, 0
4, 143520, Note_on_c, 0, 61, 0
4, 143520, Note_on_c, 0, 64, 0
4, 143520, Note_on_c, 0, 57, 88
4, 143520, Note_on_c, 0, 61, 88
4, 143520, Note_on_c, 0, 64, 88
4, 143520, Note_on_c, 0, 69, 88
4, 144000, Note_on_c, 0, 69, 0
4, 144000, Note_on_c, 0, 57, 0
4, 144000, Note_on_c, 0, 61, 0
4, 144000, Note_on_c, 0, 64, 0
4, 144000, Note_on_c, 0, 57, 88
4, 144000, Note_on_c, 0, 62, 88
4, 144000, Note_on_c, 0, 65, 88
4, 144000, Note_on_c, 0, 68, 88
4, 145680, Note_on_c, 0, 68, 0
4, 145680, Note_on_c, 0, 57, 0
4, 145680, Note_on_c, 0, 62, 0
4, 145680, Note_on_c, 0, 65, 0
4, 145680, Note_on_c, 0, 57, 88
4, 145680, Note_on_c, 0, 62, 88
4, 145680, Note_on_c, 0, 65, 88
4, 145680, Note_on_c, 0, 68, 88
4, 145920, Note_on_c, 0, 68, 0
4, 145920, Note_on_c, 0, 57, 0
4, 145920, Note_on_c, 0, 62, 0
4, 145920, Note_on_c, 0, 65, 0
4, 145920, Note_on_c, 0, 57, 88
4, 145920, Note_on_c, 0, 61, 88
4, 145920, Note_on_c, 0, 64, 88
4, 145920, Note_on_c, 0, 69, 88
4, 146400, Note_on_c, 0, 69, 0
4, 146400, Note_on_c, 0, 57, 0
4, 146400, Note_on_c, 0, 61, 0
4, 146400, Note_on_c, 0, 64, 0
4, 146400, Note_on_c, 0, 57, 88
4, 146400, Note_on_c, 0, 61, 88
4, 146400, Note_on_c, 0, 64, 88
4, 146400, Note_on_c, 0, 69, 88
4, 146880, Note_on_c, 0, 69, 0
4, 146880, Note_on_c, 0, 57, 0
4, 146880, Note_on_c, 0, 61, 0
4, 146880, Note_on_c, 0, 64, 0
4, 146880, Note_on_c, 0, 57, 88
4, 146880, Note_on_c, 0, 61, 88
4, 146880, Note_on_c, 0, 64, 88
4, 146880, Note_on_c, 0, 69, 88
4, 147360, Note_on_c, 0, 69, 0
4, 147360, Note_on_c, 0, 57, 0
4, 147360, Note_on_c, 0, 61, 0
4, 147360, Note_on_c, 0, 64, 0
4, 147360, Note_on_c, 0, 57, 88
4, 147360, Note_on_c, 0, 61, 88
4, 147360, Note_on_c, 0, 64, 88
4, 147360, Note_on_c, 0, 69, 88
4, 147840, Note_on_c, 0, 69, 0
4, 147840, Note_on_c, 0, 57, 0
4, 147840, Note_on_c, 0, 61, 0
4, 147840, Note_on_c, 0, 64, 0
4, 147840, Note_on_c, 0, 45, 88
4, 147840, Note_on_c, 0, 50, 88
4, 147840, Note_on_c, 0, 53, 88
4, 147840, Note_on_c, 0, 56, 88
4, 149520, Note_on_c, 0, 56, 0
4, 149520, Note_on_c, 0, 45, 0
4, 149520, Note_on_c, 0, 50, 0
4, 149520, Note_on_c, 0, 53, 0
4, 149520, Note_on_c, 0, 45, 88
4, 149520, Note_on_c, 0, 50, 88
4, 149520, Note_on_c, 0, 53, 88
4, 149520, Note_on_c, 0, 56, 88
4, 149760, Note_on_c, 0, 56, 0
4, 149760, Note_on_c, 0, 45, 0
4, 149760, Note_on_c, 0, 50, 0
4, 149760, Note_on_c, 0, 53, 0
4, 149760, Note_on_c, 0, 45, 88
4, 149760, Note_on_c, 0, 49, 88
4, 149760, Note_on_c, 0, 52, 88
4, 149760, Note_on_c, 0, 57, 88
4, 149880, Note_on_c, 0, 57, 0
4, 149880, Note_on_c, 0, 45, 0
4, 149880, Note_on_c, 0, 49, 0
4, 149880, Note_on_c, 0, 52, 0
4, 149880, Note_on_c, 0, 44, 101
4, 150000, Note_on_c, 0, 44, 0
4, 150000, Note_on_c, 0, 45, 101
4, 150120, Note_on_c, 0, 45, 0
4, 150120, Note_on_c, 0, 47, 101
4, 150240, Note_on_c, 0, 47, 0
4, 150240, Note_on_c, 0, 49, 101
4, 150360, Note_on_c, 0, 49, 0
4, 150360, Note_on_c, 0, 47, 101
4, 150480, Note_on_c, 0, 47, 0
4, 150480, Note_on_c, 0, 49, 101
4, 150600, Note_on_c, 0, 49, 0
4, 150600, Note_on_c, 0, 50, 101
4, 150720, Note_on_c, 0, 50, 0
4, 150720, Note_on_c, 0, 52, 101
4, 150840, Note_on_c, 0, 52, 0
4, 150840, Note_on_c, 0, 51, 101
4, 150960, Note_on_c, 0, 51, 0
4, 150960, Note_on_c, 0, 52, 101
4, 151080, Note_on_c, 0, 52, 0
4, 151080, Note_on_c, 0, 54, 101
4, 151200, Note_on_c, 0, 54, 0
4, 151200, Note_on_c, 0, 55, 101
4, 151320, Note_on_c, 0, 55, 0
4, 151320, Note_on_c, 0, 54, 101
4, 151440, Note_on_c, 0, 54, 0
4, 151440, Note_on_c, 0, 55, 101
4, 151560, Note_on_c, 0, 55, 0
4, 151560, Note_on_c, 0, 56, 101
4, 151680, Note_on_c, 0, 56, 0
4, 151680, Note_on_c, 0, 57, 101
4, 151800, Note_on_c, 0, 57, 0
4, 151800, Note_on_c, 0, 56, 101
4, 151920, Note_on_c, 0, 56, 0
4, 151920, Note_on_c, 0, 57, 101
4, 152040, Note_on_c, 0, 57, 0
4, 152040, Note_on_c, 0, 59, 101
4, 152160, Note_on_c, 0, 59, 0
4, 157440, Note_on_c, 0, 38, 88
4, 157440, Note_on_c, 0, 50, 88
4, 157920, Note_on_c, 0, 50, 0
4, 157920, Note_on_c, 0, 38, 0
4, 157920, Note_on_c, 0, 40, 88
4, 157920, Note_on_c, 0, 52, 88
4, 158400, Note_on_c, 0, 52, 0
4, 158400, Note_on_c, 0, 40, 0
4, 158400, Note_on_c, 0, 41, 88
4, 158400, Note_on_c, 0, 53, 88
4, 158880, Note_on_c, 0, 53, 0
4, 158880, Note_on_c, 0, 41, 0
4, 158880, Note_on_c, 0, 42, 88
4, 158880, Note_on_c, 0, 54, 88
4, 159360, Note_on_c, 0, 54, 0
4, 159360, Note_on_c, 0, 42, 0
4, 159360, Note_on_c, 0, 43, 88
4, 159360, Note_on_c, 0, 55, 88
4, 159840, Note_on_c, 0, 55, 0
4, 159840, Note_on_c, 0, 43, 0
4, 159840, Note_on_c, 0, 44, 88
4, 159840, Note_on_c, 0, 56, 88
4, 160320, Note_on_c, 0, 56, 0
4, 160320, Note_on_c, 0, 44, 0
4, 160320, Note_on_c, 0, 45, 88
4, 160320, Note_on_c, 0, 57, 88
4, 160560, Note_on_c, 0, 57, 0
4, 160560, Note_on_c, 0, 45, 0
4, 160560, Note_on_c, 0, 45, 88
4, 160560, Note_on_c, 0, 57, 88
4, 160800, Note_on_c, 0, 57, 0
4, 160800, Note_on_c, 0, 45, 0
4, 160800, Note_on_c, 0, 38, 88
4, 160800, Note_on_c, 0, 50, 88
4, 161040, Note_on_c, 0, 50, 0
4, 161040, Note_on_c, 0, 38, 0
4, 161280, Note_on_c, 0, 38, 88
4, 161280, Note_on_c, 0, 50, 88
4, 161520, Note_on_c, 0, 50, 0
4, 161520, Note_on_c, 0, 38, 0
4, 161520, Note_on_c, 0, 57, 88
4, 161640, Note_on_c, 0, 57, 0
4, 161640, Note_on_c, 0, 55, 88
4, 161760, Note_on_c, 0, 55, 0
4, 161760, Note_on_c, 0, 54, 88
4, 161880, Note_on_c, 0, 54, 0
4, 161880, Note_on_c, 0, 55, 88
4, 162000, Note_on_c, 0, 55, 0
4, 162000, Note_on_c, 0, 54, 88
4, 162120, Note_on_c, 0, 54, 0
4, 162120, Note_on_c, 0, 52, 88
4, 162240, Note_on_c, 0, 52, 0
4, 162240, Note_on_c, 0, 50, 88
4, 162360, Note_on_c, 0, 50, 0
4, 162360, Note_on_c, 0, 49, 88
4, 162480, Note_on_c, 0, 49, 0
4, 162480, Note_on_c, 0, 47, 88
4, 162600, Note_on_c, 0, 47, 0
4, 162600, Note_on_c, 0, 49, 88
4, 162720, Note_on_c, 0, 49, 0
4, 162720, Note_on_c, 0, 50, 88
4, 162840, Note_on_c, 0, 50, 0
4, 162840, Note_on_c, 0, 49, 88
4, 162960, Note_on_c, 0, 49, 0
4, 162960, Note_on_c, 0, 50, 88
4, 163080, Note_on_c, 0, 50, 0
4, 163080, Note_on_c, 0, 52, 88
4, 163200, Note_on_c, 0, 52, 0
4, 163200, Note_on_c, 0, 54, 88
4, 163320, Note_on_c, 0, 54, 0
4, 163320, Note_on_c, 0, 52, 88
4, 163440, Note_on_c, 0, 52, 0
4, 163440, Note_on_c, 0, 50, 88
4, 163560, Note_on_c, 0, 50, 0
4, 163560, Note_on_c, 0, 52, 88
4, 163680, Note_on_c, 0, 52, 0
4, 163680, Note_on_c, 0, 54, 88
4, 163920, Note_on_c, 0, 54, 0
4, 164160, Note_on_c, 0, 33, 88
4, 164160, Note_on_c, 0, 45, 88
4, 164400, Note_on_c, 0, 45, 0
4, 164400, Note_on_c, 0, 33, 0
4, 164400, Note_on_c, 0, 38, 88
4, 164400, Note_on_c, 0, 50, 88
4, 164640, Note_on_c, 0, 50, 0
4, 164640, Note_on_c, 0, 38, 0
4, 164640, Note_on_c, 0, 33, 88
4, 164640, Note_on_c, 0, 45, 88
4, 164880, Note_on_c, 0, 45, 0
4, 164880, Note_on_c, 0, 33, 0
4, 165120, Note_on_c, 0, 38, 88
4, 165120, Note_on_c, 0, 50, 88
4, 165600, Note_on_c, 0, 50, 0
4, 165600, Note_on_c, 0, 38, 0
4, 165600, Note_on_c, 0, 40, 88
4, 165600, Note_on_c, 0, 52, 88
4, 166080, Note_on_c, 0, 52, 0
4, 166080, Note_on_c, 0, 40, 0
4, 166080, Note_on_c, 0, 41, 88
4, 166080, Note_on_c, 0, 53, 88
4, 166560, Note_on_c, 0, 53, 0
4, 166560, Note_on_c, 0, 41, 0
4, 166560, Note_on_c, 0, 42, 88
4, 166560, Note_on_c, 0, 54, 88
4, 167040, Note_on_c, 0, 54, 0
4, 167040, Note_on_c, 0, 42, 0
4, 167040, Note_on_c, 0, 43, 88
4, 167040, Note_on_c, 0, 55, 88
4, 167520, Note_on_c, 0, 55, 0
4, 167520, Note_on_c, 0, 43, 0
4, 167520, Note_on_c, 0, 44, 88
4, 167520, Note_on_c, 0, 56, 88
4, 168000, Note_on_c, 0, 56, 0
4, 168000, Note_on_c, 0, 44, 0
4, 168000, Note_on_c, 0, 45, 88
4, 168000, Note_on_c, 0, 57, 88
4, 168240, Note_on_c, 0, 57, 0
4, 168240, Note_on_c, 0, 45, 0
4, 168240, Note_on_c, 0, 45, 88
4, 168240, Note_on_c, 0, 57, 88
4, 168480, Note_on_c, 0, 57, 0
4, 168480, Note_on_c, 0, 45, 0
4, 168480, Note_on_c, 0, 38, 88
4, 168480, Note_on_c, 0, 50, 88
4, 168720, Note_on_c, 0, 50, 0
4, 168720, Note_on_c, 0, 38, 0
4, 168960, Note_on_c, 0, 38, 88
4, 168960, Note_on_c, 0, 50, 88
4, 169200, Note_on_c, 0, 50, 0
4, 169200, Note_on_c, 0, 38, 0
4, 169200, Note_on_c, 0, 57, 88
4, 169320, Note_on_c, 0, 57, 0
4, 169320, Note_on_c, 0, 55, 88
4, 169440, Note_on_c, 0, 55, 0
4, 169440, Note_on_c, 0, 54, 88
4, 169560, Note_on_c, 0, 54, 0
4, 169560, Note_on_c, 0, 55, 88
4, 169680, Note_on_c, 0, 55, 0
4, 169680, Note_on_c, 0, 54, 88
4, 169800, Note_on_c, 0, 54, 0
4, 169800, Note_on_c, 0, 52, 88
4, 169920, Note_on_c, 0, 52, 0
4, 169920, Note_on_c, 0, 50, 88
4, 170040, Note_on_c, 0, 50, 0
4, 170040, Note_on_c, 0, 49, 88
4, 170160, Note_on_c, 0, 49, 0
4, 170160, Note_on_c, 0, 47, 88
4, 170280, Note_on_c, 0, 47, 0
4, 170280, Note_on_c, 0, 49, 88
4, 170400, Note_on_c, 0, 49, 0
4, 170400, Note_on_c, 0, 50, 88
4, 170520, Note_on_c, 0, 50, 0
4, 170520, Note_on_c, 0, 49, 88
4, 170640, Note_on_c, 0, 49, 0
4, 170640, Note_on_c, 0, 50, 88
4, 170760, Note_on_c, 0, 50, 0
4, 170760, Note_on_c, 0, 52, 88
4, 170880, Note_on_c, 0, 52, 0
4, 170880, Note_on_c, 0, 54, 88
4, 171000, Note_on_c, 0, 54, 0
4, 171000, Note_on_c, 0, 52, 88
4, 171120, Note_on_c, 0, 52, 0
4, 171120, Note_on_c, 0, 50, 88
4, 171240, Note_on_c, 0, 50, 0
4, 171240, Note_on_c, 0, 52, 88
4, 171360, Note_on_c, 0, 52, 0
4, 171360, Note_on_c, 0, 54, 88
4, 171480, Note_on_c, 0, 54, 0
4, 171480, Note_on_c, 0, 55, 88
4, 171600, Note_on_c, 0, 55, 0
4, 171600, Note_on_c, 0, 57, 88
4, 171720, Note_on_c, 0, 57, 0
4, 171720, Note_on_c, 0, 59, 88
4, 171840, Note_on_c, 0, 59, 0
4, 171840, Note_on_c, 0, 45, 88
4, 171840, Note_on_c, 0, 57, 88
4, 172080, Note_on_c, 0, 57, 0
4, 172080, Note_on_c, 0, 45, 0
4, 172080, Note_on_c, 0, 33, 88
4, 172080, Note_on_c, 0, 45, 88
4, 172320, Note_on_c, 0, 45, 0
4, 172320, Note_on_c, 0, 33, 0
4, 172320, Note_on_c, 0, 38, 88
4, 172320, Note_on_c, 0, 50, 88
4, 172560, Note_on_c, 0, 50, 0
4, 172560, Note_on_c, 0, 38, 0
4, 172560, Note_on_c, 0, 45, 101
4, 172560, Note_on_c, 0, 57, 101
4, 172800, Note_on_c, 0, 57, 0
4, 172800, Note_on_c, 0, 45, 0
4, 172800, Note_on_c, 0, 47, 101
4, 172800, Note_on_c, 0, 59, 101
4, 173280, Note_on_c, 0, 59, 0
4, 173280, Note_on_c, 0, 47, 0
4, 173280, Note_on_c, 0, 47, 101
4, 173280, Note_on_c, 0, 59, 101
4, 173760, Note_on_c, 0, 59, 0
4, 173760, Note_on_c, 0, 47, 0
4, 173760, Note_on_c, 0, 47, 101
4, 173760, Note_on_c, 0, 59, 101
4, 174240, Note_on_c, 0, 59, 0
4, 174240, Note_on_c, 0, 47, 0
4, 174240, Note_on_c, 0, 47, 101
4, 174240, Note_on_c, 0, 59, 101
4, 174480, Note_on_c, 0, 59, 0
4, 174480, Note_on_c, 0, 47, 0
4, 174480, Note_on_c, 0, 49, 101
4, 174480, Note_on_c, 0, 61, 101
4, 174720, Note_on_c, 0, 61, 0
4, 174720, Note_on_c, 0, 49, 0
4, 174720, Note_on_c, 0, 45, 101
4, 174720, Note_on_c, 0, 57, 101
4, 174840, Note_on_c, 0, 57, 0
4, 174840, Note_on_c, 0, 45, 0
4, 174840, Note_on_c, 0, 59, 88
4, 174960, Note_on_c, 0, 59, 0
4, 174960, Note_on_c, 0, 57, 88
4, 175080, Note_on_c, 0, 57, 0
4, 175080, Note_on_c, 0, 59, 88
4, 175200, Note_on_c, 0, 59, 0
4, 175200, Note_on_c, 0, 61, 88
4, 175320, Note_on_c, 0, 61, 0
4, 175320, Note_on_c, 0, 59, 88
4, 175440, Note_on_c, 0, 59, 0
4, 175440, Note_on_c, 0, 61, 88
4, 175560, Note_on_c, 0, 61, 0
4, 175560, Note_on_c, 0, 64, 88
4, 175680, Note_on_c, 0, 64, 0
4, 175680, Note_on_c, 0, 69, 88
4, 175800, Note_on_c, 0, 69, 0
4, 175800, Note_on_c, 0, 68, 88
4, 175920, Note_on_c, 0, 68, 0
4, 175920, Note_on_c, 0, 69, 88
4, 176040, Note_on_c, 0, 69, 0
4, 176040, Note_on_c, 0, 71, 88
4, 176160, Note_on_c, 0, 71, 0
4, 176160, Note_on_c, 0, 73, 88
4, 176400, Note_on_c, 0, 73, 0
4, 176400, Note_on_c, 0, 45, 101
4, 176400, Note_on_c, 0, 57, 101
4, 176640, Note_on_c, 0, 57, 0
4, 176640, Note_on_c, 0, 45, 0
4, 176640, Note_on_c, 0, 47, 101
4, 176640, Note_on_c, 0, 59, 101
4, 177120, Note_on_c, 0, 59, 0
4, 177120, Note_on_c, 0, 47, 0
4, 177120, Note_on_c, 0, 47, 101
4, 177120, Note_on_c, 0, 59, 101
4, 177600, Note_on_c, 0, 59, 0
4, 177600, Note_on_c, 0, 47, 0
4, 177600, Note_on_c, 0, 47, 101
4, 177600, Note_on_c, 0, 59, 101
4, 178080, Note_on_c, 0, 59, 0
4, 178080, Note_on_c, 0, 47, 0
4, 178080, Note_on_c, 0, 47, 101
4, 178080, Note_on_c, 0, 59, 101
4, 178320, Note_on_c, 0, 59, 0
4, 178320, Note_on_c, 0, 47, 0
4, 178320, Note_on_c, 0, 49, 101
4, 178320, Note_on_c, 0, 61, 101
4, 178560, Note_on_c, 0, 61, 0
4, 178560, Note_on_c, 0, 49, 0
4, 178560, Note_on_c, 0, 45, 101
4, 178560, Note_on_c, 0, 57, 101
4, 178680, Note_on_c, 0, 57, 0
4, 178680, Note_on_c, 0, 45, 0
4, 178680, Note_on_c, 0, 59, 88
4, 178800, Note_on_c, 0, 59, 0
4, 178800, Note_on_c, 0, 57, 88
4, 178920, Note_on_c, 0, 57, 0
4, 178920, Note_on_c, 0, 59, 88
4, 179040, Note_on_c, 0, 59, 0
4, 179040, Note_on_c, 0, 61, 88
4, 179160, Note_on_c, 0, 61, 0
4, 179160, Note_on_c, 0, 59, 88
4, 179280, Note_on_c, 0, 59, 0
4, 179280, Note_on_c, 0, 61, 88
4, 179400, Note_on_c, 0, 61, 0
4, 179400, Note_on_c, 0, 64, 88
4, 179520, Note_on_c, 0, 64, 0
4, 179520, Note_on_c, 0, 69, 88
4, 179640, Note_on_c, 0, 69, 0
4, 179640, Note_on_c, 0, 68, 88
4, 179760, Note_on_c, 0, 68, 0
4, 179760, Note_on_c, 0, 69, 88
4, 179880, Note_on_c, 0, 69, 0
4, 179880, Note_on_c, 0, 71, 88
4, 180000, Note_on_c, 0, 71, 0
4, 180000, Note_on_c, 0, 73, 88
4, 180240, Note_on_c, 0, 73, 0
4, 180480, Note_on_c, 0, 42, 101
4, 180480, Note_on_c, 0, 54, 101
4, 180960, Note_on_c, 0, 54, 0
4, 180960, Note_on_c, 0, 42, 0
4, 180960, Note_on_c, 0, 44, 101
4, 180960, Note_on_c, 0, 56, 101
4, 181200, Note_on_c, 0, 56, 0
4, 181200, Note_on_c, 0, 44, 0
4, 181200, Note_on_c, 0, 46, 101
4, 181200, Note_on_c, 0, 58, 101
4, 181440, Note_on_c, 0, 58, 0
4, 181440, Note_on_c, 0, 46, 0
4, 181440, Note_on_c, 0, 47, 101
4, 181440, Note_on_c, 0, 59, 101
4, 181680, Note_on_c, 0, 59, 0
4, 181680, Note_on_c, 0, 47, 0
4, 181680, Note_on_c, 0, 54, 101
4, 181920, Note_on_c, 0, 54, 0
4, 181920, Note_on_c, 0, 59, 101
4, 181920, Note_on_c, 0, 62, 101
4, 182160, Note_on_c, 0, 62, 0
4, 182160, Note_on_c, 0, 59, 0
4, 182400, Note_on_c, 0, 40, 101
4, 182400, Note_on_c, 0, 52, 101
4, 182880, Note_on_c, 0, 52, 0
4, 182880, Note_on_c, 0, 40, 0
4, 182880, Note_on_c, 0, 42, 101
4, 182880, Note_on_c, 0, 54, 101
4, 183120, Note_on_c, 0, 54, 0
4, 183120, Note_on_c, 0, 42, 0
4, 183120, Note_on_c, 0, 44, 101
4, 183120, Note_on_c, 0, 56, 101
4, 183360, Note_on_c, 0, 56, 0
4, 183360, Note_on_c, 0, 44, 0
4, 183360, Note_on_c, 0, 45, 101
4, 183360, Note_on_c, 0, 57, 101
4, 183600, Note_on_c, 0, 57, 0
4, 183600, Note_on_c, 0, 45, 0
4, 183600, Note_on_c, 0, 52, 101
4, 183840, Note_on_c, 0, 52, 0
4, 183840, Note_on_c, 0, 57, 101
4, 183840, Note_on_c, 0, 61, 101
4, 184080, Note_on_c, 0, 61, 0
4, 184080, Note_on_c, 0, 57, 0
4, 184320, Note_on_c, 0, 42, 101
4, 184320, Note_on_c, 0, 54, 101
4, 184560, Note_on_c, 0, 54, 0
4, 184560, Note_on_c, 0, 42, 0
4, 185040, Note_on_c, 0, 42, 101
4, 185040, Note_on_c, 0, 54, 101
4, 185280, Note_on_c, 0, 54, 0
4, 185280, Note_on_c, 0, 42, 0
4, 185280, Note_on_c, 0, 47, 101
4, 185280, Note_on_c, 0, 59, 101
4, 185520, Note_on_c, 0, 59, 0
4, 185520, Note_on_c, 0, 47, 0
4, 185520, Note_on_c, 0, 45, 101
4, 185520, Note_on_c, 0, 57, 101
4, 185760, Note_on_c, 0, 57, 0
4, 185760, Note_on_c, 0, 45, 0
4, 185760, Note_on_c, 0, 44, 101
4, 185760, Note_on_c, 0, 56, 101
4, 186000, Note_on_c, 0, 56, 0
4, 186000, Note_on_c, 0, 44, 0
4, 186000, Note_on_c, 0, 43, 101
4, 186000, Note_on_c, 0, 55, 101
4, 186240, Note_on_c, 0, 55, 0
4, 186240, Note_on_c, 0, 43, 0
4, 186240, Note_on_c, 0, 42, 101
4, 186240, Note_on_c, 0, 54, 101
4, 186480, Note_on_c, 0, 54, 0
4, 186480, Note_on_c, 0, 42, 0
4, 186960, Note_on_c, 0, 42, 101
4, 186960, Note_on_c, 0, 54, 101
4, 187200, Note_on_c, 0, 54, 0
4, 187200, Note_on_c, 0, 42, 0
4, 187200, Note_on_c, 0, 47, 101
4, 187200, Note_on_c, 0, 59, 101
4, 187440, Note_on_c, 0, 59, 0
4, 187440, Note_on_c, 0, 47, 0
4, 187440, Note_on_c, 0, 45, 101
4, 187440, Note_on_c, 0, 57, 101
4, 187680, Note_on_c, 0, 57, 0
4, 187680, Note_on_c, 0, 45, 0
4, 187680, Note_on_c, 0, 44, 101
4, 187680, Note_on_c, 0, 56, 101
4, 187920, Note_on_c, 0, 56, 0
4, 187920, Note_on_c, 0, 44, 0
4, 187920, Note_on_c, 0, 43, 101
4, 187920, Note_on_c, 0, 55, 101
4, 188160, Note_on_c, 0, 55, 0
4, 188160, Note_on_c, 0, 43, 0
4, 188160, Note_on_c, 0, 42, 101
4, 188160, Note_on_c, 0, 54, 101
4, 188880, Note_on_c, 0, 54, 0
4, 188880, Note_on_c, 0, 42, 0
4, 188880, Note_on_c, 0, 41, 101
4, 188880, Note_on_c, 0, 53, 101
4, 189120, Note_on_c, 0, 53, 0
4, 189120, Note_on_c, 0, 41, 0
4, 189120, Note_on_c, 0, 40, 101
4, 189120, Note_on_c, 0, 52, 101
4, 189360, Note_on_c, 0, 52, 0
4, 189360, Note_on_c, 0, 40, 0
4, 190560, Note_on_c, 0, 52, 88
4, 190560, Note_on_c, 0, 59, 88
4, 190560, Note_on_c, 0, 62, 88
4, 191280, Note_on_c, 0, 62, 0
4, 191280, Note_on_c, 0, 59, 0
4, 191280, Note_on_c, 0, 52, 0
4, 191280, Note_on_c, 0, 40, 88
4, 191280, Note_on_c, 0, 52, 88
4, 191520, Note_on_c, 0, 52, 0
4, 191520, Note_on_c, 0, 40, 0
4, 191520, Note_on_c, 0, 45, 88
4, 191520, Note_on_c, 0, 57, 88
4, 191760, Note_on_c, 0, 57, 0
4, 191760, Note_on_c, 0, 45, 0
4, 191760, Note_on_c, 0, 69, 101
4, 192000, Note_on_c, 0, 69, 0
4, 192000, Note_on_c, 0, 76, 101
4, 192000, Note_on_c, 0, 79, 101
4, 192240, Note_on_c, 0, 79, 0
4, 192240, Note_on_c, 0, 76, 0
4, 192240, Note_on_c, 0, 74, 101
4, 192240, Note_on_c, 0, 78, 101
4, 192480, Note_on_c, 0, 78, 0
4, 192480, Note_on_c, 0, 74, 0
4, 192480, Note_on_c, 0, 73, 101
4, 192480, Note_on_c, 0, 76, 101
4, 192720, Note_on_c, 0, 76, 0
4, 192720, Note_on_c, 0, 73, 0
4, 192720, Note_on_c, 0, 71, 101
4, 192720, Note_on_c, 0, 74, 101
4, 192960, Note_on_c, 0, 74, 0
4, 192960, Note_on_c, 0, 71, 0
4, 192960, Note_on_c, 0, 69, 101
4, 192960, Note_on_c, 0, 73, 101
4, 193200, Note_on_c, 0, 73, 0
4, 193200, Note_on_c, 0, 69, 0
4, 193200, Note_on_c, 0, 71, 101
4, 193200, Note_on_c, 0, 74, 101
4, 193440, Note_on_c, 0, 74, 0
4, 193440, Note_on_c, 0, 71, 0
4, 193440, Note_on_c, 0, 73, 101
4, 193440, Note_on_c, 0, 76, 101
4, 193680, Note_on_c, 0, 76, 0
4, 193680, Note_on_c, 0, 73, 0
4, 193680, Note_on_c, 0, 52, 101
4, 193920, Note_on_c, 0, 52, 0
4, 193920, Note_on_c, 0, 59, 101
4, 193920, Note_on_c, 0, 62, 101
4, 194160, Note_on_c, 0, 62, 0
4, 194160, Note_on_c, 0, 59, 0
4, 194160, Note_on_c, 0, 57, 101
4, 194160, Note_on_c, 0, 61, 101
4, 194400, Note_on_c, 0, 61, 0
4, 194400, Note_on_c, 0, 57, 0
4, 194400, Note_on_c, 0, 56, 101
4, 194400, Note_on_c, 0, 59, 101
4, 194640, Note_on_c, 0, 59, 0
4, 194640, Note_on_c, 0, 56, 0
4, 194640, Note_on_c, 0, 59, 101
4, 194640, Note_on_c, 0, 62, 101
4, 194880, Note_on_c, 0, 62, 0
4, 194880, Note_on_c, 0, 59, 0
4, 194880, Note_on_c, 0, 57, 101
4, 194880, Note_on_c, 0, 61, 101
4, 195120, Note_on_c, 0, 61, 0
4, 195120, Note_on_c, 0, 57, 0
4, 195120, Note_on_c, 0, 52, 101
4, 195120, Note_on_c, 0, 59, 101
4, 195360, Note_on_c, 0, 59, 0
4, 195360, Note_on_c, 0, 52, 0
4, 195360, Note_on_c, 0, 49, 101
4, 195360, Note_on_c, 0, 57, 101
4, 195600, Note_on_c, 0, 57, 0
4, 195600, Note_on_c, 0, 49, 0
4, 195600, Note_on_c, 0, 69, 101
4, 195840, Note_on_c, 0, 69, 0
4, 195840, Note_on_c, 0, 76, 101
4, 195840, Note_on_c, 0, 79, 101
4, 196080, Note_on_c, 0, 79, 0
4, 196080, Note_on_c, 0, 76, 0
4, 196080, Note_on_c, 0, 74, 101
4, 196080, Note_on_c, 0, 78, 101
4, 196320, Note_on_c, 0, 78, 0
4, 196320, Note_on_c, 0, 74, 0
4, 196320, Note_on_c, 0, 73, 101
4, 196320, Note_on_c, 0, 76, 101
4, 196560, Note_on_c, 0, 76, 0
4, 196560, Note_on_c, 0, 73, 0
4, 196560, Note_on_c, 0, 71, 101
4, 196560, Note_on_c, 0, 74, 101
4, 196800, Note_on_c, 0, 74, 0
4, 196800, Note_on_c, 0, 71, 0
4, 196800, Note_on_c, 0, 69, 101
4, 196800, Note_on_c, 0, 73, 101
4, 197040, Note_on_c, 0, 73, 0
4, 197040, Note_on_c, 0, 69, 0
4, 197040, Note_on_c, 0, 71, 101
4, 197040, Note_on_c, 0, 74, 101
4, 197280, Note_on_c, 0, 74, 0
4, 197280, Note_on_c, 0, 71, 0
4, 197280, Note_on_c, 0, 73, 101
4, 197280, Note_on_c, 0, 76, 101
4, 197520, Note_on_c, 0, 76, 0
4, 197520, Note_on_c, 0, 73, 0
4, 197520, Note_on_c, 0, 52, 101
4, 197760, Note_on_c, 0, 52, 0
4, 197760, Note_on_c, 0, 59, 101
4, 197760, Note_on_c, 0, 62, 101
4, 198000, Note_on_c, 0, 62, 0
4, 198000, Note_on_c, 0, 59, 0
4, 198000, Note_on_c, 0, 57, 101
4, 198000, Note_on_c, 0, 61, 101
4, 198240, Note_on_c, 0, 61, 0
4, 198240, Note_on_c, 0, 57, 0
4, 198240, Note_on_c, 0, 56, 101
4, 198240, Note_on_c, 0, 59, 101
4, 198480, Note_on_c, 0, 59, 0
4, 198480, Note_on_c, 0, 56, 0
4, 198480, Note_on_c, 0, 59, 101
4, 198480, Note_on_c, 0, 62, 101
4, 198720, Note_on_c, 0, 62, 0
4, 198720, Note_on_c, 0, 59, 0
4, 198720, Note_on_c, 0, 57, 101
4, 198720, Note_on_c, 0, 61, 101
4, 198960, Note_on_c, 0, 61, 0
4, 198960, Note_on_c, 0, 57, 0
4, 198960, Note_on_c, 0, 52, 101
4, 198960, Note_on_c, 0, 59, 101
4, 199200, Note_on_c, 0, 59, 0
4, 199200, Note_on_c, 0, 52, 0
4, 199200, Note_on_c, 0, 49, 101
4, 199200, Note_on_c, 0, 57, 101
4, 199440, Note_on_c, 0, 57, 0
4, 199440, Note_on_c, 0, 49, 0
4, 199440, Note_on_c, 0, 52, 101
4, 199440, Note_on_c, 0, 59, 101
4, 199680, Note_on_c, 0, 59, 0
4, 199680, Note_on_c, 0, 52, 0
4, 199680, Note_on_c, 0, 57, 101
4, 199680, Note_on_c, 0, 61, 101
4, 199920, Note_on_c, 0, 61, 0
4, 199920, Note_on_c, 0, 57, 0
4, 199920, Note_on_c, 0, 52, 101
4, 199920, Note_on_c, 0, 59, 101
4, 200160, Note_on_c, 0, 59, 0
4, 200160, Note_on_c, 0, 52, 0
4, 200160, Note_on_c, 0, 49, 101
4, 200160, Note_on_c, 0, 57, 101
4, 200400, Note_on_c, 0, 57, 0
4, 200400, Note_on_c, 0, 49, 0
4, 200400, Note_on_c, 0, 52, 101
4, 200400, Note_on_c, 0, 59, 101
4, 200640, Note_on_c, 0, 59, 0
4, 200640, Note_on_c, 0, 52, 0
4, 200640, Note_on_c, 0, 57, 101
4, 200640, Note_on_c, 0, 61, 101
4, 200880, Note_on_c, 0, 61, 0
4, 200880, Note_on_c, 0, 57, 0
4, 200880, Note_on_c, 0, 52, 101
4, 200880, Note_on_c, 0, 59, 101
4, 201120, Note_on_c, 0, 59, 0
4, 201120, Note_on_c, 0, 52, 0
4, 201120, Note_on_c, 0, 49, 101
4, 201120, Note_on_c, 0, 57, 101
4, 201360, Note_on_c, 0, 57, 0
4, 201360, Note_on_c, 0, 49, 0
4, 201360, Note_on_c, 0, 52, 101
4, 201360, Note_on_c, 0, 59, 101
4, 201600, Note_on_c, 0, 59, 0
4, 201600, Note_on_c, 0, 52, 0
4, 201600, Note_on_c, 0, 57, 101
4, 201600, Note_on_c, 0, 61, 101
4, 201840, Note_on_c, 0, 61, 0
4, 201840, Note_on_c, 0, 57, 0
4, 201840, Note_on_c, 0, 56, 101
4, 201840, Note_on_c, 0, 59, 101
4, 202080, Note_on_c, 0, 59, 0
4, 202080, Note_on_c, 0, 56, 0
4, 202080, Note_on_c, 0, 57, 101
4, 202080, Note_on_c, 0, 61, 101
4, 202320, Note_on_c, 0, 61, 0
4, 202320, Note_on_c, 0, 57, 0
4, 202320, Note_on_c, 0, 59, 101
4, 202320, Note_on_c, 0, 62, 101
4, 202560, Note_on_c, 0, 62, 0
4, 202560, Note_on_c, 0, 59, 0
4, 202560, Note_on_c, 0, 61, 101
4, 202560, Note_on_c, 0, 64, 101
4, 202800, Note_on_c, 0, 64, 0
4, 202800, Note_on_c, 0, 61, 0
4, 203520, Note_on_c, 0, 38, 88
4, 203520, Note_on_c, 0, 50, 88
4, 204000, Note_on_c, 0, 50, 0
4, 204000, Note_on_c, 0, 38, 0
4, 204000, Note_on_c, 0, 40, 88
4, 204000, Note_on_c, 0, 52, 88
4, 204480, Note_on_c, 0, 52, 0
4, 204480, Note_on_c, 0, 40, 0
4, 204480, Note_on_c, 0, 41, 88
4, 204480, Note_on_c, 0, 53, 88
4, 204960, Note_on_c, 0, 53, 0
4, 204960, Note_on_c, 0, 41, 0
4, 204960, Note_on_c, 0, 42, 88
4, 204960, Note_on_c, 0, 54, 88
4, 205440, Note_on_c, 0, 54, 0
4, 205440, Note_on_c, 0, 42, 0
4, 205440, Note_on_c, 0, 43, 88
4, 205440, Note_on_c, 0, 55, 88
4, 205920, Note_on_c, 0, 55, 0
4, 205920, Note_on_c, 0, 43, 0
4, 205920, Note_on_c, 0, 44, 88
4, 205920, Note_on_c, 0, 56, 88
4, 206400, Note_on_c, 0, 56, 0
4, 206400, Note_on_c, 0, 44, 0
4, 206400, Note_on_c, 0, 45, 88
4, 206400, Note_on_c, 0, 57, 88
4, 206640, Note_on_c, 0, 57, 0
4, 206640, Note_on_c, 0, 45, 0
4, 206640, Note_on_c, 0, 45, 88
4, 206640, Note_on_c, 0, 57, 88
4, 206880, Note_on_c, 0, 57, 0
4, 206880, Note_on_c, 0, 45, 0
4, 206880, Note_on_c, 0, 38, 88
4, 206880, Note_on_c, 0, 50, 88
4, 207120, Note_on_c, 0, 50, 0
4, 207120, Note_on_c, 0, 38, 0
4, 207360, Note_on_c, 0, 38, 88
4, 207360, Note_on_c, 0, 50, 88
4, 207600, Note_on_c, 0, 50, 0
4, 207600, Note_on_c, 0, 38, 0
4, 207600, Note_on_c, 0, 57, 88
4, 207720, Note_on_c, 0, 57, 0
4, 207720, Note_on_c, 0, 55, 88
4, 207840, Note_on_c, 0, 55, 0
4, 207840, Note_on_c, 0, 54, 88
4, 207960, Note_on_c, 0, 54, 0
4, 207960, Note_on_c, 0, 55, 88
4, 208080, Note_on_c, 0, 55, 0
4, 208080, Note_on_c, 0, 54, 88
4, 208200, Note_on_c, 0, 54, 0
4, 208200, Note_on_c, 0, 52, 88
4, 208320, Note_on_c, 0, 52, 0
4, 208320, Note_on_c, 0, 50, 88
4, 208440, Note_on_c, 0, 50, 0
4, 208440, Note_on_c, 0, 49, 88
4, 208560, Note_on_c, 0, 49, 0
4, 208560, Note_on_c, 0, 47, 88
4, 208680, Note_on_c, 0, 47, 0
4, 208680, Note_on_c, 0, 49, 88
4, 208800, Note_on_c, 0, 49, 0
4, 208800, Note_on_c, 0, 50, 88
4, 208920, Note_on_c, 0, 50, 0
4, 208920, Note_on_c, 0, 49, 88
4, 209040, Note_on_c, 0, 49, 0
4, 209040, Note_on_c, 0, 50, 88
4, 209160, Note_on_c, 0, 50, 0
4, 209160, Note_on_c, 0, 52, 88
4, 209280, Note_on_c, 0, 52, 0
4, 209280, Note_on_c, 0, 54, 88
4, 209400, Note_on_c, 0, 54, 0
4, 209400, Note_on_c, 0, 52, 88
4, 209520, Note_on_c, 0, 52, 0
4, 209520, Note_on_c, 0, 50, 88
4, 209640, Note_on_c, 0, 50, 0
4, 209640, Note_on_c, 0, 52, 88
4, 209760, Note_on_c, 0, 52, 0
4, 209760, Note_on_c, 0, 54, 88
4, 210000, Note_on_c, 0, 54, 0
4, 210240, Note_on_c, 0, 33, 88
4, 210240, Note_on_c, 0, 45, 88
4, 210480, Note_on_c, 0, 45, 0
4, 210480, Note_on_c, 0, 33, 0
4, 210480, Note_on_c, 0, 38, 88
4, 210480, Note_on_c, 0, 50, 88
4, 210720, Note_on_c, 0, 50, 0
4, 210720, Note_on_c, 0, 38, 0
4, 210720, Note_on_c, 0, 33, 88
4, 210720, Note_on_c, 0, 45, 88
4, 210960, Note_on_c, 0, 45, 0
4, 210960, Note_on_c, 0, 33, 0
4, 211200, Note_on_c, 0, 38, 88
4, 211200, Note_on_c, 0, 50, 88
4, 211680, Note_on_c, 0, 50, 0
4, 211680, Note_on_c, 0, 38, 0
4, 211680, Note_on_c, 0, 40, 88
4, 211680, Note_on_c, 0, 52, 88
4, 212160, Note_on_c, 0, 52, 0
4, 212160, Note_on_c, 0, 40, 0
4, 212160, Note_on_c, 0, 41, 88
4, 212160, Note_on_c, 0, 53, 88
4, 212640, Note_on_c, 0, 53, 0
4, 212640, Note_on_c, 0, 41, 0
4, 212640, Note_on_c, 0, 42, 88
4, 212640, Note_on_c, 0, 54, 88
4, 213120, Note_on_c, 0, 54, 0
4, 213120, Note_on_c, 0, 42, 0
4, 213120, Note_on_c, 0, 43, 88
4, 213120, Note_on_c, 0, 55, 88
4, 213600, Note_on_c, 0, 55, 0
4, 213600, Note_on_c, 0, 43, 0
4, 213600, Note_on_c, 0, 44, 88
4, 213600, Note_on_c, 0, 56, 88
4, 214080, Note_on_c, 0, 56, 0
4, 214080, Note_on_c, 0, 44, 0
4, 214080, Note_on_c, 0, 45, 88
4, 214080, Note_on_c, 0, 57, 88
4, 214320, Note_on_c, 0, 57, 0
4, 214320, Note_on_c, 0, 45, 0
4, 214320, Note_on_c, 0, 45, 88
4, 214320, Note_on_c, 0, 57, 88
4, 214560, Note_on_c, 0, 57, 0
4, 214560, Note_on_c, 0, 45, 0
4, 214560, Note_on_c, 0, 38, 88
4, 214560, Note_on_c, 0, 50, 88
4, 214800, Note_on_c, 0, 50, 0
4, 214800, Note_on_c, 0, 38, 0
4, 215040, Note_on_c, 0, 38, 88
4, 215040, Note_on_c, 0, 50, 88
4, 215280, Note_on_c, 0, 50, 0
4, 215280, Note_on_c, 0, 38, 0
4, 215280, Note_on_c, 0, 57, 88
4, 215400, Note_on_c, 0, 57, 0
4, 215400, Note_on_c, 0, 55, 88
4, 215520, Note_on_c, 0, 55, 0
4, 215520, Note_on_c, 0, 54, 88
4, 215640, Note_on_c, 0, 54, 0
4, 215640, Note_on_c, 0, 55, 88
4, 215760, Note_on_c, 0, 55, 0
4, 215760, Note_on_c, 0, 54, 88
4, 215880, Note_on_c, 0, 54, 0
4, 215880, Note_on_c, 0, 52, 88
4, 216000, Note_on_c, 0, 52, 0
4, 216000, Note_on_c, 0, 50, 88
4, 216120, Note_on_c, 0, 50, 0
4, 216120, Note_on_c, 0, 49, 88
4, 216240, Note_on_c, 0, 49, 0
4, 216240, Note_on_c, 0, 47, 88
4, 216360, Note_on_c, 0, 47, 0
4, 216360, Note_on_c, 0, 49, 88
4, 216480, Note_on_c, 0, 49, 0
4, 216480, Note_on_c, 0, 50, 88
4, 216600, Note_on_c, 0, 50, 0
4, 216600, Note_on_c, 0, 49, 88
4, 216720, Note_on_c, 0, 49, 0
4, 216720, Note_on_c, 0, 50, 88
4, 216840, Note_on_c, 0, 50, 0
4, 216840, Note_on_c, 0, 52, 88
4, 216960, Note_on_c, 0, 52, 0
4, 216960, Note_on_c, 0, 54, 88
4, 217080, Note_on_c, 0, 54, 0
4, 217080, Note_on_c, 0, 52, 88
4, 217200, Note_on_c, 0, 52, 0
4, 217200, Note_on_c, 0, 50, 88
4, 217320, Note_on_c, 0, 50, 0
4, 217320, Note_on_c, 0, 52, 88
4, 217440, Note_on_c, 0, 52, 0
4, 217440, Note_on_c, 0, 54, 88
4, 217560, Note_on_c, 0, 54, 0
4, 217560, Note_on_c, 0, 55, 88
4, 217680, Note_on_c, 0, 55, 0
4, 217680, Note_on_c, 0, 57, 88
4, 217800, Note_on_c, 0, 57, 0
4, 217800, Note_on_c, 0, 59, 88
4, 217920, Note_on_c, 0, 59, 0
4, 217920, Note_on_c, 0, 45, 88
4, 217920, Note_on_c, 0, 57, 88
4, 218160, Note_on_c, 0, 57, 0
4, 218160, Note_on_c, 0, 45, 0
4, 218160, Note_on_c, 0, 33, 88
4, 218160, Note_on_c, 0, 45, 88
4, 218400, Note_on_c, 0, 45, 0
4, 218400, Note_on_c, 0, 33, 0
4, 218400, Note_on_c, 0, 38, 88
4, 218400, Note_on_c, 0, 50, 88
4, 218640, Note_on_c, 0, 50, 0
4, 218640, Note_on_c, 0, 38, 0
4, 218820, Note_on_c, 0, 55, 62
4, 218880, Note_on_c, 0, 55, 0
4, 218880, Note_on_c, 0, 47, 62
4, 218880, Note_on_c, 0, 54, 62
4, 220740, Note_on_c, 0, 55, 62
4, 220800, Note_on_c, 0, 55, 0
4, 220800, Note_on_c, 0, 54, 0
4, 220800, Note_on_c, 0, 47, 0
4, 220800, Note_on_c, 0, 47, 62
4, 220800, Note_on_c, 0, 54, 62
4, 222660, Note_on_c, 0, 55, 62
4, 222720, Note_on_c, 0, 55, 0
4, 222720, Note_on_c, 0, 54, 0
4, 222720, Note_on_c, 0, 47, 0
4, 222720, Note_on_c, 0, 47, 62
4, 222720, Note_on_c, 0, 54, 62
4, 224580, Note_on_c, 0, 55, 62
4, 224640, Note_on_c, 0, 55, 0
4, 224640, Note_on_c, 0, 54, 0
4, 224640, Note_on_c, 0, 47, 0
4, 224640, Note_on_c, 0, 47, 62
4, 224640, Note_on_c, 0, 54, 62
4, 226560, Note_on_c, 0, 54, 0
4, 226560, Note_on_c, 0, 47, 0
4, 226560, Note_on_c, 0, 47, 62
4, 226560, Note_on_c, 0, 54, 62
4, 228420, Note_on_c, 0, 55, 62
4, 228480, Note_on_c, 0, 55, 0
4, 228480, Note_on_c, 0, 54, 0
4, 228480, Note_on_c, 0, 47, 0
4, 228480, Note_on_c, 0, 47, 62
4, 228480, Note_on_c, 0, 54, 62
4, 230340, Note_on_c, 0, 55, 62
4, 230400, Note_on_c, 0, 55, 0
4, 230400, Note_on_c, 0, 54, 0
4, 230400, Note_on_c, 0, 47, 0
4, 230400, Note_on_c, 0, 47, 62
4, 230400, Note_on_c, 0, 54, 62
4, 232260, Note_on_c, 0, 55, 62
4, 232320, Note_on_c, 0, 55, 0
4, 232320, Note_on_c, 0, 54, 0
4, 232320, Note_on_c, 0, 47, 0
4, 232320, Note_on_c, 0, 47, 62
4, 232320, Note_on_c, 0, 54, 62
4, 234240, Note_on_c, 0, 54, 0
4, 234240, Note_on_c, 0, 47, 0
4, 234240, Note_on_c, 0, 47, 75
4, 234240, Note_on_c, 0, 54, 75
4, 236160, Note_on_c, 0, 54, 0
4, 236160, Note_on_c, 0, 47, 0
4, 236160, Note_on_c, 0, 59, 75
4, 236256, Note_on_c, 0, 59, 0
4, 236640, Note_on_c, 0, 62, 75
4, 236736, Note_on_c, 0, 62, 0
4, 237120, Note_on_c, 0, 61, 75
4, 237216, Note_on_c, 0, 61, 0
4, 237600, Note_on_c, 0, 59, 75
4, 237696, Note_on_c, 0, 59, 0
4, 238080, Note_on_c, 0, 57, 75
4, 238176, Note_on_c, 0, 57, 0
4, 238560, Note_on_c, 0, 56, 75
4, 238656, Note_on_c, 0, 56, 0
4, 239040, Note_on_c, 0, 55, 75
4, 239136, Note_on_c, 0, 55, 0
4, 239520, Note_on_c, 0, 54, 75
4, 239616, Note_on_c, 0, 54, 0
4, 240000, Note_on_c, 0, 59, 75
4, 240096, Note_on_c, 0, 59, 0
4, 240480, Note_on_c, 0, 58, 75
4, 240576, Note_on_c, 0, 58, 0
4, 240960, Note_on_c, 0, 57, 75
4, 241007, Note_on_c, 0, 57, 0
4, 241200, Note_on_c, 0, 58, 75
4, 241247, Note_on_c, 0, 58, 0
4, 241440, Note_on_c, 0, 59, 75
4, 241536, Note_on_c, 0, 59, 0
4, 241920, Note_on_c, 0, 47, 75
4, 241920, Note_on_c, 0, 54, 75
4, 243840, Note_on_c, 0, 54, 0
4, 243840, Note_on_c, 0, 47, 0
4, 243840, Note_on_c, 0, 59, 75
4, 243936, Note_on_c, 0, 59, 0
4, 244320, Note_on_c, 0, 62, 75
4, 244416, Note_on_c, 0, 62, 0
4, 244800, Note_on_c, 0, 61, 75
4, 244896, Note_on_c, 0, 61, 0
4, 245280, Note_on_c, 0, 59, 75
4, 245376, Note_on_c, 0, 59, 0
4, 245760, Note_on_c, 0, 57, 75
4, 245856, Note_on_c, 0, 57, 0
4, 246240, Note_on_c, 0, 56, 75
4, 246336, Note_on_c, 0, 56, 0
4, 246720, Note_on_c, 0, 55, 75
4, 246816, Note_on_c, 0, 55, 0
4, 247200, Note_on_c, 0, 54, 75
4, 247296, Note_on_c, 0, 54, 0
4, 247680, Note_on_c, 0, 56, 75
4, 247776, Note_on_c, 0, 56, 0
4, 248160, Note_on_c, 0, 58, 75
4, 248256, Note_on_c, 0, 58, 0
4, 248640, Note_on_c, 0, 59, 75
4, 248736, Note_on_c, 0, 59, 0
4, 249600, Note_on_c, 0, 45, 62
4, 249600, Note_on_c, 0, 57, 62
4, 249647, Note_on_c, 0, 57, 0
4, 249647, Note_on_c, 0, 45, 0
4, 249840, Note_on_c, 0, 58, 62
4, 249887, Note_on_c, 0, 58, 0
4, 250080, Note_on_c, 0, 55, 62
4, 250080, Note_on_c, 0, 59, 62
4, 250127, Note_on_c, 0, 59, 0
4, 250127, Note_on_c, 0, 55, 0
4, 250320, Note_on_c, 0, 61, 62
4, 250367, Note_on_c, 0, 61, 0
4, 250560, Note_on_c, 0, 54, 62
4, 250560, Note_on_c, 0, 62, 62
4, 250607, Note_on_c, 0, 62, 0
4, 250607, Note_on_c, 0, 54, 0
4, 250800, Note_on_c, 0, 57, 62
4, 250847, Note_on_c, 0, 57, 0
4, 251040, Note_on_c, 0, 45, 62
4, 251040, Note_on_c, 0, 50, 62
4, 251040, Note_on_c, 0, 54, 62
4, 251087, Note_on_c, 0, 54, 0
4, 251087, Note_on_c, 0, 50, 0
4, 251087, Note_on_c, 0, 45, 0
4, 251520, Note_on_c, 0, 45, 62
4, 251520, Note_on_c, 0, 49, 62
4, 251520, Note_on_c, 0, 55, 62
4, 251567, Note_on_c, 0, 55, 0
4, 251567, Note_on_c, 0, 49, 0
4, 251567, Note_on_c, 0, 45, 0
4, 251760, Note_on_c, 0, 52, 62
4, 251807, Note_on_c, 0, 52, 0
4, 252000, Note_on_c, 0, 49, 62
4, 252047, Note_on_c, 0, 49, 0
4, 252240, Note_on_c, 0, 45, 62
4, 252480, Note_on_c, 0, 50, 62
4, 252720, Note_on_c, 0, 50, 0
4, 252720, Note_on_c, 0, 45, 0
4, 252960, Note_on_c, 0, 33, 62
4, 252960, Note_on_c, 0, 45, 62
4, 253007, Note_on_c, 0, 45, 0
4, 253007, Note_on_c, 0, 33, 0
4, 253440, Note_on_c, 0, 45, 62
4, 253440, Note_on_c, 0, 57, 62
4, 253487, Note_on_c, 0, 57, 0
4, 253487, Note_on_c, 0, 45, 0
4, 253680, Note_on_c, 0, 58, 62
4, 253727, Note_on_c, 0, 58, 0
4, 253920, Note_on_c, 0, 55, 62
4, 253920, Note_on_c, 0, 59, 62
4, 253967, Note_on_c, 0, 59, 0
4, 253967, Note_on_c, 0, 55, 0
4, 254160, Note_on_c, 0, 61, 62
4, 254207, Note_on_c, 0, 61, 0
4, 254400, Note_on_c, 0, 54, 62
4, 254400, Note_on_c, 0, 62, 62
4, 254447, Note_on_c, 0, 62, 0
4, 254447, Note_on_c, 0, 54, 0
4, 254640, Note_on_c, 0, 57, 62
4, 254687, Note_on_c, 0, 57, 0
4, 254880, Note_on_c, 0, 45, 62
4, 254880, Note_on_c, 0, 50, 62
4, 254880, Note_on_c, 0, 54, 62
4, 254927, Note_on_c, 0, 54, 0
4, 254927, Note_on_c, 0, 50, 0
4, 254927, Note_on_c, 0, 45, 0
4, 255360, Note_on_c, 0, 45, 62
4, 255360, Note_on_c, 0, 49, 62
4, 255360, Note_on_c, 0, 55, 62
4, 255407, Note_on_c, 0, 55, 0
4, 255407, Note_on_c, 0, 49, 0
4, 255407, Note_on_c, 0, 45, 0
4, 255600, Note_on_c, 0, 52, 62
4, 255647, Note_on_c, 0, 52, 0
4, 255840, Note_on_c, 0, 49, 62
4, 255887, Note_on_c, 0, 49, 0
4, 256080, Note_on_c, 0, 45, 62
4, 256320, Note_on_c, 0, 50, 62
4, 256560, Note_on_c, 0, 50, 0
4, 256560, Note_on_c, 0, 45, 0
4, 256800, Note_on_c, 0, 33, 62
4, 256800, Note_on_c, 0, 45, 62
4, 256847, Note_on_c, 0, 45, 0
4, 256847, Note_on_c, 0, 33, 0
4, 257280, Note_on_c, 0, 45, 62
4, 257280, Note_on_c, 0, 57, 62
4, 257327, Note_on_c, 0, 57, 0
4, 257327, Note_on_c, 0, 45, 0
4, 257520, Note_on_c, 0, 58, 62
4, 257567, Note_on_c, 0, 58, 0
4, 257760, Note_on_c, 0, 55, 62
4, 257760, Note_on_c, 0, 59, 62
4, 257807, Note_on_c, 0, 59, 0
4, 257807, Note_on_c, 0, 55, 0
4, 258000, Note_on_c, 0, 61, 62
4, 258047, Note_on_c, 0, 61, 0
4, 258240, Note_on_c, 0, 54, 62
4, 258240, Note_on_c, 0, 62, 62
4, 258287, Note_on_c, 0, 62, 0
4, 258287, Note_on_c, 0, 54, 0
4, 258480, Note_on_c, 0, 57, 62
4, 258527, Note_on_c, 0, 57, 0
4, 258720, Note_on_c, 0, 45, 62
4, 258720, Note_on_c, 0, 50, 62
4, 258720, Note_on_c, 0, 54, 62
4, 258767, Note_on_c, 0, 54, 0
4, 258767, Note_on_c, 0, 50, 0
4, 258767, Note_on_c, 0, 45, 0
4, 259200, Note_on_c, 0, 45, 62
4, 259200, Note_on_c, 0, 49, 62
4, 259200, Note_on_c, 0, 55, 62
4, 259247, Note_on_c, 0, 55, 0
4, 259247, Note_on_c, 0, 49, 0
4, 259247, Note_on_c, 0, 45, 0
4, 259440, Note_on_c, 0, 52, 62
4, 259487, Note_on_c, 0, 52, 0
4, 259680, Note_on_c, 0, 49, 62
4, 259727, Note_on_c, 0, 49, 0
4, 259920, Note_on_c, 0, 45, 62
4, 260160, Note_on_c, 0, 50, 62
4, 260400, Note_on_c, 0, 50, 0
4, 260400, Note_on_c, 0, 45, 0
4, 260640, Note_on_c, 0, 33, 62
4, 260640, Note_on_c, 0, 45, 62
4, 260687, Note_on_c, 0, 45, 0
4, 260687, Note_on_c, 0, 33, 0
4, 261120, Note_on_c, 0, 45, 75
4, 261167, Note_on_c, 0, 45, 0
4, 261360, Note_on_c, 0, 57, 75
4, 261407, Note_on_c, 0, 57, 0
4, 261600, Note_on_c, 0, 46, 75
4, 261647, Note_on_c, 0, 46, 0
4, 261840, Note_on_c, 0, 58, 75
4, 261887, Note_on_c, 0, 58, 0
4, 262080, Note_on_c, 0, 47, 75
4, 262127, Note_on_c, 0, 47, 0
4, 262320, Note_on_c, 0, 59, 75
4, 262367, Note_on_c, 0, 59, 0
4, 262560, Note_on_c, 0, 48, 75
4, 262607, Note_on_c, 0, 48, 0
4, 262800, Note_on_c, 0, 60, 75
4, 262847, Note_on_c, 0, 60, 0
4, 263040, Note_on_c, 0, 49, 75
4, 263087, Note_on_c, 0, 49, 0
4, 263280, Note_on_c, 0, 61, 75
4, 263327, Note_on_c, 0, 61, 0
4, 263520, Note_on_c, 0, 50, 75
4, 263567, Note_on_c, 0, 50, 0
4, 263760, Note_on_c, 0, 62, 75
4, 263807, Note_on_c, 0, 62, 0
4, 264000, Note_on_c, 0, 49, 75
4, 264047, Note_on_c, 0, 49, 0
4, 264240, Note_on_c, 0, 61, 75
4, 264287, Note_on_c, 0, 61, 0
4, 264480, Note_on_c, 0, 47, 75
4, 264527, Note_on_c, 0, 47, 0
4, 264720, Note_on_c, 0, 59, 75
4, 264767, Note_on_c, 0, 59, 0
4, 264960, Note_on_c, 0, 45, 75
4, 265007, Note_on_c, 0, 45, 0
4, 265200, Note_on_c, 0, 57, 75
4, 265247, Note_on_c, 0, 57, 0
4, 265440, Note_on_c, 0, 43, 75
4, 265487, Note_on_c, 0, 43, 0
4, 265680, Note_on_c, 0, 55, 75
4, 265727, Note_on_c, 0, 55, 0
4, 265920, Note_on_c, 0, 42, 75
4, 265967, Note_on_c, 0, 42, 0
4, 266160, Note_on_c, 0, 54, 75
4, 266207, Note_on_c, 0, 54, 0
4, 266400, Note_on_c, 0, 40, 75
4, 266447, Note_on_c, 0, 40, 0
4, 266640, Note_on_c, 0, 52, 75
4, 266687, Note_on_c, 0, 52, 0
4, 266880, Note_on_c, 0, 38, 88
4, 266880, Note_on_c, 0, 50, 88
4, 267360, Note_on_c, 0, 50, 0
4, 267360, Note_on_c, 0, 38, 0
4, 267360, Note_on_c, 0, 40, 88
4, 267360, Note_on_c, 0, 52, 88
4, 267840, Note_on_c, 0, 52, 0
4, 267840, Note_on_c, 0, 40, 0
4, 267840, Note_on_c, 0, 41, 88
4, 267840, Note_on_c, 0, 53, 88
4, 268320, Note_on_c, 0, 53, 0
4, 268320, Note_on_c, 0, 41, 0
4, 268320, Note_on_c, 0, 42, 88
4, 268320, Note_on_c, 0, 54, 88
4, 268800, Note_on_c, 0, 54, 0
4, 268800, Note_on_c, 0, 42, 0
4, 268800, Note_on_c, 0, 43, 88
4, 268800, Note_on_c, 0, 55, 88
4, 269280, Note_on_c, 0, 55, 0
4, 269280, Note_on_c, 0, 43, 0
4, 269280, Note_on_c, 0, 44, 88
4, 269280, Note_on_c, 0, 56, 88
4, 269760, Note_on_c, 0, 56, 0
4, 269760, Note_on_c, 0, 44, 0
4, 269760, Note_on_c, 0, 45, 88
4, 269760, Note_on_c, 0, 57, 88
4, 270000, Note_on_c, 0, 57, 0
4, 270000, Note_on_c, 0, 45, 0
4, 270000, Note_on_c, 0, 45, 88
4, 270000, Note_on_c, 0, 57, 88
4, 270240, Note_on_c, 0, 57, 0
4, 270240, Note_on_c, 0, 45, 0
4, 270240, Note_on_c, 0, 38, 88
4, 270240, Note_on_c, 0, 50, 88
4, 270480, Note_on_c, 0, 50, 0
4, 270480, Note_on_c, 0, 38, 0
4, 270720, Note_on_c, 0, 38, 88
4, 270720, Note_on_c, 0, 50, 88
4, 270960, Note_on_c, 0, 50, 0
4, 270960, Note_on_c, 0, 38, 0
4, 270960, Note_on_c, 0, 57, 88
4, 271080, Note_on_c, 0, 57, 0
4, 271080, Note_on_c, 0, 55, 88
4, 271200, Note_on_c, 0, 55, 0
4, 271200, Note_on_c, 0, 54, 88
4, 271320, Note_on_c, 0, 54, 0
4, 271320, Note_on_c, 0, 55, 88
4, 271440, Note_on_c, 0, 55, 0
4, 271440, Note_on_c, 0, 54, 88
4, 271560, Note_on_c, 0, 54, 0
4, 271560, Note_on_c, 0, 52, 88
4, 271680, Note_on_c, 0, 52, 0
4, 271680, Note_on_c, 0, 50, 88
4, 271800, Note_on_c, 0, 50, 0
4, 271800, Note_on_c, 0, 49, 88
4, 271920, Note_on_c, 0, 49, 0
4, 271920, Note_on_c, 0, 47, 88
4, 272040, Note_on_c, 0, 47, 0
4, 272040, Note_on_c, 0, 49, 88
4, 272160, Note_on_c, 0, 49, 0
4, 272160, Note_on_c, 0, 50, 88
4, 272280, Note_on_c, 0, 50, 0
4, 272280, Note_on_c, 0, 49, 88
4, 272400, Note_on_c, 0, 49, 0
4, 272400, Note_on_c, 0, 50, 88
4, 272520, Note_on_c, 0, 50, 0
4, 272520, Note_on_c, 0, 52, 88
4, 272640, Note_on_c, 0, 52, 0
4, 272640, Note_on_c, 0, 54, 88
4, 272760, Note_on_c, 0, 54, 0
4, 272760, Note_on_c, 0, 52, 88
4, 272880, Note_on_c, 0, 52, 0
4, 272880, Note_on_c, 0, 50, 88
4, 273000, Note_on_c, 0, 50, 0
4, 273000, Note_on_c, 0, 52, 88
4, 273120, Note_on_c, 0, 52, 0
4, 273120, Note_on_c, 0, 54, 88
4, 273360, Note_on_c, 0, 54, 0
4, 273600, Note_on_c, 0, 33, 88
4, 273600, Note_on_c, 0, 45, 88
4, 273840, Note_on_c, 0, 45, 0
4, 273840, Note_on_c, 0, 33, 0
4, 273840, Note_on_c, 0, 38, 88
4, 273840, Note_on_c, 0, 50, 88
4, 274080, Note_on_c, 0, 50, 0
4, 274080, Note_on_c, 0, 38, 0
4, 274080, Note_on_c, 0, 33, 88
4, 274080, Note_on_c, 0, 45, 88
4, 274320, Note_on_c, 0, 45, 0
4, 274320, Note_on_c, 0, 33, 0
4, 274560, Note_on_c, 0, 38, 88
4, 274560, Note_on_c, 0, 50, 88
4, 275040, Note_on_c, 0, 50, 0
4, 275040, Note_on_c, 0, 38, 0
4, 275040, Note_on_c, 0, 40, 88
4, 275040, Note_on_c, 0, 52, 88
4, 275520, Note_on_c, 0, 52, 0
4, 275520, Note_on_c, 0, 40, 0
4, 275520, Note_on_c, 0, 41, 88
4, 275520, Note_on_c, 0, 53, 88
4, 276000, Note_on_c, 0, 53, 0
4, 276000, Note_on_c, 0, 41, 0
4, 276000, Note_on_c, 0, 42, 88
4, 276000, Note_on_c, 0, 54, 88
4, 276480, Note_on_c, 0, 54, 0
4, 276480, Note_on_c, 0, 42, 0
4, 276480, Note_on_c, 0, 43, 88
4, 276480, Note_on_c, 0, 55, 88
4, 276960, Note_on_c, 0, 55, 0
4, 276960, Note_on_c, 0, 43, 0
4, 276960, Note_on_c, 0, 44, 88
4, 276960, Note_on_c, 0, 56, 88
4, 277440, Note_on_c, 0, 56, 0
4, 277440, Note_on_c, 0, 44, 0
4, 277440, Note_on_c, 0, 45, 88
4, 277440, Note_on_c, 0, 57, 88
4, 277680, Note_on_c, 0, 57, 0
4, 277680, Note_on_c, 0, 45, 0
4, 277680, Note_on_c, 0, 45, 88
4, 277680, Note_on_c, 0, 57, 88
4, 277920, Note_on_c, 0, 57, 0
4, 277920, Note_on_c, 0, 45, 0
4, 277920, Note_on_c, 0, 38, 88
4, 277920, Note_on_c, 0, 50, 88
4, 278160, Note_on_c, 0, 50, 0
4, 278160, Note_on_c, 0, 38, 0
4, 278400, Note_on_c, 0, 38, 88
4, 278400, Note_on_c, 0, 50, 88
4, 278640, Note_on_c, 0, 50, 0
4, 278640, Note_on_c, 0, 38, 0
4, 278640, Note_on_c, 0, 57, 88
4, 278760, Note_on_c, 0, 57, 0
4, 278760, Note_on_c, 0, 55, 88
4, 278880, Note_on_c, 0, 55, 0
4, 278880, Note_on_c, 0, 54, 88
4, 279000, Note_on_c, 0, 54, 0
4, 279000, Note_on_c, 0, 55, 88
4, 279120, Note_on_c, 0, 55, 0
4, 279120, Note_on_c, 0, 54, 88
4, 279240, Note_on_c, 0, 54, 0
4, 279240, Note_on_c, 0, 52, 88
4, 279360, Note_on_c, 0, 52, 0
4, 279360, Note_on_c, 0, 50, 88
4, 279480, Note_on_c, 0, 50, 0
4, 279480, Note_on_c, 0, 49, 88
4, 279600, Note_on_c, 0, 49, 0
4, 279600, Note_on_c, 0, 47, 88
4, 279720, Note_on_c, 0, 47, 0
4, 279720, Note_on_c, 0, 49, 88
4, 279840, Note_on_c, 0, 49, 0
4, 279840, Note_on_c, 0, 50, 88
4, 279960, Note_on_c, 0, 50, 0
4, 279960, Note_on_c, 0, 49, 88
4, 280080, Note_on_c, 0, 49, 0
4, 280080, Note_on_c, 0, 50, 88
4, 280200, Note_on_c, 0, 50, 0
4, 280200, Note_on_c, 0, 52, 88
4, 280320, Note_on_c, 0, 52, 0
4, 280320, Note_on_c, 0, 54, 88
4, 280440, Note_on_c, 0, 54, 0
4, 280440, Note_on_c, 0, 52, 88
4, 280560, Note_on_c, 0, 52, 0
4, 280560, Note_on_c, 0, 50, 88
4, 280680, Note_on_c, 0, 50, 0
4, 280680, Note_on_c, 0, 52, 88
4, 280800, Note_on_c, 0, 52, 0
4, 280800, Note_on_c, 0, 54, 88
4, 280920, Note_on_c, 0, 54, 0
4, 280920, Note_on_c, 0, 55, 88
4, 281040, Note_on_c, 0, 55, 0
4, 281040, Note_on_c, 0, 57, 88
4, 281160, Note_on_c, 0, 57, 0
4, 281160, Note_on_c, 0, 59, 88
4, 281280, Note_on_c, 0, 59, 0
4, 281280, Note_on_c, 0, 45, 88
4, 281280, Note_on_c, 0, 57, 88
4, 281520, Note_on_c, 0, 57, 0
4, 281520, Note_on_c, 0, 45, 0
4, 281520, Note_on_c, 0, 33, 88
4, 281520, Note_on_c, 0, 45, 88
4, 281760, Note_on_c, 0, 45, 0
4, 281760, Note_on_c, 0, 33, 0
4, 281760, Note_on_c, 0, 38, 88
4, 281760, Note_on_c, 0, 50, 88
4, 282000, Note_on_c, 0, 50, 0
4, 282000, Note_on_c, 0, 38, 0
4, 282000, Note_on_c, 0, 45, 101
4, 282000, Note_on_c, 0, 57, 101
4, 282240, Note_on_c, 0, 57, 0
4, 282240, Note_on_c, 0, 45, 0
4, 282240, Note_on_c, 0, 47, 101
4, 282240, Note_on_c, 0, 59, 101
4, 282720, Note_on_c, 0, 59, 0
4, 282720, Note_on_c, 0, 47, 0
4, 282720, Note_on_c, 0, 47, 101
4, 282720, Note_on_c, 0, 59, 101
4, 283200, Note_on_c, 0, 59, 0
4, 283200, Note_on_c, 0, 47, 0
4, 283200, Note_on_c, 0, 47, 101
4, 283200, Note_on_c, 0, 59, 101
4, 283680, Note_on_c, 0, 59, 0
4, 283680, Note_on_c, 0, 47, 0
4, 283680, Note_on_c, 0, 47, 101
4, 283680, Note_on_c, 0, 59, 101
4, 283920, Note_on_c, 0, 59, 0
4, 283920, Note_on_c, 0, 47, 0
4, 283920, Note_on_c, 0, 49, 101
4, 283920, Note_on_c, 0, 61, 101
4, 284160, Note_on_c, 0, 61, 0
4, 284160, Note_on_c, 0, 49, 0
4, 284160, Note_on_c, 0, 45, 101
4, 284160, Note_on_c, 0, 57, 101
4, 284280, Note_on_c, 0, 57, 0
4, 284280, Note_on_c, 0, 45, 0
4, 284280, Note_on_c, 0, 59, 88
4, 284400, Note_on_c, 0, 59, 0
4, 284400, Note_on_c, 0, 57, 88
4, 284520, Note_on_c, 0, 57, 0
4, 284520, Note_on_c, 0, 59, 88
4, 284640, Note_on_c, 0, 59, 0
4, 284640, Note_on_c, 0, 61, 88
4, 284760, Note_on_c, 0, 61, 0
4, 284760, Note_on_c, 0, 59, 88
4, 284880, Note_on_c, 0, 59, 0
4, 284880, Note_on_c, 0, 61, 88
4, 285000, Note_on_c, 0, 61, 0
4, 285000, Note_on_c, 0, 64, 88
4, 285120, Note_on_c, 0, 64, 0
4, 285120, Note_on_c, 0, 69, 88
4, 285240, Note_on_c, 0, 69, 0
4, 285240, Note_on_c, 0, 68, 88
4, 285360, Note_on_c, 0, 68, 0
4, 285360, Note_on_c, 0, 69, 88
4, 285480, Note_on_c, 0, 69, 0
4, 285480, Note_on_c, 0, 71, 88
4, 285600, Note_on_c, 0, 71, 0
4, 285600, Note_on_c, 0, 73, 88
4, 285840, Note_on_c, 0, 73, 0
4, 285840, Note_on_c, 0, 45, 101
4, 285840, Note_on_c, 0, 57, 101
4, 286080, Note_on_c, 0, 57, 0
4, 286080, Note_on_c, 0, 45, 0
4, 286080, Note_on_c, 0, 47, 101
4, 286080, Note_on_c, 0, 59, 101
4, 286560, Note_on_c, 0, 59, 0
4, 286560, Note_on_c, 0, 47, 0
4, 286560, Note_on_c, 0, 47, 101
4, 286560, Note_on_c, 0, 59, 101
4, 287040, Note_on_c, 0, 59, 0
4, 287040, Note_on_c, 0, 47, 0
4, 287040, Note_on_c, 0, 47, 101
4, 287040, Note_on_c, 0, 59, 101
4, 287520, Note_on_c, 0, 59, 0
4, 287520, Note_on_c, 0, 47, 0
4, 287520, Note_on_c, 0, 47, 101
4, 287520, Note_on_c, 0, 59, 101
4, 287760, Note_on_c, 0, 59, 0
4, 287760, Note_on_c, 0, 47, 0
4, 287760, Note_on_c, 0, 49, 101
4, 287760, Note_on_c, 0, 61, 101
4, 288000, Note_on_c, 0, 61, 0
4, 288000, Note_on_c, 0, 49, 0
4, 288000, Note_on_c, 0, 45, 101
4, 288000, Note_on_c, 0, 57, 101
4, 288120, Note_on_c, 0, 57, 0
4, 288120, Note_on_c, 0, 45, 0
4, 288120, Note_on_c, 0, 59, 88
4, 288240, Note_on_c, 0, 59, 0
4, 288240, Note_on_c, 0, 57, 88
4, 288360, Note_on_c, 0, 57, 0
4, 288360, Note_on_c, 0, 59, 88
4, 288480, Note_on_c, 0, 59, 0
4, 288480, Note_on_c, 0, 61, 88
4, 288600, Note_on_c, 0, 61, 0
4, 288600, Note_on_c, 0, 59, 88
4, 288720, Note_on_c, 0, 59, 0
4, 288720, Note_on_c, 0, 61, 88
4, 288840, Note_on_c, 0, 61, 0
4, 288840, Note_on_c, 0, 64, 88
4, 288960, Note_on_c, 0, 64, 0
4, 288960, Note_on_c, 0, 69, 88
4, 289080, Note_on_c, 0, 69, 0
4, 289080, Note_on_c, 0, 68, 88
4, 289200, Note_on_c, 0, 68, 0
4, 289200, Note_on_c, 0, 69, 88
4, 289320, Note_on_c, 0, 69, 0
4, 289320, Note_on_c, 0, 71, 88
4, 289440, Note_on_c, 0, 71, 0
4, 289440, Note_on_c, 0, 73, 88
4, 289680, Note_on_c, 0, 73, 0
4, 289920, Note_on_c, 0, 42, 101
4, 289920, Note_on_c, 0, 54, 101
4, 290400, Note_on_c, 0, 54, 0
4, 290400, Note_on_c, 0, 42, 0
4, 290400, Note_on_c, 0, 44, 101
4, 290400, Note_on_c, 0, 56, 101
4, 290640, Note_on_c, 0, 56, 0
4, 290640, Note_on_c, 0, 44, 0
4, 290640, Note_on_c, 0, 46, 101
4, 290640, Note_on_c, 0, 58, 101
4, 290880, Note_on_c, 0, 58, 0
4, 290880, Note_on_c, 0, 46, 0
4, 290880, Note_on_c, 0, 47, 101
4, 290880, Note_on_c, 0, 59, 101
4, 291120, Note_on_c, 0, 59, 0
4, 291120, Note_on_c, 0, 47, 0
4, 291120, Note_on_c, 0, 54, 101
4, 291360, Note_on_c, 0, 54, 0
4, 291360, Note_on_c, 0, 59, 101
4, 291360, Note_on_c, 0, 62, 101
4, 291600, Note_on_c, 0, 62, 0
4, 291600, Note_on_c, 0, 59, 0
4, 291840, Note_on_c, 0, 40, 101
4, 291840, Note_on_c, 0, 52, 101
4, 292320, Note_on_c, 0, 52, 0
4, 292320, Note_on_c, 0, 40, 0
4, 292320, Note_on_c, 0, 42, 101
4, 292320, Note_on_c, 0, 54, 101
4, 292560, Note_on_c, 0, 54, 0
4, 292560, Note_on_c, 0, 42, 0
4, 292560, Note_on_c, 0, 44, 101
4, 292560, Note_on_c, 0, 56, 101
4, 292800, Note_on_c, 0, 56, 0
4, 292800, Note_on_c, 0, 44, 0
4, 292800, Note_on_c, 0, 45, 101
4, 292800, Note_on_c, 0, 57, 101
4, 293040, Note_on_c, 0, 57, 0
4, 293040, Note_on_c, 0, 45, 0
4, 293040, Note_on_c, 0, 52, 101
4, 293280, Note_on_c, 0, 52, 0
4, 293280, Note_on_c, 0, 57, 101
4, 293280, Note_on_c, 0, 61, 101
4, 293520, Note_on_c, 0, 61, 0
4, 293520, Note_on_c, 0, 57, 0
4, 293760, Note_on_c, 0, 42, 101
4, 293760, Note_on_c, 0, 54, 101
4, 294000, Note_on_c, 0, 54, 0
4, 294000, Note_on_c, 0, 42, 0
4, 294480, Note_on_c, 0, 42, 101
4, 294480, Note_on_c, 0, 54, 101
4, 294720, Note_on_c, 0, 54, 0
4, 294720, Note_on_c, 0, 42, 0
4, 294720, Note_on_c, 0, 47, 101
4, 294720, Note_on_c, 0, 59, 101
4, 294960, Note_on_c, 0, 59, 0
4, 294960, Note_on_c, 0, 47, 0
4, 294960, Note_on_c, 0, 45, 101
4, 294960, Note_on_c, 0, 57, 101
4, 295200, Note_on_c, 0, 57, 0
4, 295200, Note_on_c, 0, 45, 0
4, 295200, Note_on_c, 0, 44, 101
4, 295200, Note_on_c, 0, 56, 101
4, 295440, Note_on_c, 0, 56, 0
4, 295440, Note_on_c, 0, 44, 0
4, 295440, Note_on_c, 0, 43, 101
4, 295440, Note_on_c, 0, 55, 101
4, 295680, Note_on_c, 0, 55, 0
4, 295680, Note_on_c, 0, 43, 0
4, 295680, Note_on_c, 0, 42, 101
4, 295680, Note_on_c, 0, 54, 101
4, 295920, Note_on_c, 0, 54, 0
4, 295920, Note_on_c, 0, 42, 0
4, 296400, Note_on_c, 0, 42, 101
4, 296400, Note_on_c, 0, 54, 101
4, 296640, Note_on_c, 0, 54, 0
4, 296640, Note_on_c, 0, 42, 0
4, 296640, Note_on_c, 0, 47, 101
4, 296640, Note_on_c, 0, 59, 101
4, 296880, Note_on_c, 0, 59, 0
4, 296880, Note_on_c, 0, 47, 0
4, 296880, Note_on_c, 0, 45, 101
4, 296880, Note_on_c, 0, 57, 101
4, 297120, Note_on_c, 0, 57, 0
4, 297120, Note_on_c, 0, 45, 0
4, 297120, Note_on_c, 0, 44, 101
4, 297120, Note_on_c, 0, 56, 101
4, 297360, Note_on_c, 0, 56, 0
4, 297360, Note_on_c, 0, 44, 0
4, 297360, Note_on_c, 0, 43, 101
4, 297360, Note_on_c, 0, 55, 101
4, 297600, Note_on_c, 0, 55, 0
4, 297600, Note_on_c, 0, 43, 0
4, 297600, Note_on_c, 0, 42, 101
4, 297600, Note_on_c, 0, 54, 101
4, 298320, Note_on_c, 0, 54, 0
4, 298320, Note_on_c, 0, 42, 0
4, 298320, Note_on_c, 0, 41, 101
4, 298320, Note_on_c, 0, 53, 101
4, 298560, Note_on_c, 0, 53, 0
4, 298560, Note_on_c, 0, 41, 0
4, 298560, Note_on_c, 0, 40, 101
4, 298560, Note_on_c, 0, 52, 101
4, 298800, Note_on_c, 0, 52, 0
4, 298800, Note_on_c, 0, 40, 0
4, 300000, Note_on_c, 0, 52, 88
4, 300000, Note_on_c, 0, 59, 88
4, 300000, Note_on_c, 0, 62, 88
4, 300720, Note_on_c, 0, 62, 0
4, 300720, Note_on_c, 0, 59, 0
4, 300720, Note_on_c, 0, 52, 0
4, 300720, Note_on_c, 0, 40, 88
4, 300720, Note_on_c, 0, 52, 88
4, 300960, Note_on_c, 0, 52, 0
4, 300960, Note_on_c, 0, 40, 0
4, 300960, Note_on_c, 0, 45, 88
4, 300960, Note_on_c, 0, 57, 88
4, 301200, Note_on_c, 0, 57, 0
4, 301200, Note_on_c, 0, 45, 0
4, 301200, Note_on_c, 0, 69, 101
4, 301440, Note_on_c, 0, 69, 0
4, 301440, Note_on_c, 0, 76, 101
4, 301440, Note_on_c, 0, 79, 101
4, 301680, Note_on_c, 0, 79, 0
4, 301680, Note_on_c, 0, 76, 0
4, 301680, Note_on_c, 0, 74, 101
4, 301680, Note_on_c, 0, 78, 101
4, 301920, Note_on_c, 0, 78, 0
4, 301920, Note_on_c, 0, 74, 0
4, 301920, Note_on_c, 0, 73, 101
4, 301920, Note_on_c, 0, 76, 101
4, 302160, Note_on_c, 0, 76, 0
4, 302160, Note_on_c, 0, 73, 0
4, 302160, Note_on_c, 0, 71, 101
4, 302160, Note_on_c, 0, 74, 101
4, 302400, Note_on_c, 0, 74, 0
4, 302400, Note_on_c, 0, 71, 0
4, 302400, Note_on_c, 0, 69, 101
4, 302400, Note_on_c, 0, 73, 101
4, 302640, Note_on_c, 0, 73, 0
4, 302640, Note_on_c, 0, 69, 0
4, 302640, Note_on_c, 0, 71, 101
4, 302640, Note_on_c, 0, 74, 101
4, 302880, Note_on_c, 0, 74, 0
4, 302880, Note_on_c, 0, 71, 0
4, 302880, Note_on_c, 0, 73, 101
4, 302880, Note_on_c, 0, 76, 101
4, 303120, Note_on_c, 0, 76, 0
4, 303120, Note_on_c, 0, 73, 0
4, 303120, Note_on_c, 0, 52, 101
4, 303360, Note_on_c, 0, 52, 0
4, 303360, Note_on_c, 0, 59, 101
4, 303360, Note_on_c, 0, 62, 101
4, 303600, Note_on_c, 0, 62, 0
4, 303600, Note_on_c, 0, 59, 0
4, 303600, Note_on_c, 0, 57, 101
4, 303600, Note_on_c, 0, 61, 101
4, 303840, Note_on_c, 0, 61, 0
4, 303840, Note_on_c, 0, 57, 0
4, 303840, Note_on_c, 0, 56, 101
4, 303840, Note_on_c, 0, 59, 101
4, 304080, Note_on_c, 0, 59, 0
4, 304080, Note_on_c, 0, 56, 0
4, 304080, Note_on_c, 0, 59, 101
4, 304080, Note_on_c, 0, 62, 101
4, 304320, Note_on_c, 0, 62, 0
4, 304320, Note_on_c, 0, 59, 0
4, 304320, Note_on_c, 0, 57, 101
4, 304320, Note_on_c, 0, 61, 101
4, 304560, Note_on_c, 0, 61, 0
4, 304560, Note_on_c, 0, 57, 0
4, 304560, Note_on_c, 0, 52, 101
4, 304560, Note_on_c, 0, 59, 101
4, 304800, Note_on_c, 0, 59, 0
4, 304800, Note_on_c, 0, 52, 0
4, 304800, Note_on_c, 0, 49, 101
4, 304800, Note_on_c, 0, 57, 101
4, 305040, Note_on_c, 0, 57, 0
4, 305040, Note_on_c, 0, 49, 0
4, 305040, Note_on_c, 0, 69, 101
4, 305280, Note_on_c, 0, 69, 0
4, 305280, Note_on_c, 0, 76, 101
4, 305280, Note_on_c, 0, 79, 101
4, 305520, Note_on_c, 0, 79, 0
4, 305520, Note_on_c, 0, 76, 0
4, 305520, Note_on_c, 0, 74, 101
4, 305520, Note_on_c, 0, 78, 101
4, 305760, Note_on_c, 0, 78, 0
4, 305760, Note_on_c, 0, 74, 0
4, 305760, Note_on_c, 0, 73, 101
4, 305760, Note_on_c, 0, 76, 101
4, 306000, Note_on_c, 0, 76, 0
4, 306000, Note_on_c, 0, 73, 0
4, 306000, Note_on_c, 0, 71, 101
4, 306000, Note_on_c, 0, 74, 101
4, 306240, Note_on_c, 0, 74, 0
4, 306240, Note_on_c, 0, 71, 0
4, 306240, Note_on_c, 0, 69, 101
4, 306240, Note_on_c, 0, 73, 101
4, 306480, Note_on_c, 0, 73, 0
4, 306480, Note_on_c, 0, 69, 0
4, 306480, Note_on_c, 0, 71, 101
4, 306480, Note_on_c, 0, 74, 101
4, 306720, Note_on_c, 0, 74, 0
4, 306720, Note_on_c, 0, 71, 0
4, 306720, Note_on_c, 0, 73, 101
4, 306720, Note_on_c, 0, 76, 101
4, 306960, Note_on_c, 0, 76, 0
4, 306960, Note_on_c, 0, 73, 0
4, 306960, Note_on_c, 0, 52, 101
4, 307200, Note_on_c, 0, 52, 0
4, 307200, Note_on_c, 0, 59, 101
4, 307200, Note_on_c, 0, 62, 101
4, 307440, Note_on_c, 0, 62, 0
4, 307440, Note_on_c, 0, 59, 0
4, 307440, Note_on_c, 0, 57, 101
4, 307440, Note_on_c, 0, 61, 101
4, 307680, Note_on_c, 0, 61, 0
4, 307680, Note_on_c, 0, 57, 0
4, 307680, Note_on_c, 0, 56, 101
4, 307680, Note_on_c, 0, 59, 101
4, 307920, Note_on_c, 0, 59, 0
4, 307920, Note_on_c, 0, 56, 0
4, 307920, Note_on_c, 0, 59, 101
4, 307920, Note_on_c, 0, 62, 101
4, 308160, Note_on_c, 0, 62, 0
4, 308160, Note_on_c, 0, 59, 0
4, 308160, Note_on_c, 0, 57, 101
4, 308160, Note_on_c, 0, 61, 101
4, 308400, Note_on_c, 0, 61, 0
4, 308400, Note_on_c, 0, 57, 0
4, 308400, Note_on_c, 0, 52, 101
4, 308400, Note_on_c, 0, 59, 101
4, 308640, Note_on_c, 0, 59, 0
4, 308640, Note_on_c, 0, 52, 0
4, 308640, Note_on_c, 0, 49, 101
4, 308640, Note_on_c, 0, 57, 101
4, 308880, Note_on_c, 0, 57, 0
4, 308880, Note_on_c, 0, 49, 0
4, 308880, Note_on_c, 0, 52, 101
4, 308880, Note_on_c, 0, 59, 101
4, 309120, Note_on_c, 0, 59, 0
4, 309120, Note_on_c, 0, 52, 0
4, 309120, Note_on_c, 0, 57, 101
4, 309120, Note_on_c, 0, 61, 101
4, 309360, Note_on_c, 0, 61, 0
4, 309360, Note_on_c, 0, 57, 0
4, 309360, Note_on_c, 0, 52, 101
4, 309360, Note_on_c, 0, 59, 101
4, 309600, Note_on_c, 0, 59, 0
4, 309600, Note_on_c, 0, 52, 0
4, 309600, Note_on_c, 0, 49, 101
4, 309600, Note_on_c, 0, 57, 101
4, 309840, Note_on_c, 0, 57, 0
4, 309840, Note_on_c, 0, 49, 0
4, 309840, Note_on_c, 0, 52, 101
4, 309840, Note_on_c, 0, 59, 101
4, 310080, Note_on_c, 0, 59, 0
4, 310080, Note_on_c, 0, 52, 0
4, 310080, Note_on_c, 0, 57, 101
4, 310080, Note_on_c, 0, 61, 101
4, 310320, Note_on_c, 0, 61, 0
4, 310320, Note_on_c, 0, 57, 0
4, 310320, Note_on_c, 0, 52, 101
4, 310320, Note_on_c, 0, 59, 101
4, 310560, Note_on_c, 0, 59, 0
4, 310560, Note_on_c, 0, 52, 0
4, 310560, Note_on_c, 0, 49, 101
4, 310560, Note_on_c, 0, 57, 101
4, 310800, Note_on_c, 0, 57, 0
4, 310800, Note_on_c, 0, 49, 0
4, 310800, Note_on_c, 0, 52, 101
4, 310800, Note_on_c, 0, 59, 101
4, 311040, Note_on_c, 0, 59, 0
4, 311040, Note_on_c, 0, 52, 0
4, 311040, Note_on_c, 0, 57, 101
4, 311040, Note_on_c, 0, 61, 101
4, 311280, Note_on_c, 0, 61, 0
4, 311280, Note_on_c, 0, 57, 0
4, 311280, Note_on_c, 0, 56, 101
4, 311280, Note_on_c, 0, 59, 101
4, 311520, Note_on_c, 0, 59, 0
4, 311520, Note_on_c, 0, 56, 0
4, 311520, Note_on_c, 0, 57, 101
4, 311520, Note_on_c, 0, 61, 101
4, 311760, Note_on_c, 0, 61, 0
4, 311760, Note_on_c, 0, 57, 0
4, 311760, Note_on_c, 0, 59, 101
4, 311760, Note_on_c, 0, 62, 101
4, 312000, Note_on_c, 0, 62, 0
4, 312000, Note_on_c, 0, 59, 0
4, 312000, Note_on_c, 0, 61, 101
4, 312000, Note_on_c, 0, 64, 101
4, 312240, Note_on_c, 0, 64, 0
4, 312240, Note_on_c, 0, 61, 0
4, 312960, Note_on_c, 0, 38, 88
4, 312960, Note_on_c, 0, 50, 88
4, 313440, Note_on_c, 0, 50, 0
4, 313440, Note_on_c, 0, 38, 0
4, 313440, Note_on_c, 0, 40, 88
4, 313440, Note_on_c, 0, 52, 88
4, 313920, Note_on_c, 0, 52, 0
4, 313920, Note_on_c, 0, 40, 0
4, 313920, Note_on_c, 0, 41, 88
4, 313920, Note_on_c, 0, 53, 88
4, 314400, Note_on_c, 0, 53, 0
4, 314400, Note_on_c, 0, 41, 0
4, 314400, Note_on_c, 0, 42, 88
4, 314400, Note_on_c, 0, 54, 88
4, 314880, Note_on_c, 0, 54, 0
4, 314880, Note_on_c, 0, 42, 0
4, 314880, Note_on_c, 0, 43, 88
4, 314880, Note_on_c, 0, 55, 88
4, 315360, Note_on_c, 0, 55, 0
4, 315360, Note_on_c, 0, 43, 0
4, 315360, Note_on_c, 0, 44, 88
4, 315360, Note_on_c, 0, 56, 88
4, 315840, Note_on_c, 0, 56, 0
4, 315840, Note_on_c, 0, 44, 0
4, 315840, Note_on_c, 0, 45, 88
4, 315840, Note_on_c, 0, 57, 88
4, 316080, Note_on_c, 0, 57, 0
4, 316080, Note_on_c, 0, 45, 0
4, 316080, Note_on_c, 0, 45, 88
4, 316080, Note_on_c, 0, 57, 88
4, 316320, Note_on_c, 0, 57, 0
4, 316320, Note_on_c, 0, 45, 0
4, 316320, Note_on_c, 0, 38, 88
4, 316320, Note_on_c, 0, 50, 88
4, 316560, Note_on_c, 0, 50, 0
4, 316560, Note_on_c, 0, 38, 0
4, 316800, Note_on_c, 0, 38, 88
4, 316800, Note_on_c, 0, 50, 88
4, 317040, Note_on_c, 0, 50, 0
4, 317040, Note_on_c, 0, 38, 0
4, 317040, Note_on_c, 0, 57, 88
4, 317160, Note_on_c, 0, 57, 0
4, 317160, Note_on_c, 0, 55, 88
4, 317280, Note_on_c, 0, 55, 0
4, 317280, Note_on_c, 0, 54, 88
4, 317400, Note_on_c, 0, 54, 0
4, 317400, Note_on_c, 0, 55, 88
4, 317520, Note_on_c, 0, 55, 0
4, 317520, Note_on_c, 0, 54, 88
4, 317640, Note_on_c, 0, 54, 0
4, 317640, Note_on_c, 0, 52, 88
4, 317760, Note_on_c, 0, 52, 0
4, 317760, Note_on_c, 0, 50, 88
4, 317880, Note_on_c, 0, 50, 0
4, 317880, Note_on_c, 0, 49, 88
4, 318000, Note_on_c, 0, 49, 0
4, 318000, Note_on_c, 0, 47, 88
4, 318120, Note_on_c, 0, 47, 0
4, 318120, Note_on_c, 0, 49, 88
4, 318240, Note_on_c, 0, 49, 0
4, 318240, Note_on_c, 0, 50, 88
4, 318360, Note_on_c, 0, 50, 0
4, 318360, Note_on_c, 0, 49, 88
4, 318480, Note_on_c, 0, 49, 0
4, 318480, Note_on_c, 0, 50, 88
4, 318600, Note_on_c, 0, 50, 0
4, 318600, Note_on_c, 0, 52, 88
4, 318720, Note_on_c, 0, 52, 0
4, 318720, Note_on_c, 0, 54, 88
4, 318840, Note_on_c, 0, 54, 0
4, 318840, Note_on_c, 0, 52, 88
4, 318960, Note_on_c, 0, 52, 0
4, 318960, Note_on_c, 0, 50, 88
4, 319080, Note_on_c, 0, 50, 0
4, 319080, Note_on_c, 0, 52, 88
4, 319200, Note_on_c, 0, 52, 0
4, 319200, Note_on_c, 0, 54, 88
4, 319440, Note_on_c, 0, 54, 0
4, 319680, Note_on_c, 0, 33, 88
4, 319680, Note_on_c, 0, 45, 88
4, 319920, Note_on_c, 0, 45, 0
4, 319920, Note_on_c, 0, 33, 0
4, 319920, Note_on_c, 0, 38, 88
4, 319920, Note_on_c, 0, 50, 88
4, 320160, Note_on_c, 0, 50, 0
4, 320160, Note_on_c, 0, 38, 0
4, 320160, Note_on_c, 0, 33, 88
4, 320160, Note_on_c, 0, 45, 88
4, 320400, Note_on_c, 0, 45, 0
4, 320400, Note_on_c, 0, 33, 0
4, 320640, Note_on_c, 0, 38, 88
4, 320640, Note_on_c, 0, 50, 88
4, 321120, Note_on_c, 0, 50, 0
4, 321120, Note_on_c, 0, 38, 0
4, 321120, Note_on_c, 0, 40, 88
4, 321120, Note_on_c, 0, 52, 88
4, 321600, Note_on_c, 0, 52, 0
4, 321600, Note_on_c, 0, 40, 0
4, 321600, Note_on_c, 0, 41, 88
4, 321600, Note_on_c, 0, 53, 88
4, 322080, Note_on_c, 0, 53, 0
4, 322080, Note_on_c, 0, 41, 0
4, 322080, Note_on_c, 0, 42, 88
4, 322080, Note_on_c, 0, 54, 88
4, 322560, Note_on_c, 0, 54, 0
4, 322560, Note_on_c, 0, 42, 0
4, 322560, Note_on_c, 0, 43, 88
4, 322560, Note_on_c, 0, 55, 88
4, 323040, Note_on_c, 0, 55, 0
4, 323040, Note_on_c, 0, 43, 0
4, 323040, Note_on_c, 0, 44, 88
4, 323040, Note_on_c, 0, 56, 88
4, 323520, Note_on_c, 0, 56, 0
4, 323520, Note_on_c, 0, 44, 0
4, 323520, Note_on_c, 0, 45, 88
4, 323520, Note_on_c, 0, 57, 88
4, 323760, Note_on_c, 0, 57, 0
4, 323760, Note_on_c, 0, 45, 0
4, 323760, Note_on_c, 0, 45, 88
4, 323760, Note_on_c, 0, 57, 88
4, 324000, Note_on_c, 0, 57, 0
4, 324000, Note_on_c, 0, 45, 0
4, 324000, Note_on_c, 0, 38, 88
4, 324000, Note_on_c, 0, 50, 88
4, 324240, Note_on_c, 0, 50, 0
4, 324240, Note_on_c, 0, 38, 0
4, 324480, Note_on_c, 0, 38, 88
4, 324480, Note_on_c, 0, 50, 88
4, 324720, Note_on_c, 0, 50, 0
4, 324720, Note_on_c, 0, 38, 0
4, 324720, Note_on_c, 0, 57, 88
4, 324840, Note_on_c, 0, 57, 0
4, 324840, Note_on_c, 0, 55, 88
4, 324960, Note_on_c, 0, 55, 0
4, 324960, Note_on_c, 0, 54, 88
4, 325080, Note_on_c, 0, 54, 0
4, 325080, Note_on_c, 0, 55, 88
4, 325200, Note_on_c, 0, 55, 0
4, 325200, Note_on_c, 0, 54, 88
4, 325320, Note_on_c, 0, 54, 0
4, 325320, Note_on_c, 0, 52, 88
4, 325440, Note_on_c, 0, 52, 0
4, 325440, Note_on_c, 0, 50, 88
4, 325560, Note_on_c, 0, 50, 0
4, 325560, Note_on_c, 0, 49, 88
4, 325680, Note_on_c, 0, 49, 0
4, 325680, Note_on_c, 0, 47, 88
4, 325800, Note_on_c, 0, 47, 0
4, 325800, Note_on_c, 0, 49, 88
4, 325920, Note_on_c, 0, 49, 0
4, 325920, Note_on_c, 0, 50, 88
4, 326040, Note_on_c, 0, 50, 0
4, 326040, Note_on_c, 0, 49, 88
4, 326160, Note_on_c, 0, 49, 0
4, 326160, Note_on_c, 0, 50, 88
4, 326280, Note_on_c, 0, 50, 0
4, 326280, Note_on_c, 0, 52, 88
4, 326400, Note_on_c, 0, 52, 0
4, 326400, Note_on_c, 0, 54, 88
4, 326520, Note_on_c, 0, 54, 0
4, 326520, Note_on_c, 0, 52, 88
4, 326640, Note_on_c, 0, 52, 0
4, 326640, Note_on_c, 0, 50, 88
4, 326760, Note_on_c, 0, 50, 0
4, 326760, Note_on_c, 0, 52, 88
4, 326880, Note_on_c, 0, 52, 0
4, 326880, Note_on_c, 0, 54, 88
4, 327000, Note_on_c, 0, 54, 0
4, 327000, Note_on_c, 0, 55, 88
4, 327120, Note_on_c, 0, 55, 0
4, 327120, Note_on_c, 0, 57, 88
4, 327240, Note_on_c, 0, 57, 0
4, 327240, Note_on_c, 0, 59, 88
4, 327360, Note_on_c, 0, 59, 0
4, 327360, Note_on_c, 0, 45, 88
4, 327360, Note_on_c, 0, 57, 88
4, 327600, Note_on_c, 0, 57, 0
4, 327600, Note_on_c, 0, 45, 0
4, 327600, Note_on_c, 0, 33, 88
4, 327600, Note_on_c, 0, 45, 88
4, 327840, Note_on_c, 0, 45, 0
4, 327840, Note_on_c, 0, 33, 0
4, 327840, Note_on_c, 0, 38, 114
4, 327840, Note_on_c, 0, 50, 114
4, 328080, Note_on_c, 0, 50, 0
4, 328080, Note_on_c, 0, 38, 0
4, 328080, End_track
5, 0, Start_track
5, 0, Title_t, "Grand Piano"
5, 0, Program_c, 0, 0
5, 0, Control_c, 0, 7, 115
5, 0, Control_c, 0, 10, 48
5, 8160, Note_on_c, 0, 52, 49
5, 8640, Note_on_c, 0, 52, 0
5, 10080, Note_on_c, 0, 50, 49
5, 10560, Note_on_c, 0, 50, 0
5, 11040, Note_on_c, 0, 49, 49
5, 11520, Note_on_c, 0, 49, 0
5, 12000, Note_on_c, 0, 49, 49
5, 12480, Note_on_c, 0, 49, 0
5, 13920, Note_on_c, 0, 49, 49
5, 14400, Note_on_c, 0, 49, 0
5, 14880, Note_on_c, 0, 49, 49
5, 15360, Note_on_c, 0, 49, 0
5, 15519, Note_on_c, 0, 47, 62
5, 15519, Note_on_c, 0, 50, 62
5, 15519, Note_on_c, 0, 54, 62
5, 15519, Note_on_c, 0, 59, 62
5, 15680, Note_on_c, 0, 59, 0
5, 15680, Note_on_c, 0, 47, 0
5, 15680, Note_on_c, 0, 50, 0
5, 15680, Note_on_c, 0, 54, 0
5, 15680, Note_on_c, 0, 54, 62
5, 15680, Note_on_c, 0, 59, 62
5, 15680, Note_on_c, 0, 62, 62
5, 15840, Note_on_c, 0, 62, 0
5, 15840, Note_on_c, 0, 59, 0
5, 15840, Note_on_c, 0, 54, 0
5, 23040, Note_on_c, 0, 52, 49
5, 23040, Note_on_c, 0, 55, 49
5, 23040, Note_on_c, 0, 59, 49
5, 24000, Note_on_c, 0, 59, 0
5, 24000, Note_on_c, 0, 55, 0
5, 24000, Note_on_c, 0, 52, 0
5, 24960, Note_on_c, 0, 50, 49
5, 26400, Note_on_c, 0, 50, 0
5, 225840, Control_c, 0, 64, 127
5, 225840, Note_on_c, 0, 54, 62
5, 226080, Note_on_c, 0, 54, 0
5, 226080, Note_on_c, 0, 56, 62
5, 226320, Note_on_c, 0, 56, 0
5, 226320, Note_on_c, 0, 58, 62
5, 226560, Note_on_c, 0, 58, 0
5, 226560, Control_c, 0, 64, 0
5, 226560, Note_on_c, 0, 59, 62
5, 226800, Note_on_c, 0, 59, 0
5, 233280, Control_c, 0, 64, 127
5, 233280, Note_on_c, 0, 62, 62
5, 233520, Note_on_c, 0, 62, 0
5, 233520, Note_on_c, 0, 54, 62
5, 233760, Note_on_c, 0, 54, 0
5, 233760, Note_on_c, 0, 56, 62
5, 234000, Note_on_c, 0, 56, 0
5, 234000, Note_on_c, 0, 58, 62
5, 234240, Note_on_c, 0, 58, 0
5, 234240, Control_c, 0, 64, 0
5, 234240, Note_on_c, 0, 54, 75
5, 234240, Note_on_c, 0, 59, 75
5, 234480, Note_on_c, 0, 59, 0
5, 234480, Note_on_c, 0, 54, 0
5, 234720, Note_on_c, 0, 55, 75
5, 234816, Note_on_c, 0, 55, 0
5, 235200, Note_on_c, 0, 56, 75
5, 235296, Note_on_c, 0, 56, 0
5, 235680, Note_on_c, 0, 58, 75
5, 235776, Note_on_c, 0, 58, 0
5, 236160, Note_on_c, 0, 47, 75
5, 236160, Note_on_c, 0, 54, 75
5, 238080, Note_on_c, 0, 54, 0
5, 238080, Note_on_c, 0, 47, 0
5, 238080, Note_on_c, 0, 47, 75
5, 238080, Note_on_c, 0, 54, 75
5, 240000, Note_on_c, 0, 54, 0
5, 240000, Note_on_c, 0, 47, 0
5, 240000, Note_on_c, 0, 47, 75
5, 240000, Note_on_c, 0, 54, 75
5, 241920, Note_on_c, 0, 54, 0
5, 241920, Note_on_c, 0, 47, 0
5, 241920, Control_c, 0, 64, 0
5, 241920, Note_on_c, 0, 54, 75
5, 242016, Note_on_c, 0, 54, 0
5, 242400, Note_on_c, 0, 55, 75
5, 242496, Note_on_c, 0, 55, 0
5, 242880, Note_on_c, 0, 56, 75
5, 242976, Note_on_c, 0, 56, 0
5, 243360, Note_on_c, 0, 58, 75
5, 243456, Note_on_c, 0, 58, 0
5, 243840, Note_on_c, 0, 47, 75
5, 243840, Note_on_c, 0, 54, 75
5, 245760, Note_on_c, 0, 54, 0
5, 245760, Note_on_c, 0, 47, 0
5, 245760, Note_on_c, 0, 47, 75
5, 245760, Note_on_c, 0, 54, 75
5, 247680, Note_on_c, 0, 54, 0
5, 247680, Note_on_c, 0, 47, 0
5, 247680, Note_on_c, 0, 47, 75
5, 247680, Note_on_c, 0, 54, 75
5, 249120, Note_on_c, 0, 54, 0
5, 249120, Note_on_c, 0, 47, 0
5, 249120, End_track
0, 0, End_of_file
