0, 0, Header, 1, 5, 480
1, 0, Start_track
1, 0, Title_t, "tchaikovsky swan lake act1 4b andante"
1, 0, Copyright_t, "Adaptation for Disklavier pianos, by: Robert C. Kuhmann (c) 2012."
1, 0, Text_t, "Seq. (c) by: Segundo G. Yogore,  2007\012"
1, 0, Time_signature, 3, 2, 24, 8
1, 0, Key_signature, -2, "major"
1, 0, Tempo, 800000
1, 5760, Tempo, 800000
1, 11520, Tempo, 800000
1, 17280, Tempo, 800000
1, 69120, Tempo, 800000
1, 74880, Tempo, 800000
1, 105120, Time_signature, 8, 2, 24, 8
1, 105120, End_track
2, 0, Start_track
2, 0, Title_t, "Grand Piano"
2, 0, Program_c, 0, 0
2, 0, Control_c, 0, 7, 115
2, 0, Control_c, 0, 10, 86
2, 0, Note_on_c, 0, 67, 88
2, 480, Note_on_c, 0, 67, 0
2, 480, Note_on_c, 0, 69, 88
2, 1440, Note_on_c, 0, 69, 0
2, 1440, Note_on_c, 0, 70, 88
2, 1800, Note_on_c, 0, 70, 0
2, 1800, Note_on_c, 0, 69, 62
2, 1860, Note_on_c, 0, 69, 0
2, 1860, Note_on_c, 0, 67, 62
2, 1920, Note_on_c, 0, 67, 0
2, 1920, Note_on_c, 0, 66, 62
2, 2880, Note_on_c, 0, 66, 0
2, 2880, Note_on_c, 0, 67, 62
2, 3120, Note_on_c, 0, 67, 0
2, 3120, Note_on_c, 0, 74, 62
2, 3360, Note_on_c, 0, 74, 0
2, 3360, Note_on_c, 0, 70, 62
2, 4080, Note_on_c, 0, 70, 0
2, 4080, Note_on_c, 0, 69, 62
2, 4320, Note_on_c, 0, 69, 0
2, 4320, Note_on_c, 0, 67, 62
2, 5040, Note_on_c, 0, 67, 0
2, 5040, Note_on_c, 0, 62, 62
2, 5280, Note_on_c, 0, 62, 0
2, 5280, Note_on_c, 0, 64, 62
2, 5520, Note_on_c, 0, 64, 0
2, 5520, Note_on_c, 0, 66, 62
2, 5760, Note_on_c, 0, 66, 0
2, 5760, Note_on_c, 0, 67, 88
2, 6240, Note_on_c, 0, 67, 0
2, 6240, Note_on_c, 0, 69, 88
2, 7200, Note_on_c, 0, 69, 0
2, 7200, Note_on_c, 0, 70, 88
2, 7560, Note_on_c, 0, 70, 0
2, 7560, Note_on_c, 0, 69, 62
2, 7620, Note_on_c, 0, 69, 0
2, 7620, Note_on_c, 0, 67, 62
2, 7680, Note_on_c, 0, 67, 0
2, 7680, Note_on_c, 0, 66, 62
2, 8640, Note_on_c, 0, 66, 0
2, 8640, Control_c, 0, 64, 127
2, 8640, Note_on_c, 0, 67, 62
2, 8880, Note_on_c, 0, 67, 0
2, 8880, Note_on_c, 0, 74, 62
2, 9120, Note_on_c, 0, 74, 0
2, 9120, Note_on_c, 0, 70, 62
2, 9840, Note_on_c, 0, 70, 0
2, 9840, Note_on_c, 0, 69, 62
2, 10080, Note_on_c, 0, 69, 0
2, 10080, Control_c, 0, 64, 0
2, 10080, Note_on_c, 0, 67, 62
2, 10800, Note_on_c, 0, 67, 0
2, 10800, Note_on_c, 0, 60, 62
2, 10800, Note_on_c, 0, 62, 62
2, 10800, Note_on_c, 0, 66, 62
2, 11040, Note_on_c, 0, 66, 0
2, 11040, Note_on_c, 0, 62, 0
2, 11040, Note_on_c, 0, 60, 0
2, 11040, Note_on_c, 0, 58, 62
2, 11040, Note_on_c, 0, 62, 62
2, 11040, Note_on_c, 0, 67, 62
2, 11520, Note_on_c, 0, 67, 0
2, 11520, Note_on_c, 0, 62, 0
2, 11520, Note_on_c, 0, 58, 0
2, 11520, Note_on_c, 0, 67, 88
2, 12000, Note_on_c, 0, 67, 0
2, 12000, Note_on_c, 0, 69, 88
2, 12960, Note_on_c, 0, 69, 0
2, 12960, Note_on_c, 0, 70, 88
2, 13320, Note_on_c, 0, 70, 0
2, 13320, Note_on_c, 0, 69, 62
2, 13380, Note_on_c, 0, 69, 0
2, 13380, Note_on_c, 0, 67, 62
2, 13440, Note_on_c, 0, 67, 0
2, 13440, Note_on_c, 0, 66, 62
2, 14400, Note_on_c, 0, 66, 0
2, 14400, Note_on_c, 0, 67, 62
2, 14640, Note_on_c, 0, 67, 0
2, 14640, Note_on_c, 0, 74, 62
2, 14880, Note_on_c, 0, 74, 0
2, 14880, Note_on_c, 0, 70, 62
2, 15600, Note_on_c, 0, 70, 0
2, 15600, Note_on_c, 0, 69, 62
2, 15840, Note_on_c, 0, 69, 0
2, 15840, Note_on_c, 0, 67, 62
2, 16560, Note_on_c, 0, 67, 0
2, 16560, Note_on_c, 0, 62, 62
2, 16800, Note_on_c, 0, 62, 0
2, 16800, Note_on_c, 0, 64, 62
2, 17040, Note_on_c, 0, 64, 0
2, 17040, Note_on_c, 0, 66, 62
2, 17280, Note_on_c, 0, 66, 0
2, 17280, Note_on_c, 0, 67, 88
2, 17760, Note_on_c, 0, 67, 0
2, 17760, Note_on_c, 0, 69, 88
2, 18720, Note_on_c, 0, 69, 0
2, 18720, Note_on_c, 0, 70, 88
2, 19080, Note_on_c, 0, 70, 0
2, 19080, Note_on_c, 0, 69, 62
2, 19140, Note_on_c, 0, 69, 0
2, 19140, Note_on_c, 0, 67, 62
2, 19200, Note_on_c, 0, 67, 0
2, 19200, Note_on_c, 0, 66, 62
2, 20160, Note_on_c, 0, 66, 0
2, 20160, Control_c, 0, 64, 127
2, 20160, Note_on_c, 0, 67, 62
2, 20400, Note_on_c, 0, 67, 0
2, 20400, Note_on_c, 0, 74, 62
2, 20640, Note_on_c, 0, 74, 0
2, 20640, Note_on_c, 0, 70, 62
2, 21360, Note_on_c, 0, 70, 0
2, 21360, Note_on_c, 0, 69, 62
2, 21600, Note_on_c, 0, 69, 0
2, 21600, Control_c, 0, 64, 0
2, 21600, Note_on_c, 0, 67, 62
2, 22320, Note_on_c, 0, 67, 0
2, 22320, Note_on_c, 0, 60, 62
2, 22320, Note_on_c, 0, 62, 62
2, 22320, Note_on_c, 0, 66, 62
2, 22560, Note_on_c, 0, 66, 0
2, 22560, Note_on_c, 0, 62, 0
2, 22560, Note_on_c, 0, 60, 0
2, 22560, Note_on_c, 0, 58, 62
2, 22560, Note_on_c, 0, 62, 62
2, 22560, Note_on_c, 0, 67, 62
2, 23040, Note_on_c, 0, 67, 0
2, 23040, Note_on_c, 0, 62, 0
2, 23040, Note_on_c, 0, 58, 0
2, 23040, Note_on_c, 0, 62, 75
2, 23520, Note_on_c, 0, 62, 0
2, 23520, Note_on_c, 0, 63, 75
2, 24240, Note_on_c, 0, 63, 0
2, 24240, Note_on_c, 0, 62, 75
2, 24480, Note_on_c, 0, 62, 0
2, 24480, Control_c, 0, 64, 127
2, 24480, Note_on_c, 0, 63, 75
2, 24720, Note_on_c, 0, 63, 0
2, 24720, Note_on_c, 0, 64, 75
2, 24960, Note_on_c, 0, 64, 0
2, 24960, Note_on_c, 0, 65, 75
2, 25680, Note_on_c, 0, 65, 0
2, 25680, Control_c, 0, 64, 0
2, 25680, Note_on_c, 0, 64, 75
2, 25920, Note_on_c, 0, 64, 0
2, 25920, Control_c, 0, 64, 127
2, 25920, Note_on_c, 0, 65, 75
2, 26160, Note_on_c, 0, 65, 0
2, 26160, Note_on_c, 0, 66, 75
2, 26400, Note_on_c, 0, 66, 0
2, 26400, Note_on_c, 0, 67, 75
2, 27120, Note_on_c, 0, 67, 0
2, 27120, Control_c, 0, 64, 0
2, 27120, Note_on_c, 0, 62, 75
2, 27360, Note_on_c, 0, 62, 0
2, 27360, Note_on_c, 0, 65, 75
2, 28320, Note_on_c, 0, 65, 0
2, 28320, Note_on_c, 0, 63, 75
2, 28800, Note_on_c, 0, 63, 0
2, 28800, Note_on_c, 0, 60, 62
2, 28800, Note_on_c, 0, 67, 62
2, 29040, Note_on_c, 0, 67, 0
2, 29040, Note_on_c, 0, 60, 0
2, 29040, Note_on_c, 0, 67, 62
2, 29040, Note_on_c, 0, 72, 62
2, 29280, Note_on_c, 0, 72, 0
2, 29280, Note_on_c, 0, 67, 0
2, 29280, Note_on_c, 0, 67, 62
2, 29520, Note_on_c, 0, 67, 0
2, 29520, Note_on_c, 0, 67, 62
2, 29520, Note_on_c, 0, 72, 62
2, 29760, Note_on_c, 0, 72, 0
2, 29760, Note_on_c, 0, 67, 0
2, 29760, Note_on_c, 0, 60, 62
2, 29760, Note_on_c, 0, 67, 62
2, 30000, Note_on_c, 0, 67, 0
2, 30000, Note_on_c, 0, 60, 0
2, 30000, Note_on_c, 0, 67, 62
2, 30000, Note_on_c, 0, 72, 62
2, 30240, Note_on_c, 0, 72, 0
2, 30240, Note_on_c, 0, 67, 0
2, 30240, Note_on_c, 0, 60, 62
2, 30240, Note_on_c, 0, 69, 62
2, 30480, Note_on_c, 0, 69, 0
2, 30480, Note_on_c, 0, 60, 0
2, 30480, Note_on_c, 0, 69, 62
2, 30480, Note_on_c, 0, 72, 62
2, 30720, Note_on_c, 0, 72, 0
2, 30720, Note_on_c, 0, 69, 0
2, 30720, Note_on_c, 0, 60, 62
2, 30720, Note_on_c, 0, 65, 62
2, 30960, Note_on_c, 0, 65, 0
2, 30960, Note_on_c, 0, 60, 0
2, 30960, Note_on_c, 0, 65, 62
2, 30960, Note_on_c, 0, 72, 62
2, 31200, Note_on_c, 0, 72, 0
2, 31200, Note_on_c, 0, 65, 0
2, 31200, Note_on_c, 0, 65, 62
2, 31440, Note_on_c, 0, 65, 0
2, 31680, Control_c, 0, 64, 127
2, 31680, Note_on_c, 0, 63, 75
2, 32400, Note_on_c, 0, 63, 0
2, 32400, Note_on_c, 0, 55, 75
2, 32640, Note_on_c, 0, 55, 0
2, 32640, Note_on_c, 0, 59, 75
2, 32880, Note_on_c, 0, 59, 0
2, 32880, Control_c, 0, 64, 0
2, 32880, Note_on_c, 0, 62, 75
2, 33120, Note_on_c, 0, 62, 0
2, 33120, Note_on_c, 0, 60, 75
2, 34560, Note_on_c, 0, 60, 0
2, 34560, Note_on_c, 0, 62, 75
2, 35040, Note_on_c, 0, 62, 0
2, 35040, Note_on_c, 0, 63, 75
2, 35760, Note_on_c, 0, 63, 0
2, 35760, Note_on_c, 0, 62, 75
2, 36000, Note_on_c, 0, 62, 0
2, 36000, Control_c, 0, 64, 127
2, 36000, Note_on_c, 0, 63, 75
2, 36240, Note_on_c, 0, 63, 0
2, 36240, Note_on_c, 0, 64, 75
2, 36480, Note_on_c, 0, 64, 0
2, 36480, Note_on_c, 0, 65, 75
2, 37200, Note_on_c, 0, 65, 0
2, 37200, Control_c, 0, 64, 0
2, 37200, Note_on_c, 0, 64, 75
2, 37440, Note_on_c, 0, 64, 0
2, 37440, Control_c, 0, 64, 127
2, 37440, Note_on_c, 0, 65, 75
2, 37680, Note_on_c, 0, 65, 0
2, 37680, Note_on_c, 0, 66, 75
2, 37920, Note_on_c, 0, 66, 0
2, 37920, Note_on_c, 0, 67, 75
2, 38640, Note_on_c, 0, 67, 0
2, 38640, Control_c, 0, 64, 0
2, 38640, Note_on_c, 0, 62, 75
2, 38880, Note_on_c, 0, 62, 0
2, 38880, Note_on_c, 0, 65, 75
2, 39840, Note_on_c, 0, 65, 0
2, 39840, Note_on_c, 0, 63, 75
2, 40320, Note_on_c, 0, 63, 0
2, 40320, Note_on_c, 0, 60, 62
2, 40320, Note_on_c, 0, 67, 62
2, 40560, Note_on_c, 0, 67, 0
2, 40560, Note_on_c, 0, 60, 0
2, 40560, Note_on_c, 0, 67, 62
2, 40560, Note_on_c, 0, 72, 62
2, 40800, Note_on_c, 0, 72, 0
2, 40800, Note_on_c, 0, 67, 0
2, 40800, Note_on_c, 0, 67, 62
2, 41040, Note_on_c, 0, 67, 0
2, 41040, Note_on_c, 0, 67, 62
2, 41040, Note_on_c, 0, 72, 62
2, 41280, Note_on_c, 0, 72, 0
2, 41280, Note_on_c, 0, 67, 0
2, 41280, Note_on_c, 0, 60, 62
2, 41280, Note_on_c, 0, 67, 62
2, 41520, Note_on_c, 0, 67, 0
2, 41520, Note_on_c, 0, 60, 0
2, 41520, Note_on_c, 0, 67, 62
2, 41520, Note_on_c, 0, 72, 62
2, 41760, Note_on_c, 0, 72, 0
2, 41760, Note_on_c, 0, 67, 0
2, 41760, Note_on_c, 0, 66, 62
2, 41760, Note_on_c, 0, 69, 62
2, 42000, Note_on_c, 0, 69, 0
2, 42000, Note_on_c, 0, 66, 0
2, 42000, Note_on_c, 0, 66, 62
2, 42000, Note_on_c, 0, 74, 62
2, 42240, Note_on_c, 0, 74, 0
2, 42240, Note_on_c, 0, 66, 0
2, 42240, Note_on_c, 0, 62, 62
2, 42240, Note_on_c, 0, 66, 62
2, 42480, Note_on_c, 0, 66, 0
2, 42480, Note_on_c, 0, 62, 0
2, 42480, Note_on_c, 0, 66, 62
2, 42480, Note_on_c, 0, 74, 62
2, 42720, Note_on_c, 0, 74, 0
2, 42720, Note_on_c, 0, 66, 0
2, 42720, Note_on_c, 0, 60, 62
2, 42720, Note_on_c, 0, 67, 62
2, 42960, Note_on_c, 0, 67, 0
2, 42960, Note_on_c, 0, 60, 0
2, 42960, Note_on_c, 0, 67, 62
2, 42960, Note_on_c, 0, 72, 62
2, 43200, Note_on_c, 0, 72, 0
2, 43200, Note_on_c, 0, 67, 0
2, 43200, Note_on_c, 0, 66, 62
2, 43200, Note_on_c, 0, 69, 62
2, 43440, Note_on_c, 0, 69, 0
2, 43440, Note_on_c, 0, 66, 0
2, 43440, Note_on_c, 0, 66, 62
2, 43440, Note_on_c, 0, 74, 62
2, 43680, Note_on_c, 0, 74, 0
2, 43680, Note_on_c, 0, 66, 0
2, 43680, Note_on_c, 0, 66, 62
2, 43680, Note_on_c, 0, 69, 62
2, 43920, Note_on_c, 0, 69, 0
2, 43920, Note_on_c, 0, 66, 0
2, 43920, Note_on_c, 0, 66, 62
2, 43920, Note_on_c, 0, 74, 62
2, 44160, Note_on_c, 0, 74, 0
2, 44160, Note_on_c, 0, 66, 0
2, 44160, Note_on_c, 0, 62, 62
2, 44160, Note_on_c, 0, 67, 62
2, 44400, Note_on_c, 0, 67, 0
2, 44400, Note_on_c, 0, 62, 0
2, 44400, Note_on_c, 0, 67, 62
2, 44400, Note_on_c, 0, 70, 62
2, 44640, Note_on_c, 0, 70, 0
2, 44640, Note_on_c, 0, 67, 0
2, 44640, Note_on_c, 0, 66, 62
2, 44640, Note_on_c, 0, 69, 62
2, 44687, Note_on_c, 0, 69, 0
2, 44687, Note_on_c, 0, 66, 0
2, 44880, Note_on_c, 0, 66, 62
2, 44880, Note_on_c, 0, 74, 62
2, 44927, Note_on_c, 0, 74, 0
2, 44927, Note_on_c, 0, 66, 0
2, 45120, Note_on_c, 0, 74, 62
2, 45120, Note_on_c, 0, 78, 62
2, 45120, Note_on_c, 0, 81, 62
2, 45120, Note_on_c, 0, 86, 62
2, 45600, Note_on_c, 0, 86, 0
2, 45600, Note_on_c, 0, 74, 0
2, 45600, Note_on_c, 0, 78, 0
2, 45600, Note_on_c, 0, 81, 0
2, 45600, Note_on_c, 0, 74, 62
2, 45600, Note_on_c, 0, 78, 62
2, 45600, Note_on_c, 0, 81, 62
2, 45600, Note_on_c, 0, 86, 62
2, 46080, Note_on_c, 0, 86, 0
2, 46080, Note_on_c, 0, 74, 0
2, 46080, Note_on_c, 0, 78, 0
2, 46080, Note_on_c, 0, 81, 0
2, 46080, Note_on_c, 0, 62, 75
2, 46080, Note_on_c, 0, 74, 75
2, 46560, Note_on_c, 0, 74, 0
2, 46560, Note_on_c, 0, 62, 0
2, 46560, Note_on_c, 0, 63, 75
2, 46560, Note_on_c, 0, 75, 75
2, 47280, Note_on_c, 0, 75, 0
2, 47280, Note_on_c, 0, 63, 0
2, 47280, Note_on_c, 0, 62, 75
2, 47280, Note_on_c, 0, 74, 75
2, 47520, Note_on_c, 0, 74, 0
2, 47520, Note_on_c, 0, 62, 0
2, 47520, Control_c, 0, 64, 127
2, 47520, Note_on_c, 0, 63, 75
2, 47520, Note_on_c, 0, 75, 75
2, 47760, Note_on_c, 0, 75, 0
2, 47760, Note_on_c, 0, 63, 0
2, 47760, Note_on_c, 0, 64, 75
2, 47760, Note_on_c, 0, 76, 75
2, 48000, Note_on_c, 0, 76, 0
2, 48000, Note_on_c, 0, 64, 0
2, 48000, Note_on_c, 0, 65, 75
2, 48000, Note_on_c, 0, 77, 75
2, 48720, Note_on_c, 0, 77, 0
2, 48720, Note_on_c, 0, 65, 0
2, 48720, Control_c, 0, 64, 0
2, 48720, Note_on_c, 0, 64, 75
2, 48720, Note_on_c, 0, 76, 75
2, 48960, Note_on_c, 0, 76, 0
2, 48960, Note_on_c, 0, 64, 0
2, 48960, Control_c, 0, 64, 127
2, 48960, Note_on_c, 0, 65, 75
2, 48960, Note_on_c, 0, 77, 75
2, 49200, Note_on_c, 0, 77, 0
2, 49200, Note_on_c, 0, 65, 0
2, 49200, Note_on_c, 0, 66, 75
2, 49200, Note_on_c, 0, 78, 75
2, 49440, Note_on_c, 0, 78, 0
2, 49440, Note_on_c, 0, 66, 0
2, 49440, Note_on_c, 0, 67, 75
2, 49440, Note_on_c, 0, 79, 75
2, 50160, Note_on_c, 0, 79, 0
2, 50160, Note_on_c, 0, 67, 0
2, 50160, Control_c, 0, 64, 0
2, 50160, Note_on_c, 0, 62, 75
2, 50160, Note_on_c, 0, 74, 75
2, 50400, Note_on_c, 0, 74, 0
2, 50400, Note_on_c, 0, 62, 0
2, 50400, Note_on_c, 0, 65, 75
2, 50400, Note_on_c, 0, 77, 75
2, 51360, Note_on_c, 0, 77, 0
2, 51360, Note_on_c, 0, 65, 0
2, 51360, Note_on_c, 0, 63, 75
2, 51360, Note_on_c, 0, 75, 75
2, 51840, Note_on_c, 0, 75, 0
2, 51840, Note_on_c, 0, 63, 0
2, 52080, Control_c, 0, 64, 127
2, 52080, Note_on_c, 0, 67, 75
2, 52320, Note_on_c, 0, 67, 0
2, 52320, Note_on_c, 0, 74, 75
2, 52560, Note_on_c, 0, 74, 0
2, 52560, Note_on_c, 0, 72, 75
2, 52800, Note_on_c, 0, 72, 0
2, 52800, Note_on_c, 0, 70, 75
2, 53040, Note_on_c, 0, 70, 0
2, 53040, Control_c, 0, 64, 0
2, 53040, Note_on_c, 0, 69, 75
2, 53280, Note_on_c, 0, 69, 0
2, 53280, Control_c, 0, 64, 127
2, 53280, Note_on_c, 0, 67, 75
2, 53520, Note_on_c, 0, 67, 0
2, 53520, Note_on_c, 0, 65, 75
2, 53760, Note_on_c, 0, 65, 0
2, 53760, Note_on_c, 0, 67, 75
2, 54000, Note_on_c, 0, 67, 0
2, 54000, Note_on_c, 0, 69, 75
2, 54240, Note_on_c, 0, 69, 0
2, 54240, Note_on_c, 0, 70, 75
2, 54480, Note_on_c, 0, 70, 0
2, 54480, Control_c, 0, 64, 0
2, 54480, Note_on_c, 0, 77, 75
2, 54720, Note_on_c, 0, 77, 0
2, 54720, Control_c, 0, 64, 127
2, 54720, Note_on_c, 0, 75, 75
2, 55440, Note_on_c, 0, 75, 0
2, 55440, Note_on_c, 0, 67, 75
2, 55680, Note_on_c, 0, 67, 0
2, 55680, Note_on_c, 0, 71, 75
2, 55920, Note_on_c, 0, 71, 0
2, 55920, Control_c, 0, 64, 0
2, 55920, Note_on_c, 0, 74, 75
2, 56160, Note_on_c, 0, 74, 0
2, 56160, Note_on_c, 0, 72, 75
2, 57600, Note_on_c, 0, 72, 0
2, 57600, Note_on_c, 0, 62, 75
2, 57600, Note_on_c, 0, 74, 75
2, 58080, Note_on_c, 0, 74, 0
2, 58080, Note_on_c, 0, 62, 0
2, 58080, Note_on_c, 0, 63, 75
2, 58080, Note_on_c, 0, 75, 75
2, 58800, Note_on_c, 0, 75, 0
2, 58800, Note_on_c, 0, 63, 0
2, 58800, Note_on_c, 0, 62, 75
2, 58800, Note_on_c, 0, 74, 75
2, 59040, Note_on_c, 0, 74, 0
2, 59040, Note_on_c, 0, 62, 0
2, 59040, Control_c, 0, 64, 127
2, 59040, Note_on_c, 0, 63, 75
2, 59040, Note_on_c, 0, 75, 75
2, 59280, Note_on_c, 0, 75, 0
2, 59280, Note_on_c, 0, 63, 0
2, 59280, Note_on_c, 0, 64, 75
2, 59280, Note_on_c, 0, 76, 75
2, 59520, Note_on_c, 0, 76, 0
2, 59520, Note_on_c, 0, 64, 0
2, 59520, Note_on_c, 0, 65, 75
2, 59520, Note_on_c, 0, 77, 75
2, 60240, Note_on_c, 0, 77, 0
2, 60240, Note_on_c, 0, 65, 0
2, 60240, Control_c, 0, 64, 0
2, 60240, Note_on_c, 0, 64, 75
2, 60240, Note_on_c, 0, 76, 75
2, 60480, Note_on_c, 0, 76, 0
2, 60480, Note_on_c, 0, 64, 0
2, 60480, Control_c, 0, 64, 127
2, 60480, Note_on_c, 0, 65, 75
2, 60480, Note_on_c, 0, 77, 75
2, 60720, Note_on_c, 0, 77, 0
2, 60720, Note_on_c, 0, 65, 0
2, 60720, Note_on_c, 0, 66, 75
2, 60720, Note_on_c, 0, 78, 75
2, 60960, Note_on_c, 0, 78, 0
2, 60960, Note_on_c, 0, 66, 0
2, 60960, Note_on_c, 0, 67, 75
2, 60960, Note_on_c, 0, 79, 75
2, 61680, Note_on_c, 0, 79, 0
2, 61680, Note_on_c, 0, 67, 0
2, 61680, Control_c, 0, 64, 0
2, 61680, Note_on_c, 0, 62, 75
2, 61680, Note_on_c, 0, 74, 75
2, 61920, Note_on_c, 0, 74, 0
2, 61920, Note_on_c, 0, 62, 0
2, 61920, Note_on_c, 0, 65, 75
2, 61920, Note_on_c, 0, 77, 75
2, 62880, Note_on_c, 0, 77, 0
2, 62880, Note_on_c, 0, 65, 0
2, 62880, Note_on_c, 0, 63, 75
2, 62880, Note_on_c, 0, 75, 75
2, 63360, Note_on_c, 0, 75, 0
2, 63360, Note_on_c, 0, 63, 0
2, 63600, Control_c, 0, 64, 127
2, 63600, Note_on_c, 0, 67, 75
2, 63840, Note_on_c, 0, 67, 0
2, 63840, Note_on_c, 0, 74, 75
2, 64080, Note_on_c, 0, 74, 0
2, 64080, Note_on_c, 0, 72, 75
2, 64320, Note_on_c, 0, 72, 0
2, 64320, Note_on_c, 0, 70, 75
2, 64560, Note_on_c, 0, 70, 0
2, 64560, Control_c, 0, 64, 0
2, 64560, Note_on_c, 0, 69, 75
2, 64800, Note_on_c, 0, 69, 0
2, 64800, Control_c, 0, 64, 127
2, 64800, Note_on_c, 0, 74, 75
2, 65040, Note_on_c, 0, 74, 0
2, 65040, Note_on_c, 0, 72, 75
2, 65280, Note_on_c, 0, 72, 0
2, 65280, Note_on_c, 0, 70, 75
2, 65520, Note_on_c, 0, 70, 0
2, 65520, Note_on_c, 0, 69, 75
2, 65760, Note_on_c, 0, 69, 0
2, 65760, Note_on_c, 0, 67, 75
2, 66000, Note_on_c, 0, 67, 0
2, 66000, Control_c, 0, 64, 0
2, 66000, Note_on_c, 0, 75, 75
2, 66240, Note_on_c, 0, 75, 0
2, 66240, Control_c, 0, 64, 127
2, 66240, Note_on_c, 0, 74, 75
2, 66960, Note_on_c, 0, 74, 0
2, 66960, Note_on_c, 0, 69, 75
2, 67200, Note_on_c, 0, 69, 0
2, 67200, Note_on_c, 0, 70, 75
2, 67440, Note_on_c, 0, 70, 0
2, 67440, Control_c, 0, 64, 0
2, 67440, Note_on_c, 0, 72, 75
2, 67680, Note_on_c, 0, 72, 0
2, 67680, Note_on_c, 0, 74, 75
2, 69120, Note_on_c, 0, 74, 0
2, 69120, Note_on_c, 0, 67, 88
2, 69600, Note_on_c, 0, 67, 0
2, 69600, Note_on_c, 0, 69, 88
2, 70560, Note_on_c, 0, 69, 0
2, 70560, Note_on_c, 0, 70, 88
2, 70920, Note_on_c, 0, 70, 0
2, 70920, Note_on_c, 0, 69, 62
2, 70980, Note_on_c, 0, 69, 0
2, 70980, Note_on_c, 0, 67, 62
2, 71040, Note_on_c, 0, 67, 0
2, 71040, Note_on_c, 0, 66, 62
2, 72000, Note_on_c, 0, 66, 0
2, 72000, Note_on_c, 0, 67, 62
2, 72240, Note_on_c, 0, 67, 0
2, 72240, Note_on_c, 0, 74, 62
2, 72480, Note_on_c, 0, 74, 0
2, 72480, Note_on_c, 0, 70, 62
2, 73200, Note_on_c, 0, 70, 0
2, 73200, Note_on_c, 0, 69, 62
2, 73440, Note_on_c, 0, 69, 0
2, 73440, Note_on_c, 0, 67, 62
2, 74160, Note_on_c, 0, 67, 0
2, 74160, Note_on_c, 0, 62, 62
2, 74400, Note_on_c, 0, 62, 0
2, 74400, Note_on_c, 0, 64, 62
2, 74640, Note_on_c, 0, 64, 0
2, 74640, Note_on_c, 0, 66, 62
2, 74880, Note_on_c, 0, 66, 0
2, 74880, Note_on_c, 0, 67, 88
2, 75360, Note_on_c, 0, 67, 0
2, 75360, Note_on_c, 0, 69, 88
2, 76320, Note_on_c, 0, 69, 0
2, 76320, Note_on_c, 0, 70, 88
2, 76680, Note_on_c, 0, 70, 0
2, 76680, Note_on_c, 0, 69, 62
2, 76740, Note_on_c, 0, 69, 0
2, 76740, Note_on_c, 0, 67, 62
2, 76800, Note_on_c, 0, 67, 0
2, 76800, Note_on_c, 0, 66, 62
2, 77760, Note_on_c, 0, 66, 0
2, 77760, Control_c, 0, 64, 127
2, 77760, Note_on_c, 0, 67, 62
2, 78000, Note_on_c, 0, 67, 0
2, 78000, Note_on_c, 0, 74, 62
2, 78240, Note_on_c, 0, 74, 0
2, 78240, Note_on_c, 0, 70, 62
2, 78960, Note_on_c, 0, 70, 0
2, 78960, Note_on_c, 0, 69, 62
2, 79200, Note_on_c, 0, 69, 0
2, 79200, Control_c, 0, 64, 0
2, 79200, Note_on_c, 0, 67, 62
2, 79920, Note_on_c, 0, 67, 0
2, 79920, Note_on_c, 0, 60, 62
2, 79920, Note_on_c, 0, 62, 62
2, 79920, Note_on_c, 0, 66, 62
2, 80160, Note_on_c, 0, 66, 0
2, 80160, Note_on_c, 0, 62, 0
2, 80160, Note_on_c, 0, 60, 0
2, 80160, Note_on_c, 0, 58, 62
2, 80160, Note_on_c, 0, 62, 62
2, 80160, Note_on_c, 0, 67, 62
2, 80640, Note_on_c, 0, 67, 0
2, 80640, Note_on_c, 0, 62, 0
2, 80640, Note_on_c, 0, 58, 0
2, 80640, Note_on_c, 0, 78, 62
2, 81120, Note_on_c, 0, 78, 0
2, 81120, Note_on_c, 0, 81, 62
2, 81840, Note_on_c, 0, 81, 0
2, 81840, Note_on_c, 0, 74, 62
2, 82080, Note_on_c, 0, 74, 0
2, 82080, Note_on_c, 0, 79, 62
2, 82440, Note_on_c, 0, 79, 0
2, 82440, Note_on_c, 0, 77, 62
2, 82500, Note_on_c, 0, 77, 0
2, 82500, Note_on_c, 0, 75, 62
2, 82560, Note_on_c, 0, 75, 0
2, 82560, Note_on_c, 0, 74, 62
2, 83520, Note_on_c, 0, 74, 0
2, 83520, Note_on_c, 0, 78, 62
2, 84000, Note_on_c, 0, 78, 0
2, 84000, Note_on_c, 0, 81, 62
2, 84720, Note_on_c, 0, 81, 0
2, 84720, Note_on_c, 0, 74, 62
2, 84960, Note_on_c, 0, 74, 0
2, 84960, Note_on_c, 0, 67, 62
2, 84960, Note_on_c, 0, 74, 62
2, 84960, Note_on_c, 0, 79, 62
2, 85920, Note_on_c, 0, 79, 0
2, 85920, Note_on_c, 0, 74, 0
2, 85920, Note_on_c, 0, 67, 0
2, 85920, Note_on_c, 0, 70, 62
2, 85920, Note_on_c, 0, 74, 62
2, 86400, Note_on_c, 0, 74, 0
2, 86400, Note_on_c, 0, 70, 0
2, 86400, Note_on_c, 0, 78, 62
2, 86880, Note_on_c, 0, 78, 0
2, 86880, Note_on_c, 0, 81, 62
2, 87600, Note_on_c, 0, 81, 0
2, 87600, Note_on_c, 0, 74, 62
2, 87840, Note_on_c, 0, 74, 0
2, 87840, Note_on_c, 0, 79, 62
2, 88200, Note_on_c, 0, 79, 0
2, 88200, Note_on_c, 0, 77, 62
2, 88260, Note_on_c, 0, 77, 0
2, 88260, Note_on_c, 0, 75, 62
2, 88320, Note_on_c, 0, 75, 0
2, 88320, Note_on_c, 0, 74, 62
2, 89280, Note_on_c, 0, 74, 0
2, 89280, Note_on_c, 0, 72, 62
2, 89760, Note_on_c, 0, 72, 0
2, 89760, Note_on_c, 0, 63, 62
2, 90240, Note_on_c, 0, 63, 0
2, 90240, Note_on_c, 0, 66, 62
2, 90720, Note_on_c, 0, 66, 0
2, 90720, Note_on_c, 0, 67, 62
2, 91680, Note_on_c, 0, 67, 0
2, 92160, Control_c, 0, 64, 127
2, 92160, Note_on_c, 0, 78, 62
2, 92220, Note_on_c, 0, 78, 0
2, 92220, Note_on_c, 0, 79, 62
2, 92280, Note_on_c, 0, 79, 0
2, 92280, Note_on_c, 0, 78, 62
2, 92340, Note_on_c, 0, 78, 0
2, 92340, Note_on_c, 0, 79, 62
2, 92400, Note_on_c, 0, 79, 0
2, 92400, Note_on_c, 0, 78, 62
2, 92460, Note_on_c, 0, 78, 0
2, 92460, Note_on_c, 0, 79, 62
2, 92520, Note_on_c, 0, 79, 0
2, 92520, Note_on_c, 0, 78, 62
2, 92580, Note_on_c, 0, 78, 0
2, 92580, Note_on_c, 0, 79, 62
2, 92640, Note_on_c, 0, 79, 0
2, 92640, Note_on_c, 0, 78, 62
2, 92700, Note_on_c, 0, 78, 0
2, 92700, Note_on_c, 0, 79, 62
2, 92760, Note_on_c, 0, 79, 0
2, 92760, Note_on_c, 0, 78, 62
2, 92820, Note_on_c, 0, 78, 0
2, 92820, Note_on_c, 0, 79, 62
2, 92880, Note_on_c, 0, 79, 0
2, 92880, Note_on_c, 0, 78, 62
2, 92940, Note_on_c, 0, 78, 0
2, 92940, Note_on_c, 0, 79, 62
2, 93000, Note_on_c, 0, 79, 0
2, 93000, Note_on_c, 0, 78, 62
2, 93060, Note_on_c, 0, 78, 0
2, 93060, Note_on_c, 0, 79, 62
2, 93120, Note_on_c, 0, 79, 0
2, 93120, Note_on_c, 0, 78, 62
2, 93180, Note_on_c, 0, 78, 0
2, 93180, Note_on_c, 0, 79, 62
2, 93240, Note_on_c, 0, 79, 0
2, 93240, Note_on_c, 0, 78, 62
2, 93300, Note_on_c, 0, 78, 0
2, 93300, Note_on_c, 0, 79, 62
2, 93360, Note_on_c, 0, 79, 0
2, 93360, Note_on_c, 0, 78, 62
2, 93420, Note_on_c, 0, 78, 0
2, 93420, Note_on_c, 0, 79, 62
2, 93480, Note_on_c, 0, 79, 0
2, 93480, Note_on_c, 0, 76, 62
2, 93540, Note_on_c, 0, 76, 0
2, 93540, Control_c, 0, 64, 0
2, 93540, Note_on_c, 0, 78, 62
2, 93600, Note_on_c, 0, 78, 0
2, 93600, Control_c, 0, 64, 127
2, 93600, Note_on_c, 0, 79, 62
2, 93660, Note_on_c, 0, 79, 0
2, 93660, Note_on_c, 0, 81, 62
2, 93720, Note_on_c, 0, 81, 0
2, 93720, Note_on_c, 0, 79, 62
2, 93780, Note_on_c, 0, 79, 0
2, 93780, Note_on_c, 0, 81, 62
2, 93840, Note_on_c, 0, 81, 0
2, 93840, Note_on_c, 0, 79, 62
2, 93900, Note_on_c, 0, 79, 0
2, 93900, Note_on_c, 0, 81, 62
2, 93960, Note_on_c, 0, 81, 0
2, 93960, Note_on_c, 0, 79, 62
2, 94020, Note_on_c, 0, 79, 0
2, 94020, Note_on_c, 0, 81, 62
2, 94080, Note_on_c, 0, 81, 0
2, 94080, Note_on_c, 0, 79, 62
2, 94140, Note_on_c, 0, 79, 0
2, 94140, Note_on_c, 0, 81, 62
2, 94200, Note_on_c, 0, 81, 0
2, 94200, Note_on_c, 0, 79, 62
2, 94260, Note_on_c, 0, 79, 0
2, 94260, Note_on_c, 0, 81, 62
2, 94320, Note_on_c, 0, 81, 0
2, 94320, Note_on_c, 0, 79, 62
2, 94380, Note_on_c, 0, 79, 0
2, 94380, Note_on_c, 0, 81, 62
2, 94440, Note_on_c, 0, 81, 0
2, 94440, Note_on_c, 0, 78, 62
2, 94500, Note_on_c, 0, 78, 0
2, 94500, Control_c, 0, 64, 0
2, 94500, Note_on_c, 0, 79, 62
2, 94560, Note_on_c, 0, 79, 0
2, 94560, Note_on_c, 0, 82, 62
2, 94560, Note_on_c, 0, 86, 62
2, 94800, Note_on_c, 0, 86, 0
2, 94800, Note_on_c, 0, 82, 0
2, 95040, Control_c, 0, 64, 127
2, 95040, Note_on_c, 0, 66, 62
2, 95100, Note_on_c, 0, 66, 0
2, 95100, Note_on_c, 0, 67, 62
2, 95160, Note_on_c, 0, 67, 0
2, 95160, Note_on_c, 0, 66, 62
2, 95220, Note_on_c, 0, 66, 0
2, 95220, Note_on_c, 0, 67, 62
2, 95280, Note_on_c, 0, 67, 0
2, 95280, Note_on_c, 0, 66, 62
2, 95340, Note_on_c, 0, 66, 0
2, 95340, Note_on_c, 0, 67, 62
2, 95400, Note_on_c, 0, 67, 0
2, 95400, Note_on_c, 0, 66, 62
2, 95460, Note_on_c, 0, 66, 0
2, 95460, Note_on_c, 0, 67, 62
2, 95520, Note_on_c, 0, 67, 0
2, 95520, Note_on_c, 0, 66, 62
2, 95580, Note_on_c, 0, 66, 0
2, 95580, Note_on_c, 0, 67, 62
2, 95640, Note_on_c, 0, 67, 0
2, 95640, Note_on_c, 0, 66, 62
2, 95700, Note_on_c, 0, 66, 0
2, 95700, Note_on_c, 0, 67, 62
2, 95760, Note_on_c, 0, 67, 0
2, 95760, Note_on_c, 0, 66, 62
2, 95820, Note_on_c, 0, 66, 0
2, 95820, Note_on_c, 0, 67, 62
2, 95880, Note_on_c, 0, 67, 0
2, 95880, Note_on_c, 0, 66, 62
2, 95940, Note_on_c, 0, 66, 0
2, 95940, Note_on_c, 0, 67, 62
2, 96000, Note_on_c, 0, 67, 0
2, 96000, Note_on_c, 0, 66, 62
2, 96060, Note_on_c, 0, 66, 0
2, 96060, Note_on_c, 0, 67, 62
2, 96120, Note_on_c, 0, 67, 0
2, 96120, Note_on_c, 0, 66, 62
2, 96180, Note_on_c, 0, 66, 0
2, 96180, Note_on_c, 0, 67, 62
2, 96240, Note_on_c, 0, 67, 0
2, 96240, Note_on_c, 0, 66, 62
2, 96300, Note_on_c, 0, 66, 0
2, 96300, Note_on_c, 0, 67, 62
2, 96360, Note_on_c, 0, 67, 0
2, 96360, Note_on_c, 0, 64, 62
2, 96420, Note_on_c, 0, 64, 0
2, 96420, Control_c, 0, 64, 0
2, 96420, Note_on_c, 0, 66, 62
2, 96480, Note_on_c, 0, 66, 0
2, 96480, Note_on_c, 0, 67, 62
2, 97380, Note_on_c, 0, 70, 62
2, 97440, Note_on_c, 0, 70, 0
2, 97440, Note_on_c, 0, 67, 0
2, 97440, Control_c, 0, 64, 127
2, 97440, Note_on_c, 0, 69, 62
2, 97560, Note_on_c, 0, 69, 0
2, 97560, Note_on_c, 0, 70, 62
2, 97680, Note_on_c, 0, 70, 0
2, 97680, Note_on_c, 0, 69, 62
2, 97800, Note_on_c, 0, 69, 0
2, 97800, Control_c, 0, 64, 0
2, 97800, Note_on_c, 0, 66, 62
2, 97920, Note_on_c, 0, 66, 0
2, 97920, Note_on_c, 0, 67, 62
2, 98820, Note_on_c, 0, 70, 62
2, 98880, Note_on_c, 0, 70, 0
2, 98880, Note_on_c, 0, 67, 0
2, 98880, Control_c, 0, 64, 127
2, 98880, Note_on_c, 0, 69, 62
2, 99000, Note_on_c, 0, 69, 0
2, 99000, Note_on_c, 0, 70, 62
2, 99120, Note_on_c, 0, 70, 0
2, 99120, Note_on_c, 0, 69, 62
2, 99240, Note_on_c, 0, 69, 0
2, 99240, Control_c, 0, 64, 0
2, 99240, Note_on_c, 0, 66, 62
2, 99360, Note_on_c, 0, 66, 0
2, 99360, Control_c, 0, 64, 127
2, 99360, Note_on_c, 0, 67, 62
2, 100080, Note_on_c, 0, 67, 0
2, 100080, Note_on_c, 0, 58, 62
2, 100320, Note_on_c, 0, 58, 0
2, 100320, Note_on_c, 0, 60, 62
2, 100560, Note_on_c, 0, 60, 0
2, 100560, Control_c, 0, 64, 0
2, 100560, Note_on_c, 0, 61, 62
2, 100800, Note_on_c, 0, 61, 0
2, 100800, Control_c, 0, 64, 127
2, 100800, Note_on_c, 0, 62, 62
2, 101040, Note_on_c, 0, 62, 0
2, 101040, Note_on_c, 0, 63, 62
2, 101280, Note_on_c, 0, 63, 0
2, 101280, Note_on_c, 0, 62, 62
2, 101520, Note_on_c, 0, 62, 0
2, 101520, Note_on_c, 0, 58, 62
2, 101760, Note_on_c, 0, 58, 0
2, 101760, Note_on_c, 0, 57, 62
2, 102000, Note_on_c, 0, 57, 0
2, 102000, Control_c, 0, 64, 0
2, 102000, Note_on_c, 0, 55, 62
2, 102240, Note_on_c, 0, 55, 0
2, 104160, Note_on_c, 0, 72, 49
2, 104160, Note_on_c, 0, 74, 49
2, 104160, Note_on_c, 0, 78, 49
2, 104160, Note_on_c, 0, 86, 49
2, 105000, Note_on_c, 0, 86, 0
2, 105000, Note_on_c, 0, 72, 0
2, 105000, Note_on_c, 0, 74, 0
2, 105000, Note_on_c, 0, 78, 0
2, 105000, Note_on_c, 0, 79, 49
2, 105120, Note_on_c, 0, 79, 0
2, 105120, Note_on_c, 0, 70, 49
2, 105120, Note_on_c, 0, 74, 49
2, 105120, Note_on_c, 0, 79, 49
2, 108960, Note_on_c, 0, 79, 0
2, 108960, Note_on_c, 0, 74, 0
2, 108960, Note_on_c, 0, 70, 0
2, 108960, End_track
3, 0, Start_track
3, 0, Title_t, "Grand Piano"
3, 0, Program_c, 0, 0
3, 0, Control_c, 0, 7, 115
3, 0, Control_c, 0, 10, 80
3, 1680, Note_on_c, 0, 58, 49
3, 1680, Note_on_c, 0, 62, 49
3, 1727, Note_on_c, 0, 62, 0
3, 1727, Note_on_c, 0, 58, 0
3, 1920, Note_on_c, 0, 62, 49
3, 1920, Note_on_c, 0, 66, 49
3, 1967, Note_on_c, 0, 66, 0
3, 1967, Note_on_c, 0, 62, 0
3, 2160, Note_on_c, 0, 62, 49
3, 2160, Note_on_c, 0, 66, 49
3, 2160, Note_on_c, 0, 69, 49
3, 2207, Note_on_c, 0, 69, 0
3, 2207, Note_on_c, 0, 66, 0
3, 2207, Note_on_c, 0, 62, 0
3, 2400, Note_on_c, 0, 66, 49
3, 2400, Note_on_c, 0, 69, 49
3, 2400, Note_on_c, 0, 74, 49
3, 2496, Note_on_c, 0, 74, 0
3, 2496, Note_on_c, 0, 69, 0
3, 2496, Note_on_c, 0, 66, 0
3, 3120, Note_on_c, 0, 62, 49
3, 3360, Note_on_c, 0, 62, 0
3, 3600, Note_on_c, 0, 60, 49
3, 3600, Note_on_c, 0, 62, 49
3, 3840, Note_on_c, 0, 62, 0
3, 3840, Note_on_c, 0, 60, 0
3, 4080, Note_on_c, 0, 60, 49
3, 4080, Note_on_c, 0, 62, 49
3, 4320, Note_on_c, 0, 62, 0
3, 4320, Note_on_c, 0, 60, 0
3, 5040, Note_on_c, 0, 62, 49
3, 5280, Note_on_c, 0, 62, 0
3, 5520, Note_on_c, 0, 60, 49
3, 5520, Note_on_c, 0, 62, 49
3, 5760, Note_on_c, 0, 62, 0
3, 5760, Note_on_c, 0, 60, 0
3, 6000, Note_on_c, 0, 58, 49
3, 6000, Note_on_c, 0, 62, 49
3, 6047, Note_on_c, 0, 62, 0
3, 6047, Note_on_c, 0, 58, 0
3, 6240, Note_on_c, 0, 60, 49
3, 6240, Note_on_c, 0, 62, 49
3, 6287, Note_on_c, 0, 62, 0
3, 6287, Note_on_c, 0, 60, 0
3, 6480, Note_on_c, 0, 57, 49
3, 6480, Note_on_c, 0, 60, 49
3, 6480, Note_on_c, 0, 66, 49
3, 6527, Note_on_c, 0, 66, 0
3, 6527, Note_on_c, 0, 60, 0
3, 6527, Note_on_c, 0, 57, 0
3, 6720, Note_on_c, 0, 60, 49
3, 6720, Note_on_c, 0, 62, 49
3, 6816, Note_on_c, 0, 62, 0
3, 6816, Note_on_c, 0, 60, 0
3, 7440, Note_on_c, 0, 58, 49
3, 7440, Note_on_c, 0, 62, 49
3, 7487, Note_on_c, 0, 62, 0
3, 7487, Note_on_c, 0, 58, 0
3, 7680, Note_on_c, 0, 62, 49
3, 7680, Note_on_c, 0, 66, 49
3, 7727, Note_on_c, 0, 66, 0
3, 7727, Note_on_c, 0, 62, 0
3, 7920, Note_on_c, 0, 62, 49
3, 7920, Note_on_c, 0, 66, 49
3, 7920, Note_on_c, 0, 69, 49
3, 7967, Note_on_c, 0, 69, 0
3, 7967, Note_on_c, 0, 66, 0
3, 7967, Note_on_c, 0, 62, 0
3, 8160, Note_on_c, 0, 66, 49
3, 8160, Note_on_c, 0, 69, 49
3, 8160, Note_on_c, 0, 74, 49
3, 8256, Note_on_c, 0, 74, 0
3, 8256, Note_on_c, 0, 69, 0
3, 8256, Note_on_c, 0, 66, 0
3, 8880, Note_on_c, 0, 62, 49
3, 9120, Note_on_c, 0, 62, 0
3, 9360, Note_on_c, 0, 60, 49
3, 9360, Note_on_c, 0, 62, 49
3, 9600, Note_on_c, 0, 62, 0
3, 9600, Note_on_c, 0, 60, 0
3, 9840, Note_on_c, 0, 60, 49
3, 9840, Note_on_c, 0, 62, 49
3, 10080, Note_on_c, 0, 62, 0
3, 10080, Note_on_c, 0, 60, 0
3, 13200, Note_on_c, 0, 58, 49
3, 13200, Note_on_c, 0, 62, 49
3, 13247, Note_on_c, 0, 62, 0
3, 13247, Note_on_c, 0, 58, 0
3, 13440, Note_on_c, 0, 62, 49
3, 13440, Note_on_c, 0, 66, 49
3, 13487, Note_on_c, 0, 66, 0
3, 13487, Note_on_c, 0, 62, 0
3, 13680, Note_on_c, 0, 62, 49
3, 13680, Note_on_c, 0, 66, 49
3, 13680, Note_on_c, 0, 69, 49
3, 13727, Note_on_c, 0, 69, 0
3, 13727, Note_on_c, 0, 66, 0
3, 13727, Note_on_c, 0, 62, 0
3, 13920, Note_on_c, 0, 66, 49
3, 13920, Note_on_c, 0, 69, 49
3, 13920, Note_on_c, 0, 74, 49
3, 14016, Note_on_c, 0, 74, 0
3, 14016, Note_on_c, 0, 69, 0
3, 14016, Note_on_c, 0, 66, 0
3, 14640, Note_on_c, 0, 62, 49
3, 14880, Note_on_c, 0, 62, 0
3, 15120, Note_on_c, 0, 60, 49
3, 15120, Note_on_c, 0, 62, 49
3, 15360, Note_on_c, 0, 62, 0
3, 15360, Note_on_c, 0, 60, 0
3, 15600, Note_on_c, 0, 60, 49
3, 15600, Note_on_c, 0, 62, 49
3, 15840, Note_on_c, 0, 62, 0
3, 15840, Note_on_c, 0, 60, 0
3, 16560, Note_on_c, 0, 62, 49
3, 16800, Note_on_c, 0, 62, 0
3, 17040, Note_on_c, 0, 60, 49
3, 17040, Note_on_c, 0, 62, 49
3, 17280, Note_on_c, 0, 62, 0
3, 17280, Note_on_c, 0, 60, 0
3, 17520, Note_on_c, 0, 58, 49
3, 17520, Note_on_c, 0, 62, 49
3, 17567, Note_on_c, 0, 62, 0
3, 17567, Note_on_c, 0, 58, 0
3, 17760, Note_on_c, 0, 60, 49
3, 17760, Note_on_c, 0, 62, 49
3, 17807, Note_on_c, 0, 62, 0
3, 17807, Note_on_c, 0, 60, 0
3, 18000, Note_on_c, 0, 57, 49
3, 18000, Note_on_c, 0, 60, 49
3, 18000, Note_on_c, 0, 66, 49
3, 18047, Note_on_c, 0, 66, 0
3, 18047, Note_on_c, 0, 60, 0
3, 18047, Note_on_c, 0, 57, 0
3, 18240, Note_on_c, 0, 60, 49
3, 18240, Note_on_c, 0, 62, 49
3, 18336, Note_on_c, 0, 62, 0
3, 18336, Note_on_c, 0, 60, 0
3, 18960, Note_on_c, 0, 58, 49
3, 18960, Note_on_c, 0, 62, 49
3, 19007, Note_on_c, 0, 62, 0
3, 19007, Note_on_c, 0, 58, 0
3, 19200, Note_on_c, 0, 62, 49
3, 19200, Note_on_c, 0, 66, 49
3, 19247, Note_on_c, 0, 66, 0
3, 19247, Note_on_c, 0, 62, 0
3, 19440, Note_on_c, 0, 62, 49
3, 19440, Note_on_c, 0, 66, 49
3, 19440, Note_on_c, 0, 69, 49
3, 19487, Note_on_c, 0, 69, 0
3, 19487, Note_on_c, 0, 66, 0
3, 19487, Note_on_c, 0, 62, 0
3, 19680, Note_on_c, 0, 66, 49
3, 19680, Note_on_c, 0, 69, 49
3, 19680, Note_on_c, 0, 74, 49
3, 19776, Note_on_c, 0, 74, 0
3, 19776, Note_on_c, 0, 69, 0
3, 19776, Note_on_c, 0, 66, 0
3, 20400, Note_on_c, 0, 62, 49
3, 20640, Note_on_c, 0, 62, 0
3, 20880, Note_on_c, 0, 60, 49
3, 20880, Note_on_c, 0, 62, 49
3, 21120, Note_on_c, 0, 62, 0
3, 21120, Note_on_c, 0, 60, 0
3, 21360, Note_on_c, 0, 60, 49
3, 21360, Note_on_c, 0, 62, 49
3, 21600, Note_on_c, 0, 62, 0
3, 21600, Note_on_c, 0, 60, 0
3, 25920, Note_on_c, 0, 62, 62
3, 26160, Note_on_c, 0, 62, 0
3, 26160, Note_on_c, 0, 60, 62
3, 26400, Note_on_c, 0, 60, 0
3, 26400, Note_on_c, 0, 59, 62
3, 26640, Note_on_c, 0, 59, 0
3, 26640, Note_on_c, 0, 62, 62
3, 26880, Note_on_c, 0, 62, 0
3, 26880, Note_on_c, 0, 59, 62
3, 27120, Note_on_c, 0, 59, 0
3, 27120, Note_on_c, 0, 62, 62
3, 27360, Note_on_c, 0, 62, 0
3, 33360, Control_c, 0, 64, 127
3, 33360, Note_on_c, 0, 72, 62
3, 33600, Note_on_c, 0, 72, 0
3, 33600, Note_on_c, 0, 67, 62
3, 33840, Note_on_c, 0, 67, 0
3, 33840, Note_on_c, 0, 65, 62
3, 34080, Note_on_c, 0, 65, 0
3, 34080, Note_on_c, 0, 64, 62
3, 34320, Note_on_c, 0, 64, 0
3, 34320, Control_c, 0, 64, 0
3, 34320, Note_on_c, 0, 63, 62
3, 34560, Note_on_c, 0, 63, 0
3, 37440, Note_on_c, 0, 62, 62
3, 37680, Note_on_c, 0, 62, 0
3, 37680, Note_on_c, 0, 60, 62
3, 37920, Note_on_c, 0, 60, 0
3, 37920, Note_on_c, 0, 59, 62
3, 38160, Note_on_c, 0, 59, 0
3, 38160, Note_on_c, 0, 62, 62
3, 38400, Note_on_c, 0, 62, 0
3, 38400, Note_on_c, 0, 59, 62
3, 38640, Note_on_c, 0, 59, 0
3, 38640, Note_on_c, 0, 62, 62
3, 38880, Note_on_c, 0, 62, 0
3, 48960, Note_on_c, 0, 72, 62
3, 49440, Note_on_c, 0, 72, 0
3, 60480, Note_on_c, 0, 72, 62
3, 60960, Note_on_c, 0, 72, 0
3, 64800, Note_on_c, 0, 66, 62
3, 65760, Note_on_c, 0, 66, 0
3, 65760, Note_on_c, 0, 67, 62
3, 66240, Note_on_c, 0, 67, 0
3, 66240, Note_on_c, 0, 66, 62
3, 67200, Note_on_c, 0, 66, 0
3, 67200, Note_on_c, 0, 67, 62
3, 67680, Note_on_c, 0, 67, 0
3, 67680, Note_on_c, 0, 66, 62
3, 69120, Note_on_c, 0, 66, 0
3, 70800, Note_on_c, 0, 58, 49
3, 70800, Note_on_c, 0, 62, 49
3, 70847, Note_on_c, 0, 62, 0
3, 70847, Note_on_c, 0, 58, 0
3, 71040, Note_on_c, 0, 62, 49
3, 71040, Note_on_c, 0, 66, 49
3, 71087, Note_on_c, 0, 66, 0
3, 71087, Note_on_c, 0, 62, 0
3, 71280, Note_on_c, 0, 62, 49
3, 71280, Note_on_c, 0, 66, 49
3, 71280, Note_on_c, 0, 69, 49
3, 71327, Note_on_c, 0, 69, 0
3, 71327, Note_on_c, 0, 66, 0
3, 71327, Note_on_c, 0, 62, 0
3, 71520, Note_on_c, 0, 66, 49
3, 71520, Note_on_c, 0, 69, 49
3, 71520, Note_on_c, 0, 74, 49
3, 71616, Note_on_c, 0, 74, 0
3, 71616, Note_on_c, 0, 69, 0
3, 71616, Note_on_c, 0, 66, 0
3, 72240, Note_on_c, 0, 62, 49
3, 72480, Note_on_c, 0, 62, 0
3, 72720, Note_on_c, 0, 60, 49
3, 72720, Note_on_c, 0, 62, 49
3, 72960, Note_on_c, 0, 62, 0
3, 72960, Note_on_c, 0, 60, 0
3, 73200, Note_on_c, 0, 60, 49
3, 73200, Note_on_c, 0, 62, 49
3, 73440, Note_on_c, 0, 62, 0
3, 73440, Note_on_c, 0, 60, 0
3, 74160, Note_on_c, 0, 62, 49
3, 74400, Note_on_c, 0, 62, 0
3, 74640, Note_on_c, 0, 60, 49
3, 74640, Note_on_c, 0, 62, 49
3, 74880, Note_on_c, 0, 62, 0
3, 74880, Note_on_c, 0, 60, 0
3, 75120, Note_on_c, 0, 58, 49
3, 75120, Note_on_c, 0, 62, 49
3, 75167, Note_on_c, 0, 62, 0
3, 75167, Note_on_c, 0, 58, 0
3, 75360, Note_on_c, 0, 60, 49
3, 75360, Note_on_c, 0, 62, 49
3, 75407, Note_on_c, 0, 62, 0
3, 75407, Note_on_c, 0, 60, 0
3, 75600, Note_on_c, 0, 57, 49
3, 75600, Note_on_c, 0, 60, 49
3, 75600, Note_on_c, 0, 66, 49
3, 75647, Note_on_c, 0, 66, 0
3, 75647, Note_on_c, 0, 60, 0
3, 75647, Note_on_c, 0, 57, 0
3, 75840, Note_on_c, 0, 60, 49
3, 75840, Note_on_c, 0, 62, 49
3, 75936, Note_on_c, 0, 62, 0
3, 75936, Note_on_c, 0, 60, 0
3, 76560, Note_on_c, 0, 58, 49
3, 76560, Note_on_c, 0, 62, 49
3, 76607, Note_on_c, 0, 62, 0
3, 76607, Note_on_c, 0, 58, 0
3, 76800, Note_on_c, 0, 62, 49
3, 76800, Note_on_c, 0, 66, 49
3, 76847, Note_on_c, 0, 66, 0
3, 76847, Note_on_c, 0, 62, 0
3, 77040, Note_on_c, 0, 62, 49
3, 77040, Note_on_c, 0, 66, 49
3, 77040, Note_on_c, 0, 69, 49
3, 77087, Note_on_c, 0, 69, 0
3, 77087, Note_on_c, 0, 66, 0
3, 77087, Note_on_c, 0, 62, 0
3, 77280, Note_on_c, 0, 66, 49
3, 77280, Note_on_c, 0, 69, 49
3, 77280, Note_on_c, 0, 74, 49
3, 77376, Note_on_c, 0, 74, 0
3, 77376, Note_on_c, 0, 69, 0
3, 77376, Note_on_c, 0, 66, 0
3, 78000, Note_on_c, 0, 62, 49
3, 78240, Note_on_c, 0, 62, 0
3, 78480, Note_on_c, 0, 60, 49
3, 78480, Note_on_c, 0, 62, 49
3, 78720, Note_on_c, 0, 62, 0
3, 78720, Note_on_c, 0, 60, 0
3, 78960, Note_on_c, 0, 60, 49
3, 78960, Note_on_c, 0, 62, 49
3, 79200, Note_on_c, 0, 62, 0
3, 79200, Note_on_c, 0, 60, 0
3, 82080, Note_on_c, 0, 67, 62
3, 82560, Note_on_c, 0, 67, 0
3, 82560, Note_on_c, 0, 70, 62
3, 83280, Note_on_c, 0, 70, 0
3, 83280, Note_on_c, 0, 62, 62
3, 83520, Note_on_c, 0, 62, 0
3, 83520, Note_on_c, 0, 63, 62
3, 83760, Note_on_c, 0, 63, 0
3, 83760, Note_on_c, 0, 62, 62
3, 83880, Note_on_c, 0, 62, 0
3, 83880, Note_on_c, 0, 60, 62
3, 84000, Note_on_c, 0, 60, 0
3, 84000, Note_on_c, 0, 60, 62
3, 84480, Note_on_c, 0, 60, 0
3, 84480, Note_on_c, 0, 72, 62
3, 84960, Note_on_c, 0, 72, 0
3, 84960, Note_on_c, 0, 72, 62
3, 85200, Note_on_c, 0, 72, 0
3, 85200, Note_on_c, 0, 70, 62
3, 85320, Note_on_c, 0, 70, 0
3, 85320, Note_on_c, 0, 69, 62
3, 85440, Note_on_c, 0, 69, 0
3, 85440, Note_on_c, 0, 70, 62
3, 85680, Note_on_c, 0, 70, 0
3, 85680, Note_on_c, 0, 69, 62
3, 85800, Note_on_c, 0, 69, 0
3, 85800, Note_on_c, 0, 67, 62
3, 85920, Note_on_c, 0, 67, 0
3, 85920, Note_on_c, 0, 67, 62
3, 86160, Note_on_c, 0, 67, 0
3, 86160, Note_on_c, 0, 66, 62
3, 86280, Note_on_c, 0, 66, 0
3, 86280, Note_on_c, 0, 67, 62
3, 86400, Note_on_c, 0, 67, 0
3, 87840, Note_on_c, 0, 67, 62
3, 88320, Note_on_c, 0, 67, 0
3, 88320, Note_on_c, 0, 70, 62
3, 89040, Note_on_c, 0, 70, 0
3, 89040, Note_on_c, 0, 62, 62
3, 89280, Note_on_c, 0, 62, 0
3, 89280, Note_on_c, 0, 63, 62
3, 89520, Note_on_c, 0, 63, 0
3, 89520, Note_on_c, 0, 62, 62
3, 89640, Note_on_c, 0, 62, 0
3, 89640, Note_on_c, 0, 60, 62
3, 89760, Note_on_c, 0, 60, 0
3, 89760, Note_on_c, 0, 60, 62
3, 90480, Note_on_c, 0, 60, 0
3, 90480, Note_on_c, 0, 62, 62
3, 90600, Note_on_c, 0, 62, 0
3, 90600, Note_on_c, 0, 60, 62
3, 90720, Note_on_c, 0, 60, 0
3, 90720, Note_on_c, 0, 58, 62
3, 92160, Note_on_c, 0, 58, 0
3, 96960, Note_on_c, 0, 58, 49
3, 96960, Note_on_c, 0, 62, 49
3, 97440, Note_on_c, 0, 62, 0
3, 97440, Note_on_c, 0, 58, 0
3, 97440, Note_on_c, 0, 60, 49
3, 97440, Note_on_c, 0, 62, 49
3, 97920, Note_on_c, 0, 62, 0
3, 97920, Note_on_c, 0, 60, 0
3, 98400, Note_on_c, 0, 58, 49
3, 98400, Note_on_c, 0, 62, 49
3, 98880, Note_on_c, 0, 62, 0
3, 98880, Note_on_c, 0, 58, 0
3, 98880, Note_on_c, 0, 60, 49
3, 98880, Note_on_c, 0, 62, 49
3, 99360, Note_on_c, 0, 62, 0
3, 99360, Note_on_c, 0, 60, 0
3, 99840, Note_on_c, 0, 58, 49
3, 99840, Note_on_c, 0, 62, 49
3, 100320, Note_on_c, 0, 62, 0
3, 100320, Note_on_c, 0, 58, 0
3, 100320, End_track
4, 0, Start_track
4, 0, Title_t, "Grand Piano"
4, 0, Program_c, 0, 0
4, 0, Control_c, 0, 7, 115
4, 0, Control_c, 0, 10, 41
4, 240, Note_on_c, 0, 58, 49
4, 240, Note_on_c, 0, 62, 49
4, 287, Note_on_c, 0, 62, 0
4, 287, Note_on_c, 0, 58, 0
4, 480, Note_on_c, 0, 62, 49
4, 480, Note_on_c, 0, 66, 49
4, 527, Note_on_c, 0, 66, 0
4, 527, Note_on_c, 0, 62, 0
4, 720, Note_on_c, 0, 57, 49
4, 720, Note_on_c, 0, 62, 49
4, 720, Note_on_c, 0, 66, 49
4, 767, Note_on_c, 0, 66, 0
4, 767, Note_on_c, 0, 62, 0
4, 767, Note_on_c, 0, 57, 0
4, 960, Note_on_c, 0, 54, 49
4, 960, Note_on_c, 0, 57, 49
4, 960, Note_on_c, 0, 62, 49
4, 1056, Note_on_c, 0, 62, 0
4, 1056, Note_on_c, 0, 57, 0
4, 1056, Note_on_c, 0, 54, 0
4, 1440, Note_on_c, 0, 55, 75
4, 1920, Note_on_c, 0, 55, 0
4, 1920, Note_on_c, 0, 57, 75
4, 2880, Note_on_c, 0, 57, 0
4, 2880, Note_on_c, 0, 58, 75
4, 3240, Note_on_c, 0, 58, 0
4, 3240, Note_on_c, 0, 57, 49
4, 3300, Note_on_c, 0, 57, 0
4, 3300, Note_on_c, 0, 55, 49
4, 3360, Note_on_c, 0, 55, 0
4, 3360, Note_on_c, 0, 54, 49
4, 4320, Note_on_c, 0, 54, 0
4, 4320, Note_on_c, 0, 55, 49
4, 4560, Note_on_c, 0, 55, 0
4, 4560, Note_on_c, 0, 62, 49
4, 4800, Note_on_c, 0, 62, 0
4, 4800, Note_on_c, 0, 58, 49
4, 5520, Note_on_c, 0, 58, 0
4, 5520, Note_on_c, 0, 57, 49
4, 5760, Note_on_c, 0, 57, 0
4, 5760, Note_on_c, 0, 55, 49
4, 6480, Note_on_c, 0, 55, 0
4, 6480, Note_on_c, 0, 50, 49
4, 6720, Note_on_c, 0, 50, 0
4, 6720, Note_on_c, 0, 52, 49
4, 6960, Note_on_c, 0, 52, 0
4, 6960, Note_on_c, 0, 54, 49
4, 7200, Note_on_c, 0, 54, 0
4, 7200, Note_on_c, 0, 55, 75
4, 7680, Note_on_c, 0, 55, 0
4, 7680, Note_on_c, 0, 57, 75
4, 8640, Note_on_c, 0, 57, 0
4, 8640, Note_on_c, 0, 58, 75
4, 9000, Note_on_c, 0, 58, 0
4, 9000, Note_on_c, 0, 57, 49
4, 9060, Note_on_c, 0, 57, 0
4, 9060, Note_on_c, 0, 55, 49
4, 9120, Note_on_c, 0, 55, 0
4, 9120, Note_on_c, 0, 54, 49
4, 10080, Note_on_c, 0, 54, 0
4, 10080, Control_c, 0, 64, 127
4, 10080, Note_on_c, 0, 55, 49
4, 10320, Note_on_c, 0, 55, 0
4, 10320, Note_on_c, 0, 62, 49
4, 10560, Note_on_c, 0, 62, 0
4, 10560, Note_on_c, 0, 58, 49
4, 10800, Note_on_c, 0, 58, 0
4, 10800, Note_on_c, 0, 57, 49
4, 11040, Note_on_c, 0, 57, 0
4, 11040, Control_c, 0, 64, 0
4, 11040, Note_on_c, 0, 55, 49
4, 11520, Note_on_c, 0, 55, 0
4, 11760, Note_on_c, 0, 58, 49
4, 11760, Note_on_c, 0, 62, 49
4, 11807, Note_on_c, 0, 62, 0
4, 11807, Note_on_c, 0, 58, 0
4, 12000, Note_on_c, 0, 62, 49
4, 12000, Note_on_c, 0, 66, 49
4, 12047, Note_on_c, 0, 66, 0
4, 12047, Note_on_c, 0, 62, 0
4, 12240, Note_on_c, 0, 57, 49
4, 12240, Note_on_c, 0, 62, 49
4, 12240, Note_on_c, 0, 66, 49
4, 12287, Note_on_c, 0, 66, 0
4, 12287, Note_on_c, 0, 62, 0
4, 12287, Note_on_c, 0, 57, 0
4, 12480, Note_on_c, 0, 54, 49
4, 12480, Note_on_c, 0, 57, 49
4, 12480, Note_on_c, 0, 62, 49
4, 12576, Note_on_c, 0, 62, 0
4, 12576, Note_on_c, 0, 57, 0
4, 12576, Note_on_c, 0, 54, 0
4, 12960, Note_on_c, 0, 55, 75
4, 13440, Note_on_c, 0, 55, 0
4, 13440, Note_on_c, 0, 57, 75
4, 14400, Note_on_c, 0, 57, 0
4, 14400, Note_on_c, 0, 58, 75
4, 14760, Note_on_c, 0, 58, 0
4, 14760, Note_on_c, 0, 57, 49
4, 14820, Note_on_c, 0, 57, 0
4, 14820, Note_on_c, 0, 55, 49
4, 14880, Note_on_c, 0, 55, 0
4, 14880, Note_on_c, 0, 54, 49
4, 15840, Note_on_c, 0, 54, 0
4, 15840, Note_on_c, 0, 55, 49
4, 16080, Note_on_c, 0, 55, 0
4, 16080, Note_on_c, 0, 62, 49
4, 16320, Note_on_c, 0, 62, 0
4, 16320, Note_on_c, 0, 58, 49
4, 17040, Note_on_c, 0, 58, 0
4, 17040, Note_on_c, 0, 57, 49
4, 17280, Note_on_c, 0, 57, 0
4, 17280, Note_on_c, 0, 55, 49
4, 18000, Note_on_c, 0, 55, 0
4, 18000, Note_on_c, 0, 50, 49
4, 18240, Note_on_c, 0, 50, 0
4, 18240, Note_on_c, 0, 52, 49
4, 18480, Note_on_c, 0, 52, 0
4, 18480, Note_on_c, 0, 54, 49
4, 18720, Note_on_c, 0, 54, 0
4, 18720, Note_on_c, 0, 55, 75
4, 19200, Note_on_c, 0, 55, 0
4, 19200, Note_on_c, 0, 57, 75
4, 20160, Note_on_c, 0, 57, 0
4, 20160, Note_on_c, 0, 58, 75
4, 20520, Note_on_c, 0, 58, 0
4, 20520, Note_on_c, 0, 57, 49
4, 20580, Note_on_c, 0, 57, 0
4, 20580, Note_on_c, 0, 55, 49
4, 20640, Note_on_c, 0, 55, 0
4, 20640, Note_on_c, 0, 54, 49
4, 21600, Note_on_c, 0, 54, 0
4, 21600, Control_c, 0, 64, 127
4, 21600, Note_on_c, 0, 55, 49
4, 21840, Note_on_c, 0, 55, 0
4, 21840, Note_on_c, 0, 62, 49
4, 22080, Note_on_c, 0, 62, 0
4, 22080, Note_on_c, 0, 58, 49
4, 22320, Note_on_c, 0, 58, 0
4, 22320, Note_on_c, 0, 57, 49
4, 22560, Note_on_c, 0, 57, 0
4, 22560, Control_c, 0, 64, 0
4, 22560, Note_on_c, 0, 55, 49
4, 23040, Note_on_c, 0, 55, 0
4, 23040, Note_on_c, 0, 53, 62
4, 23280, Note_on_c, 0, 53, 0
4, 23280, Note_on_c, 0, 58, 62
4, 23520, Note_on_c, 0, 58, 0
4, 23520, Note_on_c, 0, 53, 62
4, 23760, Note_on_c, 0, 53, 0
4, 23760, Note_on_c, 0, 58, 62
4, 24000, Note_on_c, 0, 58, 0
4, 24000, Note_on_c, 0, 53, 62
4, 24240, Note_on_c, 0, 53, 0
4, 24240, Note_on_c, 0, 58, 62
4, 24480, Note_on_c, 0, 58, 0
4, 24480, Note_on_c, 0, 55, 62
4, 24720, Note_on_c, 0, 55, 0
4, 24720, Note_on_c, 0, 60, 62
4, 24960, Note_on_c, 0, 60, 0
4, 24960, Note_on_c, 0, 53, 62
4, 25200, Note_on_c, 0, 53, 0
4, 25200, Note_on_c, 0, 60, 62
4, 25440, Note_on_c, 0, 60, 0
4, 25440, Note_on_c, 0, 53, 62
4, 25680, Note_on_c, 0, 53, 0
4, 25680, Note_on_c, 0, 58, 62
4, 25920, Note_on_c, 0, 58, 0
4, 25920, Note_on_c, 0, 44, 62
4, 26400, Note_on_c, 0, 44, 0
4, 26400, Note_on_c, 0, 43, 62
4, 27360, Note_on_c, 0, 43, 0
4, 27360, Note_on_c, 0, 55, 62
4, 27600, Note_on_c, 0, 55, 0
4, 27600, Note_on_c, 0, 60, 62
4, 27840, Note_on_c, 0, 60, 0
4, 27840, Note_on_c, 0, 55, 62
4, 28080, Note_on_c, 0, 55, 0
4, 28080, Note_on_c, 0, 60, 62
4, 28320, Note_on_c, 0, 60, 0
4, 28320, Note_on_c, 0, 55, 62
4, 28560, Note_on_c, 0, 55, 0
4, 28560, Note_on_c, 0, 60, 62
4, 28800, Note_on_c, 0, 60, 0
4, 29040, Control_c, 0, 64, 127
4, 29040, Note_on_c, 0, 55, 75
4, 29280, Note_on_c, 0, 55, 0
4, 29280, Note_on_c, 0, 62, 75
4, 29520, Note_on_c, 0, 62, 0
4, 29520, Note_on_c, 0, 60, 75
4, 29760, Note_on_c, 0, 60, 0
4, 29760, Note_on_c, 0, 58, 75
4, 30000, Note_on_c, 0, 58, 0
4, 30000, Control_c, 0, 64, 0
4, 30000, Note_on_c, 0, 57, 75
4, 30240, Note_on_c, 0, 57, 0
4, 30240, Control_c, 0, 64, 127
4, 30240, Note_on_c, 0, 55, 75
4, 30480, Note_on_c, 0, 55, 0
4, 30480, Note_on_c, 0, 53, 75
4, 30720, Note_on_c, 0, 53, 0
4, 30720, Note_on_c, 0, 55, 75
4, 30960, Note_on_c, 0, 55, 0
4, 30960, Note_on_c, 0, 57, 75
4, 31200, Note_on_c, 0, 57, 0
4, 31200, Note_on_c, 0, 58, 75
4, 31440, Note_on_c, 0, 58, 0
4, 31440, Control_c, 0, 64, 0
4, 31440, Note_on_c, 0, 65, 75
4, 31680, Note_on_c, 0, 65, 0
4, 31680, Note_on_c, 0, 55, 62
4, 31920, Note_on_c, 0, 55, 0
4, 31920, Note_on_c, 0, 60, 62
4, 32160, Note_on_c, 0, 60, 0
4, 32160, Note_on_c, 0, 55, 62
4, 32400, Note_on_c, 0, 55, 0
4, 32640, Note_on_c, 0, 51, 62
4, 32880, Note_on_c, 0, 51, 0
4, 32880, Note_on_c, 0, 55, 62
4, 33120, Note_on_c, 0, 55, 0
4, 33120, Note_on_c, 0, 57, 62
4, 33360, Note_on_c, 0, 57, 0
4, 33360, Note_on_c, 0, 57, 62
4, 33360, Note_on_c, 0, 60, 62
4, 33600, Note_on_c, 0, 60, 0
4, 33600, Note_on_c, 0, 57, 0
4, 33600, Note_on_c, 0, 53, 62
4, 33600, Note_on_c, 0, 57, 62
4, 33840, Note_on_c, 0, 57, 0
4, 33840, Note_on_c, 0, 53, 0
4, 33840, Note_on_c, 0, 57, 62
4, 33840, Note_on_c, 0, 60, 62
4, 34080, Note_on_c, 0, 60, 0
4, 34080, Note_on_c, 0, 57, 0
4, 34080, Note_on_c, 0, 53, 62
4, 34080, Note_on_c, 0, 57, 62
4, 34320, Note_on_c, 0, 57, 0
4, 34320, Note_on_c, 0, 53, 0
4, 34320, Note_on_c, 0, 57, 62
4, 34320, Note_on_c, 0, 60, 62
4, 34560, Note_on_c, 0, 60, 0
4, 34560, Note_on_c, 0, 57, 0
4, 34560, Note_on_c, 0, 53, 62
4, 34800, Note_on_c, 0, 53, 0
4, 34800, Note_on_c, 0, 58, 62
4, 35040, Note_on_c, 0, 58, 0
4, 35040, Note_on_c, 0, 53, 62
4, 35280, Note_on_c, 0, 53, 0
4, 35280, Note_on_c, 0, 58, 62
4, 35520, Note_on_c, 0, 58, 0
4, 35520, Note_on_c, 0, 53, 62
4, 35760, Note_on_c, 0, 53, 0
4, 35760, Note_on_c, 0, 58, 62
4, 36000, Note_on_c, 0, 58, 0
4, 36000, Note_on_c, 0, 55, 62
4, 36240, Note_on_c, 0, 55, 0
4, 36240, Note_on_c, 0, 60, 62
4, 36480, Note_on_c, 0, 60, 0
4, 36480, Note_on_c, 0, 53, 62
4, 36720, Note_on_c, 0, 53, 0
4, 36720, Note_on_c, 0, 60, 62
4, 36960, Note_on_c, 0, 60, 0
4, 36960, Note_on_c, 0, 53, 62
4, 37200, Note_on_c, 0, 53, 0
4, 37200, Note_on_c, 0, 58, 62
4, 37440, Note_on_c, 0, 58, 0
4, 37440, Note_on_c, 0, 44, 62
4, 37920, Note_on_c, 0, 44, 0
4, 37920, Note_on_c, 0, 43, 62
4, 38880, Note_on_c, 0, 43, 0
4, 38880, Note_on_c, 0, 55, 62
4, 39120, Note_on_c, 0, 55, 0
4, 39120, Note_on_c, 0, 60, 62
4, 39360, Note_on_c, 0, 60, 0
4, 39360, Note_on_c, 0, 55, 62
4, 39600, Note_on_c, 0, 55, 0
4, 39600, Note_on_c, 0, 60, 62
4, 39840, Note_on_c, 0, 60, 0
4, 39840, Note_on_c, 0, 55, 62
4, 40080, Note_on_c, 0, 55, 0
4, 40080, Note_on_c, 0, 60, 62
4, 40320, Note_on_c, 0, 60, 0
4, 40560, Control_c, 0, 64, 127
4, 40560, Note_on_c, 0, 55, 75
4, 40800, Note_on_c, 0, 55, 0
4, 40800, Note_on_c, 0, 62, 75
4, 41040, Note_on_c, 0, 62, 0
4, 41040, Note_on_c, 0, 60, 75
4, 41280, Note_on_c, 0, 60, 0
4, 41280, Note_on_c, 0, 58, 75
4, 41520, Note_on_c, 0, 58, 0
4, 41520, Control_c, 0, 64, 0
4, 41520, Note_on_c, 0, 57, 75
4, 41760, Note_on_c, 0, 57, 0
4, 41760, Control_c, 0, 64, 127
4, 41760, Note_on_c, 0, 62, 75
4, 42000, Note_on_c, 0, 62, 0
4, 42000, Note_on_c, 0, 60, 75
4, 42240, Note_on_c, 0, 60, 0
4, 42240, Note_on_c, 0, 58, 75
4, 42480, Note_on_c, 0, 58, 0
4, 42480, Note_on_c, 0, 57, 75
4, 42720, Note_on_c, 0, 57, 0
4, 42720, Note_on_c, 0, 55, 75
4, 42960, Note_on_c, 0, 55, 0
4, 42960, Control_c, 0, 64, 0
4, 42960, Note_on_c, 0, 63, 75
4, 43200, Note_on_c, 0, 63, 0
4, 43200, Control_c, 0, 64, 127
4, 43200, Note_on_c, 0, 62, 75
4, 43920, Note_on_c, 0, 62, 0
4, 43920, Note_on_c, 0, 57, 75
4, 44160, Note_on_c, 0, 57, 0
4, 44160, Note_on_c, 0, 58, 75
4, 44400, Note_on_c, 0, 58, 0
4, 44400, Control_c, 0, 64, 0
4, 44400, Note_on_c, 0, 60, 75
4, 44640, Note_on_c, 0, 60, 0
4, 44640, Note_on_c, 0, 62, 75
4, 46080, Note_on_c, 0, 62, 0
4, 46320, Note_on_c, 0, 58, 62
4, 46560, Note_on_c, 0, 58, 0
4, 46560, Note_on_c, 0, 53, 62
4, 46800, Note_on_c, 0, 53, 0
4, 46800, Note_on_c, 0, 58, 62
4, 47040, Note_on_c, 0, 58, 0
4, 47040, Note_on_c, 0, 53, 62
4, 47280, Note_on_c, 0, 53, 0
4, 47280, Note_on_c, 0, 58, 62
4, 47520, Note_on_c, 0, 58, 0
4, 47520, Note_on_c, 0, 55, 62
4, 47760, Note_on_c, 0, 55, 0
4, 47760, Note_on_c, 0, 60, 62
4, 48000, Note_on_c, 0, 60, 0
4, 48000, Note_on_c, 0, 53, 62
4, 48240, Note_on_c, 0, 53, 0
4, 48240, Note_on_c, 0, 60, 62
4, 48480, Note_on_c, 0, 60, 0
4, 48480, Note_on_c, 0, 53, 62
4, 48720, Note_on_c, 0, 53, 0
4, 48720, Note_on_c, 0, 60, 62
4, 48960, Note_on_c, 0, 60, 0
4, 48960, Note_on_c, 0, 50, 62
4, 49200, Note_on_c, 0, 50, 0
4, 49200, Note_on_c, 0, 60, 62
4, 49440, Note_on_c, 0, 60, 0
4, 49440, Note_on_c, 0, 50, 62
4, 49680, Note_on_c, 0, 50, 0
4, 49680, Note_on_c, 0, 59, 62
4, 49920, Note_on_c, 0, 59, 0
4, 49920, Note_on_c, 0, 50, 62
4, 50160, Note_on_c, 0, 50, 0
4, 50160, Note_on_c, 0, 59, 62
4, 50400, Note_on_c, 0, 59, 0
4, 50640, Note_on_c, 0, 60, 62
4, 50880, Note_on_c, 0, 60, 0
4, 50880, Note_on_c, 0, 55, 62
4, 51120, Note_on_c, 0, 55, 0
4, 51120, Note_on_c, 0, 60, 62
4, 51360, Note_on_c, 0, 60, 0
4, 51360, Note_on_c, 0, 55, 62
4, 51600, Note_on_c, 0, 55, 0
4, 51600, Note_on_c, 0, 60, 62
4, 51840, Note_on_c, 0, 60, 0
4, 52080, Note_on_c, 0, 60, 62
4, 52320, Note_on_c, 0, 60, 0
4, 52320, Note_on_c, 0, 55, 62
4, 52560, Note_on_c, 0, 55, 0
4, 52560, Note_on_c, 0, 60, 62
4, 52800, Note_on_c, 0, 60, 0
4, 52800, Note_on_c, 0, 55, 62
4, 53040, Note_on_c, 0, 55, 0
4, 53040, Note_on_c, 0, 60, 62
4, 53280, Note_on_c, 0, 60, 0
4, 53280, Note_on_c, 0, 60, 62
4, 53520, Note_on_c, 0, 60, 0
4, 53520, Note_on_c, 0, 57, 62
4, 53760, Note_on_c, 0, 57, 0
4, 53760, Note_on_c, 0, 60, 62
4, 54000, Note_on_c, 0, 60, 0
4, 54000, Note_on_c, 0, 53, 62
4, 54240, Note_on_c, 0, 53, 0
4, 54240, Note_on_c, 0, 58, 62
4, 54480, Note_on_c, 0, 58, 0
4, 54480, Note_on_c, 0, 53, 62
4, 54720, Note_on_c, 0, 53, 0
4, 54960, Note_on_c, 0, 60, 62
4, 55200, Note_on_c, 0, 60, 0
4, 55200, Note_on_c, 0, 55, 62
4, 55440, Note_on_c, 0, 55, 0
4, 55440, Note_on_c, 0, 60, 62
4, 55680, Note_on_c, 0, 60, 0
4, 55680, Note_on_c, 0, 55, 62
4, 55920, Note_on_c, 0, 55, 0
4, 55920, Note_on_c, 0, 60, 62
4, 56160, Note_on_c, 0, 60, 0
4, 56400, Note_on_c, 0, 60, 62
4, 56640, Note_on_c, 0, 60, 0
4, 56640, Note_on_c, 0, 57, 62
4, 56880, Note_on_c, 0, 57, 0
4, 56880, Note_on_c, 0, 60, 62
4, 57120, Note_on_c, 0, 60, 0
4, 57120, Note_on_c, 0, 57, 62
4, 57360, Note_on_c, 0, 57, 0
4, 57360, Note_on_c, 0, 60, 62
4, 57600, Note_on_c, 0, 60, 0
4, 57840, Note_on_c, 0, 58, 62
4, 58080, Note_on_c, 0, 58, 0
4, 58080, Note_on_c, 0, 53, 62
4, 58320, Note_on_c, 0, 53, 0
4, 58320, Note_on_c, 0, 58, 62
4, 58560, Note_on_c, 0, 58, 0
4, 58560, Note_on_c, 0, 53, 62
4, 58800, Note_on_c, 0, 53, 0
4, 58800, Note_on_c, 0, 58, 62
4, 59040, Note_on_c, 0, 58, 0
4, 59040, Note_on_c, 0, 55, 62
4, 59280, Note_on_c, 0, 55, 0
4, 59280, Note_on_c, 0, 60, 62
4, 59520, Note_on_c, 0, 60, 0
4, 59520, Note_on_c, 0, 53, 62
4, 59760, Note_on_c, 0, 53, 0
4, 59760, Note_on_c, 0, 60, 62
4, 60000, Note_on_c, 0, 60, 0
4, 60000, Note_on_c, 0, 53, 62
4, 60240, Note_on_c, 0, 53, 0
4, 60240, Note_on_c, 0, 60, 62
4, 60480, Note_on_c, 0, 60, 0
4, 60480, Note_on_c, 0, 50, 62
4, 60720, Note_on_c, 0, 50, 0
4, 60720, Note_on_c, 0, 60, 62
4, 60960, Note_on_c, 0, 60, 0
4, 60960, Note_on_c, 0, 50, 62
4, 61200, Note_on_c, 0, 50, 0
4, 61200, Note_on_c, 0, 59, 62
4, 61440, Note_on_c, 0, 59, 0
4, 61440, Note_on_c, 0, 50, 62
4, 61680, Note_on_c, 0, 50, 0
4, 61680, Note_on_c, 0, 59, 62
4, 61920, Note_on_c, 0, 59, 0
4, 62160, Note_on_c, 0, 60, 62
4, 62400, Note_on_c, 0, 60, 0
4, 62400, Note_on_c, 0, 55, 62
4, 62640, Note_on_c, 0, 55, 0
4, 62640, Note_on_c, 0, 60, 62
4, 62880, Note_on_c, 0, 60, 0
4, 62880, Note_on_c, 0, 55, 62
4, 63120, Note_on_c, 0, 55, 0
4, 63120, Note_on_c, 0, 60, 62
4, 63360, Note_on_c, 0, 60, 0
4, 63600, Note_on_c, 0, 55, 62
4, 63840, Note_on_c, 0, 55, 0
4, 63840, Note_on_c, 0, 60, 62
4, 64080, Note_on_c, 0, 60, 0
4, 64080, Note_on_c, 0, 55, 62
4, 64320, Note_on_c, 0, 55, 0
4, 64320, Note_on_c, 0, 60, 62
4, 64560, Note_on_c, 0, 60, 0
4, 64560, Note_on_c, 0, 55, 62
4, 64800, Note_on_c, 0, 55, 0
4, 65040, Note_on_c, 0, 62, 62
4, 65280, Note_on_c, 0, 62, 0
4, 65280, Note_on_c, 0, 54, 62
4, 65520, Note_on_c, 0, 54, 0
4, 65520, Note_on_c, 0, 62, 62
4, 65760, Note_on_c, 0, 62, 0
4, 65760, Note_on_c, 0, 55, 62
4, 66000, Note_on_c, 0, 55, 0
4, 66000, Note_on_c, 0, 60, 62
4, 66240, Note_on_c, 0, 60, 0
4, 66480, Note_on_c, 0, 62, 62
4, 66720, Note_on_c, 0, 62, 0
4, 66720, Note_on_c, 0, 57, 62
4, 66960, Note_on_c, 0, 57, 0
4, 66960, Note_on_c, 0, 62, 62
4, 67200, Note_on_c, 0, 62, 0
4, 67200, Note_on_c, 0, 55, 62
4, 67440, Note_on_c, 0, 55, 0
4, 67440, Note_on_c, 0, 58, 62
4, 67680, Note_on_c, 0, 58, 0
4, 67680, Note_on_c, 0, 54, 62
4, 67680, Note_on_c, 0, 57, 62
4, 67920, Note_on_c, 0, 57, 0
4, 67920, Note_on_c, 0, 54, 0
4, 67920, Note_on_c, 0, 62, 62
4, 68160, Note_on_c, 0, 62, 0
4, 68160, Note_on_c, 0, 54, 62
4, 68160, Note_on_c, 0, 57, 62
4, 68400, Note_on_c, 0, 57, 0
4, 68400, Note_on_c, 0, 54, 0
4, 68400, Note_on_c, 0, 62, 62
4, 68640, Note_on_c, 0, 62, 0
4, 68640, Note_on_c, 0, 54, 62
4, 68640, Note_on_c, 0, 57, 62
4, 68880, Note_on_c, 0, 57, 0
4, 68880, Note_on_c, 0, 54, 0
4, 68880, Note_on_c, 0, 62, 62
4, 69120, Note_on_c, 0, 62, 0
4, 69360, Note_on_c, 0, 58, 49
4, 69360, Note_on_c, 0, 62, 49
4, 69407, Note_on_c, 0, 62, 0
4, 69407, Note_on_c, 0, 58, 0
4, 69600, Note_on_c, 0, 62, 49
4, 69600, Note_on_c, 0, 66, 49
4, 69647, Note_on_c, 0, 66, 0
4, 69647, Note_on_c, 0, 62, 0
4, 69840, Note_on_c, 0, 57, 49
4, 69840, Note_on_c, 0, 62, 49
4, 69840, Note_on_c, 0, 66, 49
4, 69887, Note_on_c, 0, 66, 0
4, 69887, Note_on_c, 0, 62, 0
4, 69887, Note_on_c, 0, 57, 0
4, 70080, Note_on_c, 0, 54, 49
4, 70080, Note_on_c, 0, 57, 49
4, 70080, Note_on_c, 0, 62, 49
4, 70176, Note_on_c, 0, 62, 0
4, 70176, Note_on_c, 0, 57, 0
4, 70176, Note_on_c, 0, 54, 0
4, 70560, Note_on_c, 0, 55, 75
4, 71040, Note_on_c, 0, 55, 0
4, 71040, Note_on_c, 0, 57, 75
4, 72000, Note_on_c, 0, 57, 0
4, 72000, Note_on_c, 0, 58, 75
4, 72360, Note_on_c, 0, 58, 0
4, 72360, Note_on_c, 0, 57, 49
4, 72420, Note_on_c, 0, 57, 0
4, 72420, Note_on_c, 0, 55, 49
4, 72480, Note_on_c, 0, 55, 0
4, 72480, Note_on_c, 0, 54, 49
4, 73440, Note_on_c, 0, 54, 0
4, 73440, Note_on_c, 0, 55, 49
4, 73680, Note_on_c, 0, 55, 0
4, 73680, Note_on_c, 0, 62, 49
4, 73920, Note_on_c, 0, 62, 0
4, 73920, Note_on_c, 0, 58, 49
4, 74640, Note_on_c, 0, 58, 0
4, 74640, Note_on_c, 0, 57, 49
4, 74880, Note_on_c, 0, 57, 0
4, 74880, Note_on_c, 0, 55, 49
4, 75600, Note_on_c, 0, 55, 0
4, 75600, Note_on_c, 0, 50, 49
4, 75840, Note_on_c, 0, 50, 0
4, 75840, Note_on_c, 0, 52, 49
4, 76080, Note_on_c, 0, 52, 0
4, 76080, Note_on_c, 0, 54, 49
4, 76320, Note_on_c, 0, 54, 0
4, 76320, Note_on_c, 0, 55, 75
4, 76800, Note_on_c, 0, 55, 0
4, 76800, Note_on_c, 0, 57, 75
4, 77760, Note_on_c, 0, 57, 0
4, 77760, Note_on_c, 0, 58, 75
4, 78120, Note_on_c, 0, 58, 0
4, 78120, Note_on_c, 0, 57, 49
4, 78180, Note_on_c, 0, 57, 0
4, 78180, Note_on_c, 0, 55, 49
4, 78240, Note_on_c, 0, 55, 0
4, 78240, Note_on_c, 0, 54, 49
4, 79200, Note_on_c, 0, 54, 0
4, 79200, Control_c, 0, 64, 127
4, 79200, Note_on_c, 0, 55, 49
4, 79440, Note_on_c, 0, 55, 0
4, 79440, Note_on_c, 0, 62, 49
4, 79680, Note_on_c, 0, 62, 0
4, 79680, Note_on_c, 0, 58, 49
4, 79920, Note_on_c, 0, 58, 0
4, 79920, Note_on_c, 0, 57, 49
4, 80160, Note_on_c, 0, 57, 0
4, 80160, Control_c, 0, 64, 0
4, 80160, Note_on_c, 0, 55, 49
4, 80640, Note_on_c, 0, 55, 0
4, 80880, Note_on_c, 0, 54, 49
4, 80880, Note_on_c, 0, 57, 49
4, 80880, Note_on_c, 0, 62, 49
4, 80927, Note_on_c, 0, 62, 0
4, 80927, Note_on_c, 0, 57, 0
4, 80927, Note_on_c, 0, 54, 0
4, 81120, Note_on_c, 0, 54, 49
4, 81120, Note_on_c, 0, 57, 49
4, 81120, Note_on_c, 0, 62, 49
4, 81167, Note_on_c, 0, 62, 0
4, 81167, Note_on_c, 0, 57, 0
4, 81167, Note_on_c, 0, 54, 0
4, 81360, Note_on_c, 0, 57, 49
4, 81360, Note_on_c, 0, 62, 49
4, 81360, Note_on_c, 0, 66, 49
4, 81407, Note_on_c, 0, 66, 0
4, 81407, Note_on_c, 0, 62, 0
4, 81407, Note_on_c, 0, 57, 0
4, 81600, Note_on_c, 0, 62, 49
4, 81600, Note_on_c, 0, 66, 49
4, 81600, Note_on_c, 0, 69, 49
4, 81696, Note_on_c, 0, 69, 0
4, 81696, Note_on_c, 0, 66, 0
4, 81696, Note_on_c, 0, 62, 0
4, 82320, Note_on_c, 0, 50, 49
4, 82320, Note_on_c, 0, 55, 49
4, 82320, Note_on_c, 0, 58, 49
4, 82367, Note_on_c, 0, 58, 0
4, 82367, Note_on_c, 0, 55, 0
4, 82367, Note_on_c, 0, 50, 0
4, 82560, Note_on_c, 0, 55, 49
4, 82560, Note_on_c, 0, 58, 49
4, 82560, Note_on_c, 0, 62, 49
4, 82607, Note_on_c, 0, 62, 0
4, 82607, Note_on_c, 0, 58, 0
4, 82607, Note_on_c, 0, 55, 0
4, 82800, Note_on_c, 0, 58, 49
4, 82800, Note_on_c, 0, 62, 49
4, 82800, Note_on_c, 0, 67, 49
4, 82847, Note_on_c, 0, 67, 0
4, 82847, Note_on_c, 0, 62, 0
4, 82847, Note_on_c, 0, 58, 0
4, 83040, Note_on_c, 0, 62, 49
4, 83040, Note_on_c, 0, 67, 49
4, 83040, Note_on_c, 0, 70, 49
4, 83087, Note_on_c, 0, 70, 0
4, 83087, Note_on_c, 0, 67, 0
4, 83087, Note_on_c, 0, 62, 0
4, 84240, Note_on_c, 0, 57, 49
4, 84240, Note_on_c, 0, 62, 49
4, 84240, Note_on_c, 0, 66, 49
4, 84287, Note_on_c, 0, 66, 0
4, 84287, Note_on_c, 0, 62, 0
4, 84287, Note_on_c, 0, 57, 0
4, 84480, Note_on_c, 0, 62, 49
4, 84480, Note_on_c, 0, 66, 49
4, 84480, Note_on_c, 0, 69, 49
4, 84527, Note_on_c, 0, 69, 0
4, 84527, Note_on_c, 0, 66, 0
4, 84527, Note_on_c, 0, 62, 0
4, 85200, Note_on_c, 0, 50, 49
4, 85200, Note_on_c, 0, 55, 49
4, 85200, Note_on_c, 0, 62, 49
4, 85247, Note_on_c, 0, 62, 0
4, 85247, Note_on_c, 0, 55, 0
4, 85247, Note_on_c, 0, 50, 0
4, 85440, Note_on_c, 0, 55, 49
4, 85440, Note_on_c, 0, 62, 49
4, 85487, Note_on_c, 0, 62, 0
4, 85487, Note_on_c, 0, 55, 0
4, 85680, Note_on_c, 0, 58, 49
4, 85680, Note_on_c, 0, 62, 49
4, 85727, Note_on_c, 0, 62, 0
4, 85727, Note_on_c, 0, 58, 0
4, 85920, Note_on_c, 0, 62, 49
4, 86016, Note_on_c, 0, 62, 0
4, 86640, Note_on_c, 0, 54, 49
4, 86640, Note_on_c, 0, 57, 49
4, 86640, Note_on_c, 0, 62, 49
4, 86687, Note_on_c, 0, 62, 0
4, 86687, Note_on_c, 0, 57, 0
4, 86687, Note_on_c, 0, 54, 0
4, 86880, Note_on_c, 0, 54, 49
4, 86880, Note_on_c, 0, 57, 49
4, 86880, Note_on_c, 0, 62, 49
4, 86927, Note_on_c, 0, 62, 0
4, 86927, Note_on_c, 0, 57, 0
4, 86927, Note_on_c, 0, 54, 0
4, 87120, Note_on_c, 0, 57, 49
4, 87120, Note_on_c, 0, 62, 49
4, 87120, Note_on_c, 0, 66, 49
4, 87167, Note_on_c, 0, 66, 0
4, 87167, Note_on_c, 0, 62, 0
4, 87167, Note_on_c, 0, 57, 0
4, 87360, Note_on_c, 0, 62, 49
4, 87360, Note_on_c, 0, 66, 49
4, 87360, Note_on_c, 0, 69, 49
4, 87456, Note_on_c, 0, 69, 0
4, 87456, Note_on_c, 0, 66, 0
4, 87456, Note_on_c, 0, 62, 0
4, 88080, Note_on_c, 0, 50, 49
4, 88080, Note_on_c, 0, 55, 49
4, 88080, Note_on_c, 0, 58, 49
4, 88127, Note_on_c, 0, 58, 0
4, 88127, Note_on_c, 0, 55, 0
4, 88127, Note_on_c, 0, 50, 0
4, 88320, Note_on_c, 0, 55, 49
4, 88320, Note_on_c, 0, 58, 49
4, 88320, Note_on_c, 0, 62, 49
4, 88367, Note_on_c, 0, 62, 0
4, 88367, Note_on_c, 0, 58, 0
4, 88367, Note_on_c, 0, 55, 0
4, 88560, Note_on_c, 0, 58, 49
4, 88560, Note_on_c, 0, 62, 49
4, 88560, Note_on_c, 0, 67, 49
4, 88607, Note_on_c, 0, 67, 0
4, 88607, Note_on_c, 0, 62, 0
4, 88607, Note_on_c, 0, 58, 0
4, 88800, Note_on_c, 0, 62, 49
4, 88800, Note_on_c, 0, 67, 49
4, 88800, Note_on_c, 0, 70, 49
4, 88847, Note_on_c, 0, 70, 0
4, 88847, Note_on_c, 0, 67, 0
4, 88847, Note_on_c, 0, 62, 0
4, 89520, Note_on_c, 0, 54, 49
4, 89520, Note_on_c, 0, 57, 49
4, 89567, Note_on_c, 0, 57, 0
4, 89567, Note_on_c, 0, 54, 0
4, 89760, Note_on_c, 0, 57, 49
4, 89807, Note_on_c, 0, 57, 0
4, 90000, Note_on_c, 0, 48, 49
4, 90000, Note_on_c, 0, 51, 49
4, 90047, Note_on_c, 0, 51, 0
4, 90047, Note_on_c, 0, 48, 0
4, 90240, Note_on_c, 0, 50, 49
4, 90240, Note_on_c, 0, 54, 49
4, 90240, Note_on_c, 0, 57, 49
4, 90287, Note_on_c, 0, 57, 0
4, 90287, Note_on_c, 0, 54, 0
4, 90287, Note_on_c, 0, 50, 0
4, 90960, Note_on_c, 0, 50, 49
4, 90960, Note_on_c, 0, 55, 49
4, 90960, Note_on_c, 0, 58, 49
4, 91007, Note_on_c, 0, 58, 0
4, 91007, Note_on_c, 0, 55, 0
4, 91007, Note_on_c, 0, 50, 0
4, 91200, Note_on_c, 0, 55, 49
4, 91200, Note_on_c, 0, 58, 49
4, 91200, Note_on_c, 0, 62, 49
4, 91247, Note_on_c, 0, 62, 0
4, 91247, Note_on_c, 0, 58, 0
4, 91247, Note_on_c, 0, 55, 0
4, 91440, Note_on_c, 0, 58, 49
4, 91440, Note_on_c, 0, 62, 49
4, 91440, Note_on_c, 0, 67, 49
4, 91487, Note_on_c, 0, 67, 0
4, 91487, Note_on_c, 0, 62, 0
4, 91487, Note_on_c, 0, 58, 0
4, 91680, Note_on_c, 0, 62, 49
4, 91680, Note_on_c, 0, 67, 49
4, 91680, Note_on_c, 0, 70, 49
4, 91727, Note_on_c, 0, 70, 0
4, 91727, Note_on_c, 0, 67, 0
4, 91727, Note_on_c, 0, 62, 0
4, 92550, Note_on_c, 0, 55, 49
4, 92580, Note_on_c, 0, 60, 49
4, 92610, Note_on_c, 0, 63, 49
4, 92640, Note_on_c, 0, 69, 49
4, 93120, Note_on_c, 0, 69, 0
4, 93120, Note_on_c, 0, 55, 0
4, 93120, Note_on_c, 0, 60, 0
4, 93120, Note_on_c, 0, 63, 0
4, 94000, Note_on_c, 0, 55, 49
4, 94040, Note_on_c, 0, 62, 49
4, 94080, Note_on_c, 0, 70, 49
4, 94320, Note_on_c, 0, 70, 0
4, 94320, Note_on_c, 0, 62, 0
4, 94320, Note_on_c, 0, 55, 0
4, 94560, Note_on_c, 0, 67, 49
4, 94560, Note_on_c, 0, 74, 49
4, 94800, Note_on_c, 0, 74, 0
4, 94800, Note_on_c, 0, 67, 0
4, 95430, Note_on_c, 0, 43, 49
4, 95460, Note_on_c, 0, 48, 49
4, 95490, Note_on_c, 0, 51, 49
4, 95520, Note_on_c, 0, 57, 49
4, 96000, Note_on_c, 0, 57, 0
4, 96000, Note_on_c, 0, 43, 0
4, 96000, Note_on_c, 0, 48, 0
4, 96000, Note_on_c, 0, 51, 0
4, 96960, Note_on_c, 0, 43, 49
4, 96960, Note_on_c, 0, 55, 49
4, 97440, Note_on_c, 0, 55, 0
4, 97440, Note_on_c, 0, 43, 0
4, 97440, Note_on_c, 0, 43, 49
4, 97440, Note_on_c, 0, 55, 49
4, 97920, Note_on_c, 0, 55, 0
4, 97920, Note_on_c, 0, 43, 0
4, 98400, Note_on_c, 0, 43, 49
4, 98400, Note_on_c, 0, 55, 49
4, 98880, Note_on_c, 0, 55, 0
4, 98880, Note_on_c, 0, 43, 0
4, 98880, Note_on_c, 0, 43, 49
4, 98880, Note_on_c, 0, 55, 49
4, 99360, Note_on_c, 0, 55, 0
4, 99360, Note_on_c, 0, 43, 0
4, 99840, Note_on_c, 0, 43, 49
4, 99840, Note_on_c, 0, 55, 49
4, 100320, Note_on_c, 0, 55, 0
4, 100320, Note_on_c, 0, 43, 0
4, 102240, Control_c, 0, 64, 127
4, 102240, Note_on_c, 0, 51, 49
4, 102480, Note_on_c, 0, 51, 0
4, 102480, Note_on_c, 0, 50, 49
4, 102720, Note_on_c, 0, 50, 0
4, 102720, Note_on_c, 0, 46, 49
4, 102960, Note_on_c, 0, 46, 0
4, 102960, Note_on_c, 0, 45, 49
4, 103200, Note_on_c, 0, 45, 0
4, 103200, Note_on_c, 0, 43, 49
4, 103440, Note_on_c, 0, 43, 0
4, 103440, Control_c, 0, 64, 0
4, 103440, Note_on_c, 0, 38, 49
4, 103680, Note_on_c, 0, 38, 0
4, 104160, Note_on_c, 0, 55, 49
4, 104160, Note_on_c, 0, 62, 49
4, 104160, Note_on_c, 0, 69, 49
4, 105120, Note_on_c, 0, 69, 0
4, 105120, Note_on_c, 0, 62, 0
4, 105120, Note_on_c, 0, 55, 0
4, 105120, Note_on_c, 0, 55, 49
4, 105120, Note_on_c, 0, 62, 49
4, 105120, Note_on_c, 0, 67, 49
4, 108960, Note_on_c, 0, 67, 0
4, 108960, Note_on_c, 0, 62, 0
4, 108960, Note_on_c, 0, 55, 0
4, 108960, End_track
5, 0, Start_track
5, 0, Title_t, "Grand Piano"
5, 0, Program_c, 0, 0
5, 0, Control_c, 0, 7, 115
5, 0, Control_c, 0, 10, 47
5, 0, Note_on_c, 0, 43, 49
5, 0, Note_on_c, 0, 50, 49
5, 1440, Note_on_c, 0, 50, 0
5, 1440, Note_on_c, 0, 43, 0
5, 1440, Note_on_c, 0, 43, 49
5, 1440, Note_on_c, 0, 50, 49
5, 2880, Note_on_c, 0, 50, 0
5, 2880, Note_on_c, 0, 43, 0
5, 2880, Note_on_c, 0, 43, 49
5, 2880, Note_on_c, 0, 50, 49
5, 4320, Note_on_c, 0, 50, 0
5, 4320, Note_on_c, 0, 43, 0
5, 4320, Note_on_c, 0, 43, 49
5, 4320, Note_on_c, 0, 50, 49
5, 5760, Note_on_c, 0, 50, 0
5, 5760, Note_on_c, 0, 43, 0
5, 5760, Note_on_c, 0, 43, 49
5, 5760, Note_on_c, 0, 50, 49
5, 7200, Note_on_c, 0, 50, 0
5, 7200, Note_on_c, 0, 43, 0
5, 7200, Note_on_c, 0, 43, 49
5, 7200, Note_on_c, 0, 50, 49
5, 8640, Note_on_c, 0, 50, 0
5, 8640, Note_on_c, 0, 43, 0
5, 8640, Note_on_c, 0, 43, 49
5, 8640, Note_on_c, 0, 50, 49
5, 10080, Note_on_c, 0, 50, 0
5, 10080, Note_on_c, 0, 43, 0
5, 10080, Note_on_c, 0, 43, 49
5, 10080, Note_on_c, 0, 50, 49
5, 11520, Note_on_c, 0, 50, 0
5, 11520, Note_on_c, 0, 43, 0
5, 11520, Note_on_c, 0, 43, 49
5, 11520, Note_on_c, 0, 50, 49
5, 12960, Note_on_c, 0, 50, 0
5, 12960, Note_on_c, 0, 43, 0
5, 12960, Note_on_c, 0, 43, 49
5, 12960, Note_on_c, 0, 50, 49
5, 14400, Note_on_c, 0, 50, 0
5, 14400, Note_on_c, 0, 43, 0
5, 14400, Note_on_c, 0, 43, 49
5, 14400, Note_on_c, 0, 50, 49
5, 15840, Note_on_c, 0, 50, 0
5, 15840, Note_on_c, 0, 43, 0
5, 15840, Note_on_c, 0, 43, 49
5, 15840, Note_on_c, 0, 50, 49
5, 17280, Note_on_c, 0, 50, 0
5, 17280, Note_on_c, 0, 43, 0
5, 17280, Note_on_c, 0, 43, 49
5, 17280, Note_on_c, 0, 50, 49
5, 18720, Note_on_c, 0, 50, 0
5, 18720, Note_on_c, 0, 43, 0
5, 18720, Note_on_c, 0, 43, 49
5, 18720, Note_on_c, 0, 50, 49
5, 20160, Note_on_c, 0, 50, 0
5, 20160, Note_on_c, 0, 43, 0
5, 20160, Note_on_c, 0, 43, 49
5, 20160, Note_on_c, 0, 50, 49
5, 21600, Note_on_c, 0, 50, 0
5, 21600, Note_on_c, 0, 43, 0
5, 21600, Note_on_c, 0, 43, 49
5, 21600, Note_on_c, 0, 50, 49
5, 23040, Note_on_c, 0, 50, 0
5, 23040, Note_on_c, 0, 43, 0
5, 23040, Note_on_c, 0, 46, 62
5, 25440, Note_on_c, 0, 46, 0
5, 25440, Note_on_c, 0, 45, 62
5, 25920, Note_on_c, 0, 45, 0
5, 27360, Note_on_c, 0, 48, 62
5, 28800, Note_on_c, 0, 48, 0
5, 28800, Note_on_c, 0, 39, 62
5, 30240, Note_on_c, 0, 39, 0
5, 30240, Note_on_c, 0, 41, 62
5, 30720, Note_on_c, 0, 41, 0
5, 30720, Note_on_c, 0, 51, 62
5, 31200, Note_on_c, 0, 51, 0
5, 31200, Note_on_c, 0, 50, 62
5, 31680, Note_on_c, 0, 50, 0
5, 31680, Note_on_c, 0, 48, 62
5, 32640, Note_on_c, 0, 48, 0
5, 32640, Note_on_c, 0, 51, 62
5, 33120, Note_on_c, 0, 51, 0
5, 33120, Note_on_c, 0, 53, 62
5, 34560, Note_on_c, 0, 53, 0
5, 34560, Note_on_c, 0, 46, 62
5, 36960, Note_on_c, 0, 46, 0
5, 36960, Note_on_c, 0, 45, 62
5, 37440, Note_on_c, 0, 45, 0
5, 38880, Note_on_c, 0, 48, 62
5, 40320, Note_on_c, 0, 48, 0
5, 40320, Note_on_c, 0, 39, 62
5, 41760, Note_on_c, 0, 39, 0
5, 41760, Note_on_c, 0, 50, 62
5, 42720, Note_on_c, 0, 50, 0
5, 42720, Note_on_c, 0, 51, 62
5, 42960, Note_on_c, 0, 51, 0
5, 42960, Note_on_c, 0, 48, 62
5, 43200, Note_on_c, 0, 48, 0
5, 43200, Note_on_c, 0, 50, 62
5, 44640, Note_on_c, 0, 50, 0
5, 45120, Note_on_c, 0, 66, 62
5, 45167, Note_on_c, 0, 66, 0
5, 45360, Note_on_c, 0, 62, 62
5, 45407, Note_on_c, 0, 62, 0
5, 45600, Note_on_c, 0, 66, 62
5, 45647, Note_on_c, 0, 66, 0
5, 45840, Note_on_c, 0, 62, 62
5, 45887, Note_on_c, 0, 62, 0
5, 46080, Note_on_c, 0, 34, 62
5, 46080, Note_on_c, 0, 46, 62
5, 46560, Note_on_c, 0, 46, 0
5, 46560, Note_on_c, 0, 34, 0
5, 46560, Note_on_c, 0, 46, 62
5, 47040, Note_on_c, 0, 46, 0
5, 47520, Note_on_c, 0, 46, 62
5, 48000, Note_on_c, 0, 46, 0
5, 48000, Note_on_c, 0, 46, 62
5, 48480, Note_on_c, 0, 46, 0
5, 48480, Note_on_c, 0, 45, 62
5, 48960, Note_on_c, 0, 45, 0
5, 48960, Note_on_c, 0, 44, 62
5, 49440, Note_on_c, 0, 44, 0
5, 49440, Note_on_c, 0, 43, 62
5, 49920, Note_on_c, 0, 43, 0
5, 49920, Note_on_c, 0, 43, 62
5, 50400, Note_on_c, 0, 43, 0
5, 50400, Note_on_c, 0, 36, 62
5, 50400, Note_on_c, 0, 48, 62
5, 50880, Note_on_c, 0, 48, 0
5, 50880, Note_on_c, 0, 36, 0
5, 50880, Note_on_c, 0, 48, 62
5, 51360, Note_on_c, 0, 48, 0
5, 51840, Note_on_c, 0, 39, 62
5, 51840, Note_on_c, 0, 51, 62
5, 52320, Note_on_c, 0, 51, 0
5, 52320, Note_on_c, 0, 39, 0
5, 52320, Note_on_c, 0, 51, 62
5, 53280, Note_on_c, 0, 51, 0
5, 53280, Note_on_c, 0, 53, 62
5, 53760, Note_on_c, 0, 53, 0
5, 53760, Note_on_c, 0, 51, 62
5, 54240, Note_on_c, 0, 51, 0
5, 54240, Note_on_c, 0, 50, 62
5, 54720, Note_on_c, 0, 50, 0
5, 54720, Note_on_c, 0, 36, 62
5, 54720, Note_on_c, 0, 48, 62
5, 55200, Note_on_c, 0, 48, 0
5, 55200, Note_on_c, 0, 36, 0
5, 55200, Note_on_c, 0, 48, 62
5, 55200, Note_on_c, 0, 51, 62
5, 55680, Note_on_c, 0, 51, 0
5, 55680, Note_on_c, 0, 48, 0
5, 55680, Note_on_c, 0, 51, 62
5, 56160, Note_on_c, 0, 51, 0
5, 56160, Note_on_c, 0, 41, 62
5, 56160, Note_on_c, 0, 53, 62
5, 56640, Note_on_c, 0, 53, 0
5, 56640, Note_on_c, 0, 41, 0
5, 56640, Note_on_c, 0, 53, 62
5, 57120, Note_on_c, 0, 53, 0
5, 57120, Note_on_c, 0, 53, 62
5, 57600, Note_on_c, 0, 53, 0
5, 57600, Note_on_c, 0, 34, 62
5, 57600, Note_on_c, 0, 46, 62
5, 58080, Note_on_c, 0, 46, 0
5, 58080, Note_on_c, 0, 34, 0
5, 58080, Note_on_c, 0, 46, 62
5, 58560, Note_on_c, 0, 46, 0
5, 59040, Note_on_c, 0, 46, 62
5, 59520, Note_on_c, 0, 46, 0
5, 59520, Note_on_c, 0, 46, 62
5, 60000, Note_on_c, 0, 46, 0
5, 60000, Note_on_c, 0, 45, 62
5, 60480, Note_on_c, 0, 45, 0
5, 60480, Note_on_c, 0, 44, 62
5, 60960, Note_on_c, 0, 44, 0
5, 60960, Note_on_c, 0, 43, 62
5, 61440, Note_on_c, 0, 43, 0
5, 61440, Note_on_c, 0, 43, 62
5, 61920, Note_on_c, 0, 43, 0
5, 61920, Note_on_c, 0, 36, 62
5, 61920, Note_on_c, 0, 48, 62
5, 62400, Note_on_c, 0, 48, 0
5, 62400, Note_on_c, 0, 36, 0
5, 62400, Note_on_c, 0, 48, 62
5, 62880, Note_on_c, 0, 48, 0
5, 63360, Note_on_c, 0, 39, 62
5, 63360, Note_on_c, 0, 51, 62
5, 63840, Note_on_c, 0, 51, 0
5, 63840, Note_on_c, 0, 39, 0
5, 63840, Note_on_c, 0, 51, 62
5, 64320, Note_on_c, 0, 51, 0
5, 64800, Note_on_c, 0, 38, 62
5, 64800, Note_on_c, 0, 50, 62
5, 65280, Note_on_c, 0, 50, 0
5, 65280, Note_on_c, 0, 38, 0
5, 65280, Note_on_c, 0, 50, 62
5, 65760, Note_on_c, 0, 50, 0
5, 65760, Note_on_c, 0, 51, 62
5, 66000, Note_on_c, 0, 51, 0
5, 66000, Note_on_c, 0, 48, 62
5, 66240, Note_on_c, 0, 48, 0
5, 66240, Note_on_c, 0, 38, 62
5, 66240, Note_on_c, 0, 50, 62
5, 66720, Note_on_c, 0, 50, 0
5, 66720, Note_on_c, 0, 38, 0
5, 66720, Note_on_c, 0, 50, 62
5, 66720, Note_on_c, 0, 54, 62
5, 67200, Note_on_c, 0, 54, 0
5, 67200, Note_on_c, 0, 50, 0
5, 67200, Note_on_c, 0, 50, 62
5, 67680, Note_on_c, 0, 50, 0
5, 67680, Note_on_c, 0, 50, 62
5, 68160, Note_on_c, 0, 50, 0
5, 68160, Note_on_c, 0, 50, 62
5, 68640, Note_on_c, 0, 50, 0
5, 69120, Note_on_c, 0, 43, 49
5, 69120, Note_on_c, 0, 50, 49
5, 70560, Note_on_c, 0, 50, 0
5, 70560, Note_on_c, 0, 43, 0
5, 70560, Note_on_c, 0, 43, 49
5, 70560, Note_on_c, 0, 50, 49
5, 72000, Note_on_c, 0, 50, 0
5, 72000, Note_on_c, 0, 43, 0
5, 72000, Note_on_c, 0, 43, 49
5, 72000, Note_on_c, 0, 50, 49
5, 73440, Note_on_c, 0, 50, 0
5, 73440, Note_on_c, 0, 43, 0
5, 73440, Note_on_c, 0, 43, 49
5, 73440, Note_on_c, 0, 50, 49
5, 74880, Note_on_c, 0, 50, 0
5, 74880, Note_on_c, 0, 43, 0
5, 74880, Note_on_c, 0, 43, 49
5, 74880, Note_on_c, 0, 50, 49
5, 76320, Note_on_c, 0, 50, 0
5, 76320, Note_on_c, 0, 43, 0
5, 76320, Note_on_c, 0, 43, 49
5, 76320, Note_on_c, 0, 50, 49
5, 77760, Note_on_c, 0, 50, 0
5, 77760, Note_on_c, 0, 43, 0
5, 77760, Note_on_c, 0, 43, 49
5, 77760, Note_on_c, 0, 50, 49
5, 79200, Note_on_c, 0, 50, 0
5, 79200, Note_on_c, 0, 43, 0
5, 79200, Note_on_c, 0, 43, 49
5, 79200, Note_on_c, 0, 50, 49
5, 80640, Note_on_c, 0, 50, 0
5, 80640, Note_on_c, 0, 43, 0
5, 80640, Note_on_c, 0, 31, 49
5, 80640, Note_on_c, 0, 43, 49
5, 82080, Note_on_c, 0, 43, 0
5, 82080, Note_on_c, 0, 31, 0
5, 82080, Note_on_c, 0, 31, 49
5, 82080, Note_on_c, 0, 43, 49
5, 83520, Note_on_c, 0, 43, 0
5, 83520, Note_on_c, 0, 31, 0
5, 83520, Note_on_c, 0, 55, 49
5, 84960, Note_on_c, 0, 55, 0
5, 84960, Note_on_c, 0, 31, 49
5, 84960, Note_on_c, 0, 43, 49
5, 86400, Note_on_c, 0, 43, 0
5, 86400, Note_on_c, 0, 31, 0
5, 86400, Note_on_c, 0, 31, 49
5, 86400, Note_on_c, 0, 43, 49
5, 87840, Note_on_c, 0, 43, 0
5, 87840, Note_on_c, 0, 31, 0
5, 87840, Note_on_c, 0, 31, 49
5, 87840, Note_on_c, 0, 43, 49
5, 89280, Note_on_c, 0, 43, 0
5, 89280, Note_on_c, 0, 31, 0
5, 89280, Note_on_c, 0, 31, 49
5, 89280, Note_on_c, 0, 43, 49
5, 90720, Note_on_c, 0, 43, 0
5, 90720, Note_on_c, 0, 31, 0
5, 90720, Note_on_c, 0, 31, 49
5, 90720, Note_on_c, 0, 43, 49
5, 92160, Note_on_c, 0, 43, 0
5, 92160, Note_on_c, 0, 31, 0
5, 103680, Note_on_c, 0, 31, 49
5, 103680, Note_on_c, 0, 43, 49
5, 105600, Note_on_c, 0, 43, 0
5, 105600, Note_on_c, 0, 31, 0
5, 105600, End_track
0, 0, End_of_file
