0, 0, Header, 1, 5, 480
1, 0, Start_track
1, 0, Title_t, "tchaikovsky swan lake act1 6 pas d'action"
1, 0, Copyright_t, "Adaptation for Disklavier pianos, by: Robert C. Kuhmann (c) 2012."
1, 0, Text_t, "Seq. (c) by: Segundo G. Yogore,  2007\012"
1, 0, Time_signature, 4, 2, 24, 8
1, 0, Key_signature, 4, "major"
1, 0, Tempo, 631579
1, 92160, Tempo, 521739
1, 96000, Time_signature, 5, 2, 24, 8
1, 98160, Tempo, 454545
1, 98400, Time_signature, 2, 2, 24, 8
1, 120480, Time_signature, 8, 2, 24, 8
1, 120480, End_track
2, 0, Start_track
2, 0, Title_t, "Grand Piano"
2, 0, Program_c, 0, 0
2, 0, Control_c, 0, 7, 115
2, 0, Control_c, 0, 10, 86
2, 960, Note_on_c, 0, 59, 54
2, 960, Note_on_c, 0, 64, 54
2, 960, Note_on_c, 0, 71, 54
2, 1440, Note_on_c, 0, 71, 0
2, 1440, Note_on_c, 0, 64, 0
2, 1440, Note_on_c, 0, 59, 0
2, 2880, Note_on_c, 0, 59, 54
2, 2880, Note_on_c, 0, 66, 54
2, 2880, Note_on_c, 0, 71, 54
2, 3360, Note_on_c, 0, 71, 0
2, 3360, Note_on_c, 0, 66, 0
2, 3360, Note_on_c, 0, 59, 0
2, 4800, Note_on_c, 0, 59, 54
2, 4800, Note_on_c, 0, 64, 54
2, 5280, Note_on_c, 0, 64, 0
2, 5280, Note_on_c, 0, 59, 0
2, 5760, Control_c, 0, 64, 127
2, 5760, Note_on_c, 0, 61, 67
2, 6000, Note_on_c, 0, 61, 0
2, 6000, Note_on_c, 0, 59, 67
2, 6240, Note_on_c, 0, 59, 0
2, 6240, Note_on_c, 0, 57, 80
2, 6480, Note_on_c, 0, 57, 0
2, 6480, Note_on_c, 0, 56, 80
2, 6720, Note_on_c, 0, 56, 0
2, 6720, Control_c, 0, 64, 0
2, 6720, Note_on_c, 0, 57, 80
2, 7200, Note_on_c, 0, 57, 0
2, 7200, Control_c, 0, 64, 127
2, 7200, Note_on_c, 0, 61, 80
2, 7680, Note_on_c, 0, 61, 0
2, 7680, Note_on_c, 0, 68, 80
2, 8160, Note_on_c, 0, 68, 0
2, 8160, Note_on_c, 0, 66, 80
2, 8640, Note_on_c, 0, 66, 0
2, 8640, Control_c, 0, 64, 0
2, 8640, Note_on_c, 0, 61, 80
2, 9120, Note_on_c, 0, 61, 0
2, 9120, Control_c, 0, 64, 127
2, 9120, Note_on_c, 0, 66, 80
2, 9600, Note_on_c, 0, 66, 0
2, 9600, Note_on_c, 0, 68, 80
2, 10080, Note_on_c, 0, 68, 0
2, 10080, Note_on_c, 0, 64, 80
2, 10560, Note_on_c, 0, 64, 0
2, 10560, Control_c, 0, 64, 0
2, 10560, Note_on_c, 0, 59, 80
2, 10880, Note_on_c, 0, 59, 0
2, 10880, Note_on_c, 0, 68, 80
2, 11199, Note_on_c, 0, 68, 0
2, 11199, Note_on_c, 0, 66, 80
2, 11520, Note_on_c, 0, 66, 0
2, 11520, Control_c, 0, 64, 127
2, 11520, Note_on_c, 0, 64, 80
2, 11760, Note_on_c, 0, 64, 0
2, 11760, Note_on_c, 0, 63, 80
2, 12000, Note_on_c, 0, 63, 0
2, 12000, Note_on_c, 0, 68, 80
2, 12240, Note_on_c, 0, 68, 0
2, 12240, Control_c, 0, 64, 0
2, 12240, Note_on_c, 0, 66, 80
2, 12480, Note_on_c, 0, 66, 0
2, 12480, Control_c, 0, 64, 127
2, 12480, Note_on_c, 0, 64, 80
2, 12720, Note_on_c, 0, 64, 0
2, 12720, Note_on_c, 0, 63, 80
2, 12960, Note_on_c, 0, 63, 0
2, 12960, Note_on_c, 0, 61, 80
2, 13200, Note_on_c, 0, 61, 0
2, 13200, Control_c, 0, 64, 0
2, 13200, Note_on_c, 0, 59, 80
2, 13440, Note_on_c, 0, 59, 0
2, 13440, Note_on_c, 0, 58, 80
2, 13760, Note_on_c, 0, 58, 0
2, 13760, Note_on_c, 0, 61, 80
2, 14079, Note_on_c, 0, 61, 0
2, 14079, Note_on_c, 0, 59, 80
2, 15360, Note_on_c, 0, 59, 0
2, 16320, Note_on_c, 0, 59, 54
2, 16320, Note_on_c, 0, 64, 54
2, 16800, Note_on_c, 0, 64, 0
2, 16800, Note_on_c, 0, 59, 0
2, 17280, Note_on_c, 0, 59, 80
2, 17280, Note_on_c, 0, 71, 80
2, 18240, Note_on_c, 0, 71, 0
2, 18240, Note_on_c, 0, 59, 0
2, 18240, Note_on_c, 0, 61, 67
2, 18240, Note_on_c, 0, 69, 67
2, 18240, Note_on_c, 0, 73, 67
2, 18960, Note_on_c, 0, 73, 0
2, 18960, Note_on_c, 0, 69, 0
2, 18960, Note_on_c, 0, 61, 0
2, 18960, Note_on_c, 0, 63, 67
2, 18960, Note_on_c, 0, 75, 67
2, 19200, Note_on_c, 0, 75, 0
2, 19200, Note_on_c, 0, 63, 0
2, 19200, Control_c, 0, 64, 127
2, 19200, Note_on_c, 0, 66, 67
2, 19200, Note_on_c, 0, 78, 67
2, 19440, Note_on_c, 0, 78, 0
2, 19440, Note_on_c, 0, 66, 0
2, 19440, Note_on_c, 0, 64, 67
2, 19440, Note_on_c, 0, 76, 67
2, 19680, Note_on_c, 0, 76, 0
2, 19680, Note_on_c, 0, 64, 0
2, 19680, Note_on_c, 0, 63, 67
2, 19680, Note_on_c, 0, 75, 67
2, 19920, Note_on_c, 0, 75, 0
2, 19920, Note_on_c, 0, 63, 0
2, 19920, Note_on_c, 0, 66, 67
2, 19920, Note_on_c, 0, 78, 67
2, 20160, Note_on_c, 0, 78, 0
2, 20160, Note_on_c, 0, 66, 0
2, 20160, Control_c, 0, 64, 0
2, 20160, Note_on_c, 0, 64, 67
2, 20160, Note_on_c, 0, 76, 67
2, 21120, Note_on_c, 0, 76, 0
2, 21120, Note_on_c, 0, 64, 0
2, 21120, Note_on_c, 0, 65, 80
2, 21120, Note_on_c, 0, 77, 80
2, 22080, Note_on_c, 0, 77, 0
2, 22080, Note_on_c, 0, 65, 0
2, 22080, Note_on_c, 0, 66, 80
2, 22080, Note_on_c, 0, 78, 80
2, 22800, Note_on_c, 0, 78, 0
2, 22800, Note_on_c, 0, 66, 0
2, 22800, Note_on_c, 0, 68, 80
2, 22800, Note_on_c, 0, 80, 80
2, 23040, Note_on_c, 0, 80, 0
2, 23040, Note_on_c, 0, 68, 0
2, 23040, Control_c, 0, 64, 127
2, 23040, Note_on_c, 0, 71, 67
2, 23040, Note_on_c, 0, 83, 67
2, 23280, Note_on_c, 0, 83, 0
2, 23280, Note_on_c, 0, 71, 0
2, 23280, Note_on_c, 0, 69, 67
2, 23280, Note_on_c, 0, 81, 67
2, 23520, Note_on_c, 0, 81, 0
2, 23520, Note_on_c, 0, 69, 0
2, 23520, Note_on_c, 0, 68, 67
2, 23520, Note_on_c, 0, 80, 67
2, 23760, Note_on_c, 0, 80, 0
2, 23760, Note_on_c, 0, 68, 0
2, 23760, Control_c, 0, 64, 0
2, 23760, Note_on_c, 0, 69, 67
2, 23760, Note_on_c, 0, 81, 67
2, 24000, Note_on_c, 0, 81, 0
2, 24000, Note_on_c, 0, 69, 0
2, 24000, Control_c, 0, 64, 127
2, 24000, Note_on_c, 0, 71, 80
2, 24000, Note_on_c, 0, 83, 80
2, 24240, Note_on_c, 0, 83, 0
2, 24240, Note_on_c, 0, 71, 0
2, 24240, Note_on_c, 0, 69, 80
2, 24240, Note_on_c, 0, 81, 80
2, 24480, Note_on_c, 0, 81, 0
2, 24480, Note_on_c, 0, 69, 0
2, 24480, Note_on_c, 0, 80, 80
2, 24720, Note_on_c, 0, 80, 0
2, 24720, Control_c, 0, 64, 0
2, 24720, Note_on_c, 0, 78, 80
2, 24960, Note_on_c, 0, 78, 0
2, 24960, Note_on_c, 0, 71, 80
2, 24960, Note_on_c, 0, 76, 80
2, 25200, Note_on_c, 0, 76, 0
2, 25200, Note_on_c, 0, 71, 0
2, 25920, Control_c, 0, 64, 127
2, 25920, Note_on_c, 0, 71, 80
2, 26160, Note_on_c, 0, 71, 0
2, 26160, Note_on_c, 0, 73, 80
2, 26400, Note_on_c, 0, 73, 0
2, 26400, Note_on_c, 0, 75, 80
2, 26640, Note_on_c, 0, 75, 0
2, 26640, Control_c, 0, 64, 0
2, 26640, Note_on_c, 0, 76, 80
2, 26880, Note_on_c, 0, 76, 0
2, 26880, Control_c, 0, 64, 127
2, 26880, Note_on_c, 0, 78, 80
2, 27360, Note_on_c, 0, 78, 0
2, 27360, Note_on_c, 0, 75, 80
2, 27840, Note_on_c, 0, 75, 0
2, 27840, Note_on_c, 0, 73, 80
2, 28320, Note_on_c, 0, 73, 0
2, 28320, Control_c, 0, 64, 0
2, 28320, Note_on_c, 0, 75, 80
2, 28800, Note_on_c, 0, 75, 0
2, 28800, Note_on_c, 0, 73, 80
2, 29120, Note_on_c, 0, 73, 0
2, 29120, Note_on_c, 0, 70, 80
2, 29439, Note_on_c, 0, 70, 0
2, 29439, Note_on_c, 0, 71, 80
2, 30720, Note_on_c, 0, 71, 0
2, 30720, Note_on_c, 0, 76, 93
2, 30720, Note_on_c, 0, 88, 93
2, 31680, Note_on_c, 0, 88, 0
2, 31680, Note_on_c, 0, 76, 0
2, 31680, Note_on_c, 0, 75, 67
2, 31680, Note_on_c, 0, 87, 67
2, 32160, Note_on_c, 0, 87, 0
2, 32160, Note_on_c, 0, 75, 0
2, 32160, Note_on_c, 0, 73, 67
2, 32160, Note_on_c, 0, 85, 67
2, 32640, Note_on_c, 0, 85, 0
2, 32640, Note_on_c, 0, 73, 0
2, 32640, Control_c, 0, 64, 127
2, 32640, Note_on_c, 0, 72, 67
2, 32640, Note_on_c, 0, 84, 67
2, 32880, Note_on_c, 0, 84, 0
2, 32880, Note_on_c, 0, 72, 0
2, 32880, Note_on_c, 0, 70, 67
2, 32880, Note_on_c, 0, 82, 67
2, 33120, Note_on_c, 0, 82, 0
2, 33120, Note_on_c, 0, 70, 0
2, 33120, Note_on_c, 0, 68, 67
2, 33120, Note_on_c, 0, 80, 67
2, 33360, Note_on_c, 0, 80, 0
2, 33360, Note_on_c, 0, 68, 0
2, 33360, Note_on_c, 0, 70, 67
2, 33360, Note_on_c, 0, 82, 67
2, 33600, Note_on_c, 0, 82, 0
2, 33600, Note_on_c, 0, 70, 0
2, 33600, Control_c, 0, 64, 0
2, 33600, Note_on_c, 0, 72, 67
2, 33600, Note_on_c, 0, 84, 67
2, 34560, Note_on_c, 0, 84, 0
2, 34560, Note_on_c, 0, 72, 0
2, 34560, Note_on_c, 0, 76, 93
2, 34560, Note_on_c, 0, 88, 93
2, 35520, Note_on_c, 0, 88, 0
2, 35520, Note_on_c, 0, 76, 0
2, 35520, Note_on_c, 0, 75, 67
2, 35520, Note_on_c, 0, 87, 67
2, 36000, Note_on_c, 0, 87, 0
2, 36000, Note_on_c, 0, 75, 0
2, 36000, Note_on_c, 0, 73, 67
2, 36000, Note_on_c, 0, 85, 67
2, 36480, Note_on_c, 0, 85, 0
2, 36480, Note_on_c, 0, 73, 0
2, 36480, Control_c, 0, 64, 127
2, 36480, Note_on_c, 0, 72, 67
2, 36480, Note_on_c, 0, 84, 67
2, 36720, Note_on_c, 0, 84, 0
2, 36720, Note_on_c, 0, 72, 0
2, 36720, Note_on_c, 0, 70, 67
2, 36720, Note_on_c, 0, 82, 67
2, 36960, Note_on_c, 0, 82, 0
2, 36960, Note_on_c, 0, 70, 0
2, 36960, Note_on_c, 0, 68, 67
2, 36960, Note_on_c, 0, 80, 67
2, 37200, Note_on_c, 0, 80, 0
2, 37200, Note_on_c, 0, 68, 0
2, 37200, Note_on_c, 0, 70, 67
2, 37200, Note_on_c, 0, 82, 67
2, 37440, Note_on_c, 0, 82, 0
2, 37440, Note_on_c, 0, 70, 0
2, 37440, Control_c, 0, 64, 0
2, 37440, Note_on_c, 0, 72, 67
2, 37440, Note_on_c, 0, 84, 67
2, 38400, Note_on_c, 0, 84, 0
2, 38400, Note_on_c, 0, 72, 0
2, 38400, Note_on_c, 0, 76, 93
2, 38400, Note_on_c, 0, 88, 93
2, 39360, Note_on_c, 0, 88, 0
2, 39360, Note_on_c, 0, 76, 0
2, 39360, Note_on_c, 0, 75, 67
2, 39360, Note_on_c, 0, 87, 67
2, 39840, Note_on_c, 0, 87, 0
2, 39840, Note_on_c, 0, 75, 0
2, 39840, Note_on_c, 0, 73, 67
2, 39840, Note_on_c, 0, 85, 67
2, 40320, Note_on_c, 0, 85, 0
2, 40320, Note_on_c, 0, 73, 0
2, 40320, Control_c, 0, 64, 127
2, 40320, Note_on_c, 0, 75, 67
2, 40320, Note_on_c, 0, 87, 67
2, 40560, Note_on_c, 0, 87, 0
2, 40560, Note_on_c, 0, 75, 0
2, 40560, Note_on_c, 0, 73, 67
2, 40560, Note_on_c, 0, 85, 67
2, 40800, Note_on_c, 0, 85, 0
2, 40800, Note_on_c, 0, 73, 0
2, 40800, Note_on_c, 0, 72, 67
2, 40800, Note_on_c, 0, 84, 67
2, 41040, Note_on_c, 0, 84, 0
2, 41040, Note_on_c, 0, 72, 0
2, 41040, Note_on_c, 0, 75, 67
2, 41040, Note_on_c, 0, 87, 67
2, 41280, Note_on_c, 0, 87, 0
2, 41280, Note_on_c, 0, 75, 0
2, 41280, Control_c, 0, 64, 0
2, 41280, Note_on_c, 0, 73, 67
2, 41280, Note_on_c, 0, 85, 67
2, 42240, Note_on_c, 0, 85, 0
2, 42240, Note_on_c, 0, 73, 0
2, 42240, Control_c, 0, 64, 127
2, 42240, Note_on_c, 0, 73, 67
2, 42240, Note_on_c, 0, 85, 67
2, 42720, Note_on_c, 0, 85, 0
2, 42720, Note_on_c, 0, 73, 0
2, 42720, Note_on_c, 0, 75, 67
2, 42720, Note_on_c, 0, 87, 67
2, 43200, Note_on_c, 0, 87, 0
2, 43200, Note_on_c, 0, 75, 0
2, 43200, Note_on_c, 0, 76, 80
2, 43200, Note_on_c, 0, 88, 80
2, 43680, Note_on_c, 0, 88, 0
2, 43680, Note_on_c, 0, 76, 0
2, 43680, Control_c, 0, 64, 0
2, 43680, Note_on_c, 0, 77, 80
2, 43680, Note_on_c, 0, 89, 80
2, 44160, Note_on_c, 0, 89, 0
2, 44160, Note_on_c, 0, 77, 0
2, 44160, Control_c, 0, 64, 127
2, 44160, Note_on_c, 0, 80, 80
2, 44160, Note_on_c, 0, 92, 80
2, 44640, Note_on_c, 0, 92, 0
2, 44640, Note_on_c, 0, 80, 0
2, 44640, Note_on_c, 0, 78, 80
2, 44640, Note_on_c, 0, 90, 80
2, 45120, Note_on_c, 0, 90, 0
2, 45120, Note_on_c, 0, 78, 0
2, 45120, Note_on_c, 0, 73, 67
2, 45120, Note_on_c, 0, 85, 67
2, 45600, Note_on_c, 0, 85, 0
2, 45600, Note_on_c, 0, 73, 0
2, 45600, Control_c, 0, 64, 0
2, 45600, Note_on_c, 0, 71, 67
2, 45600, Note_on_c, 0, 83, 67
2, 46080, Note_on_c, 0, 83, 0
2, 46080, Note_on_c, 0, 71, 0
2, 46080, Note_on_c, 0, 64, 67
2, 46080, Note_on_c, 0, 68, 67
2, 46080, Note_on_c, 0, 76, 67
2, 47040, Note_on_c, 0, 76, 0
2, 47040, Note_on_c, 0, 68, 0
2, 47040, Note_on_c, 0, 64, 0
2, 47040, Note_on_c, 0, 66, 67
2, 47040, Note_on_c, 0, 78, 67
2, 47760, Note_on_c, 0, 78, 0
2, 47760, Note_on_c, 0, 66, 0
2, 47760, Note_on_c, 0, 68, 67
2, 47760, Note_on_c, 0, 80, 67
2, 48000, Note_on_c, 0, 80, 0
2, 48000, Note_on_c, 0, 68, 0
2, 48000, Control_c, 0, 64, 127
2, 48000, Note_on_c, 0, 69, 67
2, 48000, Note_on_c, 0, 81, 67
2, 48240, Note_on_c, 0, 81, 0
2, 48240, Note_on_c, 0, 69, 0
2, 48240, Note_on_c, 0, 68, 67
2, 48240, Note_on_c, 0, 80, 67
2, 48480, Note_on_c, 0, 80, 0
2, 48480, Note_on_c, 0, 68, 0
2, 48480, Note_on_c, 0, 66, 67
2, 48480, Note_on_c, 0, 78, 67
2, 48720, Note_on_c, 0, 78, 0
2, 48720, Note_on_c, 0, 66, 0
2, 48720, Note_on_c, 0, 65, 67
2, 48720, Note_on_c, 0, 77, 67
2, 48960, Note_on_c, 0, 77, 0
2, 48960, Note_on_c, 0, 65, 0
2, 48960, Control_c, 0, 64, 0
2, 48960, Note_on_c, 0, 66, 67
2, 48960, Note_on_c, 0, 78, 67
2, 49920, Note_on_c, 0, 78, 0
2, 49920, Note_on_c, 0, 66, 0
2, 49920, Note_on_c, 0, 68, 67
2, 49920, Note_on_c, 0, 80, 67
2, 50880, Note_on_c, 0, 80, 0
2, 50880, Note_on_c, 0, 68, 0
2, 50880, Note_on_c, 0, 69, 80
2, 50880, Note_on_c, 0, 81, 80
2, 51600, Note_on_c, 0, 81, 0
2, 51600, Note_on_c, 0, 69, 0
2, 51600, Note_on_c, 0, 71, 80
2, 51600, Note_on_c, 0, 83, 80
2, 51840, Note_on_c, 0, 83, 0
2, 51840, Note_on_c, 0, 71, 0
2, 51840, Note_on_c, 0, 85, 80
2, 52080, Note_on_c, 0, 85, 0
2, 52080, Note_on_c, 0, 83, 80
2, 52320, Note_on_c, 0, 83, 0
2, 52320, Note_on_c, 0, 81, 80
2, 52560, Note_on_c, 0, 81, 0
2, 52560, Note_on_c, 0, 80, 80
2, 52800, Note_on_c, 0, 80, 0
2, 52800, Note_on_c, 0, 81, 80
2, 53280, Note_on_c, 0, 81, 0
2, 53280, Control_c, 0, 64, 127
2, 53280, Note_on_c, 0, 73, 80
2, 53760, Note_on_c, 0, 73, 0
2, 53760, Note_on_c, 0, 80, 80
2, 54240, Note_on_c, 0, 80, 0
2, 54240, Note_on_c, 0, 78, 80
2, 54720, Note_on_c, 0, 78, 0
2, 54720, Control_c, 0, 64, 0
2, 54720, Note_on_c, 0, 73, 80
2, 55200, Note_on_c, 0, 73, 0
2, 55200, Control_c, 0, 64, 127
2, 55200, Note_on_c, 0, 78, 80
2, 55680, Note_on_c, 0, 78, 0
2, 55680, Note_on_c, 0, 80, 80
2, 56160, Note_on_c, 0, 80, 0
2, 56160, Note_on_c, 0, 76, 80
2, 56640, Note_on_c, 0, 76, 0
2, 56640, Control_c, 0, 64, 0
2, 56640, Note_on_c, 0, 71, 80
2, 56960, Note_on_c, 0, 71, 0
2, 56960, Note_on_c, 0, 80, 80
2, 57279, Note_on_c, 0, 80, 0
2, 57279, Note_on_c, 0, 78, 80
2, 57600, Note_on_c, 0, 78, 0
2, 57600, Control_c, 0, 64, 127
2, 57600, Note_on_c, 0, 76, 80
2, 57840, Note_on_c, 0, 76, 0
2, 57840, Note_on_c, 0, 75, 80
2, 58080, Note_on_c, 0, 75, 0
2, 58080, Note_on_c, 0, 80, 80
2, 58320, Note_on_c, 0, 80, 0
2, 58320, Control_c, 0, 64, 0
2, 58320, Note_on_c, 0, 78, 80
2, 58560, Note_on_c, 0, 78, 0
2, 58560, Control_c, 0, 64, 127
2, 58560, Note_on_c, 0, 76, 80
2, 58800, Note_on_c, 0, 76, 0
2, 58800, Note_on_c, 0, 75, 80
2, 59040, Note_on_c, 0, 75, 0
2, 59040, Note_on_c, 0, 73, 80
2, 59280, Note_on_c, 0, 73, 0
2, 59280, Control_c, 0, 64, 0
2, 59280, Note_on_c, 0, 71, 80
2, 59520, Note_on_c, 0, 71, 0
2, 59520, Note_on_c, 0, 70, 80
2, 59840, Note_on_c, 0, 70, 0
2, 59840, Note_on_c, 0, 73, 80
2, 60159, Note_on_c, 0, 73, 0
2, 60159, Note_on_c, 0, 71, 80
2, 61440, Note_on_c, 0, 71, 0
2, 61440, Note_on_c, 0, 64, 67
2, 61440, Note_on_c, 0, 68, 67
2, 61440, Note_on_c, 0, 76, 67
2, 62400, Note_on_c, 0, 76, 0
2, 62400, Note_on_c, 0, 68, 0
2, 62400, Note_on_c, 0, 64, 0
2, 62400, Note_on_c, 0, 66, 67
2, 62400, Note_on_c, 0, 78, 67
2, 63120, Note_on_c, 0, 78, 0
2, 63120, Note_on_c, 0, 66, 0
2, 63120, Note_on_c, 0, 68, 67
2, 63120, Note_on_c, 0, 80, 67
2, 63360, Note_on_c, 0, 80, 0
2, 63360, Note_on_c, 0, 68, 0
2, 63360, Control_c, 0, 64, 127
2, 63360, Note_on_c, 0, 69, 67
2, 63360, Note_on_c, 0, 81, 67
2, 63600, Note_on_c, 0, 81, 0
2, 63600, Note_on_c, 0, 69, 0
2, 63600, Note_on_c, 0, 68, 67
2, 63600, Note_on_c, 0, 80, 67
2, 63840, Note_on_c, 0, 80, 0
2, 63840, Note_on_c, 0, 68, 0
2, 63840, Note_on_c, 0, 66, 67
2, 63840, Note_on_c, 0, 78, 67
2, 64080, Note_on_c, 0, 78, 0
2, 64080, Note_on_c, 0, 66, 0
2, 64080, Note_on_c, 0, 65, 67
2, 64080, Note_on_c, 0, 77, 67
2, 64320, Note_on_c, 0, 77, 0
2, 64320, Note_on_c, 0, 65, 0
2, 64320, Control_c, 0, 64, 0
2, 64320, Note_on_c, 0, 66, 67
2, 64320, Note_on_c, 0, 78, 67
2, 65280, Note_on_c, 0, 78, 0
2, 65280, Note_on_c, 0, 66, 0
2, 65280, Note_on_c, 0, 68, 67
2, 65280, Note_on_c, 0, 80, 67
2, 66240, Note_on_c, 0, 80, 0
2, 66240, Note_on_c, 0, 68, 0
2, 66240, Note_on_c, 0, 69, 80
2, 66240, Note_on_c, 0, 81, 80
2, 66960, Note_on_c, 0, 81, 0
2, 66960, Note_on_c, 0, 69, 0
2, 66960, Note_on_c, 0, 71, 80
2, 66960, Note_on_c, 0, 83, 80
2, 67200, Note_on_c, 0, 83, 0
2, 67200, Note_on_c, 0, 71, 0
2, 67200, Note_on_c, 0, 85, 80
2, 67440, Note_on_c, 0, 85, 0
2, 67440, Note_on_c, 0, 83, 80
2, 67680, Note_on_c, 0, 83, 0
2, 67680, Note_on_c, 0, 81, 80
2, 67920, Note_on_c, 0, 81, 0
2, 67920, Note_on_c, 0, 80, 80
2, 68160, Note_on_c, 0, 80, 0
2, 68160, Note_on_c, 0, 81, 80
2, 68640, Note_on_c, 0, 81, 0
2, 68640, Control_c, 0, 64, 127
2, 68640, Note_on_c, 0, 73, 80
2, 69120, Note_on_c, 0, 73, 0
2, 69120, Note_on_c, 0, 80, 80
2, 69600, Note_on_c, 0, 80, 0
2, 69600, Note_on_c, 0, 78, 80
2, 70080, Note_on_c, 0, 78, 0
2, 70080, Control_c, 0, 64, 0
2, 70080, Note_on_c, 0, 73, 80
2, 70560, Note_on_c, 0, 73, 0
2, 70560, Control_c, 0, 64, 127
2, 70560, Note_on_c, 0, 78, 80
2, 71040, Note_on_c, 0, 78, 0
2, 71040, Note_on_c, 0, 80, 80
2, 71520, Note_on_c, 0, 80, 0
2, 71520, Note_on_c, 0, 76, 80
2, 72000, Note_on_c, 0, 76, 0
2, 72000, Control_c, 0, 64, 0
2, 72000, Note_on_c, 0, 71, 80
2, 72320, Note_on_c, 0, 71, 0
2, 72320, Note_on_c, 0, 80, 80
2, 72639, Note_on_c, 0, 80, 0
2, 72639, Note_on_c, 0, 78, 80
2, 72960, Note_on_c, 0, 78, 0
2, 72960, Control_c, 0, 64, 127
2, 72960, Note_on_c, 0, 76, 80
2, 73200, Note_on_c, 0, 76, 0
2, 73200, Note_on_c, 0, 75, 80
2, 73440, Note_on_c, 0, 75, 0
2, 73440, Note_on_c, 0, 80, 80
2, 73680, Note_on_c, 0, 80, 0
2, 73680, Control_c, 0, 64, 0
2, 73680, Note_on_c, 0, 78, 80
2, 73920, Note_on_c, 0, 78, 0
2, 73920, Control_c, 0, 64, 127
2, 73920, Note_on_c, 0, 76, 80
2, 74160, Note_on_c, 0, 76, 0
2, 74160, Note_on_c, 0, 75, 80
2, 74400, Note_on_c, 0, 75, 0
2, 74400, Note_on_c, 0, 73, 80
2, 74640, Note_on_c, 0, 73, 0
2, 74640, Control_c, 0, 64, 0
2, 74640, Note_on_c, 0, 71, 80
2, 74880, Note_on_c, 0, 71, 0
2, 74880, Control_c, 0, 64, 127
2, 74880, Note_on_c, 0, 69, 80
2, 75120, Note_on_c, 0, 69, 0
2, 75120, Note_on_c, 0, 68, 80
2, 75360, Note_on_c, 0, 68, 0
2, 75360, Note_on_c, 0, 74, 80
2, 75600, Note_on_c, 0, 74, 0
2, 75600, Control_c, 0, 64, 0
2, 75600, Note_on_c, 0, 73, 80
2, 75840, Note_on_c, 0, 73, 0
2, 75840, Note_on_c, 0, 73, 80
2, 76080, Note_on_c, 0, 73, 0
2, 76320, Note_on_c, 0, 61, 67
2, 76320, Note_on_c, 0, 73, 67
2, 76800, Note_on_c, 0, 73, 0
2, 76800, Note_on_c, 0, 61, 0
2, 76800, Note_on_c, 0, 68, 67
2, 76800, Note_on_c, 0, 80, 67
2, 77280, Note_on_c, 0, 80, 0
2, 77280, Note_on_c, 0, 68, 0
2, 77280, Note_on_c, 0, 66, 67
2, 77280, Note_on_c, 0, 78, 67
2, 77760, Note_on_c, 0, 78, 0
2, 77760, Note_on_c, 0, 66, 0
2, 77760, Note_on_c, 0, 61, 67
2, 77760, Note_on_c, 0, 73, 67
2, 78720, Note_on_c, 0, 73, 0
2, 78720, Note_on_c, 0, 61, 0
2, 78720, Note_on_c, 0, 73, 67
2, 78720, Note_on_c, 0, 78, 67
2, 78720, Note_on_c, 0, 81, 67
2, 78720, Note_on_c, 0, 85, 67
2, 80160, Note_on_c, 0, 85, 0
2, 80160, Note_on_c, 0, 73, 0
2, 80160, Note_on_c, 0, 78, 0
2, 80160, Note_on_c, 0, 81, 0
2, 80160, Note_on_c, 0, 61, 67
2, 80160, Note_on_c, 0, 73, 67
2, 80640, Note_on_c, 0, 73, 0
2, 80640, Note_on_c, 0, 61, 0
2, 80640, Note_on_c, 0, 68, 67
2, 80640, Note_on_c, 0, 80, 67
2, 81120, Note_on_c, 0, 80, 0
2, 81120, Note_on_c, 0, 68, 0
2, 81120, Note_on_c, 0, 66, 67
2, 81120, Note_on_c, 0, 78, 67
2, 81600, Note_on_c, 0, 78, 0
2, 81600, Note_on_c, 0, 66, 0
2, 81600, Note_on_c, 0, 61, 67
2, 81600, Note_on_c, 0, 73, 67
2, 82560, Note_on_c, 0, 73, 0
2, 82560, Note_on_c, 0, 61, 0
2, 82560, Note_on_c, 0, 73, 67
2, 82560, Note_on_c, 0, 78, 67
2, 82560, Note_on_c, 0, 81, 67
2, 82560, Note_on_c, 0, 85, 67
2, 84000, Note_on_c, 0, 85, 0
2, 84000, Note_on_c, 0, 73, 0
2, 84000, Note_on_c, 0, 78, 0
2, 84000, Note_on_c, 0, 81, 0
2, 84000, Control_c, 0, 64, 127
2, 84000, Note_on_c, 0, 73, 67
2, 84480, Note_on_c, 0, 73, 0
2, 84480, Note_on_c, 0, 80, 67
2, 84960, Note_on_c, 0, 80, 0
2, 84960, Note_on_c, 0, 78, 67
2, 85440, Note_on_c, 0, 78, 0
2, 85440, Control_c, 0, 64, 0
2, 85440, Note_on_c, 0, 73, 67
2, 85920, Note_on_c, 0, 73, 0
2, 85920, Control_c, 0, 64, 127
2, 85920, Note_on_c, 0, 78, 67
2, 86400, Note_on_c, 0, 78, 0
2, 86400, Note_on_c, 0, 80, 67
2, 86880, Note_on_c, 0, 80, 0
2, 86880, Note_on_c, 0, 78, 67
2, 87360, Note_on_c, 0, 78, 0
2, 87360, Control_c, 0, 64, 0
2, 87360, Note_on_c, 0, 73, 67
2, 87840, Note_on_c, 0, 73, 0
2, 87840, Note_on_c, 0, 78, 80
2, 88320, Note_on_c, 0, 78, 0
2, 88320, Control_c, 0, 64, 127
2, 88320, Note_on_c, 0, 80, 80
2, 88560, Note_on_c, 0, 80, 0
2, 88560, Note_on_c, 0, 78, 80
2, 88800, Note_on_c, 0, 78, 0
2, 88800, Note_on_c, 0, 73, 80
2, 89040, Note_on_c, 0, 73, 0
2, 89040, Control_c, 0, 64, 0
2, 89040, Note_on_c, 0, 78, 80
2, 89280, Note_on_c, 0, 78, 0
2, 89280, Control_c, 0, 64, 127
2, 89280, Note_on_c, 0, 80, 80
2, 89520, Note_on_c, 0, 80, 0
2, 89520, Note_on_c, 0, 78, 80
2, 89760, Note_on_c, 0, 78, 0
2, 89760, Note_on_c, 0, 73, 80
2, 90000, Note_on_c, 0, 73, 0
2, 90000, Control_c, 0, 64, 0
2, 90000, Note_on_c, 0, 78, 80
2, 90240, Note_on_c, 0, 78, 0
2, 90240, Control_c, 0, 64, 127
2, 90240, Note_on_c, 0, 80, 80
2, 90480, Note_on_c, 0, 80, 0
2, 90480, Note_on_c, 0, 78, 80
2, 90720, Note_on_c, 0, 78, 0
2, 90720, Note_on_c, 0, 73, 80
2, 90960, Note_on_c, 0, 73, 0
2, 90960, Control_c, 0, 64, 0
2, 90960, Note_on_c, 0, 78, 80
2, 91200, Note_on_c, 0, 78, 0
2, 91200, Control_c, 0, 64, 127
2, 91200, Note_on_c, 0, 80, 80
2, 91440, Note_on_c, 0, 80, 0
2, 91440, Note_on_c, 0, 78, 80
2, 91680, Note_on_c, 0, 78, 0
2, 91680, Note_on_c, 0, 73, 80
2, 91920, Note_on_c, 0, 73, 0
2, 91920, Control_c, 0, 64, 0
2, 91920, Note_on_c, 0, 78, 80
2, 92160, Note_on_c, 0, 78, 0
2, 92160, Control_c, 0, 64, 127
2, 92160, Note_on_c, 0, 80, 80
2, 92280, Note_on_c, 0, 80, 0
2, 92280, Note_on_c, 0, 78, 80
2, 92400, Note_on_c, 0, 78, 0
2, 92400, Note_on_c, 0, 73, 80
2, 92520, Note_on_c, 0, 73, 0
2, 92520, Control_c, 0, 64, 0
2, 92520, Note_on_c, 0, 78, 80
2, 92640, Note_on_c, 0, 78, 0
2, 92640, Control_c, 0, 64, 127
2, 92640, Note_on_c, 0, 80, 80
2, 92760, Note_on_c, 0, 80, 0
2, 92760, Note_on_c, 0, 78, 80
2, 92880, Note_on_c, 0, 78, 0
2, 92880, Note_on_c, 0, 73, 80
2, 93000, Note_on_c, 0, 73, 0
2, 93000, Control_c, 0, 64, 0
2, 93000, Note_on_c, 0, 78, 80
2, 93120, Note_on_c, 0, 78, 0
2, 93120, Control_c, 0, 64, 127
2, 93120, Note_on_c, 0, 80, 80
2, 93240, Note_on_c, 0, 80, 0
2, 93240, Note_on_c, 0, 78, 80
2, 93360, Note_on_c, 0, 78, 0
2, 93360, Note_on_c, 0, 73, 80
2, 93480, Note_on_c, 0, 73, 0
2, 93480, Control_c, 0, 64, 0
2, 93480, Note_on_c, 0, 78, 80
2, 93600, Note_on_c, 0, 78, 0
2, 93600, Control_c, 0, 64, 127
2, 93600, Note_on_c, 0, 80, 80
2, 93720, Note_on_c, 0, 80, 0
2, 93720, Note_on_c, 0, 78, 80
2, 93840, Note_on_c, 0, 78, 0
2, 93840, Note_on_c, 0, 73, 80
2, 93960, Note_on_c, 0, 73, 0
2, 93960, Control_c, 0, 64, 0
2, 93960, Note_on_c, 0, 78, 80
2, 94080, Note_on_c, 0, 78, 0
2, 94080, Note_on_c, 0, 80, 67
2, 94200, Note_on_c, 0, 80, 0
2, 94200, Note_on_c, 0, 78, 67
2, 94320, Note_on_c, 0, 78, 0
2, 94320, Note_on_c, 0, 73, 67
2, 94440, Note_on_c, 0, 73, 0
2, 94440, Note_on_c, 0, 75, 67
2, 94560, Note_on_c, 0, 75, 0
2, 94560, Note_on_c, 0, 77, 80
2, 94680, Note_on_c, 0, 77, 0
2, 94680, Note_on_c, 0, 78, 80
2, 94800, Note_on_c, 0, 78, 0
2, 94800, Note_on_c, 0, 80, 80
2, 94920, Note_on_c, 0, 80, 0
2, 94920, Note_on_c, 0, 81, 80
2, 95040, Note_on_c, 0, 81, 0
2, 95040, Note_on_c, 0, 83, 80
2, 95160, Note_on_c, 0, 83, 0
2, 95160, Note_on_c, 0, 81, 80
2, 95280, Note_on_c, 0, 81, 0
2, 95280, Note_on_c, 0, 80, 80
2, 95400, Note_on_c, 0, 80, 0
2, 95400, Note_on_c, 0, 81, 80
2, 95520, Note_on_c, 0, 81, 0
2, 95520, Note_on_c, 0, 83, 93
2, 95640, Note_on_c, 0, 83, 0
2, 95640, Note_on_c, 0, 85, 93
2, 95760, Note_on_c, 0, 85, 0
2, 95760, Note_on_c, 0, 87, 93
2, 95880, Note_on_c, 0, 87, 0
2, 95880, Note_on_c, 0, 89, 93
2, 96000, Note_on_c, 0, 89, 0
2, 96000, Note_on_c, 0, 78, 106
2, 96000, Note_on_c, 0, 81, 106
2, 96000, Note_on_c, 0, 85, 106
2, 96000, Note_on_c, 0, 90, 106
2, 96240, Note_on_c, 0, 90, 0
2, 96240, Note_on_c, 0, 78, 0
2, 96240, Note_on_c, 0, 81, 0
2, 96240, Note_on_c, 0, 85, 0
2, 98160, Note_on_c, 0, 78, 80
2, 98400, Note_on_c, 0, 78, 0
2, 98400, Note_on_c, 0, 80, 80
2, 98640, Note_on_c, 0, 80, 0
2, 98640, Note_on_c, 0, 78, 80
2, 98687, Note_on_c, 0, 78, 0
2, 98880, Note_on_c, 0, 73, 80
2, 98927, Note_on_c, 0, 73, 0
2, 99120, Note_on_c, 0, 78, 80
2, 99360, Note_on_c, 0, 78, 0
2, 99360, Note_on_c, 0, 80, 80
2, 99600, Note_on_c, 0, 80, 0
2, 99600, Note_on_c, 0, 76, 80
2, 99647, Note_on_c, 0, 76, 0
2, 99840, Note_on_c, 0, 71, 80
2, 99887, Note_on_c, 0, 71, 0
2, 100080, Note_on_c, 0, 76, 80
2, 100320, Note_on_c, 0, 76, 0
2, 100320, Note_on_c, 0, 80, 80
2, 100440, Note_on_c, 0, 80, 0
2, 100440, Note_on_c, 0, 78, 80
2, 100463, Note_on_c, 0, 78, 0
2, 100560, Note_on_c, 0, 76, 80
2, 100583, Note_on_c, 0, 76, 0
2, 100680, Note_on_c, 0, 78, 80
2, 100703, Note_on_c, 0, 78, 0
2, 100800, Note_on_c, 0, 76, 80
2, 100823, Note_on_c, 0, 76, 0
2, 100920, Note_on_c, 0, 75, 80
2, 100943, Note_on_c, 0, 75, 0
2, 101040, Note_on_c, 0, 73, 80
2, 101063, Note_on_c, 0, 73, 0
2, 101160, Note_on_c, 0, 71, 80
2, 101183, Note_on_c, 0, 71, 0
2, 101280, Note_on_c, 0, 70, 80
2, 101400, Note_on_c, 0, 70, 0
2, 101400, Note_on_c, 0, 71, 80
2, 101520, Note_on_c, 0, 71, 0
2, 101520, Note_on_c, 0, 73, 80
2, 101640, Note_on_c, 0, 73, 0
2, 101640, Note_on_c, 0, 70, 80
2, 101760, Note_on_c, 0, 70, 0
2, 101760, Note_on_c, 0, 71, 80
2, 101880, Note_on_c, 0, 71, 0
2, 101880, Note_on_c, 0, 73, 80
2, 101903, Note_on_c, 0, 73, 0
2, 102000, Note_on_c, 0, 75, 80
2, 102023, Note_on_c, 0, 75, 0
2, 102120, Note_on_c, 0, 76, 80
2, 102143, Note_on_c, 0, 76, 0
2, 102240, Note_on_c, 0, 80, 80
2, 102287, Note_on_c, 0, 80, 0
2, 102480, Note_on_c, 0, 78, 80
2, 102720, Note_on_c, 0, 78, 0
2, 102720, Note_on_c, 0, 73, 80
2, 102960, Note_on_c, 0, 73, 0
2, 102960, Note_on_c, 0, 78, 80
2, 103007, Note_on_c, 0, 78, 0
2, 103200, Note_on_c, 0, 80, 80
2, 103247, Note_on_c, 0, 80, 0
2, 103440, Note_on_c, 0, 76, 80
2, 103680, Note_on_c, 0, 76, 0
2, 103680, Note_on_c, 0, 71, 80
2, 103920, Note_on_c, 0, 71, 0
2, 103920, Note_on_c, 0, 76, 80
2, 103967, Note_on_c, 0, 76, 0
2, 104160, Note_on_c, 0, 80, 80
2, 104280, Note_on_c, 0, 80, 0
2, 104280, Note_on_c, 0, 78, 80
2, 104400, Note_on_c, 0, 78, 0
2, 104400, Note_on_c, 0, 76, 80
2, 104520, Note_on_c, 0, 76, 0
2, 104520, Note_on_c, 0, 75, 80
2, 104640, Note_on_c, 0, 75, 0
2, 104640, Note_on_c, 0, 73, 80
2, 104760, Note_on_c, 0, 73, 0
2, 104760, Note_on_c, 0, 71, 80
2, 104880, Note_on_c, 0, 71, 0
2, 104880, Note_on_c, 0, 73, 80
2, 105000, Note_on_c, 0, 73, 0
2, 105000, Note_on_c, 0, 75, 80
2, 105120, Note_on_c, 0, 75, 0
2, 105120, Note_on_c, 0, 76, 80
2, 105240, Note_on_c, 0, 76, 0
2, 105240, Note_on_c, 0, 78, 80
2, 105360, Note_on_c, 0, 78, 0
2, 105360, Note_on_c, 0, 80, 80
2, 105480, Note_on_c, 0, 80, 0
2, 105480, Note_on_c, 0, 81, 80
2, 105600, Note_on_c, 0, 81, 0
2, 105600, Note_on_c, 0, 83, 93
2, 105720, Note_on_c, 0, 83, 0
2, 105720, Note_on_c, 0, 85, 93
2, 105840, Note_on_c, 0, 85, 0
2, 105840, Note_on_c, 0, 87, 93
2, 105960, Note_on_c, 0, 87, 0
2, 105960, Note_on_c, 0, 88, 93
2, 106080, Note_on_c, 0, 88, 0
2, 106080, Note_on_c, 0, 80, 106
2, 106080, Note_on_c, 0, 92, 106
2, 106320, Note_on_c, 0, 92, 0
2, 106320, Note_on_c, 0, 80, 0
2, 106320, Note_on_c, 0, 78, 106
2, 106320, Note_on_c, 0, 90, 106
2, 106560, Note_on_c, 0, 90, 0
2, 106560, Note_on_c, 0, 78, 0
2, 106560, Note_on_c, 0, 73, 106
2, 106560, Note_on_c, 0, 85, 106
2, 106800, Note_on_c, 0, 85, 0
2, 106800, Note_on_c, 0, 73, 0
2, 106800, Note_on_c, 0, 78, 106
2, 106800, Note_on_c, 0, 90, 106
2, 107040, Note_on_c, 0, 90, 0
2, 107040, Note_on_c, 0, 78, 0
2, 107040, Note_on_c, 0, 80, 106
2, 107040, Note_on_c, 0, 92, 106
2, 107280, Note_on_c, 0, 92, 0
2, 107280, Note_on_c, 0, 80, 0
2, 107280, Note_on_c, 0, 76, 106
2, 107280, Note_on_c, 0, 88, 106
2, 107520, Note_on_c, 0, 88, 0
2, 107520, Note_on_c, 0, 76, 0
2, 107520, Note_on_c, 0, 71, 106
2, 107520, Note_on_c, 0, 83, 106
2, 107760, Note_on_c, 0, 83, 0
2, 107760, Note_on_c, 0, 71, 0
2, 107760, Note_on_c, 0, 76, 106
2, 107760, Note_on_c, 0, 88, 106
2, 108000, Note_on_c, 0, 88, 0
2, 108000, Note_on_c, 0, 76, 0
2, 108000, Note_on_c, 0, 92, 106
2, 108120, Note_on_c, 0, 92, 0
2, 108120, Note_on_c, 0, 90, 106
2, 108240, Note_on_c, 0, 90, 0
2, 108240, Note_on_c, 0, 88, 106
2, 108360, Note_on_c, 0, 88, 0
2, 108360, Note_on_c, 0, 90, 106
2, 108480, Note_on_c, 0, 90, 0
2, 108480, Note_on_c, 0, 88, 106
2, 108600, Note_on_c, 0, 88, 0
2, 108600, Note_on_c, 0, 87, 106
2, 108720, Note_on_c, 0, 87, 0
2, 108720, Note_on_c, 0, 85, 106
2, 108840, Note_on_c, 0, 85, 0
2, 108840, Note_on_c, 0, 83, 106
2, 108960, Note_on_c, 0, 83, 0
2, 108960, Note_on_c, 0, 82, 106
2, 109080, Note_on_c, 0, 82, 0
2, 109080, Note_on_c, 0, 83, 106
2, 109200, Note_on_c, 0, 83, 0
2, 109200, Note_on_c, 0, 85, 106
2, 109320, Note_on_c, 0, 85, 0
2, 109320, Note_on_c, 0, 82, 106
2, 109440, Note_on_c, 0, 82, 0
2, 109440, Note_on_c, 0, 83, 106
2, 109560, Note_on_c, 0, 83, 0
2, 109560, Note_on_c, 0, 85, 106
2, 109680, Note_on_c, 0, 85, 0
2, 109680, Note_on_c, 0, 87, 106
2, 109800, Note_on_c, 0, 87, 0
2, 109800, Note_on_c, 0, 88, 106
2, 109920, Note_on_c, 0, 88, 0
2, 109920, Note_on_c, 0, 80, 106
2, 109920, Note_on_c, 0, 92, 106
2, 110160, Note_on_c, 0, 92, 0
2, 110160, Note_on_c, 0, 80, 0
2, 110160, Note_on_c, 0, 78, 106
2, 110160, Note_on_c, 0, 90, 106
2, 110400, Note_on_c, 0, 90, 0
2, 110400, Note_on_c, 0, 78, 0
2, 110400, Note_on_c, 0, 73, 106
2, 110400, Note_on_c, 0, 85, 106
2, 110640, Note_on_c, 0, 85, 0
2, 110640, Note_on_c, 0, 73, 0
2, 110640, Note_on_c, 0, 78, 106
2, 110640, Note_on_c, 0, 90, 106
2, 110880, Note_on_c, 0, 90, 0
2, 110880, Note_on_c, 0, 78, 0
2, 110880, Note_on_c, 0, 80, 106
2, 110880, Note_on_c, 0, 92, 106
2, 111120, Note_on_c, 0, 92, 0
2, 111120, Note_on_c, 0, 80, 0
2, 111120, Note_on_c, 0, 76, 106
2, 111120, Note_on_c, 0, 88, 106
2, 111360, Note_on_c, 0, 88, 0
2, 111360, Note_on_c, 0, 76, 0
2, 111360, Note_on_c, 0, 71, 106
2, 111360, Note_on_c, 0, 83, 106
2, 111600, Note_on_c, 0, 83, 0
2, 111600, Note_on_c, 0, 71, 0
2, 111600, Note_on_c, 0, 76, 106
2, 111600, Note_on_c, 0, 88, 106
2, 111840, Note_on_c, 0, 88, 0
2, 111840, Note_on_c, 0, 76, 0
2, 111840, Note_on_c, 0, 92, 106
2, 111960, Note_on_c, 0, 92, 0
2, 111960, Note_on_c, 0, 90, 106
2, 112080, Note_on_c, 0, 90, 0
2, 112080, Note_on_c, 0, 88, 106
2, 112200, Note_on_c, 0, 88, 0
2, 112200, Note_on_c, 0, 87, 106
2, 112320, Note_on_c, 0, 87, 0
2, 112320, Note_on_c, 0, 85, 106
2, 112440, Note_on_c, 0, 85, 0
2, 112440, Note_on_c, 0, 83, 106
2, 112560, Note_on_c, 0, 83, 0
2, 112560, Note_on_c, 0, 85, 106
2, 112680, Note_on_c, 0, 85, 0
2, 112680, Note_on_c, 0, 87, 106
2, 112800, Note_on_c, 0, 87, 0
2, 112800, Note_on_c, 0, 88, 106
2, 112920, Note_on_c, 0, 88, 0
2, 112920, Note_on_c, 0, 90, 106
2, 113040, Note_on_c, 0, 90, 0
2, 113040, Note_on_c, 0, 92, 106
2, 113160, Note_on_c, 0, 92, 0
2, 113160, Note_on_c, 0, 93, 106
2, 113280, Note_on_c, 0, 93, 0
2, 113280, Note_on_c, 0, 95, 106
2, 113400, Note_on_c, 0, 95, 0
2, 113400, Note_on_c, 0, 93, 106
2, 113520, Note_on_c, 0, 93, 0
2, 113520, Note_on_c, 0, 92, 106
2, 113640, Note_on_c, 0, 92, 0
2, 113640, Note_on_c, 0, 95, 106
2, 113760, Note_on_c, 0, 95, 0
2, 113760, Note_on_c, 0, 93, 106
2, 113880, Note_on_c, 0, 93, 0
2, 113880, Note_on_c, 0, 92, 106
2, 114000, Note_on_c, 0, 92, 0
2, 114000, Note_on_c, 0, 90, 106
2, 114120, Note_on_c, 0, 90, 0
2, 114120, Note_on_c, 0, 92, 106
2, 114240, Note_on_c, 0, 92, 0
2, 114240, Note_on_c, 0, 93, 106
2, 114360, Note_on_c, 0, 93, 0
2, 114360, Note_on_c, 0, 92, 106
2, 114480, Note_on_c, 0, 92, 0
2, 114480, Note_on_c, 0, 90, 106
2, 114600, Note_on_c, 0, 90, 0
2, 114600, Note_on_c, 0, 93, 106
2, 114720, Note_on_c, 0, 93, 0
2, 114720, Note_on_c, 0, 92, 106
2, 114840, Note_on_c, 0, 92, 0
2, 114840, Note_on_c, 0, 90, 106
2, 114960, Note_on_c, 0, 90, 0
2, 114960, Note_on_c, 0, 92, 106
2, 115080, Note_on_c, 0, 92, 0
2, 115080, Note_on_c, 0, 93, 106
2, 115200, Note_on_c, 0, 93, 0
2, 115200, Note_on_c, 0, 95, 106
2, 115320, Note_on_c, 0, 95, 0
2, 115320, Note_on_c, 0, 93, 106
2, 115440, Note_on_c, 0, 93, 0
2, 115440, Note_on_c, 0, 92, 106
2, 115560, Note_on_c, 0, 92, 0
2, 115560, Note_on_c, 0, 95, 106
2, 115680, Note_on_c, 0, 95, 0
2, 115680, Note_on_c, 0, 93, 106
2, 115800, Note_on_c, 0, 93, 0
2, 115800, Note_on_c, 0, 92, 106
2, 115920, Note_on_c, 0, 92, 0
2, 115920, Note_on_c, 0, 90, 106
2, 116040, Note_on_c, 0, 90, 0
2, 116040, Note_on_c, 0, 92, 106
2, 116160, Note_on_c, 0, 92, 0
2, 116160, Note_on_c, 0, 93, 106
2, 116280, Note_on_c, 0, 93, 0
2, 116280, Note_on_c, 0, 92, 106
2, 116400, Note_on_c, 0, 92, 0
2, 116400, Note_on_c, 0, 90, 106
2, 116520, Note_on_c, 0, 90, 0
2, 116520, Note_on_c, 0, 93, 106
2, 116640, Note_on_c, 0, 93, 0
2, 116640, Note_on_c, 0, 92, 106
2, 116760, Note_on_c, 0, 92, 0
2, 116760, Note_on_c, 0, 90, 106
2, 116880, Note_on_c, 0, 90, 0
2, 116880, Note_on_c, 0, 92, 106
2, 117000, Note_on_c, 0, 92, 0
2, 117000, Note_on_c, 0, 93, 106
2, 117120, Note_on_c, 0, 93, 0
2, 117120, Note_on_c, 0, 95, 106
2, 117240, Note_on_c, 0, 95, 0
2, 117240, Note_on_c, 0, 93, 106
2, 117360, Note_on_c, 0, 93, 0
2, 117360, Note_on_c, 0, 92, 106
2, 117480, Note_on_c, 0, 92, 0
2, 117480, Note_on_c, 0, 95, 106
2, 117600, Note_on_c, 0, 95, 0
2, 117600, Note_on_c, 0, 93, 106
2, 117720, Note_on_c, 0, 93, 0
2, 117720, Note_on_c, 0, 92, 106
2, 117840, Note_on_c, 0, 92, 0
2, 117840, Note_on_c, 0, 90, 106
2, 117960, Note_on_c, 0, 90, 0
2, 117960, Note_on_c, 0, 92, 106
2, 118080, Note_on_c, 0, 92, 0
2, 118080, Note_on_c, 0, 93, 106
2, 118200, Note_on_c, 0, 93, 0
2, 118200, Note_on_c, 0, 92, 106
2, 118320, Note_on_c, 0, 92, 0
2, 118320, Note_on_c, 0, 90, 106
2, 118440, Note_on_c, 0, 90, 0
2, 118440, Note_on_c, 0, 93, 106
2, 118560, Note_on_c, 0, 93, 0
2, 118560, Note_on_c, 0, 92, 106
2, 118680, Note_on_c, 0, 92, 0
2, 118680, Note_on_c, 0, 90, 106
2, 118800, Note_on_c, 0, 90, 0
2, 118800, Note_on_c, 0, 92, 106
2, 118920, Note_on_c, 0, 92, 0
2, 118920, Note_on_c, 0, 93, 106
2, 119040, Note_on_c, 0, 93, 0
2, 119040, Note_on_c, 0, 95, 106
2, 119160, Note_on_c, 0, 95, 0
2, 119160, Note_on_c, 0, 93, 106
2, 119280, Note_on_c, 0, 93, 0
2, 119280, Note_on_c, 0, 92, 106
2, 119400, Note_on_c, 0, 92, 0
2, 119400, Note_on_c, 0, 95, 106
2, 119520, Note_on_c, 0, 95, 0
2, 119520, Note_on_c, 0, 93, 106
2, 119640, Note_on_c, 0, 93, 0
2, 119640, Note_on_c, 0, 92, 106
2, 119760, Note_on_c, 0, 92, 0
2, 119760, Note_on_c, 0, 90, 106
2, 119880, Note_on_c, 0, 90, 0
2, 119880, Note_on_c, 0, 92, 106
2, 120000, Note_on_c, 0, 92, 0
2, 120000, Note_on_c, 0, 93, 106
2, 120120, Note_on_c, 0, 93, 0
2, 120120, Note_on_c, 0, 95, 106
2, 120240, Note_on_c, 0, 95, 0
2, 120240, Note_on_c, 0, 97, 106
2, 120360, Note_on_c, 0, 97, 0
2, 120360, Note_on_c, 0, 99, 106
2, 120480, Note_on_c, 0, 99, 0
2, 120480, Note_on_c, 0, 88, 106
2, 120480, Note_on_c, 0, 92, 106
2, 120480, Note_on_c, 0, 95, 106
2, 120480, Note_on_c, 0, 100, 106
2, 120720, Note_on_c, 0, 100, 0
2, 120720, Note_on_c, 0, 88, 0
2, 120720, Note_on_c, 0, 92, 0
2, 120720, Note_on_c, 0, 95, 0
2, 120720, Note_on_c, 0, 76, 106
2, 120960, Note_on_c, 0, 76, 0
2, 120960, Note_on_c, 0, 64, 127
2, 121440, Note_on_c, 0, 64, 0
2, 121440, Control_c, 0, 64, 127
2, 123840, Control_c, 0, 64, 0
2, 123840, End_track
3, 0, Start_track
3, 0, Title_t, "Grand Piano"
3, 0, Program_c, 0, 0
3, 0, Control_c, 0, 7, 115
3, 0, Control_c, 0, 10, 80
3, 5760, Note_on_c, 0, 65, 49
3, 6720, Note_on_c, 0, 65, 0
3, 6720, Note_on_c, 0, 66, 62
3, 7200, Note_on_c, 0, 66, 0
3, 11520, Note_on_c, 0, 57, 62
3, 11520, Note_on_c, 0, 69, 62
3, 12000, Note_on_c, 0, 69, 0
3, 12000, Note_on_c, 0, 57, 0
3, 12480, Note_on_c, 0, 66, 62
3, 12480, Note_on_c, 0, 71, 62
3, 12960, Note_on_c, 0, 71, 0
3, 12960, Note_on_c, 0, 66, 0
3, 12960, Note_on_c, 0, 66, 62
3, 13440, Note_on_c, 0, 66, 0
3, 13440, Note_on_c, 0, 56, 62
3, 13440, Note_on_c, 0, 68, 62
3, 13920, Note_on_c, 0, 68, 0
3, 13920, Note_on_c, 0, 56, 0
3, 14400, Note_on_c, 0, 64, 62
3, 14400, Note_on_c, 0, 68, 62
3, 14880, Note_on_c, 0, 68, 0
3, 14880, Note_on_c, 0, 64, 0
3, 19200, Note_on_c, 0, 71, 62
3, 21120, Note_on_c, 0, 71, 0
3, 21120, Note_on_c, 0, 73, 62
3, 23040, Note_on_c, 0, 73, 0
3, 24960, Note_on_c, 0, 68, 75
3, 25440, Note_on_c, 0, 68, 0
3, 25440, Note_on_c, 0, 64, 75
3, 25920, Note_on_c, 0, 64, 0
3, 25920, Note_on_c, 0, 68, 75
3, 26880, Note_on_c, 0, 68, 0
3, 26880, Note_on_c, 0, 69, 62
3, 26880, Note_on_c, 0, 71, 62
3, 28800, Note_on_c, 0, 71, 0
3, 28800, Note_on_c, 0, 69, 0
3, 28800, Note_on_c, 0, 67, 62
3, 28800, Note_on_c, 0, 76, 62
3, 29760, Note_on_c, 0, 76, 0
3, 29760, Note_on_c, 0, 67, 0
3, 29760, Note_on_c, 0, 68, 62
3, 29760, Note_on_c, 0, 76, 62
3, 30720, Note_on_c, 0, 76, 0
3, 30720, Note_on_c, 0, 68, 0
3, 32640, Note_on_c, 0, 66, 88
3, 33600, Note_on_c, 0, 66, 0
3, 33600, Note_on_c, 0, 64, 62
3, 34080, Note_on_c, 0, 64, 0
3, 34080, Note_on_c, 0, 63, 62
3, 34560, Note_on_c, 0, 63, 0
3, 35520, Note_on_c, 0, 61, 62
3, 36480, Note_on_c, 0, 61, 0
3, 36480, Note_on_c, 0, 66, 88
3, 37440, Note_on_c, 0, 66, 0
3, 37440, Note_on_c, 0, 64, 62
3, 37920, Note_on_c, 0, 64, 0
3, 37920, Note_on_c, 0, 63, 62
3, 38400, Note_on_c, 0, 63, 0
3, 39360, Note_on_c, 0, 61, 62
3, 40320, Note_on_c, 0, 61, 0
3, 40320, Note_on_c, 0, 59, 62
3, 41280, Note_on_c, 0, 59, 0
3, 41280, Note_on_c, 0, 58, 62
3, 41760, Note_on_c, 0, 58, 0
3, 41760, Note_on_c, 0, 56, 62
3, 42240, Note_on_c, 0, 56, 0
3, 43200, Note_on_c, 0, 54, 62
3, 43680, Note_on_c, 0, 54, 0
3, 46320, Note_on_c, 0, 71, 49
3, 46560, Note_on_c, 0, 71, 0
3, 46560, Note_on_c, 0, 83, 49
3, 46800, Note_on_c, 0, 83, 0
3, 46800, Note_on_c, 0, 71, 49
3, 47040, Note_on_c, 0, 71, 0
3, 47280, Note_on_c, 0, 71, 49
3, 47520, Note_on_c, 0, 71, 0
3, 47520, Note_on_c, 0, 83, 49
3, 47760, Note_on_c, 0, 83, 0
3, 47760, Note_on_c, 0, 71, 49
3, 48000, Note_on_c, 0, 71, 0
3, 48240, Note_on_c, 0, 71, 49
3, 48480, Note_on_c, 0, 71, 0
3, 48480, Note_on_c, 0, 83, 49
3, 48720, Note_on_c, 0, 83, 0
3, 48720, Note_on_c, 0, 71, 49
3, 48960, Note_on_c, 0, 71, 0
3, 49200, Note_on_c, 0, 71, 49
3, 49440, Note_on_c, 0, 71, 0
3, 49440, Note_on_c, 0, 83, 49
3, 49680, Note_on_c, 0, 83, 0
3, 49680, Note_on_c, 0, 71, 49
3, 49920, Note_on_c, 0, 71, 0
3, 50160, Note_on_c, 0, 73, 49
3, 50400, Note_on_c, 0, 73, 0
3, 50400, Note_on_c, 0, 85, 49
3, 50640, Note_on_c, 0, 85, 0
3, 50640, Note_on_c, 0, 73, 49
3, 50880, Note_on_c, 0, 73, 0
3, 51120, Note_on_c, 0, 73, 62
3, 51360, Note_on_c, 0, 73, 0
3, 51360, Note_on_c, 0, 85, 62
3, 51600, Note_on_c, 0, 85, 0
3, 51600, Note_on_c, 0, 73, 62
3, 51840, Note_on_c, 0, 73, 0
3, 51840, Control_c, 0, 64, 127
3, 51840, Note_on_c, 0, 87, 62
3, 52320, Note_on_c, 0, 87, 0
3, 52320, Note_on_c, 0, 89, 62
3, 52800, Note_on_c, 0, 89, 0
3, 52800, Note_on_c, 0, 90, 62
3, 53040, Note_on_c, 0, 90, 0
3, 53040, Control_c, 0, 64, 0
3, 53040, Note_on_c, 0, 78, 62
3, 53280, Note_on_c, 0, 78, 0
3, 57600, Note_on_c, 0, 66, 62
3, 57600, Note_on_c, 0, 69, 62
3, 59040, Note_on_c, 0, 69, 0
3, 59040, Note_on_c, 0, 66, 0
3, 59040, Note_on_c, 0, 66, 62
3, 59520, Note_on_c, 0, 66, 0
3, 59520, Note_on_c, 0, 68, 62
3, 61440, Note_on_c, 0, 68, 0
3, 61680, Note_on_c, 0, 71, 49
3, 61920, Note_on_c, 0, 71, 0
3, 61920, Note_on_c, 0, 83, 49
3, 62160, Note_on_c, 0, 83, 0
3, 62160, Note_on_c, 0, 71, 49
3, 62400, Note_on_c, 0, 71, 0
3, 62640, Note_on_c, 0, 71, 49
3, 62880, Note_on_c, 0, 71, 0
3, 62880, Note_on_c, 0, 83, 49
3, 63120, Note_on_c, 0, 83, 0
3, 63120, Note_on_c, 0, 71, 49
3, 63360, Note_on_c, 0, 71, 0
3, 63600, Note_on_c, 0, 71, 49
3, 63840, Note_on_c, 0, 71, 0
3, 63840, Note_on_c, 0, 83, 49
3, 64080, Note_on_c, 0, 83, 0
3, 64080, Note_on_c, 0, 71, 49
3, 64320, Note_on_c, 0, 71, 0
3, 64560, Note_on_c, 0, 71, 49
3, 64800, Note_on_c, 0, 71, 0
3, 64800, Note_on_c, 0, 83, 49
3, 65040, Note_on_c, 0, 83, 0
3, 65040, Note_on_c, 0, 71, 49
3, 65280, Note_on_c, 0, 71, 0
3, 65520, Note_on_c, 0, 73, 49
3, 65760, Note_on_c, 0, 73, 0
3, 65760, Note_on_c, 0, 85, 49
3, 66000, Note_on_c, 0, 85, 0
3, 66000, Note_on_c, 0, 73, 49
3, 66240, Note_on_c, 0, 73, 0
3, 66480, Note_on_c, 0, 73, 62
3, 66720, Note_on_c, 0, 73, 0
3, 66720, Note_on_c, 0, 85, 62
3, 66960, Note_on_c, 0, 85, 0
3, 66960, Note_on_c, 0, 73, 62
3, 67200, Note_on_c, 0, 73, 0
3, 67200, Control_c, 0, 64, 127
3, 67200, Note_on_c, 0, 87, 62
3, 67680, Note_on_c, 0, 87, 0
3, 67680, Note_on_c, 0, 89, 62
3, 68160, Note_on_c, 0, 89, 0
3, 68160, Note_on_c, 0, 90, 62
3, 68400, Note_on_c, 0, 90, 0
3, 68400, Control_c, 0, 64, 0
3, 68400, Note_on_c, 0, 78, 62
3, 68640, Note_on_c, 0, 78, 0
3, 72960, Note_on_c, 0, 66, 62
3, 72960, Note_on_c, 0, 69, 62
3, 74400, Note_on_c, 0, 69, 0
3, 74400, Note_on_c, 0, 66, 0
3, 74400, Note_on_c, 0, 66, 62
3, 74880, Note_on_c, 0, 66, 0
3, 74880, Note_on_c, 0, 65, 62
3, 75360, Note_on_c, 0, 65, 0
3, 75360, End_track
4, 0, Start_track
4, 0, Title_t, "Grand Piano"
4, 0, Program_c, 0, 0
4, 0, Control_c, 0, 7, 115
4, 0, Control_c, 0, 10, 41
4, 0, Note_on_c, 0, 52, 62
4, 960, Note_on_c, 0, 52, 0
4, 960, Note_on_c, 0, 54, 62
4, 1680, Note_on_c, 0, 54, 0
4, 1680, Note_on_c, 0, 56, 62
4, 1920, Note_on_c, 0, 56, 0
4, 1920, Control_c, 0, 64, 127
4, 1920, Note_on_c, 0, 57, 62
4, 2160, Note_on_c, 0, 57, 0
4, 2160, Note_on_c, 0, 56, 62
4, 2400, Note_on_c, 0, 56, 0
4, 2400, Note_on_c, 0, 54, 62
4, 2640, Note_on_c, 0, 54, 0
4, 2640, Note_on_c, 0, 53, 62
4, 2880, Note_on_c, 0, 53, 0
4, 2880, Control_c, 0, 64, 0
4, 2880, Note_on_c, 0, 54, 62
4, 3840, Note_on_c, 0, 54, 0
4, 3840, Note_on_c, 0, 56, 62
4, 4800, Note_on_c, 0, 56, 0
4, 4800, Note_on_c, 0, 57, 62
4, 5520, Note_on_c, 0, 57, 0
4, 5520, Note_on_c, 0, 59, 62
4, 5760, Note_on_c, 0, 59, 0
4, 5760, Note_on_c, 0, 49, 49
4, 5760, Note_on_c, 0, 53, 49
4, 6720, Note_on_c, 0, 53, 0
4, 6720, Note_on_c, 0, 49, 0
4, 6720, Note_on_c, 0, 42, 62
4, 6720, Note_on_c, 0, 54, 62
4, 7200, Note_on_c, 0, 54, 0
4, 7200, Note_on_c, 0, 42, 0
4, 7680, Note_on_c, 0, 45, 62
4, 8160, Note_on_c, 0, 45, 0
4, 8640, Note_on_c, 0, 54, 62
4, 9120, Note_on_c, 0, 54, 0
4, 9600, Note_on_c, 0, 47, 62
4, 10080, Note_on_c, 0, 47, 0
4, 10560, Note_on_c, 0, 56, 62
4, 11040, Note_on_c, 0, 56, 0
4, 11520, Note_on_c, 0, 54, 62
4, 12000, Note_on_c, 0, 54, 0
4, 14400, Note_on_c, 0, 56, 62
4, 14880, Note_on_c, 0, 56, 0
4, 15360, Note_on_c, 0, 52, 62
4, 16320, Note_on_c, 0, 52, 0
4, 16320, Note_on_c, 0, 54, 62
4, 17040, Note_on_c, 0, 54, 0
4, 17040, Note_on_c, 0, 56, 62
4, 17280, Note_on_c, 0, 56, 0
4, 17280, Control_c, 0, 64, 127
4, 17280, Note_on_c, 0, 57, 62
4, 17520, Note_on_c, 0, 57, 0
4, 17520, Note_on_c, 0, 56, 62
4, 17760, Note_on_c, 0, 56, 0
4, 17760, Note_on_c, 0, 54, 62
4, 18000, Note_on_c, 0, 54, 0
4, 18000, Note_on_c, 0, 53, 62
4, 18240, Note_on_c, 0, 53, 0
4, 18240, Control_c, 0, 64, 0
4, 18240, Note_on_c, 0, 54, 62
4, 19200, Note_on_c, 0, 54, 0
4, 19200, Note_on_c, 0, 56, 62
4, 20160, Note_on_c, 0, 56, 0
4, 20160, Note_on_c, 0, 57, 62
4, 20880, Note_on_c, 0, 57, 0
4, 20880, Note_on_c, 0, 59, 75
4, 21120, Note_on_c, 0, 59, 0
4, 21120, Note_on_c, 0, 61, 75
4, 21360, Note_on_c, 0, 61, 0
4, 21360, Note_on_c, 0, 59, 75
4, 21600, Note_on_c, 0, 59, 0
4, 21600, Note_on_c, 0, 57, 75
4, 21840, Note_on_c, 0, 57, 0
4, 21840, Note_on_c, 0, 56, 75
4, 22080, Note_on_c, 0, 56, 0
4, 22080, Note_on_c, 0, 57, 75
4, 22560, Note_on_c, 0, 57, 0
4, 22560, Control_c, 0, 64, 127
4, 22560, Note_on_c, 0, 61, 75
4, 23040, Note_on_c, 0, 61, 0
4, 23040, Note_on_c, 0, 68, 75
4, 23520, Note_on_c, 0, 68, 0
4, 23520, Note_on_c, 0, 66, 75
4, 24000, Note_on_c, 0, 66, 0
4, 24000, Control_c, 0, 64, 0
4, 24000, Note_on_c, 0, 61, 75
4, 24480, Note_on_c, 0, 61, 0
4, 24480, Note_on_c, 0, 66, 75
4, 24960, Note_on_c, 0, 66, 0
4, 24960, Note_on_c, 0, 59, 62
4, 25920, Note_on_c, 0, 59, 0
4, 25920, Note_on_c, 0, 59, 75
4, 26240, Note_on_c, 0, 59, 0
4, 26240, Note_on_c, 0, 68, 75
4, 26559, Note_on_c, 0, 68, 0
4, 26559, Note_on_c, 0, 66, 75
4, 26880, Note_on_c, 0, 66, 0
4, 26880, Control_c, 0, 64, 127
4, 26880, Note_on_c, 0, 64, 75
4, 27120, Note_on_c, 0, 64, 0
4, 27120, Note_on_c, 0, 63, 75
4, 27360, Note_on_c, 0, 63, 0
4, 27360, Note_on_c, 0, 68, 75
4, 27600, Note_on_c, 0, 68, 0
4, 27600, Control_c, 0, 64, 0
4, 27600, Note_on_c, 0, 66, 75
4, 27840, Note_on_c, 0, 66, 0
4, 27840, Control_c, 0, 64, 127
4, 27840, Note_on_c, 0, 64, 75
4, 28080, Note_on_c, 0, 64, 0
4, 28080, Note_on_c, 0, 63, 75
4, 28320, Note_on_c, 0, 63, 0
4, 28320, Note_on_c, 0, 61, 75
4, 28560, Note_on_c, 0, 61, 0
4, 28560, Control_c, 0, 64, 0
4, 28560, Note_on_c, 0, 59, 75
4, 28800, Note_on_c, 0, 59, 0
4, 28800, Note_on_c, 0, 58, 75
4, 29120, Note_on_c, 0, 58, 0
4, 29120, Note_on_c, 0, 61, 75
4, 29439, Note_on_c, 0, 61, 0
4, 29439, Note_on_c, 0, 59, 75
4, 30720, Note_on_c, 0, 59, 0
4, 30960, Control_c, 0, 64, 127
4, 30960, Note_on_c, 0, 56, 49
4, 31200, Note_on_c, 0, 56, 0
4, 31200, Note_on_c, 0, 64, 49
4, 31200, Note_on_c, 0, 68, 49
4, 31440, Note_on_c, 0, 68, 0
4, 31440, Note_on_c, 0, 64, 0
4, 31440, Note_on_c, 0, 56, 49
4, 31680, Note_on_c, 0, 56, 0
4, 31680, Note_on_c, 0, 64, 49
4, 31680, Note_on_c, 0, 68, 49
4, 31920, Note_on_c, 0, 68, 0
4, 31920, Note_on_c, 0, 64, 0
4, 31920, Note_on_c, 0, 56, 49
4, 32160, Note_on_c, 0, 56, 0
4, 32160, Note_on_c, 0, 64, 49
4, 32160, Note_on_c, 0, 68, 49
4, 32400, Note_on_c, 0, 68, 0
4, 32400, Note_on_c, 0, 64, 0
4, 32400, Control_c, 0, 64, 0
4, 32400, Note_on_c, 0, 56, 49
4, 32640, Note_on_c, 0, 56, 0
4, 32640, Control_c, 0, 64, 127
4, 32640, Note_on_c, 0, 63, 49
4, 32880, Note_on_c, 0, 63, 0
4, 32880, Note_on_c, 0, 56, 49
4, 33120, Note_on_c, 0, 56, 0
4, 33120, Note_on_c, 0, 63, 49
4, 33360, Note_on_c, 0, 63, 0
4, 33360, Control_c, 0, 64, 0
4, 33360, Note_on_c, 0, 56, 49
4, 33600, Note_on_c, 0, 56, 0
4, 33600, Control_c, 0, 64, 127
4, 33600, Note_on_c, 0, 64, 49
4, 33840, Note_on_c, 0, 64, 0
4, 33840, Note_on_c, 0, 56, 49
4, 34080, Note_on_c, 0, 56, 0
4, 34080, Note_on_c, 0, 63, 49
4, 34320, Note_on_c, 0, 63, 0
4, 34320, Control_c, 0, 64, 0
4, 34320, Note_on_c, 0, 56, 49
4, 34560, Note_on_c, 0, 56, 0
4, 34560, Control_c, 0, 64, 127
4, 34560, Note_on_c, 0, 61, 49
4, 34800, Note_on_c, 0, 61, 0
4, 34800, Note_on_c, 0, 60, 49
4, 35040, Note_on_c, 0, 60, 0
4, 35040, Note_on_c, 0, 58, 49
4, 35280, Note_on_c, 0, 58, 0
4, 35280, Control_c, 0, 64, 0
4, 35280, Note_on_c, 0, 60, 49
4, 35520, Note_on_c, 0, 60, 0
4, 35520, Control_c, 0, 64, 127
4, 35520, Note_on_c, 0, 61, 49
4, 35760, Note_on_c, 0, 61, 0
4, 35760, Note_on_c, 0, 56, 49
4, 36000, Note_on_c, 0, 56, 0
4, 36000, Note_on_c, 0, 64, 49
4, 36000, Note_on_c, 0, 68, 49
4, 36240, Note_on_c, 0, 68, 0
4, 36240, Note_on_c, 0, 64, 0
4, 36240, Control_c, 0, 64, 0
4, 36240, Note_on_c, 0, 56, 49
4, 36480, Note_on_c, 0, 56, 0
4, 36480, Control_c, 0, 64, 127
4, 36480, Note_on_c, 0, 63, 49
4, 36720, Note_on_c, 0, 63, 0
4, 36720, Note_on_c, 0, 56, 49
4, 36960, Note_on_c, 0, 56, 0
4, 36960, Note_on_c, 0, 63, 49
4, 37200, Note_on_c, 0, 63, 0
4, 37200, Control_c, 0, 64, 0
4, 37200, Note_on_c, 0, 56, 49
4, 37440, Note_on_c, 0, 56, 0
4, 37440, Control_c, 0, 64, 127
4, 37440, Note_on_c, 0, 64, 49
4, 37680, Note_on_c, 0, 64, 0
4, 37680, Note_on_c, 0, 56, 49
4, 37920, Note_on_c, 0, 56, 0
4, 37920, Note_on_c, 0, 63, 49
4, 38160, Note_on_c, 0, 63, 0
4, 38160, Control_c, 0, 64, 0
4, 38160, Note_on_c, 0, 56, 49
4, 38400, Note_on_c, 0, 56, 0
4, 38400, Control_c, 0, 64, 127
4, 38400, Note_on_c, 0, 61, 49
4, 38640, Note_on_c, 0, 61, 0
4, 38640, Note_on_c, 0, 60, 49
4, 38880, Note_on_c, 0, 60, 0
4, 38880, Note_on_c, 0, 58, 49
4, 39120, Note_on_c, 0, 58, 0
4, 39120, Control_c, 0, 64, 0
4, 39120, Note_on_c, 0, 60, 49
4, 39360, Note_on_c, 0, 60, 0
4, 39360, Control_c, 0, 64, 127
4, 39360, Note_on_c, 0, 61, 49
4, 39600, Note_on_c, 0, 61, 0
4, 39600, Note_on_c, 0, 56, 49
4, 39840, Note_on_c, 0, 56, 0
4, 39840, Note_on_c, 0, 64, 49
4, 39840, Note_on_c, 0, 68, 49
4, 40080, Note_on_c, 0, 68, 0
4, 40080, Note_on_c, 0, 64, 0
4, 40080, Control_c, 0, 64, 0
4, 40080, Note_on_c, 0, 56, 49
4, 40320, Note_on_c, 0, 56, 0
4, 40320, Control_c, 0, 64, 127
4, 40320, Note_on_c, 0, 59, 49
4, 40560, Note_on_c, 0, 59, 0
4, 40560, Note_on_c, 0, 56, 49
4, 40800, Note_on_c, 0, 56, 0
4, 40800, Note_on_c, 0, 65, 49
4, 41040, Note_on_c, 0, 65, 0
4, 41040, Note_on_c, 0, 59, 49
4, 41280, Note_on_c, 0, 59, 0
4, 41280, Note_on_c, 0, 58, 49
4, 41520, Note_on_c, 0, 58, 0
4, 41520, Note_on_c, 0, 65, 49
4, 41760, Note_on_c, 0, 65, 0
4, 41760, Control_c, 0, 64, 0
4, 41760, Note_on_c, 0, 56, 49
4, 42000, Note_on_c, 0, 56, 0
4, 42000, Note_on_c, 0, 59, 49
4, 42000, Note_on_c, 0, 65, 49
4, 42240, Note_on_c, 0, 65, 0
4, 42240, Note_on_c, 0, 59, 0
4, 42240, Control_c, 0, 64, 127
4, 42240, Note_on_c, 0, 56, 49
4, 42480, Note_on_c, 0, 56, 0
4, 42480, Note_on_c, 0, 54, 49
4, 42720, Note_on_c, 0, 54, 0
4, 42720, Note_on_c, 0, 53, 49
4, 42960, Note_on_c, 0, 53, 0
4, 42960, Control_c, 0, 64, 0
4, 42960, Note_on_c, 0, 56, 49
4, 43200, Note_on_c, 0, 56, 0
4, 43200, Control_c, 0, 64, 127
4, 43200, Note_on_c, 0, 61, 62
4, 43440, Note_on_c, 0, 61, 0
4, 43440, Note_on_c, 0, 58, 62
4, 43680, Note_on_c, 0, 58, 0
4, 43680, Note_on_c, 0, 61, 62
4, 43920, Note_on_c, 0, 61, 0
4, 43920, Control_c, 0, 64, 0
4, 43920, Note_on_c, 0, 58, 62
4, 44160, Note_on_c, 0, 58, 0
4, 44160, Control_c, 0, 64, 127
4, 44160, Note_on_c, 0, 47, 62
4, 44640, Note_on_c, 0, 47, 0
4, 44640, Note_on_c, 0, 59, 62
4, 45120, Note_on_c, 0, 59, 0
4, 45120, Note_on_c, 0, 61, 62
4, 45600, Note_on_c, 0, 61, 0
4, 45600, Control_c, 0, 64, 0
4, 45600, Note_on_c, 0, 63, 62
4, 46080, Note_on_c, 0, 63, 0
4, 46080, Note_on_c, 0, 40, 62
4, 46080, Note_on_c, 0, 52, 62
4, 47040, Note_on_c, 0, 52, 0
4, 47040, Note_on_c, 0, 40, 0
4, 48000, Note_on_c, 0, 51, 62
4, 48000, Note_on_c, 0, 66, 62
4, 49920, Note_on_c, 0, 66, 0
4, 49920, Note_on_c, 0, 51, 0
4, 49920, Note_on_c, 0, 49, 88
4, 49920, Note_on_c, 0, 65, 88
4, 51840, Note_on_c, 0, 65, 0
4, 51840, Note_on_c, 0, 49, 0
4, 51840, Note_on_c, 0, 61, 62
4, 52320, Note_on_c, 0, 61, 0
4, 52320, Note_on_c, 0, 71, 62
4, 52800, Note_on_c, 0, 71, 0
4, 52800, Note_on_c, 0, 66, 62
4, 52800, Note_on_c, 0, 69, 62
4, 53280, Note_on_c, 0, 69, 0
4, 53280, Note_on_c, 0, 66, 0
4, 54000, Note_on_c, 0, 54, 62
4, 54000, Note_on_c, 0, 61, 62
4, 54240, Note_on_c, 0, 61, 0
4, 54240, Note_on_c, 0, 54, 0
4, 54240, Note_on_c, 0, 61, 62
4, 54240, Note_on_c, 0, 66, 62
4, 54480, Note_on_c, 0, 66, 0
4, 54480, Note_on_c, 0, 61, 0
4, 54480, Note_on_c, 0, 54, 62
4, 54480, Note_on_c, 0, 61, 62
4, 54720, Note_on_c, 0, 61, 0
4, 54720, Note_on_c, 0, 54, 0
4, 54960, Note_on_c, 0, 54, 62
4, 54960, Note_on_c, 0, 61, 62
4, 55200, Note_on_c, 0, 61, 0
4, 55200, Note_on_c, 0, 54, 0
4, 55200, Note_on_c, 0, 61, 62
4, 55200, Note_on_c, 0, 66, 62
4, 55440, Note_on_c, 0, 66, 0
4, 55440, Note_on_c, 0, 61, 0
4, 55440, Note_on_c, 0, 54, 62
4, 55440, Note_on_c, 0, 61, 62
4, 55680, Note_on_c, 0, 61, 0
4, 55680, Note_on_c, 0, 54, 0
4, 55920, Note_on_c, 0, 56, 62
4, 55920, Note_on_c, 0, 59, 62
4, 56160, Note_on_c, 0, 59, 0
4, 56160, Note_on_c, 0, 56, 0
4, 56160, Note_on_c, 0, 59, 62
4, 56160, Note_on_c, 0, 64, 62
4, 56400, Note_on_c, 0, 64, 0
4, 56400, Note_on_c, 0, 59, 0
4, 56400, Note_on_c, 0, 56, 62
4, 56400, Note_on_c, 0, 59, 62
4, 56640, Note_on_c, 0, 59, 0
4, 56640, Note_on_c, 0, 56, 0
4, 56880, Note_on_c, 0, 56, 62
4, 56880, Note_on_c, 0, 59, 62
4, 57120, Note_on_c, 0, 59, 0
4, 57120, Note_on_c, 0, 56, 0
4, 57120, Note_on_c, 0, 59, 62
4, 57120, Note_on_c, 0, 64, 62
4, 57360, Note_on_c, 0, 64, 0
4, 57360, Note_on_c, 0, 59, 0
4, 57360, Note_on_c, 0, 56, 62
4, 57360, Note_on_c, 0, 59, 62
4, 57600, Note_on_c, 0, 59, 0
4, 57600, Note_on_c, 0, 56, 0
4, 57840, Note_on_c, 0, 57, 62
4, 57840, Note_on_c, 0, 59, 62
4, 58080, Note_on_c, 0, 59, 0
4, 58080, Note_on_c, 0, 57, 0
4, 58080, Note_on_c, 0, 59, 62
4, 58080, Note_on_c, 0, 63, 62
4, 58320, Note_on_c, 0, 63, 0
4, 58320, Note_on_c, 0, 59, 0
4, 58320, Note_on_c, 0, 57, 62
4, 58320, Note_on_c, 0, 59, 62
4, 58560, Note_on_c, 0, 59, 0
4, 58560, Note_on_c, 0, 57, 0
4, 58800, Note_on_c, 0, 54, 62
4, 58800, Note_on_c, 0, 57, 62
4, 59040, Note_on_c, 0, 57, 0
4, 59040, Note_on_c, 0, 54, 0
4, 59040, Note_on_c, 0, 57, 62
4, 59040, Note_on_c, 0, 63, 62
4, 59280, Note_on_c, 0, 63, 0
4, 59280, Note_on_c, 0, 57, 0
4, 59280, Note_on_c, 0, 54, 62
4, 59280, Note_on_c, 0, 57, 62
4, 59520, Note_on_c, 0, 57, 0
4, 59520, Note_on_c, 0, 54, 0
4, 59760, Note_on_c, 0, 52, 62
4, 59760, Note_on_c, 0, 56, 62
4, 60000, Note_on_c, 0, 56, 0
4, 60000, Note_on_c, 0, 52, 0
4, 60000, Note_on_c, 0, 56, 62
4, 60000, Note_on_c, 0, 64, 62
4, 60240, Note_on_c, 0, 64, 0
4, 60240, Note_on_c, 0, 56, 0
4, 60240, Note_on_c, 0, 52, 62
4, 60240, Note_on_c, 0, 56, 62
4, 60480, Note_on_c, 0, 56, 0
4, 60480, Note_on_c, 0, 52, 0
4, 60720, Note_on_c, 0, 52, 62
4, 60720, Note_on_c, 0, 56, 62
4, 60960, Note_on_c, 0, 56, 0
4, 60960, Note_on_c, 0, 52, 0
4, 60960, Note_on_c, 0, 56, 62
4, 60960, Note_on_c, 0, 64, 62
4, 61200, Note_on_c, 0, 64, 0
4, 61200, Note_on_c, 0, 56, 0
4, 61200, Note_on_c, 0, 52, 62
4, 61200, Note_on_c, 0, 56, 62
4, 61440, Note_on_c, 0, 56, 0
4, 61440, Note_on_c, 0, 52, 0
4, 61440, Note_on_c, 0, 40, 49
4, 61440, Note_on_c, 0, 52, 49
4, 62400, Note_on_c, 0, 52, 0
4, 62400, Note_on_c, 0, 40, 0
4, 63360, Note_on_c, 0, 51, 49
4, 63360, Note_on_c, 0, 66, 49
4, 65280, Note_on_c, 0, 66, 0
4, 65280, Note_on_c, 0, 51, 0
4, 65280, Note_on_c, 0, 49, 75
4, 65280, Note_on_c, 0, 65, 75
4, 67200, Note_on_c, 0, 65, 0
4, 67200, Note_on_c, 0, 49, 0
4, 67200, Note_on_c, 0, 61, 49
4, 67680, Note_on_c, 0, 61, 0
4, 67680, Note_on_c, 0, 71, 49
4, 68160, Note_on_c, 0, 71, 0
4, 68160, Note_on_c, 0, 66, 49
4, 68160, Note_on_c, 0, 69, 49
4, 68640, Note_on_c, 0, 69, 0
4, 68640, Note_on_c, 0, 66, 0
4, 69360, Note_on_c, 0, 54, 62
4, 69360, Note_on_c, 0, 61, 62
4, 69600, Note_on_c, 0, 61, 0
4, 69600, Note_on_c, 0, 54, 0
4, 69600, Note_on_c, 0, 61, 62
4, 69600, Note_on_c, 0, 66, 62
4, 69840, Note_on_c, 0, 66, 0
4, 69840, Note_on_c, 0, 61, 0
4, 69840, Note_on_c, 0, 54, 62
4, 69840, Note_on_c, 0, 61, 62
4, 70080, Note_on_c, 0, 61, 0
4, 70080, Note_on_c, 0, 54, 0
4, 70320, Note_on_c, 0, 54, 62
4, 70320, Note_on_c, 0, 61, 62
4, 70560, Note_on_c, 0, 61, 0
4, 70560, Note_on_c, 0, 54, 0
4, 70560, Note_on_c, 0, 61, 62
4, 70560, Note_on_c, 0, 66, 62
4, 70800, Note_on_c, 0, 66, 0
4, 70800, Note_on_c, 0, 61, 0
4, 70800, Note_on_c, 0, 54, 62
4, 70800, Note_on_c, 0, 61, 62
4, 71040, Note_on_c, 0, 61, 0
4, 71040, Note_on_c, 0, 54, 0
4, 71280, Note_on_c, 0, 56, 62
4, 71280, Note_on_c, 0, 59, 62
4, 71520, Note_on_c, 0, 59, 0
4, 71520, Note_on_c, 0, 56, 0
4, 71520, Note_on_c, 0, 59, 62
4, 71520, Note_on_c, 0, 64, 62
4, 71760, Note_on_c, 0, 64, 0
4, 71760, Note_on_c, 0, 59, 0
4, 71760, Note_on_c, 0, 56, 62
4, 71760, Note_on_c, 0, 59, 62
4, 72000, Note_on_c, 0, 59, 0
4, 72000, Note_on_c, 0, 56, 0
4, 72240, Note_on_c, 0, 56, 62
4, 72240, Note_on_c, 0, 59, 62
4, 72480, Note_on_c, 0, 59, 0
4, 72480, Note_on_c, 0, 56, 0
4, 72480, Note_on_c, 0, 59, 62
4, 72480, Note_on_c, 0, 64, 62
4, 72720, Note_on_c, 0, 64, 0
4, 72720, Note_on_c, 0, 59, 0
4, 72720, Note_on_c, 0, 56, 62
4, 72720, Note_on_c, 0, 59, 62
4, 72960, Note_on_c, 0, 59, 0
4, 72960, Note_on_c, 0, 56, 0
4, 73200, Note_on_c, 0, 57, 62
4, 73200, Note_on_c, 0, 59, 62
4, 73440, Note_on_c, 0, 59, 0
4, 73440, Note_on_c, 0, 57, 0
4, 73440, Note_on_c, 0, 59, 62
4, 73440, Note_on_c, 0, 63, 62
4, 73680, Note_on_c, 0, 63, 0
4, 73680, Note_on_c, 0, 59, 0
4, 73680, Note_on_c, 0, 57, 62
4, 73680, Note_on_c, 0, 59, 62
4, 73920, Note_on_c, 0, 59, 0
4, 73920, Note_on_c, 0, 57, 0
4, 74160, Note_on_c, 0, 54, 62
4, 74160, Note_on_c, 0, 57, 62
4, 74400, Note_on_c, 0, 57, 0
4, 74400, Note_on_c, 0, 54, 0
4, 74400, Note_on_c, 0, 57, 62
4, 74400, Note_on_c, 0, 63, 62
4, 74640, Note_on_c, 0, 63, 0
4, 74640, Note_on_c, 0, 57, 0
4, 74640, Note_on_c, 0, 54, 62
4, 74640, Note_on_c, 0, 57, 62
4, 74880, Note_on_c, 0, 57, 0
4, 74880, Note_on_c, 0, 54, 0
4, 74880, Note_on_c, 0, 49, 62
4, 74880, Note_on_c, 0, 53, 62
4, 74880, Note_on_c, 0, 59, 62
4, 75360, Note_on_c, 0, 59, 0
4, 75360, Note_on_c, 0, 53, 0
4, 75360, Note_on_c, 0, 49, 0
4, 76720, Note_on_c, 0, 42, 49
4, 76760, Note_on_c, 0, 49, 49
4, 76800, Note_on_c, 0, 57, 49
4, 78720, Note_on_c, 0, 57, 0
4, 78720, Note_on_c, 0, 49, 0
4, 78720, Note_on_c, 0, 42, 0
4, 78720, Note_on_c, 0, 66, 49
4, 78720, Note_on_c, 0, 69, 49
4, 80160, Note_on_c, 0, 69, 0
4, 80160, Note_on_c, 0, 66, 0
4, 80560, Note_on_c, 0, 42, 49
4, 80600, Note_on_c, 0, 49, 49
4, 80640, Note_on_c, 0, 57, 49
4, 82560, Note_on_c, 0, 57, 0
4, 82560, Note_on_c, 0, 49, 0
4, 82560, Note_on_c, 0, 42, 0
4, 82560, Note_on_c, 0, 66, 49
4, 82560, Note_on_c, 0, 69, 49
4, 84000, Note_on_c, 0, 69, 0
4, 84000, Note_on_c, 0, 66, 0
4, 84000, Control_c, 0, 64, 127
4, 84000, Note_on_c, 0, 61, 49
4, 84480, Note_on_c, 0, 61, 0
4, 84480, Note_on_c, 0, 68, 49
4, 84960, Note_on_c, 0, 68, 0
4, 84960, Note_on_c, 0, 66, 49
4, 85440, Note_on_c, 0, 66, 0
4, 85440, Control_c, 0, 64, 0
4, 85440, Note_on_c, 0, 61, 49
4, 85920, Note_on_c, 0, 61, 0
4, 85920, Control_c, 0, 64, 127
4, 85920, Note_on_c, 0, 66, 49
4, 86400, Note_on_c, 0, 66, 0
4, 86400, Note_on_c, 0, 68, 49
4, 86880, Note_on_c, 0, 68, 0
4, 86880, Note_on_c, 0, 66, 49
4, 87360, Note_on_c, 0, 66, 0
4, 87360, Control_c, 0, 64, 0
4, 87360, Note_on_c, 0, 61, 49
4, 87840, Note_on_c, 0, 61, 0
4, 87840, Note_on_c, 0, 66, 75
4, 88320, Note_on_c, 0, 66, 0
4, 88320, Control_c, 0, 64, 127
4, 88320, Note_on_c, 0, 68, 75
4, 88560, Note_on_c, 0, 68, 0
4, 88560, Note_on_c, 0, 66, 75
4, 88800, Note_on_c, 0, 66, 0
4, 88800, Note_on_c, 0, 61, 75
4, 89040, Note_on_c, 0, 61, 0
4, 89040, Control_c, 0, 64, 0
4, 89040, Note_on_c, 0, 66, 75
4, 89280, Note_on_c, 0, 66, 0
4, 89280, Control_c, 0, 64, 127
4, 89280, Note_on_c, 0, 68, 75
4, 89520, Note_on_c, 0, 68, 0
4, 89520, Note_on_c, 0, 66, 75
4, 89760, Note_on_c, 0, 66, 0
4, 89760, Note_on_c, 0, 61, 75
4, 90000, Note_on_c, 0, 61, 0
4, 90000, Control_c, 0, 64, 0
4, 90000, Note_on_c, 0, 66, 75
4, 90240, Note_on_c, 0, 66, 0
4, 90240, Control_c, 0, 64, 127
4, 90240, Note_on_c, 0, 68, 75
4, 90480, Note_on_c, 0, 68, 0
4, 90480, Note_on_c, 0, 66, 75
4, 90720, Note_on_c, 0, 66, 0
4, 90720, Note_on_c, 0, 61, 75
4, 90960, Note_on_c, 0, 61, 0
4, 90960, Control_c, 0, 64, 0
4, 90960, Note_on_c, 0, 66, 75
4, 91200, Note_on_c, 0, 66, 0
4, 91200, Control_c, 0, 64, 127
4, 91200, Note_on_c, 0, 68, 75
4, 91440, Note_on_c, 0, 68, 0
4, 91440, Note_on_c, 0, 66, 75
4, 91680, Note_on_c, 0, 66, 0
4, 91680, Note_on_c, 0, 61, 75
4, 91920, Note_on_c, 0, 61, 0
4, 91920, Control_c, 0, 64, 0
4, 91920, Note_on_c, 0, 66, 75
4, 92160, Note_on_c, 0, 66, 0
4, 92160, Control_c, 0, 64, 127
4, 92160, Note_on_c, 0, 68, 75
4, 92280, Note_on_c, 0, 68, 0
4, 92280, Note_on_c, 0, 66, 75
4, 92400, Note_on_c, 0, 66, 0
4, 92400, Note_on_c, 0, 61, 75
4, 92520, Note_on_c, 0, 61, 0
4, 92520, Control_c, 0, 64, 0
4, 92520, Note_on_c, 0, 66, 75
4, 92640, Note_on_c, 0, 66, 0
4, 92640, Control_c, 0, 64, 127
4, 92640, Note_on_c, 0, 68, 75
4, 92760, Note_on_c, 0, 68, 0
4, 92760, Note_on_c, 0, 66, 75
4, 92880, Note_on_c, 0, 66, 0
4, 92880, Note_on_c, 0, 61, 75
4, 93000, Note_on_c, 0, 61, 0
4, 93000, Control_c, 0, 64, 0
4, 93000, Note_on_c, 0, 66, 75
4, 93120, Note_on_c, 0, 66, 0
4, 93120, Control_c, 0, 64, 127
4, 93120, Note_on_c, 0, 68, 75
4, 93240, Note_on_c, 0, 68, 0
4, 93240, Note_on_c, 0, 66, 75
4, 93360, Note_on_c, 0, 66, 0
4, 93360, Note_on_c, 0, 61, 75
4, 93480, Note_on_c, 0, 61, 0
4, 93480, Control_c, 0, 64, 0
4, 93480, Note_on_c, 0, 66, 75
4, 93600, Note_on_c, 0, 66, 0
4, 93600, Control_c, 0, 64, 127
4, 93600, Note_on_c, 0, 68, 75
4, 93720, Note_on_c, 0, 68, 0
4, 93720, Note_on_c, 0, 66, 75
4, 93840, Note_on_c, 0, 66, 0
4, 93840, Note_on_c, 0, 61, 75
4, 93960, Note_on_c, 0, 61, 0
4, 93960, Control_c, 0, 64, 0
4, 93960, Note_on_c, 0, 66, 75
4, 94080, Note_on_c, 0, 66, 0
4, 94080, Note_on_c, 0, 68, 62
4, 94200, Note_on_c, 0, 68, 0
4, 94200, Note_on_c, 0, 66, 62
4, 94320, Note_on_c, 0, 66, 0
4, 94320, Note_on_c, 0, 61, 62
4, 94440, Note_on_c, 0, 61, 0
4, 94440, Note_on_c, 0, 63, 62
4, 94560, Note_on_c, 0, 63, 0
4, 94560, Note_on_c, 0, 65, 75
4, 94680, Note_on_c, 0, 65, 0
4, 94680, Note_on_c, 0, 66, 75
4, 94800, Note_on_c, 0, 66, 0
4, 94800, Note_on_c, 0, 68, 75
4, 94920, Note_on_c, 0, 68, 0
4, 94920, Note_on_c, 0, 69, 75
4, 95040, Note_on_c, 0, 69, 0
4, 95040, Note_on_c, 0, 71, 75
4, 95160, Note_on_c, 0, 71, 0
4, 95160, Note_on_c, 0, 69, 75
4, 95280, Note_on_c, 0, 69, 0
4, 95280, Note_on_c, 0, 68, 75
4, 95400, Note_on_c, 0, 68, 0
4, 95400, Note_on_c, 0, 69, 75
4, 95520, Note_on_c, 0, 69, 0
4, 95520, Note_on_c, 0, 71, 88
4, 95640, Note_on_c, 0, 71, 0
4, 95640, Note_on_c, 0, 73, 88
4, 95760, Note_on_c, 0, 73, 0
4, 96000, Note_on_c, 0, 42, 88
4, 96000, Note_on_c, 0, 49, 88
4, 96000, Note_on_c, 0, 57, 88
4, 96240, Note_on_c, 0, 57, 0
4, 96240, Note_on_c, 0, 49, 0
4, 96240, Note_on_c, 0, 42, 0
4, 98400, Note_on_c, 0, 45, 62
4, 98640, Note_on_c, 0, 45, 0
4, 98640, Note_on_c, 0, 52, 62
4, 98640, Note_on_c, 0, 54, 62
4, 98640, Note_on_c, 0, 61, 62
4, 98880, Note_on_c, 0, 61, 0
4, 98880, Note_on_c, 0, 54, 0
4, 98880, Note_on_c, 0, 52, 0
4, 98880, Note_on_c, 0, 45, 62
4, 99120, Note_on_c, 0, 45, 0
4, 99120, Note_on_c, 0, 52, 62
4, 99120, Note_on_c, 0, 54, 62
4, 99120, Note_on_c, 0, 61, 62
4, 99360, Note_on_c, 0, 61, 0
4, 99360, Note_on_c, 0, 54, 0
4, 99360, Note_on_c, 0, 52, 0
4, 99360, Note_on_c, 0, 47, 62
4, 99600, Note_on_c, 0, 47, 0
4, 99600, Note_on_c, 0, 52, 62
4, 99600, Note_on_c, 0, 56, 62
4, 99600, Note_on_c, 0, 59, 62
4, 99840, Note_on_c, 0, 59, 0
4, 99840, Note_on_c, 0, 56, 0
4, 99840, Note_on_c, 0, 52, 0
4, 99840, Note_on_c, 0, 47, 62
4, 100080, Note_on_c, 0, 47, 0
4, 100080, Note_on_c, 0, 52, 62
4, 100080, Note_on_c, 0, 56, 62
4, 100080, Note_on_c, 0, 59, 62
4, 100320, Note_on_c, 0, 59, 0
4, 100320, Note_on_c, 0, 56, 0
4, 100320, Note_on_c, 0, 52, 0
4, 100320, Note_on_c, 0, 47, 62
4, 100560, Note_on_c, 0, 47, 0
4, 100560, Note_on_c, 0, 54, 62
4, 100560, Note_on_c, 0, 57, 62
4, 100800, Note_on_c, 0, 57, 0
4, 100800, Note_on_c, 0, 54, 0
4, 100800, Note_on_c, 0, 47, 62
4, 101040, Note_on_c, 0, 47, 0
4, 101040, Note_on_c, 0, 54, 62
4, 101040, Note_on_c, 0, 57, 62
4, 101280, Note_on_c, 0, 57, 0
4, 101280, Note_on_c, 0, 54, 0
4, 101280, Note_on_c, 0, 40, 62
4, 101520, Note_on_c, 0, 40, 0
4, 101520, Note_on_c, 0, 47, 62
4, 101520, Note_on_c, 0, 52, 62
4, 101520, Note_on_c, 0, 56, 62
4, 101760, Note_on_c, 0, 56, 0
4, 101760, Note_on_c, 0, 52, 0
4, 101760, Note_on_c, 0, 47, 0
4, 101760, Note_on_c, 0, 40, 62
4, 102000, Note_on_c, 0, 40, 0
4, 102000, Note_on_c, 0, 47, 62
4, 102000, Note_on_c, 0, 52, 62
4, 102000, Note_on_c, 0, 56, 62
4, 102240, Note_on_c, 0, 56, 0
4, 102240, Note_on_c, 0, 52, 0
4, 102240, Note_on_c, 0, 47, 0
4, 102240, Note_on_c, 0, 45, 62
4, 102480, Note_on_c, 0, 45, 0
4, 102480, Note_on_c, 0, 52, 62
4, 102480, Note_on_c, 0, 54, 62
4, 102480, Note_on_c, 0, 61, 62
4, 102720, Note_on_c, 0, 61, 0
4, 102720, Note_on_c, 0, 54, 0
4, 102720, Note_on_c, 0, 52, 0
4, 102720, Note_on_c, 0, 45, 62
4, 102960, Note_on_c, 0, 45, 0
4, 102960, Note_on_c, 0, 52, 62
4, 102960, Note_on_c, 0, 54, 62
4, 102960, Note_on_c, 0, 61, 62
4, 103200, Note_on_c, 0, 61, 0
4, 103200, Note_on_c, 0, 54, 0
4, 103200, Note_on_c, 0, 52, 0
4, 103200, Note_on_c, 0, 47, 62
4, 103440, Note_on_c, 0, 47, 0
4, 103440, Note_on_c, 0, 52, 62
4, 103440, Note_on_c, 0, 56, 62
4, 103440, Note_on_c, 0, 59, 62
4, 103680, Note_on_c, 0, 59, 0
4, 103680, Note_on_c, 0, 56, 0
4, 103680, Note_on_c, 0, 52, 0
4, 103680, Note_on_c, 0, 47, 62
4, 103920, Note_on_c, 0, 47, 0
4, 103920, Note_on_c, 0, 52, 62
4, 103920, Note_on_c, 0, 56, 62
4, 103920, Note_on_c, 0, 59, 62
4, 104160, Note_on_c, 0, 59, 0
4, 104160, Note_on_c, 0, 56, 0
4, 104160, Note_on_c, 0, 52, 0
4, 104160, Note_on_c, 0, 47, 62
4, 104160, Note_on_c, 0, 54, 62
4, 104160, Note_on_c, 0, 57, 62
4, 104160, Note_on_c, 0, 59, 62
4, 105120, Note_on_c, 0, 59, 0
4, 105120, Note_on_c, 0, 47, 0
4, 105120, Note_on_c, 0, 54, 0
4, 105120, Note_on_c, 0, 57, 0
4, 105120, Note_on_c, 0, 52, 62
4, 105120, Note_on_c, 0, 56, 62
4, 105120, Note_on_c, 0, 59, 62
4, 105360, Note_on_c, 0, 59, 0
4, 105360, Note_on_c, 0, 56, 0
4, 105360, Note_on_c, 0, 52, 0
4, 106080, Note_on_c, 0, 45, 88
4, 106320, Note_on_c, 0, 45, 0
4, 106320, Note_on_c, 0, 54, 88
4, 106320, Note_on_c, 0, 61, 88
4, 106320, Note_on_c, 0, 64, 88
4, 106560, Note_on_c, 0, 64, 0
4, 106560, Note_on_c, 0, 61, 0
4, 106560, Note_on_c, 0, 54, 0
4, 106560, Note_on_c, 0, 45, 88
4, 106800, Note_on_c, 0, 45, 0
4, 106800, Note_on_c, 0, 54, 88
4, 106800, Note_on_c, 0, 61, 88
4, 106800, Note_on_c, 0, 64, 88
4, 107040, Note_on_c, 0, 64, 0
4, 107040, Note_on_c, 0, 61, 0
4, 107040, Note_on_c, 0, 54, 0
4, 107040, Note_on_c, 0, 47, 88
4, 107280, Note_on_c, 0, 47, 0
4, 107280, Note_on_c, 0, 56, 88
4, 107280, Note_on_c, 0, 59, 88
4, 107280, Note_on_c, 0, 64, 88
4, 107520, Note_on_c, 0, 64, 0
4, 107520, Note_on_c, 0, 59, 0
4, 107520, Note_on_c, 0, 56, 0
4, 107520, Note_on_c, 0, 47, 88
4, 107760, Note_on_c, 0, 47, 0
4, 107760, Note_on_c, 0, 56, 88
4, 107760, Note_on_c, 0, 59, 88
4, 107760, Note_on_c, 0, 64, 88
4, 108000, Note_on_c, 0, 64, 0
4, 108000, Note_on_c, 0, 59, 0
4, 108000, Note_on_c, 0, 56, 0
4, 108000, Note_on_c, 0, 47, 88
4, 108240, Note_on_c, 0, 47, 0
4, 108240, Note_on_c, 0, 54, 88
4, 108240, Note_on_c, 0, 57, 88
4, 108240, Note_on_c, 0, 59, 88
4, 108480, Note_on_c, 0, 59, 0
4, 108480, Note_on_c, 0, 57, 0
4, 108480, Note_on_c, 0, 54, 0
4, 108480, Note_on_c, 0, 47, 88
4, 108720, Note_on_c, 0, 47, 0
4, 108720, Note_on_c, 0, 54, 88
4, 108720, Note_on_c, 0, 57, 88
4, 108720, Note_on_c, 0, 59, 88
4, 108960, Note_on_c, 0, 59, 0
4, 108960, Note_on_c, 0, 57, 0
4, 108960, Note_on_c, 0, 54, 0
4, 108960, Note_on_c, 0, 40, 88
4, 109200, Note_on_c, 0, 40, 0
4, 109200, Note_on_c, 0, 52, 88
4, 109200, Note_on_c, 0, 56, 88
4, 109200, Note_on_c, 0, 59, 88
4, 109440, Note_on_c, 0, 59, 0
4, 109440, Note_on_c, 0, 56, 0
4, 109440, Note_on_c, 0, 52, 0
4, 109440, Note_on_c, 0, 40, 88
4, 109680, Note_on_c, 0, 40, 0
4, 109680, Note_on_c, 0, 52, 88
4, 109680, Note_on_c, 0, 56, 88
4, 109680, Note_on_c, 0, 59, 88
4, 109920, Note_on_c, 0, 59, 0
4, 109920, Note_on_c, 0, 56, 0
4, 109920, Note_on_c, 0, 52, 0
4, 109920, Note_on_c, 0, 45, 88
4, 110160, Note_on_c, 0, 45, 0
4, 110160, Note_on_c, 0, 54, 88
4, 110160, Note_on_c, 0, 61, 88
4, 110160, Note_on_c, 0, 64, 88
4, 110400, Note_on_c, 0, 64, 0
4, 110400, Note_on_c, 0, 61, 0
4, 110400, Note_on_c, 0, 54, 0
4, 110400, Note_on_c, 0, 45, 88
4, 110640, Note_on_c, 0, 45, 0
4, 110640, Note_on_c, 0, 54, 88
4, 110640, Note_on_c, 0, 61, 88
4, 110640, Note_on_c, 0, 64, 88
4, 110880, Note_on_c, 0, 64, 0
4, 110880, Note_on_c, 0, 61, 0
4, 110880, Note_on_c, 0, 54, 0
4, 110880, Note_on_c, 0, 47, 88
4, 111120, Note_on_c, 0, 47, 0
4, 111120, Note_on_c, 0, 56, 88
4, 111120, Note_on_c, 0, 59, 88
4, 111120, Note_on_c, 0, 64, 88
4, 111360, Note_on_c, 0, 64, 0
4, 111360, Note_on_c, 0, 59, 0
4, 111360, Note_on_c, 0, 56, 0
4, 111360, Note_on_c, 0, 47, 88
4, 111600, Note_on_c, 0, 47, 0
4, 111600, Note_on_c, 0, 56, 88
4, 111600, Note_on_c, 0, 59, 88
4, 111600, Note_on_c, 0, 64, 88
4, 111840, Note_on_c, 0, 64, 0
4, 111840, Note_on_c, 0, 59, 0
4, 111840, Note_on_c, 0, 56, 0
4, 111840, Note_on_c, 0, 47, 88
4, 111840, Note_on_c, 0, 54, 88
4, 111840, Note_on_c, 0, 57, 88
4, 111840, Note_on_c, 0, 59, 88
4, 112080, Note_on_c, 0, 59, 0
4, 112080, Note_on_c, 0, 47, 0
4, 112080, Note_on_c, 0, 54, 0
4, 112080, Note_on_c, 0, 57, 0
4, 112800, Note_on_c, 0, 52, 88
4, 112800, Note_on_c, 0, 56, 88
4, 112800, Note_on_c, 0, 59, 88
4, 113280, Note_on_c, 0, 59, 0
4, 113280, Note_on_c, 0, 56, 0
4, 113280, Note_on_c, 0, 52, 0
4, 113280, Note_on_c, 0, 49, 88
4, 113280, Note_on_c, 0, 53, 88
4, 113280, Note_on_c, 0, 56, 88
4, 113280, Note_on_c, 0, 61, 88
4, 113760, Note_on_c, 0, 61, 0
4, 113760, Note_on_c, 0, 49, 0
4, 113760, Note_on_c, 0, 53, 0
4, 113760, Note_on_c, 0, 56, 0
4, 113760, Note_on_c, 0, 54, 88
4, 113760, Note_on_c, 0, 57, 88
4, 113760, Note_on_c, 0, 61, 88
4, 114240, Note_on_c, 0, 61, 0
4, 114240, Note_on_c, 0, 57, 0
4, 114240, Note_on_c, 0, 54, 0
4, 114240, Note_on_c, 0, 47, 88
4, 114240, Note_on_c, 0, 51, 88
4, 114240, Note_on_c, 0, 54, 88
4, 114240, Note_on_c, 0, 59, 88
4, 114720, Note_on_c, 0, 59, 0
4, 114720, Note_on_c, 0, 47, 0
4, 114720, Note_on_c, 0, 51, 0
4, 114720, Note_on_c, 0, 54, 0
4, 114720, Note_on_c, 0, 52, 88
4, 114720, Note_on_c, 0, 56, 88
4, 114720, Note_on_c, 0, 59, 88
4, 115200, Note_on_c, 0, 59, 0
4, 115200, Note_on_c, 0, 56, 0
4, 115200, Note_on_c, 0, 52, 0
4, 115200, Note_on_c, 0, 49, 88
4, 115200, Note_on_c, 0, 53, 88
4, 115200, Note_on_c, 0, 56, 88
4, 115200, Note_on_c, 0, 61, 88
4, 115680, Note_on_c, 0, 61, 0
4, 115680, Note_on_c, 0, 49, 0
4, 115680, Note_on_c, 0, 53, 0
4, 115680, Note_on_c, 0, 56, 0
4, 115680, Note_on_c, 0, 54, 88
4, 115680, Note_on_c, 0, 57, 88
4, 115680, Note_on_c, 0, 61, 88
4, 116160, Note_on_c, 0, 61, 0
4, 116160, Note_on_c, 0, 57, 0
4, 116160, Note_on_c, 0, 54, 0
4, 116160, Note_on_c, 0, 47, 88
4, 116160, Note_on_c, 0, 51, 88
4, 116160, Note_on_c, 0, 54, 88
4, 116160, Note_on_c, 0, 59, 88
4, 116640, Note_on_c, 0, 59, 0
4, 116640, Note_on_c, 0, 47, 0
4, 116640, Note_on_c, 0, 51, 0
4, 116640, Note_on_c, 0, 54, 0
4, 116640, Note_on_c, 0, 52, 88
4, 116640, Note_on_c, 0, 56, 88
4, 116640, Note_on_c, 0, 59, 88
4, 117120, Note_on_c, 0, 59, 0
4, 117120, Note_on_c, 0, 56, 0
4, 117120, Note_on_c, 0, 52, 0
4, 117120, Note_on_c, 0, 49, 88
4, 117120, Note_on_c, 0, 53, 88
4, 117120, Note_on_c, 0, 56, 88
4, 117120, Note_on_c, 0, 61, 88
4, 117600, Note_on_c, 0, 61, 0
4, 117600, Note_on_c, 0, 49, 0
4, 117600, Note_on_c, 0, 53, 0
4, 117600, Note_on_c, 0, 56, 0
4, 117600, Note_on_c, 0, 54, 88
4, 117600, Note_on_c, 0, 57, 88
4, 117600, Note_on_c, 0, 61, 88
4, 118080, Note_on_c, 0, 61, 0
4, 118080, Note_on_c, 0, 57, 0
4, 118080, Note_on_c, 0, 54, 0
4, 118080, Note_on_c, 0, 47, 88
4, 118080, Note_on_c, 0, 51, 88
4, 118080, Note_on_c, 0, 54, 88
4, 118080, Note_on_c, 0, 59, 88
4, 118560, Note_on_c, 0, 59, 0
4, 118560, Note_on_c, 0, 47, 0
4, 118560, Note_on_c, 0, 51, 0
4, 118560, Note_on_c, 0, 54, 0
4, 118560, Note_on_c, 0, 52, 88
4, 118560, Note_on_c, 0, 56, 88
4, 118560, Note_on_c, 0, 59, 88
4, 119040, Note_on_c, 0, 59, 0
4, 119040, Note_on_c, 0, 56, 0
4, 119040, Note_on_c, 0, 52, 0
4, 119040, Note_on_c, 0, 49, 88
4, 119040, Note_on_c, 0, 53, 88
4, 119040, Note_on_c, 0, 56, 88
4, 119040, Note_on_c, 0, 61, 88
4, 119520, Note_on_c, 0, 61, 0
4, 119520, Note_on_c, 0, 49, 0
4, 119520, Note_on_c, 0, 53, 0
4, 119520, Note_on_c, 0, 56, 0
4, 119520, Note_on_c, 0, 54, 88
4, 119520, Note_on_c, 0, 57, 88
4, 119520, Note_on_c, 0, 61, 88
4, 120000, Note_on_c, 0, 61, 0
4, 120000, Note_on_c, 0, 57, 0
4, 120000, Note_on_c, 0, 54, 0
4, 120000, Note_on_c, 0, 47, 88
4, 120000, Note_on_c, 0, 51, 88
4, 120000, Note_on_c, 0, 54, 88
4, 120000, Note_on_c, 0, 59, 88
4, 120480, Note_on_c, 0, 59, 0
4, 120480, Note_on_c, 0, 47, 0
4, 120480, Note_on_c, 0, 51, 0
4, 120480, Note_on_c, 0, 54, 0
4, 120480, Note_on_c, 0, 52, 88
4, 120480, Note_on_c, 0, 56, 88
4, 120480, Note_on_c, 0, 59, 88
4, 120720, Note_on_c, 0, 59, 0
4, 120720, Note_on_c, 0, 56, 0
4, 120720, Note_on_c, 0, 52, 0
4, 120720, Note_on_c, 0, 52, 88
4, 120720, Note_on_c, 0, 64, 88
4, 120960, Note_on_c, 0, 64, 0
4, 120960, Note_on_c, 0, 52, 0
4, 120960, Note_on_c, 0, 40, 114
4, 120960, Note_on_c, 0, 52, 114
4, 121440, Note_on_c, 0, 52, 0
4, 121440, Note_on_c, 0, 40, 0
4, 121440, End_track
5, 0, Start_track
5, 0, Title_t, "Grand Piano"
5, 0, Program_c, 0, 0
5, 0, Control_c, 0, 7, 115
5, 0, Control_c, 0, 10, 48
5, 0, Note_on_c, 0, 52, 49
5, 1920, Note_on_c, 0, 52, 0
5, 1920, Note_on_c, 0, 51, 49
5, 3840, Note_on_c, 0, 51, 0
5, 3840, Note_on_c, 0, 50, 49
5, 3840, Note_on_c, 0, 52, 49
5, 5760, Note_on_c, 0, 52, 0
5, 5760, Note_on_c, 0, 50, 0
5, 7680, Note_on_c, 0, 49, 62
5, 7680, Note_on_c, 0, 54, 62
5, 9600, Note_on_c, 0, 54, 0
5, 9600, Note_on_c, 0, 49, 0
5, 9600, Note_on_c, 0, 47, 62
5, 9600, Note_on_c, 0, 52, 62
5, 9600, Note_on_c, 0, 56, 62
5, 11520, Note_on_c, 0, 56, 0
5, 11520, Note_on_c, 0, 52, 0
5, 11520, Note_on_c, 0, 47, 0
5, 11520, Note_on_c, 0, 48, 62
5, 12480, Note_on_c, 0, 48, 0
5, 12480, Note_on_c, 0, 47, 62
5, 13440, Note_on_c, 0, 47, 0
5, 13440, Note_on_c, 0, 40, 62
5, 14880, Note_on_c, 0, 40, 0
5, 15360, Note_on_c, 0, 52, 49
5, 17280, Note_on_c, 0, 52, 0
5, 17280, Note_on_c, 0, 51, 49
5, 19200, Note_on_c, 0, 51, 0
5, 19200, Note_on_c, 0, 50, 49
5, 21120, Note_on_c, 0, 50, 0
5, 21120, Note_on_c, 0, 49, 62
5, 22080, Note_on_c, 0, 49, 0
5, 22080, Note_on_c, 0, 54, 62
5, 23040, Note_on_c, 0, 54, 0
5, 23040, Note_on_c, 0, 54, 62
5, 24480, Note_on_c, 0, 54, 0
5, 24480, Note_on_c, 0, 57, 62
5, 24960, Note_on_c, 0, 57, 0
5, 24960, Note_on_c, 0, 47, 62
5, 25440, Note_on_c, 0, 47, 0
5, 26880, Note_on_c, 0, 59, 62
5, 28800, Note_on_c, 0, 59, 0
5, 28800, Note_on_c, 0, 52, 62
5, 30720, Note_on_c, 0, 52, 0
5, 30720, Note_on_c, 0, 37, 49
5, 30720, Note_on_c, 0, 49, 49
5, 34560, Note_on_c, 0, 49, 0
5, 34560, Note_on_c, 0, 37, 0
5, 34560, Note_on_c, 0, 49, 49
5, 38400, Note_on_c, 0, 49, 0
5, 38400, Note_on_c, 0, 49, 49
5, 42240, Note_on_c, 0, 49, 0
5, 42240, Note_on_c, 0, 42, 49
5, 44160, Note_on_c, 0, 42, 0
5, 44160, Control_c, 0, 64, 127
5, 44160, Note_on_c, 0, 47, 49
5, 44400, Note_on_c, 0, 47, 0
5, 44400, Note_on_c, 0, 54, 49
5, 44400, Note_on_c, 0, 57, 49
5, 44640, Note_on_c, 0, 57, 0
5, 44640, Note_on_c, 0, 54, 0
5, 44640, Note_on_c, 0, 59, 49
5, 44880, Note_on_c, 0, 59, 0
5, 44880, Note_on_c, 0, 54, 49
5, 44880, Note_on_c, 0, 57, 49
5, 45120, Note_on_c, 0, 57, 0
5, 45120, Note_on_c, 0, 54, 0
5, 45120, Note_on_c, 0, 61, 49
5, 45360, Note_on_c, 0, 61, 0
5, 45360, Note_on_c, 0, 54, 49
5, 45360, Note_on_c, 0, 57, 49
5, 45600, Note_on_c, 0, 57, 0
5, 45600, Note_on_c, 0, 54, 0
5, 45600, Control_c, 0, 64, 0
5, 45600, Note_on_c, 0, 63, 49
5, 45840, Note_on_c, 0, 63, 0
5, 45840, Note_on_c, 0, 54, 49
5, 45840, Note_on_c, 0, 57, 49
5, 46080, Note_on_c, 0, 57, 0
5, 46080, Note_on_c, 0, 54, 0
5, 51840, Note_on_c, 0, 49, 49
5, 52800, Note_on_c, 0, 49, 0
5, 53760, Note_on_c, 0, 33, 62
5, 53760, Note_on_c, 0, 45, 62
5, 55680, Note_on_c, 0, 45, 0
5, 55680, Note_on_c, 0, 33, 0
5, 55680, Note_on_c, 0, 35, 62
5, 55680, Note_on_c, 0, 47, 62
5, 57600, Note_on_c, 0, 47, 0
5, 57600, Note_on_c, 0, 35, 0
5, 57600, Note_on_c, 0, 35, 62
5, 57600, Note_on_c, 0, 47, 62
5, 58560, Note_on_c, 0, 47, 0
5, 58560, Note_on_c, 0, 35, 0
5, 59520, Note_on_c, 0, 40, 62
5, 59520, Note_on_c, 0, 52, 62
5, 60480, Note_on_c, 0, 52, 0
5, 60480, Note_on_c, 0, 40, 0
5, 67200, Note_on_c, 0, 49, 62
5, 68160, Note_on_c, 0, 49, 0
5, 69120, Note_on_c, 0, 33, 62
5, 69120, Note_on_c, 0, 45, 62
5, 71040, Note_on_c, 0, 45, 0
5, 71040, Note_on_c, 0, 33, 0
5, 71040, Note_on_c, 0, 35, 62
5, 71040, Note_on_c, 0, 47, 62
5, 72960, Note_on_c, 0, 47, 0
5, 72960, Note_on_c, 0, 35, 0
5, 72960, Note_on_c, 0, 35, 62
5, 72960, Note_on_c, 0, 47, 62
5, 73920, Note_on_c, 0, 47, 0
5, 73920, Note_on_c, 0, 35, 0
5, 73920, End_track
0, 0, End_of_file
