0, 0, Header, 1, 5, 480
1, 0, Start_track
1, 0, Title_t, "tchaikovsky swan lake act2 12 scene"
1, 0, Copyright_t, "Adaptation for Disklavier pianos, by: Robert C. Kuhmann (c) 2012."
1, 0, Text_t, "Seq. (c) by: Segundo G. Yogore,  2007\012"
1, 0, Time_signature, 4, 2, 24, 8
1, 0, Key_signature, 0, "major"
1, 0, Tempo, 454545
1, 161280, Time_signature, 7, 2, 24, 8
1, 164640, Time_signature, 4, 2, 24, 8
1, 164640, Tempo, 666667
1, 191520, Time_signature, 8, 2, 24, 8
1, 191520, End_track
2, 0, Start_track
2, 0, Title_t, "Grand Piano"
2, 0, Program_c, 0, 0
2, 0, Control_c, 0, 7, 115
2, 0, Control_c, 0, 10, 86
2, 480, Note_on_c, 0, 63, 62
2, 960, Note_on_c, 0, 63, 0
2, 960, Note_on_c, 0, 65, 62
2, 1200, Note_on_c, 0, 65, 0
2, 1200, Note_on_c, 0, 63, 62
2, 1223, Note_on_c, 0, 63, 0
2, 1320, Note_on_c, 0, 65, 62
2, 1343, Note_on_c, 0, 65, 0
2, 1440, Note_on_c, 0, 66, 62
2, 1920, Note_on_c, 0, 66, 0
2, 1920, Note_on_c, 0, 65, 75
2, 2160, Note_on_c, 0, 65, 0
2, 2160, Note_on_c, 0, 68, 75
2, 2400, Note_on_c, 0, 68, 0
2, 2400, Note_on_c, 0, 70, 75
2, 2880, Note_on_c, 0, 70, 0
2, 2880, Note_on_c, 0, 72, 75
2, 3120, Note_on_c, 0, 72, 0
2, 3120, Note_on_c, 0, 70, 75
2, 3143, Note_on_c, 0, 70, 0
2, 3240, Note_on_c, 0, 72, 75
2, 3263, Note_on_c, 0, 72, 0
2, 3360, Note_on_c, 0, 73, 75
2, 3840, Note_on_c, 0, 73, 0
2, 3840, Note_on_c, 0, 70, 75
2, 4080, Note_on_c, 0, 70, 0
2, 4080, Note_on_c, 0, 75, 75
2, 4320, Note_on_c, 0, 75, 0
2, 4320, Note_on_c, 0, 77, 75
2, 4800, Note_on_c, 0, 77, 0
2, 4800, Note_on_c, 0, 73, 75
2, 5040, Note_on_c, 0, 73, 0
2, 5040, Note_on_c, 0, 75, 75
2, 5063, Note_on_c, 0, 75, 0
2, 5160, Note_on_c, 0, 77, 75
2, 5183, Note_on_c, 0, 77, 0
2, 5280, Note_on_c, 0, 78, 75
2, 5760, Note_on_c, 0, 78, 0
2, 5760, Note_on_c, 0, 75, 75
2, 6000, Note_on_c, 0, 75, 0
2, 6000, Note_on_c, 0, 80, 75
2, 6240, Note_on_c, 0, 80, 0
2, 6240, Note_on_c, 0, 82, 75
2, 6720, Note_on_c, 0, 82, 0
2, 6720, Note_on_c, 0, 80, 75
2, 6960, Note_on_c, 0, 80, 0
2, 6960, Note_on_c, 0, 82, 75
2, 7080, Note_on_c, 0, 82, 0
2, 7080, Note_on_c, 0, 83, 75
2, 7200, Note_on_c, 0, 83, 0
2, 7200, Note_on_c, 0, 84, 75
2, 7440, Note_on_c, 0, 84, 0
2, 7440, Note_on_c, 0, 83, 88
2, 7560, Note_on_c, 0, 83, 0
2, 7560, Note_on_c, 0, 84, 88
2, 7680, Note_on_c, 0, 84, 0
2, 7680, Note_on_c, 0, 73, 88
2, 7680, Note_on_c, 0, 77, 88
2, 7680, Note_on_c, 0, 80, 88
2, 7680, Note_on_c, 0, 85, 88
2, 7920, Note_on_c, 0, 85, 0
2, 7920, Note_on_c, 0, 73, 0
2, 7920, Note_on_c, 0, 77, 0
2, 7920, Note_on_c, 0, 80, 0
2, 8160, Note_on_c, 0, 63, 62
2, 8640, Note_on_c, 0, 63, 0
2, 8640, Note_on_c, 0, 65, 62
2, 8880, Note_on_c, 0, 65, 0
2, 8880, Note_on_c, 0, 63, 62
2, 8903, Note_on_c, 0, 63, 0
2, 9000, Note_on_c, 0, 65, 62
2, 9023, Note_on_c, 0, 65, 0
2, 9120, Note_on_c, 0, 66, 62
2, 9600, Note_on_c, 0, 66, 0
2, 9600, Note_on_c, 0, 65, 75
2, 9840, Note_on_c, 0, 65, 0
2, 9840, Note_on_c, 0, 68, 75
2, 10080, Note_on_c, 0, 68, 0
2, 10080, Note_on_c, 0, 70, 75
2, 10560, Note_on_c, 0, 70, 0
2, 10560, Note_on_c, 0, 72, 75
2, 10800, Note_on_c, 0, 72, 0
2, 10800, Note_on_c, 0, 70, 75
2, 10823, Note_on_c, 0, 70, 0
2, 10920, Note_on_c, 0, 72, 75
2, 10943, Note_on_c, 0, 72, 0
2, 11040, Note_on_c, 0, 73, 75
2, 11520, Note_on_c, 0, 73, 0
2, 11520, Note_on_c, 0, 70, 75
2, 11760, Note_on_c, 0, 70, 0
2, 11760, Note_on_c, 0, 75, 75
2, 12000, Note_on_c, 0, 75, 0
2, 12000, Note_on_c, 0, 77, 75
2, 12480, Note_on_c, 0, 77, 0
2, 12480, Note_on_c, 0, 73, 75
2, 12720, Note_on_c, 0, 73, 0
2, 12720, Note_on_c, 0, 75, 75
2, 12743, Note_on_c, 0, 75, 0
2, 12840, Note_on_c, 0, 77, 75
2, 12863, Note_on_c, 0, 77, 0
2, 12960, Note_on_c, 0, 78, 75
2, 13440, Note_on_c, 0, 78, 0
2, 13440, Note_on_c, 0, 75, 75
2, 13680, Note_on_c, 0, 75, 0
2, 13680, Note_on_c, 0, 80, 75
2, 13920, Note_on_c, 0, 80, 0
2, 13920, Note_on_c, 0, 82, 75
2, 14400, Note_on_c, 0, 82, 0
2, 14400, Note_on_c, 0, 80, 75
2, 14640, Note_on_c, 0, 80, 0
2, 14640, Note_on_c, 0, 82, 75
2, 14760, Note_on_c, 0, 82, 0
2, 14760, Note_on_c, 0, 83, 75
2, 14880, Note_on_c, 0, 83, 0
2, 14880, Note_on_c, 0, 84, 75
2, 15120, Note_on_c, 0, 84, 0
2, 15120, Note_on_c, 0, 83, 88
2, 15240, Note_on_c, 0, 83, 0
2, 15240, Note_on_c, 0, 84, 88
2, 15360, Note_on_c, 0, 84, 0
2, 15360, Note_on_c, 0, 73, 88
2, 15360, Note_on_c, 0, 77, 88
2, 15360, Note_on_c, 0, 80, 88
2, 15360, Note_on_c, 0, 85, 88
2, 15600, Note_on_c, 0, 85, 0
2, 15600, Note_on_c, 0, 73, 0
2, 15600, Note_on_c, 0, 77, 0
2, 15600, Note_on_c, 0, 80, 0
2, 15600, Note_on_c, 0, 73, 88
2, 15600, Note_on_c, 0, 85, 88
2, 15840, Note_on_c, 0, 85, 0
2, 15840, Note_on_c, 0, 73, 0
2, 15840, Note_on_c, 0, 77, 88
2, 15840, Note_on_c, 0, 89, 88
2, 17280, Note_on_c, 0, 89, 0
2, 17280, Note_on_c, 0, 77, 0
2, 17280, Note_on_c, 0, 70, 88
2, 17520, Note_on_c, 0, 70, 0
2, 17520, Note_on_c, 0, 73, 88
2, 17520, Note_on_c, 0, 85, 88
2, 17760, Note_on_c, 0, 85, 0
2, 17760, Note_on_c, 0, 73, 0
2, 17760, Note_on_c, 0, 77, 88
2, 17760, Note_on_c, 0, 89, 88
2, 19200, Note_on_c, 0, 89, 0
2, 19200, Note_on_c, 0, 77, 0
2, 19200, Note_on_c, 0, 70, 88
2, 19440, Note_on_c, 0, 70, 0
2, 19920, Note_on_c, 0, 73, 88
2, 20160, Note_on_c, 0, 73, 0
2, 20160, Note_on_c, 0, 75, 88
2, 20400, Note_on_c, 0, 75, 0
2, 20400, Note_on_c, 0, 73, 88
2, 20520, Note_on_c, 0, 73, 0
2, 20520, Note_on_c, 0, 75, 88
2, 20640, Note_on_c, 0, 75, 0
2, 20640, Note_on_c, 0, 77, 88
2, 20880, Note_on_c, 0, 77, 0
2, 20880, Note_on_c, 0, 75, 88
2, 21000, Note_on_c, 0, 75, 0
2, 21000, Note_on_c, 0, 77, 88
2, 21120, Note_on_c, 0, 77, 0
2, 21120, Note_on_c, 0, 78, 88
2, 21360, Note_on_c, 0, 78, 0
2, 21840, Note_on_c, 0, 73, 88
2, 22080, Note_on_c, 0, 73, 0
2, 22080, Note_on_c, 0, 75, 88
2, 22320, Note_on_c, 0, 75, 0
2, 22320, Note_on_c, 0, 73, 88
2, 22440, Note_on_c, 0, 73, 0
2, 22440, Note_on_c, 0, 75, 88
2, 22560, Note_on_c, 0, 75, 0
2, 22560, Note_on_c, 0, 77, 88
2, 22800, Note_on_c, 0, 77, 0
2, 22800, Note_on_c, 0, 75, 88
2, 22920, Note_on_c, 0, 75, 0
2, 22920, Note_on_c, 0, 77, 88
2, 23040, Note_on_c, 0, 77, 0
2, 23040, Note_on_c, 0, 78, 88
2, 23280, Note_on_c, 0, 78, 0
2, 23280, Note_on_c, 0, 66, 88
2, 23280, Note_on_c, 0, 78, 88
2, 23520, Note_on_c, 0, 78, 0
2, 23520, Note_on_c, 0, 66, 0
2, 23520, Note_on_c, 0, 70, 88
2, 23520, Note_on_c, 0, 82, 88
2, 24480, Note_on_c, 0, 82, 0
2, 24480, Note_on_c, 0, 70, 0
2, 24960, Note_on_c, 0, 66, 88
2, 24960, Note_on_c, 0, 75, 88
2, 25200, Note_on_c, 0, 75, 0
2, 25200, Note_on_c, 0, 66, 0
2, 25680, Note_on_c, 0, 66, 88
2, 25920, Note_on_c, 0, 66, 0
2, 25920, Note_on_c, 0, 68, 88
2, 26160, Note_on_c, 0, 68, 0
2, 26160, Note_on_c, 0, 66, 88
2, 26280, Note_on_c, 0, 66, 0
2, 26280, Note_on_c, 0, 68, 88
2, 26400, Note_on_c, 0, 68, 0
2, 26400, Note_on_c, 0, 70, 88
2, 26640, Note_on_c, 0, 70, 0
2, 26640, Note_on_c, 0, 68, 88
2, 26760, Note_on_c, 0, 68, 0
2, 26760, Note_on_c, 0, 70, 88
2, 26880, Note_on_c, 0, 70, 0
2, 26880, Note_on_c, 0, 63, 88
2, 26880, Note_on_c, 0, 71, 88
2, 27120, Note_on_c, 0, 71, 0
2, 27120, Note_on_c, 0, 63, 0
2, 27120, Note_on_c, 0, 59, 62
2, 27360, Note_on_c, 0, 59, 0
2, 27360, Note_on_c, 0, 61, 62
2, 27840, Note_on_c, 0, 61, 0
2, 27840, Note_on_c, 0, 63, 75
2, 28080, Note_on_c, 0, 63, 0
2, 28080, Note_on_c, 0, 61, 75
2, 28103, Note_on_c, 0, 61, 0
2, 28200, Note_on_c, 0, 63, 75
2, 28223, Note_on_c, 0, 63, 0
2, 28320, Note_on_c, 0, 64, 75
2, 28800, Note_on_c, 0, 64, 0
2, 28800, Note_on_c, 0, 63, 75
2, 29040, Note_on_c, 0, 63, 0
2, 29040, Note_on_c, 0, 66, 75
2, 29280, Note_on_c, 0, 66, 0
2, 29280, Note_on_c, 0, 68, 75
2, 29760, Note_on_c, 0, 68, 0
2, 29760, Note_on_c, 0, 70, 75
2, 30000, Note_on_c, 0, 70, 0
2, 30000, Note_on_c, 0, 68, 75
2, 30023, Note_on_c, 0, 68, 0
2, 30120, Note_on_c, 0, 70, 75
2, 30143, Note_on_c, 0, 70, 0
2, 30240, Note_on_c, 0, 71, 75
2, 30720, Note_on_c, 0, 71, 0
2, 30720, Note_on_c, 0, 68, 75
2, 30960, Note_on_c, 0, 68, 0
2, 30960, Note_on_c, 0, 73, 75
2, 31200, Note_on_c, 0, 73, 0
2, 31200, Note_on_c, 0, 75, 75
2, 31680, Note_on_c, 0, 75, 0
2, 31680, Note_on_c, 0, 71, 75
2, 31920, Note_on_c, 0, 71, 0
2, 31920, Note_on_c, 0, 73, 75
2, 31943, Note_on_c, 0, 73, 0
2, 32040, Note_on_c, 0, 75, 75
2, 32063, Note_on_c, 0, 75, 0
2, 32160, Note_on_c, 0, 76, 75
2, 32640, Note_on_c, 0, 76, 0
2, 32640, Note_on_c, 0, 73, 75
2, 32880, Note_on_c, 0, 73, 0
2, 32880, Note_on_c, 0, 78, 75
2, 33120, Note_on_c, 0, 78, 0
2, 33120, Note_on_c, 0, 80, 75
2, 33600, Note_on_c, 0, 80, 0
2, 33600, Note_on_c, 0, 78, 75
2, 33840, Note_on_c, 0, 78, 0
2, 33840, Note_on_c, 0, 80, 75
2, 33960, Note_on_c, 0, 80, 0
2, 33960, Note_on_c, 0, 81, 75
2, 34080, Note_on_c, 0, 81, 0
2, 34080, Note_on_c, 0, 82, 75
2, 34320, Note_on_c, 0, 82, 0
2, 34320, Note_on_c, 0, 81, 88
2, 34440, Note_on_c, 0, 81, 0
2, 34440, Note_on_c, 0, 82, 88
2, 34560, Note_on_c, 0, 82, 0
2, 34560, Note_on_c, 0, 75, 88
2, 34560, Note_on_c, 0, 78, 88
2, 34560, Note_on_c, 0, 83, 88
2, 34800, Note_on_c, 0, 83, 0
2, 34800, Note_on_c, 0, 78, 0
2, 34800, Note_on_c, 0, 75, 0
2, 34800, Note_on_c, 0, 59, 62
2, 35040, Note_on_c, 0, 59, 0
2, 35040, Note_on_c, 0, 61, 62
2, 35520, Note_on_c, 0, 61, 0
2, 35520, Note_on_c, 0, 63, 62
2, 35760, Note_on_c, 0, 63, 0
2, 35760, Note_on_c, 0, 61, 62
2, 35783, Note_on_c, 0, 61, 0
2, 35880, Note_on_c, 0, 63, 62
2, 35903, Note_on_c, 0, 63, 0
2, 36000, Note_on_c, 0, 64, 62
2, 36480, Note_on_c, 0, 64, 0
2, 36480, Note_on_c, 0, 63, 75
2, 36720, Note_on_c, 0, 63, 0
2, 36720, Note_on_c, 0, 66, 75
2, 36960, Note_on_c, 0, 66, 0
2, 36960, Note_on_c, 0, 68, 75
2, 37440, Note_on_c, 0, 68, 0
2, 37440, Note_on_c, 0, 70, 75
2, 37680, Note_on_c, 0, 70, 0
2, 37680, Note_on_c, 0, 68, 75
2, 37703, Note_on_c, 0, 68, 0
2, 37800, Note_on_c, 0, 70, 75
2, 37823, Note_on_c, 0, 70, 0
2, 37920, Note_on_c, 0, 71, 75
2, 38400, Note_on_c, 0, 71, 0
2, 38400, Note_on_c, 0, 68, 75
2, 38640, Note_on_c, 0, 68, 0
2, 38640, Note_on_c, 0, 73, 75
2, 38880, Note_on_c, 0, 73, 0
2, 38880, Note_on_c, 0, 75, 75
2, 39360, Note_on_c, 0, 75, 0
2, 39360, Note_on_c, 0, 71, 75
2, 39600, Note_on_c, 0, 71, 0
2, 39600, Note_on_c, 0, 73, 75
2, 39623, Note_on_c, 0, 73, 0
2, 39720, Note_on_c, 0, 75, 75
2, 39743, Note_on_c, 0, 75, 0
2, 39840, Note_on_c, 0, 76, 75
2, 40320, Note_on_c, 0, 76, 0
2, 40320, Note_on_c, 0, 73, 75
2, 40560, Note_on_c, 0, 73, 0
2, 40560, Note_on_c, 0, 78, 75
2, 40800, Note_on_c, 0, 78, 0
2, 40800, Note_on_c, 0, 80, 75
2, 41280, Note_on_c, 0, 80, 0
2, 41280, Note_on_c, 0, 78, 75
2, 41520, Note_on_c, 0, 78, 0
2, 41520, Note_on_c, 0, 80, 75
2, 41640, Note_on_c, 0, 80, 0
2, 41640, Note_on_c, 0, 81, 75
2, 41760, Note_on_c, 0, 81, 0
2, 41760, Note_on_c, 0, 82, 75
2, 42000, Note_on_c, 0, 82, 0
2, 42000, Note_on_c, 0, 81, 88
2, 42120, Note_on_c, 0, 81, 0
2, 42120, Note_on_c, 0, 82, 88
2, 42240, Note_on_c, 0, 82, 0
2, 42240, Note_on_c, 0, 71, 88
2, 42240, Note_on_c, 0, 75, 88
2, 42240, Note_on_c, 0, 78, 88
2, 42240, Note_on_c, 0, 83, 88
2, 42480, Note_on_c, 0, 83, 0
2, 42480, Note_on_c, 0, 71, 0
2, 42480, Note_on_c, 0, 75, 0
2, 42480, Note_on_c, 0, 78, 0
2, 42480, Note_on_c, 0, 71, 88
2, 42480, Note_on_c, 0, 83, 88
2, 42720, Note_on_c, 0, 83, 0
2, 42720, Note_on_c, 0, 71, 0
2, 42720, Note_on_c, 0, 75, 88
2, 42720, Note_on_c, 0, 87, 88
2, 44160, Note_on_c, 0, 87, 0
2, 44160, Note_on_c, 0, 75, 0
2, 44160, Note_on_c, 0, 68, 88
2, 44400, Note_on_c, 0, 68, 0
2, 44400, Note_on_c, 0, 71, 88
2, 44400, Note_on_c, 0, 83, 88
2, 44640, Note_on_c, 0, 83, 0
2, 44640, Note_on_c, 0, 71, 0
2, 44640, Note_on_c, 0, 75, 88
2, 44640, Note_on_c, 0, 87, 88
2, 46080, Note_on_c, 0, 87, 0
2, 46080, Note_on_c, 0, 75, 0
2, 46080, Note_on_c, 0, 59, 88
2, 46080, Note_on_c, 0, 68, 88
2, 46320, Note_on_c, 0, 68, 0
2, 46320, Note_on_c, 0, 59, 0
2, 46800, Note_on_c, 0, 71, 88
2, 47040, Note_on_c, 0, 71, 0
2, 47040, Note_on_c, 0, 73, 88
2, 47280, Note_on_c, 0, 73, 0
2, 47280, Note_on_c, 0, 71, 88
2, 47400, Note_on_c, 0, 71, 0
2, 47400, Note_on_c, 0, 73, 88
2, 47520, Note_on_c, 0, 73, 0
2, 47520, Note_on_c, 0, 75, 88
2, 47760, Note_on_c, 0, 75, 0
2, 47760, Note_on_c, 0, 73, 88
2, 47880, Note_on_c, 0, 73, 0
2, 47880, Note_on_c, 0, 75, 88
2, 48000, Note_on_c, 0, 75, 0
2, 48000, Note_on_c, 0, 68, 88
2, 48000, Note_on_c, 0, 76, 88
2, 48240, Note_on_c, 0, 76, 0
2, 48240, Note_on_c, 0, 68, 0
2, 48720, Note_on_c, 0, 71, 88
2, 48960, Note_on_c, 0, 71, 0
2, 48960, Note_on_c, 0, 73, 88
2, 49200, Note_on_c, 0, 73, 0
2, 49200, Note_on_c, 0, 71, 88
2, 49320, Note_on_c, 0, 71, 0
2, 49320, Note_on_c, 0, 73, 88
2, 49440, Note_on_c, 0, 73, 0
2, 49440, Note_on_c, 0, 75, 88
2, 49680, Note_on_c, 0, 75, 0
2, 49680, Note_on_c, 0, 73, 88
2, 49800, Note_on_c, 0, 73, 0
2, 49800, Note_on_c, 0, 75, 88
2, 49920, Note_on_c, 0, 75, 0
2, 49920, Note_on_c, 0, 76, 88
2, 50160, Note_on_c, 0, 76, 0
2, 50160, Note_on_c, 0, 76, 88
2, 50160, Note_on_c, 0, 88, 88
2, 50400, Note_on_c, 0, 88, 0
2, 50400, Note_on_c, 0, 76, 0
2, 50400, Note_on_c, 0, 80, 88
2, 50400, Note_on_c, 0, 92, 88
2, 51840, Note_on_c, 0, 92, 0
2, 51840, Note_on_c, 0, 80, 0
2, 51840, Note_on_c, 0, 76, 88
2, 51840, Note_on_c, 0, 85, 88
2, 52080, Note_on_c, 0, 85, 0
2, 52080, Note_on_c, 0, 76, 0
2, 52560, Note_on_c, 0, 76, 88
2, 52800, Note_on_c, 0, 76, 0
2, 52800, Note_on_c, 0, 78, 88
2, 53040, Note_on_c, 0, 78, 0
2, 53040, Note_on_c, 0, 76, 88
2, 53160, Note_on_c, 0, 76, 0
2, 53160, Note_on_c, 0, 78, 88
2, 53280, Note_on_c, 0, 78, 0
2, 53280, Note_on_c, 0, 80, 88
2, 53520, Note_on_c, 0, 80, 0
2, 53520, Note_on_c, 0, 78, 88
2, 53640, Note_on_c, 0, 78, 0
2, 53640, Note_on_c, 0, 80, 88
2, 53760, Note_on_c, 0, 80, 0
2, 53760, Note_on_c, 0, 73, 88
2, 53760, Note_on_c, 0, 81, 88
2, 54000, Note_on_c, 0, 81, 0
2, 54000, Note_on_c, 0, 73, 0
2, 54000, Note_on_c, 0, 69, 88
2, 54000, Note_on_c, 0, 81, 88
2, 54240, Note_on_c, 0, 81, 0
2, 54240, Note_on_c, 0, 69, 0
2, 54240, Note_on_c, 0, 73, 114
2, 54240, Note_on_c, 0, 85, 114
2, 54720, Note_on_c, 0, 85, 0
2, 54720, Note_on_c, 0, 73, 0
2, 54720, Note_on_c, 0, 69, 88
2, 54720, Note_on_c, 0, 81, 88
2, 54960, Note_on_c, 0, 81, 0
2, 54960, Note_on_c, 0, 69, 0
2, 54960, Note_on_c, 0, 71, 88
2, 54960, Note_on_c, 0, 83, 88
2, 55080, Note_on_c, 0, 83, 0
2, 55080, Note_on_c, 0, 71, 0
2, 55080, Note_on_c, 0, 73, 88
2, 55080, Note_on_c, 0, 85, 88
2, 55200, Note_on_c, 0, 85, 0
2, 55200, Note_on_c, 0, 73, 0
2, 55200, Note_on_c, 0, 74, 114
2, 55200, Note_on_c, 0, 86, 114
2, 55680, Note_on_c, 0, 86, 0
2, 55680, Note_on_c, 0, 74, 0
2, 55680, Note_on_c, 0, 71, 88
2, 55680, Note_on_c, 0, 83, 88
2, 55920, Note_on_c, 0, 83, 0
2, 55920, Note_on_c, 0, 71, 0
2, 55920, Note_on_c, 0, 76, 88
2, 55920, Note_on_c, 0, 88, 88
2, 56160, Note_on_c, 0, 88, 0
2, 56160, Note_on_c, 0, 76, 0
2, 56160, Note_on_c, 0, 78, 114
2, 56160, Note_on_c, 0, 90, 114
2, 56640, Note_on_c, 0, 90, 0
2, 56640, Note_on_c, 0, 78, 0
2, 56640, Note_on_c, 0, 74, 88
2, 56640, Note_on_c, 0, 86, 88
2, 56880, Note_on_c, 0, 86, 0
2, 56880, Note_on_c, 0, 74, 0
2, 56880, Note_on_c, 0, 76, 88
2, 56880, Note_on_c, 0, 88, 88
2, 57000, Note_on_c, 0, 88, 0
2, 57000, Note_on_c, 0, 76, 0
2, 57000, Note_on_c, 0, 78, 88
2, 57000, Note_on_c, 0, 90, 88
2, 57120, Note_on_c, 0, 90, 0
2, 57120, Note_on_c, 0, 78, 0
2, 57120, Note_on_c, 0, 80, 114
2, 57120, Note_on_c, 0, 92, 114
2, 57600, Note_on_c, 0, 92, 0
2, 57600, Note_on_c, 0, 80, 0
2, 57600, Note_on_c, 0, 76, 88
2, 57600, Note_on_c, 0, 88, 88
2, 57840, Note_on_c, 0, 88, 0
2, 57840, Note_on_c, 0, 76, 0
2, 58320, Note_on_c, 0, 69, 88
2, 58320, Note_on_c, 0, 81, 88
2, 58560, Note_on_c, 0, 81, 0
2, 58560, Note_on_c, 0, 69, 0
2, 58560, Note_on_c, 0, 70, 88
2, 58560, Note_on_c, 0, 82, 88
2, 59280, Note_on_c, 0, 82, 0
2, 59280, Note_on_c, 0, 70, 0
2, 59280, Note_on_c, 0, 71, 88
2, 59280, Note_on_c, 0, 83, 88
2, 59520, Note_on_c, 0, 83, 0
2, 59520, Note_on_c, 0, 71, 0
2, 59520, Note_on_c, 0, 78, 88
2, 59520, Note_on_c, 0, 90, 88
2, 60000, Note_on_c, 0, 90, 0
2, 60000, Note_on_c, 0, 78, 0
2, 60240, Note_on_c, 0, 66, 88
2, 60240, Note_on_c, 0, 78, 88
2, 60480, Note_on_c, 0, 78, 0
2, 60480, Note_on_c, 0, 66, 0
2, 60480, Note_on_c, 0, 68, 88
2, 60480, Note_on_c, 0, 80, 88
2, 61200, Note_on_c, 0, 80, 0
2, 61200, Note_on_c, 0, 68, 0
2, 61200, Note_on_c, 0, 69, 88
2, 61200, Note_on_c, 0, 81, 88
2, 61440, Note_on_c, 0, 81, 0
2, 61440, Note_on_c, 0, 69, 0
2, 61440, Note_on_c, 0, 76, 88
2, 61440, Note_on_c, 0, 88, 88
2, 61680, Note_on_c, 0, 88, 0
2, 61680, Note_on_c, 0, 76, 0
2, 61680, Note_on_c, 0, 69, 88
2, 61680, Note_on_c, 0, 81, 88
2, 61920, Note_on_c, 0, 81, 0
2, 61920, Note_on_c, 0, 69, 0
2, 61920, Note_on_c, 0, 73, 114
2, 61920, Note_on_c, 0, 85, 114
2, 62400, Note_on_c, 0, 85, 0
2, 62400, Note_on_c, 0, 73, 0
2, 62400, Note_on_c, 0, 69, 88
2, 62400, Note_on_c, 0, 81, 88
2, 62640, Note_on_c, 0, 81, 0
2, 62640, Note_on_c, 0, 69, 0
2, 62640, Note_on_c, 0, 71, 88
2, 62640, Note_on_c, 0, 83, 88
2, 62760, Note_on_c, 0, 83, 0
2, 62760, Note_on_c, 0, 71, 0
2, 62760, Note_on_c, 0, 73, 88
2, 62760, Note_on_c, 0, 85, 88
2, 62880, Note_on_c, 0, 85, 0
2, 62880, Note_on_c, 0, 73, 0
2, 62880, Note_on_c, 0, 74, 114
2, 62880, Note_on_c, 0, 86, 114
2, 63360, Note_on_c, 0, 86, 0
2, 63360, Note_on_c, 0, 74, 0
2, 63360, Note_on_c, 0, 71, 88
2, 63360, Note_on_c, 0, 83, 88
2, 63600, Note_on_c, 0, 83, 0
2, 63600, Note_on_c, 0, 71, 0
2, 63600, Note_on_c, 0, 76, 88
2, 63600, Note_on_c, 0, 88, 88
2, 63840, Note_on_c, 0, 88, 0
2, 63840, Note_on_c, 0, 76, 0
2, 63840, Note_on_c, 0, 78, 114
2, 63840, Note_on_c, 0, 90, 114
2, 64320, Note_on_c, 0, 90, 0
2, 64320, Note_on_c, 0, 78, 0
2, 64320, Note_on_c, 0, 74, 88
2, 64320, Note_on_c, 0, 86, 88
2, 64560, Note_on_c, 0, 86, 0
2, 64560, Note_on_c, 0, 74, 0
2, 64560, Note_on_c, 0, 76, 88
2, 64560, Note_on_c, 0, 88, 88
2, 64680, Note_on_c, 0, 88, 0
2, 64680, Note_on_c, 0, 76, 0
2, 64680, Note_on_c, 0, 78, 88
2, 64680, Note_on_c, 0, 90, 88
2, 64800, Note_on_c, 0, 90, 0
2, 64800, Note_on_c, 0, 78, 0
2, 64800, Note_on_c, 0, 80, 114
2, 64800, Note_on_c, 0, 92, 114
2, 65280, Note_on_c, 0, 92, 0
2, 65280, Note_on_c, 0, 80, 0
2, 65280, Note_on_c, 0, 76, 88
2, 65280, Note_on_c, 0, 88, 88
2, 65520, Note_on_c, 0, 88, 0
2, 65520, Note_on_c, 0, 76, 0
2, 66000, Note_on_c, 0, 69, 88
2, 66000, Note_on_c, 0, 81, 88
2, 66240, Note_on_c, 0, 81, 0
2, 66240, Note_on_c, 0, 69, 0
2, 66240, Note_on_c, 0, 70, 88
2, 66240, Note_on_c, 0, 82, 88
2, 66960, Note_on_c, 0, 82, 0
2, 66960, Note_on_c, 0, 70, 0
2, 66960, Note_on_c, 0, 71, 88
2, 66960, Note_on_c, 0, 83, 88
2, 67200, Note_on_c, 0, 83, 0
2, 67200, Note_on_c, 0, 71, 0
2, 67200, Note_on_c, 0, 78, 88
2, 67200, Note_on_c, 0, 90, 88
2, 67680, Note_on_c, 0, 90, 0
2, 67680, Note_on_c, 0, 78, 0
2, 67920, Note_on_c, 0, 66, 88
2, 67920, Note_on_c, 0, 78, 88
2, 68160, Note_on_c, 0, 78, 0
2, 68160, Note_on_c, 0, 66, 0
2, 68160, Note_on_c, 0, 68, 88
2, 68160, Note_on_c, 0, 80, 88
2, 68880, Note_on_c, 0, 80, 0
2, 68880, Note_on_c, 0, 68, 0
2, 68880, Note_on_c, 0, 69, 88
2, 68880, Note_on_c, 0, 81, 88
2, 69120, Note_on_c, 0, 81, 0
2, 69120, Note_on_c, 0, 69, 0
2, 69120, Note_on_c, 0, 76, 88
2, 69120, Note_on_c, 0, 88, 88
2, 69360, Note_on_c, 0, 88, 0
2, 69360, Note_on_c, 0, 76, 0
2, 69360, Note_on_c, 0, 64, 88
2, 69360, Note_on_c, 0, 76, 88
2, 69600, Note_on_c, 0, 76, 0
2, 69600, Note_on_c, 0, 64, 0
2, 69600, Note_on_c, 0, 67, 114
2, 69600, Note_on_c, 0, 79, 114
2, 70080, Note_on_c, 0, 79, 0
2, 70080, Note_on_c, 0, 67, 0
2, 70080, Note_on_c, 0, 66, 88
2, 70080, Note_on_c, 0, 78, 88
2, 70320, Note_on_c, 0, 78, 0
2, 70320, Note_on_c, 0, 66, 0
2, 70320, Note_on_c, 0, 64, 88
2, 70320, Note_on_c, 0, 76, 88
2, 70440, Note_on_c, 0, 76, 0
2, 70440, Note_on_c, 0, 64, 0
2, 70440, Note_on_c, 0, 62, 88
2, 70440, Note_on_c, 0, 74, 88
2, 70560, Note_on_c, 0, 74, 0
2, 70560, Note_on_c, 0, 62, 0
2, 70560, Note_on_c, 0, 61, 114
2, 70560, Note_on_c, 0, 73, 114
2, 71040, Note_on_c, 0, 73, 0
2, 71040, Note_on_c, 0, 61, 0
2, 71040, Note_on_c, 0, 62, 88
2, 71040, Note_on_c, 0, 74, 88
2, 71280, Note_on_c, 0, 74, 0
2, 71280, Note_on_c, 0, 62, 0
2, 71280, Note_on_c, 0, 62, 88
2, 71280, Note_on_c, 0, 74, 88
2, 71520, Note_on_c, 0, 74, 0
2, 71520, Note_on_c, 0, 62, 0
2, 71520, Note_on_c, 0, 65, 114
2, 71520, Note_on_c, 0, 77, 114
2, 72000, Note_on_c, 0, 77, 0
2, 72000, Note_on_c, 0, 65, 0
2, 72000, Note_on_c, 0, 64, 88
2, 72000, Note_on_c, 0, 76, 88
2, 72240, Note_on_c, 0, 76, 0
2, 72240, Note_on_c, 0, 64, 0
2, 72240, Note_on_c, 0, 62, 88
2, 72240, Note_on_c, 0, 74, 88
2, 72360, Note_on_c, 0, 74, 0
2, 72360, Note_on_c, 0, 62, 0
2, 72360, Note_on_c, 0, 60, 88
2, 72360, Note_on_c, 0, 72, 88
2, 72480, Note_on_c, 0, 72, 0
2, 72480, Note_on_c, 0, 60, 0
2, 72480, Note_on_c, 0, 59, 114
2, 72480, Note_on_c, 0, 71, 114
2, 72960, Note_on_c, 0, 71, 0
2, 72960, Note_on_c, 0, 59, 0
2, 72960, Note_on_c, 0, 60, 88
2, 72960, Note_on_c, 0, 72, 88
2, 73200, Note_on_c, 0, 72, 0
2, 73200, Note_on_c, 0, 60, 0
2, 73200, Note_on_c, 0, 69, 88
2, 73200, Note_on_c, 0, 81, 88
2, 73440, Note_on_c, 0, 81, 0
2, 73440, Note_on_c, 0, 69, 0
2, 73440, Note_on_c, 0, 72, 114
2, 73440, Note_on_c, 0, 84, 114
2, 73920, Note_on_c, 0, 84, 0
2, 73920, Note_on_c, 0, 72, 0
2, 73920, Note_on_c, 0, 71, 88
2, 73920, Note_on_c, 0, 83, 88
2, 74160, Note_on_c, 0, 83, 0
2, 74160, Note_on_c, 0, 71, 0
2, 74160, Note_on_c, 0, 69, 88
2, 74160, Note_on_c, 0, 81, 88
2, 74280, Note_on_c, 0, 81, 0
2, 74280, Note_on_c, 0, 69, 0
2, 74280, Note_on_c, 0, 67, 88
2, 74280, Note_on_c, 0, 79, 88
2, 74400, Note_on_c, 0, 79, 0
2, 74400, Note_on_c, 0, 67, 0
2, 74400, Note_on_c, 0, 66, 114
2, 74400, Note_on_c, 0, 78, 114
2, 74880, Note_on_c, 0, 78, 0
2, 74880, Note_on_c, 0, 66, 0
2, 74880, Note_on_c, 0, 67, 88
2, 74880, Note_on_c, 0, 79, 88
2, 75120, Note_on_c, 0, 79, 0
2, 75120, Note_on_c, 0, 67, 0
2, 75120, Note_on_c, 0, 67, 88
2, 75120, Note_on_c, 0, 79, 88
2, 75360, Note_on_c, 0, 79, 0
2, 75360, Note_on_c, 0, 67, 0
2, 75360, Note_on_c, 0, 70, 114
2, 75360, Note_on_c, 0, 82, 114
2, 75840, Note_on_c, 0, 82, 0
2, 75840, Note_on_c, 0, 70, 0
2, 75840, Note_on_c, 0, 69, 88
2, 75840, Note_on_c, 0, 81, 88
2, 76080, Note_on_c, 0, 81, 0
2, 76080, Note_on_c, 0, 69, 0
2, 76080, Note_on_c, 0, 67, 88
2, 76080, Note_on_c, 0, 79, 88
2, 76200, Note_on_c, 0, 79, 0
2, 76200, Note_on_c, 0, 67, 0
2, 76200, Note_on_c, 0, 66, 88
2, 76200, Note_on_c, 0, 78, 88
2, 76320, Note_on_c, 0, 78, 0
2, 76320, Note_on_c, 0, 66, 0
2, 76320, Note_on_c, 0, 65, 114
2, 76320, Note_on_c, 0, 77, 114
2, 76800, Note_on_c, 0, 77, 0
2, 76800, Note_on_c, 0, 65, 0
2, 76800, Note_on_c, 0, 66, 88
2, 76800, Note_on_c, 0, 78, 88
2, 77040, Note_on_c, 0, 78, 0
2, 77040, Note_on_c, 0, 66, 0
2, 77040, Note_on_c, 0, 62, 88
2, 77040, Note_on_c, 0, 74, 88
2, 77280, Note_on_c, 0, 74, 0
2, 77280, Note_on_c, 0, 62, 0
2, 77280, Note_on_c, 0, 66, 114
2, 77280, Note_on_c, 0, 78, 114
2, 77760, Note_on_c, 0, 78, 0
2, 77760, Note_on_c, 0, 66, 0
2, 77760, Note_on_c, 0, 62, 88
2, 77760, Note_on_c, 0, 74, 88
2, 78000, Note_on_c, 0, 74, 0
2, 78000, Note_on_c, 0, 62, 0
2, 78000, Note_on_c, 0, 64, 88
2, 78000, Note_on_c, 0, 76, 88
2, 78120, Note_on_c, 0, 76, 0
2, 78120, Note_on_c, 0, 64, 0
2, 78120, Note_on_c, 0, 66, 88
2, 78120, Note_on_c, 0, 78, 88
2, 78240, Note_on_c, 0, 78, 0
2, 78240, Note_on_c, 0, 66, 0
2, 78240, Note_on_c, 0, 67, 114
2, 78240, Note_on_c, 0, 79, 114
2, 78720, Note_on_c, 0, 79, 0
2, 78720, Note_on_c, 0, 67, 0
2, 78720, Note_on_c, 0, 64, 88
2, 78720, Note_on_c, 0, 76, 88
2, 78960, Note_on_c, 0, 76, 0
2, 78960, Note_on_c, 0, 64, 0
2, 78960, Note_on_c, 0, 69, 88
2, 78960, Note_on_c, 0, 81, 88
2, 79200, Note_on_c, 0, 81, 0
2, 79200, Note_on_c, 0, 69, 0
2, 79200, Note_on_c, 0, 71, 114
2, 79200, Note_on_c, 0, 83, 114
2, 79680, Note_on_c, 0, 83, 0
2, 79680, Note_on_c, 0, 71, 0
2, 79680, Note_on_c, 0, 67, 88
2, 79680, Note_on_c, 0, 79, 88
2, 79920, Note_on_c, 0, 79, 0
2, 79920, Note_on_c, 0, 67, 0
2, 79920, Note_on_c, 0, 69, 88
2, 79920, Note_on_c, 0, 81, 88
2, 80040, Note_on_c, 0, 81, 0
2, 80040, Note_on_c, 0, 69, 0
2, 80040, Note_on_c, 0, 71, 88
2, 80040, Note_on_c, 0, 83, 88
2, 80160, Note_on_c, 0, 83, 0
2, 80160, Note_on_c, 0, 71, 0
2, 80160, Note_on_c, 0, 73, 114
2, 80160, Note_on_c, 0, 85, 114
2, 80640, Note_on_c, 0, 85, 0
2, 80640, Note_on_c, 0, 73, 0
2, 80640, Note_on_c, 0, 74, 88
2, 80640, Note_on_c, 0, 86, 88
2, 80880, Note_on_c, 0, 86, 0
2, 80880, Note_on_c, 0, 74, 0
2, 81360, Note_on_c, 0, 62, 88
2, 81360, Note_on_c, 0, 74, 88
2, 81600, Note_on_c, 0, 74, 0
2, 81600, Note_on_c, 0, 62, 0
2, 81600, Note_on_c, 0, 63, 88
2, 81600, Note_on_c, 0, 75, 88
2, 82320, Note_on_c, 0, 75, 0
2, 82320, Note_on_c, 0, 63, 0
2, 82320, Note_on_c, 0, 64, 88
2, 82320, Note_on_c, 0, 76, 88
2, 82560, Note_on_c, 0, 76, 0
2, 82560, Note_on_c, 0, 64, 0
2, 82560, Note_on_c, 0, 71, 88
2, 82560, Note_on_c, 0, 83, 88
2, 82800, Note_on_c, 0, 83, 0
2, 82800, Note_on_c, 0, 71, 0
2, 83280, Note_on_c, 0, 59, 88
2, 83280, Note_on_c, 0, 71, 88
2, 83520, Note_on_c, 0, 71, 0
2, 83520, Note_on_c, 0, 59, 0
2, 83520, Note_on_c, 0, 61, 88
2, 83520, Note_on_c, 0, 73, 88
2, 84240, Note_on_c, 0, 73, 0
2, 84240, Note_on_c, 0, 61, 0
2, 84240, Note_on_c, 0, 62, 88
2, 84240, Note_on_c, 0, 74, 88
2, 84480, Note_on_c, 0, 74, 0
2, 84480, Note_on_c, 0, 62, 0
2, 84480, Note_on_c, 0, 69, 88
2, 84480, Note_on_c, 0, 81, 88
2, 84720, Note_on_c, 0, 81, 0
2, 84720, Note_on_c, 0, 69, 0
2, 84720, Note_on_c, 0, 62, 88
2, 84720, Note_on_c, 0, 74, 88
2, 84960, Note_on_c, 0, 74, 0
2, 84960, Note_on_c, 0, 62, 0
2, 84960, Note_on_c, 0, 66, 114
2, 84960, Note_on_c, 0, 78, 114
2, 85440, Note_on_c, 0, 78, 0
2, 85440, Note_on_c, 0, 66, 0
2, 85440, Note_on_c, 0, 62, 88
2, 85440, Note_on_c, 0, 74, 88
2, 85680, Note_on_c, 0, 74, 0
2, 85680, Note_on_c, 0, 62, 0
2, 85680, Note_on_c, 0, 64, 88
2, 85680, Note_on_c, 0, 76, 88
2, 85800, Note_on_c, 0, 76, 0
2, 85800, Note_on_c, 0, 64, 0
2, 85800, Note_on_c, 0, 66, 88
2, 85800, Note_on_c, 0, 78, 88
2, 85920, Note_on_c, 0, 78, 0
2, 85920, Note_on_c, 0, 66, 0
2, 85920, Note_on_c, 0, 67, 114
2, 85920, Note_on_c, 0, 79, 114
2, 86400, Note_on_c, 0, 79, 0
2, 86400, Note_on_c, 0, 67, 0
2, 86400, Note_on_c, 0, 64, 88
2, 86400, Note_on_c, 0, 76, 88
2, 86640, Note_on_c, 0, 76, 0
2, 86640, Note_on_c, 0, 64, 0
2, 86640, Note_on_c, 0, 69, 88
2, 86640, Note_on_c, 0, 81, 88
2, 86880, Note_on_c, 0, 81, 0
2, 86880, Note_on_c, 0, 69, 0
2, 86880, Note_on_c, 0, 71, 114
2, 86880, Note_on_c, 0, 83, 114
2, 87360, Note_on_c, 0, 83, 0
2, 87360, Note_on_c, 0, 71, 0
2, 87360, Note_on_c, 0, 67, 88
2, 87360, Note_on_c, 0, 79, 88
2, 87600, Note_on_c, 0, 79, 0
2, 87600, Note_on_c, 0, 67, 0
2, 87600, Note_on_c, 0, 69, 88
2, 87600, Note_on_c, 0, 81, 88
2, 87720, Note_on_c, 0, 81, 0
2, 87720, Note_on_c, 0, 69, 0
2, 87720, Note_on_c, 0, 71, 88
2, 87720, Note_on_c, 0, 83, 88
2, 87840, Note_on_c, 0, 83, 0
2, 87840, Note_on_c, 0, 71, 0
2, 87840, Note_on_c, 0, 73, 114
2, 87840, Note_on_c, 0, 85, 114
2, 88320, Note_on_c, 0, 85, 0
2, 88320, Note_on_c, 0, 73, 0
2, 88320, Note_on_c, 0, 74, 88
2, 88320, Note_on_c, 0, 86, 88
2, 88560, Note_on_c, 0, 86, 0
2, 88560, Note_on_c, 0, 74, 0
2, 89040, Note_on_c, 0, 62, 88
2, 89040, Note_on_c, 0, 74, 88
2, 89280, Note_on_c, 0, 74, 0
2, 89280, Note_on_c, 0, 62, 0
2, 89280, Note_on_c, 0, 63, 88
2, 89280, Note_on_c, 0, 75, 88
2, 90000, Note_on_c, 0, 75, 0
2, 90000, Note_on_c, 0, 63, 0
2, 90000, Note_on_c, 0, 64, 88
2, 90000, Note_on_c, 0, 76, 88
2, 90240, Note_on_c, 0, 76, 0
2, 90240, Note_on_c, 0, 64, 0
2, 90240, Note_on_c, 0, 71, 88
2, 90240, Note_on_c, 0, 83, 88
2, 90480, Note_on_c, 0, 83, 0
2, 90480, Note_on_c, 0, 71, 0
2, 90960, Note_on_c, 0, 59, 88
2, 90960, Note_on_c, 0, 71, 88
2, 91200, Note_on_c, 0, 71, 0
2, 91200, Note_on_c, 0, 59, 0
2, 91200, Note_on_c, 0, 61, 88
2, 91200, Note_on_c, 0, 73, 88
2, 91920, Note_on_c, 0, 73, 0
2, 91920, Note_on_c, 0, 61, 0
2, 91920, Note_on_c, 0, 62, 88
2, 91920, Note_on_c, 0, 74, 88
2, 92160, Note_on_c, 0, 74, 0
2, 92160, Note_on_c, 0, 62, 0
2, 92160, Note_on_c, 0, 69, 88
2, 92160, Note_on_c, 0, 81, 88
2, 92400, Note_on_c, 0, 81, 0
2, 92400, Note_on_c, 0, 69, 0
2, 92400, Note_on_c, 0, 69, 88
2, 92400, Note_on_c, 0, 81, 88
2, 92640, Note_on_c, 0, 81, 0
2, 92640, Note_on_c, 0, 69, 0
2, 92640, Note_on_c, 0, 72, 114
2, 92640, Note_on_c, 0, 84, 114
2, 93120, Note_on_c, 0, 84, 0
2, 93120, Note_on_c, 0, 72, 0
2, 93120, Note_on_c, 0, 71, 88
2, 93120, Note_on_c, 0, 83, 88
2, 93360, Note_on_c, 0, 83, 0
2, 93360, Note_on_c, 0, 71, 0
2, 93360, Note_on_c, 0, 69, 88
2, 93360, Note_on_c, 0, 81, 88
2, 93480, Note_on_c, 0, 81, 0
2, 93480, Note_on_c, 0, 69, 0
2, 93480, Note_on_c, 0, 67, 88
2, 93480, Note_on_c, 0, 79, 88
2, 93600, Note_on_c, 0, 79, 0
2, 93600, Note_on_c, 0, 67, 0
2, 93600, Note_on_c, 0, 66, 114
2, 93600, Note_on_c, 0, 78, 114
2, 94080, Note_on_c, 0, 78, 0
2, 94080, Note_on_c, 0, 66, 0
2, 94080, Note_on_c, 0, 67, 88
2, 94080, Note_on_c, 0, 79, 88
2, 94320, Note_on_c, 0, 79, 0
2, 94320, Note_on_c, 0, 67, 0
2, 94320, Note_on_c, 0, 67, 88
2, 94320, Note_on_c, 0, 79, 88
2, 94560, Note_on_c, 0, 79, 0
2, 94560, Note_on_c, 0, 67, 0
2, 94560, Note_on_c, 0, 70, 114
2, 94560, Note_on_c, 0, 82, 114
2, 95040, Note_on_c, 0, 82, 0
2, 95040, Note_on_c, 0, 70, 0
2, 95040, Note_on_c, 0, 69, 88
2, 95040, Note_on_c, 0, 81, 88
2, 95280, Note_on_c, 0, 81, 0
2, 95280, Note_on_c, 0, 69, 0
2, 95280, Note_on_c, 0, 67, 88
2, 95280, Note_on_c, 0, 79, 88
2, 95400, Note_on_c, 0, 79, 0
2, 95400, Note_on_c, 0, 67, 0
2, 95400, Note_on_c, 0, 65, 88
2, 95400, Note_on_c, 0, 77, 88
2, 95520, Note_on_c, 0, 77, 0
2, 95520, Note_on_c, 0, 65, 0
2, 95520, Note_on_c, 0, 64, 88
2, 95520, Note_on_c, 0, 76, 88
2, 96000, Note_on_c, 0, 76, 0
2, 96000, Note_on_c, 0, 64, 0
2, 96000, Note_on_c, 0, 65, 88
2, 96000, Note_on_c, 0, 77, 88
2, 96240, Note_on_c, 0, 77, 0
2, 96240, Note_on_c, 0, 65, 0
2, 96240, Note_on_c, 0, 74, 88
2, 96240, Note_on_c, 0, 86, 88
2, 96480, Note_on_c, 0, 86, 0
2, 96480, Note_on_c, 0, 74, 0
2, 96480, Note_on_c, 0, 77, 114
2, 96480, Note_on_c, 0, 89, 114
2, 96960, Note_on_c, 0, 89, 0
2, 96960, Note_on_c, 0, 77, 0
2, 96960, Note_on_c, 0, 76, 88
2, 96960, Note_on_c, 0, 88, 88
2, 97200, Note_on_c, 0, 88, 0
2, 97200, Note_on_c, 0, 76, 0
2, 97200, Note_on_c, 0, 74, 88
2, 97200, Note_on_c, 0, 86, 88
2, 97320, Note_on_c, 0, 86, 0
2, 97320, Note_on_c, 0, 74, 0
2, 97320, Note_on_c, 0, 72, 88
2, 97320, Note_on_c, 0, 84, 88
2, 97440, Note_on_c, 0, 84, 0
2, 97440, Note_on_c, 0, 72, 0
2, 97440, Note_on_c, 0, 71, 114
2, 97440, Note_on_c, 0, 83, 114
2, 97920, Note_on_c, 0, 83, 0
2, 97920, Note_on_c, 0, 71, 0
2, 97920, Note_on_c, 0, 72, 88
2, 97920, Note_on_c, 0, 84, 88
2, 98160, Note_on_c, 0, 84, 0
2, 98160, Note_on_c, 0, 72, 0
2, 98160, Note_on_c, 0, 72, 88
2, 98160, Note_on_c, 0, 84, 88
2, 98400, Note_on_c, 0, 84, 0
2, 98400, Note_on_c, 0, 72, 0
2, 98400, Note_on_c, 0, 75, 114
2, 98400, Note_on_c, 0, 87, 114
2, 98880, Note_on_c, 0, 87, 0
2, 98880, Note_on_c, 0, 75, 0
2, 98880, Note_on_c, 0, 74, 88
2, 98880, Note_on_c, 0, 86, 88
2, 99120, Note_on_c, 0, 86, 0
2, 99120, Note_on_c, 0, 74, 0
2, 99120, Note_on_c, 0, 72, 88
2, 99120, Note_on_c, 0, 84, 88
2, 99240, Note_on_c, 0, 84, 0
2, 99240, Note_on_c, 0, 72, 0
2, 99240, Note_on_c, 0, 71, 88
2, 99240, Note_on_c, 0, 83, 88
2, 99360, Note_on_c, 0, 83, 0
2, 99360, Note_on_c, 0, 71, 0
2, 99360, Note_on_c, 0, 70, 114
2, 99360, Note_on_c, 0, 82, 114
2, 99840, Note_on_c, 0, 82, 0
2, 99840, Note_on_c, 0, 70, 0
2, 99840, Note_on_c, 0, 71, 88
2, 99840, Note_on_c, 0, 83, 88
2, 100080, Note_on_c, 0, 83, 0
2, 100080, Note_on_c, 0, 71, 0
2, 100080, Note_on_c, 0, 71, 88
2, 100080, Note_on_c, 0, 83, 88
2, 100320, Note_on_c, 0, 83, 0
2, 100320, Note_on_c, 0, 71, 0
2, 100320, Note_on_c, 0, 79, 88
2, 100560, Note_on_c, 0, 79, 0
2, 100560, Note_on_c, 0, 71, 88
2, 100560, Note_on_c, 0, 83, 88
2, 100800, Note_on_c, 0, 83, 0
2, 100800, Note_on_c, 0, 71, 0
2, 100800, Note_on_c, 0, 84, 88
2, 101040, Note_on_c, 0, 84, 0
2, 101040, Note_on_c, 0, 74, 88
2, 101040, Note_on_c, 0, 81, 88
2, 101280, Note_on_c, 0, 81, 0
2, 101280, Note_on_c, 0, 74, 0
2, 101280, Note_on_c, 0, 86, 88
2, 101520, Note_on_c, 0, 86, 0
2, 101520, Note_on_c, 0, 74, 88
2, 101520, Note_on_c, 0, 81, 88
2, 101520, Note_on_c, 0, 84, 88
2, 101760, Note_on_c, 0, 84, 0
2, 101760, Note_on_c, 0, 81, 0
2, 101760, Note_on_c, 0, 79, 88
2, 101760, Note_on_c, 0, 83, 88
2, 102000, Note_on_c, 0, 83, 0
2, 102000, Note_on_c, 0, 79, 0
2, 102000, Note_on_c, 0, 74, 0
2, 102000, Note_on_c, 0, 71, 88
2, 102000, Note_on_c, 0, 83, 88
2, 102240, Note_on_c, 0, 83, 0
2, 102240, Note_on_c, 0, 71, 0
2, 102240, Note_on_c, 0, 79, 88
2, 102480, Note_on_c, 0, 79, 0
2, 102480, Note_on_c, 0, 71, 88
2, 102480, Note_on_c, 0, 83, 88
2, 102720, Note_on_c, 0, 83, 0
2, 102720, Note_on_c, 0, 71, 0
2, 102720, Note_on_c, 0, 84, 88
2, 102960, Note_on_c, 0, 84, 0
2, 102960, Note_on_c, 0, 74, 88
2, 102960, Note_on_c, 0, 81, 88
2, 103200, Note_on_c, 0, 81, 0
2, 103200, Note_on_c, 0, 74, 0
2, 103200, Note_on_c, 0, 86, 88
2, 103440, Note_on_c, 0, 86, 0
2, 103440, Note_on_c, 0, 74, 88
2, 103440, Note_on_c, 0, 81, 88
2, 103440, Note_on_c, 0, 84, 88
2, 103680, Note_on_c, 0, 84, 0
2, 103680, Note_on_c, 0, 81, 0
2, 103680, Note_on_c, 0, 79, 88
2, 103680, Note_on_c, 0, 83, 88
2, 103920, Note_on_c, 0, 83, 0
2, 103920, Note_on_c, 0, 79, 0
2, 103920, Note_on_c, 0, 74, 0
2, 103920, Note_on_c, 0, 74, 114
2, 103920, Note_on_c, 0, 81, 114
2, 103920, Note_on_c, 0, 86, 114
2, 104160, Note_on_c, 0, 86, 0
2, 104160, Note_on_c, 0, 81, 0
2, 104160, Note_on_c, 0, 79, 88
2, 104160, Note_on_c, 0, 83, 88
2, 104400, Note_on_c, 0, 83, 0
2, 104400, Note_on_c, 0, 79, 0
2, 104400, Note_on_c, 0, 74, 0
2, 104400, Note_on_c, 0, 74, 114
2, 104400, Note_on_c, 0, 81, 114
2, 104400, Note_on_c, 0, 86, 114
2, 104640, Note_on_c, 0, 86, 0
2, 104640, Note_on_c, 0, 81, 0
2, 104640, Note_on_c, 0, 79, 88
2, 104640, Note_on_c, 0, 83, 88
2, 104880, Note_on_c, 0, 83, 0
2, 104880, Note_on_c, 0, 79, 0
2, 104880, Note_on_c, 0, 74, 0
2, 104880, Note_on_c, 0, 74, 114
2, 104880, Note_on_c, 0, 81, 114
2, 104880, Note_on_c, 0, 86, 114
2, 105120, Note_on_c, 0, 86, 0
2, 105120, Note_on_c, 0, 81, 0
2, 105120, Note_on_c, 0, 79, 88
2, 105120, Note_on_c, 0, 83, 88
2, 105360, Note_on_c, 0, 83, 0
2, 105360, Note_on_c, 0, 79, 0
2, 105360, Note_on_c, 0, 74, 0
2, 105360, Note_on_c, 0, 75, 114
2, 105360, Note_on_c, 0, 79, 114
2, 105360, Note_on_c, 0, 84, 114
2, 105360, Note_on_c, 0, 87, 114
2, 105600, Note_on_c, 0, 87, 0
2, 105600, Note_on_c, 0, 75, 0
2, 105600, Note_on_c, 0, 79, 0
2, 105600, Note_on_c, 0, 84, 0
2, 105600, Note_on_c, 0, 74, 88
2, 105600, Note_on_c, 0, 79, 88
2, 105600, Note_on_c, 0, 83, 88
2, 105600, Note_on_c, 0, 86, 88
2, 105840, Note_on_c, 0, 86, 0
2, 105840, Note_on_c, 0, 74, 0
2, 105840, Note_on_c, 0, 79, 0
2, 105840, Note_on_c, 0, 83, 0
2, 105840, Note_on_c, 0, 74, 114
2, 105840, Note_on_c, 0, 81, 114
2, 105840, Note_on_c, 0, 86, 114
2, 106080, Note_on_c, 0, 86, 0
2, 106080, Note_on_c, 0, 81, 0
2, 106080, Note_on_c, 0, 74, 0
2, 106080, Note_on_c, 0, 74, 88
2, 106080, Note_on_c, 0, 79, 88
2, 106080, Note_on_c, 0, 83, 88
2, 106320, Note_on_c, 0, 83, 0
2, 106320, Note_on_c, 0, 79, 0
2, 106320, Note_on_c, 0, 74, 0
2, 106320, Note_on_c, 0, 74, 114
2, 106320, Note_on_c, 0, 81, 114
2, 106320, Note_on_c, 0, 86, 114
2, 106560, Note_on_c, 0, 86, 0
2, 106560, Note_on_c, 0, 81, 0
2, 106560, Note_on_c, 0, 74, 0
2, 106560, Note_on_c, 0, 74, 88
2, 106560, Note_on_c, 0, 79, 88
2, 106560, Note_on_c, 0, 83, 88
2, 106800, Note_on_c, 0, 83, 0
2, 106800, Note_on_c, 0, 79, 0
2, 106800, Note_on_c, 0, 74, 0
2, 106800, Note_on_c, 0, 74, 114
2, 106800, Note_on_c, 0, 81, 114
2, 106800, Note_on_c, 0, 86, 114
2, 107040, Note_on_c, 0, 86, 0
2, 107040, Note_on_c, 0, 81, 0
2, 107040, Note_on_c, 0, 74, 0
2, 107040, Note_on_c, 0, 74, 88
2, 107040, Note_on_c, 0, 79, 88
2, 107040, Note_on_c, 0, 83, 88
2, 107280, Note_on_c, 0, 83, 0
2, 107280, Note_on_c, 0, 79, 0
2, 107280, Note_on_c, 0, 74, 0
2, 107280, Note_on_c, 0, 75, 114
2, 107280, Note_on_c, 0, 79, 114
2, 107280, Note_on_c, 0, 84, 114
2, 107280, Note_on_c, 0, 87, 114
2, 107520, Note_on_c, 0, 87, 0
2, 107520, Note_on_c, 0, 75, 0
2, 107520, Note_on_c, 0, 79, 0
2, 107520, Note_on_c, 0, 84, 0
2, 107520, Note_on_c, 0, 74, 88
2, 107520, Note_on_c, 0, 79, 88
2, 107520, Note_on_c, 0, 83, 88
2, 107520, Note_on_c, 0, 86, 88
2, 107760, Note_on_c, 0, 86, 0
2, 107760, Note_on_c, 0, 74, 0
2, 107760, Note_on_c, 0, 79, 0
2, 107760, Note_on_c, 0, 83, 0
2, 108000, Note_on_c, 0, 74, 88
2, 108480, Note_on_c, 0, 74, 0
2, 108480, Note_on_c, 0, 71, 62
2, 108960, Note_on_c, 0, 71, 0
2, 108960, Note_on_c, 0, 79, 88
2, 109440, Note_on_c, 0, 79, 0
2, 109440, Note_on_c, 0, 78, 62
2, 109920, Note_on_c, 0, 78, 0
2, 109920, Note_on_c, 0, 73, 62
2, 110280, Note_on_c, 0, 73, 0
2, 110280, Note_on_c, 0, 74, 62
2, 110400, Note_on_c, 0, 74, 0
2, 110400, Note_on_c, 0, 78, 62
2, 110880, Note_on_c, 0, 78, 0
2, 110880, Note_on_c, 0, 73, 62
2, 111240, Note_on_c, 0, 73, 0
2, 111240, Note_on_c, 0, 74, 62
2, 111360, Note_on_c, 0, 74, 0
2, 111360, Note_on_c, 0, 78, 62
2, 111840, Note_on_c, 0, 78, 0
2, 111840, Note_on_c, 0, 70, 62
2, 112200, Note_on_c, 0, 70, 0
2, 112200, Note_on_c, 0, 71, 62
2, 112320, Note_on_c, 0, 71, 0
2, 112320, Note_on_c, 0, 74, 62
2, 112800, Note_on_c, 0, 74, 0
2, 112800, Note_on_c, 0, 70, 62
2, 113160, Note_on_c, 0, 70, 0
2, 113160, Note_on_c, 0, 71, 62
2, 113280, Note_on_c, 0, 71, 0
2, 113280, Note_on_c, 0, 74, 62
2, 113760, Note_on_c, 0, 74, 0
2, 113760, Note_on_c, 0, 65, 62
2, 114000, Note_on_c, 0, 65, 0
2, 114000, Note_on_c, 0, 66, 62
2, 114240, Note_on_c, 0, 66, 0
2, 114240, Note_on_c, 0, 74, 88
2, 114960, Note_on_c, 0, 74, 0
2, 114960, Note_on_c, 0, 73, 62
2, 115200, Note_on_c, 0, 73, 0
2, 115200, Note_on_c, 0, 71, 62
2, 115680, Note_on_c, 0, 71, 0
2, 115680, Note_on_c, 0, 78, 88
2, 116160, Note_on_c, 0, 78, 0
2, 116160, Note_on_c, 0, 75, 62
2, 116640, Note_on_c, 0, 75, 0
2, 116640, Note_on_c, 0, 81, 88
2, 117120, Note_on_c, 0, 81, 0
2, 117120, Note_on_c, 0, 80, 62
2, 117600, Note_on_c, 0, 80, 0
2, 117600, Note_on_c, 0, 75, 62
2, 117960, Note_on_c, 0, 75, 0
2, 117960, Note_on_c, 0, 76, 62
2, 118080, Note_on_c, 0, 76, 0
2, 118080, Note_on_c, 0, 80, 62
2, 118560, Note_on_c, 0, 80, 0
2, 118560, Note_on_c, 0, 75, 62
2, 118920, Note_on_c, 0, 75, 0
2, 118920, Note_on_c, 0, 76, 62
2, 119040, Note_on_c, 0, 76, 0
2, 119040, Note_on_c, 0, 80, 62
2, 119520, Note_on_c, 0, 80, 0
2, 119520, Note_on_c, 0, 72, 62
2, 119880, Note_on_c, 0, 72, 0
2, 119880, Note_on_c, 0, 73, 62
2, 120000, Note_on_c, 0, 73, 0
2, 120000, Note_on_c, 0, 76, 62
2, 120480, Note_on_c, 0, 76, 0
2, 120480, Note_on_c, 0, 72, 62
2, 120840, Note_on_c, 0, 72, 0
2, 120840, Note_on_c, 0, 73, 62
2, 120960, Note_on_c, 0, 73, 0
2, 120960, Note_on_c, 0, 76, 62
2, 121440, Note_on_c, 0, 76, 0
2, 121440, Note_on_c, 0, 67, 62
2, 121800, Note_on_c, 0, 67, 0
2, 121800, Note_on_c, 0, 68, 62
2, 121920, Note_on_c, 0, 68, 0
2, 121920, Note_on_c, 0, 76, 88
2, 122640, Note_on_c, 0, 76, 0
2, 122640, Note_on_c, 0, 75, 62
2, 122880, Note_on_c, 0, 75, 0
2, 122880, Note_on_c, 0, 64, 62
2, 122880, Note_on_c, 0, 73, 62
2, 123120, Note_on_c, 0, 73, 0
2, 123120, Note_on_c, 0, 64, 0
2, 123480, Control_c, 0, 64, 127
2, 123480, Note_on_c, 0, 61, 101
2, 123480, Note_on_c, 0, 73, 101
2, 123600, Note_on_c, 0, 73, 0
2, 123600, Note_on_c, 0, 61, 0
2, 123720, Note_on_c, 0, 63, 101
2, 123720, Note_on_c, 0, 75, 101
2, 123840, Note_on_c, 0, 75, 0
2, 123840, Note_on_c, 0, 63, 0
2, 123960, Note_on_c, 0, 64, 101
2, 123960, Note_on_c, 0, 76, 101
2, 124080, Note_on_c, 0, 76, 0
2, 124080, Note_on_c, 0, 64, 0
2, 124200, Note_on_c, 0, 68, 101
2, 124200, Note_on_c, 0, 80, 101
2, 124320, Note_on_c, 0, 80, 0
2, 124320, Note_on_c, 0, 68, 0
2, 124440, Note_on_c, 0, 73, 101
2, 124440, Note_on_c, 0, 85, 101
2, 124560, Note_on_c, 0, 85, 0
2, 124560, Note_on_c, 0, 73, 0
2, 124680, Note_on_c, 0, 76, 101
2, 124680, Note_on_c, 0, 88, 101
2, 124800, Note_on_c, 0, 88, 0
2, 124800, Note_on_c, 0, 76, 0
2, 124800, Control_c, 0, 64, 0
2, 124800, Note_on_c, 0, 78, 101
2, 124800, Note_on_c, 0, 90, 101
2, 126000, Note_on_c, 0, 90, 0
2, 126000, Note_on_c, 0, 78, 0
2, 126000, Note_on_c, 0, 75, 101
2, 126000, Note_on_c, 0, 87, 101
2, 126240, Note_on_c, 0, 87, 0
2, 126240, Note_on_c, 0, 75, 0
2, 126240, Note_on_c, 0, 80, 101
2, 126240, Note_on_c, 0, 92, 101
2, 126480, Note_on_c, 0, 92, 0
2, 126480, Note_on_c, 0, 80, 0
2, 126480, Note_on_c, 0, 78, 101
2, 126480, Note_on_c, 0, 90, 101
2, 126720, Note_on_c, 0, 90, 0
2, 126720, Note_on_c, 0, 78, 0
2, 126720, Note_on_c, 0, 76, 101
2, 126720, Note_on_c, 0, 88, 101
2, 126960, Note_on_c, 0, 88, 0
2, 126960, Note_on_c, 0, 76, 0
2, 126960, Note_on_c, 0, 73, 127
2, 126960, Note_on_c, 0, 85, 127
2, 127200, Note_on_c, 0, 85, 0
2, 127200, Note_on_c, 0, 73, 0
2, 127200, Note_on_c, 0, 76, 127
2, 127200, Note_on_c, 0, 88, 127
2, 127920, Note_on_c, 0, 88, 0
2, 127920, Note_on_c, 0, 76, 0
2, 127920, Note_on_c, 0, 73, 127
2, 127920, Note_on_c, 0, 85, 127
2, 128160, Note_on_c, 0, 85, 0
2, 128160, Note_on_c, 0, 73, 0
2, 128160, Note_on_c, 0, 75, 127
2, 128160, Note_on_c, 0, 87, 127
2, 128880, Note_on_c, 0, 87, 0
2, 128880, Note_on_c, 0, 75, 0
2, 128880, Note_on_c, 0, 73, 127
2, 128880, Note_on_c, 0, 85, 127
2, 129120, Note_on_c, 0, 85, 0
2, 129120, Note_on_c, 0, 73, 0
2, 129120, Note_on_c, 0, 76, 127
2, 129120, Note_on_c, 0, 88, 127
2, 129840, Note_on_c, 0, 88, 0
2, 129840, Note_on_c, 0, 76, 0
2, 129840, Note_on_c, 0, 75, 101
2, 129840, Note_on_c, 0, 87, 101
2, 130320, Note_on_c, 0, 87, 0
2, 130320, Note_on_c, 0, 75, 0
2, 130320, Note_on_c, 0, 76, 101
2, 130320, Note_on_c, 0, 88, 101
2, 130560, Note_on_c, 0, 88, 0
2, 130560, Note_on_c, 0, 76, 0
2, 130560, Note_on_c, 0, 73, 101
2, 130560, Note_on_c, 0, 85, 101
2, 130800, Note_on_c, 0, 85, 0
2, 130800, Note_on_c, 0, 73, 0
2, 130920, Control_c, 0, 64, 127
2, 130920, Note_on_c, 0, 61, 101
2, 130920, Note_on_c, 0, 73, 101
2, 131040, Note_on_c, 0, 73, 0
2, 131040, Note_on_c, 0, 61, 0
2, 131160, Note_on_c, 0, 63, 101
2, 131160, Note_on_c, 0, 75, 101
2, 131280, Note_on_c, 0, 75, 0
2, 131280, Note_on_c, 0, 63, 0
2, 131400, Note_on_c, 0, 64, 101
2, 131400, Note_on_c, 0, 76, 101
2, 131520, Note_on_c, 0, 76, 0
2, 131520, Note_on_c, 0, 64, 0
2, 131640, Note_on_c, 0, 67, 101
2, 131640, Note_on_c, 0, 79, 101
2, 131760, Note_on_c, 0, 79, 0
2, 131760, Note_on_c, 0, 67, 0
2, 131880, Note_on_c, 0, 68, 101
2, 131880, Note_on_c, 0, 80, 101
2, 132000, Note_on_c, 0, 80, 0
2, 132000, Note_on_c, 0, 68, 0
2, 132120, Note_on_c, 0, 73, 101
2, 132120, Note_on_c, 0, 85, 101
2, 132240, Note_on_c, 0, 85, 0
2, 132240, Note_on_c, 0, 73, 0
2, 132360, Note_on_c, 0, 76, 101
2, 132360, Note_on_c, 0, 88, 101
2, 132480, Note_on_c, 0, 88, 0
2, 132480, Note_on_c, 0, 76, 0
2, 132480, Control_c, 0, 64, 0
2, 132480, Note_on_c, 0, 78, 101
2, 132480, Note_on_c, 0, 90, 101
2, 133680, Note_on_c, 0, 90, 0
2, 133680, Note_on_c, 0, 78, 0
2, 133680, Note_on_c, 0, 75, 101
2, 133680, Note_on_c, 0, 87, 101
2, 133920, Note_on_c, 0, 87, 0
2, 133920, Note_on_c, 0, 75, 0
2, 133920, Note_on_c, 0, 80, 101
2, 133920, Note_on_c, 0, 92, 101
2, 134160, Note_on_c, 0, 92, 0
2, 134160, Note_on_c, 0, 80, 0
2, 134160, Note_on_c, 0, 78, 101
2, 134160, Note_on_c, 0, 90, 101
2, 134400, Note_on_c, 0, 90, 0
2, 134400, Note_on_c, 0, 78, 0
2, 134400, Note_on_c, 0, 76, 101
2, 134400, Note_on_c, 0, 88, 101
2, 134640, Note_on_c, 0, 88, 0
2, 134640, Note_on_c, 0, 76, 0
2, 134640, Note_on_c, 0, 73, 127
2, 134640, Note_on_c, 0, 85, 127
2, 134880, Note_on_c, 0, 85, 0
2, 134880, Note_on_c, 0, 73, 0
2, 134880, Note_on_c, 0, 76, 127
2, 134880, Note_on_c, 0, 88, 127
2, 135600, Note_on_c, 0, 88, 0
2, 135600, Note_on_c, 0, 76, 0
2, 135600, Note_on_c, 0, 73, 127
2, 135600, Note_on_c, 0, 85, 127
2, 135840, Note_on_c, 0, 85, 0
2, 135840, Note_on_c, 0, 73, 0
2, 135840, Note_on_c, 0, 75, 127
2, 135840, Note_on_c, 0, 87, 127
2, 136560, Note_on_c, 0, 87, 0
2, 136560, Note_on_c, 0, 75, 0
2, 136560, Note_on_c, 0, 73, 127
2, 136560, Note_on_c, 0, 85, 127
2, 136800, Note_on_c, 0, 85, 0
2, 136800, Note_on_c, 0, 73, 0
2, 136800, Note_on_c, 0, 76, 127
2, 136800, Note_on_c, 0, 88, 127
2, 137520, Note_on_c, 0, 88, 0
2, 137520, Note_on_c, 0, 76, 0
2, 137520, Note_on_c, 0, 75, 101
2, 137520, Note_on_c, 0, 87, 101
2, 138000, Note_on_c, 0, 87, 0
2, 138000, Note_on_c, 0, 75, 0
2, 138000, Note_on_c, 0, 76, 101
2, 138000, Note_on_c, 0, 88, 101
2, 138240, Note_on_c, 0, 88, 0
2, 138240, Note_on_c, 0, 76, 0
2, 138240, Note_on_c, 0, 73, 101
2, 138240, Note_on_c, 0, 76, 101
2, 138240, Note_on_c, 0, 80, 101
2, 138240, Note_on_c, 0, 85, 101
2, 138480, Note_on_c, 0, 85, 0
2, 138480, Note_on_c, 0, 73, 0
2, 138480, Note_on_c, 0, 76, 0
2, 138480, Note_on_c, 0, 80, 0
2, 138480, Note_on_c, 0, 64, 101
2, 138480, Note_on_c, 0, 76, 101
2, 138720, Note_on_c, 0, 76, 0
2, 138720, Note_on_c, 0, 64, 0
2, 138720, Note_on_c, 0, 68, 101
2, 138720, Note_on_c, 0, 80, 101
2, 138960, Note_on_c, 0, 80, 0
2, 138960, Note_on_c, 0, 68, 0
2, 138960, Note_on_c, 0, 73, 101
2, 138960, Note_on_c, 0, 85, 101
2, 139200, Note_on_c, 0, 85, 0
2, 139200, Note_on_c, 0, 73, 0
2, 139200, Note_on_c, 0, 76, 101
2, 139200, Note_on_c, 0, 78, 101
2, 139200, Note_on_c, 0, 84, 101
2, 139200, Note_on_c, 0, 88, 101
2, 139920, Note_on_c, 0, 88, 0
2, 139920, Note_on_c, 0, 76, 0
2, 139920, Note_on_c, 0, 78, 0
2, 139920, Note_on_c, 0, 84, 0
2, 139920, Note_on_c, 0, 75, 101
2, 139920, Note_on_c, 0, 87, 101
2, 140160, Note_on_c, 0, 87, 0
2, 140160, Note_on_c, 0, 75, 0
2, 140160, Note_on_c, 0, 73, 101
2, 140160, Note_on_c, 0, 76, 101
2, 140160, Note_on_c, 0, 80, 101
2, 140160, Note_on_c, 0, 85, 101
2, 140400, Note_on_c, 0, 85, 0
2, 140400, Note_on_c, 0, 73, 0
2, 140400, Note_on_c, 0, 76, 0
2, 140400, Note_on_c, 0, 80, 0
2, 140400, Note_on_c, 0, 64, 101
2, 140400, Note_on_c, 0, 76, 101
2, 140640, Note_on_c, 0, 76, 0
2, 140640, Note_on_c, 0, 64, 0
2, 140640, Note_on_c, 0, 68, 101
2, 140640, Note_on_c, 0, 80, 101
2, 140880, Note_on_c, 0, 80, 0
2, 140880, Note_on_c, 0, 68, 0
2, 140880, Note_on_c, 0, 73, 101
2, 140880, Note_on_c, 0, 85, 101
2, 141120, Note_on_c, 0, 85, 0
2, 141120, Note_on_c, 0, 73, 0
2, 141120, Note_on_c, 0, 76, 101
2, 141120, Note_on_c, 0, 78, 101
2, 141120, Note_on_c, 0, 84, 101
2, 141120, Note_on_c, 0, 88, 101
2, 141840, Note_on_c, 0, 88, 0
2, 141840, Note_on_c, 0, 76, 0
2, 141840, Note_on_c, 0, 78, 0
2, 141840, Note_on_c, 0, 84, 0
2, 141840, Note_on_c, 0, 75, 101
2, 141840, Note_on_c, 0, 87, 101
2, 142080, Note_on_c, 0, 87, 0
2, 142080, Note_on_c, 0, 75, 0
2, 142080, Note_on_c, 0, 73, 101
2, 142080, Note_on_c, 0, 76, 101
2, 142080, Note_on_c, 0, 80, 101
2, 142080, Note_on_c, 0, 85, 101
2, 142320, Note_on_c, 0, 85, 0
2, 142320, Note_on_c, 0, 73, 0
2, 142320, Note_on_c, 0, 76, 0
2, 142320, Note_on_c, 0, 80, 0
2, 142320, Control_c, 0, 64, 127
2, 142320, Note_on_c, 0, 73, 101
2, 142320, Note_on_c, 0, 85, 101
2, 142560, Note_on_c, 0, 85, 0
2, 142560, Note_on_c, 0, 73, 0
2, 142560, Note_on_c, 0, 75, 101
2, 142560, Note_on_c, 0, 80, 101
2, 142560, Note_on_c, 0, 85, 101
2, 142560, Note_on_c, 0, 87, 101
2, 142800, Note_on_c, 0, 87, 0
2, 142800, Note_on_c, 0, 75, 0
2, 142800, Note_on_c, 0, 80, 0
2, 142800, Note_on_c, 0, 85, 0
2, 142800, Note_on_c, 0, 76, 101
2, 142800, Note_on_c, 0, 88, 101
2, 143040, Note_on_c, 0, 88, 0
2, 143040, Note_on_c, 0, 76, 0
2, 143040, Control_c, 0, 64, 0
2, 143040, Note_on_c, 0, 78, 101
2, 143040, Note_on_c, 0, 90, 101
2, 143280, Note_on_c, 0, 90, 0
2, 143280, Note_on_c, 0, 78, 0
2, 143280, Note_on_c, 0, 76, 101
2, 143280, Note_on_c, 0, 88, 101
2, 143520, Note_on_c, 0, 88, 0
2, 143520, Note_on_c, 0, 76, 0
2, 143520, Note_on_c, 0, 78, 101
2, 143520, Note_on_c, 0, 85, 101
2, 143520, Note_on_c, 0, 88, 101
2, 143520, Note_on_c, 0, 90, 101
2, 143760, Note_on_c, 0, 90, 0
2, 143760, Note_on_c, 0, 78, 0
2, 143760, Note_on_c, 0, 85, 0
2, 143760, Note_on_c, 0, 88, 0
2, 143760, Note_on_c, 0, 80, 101
2, 143760, Note_on_c, 0, 92, 101
2, 144000, Note_on_c, 0, 92, 0
2, 144000, Note_on_c, 0, 80, 0
2, 144000, Control_c, 0, 64, 127
2, 144000, Note_on_c, 0, 85, 101
2, 144000, Note_on_c, 0, 88, 101
2, 144000, Note_on_c, 0, 93, 101
2, 144120, Note_on_c, 0, 93, 0
2, 144120, Note_on_c, 0, 88, 0
2, 144120, Note_on_c, 0, 85, 0
2, 144120, Note_on_c, 0, 81, 101
2, 144240, Note_on_c, 0, 81, 0
2, 144240, Note_on_c, 0, 93, 101
2, 144360, Note_on_c, 0, 93, 0
2, 144360, Control_c, 0, 64, 0
2, 144360, Note_on_c, 0, 81, 101
2, 144480, Note_on_c, 0, 81, 0
2, 144480, Control_c, 0, 64, 127
2, 144480, Note_on_c, 0, 85, 101
2, 144480, Note_on_c, 0, 90, 101
2, 144480, Note_on_c, 0, 93, 101
2, 144600, Note_on_c, 0, 93, 0
2, 144600, Note_on_c, 0, 90, 0
2, 144600, Note_on_c, 0, 85, 0
2, 144600, Note_on_c, 0, 81, 101
2, 144720, Note_on_c, 0, 81, 0
2, 144720, Note_on_c, 0, 93, 101
2, 144840, Note_on_c, 0, 93, 0
2, 144840, Control_c, 0, 64, 0
2, 144840, Note_on_c, 0, 81, 101
2, 144960, Note_on_c, 0, 81, 0
2, 144960, Control_c, 0, 64, 127
2, 144960, Note_on_c, 0, 86, 101
2, 144960, Note_on_c, 0, 90, 101
2, 144960, Note_on_c, 0, 93, 101
2, 145080, Note_on_c, 0, 93, 0
2, 145080, Note_on_c, 0, 90, 0
2, 145080, Note_on_c, 0, 86, 0
2, 145080, Note_on_c, 0, 81, 101
2, 145200, Note_on_c, 0, 81, 0
2, 145200, Note_on_c, 0, 93, 101
2, 145320, Note_on_c, 0, 93, 0
2, 145320, Control_c, 0, 64, 0
2, 145320, Note_on_c, 0, 81, 101
2, 145440, Note_on_c, 0, 81, 0
2, 145440, Note_on_c, 0, 87, 101
2, 145440, Note_on_c, 0, 90, 101
2, 145440, Note_on_c, 0, 93, 101
2, 145560, Note_on_c, 0, 93, 0
2, 145560, Note_on_c, 0, 90, 0
2, 145560, Note_on_c, 0, 87, 0
2, 145560, Note_on_c, 0, 81, 101
2, 145680, Note_on_c, 0, 81, 0
2, 145680, Note_on_c, 0, 87, 101
2, 145680, Note_on_c, 0, 90, 101
2, 145680, Note_on_c, 0, 92, 101
2, 145800, Note_on_c, 0, 92, 0
2, 145800, Note_on_c, 0, 90, 0
2, 145800, Note_on_c, 0, 87, 0
2, 145800, Note_on_c, 0, 80, 101
2, 145920, Note_on_c, 0, 80, 0
2, 145920, Note_on_c, 0, 73, 101
2, 145920, Note_on_c, 0, 76, 101
2, 145920, Note_on_c, 0, 80, 101
2, 145920, Note_on_c, 0, 85, 101
2, 146160, Note_on_c, 0, 85, 0
2, 146160, Note_on_c, 0, 73, 0
2, 146160, Note_on_c, 0, 76, 0
2, 146160, Note_on_c, 0, 80, 0
2, 146160, Note_on_c, 0, 64, 101
2, 146160, Note_on_c, 0, 76, 101
2, 146400, Note_on_c, 0, 76, 0
2, 146400, Note_on_c, 0, 64, 0
2, 146400, Note_on_c, 0, 68, 101
2, 146400, Note_on_c, 0, 80, 101
2, 146640, Note_on_c, 0, 80, 0
2, 146640, Note_on_c, 0, 68, 0
2, 146640, Note_on_c, 0, 73, 101
2, 146640, Note_on_c, 0, 85, 101
2, 146880, Note_on_c, 0, 85, 0
2, 146880, Note_on_c, 0, 73, 0
2, 146880, Note_on_c, 0, 76, 101
2, 146880, Note_on_c, 0, 78, 101
2, 146880, Note_on_c, 0, 84, 101
2, 146880, Note_on_c, 0, 88, 101
2, 147600, Note_on_c, 0, 88, 0
2, 147600, Note_on_c, 0, 76, 0
2, 147600, Note_on_c, 0, 78, 0
2, 147600, Note_on_c, 0, 84, 0
2, 147600, Note_on_c, 0, 75, 101
2, 147600, Note_on_c, 0, 87, 101
2, 147840, Note_on_c, 0, 87, 0
2, 147840, Note_on_c, 0, 75, 0
2, 147840, Note_on_c, 0, 73, 101
2, 147840, Note_on_c, 0, 76, 101
2, 147840, Note_on_c, 0, 80, 101
2, 147840, Note_on_c, 0, 85, 101
2, 148080, Note_on_c, 0, 85, 0
2, 148080, Note_on_c, 0, 73, 0
2, 148080, Note_on_c, 0, 76, 0
2, 148080, Note_on_c, 0, 80, 0
2, 148080, Note_on_c, 0, 64, 101
2, 148080, Note_on_c, 0, 76, 101
2, 148320, Note_on_c, 0, 76, 0
2, 148320, Note_on_c, 0, 64, 0
2, 148320, Note_on_c, 0, 68, 101
2, 148320, Note_on_c, 0, 80, 101
2, 148560, Note_on_c, 0, 80, 0
2, 148560, Note_on_c, 0, 68, 0
2, 148560, Note_on_c, 0, 73, 101
2, 148560, Note_on_c, 0, 85, 101
2, 148800, Note_on_c, 0, 85, 0
2, 148800, Note_on_c, 0, 73, 0
2, 148800, Note_on_c, 0, 76, 101
2, 148800, Note_on_c, 0, 78, 101
2, 148800, Note_on_c, 0, 84, 101
2, 148800, Note_on_c, 0, 88, 101
2, 149520, Note_on_c, 0, 88, 0
2, 149520, Note_on_c, 0, 76, 0
2, 149520, Note_on_c, 0, 78, 0
2, 149520, Note_on_c, 0, 84, 0
2, 149520, Note_on_c, 0, 75, 101
2, 149520, Note_on_c, 0, 87, 101
2, 149760, Note_on_c, 0, 87, 0
2, 149760, Note_on_c, 0, 75, 0
2, 149760, Note_on_c, 0, 73, 101
2, 149760, Note_on_c, 0, 76, 101
2, 149760, Note_on_c, 0, 80, 101
2, 149760, Note_on_c, 0, 85, 101
2, 150000, Note_on_c, 0, 85, 0
2, 150000, Note_on_c, 0, 73, 0
2, 150000, Note_on_c, 0, 76, 0
2, 150000, Note_on_c, 0, 80, 0
2, 150000, Control_c, 0, 64, 127
2, 150000, Note_on_c, 0, 73, 101
2, 150000, Note_on_c, 0, 85, 101
2, 150240, Note_on_c, 0, 85, 0
2, 150240, Note_on_c, 0, 73, 0
2, 150240, Note_on_c, 0, 75, 101
2, 150240, Note_on_c, 0, 80, 101
2, 150240, Note_on_c, 0, 85, 101
2, 150240, Note_on_c, 0, 87, 101
2, 150480, Note_on_c, 0, 87, 0
2, 150480, Note_on_c, 0, 75, 0
2, 150480, Note_on_c, 0, 80, 0
2, 150480, Note_on_c, 0, 85, 0
2, 150480, Note_on_c, 0, 76, 101
2, 150480, Note_on_c, 0, 88, 101
2, 150720, Note_on_c, 0, 88, 0
2, 150720, Note_on_c, 0, 76, 0
2, 150720, Control_c, 0, 64, 0
2, 150720, Note_on_c, 0, 78, 101
2, 150720, Note_on_c, 0, 90, 101
2, 150960, Note_on_c, 0, 90, 0
2, 150960, Note_on_c, 0, 78, 0
2, 150960, Note_on_c, 0, 76, 101
2, 150960, Note_on_c, 0, 88, 101
2, 151200, Note_on_c, 0, 88, 0
2, 151200, Note_on_c, 0, 76, 0
2, 151200, Note_on_c, 0, 78, 101
2, 151200, Note_on_c, 0, 85, 101
2, 151200, Note_on_c, 0, 88, 101
2, 151200, Note_on_c, 0, 90, 101
2, 151440, Note_on_c, 0, 90, 0
2, 151440, Note_on_c, 0, 78, 0
2, 151440, Note_on_c, 0, 85, 0
2, 151440, Note_on_c, 0, 88, 0
2, 151440, Note_on_c, 0, 80, 101
2, 151440, Note_on_c, 0, 92, 101
2, 151680, Note_on_c, 0, 92, 0
2, 151680, Note_on_c, 0, 80, 0
2, 151680, Control_c, 0, 64, 127
2, 151680, Note_on_c, 0, 85, 101
2, 151680, Note_on_c, 0, 88, 101
2, 151680, Note_on_c, 0, 93, 101
2, 151800, Note_on_c, 0, 93, 0
2, 151800, Note_on_c, 0, 88, 0
2, 151800, Note_on_c, 0, 85, 0
2, 151800, Note_on_c, 0, 81, 101
2, 151920, Note_on_c, 0, 81, 0
2, 151920, Note_on_c, 0, 93, 101
2, 152040, Note_on_c, 0, 93, 0
2, 152040, Control_c, 0, 64, 0
2, 152040, Note_on_c, 0, 81, 101
2, 152160, Note_on_c, 0, 81, 0
2, 152160, Control_c, 0, 64, 127
2, 152160, Note_on_c, 0, 85, 101
2, 152160, Note_on_c, 0, 90, 101
2, 152160, Note_on_c, 0, 93, 101
2, 152280, Note_on_c, 0, 93, 0
2, 152280, Note_on_c, 0, 90, 0
2, 152280, Note_on_c, 0, 85, 0
2, 152280, Note_on_c, 0, 81, 101
2, 152400, Note_on_c, 0, 81, 0
2, 152400, Note_on_c, 0, 93, 101
2, 152520, Note_on_c, 0, 93, 0
2, 152520, Control_c, 0, 64, 0
2, 152520, Note_on_c, 0, 81, 101
2, 152640, Note_on_c, 0, 81, 0
2, 152640, Control_c, 0, 64, 127
2, 152640, Note_on_c, 0, 86, 101
2, 152640, Note_on_c, 0, 90, 101
2, 152640, Note_on_c, 0, 93, 101
2, 152760, Note_on_c, 0, 93, 0
2, 152760, Note_on_c, 0, 90, 0
2, 152760, Note_on_c, 0, 86, 0
2, 152760, Note_on_c, 0, 81, 101
2, 152880, Note_on_c, 0, 81, 0
2, 152880, Note_on_c, 0, 93, 101
2, 153000, Note_on_c, 0, 93, 0
2, 153000, Control_c, 0, 64, 0
2, 153000, Note_on_c, 0, 81, 101
2, 153120, Note_on_c, 0, 81, 0
2, 153120, Note_on_c, 0, 87, 101
2, 153120, Note_on_c, 0, 90, 101
2, 153120, Note_on_c, 0, 93, 101
2, 153240, Note_on_c, 0, 93, 0
2, 153240, Note_on_c, 0, 90, 0
2, 153240, Note_on_c, 0, 87, 0
2, 153240, Note_on_c, 0, 81, 101
2, 153360, Note_on_c, 0, 81, 0
2, 153360, Note_on_c, 0, 87, 101
2, 153360, Note_on_c, 0, 90, 101
2, 153360, Note_on_c, 0, 92, 101
2, 153480, Note_on_c, 0, 92, 0
2, 153480, Note_on_c, 0, 90, 0
2, 153480, Note_on_c, 0, 87, 0
2, 153480, Note_on_c, 0, 80, 101
2, 153600, Note_on_c, 0, 80, 0
2, 153600, Control_c, 0, 64, 127
2, 153600, Note_on_c, 0, 83, 101
2, 153600, Note_on_c, 0, 95, 101
2, 153840, Note_on_c, 0, 95, 0
2, 153840, Note_on_c, 0, 83, 0
2, 153840, Note_on_c, 0, 81, 101
2, 153840, Note_on_c, 0, 93, 101
2, 154080, Note_on_c, 0, 93, 0
2, 154080, Note_on_c, 0, 81, 0
2, 154080, Note_on_c, 0, 80, 101
2, 154080, Note_on_c, 0, 92, 101
2, 154320, Note_on_c, 0, 92, 0
2, 154320, Note_on_c, 0, 80, 0
2, 154320, Control_c, 0, 64, 0
2, 154320, Note_on_c, 0, 81, 101
2, 154320, Note_on_c, 0, 93, 101
2, 154560, Note_on_c, 0, 93, 0
2, 154560, Note_on_c, 0, 81, 0
2, 154560, Control_c, 0, 64, 127
2, 154560, Note_on_c, 0, 83, 101
2, 154560, Note_on_c, 0, 95, 101
2, 154800, Note_on_c, 0, 95, 0
2, 154800, Note_on_c, 0, 83, 0
2, 154800, Note_on_c, 0, 81, 101
2, 154800, Note_on_c, 0, 93, 101
2, 155040, Note_on_c, 0, 93, 0
2, 155040, Note_on_c, 0, 81, 0
2, 155040, Note_on_c, 0, 78, 101
2, 155040, Note_on_c, 0, 90, 101
2, 155280, Note_on_c, 0, 90, 0
2, 155280, Note_on_c, 0, 78, 0
2, 155280, Control_c, 0, 64, 0
2, 155280, Note_on_c, 0, 74, 101
2, 155280, Note_on_c, 0, 86, 101
2, 155520, Note_on_c, 0, 86, 0
2, 155520, Note_on_c, 0, 74, 0
2, 155520, Note_on_c, 0, 73, 101
2, 155520, Note_on_c, 0, 85, 101
2, 155760, Note_on_c, 0, 85, 0
2, 155760, Note_on_c, 0, 73, 0
2, 155760, Note_on_c, 0, 75, 101
2, 155760, Note_on_c, 0, 87, 101
2, 156000, Note_on_c, 0, 87, 0
2, 156000, Note_on_c, 0, 75, 0
2, 156000, Note_on_c, 0, 76, 101
2, 156000, Note_on_c, 0, 88, 101
2, 156720, Note_on_c, 0, 88, 0
2, 156720, Note_on_c, 0, 76, 0
2, 156720, Control_c, 0, 64, 127
2, 156720, Note_on_c, 0, 80, 101
2, 156720, Note_on_c, 0, 92, 101
2, 156960, Note_on_c, 0, 92, 0
2, 156960, Note_on_c, 0, 80, 0
2, 156960, Note_on_c, 0, 76, 101
2, 156960, Note_on_c, 0, 88, 101
2, 157200, Note_on_c, 0, 88, 0
2, 157200, Note_on_c, 0, 76, 0
2, 157200, Note_on_c, 0, 75, 101
2, 157200, Note_on_c, 0, 87, 101
2, 157440, Note_on_c, 0, 87, 0
2, 157440, Note_on_c, 0, 75, 0
2, 157440, Control_c, 0, 64, 0
2, 157440, Note_on_c, 0, 73, 101
2, 157440, Note_on_c, 0, 85, 101
2, 157680, Note_on_c, 0, 85, 0
2, 157680, Note_on_c, 0, 73, 0
2, 157680, Control_c, 0, 64, 127
2, 157680, Note_on_c, 0, 80, 101
2, 157680, Note_on_c, 0, 92, 101
2, 157920, Note_on_c, 0, 92, 0
2, 157920, Note_on_c, 0, 80, 0
2, 157920, Note_on_c, 0, 76, 101
2, 157920, Note_on_c, 0, 88, 101
2, 158160, Note_on_c, 0, 88, 0
2, 158160, Note_on_c, 0, 76, 0
2, 158160, Note_on_c, 0, 75, 101
2, 158160, Note_on_c, 0, 87, 101
2, 158400, Note_on_c, 0, 87, 0
2, 158400, Note_on_c, 0, 75, 0
2, 158400, Control_c, 0, 64, 0
2, 158400, Note_on_c, 0, 73, 101
2, 158400, Note_on_c, 0, 85, 101
2, 158640, Note_on_c, 0, 85, 0
2, 158640, Note_on_c, 0, 73, 0
2, 158640, Control_c, 0, 64, 127
2, 158640, Note_on_c, 0, 80, 101
2, 158640, Note_on_c, 0, 92, 101
2, 158880, Note_on_c, 0, 92, 0
2, 158880, Note_on_c, 0, 80, 0
2, 158880, Note_on_c, 0, 76, 101
2, 158880, Note_on_c, 0, 88, 101
2, 159120, Note_on_c, 0, 88, 0
2, 159120, Note_on_c, 0, 76, 0
2, 159120, Note_on_c, 0, 75, 101
2, 159120, Note_on_c, 0, 87, 101
2, 159360, Note_on_c, 0, 87, 0
2, 159360, Note_on_c, 0, 75, 0
2, 159360, Control_c, 0, 64, 0
2, 159360, Note_on_c, 0, 73, 101
2, 159360, Note_on_c, 0, 85, 101
2, 159600, Note_on_c, 0, 85, 0
2, 159600, Note_on_c, 0, 73, 0
2, 159600, Control_c, 0, 64, 127
2, 159600, Note_on_c, 0, 80, 101
2, 159600, Note_on_c, 0, 92, 101
2, 159840, Note_on_c, 0, 92, 0
2, 159840, Note_on_c, 0, 80, 0
2, 159840, Note_on_c, 0, 76, 101
2, 159840, Note_on_c, 0, 88, 101
2, 160080, Note_on_c, 0, 88, 0
2, 160080, Note_on_c, 0, 76, 0
2, 160080, Note_on_c, 0, 75, 101
2, 160080, Note_on_c, 0, 87, 101
2, 160320, Note_on_c, 0, 87, 0
2, 160320, Note_on_c, 0, 75, 0
2, 160320, Control_c, 0, 64, 0
2, 160320, Note_on_c, 0, 73, 101
2, 160320, Note_on_c, 0, 85, 101
2, 160560, Note_on_c, 0, 85, 0
2, 160560, Note_on_c, 0, 73, 0
2, 160560, Control_c, 0, 64, 127
2, 160560, Note_on_c, 0, 80, 101
2, 160560, Note_on_c, 0, 92, 101
2, 160800, Note_on_c, 0, 92, 0
2, 160800, Note_on_c, 0, 80, 0
2, 160800, Note_on_c, 0, 76, 101
2, 160800, Note_on_c, 0, 88, 101
2, 161040, Note_on_c, 0, 88, 0
2, 161040, Note_on_c, 0, 76, 0
2, 161040, Note_on_c, 0, 75, 101
2, 161040, Note_on_c, 0, 87, 101
2, 161280, Note_on_c, 0, 87, 0
2, 161280, Note_on_c, 0, 75, 0
2, 161280, Control_c, 0, 64, 0
2, 161280, Note_on_c, 0, 73, 101
2, 161280, Note_on_c, 0, 85, 101
2, 161760, Note_on_c, 0, 85, 0
2, 161760, Note_on_c, 0, 73, 0
2, 161760, Note_on_c, 0, 73, 101
2, 161760, Note_on_c, 0, 85, 101
2, 162240, Note_on_c, 0, 85, 0
2, 162240, Note_on_c, 0, 73, 0
2, 162240, Note_on_c, 0, 61, 127
2, 162720, Note_on_c, 0, 61, 0
2, 165120, Note_on_c, 0, 88, 88
2, 165600, Note_on_c, 0, 88, 0
2, 165600, Note_on_c, 0, 85, 62
2, 166080, Note_on_c, 0, 85, 0
2, 166080, Note_on_c, 0, 93, 88
2, 166560, Note_on_c, 0, 93, 0
2, 166560, Note_on_c, 0, 92, 62
2, 167040, Note_on_c, 0, 92, 0
2, 167040, Note_on_c, 0, 87, 62
2, 167400, Note_on_c, 0, 87, 0
2, 167400, Note_on_c, 0, 88, 62
2, 167520, Note_on_c, 0, 88, 0
2, 167520, Note_on_c, 0, 92, 62
2, 168000, Note_on_c, 0, 92, 0
2, 168000, Note_on_c, 0, 87, 62
2, 168360, Note_on_c, 0, 87, 0
2, 168360, Note_on_c, 0, 88, 62
2, 168480, Note_on_c, 0, 88, 0
2, 168480, Note_on_c, 0, 92, 62
2, 168960, Note_on_c, 0, 92, 0
2, 168960, Note_on_c, 0, 84, 62
2, 169320, Note_on_c, 0, 84, 0
2, 169320, Note_on_c, 0, 85, 62
2, 169440, Note_on_c, 0, 85, 0
2, 169440, Note_on_c, 0, 88, 62
2, 169920, Note_on_c, 0, 88, 0
2, 169920, Note_on_c, 0, 84, 62
2, 170280, Note_on_c, 0, 84, 0
2, 170280, Note_on_c, 0, 85, 62
2, 170400, Note_on_c, 0, 85, 0
2, 170400, Note_on_c, 0, 88, 62
2, 170880, Note_on_c, 0, 88, 0
2, 170880, Note_on_c, 0, 79, 62
2, 171240, Note_on_c, 0, 79, 0
2, 171240, Note_on_c, 0, 79, 62
2, 171360, Note_on_c, 0, 79, 0
2, 171360, Note_on_c, 0, 88, 88
2, 172080, Note_on_c, 0, 88, 0
2, 172080, Note_on_c, 0, 87, 62
2, 172320, Note_on_c, 0, 87, 0
2, 172320, Note_on_c, 0, 80, 62
2, 172320, Note_on_c, 0, 85, 62
2, 173760, Note_on_c, 0, 85, 0
2, 173760, Note_on_c, 0, 80, 0
2, 173760, Note_on_c, 0, 81, 62
2, 174120, Note_on_c, 0, 81, 0
2, 174120, Note_on_c, 0, 83, 62
2, 174240, Note_on_c, 0, 83, 0
2, 174240, Note_on_c, 0, 85, 62
2, 174480, Note_on_c, 0, 85, 0
2, 174480, Note_on_c, 0, 88, 62
2, 174720, Note_on_c, 0, 88, 0
2, 174720, Note_on_c, 0, 87, 62
2, 174960, Note_on_c, 0, 87, 0
2, 174960, Note_on_c, 0, 85, 62
2, 175200, Note_on_c, 0, 85, 0
2, 175200, Control_c, 0, 64, 127
2, 175200, Note_on_c, 0, 84, 62
2, 175260, Note_on_c, 0, 84, 0
2, 175260, Note_on_c, 0, 85, 62
2, 175320, Note_on_c, 0, 85, 0
2, 175320, Note_on_c, 0, 84, 62
2, 175380, Note_on_c, 0, 84, 0
2, 175380, Note_on_c, 0, 85, 62
2, 175440, Note_on_c, 0, 85, 0
2, 175440, Note_on_c, 0, 84, 62
2, 175500, Note_on_c, 0, 84, 0
2, 175500, Note_on_c, 0, 85, 62
2, 175560, Note_on_c, 0, 85, 0
2, 175560, Note_on_c, 0, 84, 62
2, 175620, Note_on_c, 0, 84, 0
2, 175620, Note_on_c, 0, 85, 62
2, 175680, Note_on_c, 0, 85, 0
2, 175680, Note_on_c, 0, 84, 62
2, 175740, Note_on_c, 0, 84, 0
2, 175740, Note_on_c, 0, 85, 62
2, 175800, Note_on_c, 0, 85, 0
2, 175800, Note_on_c, 0, 84, 62
2, 175860, Note_on_c, 0, 84, 0
2, 175860, Note_on_c, 0, 85, 62
2, 175920, Note_on_c, 0, 85, 0
2, 175920, Note_on_c, 0, 83, 62
2, 176040, Note_on_c, 0, 83, 0
2, 176040, Note_on_c, 0, 84, 62
2, 176160, Note_on_c, 0, 84, 0
2, 176160, Control_c, 0, 64, 0
2, 176160, Note_on_c, 0, 85, 62
2, 176400, Note_on_c, 0, 85, 0
2, 176640, Note_on_c, 0, 77, 62
2, 178080, Note_on_c, 0, 77, 0
2, 178080, Note_on_c, 0, 78, 62
2, 178320, Note_on_c, 0, 78, 0
2, 178560, Note_on_c, 0, 75, 62
2, 178800, Note_on_c, 0, 75, 0
2, 178800, Note_on_c, 0, 73, 62
2, 179040, Note_on_c, 0, 73, 0
2, 179040, Note_on_c, 0, 69, 62
2, 179040, Note_on_c, 0, 72, 62
2, 179520, Note_on_c, 0, 69, 0
2, 179520, Note_on_c, 0, 68, 62
2, 180000, Note_on_c, 0, 68, 0
2, 180000, Note_on_c, 0, 72, 0
2, 180000, Note_on_c, 0, 68, 62
2, 180000, Note_on_c, 0, 73, 62
2, 180240, Note_on_c, 0, 73, 0
2, 180240, Note_on_c, 0, 68, 0
2, 180480, Note_on_c, 0, 80, 88
2, 181200, Note_on_c, 0, 80, 0
2, 181200, Note_on_c, 0, 75, 62
2, 181440, Note_on_c, 0, 75, 0
2, 181440, Note_on_c, 0, 76, 62
2, 181680, Note_on_c, 0, 76, 0
2, 181680, Note_on_c, 0, 72, 62
2, 181920, Note_on_c, 0, 72, 0
2, 181920, Note_on_c, 0, 73, 62
2, 182160, Note_on_c, 0, 73, 0
2, 182400, Note_on_c, 0, 92, 88
2, 183120, Note_on_c, 0, 92, 0
2, 183120, Note_on_c, 0, 87, 62
2, 183360, Note_on_c, 0, 87, 0
2, 183360, Note_on_c, 0, 88, 62
2, 183600, Note_on_c, 0, 88, 0
2, 183600, Note_on_c, 0, 84, 62
2, 183840, Note_on_c, 0, 84, 0
2, 183840, Control_c, 0, 64, 127
2, 183840, Note_on_c, 0, 85, 62
2, 183900, Note_on_c, 0, 85, 0
2, 183900, Note_on_c, 0, 87, 62
2, 183960, Note_on_c, 0, 87, 0
2, 183960, Note_on_c, 0, 85, 62
2, 184020, Note_on_c, 0, 85, 0
2, 184020, Note_on_c, 0, 87, 62
2, 184080, Note_on_c, 0, 87, 0
2, 184080, Note_on_c, 0, 85, 62
2, 184140, Note_on_c, 0, 85, 0
2, 184140, Note_on_c, 0, 87, 62
2, 184200, Note_on_c, 0, 87, 0
2, 184200, Note_on_c, 0, 85, 62
2, 184260, Note_on_c, 0, 85, 0
2, 184260, Note_on_c, 0, 87, 62
2, 184320, Note_on_c, 0, 87, 0
2, 184320, Note_on_c, 0, 85, 62
2, 184380, Note_on_c, 0, 85, 0
2, 184380, Note_on_c, 0, 87, 62
2, 184440, Note_on_c, 0, 87, 0
2, 184440, Note_on_c, 0, 85, 62
2, 184500, Note_on_c, 0, 85, 0
2, 184500, Note_on_c, 0, 87, 62
2, 184560, Note_on_c, 0, 87, 0
2, 184560, Note_on_c, 0, 85, 62
2, 184620, Note_on_c, 0, 85, 0
2, 184620, Note_on_c, 0, 87, 62
2, 184680, Note_on_c, 0, 87, 0
2, 184680, Note_on_c, 0, 85, 62
2, 184740, Note_on_c, 0, 85, 0
2, 184740, Note_on_c, 0, 87, 62
2, 184800, Note_on_c, 0, 87, 0
2, 184800, Note_on_c, 0, 85, 62
2, 184860, Note_on_c, 0, 85, 0
2, 184860, Note_on_c, 0, 87, 62
2, 184920, Note_on_c, 0, 87, 0
2, 184920, Note_on_c, 0, 85, 62
2, 184980, Note_on_c, 0, 85, 0
2, 184980, Note_on_c, 0, 87, 62
2, 185040, Note_on_c, 0, 87, 0
2, 185040, Note_on_c, 0, 85, 62
2, 185100, Note_on_c, 0, 85, 0
2, 185100, Note_on_c, 0, 87, 62
2, 185160, Note_on_c, 0, 87, 0
2, 185160, Note_on_c, 0, 85, 62
2, 185220, Note_on_c, 0, 85, 0
2, 185220, Note_on_c, 0, 87, 62
2, 185280, Note_on_c, 0, 87, 0
2, 185280, Note_on_c, 0, 85, 62
2, 185340, Note_on_c, 0, 85, 0
2, 185340, Note_on_c, 0, 87, 62
2, 185400, Note_on_c, 0, 87, 0
2, 185400, Note_on_c, 0, 85, 62
2, 185460, Note_on_c, 0, 85, 0
2, 185460, Note_on_c, 0, 87, 62
2, 185520, Note_on_c, 0, 87, 0
2, 185520, Note_on_c, 0, 84, 62
2, 185640, Note_on_c, 0, 84, 0
2, 185640, Control_c, 0, 64, 0
2, 185640, Note_on_c, 0, 85, 62
2, 185760, Note_on_c, 0, 85, 0
2, 185760, Note_on_c, 0, 88, 62
2, 185791, Note_on_c, 0, 88, 0
2, 185919, Note_on_c, 0, 87, 62
2, 185951, Note_on_c, 0, 87, 0
2, 186080, Note_on_c, 0, 85, 62
2, 186112, Note_on_c, 0, 85, 0
2, 186240, Note_on_c, 0, 81, 62
2, 186271, Note_on_c, 0, 81, 0
2, 186399, Note_on_c, 0, 80, 62
2, 186431, Note_on_c, 0, 80, 0
2, 186560, Note_on_c, 0, 76, 62
2, 186592, Note_on_c, 0, 76, 0
2, 186720, Note_on_c, 0, 73, 62
2, 186751, Note_on_c, 0, 73, 0
2, 186879, Note_on_c, 0, 80, 62
2, 186911, Note_on_c, 0, 80, 0
2, 187040, Note_on_c, 0, 76, 62
2, 187072, Note_on_c, 0, 76, 0
2, 187200, Note_on_c, 0, 73, 62
2, 187231, Note_on_c, 0, 73, 0
2, 187359, Note_on_c, 0, 68, 62
2, 187391, Note_on_c, 0, 68, 0
2, 187520, Note_on_c, 0, 64, 62
2, 187552, Note_on_c, 0, 64, 0
2, 187680, Note_on_c, 0, 61, 62
2, 190080, Note_on_c, 0, 61, 0
2, 191520, Control_c, 0, 64, 127
2, 194880, Control_c, 0, 64, 0
2, 194880, End_track
3, 0, Start_track
3, 0, Title_t, "Grand Piano"
3, 0, Program_c, 0, 0
3, 0, Control_c, 0, 7, 115
3, 0, Control_c, 0, 10, 79
3, 240, Note_on_c, 0, 61, 49
3, 1920, Note_on_c, 0, 61, 0
3, 1920, Note_on_c, 0, 65, 62
3, 2400, Note_on_c, 0, 65, 0
3, 2400, Note_on_c, 0, 64, 62
3, 2880, Note_on_c, 0, 64, 0
3, 2880, Note_on_c, 0, 63, 62
3, 2880, Note_on_c, 0, 68, 62
3, 3360, Note_on_c, 0, 68, 0
3, 3360, Note_on_c, 0, 63, 0
3, 3360, Note_on_c, 0, 61, 62
3, 3360, Note_on_c, 0, 68, 62
3, 3840, Note_on_c, 0, 68, 0
3, 3840, Note_on_c, 0, 61, 0
3, 3840, Note_on_c, 0, 61, 62
3, 4080, Note_on_c, 0, 61, 0
3, 4080, Note_on_c, 0, 70, 62
3, 4320, Note_on_c, 0, 70, 0
3, 4320, Note_on_c, 0, 68, 62
3, 4320, Note_on_c, 0, 72, 62
3, 4800, Note_on_c, 0, 72, 0
3, 4800, Note_on_c, 0, 68, 0
3, 4800, Note_on_c, 0, 66, 62
3, 5760, Note_on_c, 0, 66, 0
3, 5760, Note_on_c, 0, 68, 62
3, 6240, Note_on_c, 0, 77, 62
3, 6720, Note_on_c, 0, 77, 0
3, 6720, Note_on_c, 0, 68, 0
3, 6720, Note_on_c, 0, 68, 62
3, 6720, Note_on_c, 0, 77, 62
3, 7680, Note_on_c, 0, 77, 0
3, 7680, Note_on_c, 0, 68, 0
3, 7920, Note_on_c, 0, 61, 49
3, 9120, Note_on_c, 0, 61, 0
3, 9600, Note_on_c, 0, 65, 62
3, 10080, Note_on_c, 0, 65, 0
3, 10080, Note_on_c, 0, 64, 62
3, 10560, Note_on_c, 0, 64, 0
3, 10560, Note_on_c, 0, 63, 62
3, 10560, Note_on_c, 0, 68, 62
3, 11040, Note_on_c, 0, 68, 0
3, 11040, Note_on_c, 0, 63, 0
3, 11040, Note_on_c, 0, 61, 62
3, 11040, Note_on_c, 0, 68, 62
3, 11520, Note_on_c, 0, 68, 0
3, 11520, Note_on_c, 0, 61, 0
3, 11520, Note_on_c, 0, 61, 62
3, 11760, Note_on_c, 0, 61, 0
3, 11760, Note_on_c, 0, 70, 62
3, 12000, Note_on_c, 0, 70, 0
3, 12000, Note_on_c, 0, 68, 62
3, 12000, Note_on_c, 0, 72, 62
3, 12480, Note_on_c, 0, 72, 0
3, 12480, Note_on_c, 0, 68, 0
3, 12480, Note_on_c, 0, 66, 62
3, 13440, Note_on_c, 0, 66, 0
3, 13440, Note_on_c, 0, 68, 62
3, 13920, Note_on_c, 0, 77, 62
3, 14400, Note_on_c, 0, 77, 0
3, 14400, Note_on_c, 0, 68, 0
3, 14400, Note_on_c, 0, 68, 62
3, 14400, Note_on_c, 0, 77, 62
3, 15360, Note_on_c, 0, 77, 0
3, 15360, Note_on_c, 0, 68, 0
3, 16320, Note_on_c, 0, 67, 75
3, 16560, Note_on_c, 0, 67, 0
3, 16560, Note_on_c, 0, 66, 75
3, 16680, Note_on_c, 0, 66, 0
3, 16680, Note_on_c, 0, 67, 75
3, 16800, Note_on_c, 0, 67, 0
3, 16800, Note_on_c, 0, 69, 75
3, 17040, Note_on_c, 0, 69, 0
3, 17040, Note_on_c, 0, 68, 75
3, 17160, Note_on_c, 0, 68, 0
3, 17160, Note_on_c, 0, 69, 75
3, 17280, Note_on_c, 0, 69, 0
3, 18240, Note_on_c, 0, 67, 75
3, 18480, Note_on_c, 0, 67, 0
3, 18480, Note_on_c, 0, 66, 75
3, 18600, Note_on_c, 0, 66, 0
3, 18600, Note_on_c, 0, 67, 75
3, 18720, Note_on_c, 0, 67, 0
3, 18720, Note_on_c, 0, 69, 75
3, 18960, Note_on_c, 0, 69, 0
3, 18960, Note_on_c, 0, 68, 75
3, 19080, Note_on_c, 0, 68, 0
3, 19080, Note_on_c, 0, 69, 75
3, 19200, Note_on_c, 0, 69, 0
3, 20160, Note_on_c, 0, 73, 75
3, 20640, Note_on_c, 0, 73, 0
3, 20640, Note_on_c, 0, 71, 75
3, 21120, Note_on_c, 0, 71, 0
3, 22080, Note_on_c, 0, 73, 75
3, 22560, Note_on_c, 0, 73, 0
3, 22560, Note_on_c, 0, 71, 75
3, 23040, Note_on_c, 0, 71, 0
3, 23040, Note_on_c, 0, 70, 75
3, 23280, Note_on_c, 0, 70, 0
3, 23760, Note_on_c, 0, 70, 75
3, 24000, Note_on_c, 0, 70, 0
3, 24000, Note_on_c, 0, 72, 75
3, 24240, Note_on_c, 0, 72, 0
3, 24240, Note_on_c, 0, 70, 75
3, 24360, Note_on_c, 0, 70, 0
3, 24360, Note_on_c, 0, 72, 75
3, 24480, Note_on_c, 0, 72, 0
3, 24480, Note_on_c, 0, 74, 75
3, 24720, Note_on_c, 0, 74, 0
3, 24720, Note_on_c, 0, 72, 75
3, 24840, Note_on_c, 0, 72, 0
3, 24840, Note_on_c, 0, 74, 75
3, 24960, Note_on_c, 0, 74, 0
3, 25920, Note_on_c, 0, 66, 75
3, 26400, Note_on_c, 0, 66, 0
3, 26400, Note_on_c, 0, 64, 75
3, 26880, Note_on_c, 0, 64, 0
3, 28800, Note_on_c, 0, 63, 75
3, 29760, Note_on_c, 0, 63, 0
3, 29760, Note_on_c, 0, 61, 75
3, 29760, Note_on_c, 0, 66, 75
3, 30240, Note_on_c, 0, 61, 0
3, 30240, Note_on_c, 0, 59, 75
3, 30720, Note_on_c, 0, 59, 0
3, 30720, Note_on_c, 0, 66, 0
3, 30720, Note_on_c, 0, 59, 75
3, 30960, Note_on_c, 0, 59, 0
3, 30960, Note_on_c, 0, 68, 75
3, 31200, Note_on_c, 0, 68, 0
3, 31200, Note_on_c, 0, 66, 75
3, 31200, Note_on_c, 0, 71, 75
3, 31680, Note_on_c, 0, 71, 0
3, 31680, Note_on_c, 0, 66, 0
3, 31680, Note_on_c, 0, 64, 75
3, 32640, Note_on_c, 0, 64, 0
3, 32640, Note_on_c, 0, 66, 75
3, 33120, Note_on_c, 0, 66, 0
3, 33120, Note_on_c, 0, 66, 75
3, 33120, Note_on_c, 0, 75, 75
3, 33600, Note_on_c, 0, 75, 0
3, 33600, Note_on_c, 0, 66, 0
3, 33600, Note_on_c, 0, 66, 75
3, 33600, Note_on_c, 0, 76, 75
3, 34560, Note_on_c, 0, 76, 0
3, 34560, Note_on_c, 0, 66, 0
3, 36480, Note_on_c, 0, 63, 62
3, 36960, Note_on_c, 0, 63, 0
3, 36960, Note_on_c, 0, 62, 62
3, 37440, Note_on_c, 0, 62, 0
3, 37440, Note_on_c, 0, 61, 62
3, 37440, Note_on_c, 0, 66, 62
3, 37920, Note_on_c, 0, 61, 0
3, 37920, Note_on_c, 0, 59, 62
3, 38400, Note_on_c, 0, 59, 0
3, 38400, Note_on_c, 0, 66, 0
3, 38400, Note_on_c, 0, 59, 62
3, 38640, Note_on_c, 0, 59, 0
3, 38640, Note_on_c, 0, 68, 62
3, 38880, Note_on_c, 0, 68, 0
3, 38880, Note_on_c, 0, 66, 62
3, 38880, Note_on_c, 0, 71, 62
3, 39360, Note_on_c, 0, 71, 0
3, 39360, Note_on_c, 0, 66, 0
3, 39360, Note_on_c, 0, 64, 62
3, 40320, Note_on_c, 0, 64, 0
3, 40320, Note_on_c, 0, 66, 62
3, 40800, Note_on_c, 0, 66, 0
3, 40800, Note_on_c, 0, 66, 62
3, 40800, Note_on_c, 0, 75, 62
3, 41280, Note_on_c, 0, 75, 0
3, 41280, Note_on_c, 0, 66, 0
3, 41280, Note_on_c, 0, 66, 62
3, 41280, Note_on_c, 0, 76, 62
3, 42240, Note_on_c, 0, 76, 0
3, 42240, Note_on_c, 0, 66, 0
3, 42960, Note_on_c, 0, 63, 75
3, 43200, Note_on_c, 0, 63, 0
3, 43200, Note_on_c, 0, 65, 75
3, 43440, Note_on_c, 0, 65, 0
3, 43440, Note_on_c, 0, 63, 75
3, 43560, Note_on_c, 0, 63, 0
3, 43560, Note_on_c, 0, 65, 75
3, 43680, Note_on_c, 0, 65, 0
3, 43680, Note_on_c, 0, 67, 75
3, 43920, Note_on_c, 0, 67, 0
3, 43920, Note_on_c, 0, 66, 75
3, 44040, Note_on_c, 0, 66, 0
3, 44040, Note_on_c, 0, 67, 75
3, 44160, Note_on_c, 0, 67, 0
3, 44160, Note_on_c, 0, 59, 75
3, 44400, Note_on_c, 0, 59, 0
3, 44880, Note_on_c, 0, 63, 75
3, 45120, Note_on_c, 0, 63, 0
3, 45120, Note_on_c, 0, 65, 75
3, 45360, Note_on_c, 0, 65, 0
3, 45360, Note_on_c, 0, 63, 75
3, 45480, Note_on_c, 0, 63, 0
3, 45480, Note_on_c, 0, 65, 75
3, 45600, Note_on_c, 0, 65, 0
3, 45600, Note_on_c, 0, 67, 75
3, 45840, Note_on_c, 0, 67, 0
3, 45840, Note_on_c, 0, 66, 75
3, 45960, Note_on_c, 0, 66, 0
3, 45960, Note_on_c, 0, 67, 75
3, 46080, Note_on_c, 0, 67, 0
3, 47040, Note_on_c, 0, 71, 75
3, 47520, Note_on_c, 0, 71, 0
3, 47520, Note_on_c, 0, 69, 75
3, 48000, Note_on_c, 0, 69, 0
3, 48960, Note_on_c, 0, 71, 75
3, 49440, Note_on_c, 0, 71, 0
3, 49440, Note_on_c, 0, 69, 75
3, 49920, Note_on_c, 0, 69, 0
3, 49920, Note_on_c, 0, 68, 75
3, 50160, Note_on_c, 0, 68, 0
3, 50640, Note_on_c, 0, 80, 75
3, 50880, Note_on_c, 0, 80, 0
3, 50880, Note_on_c, 0, 82, 75
3, 51120, Note_on_c, 0, 82, 0
3, 51120, Note_on_c, 0, 80, 75
3, 51240, Note_on_c, 0, 80, 0
3, 51240, Note_on_c, 0, 82, 75
3, 51360, Note_on_c, 0, 82, 0
3, 51360, Note_on_c, 0, 84, 75
3, 51600, Note_on_c, 0, 84, 0
3, 51600, Note_on_c, 0, 82, 75
3, 51720, Note_on_c, 0, 82, 0
3, 51720, Note_on_c, 0, 84, 75
3, 51840, Note_on_c, 0, 84, 0
3, 52800, Note_on_c, 0, 76, 75
3, 53280, Note_on_c, 0, 76, 0
3, 53280, Note_on_c, 0, 74, 75
3, 53760, Note_on_c, 0, 74, 0
3, 55680, Control_c, 0, 64, 127
3, 55680, Note_on_c, 0, 56, 75
3, 56160, Note_on_c, 0, 56, 0
3, 56160, Note_on_c, 0, 61, 75
3, 56640, Note_on_c, 0, 61, 0
3, 56640, Note_on_c, 0, 62, 75
3, 57120, Note_on_c, 0, 62, 0
3, 57120, Control_c, 0, 64, 0
3, 57120, Note_on_c, 0, 63, 75
3, 57600, Note_on_c, 0, 63, 0
3, 63360, Control_c, 0, 64, 127
3, 63360, Note_on_c, 0, 56, 75
3, 63840, Note_on_c, 0, 56, 0
3, 63840, Note_on_c, 0, 61, 75
3, 64320, Note_on_c, 0, 61, 0
3, 64320, Note_on_c, 0, 62, 75
3, 64800, Note_on_c, 0, 62, 0
3, 64800, Control_c, 0, 64, 0
3, 64800, Note_on_c, 0, 63, 75
3, 65280, Note_on_c, 0, 63, 0
3, 78240, Note_on_c, 0, 74, 101
3, 78720, Note_on_c, 0, 74, 0
3, 78720, Note_on_c, 0, 76, 75
3, 79200, Note_on_c, 0, 76, 0
3, 79200, Note_on_c, 0, 78, 101
3, 79680, Note_on_c, 0, 78, 0
3, 79680, Note_on_c, 0, 79, 75
3, 80160, Note_on_c, 0, 79, 0
3, 80160, Note_on_c, 0, 80, 101
3, 80640, Note_on_c, 0, 80, 0
3, 85920, Note_on_c, 0, 74, 75
3, 86400, Note_on_c, 0, 74, 0
3, 86400, Note_on_c, 0, 76, 75
3, 86880, Note_on_c, 0, 76, 0
3, 86880, Note_on_c, 0, 78, 101
3, 87360, Note_on_c, 0, 78, 0
3, 87360, Note_on_c, 0, 79, 75
3, 87840, Note_on_c, 0, 79, 0
3, 87840, Note_on_c, 0, 80, 101
3, 88320, Note_on_c, 0, 80, 0
3, 108480, Note_on_c, 0, 67, 62
3, 108527, Note_on_c, 0, 67, 0
3, 109440, Note_on_c, 0, 70, 62
3, 109487, Note_on_c, 0, 70, 0
3, 110400, Note_on_c, 0, 66, 62
3, 110447, Note_on_c, 0, 66, 0
3, 112320, Note_on_c, 0, 62, 62
3, 112367, Note_on_c, 0, 62, 0
3, 113280, Note_on_c, 0, 62, 62
3, 113327, Note_on_c, 0, 62, 0
3, 114240, Note_on_c, 0, 64, 62
3, 114287, Note_on_c, 0, 64, 0
3, 114720, Note_on_c, 0, 64, 62
3, 114767, Note_on_c, 0, 64, 0
3, 115200, Note_on_c, 0, 62, 62
3, 115247, Note_on_c, 0, 62, 0
3, 121920, Note_on_c, 0, 66, 62
3, 121967, Note_on_c, 0, 66, 0
3, 122400, Note_on_c, 0, 66, 62
3, 122447, Note_on_c, 0, 66, 0
3, 166560, Note_on_c, 0, 84, 49
3, 167040, Note_on_c, 0, 84, 0
3, 167520, Note_on_c, 0, 87, 49
3, 168000, Note_on_c, 0, 87, 0
3, 168000, Note_on_c, 0, 84, 49
3, 168480, Note_on_c, 0, 84, 0
3, 168480, Note_on_c, 0, 85, 49
3, 168960, Note_on_c, 0, 85, 0
3, 169440, Note_on_c, 0, 81, 49
3, 170400, Note_on_c, 0, 81, 0
3, 170400, Note_on_c, 0, 80, 49
3, 170880, Note_on_c, 0, 80, 0
3, 170880, Note_on_c, 0, 76, 49
3, 171360, Note_on_c, 0, 76, 0
3, 171360, Note_on_c, 0, 78, 49
3, 171360, Note_on_c, 0, 80, 49
3, 172320, Note_on_c, 0, 80, 0
3, 172320, Note_on_c, 0, 78, 0
3, 172320, Note_on_c, 0, 76, 49
3, 172800, Note_on_c, 0, 76, 0
3, 173280, Note_on_c, 0, 77, 49
3, 174240, Note_on_c, 0, 77, 0
3, 174240, Note_on_c, 0, 73, 49
3, 174240, Note_on_c, 0, 78, 49
3, 174240, Note_on_c, 0, 81, 49
3, 175200, Note_on_c, 0, 81, 0
3, 175200, Note_on_c, 0, 78, 0
3, 175200, Note_on_c, 0, 73, 0
3, 175200, Note_on_c, 0, 78, 49
3, 175680, Note_on_c, 0, 78, 0
3, 175680, Note_on_c, 0, 80, 49
3, 176160, Note_on_c, 0, 80, 0
3, 176160, Note_on_c, 0, 80, 49
3, 176400, Note_on_c, 0, 80, 0
3, 176640, Note_on_c, 0, 71, 49
3, 176880, Note_on_c, 0, 71, 0
3, 176880, Note_on_c, 0, 73, 49
3, 177120, Note_on_c, 0, 73, 0
3, 177120, Note_on_c, 0, 74, 49
3, 177180, Note_on_c, 0, 74, 0
3, 177180, Note_on_c, 0, 77, 49
3, 177240, Note_on_c, 0, 77, 0
3, 177240, Note_on_c, 0, 74, 49
3, 177300, Note_on_c, 0, 74, 0
3, 177300, Note_on_c, 0, 77, 49
3, 177360, Note_on_c, 0, 77, 0
3, 177360, Note_on_c, 0, 73, 49
3, 177480, Note_on_c, 0, 73, 0
3, 177480, Note_on_c, 0, 74, 49
3, 177600, Note_on_c, 0, 74, 0
3, 177600, Note_on_c, 0, 83, 49
3, 177840, Note_on_c, 0, 83, 0
3, 177840, Note_on_c, 0, 74, 49
3, 178080, Note_on_c, 0, 74, 0
3, 178080, Note_on_c, 0, 73, 49
3, 178320, Note_on_c, 0, 73, 0
3, 178560, Note_on_c, 0, 66, 49
3, 178800, Note_on_c, 0, 66, 0
3, 178800, Note_on_c, 0, 64, 49
3, 179040, Note_on_c, 0, 64, 0
3, 179040, Note_on_c, 0, 63, 49
3, 179100, Note_on_c, 0, 63, 0
3, 179100, Note_on_c, 0, 64, 49
3, 179160, Note_on_c, 0, 64, 0
3, 179160, Note_on_c, 0, 63, 49
3, 179220, Note_on_c, 0, 63, 0
3, 179220, Note_on_c, 0, 64, 49
3, 179280, Note_on_c, 0, 64, 0
3, 179280, Note_on_c, 0, 60, 49
3, 179400, Note_on_c, 0, 60, 0
3, 179400, Note_on_c, 0, 61, 49
3, 179520, Note_on_c, 0, 61, 0
3, 179520, Note_on_c, 0, 64, 49
3, 179760, Note_on_c, 0, 64, 0
3, 179760, Note_on_c, 0, 63, 49
3, 180000, Note_on_c, 0, 63, 0
3, 180000, Note_on_c, 0, 61, 49
3, 180240, Note_on_c, 0, 61, 0
3, 180960, Note_on_c, 0, 66, 49
3, 180960, Note_on_c, 0, 68, 49
3, 181920, Note_on_c, 0, 68, 0
3, 181920, Note_on_c, 0, 66, 0
3, 181920, Note_on_c, 0, 64, 49
3, 181920, Note_on_c, 0, 68, 49
3, 182160, Note_on_c, 0, 68, 0
3, 182160, Note_on_c, 0, 64, 0
3, 182880, Note_on_c, 0, 78, 49
3, 182880, Note_on_c, 0, 80, 49
3, 183840, Note_on_c, 0, 80, 0
3, 183840, Note_on_c, 0, 78, 0
3, 183840, Note_on_c, 0, 76, 49
3, 183840, Note_on_c, 0, 80, 49
3, 184080, Note_on_c, 0, 80, 0
3, 184080, Note_on_c, 0, 76, 0
3, 188160, Note_on_c, 0, 52, 49
3, 188160, Note_on_c, 0, 56, 49
3, 188160, Note_on_c, 0, 61, 49
3, 188256, Note_on_c, 0, 61, 0
3, 188256, Note_on_c, 0, 56, 0
3, 188256, Note_on_c, 0, 52, 0
3, 189120, Note_on_c, 0, 52, 49
3, 189120, Note_on_c, 0, 56, 49
3, 189120, Note_on_c, 0, 61, 49
3, 189216, Note_on_c, 0, 61, 0
3, 189216, Note_on_c, 0, 56, 0
3, 189216, Note_on_c, 0, 52, 0
3, 189600, Note_on_c, 0, 52, 49
3, 189600, Note_on_c, 0, 56, 49
3, 189600, Note_on_c, 0, 61, 49
3, 189696, Note_on_c, 0, 61, 0
3, 189696, Note_on_c, 0, 56, 0
3, 189696, Note_on_c, 0, 52, 0
3, 190560, Note_on_c, 0, 52, 49
3, 190560, Note_on_c, 0, 56, 49
3, 190560, Note_on_c, 0, 61, 49
3, 190656, Note_on_c, 0, 61, 0
3, 190656, Note_on_c, 0, 56, 0
3, 190656, Note_on_c, 0, 52, 0
3, 191520, Note_on_c, 0, 52, 49
3, 191520, Note_on_c, 0, 56, 49
3, 191520, Note_on_c, 0, 61, 49
3, 191616, Note_on_c, 0, 61, 0
3, 191616, Note_on_c, 0, 56, 0
3, 191616, Note_on_c, 0, 52, 0
3, 191616, End_track
4, 0, Start_track
4, 0, Title_t, "Grand Piano"
4, 0, Program_c, 0, 0
4, 0, Control_c, 0, 7, 115
4, 0, Control_c, 0, 10, 41
4, 720, Note_on_c, 0, 60, 49
4, 960, Note_on_c, 0, 60, 0
4, 960, Note_on_c, 0, 59, 49
4, 1680, Note_on_c, 0, 59, 0
4, 1680, Note_on_c, 0, 58, 49
4, 1920, Note_on_c, 0, 58, 0
4, 1920, Note_on_c, 0, 56, 62
4, 2640, Note_on_c, 0, 56, 0
4, 2640, Note_on_c, 0, 55, 62
4, 2880, Note_on_c, 0, 55, 0
4, 2880, Note_on_c, 0, 54, 62
4, 3600, Note_on_c, 0, 54, 0
4, 3600, Note_on_c, 0, 53, 62
4, 3840, Note_on_c, 0, 53, 0
4, 3840, Note_on_c, 0, 54, 62
4, 4560, Note_on_c, 0, 54, 0
4, 4560, Note_on_c, 0, 56, 62
4, 4800, Note_on_c, 0, 56, 0
4, 4800, Note_on_c, 0, 57, 62
4, 5520, Note_on_c, 0, 57, 0
4, 5520, Note_on_c, 0, 58, 62
4, 5760, Note_on_c, 0, 58, 0
4, 5760, Note_on_c, 0, 60, 62
4, 6480, Note_on_c, 0, 60, 0
4, 6480, Note_on_c, 0, 61, 62
4, 6720, Note_on_c, 0, 61, 0
4, 6720, Note_on_c, 0, 63, 62
4, 7440, Note_on_c, 0, 63, 0
4, 7440, Note_on_c, 0, 62, 75
4, 7680, Note_on_c, 0, 62, 0
4, 7680, Note_on_c, 0, 61, 75
4, 7920, Note_on_c, 0, 61, 0
4, 8400, Note_on_c, 0, 60, 49
4, 8640, Note_on_c, 0, 60, 0
4, 8640, Note_on_c, 0, 59, 49
4, 9360, Note_on_c, 0, 59, 0
4, 9360, Note_on_c, 0, 58, 49
4, 9600, Note_on_c, 0, 58, 0
4, 9600, Note_on_c, 0, 56, 62
4, 10320, Note_on_c, 0, 56, 0
4, 10320, Note_on_c, 0, 55, 62
4, 10560, Note_on_c, 0, 55, 0
4, 10560, Note_on_c, 0, 54, 62
4, 11280, Note_on_c, 0, 54, 0
4, 11280, Note_on_c, 0, 53, 62
4, 11520, Note_on_c, 0, 53, 0
4, 11520, Note_on_c, 0, 54, 62
4, 12240, Note_on_c, 0, 54, 0
4, 12240, Note_on_c, 0, 56, 62
4, 12480, Note_on_c, 0, 56, 0
4, 12480, Note_on_c, 0, 57, 62
4, 13200, Note_on_c, 0, 57, 0
4, 13200, Note_on_c, 0, 58, 62
4, 13440, Note_on_c, 0, 58, 0
4, 13440, Note_on_c, 0, 60, 62
4, 14160, Note_on_c, 0, 60, 0
4, 14160, Note_on_c, 0, 61, 62
4, 14400, Note_on_c, 0, 61, 0
4, 14400, Note_on_c, 0, 63, 62
4, 15120, Note_on_c, 0, 63, 0
4, 15120, Note_on_c, 0, 62, 75
4, 15360, Note_on_c, 0, 62, 0
4, 15360, Note_on_c, 0, 61, 75
4, 15600, Note_on_c, 0, 61, 0
4, 16080, Note_on_c, 0, 65, 75
4, 16320, Note_on_c, 0, 65, 0
4, 16320, Note_on_c, 0, 65, 75
4, 16800, Note_on_c, 0, 65, 0
4, 16800, Note_on_c, 0, 63, 75
4, 17280, Note_on_c, 0, 63, 0
4, 17280, Note_on_c, 0, 61, 75
4, 17520, Note_on_c, 0, 61, 0
4, 18000, Note_on_c, 0, 65, 75
4, 18240, Note_on_c, 0, 65, 0
4, 18240, Note_on_c, 0, 65, 75
4, 18720, Note_on_c, 0, 65, 0
4, 18720, Note_on_c, 0, 63, 75
4, 19200, Note_on_c, 0, 63, 0
4, 19200, Note_on_c, 0, 61, 75
4, 19440, Note_on_c, 0, 61, 0
4, 19440, Note_on_c, 0, 58, 75
4, 19680, Note_on_c, 0, 58, 0
4, 19680, Note_on_c, 0, 61, 75
4, 21120, Note_on_c, 0, 61, 0
4, 21120, Note_on_c, 0, 70, 75
4, 21360, Note_on_c, 0, 70, 0
4, 21360, Note_on_c, 0, 58, 75
4, 21600, Note_on_c, 0, 58, 0
4, 21600, Note_on_c, 0, 61, 75
4, 23040, Note_on_c, 0, 61, 0
4, 24000, Note_on_c, 0, 70, 75
4, 24480, Note_on_c, 0, 70, 0
4, 24480, Note_on_c, 0, 68, 75
4, 24960, Note_on_c, 0, 68, 0
4, 24960, Note_on_c, 0, 39, 75
4, 24960, Note_on_c, 0, 51, 75
4, 25200, Note_on_c, 0, 51, 0
4, 25200, Note_on_c, 0, 39, 0
4, 25200, Note_on_c, 0, 51, 75
4, 25440, Note_on_c, 0, 51, 0
4, 25440, Note_on_c, 0, 54, 75
4, 26880, Note_on_c, 0, 54, 0
4, 27600, Note_on_c, 0, 58, 49
4, 27840, Note_on_c, 0, 58, 0
4, 27840, Note_on_c, 0, 57, 62
4, 28560, Note_on_c, 0, 57, 0
4, 28560, Note_on_c, 0, 56, 62
4, 28800, Note_on_c, 0, 56, 0
4, 28800, Note_on_c, 0, 54, 62
4, 29520, Note_on_c, 0, 54, 0
4, 29520, Note_on_c, 0, 53, 62
4, 29760, Note_on_c, 0, 53, 0
4, 29760, Note_on_c, 0, 52, 62
4, 30480, Note_on_c, 0, 52, 0
4, 30480, Note_on_c, 0, 51, 62
4, 30720, Note_on_c, 0, 51, 0
4, 30720, Note_on_c, 0, 52, 62
4, 31440, Note_on_c, 0, 52, 0
4, 31440, Note_on_c, 0, 54, 62
4, 31680, Note_on_c, 0, 54, 0
4, 31680, Note_on_c, 0, 55, 62
4, 32400, Note_on_c, 0, 55, 0
4, 32400, Note_on_c, 0, 56, 62
4, 32640, Note_on_c, 0, 56, 0
4, 32640, Note_on_c, 0, 58, 62
4, 33360, Note_on_c, 0, 58, 0
4, 33360, Note_on_c, 0, 59, 62
4, 33600, Note_on_c, 0, 59, 0
4, 33600, Note_on_c, 0, 61, 62
4, 34320, Note_on_c, 0, 61, 0
4, 34320, Note_on_c, 0, 60, 62
4, 34560, Note_on_c, 0, 60, 0
4, 34560, Note_on_c, 0, 59, 62
4, 35280, Note_on_c, 0, 59, 0
4, 35280, Note_on_c, 0, 58, 49
4, 35520, Note_on_c, 0, 58, 0
4, 35520, Note_on_c, 0, 57, 49
4, 36240, Note_on_c, 0, 57, 0
4, 36240, Note_on_c, 0, 56, 49
4, 36480, Note_on_c, 0, 56, 0
4, 36480, Note_on_c, 0, 54, 62
4, 37200, Note_on_c, 0, 54, 0
4, 37200, Note_on_c, 0, 53, 62
4, 37440, Note_on_c, 0, 53, 0
4, 37440, Note_on_c, 0, 52, 62
4, 38160, Note_on_c, 0, 52, 0
4, 38160, Note_on_c, 0, 51, 62
4, 38400, Note_on_c, 0, 51, 0
4, 38400, Note_on_c, 0, 52, 62
4, 39120, Note_on_c, 0, 52, 0
4, 39120, Note_on_c, 0, 54, 62
4, 39360, Note_on_c, 0, 54, 0
4, 39360, Note_on_c, 0, 55, 62
4, 40080, Note_on_c, 0, 55, 0
4, 40080, Note_on_c, 0, 56, 62
4, 40320, Note_on_c, 0, 56, 0
4, 40320, Note_on_c, 0, 58, 62
4, 41040, Note_on_c, 0, 58, 0
4, 41040, Note_on_c, 0, 59, 62
4, 41280, Note_on_c, 0, 59, 0
4, 41280, Note_on_c, 0, 61, 62
4, 42000, Note_on_c, 0, 61, 0
4, 42000, Note_on_c, 0, 60, 62
4, 42240, Note_on_c, 0, 60, 0
4, 43200, Note_on_c, 0, 63, 75
4, 43680, Note_on_c, 0, 63, 0
4, 43680, Note_on_c, 0, 61, 75
4, 44160, Note_on_c, 0, 61, 0
4, 45120, Note_on_c, 0, 63, 75
4, 45600, Note_on_c, 0, 63, 0
4, 45600, Note_on_c, 0, 61, 75
4, 46080, Note_on_c, 0, 61, 0
4, 46320, Note_on_c, 0, 56, 75
4, 46560, Note_on_c, 0, 56, 0
4, 46560, Note_on_c, 0, 59, 75
4, 48000, Note_on_c, 0, 59, 0
4, 48240, Note_on_c, 0, 56, 75
4, 48480, Note_on_c, 0, 56, 0
4, 48480, Note_on_c, 0, 59, 75
4, 49920, Note_on_c, 0, 59, 0
4, 50880, Note_on_c, 0, 79, 75
4, 51360, Note_on_c, 0, 79, 0
4, 51360, Note_on_c, 0, 78, 75
4, 51840, Note_on_c, 0, 78, 0
4, 51840, Note_on_c, 0, 49, 75
4, 51840, Note_on_c, 0, 61, 75
4, 52080, Note_on_c, 0, 61, 0
4, 52080, Note_on_c, 0, 49, 0
4, 52080, Note_on_c, 0, 61, 75
4, 52320, Note_on_c, 0, 61, 0
4, 52320, Note_on_c, 0, 64, 75
4, 53760, Note_on_c, 0, 64, 0
4, 53760, Note_on_c, 0, 57, 75
4, 54000, Note_on_c, 0, 57, 0
4, 54480, Note_on_c, 0, 53, 75
4, 54720, Note_on_c, 0, 53, 0
4, 54720, Note_on_c, 0, 54, 75
4, 54720, Note_on_c, 0, 57, 75
4, 55440, Note_on_c, 0, 57, 0
4, 55440, Note_on_c, 0, 54, 0
4, 55440, Note_on_c, 0, 55, 75
4, 55440, Note_on_c, 0, 57, 75
4, 55680, Note_on_c, 0, 57, 0
4, 55680, Note_on_c, 0, 55, 0
4, 55680, Note_on_c, 0, 56, 75
4, 56400, Note_on_c, 0, 56, 0
4, 56400, Note_on_c, 0, 57, 75
4, 56640, Note_on_c, 0, 57, 0
4, 56640, Note_on_c, 0, 59, 75
4, 57360, Note_on_c, 0, 59, 0
4, 57360, Note_on_c, 0, 60, 75
4, 57600, Note_on_c, 0, 60, 0
4, 57600, Note_on_c, 0, 61, 75
4, 57840, Note_on_c, 0, 61, 0
4, 57840, Note_on_c, 0, 64, 75
4, 58080, Note_on_c, 0, 64, 0
4, 58080, Note_on_c, 0, 67, 101
4, 58560, Note_on_c, 0, 67, 0
4, 58560, Note_on_c, 0, 66, 75
4, 58800, Note_on_c, 0, 66, 0
4, 58800, Note_on_c, 0, 64, 75
4, 58920, Note_on_c, 0, 64, 0
4, 58920, Note_on_c, 0, 62, 75
4, 59040, Note_on_c, 0, 62, 0
4, 59040, Note_on_c, 0, 61, 75
4, 59760, Note_on_c, 0, 61, 0
4, 59760, Note_on_c, 0, 62, 75
4, 60000, Note_on_c, 0, 62, 0
4, 60000, Note_on_c, 0, 66, 101
4, 60480, Note_on_c, 0, 66, 0
4, 60480, Note_on_c, 0, 64, 75
4, 60720, Note_on_c, 0, 64, 0
4, 60720, Note_on_c, 0, 62, 75
4, 60840, Note_on_c, 0, 62, 0
4, 60840, Note_on_c, 0, 61, 75
4, 60960, Note_on_c, 0, 61, 0
4, 60960, Note_on_c, 0, 60, 75
4, 61440, Note_on_c, 0, 60, 0
4, 61440, Note_on_c, 0, 57, 75
4, 61440, Note_on_c, 0, 61, 75
4, 61680, Note_on_c, 0, 61, 0
4, 61680, Note_on_c, 0, 57, 0
4, 62160, Note_on_c, 0, 53, 75
4, 62400, Note_on_c, 0, 53, 0
4, 62400, Note_on_c, 0, 54, 75
4, 62400, Note_on_c, 0, 57, 75
4, 63120, Note_on_c, 0, 57, 0
4, 63120, Note_on_c, 0, 54, 0
4, 63120, Note_on_c, 0, 55, 75
4, 63120, Note_on_c, 0, 57, 75
4, 63360, Note_on_c, 0, 57, 0
4, 63360, Note_on_c, 0, 55, 0
4, 63360, Note_on_c, 0, 56, 75
4, 64080, Note_on_c, 0, 56, 0
4, 64080, Note_on_c, 0, 57, 75
4, 64320, Note_on_c, 0, 57, 0
4, 64320, Note_on_c, 0, 59, 75
4, 65040, Note_on_c, 0, 59, 0
4, 65040, Note_on_c, 0, 60, 75
4, 65280, Note_on_c, 0, 60, 0
4, 65280, Note_on_c, 0, 61, 75
4, 65520, Note_on_c, 0, 61, 0
4, 65520, Note_on_c, 0, 64, 75
4, 65760, Note_on_c, 0, 64, 0
4, 65760, Note_on_c, 0, 67, 101
4, 66240, Note_on_c, 0, 67, 0
4, 66240, Note_on_c, 0, 66, 75
4, 66480, Note_on_c, 0, 66, 0
4, 66480, Note_on_c, 0, 64, 75
4, 66600, Note_on_c, 0, 64, 0
4, 66600, Note_on_c, 0, 62, 75
4, 66720, Note_on_c, 0, 62, 0
4, 66720, Note_on_c, 0, 61, 75
4, 67440, Note_on_c, 0, 61, 0
4, 67440, Note_on_c, 0, 62, 75
4, 67680, Note_on_c, 0, 62, 0
4, 67680, Note_on_c, 0, 66, 101
4, 68160, Note_on_c, 0, 66, 0
4, 68160, Note_on_c, 0, 64, 75
4, 68400, Note_on_c, 0, 64, 0
4, 68400, Note_on_c, 0, 62, 75
4, 68520, Note_on_c, 0, 62, 0
4, 68520, Note_on_c, 0, 61, 75
4, 68640, Note_on_c, 0, 61, 0
4, 68640, Note_on_c, 0, 60, 75
4, 69120, Note_on_c, 0, 60, 0
4, 69120, Note_on_c, 0, 57, 75
4, 69120, Note_on_c, 0, 61, 75
4, 69360, Note_on_c, 0, 61, 0
4, 69360, Note_on_c, 0, 57, 0
4, 69840, Note_on_c, 0, 47, 75
4, 69840, Note_on_c, 0, 59, 75
4, 70080, Note_on_c, 0, 59, 0
4, 70080, Note_on_c, 0, 47, 0
4, 70080, Note_on_c, 0, 46, 75
4, 70080, Note_on_c, 0, 58, 75
4, 70800, Note_on_c, 0, 58, 0
4, 70800, Note_on_c, 0, 46, 0
4, 70800, Note_on_c, 0, 42, 75
4, 70800, Note_on_c, 0, 54, 75
4, 71040, Note_on_c, 0, 54, 0
4, 71040, Note_on_c, 0, 42, 0
4, 71040, Note_on_c, 0, 47, 75
4, 71040, Note_on_c, 0, 59, 75
4, 71760, Note_on_c, 0, 59, 0
4, 71760, Note_on_c, 0, 47, 0
4, 71760, Note_on_c, 0, 45, 75
4, 71760, Note_on_c, 0, 57, 75
4, 72000, Note_on_c, 0, 57, 0
4, 72000, Note_on_c, 0, 45, 0
4, 72000, Note_on_c, 0, 44, 75
4, 72000, Note_on_c, 0, 56, 75
4, 72720, Note_on_c, 0, 56, 0
4, 72720, Note_on_c, 0, 44, 0
4, 72720, Note_on_c, 0, 40, 75
4, 72720, Note_on_c, 0, 52, 75
4, 72960, Note_on_c, 0, 52, 0
4, 72960, Note_on_c, 0, 40, 0
4, 72960, Note_on_c, 0, 45, 75
4, 72960, Note_on_c, 0, 57, 75
4, 73200, Note_on_c, 0, 57, 0
4, 73200, Note_on_c, 0, 45, 0
4, 73680, Note_on_c, 0, 52, 75
4, 73680, Note_on_c, 0, 64, 75
4, 73920, Note_on_c, 0, 64, 0
4, 73920, Note_on_c, 0, 52, 0
4, 73920, Note_on_c, 0, 51, 75
4, 73920, Note_on_c, 0, 63, 75
4, 74640, Note_on_c, 0, 63, 0
4, 74640, Note_on_c, 0, 51, 0
4, 74640, Note_on_c, 0, 47, 75
4, 74640, Note_on_c, 0, 59, 75
4, 74880, Note_on_c, 0, 59, 0
4, 74880, Note_on_c, 0, 47, 0
4, 74880, Note_on_c, 0, 52, 75
4, 74880, Note_on_c, 0, 64, 75
4, 75600, Note_on_c, 0, 64, 0
4, 75600, Note_on_c, 0, 52, 0
4, 75600, Note_on_c, 0, 50, 75
4, 75600, Note_on_c, 0, 62, 75
4, 75840, Note_on_c, 0, 62, 0
4, 75840, Note_on_c, 0, 50, 0
4, 75840, Note_on_c, 0, 49, 75
4, 75840, Note_on_c, 0, 61, 75
4, 76560, Note_on_c, 0, 61, 0
4, 76560, Note_on_c, 0, 49, 0
4, 76560, Note_on_c, 0, 45, 75
4, 76560, Note_on_c, 0, 57, 75
4, 76800, Note_on_c, 0, 57, 0
4, 76800, Note_on_c, 0, 45, 0
4, 76800, Note_on_c, 0, 50, 75
4, 77040, Note_on_c, 0, 50, 0
4, 77520, Note_on_c, 0, 46, 75
4, 77760, Note_on_c, 0, 46, 0
4, 77760, Note_on_c, 0, 47, 75
4, 78480, Note_on_c, 0, 47, 0
4, 78480, Note_on_c, 0, 48, 75
4, 78720, Note_on_c, 0, 48, 0
4, 78720, Note_on_c, 0, 49, 75
4, 79440, Note_on_c, 0, 49, 0
4, 79440, Note_on_c, 0, 50, 75
4, 79680, Note_on_c, 0, 50, 0
4, 79680, Note_on_c, 0, 52, 75
4, 80400, Note_on_c, 0, 52, 0
4, 80400, Note_on_c, 0, 53, 75
4, 80640, Note_on_c, 0, 53, 0
4, 80640, Note_on_c, 0, 54, 75
4, 80880, Note_on_c, 0, 54, 0
4, 80880, Note_on_c, 0, 57, 75
4, 81120, Note_on_c, 0, 57, 0
4, 81120, Note_on_c, 0, 60, 101
4, 81600, Note_on_c, 0, 60, 0
4, 81600, Note_on_c, 0, 59, 75
4, 81840, Note_on_c, 0, 59, 0
4, 81840, Note_on_c, 0, 57, 75
4, 81960, Note_on_c, 0, 57, 0
4, 81960, Note_on_c, 0, 55, 75
4, 82080, Note_on_c, 0, 55, 0
4, 82080, Note_on_c, 0, 54, 101
4, 82800, Note_on_c, 0, 54, 0
4, 82800, Note_on_c, 0, 55, 75
4, 83040, Note_on_c, 0, 55, 0
4, 83040, Note_on_c, 0, 59, 101
4, 83520, Note_on_c, 0, 59, 0
4, 83520, Note_on_c, 0, 57, 75
4, 83760, Note_on_c, 0, 57, 0
4, 83760, Note_on_c, 0, 55, 75
4, 83880, Note_on_c, 0, 55, 0
4, 83880, Note_on_c, 0, 54, 75
4, 84000, Note_on_c, 0, 54, 0
4, 84000, Note_on_c, 0, 53, 101
4, 84480, Note_on_c, 0, 53, 0
4, 84480, Note_on_c, 0, 54, 75
4, 84720, Note_on_c, 0, 54, 0
4, 85200, Note_on_c, 0, 46, 75
4, 85440, Note_on_c, 0, 46, 0
4, 85440, Note_on_c, 0, 47, 75
4, 86160, Note_on_c, 0, 47, 0
4, 86160, Note_on_c, 0, 48, 75
4, 86400, Note_on_c, 0, 48, 0
4, 86400, Note_on_c, 0, 49, 75
4, 87120, Note_on_c, 0, 49, 0
4, 87120, Note_on_c, 0, 50, 75
4, 87360, Note_on_c, 0, 50, 0
4, 87360, Note_on_c, 0, 52, 75
4, 88080, Note_on_c, 0, 52, 0
4, 88080, Note_on_c, 0, 53, 75
4, 88320, Note_on_c, 0, 53, 0
4, 88320, Note_on_c, 0, 54, 75
4, 88560, Note_on_c, 0, 54, 0
4, 88560, Note_on_c, 0, 57, 75
4, 88800, Note_on_c, 0, 57, 0
4, 88800, Note_on_c, 0, 60, 101
4, 89280, Note_on_c, 0, 60, 0
4, 89280, Note_on_c, 0, 59, 75
4, 89520, Note_on_c, 0, 59, 0
4, 89520, Note_on_c, 0, 57, 75
4, 89640, Note_on_c, 0, 57, 0
4, 89640, Note_on_c, 0, 55, 75
4, 89760, Note_on_c, 0, 55, 0
4, 89760, Note_on_c, 0, 54, 101
4, 90480, Note_on_c, 0, 54, 0
4, 90480, Note_on_c, 0, 55, 75
4, 90720, Note_on_c, 0, 55, 0
4, 90720, Note_on_c, 0, 59, 101
4, 91200, Note_on_c, 0, 59, 0
4, 91200, Note_on_c, 0, 57, 75
4, 91440, Note_on_c, 0, 57, 0
4, 91440, Note_on_c, 0, 55, 75
4, 91560, Note_on_c, 0, 55, 0
4, 91560, Note_on_c, 0, 54, 75
4, 91680, Note_on_c, 0, 54, 0
4, 91680, Note_on_c, 0, 53, 101
4, 92160, Note_on_c, 0, 53, 0
4, 92160, Note_on_c, 0, 50, 75
4, 92160, Note_on_c, 0, 54, 75
4, 92400, Note_on_c, 0, 54, 0
4, 92400, Note_on_c, 0, 50, 0
4, 92880, Note_on_c, 0, 40, 75
4, 92880, Note_on_c, 0, 52, 75
4, 93120, Note_on_c, 0, 52, 0
4, 93120, Note_on_c, 0, 40, 0
4, 93120, Note_on_c, 0, 39, 75
4, 93120, Note_on_c, 0, 51, 75
4, 93840, Note_on_c, 0, 51, 0
4, 93840, Note_on_c, 0, 39, 0
4, 93840, Note_on_c, 0, 35, 75
4, 93840, Note_on_c, 0, 47, 75
4, 94080, Note_on_c, 0, 47, 0
4, 94080, Note_on_c, 0, 35, 0
4, 94080, Note_on_c, 0, 40, 75
4, 94080, Note_on_c, 0, 52, 75
4, 94800, Note_on_c, 0, 52, 0
4, 94800, Note_on_c, 0, 40, 0
4, 94800, Note_on_c, 0, 38, 75
4, 94800, Note_on_c, 0, 50, 75
4, 95040, Note_on_c, 0, 50, 0
4, 95040, Note_on_c, 0, 38, 0
4, 95040, Note_on_c, 0, 37, 75
4, 95040, Note_on_c, 0, 49, 75
4, 95760, Note_on_c, 0, 49, 0
4, 95760, Note_on_c, 0, 37, 0
4, 95760, Note_on_c, 0, 33, 75
4, 95760, Note_on_c, 0, 45, 75
4, 96000, Note_on_c, 0, 45, 0
4, 96000, Note_on_c, 0, 33, 0
4, 96000, Note_on_c, 0, 38, 75
4, 96000, Note_on_c, 0, 50, 75
4, 96240, Note_on_c, 0, 50, 0
4, 96240, Note_on_c, 0, 38, 0
4, 96720, Note_on_c, 0, 45, 75
4, 96720, Note_on_c, 0, 57, 75
4, 96960, Note_on_c, 0, 57, 0
4, 96960, Note_on_c, 0, 45, 0
4, 96960, Note_on_c, 0, 44, 75
4, 96960, Note_on_c, 0, 56, 75
4, 97680, Note_on_c, 0, 56, 0
4, 97680, Note_on_c, 0, 44, 0
4, 97680, Note_on_c, 0, 40, 75
4, 97680, Note_on_c, 0, 52, 75
4, 97920, Note_on_c, 0, 52, 0
4, 97920, Note_on_c, 0, 40, 0
4, 97920, Note_on_c, 0, 45, 75
4, 97920, Note_on_c, 0, 57, 75
4, 98640, Note_on_c, 0, 57, 0
4, 98640, Note_on_c, 0, 45, 0
4, 98640, Note_on_c, 0, 43, 75
4, 98640, Note_on_c, 0, 55, 75
4, 98880, Note_on_c, 0, 55, 0
4, 98880, Note_on_c, 0, 43, 0
4, 98880, Note_on_c, 0, 42, 75
4, 98880, Note_on_c, 0, 54, 75
4, 99600, Note_on_c, 0, 54, 0
4, 99600, Note_on_c, 0, 42, 0
4, 99600, Note_on_c, 0, 38, 75
4, 99600, Note_on_c, 0, 50, 75
4, 99840, Note_on_c, 0, 50, 0
4, 99840, Note_on_c, 0, 38, 0
4, 99840, Note_on_c, 0, 43, 75
4, 100080, Note_on_c, 0, 43, 0
4, 100080, Note_on_c, 0, 51, 75
4, 100560, Note_on_c, 0, 51, 0
4, 100560, Note_on_c, 0, 52, 75
4, 101040, Note_on_c, 0, 52, 0
4, 101040, Note_on_c, 0, 53, 75
4, 101520, Note_on_c, 0, 53, 0
4, 101520, Note_on_c, 0, 54, 75
4, 101760, Note_on_c, 0, 54, 0
4, 101760, Note_on_c, 0, 55, 75
4, 102000, Note_on_c, 0, 55, 0
4, 102000, Note_on_c, 0, 51, 75
4, 102480, Note_on_c, 0, 51, 0
4, 102480, Note_on_c, 0, 52, 75
4, 102960, Note_on_c, 0, 52, 0
4, 102960, Note_on_c, 0, 53, 75
4, 103440, Note_on_c, 0, 53, 0
4, 103440, Note_on_c, 0, 54, 75
4, 103680, Note_on_c, 0, 54, 0
4, 103680, Note_on_c, 0, 55, 75
4, 103920, Note_on_c, 0, 55, 0
4, 103920, Note_on_c, 0, 54, 75
4, 104160, Note_on_c, 0, 54, 0
4, 104160, Note_on_c, 0, 55, 75
4, 104400, Note_on_c, 0, 55, 0
4, 104400, Note_on_c, 0, 54, 75
4, 104640, Note_on_c, 0, 54, 0
4, 104640, Note_on_c, 0, 55, 75
4, 104880, Note_on_c, 0, 55, 0
4, 104880, Note_on_c, 0, 54, 75
4, 105120, Note_on_c, 0, 54, 0
4, 105120, Note_on_c, 0, 55, 75
4, 105360, Note_on_c, 0, 55, 0
4, 105360, Note_on_c, 0, 48, 75
4, 105600, Note_on_c, 0, 48, 0
4, 105600, Note_on_c, 0, 55, 75
4, 105840, Note_on_c, 0, 55, 0
4, 105840, Note_on_c, 0, 54, 75
4, 106080, Note_on_c, 0, 54, 0
4, 106080, Note_on_c, 0, 55, 75
4, 106320, Note_on_c, 0, 55, 0
4, 106320, Note_on_c, 0, 54, 75
4, 106560, Note_on_c, 0, 54, 0
4, 106560, Note_on_c, 0, 55, 75
4, 106800, Note_on_c, 0, 55, 0
4, 106800, Note_on_c, 0, 54, 75
4, 107040, Note_on_c, 0, 54, 0
4, 107040, Note_on_c, 0, 55, 75
4, 107280, Note_on_c, 0, 55, 0
4, 107280, Note_on_c, 0, 48, 75
4, 107520, Note_on_c, 0, 48, 0
4, 107520, Note_on_c, 0, 43, 75
4, 107520, Note_on_c, 0, 55, 75
4, 107760, Note_on_c, 0, 55, 0
4, 107760, Note_on_c, 0, 43, 0
4, 108480, Note_on_c, 0, 53, 49
4, 108480, Note_on_c, 0, 62, 49
4, 108527, Note_on_c, 0, 62, 0
4, 108527, Note_on_c, 0, 53, 0
4, 109440, Note_on_c, 0, 54, 49
4, 109440, Note_on_c, 0, 61, 49
4, 109487, Note_on_c, 0, 61, 0
4, 109487, Note_on_c, 0, 54, 0
4, 110400, Note_on_c, 0, 46, 49
4, 110400, Note_on_c, 0, 54, 49
4, 110400, Note_on_c, 0, 61, 49
4, 110447, Note_on_c, 0, 61, 0
4, 110447, Note_on_c, 0, 54, 0
4, 110447, Note_on_c, 0, 46, 0
4, 111280, Note_on_c, 0, 47, 49
4, 111320, Note_on_c, 0, 54, 49
4, 111344, Note_on_c, 0, 47, 0
4, 111360, Note_on_c, 0, 62, 49
4, 111375, Note_on_c, 0, 54, 0
4, 111407, Note_on_c, 0, 62, 0
4, 112320, Note_on_c, 0, 53, 49
4, 112320, Note_on_c, 0, 55, 49
4, 112320, Note_on_c, 0, 59, 49
4, 112367, Note_on_c, 0, 59, 0
4, 112367, Note_on_c, 0, 55, 0
4, 112367, Note_on_c, 0, 53, 0
4, 113280, Note_on_c, 0, 54, 49
4, 113280, Note_on_c, 0, 59, 49
4, 113327, Note_on_c, 0, 59, 0
4, 113327, Note_on_c, 0, 54, 0
4, 114240, Note_on_c, 0, 42, 49
4, 114240, Note_on_c, 0, 56, 49
4, 114287, Note_on_c, 0, 56, 0
4, 114287, Note_on_c, 0, 42, 0
4, 114720, Note_on_c, 0, 54, 49
4, 114720, Note_on_c, 0, 58, 49
4, 114767, Note_on_c, 0, 58, 0
4, 114767, Note_on_c, 0, 54, 0
4, 115200, Note_on_c, 0, 47, 49
4, 115200, Note_on_c, 0, 54, 49
4, 115200, Note_on_c, 0, 59, 49
4, 115247, Note_on_c, 0, 59, 0
4, 115247, Note_on_c, 0, 54, 0
4, 115247, Note_on_c, 0, 47, 0
4, 116160, Note_on_c, 0, 49, 49
4, 116160, Note_on_c, 0, 54, 49
4, 116160, Note_on_c, 0, 57, 49
4, 116160, Note_on_c, 0, 63, 49
4, 116207, Note_on_c, 0, 63, 0
4, 116207, Note_on_c, 0, 49, 0
4, 116207, Note_on_c, 0, 54, 0
4, 116207, Note_on_c, 0, 57, 0
4, 117120, Note_on_c, 0, 48, 49
4, 117120, Note_on_c, 0, 56, 49
4, 117120, Note_on_c, 0, 63, 49
4, 117167, Note_on_c, 0, 63, 0
4, 117167, Note_on_c, 0, 56, 0
4, 117167, Note_on_c, 0, 48, 0
4, 118080, Note_on_c, 0, 56, 49
4, 118080, Note_on_c, 0, 60, 49
4, 118080, Note_on_c, 0, 66, 49
4, 118127, Note_on_c, 0, 66, 0
4, 118127, Note_on_c, 0, 60, 0
4, 118127, Note_on_c, 0, 56, 0
4, 118960, Note_on_c, 0, 49, 49
4, 119000, Note_on_c, 0, 56, 49
4, 119040, Note_on_c, 0, 64, 49
4, 119087, Note_on_c, 0, 64, 0
4, 119087, Note_on_c, 0, 56, 0
4, 119087, Note_on_c, 0, 49, 0
4, 120000, Note_on_c, 0, 54, 49
4, 120000, Note_on_c, 0, 57, 49
4, 120000, Note_on_c, 0, 61, 49
4, 120000, Note_on_c, 0, 64, 49
4, 120047, Note_on_c, 0, 64, 0
4, 120047, Note_on_c, 0, 54, 0
4, 120047, Note_on_c, 0, 57, 0
4, 120047, Note_on_c, 0, 61, 0
4, 120960, Note_on_c, 0, 56, 49
4, 120960, Note_on_c, 0, 61, 49
4, 120960, Note_on_c, 0, 64, 49
4, 121007, Note_on_c, 0, 64, 0
4, 121007, Note_on_c, 0, 61, 0
4, 121007, Note_on_c, 0, 56, 0
4, 121920, Note_on_c, 0, 44, 49
4, 121920, Note_on_c, 0, 58, 49
4, 121967, Note_on_c, 0, 58, 0
4, 121967, Note_on_c, 0, 44, 0
4, 122400, Note_on_c, 0, 56, 49
4, 122400, Note_on_c, 0, 60, 49
4, 122447, Note_on_c, 0, 60, 0
4, 122447, Note_on_c, 0, 56, 0
4, 122880, Note_on_c, 0, 49, 49
4, 122880, Note_on_c, 0, 56, 49
4, 122880, Note_on_c, 0, 61, 49
4, 123120, Note_on_c, 0, 61, 0
4, 123120, Note_on_c, 0, 56, 0
4, 123120, Note_on_c, 0, 49, 0
4, 123360, Control_c, 0, 64, 127
4, 123360, Note_on_c, 0, 49, 101
4, 123480, Note_on_c, 0, 49, 0
4, 123600, Note_on_c, 0, 51, 101
4, 123720, Note_on_c, 0, 51, 0
4, 123840, Note_on_c, 0, 52, 101
4, 123960, Note_on_c, 0, 52, 0
4, 124080, Note_on_c, 0, 56, 101
4, 124200, Note_on_c, 0, 56, 0
4, 124320, Note_on_c, 0, 61, 101
4, 124440, Note_on_c, 0, 61, 0
4, 124560, Note_on_c, 0, 64, 101
4, 124680, Note_on_c, 0, 64, 0
4, 124800, Control_c, 0, 64, 0
4, 124800, Note_on_c, 0, 66, 101
4, 125040, Note_on_c, 0, 66, 0
4, 125280, Note_on_c, 0, 49, 88
4, 125280, Note_on_c, 0, 54, 88
4, 125280, Note_on_c, 0, 57, 88
4, 125760, Note_on_c, 0, 57, 0
4, 125760, Note_on_c, 0, 54, 0
4, 125760, Note_on_c, 0, 49, 0
4, 125760, Note_on_c, 0, 48, 88
4, 125760, Note_on_c, 0, 51, 88
4, 125760, Note_on_c, 0, 56, 88
4, 126160, Note_on_c, 0, 44, 88
4, 126200, Note_on_c, 0, 51, 88
4, 126240, Note_on_c, 0, 56, 0
4, 126240, Note_on_c, 0, 48, 0
4, 126240, Note_on_c, 0, 51, 0
4, 126240, Note_on_c, 0, 60, 88
4, 126720, Note_on_c, 0, 60, 0
4, 126720, Note_on_c, 0, 44, 0
4, 126720, Note_on_c, 0, 51, 0
4, 126720, Note_on_c, 0, 49, 88
4, 126720, Note_on_c, 0, 56, 88
4, 126720, Note_on_c, 0, 61, 88
4, 127200, Note_on_c, 0, 61, 0
4, 127200, Note_on_c, 0, 56, 0
4, 127200, Note_on_c, 0, 49, 0
4, 127440, Note_on_c, 0, 49, 88
4, 127440, Note_on_c, 0, 56, 88
4, 127440, Note_on_c, 0, 61, 88
4, 127680, Note_on_c, 0, 61, 0
4, 127680, Note_on_c, 0, 56, 0
4, 127680, Note_on_c, 0, 49, 0
4, 127680, Note_on_c, 0, 54, 88
4, 127680, Note_on_c, 0, 57, 88
4, 127680, Note_on_c, 0, 61, 88
4, 128160, Note_on_c, 0, 61, 0
4, 128160, Note_on_c, 0, 57, 0
4, 128160, Note_on_c, 0, 54, 0
4, 128400, Note_on_c, 0, 54, 88
4, 128400, Note_on_c, 0, 57, 88
4, 128400, Note_on_c, 0, 61, 88
4, 128640, Note_on_c, 0, 61, 0
4, 128640, Note_on_c, 0, 57, 0
4, 128640, Note_on_c, 0, 54, 0
4, 128640, Note_on_c, 0, 56, 88
4, 128640, Note_on_c, 0, 61, 88
4, 128640, Note_on_c, 0, 64, 88
4, 129120, Note_on_c, 0, 64, 0
4, 129120, Note_on_c, 0, 61, 0
4, 129120, Note_on_c, 0, 56, 0
4, 129360, Note_on_c, 0, 52, 88
4, 129360, Note_on_c, 0, 56, 88
4, 129360, Note_on_c, 0, 61, 88
4, 129600, Note_on_c, 0, 61, 0
4, 129600, Note_on_c, 0, 56, 0
4, 129600, Note_on_c, 0, 52, 0
4, 129600, Note_on_c, 0, 51, 88
4, 129600, Note_on_c, 0, 55, 88
4, 129600, Note_on_c, 0, 61, 88
4, 130000, Note_on_c, 0, 44, 88
4, 130040, Note_on_c, 0, 54, 88
4, 130080, Note_on_c, 0, 61, 0
4, 130080, Note_on_c, 0, 51, 0
4, 130080, Note_on_c, 0, 55, 0
4, 130080, Note_on_c, 0, 60, 88
4, 130560, Note_on_c, 0, 60, 0
4, 130560, Note_on_c, 0, 44, 0
4, 130560, Note_on_c, 0, 54, 0
4, 130560, Note_on_c, 0, 49, 88
4, 130560, Note_on_c, 0, 52, 88
4, 130560, Note_on_c, 0, 56, 88
4, 130560, Note_on_c, 0, 61, 88
4, 130800, Note_on_c, 0, 61, 0
4, 130800, Note_on_c, 0, 49, 0
4, 130800, Note_on_c, 0, 52, 0
4, 130800, Note_on_c, 0, 56, 0
4, 130800, Control_c, 0, 64, 127
4, 130800, Note_on_c, 0, 49, 101
4, 130920, Note_on_c, 0, 49, 0
4, 131040, Note_on_c, 0, 51, 101
4, 131160, Note_on_c, 0, 51, 0
4, 131280, Note_on_c, 0, 52, 101
4, 131400, Note_on_c, 0, 52, 0
4, 131520, Note_on_c, 0, 55, 101
4, 131640, Note_on_c, 0, 55, 0
4, 131760, Note_on_c, 0, 56, 101
4, 131880, Note_on_c, 0, 56, 0
4, 132000, Note_on_c, 0, 61, 101
4, 132120, Note_on_c, 0, 61, 0
4, 132240, Note_on_c, 0, 64, 101
4, 132360, Note_on_c, 0, 64, 0
4, 132480, Control_c, 0, 64, 0
4, 132480, Note_on_c, 0, 66, 101
4, 132720, Note_on_c, 0, 66, 0
4, 132960, Note_on_c, 0, 49, 88
4, 132960, Note_on_c, 0, 54, 88
4, 132960, Note_on_c, 0, 57, 88
4, 133440, Note_on_c, 0, 57, 0
4, 133440, Note_on_c, 0, 54, 0
4, 133440, Note_on_c, 0, 49, 0
4, 133440, Note_on_c, 0, 48, 88
4, 133440, Note_on_c, 0, 51, 88
4, 133440, Note_on_c, 0, 56, 88
4, 133840, Note_on_c, 0, 44, 88
4, 133880, Note_on_c, 0, 51, 88
4, 133920, Note_on_c, 0, 56, 0
4, 133920, Note_on_c, 0, 48, 0
4, 133920, Note_on_c, 0, 51, 0
4, 133920, Note_on_c, 0, 60, 88
4, 134400, Note_on_c, 0, 60, 0
4, 134400, Note_on_c, 0, 44, 0
4, 134400, Note_on_c, 0, 51, 0
4, 134400, Note_on_c, 0, 49, 88
4, 134400, Note_on_c, 0, 56, 88
4, 134400, Note_on_c, 0, 61, 88
4, 134880, Note_on_c, 0, 61, 0
4, 134880, Note_on_c, 0, 56, 0
4, 134880, Note_on_c, 0, 49, 0
4, 135120, Note_on_c, 0, 49, 88
4, 135120, Note_on_c, 0, 56, 88
4, 135120, Note_on_c, 0, 61, 88
4, 135360, Note_on_c, 0, 61, 0
4, 135360, Note_on_c, 0, 56, 0
4, 135360, Note_on_c, 0, 49, 0
4, 135360, Note_on_c, 0, 54, 88
4, 135360, Note_on_c, 0, 57, 88
4, 135360, Note_on_c, 0, 61, 88
4, 135840, Note_on_c, 0, 61, 0
4, 135840, Note_on_c, 0, 57, 0
4, 135840, Note_on_c, 0, 54, 0
4, 136080, Note_on_c, 0, 54, 88
4, 136080, Note_on_c, 0, 57, 88
4, 136080, Note_on_c, 0, 61, 88
4, 136320, Note_on_c, 0, 61, 0
4, 136320, Note_on_c, 0, 57, 0
4, 136320, Note_on_c, 0, 54, 0
4, 136320, Note_on_c, 0, 56, 88
4, 136320, Note_on_c, 0, 61, 88
4, 136320, Note_on_c, 0, 64, 88
4, 136800, Note_on_c, 0, 64, 0
4, 136800, Note_on_c, 0, 61, 0
4, 136800, Note_on_c, 0, 56, 0
4, 137040, Note_on_c, 0, 52, 88
4, 137040, Note_on_c, 0, 56, 88
4, 137040, Note_on_c, 0, 61, 88
4, 137280, Note_on_c, 0, 61, 0
4, 137280, Note_on_c, 0, 56, 0
4, 137280, Note_on_c, 0, 52, 0
4, 137280, Note_on_c, 0, 51, 88
4, 137280, Note_on_c, 0, 55, 88
4, 137280, Note_on_c, 0, 61, 88
4, 137680, Note_on_c, 0, 44, 88
4, 137720, Note_on_c, 0, 54, 88
4, 137760, Note_on_c, 0, 61, 0
4, 137760, Note_on_c, 0, 51, 0
4, 137760, Note_on_c, 0, 55, 0
4, 137760, Note_on_c, 0, 60, 88
4, 138240, Note_on_c, 0, 60, 0
4, 138240, Note_on_c, 0, 44, 0
4, 138240, Note_on_c, 0, 54, 0
4, 138240, Note_on_c, 0, 49, 88
4, 138240, Note_on_c, 0, 52, 88
4, 138240, Note_on_c, 0, 56, 88
4, 138240, Note_on_c, 0, 61, 88
4, 138480, Note_on_c, 0, 61, 0
4, 138480, Note_on_c, 0, 49, 0
4, 138480, Note_on_c, 0, 52, 0
4, 138480, Note_on_c, 0, 56, 0
4, 139200, Control_c, 0, 64, 127
4, 139200, Note_on_c, 0, 49, 75
4, 139200, Note_on_c, 0, 54, 75
4, 139200, Note_on_c, 0, 57, 75
4, 139320, Note_on_c, 0, 57, 0
4, 139320, Note_on_c, 0, 54, 0
4, 139320, Note_on_c, 0, 49, 0
4, 139320, Note_on_c, 0, 60, 75
4, 139440, Note_on_c, 0, 60, 0
4, 139440, Note_on_c, 0, 49, 75
4, 139440, Note_on_c, 0, 54, 75
4, 139440, Note_on_c, 0, 57, 75
4, 139560, Note_on_c, 0, 57, 0
4, 139560, Note_on_c, 0, 54, 0
4, 139560, Note_on_c, 0, 49, 0
4, 139560, Note_on_c, 0, 60, 75
4, 139680, Note_on_c, 0, 60, 0
4, 139680, Note_on_c, 0, 49, 75
4, 139680, Note_on_c, 0, 54, 75
4, 139680, Note_on_c, 0, 57, 75
4, 139800, Note_on_c, 0, 57, 0
4, 139800, Note_on_c, 0, 54, 0
4, 139800, Note_on_c, 0, 49, 0
4, 139800, Note_on_c, 0, 60, 75
4, 139920, Note_on_c, 0, 60, 0
4, 139920, Note_on_c, 0, 49, 75
4, 139920, Note_on_c, 0, 54, 75
4, 139920, Note_on_c, 0, 57, 75
4, 140040, Note_on_c, 0, 57, 0
4, 140040, Note_on_c, 0, 54, 0
4, 140040, Note_on_c, 0, 49, 0
4, 140040, Control_c, 0, 64, 0
4, 140040, Note_on_c, 0, 60, 75
4, 140160, Note_on_c, 0, 60, 0
4, 140160, Note_on_c, 0, 49, 88
4, 140160, Note_on_c, 0, 52, 88
4, 140160, Note_on_c, 0, 56, 88
4, 140160, Note_on_c, 0, 61, 88
4, 140400, Note_on_c, 0, 61, 0
4, 140400, Note_on_c, 0, 49, 0
4, 140400, Note_on_c, 0, 52, 0
4, 140400, Note_on_c, 0, 56, 0
4, 141120, Control_c, 0, 64, 127
4, 141120, Note_on_c, 0, 49, 75
4, 141120, Note_on_c, 0, 54, 75
4, 141120, Note_on_c, 0, 57, 75
4, 141240, Note_on_c, 0, 57, 0
4, 141240, Note_on_c, 0, 54, 0
4, 141240, Note_on_c, 0, 49, 0
4, 141240, Note_on_c, 0, 60, 75
4, 141360, Note_on_c, 0, 60, 0
4, 141360, Note_on_c, 0, 49, 75
4, 141360, Note_on_c, 0, 54, 75
4, 141360, Note_on_c, 0, 57, 75
4, 141480, Note_on_c, 0, 57, 0
4, 141480, Note_on_c, 0, 54, 0
4, 141480, Note_on_c, 0, 49, 0
4, 141480, Note_on_c, 0, 60, 75
4, 141600, Note_on_c, 0, 60, 0
4, 141600, Note_on_c, 0, 49, 75
4, 141600, Note_on_c, 0, 54, 75
4, 141600, Note_on_c, 0, 57, 75
4, 141720, Note_on_c, 0, 57, 0
4, 141720, Note_on_c, 0, 54, 0
4, 141720, Note_on_c, 0, 49, 0
4, 141720, Note_on_c, 0, 60, 75
4, 141840, Note_on_c, 0, 60, 0
4, 141840, Note_on_c, 0, 49, 75
4, 141840, Note_on_c, 0, 54, 75
4, 141840, Note_on_c, 0, 57, 75
4, 141960, Note_on_c, 0, 57, 0
4, 141960, Note_on_c, 0, 54, 0
4, 141960, Note_on_c, 0, 49, 0
4, 141960, Control_c, 0, 64, 0
4, 141960, Note_on_c, 0, 60, 75
4, 142080, Note_on_c, 0, 60, 0
4, 142080, Note_on_c, 0, 49, 75
4, 142080, Note_on_c, 0, 52, 75
4, 142080, Note_on_c, 0, 56, 75
4, 142080, Note_on_c, 0, 61, 75
4, 142320, Note_on_c, 0, 61, 0
4, 142320, Note_on_c, 0, 49, 0
4, 142320, Note_on_c, 0, 52, 0
4, 142320, Note_on_c, 0, 56, 0
4, 142560, Note_on_c, 0, 52, 75
4, 142560, Note_on_c, 0, 56, 75
4, 142560, Note_on_c, 0, 61, 75
4, 143520, Note_on_c, 0, 61, 0
4, 143520, Note_on_c, 0, 56, 0
4, 143520, Note_on_c, 0, 52, 0
4, 143520, Note_on_c, 0, 49, 75
4, 143520, Note_on_c, 0, 52, 75
4, 143520, Note_on_c, 0, 56, 75
4, 144000, Note_on_c, 0, 56, 0
4, 144000, Note_on_c, 0, 52, 0
4, 144000, Note_on_c, 0, 49, 0
4, 144000, Note_on_c, 0, 45, 75
4, 144000, Note_on_c, 0, 49, 75
4, 144000, Note_on_c, 0, 52, 75
4, 144000, Note_on_c, 0, 57, 75
4, 144480, Note_on_c, 0, 57, 0
4, 144480, Note_on_c, 0, 45, 0
4, 144480, Note_on_c, 0, 49, 0
4, 144480, Note_on_c, 0, 52, 0
4, 144480, Note_on_c, 0, 42, 75
4, 144480, Note_on_c, 0, 45, 75
4, 144480, Note_on_c, 0, 49, 75
4, 144480, Note_on_c, 0, 54, 75
4, 144960, Note_on_c, 0, 54, 0
4, 144960, Note_on_c, 0, 42, 0
4, 144960, Note_on_c, 0, 45, 0
4, 144960, Note_on_c, 0, 49, 0
4, 144960, Note_on_c, 0, 38, 75
4, 144960, Note_on_c, 0, 42, 75
4, 144960, Note_on_c, 0, 45, 75
4, 144960, Note_on_c, 0, 50, 75
4, 145440, Note_on_c, 0, 50, 0
4, 145440, Note_on_c, 0, 38, 0
4, 145440, Note_on_c, 0, 42, 0
4, 145440, Note_on_c, 0, 45, 0
4, 145440, Note_on_c, 0, 44, 75
4, 145440, Note_on_c, 0, 48, 75
4, 145440, Note_on_c, 0, 54, 75
4, 145440, Note_on_c, 0, 56, 75
4, 145920, Note_on_c, 0, 56, 0
4, 145920, Note_on_c, 0, 44, 0
4, 145920, Note_on_c, 0, 48, 0
4, 145920, Note_on_c, 0, 54, 0
4, 145920, Note_on_c, 0, 49, 88
4, 145920, Note_on_c, 0, 52, 88
4, 145920, Note_on_c, 0, 56, 88
4, 145920, Note_on_c, 0, 61, 88
4, 146160, Note_on_c, 0, 61, 0
4, 146160, Note_on_c, 0, 49, 0
4, 146160, Note_on_c, 0, 52, 0
4, 146160, Note_on_c, 0, 56, 0
4, 146880, Control_c, 0, 64, 127
4, 146880, Note_on_c, 0, 49, 75
4, 146880, Note_on_c, 0, 54, 75
4, 146880, Note_on_c, 0, 57, 75
4, 147000, Note_on_c, 0, 57, 0
4, 147000, Note_on_c, 0, 54, 0
4, 147000, Note_on_c, 0, 49, 0
4, 147000, Note_on_c, 0, 60, 75
4, 147120, Note_on_c, 0, 60, 0
4, 147120, Note_on_c, 0, 49, 75
4, 147120, Note_on_c, 0, 54, 75
4, 147120, Note_on_c, 0, 57, 75
4, 147240, Note_on_c, 0, 57, 0
4, 147240, Note_on_c, 0, 54, 0
4, 147240, Note_on_c, 0, 49, 0
4, 147240, Note_on_c, 0, 60, 75
4, 147360, Note_on_c, 0, 60, 0
4, 147360, Note_on_c, 0, 49, 75
4, 147360, Note_on_c, 0, 54, 75
4, 147360, Note_on_c, 0, 57, 75
4, 147480, Note_on_c, 0, 57, 0
4, 147480, Note_on_c, 0, 54, 0
4, 147480, Note_on_c, 0, 49, 0
4, 147480, Note_on_c, 0, 60, 75
4, 147600, Note_on_c, 0, 60, 0
4, 147600, Note_on_c, 0, 49, 75
4, 147600, Note_on_c, 0, 54, 75
4, 147600, Note_on_c, 0, 57, 75
4, 147720, Note_on_c, 0, 57, 0
4, 147720, Note_on_c, 0, 54, 0
4, 147720, Note_on_c, 0, 49, 0
4, 147720, Control_c, 0, 64, 0
4, 147720, Note_on_c, 0, 60, 75
4, 147840, Note_on_c, 0, 60, 0
4, 147840, Note_on_c, 0, 49, 88
4, 147840, Note_on_c, 0, 52, 88
4, 147840, Note_on_c, 0, 56, 88
4, 147840, Note_on_c, 0, 61, 88
4, 148080, Note_on_c, 0, 61, 0
4, 148080, Note_on_c, 0, 49, 0
4, 148080, Note_on_c, 0, 52, 0
4, 148080, Note_on_c, 0, 56, 0
4, 148800, Control_c, 0, 64, 127
4, 148800, Note_on_c, 0, 49, 75
4, 148800, Note_on_c, 0, 54, 75
4, 148800, Note_on_c, 0, 57, 75
4, 148920, Note_on_c, 0, 57, 0
4, 148920, Note_on_c, 0, 54, 0
4, 148920, Note_on_c, 0, 49, 0
4, 148920, Note_on_c, 0, 60, 75
4, 149040, Note_on_c, 0, 60, 0
4, 149040, Note_on_c, 0, 49, 75
4, 149040, Note_on_c, 0, 54, 75
4, 149040, Note_on_c, 0, 57, 75
4, 149160, Note_on_c, 0, 57, 0
4, 149160, Note_on_c, 0, 54, 0
4, 149160, Note_on_c, 0, 49, 0
4, 149160, Note_on_c, 0, 60, 75
4, 149280, Note_on_c, 0, 60, 0
4, 149280, Note_on_c, 0, 49, 75
4, 149280, Note_on_c, 0, 54, 75
4, 149280, Note_on_c, 0, 57, 75
4, 149400, Note_on_c, 0, 57, 0
4, 149400, Note_on_c, 0, 54, 0
4, 149400, Note_on_c, 0, 49, 0
4, 149400, Note_on_c, 0, 60, 75
4, 149520, Note_on_c, 0, 60, 0
4, 149520, Note_on_c, 0, 49, 75
4, 149520, Note_on_c, 0, 54, 75
4, 149520, Note_on_c, 0, 57, 75
4, 149640, Note_on_c, 0, 57, 0
4, 149640, Note_on_c, 0, 54, 0
4, 149640, Note_on_c, 0, 49, 0
4, 149640, Control_c, 0, 64, 0
4, 149640, Note_on_c, 0, 60, 75
4, 149760, Note_on_c, 0, 60, 0
4, 149760, Note_on_c, 0, 49, 75
4, 149760, Note_on_c, 0, 52, 75
4, 149760, Note_on_c, 0, 56, 75
4, 149760, Note_on_c, 0, 61, 75
4, 150000, Note_on_c, 0, 61, 0
4, 150000, Note_on_c, 0, 49, 0
4, 150000, Note_on_c, 0, 52, 0
4, 150000, Note_on_c, 0, 56, 0
4, 150240, Note_on_c, 0, 52, 75
4, 150240, Note_on_c, 0, 56, 75
4, 150240, Note_on_c, 0, 61, 75
4, 151200, Note_on_c, 0, 61, 0
4, 151200, Note_on_c, 0, 56, 0
4, 151200, Note_on_c, 0, 52, 0
4, 151200, Note_on_c, 0, 49, 75
4, 151200, Note_on_c, 0, 52, 75
4, 151200, Note_on_c, 0, 56, 75
4, 151680, Note_on_c, 0, 56, 0
4, 151680, Note_on_c, 0, 52, 0
4, 151680, Note_on_c, 0, 49, 0
4, 151680, Note_on_c, 0, 45, 75
4, 151680, Note_on_c, 0, 49, 75
4, 151680, Note_on_c, 0, 52, 75
4, 151680, Note_on_c, 0, 57, 75
4, 152160, Note_on_c, 0, 57, 0
4, 152160, Note_on_c, 0, 45, 0
4, 152160, Note_on_c, 0, 49, 0
4, 152160, Note_on_c, 0, 52, 0
4, 152160, Note_on_c, 0, 42, 75
4, 152160, Note_on_c, 0, 45, 75
4, 152160, Note_on_c, 0, 49, 75
4, 152160, Note_on_c, 0, 54, 75
4, 152640, Note_on_c, 0, 54, 0
4, 152640, Note_on_c, 0, 42, 0
4, 152640, Note_on_c, 0, 45, 0
4, 152640, Note_on_c, 0, 49, 0
4, 152640, Note_on_c, 0, 38, 75
4, 152640, Note_on_c, 0, 42, 75
4, 152640, Note_on_c, 0, 45, 75
4, 152640, Note_on_c, 0, 50, 75
4, 153120, Note_on_c, 0, 50, 0
4, 153120, Note_on_c, 0, 38, 0
4, 153120, Note_on_c, 0, 42, 0
4, 153120, Note_on_c, 0, 45, 0
4, 153120, Note_on_c, 0, 44, 75
4, 153120, Note_on_c, 0, 48, 75
4, 153120, Note_on_c, 0, 54, 75
4, 153120, Note_on_c, 0, 56, 75
4, 153520, Note_on_c, 0, 42, 75
4, 153560, Note_on_c, 0, 50, 75
4, 153600, Note_on_c, 0, 56, 0
4, 153600, Note_on_c, 0, 54, 0
4, 153600, Note_on_c, 0, 44, 0
4, 153600, Note_on_c, 0, 48, 0
4, 153600, Note_on_c, 0, 57, 75
4, 154560, Note_on_c, 0, 57, 0
4, 154560, Note_on_c, 0, 50, 0
4, 154560, Note_on_c, 0, 42, 0
4, 155520, Note_on_c, 0, 43, 75
4, 155520, Note_on_c, 0, 49, 75
4, 155520, Note_on_c, 0, 52, 75
4, 155520, Note_on_c, 0, 57, 75
4, 156000, Note_on_c, 0, 57, 0
4, 156000, Note_on_c, 0, 43, 0
4, 156000, Note_on_c, 0, 49, 0
4, 156000, Note_on_c, 0, 52, 0
4, 156000, Note_on_c, 0, 44, 75
4, 156000, Note_on_c, 0, 49, 75
4, 156000, Note_on_c, 0, 52, 75
4, 156000, Note_on_c, 0, 56, 75
4, 156480, Note_on_c, 0, 56, 0
4, 156480, Note_on_c, 0, 44, 0
4, 156480, Note_on_c, 0, 49, 0
4, 156480, Note_on_c, 0, 52, 0
4, 156480, Note_on_c, 0, 44, 75
4, 156480, Note_on_c, 0, 48, 75
4, 156480, Note_on_c, 0, 54, 75
4, 156480, Note_on_c, 0, 56, 75
4, 157440, Note_on_c, 0, 56, 0
4, 157440, Note_on_c, 0, 44, 0
4, 157440, Note_on_c, 0, 48, 0
4, 157440, Note_on_c, 0, 54, 0
4, 157440, Note_on_c, 0, 49, 75
4, 157440, Note_on_c, 0, 52, 75
4, 157440, Note_on_c, 0, 56, 75
4, 157920, Note_on_c, 0, 56, 0
4, 157920, Note_on_c, 0, 52, 0
4, 157920, Note_on_c, 0, 49, 0
4, 157920, Note_on_c, 0, 44, 75
4, 157920, Note_on_c, 0, 48, 75
4, 157920, Note_on_c, 0, 54, 75
4, 157920, Note_on_c, 0, 56, 75
4, 158400, Note_on_c, 0, 56, 0
4, 158400, Note_on_c, 0, 44, 0
4, 158400, Note_on_c, 0, 48, 0
4, 158400, Note_on_c, 0, 54, 0
4, 158400, Note_on_c, 0, 49, 75
4, 158400, Note_on_c, 0, 52, 75
4, 158400, Note_on_c, 0, 56, 75
4, 158880, Note_on_c, 0, 56, 0
4, 158880, Note_on_c, 0, 52, 0
4, 158880, Note_on_c, 0, 49, 0
4, 158880, Note_on_c, 0, 44, 75
4, 158880, Note_on_c, 0, 48, 75
4, 158880, Note_on_c, 0, 54, 75
4, 158880, Note_on_c, 0, 56, 75
4, 159360, Note_on_c, 0, 56, 0
4, 159360, Note_on_c, 0, 44, 0
4, 159360, Note_on_c, 0, 48, 0
4, 159360, Note_on_c, 0, 54, 0
4, 159360, Note_on_c, 0, 49, 75
4, 159360, Note_on_c, 0, 52, 75
4, 159360, Note_on_c, 0, 56, 75
4, 159840, Note_on_c, 0, 56, 0
4, 159840, Note_on_c, 0, 52, 0
4, 159840, Note_on_c, 0, 49, 0
4, 159840, Note_on_c, 0, 44, 75
4, 159840, Note_on_c, 0, 48, 75
4, 159840, Note_on_c, 0, 54, 75
4, 159840, Note_on_c, 0, 56, 75
4, 160320, Note_on_c, 0, 56, 0
4, 160320, Note_on_c, 0, 44, 0
4, 160320, Note_on_c, 0, 48, 0
4, 160320, Note_on_c, 0, 54, 0
4, 160320, Note_on_c, 0, 49, 75
4, 160320, Note_on_c, 0, 52, 75
4, 160320, Note_on_c, 0, 56, 75
4, 160800, Note_on_c, 0, 56, 0
4, 160800, Note_on_c, 0, 52, 0
4, 160800, Note_on_c, 0, 49, 0
4, 160800, Note_on_c, 0, 44, 75
4, 160800, Note_on_c, 0, 48, 75
4, 160800, Note_on_c, 0, 54, 75
4, 160800, Note_on_c, 0, 56, 75
4, 161280, Note_on_c, 0, 56, 0
4, 161280, Note_on_c, 0, 44, 0
4, 161280, Note_on_c, 0, 48, 0
4, 161280, Note_on_c, 0, 54, 0
4, 161280, Note_on_c, 0, 49, 75
4, 161280, Note_on_c, 0, 52, 75
4, 161280, Note_on_c, 0, 56, 75
4, 161760, Note_on_c, 0, 56, 0
4, 161760, Note_on_c, 0, 52, 0
4, 161760, Note_on_c, 0, 49, 0
4, 161760, Note_on_c, 0, 49, 75
4, 161760, Note_on_c, 0, 61, 75
4, 162240, Note_on_c, 0, 61, 0
4, 162240, Note_on_c, 0, 49, 0
4, 162240, Note_on_c, 0, 37, 101
4, 162240, Note_on_c, 0, 49, 101
4, 162720, Note_on_c, 0, 49, 0
4, 162720, Note_on_c, 0, 37, 0
4, 164640, Note_on_c, 0, 73, 49
4, 164640, Note_on_c, 0, 76, 49
4, 164640, Note_on_c, 0, 80, 49
4, 165600, Note_on_c, 0, 80, 0
4, 165600, Note_on_c, 0, 76, 0
4, 165600, Note_on_c, 0, 73, 0
4, 165600, Note_on_c, 0, 67, 49
4, 165600, Note_on_c, 0, 76, 49
4, 165600, Note_on_c, 0, 81, 49
4, 166560, Note_on_c, 0, 81, 0
4, 166560, Note_on_c, 0, 76, 0
4, 166560, Note_on_c, 0, 67, 0
4, 166560, Note_on_c, 0, 68, 49
4, 166560, Note_on_c, 0, 75, 49
4, 166560, Note_on_c, 0, 80, 49
4, 167280, Note_on_c, 0, 80, 0
4, 167280, Note_on_c, 0, 75, 0
4, 167280, Note_on_c, 0, 68, 0
4, 167520, Note_on_c, 0, 72, 49
4, 167520, Note_on_c, 0, 78, 49
4, 167520, Note_on_c, 0, 80, 49
4, 168000, Note_on_c, 0, 80, 0
4, 168000, Note_on_c, 0, 78, 0
4, 168000, Note_on_c, 0, 72, 0
4, 168000, Note_on_c, 0, 68, 49
4, 168000, Note_on_c, 0, 78, 49
4, 168000, Note_on_c, 0, 80, 49
4, 168480, Note_on_c, 0, 80, 0
4, 168480, Note_on_c, 0, 78, 0
4, 168480, Note_on_c, 0, 68, 0
4, 168480, Note_on_c, 0, 73, 49
4, 168480, Note_on_c, 0, 76, 49
4, 168480, Note_on_c, 0, 80, 49
4, 168960, Note_on_c, 0, 80, 0
4, 168960, Note_on_c, 0, 76, 0
4, 168960, Note_on_c, 0, 73, 0
4, 169440, Note_on_c, 0, 73, 49
4, 169920, Note_on_c, 0, 73, 0
4, 169920, Note_on_c, 0, 69, 49
4, 170400, Note_on_c, 0, 69, 0
4, 170400, Note_on_c, 0, 76, 49
4, 170880, Note_on_c, 0, 76, 0
4, 170880, Note_on_c, 0, 73, 49
4, 171360, Note_on_c, 0, 73, 0
4, 171360, Note_on_c, 0, 70, 49
4, 171840, Note_on_c, 0, 70, 0
4, 171840, Note_on_c, 0, 72, 49
4, 172320, Note_on_c, 0, 72, 0
4, 172320, Note_on_c, 0, 73, 49
4, 172800, Note_on_c, 0, 73, 0
4, 172800, Note_on_c, 0, 75, 49
4, 173280, Note_on_c, 0, 75, 0
4, 173280, Note_on_c, 0, 71, 49
4, 173760, Note_on_c, 0, 71, 0
4, 173760, Note_on_c, 0, 69, 49
4, 174120, Note_on_c, 0, 69, 0
4, 174120, Note_on_c, 0, 68, 49
4, 174240, Note_on_c, 0, 68, 0
4, 174240, Note_on_c, 0, 66, 49
4, 175200, Note_on_c, 0, 66, 0
4, 175200, Note_on_c, 0, 75, 49
4, 176160, Note_on_c, 0, 75, 0
4, 176160, Note_on_c, 0, 65, 49
4, 176160, Note_on_c, 0, 73, 49
4, 176400, Note_on_c, 0, 73, 0
4, 176400, Note_on_c, 0, 65, 0
4, 176640, Note_on_c, 0, 68, 49
4, 178080, Note_on_c, 0, 68, 0
4, 178080, Note_on_c, 0, 66, 49
4, 178320, Note_on_c, 0, 66, 0
4, 178560, Note_on_c, 0, 60, 49
4, 178800, Note_on_c, 0, 60, 0
4, 178800, Note_on_c, 0, 61, 49
4, 179040, Note_on_c, 0, 61, 0
4, 179280, Note_on_c, 0, 54, 49
4, 179520, Note_on_c, 0, 54, 0
4, 179520, Note_on_c, 0, 56, 49
4, 179760, Note_on_c, 0, 56, 0
4, 179760, Note_on_c, 0, 54, 49
4, 180000, Note_on_c, 0, 54, 0
4, 185760, Note_on_c, 0, 61, 49
4, 185760, Note_on_c, 0, 64, 49
4, 185760, Note_on_c, 0, 68, 49
4, 185807, Note_on_c, 0, 68, 0
4, 185807, Note_on_c, 0, 64, 0
4, 185807, Note_on_c, 0, 61, 0
4, 188160, Note_on_c, 0, 37, 49
4, 188160, Note_on_c, 0, 49, 49
4, 188256, Note_on_c, 0, 49, 0
4, 188256, Note_on_c, 0, 37, 0
4, 189120, Note_on_c, 0, 37, 49
4, 189120, Note_on_c, 0, 49, 49
4, 189216, Note_on_c, 0, 49, 0
4, 189216, Note_on_c, 0, 37, 0
4, 189600, Note_on_c, 0, 37, 49
4, 189600, Note_on_c, 0, 49, 49
4, 189696, Note_on_c, 0, 49, 0
4, 189696, Note_on_c, 0, 37, 0
4, 190560, Note_on_c, 0, 37, 49
4, 190560, Note_on_c, 0, 49, 49
4, 190656, Note_on_c, 0, 49, 0
4, 190656, Note_on_c, 0, 37, 0
4, 191520, Note_on_c, 0, 37, 49
4, 191520, Note_on_c, 0, 49, 49
4, 191616, Note_on_c, 0, 49, 0
4, 191616, Note_on_c, 0, 37, 0
4, 191616, End_track
5, 0, Start_track
5, 0, Title_t, "Grand Piano"
5, 0, Program_c, 0, 0
5, 0, Control_c, 0, 7, 115
5, 0, Control_c, 0, 10, 48
5, 0, Note_on_c, 0, 37, 49
5, 0, Note_on_c, 0, 49, 49
5, 960, Note_on_c, 0, 37, 0
5, 3840, Note_on_c, 0, 49, 0
5, 3840, Note_on_c, 0, 49, 62
5, 5760, Note_on_c, 0, 49, 0
5, 5760, Note_on_c, 0, 49, 62
5, 7680, Note_on_c, 0, 49, 0
5, 7680, Note_on_c, 0, 49, 75
5, 9600, Note_on_c, 0, 49, 0
5, 9600, Note_on_c, 0, 49, 62
5, 11520, Note_on_c, 0, 49, 0
5, 11520, Note_on_c, 0, 49, 62
5, 13440, Note_on_c, 0, 49, 0
5, 13440, Note_on_c, 0, 49, 62
5, 15360, Note_on_c, 0, 49, 0
5, 15360, Note_on_c, 0, 49, 75
5, 15600, Note_on_c, 0, 49, 0
5, 16080, Note_on_c, 0, 37, 75
5, 16080, Note_on_c, 0, 49, 75
5, 16320, Note_on_c, 0, 49, 0
5, 16320, Note_on_c, 0, 37, 0
5, 16320, Note_on_c, 0, 36, 75
5, 16320, Note_on_c, 0, 48, 75
5, 17040, Note_on_c, 0, 48, 0
5, 17040, Note_on_c, 0, 36, 0
5, 17040, Note_on_c, 0, 29, 75
5, 17040, Note_on_c, 0, 41, 75
5, 17280, Note_on_c, 0, 41, 0
5, 17280, Note_on_c, 0, 29, 0
5, 17280, Note_on_c, 0, 34, 75
5, 17280, Note_on_c, 0, 46, 75
5, 17520, Note_on_c, 0, 46, 0
5, 17520, Note_on_c, 0, 34, 0
5, 18000, Note_on_c, 0, 37, 75
5, 18000, Note_on_c, 0, 49, 75
5, 18240, Note_on_c, 0, 49, 0
5, 18240, Note_on_c, 0, 37, 0
5, 18240, Note_on_c, 0, 36, 75
5, 18240, Note_on_c, 0, 48, 75
5, 18960, Note_on_c, 0, 48, 0
5, 18960, Note_on_c, 0, 36, 0
5, 18960, Note_on_c, 0, 29, 75
5, 18960, Note_on_c, 0, 41, 75
5, 19200, Note_on_c, 0, 41, 0
5, 19200, Note_on_c, 0, 29, 0
5, 19200, Note_on_c, 0, 34, 75
5, 19200, Note_on_c, 0, 46, 75
5, 19440, Note_on_c, 0, 46, 0
5, 19440, Note_on_c, 0, 34, 0
5, 19920, Note_on_c, 0, 46, 75
5, 19920, Note_on_c, 0, 58, 75
5, 20160, Note_on_c, 0, 58, 0
5, 20160, Note_on_c, 0, 46, 0
5, 20160, Note_on_c, 0, 44, 75
5, 20160, Note_on_c, 0, 56, 75
5, 20880, Note_on_c, 0, 56, 0
5, 20880, Note_on_c, 0, 44, 0
5, 20880, Note_on_c, 0, 37, 75
5, 20880, Note_on_c, 0, 49, 75
5, 21120, Note_on_c, 0, 49, 0
5, 21120, Note_on_c, 0, 37, 0
5, 21120, Note_on_c, 0, 42, 75
5, 21120, Note_on_c, 0, 54, 75
5, 21360, Note_on_c, 0, 54, 0
5, 21360, Note_on_c, 0, 42, 0
5, 21840, Note_on_c, 0, 46, 75
5, 21840, Note_on_c, 0, 58, 75
5, 22080, Note_on_c, 0, 58, 0
5, 22080, Note_on_c, 0, 46, 0
5, 22080, Note_on_c, 0, 44, 75
5, 22080, Note_on_c, 0, 56, 75
5, 22800, Note_on_c, 0, 56, 0
5, 22800, Note_on_c, 0, 44, 0
5, 22800, Note_on_c, 0, 37, 75
5, 22800, Note_on_c, 0, 49, 75
5, 23040, Note_on_c, 0, 49, 0
5, 23040, Note_on_c, 0, 37, 0
5, 23040, Note_on_c, 0, 42, 75
5, 23040, Note_on_c, 0, 54, 75
5, 23280, Note_on_c, 0, 54, 0
5, 23280, Note_on_c, 0, 42, 0
5, 23760, Note_on_c, 0, 42, 75
5, 23760, Note_on_c, 0, 54, 75
5, 24000, Note_on_c, 0, 54, 0
5, 24000, Note_on_c, 0, 42, 0
5, 24000, Note_on_c, 0, 41, 75
5, 24000, Note_on_c, 0, 53, 75
5, 24720, Note_on_c, 0, 53, 0
5, 24720, Note_on_c, 0, 41, 0
5, 24720, Note_on_c, 0, 34, 75
5, 24720, Note_on_c, 0, 46, 75
5, 24960, Note_on_c, 0, 46, 0
5, 24960, Note_on_c, 0, 34, 0
5, 25680, Note_on_c, 0, 39, 75
5, 25680, Note_on_c, 0, 51, 75
5, 25920, Note_on_c, 0, 51, 0
5, 25920, Note_on_c, 0, 39, 0
5, 25920, Note_on_c, 0, 37, 75
5, 25920, Note_on_c, 0, 49, 75
5, 26640, Note_on_c, 0, 49, 0
5, 26640, Note_on_c, 0, 37, 0
5, 26640, Note_on_c, 0, 30, 75
5, 26640, Note_on_c, 0, 42, 75
5, 26880, Note_on_c, 0, 42, 0
5, 26880, Note_on_c, 0, 30, 0
5, 26880, Note_on_c, 0, 47, 62
5, 30720, Note_on_c, 0, 47, 0
5, 30720, Note_on_c, 0, 47, 62
5, 34560, Note_on_c, 0, 47, 0
5, 34560, Note_on_c, 0, 47, 75
5, 38400, Note_on_c, 0, 47, 0
5, 38400, Note_on_c, 0, 47, 62
5, 42240, Note_on_c, 0, 47, 0
5, 42240, Note_on_c, 0, 47, 75
5, 42240, Note_on_c, 0, 59, 75
5, 42480, Note_on_c, 0, 59, 0
5, 42480, Note_on_c, 0, 47, 0
5, 42960, Note_on_c, 0, 47, 75
5, 42960, Note_on_c, 0, 59, 75
5, 43200, Note_on_c, 0, 59, 0
5, 43200, Note_on_c, 0, 47, 0
5, 43200, Note_on_c, 0, 46, 75
5, 43200, Note_on_c, 0, 58, 75
5, 43920, Note_on_c, 0, 58, 0
5, 43920, Note_on_c, 0, 46, 0
5, 43920, Note_on_c, 0, 39, 75
5, 43920, Note_on_c, 0, 51, 75
5, 44160, Note_on_c, 0, 51, 0
5, 44160, Note_on_c, 0, 39, 0
5, 44160, Note_on_c, 0, 32, 75
5, 44160, Note_on_c, 0, 44, 75
5, 44400, Note_on_c, 0, 44, 0
5, 44400, Note_on_c, 0, 32, 0
5, 44880, Note_on_c, 0, 35, 75
5, 44880, Note_on_c, 0, 47, 75
5, 45120, Note_on_c, 0, 47, 0
5, 45120, Note_on_c, 0, 35, 0
5, 45120, Note_on_c, 0, 34, 75
5, 45120, Note_on_c, 0, 46, 75
5, 45840, Note_on_c, 0, 46, 0
5, 45840, Note_on_c, 0, 34, 0
5, 45840, Note_on_c, 0, 39, 75
5, 45840, Note_on_c, 0, 51, 75
5, 46080, Note_on_c, 0, 51, 0
5, 46080, Note_on_c, 0, 39, 0
5, 46080, Note_on_c, 0, 32, 75
5, 46080, Note_on_c, 0, 44, 75
5, 46320, Note_on_c, 0, 44, 0
5, 46320, Note_on_c, 0, 32, 0
5, 46800, Note_on_c, 0, 44, 75
5, 46800, Note_on_c, 0, 56, 75
5, 47040, Note_on_c, 0, 56, 0
5, 47040, Note_on_c, 0, 44, 0
5, 47040, Note_on_c, 0, 42, 75
5, 47040, Note_on_c, 0, 54, 75
5, 47760, Note_on_c, 0, 54, 0
5, 47760, Note_on_c, 0, 42, 0
5, 47760, Note_on_c, 0, 35, 75
5, 47760, Note_on_c, 0, 47, 75
5, 48000, Note_on_c, 0, 47, 0
5, 48000, Note_on_c, 0, 35, 0
5, 48000, Note_on_c, 0, 40, 75
5, 48000, Note_on_c, 0, 52, 75
5, 48240, Note_on_c, 0, 52, 0
5, 48240, Note_on_c, 0, 40, 0
5, 48720, Note_on_c, 0, 44, 75
5, 48720, Note_on_c, 0, 56, 75
5, 48960, Note_on_c, 0, 56, 0
5, 48960, Note_on_c, 0, 44, 0
5, 48960, Note_on_c, 0, 42, 75
5, 48960, Note_on_c, 0, 54, 75
5, 49680, Note_on_c, 0, 54, 0
5, 49680, Note_on_c, 0, 42, 0
5, 49680, Note_on_c, 0, 35, 75
5, 49680, Note_on_c, 0, 47, 75
5, 49920, Note_on_c, 0, 47, 0
5, 49920, Note_on_c, 0, 35, 0
5, 49920, Note_on_c, 0, 40, 75
5, 49920, Note_on_c, 0, 52, 75
5, 50160, Note_on_c, 0, 52, 0
5, 50160, Note_on_c, 0, 40, 0
5, 50640, Note_on_c, 0, 52, 75
5, 50640, Note_on_c, 0, 64, 75
5, 50880, Note_on_c, 0, 64, 0
5, 50880, Note_on_c, 0, 52, 0
5, 50880, Note_on_c, 0, 51, 75
5, 50880, Note_on_c, 0, 63, 75
5, 51600, Note_on_c, 0, 63, 0
5, 51600, Note_on_c, 0, 51, 0
5, 51600, Note_on_c, 0, 44, 75
5, 51600, Note_on_c, 0, 56, 75
5, 51840, Note_on_c, 0, 56, 0
5, 51840, Note_on_c, 0, 44, 0
5, 52560, Note_on_c, 0, 48, 75
5, 52560, Note_on_c, 0, 60, 75
5, 52800, Note_on_c, 0, 60, 0
5, 52800, Note_on_c, 0, 48, 0
5, 52800, Note_on_c, 0, 47, 75
5, 52800, Note_on_c, 0, 59, 75
5, 53520, Note_on_c, 0, 59, 0
5, 53520, Note_on_c, 0, 47, 0
5, 53520, Note_on_c, 0, 40, 75
5, 53520, Note_on_c, 0, 52, 75
5, 53760, Note_on_c, 0, 52, 0
5, 53760, Note_on_c, 0, 40, 0
5, 53760, Note_on_c, 0, 45, 75
5, 55680, Note_on_c, 0, 45, 0
5, 55680, Note_on_c, 0, 45, 75
5, 57600, Note_on_c, 0, 45, 0
5, 57600, Note_on_c, 0, 57, 75
5, 61440, Note_on_c, 0, 57, 0
5, 61920, Note_on_c, 0, 45, 75
5, 63360, Note_on_c, 0, 45, 0
5, 63360, Note_on_c, 0, 45, 75
5, 65280, Note_on_c, 0, 45, 0
5, 65280, Note_on_c, 0, 57, 75
5, 69120, Note_on_c, 0, 57, 0
5, 76800, Note_on_c, 0, 38, 75
5, 80640, Note_on_c, 0, 38, 0
5, 80640, Note_on_c, 0, 50, 75
5, 84480, Note_on_c, 0, 50, 0
5, 84480, Note_on_c, 0, 50, 75
5, 84960, Note_on_c, 0, 50, 0
5, 84960, Note_on_c, 0, 38, 75
5, 88320, Note_on_c, 0, 38, 0
5, 88320, Note_on_c, 0, 50, 75
5, 92160, Note_on_c, 0, 50, 0
5, 99840, Note_on_c, 0, 43, 75
5, 103680, Note_on_c, 0, 43, 0
5, 103680, Note_on_c, 0, 43, 75
5, 107520, Note_on_c, 0, 43, 0
5, 169440, Note_on_c, 0, 67, 49
5, 169440, Note_on_c, 0, 76, 49
5, 170400, Note_on_c, 0, 76, 0
5, 170400, Note_on_c, 0, 67, 0
5, 170400, Note_on_c, 0, 68, 49
5, 171360, Note_on_c, 0, 68, 0
5, 171360, Note_on_c, 0, 56, 49
5, 172320, Note_on_c, 0, 56, 0
5, 172320, Note_on_c, 0, 61, 49
5, 175200, Note_on_c, 0, 61, 0
5, 175200, Note_on_c, 0, 69, 49
5, 175680, Note_on_c, 0, 69, 0
5, 175680, Note_on_c, 0, 68, 49
5, 176040, Note_on_c, 0, 68, 0
5, 176040, Note_on_c, 0, 66, 49
5, 176160, Note_on_c, 0, 66, 0
5, 176400, Control_c, 0, 64, 127
5, 176400, Note_on_c, 0, 61, 49
5, 176640, Note_on_c, 0, 61, 0
5, 176640, Note_on_c, 0, 62, 49
5, 176880, Note_on_c, 0, 62, 0
5, 176880, Note_on_c, 0, 61, 49
5, 177120, Note_on_c, 0, 61, 0
5, 177120, Control_c, 0, 64, 0
5, 177120, Note_on_c, 0, 59, 49
5, 177360, Note_on_c, 0, 59, 0
5, 177360, Control_c, 0, 64, 127
5, 177360, Note_on_c, 0, 59, 49
5, 177600, Note_on_c, 0, 59, 0
5, 177600, Note_on_c, 0, 61, 49
5, 177840, Note_on_c, 0, 61, 0
5, 177840, Note_on_c, 0, 59, 49
5, 178080, Note_on_c, 0, 59, 0
5, 178080, Control_c, 0, 64, 0
5, 178080, Note_on_c, 0, 57, 49
5, 178320, Note_on_c, 0, 57, 0
5, 178320, Control_c, 0, 64, 127
5, 178320, Note_on_c, 0, 57, 49
5, 178560, Note_on_c, 0, 57, 0
5, 178560, Note_on_c, 0, 56, 49
5, 178800, Note_on_c, 0, 56, 0
5, 178800, Note_on_c, 0, 57, 49
5, 179040, Note_on_c, 0, 57, 0
5, 179040, Control_c, 0, 64, 0
5, 179040, Note_on_c, 0, 56, 49
5, 179280, Note_on_c, 0, 56, 0
5, 179520, Note_on_c, 0, 44, 49
5, 180000, Note_on_c, 0, 44, 0
5, 180000, Note_on_c, 0, 49, 49
5, 180000, Note_on_c, 0, 52, 49
5, 180240, Note_on_c, 0, 52, 0
5, 180240, Note_on_c, 0, 49, 0
5, 180960, Note_on_c, 0, 49, 49
5, 180960, Note_on_c, 0, 56, 49
5, 181920, Note_on_c, 0, 56, 0
5, 181920, Note_on_c, 0, 49, 0
5, 181920, Note_on_c, 0, 49, 49
5, 181920, Note_on_c, 0, 56, 49
5, 182160, Note_on_c, 0, 56, 0
5, 182160, Note_on_c, 0, 49, 0
5, 182880, Note_on_c, 0, 61, 49
5, 182880, Note_on_c, 0, 68, 49
5, 183840, Note_on_c, 0, 68, 0
5, 183840, Note_on_c, 0, 61, 0
5, 183840, Note_on_c, 0, 61, 49
5, 183840, Note_on_c, 0, 68, 49
5, 184080, Note_on_c, 0, 68, 0
5, 184080, Note_on_c, 0, 61, 0
5, 184080, End_track
0, 0, End_of_file
