0, 0, Header, 1, 5, 480
1, 0, Start_track
1, 0, Title_t, "tchaikovsky swan lake act3 18 scene"
1, 0, Copyright_t, "Adaptation for Disklavier pianos, by: Robert C. Kuhmann (c) 2012."
1, 0, Text_t, "Seq. (c) by: Segundo G. Yogore,  2007\012"
1, 0, Time_signature, 4, 2, 24, 8
1, 0, Key_signature, -5, "major"
1, 0, Tempo, 454545
1, 57600, Time_signature, 6, 3, 12, 8
1, 69120, Time_signature, 4, 2, 24, 8
1, 69120, Key_signature, -4, "major"
1, 113280, Time_signature, 8, 2, 24, 8
1, 113280, End_track
2, 0, Start_track
2, 0, Title_t, "Grand Piano"
2, 0, Program_c, 0, 0
2, 0, Control_c, 0, 7, 115
2, 0, Control_c, 0, 10, 86
2, 0, Note_on_c, 0, 56, 86
2, 120, Note_on_c, 0, 56, 0
2, 120, Note_on_c, 0, 55, 86
2, 240, Note_on_c, 0, 55, 0
2, 240, Note_on_c, 0, 56, 86
2, 360, Note_on_c, 0, 56, 0
2, 360, Note_on_c, 0, 58, 86
2, 480, Note_on_c, 0, 58, 0
2, 480, Note_on_c, 0, 60, 86
2, 600, Note_on_c, 0, 60, 0
2, 600, Note_on_c, 0, 59, 86
2, 720, Note_on_c, 0, 59, 0
2, 720, Note_on_c, 0, 60, 86
2, 840, Note_on_c, 0, 60, 0
2, 840, Note_on_c, 0, 61, 86
2, 960, Note_on_c, 0, 61, 0
2, 960, Note_on_c, 0, 63, 86
2, 1080, Note_on_c, 0, 63, 0
2, 1080, Note_on_c, 0, 62, 86
2, 1200, Note_on_c, 0, 62, 0
2, 1200, Note_on_c, 0, 63, 86
2, 1320, Note_on_c, 0, 63, 0
2, 1320, Note_on_c, 0, 65, 86
2, 1440, Note_on_c, 0, 65, 0
2, 1440, Note_on_c, 0, 66, 86
2, 1560, Note_on_c, 0, 66, 0
2, 1560, Note_on_c, 0, 65, 86
2, 1680, Note_on_c, 0, 65, 0
2, 1680, Note_on_c, 0, 66, 86
2, 1800, Note_on_c, 0, 66, 0
2, 1800, Note_on_c, 0, 67, 86
2, 1920, Note_on_c, 0, 67, 0
2, 1920, Note_on_c, 0, 68, 86
2, 2040, Note_on_c, 0, 68, 0
2, 2040, Note_on_c, 0, 67, 86
2, 2160, Note_on_c, 0, 67, 0
2, 2160, Note_on_c, 0, 68, 86
2, 2280, Note_on_c, 0, 68, 0
2, 2280, Note_on_c, 0, 70, 86
2, 2400, Note_on_c, 0, 70, 0
2, 2400, Note_on_c, 0, 72, 86
2, 2520, Note_on_c, 0, 72, 0
2, 2520, Note_on_c, 0, 71, 86
2, 2640, Note_on_c, 0, 71, 0
2, 2640, Note_on_c, 0, 72, 86
2, 2760, Note_on_c, 0, 72, 0
2, 2760, Note_on_c, 0, 73, 86
2, 2880, Note_on_c, 0, 73, 0
2, 2880, Note_on_c, 0, 75, 86
2, 3000, Note_on_c, 0, 75, 0
2, 3000, Note_on_c, 0, 74, 86
2, 3120, Note_on_c, 0, 74, 0
2, 3120, Note_on_c, 0, 75, 86
2, 3240, Note_on_c, 0, 75, 0
2, 3240, Note_on_c, 0, 77, 86
2, 3360, Note_on_c, 0, 77, 0
2, 3360, Note_on_c, 0, 78, 86
2, 3480, Note_on_c, 0, 78, 0
2, 3480, Note_on_c, 0, 77, 86
2, 3600, Note_on_c, 0, 77, 0
2, 3600, Note_on_c, 0, 78, 86
2, 3720, Note_on_c, 0, 78, 0
2, 3720, Note_on_c, 0, 79, 86
2, 3840, Note_on_c, 0, 79, 0
2, 3840, Note_on_c, 0, 80, 60
2, 4320, Note_on_c, 0, 80, 0
2, 4320, Note_on_c, 0, 78, 60
2, 4680, Note_on_c, 0, 78, 0
2, 4680, Note_on_c, 0, 77, 60
2, 4800, Note_on_c, 0, 77, 0
2, 4800, Note_on_c, 0, 75, 60
2, 5280, Note_on_c, 0, 75, 0
2, 5280, Note_on_c, 0, 73, 60
2, 5760, Note_on_c, 0, 73, 0
2, 5760, Note_on_c, 0, 75, 60
2, 6240, Note_on_c, 0, 75, 0
2, 6240, Note_on_c, 0, 73, 60
2, 6600, Note_on_c, 0, 73, 0
2, 6600, Note_on_c, 0, 72, 60
2, 6720, Note_on_c, 0, 72, 0
2, 6720, Note_on_c, 0, 70, 60
2, 7200, Note_on_c, 0, 70, 0
2, 7200, Note_on_c, 0, 68, 60
2, 7680, Note_on_c, 0, 68, 0
2, 7680, Note_on_c, 0, 70, 60
2, 8160, Note_on_c, 0, 70, 0
2, 8160, Note_on_c, 0, 68, 60
2, 8520, Note_on_c, 0, 68, 0
2, 8520, Note_on_c, 0, 70, 60
2, 8640, Note_on_c, 0, 70, 0
2, 8640, Note_on_c, 0, 72, 60
2, 9120, Note_on_c, 0, 72, 0
2, 9120, Note_on_c, 0, 73, 60
2, 9480, Note_on_c, 0, 73, 0
2, 9480, Note_on_c, 0, 75, 60
2, 9600, Note_on_c, 0, 75, 0
2, 9600, Note_on_c, 0, 77, 60
2, 10080, Note_on_c, 0, 77, 0
2, 10080, Note_on_c, 0, 82, 60
2, 10440, Note_on_c, 0, 82, 0
2, 10440, Note_on_c, 0, 77, 60
2, 10560, Note_on_c, 0, 77, 0
2, 10560, Note_on_c, 0, 78, 60
2, 11040, Note_on_c, 0, 78, 0
2, 11040, Note_on_c, 0, 77, 60
2, 11520, Note_on_c, 0, 77, 0
2, 11520, Note_on_c, 0, 70, 60
2, 11760, Note_on_c, 0, 70, 0
2, 11760, Note_on_c, 0, 72, 60
2, 12240, Note_on_c, 0, 72, 0
2, 12240, Control_c, 0, 64, 127
2, 12240, Note_on_c, 0, 70, 60
2, 12720, Note_on_c, 0, 70, 0
2, 12720, Note_on_c, 0, 75, 60
2, 12960, Note_on_c, 0, 75, 0
2, 12960, Note_on_c, 0, 72, 60
2, 13200, Note_on_c, 0, 72, 0
2, 13200, Control_c, 0, 64, 0
2, 13200, Note_on_c, 0, 70, 60
2, 13440, Note_on_c, 0, 70, 0
2, 13440, Note_on_c, 0, 85, 60
2, 13680, Note_on_c, 0, 85, 0
2, 13680, Note_on_c, 0, 87, 60
2, 14160, Note_on_c, 0, 87, 0
2, 14160, Control_c, 0, 64, 127
2, 14160, Note_on_c, 0, 85, 60
2, 14640, Note_on_c, 0, 85, 0
2, 14640, Note_on_c, 0, 92, 60
2, 14880, Note_on_c, 0, 92, 0
2, 14880, Note_on_c, 0, 89, 60
2, 15120, Note_on_c, 0, 89, 0
2, 15120, Control_c, 0, 64, 0
2, 15120, Note_on_c, 0, 85, 60
2, 15360, Note_on_c, 0, 85, 0
2, 15360, Note_on_c, 0, 84, 60
2, 15600, Note_on_c, 0, 84, 0
2, 15600, Note_on_c, 0, 82, 60
2, 16080, Note_on_c, 0, 82, 0
2, 16080, Note_on_c, 0, 80, 73
2, 16560, Note_on_c, 0, 80, 0
2, 16560, Note_on_c, 0, 79, 73
2, 17040, Note_on_c, 0, 79, 0
2, 17040, Note_on_c, 0, 77, 73
2, 17520, Note_on_c, 0, 77, 0
2, 17520, Note_on_c, 0, 75, 73
2, 18000, Note_on_c, 0, 75, 0
2, 18000, Note_on_c, 0, 73, 73
2, 18480, Note_on_c, 0, 73, 0
2, 18480, Note_on_c, 0, 71, 60
2, 18960, Note_on_c, 0, 71, 0
2, 18960, Note_on_c, 0, 72, 60
2, 19200, Note_on_c, 0, 72, 0
2, 19200, Note_on_c, 0, 80, 60
2, 19680, Note_on_c, 0, 80, 0
2, 19680, Note_on_c, 0, 78, 60
2, 20040, Note_on_c, 0, 78, 0
2, 20040, Note_on_c, 0, 77, 60
2, 20160, Note_on_c, 0, 77, 0
2, 20160, Note_on_c, 0, 75, 60
2, 20640, Note_on_c, 0, 75, 0
2, 20640, Note_on_c, 0, 73, 60
2, 21120, Note_on_c, 0, 73, 0
2, 21120, Note_on_c, 0, 75, 60
2, 21600, Note_on_c, 0, 75, 0
2, 21600, Note_on_c, 0, 73, 60
2, 21960, Note_on_c, 0, 73, 0
2, 21960, Note_on_c, 0, 72, 60
2, 22080, Note_on_c, 0, 72, 0
2, 22080, Note_on_c, 0, 70, 60
2, 22560, Note_on_c, 0, 70, 0
2, 22560, Note_on_c, 0, 68, 60
2, 23040, Note_on_c, 0, 68, 0
2, 23040, Note_on_c, 0, 70, 60
2, 23520, Note_on_c, 0, 70, 0
2, 23520, Note_on_c, 0, 68, 60
2, 23880, Note_on_c, 0, 68, 0
2, 23880, Note_on_c, 0, 70, 60
2, 24000, Note_on_c, 0, 70, 0
2, 24000, Note_on_c, 0, 72, 60
2, 24480, Note_on_c, 0, 72, 0
2, 24480, Note_on_c, 0, 73, 60
2, 24840, Note_on_c, 0, 73, 0
2, 24840, Note_on_c, 0, 75, 60
2, 24960, Note_on_c, 0, 75, 0
2, 24960, Note_on_c, 0, 77, 60
2, 25440, Note_on_c, 0, 77, 0
2, 25440, Note_on_c, 0, 82, 60
2, 25800, Note_on_c, 0, 82, 0
2, 25800, Note_on_c, 0, 77, 60
2, 25920, Note_on_c, 0, 77, 0
2, 25920, Note_on_c, 0, 78, 60
2, 26400, Note_on_c, 0, 78, 0
2, 26400, Note_on_c, 0, 77, 60
2, 26880, Note_on_c, 0, 77, 0
2, 26880, Note_on_c, 0, 70, 60
2, 27120, Note_on_c, 0, 70, 0
2, 27120, Note_on_c, 0, 72, 60
2, 27600, Note_on_c, 0, 72, 0
2, 27600, Control_c, 0, 64, 127
2, 27600, Note_on_c, 0, 70, 60
2, 28080, Note_on_c, 0, 70, 0
2, 28080, Note_on_c, 0, 75, 60
2, 28320, Note_on_c, 0, 75, 0
2, 28320, Note_on_c, 0, 72, 60
2, 28560, Note_on_c, 0, 72, 0
2, 28560, Control_c, 0, 64, 0
2, 28560, Note_on_c, 0, 70, 60
2, 28800, Note_on_c, 0, 70, 0
2, 28800, Note_on_c, 0, 85, 60
2, 29040, Note_on_c, 0, 85, 0
2, 29040, Note_on_c, 0, 87, 60
2, 29520, Note_on_c, 0, 87, 0
2, 29520, Control_c, 0, 64, 127
2, 29520, Note_on_c, 0, 85, 60
2, 30000, Note_on_c, 0, 85, 0
2, 30000, Note_on_c, 0, 92, 60
2, 30240, Note_on_c, 0, 92, 0
2, 30240, Note_on_c, 0, 89, 60
2, 30480, Note_on_c, 0, 89, 0
2, 30480, Control_c, 0, 64, 0
2, 30480, Note_on_c, 0, 85, 60
2, 30720, Note_on_c, 0, 85, 0
2, 30720, Note_on_c, 0, 84, 60
2, 30960, Note_on_c, 0, 84, 0
2, 30960, Note_on_c, 0, 82, 60
2, 31440, Note_on_c, 0, 82, 0
2, 31440, Note_on_c, 0, 80, 73
2, 31920, Note_on_c, 0, 80, 0
2, 31920, Note_on_c, 0, 79, 73
2, 32400, Note_on_c, 0, 79, 0
2, 32400, Note_on_c, 0, 77, 73
2, 32880, Note_on_c, 0, 77, 0
2, 32880, Note_on_c, 0, 75, 73
2, 33360, Note_on_c, 0, 75, 0
2, 33360, Note_on_c, 0, 73, 73
2, 33840, Note_on_c, 0, 73, 0
2, 33840, Note_on_c, 0, 71, 60
2, 34320, Note_on_c, 0, 71, 0
2, 34320, Note_on_c, 0, 72, 60
2, 34560, Note_on_c, 0, 72, 0
2, 34560, Note_on_c, 0, 68, 73
2, 35040, Note_on_c, 0, 68, 0
2, 35040, Note_on_c, 0, 70, 73
2, 35400, Note_on_c, 0, 70, 0
2, 35400, Note_on_c, 0, 72, 73
2, 35520, Note_on_c, 0, 72, 0
2, 35520, Note_on_c, 0, 73, 73
2, 35760, Note_on_c, 0, 73, 0
2, 35760, Note_on_c, 0, 75, 73
2, 36240, Note_on_c, 0, 75, 0
2, 36240, Note_on_c, 0, 73, 73
2, 36480, Note_on_c, 0, 73, 0
2, 36480, Note_on_c, 0, 71, 73
2, 36720, Note_on_c, 0, 71, 0
2, 36720, Note_on_c, 0, 73, 73
2, 37200, Note_on_c, 0, 73, 0
2, 37200, Note_on_c, 0, 72, 73
2, 37440, Note_on_c, 0, 72, 0
2, 37440, Note_on_c, 0, 67, 73
2, 37680, Note_on_c, 0, 67, 0
2, 37680, Note_on_c, 0, 70, 73
2, 38160, Note_on_c, 0, 70, 0
2, 38160, Note_on_c, 0, 68, 73
2, 38400, Note_on_c, 0, 68, 0
2, 38400, Note_on_c, 0, 68, 73
2, 38880, Note_on_c, 0, 68, 0
2, 38880, Note_on_c, 0, 70, 73
2, 39240, Note_on_c, 0, 70, 0
2, 39240, Note_on_c, 0, 72, 73
2, 39360, Note_on_c, 0, 72, 0
2, 39360, Note_on_c, 0, 73, 73
2, 39600, Note_on_c, 0, 73, 0
2, 39600, Note_on_c, 0, 75, 73
2, 40080, Note_on_c, 0, 75, 0
2, 40080, Note_on_c, 0, 73, 73
2, 40320, Note_on_c, 0, 73, 0
2, 40320, Note_on_c, 0, 71, 73
2, 40560, Note_on_c, 0, 71, 0
2, 40560, Note_on_c, 0, 72, 73
2, 41040, Note_on_c, 0, 72, 0
2, 41040, Note_on_c, 0, 70, 73
2, 41520, Note_on_c, 0, 70, 0
2, 41520, Note_on_c, 0, 67, 73
2, 42000, Note_on_c, 0, 67, 0
2, 42000, Note_on_c, 0, 68, 73
2, 42240, Note_on_c, 0, 68, 0
2, 42240, Note_on_c, 0, 64, 73
2, 42240, Note_on_c, 0, 72, 73
2, 42720, Note_on_c, 0, 72, 0
2, 42720, Note_on_c, 0, 64, 0
2, 42720, Note_on_c, 0, 62, 73
2, 42720, Note_on_c, 0, 74, 73
2, 43080, Note_on_c, 0, 74, 0
2, 43080, Note_on_c, 0, 62, 0
2, 43080, Note_on_c, 0, 64, 73
2, 43080, Note_on_c, 0, 76, 73
2, 43200, Note_on_c, 0, 76, 0
2, 43200, Note_on_c, 0, 64, 0
2, 43200, Note_on_c, 0, 65, 73
2, 43200, Note_on_c, 0, 77, 73
2, 43440, Note_on_c, 0, 77, 0
2, 43440, Note_on_c, 0, 65, 0
2, 43440, Note_on_c, 0, 67, 73
2, 43440, Note_on_c, 0, 79, 73
2, 43920, Note_on_c, 0, 79, 0
2, 43920, Note_on_c, 0, 67, 0
2, 43920, Note_on_c, 0, 65, 73
2, 43920, Note_on_c, 0, 77, 73
2, 44160, Note_on_c, 0, 77, 0
2, 44160, Note_on_c, 0, 65, 0
2, 44160, Note_on_c, 0, 72, 73
2, 44160, Note_on_c, 0, 79, 73
2, 44160, Note_on_c, 0, 84, 73
2, 44400, Note_on_c, 0, 84, 0
2, 44400, Note_on_c, 0, 79, 0
2, 44400, Note_on_c, 0, 72, 0
2, 44640, Note_on_c, 0, 68, 73
2, 44640, Note_on_c, 0, 72, 73
2, 44640, Note_on_c, 0, 77, 73
2, 44640, Note_on_c, 0, 80, 73
2, 44880, Note_on_c, 0, 80, 0
2, 44880, Note_on_c, 0, 68, 0
2, 44880, Note_on_c, 0, 72, 0
2, 44880, Note_on_c, 0, 77, 0
2, 45120, Note_on_c, 0, 65, 73
2, 45120, Note_on_c, 0, 68, 73
2, 45120, Note_on_c, 0, 72, 73
2, 45120, Note_on_c, 0, 77, 73
2, 45360, Note_on_c, 0, 77, 0
2, 45360, Note_on_c, 0, 65, 0
2, 45360, Note_on_c, 0, 68, 0
2, 45360, Note_on_c, 0, 72, 0
2, 45600, Note_on_c, 0, 60, 73
2, 45600, Note_on_c, 0, 65, 73
2, 45600, Note_on_c, 0, 72, 73
2, 45840, Note_on_c, 0, 72, 0
2, 45840, Note_on_c, 0, 65, 0
2, 45840, Note_on_c, 0, 60, 0
2, 46080, Note_on_c, 0, 64, 73
2, 46080, Note_on_c, 0, 72, 73
2, 46560, Note_on_c, 0, 72, 0
2, 46560, Note_on_c, 0, 64, 0
2, 46560, Note_on_c, 0, 62, 73
2, 46560, Note_on_c, 0, 74, 73
2, 46920, Note_on_c, 0, 74, 0
2, 46920, Note_on_c, 0, 62, 0
2, 46920, Note_on_c, 0, 64, 73
2, 46920, Note_on_c, 0, 76, 73
2, 47040, Note_on_c, 0, 76, 0
2, 47040, Note_on_c, 0, 64, 0
2, 47040, Note_on_c, 0, 65, 73
2, 47040, Note_on_c, 0, 77, 73
2, 47280, Note_on_c, 0, 77, 0
2, 47280, Note_on_c, 0, 65, 0
2, 47280, Note_on_c, 0, 67, 73
2, 47280, Note_on_c, 0, 79, 73
2, 47760, Note_on_c, 0, 79, 0
2, 47760, Note_on_c, 0, 67, 0
2, 47760, Note_on_c, 0, 65, 73
2, 47760, Note_on_c, 0, 77, 73
2, 48000, Note_on_c, 0, 77, 0
2, 48000, Note_on_c, 0, 65, 0
2, 48000, Note_on_c, 0, 72, 73
2, 48000, Note_on_c, 0, 79, 73
2, 48000, Note_on_c, 0, 84, 73
2, 48240, Note_on_c, 0, 84, 0
2, 48240, Note_on_c, 0, 79, 0
2, 48240, Note_on_c, 0, 72, 0
2, 48480, Note_on_c, 0, 68, 73
2, 48480, Note_on_c, 0, 72, 73
2, 48480, Note_on_c, 0, 77, 73
2, 48480, Note_on_c, 0, 80, 73
2, 48720, Note_on_c, 0, 80, 0
2, 48720, Note_on_c, 0, 68, 0
2, 48720, Note_on_c, 0, 72, 0
2, 48720, Note_on_c, 0, 77, 0
2, 48960, Note_on_c, 0, 65, 73
2, 48960, Note_on_c, 0, 68, 73
2, 48960, Note_on_c, 0, 72, 73
2, 48960, Note_on_c, 0, 77, 73
2, 49200, Note_on_c, 0, 77, 0
2, 49200, Note_on_c, 0, 65, 0
2, 49200, Note_on_c, 0, 68, 0
2, 49200, Note_on_c, 0, 72, 0
2, 49440, Note_on_c, 0, 60, 73
2, 49440, Note_on_c, 0, 65, 73
2, 49440, Note_on_c, 0, 72, 73
2, 49680, Note_on_c, 0, 72, 0
2, 49680, Note_on_c, 0, 65, 0
2, 49680, Note_on_c, 0, 60, 0
2, 49920, Note_on_c, 0, 67, 73
2, 49920, Note_on_c, 0, 75, 73
2, 50400, Note_on_c, 0, 75, 0
2, 50400, Note_on_c, 0, 67, 0
2, 50400, Note_on_c, 0, 65, 73
2, 50400, Note_on_c, 0, 77, 73
2, 50760, Note_on_c, 0, 77, 0
2, 50760, Note_on_c, 0, 65, 0
2, 50760, Note_on_c, 0, 67, 73
2, 50760, Note_on_c, 0, 79, 73
2, 50880, Note_on_c, 0, 79, 0
2, 50880, Note_on_c, 0, 67, 0
2, 50880, Note_on_c, 0, 68, 73
2, 50880, Note_on_c, 0, 80, 73
2, 51120, Note_on_c, 0, 80, 0
2, 51120, Note_on_c, 0, 68, 0
2, 51120, Note_on_c, 0, 70, 73
2, 51120, Note_on_c, 0, 82, 73
2, 51600, Note_on_c, 0, 82, 0
2, 51600, Note_on_c, 0, 70, 0
2, 51600, Note_on_c, 0, 68, 73
2, 51600, Note_on_c, 0, 80, 73
2, 51840, Note_on_c, 0, 80, 0
2, 51840, Note_on_c, 0, 68, 0
2, 51840, Note_on_c, 0, 75, 73
2, 51840, Note_on_c, 0, 82, 73
2, 51840, Note_on_c, 0, 87, 73
2, 52080, Note_on_c, 0, 87, 0
2, 52080, Note_on_c, 0, 82, 0
2, 52080, Note_on_c, 0, 75, 0
2, 52320, Note_on_c, 0, 72, 73
2, 52320, Note_on_c, 0, 75, 73
2, 52320, Note_on_c, 0, 80, 73
2, 52320, Note_on_c, 0, 84, 73
2, 52560, Note_on_c, 0, 84, 0
2, 52560, Note_on_c, 0, 72, 0
2, 52560, Note_on_c, 0, 75, 0
2, 52560, Note_on_c, 0, 80, 0
2, 52800, Note_on_c, 0, 68, 73
2, 52800, Note_on_c, 0, 72, 73
2, 52800, Note_on_c, 0, 75, 73
2, 52800, Note_on_c, 0, 80, 73
2, 53040, Note_on_c, 0, 80, 0
2, 53040, Note_on_c, 0, 68, 0
2, 53040, Note_on_c, 0, 72, 0
2, 53040, Note_on_c, 0, 75, 0
2, 53280, Note_on_c, 0, 63, 73
2, 53280, Note_on_c, 0, 68, 73
2, 53280, Note_on_c, 0, 75, 73
2, 53520, Note_on_c, 0, 75, 0
2, 53520, Note_on_c, 0, 68, 0
2, 53520, Note_on_c, 0, 63, 0
2, 53760, Note_on_c, 0, 67, 73
2, 53760, Note_on_c, 0, 75, 73
2, 54240, Note_on_c, 0, 75, 0
2, 54240, Note_on_c, 0, 67, 0
2, 54240, Note_on_c, 0, 65, 73
2, 54240, Note_on_c, 0, 77, 73
2, 54600, Note_on_c, 0, 77, 0
2, 54600, Note_on_c, 0, 65, 0
2, 54600, Note_on_c, 0, 67, 73
2, 54600, Note_on_c, 0, 79, 73
2, 54720, Note_on_c, 0, 79, 0
2, 54720, Note_on_c, 0, 67, 0
2, 54720, Note_on_c, 0, 68, 73
2, 54720, Note_on_c, 0, 80, 73
2, 54960, Note_on_c, 0, 80, 0
2, 54960, Note_on_c, 0, 68, 0
2, 54960, Note_on_c, 0, 70, 73
2, 54960, Note_on_c, 0, 82, 73
2, 55440, Note_on_c, 0, 82, 0
2, 55440, Note_on_c, 0, 70, 0
2, 55440, Note_on_c, 0, 68, 73
2, 55440, Note_on_c, 0, 80, 73
2, 55680, Note_on_c, 0, 80, 0
2, 55680, Note_on_c, 0, 68, 0
2, 55680, Note_on_c, 0, 75, 73
2, 55680, Note_on_c, 0, 82, 73
2, 55680, Note_on_c, 0, 87, 73
2, 55920, Note_on_c, 0, 87, 0
2, 55920, Note_on_c, 0, 82, 0
2, 55920, Note_on_c, 0, 75, 0
2, 56160, Note_on_c, 0, 72, 73
2, 56160, Note_on_c, 0, 75, 73
2, 56160, Note_on_c, 0, 80, 73
2, 56160, Note_on_c, 0, 84, 73
2, 56400, Note_on_c, 0, 84, 0
2, 56400, Note_on_c, 0, 72, 0
2, 56400, Note_on_c, 0, 75, 0
2, 56400, Note_on_c, 0, 80, 0
2, 56640, Note_on_c, 0, 68, 73
2, 56640, Note_on_c, 0, 72, 73
2, 56640, Note_on_c, 0, 75, 73
2, 56640, Note_on_c, 0, 80, 73
2, 56880, Note_on_c, 0, 80, 0
2, 56880, Note_on_c, 0, 68, 0
2, 56880, Note_on_c, 0, 72, 0
2, 56880, Note_on_c, 0, 75, 0
2, 57120, Note_on_c, 0, 63, 73
2, 57120, Note_on_c, 0, 68, 73
2, 57120, Note_on_c, 0, 75, 73
2, 57360, Note_on_c, 0, 75, 0
2, 57360, Note_on_c, 0, 68, 0
2, 57360, Note_on_c, 0, 63, 0
2, 57600, Note_on_c, 0, 63, 86
2, 57840, Note_on_c, 0, 63, 0
2, 57840, Note_on_c, 0, 63, 86
2, 57960, Note_on_c, 0, 63, 0
2, 57960, Note_on_c, 0, 63, 86
2, 58080, Note_on_c, 0, 63, 0
2, 58080, Note_on_c, 0, 63, 86
2, 58320, Note_on_c, 0, 63, 0
2, 58320, Note_on_c, 0, 63, 86
2, 58560, Note_on_c, 0, 63, 0
2, 58560, Note_on_c, 0, 70, 86
2, 58800, Note_on_c, 0, 70, 0
2, 58800, Note_on_c, 0, 67, 86
2, 59040, Note_on_c, 0, 67, 0
2, 59040, Note_on_c, 0, 75, 86
2, 60000, Note_on_c, 0, 75, 0
2, 60480, Note_on_c, 0, 67, 86
2, 60480, Note_on_c, 0, 70, 86
2, 60720, Note_on_c, 0, 70, 0
2, 60720, Note_on_c, 0, 67, 0
2, 60720, Note_on_c, 0, 67, 86
2, 60720, Note_on_c, 0, 70, 86
2, 60840, Note_on_c, 0, 70, 0
2, 60840, Note_on_c, 0, 67, 0
2, 60840, Note_on_c, 0, 67, 86
2, 60840, Note_on_c, 0, 70, 86
2, 60960, Note_on_c, 0, 70, 0
2, 60960, Note_on_c, 0, 67, 0
2, 60960, Note_on_c, 0, 67, 86
2, 60960, Note_on_c, 0, 70, 86
2, 61200, Note_on_c, 0, 70, 0
2, 61200, Note_on_c, 0, 67, 0
2, 61200, Note_on_c, 0, 67, 86
2, 61200, Note_on_c, 0, 70, 86
2, 61440, Note_on_c, 0, 70, 0
2, 61440, Note_on_c, 0, 67, 0
2, 61440, Note_on_c, 0, 70, 86
2, 61440, Note_on_c, 0, 75, 86
2, 61680, Note_on_c, 0, 75, 0
2, 61680, Note_on_c, 0, 70, 0
2, 61680, Note_on_c, 0, 75, 86
2, 61680, Note_on_c, 0, 79, 86
2, 61920, Note_on_c, 0, 79, 0
2, 61920, Note_on_c, 0, 75, 0
2, 61920, Note_on_c, 0, 67, 86
2, 61920, Note_on_c, 0, 70, 86
2, 62160, Note_on_c, 0, 70, 0
2, 62160, Note_on_c, 0, 67, 0
2, 62160, Note_on_c, 0, 67, 86
2, 62160, Note_on_c, 0, 70, 86
2, 62280, Note_on_c, 0, 70, 0
2, 62280, Note_on_c, 0, 67, 0
2, 62280, Note_on_c, 0, 67, 86
2, 62280, Note_on_c, 0, 70, 86
2, 62400, Note_on_c, 0, 70, 0
2, 62400, Note_on_c, 0, 67, 0
2, 62400, Note_on_c, 0, 67, 86
2, 62400, Note_on_c, 0, 70, 86
2, 62640, Note_on_c, 0, 70, 0
2, 62640, Note_on_c, 0, 67, 0
2, 62640, Note_on_c, 0, 67, 86
2, 62640, Note_on_c, 0, 70, 86
2, 62880, Note_on_c, 0, 70, 0
2, 62880, Note_on_c, 0, 67, 0
2, 62880, Note_on_c, 0, 70, 86
2, 62880, Note_on_c, 0, 75, 86
2, 63120, Note_on_c, 0, 75, 0
2, 63120, Note_on_c, 0, 70, 0
2, 63120, Note_on_c, 0, 75, 86
2, 63120, Note_on_c, 0, 79, 86
2, 63360, Note_on_c, 0, 79, 0
2, 63360, Note_on_c, 0, 75, 0
2, 63360, Note_on_c, 0, 74, 86
2, 63360, Note_on_c, 0, 77, 86
2, 63600, Note_on_c, 0, 77, 0
2, 63600, Note_on_c, 0, 74, 0
2, 63600, Note_on_c, 0, 75, 86
2, 63840, Note_on_c, 0, 75, 0
2, 63840, Note_on_c, 0, 74, 86
2, 63840, Note_on_c, 0, 77, 86
2, 64080, Note_on_c, 0, 77, 0
2, 64080, Note_on_c, 0, 74, 0
2, 64080, Note_on_c, 0, 75, 86
2, 64320, Note_on_c, 0, 75, 0
2, 64320, Note_on_c, 0, 74, 86
2, 64320, Note_on_c, 0, 77, 86
2, 64560, Note_on_c, 0, 77, 0
2, 64560, Note_on_c, 0, 74, 0
2, 64560, Note_on_c, 0, 75, 86
2, 64800, Note_on_c, 0, 75, 0
2, 64800, Note_on_c, 0, 74, 86
2, 64800, Note_on_c, 0, 77, 86
2, 65040, Note_on_c, 0, 77, 0
2, 65040, Note_on_c, 0, 74, 0
2, 65040, Note_on_c, 0, 75, 86
2, 65040, Note_on_c, 0, 79, 86
2, 65280, Note_on_c, 0, 79, 0
2, 65280, Note_on_c, 0, 75, 0
2, 65280, Note_on_c, 0, 70, 86
2, 65280, Note_on_c, 0, 75, 86
2, 65520, Note_on_c, 0, 75, 0
2, 65520, Note_on_c, 0, 70, 0
2, 65520, Note_on_c, 0, 74, 86
2, 65520, Note_on_c, 0, 77, 86
2, 66240, Note_on_c, 0, 77, 0
2, 66240, Note_on_c, 0, 74, 0
2, 66240, Note_on_c, 0, 75, 86
2, 66240, Note_on_c, 0, 79, 86
2, 66480, Note_on_c, 0, 79, 0
2, 66480, Note_on_c, 0, 75, 0
2, 66480, Note_on_c, 0, 75, 86
2, 66480, Note_on_c, 0, 79, 86
2, 66600, Note_on_c, 0, 79, 0
2, 66600, Note_on_c, 0, 75, 0
2, 66600, Note_on_c, 0, 75, 86
2, 66600, Note_on_c, 0, 79, 86
2, 66720, Note_on_c, 0, 79, 0
2, 66720, Note_on_c, 0, 75, 0
2, 66720, Note_on_c, 0, 75, 86
2, 66720, Note_on_c, 0, 79, 86
2, 66960, Note_on_c, 0, 79, 0
2, 66960, Note_on_c, 0, 75, 0
2, 66960, Note_on_c, 0, 75, 86
2, 66960, Note_on_c, 0, 79, 86
2, 67200, Note_on_c, 0, 79, 0
2, 67200, Note_on_c, 0, 75, 0
2, 67200, Note_on_c, 0, 70, 86
2, 67200, Note_on_c, 0, 75, 86
2, 67440, Note_on_c, 0, 75, 0
2, 67440, Note_on_c, 0, 70, 0
2, 67440, Note_on_c, 0, 75, 86
2, 67440, Note_on_c, 0, 79, 86
2, 67680, Note_on_c, 0, 79, 0
2, 67680, Note_on_c, 0, 75, 0
2, 67680, Note_on_c, 0, 67, 112
2, 67680, Note_on_c, 0, 70, 112
2, 69120, Note_on_c, 0, 70, 0
2, 69120, Note_on_c, 0, 67, 0
2, 71040, Note_on_c, 0, 84, 86
2, 71040, Note_on_c, 0, 91, 86
2, 71040, Note_on_c, 0, 94, 86
2, 71040, Note_on_c, 0, 96, 86
2, 71280, Note_on_c, 0, 96, 0
2, 71280, Note_on_c, 0, 84, 0
2, 71280, Note_on_c, 0, 91, 0
2, 71280, Note_on_c, 0, 94, 0
2, 71520, Note_on_c, 0, 72, 86
2, 71520, Note_on_c, 0, 79, 86
2, 71520, Note_on_c, 0, 82, 86
2, 71520, Note_on_c, 0, 84, 86
2, 71760, Note_on_c, 0, 84, 0
2, 71760, Note_on_c, 0, 72, 0
2, 71760, Note_on_c, 0, 79, 0
2, 71760, Note_on_c, 0, 82, 0
2, 72000, Control_c, 0, 64, 127
2, 72000, Note_on_c, 0, 58, 73
2, 72000, Note_on_c, 0, 60, 73
2, 72080, Note_on_c, 0, 60, 0
2, 72080, Note_on_c, 0, 58, 0
2, 72080, Note_on_c, 0, 55, 47
2, 72159, Note_on_c, 0, 55, 0
2, 72159, Note_on_c, 0, 58, 47
2, 72159, Note_on_c, 0, 60, 47
2, 72240, Note_on_c, 0, 60, 0
2, 72240, Note_on_c, 0, 58, 0
2, 72240, Note_on_c, 0, 55, 47
2, 72320, Note_on_c, 0, 55, 0
2, 72320, Note_on_c, 0, 58, 47
2, 72320, Note_on_c, 0, 60, 47
2, 72399, Note_on_c, 0, 60, 0
2, 72399, Note_on_c, 0, 58, 0
2, 72399, Note_on_c, 0, 55, 47
2, 72480, Note_on_c, 0, 55, 0
2, 72480, Note_on_c, 0, 58, 47
2, 72480, Note_on_c, 0, 60, 47
2, 72560, Note_on_c, 0, 60, 0
2, 72560, Note_on_c, 0, 58, 0
2, 72560, Note_on_c, 0, 55, 47
2, 72639, Note_on_c, 0, 55, 0
2, 72639, Note_on_c, 0, 58, 47
2, 72639, Note_on_c, 0, 60, 47
2, 72720, Note_on_c, 0, 60, 0
2, 72720, Note_on_c, 0, 58, 0
2, 72720, Note_on_c, 0, 55, 47
2, 72800, Note_on_c, 0, 55, 0
2, 72800, Note_on_c, 0, 58, 47
2, 72800, Note_on_c, 0, 60, 47
2, 72879, Note_on_c, 0, 60, 0
2, 72879, Note_on_c, 0, 58, 0
2, 72879, Note_on_c, 0, 55, 47
2, 72960, Note_on_c, 0, 55, 0
2, 72960, Note_on_c, 0, 58, 47
2, 72960, Note_on_c, 0, 60, 47
2, 73040, Note_on_c, 0, 60, 0
2, 73040, Note_on_c, 0, 58, 0
2, 73040, Note_on_c, 0, 55, 47
2, 73119, Note_on_c, 0, 55, 0
2, 73119, Note_on_c, 0, 58, 47
2, 73119, Note_on_c, 0, 60, 47
2, 73200, Note_on_c, 0, 60, 0
2, 73200, Note_on_c, 0, 58, 0
2, 73200, Note_on_c, 0, 55, 47
2, 73280, Note_on_c, 0, 55, 0
2, 73280, Note_on_c, 0, 58, 47
2, 73280, Note_on_c, 0, 60, 47
2, 73359, Note_on_c, 0, 60, 0
2, 73359, Note_on_c, 0, 58, 0
2, 73359, Note_on_c, 0, 55, 47
2, 73440, Note_on_c, 0, 55, 0
2, 73440, Note_on_c, 0, 58, 47
2, 73440, Note_on_c, 0, 60, 47
2, 73520, Note_on_c, 0, 60, 0
2, 73520, Note_on_c, 0, 58, 0
2, 73520, Note_on_c, 0, 55, 47
2, 73599, Note_on_c, 0, 55, 0
2, 73599, Note_on_c, 0, 58, 47
2, 73599, Note_on_c, 0, 60, 47
2, 73680, Note_on_c, 0, 60, 0
2, 73680, Note_on_c, 0, 58, 0
2, 73680, Note_on_c, 0, 55, 47
2, 73760, Note_on_c, 0, 55, 0
2, 73760, Note_on_c, 0, 58, 47
2, 73760, Note_on_c, 0, 60, 47
2, 73839, Note_on_c, 0, 60, 0
2, 73839, Note_on_c, 0, 58, 0
2, 73839, Note_on_c, 0, 55, 47
2, 73920, Note_on_c, 0, 55, 0
2, 73920, Note_on_c, 0, 58, 47
2, 73920, Note_on_c, 0, 60, 47
2, 74000, Note_on_c, 0, 60, 0
2, 74000, Note_on_c, 0, 58, 0
2, 74000, Note_on_c, 0, 55, 47
2, 74079, Note_on_c, 0, 55, 0
2, 74079, Note_on_c, 0, 58, 47
2, 74079, Note_on_c, 0, 60, 47
2, 74160, Note_on_c, 0, 60, 0
2, 74160, Note_on_c, 0, 58, 0
2, 74160, Note_on_c, 0, 55, 47
2, 74240, Note_on_c, 0, 55, 0
2, 74240, Note_on_c, 0, 58, 47
2, 74240, Note_on_c, 0, 60, 47
2, 74319, Note_on_c, 0, 60, 0
2, 74319, Note_on_c, 0, 58, 0
2, 74319, Note_on_c, 0, 55, 47
2, 74400, Note_on_c, 0, 55, 0
2, 74400, Note_on_c, 0, 58, 47
2, 74400, Note_on_c, 0, 60, 47
2, 74480, Note_on_c, 0, 60, 0
2, 74480, Note_on_c, 0, 58, 0
2, 74480, Note_on_c, 0, 55, 47
2, 74559, Note_on_c, 0, 55, 0
2, 74559, Note_on_c, 0, 58, 47
2, 74559, Note_on_c, 0, 60, 47
2, 74640, Note_on_c, 0, 60, 0
2, 74640, Note_on_c, 0, 58, 0
2, 74640, Note_on_c, 0, 55, 47
2, 74720, Note_on_c, 0, 55, 0
2, 74720, Note_on_c, 0, 58, 47
2, 74720, Note_on_c, 0, 60, 47
2, 74799, Note_on_c, 0, 60, 0
2, 74799, Note_on_c, 0, 58, 0
2, 74799, Control_c, 0, 64, 0
2, 74799, Note_on_c, 0, 55, 47
2, 74880, Note_on_c, 0, 55, 0
2, 74880, Note_on_c, 0, 84, 86
2, 74880, Note_on_c, 0, 91, 86
2, 74880, Note_on_c, 0, 94, 86
2, 74880, Note_on_c, 0, 96, 86
2, 75120, Note_on_c, 0, 96, 0
2, 75120, Note_on_c, 0, 84, 0
2, 75120, Note_on_c, 0, 91, 0
2, 75120, Note_on_c, 0, 94, 0
2, 75360, Note_on_c, 0, 72, 86
2, 75360, Note_on_c, 0, 79, 86
2, 75360, Note_on_c, 0, 82, 86
2, 75360, Note_on_c, 0, 84, 86
2, 75600, Note_on_c, 0, 84, 0
2, 75600, Note_on_c, 0, 72, 0
2, 75600, Note_on_c, 0, 79, 0
2, 75600, Note_on_c, 0, 82, 0
2, 75840, Control_c, 0, 64, 127
2, 75840, Note_on_c, 0, 58, 73
2, 75840, Note_on_c, 0, 60, 73
2, 75920, Note_on_c, 0, 60, 0
2, 75920, Note_on_c, 0, 58, 0
2, 75920, Note_on_c, 0, 55, 47
2, 75999, Note_on_c, 0, 55, 0
2, 75999, Note_on_c, 0, 58, 47
2, 75999, Note_on_c, 0, 60, 47
2, 76080, Note_on_c, 0, 60, 0
2, 76080, Note_on_c, 0, 58, 0
2, 76080, Note_on_c, 0, 55, 47
2, 76160, Note_on_c, 0, 55, 0
2, 76160, Note_on_c, 0, 58, 47
2, 76160, Note_on_c, 0, 60, 47
2, 76239, Note_on_c, 0, 60, 0
2, 76239, Note_on_c, 0, 58, 0
2, 76239, Note_on_c, 0, 55, 47
2, 76320, Note_on_c, 0, 55, 0
2, 76320, Note_on_c, 0, 58, 47
2, 76320, Note_on_c, 0, 60, 47
2, 76400, Note_on_c, 0, 60, 0
2, 76400, Note_on_c, 0, 58, 0
2, 76400, Note_on_c, 0, 55, 47
2, 76479, Note_on_c, 0, 55, 0
2, 76479, Note_on_c, 0, 58, 47
2, 76479, Note_on_c, 0, 60, 47
2, 76560, Note_on_c, 0, 60, 0
2, 76560, Note_on_c, 0, 58, 0
2, 76560, Note_on_c, 0, 55, 47
2, 76640, Note_on_c, 0, 55, 0
2, 76640, Note_on_c, 0, 58, 47
2, 76640, Note_on_c, 0, 60, 47
2, 76719, Note_on_c, 0, 60, 0
2, 76719, Note_on_c, 0, 58, 0
2, 76719, Note_on_c, 0, 55, 47
2, 76800, Note_on_c, 0, 55, 0
2, 76800, Note_on_c, 0, 58, 47
2, 76800, Note_on_c, 0, 60, 47
2, 76880, Note_on_c, 0, 60, 0
2, 76880, Note_on_c, 0, 58, 0
2, 76880, Note_on_c, 0, 55, 47
2, 76959, Note_on_c, 0, 55, 0
2, 76959, Note_on_c, 0, 58, 47
2, 76959, Note_on_c, 0, 60, 47
2, 77040, Note_on_c, 0, 60, 0
2, 77040, Note_on_c, 0, 58, 0
2, 77040, Note_on_c, 0, 55, 47
2, 77120, Note_on_c, 0, 55, 0
2, 77120, Note_on_c, 0, 58, 47
2, 77120, Note_on_c, 0, 60, 47
2, 77199, Note_on_c, 0, 60, 0
2, 77199, Note_on_c, 0, 58, 0
2, 77199, Note_on_c, 0, 55, 47
2, 77280, Note_on_c, 0, 55, 0
2, 77280, Note_on_c, 0, 58, 47
2, 77280, Note_on_c, 0, 60, 47
2, 77360, Note_on_c, 0, 60, 0
2, 77360, Note_on_c, 0, 58, 0
2, 77360, Note_on_c, 0, 55, 47
2, 77439, Note_on_c, 0, 55, 0
2, 77439, Note_on_c, 0, 58, 47
2, 77439, Note_on_c, 0, 60, 47
2, 77520, Note_on_c, 0, 60, 0
2, 77520, Note_on_c, 0, 58, 0
2, 77520, Note_on_c, 0, 55, 47
2, 77600, Note_on_c, 0, 55, 0
2, 77600, Note_on_c, 0, 58, 47
2, 77600, Note_on_c, 0, 60, 47
2, 77679, Note_on_c, 0, 60, 0
2, 77679, Note_on_c, 0, 58, 0
2, 77679, Note_on_c, 0, 55, 47
2, 77760, Note_on_c, 0, 55, 0
2, 77760, Note_on_c, 0, 58, 47
2, 77760, Note_on_c, 0, 60, 47
2, 77840, Note_on_c, 0, 60, 0
2, 77840, Note_on_c, 0, 58, 0
2, 77840, Note_on_c, 0, 55, 47
2, 77919, Note_on_c, 0, 55, 0
2, 77919, Note_on_c, 0, 58, 47
2, 77919, Note_on_c, 0, 60, 47
2, 78000, Note_on_c, 0, 60, 0
2, 78000, Note_on_c, 0, 58, 0
2, 78000, Note_on_c, 0, 55, 47
2, 78080, Note_on_c, 0, 55, 0
2, 78080, Note_on_c, 0, 58, 47
2, 78080, Note_on_c, 0, 60, 47
2, 78159, Note_on_c, 0, 60, 0
2, 78159, Note_on_c, 0, 58, 0
2, 78159, Note_on_c, 0, 55, 47
2, 78240, Note_on_c, 0, 55, 0
2, 78240, Note_on_c, 0, 58, 47
2, 78240, Note_on_c, 0, 60, 47
2, 78320, Note_on_c, 0, 60, 0
2, 78320, Note_on_c, 0, 58, 0
2, 78320, Note_on_c, 0, 55, 47
2, 78399, Note_on_c, 0, 55, 0
2, 78399, Note_on_c, 0, 58, 47
2, 78399, Note_on_c, 0, 60, 47
2, 78480, Note_on_c, 0, 60, 0
2, 78480, Note_on_c, 0, 58, 0
2, 78480, Note_on_c, 0, 55, 47
2, 78560, Note_on_c, 0, 55, 0
2, 78560, Note_on_c, 0, 58, 47
2, 78560, Note_on_c, 0, 60, 47
2, 78639, Note_on_c, 0, 60, 0
2, 78639, Note_on_c, 0, 58, 0
2, 78639, Control_c, 0, 64, 0
2, 78639, Note_on_c, 0, 55, 47
2, 78720, Note_on_c, 0, 55, 0
2, 78720, Note_on_c, 0, 84, 86
2, 78720, Note_on_c, 0, 89, 86
2, 78720, Note_on_c, 0, 92, 86
2, 78720, Note_on_c, 0, 96, 86
2, 78960, Note_on_c, 0, 96, 0
2, 78960, Note_on_c, 0, 84, 0
2, 78960, Note_on_c, 0, 89, 0
2, 78960, Note_on_c, 0, 92, 0
2, 79200, Note_on_c, 0, 72, 86
2, 79200, Note_on_c, 0, 77, 86
2, 79200, Note_on_c, 0, 80, 86
2, 79200, Note_on_c, 0, 84, 86
2, 79440, Note_on_c, 0, 84, 0
2, 79440, Note_on_c, 0, 72, 0
2, 79440, Note_on_c, 0, 77, 0
2, 79440, Note_on_c, 0, 80, 0
2, 79680, Control_c, 0, 64, 127
2, 79680, Note_on_c, 0, 56, 73
2, 79680, Note_on_c, 0, 60, 73
2, 79760, Note_on_c, 0, 60, 0
2, 79760, Note_on_c, 0, 56, 0
2, 79760, Note_on_c, 0, 53, 47
2, 79839, Note_on_c, 0, 53, 0
2, 79839, Note_on_c, 0, 56, 47
2, 79839, Note_on_c, 0, 60, 47
2, 79920, Note_on_c, 0, 60, 0
2, 79920, Note_on_c, 0, 56, 0
2, 79920, Note_on_c, 0, 53, 47
2, 80000, Note_on_c, 0, 53, 0
2, 80000, Note_on_c, 0, 56, 47
2, 80000, Note_on_c, 0, 60, 47
2, 80079, Note_on_c, 0, 60, 0
2, 80079, Note_on_c, 0, 56, 0
2, 80079, Note_on_c, 0, 53, 47
2, 80160, Note_on_c, 0, 53, 0
2, 80160, Note_on_c, 0, 56, 47
2, 80160, Note_on_c, 0, 60, 47
2, 80240, Note_on_c, 0, 60, 0
2, 80240, Note_on_c, 0, 56, 0
2, 80240, Note_on_c, 0, 53, 47
2, 80319, Note_on_c, 0, 53, 0
2, 80319, Note_on_c, 0, 56, 47
2, 80319, Note_on_c, 0, 60, 47
2, 80400, Note_on_c, 0, 60, 0
2, 80400, Note_on_c, 0, 56, 0
2, 80400, Note_on_c, 0, 53, 47
2, 80480, Note_on_c, 0, 53, 0
2, 80480, Note_on_c, 0, 56, 47
2, 80480, Note_on_c, 0, 60, 47
2, 80559, Note_on_c, 0, 60, 0
2, 80559, Note_on_c, 0, 56, 0
2, 80559, Note_on_c, 0, 53, 47
2, 80640, Note_on_c, 0, 53, 0
2, 80640, Note_on_c, 0, 56, 47
2, 80640, Note_on_c, 0, 60, 47
2, 80720, Note_on_c, 0, 60, 0
2, 80720, Note_on_c, 0, 56, 0
2, 80720, Note_on_c, 0, 53, 47
2, 80799, Note_on_c, 0, 53, 0
2, 80799, Note_on_c, 0, 56, 47
2, 80799, Note_on_c, 0, 60, 47
2, 80880, Note_on_c, 0, 60, 0
2, 80880, Note_on_c, 0, 56, 0
2, 80880, Note_on_c, 0, 53, 47
2, 80960, Note_on_c, 0, 53, 0
2, 80960, Note_on_c, 0, 56, 47
2, 80960, Note_on_c, 0, 60, 47
2, 81039, Note_on_c, 0, 60, 0
2, 81039, Note_on_c, 0, 56, 0
2, 81039, Note_on_c, 0, 53, 47
2, 81120, Note_on_c, 0, 53, 0
2, 81120, Note_on_c, 0, 56, 47
2, 81120, Note_on_c, 0, 60, 47
2, 81200, Note_on_c, 0, 60, 0
2, 81200, Note_on_c, 0, 56, 0
2, 81200, Note_on_c, 0, 53, 47
2, 81279, Note_on_c, 0, 53, 0
2, 81279, Note_on_c, 0, 56, 47
2, 81279, Note_on_c, 0, 60, 47
2, 81360, Note_on_c, 0, 60, 0
2, 81360, Note_on_c, 0, 56, 0
2, 81360, Note_on_c, 0, 53, 47
2, 81440, Note_on_c, 0, 53, 0
2, 81440, Note_on_c, 0, 56, 47
2, 81440, Note_on_c, 0, 60, 47
2, 81519, Note_on_c, 0, 60, 0
2, 81519, Note_on_c, 0, 56, 0
2, 81519, Note_on_c, 0, 53, 47
2, 81600, Note_on_c, 0, 53, 0
2, 81600, Note_on_c, 0, 56, 47
2, 81600, Note_on_c, 0, 60, 47
2, 81680, Note_on_c, 0, 60, 0
2, 81680, Note_on_c, 0, 56, 0
2, 81680, Note_on_c, 0, 53, 47
2, 81759, Note_on_c, 0, 53, 0
2, 81759, Note_on_c, 0, 56, 47
2, 81759, Note_on_c, 0, 60, 47
2, 81840, Note_on_c, 0, 60, 0
2, 81840, Note_on_c, 0, 56, 0
2, 81840, Note_on_c, 0, 53, 47
2, 81920, Note_on_c, 0, 53, 0
2, 81920, Note_on_c, 0, 56, 47
2, 81920, Note_on_c, 0, 60, 47
2, 81999, Note_on_c, 0, 60, 0
2, 81999, Note_on_c, 0, 56, 0
2, 81999, Note_on_c, 0, 53, 47
2, 82080, Note_on_c, 0, 53, 0
2, 82080, Note_on_c, 0, 56, 47
2, 82080, Note_on_c, 0, 60, 47
2, 82160, Note_on_c, 0, 60, 0
2, 82160, Note_on_c, 0, 56, 0
2, 82160, Note_on_c, 0, 53, 47
2, 82239, Note_on_c, 0, 53, 0
2, 82239, Note_on_c, 0, 56, 47
2, 82239, Note_on_c, 0, 60, 47
2, 82320, Note_on_c, 0, 60, 0
2, 82320, Note_on_c, 0, 56, 0
2, 82320, Note_on_c, 0, 53, 47
2, 82400, Note_on_c, 0, 53, 0
2, 82400, Note_on_c, 0, 56, 47
2, 82400, Note_on_c, 0, 60, 47
2, 82479, Note_on_c, 0, 60, 0
2, 82479, Note_on_c, 0, 56, 0
2, 82479, Control_c, 0, 64, 0
2, 82479, Note_on_c, 0, 53, 47
2, 82560, Note_on_c, 0, 53, 0
2, 82560, Note_on_c, 0, 84, 86
2, 82560, Note_on_c, 0, 89, 86
2, 82560, Note_on_c, 0, 92, 86
2, 82560, Note_on_c, 0, 96, 86
2, 82800, Note_on_c, 0, 96, 0
2, 82800, Note_on_c, 0, 84, 0
2, 82800, Note_on_c, 0, 89, 0
2, 82800, Note_on_c, 0, 92, 0
2, 83040, Note_on_c, 0, 72, 86
2, 83040, Note_on_c, 0, 77, 86
2, 83040, Note_on_c, 0, 80, 86
2, 83040, Note_on_c, 0, 84, 86
2, 83280, Note_on_c, 0, 84, 0
2, 83280, Note_on_c, 0, 72, 0
2, 83280, Note_on_c, 0, 77, 0
2, 83280, Note_on_c, 0, 80, 0
2, 83520, Control_c, 0, 64, 127
2, 83520, Note_on_c, 0, 56, 73
2, 83520, Note_on_c, 0, 60, 73
2, 83600, Note_on_c, 0, 60, 0
2, 83600, Note_on_c, 0, 56, 0
2, 83600, Note_on_c, 0, 53, 47
2, 83679, Note_on_c, 0, 53, 0
2, 83679, Note_on_c, 0, 56, 47
2, 83679, Note_on_c, 0, 60, 47
2, 83760, Note_on_c, 0, 60, 0
2, 83760, Note_on_c, 0, 56, 0
2, 83760, Note_on_c, 0, 53, 47
2, 83840, Note_on_c, 0, 53, 0
2, 83840, Note_on_c, 0, 56, 47
2, 83840, Note_on_c, 0, 60, 47
2, 83919, Note_on_c, 0, 60, 0
2, 83919, Note_on_c, 0, 56, 0
2, 83919, Note_on_c, 0, 53, 47
2, 84000, Note_on_c, 0, 53, 0
2, 84000, Note_on_c, 0, 56, 47
2, 84000, Note_on_c, 0, 60, 47
2, 84080, Note_on_c, 0, 60, 0
2, 84080, Note_on_c, 0, 56, 0
2, 84080, Note_on_c, 0, 53, 47
2, 84159, Note_on_c, 0, 53, 0
2, 84159, Note_on_c, 0, 56, 47
2, 84159, Note_on_c, 0, 60, 47
2, 84240, Note_on_c, 0, 60, 0
2, 84240, Note_on_c, 0, 56, 0
2, 84240, Note_on_c, 0, 53, 47
2, 84320, Note_on_c, 0, 53, 0
2, 84320, Note_on_c, 0, 56, 47
2, 84320, Note_on_c, 0, 60, 47
2, 84399, Note_on_c, 0, 60, 0
2, 84399, Note_on_c, 0, 56, 0
2, 84399, Note_on_c, 0, 53, 47
2, 84480, Note_on_c, 0, 53, 0
2, 84480, Note_on_c, 0, 56, 47
2, 84480, Note_on_c, 0, 60, 47
2, 84560, Note_on_c, 0, 60, 0
2, 84560, Note_on_c, 0, 56, 0
2, 84560, Note_on_c, 0, 53, 47
2, 84639, Note_on_c, 0, 53, 0
2, 84639, Note_on_c, 0, 56, 47
2, 84639, Note_on_c, 0, 60, 47
2, 84720, Note_on_c, 0, 60, 0
2, 84720, Note_on_c, 0, 56, 0
2, 84720, Note_on_c, 0, 53, 47
2, 84800, Note_on_c, 0, 53, 0
2, 84800, Note_on_c, 0, 56, 47
2, 84800, Note_on_c, 0, 60, 47
2, 84879, Note_on_c, 0, 60, 0
2, 84879, Note_on_c, 0, 56, 0
2, 84879, Note_on_c, 0, 53, 47
2, 84960, Note_on_c, 0, 53, 0
2, 84960, Note_on_c, 0, 56, 47
2, 84960, Note_on_c, 0, 60, 47
2, 85040, Note_on_c, 0, 60, 0
2, 85040, Note_on_c, 0, 56, 0
2, 85040, Note_on_c, 0, 53, 47
2, 85119, Note_on_c, 0, 53, 0
2, 85119, Note_on_c, 0, 56, 47
2, 85119, Note_on_c, 0, 60, 47
2, 85200, Note_on_c, 0, 60, 0
2, 85200, Note_on_c, 0, 56, 0
2, 85200, Note_on_c, 0, 53, 47
2, 85280, Note_on_c, 0, 53, 0
2, 85280, Note_on_c, 0, 56, 47
2, 85280, Note_on_c, 0, 60, 47
2, 85359, Note_on_c, 0, 60, 0
2, 85359, Note_on_c, 0, 56, 0
2, 85359, Note_on_c, 0, 53, 47
2, 85440, Note_on_c, 0, 53, 0
2, 85440, Note_on_c, 0, 56, 47
2, 85440, Note_on_c, 0, 60, 47
2, 85520, Note_on_c, 0, 60, 0
2, 85520, Note_on_c, 0, 56, 0
2, 85520, Note_on_c, 0, 53, 47
2, 85599, Note_on_c, 0, 53, 0
2, 85599, Note_on_c, 0, 56, 47
2, 85599, Note_on_c, 0, 60, 47
2, 85680, Note_on_c, 0, 60, 0
2, 85680, Note_on_c, 0, 56, 0
2, 85680, Note_on_c, 0, 53, 47
2, 85760, Note_on_c, 0, 53, 0
2, 85760, Note_on_c, 0, 56, 47
2, 85760, Note_on_c, 0, 60, 47
2, 85839, Note_on_c, 0, 60, 0
2, 85839, Note_on_c, 0, 56, 0
2, 85839, Note_on_c, 0, 53, 47
2, 85920, Note_on_c, 0, 53, 0
2, 85920, Note_on_c, 0, 56, 47
2, 85920, Note_on_c, 0, 60, 47
2, 86000, Note_on_c, 0, 60, 0
2, 86000, Note_on_c, 0, 56, 0
2, 86000, Note_on_c, 0, 53, 47
2, 86079, Note_on_c, 0, 53, 0
2, 86079, Note_on_c, 0, 56, 47
2, 86079, Note_on_c, 0, 60, 47
2, 86160, Note_on_c, 0, 60, 0
2, 86160, Note_on_c, 0, 56, 0
2, 86160, Note_on_c, 0, 53, 47
2, 86240, Note_on_c, 0, 53, 0
2, 86240, Note_on_c, 0, 56, 47
2, 86240, Note_on_c, 0, 60, 47
2, 86319, Note_on_c, 0, 60, 0
2, 86319, Note_on_c, 0, 56, 0
2, 86319, Control_c, 0, 64, 0
2, 86319, Note_on_c, 0, 53, 47
2, 86400, Note_on_c, 0, 53, 0
2, 86400, Note_on_c, 0, 72, 86
2, 86400, Note_on_c, 0, 84, 86
2, 87360, Note_on_c, 0, 84, 0
2, 87360, Note_on_c, 0, 72, 0
2, 87360, Control_c, 0, 64, 127
2, 87360, Note_on_c, 0, 65, 86
2, 87360, Note_on_c, 0, 77, 86
2, 87600, Note_on_c, 0, 77, 0
2, 87600, Note_on_c, 0, 65, 0
2, 87600, Note_on_c, 0, 67, 86
2, 87600, Note_on_c, 0, 79, 86
2, 87840, Note_on_c, 0, 79, 0
2, 87840, Note_on_c, 0, 67, 0
2, 87840, Note_on_c, 0, 68, 86
2, 87840, Note_on_c, 0, 80, 86
2, 88080, Note_on_c, 0, 80, 0
2, 88080, Note_on_c, 0, 68, 0
2, 88080, Control_c, 0, 64, 0
2, 88080, Note_on_c, 0, 70, 86
2, 88080, Note_on_c, 0, 82, 86
2, 88320, Note_on_c, 0, 82, 0
2, 88320, Note_on_c, 0, 70, 0
2, 88320, Note_on_c, 0, 72, 86
2, 88320, Note_on_c, 0, 84, 86
2, 89040, Note_on_c, 0, 84, 0
2, 89040, Note_on_c, 0, 72, 0
2, 89040, Note_on_c, 0, 68, 86
2, 89040, Note_on_c, 0, 80, 86
2, 89280, Note_on_c, 0, 80, 0
2, 89280, Note_on_c, 0, 68, 0
2, 89280, Note_on_c, 0, 72, 86
2, 89280, Note_on_c, 0, 84, 86
2, 90000, Note_on_c, 0, 84, 0
2, 90000, Note_on_c, 0, 72, 0
2, 90000, Note_on_c, 0, 68, 86
2, 90000, Note_on_c, 0, 80, 86
2, 90240, Note_on_c, 0, 80, 0
2, 90240, Note_on_c, 0, 68, 0
2, 90240, Note_on_c, 0, 72, 86
2, 90240, Note_on_c, 0, 84, 86
2, 90960, Note_on_c, 0, 84, 0
2, 90960, Note_on_c, 0, 72, 0
2, 90960, Note_on_c, 0, 65, 86
2, 90960, Note_on_c, 0, 77, 86
2, 91200, Note_on_c, 0, 77, 0
2, 91200, Note_on_c, 0, 65, 0
2, 91200, Control_c, 0, 64, 127
2, 91200, Note_on_c, 0, 68, 86
2, 91200, Note_on_c, 0, 80, 86
2, 91440, Note_on_c, 0, 80, 0
2, 91440, Note_on_c, 0, 68, 0
2, 91440, Note_on_c, 0, 65, 86
2, 91440, Note_on_c, 0, 77, 86
2, 91680, Note_on_c, 0, 77, 0
2, 91680, Note_on_c, 0, 65, 0
2, 91680, Note_on_c, 0, 73, 86
2, 91920, Note_on_c, 0, 73, 0
2, 91920, Control_c, 0, 64, 0
2, 91920, Note_on_c, 0, 68, 86
2, 91920, Note_on_c, 0, 80, 86
2, 92160, Note_on_c, 0, 80, 0
2, 92160, Note_on_c, 0, 68, 0
2, 92160, Note_on_c, 0, 65, 86
2, 92160, Note_on_c, 0, 77, 86
2, 92400, Note_on_c, 0, 77, 0
2, 92400, Note_on_c, 0, 65, 0
2, 92400, Note_on_c, 0, 65, 86
2, 92400, Note_on_c, 0, 68, 86
2, 92400, Note_on_c, 0, 72, 86
2, 92640, Note_on_c, 0, 72, 0
2, 92640, Note_on_c, 0, 68, 0
2, 92640, Note_on_c, 0, 65, 0
2, 92640, Note_on_c, 0, 65, 86
2, 92640, Note_on_c, 0, 68, 86
2, 92640, Note_on_c, 0, 72, 86
2, 92640, Note_on_c, 0, 74, 86
2, 92880, Note_on_c, 0, 74, 0
2, 92880, Note_on_c, 0, 65, 0
2, 92880, Note_on_c, 0, 68, 0
2, 92880, Note_on_c, 0, 72, 0
2, 92880, Note_on_c, 0, 65, 86
2, 92880, Note_on_c, 0, 68, 86
2, 92880, Note_on_c, 0, 72, 86
2, 92880, Note_on_c, 0, 76, 86
2, 93120, Note_on_c, 0, 76, 0
2, 93120, Note_on_c, 0, 65, 0
2, 93120, Note_on_c, 0, 68, 0
2, 93120, Note_on_c, 0, 72, 0
2, 93120, Note_on_c, 0, 65, 86
2, 93120, Note_on_c, 0, 68, 86
2, 93120, Note_on_c, 0, 72, 86
2, 93120, Note_on_c, 0, 77, 86
2, 93360, Note_on_c, 0, 77, 0
2, 93360, Note_on_c, 0, 65, 0
2, 93360, Note_on_c, 0, 68, 0
2, 93360, Note_on_c, 0, 72, 0
2, 93360, Note_on_c, 0, 65, 86
2, 93360, Note_on_c, 0, 68, 86
2, 93360, Note_on_c, 0, 72, 86
2, 93360, Note_on_c, 0, 75, 86
2, 93600, Note_on_c, 0, 75, 0
2, 93600, Note_on_c, 0, 65, 0
2, 93600, Note_on_c, 0, 68, 0
2, 93600, Note_on_c, 0, 72, 0
2, 93600, Note_on_c, 0, 65, 86
2, 93600, Note_on_c, 0, 68, 86
2, 93600, Note_on_c, 0, 72, 86
2, 93600, Note_on_c, 0, 73, 86
2, 93840, Note_on_c, 0, 73, 0
2, 93840, Note_on_c, 0, 65, 0
2, 93840, Note_on_c, 0, 68, 0
2, 93840, Note_on_c, 0, 72, 0
2, 93840, Note_on_c, 0, 65, 86
2, 93840, Note_on_c, 0, 68, 86
2, 93840, Note_on_c, 0, 72, 86
2, 94080, Note_on_c, 0, 72, 0
2, 94080, Note_on_c, 0, 68, 0
2, 94080, Note_on_c, 0, 65, 0
2, 94080, Note_on_c, 0, 72, 86
2, 94080, Note_on_c, 0, 84, 86
2, 95040, Note_on_c, 0, 84, 0
2, 95040, Note_on_c, 0, 72, 0
2, 95040, Control_c, 0, 64, 127
2, 95040, Note_on_c, 0, 65, 86
2, 95040, Note_on_c, 0, 77, 86
2, 95280, Note_on_c, 0, 77, 0
2, 95280, Note_on_c, 0, 65, 0
2, 95280, Note_on_c, 0, 67, 86
2, 95280, Note_on_c, 0, 79, 86
2, 95520, Note_on_c, 0, 79, 0
2, 95520, Note_on_c, 0, 67, 0
2, 95520, Note_on_c, 0, 68, 86
2, 95520, Note_on_c, 0, 80, 86
2, 95760, Note_on_c, 0, 80, 0
2, 95760, Note_on_c, 0, 68, 0
2, 95760, Control_c, 0, 64, 0
2, 95760, Note_on_c, 0, 70, 86
2, 95760, Note_on_c, 0, 82, 86
2, 96000, Note_on_c, 0, 82, 0
2, 96000, Note_on_c, 0, 70, 0
2, 96000, Note_on_c, 0, 72, 86
2, 96000, Note_on_c, 0, 84, 86
2, 96720, Note_on_c, 0, 84, 0
2, 96720, Note_on_c, 0, 72, 0
2, 96720, Note_on_c, 0, 68, 86
2, 96720, Note_on_c, 0, 80, 86
2, 96960, Note_on_c, 0, 80, 0
2, 96960, Note_on_c, 0, 68, 0
2, 96960, Note_on_c, 0, 72, 86
2, 96960, Note_on_c, 0, 84, 86
2, 97680, Note_on_c, 0, 84, 0
2, 97680, Note_on_c, 0, 72, 0
2, 97680, Note_on_c, 0, 68, 86
2, 97680, Note_on_c, 0, 80, 86
2, 97920, Note_on_c, 0, 80, 0
2, 97920, Note_on_c, 0, 68, 0
2, 97920, Note_on_c, 0, 72, 86
2, 97920, Note_on_c, 0, 84, 86
2, 98640, Note_on_c, 0, 84, 0
2, 98640, Note_on_c, 0, 72, 0
2, 98640, Note_on_c, 0, 65, 86
2, 98640, Note_on_c, 0, 77, 86
2, 98880, Note_on_c, 0, 77, 0
2, 98880, Note_on_c, 0, 65, 0
2, 98880, Control_c, 0, 64, 127
2, 98880, Note_on_c, 0, 68, 86
2, 98880, Note_on_c, 0, 80, 86
2, 99120, Note_on_c, 0, 80, 0
2, 99120, Note_on_c, 0, 68, 0
2, 99120, Note_on_c, 0, 65, 86
2, 99120, Note_on_c, 0, 77, 86
2, 99360, Note_on_c, 0, 77, 0
2, 99360, Note_on_c, 0, 65, 0
2, 99360, Note_on_c, 0, 73, 86
2, 99600, Note_on_c, 0, 73, 0
2, 99600, Control_c, 0, 64, 0
2, 99600, Note_on_c, 0, 68, 86
2, 99600, Note_on_c, 0, 80, 86
2, 99840, Note_on_c, 0, 80, 0
2, 99840, Note_on_c, 0, 68, 0
2, 99840, Note_on_c, 0, 65, 86
2, 99840, Note_on_c, 0, 77, 86
2, 100080, Note_on_c, 0, 77, 0
2, 100080, Note_on_c, 0, 65, 0
2, 100080, Note_on_c, 0, 65, 86
2, 100080, Note_on_c, 0, 68, 86
2, 100080, Note_on_c, 0, 72, 86
2, 100320, Note_on_c, 0, 72, 0
2, 100320, Note_on_c, 0, 68, 0
2, 100320, Note_on_c, 0, 65, 0
2, 100320, Note_on_c, 0, 65, 86
2, 100320, Note_on_c, 0, 68, 86
2, 100320, Note_on_c, 0, 72, 86
2, 100320, Note_on_c, 0, 74, 86
2, 100560, Note_on_c, 0, 74, 0
2, 100560, Note_on_c, 0, 65, 0
2, 100560, Note_on_c, 0, 68, 0
2, 100560, Note_on_c, 0, 72, 0
2, 100560, Note_on_c, 0, 65, 86
2, 100560, Note_on_c, 0, 68, 86
2, 100560, Note_on_c, 0, 72, 86
2, 100560, Note_on_c, 0, 76, 86
2, 100800, Note_on_c, 0, 76, 0
2, 100800, Note_on_c, 0, 65, 0
2, 100800, Note_on_c, 0, 68, 0
2, 100800, Note_on_c, 0, 72, 0
2, 100800, Note_on_c, 0, 65, 86
2, 100800, Note_on_c, 0, 68, 86
2, 100800, Note_on_c, 0, 72, 86
2, 100800, Note_on_c, 0, 77, 86
2, 101040, Note_on_c, 0, 77, 0
2, 101040, Note_on_c, 0, 65, 0
2, 101040, Note_on_c, 0, 68, 0
2, 101040, Note_on_c, 0, 72, 0
2, 101040, Note_on_c, 0, 65, 86
2, 101040, Note_on_c, 0, 68, 86
2, 101040, Note_on_c, 0, 72, 86
2, 101040, Note_on_c, 0, 75, 86
2, 101280, Note_on_c, 0, 75, 0
2, 101280, Note_on_c, 0, 65, 0
2, 101280, Note_on_c, 0, 68, 0
2, 101280, Note_on_c, 0, 72, 0
2, 101280, Note_on_c, 0, 65, 86
2, 101280, Note_on_c, 0, 68, 86
2, 101280, Note_on_c, 0, 72, 86
2, 101280, Note_on_c, 0, 73, 86
2, 101520, Note_on_c, 0, 73, 0
2, 101520, Note_on_c, 0, 65, 0
2, 101520, Note_on_c, 0, 68, 0
2, 101520, Note_on_c, 0, 72, 0
2, 101520, Note_on_c, 0, 65, 86
2, 101520, Note_on_c, 0, 68, 86
2, 101520, Note_on_c, 0, 72, 86
2, 101760, Note_on_c, 0, 72, 0
2, 101760, Note_on_c, 0, 68, 0
2, 101760, Note_on_c, 0, 65, 0
2, 101760, Note_on_c, 0, 75, 86
2, 101760, Note_on_c, 0, 87, 86
2, 102720, Note_on_c, 0, 87, 0
2, 102720, Note_on_c, 0, 75, 0
2, 102720, Control_c, 0, 64, 127
2, 102720, Note_on_c, 0, 68, 86
2, 102720, Note_on_c, 0, 80, 86
2, 102960, Note_on_c, 0, 80, 0
2, 102960, Note_on_c, 0, 68, 0
2, 102960, Note_on_c, 0, 70, 86
2, 102960, Note_on_c, 0, 82, 86
2, 103200, Note_on_c, 0, 82, 0
2, 103200, Note_on_c, 0, 70, 0
2, 103200, Note_on_c, 0, 72, 86
2, 103200, Note_on_c, 0, 84, 86
2, 103440, Note_on_c, 0, 84, 0
2, 103440, Note_on_c, 0, 72, 0
2, 103440, Control_c, 0, 64, 0
2, 103440, Note_on_c, 0, 73, 86
2, 103440, Note_on_c, 0, 85, 86
2, 103680, Note_on_c, 0, 85, 0
2, 103680, Note_on_c, 0, 73, 0
2, 103680, Note_on_c, 0, 75, 86
2, 103680, Note_on_c, 0, 87, 86
2, 104400, Note_on_c, 0, 87, 0
2, 104400, Note_on_c, 0, 75, 0
2, 104400, Note_on_c, 0, 72, 86
2, 104400, Note_on_c, 0, 84, 86
2, 104640, Note_on_c, 0, 84, 0
2, 104640, Note_on_c, 0, 72, 0
2, 104640, Note_on_c, 0, 75, 86
2, 104640, Note_on_c, 0, 87, 86
2, 105360, Note_on_c, 0, 87, 0
2, 105360, Note_on_c, 0, 75, 0
2, 105360, Note_on_c, 0, 72, 86
2, 105360, Note_on_c, 0, 84, 86
2, 105600, Note_on_c, 0, 84, 0
2, 105600, Note_on_c, 0, 72, 0
2, 105600, Note_on_c, 0, 77, 86
2, 105600, Note_on_c, 0, 89, 86
2, 106560, Note_on_c, 0, 89, 0
2, 106560, Note_on_c, 0, 77, 0
2, 106560, Control_c, 0, 64, 127
2, 106560, Note_on_c, 0, 71, 86
2, 106560, Note_on_c, 0, 83, 86
2, 106800, Note_on_c, 0, 83, 0
2, 106800, Note_on_c, 0, 71, 0
2, 106800, Note_on_c, 0, 73, 86
2, 106800, Note_on_c, 0, 85, 86
2, 107040, Note_on_c, 0, 85, 0
2, 107040, Note_on_c, 0, 73, 0
2, 107040, Note_on_c, 0, 74, 86
2, 107040, Note_on_c, 0, 86, 86
2, 107280, Note_on_c, 0, 86, 0
2, 107280, Note_on_c, 0, 74, 0
2, 107280, Control_c, 0, 64, 0
2, 107280, Note_on_c, 0, 76, 86
2, 107280, Note_on_c, 0, 88, 86
2, 107520, Note_on_c, 0, 88, 0
2, 107520, Note_on_c, 0, 76, 0
2, 107520, Note_on_c, 0, 77, 86
2, 107520, Note_on_c, 0, 89, 86
2, 108240, Note_on_c, 0, 89, 0
2, 108240, Note_on_c, 0, 77, 0
2, 108240, Note_on_c, 0, 74, 86
2, 108240, Note_on_c, 0, 86, 86
2, 108480, Note_on_c, 0, 86, 0
2, 108480, Note_on_c, 0, 74, 0
2, 108480, Note_on_c, 0, 77, 86
2, 108480, Note_on_c, 0, 89, 86
2, 109200, Note_on_c, 0, 89, 0
2, 109200, Note_on_c, 0, 77, 0
2, 109200, Note_on_c, 0, 74, 86
2, 109200, Note_on_c, 0, 86, 86
2, 109440, Note_on_c, 0, 86, 0
2, 109440, Note_on_c, 0, 74, 0
2, 109440, Note_on_c, 0, 77, 86
2, 109440, Note_on_c, 0, 89, 86
2, 109680, Note_on_c, 0, 89, 0
2, 109680, Note_on_c, 0, 77, 0
2, 109680, Control_c, 0, 64, 127
2, 109680, Note_on_c, 0, 56, 60
2, 109800, Note_on_c, 0, 56, 0
2, 109800, Note_on_c, 0, 53, 60
2, 109920, Note_on_c, 0, 53, 0
2, 109920, Note_on_c, 0, 56, 60
2, 109920, Note_on_c, 0, 60, 60
2, 110040, Note_on_c, 0, 60, 0
2, 110040, Note_on_c, 0, 56, 0
2, 110040, Note_on_c, 0, 53, 60
2, 110160, Note_on_c, 0, 53, 0
2, 110160, Note_on_c, 0, 60, 73
2, 110160, Note_on_c, 0, 65, 73
2, 110280, Note_on_c, 0, 65, 0
2, 110280, Note_on_c, 0, 60, 0
2, 110280, Note_on_c, 0, 56, 73
2, 110400, Note_on_c, 0, 56, 0
2, 110400, Note_on_c, 0, 65, 73
2, 110400, Note_on_c, 0, 68, 73
2, 110520, Note_on_c, 0, 68, 0
2, 110520, Note_on_c, 0, 65, 0
2, 110520, Note_on_c, 0, 60, 73
2, 110640, Note_on_c, 0, 60, 0
2, 110640, Note_on_c, 0, 68, 86
2, 110640, Note_on_c, 0, 72, 86
2, 110760, Note_on_c, 0, 72, 0
2, 110760, Note_on_c, 0, 68, 0
2, 110760, Note_on_c, 0, 65, 86
2, 110880, Note_on_c, 0, 65, 0
2, 110880, Note_on_c, 0, 72, 86
2, 110880, Note_on_c, 0, 77, 86
2, 111000, Note_on_c, 0, 77, 0
2, 111000, Note_on_c, 0, 72, 0
2, 111000, Note_on_c, 0, 68, 86
2, 111120, Note_on_c, 0, 68, 0
2, 111120, Note_on_c, 0, 77, 86
2, 111120, Note_on_c, 0, 80, 86
2, 111240, Note_on_c, 0, 80, 0
2, 111240, Note_on_c, 0, 77, 0
2, 111240, Control_c, 0, 64, 0
2, 111240, Note_on_c, 0, 72, 86
2, 111360, Note_on_c, 0, 72, 0
2, 111360, Note_on_c, 0, 72, 86
2, 111360, Note_on_c, 0, 77, 86
2, 111360, Note_on_c, 0, 80, 86
2, 111360, Note_on_c, 0, 84, 86
2, 111600, Note_on_c, 0, 84, 0
2, 111600, Note_on_c, 0, 72, 0
2, 111600, Note_on_c, 0, 77, 0
2, 111600, Note_on_c, 0, 80, 0
2, 111840, Note_on_c, 0, 72, 86
2, 111840, Note_on_c, 0, 76, 86
2, 111840, Note_on_c, 0, 79, 86
2, 111840, Note_on_c, 0, 84, 86
2, 112080, Note_on_c, 0, 84, 0
2, 112080, Note_on_c, 0, 72, 0
2, 112080, Note_on_c, 0, 76, 0
2, 112080, Note_on_c, 0, 79, 0
2, 112800, Note_on_c, 0, 72, 86
2, 112800, Note_on_c, 0, 79, 86
2, 112800, Note_on_c, 0, 82, 86
2, 112800, Note_on_c, 0, 84, 86
2, 113280, Note_on_c, 0, 84, 0
2, 113280, Note_on_c, 0, 72, 0
2, 113280, Note_on_c, 0, 79, 0
2, 113280, Note_on_c, 0, 82, 0
2, 113280, Note_on_c, 0, 73, 86
2, 113280, Note_on_c, 0, 79, 86
2, 113280, Note_on_c, 0, 82, 86
2, 113280, Note_on_c, 0, 85, 86
2, 113760, Note_on_c, 0, 85, 0
2, 113760, Note_on_c, 0, 73, 0
2, 113760, Note_on_c, 0, 79, 0
2, 113760, Note_on_c, 0, 82, 0
2, 113760, Note_on_c, 0, 74, 86
2, 113760, Note_on_c, 0, 79, 86
2, 113760, Note_on_c, 0, 82, 86
2, 113760, Note_on_c, 0, 86, 86
2, 114240, Note_on_c, 0, 86, 0
2, 114240, Note_on_c, 0, 74, 0
2, 114240, Note_on_c, 0, 79, 0
2, 114240, Note_on_c, 0, 82, 0
2, 114240, Note_on_c, 0, 75, 86
2, 114240, Note_on_c, 0, 79, 86
2, 114240, Note_on_c, 0, 82, 86
2, 114240, Note_on_c, 0, 87, 86
2, 114720, Note_on_c, 0, 87, 0
2, 114720, Note_on_c, 0, 75, 0
2, 114720, Note_on_c, 0, 79, 0
2, 114720, Note_on_c, 0, 82, 0
2, 114720, Note_on_c, 0, 76, 112
2, 114720, Note_on_c, 0, 79, 112
2, 114720, Note_on_c, 0, 82, 112
2, 114720, Note_on_c, 0, 88, 112
2, 115200, Note_on_c, 0, 88, 0
2, 115200, Note_on_c, 0, 76, 0
2, 115200, Note_on_c, 0, 79, 0
2, 115200, Note_on_c, 0, 82, 0
2, 115200, Control_c, 0, 64, 127
2, 116640, Control_c, 0, 64, 0
2, 116640, End_track
3, 0, Start_track
3, 0, Title_t, "Grand Piano"
3, 0, Program_c, 0, 0
3, 0, Control_c, 0, 7, 115
3, 0, Control_c, 0, 10, 80
3, 3780, Note_on_c, 0, 65, 64
3, 3840, Note_on_c, 0, 73, 62
3, 4800, Note_on_c, 0, 73, 0
3, 4800, Note_on_c, 0, 65, 0
3, 4800, Note_on_c, 0, 65, 62
3, 4800, Note_on_c, 0, 68, 62
3, 5700, Note_on_c, 0, 64, 62
3, 5760, Note_on_c, 0, 68, 0
3, 5760, Note_on_c, 0, 65, 0
3, 5760, Note_on_c, 0, 67, 62
3, 6720, Note_on_c, 0, 67, 0
3, 6720, Note_on_c, 0, 64, 0
3, 6720, Note_on_c, 0, 65, 62
3, 7680, Note_on_c, 0, 65, 0
3, 7680, Note_on_c, 0, 65, 62
3, 8640, Note_on_c, 0, 65, 0
3, 8640, Note_on_c, 0, 68, 62
3, 9600, Note_on_c, 0, 68, 0
3, 9600, Note_on_c, 0, 70, 62
3, 9600, Note_on_c, 0, 73, 62
3, 10560, Note_on_c, 0, 73, 0
3, 10560, Note_on_c, 0, 70, 0
3, 10560, Note_on_c, 0, 69, 62
3, 10560, Note_on_c, 0, 72, 62
3, 10560, Note_on_c, 0, 75, 62
3, 11040, Note_on_c, 0, 75, 0
3, 11040, Note_on_c, 0, 72, 0
3, 11040, Note_on_c, 0, 69, 0
3, 11040, Note_on_c, 0, 70, 62
3, 11040, Note_on_c, 0, 73, 62
3, 11520, Note_on_c, 0, 73, 0
3, 11520, Note_on_c, 0, 70, 0
3, 11520, Note_on_c, 0, 61, 62
3, 11520, Note_on_c, 0, 63, 62
3, 12480, Note_on_c, 0, 63, 0
3, 12480, Note_on_c, 0, 61, 0
3, 12480, Note_on_c, 0, 60, 62
3, 12480, Note_on_c, 0, 63, 62
3, 13440, Note_on_c, 0, 63, 0
3, 13440, Note_on_c, 0, 60, 0
3, 13440, Note_on_c, 0, 73, 62
3, 13440, Note_on_c, 0, 82, 62
3, 14400, Note_on_c, 0, 82, 0
3, 14400, Note_on_c, 0, 73, 0
3, 14400, Note_on_c, 0, 73, 62
3, 14400, Note_on_c, 0, 80, 62
3, 15300, Note_on_c, 0, 68, 62
3, 15360, Note_on_c, 0, 80, 0
3, 15360, Note_on_c, 0, 73, 0
3, 15360, Note_on_c, 0, 75, 62
3, 15600, Note_on_c, 0, 75, 0
3, 15600, Note_on_c, 0, 68, 0
3, 15600, Note_on_c, 0, 70, 62
3, 16080, Note_on_c, 0, 70, 0
3, 16080, Note_on_c, 0, 71, 75
3, 16560, Note_on_c, 0, 71, 0
3, 16560, Note_on_c, 0, 72, 75
3, 17040, Note_on_c, 0, 72, 0
3, 17040, Note_on_c, 0, 73, 75
3, 17520, Note_on_c, 0, 73, 0
3, 17520, Note_on_c, 0, 72, 75
3, 18000, Note_on_c, 0, 72, 0
3, 18000, Note_on_c, 0, 70, 75
3, 18480, Note_on_c, 0, 70, 0
3, 18480, Note_on_c, 0, 67, 62
3, 18960, Note_on_c, 0, 67, 0
3, 18960, Note_on_c, 0, 68, 62
3, 19140, Note_on_c, 0, 65, 62
3, 19200, Note_on_c, 0, 68, 0
3, 19200, Note_on_c, 0, 73, 62
3, 20160, Note_on_c, 0, 73, 0
3, 20160, Note_on_c, 0, 65, 0
3, 20160, Note_on_c, 0, 65, 62
3, 20160, Note_on_c, 0, 68, 62
3, 21060, Note_on_c, 0, 64, 62
3, 21120, Note_on_c, 0, 68, 0
3, 21120, Note_on_c, 0, 65, 0
3, 21120, Note_on_c, 0, 67, 62
3, 22080, Note_on_c, 0, 67, 0
3, 22080, Note_on_c, 0, 64, 0
3, 22080, Note_on_c, 0, 65, 62
3, 23040, Note_on_c, 0, 65, 0
3, 23040, Note_on_c, 0, 65, 62
3, 24000, Note_on_c, 0, 65, 0
3, 24000, Note_on_c, 0, 68, 62
3, 24960, Note_on_c, 0, 68, 0
3, 24960, Note_on_c, 0, 70, 62
3, 24960, Note_on_c, 0, 73, 62
3, 25920, Note_on_c, 0, 73, 0
3, 25920, Note_on_c, 0, 70, 0
3, 25920, Note_on_c, 0, 69, 62
3, 25920, Note_on_c, 0, 72, 62
3, 25920, Note_on_c, 0, 75, 62
3, 26400, Note_on_c, 0, 75, 0
3, 26400, Note_on_c, 0, 72, 0
3, 26400, Note_on_c, 0, 69, 0
3, 26400, Note_on_c, 0, 70, 62
3, 26400, Note_on_c, 0, 73, 62
3, 26880, Note_on_c, 0, 73, 0
3, 26880, Note_on_c, 0, 70, 0
3, 26880, Note_on_c, 0, 61, 62
3, 26880, Note_on_c, 0, 63, 62
3, 27840, Note_on_c, 0, 63, 0
3, 27840, Note_on_c, 0, 61, 0
3, 27840, Note_on_c, 0, 60, 62
3, 27840, Note_on_c, 0, 63, 62
3, 28800, Note_on_c, 0, 63, 0
3, 28800, Note_on_c, 0, 60, 0
3, 28800, Note_on_c, 0, 73, 62
3, 28800, Note_on_c, 0, 82, 62
3, 29760, Note_on_c, 0, 82, 0
3, 29760, Note_on_c, 0, 73, 0
3, 29760, Note_on_c, 0, 73, 62
3, 29760, Note_on_c, 0, 80, 62
3, 30660, Note_on_c, 0, 68, 62
3, 30720, Note_on_c, 0, 80, 0
3, 30720, Note_on_c, 0, 73, 0
3, 30720, Note_on_c, 0, 75, 62
3, 30960, Note_on_c, 0, 75, 0
3, 30960, Note_on_c, 0, 68, 0
3, 30960, Note_on_c, 0, 70, 62
3, 31440, Note_on_c, 0, 70, 0
3, 31440, Note_on_c, 0, 71, 75
3, 31920, Note_on_c, 0, 71, 0
3, 31920, Note_on_c, 0, 72, 75
3, 32400, Note_on_c, 0, 72, 0
3, 32400, Note_on_c, 0, 73, 75
3, 32880, Note_on_c, 0, 73, 0
3, 32880, Note_on_c, 0, 72, 75
3, 33360, Note_on_c, 0, 72, 0
3, 33360, Note_on_c, 0, 70, 75
3, 33840, Note_on_c, 0, 70, 0
3, 33840, Note_on_c, 0, 67, 62
3, 34320, Note_on_c, 0, 67, 0
3, 34320, Note_on_c, 0, 68, 62
3, 34560, Note_on_c, 0, 68, 0
3, 34560, Note_on_c, 0, 63, 75
3, 34560, Note_on_c, 0, 68, 75
3, 35520, Note_on_c, 0, 68, 0
3, 35520, Note_on_c, 0, 63, 0
3, 35520, Note_on_c, 0, 68, 75
3, 36960, Note_on_c, 0, 68, 0
3, 36960, Note_on_c, 0, 66, 75
3, 37440, Note_on_c, 0, 66, 0
3, 37440, Note_on_c, 0, 65, 75
3, 38400, Note_on_c, 0, 65, 0
3, 38400, Note_on_c, 0, 63, 75
3, 38400, Note_on_c, 0, 68, 75
3, 39360, Note_on_c, 0, 68, 0
3, 39360, Note_on_c, 0, 63, 0
3, 39360, Note_on_c, 0, 68, 75
3, 40320, Note_on_c, 0, 68, 0
3, 40320, Note_on_c, 0, 67, 75
3, 41280, Note_on_c, 0, 67, 0
3, 41280, Note_on_c, 0, 60, 75
3, 41280, Note_on_c, 0, 63, 75
3, 42240, Note_on_c, 0, 63, 0
3, 42240, Note_on_c, 0, 60, 0
3, 42240, Note_on_c, 0, 67, 75
3, 43200, Note_on_c, 0, 67, 0
3, 43200, Note_on_c, 0, 68, 75
3, 43200, Note_on_c, 0, 72, 75
3, 44160, Note_on_c, 0, 72, 0
3, 44160, Note_on_c, 0, 68, 0
3, 46080, Note_on_c, 0, 67, 75
3, 47040, Note_on_c, 0, 67, 0
3, 47040, Note_on_c, 0, 68, 75
3, 47040, Note_on_c, 0, 72, 75
3, 48000, Note_on_c, 0, 72, 0
3, 48000, Note_on_c, 0, 68, 0
3, 49920, Note_on_c, 0, 70, 75
3, 50880, Note_on_c, 0, 70, 0
3, 50880, Note_on_c, 0, 72, 75
3, 51840, Note_on_c, 0, 72, 0
3, 53760, Note_on_c, 0, 70, 75
3, 54720, Note_on_c, 0, 70, 0
3, 54720, Note_on_c, 0, 72, 75
3, 55680, Note_on_c, 0, 72, 0
3, 55680, End_track
4, 0, Start_track
4, 0, Title_t, "Grand Piano"
4, 0, Program_c, 0, 0
4, 0, Control_c, 0, 7, 115
4, 0, Control_c, 0, 10, 41
4, 3840, Note_on_c, 0, 49, 60
4, 3887, Note_on_c, 0, 49, 0
4, 4080, Note_on_c, 0, 56, 60
4, 4127, Note_on_c, 0, 56, 0
4, 4320, Note_on_c, 0, 61, 60
4, 4367, Note_on_c, 0, 61, 0
4, 4560, Note_on_c, 0, 68, 60
4, 4607, Note_on_c, 0, 68, 0
4, 4800, Note_on_c, 0, 49, 60
4, 4847, Note_on_c, 0, 49, 0
4, 5040, Note_on_c, 0, 56, 60
4, 5087, Note_on_c, 0, 56, 0
4, 5280, Note_on_c, 0, 61, 60
4, 5327, Note_on_c, 0, 61, 0
4, 5520, Note_on_c, 0, 68, 60
4, 5567, Note_on_c, 0, 68, 0
4, 5760, Note_on_c, 0, 49, 60
4, 5807, Note_on_c, 0, 49, 0
4, 6000, Note_on_c, 0, 58, 60
4, 6047, Note_on_c, 0, 58, 0
4, 6240, Note_on_c, 0, 64, 60
4, 6287, Note_on_c, 0, 64, 0
4, 6480, Note_on_c, 0, 67, 60
4, 6527, Note_on_c, 0, 67, 0
4, 6720, Note_on_c, 0, 49, 60
4, 6767, Note_on_c, 0, 49, 0
4, 6960, Note_on_c, 0, 56, 60
4, 7007, Note_on_c, 0, 56, 0
4, 7200, Note_on_c, 0, 61, 60
4, 7247, Note_on_c, 0, 61, 0
4, 7440, Note_on_c, 0, 65, 60
4, 7487, Note_on_c, 0, 65, 0
4, 7680, Note_on_c, 0, 49, 60
4, 7727, Note_on_c, 0, 49, 0
4, 7920, Note_on_c, 0, 56, 60
4, 7967, Note_on_c, 0, 56, 0
4, 8160, Note_on_c, 0, 61, 60
4, 8207, Note_on_c, 0, 61, 0
4, 8400, Note_on_c, 0, 68, 60
4, 8447, Note_on_c, 0, 68, 0
4, 8640, Note_on_c, 0, 49, 60
4, 8687, Note_on_c, 0, 49, 0
4, 8880, Note_on_c, 0, 56, 60
4, 8927, Note_on_c, 0, 56, 0
4, 9120, Note_on_c, 0, 61, 60
4, 9167, Note_on_c, 0, 61, 0
4, 9360, Note_on_c, 0, 68, 60
4, 9407, Note_on_c, 0, 68, 0
4, 9600, Note_on_c, 0, 46, 60
4, 9647, Note_on_c, 0, 46, 0
4, 9840, Note_on_c, 0, 58, 60
4, 9887, Note_on_c, 0, 58, 0
4, 10080, Note_on_c, 0, 61, 60
4, 10127, Note_on_c, 0, 61, 0
4, 10320, Note_on_c, 0, 65, 60
4, 10367, Note_on_c, 0, 65, 0
4, 10560, Note_on_c, 0, 46, 60
4, 10607, Note_on_c, 0, 46, 0
4, 10800, Note_on_c, 0, 53, 60
4, 10847, Note_on_c, 0, 53, 0
4, 11040, Note_on_c, 0, 58, 60
4, 11087, Note_on_c, 0, 58, 0
4, 11280, Note_on_c, 0, 65, 60
4, 11327, Note_on_c, 0, 65, 0
4, 11520, Note_on_c, 0, 42, 60
4, 11567, Note_on_c, 0, 42, 0
4, 11760, Note_on_c, 0, 54, 60
4, 11807, Note_on_c, 0, 54, 0
4, 12000, Note_on_c, 0, 58, 60
4, 12047, Note_on_c, 0, 58, 0
4, 12240, Note_on_c, 0, 63, 60
4, 12287, Note_on_c, 0, 63, 0
4, 12480, Note_on_c, 0, 42, 60
4, 12527, Note_on_c, 0, 42, 0
4, 12720, Note_on_c, 0, 54, 60
4, 12767, Note_on_c, 0, 54, 0
4, 12960, Note_on_c, 0, 56, 60
4, 13007, Note_on_c, 0, 56, 0
4, 13200, Note_on_c, 0, 63, 60
4, 13247, Note_on_c, 0, 63, 0
4, 13440, Note_on_c, 0, 41, 60
4, 13487, Note_on_c, 0, 41, 0
4, 13680, Note_on_c, 0, 53, 60
4, 13727, Note_on_c, 0, 53, 0
4, 13920, Note_on_c, 0, 56, 60
4, 13967, Note_on_c, 0, 56, 0
4, 14160, Note_on_c, 0, 61, 60
4, 14207, Note_on_c, 0, 61, 0
4, 14400, Note_on_c, 0, 41, 60
4, 14447, Note_on_c, 0, 41, 0
4, 14640, Note_on_c, 0, 53, 60
4, 14687, Note_on_c, 0, 53, 0
4, 14880, Note_on_c, 0, 56, 60
4, 14927, Note_on_c, 0, 56, 0
4, 15120, Note_on_c, 0, 61, 60
4, 15167, Note_on_c, 0, 61, 0
4, 15360, Note_on_c, 0, 39, 60
4, 15407, Note_on_c, 0, 39, 0
4, 15600, Note_on_c, 0, 51, 60
4, 15647, Note_on_c, 0, 51, 0
4, 15840, Note_on_c, 0, 56, 60
4, 15887, Note_on_c, 0, 56, 0
4, 16080, Note_on_c, 0, 63, 60
4, 16127, Note_on_c, 0, 63, 0
4, 16320, Note_on_c, 0, 39, 60
4, 16367, Note_on_c, 0, 39, 0
4, 16560, Note_on_c, 0, 51, 60
4, 16607, Note_on_c, 0, 51, 0
4, 16800, Note_on_c, 0, 56, 60
4, 16847, Note_on_c, 0, 56, 0
4, 17040, Note_on_c, 0, 63, 60
4, 17087, Note_on_c, 0, 63, 0
4, 17280, Note_on_c, 0, 55, 47
4, 17280, Note_on_c, 0, 63, 47
4, 18240, Note_on_c, 0, 63, 0
4, 18240, Note_on_c, 0, 55, 0
4, 19200, Note_on_c, 0, 49, 60
4, 19247, Note_on_c, 0, 49, 0
4, 19440, Note_on_c, 0, 56, 60
4, 19487, Note_on_c, 0, 56, 0
4, 19680, Note_on_c, 0, 61, 60
4, 19727, Note_on_c, 0, 61, 0
4, 19920, Note_on_c, 0, 68, 60
4, 19967, Note_on_c, 0, 68, 0
4, 20160, Note_on_c, 0, 49, 60
4, 20207, Note_on_c, 0, 49, 0
4, 20400, Note_on_c, 0, 56, 60
4, 20447, Note_on_c, 0, 56, 0
4, 20640, Note_on_c, 0, 61, 60
4, 20687, Note_on_c, 0, 61, 0
4, 20880, Note_on_c, 0, 68, 60
4, 20927, Note_on_c, 0, 68, 0
4, 21120, Note_on_c, 0, 49, 60
4, 21167, Note_on_c, 0, 49, 0
4, 21360, Note_on_c, 0, 58, 60
4, 21407, Note_on_c, 0, 58, 0
4, 21600, Note_on_c, 0, 64, 60
4, 21647, Note_on_c, 0, 64, 0
4, 21840, Note_on_c, 0, 67, 60
4, 21887, Note_on_c, 0, 67, 0
4, 22080, Note_on_c, 0, 49, 60
4, 22127, Note_on_c, 0, 49, 0
4, 22320, Note_on_c, 0, 56, 60
4, 22367, Note_on_c, 0, 56, 0
4, 22560, Note_on_c, 0, 61, 60
4, 22607, Note_on_c, 0, 61, 0
4, 22800, Note_on_c, 0, 65, 60
4, 22847, Note_on_c, 0, 65, 0
4, 23040, Note_on_c, 0, 49, 60
4, 23087, Note_on_c, 0, 49, 0
4, 23280, Note_on_c, 0, 56, 60
4, 23327, Note_on_c, 0, 56, 0
4, 23520, Note_on_c, 0, 61, 60
4, 23567, Note_on_c, 0, 61, 0
4, 23760, Note_on_c, 0, 68, 60
4, 23807, Note_on_c, 0, 68, 0
4, 24000, Note_on_c, 0, 49, 60
4, 24047, Note_on_c, 0, 49, 0
4, 24240, Note_on_c, 0, 56, 60
4, 24287, Note_on_c, 0, 56, 0
4, 24480, Note_on_c, 0, 61, 60
4, 24527, Note_on_c, 0, 61, 0
4, 24720, Note_on_c, 0, 68, 60
4, 24767, Note_on_c, 0, 68, 0
4, 24960, Note_on_c, 0, 46, 60
4, 25007, Note_on_c, 0, 46, 0
4, 25200, Note_on_c, 0, 58, 60
4, 25247, Note_on_c, 0, 58, 0
4, 25440, Note_on_c, 0, 61, 60
4, 25487, Note_on_c, 0, 61, 0
4, 25680, Note_on_c, 0, 65, 60
4, 25727, Note_on_c, 0, 65, 0
4, 25920, Note_on_c, 0, 46, 60
4, 25967, Note_on_c, 0, 46, 0
4, 26160, Note_on_c, 0, 53, 60
4, 26207, Note_on_c, 0, 53, 0
4, 26400, Note_on_c, 0, 58, 60
4, 26447, Note_on_c, 0, 58, 0
4, 26640, Note_on_c, 0, 65, 60
4, 26687, Note_on_c, 0, 65, 0
4, 26880, Note_on_c, 0, 42, 60
4, 26927, Note_on_c, 0, 42, 0
4, 27120, Note_on_c, 0, 54, 60
4, 27167, Note_on_c, 0, 54, 0
4, 27360, Note_on_c, 0, 58, 60
4, 27407, Note_on_c, 0, 58, 0
4, 27600, Note_on_c, 0, 63, 60
4, 27647, Note_on_c, 0, 63, 0
4, 27840, Note_on_c, 0, 42, 60
4, 27887, Note_on_c, 0, 42, 0
4, 28080, Note_on_c, 0, 54, 60
4, 28127, Note_on_c, 0, 54, 0
4, 28320, Note_on_c, 0, 56, 60
4, 28367, Note_on_c, 0, 56, 0
4, 28560, Note_on_c, 0, 63, 60
4, 28607, Note_on_c, 0, 63, 0
4, 28800, Note_on_c, 0, 41, 60
4, 28847, Note_on_c, 0, 41, 0
4, 29040, Note_on_c, 0, 53, 60
4, 29087, Note_on_c, 0, 53, 0
4, 29280, Note_on_c, 0, 56, 60
4, 29327, Note_on_c, 0, 56, 0
4, 29520, Note_on_c, 0, 61, 60
4, 29567, Note_on_c, 0, 61, 0
4, 29760, Note_on_c, 0, 41, 60
4, 29807, Note_on_c, 0, 41, 0
4, 30000, Note_on_c, 0, 53, 60
4, 30047, Note_on_c, 0, 53, 0
4, 30240, Note_on_c, 0, 56, 60
4, 30287, Note_on_c, 0, 56, 0
4, 30480, Note_on_c, 0, 61, 60
4, 30527, Note_on_c, 0, 61, 0
4, 30720, Note_on_c, 0, 39, 60
4, 30767, Note_on_c, 0, 39, 0
4, 30960, Note_on_c, 0, 51, 60
4, 31007, Note_on_c, 0, 51, 0
4, 31200, Note_on_c, 0, 56, 60
4, 31247, Note_on_c, 0, 56, 0
4, 31440, Note_on_c, 0, 63, 60
4, 31487, Note_on_c, 0, 63, 0
4, 31680, Note_on_c, 0, 39, 60
4, 31727, Note_on_c, 0, 39, 0
4, 31920, Note_on_c, 0, 51, 60
4, 31967, Note_on_c, 0, 51, 0
4, 32160, Note_on_c, 0, 56, 60
4, 32207, Note_on_c, 0, 56, 0
4, 32400, Note_on_c, 0, 63, 60
4, 32447, Note_on_c, 0, 63, 0
4, 32640, Note_on_c, 0, 55, 47
4, 32640, Note_on_c, 0, 63, 47
4, 33600, Note_on_c, 0, 63, 0
4, 33600, Note_on_c, 0, 55, 0
4, 34560, Note_on_c, 0, 60, 60
4, 35520, Note_on_c, 0, 60, 0
4, 35520, Note_on_c, 0, 61, 60
4, 36480, Note_on_c, 0, 61, 0
4, 36480, Note_on_c, 0, 63, 60
4, 37440, Note_on_c, 0, 63, 0
4, 37440, Note_on_c, 0, 61, 60
4, 38400, Note_on_c, 0, 61, 0
4, 38400, Note_on_c, 0, 60, 60
4, 39360, Note_on_c, 0, 60, 0
4, 39360, Note_on_c, 0, 61, 60
4, 40320, Note_on_c, 0, 61, 0
4, 40320, Note_on_c, 0, 61, 60
4, 41280, Note_on_c, 0, 61, 0
4, 42240, Note_on_c, 0, 48, 73
4, 42240, Note_on_c, 0, 60, 73
4, 42720, Note_on_c, 0, 60, 0
4, 42720, Note_on_c, 0, 48, 0
4, 42720, Note_on_c, 0, 46, 73
4, 42720, Note_on_c, 0, 58, 73
4, 43200, Note_on_c, 0, 58, 0
4, 43200, Note_on_c, 0, 46, 0
4, 43200, Note_on_c, 0, 44, 73
4, 43200, Note_on_c, 0, 56, 73
4, 43680, Note_on_c, 0, 56, 0
4, 43680, Note_on_c, 0, 44, 0
4, 43680, Note_on_c, 0, 41, 73
4, 43680, Note_on_c, 0, 53, 73
4, 44160, Note_on_c, 0, 53, 0
4, 44160, Note_on_c, 0, 41, 0
4, 44160, Note_on_c, 0, 40, 73
4, 44160, Note_on_c, 0, 52, 73
4, 44640, Note_on_c, 0, 52, 0
4, 44640, Note_on_c, 0, 40, 0
4, 44640, Note_on_c, 0, 41, 73
4, 44640, Note_on_c, 0, 53, 73
4, 45000, Note_on_c, 0, 53, 0
4, 45000, Note_on_c, 0, 41, 0
4, 45000, Note_on_c, 0, 43, 73
4, 45000, Note_on_c, 0, 55, 73
4, 45120, Note_on_c, 0, 55, 0
4, 45120, Note_on_c, 0, 43, 0
4, 45120, Note_on_c, 0, 44, 73
4, 45120, Note_on_c, 0, 56, 73
4, 45360, Note_on_c, 0, 56, 0
4, 45360, Note_on_c, 0, 44, 0
4, 45360, Note_on_c, 0, 46, 73
4, 45360, Note_on_c, 0, 58, 73
4, 45840, Note_on_c, 0, 58, 0
4, 45840, Note_on_c, 0, 46, 0
4, 45840, Note_on_c, 0, 44, 73
4, 45840, Note_on_c, 0, 56, 73
4, 46080, Note_on_c, 0, 56, 0
4, 46080, Note_on_c, 0, 44, 0
4, 46080, Note_on_c, 0, 48, 73
4, 46080, Note_on_c, 0, 60, 73
4, 46560, Note_on_c, 0, 60, 0
4, 46560, Note_on_c, 0, 48, 0
4, 46560, Note_on_c, 0, 46, 73
4, 46560, Note_on_c, 0, 58, 73
4, 47040, Note_on_c, 0, 58, 0
4, 47040, Note_on_c, 0, 46, 0
4, 47040, Note_on_c, 0, 44, 73
4, 47040, Note_on_c, 0, 56, 73
4, 47520, Note_on_c, 0, 56, 0
4, 47520, Note_on_c, 0, 44, 0
4, 47520, Note_on_c, 0, 41, 73
4, 47520, Note_on_c, 0, 53, 73
4, 48000, Note_on_c, 0, 53, 0
4, 48000, Note_on_c, 0, 41, 0
4, 48000, Note_on_c, 0, 40, 73
4, 48000, Note_on_c, 0, 52, 73
4, 48480, Note_on_c, 0, 52, 0
4, 48480, Note_on_c, 0, 40, 0
4, 48480, Note_on_c, 0, 41, 73
4, 48480, Note_on_c, 0, 53, 73
4, 48840, Note_on_c, 0, 53, 0
4, 48840, Note_on_c, 0, 41, 0
4, 48840, Note_on_c, 0, 43, 73
4, 48840, Note_on_c, 0, 55, 73
4, 48960, Note_on_c, 0, 55, 0
4, 48960, Note_on_c, 0, 43, 0
4, 48960, Note_on_c, 0, 44, 73
4, 48960, Note_on_c, 0, 56, 73
4, 49200, Note_on_c, 0, 56, 0
4, 49200, Note_on_c, 0, 44, 0
4, 49200, Note_on_c, 0, 46, 73
4, 49200, Note_on_c, 0, 58, 73
4, 49680, Note_on_c, 0, 58, 0
4, 49680, Note_on_c, 0, 46, 0
4, 49680, Note_on_c, 0, 44, 73
4, 49680, Note_on_c, 0, 56, 73
4, 49920, Note_on_c, 0, 56, 0
4, 49920, Note_on_c, 0, 44, 0
4, 49920, Note_on_c, 0, 51, 73
4, 49920, Note_on_c, 0, 63, 73
4, 50400, Note_on_c, 0, 63, 0
4, 50400, Note_on_c, 0, 51, 0
4, 50400, Note_on_c, 0, 49, 73
4, 50400, Note_on_c, 0, 61, 73
4, 50880, Note_on_c, 0, 61, 0
4, 50880, Note_on_c, 0, 49, 0
4, 50880, Note_on_c, 0, 48, 73
4, 50880, Note_on_c, 0, 60, 73
4, 51360, Note_on_c, 0, 60, 0
4, 51360, Note_on_c, 0, 48, 0
4, 51360, Note_on_c, 0, 44, 73
4, 51360, Note_on_c, 0, 56, 73
4, 51840, Note_on_c, 0, 56, 0
4, 51840, Note_on_c, 0, 44, 0
4, 51840, Note_on_c, 0, 43, 73
4, 51840, Note_on_c, 0, 55, 73
4, 52320, Note_on_c, 0, 55, 0
4, 52320, Note_on_c, 0, 43, 0
4, 52320, Note_on_c, 0, 44, 73
4, 52320, Note_on_c, 0, 56, 73
4, 52680, Note_on_c, 0, 56, 0
4, 52680, Note_on_c, 0, 44, 0
4, 52680, Note_on_c, 0, 46, 73
4, 52680, Note_on_c, 0, 58, 73
4, 52800, Note_on_c, 0, 58, 0
4, 52800, Note_on_c, 0, 46, 0
4, 52800, Note_on_c, 0, 48, 73
4, 52800, Note_on_c, 0, 60, 73
4, 53040, Note_on_c, 0, 60, 0
4, 53040, Note_on_c, 0, 48, 0
4, 53040, Note_on_c, 0, 49, 73
4, 53040, Note_on_c, 0, 61, 73
4, 53520, Note_on_c, 0, 61, 0
4, 53520, Note_on_c, 0, 49, 0
4, 53520, Note_on_c, 0, 48, 73
4, 53520, Note_on_c, 0, 60, 73
4, 53760, Note_on_c, 0, 60, 0
4, 53760, Note_on_c, 0, 48, 0
4, 53760, Note_on_c, 0, 51, 73
4, 53760, Note_on_c, 0, 63, 73
4, 54240, Note_on_c, 0, 63, 0
4, 54240, Note_on_c, 0, 51, 0
4, 54240, Note_on_c, 0, 49, 73
4, 54240, Note_on_c, 0, 61, 73
4, 54720, Note_on_c, 0, 61, 0
4, 54720, Note_on_c, 0, 49, 0
4, 54720, Note_on_c, 0, 48, 73
4, 54720, Note_on_c, 0, 60, 73
4, 55200, Note_on_c, 0, 60, 0
4, 55200, Note_on_c, 0, 48, 0
4, 55200, Note_on_c, 0, 44, 73
4, 55200, Note_on_c, 0, 56, 73
4, 55680, Note_on_c, 0, 56, 0
4, 55680, Note_on_c, 0, 44, 0
4, 55680, Note_on_c, 0, 43, 73
4, 55680, Note_on_c, 0, 55, 73
4, 56160, Note_on_c, 0, 55, 0
4, 56160, Note_on_c, 0, 43, 0
4, 56160, Note_on_c, 0, 44, 73
4, 56160, Note_on_c, 0, 56, 73
4, 56520, Note_on_c, 0, 56, 0
4, 56520, Note_on_c, 0, 44, 0
4, 56520, Note_on_c, 0, 46, 73
4, 56520, Note_on_c, 0, 58, 73
4, 56640, Note_on_c, 0, 58, 0
4, 56640, Note_on_c, 0, 46, 0
4, 56640, Note_on_c, 0, 48, 73
4, 56640, Note_on_c, 0, 60, 73
4, 56880, Note_on_c, 0, 60, 0
4, 56880, Note_on_c, 0, 48, 0
4, 56880, Note_on_c, 0, 49, 73
4, 56880, Note_on_c, 0, 61, 73
4, 57360, Note_on_c, 0, 61, 0
4, 57360, Note_on_c, 0, 49, 0
4, 57360, Note_on_c, 0, 48, 73
4, 57360, Note_on_c, 0, 60, 73
4, 57600, Note_on_c, 0, 60, 0
4, 57600, Note_on_c, 0, 48, 0
4, 59040, Note_on_c, 0, 63, 73
4, 59280, Note_on_c, 0, 63, 0
4, 59280, Note_on_c, 0, 63, 73
4, 59400, Note_on_c, 0, 63, 0
4, 59400, Note_on_c, 0, 63, 73
4, 59520, Note_on_c, 0, 63, 0
4, 59520, Note_on_c, 0, 63, 73
4, 59760, Note_on_c, 0, 63, 0
4, 59760, Note_on_c, 0, 63, 73
4, 60000, Note_on_c, 0, 63, 0
4, 60000, Note_on_c, 0, 70, 73
4, 60240, Note_on_c, 0, 70, 0
4, 60240, Note_on_c, 0, 67, 73
4, 60480, Note_on_c, 0, 67, 0
4, 60480, Note_on_c, 0, 63, 73
4, 60720, Note_on_c, 0, 63, 0
4, 60720, Note_on_c, 0, 63, 73
4, 60840, Note_on_c, 0, 63, 0
4, 60840, Note_on_c, 0, 63, 73
4, 60960, Note_on_c, 0, 63, 0
4, 60960, Note_on_c, 0, 63, 73
4, 61200, Note_on_c, 0, 63, 0
4, 61200, Note_on_c, 0, 63, 73
4, 61440, Note_on_c, 0, 63, 0
4, 61440, Note_on_c, 0, 67, 73
4, 61680, Note_on_c, 0, 67, 0
4, 61680, Note_on_c, 0, 70, 73
4, 61920, Note_on_c, 0, 70, 0
4, 61920, Note_on_c, 0, 63, 73
4, 62160, Note_on_c, 0, 63, 0
4, 62160, Note_on_c, 0, 63, 73
4, 62280, Note_on_c, 0, 63, 0
4, 62280, Note_on_c, 0, 63, 73
4, 62400, Note_on_c, 0, 63, 0
4, 62400, Note_on_c, 0, 63, 73
4, 62640, Note_on_c, 0, 63, 0
4, 62640, Note_on_c, 0, 63, 73
4, 62880, Note_on_c, 0, 63, 0
4, 62880, Note_on_c, 0, 67, 73
4, 63120, Note_on_c, 0, 67, 0
4, 63120, Note_on_c, 0, 70, 73
4, 63360, Note_on_c, 0, 70, 0
4, 63360, Note_on_c, 0, 70, 73
4, 63600, Note_on_c, 0, 70, 0
4, 63600, Note_on_c, 0, 72, 73
4, 63840, Note_on_c, 0, 72, 0
4, 63840, Note_on_c, 0, 70, 73
4, 64080, Note_on_c, 0, 70, 0
4, 64080, Note_on_c, 0, 72, 73
4, 64320, Note_on_c, 0, 72, 0
4, 64320, Note_on_c, 0, 70, 73
4, 64560, Note_on_c, 0, 70, 0
4, 64560, Note_on_c, 0, 72, 73
4, 64800, Note_on_c, 0, 72, 0
4, 64800, Note_on_c, 0, 70, 73
4, 65040, Note_on_c, 0, 70, 0
4, 65040, Note_on_c, 0, 63, 73
4, 65280, Note_on_c, 0, 63, 0
4, 65280, Note_on_c, 0, 67, 73
4, 65520, Note_on_c, 0, 67, 0
4, 65520, Note_on_c, 0, 70, 73
4, 66240, Note_on_c, 0, 70, 0
4, 66960, Note_on_c, 0, 70, 73
4, 67200, Note_on_c, 0, 70, 0
4, 67200, Note_on_c, 0, 67, 73
4, 67440, Note_on_c, 0, 67, 0
4, 67440, Note_on_c, 0, 70, 73
4, 67680, Note_on_c, 0, 70, 0
4, 67680, Note_on_c, 0, 63, 99
4, 69120, Note_on_c, 0, 63, 0
4, 69360, Note_on_c, 0, 51, 99
4, 69360, Note_on_c, 0, 63, 99
4, 69600, Note_on_c, 0, 63, 0
4, 69600, Note_on_c, 0, 51, 0
4, 69600, Note_on_c, 0, 49, 99
4, 69600, Note_on_c, 0, 61, 99
4, 69840, Note_on_c, 0, 61, 0
4, 69840, Note_on_c, 0, 49, 0
4, 69840, Note_on_c, 0, 48, 99
4, 69840, Note_on_c, 0, 60, 99
4, 70080, Note_on_c, 0, 60, 0
4, 70080, Note_on_c, 0, 48, 0
4, 70080, Note_on_c, 0, 46, 99
4, 70080, Note_on_c, 0, 58, 99
4, 70320, Note_on_c, 0, 58, 0
4, 70320, Note_on_c, 0, 46, 0
4, 70320, Note_on_c, 0, 44, 99
4, 70320, Note_on_c, 0, 56, 99
4, 70560, Note_on_c, 0, 56, 0
4, 70560, Note_on_c, 0, 44, 0
4, 70560, Note_on_c, 0, 43, 99
4, 70560, Note_on_c, 0, 55, 99
4, 70800, Note_on_c, 0, 55, 0
4, 70800, Note_on_c, 0, 43, 0
4, 70800, Note_on_c, 0, 41, 99
4, 70800, Note_on_c, 0, 53, 99
4, 71040, Note_on_c, 0, 53, 0
4, 71040, Note_on_c, 0, 41, 0
4, 71040, Note_on_c, 0, 40, 73
4, 71040, Note_on_c, 0, 52, 73
4, 71280, Note_on_c, 0, 52, 0
4, 71280, Note_on_c, 0, 40, 0
4, 71520, Note_on_c, 0, 55, 73
4, 71520, Note_on_c, 0, 58, 73
4, 71520, Note_on_c, 0, 60, 73
4, 71760, Note_on_c, 0, 60, 0
4, 71760, Note_on_c, 0, 58, 0
4, 71760, Note_on_c, 0, 55, 0
4, 72960, Note_on_c, 0, 40, 73
4, 72960, Note_on_c, 0, 52, 73
4, 73200, Note_on_c, 0, 52, 0
4, 73200, Note_on_c, 0, 40, 0
4, 73200, Note_on_c, 0, 43, 73
4, 73200, Note_on_c, 0, 55, 73
4, 73680, Note_on_c, 0, 55, 0
4, 73680, Note_on_c, 0, 43, 0
4, 73680, Note_on_c, 0, 41, 73
4, 73680, Note_on_c, 0, 53, 73
4, 73920, Note_on_c, 0, 53, 0
4, 73920, Note_on_c, 0, 41, 0
4, 73920, Note_on_c, 0, 40, 73
4, 73920, Note_on_c, 0, 52, 73
4, 74160, Note_on_c, 0, 52, 0
4, 74160, Note_on_c, 0, 40, 0
4, 74160, Note_on_c, 0, 43, 73
4, 74160, Note_on_c, 0, 55, 73
4, 74640, Note_on_c, 0, 55, 0
4, 74640, Note_on_c, 0, 43, 0
4, 74640, Note_on_c, 0, 41, 73
4, 74640, Note_on_c, 0, 53, 73
4, 74880, Note_on_c, 0, 53, 0
4, 74880, Note_on_c, 0, 41, 0
4, 74880, Note_on_c, 0, 40, 73
4, 74880, Note_on_c, 0, 52, 73
4, 75120, Note_on_c, 0, 52, 0
4, 75120, Note_on_c, 0, 40, 0
4, 75360, Note_on_c, 0, 55, 73
4, 75360, Note_on_c, 0, 58, 73
4, 75360, Note_on_c, 0, 60, 73
4, 75600, Note_on_c, 0, 60, 0
4, 75600, Note_on_c, 0, 58, 0
4, 75600, Note_on_c, 0, 55, 0
4, 76800, Note_on_c, 0, 40, 73
4, 76800, Note_on_c, 0, 52, 73
4, 77040, Note_on_c, 0, 52, 0
4, 77040, Note_on_c, 0, 40, 0
4, 77040, Note_on_c, 0, 43, 73
4, 77040, Note_on_c, 0, 55, 73
4, 77520, Note_on_c, 0, 55, 0
4, 77520, Note_on_c, 0, 43, 0
4, 77520, Note_on_c, 0, 41, 73
4, 77520, Note_on_c, 0, 53, 73
4, 77760, Note_on_c, 0, 53, 0
4, 77760, Note_on_c, 0, 41, 0
4, 77760, Note_on_c, 0, 40, 73
4, 77760, Note_on_c, 0, 52, 73
4, 78000, Note_on_c, 0, 52, 0
4, 78000, Note_on_c, 0, 40, 0
4, 78000, Note_on_c, 0, 43, 73
4, 78000, Note_on_c, 0, 55, 73
4, 78480, Note_on_c, 0, 55, 0
4, 78480, Note_on_c, 0, 43, 0
4, 78480, Note_on_c, 0, 41, 73
4, 78480, Note_on_c, 0, 53, 73
4, 78720, Note_on_c, 0, 53, 0
4, 78720, Note_on_c, 0, 41, 0
4, 78720, Note_on_c, 0, 41, 73
4, 78720, Note_on_c, 0, 53, 73
4, 78960, Note_on_c, 0, 53, 0
4, 78960, Note_on_c, 0, 41, 0
4, 79200, Note_on_c, 0, 53, 73
4, 79200, Note_on_c, 0, 56, 73
4, 79200, Note_on_c, 0, 60, 73
4, 79440, Note_on_c, 0, 60, 0
4, 79440, Note_on_c, 0, 56, 0
4, 79440, Note_on_c, 0, 53, 0
4, 80640, Note_on_c, 0, 29, 73
4, 80640, Note_on_c, 0, 41, 73
4, 80880, Note_on_c, 0, 41, 0
4, 80880, Note_on_c, 0, 29, 0
4, 80880, Note_on_c, 0, 36, 73
4, 80880, Note_on_c, 0, 48, 73
4, 81360, Note_on_c, 0, 48, 0
4, 81360, Note_on_c, 0, 36, 0
4, 81360, Note_on_c, 0, 29, 73
4, 81360, Note_on_c, 0, 41, 73
4, 81840, Note_on_c, 0, 41, 0
4, 81840, Note_on_c, 0, 29, 0
4, 81840, Note_on_c, 0, 36, 73
4, 81840, Note_on_c, 0, 48, 73
4, 82320, Note_on_c, 0, 48, 0
4, 82320, Note_on_c, 0, 36, 0
4, 82320, Note_on_c, 0, 29, 73
4, 82320, Note_on_c, 0, 41, 73
4, 82800, Note_on_c, 0, 41, 0
4, 82800, Note_on_c, 0, 29, 0
4, 83040, Note_on_c, 0, 53, 73
4, 83040, Note_on_c, 0, 56, 73
4, 83040, Note_on_c, 0, 60, 73
4, 83280, Note_on_c, 0, 60, 0
4, 83280, Note_on_c, 0, 56, 0
4, 83280, Note_on_c, 0, 53, 0
4, 84480, Note_on_c, 0, 29, 73
4, 84480, Note_on_c, 0, 41, 73
4, 84720, Note_on_c, 0, 41, 0
4, 84720, Note_on_c, 0, 29, 0
4, 84720, Note_on_c, 0, 36, 73
4, 84720, Note_on_c, 0, 48, 73
4, 85200, Note_on_c, 0, 48, 0
4, 85200, Note_on_c, 0, 36, 0
4, 85200, Note_on_c, 0, 29, 73
4, 85200, Note_on_c, 0, 41, 73
4, 85680, Note_on_c, 0, 41, 0
4, 85680, Note_on_c, 0, 29, 0
4, 85680, Note_on_c, 0, 36, 73
4, 85680, Note_on_c, 0, 48, 73
4, 86160, Note_on_c, 0, 48, 0
4, 86160, Note_on_c, 0, 36, 0
4, 86160, Note_on_c, 0, 29, 73
4, 86160, Note_on_c, 0, 41, 73
4, 86640, Note_on_c, 0, 41, 0
4, 86640, Note_on_c, 0, 29, 0
4, 88320, Control_c, 0, 64, 127
4, 88320, Note_on_c, 0, 53, 47
4, 88320, Note_on_c, 0, 56, 47
4, 88400, Note_on_c, 0, 56, 0
4, 88400, Note_on_c, 0, 53, 0
4, 88400, Note_on_c, 0, 60, 47
4, 88479, Note_on_c, 0, 60, 0
4, 88479, Note_on_c, 0, 53, 47
4, 88479, Note_on_c, 0, 56, 47
4, 88560, Note_on_c, 0, 56, 0
4, 88560, Note_on_c, 0, 53, 0
4, 88560, Note_on_c, 0, 60, 47
4, 88640, Note_on_c, 0, 60, 0
4, 88640, Note_on_c, 0, 53, 47
4, 88640, Note_on_c, 0, 56, 47
4, 88719, Note_on_c, 0, 56, 0
4, 88719, Note_on_c, 0, 53, 0
4, 88719, Note_on_c, 0, 60, 47
4, 88800, Note_on_c, 0, 60, 0
4, 88800, Note_on_c, 0, 53, 47
4, 88800, Note_on_c, 0, 56, 47
4, 88880, Note_on_c, 0, 56, 0
4, 88880, Note_on_c, 0, 53, 0
4, 88880, Note_on_c, 0, 60, 47
4, 88959, Note_on_c, 0, 60, 0
4, 88959, Note_on_c, 0, 53, 47
4, 88959, Note_on_c, 0, 56, 47
4, 89040, Note_on_c, 0, 56, 0
4, 89040, Note_on_c, 0, 53, 0
4, 89040, Note_on_c, 0, 60, 47
4, 89120, Note_on_c, 0, 60, 0
4, 89120, Note_on_c, 0, 53, 47
4, 89120, Note_on_c, 0, 56, 47
4, 89199, Note_on_c, 0, 56, 0
4, 89199, Note_on_c, 0, 53, 0
4, 89199, Note_on_c, 0, 60, 47
4, 89280, Note_on_c, 0, 60, 0
4, 89280, Note_on_c, 0, 53, 47
4, 89280, Note_on_c, 0, 56, 47
4, 89360, Note_on_c, 0, 56, 0
4, 89360, Note_on_c, 0, 53, 0
4, 89360, Note_on_c, 0, 60, 47
4, 89439, Note_on_c, 0, 60, 0
4, 89439, Note_on_c, 0, 53, 47
4, 89439, Note_on_c, 0, 56, 47
4, 89520, Note_on_c, 0, 56, 0
4, 89520, Note_on_c, 0, 53, 0
4, 89520, Note_on_c, 0, 60, 47
4, 89600, Note_on_c, 0, 60, 0
4, 89600, Note_on_c, 0, 53, 47
4, 89600, Note_on_c, 0, 56, 47
4, 89679, Note_on_c, 0, 56, 0
4, 89679, Note_on_c, 0, 53, 0
4, 89679, Note_on_c, 0, 60, 47
4, 89760, Note_on_c, 0, 60, 0
4, 89760, Note_on_c, 0, 53, 47
4, 89760, Note_on_c, 0, 56, 47
4, 89840, Note_on_c, 0, 56, 0
4, 89840, Note_on_c, 0, 53, 0
4, 89840, Note_on_c, 0, 60, 47
4, 89919, Note_on_c, 0, 60, 0
4, 89919, Note_on_c, 0, 53, 47
4, 89919, Note_on_c, 0, 56, 47
4, 90000, Note_on_c, 0, 56, 0
4, 90000, Note_on_c, 0, 53, 0
4, 90000, Note_on_c, 0, 60, 47
4, 90080, Note_on_c, 0, 60, 0
4, 90080, Note_on_c, 0, 53, 47
4, 90080, Note_on_c, 0, 56, 47
4, 90159, Note_on_c, 0, 56, 0
4, 90159, Note_on_c, 0, 53, 0
4, 90159, Note_on_c, 0, 60, 47
4, 90240, Note_on_c, 0, 60, 0
4, 90240, Note_on_c, 0, 53, 47
4, 90240, Note_on_c, 0, 56, 47
4, 90320, Note_on_c, 0, 56, 0
4, 90320, Note_on_c, 0, 53, 0
4, 90320, Note_on_c, 0, 60, 47
4, 90399, Note_on_c, 0, 60, 0
4, 90399, Note_on_c, 0, 53, 47
4, 90399, Note_on_c, 0, 56, 47
4, 90480, Note_on_c, 0, 56, 0
4, 90480, Note_on_c, 0, 53, 0
4, 90480, Note_on_c, 0, 60, 47
4, 90560, Note_on_c, 0, 60, 0
4, 90560, Note_on_c, 0, 53, 47
4, 90560, Note_on_c, 0, 56, 47
4, 90639, Note_on_c, 0, 56, 0
4, 90639, Note_on_c, 0, 53, 0
4, 90639, Note_on_c, 0, 60, 47
4, 90720, Note_on_c, 0, 60, 0
4, 90720, Note_on_c, 0, 53, 47
4, 90720, Note_on_c, 0, 56, 47
4, 90800, Note_on_c, 0, 56, 0
4, 90800, Note_on_c, 0, 53, 0
4, 90800, Note_on_c, 0, 60, 47
4, 90879, Note_on_c, 0, 60, 0
4, 90879, Note_on_c, 0, 53, 47
4, 90879, Note_on_c, 0, 56, 47
4, 90960, Note_on_c, 0, 56, 0
4, 90960, Note_on_c, 0, 53, 0
4, 90960, Note_on_c, 0, 60, 47
4, 91040, Note_on_c, 0, 60, 0
4, 91040, Note_on_c, 0, 53, 47
4, 91040, Note_on_c, 0, 56, 47
4, 91119, Note_on_c, 0, 56, 0
4, 91119, Note_on_c, 0, 53, 0
4, 91119, Control_c, 0, 64, 0
4, 91119, Note_on_c, 0, 60, 47
4, 91200, Note_on_c, 0, 60, 0
4, 91200, Control_c, 0, 64, 127
4, 91200, Note_on_c, 0, 53, 47
4, 91200, Note_on_c, 0, 56, 47
4, 91200, Note_on_c, 0, 59, 47
4, 91280, Note_on_c, 0, 59, 0
4, 91280, Note_on_c, 0, 56, 0
4, 91280, Note_on_c, 0, 53, 0
4, 91280, Note_on_c, 0, 61, 47
4, 91359, Note_on_c, 0, 61, 0
4, 91359, Note_on_c, 0, 53, 47
4, 91359, Note_on_c, 0, 56, 47
4, 91359, Note_on_c, 0, 59, 47
4, 91440, Note_on_c, 0, 59, 0
4, 91440, Note_on_c, 0, 56, 0
4, 91440, Note_on_c, 0, 53, 0
4, 91440, Note_on_c, 0, 61, 47
4, 91520, Note_on_c, 0, 61, 0
4, 91520, Note_on_c, 0, 53, 47
4, 91520, Note_on_c, 0, 56, 47
4, 91520, Note_on_c, 0, 59, 47
4, 91599, Note_on_c, 0, 59, 0
4, 91599, Note_on_c, 0, 56, 0
4, 91599, Note_on_c, 0, 53, 0
4, 91599, Note_on_c, 0, 61, 47
4, 91680, Note_on_c, 0, 61, 0
4, 91680, Note_on_c, 0, 53, 47
4, 91680, Note_on_c, 0, 56, 47
4, 91680, Note_on_c, 0, 59, 47
4, 91760, Note_on_c, 0, 59, 0
4, 91760, Note_on_c, 0, 56, 0
4, 91760, Note_on_c, 0, 53, 0
4, 91760, Note_on_c, 0, 61, 47
4, 91839, Note_on_c, 0, 61, 0
4, 91839, Note_on_c, 0, 53, 47
4, 91839, Note_on_c, 0, 56, 47
4, 91839, Note_on_c, 0, 59, 47
4, 91920, Note_on_c, 0, 59, 0
4, 91920, Note_on_c, 0, 56, 0
4, 91920, Note_on_c, 0, 53, 0
4, 91920, Note_on_c, 0, 61, 47
4, 92000, Note_on_c, 0, 61, 0
4, 92000, Note_on_c, 0, 53, 47
4, 92000, Note_on_c, 0, 56, 47
4, 92000, Note_on_c, 0, 59, 47
4, 92079, Note_on_c, 0, 59, 0
4, 92079, Note_on_c, 0, 56, 0
4, 92079, Note_on_c, 0, 53, 0
4, 92079, Control_c, 0, 64, 0
4, 92079, Note_on_c, 0, 61, 47
4, 92160, Note_on_c, 0, 61, 0
4, 92160, Control_c, 0, 64, 127
4, 92160, Note_on_c, 0, 53, 47
4, 92160, Note_on_c, 0, 56, 47
4, 92240, Note_on_c, 0, 56, 0
4, 92240, Note_on_c, 0, 53, 0
4, 92240, Note_on_c, 0, 60, 47
4, 92319, Note_on_c, 0, 60, 0
4, 92319, Note_on_c, 0, 53, 47
4, 92319, Note_on_c, 0, 56, 47
4, 92400, Note_on_c, 0, 56, 0
4, 92400, Note_on_c, 0, 53, 0
4, 92400, Note_on_c, 0, 60, 47
4, 92480, Note_on_c, 0, 60, 0
4, 92480, Note_on_c, 0, 53, 47
4, 92480, Note_on_c, 0, 56, 47
4, 92559, Note_on_c, 0, 56, 0
4, 92559, Note_on_c, 0, 53, 0
4, 92559, Note_on_c, 0, 60, 47
4, 92640, Note_on_c, 0, 60, 0
4, 92640, Note_on_c, 0, 53, 47
4, 92640, Note_on_c, 0, 56, 47
4, 92720, Note_on_c, 0, 56, 0
4, 92720, Note_on_c, 0, 53, 0
4, 92720, Note_on_c, 0, 60, 47
4, 92799, Note_on_c, 0, 60, 0
4, 92799, Note_on_c, 0, 53, 47
4, 92799, Note_on_c, 0, 56, 47
4, 92880, Note_on_c, 0, 56, 0
4, 92880, Note_on_c, 0, 53, 0
4, 92880, Note_on_c, 0, 60, 47
4, 92960, Note_on_c, 0, 60, 0
4, 92960, Note_on_c, 0, 53, 47
4, 92960, Note_on_c, 0, 56, 47
4, 93039, Note_on_c, 0, 56, 0
4, 93039, Note_on_c, 0, 53, 0
4, 93039, Note_on_c, 0, 60, 47
4, 93120, Note_on_c, 0, 60, 0
4, 93120, Note_on_c, 0, 53, 47
4, 93120, Note_on_c, 0, 56, 47
4, 93200, Note_on_c, 0, 56, 0
4, 93200, Note_on_c, 0, 53, 0
4, 93200, Note_on_c, 0, 60, 47
4, 93279, Note_on_c, 0, 60, 0
4, 93279, Note_on_c, 0, 53, 47
4, 93279, Note_on_c, 0, 56, 47
4, 93360, Note_on_c, 0, 56, 0
4, 93360, Note_on_c, 0, 53, 0
4, 93360, Note_on_c, 0, 60, 47
4, 93440, Note_on_c, 0, 60, 0
4, 93440, Note_on_c, 0, 53, 47
4, 93440, Note_on_c, 0, 56, 47
4, 93519, Note_on_c, 0, 56, 0
4, 93519, Note_on_c, 0, 53, 0
4, 93519, Note_on_c, 0, 60, 47
4, 93600, Note_on_c, 0, 60, 0
4, 93600, Note_on_c, 0, 53, 47
4, 93600, Note_on_c, 0, 56, 47
4, 93680, Note_on_c, 0, 56, 0
4, 93680, Note_on_c, 0, 53, 0
4, 93680, Note_on_c, 0, 60, 47
4, 93759, Note_on_c, 0, 60, 0
4, 93759, Note_on_c, 0, 53, 47
4, 93759, Note_on_c, 0, 56, 47
4, 93840, Note_on_c, 0, 56, 0
4, 93840, Note_on_c, 0, 53, 0
4, 93840, Note_on_c, 0, 60, 47
4, 93920, Note_on_c, 0, 60, 0
4, 93920, Note_on_c, 0, 53, 47
4, 93920, Note_on_c, 0, 56, 47
4, 93999, Note_on_c, 0, 56, 0
4, 93999, Note_on_c, 0, 53, 0
4, 93999, Note_on_c, 0, 60, 47
4, 94080, Note_on_c, 0, 60, 0
4, 94080, Note_on_c, 0, 53, 47
4, 94080, Note_on_c, 0, 56, 47
4, 94160, Note_on_c, 0, 56, 0
4, 94160, Note_on_c, 0, 53, 0
4, 94160, Note_on_c, 0, 60, 47
4, 94239, Note_on_c, 0, 60, 0
4, 94239, Note_on_c, 0, 53, 47
4, 94239, Note_on_c, 0, 56, 47
4, 94320, Note_on_c, 0, 56, 0
4, 94320, Note_on_c, 0, 53, 0
4, 94320, Note_on_c, 0, 60, 47
4, 94400, Note_on_c, 0, 60, 0
4, 94400, Note_on_c, 0, 53, 47
4, 94400, Note_on_c, 0, 56, 47
4, 94479, Note_on_c, 0, 56, 0
4, 94479, Note_on_c, 0, 53, 0
4, 94479, Note_on_c, 0, 60, 47
4, 94560, Note_on_c, 0, 60, 0
4, 94560, Note_on_c, 0, 53, 47
4, 94560, Note_on_c, 0, 56, 47
4, 94640, Note_on_c, 0, 56, 0
4, 94640, Note_on_c, 0, 53, 0
4, 94640, Note_on_c, 0, 60, 47
4, 94719, Note_on_c, 0, 60, 0
4, 94719, Note_on_c, 0, 53, 47
4, 94719, Note_on_c, 0, 56, 47
4, 94800, Note_on_c, 0, 56, 0
4, 94800, Note_on_c, 0, 53, 0
4, 94800, Note_on_c, 0, 60, 47
4, 94880, Note_on_c, 0, 60, 0
4, 94880, Note_on_c, 0, 53, 47
4, 94880, Note_on_c, 0, 56, 47
4, 94959, Note_on_c, 0, 56, 0
4, 94959, Note_on_c, 0, 53, 0
4, 94959, Note_on_c, 0, 60, 47
4, 95040, Note_on_c, 0, 60, 0
4, 95040, Note_on_c, 0, 53, 47
4, 95040, Note_on_c, 0, 56, 47
4, 95120, Note_on_c, 0, 56, 0
4, 95120, Note_on_c, 0, 53, 0
4, 95120, Note_on_c, 0, 60, 47
4, 95199, Note_on_c, 0, 60, 0
4, 95199, Note_on_c, 0, 53, 47
4, 95199, Note_on_c, 0, 56, 47
4, 95280, Note_on_c, 0, 56, 0
4, 95280, Note_on_c, 0, 53, 0
4, 95280, Note_on_c, 0, 60, 47
4, 95360, Note_on_c, 0, 60, 0
4, 95360, Note_on_c, 0, 53, 47
4, 95360, Note_on_c, 0, 56, 47
4, 95439, Note_on_c, 0, 56, 0
4, 95439, Note_on_c, 0, 53, 0
4, 95439, Note_on_c, 0, 60, 47
4, 95520, Note_on_c, 0, 60, 0
4, 95520, Note_on_c, 0, 53, 47
4, 95520, Note_on_c, 0, 56, 47
4, 95600, Note_on_c, 0, 56, 0
4, 95600, Note_on_c, 0, 53, 0
4, 95600, Note_on_c, 0, 60, 47
4, 95679, Note_on_c, 0, 60, 0
4, 95679, Note_on_c, 0, 53, 47
4, 95679, Note_on_c, 0, 56, 47
4, 95760, Note_on_c, 0, 56, 0
4, 95760, Note_on_c, 0, 53, 0
4, 95760, Note_on_c, 0, 60, 47
4, 95840, Note_on_c, 0, 60, 0
4, 95840, Note_on_c, 0, 53, 47
4, 95840, Note_on_c, 0, 56, 47
4, 95919, Note_on_c, 0, 56, 0
4, 95919, Note_on_c, 0, 53, 0
4, 95919, Note_on_c, 0, 60, 47
4, 96000, Note_on_c, 0, 60, 0
4, 96000, Note_on_c, 0, 53, 47
4, 96000, Note_on_c, 0, 56, 47
4, 96080, Note_on_c, 0, 56, 0
4, 96080, Note_on_c, 0, 53, 0
4, 96080, Note_on_c, 0, 60, 47
4, 96159, Note_on_c, 0, 60, 0
4, 96159, Note_on_c, 0, 53, 47
4, 96159, Note_on_c, 0, 56, 47
4, 96240, Note_on_c, 0, 56, 0
4, 96240, Note_on_c, 0, 53, 0
4, 96240, Note_on_c, 0, 60, 47
4, 96320, Note_on_c, 0, 60, 0
4, 96320, Note_on_c, 0, 53, 47
4, 96320, Note_on_c, 0, 56, 47
4, 96399, Note_on_c, 0, 56, 0
4, 96399, Note_on_c, 0, 53, 0
4, 96399, Note_on_c, 0, 60, 47
4, 96480, Note_on_c, 0, 60, 0
4, 96480, Note_on_c, 0, 53, 47
4, 96480, Note_on_c, 0, 56, 47
4, 96560, Note_on_c, 0, 56, 0
4, 96560, Note_on_c, 0, 53, 0
4, 96560, Note_on_c, 0, 60, 47
4, 96639, Note_on_c, 0, 60, 0
4, 96639, Note_on_c, 0, 53, 47
4, 96639, Note_on_c, 0, 56, 47
4, 96720, Note_on_c, 0, 56, 0
4, 96720, Note_on_c, 0, 53, 0
4, 96720, Note_on_c, 0, 60, 47
4, 96800, Note_on_c, 0, 60, 0
4, 96800, Note_on_c, 0, 53, 47
4, 96800, Note_on_c, 0, 56, 47
4, 96879, Note_on_c, 0, 56, 0
4, 96879, Note_on_c, 0, 53, 0
4, 96879, Note_on_c, 0, 60, 47
4, 96960, Note_on_c, 0, 60, 0
4, 96960, Note_on_c, 0, 53, 47
4, 96960, Note_on_c, 0, 56, 47
4, 97040, Note_on_c, 0, 56, 0
4, 97040, Note_on_c, 0, 53, 0
4, 97040, Note_on_c, 0, 60, 47
4, 97119, Note_on_c, 0, 60, 0
4, 97119, Note_on_c, 0, 53, 47
4, 97119, Note_on_c, 0, 56, 47
4, 97200, Note_on_c, 0, 56, 0
4, 97200, Note_on_c, 0, 53, 0
4, 97200, Note_on_c, 0, 60, 47
4, 97280, Note_on_c, 0, 60, 0
4, 97280, Note_on_c, 0, 53, 47
4, 97280, Note_on_c, 0, 56, 47
4, 97359, Note_on_c, 0, 56, 0
4, 97359, Note_on_c, 0, 53, 0
4, 97359, Note_on_c, 0, 60, 47
4, 97440, Note_on_c, 0, 60, 0
4, 97440, Note_on_c, 0, 53, 47
4, 97440, Note_on_c, 0, 56, 47
4, 97520, Note_on_c, 0, 56, 0
4, 97520, Note_on_c, 0, 53, 0
4, 97520, Note_on_c, 0, 60, 47
4, 97599, Note_on_c, 0, 60, 0
4, 97599, Note_on_c, 0, 53, 47
4, 97599, Note_on_c, 0, 56, 47
4, 97680, Note_on_c, 0, 56, 0
4, 97680, Note_on_c, 0, 53, 0
4, 97680, Note_on_c, 0, 60, 47
4, 97760, Note_on_c, 0, 60, 0
4, 97760, Note_on_c, 0, 53, 47
4, 97760, Note_on_c, 0, 56, 47
4, 97839, Note_on_c, 0, 56, 0
4, 97839, Note_on_c, 0, 53, 0
4, 97839, Control_c, 0, 64, 0
4, 97839, Note_on_c, 0, 60, 47
4, 97920, Note_on_c, 0, 60, 0
4, 97920, Control_c, 0, 64, 127
4, 97920, Note_on_c, 0, 53, 47
4, 97920, Note_on_c, 0, 56, 47
4, 98000, Note_on_c, 0, 56, 0
4, 98000, Note_on_c, 0, 53, 0
4, 98000, Note_on_c, 0, 60, 47
4, 98079, Note_on_c, 0, 60, 0
4, 98079, Note_on_c, 0, 53, 47
4, 98079, Note_on_c, 0, 56, 47
4, 98160, Note_on_c, 0, 56, 0
4, 98160, Note_on_c, 0, 53, 0
4, 98160, Note_on_c, 0, 60, 47
4, 98240, Note_on_c, 0, 60, 0
4, 98240, Note_on_c, 0, 53, 47
4, 98240, Note_on_c, 0, 56, 47
4, 98319, Note_on_c, 0, 56, 0
4, 98319, Note_on_c, 0, 53, 0
4, 98319, Note_on_c, 0, 60, 47
4, 98400, Note_on_c, 0, 60, 0
4, 98400, Note_on_c, 0, 53, 47
4, 98400, Note_on_c, 0, 56, 47
4, 98480, Note_on_c, 0, 56, 0
4, 98480, Note_on_c, 0, 53, 0
4, 98480, Note_on_c, 0, 60, 47
4, 98559, Note_on_c, 0, 60, 0
4, 98559, Note_on_c, 0, 53, 47
4, 98559, Note_on_c, 0, 56, 47
4, 98640, Note_on_c, 0, 56, 0
4, 98640, Note_on_c, 0, 53, 0
4, 98640, Note_on_c, 0, 60, 47
4, 98720, Note_on_c, 0, 60, 0
4, 98720, Note_on_c, 0, 53, 47
4, 98720, Note_on_c, 0, 56, 47
4, 98799, Note_on_c, 0, 56, 0
4, 98799, Note_on_c, 0, 53, 0
4, 98799, Control_c, 0, 64, 0
4, 98799, Note_on_c, 0, 60, 47
4, 98880, Note_on_c, 0, 60, 0
4, 98880, Control_c, 0, 64, 127
4, 98880, Note_on_c, 0, 53, 47
4, 98880, Note_on_c, 0, 56, 47
4, 98880, Note_on_c, 0, 59, 47
4, 98960, Note_on_c, 0, 59, 0
4, 98960, Note_on_c, 0, 56, 0
4, 98960, Note_on_c, 0, 53, 0
4, 98960, Note_on_c, 0, 61, 47
4, 99039, Note_on_c, 0, 61, 0
4, 99039, Note_on_c, 0, 53, 47
4, 99039, Note_on_c, 0, 56, 47
4, 99039, Note_on_c, 0, 59, 47
4, 99120, Note_on_c, 0, 59, 0
4, 99120, Note_on_c, 0, 56, 0
4, 99120, Note_on_c, 0, 53, 0
4, 99120, Note_on_c, 0, 61, 47
4, 99200, Note_on_c, 0, 61, 0
4, 99200, Note_on_c, 0, 53, 47
4, 99200, Note_on_c, 0, 56, 47
4, 99200, Note_on_c, 0, 59, 47
4, 99279, Note_on_c, 0, 59, 0
4, 99279, Note_on_c, 0, 56, 0
4, 99279, Note_on_c, 0, 53, 0
4, 99279, Note_on_c, 0, 61, 47
4, 99360, Note_on_c, 0, 61, 0
4, 99360, Note_on_c, 0, 53, 47
4, 99360, Note_on_c, 0, 56, 47
4, 99360, Note_on_c, 0, 59, 47
4, 99440, Note_on_c, 0, 59, 0
4, 99440, Note_on_c, 0, 56, 0
4, 99440, Note_on_c, 0, 53, 0
4, 99440, Note_on_c, 0, 61, 47
4, 99519, Note_on_c, 0, 61, 0
4, 99519, Note_on_c, 0, 53, 47
4, 99519, Note_on_c, 0, 56, 47
4, 99519, Note_on_c, 0, 59, 47
4, 99600, Note_on_c, 0, 59, 0
4, 99600, Note_on_c, 0, 56, 0
4, 99600, Note_on_c, 0, 53, 0
4, 99600, Note_on_c, 0, 61, 47
4, 99680, Note_on_c, 0, 61, 0
4, 99680, Note_on_c, 0, 53, 47
4, 99680, Note_on_c, 0, 56, 47
4, 99680, Note_on_c, 0, 59, 47
4, 99759, Note_on_c, 0, 59, 0
4, 99759, Note_on_c, 0, 56, 0
4, 99759, Note_on_c, 0, 53, 0
4, 99759, Control_c, 0, 64, 0
4, 99759, Note_on_c, 0, 61, 47
4, 99840, Note_on_c, 0, 61, 0
4, 99840, Control_c, 0, 64, 127
4, 99840, Note_on_c, 0, 53, 47
4, 99840, Note_on_c, 0, 56, 47
4, 99920, Note_on_c, 0, 56, 0
4, 99920, Note_on_c, 0, 53, 0
4, 99920, Note_on_c, 0, 60, 47
4, 99999, Note_on_c, 0, 60, 0
4, 99999, Note_on_c, 0, 53, 47
4, 99999, Note_on_c, 0, 56, 47
4, 100080, Note_on_c, 0, 56, 0
4, 100080, Note_on_c, 0, 53, 0
4, 100080, Note_on_c, 0, 60, 47
4, 100160, Note_on_c, 0, 60, 0
4, 100160, Note_on_c, 0, 53, 47
4, 100160, Note_on_c, 0, 56, 47
4, 100239, Note_on_c, 0, 56, 0
4, 100239, Note_on_c, 0, 53, 0
4, 100239, Note_on_c, 0, 60, 47
4, 100320, Note_on_c, 0, 60, 0
4, 100320, Note_on_c, 0, 53, 47
4, 100320, Note_on_c, 0, 56, 47
4, 100400, Note_on_c, 0, 56, 0
4, 100400, Note_on_c, 0, 53, 0
4, 100400, Note_on_c, 0, 60, 47
4, 100479, Note_on_c, 0, 60, 0
4, 100479, Note_on_c, 0, 53, 47
4, 100479, Note_on_c, 0, 56, 47
4, 100560, Note_on_c, 0, 56, 0
4, 100560, Note_on_c, 0, 53, 0
4, 100560, Note_on_c, 0, 60, 47
4, 100640, Note_on_c, 0, 60, 0
4, 100640, Note_on_c, 0, 53, 47
4, 100640, Note_on_c, 0, 56, 47
4, 100719, Note_on_c, 0, 56, 0
4, 100719, Note_on_c, 0, 53, 0
4, 100719, Note_on_c, 0, 60, 47
4, 100800, Note_on_c, 0, 60, 0
4, 100800, Note_on_c, 0, 53, 47
4, 100800, Note_on_c, 0, 56, 47
4, 100880, Note_on_c, 0, 56, 0
4, 100880, Note_on_c, 0, 53, 0
4, 100880, Note_on_c, 0, 60, 47
4, 100959, Note_on_c, 0, 60, 0
4, 100959, Note_on_c, 0, 53, 47
4, 100959, Note_on_c, 0, 56, 47
4, 101040, Note_on_c, 0, 56, 0
4, 101040, Note_on_c, 0, 53, 0
4, 101040, Note_on_c, 0, 60, 47
4, 101120, Note_on_c, 0, 60, 0
4, 101120, Note_on_c, 0, 53, 47
4, 101120, Note_on_c, 0, 56, 47
4, 101199, Note_on_c, 0, 56, 0
4, 101199, Note_on_c, 0, 53, 0
4, 101199, Control_c, 0, 64, 0
4, 101199, Note_on_c, 0, 60, 47
4, 101280, Note_on_c, 0, 60, 0
4, 101280, Note_on_c, 0, 41, 73
4, 101280, Note_on_c, 0, 53, 73
4, 101760, Note_on_c, 0, 53, 0
4, 101760, Note_on_c, 0, 41, 0
4, 101760, Note_on_c, 0, 39, 73
4, 101760, Note_on_c, 0, 51, 73
4, 102240, Note_on_c, 0, 51, 0
4, 102240, Note_on_c, 0, 39, 0
4, 102240, Control_c, 0, 64, 127
4, 102240, Note_on_c, 0, 51, 47
4, 102240, Note_on_c, 0, 56, 47
4, 102240, Note_on_c, 0, 60, 47
4, 102320, Note_on_c, 0, 60, 0
4, 102320, Note_on_c, 0, 56, 0
4, 102320, Note_on_c, 0, 51, 0
4, 102320, Note_on_c, 0, 63, 47
4, 102399, Note_on_c, 0, 63, 0
4, 102399, Note_on_c, 0, 51, 47
4, 102399, Note_on_c, 0, 56, 47
4, 102399, Note_on_c, 0, 60, 47
4, 102480, Note_on_c, 0, 60, 0
4, 102480, Note_on_c, 0, 56, 0
4, 102480, Note_on_c, 0, 51, 0
4, 102480, Note_on_c, 0, 63, 47
4, 102560, Note_on_c, 0, 63, 0
4, 102560, Note_on_c, 0, 51, 47
4, 102560, Note_on_c, 0, 56, 47
4, 102560, Note_on_c, 0, 60, 47
4, 102639, Note_on_c, 0, 60, 0
4, 102639, Note_on_c, 0, 56, 0
4, 102639, Note_on_c, 0, 51, 0
4, 102639, Note_on_c, 0, 63, 47
4, 102720, Note_on_c, 0, 63, 0
4, 102720, Note_on_c, 0, 51, 47
4, 102720, Note_on_c, 0, 56, 47
4, 102720, Note_on_c, 0, 60, 47
4, 102800, Note_on_c, 0, 60, 0
4, 102800, Note_on_c, 0, 56, 0
4, 102800, Note_on_c, 0, 51, 0
4, 102800, Note_on_c, 0, 63, 47
4, 102879, Note_on_c, 0, 63, 0
4, 102879, Note_on_c, 0, 51, 47
4, 102879, Note_on_c, 0, 56, 47
4, 102879, Note_on_c, 0, 60, 47
4, 102960, Note_on_c, 0, 60, 0
4, 102960, Note_on_c, 0, 56, 0
4, 102960, Note_on_c, 0, 51, 0
4, 102960, Note_on_c, 0, 63, 47
4, 103040, Note_on_c, 0, 63, 0
4, 103040, Note_on_c, 0, 51, 47
4, 103040, Note_on_c, 0, 56, 47
4, 103040, Note_on_c, 0, 60, 47
4, 103119, Note_on_c, 0, 60, 0
4, 103119, Note_on_c, 0, 56, 0
4, 103119, Note_on_c, 0, 51, 0
4, 103119, Note_on_c, 0, 63, 47
4, 103200, Note_on_c, 0, 63, 0
4, 103200, Note_on_c, 0, 51, 47
4, 103200, Note_on_c, 0, 56, 47
4, 103200, Note_on_c, 0, 60, 47
4, 103280, Note_on_c, 0, 60, 0
4, 103280, Note_on_c, 0, 56, 0
4, 103280, Note_on_c, 0, 51, 0
4, 103280, Note_on_c, 0, 63, 47
4, 103359, Note_on_c, 0, 63, 0
4, 103359, Note_on_c, 0, 51, 47
4, 103359, Note_on_c, 0, 56, 47
4, 103359, Note_on_c, 0, 60, 47
4, 103440, Note_on_c, 0, 60, 0
4, 103440, Note_on_c, 0, 56, 0
4, 103440, Note_on_c, 0, 51, 0
4, 103440, Note_on_c, 0, 63, 47
4, 103520, Note_on_c, 0, 63, 0
4, 103520, Note_on_c, 0, 51, 47
4, 103520, Note_on_c, 0, 56, 47
4, 103520, Note_on_c, 0, 60, 47
4, 103599, Note_on_c, 0, 60, 0
4, 103599, Note_on_c, 0, 56, 0
4, 103599, Note_on_c, 0, 51, 0
4, 103599, Control_c, 0, 64, 0
4, 103599, Note_on_c, 0, 63, 47
4, 103680, Note_on_c, 0, 63, 0
4, 103680, Note_on_c, 0, 51, 73
4, 103680, Note_on_c, 0, 56, 73
4, 103680, Note_on_c, 0, 60, 73
4, 103920, Note_on_c, 0, 60, 0
4, 103920, Note_on_c, 0, 56, 0
4, 103920, Note_on_c, 0, 51, 0
4, 103920, Note_on_c, 0, 56, 73
4, 103920, Note_on_c, 0, 60, 73
4, 103920, Note_on_c, 0, 63, 73
4, 104160, Note_on_c, 0, 63, 0
4, 104160, Note_on_c, 0, 60, 0
4, 104160, Note_on_c, 0, 56, 0
4, 104160, Note_on_c, 0, 56, 73
4, 104160, Note_on_c, 0, 60, 73
4, 104160, Note_on_c, 0, 63, 73
4, 104160, Note_on_c, 0, 65, 73
4, 104400, Note_on_c, 0, 65, 0
4, 104400, Note_on_c, 0, 56, 0
4, 104400, Note_on_c, 0, 60, 0
4, 104400, Note_on_c, 0, 63, 0
4, 104400, Note_on_c, 0, 56, 73
4, 104400, Note_on_c, 0, 60, 73
4, 104400, Note_on_c, 0, 63, 73
4, 104400, Note_on_c, 0, 67, 73
4, 104640, Note_on_c, 0, 67, 0
4, 104640, Note_on_c, 0, 56, 0
4, 104640, Note_on_c, 0, 60, 0
4, 104640, Note_on_c, 0, 63, 0
4, 104640, Note_on_c, 0, 56, 73
4, 104640, Note_on_c, 0, 60, 73
4, 104640, Note_on_c, 0, 63, 73
4, 104640, Note_on_c, 0, 68, 73
4, 104880, Note_on_c, 0, 68, 0
4, 104880, Note_on_c, 0, 56, 0
4, 104880, Note_on_c, 0, 60, 0
4, 104880, Note_on_c, 0, 63, 0
4, 104880, Note_on_c, 0, 56, 73
4, 104880, Note_on_c, 0, 60, 73
4, 104880, Note_on_c, 0, 63, 73
4, 104880, Note_on_c, 0, 67, 73
4, 105120, Note_on_c, 0, 67, 0
4, 105120, Note_on_c, 0, 56, 0
4, 105120, Note_on_c, 0, 60, 0
4, 105120, Note_on_c, 0, 63, 0
4, 105120, Note_on_c, 0, 56, 73
4, 105120, Note_on_c, 0, 60, 73
4, 105120, Note_on_c, 0, 63, 73
4, 105120, Note_on_c, 0, 65, 73
4, 105360, Note_on_c, 0, 65, 0
4, 105360, Note_on_c, 0, 56, 0
4, 105360, Note_on_c, 0, 60, 0
4, 105360, Note_on_c, 0, 63, 0
4, 105360, Note_on_c, 0, 56, 73
4, 105360, Note_on_c, 0, 60, 73
4, 105360, Note_on_c, 0, 63, 73
4, 105600, Note_on_c, 0, 63, 0
4, 105600, Note_on_c, 0, 60, 0
4, 105600, Note_on_c, 0, 56, 0
4, 105600, Note_on_c, 0, 38, 73
4, 105600, Note_on_c, 0, 50, 73
4, 106080, Note_on_c, 0, 50, 0
4, 106080, Note_on_c, 0, 38, 0
4, 106080, Control_c, 0, 64, 127
4, 106080, Note_on_c, 0, 53, 47
4, 106080, Note_on_c, 0, 56, 47
4, 106080, Note_on_c, 0, 59, 47
4, 106160, Note_on_c, 0, 59, 0
4, 106160, Note_on_c, 0, 56, 0
4, 106160, Note_on_c, 0, 53, 0
4, 106160, Note_on_c, 0, 65, 47
4, 106239, Note_on_c, 0, 65, 0
4, 106239, Note_on_c, 0, 53, 47
4, 106239, Note_on_c, 0, 56, 47
4, 106239, Note_on_c, 0, 59, 47
4, 106320, Note_on_c, 0, 59, 0
4, 106320, Note_on_c, 0, 56, 0
4, 106320, Note_on_c, 0, 53, 0
4, 106320, Note_on_c, 0, 65, 47
4, 106400, Note_on_c, 0, 65, 0
4, 106400, Note_on_c, 0, 53, 47
4, 106400, Note_on_c, 0, 56, 47
4, 106400, Note_on_c, 0, 59, 47
4, 106479, Note_on_c, 0, 59, 0
4, 106479, Note_on_c, 0, 56, 0
4, 106479, Note_on_c, 0, 53, 0
4, 106479, Note_on_c, 0, 65, 47
4, 106560, Note_on_c, 0, 65, 0
4, 106560, Note_on_c, 0, 53, 47
4, 106560, Note_on_c, 0, 56, 47
4, 106560, Note_on_c, 0, 59, 47
4, 106640, Note_on_c, 0, 59, 0
4, 106640, Note_on_c, 0, 56, 0
4, 106640, Note_on_c, 0, 53, 0
4, 106640, Note_on_c, 0, 65, 47
4, 106719, Note_on_c, 0, 65, 0
4, 106719, Note_on_c, 0, 53, 47
4, 106719, Note_on_c, 0, 56, 47
4, 106719, Note_on_c, 0, 59, 47
4, 106800, Note_on_c, 0, 59, 0
4, 106800, Note_on_c, 0, 56, 0
4, 106800, Note_on_c, 0, 53, 0
4, 106800, Note_on_c, 0, 65, 47
4, 106880, Note_on_c, 0, 65, 0
4, 106880, Note_on_c, 0, 53, 47
4, 106880, Note_on_c, 0, 56, 47
4, 106880, Note_on_c, 0, 59, 47
4, 106959, Note_on_c, 0, 59, 0
4, 106959, Note_on_c, 0, 56, 0
4, 106959, Note_on_c, 0, 53, 0
4, 106959, Note_on_c, 0, 65, 47
4, 107040, Note_on_c, 0, 65, 0
4, 107040, Note_on_c, 0, 53, 47
4, 107040, Note_on_c, 0, 56, 47
4, 107040, Note_on_c, 0, 59, 47
4, 107120, Note_on_c, 0, 59, 0
4, 107120, Note_on_c, 0, 56, 0
4, 107120, Note_on_c, 0, 53, 0
4, 107120, Note_on_c, 0, 65, 47
4, 107199, Note_on_c, 0, 65, 0
4, 107199, Note_on_c, 0, 53, 47
4, 107199, Note_on_c, 0, 56, 47
4, 107199, Note_on_c, 0, 59, 47
4, 107280, Note_on_c, 0, 59, 0
4, 107280, Note_on_c, 0, 56, 0
4, 107280, Note_on_c, 0, 53, 0
4, 107280, Note_on_c, 0, 65, 47
4, 107360, Note_on_c, 0, 65, 0
4, 107360, Note_on_c, 0, 53, 47
4, 107360, Note_on_c, 0, 56, 47
4, 107360, Note_on_c, 0, 59, 47
4, 107439, Note_on_c, 0, 59, 0
4, 107439, Note_on_c, 0, 56, 0
4, 107439, Note_on_c, 0, 53, 0
4, 107439, Control_c, 0, 64, 0
4, 107439, Note_on_c, 0, 65, 47
4, 107520, Note_on_c, 0, 65, 0
4, 107520, Note_on_c, 0, 53, 73
4, 107520, Note_on_c, 0, 56, 73
4, 107520, Note_on_c, 0, 59, 73
4, 107760, Note_on_c, 0, 59, 0
4, 107760, Note_on_c, 0, 56, 0
4, 107760, Note_on_c, 0, 53, 0
4, 107760, Note_on_c, 0, 53, 73
4, 107760, Note_on_c, 0, 56, 73
4, 107760, Note_on_c, 0, 59, 73
4, 107760, Note_on_c, 0, 64, 73
4, 108000, Note_on_c, 0, 64, 0
4, 108000, Note_on_c, 0, 53, 0
4, 108000, Note_on_c, 0, 56, 0
4, 108000, Note_on_c, 0, 59, 0
4, 108000, Note_on_c, 0, 53, 73
4, 108000, Note_on_c, 0, 56, 73
4, 108000, Note_on_c, 0, 59, 73
4, 108000, Note_on_c, 0, 65, 73
4, 108240, Note_on_c, 0, 65, 0
4, 108240, Note_on_c, 0, 53, 0
4, 108240, Note_on_c, 0, 56, 0
4, 108240, Note_on_c, 0, 59, 0
4, 108240, Note_on_c, 0, 53, 73
4, 108240, Note_on_c, 0, 56, 73
4, 108240, Note_on_c, 0, 59, 73
4, 108240, Note_on_c, 0, 67, 73
4, 108480, Note_on_c, 0, 67, 0
4, 108480, Note_on_c, 0, 53, 0
4, 108480, Note_on_c, 0, 56, 0
4, 108480, Note_on_c, 0, 59, 0
4, 108480, Note_on_c, 0, 59, 73
4, 108480, Note_on_c, 0, 65, 73
4, 108480, Note_on_c, 0, 70, 73
4, 108720, Note_on_c, 0, 70, 0
4, 108720, Note_on_c, 0, 65, 0
4, 108720, Note_on_c, 0, 59, 0
4, 108720, Note_on_c, 0, 59, 73
4, 108720, Note_on_c, 0, 65, 73
4, 108720, Note_on_c, 0, 68, 73
4, 108960, Note_on_c, 0, 68, 0
4, 108960, Note_on_c, 0, 65, 0
4, 108960, Note_on_c, 0, 59, 0
4, 108960, Note_on_c, 0, 56, 73
4, 108960, Note_on_c, 0, 59, 73
4, 108960, Note_on_c, 0, 67, 73
4, 109200, Note_on_c, 0, 67, 0
4, 109200, Note_on_c, 0, 59, 0
4, 109200, Note_on_c, 0, 56, 0
4, 109200, Note_on_c, 0, 56, 73
4, 109200, Note_on_c, 0, 59, 73
4, 109200, Note_on_c, 0, 65, 73
4, 109440, Note_on_c, 0, 65, 0
4, 109440, Note_on_c, 0, 59, 0
4, 109440, Note_on_c, 0, 56, 0
4, 109440, Note_on_c, 0, 36, 73
4, 109440, Note_on_c, 0, 48, 73
4, 109920, Note_on_c, 0, 48, 0
4, 109920, Note_on_c, 0, 36, 0
4, 111360, Note_on_c, 0, 36, 73
4, 111360, Note_on_c, 0, 48, 73
4, 111600, Note_on_c, 0, 48, 0
4, 111600, Note_on_c, 0, 36, 0
4, 111840, Note_on_c, 0, 36, 73
4, 111840, Note_on_c, 0, 48, 73
4, 112080, Note_on_c, 0, 48, 0
4, 112080, Note_on_c, 0, 36, 0
4, 112800, Note_on_c, 0, 36, 73
4, 112800, Note_on_c, 0, 48, 73
4, 113280, Note_on_c, 0, 48, 0
4, 113280, Note_on_c, 0, 36, 0
4, 113280, Note_on_c, 0, 48, 73
4, 113280, Note_on_c, 0, 55, 73
4, 113280, Note_on_c, 0, 58, 73
4, 113760, Note_on_c, 0, 58, 0
4, 113760, Note_on_c, 0, 55, 0
4, 113760, Note_on_c, 0, 48, 0
4, 113760, Note_on_c, 0, 48, 73
4, 113760, Note_on_c, 0, 55, 73
4, 113760, Note_on_c, 0, 58, 73
4, 114240, Note_on_c, 0, 58, 0
4, 114240, Note_on_c, 0, 55, 0
4, 114240, Note_on_c, 0, 48, 0
4, 114240, Note_on_c, 0, 48, 73
4, 114240, Note_on_c, 0, 55, 73
4, 114240, Note_on_c, 0, 58, 73
4, 114720, Note_on_c, 0, 58, 0
4, 114720, Note_on_c, 0, 55, 0
4, 114720, Note_on_c, 0, 48, 0
4, 114720, Note_on_c, 0, 48, 99
4, 114720, Note_on_c, 0, 55, 99
4, 114720, Note_on_c, 0, 58, 99
4, 115200, Note_on_c, 0, 58, 0
4, 115200, Note_on_c, 0, 55, 0
4, 115200, Note_on_c, 0, 48, 0
4, 115200, End_track
5, 0, Start_track
5, 0, Title_t, "Grand Piano"
5, 0, Program_c, 0, 0
5, 0, Control_c, 0, 7, 115
5, 0, Control_c, 0, 10, 47
5, 17280, Note_on_c, 0, 51, 75
5, 17327, Note_on_c, 0, 51, 0
5, 17520, Note_on_c, 0, 51, 75
5, 17567, Note_on_c, 0, 51, 0
5, 17760, Note_on_c, 0, 54, 75
5, 17807, Note_on_c, 0, 54, 0
5, 18000, Note_on_c, 0, 63, 75
5, 18047, Note_on_c, 0, 63, 0
5, 18240, Note_on_c, 0, 44, 75
5, 18287, Note_on_c, 0, 44, 0
5, 18480, Note_on_c, 0, 51, 75
5, 18527, Note_on_c, 0, 51, 0
5, 18720, Note_on_c, 0, 56, 75
5, 18767, Note_on_c, 0, 56, 0
5, 18960, Note_on_c, 0, 63, 75
5, 19007, Note_on_c, 0, 63, 0
5, 32640, Note_on_c, 0, 51, 75
5, 32687, Note_on_c, 0, 51, 0
5, 32880, Note_on_c, 0, 51, 75
5, 32927, Note_on_c, 0, 51, 0
5, 33120, Note_on_c, 0, 54, 75
5, 33167, Note_on_c, 0, 54, 0
5, 33360, Note_on_c, 0, 63, 75
5, 33407, Note_on_c, 0, 63, 0
5, 33600, Note_on_c, 0, 44, 75
5, 33647, Note_on_c, 0, 44, 0
5, 33840, Note_on_c, 0, 51, 75
5, 33887, Note_on_c, 0, 51, 0
5, 34080, Note_on_c, 0, 56, 75
5, 34127, Note_on_c, 0, 56, 0
5, 34320, Note_on_c, 0, 63, 75
5, 34367, Note_on_c, 0, 63, 0
5, 34560, Note_on_c, 0, 56, 75
5, 34656, Note_on_c, 0, 56, 0
5, 35040, Note_on_c, 0, 54, 75
5, 35136, Note_on_c, 0, 54, 0
5, 35520, Note_on_c, 0, 53, 75
5, 35616, Note_on_c, 0, 53, 0
5, 36000, Note_on_c, 0, 52, 75
5, 36096, Note_on_c, 0, 52, 0
5, 36480, Note_on_c, 0, 51, 75
5, 36576, Note_on_c, 0, 51, 0
5, 36960, Note_on_c, 0, 56, 75
5, 37056, Note_on_c, 0, 56, 0
5, 37440, Note_on_c, 0, 49, 75
5, 37536, Note_on_c, 0, 49, 0
5, 37920, Note_on_c, 0, 56, 75
5, 38016, Note_on_c, 0, 56, 0
5, 38400, Note_on_c, 0, 56, 75
5, 38496, Note_on_c, 0, 56, 0
5, 38880, Note_on_c, 0, 54, 75
5, 38976, Note_on_c, 0, 54, 0
5, 39360, Note_on_c, 0, 53, 75
5, 39456, Note_on_c, 0, 53, 0
5, 39840, Note_on_c, 0, 52, 75
5, 39936, Note_on_c, 0, 52, 0
5, 40320, Note_on_c, 0, 51, 75
5, 40416, Note_on_c, 0, 51, 0
5, 40800, Note_on_c, 0, 51, 75
5, 40896, Note_on_c, 0, 51, 0
5, 41280, Note_on_c, 0, 44, 75
5, 41376, Note_on_c, 0, 44, 0
5, 41760, Note_on_c, 0, 56, 75
5, 41856, Note_on_c, 0, 56, 0
5, 82560, Note_on_c, 0, 65, 88
5, 82560, Note_on_c, 0, 68, 88
5, 82560, Note_on_c, 0, 72, 88
5, 82800, Note_on_c, 0, 72, 0
5, 82800, Note_on_c, 0, 68, 0
5, 82800, Note_on_c, 0, 65, 0
5, 86400, Control_c, 0, 64, 127
5, 86400, Note_on_c, 0, 53, 62
5, 86400, Note_on_c, 0, 56, 62
5, 86480, Note_on_c, 0, 56, 0
5, 86480, Note_on_c, 0, 53, 0
5, 86480, Note_on_c, 0, 60, 62
5, 86559, Note_on_c, 0, 60, 0
5, 86559, Note_on_c, 0, 53, 62
5, 86559, Note_on_c, 0, 56, 62
5, 86640, Note_on_c, 0, 56, 0
5, 86640, Note_on_c, 0, 53, 0
5, 86640, Note_on_c, 0, 60, 62
5, 86720, Note_on_c, 0, 60, 0
5, 86720, Note_on_c, 0, 53, 62
5, 86720, Note_on_c, 0, 56, 62
5, 86799, Note_on_c, 0, 56, 0
5, 86799, Note_on_c, 0, 53, 0
5, 86799, Note_on_c, 0, 60, 62
5, 86880, Note_on_c, 0, 60, 0
5, 86880, Note_on_c, 0, 53, 62
5, 86880, Note_on_c, 0, 56, 62
5, 86960, Note_on_c, 0, 56, 0
5, 86960, Note_on_c, 0, 53, 0
5, 86960, Note_on_c, 0, 60, 62
5, 87039, Note_on_c, 0, 60, 0
5, 87039, Note_on_c, 0, 53, 62
5, 87039, Note_on_c, 0, 56, 62
5, 87120, Note_on_c, 0, 56, 0
5, 87120, Note_on_c, 0, 53, 0
5, 87120, Note_on_c, 0, 60, 62
5, 87200, Note_on_c, 0, 60, 0
5, 87200, Note_on_c, 0, 53, 62
5, 87200, Note_on_c, 0, 56, 62
5, 87279, Note_on_c, 0, 56, 0
5, 87279, Note_on_c, 0, 53, 0
5, 87279, Note_on_c, 0, 60, 62
5, 87360, Note_on_c, 0, 60, 0
5, 87360, Note_on_c, 0, 53, 62
5, 87360, Note_on_c, 0, 56, 62
5, 87440, Note_on_c, 0, 56, 0
5, 87440, Note_on_c, 0, 53, 0
5, 87440, Note_on_c, 0, 60, 62
5, 87519, Note_on_c, 0, 60, 0
5, 87519, Note_on_c, 0, 53, 62
5, 87519, Note_on_c, 0, 56, 62
5, 87600, Note_on_c, 0, 56, 0
5, 87600, Note_on_c, 0, 53, 0
5, 87600, Note_on_c, 0, 60, 62
5, 87680, Note_on_c, 0, 60, 0
5, 87680, Note_on_c, 0, 53, 62
5, 87680, Note_on_c, 0, 56, 62
5, 87759, Note_on_c, 0, 56, 0
5, 87759, Note_on_c, 0, 53, 0
5, 87759, Note_on_c, 0, 60, 62
5, 87840, Note_on_c, 0, 60, 0
5, 87840, Note_on_c, 0, 53, 62
5, 87840, Note_on_c, 0, 56, 62
5, 87920, Note_on_c, 0, 56, 0
5, 87920, Note_on_c, 0, 53, 0
5, 87920, Note_on_c, 0, 60, 62
5, 87999, Note_on_c, 0, 60, 0
5, 87999, Note_on_c, 0, 53, 62
5, 87999, Note_on_c, 0, 56, 62
5, 88080, Note_on_c, 0, 56, 0
5, 88080, Note_on_c, 0, 53, 0
5, 88080, Note_on_c, 0, 60, 62
5, 88160, Note_on_c, 0, 60, 0
5, 88160, Note_on_c, 0, 53, 62
5, 88160, Note_on_c, 0, 56, 62
5, 88239, Note_on_c, 0, 56, 0
5, 88239, Note_on_c, 0, 53, 0
5, 88239, Control_c, 0, 64, 0
5, 88239, Note_on_c, 0, 60, 62
5, 88320, Note_on_c, 0, 60, 0
5, 93600, Note_on_c, 0, 29, 88
5, 93600, Note_on_c, 0, 41, 88
5, 94560, Note_on_c, 0, 41, 0
5, 94560, Note_on_c, 0, 29, 0
5, 94560, End_track
0, 0, End_of_file
