0, 0, Header, 1, 5, 480
1, 0, Start_track
1, 0, Title_t, "tchaikovsky swan lake act3 22 danse napolitaine"
1, 0, Copyright_t, "Adaptation for Disklavier pianos, by: Robert C. Kuhmann (c) 2012."
1, 0, Text_t, "Seq. (c) by: Segundo G. Yogore,  2007\012"
1, 0, Time_signature, 4, 2, 24, 8
1, 0, Key_signature, 2, "major"
1, 0, Tempo, 521739
1, 5760, Time_signature, 6, 2, 24, 8
1, 8640, Time_signature, 4, 2, 24, 8
1, 8640, Tempo, 631579
1, 43200, Time_signature, 5, 2, 24, 8
1, 45600, Time_signature, 4, 2, 24, 8
1, 45600, Tempo, 480000
1, 59040, Time_signature, 6, 3, 12, 8
1, 59040, Tempo, 260870
1, 156960, Time_signature, 12, 2, 24, 8
1, 156960, End_track
2, 0, Start_track
2, 0, Title_t, "Grand Piano"
2, 0, Program_c, 0, 0
2, 0, Control_c, 0, 7, 115
2, 0, Control_c, 0, 10, 86
2, 0, Note_on_c, 0, 69, 94
2, 0, Note_on_c, 0, 73, 94
2, 0, Note_on_c, 0, 78, 94
2, 0, Note_on_c, 0, 81, 94
2, 960, Note_on_c, 0, 81, 0
2, 960, Note_on_c, 0, 69, 0
2, 960, Note_on_c, 0, 73, 0
2, 960, Note_on_c, 0, 78, 0
2, 960, Note_on_c, 0, 69, 94
2, 960, Note_on_c, 0, 72, 94
2, 960, Note_on_c, 0, 75, 94
2, 960, Note_on_c, 0, 81, 94
2, 1920, Note_on_c, 0, 81, 0
2, 1920, Note_on_c, 0, 69, 0
2, 1920, Note_on_c, 0, 72, 0
2, 1920, Note_on_c, 0, 75, 0
2, 1920, Note_on_c, 0, 76, 94
2, 1920, Note_on_c, 0, 81, 94
2, 1920, Note_on_c, 0, 85, 94
2, 1920, Note_on_c, 0, 88, 94
2, 2400, Note_on_c, 0, 88, 0
2, 2400, Note_on_c, 0, 76, 0
2, 2400, Note_on_c, 0, 81, 0
2, 2400, Note_on_c, 0, 85, 0
2, 2400, Note_on_c, 0, 76, 94
2, 2400, Note_on_c, 0, 81, 94
2, 2400, Note_on_c, 0, 85, 94
2, 2400, Note_on_c, 0, 88, 94
2, 2880, Note_on_c, 0, 88, 0
2, 2880, Note_on_c, 0, 76, 0
2, 2880, Note_on_c, 0, 81, 0
2, 2880, Note_on_c, 0, 85, 0
2, 3360, Control_c, 0, 64, 127
2, 3360, Note_on_c, 0, 64, 94
2, 3480, Note_on_c, 0, 64, 0
2, 3480, Note_on_c, 0, 66, 94
2, 3600, Note_on_c, 0, 66, 0
2, 3600, Note_on_c, 0, 68, 94
2, 3720, Note_on_c, 0, 68, 0
2, 3720, Control_c, 0, 64, 0
2, 3720, Note_on_c, 0, 69, 94
2, 3840, Note_on_c, 0, 69, 0
2, 3840, Control_c, 0, 64, 127
2, 3840, Note_on_c, 0, 71, 94
2, 3960, Note_on_c, 0, 71, 0
2, 3960, Note_on_c, 0, 69, 94
2, 4080, Note_on_c, 0, 69, 0
2, 4080, Note_on_c, 0, 68, 94
2, 4200, Note_on_c, 0, 68, 0
2, 4200, Control_c, 0, 64, 0
2, 4200, Note_on_c, 0, 66, 94
2, 4200, Note_on_c, 0, 69, 94
2, 4320, Note_on_c, 0, 69, 0
2, 4320, Note_on_c, 0, 66, 0
2, 4320, Control_c, 0, 64, 127
2, 4320, Note_on_c, 0, 68, 94
2, 4320, Note_on_c, 0, 71, 94
2, 4440, Note_on_c, 0, 71, 0
2, 4440, Note_on_c, 0, 68, 0
2, 4440, Note_on_c, 0, 69, 94
2, 4440, Note_on_c, 0, 73, 94
2, 4560, Note_on_c, 0, 73, 0
2, 4560, Note_on_c, 0, 69, 0
2, 4560, Note_on_c, 0, 71, 94
2, 4560, Note_on_c, 0, 74, 94
2, 4680, Note_on_c, 0, 74, 0
2, 4680, Note_on_c, 0, 71, 0
2, 4680, Control_c, 0, 64, 0
2, 4680, Note_on_c, 0, 73, 94
2, 4680, Note_on_c, 0, 76, 94
2, 4800, Note_on_c, 0, 76, 0
2, 4800, Note_on_c, 0, 73, 0
2, 4800, Control_c, 0, 64, 127
2, 4800, Note_on_c, 0, 74, 94
2, 4800, Note_on_c, 0, 78, 94
2, 4920, Note_on_c, 0, 78, 0
2, 4920, Note_on_c, 0, 74, 0
2, 4920, Note_on_c, 0, 73, 94
2, 4920, Note_on_c, 0, 76, 94
2, 5040, Note_on_c, 0, 76, 0
2, 5040, Note_on_c, 0, 73, 0
2, 5040, Note_on_c, 0, 71, 94
2, 5040, Note_on_c, 0, 74, 94
2, 5160, Note_on_c, 0, 74, 0
2, 5160, Note_on_c, 0, 71, 0
2, 5160, Control_c, 0, 64, 0
2, 5160, Note_on_c, 0, 73, 94
2, 5160, Note_on_c, 0, 76, 94
2, 5280, Note_on_c, 0, 76, 0
2, 5280, Note_on_c, 0, 73, 0
2, 5280, Control_c, 0, 64, 127
2, 5280, Note_on_c, 0, 74, 94
2, 5280, Note_on_c, 0, 78, 94
2, 5400, Note_on_c, 0, 78, 0
2, 5400, Note_on_c, 0, 74, 0
2, 5400, Note_on_c, 0, 76, 94
2, 5400, Note_on_c, 0, 80, 94
2, 5520, Note_on_c, 0, 80, 0
2, 5520, Note_on_c, 0, 76, 0
2, 5520, Note_on_c, 0, 78, 94
2, 5520, Note_on_c, 0, 81, 94
2, 5640, Note_on_c, 0, 81, 0
2, 5640, Note_on_c, 0, 78, 0
2, 5640, Control_c, 0, 64, 0
2, 5640, Note_on_c, 0, 80, 94
2, 5640, Note_on_c, 0, 83, 94
2, 5760, Note_on_c, 0, 83, 0
2, 5760, Note_on_c, 0, 80, 0
2, 5760, Note_on_c, 0, 81, 94
2, 5760, Note_on_c, 0, 85, 94
2, 6240, Note_on_c, 0, 85, 0
2, 6240, Note_on_c, 0, 81, 0
2, 6240, Note_on_c, 0, 57, 94
2, 6720, Note_on_c, 0, 57, 0
2, 11760, Note_on_c, 0, 69, 68
2, 11880, Note_on_c, 0, 69, 0
2, 11880, Note_on_c, 0, 71, 68
2, 12000, Note_on_c, 0, 71, 0
2, 12000, Note_on_c, 0, 74, 68
2, 12120, Note_on_c, 0, 74, 0
2, 12120, Note_on_c, 0, 73, 68
2, 12240, Note_on_c, 0, 73, 0
2, 12240, Note_on_c, 0, 71, 68
2, 12360, Note_on_c, 0, 71, 0
2, 12360, Note_on_c, 0, 69, 68
2, 12480, Note_on_c, 0, 69, 0
2, 12480, Note_on_c, 0, 73, 68
2, 12720, Note_on_c, 0, 73, 0
2, 12960, Note_on_c, 0, 73, 94
2, 13440, Note_on_c, 0, 73, 0
2, 13680, Note_on_c, 0, 71, 68
2, 13800, Note_on_c, 0, 71, 0
2, 13800, Note_on_c, 0, 73, 68
2, 13920, Note_on_c, 0, 73, 0
2, 13920, Note_on_c, 0, 74, 68
2, 14040, Note_on_c, 0, 74, 0
2, 14040, Note_on_c, 0, 73, 68
2, 14160, Note_on_c, 0, 73, 0
2, 14160, Note_on_c, 0, 71, 68
2, 14280, Note_on_c, 0, 71, 0
2, 14280, Note_on_c, 0, 73, 68
2, 14400, Note_on_c, 0, 73, 0
2, 14400, Note_on_c, 0, 71, 68
2, 14640, Note_on_c, 0, 71, 0
2, 14880, Note_on_c, 0, 69, 94
2, 15360, Note_on_c, 0, 69, 0
2, 15600, Note_on_c, 0, 69, 68
2, 15720, Note_on_c, 0, 69, 0
2, 15720, Note_on_c, 0, 69, 68
2, 15840, Note_on_c, 0, 69, 0
2, 15840, Note_on_c, 0, 71, 68
2, 15960, Note_on_c, 0, 71, 0
2, 15960, Note_on_c, 0, 69, 68
2, 16080, Note_on_c, 0, 69, 0
2, 16080, Note_on_c, 0, 67, 68
2, 16200, Note_on_c, 0, 67, 0
2, 16200, Note_on_c, 0, 66, 68
2, 16320, Note_on_c, 0, 66, 0
2, 16320, Note_on_c, 0, 69, 68
2, 16560, Note_on_c, 0, 69, 0
2, 16800, Note_on_c, 0, 67, 94
2, 17280, Note_on_c, 0, 67, 0
2, 17520, Note_on_c, 0, 67, 68
2, 17640, Note_on_c, 0, 67, 0
2, 17640, Note_on_c, 0, 67, 68
2, 17760, Note_on_c, 0, 67, 0
2, 17760, Note_on_c, 0, 69, 68
2, 17880, Note_on_c, 0, 69, 0
2, 17880, Note_on_c, 0, 67, 68
2, 18000, Note_on_c, 0, 67, 0
2, 18000, Note_on_c, 0, 66, 68
2, 18120, Note_on_c, 0, 66, 0
2, 18120, Note_on_c, 0, 64, 68
2, 18240, Note_on_c, 0, 64, 0
2, 18240, Note_on_c, 0, 66, 68
2, 18480, Note_on_c, 0, 66, 0
2, 18720, Note_on_c, 0, 62, 94
2, 20160, Note_on_c, 0, 62, 0
2, 21360, Note_on_c, 0, 69, 68
2, 21480, Note_on_c, 0, 69, 0
2, 21480, Note_on_c, 0, 71, 68
2, 21600, Note_on_c, 0, 71, 0
2, 21600, Note_on_c, 0, 74, 68
2, 21720, Note_on_c, 0, 74, 0
2, 21720, Note_on_c, 0, 73, 68
2, 21840, Note_on_c, 0, 73, 0
2, 21840, Note_on_c, 0, 71, 68
2, 21960, Note_on_c, 0, 71, 0
2, 21960, Note_on_c, 0, 69, 68
2, 22080, Note_on_c, 0, 69, 0
2, 22080, Note_on_c, 0, 73, 68
2, 22320, Note_on_c, 0, 73, 0
2, 22560, Note_on_c, 0, 73, 94
2, 23040, Note_on_c, 0, 73, 0
2, 23280, Note_on_c, 0, 71, 68
2, 23400, Note_on_c, 0, 71, 0
2, 23400, Note_on_c, 0, 73, 68
2, 23520, Note_on_c, 0, 73, 0
2, 23520, Note_on_c, 0, 74, 68
2, 23640, Note_on_c, 0, 74, 0
2, 23640, Note_on_c, 0, 73, 68
2, 23760, Note_on_c, 0, 73, 0
2, 23760, Note_on_c, 0, 71, 68
2, 23880, Note_on_c, 0, 71, 0
2, 23880, Note_on_c, 0, 73, 68
2, 24000, Note_on_c, 0, 73, 0
2, 24000, Note_on_c, 0, 71, 68
2, 24240, Note_on_c, 0, 71, 0
2, 24480, Note_on_c, 0, 69, 94
2, 24960, Note_on_c, 0, 69, 0
2, 25200, Note_on_c, 0, 69, 68
2, 25320, Note_on_c, 0, 69, 0
2, 25320, Note_on_c, 0, 69, 68
2, 25440, Note_on_c, 0, 69, 0
2, 25440, Note_on_c, 0, 71, 68
2, 25560, Note_on_c, 0, 71, 0
2, 25560, Note_on_c, 0, 69, 68
2, 25680, Note_on_c, 0, 69, 0
2, 25680, Note_on_c, 0, 67, 68
2, 25800, Note_on_c, 0, 67, 0
2, 25800, Note_on_c, 0, 66, 68
2, 25920, Note_on_c, 0, 66, 0
2, 25920, Note_on_c, 0, 69, 68
2, 26160, Note_on_c, 0, 69, 0
2, 26400, Note_on_c, 0, 67, 94
2, 26880, Note_on_c, 0, 67, 0
2, 27120, Note_on_c, 0, 67, 68
2, 27240, Note_on_c, 0, 67, 0
2, 27240, Note_on_c, 0, 67, 68
2, 27360, Note_on_c, 0, 67, 0
2, 27360, Note_on_c, 0, 69, 68
2, 27480, Note_on_c, 0, 69, 0
2, 27480, Note_on_c, 0, 67, 68
2, 27600, Note_on_c, 0, 67, 0
2, 27600, Note_on_c, 0, 66, 68
2, 27720, Note_on_c, 0, 66, 0
2, 27720, Note_on_c, 0, 64, 68
2, 27840, Note_on_c, 0, 64, 0
2, 27840, Note_on_c, 0, 66, 68
2, 28080, Note_on_c, 0, 66, 0
2, 28320, Note_on_c, 0, 62, 94
2, 29760, Note_on_c, 0, 62, 0
2, 29760, Note_on_c, 0, 71, 81
2, 30000, Note_on_c, 0, 71, 0
2, 30240, Note_on_c, 0, 71, 107
2, 30720, Note_on_c, 0, 71, 0
2, 30960, Note_on_c, 0, 73, 81
2, 31080, Note_on_c, 0, 73, 0
2, 31080, Note_on_c, 0, 74, 81
2, 31200, Note_on_c, 0, 74, 0
2, 31200, Note_on_c, 0, 76, 81
2, 31320, Note_on_c, 0, 76, 0
2, 31320, Note_on_c, 0, 74, 81
2, 31440, Note_on_c, 0, 74, 0
2, 31440, Note_on_c, 0, 73, 81
2, 31560, Note_on_c, 0, 73, 0
2, 31560, Note_on_c, 0, 71, 81
2, 31680, Note_on_c, 0, 71, 0
2, 31680, Note_on_c, 0, 71, 81
2, 31920, Note_on_c, 0, 71, 0
2, 32160, Note_on_c, 0, 69, 107
2, 32640, Note_on_c, 0, 69, 0
2, 32880, Note_on_c, 0, 68, 81
2, 33000, Note_on_c, 0, 68, 0
2, 33000, Note_on_c, 0, 69, 81
2, 33120, Note_on_c, 0, 69, 0
2, 33120, Note_on_c, 0, 71, 81
2, 33240, Note_on_c, 0, 71, 0
2, 33240, Note_on_c, 0, 69, 81
2, 33360, Note_on_c, 0, 69, 0
2, 33360, Note_on_c, 0, 67, 81
2, 33480, Note_on_c, 0, 67, 0
2, 33480, Note_on_c, 0, 66, 81
2, 33600, Note_on_c, 0, 66, 0
2, 33600, Note_on_c, 0, 69, 81
2, 33840, Note_on_c, 0, 69, 0
2, 34080, Note_on_c, 0, 67, 107
2, 34560, Note_on_c, 0, 67, 0
2, 34800, Note_on_c, 0, 66, 81
2, 34920, Note_on_c, 0, 66, 0
2, 34920, Note_on_c, 0, 67, 81
2, 35040, Note_on_c, 0, 67, 0
2, 35040, Note_on_c, 0, 69, 81
2, 35160, Note_on_c, 0, 69, 0
2, 35160, Note_on_c, 0, 67, 81
2, 35280, Note_on_c, 0, 67, 0
2, 35280, Note_on_c, 0, 66, 81
2, 35400, Note_on_c, 0, 66, 0
2, 35400, Note_on_c, 0, 64, 81
2, 35520, Note_on_c, 0, 64, 0
2, 35520, Note_on_c, 0, 66, 81
2, 35760, Note_on_c, 0, 66, 0
2, 36000, Note_on_c, 0, 62, 107
2, 36480, Note_on_c, 0, 62, 0
2, 36960, Note_on_c, 0, 62, 81
2, 37320, Note_on_c, 0, 62, 0
2, 37320, Note_on_c, 0, 62, 81
2, 37440, Note_on_c, 0, 62, 0
2, 37440, Note_on_c, 0, 71, 81
2, 37680, Note_on_c, 0, 71, 0
2, 37920, Note_on_c, 0, 71, 107
2, 38400, Note_on_c, 0, 71, 0
2, 38640, Note_on_c, 0, 73, 81
2, 38760, Note_on_c, 0, 73, 0
2, 38760, Note_on_c, 0, 74, 81
2, 38880, Note_on_c, 0, 74, 0
2, 38880, Note_on_c, 0, 76, 81
2, 39000, Note_on_c, 0, 76, 0
2, 39000, Note_on_c, 0, 74, 81
2, 39120, Note_on_c, 0, 74, 0
2, 39120, Note_on_c, 0, 73, 81
2, 39240, Note_on_c, 0, 73, 0
2, 39240, Note_on_c, 0, 71, 81
2, 39360, Note_on_c, 0, 71, 0
2, 39360, Note_on_c, 0, 71, 81
2, 39600, Note_on_c, 0, 71, 0
2, 39840, Note_on_c, 0, 69, 107
2, 40320, Note_on_c, 0, 69, 0
2, 40560, Note_on_c, 0, 68, 81
2, 40680, Note_on_c, 0, 68, 0
2, 40680, Note_on_c, 0, 69, 81
2, 40800, Note_on_c, 0, 69, 0
2, 40800, Note_on_c, 0, 68, 81
2, 40920, Note_on_c, 0, 68, 0
2, 40920, Note_on_c, 0, 69, 81
2, 41040, Note_on_c, 0, 69, 0
2, 41040, Note_on_c, 0, 73, 81
2, 41160, Note_on_c, 0, 73, 0
2, 41160, Note_on_c, 0, 71, 81
2, 41280, Note_on_c, 0, 71, 0
2, 41280, Note_on_c, 0, 69, 81
2, 41520, Note_on_c, 0, 69, 0
2, 41760, Note_on_c, 0, 67, 107
2, 42240, Note_on_c, 0, 67, 0
2, 42480, Note_on_c, 0, 66, 81
2, 42600, Note_on_c, 0, 66, 0
2, 42600, Note_on_c, 0, 67, 81
2, 42720, Note_on_c, 0, 67, 0
2, 42720, Note_on_c, 0, 66, 81
2, 42840, Note_on_c, 0, 66, 0
2, 42840, Note_on_c, 0, 67, 81
2, 42960, Note_on_c, 0, 67, 0
2, 42960, Note_on_c, 0, 71, 81
2, 43080, Note_on_c, 0, 71, 0
2, 43080, Note_on_c, 0, 69, 81
2, 43200, Note_on_c, 0, 69, 0
2, 43200, Note_on_c, 0, 62, 81
2, 43200, Note_on_c, 0, 66, 81
2, 43440, Note_on_c, 0, 66, 0
2, 43440, Note_on_c, 0, 62, 0
2, 45360, Note_on_c, 0, 74, 81
2, 45600, Note_on_c, 0, 74, 0
2, 45600, Note_on_c, 0, 71, 81
2, 45840, Note_on_c, 0, 71, 0
2, 45840, Note_on_c, 0, 74, 81
2, 46080, Note_on_c, 0, 74, 0
2, 46080, Note_on_c, 0, 71, 81
2, 46320, Note_on_c, 0, 71, 0
2, 46320, Note_on_c, 0, 74, 81
2, 46560, Note_on_c, 0, 74, 0
2, 46560, Note_on_c, 0, 71, 81
2, 46800, Note_on_c, 0, 71, 0
2, 46800, Note_on_c, 0, 74, 81
2, 46823, Note_on_c, 0, 74, 0
2, 46920, Note_on_c, 0, 74, 81
2, 46943, Note_on_c, 0, 74, 0
2, 47040, Note_on_c, 0, 76, 81
2, 47160, Note_on_c, 0, 76, 0
2, 47160, Note_on_c, 0, 74, 81
2, 47280, Note_on_c, 0, 74, 0
2, 47280, Note_on_c, 0, 73, 81
2, 47303, Note_on_c, 0, 73, 0
2, 47400, Note_on_c, 0, 71, 81
2, 47423, Note_on_c, 0, 71, 0
2, 47520, Note_on_c, 0, 71, 81
2, 47640, Note_on_c, 0, 71, 0
2, 47640, Note_on_c, 0, 69, 81
2, 47760, Note_on_c, 0, 69, 0
2, 47760, Note_on_c, 0, 69, 81
2, 47783, Note_on_c, 0, 69, 0
2, 47880, Note_on_c, 0, 69, 81
2, 47903, Note_on_c, 0, 69, 0
2, 48000, Note_on_c, 0, 71, 81
2, 48120, Note_on_c, 0, 71, 0
2, 48120, Note_on_c, 0, 69, 81
2, 48240, Note_on_c, 0, 69, 0
2, 48240, Note_on_c, 0, 69, 81
2, 48263, Note_on_c, 0, 69, 0
2, 48360, Note_on_c, 0, 69, 81
2, 48383, Note_on_c, 0, 69, 0
2, 48480, Note_on_c, 0, 71, 81
2, 48600, Note_on_c, 0, 71, 0
2, 48600, Note_on_c, 0, 69, 81
2, 48720, Note_on_c, 0, 69, 0
2, 48720, Note_on_c, 0, 69, 81
2, 48743, Note_on_c, 0, 69, 0
2, 48840, Note_on_c, 0, 69, 81
2, 48863, Note_on_c, 0, 69, 0
2, 48960, Note_on_c, 0, 71, 81
2, 49080, Note_on_c, 0, 71, 0
2, 49080, Note_on_c, 0, 69, 81
2, 49200, Note_on_c, 0, 69, 0
2, 49200, Note_on_c, 0, 67, 81
2, 49223, Note_on_c, 0, 67, 0
2, 49320, Note_on_c, 0, 66, 81
2, 49343, Note_on_c, 0, 66, 0
2, 49440, Note_on_c, 0, 69, 81
2, 49560, Note_on_c, 0, 69, 0
2, 49560, Note_on_c, 0, 67, 81
2, 49680, Note_on_c, 0, 67, 0
2, 49680, Note_on_c, 0, 67, 81
2, 49703, Note_on_c, 0, 67, 0
2, 49800, Note_on_c, 0, 67, 81
2, 49823, Note_on_c, 0, 67, 0
2, 49920, Note_on_c, 0, 69, 81
2, 50040, Note_on_c, 0, 69, 0
2, 50040, Note_on_c, 0, 67, 81
2, 50160, Note_on_c, 0, 67, 0
2, 50160, Note_on_c, 0, 67, 81
2, 50183, Note_on_c, 0, 67, 0
2, 50280, Note_on_c, 0, 67, 81
2, 50303, Note_on_c, 0, 67, 0
2, 50400, Note_on_c, 0, 69, 81
2, 50520, Note_on_c, 0, 69, 0
2, 50520, Note_on_c, 0, 67, 81
2, 50640, Note_on_c, 0, 67, 0
2, 50640, Note_on_c, 0, 67, 81
2, 50663, Note_on_c, 0, 67, 0
2, 50760, Note_on_c, 0, 67, 81
2, 50783, Note_on_c, 0, 67, 0
2, 50880, Note_on_c, 0, 69, 81
2, 51000, Note_on_c, 0, 69, 0
2, 51000, Note_on_c, 0, 67, 81
2, 51120, Note_on_c, 0, 67, 0
2, 51120, Note_on_c, 0, 66, 81
2, 51143, Note_on_c, 0, 66, 0
2, 51240, Note_on_c, 0, 64, 81
2, 51263, Note_on_c, 0, 64, 0
2, 51360, Note_on_c, 0, 62, 68
2, 51383, Note_on_c, 0, 62, 0
2, 51480, Note_on_c, 0, 62, 68
2, 51503, Note_on_c, 0, 62, 0
2, 51600, Note_on_c, 0, 64, 68
2, 51623, Note_on_c, 0, 64, 0
2, 51720, Note_on_c, 0, 66, 68
2, 51743, Note_on_c, 0, 66, 0
2, 51840, Note_on_c, 0, 67, 81
2, 51863, Note_on_c, 0, 67, 0
2, 51960, Note_on_c, 0, 69, 81
2, 51983, Note_on_c, 0, 69, 0
2, 52080, Note_on_c, 0, 71, 81
2, 52103, Note_on_c, 0, 71, 0
2, 52200, Note_on_c, 0, 73, 81
2, 52223, Note_on_c, 0, 73, 0
2, 52320, Note_on_c, 0, 74, 94
2, 52343, Note_on_c, 0, 74, 0
2, 52440, Note_on_c, 0, 74, 94
2, 52463, Note_on_c, 0, 74, 0
2, 52560, Note_on_c, 0, 78, 94
2, 52583, Note_on_c, 0, 78, 0
2, 52680, Note_on_c, 0, 81, 94
2, 52703, Note_on_c, 0, 81, 0
2, 52800, Note_on_c, 0, 86, 94
2, 52847, Note_on_c, 0, 86, 0
2, 53040, Note_on_c, 0, 74, 94
2, 53040, Note_on_c, 0, 86, 94
2, 53280, Note_on_c, 0, 86, 0
2, 53280, Note_on_c, 0, 74, 0
2, 53280, Note_on_c, 0, 83, 94
2, 53520, Note_on_c, 0, 83, 0
2, 53520, Note_on_c, 0, 74, 94
2, 53520, Note_on_c, 0, 86, 94
2, 53760, Note_on_c, 0, 86, 0
2, 53760, Note_on_c, 0, 74, 0
2, 53760, Note_on_c, 0, 83, 94
2, 54000, Note_on_c, 0, 83, 0
2, 54000, Note_on_c, 0, 74, 94
2, 54000, Note_on_c, 0, 86, 94
2, 54240, Note_on_c, 0, 86, 0
2, 54240, Note_on_c, 0, 74, 0
2, 54240, Note_on_c, 0, 83, 94
2, 54480, Note_on_c, 0, 83, 0
2, 54480, Note_on_c, 0, 74, 94
2, 54480, Note_on_c, 0, 86, 94
2, 54527, Note_on_c, 0, 86, 0
2, 54527, Note_on_c, 0, 74, 0
2, 54720, Note_on_c, 0, 76, 94
2, 54720, Note_on_c, 0, 88, 94
2, 54840, Note_on_c, 0, 88, 0
2, 54840, Note_on_c, 0, 76, 0
2, 54840, Note_on_c, 0, 86, 94
2, 54960, Note_on_c, 0, 86, 0
2, 54960, Note_on_c, 0, 85, 94
2, 54983, Note_on_c, 0, 85, 0
2, 55080, Note_on_c, 0, 83, 94
2, 55103, Note_on_c, 0, 83, 0
2, 55200, Note_on_c, 0, 71, 94
2, 55200, Note_on_c, 0, 83, 94
2, 55320, Note_on_c, 0, 83, 0
2, 55320, Note_on_c, 0, 71, 0
2, 55320, Note_on_c, 0, 81, 94
2, 55440, Note_on_c, 0, 81, 0
2, 55440, Note_on_c, 0, 81, 94
2, 55463, Note_on_c, 0, 81, 0
2, 55560, Note_on_c, 0, 81, 94
2, 55583, Note_on_c, 0, 81, 0
2, 55680, Note_on_c, 0, 71, 94
2, 55680, Note_on_c, 0, 83, 94
2, 55800, Note_on_c, 0, 83, 0
2, 55800, Note_on_c, 0, 71, 0
2, 55800, Note_on_c, 0, 81, 94
2, 55920, Note_on_c, 0, 81, 0
2, 55920, Note_on_c, 0, 81, 94
2, 55943, Note_on_c, 0, 81, 0
2, 56040, Note_on_c, 0, 81, 94
2, 56063, Note_on_c, 0, 81, 0
2, 56160, Note_on_c, 0, 71, 94
2, 56160, Note_on_c, 0, 83, 94
2, 56280, Note_on_c, 0, 83, 0
2, 56280, Note_on_c, 0, 71, 0
2, 56280, Note_on_c, 0, 81, 94
2, 56400, Note_on_c, 0, 81, 0
2, 56400, Note_on_c, 0, 81, 94
2, 56423, Note_on_c, 0, 81, 0
2, 56520, Note_on_c, 0, 81, 94
2, 56543, Note_on_c, 0, 81, 0
2, 56640, Note_on_c, 0, 71, 94
2, 56640, Note_on_c, 0, 83, 94
2, 56760, Note_on_c, 0, 83, 0
2, 56760, Note_on_c, 0, 71, 0
2, 56760, Note_on_c, 0, 81, 94
2, 56880, Note_on_c, 0, 81, 0
2, 56880, Note_on_c, 0, 79, 94
2, 56903, Note_on_c, 0, 79, 0
2, 57000, Note_on_c, 0, 78, 94
2, 57023, Note_on_c, 0, 78, 0
2, 57120, Note_on_c, 0, 69, 94
2, 57120, Note_on_c, 0, 81, 94
2, 57240, Note_on_c, 0, 81, 0
2, 57240, Note_on_c, 0, 69, 0
2, 57240, Note_on_c, 0, 79, 94
2, 57360, Note_on_c, 0, 79, 0
2, 57360, Note_on_c, 0, 79, 94
2, 57383, Note_on_c, 0, 79, 0
2, 57480, Note_on_c, 0, 79, 94
2, 57503, Note_on_c, 0, 79, 0
2, 57600, Note_on_c, 0, 69, 94
2, 57600, Note_on_c, 0, 81, 94
2, 57720, Note_on_c, 0, 81, 0
2, 57720, Note_on_c, 0, 69, 0
2, 57720, Note_on_c, 0, 79, 94
2, 57840, Note_on_c, 0, 79, 0
2, 57840, Note_on_c, 0, 79, 94
2, 57863, Note_on_c, 0, 79, 0
2, 57960, Note_on_c, 0, 79, 94
2, 57983, Note_on_c, 0, 79, 0
2, 58080, Note_on_c, 0, 69, 94
2, 58080, Note_on_c, 0, 81, 94
2, 58200, Note_on_c, 0, 81, 0
2, 58200, Note_on_c, 0, 69, 0
2, 58200, Note_on_c, 0, 79, 94
2, 58320, Note_on_c, 0, 79, 0
2, 58320, Note_on_c, 0, 79, 94
2, 58343, Note_on_c, 0, 79, 0
2, 58440, Note_on_c, 0, 79, 94
2, 58463, Note_on_c, 0, 79, 0
2, 58560, Note_on_c, 0, 69, 94
2, 58560, Note_on_c, 0, 81, 94
2, 58680, Note_on_c, 0, 81, 0
2, 58680, Note_on_c, 0, 69, 0
2, 58680, Note_on_c, 0, 79, 94
2, 58800, Note_on_c, 0, 79, 0
2, 58800, Note_on_c, 0, 78, 94
2, 58823, Note_on_c, 0, 78, 0
2, 58920, Note_on_c, 0, 76, 94
2, 58943, Note_on_c, 0, 76, 0
2, 59040, Note_on_c, 0, 74, 107
2, 59280, Note_on_c, 0, 74, 0
2, 59760, Note_on_c, 0, 74, 107
2, 59760, Note_on_c, 0, 78, 107
2, 59760, Note_on_c, 0, 81, 107
2, 59760, Note_on_c, 0, 86, 107
2, 60000, Note_on_c, 0, 86, 0
2, 60000, Note_on_c, 0, 74, 0
2, 60000, Note_on_c, 0, 78, 0
2, 60000, Note_on_c, 0, 81, 0
2, 60480, Control_c, 0, 64, 127
2, 60480, Note_on_c, 0, 78, 107
2, 60480, Note_on_c, 0, 81, 107
2, 60720, Note_on_c, 0, 81, 0
2, 60720, Note_on_c, 0, 78, 0
2, 60720, Note_on_c, 0, 77, 107
2, 60720, Note_on_c, 0, 80, 107
2, 60960, Note_on_c, 0, 80, 0
2, 60960, Note_on_c, 0, 77, 0
2, 60960, Note_on_c, 0, 78, 107
2, 60960, Note_on_c, 0, 81, 107
2, 61200, Note_on_c, 0, 81, 0
2, 61200, Note_on_c, 0, 78, 0
2, 61200, Control_c, 0, 64, 0
2, 61200, Note_on_c, 0, 79, 107
2, 61200, Note_on_c, 0, 83, 107
2, 61680, Note_on_c, 0, 83, 0
2, 61680, Note_on_c, 0, 79, 0
2, 61680, Note_on_c, 0, 77, 107
2, 61680, Note_on_c, 0, 85, 107
2, 61920, Note_on_c, 0, 85, 0
2, 61920, Note_on_c, 0, 77, 0
2, 61920, Note_on_c, 0, 78, 107
2, 61920, Note_on_c, 0, 81, 107
2, 62160, Note_on_c, 0, 81, 0
2, 62160, Note_on_c, 0, 78, 0
2, 62640, Note_on_c, 0, 74, 107
2, 62640, Note_on_c, 0, 78, 107
2, 62640, Note_on_c, 0, 81, 107
2, 62640, Note_on_c, 0, 86, 107
2, 62880, Note_on_c, 0, 86, 0
2, 62880, Note_on_c, 0, 74, 0
2, 62880, Note_on_c, 0, 78, 0
2, 62880, Note_on_c, 0, 81, 0
2, 63360, Control_c, 0, 64, 127
2, 63360, Note_on_c, 0, 78, 107
2, 63360, Note_on_c, 0, 81, 107
2, 63600, Note_on_c, 0, 81, 0
2, 63600, Note_on_c, 0, 78, 0
2, 63600, Note_on_c, 0, 77, 107
2, 63600, Note_on_c, 0, 80, 107
2, 63840, Note_on_c, 0, 80, 0
2, 63840, Note_on_c, 0, 77, 0
2, 63840, Note_on_c, 0, 78, 107
2, 63840, Note_on_c, 0, 81, 107
2, 64080, Note_on_c, 0, 81, 0
2, 64080, Note_on_c, 0, 78, 0
2, 64080, Control_c, 0, 64, 0
2, 64080, Note_on_c, 0, 79, 107
2, 64080, Note_on_c, 0, 83, 107
2, 64560, Note_on_c, 0, 83, 0
2, 64560, Note_on_c, 0, 79, 0
2, 64560, Note_on_c, 0, 77, 107
2, 64560, Note_on_c, 0, 85, 107
2, 64800, Note_on_c, 0, 85, 0
2, 64800, Note_on_c, 0, 77, 0
2, 64800, Note_on_c, 0, 78, 107
2, 64800, Note_on_c, 0, 81, 107
2, 65040, Note_on_c, 0, 81, 0
2, 65040, Note_on_c, 0, 78, 0
2, 65520, Note_on_c, 0, 74, 107
2, 65520, Note_on_c, 0, 78, 107
2, 65520, Note_on_c, 0, 81, 107
2, 65520, Note_on_c, 0, 86, 107
2, 65760, Note_on_c, 0, 86, 0
2, 65760, Note_on_c, 0, 74, 0
2, 65760, Note_on_c, 0, 78, 0
2, 65760, Note_on_c, 0, 81, 0
2, 66240, Note_on_c, 0, 78, 107
2, 66240, Note_on_c, 0, 81, 107
2, 66480, Note_on_c, 0, 81, 0
2, 66480, Note_on_c, 0, 78, 0
2, 66480, Note_on_c, 0, 76, 107
2, 66480, Note_on_c, 0, 79, 107
2, 66720, Note_on_c, 0, 79, 0
2, 66720, Note_on_c, 0, 76, 0
2, 66720, Note_on_c, 0, 74, 107
2, 66720, Note_on_c, 0, 78, 107
2, 66960, Note_on_c, 0, 78, 0
2, 66960, Note_on_c, 0, 74, 0
2, 66960, Note_on_c, 0, 78, 107
2, 66960, Note_on_c, 0, 81, 107
2, 67200, Note_on_c, 0, 81, 0
2, 67200, Note_on_c, 0, 78, 0
2, 67200, Note_on_c, 0, 76, 107
2, 67200, Note_on_c, 0, 79, 107
2, 67440, Note_on_c, 0, 79, 0
2, 67440, Note_on_c, 0, 76, 0
2, 67440, Note_on_c, 0, 74, 107
2, 67440, Note_on_c, 0, 78, 107
2, 67680, Note_on_c, 0, 78, 0
2, 67680, Note_on_c, 0, 74, 0
2, 67680, Note_on_c, 0, 78, 107
2, 67680, Note_on_c, 0, 81, 107
2, 67920, Note_on_c, 0, 81, 0
2, 67920, Note_on_c, 0, 78, 0
2, 67920, Note_on_c, 0, 76, 107
2, 67920, Note_on_c, 0, 79, 107
2, 68160, Note_on_c, 0, 79, 0
2, 68160, Note_on_c, 0, 76, 0
2, 68160, Note_on_c, 0, 74, 107
2, 68160, Note_on_c, 0, 78, 107
2, 68400, Note_on_c, 0, 78, 0
2, 68400, Note_on_c, 0, 74, 0
2, 68400, Note_on_c, 0, 78, 107
2, 68400, Note_on_c, 0, 81, 107
2, 68640, Note_on_c, 0, 81, 0
2, 68640, Note_on_c, 0, 78, 0
2, 68640, Note_on_c, 0, 76, 107
2, 68640, Note_on_c, 0, 79, 107
2, 68880, Note_on_c, 0, 79, 0
2, 68880, Note_on_c, 0, 76, 0
2, 68880, Note_on_c, 0, 74, 107
2, 68880, Note_on_c, 0, 78, 107
2, 69120, Note_on_c, 0, 78, 0
2, 69120, Note_on_c, 0, 74, 0
2, 69120, Note_on_c, 0, 78, 107
2, 69120, Note_on_c, 0, 81, 107
2, 69360, Note_on_c, 0, 81, 0
2, 69360, Note_on_c, 0, 78, 0
2, 69360, Note_on_c, 0, 76, 107
2, 69360, Note_on_c, 0, 79, 107
2, 69600, Note_on_c, 0, 79, 0
2, 69600, Note_on_c, 0, 76, 0
2, 69600, Note_on_c, 0, 74, 107
2, 69600, Note_on_c, 0, 78, 107
2, 69840, Note_on_c, 0, 78, 0
2, 69840, Note_on_c, 0, 74, 0
2, 69840, Note_on_c, 0, 74, 107
2, 69840, Note_on_c, 0, 77, 107
2, 69840, Note_on_c, 0, 82, 107
2, 70320, Note_on_c, 0, 82, 0
2, 70320, Note_on_c, 0, 77, 0
2, 70320, Note_on_c, 0, 74, 0
2, 70320, Note_on_c, 0, 74, 107
2, 70320, Note_on_c, 0, 77, 107
2, 70320, Note_on_c, 0, 82, 107
2, 70560, Note_on_c, 0, 82, 0
2, 70560, Note_on_c, 0, 77, 0
2, 70560, Note_on_c, 0, 74, 0
2, 70560, Note_on_c, 0, 69, 107
2, 70560, Note_on_c, 0, 74, 107
2, 70560, Note_on_c, 0, 76, 107
2, 70800, Note_on_c, 0, 76, 0
2, 70800, Note_on_c, 0, 74, 0
2, 70800, Note_on_c, 0, 69, 0
2, 71280, Note_on_c, 0, 69, 107
2, 71280, Note_on_c, 0, 73, 107
2, 71280, Note_on_c, 0, 76, 107
2, 71280, Note_on_c, 0, 81, 107
2, 71520, Note_on_c, 0, 81, 0
2, 71520, Note_on_c, 0, 69, 0
2, 71520, Note_on_c, 0, 73, 0
2, 71520, Note_on_c, 0, 76, 0
2, 72000, Note_on_c, 0, 64, 68
2, 72000, Note_on_c, 0, 73, 68
2, 72240, Note_on_c, 0, 73, 0
2, 72240, Note_on_c, 0, 64, 0
2, 72240, Note_on_c, 0, 71, 68
2, 72480, Note_on_c, 0, 71, 0
2, 72480, Note_on_c, 0, 69, 68
2, 72720, Note_on_c, 0, 69, 0
2, 72720, Note_on_c, 0, 65, 68
2, 72720, Note_on_c, 0, 74, 68
2, 72960, Note_on_c, 0, 74, 0
2, 72960, Note_on_c, 0, 65, 0
2, 72960, Note_on_c, 0, 73, 68
2, 73200, Note_on_c, 0, 73, 0
2, 73200, Note_on_c, 0, 71, 68
2, 73440, Note_on_c, 0, 71, 0
2, 73440, Note_on_c, 0, 67, 81
2, 73440, Note_on_c, 0, 76, 81
2, 73680, Note_on_c, 0, 76, 0
2, 73680, Note_on_c, 0, 67, 0
2, 73680, Note_on_c, 0, 74, 81
2, 73920, Note_on_c, 0, 74, 0
2, 73920, Note_on_c, 0, 73, 81
2, 74160, Note_on_c, 0, 73, 0
2, 74160, Note_on_c, 0, 69, 94
2, 74160, Note_on_c, 0, 78, 94
2, 74400, Note_on_c, 0, 78, 0
2, 74400, Note_on_c, 0, 69, 0
2, 74400, Note_on_c, 0, 76, 94
2, 74640, Note_on_c, 0, 76, 0
2, 74640, Note_on_c, 0, 74, 94
2, 74880, Note_on_c, 0, 74, 0
2, 74880, Note_on_c, 0, 71, 94
2, 74880, Note_on_c, 0, 79, 94
2, 75120, Note_on_c, 0, 79, 0
2, 75120, Note_on_c, 0, 71, 0
2, 75120, Note_on_c, 0, 78, 94
2, 75360, Note_on_c, 0, 78, 0
2, 75360, Note_on_c, 0, 76, 94
2, 75600, Note_on_c, 0, 76, 0
2, 75600, Note_on_c, 0, 73, 81
2, 75840, Note_on_c, 0, 73, 0
2, 75840, Note_on_c, 0, 71, 81
2, 76080, Note_on_c, 0, 71, 0
2, 76080, Note_on_c, 0, 69, 81
2, 76320, Note_on_c, 0, 69, 0
2, 76320, Note_on_c, 0, 70, 68
2, 76320, Note_on_c, 0, 78, 68
2, 76560, Note_on_c, 0, 78, 0
2, 76560, Note_on_c, 0, 70, 0
2, 76560, Note_on_c, 0, 77, 68
2, 76800, Note_on_c, 0, 77, 0
2, 76800, Note_on_c, 0, 76, 68
2, 77040, Note_on_c, 0, 76, 0
2, 77040, Note_on_c, 0, 74, 68
2, 77280, Note_on_c, 0, 74, 0
2, 77280, Note_on_c, 0, 73, 68
2, 77520, Note_on_c, 0, 73, 0
2, 77520, Note_on_c, 0, 71, 68
2, 77760, Note_on_c, 0, 71, 0
2, 77760, Note_on_c, 0, 64, 68
2, 77760, Note_on_c, 0, 73, 68
2, 78000, Note_on_c, 0, 73, 0
2, 78000, Note_on_c, 0, 64, 0
2, 78000, Note_on_c, 0, 71, 68
2, 78240, Note_on_c, 0, 71, 0
2, 78240, Note_on_c, 0, 69, 68
2, 78480, Note_on_c, 0, 69, 0
2, 78480, Note_on_c, 0, 65, 68
2, 78480, Note_on_c, 0, 74, 68
2, 78720, Note_on_c, 0, 74, 0
2, 78720, Note_on_c, 0, 65, 0
2, 78720, Note_on_c, 0, 73, 68
2, 78960, Note_on_c, 0, 73, 0
2, 78960, Note_on_c, 0, 71, 68
2, 79200, Note_on_c, 0, 71, 0
2, 79200, Note_on_c, 0, 67, 81
2, 79200, Note_on_c, 0, 76, 81
2, 79440, Note_on_c, 0, 76, 0
2, 79440, Note_on_c, 0, 67, 0
2, 79440, Note_on_c, 0, 74, 81
2, 79680, Note_on_c, 0, 74, 0
2, 79680, Note_on_c, 0, 73, 81
2, 79920, Note_on_c, 0, 73, 0
2, 79920, Note_on_c, 0, 69, 94
2, 79920, Note_on_c, 0, 78, 94
2, 80160, Note_on_c, 0, 78, 0
2, 80160, Note_on_c, 0, 69, 0
2, 80160, Note_on_c, 0, 76, 94
2, 80400, Note_on_c, 0, 76, 0
2, 80400, Note_on_c, 0, 74, 94
2, 80640, Note_on_c, 0, 74, 0
2, 80640, Note_on_c, 0, 71, 94
2, 80640, Note_on_c, 0, 79, 94
2, 80880, Note_on_c, 0, 79, 0
2, 80880, Note_on_c, 0, 71, 0
2, 80880, Note_on_c, 0, 78, 94
2, 81120, Note_on_c, 0, 78, 0
2, 81120, Note_on_c, 0, 76, 94
2, 81360, Note_on_c, 0, 76, 0
2, 81360, Note_on_c, 0, 73, 81
2, 81600, Note_on_c, 0, 73, 0
2, 81600, Note_on_c, 0, 71, 81
2, 81840, Note_on_c, 0, 71, 0
2, 81840, Note_on_c, 0, 69, 81
2, 82080, Note_on_c, 0, 69, 0
2, 82080, Note_on_c, 0, 70, 68
2, 82080, Note_on_c, 0, 78, 68
2, 82320, Note_on_c, 0, 78, 0
2, 82320, Note_on_c, 0, 70, 0
2, 82320, Note_on_c, 0, 77, 68
2, 82560, Note_on_c, 0, 77, 0
2, 82560, Note_on_c, 0, 76, 68
2, 82800, Note_on_c, 0, 76, 0
2, 82800, Note_on_c, 0, 74, 68
2, 83040, Note_on_c, 0, 74, 0
2, 83040, Note_on_c, 0, 73, 68
2, 83280, Note_on_c, 0, 73, 0
2, 83280, Note_on_c, 0, 71, 68
2, 83520, Note_on_c, 0, 71, 0
2, 83520, Note_on_c, 0, 64, 68
2, 83520, Note_on_c, 0, 73, 68
2, 83760, Note_on_c, 0, 73, 0
2, 83760, Note_on_c, 0, 64, 0
2, 83760, Note_on_c, 0, 71, 68
2, 84000, Note_on_c, 0, 71, 0
2, 84000, Note_on_c, 0, 69, 68
2, 84240, Note_on_c, 0, 69, 0
2, 84240, Note_on_c, 0, 65, 68
2, 84240, Note_on_c, 0, 74, 68
2, 84480, Note_on_c, 0, 74, 0
2, 84480, Note_on_c, 0, 65, 0
2, 84480, Note_on_c, 0, 73, 68
2, 84720, Note_on_c, 0, 73, 0
2, 84720, Note_on_c, 0, 71, 68
2, 84960, Note_on_c, 0, 71, 0
2, 84960, Note_on_c, 0, 67, 81
2, 84960, Note_on_c, 0, 76, 81
2, 85200, Note_on_c, 0, 76, 0
2, 85200, Note_on_c, 0, 67, 0
2, 85200, Note_on_c, 0, 74, 81
2, 85440, Note_on_c, 0, 74, 0
2, 85440, Note_on_c, 0, 73, 81
2, 85680, Note_on_c, 0, 73, 0
2, 85680, Note_on_c, 0, 69, 94
2, 85680, Note_on_c, 0, 78, 94
2, 85920, Note_on_c, 0, 78, 0
2, 85920, Note_on_c, 0, 69, 0
2, 85920, Note_on_c, 0, 76, 94
2, 86160, Note_on_c, 0, 76, 0
2, 86160, Note_on_c, 0, 74, 94
2, 86400, Note_on_c, 0, 74, 0
2, 86400, Note_on_c, 0, 71, 94
2, 86400, Note_on_c, 0, 79, 94
2, 86640, Note_on_c, 0, 79, 0
2, 86640, Note_on_c, 0, 71, 0
2, 86640, Note_on_c, 0, 78, 94
2, 86880, Note_on_c, 0, 78, 0
2, 86880, Note_on_c, 0, 76, 94
2, 87120, Note_on_c, 0, 76, 0
2, 87120, Note_on_c, 0, 71, 94
2, 87120, Note_on_c, 0, 80, 94
2, 87360, Note_on_c, 0, 80, 0
2, 87360, Note_on_c, 0, 71, 0
2, 87360, Note_on_c, 0, 79, 94
2, 87600, Note_on_c, 0, 79, 0
2, 87600, Note_on_c, 0, 80, 94
2, 87840, Note_on_c, 0, 80, 0
2, 87840, Note_on_c, 0, 69, 94
2, 87840, Note_on_c, 0, 81, 94
2, 88080, Note_on_c, 0, 81, 0
2, 88080, Note_on_c, 0, 69, 0
2, 88560, Note_on_c, 0, 69, 120
2, 88560, Note_on_c, 0, 73, 120
2, 88560, Note_on_c, 0, 76, 120
2, 88560, Note_on_c, 0, 81, 120
2, 88800, Note_on_c, 0, 81, 0
2, 88800, Note_on_c, 0, 69, 0
2, 88800, Note_on_c, 0, 73, 0
2, 88800, Note_on_c, 0, 76, 0
2, 89280, Control_c, 0, 64, 127
2, 89280, Note_on_c, 0, 78, 107
2, 89280, Note_on_c, 0, 81, 107
2, 89520, Note_on_c, 0, 81, 0
2, 89520, Note_on_c, 0, 78, 0
2, 89520, Note_on_c, 0, 77, 107
2, 89520, Note_on_c, 0, 80, 107
2, 89760, Note_on_c, 0, 80, 0
2, 89760, Note_on_c, 0, 77, 0
2, 89760, Note_on_c, 0, 78, 107
2, 89760, Note_on_c, 0, 81, 107
2, 90000, Note_on_c, 0, 81, 0
2, 90000, Note_on_c, 0, 78, 0
2, 90000, Control_c, 0, 64, 0
2, 90000, Note_on_c, 0, 79, 107
2, 90000, Note_on_c, 0, 83, 107
2, 90480, Note_on_c, 0, 83, 0
2, 90480, Note_on_c, 0, 79, 0
2, 90480, Note_on_c, 0, 77, 107
2, 90480, Note_on_c, 0, 85, 107
2, 90720, Note_on_c, 0, 85, 0
2, 90720, Note_on_c, 0, 77, 0
2, 90720, Note_on_c, 0, 78, 107
2, 90720, Note_on_c, 0, 81, 107
2, 90960, Note_on_c, 0, 81, 0
2, 90960, Note_on_c, 0, 78, 0
2, 91440, Note_on_c, 0, 74, 107
2, 91440, Note_on_c, 0, 78, 107
2, 91440, Note_on_c, 0, 81, 107
2, 91440, Note_on_c, 0, 86, 107
2, 91680, Note_on_c, 0, 86, 0
2, 91680, Note_on_c, 0, 74, 0
2, 91680, Note_on_c, 0, 78, 0
2, 91680, Note_on_c, 0, 81, 0
2, 92160, Control_c, 0, 64, 127
2, 92160, Note_on_c, 0, 78, 107
2, 92160, Note_on_c, 0, 81, 107
2, 92400, Note_on_c, 0, 81, 0
2, 92400, Note_on_c, 0, 78, 0
2, 92400, Note_on_c, 0, 77, 107
2, 92400, Note_on_c, 0, 80, 107
2, 92640, Note_on_c, 0, 80, 0
2, 92640, Note_on_c, 0, 77, 0
2, 92640, Note_on_c, 0, 78, 107
2, 92640, Note_on_c, 0, 81, 107
2, 92880, Note_on_c, 0, 81, 0
2, 92880, Note_on_c, 0, 78, 0
2, 92880, Control_c, 0, 64, 0
2, 92880, Note_on_c, 0, 79, 107
2, 92880, Note_on_c, 0, 83, 107
2, 93360, Note_on_c, 0, 83, 0
2, 93360, Note_on_c, 0, 79, 0
2, 93360, Note_on_c, 0, 77, 107
2, 93360, Note_on_c, 0, 85, 107
2, 93600, Note_on_c, 0, 85, 0
2, 93600, Note_on_c, 0, 77, 0
2, 93600, Note_on_c, 0, 78, 107
2, 93600, Note_on_c, 0, 81, 107
2, 93840, Note_on_c, 0, 81, 0
2, 93840, Note_on_c, 0, 78, 0
2, 94320, Note_on_c, 0, 74, 107
2, 94320, Note_on_c, 0, 78, 107
2, 94320, Note_on_c, 0, 81, 107
2, 94320, Note_on_c, 0, 86, 107
2, 94560, Note_on_c, 0, 86, 0
2, 94560, Note_on_c, 0, 74, 0
2, 94560, Note_on_c, 0, 78, 0
2, 94560, Note_on_c, 0, 81, 0
2, 95040, Note_on_c, 0, 78, 107
2, 95040, Note_on_c, 0, 81, 107
2, 95280, Note_on_c, 0, 81, 0
2, 95280, Note_on_c, 0, 78, 0
2, 95280, Note_on_c, 0, 76, 107
2, 95280, Note_on_c, 0, 79, 107
2, 95520, Note_on_c, 0, 79, 0
2, 95520, Note_on_c, 0, 76, 0
2, 95520, Note_on_c, 0, 74, 107
2, 95520, Note_on_c, 0, 78, 107
2, 95760, Note_on_c, 0, 78, 0
2, 95760, Note_on_c, 0, 74, 0
2, 95760, Note_on_c, 0, 78, 107
2, 95760, Note_on_c, 0, 81, 107
2, 96000, Note_on_c, 0, 81, 0
2, 96000, Note_on_c, 0, 78, 0
2, 96000, Note_on_c, 0, 76, 107
2, 96000, Note_on_c, 0, 79, 107
2, 96240, Note_on_c, 0, 79, 0
2, 96240, Note_on_c, 0, 76, 0
2, 96240, Note_on_c, 0, 74, 107
2, 96240, Note_on_c, 0, 78, 107
2, 96480, Note_on_c, 0, 78, 0
2, 96480, Note_on_c, 0, 74, 0
2, 96480, Note_on_c, 0, 78, 107
2, 96480, Note_on_c, 0, 81, 107
2, 96720, Note_on_c, 0, 81, 0
2, 96720, Note_on_c, 0, 78, 0
2, 96720, Note_on_c, 0, 76, 107
2, 96720, Note_on_c, 0, 79, 107
2, 96960, Note_on_c, 0, 79, 0
2, 96960, Note_on_c, 0, 76, 0
2, 96960, Note_on_c, 0, 74, 107
2, 96960, Note_on_c, 0, 78, 107
2, 97200, Note_on_c, 0, 78, 0
2, 97200, Note_on_c, 0, 74, 0
2, 97200, Note_on_c, 0, 78, 107
2, 97200, Note_on_c, 0, 81, 107
2, 97440, Note_on_c, 0, 81, 0
2, 97440, Note_on_c, 0, 78, 0
2, 97440, Note_on_c, 0, 76, 107
2, 97440, Note_on_c, 0, 79, 107
2, 97680, Note_on_c, 0, 79, 0
2, 97680, Note_on_c, 0, 76, 0
2, 97680, Note_on_c, 0, 74, 107
2, 97680, Note_on_c, 0, 78, 107
2, 97920, Note_on_c, 0, 78, 0
2, 97920, Note_on_c, 0, 74, 0
2, 97920, Note_on_c, 0, 78, 107
2, 97920, Note_on_c, 0, 81, 107
2, 98160, Note_on_c, 0, 81, 0
2, 98160, Note_on_c, 0, 78, 0
2, 98160, Note_on_c, 0, 76, 107
2, 98160, Note_on_c, 0, 79, 107
2, 98400, Note_on_c, 0, 79, 0
2, 98400, Note_on_c, 0, 76, 0
2, 98400, Note_on_c, 0, 74, 107
2, 98400, Note_on_c, 0, 78, 107
2, 98640, Note_on_c, 0, 78, 0
2, 98640, Note_on_c, 0, 74, 0
2, 98640, Note_on_c, 0, 74, 107
2, 98640, Note_on_c, 0, 77, 107
2, 98640, Note_on_c, 0, 82, 107
2, 99120, Note_on_c, 0, 82, 0
2, 99120, Note_on_c, 0, 77, 0
2, 99120, Note_on_c, 0, 74, 0
2, 99120, Note_on_c, 0, 74, 107
2, 99120, Note_on_c, 0, 77, 107
2, 99120, Note_on_c, 0, 82, 107
2, 99360, Note_on_c, 0, 82, 0
2, 99360, Note_on_c, 0, 77, 0
2, 99360, Note_on_c, 0, 74, 0
2, 99360, Note_on_c, 0, 69, 107
2, 99360, Note_on_c, 0, 74, 107
2, 99360, Note_on_c, 0, 76, 107
2, 99600, Note_on_c, 0, 76, 0
2, 99600, Note_on_c, 0, 74, 0
2, 99600, Note_on_c, 0, 69, 0
2, 100080, Note_on_c, 0, 69, 107
2, 100080, Note_on_c, 0, 73, 107
2, 100080, Note_on_c, 0, 76, 107
2, 100080, Note_on_c, 0, 81, 107
2, 100320, Note_on_c, 0, 81, 0
2, 100320, Note_on_c, 0, 69, 0
2, 100320, Note_on_c, 0, 73, 0
2, 100320, Note_on_c, 0, 76, 0
2, 100800, Note_on_c, 0, 64, 68
2, 100800, Note_on_c, 0, 73, 68
2, 101040, Note_on_c, 0, 73, 0
2, 101040, Note_on_c, 0, 64, 0
2, 101040, Note_on_c, 0, 71, 68
2, 101280, Note_on_c, 0, 71, 0
2, 101280, Note_on_c, 0, 69, 68
2, 101520, Note_on_c, 0, 69, 0
2, 101520, Note_on_c, 0, 65, 68
2, 101520, Note_on_c, 0, 74, 68
2, 101760, Note_on_c, 0, 74, 0
2, 101760, Note_on_c, 0, 65, 0
2, 101760, Note_on_c, 0, 73, 68
2, 102000, Note_on_c, 0, 73, 0
2, 102000, Note_on_c, 0, 71, 68
2, 102240, Note_on_c, 0, 71, 0
2, 102240, Note_on_c, 0, 67, 81
2, 102240, Note_on_c, 0, 76, 81
2, 102480, Note_on_c, 0, 76, 0
2, 102480, Note_on_c, 0, 67, 0
2, 102480, Note_on_c, 0, 74, 81
2, 102720, Note_on_c, 0, 74, 0
2, 102720, Note_on_c, 0, 73, 81
2, 102960, Note_on_c, 0, 73, 0
2, 102960, Note_on_c, 0, 69, 94
2, 102960, Note_on_c, 0, 78, 94
2, 103200, Note_on_c, 0, 78, 0
2, 103200, Note_on_c, 0, 69, 0
2, 103200, Note_on_c, 0, 76, 94
2, 103440, Note_on_c, 0, 76, 0
2, 103440, Note_on_c, 0, 74, 94
2, 103680, Note_on_c, 0, 74, 0
2, 103680, Note_on_c, 0, 71, 94
2, 103680, Note_on_c, 0, 79, 94
2, 103920, Note_on_c, 0, 79, 0
2, 103920, Note_on_c, 0, 71, 0
2, 103920, Note_on_c, 0, 78, 94
2, 104160, Note_on_c, 0, 78, 0
2, 104160, Note_on_c, 0, 76, 94
2, 104400, Note_on_c, 0, 76, 0
2, 104400, Note_on_c, 0, 73, 81
2, 104640, Note_on_c, 0, 73, 0
2, 104640, Note_on_c, 0, 71, 81
2, 104880, Note_on_c, 0, 71, 0
2, 104880, Note_on_c, 0, 69, 81
2, 105120, Note_on_c, 0, 69, 0
2, 105120, Note_on_c, 0, 70, 68
2, 105120, Note_on_c, 0, 78, 68
2, 105360, Note_on_c, 0, 78, 0
2, 105360, Note_on_c, 0, 70, 0
2, 105360, Note_on_c, 0, 77, 68
2, 105600, Note_on_c, 0, 77, 0
2, 105600, Note_on_c, 0, 76, 68
2, 105840, Note_on_c, 0, 76, 0
2, 105840, Note_on_c, 0, 74, 68
2, 106080, Note_on_c, 0, 74, 0
2, 106080, Note_on_c, 0, 73, 68
2, 106320, Note_on_c, 0, 73, 0
2, 106320, Note_on_c, 0, 71, 68
2, 106560, Note_on_c, 0, 71, 0
2, 106560, Note_on_c, 0, 64, 68
2, 106560, Note_on_c, 0, 73, 68
2, 106800, Note_on_c, 0, 73, 0
2, 106800, Note_on_c, 0, 64, 0
2, 106800, Note_on_c, 0, 71, 68
2, 107040, Note_on_c, 0, 71, 0
2, 107040, Note_on_c, 0, 69, 68
2, 107280, Note_on_c, 0, 69, 0
2, 107280, Note_on_c, 0, 65, 68
2, 107280, Note_on_c, 0, 74, 68
2, 107520, Note_on_c, 0, 74, 0
2, 107520, Note_on_c, 0, 65, 0
2, 107520, Note_on_c, 0, 73, 68
2, 107760, Note_on_c, 0, 73, 0
2, 107760, Note_on_c, 0, 71, 68
2, 108000, Note_on_c, 0, 71, 0
2, 108000, Note_on_c, 0, 67, 81
2, 108000, Note_on_c, 0, 76, 81
2, 108240, Note_on_c, 0, 76, 0
2, 108240, Note_on_c, 0, 67, 0
2, 108240, Note_on_c, 0, 74, 81
2, 108480, Note_on_c, 0, 74, 0
2, 108480, Note_on_c, 0, 73, 81
2, 108720, Note_on_c, 0, 73, 0
2, 108720, Note_on_c, 0, 69, 94
2, 108720, Note_on_c, 0, 78, 94
2, 108960, Note_on_c, 0, 78, 0
2, 108960, Note_on_c, 0, 69, 0
2, 108960, Note_on_c, 0, 76, 94
2, 109200, Note_on_c, 0, 76, 0
2, 109200, Note_on_c, 0, 74, 94
2, 109440, Note_on_c, 0, 74, 0
2, 109440, Note_on_c, 0, 71, 94
2, 109440, Note_on_c, 0, 79, 94
2, 109680, Note_on_c, 0, 79, 0
2, 109680, Note_on_c, 0, 71, 0
2, 109680, Note_on_c, 0, 78, 94
2, 109920, Note_on_c, 0, 78, 0
2, 109920, Note_on_c, 0, 76, 94
2, 110160, Note_on_c, 0, 76, 0
2, 110160, Note_on_c, 0, 73, 81
2, 110400, Note_on_c, 0, 73, 0
2, 110400, Note_on_c, 0, 71, 81
2, 110640, Note_on_c, 0, 71, 0
2, 110640, Note_on_c, 0, 69, 81
2, 110880, Note_on_c, 0, 69, 0
2, 110880, Note_on_c, 0, 70, 68
2, 110880, Note_on_c, 0, 78, 68
2, 111120, Note_on_c, 0, 78, 0
2, 111120, Note_on_c, 0, 70, 0
2, 111120, Note_on_c, 0, 77, 68
2, 111360, Note_on_c, 0, 77, 0
2, 111360, Note_on_c, 0, 76, 68
2, 111600, Note_on_c, 0, 76, 0
2, 111600, Note_on_c, 0, 74, 68
2, 111840, Note_on_c, 0, 74, 0
2, 111840, Note_on_c, 0, 73, 68
2, 112080, Note_on_c, 0, 73, 0
2, 112080, Note_on_c, 0, 71, 68
2, 112320, Note_on_c, 0, 71, 0
2, 112320, Note_on_c, 0, 71, 68
2, 112320, Note_on_c, 0, 74, 68
2, 112320, Note_on_c, 0, 79, 68
2, 112560, Note_on_c, 0, 79, 0
2, 112560, Note_on_c, 0, 74, 0
2, 112560, Note_on_c, 0, 71, 0
2, 112560, Note_on_c, 0, 78, 68
2, 112800, Note_on_c, 0, 78, 0
2, 112800, Note_on_c, 0, 76, 68
2, 113040, Note_on_c, 0, 76, 0
2, 113040, Note_on_c, 0, 71, 68
2, 113040, Note_on_c, 0, 74, 68
2, 113040, Note_on_c, 0, 79, 68
2, 113280, Note_on_c, 0, 79, 0
2, 113280, Note_on_c, 0, 74, 0
2, 113280, Note_on_c, 0, 71, 0
2, 113280, Note_on_c, 0, 78, 68
2, 113520, Note_on_c, 0, 78, 0
2, 113520, Note_on_c, 0, 76, 68
2, 113760, Note_on_c, 0, 76, 0
2, 113760, Note_on_c, 0, 71, 68
2, 113760, Note_on_c, 0, 74, 68
2, 113760, Note_on_c, 0, 79, 68
2, 114000, Note_on_c, 0, 79, 0
2, 114000, Note_on_c, 0, 74, 0
2, 114000, Note_on_c, 0, 71, 0
2, 114000, Note_on_c, 0, 78, 68
2, 114240, Note_on_c, 0, 78, 0
2, 114240, Note_on_c, 0, 76, 68
2, 114480, Note_on_c, 0, 76, 0
2, 114480, Note_on_c, 0, 71, 68
2, 114480, Note_on_c, 0, 74, 68
2, 114480, Note_on_c, 0, 79, 68
2, 114720, Note_on_c, 0, 79, 0
2, 114720, Note_on_c, 0, 74, 0
2, 114720, Note_on_c, 0, 71, 0
2, 114720, Note_on_c, 0, 78, 68
2, 114960, Note_on_c, 0, 78, 0
2, 114960, Note_on_c, 0, 76, 68
2, 115200, Note_on_c, 0, 76, 0
2, 115200, Note_on_c, 0, 71, 81
2, 115200, Note_on_c, 0, 74, 81
2, 115200, Note_on_c, 0, 80, 81
2, 115440, Note_on_c, 0, 80, 0
2, 115440, Note_on_c, 0, 74, 0
2, 115440, Note_on_c, 0, 71, 0
2, 115440, Note_on_c, 0, 77, 81
2, 115680, Note_on_c, 0, 77, 0
2, 115680, Note_on_c, 0, 76, 81
2, 115920, Note_on_c, 0, 76, 0
2, 115920, Note_on_c, 0, 71, 81
2, 115920, Note_on_c, 0, 74, 81
2, 115920, Note_on_c, 0, 80, 81
2, 116160, Note_on_c, 0, 80, 0
2, 116160, Note_on_c, 0, 74, 0
2, 116160, Note_on_c, 0, 71, 0
2, 116160, Note_on_c, 0, 77, 81
2, 116400, Note_on_c, 0, 77, 0
2, 116400, Note_on_c, 0, 76, 81
2, 116640, Note_on_c, 0, 76, 0
2, 116640, Note_on_c, 0, 71, 81
2, 116640, Note_on_c, 0, 74, 81
2, 116640, Note_on_c, 0, 80, 81
2, 116880, Note_on_c, 0, 80, 0
2, 116880, Note_on_c, 0, 74, 0
2, 116880, Note_on_c, 0, 71, 0
2, 116880, Note_on_c, 0, 77, 81
2, 117120, Note_on_c, 0, 77, 0
2, 117120, Note_on_c, 0, 76, 81
2, 117360, Note_on_c, 0, 76, 0
2, 117360, Note_on_c, 0, 71, 81
2, 117360, Note_on_c, 0, 74, 81
2, 117360, Note_on_c, 0, 80, 81
2, 117600, Note_on_c, 0, 80, 0
2, 117600, Note_on_c, 0, 74, 0
2, 117600, Note_on_c, 0, 71, 0
2, 117600, Note_on_c, 0, 77, 81
2, 117840, Note_on_c, 0, 77, 0
2, 117840, Note_on_c, 0, 76, 81
2, 118080, Note_on_c, 0, 76, 0
2, 118080, Note_on_c, 0, 76, 94
2, 118080, Note_on_c, 0, 79, 94
2, 118080, Note_on_c, 0, 85, 94
2, 118320, Note_on_c, 0, 85, 0
2, 118320, Note_on_c, 0, 79, 0
2, 118320, Note_on_c, 0, 76, 0
2, 118320, Note_on_c, 0, 83, 94
2, 118560, Note_on_c, 0, 83, 0
2, 118560, Note_on_c, 0, 81, 94
2, 118800, Note_on_c, 0, 81, 0
2, 118800, Note_on_c, 0, 76, 94
2, 118800, Note_on_c, 0, 79, 94
2, 118800, Note_on_c, 0, 85, 94
2, 119040, Note_on_c, 0, 85, 0
2, 119040, Note_on_c, 0, 79, 0
2, 119040, Note_on_c, 0, 76, 0
2, 119040, Note_on_c, 0, 83, 94
2, 119280, Note_on_c, 0, 83, 0
2, 119280, Note_on_c, 0, 81, 94
2, 119520, Note_on_c, 0, 81, 0
2, 119520, Note_on_c, 0, 76, 94
2, 119520, Note_on_c, 0, 79, 94
2, 119520, Note_on_c, 0, 85, 94
2, 119760, Note_on_c, 0, 85, 0
2, 119760, Note_on_c, 0, 79, 0
2, 119760, Note_on_c, 0, 76, 0
2, 119760, Note_on_c, 0, 83, 94
2, 120000, Note_on_c, 0, 83, 0
2, 120000, Note_on_c, 0, 81, 94
2, 120240, Note_on_c, 0, 81, 0
2, 120240, Note_on_c, 0, 76, 94
2, 120240, Note_on_c, 0, 79, 94
2, 120240, Note_on_c, 0, 85, 94
2, 120480, Note_on_c, 0, 85, 0
2, 120480, Note_on_c, 0, 79, 0
2, 120480, Note_on_c, 0, 76, 0
2, 120480, Note_on_c, 0, 83, 94
2, 120720, Note_on_c, 0, 83, 0
2, 120720, Note_on_c, 0, 81, 94
2, 120960, Note_on_c, 0, 81, 0
2, 120960, Note_on_c, 0, 79, 94
2, 120960, Note_on_c, 0, 85, 94
2, 120960, Note_on_c, 0, 88, 94
2, 121200, Note_on_c, 0, 88, 0
2, 121200, Note_on_c, 0, 85, 0
2, 121200, Note_on_c, 0, 79, 0
2, 121200, Note_on_c, 0, 86, 94
2, 121440, Note_on_c, 0, 86, 0
2, 121440, Note_on_c, 0, 85, 94
2, 121680, Note_on_c, 0, 85, 0
2, 121680, Note_on_c, 0, 79, 94
2, 121680, Note_on_c, 0, 85, 94
2, 121680, Note_on_c, 0, 88, 94
2, 121920, Note_on_c, 0, 88, 0
2, 121920, Note_on_c, 0, 85, 0
2, 121920, Note_on_c, 0, 79, 0
2, 121920, Note_on_c, 0, 86, 94
2, 122160, Note_on_c, 0, 86, 0
2, 122160, Note_on_c, 0, 85, 94
2, 122400, Note_on_c, 0, 85, 0
2, 122400, Note_on_c, 0, 79, 94
2, 122400, Note_on_c, 0, 85, 94
2, 122400, Note_on_c, 0, 88, 94
2, 122640, Note_on_c, 0, 88, 0
2, 122640, Note_on_c, 0, 85, 0
2, 122640, Note_on_c, 0, 79, 0
2, 122640, Note_on_c, 0, 86, 94
2, 122880, Note_on_c, 0, 86, 0
2, 122880, Note_on_c, 0, 85, 94
2, 123120, Note_on_c, 0, 85, 0
2, 123120, Note_on_c, 0, 79, 94
2, 123120, Note_on_c, 0, 85, 94
2, 123120, Note_on_c, 0, 88, 94
2, 123360, Note_on_c, 0, 88, 0
2, 123360, Note_on_c, 0, 85, 0
2, 123360, Note_on_c, 0, 79, 0
2, 123360, Note_on_c, 0, 86, 94
2, 123600, Note_on_c, 0, 86, 0
2, 123600, Note_on_c, 0, 85, 94
2, 123840, Note_on_c, 0, 85, 0
2, 123840, Note_on_c, 0, 78, 107
2, 123840, Note_on_c, 0, 86, 107
2, 124080, Note_on_c, 0, 86, 0
2, 124080, Note_on_c, 0, 78, 0
2, 124080, Note_on_c, 0, 81, 107
2, 124080, Note_on_c, 0, 85, 107
2, 124320, Note_on_c, 0, 85, 0
2, 124320, Note_on_c, 0, 81, 0
2, 124320, Note_on_c, 0, 78, 107
2, 124320, Note_on_c, 0, 86, 107
2, 124560, Note_on_c, 0, 86, 0
2, 124560, Note_on_c, 0, 78, 0
2, 124560, Note_on_c, 0, 79, 107
2, 124560, Note_on_c, 0, 83, 107
2, 125040, Note_on_c, 0, 83, 0
2, 125040, Note_on_c, 0, 79, 0
2, 125040, Note_on_c, 0, 79, 107
2, 125040, Note_on_c, 0, 83, 107
2, 125280, Note_on_c, 0, 83, 0
2, 125280, Note_on_c, 0, 79, 0
2, 125280, Note_on_c, 0, 78, 107
2, 125280, Note_on_c, 0, 86, 107
2, 125760, Note_on_c, 0, 86, 0
2, 125760, Note_on_c, 0, 78, 0
2, 125760, Note_on_c, 0, 78, 107
2, 125760, Note_on_c, 0, 86, 107
2, 126000, Note_on_c, 0, 86, 0
2, 126000, Note_on_c, 0, 78, 0
2, 126000, Note_on_c, 0, 79, 107
2, 126000, Note_on_c, 0, 83, 107
2, 126480, Note_on_c, 0, 83, 0
2, 126480, Note_on_c, 0, 79, 0
2, 126480, Note_on_c, 0, 79, 107
2, 126480, Note_on_c, 0, 83, 107
2, 126720, Note_on_c, 0, 83, 0
2, 126720, Note_on_c, 0, 79, 0
2, 126720, Note_on_c, 0, 78, 107
2, 126720, Note_on_c, 0, 86, 107
2, 126960, Note_on_c, 0, 86, 0
2, 126960, Note_on_c, 0, 78, 0
2, 126960, Note_on_c, 0, 81, 107
2, 126960, Note_on_c, 0, 85, 107
2, 127200, Note_on_c, 0, 85, 0
2, 127200, Note_on_c, 0, 81, 0
2, 127200, Note_on_c, 0, 78, 107
2, 127200, Note_on_c, 0, 86, 107
2, 127440, Note_on_c, 0, 86, 0
2, 127440, Note_on_c, 0, 78, 0
2, 127440, Note_on_c, 0, 79, 107
2, 127440, Note_on_c, 0, 83, 107
2, 127920, Note_on_c, 0, 83, 0
2, 127920, Note_on_c, 0, 79, 0
2, 127920, Note_on_c, 0, 79, 107
2, 127920, Note_on_c, 0, 83, 107
2, 128160, Note_on_c, 0, 83, 0
2, 128160, Note_on_c, 0, 79, 0
2, 128160, Note_on_c, 0, 78, 107
2, 128160, Note_on_c, 0, 86, 107
2, 128640, Note_on_c, 0, 86, 0
2, 128640, Note_on_c, 0, 78, 0
2, 128640, Note_on_c, 0, 78, 107
2, 128640, Note_on_c, 0, 86, 107
2, 128880, Note_on_c, 0, 86, 0
2, 128880, Note_on_c, 0, 78, 0
2, 128880, Note_on_c, 0, 79, 107
2, 128880, Note_on_c, 0, 83, 107
2, 129360, Note_on_c, 0, 83, 0
2, 129360, Note_on_c, 0, 79, 0
2, 129360, Note_on_c, 0, 79, 107
2, 129360, Note_on_c, 0, 83, 107
2, 129600, Note_on_c, 0, 83, 0
2, 129600, Note_on_c, 0, 79, 0
2, 129600, Note_on_c, 0, 69, 107
2, 129600, Note_on_c, 0, 78, 107
2, 129600, Note_on_c, 0, 81, 107
2, 130320, Note_on_c, 0, 81, 0
2, 130320, Note_on_c, 0, 78, 0
2, 130320, Note_on_c, 0, 69, 0
2, 130320, Note_on_c, 0, 68, 107
2, 130320, Note_on_c, 0, 77, 107
2, 130320, Note_on_c, 0, 80, 107
2, 131040, Note_on_c, 0, 80, 0
2, 131040, Note_on_c, 0, 77, 0
2, 131040, Note_on_c, 0, 68, 0
2, 131040, Note_on_c, 0, 67, 107
2, 131040, Note_on_c, 0, 76, 107
2, 131040, Note_on_c, 0, 79, 107
2, 131760, Note_on_c, 0, 79, 0
2, 131760, Note_on_c, 0, 76, 0
2, 131760, Note_on_c, 0, 67, 0
2, 131760, Note_on_c, 0, 66, 107
2, 131760, Note_on_c, 0, 75, 107
2, 131760, Note_on_c, 0, 78, 107
2, 132480, Note_on_c, 0, 78, 0
2, 132480, Note_on_c, 0, 75, 0
2, 132480, Note_on_c, 0, 66, 0
2, 132480, Note_on_c, 0, 65, 107
2, 132480, Note_on_c, 0, 74, 107
2, 132480, Note_on_c, 0, 77, 107
2, 133200, Note_on_c, 0, 77, 0
2, 133200, Note_on_c, 0, 74, 0
2, 133200, Note_on_c, 0, 65, 0
2, 133200, Note_on_c, 0, 64, 107
2, 133200, Note_on_c, 0, 73, 107
2, 133200, Note_on_c, 0, 76, 107
2, 133920, Note_on_c, 0, 76, 0
2, 133920, Note_on_c, 0, 73, 0
2, 133920, Note_on_c, 0, 64, 0
2, 133920, Note_on_c, 0, 63, 107
2, 133920, Note_on_c, 0, 72, 107
2, 133920, Note_on_c, 0, 75, 107
2, 134640, Note_on_c, 0, 75, 0
2, 134640, Note_on_c, 0, 72, 0
2, 134640, Note_on_c, 0, 63, 0
2, 134640, Note_on_c, 0, 64, 107
2, 134640, Note_on_c, 0, 73, 107
2, 134640, Note_on_c, 0, 76, 107
2, 135360, Note_on_c, 0, 76, 0
2, 135360, Note_on_c, 0, 73, 0
2, 135360, Note_on_c, 0, 64, 0
2, 135360, Note_on_c, 0, 78, 107
2, 135360, Note_on_c, 0, 86, 107
2, 135600, Note_on_c, 0, 86, 0
2, 135600, Note_on_c, 0, 78, 0
2, 135600, Note_on_c, 0, 81, 107
2, 135600, Note_on_c, 0, 85, 107
2, 135840, Note_on_c, 0, 85, 0
2, 135840, Note_on_c, 0, 81, 0
2, 135840, Note_on_c, 0, 78, 107
2, 135840, Note_on_c, 0, 86, 107
2, 136080, Note_on_c, 0, 86, 0
2, 136080, Note_on_c, 0, 78, 0
2, 136080, Note_on_c, 0, 79, 107
2, 136080, Note_on_c, 0, 83, 107
2, 136560, Note_on_c, 0, 83, 0
2, 136560, Note_on_c, 0, 79, 0
2, 136560, Note_on_c, 0, 79, 107
2, 136560, Note_on_c, 0, 83, 107
2, 136800, Note_on_c, 0, 83, 0
2, 136800, Note_on_c, 0, 79, 0
2, 136800, Note_on_c, 0, 78, 107
2, 136800, Note_on_c, 0, 86, 107
2, 137280, Note_on_c, 0, 86, 0
2, 137280, Note_on_c, 0, 78, 0
2, 137280, Note_on_c, 0, 78, 107
2, 137280, Note_on_c, 0, 86, 107
2, 137520, Note_on_c, 0, 86, 0
2, 137520, Note_on_c, 0, 78, 0
2, 137520, Note_on_c, 0, 79, 107
2, 137520, Note_on_c, 0, 83, 107
2, 138000, Note_on_c, 0, 83, 0
2, 138000, Note_on_c, 0, 79, 0
2, 138000, Note_on_c, 0, 79, 107
2, 138000, Note_on_c, 0, 83, 107
2, 138240, Note_on_c, 0, 83, 0
2, 138240, Note_on_c, 0, 79, 0
2, 138240, Note_on_c, 0, 78, 107
2, 138240, Note_on_c, 0, 86, 107
2, 138480, Note_on_c, 0, 86, 0
2, 138480, Note_on_c, 0, 78, 0
2, 138480, Note_on_c, 0, 81, 107
2, 138480, Note_on_c, 0, 85, 107
2, 138720, Note_on_c, 0, 85, 0
2, 138720, Note_on_c, 0, 81, 0
2, 138720, Note_on_c, 0, 78, 107
2, 138720, Note_on_c, 0, 86, 107
2, 138960, Note_on_c, 0, 86, 0
2, 138960, Note_on_c, 0, 78, 0
2, 138960, Note_on_c, 0, 79, 107
2, 138960, Note_on_c, 0, 83, 107
2, 139440, Note_on_c, 0, 83, 0
2, 139440, Note_on_c, 0, 79, 0
2, 139440, Note_on_c, 0, 79, 107
2, 139440, Note_on_c, 0, 83, 107
2, 139680, Note_on_c, 0, 83, 0
2, 139680, Note_on_c, 0, 79, 0
2, 139680, Note_on_c, 0, 78, 107
2, 139680, Note_on_c, 0, 86, 107
2, 140160, Note_on_c, 0, 86, 0
2, 140160, Note_on_c, 0, 78, 0
2, 140160, Note_on_c, 0, 78, 107
2, 140160, Note_on_c, 0, 86, 107
2, 140400, Note_on_c, 0, 86, 0
2, 140400, Note_on_c, 0, 78, 0
2, 140400, Note_on_c, 0, 79, 107
2, 140400, Note_on_c, 0, 83, 107
2, 140880, Note_on_c, 0, 83, 0
2, 140880, Note_on_c, 0, 79, 0
2, 140880, Note_on_c, 0, 79, 107
2, 140880, Note_on_c, 0, 83, 107
2, 141120, Note_on_c, 0, 83, 0
2, 141120, Note_on_c, 0, 79, 0
2, 141120, Note_on_c, 0, 69, 107
2, 141120, Note_on_c, 0, 78, 107
2, 141120, Note_on_c, 0, 81, 107
2, 141840, Note_on_c, 0, 81, 0
2, 141840, Note_on_c, 0, 78, 0
2, 141840, Note_on_c, 0, 69, 0
2, 141840, Note_on_c, 0, 68, 107
2, 141840, Note_on_c, 0, 77, 107
2, 141840, Note_on_c, 0, 80, 107
2, 142560, Note_on_c, 0, 80, 0
2, 142560, Note_on_c, 0, 77, 0
2, 142560, Note_on_c, 0, 68, 0
2, 142560, Note_on_c, 0, 67, 107
2, 142560, Note_on_c, 0, 76, 107
2, 142560, Note_on_c, 0, 79, 107
2, 143280, Note_on_c, 0, 79, 0
2, 143280, Note_on_c, 0, 76, 0
2, 143280, Note_on_c, 0, 67, 0
2, 143280, Note_on_c, 0, 66, 107
2, 143280, Note_on_c, 0, 75, 107
2, 143280, Note_on_c, 0, 78, 107
2, 144000, Note_on_c, 0, 78, 0
2, 144000, Note_on_c, 0, 75, 0
2, 144000, Note_on_c, 0, 66, 0
2, 144000, Note_on_c, 0, 65, 107
2, 144000, Note_on_c, 0, 74, 107
2, 144000, Note_on_c, 0, 77, 107
2, 144720, Note_on_c, 0, 77, 0
2, 144720, Note_on_c, 0, 74, 0
2, 144720, Note_on_c, 0, 65, 0
2, 144720, Note_on_c, 0, 64, 107
2, 144720, Note_on_c, 0, 73, 107
2, 144720, Note_on_c, 0, 76, 107
2, 145440, Note_on_c, 0, 76, 0
2, 145440, Note_on_c, 0, 73, 0
2, 145440, Note_on_c, 0, 64, 0
2, 145440, Note_on_c, 0, 63, 107
2, 145440, Note_on_c, 0, 72, 107
2, 145440, Note_on_c, 0, 75, 107
2, 146160, Note_on_c, 0, 75, 0
2, 146160, Note_on_c, 0, 72, 0
2, 146160, Note_on_c, 0, 63, 0
2, 146160, Note_on_c, 0, 64, 107
2, 146160, Note_on_c, 0, 73, 107
2, 146160, Note_on_c, 0, 76, 107
2, 146880, Note_on_c, 0, 76, 0
2, 146880, Note_on_c, 0, 73, 0
2, 146880, Note_on_c, 0, 64, 0
2, 146880, Note_on_c, 0, 78, 107
2, 146880, Note_on_c, 0, 86, 107
2, 147120, Note_on_c, 0, 86, 0
2, 147120, Note_on_c, 0, 78, 0
2, 147120, Note_on_c, 0, 81, 107
2, 147120, Note_on_c, 0, 85, 107
2, 147360, Note_on_c, 0, 85, 0
2, 147360, Note_on_c, 0, 81, 0
2, 147360, Note_on_c, 0, 78, 107
2, 147360, Note_on_c, 0, 86, 107
2, 147600, Note_on_c, 0, 86, 0
2, 147600, Note_on_c, 0, 78, 0
2, 147600, Note_on_c, 0, 79, 107
2, 147600, Note_on_c, 0, 83, 107
2, 148080, Note_on_c, 0, 83, 0
2, 148080, Note_on_c, 0, 79, 0
2, 148080, Note_on_c, 0, 79, 107
2, 148080, Note_on_c, 0, 83, 107
2, 148320, Note_on_c, 0, 83, 0
2, 148320, Note_on_c, 0, 79, 0
2, 148320, Note_on_c, 0, 78, 107
2, 148320, Note_on_c, 0, 86, 107
2, 148800, Note_on_c, 0, 86, 0
2, 148800, Note_on_c, 0, 78, 0
2, 148800, Note_on_c, 0, 78, 107
2, 148800, Note_on_c, 0, 86, 107
2, 149040, Note_on_c, 0, 86, 0
2, 149040, Note_on_c, 0, 78, 0
2, 149040, Note_on_c, 0, 79, 107
2, 149040, Note_on_c, 0, 83, 107
2, 149520, Note_on_c, 0, 83, 0
2, 149520, Note_on_c, 0, 79, 0
2, 149520, Note_on_c, 0, 79, 107
2, 149520, Note_on_c, 0, 83, 107
2, 149760, Note_on_c, 0, 83, 0
2, 149760, Note_on_c, 0, 79, 0
2, 149760, Note_on_c, 0, 78, 107
2, 149760, Note_on_c, 0, 86, 107
2, 150000, Note_on_c, 0, 86, 0
2, 150000, Note_on_c, 0, 78, 0
2, 150000, Note_on_c, 0, 81, 107
2, 150000, Note_on_c, 0, 85, 107
2, 150240, Note_on_c, 0, 85, 0
2, 150240, Note_on_c, 0, 81, 0
2, 150240, Note_on_c, 0, 78, 107
2, 150240, Note_on_c, 0, 86, 107
2, 150480, Note_on_c, 0, 86, 0
2, 150480, Note_on_c, 0, 78, 0
2, 150480, Note_on_c, 0, 79, 107
2, 150480, Note_on_c, 0, 83, 107
2, 150960, Note_on_c, 0, 83, 0
2, 150960, Note_on_c, 0, 79, 0
2, 150960, Note_on_c, 0, 79, 107
2, 150960, Note_on_c, 0, 83, 107
2, 151200, Note_on_c, 0, 83, 0
2, 151200, Note_on_c, 0, 79, 0
2, 151200, Note_on_c, 0, 78, 107
2, 151200, Note_on_c, 0, 86, 107
2, 151680, Note_on_c, 0, 86, 0
2, 151680, Note_on_c, 0, 78, 0
2, 151680, Note_on_c, 0, 78, 107
2, 151680, Note_on_c, 0, 86, 107
2, 151920, Note_on_c, 0, 86, 0
2, 151920, Note_on_c, 0, 78, 0
2, 151920, Note_on_c, 0, 79, 107
2, 151920, Note_on_c, 0, 83, 107
2, 152400, Note_on_c, 0, 83, 0
2, 152400, Note_on_c, 0, 79, 0
2, 152400, Note_on_c, 0, 79, 107
2, 152400, Note_on_c, 0, 83, 107
2, 152640, Note_on_c, 0, 83, 0
2, 152640, Note_on_c, 0, 79, 0
2, 152640, Note_on_c, 0, 78, 107
2, 152640, Note_on_c, 0, 86, 107
2, 152880, Note_on_c, 0, 86, 0
2, 152880, Note_on_c, 0, 78, 0
2, 152880, Note_on_c, 0, 81, 107
2, 152880, Note_on_c, 0, 85, 107
2, 153120, Note_on_c, 0, 85, 0
2, 153120, Note_on_c, 0, 81, 0
2, 153120, Note_on_c, 0, 78, 107
2, 153120, Note_on_c, 0, 86, 107
2, 153360, Note_on_c, 0, 86, 0
2, 153360, Note_on_c, 0, 78, 0
2, 153360, Note_on_c, 0, 78, 107
2, 153360, Note_on_c, 0, 86, 107
2, 153600, Note_on_c, 0, 86, 0
2, 153600, Note_on_c, 0, 78, 0
2, 153600, Note_on_c, 0, 81, 107
2, 153600, Note_on_c, 0, 85, 107
2, 153840, Note_on_c, 0, 85, 0
2, 153840, Note_on_c, 0, 81, 0
2, 153840, Note_on_c, 0, 78, 107
2, 153840, Note_on_c, 0, 86, 107
2, 154080, Note_on_c, 0, 86, 0
2, 154080, Note_on_c, 0, 78, 0
2, 154080, Note_on_c, 0, 78, 107
2, 154080, Note_on_c, 0, 86, 107
2, 154320, Note_on_c, 0, 86, 0
2, 154320, Note_on_c, 0, 78, 0
2, 154320, Note_on_c, 0, 81, 107
2, 154320, Note_on_c, 0, 85, 107
2, 154560, Note_on_c, 0, 85, 0
2, 154560, Note_on_c, 0, 81, 0
2, 154560, Note_on_c, 0, 78, 107
2, 154560, Note_on_c, 0, 86, 107
2, 154800, Note_on_c, 0, 86, 0
2, 154800, Note_on_c, 0, 78, 0
2, 154800, Note_on_c, 0, 78, 107
2, 154800, Note_on_c, 0, 86, 107
2, 155040, Note_on_c, 0, 86, 0
2, 155040, Note_on_c, 0, 78, 0
2, 155040, Note_on_c, 0, 81, 107
2, 155040, Note_on_c, 0, 85, 107
2, 155280, Note_on_c, 0, 85, 0
2, 155280, Note_on_c, 0, 81, 0
2, 155280, Note_on_c, 0, 78, 107
2, 155280, Note_on_c, 0, 86, 107
2, 155520, Note_on_c, 0, 86, 0
2, 155520, Note_on_c, 0, 78, 0
2, 155520, Note_on_c, 0, 78, 107
2, 155520, Note_on_c, 0, 86, 107
2, 155760, Note_on_c, 0, 86, 0
2, 155760, Note_on_c, 0, 78, 0
2, 156240, Note_on_c, 0, 76, 107
2, 156240, Note_on_c, 0, 81, 107
2, 156240, Note_on_c, 0, 85, 107
2, 156240, Note_on_c, 0, 88, 107
2, 156480, Note_on_c, 0, 88, 0
2, 156480, Note_on_c, 0, 76, 0
2, 156480, Note_on_c, 0, 81, 0
2, 156480, Note_on_c, 0, 85, 0
2, 156480, Note_on_c, 0, 78, 107
2, 156480, Note_on_c, 0, 90, 107
2, 156720, Note_on_c, 0, 90, 0
2, 156720, Note_on_c, 0, 78, 0
2, 156720, Note_on_c, 0, 76, 107
2, 156720, Note_on_c, 0, 88, 107
2, 156960, Note_on_c, 0, 88, 0
2, 156960, Note_on_c, 0, 76, 0
2, 156960, Note_on_c, 0, 74, 107
2, 156960, Note_on_c, 0, 78, 107
2, 156960, Note_on_c, 0, 81, 107
2, 156960, Note_on_c, 0, 86, 107
2, 157200, Note_on_c, 0, 86, 0
2, 157200, Note_on_c, 0, 74, 0
2, 157200, Note_on_c, 0, 78, 0
2, 157200, Note_on_c, 0, 81, 0
2, 157680, Note_on_c, 0, 62, 127
2, 158400, Note_on_c, 0, 62, 0
2, 158400, Control_c, 0, 64, 127
2, 162240, Control_c, 0, 64, 0
2, 162240, End_track
3, 0, Start_track
3, 0, Title_t, "Grand Piano"
3, 0, Program_c, 0, 0
3, 0, Control_c, 0, 7, 115
3, 0, Control_c, 0, 10, 80
3, 22320, Note_on_c, 0, 76, 49
3, 22320, Note_on_c, 0, 79, 49
3, 22343, Note_on_c, 0, 79, 0
3, 22343, Note_on_c, 0, 76, 0
3, 22440, Note_on_c, 0, 78, 49
3, 22440, Note_on_c, 0, 81, 49
3, 22463, Note_on_c, 0, 81, 0
3, 22463, Note_on_c, 0, 78, 0
3, 22560, Note_on_c, 0, 79, 49
3, 22560, Note_on_c, 0, 83, 49
3, 22680, Note_on_c, 0, 83, 0
3, 22680, Note_on_c, 0, 79, 0
3, 22680, Note_on_c, 0, 78, 49
3, 22680, Note_on_c, 0, 81, 49
3, 22800, Note_on_c, 0, 81, 0
3, 22800, Note_on_c, 0, 78, 0
3, 22800, Note_on_c, 0, 76, 49
3, 22800, Note_on_c, 0, 79, 49
3, 22823, Note_on_c, 0, 79, 0
3, 22823, Note_on_c, 0, 76, 0
3, 22920, Note_on_c, 0, 74, 49
3, 22920, Note_on_c, 0, 78, 49
3, 22943, Note_on_c, 0, 78, 0
3, 22943, Note_on_c, 0, 74, 0
3, 23040, Note_on_c, 0, 73, 49
3, 23040, Note_on_c, 0, 76, 49
3, 23087, Note_on_c, 0, 76, 0
3, 23087, Note_on_c, 0, 73, 0
3, 24240, Note_on_c, 0, 74, 49
3, 24240, Note_on_c, 0, 78, 49
3, 24263, Note_on_c, 0, 78, 0
3, 24263, Note_on_c, 0, 74, 0
3, 24360, Note_on_c, 0, 76, 49
3, 24360, Note_on_c, 0, 79, 49
3, 24383, Note_on_c, 0, 79, 0
3, 24383, Note_on_c, 0, 76, 0
3, 24480, Note_on_c, 0, 78, 49
3, 24480, Note_on_c, 0, 81, 49
3, 24600, Note_on_c, 0, 81, 0
3, 24600, Note_on_c, 0, 78, 0
3, 24600, Note_on_c, 0, 76, 49
3, 24600, Note_on_c, 0, 79, 49
3, 24720, Note_on_c, 0, 79, 0
3, 24720, Note_on_c, 0, 76, 0
3, 24720, Note_on_c, 0, 74, 49
3, 24720, Note_on_c, 0, 78, 49
3, 24743, Note_on_c, 0, 78, 0
3, 24743, Note_on_c, 0, 74, 0
3, 24840, Note_on_c, 0, 76, 49
3, 24863, Note_on_c, 0, 76, 0
3, 24960, Note_on_c, 0, 66, 49
3, 24960, Note_on_c, 0, 74, 49
3, 25200, Note_on_c, 0, 74, 0
3, 25200, Note_on_c, 0, 66, 0
3, 26160, Note_on_c, 0, 69, 49
3, 26160, Note_on_c, 0, 73, 49
3, 26183, Note_on_c, 0, 73, 0
3, 26183, Note_on_c, 0, 69, 0
3, 26280, Note_on_c, 0, 71, 49
3, 26280, Note_on_c, 0, 74, 49
3, 26303, Note_on_c, 0, 74, 0
3, 26303, Note_on_c, 0, 71, 0
3, 26400, Note_on_c, 0, 73, 49
3, 26400, Note_on_c, 0, 76, 49
3, 26423, Note_on_c, 0, 76, 0
3, 26423, Note_on_c, 0, 73, 0
3, 26520, Note_on_c, 0, 74, 62
3, 26520, Note_on_c, 0, 78, 62
3, 26543, Note_on_c, 0, 78, 0
3, 26543, Note_on_c, 0, 74, 0
3, 26640, Note_on_c, 0, 76, 62
3, 26640, Note_on_c, 0, 79, 62
3, 26663, Note_on_c, 0, 79, 0
3, 26663, Note_on_c, 0, 76, 0
3, 26760, Note_on_c, 0, 78, 62
3, 26760, Note_on_c, 0, 81, 62
3, 26783, Note_on_c, 0, 81, 0
3, 26783, Note_on_c, 0, 78, 0
3, 26880, Note_on_c, 0, 79, 62
3, 26880, Note_on_c, 0, 83, 62
3, 27120, Note_on_c, 0, 83, 0
3, 27120, Note_on_c, 0, 79, 0
3, 27960, Note_on_c, 0, 74, 49
3, 27960, Note_on_c, 0, 78, 49
3, 27983, Note_on_c, 0, 78, 0
3, 27983, Note_on_c, 0, 74, 0
3, 28080, Note_on_c, 0, 76, 49
3, 28080, Note_on_c, 0, 79, 49
3, 28103, Note_on_c, 0, 79, 0
3, 28103, Note_on_c, 0, 76, 0
3, 28200, Note_on_c, 0, 78, 49
3, 28200, Note_on_c, 0, 81, 49
3, 28223, Note_on_c, 0, 81, 0
3, 28223, Note_on_c, 0, 78, 0
3, 28320, Note_on_c, 0, 79, 49
3, 28320, Note_on_c, 0, 83, 49
3, 28343, Note_on_c, 0, 83, 0
3, 28343, Note_on_c, 0, 79, 0
3, 28440, Note_on_c, 0, 81, 62
3, 28440, Note_on_c, 0, 85, 62
3, 28463, Note_on_c, 0, 85, 0
3, 28463, Note_on_c, 0, 81, 0
3, 28560, Note_on_c, 0, 83, 62
3, 28560, Note_on_c, 0, 86, 62
3, 28583, Note_on_c, 0, 86, 0
3, 28583, Note_on_c, 0, 83, 0
3, 28680, Note_on_c, 0, 85, 62
3, 28680, Note_on_c, 0, 88, 62
3, 28703, Note_on_c, 0, 88, 0
3, 28703, Note_on_c, 0, 85, 0
3, 28800, Note_on_c, 0, 86, 62
3, 28800, Note_on_c, 0, 90, 62
3, 28847, Note_on_c, 0, 90, 0
3, 28847, Note_on_c, 0, 86, 0
3, 29280, Note_on_c, 0, 62, 75
3, 29640, Note_on_c, 0, 62, 0
3, 29640, Note_on_c, 0, 62, 75
3, 29760, Note_on_c, 0, 62, 0
3, 37560, Note_on_c, 0, 74, 62
3, 37583, Note_on_c, 0, 74, 0
3, 37680, Note_on_c, 0, 71, 62
3, 37680, Note_on_c, 0, 79, 62
3, 37703, Note_on_c, 0, 79, 0
3, 37703, Note_on_c, 0, 71, 0
3, 37800, Note_on_c, 0, 74, 62
3, 37800, Note_on_c, 0, 81, 62
3, 37823, Note_on_c, 0, 81, 0
3, 37823, Note_on_c, 0, 74, 0
3, 37920, Note_on_c, 0, 79, 62
3, 37920, Note_on_c, 0, 83, 62
3, 37943, Note_on_c, 0, 83, 0
3, 37943, Note_on_c, 0, 79, 0
3, 38040, Note_on_c, 0, 86, 62
3, 38063, Note_on_c, 0, 86, 0
3, 38160, Note_on_c, 0, 83, 62
3, 38160, Note_on_c, 0, 91, 62
3, 38183, Note_on_c, 0, 91, 0
3, 38183, Note_on_c, 0, 83, 0
3, 38280, Note_on_c, 0, 86, 62
3, 38280, Note_on_c, 0, 93, 62
3, 38303, Note_on_c, 0, 93, 0
3, 38303, Note_on_c, 0, 86, 0
3, 38400, Note_on_c, 0, 91, 62
3, 38400, Note_on_c, 0, 95, 62
3, 38447, Note_on_c, 0, 95, 0
3, 38447, Note_on_c, 0, 91, 0
3, 39480, Note_on_c, 0, 69, 62
3, 39503, Note_on_c, 0, 69, 0
3, 39600, Note_on_c, 0, 74, 62
3, 39623, Note_on_c, 0, 74, 0
3, 39720, Note_on_c, 0, 69, 62
3, 39720, Note_on_c, 0, 76, 62
3, 39743, Note_on_c, 0, 76, 0
3, 39743, Note_on_c, 0, 69, 0
3, 39840, Note_on_c, 0, 74, 62
3, 39840, Note_on_c, 0, 78, 62
3, 39863, Note_on_c, 0, 78, 0
3, 39863, Note_on_c, 0, 74, 0
3, 39960, Note_on_c, 0, 81, 62
3, 39983, Note_on_c, 0, 81, 0
3, 40080, Note_on_c, 0, 78, 62
3, 40080, Note_on_c, 0, 86, 62
3, 40103, Note_on_c, 0, 86, 0
3, 40103, Note_on_c, 0, 78, 0
3, 40200, Note_on_c, 0, 81, 62
3, 40200, Note_on_c, 0, 88, 62
3, 40223, Note_on_c, 0, 88, 0
3, 40223, Note_on_c, 0, 81, 0
3, 40320, Note_on_c, 0, 86, 62
3, 40320, Note_on_c, 0, 90, 62
3, 40367, Note_on_c, 0, 90, 0
3, 40367, Note_on_c, 0, 86, 0
3, 41400, Note_on_c, 0, 64, 62
3, 41423, Note_on_c, 0, 64, 0
3, 41520, Note_on_c, 0, 69, 62
3, 41543, Note_on_c, 0, 69, 0
3, 41640, Note_on_c, 0, 71, 62
3, 41663, Note_on_c, 0, 71, 0
3, 41760, Note_on_c, 0, 69, 62
3, 41760, Note_on_c, 0, 73, 62
3, 41783, Note_on_c, 0, 73, 0
3, 41783, Note_on_c, 0, 69, 0
3, 41880, Note_on_c, 0, 76, 62
3, 41903, Note_on_c, 0, 76, 0
3, 42000, Note_on_c, 0, 73, 62
3, 42000, Note_on_c, 0, 81, 62
3, 42023, Note_on_c, 0, 81, 0
3, 42023, Note_on_c, 0, 73, 0
3, 42120, Note_on_c, 0, 76, 62
3, 42120, Note_on_c, 0, 83, 62
3, 42143, Note_on_c, 0, 83, 0
3, 42143, Note_on_c, 0, 76, 0
3, 42240, Note_on_c, 0, 81, 62
3, 42240, Note_on_c, 0, 85, 62
3, 42287, Note_on_c, 0, 85, 0
3, 42287, Note_on_c, 0, 81, 0
3, 43320, Note_on_c, 0, 69, 62
3, 43343, Note_on_c, 0, 69, 0
3, 43440, Note_on_c, 0, 66, 62
3, 43440, Note_on_c, 0, 74, 62
3, 43463, Note_on_c, 0, 74, 0
3, 43463, Note_on_c, 0, 66, 0
3, 43560, Note_on_c, 0, 69, 62
3, 43560, Note_on_c, 0, 76, 62
3, 43583, Note_on_c, 0, 76, 0
3, 43583, Note_on_c, 0, 69, 0
3, 43680, Note_on_c, 0, 74, 62
3, 43680, Note_on_c, 0, 78, 62
3, 43703, Note_on_c, 0, 78, 0
3, 43703, Note_on_c, 0, 74, 0
3, 43800, Note_on_c, 0, 81, 62
3, 43823, Note_on_c, 0, 81, 0
3, 43920, Note_on_c, 0, 78, 62
3, 43920, Note_on_c, 0, 86, 62
3, 43943, Note_on_c, 0, 86, 0
3, 43943, Note_on_c, 0, 78, 0
3, 44040, Note_on_c, 0, 81, 62
3, 44040, Note_on_c, 0, 88, 62
3, 44063, Note_on_c, 0, 88, 0
3, 44063, Note_on_c, 0, 81, 0
3, 44160, Note_on_c, 0, 86, 62
3, 44160, Note_on_c, 0, 90, 62
3, 44207, Note_on_c, 0, 90, 0
3, 44207, Note_on_c, 0, 86, 0
3, 44207, End_track
4, 0, Start_track
4, 0, Title_t, "Grand Piano"
4, 0, Program_c, 0, 0
4, 0, Control_c, 0, 7, 115
4, 0, Control_c, 0, 10, 41
4, 0, Note_on_c, 0, 42, 95
4, 0, Note_on_c, 0, 54, 95
4, 960, Note_on_c, 0, 54, 0
4, 960, Note_on_c, 0, 42, 0
4, 960, Note_on_c, 0, 41, 95
4, 960, Note_on_c, 0, 53, 95
4, 1920, Note_on_c, 0, 53, 0
4, 1920, Note_on_c, 0, 41, 0
4, 1920, Note_on_c, 0, 40, 82
4, 1920, Note_on_c, 0, 45, 82
4, 1920, Note_on_c, 0, 49, 82
4, 1920, Note_on_c, 0, 52, 82
4, 2400, Note_on_c, 0, 52, 0
4, 2400, Note_on_c, 0, 40, 0
4, 2400, Note_on_c, 0, 45, 0
4, 2400, Note_on_c, 0, 49, 0
4, 2400, Note_on_c, 0, 52, 82
4, 2400, Note_on_c, 0, 57, 82
4, 2400, Note_on_c, 0, 61, 82
4, 2400, Note_on_c, 0, 64, 82
4, 2880, Note_on_c, 0, 64, 0
4, 2880, Note_on_c, 0, 52, 0
4, 2880, Note_on_c, 0, 57, 0
4, 2880, Note_on_c, 0, 61, 0
4, 3360, Control_c, 0, 64, 127
4, 3360, Note_on_c, 0, 61, 82
4, 3480, Note_on_c, 0, 61, 0
4, 3480, Note_on_c, 0, 62, 82
4, 3600, Note_on_c, 0, 62, 0
4, 3600, Note_on_c, 0, 64, 82
4, 3720, Note_on_c, 0, 64, 0
4, 3720, Control_c, 0, 64, 0
4, 3720, Note_on_c, 0, 66, 82
4, 3840, Note_on_c, 0, 66, 0
4, 3840, Note_on_c, 0, 68, 82
4, 3960, Note_on_c, 0, 68, 0
4, 3960, Note_on_c, 0, 66, 82
4, 4080, Note_on_c, 0, 66, 0
4, 4080, Note_on_c, 0, 64, 82
4, 4320, Note_on_c, 0, 64, 0
4, 4320, Note_on_c, 0, 52, 82
4, 4320, Note_on_c, 0, 59, 82
4, 4320, Note_on_c, 0, 62, 82
4, 4320, Note_on_c, 0, 64, 82
4, 5280, Note_on_c, 0, 64, 0
4, 5280, Note_on_c, 0, 52, 0
4, 5280, Note_on_c, 0, 59, 0
4, 5280, Note_on_c, 0, 62, 0
4, 5280, Note_on_c, 0, 52, 82
4, 5280, Note_on_c, 0, 59, 82
4, 5280, Note_on_c, 0, 62, 82
4, 5280, Note_on_c, 0, 64, 82
4, 5760, Note_on_c, 0, 64, 0
4, 5760, Note_on_c, 0, 52, 0
4, 5760, Note_on_c, 0, 59, 0
4, 5760, Note_on_c, 0, 62, 0
4, 5760, Note_on_c, 0, 57, 82
4, 5760, Note_on_c, 0, 61, 82
4, 5760, Note_on_c, 0, 64, 82
4, 6240, Note_on_c, 0, 64, 0
4, 6240, Note_on_c, 0, 61, 0
4, 6240, Note_on_c, 0, 57, 0
4, 6240, Note_on_c, 0, 33, 82
4, 6240, Note_on_c, 0, 45, 82
4, 6720, Note_on_c, 0, 45, 0
4, 6720, Note_on_c, 0, 33, 0
4, 8640, Note_on_c, 0, 50, 56
4, 8880, Note_on_c, 0, 50, 0
4, 8880, Note_on_c, 0, 62, 56
4, 8880, Note_on_c, 0, 66, 56
4, 9000, Note_on_c, 0, 66, 0
4, 9000, Note_on_c, 0, 62, 0
4, 9000, Note_on_c, 0, 62, 56
4, 9000, Note_on_c, 0, 66, 56
4, 9120, Note_on_c, 0, 66, 0
4, 9120, Note_on_c, 0, 62, 0
4, 9120, Note_on_c, 0, 62, 56
4, 9120, Note_on_c, 0, 66, 56
4, 9360, Note_on_c, 0, 66, 0
4, 9360, Note_on_c, 0, 62, 0
4, 9360, Note_on_c, 0, 57, 56
4, 9360, Note_on_c, 0, 69, 56
4, 9600, Note_on_c, 0, 69, 0
4, 9600, Note_on_c, 0, 57, 0
4, 9600, Note_on_c, 0, 45, 56
4, 9840, Note_on_c, 0, 45, 0
4, 9840, Note_on_c, 0, 62, 56
4, 9840, Note_on_c, 0, 66, 56
4, 9960, Note_on_c, 0, 66, 0
4, 9960, Note_on_c, 0, 62, 0
4, 9960, Note_on_c, 0, 62, 56
4, 9960, Note_on_c, 0, 66, 56
4, 10080, Note_on_c, 0, 66, 0
4, 10080, Note_on_c, 0, 62, 0
4, 10080, Note_on_c, 0, 62, 56
4, 10080, Note_on_c, 0, 66, 56
4, 10320, Note_on_c, 0, 66, 0
4, 10320, Note_on_c, 0, 62, 0
4, 10320, Note_on_c, 0, 57, 56
4, 10320, Note_on_c, 0, 69, 56
4, 10560, Note_on_c, 0, 69, 0
4, 10560, Note_on_c, 0, 57, 0
4, 10560, Note_on_c, 0, 50, 56
4, 10800, Note_on_c, 0, 50, 0
4, 10800, Note_on_c, 0, 62, 56
4, 10800, Note_on_c, 0, 66, 56
4, 10920, Note_on_c, 0, 66, 0
4, 10920, Note_on_c, 0, 62, 0
4, 10920, Note_on_c, 0, 62, 56
4, 10920, Note_on_c, 0, 66, 56
4, 11040, Note_on_c, 0, 66, 0
4, 11040, Note_on_c, 0, 62, 0
4, 11040, Note_on_c, 0, 62, 56
4, 11040, Note_on_c, 0, 66, 56
4, 11280, Note_on_c, 0, 66, 0
4, 11280, Note_on_c, 0, 62, 0
4, 11280, Note_on_c, 0, 57, 56
4, 11280, Note_on_c, 0, 69, 56
4, 11520, Note_on_c, 0, 69, 0
4, 11520, Note_on_c, 0, 57, 0
4, 11520, Note_on_c, 0, 45, 56
4, 11760, Note_on_c, 0, 45, 0
4, 11760, Note_on_c, 0, 62, 56
4, 11760, Note_on_c, 0, 66, 56
4, 11880, Note_on_c, 0, 66, 0
4, 11880, Note_on_c, 0, 62, 0
4, 11880, Note_on_c, 0, 62, 56
4, 11880, Note_on_c, 0, 66, 56
4, 12000, Note_on_c, 0, 66, 0
4, 12000, Note_on_c, 0, 62, 0
4, 12000, Note_on_c, 0, 62, 56
4, 12000, Note_on_c, 0, 66, 56
4, 12240, Note_on_c, 0, 66, 0
4, 12240, Note_on_c, 0, 62, 0
4, 12240, Note_on_c, 0, 57, 56
4, 12240, Note_on_c, 0, 69, 56
4, 12480, Note_on_c, 0, 69, 0
4, 12480, Note_on_c, 0, 57, 0
4, 12480, Note_on_c, 0, 52, 56
4, 12720, Note_on_c, 0, 52, 0
4, 12720, Note_on_c, 0, 64, 56
4, 12720, Note_on_c, 0, 67, 56
4, 12840, Note_on_c, 0, 67, 0
4, 12840, Note_on_c, 0, 64, 0
4, 12840, Note_on_c, 0, 64, 56
4, 12840, Note_on_c, 0, 67, 56
4, 12960, Note_on_c, 0, 67, 0
4, 12960, Note_on_c, 0, 64, 0
4, 12960, Note_on_c, 0, 64, 56
4, 12960, Note_on_c, 0, 67, 56
4, 13200, Note_on_c, 0, 67, 0
4, 13200, Note_on_c, 0, 64, 0
4, 13200, Note_on_c, 0, 57, 56
4, 13200, Note_on_c, 0, 69, 56
4, 13440, Note_on_c, 0, 69, 0
4, 13440, Note_on_c, 0, 57, 0
4, 13440, Note_on_c, 0, 45, 56
4, 13680, Note_on_c, 0, 45, 0
4, 13680, Note_on_c, 0, 64, 56
4, 13680, Note_on_c, 0, 67, 56
4, 13800, Note_on_c, 0, 67, 0
4, 13800, Note_on_c, 0, 64, 0
4, 13800, Note_on_c, 0, 64, 56
4, 13800, Note_on_c, 0, 67, 56
4, 13920, Note_on_c, 0, 67, 0
4, 13920, Note_on_c, 0, 64, 0
4, 13920, Note_on_c, 0, 64, 56
4, 13920, Note_on_c, 0, 67, 56
4, 14160, Note_on_c, 0, 67, 0
4, 14160, Note_on_c, 0, 64, 0
4, 14160, Note_on_c, 0, 57, 56
4, 14160, Note_on_c, 0, 69, 56
4, 14400, Note_on_c, 0, 69, 0
4, 14400, Note_on_c, 0, 57, 0
4, 14400, Note_on_c, 0, 50, 56
4, 14640, Note_on_c, 0, 50, 0
4, 14640, Note_on_c, 0, 62, 56
4, 14640, Note_on_c, 0, 66, 56
4, 14760, Note_on_c, 0, 66, 0
4, 14760, Note_on_c, 0, 62, 0
4, 14760, Note_on_c, 0, 62, 56
4, 14760, Note_on_c, 0, 66, 56
4, 14880, Note_on_c, 0, 66, 0
4, 14880, Note_on_c, 0, 62, 0
4, 14880, Note_on_c, 0, 62, 56
4, 14880, Note_on_c, 0, 66, 56
4, 15120, Note_on_c, 0, 66, 0
4, 15120, Note_on_c, 0, 62, 0
4, 15120, Note_on_c, 0, 57, 56
4, 15120, Note_on_c, 0, 69, 56
4, 15360, Note_on_c, 0, 69, 0
4, 15360, Note_on_c, 0, 57, 0
4, 15360, Note_on_c, 0, 45, 56
4, 15600, Note_on_c, 0, 45, 0
4, 15600, Note_on_c, 0, 62, 56
4, 15600, Note_on_c, 0, 66, 56
4, 15720, Note_on_c, 0, 66, 0
4, 15720, Note_on_c, 0, 62, 0
4, 15720, Note_on_c, 0, 62, 56
4, 15720, Note_on_c, 0, 66, 56
4, 15840, Note_on_c, 0, 66, 0
4, 15840, Note_on_c, 0, 62, 0
4, 15840, Note_on_c, 0, 62, 56
4, 15840, Note_on_c, 0, 66, 56
4, 16080, Note_on_c, 0, 66, 0
4, 16080, Note_on_c, 0, 62, 0
4, 16080, Note_on_c, 0, 57, 56
4, 16080, Note_on_c, 0, 62, 56
4, 16320, Note_on_c, 0, 62, 0
4, 16320, Note_on_c, 0, 57, 0
4, 16320, Note_on_c, 0, 49, 56
4, 16560, Note_on_c, 0, 49, 0
4, 16560, Note_on_c, 0, 57, 56
4, 16560, Note_on_c, 0, 64, 56
4, 16680, Note_on_c, 0, 64, 0
4, 16680, Note_on_c, 0, 57, 0
4, 16680, Note_on_c, 0, 57, 56
4, 16680, Note_on_c, 0, 64, 56
4, 16800, Note_on_c, 0, 64, 0
4, 16800, Note_on_c, 0, 57, 0
4, 16800, Note_on_c, 0, 57, 56
4, 16800, Note_on_c, 0, 64, 56
4, 17040, Note_on_c, 0, 64, 0
4, 17040, Note_on_c, 0, 57, 0
4, 17040, Note_on_c, 0, 57, 56
4, 17040, Note_on_c, 0, 64, 56
4, 17280, Note_on_c, 0, 64, 0
4, 17280, Note_on_c, 0, 57, 0
4, 17280, Note_on_c, 0, 45, 56
4, 17520, Note_on_c, 0, 45, 0
4, 17520, Note_on_c, 0, 61, 56
4, 17520, Note_on_c, 0, 64, 56
4, 17640, Note_on_c, 0, 64, 0
4, 17640, Note_on_c, 0, 61, 0
4, 17640, Note_on_c, 0, 61, 56
4, 17640, Note_on_c, 0, 64, 56
4, 17760, Note_on_c, 0, 64, 0
4, 17760, Note_on_c, 0, 61, 0
4, 17760, Note_on_c, 0, 61, 56
4, 17760, Note_on_c, 0, 64, 56
4, 18000, Note_on_c, 0, 64, 0
4, 18000, Note_on_c, 0, 61, 0
4, 18000, Note_on_c, 0, 57, 56
4, 18000, Note_on_c, 0, 61, 56
4, 18240, Note_on_c, 0, 61, 0
4, 18240, Note_on_c, 0, 57, 0
4, 18240, Note_on_c, 0, 50, 56
4, 18480, Note_on_c, 0, 50, 0
4, 18480, Note_on_c, 0, 54, 56
4, 18480, Note_on_c, 0, 57, 56
4, 18480, Note_on_c, 0, 62, 56
4, 18600, Note_on_c, 0, 62, 0
4, 18600, Note_on_c, 0, 57, 0
4, 18600, Note_on_c, 0, 54, 0
4, 18600, Note_on_c, 0, 54, 56
4, 18600, Note_on_c, 0, 57, 56
4, 18600, Note_on_c, 0, 62, 56
4, 18720, Note_on_c, 0, 62, 0
4, 18720, Note_on_c, 0, 57, 0
4, 18720, Note_on_c, 0, 54, 0
4, 18720, Note_on_c, 0, 54, 56
4, 18720, Note_on_c, 0, 57, 56
4, 18720, Note_on_c, 0, 62, 56
4, 18960, Note_on_c, 0, 62, 0
4, 18960, Note_on_c, 0, 57, 0
4, 18960, Note_on_c, 0, 54, 0
4, 18960, Note_on_c, 0, 57, 56
4, 19200, Note_on_c, 0, 57, 0
4, 19200, Note_on_c, 0, 45, 56
4, 19440, Note_on_c, 0, 45, 0
4, 19440, Note_on_c, 0, 62, 56
4, 19440, Note_on_c, 0, 66, 56
4, 19560, Note_on_c, 0, 66, 0
4, 19560, Note_on_c, 0, 62, 0
4, 19560, Note_on_c, 0, 62, 56
4, 19560, Note_on_c, 0, 66, 56
4, 19680, Note_on_c, 0, 66, 0
4, 19680, Note_on_c, 0, 62, 0
4, 19680, Note_on_c, 0, 62, 56
4, 19680, Note_on_c, 0, 66, 56
4, 19920, Note_on_c, 0, 66, 0
4, 19920, Note_on_c, 0, 62, 0
4, 19920, Note_on_c, 0, 57, 56
4, 19920, Note_on_c, 0, 69, 56
4, 20160, Note_on_c, 0, 69, 0
4, 20160, Note_on_c, 0, 57, 0
4, 20160, Note_on_c, 0, 50, 56
4, 20400, Note_on_c, 0, 50, 0
4, 20400, Note_on_c, 0, 62, 56
4, 20400, Note_on_c, 0, 66, 56
4, 20520, Note_on_c, 0, 66, 0
4, 20520, Note_on_c, 0, 62, 0
4, 20520, Note_on_c, 0, 62, 56
4, 20520, Note_on_c, 0, 66, 56
4, 20640, Note_on_c, 0, 66, 0
4, 20640, Note_on_c, 0, 62, 0
4, 20640, Note_on_c, 0, 62, 56
4, 20640, Note_on_c, 0, 66, 56
4, 20880, Note_on_c, 0, 66, 0
4, 20880, Note_on_c, 0, 62, 0
4, 20880, Note_on_c, 0, 57, 56
4, 20880, Note_on_c, 0, 69, 56
4, 21120, Note_on_c, 0, 69, 0
4, 21120, Note_on_c, 0, 57, 0
4, 21120, Note_on_c, 0, 45, 56
4, 21360, Note_on_c, 0, 45, 0
4, 21360, Note_on_c, 0, 62, 56
4, 21360, Note_on_c, 0, 66, 56
4, 21480, Note_on_c, 0, 66, 0
4, 21480, Note_on_c, 0, 62, 0
4, 21480, Note_on_c, 0, 62, 56
4, 21480, Note_on_c, 0, 66, 56
4, 21600, Note_on_c, 0, 66, 0
4, 21600, Note_on_c, 0, 62, 0
4, 21600, Note_on_c, 0, 62, 56
4, 21600, Note_on_c, 0, 66, 56
4, 21840, Note_on_c, 0, 66, 0
4, 21840, Note_on_c, 0, 62, 0
4, 21840, Note_on_c, 0, 57, 56
4, 21840, Note_on_c, 0, 69, 56
4, 22080, Note_on_c, 0, 69, 0
4, 22080, Note_on_c, 0, 57, 0
4, 22080, Note_on_c, 0, 52, 56
4, 22320, Note_on_c, 0, 52, 0
4, 22320, Note_on_c, 0, 64, 56
4, 22320, Note_on_c, 0, 67, 56
4, 22440, Note_on_c, 0, 67, 0
4, 22440, Note_on_c, 0, 64, 0
4, 22440, Note_on_c, 0, 64, 56
4, 22440, Note_on_c, 0, 67, 56
4, 22560, Note_on_c, 0, 67, 0
4, 22560, Note_on_c, 0, 64, 0
4, 22560, Note_on_c, 0, 64, 56
4, 22560, Note_on_c, 0, 67, 56
4, 22800, Note_on_c, 0, 67, 0
4, 22800, Note_on_c, 0, 64, 0
4, 22800, Note_on_c, 0, 57, 56
4, 22800, Note_on_c, 0, 69, 56
4, 23040, Note_on_c, 0, 69, 0
4, 23040, Note_on_c, 0, 57, 0
4, 23040, Note_on_c, 0, 45, 56
4, 23280, Note_on_c, 0, 45, 0
4, 23280, Note_on_c, 0, 64, 56
4, 23280, Note_on_c, 0, 67, 56
4, 23400, Note_on_c, 0, 67, 0
4, 23400, Note_on_c, 0, 64, 0
4, 23400, Note_on_c, 0, 64, 56
4, 23400, Note_on_c, 0, 67, 56
4, 23520, Note_on_c, 0, 67, 0
4, 23520, Note_on_c, 0, 64, 0
4, 23520, Note_on_c, 0, 64, 56
4, 23520, Note_on_c, 0, 67, 56
4, 23760, Note_on_c, 0, 67, 0
4, 23760, Note_on_c, 0, 64, 0
4, 23760, Note_on_c, 0, 57, 56
4, 23760, Note_on_c, 0, 69, 56
4, 24000, Note_on_c, 0, 69, 0
4, 24000, Note_on_c, 0, 57, 0
4, 24000, Note_on_c, 0, 50, 56
4, 24240, Note_on_c, 0, 50, 0
4, 24240, Note_on_c, 0, 62, 56
4, 24240, Note_on_c, 0, 66, 56
4, 24360, Note_on_c, 0, 66, 0
4, 24360, Note_on_c, 0, 62, 0
4, 24360, Note_on_c, 0, 62, 56
4, 24360, Note_on_c, 0, 66, 56
4, 24480, Note_on_c, 0, 66, 0
4, 24480, Note_on_c, 0, 62, 0
4, 24480, Note_on_c, 0, 62, 56
4, 24480, Note_on_c, 0, 66, 56
4, 24720, Note_on_c, 0, 66, 0
4, 24720, Note_on_c, 0, 62, 0
4, 24720, Note_on_c, 0, 57, 56
4, 24720, Note_on_c, 0, 69, 56
4, 24960, Note_on_c, 0, 69, 0
4, 24960, Note_on_c, 0, 57, 0
4, 24960, Note_on_c, 0, 45, 56
4, 25200, Note_on_c, 0, 45, 0
4, 25200, Note_on_c, 0, 62, 56
4, 25200, Note_on_c, 0, 66, 56
4, 25320, Note_on_c, 0, 66, 0
4, 25320, Note_on_c, 0, 62, 0
4, 25320, Note_on_c, 0, 62, 56
4, 25320, Note_on_c, 0, 66, 56
4, 25440, Note_on_c, 0, 66, 0
4, 25440, Note_on_c, 0, 62, 0
4, 25440, Note_on_c, 0, 62, 56
4, 25440, Note_on_c, 0, 66, 56
4, 25680, Note_on_c, 0, 66, 0
4, 25680, Note_on_c, 0, 62, 0
4, 25680, Note_on_c, 0, 57, 56
4, 25680, Note_on_c, 0, 62, 56
4, 25920, Note_on_c, 0, 62, 0
4, 25920, Note_on_c, 0, 57, 0
4, 25920, Note_on_c, 0, 49, 56
4, 26160, Note_on_c, 0, 49, 0
4, 26160, Note_on_c, 0, 57, 56
4, 26160, Note_on_c, 0, 64, 56
4, 26280, Note_on_c, 0, 64, 0
4, 26280, Note_on_c, 0, 57, 0
4, 26280, Note_on_c, 0, 57, 56
4, 26280, Note_on_c, 0, 64, 56
4, 26400, Note_on_c, 0, 64, 0
4, 26400, Note_on_c, 0, 57, 0
4, 26400, Note_on_c, 0, 57, 56
4, 26400, Note_on_c, 0, 64, 56
4, 26640, Note_on_c, 0, 64, 0
4, 26640, Note_on_c, 0, 57, 0
4, 26640, Note_on_c, 0, 57, 56
4, 26640, Note_on_c, 0, 64, 56
4, 26880, Note_on_c, 0, 64, 0
4, 26880, Note_on_c, 0, 57, 0
4, 26880, Note_on_c, 0, 45, 56
4, 27120, Note_on_c, 0, 45, 0
4, 27120, Note_on_c, 0, 61, 56
4, 27120, Note_on_c, 0, 64, 56
4, 27240, Note_on_c, 0, 64, 0
4, 27240, Note_on_c, 0, 61, 0
4, 27240, Note_on_c, 0, 61, 56
4, 27240, Note_on_c, 0, 64, 56
4, 27360, Note_on_c, 0, 64, 0
4, 27360, Note_on_c, 0, 61, 0
4, 27360, Note_on_c, 0, 61, 56
4, 27360, Note_on_c, 0, 64, 56
4, 27600, Note_on_c, 0, 64, 0
4, 27600, Note_on_c, 0, 61, 0
4, 27600, Note_on_c, 0, 57, 56
4, 27600, Note_on_c, 0, 61, 56
4, 27840, Note_on_c, 0, 61, 0
4, 27840, Note_on_c, 0, 57, 0
4, 27840, Note_on_c, 0, 50, 56
4, 28080, Note_on_c, 0, 50, 0
4, 28080, Note_on_c, 0, 54, 56
4, 28080, Note_on_c, 0, 57, 56
4, 28200, Note_on_c, 0, 57, 0
4, 28200, Note_on_c, 0, 54, 0
4, 28200, Note_on_c, 0, 54, 56
4, 28200, Note_on_c, 0, 57, 56
4, 28320, Note_on_c, 0, 57, 0
4, 28320, Note_on_c, 0, 54, 0
4, 28320, Note_on_c, 0, 54, 56
4, 28320, Note_on_c, 0, 57, 56
4, 28560, Note_on_c, 0, 57, 0
4, 28560, Note_on_c, 0, 54, 0
4, 28560, Note_on_c, 0, 54, 56
4, 28560, Note_on_c, 0, 57, 56
4, 28800, Note_on_c, 0, 57, 0
4, 28800, Note_on_c, 0, 54, 0
4, 29760, Note_on_c, 0, 43, 69
4, 29760, Note_on_c, 0, 55, 69
4, 30000, Note_on_c, 0, 55, 0
4, 30000, Note_on_c, 0, 43, 0
4, 30000, Note_on_c, 0, 59, 69
4, 30000, Note_on_c, 0, 62, 69
4, 30000, Note_on_c, 0, 67, 69
4, 30120, Note_on_c, 0, 67, 0
4, 30120, Note_on_c, 0, 62, 0
4, 30120, Note_on_c, 0, 59, 0
4, 30120, Note_on_c, 0, 59, 69
4, 30120, Note_on_c, 0, 62, 69
4, 30120, Note_on_c, 0, 67, 69
4, 30240, Note_on_c, 0, 67, 0
4, 30240, Note_on_c, 0, 62, 0
4, 30240, Note_on_c, 0, 59, 0
4, 30240, Note_on_c, 0, 59, 69
4, 30240, Note_on_c, 0, 62, 69
4, 30240, Note_on_c, 0, 67, 69
4, 30480, Note_on_c, 0, 67, 0
4, 30480, Note_on_c, 0, 62, 0
4, 30480, Note_on_c, 0, 59, 0
4, 30480, Note_on_c, 0, 59, 69
4, 30480, Note_on_c, 0, 62, 69
4, 30480, Note_on_c, 0, 67, 69
4, 30720, Note_on_c, 0, 67, 0
4, 30720, Note_on_c, 0, 62, 0
4, 30720, Note_on_c, 0, 59, 0
4, 30720, Note_on_c, 0, 43, 69
4, 30720, Note_on_c, 0, 55, 69
4, 30960, Note_on_c, 0, 55, 0
4, 30960, Note_on_c, 0, 43, 0
4, 30960, Note_on_c, 0, 59, 69
4, 30960, Note_on_c, 0, 62, 69
4, 30960, Note_on_c, 0, 67, 69
4, 31080, Note_on_c, 0, 67, 0
4, 31080, Note_on_c, 0, 62, 0
4, 31080, Note_on_c, 0, 59, 0
4, 31080, Note_on_c, 0, 59, 69
4, 31080, Note_on_c, 0, 62, 69
4, 31080, Note_on_c, 0, 67, 69
4, 31200, Note_on_c, 0, 67, 0
4, 31200, Note_on_c, 0, 62, 0
4, 31200, Note_on_c, 0, 59, 0
4, 31200, Note_on_c, 0, 59, 69
4, 31200, Note_on_c, 0, 62, 69
4, 31200, Note_on_c, 0, 67, 69
4, 31440, Note_on_c, 0, 67, 0
4, 31440, Note_on_c, 0, 62, 0
4, 31440, Note_on_c, 0, 59, 0
4, 31440, Note_on_c, 0, 59, 69
4, 31440, Note_on_c, 0, 62, 69
4, 31440, Note_on_c, 0, 67, 69
4, 31680, Note_on_c, 0, 67, 0
4, 31680, Note_on_c, 0, 62, 0
4, 31680, Note_on_c, 0, 59, 0
4, 31680, Note_on_c, 0, 38, 69
4, 31680, Note_on_c, 0, 50, 69
4, 31920, Note_on_c, 0, 50, 0
4, 31920, Note_on_c, 0, 38, 0
4, 31920, Note_on_c, 0, 57, 69
4, 31920, Note_on_c, 0, 62, 69
4, 31920, Note_on_c, 0, 66, 69
4, 32040, Note_on_c, 0, 66, 0
4, 32040, Note_on_c, 0, 62, 0
4, 32040, Note_on_c, 0, 57, 0
4, 32040, Note_on_c, 0, 57, 69
4, 32040, Note_on_c, 0, 62, 69
4, 32040, Note_on_c, 0, 66, 69
4, 32160, Note_on_c, 0, 66, 0
4, 32160, Note_on_c, 0, 62, 0
4, 32160, Note_on_c, 0, 57, 0
4, 32160, Note_on_c, 0, 57, 69
4, 32160, Note_on_c, 0, 62, 69
4, 32160, Note_on_c, 0, 66, 69
4, 32400, Note_on_c, 0, 66, 0
4, 32400, Note_on_c, 0, 62, 0
4, 32400, Note_on_c, 0, 57, 0
4, 32400, Note_on_c, 0, 57, 69
4, 32400, Note_on_c, 0, 62, 69
4, 32400, Note_on_c, 0, 66, 69
4, 32640, Note_on_c, 0, 66, 0
4, 32640, Note_on_c, 0, 62, 0
4, 32640, Note_on_c, 0, 57, 0
4, 32640, Note_on_c, 0, 38, 69
4, 32640, Note_on_c, 0, 50, 69
4, 32880, Note_on_c, 0, 50, 0
4, 32880, Note_on_c, 0, 38, 0
4, 32880, Note_on_c, 0, 57, 69
4, 32880, Note_on_c, 0, 62, 69
4, 32880, Note_on_c, 0, 66, 69
4, 33000, Note_on_c, 0, 66, 0
4, 33000, Note_on_c, 0, 62, 0
4, 33000, Note_on_c, 0, 57, 0
4, 33000, Note_on_c, 0, 57, 69
4, 33000, Note_on_c, 0, 62, 69
4, 33000, Note_on_c, 0, 66, 69
4, 33120, Note_on_c, 0, 66, 0
4, 33120, Note_on_c, 0, 62, 0
4, 33120, Note_on_c, 0, 57, 0
4, 33120, Note_on_c, 0, 57, 69
4, 33120, Note_on_c, 0, 62, 69
4, 33120, Note_on_c, 0, 66, 69
4, 33360, Note_on_c, 0, 66, 0
4, 33360, Note_on_c, 0, 62, 0
4, 33360, Note_on_c, 0, 57, 0
4, 33360, Note_on_c, 0, 57, 69
4, 33360, Note_on_c, 0, 62, 69
4, 33360, Note_on_c, 0, 66, 69
4, 33600, Note_on_c, 0, 66, 0
4, 33600, Note_on_c, 0, 62, 0
4, 33600, Note_on_c, 0, 57, 0
4, 33600, Note_on_c, 0, 45, 69
4, 33840, Note_on_c, 0, 45, 0
4, 33840, Note_on_c, 0, 57, 69
4, 33840, Note_on_c, 0, 61, 69
4, 33840, Note_on_c, 0, 64, 69
4, 33960, Note_on_c, 0, 64, 0
4, 33960, Note_on_c, 0, 61, 0
4, 33960, Note_on_c, 0, 57, 0
4, 33960, Note_on_c, 0, 57, 69
4, 33960, Note_on_c, 0, 61, 69
4, 33960, Note_on_c, 0, 64, 69
4, 34080, Note_on_c, 0, 64, 0
4, 34080, Note_on_c, 0, 61, 0
4, 34080, Note_on_c, 0, 57, 0
4, 34080, Note_on_c, 0, 57, 69
4, 34080, Note_on_c, 0, 61, 69
4, 34080, Note_on_c, 0, 64, 69
4, 34320, Note_on_c, 0, 64, 0
4, 34320, Note_on_c, 0, 61, 0
4, 34320, Note_on_c, 0, 57, 0
4, 34320, Note_on_c, 0, 57, 69
4, 34320, Note_on_c, 0, 61, 69
4, 34320, Note_on_c, 0, 64, 69
4, 34560, Note_on_c, 0, 64, 0
4, 34560, Note_on_c, 0, 61, 0
4, 34560, Note_on_c, 0, 57, 0
4, 34560, Note_on_c, 0, 45, 69
4, 34800, Note_on_c, 0, 45, 0
4, 34800, Note_on_c, 0, 57, 69
4, 34800, Note_on_c, 0, 61, 69
4, 34800, Note_on_c, 0, 64, 69
4, 34920, Note_on_c, 0, 64, 0
4, 34920, Note_on_c, 0, 61, 0
4, 34920, Note_on_c, 0, 57, 0
4, 34920, Note_on_c, 0, 57, 69
4, 34920, Note_on_c, 0, 61, 69
4, 34920, Note_on_c, 0, 64, 69
4, 35040, Note_on_c, 0, 64, 0
4, 35040, Note_on_c, 0, 61, 0
4, 35040, Note_on_c, 0, 57, 0
4, 35040, Note_on_c, 0, 57, 69
4, 35040, Note_on_c, 0, 61, 69
4, 35040, Note_on_c, 0, 64, 69
4, 35280, Note_on_c, 0, 64, 0
4, 35280, Note_on_c, 0, 61, 0
4, 35280, Note_on_c, 0, 57, 0
4, 35280, Note_on_c, 0, 57, 69
4, 35280, Note_on_c, 0, 61, 69
4, 35520, Note_on_c, 0, 61, 0
4, 35520, Note_on_c, 0, 57, 0
4, 35520, Note_on_c, 0, 38, 69
4, 35520, Note_on_c, 0, 50, 69
4, 35760, Note_on_c, 0, 50, 0
4, 35760, Note_on_c, 0, 38, 0
4, 35760, Note_on_c, 0, 54, 69
4, 35760, Note_on_c, 0, 57, 69
4, 35880, Note_on_c, 0, 57, 0
4, 35880, Note_on_c, 0, 54, 0
4, 35880, Note_on_c, 0, 54, 69
4, 35880, Note_on_c, 0, 57, 69
4, 36000, Note_on_c, 0, 57, 0
4, 36000, Note_on_c, 0, 54, 0
4, 36000, Note_on_c, 0, 54, 69
4, 36000, Note_on_c, 0, 57, 69
4, 36240, Note_on_c, 0, 57, 0
4, 36240, Note_on_c, 0, 54, 0
4, 36240, Note_on_c, 0, 54, 69
4, 36240, Note_on_c, 0, 57, 69
4, 36480, Note_on_c, 0, 57, 0
4, 36480, Note_on_c, 0, 54, 0
4, 36480, Note_on_c, 0, 38, 69
4, 36720, Note_on_c, 0, 38, 0
4, 36720, Note_on_c, 0, 54, 69
4, 36720, Note_on_c, 0, 57, 69
4, 36840, Note_on_c, 0, 57, 0
4, 36840, Note_on_c, 0, 54, 0
4, 36840, Note_on_c, 0, 54, 69
4, 36840, Note_on_c, 0, 57, 69
4, 36960, Note_on_c, 0, 57, 0
4, 36960, Note_on_c, 0, 54, 0
4, 36960, Note_on_c, 0, 54, 69
4, 36960, Note_on_c, 0, 57, 69
4, 37200, Note_on_c, 0, 57, 0
4, 37200, Note_on_c, 0, 54, 0
4, 37200, Note_on_c, 0, 54, 69
4, 37200, Note_on_c, 0, 57, 69
4, 37440, Note_on_c, 0, 57, 0
4, 37440, Note_on_c, 0, 54, 0
4, 37440, Note_on_c, 0, 43, 69
4, 37680, Note_on_c, 0, 43, 0
4, 37680, Note_on_c, 0, 59, 69
4, 37680, Note_on_c, 0, 62, 69
4, 37680, Note_on_c, 0, 67, 69
4, 37800, Note_on_c, 0, 67, 0
4, 37800, Note_on_c, 0, 62, 0
4, 37800, Note_on_c, 0, 59, 0
4, 37800, Note_on_c, 0, 59, 69
4, 37800, Note_on_c, 0, 62, 69
4, 37800, Note_on_c, 0, 67, 69
4, 37920, Note_on_c, 0, 67, 0
4, 37920, Note_on_c, 0, 62, 0
4, 37920, Note_on_c, 0, 59, 0
4, 37920, Note_on_c, 0, 59, 69
4, 37920, Note_on_c, 0, 62, 69
4, 37920, Note_on_c, 0, 67, 69
4, 38160, Note_on_c, 0, 67, 0
4, 38160, Note_on_c, 0, 62, 0
4, 38160, Note_on_c, 0, 59, 0
4, 38160, Note_on_c, 0, 59, 69
4, 38160, Note_on_c, 0, 62, 69
4, 38160, Note_on_c, 0, 67, 69
4, 38400, Note_on_c, 0, 67, 0
4, 38400, Note_on_c, 0, 62, 0
4, 38400, Note_on_c, 0, 59, 0
4, 38400, Note_on_c, 0, 43, 69
4, 38400, Note_on_c, 0, 55, 69
4, 38640, Note_on_c, 0, 55, 0
4, 38640, Note_on_c, 0, 43, 0
4, 38640, Note_on_c, 0, 59, 69
4, 38640, Note_on_c, 0, 62, 69
4, 38640, Note_on_c, 0, 67, 69
4, 38760, Note_on_c, 0, 67, 0
4, 38760, Note_on_c, 0, 62, 0
4, 38760, Note_on_c, 0, 59, 0
4, 38760, Note_on_c, 0, 59, 69
4, 38760, Note_on_c, 0, 62, 69
4, 38760, Note_on_c, 0, 67, 69
4, 38880, Note_on_c, 0, 67, 0
4, 38880, Note_on_c, 0, 62, 0
4, 38880, Note_on_c, 0, 59, 0
4, 38880, Note_on_c, 0, 59, 69
4, 38880, Note_on_c, 0, 62, 69
4, 38880, Note_on_c, 0, 67, 69
4, 39120, Note_on_c, 0, 67, 0
4, 39120, Note_on_c, 0, 62, 0
4, 39120, Note_on_c, 0, 59, 0
4, 39120, Note_on_c, 0, 59, 69
4, 39120, Note_on_c, 0, 62, 69
4, 39120, Note_on_c, 0, 67, 69
4, 39360, Note_on_c, 0, 67, 0
4, 39360, Note_on_c, 0, 62, 0
4, 39360, Note_on_c, 0, 59, 0
4, 39360, Note_on_c, 0, 38, 69
4, 39360, Note_on_c, 0, 50, 69
4, 39600, Note_on_c, 0, 50, 0
4, 39600, Note_on_c, 0, 38, 0
4, 39600, Note_on_c, 0, 57, 69
4, 39600, Note_on_c, 0, 62, 69
4, 39600, Note_on_c, 0, 66, 69
4, 39720, Note_on_c, 0, 66, 0
4, 39720, Note_on_c, 0, 62, 0
4, 39720, Note_on_c, 0, 57, 0
4, 39720, Note_on_c, 0, 57, 69
4, 39720, Note_on_c, 0, 62, 69
4, 39720, Note_on_c, 0, 66, 69
4, 39840, Note_on_c, 0, 66, 0
4, 39840, Note_on_c, 0, 62, 0
4, 39840, Note_on_c, 0, 57, 0
4, 39840, Note_on_c, 0, 57, 69
4, 39840, Note_on_c, 0, 62, 69
4, 39840, Note_on_c, 0, 66, 69
4, 40080, Note_on_c, 0, 66, 0
4, 40080, Note_on_c, 0, 62, 0
4, 40080, Note_on_c, 0, 57, 0
4, 40080, Note_on_c, 0, 57, 69
4, 40080, Note_on_c, 0, 62, 69
4, 40080, Note_on_c, 0, 66, 69
4, 40320, Note_on_c, 0, 66, 0
4, 40320, Note_on_c, 0, 62, 0
4, 40320, Note_on_c, 0, 57, 0
4, 40320, Note_on_c, 0, 38, 69
4, 40320, Note_on_c, 0, 50, 69
4, 40560, Note_on_c, 0, 50, 0
4, 40560, Note_on_c, 0, 38, 0
4, 40560, Note_on_c, 0, 57, 69
4, 40560, Note_on_c, 0, 62, 69
4, 40560, Note_on_c, 0, 66, 69
4, 40680, Note_on_c, 0, 66, 0
4, 40680, Note_on_c, 0, 62, 0
4, 40680, Note_on_c, 0, 57, 0
4, 40680, Note_on_c, 0, 57, 69
4, 40680, Note_on_c, 0, 62, 69
4, 40680, Note_on_c, 0, 66, 69
4, 40800, Note_on_c, 0, 66, 0
4, 40800, Note_on_c, 0, 62, 0
4, 40800, Note_on_c, 0, 57, 0
4, 40800, Note_on_c, 0, 57, 69
4, 40800, Note_on_c, 0, 62, 69
4, 40800, Note_on_c, 0, 66, 69
4, 41040, Note_on_c, 0, 66, 0
4, 41040, Note_on_c, 0, 62, 0
4, 41040, Note_on_c, 0, 57, 0
4, 41040, Note_on_c, 0, 57, 69
4, 41040, Note_on_c, 0, 62, 69
4, 41040, Note_on_c, 0, 66, 69
4, 41280, Note_on_c, 0, 66, 0
4, 41280, Note_on_c, 0, 62, 0
4, 41280, Note_on_c, 0, 57, 0
4, 41280, Note_on_c, 0, 45, 69
4, 41520, Note_on_c, 0, 45, 0
4, 41520, Note_on_c, 0, 57, 69
4, 41520, Note_on_c, 0, 61, 69
4, 41520, Note_on_c, 0, 64, 69
4, 41640, Note_on_c, 0, 64, 0
4, 41640, Note_on_c, 0, 61, 0
4, 41640, Note_on_c, 0, 57, 0
4, 41640, Note_on_c, 0, 57, 69
4, 41640, Note_on_c, 0, 61, 69
4, 41640, Note_on_c, 0, 64, 69
4, 41760, Note_on_c, 0, 64, 0
4, 41760, Note_on_c, 0, 61, 0
4, 41760, Note_on_c, 0, 57, 0
4, 41760, Note_on_c, 0, 57, 69
4, 41760, Note_on_c, 0, 61, 69
4, 41760, Note_on_c, 0, 64, 69
4, 42000, Note_on_c, 0, 64, 0
4, 42000, Note_on_c, 0, 61, 0
4, 42000, Note_on_c, 0, 57, 0
4, 42000, Note_on_c, 0, 57, 69
4, 42000, Note_on_c, 0, 61, 69
4, 42000, Note_on_c, 0, 64, 69
4, 42240, Note_on_c, 0, 64, 0
4, 42240, Note_on_c, 0, 61, 0
4, 42240, Note_on_c, 0, 57, 0
4, 42240, Note_on_c, 0, 45, 69
4, 42480, Note_on_c, 0, 45, 0
4, 42480, Note_on_c, 0, 57, 69
4, 42480, Note_on_c, 0, 61, 69
4, 42480, Note_on_c, 0, 64, 69
4, 42600, Note_on_c, 0, 64, 0
4, 42600, Note_on_c, 0, 61, 0
4, 42600, Note_on_c, 0, 57, 0
4, 42600, Note_on_c, 0, 57, 69
4, 42600, Note_on_c, 0, 61, 69
4, 42600, Note_on_c, 0, 64, 69
4, 42720, Note_on_c, 0, 64, 0
4, 42720, Note_on_c, 0, 61, 0
4, 42720, Note_on_c, 0, 57, 0
4, 42720, Note_on_c, 0, 57, 69
4, 42720, Note_on_c, 0, 61, 69
4, 42720, Note_on_c, 0, 64, 69
4, 42960, Note_on_c, 0, 64, 0
4, 42960, Note_on_c, 0, 61, 0
4, 42960, Note_on_c, 0, 57, 0
4, 42960, Note_on_c, 0, 57, 69
4, 42960, Note_on_c, 0, 61, 69
4, 42960, Note_on_c, 0, 64, 69
4, 43200, Note_on_c, 0, 64, 0
4, 43200, Note_on_c, 0, 61, 0
4, 43200, Note_on_c, 0, 57, 0
4, 43200, Note_on_c, 0, 38, 69
4, 43200, Note_on_c, 0, 45, 69
4, 43200, Note_on_c, 0, 50, 69
4, 43440, Note_on_c, 0, 50, 0
4, 43440, Note_on_c, 0, 45, 0
4, 43440, Note_on_c, 0, 38, 0
4, 43680, Note_on_c, 0, 50, 69
4, 43680, Note_on_c, 0, 54, 69
4, 43680, Note_on_c, 0, 57, 69
4, 43680, Note_on_c, 0, 62, 69
4, 43920, Note_on_c, 0, 62, 0
4, 43920, Note_on_c, 0, 50, 0
4, 43920, Note_on_c, 0, 54, 0
4, 43920, Note_on_c, 0, 57, 0
4, 45600, Note_on_c, 0, 55, 69
4, 45647, Note_on_c, 0, 55, 0
4, 45840, Note_on_c, 0, 59, 69
4, 45840, Note_on_c, 0, 62, 69
4, 45840, Note_on_c, 0, 67, 69
4, 45887, Note_on_c, 0, 67, 0
4, 45887, Note_on_c, 0, 62, 0
4, 45887, Note_on_c, 0, 59, 0
4, 46080, Note_on_c, 0, 55, 69
4, 46127, Note_on_c, 0, 55, 0
4, 46320, Note_on_c, 0, 59, 69
4, 46320, Note_on_c, 0, 62, 69
4, 46320, Note_on_c, 0, 67, 69
4, 46367, Note_on_c, 0, 67, 0
4, 46367, Note_on_c, 0, 62, 0
4, 46367, Note_on_c, 0, 59, 0
4, 46560, Note_on_c, 0, 55, 69
4, 46607, Note_on_c, 0, 55, 0
4, 46800, Note_on_c, 0, 59, 69
4, 46800, Note_on_c, 0, 62, 69
4, 46800, Note_on_c, 0, 67, 69
4, 46847, Note_on_c, 0, 67, 0
4, 46847, Note_on_c, 0, 62, 0
4, 46847, Note_on_c, 0, 59, 0
4, 47040, Note_on_c, 0, 55, 69
4, 47087, Note_on_c, 0, 55, 0
4, 47280, Note_on_c, 0, 59, 69
4, 47280, Note_on_c, 0, 62, 69
4, 47280, Note_on_c, 0, 67, 69
4, 47327, Note_on_c, 0, 67, 0
4, 47327, Note_on_c, 0, 62, 0
4, 47327, Note_on_c, 0, 59, 0
4, 47520, Note_on_c, 0, 50, 69
4, 47567, Note_on_c, 0, 50, 0
4, 47760, Note_on_c, 0, 57, 69
4, 47760, Note_on_c, 0, 62, 69
4, 47760, Note_on_c, 0, 66, 69
4, 47807, Note_on_c, 0, 66, 0
4, 47807, Note_on_c, 0, 62, 0
4, 47807, Note_on_c, 0, 57, 0
4, 48000, Note_on_c, 0, 50, 69
4, 48047, Note_on_c, 0, 50, 0
4, 48240, Note_on_c, 0, 57, 69
4, 48240, Note_on_c, 0, 62, 69
4, 48240, Note_on_c, 0, 66, 69
4, 48287, Note_on_c, 0, 66, 0
4, 48287, Note_on_c, 0, 62, 0
4, 48287, Note_on_c, 0, 57, 0
4, 48480, Note_on_c, 0, 50, 69
4, 48527, Note_on_c, 0, 50, 0
4, 48720, Note_on_c, 0, 57, 69
4, 48720, Note_on_c, 0, 62, 69
4, 48720, Note_on_c, 0, 66, 69
4, 48767, Note_on_c, 0, 66, 0
4, 48767, Note_on_c, 0, 62, 0
4, 48767, Note_on_c, 0, 57, 0
4, 48960, Note_on_c, 0, 50, 69
4, 49007, Note_on_c, 0, 50, 0
4, 49200, Note_on_c, 0, 57, 69
4, 49200, Note_on_c, 0, 62, 69
4, 49200, Note_on_c, 0, 66, 69
4, 49247, Note_on_c, 0, 66, 0
4, 49247, Note_on_c, 0, 62, 0
4, 49247, Note_on_c, 0, 57, 0
4, 49440, Note_on_c, 0, 45, 69
4, 49487, Note_on_c, 0, 45, 0
4, 49680, Note_on_c, 0, 57, 69
4, 49680, Note_on_c, 0, 61, 69
4, 49680, Note_on_c, 0, 64, 69
4, 49727, Note_on_c, 0, 64, 0
4, 49727, Note_on_c, 0, 61, 0
4, 49727, Note_on_c, 0, 57, 0
4, 49920, Note_on_c, 0, 45, 69
4, 49967, Note_on_c, 0, 45, 0
4, 50160, Note_on_c, 0, 57, 69
4, 50160, Note_on_c, 0, 61, 69
4, 50160, Note_on_c, 0, 64, 69
4, 50207, Note_on_c, 0, 64, 0
4, 50207, Note_on_c, 0, 61, 0
4, 50207, Note_on_c, 0, 57, 0
4, 50400, Note_on_c, 0, 45, 69
4, 50447, Note_on_c, 0, 45, 0
4, 50640, Note_on_c, 0, 57, 69
4, 50640, Note_on_c, 0, 61, 69
4, 50640, Note_on_c, 0, 64, 69
4, 50687, Note_on_c, 0, 64, 0
4, 50687, Note_on_c, 0, 61, 0
4, 50687, Note_on_c, 0, 57, 0
4, 50880, Note_on_c, 0, 45, 69
4, 50927, Note_on_c, 0, 45, 0
4, 51120, Note_on_c, 0, 57, 69
4, 51120, Note_on_c, 0, 61, 69
4, 51120, Note_on_c, 0, 64, 69
4, 51167, Note_on_c, 0, 64, 0
4, 51167, Note_on_c, 0, 61, 0
4, 51167, Note_on_c, 0, 57, 0
4, 51360, Note_on_c, 0, 50, 69
4, 51407, Note_on_c, 0, 50, 0
4, 51600, Note_on_c, 0, 57, 69
4, 51600, Note_on_c, 0, 62, 69
4, 51647, Note_on_c, 0, 62, 0
4, 51647, Note_on_c, 0, 57, 0
4, 51840, Note_on_c, 0, 50, 69
4, 51887, Note_on_c, 0, 50, 0
4, 52080, Note_on_c, 0, 57, 69
4, 52080, Note_on_c, 0, 62, 69
4, 52080, Note_on_c, 0, 66, 69
4, 52127, Note_on_c, 0, 66, 0
4, 52127, Note_on_c, 0, 62, 0
4, 52127, Note_on_c, 0, 57, 0
4, 52320, Note_on_c, 0, 50, 82
4, 52367, Note_on_c, 0, 50, 0
4, 52560, Note_on_c, 0, 57, 82
4, 52560, Note_on_c, 0, 62, 82
4, 52560, Note_on_c, 0, 66, 82
4, 52607, Note_on_c, 0, 66, 0
4, 52607, Note_on_c, 0, 62, 0
4, 52607, Note_on_c, 0, 57, 0
4, 52800, Note_on_c, 0, 50, 82
4, 52847, Note_on_c, 0, 50, 0
4, 53040, Note_on_c, 0, 57, 82
4, 53040, Note_on_c, 0, 62, 82
4, 53040, Note_on_c, 0, 66, 82
4, 53087, Note_on_c, 0, 66, 0
4, 53087, Note_on_c, 0, 62, 0
4, 53087, Note_on_c, 0, 57, 0
4, 53280, Note_on_c, 0, 55, 82
4, 53327, Note_on_c, 0, 55, 0
4, 53520, Note_on_c, 0, 59, 82
4, 53520, Note_on_c, 0, 62, 82
4, 53520, Note_on_c, 0, 67, 82
4, 53567, Note_on_c, 0, 67, 0
4, 53567, Note_on_c, 0, 62, 0
4, 53567, Note_on_c, 0, 59, 0
4, 53760, Note_on_c, 0, 55, 82
4, 53807, Note_on_c, 0, 55, 0
4, 54000, Note_on_c, 0, 59, 82
4, 54000, Note_on_c, 0, 62, 82
4, 54000, Note_on_c, 0, 67, 82
4, 54047, Note_on_c, 0, 67, 0
4, 54047, Note_on_c, 0, 62, 0
4, 54047, Note_on_c, 0, 59, 0
4, 54240, Note_on_c, 0, 55, 82
4, 54287, Note_on_c, 0, 55, 0
4, 54480, Note_on_c, 0, 59, 82
4, 54480, Note_on_c, 0, 62, 82
4, 54480, Note_on_c, 0, 67, 82
4, 54527, Note_on_c, 0, 67, 0
4, 54527, Note_on_c, 0, 62, 0
4, 54527, Note_on_c, 0, 59, 0
4, 54720, Note_on_c, 0, 55, 82
4, 54767, Note_on_c, 0, 55, 0
4, 54960, Note_on_c, 0, 59, 82
4, 54960, Note_on_c, 0, 62, 82
4, 54960, Note_on_c, 0, 67, 82
4, 55007, Note_on_c, 0, 67, 0
4, 55007, Note_on_c, 0, 62, 0
4, 55007, Note_on_c, 0, 59, 0
4, 55200, Note_on_c, 0, 50, 82
4, 55247, Note_on_c, 0, 50, 0
4, 55440, Note_on_c, 0, 57, 82
4, 55440, Note_on_c, 0, 62, 82
4, 55440, Note_on_c, 0, 66, 82
4, 55487, Note_on_c, 0, 66, 0
4, 55487, Note_on_c, 0, 62, 0
4, 55487, Note_on_c, 0, 57, 0
4, 55680, Note_on_c, 0, 50, 82
4, 55727, Note_on_c, 0, 50, 0
4, 55920, Note_on_c, 0, 57, 82
4, 55920, Note_on_c, 0, 62, 82
4, 55920, Note_on_c, 0, 66, 82
4, 55967, Note_on_c, 0, 66, 0
4, 55967, Note_on_c, 0, 62, 0
4, 55967, Note_on_c, 0, 57, 0
4, 56160, Note_on_c, 0, 50, 82
4, 56207, Note_on_c, 0, 50, 0
4, 56400, Note_on_c, 0, 57, 82
4, 56400, Note_on_c, 0, 62, 82
4, 56400, Note_on_c, 0, 66, 82
4, 56447, Note_on_c, 0, 66, 0
4, 56447, Note_on_c, 0, 62, 0
4, 56447, Note_on_c, 0, 57, 0
4, 56640, Note_on_c, 0, 50, 82
4, 56687, Note_on_c, 0, 50, 0
4, 56880, Note_on_c, 0, 57, 82
4, 56880, Note_on_c, 0, 62, 82
4, 56880, Note_on_c, 0, 66, 82
4, 56927, Note_on_c, 0, 66, 0
4, 56927, Note_on_c, 0, 62, 0
4, 56927, Note_on_c, 0, 57, 0
4, 57120, Note_on_c, 0, 45, 82
4, 57167, Note_on_c, 0, 45, 0
4, 57360, Note_on_c, 0, 57, 82
4, 57360, Note_on_c, 0, 61, 82
4, 57360, Note_on_c, 0, 64, 82
4, 57407, Note_on_c, 0, 64, 0
4, 57407, Note_on_c, 0, 61, 0
4, 57407, Note_on_c, 0, 57, 0
4, 57600, Note_on_c, 0, 45, 82
4, 57647, Note_on_c, 0, 45, 0
4, 57840, Note_on_c, 0, 57, 82
4, 57840, Note_on_c, 0, 61, 82
4, 57840, Note_on_c, 0, 64, 82
4, 57887, Note_on_c, 0, 64, 0
4, 57887, Note_on_c, 0, 61, 0
4, 57887, Note_on_c, 0, 57, 0
4, 58080, Note_on_c, 0, 45, 82
4, 58127, Note_on_c, 0, 45, 0
4, 58320, Note_on_c, 0, 57, 82
4, 58320, Note_on_c, 0, 61, 82
4, 58320, Note_on_c, 0, 64, 82
4, 58367, Note_on_c, 0, 64, 0
4, 58367, Note_on_c, 0, 61, 0
4, 58367, Note_on_c, 0, 57, 0
4, 58560, Note_on_c, 0, 45, 82
4, 58607, Note_on_c, 0, 45, 0
4, 58800, Note_on_c, 0, 57, 82
4, 58800, Note_on_c, 0, 61, 82
4, 58800, Note_on_c, 0, 64, 82
4, 58847, Note_on_c, 0, 64, 0
4, 58847, Note_on_c, 0, 61, 0
4, 58847, Note_on_c, 0, 57, 0
4, 59040, Note_on_c, 0, 50, 95
4, 59040, Note_on_c, 0, 54, 95
4, 59040, Note_on_c, 0, 57, 95
4, 59040, Note_on_c, 0, 62, 95
4, 59280, Note_on_c, 0, 62, 0
4, 59280, Note_on_c, 0, 50, 0
4, 59280, Note_on_c, 0, 54, 0
4, 59280, Note_on_c, 0, 57, 0
4, 59760, Note_on_c, 0, 38, 95
4, 59760, Note_on_c, 0, 50, 95
4, 60000, Note_on_c, 0, 50, 0
4, 60000, Note_on_c, 0, 38, 0
4, 61200, Note_on_c, 0, 45, 95
4, 61200, Note_on_c, 0, 57, 95
4, 61440, Note_on_c, 0, 57, 0
4, 61440, Note_on_c, 0, 45, 0
4, 61920, Note_on_c, 0, 38, 95
4, 61920, Note_on_c, 0, 50, 95
4, 62160, Note_on_c, 0, 50, 0
4, 62160, Note_on_c, 0, 38, 0
4, 62640, Note_on_c, 0, 50, 95
4, 62640, Note_on_c, 0, 54, 95
4, 62640, Note_on_c, 0, 57, 95
4, 62640, Note_on_c, 0, 62, 95
4, 62880, Note_on_c, 0, 62, 0
4, 62880, Note_on_c, 0, 50, 0
4, 62880, Note_on_c, 0, 54, 0
4, 62880, Note_on_c, 0, 57, 0
4, 64080, Note_on_c, 0, 45, 95
4, 64080, Note_on_c, 0, 57, 95
4, 64320, Note_on_c, 0, 57, 0
4, 64320, Note_on_c, 0, 45, 0
4, 64800, Note_on_c, 0, 38, 95
4, 64800, Note_on_c, 0, 50, 95
4, 65040, Note_on_c, 0, 50, 0
4, 65040, Note_on_c, 0, 38, 0
4, 65520, Note_on_c, 0, 50, 95
4, 65520, Note_on_c, 0, 54, 95
4, 65520, Note_on_c, 0, 57, 95
4, 65520, Note_on_c, 0, 62, 95
4, 65760, Note_on_c, 0, 62, 0
4, 65760, Note_on_c, 0, 50, 0
4, 65760, Note_on_c, 0, 54, 0
4, 65760, Note_on_c, 0, 57, 0
4, 66240, Note_on_c, 0, 62, 95
4, 66240, Note_on_c, 0, 66, 95
4, 66480, Note_on_c, 0, 66, 0
4, 66480, Note_on_c, 0, 62, 0
4, 66480, Note_on_c, 0, 64, 95
4, 66480, Note_on_c, 0, 67, 95
4, 66720, Note_on_c, 0, 67, 0
4, 66720, Note_on_c, 0, 64, 0
4, 66720, Note_on_c, 0, 66, 95
4, 66720, Note_on_c, 0, 69, 95
4, 66960, Note_on_c, 0, 69, 0
4, 66960, Note_on_c, 0, 66, 0
4, 66960, Note_on_c, 0, 62, 95
4, 66960, Note_on_c, 0, 66, 95
4, 67200, Note_on_c, 0, 66, 0
4, 67200, Note_on_c, 0, 62, 0
4, 67200, Note_on_c, 0, 64, 95
4, 67200, Note_on_c, 0, 67, 95
4, 67440, Note_on_c, 0, 67, 0
4, 67440, Note_on_c, 0, 64, 0
4, 67440, Note_on_c, 0, 66, 95
4, 67440, Note_on_c, 0, 69, 95
4, 67680, Note_on_c, 0, 69, 0
4, 67680, Note_on_c, 0, 66, 0
4, 67680, Note_on_c, 0, 62, 95
4, 67680, Note_on_c, 0, 66, 95
4, 67920, Note_on_c, 0, 66, 0
4, 67920, Note_on_c, 0, 62, 0
4, 67920, Note_on_c, 0, 64, 95
4, 67920, Note_on_c, 0, 67, 95
4, 68160, Note_on_c, 0, 67, 0
4, 68160, Note_on_c, 0, 64, 0
4, 68160, Note_on_c, 0, 66, 95
4, 68160, Note_on_c, 0, 69, 95
4, 68400, Note_on_c, 0, 69, 0
4, 68400, Note_on_c, 0, 66, 0
4, 68400, Note_on_c, 0, 62, 95
4, 68400, Note_on_c, 0, 66, 95
4, 68640, Note_on_c, 0, 66, 0
4, 68640, Note_on_c, 0, 62, 0
4, 68640, Note_on_c, 0, 64, 95
4, 68640, Note_on_c, 0, 67, 95
4, 68880, Note_on_c, 0, 67, 0
4, 68880, Note_on_c, 0, 64, 0
4, 68880, Note_on_c, 0, 66, 95
4, 68880, Note_on_c, 0, 69, 95
4, 69120, Note_on_c, 0, 69, 0
4, 69120, Note_on_c, 0, 66, 0
4, 69120, Note_on_c, 0, 62, 95
4, 69120, Note_on_c, 0, 66, 95
4, 69360, Note_on_c, 0, 66, 0
4, 69360, Note_on_c, 0, 62, 0
4, 69360, Note_on_c, 0, 64, 95
4, 69360, Note_on_c, 0, 67, 95
4, 69600, Note_on_c, 0, 67, 0
4, 69600, Note_on_c, 0, 64, 0
4, 69600, Note_on_c, 0, 66, 95
4, 69600, Note_on_c, 0, 69, 95
4, 69840, Note_on_c, 0, 69, 0
4, 69840, Note_on_c, 0, 66, 0
4, 69840, Note_on_c, 0, 56, 95
4, 69840, Note_on_c, 0, 58, 95
4, 69840, Note_on_c, 0, 62, 95
4, 69840, Note_on_c, 0, 65, 95
4, 70320, Note_on_c, 0, 65, 0
4, 70320, Note_on_c, 0, 56, 0
4, 70320, Note_on_c, 0, 58, 0
4, 70320, Note_on_c, 0, 62, 0
4, 70320, Note_on_c, 0, 56, 95
4, 70320, Note_on_c, 0, 58, 95
4, 70320, Note_on_c, 0, 62, 95
4, 70320, Note_on_c, 0, 65, 95
4, 70560, Note_on_c, 0, 65, 0
4, 70560, Note_on_c, 0, 56, 0
4, 70560, Note_on_c, 0, 58, 0
4, 70560, Note_on_c, 0, 62, 0
4, 70560, Note_on_c, 0, 57, 95
4, 70560, Note_on_c, 0, 62, 95
4, 70560, Note_on_c, 0, 64, 95
4, 70800, Note_on_c, 0, 64, 0
4, 70800, Note_on_c, 0, 62, 0
4, 70800, Note_on_c, 0, 57, 0
4, 71280, Note_on_c, 0, 45, 95
4, 71280, Note_on_c, 0, 52, 95
4, 71280, Note_on_c, 0, 61, 95
4, 71520, Note_on_c, 0, 61, 0
4, 71520, Note_on_c, 0, 52, 0
4, 71520, Note_on_c, 0, 45, 0
4, 72000, Note_on_c, 0, 57, 56
4, 72000, Note_on_c, 0, 61, 56
4, 72240, Note_on_c, 0, 61, 0
4, 72240, Note_on_c, 0, 57, 0
4, 72720, Note_on_c, 0, 56, 56
4, 72720, Note_on_c, 0, 59, 56
4, 72960, Note_on_c, 0, 59, 0
4, 72960, Note_on_c, 0, 56, 0
4, 73440, Note_on_c, 0, 55, 69
4, 73440, Note_on_c, 0, 58, 69
4, 73680, Note_on_c, 0, 58, 0
4, 73680, Note_on_c, 0, 55, 0
4, 74160, Note_on_c, 0, 54, 82
4, 74160, Note_on_c, 0, 57, 82
4, 74400, Note_on_c, 0, 57, 0
4, 74400, Note_on_c, 0, 54, 0
4, 74880, Note_on_c, 0, 52, 82
4, 74880, Note_on_c, 0, 55, 82
4, 75120, Note_on_c, 0, 55, 0
4, 75120, Note_on_c, 0, 52, 0
4, 75600, Note_on_c, 0, 57, 69
4, 75600, Note_on_c, 0, 61, 69
4, 75600, Note_on_c, 0, 64, 69
4, 75840, Note_on_c, 0, 64, 0
4, 75840, Note_on_c, 0, 61, 0
4, 75840, Note_on_c, 0, 57, 0
4, 76320, Note_on_c, 0, 54, 56
4, 76320, Note_on_c, 0, 61, 56
4, 76560, Note_on_c, 0, 61, 0
4, 76560, Note_on_c, 0, 54, 0
4, 77040, Note_on_c, 0, 59, 56
4, 77040, Note_on_c, 0, 62, 56
4, 77040, Note_on_c, 0, 66, 56
4, 77280, Note_on_c, 0, 66, 0
4, 77280, Note_on_c, 0, 62, 0
4, 77280, Note_on_c, 0, 59, 0
4, 77760, Note_on_c, 0, 57, 56
4, 77760, Note_on_c, 0, 61, 56
4, 78000, Note_on_c, 0, 61, 0
4, 78000, Note_on_c, 0, 57, 0
4, 78480, Note_on_c, 0, 56, 56
4, 78480, Note_on_c, 0, 59, 56
4, 78720, Note_on_c, 0, 59, 0
4, 78720, Note_on_c, 0, 56, 0
4, 79200, Note_on_c, 0, 55, 69
4, 79200, Note_on_c, 0, 58, 69
4, 79440, Note_on_c, 0, 58, 0
4, 79440, Note_on_c, 0, 55, 0
4, 79920, Note_on_c, 0, 54, 82
4, 79920, Note_on_c, 0, 57, 82
4, 80160, Note_on_c, 0, 57, 0
4, 80160, Note_on_c, 0, 54, 0
4, 80640, Note_on_c, 0, 52, 82
4, 80640, Note_on_c, 0, 55, 82
4, 80880, Note_on_c, 0, 55, 0
4, 80880, Note_on_c, 0, 52, 0
4, 81360, Note_on_c, 0, 57, 69
4, 81360, Note_on_c, 0, 61, 69
4, 81360, Note_on_c, 0, 64, 69
4, 81600, Note_on_c, 0, 64, 0
4, 81600, Note_on_c, 0, 61, 0
4, 81600, Note_on_c, 0, 57, 0
4, 82080, Note_on_c, 0, 54, 56
4, 82080, Note_on_c, 0, 61, 56
4, 82320, Note_on_c, 0, 61, 0
4, 82320, Note_on_c, 0, 54, 0
4, 82800, Note_on_c, 0, 59, 56
4, 82800, Note_on_c, 0, 62, 56
4, 82800, Note_on_c, 0, 66, 56
4, 83040, Note_on_c, 0, 66, 0
4, 83040, Note_on_c, 0, 62, 0
4, 83040, Note_on_c, 0, 59, 0
4, 83520, Note_on_c, 0, 57, 56
4, 83520, Note_on_c, 0, 61, 56
4, 83760, Note_on_c, 0, 61, 0
4, 83760, Note_on_c, 0, 57, 0
4, 84240, Note_on_c, 0, 56, 56
4, 84240, Note_on_c, 0, 59, 56
4, 84480, Note_on_c, 0, 59, 0
4, 84480, Note_on_c, 0, 56, 0
4, 84960, Note_on_c, 0, 55, 69
4, 84960, Note_on_c, 0, 58, 69
4, 85200, Note_on_c, 0, 58, 0
4, 85200, Note_on_c, 0, 55, 0
4, 85680, Note_on_c, 0, 54, 82
4, 85680, Note_on_c, 0, 57, 82
4, 85920, Note_on_c, 0, 57, 0
4, 85920, Note_on_c, 0, 54, 0
4, 86400, Note_on_c, 0, 52, 82
4, 86400, Note_on_c, 0, 55, 82
4, 86640, Note_on_c, 0, 55, 0
4, 86640, Note_on_c, 0, 52, 0
4, 87120, Note_on_c, 0, 50, 82
4, 87120, Note_on_c, 0, 53, 82
4, 87360, Note_on_c, 0, 53, 0
4, 87360, Note_on_c, 0, 50, 0
4, 87840, Note_on_c, 0, 49, 82
4, 87840, Note_on_c, 0, 52, 82
4, 88080, Note_on_c, 0, 52, 0
4, 88080, Note_on_c, 0, 49, 0
4, 88560, Note_on_c, 0, 33, 95
4, 88560, Note_on_c, 0, 45, 95
4, 88800, Note_on_c, 0, 45, 0
4, 88800, Note_on_c, 0, 33, 0
4, 90000, Note_on_c, 0, 45, 95
4, 90000, Note_on_c, 0, 57, 95
4, 90240, Note_on_c, 0, 57, 0
4, 90240, Note_on_c, 0, 45, 0
4, 90720, Note_on_c, 0, 38, 95
4, 90720, Note_on_c, 0, 50, 95
4, 90960, Note_on_c, 0, 50, 0
4, 90960, Note_on_c, 0, 38, 0
4, 91440, Note_on_c, 0, 50, 95
4, 91440, Note_on_c, 0, 54, 95
4, 91440, Note_on_c, 0, 57, 95
4, 91440, Note_on_c, 0, 62, 95
4, 91680, Note_on_c, 0, 62, 0
4, 91680, Note_on_c, 0, 50, 0
4, 91680, Note_on_c, 0, 54, 0
4, 91680, Note_on_c, 0, 57, 0
4, 92880, Note_on_c, 0, 45, 95
4, 92880, Note_on_c, 0, 57, 95
4, 93120, Note_on_c, 0, 57, 0
4, 93120, Note_on_c, 0, 45, 0
4, 93600, Note_on_c, 0, 38, 95
4, 93600, Note_on_c, 0, 50, 95
4, 93840, Note_on_c, 0, 50, 0
4, 93840, Note_on_c, 0, 38, 0
4, 94320, Note_on_c, 0, 50, 95
4, 94320, Note_on_c, 0, 54, 95
4, 94320, Note_on_c, 0, 57, 95
4, 94320, Note_on_c, 0, 62, 95
4, 94560, Note_on_c, 0, 62, 0
4, 94560, Note_on_c, 0, 50, 0
4, 94560, Note_on_c, 0, 54, 0
4, 94560, Note_on_c, 0, 57, 0
4, 95040, Note_on_c, 0, 62, 95
4, 95040, Note_on_c, 0, 66, 95
4, 95280, Note_on_c, 0, 66, 0
4, 95280, Note_on_c, 0, 62, 0
4, 95280, Note_on_c, 0, 64, 95
4, 95280, Note_on_c, 0, 67, 95
4, 95520, Note_on_c, 0, 67, 0
4, 95520, Note_on_c, 0, 64, 0
4, 95520, Note_on_c, 0, 66, 95
4, 95520, Note_on_c, 0, 69, 95
4, 95760, Note_on_c, 0, 69, 0
4, 95760, Note_on_c, 0, 66, 0
4, 95760, Note_on_c, 0, 62, 95
4, 95760, Note_on_c, 0, 66, 95
4, 96000, Note_on_c, 0, 66, 0
4, 96000, Note_on_c, 0, 62, 0
4, 96000, Note_on_c, 0, 64, 95
4, 96000, Note_on_c, 0, 67, 95
4, 96240, Note_on_c, 0, 67, 0
4, 96240, Note_on_c, 0, 64, 0
4, 96240, Note_on_c, 0, 66, 95
4, 96240, Note_on_c, 0, 69, 95
4, 96480, Note_on_c, 0, 69, 0
4, 96480, Note_on_c, 0, 66, 0
4, 96480, Note_on_c, 0, 62, 95
4, 96480, Note_on_c, 0, 66, 95
4, 96720, Note_on_c, 0, 66, 0
4, 96720, Note_on_c, 0, 62, 0
4, 96720, Note_on_c, 0, 64, 95
4, 96720, Note_on_c, 0, 67, 95
4, 96960, Note_on_c, 0, 67, 0
4, 96960, Note_on_c, 0, 64, 0
4, 96960, Note_on_c, 0, 66, 95
4, 96960, Note_on_c, 0, 69, 95
4, 97200, Note_on_c, 0, 69, 0
4, 97200, Note_on_c, 0, 66, 0
4, 97200, Note_on_c, 0, 62, 95
4, 97200, Note_on_c, 0, 66, 95
4, 97440, Note_on_c, 0, 66, 0
4, 97440, Note_on_c, 0, 62, 0
4, 97440, Note_on_c, 0, 64, 95
4, 97440, Note_on_c, 0, 67, 95
4, 97680, Note_on_c, 0, 67, 0
4, 97680, Note_on_c, 0, 64, 0
4, 97680, Note_on_c, 0, 66, 95
4, 97680, Note_on_c, 0, 69, 95
4, 97920, Note_on_c, 0, 69, 0
4, 97920, Note_on_c, 0, 66, 0
4, 97920, Note_on_c, 0, 62, 95
4, 97920, Note_on_c, 0, 66, 95
4, 98160, Note_on_c, 0, 66, 0
4, 98160, Note_on_c, 0, 62, 0
4, 98160, Note_on_c, 0, 64, 95
4, 98160, Note_on_c, 0, 67, 95
4, 98400, Note_on_c, 0, 67, 0
4, 98400, Note_on_c, 0, 64, 0
4, 98400, Note_on_c, 0, 66, 95
4, 98400, Note_on_c, 0, 69, 95
4, 98640, Note_on_c, 0, 69, 0
4, 98640, Note_on_c, 0, 66, 0
4, 98640, Note_on_c, 0, 56, 95
4, 98640, Note_on_c, 0, 58, 95
4, 98640, Note_on_c, 0, 62, 95
4, 98640, Note_on_c, 0, 65, 95
4, 99120, Note_on_c, 0, 65, 0
4, 99120, Note_on_c, 0, 56, 0
4, 99120, Note_on_c, 0, 58, 0
4, 99120, Note_on_c, 0, 62, 0
4, 99120, Note_on_c, 0, 56, 95
4, 99120, Note_on_c, 0, 58, 95
4, 99120, Note_on_c, 0, 62, 95
4, 99120, Note_on_c, 0, 65, 95
4, 99360, Note_on_c, 0, 65, 0
4, 99360, Note_on_c, 0, 56, 0
4, 99360, Note_on_c, 0, 58, 0
4, 99360, Note_on_c, 0, 62, 0
4, 99360, Note_on_c, 0, 57, 95
4, 99360, Note_on_c, 0, 62, 95
4, 99360, Note_on_c, 0, 64, 95
4, 99600, Note_on_c, 0, 64, 0
4, 99600, Note_on_c, 0, 62, 0
4, 99600, Note_on_c, 0, 57, 0
4, 100080, Note_on_c, 0, 45, 95
4, 100080, Note_on_c, 0, 52, 95
4, 100080, Note_on_c, 0, 61, 95
4, 100320, Note_on_c, 0, 61, 0
4, 100320, Note_on_c, 0, 52, 0
4, 100320, Note_on_c, 0, 45, 0
4, 100800, Note_on_c, 0, 57, 56
4, 100800, Note_on_c, 0, 61, 56
4, 101040, Note_on_c, 0, 61, 0
4, 101040, Note_on_c, 0, 57, 0
4, 101520, Note_on_c, 0, 56, 56
4, 101520, Note_on_c, 0, 59, 56
4, 101760, Note_on_c, 0, 59, 0
4, 101760, Note_on_c, 0, 56, 0
4, 102240, Note_on_c, 0, 55, 69
4, 102240, Note_on_c, 0, 58, 69
4, 102480, Note_on_c, 0, 58, 0
4, 102480, Note_on_c, 0, 55, 0
4, 102960, Note_on_c, 0, 54, 82
4, 102960, Note_on_c, 0, 57, 82
4, 103200, Note_on_c, 0, 57, 0
4, 103200, Note_on_c, 0, 54, 0
4, 103680, Note_on_c, 0, 52, 82
4, 103680, Note_on_c, 0, 55, 82
4, 103920, Note_on_c, 0, 55, 0
4, 103920, Note_on_c, 0, 52, 0
4, 104400, Note_on_c, 0, 57, 69
4, 104400, Note_on_c, 0, 61, 69
4, 104400, Note_on_c, 0, 64, 69
4, 104640, Note_on_c, 0, 64, 0
4, 104640, Note_on_c, 0, 61, 0
4, 104640, Note_on_c, 0, 57, 0
4, 105120, Note_on_c, 0, 54, 56
4, 105120, Note_on_c, 0, 61, 56
4, 105360, Note_on_c, 0, 61, 0
4, 105360, Note_on_c, 0, 54, 0
4, 105840, Note_on_c, 0, 59, 56
4, 105840, Note_on_c, 0, 62, 56
4, 105840, Note_on_c, 0, 66, 56
4, 106080, Note_on_c, 0, 66, 0
4, 106080, Note_on_c, 0, 62, 0
4, 106080, Note_on_c, 0, 59, 0
4, 106560, Note_on_c, 0, 57, 56
4, 106560, Note_on_c, 0, 61, 56
4, 106800, Note_on_c, 0, 61, 0
4, 106800, Note_on_c, 0, 57, 0
4, 107280, Note_on_c, 0, 56, 56
4, 107280, Note_on_c, 0, 59, 56
4, 107520, Note_on_c, 0, 59, 0
4, 107520, Note_on_c, 0, 56, 0
4, 108000, Note_on_c, 0, 55, 69
4, 108000, Note_on_c, 0, 58, 69
4, 108240, Note_on_c, 0, 58, 0
4, 108240, Note_on_c, 0, 55, 0
4, 108720, Note_on_c, 0, 54, 82
4, 108720, Note_on_c, 0, 57, 82
4, 108960, Note_on_c, 0, 57, 0
4, 108960, Note_on_c, 0, 54, 0
4, 109440, Note_on_c, 0, 52, 82
4, 109440, Note_on_c, 0, 55, 82
4, 109680, Note_on_c, 0, 55, 0
4, 109680, Note_on_c, 0, 52, 0
4, 110160, Note_on_c, 0, 57, 69
4, 110160, Note_on_c, 0, 61, 69
4, 110160, Note_on_c, 0, 64, 69
4, 110400, Note_on_c, 0, 64, 0
4, 110400, Note_on_c, 0, 61, 0
4, 110400, Note_on_c, 0, 57, 0
4, 110880, Note_on_c, 0, 54, 56
4, 110880, Note_on_c, 0, 61, 56
4, 111120, Note_on_c, 0, 61, 0
4, 111120, Note_on_c, 0, 54, 0
4, 111600, Note_on_c, 0, 59, 56
4, 111600, Note_on_c, 0, 62, 56
4, 111600, Note_on_c, 0, 66, 56
4, 111840, Note_on_c, 0, 66, 0
4, 111840, Note_on_c, 0, 62, 0
4, 111840, Note_on_c, 0, 59, 0
4, 112320, Note_on_c, 0, 52, 56
4, 112320, Note_on_c, 0, 59, 56
4, 112320, Note_on_c, 0, 62, 56
4, 112320, Note_on_c, 0, 64, 56
4, 112560, Note_on_c, 0, 64, 0
4, 112560, Note_on_c, 0, 52, 0
4, 112560, Note_on_c, 0, 59, 0
4, 112560, Note_on_c, 0, 62, 0
4, 113040, Note_on_c, 0, 52, 56
4, 113040, Note_on_c, 0, 59, 56
4, 113040, Note_on_c, 0, 62, 56
4, 113040, Note_on_c, 0, 64, 56
4, 113280, Note_on_c, 0, 64, 0
4, 113280, Note_on_c, 0, 52, 0
4, 113280, Note_on_c, 0, 59, 0
4, 113280, Note_on_c, 0, 62, 0
4, 113760, Note_on_c, 0, 52, 56
4, 113760, Note_on_c, 0, 59, 56
4, 113760, Note_on_c, 0, 62, 56
4, 113760, Note_on_c, 0, 64, 56
4, 114000, Note_on_c, 0, 64, 0
4, 114000, Note_on_c, 0, 52, 0
4, 114000, Note_on_c, 0, 59, 0
4, 114000, Note_on_c, 0, 62, 0
4, 114480, Note_on_c, 0, 52, 56
4, 114480, Note_on_c, 0, 59, 56
4, 114480, Note_on_c, 0, 62, 56
4, 114480, Note_on_c, 0, 64, 56
4, 114720, Note_on_c, 0, 64, 0
4, 114720, Note_on_c, 0, 52, 0
4, 114720, Note_on_c, 0, 59, 0
4, 114720, Note_on_c, 0, 62, 0
4, 115200, Note_on_c, 0, 52, 69
4, 115200, Note_on_c, 0, 59, 69
4, 115200, Note_on_c, 0, 62, 69
4, 115200, Note_on_c, 0, 64, 69
4, 115440, Note_on_c, 0, 64, 0
4, 115440, Note_on_c, 0, 52, 0
4, 115440, Note_on_c, 0, 59, 0
4, 115440, Note_on_c, 0, 62, 0
4, 115920, Note_on_c, 0, 52, 69
4, 115920, Note_on_c, 0, 59, 69
4, 115920, Note_on_c, 0, 62, 69
4, 115920, Note_on_c, 0, 64, 69
4, 116160, Note_on_c, 0, 64, 0
4, 116160, Note_on_c, 0, 52, 0
4, 116160, Note_on_c, 0, 59, 0
4, 116160, Note_on_c, 0, 62, 0
4, 116640, Note_on_c, 0, 52, 69
4, 116640, Note_on_c, 0, 59, 69
4, 116640, Note_on_c, 0, 62, 69
4, 116640, Note_on_c, 0, 64, 69
4, 116880, Note_on_c, 0, 64, 0
4, 116880, Note_on_c, 0, 52, 0
4, 116880, Note_on_c, 0, 59, 0
4, 116880, Note_on_c, 0, 62, 0
4, 117360, Note_on_c, 0, 52, 69
4, 117360, Note_on_c, 0, 59, 69
4, 117360, Note_on_c, 0, 62, 69
4, 117360, Note_on_c, 0, 64, 69
4, 117600, Note_on_c, 0, 64, 0
4, 117600, Note_on_c, 0, 52, 0
4, 117600, Note_on_c, 0, 59, 0
4, 117600, Note_on_c, 0, 62, 0
4, 118080, Note_on_c, 0, 57, 82
4, 118080, Note_on_c, 0, 61, 82
4, 118080, Note_on_c, 0, 64, 82
4, 118080, Note_on_c, 0, 67, 82
4, 118320, Note_on_c, 0, 67, 0
4, 118320, Note_on_c, 0, 57, 0
4, 118320, Note_on_c, 0, 61, 0
4, 118320, Note_on_c, 0, 64, 0
4, 118800, Note_on_c, 0, 57, 82
4, 118800, Note_on_c, 0, 61, 82
4, 118800, Note_on_c, 0, 64, 82
4, 118800, Note_on_c, 0, 67, 82
4, 119040, Note_on_c, 0, 67, 0
4, 119040, Note_on_c, 0, 57, 0
4, 119040, Note_on_c, 0, 61, 0
4, 119040, Note_on_c, 0, 64, 0
4, 119520, Note_on_c, 0, 57, 82
4, 119520, Note_on_c, 0, 61, 82
4, 119520, Note_on_c, 0, 64, 82
4, 119520, Note_on_c, 0, 67, 82
4, 119760, Note_on_c, 0, 67, 0
4, 119760, Note_on_c, 0, 57, 0
4, 119760, Note_on_c, 0, 61, 0
4, 119760, Note_on_c, 0, 64, 0
4, 120240, Note_on_c, 0, 57, 82
4, 120240, Note_on_c, 0, 61, 82
4, 120240, Note_on_c, 0, 64, 82
4, 120240, Note_on_c, 0, 67, 82
4, 120480, Note_on_c, 0, 67, 0
4, 120480, Note_on_c, 0, 57, 0
4, 120480, Note_on_c, 0, 61, 0
4, 120480, Note_on_c, 0, 64, 0
4, 120960, Note_on_c, 0, 57, 82
4, 120960, Note_on_c, 0, 61, 82
4, 120960, Note_on_c, 0, 64, 82
4, 120960, Note_on_c, 0, 67, 82
4, 121200, Note_on_c, 0, 67, 0
4, 121200, Note_on_c, 0, 57, 0
4, 121200, Note_on_c, 0, 61, 0
4, 121200, Note_on_c, 0, 64, 0
4, 121680, Note_on_c, 0, 57, 82
4, 121680, Note_on_c, 0, 61, 82
4, 121680, Note_on_c, 0, 64, 82
4, 121680, Note_on_c, 0, 67, 82
4, 121920, Note_on_c, 0, 67, 0
4, 121920, Note_on_c, 0, 57, 0
4, 121920, Note_on_c, 0, 61, 0
4, 121920, Note_on_c, 0, 64, 0
4, 122400, Note_on_c, 0, 57, 82
4, 122400, Note_on_c, 0, 61, 82
4, 122400, Note_on_c, 0, 64, 82
4, 122400, Note_on_c, 0, 67, 82
4, 122640, Note_on_c, 0, 67, 0
4, 122640, Note_on_c, 0, 57, 0
4, 122640, Note_on_c, 0, 61, 0
4, 122640, Note_on_c, 0, 64, 0
4, 123120, Note_on_c, 0, 57, 82
4, 123120, Note_on_c, 0, 61, 82
4, 123120, Note_on_c, 0, 64, 82
4, 123120, Note_on_c, 0, 67, 82
4, 123360, Note_on_c, 0, 67, 0
4, 123360, Note_on_c, 0, 57, 0
4, 123360, Note_on_c, 0, 61, 0
4, 123360, Note_on_c, 0, 64, 0
4, 123840, Note_on_c, 0, 50, 95
4, 123840, Note_on_c, 0, 54, 95
4, 123840, Note_on_c, 0, 57, 95
4, 123840, Note_on_c, 0, 62, 95
4, 124080, Note_on_c, 0, 62, 0
4, 124080, Note_on_c, 0, 50, 0
4, 124080, Note_on_c, 0, 54, 0
4, 124080, Note_on_c, 0, 57, 0
4, 124560, Note_on_c, 0, 55, 95
4, 124560, Note_on_c, 0, 59, 95
4, 124560, Note_on_c, 0, 62, 95
4, 124800, Note_on_c, 0, 62, 0
4, 124800, Note_on_c, 0, 59, 0
4, 124800, Note_on_c, 0, 55, 0
4, 125280, Note_on_c, 0, 50, 95
4, 125280, Note_on_c, 0, 54, 95
4, 125280, Note_on_c, 0, 57, 95
4, 125280, Note_on_c, 0, 62, 95
4, 125520, Note_on_c, 0, 62, 0
4, 125520, Note_on_c, 0, 50, 0
4, 125520, Note_on_c, 0, 54, 0
4, 125520, Note_on_c, 0, 57, 0
4, 126000, Note_on_c, 0, 55, 95
4, 126000, Note_on_c, 0, 59, 95
4, 126000, Note_on_c, 0, 62, 95
4, 126240, Note_on_c, 0, 62, 0
4, 126240, Note_on_c, 0, 59, 0
4, 126240, Note_on_c, 0, 55, 0
4, 126720, Note_on_c, 0, 50, 95
4, 126720, Note_on_c, 0, 54, 95
4, 126720, Note_on_c, 0, 57, 95
4, 126720, Note_on_c, 0, 62, 95
4, 126960, Note_on_c, 0, 62, 0
4, 126960, Note_on_c, 0, 50, 0
4, 126960, Note_on_c, 0, 54, 0
4, 126960, Note_on_c, 0, 57, 0
4, 127440, Note_on_c, 0, 55, 95
4, 127440, Note_on_c, 0, 59, 95
4, 127440, Note_on_c, 0, 62, 95
4, 127680, Note_on_c, 0, 62, 0
4, 127680, Note_on_c, 0, 59, 0
4, 127680, Note_on_c, 0, 55, 0
4, 128160, Note_on_c, 0, 50, 95
4, 128160, Note_on_c, 0, 54, 95
4, 128160, Note_on_c, 0, 57, 95
4, 128160, Note_on_c, 0, 62, 95
4, 128400, Note_on_c, 0, 62, 0
4, 128400, Note_on_c, 0, 50, 0
4, 128400, Note_on_c, 0, 54, 0
4, 128400, Note_on_c, 0, 57, 0
4, 128880, Note_on_c, 0, 55, 95
4, 128880, Note_on_c, 0, 59, 95
4, 128880, Note_on_c, 0, 62, 95
4, 129120, Note_on_c, 0, 62, 0
4, 129120, Note_on_c, 0, 59, 0
4, 129120, Note_on_c, 0, 55, 0
4, 129600, Note_on_c, 0, 48, 95
4, 129840, Note_on_c, 0, 48, 0
4, 129840, Note_on_c, 0, 50, 95
4, 130080, Note_on_c, 0, 50, 0
4, 130080, Note_on_c, 0, 51, 95
4, 130320, Note_on_c, 0, 51, 0
4, 130320, Note_on_c, 0, 47, 95
4, 130560, Note_on_c, 0, 47, 0
4, 130560, Note_on_c, 0, 49, 95
4, 130800, Note_on_c, 0, 49, 0
4, 130800, Note_on_c, 0, 50, 95
4, 131040, Note_on_c, 0, 50, 0
4, 131040, Note_on_c, 0, 46, 95
4, 131280, Note_on_c, 0, 46, 0
4, 131280, Note_on_c, 0, 48, 95
4, 131520, Note_on_c, 0, 48, 0
4, 131520, Note_on_c, 0, 49, 95
4, 131760, Note_on_c, 0, 49, 0
4, 131760, Note_on_c, 0, 45, 95
4, 132000, Note_on_c, 0, 45, 0
4, 132000, Note_on_c, 0, 47, 95
4, 132240, Note_on_c, 0, 47, 0
4, 132240, Note_on_c, 0, 48, 95
4, 132480, Note_on_c, 0, 48, 0
4, 132480, Note_on_c, 0, 44, 95
4, 132720, Note_on_c, 0, 44, 0
4, 132720, Note_on_c, 0, 46, 95
4, 132960, Note_on_c, 0, 46, 0
4, 132960, Note_on_c, 0, 47, 95
4, 133200, Note_on_c, 0, 47, 0
4, 133200, Note_on_c, 0, 43, 95
4, 133440, Note_on_c, 0, 43, 0
4, 133440, Note_on_c, 0, 45, 95
4, 133680, Note_on_c, 0, 45, 0
4, 133680, Note_on_c, 0, 46, 95
4, 133920, Note_on_c, 0, 46, 0
4, 133920, Note_on_c, 0, 42, 95
4, 134160, Note_on_c, 0, 42, 0
4, 134160, Note_on_c, 0, 44, 95
4, 134400, Note_on_c, 0, 44, 0
4, 134400, Note_on_c, 0, 45, 95
4, 134640, Note_on_c, 0, 45, 0
4, 134640, Note_on_c, 0, 45, 95
4, 134640, Note_on_c, 0, 52, 95
4, 134880, Note_on_c, 0, 52, 0
4, 134880, Note_on_c, 0, 45, 0
4, 134880, Note_on_c, 0, 56, 95
4, 135120, Note_on_c, 0, 56, 0
4, 135120, Note_on_c, 0, 57, 95
4, 135360, Note_on_c, 0, 57, 0
4, 135360, Note_on_c, 0, 50, 95
4, 135360, Note_on_c, 0, 54, 95
4, 135360, Note_on_c, 0, 57, 95
4, 135360, Note_on_c, 0, 62, 95
4, 135600, Note_on_c, 0, 62, 0
4, 135600, Note_on_c, 0, 50, 0
4, 135600, Note_on_c, 0, 54, 0
4, 135600, Note_on_c, 0, 57, 0
4, 136080, Note_on_c, 0, 55, 95
4, 136080, Note_on_c, 0, 59, 95
4, 136080, Note_on_c, 0, 62, 95
4, 136320, Note_on_c, 0, 62, 0
4, 136320, Note_on_c, 0, 59, 0
4, 136320, Note_on_c, 0, 55, 0
4, 136800, Note_on_c, 0, 50, 95
4, 136800, Note_on_c, 0, 54, 95
4, 136800, Note_on_c, 0, 57, 95
4, 136800, Note_on_c, 0, 62, 95
4, 137040, Note_on_c, 0, 62, 0
4, 137040, Note_on_c, 0, 50, 0
4, 137040, Note_on_c, 0, 54, 0
4, 137040, Note_on_c, 0, 57, 0
4, 137520, Note_on_c, 0, 55, 95
4, 137520, Note_on_c, 0, 59, 95
4, 137520, Note_on_c, 0, 62, 95
4, 137760, Note_on_c, 0, 62, 0
4, 137760, Note_on_c, 0, 59, 0
4, 137760, Note_on_c, 0, 55, 0
4, 138240, Note_on_c, 0, 50, 95
4, 138240, Note_on_c, 0, 54, 95
4, 138240, Note_on_c, 0, 57, 95
4, 138240, Note_on_c, 0, 62, 95
4, 138480, Note_on_c, 0, 62, 0
4, 138480, Note_on_c, 0, 50, 0
4, 138480, Note_on_c, 0, 54, 0
4, 138480, Note_on_c, 0, 57, 0
4, 138960, Note_on_c, 0, 55, 95
4, 138960, Note_on_c, 0, 59, 95
4, 138960, Note_on_c, 0, 62, 95
4, 139200, Note_on_c, 0, 62, 0
4, 139200, Note_on_c, 0, 59, 0
4, 139200, Note_on_c, 0, 55, 0
4, 139680, Note_on_c, 0, 50, 95
4, 139680, Note_on_c, 0, 54, 95
4, 139680, Note_on_c, 0, 57, 95
4, 139680, Note_on_c, 0, 62, 95
4, 139920, Note_on_c, 0, 62, 0
4, 139920, Note_on_c, 0, 50, 0
4, 139920, Note_on_c, 0, 54, 0
4, 139920, Note_on_c, 0, 57, 0
4, 140400, Note_on_c, 0, 55, 95
4, 140400, Note_on_c, 0, 59, 95
4, 140400, Note_on_c, 0, 62, 95
4, 140640, Note_on_c, 0, 62, 0
4, 140640, Note_on_c, 0, 59, 0
4, 140640, Note_on_c, 0, 55, 0
4, 141120, Note_on_c, 0, 48, 95
4, 141360, Note_on_c, 0, 48, 0
4, 141360, Note_on_c, 0, 50, 95
4, 141600, Note_on_c, 0, 50, 0
4, 141600, Note_on_c, 0, 51, 95
4, 141840, Note_on_c, 0, 51, 0
4, 141840, Note_on_c, 0, 47, 95
4, 142080, Note_on_c, 0, 47, 0
4, 142080, Note_on_c, 0, 49, 95
4, 142320, Note_on_c, 0, 49, 0
4, 142320, Note_on_c, 0, 50, 95
4, 142560, Note_on_c, 0, 50, 0
4, 142560, Note_on_c, 0, 46, 95
4, 142800, Note_on_c, 0, 46, 0
4, 142800, Note_on_c, 0, 48, 95
4, 143040, Note_on_c, 0, 48, 0
4, 143040, Note_on_c, 0, 49, 95
4, 143280, Note_on_c, 0, 49, 0
4, 143280, Note_on_c, 0, 45, 95
4, 143520, Note_on_c, 0, 45, 0
4, 143520, Note_on_c, 0, 47, 95
4, 143760, Note_on_c, 0, 47, 0
4, 143760, Note_on_c, 0, 48, 95
4, 144000, Note_on_c, 0, 48, 0
4, 144000, Note_on_c, 0, 44, 95
4, 144240, Note_on_c, 0, 44, 0
4, 144240, Note_on_c, 0, 46, 95
4, 144480, Note_on_c, 0, 46, 0
4, 144480, Note_on_c, 0, 47, 95
4, 144720, Note_on_c, 0, 47, 0
4, 144720, Note_on_c, 0, 43, 95
4, 144960, Note_on_c, 0, 43, 0
4, 144960, Note_on_c, 0, 45, 95
4, 145200, Note_on_c, 0, 45, 0
4, 145200, Note_on_c, 0, 46, 95
4, 145440, Note_on_c, 0, 46, 0
4, 145440, Note_on_c, 0, 42, 95
4, 145680, Note_on_c, 0, 42, 0
4, 145680, Note_on_c, 0, 44, 95
4, 145920, Note_on_c, 0, 44, 0
4, 145920, Note_on_c, 0, 45, 95
4, 146160, Note_on_c, 0, 45, 0
4, 146160, Note_on_c, 0, 45, 95
4, 146160, Note_on_c, 0, 52, 95
4, 146400, Note_on_c, 0, 52, 0
4, 146400, Note_on_c, 0, 45, 0
4, 146400, Note_on_c, 0, 56, 95
4, 146640, Note_on_c, 0, 56, 0
4, 146640, Note_on_c, 0, 57, 95
4, 146880, Note_on_c, 0, 57, 0
4, 146880, Note_on_c, 0, 50, 95
4, 146880, Note_on_c, 0, 54, 95
4, 146880, Note_on_c, 0, 57, 95
4, 146880, Note_on_c, 0, 62, 95
4, 147120, Note_on_c, 0, 62, 0
4, 147120, Note_on_c, 0, 50, 0
4, 147120, Note_on_c, 0, 54, 0
4, 147120, Note_on_c, 0, 57, 0
4, 147600, Note_on_c, 0, 55, 95
4, 147600, Note_on_c, 0, 59, 95
4, 147600, Note_on_c, 0, 62, 95
4, 147840, Note_on_c, 0, 62, 0
4, 147840, Note_on_c, 0, 59, 0
4, 147840, Note_on_c, 0, 55, 0
4, 148320, Note_on_c, 0, 50, 95
4, 148320, Note_on_c, 0, 54, 95
4, 148320, Note_on_c, 0, 57, 95
4, 148320, Note_on_c, 0, 62, 95
4, 148560, Note_on_c, 0, 62, 0
4, 148560, Note_on_c, 0, 50, 0
4, 148560, Note_on_c, 0, 54, 0
4, 148560, Note_on_c, 0, 57, 0
4, 149040, Note_on_c, 0, 55, 95
4, 149040, Note_on_c, 0, 59, 95
4, 149040, Note_on_c, 0, 62, 95
4, 149280, Note_on_c, 0, 62, 0
4, 149280, Note_on_c, 0, 59, 0
4, 149280, Note_on_c, 0, 55, 0
4, 149760, Note_on_c, 0, 50, 95
4, 149760, Note_on_c, 0, 54, 95
4, 149760, Note_on_c, 0, 57, 95
4, 149760, Note_on_c, 0, 62, 95
4, 150000, Note_on_c, 0, 62, 0
4, 150000, Note_on_c, 0, 50, 0
4, 150000, Note_on_c, 0, 54, 0
4, 150000, Note_on_c, 0, 57, 0
4, 150480, Note_on_c, 0, 55, 95
4, 150480, Note_on_c, 0, 59, 95
4, 150480, Note_on_c, 0, 62, 95
4, 150720, Note_on_c, 0, 62, 0
4, 150720, Note_on_c, 0, 59, 0
4, 150720, Note_on_c, 0, 55, 0
4, 151200, Note_on_c, 0, 50, 95
4, 151200, Note_on_c, 0, 54, 95
4, 151200, Note_on_c, 0, 57, 95
4, 151200, Note_on_c, 0, 62, 95
4, 151440, Note_on_c, 0, 62, 0
4, 151440, Note_on_c, 0, 50, 0
4, 151440, Note_on_c, 0, 54, 0
4, 151440, Note_on_c, 0, 57, 0
4, 151920, Note_on_c, 0, 55, 95
4, 151920, Note_on_c, 0, 59, 95
4, 151920, Note_on_c, 0, 62, 95
4, 152160, Note_on_c, 0, 62, 0
4, 152160, Note_on_c, 0, 59, 0
4, 152160, Note_on_c, 0, 55, 0
4, 152640, Note_on_c, 0, 38, 95
4, 152640, Note_on_c, 0, 45, 95
4, 152640, Note_on_c, 0, 50, 95
4, 152880, Note_on_c, 0, 50, 0
4, 152880, Note_on_c, 0, 45, 0
4, 152880, Note_on_c, 0, 38, 0
4, 153360, Note_on_c, 0, 50, 95
4, 153360, Note_on_c, 0, 54, 95
4, 153360, Note_on_c, 0, 57, 95
4, 153360, Note_on_c, 0, 62, 95
4, 153600, Note_on_c, 0, 62, 0
4, 153600, Note_on_c, 0, 50, 0
4, 153600, Note_on_c, 0, 54, 0
4, 153600, Note_on_c, 0, 57, 0
4, 154080, Note_on_c, 0, 38, 95
4, 154080, Note_on_c, 0, 45, 95
4, 154080, Note_on_c, 0, 50, 95
4, 154320, Note_on_c, 0, 50, 0
4, 154320, Note_on_c, 0, 45, 0
4, 154320, Note_on_c, 0, 38, 0
4, 154800, Note_on_c, 0, 50, 95
4, 154800, Note_on_c, 0, 54, 95
4, 154800, Note_on_c, 0, 57, 95
4, 154800, Note_on_c, 0, 62, 95
4, 155040, Note_on_c, 0, 62, 0
4, 155040, Note_on_c, 0, 50, 0
4, 155040, Note_on_c, 0, 54, 0
4, 155040, Note_on_c, 0, 57, 0
4, 155520, Note_on_c, 0, 38, 95
4, 155520, Note_on_c, 0, 45, 95
4, 155520, Note_on_c, 0, 50, 95
4, 155760, Note_on_c, 0, 50, 0
4, 155760, Note_on_c, 0, 45, 0
4, 155760, Note_on_c, 0, 38, 0
4, 156240, Note_on_c, 0, 45, 95
4, 156240, Note_on_c, 0, 49, 95
4, 156240, Note_on_c, 0, 52, 95
4, 156240, Note_on_c, 0, 57, 95
4, 156480, Note_on_c, 0, 57, 0
4, 156480, Note_on_c, 0, 45, 0
4, 156480, Note_on_c, 0, 49, 0
4, 156480, Note_on_c, 0, 52, 0
4, 156960, Note_on_c, 0, 50, 95
4, 156960, Note_on_c, 0, 54, 95
4, 156960, Note_on_c, 0, 57, 95
4, 156960, Note_on_c, 0, 62, 95
4, 157200, Note_on_c, 0, 62, 0
4, 157200, Note_on_c, 0, 50, 0
4, 157200, Note_on_c, 0, 54, 0
4, 157200, Note_on_c, 0, 57, 0
4, 157680, Note_on_c, 0, 38, 121
4, 157680, Note_on_c, 0, 50, 121
4, 158400, Note_on_c, 0, 50, 0
4, 158400, Note_on_c, 0, 38, 0
4, 158400, End_track
5, 0, Start_track
5, 0, Title_t, "Grand Piano"
5, 0, Program_c, 0, 0
5, 0, Control_c, 0, 7, 115
5, 0, Control_c, 0, 10, 48
5, 156960, Control_c, 0, 64, 127
5, 162240, Control_c, 0, 64, 0
5, 162240, End_track
0, 0, End_of_file
