0, 0, Header, 1, 5, 480
1, 0, Start_track
1, 0, Title_t, "tchaikovsky swan lake act4 27 danses des petits cygnes"
1, 0, Copyright_t, "Adaptation for Disklavier pianos, by: Robert C. Kuhmann (c) 2012."
1, 0, Text_t, "Seq. (c) by: Segundo G. Yogore,  2007\012"
1, 0, Time_signature, 4, 2, 24, 8
1, 0, Key_signature, -5, "major"
1, 0, Tempo, 600000
1, 130560, Tempo, 600000
1, 205440, Time_signature, 8, 2, 24, 8
1, 205440, End_track
2, 0, Start_track
2, 0, Title_t, "Grand Piano"
2, 0, Program_c, 0, 0
2, 0, Control_c, 0, 7, 115
2, 0, Control_c, 0, 10, 86
2, 240, Note_on_c, 0, 73, 67
2, 480, Note_on_c, 0, 73, 0
2, 480, Note_on_c, 0, 72, 67
2, 720, Note_on_c, 0, 72, 0
2, 720, Note_on_c, 0, 73, 67
2, 960, Note_on_c, 0, 73, 0
2, 960, Note_on_c, 0, 70, 67
2, 1440, Note_on_c, 0, 70, 0
2, 1440, Note_on_c, 0, 77, 67
2, 1920, Note_on_c, 0, 77, 0
2, 1920, Note_on_c, 0, 75, 67
2, 2280, Note_on_c, 0, 75, 0
2, 2280, Note_on_c, 0, 77, 67
2, 2340, Note_on_c, 0, 77, 0
2, 2340, Note_on_c, 0, 75, 67
2, 2400, Note_on_c, 0, 75, 0
2, 2400, Note_on_c, 0, 70, 67
2, 2640, Note_on_c, 0, 70, 0
2, 2640, Note_on_c, 0, 72, 67
2, 2880, Note_on_c, 0, 72, 0
2, 2880, Note_on_c, 0, 73, 67
2, 3120, Note_on_c, 0, 73, 0
2, 3120, Note_on_c, 0, 75, 67
2, 3360, Note_on_c, 0, 75, 0
2, 3360, Note_on_c, 0, 70, 67
2, 3840, Note_on_c, 0, 70, 0
2, 4080, Note_on_c, 0, 73, 67
2, 4320, Note_on_c, 0, 73, 0
2, 4320, Note_on_c, 0, 72, 67
2, 4560, Note_on_c, 0, 72, 0
2, 4560, Note_on_c, 0, 73, 67
2, 4800, Note_on_c, 0, 73, 0
2, 4800, Note_on_c, 0, 70, 67
2, 5280, Note_on_c, 0, 70, 0
2, 5280, Note_on_c, 0, 73, 67
2, 5760, Note_on_c, 0, 73, 0
2, 5760, Note_on_c, 0, 75, 67
2, 6120, Note_on_c, 0, 75, 0
2, 6120, Note_on_c, 0, 77, 67
2, 6180, Note_on_c, 0, 77, 0
2, 6180, Note_on_c, 0, 75, 67
2, 6240, Note_on_c, 0, 75, 0
2, 6240, Note_on_c, 0, 70, 67
2, 6480, Note_on_c, 0, 70, 0
2, 6480, Note_on_c, 0, 72, 67
2, 6720, Note_on_c, 0, 72, 0
2, 6720, Note_on_c, 0, 73, 67
2, 7200, Note_on_c, 0, 73, 0
2, 7920, Note_on_c, 0, 73, 67
2, 8160, Note_on_c, 0, 73, 0
2, 8160, Note_on_c, 0, 72, 67
2, 8400, Note_on_c, 0, 72, 0
2, 8400, Note_on_c, 0, 73, 67
2, 8640, Note_on_c, 0, 73, 0
2, 8640, Note_on_c, 0, 70, 67
2, 9120, Note_on_c, 0, 70, 0
2, 9120, Note_on_c, 0, 77, 67
2, 9600, Note_on_c, 0, 77, 0
2, 9600, Note_on_c, 0, 75, 67
2, 9960, Note_on_c, 0, 75, 0
2, 9960, Note_on_c, 0, 77, 67
2, 10020, Note_on_c, 0, 77, 0
2, 10020, Note_on_c, 0, 75, 67
2, 10080, Note_on_c, 0, 75, 0
2, 10080, Note_on_c, 0, 70, 67
2, 10320, Note_on_c, 0, 70, 0
2, 10320, Note_on_c, 0, 72, 67
2, 10560, Note_on_c, 0, 72, 0
2, 10560, Note_on_c, 0, 73, 67
2, 10800, Note_on_c, 0, 73, 0
2, 10800, Note_on_c, 0, 75, 67
2, 11040, Note_on_c, 0, 75, 0
2, 11040, Note_on_c, 0, 70, 67
2, 11520, Note_on_c, 0, 70, 0
2, 11760, Note_on_c, 0, 73, 67
2, 12000, Note_on_c, 0, 73, 0
2, 12000, Note_on_c, 0, 72, 67
2, 12240, Note_on_c, 0, 72, 0
2, 12240, Note_on_c, 0, 73, 67
2, 12480, Note_on_c, 0, 73, 0
2, 12480, Note_on_c, 0, 70, 67
2, 12960, Note_on_c, 0, 70, 0
2, 12960, Note_on_c, 0, 73, 67
2, 13440, Note_on_c, 0, 73, 0
2, 13440, Note_on_c, 0, 75, 67
2, 13800, Note_on_c, 0, 75, 0
2, 13800, Note_on_c, 0, 77, 67
2, 13860, Note_on_c, 0, 77, 0
2, 13860, Note_on_c, 0, 75, 67
2, 13920, Note_on_c, 0, 75, 0
2, 13920, Note_on_c, 0, 70, 67
2, 14160, Note_on_c, 0, 70, 0
2, 14160, Note_on_c, 0, 72, 67
2, 14400, Note_on_c, 0, 72, 0
2, 14400, Note_on_c, 0, 73, 67
2, 14880, Note_on_c, 0, 73, 0
2, 15600, Note_on_c, 0, 68, 80
2, 15840, Note_on_c, 0, 68, 0
2, 15840, Note_on_c, 0, 73, 80
2, 16080, Note_on_c, 0, 73, 0
2, 16080, Note_on_c, 0, 75, 80
2, 16320, Note_on_c, 0, 75, 0
2, 16320, Note_on_c, 0, 77, 80
2, 16800, Note_on_c, 0, 77, 0
2, 16800, Note_on_c, 0, 80, 80
2, 17280, Note_on_c, 0, 80, 0
2, 17280, Note_on_c, 0, 75, 80
2, 17640, Note_on_c, 0, 75, 0
2, 17640, Note_on_c, 0, 77, 80
2, 17700, Note_on_c, 0, 77, 0
2, 17700, Note_on_c, 0, 75, 80
2, 17760, Note_on_c, 0, 75, 0
2, 17760, Note_on_c, 0, 70, 80
2, 18000, Note_on_c, 0, 70, 0
2, 18000, Note_on_c, 0, 72, 80
2, 18240, Note_on_c, 0, 72, 0
2, 18240, Note_on_c, 0, 73, 80
2, 18480, Note_on_c, 0, 73, 0
2, 18480, Note_on_c, 0, 70, 80
2, 18720, Note_on_c, 0, 70, 0
2, 18720, Note_on_c, 0, 68, 80
2, 19200, Note_on_c, 0, 68, 0
2, 19440, Note_on_c, 0, 68, 80
2, 19680, Note_on_c, 0, 68, 0
2, 19680, Note_on_c, 0, 73, 80
2, 19920, Note_on_c, 0, 73, 0
2, 19920, Note_on_c, 0, 75, 80
2, 20160, Note_on_c, 0, 75, 0
2, 20160, Note_on_c, 0, 77, 80
2, 20640, Note_on_c, 0, 77, 0
2, 20640, Note_on_c, 0, 80, 80
2, 21120, Note_on_c, 0, 80, 0
2, 21120, Note_on_c, 0, 75, 80
2, 21480, Note_on_c, 0, 75, 0
2, 21480, Note_on_c, 0, 77, 80
2, 21540, Note_on_c, 0, 77, 0
2, 21540, Note_on_c, 0, 75, 80
2, 21600, Note_on_c, 0, 75, 0
2, 21600, Note_on_c, 0, 70, 80
2, 21840, Note_on_c, 0, 70, 0
2, 21840, Note_on_c, 0, 72, 80
2, 22080, Note_on_c, 0, 72, 0
2, 22080, Note_on_c, 0, 73, 80
2, 22560, Note_on_c, 0, 73, 0
2, 23280, Note_on_c, 0, 68, 80
2, 23520, Note_on_c, 0, 68, 0
2, 23520, Note_on_c, 0, 73, 80
2, 23760, Note_on_c, 0, 73, 0
2, 23760, Note_on_c, 0, 75, 80
2, 24000, Note_on_c, 0, 75, 0
2, 24000, Note_on_c, 0, 77, 80
2, 24480, Note_on_c, 0, 77, 0
2, 24480, Note_on_c, 0, 80, 80
2, 24960, Note_on_c, 0, 80, 0
2, 24960, Note_on_c, 0, 75, 80
2, 25320, Note_on_c, 0, 75, 0
2, 25320, Note_on_c, 0, 77, 80
2, 25380, Note_on_c, 0, 77, 0
2, 25380, Note_on_c, 0, 75, 80
2, 25440, Note_on_c, 0, 75, 0
2, 25440, Note_on_c, 0, 70, 80
2, 25680, Note_on_c, 0, 70, 0
2, 25680, Note_on_c, 0, 72, 80
2, 25920, Note_on_c, 0, 72, 0
2, 25920, Note_on_c, 0, 73, 80
2, 26160, Note_on_c, 0, 73, 0
2, 26160, Note_on_c, 0, 70, 80
2, 26400, Note_on_c, 0, 70, 0
2, 26400, Note_on_c, 0, 68, 80
2, 26880, Note_on_c, 0, 68, 0
2, 27120, Note_on_c, 0, 68, 80
2, 27360, Note_on_c, 0, 68, 0
2, 27360, Note_on_c, 0, 73, 80
2, 27600, Note_on_c, 0, 73, 0
2, 27600, Note_on_c, 0, 75, 80
2, 27840, Note_on_c, 0, 75, 0
2, 27840, Note_on_c, 0, 77, 80
2, 28320, Note_on_c, 0, 77, 0
2, 28320, Note_on_c, 0, 80, 80
2, 28800, Note_on_c, 0, 80, 0
2, 28800, Note_on_c, 0, 75, 80
2, 29160, Note_on_c, 0, 75, 0
2, 29160, Note_on_c, 0, 77, 80
2, 29220, Note_on_c, 0, 77, 0
2, 29220, Note_on_c, 0, 75, 80
2, 29280, Note_on_c, 0, 75, 0
2, 29280, Note_on_c, 0, 70, 80
2, 29520, Note_on_c, 0, 70, 0
2, 29520, Note_on_c, 0, 72, 80
2, 29760, Note_on_c, 0, 72, 0
2, 29760, Note_on_c, 0, 73, 80
2, 30240, Note_on_c, 0, 73, 0
2, 30960, Note_on_c, 0, 73, 67
2, 31200, Note_on_c, 0, 73, 0
2, 31200, Note_on_c, 0, 72, 67
2, 31440, Note_on_c, 0, 72, 0
2, 31440, Note_on_c, 0, 73, 67
2, 31680, Note_on_c, 0, 73, 0
2, 31680, Note_on_c, 0, 70, 67
2, 32080, Note_on_c, 0, 62, 67
2, 32120, Note_on_c, 0, 70, 67
2, 32160, Note_on_c, 0, 70, 0
2, 32160, Note_on_c, 0, 77, 67
2, 32640, Note_on_c, 0, 77, 0
2, 32640, Note_on_c, 0, 70, 0
2, 32640, Note_on_c, 0, 62, 0
2, 32640, Note_on_c, 0, 75, 67
2, 33000, Note_on_c, 0, 75, 0
2, 33000, Note_on_c, 0, 77, 67
2, 33060, Note_on_c, 0, 77, 0
2, 33060, Note_on_c, 0, 75, 67
2, 33120, Note_on_c, 0, 75, 0
2, 33120, Note_on_c, 0, 70, 67
2, 33360, Note_on_c, 0, 70, 0
2, 33360, Note_on_c, 0, 72, 67
2, 33600, Note_on_c, 0, 72, 0
2, 33600, Note_on_c, 0, 73, 67
2, 33840, Note_on_c, 0, 73, 0
2, 33840, Note_on_c, 0, 75, 67
2, 34080, Note_on_c, 0, 75, 0
2, 34080, Note_on_c, 0, 70, 67
2, 34560, Note_on_c, 0, 70, 0
2, 34800, Note_on_c, 0, 73, 67
2, 35040, Note_on_c, 0, 73, 0
2, 35040, Note_on_c, 0, 72, 67
2, 35280, Note_on_c, 0, 72, 0
2, 35280, Note_on_c, 0, 73, 67
2, 35520, Note_on_c, 0, 73, 0
2, 35520, Note_on_c, 0, 70, 67
2, 36000, Note_on_c, 0, 70, 0
2, 36000, Note_on_c, 0, 73, 67
2, 36480, Note_on_c, 0, 73, 0
2, 36480, Note_on_c, 0, 75, 67
2, 36840, Note_on_c, 0, 75, 0
2, 36840, Note_on_c, 0, 77, 67
2, 36900, Note_on_c, 0, 77, 0
2, 36900, Note_on_c, 0, 75, 67
2, 36960, Note_on_c, 0, 75, 0
2, 36960, Note_on_c, 0, 70, 67
2, 37200, Note_on_c, 0, 70, 0
2, 37200, Note_on_c, 0, 72, 67
2, 37440, Note_on_c, 0, 72, 0
2, 37440, Note_on_c, 0, 73, 67
2, 37920, Note_on_c, 0, 73, 0
2, 38640, Note_on_c, 0, 73, 67
2, 38880, Note_on_c, 0, 73, 0
2, 38880, Note_on_c, 0, 72, 67
2, 39120, Note_on_c, 0, 72, 0
2, 39120, Note_on_c, 0, 73, 67
2, 39360, Note_on_c, 0, 73, 0
2, 39360, Note_on_c, 0, 70, 67
2, 39760, Note_on_c, 0, 62, 67
2, 39800, Note_on_c, 0, 70, 67
2, 39840, Note_on_c, 0, 70, 0
2, 39840, Note_on_c, 0, 77, 67
2, 40320, Note_on_c, 0, 77, 0
2, 40320, Note_on_c, 0, 70, 0
2, 40320, Note_on_c, 0, 62, 0
2, 40320, Note_on_c, 0, 75, 67
2, 40680, Note_on_c, 0, 75, 0
2, 40680, Note_on_c, 0, 77, 67
2, 40740, Note_on_c, 0, 77, 0
2, 40740, Note_on_c, 0, 75, 67
2, 40800, Note_on_c, 0, 75, 0
2, 40800, Note_on_c, 0, 70, 67
2, 41040, Note_on_c, 0, 70, 0
2, 41040, Note_on_c, 0, 72, 67
2, 41280, Note_on_c, 0, 72, 0
2, 41280, Note_on_c, 0, 73, 67
2, 41520, Note_on_c, 0, 73, 0
2, 41520, Note_on_c, 0, 75, 67
2, 41760, Note_on_c, 0, 75, 0
2, 41760, Note_on_c, 0, 70, 67
2, 42240, Note_on_c, 0, 70, 0
2, 42480, Note_on_c, 0, 73, 67
2, 42720, Note_on_c, 0, 73, 0
2, 42720, Note_on_c, 0, 72, 67
2, 42960, Note_on_c, 0, 72, 0
2, 42960, Note_on_c, 0, 73, 67
2, 43200, Note_on_c, 0, 73, 0
2, 43200, Note_on_c, 0, 70, 67
2, 43680, Note_on_c, 0, 70, 0
2, 43680, Note_on_c, 0, 73, 67
2, 44160, Note_on_c, 0, 73, 0
2, 44160, Note_on_c, 0, 75, 67
2, 44520, Note_on_c, 0, 75, 0
2, 44520, Note_on_c, 0, 77, 67
2, 44580, Note_on_c, 0, 77, 0
2, 44580, Note_on_c, 0, 75, 67
2, 44640, Note_on_c, 0, 75, 0
2, 44640, Note_on_c, 0, 70, 67
2, 44880, Note_on_c, 0, 70, 0
2, 44880, Note_on_c, 0, 72, 67
2, 45120, Note_on_c, 0, 72, 0
2, 45120, Note_on_c, 0, 73, 67
2, 45600, Note_on_c, 0, 73, 0
2, 46080, Note_on_c, 0, 68, 67
2, 47040, Note_on_c, 0, 68, 0
2, 47040, Note_on_c, 0, 70, 67
2, 47520, Note_on_c, 0, 70, 0
2, 47520, Note_on_c, 0, 77, 67
2, 48000, Note_on_c, 0, 77, 0
2, 48000, Note_on_c, 0, 75, 67
2, 48960, Note_on_c, 0, 75, 0
2, 48960, Note_on_c, 0, 70, 67
2, 49440, Note_on_c, 0, 70, 0
2, 49440, Note_on_c, 0, 77, 67
2, 49920, Note_on_c, 0, 77, 0
2, 49920, Note_on_c, 0, 75, 67
2, 50880, Note_on_c, 0, 75, 0
2, 50880, Note_on_c, 0, 70, 67
2, 51360, Note_on_c, 0, 70, 0
2, 51360, Note_on_c, 0, 77, 67
2, 51840, Note_on_c, 0, 77, 0
2, 51840, Note_on_c, 0, 73, 67
2, 52320, Note_on_c, 0, 73, 0
2, 52320, Note_on_c, 0, 72, 67
2, 52560, Note_on_c, 0, 72, 0
2, 52560, Note_on_c, 0, 70, 67
2, 52800, Note_on_c, 0, 70, 0
2, 52800, Note_on_c, 0, 69, 67
2, 53280, Note_on_c, 0, 69, 0
2, 53280, Note_on_c, 0, 64, 67
2, 53520, Note_on_c, 0, 64, 0
2, 53520, Note_on_c, 0, 69, 67
2, 53760, Note_on_c, 0, 69, 0
2, 53760, Note_on_c, 0, 68, 67
2, 54720, Note_on_c, 0, 68, 0
2, 54720, Note_on_c, 0, 70, 67
2, 55200, Note_on_c, 0, 70, 0
2, 55200, Note_on_c, 0, 77, 67
2, 55680, Note_on_c, 0, 77, 0
2, 55680, Note_on_c, 0, 75, 67
2, 56640, Note_on_c, 0, 75, 0
2, 56640, Note_on_c, 0, 70, 67
2, 57120, Note_on_c, 0, 70, 0
2, 57120, Note_on_c, 0, 77, 67
2, 57600, Note_on_c, 0, 77, 0
2, 57600, Note_on_c, 0, 75, 67
2, 58560, Note_on_c, 0, 75, 0
2, 58560, Note_on_c, 0, 70, 67
2, 59040, Note_on_c, 0, 70, 0
2, 59040, Note_on_c, 0, 77, 67
2, 59520, Note_on_c, 0, 77, 0
2, 59520, Note_on_c, 0, 73, 67
2, 60000, Note_on_c, 0, 73, 0
2, 60000, Note_on_c, 0, 71, 67
2, 60240, Note_on_c, 0, 71, 0
2, 60240, Note_on_c, 0, 69, 67
2, 60480, Note_on_c, 0, 69, 0
2, 60480, Note_on_c, 0, 73, 67
2, 61440, Note_on_c, 0, 73, 0
2, 61440, Note_on_c, 0, 68, 67
2, 61440, Note_on_c, 0, 80, 67
2, 62400, Note_on_c, 0, 80, 0
2, 62400, Note_on_c, 0, 68, 0
2, 62400, Note_on_c, 0, 70, 67
2, 62400, Note_on_c, 0, 82, 67
2, 62880, Note_on_c, 0, 82, 0
2, 62880, Note_on_c, 0, 70, 0
2, 62880, Note_on_c, 0, 77, 67
2, 62880, Note_on_c, 0, 89, 67
2, 63360, Note_on_c, 0, 89, 0
2, 63360, Note_on_c, 0, 77, 0
2, 63360, Note_on_c, 0, 75, 67
2, 63360, Note_on_c, 0, 87, 67
2, 64320, Note_on_c, 0, 87, 0
2, 64320, Note_on_c, 0, 75, 0
2, 64320, Note_on_c, 0, 70, 67
2, 64320, Note_on_c, 0, 82, 67
2, 64800, Note_on_c, 0, 82, 0
2, 64800, Note_on_c, 0, 70, 0
2, 64800, Note_on_c, 0, 77, 67
2, 64800, Note_on_c, 0, 89, 67
2, 65280, Note_on_c, 0, 89, 0
2, 65280, Note_on_c, 0, 77, 0
2, 65280, Note_on_c, 0, 75, 67
2, 65280, Note_on_c, 0, 87, 67
2, 66240, Note_on_c, 0, 87, 0
2, 66240, Note_on_c, 0, 75, 0
2, 66240, Note_on_c, 0, 70, 67
2, 66240, Note_on_c, 0, 82, 67
2, 66720, Note_on_c, 0, 82, 0
2, 66720, Note_on_c, 0, 70, 0
2, 66720, Note_on_c, 0, 77, 67
2, 66720, Note_on_c, 0, 89, 67
2, 67200, Note_on_c, 0, 89, 0
2, 67200, Note_on_c, 0, 77, 0
2, 67200, Note_on_c, 0, 73, 67
2, 67200, Note_on_c, 0, 85, 67
2, 67680, Note_on_c, 0, 85, 0
2, 67680, Note_on_c, 0, 73, 0
2, 67680, Note_on_c, 0, 72, 67
2, 67680, Note_on_c, 0, 84, 67
2, 67920, Note_on_c, 0, 84, 0
2, 67920, Note_on_c, 0, 72, 0
2, 67920, Note_on_c, 0, 70, 67
2, 67920, Note_on_c, 0, 82, 67
2, 68160, Note_on_c, 0, 82, 0
2, 68160, Note_on_c, 0, 70, 0
2, 68160, Note_on_c, 0, 69, 67
2, 68160, Note_on_c, 0, 81, 67
2, 68640, Note_on_c, 0, 81, 0
2, 68640, Note_on_c, 0, 69, 0
2, 68640, Note_on_c, 0, 64, 67
2, 68640, Note_on_c, 0, 76, 67
2, 68880, Note_on_c, 0, 76, 0
2, 68880, Note_on_c, 0, 64, 0
2, 68880, Note_on_c, 0, 69, 67
2, 68880, Note_on_c, 0, 81, 67
2, 69120, Note_on_c, 0, 81, 0
2, 69120, Note_on_c, 0, 69, 0
2, 69120, Note_on_c, 0, 68, 67
2, 69120, Note_on_c, 0, 80, 67
2, 70080, Note_on_c, 0, 80, 0
2, 70080, Note_on_c, 0, 68, 0
2, 70080, Note_on_c, 0, 70, 67
2, 70080, Note_on_c, 0, 82, 67
2, 70560, Note_on_c, 0, 82, 0
2, 70560, Note_on_c, 0, 70, 0
2, 70560, Note_on_c, 0, 77, 67
2, 70560, Note_on_c, 0, 89, 67
2, 71040, Note_on_c, 0, 89, 0
2, 71040, Note_on_c, 0, 77, 0
2, 71040, Note_on_c, 0, 75, 67
2, 71040, Note_on_c, 0, 87, 67
2, 72000, Note_on_c, 0, 87, 0
2, 72000, Note_on_c, 0, 75, 0
2, 72000, Note_on_c, 0, 70, 67
2, 72000, Note_on_c, 0, 82, 67
2, 72480, Note_on_c, 0, 82, 0
2, 72480, Note_on_c, 0, 70, 0
2, 72480, Note_on_c, 0, 77, 67
2, 72480, Note_on_c, 0, 89, 67
2, 72960, Note_on_c, 0, 89, 0
2, 72960, Note_on_c, 0, 77, 0
2, 72960, Note_on_c, 0, 75, 67
2, 72960, Note_on_c, 0, 87, 67
2, 73920, Note_on_c, 0, 87, 0
2, 73920, Note_on_c, 0, 75, 0
2, 73920, Note_on_c, 0, 70, 67
2, 73920, Note_on_c, 0, 82, 67
2, 74400, Note_on_c, 0, 82, 0
2, 74400, Note_on_c, 0, 70, 0
2, 74400, Note_on_c, 0, 77, 67
2, 74400, Note_on_c, 0, 89, 67
2, 74880, Note_on_c, 0, 89, 0
2, 74880, Note_on_c, 0, 77, 0
2, 74880, Note_on_c, 0, 73, 67
2, 74880, Note_on_c, 0, 85, 67
2, 75360, Note_on_c, 0, 85, 0
2, 75360, Note_on_c, 0, 73, 0
2, 75360, Note_on_c, 0, 71, 67
2, 75360, Note_on_c, 0, 83, 67
2, 75600, Note_on_c, 0, 83, 0
2, 75600, Note_on_c, 0, 71, 0
2, 75600, Note_on_c, 0, 69, 67
2, 75600, Note_on_c, 0, 81, 67
2, 75840, Note_on_c, 0, 81, 0
2, 75840, Note_on_c, 0, 69, 0
2, 75840, Note_on_c, 0, 73, 67
2, 75840, Note_on_c, 0, 85, 67
2, 76800, Note_on_c, 0, 85, 0
2, 76800, Note_on_c, 0, 73, 0
2, 76800, Note_on_c, 0, 73, 67
2, 76800, Note_on_c, 0, 76, 67
2, 76800, Note_on_c, 0, 85, 67
2, 76847, Note_on_c, 0, 85, 0
2, 76847, Note_on_c, 0, 76, 0
2, 76847, Note_on_c, 0, 73, 0
2, 77040, Note_on_c, 0, 73, 67
2, 77040, Note_on_c, 0, 76, 67
2, 77040, Note_on_c, 0, 83, 67
2, 77087, Note_on_c, 0, 83, 0
2, 77087, Note_on_c, 0, 76, 0
2, 77087, Note_on_c, 0, 73, 0
2, 77280, Note_on_c, 0, 73, 67
2, 77280, Note_on_c, 0, 76, 67
2, 77280, Note_on_c, 0, 81, 67
2, 77327, Note_on_c, 0, 81, 0
2, 77327, Note_on_c, 0, 76, 0
2, 77327, Note_on_c, 0, 73, 0
2, 77520, Note_on_c, 0, 73, 67
2, 77520, Note_on_c, 0, 76, 67
2, 77520, Note_on_c, 0, 80, 67
2, 77543, Note_on_c, 0, 80, 0
2, 77543, Note_on_c, 0, 76, 0
2, 77543, Note_on_c, 0, 73, 0
2, 77640, Note_on_c, 0, 73, 67
2, 77640, Note_on_c, 0, 76, 67
2, 77640, Note_on_c, 0, 81, 67
2, 77663, Note_on_c, 0, 81, 0
2, 77663, Note_on_c, 0, 76, 0
2, 77663, Note_on_c, 0, 73, 0
2, 77760, Note_on_c, 0, 71, 67
2, 77760, Note_on_c, 0, 74, 67
2, 77760, Note_on_c, 0, 80, 67
2, 77807, Note_on_c, 0, 80, 0
2, 77807, Note_on_c, 0, 74, 0
2, 77807, Note_on_c, 0, 71, 0
2, 78000, Note_on_c, 0, 71, 67
2, 78000, Note_on_c, 0, 74, 67
2, 78000, Note_on_c, 0, 78, 67
2, 78047, Note_on_c, 0, 78, 0
2, 78047, Note_on_c, 0, 74, 0
2, 78047, Note_on_c, 0, 71, 0
2, 78240, Note_on_c, 0, 71, 67
2, 78240, Note_on_c, 0, 74, 67
2, 78240, Note_on_c, 0, 76, 67
2, 78287, Note_on_c, 0, 76, 0
2, 78287, Note_on_c, 0, 74, 0
2, 78287, Note_on_c, 0, 71, 0
2, 78480, Note_on_c, 0, 71, 67
2, 78480, Note_on_c, 0, 74, 67
2, 78480, Note_on_c, 0, 75, 67
2, 78503, Note_on_c, 0, 75, 0
2, 78503, Note_on_c, 0, 74, 0
2, 78503, Note_on_c, 0, 71, 0
2, 78600, Note_on_c, 0, 71, 67
2, 78600, Note_on_c, 0, 74, 67
2, 78600, Note_on_c, 0, 76, 67
2, 78623, Note_on_c, 0, 76, 0
2, 78623, Note_on_c, 0, 74, 0
2, 78623, Note_on_c, 0, 71, 0
2, 78720, Note_on_c, 0, 71, 67
2, 78720, Note_on_c, 0, 74, 67
2, 78720, Note_on_c, 0, 78, 67
2, 78767, Note_on_c, 0, 78, 0
2, 78767, Note_on_c, 0, 74, 0
2, 78767, Note_on_c, 0, 71, 0
2, 78960, Note_on_c, 0, 71, 67
2, 78960, Note_on_c, 0, 74, 67
2, 78960, Note_on_c, 0, 80, 67
2, 79007, Note_on_c, 0, 80, 0
2, 79007, Note_on_c, 0, 74, 0
2, 79007, Note_on_c, 0, 71, 0
2, 79200, Note_on_c, 0, 71, 67
2, 79200, Note_on_c, 0, 74, 67
2, 79200, Note_on_c, 0, 76, 67
2, 79247, Note_on_c, 0, 76, 0
2, 79247, Note_on_c, 0, 74, 0
2, 79247, Note_on_c, 0, 71, 0
2, 79440, Note_on_c, 0, 71, 67
2, 79440, Note_on_c, 0, 74, 67
2, 79440, Note_on_c, 0, 75, 67
2, 79463, Note_on_c, 0, 75, 0
2, 79463, Note_on_c, 0, 74, 0
2, 79463, Note_on_c, 0, 71, 0
2, 79560, Note_on_c, 0, 71, 67
2, 79560, Note_on_c, 0, 74, 67
2, 79560, Note_on_c, 0, 76, 67
2, 79583, Note_on_c, 0, 76, 0
2, 79583, Note_on_c, 0, 74, 0
2, 79583, Note_on_c, 0, 71, 0
2, 79680, Note_on_c, 0, 69, 67
2, 79680, Note_on_c, 0, 73, 67
2, 79680, Note_on_c, 0, 78, 67
2, 79727, Note_on_c, 0, 78, 0
2, 79727, Note_on_c, 0, 73, 0
2, 79727, Note_on_c, 0, 69, 0
2, 79920, Note_on_c, 0, 69, 67
2, 79920, Note_on_c, 0, 73, 67
2, 79920, Note_on_c, 0, 80, 67
2, 79967, Note_on_c, 0, 80, 0
2, 79967, Note_on_c, 0, 73, 0
2, 79967, Note_on_c, 0, 69, 0
2, 80160, Note_on_c, 0, 69, 67
2, 80160, Note_on_c, 0, 73, 67
2, 80160, Note_on_c, 0, 76, 67
2, 80207, Note_on_c, 0, 76, 0
2, 80207, Note_on_c, 0, 73, 0
2, 80207, Note_on_c, 0, 69, 0
2, 80640, Note_on_c, 0, 73, 67
2, 80640, Note_on_c, 0, 76, 67
2, 80640, Note_on_c, 0, 85, 67
2, 80687, Note_on_c, 0, 85, 0
2, 80687, Note_on_c, 0, 76, 0
2, 80687, Note_on_c, 0, 73, 0
2, 80880, Note_on_c, 0, 73, 67
2, 80880, Note_on_c, 0, 76, 67
2, 80880, Note_on_c, 0, 83, 67
2, 80927, Note_on_c, 0, 83, 0
2, 80927, Note_on_c, 0, 76, 0
2, 80927, Note_on_c, 0, 73, 0
2, 81120, Note_on_c, 0, 73, 67
2, 81120, Note_on_c, 0, 76, 67
2, 81120, Note_on_c, 0, 81, 67
2, 81167, Note_on_c, 0, 81, 0
2, 81167, Note_on_c, 0, 76, 0
2, 81167, Note_on_c, 0, 73, 0
2, 81360, Note_on_c, 0, 73, 67
2, 81360, Note_on_c, 0, 76, 67
2, 81360, Note_on_c, 0, 80, 67
2, 81383, Note_on_c, 0, 80, 0
2, 81383, Note_on_c, 0, 76, 0
2, 81383, Note_on_c, 0, 73, 0
2, 81480, Note_on_c, 0, 73, 67
2, 81480, Note_on_c, 0, 76, 67
2, 81480, Note_on_c, 0, 81, 67
2, 81503, Note_on_c, 0, 81, 0
2, 81503, Note_on_c, 0, 76, 0
2, 81503, Note_on_c, 0, 73, 0
2, 81600, Note_on_c, 0, 71, 67
2, 81600, Note_on_c, 0, 74, 67
2, 81600, Note_on_c, 0, 80, 67
2, 81647, Note_on_c, 0, 80, 0
2, 81647, Note_on_c, 0, 74, 0
2, 81647, Note_on_c, 0, 71, 0
2, 81840, Note_on_c, 0, 71, 67
2, 81840, Note_on_c, 0, 74, 67
2, 81840, Note_on_c, 0, 78, 67
2, 81887, Note_on_c, 0, 78, 0
2, 81887, Note_on_c, 0, 74, 0
2, 81887, Note_on_c, 0, 71, 0
2, 82080, Note_on_c, 0, 71, 67
2, 82080, Note_on_c, 0, 74, 67
2, 82080, Note_on_c, 0, 76, 67
2, 82127, Note_on_c, 0, 76, 0
2, 82127, Note_on_c, 0, 74, 0
2, 82127, Note_on_c, 0, 71, 0
2, 82320, Note_on_c, 0, 71, 67
2, 82320, Note_on_c, 0, 74, 67
2, 82320, Note_on_c, 0, 75, 67
2, 82343, Note_on_c, 0, 75, 0
2, 82343, Note_on_c, 0, 74, 0
2, 82343, Note_on_c, 0, 71, 0
2, 82440, Note_on_c, 0, 71, 67
2, 82440, Note_on_c, 0, 74, 67
2, 82440, Note_on_c, 0, 76, 67
2, 82463, Note_on_c, 0, 76, 0
2, 82463, Note_on_c, 0, 74, 0
2, 82463, Note_on_c, 0, 71, 0
2, 82560, Note_on_c, 0, 71, 67
2, 82560, Note_on_c, 0, 74, 67
2, 82560, Note_on_c, 0, 78, 67
2, 82607, Note_on_c, 0, 78, 0
2, 82607, Note_on_c, 0, 74, 0
2, 82607, Note_on_c, 0, 71, 0
2, 82800, Note_on_c, 0, 71, 67
2, 82800, Note_on_c, 0, 74, 67
2, 82800, Note_on_c, 0, 80, 67
2, 82847, Note_on_c, 0, 80, 0
2, 82847, Note_on_c, 0, 74, 0
2, 82847, Note_on_c, 0, 71, 0
2, 83040, Note_on_c, 0, 71, 67
2, 83040, Note_on_c, 0, 74, 67
2, 83040, Note_on_c, 0, 76, 67
2, 83087, Note_on_c, 0, 76, 0
2, 83087, Note_on_c, 0, 74, 0
2, 83087, Note_on_c, 0, 71, 0
2, 83280, Note_on_c, 0, 71, 67
2, 83280, Note_on_c, 0, 74, 67
2, 83280, Note_on_c, 0, 75, 67
2, 83303, Note_on_c, 0, 75, 0
2, 83303, Note_on_c, 0, 74, 0
2, 83303, Note_on_c, 0, 71, 0
2, 83400, Note_on_c, 0, 71, 67
2, 83400, Note_on_c, 0, 74, 67
2, 83400, Note_on_c, 0, 76, 67
2, 83423, Note_on_c, 0, 76, 0
2, 83423, Note_on_c, 0, 74, 0
2, 83423, Note_on_c, 0, 71, 0
2, 83520, Note_on_c, 0, 69, 67
2, 83520, Note_on_c, 0, 73, 67
2, 83520, Note_on_c, 0, 78, 67
2, 83567, Note_on_c, 0, 78, 0
2, 83567, Note_on_c, 0, 73, 0
2, 83567, Note_on_c, 0, 69, 0
2, 83760, Note_on_c, 0, 69, 67
2, 83760, Note_on_c, 0, 73, 67
2, 83760, Note_on_c, 0, 80, 67
2, 83807, Note_on_c, 0, 80, 0
2, 83807, Note_on_c, 0, 73, 0
2, 83807, Note_on_c, 0, 69, 0
2, 84000, Note_on_c, 0, 69, 67
2, 84000, Note_on_c, 0, 73, 67
2, 84000, Note_on_c, 0, 81, 67
2, 84023, Note_on_c, 0, 81, 0
2, 84023, Note_on_c, 0, 73, 0
2, 84023, Note_on_c, 0, 69, 0
2, 84120, Note_on_c, 0, 76, 67
2, 84143, Note_on_c, 0, 76, 0
2, 84240, Note_on_c, 0, 81, 67
2, 84263, Note_on_c, 0, 81, 0
2, 84360, Note_on_c, 0, 83, 67
2, 84383, Note_on_c, 0, 83, 0
2, 84480, Note_on_c, 0, 73, 67
2, 84480, Note_on_c, 0, 76, 67
2, 84480, Note_on_c, 0, 85, 67
2, 84527, Note_on_c, 0, 85, 0
2, 84527, Note_on_c, 0, 76, 0
2, 84527, Note_on_c, 0, 73, 0
2, 84720, Note_on_c, 0, 73, 67
2, 84720, Note_on_c, 0, 76, 67
2, 84720, Note_on_c, 0, 83, 67
2, 84767, Note_on_c, 0, 83, 0
2, 84767, Note_on_c, 0, 76, 0
2, 84767, Note_on_c, 0, 73, 0
2, 84960, Note_on_c, 0, 73, 67
2, 84960, Note_on_c, 0, 76, 67
2, 84960, Note_on_c, 0, 81, 67
2, 85007, Note_on_c, 0, 81, 0
2, 85007, Note_on_c, 0, 76, 0
2, 85007, Note_on_c, 0, 73, 0
2, 85200, Note_on_c, 0, 73, 67
2, 85200, Note_on_c, 0, 76, 67
2, 85200, Note_on_c, 0, 80, 67
2, 85223, Note_on_c, 0, 80, 0
2, 85223, Note_on_c, 0, 76, 0
2, 85223, Note_on_c, 0, 73, 0
2, 85320, Note_on_c, 0, 73, 67
2, 85320, Note_on_c, 0, 76, 67
2, 85320, Note_on_c, 0, 81, 67
2, 85343, Note_on_c, 0, 81, 0
2, 85343, Note_on_c, 0, 76, 0
2, 85343, Note_on_c, 0, 73, 0
2, 85440, Note_on_c, 0, 71, 67
2, 85440, Note_on_c, 0, 74, 67
2, 85440, Note_on_c, 0, 80, 67
2, 85487, Note_on_c, 0, 80, 0
2, 85487, Note_on_c, 0, 74, 0
2, 85487, Note_on_c, 0, 71, 0
2, 85680, Note_on_c, 0, 71, 67
2, 85680, Note_on_c, 0, 74, 67
2, 85680, Note_on_c, 0, 78, 67
2, 85727, Note_on_c, 0, 78, 0
2, 85727, Note_on_c, 0, 74, 0
2, 85727, Note_on_c, 0, 71, 0
2, 85920, Note_on_c, 0, 71, 67
2, 85920, Note_on_c, 0, 74, 67
2, 85920, Note_on_c, 0, 76, 67
2, 85967, Note_on_c, 0, 76, 0
2, 85967, Note_on_c, 0, 74, 0
2, 85967, Note_on_c, 0, 71, 0
2, 86160, Note_on_c, 0, 71, 67
2, 86160, Note_on_c, 0, 74, 67
2, 86160, Note_on_c, 0, 75, 67
2, 86183, Note_on_c, 0, 75, 0
2, 86183, Note_on_c, 0, 74, 0
2, 86183, Note_on_c, 0, 71, 0
2, 86280, Note_on_c, 0, 71, 67
2, 86280, Note_on_c, 0, 74, 67
2, 86280, Note_on_c, 0, 76, 67
2, 86303, Note_on_c, 0, 76, 0
2, 86303, Note_on_c, 0, 74, 0
2, 86303, Note_on_c, 0, 71, 0
2, 86400, Note_on_c, 0, 71, 67
2, 86400, Note_on_c, 0, 74, 67
2, 86400, Note_on_c, 0, 78, 67
2, 86447, Note_on_c, 0, 78, 0
2, 86447, Note_on_c, 0, 74, 0
2, 86447, Note_on_c, 0, 71, 0
2, 86640, Note_on_c, 0, 71, 67
2, 86640, Note_on_c, 0, 74, 67
2, 86640, Note_on_c, 0, 80, 67
2, 86687, Note_on_c, 0, 80, 0
2, 86687, Note_on_c, 0, 74, 0
2, 86687, Note_on_c, 0, 71, 0
2, 86880, Note_on_c, 0, 71, 67
2, 86880, Note_on_c, 0, 74, 67
2, 86880, Note_on_c, 0, 76, 67
2, 86927, Note_on_c, 0, 76, 0
2, 86927, Note_on_c, 0, 74, 0
2, 86927, Note_on_c, 0, 71, 0
2, 87120, Note_on_c, 0, 71, 67
2, 87120, Note_on_c, 0, 74, 67
2, 87120, Note_on_c, 0, 75, 67
2, 87143, Note_on_c, 0, 75, 0
2, 87143, Note_on_c, 0, 74, 0
2, 87143, Note_on_c, 0, 71, 0
2, 87240, Note_on_c, 0, 71, 67
2, 87240, Note_on_c, 0, 74, 67
2, 87240, Note_on_c, 0, 76, 67
2, 87263, Note_on_c, 0, 76, 0
2, 87263, Note_on_c, 0, 74, 0
2, 87263, Note_on_c, 0, 71, 0
2, 87360, Note_on_c, 0, 69, 67
2, 87360, Note_on_c, 0, 73, 67
2, 87360, Note_on_c, 0, 78, 67
2, 87407, Note_on_c, 0, 78, 0
2, 87407, Note_on_c, 0, 73, 0
2, 87407, Note_on_c, 0, 69, 0
2, 87600, Note_on_c, 0, 69, 67
2, 87600, Note_on_c, 0, 73, 67
2, 87600, Note_on_c, 0, 80, 67
2, 87647, Note_on_c, 0, 80, 0
2, 87647, Note_on_c, 0, 73, 0
2, 87647, Note_on_c, 0, 69, 0
2, 87840, Note_on_c, 0, 69, 67
2, 87840, Note_on_c, 0, 73, 67
2, 87840, Note_on_c, 0, 76, 67
2, 87887, Note_on_c, 0, 76, 0
2, 87887, Note_on_c, 0, 73, 0
2, 87887, Note_on_c, 0, 69, 0
2, 88320, Note_on_c, 0, 73, 67
2, 88320, Note_on_c, 0, 76, 67
2, 88320, Note_on_c, 0, 85, 67
2, 88367, Note_on_c, 0, 85, 0
2, 88367, Note_on_c, 0, 76, 0
2, 88367, Note_on_c, 0, 73, 0
2, 88560, Note_on_c, 0, 73, 67
2, 88560, Note_on_c, 0, 76, 67
2, 88560, Note_on_c, 0, 83, 67
2, 88607, Note_on_c, 0, 83, 0
2, 88607, Note_on_c, 0, 76, 0
2, 88607, Note_on_c, 0, 73, 0
2, 88800, Note_on_c, 0, 73, 67
2, 88800, Note_on_c, 0, 76, 67
2, 88800, Note_on_c, 0, 81, 67
2, 88847, Note_on_c, 0, 81, 0
2, 88847, Note_on_c, 0, 76, 0
2, 88847, Note_on_c, 0, 73, 0
2, 89040, Note_on_c, 0, 73, 67
2, 89040, Note_on_c, 0, 76, 67
2, 89040, Note_on_c, 0, 80, 67
2, 89063, Note_on_c, 0, 80, 0
2, 89063, Note_on_c, 0, 76, 0
2, 89063, Note_on_c, 0, 73, 0
2, 89160, Note_on_c, 0, 73, 67
2, 89160, Note_on_c, 0, 76, 67
2, 89160, Note_on_c, 0, 81, 67
2, 89183, Note_on_c, 0, 81, 0
2, 89183, Note_on_c, 0, 76, 0
2, 89183, Note_on_c, 0, 73, 0
2, 89280, Note_on_c, 0, 71, 67
2, 89280, Note_on_c, 0, 74, 67
2, 89280, Note_on_c, 0, 80, 67
2, 89327, Note_on_c, 0, 80, 0
2, 89327, Note_on_c, 0, 74, 0
2, 89327, Note_on_c, 0, 71, 0
2, 89520, Note_on_c, 0, 71, 67
2, 89520, Note_on_c, 0, 74, 67
2, 89520, Note_on_c, 0, 78, 67
2, 89567, Note_on_c, 0, 78, 0
2, 89567, Note_on_c, 0, 74, 0
2, 89567, Note_on_c, 0, 71, 0
2, 89760, Note_on_c, 0, 71, 67
2, 89760, Note_on_c, 0, 74, 67
2, 89760, Note_on_c, 0, 76, 67
2, 89807, Note_on_c, 0, 76, 0
2, 89807, Note_on_c, 0, 74, 0
2, 89807, Note_on_c, 0, 71, 0
2, 90000, Note_on_c, 0, 71, 67
2, 90000, Note_on_c, 0, 74, 67
2, 90000, Note_on_c, 0, 75, 67
2, 90023, Note_on_c, 0, 75, 0
2, 90023, Note_on_c, 0, 74, 0
2, 90023, Note_on_c, 0, 71, 0
2, 90120, Note_on_c, 0, 71, 67
2, 90120, Note_on_c, 0, 74, 67
2, 90120, Note_on_c, 0, 76, 67
2, 90143, Note_on_c, 0, 76, 0
2, 90143, Note_on_c, 0, 74, 0
2, 90143, Note_on_c, 0, 71, 0
2, 90240, Note_on_c, 0, 71, 67
2, 90240, Note_on_c, 0, 74, 67
2, 90240, Note_on_c, 0, 78, 67
2, 90287, Note_on_c, 0, 78, 0
2, 90287, Note_on_c, 0, 74, 0
2, 90287, Note_on_c, 0, 71, 0
2, 90480, Note_on_c, 0, 71, 67
2, 90480, Note_on_c, 0, 74, 67
2, 90480, Note_on_c, 0, 80, 67
2, 90527, Note_on_c, 0, 80, 0
2, 90527, Note_on_c, 0, 74, 0
2, 90527, Note_on_c, 0, 71, 0
2, 90720, Note_on_c, 0, 71, 67
2, 90720, Note_on_c, 0, 74, 67
2, 90720, Note_on_c, 0, 76, 67
2, 90767, Note_on_c, 0, 76, 0
2, 90767, Note_on_c, 0, 74, 0
2, 90767, Note_on_c, 0, 71, 0
2, 90960, Note_on_c, 0, 71, 67
2, 90960, Note_on_c, 0, 74, 67
2, 90960, Note_on_c, 0, 75, 67
2, 90983, Note_on_c, 0, 75, 0
2, 90983, Note_on_c, 0, 74, 0
2, 90983, Note_on_c, 0, 71, 0
2, 91080, Note_on_c, 0, 71, 67
2, 91080, Note_on_c, 0, 74, 67
2, 91080, Note_on_c, 0, 76, 67
2, 91103, Note_on_c, 0, 76, 0
2, 91103, Note_on_c, 0, 74, 0
2, 91103, Note_on_c, 0, 71, 0
2, 91200, Note_on_c, 0, 71, 67
2, 91200, Note_on_c, 0, 74, 67
2, 91200, Note_on_c, 0, 77, 67
2, 91223, Note_on_c, 0, 77, 0
2, 91223, Note_on_c, 0, 74, 0
2, 91223, Note_on_c, 0, 71, 0
2, 91320, Note_on_c, 0, 71, 67
2, 91320, Note_on_c, 0, 74, 67
2, 91320, Note_on_c, 0, 78, 67
2, 91343, Note_on_c, 0, 78, 0
2, 91343, Note_on_c, 0, 74, 0
2, 91343, Note_on_c, 0, 71, 0
2, 91440, Note_on_c, 0, 71, 67
2, 91440, Note_on_c, 0, 74, 67
2, 91440, Note_on_c, 0, 79, 67
2, 91560, Note_on_c, 0, 79, 0
2, 91560, Note_on_c, 0, 74, 0
2, 91560, Note_on_c, 0, 71, 0
2, 91560, Note_on_c, 0, 71, 67
2, 91560, Note_on_c, 0, 74, 67
2, 91560, Note_on_c, 0, 80, 67
2, 91680, Note_on_c, 0, 80, 0
2, 91680, Note_on_c, 0, 74, 0
2, 91680, Note_on_c, 0, 71, 0
2, 91680, Note_on_c, 0, 69, 67
2, 91680, Note_on_c, 0, 73, 67
2, 91680, Note_on_c, 0, 81, 67
2, 91727, Note_on_c, 0, 81, 0
2, 91727, Note_on_c, 0, 73, 0
2, 91727, Note_on_c, 0, 69, 0
2, 91920, Note_on_c, 0, 69, 93
2, 92040, Note_on_c, 0, 69, 0
2, 92040, Note_on_c, 0, 71, 93
2, 92160, Note_on_c, 0, 71, 0
2, 92160, Note_on_c, 0, 73, 93
2, 92400, Note_on_c, 0, 73, 0
2, 92400, Note_on_c, 0, 73, 93
2, 92640, Note_on_c, 0, 73, 0
2, 92640, Note_on_c, 0, 73, 93
2, 92880, Note_on_c, 0, 73, 0
2, 92880, Note_on_c, 0, 73, 93
2, 92880, Note_on_c, 0, 78, 93
2, 92880, Note_on_c, 0, 81, 93
2, 93000, Note_on_c, 0, 81, 0
2, 93000, Note_on_c, 0, 78, 0
2, 93000, Note_on_c, 0, 73, 0
2, 93000, Note_on_c, 0, 83, 93
2, 93120, Note_on_c, 0, 83, 0
2, 93120, Note_on_c, 0, 73, 93
2, 93120, Note_on_c, 0, 77, 93
2, 93120, Note_on_c, 0, 80, 93
2, 93120, Note_on_c, 0, 85, 93
2, 93360, Note_on_c, 0, 85, 0
2, 93360, Note_on_c, 0, 73, 0
2, 93360, Note_on_c, 0, 77, 0
2, 93360, Note_on_c, 0, 80, 0
2, 93360, Note_on_c, 0, 73, 93
2, 93360, Note_on_c, 0, 77, 93
2, 93360, Note_on_c, 0, 80, 93
2, 93360, Note_on_c, 0, 85, 93
2, 93600, Note_on_c, 0, 85, 0
2, 93600, Note_on_c, 0, 73, 0
2, 93600, Note_on_c, 0, 77, 0
2, 93600, Note_on_c, 0, 80, 0
2, 93600, Note_on_c, 0, 73, 93
2, 93600, Note_on_c, 0, 77, 93
2, 93600, Note_on_c, 0, 80, 93
2, 93600, Note_on_c, 0, 85, 93
2, 93840, Note_on_c, 0, 85, 0
2, 93840, Note_on_c, 0, 73, 0
2, 93840, Note_on_c, 0, 77, 0
2, 93840, Note_on_c, 0, 80, 0
2, 93840, Note_on_c, 0, 69, 93
2, 93960, Note_on_c, 0, 69, 0
2, 93960, Note_on_c, 0, 71, 93
2, 94080, Note_on_c, 0, 71, 0
2, 94080, Note_on_c, 0, 73, 93
2, 94320, Note_on_c, 0, 73, 0
2, 94320, Note_on_c, 0, 73, 93
2, 94560, Note_on_c, 0, 73, 0
2, 94560, Note_on_c, 0, 73, 93
2, 94800, Note_on_c, 0, 73, 0
2, 94800, Note_on_c, 0, 73, 93
2, 94800, Note_on_c, 0, 78, 93
2, 94800, Note_on_c, 0, 81, 93
2, 94920, Note_on_c, 0, 81, 0
2, 94920, Note_on_c, 0, 78, 0
2, 94920, Note_on_c, 0, 73, 0
2, 94920, Note_on_c, 0, 83, 93
2, 95040, Note_on_c, 0, 83, 0
2, 95040, Note_on_c, 0, 73, 93
2, 95040, Note_on_c, 0, 77, 93
2, 95040, Note_on_c, 0, 80, 93
2, 95040, Note_on_c, 0, 85, 93
2, 95280, Note_on_c, 0, 85, 0
2, 95280, Note_on_c, 0, 73, 0
2, 95280, Note_on_c, 0, 77, 0
2, 95280, Note_on_c, 0, 80, 0
2, 95280, Note_on_c, 0, 73, 93
2, 95280, Note_on_c, 0, 77, 93
2, 95280, Note_on_c, 0, 80, 93
2, 95280, Note_on_c, 0, 85, 93
2, 95520, Note_on_c, 0, 85, 0
2, 95520, Note_on_c, 0, 73, 0
2, 95520, Note_on_c, 0, 77, 0
2, 95520, Note_on_c, 0, 80, 0
2, 95520, Note_on_c, 0, 73, 93
2, 95520, Note_on_c, 0, 77, 93
2, 95520, Note_on_c, 0, 80, 93
2, 95520, Note_on_c, 0, 85, 93
2, 95760, Note_on_c, 0, 85, 0
2, 95760, Note_on_c, 0, 73, 0
2, 95760, Note_on_c, 0, 77, 0
2, 95760, Note_on_c, 0, 80, 0
2, 95760, Note_on_c, 0, 73, 93
2, 95880, Note_on_c, 0, 73, 0
2, 95880, Note_on_c, 0, 75, 93
2, 96000, Note_on_c, 0, 75, 0
2, 96000, Note_on_c, 0, 77, 93
2, 96240, Note_on_c, 0, 77, 0
2, 96240, Note_on_c, 0, 77, 93
2, 96480, Note_on_c, 0, 77, 0
2, 96480, Note_on_c, 0, 77, 93
2, 96720, Note_on_c, 0, 77, 0
2, 96720, Note_on_c, 0, 77, 93
2, 96720, Note_on_c, 0, 82, 93
2, 96720, Note_on_c, 0, 85, 93
2, 96840, Note_on_c, 0, 85, 0
2, 96840, Note_on_c, 0, 82, 0
2, 96840, Note_on_c, 0, 77, 0
2, 96840, Note_on_c, 0, 87, 93
2, 96960, Note_on_c, 0, 87, 0
2, 96960, Note_on_c, 0, 77, 93
2, 96960, Note_on_c, 0, 81, 93
2, 96960, Note_on_c, 0, 84, 93
2, 96960, Note_on_c, 0, 89, 93
2, 97200, Note_on_c, 0, 89, 0
2, 97200, Note_on_c, 0, 77, 0
2, 97200, Note_on_c, 0, 81, 0
2, 97200, Note_on_c, 0, 84, 0
2, 97200, Note_on_c, 0, 77, 93
2, 97200, Note_on_c, 0, 81, 93
2, 97200, Note_on_c, 0, 84, 93
2, 97200, Note_on_c, 0, 89, 93
2, 97440, Note_on_c, 0, 89, 0
2, 97440, Note_on_c, 0, 77, 0
2, 97440, Note_on_c, 0, 81, 0
2, 97440, Note_on_c, 0, 84, 0
2, 97440, Note_on_c, 0, 77, 93
2, 97440, Note_on_c, 0, 81, 93
2, 97440, Note_on_c, 0, 84, 93
2, 97440, Note_on_c, 0, 89, 93
2, 97680, Note_on_c, 0, 89, 0
2, 97680, Note_on_c, 0, 77, 0
2, 97680, Note_on_c, 0, 81, 0
2, 97680, Note_on_c, 0, 84, 0
2, 97680, Note_on_c, 0, 73, 93
2, 97800, Note_on_c, 0, 73, 0
2, 97800, Note_on_c, 0, 75, 93
2, 97920, Note_on_c, 0, 75, 0
2, 97920, Note_on_c, 0, 77, 93
2, 98160, Note_on_c, 0, 77, 0
2, 98160, Note_on_c, 0, 77, 93
2, 98400, Note_on_c, 0, 77, 0
2, 98400, Note_on_c, 0, 77, 93
2, 98640, Note_on_c, 0, 77, 0
2, 98640, Note_on_c, 0, 77, 93
2, 98640, Note_on_c, 0, 82, 93
2, 98640, Note_on_c, 0, 85, 93
2, 98760, Note_on_c, 0, 85, 0
2, 98760, Note_on_c, 0, 82, 0
2, 98760, Note_on_c, 0, 77, 0
2, 98760, Note_on_c, 0, 87, 93
2, 98880, Note_on_c, 0, 87, 0
2, 98880, Note_on_c, 0, 77, 93
2, 98880, Note_on_c, 0, 81, 93
2, 98880, Note_on_c, 0, 84, 93
2, 98880, Note_on_c, 0, 89, 93
2, 99120, Note_on_c, 0, 89, 0
2, 99120, Note_on_c, 0, 77, 0
2, 99120, Note_on_c, 0, 81, 0
2, 99120, Note_on_c, 0, 84, 0
2, 99120, Note_on_c, 0, 77, 93
2, 99120, Note_on_c, 0, 81, 93
2, 99120, Note_on_c, 0, 84, 93
2, 99120, Note_on_c, 0, 89, 93
2, 99360, Note_on_c, 0, 89, 0
2, 99360, Note_on_c, 0, 77, 0
2, 99360, Note_on_c, 0, 81, 0
2, 99360, Note_on_c, 0, 84, 0
2, 99360, Note_on_c, 0, 77, 93
2, 99360, Note_on_c, 0, 81, 93
2, 99360, Note_on_c, 0, 84, 93
2, 99360, Note_on_c, 0, 89, 93
2, 99600, Note_on_c, 0, 89, 0
2, 99600, Note_on_c, 0, 77, 0
2, 99600, Note_on_c, 0, 81, 0
2, 99600, Note_on_c, 0, 84, 0
2, 99840, Note_on_c, 0, 68, 67
2, 99840, Note_on_c, 0, 80, 67
2, 100800, Note_on_c, 0, 80, 0
2, 100800, Note_on_c, 0, 68, 0
2, 100800, Note_on_c, 0, 70, 67
2, 100800, Note_on_c, 0, 82, 67
2, 101280, Note_on_c, 0, 82, 0
2, 101280, Note_on_c, 0, 70, 0
2, 101280, Note_on_c, 0, 77, 67
2, 101280, Note_on_c, 0, 89, 67
2, 101760, Note_on_c, 0, 89, 0
2, 101760, Note_on_c, 0, 77, 0
2, 101760, Note_on_c, 0, 75, 67
2, 101760, Note_on_c, 0, 87, 67
2, 102720, Note_on_c, 0, 87, 0
2, 102720, Note_on_c, 0, 75, 0
2, 102720, Note_on_c, 0, 70, 67
2, 102720, Note_on_c, 0, 82, 67
2, 103200, Note_on_c, 0, 82, 0
2, 103200, Note_on_c, 0, 70, 0
2, 103200, Note_on_c, 0, 77, 67
2, 103200, Note_on_c, 0, 89, 67
2, 103680, Note_on_c, 0, 89, 0
2, 103680, Note_on_c, 0, 77, 0
2, 103680, Note_on_c, 0, 75, 67
2, 103680, Note_on_c, 0, 87, 67
2, 104640, Note_on_c, 0, 87, 0
2, 104640, Note_on_c, 0, 75, 0
2, 104640, Note_on_c, 0, 70, 67
2, 104640, Note_on_c, 0, 82, 67
2, 105120, Note_on_c, 0, 82, 0
2, 105120, Note_on_c, 0, 70, 0
2, 105120, Note_on_c, 0, 77, 67
2, 105120, Note_on_c, 0, 89, 67
2, 105600, Note_on_c, 0, 89, 0
2, 105600, Note_on_c, 0, 77, 0
2, 105600, Note_on_c, 0, 73, 67
2, 105600, Note_on_c, 0, 85, 67
2, 106080, Note_on_c, 0, 85, 0
2, 106080, Note_on_c, 0, 73, 0
2, 106080, Note_on_c, 0, 72, 67
2, 106080, Note_on_c, 0, 84, 67
2, 106320, Note_on_c, 0, 84, 0
2, 106320, Note_on_c, 0, 72, 0
2, 106320, Note_on_c, 0, 70, 67
2, 106320, Note_on_c, 0, 82, 67
2, 106560, Note_on_c, 0, 82, 0
2, 106560, Note_on_c, 0, 70, 0
2, 106560, Note_on_c, 0, 69, 67
2, 106560, Note_on_c, 0, 81, 67
2, 107040, Note_on_c, 0, 81, 0
2, 107040, Note_on_c, 0, 69, 0
2, 107040, Note_on_c, 0, 64, 67
2, 107040, Note_on_c, 0, 76, 67
2, 107280, Note_on_c, 0, 76, 0
2, 107280, Note_on_c, 0, 64, 0
2, 107280, Note_on_c, 0, 69, 67
2, 107280, Note_on_c, 0, 81, 67
2, 107520, Note_on_c, 0, 81, 0
2, 107520, Note_on_c, 0, 69, 0
2, 107520, Note_on_c, 0, 68, 67
2, 107520, Note_on_c, 0, 80, 67
2, 108480, Note_on_c, 0, 80, 0
2, 108480, Note_on_c, 0, 68, 0
2, 108480, Note_on_c, 0, 70, 67
2, 108480, Note_on_c, 0, 82, 67
2, 108960, Note_on_c, 0, 82, 0
2, 108960, Note_on_c, 0, 70, 0
2, 108960, Note_on_c, 0, 77, 67
2, 108960, Note_on_c, 0, 89, 67
2, 109440, Note_on_c, 0, 89, 0
2, 109440, Note_on_c, 0, 77, 0
2, 109440, Note_on_c, 0, 75, 67
2, 109440, Note_on_c, 0, 87, 67
2, 110400, Note_on_c, 0, 87, 0
2, 110400, Note_on_c, 0, 75, 0
2, 110400, Note_on_c, 0, 70, 67
2, 110400, Note_on_c, 0, 82, 67
2, 110880, Note_on_c, 0, 82, 0
2, 110880, Note_on_c, 0, 70, 0
2, 110880, Note_on_c, 0, 77, 67
2, 110880, Note_on_c, 0, 89, 67
2, 111360, Note_on_c, 0, 89, 0
2, 111360, Note_on_c, 0, 77, 0
2, 111360, Note_on_c, 0, 75, 67
2, 111360, Note_on_c, 0, 87, 67
2, 112320, Note_on_c, 0, 87, 0
2, 112320, Note_on_c, 0, 75, 0
2, 112320, Note_on_c, 0, 70, 67
2, 112320, Note_on_c, 0, 82, 67
2, 112800, Note_on_c, 0, 82, 0
2, 112800, Note_on_c, 0, 70, 0
2, 112800, Note_on_c, 0, 77, 67
2, 112800, Note_on_c, 0, 89, 67
2, 113280, Note_on_c, 0, 89, 0
2, 113280, Note_on_c, 0, 77, 0
2, 113280, Note_on_c, 0, 73, 67
2, 113280, Note_on_c, 0, 85, 67
2, 113760, Note_on_c, 0, 85, 0
2, 113760, Note_on_c, 0, 73, 0
2, 113760, Note_on_c, 0, 71, 67
2, 113760, Note_on_c, 0, 83, 67
2, 114000, Note_on_c, 0, 83, 0
2, 114000, Note_on_c, 0, 71, 0
2, 114000, Note_on_c, 0, 69, 67
2, 114000, Note_on_c, 0, 81, 67
2, 114240, Note_on_c, 0, 81, 0
2, 114240, Note_on_c, 0, 69, 0
2, 114240, Note_on_c, 0, 73, 67
2, 114240, Note_on_c, 0, 85, 67
2, 115200, Note_on_c, 0, 85, 0
2, 115200, Note_on_c, 0, 73, 0
2, 115200, Note_on_c, 0, 68, 67
2, 115200, Note_on_c, 0, 80, 67
2, 116160, Note_on_c, 0, 80, 0
2, 116160, Note_on_c, 0, 68, 0
2, 116160, Note_on_c, 0, 70, 67
2, 116160, Note_on_c, 0, 82, 67
2, 116640, Note_on_c, 0, 82, 0
2, 116640, Note_on_c, 0, 70, 0
2, 116640, Note_on_c, 0, 77, 67
2, 116640, Note_on_c, 0, 89, 67
2, 117120, Note_on_c, 0, 89, 0
2, 117120, Note_on_c, 0, 77, 0
2, 117120, Note_on_c, 0, 75, 67
2, 117120, Note_on_c, 0, 87, 67
2, 118080, Note_on_c, 0, 87, 0
2, 118080, Note_on_c, 0, 75, 0
2, 118080, Note_on_c, 0, 70, 67
2, 118080, Note_on_c, 0, 82, 67
2, 118560, Note_on_c, 0, 82, 0
2, 118560, Note_on_c, 0, 70, 0
2, 118560, Note_on_c, 0, 77, 67
2, 118560, Note_on_c, 0, 89, 67
2, 119040, Note_on_c, 0, 89, 0
2, 119040, Note_on_c, 0, 77, 0
2, 119040, Note_on_c, 0, 75, 67
2, 119040, Note_on_c, 0, 87, 67
2, 120000, Note_on_c, 0, 87, 0
2, 120000, Note_on_c, 0, 75, 0
2, 120000, Note_on_c, 0, 70, 67
2, 120000, Note_on_c, 0, 82, 67
2, 120480, Note_on_c, 0, 82, 0
2, 120480, Note_on_c, 0, 70, 0
2, 120480, Note_on_c, 0, 77, 67
2, 120480, Note_on_c, 0, 89, 67
2, 120960, Note_on_c, 0, 89, 0
2, 120960, Note_on_c, 0, 77, 0
2, 120960, Note_on_c, 0, 73, 67
2, 120960, Note_on_c, 0, 85, 67
2, 121440, Note_on_c, 0, 85, 0
2, 121440, Note_on_c, 0, 73, 0
2, 121440, Note_on_c, 0, 72, 67
2, 121440, Note_on_c, 0, 84, 67
2, 121680, Note_on_c, 0, 84, 0
2, 121680, Note_on_c, 0, 72, 0
2, 121680, Note_on_c, 0, 70, 67
2, 121680, Note_on_c, 0, 82, 67
2, 121920, Note_on_c, 0, 82, 0
2, 121920, Note_on_c, 0, 70, 0
2, 121920, Note_on_c, 0, 69, 67
2, 121920, Note_on_c, 0, 81, 67
2, 122400, Note_on_c, 0, 81, 0
2, 122400, Note_on_c, 0, 69, 0
2, 122400, Note_on_c, 0, 64, 67
2, 122400, Note_on_c, 0, 76, 67
2, 122640, Note_on_c, 0, 76, 0
2, 122640, Note_on_c, 0, 64, 0
2, 122640, Note_on_c, 0, 69, 67
2, 122640, Note_on_c, 0, 81, 67
2, 122880, Note_on_c, 0, 81, 0
2, 122880, Note_on_c, 0, 69, 0
2, 122880, Note_on_c, 0, 68, 67
2, 122880, Note_on_c, 0, 80, 67
2, 123840, Note_on_c, 0, 80, 0
2, 123840, Note_on_c, 0, 68, 0
2, 123840, Note_on_c, 0, 70, 67
2, 123840, Note_on_c, 0, 82, 67
2, 124320, Note_on_c, 0, 82, 0
2, 124320, Note_on_c, 0, 70, 0
2, 124320, Note_on_c, 0, 77, 67
2, 124320, Note_on_c, 0, 89, 67
2, 124800, Note_on_c, 0, 89, 0
2, 124800, Note_on_c, 0, 77, 0
2, 124800, Note_on_c, 0, 75, 67
2, 124800, Note_on_c, 0, 87, 67
2, 125760, Note_on_c, 0, 87, 0
2, 125760, Note_on_c, 0, 75, 0
2, 125760, Note_on_c, 0, 70, 67
2, 125760, Note_on_c, 0, 82, 67
2, 126240, Note_on_c, 0, 82, 0
2, 126240, Note_on_c, 0, 70, 0
2, 126240, Note_on_c, 0, 77, 67
2, 126240, Note_on_c, 0, 89, 67
2, 126720, Note_on_c, 0, 89, 0
2, 126720, Note_on_c, 0, 77, 0
2, 126720, Note_on_c, 0, 75, 67
2, 126720, Note_on_c, 0, 87, 67
2, 127680, Note_on_c, 0, 87, 0
2, 127680, Note_on_c, 0, 75, 0
2, 127680, Note_on_c, 0, 70, 67
2, 127680, Note_on_c, 0, 82, 67
2, 128160, Note_on_c, 0, 82, 0
2, 128160, Note_on_c, 0, 70, 0
2, 128160, Note_on_c, 0, 77, 67
2, 128160, Note_on_c, 0, 89, 67
2, 128640, Note_on_c, 0, 89, 0
2, 128640, Note_on_c, 0, 77, 0
2, 128640, Note_on_c, 0, 73, 67
2, 128640, Note_on_c, 0, 85, 67
2, 129120, Note_on_c, 0, 85, 0
2, 129120, Note_on_c, 0, 73, 0
2, 129120, Note_on_c, 0, 71, 67
2, 129120, Note_on_c, 0, 83, 67
2, 129360, Note_on_c, 0, 83, 0
2, 129360, Note_on_c, 0, 71, 0
2, 129360, Note_on_c, 0, 69, 67
2, 129360, Note_on_c, 0, 81, 67
2, 129600, Note_on_c, 0, 81, 0
2, 129600, Note_on_c, 0, 69, 0
2, 129600, Note_on_c, 0, 73, 67
2, 129600, Note_on_c, 0, 85, 67
2, 130320, Note_on_c, 0, 85, 0
2, 130320, Note_on_c, 0, 73, 0
2, 130320, Note_on_c, 0, 72, 67
2, 130320, Note_on_c, 0, 84, 67
2, 130560, Note_on_c, 0, 84, 0
2, 130560, Note_on_c, 0, 72, 0
2, 130560, Note_on_c, 0, 70, 67
2, 130560, Note_on_c, 0, 82, 67
2, 130800, Note_on_c, 0, 82, 0
2, 130800, Note_on_c, 0, 70, 0
2, 130800, Note_on_c, 0, 73, 67
2, 131040, Note_on_c, 0, 73, 0
2, 131040, Note_on_c, 0, 72, 67
2, 131280, Note_on_c, 0, 72, 0
2, 131280, Note_on_c, 0, 73, 67
2, 131520, Note_on_c, 0, 73, 0
2, 131520, Note_on_c, 0, 70, 67
2, 132000, Note_on_c, 0, 70, 0
2, 132000, Note_on_c, 0, 77, 67
2, 132480, Note_on_c, 0, 77, 0
2, 132480, Note_on_c, 0, 75, 67
2, 132840, Note_on_c, 0, 75, 0
2, 132840, Note_on_c, 0, 77, 67
2, 132900, Note_on_c, 0, 77, 0
2, 132900, Note_on_c, 0, 75, 67
2, 132960, Note_on_c, 0, 75, 0
2, 132960, Note_on_c, 0, 70, 67
2, 133200, Note_on_c, 0, 70, 0
2, 133200, Note_on_c, 0, 72, 67
2, 133440, Note_on_c, 0, 72, 0
2, 133440, Note_on_c, 0, 73, 67
2, 133680, Note_on_c, 0, 73, 0
2, 133680, Note_on_c, 0, 75, 67
2, 133920, Note_on_c, 0, 75, 0
2, 133920, Note_on_c, 0, 70, 67
2, 134400, Note_on_c, 0, 70, 0
2, 134640, Note_on_c, 0, 73, 67
2, 134880, Note_on_c, 0, 73, 0
2, 134880, Note_on_c, 0, 72, 67
2, 135120, Note_on_c, 0, 72, 0
2, 135120, Note_on_c, 0, 73, 67
2, 135360, Note_on_c, 0, 73, 0
2, 135360, Note_on_c, 0, 70, 67
2, 135840, Note_on_c, 0, 70, 0
2, 135840, Note_on_c, 0, 73, 67
2, 136320, Note_on_c, 0, 73, 0
2, 136320, Note_on_c, 0, 75, 67
2, 136680, Note_on_c, 0, 75, 0
2, 136680, Note_on_c, 0, 77, 67
2, 136740, Note_on_c, 0, 77, 0
2, 136740, Note_on_c, 0, 75, 67
2, 136800, Note_on_c, 0, 75, 0
2, 136800, Note_on_c, 0, 70, 67
2, 137040, Note_on_c, 0, 70, 0
2, 137040, Note_on_c, 0, 72, 67
2, 137280, Note_on_c, 0, 72, 0
2, 137280, Note_on_c, 0, 73, 67
2, 137760, Note_on_c, 0, 73, 0
2, 138480, Note_on_c, 0, 73, 67
2, 138720, Note_on_c, 0, 73, 0
2, 138720, Note_on_c, 0, 72, 67
2, 138960, Note_on_c, 0, 72, 0
2, 138960, Note_on_c, 0, 73, 67
2, 139200, Note_on_c, 0, 73, 0
2, 139200, Note_on_c, 0, 70, 67
2, 139680, Note_on_c, 0, 70, 0
2, 139680, Note_on_c, 0, 77, 67
2, 140160, Note_on_c, 0, 77, 0
2, 140160, Note_on_c, 0, 75, 67
2, 140520, Note_on_c, 0, 75, 0
2, 140520, Note_on_c, 0, 77, 67
2, 140580, Note_on_c, 0, 77, 0
2, 140580, Note_on_c, 0, 75, 67
2, 140640, Note_on_c, 0, 75, 0
2, 140640, Note_on_c, 0, 70, 67
2, 140880, Note_on_c, 0, 70, 0
2, 140880, Note_on_c, 0, 72, 67
2, 141120, Note_on_c, 0, 72, 0
2, 141120, Note_on_c, 0, 73, 67
2, 141360, Note_on_c, 0, 73, 0
2, 141360, Note_on_c, 0, 75, 67
2, 141600, Note_on_c, 0, 75, 0
2, 141600, Note_on_c, 0, 70, 67
2, 142080, Note_on_c, 0, 70, 0
2, 142320, Note_on_c, 0, 73, 67
2, 142560, Note_on_c, 0, 73, 0
2, 142560, Note_on_c, 0, 72, 67
2, 142800, Note_on_c, 0, 72, 0
2, 142800, Note_on_c, 0, 73, 67
2, 143040, Note_on_c, 0, 73, 0
2, 143040, Note_on_c, 0, 70, 67
2, 143520, Note_on_c, 0, 70, 0
2, 143520, Note_on_c, 0, 73, 67
2, 144000, Note_on_c, 0, 73, 0
2, 144000, Note_on_c, 0, 75, 67
2, 144360, Note_on_c, 0, 75, 0
2, 144360, Note_on_c, 0, 77, 67
2, 144420, Note_on_c, 0, 77, 0
2, 144420, Note_on_c, 0, 75, 67
2, 144480, Note_on_c, 0, 75, 0
2, 144480, Note_on_c, 0, 70, 67
2, 144720, Note_on_c, 0, 70, 0
2, 144720, Note_on_c, 0, 72, 67
2, 144960, Note_on_c, 0, 72, 0
2, 144960, Note_on_c, 0, 73, 67
2, 145440, Note_on_c, 0, 73, 0
2, 146160, Note_on_c, 0, 68, 80
2, 146400, Note_on_c, 0, 68, 0
2, 146400, Note_on_c, 0, 73, 80
2, 146640, Note_on_c, 0, 73, 0
2, 146640, Note_on_c, 0, 75, 80
2, 146880, Note_on_c, 0, 75, 0
2, 146880, Note_on_c, 0, 77, 80
2, 147360, Note_on_c, 0, 77, 0
2, 147360, Note_on_c, 0, 80, 80
2, 147840, Note_on_c, 0, 80, 0
2, 147840, Note_on_c, 0, 75, 80
2, 148200, Note_on_c, 0, 75, 0
2, 148200, Note_on_c, 0, 77, 80
2, 148260, Note_on_c, 0, 77, 0
2, 148260, Note_on_c, 0, 75, 80
2, 148320, Note_on_c, 0, 75, 0
2, 148320, Note_on_c, 0, 70, 80
2, 148560, Note_on_c, 0, 70, 0
2, 148560, Note_on_c, 0, 72, 80
2, 148800, Note_on_c, 0, 72, 0
2, 148800, Note_on_c, 0, 73, 80
2, 149040, Note_on_c, 0, 73, 0
2, 149040, Note_on_c, 0, 70, 80
2, 149280, Note_on_c, 0, 70, 0
2, 149280, Note_on_c, 0, 68, 80
2, 149760, Note_on_c, 0, 68, 0
2, 150000, Note_on_c, 0, 68, 80
2, 150240, Note_on_c, 0, 68, 0
2, 150240, Note_on_c, 0, 73, 80
2, 150480, Note_on_c, 0, 73, 0
2, 150480, Note_on_c, 0, 75, 80
2, 150720, Note_on_c, 0, 75, 0
2, 150720, Note_on_c, 0, 77, 80
2, 151200, Note_on_c, 0, 77, 0
2, 151200, Note_on_c, 0, 80, 80
2, 151680, Note_on_c, 0, 80, 0
2, 151680, Note_on_c, 0, 75, 80
2, 152040, Note_on_c, 0, 75, 0
2, 152040, Note_on_c, 0, 77, 80
2, 152100, Note_on_c, 0, 77, 0
2, 152100, Note_on_c, 0, 75, 80
2, 152160, Note_on_c, 0, 75, 0
2, 152160, Note_on_c, 0, 70, 80
2, 152400, Note_on_c, 0, 70, 0
2, 152400, Note_on_c, 0, 72, 80
2, 152640, Note_on_c, 0, 72, 0
2, 152640, Note_on_c, 0, 73, 80
2, 153120, Note_on_c, 0, 73, 0
2, 153840, Note_on_c, 0, 68, 80
2, 154080, Note_on_c, 0, 68, 0
2, 154080, Note_on_c, 0, 73, 80
2, 154320, Note_on_c, 0, 73, 0
2, 154320, Note_on_c, 0, 75, 80
2, 154560, Note_on_c, 0, 75, 0
2, 154560, Note_on_c, 0, 77, 80
2, 155040, Note_on_c, 0, 77, 0
2, 155040, Note_on_c, 0, 80, 80
2, 155520, Note_on_c, 0, 80, 0
2, 155520, Note_on_c, 0, 75, 80
2, 155880, Note_on_c, 0, 75, 0
2, 155880, Note_on_c, 0, 77, 80
2, 155940, Note_on_c, 0, 77, 0
2, 155940, Note_on_c, 0, 75, 80
2, 156000, Note_on_c, 0, 75, 0
2, 156000, Note_on_c, 0, 70, 80
2, 156240, Note_on_c, 0, 70, 0
2, 156240, Note_on_c, 0, 72, 80
2, 156480, Note_on_c, 0, 72, 0
2, 156480, Note_on_c, 0, 73, 80
2, 156720, Note_on_c, 0, 73, 0
2, 156720, Note_on_c, 0, 70, 80
2, 156960, Note_on_c, 0, 70, 0
2, 156960, Note_on_c, 0, 68, 80
2, 157440, Note_on_c, 0, 68, 0
2, 157680, Note_on_c, 0, 68, 80
2, 157920, Note_on_c, 0, 68, 0
2, 157920, Note_on_c, 0, 73, 80
2, 158160, Note_on_c, 0, 73, 0
2, 158160, Note_on_c, 0, 75, 80
2, 158400, Note_on_c, 0, 75, 0
2, 158400, Note_on_c, 0, 77, 80
2, 158880, Note_on_c, 0, 77, 0
2, 158880, Note_on_c, 0, 80, 80
2, 159360, Note_on_c, 0, 80, 0
2, 159360, Note_on_c, 0, 75, 80
2, 159720, Note_on_c, 0, 75, 0
2, 159720, Note_on_c, 0, 77, 80
2, 159780, Note_on_c, 0, 77, 0
2, 159780, Note_on_c, 0, 75, 80
2, 159840, Note_on_c, 0, 75, 0
2, 159840, Note_on_c, 0, 70, 80
2, 160080, Note_on_c, 0, 70, 0
2, 160080, Note_on_c, 0, 72, 80
2, 160320, Note_on_c, 0, 72, 0
2, 160320, Note_on_c, 0, 73, 80
2, 160800, Note_on_c, 0, 73, 0
2, 161520, Note_on_c, 0, 73, 67
2, 161567, Note_on_c, 0, 73, 0
2, 161760, Note_on_c, 0, 72, 67
2, 161807, Note_on_c, 0, 72, 0
2, 162000, Note_on_c, 0, 73, 67
2, 162047, Note_on_c, 0, 73, 0
2, 162240, Note_on_c, 0, 70, 67
2, 162640, Note_on_c, 0, 62, 67
2, 162680, Note_on_c, 0, 70, 67
2, 162720, Note_on_c, 0, 70, 0
2, 162720, Note_on_c, 0, 77, 67
2, 163200, Note_on_c, 0, 77, 0
2, 163200, Note_on_c, 0, 70, 0
2, 163200, Note_on_c, 0, 62, 0
2, 163200, Note_on_c, 0, 75, 67
2, 163560, Note_on_c, 0, 75, 0
2, 163560, Note_on_c, 0, 77, 67
2, 163620, Note_on_c, 0, 77, 0
2, 163620, Note_on_c, 0, 75, 67
2, 163680, Note_on_c, 0, 75, 0
2, 163680, Note_on_c, 0, 70, 67
2, 163920, Note_on_c, 0, 70, 0
2, 163920, Note_on_c, 0, 72, 67
2, 164160, Note_on_c, 0, 72, 0
2, 164160, Note_on_c, 0, 73, 67
2, 164400, Note_on_c, 0, 73, 0
2, 164400, Note_on_c, 0, 75, 67
2, 164640, Note_on_c, 0, 75, 0
2, 164640, Note_on_c, 0, 70, 67
2, 165120, Note_on_c, 0, 70, 0
2, 165360, Note_on_c, 0, 73, 67
2, 165407, Note_on_c, 0, 73, 0
2, 165600, Note_on_c, 0, 72, 67
2, 165647, Note_on_c, 0, 72, 0
2, 165840, Note_on_c, 0, 73, 67
2, 165887, Note_on_c, 0, 73, 0
2, 166080, Note_on_c, 0, 70, 67
2, 166560, Note_on_c, 0, 70, 0
2, 166560, Note_on_c, 0, 73, 67
2, 167040, Note_on_c, 0, 73, 0
2, 167040, Note_on_c, 0, 75, 67
2, 167400, Note_on_c, 0, 75, 0
2, 167400, Note_on_c, 0, 77, 67
2, 167460, Note_on_c, 0, 77, 0
2, 167460, Note_on_c, 0, 75, 67
2, 167520, Note_on_c, 0, 75, 0
2, 167520, Note_on_c, 0, 70, 67
2, 167760, Note_on_c, 0, 70, 0
2, 167760, Note_on_c, 0, 72, 67
2, 168000, Note_on_c, 0, 72, 0
2, 168000, Note_on_c, 0, 73, 67
2, 168480, Note_on_c, 0, 73, 0
2, 169200, Note_on_c, 0, 73, 67
2, 169247, Note_on_c, 0, 73, 0
2, 169440, Note_on_c, 0, 72, 67
2, 169487, Note_on_c, 0, 72, 0
2, 169680, Note_on_c, 0, 73, 67
2, 169727, Note_on_c, 0, 73, 0
2, 169920, Note_on_c, 0, 70, 67
2, 170320, Note_on_c, 0, 62, 67
2, 170360, Note_on_c, 0, 70, 67
2, 170400, Note_on_c, 0, 70, 0
2, 170400, Note_on_c, 0, 77, 67
2, 170880, Note_on_c, 0, 77, 0
2, 170880, Note_on_c, 0, 70, 0
2, 170880, Note_on_c, 0, 62, 0
2, 170880, Note_on_c, 0, 75, 67
2, 171240, Note_on_c, 0, 75, 0
2, 171240, Note_on_c, 0, 77, 67
2, 171300, Note_on_c, 0, 77, 0
2, 171300, Note_on_c, 0, 75, 67
2, 171360, Note_on_c, 0, 75, 0
2, 171360, Note_on_c, 0, 70, 67
2, 171600, Note_on_c, 0, 70, 0
2, 171600, Note_on_c, 0, 72, 67
2, 171840, Note_on_c, 0, 72, 0
2, 171840, Note_on_c, 0, 73, 67
2, 172080, Note_on_c, 0, 73, 0
2, 172080, Note_on_c, 0, 75, 67
2, 172320, Note_on_c, 0, 75, 0
2, 172320, Note_on_c, 0, 70, 67
2, 172800, Note_on_c, 0, 70, 0
2, 173040, Note_on_c, 0, 73, 67
2, 173087, Note_on_c, 0, 73, 0
2, 173280, Note_on_c, 0, 72, 67
2, 173327, Note_on_c, 0, 72, 0
2, 173520, Note_on_c, 0, 73, 67
2, 173567, Note_on_c, 0, 73, 0
2, 173760, Note_on_c, 0, 70, 67
2, 174240, Note_on_c, 0, 70, 0
2, 174240, Note_on_c, 0, 73, 67
2, 174720, Note_on_c, 0, 73, 0
2, 174720, Note_on_c, 0, 75, 67
2, 175080, Note_on_c, 0, 75, 0
2, 175080, Note_on_c, 0, 77, 67
2, 175140, Note_on_c, 0, 77, 0
2, 175140, Note_on_c, 0, 75, 67
2, 175200, Note_on_c, 0, 75, 0
2, 175200, Note_on_c, 0, 70, 67
2, 175440, Note_on_c, 0, 70, 0
2, 175440, Note_on_c, 0, 72, 67
2, 175680, Note_on_c, 0, 72, 0
2, 175680, Note_on_c, 0, 73, 67
2, 176160, Note_on_c, 0, 73, 0
2, 176880, Note_on_c, 0, 74, 67
2, 176880, Note_on_c, 0, 77, 67
2, 176880, Note_on_c, 0, 83, 67
2, 177120, Note_on_c, 0, 83, 0
2, 177120, Note_on_c, 0, 77, 0
2, 177120, Note_on_c, 0, 74, 0
2, 177120, Note_on_c, 0, 74, 67
2, 177120, Note_on_c, 0, 77, 67
2, 177120, Note_on_c, 0, 85, 67
2, 177360, Note_on_c, 0, 85, 0
2, 177360, Note_on_c, 0, 77, 0
2, 177360, Note_on_c, 0, 74, 0
2, 177360, Note_on_c, 0, 71, 67
2, 177360, Note_on_c, 0, 74, 67
2, 177360, Note_on_c, 0, 77, 67
2, 177360, Note_on_c, 0, 83, 67
2, 177600, Note_on_c, 0, 83, 0
2, 177600, Note_on_c, 0, 71, 0
2, 177600, Note_on_c, 0, 74, 0
2, 177600, Note_on_c, 0, 77, 0
2, 177600, Note_on_c, 0, 70, 67
2, 177600, Note_on_c, 0, 74, 67
2, 177600, Note_on_c, 0, 77, 67
2, 177600, Note_on_c, 0, 82, 67
2, 178080, Note_on_c, 0, 82, 0
2, 178080, Note_on_c, 0, 70, 0
2, 178080, Note_on_c, 0, 74, 0
2, 178080, Note_on_c, 0, 77, 0
2, 178080, Note_on_c, 0, 68, 67
2, 178080, Note_on_c, 0, 74, 67
2, 178080, Note_on_c, 0, 77, 67
2, 178080, Note_on_c, 0, 80, 67
2, 178560, Note_on_c, 0, 80, 0
2, 178560, Note_on_c, 0, 68, 0
2, 178560, Note_on_c, 0, 74, 0
2, 178560, Note_on_c, 0, 77, 0
2, 178560, Note_on_c, 0, 66, 93
2, 178800, Note_on_c, 0, 66, 0
2, 178800, Note_on_c, 0, 66, 93
2, 179040, Note_on_c, 0, 66, 0
2, 179040, Note_on_c, 0, 68, 93
2, 179280, Note_on_c, 0, 68, 0
2, 179280, Note_on_c, 0, 66, 93
2, 179520, Note_on_c, 0, 66, 0
2, 179520, Note_on_c, 0, 65, 93
2, 180000, Note_on_c, 0, 65, 0
2, 180000, Note_on_c, 0, 63, 93
2, 180480, Note_on_c, 0, 63, 0
2, 180720, Note_on_c, 0, 57, 67
2, 180720, Note_on_c, 0, 63, 67
2, 180720, Note_on_c, 0, 66, 67
2, 180720, Note_on_c, 0, 69, 67
2, 180960, Note_on_c, 0, 69, 0
2, 180960, Note_on_c, 0, 57, 0
2, 180960, Note_on_c, 0, 63, 0
2, 180960, Note_on_c, 0, 66, 0
2, 180960, Note_on_c, 0, 61, 67
2, 180960, Note_on_c, 0, 63, 67
2, 180960, Note_on_c, 0, 66, 67
2, 180960, Note_on_c, 0, 73, 67
2, 181200, Note_on_c, 0, 73, 0
2, 181200, Note_on_c, 0, 61, 0
2, 181200, Note_on_c, 0, 63, 0
2, 181200, Note_on_c, 0, 66, 0
2, 181200, Note_on_c, 0, 60, 67
2, 181200, Note_on_c, 0, 63, 67
2, 181200, Note_on_c, 0, 66, 67
2, 181200, Note_on_c, 0, 72, 67
2, 181440, Note_on_c, 0, 72, 0
2, 181440, Note_on_c, 0, 60, 0
2, 181440, Note_on_c, 0, 63, 0
2, 181440, Note_on_c, 0, 66, 0
2, 181440, Note_on_c, 0, 58, 67
2, 181440, Note_on_c, 0, 63, 67
2, 181440, Note_on_c, 0, 66, 67
2, 181440, Note_on_c, 0, 70, 67
2, 181920, Note_on_c, 0, 70, 0
2, 181920, Note_on_c, 0, 58, 0
2, 181920, Note_on_c, 0, 63, 0
2, 181920, Note_on_c, 0, 66, 0
2, 181920, Note_on_c, 0, 57, 67
2, 181920, Note_on_c, 0, 63, 67
2, 181920, Note_on_c, 0, 66, 67
2, 181920, Note_on_c, 0, 69, 67
2, 182160, Note_on_c, 0, 69, 0
2, 182160, Note_on_c, 0, 57, 0
2, 182160, Note_on_c, 0, 63, 0
2, 182160, Note_on_c, 0, 66, 0
2, 182400, Note_on_c, 0, 65, 54
2, 182400, Note_on_c, 0, 70, 54
2, 182880, Note_on_c, 0, 70, 0
2, 182880, Note_on_c, 0, 65, 0
2, 182880, Note_on_c, 0, 65, 54
2, 183360, Note_on_c, 0, 65, 0
2, 183360, Note_on_c, 0, 61, 54
2, 183360, Note_on_c, 0, 65, 54
2, 184320, Note_on_c, 0, 65, 0
2, 184320, Note_on_c, 0, 61, 0
2, 184560, Note_on_c, 0, 62, 67
2, 184560, Note_on_c, 0, 65, 67
2, 184560, Note_on_c, 0, 71, 67
2, 184607, Note_on_c, 0, 71, 0
2, 184607, Note_on_c, 0, 65, 0
2, 184607, Note_on_c, 0, 62, 0
2, 184800, Note_on_c, 0, 62, 67
2, 184800, Note_on_c, 0, 65, 67
2, 184800, Note_on_c, 0, 73, 67
2, 184847, Note_on_c, 0, 73, 0
2, 184847, Note_on_c, 0, 65, 0
2, 184847, Note_on_c, 0, 62, 0
2, 185040, Note_on_c, 0, 62, 67
2, 185040, Note_on_c, 0, 65, 67
2, 185040, Note_on_c, 0, 71, 67
2, 185087, Note_on_c, 0, 71, 0
2, 185087, Note_on_c, 0, 65, 0
2, 185087, Note_on_c, 0, 62, 0
2, 185280, Note_on_c, 0, 62, 67
2, 185280, Note_on_c, 0, 65, 67
2, 185280, Note_on_c, 0, 70, 67
2, 185760, Note_on_c, 0, 70, 0
2, 185760, Note_on_c, 0, 65, 0
2, 185760, Note_on_c, 0, 62, 0
2, 185760, Note_on_c, 0, 62, 67
2, 185760, Note_on_c, 0, 65, 67
2, 185760, Note_on_c, 0, 68, 67
2, 186240, Note_on_c, 0, 68, 0
2, 186240, Note_on_c, 0, 65, 0
2, 186240, Note_on_c, 0, 62, 0
2, 186240, Note_on_c, 0, 58, 54
2, 186240, Note_on_c, 0, 63, 54
2, 186240, Note_on_c, 0, 66, 54
2, 186720, Note_on_c, 0, 66, 0
2, 186720, Note_on_c, 0, 63, 0
2, 186720, Note_on_c, 0, 58, 0
2, 186720, Note_on_c, 0, 58, 54
2, 186720, Note_on_c, 0, 63, 54
2, 187200, Note_on_c, 0, 63, 0
2, 187200, Note_on_c, 0, 58, 0
2, 187200, Note_on_c, 0, 54, 54
2, 187200, Note_on_c, 0, 58, 54
2, 188160, Note_on_c, 0, 58, 0
2, 188160, Note_on_c, 0, 54, 0
2, 188400, Note_on_c, 0, 51, 67
2, 188400, Note_on_c, 0, 54, 67
2, 188400, Note_on_c, 0, 57, 67
2, 188447, Note_on_c, 0, 57, 0
2, 188447, Note_on_c, 0, 54, 0
2, 188447, Note_on_c, 0, 51, 0
2, 188640, Note_on_c, 0, 51, 67
2, 188640, Note_on_c, 0, 54, 67
2, 188640, Note_on_c, 0, 61, 67
2, 188687, Note_on_c, 0, 61, 0
2, 188687, Note_on_c, 0, 54, 0
2, 188687, Note_on_c, 0, 51, 0
2, 188880, Note_on_c, 0, 51, 67
2, 188880, Note_on_c, 0, 54, 67
2, 188880, Note_on_c, 0, 60, 67
2, 188927, Note_on_c, 0, 60, 0
2, 188927, Note_on_c, 0, 54, 0
2, 188927, Note_on_c, 0, 51, 0
2, 189120, Note_on_c, 0, 51, 67
2, 189120, Note_on_c, 0, 54, 67
2, 189120, Note_on_c, 0, 58, 67
2, 189600, Note_on_c, 0, 58, 0
2, 189600, Note_on_c, 0, 54, 0
2, 189600, Note_on_c, 0, 51, 0
2, 189600, Note_on_c, 0, 51, 67
2, 189600, Note_on_c, 0, 54, 67
2, 189600, Note_on_c, 0, 57, 67
2, 190080, Note_on_c, 0, 57, 0
2, 190080, Note_on_c, 0, 54, 0
2, 190080, Note_on_c, 0, 51, 0
2, 190080, Note_on_c, 0, 53, 54
2, 190080, Note_on_c, 0, 58, 54
2, 190560, Note_on_c, 0, 58, 0
2, 190560, Note_on_c, 0, 53, 0
2, 191040, Note_on_c, 0, 49, 54
2, 191040, Note_on_c, 0, 53, 54
2, 192000, Note_on_c, 0, 53, 0
2, 192000, Note_on_c, 0, 49, 0
2, 192240, Note_on_c, 0, 57, 54
2, 192240, Note_on_c, 0, 63, 54
2, 192240, Note_on_c, 0, 66, 54
2, 192240, Note_on_c, 0, 69, 54
2, 192480, Note_on_c, 0, 69, 0
2, 192480, Note_on_c, 0, 57, 0
2, 192480, Note_on_c, 0, 63, 0
2, 192480, Note_on_c, 0, 66, 0
2, 192480, Note_on_c, 0, 58, 54
2, 192480, Note_on_c, 0, 63, 54
2, 192480, Note_on_c, 0, 66, 54
2, 192480, Note_on_c, 0, 70, 54
2, 192720, Note_on_c, 0, 70, 0
2, 192720, Note_on_c, 0, 58, 0
2, 192720, Note_on_c, 0, 63, 0
2, 192720, Note_on_c, 0, 66, 0
2, 192720, Note_on_c, 0, 57, 54
2, 192720, Note_on_c, 0, 63, 54
2, 192720, Note_on_c, 0, 66, 54
2, 192720, Note_on_c, 0, 69, 54
2, 192960, Note_on_c, 0, 69, 0
2, 192960, Note_on_c, 0, 57, 0
2, 192960, Note_on_c, 0, 63, 0
2, 192960, Note_on_c, 0, 66, 0
2, 192960, Note_on_c, 0, 61, 54
2, 192960, Note_on_c, 0, 63, 54
2, 192960, Note_on_c, 0, 66, 54
2, 192960, Note_on_c, 0, 73, 54
2, 193920, Note_on_c, 0, 73, 0
2, 193920, Note_on_c, 0, 61, 0
2, 193920, Note_on_c, 0, 63, 0
2, 193920, Note_on_c, 0, 66, 0
2, 193920, Note_on_c, 0, 58, 54
2, 193920, Note_on_c, 0, 61, 54
2, 193920, Note_on_c, 0, 65, 54
2, 193920, Note_on_c, 0, 70, 54
2, 194160, Note_on_c, 0, 70, 0
2, 194160, Note_on_c, 0, 58, 0
2, 194160, Note_on_c, 0, 61, 0
2, 194160, Note_on_c, 0, 65, 0
2, 194400, Note_on_c, 0, 77, 67
2, 194880, Note_on_c, 0, 77, 0
2, 194880, Note_on_c, 0, 75, 67
2, 195360, Note_on_c, 0, 75, 0
2, 195360, Note_on_c, 0, 77, 67
2, 195840, Note_on_c, 0, 77, 0
2, 196080, Note_on_c, 0, 69, 54
2, 196080, Note_on_c, 0, 75, 54
2, 196080, Note_on_c, 0, 78, 54
2, 196080, Note_on_c, 0, 81, 54
2, 196320, Note_on_c, 0, 81, 0
2, 196320, Note_on_c, 0, 69, 0
2, 196320, Note_on_c, 0, 75, 0
2, 196320, Note_on_c, 0, 78, 0
2, 196320, Note_on_c, 0, 70, 54
2, 196320, Note_on_c, 0, 75, 54
2, 196320, Note_on_c, 0, 78, 54
2, 196320, Note_on_c, 0, 82, 54
2, 196560, Note_on_c, 0, 82, 0
2, 196560, Note_on_c, 0, 70, 0
2, 196560, Note_on_c, 0, 75, 0
2, 196560, Note_on_c, 0, 78, 0
2, 196560, Note_on_c, 0, 69, 54
2, 196560, Note_on_c, 0, 75, 54
2, 196560, Note_on_c, 0, 78, 54
2, 196560, Note_on_c, 0, 81, 54
2, 196800, Note_on_c, 0, 81, 0
2, 196800, Note_on_c, 0, 69, 0
2, 196800, Note_on_c, 0, 75, 0
2, 196800, Note_on_c, 0, 78, 0
2, 196800, Note_on_c, 0, 73, 54
2, 196800, Note_on_c, 0, 75, 54
2, 196800, Note_on_c, 0, 78, 54
2, 196800, Note_on_c, 0, 85, 54
2, 197760, Note_on_c, 0, 85, 0
2, 197760, Note_on_c, 0, 73, 0
2, 197760, Note_on_c, 0, 75, 0
2, 197760, Note_on_c, 0, 78, 0
2, 197760, Note_on_c, 0, 70, 54
2, 197760, Note_on_c, 0, 73, 54
2, 197760, Note_on_c, 0, 77, 54
2, 197760, Note_on_c, 0, 82, 54
2, 198000, Note_on_c, 0, 82, 0
2, 198000, Note_on_c, 0, 70, 0
2, 198000, Note_on_c, 0, 73, 0
2, 198000, Note_on_c, 0, 77, 0
2, 198240, Note_on_c, 0, 89, 67
2, 198720, Note_on_c, 0, 89, 0
2, 198720, Note_on_c, 0, 87, 67
2, 199200, Note_on_c, 0, 87, 0
2, 199200, Note_on_c, 0, 89, 67
2, 199680, Note_on_c, 0, 89, 0
2, 199920, Note_on_c, 0, 57, 54
2, 199920, Note_on_c, 0, 63, 54
2, 199920, Note_on_c, 0, 66, 54
2, 199920, Note_on_c, 0, 69, 54
2, 200160, Note_on_c, 0, 69, 0
2, 200160, Note_on_c, 0, 57, 0
2, 200160, Note_on_c, 0, 63, 0
2, 200160, Note_on_c, 0, 66, 0
2, 200160, Note_on_c, 0, 58, 54
2, 200160, Note_on_c, 0, 63, 54
2, 200160, Note_on_c, 0, 66, 54
2, 200160, Note_on_c, 0, 70, 54
2, 200400, Note_on_c, 0, 70, 0
2, 200400, Note_on_c, 0, 58, 0
2, 200400, Note_on_c, 0, 63, 0
2, 200400, Note_on_c, 0, 66, 0
2, 200400, Note_on_c, 0, 57, 54
2, 200400, Note_on_c, 0, 63, 54
2, 200400, Note_on_c, 0, 66, 54
2, 200400, Note_on_c, 0, 69, 54
2, 200640, Note_on_c, 0, 69, 0
2, 200640, Note_on_c, 0, 57, 0
2, 200640, Note_on_c, 0, 63, 0
2, 200640, Note_on_c, 0, 66, 0
2, 200640, Note_on_c, 0, 61, 54
2, 200640, Note_on_c, 0, 63, 54
2, 200640, Note_on_c, 0, 66, 54
2, 200640, Note_on_c, 0, 73, 54
2, 202080, Note_on_c, 0, 73, 0
2, 202080, Note_on_c, 0, 61, 0
2, 202080, Note_on_c, 0, 63, 0
2, 202080, Note_on_c, 0, 66, 0
2, 202080, Note_on_c, 0, 60, 54
2, 202080, Note_on_c, 0, 63, 54
2, 202080, Note_on_c, 0, 66, 54
2, 202080, Note_on_c, 0, 72, 54
2, 202560, Note_on_c, 0, 72, 0
2, 202560, Note_on_c, 0, 60, 0
2, 202560, Note_on_c, 0, 63, 0
2, 202560, Note_on_c, 0, 66, 0
2, 202560, Note_on_c, 0, 63, 54
2, 202560, Note_on_c, 0, 66, 54
2, 203040, Note_on_c, 0, 66, 0
2, 203040, Note_on_c, 0, 63, 0
2, 203040, Note_on_c, 0, 57, 54
2, 203040, Note_on_c, 0, 63, 54
2, 203040, Note_on_c, 0, 66, 54
2, 203040, Note_on_c, 0, 69, 54
2, 203520, Note_on_c, 0, 69, 0
2, 203520, Note_on_c, 0, 57, 0
2, 203520, Note_on_c, 0, 63, 0
2, 203520, Note_on_c, 0, 66, 0
2, 203520, Note_on_c, 0, 58, 54
2, 203520, Note_on_c, 0, 61, 54
2, 203520, Note_on_c, 0, 65, 54
2, 203520, Note_on_c, 0, 70, 54
2, 204000, Note_on_c, 0, 70, 0
2, 204000, Note_on_c, 0, 58, 0
2, 204000, Note_on_c, 0, 61, 0
2, 204000, Note_on_c, 0, 65, 0
2, 204000, Note_on_c, 0, 70, 80
2, 204000, Note_on_c, 0, 82, 80
2, 204096, Note_on_c, 0, 82, 0
2, 204096, Note_on_c, 0, 70, 0
2, 204480, Note_on_c, 0, 58, 80
2, 204480, Note_on_c, 0, 70, 80
2, 204576, Note_on_c, 0, 70, 0
2, 204576, Note_on_c, 0, 58, 0
2, 205920, Note_on_c, 0, 69, 93
2, 205920, Note_on_c, 0, 72, 93
2, 205920, Note_on_c, 0, 77, 93
2, 205920, Note_on_c, 0, 81, 93
2, 206400, Note_on_c, 0, 81, 0
2, 206400, Note_on_c, 0, 69, 0
2, 206400, Note_on_c, 0, 72, 0
2, 206400, Note_on_c, 0, 77, 0
2, 206400, Note_on_c, 0, 70, 119
2, 206400, Note_on_c, 0, 73, 119
2, 206400, Note_on_c, 0, 77, 119
2, 206400, Note_on_c, 0, 82, 119
2, 206880, Note_on_c, 0, 82, 0
2, 206880, Note_on_c, 0, 70, 0
2, 206880, Note_on_c, 0, 73, 0
2, 206880, Note_on_c, 0, 77, 0
2, 206880, Control_c, 0, 64, 127
2, 208800, Control_c, 0, 64, 0
2, 208800, End_track
3, 0, Start_track
3, 0, Title_t, "Grand Piano"
3, 0, Program_c, 0, 0
3, 0, Control_c, 0, 7, 115
3, 0, Control_c, 0, 10, 79
3, 240, Note_on_c, 0, 61, 55
3, 240, Note_on_c, 0, 65, 55
3, 480, Note_on_c, 0, 65, 0
3, 480, Note_on_c, 0, 61, 0
3, 480, Note_on_c, 0, 61, 55
3, 480, Note_on_c, 0, 65, 55
3, 720, Note_on_c, 0, 65, 0
3, 720, Note_on_c, 0, 61, 0
3, 720, Note_on_c, 0, 61, 55
3, 720, Note_on_c, 0, 65, 55
3, 960, Note_on_c, 0, 65, 0
3, 960, Note_on_c, 0, 61, 0
3, 960, Note_on_c, 0, 61, 55
3, 960, Note_on_c, 0, 65, 55
3, 1440, Note_on_c, 0, 65, 0
3, 1440, Note_on_c, 0, 61, 0
3, 1440, Note_on_c, 0, 65, 55
3, 1440, Note_on_c, 0, 70, 55
3, 1920, Note_on_c, 0, 70, 0
3, 1920, Note_on_c, 0, 65, 0
3, 1920, Note_on_c, 0, 66, 55
3, 1920, Note_on_c, 0, 70, 55
3, 2400, Note_on_c, 0, 70, 0
3, 2400, Note_on_c, 0, 66, 0
3, 2400, Note_on_c, 0, 63, 55
3, 2400, Note_on_c, 0, 70, 55
3, 2640, Note_on_c, 0, 70, 0
3, 2640, Note_on_c, 0, 63, 0
3, 2640, Note_on_c, 0, 63, 55
3, 2640, Note_on_c, 0, 70, 55
3, 2880, Note_on_c, 0, 70, 0
3, 2880, Note_on_c, 0, 63, 0
3, 2880, Note_on_c, 0, 65, 55
3, 2880, Note_on_c, 0, 70, 55
3, 3120, Note_on_c, 0, 70, 0
3, 3120, Note_on_c, 0, 65, 0
3, 3120, Note_on_c, 0, 66, 55
3, 3120, Note_on_c, 0, 70, 55
3, 3360, Note_on_c, 0, 70, 0
3, 3360, Note_on_c, 0, 66, 0
3, 3360, Note_on_c, 0, 61, 55
3, 3360, Note_on_c, 0, 65, 55
3, 3456, Note_on_c, 0, 65, 0
3, 3456, Note_on_c, 0, 61, 0
3, 3840, Note_on_c, 0, 61, 55
3, 3840, Note_on_c, 0, 65, 55
3, 3887, Note_on_c, 0, 65, 0
3, 3887, Note_on_c, 0, 61, 0
3, 4080, Note_on_c, 0, 61, 55
3, 4080, Note_on_c, 0, 65, 55
3, 4320, Note_on_c, 0, 65, 0
3, 4320, Note_on_c, 0, 61, 0
3, 4320, Note_on_c, 0, 61, 55
3, 4320, Note_on_c, 0, 65, 55
3, 4560, Note_on_c, 0, 65, 0
3, 4560, Note_on_c, 0, 61, 0
3, 4560, Note_on_c, 0, 61, 55
3, 4560, Note_on_c, 0, 65, 55
3, 4800, Note_on_c, 0, 65, 0
3, 4800, Note_on_c, 0, 61, 0
3, 4800, Note_on_c, 0, 61, 55
3, 4800, Note_on_c, 0, 65, 55
3, 5280, Note_on_c, 0, 65, 0
3, 5280, Note_on_c, 0, 61, 0
3, 5280, Note_on_c, 0, 65, 55
3, 5280, Note_on_c, 0, 70, 55
3, 5760, Note_on_c, 0, 70, 0
3, 5760, Note_on_c, 0, 65, 0
3, 5760, Note_on_c, 0, 66, 55
3, 5760, Note_on_c, 0, 70, 55
3, 6240, Note_on_c, 0, 70, 0
3, 6240, Note_on_c, 0, 66, 0
3, 6240, Note_on_c, 0, 63, 55
3, 6240, Note_on_c, 0, 70, 55
3, 6480, Note_on_c, 0, 70, 0
3, 6480, Note_on_c, 0, 63, 0
3, 6480, Note_on_c, 0, 63, 55
3, 6480, Note_on_c, 0, 70, 55
3, 6720, Note_on_c, 0, 70, 0
3, 6720, Note_on_c, 0, 63, 0
3, 6720, Note_on_c, 0, 65, 55
3, 6720, Note_on_c, 0, 70, 55
3, 7200, Note_on_c, 0, 70, 0
3, 7200, Note_on_c, 0, 65, 0
3, 7200, Note_on_c, 0, 61, 55
3, 7200, Note_on_c, 0, 65, 55
3, 7247, Note_on_c, 0, 65, 0
3, 7247, Note_on_c, 0, 61, 0
3, 7680, Note_on_c, 0, 61, 55
3, 7680, Note_on_c, 0, 65, 55
3, 7727, Note_on_c, 0, 65, 0
3, 7727, Note_on_c, 0, 61, 0
3, 7920, Note_on_c, 0, 61, 55
3, 7920, Note_on_c, 0, 65, 55
3, 8160, Note_on_c, 0, 65, 0
3, 8160, Note_on_c, 0, 61, 0
3, 8160, Note_on_c, 0, 61, 55
3, 8160, Note_on_c, 0, 65, 55
3, 8400, Note_on_c, 0, 65, 0
3, 8400, Note_on_c, 0, 61, 0
3, 8400, Note_on_c, 0, 61, 55
3, 8400, Note_on_c, 0, 65, 55
3, 8640, Note_on_c, 0, 65, 0
3, 8640, Note_on_c, 0, 61, 0
3, 8640, Note_on_c, 0, 61, 55
3, 8640, Note_on_c, 0, 65, 55
3, 9120, Note_on_c, 0, 65, 0
3, 9120, Note_on_c, 0, 61, 0
3, 9120, Note_on_c, 0, 65, 55
3, 9120, Note_on_c, 0, 70, 55
3, 9600, Note_on_c, 0, 70, 0
3, 9600, Note_on_c, 0, 65, 0
3, 9600, Note_on_c, 0, 66, 55
3, 9600, Note_on_c, 0, 70, 55
3, 10080, Note_on_c, 0, 70, 0
3, 10080, Note_on_c, 0, 66, 0
3, 10080, Note_on_c, 0, 63, 55
3, 10080, Note_on_c, 0, 70, 55
3, 10320, Note_on_c, 0, 70, 0
3, 10320, Note_on_c, 0, 63, 0
3, 10320, Note_on_c, 0, 63, 55
3, 10320, Note_on_c, 0, 70, 55
3, 10560, Note_on_c, 0, 70, 0
3, 10560, Note_on_c, 0, 63, 0
3, 10560, Note_on_c, 0, 65, 55
3, 10560, Note_on_c, 0, 70, 55
3, 10800, Note_on_c, 0, 70, 0
3, 10800, Note_on_c, 0, 65, 0
3, 10800, Note_on_c, 0, 66, 55
3, 10800, Note_on_c, 0, 70, 55
3, 11040, Note_on_c, 0, 70, 0
3, 11040, Note_on_c, 0, 66, 0
3, 11040, Note_on_c, 0, 61, 55
3, 11040, Note_on_c, 0, 65, 55
3, 11136, Note_on_c, 0, 65, 0
3, 11136, Note_on_c, 0, 61, 0
3, 11520, Note_on_c, 0, 61, 55
3, 11520, Note_on_c, 0, 65, 55
3, 11567, Note_on_c, 0, 65, 0
3, 11567, Note_on_c, 0, 61, 0
3, 11760, Note_on_c, 0, 61, 55
3, 11760, Note_on_c, 0, 65, 55
3, 12000, Note_on_c, 0, 65, 0
3, 12000, Note_on_c, 0, 61, 0
3, 12000, Note_on_c, 0, 61, 55
3, 12000, Note_on_c, 0, 65, 55
3, 12240, Note_on_c, 0, 65, 0
3, 12240, Note_on_c, 0, 61, 0
3, 12240, Note_on_c, 0, 61, 55
3, 12240, Note_on_c, 0, 65, 55
3, 12480, Note_on_c, 0, 65, 0
3, 12480, Note_on_c, 0, 61, 0
3, 12480, Note_on_c, 0, 61, 55
3, 12480, Note_on_c, 0, 65, 55
3, 12960, Note_on_c, 0, 65, 0
3, 12960, Note_on_c, 0, 61, 0
3, 12960, Note_on_c, 0, 65, 55
3, 12960, Note_on_c, 0, 70, 55
3, 13440, Note_on_c, 0, 70, 0
3, 13440, Note_on_c, 0, 65, 0
3, 13440, Note_on_c, 0, 66, 55
3, 13440, Note_on_c, 0, 70, 55
3, 13920, Note_on_c, 0, 70, 0
3, 13920, Note_on_c, 0, 66, 0
3, 13920, Note_on_c, 0, 63, 55
3, 13920, Note_on_c, 0, 70, 55
3, 14160, Note_on_c, 0, 70, 0
3, 14160, Note_on_c, 0, 63, 0
3, 14160, Note_on_c, 0, 63, 55
3, 14160, Note_on_c, 0, 70, 55
3, 14400, Note_on_c, 0, 70, 0
3, 14400, Note_on_c, 0, 63, 0
3, 14400, Note_on_c, 0, 65, 55
3, 14400, Note_on_c, 0, 70, 55
3, 14880, Note_on_c, 0, 70, 0
3, 14880, Note_on_c, 0, 65, 0
3, 14880, Note_on_c, 0, 61, 55
3, 14880, Note_on_c, 0, 65, 55
3, 14927, Note_on_c, 0, 65, 0
3, 14927, Note_on_c, 0, 61, 0
3, 15360, Note_on_c, 0, 61, 68
3, 15360, Note_on_c, 0, 65, 68
3, 15360, Note_on_c, 0, 68, 68
3, 15407, Note_on_c, 0, 68, 0
3, 15407, Note_on_c, 0, 65, 0
3, 15407, Note_on_c, 0, 61, 0
3, 15600, Note_on_c, 0, 65, 68
3, 15600, Note_on_c, 0, 68, 68
3, 15840, Note_on_c, 0, 68, 0
3, 15840, Note_on_c, 0, 65, 0
3, 15840, Note_on_c, 0, 65, 68
3, 15840, Note_on_c, 0, 68, 68
3, 16080, Note_on_c, 0, 68, 0
3, 16080, Note_on_c, 0, 65, 0
3, 16080, Note_on_c, 0, 68, 68
3, 16080, Note_on_c, 0, 73, 68
3, 16320, Note_on_c, 0, 73, 0
3, 16320, Note_on_c, 0, 68, 0
3, 16320, Note_on_c, 0, 68, 68
3, 16320, Note_on_c, 0, 73, 68
3, 16800, Note_on_c, 0, 73, 0
3, 16800, Note_on_c, 0, 68, 0
3, 16800, Note_on_c, 0, 68, 68
3, 16800, Note_on_c, 0, 73, 68
3, 17280, Note_on_c, 0, 73, 0
3, 17280, Note_on_c, 0, 68, 0
3, 17280, Note_on_c, 0, 68, 68
3, 17760, Note_on_c, 0, 68, 0
3, 17760, Note_on_c, 0, 63, 68
3, 17760, Note_on_c, 0, 68, 68
3, 18000, Note_on_c, 0, 68, 0
3, 18000, Note_on_c, 0, 63, 0
3, 18000, Note_on_c, 0, 63, 68
3, 18000, Note_on_c, 0, 68, 68
3, 18240, Note_on_c, 0, 68, 0
3, 18240, Note_on_c, 0, 63, 0
3, 18240, Note_on_c, 0, 61, 68
3, 18240, Note_on_c, 0, 68, 68
3, 18480, Note_on_c, 0, 68, 0
3, 18480, Note_on_c, 0, 61, 0
3, 18480, Note_on_c, 0, 61, 68
3, 18480, Note_on_c, 0, 65, 68
3, 18720, Note_on_c, 0, 65, 0
3, 18720, Note_on_c, 0, 61, 0
3, 18720, Note_on_c, 0, 61, 68
3, 18720, Note_on_c, 0, 65, 68
3, 18816, Note_on_c, 0, 65, 0
3, 18816, Note_on_c, 0, 61, 0
3, 19200, Note_on_c, 0, 61, 68
3, 19200, Note_on_c, 0, 65, 68
3, 19200, Note_on_c, 0, 68, 68
3, 19247, Note_on_c, 0, 68, 0
3, 19247, Note_on_c, 0, 65, 0
3, 19247, Note_on_c, 0, 61, 0
3, 19440, Note_on_c, 0, 65, 68
3, 19440, Note_on_c, 0, 68, 68
3, 19680, Note_on_c, 0, 68, 0
3, 19680, Note_on_c, 0, 65, 0
3, 19680, Note_on_c, 0, 65, 68
3, 19680, Note_on_c, 0, 68, 68
3, 19920, Note_on_c, 0, 68, 0
3, 19920, Note_on_c, 0, 65, 0
3, 19920, Note_on_c, 0, 68, 68
3, 19920, Note_on_c, 0, 73, 68
3, 20160, Note_on_c, 0, 73, 0
3, 20160, Note_on_c, 0, 68, 0
3, 20160, Note_on_c, 0, 68, 68
3, 20160, Note_on_c, 0, 73, 68
3, 20640, Note_on_c, 0, 73, 0
3, 20640, Note_on_c, 0, 68, 0
3, 20640, Note_on_c, 0, 68, 68
3, 20640, Note_on_c, 0, 73, 68
3, 21120, Note_on_c, 0, 73, 0
3, 21120, Note_on_c, 0, 68, 0
3, 21120, Note_on_c, 0, 63, 68
3, 21120, Note_on_c, 0, 68, 68
3, 21600, Note_on_c, 0, 68, 0
3, 21600, Note_on_c, 0, 63, 0
3, 21600, Note_on_c, 0, 63, 68
3, 21600, Note_on_c, 0, 68, 68
3, 21840, Note_on_c, 0, 68, 0
3, 21840, Note_on_c, 0, 63, 0
3, 21840, Note_on_c, 0, 63, 68
3, 21840, Note_on_c, 0, 68, 68
3, 22080, Note_on_c, 0, 68, 0
3, 22080, Note_on_c, 0, 63, 0
3, 22080, Note_on_c, 0, 61, 68
3, 22080, Note_on_c, 0, 68, 68
3, 22560, Note_on_c, 0, 68, 0
3, 22560, Note_on_c, 0, 61, 0
3, 22560, Note_on_c, 0, 61, 68
3, 22560, Note_on_c, 0, 65, 68
3, 22560, Note_on_c, 0, 68, 68
3, 22607, Note_on_c, 0, 68, 0
3, 22607, Note_on_c, 0, 65, 0
3, 22607, Note_on_c, 0, 61, 0
3, 23040, Note_on_c, 0, 61, 68
3, 23040, Note_on_c, 0, 65, 68
3, 23040, Note_on_c, 0, 68, 68
3, 23087, Note_on_c, 0, 68, 0
3, 23087, Note_on_c, 0, 65, 0
3, 23087, Note_on_c, 0, 61, 0
3, 23280, Note_on_c, 0, 65, 68
3, 23280, Note_on_c, 0, 68, 68
3, 23520, Note_on_c, 0, 68, 0
3, 23520, Note_on_c, 0, 65, 0
3, 23520, Note_on_c, 0, 65, 68
3, 23520, Note_on_c, 0, 68, 68
3, 23760, Note_on_c, 0, 68, 0
3, 23760, Note_on_c, 0, 65, 0
3, 23760, Note_on_c, 0, 68, 68
3, 23760, Note_on_c, 0, 73, 68
3, 24000, Note_on_c, 0, 73, 0
3, 24000, Note_on_c, 0, 68, 0
3, 24000, Note_on_c, 0, 68, 68
3, 24000, Note_on_c, 0, 73, 68
3, 24480, Note_on_c, 0, 73, 0
3, 24480, Note_on_c, 0, 68, 0
3, 24480, Note_on_c, 0, 68, 68
3, 24480, Note_on_c, 0, 73, 68
3, 24960, Note_on_c, 0, 73, 0
3, 24960, Note_on_c, 0, 68, 0
3, 24960, Note_on_c, 0, 68, 68
3, 25440, Note_on_c, 0, 68, 0
3, 25440, Note_on_c, 0, 63, 68
3, 25440, Note_on_c, 0, 68, 68
3, 25680, Note_on_c, 0, 68, 0
3, 25680, Note_on_c, 0, 63, 0
3, 25680, Note_on_c, 0, 63, 68
3, 25680, Note_on_c, 0, 68, 68
3, 25920, Note_on_c, 0, 68, 0
3, 25920, Note_on_c, 0, 63, 0
3, 25920, Note_on_c, 0, 61, 68
3, 25920, Note_on_c, 0, 68, 68
3, 26160, Note_on_c, 0, 68, 0
3, 26160, Note_on_c, 0, 61, 0
3, 26160, Note_on_c, 0, 61, 68
3, 26160, Note_on_c, 0, 65, 68
3, 26400, Note_on_c, 0, 65, 0
3, 26400, Note_on_c, 0, 61, 0
3, 26400, Note_on_c, 0, 61, 68
3, 26400, Note_on_c, 0, 65, 68
3, 26496, Note_on_c, 0, 65, 0
3, 26496, Note_on_c, 0, 61, 0
3, 26880, Note_on_c, 0, 61, 68
3, 26880, Note_on_c, 0, 65, 68
3, 26880, Note_on_c, 0, 68, 68
3, 26927, Note_on_c, 0, 68, 0
3, 26927, Note_on_c, 0, 65, 0
3, 26927, Note_on_c, 0, 61, 0
3, 27120, Note_on_c, 0, 65, 68
3, 27120, Note_on_c, 0, 68, 68
3, 27360, Note_on_c, 0, 68, 0
3, 27360, Note_on_c, 0, 65, 0
3, 27360, Note_on_c, 0, 65, 68
3, 27360, Note_on_c, 0, 68, 68
3, 27600, Note_on_c, 0, 68, 0
3, 27600, Note_on_c, 0, 65, 0
3, 27600, Note_on_c, 0, 68, 68
3, 27600, Note_on_c, 0, 73, 68
3, 27840, Note_on_c, 0, 73, 0
3, 27840, Note_on_c, 0, 68, 0
3, 27840, Note_on_c, 0, 68, 68
3, 27840, Note_on_c, 0, 73, 68
3, 28320, Note_on_c, 0, 73, 0
3, 28320, Note_on_c, 0, 68, 0
3, 28320, Note_on_c, 0, 68, 68
3, 28320, Note_on_c, 0, 73, 68
3, 28800, Note_on_c, 0, 73, 0
3, 28800, Note_on_c, 0, 68, 0
3, 28800, Note_on_c, 0, 63, 68
3, 28800, Note_on_c, 0, 68, 68
3, 29280, Note_on_c, 0, 68, 0
3, 29280, Note_on_c, 0, 63, 0
3, 29280, Note_on_c, 0, 63, 68
3, 29280, Note_on_c, 0, 68, 68
3, 29520, Note_on_c, 0, 68, 0
3, 29520, Note_on_c, 0, 63, 0
3, 29520, Note_on_c, 0, 63, 68
3, 29520, Note_on_c, 0, 68, 68
3, 29760, Note_on_c, 0, 68, 0
3, 29760, Note_on_c, 0, 63, 0
3, 29760, Note_on_c, 0, 61, 68
3, 29760, Note_on_c, 0, 68, 68
3, 30240, Note_on_c, 0, 68, 0
3, 30240, Note_on_c, 0, 61, 0
3, 30240, Note_on_c, 0, 65, 68
3, 30240, Note_on_c, 0, 69, 68
3, 30240, Note_on_c, 0, 72, 68
3, 30240, Note_on_c, 0, 77, 68
3, 30336, Note_on_c, 0, 77, 0
3, 30336, Note_on_c, 0, 65, 0
3, 30336, Note_on_c, 0, 69, 0
3, 30336, Note_on_c, 0, 72, 0
3, 30720, Note_on_c, 0, 58, 55
3, 30720, Note_on_c, 0, 61, 55
3, 30720, Note_on_c, 0, 65, 55
3, 30960, Note_on_c, 0, 65, 0
3, 30960, Note_on_c, 0, 61, 0
3, 30960, Note_on_c, 0, 58, 0
3, 30960, Note_on_c, 0, 61, 55
3, 30960, Note_on_c, 0, 65, 55
3, 31200, Note_on_c, 0, 65, 0
3, 31200, Note_on_c, 0, 61, 0
3, 31200, Note_on_c, 0, 61, 55
3, 31200, Note_on_c, 0, 65, 55
3, 31440, Note_on_c, 0, 65, 0
3, 31440, Note_on_c, 0, 61, 0
3, 31440, Note_on_c, 0, 61, 55
3, 31440, Note_on_c, 0, 65, 55
3, 31680, Note_on_c, 0, 65, 0
3, 31680, Note_on_c, 0, 61, 0
3, 31680, Note_on_c, 0, 61, 55
3, 31680, Note_on_c, 0, 65, 55
3, 32160, Note_on_c, 0, 65, 0
3, 32160, Note_on_c, 0, 61, 0
3, 32640, Note_on_c, 0, 63, 55
3, 32640, Note_on_c, 0, 70, 55
3, 33600, Note_on_c, 0, 70, 0
3, 33600, Note_on_c, 0, 63, 0
3, 33600, Note_on_c, 0, 65, 55
3, 33600, Note_on_c, 0, 70, 55
3, 33840, Note_on_c, 0, 70, 0
3, 33840, Note_on_c, 0, 65, 0
3, 33840, Note_on_c, 0, 66, 55
3, 33840, Note_on_c, 0, 70, 55
3, 34080, Note_on_c, 0, 70, 0
3, 34080, Note_on_c, 0, 66, 0
3, 34080, Note_on_c, 0, 65, 55
3, 34560, Note_on_c, 0, 65, 0
3, 34800, Note_on_c, 0, 61, 55
3, 34800, Note_on_c, 0, 65, 55
3, 35040, Note_on_c, 0, 65, 0
3, 35040, Note_on_c, 0, 61, 0
3, 35040, Note_on_c, 0, 61, 55
3, 35040, Note_on_c, 0, 65, 55
3, 35280, Note_on_c, 0, 65, 0
3, 35280, Note_on_c, 0, 61, 0
3, 35280, Note_on_c, 0, 61, 55
3, 35280, Note_on_c, 0, 65, 55
3, 35520, Note_on_c, 0, 65, 0
3, 35520, Note_on_c, 0, 61, 0
3, 35520, Note_on_c, 0, 61, 55
3, 35520, Note_on_c, 0, 65, 55
3, 36000, Note_on_c, 0, 65, 0
3, 36000, Note_on_c, 0, 61, 0
3, 36000, Note_on_c, 0, 65, 55
3, 36000, Note_on_c, 0, 70, 55
3, 36480, Note_on_c, 0, 70, 0
3, 36480, Note_on_c, 0, 65, 0
3, 36480, Note_on_c, 0, 63, 55
3, 36480, Note_on_c, 0, 70, 55
3, 37440, Note_on_c, 0, 70, 0
3, 37440, Note_on_c, 0, 63, 0
3, 37440, Note_on_c, 0, 61, 55
3, 37440, Note_on_c, 0, 70, 55
3, 37920, Note_on_c, 0, 70, 0
3, 37920, Note_on_c, 0, 61, 0
3, 37920, Note_on_c, 0, 58, 55
3, 37920, Note_on_c, 0, 61, 55
3, 37920, Note_on_c, 0, 65, 55
3, 38400, Note_on_c, 0, 65, 0
3, 38400, Note_on_c, 0, 61, 0
3, 38400, Note_on_c, 0, 58, 0
3, 38400, Note_on_c, 0, 58, 55
3, 38400, Note_on_c, 0, 61, 55
3, 38400, Note_on_c, 0, 65, 55
3, 38640, Note_on_c, 0, 65, 0
3, 38640, Note_on_c, 0, 61, 0
3, 38640, Note_on_c, 0, 58, 0
3, 38640, Note_on_c, 0, 61, 55
3, 38640, Note_on_c, 0, 65, 55
3, 38880, Note_on_c, 0, 65, 0
3, 38880, Note_on_c, 0, 61, 0
3, 38880, Note_on_c, 0, 61, 55
3, 38880, Note_on_c, 0, 65, 55
3, 39120, Note_on_c, 0, 65, 0
3, 39120, Note_on_c, 0, 61, 0
3, 39120, Note_on_c, 0, 61, 55
3, 39120, Note_on_c, 0, 65, 55
3, 39360, Note_on_c, 0, 65, 0
3, 39360, Note_on_c, 0, 61, 0
3, 39360, Note_on_c, 0, 61, 55
3, 39360, Note_on_c, 0, 65, 55
3, 39840, Note_on_c, 0, 65, 0
3, 39840, Note_on_c, 0, 61, 0
3, 40320, Note_on_c, 0, 63, 55
3, 40320, Note_on_c, 0, 70, 55
3, 41280, Note_on_c, 0, 70, 0
3, 41280, Note_on_c, 0, 63, 0
3, 41280, Note_on_c, 0, 65, 55
3, 41280, Note_on_c, 0, 70, 55
3, 41520, Note_on_c, 0, 70, 0
3, 41520, Note_on_c, 0, 65, 0
3, 41520, Note_on_c, 0, 66, 55
3, 41520, Note_on_c, 0, 70, 55
3, 41760, Note_on_c, 0, 70, 0
3, 41760, Note_on_c, 0, 66, 0
3, 41760, Note_on_c, 0, 65, 55
3, 42240, Note_on_c, 0, 65, 0
3, 42480, Note_on_c, 0, 61, 55
3, 42480, Note_on_c, 0, 65, 55
3, 42720, Note_on_c, 0, 65, 0
3, 42720, Note_on_c, 0, 61, 0
3, 42720, Note_on_c, 0, 61, 55
3, 42720, Note_on_c, 0, 65, 55
3, 42960, Note_on_c, 0, 65, 0
3, 42960, Note_on_c, 0, 61, 0
3, 42960, Note_on_c, 0, 61, 55
3, 42960, Note_on_c, 0, 65, 55
3, 43200, Note_on_c, 0, 65, 0
3, 43200, Note_on_c, 0, 61, 0
3, 43200, Note_on_c, 0, 61, 55
3, 43200, Note_on_c, 0, 65, 55
3, 43680, Note_on_c, 0, 65, 0
3, 43680, Note_on_c, 0, 61, 0
3, 43680, Note_on_c, 0, 65, 55
3, 43680, Note_on_c, 0, 70, 55
3, 44160, Note_on_c, 0, 70, 0
3, 44160, Note_on_c, 0, 65, 0
3, 44160, Note_on_c, 0, 63, 55
3, 44160, Note_on_c, 0, 70, 55
3, 45120, Note_on_c, 0, 70, 0
3, 45120, Note_on_c, 0, 63, 0
3, 45120, Note_on_c, 0, 61, 55
3, 45120, Note_on_c, 0, 70, 55
3, 45600, Note_on_c, 0, 70, 0
3, 45600, Note_on_c, 0, 61, 0
3, 45600, Note_on_c, 0, 70, 55
3, 45600, Note_on_c, 0, 73, 55
3, 45600, Note_on_c, 0, 77, 55
3, 45600, Note_on_c, 0, 82, 55
3, 46080, Note_on_c, 0, 82, 0
3, 46080, Note_on_c, 0, 70, 0
3, 46080, Note_on_c, 0, 73, 0
3, 46080, Note_on_c, 0, 77, 0
3, 47040, Note_on_c, 0, 65, 55
3, 47136, Note_on_c, 0, 65, 0
3, 47520, Note_on_c, 0, 65, 55
3, 47616, Note_on_c, 0, 65, 0
3, 48960, Note_on_c, 0, 67, 55
3, 49056, Note_on_c, 0, 67, 0
3, 49440, Note_on_c, 0, 67, 55
3, 49536, Note_on_c, 0, 67, 0
3, 50880, Note_on_c, 0, 66, 55
3, 50976, Note_on_c, 0, 66, 0
3, 51360, Note_on_c, 0, 66, 55
3, 51456, Note_on_c, 0, 66, 0
3, 54720, Note_on_c, 0, 65, 55
3, 54816, Note_on_c, 0, 65, 0
3, 55200, Note_on_c, 0, 65, 55
3, 55296, Note_on_c, 0, 65, 0
3, 56640, Note_on_c, 0, 67, 55
3, 56736, Note_on_c, 0, 67, 0
3, 57120, Note_on_c, 0, 67, 55
3, 57216, Note_on_c, 0, 67, 0
3, 58560, Note_on_c, 0, 66, 55
3, 58656, Note_on_c, 0, 66, 0
3, 59040, Note_on_c, 0, 66, 55
3, 59136, Note_on_c, 0, 66, 0
3, 106320, Note_on_c, 0, 73, 68
3, 106343, Note_on_c, 0, 73, 0
3, 106440, Note_on_c, 0, 75, 68
3, 106463, Note_on_c, 0, 75, 0
3, 106560, Note_on_c, 0, 76, 68
3, 106607, Note_on_c, 0, 76, 0
3, 106800, Note_on_c, 0, 76, 68
3, 106847, Note_on_c, 0, 76, 0
3, 107040, Note_on_c, 0, 76, 68
3, 107087, Note_on_c, 0, 76, 0
3, 114000, Note_on_c, 0, 73, 68
3, 114023, Note_on_c, 0, 73, 0
3, 114120, Note_on_c, 0, 75, 68
3, 114143, Note_on_c, 0, 75, 0
3, 114240, Note_on_c, 0, 77, 68
3, 114287, Note_on_c, 0, 77, 0
3, 114480, Note_on_c, 0, 77, 68
3, 114527, Note_on_c, 0, 77, 0
3, 114720, Note_on_c, 0, 77, 68
3, 114767, Note_on_c, 0, 77, 0
3, 114960, Note_on_c, 0, 65, 68
3, 114960, Note_on_c, 0, 77, 68
3, 115080, Note_on_c, 0, 77, 0
3, 115080, Note_on_c, 0, 65, 0
3, 115080, Note_on_c, 0, 66, 68
3, 115080, Note_on_c, 0, 78, 68
3, 115200, Note_on_c, 0, 78, 0
3, 115200, Note_on_c, 0, 66, 0
3, 130800, Note_on_c, 0, 61, 55
3, 130800, Note_on_c, 0, 65, 55
3, 131040, Note_on_c, 0, 65, 0
3, 131040, Note_on_c, 0, 61, 0
3, 131040, Note_on_c, 0, 61, 55
3, 131040, Note_on_c, 0, 65, 55
3, 131280, Note_on_c, 0, 65, 0
3, 131280, Note_on_c, 0, 61, 0
3, 131280, Note_on_c, 0, 61, 55
3, 131280, Note_on_c, 0, 65, 55
3, 131520, Note_on_c, 0, 65, 0
3, 131520, Note_on_c, 0, 61, 0
3, 131520, Note_on_c, 0, 61, 55
3, 131520, Note_on_c, 0, 65, 55
3, 132000, Note_on_c, 0, 65, 0
3, 132000, Note_on_c, 0, 61, 0
3, 132000, Note_on_c, 0, 65, 55
3, 132000, Note_on_c, 0, 70, 55
3, 132480, Note_on_c, 0, 70, 0
3, 132480, Note_on_c, 0, 65, 0
3, 132480, Note_on_c, 0, 66, 55
3, 132480, Note_on_c, 0, 70, 55
3, 132960, Note_on_c, 0, 70, 0
3, 132960, Note_on_c, 0, 66, 0
3, 132960, Note_on_c, 0, 63, 55
3, 132960, Note_on_c, 0, 70, 55
3, 133200, Note_on_c, 0, 70, 0
3, 133200, Note_on_c, 0, 63, 0
3, 133200, Note_on_c, 0, 63, 55
3, 133200, Note_on_c, 0, 70, 55
3, 133440, Note_on_c, 0, 70, 0
3, 133440, Note_on_c, 0, 63, 0
3, 133440, Note_on_c, 0, 65, 55
3, 133440, Note_on_c, 0, 70, 55
3, 133680, Note_on_c, 0, 70, 0
3, 133680, Note_on_c, 0, 65, 0
3, 133680, Note_on_c, 0, 66, 55
3, 133680, Note_on_c, 0, 70, 55
3, 133920, Note_on_c, 0, 70, 0
3, 133920, Note_on_c, 0, 66, 0
3, 133920, Note_on_c, 0, 61, 55
3, 133920, Note_on_c, 0, 65, 55
3, 134016, Note_on_c, 0, 65, 0
3, 134016, Note_on_c, 0, 61, 0
3, 134400, Note_on_c, 0, 61, 55
3, 134400, Note_on_c, 0, 65, 55
3, 134447, Note_on_c, 0, 65, 0
3, 134447, Note_on_c, 0, 61, 0
3, 134640, Note_on_c, 0, 61, 55
3, 134640, Note_on_c, 0, 65, 55
3, 134880, Note_on_c, 0, 65, 0
3, 134880, Note_on_c, 0, 61, 0
3, 134880, Note_on_c, 0, 61, 55
3, 134880, Note_on_c, 0, 65, 55
3, 135120, Note_on_c, 0, 65, 0
3, 135120, Note_on_c, 0, 61, 0
3, 135120, Note_on_c, 0, 61, 55
3, 135120, Note_on_c, 0, 65, 55
3, 135360, Note_on_c, 0, 65, 0
3, 135360, Note_on_c, 0, 61, 0
3, 135360, Note_on_c, 0, 61, 55
3, 135360, Note_on_c, 0, 65, 55
3, 135840, Note_on_c, 0, 65, 0
3, 135840, Note_on_c, 0, 61, 0
3, 135840, Note_on_c, 0, 65, 55
3, 135840, Note_on_c, 0, 70, 55
3, 136320, Note_on_c, 0, 70, 0
3, 136320, Note_on_c, 0, 65, 0
3, 136320, Note_on_c, 0, 66, 55
3, 136320, Note_on_c, 0, 70, 55
3, 136800, Note_on_c, 0, 70, 0
3, 136800, Note_on_c, 0, 66, 0
3, 136800, Note_on_c, 0, 63, 55
3, 136800, Note_on_c, 0, 70, 55
3, 137040, Note_on_c, 0, 70, 0
3, 137040, Note_on_c, 0, 63, 0
3, 137040, Note_on_c, 0, 63, 55
3, 137040, Note_on_c, 0, 70, 55
3, 137280, Note_on_c, 0, 70, 0
3, 137280, Note_on_c, 0, 63, 0
3, 137280, Note_on_c, 0, 65, 55
3, 137280, Note_on_c, 0, 70, 55
3, 137760, Note_on_c, 0, 70, 0
3, 137760, Note_on_c, 0, 65, 0
3, 137760, Note_on_c, 0, 61, 55
3, 137760, Note_on_c, 0, 65, 55
3, 137807, Note_on_c, 0, 65, 0
3, 137807, Note_on_c, 0, 61, 0
3, 138240, Note_on_c, 0, 61, 55
3, 138240, Note_on_c, 0, 65, 55
3, 138287, Note_on_c, 0, 65, 0
3, 138287, Note_on_c, 0, 61, 0
3, 138480, Note_on_c, 0, 61, 55
3, 138480, Note_on_c, 0, 65, 55
3, 138720, Note_on_c, 0, 65, 0
3, 138720, Note_on_c, 0, 61, 0
3, 138720, Note_on_c, 0, 61, 55
3, 138720, Note_on_c, 0, 65, 55
3, 138960, Note_on_c, 0, 65, 0
3, 138960, Note_on_c, 0, 61, 0
3, 138960, Note_on_c, 0, 61, 55
3, 138960, Note_on_c, 0, 65, 55
3, 139200, Note_on_c, 0, 65, 0
3, 139200, Note_on_c, 0, 61, 0
3, 139200, Note_on_c, 0, 61, 55
3, 139200, Note_on_c, 0, 65, 55
3, 139680, Note_on_c, 0, 65, 0
3, 139680, Note_on_c, 0, 61, 0
3, 139680, Note_on_c, 0, 65, 55
3, 139680, Note_on_c, 0, 70, 55
3, 140160, Note_on_c, 0, 70, 0
3, 140160, Note_on_c, 0, 65, 0
3, 140160, Note_on_c, 0, 66, 55
3, 140160, Note_on_c, 0, 70, 55
3, 140640, Note_on_c, 0, 70, 0
3, 140640, Note_on_c, 0, 66, 0
3, 140640, Note_on_c, 0, 63, 55
3, 140640, Note_on_c, 0, 70, 55
3, 140880, Note_on_c, 0, 70, 0
3, 140880, Note_on_c, 0, 63, 0
3, 140880, Note_on_c, 0, 63, 55
3, 140880, Note_on_c, 0, 70, 55
3, 141120, Note_on_c, 0, 70, 0
3, 141120, Note_on_c, 0, 63, 0
3, 141120, Note_on_c, 0, 65, 55
3, 141120, Note_on_c, 0, 70, 55
3, 141360, Note_on_c, 0, 70, 0
3, 141360, Note_on_c, 0, 65, 0
3, 141360, Note_on_c, 0, 66, 55
3, 141360, Note_on_c, 0, 70, 55
3, 141600, Note_on_c, 0, 70, 0
3, 141600, Note_on_c, 0, 66, 0
3, 141600, Note_on_c, 0, 61, 55
3, 141600, Note_on_c, 0, 65, 55
3, 141696, Note_on_c, 0, 65, 0
3, 141696, Note_on_c, 0, 61, 0
3, 142080, Note_on_c, 0, 61, 55
3, 142080, Note_on_c, 0, 65, 55
3, 142127, Note_on_c, 0, 65, 0
3, 142127, Note_on_c, 0, 61, 0
3, 142320, Note_on_c, 0, 61, 55
3, 142320, Note_on_c, 0, 65, 55
3, 142560, Note_on_c, 0, 65, 0
3, 142560, Note_on_c, 0, 61, 0
3, 142560, Note_on_c, 0, 61, 55
3, 142560, Note_on_c, 0, 65, 55
3, 142800, Note_on_c, 0, 65, 0
3, 142800, Note_on_c, 0, 61, 0
3, 142800, Note_on_c, 0, 61, 55
3, 142800, Note_on_c, 0, 65, 55
3, 143040, Note_on_c, 0, 65, 0
3, 143040, Note_on_c, 0, 61, 0
3, 143040, Note_on_c, 0, 61, 55
3, 143040, Note_on_c, 0, 65, 55
3, 143520, Note_on_c, 0, 65, 0
3, 143520, Note_on_c, 0, 61, 0
3, 143520, Note_on_c, 0, 65, 55
3, 143520, Note_on_c, 0, 70, 55
3, 144000, Note_on_c, 0, 70, 0
3, 144000, Note_on_c, 0, 65, 0
3, 144000, Note_on_c, 0, 66, 55
3, 144000, Note_on_c, 0, 70, 55
3, 144480, Note_on_c, 0, 70, 0
3, 144480, Note_on_c, 0, 66, 0
3, 144480, Note_on_c, 0, 63, 55
3, 144480, Note_on_c, 0, 70, 55
3, 144720, Note_on_c, 0, 70, 0
3, 144720, Note_on_c, 0, 63, 0
3, 144720, Note_on_c, 0, 63, 55
3, 144720, Note_on_c, 0, 70, 55
3, 144960, Note_on_c, 0, 70, 0
3, 144960, Note_on_c, 0, 63, 0
3, 144960, Note_on_c, 0, 65, 55
3, 144960, Note_on_c, 0, 70, 55
3, 145440, Note_on_c, 0, 70, 0
3, 145440, Note_on_c, 0, 65, 0
3, 145440, Note_on_c, 0, 61, 55
3, 145440, Note_on_c, 0, 65, 55
3, 145487, Note_on_c, 0, 65, 0
3, 145487, Note_on_c, 0, 61, 0
3, 145920, Note_on_c, 0, 61, 68
3, 145920, Note_on_c, 0, 65, 68
3, 145920, Note_on_c, 0, 68, 68
3, 145967, Note_on_c, 0, 68, 0
3, 145967, Note_on_c, 0, 65, 0
3, 145967, Note_on_c, 0, 61, 0
3, 146160, Note_on_c, 0, 65, 68
3, 146160, Note_on_c, 0, 68, 68
3, 146400, Note_on_c, 0, 68, 0
3, 146400, Note_on_c, 0, 65, 0
3, 146400, Note_on_c, 0, 65, 68
3, 146400, Note_on_c, 0, 68, 68
3, 146640, Note_on_c, 0, 68, 0
3, 146640, Note_on_c, 0, 65, 0
3, 146640, Note_on_c, 0, 68, 68
3, 146640, Note_on_c, 0, 73, 68
3, 146880, Note_on_c, 0, 73, 0
3, 146880, Note_on_c, 0, 68, 0
3, 146880, Note_on_c, 0, 68, 68
3, 146880, Note_on_c, 0, 73, 68
3, 147360, Note_on_c, 0, 73, 0
3, 147360, Note_on_c, 0, 68, 0
3, 147360, Note_on_c, 0, 68, 68
3, 147360, Note_on_c, 0, 73, 68
3, 147840, Note_on_c, 0, 73, 0
3, 147840, Note_on_c, 0, 68, 0
3, 147840, Note_on_c, 0, 68, 68
3, 148320, Note_on_c, 0, 68, 0
3, 148320, Note_on_c, 0, 63, 68
3, 148320, Note_on_c, 0, 68, 68
3, 148560, Note_on_c, 0, 68, 0
3, 148560, Note_on_c, 0, 63, 0
3, 148560, Note_on_c, 0, 63, 68
3, 148560, Note_on_c, 0, 68, 68
3, 148800, Note_on_c, 0, 68, 0
3, 148800, Note_on_c, 0, 63, 0
3, 148800, Note_on_c, 0, 61, 68
3, 148800, Note_on_c, 0, 68, 68
3, 149040, Note_on_c, 0, 68, 0
3, 149040, Note_on_c, 0, 61, 0
3, 149040, Note_on_c, 0, 61, 68
3, 149040, Note_on_c, 0, 65, 68
3, 149280, Note_on_c, 0, 65, 0
3, 149280, Note_on_c, 0, 61, 0
3, 149280, Note_on_c, 0, 61, 68
3, 149280, Note_on_c, 0, 65, 68
3, 149376, Note_on_c, 0, 65, 0
3, 149376, Note_on_c, 0, 61, 0
3, 149760, Note_on_c, 0, 61, 68
3, 149760, Note_on_c, 0, 65, 68
3, 149760, Note_on_c, 0, 68, 68
3, 149807, Note_on_c, 0, 68, 0
3, 149807, Note_on_c, 0, 65, 0
3, 149807, Note_on_c, 0, 61, 0
3, 150000, Note_on_c, 0, 65, 68
3, 150000, Note_on_c, 0, 68, 68
3, 150240, Note_on_c, 0, 68, 0
3, 150240, Note_on_c, 0, 65, 0
3, 150240, Note_on_c, 0, 65, 68
3, 150240, Note_on_c, 0, 68, 68
3, 150480, Note_on_c, 0, 68, 0
3, 150480, Note_on_c, 0, 65, 0
3, 150480, Note_on_c, 0, 68, 68
3, 150480, Note_on_c, 0, 73, 68
3, 150720, Note_on_c, 0, 73, 0
3, 150720, Note_on_c, 0, 68, 0
3, 150720, Note_on_c, 0, 68, 68
3, 150720, Note_on_c, 0, 73, 68
3, 151200, Note_on_c, 0, 73, 0
3, 151200, Note_on_c, 0, 68, 0
3, 151200, Note_on_c, 0, 68, 68
3, 151200, Note_on_c, 0, 73, 68
3, 151680, Note_on_c, 0, 73, 0
3, 151680, Note_on_c, 0, 68, 0
3, 151680, Note_on_c, 0, 63, 68
3, 151680, Note_on_c, 0, 68, 68
3, 152160, Note_on_c, 0, 68, 0
3, 152160, Note_on_c, 0, 63, 0
3, 152160, Note_on_c, 0, 63, 68
3, 152160, Note_on_c, 0, 68, 68
3, 152400, Note_on_c, 0, 68, 0
3, 152400, Note_on_c, 0, 63, 0
3, 152400, Note_on_c, 0, 63, 68
3, 152400, Note_on_c, 0, 68, 68
3, 152640, Note_on_c, 0, 68, 0
3, 152640, Note_on_c, 0, 63, 0
3, 152640, Note_on_c, 0, 61, 68
3, 152640, Note_on_c, 0, 68, 68
3, 153120, Note_on_c, 0, 68, 0
3, 153120, Note_on_c, 0, 61, 0
3, 153120, Note_on_c, 0, 61, 68
3, 153120, Note_on_c, 0, 65, 68
3, 153120, Note_on_c, 0, 68, 68
3, 153167, Note_on_c, 0, 68, 0
3, 153167, Note_on_c, 0, 65, 0
3, 153167, Note_on_c, 0, 61, 0
3, 153600, Note_on_c, 0, 61, 68
3, 153600, Note_on_c, 0, 65, 68
3, 153600, Note_on_c, 0, 68, 68
3, 153647, Note_on_c, 0, 68, 0
3, 153647, Note_on_c, 0, 65, 0
3, 153647, Note_on_c, 0, 61, 0
3, 153840, Note_on_c, 0, 65, 68
3, 153840, Note_on_c, 0, 68, 68
3, 154080, Note_on_c, 0, 68, 0
3, 154080, Note_on_c, 0, 65, 0
3, 154080, Note_on_c, 0, 65, 68
3, 154080, Note_on_c, 0, 68, 68
3, 154320, Note_on_c, 0, 68, 0
3, 154320, Note_on_c, 0, 65, 0
3, 154320, Note_on_c, 0, 68, 68
3, 154320, Note_on_c, 0, 73, 68
3, 154560, Note_on_c, 0, 73, 0
3, 154560, Note_on_c, 0, 68, 0
3, 154560, Note_on_c, 0, 68, 68
3, 154560, Note_on_c, 0, 73, 68
3, 155040, Note_on_c, 0, 73, 0
3, 155040, Note_on_c, 0, 68, 0
3, 155040, Note_on_c, 0, 68, 68
3, 155040, Note_on_c, 0, 73, 68
3, 155520, Note_on_c, 0, 73, 0
3, 155520, Note_on_c, 0, 68, 0
3, 155520, Note_on_c, 0, 68, 68
3, 156000, Note_on_c, 0, 68, 0
3, 156000, Note_on_c, 0, 63, 68
3, 156000, Note_on_c, 0, 68, 68
3, 156240, Note_on_c, 0, 68, 0
3, 156240, Note_on_c, 0, 63, 0
3, 156240, Note_on_c, 0, 63, 68
3, 156240, Note_on_c, 0, 68, 68
3, 156480, Note_on_c, 0, 68, 0
3, 156480, Note_on_c, 0, 63, 0
3, 156480, Note_on_c, 0, 61, 68
3, 156480, Note_on_c, 0, 68, 68
3, 156720, Note_on_c, 0, 68, 0
3, 156720, Note_on_c, 0, 61, 0
3, 156720, Note_on_c, 0, 61, 68
3, 156720, Note_on_c, 0, 65, 68
3, 156960, Note_on_c, 0, 65, 0
3, 156960, Note_on_c, 0, 61, 0
3, 156960, Note_on_c, 0, 61, 68
3, 156960, Note_on_c, 0, 65, 68
3, 157056, Note_on_c, 0, 65, 0
3, 157056, Note_on_c, 0, 61, 0
3, 157440, Note_on_c, 0, 61, 68
3, 157440, Note_on_c, 0, 65, 68
3, 157440, Note_on_c, 0, 68, 68
3, 157487, Note_on_c, 0, 68, 0
3, 157487, Note_on_c, 0, 65, 0
3, 157487, Note_on_c, 0, 61, 0
3, 157680, Note_on_c, 0, 65, 68
3, 157680, Note_on_c, 0, 68, 68
3, 157920, Note_on_c, 0, 68, 0
3, 157920, Note_on_c, 0, 65, 0
3, 157920, Note_on_c, 0, 65, 68
3, 157920, Note_on_c, 0, 68, 68
3, 158160, Note_on_c, 0, 68, 0
3, 158160, Note_on_c, 0, 65, 0
3, 158160, Note_on_c, 0, 68, 68
3, 158160, Note_on_c, 0, 73, 68
3, 158400, Note_on_c, 0, 73, 0
3, 158400, Note_on_c, 0, 68, 0
3, 158400, Note_on_c, 0, 68, 68
3, 158400, Note_on_c, 0, 73, 68
3, 158880, Note_on_c, 0, 73, 0
3, 158880, Note_on_c, 0, 68, 0
3, 158880, Note_on_c, 0, 68, 68
3, 158880, Note_on_c, 0, 73, 68
3, 159360, Note_on_c, 0, 73, 0
3, 159360, Note_on_c, 0, 68, 0
3, 159360, Note_on_c, 0, 63, 68
3, 159360, Note_on_c, 0, 68, 68
3, 159840, Note_on_c, 0, 68, 0
3, 159840, Note_on_c, 0, 63, 0
3, 159840, Note_on_c, 0, 63, 68
3, 159840, Note_on_c, 0, 68, 68
3, 160080, Note_on_c, 0, 68, 0
3, 160080, Note_on_c, 0, 63, 0
3, 160080, Note_on_c, 0, 63, 68
3, 160080, Note_on_c, 0, 68, 68
3, 160320, Note_on_c, 0, 68, 0
3, 160320, Note_on_c, 0, 63, 0
3, 160320, Note_on_c, 0, 61, 68
3, 160320, Note_on_c, 0, 68, 68
3, 160800, Note_on_c, 0, 68, 0
3, 160800, Note_on_c, 0, 61, 0
3, 160800, Note_on_c, 0, 65, 68
3, 160800, Note_on_c, 0, 69, 68
3, 160800, Note_on_c, 0, 72, 68
3, 160800, Note_on_c, 0, 77, 68
3, 161280, Note_on_c, 0, 77, 0
3, 161280, Note_on_c, 0, 65, 0
3, 161280, Note_on_c, 0, 69, 0
3, 161280, Note_on_c, 0, 72, 0
3, 161280, Note_on_c, 0, 58, 55
3, 161280, Note_on_c, 0, 61, 55
3, 161280, Note_on_c, 0, 65, 55
3, 161520, Note_on_c, 0, 65, 0
3, 161520, Note_on_c, 0, 61, 0
3, 161520, Note_on_c, 0, 58, 0
3, 161520, Note_on_c, 0, 61, 55
3, 161520, Note_on_c, 0, 65, 55
3, 161760, Note_on_c, 0, 65, 0
3, 161760, Note_on_c, 0, 61, 0
3, 161760, Note_on_c, 0, 61, 55
3, 161760, Note_on_c, 0, 65, 55
3, 162000, Note_on_c, 0, 65, 0
3, 162000, Note_on_c, 0, 61, 0
3, 162000, Note_on_c, 0, 61, 55
3, 162000, Note_on_c, 0, 65, 55
3, 162240, Note_on_c, 0, 65, 0
3, 162240, Note_on_c, 0, 61, 0
3, 162240, Note_on_c, 0, 61, 55
3, 162240, Note_on_c, 0, 65, 55
3, 162720, Note_on_c, 0, 65, 0
3, 162720, Note_on_c, 0, 61, 0
3, 163200, Note_on_c, 0, 63, 55
3, 163200, Note_on_c, 0, 70, 55
3, 164160, Note_on_c, 0, 70, 0
3, 164160, Note_on_c, 0, 63, 0
3, 164160, Note_on_c, 0, 65, 55
3, 164160, Note_on_c, 0, 70, 55
3, 164400, Note_on_c, 0, 70, 0
3, 164400, Note_on_c, 0, 65, 0
3, 164400, Note_on_c, 0, 66, 55
3, 164400, Note_on_c, 0, 70, 55
3, 164640, Note_on_c, 0, 70, 0
3, 164640, Note_on_c, 0, 66, 0
3, 164640, Note_on_c, 0, 65, 55
3, 165120, Note_on_c, 0, 65, 0
3, 165360, Note_on_c, 0, 61, 55
3, 165360, Note_on_c, 0, 65, 55
3, 165600, Note_on_c, 0, 65, 0
3, 165600, Note_on_c, 0, 61, 0
3, 165600, Note_on_c, 0, 61, 55
3, 165600, Note_on_c, 0, 65, 55
3, 165840, Note_on_c, 0, 65, 0
3, 165840, Note_on_c, 0, 61, 0
3, 165840, Note_on_c, 0, 61, 55
3, 165840, Note_on_c, 0, 65, 55
3, 166080, Note_on_c, 0, 65, 0
3, 166080, Note_on_c, 0, 61, 0
3, 166080, Note_on_c, 0, 61, 55
3, 166080, Note_on_c, 0, 65, 55
3, 166560, Note_on_c, 0, 65, 0
3, 166560, Note_on_c, 0, 61, 0
3, 166560, Note_on_c, 0, 65, 55
3, 166560, Note_on_c, 0, 70, 55
3, 167040, Note_on_c, 0, 70, 0
3, 167040, Note_on_c, 0, 65, 0
3, 167040, Note_on_c, 0, 63, 55
3, 167040, Note_on_c, 0, 70, 55
3, 168000, Note_on_c, 0, 70, 0
3, 168000, Note_on_c, 0, 63, 0
3, 168000, Note_on_c, 0, 61, 55
3, 168000, Note_on_c, 0, 70, 55
3, 168480, Note_on_c, 0, 70, 0
3, 168480, Note_on_c, 0, 61, 0
3, 168480, Note_on_c, 0, 58, 55
3, 168480, Note_on_c, 0, 61, 55
3, 168480, Note_on_c, 0, 65, 55
3, 168960, Note_on_c, 0, 65, 0
3, 168960, Note_on_c, 0, 61, 0
3, 168960, Note_on_c, 0, 58, 0
3, 168960, Note_on_c, 0, 58, 55
3, 168960, Note_on_c, 0, 61, 55
3, 168960, Note_on_c, 0, 65, 55
3, 169200, Note_on_c, 0, 65, 0
3, 169200, Note_on_c, 0, 61, 0
3, 169200, Note_on_c, 0, 58, 0
3, 169200, Note_on_c, 0, 61, 55
3, 169200, Note_on_c, 0, 65, 55
3, 169440, Note_on_c, 0, 65, 0
3, 169440, Note_on_c, 0, 61, 0
3, 169440, Note_on_c, 0, 61, 55
3, 169440, Note_on_c, 0, 65, 55
3, 169680, Note_on_c, 0, 65, 0
3, 169680, Note_on_c, 0, 61, 0
3, 169680, Note_on_c, 0, 61, 55
3, 169680, Note_on_c, 0, 65, 55
3, 169920, Note_on_c, 0, 65, 0
3, 169920, Note_on_c, 0, 61, 0
3, 169920, Note_on_c, 0, 61, 55
3, 169920, Note_on_c, 0, 65, 55
3, 170400, Note_on_c, 0, 65, 0
3, 170400, Note_on_c, 0, 61, 0
3, 170880, Note_on_c, 0, 63, 55
3, 170880, Note_on_c, 0, 70, 55
3, 171840, Note_on_c, 0, 70, 0
3, 171840, Note_on_c, 0, 63, 0
3, 171840, Note_on_c, 0, 65, 55
3, 171840, Note_on_c, 0, 70, 55
3, 172080, Note_on_c, 0, 70, 0
3, 172080, Note_on_c, 0, 65, 0
3, 172080, Note_on_c, 0, 66, 55
3, 172080, Note_on_c, 0, 70, 55
3, 172320, Note_on_c, 0, 70, 0
3, 172320, Note_on_c, 0, 66, 0
3, 172320, Note_on_c, 0, 65, 55
3, 172800, Note_on_c, 0, 65, 0
3, 173040, Note_on_c, 0, 61, 55
3, 173040, Note_on_c, 0, 65, 55
3, 173280, Note_on_c, 0, 65, 0
3, 173280, Note_on_c, 0, 61, 0
3, 173280, Note_on_c, 0, 61, 55
3, 173280, Note_on_c, 0, 65, 55
3, 173520, Note_on_c, 0, 65, 0
3, 173520, Note_on_c, 0, 61, 0
3, 173520, Note_on_c, 0, 61, 55
3, 173520, Note_on_c, 0, 65, 55
3, 173760, Note_on_c, 0, 65, 0
3, 173760, Note_on_c, 0, 61, 0
3, 173760, Note_on_c, 0, 61, 55
3, 173760, Note_on_c, 0, 65, 55
3, 174240, Note_on_c, 0, 65, 0
3, 174240, Note_on_c, 0, 61, 0
3, 174240, Note_on_c, 0, 65, 55
3, 174240, Note_on_c, 0, 70, 55
3, 174720, Note_on_c, 0, 70, 0
3, 174720, Note_on_c, 0, 65, 0
3, 174720, Note_on_c, 0, 63, 55
3, 174720, Note_on_c, 0, 70, 55
3, 175680, Note_on_c, 0, 70, 0
3, 175680, Note_on_c, 0, 63, 0
3, 175680, Note_on_c, 0, 61, 55
3, 175680, Note_on_c, 0, 70, 55
3, 176160, Note_on_c, 0, 70, 0
3, 176160, Note_on_c, 0, 61, 0
3, 176160, Note_on_c, 0, 70, 55
3, 176160, Note_on_c, 0, 73, 55
3, 176160, Note_on_c, 0, 77, 55
3, 176160, Note_on_c, 0, 82, 55
3, 176640, Note_on_c, 0, 82, 0
3, 176640, Note_on_c, 0, 70, 0
3, 176640, Note_on_c, 0, 73, 0
3, 176640, Note_on_c, 0, 77, 0
3, 178560, Note_on_c, 0, 70, 55
3, 178560, Note_on_c, 0, 75, 55
3, 178560, Note_on_c, 0, 78, 55
3, 179520, Note_on_c, 0, 78, 0
3, 179520, Note_on_c, 0, 75, 0
3, 179520, Note_on_c, 0, 70, 0
3, 179520, Note_on_c, 0, 66, 55
3, 179520, Note_on_c, 0, 70, 55
3, 180480, Note_on_c, 0, 70, 0
3, 180480, Note_on_c, 0, 66, 0
3, 182400, Note_on_c, 0, 61, 81
3, 182640, Note_on_c, 0, 61, 0
3, 182640, Note_on_c, 0, 61, 81
3, 182880, Note_on_c, 0, 61, 0
3, 182880, Note_on_c, 0, 63, 81
3, 183120, Note_on_c, 0, 63, 0
3, 183120, Note_on_c, 0, 61, 81
3, 183360, Note_on_c, 0, 61, 0
3, 183360, Note_on_c, 0, 60, 81
3, 183840, Note_on_c, 0, 60, 0
3, 183840, Note_on_c, 0, 58, 81
3, 184320, Note_on_c, 0, 58, 0
3, 186240, Note_on_c, 0, 54, 81
3, 186480, Note_on_c, 0, 54, 0
3, 186480, Note_on_c, 0, 54, 81
3, 186720, Note_on_c, 0, 54, 0
3, 186720, Note_on_c, 0, 56, 81
3, 186960, Note_on_c, 0, 56, 0
3, 186960, Note_on_c, 0, 54, 81
3, 187200, Note_on_c, 0, 54, 0
3, 187200, Note_on_c, 0, 53, 81
3, 187680, Note_on_c, 0, 53, 0
3, 187680, Note_on_c, 0, 51, 81
3, 188160, Note_on_c, 0, 51, 0
3, 190080, Note_on_c, 0, 49, 81
3, 190320, Note_on_c, 0, 49, 0
3, 190320, Note_on_c, 0, 49, 81
3, 190560, Note_on_c, 0, 49, 0
3, 190560, Note_on_c, 0, 51, 81
3, 190800, Note_on_c, 0, 51, 0
3, 190800, Note_on_c, 0, 49, 81
3, 191040, Note_on_c, 0, 49, 0
3, 191040, Note_on_c, 0, 48, 81
3, 191520, Note_on_c, 0, 48, 0
3, 191520, Note_on_c, 0, 46, 81
3, 192000, Note_on_c, 0, 46, 0
3, 194400, Note_on_c, 0, 70, 55
3, 195360, Note_on_c, 0, 70, 0
3, 195360, Note_on_c, 0, 70, 55
3, 195840, Note_on_c, 0, 70, 0
3, 198240, Note_on_c, 0, 82, 55
3, 199200, Note_on_c, 0, 82, 0
3, 199200, Note_on_c, 0, 82, 55
3, 199680, Note_on_c, 0, 82, 0
3, 199680, End_track
4, 0, Start_track
4, 0, Title_t, "Grand Piano"
4, 0, Program_c, 0, 0
4, 0, Control_c, 0, 7, 115
4, 0, Control_c, 0, 10, 41
4, 0, Note_on_c, 0, 34, 54
4, 0, Note_on_c, 0, 46, 54
4, 47, Note_on_c, 0, 46, 0
4, 47, Note_on_c, 0, 34, 0
4, 240, Note_on_c, 0, 46, 54
4, 240, Note_on_c, 0, 53, 54
4, 240, Note_on_c, 0, 58, 54
4, 480, Note_on_c, 0, 58, 0
4, 480, Note_on_c, 0, 53, 0
4, 480, Note_on_c, 0, 46, 0
4, 480, Note_on_c, 0, 46, 54
4, 480, Note_on_c, 0, 53, 54
4, 480, Note_on_c, 0, 58, 54
4, 720, Note_on_c, 0, 58, 0
4, 720, Note_on_c, 0, 53, 0
4, 720, Note_on_c, 0, 46, 0
4, 720, Note_on_c, 0, 46, 54
4, 720, Note_on_c, 0, 53, 54
4, 720, Note_on_c, 0, 58, 54
4, 960, Note_on_c, 0, 58, 0
4, 960, Note_on_c, 0, 53, 0
4, 960, Note_on_c, 0, 46, 0
4, 960, Control_c, 0, 64, 127
4, 960, Note_on_c, 0, 46, 54
4, 960, Note_on_c, 0, 53, 54
4, 960, Note_on_c, 0, 58, 54
4, 1360, Note_on_c, 0, 46, 54
4, 1400, Note_on_c, 0, 53, 54
4, 1440, Note_on_c, 0, 58, 0
4, 1440, Note_on_c, 0, 46, 0
4, 1440, Note_on_c, 0, 53, 0
4, 1440, Note_on_c, 0, 61, 54
4, 1920, Note_on_c, 0, 61, 0
4, 1920, Note_on_c, 0, 46, 0
4, 1920, Note_on_c, 0, 53, 0
4, 1920, Control_c, 0, 64, 0
4, 1920, Note_on_c, 0, 51, 54
4, 1920, Note_on_c, 0, 58, 54
4, 1920, Note_on_c, 0, 63, 54
4, 2400, Note_on_c, 0, 63, 0
4, 2400, Note_on_c, 0, 58, 0
4, 2400, Note_on_c, 0, 51, 0
4, 2400, Note_on_c, 0, 54, 54
4, 2400, Note_on_c, 0, 58, 54
4, 2640, Note_on_c, 0, 58, 0
4, 2640, Note_on_c, 0, 54, 0
4, 2640, Note_on_c, 0, 54, 54
4, 2640, Note_on_c, 0, 58, 54
4, 2880, Note_on_c, 0, 58, 0
4, 2880, Note_on_c, 0, 54, 0
4, 2880, Note_on_c, 0, 53, 54
4, 2880, Note_on_c, 0, 58, 54
4, 3120, Note_on_c, 0, 58, 0
4, 3120, Note_on_c, 0, 53, 0
4, 3120, Note_on_c, 0, 51, 54
4, 3120, Note_on_c, 0, 58, 54
4, 3120, Note_on_c, 0, 60, 54
4, 3360, Note_on_c, 0, 60, 0
4, 3360, Note_on_c, 0, 58, 0
4, 3360, Note_on_c, 0, 51, 0
4, 3360, Note_on_c, 0, 46, 54
4, 3360, Note_on_c, 0, 53, 54
4, 3360, Note_on_c, 0, 58, 54
4, 3456, Note_on_c, 0, 58, 0
4, 3456, Note_on_c, 0, 53, 0
4, 3456, Note_on_c, 0, 46, 0
4, 3840, Note_on_c, 0, 46, 54
4, 3840, Note_on_c, 0, 53, 54
4, 3840, Note_on_c, 0, 58, 54
4, 3887, Note_on_c, 0, 58, 0
4, 3887, Note_on_c, 0, 53, 0
4, 3887, Note_on_c, 0, 46, 0
4, 4080, Note_on_c, 0, 46, 54
4, 4080, Note_on_c, 0, 53, 54
4, 4080, Note_on_c, 0, 58, 54
4, 4320, Note_on_c, 0, 58, 0
4, 4320, Note_on_c, 0, 53, 0
4, 4320, Note_on_c, 0, 46, 0
4, 4320, Note_on_c, 0, 46, 54
4, 4320, Note_on_c, 0, 53, 54
4, 4320, Note_on_c, 0, 58, 54
4, 4560, Note_on_c, 0, 58, 0
4, 4560, Note_on_c, 0, 53, 0
4, 4560, Note_on_c, 0, 46, 0
4, 4560, Note_on_c, 0, 46, 54
4, 4560, Note_on_c, 0, 53, 54
4, 4560, Note_on_c, 0, 58, 54
4, 4800, Note_on_c, 0, 58, 0
4, 4800, Note_on_c, 0, 53, 0
4, 4800, Note_on_c, 0, 46, 0
4, 4800, Note_on_c, 0, 46, 54
4, 4800, Note_on_c, 0, 53, 54
4, 4800, Note_on_c, 0, 58, 54
4, 5280, Note_on_c, 0, 58, 0
4, 5280, Note_on_c, 0, 53, 0
4, 5280, Note_on_c, 0, 46, 0
4, 5280, Note_on_c, 0, 46, 54
4, 5280, Note_on_c, 0, 53, 54
4, 5280, Note_on_c, 0, 58, 54
4, 5760, Note_on_c, 0, 58, 0
4, 5760, Note_on_c, 0, 53, 0
4, 5760, Note_on_c, 0, 46, 0
4, 5760, Note_on_c, 0, 51, 54
4, 5760, Note_on_c, 0, 54, 54
4, 5760, Note_on_c, 0, 58, 54
4, 6240, Note_on_c, 0, 58, 0
4, 6240, Note_on_c, 0, 54, 0
4, 6240, Note_on_c, 0, 51, 0
4, 6240, Note_on_c, 0, 54, 54
4, 6240, Note_on_c, 0, 58, 54
4, 6480, Note_on_c, 0, 58, 0
4, 6480, Note_on_c, 0, 54, 0
4, 6480, Note_on_c, 0, 54, 54
4, 6480, Note_on_c, 0, 58, 54
4, 6720, Note_on_c, 0, 58, 0
4, 6720, Note_on_c, 0, 54, 0
4, 6720, Note_on_c, 0, 58, 54
4, 6720, Note_on_c, 0, 61, 54
4, 7200, Note_on_c, 0, 61, 0
4, 7200, Note_on_c, 0, 58, 0
4, 7200, Note_on_c, 0, 46, 54
4, 7200, Note_on_c, 0, 53, 54
4, 7200, Note_on_c, 0, 58, 54
4, 7247, Note_on_c, 0, 58, 0
4, 7247, Note_on_c, 0, 53, 0
4, 7247, Note_on_c, 0, 46, 0
4, 7680, Note_on_c, 0, 46, 54
4, 7680, Note_on_c, 0, 58, 54
4, 7727, Note_on_c, 0, 58, 0
4, 7727, Note_on_c, 0, 46, 0
4, 7920, Note_on_c, 0, 46, 54
4, 7920, Note_on_c, 0, 53, 54
4, 7920, Note_on_c, 0, 58, 54
4, 8160, Note_on_c, 0, 58, 0
4, 8160, Note_on_c, 0, 53, 0
4, 8160, Note_on_c, 0, 46, 0
4, 8160, Note_on_c, 0, 46, 54
4, 8160, Note_on_c, 0, 53, 54
4, 8160, Note_on_c, 0, 58, 54
4, 8400, Note_on_c, 0, 58, 0
4, 8400, Note_on_c, 0, 53, 0
4, 8400, Note_on_c, 0, 46, 0
4, 8400, Note_on_c, 0, 46, 54
4, 8400, Note_on_c, 0, 53, 54
4, 8400, Note_on_c, 0, 58, 54
4, 8640, Note_on_c, 0, 58, 0
4, 8640, Note_on_c, 0, 53, 0
4, 8640, Note_on_c, 0, 46, 0
4, 8640, Control_c, 0, 64, 127
4, 8640, Note_on_c, 0, 46, 54
4, 8640, Note_on_c, 0, 53, 54
4, 8640, Note_on_c, 0, 58, 54
4, 9040, Note_on_c, 0, 46, 54
4, 9080, Note_on_c, 0, 53, 54
4, 9120, Note_on_c, 0, 58, 0
4, 9120, Note_on_c, 0, 46, 0
4, 9120, Note_on_c, 0, 53, 0
4, 9120, Note_on_c, 0, 61, 54
4, 9600, Note_on_c, 0, 61, 0
4, 9600, Note_on_c, 0, 46, 0
4, 9600, Note_on_c, 0, 53, 0
4, 9600, Control_c, 0, 64, 0
4, 9600, Note_on_c, 0, 51, 54
4, 9600, Note_on_c, 0, 58, 54
4, 9600, Note_on_c, 0, 63, 54
4, 10080, Note_on_c, 0, 63, 0
4, 10080, Note_on_c, 0, 58, 0
4, 10080, Note_on_c, 0, 51, 0
4, 10080, Note_on_c, 0, 54, 54
4, 10080, Note_on_c, 0, 58, 54
4, 10320, Note_on_c, 0, 58, 0
4, 10320, Note_on_c, 0, 54, 0
4, 10320, Note_on_c, 0, 54, 54
4, 10320, Note_on_c, 0, 58, 54
4, 10560, Note_on_c, 0, 58, 0
4, 10560, Note_on_c, 0, 54, 0
4, 10560, Note_on_c, 0, 53, 54
4, 10560, Note_on_c, 0, 58, 54
4, 10800, Note_on_c, 0, 58, 0
4, 10800, Note_on_c, 0, 53, 0
4, 10800, Note_on_c, 0, 51, 54
4, 10800, Note_on_c, 0, 58, 54
4, 10800, Note_on_c, 0, 60, 54
4, 11040, Note_on_c, 0, 60, 0
4, 11040, Note_on_c, 0, 58, 0
4, 11040, Note_on_c, 0, 51, 0
4, 11040, Note_on_c, 0, 46, 54
4, 11040, Note_on_c, 0, 53, 54
4, 11040, Note_on_c, 0, 58, 54
4, 11136, Note_on_c, 0, 58, 0
4, 11136, Note_on_c, 0, 53, 0
4, 11136, Note_on_c, 0, 46, 0
4, 11520, Note_on_c, 0, 46, 54
4, 11520, Note_on_c, 0, 53, 54
4, 11520, Note_on_c, 0, 58, 54
4, 11567, Note_on_c, 0, 58, 0
4, 11567, Note_on_c, 0, 53, 0
4, 11567, Note_on_c, 0, 46, 0
4, 11760, Note_on_c, 0, 46, 54
4, 11760, Note_on_c, 0, 53, 54
4, 11760, Note_on_c, 0, 58, 54
4, 12000, Note_on_c, 0, 58, 0
4, 12000, Note_on_c, 0, 53, 0
4, 12000, Note_on_c, 0, 46, 0
4, 12000, Note_on_c, 0, 46, 54
4, 12000, Note_on_c, 0, 53, 54
4, 12000, Note_on_c, 0, 58, 54
4, 12240, Note_on_c, 0, 58, 0
4, 12240, Note_on_c, 0, 53, 0
4, 12240, Note_on_c, 0, 46, 0
4, 12240, Note_on_c, 0, 46, 54
4, 12240, Note_on_c, 0, 53, 54
4, 12240, Note_on_c, 0, 58, 54
4, 12480, Note_on_c, 0, 58, 0
4, 12480, Note_on_c, 0, 53, 0
4, 12480, Note_on_c, 0, 46, 0
4, 12480, Note_on_c, 0, 46, 54
4, 12480, Note_on_c, 0, 53, 54
4, 12480, Note_on_c, 0, 58, 54
4, 12960, Note_on_c, 0, 58, 0
4, 12960, Note_on_c, 0, 53, 0
4, 12960, Note_on_c, 0, 46, 0
4, 12960, Note_on_c, 0, 46, 54
4, 12960, Note_on_c, 0, 53, 54
4, 12960, Note_on_c, 0, 58, 54
4, 13440, Note_on_c, 0, 58, 0
4, 13440, Note_on_c, 0, 53, 0
4, 13440, Note_on_c, 0, 46, 0
4, 13440, Note_on_c, 0, 51, 54
4, 13440, Note_on_c, 0, 54, 54
4, 13440, Note_on_c, 0, 58, 54
4, 13920, Note_on_c, 0, 58, 0
4, 13920, Note_on_c, 0, 54, 0
4, 13920, Note_on_c, 0, 51, 0
4, 13920, Note_on_c, 0, 54, 54
4, 13920, Note_on_c, 0, 58, 54
4, 14160, Note_on_c, 0, 58, 0
4, 14160, Note_on_c, 0, 54, 0
4, 14160, Note_on_c, 0, 54, 54
4, 14160, Note_on_c, 0, 58, 54
4, 14400, Note_on_c, 0, 58, 0
4, 14400, Note_on_c, 0, 54, 0
4, 14400, Note_on_c, 0, 58, 54
4, 14400, Note_on_c, 0, 61, 54
4, 14880, Note_on_c, 0, 61, 0
4, 14880, Note_on_c, 0, 58, 0
4, 14880, Note_on_c, 0, 46, 54
4, 14880, Note_on_c, 0, 53, 54
4, 14880, Note_on_c, 0, 58, 54
4, 14927, Note_on_c, 0, 58, 0
4, 14927, Note_on_c, 0, 53, 0
4, 14927, Note_on_c, 0, 46, 0
4, 15360, Note_on_c, 0, 44, 67
4, 15360, Note_on_c, 0, 56, 67
4, 15407, Note_on_c, 0, 56, 0
4, 15407, Note_on_c, 0, 44, 0
4, 15600, Note_on_c, 0, 53, 67
4, 15600, Note_on_c, 0, 56, 67
4, 15600, Note_on_c, 0, 61, 67
4, 15840, Note_on_c, 0, 61, 0
4, 15840, Note_on_c, 0, 56, 0
4, 15840, Note_on_c, 0, 53, 0
4, 15840, Note_on_c, 0, 53, 67
4, 15840, Note_on_c, 0, 56, 67
4, 15840, Note_on_c, 0, 61, 67
4, 16080, Note_on_c, 0, 61, 0
4, 16080, Note_on_c, 0, 56, 0
4, 16080, Note_on_c, 0, 53, 0
4, 16080, Note_on_c, 0, 53, 67
4, 16080, Note_on_c, 0, 56, 67
4, 16080, Note_on_c, 0, 61, 67
4, 16080, Note_on_c, 0, 63, 67
4, 16320, Note_on_c, 0, 63, 0
4, 16320, Note_on_c, 0, 53, 0
4, 16320, Note_on_c, 0, 56, 0
4, 16320, Note_on_c, 0, 61, 0
4, 16320, Note_on_c, 0, 53, 67
4, 16320, Note_on_c, 0, 56, 67
4, 16320, Note_on_c, 0, 61, 67
4, 16800, Note_on_c, 0, 61, 0
4, 16800, Note_on_c, 0, 56, 0
4, 16800, Note_on_c, 0, 53, 0
4, 16800, Note_on_c, 0, 53, 67
4, 16800, Note_on_c, 0, 56, 67
4, 16800, Note_on_c, 0, 61, 67
4, 17280, Note_on_c, 0, 61, 0
4, 17280, Note_on_c, 0, 56, 0
4, 17280, Note_on_c, 0, 53, 0
4, 17280, Note_on_c, 0, 54, 67
4, 17280, Note_on_c, 0, 56, 67
4, 17280, Note_on_c, 0, 60, 67
4, 17280, Note_on_c, 0, 63, 67
4, 17760, Note_on_c, 0, 63, 0
4, 17760, Note_on_c, 0, 54, 0
4, 17760, Note_on_c, 0, 56, 0
4, 17760, Note_on_c, 0, 60, 0
4, 17760, Note_on_c, 0, 54, 67
4, 17760, Note_on_c, 0, 56, 67
4, 17760, Note_on_c, 0, 60, 67
4, 18000, Note_on_c, 0, 60, 0
4, 18000, Note_on_c, 0, 56, 0
4, 18000, Note_on_c, 0, 54, 0
4, 18000, Note_on_c, 0, 54, 67
4, 18000, Note_on_c, 0, 56, 67
4, 18000, Note_on_c, 0, 60, 67
4, 18240, Note_on_c, 0, 60, 0
4, 18240, Note_on_c, 0, 56, 0
4, 18240, Note_on_c, 0, 54, 0
4, 18240, Note_on_c, 0, 53, 67
4, 18240, Note_on_c, 0, 56, 67
4, 18480, Note_on_c, 0, 56, 0
4, 18480, Note_on_c, 0, 53, 0
4, 18480, Note_on_c, 0, 49, 67
4, 18480, Note_on_c, 0, 53, 67
4, 18720, Note_on_c, 0, 53, 0
4, 18720, Note_on_c, 0, 49, 0
4, 18720, Note_on_c, 0, 44, 67
4, 18720, Note_on_c, 0, 49, 67
4, 18720, Note_on_c, 0, 53, 67
4, 18720, Note_on_c, 0, 56, 67
4, 18816, Note_on_c, 0, 56, 0
4, 18816, Note_on_c, 0, 44, 0
4, 18816, Note_on_c, 0, 49, 0
4, 18816, Note_on_c, 0, 53, 0
4, 19200, Note_on_c, 0, 44, 67
4, 19200, Note_on_c, 0, 56, 67
4, 19247, Note_on_c, 0, 56, 0
4, 19247, Note_on_c, 0, 44, 0
4, 19440, Note_on_c, 0, 53, 67
4, 19440, Note_on_c, 0, 56, 67
4, 19440, Note_on_c, 0, 61, 67
4, 19680, Note_on_c, 0, 61, 0
4, 19680, Note_on_c, 0, 56, 0
4, 19680, Note_on_c, 0, 53, 0
4, 19680, Note_on_c, 0, 53, 67
4, 19680, Note_on_c, 0, 56, 67
4, 19680, Note_on_c, 0, 61, 67
4, 19920, Note_on_c, 0, 61, 0
4, 19920, Note_on_c, 0, 56, 0
4, 19920, Note_on_c, 0, 53, 0
4, 19920, Note_on_c, 0, 53, 67
4, 19920, Note_on_c, 0, 56, 67
4, 19920, Note_on_c, 0, 61, 67
4, 19920, Note_on_c, 0, 63, 67
4, 20160, Note_on_c, 0, 63, 0
4, 20160, Note_on_c, 0, 53, 0
4, 20160, Note_on_c, 0, 56, 0
4, 20160, Note_on_c, 0, 61, 0
4, 20160, Note_on_c, 0, 53, 67
4, 20160, Note_on_c, 0, 56, 67
4, 20160, Note_on_c, 0, 61, 67
4, 20640, Note_on_c, 0, 61, 0
4, 20640, Note_on_c, 0, 56, 0
4, 20640, Note_on_c, 0, 53, 0
4, 20640, Note_on_c, 0, 53, 67
4, 20640, Note_on_c, 0, 56, 67
4, 20640, Note_on_c, 0, 61, 67
4, 21120, Note_on_c, 0, 61, 0
4, 21120, Note_on_c, 0, 56, 0
4, 21120, Note_on_c, 0, 53, 0
4, 21120, Note_on_c, 0, 54, 67
4, 21120, Note_on_c, 0, 56, 67
4, 21120, Note_on_c, 0, 60, 67
4, 21600, Note_on_c, 0, 60, 0
4, 21600, Note_on_c, 0, 56, 0
4, 21600, Note_on_c, 0, 54, 0
4, 21600, Note_on_c, 0, 54, 67
4, 21600, Note_on_c, 0, 56, 67
4, 21600, Note_on_c, 0, 60, 67
4, 21840, Note_on_c, 0, 60, 0
4, 21840, Note_on_c, 0, 56, 0
4, 21840, Note_on_c, 0, 54, 0
4, 21840, Note_on_c, 0, 54, 67
4, 21840, Note_on_c, 0, 56, 67
4, 21840, Note_on_c, 0, 60, 67
4, 22080, Note_on_c, 0, 60, 0
4, 22080, Note_on_c, 0, 56, 0
4, 22080, Note_on_c, 0, 54, 0
4, 22080, Note_on_c, 0, 53, 67
4, 22080, Note_on_c, 0, 56, 67
4, 22560, Note_on_c, 0, 56, 0
4, 22560, Note_on_c, 0, 53, 0
4, 22560, Note_on_c, 0, 44, 67
4, 22560, Note_on_c, 0, 56, 67
4, 22607, Note_on_c, 0, 56, 0
4, 22607, Note_on_c, 0, 44, 0
4, 23040, Note_on_c, 0, 44, 67
4, 23040, Note_on_c, 0, 56, 67
4, 23087, Note_on_c, 0, 56, 0
4, 23087, Note_on_c, 0, 44, 0
4, 23280, Note_on_c, 0, 53, 67
4, 23280, Note_on_c, 0, 56, 67
4, 23280, Note_on_c, 0, 61, 67
4, 23520, Note_on_c, 0, 61, 0
4, 23520, Note_on_c, 0, 56, 0
4, 23520, Note_on_c, 0, 53, 0
4, 23520, Note_on_c, 0, 53, 67
4, 23520, Note_on_c, 0, 56, 67
4, 23520, Note_on_c, 0, 61, 67
4, 23760, Note_on_c, 0, 61, 0
4, 23760, Note_on_c, 0, 56, 0
4, 23760, Note_on_c, 0, 53, 0
4, 23760, Note_on_c, 0, 53, 67
4, 23760, Note_on_c, 0, 56, 67
4, 23760, Note_on_c, 0, 61, 67
4, 23760, Note_on_c, 0, 63, 67
4, 24000, Note_on_c, 0, 63, 0
4, 24000, Note_on_c, 0, 53, 0
4, 24000, Note_on_c, 0, 56, 0
4, 24000, Note_on_c, 0, 61, 0
4, 24000, Note_on_c, 0, 53, 67
4, 24000, Note_on_c, 0, 56, 67
4, 24000, Note_on_c, 0, 61, 67
4, 24480, Note_on_c, 0, 61, 0
4, 24480, Note_on_c, 0, 56, 0
4, 24480, Note_on_c, 0, 53, 0
4, 24480, Note_on_c, 0, 53, 67
4, 24480, Note_on_c, 0, 56, 67
4, 24480, Note_on_c, 0, 61, 67
4, 24960, Note_on_c, 0, 61, 0
4, 24960, Note_on_c, 0, 56, 0
4, 24960, Note_on_c, 0, 53, 0
4, 24960, Note_on_c, 0, 54, 67
4, 24960, Note_on_c, 0, 56, 67
4, 24960, Note_on_c, 0, 60, 67
4, 24960, Note_on_c, 0, 63, 67
4, 25440, Note_on_c, 0, 63, 0
4, 25440, Note_on_c, 0, 54, 0
4, 25440, Note_on_c, 0, 56, 0
4, 25440, Note_on_c, 0, 60, 0
4, 25440, Note_on_c, 0, 54, 67
4, 25440, Note_on_c, 0, 56, 67
4, 25440, Note_on_c, 0, 60, 67
4, 25680, Note_on_c, 0, 60, 0
4, 25680, Note_on_c, 0, 56, 0
4, 25680, Note_on_c, 0, 54, 0
4, 25680, Note_on_c, 0, 54, 67
4, 25680, Note_on_c, 0, 56, 67
4, 25680, Note_on_c, 0, 60, 67
4, 25920, Note_on_c, 0, 60, 0
4, 25920, Note_on_c, 0, 56, 0
4, 25920, Note_on_c, 0, 54, 0
4, 25920, Note_on_c, 0, 53, 67
4, 25920, Note_on_c, 0, 56, 67
4, 26160, Note_on_c, 0, 56, 0
4, 26160, Note_on_c, 0, 53, 0
4, 26160, Note_on_c, 0, 49, 67
4, 26160, Note_on_c, 0, 53, 67
4, 26400, Note_on_c, 0, 53, 0
4, 26400, Note_on_c, 0, 49, 0
4, 26400, Note_on_c, 0, 44, 67
4, 26400, Note_on_c, 0, 49, 67
4, 26400, Note_on_c, 0, 53, 67
4, 26400, Note_on_c, 0, 56, 67
4, 26496, Note_on_c, 0, 56, 0
4, 26496, Note_on_c, 0, 44, 0
4, 26496, Note_on_c, 0, 49, 0
4, 26496, Note_on_c, 0, 53, 0
4, 26880, Note_on_c, 0, 44, 67
4, 26880, Note_on_c, 0, 56, 67
4, 26927, Note_on_c, 0, 56, 0
4, 26927, Note_on_c, 0, 44, 0
4, 27120, Note_on_c, 0, 53, 67
4, 27120, Note_on_c, 0, 56, 67
4, 27120, Note_on_c, 0, 61, 67
4, 27360, Note_on_c, 0, 61, 0
4, 27360, Note_on_c, 0, 56, 0
4, 27360, Note_on_c, 0, 53, 0
4, 27360, Note_on_c, 0, 53, 67
4, 27360, Note_on_c, 0, 56, 67
4, 27360, Note_on_c, 0, 61, 67
4, 27600, Note_on_c, 0, 61, 0
4, 27600, Note_on_c, 0, 56, 0
4, 27600, Note_on_c, 0, 53, 0
4, 27600, Note_on_c, 0, 53, 67
4, 27600, Note_on_c, 0, 56, 67
4, 27600, Note_on_c, 0, 61, 67
4, 27600, Note_on_c, 0, 63, 67
4, 27840, Note_on_c, 0, 63, 0
4, 27840, Note_on_c, 0, 53, 0
4, 27840, Note_on_c, 0, 56, 0
4, 27840, Note_on_c, 0, 61, 0
4, 27840, Note_on_c, 0, 53, 67
4, 27840, Note_on_c, 0, 56, 67
4, 27840, Note_on_c, 0, 61, 67
4, 28320, Note_on_c, 0, 61, 0
4, 28320, Note_on_c, 0, 56, 0
4, 28320, Note_on_c, 0, 53, 0
4, 28320, Note_on_c, 0, 53, 67
4, 28320, Note_on_c, 0, 56, 67
4, 28320, Note_on_c, 0, 61, 67
4, 28800, Note_on_c, 0, 61, 0
4, 28800, Note_on_c, 0, 56, 0
4, 28800, Note_on_c, 0, 53, 0
4, 28800, Note_on_c, 0, 54, 67
4, 28800, Note_on_c, 0, 56, 67
4, 28800, Note_on_c, 0, 60, 67
4, 29280, Note_on_c, 0, 60, 0
4, 29280, Note_on_c, 0, 56, 0
4, 29280, Note_on_c, 0, 54, 0
4, 29280, Note_on_c, 0, 54, 67
4, 29280, Note_on_c, 0, 56, 67
4, 29280, Note_on_c, 0, 60, 67
4, 29520, Note_on_c, 0, 60, 0
4, 29520, Note_on_c, 0, 56, 0
4, 29520, Note_on_c, 0, 54, 0
4, 29520, Note_on_c, 0, 54, 67
4, 29520, Note_on_c, 0, 56, 67
4, 29520, Note_on_c, 0, 60, 67
4, 29760, Note_on_c, 0, 60, 0
4, 29760, Note_on_c, 0, 56, 0
4, 29760, Note_on_c, 0, 54, 0
4, 29760, Note_on_c, 0, 53, 67
4, 29760, Note_on_c, 0, 56, 67
4, 30240, Note_on_c, 0, 56, 0
4, 30240, Note_on_c, 0, 53, 0
4, 30240, Note_on_c, 0, 41, 67
4, 30240, Note_on_c, 0, 46, 67
4, 30240, Note_on_c, 0, 53, 67
4, 30336, Note_on_c, 0, 53, 0
4, 30336, Note_on_c, 0, 46, 0
4, 30336, Note_on_c, 0, 41, 0
4, 30720, Note_on_c, 0, 53, 54
4, 30960, Note_on_c, 0, 53, 0
4, 31200, Control_c, 0, 64, 127
4, 31200, Note_on_c, 0, 53, 54
4, 31680, Note_on_c, 0, 53, 0
4, 31680, Note_on_c, 0, 58, 54
4, 32160, Note_on_c, 0, 58, 0
4, 32160, Note_on_c, 0, 56, 54
4, 32640, Note_on_c, 0, 56, 0
4, 32640, Note_on_c, 0, 55, 54
4, 33120, Note_on_c, 0, 55, 0
4, 33120, Note_on_c, 0, 54, 54
4, 33600, Note_on_c, 0, 54, 0
4, 33600, Note_on_c, 0, 53, 54
4, 33840, Note_on_c, 0, 53, 0
4, 33840, Note_on_c, 0, 51, 54
4, 34080, Note_on_c, 0, 51, 0
4, 34080, Control_c, 0, 64, 0
4, 34080, Note_on_c, 0, 49, 54
4, 34560, Note_on_c, 0, 49, 0
4, 35040, Control_c, 0, 64, 127
4, 35040, Note_on_c, 0, 53, 54
4, 35520, Note_on_c, 0, 53, 0
4, 35520, Note_on_c, 0, 58, 54
4, 36000, Note_on_c, 0, 58, 0
4, 36000, Note_on_c, 0, 56, 54
4, 36480, Note_on_c, 0, 56, 0
4, 36480, Note_on_c, 0, 55, 54
4, 36960, Note_on_c, 0, 55, 0
4, 36960, Note_on_c, 0, 54, 54
4, 37440, Note_on_c, 0, 54, 0
4, 37440, Control_c, 0, 64, 0
4, 37440, Note_on_c, 0, 53, 54
4, 37920, Note_on_c, 0, 53, 0
4, 37920, Note_on_c, 0, 46, 54
4, 37920, Note_on_c, 0, 53, 54
4, 38400, Note_on_c, 0, 53, 0
4, 38400, Note_on_c, 0, 46, 0
4, 38400, Note_on_c, 0, 53, 54
4, 38640, Note_on_c, 0, 53, 0
4, 38880, Control_c, 0, 64, 127
4, 38880, Note_on_c, 0, 53, 54
4, 39360, Note_on_c, 0, 53, 0
4, 39360, Note_on_c, 0, 58, 54
4, 39840, Note_on_c, 0, 58, 0
4, 39840, Note_on_c, 0, 56, 54
4, 40320, Note_on_c, 0, 56, 0
4, 40320, Note_on_c, 0, 55, 54
4, 40800, Note_on_c, 0, 55, 0
4, 40800, Note_on_c, 0, 54, 54
4, 41280, Note_on_c, 0, 54, 0
4, 41280, Note_on_c, 0, 53, 54
4, 41520, Note_on_c, 0, 53, 0
4, 41520, Note_on_c, 0, 51, 54
4, 41760, Note_on_c, 0, 51, 0
4, 41760, Control_c, 0, 64, 0
4, 41760, Note_on_c, 0, 49, 54
4, 42240, Note_on_c, 0, 49, 0
4, 42720, Control_c, 0, 64, 127
4, 42720, Note_on_c, 0, 53, 54
4, 43200, Note_on_c, 0, 53, 0
4, 43200, Note_on_c, 0, 58, 54
4, 43680, Note_on_c, 0, 58, 0
4, 43680, Note_on_c, 0, 56, 54
4, 44160, Note_on_c, 0, 56, 0
4, 44160, Note_on_c, 0, 55, 54
4, 44640, Note_on_c, 0, 55, 0
4, 44640, Note_on_c, 0, 54, 54
4, 45120, Note_on_c, 0, 54, 0
4, 45120, Control_c, 0, 64, 0
4, 45120, Note_on_c, 0, 53, 54
4, 45600, Note_on_c, 0, 53, 0
4, 45600, Note_on_c, 0, 46, 54
4, 45600, Note_on_c, 0, 53, 54
4, 45600, Note_on_c, 0, 58, 54
4, 46080, Note_on_c, 0, 58, 0
4, 46080, Note_on_c, 0, 53, 0
4, 46080, Note_on_c, 0, 46, 0
4, 46080, Note_on_c, 0, 37, 54
4, 46080, Note_on_c, 0, 49, 54
4, 46320, Note_on_c, 0, 49, 0
4, 46320, Note_on_c, 0, 37, 0
4, 46320, Note_on_c, 0, 61, 54
4, 46320, Note_on_c, 0, 65, 54
4, 46367, Note_on_c, 0, 65, 0
4, 46367, Note_on_c, 0, 61, 0
4, 46560, Note_on_c, 0, 56, 54
4, 46560, Note_on_c, 0, 61, 54
4, 46560, Note_on_c, 0, 65, 54
4, 46607, Note_on_c, 0, 65, 0
4, 46607, Note_on_c, 0, 61, 0
4, 46607, Note_on_c, 0, 56, 0
4, 46800, Note_on_c, 0, 53, 54
4, 46800, Note_on_c, 0, 56, 54
4, 46800, Note_on_c, 0, 61, 54
4, 46847, Note_on_c, 0, 61, 0
4, 46847, Note_on_c, 0, 56, 0
4, 46847, Note_on_c, 0, 53, 0
4, 47040, Note_on_c, 0, 56, 54
4, 47040, Note_on_c, 0, 61, 54
4, 47136, Note_on_c, 0, 61, 0
4, 47136, Note_on_c, 0, 56, 0
4, 47520, Note_on_c, 0, 56, 54
4, 47520, Note_on_c, 0, 61, 54
4, 47616, Note_on_c, 0, 61, 0
4, 47616, Note_on_c, 0, 56, 0
4, 48000, Note_on_c, 0, 37, 54
4, 48000, Note_on_c, 0, 49, 54
4, 48240, Note_on_c, 0, 49, 0
4, 48240, Note_on_c, 0, 37, 0
4, 48240, Note_on_c, 0, 58, 54
4, 48240, Note_on_c, 0, 63, 54
4, 48240, Note_on_c, 0, 67, 54
4, 48287, Note_on_c, 0, 67, 0
4, 48287, Note_on_c, 0, 63, 0
4, 48287, Note_on_c, 0, 58, 0
4, 48480, Note_on_c, 0, 55, 54
4, 48480, Note_on_c, 0, 58, 54
4, 48480, Note_on_c, 0, 63, 54
4, 48527, Note_on_c, 0, 63, 0
4, 48527, Note_on_c, 0, 58, 0
4, 48527, Note_on_c, 0, 55, 0
4, 48720, Note_on_c, 0, 49, 54
4, 48720, Note_on_c, 0, 55, 54
4, 48720, Note_on_c, 0, 58, 54
4, 48767, Note_on_c, 0, 58, 0
4, 48767, Note_on_c, 0, 55, 0
4, 48767, Note_on_c, 0, 49, 0
4, 48960, Note_on_c, 0, 58, 54
4, 48960, Note_on_c, 0, 63, 54
4, 49056, Note_on_c, 0, 63, 0
4, 49056, Note_on_c, 0, 58, 0
4, 49440, Note_on_c, 0, 58, 54
4, 49440, Note_on_c, 0, 63, 54
4, 49536, Note_on_c, 0, 63, 0
4, 49536, Note_on_c, 0, 58, 0
4, 49920, Note_on_c, 0, 37, 54
4, 49920, Note_on_c, 0, 49, 54
4, 50160, Note_on_c, 0, 49, 0
4, 50160, Note_on_c, 0, 37, 0
4, 50160, Note_on_c, 0, 60, 54
4, 50160, Note_on_c, 0, 66, 54
4, 50160, Note_on_c, 0, 68, 54
4, 50207, Note_on_c, 0, 68, 0
4, 50207, Note_on_c, 0, 66, 0
4, 50207, Note_on_c, 0, 60, 0
4, 50400, Note_on_c, 0, 56, 54
4, 50400, Note_on_c, 0, 60, 54
4, 50400, Note_on_c, 0, 66, 54
4, 50447, Note_on_c, 0, 66, 0
4, 50447, Note_on_c, 0, 60, 0
4, 50447, Note_on_c, 0, 56, 0
4, 50640, Note_on_c, 0, 54, 54
4, 50640, Note_on_c, 0, 56, 54
4, 50640, Note_on_c, 0, 60, 54
4, 50687, Note_on_c, 0, 60, 0
4, 50687, Note_on_c, 0, 56, 0
4, 50687, Note_on_c, 0, 54, 0
4, 50880, Note_on_c, 0, 56, 54
4, 50880, Note_on_c, 0, 60, 54
4, 50976, Note_on_c, 0, 60, 0
4, 50976, Note_on_c, 0, 56, 0
4, 51360, Note_on_c, 0, 56, 54
4, 51360, Note_on_c, 0, 60, 54
4, 51456, Note_on_c, 0, 60, 0
4, 51456, Note_on_c, 0, 56, 0
4, 51840, Note_on_c, 0, 37, 54
4, 51840, Note_on_c, 0, 49, 54
4, 52080, Note_on_c, 0, 49, 0
4, 52080, Note_on_c, 0, 37, 0
4, 52080, Note_on_c, 0, 53, 54
4, 52080, Note_on_c, 0, 56, 54
4, 52127, Note_on_c, 0, 56, 0
4, 52127, Note_on_c, 0, 53, 0
4, 52320, Note_on_c, 0, 53, 54
4, 52320, Note_on_c, 0, 56, 54
4, 52320, Note_on_c, 0, 61, 54
4, 52367, Note_on_c, 0, 61, 0
4, 52367, Note_on_c, 0, 56, 0
4, 52367, Note_on_c, 0, 53, 0
4, 52560, Note_on_c, 0, 56, 54
4, 52560, Note_on_c, 0, 61, 54
4, 52560, Note_on_c, 0, 65, 54
4, 52607, Note_on_c, 0, 65, 0
4, 52607, Note_on_c, 0, 61, 0
4, 52607, Note_on_c, 0, 56, 0
4, 53040, Note_on_c, 0, 49, 54
4, 53040, Note_on_c, 0, 55, 54
4, 53040, Note_on_c, 0, 57, 54
4, 53087, Note_on_c, 0, 57, 0
4, 53087, Note_on_c, 0, 55, 0
4, 53087, Note_on_c, 0, 49, 0
4, 53280, Note_on_c, 0, 55, 54
4, 53280, Note_on_c, 0, 57, 54
4, 53280, Note_on_c, 0, 61, 54
4, 53327, Note_on_c, 0, 61, 0
4, 53327, Note_on_c, 0, 57, 0
4, 53327, Note_on_c, 0, 55, 0
4, 53520, Note_on_c, 0, 57, 54
4, 53520, Note_on_c, 0, 61, 54
4, 53520, Note_on_c, 0, 67, 54
4, 53567, Note_on_c, 0, 67, 0
4, 53567, Note_on_c, 0, 61, 0
4, 53567, Note_on_c, 0, 57, 0
4, 53760, Note_on_c, 0, 37, 54
4, 53760, Note_on_c, 0, 49, 54
4, 54000, Note_on_c, 0, 49, 0
4, 54000, Note_on_c, 0, 37, 0
4, 54000, Note_on_c, 0, 61, 54
4, 54000, Note_on_c, 0, 65, 54
4, 54047, Note_on_c, 0, 65, 0
4, 54047, Note_on_c, 0, 61, 0
4, 54240, Note_on_c, 0, 56, 54
4, 54240, Note_on_c, 0, 61, 54
4, 54240, Note_on_c, 0, 65, 54
4, 54287, Note_on_c, 0, 65, 0
4, 54287, Note_on_c, 0, 61, 0
4, 54287, Note_on_c, 0, 56, 0
4, 54480, Note_on_c, 0, 53, 54
4, 54480, Note_on_c, 0, 56, 54
4, 54480, Note_on_c, 0, 61, 54
4, 54527, Note_on_c, 0, 61, 0
4, 54527, Note_on_c, 0, 56, 0
4, 54527, Note_on_c, 0, 53, 0
4, 54720, Note_on_c, 0, 56, 54
4, 54720, Note_on_c, 0, 61, 54
4, 54816, Note_on_c, 0, 61, 0
4, 54816, Note_on_c, 0, 56, 0
4, 55200, Note_on_c, 0, 56, 54
4, 55200, Note_on_c, 0, 61, 54
4, 55296, Note_on_c, 0, 61, 0
4, 55296, Note_on_c, 0, 56, 0
4, 55680, Note_on_c, 0, 37, 54
4, 55680, Note_on_c, 0, 49, 54
4, 55920, Note_on_c, 0, 49, 0
4, 55920, Note_on_c, 0, 37, 0
4, 55920, Note_on_c, 0, 58, 54
4, 55920, Note_on_c, 0, 63, 54
4, 55920, Note_on_c, 0, 67, 54
4, 55967, Note_on_c, 0, 67, 0
4, 55967, Note_on_c, 0, 63, 0
4, 55967, Note_on_c, 0, 58, 0
4, 56160, Note_on_c, 0, 55, 54
4, 56160, Note_on_c, 0, 58, 54
4, 56160, Note_on_c, 0, 63, 54
4, 56207, Note_on_c, 0, 63, 0
4, 56207, Note_on_c, 0, 58, 0
4, 56207, Note_on_c, 0, 55, 0
4, 56400, Note_on_c, 0, 49, 54
4, 56400, Note_on_c, 0, 55, 54
4, 56400, Note_on_c, 0, 58, 54
4, 56447, Note_on_c, 0, 58, 0
4, 56447, Note_on_c, 0, 55, 0
4, 56447, Note_on_c, 0, 49, 0
4, 56640, Note_on_c, 0, 58, 54
4, 56640, Note_on_c, 0, 63, 54
4, 56736, Note_on_c, 0, 63, 0
4, 56736, Note_on_c, 0, 58, 0
4, 57120, Note_on_c, 0, 58, 54
4, 57120, Note_on_c, 0, 63, 54
4, 57216, Note_on_c, 0, 63, 0
4, 57216, Note_on_c, 0, 58, 0
4, 57600, Note_on_c, 0, 37, 54
4, 57600, Note_on_c, 0, 49, 54
4, 57840, Note_on_c, 0, 49, 0
4, 57840, Note_on_c, 0, 37, 0
4, 57840, Note_on_c, 0, 60, 54
4, 57840, Note_on_c, 0, 66, 54
4, 57840, Note_on_c, 0, 68, 54
4, 57887, Note_on_c, 0, 68, 0
4, 57887, Note_on_c, 0, 66, 0
4, 57887, Note_on_c, 0, 60, 0
4, 58080, Note_on_c, 0, 56, 54
4, 58080, Note_on_c, 0, 60, 54
4, 58080, Note_on_c, 0, 66, 54
4, 58127, Note_on_c, 0, 66, 0
4, 58127, Note_on_c, 0, 60, 0
4, 58127, Note_on_c, 0, 56, 0
4, 58320, Note_on_c, 0, 54, 54
4, 58320, Note_on_c, 0, 56, 54
4, 58320, Note_on_c, 0, 60, 54
4, 58367, Note_on_c, 0, 60, 0
4, 58367, Note_on_c, 0, 56, 0
4, 58367, Note_on_c, 0, 54, 0
4, 58560, Note_on_c, 0, 56, 54
4, 58560, Note_on_c, 0, 60, 54
4, 58656, Note_on_c, 0, 60, 0
4, 58656, Note_on_c, 0, 56, 0
4, 59040, Note_on_c, 0, 56, 54
4, 59040, Note_on_c, 0, 60, 54
4, 59136, Note_on_c, 0, 60, 0
4, 59136, Note_on_c, 0, 56, 0
4, 59520, Note_on_c, 0, 37, 54
4, 59520, Note_on_c, 0, 49, 54
4, 59760, Note_on_c, 0, 49, 0
4, 59760, Note_on_c, 0, 37, 0
4, 59760, Note_on_c, 0, 53, 54
4, 59760, Note_on_c, 0, 56, 54
4, 59760, Note_on_c, 0, 61, 54
4, 59807, Note_on_c, 0, 61, 0
4, 59807, Note_on_c, 0, 56, 0
4, 59807, Note_on_c, 0, 53, 0
4, 60000, Note_on_c, 0, 52, 54
4, 60000, Note_on_c, 0, 57, 54
4, 60000, Note_on_c, 0, 61, 54
4, 60047, Note_on_c, 0, 61, 0
4, 60047, Note_on_c, 0, 57, 0
4, 60047, Note_on_c, 0, 52, 0
4, 60240, Note_on_c, 0, 57, 54
4, 60240, Note_on_c, 0, 61, 54
4, 60240, Note_on_c, 0, 64, 54
4, 60287, Note_on_c, 0, 64, 0
4, 60287, Note_on_c, 0, 61, 0
4, 60287, Note_on_c, 0, 57, 0
4, 60720, Note_on_c, 0, 53, 54
4, 60720, Note_on_c, 0, 56, 54
4, 60720, Note_on_c, 0, 61, 54
4, 60767, Note_on_c, 0, 61, 0
4, 60767, Note_on_c, 0, 56, 0
4, 60767, Note_on_c, 0, 53, 0
4, 60960, Note_on_c, 0, 56, 54
4, 60960, Note_on_c, 0, 61, 54
4, 60960, Note_on_c, 0, 65, 54
4, 61007, Note_on_c, 0, 65, 0
4, 61007, Note_on_c, 0, 61, 0
4, 61007, Note_on_c, 0, 56, 0
4, 61200, Note_on_c, 0, 61, 54
4, 61200, Note_on_c, 0, 65, 54
4, 61200, Note_on_c, 0, 68, 54
4, 61247, Note_on_c, 0, 68, 0
4, 61247, Note_on_c, 0, 65, 0
4, 61247, Note_on_c, 0, 61, 0
4, 61680, Note_on_c, 0, 56, 54
4, 61680, Note_on_c, 0, 61, 54
4, 61680, Note_on_c, 0, 65, 54
4, 61680, Note_on_c, 0, 68, 54
4, 61800, Note_on_c, 0, 68, 0
4, 61800, Note_on_c, 0, 56, 0
4, 61800, Note_on_c, 0, 61, 0
4, 61800, Note_on_c, 0, 65, 0
4, 61800, Note_on_c, 0, 56, 54
4, 61800, Note_on_c, 0, 61, 54
4, 61800, Note_on_c, 0, 65, 54
4, 61800, Note_on_c, 0, 68, 54
4, 61920, Note_on_c, 0, 68, 0
4, 61920, Note_on_c, 0, 56, 0
4, 61920, Note_on_c, 0, 61, 0
4, 61920, Note_on_c, 0, 65, 0
4, 61920, Note_on_c, 0, 56, 54
4, 61920, Note_on_c, 0, 61, 54
4, 61920, Note_on_c, 0, 65, 54
4, 61920, Note_on_c, 0, 68, 54
4, 62160, Note_on_c, 0, 68, 0
4, 62160, Note_on_c, 0, 56, 0
4, 62160, Note_on_c, 0, 61, 0
4, 62160, Note_on_c, 0, 65, 0
4, 62160, Note_on_c, 0, 56, 54
4, 62160, Note_on_c, 0, 61, 54
4, 62160, Note_on_c, 0, 65, 54
4, 62160, Note_on_c, 0, 68, 54
4, 62400, Note_on_c, 0, 68, 0
4, 62400, Note_on_c, 0, 56, 0
4, 62400, Note_on_c, 0, 61, 0
4, 62400, Note_on_c, 0, 65, 0
4, 62400, Note_on_c, 0, 56, 54
4, 62400, Note_on_c, 0, 61, 54
4, 62400, Note_on_c, 0, 65, 54
4, 63360, Note_on_c, 0, 65, 0
4, 63360, Note_on_c, 0, 61, 0
4, 63360, Note_on_c, 0, 56, 0
4, 63600, Note_on_c, 0, 55, 54
4, 63600, Note_on_c, 0, 58, 54
4, 63600, Note_on_c, 0, 63, 54
4, 63600, Note_on_c, 0, 67, 54
4, 63720, Note_on_c, 0, 67, 0
4, 63720, Note_on_c, 0, 55, 0
4, 63720, Note_on_c, 0, 58, 0
4, 63720, Note_on_c, 0, 63, 0
4, 63720, Note_on_c, 0, 55, 54
4, 63720, Note_on_c, 0, 58, 54
4, 63720, Note_on_c, 0, 63, 54
4, 63720, Note_on_c, 0, 67, 54
4, 63840, Note_on_c, 0, 67, 0
4, 63840, Note_on_c, 0, 55, 0
4, 63840, Note_on_c, 0, 58, 0
4, 63840, Note_on_c, 0, 63, 0
4, 63840, Note_on_c, 0, 55, 54
4, 63840, Note_on_c, 0, 58, 54
4, 63840, Note_on_c, 0, 63, 54
4, 63840, Note_on_c, 0, 67, 54
4, 64080, Note_on_c, 0, 67, 0
4, 64080, Note_on_c, 0, 55, 0
4, 64080, Note_on_c, 0, 58, 0
4, 64080, Note_on_c, 0, 63, 0
4, 64080, Note_on_c, 0, 55, 54
4, 64080, Note_on_c, 0, 58, 54
4, 64080, Note_on_c, 0, 63, 54
4, 64080, Note_on_c, 0, 67, 54
4, 64320, Note_on_c, 0, 67, 0
4, 64320, Note_on_c, 0, 55, 0
4, 64320, Note_on_c, 0, 58, 0
4, 64320, Note_on_c, 0, 63, 0
4, 64320, Note_on_c, 0, 55, 54
4, 64320, Note_on_c, 0, 58, 54
4, 64320, Note_on_c, 0, 63, 54
4, 64320, Note_on_c, 0, 67, 54
4, 65280, Note_on_c, 0, 67, 0
4, 65280, Note_on_c, 0, 55, 0
4, 65280, Note_on_c, 0, 58, 0
4, 65280, Note_on_c, 0, 63, 0
4, 65520, Note_on_c, 0, 54, 54
4, 65520, Note_on_c, 0, 56, 54
4, 65520, Note_on_c, 0, 60, 54
4, 65520, Note_on_c, 0, 66, 54
4, 65640, Note_on_c, 0, 66, 0
4, 65640, Note_on_c, 0, 54, 0
4, 65640, Note_on_c, 0, 56, 0
4, 65640, Note_on_c, 0, 60, 0
4, 65640, Note_on_c, 0, 54, 54
4, 65640, Note_on_c, 0, 56, 54
4, 65640, Note_on_c, 0, 60, 54
4, 65640, Note_on_c, 0, 66, 54
4, 65760, Note_on_c, 0, 66, 0
4, 65760, Note_on_c, 0, 54, 0
4, 65760, Note_on_c, 0, 56, 0
4, 65760, Note_on_c, 0, 60, 0
4, 65760, Note_on_c, 0, 54, 54
4, 65760, Note_on_c, 0, 56, 54
4, 65760, Note_on_c, 0, 60, 54
4, 65760, Note_on_c, 0, 66, 54
4, 66000, Note_on_c, 0, 66, 0
4, 66000, Note_on_c, 0, 54, 0
4, 66000, Note_on_c, 0, 56, 0
4, 66000, Note_on_c, 0, 60, 0
4, 66000, Note_on_c, 0, 54, 54
4, 66000, Note_on_c, 0, 56, 54
4, 66000, Note_on_c, 0, 60, 54
4, 66000, Note_on_c, 0, 66, 54
4, 66240, Note_on_c, 0, 66, 0
4, 66240, Note_on_c, 0, 54, 0
4, 66240, Note_on_c, 0, 56, 0
4, 66240, Note_on_c, 0, 60, 0
4, 66240, Note_on_c, 0, 54, 54
4, 66240, Note_on_c, 0, 56, 54
4, 66240, Note_on_c, 0, 60, 54
4, 66240, Note_on_c, 0, 66, 54
4, 67200, Note_on_c, 0, 66, 0
4, 67200, Note_on_c, 0, 54, 0
4, 67200, Note_on_c, 0, 56, 0
4, 67200, Note_on_c, 0, 60, 0
4, 67440, Note_on_c, 0, 53, 54
4, 67440, Note_on_c, 0, 56, 54
4, 67440, Note_on_c, 0, 61, 54
4, 67440, Note_on_c, 0, 65, 54
4, 67560, Note_on_c, 0, 65, 0
4, 67560, Note_on_c, 0, 53, 0
4, 67560, Note_on_c, 0, 56, 0
4, 67560, Note_on_c, 0, 61, 0
4, 67560, Note_on_c, 0, 53, 54
4, 67560, Note_on_c, 0, 56, 54
4, 67560, Note_on_c, 0, 61, 54
4, 67560, Note_on_c, 0, 65, 54
4, 67680, Note_on_c, 0, 65, 0
4, 67680, Note_on_c, 0, 53, 0
4, 67680, Note_on_c, 0, 56, 0
4, 67680, Note_on_c, 0, 61, 0
4, 67680, Note_on_c, 0, 53, 54
4, 67680, Note_on_c, 0, 56, 54
4, 67680, Note_on_c, 0, 61, 54
4, 67680, Note_on_c, 0, 65, 54
4, 67920, Note_on_c, 0, 65, 0
4, 67920, Note_on_c, 0, 53, 0
4, 67920, Note_on_c, 0, 56, 0
4, 67920, Note_on_c, 0, 61, 0
4, 67920, Note_on_c, 0, 53, 54
4, 67920, Note_on_c, 0, 56, 54
4, 67920, Note_on_c, 0, 61, 54
4, 67920, Note_on_c, 0, 65, 54
4, 68160, Note_on_c, 0, 65, 0
4, 68160, Note_on_c, 0, 53, 0
4, 68160, Note_on_c, 0, 56, 0
4, 68160, Note_on_c, 0, 61, 0
4, 68160, Note_on_c, 0, 55, 54
4, 68160, Note_on_c, 0, 57, 54
4, 68160, Note_on_c, 0, 61, 54
4, 68160, Note_on_c, 0, 64, 54
4, 69120, Note_on_c, 0, 64, 0
4, 69120, Note_on_c, 0, 55, 0
4, 69120, Note_on_c, 0, 57, 0
4, 69120, Note_on_c, 0, 61, 0
4, 69360, Note_on_c, 0, 56, 54
4, 69360, Note_on_c, 0, 61, 54
4, 69360, Note_on_c, 0, 65, 54
4, 69360, Note_on_c, 0, 68, 54
4, 69480, Note_on_c, 0, 68, 0
4, 69480, Note_on_c, 0, 56, 0
4, 69480, Note_on_c, 0, 61, 0
4, 69480, Note_on_c, 0, 65, 0
4, 69480, Note_on_c, 0, 56, 54
4, 69480, Note_on_c, 0, 61, 54
4, 69480, Note_on_c, 0, 65, 54
4, 69480, Note_on_c, 0, 68, 54
4, 69600, Note_on_c, 0, 68, 0
4, 69600, Note_on_c, 0, 56, 0
4, 69600, Note_on_c, 0, 61, 0
4, 69600, Note_on_c, 0, 65, 0
4, 69600, Note_on_c, 0, 56, 54
4, 69600, Note_on_c, 0, 61, 54
4, 69600, Note_on_c, 0, 65, 54
4, 69600, Note_on_c, 0, 68, 54
4, 69840, Note_on_c, 0, 68, 0
4, 69840, Note_on_c, 0, 56, 0
4, 69840, Note_on_c, 0, 61, 0
4, 69840, Note_on_c, 0, 65, 0
4, 69840, Note_on_c, 0, 56, 54
4, 69840, Note_on_c, 0, 61, 54
4, 69840, Note_on_c, 0, 65, 54
4, 69840, Note_on_c, 0, 68, 54
4, 70080, Note_on_c, 0, 68, 0
4, 70080, Note_on_c, 0, 56, 0
4, 70080, Note_on_c, 0, 61, 0
4, 70080, Note_on_c, 0, 65, 0
4, 70080, Note_on_c, 0, 56, 54
4, 70080, Note_on_c, 0, 61, 54
4, 70080, Note_on_c, 0, 65, 54
4, 71040, Note_on_c, 0, 65, 0
4, 71040, Note_on_c, 0, 61, 0
4, 71040, Note_on_c, 0, 56, 0
4, 71280, Note_on_c, 0, 55, 54
4, 71280, Note_on_c, 0, 58, 54
4, 71280, Note_on_c, 0, 63, 54
4, 71280, Note_on_c, 0, 67, 54
4, 71400, Note_on_c, 0, 67, 0
4, 71400, Note_on_c, 0, 55, 0
4, 71400, Note_on_c, 0, 58, 0
4, 71400, Note_on_c, 0, 63, 0
4, 71400, Note_on_c, 0, 55, 54
4, 71400, Note_on_c, 0, 58, 54
4, 71400, Note_on_c, 0, 63, 54
4, 71400, Note_on_c, 0, 67, 54
4, 71520, Note_on_c, 0, 67, 0
4, 71520, Note_on_c, 0, 55, 0
4, 71520, Note_on_c, 0, 58, 0
4, 71520, Note_on_c, 0, 63, 0
4, 71520, Note_on_c, 0, 55, 54
4, 71520, Note_on_c, 0, 58, 54
4, 71520, Note_on_c, 0, 63, 54
4, 71520, Note_on_c, 0, 67, 54
4, 71760, Note_on_c, 0, 67, 0
4, 71760, Note_on_c, 0, 55, 0
4, 71760, Note_on_c, 0, 58, 0
4, 71760, Note_on_c, 0, 63, 0
4, 71760, Note_on_c, 0, 55, 54
4, 71760, Note_on_c, 0, 58, 54
4, 71760, Note_on_c, 0, 63, 54
4, 71760, Note_on_c, 0, 67, 54
4, 72000, Note_on_c, 0, 67, 0
4, 72000, Note_on_c, 0, 55, 0
4, 72000, Note_on_c, 0, 58, 0
4, 72000, Note_on_c, 0, 63, 0
4, 72000, Note_on_c, 0, 55, 54
4, 72000, Note_on_c, 0, 58, 54
4, 72000, Note_on_c, 0, 63, 54
4, 72000, Note_on_c, 0, 67, 54
4, 72960, Note_on_c, 0, 67, 0
4, 72960, Note_on_c, 0, 55, 0
4, 72960, Note_on_c, 0, 58, 0
4, 72960, Note_on_c, 0, 63, 0
4, 73200, Note_on_c, 0, 54, 54
4, 73200, Note_on_c, 0, 56, 54
4, 73200, Note_on_c, 0, 60, 54
4, 73200, Note_on_c, 0, 66, 54
4, 73320, Note_on_c, 0, 66, 0
4, 73320, Note_on_c, 0, 54, 0
4, 73320, Note_on_c, 0, 56, 0
4, 73320, Note_on_c, 0, 60, 0
4, 73320, Note_on_c, 0, 54, 54
4, 73320, Note_on_c, 0, 56, 54
4, 73320, Note_on_c, 0, 60, 54
4, 73320, Note_on_c, 0, 66, 54
4, 73440, Note_on_c, 0, 66, 0
4, 73440, Note_on_c, 0, 54, 0
4, 73440, Note_on_c, 0, 56, 0
4, 73440, Note_on_c, 0, 60, 0
4, 73440, Note_on_c, 0, 54, 54
4, 73440, Note_on_c, 0, 56, 54
4, 73440, Note_on_c, 0, 60, 54
4, 73440, Note_on_c, 0, 66, 54
4, 73680, Note_on_c, 0, 66, 0
4, 73680, Note_on_c, 0, 54, 0
4, 73680, Note_on_c, 0, 56, 0
4, 73680, Note_on_c, 0, 60, 0
4, 73680, Note_on_c, 0, 54, 54
4, 73680, Note_on_c, 0, 56, 54
4, 73680, Note_on_c, 0, 60, 54
4, 73680, Note_on_c, 0, 66, 54
4, 73920, Note_on_c, 0, 66, 0
4, 73920, Note_on_c, 0, 54, 0
4, 73920, Note_on_c, 0, 56, 0
4, 73920, Note_on_c, 0, 60, 0
4, 73920, Note_on_c, 0, 54, 54
4, 73920, Note_on_c, 0, 56, 54
4, 73920, Note_on_c, 0, 60, 54
4, 73920, Note_on_c, 0, 66, 54
4, 74880, Note_on_c, 0, 66, 0
4, 74880, Note_on_c, 0, 54, 0
4, 74880, Note_on_c, 0, 56, 0
4, 74880, Note_on_c, 0, 60, 0
4, 75120, Note_on_c, 0, 53, 54
4, 75120, Note_on_c, 0, 56, 54
4, 75120, Note_on_c, 0, 61, 54
4, 75120, Note_on_c, 0, 65, 54
4, 75240, Note_on_c, 0, 65, 0
4, 75240, Note_on_c, 0, 53, 0
4, 75240, Note_on_c, 0, 56, 0
4, 75240, Note_on_c, 0, 61, 0
4, 75240, Note_on_c, 0, 53, 54
4, 75240, Note_on_c, 0, 56, 54
4, 75240, Note_on_c, 0, 61, 54
4, 75240, Note_on_c, 0, 65, 54
4, 75360, Note_on_c, 0, 65, 0
4, 75360, Note_on_c, 0, 53, 0
4, 75360, Note_on_c, 0, 56, 0
4, 75360, Note_on_c, 0, 61, 0
4, 75360, Note_on_c, 0, 55, 54
4, 75360, Note_on_c, 0, 57, 54
4, 75360, Note_on_c, 0, 61, 54
4, 75360, Note_on_c, 0, 64, 54
4, 75840, Note_on_c, 0, 64, 0
4, 75840, Note_on_c, 0, 55, 0
4, 75840, Note_on_c, 0, 57, 0
4, 75840, Note_on_c, 0, 61, 0
4, 76080, Note_on_c, 0, 53, 54
4, 76080, Note_on_c, 0, 56, 54
4, 76080, Note_on_c, 0, 61, 54
4, 76080, Note_on_c, 0, 65, 54
4, 76200, Note_on_c, 0, 65, 0
4, 76200, Note_on_c, 0, 53, 0
4, 76200, Note_on_c, 0, 56, 0
4, 76200, Note_on_c, 0, 61, 0
4, 76200, Note_on_c, 0, 53, 54
4, 76200, Note_on_c, 0, 56, 54
4, 76200, Note_on_c, 0, 61, 54
4, 76200, Note_on_c, 0, 65, 54
4, 76320, Note_on_c, 0, 65, 0
4, 76320, Note_on_c, 0, 53, 0
4, 76320, Note_on_c, 0, 56, 0
4, 76320, Note_on_c, 0, 61, 0
4, 76320, Note_on_c, 0, 53, 54
4, 76320, Note_on_c, 0, 56, 54
4, 76320, Note_on_c, 0, 61, 54
4, 76320, Note_on_c, 0, 65, 54
4, 76560, Note_on_c, 0, 65, 0
4, 76560, Note_on_c, 0, 53, 0
4, 76560, Note_on_c, 0, 56, 0
4, 76560, Note_on_c, 0, 61, 0
4, 76560, Note_on_c, 0, 53, 54
4, 76560, Note_on_c, 0, 56, 54
4, 76560, Note_on_c, 0, 61, 54
4, 76560, Note_on_c, 0, 65, 54
4, 76800, Note_on_c, 0, 65, 0
4, 76800, Note_on_c, 0, 53, 0
4, 76800, Note_on_c, 0, 56, 0
4, 76800, Note_on_c, 0, 61, 0
4, 76800, Note_on_c, 0, 45, 67
4, 76847, Note_on_c, 0, 45, 0
4, 77040, Note_on_c, 0, 52, 67
4, 77087, Note_on_c, 0, 52, 0
4, 77280, Note_on_c, 0, 45, 67
4, 77327, Note_on_c, 0, 45, 0
4, 77520, Note_on_c, 0, 52, 67
4, 77567, Note_on_c, 0, 52, 0
4, 77760, Note_on_c, 0, 45, 67
4, 77807, Note_on_c, 0, 45, 0
4, 78000, Note_on_c, 0, 52, 67
4, 78047, Note_on_c, 0, 52, 0
4, 78240, Note_on_c, 0, 45, 67
4, 78287, Note_on_c, 0, 45, 0
4, 78480, Note_on_c, 0, 52, 67
4, 78527, Note_on_c, 0, 52, 0
4, 78720, Note_on_c, 0, 45, 67
4, 78767, Note_on_c, 0, 45, 0
4, 78960, Note_on_c, 0, 52, 67
4, 79007, Note_on_c, 0, 52, 0
4, 79200, Note_on_c, 0, 45, 67
4, 79247, Note_on_c, 0, 45, 0
4, 79440, Note_on_c, 0, 52, 67
4, 79487, Note_on_c, 0, 52, 0
4, 79680, Note_on_c, 0, 45, 67
4, 79727, Note_on_c, 0, 45, 0
4, 79920, Note_on_c, 0, 52, 67
4, 79967, Note_on_c, 0, 52, 0
4, 80160, Note_on_c, 0, 45, 67
4, 80207, Note_on_c, 0, 45, 0
4, 80400, Note_on_c, 0, 52, 67
4, 80447, Note_on_c, 0, 52, 0
4, 80640, Note_on_c, 0, 45, 67
4, 80687, Note_on_c, 0, 45, 0
4, 80880, Note_on_c, 0, 52, 67
4, 80927, Note_on_c, 0, 52, 0
4, 81120, Note_on_c, 0, 45, 67
4, 81167, Note_on_c, 0, 45, 0
4, 81360, Note_on_c, 0, 52, 67
4, 81407, Note_on_c, 0, 52, 0
4, 81600, Note_on_c, 0, 45, 67
4, 81647, Note_on_c, 0, 45, 0
4, 81840, Note_on_c, 0, 52, 67
4, 81887, Note_on_c, 0, 52, 0
4, 82080, Note_on_c, 0, 45, 67
4, 82127, Note_on_c, 0, 45, 0
4, 82320, Note_on_c, 0, 52, 67
4, 82367, Note_on_c, 0, 52, 0
4, 82560, Note_on_c, 0, 45, 67
4, 82607, Note_on_c, 0, 45, 0
4, 82800, Note_on_c, 0, 52, 67
4, 82847, Note_on_c, 0, 52, 0
4, 83040, Note_on_c, 0, 45, 67
4, 83087, Note_on_c, 0, 45, 0
4, 83280, Note_on_c, 0, 52, 67
4, 83327, Note_on_c, 0, 52, 0
4, 83520, Note_on_c, 0, 45, 67
4, 83567, Note_on_c, 0, 45, 0
4, 83760, Note_on_c, 0, 52, 67
4, 83807, Note_on_c, 0, 52, 0
4, 84000, Note_on_c, 0, 45, 67
4, 84047, Note_on_c, 0, 45, 0
4, 84240, Note_on_c, 0, 52, 67
4, 84287, Note_on_c, 0, 52, 0
4, 84480, Note_on_c, 0, 45, 67
4, 84527, Note_on_c, 0, 45, 0
4, 84720, Note_on_c, 0, 52, 67
4, 84767, Note_on_c, 0, 52, 0
4, 84960, Note_on_c, 0, 45, 67
4, 85007, Note_on_c, 0, 45, 0
4, 85200, Note_on_c, 0, 52, 67
4, 85247, Note_on_c, 0, 52, 0
4, 85440, Note_on_c, 0, 45, 67
4, 85487, Note_on_c, 0, 45, 0
4, 85680, Note_on_c, 0, 52, 67
4, 85727, Note_on_c, 0, 52, 0
4, 85920, Note_on_c, 0, 45, 67
4, 85967, Note_on_c, 0, 45, 0
4, 86160, Note_on_c, 0, 52, 67
4, 86207, Note_on_c, 0, 52, 0
4, 86400, Note_on_c, 0, 45, 67
4, 86447, Note_on_c, 0, 45, 0
4, 86640, Note_on_c, 0, 52, 67
4, 86687, Note_on_c, 0, 52, 0
4, 86880, Note_on_c, 0, 45, 67
4, 86927, Note_on_c, 0, 45, 0
4, 87120, Note_on_c, 0, 52, 67
4, 87167, Note_on_c, 0, 52, 0
4, 87360, Note_on_c, 0, 45, 67
4, 87407, Note_on_c, 0, 45, 0
4, 87600, Note_on_c, 0, 52, 67
4, 87647, Note_on_c, 0, 52, 0
4, 87840, Note_on_c, 0, 45, 67
4, 87887, Note_on_c, 0, 45, 0
4, 88080, Note_on_c, 0, 52, 67
4, 88127, Note_on_c, 0, 52, 0
4, 88320, Note_on_c, 0, 45, 67
4, 88367, Note_on_c, 0, 45, 0
4, 88560, Note_on_c, 0, 52, 67
4, 88607, Note_on_c, 0, 52, 0
4, 88800, Note_on_c, 0, 45, 67
4, 88847, Note_on_c, 0, 45, 0
4, 89040, Note_on_c, 0, 52, 67
4, 89087, Note_on_c, 0, 52, 0
4, 89280, Note_on_c, 0, 45, 67
4, 89327, Note_on_c, 0, 45, 0
4, 89520, Note_on_c, 0, 52, 67
4, 89567, Note_on_c, 0, 52, 0
4, 89760, Note_on_c, 0, 45, 67
4, 89807, Note_on_c, 0, 45, 0
4, 90000, Note_on_c, 0, 52, 67
4, 90047, Note_on_c, 0, 52, 0
4, 90240, Note_on_c, 0, 45, 67
4, 90287, Note_on_c, 0, 45, 0
4, 90480, Note_on_c, 0, 52, 67
4, 90527, Note_on_c, 0, 52, 0
4, 90720, Note_on_c, 0, 45, 67
4, 90767, Note_on_c, 0, 45, 0
4, 90960, Note_on_c, 0, 52, 67
4, 91007, Note_on_c, 0, 52, 0
4, 91200, Note_on_c, 0, 45, 67
4, 91247, Note_on_c, 0, 45, 0
4, 91440, Note_on_c, 0, 52, 67
4, 91487, Note_on_c, 0, 52, 0
4, 91680, Note_on_c, 0, 45, 67
4, 91727, Note_on_c, 0, 45, 0
4, 91920, Note_on_c, 0, 57, 93
4, 92040, Note_on_c, 0, 57, 0
4, 92040, Note_on_c, 0, 59, 93
4, 92160, Note_on_c, 0, 59, 0
4, 92160, Note_on_c, 0, 61, 93
4, 92400, Note_on_c, 0, 61, 0
4, 92400, Note_on_c, 0, 61, 93
4, 92640, Note_on_c, 0, 61, 0
4, 92640, Note_on_c, 0, 61, 93
4, 92880, Note_on_c, 0, 61, 0
4, 92880, Note_on_c, 0, 42, 93
4, 92880, Note_on_c, 0, 54, 93
4, 93120, Note_on_c, 0, 54, 0
4, 93120, Note_on_c, 0, 42, 0
4, 93120, Note_on_c, 0, 37, 93
4, 93120, Note_on_c, 0, 49, 93
4, 93360, Note_on_c, 0, 49, 0
4, 93360, Note_on_c, 0, 37, 0
4, 93360, Note_on_c, 0, 37, 93
4, 93360, Note_on_c, 0, 49, 93
4, 93600, Note_on_c, 0, 49, 0
4, 93600, Note_on_c, 0, 37, 0
4, 93600, Note_on_c, 0, 37, 93
4, 93600, Note_on_c, 0, 49, 93
4, 93840, Note_on_c, 0, 49, 0
4, 93840, Note_on_c, 0, 37, 0
4, 93840, Note_on_c, 0, 57, 93
4, 93960, Note_on_c, 0, 57, 0
4, 93960, Note_on_c, 0, 59, 93
4, 94080, Note_on_c, 0, 59, 0
4, 94080, Note_on_c, 0, 61, 93
4, 94320, Note_on_c, 0, 61, 0
4, 94320, Note_on_c, 0, 61, 93
4, 94560, Note_on_c, 0, 61, 0
4, 94560, Note_on_c, 0, 61, 93
4, 94800, Note_on_c, 0, 61, 0
4, 94800, Note_on_c, 0, 42, 93
4, 94800, Note_on_c, 0, 54, 93
4, 95040, Note_on_c, 0, 54, 0
4, 95040, Note_on_c, 0, 42, 0
4, 95040, Note_on_c, 0, 37, 93
4, 95040, Note_on_c, 0, 49, 93
4, 95280, Note_on_c, 0, 49, 0
4, 95280, Note_on_c, 0, 37, 0
4, 95280, Note_on_c, 0, 37, 93
4, 95280, Note_on_c, 0, 49, 93
4, 95520, Note_on_c, 0, 49, 0
4, 95520, Note_on_c, 0, 37, 0
4, 95520, Note_on_c, 0, 37, 93
4, 95520, Note_on_c, 0, 49, 93
4, 95760, Note_on_c, 0, 49, 0
4, 95760, Note_on_c, 0, 37, 0
4, 95760, Note_on_c, 0, 61, 93
4, 95880, Note_on_c, 0, 61, 0
4, 95880, Note_on_c, 0, 63, 93
4, 96000, Note_on_c, 0, 63, 0
4, 96000, Note_on_c, 0, 65, 93
4, 96240, Note_on_c, 0, 65, 0
4, 96240, Note_on_c, 0, 65, 93
4, 96480, Note_on_c, 0, 65, 0
4, 96480, Note_on_c, 0, 65, 93
4, 96720, Note_on_c, 0, 65, 0
4, 96720, Note_on_c, 0, 46, 93
4, 96720, Note_on_c, 0, 58, 93
4, 96960, Note_on_c, 0, 58, 0
4, 96960, Note_on_c, 0, 46, 0
4, 96960, Note_on_c, 0, 41, 93
4, 96960, Note_on_c, 0, 53, 93
4, 97200, Note_on_c, 0, 53, 0
4, 97200, Note_on_c, 0, 41, 0
4, 97200, Note_on_c, 0, 41, 93
4, 97200, Note_on_c, 0, 53, 93
4, 97440, Note_on_c, 0, 53, 0
4, 97440, Note_on_c, 0, 41, 0
4, 97440, Note_on_c, 0, 41, 93
4, 97440, Note_on_c, 0, 53, 93
4, 97680, Note_on_c, 0, 53, 0
4, 97680, Note_on_c, 0, 41, 0
4, 97680, Note_on_c, 0, 61, 93
4, 97800, Note_on_c, 0, 61, 0
4, 97800, Note_on_c, 0, 63, 93
4, 97920, Note_on_c, 0, 63, 0
4, 97920, Note_on_c, 0, 65, 93
4, 98160, Note_on_c, 0, 65, 0
4, 98160, Note_on_c, 0, 65, 93
4, 98400, Note_on_c, 0, 65, 0
4, 98400, Note_on_c, 0, 65, 93
4, 98640, Note_on_c, 0, 65, 0
4, 98640, Note_on_c, 0, 46, 93
4, 98640, Note_on_c, 0, 58, 93
4, 98880, Note_on_c, 0, 58, 0
4, 98880, Note_on_c, 0, 46, 0
4, 98880, Note_on_c, 0, 41, 93
4, 98880, Note_on_c, 0, 53, 93
4, 99120, Note_on_c, 0, 53, 0
4, 99120, Note_on_c, 0, 41, 0
4, 99120, Note_on_c, 0, 41, 93
4, 99120, Note_on_c, 0, 53, 93
4, 99360, Note_on_c, 0, 53, 0
4, 99360, Note_on_c, 0, 41, 0
4, 99360, Note_on_c, 0, 41, 93
4, 99360, Note_on_c, 0, 53, 93
4, 99600, Note_on_c, 0, 53, 0
4, 99600, Note_on_c, 0, 41, 0
4, 99600, Note_on_c, 0, 53, 67
4, 99623, Note_on_c, 0, 53, 0
4, 99720, Note_on_c, 0, 54, 67
4, 99743, Note_on_c, 0, 54, 0
4, 99840, Note_on_c, 0, 49, 67
4, 99840, Note_on_c, 0, 56, 67
4, 99887, Note_on_c, 0, 56, 0
4, 99887, Note_on_c, 0, 49, 0
4, 100080, Note_on_c, 0, 56, 67
4, 100127, Note_on_c, 0, 56, 0
4, 100320, Note_on_c, 0, 56, 67
4, 100367, Note_on_c, 0, 56, 0
4, 100560, Note_on_c, 0, 65, 67
4, 100583, Note_on_c, 0, 65, 0
4, 100680, Note_on_c, 0, 66, 67
4, 100703, Note_on_c, 0, 66, 0
4, 100800, Note_on_c, 0, 56, 67
4, 100800, Note_on_c, 0, 61, 67
4, 100800, Note_on_c, 0, 65, 67
4, 100800, Note_on_c, 0, 68, 67
4, 100847, Note_on_c, 0, 68, 0
4, 100847, Note_on_c, 0, 56, 0
4, 100847, Note_on_c, 0, 61, 0
4, 100847, Note_on_c, 0, 65, 0
4, 101040, Note_on_c, 0, 68, 67
4, 101087, Note_on_c, 0, 68, 0
4, 101280, Note_on_c, 0, 68, 67
4, 101327, Note_on_c, 0, 68, 0
4, 101520, Note_on_c, 0, 55, 67
4, 101543, Note_on_c, 0, 55, 0
4, 101640, Note_on_c, 0, 56, 67
4, 101663, Note_on_c, 0, 56, 0
4, 101760, Note_on_c, 0, 49, 67
4, 101807, Note_on_c, 0, 49, 0
4, 102000, Note_on_c, 0, 58, 67
4, 102047, Note_on_c, 0, 58, 0
4, 102240, Note_on_c, 0, 58, 67
4, 102287, Note_on_c, 0, 58, 0
4, 102480, Note_on_c, 0, 63, 67
4, 102503, Note_on_c, 0, 63, 0
4, 102600, Note_on_c, 0, 65, 67
4, 102623, Note_on_c, 0, 65, 0
4, 102720, Note_on_c, 0, 58, 67
4, 102720, Note_on_c, 0, 63, 67
4, 102720, Note_on_c, 0, 67, 67
4, 102767, Note_on_c, 0, 67, 0
4, 102767, Note_on_c, 0, 63, 0
4, 102767, Note_on_c, 0, 58, 0
4, 102960, Note_on_c, 0, 67, 67
4, 103007, Note_on_c, 0, 67, 0
4, 103200, Note_on_c, 0, 67, 67
4, 103247, Note_on_c, 0, 67, 0
4, 103440, Note_on_c, 0, 57, 67
4, 103463, Note_on_c, 0, 57, 0
4, 103560, Note_on_c, 0, 58, 67
4, 103583, Note_on_c, 0, 58, 0
4, 103680, Note_on_c, 0, 49, 67
4, 103727, Note_on_c, 0, 49, 0
4, 103920, Note_on_c, 0, 60, 67
4, 103967, Note_on_c, 0, 60, 0
4, 104160, Note_on_c, 0, 60, 67
4, 104207, Note_on_c, 0, 60, 0
4, 104400, Note_on_c, 0, 63, 67
4, 104423, Note_on_c, 0, 63, 0
4, 104520, Note_on_c, 0, 65, 67
4, 104543, Note_on_c, 0, 65, 0
4, 104640, Note_on_c, 0, 66, 67
4, 104687, Note_on_c, 0, 66, 0
4, 104880, Note_on_c, 0, 66, 67
4, 104927, Note_on_c, 0, 66, 0
4, 105120, Note_on_c, 0, 66, 67
4, 105167, Note_on_c, 0, 66, 0
4, 105360, Note_on_c, 0, 58, 67
4, 105383, Note_on_c, 0, 58, 0
4, 105480, Note_on_c, 0, 60, 67
4, 105503, Note_on_c, 0, 60, 0
4, 105600, Note_on_c, 0, 49, 67
4, 105647, Note_on_c, 0, 49, 0
4, 105840, Note_on_c, 0, 61, 67
4, 105887, Note_on_c, 0, 61, 0
4, 106080, Note_on_c, 0, 56, 67
4, 106080, Note_on_c, 0, 61, 67
4, 106080, Note_on_c, 0, 65, 67
4, 106127, Note_on_c, 0, 65, 0
4, 106127, Note_on_c, 0, 61, 0
4, 106127, Note_on_c, 0, 56, 0
4, 107040, Note_on_c, 0, 56, 67
4, 107040, Note_on_c, 0, 60, 67
4, 107040, Note_on_c, 0, 66, 67
4, 107087, Note_on_c, 0, 66, 0
4, 107087, Note_on_c, 0, 60, 0
4, 107087, Note_on_c, 0, 56, 0
4, 107280, Note_on_c, 0, 53, 67
4, 107303, Note_on_c, 0, 53, 0
4, 107400, Note_on_c, 0, 54, 67
4, 107423, Note_on_c, 0, 54, 0
4, 107520, Note_on_c, 0, 49, 67
4, 107567, Note_on_c, 0, 49, 0
4, 107760, Note_on_c, 0, 56, 67
4, 107807, Note_on_c, 0, 56, 0
4, 108000, Note_on_c, 0, 56, 67
4, 108047, Note_on_c, 0, 56, 0
4, 108240, Note_on_c, 0, 65, 67
4, 108263, Note_on_c, 0, 65, 0
4, 108360, Note_on_c, 0, 66, 67
4, 108383, Note_on_c, 0, 66, 0
4, 108480, Note_on_c, 0, 56, 67
4, 108480, Note_on_c, 0, 61, 67
4, 108480, Note_on_c, 0, 65, 67
4, 108480, Note_on_c, 0, 68, 67
4, 108527, Note_on_c, 0, 68, 0
4, 108527, Note_on_c, 0, 56, 0
4, 108527, Note_on_c, 0, 61, 0
4, 108527, Note_on_c, 0, 65, 0
4, 108720, Note_on_c, 0, 68, 67
4, 108767, Note_on_c, 0, 68, 0
4, 108960, Note_on_c, 0, 68, 67
4, 109007, Note_on_c, 0, 68, 0
4, 109200, Note_on_c, 0, 55, 67
4, 109223, Note_on_c, 0, 55, 0
4, 109320, Note_on_c, 0, 56, 67
4, 109343, Note_on_c, 0, 56, 0
4, 109440, Note_on_c, 0, 49, 67
4, 109487, Note_on_c, 0, 49, 0
4, 109680, Note_on_c, 0, 58, 67
4, 109727, Note_on_c, 0, 58, 0
4, 109920, Note_on_c, 0, 58, 67
4, 109967, Note_on_c, 0, 58, 0
4, 110160, Note_on_c, 0, 63, 67
4, 110183, Note_on_c, 0, 63, 0
4, 110280, Note_on_c, 0, 65, 67
4, 110303, Note_on_c, 0, 65, 0
4, 110400, Note_on_c, 0, 58, 67
4, 110400, Note_on_c, 0, 63, 67
4, 110400, Note_on_c, 0, 67, 67
4, 110447, Note_on_c, 0, 67, 0
4, 110447, Note_on_c, 0, 63, 0
4, 110447, Note_on_c, 0, 58, 0
4, 110640, Note_on_c, 0, 67, 67
4, 110687, Note_on_c, 0, 67, 0
4, 110880, Note_on_c, 0, 67, 67
4, 110927, Note_on_c, 0, 67, 0
4, 111120, Note_on_c, 0, 57, 67
4, 111143, Note_on_c, 0, 57, 0
4, 111240, Note_on_c, 0, 58, 67
4, 111263, Note_on_c, 0, 58, 0
4, 111360, Note_on_c, 0, 49, 67
4, 111407, Note_on_c, 0, 49, 0
4, 111600, Note_on_c, 0, 60, 67
4, 111647, Note_on_c, 0, 60, 0
4, 111840, Note_on_c, 0, 60, 67
4, 111887, Note_on_c, 0, 60, 0
4, 112080, Note_on_c, 0, 63, 67
4, 112103, Note_on_c, 0, 63, 0
4, 112200, Note_on_c, 0, 65, 67
4, 112223, Note_on_c, 0, 65, 0
4, 112320, Note_on_c, 0, 66, 67
4, 112367, Note_on_c, 0, 66, 0
4, 112560, Note_on_c, 0, 66, 67
4, 112607, Note_on_c, 0, 66, 0
4, 112800, Note_on_c, 0, 66, 67
4, 112847, Note_on_c, 0, 66, 0
4, 113040, Note_on_c, 0, 58, 67
4, 113063, Note_on_c, 0, 58, 0
4, 113160, Note_on_c, 0, 60, 67
4, 113183, Note_on_c, 0, 60, 0
4, 113280, Note_on_c, 0, 49, 67
4, 113280, Note_on_c, 0, 53, 67
4, 113280, Note_on_c, 0, 56, 67
4, 113280, Note_on_c, 0, 61, 67
4, 113327, Note_on_c, 0, 61, 0
4, 113327, Note_on_c, 0, 49, 0
4, 113327, Note_on_c, 0, 53, 0
4, 113327, Note_on_c, 0, 56, 0
4, 113520, Note_on_c, 0, 61, 67
4, 113567, Note_on_c, 0, 61, 0
4, 113760, Note_on_c, 0, 55, 54
4, 113760, Note_on_c, 0, 61, 54
4, 113760, Note_on_c, 0, 64, 54
4, 114000, Note_on_c, 0, 64, 0
4, 114000, Note_on_c, 0, 61, 0
4, 114000, Note_on_c, 0, 55, 0
4, 114180, Note_on_c, 0, 49, 54
4, 114240, Note_on_c, 0, 56, 54
4, 114240, Note_on_c, 0, 61, 54
4, 114240, Note_on_c, 0, 65, 54
4, 115200, Note_on_c, 0, 65, 0
4, 115200, Note_on_c, 0, 49, 0
4, 115200, Note_on_c, 0, 56, 0
4, 115200, Note_on_c, 0, 61, 0
4, 115440, Note_on_c, 0, 56, 54
4, 115440, Note_on_c, 0, 61, 54
4, 115440, Note_on_c, 0, 65, 54
4, 115440, Note_on_c, 0, 68, 54
4, 115560, Note_on_c, 0, 68, 0
4, 115560, Note_on_c, 0, 56, 0
4, 115560, Note_on_c, 0, 61, 0
4, 115560, Note_on_c, 0, 65, 0
4, 115560, Note_on_c, 0, 56, 54
4, 115560, Note_on_c, 0, 61, 54
4, 115560, Note_on_c, 0, 65, 54
4, 115560, Note_on_c, 0, 68, 54
4, 115680, Note_on_c, 0, 68, 0
4, 115680, Note_on_c, 0, 56, 0
4, 115680, Note_on_c, 0, 61, 0
4, 115680, Note_on_c, 0, 65, 0
4, 115680, Note_on_c, 0, 56, 54
4, 115680, Note_on_c, 0, 61, 54
4, 115680, Note_on_c, 0, 65, 54
4, 115680, Note_on_c, 0, 68, 54
4, 115920, Note_on_c, 0, 68, 0
4, 115920, Note_on_c, 0, 56, 0
4, 115920, Note_on_c, 0, 61, 0
4, 115920, Note_on_c, 0, 65, 0
4, 115920, Note_on_c, 0, 56, 54
4, 115920, Note_on_c, 0, 61, 54
4, 115920, Note_on_c, 0, 65, 54
4, 115920, Note_on_c, 0, 68, 54
4, 116160, Note_on_c, 0, 68, 0
4, 116160, Note_on_c, 0, 56, 0
4, 116160, Note_on_c, 0, 61, 0
4, 116160, Note_on_c, 0, 65, 0
4, 116160, Note_on_c, 0, 56, 54
4, 116160, Note_on_c, 0, 61, 54
4, 116160, Note_on_c, 0, 65, 54
4, 116160, Note_on_c, 0, 68, 54
4, 117120, Note_on_c, 0, 68, 0
4, 117120, Note_on_c, 0, 56, 0
4, 117120, Note_on_c, 0, 61, 0
4, 117120, Note_on_c, 0, 65, 0
4, 117360, Note_on_c, 0, 55, 54
4, 117360, Note_on_c, 0, 58, 54
4, 117360, Note_on_c, 0, 63, 54
4, 117360, Note_on_c, 0, 67, 54
4, 117480, Note_on_c, 0, 67, 0
4, 117480, Note_on_c, 0, 55, 0
4, 117480, Note_on_c, 0, 58, 0
4, 117480, Note_on_c, 0, 63, 0
4, 117480, Note_on_c, 0, 55, 54
4, 117480, Note_on_c, 0, 58, 54
4, 117480, Note_on_c, 0, 63, 54
4, 117480, Note_on_c, 0, 67, 54
4, 117600, Note_on_c, 0, 67, 0
4, 117600, Note_on_c, 0, 55, 0
4, 117600, Note_on_c, 0, 58, 0
4, 117600, Note_on_c, 0, 63, 0
4, 117600, Note_on_c, 0, 55, 54
4, 117600, Note_on_c, 0, 58, 54
4, 117600, Note_on_c, 0, 63, 54
4, 117600, Note_on_c, 0, 67, 54
4, 117840, Note_on_c, 0, 67, 0
4, 117840, Note_on_c, 0, 55, 0
4, 117840, Note_on_c, 0, 58, 0
4, 117840, Note_on_c, 0, 63, 0
4, 117840, Note_on_c, 0, 55, 54
4, 117840, Note_on_c, 0, 58, 54
4, 117840, Note_on_c, 0, 63, 54
4, 117840, Note_on_c, 0, 67, 54
4, 118080, Note_on_c, 0, 67, 0
4, 118080, Note_on_c, 0, 55, 0
4, 118080, Note_on_c, 0, 58, 0
4, 118080, Note_on_c, 0, 63, 0
4, 118080, Note_on_c, 0, 55, 54
4, 118080, Note_on_c, 0, 58, 54
4, 118080, Note_on_c, 0, 63, 54
4, 118080, Note_on_c, 0, 67, 54
4, 119040, Note_on_c, 0, 67, 0
4, 119040, Note_on_c, 0, 55, 0
4, 119040, Note_on_c, 0, 58, 0
4, 119040, Note_on_c, 0, 63, 0
4, 119280, Note_on_c, 0, 54, 54
4, 119280, Note_on_c, 0, 56, 54
4, 119280, Note_on_c, 0, 60, 54
4, 119280, Note_on_c, 0, 66, 54
4, 119400, Note_on_c, 0, 66, 0
4, 119400, Note_on_c, 0, 54, 0
4, 119400, Note_on_c, 0, 56, 0
4, 119400, Note_on_c, 0, 60, 0
4, 119400, Note_on_c, 0, 54, 54
4, 119400, Note_on_c, 0, 56, 54
4, 119400, Note_on_c, 0, 60, 54
4, 119400, Note_on_c, 0, 66, 54
4, 119520, Note_on_c, 0, 66, 0
4, 119520, Note_on_c, 0, 54, 0
4, 119520, Note_on_c, 0, 56, 0
4, 119520, Note_on_c, 0, 60, 0
4, 119520, Note_on_c, 0, 54, 54
4, 119520, Note_on_c, 0, 56, 54
4, 119520, Note_on_c, 0, 60, 54
4, 119520, Note_on_c, 0, 66, 54
4, 119760, Note_on_c, 0, 66, 0
4, 119760, Note_on_c, 0, 54, 0
4, 119760, Note_on_c, 0, 56, 0
4, 119760, Note_on_c, 0, 60, 0
4, 119760, Note_on_c, 0, 54, 54
4, 119760, Note_on_c, 0, 56, 54
4, 119760, Note_on_c, 0, 60, 54
4, 119760, Note_on_c, 0, 66, 54
4, 120000, Note_on_c, 0, 66, 0
4, 120000, Note_on_c, 0, 54, 0
4, 120000, Note_on_c, 0, 56, 0
4, 120000, Note_on_c, 0, 60, 0
4, 120000, Note_on_c, 0, 54, 54
4, 120000, Note_on_c, 0, 56, 54
4, 120000, Note_on_c, 0, 60, 54
4, 120000, Note_on_c, 0, 66, 54
4, 120960, Note_on_c, 0, 66, 0
4, 120960, Note_on_c, 0, 54, 0
4, 120960, Note_on_c, 0, 56, 0
4, 120960, Note_on_c, 0, 60, 0
4, 121200, Note_on_c, 0, 53, 54
4, 121200, Note_on_c, 0, 56, 54
4, 121200, Note_on_c, 0, 61, 54
4, 121200, Note_on_c, 0, 65, 54
4, 121320, Note_on_c, 0, 65, 0
4, 121320, Note_on_c, 0, 53, 0
4, 121320, Note_on_c, 0, 56, 0
4, 121320, Note_on_c, 0, 61, 0
4, 121320, Note_on_c, 0, 53, 54
4, 121320, Note_on_c, 0, 56, 54
4, 121320, Note_on_c, 0, 61, 54
4, 121320, Note_on_c, 0, 65, 54
4, 121440, Note_on_c, 0, 65, 0
4, 121440, Note_on_c, 0, 53, 0
4, 121440, Note_on_c, 0, 56, 0
4, 121440, Note_on_c, 0, 61, 0
4, 121440, Note_on_c, 0, 53, 54
4, 121440, Note_on_c, 0, 56, 54
4, 121440, Note_on_c, 0, 61, 54
4, 121440, Note_on_c, 0, 65, 54
4, 121680, Note_on_c, 0, 65, 0
4, 121680, Note_on_c, 0, 53, 0
4, 121680, Note_on_c, 0, 56, 0
4, 121680, Note_on_c, 0, 61, 0
4, 121680, Note_on_c, 0, 53, 54
4, 121680, Note_on_c, 0, 56, 54
4, 121680, Note_on_c, 0, 61, 54
4, 121680, Note_on_c, 0, 65, 54
4, 121920, Note_on_c, 0, 65, 0
4, 121920, Note_on_c, 0, 53, 0
4, 121920, Note_on_c, 0, 56, 0
4, 121920, Note_on_c, 0, 61, 0
4, 121920, Note_on_c, 0, 55, 54
4, 121920, Note_on_c, 0, 57, 54
4, 121920, Note_on_c, 0, 61, 54
4, 121920, Note_on_c, 0, 64, 54
4, 122880, Note_on_c, 0, 64, 0
4, 122880, Note_on_c, 0, 55, 0
4, 122880, Note_on_c, 0, 57, 0
4, 122880, Note_on_c, 0, 61, 0
4, 123120, Note_on_c, 0, 56, 54
4, 123120, Note_on_c, 0, 61, 54
4, 123120, Note_on_c, 0, 65, 54
4, 123120, Note_on_c, 0, 68, 54
4, 123240, Note_on_c, 0, 68, 0
4, 123240, Note_on_c, 0, 56, 0
4, 123240, Note_on_c, 0, 61, 0
4, 123240, Note_on_c, 0, 65, 0
4, 123240, Note_on_c, 0, 56, 54
4, 123240, Note_on_c, 0, 61, 54
4, 123240, Note_on_c, 0, 65, 54
4, 123240, Note_on_c, 0, 68, 54
4, 123360, Note_on_c, 0, 68, 0
4, 123360, Note_on_c, 0, 56, 0
4, 123360, Note_on_c, 0, 61, 0
4, 123360, Note_on_c, 0, 65, 0
4, 123360, Note_on_c, 0, 56, 54
4, 123360, Note_on_c, 0, 61, 54
4, 123360, Note_on_c, 0, 65, 54
4, 123360, Note_on_c, 0, 68, 54
4, 123600, Note_on_c, 0, 68, 0
4, 123600, Note_on_c, 0, 56, 0
4, 123600, Note_on_c, 0, 61, 0
4, 123600, Note_on_c, 0, 65, 0
4, 123600, Note_on_c, 0, 56, 54
4, 123600, Note_on_c, 0, 61, 54
4, 123600, Note_on_c, 0, 65, 54
4, 123600, Note_on_c, 0, 68, 54
4, 123840, Note_on_c, 0, 68, 0
4, 123840, Note_on_c, 0, 56, 0
4, 123840, Note_on_c, 0, 61, 0
4, 123840, Note_on_c, 0, 65, 0
4, 123840, Note_on_c, 0, 56, 54
4, 123840, Note_on_c, 0, 61, 54
4, 123840, Note_on_c, 0, 65, 54
4, 123840, Note_on_c, 0, 68, 54
4, 124800, Note_on_c, 0, 68, 0
4, 124800, Note_on_c, 0, 56, 0
4, 124800, Note_on_c, 0, 61, 0
4, 124800, Note_on_c, 0, 65, 0
4, 125040, Note_on_c, 0, 55, 54
4, 125040, Note_on_c, 0, 58, 54
4, 125040, Note_on_c, 0, 63, 54
4, 125040, Note_on_c, 0, 67, 54
4, 125160, Note_on_c, 0, 67, 0
4, 125160, Note_on_c, 0, 55, 0
4, 125160, Note_on_c, 0, 58, 0
4, 125160, Note_on_c, 0, 63, 0
4, 125160, Note_on_c, 0, 55, 54
4, 125160, Note_on_c, 0, 58, 54
4, 125160, Note_on_c, 0, 63, 54
4, 125160, Note_on_c, 0, 67, 54
4, 125280, Note_on_c, 0, 67, 0
4, 125280, Note_on_c, 0, 55, 0
4, 125280, Note_on_c, 0, 58, 0
4, 125280, Note_on_c, 0, 63, 0
4, 125280, Note_on_c, 0, 55, 54
4, 125280, Note_on_c, 0, 58, 54
4, 125280, Note_on_c, 0, 63, 54
4, 125280, Note_on_c, 0, 67, 54
4, 125520, Note_on_c, 0, 67, 0
4, 125520, Note_on_c, 0, 55, 0
4, 125520, Note_on_c, 0, 58, 0
4, 125520, Note_on_c, 0, 63, 0
4, 125520, Note_on_c, 0, 55, 54
4, 125520, Note_on_c, 0, 58, 54
4, 125520, Note_on_c, 0, 63, 54
4, 125520, Note_on_c, 0, 67, 54
4, 125760, Note_on_c, 0, 67, 0
4, 125760, Note_on_c, 0, 55, 0
4, 125760, Note_on_c, 0, 58, 0
4, 125760, Note_on_c, 0, 63, 0
4, 125760, Note_on_c, 0, 55, 54
4, 125760, Note_on_c, 0, 58, 54
4, 125760, Note_on_c, 0, 63, 54
4, 125760, Note_on_c, 0, 67, 54
4, 126720, Note_on_c, 0, 67, 0
4, 126720, Note_on_c, 0, 55, 0
4, 126720, Note_on_c, 0, 58, 0
4, 126720, Note_on_c, 0, 63, 0
4, 126960, Note_on_c, 0, 54, 54
4, 126960, Note_on_c, 0, 56, 54
4, 126960, Note_on_c, 0, 60, 54
4, 126960, Note_on_c, 0, 66, 54
4, 127080, Note_on_c, 0, 66, 0
4, 127080, Note_on_c, 0, 54, 0
4, 127080, Note_on_c, 0, 56, 0
4, 127080, Note_on_c, 0, 60, 0
4, 127080, Note_on_c, 0, 54, 54
4, 127080, Note_on_c, 0, 56, 54
4, 127080, Note_on_c, 0, 60, 54
4, 127080, Note_on_c, 0, 66, 54
4, 127200, Note_on_c, 0, 66, 0
4, 127200, Note_on_c, 0, 54, 0
4, 127200, Note_on_c, 0, 56, 0
4, 127200, Note_on_c, 0, 60, 0
4, 127200, Note_on_c, 0, 54, 54
4, 127200, Note_on_c, 0, 56, 54
4, 127200, Note_on_c, 0, 60, 54
4, 127200, Note_on_c, 0, 66, 54
4, 127440, Note_on_c, 0, 66, 0
4, 127440, Note_on_c, 0, 54, 0
4, 127440, Note_on_c, 0, 56, 0
4, 127440, Note_on_c, 0, 60, 0
4, 127440, Note_on_c, 0, 54, 54
4, 127440, Note_on_c, 0, 56, 54
4, 127440, Note_on_c, 0, 60, 54
4, 127440, Note_on_c, 0, 66, 54
4, 127680, Note_on_c, 0, 66, 0
4, 127680, Note_on_c, 0, 54, 0
4, 127680, Note_on_c, 0, 56, 0
4, 127680, Note_on_c, 0, 60, 0
4, 127680, Note_on_c, 0, 54, 54
4, 127680, Note_on_c, 0, 56, 54
4, 127680, Note_on_c, 0, 60, 54
4, 127680, Note_on_c, 0, 66, 54
4, 128640, Note_on_c, 0, 66, 0
4, 128640, Note_on_c, 0, 54, 0
4, 128640, Note_on_c, 0, 56, 0
4, 128640, Note_on_c, 0, 60, 0
4, 128880, Note_on_c, 0, 53, 54
4, 128880, Note_on_c, 0, 56, 54
4, 128880, Note_on_c, 0, 61, 54
4, 128880, Note_on_c, 0, 65, 54
4, 129000, Note_on_c, 0, 65, 0
4, 129000, Note_on_c, 0, 53, 0
4, 129000, Note_on_c, 0, 56, 0
4, 129000, Note_on_c, 0, 61, 0
4, 129000, Note_on_c, 0, 53, 54
4, 129000, Note_on_c, 0, 56, 54
4, 129000, Note_on_c, 0, 61, 54
4, 129000, Note_on_c, 0, 65, 54
4, 129120, Note_on_c, 0, 65, 0
4, 129120, Note_on_c, 0, 53, 0
4, 129120, Note_on_c, 0, 56, 0
4, 129120, Note_on_c, 0, 61, 0
4, 129120, Note_on_c, 0, 55, 54
4, 129120, Note_on_c, 0, 57, 54
4, 129120, Note_on_c, 0, 61, 54
4, 129120, Note_on_c, 0, 64, 54
4, 129600, Note_on_c, 0, 64, 0
4, 129600, Note_on_c, 0, 55, 0
4, 129600, Note_on_c, 0, 57, 0
4, 129600, Note_on_c, 0, 61, 0
4, 129840, Note_on_c, 0, 53, 54
4, 129840, Note_on_c, 0, 56, 54
4, 129840, Note_on_c, 0, 61, 54
4, 129840, Note_on_c, 0, 65, 54
4, 129960, Note_on_c, 0, 65, 0
4, 129960, Note_on_c, 0, 53, 0
4, 129960, Note_on_c, 0, 56, 0
4, 129960, Note_on_c, 0, 61, 0
4, 129960, Note_on_c, 0, 53, 54
4, 129960, Note_on_c, 0, 56, 54
4, 129960, Note_on_c, 0, 61, 54
4, 129960, Note_on_c, 0, 65, 54
4, 130080, Note_on_c, 0, 65, 0
4, 130080, Note_on_c, 0, 53, 0
4, 130080, Note_on_c, 0, 56, 0
4, 130080, Note_on_c, 0, 61, 0
4, 130080, Note_on_c, 0, 53, 54
4, 130080, Note_on_c, 0, 57, 54
4, 130080, Note_on_c, 0, 63, 54
4, 130080, Note_on_c, 0, 65, 54
4, 130560, Note_on_c, 0, 65, 0
4, 130560, Note_on_c, 0, 53, 0
4, 130560, Note_on_c, 0, 57, 0
4, 130560, Note_on_c, 0, 63, 0
4, 130560, Note_on_c, 0, 46, 54
4, 130560, Note_on_c, 0, 58, 54
4, 130607, Note_on_c, 0, 58, 0
4, 130607, Note_on_c, 0, 46, 0
4, 130800, Note_on_c, 0, 46, 54
4, 130800, Note_on_c, 0, 53, 54
4, 130800, Note_on_c, 0, 58, 54
4, 131040, Note_on_c, 0, 58, 0
4, 131040, Note_on_c, 0, 53, 0
4, 131040, Note_on_c, 0, 46, 0
4, 131040, Note_on_c, 0, 46, 54
4, 131040, Note_on_c, 0, 53, 54
4, 131040, Note_on_c, 0, 58, 54
4, 131280, Note_on_c, 0, 58, 0
4, 131280, Note_on_c, 0, 53, 0
4, 131280, Note_on_c, 0, 46, 0
4, 131280, Note_on_c, 0, 46, 54
4, 131280, Note_on_c, 0, 53, 54
4, 131280, Note_on_c, 0, 58, 54
4, 131520, Note_on_c, 0, 58, 0
4, 131520, Note_on_c, 0, 53, 0
4, 131520, Note_on_c, 0, 46, 0
4, 131520, Control_c, 0, 64, 127
4, 131520, Note_on_c, 0, 46, 54
4, 131520, Note_on_c, 0, 53, 54
4, 131520, Note_on_c, 0, 58, 54
4, 131920, Note_on_c, 0, 46, 54
4, 131960, Note_on_c, 0, 53, 54
4, 132000, Note_on_c, 0, 58, 0
4, 132000, Note_on_c, 0, 46, 0
4, 132000, Note_on_c, 0, 53, 0
4, 132000, Note_on_c, 0, 61, 54
4, 132480, Note_on_c, 0, 61, 0
4, 132480, Note_on_c, 0, 46, 0
4, 132480, Note_on_c, 0, 53, 0
4, 132480, Control_c, 0, 64, 0
4, 132480, Note_on_c, 0, 51, 54
4, 132480, Note_on_c, 0, 58, 54
4, 132480, Note_on_c, 0, 63, 54
4, 132960, Note_on_c, 0, 63, 0
4, 132960, Note_on_c, 0, 58, 0
4, 132960, Note_on_c, 0, 51, 0
4, 132960, Note_on_c, 0, 54, 54
4, 132960, Note_on_c, 0, 58, 54
4, 133200, Note_on_c, 0, 58, 0
4, 133200, Note_on_c, 0, 54, 0
4, 133200, Note_on_c, 0, 54, 54
4, 133200, Note_on_c, 0, 58, 54
4, 133440, Note_on_c, 0, 58, 0
4, 133440, Note_on_c, 0, 54, 0
4, 133440, Note_on_c, 0, 53, 54
4, 133440, Note_on_c, 0, 58, 54
4, 133680, Note_on_c, 0, 58, 0
4, 133680, Note_on_c, 0, 53, 0
4, 133680, Note_on_c, 0, 51, 54
4, 133680, Note_on_c, 0, 58, 54
4, 133680, Note_on_c, 0, 60, 54
4, 133920, Note_on_c, 0, 60, 0
4, 133920, Note_on_c, 0, 58, 0
4, 133920, Note_on_c, 0, 51, 0
4, 133920, Note_on_c, 0, 46, 54
4, 133920, Note_on_c, 0, 53, 54
4, 133920, Note_on_c, 0, 58, 54
4, 134016, Note_on_c, 0, 58, 0
4, 134016, Note_on_c, 0, 53, 0
4, 134016, Note_on_c, 0, 46, 0
4, 134400, Note_on_c, 0, 46, 54
4, 134400, Note_on_c, 0, 53, 54
4, 134400, Note_on_c, 0, 58, 54
4, 134447, Note_on_c, 0, 58, 0
4, 134447, Note_on_c, 0, 53, 0
4, 134447, Note_on_c, 0, 46, 0
4, 134640, Note_on_c, 0, 46, 54
4, 134640, Note_on_c, 0, 53, 54
4, 134640, Note_on_c, 0, 58, 54
4, 134880, Note_on_c, 0, 58, 0
4, 134880, Note_on_c, 0, 53, 0
4, 134880, Note_on_c, 0, 46, 0
4, 134880, Note_on_c, 0, 46, 54
4, 134880, Note_on_c, 0, 53, 54
4, 134880, Note_on_c, 0, 58, 54
4, 135120, Note_on_c, 0, 58, 0
4, 135120, Note_on_c, 0, 53, 0
4, 135120, Note_on_c, 0, 46, 0
4, 135120, Note_on_c, 0, 46, 54
4, 135120, Note_on_c, 0, 53, 54
4, 135120, Note_on_c, 0, 58, 54
4, 135360, Note_on_c, 0, 58, 0
4, 135360, Note_on_c, 0, 53, 0
4, 135360, Note_on_c, 0, 46, 0
4, 135360, Note_on_c, 0, 46, 54
4, 135360, Note_on_c, 0, 53, 54
4, 135360, Note_on_c, 0, 58, 54
4, 135840, Note_on_c, 0, 58, 0
4, 135840, Note_on_c, 0, 53, 0
4, 135840, Note_on_c, 0, 46, 0
4, 135840, Note_on_c, 0, 46, 54
4, 135840, Note_on_c, 0, 53, 54
4, 135840, Note_on_c, 0, 58, 54
4, 136320, Note_on_c, 0, 58, 0
4, 136320, Note_on_c, 0, 53, 0
4, 136320, Note_on_c, 0, 46, 0
4, 136320, Note_on_c, 0, 51, 54
4, 136320, Note_on_c, 0, 54, 54
4, 136320, Note_on_c, 0, 58, 54
4, 136800, Note_on_c, 0, 58, 0
4, 136800, Note_on_c, 0, 54, 0
4, 136800, Note_on_c, 0, 51, 0
4, 136800, Note_on_c, 0, 54, 54
4, 136800, Note_on_c, 0, 58, 54
4, 137040, Note_on_c, 0, 58, 0
4, 137040, Note_on_c, 0, 54, 0
4, 137040, Note_on_c, 0, 54, 54
4, 137040, Note_on_c, 0, 58, 54
4, 137280, Note_on_c, 0, 58, 0
4, 137280, Note_on_c, 0, 54, 0
4, 137280, Note_on_c, 0, 58, 54
4, 137280, Note_on_c, 0, 61, 54
4, 137376, Note_on_c, 0, 61, 0
4, 137376, Note_on_c, 0, 58, 0
4, 137760, Note_on_c, 0, 46, 54
4, 137760, Note_on_c, 0, 53, 54
4, 137760, Note_on_c, 0, 58, 54
4, 137807, Note_on_c, 0, 58, 0
4, 137807, Note_on_c, 0, 53, 0
4, 137807, Note_on_c, 0, 46, 0
4, 138240, Note_on_c, 0, 46, 54
4, 138240, Note_on_c, 0, 58, 54
4, 138287, Note_on_c, 0, 58, 0
4, 138287, Note_on_c, 0, 46, 0
4, 138480, Note_on_c, 0, 46, 54
4, 138480, Note_on_c, 0, 53, 54
4, 138480, Note_on_c, 0, 58, 54
4, 138720, Note_on_c, 0, 58, 0
4, 138720, Note_on_c, 0, 53, 0
4, 138720, Note_on_c, 0, 46, 0
4, 138720, Note_on_c, 0, 46, 54
4, 138720, Note_on_c, 0, 53, 54
4, 138720, Note_on_c, 0, 58, 54
4, 138960, Note_on_c, 0, 58, 0
4, 138960, Note_on_c, 0, 53, 0
4, 138960, Note_on_c, 0, 46, 0
4, 138960, Note_on_c, 0, 46, 54
4, 138960, Note_on_c, 0, 53, 54
4, 138960, Note_on_c, 0, 58, 54
4, 139200, Note_on_c, 0, 58, 0
4, 139200, Note_on_c, 0, 53, 0
4, 139200, Note_on_c, 0, 46, 0
4, 139200, Control_c, 0, 64, 127
4, 139200, Note_on_c, 0, 46, 54
4, 139200, Note_on_c, 0, 53, 54
4, 139200, Note_on_c, 0, 58, 54
4, 139600, Note_on_c, 0, 46, 54
4, 139640, Note_on_c, 0, 53, 54
4, 139680, Note_on_c, 0, 58, 0
4, 139680, Note_on_c, 0, 46, 0
4, 139680, Note_on_c, 0, 53, 0
4, 139680, Note_on_c, 0, 61, 54
4, 140160, Note_on_c, 0, 61, 0
4, 140160, Note_on_c, 0, 46, 0
4, 140160, Note_on_c, 0, 53, 0
4, 140160, Control_c, 0, 64, 0
4, 140160, Note_on_c, 0, 51, 54
4, 140160, Note_on_c, 0, 58, 54
4, 140160, Note_on_c, 0, 63, 54
4, 140640, Note_on_c, 0, 63, 0
4, 140640, Note_on_c, 0, 58, 0
4, 140640, Note_on_c, 0, 51, 0
4, 140640, Note_on_c, 0, 54, 54
4, 140640, Note_on_c, 0, 58, 54
4, 140880, Note_on_c, 0, 58, 0
4, 140880, Note_on_c, 0, 54, 0
4, 140880, Note_on_c, 0, 54, 54
4, 140880, Note_on_c, 0, 58, 54
4, 141120, Note_on_c, 0, 58, 0
4, 141120, Note_on_c, 0, 54, 0
4, 141120, Note_on_c, 0, 53, 54
4, 141120, Note_on_c, 0, 58, 54
4, 141360, Note_on_c, 0, 58, 0
4, 141360, Note_on_c, 0, 53, 0
4, 141360, Note_on_c, 0, 51, 54
4, 141360, Note_on_c, 0, 58, 54
4, 141360, Note_on_c, 0, 60, 54
4, 141600, Note_on_c, 0, 60, 0
4, 141600, Note_on_c, 0, 58, 0
4, 141600, Note_on_c, 0, 51, 0
4, 141600, Note_on_c, 0, 46, 54
4, 141600, Note_on_c, 0, 53, 54
4, 141600, Note_on_c, 0, 58, 54
4, 141696, Note_on_c, 0, 58, 0
4, 141696, Note_on_c, 0, 53, 0
4, 141696, Note_on_c, 0, 46, 0
4, 142080, Note_on_c, 0, 46, 54
4, 142080, Note_on_c, 0, 53, 54
4, 142080, Note_on_c, 0, 58, 54
4, 142127, Note_on_c, 0, 58, 0
4, 142127, Note_on_c, 0, 53, 0
4, 142127, Note_on_c, 0, 46, 0
4, 142320, Note_on_c, 0, 46, 54
4, 142320, Note_on_c, 0, 53, 54
4, 142320, Note_on_c, 0, 58, 54
4, 142560, Note_on_c, 0, 58, 0
4, 142560, Note_on_c, 0, 53, 0
4, 142560, Note_on_c, 0, 46, 0
4, 142560, Note_on_c, 0, 46, 54
4, 142560, Note_on_c, 0, 53, 54
4, 142560, Note_on_c, 0, 58, 54
4, 142800, Note_on_c, 0, 58, 0
4, 142800, Note_on_c, 0, 53, 0
4, 142800, Note_on_c, 0, 46, 0
4, 142800, Note_on_c, 0, 46, 54
4, 142800, Note_on_c, 0, 53, 54
4, 142800, Note_on_c, 0, 58, 54
4, 143040, Note_on_c, 0, 58, 0
4, 143040, Note_on_c, 0, 53, 0
4, 143040, Note_on_c, 0, 46, 0
4, 143040, Note_on_c, 0, 46, 54
4, 143040, Note_on_c, 0, 53, 54
4, 143040, Note_on_c, 0, 58, 54
4, 143520, Note_on_c, 0, 58, 0
4, 143520, Note_on_c, 0, 53, 0
4, 143520, Note_on_c, 0, 46, 0
4, 143520, Note_on_c, 0, 46, 54
4, 143520, Note_on_c, 0, 53, 54
4, 143520, Note_on_c, 0, 58, 54
4, 144000, Note_on_c, 0, 58, 0
4, 144000, Note_on_c, 0, 53, 0
4, 144000, Note_on_c, 0, 46, 0
4, 144000, Note_on_c, 0, 51, 54
4, 144000, Note_on_c, 0, 54, 54
4, 144000, Note_on_c, 0, 58, 54
4, 144480, Note_on_c, 0, 58, 0
4, 144480, Note_on_c, 0, 54, 0
4, 144480, Note_on_c, 0, 51, 0
4, 144480, Note_on_c, 0, 54, 54
4, 144480, Note_on_c, 0, 58, 54
4, 144720, Note_on_c, 0, 58, 0
4, 144720, Note_on_c, 0, 54, 0
4, 144720, Note_on_c, 0, 54, 54
4, 144720, Note_on_c, 0, 58, 54
4, 144960, Note_on_c, 0, 58, 0
4, 144960, Note_on_c, 0, 54, 0
4, 144960, Note_on_c, 0, 58, 54
4, 144960, Note_on_c, 0, 61, 54
4, 145440, Note_on_c, 0, 61, 0
4, 145440, Note_on_c, 0, 58, 0
4, 145440, Note_on_c, 0, 46, 54
4, 145440, Note_on_c, 0, 53, 54
4, 145440, Note_on_c, 0, 58, 54
4, 145487, Note_on_c, 0, 58, 0
4, 145487, Note_on_c, 0, 53, 0
4, 145487, Note_on_c, 0, 46, 0
4, 145920, Note_on_c, 0, 44, 67
4, 145920, Note_on_c, 0, 56, 67
4, 145967, Note_on_c, 0, 56, 0
4, 145967, Note_on_c, 0, 44, 0
4, 146160, Note_on_c, 0, 53, 67
4, 146160, Note_on_c, 0, 56, 67
4, 146160, Note_on_c, 0, 61, 67
4, 146400, Note_on_c, 0, 61, 0
4, 146400, Note_on_c, 0, 56, 0
4, 146400, Note_on_c, 0, 53, 0
4, 146400, Note_on_c, 0, 53, 67
4, 146400, Note_on_c, 0, 56, 67
4, 146400, Note_on_c, 0, 61, 67
4, 146640, Note_on_c, 0, 61, 0
4, 146640, Note_on_c, 0, 56, 0
4, 146640, Note_on_c, 0, 53, 0
4, 146640, Note_on_c, 0, 53, 67
4, 146640, Note_on_c, 0, 56, 67
4, 146640, Note_on_c, 0, 61, 67
4, 146640, Note_on_c, 0, 63, 67
4, 146880, Note_on_c, 0, 63, 0
4, 146880, Note_on_c, 0, 53, 0
4, 146880, Note_on_c, 0, 56, 0
4, 146880, Note_on_c, 0, 61, 0
4, 146880, Note_on_c, 0, 53, 67
4, 146880, Note_on_c, 0, 56, 67
4, 146880, Note_on_c, 0, 61, 67
4, 147360, Note_on_c, 0, 61, 0
4, 147360, Note_on_c, 0, 56, 0
4, 147360, Note_on_c, 0, 53, 0
4, 147360, Note_on_c, 0, 53, 67
4, 147360, Note_on_c, 0, 56, 67
4, 147360, Note_on_c, 0, 61, 67
4, 147840, Note_on_c, 0, 61, 0
4, 147840, Note_on_c, 0, 56, 0
4, 147840, Note_on_c, 0, 53, 0
4, 147840, Note_on_c, 0, 54, 67
4, 147840, Note_on_c, 0, 56, 67
4, 147840, Note_on_c, 0, 60, 67
4, 147840, Note_on_c, 0, 63, 67
4, 148320, Note_on_c, 0, 63, 0
4, 148320, Note_on_c, 0, 54, 0
4, 148320, Note_on_c, 0, 56, 0
4, 148320, Note_on_c, 0, 60, 0
4, 148320, Note_on_c, 0, 54, 67
4, 148320, Note_on_c, 0, 56, 67
4, 148320, Note_on_c, 0, 60, 67
4, 148560, Note_on_c, 0, 60, 0
4, 148560, Note_on_c, 0, 56, 0
4, 148560, Note_on_c, 0, 54, 0
4, 148560, Note_on_c, 0, 54, 67
4, 148560, Note_on_c, 0, 56, 67
4, 148560, Note_on_c, 0, 60, 67
4, 148800, Note_on_c, 0, 60, 0
4, 148800, Note_on_c, 0, 56, 0
4, 148800, Note_on_c, 0, 54, 0
4, 148800, Note_on_c, 0, 53, 67
4, 148800, Note_on_c, 0, 56, 67
4, 149040, Note_on_c, 0, 56, 0
4, 149040, Note_on_c, 0, 53, 0
4, 149040, Note_on_c, 0, 49, 67
4, 149040, Note_on_c, 0, 53, 67
4, 149280, Note_on_c, 0, 53, 0
4, 149280, Note_on_c, 0, 49, 0
4, 149280, Note_on_c, 0, 44, 67
4, 149280, Note_on_c, 0, 49, 67
4, 149280, Note_on_c, 0, 53, 67
4, 149280, Note_on_c, 0, 56, 67
4, 149376, Note_on_c, 0, 56, 0
4, 149376, Note_on_c, 0, 44, 0
4, 149376, Note_on_c, 0, 49, 0
4, 149376, Note_on_c, 0, 53, 0
4, 149760, Note_on_c, 0, 44, 67
4, 149760, Note_on_c, 0, 56, 67
4, 149807, Note_on_c, 0, 56, 0
4, 149807, Note_on_c, 0, 44, 0
4, 150000, Note_on_c, 0, 53, 67
4, 150000, Note_on_c, 0, 56, 67
4, 150000, Note_on_c, 0, 61, 67
4, 150240, Note_on_c, 0, 61, 0
4, 150240, Note_on_c, 0, 56, 0
4, 150240, Note_on_c, 0, 53, 0
4, 150240, Note_on_c, 0, 53, 67
4, 150240, Note_on_c, 0, 56, 67
4, 150240, Note_on_c, 0, 61, 67
4, 150480, Note_on_c, 0, 61, 0
4, 150480, Note_on_c, 0, 56, 0
4, 150480, Note_on_c, 0, 53, 0
4, 150480, Note_on_c, 0, 53, 67
4, 150480, Note_on_c, 0, 56, 67
4, 150480, Note_on_c, 0, 61, 67
4, 150480, Note_on_c, 0, 63, 67
4, 150720, Note_on_c, 0, 63, 0
4, 150720, Note_on_c, 0, 53, 0
4, 150720, Note_on_c, 0, 56, 0
4, 150720, Note_on_c, 0, 61, 0
4, 150720, Note_on_c, 0, 53, 67
4, 150720, Note_on_c, 0, 56, 67
4, 150720, Note_on_c, 0, 61, 67
4, 151200, Note_on_c, 0, 61, 0
4, 151200, Note_on_c, 0, 56, 0
4, 151200, Note_on_c, 0, 53, 0
4, 151200, Note_on_c, 0, 53, 67
4, 151200, Note_on_c, 0, 56, 67
4, 151200, Note_on_c, 0, 61, 67
4, 151680, Note_on_c, 0, 61, 0
4, 151680, Note_on_c, 0, 56, 0
4, 151680, Note_on_c, 0, 53, 0
4, 151680, Note_on_c, 0, 54, 67
4, 151680, Note_on_c, 0, 56, 67
4, 151680, Note_on_c, 0, 60, 67
4, 152160, Note_on_c, 0, 60, 0
4, 152160, Note_on_c, 0, 56, 0
4, 152160, Note_on_c, 0, 54, 0
4, 152160, Note_on_c, 0, 54, 67
4, 152160, Note_on_c, 0, 56, 67
4, 152160, Note_on_c, 0, 60, 67
4, 152400, Note_on_c, 0, 60, 0
4, 152400, Note_on_c, 0, 56, 0
4, 152400, Note_on_c, 0, 54, 0
4, 152400, Note_on_c, 0, 54, 67
4, 152400, Note_on_c, 0, 56, 67
4, 152400, Note_on_c, 0, 60, 67
4, 152640, Note_on_c, 0, 60, 0
4, 152640, Note_on_c, 0, 56, 0
4, 152640, Note_on_c, 0, 54, 0
4, 152640, Note_on_c, 0, 53, 67
4, 152640, Note_on_c, 0, 56, 67
4, 153120, Note_on_c, 0, 56, 0
4, 153120, Note_on_c, 0, 53, 0
4, 153120, Note_on_c, 0, 44, 67
4, 153120, Note_on_c, 0, 56, 67
4, 153167, Note_on_c, 0, 56, 0
4, 153167, Note_on_c, 0, 44, 0
4, 153600, Note_on_c, 0, 44, 67
4, 153600, Note_on_c, 0, 56, 67
4, 153647, Note_on_c, 0, 56, 0
4, 153647, Note_on_c, 0, 44, 0
4, 153840, Note_on_c, 0, 53, 67
4, 153840, Note_on_c, 0, 56, 67
4, 153840, Note_on_c, 0, 61, 67
4, 154080, Note_on_c, 0, 61, 0
4, 154080, Note_on_c, 0, 56, 0
4, 154080, Note_on_c, 0, 53, 0
4, 154080, Note_on_c, 0, 53, 67
4, 154080, Note_on_c, 0, 56, 67
4, 154080, Note_on_c, 0, 61, 67
4, 154320, Note_on_c, 0, 61, 0
4, 154320, Note_on_c, 0, 56, 0
4, 154320, Note_on_c, 0, 53, 0
4, 154320, Note_on_c, 0, 53, 67
4, 154320, Note_on_c, 0, 56, 67
4, 154320, Note_on_c, 0, 61, 67
4, 154320, Note_on_c, 0, 63, 67
4, 154560, Note_on_c, 0, 63, 0
4, 154560, Note_on_c, 0, 53, 0
4, 154560, Note_on_c, 0, 56, 0
4, 154560, Note_on_c, 0, 61, 0
4, 154560, Note_on_c, 0, 53, 67
4, 154560, Note_on_c, 0, 56, 67
4, 154560, Note_on_c, 0, 61, 67
4, 155040, Note_on_c, 0, 61, 0
4, 155040, Note_on_c, 0, 56, 0
4, 155040, Note_on_c, 0, 53, 0
4, 155040, Note_on_c, 0, 53, 67
4, 155040, Note_on_c, 0, 56, 67
4, 155040, Note_on_c, 0, 61, 67
4, 155520, Note_on_c, 0, 61, 0
4, 155520, Note_on_c, 0, 56, 0
4, 155520, Note_on_c, 0, 53, 0
4, 155520, Note_on_c, 0, 54, 67
4, 155520, Note_on_c, 0, 56, 67
4, 155520, Note_on_c, 0, 60, 67
4, 155520, Note_on_c, 0, 63, 67
4, 156000, Note_on_c, 0, 63, 0
4, 156000, Note_on_c, 0, 54, 0
4, 156000, Note_on_c, 0, 56, 0
4, 156000, Note_on_c, 0, 60, 0
4, 156000, Note_on_c, 0, 54, 67
4, 156000, Note_on_c, 0, 56, 67
4, 156000, Note_on_c, 0, 60, 67
4, 156240, Note_on_c, 0, 60, 0
4, 156240, Note_on_c, 0, 56, 0
4, 156240, Note_on_c, 0, 54, 0
4, 156240, Note_on_c, 0, 54, 67
4, 156240, Note_on_c, 0, 56, 67
4, 156240, Note_on_c, 0, 60, 67
4, 156480, Note_on_c, 0, 60, 0
4, 156480, Note_on_c, 0, 56, 0
4, 156480, Note_on_c, 0, 54, 0
4, 156480, Note_on_c, 0, 53, 67
4, 156480, Note_on_c, 0, 56, 67
4, 156720, Note_on_c, 0, 56, 0
4, 156720, Note_on_c, 0, 53, 0
4, 156720, Note_on_c, 0, 49, 67
4, 156720, Note_on_c, 0, 53, 67
4, 156960, Note_on_c, 0, 53, 0
4, 156960, Note_on_c, 0, 49, 0
4, 156960, Note_on_c, 0, 44, 67
4, 156960, Note_on_c, 0, 49, 67
4, 156960, Note_on_c, 0, 53, 67
4, 156960, Note_on_c, 0, 56, 67
4, 157056, Note_on_c, 0, 56, 0
4, 157056, Note_on_c, 0, 44, 0
4, 157056, Note_on_c, 0, 49, 0
4, 157056, Note_on_c, 0, 53, 0
4, 157440, Note_on_c, 0, 44, 67
4, 157440, Note_on_c, 0, 56, 67
4, 157487, Note_on_c, 0, 56, 0
4, 157487, Note_on_c, 0, 44, 0
4, 157680, Note_on_c, 0, 53, 67
4, 157680, Note_on_c, 0, 56, 67
4, 157680, Note_on_c, 0, 61, 67
4, 157920, Note_on_c, 0, 61, 0
4, 157920, Note_on_c, 0, 56, 0
4, 157920, Note_on_c, 0, 53, 0
4, 157920, Note_on_c, 0, 53, 67
4, 157920, Note_on_c, 0, 56, 67
4, 157920, Note_on_c, 0, 61, 67
4, 158160, Note_on_c, 0, 61, 0
4, 158160, Note_on_c, 0, 56, 0
4, 158160, Note_on_c, 0, 53, 0
4, 158160, Note_on_c, 0, 53, 67
4, 158160, Note_on_c, 0, 56, 67
4, 158160, Note_on_c, 0, 61, 67
4, 158160, Note_on_c, 0, 63, 67
4, 158400, Note_on_c, 0, 63, 0
4, 158400, Note_on_c, 0, 53, 0
4, 158400, Note_on_c, 0, 56, 0
4, 158400, Note_on_c, 0, 61, 0
4, 158400, Note_on_c, 0, 53, 67
4, 158400, Note_on_c, 0, 56, 67
4, 158400, Note_on_c, 0, 61, 67
4, 158880, Note_on_c, 0, 61, 0
4, 158880, Note_on_c, 0, 56, 0
4, 158880, Note_on_c, 0, 53, 0
4, 158880, Note_on_c, 0, 53, 67
4, 158880, Note_on_c, 0, 56, 67
4, 158880, Note_on_c, 0, 61, 67
4, 159360, Note_on_c, 0, 61, 0
4, 159360, Note_on_c, 0, 56, 0
4, 159360, Note_on_c, 0, 53, 0
4, 159360, Note_on_c, 0, 54, 67
4, 159360, Note_on_c, 0, 56, 67
4, 159360, Note_on_c, 0, 60, 67
4, 159840, Note_on_c, 0, 60, 0
4, 159840, Note_on_c, 0, 56, 0
4, 159840, Note_on_c, 0, 54, 0
4, 159840, Note_on_c, 0, 54, 67
4, 159840, Note_on_c, 0, 56, 67
4, 159840, Note_on_c, 0, 60, 67
4, 160080, Note_on_c, 0, 60, 0
4, 160080, Note_on_c, 0, 56, 0
4, 160080, Note_on_c, 0, 54, 0
4, 160080, Note_on_c, 0, 54, 67
4, 160080, Note_on_c, 0, 56, 67
4, 160080, Note_on_c, 0, 60, 67
4, 160320, Note_on_c, 0, 60, 0
4, 160320, Note_on_c, 0, 56, 0
4, 160320, Note_on_c, 0, 54, 0
4, 160320, Note_on_c, 0, 53, 67
4, 160320, Note_on_c, 0, 56, 67
4, 160720, Note_on_c, 0, 41, 67
4, 160760, Note_on_c, 0, 48, 67
4, 160800, Note_on_c, 0, 56, 0
4, 160800, Note_on_c, 0, 53, 0
4, 160800, Note_on_c, 0, 57, 67
4, 161280, Note_on_c, 0, 57, 0
4, 161280, Note_on_c, 0, 41, 0
4, 161280, Note_on_c, 0, 48, 0
4, 161280, Note_on_c, 0, 53, 54
4, 161520, Note_on_c, 0, 53, 0
4, 161760, Control_c, 0, 64, 127
4, 161760, Note_on_c, 0, 53, 54
4, 162240, Note_on_c, 0, 53, 0
4, 162240, Note_on_c, 0, 58, 54
4, 162720, Note_on_c, 0, 58, 0
4, 162720, Note_on_c, 0, 56, 54
4, 163200, Note_on_c, 0, 56, 0
4, 163200, Note_on_c, 0, 55, 54
4, 163680, Note_on_c, 0, 55, 0
4, 163680, Note_on_c, 0, 54, 54
4, 164160, Note_on_c, 0, 54, 0
4, 164160, Note_on_c, 0, 53, 54
4, 164400, Note_on_c, 0, 53, 0
4, 164400, Note_on_c, 0, 51, 54
4, 164640, Note_on_c, 0, 51, 0
4, 164640, Control_c, 0, 64, 0
4, 164640, Note_on_c, 0, 49, 54
4, 165120, Note_on_c, 0, 49, 0
4, 165600, Control_c, 0, 64, 127
4, 165600, Note_on_c, 0, 53, 54
4, 166080, Note_on_c, 0, 53, 0
4, 166080, Note_on_c, 0, 58, 54
4, 166560, Note_on_c, 0, 58, 0
4, 166560, Note_on_c, 0, 56, 54
4, 167040, Note_on_c, 0, 56, 0
4, 167040, Note_on_c, 0, 55, 54
4, 167520, Note_on_c, 0, 55, 0
4, 167520, Note_on_c, 0, 54, 54
4, 168000, Note_on_c, 0, 54, 0
4, 168000, Control_c, 0, 64, 0
4, 168000, Note_on_c, 0, 53, 54
4, 168480, Note_on_c, 0, 53, 0
4, 168480, Note_on_c, 0, 46, 54
4, 168480, Note_on_c, 0, 53, 54
4, 168960, Note_on_c, 0, 53, 0
4, 168960, Note_on_c, 0, 46, 0
4, 168960, Note_on_c, 0, 46, 54
4, 168960, Note_on_c, 0, 53, 54
4, 169200, Note_on_c, 0, 53, 0
4, 169200, Note_on_c, 0, 46, 0
4, 169440, Control_c, 0, 64, 127
4, 169440, Note_on_c, 0, 53, 54
4, 169920, Note_on_c, 0, 53, 0
4, 169920, Note_on_c, 0, 58, 54
4, 170400, Note_on_c, 0, 58, 0
4, 170400, Note_on_c, 0, 56, 54
4, 170880, Note_on_c, 0, 56, 0
4, 170880, Note_on_c, 0, 55, 54
4, 171360, Note_on_c, 0, 55, 0
4, 171360, Note_on_c, 0, 54, 54
4, 171840, Note_on_c, 0, 54, 0
4, 171840, Note_on_c, 0, 53, 54
4, 172080, Note_on_c, 0, 53, 0
4, 172080, Note_on_c, 0, 51, 54
4, 172320, Note_on_c, 0, 51, 0
4, 172320, Control_c, 0, 64, 0
4, 172320, Note_on_c, 0, 49, 54
4, 172800, Note_on_c, 0, 49, 0
4, 173280, Control_c, 0, 64, 127
4, 173280, Note_on_c, 0, 53, 54
4, 173760, Note_on_c, 0, 53, 0
4, 173760, Note_on_c, 0, 58, 54
4, 174240, Note_on_c, 0, 58, 0
4, 174240, Note_on_c, 0, 56, 54
4, 174720, Note_on_c, 0, 56, 0
4, 174720, Note_on_c, 0, 55, 54
4, 175200, Note_on_c, 0, 55, 0
4, 175200, Note_on_c, 0, 54, 54
4, 175680, Note_on_c, 0, 54, 0
4, 175680, Control_c, 0, 64, 0
4, 175680, Note_on_c, 0, 53, 54
4, 176160, Note_on_c, 0, 53, 0
4, 176160, Note_on_c, 0, 46, 54
4, 176160, Note_on_c, 0, 53, 54
4, 176160, Note_on_c, 0, 58, 54
4, 176640, Note_on_c, 0, 58, 0
4, 176640, Note_on_c, 0, 53, 0
4, 176640, Note_on_c, 0, 46, 0
4, 176880, Note_on_c, 0, 62, 54
4, 176880, Note_on_c, 0, 65, 54
4, 177120, Note_on_c, 0, 65, 0
4, 177120, Note_on_c, 0, 62, 0
4, 177120, Note_on_c, 0, 62, 54
4, 177120, Note_on_c, 0, 65, 54
4, 177360, Note_on_c, 0, 65, 0
4, 177360, Note_on_c, 0, 62, 0
4, 177360, Note_on_c, 0, 62, 54
4, 177360, Note_on_c, 0, 65, 54
4, 177600, Note_on_c, 0, 65, 0
4, 177600, Note_on_c, 0, 62, 0
4, 177600, Note_on_c, 0, 62, 54
4, 177600, Note_on_c, 0, 65, 54
4, 178080, Note_on_c, 0, 65, 0
4, 178080, Note_on_c, 0, 62, 0
4, 178080, Note_on_c, 0, 62, 54
4, 178080, Note_on_c, 0, 65, 54
4, 178560, Note_on_c, 0, 65, 0
4, 178560, Note_on_c, 0, 62, 0
4, 178560, Note_on_c, 0, 58, 54
4, 178560, Note_on_c, 0, 63, 54
4, 179520, Note_on_c, 0, 63, 0
4, 179520, Note_on_c, 0, 58, 0
4, 179520, Note_on_c, 0, 54, 54
4, 179520, Note_on_c, 0, 58, 54
4, 180480, Note_on_c, 0, 58, 0
4, 180480, Note_on_c, 0, 54, 0
4, 180720, Note_on_c, 0, 51, 54
4, 180720, Note_on_c, 0, 54, 54
4, 180960, Note_on_c, 0, 54, 0
4, 180960, Note_on_c, 0, 51, 0
4, 180960, Note_on_c, 0, 51, 54
4, 180960, Note_on_c, 0, 54, 54
4, 181200, Note_on_c, 0, 54, 0
4, 181200, Note_on_c, 0, 51, 0
4, 181200, Note_on_c, 0, 51, 54
4, 181200, Note_on_c, 0, 54, 54
4, 181440, Note_on_c, 0, 54, 0
4, 181440, Note_on_c, 0, 51, 0
4, 181440, Note_on_c, 0, 51, 54
4, 181440, Note_on_c, 0, 54, 54
4, 181920, Note_on_c, 0, 54, 0
4, 181920, Note_on_c, 0, 51, 0
4, 181920, Note_on_c, 0, 51, 54
4, 181920, Note_on_c, 0, 54, 54
4, 182400, Note_on_c, 0, 54, 0
4, 182400, Note_on_c, 0, 51, 0
4, 182400, Note_on_c, 0, 46, 54
4, 182400, Note_on_c, 0, 53, 54
4, 182880, Note_on_c, 0, 53, 0
4, 182880, Note_on_c, 0, 46, 0
4, 182880, Note_on_c, 0, 46, 54
4, 182880, Note_on_c, 0, 53, 54
4, 183360, Note_on_c, 0, 53, 0
4, 183360, Note_on_c, 0, 46, 0
4, 183360, Note_on_c, 0, 46, 54
4, 183360, Note_on_c, 0, 53, 54
4, 184320, Note_on_c, 0, 53, 0
4, 184320, Note_on_c, 0, 46, 0
4, 184320, Control_c, 0, 64, 127
4, 184320, Note_on_c, 0, 34, 54
4, 184380, Note_on_c, 0, 34, 0
4, 184380, Note_on_c, 0, 46, 54
4, 184440, Note_on_c, 0, 46, 0
4, 184440, Note_on_c, 0, 34, 54
4, 184500, Note_on_c, 0, 34, 0
4, 184500, Note_on_c, 0, 46, 54
4, 184560, Note_on_c, 0, 46, 0
4, 184560, Note_on_c, 0, 34, 54
4, 184620, Note_on_c, 0, 34, 0
4, 184620, Note_on_c, 0, 46, 54
4, 184680, Note_on_c, 0, 46, 0
4, 184680, Note_on_c, 0, 34, 54
4, 184740, Note_on_c, 0, 34, 0
4, 184740, Note_on_c, 0, 46, 54
4, 184800, Note_on_c, 0, 46, 0
4, 184800, Note_on_c, 0, 34, 54
4, 184860, Note_on_c, 0, 34, 0
4, 184860, Note_on_c, 0, 46, 54
4, 184920, Note_on_c, 0, 46, 0
4, 184920, Note_on_c, 0, 34, 54
4, 184980, Note_on_c, 0, 34, 0
4, 184980, Note_on_c, 0, 46, 54
4, 185040, Note_on_c, 0, 46, 0
4, 185040, Note_on_c, 0, 34, 54
4, 185100, Note_on_c, 0, 34, 0
4, 185100, Note_on_c, 0, 46, 54
4, 185160, Note_on_c, 0, 46, 0
4, 185160, Note_on_c, 0, 34, 54
4, 185220, Note_on_c, 0, 34, 0
4, 185220, Note_on_c, 0, 46, 54
4, 185280, Note_on_c, 0, 46, 0
4, 185280, Note_on_c, 0, 34, 54
4, 185340, Note_on_c, 0, 34, 0
4, 185340, Note_on_c, 0, 46, 54
4, 185400, Note_on_c, 0, 46, 0
4, 185400, Note_on_c, 0, 34, 54
4, 185460, Note_on_c, 0, 34, 0
4, 185460, Note_on_c, 0, 46, 54
4, 185520, Note_on_c, 0, 46, 0
4, 185520, Note_on_c, 0, 34, 54
4, 185580, Note_on_c, 0, 34, 0
4, 185580, Note_on_c, 0, 46, 54
4, 185640, Note_on_c, 0, 46, 0
4, 185640, Note_on_c, 0, 34, 54
4, 185700, Note_on_c, 0, 34, 0
4, 185700, Note_on_c, 0, 46, 54
4, 185760, Note_on_c, 0, 46, 0
4, 185760, Note_on_c, 0, 34, 54
4, 185820, Note_on_c, 0, 34, 0
4, 185820, Note_on_c, 0, 46, 54
4, 185880, Note_on_c, 0, 46, 0
4, 185880, Note_on_c, 0, 34, 54
4, 185940, Note_on_c, 0, 34, 0
4, 185940, Note_on_c, 0, 46, 54
4, 186000, Note_on_c, 0, 46, 0
4, 186000, Note_on_c, 0, 34, 54
4, 186060, Note_on_c, 0, 34, 0
4, 186060, Note_on_c, 0, 46, 54
4, 186120, Note_on_c, 0, 46, 0
4, 186120, Note_on_c, 0, 34, 54
4, 186180, Note_on_c, 0, 34, 0
4, 186180, Note_on_c, 0, 46, 54
4, 186240, Note_on_c, 0, 46, 0
4, 186240, Note_on_c, 0, 34, 54
4, 186300, Note_on_c, 0, 34, 0
4, 186300, Note_on_c, 0, 46, 54
4, 186360, Note_on_c, 0, 46, 0
4, 186360, Note_on_c, 0, 34, 54
4, 186420, Note_on_c, 0, 34, 0
4, 186420, Note_on_c, 0, 46, 54
4, 186480, Note_on_c, 0, 46, 0
4, 186480, Note_on_c, 0, 34, 54
4, 186540, Note_on_c, 0, 34, 0
4, 186540, Note_on_c, 0, 46, 54
4, 186600, Note_on_c, 0, 46, 0
4, 186600, Note_on_c, 0, 34, 54
4, 186660, Note_on_c, 0, 34, 0
4, 186660, Note_on_c, 0, 46, 54
4, 186720, Note_on_c, 0, 46, 0
4, 186720, Note_on_c, 0, 34, 54
4, 186780, Note_on_c, 0, 34, 0
4, 186780, Note_on_c, 0, 46, 54
4, 186840, Note_on_c, 0, 46, 0
4, 186840, Note_on_c, 0, 34, 54
4, 186900, Note_on_c, 0, 34, 0
4, 186900, Note_on_c, 0, 46, 54
4, 186960, Note_on_c, 0, 46, 0
4, 186960, Note_on_c, 0, 34, 54
4, 187020, Note_on_c, 0, 34, 0
4, 187020, Note_on_c, 0, 46, 54
4, 187080, Note_on_c, 0, 46, 0
4, 187080, Note_on_c, 0, 34, 54
4, 187140, Note_on_c, 0, 34, 0
4, 187140, Note_on_c, 0, 46, 54
4, 187200, Note_on_c, 0, 46, 0
4, 187200, Note_on_c, 0, 34, 54
4, 187260, Note_on_c, 0, 34, 0
4, 187260, Note_on_c, 0, 46, 54
4, 187320, Note_on_c, 0, 46, 0
4, 187320, Note_on_c, 0, 34, 54
4, 187380, Note_on_c, 0, 34, 0
4, 187380, Note_on_c, 0, 46, 54
4, 187440, Note_on_c, 0, 46, 0
4, 187440, Note_on_c, 0, 34, 54
4, 187500, Note_on_c, 0, 34, 0
4, 187500, Note_on_c, 0, 46, 54
4, 187560, Note_on_c, 0, 46, 0
4, 187560, Note_on_c, 0, 34, 54
4, 187620, Note_on_c, 0, 34, 0
4, 187620, Note_on_c, 0, 46, 54
4, 187680, Note_on_c, 0, 46, 0
4, 187680, Note_on_c, 0, 34, 54
4, 187740, Note_on_c, 0, 34, 0
4, 187740, Note_on_c, 0, 46, 54
4, 187800, Note_on_c, 0, 46, 0
4, 187800, Note_on_c, 0, 34, 54
4, 187860, Note_on_c, 0, 34, 0
4, 187860, Note_on_c, 0, 46, 54
4, 187920, Note_on_c, 0, 46, 0
4, 187920, Note_on_c, 0, 34, 54
4, 187980, Note_on_c, 0, 34, 0
4, 187980, Note_on_c, 0, 46, 54
4, 188040, Note_on_c, 0, 46, 0
4, 188040, Note_on_c, 0, 34, 54
4, 188100, Note_on_c, 0, 34, 0
4, 188100, Note_on_c, 0, 46, 54
4, 188160, Note_on_c, 0, 46, 0
4, 188160, Note_on_c, 0, 34, 54
4, 188220, Note_on_c, 0, 34, 0
4, 188220, Note_on_c, 0, 46, 54
4, 188280, Note_on_c, 0, 46, 0
4, 188280, Note_on_c, 0, 34, 54
4, 188340, Note_on_c, 0, 34, 0
4, 188340, Note_on_c, 0, 46, 54
4, 188400, Note_on_c, 0, 46, 0
4, 188400, Note_on_c, 0, 34, 54
4, 188460, Note_on_c, 0, 34, 0
4, 188460, Note_on_c, 0, 46, 54
4, 188520, Note_on_c, 0, 46, 0
4, 188520, Note_on_c, 0, 34, 54
4, 188580, Note_on_c, 0, 34, 0
4, 188580, Note_on_c, 0, 46, 54
4, 188640, Note_on_c, 0, 46, 0
4, 188640, Note_on_c, 0, 34, 54
4, 188700, Note_on_c, 0, 34, 0
4, 188700, Note_on_c, 0, 46, 54
4, 188760, Note_on_c, 0, 46, 0
4, 188760, Note_on_c, 0, 34, 54
4, 188820, Note_on_c, 0, 34, 0
4, 188820, Note_on_c, 0, 46, 54
4, 188880, Note_on_c, 0, 46, 0
4, 188880, Note_on_c, 0, 34, 54
4, 188940, Note_on_c, 0, 34, 0
4, 188940, Note_on_c, 0, 46, 54
4, 189000, Note_on_c, 0, 46, 0
4, 189000, Note_on_c, 0, 34, 54
4, 189060, Note_on_c, 0, 34, 0
4, 189060, Note_on_c, 0, 46, 54
4, 189120, Note_on_c, 0, 46, 0
4, 189120, Note_on_c, 0, 34, 54
4, 189180, Note_on_c, 0, 34, 0
4, 189180, Note_on_c, 0, 46, 54
4, 189240, Note_on_c, 0, 46, 0
4, 189240, Note_on_c, 0, 34, 54
4, 189300, Note_on_c, 0, 34, 0
4, 189300, Note_on_c, 0, 46, 54
4, 189360, Note_on_c, 0, 46, 0
4, 189360, Note_on_c, 0, 34, 54
4, 189420, Note_on_c, 0, 34, 0
4, 189420, Note_on_c, 0, 46, 54
4, 189480, Note_on_c, 0, 46, 0
4, 189480, Note_on_c, 0, 34, 54
4, 189540, Note_on_c, 0, 34, 0
4, 189540, Note_on_c, 0, 46, 54
4, 189600, Note_on_c, 0, 46, 0
4, 189600, Note_on_c, 0, 34, 54
4, 189660, Note_on_c, 0, 34, 0
4, 189660, Note_on_c, 0, 46, 54
4, 189720, Note_on_c, 0, 46, 0
4, 189720, Note_on_c, 0, 34, 54
4, 189780, Note_on_c, 0, 34, 0
4, 189780, Note_on_c, 0, 46, 54
4, 189840, Note_on_c, 0, 46, 0
4, 189840, Note_on_c, 0, 34, 54
4, 189900, Note_on_c, 0, 34, 0
4, 189900, Note_on_c, 0, 46, 54
4, 189960, Note_on_c, 0, 46, 0
4, 189960, Note_on_c, 0, 34, 54
4, 190020, Note_on_c, 0, 34, 0
4, 190020, Note_on_c, 0, 46, 54
4, 190080, Note_on_c, 0, 46, 0
4, 190080, Note_on_c, 0, 34, 54
4, 190140, Note_on_c, 0, 34, 0
4, 190140, Note_on_c, 0, 46, 54
4, 190200, Note_on_c, 0, 46, 0
4, 190200, Note_on_c, 0, 34, 54
4, 190260, Note_on_c, 0, 34, 0
4, 190260, Note_on_c, 0, 46, 54
4, 190320, Note_on_c, 0, 46, 0
4, 190320, Note_on_c, 0, 34, 54
4, 190380, Note_on_c, 0, 34, 0
4, 190380, Note_on_c, 0, 46, 54
4, 190440, Note_on_c, 0, 46, 0
4, 190440, Note_on_c, 0, 34, 54
4, 190500, Note_on_c, 0, 34, 0
4, 190500, Note_on_c, 0, 46, 54
4, 190560, Note_on_c, 0, 46, 0
4, 190560, Note_on_c, 0, 34, 54
4, 190620, Note_on_c, 0, 34, 0
4, 190620, Note_on_c, 0, 46, 54
4, 190680, Note_on_c, 0, 46, 0
4, 190680, Note_on_c, 0, 34, 54
4, 190740, Note_on_c, 0, 34, 0
4, 190740, Note_on_c, 0, 46, 54
4, 190800, Note_on_c, 0, 46, 0
4, 190800, Note_on_c, 0, 34, 54
4, 190860, Note_on_c, 0, 34, 0
4, 190860, Note_on_c, 0, 46, 54
4, 190920, Note_on_c, 0, 46, 0
4, 190920, Note_on_c, 0, 34, 54
4, 190980, Note_on_c, 0, 34, 0
4, 190980, Note_on_c, 0, 46, 54
4, 191040, Note_on_c, 0, 46, 0
4, 191040, Note_on_c, 0, 34, 54
4, 191100, Note_on_c, 0, 34, 0
4, 191100, Note_on_c, 0, 46, 54
4, 191160, Note_on_c, 0, 46, 0
4, 191160, Note_on_c, 0, 34, 54
4, 191220, Note_on_c, 0, 34, 0
4, 191220, Note_on_c, 0, 46, 54
4, 191280, Note_on_c, 0, 46, 0
4, 191280, Note_on_c, 0, 34, 54
4, 191340, Note_on_c, 0, 34, 0
4, 191340, Note_on_c, 0, 46, 54
4, 191400, Note_on_c, 0, 46, 0
4, 191400, Note_on_c, 0, 34, 54
4, 191460, Note_on_c, 0, 34, 0
4, 191460, Note_on_c, 0, 46, 54
4, 191520, Note_on_c, 0, 46, 0
4, 191520, Note_on_c, 0, 34, 54
4, 191580, Note_on_c, 0, 34, 0
4, 191580, Note_on_c, 0, 46, 54
4, 191640, Note_on_c, 0, 46, 0
4, 191640, Note_on_c, 0, 34, 54
4, 191700, Note_on_c, 0, 34, 0
4, 191700, Note_on_c, 0, 46, 54
4, 191760, Note_on_c, 0, 46, 0
4, 191760, Note_on_c, 0, 34, 54
4, 191820, Note_on_c, 0, 34, 0
4, 191820, Note_on_c, 0, 46, 54
4, 191880, Note_on_c, 0, 46, 0
4, 191880, Control_c, 0, 64, 0
4, 191880, Note_on_c, 0, 34, 54
4, 191940, Note_on_c, 0, 34, 0
4, 191940, Note_on_c, 0, 46, 54
4, 192000, Note_on_c, 0, 46, 0
4, 192240, Note_on_c, 0, 51, 54
4, 192240, Note_on_c, 0, 54, 54
4, 192480, Note_on_c, 0, 54, 0
4, 192480, Note_on_c, 0, 51, 0
4, 192480, Note_on_c, 0, 51, 54
4, 192480, Note_on_c, 0, 54, 54
4, 192720, Note_on_c, 0, 54, 0
4, 192720, Note_on_c, 0, 51, 0
4, 192720, Note_on_c, 0, 51, 54
4, 192720, Note_on_c, 0, 54, 54
4, 192960, Note_on_c, 0, 54, 0
4, 192960, Note_on_c, 0, 51, 0
4, 192960, Note_on_c, 0, 51, 54
4, 192960, Note_on_c, 0, 54, 54
4, 193920, Note_on_c, 0, 54, 0
4, 193920, Note_on_c, 0, 51, 0
4, 193920, Note_on_c, 0, 49, 54
4, 193920, Note_on_c, 0, 53, 54
4, 194160, Note_on_c, 0, 53, 0
4, 194160, Note_on_c, 0, 49, 0
4, 194400, Note_on_c, 0, 58, 54
4, 194400, Note_on_c, 0, 61, 54
4, 194880, Note_on_c, 0, 61, 0
4, 194880, Note_on_c, 0, 58, 0
4, 194880, Note_on_c, 0, 54, 54
4, 194880, Note_on_c, 0, 63, 54
4, 195360, Note_on_c, 0, 63, 0
4, 195360, Note_on_c, 0, 54, 0
4, 195360, Note_on_c, 0, 58, 54
4, 195360, Note_on_c, 0, 61, 54
4, 195840, Note_on_c, 0, 61, 0
4, 195840, Note_on_c, 0, 58, 0
4, 196080, Note_on_c, 0, 51, 54
4, 196080, Note_on_c, 0, 54, 54
4, 196320, Note_on_c, 0, 54, 0
4, 196320, Note_on_c, 0, 51, 0
4, 196320, Note_on_c, 0, 51, 54
4, 196320, Note_on_c, 0, 54, 54
4, 196560, Note_on_c, 0, 54, 0
4, 196560, Note_on_c, 0, 51, 0
4, 196560, Note_on_c, 0, 51, 54
4, 196560, Note_on_c, 0, 54, 54
4, 196800, Note_on_c, 0, 54, 0
4, 196800, Note_on_c, 0, 51, 0
4, 196800, Note_on_c, 0, 51, 54
4, 196800, Note_on_c, 0, 54, 54
4, 197760, Note_on_c, 0, 54, 0
4, 197760, Note_on_c, 0, 51, 0
4, 197760, Note_on_c, 0, 61, 54
4, 197760, Note_on_c, 0, 65, 54
4, 198000, Note_on_c, 0, 65, 0
4, 198000, Note_on_c, 0, 61, 0
4, 198240, Note_on_c, 0, 70, 54
4, 198240, Note_on_c, 0, 73, 54
4, 198720, Note_on_c, 0, 73, 0
4, 198720, Note_on_c, 0, 70, 0
4, 198720, Note_on_c, 0, 66, 54
4, 198720, Note_on_c, 0, 75, 54
4, 199200, Note_on_c, 0, 75, 0
4, 199200, Note_on_c, 0, 66, 0
4, 199200, Note_on_c, 0, 70, 54
4, 199200, Note_on_c, 0, 73, 54
4, 199680, Note_on_c, 0, 73, 0
4, 199680, Note_on_c, 0, 70, 0
4, 199920, Note_on_c, 0, 51, 54
4, 199920, Note_on_c, 0, 54, 54
4, 200160, Note_on_c, 0, 54, 0
4, 200160, Note_on_c, 0, 51, 0
4, 200160, Note_on_c, 0, 51, 54
4, 200160, Note_on_c, 0, 54, 54
4, 200400, Note_on_c, 0, 54, 0
4, 200400, Note_on_c, 0, 51, 0
4, 200400, Note_on_c, 0, 51, 54
4, 200400, Note_on_c, 0, 54, 54
4, 200640, Note_on_c, 0, 54, 0
4, 200640, Note_on_c, 0, 51, 0
4, 200640, Note_on_c, 0, 51, 54
4, 200640, Note_on_c, 0, 54, 54
4, 202080, Note_on_c, 0, 54, 0
4, 202080, Note_on_c, 0, 51, 0
4, 202080, Note_on_c, 0, 51, 54
4, 202080, Note_on_c, 0, 54, 54
4, 202560, Note_on_c, 0, 54, 0
4, 202560, Note_on_c, 0, 51, 0
4, 202560, Note_on_c, 0, 51, 54
4, 202560, Note_on_c, 0, 54, 54
4, 203040, Note_on_c, 0, 54, 0
4, 203040, Note_on_c, 0, 51, 0
4, 203040, Note_on_c, 0, 51, 54
4, 203040, Note_on_c, 0, 54, 54
4, 203520, Note_on_c, 0, 54, 0
4, 203520, Note_on_c, 0, 51, 0
4, 203520, Note_on_c, 0, 46, 54
4, 203520, Note_on_c, 0, 49, 54
4, 203520, Note_on_c, 0, 53, 54
4, 204000, Note_on_c, 0, 53, 0
4, 204000, Note_on_c, 0, 49, 0
4, 204000, Note_on_c, 0, 46, 0
4, 204000, Note_on_c, 0, 46, 80
4, 204000, Note_on_c, 0, 58, 80
4, 204096, Note_on_c, 0, 58, 0
4, 204096, Note_on_c, 0, 46, 0
4, 204480, Note_on_c, 0, 34, 80
4, 204480, Note_on_c, 0, 46, 80
4, 204576, Note_on_c, 0, 46, 0
4, 204576, Note_on_c, 0, 34, 0
4, 204960, Note_on_c, 0, 41, 93
4, 205056, Note_on_c, 0, 41, 0
4, 205440, Note_on_c, 0, 46, 93
4, 205920, Note_on_c, 0, 46, 0
4, 205920, Note_on_c, 0, 41, 93
4, 205920, Note_on_c, 0, 53, 93
4, 206400, Note_on_c, 0, 53, 0
4, 206400, Note_on_c, 0, 41, 0
4, 206400, Note_on_c, 0, 34, 119
4, 206400, Note_on_c, 0, 46, 119
4, 206880, Note_on_c, 0, 46, 0
4, 206880, Note_on_c, 0, 34, 0
4, 206880, End_track
5, 0, Start_track
5, 0, Title_t, "Grand Piano"
5, 0, Program_c, 0, 0
5, 0, Control_c, 0, 7, 115
5, 0, Control_c, 0, 10, 47
5, 30720, Note_on_c, 0, 46, 53
5, 34560, Note_on_c, 0, 46, 0
5, 34560, Note_on_c, 0, 46, 53
5, 37920, Note_on_c, 0, 46, 0
5, 38400, Note_on_c, 0, 46, 53
5, 42240, Note_on_c, 0, 46, 0
5, 42240, Note_on_c, 0, 46, 53
5, 45600, Note_on_c, 0, 46, 0
5, 61440, Note_on_c, 0, 37, 53
5, 61440, Note_on_c, 0, 49, 53
5, 62400, Note_on_c, 0, 49, 0
5, 62400, Note_on_c, 0, 37, 0
5, 62640, Note_on_c, 0, 37, 53
5, 62640, Note_on_c, 0, 49, 53
5, 62663, Note_on_c, 0, 49, 0
5, 62663, Note_on_c, 0, 37, 0
5, 62760, Note_on_c, 0, 37, 53
5, 62760, Note_on_c, 0, 49, 53
5, 62783, Note_on_c, 0, 49, 0
5, 62783, Note_on_c, 0, 37, 0
5, 62880, Note_on_c, 0, 37, 53
5, 62880, Note_on_c, 0, 49, 53
5, 62927, Note_on_c, 0, 49, 0
5, 62927, Note_on_c, 0, 37, 0
5, 63120, Note_on_c, 0, 37, 53
5, 63120, Note_on_c, 0, 49, 53
5, 63167, Note_on_c, 0, 49, 0
5, 63167, Note_on_c, 0, 37, 0
5, 63360, Note_on_c, 0, 37, 53
5, 63360, Note_on_c, 0, 49, 53
5, 64320, Note_on_c, 0, 49, 0
5, 64320, Note_on_c, 0, 37, 0
5, 64560, Note_on_c, 0, 37, 53
5, 64560, Note_on_c, 0, 49, 53
5, 64583, Note_on_c, 0, 49, 0
5, 64583, Note_on_c, 0, 37, 0
5, 64680, Note_on_c, 0, 37, 53
5, 64680, Note_on_c, 0, 49, 53
5, 64703, Note_on_c, 0, 49, 0
5, 64703, Note_on_c, 0, 37, 0
5, 64800, Note_on_c, 0, 37, 53
5, 64800, Note_on_c, 0, 49, 53
5, 64847, Note_on_c, 0, 49, 0
5, 64847, Note_on_c, 0, 37, 0
5, 65040, Note_on_c, 0, 37, 53
5, 65040, Note_on_c, 0, 49, 53
5, 65087, Note_on_c, 0, 49, 0
5, 65087, Note_on_c, 0, 37, 0
5, 65280, Note_on_c, 0, 37, 53
5, 65280, Note_on_c, 0, 49, 53
5, 66240, Note_on_c, 0, 49, 0
5, 66240, Note_on_c, 0, 37, 0
5, 66480, Note_on_c, 0, 37, 53
5, 66480, Note_on_c, 0, 49, 53
5, 66503, Note_on_c, 0, 49, 0
5, 66503, Note_on_c, 0, 37, 0
5, 66600, Note_on_c, 0, 37, 53
5, 66600, Note_on_c, 0, 49, 53
5, 66623, Note_on_c, 0, 49, 0
5, 66623, Note_on_c, 0, 37, 0
5, 66720, Note_on_c, 0, 37, 53
5, 66720, Note_on_c, 0, 49, 53
5, 66767, Note_on_c, 0, 49, 0
5, 66767, Note_on_c, 0, 37, 0
5, 66960, Note_on_c, 0, 37, 53
5, 66960, Note_on_c, 0, 49, 53
5, 67007, Note_on_c, 0, 49, 0
5, 67007, Note_on_c, 0, 37, 0
5, 67200, Note_on_c, 0, 37, 53
5, 67200, Note_on_c, 0, 49, 53
5, 68160, Note_on_c, 0, 49, 0
5, 68160, Note_on_c, 0, 37, 0
5, 68400, Note_on_c, 0, 37, 53
5, 68400, Note_on_c, 0, 49, 53
5, 68423, Note_on_c, 0, 49, 0
5, 68423, Note_on_c, 0, 37, 0
5, 68520, Note_on_c, 0, 37, 53
5, 68520, Note_on_c, 0, 49, 53
5, 68543, Note_on_c, 0, 49, 0
5, 68543, Note_on_c, 0, 37, 0
5, 68640, Note_on_c, 0, 37, 53
5, 68640, Note_on_c, 0, 49, 53
5, 68687, Note_on_c, 0, 49, 0
5, 68687, Note_on_c, 0, 37, 0
5, 68880, Note_on_c, 0, 37, 53
5, 68880, Note_on_c, 0, 49, 53
5, 68927, Note_on_c, 0, 49, 0
5, 68927, Note_on_c, 0, 37, 0
5, 69120, Note_on_c, 0, 37, 53
5, 69120, Note_on_c, 0, 49, 53
5, 70080, Note_on_c, 0, 49, 0
5, 70080, Note_on_c, 0, 37, 0
5, 70320, Note_on_c, 0, 37, 53
5, 70320, Note_on_c, 0, 49, 53
5, 70343, Note_on_c, 0, 49, 0
5, 70343, Note_on_c, 0, 37, 0
5, 70440, Note_on_c, 0, 37, 53
5, 70440, Note_on_c, 0, 49, 53
5, 70463, Note_on_c, 0, 49, 0
5, 70463, Note_on_c, 0, 37, 0
5, 70560, Note_on_c, 0, 37, 53
5, 70560, Note_on_c, 0, 49, 53
5, 70607, Note_on_c, 0, 49, 0
5, 70607, Note_on_c, 0, 37, 0
5, 70800, Note_on_c, 0, 37, 53
5, 70800, Note_on_c, 0, 49, 53
5, 70847, Note_on_c, 0, 49, 0
5, 70847, Note_on_c, 0, 37, 0
5, 71040, Note_on_c, 0, 37, 53
5, 71040, Note_on_c, 0, 49, 53
5, 72000, Note_on_c, 0, 49, 0
5, 72000, Note_on_c, 0, 37, 0
5, 72240, Note_on_c, 0, 37, 53
5, 72240, Note_on_c, 0, 49, 53
5, 72263, Note_on_c, 0, 49, 0
5, 72263, Note_on_c, 0, 37, 0
5, 72360, Note_on_c, 0, 37, 53
5, 72360, Note_on_c, 0, 49, 53
5, 72383, Note_on_c, 0, 49, 0
5, 72383, Note_on_c, 0, 37, 0
5, 72480, Note_on_c, 0, 37, 53
5, 72480, Note_on_c, 0, 49, 53
5, 72527, Note_on_c, 0, 49, 0
5, 72527, Note_on_c, 0, 37, 0
5, 72720, Note_on_c, 0, 37, 53
5, 72720, Note_on_c, 0, 49, 53
5, 72767, Note_on_c, 0, 49, 0
5, 72767, Note_on_c, 0, 37, 0
5, 72960, Note_on_c, 0, 37, 53
5, 72960, Note_on_c, 0, 49, 53
5, 73920, Note_on_c, 0, 49, 0
5, 73920, Note_on_c, 0, 37, 0
5, 74160, Note_on_c, 0, 37, 53
5, 74160, Note_on_c, 0, 49, 53
5, 74183, Note_on_c, 0, 49, 0
5, 74183, Note_on_c, 0, 37, 0
5, 74280, Note_on_c, 0, 37, 53
5, 74280, Note_on_c, 0, 49, 53
5, 74303, Note_on_c, 0, 49, 0
5, 74303, Note_on_c, 0, 37, 0
5, 74400, Note_on_c, 0, 37, 53
5, 74400, Note_on_c, 0, 49, 53
5, 74447, Note_on_c, 0, 49, 0
5, 74447, Note_on_c, 0, 37, 0
5, 74640, Note_on_c, 0, 37, 53
5, 74640, Note_on_c, 0, 49, 53
5, 74687, Note_on_c, 0, 49, 0
5, 74687, Note_on_c, 0, 37, 0
5, 74880, Note_on_c, 0, 37, 53
5, 74880, Note_on_c, 0, 49, 53
5, 75360, Note_on_c, 0, 49, 0
5, 75360, Note_on_c, 0, 37, 0
5, 75840, Note_on_c, 0, 37, 53
5, 75840, Note_on_c, 0, 49, 53
5, 76320, Note_on_c, 0, 49, 0
5, 76320, Note_on_c, 0, 37, 0
5, 99840, Note_on_c, 0, 53, 53
5, 99840, Note_on_c, 0, 56, 53
5, 101760, Note_on_c, 0, 56, 0
5, 101760, Note_on_c, 0, 53, 0
5, 101760, Note_on_c, 0, 55, 53
5, 101760, Note_on_c, 0, 58, 53
5, 103680, Note_on_c, 0, 58, 0
5, 103680, Note_on_c, 0, 55, 0
5, 103680, Note_on_c, 0, 54, 53
5, 103680, Note_on_c, 0, 56, 53
5, 103680, Note_on_c, 0, 60, 53
5, 104640, Note_on_c, 0, 60, 0
5, 104640, Note_on_c, 0, 56, 0
5, 104640, Note_on_c, 0, 54, 0
5, 104640, Note_on_c, 0, 56, 53
5, 104640, Note_on_c, 0, 60, 53
5, 105600, Note_on_c, 0, 60, 0
5, 105600, Note_on_c, 0, 56, 0
5, 105600, Note_on_c, 0, 53, 53
5, 105600, Note_on_c, 0, 56, 53
5, 105600, Note_on_c, 0, 61, 53
5, 106560, Note_on_c, 0, 61, 0
5, 106560, Note_on_c, 0, 56, 0
5, 106560, Note_on_c, 0, 53, 0
5, 106560, Note_on_c, 0, 57, 53
5, 106560, Note_on_c, 0, 61, 53
5, 106560, Note_on_c, 0, 67, 53
5, 107520, Note_on_c, 0, 67, 0
5, 107520, Note_on_c, 0, 61, 0
5, 107520, Note_on_c, 0, 57, 0
5, 107520, Note_on_c, 0, 53, 53
5, 107520, Note_on_c, 0, 56, 53
5, 109440, Note_on_c, 0, 56, 0
5, 109440, Note_on_c, 0, 53, 0
5, 109440, Note_on_c, 0, 55, 53
5, 109440, Note_on_c, 0, 58, 53
5, 111360, Note_on_c, 0, 58, 0
5, 111360, Note_on_c, 0, 55, 0
5, 111360, Note_on_c, 0, 54, 53
5, 111360, Note_on_c, 0, 56, 53
5, 111360, Note_on_c, 0, 60, 53
5, 112320, Note_on_c, 0, 60, 0
5, 112320, Note_on_c, 0, 56, 0
5, 112320, Note_on_c, 0, 54, 0
5, 112320, Note_on_c, 0, 56, 53
5, 112320, Note_on_c, 0, 60, 53
5, 113280, Note_on_c, 0, 60, 0
5, 113280, Note_on_c, 0, 56, 0
5, 113280, Note_on_c, 0, 61, 53
5, 115200, Note_on_c, 0, 61, 0
5, 115200, Note_on_c, 0, 37, 53
5, 115200, Note_on_c, 0, 49, 53
5, 116160, Note_on_c, 0, 49, 0
5, 116160, Note_on_c, 0, 37, 0
5, 116400, Note_on_c, 0, 37, 53
5, 116400, Note_on_c, 0, 49, 53
5, 116423, Note_on_c, 0, 49, 0
5, 116423, Note_on_c, 0, 37, 0
5, 116520, Note_on_c, 0, 37, 53
5, 116520, Note_on_c, 0, 49, 53
5, 116543, Note_on_c, 0, 49, 0
5, 116543, Note_on_c, 0, 37, 0
5, 116640, Note_on_c, 0, 37, 53
5, 116640, Note_on_c, 0, 49, 53
5, 116687, Note_on_c, 0, 49, 0
5, 116687, Note_on_c, 0, 37, 0
5, 116880, Note_on_c, 0, 37, 53
5, 116880, Note_on_c, 0, 49, 53
5, 116927, Note_on_c, 0, 49, 0
5, 116927, Note_on_c, 0, 37, 0
5, 117120, Note_on_c, 0, 37, 53
5, 117120, Note_on_c, 0, 49, 53
5, 118080, Note_on_c, 0, 49, 0
5, 118080, Note_on_c, 0, 37, 0
5, 118320, Note_on_c, 0, 37, 53
5, 118320, Note_on_c, 0, 49, 53
5, 118343, Note_on_c, 0, 49, 0
5, 118343, Note_on_c, 0, 37, 0
5, 118440, Note_on_c, 0, 37, 53
5, 118440, Note_on_c, 0, 49, 53
5, 118463, Note_on_c, 0, 49, 0
5, 118463, Note_on_c, 0, 37, 0
5, 118560, Note_on_c, 0, 37, 53
5, 118560, Note_on_c, 0, 49, 53
5, 118607, Note_on_c, 0, 49, 0
5, 118607, Note_on_c, 0, 37, 0
5, 118800, Note_on_c, 0, 37, 53
5, 118800, Note_on_c, 0, 49, 53
5, 118847, Note_on_c, 0, 49, 0
5, 118847, Note_on_c, 0, 37, 0
5, 119040, Note_on_c, 0, 37, 53
5, 119040, Note_on_c, 0, 49, 53
5, 120000, Note_on_c, 0, 49, 0
5, 120000, Note_on_c, 0, 37, 0
5, 120240, Note_on_c, 0, 37, 53
5, 120240, Note_on_c, 0, 49, 53
5, 120263, Note_on_c, 0, 49, 0
5, 120263, Note_on_c, 0, 37, 0
5, 120360, Note_on_c, 0, 37, 53
5, 120360, Note_on_c, 0, 49, 53
5, 120383, Note_on_c, 0, 49, 0
5, 120383, Note_on_c, 0, 37, 0
5, 120480, Note_on_c, 0, 37, 53
5, 120480, Note_on_c, 0, 49, 53
5, 120527, Note_on_c, 0, 49, 0
5, 120527, Note_on_c, 0, 37, 0
5, 120720, Note_on_c, 0, 37, 53
5, 120720, Note_on_c, 0, 49, 53
5, 120767, Note_on_c, 0, 49, 0
5, 120767, Note_on_c, 0, 37, 0
5, 120960, Note_on_c, 0, 37, 53
5, 120960, Note_on_c, 0, 49, 53
5, 121920, Note_on_c, 0, 49, 0
5, 121920, Note_on_c, 0, 37, 0
5, 122160, Note_on_c, 0, 37, 53
5, 122160, Note_on_c, 0, 49, 53
5, 122183, Note_on_c, 0, 49, 0
5, 122183, Note_on_c, 0, 37, 0
5, 122280, Note_on_c, 0, 37, 53
5, 122280, Note_on_c, 0, 49, 53
5, 122303, Note_on_c, 0, 49, 0
5, 122303, Note_on_c, 0, 37, 0
5, 122400, Note_on_c, 0, 37, 53
5, 122400, Note_on_c, 0, 49, 53
5, 122447, Note_on_c, 0, 49, 0
5, 122447, Note_on_c, 0, 37, 0
5, 122640, Note_on_c, 0, 37, 53
5, 122640, Note_on_c, 0, 49, 53
5, 122687, Note_on_c, 0, 49, 0
5, 122687, Note_on_c, 0, 37, 0
5, 122880, Note_on_c, 0, 37, 53
5, 122880, Note_on_c, 0, 49, 53
5, 123840, Note_on_c, 0, 49, 0
5, 123840, Note_on_c, 0, 37, 0
5, 124080, Note_on_c, 0, 37, 53
5, 124080, Note_on_c, 0, 49, 53
5, 124103, Note_on_c, 0, 49, 0
5, 124103, Note_on_c, 0, 37, 0
5, 124200, Note_on_c, 0, 37, 53
5, 124200, Note_on_c, 0, 49, 53
5, 124223, Note_on_c, 0, 49, 0
5, 124223, Note_on_c, 0, 37, 0
5, 124320, Note_on_c, 0, 37, 53
5, 124320, Note_on_c, 0, 49, 53
5, 124367, Note_on_c, 0, 49, 0
5, 124367, Note_on_c, 0, 37, 0
5, 124560, Note_on_c, 0, 37, 53
5, 124560, Note_on_c, 0, 49, 53
5, 124607, Note_on_c, 0, 49, 0
5, 124607, Note_on_c, 0, 37, 0
5, 124800, Note_on_c, 0, 37, 53
5, 124800, Note_on_c, 0, 49, 53
5, 125760, Note_on_c, 0, 49, 0
5, 125760, Note_on_c, 0, 37, 0
5, 126000, Note_on_c, 0, 37, 53
5, 126000, Note_on_c, 0, 49, 53
5, 126023, Note_on_c, 0, 49, 0
5, 126023, Note_on_c, 0, 37, 0
5, 126120, Note_on_c, 0, 37, 53
5, 126120, Note_on_c, 0, 49, 53
5, 126143, Note_on_c, 0, 49, 0
5, 126143, Note_on_c, 0, 37, 0
5, 126240, Note_on_c, 0, 37, 53
5, 126240, Note_on_c, 0, 49, 53
5, 126287, Note_on_c, 0, 49, 0
5, 126287, Note_on_c, 0, 37, 0
5, 126480, Note_on_c, 0, 37, 53
5, 126480, Note_on_c, 0, 49, 53
5, 126527, Note_on_c, 0, 49, 0
5, 126527, Note_on_c, 0, 37, 0
5, 126720, Note_on_c, 0, 37, 53
5, 126720, Note_on_c, 0, 49, 53
5, 127680, Note_on_c, 0, 49, 0
5, 127680, Note_on_c, 0, 37, 0
5, 127920, Note_on_c, 0, 37, 53
5, 127920, Note_on_c, 0, 49, 53
5, 127943, Note_on_c, 0, 49, 0
5, 127943, Note_on_c, 0, 37, 0
5, 128040, Note_on_c, 0, 37, 53
5, 128040, Note_on_c, 0, 49, 53
5, 128063, Note_on_c, 0, 49, 0
5, 128063, Note_on_c, 0, 37, 0
5, 128160, Note_on_c, 0, 37, 53
5, 128160, Note_on_c, 0, 49, 53
5, 128207, Note_on_c, 0, 49, 0
5, 128207, Note_on_c, 0, 37, 0
5, 128400, Note_on_c, 0, 37, 53
5, 128400, Note_on_c, 0, 49, 53
5, 128447, Note_on_c, 0, 49, 0
5, 128447, Note_on_c, 0, 37, 0
5, 128640, Note_on_c, 0, 37, 53
5, 128640, Note_on_c, 0, 49, 53
5, 129120, Note_on_c, 0, 49, 0
5, 129120, Note_on_c, 0, 37, 0
5, 129600, Note_on_c, 0, 37, 53
5, 129600, Note_on_c, 0, 49, 53
5, 130080, Note_on_c, 0, 49, 0
5, 130080, Note_on_c, 0, 37, 0
5, 161280, Note_on_c, 0, 46, 53
5, 165120, Note_on_c, 0, 46, 0
5, 165120, Note_on_c, 0, 46, 53
5, 168480, Note_on_c, 0, 46, 0
5, 168960, Note_on_c, 0, 46, 53
5, 172800, Note_on_c, 0, 46, 0
5, 172800, Note_on_c, 0, 46, 53
5, 176160, Note_on_c, 0, 46, 0
5, 176640, Note_on_c, 0, 34, 53
5, 176640, Note_on_c, 0, 46, 53
5, 179040, Note_on_c, 0, 46, 0
5, 179040, Note_on_c, 0, 34, 0
5, 179040, Note_on_c, 0, 34, 53
5, 179040, Note_on_c, 0, 46, 53
5, 180480, Note_on_c, 0, 46, 0
5, 180480, Note_on_c, 0, 34, 0
5, 180480, Note_on_c, 0, 34, 53
5, 180480, Note_on_c, 0, 46, 53
5, 184320, Note_on_c, 0, 46, 0
5, 184320, Note_on_c, 0, 34, 0
5, 192000, Control_c, 0, 64, 127
5, 192000, Note_on_c, 0, 34, 53
5, 192000, Note_on_c, 0, 46, 53
5, 193200, Note_on_c, 0, 46, 0
5, 193200, Note_on_c, 0, 34, 0
5, 193200, Note_on_c, 0, 34, 53
5, 193260, Note_on_c, 0, 34, 0
5, 193260, Note_on_c, 0, 46, 53
5, 193320, Note_on_c, 0, 46, 0
5, 193320, Note_on_c, 0, 34, 53
5, 193380, Note_on_c, 0, 34, 0
5, 193380, Note_on_c, 0, 46, 53
5, 193440, Note_on_c, 0, 46, 0
5, 193440, Note_on_c, 0, 34, 53
5, 193500, Note_on_c, 0, 34, 0
5, 193500, Note_on_c, 0, 46, 53
5, 193560, Note_on_c, 0, 46, 0
5, 193560, Note_on_c, 0, 34, 53
5, 193620, Note_on_c, 0, 34, 0
5, 193620, Note_on_c, 0, 46, 53
5, 193680, Note_on_c, 0, 46, 0
5, 193680, Note_on_c, 0, 34, 53
5, 193740, Note_on_c, 0, 34, 0
5, 193740, Note_on_c, 0, 46, 53
5, 193800, Note_on_c, 0, 46, 0
5, 193800, Control_c, 0, 64, 0
5, 193800, Note_on_c, 0, 34, 53
5, 193860, Note_on_c, 0, 34, 0
5, 193860, Note_on_c, 0, 46, 53
5, 193920, Note_on_c, 0, 46, 0
5, 193920, Note_on_c, 0, 46, 53
5, 195840, Note_on_c, 0, 46, 0
5, 195840, Control_c, 0, 64, 127
5, 195840, Note_on_c, 0, 34, 53
5, 195840, Note_on_c, 0, 46, 53
5, 197040, Note_on_c, 0, 46, 0
5, 197040, Note_on_c, 0, 34, 0
5, 197040, Note_on_c, 0, 34, 53
5, 197100, Note_on_c, 0, 34, 0
5, 197100, Note_on_c, 0, 46, 53
5, 197160, Note_on_c, 0, 46, 0
5, 197160, Note_on_c, 0, 34, 53
5, 197220, Note_on_c, 0, 34, 0
5, 197220, Note_on_c, 0, 46, 53
5, 197280, Note_on_c, 0, 46, 0
5, 197280, Note_on_c, 0, 34, 53
5, 197340, Note_on_c, 0, 34, 0
5, 197340, Note_on_c, 0, 46, 53
5, 197400, Note_on_c, 0, 46, 0
5, 197400, Note_on_c, 0, 34, 53
5, 197460, Note_on_c, 0, 34, 0
5, 197460, Note_on_c, 0, 46, 53
5, 197520, Note_on_c, 0, 46, 0
5, 197520, Note_on_c, 0, 34, 53
5, 197580, Note_on_c, 0, 34, 0
5, 197580, Note_on_c, 0, 46, 53
5, 197640, Note_on_c, 0, 46, 0
5, 197640, Control_c, 0, 64, 0
5, 197640, Note_on_c, 0, 34, 53
5, 197700, Note_on_c, 0, 34, 0
5, 197700, Note_on_c, 0, 46, 53
5, 197760, Note_on_c, 0, 46, 0
5, 197760, Note_on_c, 0, 58, 53
5, 199680, Note_on_c, 0, 58, 0
5, 199680, Control_c, 0, 64, 127
5, 199680, Note_on_c, 0, 34, 53
5, 199680, Note_on_c, 0, 46, 53
5, 200880, Note_on_c, 0, 46, 0
5, 200880, Note_on_c, 0, 34, 0
5, 200880, Note_on_c, 0, 34, 53
5, 200940, Note_on_c, 0, 34, 0
5, 200940, Note_on_c, 0, 46, 53
5, 201000, Note_on_c, 0, 46, 0
5, 201000, Note_on_c, 0, 34, 53
5, 201060, Note_on_c, 0, 34, 0
5, 201060, Note_on_c, 0, 46, 53
5, 201120, Note_on_c, 0, 46, 0
5, 201120, Note_on_c, 0, 34, 53
5, 201180, Note_on_c, 0, 34, 0
5, 201180, Note_on_c, 0, 46, 53
5, 201240, Note_on_c, 0, 46, 0
5, 201240, Note_on_c, 0, 34, 53
5, 201300, Note_on_c, 0, 34, 0
5, 201300, Note_on_c, 0, 46, 53
5, 201360, Note_on_c, 0, 46, 0
5, 201360, Note_on_c, 0, 34, 53
5, 201420, Note_on_c, 0, 34, 0
5, 201420, Note_on_c, 0, 46, 53
5, 201480, Note_on_c, 0, 46, 0
5, 201480, Control_c, 0, 64, 0
5, 201480, Note_on_c, 0, 34, 53
5, 201540, Note_on_c, 0, 34, 0
5, 201540, Note_on_c, 0, 46, 53
5, 201600, Note_on_c, 0, 46, 0
5, 201600, Note_on_c, 0, 34, 53
5, 201600, Note_on_c, 0, 46, 53
5, 203520, Note_on_c, 0, 46, 0
5, 203520, Note_on_c, 0, 34, 0
5, 203520, End_track
0, 0, End_of_file
