0, 0, Header, 1, 5, 480
1, 0, Start_track
1, 0, Title_t, "tchaikovsky swan lake supplement 1a pas de deux intro"
1, 0, Copyright_t, "Adaptation for Disklavier pianos, by: Robert C. Kuhmann (c) 2012."
1, 0, Text_t, "Seq. (c) by: Segundo G. Yogore,  2007\012"
1, 0, Time_signature, 4, 2, 24, 8
1, 0, Key_signature, 2, "major"
1, 0, Tempo, 600000
1, 17280, Time_signature, 6, 3, 12, 8
1, 17280, Tempo, 857143
1, 63360, Time_signature, 5, 2, 24, 8
1, 63600, Tempo, 895522
1, 63840, Tempo, 937500
1, 64080, Tempo, 983607
1, 64320, Tempo, 1052632
1, 64560, Tempo, 1111111
1, 64800, Tempo, 1176471
1, 65040, Tempo, 1250000
1, 65280, Tempo, 1363636
1, 65760, Time_signature, 6, 3, 12, 8
1, 65760, Tempo, 857143
1, 67200, Tempo, 857143
1, 83280, Tempo, 895522
1, 83520, Tempo, 937500
1, 83760, Tempo, 983607
1, 84000, Tempo, 1052632
1, 84240, Tempo, 1111111
1, 84480, Tempo, 895522
1, 84720, Tempo, 937500
1, 84960, Tempo, 1000000
1, 85920, Time_signature, 8, 2, 24, 8
1, 85920, End_track
2, 0, Start_track
2, 0, Title_t, "Grand Piano"
2, 0, Program_c, 0, 0
2, 0, Control_c, 0, 7, 115
2, 0, Control_c, 0, 10, 86
2, 0, Note_on_c, 0, 66, 75
2, 360, Note_on_c, 0, 66, 0
2, 360, Note_on_c, 0, 67, 75
2, 480, Note_on_c, 0, 67, 0
2, 480, Note_on_c, 0, 71, 75
2, 840, Note_on_c, 0, 71, 0
2, 840, Note_on_c, 0, 69, 75
2, 960, Note_on_c, 0, 69, 0
2, 960, Note_on_c, 0, 71, 75
2, 1320, Note_on_c, 0, 71, 0
2, 1320, Note_on_c, 0, 73, 75
2, 1440, Note_on_c, 0, 73, 0
2, 1440, Note_on_c, 0, 76, 75
2, 1800, Note_on_c, 0, 76, 0
2, 1800, Note_on_c, 0, 74, 75
2, 1920, Note_on_c, 0, 74, 0
2, 1920, Note_on_c, 0, 73, 75
2, 2079, Note_on_c, 0, 73, 0
2, 2079, Note_on_c, 0, 74, 75
2, 2240, Note_on_c, 0, 74, 0
2, 2240, Note_on_c, 0, 76, 75
2, 2400, Note_on_c, 0, 76, 0
2, 2400, Note_on_c, 0, 78, 88
2, 2559, Note_on_c, 0, 78, 0
2, 2559, Note_on_c, 0, 81, 88
2, 2720, Note_on_c, 0, 81, 0
2, 2720, Note_on_c, 0, 79, 88
2, 2880, Note_on_c, 0, 79, 0
2, 2880, Note_on_c, 0, 78, 114
2, 3360, Note_on_c, 0, 78, 0
2, 3360, Note_on_c, 0, 76, 88
2, 3840, Note_on_c, 0, 76, 0
2, 3840, Note_on_c, 0, 64, 75
2, 3840, Note_on_c, 0, 76, 75
2, 4200, Note_on_c, 0, 76, 0
2, 4200, Note_on_c, 0, 64, 0
2, 4200, Note_on_c, 0, 66, 75
2, 4200, Note_on_c, 0, 78, 75
2, 4320, Note_on_c, 0, 78, 0
2, 4320, Note_on_c, 0, 66, 0
2, 4320, Note_on_c, 0, 69, 75
2, 4320, Note_on_c, 0, 81, 75
2, 4680, Note_on_c, 0, 81, 0
2, 4680, Note_on_c, 0, 69, 0
2, 4680, Note_on_c, 0, 67, 75
2, 4680, Note_on_c, 0, 79, 75
2, 4800, Note_on_c, 0, 79, 0
2, 4800, Note_on_c, 0, 67, 0
2, 4800, Note_on_c, 0, 69, 75
2, 4800, Note_on_c, 0, 81, 75
2, 5160, Note_on_c, 0, 81, 0
2, 5160, Note_on_c, 0, 69, 0
2, 5160, Note_on_c, 0, 70, 75
2, 5160, Note_on_c, 0, 82, 75
2, 5280, Note_on_c, 0, 82, 0
2, 5280, Note_on_c, 0, 70, 0
2, 5280, Note_on_c, 0, 72, 75
2, 5280, Note_on_c, 0, 84, 75
2, 5640, Note_on_c, 0, 84, 0
2, 5640, Note_on_c, 0, 72, 0
2, 5640, Note_on_c, 0, 71, 75
2, 5640, Note_on_c, 0, 83, 75
2, 5760, Note_on_c, 0, 83, 0
2, 5760, Note_on_c, 0, 71, 0
2, 5760, Note_on_c, 0, 70, 75
2, 5760, Note_on_c, 0, 82, 75
2, 5919, Note_on_c, 0, 82, 0
2, 5919, Note_on_c, 0, 70, 0
2, 5919, Note_on_c, 0, 71, 75
2, 5919, Note_on_c, 0, 83, 75
2, 6080, Note_on_c, 0, 83, 0
2, 6080, Note_on_c, 0, 71, 0
2, 6080, Note_on_c, 0, 73, 75
2, 6080, Note_on_c, 0, 85, 75
2, 6240, Note_on_c, 0, 85, 0
2, 6240, Note_on_c, 0, 73, 0
2, 6240, Note_on_c, 0, 74, 88
2, 6240, Note_on_c, 0, 86, 88
2, 6399, Note_on_c, 0, 86, 0
2, 6399, Note_on_c, 0, 74, 0
2, 6399, Note_on_c, 0, 78, 88
2, 6399, Note_on_c, 0, 90, 88
2, 6560, Note_on_c, 0, 90, 0
2, 6560, Note_on_c, 0, 78, 0
2, 6560, Note_on_c, 0, 76, 88
2, 6560, Note_on_c, 0, 88, 88
2, 6720, Note_on_c, 0, 88, 0
2, 6720, Note_on_c, 0, 76, 0
2, 6720, Note_on_c, 0, 86, 114
2, 7200, Note_on_c, 0, 86, 0
2, 7200, Note_on_c, 0, 85, 88
2, 7680, Note_on_c, 0, 85, 0
2, 7920, Note_on_c, 0, 76, 75
2, 7920, Note_on_c, 0, 83, 75
2, 8160, Note_on_c, 0, 83, 0
2, 8160, Note_on_c, 0, 76, 0
2, 8160, Note_on_c, 0, 76, 75
2, 8160, Note_on_c, 0, 83, 75
2, 8400, Note_on_c, 0, 83, 0
2, 8400, Note_on_c, 0, 76, 0
2, 8400, Note_on_c, 0, 76, 75
2, 8400, Note_on_c, 0, 82, 75
2, 8640, Note_on_c, 0, 82, 0
2, 8640, Note_on_c, 0, 76, 0
2, 8640, Note_on_c, 0, 76, 75
2, 8640, Note_on_c, 0, 82, 75
2, 8880, Note_on_c, 0, 82, 0
2, 8880, Note_on_c, 0, 76, 0
2, 8880, Note_on_c, 0, 78, 75
2, 8880, Note_on_c, 0, 81, 75
2, 9120, Note_on_c, 0, 81, 0
2, 9120, Note_on_c, 0, 78, 0
2, 9120, Note_on_c, 0, 78, 75
2, 9120, Note_on_c, 0, 81, 75
2, 9600, Note_on_c, 0, 81, 0
2, 9600, Note_on_c, 0, 78, 0
2, 9840, Note_on_c, 0, 73, 75
2, 9840, Note_on_c, 0, 79, 75
2, 10080, Note_on_c, 0, 79, 0
2, 10080, Note_on_c, 0, 73, 0
2, 10080, Note_on_c, 0, 73, 75
2, 10080, Note_on_c, 0, 79, 75
2, 10320, Note_on_c, 0, 79, 0
2, 10320, Note_on_c, 0, 73, 0
2, 10320, Note_on_c, 0, 74, 75
2, 10320, Note_on_c, 0, 78, 75
2, 10560, Note_on_c, 0, 78, 0
2, 10560, Note_on_c, 0, 74, 0
2, 10560, Note_on_c, 0, 74, 75
2, 10560, Note_on_c, 0, 78, 75
2, 10800, Note_on_c, 0, 78, 0
2, 10800, Note_on_c, 0, 74, 0
2, 10800, Note_on_c, 0, 72, 75
2, 10800, Note_on_c, 0, 76, 75
2, 11040, Note_on_c, 0, 76, 0
2, 11040, Note_on_c, 0, 72, 0
2, 11040, Note_on_c, 0, 72, 75
2, 11040, Note_on_c, 0, 76, 75
2, 11520, Note_on_c, 0, 76, 0
2, 11520, Note_on_c, 0, 72, 0
2, 11760, Note_on_c, 0, 67, 62
2, 11760, Note_on_c, 0, 76, 62
2, 11807, Note_on_c, 0, 76, 0
2, 11807, Note_on_c, 0, 67, 0
2, 12000, Note_on_c, 0, 67, 62
2, 12000, Note_on_c, 0, 76, 62
2, 12047, Note_on_c, 0, 76, 0
2, 12047, Note_on_c, 0, 67, 0
2, 12240, Note_on_c, 0, 67, 62
2, 12240, Note_on_c, 0, 76, 62
2, 12287, Note_on_c, 0, 76, 0
2, 12287, Note_on_c, 0, 67, 0
2, 12480, Note_on_c, 0, 74, 75
2, 12960, Note_on_c, 0, 74, 0
2, 12960, Note_on_c, 0, 73, 62
2, 13440, Note_on_c, 0, 73, 0
2, 13680, Note_on_c, 0, 73, 62
2, 13680, Note_on_c, 0, 79, 62
2, 13680, Note_on_c, 0, 85, 62
2, 13727, Note_on_c, 0, 85, 0
2, 13727, Note_on_c, 0, 79, 0
2, 13727, Note_on_c, 0, 73, 0
2, 13920, Note_on_c, 0, 73, 62
2, 13920, Note_on_c, 0, 79, 62
2, 13920, Note_on_c, 0, 85, 62
2, 13967, Note_on_c, 0, 85, 0
2, 13967, Note_on_c, 0, 79, 0
2, 13967, Note_on_c, 0, 73, 0
2, 14160, Note_on_c, 0, 71, 75
2, 14160, Note_on_c, 0, 79, 75
2, 14160, Note_on_c, 0, 83, 75
2, 14207, Note_on_c, 0, 83, 0
2, 14207, Note_on_c, 0, 79, 0
2, 14207, Note_on_c, 0, 71, 0
2, 14400, Note_on_c, 0, 71, 75
2, 14400, Note_on_c, 0, 83, 75
2, 14880, Note_on_c, 0, 83, 0
2, 14880, Note_on_c, 0, 71, 0
2, 14880, Note_on_c, 0, 69, 62
2, 14880, Note_on_c, 0, 81, 62
2, 15360, Note_on_c, 0, 81, 0
2, 15360, Note_on_c, 0, 69, 0
2, 17280, Note_on_c, 0, 69, 101
2, 18480, Note_on_c, 0, 69, 0
2, 18480, Note_on_c, 0, 69, 75
2, 18720, Note_on_c, 0, 69, 0
2, 18720, Note_on_c, 0, 64, 75
2, 18720, Note_on_c, 0, 67, 75
2, 18720, Note_on_c, 0, 71, 75
2, 19200, Note_on_c, 0, 71, 0
2, 19200, Note_on_c, 0, 67, 0
2, 19200, Note_on_c, 0, 64, 0
2, 19200, Note_on_c, 0, 71, 75
2, 19320, Note_on_c, 0, 71, 75
2, 19380, Note_on_c, 0, 71, 0
2, 19380, Note_on_c, 0, 74, 75
2, 19440, Note_on_c, 0, 74, 0
2, 19440, Note_on_c, 0, 71, 0
2, 19440, Note_on_c, 0, 73, 75
2, 19680, Note_on_c, 0, 73, 0
2, 19680, Note_on_c, 0, 71, 75
2, 19920, Note_on_c, 0, 71, 0
2, 19920, Note_on_c, 0, 73, 75
2, 20160, Note_on_c, 0, 73, 0
2, 20160, Note_on_c, 0, 74, 75
2, 20880, Note_on_c, 0, 74, 0
2, 20880, Note_on_c, 0, 81, 75
2, 21360, Note_on_c, 0, 81, 0
2, 21360, Note_on_c, 0, 78, 75
2, 21600, Note_on_c, 0, 78, 0
2, 21600, Note_on_c, 0, 76, 75
2, 21840, Note_on_c, 0, 76, 0
2, 21840, Note_on_c, 0, 83, 75
2, 22080, Note_on_c, 0, 83, 0
2, 22080, Note_on_c, 0, 79, 75
2, 22320, Note_on_c, 0, 79, 0
2, 22320, Note_on_c, 0, 76, 75
2, 22560, Note_on_c, 0, 76, 0
2, 22560, Note_on_c, 0, 85, 75
2, 22680, Note_on_c, 0, 85, 0
2, 22680, Note_on_c, 0, 83, 75
2, 22703, Note_on_c, 0, 83, 0
2, 22800, Note_on_c, 0, 81, 75
2, 22823, Note_on_c, 0, 81, 0
2, 22920, Note_on_c, 0, 79, 75
2, 22943, Note_on_c, 0, 79, 0
2, 23040, Control_c, 0, 64, 127
2, 23040, Note_on_c, 0, 78, 75
2, 23400, Note_on_c, 0, 78, 0
2, 23400, Note_on_c, 0, 81, 75
2, 23520, Note_on_c, 0, 81, 0
2, 23520, Note_on_c, 0, 85, 75
2, 23580, Note_on_c, 0, 88, 75
2, 23640, Note_on_c, 0, 88, 0
2, 23640, Note_on_c, 0, 85, 0
2, 23640, Control_c, 0, 64, 0
2, 23640, Note_on_c, 0, 86, 75
2, 23760, Note_on_c, 0, 86, 0
2, 23760, Note_on_c, 0, 81, 75
2, 24240, Note_on_c, 0, 81, 0
2, 24240, Note_on_c, 0, 69, 75
2, 24480, Note_on_c, 0, 69, 0
2, 24480, Note_on_c, 0, 71, 75
2, 24960, Note_on_c, 0, 71, 0
2, 24960, Note_on_c, 0, 71, 75
2, 25080, Note_on_c, 0, 71, 75
2, 25140, Note_on_c, 0, 71, 0
2, 25140, Note_on_c, 0, 74, 75
2, 25200, Note_on_c, 0, 74, 0
2, 25200, Note_on_c, 0, 71, 0
2, 25200, Note_on_c, 0, 73, 75
2, 25440, Note_on_c, 0, 73, 0
2, 25440, Note_on_c, 0, 71, 88
2, 25680, Note_on_c, 0, 71, 0
2, 25680, Note_on_c, 0, 73, 88
2, 25920, Note_on_c, 0, 73, 0
2, 25920, Note_on_c, 0, 74, 88
2, 26640, Note_on_c, 0, 74, 0
2, 26640, Note_on_c, 0, 81, 88
2, 27120, Note_on_c, 0, 81, 0
2, 27120, Note_on_c, 0, 78, 88
2, 27360, Note_on_c, 0, 78, 0
2, 27360, Note_on_c, 0, 73, 88
2, 27600, Note_on_c, 0, 73, 0
2, 27600, Note_on_c, 0, 78, 88
2, 27840, Note_on_c, 0, 78, 0
2, 27840, Note_on_c, 0, 81, 88
2, 28080, Note_on_c, 0, 81, 0
2, 28080, Control_c, 0, 64, 127
2, 28080, Note_on_c, 0, 85, 88
2, 28140, Note_on_c, 0, 88, 88
2, 28200, Note_on_c, 0, 88, 0
2, 28200, Note_on_c, 0, 85, 0
2, 28200, Note_on_c, 0, 86, 88
2, 28320, Note_on_c, 0, 86, 0
2, 28320, Note_on_c, 0, 85, 88
2, 28440, Note_on_c, 0, 85, 0
2, 28440, Control_c, 0, 64, 0
2, 28440, Note_on_c, 0, 83, 75
2, 28560, Note_on_c, 0, 83, 0
2, 28560, Note_on_c, 0, 81, 75
2, 28680, Note_on_c, 0, 81, 0
2, 28680, Note_on_c, 0, 80, 75
2, 28800, Note_on_c, 0, 80, 0
2, 28800, Control_c, 0, 64, 127
2, 28800, Note_on_c, 0, 78, 88
2, 29400, Note_on_c, 0, 78, 0
2, 29400, Note_on_c, 0, 78, 75
2, 29439, Note_on_c, 0, 78, 0
2, 29439, Note_on_c, 0, 81, 75
2, 29480, Note_on_c, 0, 81, 0
2, 29480, Note_on_c, 0, 85, 75
2, 29520, Note_on_c, 0, 85, 0
2, 29520, Control_c, 0, 64, 0
2, 29520, Note_on_c, 0, 90, 75
2, 29760, Note_on_c, 0, 90, 0
2, 30000, Note_on_c, 0, 69, 88
2, 30240, Note_on_c, 0, 69, 0
2, 30240, Note_on_c, 0, 71, 88
2, 30720, Note_on_c, 0, 71, 0
2, 30720, Note_on_c, 0, 71, 88
2, 30840, Note_on_c, 0, 71, 88
2, 30900, Note_on_c, 0, 71, 0
2, 30900, Note_on_c, 0, 74, 88
2, 30960, Note_on_c, 0, 74, 0
2, 30960, Note_on_c, 0, 71, 0
2, 30960, Note_on_c, 0, 73, 88
2, 31200, Note_on_c, 0, 73, 0
2, 31200, Note_on_c, 0, 71, 88
2, 31440, Note_on_c, 0, 71, 0
2, 31440, Note_on_c, 0, 73, 88
2, 31680, Note_on_c, 0, 73, 0
2, 31680, Control_c, 0, 64, 127
2, 31680, Note_on_c, 0, 74, 88
2, 32280, Note_on_c, 0, 74, 0
2, 32280, Note_on_c, 0, 74, 88
2, 32310, Note_on_c, 0, 74, 0
2, 32310, Note_on_c, 0, 76, 88
2, 32340, Note_on_c, 0, 76, 0
2, 32340, Note_on_c, 0, 78, 88
2, 32370, Note_on_c, 0, 78, 0
2, 32370, Note_on_c, 0, 79, 88
2, 32400, Note_on_c, 0, 79, 0
2, 32400, Control_c, 0, 64, 0
2, 32400, Note_on_c, 0, 81, 88
2, 32880, Note_on_c, 0, 81, 0
2, 32880, Note_on_c, 0, 78, 88
2, 33120, Note_on_c, 0, 78, 0
2, 33120, Note_on_c, 0, 76, 88
2, 33360, Note_on_c, 0, 76, 0
2, 33360, Note_on_c, 0, 83, 88
2, 33600, Note_on_c, 0, 83, 0
2, 33600, Note_on_c, 0, 79, 88
2, 33840, Note_on_c, 0, 79, 0
2, 33840, Note_on_c, 0, 76, 88
2, 33960, Note_on_c, 0, 76, 0
2, 33960, Note_on_c, 0, 86, 88
2, 34080, Note_on_c, 0, 86, 0
2, 34080, Note_on_c, 0, 85, 88
2, 34103, Note_on_c, 0, 85, 0
2, 34200, Note_on_c, 0, 83, 88
2, 34223, Note_on_c, 0, 83, 0
2, 34320, Note_on_c, 0, 81, 88
2, 34343, Note_on_c, 0, 81, 0
2, 34440, Note_on_c, 0, 79, 88
2, 34463, Note_on_c, 0, 79, 0
2, 34560, Note_on_c, 0, 78, 88
2, 34640, Note_on_c, 0, 78, 0
2, 34640, Note_on_c, 0, 90, 88
2, 34719, Note_on_c, 0, 90, 0
2, 34719, Note_on_c, 0, 88, 88
2, 34735, Note_on_c, 0, 88, 0
2, 34800, Note_on_c, 0, 86, 88
2, 34815, Note_on_c, 0, 86, 0
2, 34880, Note_on_c, 0, 85, 88
2, 34896, Note_on_c, 0, 85, 0
2, 34959, Note_on_c, 0, 83, 88
2, 34975, Note_on_c, 0, 83, 0
2, 35040, Note_on_c, 0, 81, 88
2, 35055, Note_on_c, 0, 81, 0
2, 35120, Note_on_c, 0, 78, 88
2, 35136, Note_on_c, 0, 78, 0
2, 35199, Note_on_c, 0, 76, 88
2, 35215, Note_on_c, 0, 76, 0
2, 35280, Note_on_c, 0, 74, 88
2, 35760, Note_on_c, 0, 74, 0
2, 35760, Note_on_c, 0, 69, 88
2, 35760, Note_on_c, 0, 81, 88
2, 36000, Note_on_c, 0, 81, 0
2, 36000, Note_on_c, 0, 69, 0
2, 36000, Note_on_c, 0, 83, 88
2, 36600, Note_on_c, 0, 83, 88
2, 36660, Note_on_c, 0, 83, 0
2, 36660, Note_on_c, 0, 86, 88
2, 36720, Note_on_c, 0, 86, 0
2, 36720, Note_on_c, 0, 83, 0
2, 36720, Note_on_c, 0, 85, 88
2, 36960, Note_on_c, 0, 85, 0
2, 36960, Note_on_c, 0, 83, 88
2, 37200, Note_on_c, 0, 83, 0
2, 37200, Note_on_c, 0, 85, 88
2, 37440, Note_on_c, 0, 85, 0
2, 37440, Note_on_c, 0, 86, 88
2, 37719, Note_on_c, 0, 86, 0
2, 37719, Control_c, 0, 64, 127
2, 37719, Note_on_c, 0, 69, 88
2, 37760, Note_on_c, 0, 69, 0
2, 37760, Note_on_c, 0, 71, 88
2, 37800, Note_on_c, 0, 71, 0
2, 37800, Note_on_c, 0, 73, 88
2, 37839, Note_on_c, 0, 73, 0
2, 37839, Note_on_c, 0, 74, 88
2, 37880, Note_on_c, 0, 74, 0
2, 37880, Note_on_c, 0, 76, 88
2, 37920, Note_on_c, 0, 76, 0
2, 37920, Control_c, 0, 64, 0
2, 37920, Note_on_c, 0, 78, 88
2, 37959, Note_on_c, 0, 78, 0
2, 37959, Control_c, 0, 64, 127
2, 37959, Note_on_c, 0, 73, 88
2, 38000, Note_on_c, 0, 73, 0
2, 38000, Note_on_c, 0, 74, 88
2, 38040, Note_on_c, 0, 74, 0
2, 38040, Note_on_c, 0, 76, 88
2, 38079, Note_on_c, 0, 76, 0
2, 38079, Note_on_c, 0, 78, 88
2, 38120, Note_on_c, 0, 78, 0
2, 38120, Note_on_c, 0, 79, 88
2, 38160, Note_on_c, 0, 79, 0
2, 38160, Note_on_c, 0, 81, 88
2, 38400, Control_c, 0, 64, 0
2, 38439, Note_on_c, 0, 81, 0
2, 38439, Control_c, 0, 64, 127
2, 38439, Note_on_c, 0, 78, 88
2, 38480, Note_on_c, 0, 78, 0
2, 38480, Note_on_c, 0, 79, 88
2, 38520, Note_on_c, 0, 79, 0
2, 38520, Note_on_c, 0, 81, 88
2, 38559, Note_on_c, 0, 81, 0
2, 38559, Note_on_c, 0, 83, 88
2, 38600, Note_on_c, 0, 83, 0
2, 38600, Note_on_c, 0, 85, 88
2, 38640, Note_on_c, 0, 85, 0
2, 38640, Control_c, 0, 64, 0
2, 38640, Note_on_c, 0, 86, 88
2, 38679, Note_on_c, 0, 86, 0
2, 38679, Control_c, 0, 64, 127
2, 38679, Note_on_c, 0, 80, 88
2, 38720, Note_on_c, 0, 80, 0
2, 38720, Note_on_c, 0, 81, 88
2, 38760, Note_on_c, 0, 81, 0
2, 38760, Note_on_c, 0, 83, 88
2, 38799, Note_on_c, 0, 83, 0
2, 38799, Note_on_c, 0, 85, 88
2, 38840, Note_on_c, 0, 85, 0
2, 38840, Control_c, 0, 64, 0
2, 38840, Note_on_c, 0, 86, 88
2, 38880, Note_on_c, 0, 86, 0
2, 38880, Note_on_c, 0, 88, 88
2, 39120, Note_on_c, 0, 88, 0
2, 39120, Note_on_c, 0, 90, 88
2, 39480, Note_on_c, 0, 90, 0
2, 39480, Note_on_c, 0, 86, 88
2, 39600, Note_on_c, 0, 86, 0
2, 39600, Control_c, 0, 64, 127
2, 39600, Note_on_c, 0, 83, 88
2, 39660, Note_on_c, 0, 83, 0
2, 39660, Note_on_c, 0, 85, 88
2, 39720, Note_on_c, 0, 85, 0
2, 39720, Note_on_c, 0, 83, 88
2, 39780, Note_on_c, 0, 83, 0
2, 39780, Control_c, 0, 64, 0
2, 39780, Note_on_c, 0, 81, 88
2, 39840, Note_on_c, 0, 81, 0
2, 39840, Control_c, 0, 64, 127
2, 39840, Note_on_c, 0, 80, 88
2, 39900, Note_on_c, 0, 80, 0
2, 39900, Note_on_c, 0, 81, 88
2, 39960, Note_on_c, 0, 81, 0
2, 39960, Note_on_c, 0, 80, 88
2, 40020, Note_on_c, 0, 80, 0
2, 40020, Control_c, 0, 64, 0
2, 40020, Note_on_c, 0, 78, 88
2, 40080, Note_on_c, 0, 78, 0
2, 40080, Control_c, 0, 64, 127
2, 40080, Note_on_c, 0, 76, 88
2, 40140, Note_on_c, 0, 76, 0
2, 40140, Note_on_c, 0, 78, 88
2, 40200, Note_on_c, 0, 78, 0
2, 40200, Note_on_c, 0, 76, 88
2, 40260, Note_on_c, 0, 76, 0
2, 40260, Control_c, 0, 64, 0
2, 40260, Note_on_c, 0, 74, 88
2, 40320, Note_on_c, 0, 74, 0
2, 40320, Control_c, 0, 64, 127
2, 40320, Note_on_c, 0, 73, 88
2, 40380, Note_on_c, 0, 73, 0
2, 40380, Note_on_c, 0, 74, 88
2, 40440, Note_on_c, 0, 74, 0
2, 40440, Note_on_c, 0, 73, 88
2, 40500, Note_on_c, 0, 73, 0
2, 40500, Control_c, 0, 64, 0
2, 40500, Note_on_c, 0, 71, 88
2, 40560, Note_on_c, 0, 71, 0
2, 40560, Note_on_c, 0, 69, 88
2, 40575, Note_on_c, 0, 69, 0
2, 40620, Note_on_c, 0, 69, 88
2, 40635, Note_on_c, 0, 69, 0
2, 40680, Note_on_c, 0, 71, 88
2, 40695, Note_on_c, 0, 71, 0
2, 40740, Note_on_c, 0, 73, 88
2, 40755, Note_on_c, 0, 73, 0
2, 40800, Note_on_c, 0, 74, 88
2, 40815, Note_on_c, 0, 74, 0
2, 40860, Note_on_c, 0, 76, 88
2, 40875, Note_on_c, 0, 76, 0
2, 40920, Note_on_c, 0, 78, 88
2, 40935, Note_on_c, 0, 78, 0
2, 40980, Note_on_c, 0, 80, 88
2, 40995, Note_on_c, 0, 80, 0
2, 41040, Note_on_c, 0, 69, 114
2, 41040, Note_on_c, 0, 73, 114
2, 41040, Note_on_c, 0, 76, 114
2, 41040, Note_on_c, 0, 81, 114
2, 41280, Note_on_c, 0, 81, 0
2, 41280, Note_on_c, 0, 69, 0
2, 41280, Note_on_c, 0, 73, 0
2, 41280, Note_on_c, 0, 76, 0
2, 41760, Note_on_c, 0, 69, 75
2, 41760, Note_on_c, 0, 73, 75
2, 41760, Note_on_c, 0, 76, 75
2, 42240, Note_on_c, 0, 76, 0
2, 42240, Note_on_c, 0, 73, 0
2, 42240, Note_on_c, 0, 69, 0
2, 42240, Note_on_c, 0, 73, 75
2, 42240, Note_on_c, 0, 83, 75
2, 42420, Note_on_c, 0, 83, 0
2, 42420, Note_on_c, 0, 73, 0
2, 42420, Note_on_c, 0, 73, 75
2, 42420, Note_on_c, 0, 81, 75
2, 42480, Note_on_c, 0, 81, 0
2, 42480, Note_on_c, 0, 73, 0
2, 42480, Note_on_c, 0, 73, 75
2, 42480, Note_on_c, 0, 81, 75
2, 42503, Note_on_c, 0, 81, 0
2, 42503, Note_on_c, 0, 73, 0
2, 42600, Note_on_c, 0, 73, 75
2, 42600, Note_on_c, 0, 80, 75
2, 42623, Note_on_c, 0, 80, 0
2, 42623, Note_on_c, 0, 73, 0
2, 42720, Note_on_c, 0, 73, 75
2, 42720, Note_on_c, 0, 79, 75
2, 42743, Note_on_c, 0, 79, 0
2, 42743, Note_on_c, 0, 73, 0
2, 42840, Note_on_c, 0, 73, 75
2, 42840, Note_on_c, 0, 78, 75
2, 42863, Note_on_c, 0, 78, 0
2, 42863, Note_on_c, 0, 73, 0
2, 42960, Note_on_c, 0, 73, 75
2, 42960, Note_on_c, 0, 76, 75
2, 43007, Note_on_c, 0, 76, 0
2, 43007, Note_on_c, 0, 73, 0
2, 43200, Note_on_c, 0, 69, 75
2, 43200, Note_on_c, 0, 74, 75
2, 43200, Note_on_c, 0, 78, 75
2, 43440, Note_on_c, 0, 78, 0
2, 43440, Note_on_c, 0, 74, 0
2, 43440, Note_on_c, 0, 69, 0
2, 43440, Note_on_c, 0, 69, 75
2, 43440, Note_on_c, 0, 74, 75
2, 43440, Note_on_c, 0, 81, 75
2, 43800, Note_on_c, 0, 81, 0
2, 43800, Note_on_c, 0, 74, 0
2, 43800, Note_on_c, 0, 69, 0
2, 43800, Note_on_c, 0, 69, 75
2, 43800, Note_on_c, 0, 74, 75
2, 43920, Note_on_c, 0, 74, 0
2, 43920, Note_on_c, 0, 69, 0
2, 43920, Note_on_c, 0, 68, 75
2, 43920, Note_on_c, 0, 74, 75
2, 43920, Note_on_c, 0, 78, 75
2, 44400, Note_on_c, 0, 78, 0
2, 44400, Note_on_c, 0, 74, 0
2, 44400, Note_on_c, 0, 68, 0
2, 44400, Note_on_c, 0, 69, 75
2, 44400, Note_on_c, 0, 73, 75
2, 44400, Note_on_c, 0, 76, 75
2, 44640, Note_on_c, 0, 76, 0
2, 44640, Note_on_c, 0, 73, 0
2, 44640, Note_on_c, 0, 69, 0
2, 44640, Note_on_c, 0, 69, 75
2, 44640, Note_on_c, 0, 73, 75
2, 44640, Note_on_c, 0, 76, 75
2, 45120, Note_on_c, 0, 76, 0
2, 45120, Note_on_c, 0, 73, 0
2, 45120, Note_on_c, 0, 69, 0
2, 45120, Note_on_c, 0, 73, 75
2, 45120, Note_on_c, 0, 83, 75
2, 45300, Note_on_c, 0, 83, 0
2, 45300, Note_on_c, 0, 73, 0
2, 45300, Note_on_c, 0, 73, 75
2, 45300, Note_on_c, 0, 81, 75
2, 45360, Note_on_c, 0, 81, 0
2, 45360, Note_on_c, 0, 73, 0
2, 45360, Note_on_c, 0, 73, 75
2, 45360, Note_on_c, 0, 81, 75
2, 45383, Note_on_c, 0, 81, 0
2, 45383, Note_on_c, 0, 73, 0
2, 45480, Note_on_c, 0, 73, 75
2, 45480, Note_on_c, 0, 80, 75
2, 45503, Note_on_c, 0, 80, 0
2, 45503, Note_on_c, 0, 73, 0
2, 45600, Note_on_c, 0, 73, 75
2, 45600, Note_on_c, 0, 79, 75
2, 45623, Note_on_c, 0, 79, 0
2, 45623, Note_on_c, 0, 73, 0
2, 45720, Note_on_c, 0, 73, 75
2, 45720, Note_on_c, 0, 78, 75
2, 45743, Note_on_c, 0, 78, 0
2, 45743, Note_on_c, 0, 73, 0
2, 45840, Note_on_c, 0, 73, 75
2, 45840, Note_on_c, 0, 76, 75
2, 45887, Note_on_c, 0, 76, 0
2, 45887, Note_on_c, 0, 73, 0
2, 46080, Note_on_c, 0, 69, 75
2, 46080, Note_on_c, 0, 74, 75
2, 46080, Note_on_c, 0, 78, 75
2, 46320, Note_on_c, 0, 78, 0
2, 46320, Note_on_c, 0, 74, 0
2, 46320, Note_on_c, 0, 69, 0
2, 46320, Note_on_c, 0, 74, 75
2, 46320, Note_on_c, 0, 80, 75
2, 46560, Note_on_c, 0, 80, 0
2, 46560, Note_on_c, 0, 74, 0
2, 46560, Note_on_c, 0, 73, 75
2, 46560, Note_on_c, 0, 85, 75
2, 46800, Note_on_c, 0, 85, 0
2, 46800, Note_on_c, 0, 73, 0
2, 46800, Note_on_c, 0, 69, 75
2, 46800, Note_on_c, 0, 73, 75
2, 46800, Note_on_c, 0, 78, 75
2, 46920, Note_on_c, 0, 78, 0
2, 46920, Note_on_c, 0, 73, 0
2, 46920, Note_on_c, 0, 69, 0
2, 46920, Note_on_c, 0, 85, 75
2, 47040, Note_on_c, 0, 85, 0
2, 47040, Note_on_c, 0, 90, 75
2, 47160, Note_on_c, 0, 90, 0
2, 47160, Note_on_c, 0, 85, 75
2, 47280, Note_on_c, 0, 85, 0
2, 47280, Note_on_c, 0, 81, 62
2, 47400, Note_on_c, 0, 81, 0
2, 47400, Note_on_c, 0, 78, 62
2, 47520, Note_on_c, 0, 78, 0
2, 47520, Note_on_c, 0, 76, 62
2, 47760, Note_on_c, 0, 76, 0
2, 47760, Note_on_c, 0, 83, 88
2, 48120, Note_on_c, 0, 83, 0
2, 48120, Note_on_c, 0, 81, 62
2, 48240, Note_on_c, 0, 81, 0
2, 48240, Control_c, 0, 64, 127
2, 48240, Note_on_c, 0, 81, 62
2, 48360, Note_on_c, 0, 81, 0
2, 48360, Note_on_c, 0, 80, 62
2, 48480, Note_on_c, 0, 80, 0
2, 48480, Note_on_c, 0, 79, 62
2, 48600, Note_on_c, 0, 79, 0
2, 48600, Control_c, 0, 64, 0
2, 48600, Note_on_c, 0, 78, 62
2, 48720, Note_on_c, 0, 78, 0
2, 48720, Note_on_c, 0, 76, 62
2, 48767, Note_on_c, 0, 76, 0
2, 48960, Note_on_c, 0, 78, 62
2, 49200, Note_on_c, 0, 78, 0
2, 49200, Note_on_c, 0, 81, 88
2, 49560, Note_on_c, 0, 81, 0
2, 49560, Note_on_c, 0, 74, 62
2, 49680, Note_on_c, 0, 74, 0
2, 49680, Note_on_c, 0, 78, 62
2, 50160, Note_on_c, 0, 78, 0
2, 50160, Note_on_c, 0, 76, 62
2, 50400, Note_on_c, 0, 76, 0
2, 50400, Note_on_c, 0, 76, 62
2, 50640, Note_on_c, 0, 76, 0
2, 50640, Note_on_c, 0, 83, 88
2, 51000, Note_on_c, 0, 83, 0
2, 51000, Note_on_c, 0, 81, 62
2, 51120, Note_on_c, 0, 81, 0
2, 51120, Control_c, 0, 64, 127
2, 51120, Note_on_c, 0, 81, 62
2, 51240, Note_on_c, 0, 81, 0
2, 51240, Note_on_c, 0, 80, 62
2, 51360, Note_on_c, 0, 80, 0
2, 51360, Note_on_c, 0, 79, 62
2, 51480, Note_on_c, 0, 79, 0
2, 51480, Control_c, 0, 64, 0
2, 51480, Note_on_c, 0, 78, 62
2, 51600, Note_on_c, 0, 78, 0
2, 51600, Note_on_c, 0, 76, 62
2, 51840, Note_on_c, 0, 76, 0
2, 51840, Note_on_c, 0, 78, 62
2, 52080, Note_on_c, 0, 78, 0
2, 52080, Note_on_c, 0, 83, 88
2, 52440, Note_on_c, 0, 83, 0
2, 52440, Note_on_c, 0, 80, 62
2, 52560, Note_on_c, 0, 80, 0
2, 52560, Control_c, 0, 64, 127
2, 52560, Note_on_c, 0, 81, 62
2, 52620, Note_on_c, 0, 81, 0
2, 52620, Note_on_c, 0, 80, 62
2, 52680, Note_on_c, 0, 80, 0
2, 52680, Note_on_c, 0, 81, 62
2, 52740, Note_on_c, 0, 81, 0
2, 52740, Control_c, 0, 64, 0
2, 52740, Note_on_c, 0, 78, 62
2, 52800, Note_on_c, 0, 78, 0
2, 52800, Control_c, 0, 64, 127
2, 52800, Note_on_c, 0, 76, 62
2, 52860, Note_on_c, 0, 76, 0
2, 52860, Note_on_c, 0, 75, 62
2, 52920, Note_on_c, 0, 75, 0
2, 52920, Note_on_c, 0, 76, 62
2, 52980, Note_on_c, 0, 76, 0
2, 52980, Control_c, 0, 64, 0
2, 52980, Note_on_c, 0, 73, 62
2, 53040, Note_on_c, 0, 73, 0
2, 53040, Control_c, 0, 64, 127
2, 53040, Note_on_c, 0, 71, 62
2, 53100, Note_on_c, 0, 71, 0
2, 53100, Note_on_c, 0, 69, 62
2, 53160, Note_on_c, 0, 69, 0
2, 53160, Note_on_c, 0, 64, 62
2, 53220, Note_on_c, 0, 64, 0
2, 53220, Control_c, 0, 64, 0
2, 53220, Note_on_c, 0, 61, 62
2, 53280, Note_on_c, 0, 61, 0
2, 53280, Note_on_c, 0, 69, 75
2, 53520, Note_on_c, 0, 69, 0
2, 53520, Note_on_c, 0, 69, 75
2, 53520, Note_on_c, 0, 76, 75
2, 53880, Note_on_c, 0, 76, 0
2, 53880, Note_on_c, 0, 69, 0
2, 53880, Note_on_c, 0, 69, 75
2, 53880, Note_on_c, 0, 74, 75
2, 54000, Note_on_c, 0, 74, 0
2, 54000, Note_on_c, 0, 69, 0
2, 54000, Note_on_c, 0, 69, 88
2, 54000, Note_on_c, 0, 74, 88
2, 54120, Note_on_c, 0, 74, 0
2, 54120, Note_on_c, 0, 69, 0
2, 54120, Note_on_c, 0, 69, 88
2, 54120, Note_on_c, 0, 74, 88
2, 54240, Note_on_c, 0, 74, 0
2, 54240, Note_on_c, 0, 69, 0
2, 54240, Note_on_c, 0, 68, 88
2, 54240, Note_on_c, 0, 71, 88
2, 54360, Note_on_c, 0, 71, 0
2, 54360, Note_on_c, 0, 68, 0
2, 54360, Note_on_c, 0, 68, 88
2, 54360, Note_on_c, 0, 74, 88
2, 54480, Note_on_c, 0, 74, 0
2, 54480, Note_on_c, 0, 68, 0
2, 54480, Note_on_c, 0, 67, 88
2, 54480, Note_on_c, 0, 73, 88
2, 54720, Note_on_c, 0, 73, 0
2, 54720, Note_on_c, 0, 67, 0
2, 54720, Note_on_c, 0, 67, 88
2, 54720, Note_on_c, 0, 69, 88
2, 54720, Note_on_c, 0, 73, 88
2, 54960, Note_on_c, 0, 73, 0
2, 54960, Note_on_c, 0, 69, 0
2, 54960, Note_on_c, 0, 67, 0
2, 54960, Note_on_c, 0, 67, 88
2, 54960, Note_on_c, 0, 73, 88
2, 54960, Note_on_c, 0, 79, 88
2, 55320, Note_on_c, 0, 79, 0
2, 55320, Note_on_c, 0, 73, 0
2, 55320, Note_on_c, 0, 67, 0
2, 55320, Note_on_c, 0, 66, 88
2, 55320, Note_on_c, 0, 72, 88
2, 55320, Note_on_c, 0, 78, 88
2, 55440, Note_on_c, 0, 78, 0
2, 55440, Note_on_c, 0, 72, 0
2, 55440, Note_on_c, 0, 66, 0
2, 55440, Note_on_c, 0, 66, 88
2, 55440, Note_on_c, 0, 72, 88
2, 55440, Note_on_c, 0, 78, 88
2, 55680, Note_on_c, 0, 78, 0
2, 55680, Note_on_c, 0, 72, 0
2, 55680, Note_on_c, 0, 66, 0
2, 55680, Note_on_c, 0, 69, 88
2, 55680, Note_on_c, 0, 75, 88
2, 55680, Note_on_c, 0, 81, 88
2, 56040, Note_on_c, 0, 81, 0
2, 56040, Note_on_c, 0, 75, 0
2, 56040, Note_on_c, 0, 69, 0
2, 56040, Note_on_c, 0, 67, 88
2, 56040, Note_on_c, 0, 73, 88
2, 56040, Note_on_c, 0, 79, 88
2, 56160, Note_on_c, 0, 79, 0
2, 56160, Note_on_c, 0, 73, 0
2, 56160, Note_on_c, 0, 67, 0
2, 56160, Note_on_c, 0, 67, 88
2, 56160, Note_on_c, 0, 73, 88
2, 56160, Note_on_c, 0, 79, 88
2, 56400, Note_on_c, 0, 79, 0
2, 56400, Note_on_c, 0, 73, 0
2, 56400, Note_on_c, 0, 67, 0
2, 56400, Note_on_c, 0, 71, 88
2, 56400, Note_on_c, 0, 76, 88
2, 56400, Note_on_c, 0, 83, 88
2, 56760, Note_on_c, 0, 83, 0
2, 56760, Note_on_c, 0, 76, 0
2, 56760, Note_on_c, 0, 71, 0
2, 56760, Note_on_c, 0, 69, 88
2, 56760, Note_on_c, 0, 74, 88
2, 56760, Note_on_c, 0, 81, 88
2, 56880, Note_on_c, 0, 81, 0
2, 56880, Note_on_c, 0, 74, 0
2, 56880, Note_on_c, 0, 69, 0
2, 56880, Note_on_c, 0, 69, 88
2, 56880, Note_on_c, 0, 74, 88
2, 56880, Note_on_c, 0, 81, 88
2, 57120, Note_on_c, 0, 81, 0
2, 57120, Note_on_c, 0, 74, 0
2, 57120, Note_on_c, 0, 69, 0
2, 57120, Note_on_c, 0, 72, 88
2, 57120, Note_on_c, 0, 78, 88
2, 57120, Note_on_c, 0, 84, 88
2, 57480, Note_on_c, 0, 84, 0
2, 57480, Note_on_c, 0, 78, 0
2, 57480, Note_on_c, 0, 72, 0
2, 57480, Note_on_c, 0, 71, 88
2, 57480, Note_on_c, 0, 79, 88
2, 57480, Note_on_c, 0, 83, 88
2, 57600, Note_on_c, 0, 83, 0
2, 57600, Note_on_c, 0, 79, 0
2, 57600, Note_on_c, 0, 71, 0
2, 57600, Note_on_c, 0, 71, 101
2, 57600, Note_on_c, 0, 79, 101
2, 57600, Note_on_c, 0, 83, 101
2, 57720, Note_on_c, 0, 83, 0
2, 57720, Note_on_c, 0, 79, 0
2, 57720, Note_on_c, 0, 71, 0
2, 57720, Note_on_c, 0, 62, 101
2, 57720, Note_on_c, 0, 74, 101
2, 57840, Note_on_c, 0, 74, 0
2, 57840, Note_on_c, 0, 62, 0
2, 57840, Note_on_c, 0, 64, 88
2, 57840, Note_on_c, 0, 76, 88
2, 57960, Note_on_c, 0, 76, 0
2, 57960, Note_on_c, 0, 64, 0
2, 57960, Note_on_c, 0, 66, 88
2, 57960, Note_on_c, 0, 78, 88
2, 58080, Note_on_c, 0, 78, 0
2, 58080, Note_on_c, 0, 66, 0
2, 58080, Note_on_c, 0, 67, 75
2, 58080, Note_on_c, 0, 79, 75
2, 58200, Note_on_c, 0, 79, 0
2, 58200, Note_on_c, 0, 67, 0
2, 58200, Note_on_c, 0, 69, 75
2, 58200, Note_on_c, 0, 81, 75
2, 58320, Note_on_c, 0, 81, 0
2, 58320, Note_on_c, 0, 69, 0
2, 58320, Note_on_c, 0, 71, 62
2, 58320, Note_on_c, 0, 83, 62
2, 58440, Note_on_c, 0, 83, 0
2, 58440, Note_on_c, 0, 71, 0
2, 58440, Control_c, 0, 64, 127
2, 58440, Note_on_c, 0, 67, 62
2, 58560, Note_on_c, 0, 67, 0
2, 58560, Note_on_c, 0, 71, 62
2, 58680, Note_on_c, 0, 71, 0
2, 58680, Note_on_c, 0, 74, 62
2, 58800, Note_on_c, 0, 74, 0
2, 58800, Note_on_c, 0, 79, 62
2, 58920, Note_on_c, 0, 79, 0
2, 58920, Control_c, 0, 64, 0
2, 58920, Note_on_c, 0, 83, 62
2, 59040, Note_on_c, 0, 83, 0
2, 59040, Note_on_c, 0, 67, 75
2, 59040, Note_on_c, 0, 71, 75
2, 59063, Note_on_c, 0, 71, 0
2, 59063, Note_on_c, 0, 67, 0
2, 59160, Note_on_c, 0, 67, 75
2, 59160, Note_on_c, 0, 71, 75
2, 59183, Note_on_c, 0, 71, 0
2, 59183, Note_on_c, 0, 67, 0
2, 59280, Note_on_c, 0, 67, 75
2, 59280, Note_on_c, 0, 71, 75
2, 59280, Note_on_c, 0, 73, 75
2, 59303, Note_on_c, 0, 73, 0
2, 59303, Note_on_c, 0, 71, 0
2, 59303, Note_on_c, 0, 67, 0
2, 59400, Note_on_c, 0, 67, 62
2, 59400, Note_on_c, 0, 71, 62
2, 59400, Note_on_c, 0, 75, 62
2, 59423, Note_on_c, 0, 75, 0
2, 59423, Note_on_c, 0, 71, 0
2, 59423, Note_on_c, 0, 67, 0
2, 59520, Note_on_c, 0, 67, 62
2, 59520, Note_on_c, 0, 71, 62
2, 59520, Note_on_c, 0, 76, 62
2, 59640, Note_on_c, 0, 76, 0
2, 59640, Note_on_c, 0, 71, 0
2, 59640, Note_on_c, 0, 67, 0
2, 59640, Note_on_c, 0, 67, 62
2, 59640, Note_on_c, 0, 71, 62
2, 59640, Note_on_c, 0, 78, 62
2, 59760, Note_on_c, 0, 78, 0
2, 59760, Note_on_c, 0, 71, 0
2, 59760, Note_on_c, 0, 67, 0
2, 59760, Note_on_c, 0, 67, 62
2, 59760, Note_on_c, 0, 71, 62
2, 59760, Note_on_c, 0, 79, 62
2, 59880, Note_on_c, 0, 79, 0
2, 59880, Note_on_c, 0, 71, 0
2, 59880, Note_on_c, 0, 67, 0
2, 59880, Control_c, 0, 64, 127
2, 59880, Note_on_c, 0, 64, 62
2, 60000, Note_on_c, 0, 64, 0
2, 60000, Note_on_c, 0, 67, 62
2, 60120, Note_on_c, 0, 67, 0
2, 60120, Note_on_c, 0, 71, 62
2, 60240, Note_on_c, 0, 71, 0
2, 60240, Note_on_c, 0, 76, 62
2, 60360, Note_on_c, 0, 76, 0
2, 60360, Control_c, 0, 64, 0
2, 60360, Note_on_c, 0, 79, 62
2, 60480, Note_on_c, 0, 79, 0
2, 60480, Note_on_c, 0, 69, 88
2, 60720, Note_on_c, 0, 69, 0
2, 60720, Control_c, 0, 64, 127
2, 60720, Note_on_c, 0, 64, 88
2, 60780, Note_on_c, 0, 64, 0
2, 60780, Note_on_c, 0, 57, 88
2, 60840, Note_on_c, 0, 57, 0
2, 60840, Note_on_c, 0, 61, 88
2, 60900, Note_on_c, 0, 61, 0
2, 60900, Note_on_c, 0, 64, 88
2, 60960, Note_on_c, 0, 64, 0
2, 60960, Note_on_c, 0, 69, 88
2, 61020, Note_on_c, 0, 69, 0
2, 61020, Note_on_c, 0, 73, 88
2, 61080, Note_on_c, 0, 73, 0
2, 61080, Note_on_c, 0, 76, 88
2, 61140, Note_on_c, 0, 76, 0
2, 61140, Note_on_c, 0, 81, 88
2, 61200, Note_on_c, 0, 81, 0
2, 61200, Note_on_c, 0, 85, 88
2, 61440, Control_c, 0, 64, 0
2, 61500, Note_on_c, 0, 85, 0
2, 61500, Control_c, 0, 64, 127
2, 61500, Note_on_c, 0, 83, 88
2, 61560, Note_on_c, 0, 83, 0
2, 61560, Note_on_c, 0, 76, 88
2, 61620, Note_on_c, 0, 76, 0
2, 61620, Note_on_c, 0, 78, 88
2, 61680, Note_on_c, 0, 78, 0
2, 61680, Note_on_c, 0, 81, 88
2, 61740, Note_on_c, 0, 81, 0
2, 61740, Note_on_c, 0, 79, 88
2, 61800, Note_on_c, 0, 79, 0
2, 61800, Note_on_c, 0, 73, 88
2, 61860, Note_on_c, 0, 73, 0
2, 61860, Note_on_c, 0, 74, 88
2, 61920, Note_on_c, 0, 74, 0
2, 61920, Note_on_c, 0, 78, 88
2, 61980, Note_on_c, 0, 78, 0
2, 61980, Note_on_c, 0, 76, 88
2, 62040, Note_on_c, 0, 76, 0
2, 62040, Note_on_c, 0, 68, 88
2, 62100, Note_on_c, 0, 68, 0
2, 62100, Note_on_c, 0, 69, 88
2, 62160, Note_on_c, 0, 69, 0
2, 62160, Note_on_c, 0, 73, 88
2, 62220, Note_on_c, 0, 73, 0
2, 62220, Note_on_c, 0, 71, 88
2, 62280, Note_on_c, 0, 71, 0
2, 62280, Note_on_c, 0, 64, 88
2, 62340, Note_on_c, 0, 64, 0
2, 62340, Note_on_c, 0, 66, 88
2, 62400, Note_on_c, 0, 66, 0
2, 62400, Note_on_c, 0, 69, 88
2, 62460, Note_on_c, 0, 69, 0
2, 62460, Note_on_c, 0, 67, 88
2, 62520, Note_on_c, 0, 67, 0
2, 62520, Note_on_c, 0, 61, 88
2, 62580, Note_on_c, 0, 61, 0
2, 62580, Note_on_c, 0, 62, 88
2, 62640, Note_on_c, 0, 62, 0
2, 62640, Note_on_c, 0, 66, 88
2, 62700, Note_on_c, 0, 66, 0
2, 62700, Note_on_c, 0, 64, 88
2, 62760, Note_on_c, 0, 64, 0
2, 62760, Note_on_c, 0, 61, 88
2, 62820, Note_on_c, 0, 61, 0
2, 62820, Note_on_c, 0, 57, 88
2, 62880, Note_on_c, 0, 57, 0
2, 62880, Note_on_c, 0, 71, 88
2, 62940, Note_on_c, 0, 71, 0
2, 62940, Note_on_c, 0, 67, 88
2, 63000, Note_on_c, 0, 67, 0
2, 63000, Note_on_c, 0, 64, 88
2, 63060, Note_on_c, 0, 64, 0
2, 63060, Note_on_c, 0, 62, 88
2, 63120, Note_on_c, 0, 62, 0
2, 63120, Control_c, 0, 64, 0
2, 63120, Note_on_c, 0, 61, 88
2, 63480, Note_on_c, 0, 61, 0
2, 63480, Note_on_c, 0, 64, 88
2, 63600, Note_on_c, 0, 64, 0
2, 63600, Note_on_c, 0, 57, 88
2, 63720, Note_on_c, 0, 57, 0
2, 63720, Note_on_c, 0, 61, 88
2, 63840, Note_on_c, 0, 61, 0
2, 63840, Note_on_c, 0, 64, 88
2, 64080, Note_on_c, 0, 64, 0
2, 64080, Note_on_c, 0, 66, 88
2, 64320, Note_on_c, 0, 66, 0
2, 64320, Note_on_c, 0, 67, 88
2, 64560, Note_on_c, 0, 67, 0
2, 64560, Note_on_c, 0, 69, 88
2, 64800, Note_on_c, 0, 69, 0
2, 64800, Note_on_c, 0, 71, 88
2, 65040, Note_on_c, 0, 71, 0
2, 65040, Note_on_c, 0, 73, 88
2, 65760, Note_on_c, 0, 73, 0
2, 65760, Control_c, 0, 64, 127
2, 65760, Note_on_c, 0, 66, 88
2, 65760, Note_on_c, 0, 69, 88
2, 65760, Note_on_c, 0, 74, 88
2, 66480, Note_on_c, 0, 74, 0
2, 66480, Note_on_c, 0, 69, 0
2, 66480, Note_on_c, 0, 66, 0
2, 66480, Note_on_c, 0, 64, 88
2, 66480, Note_on_c, 0, 67, 88
2, 66480, Note_on_c, 0, 69, 88
2, 66480, Note_on_c, 0, 73, 88
2, 66480, Note_on_c, 0, 76, 88
2, 66720, Note_on_c, 0, 76, 0
2, 66720, Note_on_c, 0, 69, 0
2, 66720, Note_on_c, 0, 64, 0
2, 66720, Note_on_c, 0, 67, 0
2, 66720, Note_on_c, 0, 73, 0
2, 66720, Note_on_c, 0, 62, 88
2, 66720, Note_on_c, 0, 66, 88
2, 66720, Note_on_c, 0, 69, 88
2, 66720, Note_on_c, 0, 74, 88
2, 66960, Note_on_c, 0, 74, 0
2, 66960, Note_on_c, 0, 62, 0
2, 66960, Note_on_c, 0, 66, 0
2, 66960, Note_on_c, 0, 69, 0
2, 66960, Control_c, 0, 64, 0
2, 66960, Note_on_c, 0, 64, 88
2, 66960, Note_on_c, 0, 67, 88
2, 66960, Note_on_c, 0, 69, 88
2, 66960, Note_on_c, 0, 73, 88
2, 66960, Note_on_c, 0, 76, 88
2, 67200, Note_on_c, 0, 76, 0
2, 67200, Note_on_c, 0, 69, 0
2, 67200, Note_on_c, 0, 64, 0
2, 67200, Note_on_c, 0, 67, 0
2, 67200, Note_on_c, 0, 73, 0
2, 67200, Control_c, 0, 64, 127
2, 67200, Note_on_c, 0, 66, 88
2, 67200, Note_on_c, 0, 69, 88
2, 67200, Note_on_c, 0, 74, 88
2, 67200, Note_on_c, 0, 78, 88
2, 67920, Note_on_c, 0, 78, 0
2, 67920, Note_on_c, 0, 66, 0
2, 67920, Note_on_c, 0, 69, 0
2, 67920, Note_on_c, 0, 74, 0
2, 67920, Note_on_c, 0, 67, 88
2, 67920, Note_on_c, 0, 69, 88
2, 67920, Note_on_c, 0, 74, 88
2, 67920, Note_on_c, 0, 79, 88
2, 68160, Note_on_c, 0, 79, 0
2, 68160, Note_on_c, 0, 67, 0
2, 68160, Note_on_c, 0, 69, 0
2, 68160, Note_on_c, 0, 74, 0
2, 68160, Note_on_c, 0, 66, 88
2, 68160, Note_on_c, 0, 69, 88
2, 68160, Note_on_c, 0, 74, 88
2, 68160, Note_on_c, 0, 78, 88
2, 68400, Note_on_c, 0, 78, 0
2, 68400, Note_on_c, 0, 66, 0
2, 68400, Note_on_c, 0, 69, 0
2, 68400, Note_on_c, 0, 74, 0
2, 68400, Control_c, 0, 64, 0
2, 68400, Note_on_c, 0, 67, 88
2, 68400, Note_on_c, 0, 69, 88
2, 68400, Note_on_c, 0, 74, 88
2, 68400, Note_on_c, 0, 79, 88
2, 68640, Note_on_c, 0, 79, 0
2, 68640, Note_on_c, 0, 67, 0
2, 68640, Note_on_c, 0, 69, 0
2, 68640, Note_on_c, 0, 74, 0
2, 68640, Control_c, 0, 64, 127
2, 68640, Note_on_c, 0, 69, 88
2, 68640, Note_on_c, 0, 74, 88
2, 68640, Note_on_c, 0, 81, 88
2, 69360, Note_on_c, 0, 81, 0
2, 69360, Note_on_c, 0, 74, 0
2, 69360, Note_on_c, 0, 69, 0
2, 69360, Note_on_c, 0, 71, 88
2, 69360, Note_on_c, 0, 83, 88
2, 69600, Note_on_c, 0, 83, 0
2, 69600, Note_on_c, 0, 71, 0
2, 69600, Note_on_c, 0, 70, 88
2, 69600, Note_on_c, 0, 82, 88
2, 69840, Note_on_c, 0, 82, 0
2, 69840, Note_on_c, 0, 70, 0
2, 69840, Control_c, 0, 64, 0
2, 69840, Note_on_c, 0, 71, 88
2, 69840, Note_on_c, 0, 83, 88
2, 70080, Note_on_c, 0, 83, 0
2, 70080, Note_on_c, 0, 71, 0
2, 70080, Note_on_c, 0, 73, 101
2, 70080, Note_on_c, 0, 76, 101
2, 70080, Note_on_c, 0, 81, 101
2, 70080, Note_on_c, 0, 85, 101
2, 70800, Note_on_c, 0, 85, 0
2, 70800, Note_on_c, 0, 73, 0
2, 70800, Note_on_c, 0, 76, 0
2, 70800, Note_on_c, 0, 81, 0
2, 70800, Note_on_c, 0, 74, 101
2, 70800, Note_on_c, 0, 81, 101
2, 70800, Note_on_c, 0, 86, 101
2, 71520, Note_on_c, 0, 86, 0
2, 71520, Note_on_c, 0, 81, 0
2, 71520, Note_on_c, 0, 74, 0
2, 71520, Control_c, 0, 64, 127
2, 71520, Note_on_c, 0, 76, 101
2, 71520, Note_on_c, 0, 81, 101
2, 71520, Note_on_c, 0, 85, 101
2, 71520, Note_on_c, 0, 88, 101
2, 72240, Note_on_c, 0, 88, 0
2, 72240, Note_on_c, 0, 76, 0
2, 72240, Note_on_c, 0, 81, 0
2, 72240, Note_on_c, 0, 85, 0
2, 72240, Note_on_c, 0, 74, 101
2, 72240, Note_on_c, 0, 78, 101
2, 72240, Note_on_c, 0, 81, 101
2, 72240, Note_on_c, 0, 86, 101
2, 72480, Note_on_c, 0, 86, 0
2, 72480, Note_on_c, 0, 74, 0
2, 72480, Note_on_c, 0, 78, 0
2, 72480, Note_on_c, 0, 81, 0
2, 72480, Note_on_c, 0, 76, 101
2, 72480, Note_on_c, 0, 88, 101
2, 72720, Note_on_c, 0, 88, 0
2, 72720, Note_on_c, 0, 76, 0
2, 72720, Control_c, 0, 64, 0
2, 72720, Note_on_c, 0, 78, 101
2, 72720, Note_on_c, 0, 90, 101
2, 72960, Note_on_c, 0, 90, 0
2, 72960, Note_on_c, 0, 78, 0
2, 72960, Control_c, 0, 64, 127
2, 72960, Note_on_c, 0, 79, 101
2, 72960, Note_on_c, 0, 86, 101
2, 72960, Note_on_c, 0, 91, 101
2, 73680, Note_on_c, 0, 91, 0
2, 73680, Note_on_c, 0, 86, 0
2, 73680, Note_on_c, 0, 79, 0
2, 73680, Note_on_c, 0, 78, 101
2, 73680, Note_on_c, 0, 86, 101
2, 73680, Note_on_c, 0, 90, 101
2, 73920, Note_on_c, 0, 90, 0
2, 73920, Note_on_c, 0, 86, 0
2, 73920, Note_on_c, 0, 78, 0
2, 73920, Note_on_c, 0, 79, 101
2, 73920, Note_on_c, 0, 91, 101
2, 74160, Note_on_c, 0, 91, 0
2, 74160, Note_on_c, 0, 79, 0
2, 74160, Control_c, 0, 64, 0
2, 74160, Note_on_c, 0, 81, 101
2, 74160, Note_on_c, 0, 93, 101
2, 74400, Note_on_c, 0, 93, 0
2, 74400, Note_on_c, 0, 81, 0
2, 74400, Control_c, 0, 64, 127
2, 74400, Note_on_c, 0, 87, 101
2, 74400, Note_on_c, 0, 94, 101
2, 74460, Note_on_c, 0, 94, 0
2, 74460, Note_on_c, 0, 87, 0
2, 74460, Note_on_c, 0, 82, 101
2, 74520, Note_on_c, 0, 82, 0
2, 74520, Note_on_c, 0, 87, 101
2, 74520, Note_on_c, 0, 94, 101
2, 74580, Note_on_c, 0, 94, 0
2, 74580, Note_on_c, 0, 87, 0
2, 74580, Note_on_c, 0, 82, 101
2, 74640, Note_on_c, 0, 82, 0
2, 74640, Note_on_c, 0, 87, 101
2, 74640, Note_on_c, 0, 94, 101
2, 74700, Note_on_c, 0, 94, 0
2, 74700, Note_on_c, 0, 87, 0
2, 74700, Note_on_c, 0, 82, 101
2, 74760, Note_on_c, 0, 82, 0
2, 74760, Note_on_c, 0, 87, 101
2, 74760, Note_on_c, 0, 94, 101
2, 74820, Note_on_c, 0, 94, 0
2, 74820, Note_on_c, 0, 87, 0
2, 74820, Note_on_c, 0, 82, 101
2, 74880, Note_on_c, 0, 82, 0
2, 74880, Note_on_c, 0, 87, 101
2, 74880, Note_on_c, 0, 94, 101
2, 74940, Note_on_c, 0, 94, 0
2, 74940, Note_on_c, 0, 87, 0
2, 74940, Note_on_c, 0, 82, 101
2, 75000, Note_on_c, 0, 82, 0
2, 75000, Note_on_c, 0, 87, 101
2, 75000, Note_on_c, 0, 94, 101
2, 75060, Note_on_c, 0, 94, 0
2, 75060, Note_on_c, 0, 87, 0
2, 75060, Note_on_c, 0, 82, 101
2, 75120, Note_on_c, 0, 82, 0
2, 75120, Note_on_c, 0, 87, 101
2, 75120, Note_on_c, 0, 94, 101
2, 75180, Note_on_c, 0, 94, 0
2, 75180, Note_on_c, 0, 87, 0
2, 75180, Note_on_c, 0, 82, 101
2, 75240, Note_on_c, 0, 82, 0
2, 75240, Note_on_c, 0, 87, 101
2, 75240, Note_on_c, 0, 94, 101
2, 75300, Note_on_c, 0, 94, 0
2, 75300, Note_on_c, 0, 87, 0
2, 75300, Note_on_c, 0, 82, 101
2, 75360, Note_on_c, 0, 82, 0
2, 75360, Note_on_c, 0, 87, 101
2, 75360, Note_on_c, 0, 94, 101
2, 75420, Note_on_c, 0, 94, 0
2, 75420, Note_on_c, 0, 87, 0
2, 75420, Note_on_c, 0, 82, 101
2, 75480, Note_on_c, 0, 82, 0
2, 75480, Note_on_c, 0, 87, 101
2, 75480, Note_on_c, 0, 94, 101
2, 75540, Note_on_c, 0, 94, 0
2, 75540, Note_on_c, 0, 87, 0
2, 75540, Note_on_c, 0, 82, 101
2, 75600, Note_on_c, 0, 82, 0
2, 75600, Note_on_c, 0, 87, 101
2, 75600, Note_on_c, 0, 94, 101
2, 75660, Note_on_c, 0, 94, 0
2, 75660, Note_on_c, 0, 87, 0
2, 75660, Note_on_c, 0, 82, 101
2, 75720, Note_on_c, 0, 82, 0
2, 75720, Note_on_c, 0, 87, 101
2, 75720, Note_on_c, 0, 94, 101
2, 75780, Note_on_c, 0, 94, 0
2, 75780, Note_on_c, 0, 87, 0
2, 75780, Control_c, 0, 64, 0
2, 75780, Note_on_c, 0, 82, 101
2, 75840, Note_on_c, 0, 82, 0
2, 75840, Note_on_c, 0, 82, 127
2, 75840, Note_on_c, 0, 94, 127
2, 76080, Note_on_c, 0, 94, 0
2, 76080, Note_on_c, 0, 82, 0
2, 76080, Note_on_c, 0, 79, 127
2, 76080, Note_on_c, 0, 91, 127
2, 76320, Note_on_c, 0, 91, 0
2, 76320, Note_on_c, 0, 79, 0
2, 76320, Note_on_c, 0, 75, 127
2, 76320, Note_on_c, 0, 87, 127
2, 76560, Note_on_c, 0, 87, 0
2, 76560, Note_on_c, 0, 75, 0
2, 76560, Note_on_c, 0, 74, 127
2, 76560, Note_on_c, 0, 76, 127
2, 76560, Note_on_c, 0, 79, 127
2, 76560, Note_on_c, 0, 86, 127
2, 77040, Note_on_c, 0, 86, 0
2, 77040, Note_on_c, 0, 74, 0
2, 77040, Note_on_c, 0, 73, 88
2, 77040, Note_on_c, 0, 85, 88
2, 77280, Note_on_c, 0, 85, 0
2, 77280, Note_on_c, 0, 76, 0
2, 77280, Note_on_c, 0, 79, 0
2, 77280, Note_on_c, 0, 73, 0
2, 77280, Note_on_c, 0, 86, 88
2, 80160, Note_on_c, 0, 86, 0
2, 80160, Note_on_c, 0, 86, 75
2, 83040, Note_on_c, 0, 86, 0
2, 83040, Control_c, 0, 64, 127
2, 83040, Note_on_c, 0, 86, 62
2, 83160, Note_on_c, 0, 86, 0
2, 83160, Note_on_c, 0, 88, 62
2, 83280, Note_on_c, 0, 88, 0
2, 83280, Note_on_c, 0, 90, 62
2, 83400, Note_on_c, 0, 90, 0
2, 83400, Note_on_c, 0, 85, 62
2, 83520, Note_on_c, 0, 85, 0
2, 83520, Note_on_c, 0, 88, 62
2, 83640, Note_on_c, 0, 88, 0
2, 83640, Control_c, 0, 64, 0
2, 83640, Note_on_c, 0, 86, 62
2, 83760, Note_on_c, 0, 86, 0
2, 83760, Note_on_c, 0, 83, 62
2, 83880, Note_on_c, 0, 83, 0
2, 83880, Note_on_c, 0, 81, 62
2, 84000, Note_on_c, 0, 81, 0
2, 84000, Note_on_c, 0, 78, 62
2, 84120, Note_on_c, 0, 78, 0
2, 84120, Note_on_c, 0, 74, 62
2, 84143, Note_on_c, 0, 74, 0
2, 84240, Note_on_c, 0, 69, 62
2, 84263, Note_on_c, 0, 69, 0
2, 84360, Note_on_c, 0, 66, 62
2, 84383, Note_on_c, 0, 66, 0
2, 84480, Note_on_c, 0, 54, 62
2, 84480, Note_on_c, 0, 57, 62
2, 84480, Note_on_c, 0, 62, 62
2, 85200, Note_on_c, 0, 62, 0
2, 85200, Note_on_c, 0, 57, 0
2, 85200, Note_on_c, 0, 54, 0
2, 85200, Note_on_c, 0, 54, 62
2, 85200, Note_on_c, 0, 57, 62
2, 85200, Note_on_c, 0, 62, 62
2, 85680, Note_on_c, 0, 62, 0
2, 85680, Note_on_c, 0, 57, 0
2, 85680, Note_on_c, 0, 54, 0
2, 85680, Note_on_c, 0, 54, 62
2, 85680, Note_on_c, 0, 57, 62
2, 85680, Note_on_c, 0, 62, 62
2, 85920, Note_on_c, 0, 62, 0
2, 85920, Note_on_c, 0, 57, 0
2, 85920, Note_on_c, 0, 54, 0
2, 85920, Note_on_c, 0, 54, 62
2, 85920, Note_on_c, 0, 57, 62
2, 85920, Note_on_c, 0, 62, 62
2, 89760, Note_on_c, 0, 62, 0
2, 89760, Note_on_c, 0, 57, 0
2, 89760, Note_on_c, 0, 54, 0
2, 89760, End_track
3, 0, Start_track
3, 0, Title_t, "Grand Piano"
3, 0, Program_c, 0, 0
3, 0, Control_c, 0, 7, 115
3, 0, Control_c, 0, 10, 80
3, 2880, Note_on_c, 0, 67, 64
3, 2880, Note_on_c, 0, 71, 64
3, 3840, Note_on_c, 0, 71, 0
3, 3840, Note_on_c, 0, 67, 0
3, 6720, Note_on_c, 0, 76, 64
3, 6720, Note_on_c, 0, 79, 64
3, 7680, Note_on_c, 0, 79, 0
3, 7680, Note_on_c, 0, 76, 0
3, 12480, Note_on_c, 0, 64, 62
3, 12480, Note_on_c, 0, 67, 62
3, 13440, Note_on_c, 0, 67, 0
3, 13440, Note_on_c, 0, 64, 0
3, 14400, Note_on_c, 0, 79, 62
3, 15360, Note_on_c, 0, 79, 0
3, 17280, Control_c, 0, 64, 127
3, 17280, Note_on_c, 0, 62, 49
3, 17280, Note_on_c, 0, 66, 49
3, 17400, Note_on_c, 0, 66, 0
3, 17400, Note_on_c, 0, 62, 0
3, 17400, Note_on_c, 0, 66, 49
3, 17520, Note_on_c, 0, 66, 0
3, 17520, Note_on_c, 0, 62, 49
3, 17640, Note_on_c, 0, 62, 0
3, 17640, Note_on_c, 0, 66, 49
3, 17760, Note_on_c, 0, 66, 0
3, 17760, Note_on_c, 0, 62, 49
3, 17880, Note_on_c, 0, 62, 0
3, 17880, Control_c, 0, 64, 0
3, 17880, Note_on_c, 0, 66, 49
3, 18000, Note_on_c, 0, 66, 0
3, 20160, Note_on_c, 0, 62, 49
3, 20160, Note_on_c, 0, 66, 49
3, 20160, Note_on_c, 0, 69, 49
3, 21600, Note_on_c, 0, 69, 0
3, 21600, Note_on_c, 0, 66, 0
3, 21600, Note_on_c, 0, 62, 0
3, 21600, Note_on_c, 0, 67, 49
3, 21600, Note_on_c, 0, 69, 49
3, 23040, Note_on_c, 0, 69, 0
3, 23040, Note_on_c, 0, 67, 0
3, 23040, Note_on_c, 0, 69, 49
3, 23040, Note_on_c, 0, 74, 49
3, 24480, Note_on_c, 0, 74, 0
3, 24480, Note_on_c, 0, 69, 0
3, 24480, Note_on_c, 0, 64, 49
3, 24480, Note_on_c, 0, 67, 49
3, 25920, Note_on_c, 0, 67, 0
3, 25920, Note_on_c, 0, 64, 0
3, 25920, Note_on_c, 0, 62, 62
3, 25920, Note_on_c, 0, 66, 62
3, 25920, Note_on_c, 0, 69, 62
3, 27360, Note_on_c, 0, 69, 0
3, 27360, Note_on_c, 0, 66, 0
3, 27360, Note_on_c, 0, 62, 0
3, 27360, Note_on_c, 0, 69, 62
3, 28080, Note_on_c, 0, 69, 0
3, 28080, Note_on_c, 0, 73, 62
3, 28080, Note_on_c, 0, 77, 62
3, 28080, Note_on_c, 0, 80, 62
3, 28800, Note_on_c, 0, 80, 0
3, 28800, Note_on_c, 0, 77, 0
3, 28800, Note_on_c, 0, 73, 0
3, 28800, Note_on_c, 0, 69, 62
3, 28800, Note_on_c, 0, 73, 62
3, 29760, Note_on_c, 0, 73, 0
3, 29760, Note_on_c, 0, 69, 0
3, 69360, Note_on_c, 0, 74, 75
3, 70080, Note_on_c, 0, 74, 0
3, 70800, Note_on_c, 0, 78, 114
3, 71040, Note_on_c, 0, 78, 0
3, 71040, Note_on_c, 0, 77, 114
3, 71280, Note_on_c, 0, 77, 0
3, 71280, Note_on_c, 0, 78, 114
3, 71520, Note_on_c, 0, 78, 0
3, 75840, Note_on_c, 0, 75, 127
3, 76560, Note_on_c, 0, 75, 0
3, 77280, Note_on_c, 0, 74, 88
3, 77280, Note_on_c, 0, 78, 88
3, 77280, Note_on_c, 0, 81, 88
3, 77520, Note_on_c, 0, 81, 0
3, 77520, Note_on_c, 0, 78, 0
3, 77520, Note_on_c, 0, 74, 0
3, 77520, Note_on_c, 0, 74, 88
3, 77520, Note_on_c, 0, 78, 88
3, 77520, Note_on_c, 0, 81, 88
3, 77640, Note_on_c, 0, 81, 0
3, 77640, Note_on_c, 0, 78, 0
3, 77640, Note_on_c, 0, 74, 0
3, 77640, Note_on_c, 0, 74, 88
3, 77700, Note_on_c, 0, 74, 0
3, 77700, Note_on_c, 0, 74, 88
3, 77760, Note_on_c, 0, 74, 0
3, 77760, Note_on_c, 0, 74, 88
3, 77880, Note_on_c, 0, 74, 0
3, 77880, Note_on_c, 0, 74, 88
3, 78000, Note_on_c, 0, 74, 0
3, 78000, Note_on_c, 0, 74, 88
3, 78000, Note_on_c, 0, 79, 88
3, 78000, Note_on_c, 0, 82, 88
3, 78240, Note_on_c, 0, 82, 0
3, 78240, Note_on_c, 0, 79, 0
3, 78240, Note_on_c, 0, 74, 0
3, 78240, Note_on_c, 0, 74, 88
3, 78240, Note_on_c, 0, 79, 88
3, 78240, Note_on_c, 0, 82, 88
3, 78360, Note_on_c, 0, 82, 0
3, 78360, Note_on_c, 0, 79, 0
3, 78360, Note_on_c, 0, 74, 0
3, 78360, Note_on_c, 0, 74, 88
3, 78420, Note_on_c, 0, 74, 0
3, 78420, Note_on_c, 0, 74, 88
3, 78480, Note_on_c, 0, 74, 0
3, 78480, Note_on_c, 0, 74, 88
3, 78600, Note_on_c, 0, 74, 0
3, 78600, Note_on_c, 0, 74, 88
3, 78720, Note_on_c, 0, 74, 0
3, 78720, Note_on_c, 0, 74, 88
3, 78720, Note_on_c, 0, 78, 88
3, 78720, Note_on_c, 0, 81, 88
3, 78960, Note_on_c, 0, 81, 0
3, 78960, Note_on_c, 0, 78, 0
3, 78960, Note_on_c, 0, 74, 0
3, 78960, Note_on_c, 0, 74, 88
3, 78960, Note_on_c, 0, 78, 88
3, 78960, Note_on_c, 0, 81, 88
3, 79080, Note_on_c, 0, 81, 0
3, 79080, Note_on_c, 0, 78, 0
3, 79080, Note_on_c, 0, 74, 0
3, 79080, Note_on_c, 0, 74, 88
3, 79140, Note_on_c, 0, 74, 0
3, 79140, Note_on_c, 0, 74, 88
3, 79200, Note_on_c, 0, 74, 0
3, 79200, Note_on_c, 0, 74, 88
3, 79320, Note_on_c, 0, 74, 0
3, 79320, Note_on_c, 0, 74, 88
3, 79440, Note_on_c, 0, 74, 0
3, 79440, Note_on_c, 0, 74, 75
3, 79440, Note_on_c, 0, 76, 75
3, 79440, Note_on_c, 0, 79, 75
3, 79680, Note_on_c, 0, 79, 0
3, 79680, Note_on_c, 0, 76, 0
3, 79680, Note_on_c, 0, 74, 0
3, 79680, Note_on_c, 0, 74, 75
3, 79680, Note_on_c, 0, 76, 75
3, 79680, Note_on_c, 0, 79, 75
3, 79800, Note_on_c, 0, 79, 0
3, 79800, Note_on_c, 0, 76, 0
3, 79800, Note_on_c, 0, 74, 0
3, 79800, Note_on_c, 0, 74, 75
3, 79860, Note_on_c, 0, 74, 0
3, 79860, Note_on_c, 0, 74, 75
3, 79920, Note_on_c, 0, 74, 0
3, 79920, Note_on_c, 0, 74, 75
3, 80040, Note_on_c, 0, 74, 0
3, 80040, Note_on_c, 0, 74, 75
3, 80160, Note_on_c, 0, 74, 0
3, 80160, Note_on_c, 0, 74, 75
3, 80160, Note_on_c, 0, 78, 75
3, 80160, Note_on_c, 0, 81, 75
3, 80400, Note_on_c, 0, 81, 0
3, 80400, Note_on_c, 0, 78, 0
3, 80400, Note_on_c, 0, 74, 0
3, 80400, Note_on_c, 0, 74, 75
3, 80400, Note_on_c, 0, 78, 75
3, 80400, Note_on_c, 0, 81, 75
3, 80640, Note_on_c, 0, 81, 0
3, 80640, Note_on_c, 0, 78, 0
3, 80640, Note_on_c, 0, 74, 0
3, 80880, Note_on_c, 0, 74, 75
3, 80880, Note_on_c, 0, 79, 75
3, 80880, Note_on_c, 0, 82, 75
3, 81120, Note_on_c, 0, 82, 0
3, 81120, Note_on_c, 0, 79, 0
3, 81120, Note_on_c, 0, 74, 0
3, 81120, Note_on_c, 0, 74, 75
3, 81120, Note_on_c, 0, 79, 75
3, 81120, Note_on_c, 0, 82, 75
3, 81360, Note_on_c, 0, 82, 0
3, 81360, Note_on_c, 0, 79, 0
3, 81360, Note_on_c, 0, 74, 0
3, 81600, Note_on_c, 0, 74, 62
3, 81600, Note_on_c, 0, 78, 62
3, 81600, Note_on_c, 0, 81, 62
3, 81840, Note_on_c, 0, 81, 0
3, 81840, Note_on_c, 0, 78, 0
3, 81840, Note_on_c, 0, 74, 0
3, 81840, Note_on_c, 0, 74, 62
3, 81840, Note_on_c, 0, 78, 62
3, 81840, Note_on_c, 0, 81, 62
3, 82080, Note_on_c, 0, 81, 0
3, 82080, Note_on_c, 0, 78, 0
3, 82080, Note_on_c, 0, 74, 0
3, 82320, Note_on_c, 0, 74, 62
3, 82320, Note_on_c, 0, 76, 62
3, 82320, Note_on_c, 0, 79, 62
3, 82560, Note_on_c, 0, 79, 0
3, 82560, Note_on_c, 0, 76, 0
3, 82560, Note_on_c, 0, 74, 0
3, 82560, Note_on_c, 0, 74, 62
3, 82560, Note_on_c, 0, 76, 62
3, 82560, Note_on_c, 0, 79, 62
3, 82800, Note_on_c, 0, 79, 0
3, 82800, Note_on_c, 0, 76, 0
3, 82800, Note_on_c, 0, 74, 0
3, 83040, Note_on_c, 0, 74, 49
3, 83040, Note_on_c, 0, 78, 49
3, 83040, Note_on_c, 0, 81, 49
3, 83040, Note_on_c, 0, 86, 49
3, 83280, Note_on_c, 0, 86, 0
3, 83280, Note_on_c, 0, 74, 0
3, 83280, Note_on_c, 0, 78, 0
3, 83280, Note_on_c, 0, 81, 0
3, 83280, End_track
4, 0, Start_track
4, 0, Title_t, "Grand Piano"
4, 0, Program_c, 0, 0
4, 0, Control_c, 0, 7, 115
4, 0, Control_c, 0, 10, 41
4, 0, Note_on_c, 0, 54, 75
4, 360, Note_on_c, 0, 54, 0
4, 360, Note_on_c, 0, 55, 75
4, 480, Note_on_c, 0, 55, 0
4, 480, Note_on_c, 0, 59, 75
4, 840, Note_on_c, 0, 59, 0
4, 840, Note_on_c, 0, 57, 75
4, 960, Note_on_c, 0, 57, 0
4, 960, Note_on_c, 0, 59, 75
4, 1320, Note_on_c, 0, 59, 0
4, 1320, Note_on_c, 0, 61, 75
4, 1440, Note_on_c, 0, 61, 0
4, 1440, Note_on_c, 0, 64, 75
4, 1800, Note_on_c, 0, 64, 0
4, 1800, Note_on_c, 0, 62, 75
4, 1920, Note_on_c, 0, 62, 0
4, 1920, Note_on_c, 0, 61, 75
4, 2079, Note_on_c, 0, 61, 0
4, 2079, Note_on_c, 0, 62, 75
4, 2240, Note_on_c, 0, 62, 0
4, 2240, Note_on_c, 0, 64, 75
4, 2400, Note_on_c, 0, 64, 0
4, 2400, Note_on_c, 0, 66, 88
4, 2559, Note_on_c, 0, 66, 0
4, 2559, Note_on_c, 0, 69, 88
4, 2720, Note_on_c, 0, 69, 0
4, 2720, Note_on_c, 0, 67, 88
4, 2880, Note_on_c, 0, 67, 0
4, 2880, Note_on_c, 0, 66, 114
4, 3360, Note_on_c, 0, 66, 0
4, 3360, Note_on_c, 0, 64, 88
4, 3840, Note_on_c, 0, 64, 0
4, 3840, Note_on_c, 0, 52, 75
4, 4200, Note_on_c, 0, 52, 0
4, 4200, Note_on_c, 0, 54, 75
4, 4320, Note_on_c, 0, 54, 0
4, 4320, Note_on_c, 0, 57, 75
4, 4680, Note_on_c, 0, 57, 0
4, 4680, Note_on_c, 0, 55, 75
4, 4800, Note_on_c, 0, 55, 0
4, 4800, Note_on_c, 0, 57, 75
4, 5160, Note_on_c, 0, 57, 0
4, 5160, Note_on_c, 0, 58, 75
4, 5280, Note_on_c, 0, 58, 0
4, 5280, Note_on_c, 0, 60, 75
4, 5640, Note_on_c, 0, 60, 0
4, 5640, Note_on_c, 0, 59, 75
4, 5760, Note_on_c, 0, 59, 0
4, 5760, Note_on_c, 0, 58, 75
4, 5919, Note_on_c, 0, 58, 0
4, 5919, Note_on_c, 0, 59, 75
4, 6080, Note_on_c, 0, 59, 0
4, 6080, Note_on_c, 0, 61, 75
4, 6240, Note_on_c, 0, 61, 0
4, 6240, Note_on_c, 0, 62, 88
4, 6399, Note_on_c, 0, 62, 0
4, 6399, Note_on_c, 0, 66, 88
4, 6560, Note_on_c, 0, 66, 0
4, 6560, Note_on_c, 0, 64, 88
4, 6720, Note_on_c, 0, 64, 0
4, 6720, Note_on_c, 0, 70, 114
4, 7200, Note_on_c, 0, 70, 0
4, 7200, Note_on_c, 0, 69, 88
4, 7680, Note_on_c, 0, 69, 0
4, 7920, Note_on_c, 0, 67, 62
4, 7920, Note_on_c, 0, 73, 62
4, 8160, Note_on_c, 0, 73, 0
4, 8160, Note_on_c, 0, 67, 0
4, 8160, Note_on_c, 0, 67, 62
4, 8160, Note_on_c, 0, 73, 62
4, 8400, Note_on_c, 0, 73, 0
4, 8400, Note_on_c, 0, 67, 0
4, 8400, Note_on_c, 0, 67, 62
4, 8400, Note_on_c, 0, 73, 62
4, 8640, Note_on_c, 0, 73, 0
4, 8640, Note_on_c, 0, 67, 0
4, 8640, Note_on_c, 0, 67, 62
4, 8640, Note_on_c, 0, 73, 62
4, 8880, Note_on_c, 0, 73, 0
4, 8880, Note_on_c, 0, 67, 0
4, 8880, Note_on_c, 0, 66, 62
4, 8880, Note_on_c, 0, 74, 62
4, 9120, Note_on_c, 0, 74, 0
4, 9120, Note_on_c, 0, 66, 0
4, 9120, Note_on_c, 0, 66, 62
4, 9120, Note_on_c, 0, 74, 62
4, 9600, Note_on_c, 0, 74, 0
4, 9600, Note_on_c, 0, 66, 0
4, 9840, Note_on_c, 0, 64, 62
4, 9840, Note_on_c, 0, 70, 62
4, 10080, Note_on_c, 0, 70, 0
4, 10080, Note_on_c, 0, 64, 0
4, 10080, Note_on_c, 0, 64, 62
4, 10080, Note_on_c, 0, 70, 62
4, 10320, Note_on_c, 0, 70, 0
4, 10320, Note_on_c, 0, 64, 0
4, 10320, Note_on_c, 0, 62, 62
4, 10320, Note_on_c, 0, 71, 62
4, 10560, Note_on_c, 0, 71, 0
4, 10560, Note_on_c, 0, 62, 0
4, 10560, Note_on_c, 0, 62, 62
4, 10560, Note_on_c, 0, 71, 62
4, 10800, Note_on_c, 0, 71, 0
4, 10800, Note_on_c, 0, 62, 0
4, 10800, Note_on_c, 0, 55, 62
4, 10800, Note_on_c, 0, 67, 62
4, 11040, Note_on_c, 0, 67, 0
4, 11040, Note_on_c, 0, 55, 0
4, 11040, Note_on_c, 0, 55, 88
4, 11040, Note_on_c, 0, 67, 88
4, 11760, Note_on_c, 0, 67, 0
4, 11760, Note_on_c, 0, 55, 0
4, 11760, Note_on_c, 0, 60, 49
4, 11760, Note_on_c, 0, 64, 49
4, 11807, Note_on_c, 0, 64, 0
4, 11807, Note_on_c, 0, 60, 0
4, 12000, Note_on_c, 0, 60, 49
4, 12000, Note_on_c, 0, 64, 49
4, 12047, Note_on_c, 0, 64, 0
4, 12047, Note_on_c, 0, 60, 0
4, 12240, Note_on_c, 0, 58, 62
4, 12240, Note_on_c, 0, 64, 62
4, 12287, Note_on_c, 0, 64, 0
4, 12287, Note_on_c, 0, 58, 0
4, 12480, Note_on_c, 0, 58, 62
4, 12960, Note_on_c, 0, 58, 0
4, 12960, Note_on_c, 0, 57, 49
4, 13440, Note_on_c, 0, 57, 0
4, 13680, Note_on_c, 0, 57, 49
4, 13680, Note_on_c, 0, 64, 49
4, 13680, Note_on_c, 0, 67, 49
4, 13727, Note_on_c, 0, 67, 0
4, 13727, Note_on_c, 0, 64, 0
4, 13727, Note_on_c, 0, 57, 0
4, 13920, Note_on_c, 0, 57, 49
4, 13920, Note_on_c, 0, 64, 49
4, 13920, Note_on_c, 0, 67, 49
4, 13967, Note_on_c, 0, 67, 0
4, 13967, Note_on_c, 0, 64, 0
4, 13967, Note_on_c, 0, 57, 0
4, 14160, Note_on_c, 0, 57, 62
4, 14160, Note_on_c, 0, 62, 62
4, 14160, Note_on_c, 0, 67, 62
4, 14207, Note_on_c, 0, 67, 0
4, 14207, Note_on_c, 0, 62, 0
4, 14207, Note_on_c, 0, 57, 0
4, 14400, Note_on_c, 0, 57, 62
4, 14400, Note_on_c, 0, 67, 62
4, 15360, Note_on_c, 0, 67, 0
4, 15360, Note_on_c, 0, 57, 0
4, 15840, Note_on_c, 0, 43, 75
4, 15840, Note_on_c, 0, 55, 75
4, 15936, Note_on_c, 0, 55, 0
4, 15936, Note_on_c, 0, 43, 0
4, 16320, Note_on_c, 0, 42, 75
4, 16320, Note_on_c, 0, 54, 75
4, 16416, Note_on_c, 0, 54, 0
4, 16416, Note_on_c, 0, 42, 0
4, 16800, Note_on_c, 0, 40, 62
4, 16800, Note_on_c, 0, 52, 62
4, 16896, Note_on_c, 0, 52, 0
4, 16896, Note_on_c, 0, 40, 0
4, 17400, Control_c, 0, 64, 127
4, 17400, Note_on_c, 0, 57, 49
4, 17520, Note_on_c, 0, 57, 0
4, 17520, Note_on_c, 0, 54, 49
4, 17640, Note_on_c, 0, 54, 0
4, 17640, Note_on_c, 0, 57, 49
4, 17760, Note_on_c, 0, 57, 0
4, 17760, Note_on_c, 0, 54, 49
4, 17880, Note_on_c, 0, 54, 0
4, 17880, Note_on_c, 0, 57, 49
4, 18000, Note_on_c, 0, 57, 0
4, 18000, Note_on_c, 0, 54, 49
4, 18000, Note_on_c, 0, 62, 49
4, 18120, Note_on_c, 0, 62, 0
4, 18120, Note_on_c, 0, 54, 0
4, 18120, Note_on_c, 0, 57, 49
4, 18120, Note_on_c, 0, 66, 49
4, 18240, Note_on_c, 0, 66, 0
4, 18240, Note_on_c, 0, 57, 0
4, 18240, Note_on_c, 0, 54, 49
4, 18240, Note_on_c, 0, 62, 49
4, 18360, Note_on_c, 0, 62, 0
4, 18360, Note_on_c, 0, 54, 0
4, 18360, Note_on_c, 0, 57, 49
4, 18360, Note_on_c, 0, 66, 49
4, 18480, Note_on_c, 0, 66, 0
4, 18480, Note_on_c, 0, 57, 0
4, 18480, Note_on_c, 0, 54, 49
4, 18480, Note_on_c, 0, 62, 49
4, 18600, Note_on_c, 0, 62, 0
4, 18600, Note_on_c, 0, 54, 0
4, 18600, Control_c, 0, 64, 0
4, 18600, Note_on_c, 0, 57, 49
4, 18600, Note_on_c, 0, 66, 49
4, 18720, Note_on_c, 0, 66, 0
4, 18720, Note_on_c, 0, 57, 0
4, 18840, Control_c, 0, 64, 127
4, 18840, Note_on_c, 0, 62, 49
4, 18840, Note_on_c, 0, 67, 49
4, 18960, Note_on_c, 0, 67, 0
4, 18960, Note_on_c, 0, 62, 0
4, 18960, Note_on_c, 0, 57, 49
4, 18960, Note_on_c, 0, 64, 49
4, 19080, Note_on_c, 0, 64, 0
4, 19080, Note_on_c, 0, 57, 0
4, 19080, Note_on_c, 0, 62, 49
4, 19080, Note_on_c, 0, 67, 49
4, 19200, Note_on_c, 0, 67, 0
4, 19200, Note_on_c, 0, 62, 0
4, 19200, Note_on_c, 0, 57, 49
4, 19200, Note_on_c, 0, 64, 49
4, 19320, Note_on_c, 0, 64, 0
4, 19320, Note_on_c, 0, 57, 0
4, 19320, Control_c, 0, 64, 0
4, 19320, Note_on_c, 0, 62, 49
4, 19320, Note_on_c, 0, 67, 49
4, 19440, Note_on_c, 0, 67, 0
4, 19440, Note_on_c, 0, 62, 0
4, 19440, Control_c, 0, 64, 127
4, 19440, Note_on_c, 0, 57, 49
4, 19440, Note_on_c, 0, 64, 49
4, 19560, Note_on_c, 0, 64, 0
4, 19560, Note_on_c, 0, 57, 0
4, 19560, Note_on_c, 0, 61, 49
4, 19560, Note_on_c, 0, 67, 49
4, 19680, Note_on_c, 0, 67, 0
4, 19680, Note_on_c, 0, 61, 0
4, 19680, Note_on_c, 0, 57, 49
4, 19680, Note_on_c, 0, 64, 49
4, 19800, Note_on_c, 0, 64, 0
4, 19800, Note_on_c, 0, 57, 0
4, 19800, Note_on_c, 0, 61, 49
4, 19800, Note_on_c, 0, 67, 49
4, 19920, Note_on_c, 0, 67, 0
4, 19920, Note_on_c, 0, 61, 0
4, 19920, Note_on_c, 0, 57, 49
4, 19920, Note_on_c, 0, 64, 49
4, 20040, Note_on_c, 0, 64, 0
4, 20040, Note_on_c, 0, 57, 0
4, 20040, Control_c, 0, 64, 0
4, 20040, Note_on_c, 0, 61, 49
4, 20040, Note_on_c, 0, 67, 49
4, 20160, Note_on_c, 0, 67, 0
4, 20160, Note_on_c, 0, 61, 0
4, 20280, Control_c, 0, 64, 127
4, 20280, Note_on_c, 0, 57, 49
4, 20280, Note_on_c, 0, 66, 49
4, 20400, Note_on_c, 0, 66, 0
4, 20400, Note_on_c, 0, 57, 0
4, 20400, Note_on_c, 0, 54, 49
4, 20400, Note_on_c, 0, 62, 49
4, 20520, Note_on_c, 0, 62, 0
4, 20520, Note_on_c, 0, 54, 0
4, 20520, Note_on_c, 0, 57, 49
4, 20520, Note_on_c, 0, 66, 49
4, 20640, Note_on_c, 0, 66, 0
4, 20640, Note_on_c, 0, 57, 0
4, 20640, Note_on_c, 0, 54, 49
4, 20640, Note_on_c, 0, 62, 49
4, 20760, Note_on_c, 0, 62, 0
4, 20760, Note_on_c, 0, 54, 0
4, 20760, Note_on_c, 0, 57, 49
4, 20760, Note_on_c, 0, 66, 49
4, 20880, Note_on_c, 0, 66, 0
4, 20880, Note_on_c, 0, 57, 0
4, 20880, Note_on_c, 0, 54, 49
4, 20880, Note_on_c, 0, 62, 49
4, 21000, Note_on_c, 0, 62, 0
4, 21000, Note_on_c, 0, 54, 0
4, 21000, Note_on_c, 0, 57, 49
4, 21000, Note_on_c, 0, 66, 49
4, 21120, Note_on_c, 0, 66, 0
4, 21120, Note_on_c, 0, 57, 0
4, 21120, Note_on_c, 0, 54, 49
4, 21120, Note_on_c, 0, 62, 49
4, 21240, Note_on_c, 0, 62, 0
4, 21240, Note_on_c, 0, 54, 0
4, 21240, Note_on_c, 0, 57, 49
4, 21240, Note_on_c, 0, 66, 49
4, 21360, Note_on_c, 0, 66, 0
4, 21360, Note_on_c, 0, 57, 0
4, 21360, Note_on_c, 0, 54, 49
4, 21360, Note_on_c, 0, 62, 49
4, 21480, Note_on_c, 0, 62, 0
4, 21480, Note_on_c, 0, 54, 0
4, 21480, Control_c, 0, 64, 0
4, 21480, Note_on_c, 0, 57, 49
4, 21480, Note_on_c, 0, 66, 49
4, 21600, Note_on_c, 0, 66, 0
4, 21600, Note_on_c, 0, 57, 0
4, 21720, Control_c, 0, 64, 127
4, 21720, Note_on_c, 0, 62, 49
4, 21720, Note_on_c, 0, 67, 49
4, 21840, Note_on_c, 0, 67, 0
4, 21840, Note_on_c, 0, 62, 0
4, 21840, Note_on_c, 0, 57, 49
4, 21840, Note_on_c, 0, 64, 49
4, 21960, Note_on_c, 0, 64, 0
4, 21960, Note_on_c, 0, 57, 0
4, 21960, Note_on_c, 0, 62, 49
4, 21960, Note_on_c, 0, 67, 49
4, 22080, Note_on_c, 0, 67, 0
4, 22080, Note_on_c, 0, 62, 0
4, 22080, Note_on_c, 0, 57, 49
4, 22080, Note_on_c, 0, 64, 49
4, 22200, Note_on_c, 0, 64, 0
4, 22200, Note_on_c, 0, 57, 0
4, 22200, Control_c, 0, 64, 0
4, 22200, Note_on_c, 0, 62, 49
4, 22200, Note_on_c, 0, 67, 49
4, 22320, Note_on_c, 0, 67, 0
4, 22320, Note_on_c, 0, 62, 0
4, 22320, Control_c, 0, 64, 127
4, 22320, Note_on_c, 0, 57, 49
4, 22320, Note_on_c, 0, 64, 49
4, 22440, Note_on_c, 0, 64, 0
4, 22440, Note_on_c, 0, 57, 0
4, 22440, Note_on_c, 0, 61, 49
4, 22440, Note_on_c, 0, 67, 49
4, 22560, Note_on_c, 0, 67, 0
4, 22560, Note_on_c, 0, 61, 0
4, 22560, Note_on_c, 0, 57, 49
4, 22560, Note_on_c, 0, 64, 49
4, 22680, Note_on_c, 0, 64, 0
4, 22680, Note_on_c, 0, 57, 0
4, 22680, Note_on_c, 0, 61, 49
4, 22680, Note_on_c, 0, 67, 49
4, 22800, Note_on_c, 0, 67, 0
4, 22800, Note_on_c, 0, 61, 0
4, 22800, Note_on_c, 0, 57, 49
4, 22800, Note_on_c, 0, 64, 49
4, 22920, Note_on_c, 0, 64, 0
4, 22920, Note_on_c, 0, 57, 0
4, 22920, Control_c, 0, 64, 0
4, 22920, Note_on_c, 0, 61, 49
4, 22920, Note_on_c, 0, 67, 49
4, 23040, Note_on_c, 0, 67, 0
4, 23040, Note_on_c, 0, 61, 0
4, 23160, Control_c, 0, 64, 127
4, 23160, Note_on_c, 0, 57, 49
4, 23160, Note_on_c, 0, 66, 49
4, 23280, Note_on_c, 0, 66, 0
4, 23280, Note_on_c, 0, 57, 0
4, 23280, Note_on_c, 0, 54, 49
4, 23280, Note_on_c, 0, 62, 49
4, 23400, Note_on_c, 0, 62, 0
4, 23400, Note_on_c, 0, 54, 0
4, 23400, Note_on_c, 0, 57, 49
4, 23400, Note_on_c, 0, 66, 49
4, 23520, Note_on_c, 0, 66, 0
4, 23520, Note_on_c, 0, 57, 0
4, 23520, Note_on_c, 0, 54, 49
4, 23520, Note_on_c, 0, 62, 49
4, 23640, Note_on_c, 0, 62, 0
4, 23640, Note_on_c, 0, 54, 0
4, 23640, Note_on_c, 0, 57, 49
4, 23640, Note_on_c, 0, 66, 49
4, 23760, Note_on_c, 0, 66, 0
4, 23760, Note_on_c, 0, 57, 0
4, 23760, Note_on_c, 0, 54, 49
4, 23760, Note_on_c, 0, 62, 49
4, 23880, Note_on_c, 0, 62, 0
4, 23880, Note_on_c, 0, 54, 0
4, 23880, Note_on_c, 0, 57, 49
4, 23880, Note_on_c, 0, 66, 49
4, 24000, Note_on_c, 0, 66, 0
4, 24000, Note_on_c, 0, 57, 0
4, 24000, Note_on_c, 0, 54, 49
4, 24000, Note_on_c, 0, 62, 49
4, 24120, Note_on_c, 0, 62, 0
4, 24120, Note_on_c, 0, 54, 0
4, 24120, Note_on_c, 0, 57, 49
4, 24120, Note_on_c, 0, 66, 49
4, 24240, Note_on_c, 0, 66, 0
4, 24240, Note_on_c, 0, 57, 0
4, 24240, Note_on_c, 0, 54, 49
4, 24240, Note_on_c, 0, 62, 49
4, 24360, Note_on_c, 0, 62, 0
4, 24360, Note_on_c, 0, 54, 0
4, 24360, Control_c, 0, 64, 0
4, 24360, Note_on_c, 0, 57, 49
4, 24360, Note_on_c, 0, 66, 49
4, 24480, Note_on_c, 0, 66, 0
4, 24480, Note_on_c, 0, 57, 0
4, 24600, Control_c, 0, 64, 127
4, 24600, Note_on_c, 0, 62, 49
4, 24600, Note_on_c, 0, 67, 49
4, 24720, Note_on_c, 0, 67, 0
4, 24720, Note_on_c, 0, 62, 0
4, 24720, Note_on_c, 0, 57, 49
4, 24720, Note_on_c, 0, 64, 49
4, 24840, Note_on_c, 0, 64, 0
4, 24840, Note_on_c, 0, 57, 0
4, 24840, Note_on_c, 0, 62, 49
4, 24840, Note_on_c, 0, 67, 49
4, 24960, Note_on_c, 0, 67, 0
4, 24960, Note_on_c, 0, 62, 0
4, 24960, Note_on_c, 0, 57, 49
4, 24960, Note_on_c, 0, 64, 49
4, 25080, Note_on_c, 0, 64, 0
4, 25080, Note_on_c, 0, 57, 0
4, 25080, Control_c, 0, 64, 0
4, 25080, Note_on_c, 0, 62, 49
4, 25080, Note_on_c, 0, 67, 49
4, 25200, Note_on_c, 0, 67, 0
4, 25200, Note_on_c, 0, 62, 0
4, 25200, Control_c, 0, 64, 127
4, 25200, Note_on_c, 0, 57, 49
4, 25200, Note_on_c, 0, 64, 49
4, 25320, Note_on_c, 0, 64, 0
4, 25320, Note_on_c, 0, 57, 0
4, 25320, Note_on_c, 0, 61, 49
4, 25320, Note_on_c, 0, 67, 49
4, 25440, Note_on_c, 0, 67, 0
4, 25440, Note_on_c, 0, 61, 0
4, 25440, Note_on_c, 0, 57, 49
4, 25440, Note_on_c, 0, 64, 49
4, 25560, Note_on_c, 0, 64, 0
4, 25560, Note_on_c, 0, 57, 0
4, 25560, Note_on_c, 0, 61, 49
4, 25560, Note_on_c, 0, 67, 49
4, 25680, Note_on_c, 0, 67, 0
4, 25680, Note_on_c, 0, 61, 0
4, 25680, Note_on_c, 0, 57, 49
4, 25680, Note_on_c, 0, 64, 49
4, 25800, Note_on_c, 0, 64, 0
4, 25800, Note_on_c, 0, 57, 0
4, 25800, Control_c, 0, 64, 0
4, 25800, Note_on_c, 0, 61, 49
4, 25800, Note_on_c, 0, 67, 49
4, 25920, Note_on_c, 0, 67, 0
4, 25920, Note_on_c, 0, 61, 0
4, 26040, Control_c, 0, 64, 127
4, 26040, Note_on_c, 0, 57, 62
4, 26040, Note_on_c, 0, 66, 62
4, 26160, Note_on_c, 0, 66, 0
4, 26160, Note_on_c, 0, 57, 0
4, 26160, Note_on_c, 0, 54, 62
4, 26160, Note_on_c, 0, 62, 62
4, 26280, Note_on_c, 0, 62, 0
4, 26280, Note_on_c, 0, 54, 0
4, 26280, Note_on_c, 0, 57, 62
4, 26280, Note_on_c, 0, 66, 62
4, 26400, Note_on_c, 0, 66, 0
4, 26400, Note_on_c, 0, 57, 0
4, 26400, Note_on_c, 0, 54, 62
4, 26400, Note_on_c, 0, 62, 62
4, 26520, Note_on_c, 0, 62, 0
4, 26520, Note_on_c, 0, 54, 0
4, 26520, Note_on_c, 0, 57, 62
4, 26520, Note_on_c, 0, 66, 62
4, 26640, Note_on_c, 0, 66, 0
4, 26640, Note_on_c, 0, 57, 0
4, 26640, Note_on_c, 0, 54, 62
4, 26640, Note_on_c, 0, 62, 62
4, 26760, Note_on_c, 0, 62, 0
4, 26760, Note_on_c, 0, 54, 0
4, 26760, Note_on_c, 0, 57, 62
4, 26760, Note_on_c, 0, 66, 62
4, 26880, Note_on_c, 0, 66, 0
4, 26880, Note_on_c, 0, 57, 0
4, 26880, Note_on_c, 0, 54, 62
4, 26880, Note_on_c, 0, 62, 62
4, 27000, Note_on_c, 0, 62, 0
4, 27000, Note_on_c, 0, 54, 0
4, 27000, Note_on_c, 0, 57, 62
4, 27000, Note_on_c, 0, 66, 62
4, 27120, Note_on_c, 0, 66, 0
4, 27120, Note_on_c, 0, 57, 0
4, 27120, Note_on_c, 0, 54, 62
4, 27120, Note_on_c, 0, 62, 62
4, 27240, Note_on_c, 0, 62, 0
4, 27240, Note_on_c, 0, 54, 0
4, 27240, Control_c, 0, 64, 0
4, 27240, Note_on_c, 0, 57, 62
4, 27240, Note_on_c, 0, 66, 62
4, 27360, Note_on_c, 0, 66, 0
4, 27360, Note_on_c, 0, 57, 0
4, 27480, Control_c, 0, 64, 127
4, 27480, Note_on_c, 0, 61, 62
4, 27480, Note_on_c, 0, 69, 62
4, 27600, Note_on_c, 0, 69, 0
4, 27600, Note_on_c, 0, 61, 0
4, 27600, Note_on_c, 0, 57, 62
4, 27600, Note_on_c, 0, 66, 62
4, 27720, Note_on_c, 0, 66, 0
4, 27720, Note_on_c, 0, 57, 0
4, 27720, Note_on_c, 0, 61, 62
4, 27720, Note_on_c, 0, 69, 62
4, 27840, Note_on_c, 0, 69, 0
4, 27840, Note_on_c, 0, 61, 0
4, 27840, Note_on_c, 0, 57, 62
4, 27840, Note_on_c, 0, 66, 62
4, 27960, Note_on_c, 0, 66, 0
4, 27960, Note_on_c, 0, 57, 0
4, 27960, Control_c, 0, 64, 0
4, 27960, Note_on_c, 0, 61, 62
4, 27960, Note_on_c, 0, 69, 62
4, 28080, Note_on_c, 0, 69, 0
4, 28080, Note_on_c, 0, 61, 0
4, 28200, Control_c, 0, 64, 127
4, 28200, Note_on_c, 0, 61, 62
4, 28200, Note_on_c, 0, 68, 62
4, 28320, Note_on_c, 0, 68, 0
4, 28320, Note_on_c, 0, 61, 0
4, 28320, Note_on_c, 0, 59, 62
4, 28320, Note_on_c, 0, 65, 62
4, 28440, Note_on_c, 0, 65, 0
4, 28440, Note_on_c, 0, 59, 0
4, 28440, Note_on_c, 0, 61, 49
4, 28440, Note_on_c, 0, 68, 49
4, 28560, Note_on_c, 0, 68, 0
4, 28560, Note_on_c, 0, 61, 0
4, 28560, Note_on_c, 0, 59, 49
4, 28560, Note_on_c, 0, 65, 49
4, 28680, Note_on_c, 0, 65, 0
4, 28680, Note_on_c, 0, 59, 0
4, 28680, Control_c, 0, 64, 0
4, 28680, Note_on_c, 0, 61, 49
4, 28680, Note_on_c, 0, 68, 49
4, 28800, Note_on_c, 0, 68, 0
4, 28800, Note_on_c, 0, 61, 0
4, 28920, Control_c, 0, 64, 127
4, 28920, Note_on_c, 0, 61, 62
4, 28920, Note_on_c, 0, 69, 62
4, 29040, Note_on_c, 0, 69, 0
4, 29040, Note_on_c, 0, 61, 0
4, 29040, Note_on_c, 0, 57, 62
4, 29040, Note_on_c, 0, 66, 62
4, 29160, Note_on_c, 0, 66, 0
4, 29160, Note_on_c, 0, 57, 0
4, 29160, Note_on_c, 0, 61, 62
4, 29160, Note_on_c, 0, 69, 62
4, 29280, Note_on_c, 0, 69, 0
4, 29280, Note_on_c, 0, 61, 0
4, 29280, Note_on_c, 0, 57, 49
4, 29280, Note_on_c, 0, 66, 49
4, 29400, Note_on_c, 0, 66, 0
4, 29400, Note_on_c, 0, 57, 0
4, 29400, Note_on_c, 0, 61, 49
4, 29400, Note_on_c, 0, 69, 49
4, 29520, Note_on_c, 0, 69, 0
4, 29520, Note_on_c, 0, 61, 0
4, 29520, Control_c, 0, 64, 0
4, 29520, Note_on_c, 0, 57, 49
4, 29520, Note_on_c, 0, 66, 49
4, 29760, Note_on_c, 0, 66, 0
4, 29760, Note_on_c, 0, 57, 0
4, 30240, Note_on_c, 0, 67, 62
4, 30263, Note_on_c, 0, 67, 0
4, 30360, Note_on_c, 0, 67, 62
4, 30360, Note_on_c, 0, 71, 62
4, 30383, Note_on_c, 0, 71, 0
4, 30383, Note_on_c, 0, 67, 0
4, 30480, Note_on_c, 0, 71, 62
4, 30480, Note_on_c, 0, 79, 62
4, 30503, Note_on_c, 0, 79, 0
4, 30503, Note_on_c, 0, 71, 0
4, 30600, Note_on_c, 0, 67, 62
4, 30600, Note_on_c, 0, 71, 62
4, 30623, Note_on_c, 0, 71, 0
4, 30623, Note_on_c, 0, 67, 0
4, 30720, Note_on_c, 0, 64, 62
4, 30720, Note_on_c, 0, 67, 62
4, 30743, Note_on_c, 0, 67, 0
4, 30743, Note_on_c, 0, 64, 0
4, 30840, Note_on_c, 0, 67, 62
4, 30840, Note_on_c, 0, 71, 62
4, 30863, Note_on_c, 0, 71, 0
4, 30863, Note_on_c, 0, 67, 0
4, 30960, Note_on_c, 0, 57, 62
4, 30960, Note_on_c, 0, 64, 62
4, 30960, Note_on_c, 0, 67, 62
4, 30983, Note_on_c, 0, 67, 0
4, 30983, Note_on_c, 0, 64, 0
4, 30983, Note_on_c, 0, 57, 0
4, 31080, Note_on_c, 0, 64, 62
4, 31080, Note_on_c, 0, 67, 62
4, 31103, Note_on_c, 0, 67, 0
4, 31103, Note_on_c, 0, 64, 0
4, 31200, Note_on_c, 0, 67, 62
4, 31223, Note_on_c, 0, 67, 0
4, 31320, Note_on_c, 0, 64, 62
4, 31320, Note_on_c, 0, 67, 62
4, 31343, Note_on_c, 0, 67, 0
4, 31343, Note_on_c, 0, 64, 0
4, 31440, Note_on_c, 0, 57, 62
4, 31440, Note_on_c, 0, 64, 62
4, 31463, Note_on_c, 0, 64, 0
4, 31463, Note_on_c, 0, 57, 0
4, 31560, Note_on_c, 0, 64, 62
4, 31560, Note_on_c, 0, 67, 62
4, 31583, Note_on_c, 0, 67, 0
4, 31583, Note_on_c, 0, 64, 0
4, 31680, Note_on_c, 0, 62, 62
4, 31680, Note_on_c, 0, 66, 62
4, 31703, Note_on_c, 0, 66, 0
4, 31703, Note_on_c, 0, 62, 0
4, 31800, Note_on_c, 0, 66, 62
4, 31800, Note_on_c, 0, 69, 62
4, 31823, Note_on_c, 0, 69, 0
4, 31823, Note_on_c, 0, 66, 0
4, 31920, Note_on_c, 0, 69, 62
4, 31920, Note_on_c, 0, 78, 62
4, 31943, Note_on_c, 0, 78, 0
4, 31943, Note_on_c, 0, 69, 0
4, 32040, Note_on_c, 0, 66, 62
4, 32040, Note_on_c, 0, 69, 62
4, 32063, Note_on_c, 0, 69, 0
4, 32063, Note_on_c, 0, 66, 0
4, 32160, Note_on_c, 0, 62, 62
4, 32160, Note_on_c, 0, 66, 62
4, 32183, Note_on_c, 0, 66, 0
4, 32183, Note_on_c, 0, 62, 0
4, 32280, Note_on_c, 0, 66, 62
4, 32280, Note_on_c, 0, 69, 62
4, 32303, Note_on_c, 0, 69, 0
4, 32303, Note_on_c, 0, 66, 0
4, 32400, Note_on_c, 0, 62, 62
4, 32400, Note_on_c, 0, 66, 62
4, 32423, Note_on_c, 0, 66, 0
4, 32423, Note_on_c, 0, 62, 0
4, 32520, Note_on_c, 0, 62, 62
4, 32520, Note_on_c, 0, 66, 62
4, 32543, Note_on_c, 0, 66, 0
4, 32543, Note_on_c, 0, 62, 0
4, 32640, Note_on_c, 0, 66, 62
4, 32640, Note_on_c, 0, 69, 62
4, 32663, Note_on_c, 0, 69, 0
4, 32663, Note_on_c, 0, 66, 0
4, 32760, Note_on_c, 0, 62, 62
4, 32760, Note_on_c, 0, 66, 62
4, 32783, Note_on_c, 0, 66, 0
4, 32783, Note_on_c, 0, 62, 0
4, 32880, Note_on_c, 0, 57, 62
4, 32880, Note_on_c, 0, 62, 62
4, 32903, Note_on_c, 0, 62, 0
4, 32903, Note_on_c, 0, 57, 0
4, 33000, Note_on_c, 0, 62, 62
4, 33000, Note_on_c, 0, 66, 62
4, 33023, Note_on_c, 0, 66, 0
4, 33023, Note_on_c, 0, 62, 0
4, 33120, Note_on_c, 0, 67, 62
4, 33143, Note_on_c, 0, 67, 0
4, 33240, Note_on_c, 0, 67, 62
4, 33240, Note_on_c, 0, 71, 62
4, 33263, Note_on_c, 0, 71, 0
4, 33263, Note_on_c, 0, 67, 0
4, 33360, Note_on_c, 0, 64, 62
4, 33360, Note_on_c, 0, 67, 62
4, 33383, Note_on_c, 0, 67, 0
4, 33383, Note_on_c, 0, 64, 0
4, 33480, Note_on_c, 0, 67, 62
4, 33480, Note_on_c, 0, 71, 62
4, 33503, Note_on_c, 0, 71, 0
4, 33503, Note_on_c, 0, 67, 0
4, 33600, Note_on_c, 0, 64, 62
4, 33600, Note_on_c, 0, 67, 62
4, 33623, Note_on_c, 0, 67, 0
4, 33623, Note_on_c, 0, 64, 0
4, 33720, Note_on_c, 0, 67, 62
4, 33720, Note_on_c, 0, 71, 62
4, 33743, Note_on_c, 0, 71, 0
4, 33743, Note_on_c, 0, 67, 0
4, 33840, Note_on_c, 0, 64, 62
4, 33840, Note_on_c, 0, 67, 62
4, 33863, Note_on_c, 0, 67, 0
4, 33863, Note_on_c, 0, 64, 0
4, 33960, Note_on_c, 0, 64, 62
4, 33960, Note_on_c, 0, 67, 62
4, 33983, Note_on_c, 0, 67, 0
4, 33983, Note_on_c, 0, 64, 0
4, 34080, Note_on_c, 0, 67, 62
4, 34080, Note_on_c, 0, 71, 62
4, 34103, Note_on_c, 0, 71, 0
4, 34103, Note_on_c, 0, 67, 0
4, 34200, Note_on_c, 0, 64, 62
4, 34200, Note_on_c, 0, 67, 62
4, 34223, Note_on_c, 0, 67, 0
4, 34223, Note_on_c, 0, 64, 0
4, 34320, Note_on_c, 0, 57, 62
4, 34320, Note_on_c, 0, 64, 62
4, 34343, Note_on_c, 0, 64, 0
4, 34343, Note_on_c, 0, 57, 0
4, 34440, Note_on_c, 0, 64, 62
4, 34440, Note_on_c, 0, 67, 62
4, 34463, Note_on_c, 0, 67, 0
4, 34463, Note_on_c, 0, 64, 0
4, 34560, Note_on_c, 0, 66, 62
4, 34583, Note_on_c, 0, 66, 0
4, 34680, Note_on_c, 0, 66, 62
4, 34680, Note_on_c, 0, 69, 62
4, 34703, Note_on_c, 0, 69, 0
4, 34703, Note_on_c, 0, 66, 0
4, 34800, Note_on_c, 0, 69, 62
4, 34800, Note_on_c, 0, 78, 62
4, 34823, Note_on_c, 0, 78, 0
4, 34823, Note_on_c, 0, 69, 0
4, 34920, Note_on_c, 0, 66, 62
4, 34920, Note_on_c, 0, 69, 62
4, 34943, Note_on_c, 0, 69, 0
4, 34943, Note_on_c, 0, 66, 0
4, 35040, Note_on_c, 0, 62, 62
4, 35040, Note_on_c, 0, 66, 62
4, 35063, Note_on_c, 0, 66, 0
4, 35063, Note_on_c, 0, 62, 0
4, 35160, Note_on_c, 0, 66, 62
4, 35160, Note_on_c, 0, 69, 62
4, 35183, Note_on_c, 0, 69, 0
4, 35183, Note_on_c, 0, 66, 0
4, 35280, Note_on_c, 0, 62, 62
4, 35280, Note_on_c, 0, 66, 62
4, 35303, Note_on_c, 0, 66, 0
4, 35303, Note_on_c, 0, 62, 0
4, 35400, Note_on_c, 0, 62, 62
4, 35400, Note_on_c, 0, 66, 62
4, 35423, Note_on_c, 0, 66, 0
4, 35423, Note_on_c, 0, 62, 0
4, 35520, Note_on_c, 0, 66, 62
4, 35520, Note_on_c, 0, 69, 62
4, 35543, Note_on_c, 0, 69, 0
4, 35543, Note_on_c, 0, 66, 0
4, 35640, Note_on_c, 0, 62, 62
4, 35640, Note_on_c, 0, 66, 62
4, 35663, Note_on_c, 0, 66, 0
4, 35663, Note_on_c, 0, 62, 0
4, 35760, Note_on_c, 0, 57, 62
4, 35760, Note_on_c, 0, 62, 62
4, 35783, Note_on_c, 0, 62, 0
4, 35783, Note_on_c, 0, 57, 0
4, 35880, Note_on_c, 0, 62, 62
4, 35880, Note_on_c, 0, 66, 62
4, 35903, Note_on_c, 0, 66, 0
4, 35903, Note_on_c, 0, 62, 0
4, 36000, Note_on_c, 0, 67, 62
4, 36023, Note_on_c, 0, 67, 0
4, 36120, Note_on_c, 0, 67, 62
4, 36120, Note_on_c, 0, 71, 62
4, 36143, Note_on_c, 0, 71, 0
4, 36143, Note_on_c, 0, 67, 0
4, 36240, Note_on_c, 0, 71, 62
4, 36240, Note_on_c, 0, 79, 62
4, 36263, Note_on_c, 0, 79, 0
4, 36263, Note_on_c, 0, 71, 0
4, 36360, Note_on_c, 0, 67, 62
4, 36360, Note_on_c, 0, 71, 62
4, 36383, Note_on_c, 0, 71, 0
4, 36383, Note_on_c, 0, 67, 0
4, 36480, Note_on_c, 0, 64, 62
4, 36480, Note_on_c, 0, 67, 62
4, 36503, Note_on_c, 0, 67, 0
4, 36503, Note_on_c, 0, 64, 0
4, 36600, Note_on_c, 0, 67, 62
4, 36600, Note_on_c, 0, 71, 62
4, 36623, Note_on_c, 0, 71, 0
4, 36623, Note_on_c, 0, 67, 0
4, 36720, Note_on_c, 0, 64, 62
4, 36720, Note_on_c, 0, 67, 62
4, 36743, Note_on_c, 0, 67, 0
4, 36743, Note_on_c, 0, 64, 0
4, 36840, Note_on_c, 0, 64, 62
4, 36840, Note_on_c, 0, 67, 62
4, 36863, Note_on_c, 0, 67, 0
4, 36863, Note_on_c, 0, 64, 0
4, 36960, Note_on_c, 0, 67, 62
4, 36960, Note_on_c, 0, 71, 62
4, 36983, Note_on_c, 0, 71, 0
4, 36983, Note_on_c, 0, 67, 0
4, 37080, Note_on_c, 0, 64, 62
4, 37080, Note_on_c, 0, 67, 62
4, 37103, Note_on_c, 0, 67, 0
4, 37103, Note_on_c, 0, 64, 0
4, 37200, Note_on_c, 0, 57, 62
4, 37200, Note_on_c, 0, 64, 62
4, 37223, Note_on_c, 0, 64, 0
4, 37223, Note_on_c, 0, 57, 0
4, 37320, Note_on_c, 0, 64, 62
4, 37320, Note_on_c, 0, 67, 62
4, 37343, Note_on_c, 0, 67, 0
4, 37343, Note_on_c, 0, 64, 0
4, 37440, Note_on_c, 0, 66, 62
4, 37463, Note_on_c, 0, 66, 0
4, 37560, Note_on_c, 0, 66, 62
4, 37560, Note_on_c, 0, 69, 62
4, 37583, Note_on_c, 0, 69, 0
4, 37583, Note_on_c, 0, 66, 0
4, 37680, Note_on_c, 0, 62, 62
4, 37680, Note_on_c, 0, 66, 62
4, 37703, Note_on_c, 0, 66, 0
4, 37703, Note_on_c, 0, 62, 0
4, 37800, Note_on_c, 0, 66, 62
4, 37800, Note_on_c, 0, 69, 62
4, 37823, Note_on_c, 0, 69, 0
4, 37823, Note_on_c, 0, 66, 0
4, 37920, Note_on_c, 0, 62, 62
4, 37920, Note_on_c, 0, 66, 62
4, 37943, Note_on_c, 0, 66, 0
4, 37943, Note_on_c, 0, 62, 0
4, 38040, Note_on_c, 0, 66, 62
4, 38040, Note_on_c, 0, 69, 62
4, 38063, Note_on_c, 0, 69, 0
4, 38063, Note_on_c, 0, 66, 0
4, 38160, Note_on_c, 0, 62, 62
4, 38160, Note_on_c, 0, 66, 62
4, 38183, Note_on_c, 0, 66, 0
4, 38183, Note_on_c, 0, 62, 0
4, 38280, Note_on_c, 0, 62, 62
4, 38280, Note_on_c, 0, 66, 62
4, 38303, Note_on_c, 0, 66, 0
4, 38303, Note_on_c, 0, 62, 0
4, 38400, Note_on_c, 0, 66, 62
4, 38400, Note_on_c, 0, 69, 62
4, 38423, Note_on_c, 0, 69, 0
4, 38423, Note_on_c, 0, 66, 0
4, 38520, Note_on_c, 0, 62, 62
4, 38520, Note_on_c, 0, 66, 62
4, 38543, Note_on_c, 0, 66, 0
4, 38543, Note_on_c, 0, 62, 0
4, 38640, Note_on_c, 0, 57, 62
4, 38640, Note_on_c, 0, 62, 62
4, 38663, Note_on_c, 0, 62, 0
4, 38663, Note_on_c, 0, 57, 0
4, 38760, Note_on_c, 0, 62, 62
4, 38760, Note_on_c, 0, 66, 62
4, 38783, Note_on_c, 0, 66, 0
4, 38783, Note_on_c, 0, 62, 0
4, 38880, Note_on_c, 0, 61, 62
4, 38880, Note_on_c, 0, 64, 62
4, 38880, Note_on_c, 0, 69, 62
4, 38927, Note_on_c, 0, 69, 0
4, 38927, Note_on_c, 0, 64, 0
4, 38927, Note_on_c, 0, 61, 0
4, 39120, Note_on_c, 0, 62, 62
4, 39120, Note_on_c, 0, 66, 62
4, 39120, Note_on_c, 0, 71, 62
4, 39167, Note_on_c, 0, 71, 0
4, 39167, Note_on_c, 0, 66, 0
4, 39167, Note_on_c, 0, 62, 0
4, 39600, Note_on_c, 0, 52, 62
4, 39600, Note_on_c, 0, 56, 62
4, 39600, Note_on_c, 0, 59, 62
4, 39600, Note_on_c, 0, 62, 62
4, 39840, Note_on_c, 0, 62, 0
4, 39840, Note_on_c, 0, 52, 0
4, 39840, Note_on_c, 0, 56, 0
4, 39840, Note_on_c, 0, 59, 0
4, 40240, Note_on_c, 0, 45, 62
4, 40280, Note_on_c, 0, 52, 62
4, 40320, Note_on_c, 0, 61, 62
4, 41040, Note_on_c, 0, 61, 0
4, 41040, Note_on_c, 0, 52, 0
4, 41040, Note_on_c, 0, 45, 0
4, 41040, Note_on_c, 0, 57, 88
4, 41040, Note_on_c, 0, 61, 88
4, 41040, Note_on_c, 0, 64, 88
4, 41280, Note_on_c, 0, 64, 0
4, 41280, Note_on_c, 0, 61, 0
4, 41280, Note_on_c, 0, 57, 0
4, 41760, Note_on_c, 0, 57, 62
4, 41760, Note_on_c, 0, 64, 62
4, 41760, Note_on_c, 0, 67, 62
4, 42240, Note_on_c, 0, 67, 0
4, 42240, Note_on_c, 0, 64, 0
4, 42240, Note_on_c, 0, 57, 0
4, 42240, Note_on_c, 0, 57, 62
4, 42240, Note_on_c, 0, 64, 62
4, 42240, Note_on_c, 0, 67, 62
4, 42420, Note_on_c, 0, 67, 0
4, 42420, Note_on_c, 0, 64, 0
4, 42420, Note_on_c, 0, 57, 0
4, 42420, Note_on_c, 0, 57, 62
4, 42420, Note_on_c, 0, 64, 62
4, 42420, Note_on_c, 0, 67, 62
4, 42480, Note_on_c, 0, 67, 0
4, 42480, Note_on_c, 0, 64, 0
4, 42480, Note_on_c, 0, 57, 0
4, 42480, Note_on_c, 0, 57, 62
4, 42480, Note_on_c, 0, 64, 62
4, 42480, Note_on_c, 0, 67, 62
4, 42503, Note_on_c, 0, 67, 0
4, 42503, Note_on_c, 0, 64, 0
4, 42503, Note_on_c, 0, 57, 0
4, 42600, Note_on_c, 0, 57, 62
4, 42600, Note_on_c, 0, 64, 62
4, 42600, Note_on_c, 0, 67, 62
4, 42623, Note_on_c, 0, 67, 0
4, 42623, Note_on_c, 0, 64, 0
4, 42623, Note_on_c, 0, 57, 0
4, 42720, Note_on_c, 0, 57, 62
4, 42720, Note_on_c, 0, 64, 62
4, 42720, Note_on_c, 0, 67, 62
4, 42743, Note_on_c, 0, 67, 0
4, 42743, Note_on_c, 0, 64, 0
4, 42743, Note_on_c, 0, 57, 0
4, 42840, Note_on_c, 0, 57, 62
4, 42840, Note_on_c, 0, 64, 62
4, 42840, Note_on_c, 0, 67, 62
4, 42863, Note_on_c, 0, 67, 0
4, 42863, Note_on_c, 0, 64, 0
4, 42863, Note_on_c, 0, 57, 0
4, 42960, Note_on_c, 0, 57, 62
4, 42960, Note_on_c, 0, 64, 62
4, 42960, Note_on_c, 0, 67, 62
4, 43007, Note_on_c, 0, 67, 0
4, 43007, Note_on_c, 0, 64, 0
4, 43007, Note_on_c, 0, 57, 0
4, 43200, Note_on_c, 0, 57, 62
4, 43200, Note_on_c, 0, 62, 62
4, 43200, Note_on_c, 0, 66, 62
4, 43440, Note_on_c, 0, 66, 0
4, 43440, Note_on_c, 0, 62, 0
4, 43440, Note_on_c, 0, 57, 0
4, 43440, Note_on_c, 0, 57, 62
4, 43440, Note_on_c, 0, 62, 62
4, 43440, Note_on_c, 0, 66, 62
4, 43800, Note_on_c, 0, 66, 0
4, 43800, Note_on_c, 0, 62, 0
4, 43800, Note_on_c, 0, 57, 0
4, 43800, Note_on_c, 0, 57, 62
4, 43800, Note_on_c, 0, 62, 62
4, 43800, Note_on_c, 0, 66, 62
4, 43920, Note_on_c, 0, 66, 0
4, 43920, Note_on_c, 0, 62, 0
4, 43920, Note_on_c, 0, 57, 0
4, 43920, Note_on_c, 0, 59, 62
4, 43920, Note_on_c, 0, 62, 62
4, 44400, Note_on_c, 0, 62, 0
4, 44400, Note_on_c, 0, 59, 0
4, 44400, Note_on_c, 0, 61, 62
4, 44400, Note_on_c, 0, 64, 62
4, 44640, Note_on_c, 0, 64, 0
4, 44640, Note_on_c, 0, 61, 0
4, 44640, Note_on_c, 0, 57, 62
4, 44640, Note_on_c, 0, 64, 62
4, 44640, Note_on_c, 0, 67, 62
4, 45120, Note_on_c, 0, 67, 0
4, 45120, Note_on_c, 0, 64, 0
4, 45120, Note_on_c, 0, 57, 0
4, 45120, Note_on_c, 0, 57, 62
4, 45120, Note_on_c, 0, 64, 62
4, 45120, Note_on_c, 0, 67, 62
4, 45300, Note_on_c, 0, 67, 0
4, 45300, Note_on_c, 0, 64, 0
4, 45300, Note_on_c, 0, 57, 0
4, 45300, Note_on_c, 0, 57, 62
4, 45300, Note_on_c, 0, 64, 62
4, 45300, Note_on_c, 0, 67, 62
4, 45360, Note_on_c, 0, 67, 0
4, 45360, Note_on_c, 0, 64, 0
4, 45360, Note_on_c, 0, 57, 0
4, 45360, Note_on_c, 0, 57, 62
4, 45360, Note_on_c, 0, 64, 62
4, 45360, Note_on_c, 0, 67, 62
4, 45383, Note_on_c, 0, 67, 0
4, 45383, Note_on_c, 0, 64, 0
4, 45383, Note_on_c, 0, 57, 0
4, 45480, Note_on_c, 0, 57, 62
4, 45480, Note_on_c, 0, 64, 62
4, 45480, Note_on_c, 0, 67, 62
4, 45503, Note_on_c, 0, 67, 0
4, 45503, Note_on_c, 0, 64, 0
4, 45503, Note_on_c, 0, 57, 0
4, 45600, Note_on_c, 0, 57, 62
4, 45600, Note_on_c, 0, 64, 62
4, 45600, Note_on_c, 0, 67, 62
4, 45623, Note_on_c, 0, 67, 0
4, 45623, Note_on_c, 0, 64, 0
4, 45623, Note_on_c, 0, 57, 0
4, 45720, Note_on_c, 0, 57, 62
4, 45720, Note_on_c, 0, 64, 62
4, 45720, Note_on_c, 0, 67, 62
4, 45743, Note_on_c, 0, 67, 0
4, 45743, Note_on_c, 0, 64, 0
4, 45743, Note_on_c, 0, 57, 0
4, 45840, Note_on_c, 0, 57, 62
4, 45840, Note_on_c, 0, 64, 62
4, 45840, Note_on_c, 0, 67, 62
4, 45887, Note_on_c, 0, 67, 0
4, 45887, Note_on_c, 0, 64, 0
4, 45887, Note_on_c, 0, 57, 0
4, 46080, Note_on_c, 0, 62, 62
4, 46080, Note_on_c, 0, 66, 62
4, 46320, Note_on_c, 0, 66, 0
4, 46320, Note_on_c, 0, 62, 0
4, 46320, Note_on_c, 0, 59, 62
4, 46320, Note_on_c, 0, 62, 62
4, 46320, Note_on_c, 0, 66, 62
4, 46320, Note_on_c, 0, 68, 62
4, 46560, Note_on_c, 0, 68, 0
4, 46560, Note_on_c, 0, 59, 0
4, 46560, Note_on_c, 0, 62, 0
4, 46560, Note_on_c, 0, 66, 0
4, 46560, Note_on_c, 0, 61, 62
4, 46560, Note_on_c, 0, 65, 62
4, 46560, Note_on_c, 0, 68, 62
4, 46800, Note_on_c, 0, 68, 0
4, 46800, Note_on_c, 0, 65, 0
4, 46800, Note_on_c, 0, 61, 0
4, 46800, Note_on_c, 0, 54, 62
4, 46800, Note_on_c, 0, 61, 62
4, 46800, Note_on_c, 0, 66, 62
4, 46920, Note_on_c, 0, 66, 0
4, 46920, Note_on_c, 0, 61, 0
4, 46920, Note_on_c, 0, 54, 0
4, 46920, Note_on_c, 0, 66, 62
4, 46920, Note_on_c, 0, 69, 62
4, 46920, Note_on_c, 0, 73, 62
4, 47040, Note_on_c, 0, 73, 0
4, 47040, Note_on_c, 0, 69, 0
4, 47040, Note_on_c, 0, 66, 0
4, 47040, Note_on_c, 0, 66, 62
4, 47040, Note_on_c, 0, 69, 62
4, 47040, Note_on_c, 0, 73, 62
4, 47160, Note_on_c, 0, 73, 0
4, 47160, Note_on_c, 0, 69, 0
4, 47160, Note_on_c, 0, 66, 0
4, 47160, Note_on_c, 0, 66, 49
4, 47160, Note_on_c, 0, 69, 49
4, 47160, Note_on_c, 0, 73, 49
4, 47280, Note_on_c, 0, 73, 0
4, 47280, Note_on_c, 0, 69, 0
4, 47280, Note_on_c, 0, 66, 0
4, 47280, Note_on_c, 0, 66, 49
4, 47280, Note_on_c, 0, 69, 49
4, 47280, Note_on_c, 0, 73, 49
4, 47400, Note_on_c, 0, 73, 0
4, 47400, Note_on_c, 0, 69, 0
4, 47400, Note_on_c, 0, 66, 0
4, 47400, Note_on_c, 0, 66, 49
4, 47400, Note_on_c, 0, 69, 49
4, 47400, Note_on_c, 0, 73, 49
4, 47520, Note_on_c, 0, 73, 0
4, 47520, Note_on_c, 0, 69, 0
4, 47520, Note_on_c, 0, 66, 0
4, 47520, Note_on_c, 0, 45, 49
4, 47567, Note_on_c, 0, 45, 0
4, 47760, Note_on_c, 0, 55, 49
4, 47760, Note_on_c, 0, 61, 49
4, 47760, Note_on_c, 0, 64, 49
4, 47807, Note_on_c, 0, 64, 0
4, 47807, Note_on_c, 0, 61, 0
4, 47807, Note_on_c, 0, 55, 0
4, 48000, Note_on_c, 0, 55, 49
4, 48000, Note_on_c, 0, 61, 49
4, 48000, Note_on_c, 0, 64, 49
4, 48047, Note_on_c, 0, 64, 0
4, 48047, Note_on_c, 0, 61, 0
4, 48047, Note_on_c, 0, 55, 0
4, 48240, Note_on_c, 0, 45, 49
4, 48287, Note_on_c, 0, 45, 0
4, 48480, Note_on_c, 0, 55, 49
4, 48480, Note_on_c, 0, 61, 49
4, 48480, Note_on_c, 0, 64, 49
4, 48527, Note_on_c, 0, 64, 0
4, 48527, Note_on_c, 0, 61, 0
4, 48527, Note_on_c, 0, 55, 0
4, 48720, Note_on_c, 0, 55, 49
4, 48720, Note_on_c, 0, 61, 49
4, 48720, Note_on_c, 0, 64, 49
4, 48767, Note_on_c, 0, 64, 0
4, 48767, Note_on_c, 0, 61, 0
4, 48767, Note_on_c, 0, 55, 0
4, 48960, Note_on_c, 0, 45, 49
4, 49007, Note_on_c, 0, 45, 0
4, 49200, Note_on_c, 0, 57, 49
4, 49200, Note_on_c, 0, 62, 49
4, 49200, Note_on_c, 0, 66, 49
4, 49247, Note_on_c, 0, 66, 0
4, 49247, Note_on_c, 0, 62, 0
4, 49247, Note_on_c, 0, 57, 0
4, 49440, Note_on_c, 0, 57, 49
4, 49440, Note_on_c, 0, 62, 49
4, 49440, Note_on_c, 0, 66, 49
4, 49487, Note_on_c, 0, 66, 0
4, 49487, Note_on_c, 0, 62, 0
4, 49487, Note_on_c, 0, 57, 0
4, 49680, Note_on_c, 0, 45, 49
4, 49727, Note_on_c, 0, 45, 0
4, 49920, Note_on_c, 0, 57, 49
4, 49920, Note_on_c, 0, 61, 49
4, 49920, Note_on_c, 0, 64, 49
4, 49967, Note_on_c, 0, 64, 0
4, 49967, Note_on_c, 0, 61, 0
4, 49967, Note_on_c, 0, 57, 0
4, 50160, Note_on_c, 0, 57, 49
4, 50160, Note_on_c, 0, 61, 49
4, 50160, Note_on_c, 0, 64, 49
4, 50207, Note_on_c, 0, 64, 0
4, 50207, Note_on_c, 0, 61, 0
4, 50207, Note_on_c, 0, 57, 0
4, 50400, Note_on_c, 0, 45, 49
4, 50447, Note_on_c, 0, 45, 0
4, 50640, Note_on_c, 0, 55, 49
4, 50640, Note_on_c, 0, 61, 49
4, 50640, Note_on_c, 0, 64, 49
4, 50687, Note_on_c, 0, 64, 0
4, 50687, Note_on_c, 0, 61, 0
4, 50687, Note_on_c, 0, 55, 0
4, 50880, Note_on_c, 0, 55, 49
4, 50880, Note_on_c, 0, 61, 49
4, 50880, Note_on_c, 0, 64, 49
4, 50927, Note_on_c, 0, 64, 0
4, 50927, Note_on_c, 0, 61, 0
4, 50927, Note_on_c, 0, 55, 0
4, 51120, Note_on_c, 0, 45, 49
4, 51167, Note_on_c, 0, 45, 0
4, 51360, Note_on_c, 0, 55, 49
4, 51360, Note_on_c, 0, 61, 49
4, 51360, Note_on_c, 0, 64, 49
4, 51407, Note_on_c, 0, 64, 0
4, 51407, Note_on_c, 0, 61, 0
4, 51407, Note_on_c, 0, 55, 0
4, 51600, Note_on_c, 0, 55, 49
4, 51600, Note_on_c, 0, 61, 49
4, 51600, Note_on_c, 0, 64, 49
4, 51647, Note_on_c, 0, 64, 0
4, 51647, Note_on_c, 0, 61, 0
4, 51647, Note_on_c, 0, 55, 0
4, 51840, Note_on_c, 0, 50, 49
4, 51960, Note_on_c, 0, 50, 0
4, 51960, Note_on_c, 0, 57, 49
4, 51960, Note_on_c, 0, 62, 49
4, 51960, Note_on_c, 0, 66, 49
4, 52080, Note_on_c, 0, 66, 0
4, 52080, Note_on_c, 0, 62, 0
4, 52080, Note_on_c, 0, 57, 0
4, 52080, Note_on_c, 0, 62, 49
4, 52080, Note_on_c, 0, 66, 49
4, 52080, Note_on_c, 0, 69, 49
4, 52200, Note_on_c, 0, 69, 0
4, 52200, Note_on_c, 0, 66, 0
4, 52200, Note_on_c, 0, 62, 0
4, 52200, Note_on_c, 0, 62, 49
4, 52200, Note_on_c, 0, 66, 49
4, 52320, Note_on_c, 0, 66, 0
4, 52320, Note_on_c, 0, 62, 0
4, 52320, Note_on_c, 0, 52, 49
4, 52320, Note_on_c, 0, 59, 49
4, 52320, Note_on_c, 0, 62, 49
4, 52440, Note_on_c, 0, 62, 0
4, 52440, Note_on_c, 0, 59, 0
4, 52440, Note_on_c, 0, 52, 0
4, 52440, Note_on_c, 0, 62, 49
4, 52440, Note_on_c, 0, 64, 49
4, 52440, Note_on_c, 0, 68, 49
4, 52560, Note_on_c, 0, 68, 0
4, 52560, Note_on_c, 0, 64, 0
4, 52560, Note_on_c, 0, 62, 0
4, 52560, Note_on_c, 0, 57, 49
4, 52560, Note_on_c, 0, 61, 49
4, 52560, Note_on_c, 0, 64, 49
4, 52560, Note_on_c, 0, 69, 49
4, 52800, Note_on_c, 0, 69, 0
4, 52800, Note_on_c, 0, 57, 0
4, 52800, Note_on_c, 0, 61, 0
4, 52800, Note_on_c, 0, 64, 0
4, 53280, Note_on_c, 0, 55, 62
4, 53280, Note_on_c, 0, 57, 62
4, 53280, Note_on_c, 0, 61, 62
4, 53280, Note_on_c, 0, 64, 62
4, 53520, Note_on_c, 0, 64, 0
4, 53520, Note_on_c, 0, 55, 0
4, 53520, Note_on_c, 0, 57, 0
4, 53520, Note_on_c, 0, 61, 0
4, 53520, Note_on_c, 0, 55, 62
4, 53520, Note_on_c, 0, 57, 62
4, 53520, Note_on_c, 0, 61, 62
4, 53520, Note_on_c, 0, 64, 62
4, 53880, Note_on_c, 0, 64, 0
4, 53880, Note_on_c, 0, 55, 0
4, 53880, Note_on_c, 0, 57, 0
4, 53880, Note_on_c, 0, 61, 0
4, 53880, Note_on_c, 0, 54, 62
4, 53880, Note_on_c, 0, 57, 62
4, 53880, Note_on_c, 0, 62, 62
4, 54000, Note_on_c, 0, 62, 0
4, 54000, Note_on_c, 0, 57, 0
4, 54000, Note_on_c, 0, 54, 0
4, 54000, Note_on_c, 0, 54, 75
4, 54000, Note_on_c, 0, 57, 75
4, 54000, Note_on_c, 0, 62, 75
4, 54120, Note_on_c, 0, 62, 0
4, 54120, Note_on_c, 0, 57, 0
4, 54120, Note_on_c, 0, 54, 0
4, 54120, Note_on_c, 0, 54, 75
4, 54120, Note_on_c, 0, 57, 75
4, 54120, Note_on_c, 0, 62, 75
4, 54240, Note_on_c, 0, 62, 0
4, 54240, Note_on_c, 0, 57, 0
4, 54240, Note_on_c, 0, 54, 0
4, 54240, Note_on_c, 0, 53, 75
4, 54240, Note_on_c, 0, 59, 75
4, 54240, Note_on_c, 0, 62, 75
4, 54360, Note_on_c, 0, 62, 0
4, 54360, Note_on_c, 0, 59, 0
4, 54360, Note_on_c, 0, 53, 0
4, 54360, Note_on_c, 0, 53, 75
4, 54360, Note_on_c, 0, 59, 75
4, 54360, Note_on_c, 0, 62, 75
4, 54480, Note_on_c, 0, 62, 0
4, 54480, Note_on_c, 0, 59, 0
4, 54480, Note_on_c, 0, 53, 0
4, 54480, Note_on_c, 0, 52, 75
4, 54480, Note_on_c, 0, 57, 75
4, 54480, Note_on_c, 0, 61, 75
4, 54720, Note_on_c, 0, 61, 0
4, 54720, Note_on_c, 0, 57, 0
4, 54720, Note_on_c, 0, 52, 0
4, 54720, Note_on_c, 0, 52, 75
4, 54720, Note_on_c, 0, 57, 75
4, 54720, Note_on_c, 0, 61, 75
4, 54960, Note_on_c, 0, 61, 0
4, 54960, Note_on_c, 0, 57, 0
4, 54960, Note_on_c, 0, 52, 0
4, 54960, Note_on_c, 0, 52, 75
4, 54960, Note_on_c, 0, 57, 75
4, 54960, Note_on_c, 0, 61, 75
4, 55320, Note_on_c, 0, 61, 0
4, 55320, Note_on_c, 0, 57, 0
4, 55320, Note_on_c, 0, 52, 0
4, 55320, Note_on_c, 0, 51, 75
4, 55320, Note_on_c, 0, 57, 75
4, 55320, Note_on_c, 0, 60, 75
4, 55440, Note_on_c, 0, 60, 0
4, 55440, Note_on_c, 0, 57, 0
4, 55440, Note_on_c, 0, 51, 0
4, 55440, Note_on_c, 0, 51, 75
4, 55440, Note_on_c, 0, 57, 75
4, 55440, Note_on_c, 0, 60, 75
4, 55680, Note_on_c, 0, 60, 0
4, 55680, Note_on_c, 0, 57, 0
4, 55680, Note_on_c, 0, 51, 0
4, 55680, Note_on_c, 0, 54, 75
4, 55680, Note_on_c, 0, 60, 75
4, 55680, Note_on_c, 0, 63, 75
4, 56040, Note_on_c, 0, 63, 0
4, 56040, Note_on_c, 0, 60, 0
4, 56040, Note_on_c, 0, 54, 0
4, 56040, Note_on_c, 0, 52, 75
4, 56040, Note_on_c, 0, 57, 75
4, 56040, Note_on_c, 0, 61, 75
4, 56160, Note_on_c, 0, 61, 0
4, 56160, Note_on_c, 0, 57, 0
4, 56160, Note_on_c, 0, 52, 0
4, 56160, Note_on_c, 0, 52, 75
4, 56160, Note_on_c, 0, 57, 75
4, 56160, Note_on_c, 0, 61, 75
4, 56400, Note_on_c, 0, 61, 0
4, 56400, Note_on_c, 0, 57, 0
4, 56400, Note_on_c, 0, 52, 0
4, 56400, Note_on_c, 0, 55, 75
4, 56400, Note_on_c, 0, 61, 75
4, 56400, Note_on_c, 0, 64, 75
4, 56760, Note_on_c, 0, 64, 0
4, 56760, Note_on_c, 0, 61, 0
4, 56760, Note_on_c, 0, 55, 0
4, 56760, Note_on_c, 0, 54, 75
4, 56760, Note_on_c, 0, 57, 75
4, 56760, Note_on_c, 0, 62, 75
4, 56880, Note_on_c, 0, 62, 0
4, 56880, Note_on_c, 0, 57, 0
4, 56880, Note_on_c, 0, 54, 0
4, 56880, Note_on_c, 0, 54, 75
4, 56880, Note_on_c, 0, 57, 75
4, 56880, Note_on_c, 0, 62, 75
4, 57120, Note_on_c, 0, 62, 0
4, 57120, Note_on_c, 0, 57, 0
4, 57120, Note_on_c, 0, 54, 0
4, 57120, Note_on_c, 0, 57, 75
4, 57120, Note_on_c, 0, 62, 75
4, 57120, Note_on_c, 0, 66, 75
4, 57480, Note_on_c, 0, 66, 0
4, 57480, Note_on_c, 0, 62, 0
4, 57480, Note_on_c, 0, 57, 0
4, 57480, Note_on_c, 0, 55, 75
4, 57480, Note_on_c, 0, 62, 75
4, 57480, Note_on_c, 0, 67, 75
4, 57600, Note_on_c, 0, 67, 0
4, 57600, Note_on_c, 0, 62, 0
4, 57600, Note_on_c, 0, 55, 0
4, 57600, Note_on_c, 0, 55, 88
4, 57600, Note_on_c, 0, 62, 88
4, 57600, Note_on_c, 0, 67, 88
4, 57720, Note_on_c, 0, 67, 0
4, 57720, Note_on_c, 0, 62, 0
4, 57720, Note_on_c, 0, 55, 0
4, 57720, Note_on_c, 0, 55, 88
4, 57720, Note_on_c, 0, 59, 88
4, 57720, Note_on_c, 0, 62, 88
4, 57840, Note_on_c, 0, 62, 0
4, 57840, Note_on_c, 0, 59, 0
4, 57840, Note_on_c, 0, 55, 0
4, 57840, Note_on_c, 0, 55, 75
4, 57840, Note_on_c, 0, 59, 75
4, 57840, Note_on_c, 0, 62, 75
4, 57960, Note_on_c, 0, 62, 0
4, 57960, Note_on_c, 0, 59, 0
4, 57960, Note_on_c, 0, 55, 0
4, 57960, Note_on_c, 0, 55, 75
4, 57960, Note_on_c, 0, 59, 75
4, 57960, Note_on_c, 0, 62, 75
4, 58080, Note_on_c, 0, 62, 0
4, 58080, Note_on_c, 0, 59, 0
4, 58080, Note_on_c, 0, 55, 0
4, 58080, Note_on_c, 0, 55, 62
4, 58080, Note_on_c, 0, 59, 62
4, 58080, Note_on_c, 0, 62, 62
4, 58200, Note_on_c, 0, 62, 0
4, 58200, Note_on_c, 0, 59, 0
4, 58200, Note_on_c, 0, 55, 0
4, 58200, Note_on_c, 0, 55, 62
4, 58200, Note_on_c, 0, 59, 62
4, 58200, Note_on_c, 0, 62, 62
4, 58320, Note_on_c, 0, 62, 0
4, 58320, Note_on_c, 0, 59, 0
4, 58320, Note_on_c, 0, 55, 0
4, 58320, Note_on_c, 0, 55, 49
4, 58320, Note_on_c, 0, 59, 49
4, 58320, Note_on_c, 0, 62, 49
4, 58560, Note_on_c, 0, 62, 0
4, 58560, Note_on_c, 0, 59, 0
4, 58560, Note_on_c, 0, 55, 0
4, 59040, Note_on_c, 0, 52, 62
4, 59040, Note_on_c, 0, 55, 62
4, 59040, Note_on_c, 0, 59, 62
4, 59160, Note_on_c, 0, 59, 0
4, 59160, Note_on_c, 0, 55, 0
4, 59160, Note_on_c, 0, 52, 0
4, 59160, Note_on_c, 0, 52, 62
4, 59160, Note_on_c, 0, 55, 62
4, 59160, Note_on_c, 0, 59, 62
4, 59280, Note_on_c, 0, 59, 0
4, 59280, Note_on_c, 0, 55, 0
4, 59280, Note_on_c, 0, 52, 0
4, 59280, Note_on_c, 0, 52, 62
4, 59280, Note_on_c, 0, 55, 62
4, 59280, Note_on_c, 0, 59, 62
4, 59400, Note_on_c, 0, 59, 0
4, 59400, Note_on_c, 0, 55, 0
4, 59400, Note_on_c, 0, 52, 0
4, 59400, Note_on_c, 0, 52, 49
4, 59400, Note_on_c, 0, 55, 49
4, 59400, Note_on_c, 0, 59, 49
4, 59520, Note_on_c, 0, 59, 0
4, 59520, Note_on_c, 0, 55, 0
4, 59520, Note_on_c, 0, 52, 0
4, 59520, Note_on_c, 0, 52, 49
4, 59520, Note_on_c, 0, 55, 49
4, 59520, Note_on_c, 0, 59, 49
4, 59640, Note_on_c, 0, 59, 0
4, 59640, Note_on_c, 0, 55, 0
4, 59640, Note_on_c, 0, 52, 0
4, 59640, Note_on_c, 0, 52, 49
4, 59640, Note_on_c, 0, 55, 49
4, 59640, Note_on_c, 0, 59, 49
4, 59760, Note_on_c, 0, 59, 0
4, 59760, Note_on_c, 0, 55, 0
4, 59760, Note_on_c, 0, 52, 0
4, 59760, Note_on_c, 0, 52, 49
4, 59760, Note_on_c, 0, 55, 49
4, 59760, Note_on_c, 0, 59, 49
4, 60000, Note_on_c, 0, 59, 0
4, 60000, Note_on_c, 0, 55, 0
4, 60000, Note_on_c, 0, 52, 0
4, 60480, Control_c, 0, 64, 127
4, 60480, Note_on_c, 0, 57, 75
4, 60480, Note_on_c, 0, 61, 75
4, 60480, Note_on_c, 0, 64, 75
4, 61920, Note_on_c, 0, 64, 0
4, 61920, Note_on_c, 0, 61, 0
4, 61920, Note_on_c, 0, 57, 0
4, 63840, Control_c, 0, 64, 0
4, 65760, Control_c, 0, 64, 127
4, 65760, Note_on_c, 0, 38, 101
4, 65820, Note_on_c, 0, 38, 0
4, 65820, Note_on_c, 0, 50, 75
4, 65880, Note_on_c, 0, 50, 0
4, 65880, Note_on_c, 0, 38, 75
4, 65940, Note_on_c, 0, 38, 0
4, 65940, Note_on_c, 0, 50, 75
4, 66000, Note_on_c, 0, 50, 0
4, 66000, Note_on_c, 0, 38, 75
4, 66060, Note_on_c, 0, 38, 0
4, 66060, Note_on_c, 0, 50, 75
4, 66120, Note_on_c, 0, 50, 0
4, 66120, Note_on_c, 0, 38, 75
4, 66180, Note_on_c, 0, 38, 0
4, 66180, Note_on_c, 0, 50, 75
4, 66240, Note_on_c, 0, 50, 0
4, 66240, Note_on_c, 0, 38, 75
4, 66300, Note_on_c, 0, 38, 0
4, 66300, Note_on_c, 0, 50, 75
4, 66360, Note_on_c, 0, 50, 0
4, 66360, Note_on_c, 0, 38, 75
4, 66420, Note_on_c, 0, 38, 0
4, 66420, Note_on_c, 0, 50, 75
4, 66480, Note_on_c, 0, 50, 0
4, 66480, Note_on_c, 0, 38, 75
4, 66540, Note_on_c, 0, 38, 0
4, 66540, Note_on_c, 0, 50, 75
4, 66600, Note_on_c, 0, 50, 0
4, 66600, Note_on_c, 0, 38, 75
4, 66660, Note_on_c, 0, 38, 0
4, 66660, Note_on_c, 0, 50, 75
4, 66720, Note_on_c, 0, 50, 0
4, 66720, Note_on_c, 0, 38, 75
4, 66780, Note_on_c, 0, 38, 0
4, 66780, Note_on_c, 0, 50, 75
4, 66840, Note_on_c, 0, 50, 0
4, 66840, Note_on_c, 0, 38, 75
4, 66900, Note_on_c, 0, 38, 0
4, 66900, Note_on_c, 0, 50, 75
4, 66960, Note_on_c, 0, 50, 0
4, 66960, Note_on_c, 0, 38, 75
4, 67020, Note_on_c, 0, 38, 0
4, 67020, Note_on_c, 0, 50, 75
4, 67080, Note_on_c, 0, 50, 0
4, 67080, Note_on_c, 0, 38, 75
4, 67140, Note_on_c, 0, 38, 0
4, 67140, Note_on_c, 0, 50, 75
4, 67200, Note_on_c, 0, 50, 0
4, 67200, Note_on_c, 0, 38, 75
4, 67260, Note_on_c, 0, 38, 0
4, 67260, Note_on_c, 0, 50, 75
4, 67320, Note_on_c, 0, 50, 0
4, 67320, Note_on_c, 0, 38, 75
4, 67380, Note_on_c, 0, 38, 0
4, 67380, Note_on_c, 0, 50, 75
4, 67440, Note_on_c, 0, 50, 0
4, 67440, Note_on_c, 0, 38, 75
4, 67500, Note_on_c, 0, 38, 0
4, 67500, Note_on_c, 0, 50, 75
4, 67560, Note_on_c, 0, 50, 0
4, 67560, Note_on_c, 0, 38, 75
4, 67620, Note_on_c, 0, 38, 0
4, 67620, Note_on_c, 0, 50, 75
4, 67680, Note_on_c, 0, 50, 0
4, 67680, Note_on_c, 0, 38, 75
4, 67740, Note_on_c, 0, 38, 0
4, 67740, Note_on_c, 0, 50, 75
4, 67800, Note_on_c, 0, 50, 0
4, 67800, Control_c, 0, 64, 0
4, 67800, Note_on_c, 0, 38, 75
4, 67860, Note_on_c, 0, 38, 0
4, 67860, Note_on_c, 0, 50, 75
4, 67920, Note_on_c, 0, 50, 0
4, 67920, Note_on_c, 0, 52, 75
4, 67920, Note_on_c, 0, 57, 75
4, 67920, Note_on_c, 0, 62, 75
4, 68160, Note_on_c, 0, 62, 0
4, 68160, Note_on_c, 0, 57, 0
4, 68160, Note_on_c, 0, 52, 0
4, 68160, Note_on_c, 0, 50, 75
4, 68160, Note_on_c, 0, 57, 75
4, 68160, Note_on_c, 0, 62, 75
4, 68400, Note_on_c, 0, 62, 0
4, 68400, Note_on_c, 0, 57, 0
4, 68400, Note_on_c, 0, 50, 0
4, 68400, Note_on_c, 0, 52, 75
4, 68400, Note_on_c, 0, 57, 75
4, 68400, Note_on_c, 0, 62, 75
4, 68640, Note_on_c, 0, 62, 0
4, 68640, Note_on_c, 0, 57, 0
4, 68640, Note_on_c, 0, 52, 0
4, 68640, Control_c, 0, 64, 127
4, 68640, Note_on_c, 0, 54, 75
4, 68640, Note_on_c, 0, 57, 75
4, 68700, Note_on_c, 0, 57, 0
4, 68700, Note_on_c, 0, 54, 0
4, 68700, Note_on_c, 0, 62, 75
4, 68760, Note_on_c, 0, 62, 0
4, 68760, Note_on_c, 0, 54, 75
4, 68760, Note_on_c, 0, 57, 75
4, 68820, Note_on_c, 0, 57, 0
4, 68820, Note_on_c, 0, 54, 0
4, 68820, Note_on_c, 0, 62, 75
4, 68880, Note_on_c, 0, 62, 0
4, 68880, Note_on_c, 0, 54, 75
4, 68880, Note_on_c, 0, 57, 75
4, 68940, Note_on_c, 0, 57, 0
4, 68940, Note_on_c, 0, 54, 0
4, 68940, Note_on_c, 0, 62, 75
4, 69000, Note_on_c, 0, 62, 0
4, 69000, Note_on_c, 0, 54, 75
4, 69000, Note_on_c, 0, 57, 75
4, 69060, Note_on_c, 0, 57, 0
4, 69060, Note_on_c, 0, 54, 0
4, 69060, Note_on_c, 0, 62, 75
4, 69120, Note_on_c, 0, 62, 0
4, 69120, Note_on_c, 0, 54, 75
4, 69120, Note_on_c, 0, 57, 75
4, 69180, Note_on_c, 0, 57, 0
4, 69180, Note_on_c, 0, 54, 0
4, 69180, Note_on_c, 0, 62, 75
4, 69240, Note_on_c, 0, 62, 0
4, 69240, Note_on_c, 0, 54, 75
4, 69240, Note_on_c, 0, 57, 75
4, 69300, Note_on_c, 0, 57, 0
4, 69300, Note_on_c, 0, 54, 0
4, 69300, Control_c, 0, 64, 0
4, 69300, Note_on_c, 0, 62, 75
4, 69360, Note_on_c, 0, 62, 0
4, 69360, Control_c, 0, 64, 127
4, 69360, Note_on_c, 0, 53, 75
4, 69360, Note_on_c, 0, 57, 75
4, 69360, Note_on_c, 0, 59, 75
4, 69420, Note_on_c, 0, 59, 0
4, 69420, Note_on_c, 0, 57, 0
4, 69420, Note_on_c, 0, 53, 0
4, 69420, Note_on_c, 0, 61, 75
4, 69480, Note_on_c, 0, 61, 0
4, 69480, Note_on_c, 0, 53, 75
4, 69480, Note_on_c, 0, 57, 75
4, 69480, Note_on_c, 0, 59, 75
4, 69540, Note_on_c, 0, 59, 0
4, 69540, Note_on_c, 0, 57, 0
4, 69540, Note_on_c, 0, 53, 0
4, 69540, Note_on_c, 0, 61, 75
4, 69600, Note_on_c, 0, 61, 0
4, 69600, Note_on_c, 0, 53, 75
4, 69600, Note_on_c, 0, 57, 75
4, 69600, Note_on_c, 0, 59, 75
4, 69660, Note_on_c, 0, 59, 0
4, 69660, Note_on_c, 0, 57, 0
4, 69660, Note_on_c, 0, 53, 0
4, 69660, Note_on_c, 0, 61, 75
4, 69720, Note_on_c, 0, 61, 0
4, 69720, Note_on_c, 0, 53, 75
4, 69720, Note_on_c, 0, 57, 75
4, 69720, Note_on_c, 0, 59, 75
4, 69780, Note_on_c, 0, 59, 0
4, 69780, Note_on_c, 0, 57, 0
4, 69780, Note_on_c, 0, 53, 0
4, 69780, Note_on_c, 0, 61, 75
4, 69840, Note_on_c, 0, 61, 0
4, 69840, Note_on_c, 0, 53, 75
4, 69840, Note_on_c, 0, 57, 75
4, 69840, Note_on_c, 0, 59, 75
4, 69900, Note_on_c, 0, 59, 0
4, 69900, Note_on_c, 0, 57, 0
4, 69900, Note_on_c, 0, 53, 0
4, 69900, Note_on_c, 0, 61, 75
4, 69960, Note_on_c, 0, 61, 0
4, 69960, Control_c, 0, 64, 0
4, 69960, Note_on_c, 0, 53, 75
4, 69960, Note_on_c, 0, 57, 75
4, 69960, Note_on_c, 0, 59, 75
4, 70020, Note_on_c, 0, 59, 0
4, 70020, Note_on_c, 0, 57, 0
4, 70020, Note_on_c, 0, 53, 0
4, 70020, Note_on_c, 0, 61, 75
4, 70080, Note_on_c, 0, 61, 0
4, 70080, Control_c, 0, 64, 127
4, 70080, Note_on_c, 0, 52, 75
4, 70080, Note_on_c, 0, 55, 75
4, 70080, Note_on_c, 0, 57, 75
4, 70140, Note_on_c, 0, 57, 0
4, 70140, Note_on_c, 0, 55, 0
4, 70140, Note_on_c, 0, 52, 0
4, 70140, Note_on_c, 0, 61, 75
4, 70200, Note_on_c, 0, 61, 0
4, 70200, Note_on_c, 0, 52, 75
4, 70200, Note_on_c, 0, 55, 75
4, 70200, Note_on_c, 0, 57, 75
4, 70260, Note_on_c, 0, 57, 0
4, 70260, Note_on_c, 0, 55, 0
4, 70260, Note_on_c, 0, 52, 0
4, 70260, Note_on_c, 0, 61, 75
4, 70320, Note_on_c, 0, 61, 0
4, 70320, Note_on_c, 0, 52, 75
4, 70320, Note_on_c, 0, 55, 75
4, 70320, Note_on_c, 0, 57, 75
4, 70380, Note_on_c, 0, 57, 0
4, 70380, Note_on_c, 0, 55, 0
4, 70380, Note_on_c, 0, 52, 0
4, 70380, Note_on_c, 0, 61, 75
4, 70440, Note_on_c, 0, 61, 0
4, 70440, Note_on_c, 0, 52, 75
4, 70440, Note_on_c, 0, 55, 75
4, 70440, Note_on_c, 0, 57, 75
4, 70500, Note_on_c, 0, 57, 0
4, 70500, Note_on_c, 0, 55, 0
4, 70500, Note_on_c, 0, 52, 0
4, 70500, Note_on_c, 0, 61, 75
4, 70560, Note_on_c, 0, 61, 0
4, 70560, Note_on_c, 0, 52, 75
4, 70560, Note_on_c, 0, 55, 75
4, 70560, Note_on_c, 0, 57, 75
4, 70620, Note_on_c, 0, 57, 0
4, 70620, Note_on_c, 0, 55, 0
4, 70620, Note_on_c, 0, 52, 0
4, 70620, Note_on_c, 0, 61, 75
4, 70680, Note_on_c, 0, 61, 0
4, 70680, Note_on_c, 0, 52, 75
4, 70680, Note_on_c, 0, 55, 75
4, 70680, Note_on_c, 0, 57, 75
4, 70740, Note_on_c, 0, 57, 0
4, 70740, Note_on_c, 0, 55, 0
4, 70740, Note_on_c, 0, 52, 0
4, 70740, Control_c, 0, 64, 0
4, 70740, Note_on_c, 0, 61, 75
4, 70800, Note_on_c, 0, 61, 0
4, 70800, Control_c, 0, 64, 127
4, 70800, Note_on_c, 0, 50, 75
4, 70800, Note_on_c, 0, 54, 75
4, 70800, Note_on_c, 0, 57, 75
4, 70860, Note_on_c, 0, 57, 0
4, 70860, Note_on_c, 0, 54, 0
4, 70860, Note_on_c, 0, 50, 0
4, 70860, Note_on_c, 0, 62, 75
4, 70920, Note_on_c, 0, 62, 0
4, 70920, Note_on_c, 0, 50, 75
4, 70920, Note_on_c, 0, 54, 75
4, 70920, Note_on_c, 0, 57, 75
4, 70980, Note_on_c, 0, 57, 0
4, 70980, Note_on_c, 0, 54, 0
4, 70980, Note_on_c, 0, 50, 0
4, 70980, Note_on_c, 0, 62, 75
4, 71040, Note_on_c, 0, 62, 0
4, 71040, Note_on_c, 0, 50, 75
4, 71040, Note_on_c, 0, 54, 75
4, 71040, Note_on_c, 0, 57, 75
4, 71100, Note_on_c, 0, 57, 0
4, 71100, Note_on_c, 0, 54, 0
4, 71100, Note_on_c, 0, 50, 0
4, 71100, Note_on_c, 0, 62, 75
4, 71160, Note_on_c, 0, 62, 0
4, 71160, Note_on_c, 0, 50, 75
4, 71160, Note_on_c, 0, 54, 75
4, 71160, Note_on_c, 0, 57, 75
4, 71220, Note_on_c, 0, 57, 0
4, 71220, Note_on_c, 0, 54, 0
4, 71220, Note_on_c, 0, 50, 0
4, 71220, Note_on_c, 0, 62, 75
4, 71280, Note_on_c, 0, 62, 0
4, 71280, Note_on_c, 0, 50, 75
4, 71280, Note_on_c, 0, 54, 75
4, 71280, Note_on_c, 0, 57, 75
4, 71340, Note_on_c, 0, 57, 0
4, 71340, Note_on_c, 0, 54, 0
4, 71340, Note_on_c, 0, 50, 0
4, 71340, Note_on_c, 0, 62, 75
4, 71400, Note_on_c, 0, 62, 0
4, 71400, Note_on_c, 0, 50, 75
4, 71400, Note_on_c, 0, 54, 75
4, 71400, Note_on_c, 0, 57, 75
4, 71460, Note_on_c, 0, 57, 0
4, 71460, Note_on_c, 0, 54, 0
4, 71460, Note_on_c, 0, 50, 0
4, 71460, Control_c, 0, 64, 0
4, 71460, Note_on_c, 0, 62, 75
4, 71520, Note_on_c, 0, 62, 0
4, 71520, Control_c, 0, 64, 127
4, 71520, Note_on_c, 0, 49, 75
4, 71520, Note_on_c, 0, 52, 75
4, 71580, Note_on_c, 0, 52, 0
4, 71580, Note_on_c, 0, 49, 0
4, 71580, Note_on_c, 0, 57, 75
4, 71640, Note_on_c, 0, 57, 0
4, 71640, Note_on_c, 0, 49, 75
4, 71640, Note_on_c, 0, 52, 75
4, 71700, Note_on_c, 0, 52, 0
4, 71700, Note_on_c, 0, 49, 0
4, 71700, Note_on_c, 0, 57, 75
4, 71760, Note_on_c, 0, 57, 0
4, 71760, Note_on_c, 0, 49, 75
4, 71760, Note_on_c, 0, 52, 75
4, 71820, Note_on_c, 0, 52, 0
4, 71820, Note_on_c, 0, 49, 0
4, 71820, Note_on_c, 0, 57, 75
4, 71880, Note_on_c, 0, 57, 0
4, 71880, Note_on_c, 0, 49, 75
4, 71880, Note_on_c, 0, 52, 75
4, 71940, Note_on_c, 0, 52, 0
4, 71940, Note_on_c, 0, 49, 0
4, 71940, Note_on_c, 0, 57, 75
4, 72000, Note_on_c, 0, 57, 0
4, 72000, Note_on_c, 0, 49, 75
4, 72000, Note_on_c, 0, 52, 75
4, 72060, Note_on_c, 0, 52, 0
4, 72060, Note_on_c, 0, 49, 0
4, 72060, Note_on_c, 0, 57, 75
4, 72120, Note_on_c, 0, 57, 0
4, 72120, Note_on_c, 0, 49, 75
4, 72120, Note_on_c, 0, 52, 75
4, 72180, Note_on_c, 0, 52, 0
4, 72180, Note_on_c, 0, 49, 0
4, 72180, Control_c, 0, 64, 0
4, 72180, Note_on_c, 0, 57, 88
4, 72240, Note_on_c, 0, 57, 0
4, 72240, Note_on_c, 0, 54, 114
4, 72480, Note_on_c, 0, 54, 0
4, 72480, Note_on_c, 0, 55, 127
4, 72720, Note_on_c, 0, 55, 0
4, 72720, Note_on_c, 0, 57, 114
4, 72960, Note_on_c, 0, 57, 0
4, 72960, Note_on_c, 0, 52, 114
4, 73200, Note_on_c, 0, 52, 0
4, 73200, Note_on_c, 0, 54, 114
4, 73440, Note_on_c, 0, 54, 0
4, 73440, Note_on_c, 0, 55, 114
4, 73680, Note_on_c, 0, 55, 0
4, 73680, Note_on_c, 0, 57, 114
4, 73920, Note_on_c, 0, 57, 0
4, 73920, Note_on_c, 0, 55, 114
4, 74160, Note_on_c, 0, 55, 0
4, 74160, Note_on_c, 0, 54, 114
4, 74400, Note_on_c, 0, 54, 0
4, 74400, Control_c, 0, 64, 127
4, 74400, Note_on_c, 0, 43, 101
4, 74400, Note_on_c, 0, 46, 101
4, 74460, Note_on_c, 0, 46, 0
4, 74460, Note_on_c, 0, 43, 0
4, 74460, Note_on_c, 0, 51, 75
4, 74520, Note_on_c, 0, 51, 0
4, 74520, Note_on_c, 0, 43, 75
4, 74520, Note_on_c, 0, 46, 75
4, 74580, Note_on_c, 0, 46, 0
4, 74580, Note_on_c, 0, 43, 0
4, 74580, Note_on_c, 0, 51, 75
4, 74640, Note_on_c, 0, 51, 0
4, 74640, Note_on_c, 0, 43, 75
4, 74640, Note_on_c, 0, 46, 75
4, 74700, Note_on_c, 0, 46, 0
4, 74700, Note_on_c, 0, 43, 0
4, 74700, Note_on_c, 0, 51, 75
4, 74760, Note_on_c, 0, 51, 0
4, 74760, Note_on_c, 0, 43, 75
4, 74760, Note_on_c, 0, 46, 75
4, 74820, Note_on_c, 0, 46, 0
4, 74820, Note_on_c, 0, 43, 0
4, 74820, Note_on_c, 0, 51, 75
4, 74880, Note_on_c, 0, 51, 0
4, 74880, Note_on_c, 0, 43, 75
4, 74880, Note_on_c, 0, 46, 75
4, 74940, Note_on_c, 0, 46, 0
4, 74940, Note_on_c, 0, 43, 0
4, 74940, Note_on_c, 0, 51, 75
4, 75000, Note_on_c, 0, 51, 0
4, 75000, Note_on_c, 0, 43, 75
4, 75000, Note_on_c, 0, 46, 75
4, 75060, Note_on_c, 0, 46, 0
4, 75060, Note_on_c, 0, 43, 0
4, 75060, Note_on_c, 0, 51, 75
4, 75120, Note_on_c, 0, 51, 0
4, 75120, Note_on_c, 0, 63, 114
4, 75360, Note_on_c, 0, 63, 0
4, 75360, Note_on_c, 0, 67, 114
4, 75600, Note_on_c, 0, 67, 0
4, 75600, Note_on_c, 0, 70, 114
4, 75840, Note_on_c, 0, 70, 0
4, 76080, Note_on_c, 0, 43, 75
4, 76080, Note_on_c, 0, 46, 75
4, 76140, Note_on_c, 0, 46, 0
4, 76140, Note_on_c, 0, 43, 0
4, 76140, Note_on_c, 0, 51, 75
4, 76200, Note_on_c, 0, 51, 0
4, 76200, Note_on_c, 0, 43, 75
4, 76200, Note_on_c, 0, 46, 75
4, 76260, Note_on_c, 0, 46, 0
4, 76260, Note_on_c, 0, 43, 0
4, 76260, Note_on_c, 0, 51, 75
4, 76320, Note_on_c, 0, 51, 0
4, 76320, Note_on_c, 0, 43, 75
4, 76320, Note_on_c, 0, 46, 75
4, 76380, Note_on_c, 0, 46, 0
4, 76380, Note_on_c, 0, 43, 0
4, 76380, Note_on_c, 0, 51, 75
4, 76440, Note_on_c, 0, 51, 0
4, 76440, Note_on_c, 0, 43, 75
4, 76440, Note_on_c, 0, 46, 75
4, 76500, Note_on_c, 0, 46, 0
4, 76500, Note_on_c, 0, 43, 0
4, 76500, Control_c, 0, 64, 0
4, 76500, Note_on_c, 0, 51, 75
4, 76560, Note_on_c, 0, 51, 0
4, 76560, Control_c, 0, 64, 127
4, 76560, Note_on_c, 0, 45, 75
4, 76560, Note_on_c, 0, 52, 75
4, 76620, Note_on_c, 0, 52, 0
4, 76620, Note_on_c, 0, 45, 0
4, 76620, Note_on_c, 0, 55, 75
4, 76680, Note_on_c, 0, 55, 0
4, 76680, Note_on_c, 0, 45, 75
4, 76680, Note_on_c, 0, 52, 75
4, 76740, Note_on_c, 0, 52, 0
4, 76740, Note_on_c, 0, 45, 0
4, 76740, Note_on_c, 0, 55, 75
4, 76800, Note_on_c, 0, 55, 0
4, 76800, Note_on_c, 0, 45, 75
4, 76800, Note_on_c, 0, 52, 75
4, 76860, Note_on_c, 0, 52, 0
4, 76860, Note_on_c, 0, 45, 0
4, 76860, Note_on_c, 0, 55, 75
4, 76920, Note_on_c, 0, 55, 0
4, 76920, Note_on_c, 0, 45, 75
4, 76920, Note_on_c, 0, 52, 75
4, 76980, Note_on_c, 0, 52, 0
4, 76980, Note_on_c, 0, 45, 0
4, 76980, Note_on_c, 0, 55, 75
4, 77040, Note_on_c, 0, 55, 0
4, 77040, Note_on_c, 0, 45, 75
4, 77040, Note_on_c, 0, 52, 75
4, 77100, Note_on_c, 0, 52, 0
4, 77100, Note_on_c, 0, 45, 0
4, 77100, Note_on_c, 0, 55, 75
4, 77160, Note_on_c, 0, 55, 0
4, 77160, Note_on_c, 0, 45, 75
4, 77160, Note_on_c, 0, 52, 75
4, 77220, Note_on_c, 0, 52, 0
4, 77220, Note_on_c, 0, 45, 0
4, 77220, Control_c, 0, 64, 0
4, 77220, Note_on_c, 0, 55, 75
4, 77280, Note_on_c, 0, 55, 0
4, 77280, Note_on_c, 0, 50, 88
4, 77280, Note_on_c, 0, 54, 88
4, 77280, Note_on_c, 0, 57, 88
4, 77280, Note_on_c, 0, 62, 88
4, 77520, Note_on_c, 0, 62, 0
4, 77520, Note_on_c, 0, 50, 0
4, 77520, Note_on_c, 0, 54, 0
4, 77520, Note_on_c, 0, 57, 0
4, 77520, Note_on_c, 0, 50, 88
4, 77520, Note_on_c, 0, 54, 88
4, 77520, Note_on_c, 0, 57, 88
4, 77520, Note_on_c, 0, 62, 88
4, 77640, Note_on_c, 0, 62, 0
4, 77640, Note_on_c, 0, 50, 0
4, 77640, Note_on_c, 0, 54, 0
4, 77640, Note_on_c, 0, 57, 0
4, 77640, Note_on_c, 0, 62, 88
4, 77700, Note_on_c, 0, 62, 0
4, 77700, Note_on_c, 0, 62, 88
4, 77760, Note_on_c, 0, 62, 0
4, 77760, Note_on_c, 0, 62, 88
4, 77880, Note_on_c, 0, 62, 0
4, 77880, Note_on_c, 0, 62, 88
4, 78000, Note_on_c, 0, 62, 0
4, 78000, Note_on_c, 0, 50, 88
4, 78000, Note_on_c, 0, 55, 88
4, 78000, Note_on_c, 0, 58, 88
4, 78240, Note_on_c, 0, 58, 0
4, 78240, Note_on_c, 0, 55, 0
4, 78240, Note_on_c, 0, 50, 0
4, 78240, Note_on_c, 0, 50, 88
4, 78240, Note_on_c, 0, 55, 88
4, 78240, Note_on_c, 0, 58, 88
4, 78360, Note_on_c, 0, 58, 0
4, 78360, Note_on_c, 0, 55, 0
4, 78360, Note_on_c, 0, 50, 0
4, 78360, Note_on_c, 0, 62, 88
4, 78420, Note_on_c, 0, 62, 0
4, 78420, Note_on_c, 0, 62, 88
4, 78480, Note_on_c, 0, 62, 0
4, 78480, Note_on_c, 0, 62, 88
4, 78600, Note_on_c, 0, 62, 0
4, 78600, Note_on_c, 0, 62, 88
4, 78720, Note_on_c, 0, 62, 0
4, 78720, Note_on_c, 0, 50, 88
4, 78720, Note_on_c, 0, 54, 88
4, 78720, Note_on_c, 0, 57, 88
4, 78720, Note_on_c, 0, 62, 88
4, 78960, Note_on_c, 0, 62, 0
4, 78960, Note_on_c, 0, 50, 0
4, 78960, Note_on_c, 0, 54, 0
4, 78960, Note_on_c, 0, 57, 0
4, 78960, Note_on_c, 0, 50, 88
4, 78960, Note_on_c, 0, 54, 88
4, 78960, Note_on_c, 0, 57, 88
4, 78960, Note_on_c, 0, 62, 88
4, 79080, Note_on_c, 0, 62, 0
4, 79080, Note_on_c, 0, 50, 0
4, 79080, Note_on_c, 0, 54, 0
4, 79080, Note_on_c, 0, 57, 0
4, 79080, Note_on_c, 0, 62, 88
4, 79140, Note_on_c, 0, 62, 0
4, 79140, Note_on_c, 0, 62, 88
4, 79200, Note_on_c, 0, 62, 0
4, 79200, Note_on_c, 0, 62, 88
4, 79320, Note_on_c, 0, 62, 0
4, 79320, Note_on_c, 0, 62, 88
4, 79440, Note_on_c, 0, 62, 0
4, 79440, Note_on_c, 0, 50, 75
4, 79440, Note_on_c, 0, 55, 75
4, 79440, Note_on_c, 0, 58, 75
4, 79440, Note_on_c, 0, 62, 75
4, 79680, Note_on_c, 0, 62, 0
4, 79680, Note_on_c, 0, 50, 0
4, 79680, Note_on_c, 0, 55, 0
4, 79680, Note_on_c, 0, 58, 0
4, 79680, Note_on_c, 0, 50, 75
4, 79680, Note_on_c, 0, 55, 75
4, 79680, Note_on_c, 0, 58, 75
4, 79680, Note_on_c, 0, 62, 75
4, 79800, Note_on_c, 0, 62, 0
4, 79800, Note_on_c, 0, 50, 0
4, 79800, Note_on_c, 0, 55, 0
4, 79800, Note_on_c, 0, 58, 0
4, 79800, Note_on_c, 0, 62, 75
4, 79860, Note_on_c, 0, 62, 0
4, 79860, Note_on_c, 0, 62, 75
4, 79920, Note_on_c, 0, 62, 0
4, 79920, Note_on_c, 0, 62, 75
4, 80040, Note_on_c, 0, 62, 0
4, 80040, Note_on_c, 0, 62, 75
4, 80160, Note_on_c, 0, 62, 0
4, 80160, Note_on_c, 0, 50, 75
4, 80160, Note_on_c, 0, 54, 75
4, 80160, Note_on_c, 0, 57, 75
4, 80160, Note_on_c, 0, 62, 75
4, 80400, Note_on_c, 0, 62, 0
4, 80400, Note_on_c, 0, 50, 0
4, 80400, Note_on_c, 0, 54, 0
4, 80400, Note_on_c, 0, 57, 0
4, 80400, Note_on_c, 0, 50, 75
4, 80400, Note_on_c, 0, 54, 75
4, 80400, Note_on_c, 0, 57, 75
4, 80400, Note_on_c, 0, 62, 75
4, 80520, Note_on_c, 0, 62, 0
4, 80520, Note_on_c, 0, 50, 0
4, 80520, Note_on_c, 0, 54, 0
4, 80520, Note_on_c, 0, 57, 0
4, 80520, Note_on_c, 0, 62, 75
4, 80580, Note_on_c, 0, 62, 0
4, 80580, Note_on_c, 0, 62, 75
4, 80640, Note_on_c, 0, 62, 0
4, 80640, Note_on_c, 0, 62, 75
4, 80760, Note_on_c, 0, 62, 0
4, 80760, Note_on_c, 0, 62, 75
4, 80880, Note_on_c, 0, 62, 0
4, 80880, Note_on_c, 0, 50, 75
4, 80880, Note_on_c, 0, 55, 75
4, 80880, Note_on_c, 0, 58, 75
4, 80880, Note_on_c, 0, 62, 75
4, 81120, Note_on_c, 0, 62, 0
4, 81120, Note_on_c, 0, 50, 0
4, 81120, Note_on_c, 0, 55, 0
4, 81120, Note_on_c, 0, 58, 0
4, 81120, Note_on_c, 0, 50, 75
4, 81120, Note_on_c, 0, 55, 75
4, 81120, Note_on_c, 0, 58, 75
4, 81120, Note_on_c, 0, 62, 75
4, 81240, Note_on_c, 0, 62, 0
4, 81240, Note_on_c, 0, 50, 0
4, 81240, Note_on_c, 0, 55, 0
4, 81240, Note_on_c, 0, 58, 0
4, 81240, Note_on_c, 0, 62, 75
4, 81300, Note_on_c, 0, 62, 0
4, 81300, Note_on_c, 0, 62, 75
4, 81360, Note_on_c, 0, 62, 0
4, 81360, Note_on_c, 0, 62, 75
4, 81480, Note_on_c, 0, 62, 0
4, 81480, Note_on_c, 0, 62, 75
4, 81600, Note_on_c, 0, 62, 0
4, 81600, Note_on_c, 0, 50, 62
4, 81600, Note_on_c, 0, 54, 62
4, 81600, Note_on_c, 0, 57, 62
4, 81600, Note_on_c, 0, 62, 62
4, 81840, Note_on_c, 0, 62, 0
4, 81840, Note_on_c, 0, 50, 0
4, 81840, Note_on_c, 0, 54, 0
4, 81840, Note_on_c, 0, 57, 0
4, 81840, Note_on_c, 0, 50, 62
4, 81840, Note_on_c, 0, 54, 62
4, 81840, Note_on_c, 0, 57, 62
4, 81840, Note_on_c, 0, 62, 62
4, 81960, Note_on_c, 0, 62, 0
4, 81960, Note_on_c, 0, 50, 0
4, 81960, Note_on_c, 0, 54, 0
4, 81960, Note_on_c, 0, 57, 0
4, 81960, Note_on_c, 0, 62, 62
4, 82020, Note_on_c, 0, 62, 0
4, 82020, Note_on_c, 0, 62, 62
4, 82080, Note_on_c, 0, 62, 0
4, 82080, Note_on_c, 0, 62, 62
4, 82200, Note_on_c, 0, 62, 0
4, 82200, Note_on_c, 0, 62, 62
4, 82320, Note_on_c, 0, 62, 0
4, 82320, Note_on_c, 0, 50, 62
4, 82320, Note_on_c, 0, 55, 62
4, 82320, Note_on_c, 0, 58, 62
4, 82320, Note_on_c, 0, 62, 62
4, 82560, Note_on_c, 0, 62, 0
4, 82560, Note_on_c, 0, 50, 0
4, 82560, Note_on_c, 0, 55, 0
4, 82560, Note_on_c, 0, 58, 0
4, 82560, Note_on_c, 0, 50, 62
4, 82560, Note_on_c, 0, 55, 62
4, 82560, Note_on_c, 0, 58, 62
4, 82560, Note_on_c, 0, 62, 62
4, 82680, Note_on_c, 0, 62, 0
4, 82680, Note_on_c, 0, 50, 0
4, 82680, Note_on_c, 0, 55, 0
4, 82680, Note_on_c, 0, 58, 0
4, 82680, Note_on_c, 0, 62, 62
4, 82740, Note_on_c, 0, 62, 0
4, 82740, Note_on_c, 0, 62, 62
4, 82800, Note_on_c, 0, 62, 0
4, 82800, Note_on_c, 0, 62, 62
4, 82920, Note_on_c, 0, 62, 0
4, 82920, Note_on_c, 0, 62, 62
4, 83040, Note_on_c, 0, 62, 0
4, 83040, Note_on_c, 0, 50, 49
4, 83040, Note_on_c, 0, 54, 49
4, 83040, Note_on_c, 0, 57, 49
4, 83040, Note_on_c, 0, 62, 49
4, 83280, Note_on_c, 0, 62, 0
4, 83280, Note_on_c, 0, 50, 0
4, 83280, Note_on_c, 0, 54, 0
4, 83280, Note_on_c, 0, 57, 0
4, 84480, Note_on_c, 0, 38, 49
4, 84480, Note_on_c, 0, 45, 49
4, 84480, Note_on_c, 0, 50, 49
4, 85200, Note_on_c, 0, 50, 0
4, 85200, Note_on_c, 0, 45, 0
4, 85200, Note_on_c, 0, 38, 0
4, 85200, Note_on_c, 0, 38, 49
4, 85200, Note_on_c, 0, 45, 49
4, 85200, Note_on_c, 0, 50, 49
4, 85680, Note_on_c, 0, 50, 0
4, 85680, Note_on_c, 0, 45, 0
4, 85680, Note_on_c, 0, 38, 0
4, 85680, Note_on_c, 0, 38, 49
4, 85680, Note_on_c, 0, 45, 49
4, 85680, Note_on_c, 0, 50, 49
4, 85920, Note_on_c, 0, 50, 0
4, 85920, Note_on_c, 0, 45, 0
4, 85920, Note_on_c, 0, 38, 0
4, 85920, Note_on_c, 0, 38, 49
4, 85920, Note_on_c, 0, 45, 49
4, 85920, Note_on_c, 0, 50, 49
4, 89760, Note_on_c, 0, 50, 0
4, 89760, Note_on_c, 0, 45, 0
4, 89760, Note_on_c, 0, 38, 0
4, 89760, End_track
5, 0, Start_track
5, 0, Title_t, "Grand Piano"
5, 0, Program_c, 0, 0
5, 0, Control_c, 0, 7, 115
5, 0, Control_c, 0, 10, 47
5, 2880, Note_on_c, 0, 52, 75
5, 2880, Note_on_c, 0, 59, 75
5, 3840, Note_on_c, 0, 59, 0
5, 3840, Note_on_c, 0, 52, 0
5, 14400, Note_on_c, 0, 62, 62
5, 14880, Note_on_c, 0, 62, 0
5, 14880, Note_on_c, 0, 61, 49
5, 15360, Note_on_c, 0, 61, 0
5, 17280, Note_on_c, 0, 38, 62
5, 17280, Note_on_c, 0, 45, 62
5, 18720, Note_on_c, 0, 45, 0
5, 18720, Note_on_c, 0, 38, 0
5, 18720, Note_on_c, 0, 38, 62
5, 18720, Note_on_c, 0, 45, 62
5, 18720, Note_on_c, 0, 52, 62
5, 20080, Note_on_c, 0, 38, 62
5, 20120, Note_on_c, 0, 45, 62
5, 20160, Note_on_c, 0, 52, 0
5, 20160, Note_on_c, 0, 38, 0
5, 20160, Note_on_c, 0, 45, 0
5, 20160, Note_on_c, 0, 54, 62
5, 21520, Note_on_c, 0, 38, 62
5, 21560, Note_on_c, 0, 45, 62
5, 21600, Note_on_c, 0, 54, 0
5, 21600, Note_on_c, 0, 45, 0
5, 21600, Note_on_c, 0, 38, 0
5, 21600, Note_on_c, 0, 52, 62
5, 22960, Note_on_c, 0, 38, 62
5, 23000, Note_on_c, 0, 45, 62
5, 23040, Note_on_c, 0, 52, 0
5, 23040, Note_on_c, 0, 45, 0
5, 23040, Note_on_c, 0, 38, 0
5, 23040, Note_on_c, 0, 54, 62
5, 24480, Note_on_c, 0, 54, 0
5, 24480, Note_on_c, 0, 38, 0
5, 24480, Note_on_c, 0, 45, 0
5, 24480, Note_on_c, 0, 38, 62
5, 24480, Note_on_c, 0, 45, 62
5, 24480, Note_on_c, 0, 52, 62
5, 25920, Note_on_c, 0, 52, 0
5, 25920, Note_on_c, 0, 45, 0
5, 25920, Note_on_c, 0, 38, 0
5, 25920, Note_on_c, 0, 38, 62
5, 25920, Note_on_c, 0, 45, 62
5, 25920, Note_on_c, 0, 54, 62
5, 27360, Note_on_c, 0, 54, 0
5, 27360, Note_on_c, 0, 45, 0
5, 27360, Note_on_c, 0, 38, 0
5, 27360, Note_on_c, 0, 37, 62
5, 27360, Note_on_c, 0, 49, 62
5, 28080, Note_on_c, 0, 49, 0
5, 28080, Note_on_c, 0, 37, 0
5, 28080, Note_on_c, 0, 49, 62
5, 28080, Note_on_c, 0, 56, 62
5, 28080, Note_on_c, 0, 59, 62
5, 28720, Note_on_c, 0, 42, 62
5, 28760, Note_on_c, 0, 49, 62
5, 28800, Note_on_c, 0, 59, 0
5, 28800, Note_on_c, 0, 49, 0
5, 28800, Note_on_c, 0, 56, 0
5, 28800, Note_on_c, 0, 57, 62
5, 29760, Note_on_c, 0, 57, 0
5, 29760, Note_on_c, 0, 42, 0
5, 29760, Note_on_c, 0, 49, 0
5, 30240, Note_on_c, 0, 57, 62
5, 30240, Note_on_c, 0, 64, 62
5, 30240, Note_on_c, 0, 67, 62
5, 30960, Note_on_c, 0, 67, 0
5, 30960, Note_on_c, 0, 64, 0
5, 30960, Note_on_c, 0, 57, 0
5, 31680, Note_on_c, 0, 57, 62
5, 31680, Note_on_c, 0, 62, 62
5, 32400, Note_on_c, 0, 62, 0
5, 32400, Note_on_c, 0, 57, 0
5, 33120, Note_on_c, 0, 57, 62
5, 33120, Note_on_c, 0, 64, 62
5, 33840, Note_on_c, 0, 64, 0
5, 33840, Note_on_c, 0, 57, 0
5, 34560, Note_on_c, 0, 57, 62
5, 34560, Note_on_c, 0, 62, 62
5, 35280, Note_on_c, 0, 62, 0
5, 35280, Note_on_c, 0, 57, 0
5, 36000, Note_on_c, 0, 57, 62
5, 36000, Note_on_c, 0, 64, 62
5, 36720, Note_on_c, 0, 64, 0
5, 36720, Note_on_c, 0, 57, 0
5, 37440, Note_on_c, 0, 57, 62
5, 37440, Note_on_c, 0, 62, 62
5, 38160, Note_on_c, 0, 62, 0
5, 38160, Note_on_c, 0, 57, 0
5, 43920, Note_on_c, 0, 57, 62
5, 44640, Note_on_c, 0, 57, 0
5, 72240, Note_on_c, 0, 48, 88
5, 72240, Note_on_c, 0, 50, 88
5, 72960, Note_on_c, 0, 50, 0
5, 72960, Note_on_c, 0, 48, 0
5, 72960, Note_on_c, 0, 46, 88
5, 72960, Note_on_c, 0, 50, 88
5, 73680, Note_on_c, 0, 50, 0
5, 73680, Note_on_c, 0, 46, 0
5, 73680, Note_on_c, 0, 45, 88
5, 73680, Note_on_c, 0, 50, 88
5, 74400, Note_on_c, 0, 50, 0
5, 74400, Note_on_c, 0, 45, 0
5, 74400, End_track
0, 0, End_of_file
