0, 0, Header, 0, 1, 384
1, 0, Start_track
1, 0, Title_t, "Die JahreszeitenJanuar"
1, 0, Copyright_t, "Adaptation for Disklavier pianos, by: Robert C. Kuhmann (c) 2012."
1, 0, Time_signature, 4, 2, 24, 8
1, 0, Key_signature, 0, "major"
1, 0, Tempo, 512821
1, 0, Program_c, 0, 0
1, 0, Control_c, 0, 7, 115
1, 0, Control_c, 0, 91, 127
1, 3, Program_c, 0, 0
1, 3, Control_c, 0, 7, 100
1, 6, Control_c, 0, 91, 127
1, 6, Control_c, 0, 64, 0
1, 748, Note_on_c, 0, 66, 85
1, 1065, Note_on_c, 0, 66, 0
1, 1065, Note_on_c, 0, 68, 82
1, 1219, Note_on_c, 0, 69, 77
1, 1247, Note_on_c, 0, 68, 0
1, 1387, Note_on_c, 0, 69, 0
1, 1387, Note_on_c, 0, 68, 85
1, 1387, Note_on_c, 0, 64, 63
1, 1390, Note_on_c, 0, 59, 63
1, 1390, Note_on_c, 0, 50, 72
1, 1390, Note_on_c, 0, 52, 72
1, 1393, Control_c, 0, 64, 127
1, 1705, Note_on_c, 0, 68, 0
1, 1705, Note_on_c, 0, 71, 74
1, 2005, Control_c, 0, 64, 0
1, 2024, Note_on_c, 0, 71, 0
1, 2024, Note_on_c, 0, 64, 0
1, 2024, Note_on_c, 0, 59, 0
1, 2027, Note_on_c, 0, 50, 0
1, 2027, Note_on_c, 0, 64, 85
1, 2027, Note_on_c, 0, 49, 70
1, 2089, Control_c, 0, 64, 127
1, 2342, Note_on_c, 0, 69, 82
1, 2511, Control_c, 0, 64, 0
1, 2661, Note_on_c, 0, 69, 0
1, 2661, Note_on_c, 0, 68, 82
1, 2661, Note_on_c, 0, 71, 93
1, 2664, Note_on_c, 0, 49, 0
1, 2664, Note_on_c, 0, 47, 83
1, 2944, Note_on_c, 0, 47, 0
1, 2944, Note_on_c, 0, 71, 0
1, 2944, Note_on_c, 0, 68, 0
1, 2970, Note_on_c, 0, 69, 86
1, 2970, Note_on_c, 0, 73, 98
1, 2970, Note_on_c, 0, 45, 85
1, 3269, Note_on_c, 0, 45, 0
1, 3269, Note_on_c, 0, 69, 0
1, 3269, Note_on_c, 0, 73, 0
1, 3296, Note_on_c, 0, 64, 0
1, 3296, Note_on_c, 0, 64, 75
1, 3296, Note_on_c, 0, 71, 78
1, 3299, Note_on_c, 0, 52, 0
1, 3299, Note_on_c, 0, 76, 90
1, 3299, Note_on_c, 0, 44, 68
1, 3302, Note_on_c, 0, 52, 74
1, 3446, Control_c, 0, 64, 127
1, 3933, Note_on_c, 0, 76, 0
1, 3933, Note_on_c, 0, 71, 0
1, 3933, Note_on_c, 0, 73, 88
1, 3936, Note_on_c, 0, 44, 0
1, 3936, Note_on_c, 0, 69, 78
1, 3936, Note_on_c, 0, 45, 67
1, 3941, Control_c, 0, 64, 0
1, 4064, Control_c, 0, 64, 127
1, 4570, Note_on_c, 0, 69, 0
1, 4570, Note_on_c, 0, 64, 0
1, 4570, Note_on_c, 0, 73, 0
1, 4573, Note_on_c, 0, 52, 0
1, 4573, Note_on_c, 0, 45, 0
1, 4573, Note_on_c, 0, 73, 102
1, 4576, Control_c, 0, 64, 0
1, 4882, Note_on_c, 0, 73, 0
1, 4882, Note_on_c, 0, 74, 100
1, 5035, Note_on_c, 0, 76, 98
1, 5063, Note_on_c, 0, 74, 0
1, 5202, Note_on_c, 0, 76, 0
1, 5202, Note_on_c, 0, 78, 98
1, 5202, Note_on_c, 0, 73, 85
1, 5205, Note_on_c, 0, 66, 85
1, 5205, Note_on_c, 0, 46, 71
1, 5205, Note_on_c, 0, 61, 83
1, 5208, Note_on_c, 0, 54, 71
1, 5276, Control_c, 0, 64, 127
1, 5518, Note_on_c, 0, 78, 0
1, 5518, Note_on_c, 0, 73, 90
1, 5846, Note_on_c, 0, 73, 0
1, 5846, Note_on_c, 0, 66, 0
1, 5846, Note_on_c, 0, 73, 0
1, 5849, Note_on_c, 0, 71, 70
1, 5849, Note_on_c, 0, 66, 70
1, 5849, Note_on_c, 0, 74, 88
1, 5852, Note_on_c, 0, 46, 0
1, 5852, Note_on_c, 0, 54, 0
1, 5852, Note_on_c, 0, 61, 0
1, 5855, Note_on_c, 0, 47, 63
1, 5855, Note_on_c, 0, 59, 70
1, 5855, Note_on_c, 0, 54, 63
1, 5858, Control_c, 0, 64, 0
1, 5940, Control_c, 0, 64, 127
1, 6483, Note_on_c, 0, 71, 0
1, 6483, Note_on_c, 0, 74, 0
1, 6483, Note_on_c, 0, 66, 0
1, 6486, Note_on_c, 0, 54, 0
1, 6486, Note_on_c, 0, 59, 0
1, 6486, Note_on_c, 0, 66, 89
1, 6489, Note_on_c, 0, 47, 0
1, 6489, Control_c, 0, 64, 0
1, 6809, Note_on_c, 0, 66, 0
1, 6809, Note_on_c, 0, 68, 85
1, 6966, Note_on_c, 0, 69, 81
1, 6992, Note_on_c, 0, 68, 0
1, 7129, Note_on_c, 0, 69, 0
1, 7129, Note_on_c, 0, 63, 75
1, 7129, Note_on_c, 0, 73, 79
1, 7132, Note_on_c, 0, 57, 69
1, 7132, Note_on_c, 0, 47, 62
1, 7175, Control_c, 0, 64, 127
1, 7445, Note_on_c, 0, 73, 0
1, 7445, Note_on_c, 0, 70, 74
1, 7780, Note_on_c, 0, 63, 0
1, 7780, Note_on_c, 0, 47, 0
1, 7780, Note_on_c, 0, 62, 68
1, 7783, Note_on_c, 0, 57, 0
1, 7783, Note_on_c, 0, 52, 54
1, 7783, Note_on_c, 0, 56, 61
1, 7790, Control_c, 0, 64, 0
1, 7868, Control_c, 0, 64, 127
1, 8099, Note_on_c, 0, 70, 0
1, 8099, Note_on_c, 0, 71, 70
1, 8459, Note_on_c, 0, 71, 0
1, 8459, Note_on_c, 0, 62, 0
1, 8459, Note_on_c, 0, 66, 85
1, 8462, Note_on_c, 0, 52, 0
1, 8462, Note_on_c, 0, 56, 0
1, 8462, Control_c, 0, 64, 0
1, 8777, Note_on_c, 0, 66, 0
1, 8777, Note_on_c, 0, 68, 84
1, 8931, Note_on_c, 0, 69, 79
1, 8959, Note_on_c, 0, 68, 0
1, 9099, Note_on_c, 0, 69, 0
1, 9099, Note_on_c, 0, 68, 85
1, 9099, Note_on_c, 0, 64, 64
1, 9102, Note_on_c, 0, 59, 64
1, 9102, Control_c, 0, 64, 127
1, 9102, Note_on_c, 0, 52, 72
1, 9105, Note_on_c, 0, 50, 72
1, 9417, Note_on_c, 0, 68, 0
1, 9417, Note_on_c, 0, 71, 74
1, 9717, Control_c, 0, 64, 0
1, 9736, Note_on_c, 0, 71, 0
1, 9736, Note_on_c, 0, 64, 0
1, 9736, Note_on_c, 0, 59, 0
1, 9739, Note_on_c, 0, 50, 0
1, 9739, Note_on_c, 0, 64, 85
1, 9739, Note_on_c, 0, 49, 70
1, 9801, Control_c, 0, 64, 127
1, 10054, Note_on_c, 0, 69, 85
1, 10372, Note_on_c, 0, 69, 0
1, 10372, Note_on_c, 0, 68, 82
1, 10372, Note_on_c, 0, 71, 93
1, 10375, Note_on_c, 0, 49, 0
1, 10375, Control_c, 0, 64, 0
1, 10375, Note_on_c, 0, 47, 83
1, 10658, Note_on_c, 0, 47, 0
1, 10658, Note_on_c, 0, 71, 0
1, 10658, Note_on_c, 0, 68, 0
1, 10684, Note_on_c, 0, 69, 88
1, 10684, Note_on_c, 0, 73, 99
1, 10684, Note_on_c, 0, 45, 86
1, 10985, Note_on_c, 0, 45, 0
1, 10985, Note_on_c, 0, 69, 0
1, 10985, Note_on_c, 0, 73, 0
1, 11012, Note_on_c, 0, 64, 0
1, 11012, Note_on_c, 0, 64, 74
1, 11012, Note_on_c, 0, 71, 78
1, 11015, Note_on_c, 0, 52, 0
1, 11015, Note_on_c, 0, 76, 92
1, 11015, Note_on_c, 0, 52, 70
1, 11018, Note_on_c, 0, 44, 71
1, 11162, Control_c, 0, 64, 127
1, 11649, Note_on_c, 0, 76, 0
1, 11649, Note_on_c, 0, 71, 0
1, 11649, Note_on_c, 0, 73, 95
1, 11652, Note_on_c, 0, 44, 0
1, 11652, Note_on_c, 0, 69, 84
1, 11652, Note_on_c, 0, 45, 71
1, 11652, Control_c, 0, 64, 0
1, 11774, Control_c, 0, 64, 127
1, 12286, Note_on_c, 0, 69, 0
1, 12286, Note_on_c, 0, 73, 0
1, 12286, Note_on_c, 0, 64, 0
1, 12289, Note_on_c, 0, 52, 0
1, 12289, Note_on_c, 0, 45, 0
1, 12289, Note_on_c, 0, 73, 109
1, 12292, Control_c, 0, 64, 0
1, 12595, Note_on_c, 0, 73, 0
1, 12595, Note_on_c, 0, 75, 105
1, 12746, Note_on_c, 0, 76, 100
1, 12773, Note_on_c, 0, 75, 0
1, 12910, Note_on_c, 0, 76, 0
1, 12910, Note_on_c, 0, 64, 83
1, 12910, Note_on_c, 0, 68, 106
1, 12913, Note_on_c, 0, 47, 79
1, 12983, Control_c, 0, 64, 127
1, 13224, Note_on_c, 0, 68, 0
1, 13224, Note_on_c, 0, 73, 90
1, 13547, Note_on_c, 0, 73, 0
1, 13547, Note_on_c, 0, 64, 0
1, 13547, Note_on_c, 0, 71, 93
1, 13550, Note_on_c, 0, 63, 71
1, 13550, Note_on_c, 0, 66, 71
1, 13550, Note_on_c, 0, 57, 90
1, 13555, Control_c, 0, 64, 0
1, 13641, Control_c, 0, 64, 127
1, 13866, Note_on_c, 0, 57, 0
1, 13866, Note_on_c, 0, 59, 84
1, 14199, Note_on_c, 0, 63, 0
1, 14199, Note_on_c, 0, 66, 0
1, 14199, Note_on_c, 0, 71, 0
1, 14202, Note_on_c, 0, 71, 89
1, 14202, Note_on_c, 0, 64, 89
1, 14202, Note_on_c, 0, 73, 110
1, 14205, Note_on_c, 0, 59, 0
1, 14205, Control_c, 0, 64, 0
1, 14205, Note_on_c, 0, 56, 92
1, 14513, Note_on_c, 0, 73, 0
1, 14513, Note_on_c, 0, 75, 109
1, 14665, Note_on_c, 0, 76, 103
1, 14692, Note_on_c, 0, 75, 0
1, 14831, Note_on_c, 0, 71, 0
1, 14831, Note_on_c, 0, 64, 0
1, 14831, Note_on_c, 0, 76, 0
1, 14834, Note_on_c, 0, 56, 0
1, 14834, Note_on_c, 0, 64, 83
1, 14834, Note_on_c, 0, 68, 106
1, 14837, Note_on_c, 0, 47, 0
1, 14837, Note_on_c, 0, 47, 79
1, 14904, Control_c, 0, 64, 127
1, 15145, Note_on_c, 0, 68, 0
1, 15145, Note_on_c, 0, 73, 89
1, 15476, Note_on_c, 0, 73, 0
1, 15476, Note_on_c, 0, 64, 0
1, 15476, Note_on_c, 0, 71, 93
1, 15479, Note_on_c, 0, 66, 71
1, 15479, Note_on_c, 0, 63, 71
1, 15479, Note_on_c, 0, 57, 90
1, 15489, Control_c, 0, 64, 0
1, 15570, Control_c, 0, 64, 127
1, 15794, Note_on_c, 0, 57, 0
1, 15794, Note_on_c, 0, 59, 84
1, 16133, Note_on_c, 0, 66, 0
1, 16133, Note_on_c, 0, 63, 0
1, 16133, Note_on_c, 0, 71, 0
1, 16136, Note_on_c, 0, 73, 111
1, 16136, Note_on_c, 0, 64, 90
1, 16136, Note_on_c, 0, 71, 90
1, 16139, Note_on_c, 0, 59, 0
1, 16139, Control_c, 0, 64, 0
1, 16139, Note_on_c, 0, 56, 89
1, 16444, Note_on_c, 0, 56, 0
1, 16444, Note_on_c, 0, 73, 0
1, 16444, Note_on_c, 0, 75, 109
1, 16447, Note_on_c, 0, 47, 0
1, 16600, Note_on_c, 0, 76, 104
1, 16629, Note_on_c, 0, 75, 0
1, 16776, Note_on_c, 0, 64, 0
1, 16776, Note_on_c, 0, 71, 0
1, 16776, Note_on_c, 0, 76, 0
1, 16779, Note_on_c, 0, 80, 109
1, 16851, Control_c, 0, 64, 127
1, 17099, Note_on_c, 0, 80, 0
1, 17099, Note_on_c, 0, 76, 96
1, 17422, Note_on_c, 0, 76, 0
1, 17422, Note_on_c, 0, 75, 100
1, 17431, Control_c, 0, 64, 0
1, 17516, Control_c, 0, 64, 127
1, 17738, Note_on_c, 0, 75, 0
1, 17738, Note_on_c, 0, 73, 93
1, 18074, Note_on_c, 0, 73, 0
1, 18074, Note_on_c, 0, 73, 85
1, 18074, Note_on_c, 0, 66, 72
1, 18077, Note_on_c, 0, 63, 72
1, 18077, Control_c, 0, 64, 0
1, 18077, Note_on_c, 0, 54, 93
1, 18400, Note_on_c, 0, 54, 0
1, 18400, Note_on_c, 0, 56, 89
1, 18563, Note_on_c, 0, 57, 79
1, 18591, Note_on_c, 0, 56, 0
1, 18732, Note_on_c, 0, 73, 0
1, 18732, Note_on_c, 0, 63, 0
1, 18732, Note_on_c, 0, 66, 0
1, 18735, Note_on_c, 0, 63, 72
1, 18735, Note_on_c, 0, 61, 89
1, 18735, Note_on_c, 0, 66, 82
1, 18738, Note_on_c, 0, 57, 0
1, 18738, Note_on_c, 0, 47, 79
1, 18830, Control_c, 0, 64, 127
1, 19062, Note_on_c, 0, 61, 0
1, 19062, Note_on_c, 0, 59, 86
1, 19401, Note_on_c, 0, 59, 0
1, 19416, Note_on_c, 0, 66, 0
1, 19416, Note_on_c, 0, 63, 0
1, 19416, Note_on_c, 0, 59, 67
1, 19419, Note_on_c, 0, 47, 0
1, 19419, Note_on_c, 0, 64, 74
1, 19419, Note_on_c, 0, 57, 82
1, 19422, Note_on_c, 0, 52, 72
1, 19433, Control_c, 0, 64, 0
1, 19533, Control_c, 0, 64, 127
1, 19776, Note_on_c, 0, 57, 0
1, 19776, Note_on_c, 0, 56, 79
1, 20178, Note_on_c, 0, 59, 0
1, 20178, Note_on_c, 0, 64, 0
1, 20178, Note_on_c, 0, 74, 84
1, 20181, Note_on_c, 0, 52, 0
1, 20181, Note_on_c, 0, 56, 0
1, 20181, Control_c, 0, 64, 0
1, 20184, Note_on_c, 0, 40, 79
1, 20337, Note_on_c, 0, 52, 74
1, 20415, Note_on_c, 0, 52, 0
1, 20493, Note_on_c, 0, 40, 0
1, 20493, Note_on_c, 0, 74, 0
1, 20493, Note_on_c, 0, 73, 79
1, 20496, Note_on_c, 0, 54, 75
1, 20569, Note_on_c, 0, 54, 0
1, 20645, Note_on_c, 0, 71, 76
1, 20645, Note_on_c, 0, 56, 76
1, 20673, Note_on_c, 0, 73, 0
1, 20729, Note_on_c, 0, 56, 0
1, 20813, Note_on_c, 0, 71, 0
1, 20813, Note_on_c, 0, 63, 71
1, 20813, Note_on_c, 0, 66, 81
1, 20816, Note_on_c, 0, 57, 79
1, 20816, Note_on_c, 0, 52, 63
1, 20883, Control_c, 0, 64, 127
1, 20972, Note_on_c, 0, 57, 0
1, 20972, Note_on_c, 0, 59, 74
1, 21132, Note_on_c, 0, 59, 0
1, 21132, Note_on_c, 0, 66, 0
1, 21132, Note_on_c, 0, 69, 68
1, 21135, Note_on_c, 0, 60, 76
1, 21144, Control_c, 0, 64, 0
1, 21226, Control_c, 0, 64, 127
1, 21470, Note_on_c, 0, 69, 0
1, 21470, Note_on_c, 0, 63, 0
1, 21470, Note_on_c, 0, 64, 67
1, 21473, Note_on_c, 0, 68, 75
1, 21760, Control_c, 0, 64, 0
1, 21784, Note_on_c, 0, 60, 0
1, 21784, Note_on_c, 0, 59, 62
1, 22120, Note_on_c, 0, 68, 0
1, 22120, Note_on_c, 0, 64, 0
1, 22120, Note_on_c, 0, 61, 69
1, 22123, Note_on_c, 0, 52, 0
1, 22123, Note_on_c, 0, 59, 0
1, 22123, Note_on_c, 0, 66, 79
1, 22126, Note_on_c, 0, 45, 72
1, 22126, Note_on_c, 0, 52, 64
1, 22282, Control_c, 0, 64, 127
1, 22443, Note_on_c, 0, 66, 0
1, 22443, Note_on_c, 0, 61, 0
1, 22443, Note_on_c, 0, 60, 57
1, 22446, Note_on_c, 0, 45, 0
1, 22446, Note_on_c, 0, 68, 67
1, 22446, Note_on_c, 0, 44, 57
1, 22777, Note_on_c, 0, 68, 0
1, 22777, Note_on_c, 0, 60, 0
1, 22777, Note_on_c, 0, 61, 69
1, 22780, Note_on_c, 0, 44, 0
1, 22780, Note_on_c, 0, 66, 79
1, 22780, Note_on_c, 0, 45, 72
1, 22790, Control_c, 0, 64, 0
1, 22965, Control_c, 0, 64, 127
1, 23102, Note_on_c, 0, 66, 0
1, 23102, Note_on_c, 0, 61, 0
1, 23102, Note_on_c, 0, 68, 65
1, 23105, Note_on_c, 0, 45, 0
1, 23105, Note_on_c, 0, 60, 56
1, 23105, Note_on_c, 0, 44, 61
1, 23441, Note_on_c, 0, 60, 0
1, 23441, Note_on_c, 0, 68, 0
1, 23441, Note_on_c, 0, 59, 64
1, 23444, Note_on_c, 0, 52, 0
1, 23444, Note_on_c, 0, 44, 0
1, 23444, Note_on_c, 0, 64, 70
1, 23447, Note_on_c, 0, 57, 65
1, 23447, Note_on_c, 0, 52, 60
1, 23451, Control_c, 0, 64, 0
1, 23538, Control_c, 0, 64, 127
1, 23779, Note_on_c, 0, 57, 0
1, 23779, Note_on_c, 0, 56, 63
1, 24129, Note_on_c, 0, 59, 0
1, 24129, Note_on_c, 0, 64, 0
1, 24129, Note_on_c, 0, 74, 84
1, 24132, Note_on_c, 0, 52, 0
1, 24132, Note_on_c, 0, 56, 0
1, 24132, Control_c, 0, 64, 0
1, 24135, Note_on_c, 0, 40, 79
1, 24285, Note_on_c, 0, 52, 74
1, 24363, Note_on_c, 0, 52, 0
1, 24439, Note_on_c, 0, 40, 0
1, 24439, Note_on_c, 0, 74, 0
1, 24439, Note_on_c, 0, 73, 79
1, 24442, Note_on_c, 0, 54, 75
1, 24514, Note_on_c, 0, 54, 0
1, 24589, Note_on_c, 0, 71, 76
1, 24589, Note_on_c, 0, 56, 76
1, 24617, Note_on_c, 0, 73, 0
1, 24673, Note_on_c, 0, 56, 0
1, 24757, Note_on_c, 0, 71, 0
1, 24757, Note_on_c, 0, 63, 71
1, 24757, Note_on_c, 0, 66, 81
1, 24760, Note_on_c, 0, 57, 79
1, 24760, Note_on_c, 0, 52, 63
1, 24828, Control_c, 0, 64, 127
1, 24917, Note_on_c, 0, 57, 0
1, 24917, Note_on_c, 0, 59, 74
1, 25078, Note_on_c, 0, 59, 0
1, 25078, Note_on_c, 0, 66, 0
1, 25078, Note_on_c, 0, 69, 68
1, 25081, Note_on_c, 0, 60, 75
1, 25089, Control_c, 0, 64, 0
1, 25172, Control_c, 0, 64, 127
1, 25417, Note_on_c, 0, 69, 0
1, 25417, Note_on_c, 0, 63, 0
1, 25417, Note_on_c, 0, 64, 67
1, 25420, Note_on_c, 0, 68, 75
1, 25711, Control_c, 0, 64, 0
1, 25735, Note_on_c, 0, 60, 0
1, 25735, Note_on_c, 0, 59, 61
1, 26071, Note_on_c, 0, 68, 0
1, 26071, Note_on_c, 0, 64, 0
1, 26071, Note_on_c, 0, 61, 69
1, 26074, Note_on_c, 0, 52, 0
1, 26074, Note_on_c, 0, 59, 0
1, 26074, Note_on_c, 0, 66, 79
1, 26077, Note_on_c, 0, 45, 72
1, 26077, Note_on_c, 0, 52, 64
1, 26236, Control_c, 0, 64, 127
1, 26399, Note_on_c, 0, 66, 0
1, 26399, Note_on_c, 0, 61, 0
1, 26399, Note_on_c, 0, 60, 57
1, 26402, Note_on_c, 0, 45, 0
1, 26402, Note_on_c, 0, 68, 67
1, 26402, Note_on_c, 0, 44, 57
1, 26732, Note_on_c, 0, 68, 0
1, 26732, Note_on_c, 0, 60, 0
1, 26732, Note_on_c, 0, 61, 69
1, 26735, Note_on_c, 0, 44, 0
1, 26735, Note_on_c, 0, 66, 79
1, 26735, Note_on_c, 0, 45, 72
1, 26746, Control_c, 0, 64, 0
1, 26934, Control_c, 0, 64, 127
1, 27058, Note_on_c, 0, 66, 0
1, 27058, Note_on_c, 0, 61, 0
1, 27058, Note_on_c, 0, 68, 65
1, 27061, Note_on_c, 0, 45, 0
1, 27061, Note_on_c, 0, 60, 56
1, 27061, Note_on_c, 0, 44, 61
1, 27397, Note_on_c, 0, 60, 0
1, 27397, Note_on_c, 0, 68, 0
1, 27397, Note_on_c, 0, 59, 64
1, 27400, Note_on_c, 0, 52, 0
1, 27400, Note_on_c, 0, 44, 0
1, 27400, Note_on_c, 0, 64, 70
1, 27403, Note_on_c, 0, 57, 65
1, 27403, Note_on_c, 0, 52, 60
1, 27403, Control_c, 0, 64, 0
1, 27494, Control_c, 0, 64, 127
1, 27735, Note_on_c, 0, 57, 0
1, 27735, Note_on_c, 0, 56, 63
1, 28074, Note_on_c, 0, 59, 0
1, 28074, Note_on_c, 0, 64, 0
1, 28074, Note_on_c, 0, 64, 75
1, 28077, Note_on_c, 0, 52, 0
1, 28077, Note_on_c, 0, 56, 0
1, 28077, Note_on_c, 0, 70, 86
1, 28080, Control_c, 0, 64, 0
1, 28080, Note_on_c, 0, 49, 79
1, 28080, Note_on_c, 0, 56, 69
1, 28250, Control_c, 0, 64, 127
1, 28382, Note_on_c, 0, 70, 0
1, 28382, Note_on_c, 0, 64, 0
1, 28382, Note_on_c, 0, 63, 70
1, 28385, Note_on_c, 0, 49, 0
1, 28385, Note_on_c, 0, 72, 79
1, 28385, Note_on_c, 0, 48, 70
1, 28705, Note_on_c, 0, 72, 0
1, 28705, Note_on_c, 0, 63, 0
1, 28705, Note_on_c, 0, 70, 86
1, 28708, Note_on_c, 0, 48, 0
1, 28708, Note_on_c, 0, 64, 75
1, 28708, Note_on_c, 0, 49, 81
1, 28719, Control_c, 0, 64, 0
1, 28897, Control_c, 0, 64, 127
1, 29015, Note_on_c, 0, 64, 0
1, 29015, Note_on_c, 0, 70, 0
1, 29015, Note_on_c, 0, 63, 69
1, 29018, Note_on_c, 0, 49, 0
1, 29018, Note_on_c, 0, 72, 79
1, 29018, Note_on_c, 0, 48, 75
1, 29340, Note_on_c, 0, 72, 0
1, 29340, Note_on_c, 0, 63, 0
1, 29340, Note_on_c, 0, 63, 70
1, 29343, Note_on_c, 0, 56, 0
1, 29343, Note_on_c, 0, 48, 0
1, 29343, Note_on_c, 0, 68, 81
1, 29346, Note_on_c, 0, 61, 72
1, 29346, Note_on_c, 0, 56, 65
1, 29346, Control_c, 0, 64, 0
1, 29434, Control_c, 0, 64, 127
1, 29666, Note_on_c, 0, 61, 0
1, 29666, Note_on_c, 0, 60, 69
1, 29991, Note_on_c, 0, 63, 0
1, 29991, Note_on_c, 0, 68, 0
1, 29991, Note_on_c, 0, 68, 81
1, 29994, Note_on_c, 0, 56, 0
1, 29994, Note_on_c, 0, 60, 0
1, 29994, Note_on_c, 0, 74, 90
1, 29997, Control_c, 0, 64, 0
1, 29997, Note_on_c, 0, 53, 83
1, 29997, Note_on_c, 0, 60, 74
1, 30164, Control_c, 0, 64, 127
1, 30293, Note_on_c, 0, 74, 0
1, 30293, Note_on_c, 0, 68, 0
1, 30293, Note_on_c, 0, 67, 75
1, 30296, Note_on_c, 0, 53, 0
1, 30296, Note_on_c, 0, 76, 86
1, 30296, Note_on_c, 0, 52, 75
1, 30616, Note_on_c, 0, 76, 0
1, 30616, Note_on_c, 0, 67, 0
1, 30616, Note_on_c, 0, 74, 93
1, 30619, Note_on_c, 0, 52, 0
1, 30619, Note_on_c, 0, 68, 83
1, 30619, Note_on_c, 0, 53, 88
1, 30629, Control_c, 0, 64, 0
1, 30802, Control_c, 0, 64, 127
1, 30916, Note_on_c, 0, 68, 0
1, 30916, Note_on_c, 0, 74, 0
1, 30916, Note_on_c, 0, 67, 76
1, 30919, Note_on_c, 0, 53, 0
1, 30919, Note_on_c, 0, 76, 88
1, 30919, Note_on_c, 0, 52, 81
1, 31234, Note_on_c, 0, 76, 0
1, 31234, Note_on_c, 0, 67, 0
1, 31234, Note_on_c, 0, 72, 82
1, 31237, Note_on_c, 0, 52, 0
1, 31237, Note_on_c, 0, 66, 72
1, 31237, Note_on_c, 0, 63, 64
1, 31240, Note_on_c, 0, 60, 0
1, 31240, Note_on_c, 0, 60, 75
1, 31240, Note_on_c, 0, 56, 65
1, 31243, Control_c, 0, 64, 0
1, 31326, Control_c, 0, 64, 127
1, 31553, Note_on_c, 0, 63, 0
1, 31553, Note_on_c, 0, 66, 0
1, 31553, Note_on_c, 0, 64, 56
1, 31556, Note_on_c, 0, 56, 0
1, 31556, Note_on_c, 0, 60, 0
1, 31556, Note_on_c, 0, 67, 65
1, 31559, Note_on_c, 0, 48, 51
1, 31559, Note_on_c, 0, 55, 58
1, 31872, Note_on_c, 0, 67, 0
1, 31872, Note_on_c, 0, 64, 0
1, 31872, Note_on_c, 0, 72, 0
1, 31875, Note_on_c, 0, 55, 0
1, 31875, Note_on_c, 0, 74, 90
1, 31875, Note_on_c, 0, 68, 85
1, 31878, Note_on_c, 0, 48, 0
1, 31878, Control_c, 0, 64, 0
1, 31878, Note_on_c, 0, 60, 72
1, 31881, Note_on_c, 0, 53, 85
1, 32018, Note_on_c, 0, 77, 76
1, 32043, Note_on_c, 0, 74, 0
1, 32165, Note_on_c, 0, 68, 0
1, 32165, Note_on_c, 0, 72, 72
1, 32165, Note_on_c, 0, 67, 72
1, 32168, Note_on_c, 0, 53, 0
1, 32168, Note_on_c, 0, 76, 90
1, 32168, Note_on_c, 0, 55, 68
1, 32191, Note_on_c, 0, 77, 0
1, 32246, Control_c, 0, 64, 127
1, 32473, Note_on_c, 0, 76, 0
1, 32473, Note_on_c, 0, 67, 0
1, 32473, Note_on_c, 0, 72, 0
1, 32476, Note_on_c, 0, 55, 0
1, 32476, Note_on_c, 0, 68, 86
1, 32476, Note_on_c, 0, 74, 90
1, 32479, Note_on_c, 0, 53, 89
1, 32502, Control_c, 0, 64, 0
1, 32623, Note_on_c, 0, 77, 78
1, 32648, Note_on_c, 0, 74, 0
1, 32772, Note_on_c, 0, 68, 0
1, 32772, Note_on_c, 0, 67, 72
1, 32772, Note_on_c, 0, 72, 74
1, 32775, Note_on_c, 0, 53, 0
1, 32775, Note_on_c, 0, 76, 90
1, 32775, Note_on_c, 0, 55, 72
1, 32799, Note_on_c, 0, 77, 0
1, 32863, Control_c, 0, 64, 127
1, 33074, Control_c, 0, 64, 0
1, 33089, Note_on_c, 0, 76, 0
1, 33089, Note_on_c, 0, 72, 0
1, 33089, Note_on_c, 0, 67, 0
1, 33092, Note_on_c, 0, 63, 69
1, 33092, Note_on_c, 0, 66, 78
1, 33092, Note_on_c, 0, 72, 90
1, 33095, Note_on_c, 0, 60, 0
1, 33095, Note_on_c, 0, 55, 0
1, 33095, Note_on_c, 0, 56, 63
1, 33098, Note_on_c, 0, 60, 74
1, 33180, Control_c, 0, 64, 127
1, 33405, Note_on_c, 0, 66, 0
1, 33405, Note_on_c, 0, 63, 0
1, 33405, Note_on_c, 0, 64, 60
1, 33408, Note_on_c, 0, 60, 0
1, 33408, Note_on_c, 0, 56, 0
1, 33408, Note_on_c, 0, 67, 70
1, 33411, Note_on_c, 0, 55, 58
1, 33411, Note_on_c, 0, 48, 46
1, 33722, Note_on_c, 0, 67, 0
1, 33722, Note_on_c, 0, 64, 0
1, 33722, Note_on_c, 0, 72, 0
1, 33725, Note_on_c, 0, 48, 0
1, 33725, Note_on_c, 0, 74, 99
1, 33725, Note_on_c, 0, 68, 86
1, 33728, Note_on_c, 0, 55, 0
1, 33728, Control_c, 0, 64, 0
1, 33728, Note_on_c, 0, 60, 75
1, 33731, Note_on_c, 0, 53, 86
1, 33837, Control_c, 0, 64, 127
1, 34025, Note_on_c, 0, 68, 0
1, 34025, Note_on_c, 0, 74, 0
1, 34025, Note_on_c, 0, 76, 95
1, 34028, Note_on_c, 0, 53, 0
1, 34028, Note_on_c, 0, 67, 78
1, 34028, Note_on_c, 0, 72, 78
1, 34031, Note_on_c, 0, 48, 75
1, 34342, Note_on_c, 0, 72, 0
1, 34342, Note_on_c, 0, 67, 0
1, 34342, Note_on_c, 0, 76, 0
1, 34345, Note_on_c, 0, 48, 0
1, 34345, Note_on_c, 0, 70, 90
1, 34345, Note_on_c, 0, 79, 104
1, 34348, Note_on_c, 0, 60, 0
1, 34348, Note_on_c, 0, 61, 85
1, 34348, Note_on_c, 0, 57, 76
1, 34356, Control_c, 0, 64, 0
1, 34526, Control_c, 0, 64, 127
1, 34639, Note_on_c, 0, 79, 0
1, 34639, Note_on_c, 0, 70, 0
1, 34639, Note_on_c, 0, 69, 82
1, 34642, Note_on_c, 0, 61, 0
1, 34642, Note_on_c, 0, 57, 0
1, 34642, Note_on_c, 0, 78, 96
1, 34645, Note_on_c, 0, 62, 84
1, 34958, Note_on_c, 0, 78, 0
1, 34958, Note_on_c, 0, 69, 0
1, 34958, Note_on_c, 0, 77, 104
1, 34961, Note_on_c, 0, 62, 0
1, 34961, Note_on_c, 0, 68, 90
1, 34961, Note_on_c, 0, 59, 85
1, 34964, Note_on_c, 0, 55, 76
1, 34964, Control_c, 0, 64, 0
1, 35043, Control_c, 0, 64, 127
1, 35255, Note_on_c, 0, 68, 0
1, 35255, Note_on_c, 0, 77, 0
1, 35255, Note_on_c, 0, 67, 82
1, 35258, Note_on_c, 0, 59, 0
1, 35258, Note_on_c, 0, 55, 0
1, 35258, Note_on_c, 0, 76, 96
1, 35261, Control_c, 0, 64, 0
1, 35261, Note_on_c, 0, 60, 84
1, 35570, Note_on_c, 0, 76, 0
1, 35570, Note_on_c, 0, 67, 0
1, 35570, Note_on_c, 0, 67, 90
1, 35573, Note_on_c, 0, 60, 0
1, 35573, Note_on_c, 0, 76, 104
1, 35573, Note_on_c, 0, 58, 85
1, 35576, Note_on_c, 0, 54, 76
1, 35657, Control_c, 0, 64, 127
1, 35872, Note_on_c, 0, 76, 0
1, 35872, Note_on_c, 0, 67, 0
1, 35872, Note_on_c, 0, 66, 82
1, 35875, Note_on_c, 0, 58, 0
1, 35875, Note_on_c, 0, 54, 0
1, 35875, Note_on_c, 0, 75, 96
1, 35878, Note_on_c, 0, 59, 84
1, 35954, Control_c, 0, 64, 0
1, 36184, Note_on_c, 0, 75, 0
1, 36184, Note_on_c, 0, 66, 0
1, 36184, Note_on_c, 0, 70, 97
1, 36187, Note_on_c, 0, 59, 0
1, 36187, Note_on_c, 0, 64, 95
1, 36187, Note_on_c, 0, 55, 89
1, 36333, Note_on_c, 0, 73, 82
1, 36358, Note_on_c, 0, 70, 0
1, 36482, Note_on_c, 0, 64, 0
1, 36482, Note_on_c, 0, 66, 70
1, 36482, Note_on_c, 0, 71, 85
1, 36485, Note_on_c, 0, 55, 0
1, 36485, Note_on_c, 0, 63, 70
1, 36485, Note_on_c, 0, 47, 55
1, 36488, Note_on_c, 0, 54, 67
1, 36508, Note_on_c, 0, 73, 0
1, 36527, Control_c, 0, 64, 127
1, 36784, Control_c, 0, 64, 0
1, 36798, Note_on_c, 0, 63, 0
1, 36798, Note_on_c, 0, 71, 0
1, 36798, Note_on_c, 0, 66, 0
1, 36801, Note_on_c, 0, 54, 0
1, 36801, Note_on_c, 0, 67, 88
1, 36801, Note_on_c, 0, 76, 102
1, 36804, Note_on_c, 0, 47, 0
1, 36804, Note_on_c, 0, 58, 75
1, 36804, Note_on_c, 0, 54, 69
1, 36889, Control_c, 0, 64, 127
1, 37112, Note_on_c, 0, 76, 0
1, 37112, Note_on_c, 0, 67, 0
1, 37112, Note_on_c, 0, 66, 82
1, 37115, Note_on_c, 0, 58, 0
1, 37115, Note_on_c, 0, 54, 0
1, 37115, Note_on_c, 0, 75, 95
1, 37118, Note_on_c, 0, 59, 78
1, 37446, Note_on_c, 0, 75, 0
1, 37446, Note_on_c, 0, 66, 0
1, 37446, Note_on_c, 0, 64, 89
1, 37449, Note_on_c, 0, 59, 0
1, 37449, Note_on_c, 0, 70, 85
1, 37449, Control_c, 0, 64, 0
1, 37452, Note_on_c, 0, 55, 88
1, 37595, Note_on_c, 0, 73, 82
1, 37619, Note_on_c, 0, 70, 0
1, 37743, Note_on_c, 0, 64, 0
1, 37743, Note_on_c, 0, 63, 60
1, 37743, Note_on_c, 0, 71, 70
1, 37746, Note_on_c, 0, 55, 0
1, 37746, Note_on_c, 0, 66, 60
1, 37746, Note_on_c, 0, 54, 57
1, 37749, Note_on_c, 0, 47, 51
1, 37769, Note_on_c, 0, 73, 0
1, 37804, Control_c, 0, 64, 127
1, 37983, Control_c, 0, 64, 0
1, 38058, Note_on_c, 0, 66, 0
1, 38058, Note_on_c, 0, 71, 0
1, 38058, Note_on_c, 0, 63, 0
1, 38061, Note_on_c, 0, 47, 0
1, 38061, Note_on_c, 0, 70, 86
1, 38061, Note_on_c, 0, 64, 86
1, 38064, Note_on_c, 0, 54, 0
1, 38064, Note_on_c, 0, 55, 85
1, 38207, Note_on_c, 0, 73, 77
1, 38232, Note_on_c, 0, 70, 0
1, 38357, Note_on_c, 0, 64, 0
1, 38357, Note_on_c, 0, 66, 56
1, 38357, Note_on_c, 0, 63, 56
1, 38360, Note_on_c, 0, 55, 0
1, 38360, Note_on_c, 0, 71, 69
1, 38360, Note_on_c, 0, 47, 49
1, 38363, Note_on_c, 0, 54, 56
1, 38385, Note_on_c, 0, 73, 0
1, 38413, Control_c, 0, 64, 127
1, 38695, Note_on_c, 0, 71, 0
1, 38695, Note_on_c, 0, 63, 0
1, 38695, Note_on_c, 0, 66, 0
1, 38698, Note_on_c, 0, 58, 61
1, 38698, Note_on_c, 0, 61, 69
1, 38698, Note_on_c, 0, 66, 77
1, 38701, Note_on_c, 0, 54, 0
1, 38701, Note_on_c, 0, 47, 0
1, 38701, Note_on_c, 0, 52, 64
1, 38704, Control_c, 0, 64, 0
1, 38796, Control_c, 0, 64, 127
1, 39046, Note_on_c, 0, 61, 0
1, 39046, Note_on_c, 0, 58, 0
1, 39046, Note_on_c, 0, 59, 63
1, 39049, Note_on_c, 0, 52, 0
1, 39049, Note_on_c, 0, 51, 54
1, 39427, Note_on_c, 0, 59, 0
1, 39427, Note_on_c, 0, 66, 0
1, 39427, Note_on_c, 0, 66, 84
1, 39430, Note_on_c, 0, 51, 0
1, 39430, Control_c, 0, 64, 0
1, 39757, Note_on_c, 0, 66, 0
1, 39757, Note_on_c, 0, 68, 81
1, 39914, Note_on_c, 0, 69, 76
1, 39942, Note_on_c, 0, 68, 0
1, 40082, Note_on_c, 0, 69, 0
1, 40082, Note_on_c, 0, 64, 63
1, 40082, Note_on_c, 0, 59, 63
1, 40085, Note_on_c, 0, 68, 85
1, 40085, Note_on_c, 0, 50, 72
1, 40085, Control_c, 0, 64, 127
1, 40088, Note_on_c, 0, 52, 72
1, 40400, Note_on_c, 0, 68, 0
1, 40400, Note_on_c, 0, 71, 72
1, 40700, Control_c, 0, 64, 0
1, 40719, Note_on_c, 0, 71, 0
1, 40719, Note_on_c, 0, 64, 0
1, 40719, Note_on_c, 0, 59, 0
1, 40722, Note_on_c, 0, 50, 0
1, 40722, Note_on_c, 0, 64, 85
1, 40722, Note_on_c, 0, 49, 70
1, 40784, Control_c, 0, 64, 127
1, 41037, Note_on_c, 0, 69, 86
1, 41356, Note_on_c, 0, 69, 0
1, 41356, Note_on_c, 0, 68, 82
1, 41356, Note_on_c, 0, 71, 93
1, 41359, Note_on_c, 0, 49, 0
1, 41359, Control_c, 0, 64, 0
1, 41359, Note_on_c, 0, 47, 83
1, 41639, Note_on_c, 0, 47, 0
1, 41639, Note_on_c, 0, 71, 0
1, 41639, Note_on_c, 0, 68, 0
1, 41665, Note_on_c, 0, 73, 98
1, 41665, Note_on_c, 0, 69, 86
1, 41665, Note_on_c, 0, 45, 85
1, 41964, Note_on_c, 0, 45, 0
1, 41964, Note_on_c, 0, 73, 0
1, 41964, Note_on_c, 0, 69, 0
1, 41991, Note_on_c, 0, 64, 0
1, 41991, Note_on_c, 0, 76, 90
1, 41991, Note_on_c, 0, 71, 78
1, 41994, Note_on_c, 0, 52, 0
1, 41994, Note_on_c, 0, 64, 78
1, 41994, Note_on_c, 0, 44, 68
1, 41997, Note_on_c, 0, 52, 74
1, 42141, Control_c, 0, 64, 127
1, 42628, Note_on_c, 0, 71, 0
1, 42628, Note_on_c, 0, 76, 0
1, 42628, Note_on_c, 0, 69, 78
1, 42631, Note_on_c, 0, 44, 0
1, 42631, Note_on_c, 0, 73, 88
1, 42631, Note_on_c, 0, 45, 67
1, 42631, Control_c, 0, 64, 0
1, 42759, Control_c, 0, 64, 127
1, 43265, Note_on_c, 0, 73, 0
1, 43265, Note_on_c, 0, 69, 0
1, 43265, Note_on_c, 0, 64, 0
1, 43268, Note_on_c, 0, 52, 0
1, 43268, Note_on_c, 0, 45, 0
1, 43268, Note_on_c, 0, 73, 102
1, 43271, Control_c, 0, 64, 0
1, 43583, Note_on_c, 0, 73, 0
1, 43583, Note_on_c, 0, 74, 100
1, 43737, Note_on_c, 0, 76, 98
1, 43767, Note_on_c, 0, 74, 0
1, 43916, Note_on_c, 0, 76, 0
1, 43916, Note_on_c, 0, 73, 85
1, 43916, Note_on_c, 0, 66, 85
1, 43919, Note_on_c, 0, 78, 98
1, 43919, Note_on_c, 0, 54, 71
1, 43919, Note_on_c, 0, 61, 83
1, 43922, Note_on_c, 0, 46, 71
1, 43990, Control_c, 0, 64, 127
1, 44232, Note_on_c, 0, 78, 0
1, 44232, Note_on_c, 0, 73, 90
1, 44561, Note_on_c, 0, 73, 0
1, 44561, Note_on_c, 0, 66, 0
1, 44561, Note_on_c, 0, 73, 0
1, 44564, Note_on_c, 0, 74, 88
1, 44564, Note_on_c, 0, 71, 75
1, 44564, Note_on_c, 0, 66, 75
1, 44567, Note_on_c, 0, 54, 0
1, 44567, Note_on_c, 0, 46, 0
1, 44567, Note_on_c, 0, 61, 0
1, 44570, Note_on_c, 0, 47, 63
1, 44570, Note_on_c, 0, 54, 63
1, 44570, Note_on_c, 0, 59, 70
1, 44573, Control_c, 0, 64, 0
1, 44655, Control_c, 0, 64, 127
1, 45198, Note_on_c, 0, 74, 0
1, 45198, Note_on_c, 0, 66, 0
1, 45198, Note_on_c, 0, 71, 0
1, 45201, Note_on_c, 0, 59, 0
1, 45201, Note_on_c, 0, 54, 0
1, 45201, Note_on_c, 0, 66, 88
1, 45204, Note_on_c, 0, 47, 0
1, 45204, Control_c, 0, 64, 0
1, 45521, Note_on_c, 0, 66, 0
1, 45521, Note_on_c, 0, 68, 82
1, 45678, Note_on_c, 0, 69, 75
1, 45704, Note_on_c, 0, 68, 0
1, 45841, Note_on_c, 0, 69, 0
1, 45841, Note_on_c, 0, 63, 78
1, 45841, Note_on_c, 0, 73, 84
1, 45844, Note_on_c, 0, 47, 64
1, 45844, Note_on_c, 0, 57, 74
1, 45887, Control_c, 0, 64, 127
1, 46155, Note_on_c, 0, 73, 0
1, 46155, Note_on_c, 0, 70, 72
1, 46490, Note_on_c, 0, 63, 0
1, 46490, Note_on_c, 0, 57, 0
1, 46490, Note_on_c, 0, 62, 68
1, 46493, Note_on_c, 0, 47, 0
1, 46493, Note_on_c, 0, 56, 61
1, 46493, Note_on_c, 0, 52, 54
1, 46506, Control_c, 0, 64, 0
1, 46583, Control_c, 0, 64, 127
1, 46833, Note_on_c, 0, 70, 0
1, 46833, Note_on_c, 0, 71, 70
1, 47193, Note_on_c, 0, 71, 0
1, 47193, Note_on_c, 0, 62, 0
1, 47193, Note_on_c, 0, 66, 85
1, 47196, Note_on_c, 0, 56, 0
1, 47196, Note_on_c, 0, 52, 0
1, 47211, Control_c, 0, 64, 0
1, 47511, Note_on_c, 0, 66, 0
1, 47511, Note_on_c, 0, 68, 84
1, 47665, Note_on_c, 0, 69, 76
1, 47693, Note_on_c, 0, 68, 0
1, 47833, Note_on_c, 0, 69, 0
1, 47833, Note_on_c, 0, 64, 63
1, 47833, Note_on_c, 0, 59, 63
1, 47836, Note_on_c, 0, 68, 85
1, 47836, Note_on_c, 0, 50, 72
1, 47836, Note_on_c, 0, 52, 72
1, 47839, Control_c, 0, 64, 127
1, 48151, Note_on_c, 0, 68, 0
1, 48151, Note_on_c, 0, 71, 74
1, 48451, Control_c, 0, 64, 0
1, 48470, Note_on_c, 0, 71, 0
1, 48470, Note_on_c, 0, 64, 0
1, 48470, Note_on_c, 0, 59, 0
1, 48473, Note_on_c, 0, 50, 0
1, 48473, Note_on_c, 0, 64, 85
1, 48473, Note_on_c, 0, 49, 70
1, 48535, Control_c, 0, 64, 127
1, 48788, Note_on_c, 0, 69, 85
1, 49107, Note_on_c, 0, 69, 0
1, 49107, Note_on_c, 0, 68, 82
1, 49107, Note_on_c, 0, 71, 93
1, 49110, Note_on_c, 0, 49, 0
1, 49110, Control_c, 0, 64, 0
1, 49110, Note_on_c, 0, 47, 83
1, 49392, Note_on_c, 0, 47, 0
1, 49392, Note_on_c, 0, 71, 0
1, 49392, Note_on_c, 0, 68, 0
1, 49418, Note_on_c, 0, 73, 99
1, 49418, Note_on_c, 0, 69, 88
1, 49418, Note_on_c, 0, 45, 86
1, 49719, Note_on_c, 0, 45, 0
1, 49719, Note_on_c, 0, 73, 0
1, 49719, Note_on_c, 0, 69, 0
1, 49746, Note_on_c, 0, 64, 0
1, 49746, Note_on_c, 0, 76, 92
1, 49746, Note_on_c, 0, 71, 81
1, 49749, Note_on_c, 0, 52, 0
1, 49749, Note_on_c, 0, 64, 76
1, 49749, Note_on_c, 0, 44, 71
1, 49752, Note_on_c, 0, 52, 74
1, 49896, Control_c, 0, 64, 127
1, 50383, Note_on_c, 0, 71, 0
1, 50383, Note_on_c, 0, 76, 0
1, 50383, Note_on_c, 0, 69, 84
1, 50386, Note_on_c, 0, 44, 0
1, 50386, Note_on_c, 0, 73, 95
1, 50386, Note_on_c, 0, 45, 71
1, 50386, Control_c, 0, 64, 0
1, 50515, Control_c, 0, 64, 127
1, 51020, Note_on_c, 0, 73, 0
1, 51020, Note_on_c, 0, 69, 0
1, 51020, Note_on_c, 0, 64, 0
1, 51023, Note_on_c, 0, 52, 0
1, 51023, Note_on_c, 0, 45, 0
1, 51023, Note_on_c, 0, 73, 105
1, 51026, Control_c, 0, 64, 0
1, 51329, Note_on_c, 0, 73, 0
1, 51329, Note_on_c, 0, 75, 103
1, 51484, Note_on_c, 0, 76, 98
1, 51511, Note_on_c, 0, 75, 0
1, 51648, Note_on_c, 0, 76, 0
1, 51648, Note_on_c, 0, 68, 107
1, 51648, Note_on_c, 0, 64, 79
1, 51651, Note_on_c, 0, 47, 75
1, 51721, Control_c, 0, 64, 127
1, 51962, Note_on_c, 0, 68, 0
1, 51962, Note_on_c, 0, 73, 91
1, 52285, Note_on_c, 0, 73, 0
1, 52285, Note_on_c, 0, 64, 0
1, 52285, Note_on_c, 0, 63, 76
1, 52288, Note_on_c, 0, 66, 76
1, 52288, Note_on_c, 0, 71, 98
1, 52288, Control_c, 0, 64, 0
1, 52291, Note_on_c, 0, 57, 88
1, 52379, Control_c, 0, 64, 127
1, 52604, Note_on_c, 0, 57, 0
1, 52604, Note_on_c, 0, 59, 82
1, 52937, Note_on_c, 0, 66, 0
1, 52937, Note_on_c, 0, 71, 0
1, 52937, Note_on_c, 0, 63, 0
1, 52940, Note_on_c, 0, 71, 91
1, 52940, Note_on_c, 0, 64, 91
1, 52940, Note_on_c, 0, 73, 112
1, 52943, Note_on_c, 0, 59, 0
1, 52943, Control_c, 0, 64, 0
1, 52943, Note_on_c, 0, 56, 89
1, 53251, Note_on_c, 0, 73, 0
1, 53251, Note_on_c, 0, 75, 103
1, 53408, Note_on_c, 0, 76, 96
1, 53435, Note_on_c, 0, 75, 0
1, 53574, Note_on_c, 0, 71, 0
1, 53574, Note_on_c, 0, 64, 0
1, 53574, Note_on_c, 0, 76, 0
1, 53577, Note_on_c, 0, 56, 0
1, 53577, Note_on_c, 0, 64, 79
1, 53577, Note_on_c, 0, 68, 107
1, 53580, Note_on_c, 0, 47, 0
1, 53580, Note_on_c, 0, 47, 77
1, 53648, Control_c, 0, 64, 127
1, 53888, Note_on_c, 0, 68, 0
1, 53888, Note_on_c, 0, 73, 93
1, 54219, Note_on_c, 0, 73, 0
1, 54219, Note_on_c, 0, 64, 0
1, 54219, Note_on_c, 0, 71, 98
1, 54222, Note_on_c, 0, 66, 76
1, 54222, Note_on_c, 0, 63, 76
1, 54222, Note_on_c, 0, 57, 88
1, 54225, Control_c, 0, 64, 0
1, 54313, Control_c, 0, 64, 127
1, 54537, Note_on_c, 0, 57, 0
1, 54537, Note_on_c, 0, 59, 82
1, 54720, Control_c, 0, 64, 0
1, 54931, Note_on_c, 0, 66, 0
1, 54931, Note_on_c, 0, 63, 0
1, 54931, Note_on_c, 0, 71, 0
1, 54934, Note_on_c, 0, 64, 77
1, 54934, Note_on_c, 0, 67, 77
1, 54934, Note_on_c, 0, 76, 92
1, 54937, Note_on_c, 0, 47, 0
1, 54937, Note_on_c, 0, 59, 0
1, 54937, Note_on_c, 0, 48, 68
1, 54940, Note_on_c, 0, 55, 68
1, 54940, Note_on_c, 0, 60, 77
1, 55162, Control_c, 0, 64, 127
1, 55674, Note_on_c, 0, 76, 0
1, 55674, Note_on_c, 0, 74, 82
1, 55689, Control_c, 0, 64, 0
1, 55910, Control_c, 0, 64, 127
1, 56028, Note_on_c, 0, 74, 0
1, 56028, Note_on_c, 0, 72, 72
1, 56399, Note_on_c, 0, 72, 0
1, 56399, Note_on_c, 0, 71, 79
1, 56758, Note_on_c, 0, 71, 0
1, 56758, Note_on_c, 0, 70, 70
1, 57142, Note_on_c, 0, 70, 0
1, 57142, Note_on_c, 0, 67, 0
1, 57142, Note_on_c, 0, 64, 0
1, 57145, Note_on_c, 0, 48, 0
1, 57145, Note_on_c, 0, 55, 0
1, 57145, Note_on_c, 0, 60, 0
1, 57148, Control_c, 0, 64, 0
1, 57270, Control_c, 0, 64, 127
1, 57281, Note_on_c, 0, 40, 57
1, 57407, Note_on_c, 0, 40, 0
1, 57407, Note_on_c, 0, 47, 56
1, 57520, Note_on_c, 0, 47, 0
1, 57520, Note_on_c, 0, 55, 65
1, 57634, Note_on_c, 0, 55, 0
1, 57634, Note_on_c, 0, 59, 61
1, 57747, Note_on_c, 0, 59, 0
1, 57747, Note_on_c, 0, 64, 63
1, 57861, Note_on_c, 0, 64, 0
1, 57861, Note_on_c, 0, 69, 67
1, 57973, Note_on_c, 0, 69, 0
1, 57973, Note_on_c, 0, 67, 61
1, 58085, Note_on_c, 0, 67, 0
1, 58085, Note_on_c, 0, 64, 61
1, 58192, Note_on_c, 0, 64, 0
1, 58192, Note_on_c, 0, 70, 65
1, 58296, Note_on_c, 0, 70, 0
1, 58296, Note_on_c, 0, 71, 61
1, 58398, Note_on_c, 0, 71, 0
1, 58398, Note_on_c, 0, 76, 61
1, 58499, Note_on_c, 0, 76, 0
1, 58499, Note_on_c, 0, 78, 65
1, 58599, Note_on_c, 0, 78, 0
1, 58599, Note_on_c, 0, 79, 61
1, 58699, Note_on_c, 0, 79, 0
1, 58699, Note_on_c, 0, 83, 61
1, 58800, Note_on_c, 0, 83, 0
1, 58800, Note_on_c, 0, 88, 68
1, 58933, Control_c, 0, 64, 0
1, 58985, Note_on_c, 0, 88, 0
1, 59162, Note_on_c, 0, 64, 77
1, 59162, Note_on_c, 0, 67, 77
1, 59162, Note_on_c, 0, 76, 92
1, 59165, Note_on_c, 0, 48, 68
1, 59165, Note_on_c, 0, 55, 68
1, 59165, Note_on_c, 0, 60, 77
1, 59485, Control_c, 0, 64, 127
1, 59875, Note_on_c, 0, 76, 0
1, 59875, Note_on_c, 0, 74, 85
1, 59890, Control_c, 0, 64, 0
1, 60005, Control_c, 0, 64, 127
1, 60218, Note_on_c, 0, 74, 0
1, 60218, Note_on_c, 0, 72, 75
1, 60596, Note_on_c, 0, 72, 0
1, 60596, Note_on_c, 0, 71, 79
1, 60955, Note_on_c, 0, 71, 0
1, 60955, Note_on_c, 0, 70, 69
1, 61343, Note_on_c, 0, 70, 0
1, 61343, Note_on_c, 0, 64, 0
1, 61343, Note_on_c, 0, 67, 0
1, 61346, Note_on_c, 0, 48, 0
1, 61346, Note_on_c, 0, 55, 0
1, 61346, Note_on_c, 0, 60, 0
1, 61349, Control_c, 0, 64, 0
1, 61447, Control_c, 0, 64, 127
1, 61482, Note_on_c, 0, 40, 57
1, 61611, Note_on_c, 0, 40, 0
1, 61611, Note_on_c, 0, 47, 56
1, 61727, Note_on_c, 0, 47, 0
1, 61727, Note_on_c, 0, 55, 65
1, 61843, Note_on_c, 0, 55, 0
1, 61843, Note_on_c, 0, 59, 61
1, 61959, Note_on_c, 0, 59, 0
1, 61959, Note_on_c, 0, 64, 63
1, 62075, Note_on_c, 0, 64, 0
1, 62075, Note_on_c, 0, 69, 67
1, 62190, Note_on_c, 0, 69, 0
1, 62190, Note_on_c, 0, 67, 61
1, 62305, Note_on_c, 0, 67, 0
1, 62305, Note_on_c, 0, 64, 61
1, 62419, Note_on_c, 0, 64, 0
1, 62419, Note_on_c, 0, 60, 65
1, 62529, Note_on_c, 0, 60, 0
1, 62529, Note_on_c, 0, 59, 61
1, 62638, Note_on_c, 0, 59, 0
1, 62638, Note_on_c, 0, 55, 61
1, 62744, Note_on_c, 0, 55, 0
1, 62744, Note_on_c, 0, 48, 64
1, 62848, Note_on_c, 0, 48, 0
1, 62848, Note_on_c, 0, 47, 61
1, 62951, Note_on_c, 0, 47, 0
1, 62951, Note_on_c, 0, 43, 60
1, 63053, Note_on_c, 0, 43, 0
1, 63053, Note_on_c, 0, 40, 68
1, 63275, Control_c, 0, 64, 0
1, 63407, Note_on_c, 0, 64, 77
1, 63407, Note_on_c, 0, 67, 77
1, 63407, Note_on_c, 0, 76, 92
1, 63410, Note_on_c, 0, 40, 0
1, 63410, Note_on_c, 0, 48, 68
1, 63410, Note_on_c, 0, 55, 68
1, 63413, Note_on_c, 0, 60, 77
1, 63667, Control_c, 0, 64, 127
1, 64137, Note_on_c, 0, 76, 0
1, 64137, Note_on_c, 0, 74, 83
1, 64153, Control_c, 0, 64, 0
1, 64268, Control_c, 0, 64, 127
1, 64483, Note_on_c, 0, 74, 0
1, 64483, Note_on_c, 0, 72, 74
1, 64870, Note_on_c, 0, 72, 0
1, 64870, Note_on_c, 0, 71, 81
1, 65230, Note_on_c, 0, 71, 0
1, 65230, Note_on_c, 0, 70, 72
1, 65620, Note_on_c, 0, 70, 0
1, 65620, Note_on_c, 0, 64, 0
1, 65620, Note_on_c, 0, 67, 0
1, 65623, Note_on_c, 0, 48, 0
1, 65623, Note_on_c, 0, 55, 0
1, 65623, Note_on_c, 0, 60, 0
1, 65626, Control_c, 0, 64, 0
1, 65747, Control_c, 0, 64, 127
1, 65747, Note_on_c, 0, 40, 57
1, 65868, Note_on_c, 0, 40, 0
1, 65868, Note_on_c, 0, 47, 56
1, 65981, Note_on_c, 0, 47, 0
1, 65981, Note_on_c, 0, 55, 65
1, 66094, Note_on_c, 0, 55, 0
1, 66094, Note_on_c, 0, 59, 61
1, 66208, Note_on_c, 0, 59, 0
1, 66208, Note_on_c, 0, 64, 63
1, 66321, Note_on_c, 0, 64, 0
1, 66321, Note_on_c, 0, 69, 67
1, 66435, Note_on_c, 0, 69, 0
1, 66435, Note_on_c, 0, 67, 61
1, 66548, Note_on_c, 0, 67, 0
1, 66548, Note_on_c, 0, 64, 61
1, 66657, Note_on_c, 0, 64, 0
1, 66657, Note_on_c, 0, 70, 65
1, 66765, Note_on_c, 0, 70, 0
1, 66765, Note_on_c, 0, 71, 61
1, 66870, Note_on_c, 0, 71, 0
1, 66870, Note_on_c, 0, 76, 61
1, 66973, Note_on_c, 0, 76, 0
1, 66973, Note_on_c, 0, 78, 65
1, 67074, Note_on_c, 0, 78, 0
1, 67074, Note_on_c, 0, 79, 61
1, 67175, Note_on_c, 0, 79, 0
1, 67175, Note_on_c, 0, 83, 61
1, 67282, Note_on_c, 0, 83, 0
1, 67282, Note_on_c, 0, 88, 68
1, 67459, Control_c, 0, 64, 0
1, 67468, Note_on_c, 0, 88, 0
1, 67654, Note_on_c, 0, 64, 77
1, 67654, Note_on_c, 0, 67, 77
1, 67654, Note_on_c, 0, 76, 92
1, 67657, Note_on_c, 0, 48, 68
1, 67657, Note_on_c, 0, 55, 68
1, 67657, Note_on_c, 0, 60, 77
1, 67883, Control_c, 0, 64, 127
1, 68391, Note_on_c, 0, 76, 0
1, 68391, Note_on_c, 0, 74, 88
1, 68458, Control_c, 0, 64, 0
1, 68625, Control_c, 0, 64, 127
1, 68742, Note_on_c, 0, 74, 0
1, 68742, Note_on_c, 0, 72, 82
1, 69129, Note_on_c, 0, 72, 0
1, 69129, Note_on_c, 0, 71, 88
1, 69491, Note_on_c, 0, 71, 0
1, 69491, Note_on_c, 0, 70, 81
1, 69736, Control_c, 0, 64, 0
1, 69885, Note_on_c, 0, 70, 0
1, 69885, Note_on_c, 0, 64, 0
1, 69885, Note_on_c, 0, 67, 0
1, 69888, Note_on_c, 0, 48, 0
1, 69888, Note_on_c, 0, 55, 0
1, 69888, Note_on_c, 0, 60, 0
1, 70254, Note_on_c, 0, 76, 89
1, 70622, Note_on_c, 0, 76, 0
1, 70622, Note_on_c, 0, 64, 84
1, 70622, Note_on_c, 0, 67, 90
1, 70625, Note_on_c, 0, 74, 97
1, 70625, Note_on_c, 0, 48, 68
1, 70625, Note_on_c, 0, 55, 68
1, 70628, Note_on_c, 0, 60, 79
1, 70858, Control_c, 0, 64, 127
1, 70976, Note_on_c, 0, 74, 0
1, 70976, Note_on_c, 0, 72, 91
1, 71360, Note_on_c, 0, 72, 0
1, 71360, Note_on_c, 0, 71, 102
1, 71722, Note_on_c, 0, 71, 0
1, 71722, Note_on_c, 0, 70, 102
1, 72113, Note_on_c, 0, 70, 0
1, 72113, Note_on_c, 0, 67, 0
1, 72113, Note_on_c, 0, 64, 0
1, 72116, Note_on_c, 0, 60, 0
1, 72116, Note_on_c, 0, 55, 0
1, 72116, Note_on_c, 0, 77, 105
1, 72119, Note_on_c, 0, 48, 0
1, 72119, Control_c, 0, 64, 0
1, 72164, Control_c, 0, 64, 127
1, 72240, Note_on_c, 0, 49, 88
1, 72367, Note_on_c, 0, 56, 88
1, 72493, Note_on_c, 0, 56, 0
1, 72493, Note_on_c, 0, 61, 93
1, 72616, Note_on_c, 0, 61, 0
1, 72616, Note_on_c, 0, 49, 0
1, 72616, Note_on_c, 0, 65, 88
1, 72735, Note_on_c, 0, 65, 0
1, 72735, Note_on_c, 0, 68, 88
1, 72852, Note_on_c, 0, 68, 0
1, 72852, Note_on_c, 0, 77, 0
1, 72852, Note_on_c, 0, 70, 107
1, 72883, Control_c, 0, 64, 0
1, 72965, Control_c, 0, 64, 127
1, 72969, Note_on_c, 0, 49, 89
1, 73086, Note_on_c, 0, 51, 89
1, 73203, Note_on_c, 0, 51, 0
1, 73203, Note_on_c, 0, 58, 93
1, 73321, Note_on_c, 0, 58, 0
1, 73321, Note_on_c, 0, 49, 0
1, 73321, Note_on_c, 0, 63, 85
1, 73433, Note_on_c, 0, 63, 0
1, 73433, Note_on_c, 0, 67, 85
1, 73541, Note_on_c, 0, 67, 0
1, 73541, Note_on_c, 0, 70, 0
1, 73541, Note_on_c, 0, 75, 107
1, 73567, Control_c, 0, 64, 0
1, 73657, Note_on_c, 0, 48, 90
1, 73670, Control_c, 0, 64, 127
1, 73773, Note_on_c, 0, 51, 90
1, 73889, Note_on_c, 0, 51, 0
1, 73889, Note_on_c, 0, 60, 93
1, 74003, Note_on_c, 0, 60, 0
1, 74003, Note_on_c, 0, 48, 0
1, 74003, Note_on_c, 0, 63, 88
1, 74113, Note_on_c, 0, 63, 0
1, 74113, Note_on_c, 0, 68, 88
1, 74207, Note_on_c, 0, 68, 0
1, 74220, Note_on_c, 0, 75, 0
1, 74220, Note_on_c, 0, 68, 107
1, 74247, Control_c, 0, 64, 0
1, 74335, Note_on_c, 0, 46, 90
1, 74348, Control_c, 0, 64, 127
1, 74450, Note_on_c, 0, 53, 90
1, 74564, Note_on_c, 0, 53, 0
1, 74564, Note_on_c, 0, 58, 93
1, 74675, Note_on_c, 0, 58, 0
1, 74675, Note_on_c, 0, 46, 0
1, 74675, Note_on_c, 0, 61, 88
1, 74790, Note_on_c, 0, 61, 0
1, 74790, Note_on_c, 0, 65, 88
1, 74816, Control_c, 0, 64, 0
1, 74913, Note_on_c, 0, 65, 0
1, 74913, Note_on_c, 0, 68, 0
1, 74913, Note_on_c, 0, 67, 98
1, 75267, Note_on_c, 0, 68, 89
1, 75295, Note_on_c, 0, 67, 0
1, 75610, Note_on_c, 0, 61, 69
1, 75610, Note_on_c, 0, 63, 69
1, 75610, Note_on_c, 0, 72, 89
1, 75613, Note_on_c, 0, 51, 61
1, 75613, Note_on_c, 0, 55, 61
1, 75640, Note_on_c, 0, 68, 0
1, 75731, Control_c, 0, 64, 127
1, 75972, Note_on_c, 0, 70, 70
1, 76005, Note_on_c, 0, 72, 0
1, 76370, Note_on_c, 0, 63, 0
1, 76370, Note_on_c, 0, 61, 0
1, 76370, Note_on_c, 0, 70, 0
1, 76373, Note_on_c, 0, 55, 0
1, 76373, Note_on_c, 0, 51, 0
1, 76373, Note_on_c, 0, 77, 104
1, 76376, Control_c, 0, 64, 0
1, 76497, Note_on_c, 0, 49, 88
1, 76506, Control_c, 0, 64, 127
1, 76624, Note_on_c, 0, 56, 88
1, 76741, Note_on_c, 0, 56, 0
1, 76741, Note_on_c, 0, 61, 93
1, 76854, Note_on_c, 0, 61, 0
1, 76854, Note_on_c, 0, 49, 0
1, 76854, Note_on_c, 0, 65, 88
1, 76965, Note_on_c, 0, 65, 0
1, 76965, Note_on_c, 0, 68, 88
1, 77073, Note_on_c, 0, 68, 0
1, 77073, Note_on_c, 0, 77, 0
1, 77073, Note_on_c, 0, 70, 106
1, 77098, Control_c, 0, 64, 0
1, 77186, Control_c, 0, 64, 127
1, 77190, Note_on_c, 0, 49, 89
1, 77307, Note_on_c, 0, 51, 89
1, 77423, Note_on_c, 0, 51, 0
1, 77423, Note_on_c, 0, 58, 93
1, 77532, Note_on_c, 0, 58, 0
1, 77532, Note_on_c, 0, 49, 0
1, 77532, Note_on_c, 0, 63, 85
1, 77638, Note_on_c, 0, 63, 0
1, 77638, Note_on_c, 0, 67, 85
1, 77740, Note_on_c, 0, 67, 0
1, 77740, Note_on_c, 0, 70, 0
1, 77740, Note_on_c, 0, 75, 109
1, 77767, Control_c, 0, 64, 0
1, 77856, Note_on_c, 0, 48, 90
1, 77869, Control_c, 0, 64, 127
1, 77972, Note_on_c, 0, 51, 90
1, 78086, Note_on_c, 0, 51, 0
1, 78086, Note_on_c, 0, 60, 93
1, 78192, Note_on_c, 0, 60, 0
1, 78192, Note_on_c, 0, 48, 0
1, 78192, Note_on_c, 0, 63, 88
1, 78293, Note_on_c, 0, 63, 0
1, 78293, Note_on_c, 0, 68, 88
1, 78426, Note_on_c, 0, 68, 0
1, 78426, Note_on_c, 0, 75, 0
1, 78426, Note_on_c, 0, 80, 110
1, 78454, Control_c, 0, 64, 0
1, 78500, Control_c, 0, 64, 127
1, 78541, Note_on_c, 0, 53, 88
1, 78657, Note_on_c, 0, 60, 88
1, 78771, Note_on_c, 0, 60, 0
1, 78771, Note_on_c, 0, 65, 93
1, 78881, Note_on_c, 0, 65, 0
1, 78881, Note_on_c, 0, 53, 0
1, 78881, Note_on_c, 0, 68, 88
1, 78988, Note_on_c, 0, 68, 0
1, 78988, Note_on_c, 0, 72, 88
1, 79091, Note_on_c, 0, 72, 0
1, 79091, Note_on_c, 0, 80, 0
1, 79091, Note_on_c, 0, 74, 107
1, 79120, Control_c, 0, 64, 0
1, 79202, Control_c, 0, 64, 127
1, 79207, Note_on_c, 0, 53, 89
1, 79322, Note_on_c, 0, 55, 89
1, 79434, Note_on_c, 0, 55, 0
1, 79434, Note_on_c, 0, 62, 93
1, 79543, Note_on_c, 0, 62, 0
1, 79543, Note_on_c, 0, 53, 0
1, 79543, Note_on_c, 0, 67, 85
1, 79648, Note_on_c, 0, 67, 0
1, 79648, Note_on_c, 0, 71, 85
1, 79751, Note_on_c, 0, 71, 0
1, 79751, Note_on_c, 0, 74, 0
1, 79751, Note_on_c, 0, 79, 109
1, 79783, Control_c, 0, 64, 0
1, 79866, Note_on_c, 0, 51, 90
1, 79879, Control_c, 0, 64, 127
1, 79982, Note_on_c, 0, 55, 90
1, 80097, Note_on_c, 0, 55, 0
1, 80097, Note_on_c, 0, 63, 93
1, 80207, Note_on_c, 0, 63, 0
1, 80207, Note_on_c, 0, 51, 0
1, 80207, Note_on_c, 0, 67, 88
1, 80315, Note_on_c, 0, 67, 0
1, 80315, Note_on_c, 0, 72, 88
1, 80419, Note_on_c, 0, 72, 0
1, 80419, Note_on_c, 0, 79, 0
1, 80419, Note_on_c, 0, 71, 104
1, 80448, Control_c, 0, 64, 0
1, 80534, Note_on_c, 0, 49, 88
1, 80547, Control_c, 0, 64, 127
1, 80649, Note_on_c, 0, 49, 0
1, 80649, Note_on_c, 0, 55, 88
1, 80765, Note_on_c, 0, 55, 0
1, 80765, Note_on_c, 0, 61, 89
1, 80878, Note_on_c, 0, 61, 0
1, 80878, Note_on_c, 0, 59, 85
1, 80990, Note_on_c, 0, 59, 0
1, 80990, Note_on_c, 0, 65, 85
1, 81013, Control_c, 0, 64, 0
1, 81099, Note_on_c, 0, 65, 0
1, 81099, Note_on_c, 0, 71, 0
1, 81099, Note_on_c, 0, 70, 100
1, 81432, Note_on_c, 0, 71, 96
1, 81460, Note_on_c, 0, 70, 0
1, 81765, Note_on_c, 0, 64, 83
1, 81765, Note_on_c, 0, 67, 89
1, 81765, Note_on_c, 0, 76, 89
1, 81768, Note_on_c, 0, 48, 75
1, 81768, Note_on_c, 0, 55, 75
1, 81768, Note_on_c, 0, 60, 75
1, 81793, Note_on_c, 0, 71, 0
1, 81878, Control_c, 0, 64, 127
1, 82105, Note_on_c, 0, 72, 76
1, 82135, Note_on_c, 0, 76, 0
1, 82468, Note_on_c, 0, 67, 0
1, 82468, Note_on_c, 0, 64, 0
1, 82468, Note_on_c, 0, 72, 0
1, 82471, Note_on_c, 0, 60, 0
1, 82471, Note_on_c, 0, 55, 0
1, 82471, Note_on_c, 0, 71, 104
1, 82474, Note_on_c, 0, 48, 0
1, 82482, Control_c, 0, 64, 0
1, 82583, Note_on_c, 0, 49, 88
1, 82596, Control_c, 0, 64, 127
1, 82698, Note_on_c, 0, 49, 0
1, 82698, Note_on_c, 0, 55, 88
1, 82812, Note_on_c, 0, 55, 0
1, 82812, Note_on_c, 0, 61, 89
1, 82922, Note_on_c, 0, 61, 0
1, 82922, Note_on_c, 0, 59, 85
1, 83029, Note_on_c, 0, 59, 0
1, 83029, Note_on_c, 0, 65, 85
1, 83137, Note_on_c, 0, 65, 0
1, 83137, Note_on_c, 0, 71, 0
1, 83137, Note_on_c, 0, 70, 100
1, 83162, Control_c, 0, 64, 0
1, 83491, Note_on_c, 0, 71, 89
1, 83526, Note_on_c, 0, 70, 0
1, 83648, Note_on_c, 0, 71, 0
1, 83648, Note_on_c, 0, 48, 75
1, 83648, Control_c, 0, 64, 127
1, 83701, Note_on_c, 0, 55, 75
1, 83753, Note_on_c, 0, 64, 75
1, 83806, Note_on_c, 0, 67, 96
1, 83858, Note_on_c, 0, 72, 96
1, 83911, Note_on_c, 0, 79, 102
1, 84126, Note_on_c, 0, 79, 0
1, 84126, Note_on_c, 0, 76, 95
1, 84358, Note_on_c, 0, 76, 0
1, 84358, Note_on_c, 0, 72, 95
1, 84612, Note_on_c, 0, 72, 0
1, 84612, Note_on_c, 0, 67, 0
1, 84612, Note_on_c, 0, 72, 0
1, 84615, Note_on_c, 0, 55, 0
1, 84615, Note_on_c, 0, 64, 0
1, 84615, Note_on_c, 0, 71, 104
1, 84618, Note_on_c, 0, 48, 0
1, 84627, Control_c, 0, 64, 0
1, 84727, Note_on_c, 0, 49, 88
1, 84740, Control_c, 0, 64, 127
1, 84843, Note_on_c, 0, 49, 0
1, 84843, Note_on_c, 0, 55, 88
1, 84958, Note_on_c, 0, 55, 0
1, 84958, Note_on_c, 0, 61, 89
1, 85072, Note_on_c, 0, 61, 0
1, 85072, Note_on_c, 0, 59, 85
1, 85184, Note_on_c, 0, 59, 0
1, 85184, Note_on_c, 0, 65, 85
1, 85293, Control_c, 0, 64, 0
1, 85297, Note_on_c, 0, 65, 0
1, 85297, Note_on_c, 0, 71, 0
1, 85297, Note_on_c, 0, 70, 102
1, 85643, Note_on_c, 0, 71, 96
1, 85671, Note_on_c, 0, 70, 0
1, 86003, Note_on_c, 0, 64, 81
1, 86003, Note_on_c, 0, 67, 88
1, 86003, Note_on_c, 0, 76, 97
1, 86006, Note_on_c, 0, 48, 67
1, 86006, Note_on_c, 0, 55, 67
1, 86006, Note_on_c, 0, 60, 76
1, 86031, Note_on_c, 0, 71, 0
1, 86115, Control_c, 0, 64, 127
1, 86337, Note_on_c, 0, 72, 78
1, 86367, Note_on_c, 0, 76, 0
1, 86699, Note_on_c, 0, 67, 0
1, 86699, Note_on_c, 0, 64, 0
1, 86699, Note_on_c, 0, 72, 0
1, 86702, Note_on_c, 0, 60, 0
1, 86702, Note_on_c, 0, 55, 0
1, 86702, Note_on_c, 0, 71, 106
1, 86705, Note_on_c, 0, 48, 0
1, 86713, Control_c, 0, 64, 0
1, 86814, Note_on_c, 0, 49, 88
1, 86827, Control_c, 0, 64, 127
1, 86930, Note_on_c, 0, 49, 0
1, 86930, Note_on_c, 0, 55, 88
1, 87045, Note_on_c, 0, 55, 0
1, 87045, Note_on_c, 0, 61, 89
1, 87160, Note_on_c, 0, 61, 0
1, 87160, Note_on_c, 0, 59, 85
1, 87271, Note_on_c, 0, 59, 0
1, 87271, Note_on_c, 0, 65, 85
1, 87383, Note_on_c, 0, 65, 0
1, 87383, Note_on_c, 0, 71, 0
1, 87383, Note_on_c, 0, 70, 103
1, 87387, Control_c, 0, 64, 0
1, 87729, Note_on_c, 0, 70, 0
1, 87729, Note_on_c, 0, 71, 89
1, 87897, Note_on_c, 0, 71, 0
1, 87897, Note_on_c, 0, 71, 83
1, 87954, Note_on_c, 0, 71, 0
1, 87954, Note_on_c, 0, 72, 89
1, 88010, Note_on_c, 0, 72, 0
1, 88010, Note_on_c, 0, 71, 82
1, 88066, Note_on_c, 0, 71, 0
1, 88066, Note_on_c, 0, 70, 89
1, 88122, Note_on_c, 0, 70, 0
1, 88122, Note_on_c, 0, 71, 82
1, 88178, Note_on_c, 0, 71, 0
1, 88178, Note_on_c, 0, 80, 102
1, 88260, Control_c, 0, 64, 127
1, 88409, Note_on_c, 0, 80, 0
1, 88409, Note_on_c, 0, 79, 95
1, 88781, Note_on_c, 0, 79, 0
1, 88781, Note_on_c, 0, 77, 95
1, 88917, Note_on_c, 0, 77, 0
1, 88917, Note_on_c, 0, 77, 113
1, 88932, Control_c, 0, 64, 0
1, 89036, Note_on_c, 0, 48, 88
1, 89050, Control_c, 0, 64, 127
1, 89155, Note_on_c, 0, 55, 88
1, 89273, Note_on_c, 0, 55, 0
1, 89273, Note_on_c, 0, 64, 89
1, 89392, Note_on_c, 0, 64, 0
1, 89392, Note_on_c, 0, 48, 0
1, 89392, Note_on_c, 0, 67, 85
1, 89513, Note_on_c, 0, 67, 0
1, 89513, Note_on_c, 0, 72, 85
1, 89637, Note_on_c, 0, 72, 0
1, 89637, Note_on_c, 0, 77, 0
1, 89637, Note_on_c, 0, 76, 106
1, 89654, Control_c, 0, 64, 0
1, 89697, Control_c, 0, 64, 127
1, 89763, Note_on_c, 0, 75, 96
1, 89890, Note_on_c, 0, 75, 0
1, 89890, Note_on_c, 0, 76, 83
1, 90018, Note_on_c, 0, 76, 0
1, 90018, Note_on_c, 0, 76, 0
1, 90018, Note_on_c, 0, 79, 83
1, 90147, Note_on_c, 0, 79, 0
1, 90147, Note_on_c, 0, 78, 82
1, 90278, Note_on_c, 0, 78, 0
1, 90278, Note_on_c, 0, 79, 75
1, 90429, Note_on_c, 0, 79, 0
1, 90429, Note_on_c, 0, 84, 82
1, 90448, Control_c, 0, 64, 0
1, 90537, Control_c, 0, 64, 127
1, 90824, Control_c, 0, 64, 0
1, 90883, Note_on_c, 0, 84, 0
1, 91337, Note_on_c, 0, 64, 77
1, 91337, Note_on_c, 0, 67, 77
1, 91337, Note_on_c, 0, 76, 92
1, 91340, Note_on_c, 0, 48, 68
1, 91340, Note_on_c, 0, 55, 68
1, 91340, Note_on_c, 0, 60, 77
1, 91568, Control_c, 0, 64, 127
1, 92080, Note_on_c, 0, 76, 0
1, 92080, Note_on_c, 0, 74, 83
1, 92094, Control_c, 0, 64, 0
1, 92316, Control_c, 0, 64, 127
1, 92433, Note_on_c, 0, 74, 0
1, 92433, Note_on_c, 0, 72, 74
1, 92805, Note_on_c, 0, 72, 0
1, 92805, Note_on_c, 0, 71, 82
1, 93164, Note_on_c, 0, 71, 0
1, 93164, Note_on_c, 0, 70, 68
1, 93548, Note_on_c, 0, 70, 0
1, 93548, Note_on_c, 0, 64, 0
1, 93548, Note_on_c, 0, 67, 0
1, 93551, Note_on_c, 0, 48, 0
1, 93551, Note_on_c, 0, 55, 0
1, 93551, Note_on_c, 0, 60, 0
1, 93554, Control_c, 0, 64, 0
1, 93691, Control_c, 0, 64, 127
1, 93702, Note_on_c, 0, 40, 57
1, 93836, Note_on_c, 0, 40, 0
1, 93836, Note_on_c, 0, 47, 56
1, 93950, Note_on_c, 0, 47, 0
1, 93950, Note_on_c, 0, 55, 65
1, 94063, Note_on_c, 0, 55, 0
1, 94063, Note_on_c, 0, 59, 61
1, 94177, Note_on_c, 0, 59, 0
1, 94177, Note_on_c, 0, 64, 63
1, 94289, Note_on_c, 0, 64, 0
1, 94289, Note_on_c, 0, 69, 67
1, 94396, Note_on_c, 0, 69, 0
1, 94396, Note_on_c, 0, 67, 61
1, 94502, Note_on_c, 0, 67, 0
1, 94502, Note_on_c, 0, 64, 61
1, 94606, Note_on_c, 0, 64, 0
1, 94606, Note_on_c, 0, 70, 65
1, 94709, Note_on_c, 0, 70, 0
1, 94709, Note_on_c, 0, 71, 61
1, 94810, Note_on_c, 0, 71, 0
1, 94810, Note_on_c, 0, 76, 61
1, 94910, Note_on_c, 0, 76, 0
1, 94910, Note_on_c, 0, 78, 65
1, 95008, Note_on_c, 0, 78, 0
1, 95008, Note_on_c, 0, 79, 61
1, 95107, Note_on_c, 0, 79, 0
1, 95107, Note_on_c, 0, 83, 61
1, 95208, Note_on_c, 0, 83, 0
1, 95208, Note_on_c, 0, 88, 68
1, 95383, Control_c, 0, 64, 0
1, 95392, Note_on_c, 0, 88, 0
1, 95570, Note_on_c, 0, 64, 77
1, 95570, Note_on_c, 0, 67, 77
1, 95570, Note_on_c, 0, 76, 92
1, 95573, Note_on_c, 0, 48, 68
1, 95573, Note_on_c, 0, 55, 68
1, 95573, Note_on_c, 0, 60, 77
1, 95892, Control_c, 0, 64, 127
1, 96283, Note_on_c, 0, 76, 0
1, 96283, Note_on_c, 0, 74, 83
1, 96299, Control_c, 0, 64, 0
1, 96413, Control_c, 0, 64, 127
1, 96626, Note_on_c, 0, 74, 0
1, 96626, Note_on_c, 0, 72, 72
1, 97003, Note_on_c, 0, 72, 0
1, 97003, Note_on_c, 0, 71, 81
1, 97363, Note_on_c, 0, 71, 0
1, 97363, Note_on_c, 0, 70, 70
1, 97750, Note_on_c, 0, 70, 0
1, 97750, Note_on_c, 0, 64, 0
1, 97750, Note_on_c, 0, 67, 0
1, 97753, Note_on_c, 0, 48, 0
1, 97753, Note_on_c, 0, 55, 0
1, 97753, Note_on_c, 0, 60, 0
1, 97756, Control_c, 0, 64, 0
1, 97855, Control_c, 0, 64, 127
1, 97890, Note_on_c, 0, 40, 57
1, 98017, Note_on_c, 0, 40, 0
1, 98017, Note_on_c, 0, 47, 56
1, 98130, Note_on_c, 0, 47, 0
1, 98130, Note_on_c, 0, 55, 65
1, 98244, Note_on_c, 0, 55, 0
1, 98244, Note_on_c, 0, 59, 61
1, 98357, Note_on_c, 0, 59, 0
1, 98357, Note_on_c, 0, 64, 63
1, 98471, Note_on_c, 0, 64, 0
1, 98471, Note_on_c, 0, 69, 67
1, 98581, Note_on_c, 0, 69, 0
1, 98581, Note_on_c, 0, 67, 61
1, 98692, Note_on_c, 0, 67, 0
1, 98692, Note_on_c, 0, 64, 61
1, 98802, Note_on_c, 0, 64, 0
1, 98802, Note_on_c, 0, 60, 65
1, 98911, Note_on_c, 0, 60, 0
1, 98911, Note_on_c, 0, 59, 61
1, 99018, Note_on_c, 0, 59, 0
1, 99018, Note_on_c, 0, 55, 61
1, 99122, Note_on_c, 0, 55, 0
1, 99122, Note_on_c, 0, 48, 64
1, 99225, Note_on_c, 0, 48, 0
1, 99225, Note_on_c, 0, 47, 61
1, 99326, Note_on_c, 0, 47, 0
1, 99326, Note_on_c, 0, 43, 60
1, 99427, Note_on_c, 0, 43, 0
1, 99427, Note_on_c, 0, 40, 68
1, 99680, Control_c, 0, 64, 0
1, 99782, Note_on_c, 0, 64, 77
1, 99782, Note_on_c, 0, 67, 77
1, 99782, Note_on_c, 0, 76, 92
1, 99785, Note_on_c, 0, 40, 0
1, 99785, Note_on_c, 0, 48, 68
1, 99785, Note_on_c, 0, 55, 68
1, 99788, Note_on_c, 0, 60, 77
1, 100042, Control_c, 0, 64, 127
1, 100512, Note_on_c, 0, 76, 0
1, 100512, Note_on_c, 0, 74, 86
1, 100526, Control_c, 0, 64, 0
1, 100643, Control_c, 0, 64, 127
1, 100858, Note_on_c, 0, 74, 0
1, 100858, Note_on_c, 0, 72, 74
1, 101245, Note_on_c, 0, 72, 0
1, 101245, Note_on_c, 0, 71, 79
1, 101604, Note_on_c, 0, 71, 0
1, 101604, Note_on_c, 0, 70, 72
1, 102017, Note_on_c, 0, 70, 0
1, 102017, Note_on_c, 0, 64, 0
1, 102017, Note_on_c, 0, 67, 0
1, 102020, Note_on_c, 0, 48, 0
1, 102020, Note_on_c, 0, 55, 0
1, 102020, Note_on_c, 0, 60, 0
1, 102023, Control_c, 0, 64, 0
1, 102168, Control_c, 0, 64, 127
1, 102168, Note_on_c, 0, 40, 57
1, 102300, Note_on_c, 0, 40, 0
1, 102300, Note_on_c, 0, 47, 56
1, 102414, Note_on_c, 0, 47, 0
1, 102414, Note_on_c, 0, 55, 65
1, 102527, Note_on_c, 0, 55, 0
1, 102527, Note_on_c, 0, 59, 61
1, 102641, Note_on_c, 0, 59, 0
1, 102641, Note_on_c, 0, 64, 63
1, 102754, Note_on_c, 0, 64, 0
1, 102754, Note_on_c, 0, 69, 67
1, 102863, Note_on_c, 0, 69, 0
1, 102863, Note_on_c, 0, 67, 61
1, 102971, Note_on_c, 0, 67, 0
1, 102971, Note_on_c, 0, 64, 61
1, 103077, Note_on_c, 0, 64, 0
1, 103077, Note_on_c, 0, 70, 65
1, 103182, Note_on_c, 0, 70, 0
1, 103182, Note_on_c, 0, 71, 61
1, 103285, Note_on_c, 0, 71, 0
1, 103285, Note_on_c, 0, 76, 61
1, 103387, Note_on_c, 0, 76, 0
1, 103387, Note_on_c, 0, 78, 65
1, 103489, Note_on_c, 0, 78, 0
1, 103489, Note_on_c, 0, 79, 61
1, 103590, Note_on_c, 0, 79, 0
1, 103590, Note_on_c, 0, 83, 61
1, 103696, Note_on_c, 0, 83, 0
1, 103696, Note_on_c, 0, 88, 68
1, 103873, Control_c, 0, 64, 0
1, 103882, Note_on_c, 0, 88, 0
1, 104069, Note_on_c, 0, 76, 96
1, 104297, Control_c, 0, 64, 127
1, 104805, Note_on_c, 0, 76, 0
1, 104805, Note_on_c, 0, 64, 70
1, 104805, Note_on_c, 0, 67, 70
1, 104808, Note_on_c, 0, 74, 88
1, 104808, Note_on_c, 0, 48, 63
1, 104808, Note_on_c, 0, 55, 63
1, 104811, Note_on_c, 0, 60, 70
1, 104820, Control_c, 0, 64, 0
1, 105039, Control_c, 0, 64, 127
1, 105156, Note_on_c, 0, 74, 0
1, 105156, Note_on_c, 0, 72, 77
1, 105544, Note_on_c, 0, 72, 0
1, 105544, Note_on_c, 0, 71, 83
1, 105906, Note_on_c, 0, 71, 0
1, 105906, Note_on_c, 0, 70, 81
1, 106151, Control_c, 0, 64, 0
1, 106300, Note_on_c, 0, 70, 0
1, 106300, Note_on_c, 0, 67, 0
1, 106300, Note_on_c, 0, 64, 0
1, 106303, Note_on_c, 0, 48, 0
1, 106303, Note_on_c, 0, 55, 0
1, 106303, Note_on_c, 0, 60, 0
1, 106668, Note_on_c, 0, 76, 89
1, 107037, Note_on_c, 0, 76, 0
1, 107037, Note_on_c, 0, 64, 75
1, 107037, Note_on_c, 0, 66, 83
1, 107040, Note_on_c, 0, 48, 70
1, 107040, Note_on_c, 0, 54, 70
1, 107040, Note_on_c, 0, 60, 83
1, 107272, Control_c, 0, 64, 127
1, 107390, Note_on_c, 0, 68, 97
1, 107774, Note_on_c, 0, 68, 0
1, 107774, Note_on_c, 0, 69, 99
1, 108137, Note_on_c, 0, 69, 0
1, 108137, Note_on_c, 0, 70, 104
1, 108379, Control_c, 0, 64, 0
1, 108527, Note_on_c, 0, 70, 0
1, 108527, Note_on_c, 0, 64, 0
1, 108527, Note_on_c, 0, 66, 0
1, 108530, Note_on_c, 0, 54, 0
1, 108530, Note_on_c, 0, 60, 0
1, 108530, Note_on_c, 0, 78, 106
1, 108533, Note_on_c, 0, 48, 0
1, 108559, Control_c, 0, 64, 127
1, 108654, Note_on_c, 0, 47, 88
1, 108781, Note_on_c, 0, 54, 88
1, 108908, Note_on_c, 0, 54, 0
1, 108908, Note_on_c, 0, 63, 93
1, 109031, Note_on_c, 0, 63, 0
1, 109031, Note_on_c, 0, 47, 0
1, 109031, Note_on_c, 0, 66, 88
1, 109150, Note_on_c, 0, 66, 0
1, 109150, Note_on_c, 0, 71, 88
1, 109267, Note_on_c, 0, 71, 0
1, 109267, Note_on_c, 0, 78, 0
1, 109267, Note_on_c, 0, 74, 106
1, 109281, Control_c, 0, 64, 0
1, 109379, Control_c, 0, 64, 127
1, 109384, Note_on_c, 0, 47, 89
1, 109500, Note_on_c, 0, 55, 89
1, 109617, Note_on_c, 0, 55, 0
1, 109617, Note_on_c, 0, 59, 93
1, 109735, Note_on_c, 0, 59, 0
1, 109735, Note_on_c, 0, 47, 0
1, 109735, Note_on_c, 0, 62, 85
1, 109848, Note_on_c, 0, 62, 0
1, 109848, Note_on_c, 0, 67, 85
1, 109956, Note_on_c, 0, 67, 0
1, 109956, Note_on_c, 0, 74, 0
1, 109956, Note_on_c, 0, 75, 107
1, 109970, Control_c, 0, 64, 0
1, 110072, Note_on_c, 0, 47, 90
1, 110085, Control_c, 0, 64, 127
1, 110188, Note_on_c, 0, 54, 90
1, 110304, Note_on_c, 0, 54, 0
1, 110304, Note_on_c, 0, 59, 93
1, 110418, Note_on_c, 0, 59, 0
1, 110418, Note_on_c, 0, 47, 0
1, 110418, Note_on_c, 0, 63, 88
1, 110528, Note_on_c, 0, 63, 0
1, 110528, Note_on_c, 0, 66, 88
1, 110621, Note_on_c, 0, 66, 0
1, 110634, Note_on_c, 0, 75, 0
1, 110634, Note_on_c, 0, 68, 104
1, 110647, Control_c, 0, 64, 0
1, 110739, Note_on_c, 0, 47, 90
1, 110751, Control_c, 0, 64, 127
1, 110844, Note_on_c, 0, 53, 90
1, 110948, Note_on_c, 0, 53, 0
1, 110948, Note_on_c, 0, 59, 93
1, 111062, Note_on_c, 0, 59, 0
1, 111062, Note_on_c, 0, 47, 0
1, 111062, Note_on_c, 0, 61, 88
1, 111179, Note_on_c, 0, 61, 0
1, 111179, Note_on_c, 0, 65, 88
1, 111204, Control_c, 0, 64, 0
1, 111299, Note_on_c, 0, 65, 0
1, 111299, Note_on_c, 0, 68, 0
1, 111299, Note_on_c, 0, 70, 103
1, 111645, Note_on_c, 0, 71, 96
1, 111674, Note_on_c, 0, 70, 0
1, 111996, Note_on_c, 0, 64, 64
1, 111996, Note_on_c, 0, 66, 71
1, 111996, Note_on_c, 0, 75, 102
1, 111999, Note_on_c, 0, 47, 64
1, 111999, Note_on_c, 0, 54, 64
1, 111999, Note_on_c, 0, 58, 64
1, 112025, Note_on_c, 0, 71, 0
1, 112111, Control_c, 0, 64, 127
1, 112342, Note_on_c, 0, 73, 84
1, 112372, Note_on_c, 0, 75, 0
1, 112704, Note_on_c, 0, 66, 0
1, 112704, Note_on_c, 0, 64, 0
1, 112704, Note_on_c, 0, 73, 0
1, 112707, Note_on_c, 0, 58, 0
1, 112707, Note_on_c, 0, 54, 0
1, 112707, Note_on_c, 0, 78, 104
1, 112710, Note_on_c, 0, 47, 0
1, 112710, Control_c, 0, 64, 0
1, 112806, Control_c, 0, 64, 127
1, 112822, Note_on_c, 0, 47, 88
1, 112940, Note_on_c, 0, 54, 88
1, 113055, Note_on_c, 0, 54, 0
1, 113055, Note_on_c, 0, 63, 93
1, 113165, Note_on_c, 0, 63, 0
1, 113165, Note_on_c, 0, 47, 0
1, 113165, Note_on_c, 0, 66, 88
1, 113273, Note_on_c, 0, 66, 0
1, 113273, Note_on_c, 0, 71, 88
1, 113378, Note_on_c, 0, 71, 0
1, 113378, Note_on_c, 0, 78, 0
1, 113378, Note_on_c, 0, 74, 107
1, 113408, Control_c, 0, 64, 0
1, 113487, Control_c, 0, 64, 127
1, 113491, Note_on_c, 0, 47, 89
1, 113604, Note_on_c, 0, 55, 89
1, 113716, Note_on_c, 0, 55, 0
1, 113716, Note_on_c, 0, 59, 93
1, 113824, Note_on_c, 0, 59, 0
1, 113824, Note_on_c, 0, 47, 0
1, 113824, Note_on_c, 0, 62, 85
1, 113931, Note_on_c, 0, 62, 0
1, 113931, Note_on_c, 0, 67, 85
1, 114039, Note_on_c, 0, 67, 0
1, 114039, Note_on_c, 0, 74, 0
1, 114039, Note_on_c, 0, 75, 109
1, 114066, Control_c, 0, 64, 0
1, 114153, Note_on_c, 0, 47, 90
1, 114166, Control_c, 0, 64, 127
1, 114266, Note_on_c, 0, 54, 90
1, 114380, Note_on_c, 0, 54, 0
1, 114380, Note_on_c, 0, 59, 93
1, 114489, Note_on_c, 0, 59, 0
1, 114489, Note_on_c, 0, 47, 0
1, 114489, Note_on_c, 0, 63, 88
1, 114595, Note_on_c, 0, 63, 0
1, 114595, Note_on_c, 0, 66, 88
1, 114686, Note_on_c, 0, 66, 0
1, 114698, Note_on_c, 0, 75, 0
1, 114698, Note_on_c, 0, 68, 104
1, 114809, Note_on_c, 0, 47, 90
1, 114821, Control_c, 0, 64, 127
1, 114919, Note_on_c, 0, 53, 90
1, 115029, Note_on_c, 0, 53, 0
1, 115029, Note_on_c, 0, 59, 93
1, 115138, Note_on_c, 0, 59, 0
1, 115138, Note_on_c, 0, 47, 0
1, 115138, Note_on_c, 0, 61, 88
1, 115250, Note_on_c, 0, 61, 0
1, 115250, Note_on_c, 0, 65, 88
1, 115264, Control_c, 0, 64, 0
1, 115274, Control_c, 0, 64, 0
1, 115366, Note_on_c, 0, 65, 0
1, 115366, Note_on_c, 0, 68, 0
1, 115366, Note_on_c, 0, 70, 100
1, 115689, Note_on_c, 0, 71, 88
1, 115717, Note_on_c, 0, 70, 0
1, 116027, Note_on_c, 0, 64, 64
1, 116027, Note_on_c, 0, 66, 71
1, 116027, Note_on_c, 0, 75, 102
1, 116030, Note_on_c, 0, 47, 64
1, 116030, Note_on_c, 0, 54, 64
1, 116030, Note_on_c, 0, 58, 64
1, 116055, Note_on_c, 0, 71, 0
1, 116138, Control_c, 0, 64, 127
1, 116360, Note_on_c, 0, 73, 84
1, 116390, Note_on_c, 0, 75, 0
1, 116722, Note_on_c, 0, 66, 0
1, 116722, Note_on_c, 0, 64, 0
1, 116722, Note_on_c, 0, 73, 0
1, 116725, Note_on_c, 0, 58, 0
1, 116725, Note_on_c, 0, 54, 0
1, 116725, Note_on_c, 0, 78, 107
1, 116728, Note_on_c, 0, 47, 0
1, 116728, Control_c, 0, 64, 0
1, 116796, Control_c, 0, 64, 127
1, 116838, Note_on_c, 0, 47, 88
1, 116953, Note_on_c, 0, 54, 88
1, 117068, Note_on_c, 0, 54, 0
1, 117068, Note_on_c, 0, 63, 93
1, 117180, Note_on_c, 0, 63, 0
1, 117180, Note_on_c, 0, 47, 0
1, 117180, Note_on_c, 0, 66, 88
1, 117290, Note_on_c, 0, 66, 0
1, 117290, Note_on_c, 0, 71, 88
1, 117400, Note_on_c, 0, 71, 0
1, 117400, Note_on_c, 0, 78, 0
1, 117400, Note_on_c, 0, 74, 107
1, 117429, Control_c, 0, 64, 0
1, 117510, Control_c, 0, 64, 127
1, 117514, Note_on_c, 0, 47, 89
1, 117629, Note_on_c, 0, 55, 89
1, 117743, Note_on_c, 0, 55, 0
1, 117743, Note_on_c, 0, 59, 93
1, 117854, Note_on_c, 0, 59, 0
1, 117854, Note_on_c, 0, 47, 0
1, 117854, Note_on_c, 0, 62, 85
1, 117964, Note_on_c, 0, 62, 0
1, 117964, Note_on_c, 0, 67, 85
1, 118073, Note_on_c, 0, 67, 0
1, 118073, Note_on_c, 0, 74, 0
1, 118073, Note_on_c, 0, 75, 109
1, 118101, Control_c, 0, 64, 0
1, 118184, Note_on_c, 0, 47, 90
1, 118196, Control_c, 0, 64, 127
1, 118295, Note_on_c, 0, 54, 90
1, 118405, Note_on_c, 0, 54, 0
1, 118405, Note_on_c, 0, 59, 93
1, 118515, Note_on_c, 0, 59, 0
1, 118515, Note_on_c, 0, 47, 0
1, 118515, Note_on_c, 0, 63, 88
1, 118622, Note_on_c, 0, 63, 0
1, 118622, Note_on_c, 0, 66, 88
1, 118719, Note_on_c, 0, 66, 0
1, 118734, Note_on_c, 0, 75, 0
1, 118734, Note_on_c, 0, 67, 106
1, 118761, Control_c, 0, 64, 0
1, 118811, Control_c, 0, 64, 127
1, 118849, Note_on_c, 0, 47, 88
1, 118964, Note_on_c, 0, 53, 88
1, 119079, Note_on_c, 0, 53, 0
1, 119079, Note_on_c, 0, 55, 93
1, 119191, Note_on_c, 0, 55, 0
1, 119191, Note_on_c, 0, 47, 0
1, 119191, Note_on_c, 0, 59, 88
1, 119302, Note_on_c, 0, 59, 0
1, 119302, Note_on_c, 0, 62, 88
1, 119413, Note_on_c, 0, 62, 0
1, 119413, Note_on_c, 0, 67, 0
1, 119413, Note_on_c, 0, 66, 107
1, 119440, Control_c, 0, 64, 0
1, 119524, Control_c, 0, 64, 127
1, 119528, Note_on_c, 0, 47, 89
1, 119644, Note_on_c, 0, 54, 89
1, 119759, Note_on_c, 0, 54, 0
1, 119759, Note_on_c, 0, 59, 93
1, 119874, Note_on_c, 0, 59, 0
1, 119874, Note_on_c, 0, 47, 0
1, 119874, Note_on_c, 0, 62, 85
1, 119986, Note_on_c, 0, 62, 0
1, 119986, Note_on_c, 0, 63, 85
1, 120098, Note_on_c, 0, 63, 0
1, 120098, Note_on_c, 0, 66, 0
1, 120098, Note_on_c, 0, 55, 109
1, 120125, Control_c, 0, 64, 0
1, 120217, Note_on_c, 0, 35, 90
1, 120230, Control_c, 0, 64, 127
1, 120336, Note_on_c, 0, 41, 90
1, 120454, Note_on_c, 0, 41, 0
1, 120454, Note_on_c, 0, 43, 93
1, 120573, Note_on_c, 0, 43, 0
1, 120573, Note_on_c, 0, 35, 0
1, 120573, Note_on_c, 0, 47, 88
1, 120689, Note_on_c, 0, 47, 0
1, 120689, Note_on_c, 0, 50, 88
1, 120789, Note_on_c, 0, 50, 0
1, 120803, Note_on_c, 0, 55, 0
1, 120803, Note_on_c, 0, 54, 110
1, 120826, Control_c, 0, 64, 0
1, 120922, Note_on_c, 0, 35, 90
1, 120935, Control_c, 0, 64, 127
1, 121041, Note_on_c, 0, 42, 90
1, 121159, Note_on_c, 0, 42, 0
1, 121159, Note_on_c, 0, 51, 93
1, 121233, Control_c, 0, 64, 0
1, 121266, Note_on_c, 0, 53, 100
1, 121275, Note_on_c, 0, 51, 0
1, 121275, Note_on_c, 0, 54, 0
1, 121275, Note_on_c, 0, 35, 0
1, 121383, Note_on_c, 0, 54, 96
1, 121412, Note_on_c, 0, 53, 0
1, 121511, Note_on_c, 0, 55, 104
1, 121531, Note_on_c, 0, 54, 0
1, 121689, Note_on_c, 0, 56, 93
1, 121719, Note_on_c, 0, 55, 0
1, 121869, Note_on_c, 0, 57, 97
1, 121899, Note_on_c, 0, 56, 0
1, 122051, Note_on_c, 0, 58, 88
1, 122082, Note_on_c, 0, 57, 0
1, 122235, Note_on_c, 0, 59, 93
1, 122266, Note_on_c, 0, 58, 0
1, 122421, Note_on_c, 0, 61, 95
1, 122452, Note_on_c, 0, 59, 0
1, 122798, Note_on_c, 0, 62, 90
1, 122830, Note_on_c, 0, 61, 0
1, 123394, Note_on_c, 0, 63, 93
1, 123429, Note_on_c, 0, 62, 0
1, 124276, Note_on_c, 0, 64, 75
1, 124331, Note_on_c, 0, 63, 0
1, 124937, Note_on_c, 0, 65, 70
1, 125010, Note_on_c, 0, 64, 0
1, 125818, Note_on_c, 0, 66, 65
1, 125891, Note_on_c, 0, 65, 0
1, 126699, Note_on_c, 0, 66, 0
1, 128983, Note_on_c, 0, 66, 79
1, 129314, Note_on_c, 0, 66, 0
1, 129314, Note_on_c, 0, 68, 78
1, 129472, Note_on_c, 0, 69, 75
1, 129500, Note_on_c, 0, 68, 0
1, 129640, Note_on_c, 0, 69, 0
1, 129640, Note_on_c, 0, 59, 69
1, 129640, Note_on_c, 0, 64, 69
1, 129643, Note_on_c, 0, 68, 81
1, 129643, Control_c, 0, 64, 127
1, 129643, Note_on_c, 0, 50, 75
1, 129646, Note_on_c, 0, 52, 79
1, 129958, Note_on_c, 0, 68, 0
1, 129958, Note_on_c, 0, 71, 75
1, 130258, Control_c, 0, 64, 0
1, 130277, Note_on_c, 0, 71, 0
1, 130277, Note_on_c, 0, 59, 0
1, 130277, Note_on_c, 0, 64, 0
1, 130280, Note_on_c, 0, 50, 0
1, 130280, Note_on_c, 0, 64, 85
1, 130280, Note_on_c, 0, 49, 77
1, 130342, Control_c, 0, 64, 127
1, 130595, Note_on_c, 0, 69, 84
1, 130764, Control_c, 0, 64, 0
1, 130914, Note_on_c, 0, 69, 0
1, 130914, Note_on_c, 0, 68, 82
1, 130914, Note_on_c, 0, 71, 93
1, 130917, Note_on_c, 0, 49, 0
1, 130917, Note_on_c, 0, 47, 83
1, 131197, Note_on_c, 0, 47, 0
1, 131197, Note_on_c, 0, 71, 0
1, 131197, Note_on_c, 0, 68, 0
1, 131223, Note_on_c, 0, 69, 86
1, 131223, Note_on_c, 0, 73, 98
1, 131223, Note_on_c, 0, 45, 85
1, 131522, Note_on_c, 0, 45, 0
1, 131522, Note_on_c, 0, 69, 0
1, 131522, Note_on_c, 0, 73, 0
1, 131549, Note_on_c, 0, 64, 0
1, 131549, Note_on_c, 0, 64, 76
1, 131549, Note_on_c, 0, 71, 79
1, 131552, Note_on_c, 0, 52, 0
1, 131552, Note_on_c, 0, 76, 92
1, 131552, Note_on_c, 0, 52, 74
1, 131555, Note_on_c, 0, 44, 71
1, 131699, Control_c, 0, 64, 127
1, 132186, Note_on_c, 0, 76, 0
1, 132186, Note_on_c, 0, 71, 0
1, 132186, Note_on_c, 0, 69, 78
1, 132189, Note_on_c, 0, 44, 0
1, 132189, Note_on_c, 0, 73, 88
1, 132189, Note_on_c, 0, 45, 67
1, 132196, Control_c, 0, 64, 0
1, 132301, Control_c, 0, 64, 127
1, 132823, Note_on_c, 0, 73, 0
1, 132823, Note_on_c, 0, 69, 0
1, 132823, Note_on_c, 0, 64, 0
1, 132826, Note_on_c, 0, 52, 0
1, 132826, Note_on_c, 0, 45, 0
1, 132826, Note_on_c, 0, 73, 102
1, 132829, Control_c, 0, 64, 0
1, 133141, Note_on_c, 0, 73, 0
1, 133141, Note_on_c, 0, 74, 100
1, 133295, Note_on_c, 0, 76, 98
1, 133322, Note_on_c, 0, 74, 0
1, 133461, Note_on_c, 0, 76, 0
1, 133461, Note_on_c, 0, 66, 85
1, 133461, Note_on_c, 0, 73, 85
1, 133464, Note_on_c, 0, 78, 98
1, 133464, Note_on_c, 0, 46, 71
1, 133464, Note_on_c, 0, 54, 71
1, 133467, Note_on_c, 0, 61, 83
1, 133535, Control_c, 0, 64, 127
1, 133777, Note_on_c, 0, 78, 0
1, 133777, Note_on_c, 0, 73, 90
1, 134106, Note_on_c, 0, 73, 0
1, 134106, Note_on_c, 0, 73, 0
1, 134106, Note_on_c, 0, 66, 0
1, 134109, Note_on_c, 0, 66, 70
1, 134109, Note_on_c, 0, 71, 70
1, 134109, Note_on_c, 0, 74, 88
1, 134112, Note_on_c, 0, 46, 0
1, 134112, Note_on_c, 0, 61, 0
1, 134112, Note_on_c, 0, 54, 0
1, 134115, Note_on_c, 0, 47, 63
1, 134115, Note_on_c, 0, 54, 63
1, 134115, Note_on_c, 0, 59, 70
1, 134118, Control_c, 0, 64, 0
1, 134200, Control_c, 0, 64, 127
1, 134767, Note_on_c, 0, 66, 0
1, 134767, Note_on_c, 0, 74, 0
1, 134767, Note_on_c, 0, 71, 0
1, 134770, Note_on_c, 0, 59, 0
1, 134770, Note_on_c, 0, 54, 0
1, 134770, Note_on_c, 0, 66, 86
1, 134773, Note_on_c, 0, 47, 0
1, 134773, Control_c, 0, 64, 0
1, 135097, Note_on_c, 0, 66, 0
1, 135097, Note_on_c, 0, 68, 82
1, 135255, Note_on_c, 0, 69, 77
1, 135282, Note_on_c, 0, 68, 0
1, 135422, Note_on_c, 0, 69, 0
1, 135422, Note_on_c, 0, 63, 75
1, 135422, Note_on_c, 0, 73, 82
1, 135425, Note_on_c, 0, 47, 65
1, 135425, Note_on_c, 0, 57, 76
1, 135468, Control_c, 0, 64, 127
1, 135739, Note_on_c, 0, 73, 0
1, 135739, Note_on_c, 0, 70, 77
1, 136071, Note_on_c, 0, 63, 0
1, 136071, Note_on_c, 0, 57, 0
1, 136071, Note_on_c, 0, 62, 63
1, 136074, Note_on_c, 0, 47, 0
1, 136074, Note_on_c, 0, 52, 54
1, 136074, Note_on_c, 0, 56, 61
1, 136078, Control_c, 0, 64, 0
1, 136176, Control_c, 0, 64, 127
1, 136395, Note_on_c, 0, 70, 0
1, 136395, Note_on_c, 0, 71, 65
1, 136728, Note_on_c, 0, 71, 0
1, 136728, Note_on_c, 0, 62, 0
1, 136728, Note_on_c, 0, 66, 85
1, 136731, Note_on_c, 0, 52, 0
1, 136731, Note_on_c, 0, 56, 0
1, 136731, Control_c, 0, 64, 0
1, 137046, Note_on_c, 0, 66, 0
1, 137046, Note_on_c, 0, 68, 79
1, 137200, Note_on_c, 0, 69, 75
1, 137228, Note_on_c, 0, 68, 0
1, 137368, Note_on_c, 0, 69, 0
1, 137368, Note_on_c, 0, 59, 69
1, 137368, Note_on_c, 0, 64, 69
1, 137371, Note_on_c, 0, 68, 85
1, 137371, Control_c, 0, 64, 127
1, 137371, Note_on_c, 0, 50, 79
1, 137374, Note_on_c, 0, 52, 79
1, 137686, Note_on_c, 0, 68, 0
1, 137686, Note_on_c, 0, 71, 77
1, 137986, Control_c, 0, 64, 0
1, 138005, Note_on_c, 0, 71, 0
1, 138005, Note_on_c, 0, 59, 0
1, 138005, Note_on_c, 0, 64, 0
1, 138008, Note_on_c, 0, 50, 0
1, 138008, Note_on_c, 0, 64, 93
1, 138008, Note_on_c, 0, 49, 77
1, 138070, Control_c, 0, 64, 127
1, 138323, Note_on_c, 0, 69, 85
1, 138642, Note_on_c, 0, 69, 0
1, 138642, Note_on_c, 0, 68, 82
1, 138642, Note_on_c, 0, 71, 93
1, 138645, Note_on_c, 0, 49, 0
1, 138645, Control_c, 0, 64, 0
1, 138645, Note_on_c, 0, 47, 83
1, 138927, Note_on_c, 0, 47, 0
1, 138927, Note_on_c, 0, 71, 0
1, 138927, Note_on_c, 0, 68, 0
1, 138953, Note_on_c, 0, 69, 88
1, 138953, Note_on_c, 0, 73, 99
1, 138953, Note_on_c, 0, 45, 86
1, 139254, Note_on_c, 0, 45, 0
1, 139254, Note_on_c, 0, 69, 0
1, 139254, Note_on_c, 0, 73, 0
1, 139282, Note_on_c, 0, 64, 0
1, 139282, Note_on_c, 0, 64, 77
1, 139282, Note_on_c, 0, 71, 84
1, 139285, Note_on_c, 0, 52, 0
1, 139285, Note_on_c, 0, 76, 92
1, 139285, Note_on_c, 0, 52, 74
1, 139288, Note_on_c, 0, 44, 74
1, 139431, Control_c, 0, 64, 127
1, 139918, Note_on_c, 0, 76, 0
1, 139918, Note_on_c, 0, 71, 0
1, 139918, Note_on_c, 0, 69, 84
1, 139921, Note_on_c, 0, 44, 0
1, 139921, Note_on_c, 0, 73, 95
1, 139921, Note_on_c, 0, 45, 71
1, 139930, Control_c, 0, 64, 0
1, 140143, Control_c, 0, 64, 127
1, 140555, Note_on_c, 0, 73, 0
1, 140555, Note_on_c, 0, 69, 0
1, 140555, Note_on_c, 0, 64, 0
1, 140558, Note_on_c, 0, 52, 0
1, 140558, Note_on_c, 0, 45, 0
1, 140558, Note_on_c, 0, 73, 109
1, 140561, Control_c, 0, 64, 0
1, 140865, Note_on_c, 0, 73, 0
1, 140865, Note_on_c, 0, 75, 103
1, 141019, Note_on_c, 0, 76, 99
1, 141047, Note_on_c, 0, 75, 0
1, 141183, Note_on_c, 0, 76, 0
1, 141183, Note_on_c, 0, 64, 79
1, 141183, Note_on_c, 0, 68, 107
1, 141186, Note_on_c, 0, 47, 79
1, 141257, Control_c, 0, 64, 127
1, 141497, Note_on_c, 0, 68, 0
1, 141497, Note_on_c, 0, 73, 96
1, 141820, Note_on_c, 0, 73, 0
1, 141820, Note_on_c, 0, 64, 0
1, 141820, Note_on_c, 0, 63, 71
1, 141823, Note_on_c, 0, 66, 71
1, 141823, Note_on_c, 0, 71, 93
1, 141823, Note_on_c, 0, 57, 90
1, 141827, Control_c, 0, 64, 0
1, 141915, Control_c, 0, 64, 127
1, 142139, Note_on_c, 0, 57, 0
1, 142139, Note_on_c, 0, 59, 84
1, 142472, Note_on_c, 0, 66, 0
1, 142472, Note_on_c, 0, 71, 0
1, 142472, Note_on_c, 0, 63, 0
1, 142475, Note_on_c, 0, 71, 93
1, 142475, Note_on_c, 0, 64, 93
1, 142475, Note_on_c, 0, 73, 116
1, 142478, Note_on_c, 0, 59, 0
1, 142478, Control_c, 0, 64, 0
1, 142478, Note_on_c, 0, 56, 92
1, 142786, Note_on_c, 0, 73, 0
1, 142786, Note_on_c, 0, 75, 109
1, 142943, Note_on_c, 0, 76, 104
1, 142971, Note_on_c, 0, 75, 0
1, 143110, Note_on_c, 0, 71, 0
1, 143110, Note_on_c, 0, 64, 0
1, 143110, Note_on_c, 0, 76, 0
1, 143113, Note_on_c, 0, 56, 0
1, 143113, Note_on_c, 0, 64, 79
1, 143113, Note_on_c, 0, 68, 106
1, 143116, Note_on_c, 0, 47, 0
1, 143116, Note_on_c, 0, 47, 79
1, 143183, Control_c, 0, 64, 127
1, 143423, Note_on_c, 0, 68, 0
1, 143423, Note_on_c, 0, 73, 95
1, 143754, Note_on_c, 0, 73, 0
1, 143754, Note_on_c, 0, 64, 0
1, 143754, Note_on_c, 0, 63, 71
1, 143757, Note_on_c, 0, 66, 71
1, 143757, Note_on_c, 0, 71, 93
1, 143757, Note_on_c, 0, 57, 90
1, 143765, Control_c, 0, 64, 0
1, 143848, Control_c, 0, 64, 127
1, 144073, Note_on_c, 0, 57, 0
1, 144073, Note_on_c, 0, 59, 84
1, 144411, Note_on_c, 0, 66, 0
1, 144411, Note_on_c, 0, 71, 0
1, 144411, Note_on_c, 0, 63, 0
1, 144414, Note_on_c, 0, 71, 90
1, 144414, Note_on_c, 0, 64, 90
1, 144414, Note_on_c, 0, 73, 111
1, 144417, Note_on_c, 0, 59, 0
1, 144417, Control_c, 0, 64, 0
1, 144417, Note_on_c, 0, 56, 89
1, 144723, Note_on_c, 0, 56, 0
1, 144723, Note_on_c, 0, 73, 0
1, 144723, Note_on_c, 0, 75, 102
1, 144726, Note_on_c, 0, 47, 0
1, 144878, Note_on_c, 0, 76, 96
1, 144908, Note_on_c, 0, 75, 0
1, 145054, Note_on_c, 0, 64, 0
1, 145054, Note_on_c, 0, 71, 0
1, 145054, Note_on_c, 0, 76, 0
1, 145057, Note_on_c, 0, 80, 107
1, 145129, Control_c, 0, 64, 127
1, 145377, Note_on_c, 0, 80, 0
1, 145377, Note_on_c, 0, 76, 93
1, 145700, Note_on_c, 0, 76, 0
1, 145700, Note_on_c, 0, 75, 98
1, 145714, Control_c, 0, 64, 0
1, 145794, Control_c, 0, 64, 127
1, 146017, Note_on_c, 0, 75, 0
1, 146017, Note_on_c, 0, 73, 95
1, 146353, Note_on_c, 0, 73, 0
1, 146353, Note_on_c, 0, 63, 72
1, 146353, Note_on_c, 0, 66, 72
1, 146356, Note_on_c, 0, 73, 85
1, 146356, Control_c, 0, 64, 0
1, 146356, Note_on_c, 0, 54, 93
1, 146678, Note_on_c, 0, 54, 0
1, 146678, Note_on_c, 0, 56, 89
1, 146841, Note_on_c, 0, 57, 82
1, 146869, Note_on_c, 0, 56, 0
1, 147010, Note_on_c, 0, 63, 0
1, 147010, Note_on_c, 0, 73, 0
1, 147010, Note_on_c, 0, 66, 0
1, 147013, Note_on_c, 0, 63, 72
1, 147013, Note_on_c, 0, 66, 85
1, 147013, Note_on_c, 0, 61, 89
1, 147016, Note_on_c, 0, 57, 0
1, 147016, Note_on_c, 0, 47, 75
1, 147108, Control_c, 0, 64, 127
1, 147341, Note_on_c, 0, 61, 0
1, 147341, Note_on_c, 0, 59, 77
1, 147646, Control_c, 0, 64, 0
1, 147686, Note_on_c, 0, 59, 0
1, 147686, Note_on_c, 0, 63, 0
1, 147686, Note_on_c, 0, 66, 0
1, 147689, Note_on_c, 0, 47, 0
1, 147689, Note_on_c, 0, 59, 79
1, 147689, Note_on_c, 0, 64, 79
1, 147692, Note_on_c, 0, 52, 75
1, 147692, Note_on_c, 0, 57, 89
1, 147707, Control_c, 0, 64, 127
1, 148035, Note_on_c, 0, 57, 0
1, 148035, Note_on_c, 0, 56, 86
1, 148403, Note_on_c, 0, 59, 0
1, 148403, Note_on_c, 0, 64, 0
1, 148403, Note_on_c, 0, 74, 84
1, 148406, Note_on_c, 0, 52, 0
1, 148406, Note_on_c, 0, 56, 0
1, 148406, Control_c, 0, 64, 0
1, 148409, Note_on_c, 0, 40, 79
1, 148562, Note_on_c, 0, 52, 74
1, 148640, Note_on_c, 0, 52, 0
1, 148718, Note_on_c, 0, 40, 0
1, 148718, Note_on_c, 0, 74, 0
1, 148718, Note_on_c, 0, 73, 79
1, 148721, Note_on_c, 0, 54, 75
1, 148794, Note_on_c, 0, 54, 0
1, 148870, Note_on_c, 0, 71, 76
1, 148870, Note_on_c, 0, 56, 76
1, 148898, Note_on_c, 0, 73, 0
1, 148954, Note_on_c, 0, 56, 0
1, 149038, Note_on_c, 0, 71, 0
1, 149038, Note_on_c, 0, 63, 71
1, 149038, Note_on_c, 0, 66, 81
1, 149041, Note_on_c, 0, 52, 63
1, 149041, Note_on_c, 0, 57, 79
1, 149108, Control_c, 0, 64, 127
1, 149197, Note_on_c, 0, 57, 0
1, 149197, Note_on_c, 0, 59, 74
1, 149356, Note_on_c, 0, 59, 0
1, 149356, Note_on_c, 0, 66, 0
1, 149356, Note_on_c, 0, 69, 63
1, 149359, Note_on_c, 0, 60, 76
1, 149371, Control_c, 0, 64, 0
1, 149451, Control_c, 0, 64, 127
1, 149695, Note_on_c, 0, 69, 0
1, 149695, Note_on_c, 0, 63, 0
1, 149695, Note_on_c, 0, 64, 67
1, 149698, Note_on_c, 0, 68, 75
1, 149985, Control_c, 0, 64, 0
1, 150009, Note_on_c, 0, 60, 0
1, 150009, Note_on_c, 0, 59, 62
1, 150345, Note_on_c, 0, 68, 0
1, 150345, Note_on_c, 0, 64, 0
1, 150345, Note_on_c, 0, 61, 69
1, 150348, Note_on_c, 0, 52, 0
1, 150348, Note_on_c, 0, 59, 0
1, 150348, Note_on_c, 0, 66, 79
1, 150351, Note_on_c, 0, 52, 64
1, 150351, Note_on_c, 0, 45, 72
1, 150557, Control_c, 0, 64, 127
1, 150716, Note_on_c, 0, 66, 0
1, 150716, Note_on_c, 0, 61, 0
1, 150716, Note_on_c, 0, 60, 57
1, 150719, Note_on_c, 0, 45, 0
1, 150719, Note_on_c, 0, 68, 67
1, 150719, Note_on_c, 0, 44, 57
1, 151050, Note_on_c, 0, 68, 0
1, 151050, Note_on_c, 0, 60, 0
1, 151050, Note_on_c, 0, 61, 69
1, 151053, Note_on_c, 0, 44, 0
1, 151053, Note_on_c, 0, 66, 79
1, 151053, Note_on_c, 0, 45, 72
1, 151063, Control_c, 0, 64, 0
1, 151252, Control_c, 0, 64, 127
1, 151375, Note_on_c, 0, 66, 0
1, 151375, Note_on_c, 0, 61, 0
1, 151375, Note_on_c, 0, 60, 56
1, 151378, Note_on_c, 0, 45, 0
1, 151378, Note_on_c, 0, 68, 65
1, 151378, Note_on_c, 0, 44, 61
1, 151714, Note_on_c, 0, 68, 0
1, 151714, Note_on_c, 0, 60, 0
1, 151714, Note_on_c, 0, 59, 64
1, 151717, Note_on_c, 0, 52, 0
1, 151717, Note_on_c, 0, 44, 0
1, 151717, Note_on_c, 0, 64, 70
1, 151720, Note_on_c, 0, 52, 60
1, 151720, Note_on_c, 0, 57, 65
1, 151724, Control_c, 0, 64, 0
1, 151811, Control_c, 0, 64, 127
1, 152052, Note_on_c, 0, 57, 0
1, 152052, Note_on_c, 0, 56, 63
1, 152169, Control_c, 0, 64, 0
1, 152403, Note_on_c, 0, 59, 0
1, 152403, Note_on_c, 0, 64, 0
1, 152403, Note_on_c, 0, 74, 84
1, 152406, Note_on_c, 0, 52, 0
1, 152406, Note_on_c, 0, 56, 0
1, 152406, Note_on_c, 0, 40, 79
1, 152560, Note_on_c, 0, 52, 74
1, 152637, Note_on_c, 0, 52, 0
1, 152714, Note_on_c, 0, 40, 0
1, 152714, Note_on_c, 0, 74, 0
1, 152714, Note_on_c, 0, 73, 79
1, 152717, Note_on_c, 0, 54, 75
1, 152789, Note_on_c, 0, 54, 0
1, 152864, Note_on_c, 0, 71, 76
1, 152864, Note_on_c, 0, 56, 76
1, 152892, Note_on_c, 0, 73, 0
1, 152948, Note_on_c, 0, 56, 0
1, 153032, Note_on_c, 0, 71, 0
1, 153032, Note_on_c, 0, 63, 71
1, 153032, Note_on_c, 0, 66, 81
1, 153035, Note_on_c, 0, 52, 63
1, 153035, Note_on_c, 0, 57, 79
1, 153103, Control_c, 0, 64, 127
1, 153192, Note_on_c, 0, 57, 0
1, 153192, Note_on_c, 0, 59, 74
1, 153353, Note_on_c, 0, 59, 0
1, 153353, Note_on_c, 0, 66, 0
1, 153353, Note_on_c, 0, 69, 67
1, 153356, Note_on_c, 0, 60, 75
1, 153367, Control_c, 0, 64, 0
1, 153447, Control_c, 0, 64, 127
1, 153691, Note_on_c, 0, 69, 0
1, 153691, Note_on_c, 0, 63, 0
1, 153691, Note_on_c, 0, 64, 67
1, 153694, Note_on_c, 0, 68, 75
1, 153986, Control_c, 0, 64, 0
1, 154010, Note_on_c, 0, 60, 0
1, 154010, Note_on_c, 0, 59, 61
1, 154346, Note_on_c, 0, 68, 0
1, 154346, Note_on_c, 0, 64, 0
1, 154346, Note_on_c, 0, 61, 69
1, 154349, Note_on_c, 0, 52, 0
1, 154349, Note_on_c, 0, 59, 0
1, 154349, Note_on_c, 0, 66, 79
1, 154352, Note_on_c, 0, 52, 64
1, 154352, Note_on_c, 0, 45, 72
1, 154533, Control_c, 0, 64, 127
1, 154674, Note_on_c, 0, 66, 0
1, 154674, Note_on_c, 0, 61, 0
1, 154674, Note_on_c, 0, 60, 57
1, 154677, Note_on_c, 0, 45, 0
1, 154677, Note_on_c, 0, 68, 67
1, 154677, Note_on_c, 0, 44, 57
1, 155007, Note_on_c, 0, 68, 0
1, 155007, Note_on_c, 0, 60, 0
1, 155007, Note_on_c, 0, 61, 69
1, 155010, Note_on_c, 0, 44, 0
1, 155010, Note_on_c, 0, 66, 79
1, 155010, Note_on_c, 0, 45, 72
1, 155021, Control_c, 0, 64, 0
1, 155209, Control_c, 0, 64, 127
1, 155333, Note_on_c, 0, 66, 0
1, 155333, Note_on_c, 0, 61, 0
1, 155333, Note_on_c, 0, 60, 56
1, 155336, Note_on_c, 0, 45, 0
1, 155336, Note_on_c, 0, 68, 65
1, 155336, Note_on_c, 0, 44, 61
1, 155671, Note_on_c, 0, 68, 0
1, 155671, Note_on_c, 0, 60, 0
1, 155671, Note_on_c, 0, 59, 64
1, 155674, Note_on_c, 0, 52, 0
1, 155674, Note_on_c, 0, 44, 0
1, 155674, Note_on_c, 0, 64, 70
1, 155677, Note_on_c, 0, 52, 60
1, 155677, Note_on_c, 0, 57, 65
1, 155677, Control_c, 0, 64, 0
1, 155769, Control_c, 0, 64, 127
1, 156010, Note_on_c, 0, 57, 0
1, 156010, Note_on_c, 0, 56, 63
1, 156058, Control_c, 0, 64, 0
1, 156349, Note_on_c, 0, 59, 0
1, 156349, Note_on_c, 0, 64, 0
1, 156349, Note_on_c, 0, 64, 75
1, 156352, Note_on_c, 0, 52, 0
1, 156352, Note_on_c, 0, 56, 0
1, 156352, Note_on_c, 0, 70, 86
1, 156355, Note_on_c, 0, 56, 69
1, 156355, Note_on_c, 0, 49, 79
1, 156524, Control_c, 0, 64, 127
1, 156657, Note_on_c, 0, 70, 0
1, 156657, Note_on_c, 0, 64, 0
1, 156657, Note_on_c, 0, 63, 67
1, 156660, Note_on_c, 0, 49, 0
1, 156660, Note_on_c, 0, 72, 75
1, 156660, Note_on_c, 0, 48, 67
1, 156980, Note_on_c, 0, 72, 0
1, 156980, Note_on_c, 0, 63, 0
1, 156980, Note_on_c, 0, 64, 75
1, 156983, Note_on_c, 0, 48, 0
1, 156983, Note_on_c, 0, 70, 86
1, 156983, Note_on_c, 0, 49, 81
1, 156993, Control_c, 0, 64, 0
1, 157172, Control_c, 0, 64, 127
1, 157290, Note_on_c, 0, 70, 0
1, 157290, Note_on_c, 0, 64, 0
1, 157290, Note_on_c, 0, 63, 65
1, 157293, Note_on_c, 0, 49, 0
1, 157293, Note_on_c, 0, 72, 75
1, 157293, Note_on_c, 0, 48, 70
1, 157615, Note_on_c, 0, 72, 0
1, 157615, Note_on_c, 0, 63, 0
1, 157615, Note_on_c, 0, 63, 70
1, 157618, Note_on_c, 0, 56, 0
1, 157618, Note_on_c, 0, 48, 0
1, 157618, Note_on_c, 0, 68, 81
1, 157621, Note_on_c, 0, 56, 65
1, 157621, Note_on_c, 0, 61, 72
1, 157621, Control_c, 0, 64, 0
1, 157709, Control_c, 0, 64, 127
1, 157941, Note_on_c, 0, 61, 0
1, 157941, Control_c, 0, 64, 0
1, 157941, Note_on_c, 0, 60, 69
1, 158266, Note_on_c, 0, 63, 0
1, 158266, Note_on_c, 0, 68, 0
1, 158266, Note_on_c, 0, 68, 81
1, 158269, Note_on_c, 0, 56, 0
1, 158269, Note_on_c, 0, 60, 0
1, 158269, Note_on_c, 0, 74, 90
1, 158272, Note_on_c, 0, 60, 74
1, 158272, Note_on_c, 0, 53, 83
1, 158438, Control_c, 0, 64, 127
1, 158568, Note_on_c, 0, 74, 0
1, 158568, Note_on_c, 0, 68, 0
1, 158568, Note_on_c, 0, 67, 75
1, 158571, Note_on_c, 0, 53, 0
1, 158571, Note_on_c, 0, 76, 86
1, 158571, Note_on_c, 0, 52, 75
1, 158893, Note_on_c, 0, 76, 0
1, 158893, Note_on_c, 0, 67, 0
1, 158893, Note_on_c, 0, 68, 83
1, 158896, Note_on_c, 0, 52, 0
1, 158896, Note_on_c, 0, 74, 93
1, 158896, Note_on_c, 0, 53, 88
1, 158906, Control_c, 0, 64, 0
1, 159079, Control_c, 0, 64, 127
1, 159193, Note_on_c, 0, 74, 0
1, 159193, Note_on_c, 0, 68, 0
1, 159193, Note_on_c, 0, 67, 76
1, 159196, Note_on_c, 0, 53, 0
1, 159196, Note_on_c, 0, 76, 88
1, 159196, Note_on_c, 0, 52, 81
1, 159512, Note_on_c, 0, 76, 0
1, 159512, Note_on_c, 0, 67, 0
1, 159512, Note_on_c, 0, 63, 64
1, 159515, Note_on_c, 0, 52, 0
1, 159515, Note_on_c, 0, 66, 72
1, 159515, Note_on_c, 0, 72, 82
1, 159518, Note_on_c, 0, 60, 0
1, 159518, Note_on_c, 0, 56, 65
1, 159518, Note_on_c, 0, 60, 75
1, 159525, Control_c, 0, 64, 0
1, 159603, Control_c, 0, 64, 127
1, 159830, Note_on_c, 0, 63, 0
1, 159830, Note_on_c, 0, 66, 0
1, 159830, Note_on_c, 0, 64, 56
1, 159833, Note_on_c, 0, 60, 0
1, 159833, Note_on_c, 0, 56, 0
1, 159833, Note_on_c, 0, 67, 65
1, 159836, Note_on_c, 0, 48, 51
1, 159836, Control_c, 0, 64, 0
1, 159836, Note_on_c, 0, 55, 58
1, 160149, Note_on_c, 0, 67, 0
1, 160149, Note_on_c, 0, 64, 0
1, 160149, Note_on_c, 0, 72, 0
1, 160152, Note_on_c, 0, 55, 0
1, 160152, Note_on_c, 0, 68, 85
1, 160152, Note_on_c, 0, 74, 91
1, 160155, Note_on_c, 0, 48, 0
1, 160155, Note_on_c, 0, 60, 72
1, 160155, Note_on_c, 0, 53, 85
1, 160296, Note_on_c, 0, 77, 76
1, 160320, Note_on_c, 0, 74, 0
1, 160443, Note_on_c, 0, 68, 0
1, 160443, Note_on_c, 0, 72, 72
1, 160443, Note_on_c, 0, 67, 72
1, 160446, Note_on_c, 0, 53, 0
1, 160446, Note_on_c, 0, 76, 90
1, 160446, Note_on_c, 0, 55, 68
1, 160468, Note_on_c, 0, 77, 0
1, 160523, Control_c, 0, 64, 127
1, 160750, Note_on_c, 0, 76, 0
1, 160750, Note_on_c, 0, 67, 0
1, 160750, Note_on_c, 0, 72, 0
1, 160753, Note_on_c, 0, 55, 0
1, 160753, Note_on_c, 0, 68, 85
1, 160753, Note_on_c, 0, 74, 91
1, 160756, Note_on_c, 0, 53, 89
1, 160779, Control_c, 0, 64, 0
1, 160900, Note_on_c, 0, 77, 78
1, 160925, Note_on_c, 0, 74, 0
1, 161050, Note_on_c, 0, 68, 0
1, 161050, Note_on_c, 0, 72, 74
1, 161050, Note_on_c, 0, 67, 72
1, 161053, Note_on_c, 0, 53, 0
1, 161053, Note_on_c, 0, 76, 90
1, 161053, Note_on_c, 0, 55, 72
1, 161076, Note_on_c, 0, 77, 0
1, 161110, Control_c, 0, 64, 127
1, 161366, Note_on_c, 0, 76, 0
1, 161366, Note_on_c, 0, 67, 0
1, 161366, Note_on_c, 0, 72, 0
1, 161369, Note_on_c, 0, 63, 69
1, 161369, Note_on_c, 0, 66, 78
1, 161369, Note_on_c, 0, 72, 90
1, 161372, Note_on_c, 0, 60, 0
1, 161372, Note_on_c, 0, 55, 0
1, 161372, Note_on_c, 0, 56, 63
1, 161375, Note_on_c, 0, 60, 74
1, 161375, Control_c, 0, 64, 0
1, 161457, Control_c, 0, 64, 127
1, 161683, Note_on_c, 0, 66, 0
1, 161683, Note_on_c, 0, 63, 0
1, 161683, Note_on_c, 0, 64, 60
1, 161686, Note_on_c, 0, 60, 0
1, 161686, Note_on_c, 0, 56, 0
1, 161686, Note_on_c, 0, 67, 70
1, 161689, Note_on_c, 0, 48, 46
1, 161689, Control_c, 0, 64, 0
1, 161689, Note_on_c, 0, 55, 58
1, 161999, Note_on_c, 0, 67, 0
1, 161999, Note_on_c, 0, 64, 0
1, 161999, Note_on_c, 0, 72, 0
1, 162002, Note_on_c, 0, 55, 0
1, 162002, Note_on_c, 0, 68, 86
1, 162002, Note_on_c, 0, 74, 99
1, 162005, Note_on_c, 0, 48, 0
1, 162005, Note_on_c, 0, 60, 75
1, 162005, Note_on_c, 0, 53, 86
1, 162172, Control_c, 0, 64, 127
1, 162303, Note_on_c, 0, 74, 0
1, 162303, Note_on_c, 0, 68, 0
1, 162303, Note_on_c, 0, 72, 75
1, 162306, Note_on_c, 0, 53, 0
1, 162306, Note_on_c, 0, 67, 75
1, 162306, Note_on_c, 0, 76, 90
1, 162309, Note_on_c, 0, 48, 71
1, 162619, Note_on_c, 0, 76, 0
1, 162619, Note_on_c, 0, 67, 0
1, 162619, Note_on_c, 0, 72, 0
1, 162622, Note_on_c, 0, 48, 0
1, 162622, Note_on_c, 0, 70, 90
1, 162622, Note_on_c, 0, 79, 104
1, 162625, Note_on_c, 0, 60, 0
1, 162625, Note_on_c, 0, 57, 76
1, 162625, Note_on_c, 0, 61, 85
1, 162628, Control_c, 0, 64, 0
1, 162806, Control_c, 0, 64, 127
1, 162920, Note_on_c, 0, 79, 0
1, 162920, Note_on_c, 0, 70, 0
1, 162920, Note_on_c, 0, 69, 82
1, 162923, Note_on_c, 0, 57, 0
1, 162923, Note_on_c, 0, 61, 0
1, 162923, Note_on_c, 0, 78, 96
1, 162926, Note_on_c, 0, 62, 84
1, 163239, Note_on_c, 0, 78, 0
1, 163239, Note_on_c, 0, 69, 0
1, 163239, Note_on_c, 0, 68, 90
1, 163242, Note_on_c, 0, 62, 0
1, 163242, Note_on_c, 0, 77, 104
1, 163242, Note_on_c, 0, 55, 76
1, 163245, Note_on_c, 0, 59, 85
1, 163245, Control_c, 0, 64, 0
1, 163325, Control_c, 0, 64, 127
1, 163539, Note_on_c, 0, 77, 0
1, 163539, Note_on_c, 0, 68, 0
1, 163539, Note_on_c, 0, 67, 82
1, 163542, Note_on_c, 0, 55, 0
1, 163542, Note_on_c, 0, 59, 0
1, 163542, Note_on_c, 0, 76, 96
1, 163545, Note_on_c, 0, 60, 84
1, 163545, Control_c, 0, 64, 0
1, 163853, Note_on_c, 0, 76, 0
1, 163853, Note_on_c, 0, 67, 0
1, 163853, Note_on_c, 0, 67, 90
1, 163856, Note_on_c, 0, 60, 0
1, 163856, Note_on_c, 0, 76, 104
1, 163856, Note_on_c, 0, 54, 76
1, 163859, Note_on_c, 0, 58, 85
1, 163941, Control_c, 0, 64, 127
1, 164156, Note_on_c, 0, 76, 0
1, 164156, Note_on_c, 0, 67, 0
1, 164156, Note_on_c, 0, 66, 82
1, 164159, Note_on_c, 0, 54, 0
1, 164159, Note_on_c, 0, 58, 0
1, 164159, Note_on_c, 0, 75, 96
1, 164162, Note_on_c, 0, 59, 84
1, 164237, Control_c, 0, 64, 0
1, 164468, Note_on_c, 0, 75, 0
1, 164468, Note_on_c, 0, 66, 0
1, 164468, Note_on_c, 0, 70, 96
1, 164471, Note_on_c, 0, 59, 0
1, 164471, Note_on_c, 0, 64, 95
1, 164471, Note_on_c, 0, 55, 89
1, 164616, Note_on_c, 0, 73, 75
1, 164641, Note_on_c, 0, 70, 0
1, 164765, Note_on_c, 0, 64, 0
1, 164765, Note_on_c, 0, 63, 70
1, 164765, Note_on_c, 0, 71, 85
1, 164768, Note_on_c, 0, 55, 0
1, 164768, Note_on_c, 0, 66, 70
1, 164768, Note_on_c, 0, 47, 55
1, 164771, Note_on_c, 0, 54, 67
1, 164791, Note_on_c, 0, 73, 0
1, 164810, Control_c, 0, 64, 127
1, 165081, Note_on_c, 0, 66, 0
1, 165081, Note_on_c, 0, 71, 0
1, 165081, Note_on_c, 0, 63, 0
1, 165084, Note_on_c, 0, 54, 0
1, 165084, Note_on_c, 0, 67, 88
1, 165084, Note_on_c, 0, 76, 102
1, 165087, Note_on_c, 0, 47, 0
1, 165087, Note_on_c, 0, 58, 75
1, 165087, Note_on_c, 0, 54, 69
1, 165090, Control_c, 0, 64, 0
1, 165172, Control_c, 0, 64, 127
1, 165396, Note_on_c, 0, 76, 0
1, 165396, Note_on_c, 0, 67, 0
1, 165396, Note_on_c, 0, 66, 77
1, 165399, Note_on_c, 0, 58, 0
1, 165399, Note_on_c, 0, 54, 0
1, 165399, Note_on_c, 0, 75, 89
1, 165402, Control_c, 0, 64, 0
1, 165402, Note_on_c, 0, 59, 74
1, 165729, Note_on_c, 0, 75, 0
1, 165729, Note_on_c, 0, 66, 0
1, 165729, Note_on_c, 0, 70, 88
1, 165732, Note_on_c, 0, 59, 0
1, 165732, Note_on_c, 0, 64, 89
1, 165732, Note_on_c, 0, 55, 88
1, 165878, Note_on_c, 0, 73, 74
1, 165903, Note_on_c, 0, 70, 0
1, 166027, Note_on_c, 0, 64, 0
1, 166027, Note_on_c, 0, 63, 60
1, 166027, Note_on_c, 0, 71, 70
1, 166030, Note_on_c, 0, 55, 0
1, 166030, Note_on_c, 0, 66, 60
1, 166030, Note_on_c, 0, 47, 51
1, 166033, Note_on_c, 0, 54, 57
1, 166053, Note_on_c, 0, 73, 0
1, 166093, Control_c, 0, 64, 127
1, 166266, Control_c, 0, 64, 0
1, 166341, Note_on_c, 0, 66, 0
1, 166341, Note_on_c, 0, 71, 0
1, 166341, Note_on_c, 0, 63, 0
1, 166344, Note_on_c, 0, 54, 0
1, 166344, Note_on_c, 0, 70, 84
1, 166344, Note_on_c, 0, 64, 86
1, 166347, Note_on_c, 0, 47, 0
1, 166347, Note_on_c, 0, 55, 85
1, 166491, Note_on_c, 0, 73, 69
1, 166515, Note_on_c, 0, 70, 0
1, 166640, Note_on_c, 0, 64, 0
1, 166640, Note_on_c, 0, 63, 56
1, 166640, Note_on_c, 0, 71, 69
1, 166643, Note_on_c, 0, 55, 0
1, 166643, Note_on_c, 0, 66, 56
1, 166643, Note_on_c, 0, 47, 49
1, 166646, Note_on_c, 0, 54, 56
1, 166668, Note_on_c, 0, 73, 0
1, 166697, Control_c, 0, 64, 127
1, 166978, Note_on_c, 0, 66, 0
1, 166978, Note_on_c, 0, 71, 0
1, 166978, Note_on_c, 0, 63, 0
1, 166981, Note_on_c, 0, 58, 61
1, 166981, Note_on_c, 0, 61, 69
1, 166981, Note_on_c, 0, 66, 77
1, 166984, Note_on_c, 0, 54, 0
1, 166984, Note_on_c, 0, 47, 0
1, 166984, Note_on_c, 0, 52, 64
1, 166987, Control_c, 0, 64, 0
1, 167079, Control_c, 0, 64, 127
1, 167329, Note_on_c, 0, 61, 0
1, 167329, Note_on_c, 0, 58, 0
1, 167329, Note_on_c, 0, 59, 63
1, 167332, Note_on_c, 0, 52, 0
1, 167332, Control_c, 0, 64, 0
1, 167332, Note_on_c, 0, 51, 54
1, 167710, Note_on_c, 0, 59, 0
1, 167710, Note_on_c, 0, 66, 0
1, 167710, Note_on_c, 0, 66, 85
1, 167713, Note_on_c, 0, 51, 0
1, 168040, Note_on_c, 0, 66, 0
1, 168040, Note_on_c, 0, 68, 81
1, 168197, Note_on_c, 0, 69, 75
1, 168225, Note_on_c, 0, 68, 0
1, 168365, Note_on_c, 0, 69, 0
1, 168365, Note_on_c, 0, 59, 63
1, 168365, Note_on_c, 0, 64, 63
1, 168368, Note_on_c, 0, 68, 85
1, 168368, Control_c, 0, 64, 127
1, 168368, Note_on_c, 0, 50, 72
1, 168371, Note_on_c, 0, 52, 72
1, 168684, Note_on_c, 0, 68, 0
1, 168684, Note_on_c, 0, 71, 77
1, 169002, Note_on_c, 0, 71, 0
1, 169002, Note_on_c, 0, 59, 0
1, 169002, Note_on_c, 0, 64, 0
1, 169005, Note_on_c, 0, 50, 0
1, 169005, Note_on_c, 0, 64, 85
1, 169005, Note_on_c, 0, 49, 70
1, 169008, Control_c, 0, 64, 0
1, 169067, Control_c, 0, 64, 127
1, 169321, Note_on_c, 0, 69, 89
1, 169639, Note_on_c, 0, 69, 0
1, 169639, Note_on_c, 0, 68, 82
1, 169639, Note_on_c, 0, 71, 93
1, 169642, Note_on_c, 0, 49, 0
1, 169642, Control_c, 0, 64, 0
1, 169642, Note_on_c, 0, 47, 83
1, 169923, Note_on_c, 0, 47, 0
1, 169923, Note_on_c, 0, 71, 0
1, 169923, Note_on_c, 0, 68, 0
1, 169948, Note_on_c, 0, 69, 86
1, 169948, Note_on_c, 0, 73, 98
1, 169948, Note_on_c, 0, 45, 85
1, 170247, Note_on_c, 0, 45, 0
1, 170247, Note_on_c, 0, 69, 0
1, 170247, Note_on_c, 0, 73, 0
1, 170274, Note_on_c, 0, 64, 0
1, 170274, Note_on_c, 0, 64, 74
1, 170274, Note_on_c, 0, 71, 78
1, 170277, Note_on_c, 0, 52, 0
1, 170277, Note_on_c, 0, 76, 90
1, 170277, Note_on_c, 0, 52, 74
1, 170280, Note_on_c, 0, 44, 68
1, 170424, Control_c, 0, 64, 127
1, 170911, Note_on_c, 0, 76, 0
1, 170911, Note_on_c, 0, 71, 0
1, 170911, Note_on_c, 0, 69, 78
1, 170914, Note_on_c, 0, 44, 0
1, 170914, Note_on_c, 0, 73, 88
1, 170914, Note_on_c, 0, 45, 67
1, 170924, Control_c, 0, 64, 0
1, 171024, Control_c, 0, 64, 127
1, 171548, Note_on_c, 0, 73, 0
1, 171548, Note_on_c, 0, 69, 0
1, 171548, Note_on_c, 0, 64, 0
1, 171551, Note_on_c, 0, 52, 0
1, 171551, Note_on_c, 0, 45, 0
1, 171551, Note_on_c, 0, 73, 102
1, 171554, Control_c, 0, 64, 0
1, 171866, Note_on_c, 0, 73, 0
1, 171866, Note_on_c, 0, 74, 100
1, 172020, Note_on_c, 0, 76, 98
1, 172050, Note_on_c, 0, 74, 0
1, 172201, Note_on_c, 0, 76, 0
1, 172201, Note_on_c, 0, 66, 85
1, 172201, Note_on_c, 0, 73, 85
1, 172204, Note_on_c, 0, 78, 99
1, 172204, Note_on_c, 0, 46, 71
1, 172204, Note_on_c, 0, 54, 71
1, 172207, Note_on_c, 0, 61, 83
1, 172275, Control_c, 0, 64, 127
1, 172517, Note_on_c, 0, 78, 0
1, 172517, Note_on_c, 0, 73, 95
1, 172845, Note_on_c, 0, 73, 0
1, 172845, Note_on_c, 0, 73, 0
1, 172845, Note_on_c, 0, 66, 0
1, 172848, Note_on_c, 0, 66, 78
1, 172848, Note_on_c, 0, 71, 78
1, 172848, Note_on_c, 0, 74, 90
1, 172851, Note_on_c, 0, 46, 0
1, 172851, Note_on_c, 0, 61, 0
1, 172851, Note_on_c, 0, 54, 0
1, 172854, Note_on_c, 0, 47, 65
1, 172854, Note_on_c, 0, 54, 65
1, 172854, Note_on_c, 0, 59, 75
1, 172857, Control_c, 0, 64, 0
1, 172940, Control_c, 0, 64, 127
1, 173332, Control_c, 0, 64, 0
1, 173482, Note_on_c, 0, 66, 0
1, 173482, Note_on_c, 0, 74, 0
1, 173482, Note_on_c, 0, 71, 0
1, 173485, Note_on_c, 0, 59, 0
1, 173485, Note_on_c, 0, 54, 0
1, 173485, Note_on_c, 0, 66, 89
1, 173488, Note_on_c, 0, 47, 0
1, 173801, Note_on_c, 0, 66, 0
1, 173801, Note_on_c, 0, 68, 85
1, 173955, Note_on_c, 0, 69, 77
1, 173981, Note_on_c, 0, 68, 0
1, 174118, Note_on_c, 0, 69, 0
1, 174118, Note_on_c, 0, 63, 78
1, 174118, Note_on_c, 0, 73, 85
1, 174121, Note_on_c, 0, 47, 69
1, 174121, Note_on_c, 0, 57, 79
1, 174163, Control_c, 0, 64, 127
1, 174429, Note_on_c, 0, 73, 0
1, 174429, Note_on_c, 0, 70, 72
1, 174755, Note_on_c, 0, 63, 0
1, 174755, Note_on_c, 0, 57, 0
1, 174755, Note_on_c, 0, 62, 68
1, 174758, Note_on_c, 0, 47, 0
1, 174758, Note_on_c, 0, 52, 57
1, 174758, Note_on_c, 0, 56, 67
1, 174761, Control_c, 0, 64, 0
1, 174887, Control_c, 0, 64, 127
1, 175074, Note_on_c, 0, 70, 0
1, 175074, Note_on_c, 0, 71, 70
1, 175422, Note_on_c, 0, 71, 0
1, 175422, Note_on_c, 0, 62, 0
1, 175422, Note_on_c, 0, 66, 85
1, 175425, Note_on_c, 0, 52, 0
1, 175425, Note_on_c, 0, 56, 0
1, 175425, Control_c, 0, 64, 0
1, 175740, Note_on_c, 0, 66, 0
1, 175740, Note_on_c, 0, 68, 84
1, 175894, Note_on_c, 0, 69, 76
1, 175922, Note_on_c, 0, 68, 0
1, 176062, Note_on_c, 0, 69, 0
1, 176062, Note_on_c, 0, 59, 63
1, 176062, Note_on_c, 0, 64, 63
1, 176065, Note_on_c, 0, 68, 85
1, 176065, Control_c, 0, 64, 127
1, 176065, Note_on_c, 0, 50, 72
1, 176068, Note_on_c, 0, 52, 72
1, 176380, Note_on_c, 0, 68, 0
1, 176380, Note_on_c, 0, 71, 81
1, 176699, Note_on_c, 0, 71, 0
1, 176699, Note_on_c, 0, 59, 0
1, 176699, Note_on_c, 0, 64, 0
1, 176702, Note_on_c, 0, 50, 0
1, 176702, Note_on_c, 0, 64, 85
1, 176702, Note_on_c, 0, 49, 70
1, 176707, Control_c, 0, 64, 0
1, 176772, Control_c, 0, 64, 127
1, 177017, Note_on_c, 0, 69, 86
1, 177336, Note_on_c, 0, 69, 0
1, 177336, Note_on_c, 0, 68, 82
1, 177336, Note_on_c, 0, 71, 93
1, 177339, Note_on_c, 0, 49, 0
1, 177339, Control_c, 0, 64, 0
1, 177339, Note_on_c, 0, 47, 83
1, 177621, Note_on_c, 0, 47, 0
1, 177621, Note_on_c, 0, 71, 0
1, 177621, Note_on_c, 0, 68, 0
1, 177647, Note_on_c, 0, 69, 88
1, 177647, Note_on_c, 0, 73, 99
1, 177647, Note_on_c, 0, 45, 86
1, 177948, Note_on_c, 0, 45, 0
1, 177948, Note_on_c, 0, 69, 0
1, 177948, Note_on_c, 0, 73, 0
1, 177976, Note_on_c, 0, 64, 0
1, 177976, Note_on_c, 0, 64, 77
1, 177976, Note_on_c, 0, 71, 81
1, 177979, Note_on_c, 0, 52, 0
1, 177979, Note_on_c, 0, 76, 92
1, 177979, Note_on_c, 0, 52, 81
1, 177982, Note_on_c, 0, 44, 71
1, 178125, Control_c, 0, 64, 127
1, 178612, Note_on_c, 0, 76, 0
1, 178612, Note_on_c, 0, 71, 0
1, 178612, Note_on_c, 0, 69, 84
1, 178615, Note_on_c, 0, 44, 0
1, 178615, Note_on_c, 0, 73, 95
1, 178615, Note_on_c, 0, 45, 71
1, 178622, Control_c, 0, 64, 0
1, 178744, Control_c, 0, 64, 127
1, 179249, Note_on_c, 0, 73, 0
1, 179249, Note_on_c, 0, 69, 0
1, 179249, Note_on_c, 0, 64, 0
1, 179252, Note_on_c, 0, 52, 0
1, 179252, Note_on_c, 0, 45, 0
1, 179252, Note_on_c, 0, 73, 105
1, 179255, Control_c, 0, 64, 0
1, 179568, Note_on_c, 0, 73, 0
1, 179568, Note_on_c, 0, 74, 104
1, 179722, Note_on_c, 0, 76, 102
1, 179749, Note_on_c, 0, 74, 0
1, 179888, Note_on_c, 0, 76, 0
1, 179888, Note_on_c, 0, 66, 84
1, 179888, Note_on_c, 0, 73, 84
1, 179891, Note_on_c, 0, 78, 102
1, 179891, Note_on_c, 0, 46, 71
1, 179891, Note_on_c, 0, 54, 71
1, 179894, Note_on_c, 0, 61, 81
1, 179962, Control_c, 0, 64, 127
1, 180204, Note_on_c, 0, 78, 0
1, 180204, Note_on_c, 0, 73, 93
1, 180533, Note_on_c, 0, 73, 0
1, 180533, Note_on_c, 0, 73, 0
1, 180533, Note_on_c, 0, 66, 0
1, 180536, Note_on_c, 0, 66, 81
1, 180536, Note_on_c, 0, 71, 81
1, 180536, Note_on_c, 0, 74, 93
1, 180539, Note_on_c, 0, 46, 0
1, 180539, Note_on_c, 0, 61, 0
1, 180539, Note_on_c, 0, 54, 0
1, 180542, Note_on_c, 0, 47, 67
1, 180542, Note_on_c, 0, 54, 67
1, 180542, Note_on_c, 0, 59, 77
1, 180545, Control_c, 0, 64, 0
1, 180627, Control_c, 0, 64, 127
1, 181170, Note_on_c, 0, 66, 0
1, 181170, Note_on_c, 0, 74, 0
1, 181170, Note_on_c, 0, 71, 0
1, 181173, Note_on_c, 0, 59, 0
1, 181173, Note_on_c, 0, 54, 0
1, 181173, Note_on_c, 0, 74, 109
1, 181176, Note_on_c, 0, 47, 0
1, 181176, Control_c, 0, 64, 0
1, 181488, Note_on_c, 0, 74, 0
1, 181488, Note_on_c, 0, 76, 106
1, 181642, Note_on_c, 0, 78, 102
1, 181669, Note_on_c, 0, 76, 0
1, 181808, Note_on_c, 0, 78, 0
1, 181808, Note_on_c, 0, 68, 86
1, 181808, Note_on_c, 0, 75, 86
1, 181811, Note_on_c, 0, 80, 104
1, 181811, Note_on_c, 0, 48, 72
1, 181811, Note_on_c, 0, 56, 72
1, 181814, Note_on_c, 0, 63, 84
1, 181882, Control_c, 0, 64, 127
1, 182124, Note_on_c, 0, 80, 0
1, 182124, Note_on_c, 0, 75, 0
1, 182124, Note_on_c, 0, 75, 98
1, 182453, Note_on_c, 0, 75, 0
1, 182453, Note_on_c, 0, 68, 0
1, 182453, Note_on_c, 0, 68, 84
1, 182456, Note_on_c, 0, 63, 0
1, 182456, Note_on_c, 0, 73, 84
1, 182456, Note_on_c, 0, 76, 97
1, 182459, Note_on_c, 0, 56, 0
1, 182459, Note_on_c, 0, 48, 0
1, 182459, Note_on_c, 0, 49, 68
1, 182462, Note_on_c, 0, 56, 68
1, 182462, Note_on_c, 0, 61, 79
1, 182462, Control_c, 0, 64, 0
1, 182547, Control_c, 0, 64, 127
1, 182940, Control_c, 0, 64, 0
1, 183090, Note_on_c, 0, 68, 0
1, 183090, Note_on_c, 0, 76, 0
1, 183090, Note_on_c, 0, 73, 0
1, 183093, Note_on_c, 0, 61, 0
1, 183093, Note_on_c, 0, 56, 0
1, 183093, Note_on_c, 0, 76, 106
1, 183096, Note_on_c, 0, 49, 0
1, 183397, Note_on_c, 0, 76, 0
1, 183397, Note_on_c, 0, 78, 100
1, 183551, Note_on_c, 0, 80, 96
1, 183579, Note_on_c, 0, 78, 0
1, 183717, Note_on_c, 0, 80, 0
1, 183717, Note_on_c, 0, 81, 104
1, 184013, Note_on_c, 0, 81, 0
1, 184040, Note_on_c, 0, 80, 93
1, 184336, Note_on_c, 0, 80, 0
1, 184363, Note_on_c, 0, 78, 97
1, 184653, Note_on_c, 0, 78, 0
1, 184679, Note_on_c, 0, 76, 90
1, 184982, Note_on_c, 0, 76, 0
1, 185010, Note_on_c, 0, 74, 95
1, 185010, Note_on_c, 0, 54, 86
1, 185010, Note_on_c, 0, 57, 96
1, 185304, Note_on_c, 0, 74, 0
1, 185331, Note_on_c, 0, 57, 0
1, 185331, Note_on_c, 0, 69, 95
1, 185331, Note_on_c, 0, 59, 92
1, 185491, Note_on_c, 0, 61, 89
1, 185519, Note_on_c, 0, 59, 0
1, 185656, Note_on_c, 0, 61, 0
1, 185656, Note_on_c, 0, 62, 92
1, 185752, Control_c, 0, 64, 127
1, 185953, Note_on_c, 0, 62, 0
1, 185979, Note_on_c, 0, 69, 0
1, 185979, Note_on_c, 0, 81, 102
1, 185979, Note_on_c, 0, 61, 89
1, 186291, Note_on_c, 0, 61, 0
1, 186320, Note_on_c, 0, 54, 0
1, 186320, Note_on_c, 0, 53, 82
1, 186320, Note_on_c, 0, 59, 92
1, 186329, Control_c, 0, 64, 0
1, 186437, Control_c, 0, 64, 127
1, 186612, Control_c, 0, 64, 0
1, 186623, Note_on_c, 0, 59, 0
1, 186650, Note_on_c, 0, 81, 0
1, 186650, Note_on_c, 0, 63, 82
1, 186650, Note_on_c, 0, 72, 82
1, 186653, Note_on_c, 0, 75, 82
1, 186653, Note_on_c, 0, 57, 86
1, 186988, Note_on_c, 0, 75, 0
1, 186988, Note_on_c, 0, 72, 0
1, 186988, Note_on_c, 0, 63, 0
1, 186991, Note_on_c, 0, 64, 91
1, 186991, Note_on_c, 0, 73, 91
1, 186991, Note_on_c, 0, 76, 91
1, 186994, Note_on_c, 0, 53, 0
1, 186994, Note_on_c, 0, 52, 79
1, 187304, Note_on_c, 0, 73, 0
1, 187304, Note_on_c, 0, 76, 0
1, 187304, Note_on_c, 0, 64, 0
1, 187307, Note_on_c, 0, 57, 0
1, 187307, Note_on_c, 0, 52, 0
1, 187307, Note_on_c, 0, 66, 82
1, 187463, Note_on_c, 0, 68, 74
1, 187490, Note_on_c, 0, 66, 0
1, 187628, Note_on_c, 0, 68, 0
1, 187628, Note_on_c, 0, 69, 82
1, 187722, Control_c, 0, 64, 127
1, 187920, Note_on_c, 0, 69, 0
1, 187946, Note_on_c, 0, 59, 63
1, 187946, Note_on_c, 0, 62, 63
1, 187946, Note_on_c, 0, 64, 70
1, 187949, Note_on_c, 0, 57, 74
1, 188258, Note_on_c, 0, 57, 0
1, 188287, Note_on_c, 0, 52, 70
1, 188287, Note_on_c, 0, 55, 77
1, 188296, Control_c, 0, 64, 0
1, 188369, Control_c, 0, 64, 127
1, 188590, Note_on_c, 0, 55, 0
1, 188617, Note_on_c, 0, 56, 74
1, 188955, Note_on_c, 0, 62, 0
1, 188955, Note_on_c, 0, 59, 0
1, 188955, Note_on_c, 0, 57, 69
1, 188958, Note_on_c, 0, 52, 0
1, 188958, Note_on_c, 0, 56, 0
1, 188958, Note_on_c, 0, 61, 69
1, 188961, Control_c, 0, 64, 0
1, 188961, Note_on_c, 0, 40, 65
1, 189271, Note_on_c, 0, 61, 0
1, 189271, Note_on_c, 0, 57, 0
1, 189271, Note_on_c, 0, 64, 0
1, 189274, Note_on_c, 0, 40, 0
1, 189274, Note_on_c, 0, 66, 70
1, 189430, Note_on_c, 0, 68, 65
1, 189457, Note_on_c, 0, 66, 0
1, 189595, Note_on_c, 0, 68, 0
1, 189595, Note_on_c, 0, 69, 70
1, 189689, Control_c, 0, 64, 127
1, 189887, Note_on_c, 0, 69, 0
1, 189913, Note_on_c, 0, 59, 55
1, 189913, Note_on_c, 0, 62, 55
1, 189913, Note_on_c, 0, 64, 63
1, 189916, Note_on_c, 0, 57, 65
1, 190225, Note_on_c, 0, 57, 0
1, 190254, Note_on_c, 0, 52, 63
1, 190254, Note_on_c, 0, 55, 68
1, 190260, Control_c, 0, 64, 0
1, 190336, Control_c, 0, 64, 127
1, 190552, Note_on_c, 0, 55, 0
1, 190579, Note_on_c, 0, 56, 65
1, 190917, Note_on_c, 0, 62, 0
1, 190917, Note_on_c, 0, 59, 0
1, 190917, Note_on_c, 0, 57, 68
1, 190920, Note_on_c, 0, 52, 0
1, 190920, Note_on_c, 0, 56, 0
1, 190920, Note_on_c, 0, 61, 69
1, 190923, Control_c, 0, 64, 0
1, 190923, Note_on_c, 0, 40, 65
1, 191233, Note_on_c, 0, 61, 0
1, 191233, Note_on_c, 0, 57, 0
1, 191233, Note_on_c, 0, 64, 0
1, 191236, Note_on_c, 0, 40, 0
1, 191236, Note_on_c, 0, 66, 82
1, 191392, Note_on_c, 0, 68, 74
1, 191419, Note_on_c, 0, 66, 0
1, 191557, Note_on_c, 0, 68, 0
1, 191557, Note_on_c, 0, 69, 82
1, 191651, Control_c, 0, 64, 127
1, 191849, Note_on_c, 0, 69, 0
1, 191875, Note_on_c, 0, 57, 63
1, 191875, Note_on_c, 0, 61, 63
1, 191875, Note_on_c, 0, 54, 74
1, 192042, Note_on_c, 0, 53, 67
1, 192070, Note_on_c, 0, 54, 0
1, 192208, Note_on_c, 0, 52, 77
1, 192222, Control_c, 0, 64, 0
1, 192235, Note_on_c, 0, 53, 0
1, 192308, Control_c, 0, 64, 127
1, 192505, Note_on_c, 0, 52, 0
1, 192531, Note_on_c, 0, 61, 0
1, 192531, Note_on_c, 0, 57, 0
1, 192531, Note_on_c, 0, 51, 67
1, 192534, Note_on_c, 0, 57, 67
1, 192534, Note_on_c, 0, 60, 67
1, 192534, Note_on_c, 0, 42, 70
1, 192700, Note_on_c, 0, 41, 67
1, 192729, Note_on_c, 0, 42, 0
1, 192869, Control_c, 0, 64, 0
1, 192869, Note_on_c, 0, 40, 77
1, 192897, Note_on_c, 0, 41, 0
1, 193203, Note_on_c, 0, 60, 0
1, 193203, Note_on_c, 0, 51, 0
1, 193203, Note_on_c, 0, 57, 0
1, 193206, Note_on_c, 0, 52, 63
1, 193206, Note_on_c, 0, 57, 63
1, 193206, Note_on_c, 0, 61, 70
1, 193209, Control_c, 0, 64, 127
1, 193529, Note_on_c, 0, 61, 0
1, 193529, Note_on_c, 0, 57, 0
1, 193529, Note_on_c, 0, 52, 0
1, 193532, Note_on_c, 0, 54, 67
1, 193532, Note_on_c, 0, 56, 67
1, 193532, Note_on_c, 0, 62, 75
1, 193543, Control_c, 0, 64, 0
1, 193809, Control_c, 0, 64, 127
1, 194205, Note_on_c, 0, 40, 0
1, 194205, Note_on_c, 0, 52, 70
1, 194542, Note_on_c, 0, 54, 0
1, 194542, Note_on_c, 0, 62, 0
1, 194542, Note_on_c, 0, 56, 0
1, 194545, Note_on_c, 0, 56, 69
1, 194545, Note_on_c, 0, 51, 69
1, 194880, Note_on_c, 0, 51, 0
1, 194880, Note_on_c, 0, 56, 0
1, 194880, Note_on_c, 0, 52, 0
1, 194883, Note_on_c, 0, 33, 57
1, 194900, Control_c, 0, 64, 0
1, 194992, Control_c, 0, 64, 127
1, 195001, Note_on_c, 0, 33, 0
1, 195001, Note_on_c, 0, 40, 57
1, 195122, Note_on_c, 0, 40, 0
1, 195122, Note_on_c, 0, 45, 56
1, 195242, Note_on_c, 0, 45, 0
1, 195242, Note_on_c, 0, 49, 65
1, 195363, Note_on_c, 0, 49, 0
1, 195363, Note_on_c, 0, 52, 61
1, 195484, Note_on_c, 0, 52, 0
1, 195484, Note_on_c, 0, 57, 63
1, 195605, Note_on_c, 0, 57, 0
1, 195605, Note_on_c, 0, 51, 67
1, 195619, Control_c, 0, 64, 0
1, 195672, Control_c, 0, 64, 127
1, 195722, Note_on_c, 0, 51, 0
1, 195722, Note_on_c, 0, 52, 61
1, 195838, Note_on_c, 0, 52, 0
1, 195838, Note_on_c, 0, 57, 61
1, 195954, Note_on_c, 0, 57, 0
1, 195954, Note_on_c, 0, 60, 65
1, 195963, Control_c, 0, 64, 0
1, 196027, Control_c, 0, 64, 127
1, 196069, Note_on_c, 0, 60, 0
1, 196069, Note_on_c, 0, 61, 61
1, 196184, Note_on_c, 0, 61, 0
1, 196184, Note_on_c, 0, 64, 61
1, 196297, Note_on_c, 0, 64, 0
1, 196297, Note_on_c, 0, 69, 74
1, 196318, Control_c, 0, 64, 0
1, 196426, Control_c, 0, 64, 127
1, 196995, Note_on_c, 0, 57, 61
1, 196995, Note_on_c, 0, 60, 60
1, 196995, Note_on_c, 0, 53, 57
1, 197005, Control_c, 0, 64, 0
1, 197303, Control_c, 0, 64, 127
1, 197676, Note_on_c, 0, 69, 0
1, 197676, Note_on_c, 0, 67, 72
1, 197690, Control_c, 0, 64, 0
1, 197802, Control_c, 0, 64, 127
1, 198009, Note_on_c, 0, 67, 0
1, 198009, Note_on_c, 0, 65, 69
1, 198360, Note_on_c, 0, 65, 0
1, 198360, Note_on_c, 0, 64, 72
1, 198698, Note_on_c, 0, 64, 0
1, 198698, Note_on_c, 0, 63, 68
1, 199079, Note_on_c, 0, 63, 0
1, 199079, Note_on_c, 0, 57, 0
1, 199079, Note_on_c, 0, 53, 0
1, 199082, Note_on_c, 0, 60, 0
1, 199082, Note_on_c, 0, 45, 57
1, 199092, Control_c, 0, 64, 0
1, 199134, Control_c, 0, 64, 127
1, 199197, Note_on_c, 0, 45, 0
1, 199197, Note_on_c, 0, 52, 57
1, 199316, Note_on_c, 0, 52, 0
1, 199316, Note_on_c, 0, 57, 56
1, 199435, Note_on_c, 0, 57, 0
1, 199435, Note_on_c, 0, 61, 65
1, 199554, Note_on_c, 0, 61, 0
1, 199554, Note_on_c, 0, 64, 61
1, 199673, Note_on_c, 0, 64, 0
1, 199673, Note_on_c, 0, 69, 63
1, 199792, Note_on_c, 0, 69, 0
1, 199792, Note_on_c, 0, 63, 67
1, 199798, Control_c, 0, 64, 0
1, 199826, Control_c, 0, 64, 127
1, 199911, Note_on_c, 0, 63, 0
1, 199911, Note_on_c, 0, 64, 61
1, 200029, Note_on_c, 0, 64, 0
1, 200029, Note_on_c, 0, 69, 61
1, 200146, Note_on_c, 0, 69, 0
1, 200146, Note_on_c, 0, 72, 65
1, 200158, Control_c, 0, 64, 0
1, 200183, Control_c, 0, 64, 127
1, 200263, Note_on_c, 0, 72, 0
1, 200263, Note_on_c, 0, 73, 61
1, 200379, Note_on_c, 0, 73, 0
1, 200379, Note_on_c, 0, 76, 61
1, 200493, Note_on_c, 0, 76, 0
1, 200493, Note_on_c, 0, 81, 78
1, 200502, Control_c, 0, 64, 0
1, 200637, Control_c, 0, 64, 127
1, 201205, Note_on_c, 0, 69, 61
1, 201205, Note_on_c, 0, 72, 60
1, 201205, Note_on_c, 0, 65, 57
1, 201214, Control_c, 0, 64, 0
1, 201515, Control_c, 0, 64, 127
1, 201891, Note_on_c, 0, 81, 0
1, 201891, Note_on_c, 0, 79, 72
1, 201905, Control_c, 0, 64, 0
1, 202113, Control_c, 0, 64, 127
1, 202224, Note_on_c, 0, 79, 0
1, 202224, Note_on_c, 0, 77, 69
1, 202577, Note_on_c, 0, 77, 0
1, 202577, Note_on_c, 0, 76, 72
1, 202920, Note_on_c, 0, 76, 0
1, 202920, Note_on_c, 0, 75, 68
1, 203274, Note_on_c, 0, 75, 0
1, 203274, Note_on_c, 0, 69, 0
1, 203274, Note_on_c, 0, 65, 0
1, 203277, Note_on_c, 0, 72, 0
1, 203288, Control_c, 0, 64, 0
1, 203385, Control_c, 0, 64, 127
1, 203394, Note_on_c, 0, 57, 54
1, 203514, Note_on_c, 0, 57, 0
1, 203514, Note_on_c, 0, 64, 53
1, 203634, Note_on_c, 0, 64, 0
1, 203634, Note_on_c, 0, 69, 60
1, 203753, Note_on_c, 0, 69, 0
1, 203753, Note_on_c, 0, 73, 56
1, 203873, Note_on_c, 0, 73, 0
1, 203873, Note_on_c, 0, 75, 57
1, 203993, Note_on_c, 0, 75, 0
1, 203993, Note_on_c, 0, 78, 61
1, 204003, Control_c, 0, 64, 0
1, 204053, Control_c, 0, 64, 127
1, 204113, Note_on_c, 0, 78, 0
1, 204113, Note_on_c, 0, 76, 56
1, 204233, Note_on_c, 0, 76, 0
1, 204233, Note_on_c, 0, 73, 56
1, 204352, Note_on_c, 0, 73, 0
1, 204352, Note_on_c, 0, 81, 60
1, 204358, Control_c, 0, 64, 0
1, 204382, Control_c, 0, 64, 127
1, 204470, Note_on_c, 0, 81, 0
1, 204470, Note_on_c, 0, 85, 56
1, 204589, Note_on_c, 0, 85, 0
1, 204589, Note_on_c, 0, 88, 56
1, 204708, Note_on_c, 0, 88, 0
1, 204708, Note_on_c, 0, 92, 60
1, 204717, Control_c, 0, 64, 0
1, 204747, Control_c, 0, 64, 127
1, 204827, Note_on_c, 0, 92, 0
1, 204827, Note_on_c, 0, 93, 56
1, 204948, Note_on_c, 0, 93, 0
1, 204948, Note_on_c, 0, 97, 56
1, 205069, Note_on_c, 0, 97, 0
1, 205069, Note_on_c, 0, 100, 63
1, 205086, Control_c, 0, 64, 0
1, 205198, Control_c, 0, 64, 127
1, 205470, Note_on_c, 0, 93, 55
1, 205470, Note_on_c, 0, 88, 55
1, 205470, Note_on_c, 0, 81, 50
1, 205473, Note_on_c, 0, 85, 50
1, 206275, Note_on_c, 0, 85, 0
1, 206275, Note_on_c, 0, 88, 0
1, 206275, Note_on_c, 0, 93, 0
1, 206278, Note_on_c, 0, 81, 0
1, 206310, Note_on_c, 0, 93, 55
1, 206310, Note_on_c, 0, 88, 55
1, 206310, Note_on_c, 0, 81, 51
1, 206313, Note_on_c, 0, 85, 51
1, 207115, Note_on_c, 0, 85, 0
1, 207115, Note_on_c, 0, 88, 0
1, 207115, Note_on_c, 0, 93, 0
1, 207118, Note_on_c, 0, 81, 0
1, 207150, Note_on_c, 0, 93, 55
1, 207150, Note_on_c, 0, 88, 55
1, 207150, Note_on_c, 0, 81, 51
1, 207153, Note_on_c, 0, 85, 51
1, 207994, Note_on_c, 0, 85, 0
1, 207994, Note_on_c, 0, 88, 0
1, 207994, Note_on_c, 0, 93, 0
1, 207997, Note_on_c, 0, 81, 0
1, 208031, Note_on_c, 0, 88, 54
1, 208031, Note_on_c, 0, 93, 54
1, 208031, Note_on_c, 0, 81, 50
1, 208034, Note_on_c, 0, 85, 50
1, 210673, Note_on_c, 0, 93, 0
1, 210673, Note_on_c, 0, 100, 0
1, 210673, Note_on_c, 0, 88, 0
1, 210676, Note_on_c, 0, 81, 0
1, 210676, Note_on_c, 0, 85, 0
1, 211310, Control_c, 0, 64, 0
1, 211310, End_track
0, 0, End_of_file
