0, 0, Header, 0, 1, 384
1, 0, Start_track
1, 0, Title_t, "Die JahreszeitenJuli"
1, 0, Copyright_t, "Adaptation for Disklavier pianos, by: Robert C. Kuhmann (c) 2012."
1, 0, Time_signature, 4, 2, 24, 8
1, 0, Key_signature, 0, "major"
1, 0, Tempo, 512821
1, 0, Program_c, 0, 0
1, 0, Control_c, 0, 7, 115
1, 748, Note_on_c, 0, 63, 92
1, 748, Note_on_c, 0, 67, 92
1, 748, Note_on_c, 0, 75, 108
1, 751, Control_c, 0, 91, 127
1, 751, Program_c, 0, 0
1, 751, Control_c, 0, 7, 100
1, 754, Control_c, 0, 64, 127
1, 754, Note_on_c, 0, 51, 78
1, 754, Note_on_c, 0, 58, 90
1, 1315, Note_on_c, 0, 75, 0
1, 1315, Note_on_c, 0, 67, 0
1, 1315, Note_on_c, 0, 67, 93
1, 1500, Note_on_c, 0, 67, 0
1, 1500, Note_on_c, 0, 63, 0
1, 1500, Note_on_c, 0, 70, 104
1, 1503, Note_on_c, 0, 67, 90
1, 1503, Note_on_c, 0, 63, 90
1, 1878, Note_on_c, 0, 63, 0
1, 1878, Note_on_c, 0, 70, 0
1, 1878, Note_on_c, 0, 67, 0
1, 1881, Note_on_c, 0, 72, 98
1, 1881, Note_on_c, 0, 67, 84
1, 1881, Note_on_c, 0, 63, 84
1, 1884, Note_on_c, 0, 58, 0
1, 1884, Note_on_c, 0, 51, 0
1, 1884, Note_on_c, 0, 51, 64
1, 1887, Note_on_c, 0, 58, 72
1, 1887, Note_on_c, 0, 46, 64
1, 1887, Control_c, 0, 64, 0
1, 1976, Control_c, 0, 64, 127
1, 2063, Note_on_c, 0, 67, 0
1, 2063, Note_on_c, 0, 72, 0
1, 2063, Note_on_c, 0, 67, 93
1, 2256, Note_on_c, 0, 67, 0
1, 2256, Note_on_c, 0, 63, 0
1, 2256, Note_on_c, 0, 70, 100
1, 2259, Note_on_c, 0, 46, 0
1, 2259, Note_on_c, 0, 63, 87
1, 2259, Note_on_c, 0, 67, 87
1, 2262, Note_on_c, 0, 58, 0
1, 2262, Note_on_c, 0, 51, 0
1, 2262, Note_on_c, 0, 58, 84
1, 2265, Note_on_c, 0, 51, 73
1, 2265, Control_c, 0, 64, 0
1, 2356, Control_c, 0, 64, 127
1, 2892, Control_c, 0, 64, 0
1, 3015, Note_on_c, 0, 70, 0
1, 3015, Note_on_c, 0, 67, 0
1, 3015, Note_on_c, 0, 63, 0
1, 3018, Note_on_c, 0, 63, 82
1, 3018, Note_on_c, 0, 67, 86
1, 3018, Note_on_c, 0, 70, 101
1, 3121, Control_c, 0, 64, 127
1, 3196, Note_on_c, 0, 70, 0
1, 3196, Note_on_c, 0, 72, 90
1, 3380, Note_on_c, 0, 72, 0
1, 3380, Note_on_c, 0, 67, 0
1, 3380, Note_on_c, 0, 63, 0
1, 3383, Note_on_c, 0, 51, 0
1, 3383, Note_on_c, 0, 63, 88
1, 3383, Note_on_c, 0, 67, 101
1, 3386, Note_on_c, 0, 58, 0
1, 3386, Note_on_c, 0, 51, 69
1, 3386, Note_on_c, 0, 58, 78
1, 3389, Note_on_c, 0, 46, 69
1, 3561, Note_on_c, 0, 67, 0
1, 3561, Note_on_c, 0, 72, 88
1, 3748, Note_on_c, 0, 72, 0
1, 3748, Note_on_c, 0, 63, 0
1, 3748, Note_on_c, 0, 70, 100
1, 3751, Note_on_c, 0, 46, 0
1, 3751, Note_on_c, 0, 67, 87
1, 3751, Note_on_c, 0, 63, 87
1, 3754, Note_on_c, 0, 58, 0
1, 3754, Note_on_c, 0, 51, 0
1, 3754, Note_on_c, 0, 51, 74
1, 3757, Note_on_c, 0, 58, 85
1, 3757, Control_c, 0, 64, 0
1, 4021, Control_c, 0, 64, 127
1, 4503, Note_on_c, 0, 70, 0
1, 4503, Note_on_c, 0, 63, 0
1, 4503, Note_on_c, 0, 67, 0
1, 4506, Note_on_c, 0, 63, 88
1, 4506, Note_on_c, 0, 67, 88
1, 4506, Note_on_c, 0, 70, 101
1, 4881, Note_on_c, 0, 51, 0
1, 4881, Note_on_c, 0, 58, 0
1, 4881, Note_on_c, 0, 46, 70
1, 4884, Note_on_c, 0, 58, 81
1, 4884, Note_on_c, 0, 51, 70
1, 5007, Control_c, 0, 64, 0
1, 5259, Note_on_c, 0, 67, 0
1, 5259, Note_on_c, 0, 70, 0
1, 5259, Note_on_c, 0, 63, 0
1, 5262, Note_on_c, 0, 77, 104
1, 5262, Note_on_c, 0, 65, 90
1, 5262, Note_on_c, 0, 70, 90
1, 5265, Note_on_c, 0, 46, 0
1, 5265, Note_on_c, 0, 51, 0
1, 5265, Note_on_c, 0, 58, 0
1, 5268, Note_on_c, 0, 62, 87
1, 5268, Note_on_c, 0, 58, 76
1, 5268, Note_on_c, 0, 51, 76
1, 5495, Control_c, 0, 64, 127
1, 5825, Note_on_c, 0, 77, 0
1, 5825, Note_on_c, 0, 65, 0
1, 5825, Note_on_c, 0, 79, 97
1, 5828, Note_on_c, 0, 67, 84
1, 6011, Note_on_c, 0, 67, 0
1, 6011, Note_on_c, 0, 79, 0
1, 6011, Note_on_c, 0, 65, 90
1, 6014, Note_on_c, 0, 77, 104
1, 6389, Note_on_c, 0, 77, 0
1, 6389, Note_on_c, 0, 70, 0
1, 6389, Note_on_c, 0, 65, 0
1, 6392, Note_on_c, 0, 68, 88
1, 6392, Note_on_c, 0, 60, 88
1, 6392, Note_on_c, 0, 72, 101
1, 6395, Note_on_c, 0, 62, 0
1, 6395, Note_on_c, 0, 51, 0
1, 6395, Note_on_c, 0, 58, 0
1, 6398, Note_on_c, 0, 53, 76
1, 6398, Note_on_c, 0, 46, 66
1, 6398, Control_c, 0, 64, 0
1, 6541, Control_c, 0, 64, 127
1, 6573, Note_on_c, 0, 72, 0
1, 6573, Note_on_c, 0, 60, 0
1, 6573, Note_on_c, 0, 62, 86
1, 6576, Note_on_c, 0, 74, 98
1, 6764, Note_on_c, 0, 74, 0
1, 6764, Note_on_c, 0, 68, 0
1, 6764, Note_on_c, 0, 62, 0
1, 6767, Note_on_c, 0, 75, 104
1, 6767, Note_on_c, 0, 63, 90
1, 6767, Note_on_c, 0, 67, 90
1, 6770, Note_on_c, 0, 46, 0
1, 6770, Note_on_c, 0, 53, 0
1, 6770, Note_on_c, 0, 51, 76
1, 6773, Note_on_c, 0, 58, 87
1, 6773, Control_c, 0, 64, 0
1, 6986, Control_c, 0, 64, 127
1, 7519, Note_on_c, 0, 63, 0
1, 7519, Note_on_c, 0, 67, 0
1, 7519, Note_on_c, 0, 75, 0
1, 7522, Note_on_c, 0, 63, 87
1, 7522, Note_on_c, 0, 67, 87
1, 7522, Note_on_c, 0, 75, 100
1, 7530, Control_c, 0, 64, 0
1, 7670, Control_c, 0, 64, 127
1, 7702, Note_on_c, 0, 75, 0
1, 7702, Note_on_c, 0, 63, 0
1, 7702, Note_on_c, 0, 62, 78
1, 7705, Note_on_c, 0, 74, 89
1, 7889, Note_on_c, 0, 74, 0
1, 7889, Note_on_c, 0, 67, 0
1, 7889, Note_on_c, 0, 62, 0
1, 7892, Note_on_c, 0, 72, 95
1, 7892, Note_on_c, 0, 60, 83
1, 7892, Note_on_c, 0, 68, 83
1, 7895, Note_on_c, 0, 51, 0
1, 7895, Note_on_c, 0, 58, 0
1, 7895, Note_on_c, 0, 46, 66
1, 7898, Note_on_c, 0, 53, 76
1, 8074, Note_on_c, 0, 60, 0
1, 8074, Note_on_c, 0, 72, 0
1, 8074, Note_on_c, 0, 74, 84
1, 8077, Note_on_c, 0, 62, 73
1, 8266, Note_on_c, 0, 62, 0
1, 8266, Note_on_c, 0, 68, 0
1, 8266, Note_on_c, 0, 74, 0
1, 8269, Note_on_c, 0, 67, 85
1, 8269, Note_on_c, 0, 63, 85
1, 8269, Note_on_c, 0, 58, 85
1, 8272, Note_on_c, 0, 53, 0
1, 8272, Note_on_c, 0, 46, 0
1, 8272, Note_on_c, 0, 70, 97
1, 8275, Note_on_c, 0, 51, 85
1, 8275, Control_c, 0, 64, 0
1, 8399, Control_c, 0, 64, 127
1, 9022, Note_on_c, 0, 58, 0
1, 9022, Note_on_c, 0, 58, 92
1, 9037, Control_c, 0, 64, 0
1, 9197, Control_c, 0, 64, 127
1, 9207, Note_on_c, 0, 51, 0
1, 9207, Note_on_c, 0, 50, 83
1, 9395, Note_on_c, 0, 70, 0
1, 9395, Note_on_c, 0, 63, 0
1, 9395, Note_on_c, 0, 67, 0
1, 9398, Note_on_c, 0, 70, 91
1, 9398, Note_on_c, 0, 68, 79
1, 9398, Note_on_c, 0, 65, 79
1, 9401, Note_on_c, 0, 50, 0
1, 9401, Note_on_c, 0, 48, 79
1, 9401, Note_on_c, 0, 46, 70
1, 9582, Note_on_c, 0, 48, 0
1, 9582, Note_on_c, 0, 50, 76
1, 9770, Note_on_c, 0, 58, 0
1, 9770, Note_on_c, 0, 65, 0
1, 9770, Note_on_c, 0, 70, 0
1, 9773, Note_on_c, 0, 68, 0
1, 9773, Note_on_c, 0, 67, 82
1, 9773, Note_on_c, 0, 70, 93
1, 9776, Note_on_c, 0, 50, 0
1, 9776, Note_on_c, 0, 58, 80
1, 9776, Note_on_c, 0, 63, 80
1, 9779, Note_on_c, 0, 46, 0
1, 9779, Note_on_c, 0, 51, 80
1, 9779, Control_c, 0, 64, 0
1, 10026, Control_c, 0, 64, 127
1, 10526, Note_on_c, 0, 58, 0
1, 10526, Note_on_c, 0, 58, 92
1, 10534, Control_c, 0, 64, 0
1, 10614, Control_c, 0, 64, 127
1, 10712, Note_on_c, 0, 51, 0
1, 10712, Note_on_c, 0, 50, 83
1, 10901, Note_on_c, 0, 63, 0
1, 10901, Note_on_c, 0, 70, 0
1, 10901, Note_on_c, 0, 67, 0
1, 10904, Note_on_c, 0, 65, 79
1, 10904, Note_on_c, 0, 68, 79
1, 10904, Note_on_c, 0, 70, 91
1, 10907, Note_on_c, 0, 50, 0
1, 10907, Note_on_c, 0, 46, 70
1, 10907, Note_on_c, 0, 48, 79
1, 11087, Note_on_c, 0, 48, 0
1, 11087, Note_on_c, 0, 50, 76
1, 11283, Note_on_c, 0, 65, 0
1, 11283, Note_on_c, 0, 70, 0
1, 11283, Note_on_c, 0, 58, 0
1, 11286, Note_on_c, 0, 68, 0
1, 11286, Note_on_c, 0, 63, 92
1, 11286, Note_on_c, 0, 67, 93
1, 11289, Note_on_c, 0, 46, 0
1, 11289, Note_on_c, 0, 50, 0
1, 11289, Note_on_c, 0, 75, 108
1, 11292, Control_c, 0, 64, 0
1, 11292, Note_on_c, 0, 58, 90
1, 11292, Note_on_c, 0, 51, 78
1, 11472, Control_c, 0, 64, 127
1, 11849, Note_on_c, 0, 75, 0
1, 11849, Note_on_c, 0, 67, 0
1, 11849, Note_on_c, 0, 67, 93
1, 12034, Note_on_c, 0, 67, 0
1, 12034, Note_on_c, 0, 63, 0
1, 12034, Note_on_c, 0, 70, 104
1, 12037, Note_on_c, 0, 67, 90
1, 12037, Note_on_c, 0, 63, 90
1, 12412, Note_on_c, 0, 63, 0
1, 12412, Note_on_c, 0, 70, 0
1, 12412, Note_on_c, 0, 67, 0
1, 12415, Note_on_c, 0, 72, 98
1, 12415, Note_on_c, 0, 67, 84
1, 12415, Note_on_c, 0, 63, 84
1, 12418, Note_on_c, 0, 51, 0
1, 12418, Note_on_c, 0, 58, 0
1, 12418, Note_on_c, 0, 46, 64
1, 12421, Note_on_c, 0, 58, 72
1, 12421, Note_on_c, 0, 51, 64
1, 12421, Control_c, 0, 64, 0
1, 12510, Control_c, 0, 64, 127
1, 12597, Note_on_c, 0, 67, 0
1, 12597, Note_on_c, 0, 72, 0
1, 12597, Note_on_c, 0, 67, 93
1, 12790, Note_on_c, 0, 67, 0
1, 12790, Note_on_c, 0, 63, 0
1, 12790, Note_on_c, 0, 70, 100
1, 12793, Note_on_c, 0, 51, 0
1, 12793, Note_on_c, 0, 67, 87
1, 12793, Note_on_c, 0, 63, 87
1, 12796, Note_on_c, 0, 58, 0
1, 12796, Note_on_c, 0, 46, 0
1, 12796, Note_on_c, 0, 51, 73
1, 12799, Note_on_c, 0, 58, 84
1, 12799, Control_c, 0, 64, 0
1, 12890, Control_c, 0, 64, 127
1, 13427, Control_c, 0, 64, 0
1, 13549, Note_on_c, 0, 70, 0
1, 13549, Note_on_c, 0, 63, 0
1, 13549, Note_on_c, 0, 67, 0
1, 13552, Note_on_c, 0, 67, 86
1, 13552, Note_on_c, 0, 63, 82
1, 13552, Note_on_c, 0, 70, 101
1, 13656, Control_c, 0, 64, 127
1, 13730, Note_on_c, 0, 70, 0
1, 13730, Note_on_c, 0, 72, 90
1, 13914, Note_on_c, 0, 72, 0
1, 13914, Note_on_c, 0, 63, 0
1, 13914, Note_on_c, 0, 67, 0
1, 13917, Note_on_c, 0, 58, 0
1, 13917, Note_on_c, 0, 63, 88
1, 13917, Note_on_c, 0, 67, 101
1, 13920, Note_on_c, 0, 51, 0
1, 13920, Note_on_c, 0, 51, 69
1, 13920, Note_on_c, 0, 46, 69
1, 13923, Note_on_c, 0, 58, 78
1, 14096, Note_on_c, 0, 67, 0
1, 14096, Note_on_c, 0, 72, 88
1, 14282, Note_on_c, 0, 72, 0
1, 14282, Note_on_c, 0, 63, 0
1, 14282, Note_on_c, 0, 63, 87
1, 14285, Note_on_c, 0, 58, 0
1, 14285, Note_on_c, 0, 70, 100
1, 14285, Note_on_c, 0, 67, 87
1, 14288, Note_on_c, 0, 46, 0
1, 14288, Note_on_c, 0, 51, 0
1, 14288, Note_on_c, 0, 58, 85
1, 14291, Note_on_c, 0, 51, 74
1, 14291, Control_c, 0, 64, 0
1, 14576, Control_c, 0, 64, 127
1, 15038, Note_on_c, 0, 63, 0
1, 15038, Note_on_c, 0, 67, 0
1, 15038, Note_on_c, 0, 70, 0
1, 15041, Note_on_c, 0, 70, 101
1, 15041, Note_on_c, 0, 67, 88
1, 15041, Note_on_c, 0, 63, 88
1, 15415, Note_on_c, 0, 58, 0
1, 15415, Note_on_c, 0, 51, 0
1, 15415, Note_on_c, 0, 51, 70
1, 15418, Note_on_c, 0, 46, 70
1, 15418, Note_on_c, 0, 58, 81
1, 15541, Control_c, 0, 64, 0
1, 15793, Note_on_c, 0, 67, 0
1, 15793, Note_on_c, 0, 63, 0
1, 15793, Note_on_c, 0, 70, 0
1, 15796, Note_on_c, 0, 77, 104
1, 15796, Note_on_c, 0, 65, 90
1, 15796, Note_on_c, 0, 70, 90
1, 15799, Note_on_c, 0, 51, 0
1, 15799, Note_on_c, 0, 58, 0
1, 15799, Note_on_c, 0, 46, 0
1, 15802, Note_on_c, 0, 51, 76
1, 15802, Note_on_c, 0, 58, 76
1, 15802, Note_on_c, 0, 62, 87
1, 16029, Control_c, 0, 64, 127
1, 16360, Note_on_c, 0, 77, 0
1, 16360, Note_on_c, 0, 65, 0
1, 16360, Note_on_c, 0, 67, 84
1, 16363, Note_on_c, 0, 79, 97
1, 16546, Note_on_c, 0, 79, 0
1, 16546, Note_on_c, 0, 67, 0
1, 16546, Note_on_c, 0, 65, 90
1, 16549, Note_on_c, 0, 77, 104
1, 16923, Note_on_c, 0, 77, 0
1, 16923, Note_on_c, 0, 70, 0
1, 16923, Note_on_c, 0, 65, 0
1, 16926, Note_on_c, 0, 72, 101
1, 16926, Note_on_c, 0, 60, 88
1, 16926, Note_on_c, 0, 68, 88
1, 16929, Note_on_c, 0, 51, 0
1, 16929, Note_on_c, 0, 62, 0
1, 16929, Note_on_c, 0, 58, 0
1, 16932, Note_on_c, 0, 53, 76
1, 16932, Note_on_c, 0, 46, 66
1, 16932, Control_c, 0, 64, 0
1, 17010, Control_c, 0, 64, 127
1, 17107, Note_on_c, 0, 72, 0
1, 17107, Note_on_c, 0, 60, 0
1, 17107, Note_on_c, 0, 62, 86
1, 17110, Note_on_c, 0, 74, 98
1, 17298, Note_on_c, 0, 74, 0
1, 17298, Note_on_c, 0, 68, 0
1, 17298, Note_on_c, 0, 62, 0
1, 17301, Note_on_c, 0, 67, 90
1, 17301, Note_on_c, 0, 63, 90
1, 17301, Note_on_c, 0, 75, 104
1, 17304, Note_on_c, 0, 46, 0
1, 17304, Note_on_c, 0, 53, 0
1, 17304, Control_c, 0, 64, 0
1, 17307, Note_on_c, 0, 58, 87
1, 17307, Note_on_c, 0, 51, 76
1, 17509, Control_c, 0, 64, 127
1, 18054, Note_on_c, 0, 63, 0
1, 18054, Note_on_c, 0, 75, 0
1, 18054, Note_on_c, 0, 67, 0
1, 18057, Note_on_c, 0, 63, 87
1, 18057, Note_on_c, 0, 67, 87
1, 18057, Note_on_c, 0, 75, 100
1, 18069, Control_c, 0, 64, 0
1, 18238, Note_on_c, 0, 75, 0
1, 18238, Note_on_c, 0, 63, 0
1, 18238, Note_on_c, 0, 62, 78
1, 18241, Note_on_c, 0, 74, 89
1, 18249, Control_c, 0, 64, 127
1, 18425, Note_on_c, 0, 74, 0
1, 18425, Note_on_c, 0, 67, 0
1, 18425, Note_on_c, 0, 62, 0
1, 18428, Note_on_c, 0, 72, 95
1, 18428, Note_on_c, 0, 60, 83
1, 18428, Note_on_c, 0, 68, 83
1, 18431, Note_on_c, 0, 58, 0
1, 18431, Note_on_c, 0, 51, 0
1, 18431, Note_on_c, 0, 53, 76
1, 18434, Note_on_c, 0, 46, 66
1, 18610, Note_on_c, 0, 60, 0
1, 18610, Note_on_c, 0, 72, 0
1, 18610, Note_on_c, 0, 74, 84
1, 18613, Note_on_c, 0, 62, 73
1, 18803, Note_on_c, 0, 62, 0
1, 18803, Note_on_c, 0, 68, 0
1, 18803, Note_on_c, 0, 74, 0
1, 18806, Note_on_c, 0, 70, 93
1, 18806, Note_on_c, 0, 67, 82
1, 18806, Note_on_c, 0, 63, 82
1, 18809, Note_on_c, 0, 46, 0
1, 18809, Note_on_c, 0, 53, 0
1, 18809, Note_on_c, 0, 51, 82
1, 18812, Note_on_c, 0, 58, 82
1, 18812, Control_c, 0, 64, 0
1, 19048, Control_c, 0, 64, 127
1, 19558, Note_on_c, 0, 63, 0
1, 19558, Note_on_c, 0, 63, 90
1, 19574, Control_c, 0, 64, 0
1, 19744, Note_on_c, 0, 63, 0
1, 19744, Note_on_c, 0, 62, 86
1, 19777, Control_c, 0, 64, 127
1, 19932, Note_on_c, 0, 62, 0
1, 19932, Note_on_c, 0, 67, 0
1, 19932, Note_on_c, 0, 70, 0
1, 19935, Note_on_c, 0, 66, 79
1, 19935, Note_on_c, 0, 72, 91
1, 19935, Note_on_c, 0, 60, 81
1, 19938, Note_on_c, 0, 51, 0
1, 19938, Note_on_c, 0, 58, 0
1, 19938, Note_on_c, 0, 44, 70
1, 19941, Note_on_c, 0, 50, 70
1, 20118, Note_on_c, 0, 60, 0
1, 20118, Note_on_c, 0, 62, 78
1, 20307, Note_on_c, 0, 62, 0
1, 20307, Note_on_c, 0, 72, 0
1, 20307, Note_on_c, 0, 66, 0
1, 20310, Note_on_c, 0, 67, 94
1, 20310, Note_on_c, 0, 60, 82
1, 20310, Note_on_c, 0, 62, 82
1, 20313, Note_on_c, 0, 44, 0
1, 20313, Note_on_c, 0, 50, 0
1, 20313, Note_on_c, 0, 43, 72
1, 20316, Note_on_c, 0, 50, 82
1, 20323, Control_c, 0, 64, 0
1, 20507, Control_c, 0, 64, 127
1, 21072, Note_on_c, 0, 60, 0
1, 21072, Note_on_c, 0, 59, 83
1, 21168, Control_c, 0, 64, 0
1, 21254, Note_on_c, 0, 59, 0
1, 21254, Note_on_c, 0, 62, 0
1, 21254, Note_on_c, 0, 67, 0
1, 21257, Note_on_c, 0, 43, 0
1, 21257, Note_on_c, 0, 50, 0
1, 21257, Note_on_c, 0, 41, 83
1, 21434, Note_on_c, 0, 41, 0
1, 21434, Note_on_c, 0, 55, 100
1, 21434, Note_on_c, 0, 39, 83
1, 21611, Note_on_c, 0, 39, 0
1, 21611, Note_on_c, 0, 38, 83
1, 21787, Note_on_c, 0, 38, 0
1, 21787, Note_on_c, 0, 55, 0
1, 21787, Note_on_c, 0, 60, 95
1, 21790, Note_on_c, 0, 36, 87
1, 21875, Note_on_c, 0, 36, 0
1, 21875, Note_on_c, 0, 60, 0
1, 21963, Note_on_c, 0, 43, 81
1, 22048, Note_on_c, 0, 43, 0
1, 22133, Note_on_c, 0, 63, 86
1, 22133, Note_on_c, 0, 67, 100
1, 22133, Note_on_c, 0, 60, 81
1, 22136, Note_on_c, 0, 48, 83
1, 22153, Control_c, 0, 64, 127
1, 22219, Note_on_c, 0, 48, 0
1, 22305, Note_on_c, 0, 43, 79
1, 22391, Note_on_c, 0, 43, 0
1, 22478, Note_on_c, 0, 60, 0
1, 22478, Note_on_c, 0, 67, 0
1, 22478, Note_on_c, 0, 63, 0
1, 22481, Note_on_c, 0, 62, 87
1, 22481, Note_on_c, 0, 36, 87
1, 22517, Control_c, 0, 64, 0
1, 22563, Note_on_c, 0, 36, 0
1, 22648, Note_on_c, 0, 62, 0
1, 22648, Note_on_c, 0, 43, 79
1, 22732, Note_on_c, 0, 43, 0
1, 22816, Note_on_c, 0, 65, 87
1, 22816, Note_on_c, 0, 67, 101
1, 22816, Note_on_c, 0, 62, 82
1, 22819, Note_on_c, 0, 48, 82
1, 22876, Control_c, 0, 64, 127
1, 22901, Note_on_c, 0, 48, 0
1, 22986, Note_on_c, 0, 43, 79
1, 23071, Note_on_c, 0, 43, 0
1, 23156, Note_on_c, 0, 62, 0
1, 23156, Note_on_c, 0, 67, 0
1, 23156, Note_on_c, 0, 65, 0
1, 23159, Note_on_c, 0, 63, 93
1, 23159, Note_on_c, 0, 36, 88
1, 23196, Control_c, 0, 64, 0
1, 23242, Note_on_c, 0, 36, 0
1, 23329, Note_on_c, 0, 63, 0
1, 23329, Note_on_c, 0, 43, 80
1, 23413, Note_on_c, 0, 43, 0
1, 23498, Note_on_c, 0, 62, 78
1, 23498, Note_on_c, 0, 65, 78
1, 23498, Note_on_c, 0, 67, 89
1, 23501, Note_on_c, 0, 48, 83
1, 23582, Note_on_c, 0, 48, 0
1, 23666, Note_on_c, 0, 62, 0
1, 23666, Note_on_c, 0, 60, 91
1, 23666, Note_on_c, 0, 43, 80
1, 23751, Note_on_c, 0, 43, 0
1, 23837, Note_on_c, 0, 65, 0
1, 23837, Note_on_c, 0, 67, 0
1, 23837, Note_on_c, 0, 60, 0
1, 23840, Note_on_c, 0, 59, 86
1, 23840, Note_on_c, 0, 36, 87
1, 23923, Note_on_c, 0, 36, 0
1, 24009, Note_on_c, 0, 59, 0
1, 24009, Note_on_c, 0, 43, 80
1, 24095, Note_on_c, 0, 43, 0
1, 24180, Note_on_c, 0, 67, 100
1, 24180, Note_on_c, 0, 55, 80
1, 24180, Note_on_c, 0, 65, 83
1, 24183, Note_on_c, 0, 48, 83
1, 24240, Control_c, 0, 64, 127
1, 24265, Note_on_c, 0, 48, 0
1, 24350, Note_on_c, 0, 43, 79
1, 24434, Note_on_c, 0, 43, 0
1, 24519, Note_on_c, 0, 65, 0
1, 24519, Note_on_c, 0, 55, 0
1, 24519, Note_on_c, 0, 67, 0
1, 24522, Note_on_c, 0, 60, 95
1, 24522, Control_c, 0, 64, 0
1, 24522, Note_on_c, 0, 36, 87
1, 24605, Note_on_c, 0, 36, 0
1, 24691, Note_on_c, 0, 60, 0
1, 24691, Note_on_c, 0, 43, 81
1, 24775, Note_on_c, 0, 43, 0
1, 24858, Note_on_c, 0, 60, 86
1, 24858, Note_on_c, 0, 67, 100
1, 24858, Note_on_c, 0, 63, 86
1, 24861, Note_on_c, 0, 48, 83
1, 24908, Control_c, 0, 64, 127
1, 24943, Note_on_c, 0, 48, 0
1, 25028, Note_on_c, 0, 43, 79
1, 25114, Note_on_c, 0, 43, 0
1, 25201, Note_on_c, 0, 63, 0
1, 25201, Note_on_c, 0, 67, 0
1, 25201, Note_on_c, 0, 60, 0
1, 25204, Note_on_c, 0, 57, 87
1, 25204, Note_on_c, 0, 36, 87
1, 25256, Control_c, 0, 64, 0
1, 25285, Note_on_c, 0, 36, 0
1, 25370, Note_on_c, 0, 57, 0
1, 25370, Note_on_c, 0, 43, 79
1, 25455, Note_on_c, 0, 43, 0
1, 25539, Note_on_c, 0, 57, 86
1, 25539, Note_on_c, 0, 65, 86
1, 25539, Note_on_c, 0, 67, 101
1, 25542, Note_on_c, 0, 48, 82
1, 25574, Control_c, 0, 64, 127
1, 25624, Note_on_c, 0, 48, 0
1, 25708, Note_on_c, 0, 57, 0
1, 25708, Note_on_c, 0, 59, 87
1, 25708, Note_on_c, 0, 43, 79
1, 25794, Note_on_c, 0, 43, 0
1, 25844, Control_c, 0, 64, 0
1, 25879, Note_on_c, 0, 65, 0
1, 25879, Note_on_c, 0, 67, 0
1, 25879, Note_on_c, 0, 59, 0
1, 25882, Note_on_c, 0, 60, 95
1, 25882, Note_on_c, 0, 36, 87
1, 25965, Note_on_c, 0, 36, 0
1, 26052, Note_on_c, 0, 60, 0
1, 26052, Note_on_c, 0, 43, 81
1, 26136, Note_on_c, 0, 43, 0
1, 26205, Control_c, 0, 64, 127
1, 26220, Note_on_c, 0, 63, 86
1, 26220, Note_on_c, 0, 67, 100
1, 26220, Note_on_c, 0, 60, 86
1, 26223, Note_on_c, 0, 48, 83
1, 26305, Note_on_c, 0, 48, 0
1, 26389, Note_on_c, 0, 43, 79
1, 26475, Note_on_c, 0, 43, 0
1, 26561, Note_on_c, 0, 60, 0
1, 26561, Note_on_c, 0, 67, 0
1, 26561, Note_on_c, 0, 63, 0
1, 26564, Note_on_c, 0, 75, 91
1, 26564, Note_on_c, 0, 79, 105
1, 26564, Note_on_c, 0, 67, 91
1, 26567, Note_on_c, 0, 72, 91
1, 26567, Note_on_c, 0, 36, 87
1, 26630, Control_c, 0, 64, 0
1, 26645, Note_on_c, 0, 36, 0
1, 26730, Note_on_c, 0, 79, 0
1, 26730, Note_on_c, 0, 75, 0
1, 26730, Note_on_c, 0, 72, 0
1, 26733, Note_on_c, 0, 67, 0
1, 26733, Note_on_c, 0, 43, 79
1, 26815, Note_on_c, 0, 43, 0
1, 26899, Note_on_c, 0, 67, 101
1, 26899, Note_on_c, 0, 55, 87
1, 26899, Note_on_c, 0, 48, 82
1, 26944, Control_c, 0, 64, 127
1, 26984, Note_on_c, 0, 48, 0
1, 27068, Note_on_c, 0, 43, 79
1, 27154, Note_on_c, 0, 43, 0
1, 27240, Note_on_c, 0, 55, 0
1, 27240, Note_on_c, 0, 67, 0
1, 27240, Note_on_c, 0, 72, 95
1, 27243, Note_on_c, 0, 67, 95
1, 27243, Note_on_c, 0, 63, 95
1, 27243, Note_on_c, 0, 60, 95
1, 27246, Control_c, 0, 64, 0
1, 27246, Note_on_c, 0, 36, 87
1, 27325, Note_on_c, 0, 36, 0
1, 27410, Note_on_c, 0, 67, 0
1, 27410, Note_on_c, 0, 72, 0
1, 27410, Note_on_c, 0, 60, 0
1, 27413, Note_on_c, 0, 63, 0
1, 27413, Note_on_c, 0, 43, 81
1, 27494, Note_on_c, 0, 43, 0
1, 27578, Note_on_c, 0, 60, 86
1, 27578, Note_on_c, 0, 72, 100
1, 27578, Note_on_c, 0, 48, 83
1, 27618, Control_c, 0, 64, 127
1, 27663, Note_on_c, 0, 48, 0
1, 27747, Note_on_c, 0, 55, 79
1, 27833, Note_on_c, 0, 55, 0
1, 27919, Note_on_c, 0, 72, 0
1, 27919, Note_on_c, 0, 60, 0
1, 27919, Note_on_c, 0, 62, 86
1, 27922, Note_on_c, 0, 74, 100
1, 27922, Note_on_c, 0, 71, 86
1, 27922, Note_on_c, 0, 67, 86
1, 27925, Note_on_c, 0, 55, 87
1, 28003, Note_on_c, 0, 55, 0
1, 28012, Control_c, 0, 64, 0
1, 28087, Note_on_c, 0, 74, 0
1, 28087, Note_on_c, 0, 62, 0
1, 28087, Note_on_c, 0, 67, 0
1, 28090, Note_on_c, 0, 71, 0
1, 28090, Note_on_c, 0, 48, 79
1, 28170, Note_on_c, 0, 48, 0
1, 28254, Note_on_c, 0, 62, 87
1, 28254, Note_on_c, 0, 74, 101
1, 28254, Note_on_c, 0, 43, 82
1, 28309, Control_c, 0, 64, 127
1, 28339, Note_on_c, 0, 43, 0
1, 28423, Note_on_c, 0, 36, 79
1, 28508, Note_on_c, 0, 36, 0
1, 28594, Note_on_c, 0, 74, 0
1, 28594, Note_on_c, 0, 62, 0
1, 28594, Note_on_c, 0, 67, 95
1, 28597, Note_on_c, 0, 63, 95
1, 28597, Note_on_c, 0, 75, 95
1, 28597, Note_on_c, 0, 72, 95
1, 28600, Note_on_c, 0, 36, 87
1, 28649, Control_c, 0, 64, 0
1, 28678, Note_on_c, 0, 36, 0
1, 28763, Note_on_c, 0, 63, 0
1, 28763, Note_on_c, 0, 67, 0
1, 28763, Note_on_c, 0, 72, 0
1, 28766, Note_on_c, 0, 75, 0
1, 28766, Note_on_c, 0, 43, 81
1, 28847, Note_on_c, 0, 43, 0
1, 28932, Note_on_c, 0, 62, 86
1, 28932, Note_on_c, 0, 74, 100
1, 28932, Note_on_c, 0, 48, 83
1, 28970, Control_c, 0, 64, 127
1, 29015, Note_on_c, 0, 48, 0
1, 29098, Note_on_c, 0, 74, 0
1, 29098, Note_on_c, 0, 62, 0
1, 29098, Note_on_c, 0, 72, 100
1, 29101, Note_on_c, 0, 60, 86
1, 29101, Note_on_c, 0, 55, 79
1, 29181, Note_on_c, 0, 55, 0
1, 29264, Note_on_c, 0, 60, 0
1, 29264, Note_on_c, 0, 72, 0
1, 29264, Note_on_c, 0, 62, 86
1, 29267, Note_on_c, 0, 67, 86
1, 29267, Note_on_c, 0, 71, 86
1, 29267, Note_on_c, 0, 74, 100
1, 29270, Note_on_c, 0, 55, 87
1, 29313, Control_c, 0, 64, 0
1, 29348, Note_on_c, 0, 55, 0
1, 29432, Note_on_c, 0, 67, 0
1, 29432, Note_on_c, 0, 62, 0
1, 29432, Note_on_c, 0, 74, 0
1, 29435, Note_on_c, 0, 71, 0
1, 29435, Note_on_c, 0, 48, 79
1, 29516, Note_on_c, 0, 48, 0
1, 29600, Note_on_c, 0, 55, 87
1, 29600, Note_on_c, 0, 67, 101
1, 29600, Note_on_c, 0, 43, 82
1, 29639, Control_c, 0, 64, 127
1, 29684, Note_on_c, 0, 43, 0
1, 29768, Note_on_c, 0, 36, 79
1, 29854, Note_on_c, 0, 36, 0
1, 29940, Note_on_c, 0, 67, 0
1, 29940, Note_on_c, 0, 55, 0
1, 29940, Note_on_c, 0, 60, 99
1, 29943, Note_on_c, 0, 72, 99
1, 29943, Note_on_c, 0, 36, 90
1, 29943, Control_c, 0, 64, 0
1, 30025, Note_on_c, 0, 36, 0
1, 30111, Note_on_c, 0, 72, 0
1, 30111, Note_on_c, 0, 60, 0
1, 30111, Note_on_c, 0, 43, 83
1, 30194, Note_on_c, 0, 43, 0
1, 30278, Note_on_c, 0, 75, 94
1, 30278, Note_on_c, 0, 79, 108
1, 30278, Note_on_c, 0, 67, 94
1, 30281, Note_on_c, 0, 72, 94
1, 30281, Note_on_c, 0, 48, 87
1, 30347, Control_c, 0, 64, 127
1, 30361, Note_on_c, 0, 48, 0
1, 30445, Note_on_c, 0, 55, 82
1, 30529, Note_on_c, 0, 55, 0
1, 30612, Note_on_c, 0, 72, 0
1, 30612, Note_on_c, 0, 75, 0
1, 30612, Note_on_c, 0, 79, 0
1, 30615, Note_on_c, 0, 67, 0
1, 30615, Note_on_c, 0, 63, 91
1, 30615, Note_on_c, 0, 75, 105
1, 30618, Note_on_c, 0, 55, 92
1, 30697, Note_on_c, 0, 55, 0
1, 30762, Control_c, 0, 64, 0
1, 30781, Note_on_c, 0, 75, 0
1, 30781, Note_on_c, 0, 63, 0
1, 30781, Note_on_c, 0, 48, 82
1, 30866, Note_on_c, 0, 48, 0
1, 30951, Note_on_c, 0, 62, 92
1, 30951, Note_on_c, 0, 67, 92
1, 30951, Note_on_c, 0, 71, 92
1, 30954, Note_on_c, 0, 74, 106
1, 30954, Note_on_c, 0, 43, 85
1, 31035, Note_on_c, 0, 43, 0
1, 31119, Note_on_c, 0, 67, 0
1, 31119, Note_on_c, 0, 62, 0
1, 31119, Note_on_c, 0, 74, 0
1, 31122, Note_on_c, 0, 71, 0
1, 31122, Note_on_c, 0, 75, 106
1, 31122, Note_on_c, 0, 63, 92
1, 31125, Note_on_c, 0, 36, 82
1, 31210, Note_on_c, 0, 36, 0
1, 31301, Note_on_c, 0, 63, 0
1, 31301, Note_on_c, 0, 75, 0
1, 31301, Note_on_c, 0, 60, 93
1, 31304, Note_on_c, 0, 72, 106
1, 31304, Note_on_c, 0, 36, 84
1, 31384, Control_c, 0, 64, 127
1, 31478, Note_on_c, 0, 72, 0
1, 31478, Note_on_c, 0, 60, 0
1, 31478, Note_on_c, 0, 75, 119
1, 31481, Note_on_c, 0, 79, 119
1, 31481, Note_on_c, 0, 67, 103
1, 31481, Note_on_c, 0, 72, 103
1, 31484, Note_on_c, 0, 36, 0
1, 31484, Note_on_c, 0, 51, 79
1, 31484, Note_on_c, 0, 55, 90
1, 31487, Note_on_c, 0, 60, 90
1, 31487, Note_on_c, 0, 48, 79
1, 31659, Note_on_c, 0, 75, 0
1, 31659, Note_on_c, 0, 72, 0
1, 31659, Note_on_c, 0, 79, 0
1, 31662, Note_on_c, 0, 67, 0
1, 31662, Note_on_c, 0, 77, 120
1, 31662, Note_on_c, 0, 80, 120
1, 31665, Note_on_c, 0, 48, 0
1, 31665, Note_on_c, 0, 68, 103
1, 31665, Note_on_c, 0, 72, 103
1, 31668, Note_on_c, 0, 51, 0
1, 31668, Note_on_c, 0, 55, 0
1, 31668, Note_on_c, 0, 60, 0
1, 31671, Note_on_c, 0, 56, 79
1, 31671, Note_on_c, 0, 65, 90
1, 31671, Note_on_c, 0, 60, 90
1, 31674, Note_on_c, 0, 53, 79
1, 31674, Control_c, 0, 64, 0
1, 31830, Control_c, 0, 64, 127
1, 32320, Note_on_c, 0, 53, 0
1, 32320, Note_on_c, 0, 65, 0
1, 32320, Note_on_c, 0, 56, 0
1, 32323, Note_on_c, 0, 60, 0
1, 32323, Note_on_c, 0, 46, 73
1, 32332, Control_c, 0, 64, 0
1, 32343, Note_on_c, 0, 53, 73
1, 32366, Note_on_c, 0, 58, 83
1, 32389, Note_on_c, 0, 72, 0
1, 32389, Note_on_c, 0, 80, 0
1, 32389, Note_on_c, 0, 77, 0
1, 32392, Note_on_c, 0, 68, 0
1, 32392, Note_on_c, 0, 70, 101
1, 32392, Note_on_c, 0, 74, 101
1, 32395, Note_on_c, 0, 77, 116
1, 32395, Note_on_c, 0, 82, 116
1, 32395, Note_on_c, 0, 62, 83
1, 32420, Control_c, 0, 64, 127
1, 32687, Control_c, 0, 64, 0
1, 32751, Note_on_c, 0, 82, 0
1, 32751, Note_on_c, 0, 70, 0
1, 32751, Note_on_c, 0, 74, 0
1, 32754, Note_on_c, 0, 77, 0
1, 32754, Note_on_c, 0, 67, 98
1, 32754, Note_on_c, 0, 70, 98
1, 32757, Note_on_c, 0, 62, 0
1, 32757, Note_on_c, 0, 79, 112
1, 32757, Note_on_c, 0, 75, 112
1, 32760, Note_on_c, 0, 58, 0
1, 32760, Note_on_c, 0, 53, 0
1, 32760, Note_on_c, 0, 46, 0
1, 32763, Note_on_c, 0, 63, 86
1, 32763, Note_on_c, 0, 55, 76
1, 32763, Note_on_c, 0, 58, 86
1, 32766, Note_on_c, 0, 51, 76
1, 32866, Control_c, 0, 64, 127
1, 32929, Note_on_c, 0, 67, 0
1, 32929, Note_on_c, 0, 75, 0
1, 32929, Note_on_c, 0, 70, 0
1, 32932, Note_on_c, 0, 79, 0
1, 32932, Note_on_c, 0, 75, 112
1, 32932, Note_on_c, 0, 72, 98
1, 32935, Note_on_c, 0, 51, 0
1, 32935, Note_on_c, 0, 67, 98
1, 32935, Note_on_c, 0, 79, 112
1, 32938, Note_on_c, 0, 63, 0
1, 32938, Note_on_c, 0, 58, 0
1, 32938, Note_on_c, 0, 55, 0
1, 32941, Note_on_c, 0, 63, 86
1, 32941, Note_on_c, 0, 60, 86
1, 33110, Note_on_c, 0, 75, 0
1, 33110, Note_on_c, 0, 79, 0
1, 33110, Note_on_c, 0, 72, 0
1, 33113, Note_on_c, 0, 67, 0
1, 33113, Note_on_c, 0, 77, 119
1, 33113, Note_on_c, 0, 72, 103
1, 33116, Note_on_c, 0, 60, 0
1, 33116, Note_on_c, 0, 68, 103
1, 33116, Note_on_c, 0, 80, 119
1, 33119, Note_on_c, 0, 63, 0
1, 33119, Note_on_c, 0, 56, 79
1, 33119, Note_on_c, 0, 53, 79
1, 33122, Note_on_c, 0, 65, 90
1, 33122, Note_on_c, 0, 60, 90
1, 33122, Control_c, 0, 64, 0
1, 33334, Control_c, 0, 64, 127
1, 33771, Note_on_c, 0, 60, 0
1, 33771, Note_on_c, 0, 53, 0
1, 33771, Note_on_c, 0, 56, 0
1, 33774, Note_on_c, 0, 65, 0
1, 33774, Note_on_c, 0, 46, 81
1, 33794, Note_on_c, 0, 53, 81
1, 33799, Control_c, 0, 64, 0
1, 33817, Note_on_c, 0, 58, 93
1, 33840, Note_on_c, 0, 80, 0
1, 33840, Note_on_c, 0, 72, 0
1, 33840, Note_on_c, 0, 77, 0
1, 33843, Note_on_c, 0, 68, 0
1, 33843, Note_on_c, 0, 77, 119
1, 33843, Note_on_c, 0, 82, 119
1, 33846, Note_on_c, 0, 74, 103
1, 33846, Note_on_c, 0, 70, 103
1, 33846, Note_on_c, 0, 62, 93
1, 33870, Control_c, 0, 64, 127
1, 34207, Note_on_c, 0, 70, 0
1, 34207, Note_on_c, 0, 77, 0
1, 34207, Note_on_c, 0, 82, 0
1, 34210, Note_on_c, 0, 74, 0
1, 34210, Note_on_c, 0, 67, 101
1, 34210, Note_on_c, 0, 70, 101
1, 34213, Note_on_c, 0, 62, 0
1, 34213, Note_on_c, 0, 75, 116
1, 34213, Note_on_c, 0, 79, 116
1, 34216, Note_on_c, 0, 58, 0
1, 34216, Note_on_c, 0, 46, 0
1, 34216, Note_on_c, 0, 53, 0
1, 34219, Note_on_c, 0, 58, 86
1, 34219, Note_on_c, 0, 55, 76
1, 34219, Note_on_c, 0, 51, 76
1, 34222, Note_on_c, 0, 63, 86
1, 34222, Control_c, 0, 64, 0
1, 34304, Control_c, 0, 64, 127
1, 34391, Note_on_c, 0, 67, 0
1, 34391, Note_on_c, 0, 79, 0
1, 34391, Note_on_c, 0, 70, 0
1, 34394, Note_on_c, 0, 63, 0
1, 34394, Note_on_c, 0, 58, 0
1, 34394, Note_on_c, 0, 75, 0
1, 34397, Note_on_c, 0, 51, 0
1, 34397, Note_on_c, 0, 55, 0
1, 34434, Control_c, 0, 64, 0
1, 34579, Note_on_c, 0, 87, 99
1, 34579, Note_on_c, 0, 79, 99
1, 34579, Note_on_c, 0, 67, 93
1, 34582, Note_on_c, 0, 60, 93
1, 34663, Note_on_c, 0, 79, 0
1, 34663, Note_on_c, 0, 87, 0
1, 34663, Note_on_c, 0, 75, 90
1, 34666, Note_on_c, 0, 67, 0
1, 34666, Note_on_c, 0, 60, 0
1, 34748, Note_on_c, 0, 75, 0
1, 34748, Note_on_c, 0, 72, 87
1, 34832, Note_on_c, 0, 72, 0
1, 34832, Note_on_c, 0, 75, 90
1, 34916, Note_on_c, 0, 75, 0
1, 34916, Note_on_c, 0, 86, 99
1, 34916, Note_on_c, 0, 79, 99
1, 34919, Note_on_c, 0, 62, 94
1, 34919, Note_on_c, 0, 59, 94
1, 35001, Note_on_c, 0, 79, 0
1, 35001, Note_on_c, 0, 86, 0
1, 35001, Note_on_c, 0, 74, 82
1, 35004, Note_on_c, 0, 62, 0
1, 35004, Note_on_c, 0, 59, 0
1, 35085, Note_on_c, 0, 74, 0
1, 35085, Note_on_c, 0, 71, 87
1, 35169, Note_on_c, 0, 71, 0
1, 35169, Note_on_c, 0, 74, 83
1, 35254, Note_on_c, 0, 74, 0
1, 35254, Note_on_c, 0, 84, 97
1, 35254, Note_on_c, 0, 78, 97
1, 35257, Note_on_c, 0, 62, 92
1, 35257, Note_on_c, 0, 56, 92
1, 35339, Note_on_c, 0, 78, 0
1, 35339, Note_on_c, 0, 84, 0
1, 35339, Note_on_c, 0, 72, 83
1, 35342, Note_on_c, 0, 62, 0
1, 35342, Note_on_c, 0, 56, 0
1, 35424, Note_on_c, 0, 72, 0
1, 35424, Note_on_c, 0, 68, 82
1, 35509, Note_on_c, 0, 68, 0
1, 35509, Note_on_c, 0, 72, 83
1, 35594, Note_on_c, 0, 72, 0
1, 35594, Note_on_c, 0, 74, 95
1, 35594, Note_on_c, 0, 79, 95
1, 35597, Note_on_c, 0, 83, 95
1, 35597, Note_on_c, 0, 55, 91
1, 35597, Note_on_c, 0, 62, 91
1, 35679, Note_on_c, 0, 83, 0
1, 35679, Note_on_c, 0, 74, 0
1, 35679, Note_on_c, 0, 79, 0
1, 35682, Note_on_c, 0, 55, 0
1, 35682, Note_on_c, 0, 62, 0
1, 35682, Note_on_c, 0, 71, 82
1, 35764, Note_on_c, 0, 71, 0
1, 35764, Note_on_c, 0, 67, 79
1, 35851, Note_on_c, 0, 67, 0
1, 35851, Note_on_c, 0, 71, 82
1, 35938, Note_on_c, 0, 71, 0
1, 35938, Note_on_c, 0, 80, 97
1, 35938, Note_on_c, 0, 74, 97
1, 35941, Note_on_c, 0, 71, 97
1, 35941, Note_on_c, 0, 53, 90
1, 36023, Note_on_c, 0, 71, 0
1, 36023, Note_on_c, 0, 80, 0
1, 36023, Note_on_c, 0, 74, 0
1, 36026, Note_on_c, 0, 53, 0
1, 36026, Note_on_c, 0, 68, 80
1, 36108, Note_on_c, 0, 68, 0
1, 36108, Note_on_c, 0, 65, 77
1, 36194, Note_on_c, 0, 65, 0
1, 36194, Note_on_c, 0, 68, 81
1, 36279, Note_on_c, 0, 68, 0
1, 36279, Note_on_c, 0, 72, 95
1, 36279, Note_on_c, 0, 79, 95
1, 36282, Note_on_c, 0, 51, 87
1, 36364, Note_on_c, 0, 79, 0
1, 36364, Note_on_c, 0, 72, 0
1, 36364, Note_on_c, 0, 67, 78
1, 36367, Note_on_c, 0, 51, 0
1, 36450, Note_on_c, 0, 67, 0
1, 36450, Note_on_c, 0, 63, 76
1, 36536, Note_on_c, 0, 63, 0
1, 36536, Note_on_c, 0, 67, 78
1, 36621, Note_on_c, 0, 67, 0
1, 36621, Note_on_c, 0, 67, 93
1, 36621, Note_on_c, 0, 71, 93
1, 36624, Note_on_c, 0, 77, 93
1, 36624, Note_on_c, 0, 50, 83
1, 36708, Note_on_c, 0, 77, 0
1, 36708, Note_on_c, 0, 67, 0
1, 36708, Note_on_c, 0, 71, 0
1, 36711, Note_on_c, 0, 50, 0
1, 36711, Note_on_c, 0, 65, 77
1, 36794, Note_on_c, 0, 65, 0
1, 36794, Note_on_c, 0, 62, 78
1, 36880, Note_on_c, 0, 62, 0
1, 36880, Note_on_c, 0, 65, 77
1, 36966, Note_on_c, 0, 65, 0
1, 36966, Note_on_c, 0, 63, 93
1, 36966, Note_on_c, 0, 75, 106
1, 36969, Note_on_c, 0, 67, 93
1, 36969, Note_on_c, 0, 72, 93
1, 36969, Note_on_c, 0, 48, 84
1, 37050, Control_c, 0, 64, 127
1, 37143, Note_on_c, 0, 72, 0
1, 37143, Note_on_c, 0, 75, 0
1, 37143, Note_on_c, 0, 63, 0
1, 37146, Note_on_c, 0, 67, 0
1, 37146, Note_on_c, 0, 67, 103
1, 37146, Note_on_c, 0, 72, 103
1, 37149, Note_on_c, 0, 48, 0
1, 37149, Note_on_c, 0, 75, 119
1, 37149, Note_on_c, 0, 79, 119
1, 37152, Note_on_c, 0, 63, 90
1, 37152, Note_on_c, 0, 60, 90
1, 37325, Note_on_c, 0, 79, 0
1, 37325, Note_on_c, 0, 72, 0
1, 37325, Note_on_c, 0, 67, 0
1, 37328, Note_on_c, 0, 75, 0
1, 37328, Note_on_c, 0, 68, 103
1, 37328, Note_on_c, 0, 72, 103
1, 37331, Note_on_c, 0, 60, 0
1, 37331, Note_on_c, 0, 80, 120
1, 37331, Note_on_c, 0, 77, 120
1, 37334, Note_on_c, 0, 63, 0
1, 37334, Note_on_c, 0, 56, 79
1, 37334, Note_on_c, 0, 65, 90
1, 37337, Note_on_c, 0, 60, 90
1, 37337, Note_on_c, 0, 53, 79
1, 37337, Control_c, 0, 64, 0
1, 37496, Control_c, 0, 64, 127
1, 37986, Note_on_c, 0, 53, 0
1, 37986, Note_on_c, 0, 65, 0
1, 37986, Note_on_c, 0, 56, 0
1, 37989, Note_on_c, 0, 60, 0
1, 37989, Note_on_c, 0, 46, 73
1, 38005, Control_c, 0, 64, 0
1, 38008, Note_on_c, 0, 53, 73
1, 38031, Note_on_c, 0, 58, 83
1, 38054, Note_on_c, 0, 77, 0
1, 38054, Note_on_c, 0, 72, 0
1, 38054, Note_on_c, 0, 68, 0
1, 38057, Note_on_c, 0, 80, 0
1, 38057, Note_on_c, 0, 77, 116
1, 38057, Note_on_c, 0, 74, 101
1, 38060, Note_on_c, 0, 70, 101
1, 38060, Note_on_c, 0, 82, 116
1, 38060, Note_on_c, 0, 62, 83
1, 38097, Control_c, 0, 64, 127
1, 38352, Control_c, 0, 64, 0
1, 38417, Note_on_c, 0, 82, 0
1, 38417, Note_on_c, 0, 77, 0
1, 38417, Note_on_c, 0, 74, 0
1, 38420, Note_on_c, 0, 70, 0
1, 38420, Note_on_c, 0, 75, 112
1, 38420, Note_on_c, 0, 70, 98
1, 38423, Note_on_c, 0, 62, 0
1, 38423, Note_on_c, 0, 67, 98
1, 38423, Note_on_c, 0, 79, 112
1, 38426, Note_on_c, 0, 58, 0
1, 38426, Note_on_c, 0, 46, 0
1, 38426, Note_on_c, 0, 53, 0
1, 38429, Note_on_c, 0, 63, 86
1, 38429, Note_on_c, 0, 55, 76
1, 38429, Note_on_c, 0, 58, 86
1, 38432, Note_on_c, 0, 51, 76
1, 38531, Control_c, 0, 64, 127
1, 38594, Note_on_c, 0, 75, 0
1, 38594, Note_on_c, 0, 79, 0
1, 38594, Note_on_c, 0, 70, 0
1, 38597, Note_on_c, 0, 67, 0
1, 38597, Note_on_c, 0, 75, 112
1, 38597, Note_on_c, 0, 79, 112
1, 38600, Note_on_c, 0, 51, 0
1, 38600, Note_on_c, 0, 67, 98
1, 38600, Note_on_c, 0, 72, 98
1, 38603, Note_on_c, 0, 63, 0
1, 38603, Note_on_c, 0, 58, 0
1, 38603, Note_on_c, 0, 55, 0
1, 38606, Note_on_c, 0, 60, 86
1, 38606, Note_on_c, 0, 63, 86
1, 38776, Note_on_c, 0, 75, 0
1, 38776, Note_on_c, 0, 72, 0
1, 38776, Note_on_c, 0, 79, 0
1, 38779, Note_on_c, 0, 67, 0
1, 38779, Note_on_c, 0, 68, 103
1, 38779, Note_on_c, 0, 80, 119
1, 38782, Note_on_c, 0, 63, 0
1, 38782, Note_on_c, 0, 77, 119
1, 38782, Note_on_c, 0, 72, 103
1, 38785, Note_on_c, 0, 60, 0
1, 38785, Note_on_c, 0, 56, 79
1, 38785, Note_on_c, 0, 60, 90
1, 38788, Note_on_c, 0, 65, 90
1, 38788, Note_on_c, 0, 53, 79
1, 38788, Control_c, 0, 64, 0
1, 38999, Control_c, 0, 64, 127
1, 39354, Control_c, 0, 64, 0
1, 39436, Note_on_c, 0, 53, 0
1, 39436, Note_on_c, 0, 60, 0
1, 39436, Note_on_c, 0, 56, 0
1, 39439, Note_on_c, 0, 65, 0
1, 39439, Note_on_c, 0, 46, 81
1, 39451, Control_c, 0, 64, 127
1, 39459, Note_on_c, 0, 53, 81
1, 39482, Note_on_c, 0, 58, 93
1, 39505, Note_on_c, 0, 72, 0
1, 39505, Note_on_c, 0, 80, 0
1, 39505, Note_on_c, 0, 68, 0
1, 39508, Note_on_c, 0, 77, 0
1, 39508, Note_on_c, 0, 70, 103
1, 39508, Note_on_c, 0, 82, 119
1, 39511, Note_on_c, 0, 74, 103
1, 39511, Note_on_c, 0, 77, 119
1, 39511, Note_on_c, 0, 62, 93
1, 39873, Note_on_c, 0, 77, 0
1, 39873, Note_on_c, 0, 70, 0
1, 39873, Note_on_c, 0, 82, 0
1, 39876, Note_on_c, 0, 74, 0
1, 39876, Note_on_c, 0, 67, 101
1, 39876, Note_on_c, 0, 70, 101
1, 39879, Note_on_c, 0, 62, 0
1, 39879, Note_on_c, 0, 75, 116
1, 39879, Note_on_c, 0, 79, 116
1, 39882, Note_on_c, 0, 58, 0
1, 39882, Note_on_c, 0, 46, 0
1, 39882, Note_on_c, 0, 53, 0
1, 39885, Note_on_c, 0, 63, 86
1, 39885, Note_on_c, 0, 58, 86
1, 39885, Note_on_c, 0, 55, 76
1, 39888, Note_on_c, 0, 51, 76
1, 39888, Control_c, 0, 64, 0
1, 39970, Control_c, 0, 64, 127
1, 40057, Note_on_c, 0, 67, 0
1, 40057, Note_on_c, 0, 79, 0
1, 40057, Note_on_c, 0, 70, 0
1, 40060, Note_on_c, 0, 51, 0
1, 40060, Note_on_c, 0, 63, 0
1, 40060, Note_on_c, 0, 75, 0
1, 40063, Note_on_c, 0, 55, 0
1, 40063, Note_on_c, 0, 58, 0
1, 40099, Control_c, 0, 64, 0
1, 40243, Note_on_c, 0, 79, 99
1, 40243, Note_on_c, 0, 75, 99
1, 40243, Note_on_c, 0, 51, 93
1, 40246, Note_on_c, 0, 58, 93
1, 40328, Note_on_c, 0, 75, 0
1, 40328, Note_on_c, 0, 79, 0
1, 40328, Note_on_c, 0, 67, 90
1, 40331, Note_on_c, 0, 51, 0
1, 40331, Note_on_c, 0, 58, 0
1, 40413, Note_on_c, 0, 67, 0
1, 40413, Note_on_c, 0, 63, 87
1, 40497, Note_on_c, 0, 63, 0
1, 40497, Note_on_c, 0, 67, 90
1, 40582, Note_on_c, 0, 67, 0
1, 40582, Note_on_c, 0, 80, 99
1, 40582, Note_on_c, 0, 75, 99
1, 40585, Note_on_c, 0, 58, 94
1, 40585, Note_on_c, 0, 53, 94
1, 40666, Note_on_c, 0, 75, 0
1, 40666, Note_on_c, 0, 80, 0
1, 40666, Note_on_c, 0, 68, 82
1, 40669, Note_on_c, 0, 58, 0
1, 40669, Note_on_c, 0, 53, 0
1, 40750, Note_on_c, 0, 68, 0
1, 40750, Note_on_c, 0, 65, 87
1, 40834, Note_on_c, 0, 65, 0
1, 40834, Note_on_c, 0, 68, 83
1, 40918, Note_on_c, 0, 68, 0
1, 40918, Note_on_c, 0, 82, 97
1, 40918, Note_on_c, 0, 75, 97
1, 40921, Note_on_c, 0, 58, 92
1, 40921, Note_on_c, 0, 55, 92
1, 41003, Note_on_c, 0, 75, 0
1, 41003, Note_on_c, 0, 82, 0
1, 41003, Note_on_c, 0, 70, 83
1, 41006, Note_on_c, 0, 58, 0
1, 41006, Note_on_c, 0, 55, 0
1, 41086, Note_on_c, 0, 70, 0
1, 41086, Note_on_c, 0, 67, 82
1, 41170, Note_on_c, 0, 67, 0
1, 41170, Note_on_c, 0, 70, 83
1, 41253, Note_on_c, 0, 70, 0
1, 41253, Note_on_c, 0, 84, 95
1, 41253, Note_on_c, 0, 75, 95
1, 41256, Note_on_c, 0, 56, 91
1, 41256, Note_on_c, 0, 63, 91
1, 41337, Note_on_c, 0, 75, 0
1, 41337, Note_on_c, 0, 84, 0
1, 41337, Note_on_c, 0, 72, 82
1, 41340, Note_on_c, 0, 56, 0
1, 41340, Note_on_c, 0, 63, 0
1, 41421, Note_on_c, 0, 72, 0
1, 41421, Note_on_c, 0, 68, 79
1, 41506, Note_on_c, 0, 68, 0
1, 41506, Note_on_c, 0, 72, 82
1, 41591, Note_on_c, 0, 72, 0
1, 41591, Note_on_c, 0, 79, 97
1, 41591, Note_on_c, 0, 83, 97
1, 41594, Note_on_c, 0, 55, 90
1, 41594, Note_on_c, 0, 62, 90
1, 41675, Note_on_c, 0, 83, 0
1, 41675, Note_on_c, 0, 79, 0
1, 41675, Note_on_c, 0, 71, 80
1, 41678, Note_on_c, 0, 55, 0
1, 41678, Note_on_c, 0, 62, 0
1, 41760, Note_on_c, 0, 71, 0
1, 41760, Note_on_c, 0, 67, 77
1, 41844, Note_on_c, 0, 67, 0
1, 41844, Note_on_c, 0, 71, 81
1, 41928, Note_on_c, 0, 71, 0
1, 41928, Note_on_c, 0, 84, 95
1, 41928, Note_on_c, 0, 79, 95
1, 41931, Note_on_c, 0, 62, 87
1, 41931, Note_on_c, 0, 57, 87
1, 42013, Note_on_c, 0, 79, 0
1, 42013, Note_on_c, 0, 84, 0
1, 42013, Note_on_c, 0, 72, 78
1, 42016, Note_on_c, 0, 62, 0
1, 42016, Note_on_c, 0, 57, 0
1, 42097, Note_on_c, 0, 72, 0
1, 42097, Note_on_c, 0, 69, 76
1, 42181, Note_on_c, 0, 69, 0
1, 42181, Note_on_c, 0, 72, 78
1, 42266, Note_on_c, 0, 72, 0
1, 42266, Note_on_c, 0, 86, 93
1, 42266, Note_on_c, 0, 79, 93
1, 42269, Note_on_c, 0, 62, 83
1, 42269, Note_on_c, 0, 59, 83
1, 42350, Note_on_c, 0, 79, 0
1, 42350, Note_on_c, 0, 86, 0
1, 42350, Note_on_c, 0, 74, 77
1, 42353, Note_on_c, 0, 62, 0
1, 42353, Note_on_c, 0, 59, 0
1, 42434, Note_on_c, 0, 74, 0
1, 42434, Note_on_c, 0, 71, 78
1, 42521, Note_on_c, 0, 71, 0
1, 42521, Note_on_c, 0, 74, 77
1, 42608, Note_on_c, 0, 74, 0
1, 42608, Note_on_c, 0, 79, 93
1, 42608, Note_on_c, 0, 75, 93
1, 42611, Note_on_c, 0, 87, 106
1, 42611, Note_on_c, 0, 60, 90
1, 42611, Control_c, 0, 64, 127
1, 42614, Note_on_c, 0, 72, 90
1, 42614, Note_on_c, 0, 67, 90
1, 42785, Note_on_c, 0, 87, 0
1, 42785, Note_on_c, 0, 79, 0
1, 42785, Note_on_c, 0, 75, 0
1, 42788, Note_on_c, 0, 75, 103
1, 42788, Note_on_c, 0, 79, 103
1, 42788, Note_on_c, 0, 87, 119
1, 42791, Note_on_c, 0, 67, 0
1, 42791, Note_on_c, 0, 72, 0
1, 42791, Note_on_c, 0, 84, 119
1, 42794, Note_on_c, 0, 60, 0
1, 42794, Note_on_c, 0, 60, 83
1, 42794, Note_on_c, 0, 70, 83
1, 42797, Note_on_c, 0, 58, 83
1, 42966, Note_on_c, 0, 79, 0
1, 42966, Note_on_c, 0, 84, 0
1, 42966, Note_on_c, 0, 75, 0
1, 42969, Note_on_c, 0, 87, 0
1, 42969, Note_on_c, 0, 89, 120
1, 42969, Note_on_c, 0, 84, 120
1, 42972, Note_on_c, 0, 58, 0
1, 42972, Note_on_c, 0, 70, 0
1, 42972, Note_on_c, 0, 77, 103
1, 42975, Note_on_c, 0, 60, 0
1, 42975, Note_on_c, 0, 57, 90
1, 42975, Note_on_c, 0, 69, 90
1, 42978, Note_on_c, 0, 60, 90
1, 42978, Control_c, 0, 64, 0
1, 43109, Control_c, 0, 64, 127
1, 43511, Note_on_c, 0, 60, 0
1, 43511, Note_on_c, 0, 57, 0
1, 43511, Note_on_c, 0, 69, 0
1, 43514, Note_on_c, 0, 53, 79
1, 43514, Note_on_c, 0, 65, 79
1, 43693, Note_on_c, 0, 77, 0
1, 43693, Note_on_c, 0, 89, 0
1, 43693, Note_on_c, 0, 84, 0
1, 43696, Note_on_c, 0, 85, 116
1, 43696, Note_on_c, 0, 77, 116
1, 43696, Note_on_c, 0, 73, 101
1, 43699, Note_on_c, 0, 53, 0
1, 43699, Note_on_c, 0, 65, 0
1, 43699, Note_on_c, 0, 67, 82
1, 43702, Note_on_c, 0, 55, 82
1, 43702, Control_c, 0, 64, 0
1, 43808, Control_c, 0, 64, 127
1, 43874, Note_on_c, 0, 55, 0
1, 43874, Note_on_c, 0, 67, 0
1, 43874, Note_on_c, 0, 69, 86
1, 43877, Note_on_c, 0, 57, 86
1, 44055, Note_on_c, 0, 73, 0
1, 44055, Note_on_c, 0, 77, 0
1, 44055, Note_on_c, 0, 85, 0
1, 44058, Note_on_c, 0, 74, 98
1, 44058, Note_on_c, 0, 86, 112
1, 44058, Note_on_c, 0, 77, 112
1, 44061, Note_on_c, 0, 69, 0
1, 44061, Note_on_c, 0, 57, 0
1, 44061, Control_c, 0, 64, 0
1, 44064, Note_on_c, 0, 70, 89
1, 44064, Note_on_c, 0, 58, 89
1, 44140, Control_c, 0, 64, 127
1, 44233, Note_on_c, 0, 86, 0
1, 44233, Note_on_c, 0, 77, 0
1, 44233, Note_on_c, 0, 74, 0
1, 44236, Note_on_c, 0, 84, 112
1, 44236, Note_on_c, 0, 87, 112
1, 44236, Note_on_c, 0, 75, 98
1, 44239, Note_on_c, 0, 70, 0
1, 44239, Note_on_c, 0, 58, 0
1, 44239, Note_on_c, 0, 79, 98
1, 44242, Note_on_c, 0, 60, 83
1, 44242, Note_on_c, 0, 70, 83
1, 44242, Note_on_c, 0, 58, 83
1, 44415, Note_on_c, 0, 79, 0
1, 44415, Note_on_c, 0, 87, 0
1, 44415, Note_on_c, 0, 84, 0
1, 44418, Note_on_c, 0, 75, 0
1, 44418, Note_on_c, 0, 77, 103
1, 44418, Note_on_c, 0, 84, 119
1, 44421, Note_on_c, 0, 58, 0
1, 44421, Note_on_c, 0, 70, 0
1, 44421, Note_on_c, 0, 89, 119
1, 44424, Note_on_c, 0, 60, 0
1, 44424, Note_on_c, 0, 60, 89
1, 44424, Note_on_c, 0, 69, 89
1, 44427, Note_on_c, 0, 57, 89
1, 44427, Control_c, 0, 64, 0
1, 44567, Control_c, 0, 64, 127
1, 44959, Note_on_c, 0, 57, 0
1, 44959, Note_on_c, 0, 60, 0
1, 44959, Note_on_c, 0, 69, 0
1, 44962, Note_on_c, 0, 65, 81
1, 44962, Note_on_c, 0, 53, 81
1, 45141, Note_on_c, 0, 89, 0
1, 45141, Note_on_c, 0, 84, 0
1, 45141, Note_on_c, 0, 77, 0
1, 45144, Note_on_c, 0, 73, 103
1, 45144, Note_on_c, 0, 77, 119
1, 45144, Note_on_c, 0, 85, 119
1, 45147, Note_on_c, 0, 65, 0
1, 45147, Note_on_c, 0, 53, 0
1, 45147, Note_on_c, 0, 67, 83
1, 45150, Note_on_c, 0, 55, 83
1, 45150, Control_c, 0, 64, 0
1, 45218, Control_c, 0, 64, 127
1, 45325, Note_on_c, 0, 55, 0
1, 45325, Note_on_c, 0, 67, 0
1, 45325, Note_on_c, 0, 57, 84
1, 45328, Note_on_c, 0, 69, 84
1, 45509, Note_on_c, 0, 85, 0
1, 45509, Note_on_c, 0, 77, 0
1, 45509, Note_on_c, 0, 73, 0
1, 45512, Note_on_c, 0, 86, 95
1, 45512, Note_on_c, 0, 82, 95
1, 45512, Note_on_c, 0, 77, 95
1, 45515, Note_on_c, 0, 57, 0
1, 45515, Note_on_c, 0, 69, 0
1, 45515, Control_c, 0, 64, 0
1, 45518, Note_on_c, 0, 58, 91
1, 45518, Note_on_c, 0, 65, 91
1, 45593, Note_on_c, 0, 82, 0
1, 45593, Note_on_c, 0, 77, 0
1, 45593, Note_on_c, 0, 86, 0
1, 45596, Note_on_c, 0, 58, 0
1, 45596, Note_on_c, 0, 65, 0
1, 45596, Note_on_c, 0, 74, 82
1, 45677, Note_on_c, 0, 74, 0
1, 45677, Note_on_c, 0, 70, 79
1, 45762, Note_on_c, 0, 70, 0
1, 45762, Note_on_c, 0, 74, 82
1, 45847, Note_on_c, 0, 74, 0
1, 45847, Note_on_c, 0, 78, 97
1, 45847, Note_on_c, 0, 81, 97
1, 45850, Note_on_c, 0, 63, 90
1, 45850, Note_on_c, 0, 58, 90
1, 45931, Note_on_c, 0, 81, 0
1, 45931, Note_on_c, 0, 78, 0
1, 45931, Note_on_c, 0, 69, 80
1, 45934, Note_on_c, 0, 63, 0
1, 45934, Note_on_c, 0, 58, 0
1, 46016, Note_on_c, 0, 69, 0
1, 46016, Note_on_c, 0, 66, 77
1, 46101, Note_on_c, 0, 66, 0
1, 46101, Note_on_c, 0, 69, 81
1, 46185, Note_on_c, 0, 69, 0
1, 46185, Note_on_c, 0, 82, 95
1, 46185, Note_on_c, 0, 77, 95
1, 46188, Note_on_c, 0, 62, 87
1, 46188, Note_on_c, 0, 58, 87
1, 46270, Note_on_c, 0, 77, 0
1, 46270, Note_on_c, 0, 82, 0
1, 46270, Note_on_c, 0, 70, 78
1, 46273, Note_on_c, 0, 62, 0
1, 46273, Note_on_c, 0, 58, 0
1, 46355, Note_on_c, 0, 70, 0
1, 46355, Note_on_c, 0, 65, 76
1, 46439, Note_on_c, 0, 65, 0
1, 46439, Note_on_c, 0, 70, 78
1, 46524, Note_on_c, 0, 70, 0
1, 46524, Note_on_c, 0, 78, 93
1, 46524, Note_on_c, 0, 69, 93
1, 46527, Note_on_c, 0, 46, 83
1, 46609, Note_on_c, 0, 69, 0
1, 46609, Note_on_c, 0, 78, 0
1, 46609, Note_on_c, 0, 66, 77
1, 46612, Note_on_c, 0, 46, 0
1, 46693, Note_on_c, 0, 66, 0
1, 46693, Note_on_c, 0, 63, 78
1, 46781, Note_on_c, 0, 63, 0
1, 46781, Note_on_c, 0, 66, 77
1, 46868, Note_on_c, 0, 66, 0
1, 46868, Note_on_c, 0, 77, 92
1, 46868, Note_on_c, 0, 70, 92
1, 46871, Note_on_c, 0, 46, 84
1, 46952, Note_on_c, 0, 70, 0
1, 46952, Note_on_c, 0, 77, 0
1, 46952, Note_on_c, 0, 65, 76
1, 46955, Note_on_c, 0, 46, 0
1, 47036, Note_on_c, 0, 65, 0
1, 47036, Note_on_c, 0, 62, 75
1, 47121, Note_on_c, 0, 62, 0
1, 47121, Note_on_c, 0, 65, 76
1, 47206, Note_on_c, 0, 65, 0
1, 47206, Note_on_c, 0, 66, 89
1, 47206, Note_on_c, 0, 69, 89
1, 47209, Note_on_c, 0, 46, 83
1, 47290, Note_on_c, 0, 69, 0
1, 47290, Note_on_c, 0, 66, 0
1, 47290, Note_on_c, 0, 63, 77
1, 47293, Note_on_c, 0, 46, 0
1, 47375, Note_on_c, 0, 63, 0
1, 47375, Note_on_c, 0, 60, 75
1, 47460, Note_on_c, 0, 60, 0
1, 47460, Note_on_c, 0, 63, 73
1, 47544, Note_on_c, 0, 63, 0
1, 47544, Note_on_c, 0, 70, 88
1, 47544, Note_on_c, 0, 65, 88
1, 47547, Note_on_c, 0, 46, 83
1, 47629, Note_on_c, 0, 65, 0
1, 47629, Note_on_c, 0, 70, 0
1, 47629, Note_on_c, 0, 62, 76
1, 47632, Note_on_c, 0, 46, 0
1, 47714, Note_on_c, 0, 62, 0
1, 47714, Note_on_c, 0, 58, 75
1, 47798, Note_on_c, 0, 58, 0
1, 47798, Note_on_c, 0, 62, 77
1, 47883, Note_on_c, 0, 62, 0
1, 47883, Note_on_c, 0, 63, 84
1, 47883, Note_on_c, 0, 57, 84
1, 47886, Note_on_c, 0, 34, 82
1, 47968, Note_on_c, 0, 57, 0
1, 47968, Note_on_c, 0, 63, 0
1, 47968, Note_on_c, 0, 54, 76
1, 47971, Note_on_c, 0, 34, 0
1, 48052, Note_on_c, 0, 54, 0
1, 48052, Note_on_c, 0, 51, 76
1, 48140, Note_on_c, 0, 51, 0
1, 48140, Note_on_c, 0, 54, 76
1, 48227, Note_on_c, 0, 54, 0
1, 48227, Note_on_c, 0, 65, 87
1, 48227, Note_on_c, 0, 58, 87
1, 48230, Note_on_c, 0, 34, 79
1, 48311, Note_on_c, 0, 58, 0
1, 48311, Note_on_c, 0, 65, 0
1, 48311, Note_on_c, 0, 53, 71
1, 48314, Note_on_c, 0, 34, 0
1, 48395, Note_on_c, 0, 53, 0
1, 48395, Note_on_c, 0, 50, 70
1, 48480, Note_on_c, 0, 50, 0
1, 48480, Note_on_c, 0, 53, 71
1, 48565, Note_on_c, 0, 53, 0
1, 48565, Note_on_c, 0, 54, 83
1, 48565, Note_on_c, 0, 57, 83
1, 48568, Note_on_c, 0, 34, 78
1, 48649, Note_on_c, 0, 57, 0
1, 48649, Note_on_c, 0, 54, 0
1, 48649, Note_on_c, 0, 51, 72
1, 48652, Note_on_c, 0, 34, 0
1, 48734, Note_on_c, 0, 51, 0
1, 48734, Note_on_c, 0, 48, 70
1, 48819, Note_on_c, 0, 48, 0
1, 48819, Note_on_c, 0, 51, 69
1, 48903, Note_on_c, 0, 51, 0
1, 48903, Note_on_c, 0, 58, 82
1, 48903, Note_on_c, 0, 53, 82
1, 48906, Note_on_c, 0, 34, 78
1, 48988, Note_on_c, 0, 53, 0
1, 48988, Note_on_c, 0, 58, 0
1, 48988, Note_on_c, 0, 50, 71
1, 48991, Note_on_c, 0, 34, 0
1, 49073, Note_on_c, 0, 50, 0
1, 49073, Note_on_c, 0, 46, 70
1, 49157, Note_on_c, 0, 46, 0
1, 49157, Note_on_c, 0, 50, 72
1, 49242, Note_on_c, 0, 50, 0
1, 49242, Note_on_c, 0, 57, 79
1, 49242, Note_on_c, 0, 51, 79
1, 49245, Note_on_c, 0, 34, 78
1, 49327, Note_on_c, 0, 51, 0
1, 49327, Note_on_c, 0, 57, 0
1, 49327, Note_on_c, 0, 48, 71
1, 49330, Note_on_c, 0, 34, 0
1, 49411, Note_on_c, 0, 48, 0
1, 49411, Note_on_c, 0, 42, 71
1, 49499, Note_on_c, 0, 42, 0
1, 49499, Note_on_c, 0, 48, 71
1, 49586, Note_on_c, 0, 48, 0
1, 49586, Note_on_c, 0, 50, 79
1, 49586, Note_on_c, 0, 58, 79
1, 49589, Note_on_c, 0, 34, 72
1, 49670, Note_on_c, 0, 58, 0
1, 49670, Note_on_c, 0, 50, 0
1, 49670, Note_on_c, 0, 46, 66
1, 49673, Note_on_c, 0, 34, 0
1, 49754, Note_on_c, 0, 46, 0
1, 49754, Note_on_c, 0, 41, 65
1, 49839, Note_on_c, 0, 41, 0
1, 49839, Note_on_c, 0, 46, 66
1, 49924, Note_on_c, 0, 46, 0
1, 49924, Note_on_c, 0, 51, 77
1, 49924, Note_on_c, 0, 57, 77
1, 49927, Note_on_c, 0, 34, 71
1, 50008, Note_on_c, 0, 57, 0
1, 50008, Note_on_c, 0, 51, 0
1, 50008, Note_on_c, 0, 48, 67
1, 50011, Note_on_c, 0, 34, 0
1, 50093, Note_on_c, 0, 48, 0
1, 50093, Note_on_c, 0, 42, 65
1, 50178, Note_on_c, 0, 42, 0
1, 50178, Note_on_c, 0, 48, 64
1, 50262, Note_on_c, 0, 48, 0
1, 50262, Note_on_c, 0, 50, 76
1, 50262, Note_on_c, 0, 58, 76
1, 50265, Note_on_c, 0, 34, 71
1, 50347, Note_on_c, 0, 58, 0
1, 50347, Note_on_c, 0, 50, 0
1, 50347, Note_on_c, 0, 46, 66
1, 50350, Note_on_c, 0, 34, 0
1, 50432, Note_on_c, 0, 46, 0
1, 50432, Note_on_c, 0, 41, 65
1, 50516, Note_on_c, 0, 41, 0
1, 50516, Note_on_c, 0, 46, 67
1, 50601, Note_on_c, 0, 46, 0
1, 50601, Note_on_c, 0, 57, 72
1, 50601, Note_on_c, 0, 51, 72
1, 50604, Note_on_c, 0, 34, 71
1, 50686, Note_on_c, 0, 51, 0
1, 50686, Note_on_c, 0, 57, 0
1, 50686, Note_on_c, 0, 48, 66
1, 50689, Note_on_c, 0, 34, 0
1, 50770, Note_on_c, 0, 48, 0
1, 50770, Note_on_c, 0, 42, 66
1, 50858, Note_on_c, 0, 42, 0
1, 50858, Note_on_c, 0, 48, 66
1, 50945, Note_on_c, 0, 48, 0
1, 50945, Note_on_c, 0, 50, 79
1, 50945, Note_on_c, 0, 58, 79
1, 50948, Note_on_c, 0, 34, 65
1, 50981, Control_c, 0, 64, 127
1, 51065, Note_on_c, 0, 34, 0
1, 51065, Note_on_c, 0, 41, 63
1, 51124, Note_on_c, 0, 58, 0
1, 51124, Note_on_c, 0, 50, 0
1, 51184, Note_on_c, 0, 41, 0
1, 51184, Note_on_c, 0, 46, 63
1, 51304, Note_on_c, 0, 46, 0
1, 51304, Note_on_c, 0, 50, 69
1, 51424, Note_on_c, 0, 50, 0
1, 51424, Note_on_c, 0, 53, 71
1, 51544, Note_on_c, 0, 53, 0
1, 51544, Note_on_c, 0, 58, 69
1, 51664, Note_on_c, 0, 58, 0
1, 51664, Note_on_c, 0, 62, 72
1, 51783, Note_on_c, 0, 62, 0
1, 51783, Note_on_c, 0, 58, 74
1, 51903, Note_on_c, 0, 58, 0
1, 51903, Note_on_c, 0, 62, 76
1, 52024, Note_on_c, 0, 62, 0
1, 52024, Note_on_c, 0, 65, 78
1, 52145, Note_on_c, 0, 65, 0
1, 52145, Note_on_c, 0, 70, 80
1, 52267, Note_on_c, 0, 70, 0
1, 52267, Note_on_c, 0, 74, 81
1, 52390, Note_on_c, 0, 74, 0
1, 52390, Note_on_c, 0, 63, 84
1, 52390, Note_on_c, 0, 75, 99
1, 52393, Note_on_c, 0, 67, 84
1, 52393, Note_on_c, 0, 51, 65
1, 52393, Note_on_c, 0, 58, 76
1, 52396, Control_c, 0, 64, 0
1, 52503, Control_c, 0, 64, 127
1, 52517, Note_on_c, 0, 58, 0
1, 52517, Note_on_c, 0, 57, 65
1, 52642, Note_on_c, 0, 57, 0
1, 52642, Note_on_c, 0, 58, 65
1, 52768, Note_on_c, 0, 58, 0
1, 52768, Note_on_c, 0, 60, 71
1, 52894, Note_on_c, 0, 60, 0
1, 52894, Note_on_c, 0, 57, 66
1, 52957, Note_on_c, 0, 67, 0
1, 52957, Note_on_c, 0, 75, 0
1, 52957, Note_on_c, 0, 67, 88
1, 53019, Note_on_c, 0, 57, 0
1, 53019, Note_on_c, 0, 60, 66
1, 53142, Note_on_c, 0, 67, 0
1, 53142, Note_on_c, 0, 63, 0
1, 53142, Note_on_c, 0, 63, 76
1, 53145, Note_on_c, 0, 60, 0
1, 53145, Note_on_c, 0, 67, 76
1, 53145, Note_on_c, 0, 70, 91
1, 53148, Note_on_c, 0, 58, 75
1, 53152, Control_c, 0, 64, 0
1, 53300, Control_c, 0, 64, 127
1, 53520, Note_on_c, 0, 70, 0
1, 53520, Note_on_c, 0, 67, 0
1, 53520, Note_on_c, 0, 63, 0
1, 53523, Note_on_c, 0, 72, 90
1, 53523, Note_on_c, 0, 67, 77
1, 53523, Note_on_c, 0, 63, 77
1, 53526, Note_on_c, 0, 51, 0
1, 53526, Note_on_c, 0, 46, 59
1, 53705, Note_on_c, 0, 67, 0
1, 53705, Note_on_c, 0, 72, 0
1, 53705, Note_on_c, 0, 67, 85
1, 53898, Note_on_c, 0, 67, 0
1, 53898, Note_on_c, 0, 63, 0
1, 53898, Note_on_c, 0, 70, 91
1, 53901, Note_on_c, 0, 46, 0
1, 53901, Note_on_c, 0, 67, 80
1, 53901, Note_on_c, 0, 63, 80
1, 53904, Note_on_c, 0, 58, 0
1, 53904, Note_on_c, 0, 58, 71
1, 53904, Note_on_c, 0, 51, 66
1, 53907, Control_c, 0, 64, 0
1, 53998, Control_c, 0, 64, 127
1, 54024, Note_on_c, 0, 58, 0
1, 54024, Note_on_c, 0, 57, 65
1, 54151, Note_on_c, 0, 57, 0
1, 54151, Note_on_c, 0, 58, 65
1, 54277, Note_on_c, 0, 58, 0
1, 54277, Note_on_c, 0, 60, 69
1, 54404, Note_on_c, 0, 60, 0
1, 54404, Note_on_c, 0, 57, 66
1, 54530, Note_on_c, 0, 57, 0
1, 54530, Note_on_c, 0, 60, 66
1, 54657, Note_on_c, 0, 70, 0
1, 54657, Note_on_c, 0, 63, 0
1, 54657, Note_on_c, 0, 67, 0
1, 54660, Note_on_c, 0, 63, 73
1, 54660, Note_on_c, 0, 67, 77
1, 54660, Note_on_c, 0, 70, 90
1, 54663, Note_on_c, 0, 60, 0
1, 54663, Note_on_c, 0, 58, 76
1, 54669, Control_c, 0, 64, 0
1, 54763, Control_c, 0, 64, 127
1, 54838, Note_on_c, 0, 72, 81
1, 54853, Note_on_c, 0, 70, 0
1, 55022, Note_on_c, 0, 63, 0
1, 55022, Note_on_c, 0, 67, 0
1, 55022, Note_on_c, 0, 72, 0
1, 55025, Note_on_c, 0, 51, 0
1, 55025, Note_on_c, 0, 63, 79
1, 55025, Note_on_c, 0, 67, 90
1, 55028, Note_on_c, 0, 46, 64
1, 55203, Note_on_c, 0, 72, 79
1, 55219, Note_on_c, 0, 67, 0
1, 55390, Note_on_c, 0, 72, 0
1, 55390, Note_on_c, 0, 63, 0
1, 55390, Note_on_c, 0, 67, 80
1, 55393, Note_on_c, 0, 46, 0
1, 55393, Note_on_c, 0, 63, 80
1, 55393, Note_on_c, 0, 70, 91
1, 55396, Note_on_c, 0, 58, 0
1, 55396, Note_on_c, 0, 51, 61
1, 55396, Note_on_c, 0, 58, 71
1, 55396, Control_c, 0, 64, 0
1, 55516, Note_on_c, 0, 58, 0
1, 55516, Note_on_c, 0, 57, 65
1, 55558, Control_c, 0, 64, 127
1, 55642, Note_on_c, 0, 57, 0
1, 55642, Note_on_c, 0, 58, 65
1, 55768, Note_on_c, 0, 58, 0
1, 55768, Note_on_c, 0, 60, 71
1, 55894, Note_on_c, 0, 60, 0
1, 55894, Note_on_c, 0, 57, 67
1, 56020, Note_on_c, 0, 57, 0
1, 56020, Note_on_c, 0, 60, 67
1, 56146, Note_on_c, 0, 60, 0
1, 56146, Note_on_c, 0, 58, 77
1, 56156, Control_c, 0, 64, 0
1, 56234, Control_c, 0, 64, 127
1, 56269, Note_on_c, 0, 67, 0
1, 56269, Note_on_c, 0, 70, 0
1, 56269, Note_on_c, 0, 63, 0
1, 56272, Note_on_c, 0, 62, 77
1, 56393, Note_on_c, 0, 62, 0
1, 56393, Note_on_c, 0, 63, 77
1, 56515, Note_on_c, 0, 63, 0
1, 56515, Note_on_c, 0, 51, 0
1, 56515, Note_on_c, 0, 67, 78
1, 56518, Note_on_c, 0, 46, 65
1, 56637, Note_on_c, 0, 67, 0
1, 56637, Note_on_c, 0, 70, 82
1, 56761, Note_on_c, 0, 70, 0
1, 56761, Note_on_c, 0, 75, 86
1, 56887, Note_on_c, 0, 75, 0
1, 56887, Note_on_c, 0, 77, 95
1, 56887, Note_on_c, 0, 65, 83
1, 56890, Note_on_c, 0, 46, 0
1, 56890, Note_on_c, 0, 58, 0
1, 56890, Note_on_c, 0, 70, 83
1, 56893, Note_on_c, 0, 62, 70
1, 56893, Note_on_c, 0, 58, 66
1, 56893, Note_on_c, 0, 51, 66
1, 56893, Control_c, 0, 64, 0
1, 56950, Control_c, 0, 64, 127
1, 57013, Note_on_c, 0, 62, 0
1, 57013, Note_on_c, 0, 61, 65
1, 57076, Note_on_c, 0, 58, 0
1, 57076, Note_on_c, 0, 51, 0
1, 57139, Note_on_c, 0, 61, 0
1, 57139, Note_on_c, 0, 62, 65
1, 57265, Note_on_c, 0, 62, 0
1, 57265, Note_on_c, 0, 63, 69
1, 57390, Note_on_c, 0, 63, 0
1, 57390, Note_on_c, 0, 61, 66
1, 57453, Note_on_c, 0, 79, 89
1, 57453, Note_on_c, 0, 67, 77
1, 57469, Note_on_c, 0, 65, 0
1, 57469, Note_on_c, 0, 77, 0
1, 57515, Note_on_c, 0, 61, 0
1, 57515, Note_on_c, 0, 63, 66
1, 57639, Note_on_c, 0, 63, 0
1, 57639, Note_on_c, 0, 65, 83
1, 57639, Note_on_c, 0, 77, 95
1, 57642, Note_on_c, 0, 62, 77
1, 57646, Control_c, 0, 64, 0
1, 57655, Note_on_c, 0, 79, 0
1, 57655, Note_on_c, 0, 67, 0
1, 57702, Control_c, 0, 64, 127
1, 57828, Note_on_c, 0, 62, 0
1, 58017, Note_on_c, 0, 70, 0
1, 58017, Note_on_c, 0, 65, 0
1, 58017, Note_on_c, 0, 77, 0
1, 58020, Note_on_c, 0, 72, 92
1, 58020, Note_on_c, 0, 60, 81
1, 58020, Note_on_c, 0, 68, 81
1, 58023, Note_on_c, 0, 46, 61
1, 58023, Note_on_c, 0, 58, 70
1, 58201, Note_on_c, 0, 72, 0
1, 58201, Note_on_c, 0, 62, 79
1, 58201, Note_on_c, 0, 74, 90
1, 58217, Note_on_c, 0, 60, 0
1, 58392, Note_on_c, 0, 62, 0
1, 58392, Note_on_c, 0, 74, 0
1, 58392, Note_on_c, 0, 63, 83
1, 58395, Note_on_c, 0, 58, 0
1, 58395, Note_on_c, 0, 67, 83
1, 58395, Note_on_c, 0, 75, 95
1, 58398, Note_on_c, 0, 46, 0
1, 58398, Control_c, 0, 64, 0
1, 58398, Note_on_c, 0, 51, 65
1, 58401, Note_on_c, 0, 58, 71
1, 58408, Note_on_c, 0, 68, 0
1, 58473, Control_c, 0, 64, 127
1, 58518, Note_on_c, 0, 58, 0
1, 58518, Note_on_c, 0, 57, 65
1, 58644, Note_on_c, 0, 57, 0
1, 58644, Note_on_c, 0, 58, 65
1, 58770, Note_on_c, 0, 58, 0
1, 58770, Note_on_c, 0, 60, 69
1, 58895, Note_on_c, 0, 60, 0
1, 58895, Note_on_c, 0, 57, 65
1, 59021, Note_on_c, 0, 57, 0
1, 59021, Note_on_c, 0, 60, 65
1, 59147, Note_on_c, 0, 60, 0
1, 59147, Note_on_c, 0, 58, 77
1, 59157, Control_c, 0, 64, 0
1, 59298, Control_c, 0, 64, 127
1, 59330, Note_on_c, 0, 75, 0
1, 59330, Note_on_c, 0, 63, 0
1, 59330, Note_on_c, 0, 62, 72
1, 59333, Note_on_c, 0, 58, 0
1, 59333, Note_on_c, 0, 74, 82
1, 59517, Note_on_c, 0, 67, 0
1, 59517, Note_on_c, 0, 72, 87
1, 59517, Note_on_c, 0, 60, 76
1, 59520, Note_on_c, 0, 51, 0
1, 59520, Note_on_c, 0, 68, 76
1, 59520, Note_on_c, 0, 58, 70
1, 59523, Note_on_c, 0, 46, 61
1, 59532, Note_on_c, 0, 74, 0
1, 59532, Note_on_c, 0, 62, 0
1, 59702, Note_on_c, 0, 62, 67
1, 59702, Note_on_c, 0, 74, 77
1, 59718, Note_on_c, 0, 60, 0
1, 59718, Note_on_c, 0, 72, 0
1, 59895, Note_on_c, 0, 62, 0
1, 59895, Note_on_c, 0, 68, 0
1, 59895, Note_on_c, 0, 74, 0
1, 59898, Note_on_c, 0, 63, 75
1, 59898, Note_on_c, 0, 67, 75
1, 59898, Note_on_c, 0, 70, 89
1, 59901, Note_on_c, 0, 58, 0
1, 59901, Note_on_c, 0, 46, 0
1, 59901, Note_on_c, 0, 58, 69
1, 59904, Note_on_c, 0, 51, 66
1, 59904, Control_c, 0, 64, 0
1, 60021, Note_on_c, 0, 58, 0
1, 60021, Note_on_c, 0, 57, 65
1, 60028, Control_c, 0, 64, 127
1, 60146, Note_on_c, 0, 57, 0
1, 60146, Note_on_c, 0, 58, 65
1, 60272, Note_on_c, 0, 70, 0
1, 60272, Note_on_c, 0, 67, 0
1, 60272, Note_on_c, 0, 63, 0
1, 60275, Note_on_c, 0, 63, 73
1, 60275, Note_on_c, 0, 67, 73
1, 60275, Note_on_c, 0, 70, 86
1, 60278, Note_on_c, 0, 58, 0
1, 60278, Note_on_c, 0, 60, 69
1, 60398, Note_on_c, 0, 60, 0
1, 60398, Note_on_c, 0, 57, 67
1, 60524, Note_on_c, 0, 57, 0
1, 60524, Note_on_c, 0, 60, 67
1, 60650, Note_on_c, 0, 60, 0
1, 60650, Note_on_c, 0, 58, 77
1, 60662, Control_c, 0, 64, 0
1, 60792, Control_c, 0, 64, 127
1, 60836, Note_on_c, 0, 63, 0
1, 60836, Note_on_c, 0, 62, 76
1, 61024, Note_on_c, 0, 62, 0
1, 61024, Note_on_c, 0, 70, 0
1, 61024, Note_on_c, 0, 67, 0
1, 61027, Note_on_c, 0, 68, 70
1, 61027, Note_on_c, 0, 70, 83
1, 61027, Note_on_c, 0, 60, 73
1, 61030, Note_on_c, 0, 51, 0
1, 61030, Note_on_c, 0, 46, 65
1, 61210, Note_on_c, 0, 60, 0
1, 61210, Note_on_c, 0, 62, 70
1, 61399, Note_on_c, 0, 62, 0
1, 61399, Note_on_c, 0, 70, 0
1, 61399, Note_on_c, 0, 68, 0
1, 61402, Note_on_c, 0, 63, 73
1, 61402, Note_on_c, 0, 67, 75
1, 61402, Note_on_c, 0, 70, 85
1, 61405, Note_on_c, 0, 58, 0
1, 61405, Note_on_c, 0, 46, 0
1, 61405, Note_on_c, 0, 58, 68
1, 61408, Note_on_c, 0, 51, 69
1, 61408, Control_c, 0, 64, 0
1, 61522, Control_c, 0, 64, 127
1, 61526, Note_on_c, 0, 58, 0
1, 61526, Note_on_c, 0, 57, 64
1, 61654, Note_on_c, 0, 57, 0
1, 61654, Note_on_c, 0, 58, 64
1, 61781, Note_on_c, 0, 70, 0
1, 61781, Note_on_c, 0, 67, 0
1, 61781, Note_on_c, 0, 63, 0
1, 61784, Note_on_c, 0, 70, 83
1, 61784, Note_on_c, 0, 63, 71
1, 61784, Note_on_c, 0, 67, 73
1, 61787, Note_on_c, 0, 58, 0
1, 61787, Note_on_c, 0, 60, 67
1, 61906, Note_on_c, 0, 60, 0
1, 61906, Note_on_c, 0, 57, 63
1, 62032, Note_on_c, 0, 57, 0
1, 62032, Note_on_c, 0, 60, 62
1, 62157, Note_on_c, 0, 60, 0
1, 62157, Note_on_c, 0, 58, 75
1, 62166, Control_c, 0, 64, 0
1, 62244, Control_c, 0, 64, 127
1, 62281, Note_on_c, 0, 70, 0
1, 62281, Note_on_c, 0, 72, 79
1, 62343, Note_on_c, 0, 51, 0
1, 62404, Note_on_c, 0, 72, 0
1, 62404, Note_on_c, 0, 69, 78
1, 62527, Note_on_c, 0, 69, 0
1, 62527, Note_on_c, 0, 63, 0
1, 62527, Note_on_c, 0, 67, 0
1, 62530, Note_on_c, 0, 68, 73
1, 62530, Note_on_c, 0, 70, 83
1, 62530, Note_on_c, 0, 62, 73
1, 62533, Note_on_c, 0, 58, 0
1, 62533, Note_on_c, 0, 58, 72
1, 62533, Note_on_c, 0, 46, 65
1, 62649, Note_on_c, 0, 70, 0
1, 62649, Note_on_c, 0, 72, 83
1, 62775, Note_on_c, 0, 72, 0
1, 62775, Note_on_c, 0, 74, 86
1, 62903, Note_on_c, 0, 74, 0
1, 62903, Note_on_c, 0, 62, 0
1, 62903, Note_on_c, 0, 68, 0
1, 62906, Note_on_c, 0, 46, 0
1, 62906, Note_on_c, 0, 75, 99
1, 62906, Note_on_c, 0, 67, 84
1, 62909, Note_on_c, 0, 58, 0
1, 62909, Note_on_c, 0, 58, 76
1, 62909, Note_on_c, 0, 51, 65
1, 62912, Control_c, 0, 64, 0
1, 62993, Control_c, 0, 64, 127
1, 63029, Note_on_c, 0, 58, 0
1, 63029, Note_on_c, 0, 57, 65
1, 63155, Note_on_c, 0, 57, 0
1, 63155, Note_on_c, 0, 58, 65
1, 63281, Note_on_c, 0, 58, 0
1, 63281, Note_on_c, 0, 60, 71
1, 63407, Note_on_c, 0, 60, 0
1, 63407, Note_on_c, 0, 57, 66
1, 63470, Note_on_c, 0, 75, 0
1, 63470, Note_on_c, 0, 67, 0
1, 63470, Note_on_c, 0, 67, 88
1, 63532, Note_on_c, 0, 57, 0
1, 63532, Note_on_c, 0, 60, 66
1, 63655, Note_on_c, 0, 67, 0
1, 63655, Note_on_c, 0, 63, 76
1, 63655, Note_on_c, 0, 67, 76
1, 63658, Note_on_c, 0, 60, 0
1, 63658, Note_on_c, 0, 70, 91
1, 63658, Note_on_c, 0, 58, 75
1, 63666, Control_c, 0, 64, 0
1, 63839, Control_c, 0, 64, 127
1, 64033, Note_on_c, 0, 70, 0
1, 64033, Note_on_c, 0, 67, 0
1, 64033, Note_on_c, 0, 63, 0
1, 64036, Note_on_c, 0, 72, 90
1, 64036, Note_on_c, 0, 67, 77
1, 64036, Note_on_c, 0, 63, 77
1, 64039, Note_on_c, 0, 51, 0
1, 64039, Note_on_c, 0, 46, 59
1, 64218, Note_on_c, 0, 67, 0
1, 64218, Note_on_c, 0, 67, 85
1, 64234, Note_on_c, 0, 72, 0
1, 64410, Note_on_c, 0, 63, 0
1, 64410, Note_on_c, 0, 67, 0
1, 64410, Note_on_c, 0, 70, 91
1, 64413, Note_on_c, 0, 46, 0
1, 64413, Note_on_c, 0, 67, 80
1, 64413, Note_on_c, 0, 63, 80
1, 64416, Note_on_c, 0, 58, 0
1, 64416, Note_on_c, 0, 58, 71
1, 64416, Note_on_c, 0, 51, 66
1, 64416, Control_c, 0, 64, 0
1, 64511, Control_c, 0, 64, 127
1, 64537, Note_on_c, 0, 58, 0
1, 64537, Note_on_c, 0, 57, 65
1, 64664, Note_on_c, 0, 57, 0
1, 64664, Note_on_c, 0, 58, 65
1, 64790, Note_on_c, 0, 58, 0
1, 64790, Note_on_c, 0, 60, 69
1, 64917, Note_on_c, 0, 60, 0
1, 64917, Note_on_c, 0, 57, 66
1, 65043, Note_on_c, 0, 57, 0
1, 65043, Note_on_c, 0, 60, 66
1, 65170, Note_on_c, 0, 70, 0
1, 65170, Note_on_c, 0, 63, 0
1, 65170, Note_on_c, 0, 67, 0
1, 65173, Note_on_c, 0, 63, 73
1, 65173, Note_on_c, 0, 67, 77
1, 65173, Note_on_c, 0, 70, 90
1, 65176, Note_on_c, 0, 60, 0
1, 65176, Note_on_c, 0, 58, 76
1, 65183, Control_c, 0, 64, 0
1, 65276, Control_c, 0, 64, 127
1, 65351, Note_on_c, 0, 72, 81
1, 65366, Note_on_c, 0, 70, 0
1, 65535, Note_on_c, 0, 63, 0
1, 65535, Note_on_c, 0, 67, 0
1, 65535, Note_on_c, 0, 72, 0
1, 65538, Note_on_c, 0, 51, 0
1, 65538, Note_on_c, 0, 63, 79
1, 65538, Note_on_c, 0, 67, 90
1, 65541, Note_on_c, 0, 46, 64
1, 65716, Note_on_c, 0, 72, 79
1, 65732, Note_on_c, 0, 67, 0
1, 65903, Note_on_c, 0, 72, 0
1, 65903, Note_on_c, 0, 63, 0
1, 65903, Note_on_c, 0, 67, 77
1, 65906, Note_on_c, 0, 46, 0
1, 65906, Note_on_c, 0, 63, 76
1, 65906, Note_on_c, 0, 70, 91
1, 65909, Note_on_c, 0, 58, 0
1, 65909, Note_on_c, 0, 58, 71
1, 65909, Note_on_c, 0, 51, 61
1, 65909, Control_c, 0, 64, 0
1, 65984, Control_c, 0, 64, 127
1, 66029, Note_on_c, 0, 58, 0
1, 66029, Note_on_c, 0, 57, 65
1, 66155, Note_on_c, 0, 57, 0
1, 66155, Note_on_c, 0, 58, 65
1, 66281, Note_on_c, 0, 58, 0
1, 66281, Note_on_c, 0, 60, 71
1, 66406, Note_on_c, 0, 60, 0
1, 66406, Note_on_c, 0, 57, 67
1, 66532, Note_on_c, 0, 57, 0
1, 66532, Note_on_c, 0, 60, 67
1, 66658, Note_on_c, 0, 60, 0
1, 66658, Note_on_c, 0, 58, 77
1, 66670, Control_c, 0, 64, 0
1, 66729, Control_c, 0, 64, 127
1, 66782, Note_on_c, 0, 70, 0
1, 66782, Note_on_c, 0, 67, 0
1, 66782, Note_on_c, 0, 63, 0
1, 66785, Note_on_c, 0, 62, 77
1, 66905, Note_on_c, 0, 62, 0
1, 66905, Note_on_c, 0, 63, 77
1, 67028, Note_on_c, 0, 63, 0
1, 67028, Note_on_c, 0, 51, 0
1, 67028, Note_on_c, 0, 67, 78
1, 67031, Note_on_c, 0, 46, 65
1, 67150, Note_on_c, 0, 67, 0
1, 67150, Note_on_c, 0, 70, 82
1, 67274, Note_on_c, 0, 70, 0
1, 67274, Note_on_c, 0, 75, 86
1, 67400, Note_on_c, 0, 75, 0
1, 67400, Note_on_c, 0, 77, 95
1, 67400, Note_on_c, 0, 65, 83
1, 67403, Note_on_c, 0, 46, 0
1, 67403, Note_on_c, 0, 58, 0
1, 67403, Note_on_c, 0, 70, 83
1, 67406, Note_on_c, 0, 51, 66
1, 67406, Note_on_c, 0, 62, 70
1, 67406, Note_on_c, 0, 58, 66
1, 67406, Control_c, 0, 64, 0
1, 67487, Control_c, 0, 64, 127
1, 67524, Note_on_c, 0, 62, 0
1, 67524, Note_on_c, 0, 61, 65
1, 67585, Note_on_c, 0, 51, 0
1, 67585, Note_on_c, 0, 58, 0
1, 67648, Note_on_c, 0, 61, 0
1, 67648, Note_on_c, 0, 62, 65
1, 67773, Note_on_c, 0, 62, 0
1, 67773, Note_on_c, 0, 63, 69
1, 67899, Note_on_c, 0, 63, 0
1, 67899, Note_on_c, 0, 61, 66
1, 67961, Note_on_c, 0, 79, 89
1, 67961, Note_on_c, 0, 67, 77
1, 67977, Note_on_c, 0, 65, 0
1, 67977, Note_on_c, 0, 77, 0
1, 68023, Note_on_c, 0, 61, 0
1, 68023, Note_on_c, 0, 63, 66
1, 68147, Note_on_c, 0, 63, 0
1, 68147, Note_on_c, 0, 65, 83
1, 68147, Note_on_c, 0, 77, 95
1, 68150, Note_on_c, 0, 62, 77
1, 68156, Control_c, 0, 64, 0
1, 68163, Note_on_c, 0, 79, 0
1, 68163, Note_on_c, 0, 67, 0
1, 68222, Control_c, 0, 64, 127
1, 68336, Note_on_c, 0, 62, 0
1, 68525, Note_on_c, 0, 70, 0
1, 68525, Note_on_c, 0, 65, 0
1, 68525, Note_on_c, 0, 77, 0
1, 68528, Note_on_c, 0, 72, 92
1, 68528, Note_on_c, 0, 60, 79
1, 68528, Note_on_c, 0, 68, 77
1, 68531, Note_on_c, 0, 46, 61
1, 68531, Note_on_c, 0, 58, 70
1, 68709, Note_on_c, 0, 62, 79
1, 68709, Note_on_c, 0, 74, 90
1, 68725, Note_on_c, 0, 60, 0
1, 68725, Note_on_c, 0, 72, 0
1, 68900, Note_on_c, 0, 68, 0
1, 68900, Note_on_c, 0, 62, 0
1, 68900, Note_on_c, 0, 74, 0
1, 68903, Note_on_c, 0, 63, 83
1, 68903, Note_on_c, 0, 67, 83
1, 68903, Note_on_c, 0, 75, 95
1, 68906, Note_on_c, 0, 46, 0
1, 68906, Note_on_c, 0, 58, 0
1, 68906, Note_on_c, 0, 51, 65
1, 68909, Note_on_c, 0, 58, 71
1, 68909, Control_c, 0, 64, 0
1, 69009, Control_c, 0, 64, 127
1, 69024, Note_on_c, 0, 58, 0
1, 69024, Note_on_c, 0, 57, 65
1, 69148, Note_on_c, 0, 57, 0
1, 69148, Note_on_c, 0, 58, 65
1, 69274, Note_on_c, 0, 58, 0
1, 69274, Note_on_c, 0, 60, 69
1, 69399, Note_on_c, 0, 60, 0
1, 69399, Note_on_c, 0, 57, 65
1, 69524, Note_on_c, 0, 57, 0
1, 69524, Note_on_c, 0, 60, 65
1, 69650, Note_on_c, 0, 60, 0
1, 69650, Note_on_c, 0, 58, 77
1, 69661, Control_c, 0, 64, 0
1, 69763, Control_c, 0, 64, 127
1, 69832, Note_on_c, 0, 75, 0
1, 69832, Note_on_c, 0, 63, 0
1, 69832, Note_on_c, 0, 62, 72
1, 69835, Note_on_c, 0, 58, 0
1, 69835, Note_on_c, 0, 74, 82
1, 70019, Note_on_c, 0, 67, 0
1, 70019, Note_on_c, 0, 72, 87
1, 70019, Note_on_c, 0, 60, 76
1, 70022, Note_on_c, 0, 51, 0
1, 70022, Note_on_c, 0, 68, 76
1, 70022, Note_on_c, 0, 58, 70
1, 70025, Note_on_c, 0, 46, 61
1, 70035, Note_on_c, 0, 74, 0
1, 70035, Note_on_c, 0, 62, 0
1, 70204, Note_on_c, 0, 62, 67
1, 70204, Note_on_c, 0, 74, 77
1, 70220, Note_on_c, 0, 60, 0
1, 70220, Note_on_c, 0, 72, 0
1, 70397, Note_on_c, 0, 62, 0
1, 70397, Note_on_c, 0, 68, 0
1, 70397, Note_on_c, 0, 74, 0
1, 70400, Note_on_c, 0, 63, 75
1, 70400, Note_on_c, 0, 67, 75
1, 70400, Note_on_c, 0, 70, 89
1, 70403, Note_on_c, 0, 58, 0
1, 70403, Note_on_c, 0, 46, 0
1, 70403, Note_on_c, 0, 51, 66
1, 70406, Note_on_c, 0, 58, 69
1, 70406, Control_c, 0, 64, 0
1, 70482, Control_c, 0, 64, 127
1, 70521, Note_on_c, 0, 58, 0
1, 70521, Note_on_c, 0, 57, 65
1, 70646, Note_on_c, 0, 57, 0
1, 70646, Note_on_c, 0, 58, 65
1, 70771, Note_on_c, 0, 67, 0
1, 70771, Note_on_c, 0, 70, 0
1, 70771, Note_on_c, 0, 63, 0
1, 70774, Note_on_c, 0, 63, 73
1, 70774, Note_on_c, 0, 67, 73
1, 70774, Note_on_c, 0, 70, 86
1, 70777, Note_on_c, 0, 58, 0
1, 70777, Note_on_c, 0, 60, 69
1, 70897, Note_on_c, 0, 60, 0
1, 70897, Note_on_c, 0, 57, 67
1, 71022, Note_on_c, 0, 57, 0
1, 71022, Note_on_c, 0, 60, 67
1, 71147, Note_on_c, 0, 60, 0
1, 71147, Note_on_c, 0, 58, 77
1, 71161, Control_c, 0, 64, 0
1, 71232, Control_c, 0, 64, 127
1, 71333, Note_on_c, 0, 63, 0
1, 71333, Note_on_c, 0, 62, 76
1, 71521, Note_on_c, 0, 62, 0
1, 71521, Note_on_c, 0, 70, 0
1, 71521, Note_on_c, 0, 67, 0
1, 71524, Note_on_c, 0, 68, 73
1, 71524, Note_on_c, 0, 70, 83
1, 71524, Note_on_c, 0, 60, 73
1, 71527, Note_on_c, 0, 51, 0
1, 71527, Note_on_c, 0, 46, 65
1, 71707, Note_on_c, 0, 60, 0
1, 71707, Note_on_c, 0, 62, 70
1, 71896, Note_on_c, 0, 62, 0
1, 71896, Note_on_c, 0, 70, 0
1, 71896, Note_on_c, 0, 68, 0
1, 71899, Note_on_c, 0, 70, 86
1, 71899, Note_on_c, 0, 67, 78
1, 71899, Note_on_c, 0, 63, 75
1, 71902, Note_on_c, 0, 58, 0
1, 71902, Note_on_c, 0, 46, 0
1, 71902, Note_on_c, 0, 51, 66
1, 71905, Note_on_c, 0, 58, 69
1, 71905, Control_c, 0, 64, 0
1, 71976, Control_c, 0, 64, 127
1, 72020, Note_on_c, 0, 58, 0
1, 72020, Note_on_c, 0, 57, 65
1, 72144, Note_on_c, 0, 57, 0
1, 72144, Note_on_c, 0, 58, 64
1, 72270, Note_on_c, 0, 67, 0
1, 72270, Note_on_c, 0, 63, 0
1, 72270, Note_on_c, 0, 70, 0
1, 72273, Note_on_c, 0, 70, 84
1, 72273, Note_on_c, 0, 67, 72
1, 72273, Note_on_c, 0, 63, 72
1, 72276, Note_on_c, 0, 58, 0
1, 72276, Note_on_c, 0, 60, 68
1, 72395, Note_on_c, 0, 60, 0
1, 72395, Note_on_c, 0, 57, 66
1, 72520, Note_on_c, 0, 57, 0
1, 72520, Note_on_c, 0, 60, 65
1, 72646, Note_on_c, 0, 60, 0
1, 72646, Note_on_c, 0, 58, 74
1, 72656, Control_c, 0, 64, 0
1, 72743, Control_c, 0, 64, 127
1, 72831, Note_on_c, 0, 63, 0
1, 72831, Note_on_c, 0, 62, 73
1, 73019, Note_on_c, 0, 62, 0
1, 73019, Note_on_c, 0, 67, 0
1, 73019, Note_on_c, 0, 70, 0
1, 73022, Note_on_c, 0, 68, 69
1, 73022, Note_on_c, 0, 70, 79
1, 73022, Note_on_c, 0, 60, 69
1, 73025, Note_on_c, 0, 51, 0
1, 73025, Note_on_c, 0, 46, 62
1, 73206, Note_on_c, 0, 60, 0
1, 73206, Note_on_c, 0, 62, 66
1, 73394, Note_on_c, 0, 62, 0
1, 73394, Note_on_c, 0, 70, 0
1, 73394, Note_on_c, 0, 68, 0
1, 73397, Note_on_c, 0, 70, 83
1, 73397, Note_on_c, 0, 67, 73
1, 73397, Note_on_c, 0, 63, 73
1, 73400, Note_on_c, 0, 46, 0
1, 73400, Note_on_c, 0, 51, 62
1, 73400, Control_c, 0, 64, 0
1, 73518, Note_on_c, 0, 58, 0
1, 73518, Note_on_c, 0, 57, 60
1, 73525, Control_c, 0, 64, 127
1, 73579, Note_on_c, 0, 63, 0
1, 73579, Note_on_c, 0, 67, 0
1, 73579, Note_on_c, 0, 70, 0
1, 73641, Note_on_c, 0, 57, 0
1, 73641, Note_on_c, 0, 58, 60
1, 73764, Note_on_c, 0, 70, 79
1, 73764, Note_on_c, 0, 63, 70
1, 73764, Note_on_c, 0, 67, 70
1, 73767, Note_on_c, 0, 58, 0
1, 73767, Note_on_c, 0, 60, 64
1, 73889, Note_on_c, 0, 60, 0
1, 73889, Note_on_c, 0, 57, 61
1, 74014, Note_on_c, 0, 57, 0
1, 74014, Note_on_c, 0, 60, 61
1, 74140, Note_on_c, 0, 60, 0
1, 74140, Note_on_c, 0, 58, 70
1, 74150, Control_c, 0, 64, 0
1, 74289, Control_c, 0, 64, 127
1, 74518, Note_on_c, 0, 51, 0
1, 74518, Note_on_c, 0, 46, 67
1, 74895, Note_on_c, 0, 46, 0
1, 74895, Note_on_c, 0, 51, 58
1, 74901, Control_c, 0, 64, 0
1, 75001, Control_c, 0, 64, 127
1, 75019, Note_on_c, 0, 58, 0
1, 75019, Note_on_c, 0, 57, 57
1, 75081, Note_on_c, 0, 67, 0
1, 75081, Note_on_c, 0, 63, 0
1, 75081, Note_on_c, 0, 70, 0
1, 75143, Note_on_c, 0, 57, 0
1, 75143, Note_on_c, 0, 58, 56
1, 75266, Note_on_c, 0, 63, 63
1, 75266, Note_on_c, 0, 67, 63
1, 75266, Note_on_c, 0, 70, 74
1, 75269, Note_on_c, 0, 58, 0
1, 75269, Note_on_c, 0, 60, 60
1, 75392, Note_on_c, 0, 60, 0
1, 75392, Note_on_c, 0, 57, 58
1, 75517, Note_on_c, 0, 57, 0
1, 75517, Note_on_c, 0, 60, 57
1, 75643, Note_on_c, 0, 60, 0
1, 75643, Note_on_c, 0, 58, 65
1, 75651, Control_c, 0, 64, 0
1, 75821, Control_c, 0, 64, 127
1, 76021, Note_on_c, 0, 51, 0
1, 76021, Note_on_c, 0, 46, 60
1, 76398, Note_on_c, 0, 46, 0
1, 76398, Note_on_c, 0, 51, 54
1, 76405, Control_c, 0, 64, 0
1, 76478, Control_c, 0, 64, 127
1, 76522, Note_on_c, 0, 58, 0
1, 76522, Note_on_c, 0, 57, 53
1, 76584, Note_on_c, 0, 70, 0
1, 76584, Note_on_c, 0, 67, 0
1, 76584, Note_on_c, 0, 63, 0
1, 76587, Note_on_c, 0, 51, 0
1, 76647, Note_on_c, 0, 57, 0
1, 76647, Note_on_c, 0, 58, 53
1, 76772, Note_on_c, 0, 58, 0
1, 76772, Note_on_c, 0, 60, 55
1, 76896, Note_on_c, 0, 60, 0
1, 76896, Note_on_c, 0, 57, 54
1, 77020, Note_on_c, 0, 57, 0
1, 77020, Note_on_c, 0, 60, 53
1, 77146, Note_on_c, 0, 60, 0
1, 77146, Note_on_c, 0, 58, 60
1, 77159, Control_c, 0, 64, 0
1, 77243, Control_c, 0, 64, 127
1, 77269, Note_on_c, 0, 62, 57
1, 77331, Note_on_c, 0, 58, 0
1, 77394, Note_on_c, 0, 62, 0
1, 77394, Note_on_c, 0, 63, 56
1, 77519, Note_on_c, 0, 63, 0
1, 77519, Note_on_c, 0, 65, 60
1, 77643, Note_on_c, 0, 65, 0
1, 77643, Note_on_c, 0, 62, 56
1, 77768, Note_on_c, 0, 62, 0
1, 77768, Note_on_c, 0, 65, 56
1, 77894, Note_on_c, 0, 65, 0
1, 77894, Note_on_c, 0, 63, 60
1, 77899, Control_c, 0, 64, 0
1, 78018, Note_on_c, 0, 66, 53
1, 78025, Control_c, 0, 64, 127
1, 78080, Note_on_c, 0, 63, 0
1, 78143, Note_on_c, 0, 66, 0
1, 78143, Note_on_c, 0, 67, 53
1, 78269, Note_on_c, 0, 67, 0
1, 78269, Note_on_c, 0, 68, 55
1, 78392, Note_on_c, 0, 68, 0
1, 78392, Note_on_c, 0, 66, 54
1, 78517, Note_on_c, 0, 66, 0
1, 78517, Note_on_c, 0, 68, 53
1, 78643, Note_on_c, 0, 68, 0
1, 78643, Note_on_c, 0, 67, 60
1, 78650, Control_c, 0, 64, 0
1, 78767, Note_on_c, 0, 69, 57
1, 78818, Control_c, 0, 64, 127
1, 78829, Note_on_c, 0, 67, 0
1, 78876, Note_on_c, 0, 70, 56
1, 78891, Note_on_c, 0, 69, 0
1, 79001, Note_on_c, 0, 70, 0
1, 79017, Note_on_c, 0, 72, 60
1, 79141, Note_on_c, 0, 72, 0
1, 79141, Note_on_c, 0, 69, 56
1, 79266, Note_on_c, 0, 69, 0
1, 79266, Note_on_c, 0, 72, 56
1, 79392, Note_on_c, 0, 72, 0
1, 79392, Note_on_c, 0, 70, 60
1, 79399, Control_c, 0, 64, 0
1, 79518, Note_on_c, 0, 74, 53
1, 79525, Control_c, 0, 64, 127
1, 79581, Note_on_c, 0, 70, 0
1, 79644, Note_on_c, 0, 74, 0
1, 79644, Note_on_c, 0, 75, 53
1, 79772, Note_on_c, 0, 75, 0
1, 79772, Note_on_c, 0, 77, 55
1, 79897, Note_on_c, 0, 77, 0
1, 79897, Note_on_c, 0, 74, 54
1, 80024, Note_on_c, 0, 74, 0
1, 80024, Note_on_c, 0, 77, 53
1, 80151, Note_on_c, 0, 77, 0
1, 80151, Note_on_c, 0, 75, 60
1, 80163, Control_c, 0, 64, 0
1, 80278, Note_on_c, 0, 78, 57
1, 80283, Control_c, 0, 64, 127
1, 80342, Note_on_c, 0, 75, 0
1, 80391, Note_on_c, 0, 79, 56
1, 80407, Note_on_c, 0, 78, 0
1, 80521, Note_on_c, 0, 79, 0
1, 80538, Note_on_c, 0, 81, 60
1, 80665, Note_on_c, 0, 81, 0
1, 80665, Note_on_c, 0, 82, 56
1, 80794, Note_on_c, 0, 82, 0
1, 80794, Note_on_c, 0, 86, 56
1, 80923, Note_on_c, 0, 86, 0
1, 80923, Note_on_c, 0, 87, 60
1, 80940, Control_c, 0, 64, 0
1, 81413, Control_c, 0, 64, 127
1, 81725, Note_on_c, 0, 75, 50
1, 81725, Note_on_c, 0, 79, 50
1, 81725, Note_on_c, 0, 70, 46
1, 81728, Note_on_c, 0, 63, 46
1, 82624, Note_on_c, 0, 79, 0
1, 82624, Note_on_c, 0, 75, 0
1, 82624, Note_on_c, 0, 75, 50
1, 82627, Note_on_c, 0, 63, 0
1, 82627, Note_on_c, 0, 70, 0
1, 82627, Note_on_c, 0, 79, 50
1, 82630, Note_on_c, 0, 63, 46
1, 82630, Note_on_c, 0, 70, 46
1, 84421, Note_on_c, 0, 79, 0
1, 84421, Note_on_c, 0, 75, 0
1, 84421, Note_on_c, 0, 87, 0
1, 84424, Note_on_c, 0, 63, 0
1, 84424, Note_on_c, 0, 70, 0
1, 84650, Control_c, 0, 64, 0
1, 84650, End_track
0, 0, End_of_file
