0, 0, Header, 1, 2, 192
1, 0, Start_track
1, 0, Title_t, "Ampico player piano roll #58337 Symphony #6, Pathetique, 1st Mov, Parts 1 and 2  "
1, 0, Title_t, "c/b Tschaikowsky p/b Suskind-Loesser"
1, 0, Copyright_t, "Adaptation for Disklavier pianos, by: Robert C. Kuhmann (c) 2012."
1, 0, Text_t, "Roll expression tracks converted to MIDI velocities\012"
1, 0, Time_signature, 4, 2, 24, 8
1, 0, Key_signature, 0, "major"
1, 0, Tempo, 300000
1, 0, Marker_t, "Standard MIDI:LPI 235:Tempo  95: 03-28-2003"
1, 0, End_track
2, 0, Start_track
2, 0, Title_t, "Grand Piano"
2, 0, Program_c, 0, 0
2, 0, Control_c, 0, 7, 115
2, 385, Control_c, 0, 67, 127
2, 826, Note_on_c, 0, 40, 61
2, 830, Note_on_c, 0, 47, 60
2, 1962, Control_c, 0, 64, 127
2, 2135, Note_on_c, 0, 40, 0
2, 2368, Note_on_c, 0, 40, 58
2, 2628, Note_on_c, 0, 47, 0
2, 2660, Note_on_c, 0, 42, 68
2, 2759, Note_on_c, 0, 40, 0
2, 2794, Control_c, 0, 64, 0
2, 2906, Note_on_c, 0, 40, 62
2, 2906, Note_on_c, 0, 47, 62
2, 2941, Note_on_c, 0, 43, 73
2, 2988, Note_on_c, 0, 42, 0
2, 3197, Control_c, 0, 64, 127
2, 3295, Control_c, 0, 64, 0
2, 3505, Note_on_c, 0, 42, 71
2, 3577, Note_on_c, 0, 43, 0
2, 3837, Control_c, 0, 64, 127
2, 3984, Control_c, 0, 64, 0
2, 4179, Note_on_c, 0, 40, 0
2, 4184, Note_on_c, 0, 39, 58
2, 4412, Note_on_c, 0, 42, 0
2, 4474, Control_c, 0, 67, 0
2, 4507, Control_c, 0, 67, 127
2, 4710, Note_on_c, 0, 42, 68
2, 4766, Control_c, 0, 64, 127
2, 5034, Note_on_c, 0, 47, 0
2, 5040, Note_on_c, 0, 43, 69
2, 5070, Note_on_c, 0, 42, 0
2, 5181, Control_c, 0, 64, 0
2, 5280, Note_on_c, 0, 47, 60
2, 5319, Note_on_c, 0, 45, 80
2, 5375, Note_on_c, 0, 43, 0
2, 5587, Control_c, 0, 64, 127
2, 5706, Control_c, 0, 64, 0
2, 5899, Note_on_c, 0, 43, 66
2, 5955, Note_on_c, 0, 45, 0
2, 6499, Note_on_c, 0, 39, 0
2, 6503, Note_on_c, 0, 38, 60
2, 6967, Note_on_c, 0, 43, 0
2, 7100, Note_on_c, 0, 43, 70
2, 7136, Control_c, 0, 64, 127
2, 7393, Note_on_c, 0, 45, 70
2, 7398, Note_on_c, 0, 43, 0
2, 7484, Note_on_c, 0, 47, 0
2, 7574, Control_c, 0, 64, 0
2, 7670, Note_on_c, 0, 43, 78
2, 7675, Note_on_c, 0, 52, 81
2, 7696, Note_on_c, 0, 47, 81
2, 7750, Note_on_c, 0, 45, 0
2, 7945, Control_c, 0, 64, 127
2, 8126, Control_c, 0, 64, 0
2, 8378, Note_on_c, 0, 46, 85
2, 8414, Note_on_c, 0, 47, 0
2, 8659, Control_c, 0, 64, 127
2, 8876, Control_c, 0, 64, 0
2, 9046, Note_on_c, 0, 38, 0
2, 9057, Note_on_c, 0, 37, 84
2, 9211, Control_c, 0, 67, 0
2, 9344, Note_on_c, 0, 52, 0
2, 9531, Note_on_c, 0, 43, 0
2, 9539, Note_on_c, 0, 46, 0
2, 9573, Note_on_c, 0, 37, 0
2, 9577, Note_on_c, 0, 43, 72
2, 9582, Note_on_c, 0, 36, 68
2, 9592, Note_on_c, 0, 46, 68
2, 9592, Note_on_c, 0, 52, 74
2, 9672, Control_c, 0, 64, 127
2, 9971, Note_on_c, 0, 54, 76
2, 10183, Control_c, 0, 64, 0
2, 10383, Note_on_c, 0, 36, 0
2, 10386, Note_on_c, 0, 46, 0
2, 10391, Note_on_c, 0, 47, 65
2, 10392, Note_on_c, 0, 35, 64
2, 10397, Note_on_c, 0, 43, 0
2, 10397, Note_on_c, 0, 45, 69
2, 10406, Note_on_c, 0, 52, 0
2, 10407, Note_on_c, 0, 51, 64
2, 10455, Note_on_c, 0, 54, 0
2, 10467, Note_on_c, 0, 55, 81
2, 10803, Control_c, 0, 64, 127
2, 11057, Note_on_c, 0, 47, 0
2, 11221, Control_c, 0, 67, 127
2, 11414, Control_c, 0, 64, 0
2, 11816, Note_on_c, 0, 54, 71
2, 11871, Note_on_c, 0, 55, 0
2, 12059, Control_c, 0, 64, 127
2, 12552, Note_on_c, 0, 51, 0
2, 12556, Note_on_c, 0, 54, 0
2, 12561, Note_on_c, 0, 35, 0
2, 12568, Note_on_c, 0, 45, 0
2, 13303, Control_c, 0, 64, 0
2, 15272, Note_on_c, 0, 40, 57
2, 15272, Note_on_c, 0, 47, 60
2, 16726, Note_on_c, 0, 40, 0
2, 16896, Note_on_c, 0, 40, 59
2, 16939, Control_c, 0, 64, 127
2, 17192, Note_on_c, 0, 47, 0
2, 17198, Note_on_c, 0, 42, 64
2, 17274, Note_on_c, 0, 40, 0
2, 17437, Control_c, 0, 64, 0
2, 17504, Note_on_c, 0, 43, 59
2, 17519, Note_on_c, 0, 40, 58
2, 17522, Note_on_c, 0, 47, 63
2, 17551, Note_on_c, 0, 42, 0
2, 17780, Control_c, 0, 64, 127
2, 17894, Control_c, 0, 64, 0
2, 18053, Note_on_c, 0, 42, 73
2, 18132, Note_on_c, 0, 43, 0
2, 18752, Note_on_c, 0, 39, 56
2, 18801, Note_on_c, 0, 40, 0
2, 18996, Note_on_c, 0, 42, 0
2, 19304, Note_on_c, 0, 42, 69
2, 19368, Control_c, 0, 64, 127
2, 19593, Note_on_c, 0, 43, 74
2, 19609, Note_on_c, 0, 42, 0
2, 19617, Note_on_c, 0, 47, 0
2, 19752, Control_c, 0, 64, 0
2, 19853, Note_on_c, 0, 45, 63
2, 19872, Note_on_c, 0, 43, 0
2, 19876, Note_on_c, 0, 47, 61
2, 20103, Control_c, 0, 64, 127
2, 20273, Control_c, 0, 64, 0
2, 20473, Note_on_c, 0, 43, 66
2, 20536, Note_on_c, 0, 45, 0
2, 21015, Note_on_c, 0, 38, 71
2, 21064, Note_on_c, 0, 39, 0
2, 21156, Control_c, 0, 67, 0
2, 21468, Note_on_c, 0, 43, 0
2, 21615, Note_on_c, 0, 43, 70
2, 21671, Control_c, 0, 64, 127
2, 21899, Note_on_c, 0, 47, 0
2, 21932, Note_on_c, 0, 45, 69
2, 21969, Note_on_c, 0, 43, 0
2, 22237, Control_c, 0, 64, 0
2, 22253, Note_on_c, 0, 50, 56
2, 22254, Note_on_c, 0, 42, 59
2, 22277, Note_on_c, 0, 47, 76
2, 22324, Note_on_c, 0, 45, 0
2, 22846, Note_on_c, 0, 45, 63
2, 22922, Note_on_c, 0, 47, 0
2, 22969, Control_c, 0, 67, 127
2, 23446, Note_on_c, 0, 38, 0
2, 23455, Note_on_c, 0, 36, 73
2, 23525, Control_c, 0, 67, 0
2, 23863, Note_on_c, 0, 50, 0
2, 24052, Note_on_c, 0, 36, 0
2, 24053, Note_on_c, 0, 35, 63
2, 24054, Note_on_c, 0, 45, 0
2, 24058, Note_on_c, 0, 42, 0
2, 24063, Note_on_c, 0, 43, 77
2, 24080, Note_on_c, 0, 50, 74
2, 24173, Control_c, 0, 64, 127
2, 24463, Note_on_c, 0, 52, 80
2, 24642, Control_c, 0, 64, 0
2, 24654, Note_on_c, 0, 50, 0
2, 24859, Note_on_c, 0, 43, 0
2, 24861, Note_on_c, 0, 52, 0
2, 24862, Note_on_c, 0, 35, 0
2, 24867, Note_on_c, 0, 54, 56
2, 24872, Note_on_c, 0, 50, 57
2, 24873, Note_on_c, 0, 34, 56
2, 24881, Note_on_c, 0, 40, 56
2, 24886, Note_on_c, 0, 42, 58
2, 25216, Control_c, 0, 64, 127
2, 25979, Control_c, 0, 64, 0
2, 26108, Note_on_c, 0, 49, 57
2, 26172, Note_on_c, 0, 50, 0
2, 26668, Control_c, 0, 64, 127
2, 26794, Control_c, 0, 64, 0
2, 27377, Note_on_c, 0, 54, 0
2, 27378, Note_on_c, 0, 42, 0
2, 27378, Note_on_c, 0, 49, 0
2, 27379, Note_on_c, 0, 40, 0
2, 27379, Note_on_c, 0, 34, 0
2, 27384, Note_on_c, 0, 66, 75
2, 27747, Control_c, 0, 64, 127
2, 28389, Control_c, 0, 67, 127
2, 28873, Note_on_c, 0, 74, 67
2, 28887, Note_on_c, 0, 56, 65
2, 28887, Note_on_c, 0, 71, 58
2, 29230, Note_on_c, 0, 76, 78
2, 29257, Note_on_c, 0, 74, 0
2, 29402, Note_on_c, 0, 66, 0
2, 29432, Control_c, 0, 64, 0
2, 29577, Note_on_c, 0, 58, 85
2, 29582, Note_on_c, 0, 64, 80
2, 29586, Note_on_c, 0, 78, 92
2, 29596, Note_on_c, 0, 66, 71
2, 29603, Note_on_c, 0, 76, 0
2, 29604, Note_on_c, 0, 71, 0
2, 29604, Note_on_c, 0, 56, 0
2, 29610, Note_on_c, 0, 74, 70
2, 29990, Control_c, 0, 64, 127
2, 30549, Control_c, 0, 64, 0
2, 30966, Note_on_c, 0, 73, 62
2, 31022, Note_on_c, 0, 74, 0
2, 31592, Control_c, 0, 67, 0
2, 31624, Control_c, 0, 67, 127
2, 32065, Note_on_c, 0, 54, 69
2, 32086, Note_on_c, 0, 64, 0
2, 32089, Note_on_c, 0, 58, 0
2, 32090, Note_on_c, 0, 73, 0
2, 32091, Note_on_c, 0, 66, 0
2, 32096, Note_on_c, 0, 78, 0
2, 32270, Control_c, 0, 64, 127
2, 33192, Control_c, 0, 64, 0
2, 33720, Note_on_c, 0, 62, 76
2, 33737, Note_on_c, 0, 59, 72
2, 33738, Note_on_c, 0, 44, 75
2, 33811, Control_c, 0, 64, 127
2, 34040, Note_on_c, 0, 64, 99
2, 34089, Note_on_c, 0, 62, 0
2, 34215, Control_c, 0, 64, 0
2, 34357, Note_on_c, 0, 54, 0
2, 34393, Note_on_c, 0, 46, 91
2, 34411, Note_on_c, 0, 66, 107
2, 34413, Note_on_c, 0, 44, 0
2, 34416, Note_on_c, 0, 62, 90
2, 34416, Note_on_c, 0, 52, 92
2, 34416, Note_on_c, 0, 54, 91
2, 34436, Note_on_c, 0, 59, 0
2, 34496, Note_on_c, 0, 64, 0
2, 34790, Control_c, 0, 64, 127
2, 35554, Control_c, 0, 64, 0
2, 35883, Note_on_c, 0, 61, 65
2, 35941, Note_on_c, 0, 62, 0
2, 36480, Note_on_c, 0, 59, 74
2, 36495, Note_on_c, 0, 46, 0
2, 36499, Note_on_c, 0, 52, 0
2, 36499, Note_on_c, 0, 54, 0
2, 36507, Note_on_c, 0, 61, 0
2, 36508, Note_on_c, 0, 66, 0
2, 36659, Control_c, 0, 64, 127
2, 37027, Note_on_c, 0, 57, 68
2, 37054, Note_on_c, 0, 59, 0
2, 37089, Control_c, 0, 64, 0
2, 37214, Note_on_c, 0, 55, 77
2, 37236, Note_on_c, 0, 57, 0
2, 37594, Control_c, 0, 64, 127
2, 38039, Control_c, 0, 64, 0
2, 38500, Note_on_c, 0, 54, 62
2, 38603, Note_on_c, 0, 55, 0
2, 39215, Note_on_c, 0, 52, 66
2, 39243, Note_on_c, 0, 54, 0
2, 39440, Control_c, 0, 64, 127
2, 39840, Note_on_c, 0, 50, 63
2, 39864, Note_on_c, 0, 52, 0
2, 40085, Note_on_c, 0, 50, 0
2, 40124, Control_c, 0, 64, 0
2, 40134, Note_on_c, 0, 34, 75
2, 40138, Note_on_c, 0, 42, 69
2, 40138, Note_on_c, 0, 54, 68
2, 40139, Note_on_c, 0, 50, 70
2, 40635, Control_c, 0, 64, 127
2, 41965, Control_c, 0, 64, 0
2, 42008, Note_on_c, 0, 49, 72
2, 42032, Note_on_c, 0, 50, 0
2, 42513, Note_on_c, 0, 52, 72
2, 42576, Note_on_c, 0, 49, 0
2, 42606, Control_c, 0, 64, 127
2, 42770, Control_c, 0, 64, 0
2, 43045, Note_on_c, 0, 50, 68
2, 43102, Note_on_c, 0, 52, 0
2, 43822, Note_on_c, 0, 49, 61
2, 43872, Note_on_c, 0, 50, 0
2, 44206, Control_c, 0, 64, 127
2, 44682, Control_c, 0, 67, 0
2, 44842, Control_c, 0, 64, 0
2, 45474, Note_on_c, 0, 42, 0
2, 45481, Note_on_c, 0, 34, 0
2, 45481, Note_on_c, 0, 54, 0
2, 45490, Note_on_c, 0, 49, 0
2, 46834, Control_c, 0, 67, 127
2, 47446, Note_on_c, 0, 62, 82
2, 47446, Note_on_c, 0, 66, 84
2, 47447, Note_on_c, 0, 50, 80
2, 47450, Note_on_c, 0, 71, 87
2, 47479, Note_on_c, 0, 66, 0
2, 47497, Note_on_c, 0, 62, 0
2, 47497, Note_on_c, 0, 50, 0
2, 47500, Note_on_c, 0, 71, 0
2, 47616, Note_on_c, 0, 67, 98
2, 47616, Note_on_c, 0, 61, 95
2, 47616, Note_on_c, 0, 73, 100
2, 47617, Note_on_c, 0, 52, 96
2, 47648, Note_on_c, 0, 67, 0
2, 47662, Note_on_c, 0, 52, 0
2, 47666, Note_on_c, 0, 73, 0
2, 47666, Note_on_c, 0, 61, 0
2, 47721, Control_c, 0, 64, 127
2, 47785, Note_on_c, 0, 53, 97
2, 47789, Note_on_c, 0, 59, 100
2, 47794, Note_on_c, 0, 74, 103
2, 47799, Note_on_c, 0, 68, 106
2, 47819, Control_c, 0, 64, 0
2, 48085, Note_on_c, 0, 58, 63
2, 48086, Note_on_c, 0, 54, 68
2, 48090, Note_on_c, 0, 70, 64
2, 48090, Note_on_c, 0, 73, 62
2, 48108, Note_on_c, 0, 59, 0
2, 48109, Note_on_c, 0, 53, 0
2, 48121, Note_on_c, 0, 68, 0
2, 48123, Note_on_c, 0, 74, 0
2, 48191, Note_on_c, 0, 54, 0
2, 48195, Note_on_c, 0, 58, 0
2, 48196, Note_on_c, 0, 73, 0
2, 48200, Note_on_c, 0, 70, 0
2, 48637, Note_on_c, 0, 59, 62
2, 48637, Note_on_c, 0, 66, 62
2, 48638, Note_on_c, 0, 50, 68
2, 48641, Note_on_c, 0, 71, 65
2, 48697, Note_on_c, 0, 50, 0
2, 48704, Note_on_c, 0, 49, 63
2, 48712, Note_on_c, 0, 76, 63
2, 48721, Note_on_c, 0, 67, 64
2, 48725, Note_on_c, 0, 66, 0
2, 48740, Note_on_c, 0, 71, 0
2, 48772, Note_on_c, 0, 50, 69
2, 48772, Note_on_c, 0, 66, 75
2, 48776, Note_on_c, 0, 74, 72
2, 48799, Note_on_c, 0, 67, 0
2, 48841, Note_on_c, 0, 52, 77
2, 48846, Note_on_c, 0, 49, 0
2, 48846, Note_on_c, 0, 66, 0
2, 48846, Note_on_c, 0, 67, 79
2, 48846, Note_on_c, 0, 71, 77
2, 48850, Note_on_c, 0, 59, 0
2, 48851, Note_on_c, 0, 74, 0
2, 48874, Note_on_c, 0, 76, 0
2, 48888, Note_on_c, 0, 50, 0
2, 48893, Note_on_c, 0, 52, 0
2, 48897, Note_on_c, 0, 67, 0
2, 48912, Note_on_c, 0, 53, 74
2, 48916, Note_on_c, 0, 59, 79
2, 48921, Note_on_c, 0, 71, 0
2, 48921, Note_on_c, 0, 68, 84
2, 48921, Note_on_c, 0, 74, 81
2, 48942, Control_c, 0, 64, 127
2, 49001, Control_c, 0, 64, 0
2, 49168, Note_on_c, 0, 54, 61
2, 49168, Note_on_c, 0, 58, 58
2, 49180, Note_on_c, 0, 70, 58
2, 49180, Note_on_c, 0, 73, 59
2, 49190, Note_on_c, 0, 53, 0
2, 49191, Note_on_c, 0, 59, 0
2, 49199, Note_on_c, 0, 68, 0
2, 49200, Note_on_c, 0, 74, 0
2, 49256, Note_on_c, 0, 70, 0
2, 49272, Note_on_c, 0, 58, 0
2, 49272, Note_on_c, 0, 54, 0
2, 49320, Note_on_c, 0, 73, 0
2, 49742, Note_on_c, 0, 78, 80
2, 49778, Note_on_c, 0, 76, 78
2, 49810, Note_on_c, 0, 78, 0
2, 49820, Note_on_c, 0, 76, 0
2, 49842, Note_on_c, 0, 67, 75
2, 49842, Note_on_c, 0, 70, 77
2, 49843, Note_on_c, 0, 61, 77
2, 49863, Note_on_c, 0, 70, 0
2, 49872, Note_on_c, 0, 61, 0
2, 49872, Note_on_c, 0, 67, 0
2, 49915, Note_on_c, 0, 76, 85
2, 49970, Note_on_c, 0, 79, 88
2, 49984, Note_on_c, 0, 76, 0
2, 50020, Note_on_c, 0, 78, 89
2, 50028, Note_on_c, 0, 79, 0
2, 50063, Note_on_c, 0, 78, 0
2, 50086, Note_on_c, 0, 62, 75
2, 50086, Note_on_c, 0, 71, 70
2, 50087, Note_on_c, 0, 66, 76
2, 50116, Note_on_c, 0, 66, 0
2, 50121, Note_on_c, 0, 62, 0
2, 50131, Note_on_c, 0, 71, 0
2, 50151, Note_on_c, 0, 78, 71
2, 50210, Note_on_c, 0, 71, 79
2, 50211, Note_on_c, 0, 78, 0
2, 50280, Note_on_c, 0, 71, 0
2, 50282, Note_on_c, 0, 70, 81
2, 50324, Note_on_c, 0, 70, 0
2, 50339, Note_on_c, 0, 55, 76
2, 50339, Note_on_c, 0, 61, 72
2, 50339, Note_on_c, 0, 64, 77
2, 50369, Note_on_c, 0, 61, 0
2, 50372, Note_on_c, 0, 64, 0
2, 50372, Note_on_c, 0, 55, 0
2, 50404, Note_on_c, 0, 70, 77
2, 50465, Note_on_c, 0, 73, 77
2, 50496, Note_on_c, 0, 70, 0
2, 50501, Note_on_c, 0, 73, 0
2, 50516, Note_on_c, 0, 71, 73
2, 50552, Note_on_c, 0, 71, 0
2, 50586, Note_on_c, 0, 66, 68
2, 50591, Note_on_c, 0, 54, 65
2, 50591, Note_on_c, 0, 62, 66
2, 50621, Note_on_c, 0, 62, 0
2, 50625, Note_on_c, 0, 54, 0
2, 50629, Note_on_c, 0, 66, 0
2, 50666, Note_on_c, 0, 71, 70
2, 50715, Note_on_c, 0, 66, 71
2, 50719, Note_on_c, 0, 71, 0
2, 50763, Note_on_c, 0, 66, 0
2, 50773, Note_on_c, 0, 64, 66
2, 50815, Note_on_c, 0, 64, 0
2, 50840, Note_on_c, 0, 55, 70
2, 50841, Note_on_c, 0, 49, 65
2, 50844, Note_on_c, 0, 58, 71
2, 50881, Note_on_c, 0, 49, 0
2, 50881, Note_on_c, 0, 55, 0
2, 50882, Note_on_c, 0, 58, 0
2, 50907, Note_on_c, 0, 64, 71
2, 50967, Note_on_c, 0, 64, 0
2, 50976, Note_on_c, 0, 67, 86
2, 51034, Note_on_c, 0, 67, 0
2, 51034, Note_on_c, 0, 66, 72
2, 51072, Note_on_c, 0, 66, 0
2, 51093, Note_on_c, 0, 54, 74
2, 51094, Note_on_c, 0, 50, 77
2, 51094, Note_on_c, 0, 59, 74
2, 51098, Note_on_c, 0, 64, 72
2, 51125, Note_on_c, 0, 54, 0
2, 51126, Note_on_c, 0, 50, 0
2, 51126, Note_on_c, 0, 59, 0
2, 51130, Note_on_c, 0, 64, 0
2, 51157, Note_on_c, 0, 62, 71
2, 51189, Note_on_c, 0, 62, 0
2, 51233, Note_on_c, 0, 61, 74
2, 51266, Note_on_c, 0, 61, 0
2, 51277, Note_on_c, 0, 62, 71
2, 51322, Note_on_c, 0, 62, 0
2, 51342, Note_on_c, 0, 47, 71
2, 51342, Note_on_c, 0, 52, 74
2, 51343, Note_on_c, 0, 43, 73
2, 51356, Note_on_c, 0, 61, 71
2, 51388, Note_on_c, 0, 61, 0
2, 51421, Note_on_c, 0, 59, 71
2, 51463, Note_on_c, 0, 59, 0
2, 51472, Note_on_c, 0, 47, 0
2, 51479, Note_on_c, 0, 43, 0
2, 51479, Note_on_c, 0, 52, 0
2, 51483, Note_on_c, 0, 49, 81
2, 51483, Note_on_c, 0, 54, 84
2, 51484, Note_on_c, 0, 58, 87
2, 51485, Note_on_c, 0, 42, 81
2, 51512, Note_on_c, 0, 42, 0
2, 51512, Note_on_c, 0, 49, 0
2, 51516, Note_on_c, 0, 58, 0
2, 51516, Note_on_c, 0, 54, 0
2, 51544, Note_on_c, 0, 66, 72
2, 51585, Note_on_c, 0, 66, 0
2, 51599, Note_on_c, 0, 68, 73
2, 51649, Note_on_c, 0, 68, 0
2, 51654, Note_on_c, 0, 70, 77
2, 51685, Note_on_c, 0, 70, 0
2, 51704, Note_on_c, 0, 62, 81
2, 51705, Note_on_c, 0, 50, 84
2, 51709, Note_on_c, 0, 71, 73
2, 51710, Note_on_c, 0, 66, 75
2, 51741, Note_on_c, 0, 66, 0
2, 51745, Note_on_c, 0, 50, 0
2, 51750, Note_on_c, 0, 71, 0
2, 51750, Note_on_c, 0, 62, 0
2, 51852, Note_on_c, 0, 67, 82
2, 51853, Note_on_c, 0, 52, 81
2, 51853, Note_on_c, 0, 61, 88
2, 51853, Note_on_c, 0, 73, 81
2, 51884, Note_on_c, 0, 67, 0
2, 51888, Note_on_c, 0, 52, 0
2, 51893, Note_on_c, 0, 61, 0
2, 51893, Note_on_c, 0, 73, 0
2, 51993, Note_on_c, 0, 53, 92
2, 51997, Note_on_c, 0, 59, 89
2, 52002, Note_on_c, 0, 68, 89
2, 52002, Note_on_c, 0, 74, 92
2, 52278, Note_on_c, 0, 54, 62
2, 52278, Note_on_c, 0, 58, 59
2, 52278, Note_on_c, 0, 70, 57
2, 52278, Note_on_c, 0, 73, 58
2, 52299, Note_on_c, 0, 68, 0
2, 52300, Note_on_c, 0, 59, 0
2, 52301, Note_on_c, 0, 74, 0
2, 52301, Note_on_c, 0, 53, 0
2, 52333, Note_on_c, 0, 54, 0
2, 52339, Note_on_c, 0, 70, 0
2, 52339, Note_on_c, 0, 73, 0
2, 52339, Note_on_c, 0, 58, 0
2, 52790, Note_on_c, 0, 59, 75
2, 52790, Note_on_c, 0, 66, 65
2, 52791, Note_on_c, 0, 50, 68
2, 52794, Note_on_c, 0, 71, 65
2, 52818, Note_on_c, 0, 50, 0
2, 52840, Note_on_c, 0, 49, 75
2, 52851, Note_on_c, 0, 67, 70
2, 52852, Note_on_c, 0, 71, 0
2, 52852, Note_on_c, 0, 66, 0
2, 52855, Note_on_c, 0, 76, 63
2, 52887, Note_on_c, 0, 67, 0
2, 52905, Note_on_c, 0, 49, 0
2, 52911, Note_on_c, 0, 50, 73
2, 52915, Note_on_c, 0, 76, 0
2, 52915, Note_on_c, 0, 74, 71
2, 52920, Note_on_c, 0, 66, 76
2, 52959, Note_on_c, 0, 50, 0
2, 52964, Note_on_c, 0, 71, 76
2, 52965, Note_on_c, 0, 52, 72
2, 52968, Note_on_c, 0, 74, 0
2, 52973, Note_on_c, 0, 66, 0
2, 52973, Note_on_c, 0, 67, 78
2, 52992, Note_on_c, 0, 59, 0
2, 53034, Note_on_c, 0, 52, 0
2, 53035, Note_on_c, 0, 53, 79
2, 53038, Note_on_c, 0, 67, 0
2, 53039, Note_on_c, 0, 71, 0
2, 53039, Note_on_c, 0, 59, 81
2, 53048, Note_on_c, 0, 68, 81
2, 53053, Note_on_c, 0, 74, 78
2, 53306, Note_on_c, 0, 54, 57
2, 53306, Note_on_c, 0, 58, 58
2, 53310, Note_on_c, 0, 70, 60
2, 53311, Note_on_c, 0, 73, 58
2, 53333, Note_on_c, 0, 74, 0
2, 53333, Note_on_c, 0, 59, 0
2, 53333, Note_on_c, 0, 53, 0
2, 53334, Note_on_c, 0, 68, 0
2, 53441, Note_on_c, 0, 54, 0
2, 53446, Note_on_c, 0, 73, 0
2, 53450, Note_on_c, 0, 58, 0
2, 53450, Note_on_c, 0, 70, 0
2, 53826, Note_on_c, 0, 78, 84
2, 53883, Note_on_c, 0, 76, 83
2, 53912, Note_on_c, 0, 78, 0
2, 53925, Note_on_c, 0, 76, 0
2, 53939, Note_on_c, 0, 61, 85
2, 53939, Note_on_c, 0, 67, 74
2, 53939, Note_on_c, 0, 70, 73
2, 53976, Note_on_c, 0, 61, 0
2, 53981, Note_on_c, 0, 70, 0
2, 53981, Note_on_c, 0, 67, 0
2, 53996, Note_on_c, 0, 76, 83
2, 54059, Note_on_c, 0, 76, 0
2, 54065, Note_on_c, 0, 79, 85
2, 54132, Note_on_c, 0, 78, 76
2, 54161, Note_on_c, 0, 79, 0
2, 54165, Note_on_c, 0, 78, 0
2, 54175, Note_on_c, 0, 66, 76
2, 54175, Note_on_c, 0, 71, 76
2, 54176, Note_on_c, 0, 62, 86
2, 54215, Note_on_c, 0, 66, 0
2, 54216, Note_on_c, 0, 62, 0
2, 54216, Note_on_c, 0, 71, 0
2, 54249, Note_on_c, 0, 78, 87
2, 54324, Note_on_c, 0, 78, 0
2, 54325, Note_on_c, 0, 83, 99
2, 54378, Note_on_c, 0, 74, 81
2, 54409, Note_on_c, 0, 83, 0
2, 54410, Note_on_c, 0, 74, 0
2, 54449, Note_on_c, 0, 55, 80
2, 54450, Note_on_c, 0, 64, 79
2, 54454, Note_on_c, 0, 71, 76
2, 54486, Note_on_c, 0, 71, 0
2, 54491, Note_on_c, 0, 64, 0
2, 54492, Note_on_c, 0, 74, 95
2, 54497, Note_on_c, 0, 55, 0
2, 54510, Note_on_c, 0, 74, 0
2, 54562, Note_on_c, 0, 74, 113
2, 54612, Note_on_c, 0, 74, 0
2, 54619, Note_on_c, 0, 73, 73
2, 54650, Note_on_c, 0, 73, 0
2, 54699, Note_on_c, 0, 57, 70
2, 54704, Note_on_c, 0, 64, 72
2, 54704, Note_on_c, 0, 69, 77
2, 54742, Note_on_c, 0, 64, 0
2, 54743, Note_on_c, 0, 57, 0
2, 54747, Note_on_c, 0, 69, 0
2, 54766, Note_on_c, 0, 73, 79
2, 54803, Note_on_c, 0, 73, 0
2, 54837, Note_on_c, 0, 81, 97
2, 54892, Note_on_c, 0, 81, 0
2, 54904, Note_on_c, 0, 73, 78
2, 54933, Note_on_c, 0, 73, 0
2, 54952, Note_on_c, 0, 62, 80
2, 54954, Note_on_c, 0, 54, 77
2, 54957, Note_on_c, 0, 69, 80
2, 54986, Note_on_c, 0, 54, 0
2, 54999, Note_on_c, 0, 69, 0
2, 54999, Note_on_c, 0, 62, 0
2, 55017, Note_on_c, 0, 73, 89
2, 55041, Note_on_c, 0, 73, 0
2, 55093, Note_on_c, 0, 73, 92
2, 55146, Note_on_c, 0, 73, 0
2, 55156, Note_on_c, 0, 71, 72
2, 55190, Note_on_c, 0, 71, 0
2, 55209, Note_on_c, 0, 67, 69
2, 55210, Note_on_c, 0, 55, 70
2, 55210, Note_on_c, 0, 62, 68
2, 55252, Note_on_c, 0, 55, 0
2, 55256, Note_on_c, 0, 62, 0
2, 55256, Note_on_c, 0, 67, 0
2, 55274, Note_on_c, 0, 71, 73
2, 55307, Note_on_c, 0, 71, 0
2, 55345, Note_on_c, 0, 79, 67
2, 55392, Note_on_c, 0, 79, 0
2, 55392, Note_on_c, 0, 78, 76
2, 55431, Note_on_c, 0, 78, 0
2, 55447, Note_on_c, 0, 59, 82
2, 55448, Note_on_c, 0, 52, 82
2, 55452, Note_on_c, 0, 76, 76
2, 55461, Note_on_c, 0, 67, 74
2, 55484, Note_on_c, 0, 76, 0
2, 55518, Note_on_c, 0, 74, 77
2, 55549, Note_on_c, 0, 74, 0
2, 55567, Note_on_c, 0, 73, 73
2, 55603, Note_on_c, 0, 73, 0
2, 55638, Note_on_c, 0, 71, 69
2, 55670, Note_on_c, 0, 71, 0
2, 55697, Note_on_c, 0, 69, 68
2, 55713, Note_on_c, 0, 67, 0
2, 55724, Note_on_c, 0, 69, 0
2, 55751, Note_on_c, 0, 52, 0
2, 55752, Note_on_c, 0, 59, 0
2, 55756, Note_on_c, 0, 67, 72
2, 55793, Note_on_c, 0, 67, 0
2, 55817, Note_on_c, 0, 76, 72
2, 55868, Note_on_c, 0, 76, 0
2, 55874, Note_on_c, 0, 74, 72
2, 55902, Note_on_c, 0, 74, 0
2, 55931, Note_on_c, 0, 55, 78
2, 55932, Note_on_c, 0, 47, 78
2, 55936, Note_on_c, 0, 64, 76
2, 55953, Note_on_c, 0, 73, 71
2, 55985, Note_on_c, 0, 73, 0
2, 56000, Note_on_c, 0, 71, 78
2, 56027, Note_on_c, 0, 71, 0
2, 56065, Note_on_c, 0, 69, 77
2, 56099, Note_on_c, 0, 69, 0
2, 56126, Note_on_c, 0, 67, 66
2, 56160, Note_on_c, 0, 67, 0
2, 56190, Note_on_c, 0, 66, 69
2, 56193, Note_on_c, 0, 64, 0
2, 56228, Note_on_c, 0, 66, 0
2, 56239, Note_on_c, 0, 47, 0
2, 56244, Note_on_c, 0, 55, 0
2, 56249, Note_on_c, 0, 64, 72
2, 56280, Note_on_c, 0, 64, 0
2, 56316, Note_on_c, 0, 73, 73
2, 56379, Note_on_c, 0, 73, 0
2, 56384, Note_on_c, 0, 71, 64
2, 56412, Note_on_c, 0, 71, 0
2, 56432, Note_on_c, 0, 43, 65
2, 56432, Note_on_c, 0, 59, 66
2, 56436, Note_on_c, 0, 69, 68
2, 56442, Note_on_c, 0, 52, 66
2, 56475, Note_on_c, 0, 69, 0
2, 56506, Note_on_c, 0, 67, 68
2, 56540, Note_on_c, 0, 67, 0
2, 56560, Note_on_c, 0, 66, 68
2, 56600, Note_on_c, 0, 66, 0
2, 56629, Note_on_c, 0, 64, 67
2, 56664, Note_on_c, 0, 64, 0
2, 56684, Note_on_c, 0, 62, 63
2, 56687, Note_on_c, 0, 59, 0
2, 56688, Note_on_c, 0, 52, 0
2, 56688, Note_on_c, 0, 43, 0
2, 56689, Note_on_c, 0, 47, 69
2, 56692, Note_on_c, 0, 55, 68
2, 56694, Note_on_c, 0, 40, 63
2, 56716, Note_on_c, 0, 62, 0
2, 56751, Note_on_c, 0, 61, 63
2, 56784, Note_on_c, 0, 61, 0
2, 56827, Note_on_c, 0, 64, 64
2, 56889, Note_on_c, 0, 64, 0
2, 56890, Note_on_c, 0, 62, 67
2, 56930, Note_on_c, 0, 62, 0
2, 56931, Note_on_c, 0, 47, 0
2, 56932, Note_on_c, 0, 40, 0
2, 56935, Note_on_c, 0, 55, 0
2, 56937, Note_on_c, 0, 43, 68
2, 56937, Note_on_c, 0, 52, 67
2, 56938, Note_on_c, 0, 35, 69
2, 56951, Note_on_c, 0, 61, 63
2, 56977, Note_on_c, 0, 61, 0
2, 57001, Note_on_c, 0, 59, 66
2, 57032, Note_on_c, 0, 59, 0
2, 57066, Note_on_c, 0, 57, 63
2, 57117, Note_on_c, 0, 57, 0
2, 57118, Note_on_c, 0, 55, 67
2, 57173, Note_on_c, 0, 55, 0
2, 57175, Note_on_c, 0, 31, 62
2, 57179, Note_on_c, 0, 35, 0
2, 57183, Note_on_c, 0, 54, 68
2, 57184, Note_on_c, 0, 43, 0
2, 57184, Note_on_c, 0, 40, 67
2, 57184, Note_on_c, 0, 47, 63
2, 57210, Note_on_c, 0, 52, 0
2, 57243, Note_on_c, 0, 54, 0
2, 57249, Note_on_c, 0, 52, 68
2, 57308, Note_on_c, 0, 52, 0
2, 57312, Note_on_c, 0, 50, 77
2, 57344, Note_on_c, 0, 50, 0
2, 57378, Note_on_c, 0, 49, 68
2, 57429, Note_on_c, 0, 49, 0
2, 57434, Note_on_c, 0, 52, 69
2, 57504, Note_on_c, 0, 52, 0
2, 57505, Note_on_c, 0, 50, 66
2, 57578, Note_on_c, 0, 50, 0
2, 57583, Note_on_c, 0, 49, 80
2, 57618, Note_on_c, 0, 49, 0
2, 57627, Note_on_c, 0, 50, 79
2, 57662, Note_on_c, 0, 50, 0
2, 57696, Note_on_c, 0, 49, 82
2, 57700, Note_on_c, 0, 47, 0
2, 57723, Note_on_c, 0, 49, 0
2, 57747, Note_on_c, 0, 47, 82
2, 57775, Note_on_c, 0, 47, 0
2, 57813, Note_on_c, 0, 47, 80
2, 57832, Note_on_c, 0, 47, 0
2, 57874, Note_on_c, 0, 47, 80
2, 57894, Note_on_c, 0, 47, 0
2, 57898, Note_on_c, 0, 40, 0
2, 57899, Note_on_c, 0, 31, 0
2, 57952, Note_on_c, 0, 47, 79
2, 57971, Note_on_c, 0, 47, 0
2, 58014, Note_on_c, 0, 47, 80
2, 58041, Note_on_c, 0, 47, 0
2, 58070, Note_on_c, 0, 47, 82
2, 58091, Note_on_c, 0, 47, 0
2, 58119, Note_on_c, 0, 47, 78
2, 58146, Note_on_c, 0, 47, 0
2, 58187, Note_on_c, 0, 47, 79
2, 58208, Note_on_c, 0, 47, 0
2, 58243, Note_on_c, 0, 47, 77
2, 58265, Note_on_c, 0, 47, 0
2, 58295, Note_on_c, 0, 47, 78
2, 58308, Note_on_c, 0, 52, 82
2, 58318, Note_on_c, 0, 43, 81
2, 58318, Note_on_c, 0, 59, 83
2, 58321, Note_on_c, 0, 47, 0
2, 58346, Note_on_c, 0, 59, 0
2, 58372, Note_on_c, 0, 47, 80
2, 58392, Note_on_c, 0, 47, 0
2, 58430, Note_on_c, 0, 47, 83
2, 58448, Note_on_c, 0, 61, 78
2, 58451, Note_on_c, 0, 47, 0
2, 58469, Note_on_c, 0, 61, 0
2, 58492, Note_on_c, 0, 47, 83
2, 58517, Note_on_c, 0, 47, 0
2, 58561, Note_on_c, 0, 43, 0
2, 58566, Note_on_c, 0, 47, 89
2, 58572, Note_on_c, 0, 42, 85
2, 58584, Note_on_c, 0, 52, 0
2, 58584, Note_on_c, 0, 54, 87
2, 58584, Note_on_c, 0, 62, 87
2, 58588, Note_on_c, 0, 47, 0
2, 58641, Note_on_c, 0, 47, 87
2, 58665, Note_on_c, 0, 47, 0
2, 58718, Note_on_c, 0, 47, 90
2, 58742, Note_on_c, 0, 47, 0
2, 58789, Note_on_c, 0, 47, 87
2, 58817, Note_on_c, 0, 47, 0
2, 58851, Note_on_c, 0, 42, 0
2, 58855, Note_on_c, 0, 40, 73
2, 58855, Note_on_c, 0, 47, 71
2, 58860, Note_on_c, 0, 54, 0
2, 58869, Note_on_c, 0, 55, 71
2, 58870, Note_on_c, 0, 61, 71
2, 58892, Note_on_c, 0, 62, 0
2, 58904, Note_on_c, 0, 61, 0
2, 58907, Note_on_c, 0, 47, 0
2, 58912, Note_on_c, 0, 55, 0
2, 58913, Note_on_c, 0, 46, 86
2, 58971, Note_on_c, 0, 46, 0
2, 58975, Note_on_c, 0, 47, 88
2, 59048, Note_on_c, 0, 40, 0
2, 59054, Note_on_c, 0, 47, 0
2, 59057, Note_on_c, 0, 49, 85
2, 59114, Note_on_c, 0, 52, 90
2, 59137, Note_on_c, 0, 49, 0
2, 59186, Note_on_c, 0, 52, 0
2, 59187, Note_on_c, 0, 50, 74
2, 59240, Note_on_c, 0, 50, 0
2, 59246, Note_on_c, 0, 49, 73
2, 59291, Note_on_c, 0, 49, 0
2, 59302, Note_on_c, 0, 47, 68
2, 59323, Note_on_c, 0, 47, 0
2, 59373, Note_on_c, 0, 44, 69
2, 59382, Note_on_c, 0, 47, 65
2, 59382, Note_on_c, 0, 59, 65
2, 59387, Note_on_c, 0, 52, 64
2, 59402, Note_on_c, 0, 47, 0
2, 59406, Note_on_c, 0, 44, 0
2, 59425, Note_on_c, 0, 52, 0
2, 59435, Note_on_c, 0, 47, 67
2, 59440, Note_on_c, 0, 64, 68
2, 59463, Note_on_c, 0, 47, 0
2, 59493, Note_on_c, 0, 47, 76
2, 59496, Note_on_c, 0, 59, 0
2, 59501, Note_on_c, 0, 64, 0
2, 59503, Note_on_c, 0, 43, 73
2, 59507, Note_on_c, 0, 62, 78
2, 59511, Note_on_c, 0, 53, 73
2, 59514, Note_on_c, 0, 47, 0
2, 59535, Note_on_c, 0, 43, 0
2, 59550, Note_on_c, 0, 47, 73
2, 59553, Note_on_c, 0, 53, 0
2, 59558, Note_on_c, 0, 62, 0
2, 59559, Note_on_c, 0, 59, 72
2, 59576, Note_on_c, 0, 47, 0
2, 59606, Note_on_c, 0, 59, 0
2, 59632, Note_on_c, 0, 42, 77
2, 59632, Note_on_c, 0, 47, 81
2, 59632, Note_on_c, 0, 54, 80
2, 59632, Note_on_c, 0, 62, 80
2, 59651, Note_on_c, 0, 47, 0
2, 59684, Note_on_c, 0, 47, 76
2, 59712, Note_on_c, 0, 47, 0
2, 59766, Note_on_c, 0, 47, 77
2, 59785, Note_on_c, 0, 47, 0
2, 59827, Note_on_c, 0, 47, 79
2, 59845, Note_on_c, 0, 47, 0
2, 59876, Note_on_c, 0, 42, 0
2, 59884, Note_on_c, 0, 40, 70
2, 59885, Note_on_c, 0, 54, 0
2, 59888, Note_on_c, 0, 47, 66
2, 59892, Note_on_c, 0, 55, 63
2, 59906, Note_on_c, 0, 61, 65
2, 59926, Note_on_c, 0, 55, 0
2, 59928, Note_on_c, 0, 62, 0
2, 59933, Note_on_c, 0, 61, 0
2, 59944, Note_on_c, 0, 47, 0
2, 59944, Note_on_c, 0, 46, 65
2, 59997, Control_c, 0, 67, 0
2, 60008, Note_on_c, 0, 46, 0
2, 60015, Note_on_c, 0, 47, 63
2, 60073, Note_on_c, 0, 40, 0
2, 60074, Note_on_c, 0, 47, 0
2, 60084, Note_on_c, 0, 49, 66
2, 60113, Note_on_c, 0, 49, 0
2, 60147, Note_on_c, 0, 52, 80
2, 60210, Note_on_c, 0, 52, 0
2, 60216, Note_on_c, 0, 50, 59
2, 60262, Note_on_c, 0, 50, 0
2, 60267, Note_on_c, 0, 49, 58
2, 60308, Note_on_c, 0, 49, 0
2, 60326, Note_on_c, 0, 47, 59
2, 60383, Note_on_c, 0, 47, 0
2, 60388, Note_on_c, 0, 46, 71
2, 60393, Note_on_c, 0, 50, 74
2, 60402, Note_on_c, 0, 55, 69
2, 60411, Note_on_c, 0, 62, 73
2, 60417, Note_on_c, 0, 50, 0
2, 60422, Note_on_c, 0, 46, 0
2, 60447, Note_on_c, 0, 62, 0
2, 60462, Note_on_c, 0, 50, 76
2, 60480, Note_on_c, 0, 50, 0
2, 60528, Note_on_c, 0, 46, 73
2, 60528, Note_on_c, 0, 50, 74
2, 60536, Note_on_c, 0, 64, 72
2, 60559, Note_on_c, 0, 50, 0
2, 60569, Note_on_c, 0, 64, 0
2, 60602, Note_on_c, 0, 50, 74
2, 60631, Note_on_c, 0, 50, 0
2, 60653, Note_on_c, 0, 46, 0
2, 60658, Note_on_c, 0, 45, 76
2, 60669, Note_on_c, 0, 50, 80
2, 60669, Note_on_c, 0, 65, 76
2, 60678, Note_on_c, 0, 55, 0
2, 60683, Note_on_c, 0, 57, 79
2, 60691, Note_on_c, 0, 50, 0
2, 60723, Note_on_c, 0, 50, 83
2, 60744, Note_on_c, 0, 50, 0
2, 60796, Note_on_c, 0, 50, 82
2, 60824, Note_on_c, 0, 50, 0
2, 60861, Note_on_c, 0, 50, 81
2, 60879, Note_on_c, 0, 50, 0
2, 60926, Note_on_c, 0, 45, 0
2, 60932, Note_on_c, 0, 57, 0
2, 60933, Note_on_c, 0, 43, 65
2, 60933, Note_on_c, 0, 58, 60
2, 60941, Note_on_c, 0, 50, 60
2, 60941, Note_on_c, 0, 64, 60
2, 60962, Note_on_c, 0, 58, 0
2, 60966, Note_on_c, 0, 65, 0
2, 60971, Note_on_c, 0, 64, 0
2, 60976, Note_on_c, 0, 50, 0
2, 60981, Note_on_c, 0, 49, 78
2, 61035, Note_on_c, 0, 49, 0
2, 61035, Note_on_c, 0, 50, 79
2, 61095, Note_on_c, 0, 50, 0
2, 61095, Note_on_c, 0, 43, 0
2, 61101, Note_on_c, 0, 52, 76
2, 61174, Note_on_c, 0, 52, 0
2, 61174, Note_on_c, 0, 55, 68
2, 61242, Note_on_c, 0, 55, 0
2, 61247, Note_on_c, 0, 53, 67
2, 61286, Note_on_c, 0, 53, 0
2, 61294, Note_on_c, 0, 52, 65
2, 61315, Note_on_c, 0, 52, 0
2, 61353, Note_on_c, 0, 50, 75
2, 61392, Note_on_c, 0, 50, 0
2, 61407, Note_on_c, 0, 47, 72
2, 61410, Note_on_c, 0, 55, 73
2, 61411, Note_on_c, 0, 62, 68
2, 61424, Note_on_c, 0, 50, 73
2, 61447, Note_on_c, 0, 50, 0
2, 61483, Note_on_c, 0, 50, 80
2, 61487, Note_on_c, 0, 67, 71
2, 61505, Note_on_c, 0, 50, 0
2, 61542, Note_on_c, 0, 47, 0
2, 61544, Note_on_c, 0, 55, 0
2, 61548, Note_on_c, 0, 67, 0
2, 61549, Note_on_c, 0, 46, 77
2, 61549, Note_on_c, 0, 50, 74
2, 61549, Note_on_c, 0, 65, 69
2, 61554, Note_on_c, 0, 56, 76
2, 61563, Note_on_c, 0, 62, 0
2, 61578, Note_on_c, 0, 50, 0
2, 61607, Note_on_c, 0, 62, 76
2, 61617, Note_on_c, 0, 50, 77
2, 61630, Note_on_c, 0, 65, 0
2, 61641, Note_on_c, 0, 50, 0
2, 61670, Note_on_c, 0, 56, 0
2, 61671, Note_on_c, 0, 46, 0
2, 61675, Note_on_c, 0, 57, 81
2, 61676, Note_on_c, 0, 45, 76
2, 61680, Note_on_c, 0, 50, 75
2, 61695, Note_on_c, 0, 62, 0
2, 61696, Note_on_c, 0, 65, 82
2, 61710, Note_on_c, 0, 50, 0
2, 61746, Note_on_c, 0, 50, 77
2, 61775, Note_on_c, 0, 50, 0
2, 61795, Note_on_c, 0, 50, 74
2, 61815, Note_on_c, 0, 50, 0
2, 61864, Note_on_c, 0, 50, 64
2, 61887, Note_on_c, 0, 50, 0
2, 61920, Note_on_c, 0, 45, 0
2, 61926, Note_on_c, 0, 43, 65
2, 61926, Note_on_c, 0, 50, 66
2, 61931, Note_on_c, 0, 64, 65
2, 61932, Note_on_c, 0, 57, 0
2, 61937, Note_on_c, 0, 58, 62
2, 61946, Note_on_c, 0, 50, 0
2, 61961, Note_on_c, 0, 65, 0
2, 61966, Note_on_c, 0, 64, 0
2, 61972, Note_on_c, 0, 58, 0
2, 61987, Note_on_c, 0, 49, 57
2, 62035, Note_on_c, 0, 49, 0
2, 62045, Note_on_c, 0, 50, 79
2, 62114, Note_on_c, 0, 43, 0
2, 62119, Note_on_c, 0, 50, 0
2, 62126, Note_on_c, 0, 52, 86
2, 62173, Note_on_c, 0, 52, 0
2, 62177, Note_on_c, 0, 55, 66
2, 62236, Note_on_c, 0, 55, 0
2, 62237, Note_on_c, 0, 53, 67
2, 62284, Note_on_c, 0, 53, 0
2, 62289, Note_on_c, 0, 52, 64
2, 62341, Note_on_c, 0, 52, 0
2, 62347, Note_on_c, 0, 50, 71
2, 62378, Note_on_c, 0, 50, 0
2, 62414, Note_on_c, 0, 58, 69
2, 62423, Note_on_c, 0, 53, 75
2, 62423, Note_on_c, 0, 65, 69
2, 62424, Note_on_c, 0, 50, 71
2, 62443, Note_on_c, 0, 53, 0
2, 62452, Note_on_c, 0, 58, 0
2, 62461, Note_on_c, 0, 50, 0
2, 62468, Note_on_c, 0, 65, 0
2, 62493, Note_on_c, 0, 53, 70
2, 62522, Note_on_c, 0, 53, 0
2, 62562, Note_on_c, 0, 59, 75
2, 62563, Note_on_c, 0, 49, 76
2, 62571, Note_on_c, 0, 53, 71
2, 62571, Note_on_c, 0, 67, 76
2, 62592, Note_on_c, 0, 53, 0
2, 62599, Note_on_c, 0, 49, 0
2, 62604, Note_on_c, 0, 59, 0
2, 62615, Note_on_c, 0, 67, 0
2, 62629, Note_on_c, 0, 53, 71
2, 62651, Note_on_c, 0, 53, 0
2, 62686, Note_on_c, 0, 48, 80
2, 62686, Note_on_c, 0, 53, 80
2, 62686, Note_on_c, 0, 60, 77
2, 62695, Note_on_c, 0, 68, 89
2, 62712, Note_on_c, 0, 53, 0
2, 62726, Note_on_c, 0, 60, 0
2, 62751, Note_on_c, 0, 53, 81
2, 62779, Note_on_c, 0, 53, 0
2, 62829, Note_on_c, 0, 53, 84
2, 62847, Note_on_c, 0, 67, 74
2, 62848, Note_on_c, 0, 68, 0
2, 62849, Note_on_c, 0, 53, 0
2, 62885, Note_on_c, 0, 53, 73
2, 62904, Note_on_c, 0, 48, 0
2, 62906, Note_on_c, 0, 53, 0
2, 62940, Note_on_c, 0, 50, 75
2, 62949, Note_on_c, 0, 67, 0
2, 62953, Note_on_c, 0, 65, 84
2, 62954, Note_on_c, 0, 58, 72
2, 62959, Note_on_c, 0, 53, 73
2, 62973, Note_on_c, 0, 50, 0
2, 62987, Note_on_c, 0, 65, 0
2, 62987, Note_on_c, 0, 58, 0
2, 62989, Note_on_c, 0, 53, 0
2, 63012, Note_on_c, 0, 70, 80
2, 63018, Note_on_c, 0, 53, 75
2, 63037, Note_on_c, 0, 53, 0
2, 63065, Note_on_c, 0, 59, 76
2, 63066, Note_on_c, 0, 70, 0
2, 63067, Note_on_c, 0, 49, 79
2, 63070, Note_on_c, 0, 53, 73
2, 63070, Note_on_c, 0, 68, 80
2, 63094, Note_on_c, 0, 49, 0
2, 63097, Note_on_c, 0, 68, 0
2, 63098, Note_on_c, 0, 53, 0
2, 63098, Note_on_c, 0, 59, 0
2, 63122, Note_on_c, 0, 65, 86
2, 63137, Note_on_c, 0, 53, 78
2, 63166, Note_on_c, 0, 53, 0
2, 63201, Note_on_c, 0, 68, 93
2, 63207, Note_on_c, 0, 48, 83
2, 63207, Note_on_c, 0, 53, 80
2, 63216, Note_on_c, 0, 60, 87
2, 63228, Note_on_c, 0, 53, 0
2, 63236, Note_on_c, 0, 65, 0
2, 63237, Note_on_c, 0, 48, 0
2, 63251, Note_on_c, 0, 60, 0
2, 63276, Note_on_c, 0, 53, 84
2, 63305, Note_on_c, 0, 53, 0
2, 63335, Note_on_c, 0, 53, 85
2, 63344, Note_on_c, 0, 67, 82
2, 63357, Note_on_c, 0, 68, 0
2, 63360, Note_on_c, 0, 53, 0
2, 63388, Note_on_c, 0, 67, 0
2, 63399, Note_on_c, 0, 53, 85
2, 63428, Note_on_c, 0, 53, 0
2, 63456, Note_on_c, 0, 53, 81
2, 63470, Note_on_c, 0, 68, 81
2, 63471, Note_on_c, 0, 56, 83
2, 63471, Note_on_c, 0, 61, 84
2, 63485, Note_on_c, 0, 53, 0
2, 63491, Note_on_c, 0, 56, 0
2, 63499, Note_on_c, 0, 68, 0
2, 63504, Note_on_c, 0, 61, 0
2, 63544, Note_on_c, 0, 56, 83
2, 63563, Note_on_c, 0, 56, 0
2, 63590, Note_on_c, 0, 52, 90
2, 63590, Note_on_c, 0, 62, 88
2, 63595, Note_on_c, 0, 56, 94
2, 63599, Note_on_c, 0, 70, 87
2, 63617, Note_on_c, 0, 52, 0
2, 63621, Note_on_c, 0, 62, 0
2, 63622, Note_on_c, 0, 56, 0
2, 63636, Note_on_c, 0, 70, 0
2, 63650, Note_on_c, 0, 56, 90
2, 63678, Note_on_c, 0, 56, 0
2, 63707, Note_on_c, 0, 51, 95
2, 63707, Note_on_c, 0, 56, 95
2, 63716, Note_on_c, 0, 63, 68
2, 63716, Note_on_c, 0, 71, 95
2, 63727, Note_on_c, 0, 56, 0
2, 63734, Note_on_c, 0, 51, 0
2, 63748, Note_on_c, 0, 63, 0
2, 63758, Note_on_c, 0, 56, 69
2, 63790, Note_on_c, 0, 56, 0
2, 63835, Note_on_c, 0, 56, 82
2, 63839, Note_on_c, 0, 71, 0
2, 63844, Note_on_c, 0, 70, 80
2, 63854, Note_on_c, 0, 56, 0
2, 63877, Note_on_c, 0, 70, 0
2, 63894, Note_on_c, 0, 56, 86
2, 63922, Note_on_c, 0, 56, 0
2, 63973, Note_on_c, 0, 56, 83
2, 63974, Note_on_c, 0, 61, 85
2, 63983, Note_on_c, 0, 53, 84
2, 63984, Note_on_c, 0, 68, 81
2, 63993, Note_on_c, 0, 56, 0
2, 64007, Note_on_c, 0, 61, 0
2, 64016, Note_on_c, 0, 53, 0
2, 64027, Note_on_c, 0, 56, 85
2, 64042, Note_on_c, 0, 73, 82
2, 64056, Note_on_c, 0, 56, 0
2, 64075, Note_on_c, 0, 52, 83
2, 64079, Note_on_c, 0, 56, 86
2, 64079, Note_on_c, 0, 62, 82
2, 64089, Note_on_c, 0, 73, 0
2, 64089, Note_on_c, 0, 68, 0
2, 64093, Note_on_c, 0, 71, 79
2, 64094, Note_on_c, 0, 52, 0
2, 64107, Note_on_c, 0, 56, 0
2, 64116, Note_on_c, 0, 62, 0
2, 64127, Note_on_c, 0, 71, 0
2, 64142, Note_on_c, 0, 56, 91
2, 64142, Note_on_c, 0, 68, 98
2, 64163, Note_on_c, 0, 56, 0
2, 64176, Note_on_c, 0, 68, 0
2, 64195, Note_on_c, 0, 51, 85
2, 64195, Note_on_c, 0, 56, 86
2, 64203, Note_on_c, 0, 63, 84
2, 64214, Note_on_c, 0, 71, 97
2, 64215, Note_on_c, 0, 56, 0
2, 64228, Note_on_c, 0, 51, 0
2, 64252, Note_on_c, 0, 63, 0
2, 64258, Note_on_c, 0, 56, 86
2, 64287, Note_on_c, 0, 56, 0
2, 64326, Note_on_c, 0, 56, 72
2, 64336, Note_on_c, 0, 71, 0
2, 64342, Note_on_c, 0, 70, 75
2, 64355, Note_on_c, 0, 56, 0
2, 64376, Note_on_c, 0, 70, 0
2, 64394, Note_on_c, 0, 56, 71
2, 64418, Note_on_c, 0, 56, 0
2, 64449, Note_on_c, 0, 59, 75
2, 64454, Note_on_c, 0, 64, 73
2, 64459, Note_on_c, 0, 56, 72
2, 64464, Note_on_c, 0, 71, 76
2, 64478, Note_on_c, 0, 59, 0
2, 64488, Note_on_c, 0, 64, 0
2, 64488, Note_on_c, 0, 56, 0
2, 64500, Note_on_c, 0, 71, 0
2, 64510, Note_on_c, 0, 59, 76
2, 64538, Note_on_c, 0, 59, 0
2, 64567, Note_on_c, 0, 65, 72
2, 64577, Note_on_c, 0, 55, 92
2, 64578, Note_on_c, 0, 59, 93
2, 64578, Note_on_c, 0, 73, 74
2, 64598, Note_on_c, 0, 59, 0
2, 64607, Note_on_c, 0, 65, 0
2, 64611, Note_on_c, 0, 55, 0
2, 64616, Note_on_c, 0, 73, 0
2, 64637, Note_on_c, 0, 59, 83
2, 64660, Note_on_c, 0, 59, 0
2, 64702, Note_on_c, 0, 59, 84
2, 64707, Note_on_c, 0, 54, 87
2, 64708, Note_on_c, 0, 66, 75
2, 64722, Note_on_c, 0, 74, 82
2, 64762, Note_on_c, 0, 54, 0
2, 64771, Note_on_c, 0, 74, 0
2, 64772, Note_on_c, 0, 66, 0
2, 64772, Note_on_c, 0, 59, 0
2, 64777, Note_on_c, 0, 73, 75
2, 64812, Note_on_c, 0, 73, 0
2, 64826, Note_on_c, 0, 74, 77
2, 64860, Note_on_c, 0, 74, 0
2, 64895, Note_on_c, 0, 73, 77
2, 64923, Note_on_c, 0, 73, 0
2, 64948, Note_on_c, 0, 76, 80
2, 64949, Note_on_c, 0, 59, 80
2, 64982, Note_on_c, 0, 59, 0
2, 65024, Note_on_c, 0, 76, 0
2, 65024, Note_on_c, 0, 74, 77
2, 65055, Note_on_c, 0, 74, 0
2, 65074, Note_on_c, 0, 76, 79
2, 65122, Note_on_c, 0, 76, 0
2, 65128, Note_on_c, 0, 74, 85
2, 65160, Note_on_c, 0, 74, 0
2, 65195, Note_on_c, 0, 62, 82
2, 65200, Note_on_c, 0, 66, 86
2, 65200, Note_on_c, 0, 71, 81
2, 65200, Note_on_c, 0, 78, 83
2, 65274, Note_on_c, 0, 78, 0
2, 65278, Note_on_c, 0, 66, 0
2, 65279, Note_on_c, 0, 62, 0
2, 65280, Note_on_c, 0, 71, 0
2, 65290, Note_on_c, 0, 76, 81
2, 65320, Note_on_c, 0, 76, 0
2, 65326, Note_on_c, 0, 78, 83
2, 65387, Note_on_c, 0, 78, 0
2, 65393, Note_on_c, 0, 76, 78
2, 65431, Note_on_c, 0, 76, 0
2, 65448, Note_on_c, 0, 66, 80
2, 65448, Note_on_c, 0, 71, 82
2, 65448, Note_on_c, 0, 74, 77
2, 65448, Note_on_c, 0, 79, 80
2, 65486, Note_on_c, 0, 79, 0
2, 65510, Note_on_c, 0, 66, 0
2, 65510, Note_on_c, 0, 71, 0
2, 65511, Note_on_c, 0, 74, 0
2, 65517, Note_on_c, 0, 78, 77
2, 65560, Note_on_c, 0, 78, 0
2, 65576, Note_on_c, 0, 79, 81
2, 65605, Note_on_c, 0, 79, 0
2, 65620, Note_on_c, 0, 78, 79
2, 65640, Note_on_c, 0, 78, 0
2, 65672, Note_on_c, 0, 71, 85
2, 65674, Note_on_c, 0, 78, 91
2, 65678, Note_on_c, 0, 74, 86
2, 65689, Note_on_c, 0, 83, 90
2, 65728, Note_on_c, 0, 83, 0
2, 65737, Note_on_c, 0, 74, 0
2, 65737, Note_on_c, 0, 71, 0
2, 65743, Note_on_c, 0, 78, 0
2, 65744, Note_on_c, 0, 82, 84
2, 65779, Note_on_c, 0, 82, 0
2, 65814, Note_on_c, 0, 78, 88
2, 65815, Note_on_c, 0, 74, 89
2, 65815, Note_on_c, 0, 85, 85
2, 65849, Note_on_c, 0, 74, 0
2, 65855, Note_on_c, 0, 85, 0
2, 65865, Note_on_c, 0, 78, 0
2, 65885, Note_on_c, 0, 83, 85
2, 65924, Note_on_c, 0, 83, 0
2, 65934, Note_on_c, 0, 86, 93
2, 65939, Note_on_c, 0, 78, 93
2, 65973, Note_on_c, 0, 86, 0
2, 65978, Note_on_c, 0, 78, 0
2, 66004, Note_on_c, 0, 85, 87
2, 66054, Note_on_c, 0, 85, 0
2, 66071, Note_on_c, 0, 83, 93
2, 66079, Note_on_c, 0, 88, 90
2, 66110, Note_on_c, 0, 83, 0
2, 66121, Note_on_c, 0, 88, 0
2, 66133, Note_on_c, 0, 86, 86
2, 66162, Note_on_c, 0, 86, 0
2, 66212, Note_on_c, 0, 86, 97
2, 66212, Note_on_c, 0, 90, 99
2, 66442, Control_c, 0, 64, 127
2, 66679, Note_on_c, 0, 35, 99
2, 66680, Note_on_c, 0, 31, 93
2, 66767, Note_on_c, 0, 90, 0
2, 66768, Note_on_c, 0, 86, 0
2, 66768, Note_on_c, 0, 85, 80
2, 66772, Note_on_c, 0, 88, 80
2, 66799, Note_on_c, 0, 88, 0
2, 66804, Note_on_c, 0, 85, 0
2, 66804, Control_c, 0, 64, 0
2, 66835, Note_on_c, 0, 83, 80
2, 66835, Note_on_c, 0, 86, 84
2, 66871, Note_on_c, 0, 83, 0
2, 66872, Note_on_c, 0, 86, 0
2, 66878, Note_on_c, 0, 85, 83
2, 66883, Note_on_c, 0, 81, 87
2, 66911, Note_on_c, 0, 81, 0
2, 66915, Note_on_c, 0, 85, 0
2, 66930, Note_on_c, 0, 79, 84
2, 66930, Note_on_c, 0, 83, 81
2, 66959, Note_on_c, 0, 79, 0
2, 66968, Note_on_c, 0, 83, 0
2, 66991, Note_on_c, 0, 78, 80
2, 67000, Note_on_c, 0, 81, 87
2, 67019, Note_on_c, 0, 81, 0
2, 67025, Note_on_c, 0, 78, 0
2, 67036, Note_on_c, 0, 76, 83
2, 67037, Note_on_c, 0, 79, 83
2, 67073, Note_on_c, 0, 79, 0
2, 67073, Note_on_c, 0, 76, 0
2, 67103, Note_on_c, 0, 74, 97
2, 67103, Note_on_c, 0, 78, 95
2, 67130, Note_on_c, 0, 78, 0
2, 67136, Note_on_c, 0, 74, 0
2, 67144, Note_on_c, 0, 35, 0
2, 67145, Note_on_c, 0, 31, 0
2, 67151, Note_on_c, 0, 33, 92
2, 67155, Note_on_c, 0, 37, 92
2, 67156, Note_on_c, 0, 73, 94
2, 67160, Note_on_c, 0, 76, 95
2, 67189, Control_c, 0, 64, 127
2, 67294, Note_on_c, 0, 57, 93
2, 67296, Note_on_c, 0, 69, 91
2, 67316, Note_on_c, 0, 57, 0
2, 67322, Note_on_c, 0, 69, 0
2, 67371, Note_on_c, 0, 57, 88
2, 67372, Note_on_c, 0, 69, 87
2, 67399, Note_on_c, 0, 69, 0
2, 67399, Note_on_c, 0, 57, 0
2, 67440, Note_on_c, 0, 57, 98
2, 67440, Note_on_c, 0, 69, 96
2, 67511, Note_on_c, 0, 57, 0
2, 67512, Note_on_c, 0, 69, 0
2, 67538, Control_c, 0, 64, 0
2, 67560, Note_on_c, 0, 57, 82
2, 67566, Note_on_c, 0, 69, 88
2, 67679, Note_on_c, 0, 37, 0
2, 67680, Note_on_c, 0, 33, 0
2, 67690, Note_on_c, 0, 57, 0
2, 67692, Note_on_c, 0, 69, 0
2, 67692, Note_on_c, 0, 54, 80
2, 67693, Note_on_c, 0, 38, 84
2, 67693, Note_on_c, 0, 66, 93
2, 67698, Note_on_c, 0, 35, 86
2, 67726, Note_on_c, 0, 73, 0
2, 67731, Note_on_c, 0, 76, 0
2, 67775, Note_on_c, 0, 66, 0
2, 67779, Note_on_c, 0, 76, 75
2, 67788, Note_on_c, 0, 54, 0
2, 67789, Note_on_c, 0, 73, 77
2, 67809, Note_on_c, 0, 73, 0
2, 67818, Note_on_c, 0, 76, 0
2, 67832, Note_on_c, 0, 71, 80
2, 67838, Note_on_c, 0, 54, 86
2, 67838, Note_on_c, 0, 74, 87
2, 67866, Note_on_c, 0, 74, 0
2, 67872, Note_on_c, 0, 71, 0
2, 67899, Note_on_c, 0, 73, 87
2, 67900, Note_on_c, 0, 69, 80
2, 67934, Note_on_c, 0, 73, 0
2, 67938, Note_on_c, 0, 69, 0
2, 67949, Note_on_c, 0, 67, 87
2, 67949, Note_on_c, 0, 71, 81
2, 67978, Note_on_c, 0, 67, 0
2, 67979, Note_on_c, 0, 71, 0
2, 67998, Note_on_c, 0, 66, 75
2, 68002, Note_on_c, 0, 69, 74
2, 68040, Note_on_c, 0, 69, 0
2, 68040, Note_on_c, 0, 66, 0
2, 68079, Note_on_c, 0, 67, 79
2, 68080, Note_on_c, 0, 64, 74
2, 68110, Note_on_c, 0, 67, 0
2, 68112, Note_on_c, 0, 64, 0
2, 68137, Note_on_c, 0, 62, 81
2, 68141, Note_on_c, 0, 66, 81
2, 68168, Note_on_c, 0, 62, 0
2, 68174, Note_on_c, 0, 66, 0
2, 68194, Note_on_c, 0, 35, 0
2, 68195, Note_on_c, 0, 54, 0
2, 68201, Note_on_c, 0, 38, 0
2, 68207, Note_on_c, 0, 40, 82
2, 68207, Note_on_c, 0, 61, 82
2, 68208, Note_on_c, 0, 37, 86
2, 68211, Note_on_c, 0, 64, 86
2, 68253, Control_c, 0, 64, 127
2, 68321, Note_on_c, 0, 45, 83
2, 68321, Note_on_c, 0, 57, 84
2, 68341, Note_on_c, 0, 45, 0
2, 68345, Note_on_c, 0, 57, 0
2, 68386, Note_on_c, 0, 45, 82
2, 68387, Note_on_c, 0, 57, 80
2, 68406, Note_on_c, 0, 45, 0
2, 68414, Note_on_c, 0, 57, 0
2, 68439, Note_on_c, 0, 45, 95
2, 68444, Note_on_c, 0, 64, 0
2, 68444, Note_on_c, 0, 61, 0
2, 68449, Note_on_c, 0, 57, 97
2, 68521, Note_on_c, 0, 45, 0
2, 68526, Note_on_c, 0, 57, 0
2, 68537, Control_c, 0, 64, 0
2, 68579, Note_on_c, 0, 45, 81
2, 68584, Note_on_c, 0, 57, 81
2, 68698, Note_on_c, 0, 45, 0
2, 68703, Note_on_c, 0, 37, 0
2, 68713, Note_on_c, 0, 40, 0
2, 68715, Note_on_c, 0, 38, 81
2, 68719, Note_on_c, 0, 57, 0
2, 68719, Note_on_c, 0, 54, 76
2, 68720, Note_on_c, 0, 42, 80
2, 68749, Note_on_c, 0, 54, 0
2, 68774, Note_on_c, 0, 61, 59
2, 68774, Note_on_c, 0, 64, 57
2, 68808, Note_on_c, 0, 64, 0
2, 68808, Note_on_c, 0, 61, 0
2, 68842, Note_on_c, 0, 59, 70
2, 68847, Note_on_c, 0, 62, 74
2, 68880, Note_on_c, 0, 62, 0
2, 68880, Note_on_c, 0, 59, 0
2, 68900, Note_on_c, 0, 57, 72
2, 68905, Note_on_c, 0, 61, 69
2, 68939, Note_on_c, 0, 61, 0
2, 68939, Note_on_c, 0, 57, 0
2, 68958, Note_on_c, 0, 55, 75
2, 68959, Note_on_c, 0, 59, 68
2, 68990, Note_on_c, 0, 59, 0
2, 68999, Note_on_c, 0, 55, 0
2, 69018, Note_on_c, 0, 57, 73
2, 69019, Note_on_c, 0, 54, 70
2, 69046, Note_on_c, 0, 54, 0
2, 69046, Note_on_c, 0, 57, 0
2, 69081, Note_on_c, 0, 52, 72
2, 69081, Note_on_c, 0, 55, 71
2, 69109, Note_on_c, 0, 52, 0
2, 69120, Note_on_c, 0, 55, 0
2, 69140, Note_on_c, 0, 50, 74
2, 69140, Note_on_c, 0, 54, 74
2, 69166, Note_on_c, 0, 54, 0
2, 69166, Note_on_c, 0, 50, 0
2, 69200, Note_on_c, 0, 38, 0
2, 69204, Note_on_c, 0, 42, 0
2, 69209, Note_on_c, 0, 49, 77
2, 69210, Note_on_c, 0, 37, 81
2, 69211, Note_on_c, 0, 40, 57
2, 69215, Note_on_c, 0, 52, 61
2, 69276, Control_c, 0, 64, 127
2, 69393, Note_on_c, 0, 45, 73
2, 69395, Note_on_c, 0, 33, 73
2, 69414, Note_on_c, 0, 33, 0
2, 69416, Note_on_c, 0, 45, 0
2, 69455, Note_on_c, 0, 33, 80
2, 69458, Note_on_c, 0, 45, 75
2, 69512, Control_c, 0, 64, 0
2, 69549, Note_on_c, 0, 33, 0
2, 69558, Note_on_c, 0, 45, 0
2, 69600, Note_on_c, 0, 52, 0
2, 69600, Note_on_c, 0, 49, 0
2, 69600, Note_on_c, 0, 45, 74
2, 69602, Note_on_c, 0, 33, 68
2, 69723, Note_on_c, 0, 45, 0
2, 69724, Note_on_c, 0, 33, 0
2, 69724, Note_on_c, 0, 37, 0
2, 69728, Note_on_c, 0, 40, 0
2, 69730, Note_on_c, 0, 30, 68
2, 69734, Note_on_c, 0, 42, 73
2, 69806, Note_on_c, 0, 50, 66
2, 69857, Note_on_c, 0, 45, 66
2, 69862, Note_on_c, 0, 49, 68
2, 69877, Note_on_c, 0, 50, 0
2, 69925, Note_on_c, 0, 50, 63
2, 69934, Note_on_c, 0, 49, 0
2, 69938, Note_on_c, 0, 45, 0
2, 69991, Note_on_c, 0, 45, 68
2, 69991, Note_on_c, 0, 49, 64
2, 70014, Note_on_c, 0, 50, 0
2, 70065, Note_on_c, 0, 50, 68
2, 70074, Note_on_c, 0, 45, 0
2, 70075, Note_on_c, 0, 49, 0
2, 70127, Note_on_c, 0, 45, 64
2, 70127, Note_on_c, 0, 49, 66
2, 70140, Note_on_c, 0, 50, 0
2, 70158, Control_c, 0, 67, 127
2, 70195, Control_c, 0, 67, 0
2, 70200, Note_on_c, 0, 50, 66
2, 70204, Note_on_c, 0, 45, 0
2, 70221, Note_on_c, 0, 49, 0
2, 70227, Control_c, 0, 67, 127
2, 70254, Note_on_c, 0, 30, 0
2, 70254, Note_on_c, 0, 42, 0
2, 70259, Note_on_c, 0, 45, 76
2, 70269, Note_on_c, 0, 49, 75
2, 70270, Note_on_c, 0, 50, 0
2, 70297, Note_on_c, 0, 45, 0
2, 70308, Note_on_c, 0, 49, 0
2, 70406, Note_on_c, 0, 43, 72
2, 70406, Note_on_c, 0, 52, 75
2, 70406, Note_on_c, 0, 58, 71
2, 70410, Note_on_c, 0, 61, 71
2, 70438, Note_on_c, 0, 52, 0
2, 70439, Note_on_c, 0, 61, 0
2, 70443, Note_on_c, 0, 58, 0
2, 70484, Note_on_c, 0, 52, 71
2, 70484, Note_on_c, 0, 58, 69
2, 70484, Note_on_c, 0, 61, 76
2, 70512, Note_on_c, 0, 61, 0
2, 70512, Note_on_c, 0, 43, 0
2, 70512, Note_on_c, 0, 52, 0
2, 70518, Note_on_c, 0, 58, 0
2, 70529, Note_on_c, 0, 42, 71
2, 70542, Note_on_c, 0, 59, 72
2, 70542, Note_on_c, 0, 62, 74
2, 70543, Note_on_c, 0, 54, 71
2, 70567, Note_on_c, 0, 62, 0
2, 70571, Note_on_c, 0, 54, 0
2, 70574, Note_on_c, 0, 59, 0
2, 70656, Note_on_c, 0, 42, 0
2, 70659, Note_on_c, 0, 40, 71
2, 70663, Note_on_c, 0, 52, 71
2, 70667, Note_on_c, 0, 55, 77
2, 70668, Note_on_c, 0, 58, 70
2, 70668, Note_on_c, 0, 61, 72
2, 70695, Note_on_c, 0, 61, 0
2, 70695, Note_on_c, 0, 52, 0
2, 70700, Note_on_c, 0, 58, 0
2, 70704, Note_on_c, 0, 55, 0
2, 70800, Note_on_c, 0, 40, 0
2, 70807, Note_on_c, 0, 38, 74
2, 70810, Note_on_c, 0, 54, 78
2, 70810, Note_on_c, 0, 66, 77
2, 70811, Note_on_c, 0, 59, 77
2, 70820, Note_on_c, 0, 50, 71
2, 70841, Note_on_c, 0, 54, 0
2, 70842, Note_on_c, 0, 66, 0
2, 70844, Note_on_c, 0, 59, 0
2, 70850, Note_on_c, 0, 50, 0
2, 70919, Note_on_c, 0, 38, 0
2, 70946, Note_on_c, 0, 37, 73
2, 70946, Note_on_c, 0, 49, 79
2, 70946, Note_on_c, 0, 52, 74
2, 70946, Note_on_c, 0, 57, 72
2, 70952, Note_on_c, 0, 69, 74
2, 70967, Note_on_c, 0, 52, 0
2, 70975, Note_on_c, 0, 57, 0
2, 70981, Note_on_c, 0, 69, 0
2, 71025, Note_on_c, 0, 57, 73
2, 71025, Note_on_c, 0, 69, 75
2, 71026, Note_on_c, 0, 52, 79
2, 71054, Note_on_c, 0, 57, 0
2, 71055, Note_on_c, 0, 52, 0
2, 71062, Note_on_c, 0, 37, 0
2, 71069, Note_on_c, 0, 35, 79
2, 71078, Note_on_c, 0, 49, 0
2, 71079, Note_on_c, 0, 62, 74
2, 71084, Note_on_c, 0, 69, 0
2, 71084, Note_on_c, 0, 47, 74
2, 71084, Note_on_c, 0, 54, 78
2, 71088, Note_on_c, 0, 74, 79
2, 71099, Note_on_c, 0, 66, 77
2, 71112, Note_on_c, 0, 62, 0
2, 71119, Note_on_c, 0, 74, 0
2, 71119, Note_on_c, 0, 54, 0
2, 71139, Note_on_c, 0, 66, 0
2, 71208, Note_on_c, 0, 35, 0
2, 71210, Note_on_c, 0, 33, 76
2, 71219, Note_on_c, 0, 47, 0
2, 71224, Note_on_c, 0, 45, 79
2, 71224, Note_on_c, 0, 49, 78
2, 71224, Note_on_c, 0, 54, 77
2, 71224, Note_on_c, 0, 66, 72
2, 71225, Note_on_c, 0, 61, 75
2, 71245, Note_on_c, 0, 49, 0
2, 71253, Note_on_c, 0, 61, 0
2, 71256, Note_on_c, 0, 54, 0
2, 71263, Note_on_c, 0, 66, 0
2, 71328, Note_on_c, 0, 45, 0
2, 71338, Note_on_c, 0, 33, 0
2, 71344, Note_on_c, 0, 31, 75
2, 71349, Note_on_c, 0, 43, 77
2, 71349, Note_on_c, 0, 50, 73
2, 71349, Note_on_c, 0, 59, 73
2, 71352, Note_on_c, 0, 71, 80
2, 71380, Note_on_c, 0, 71, 0
2, 71381, Note_on_c, 0, 50, 0
2, 71383, Note_on_c, 0, 59, 0
2, 71465, Note_on_c, 0, 43, 0
2, 71479, Note_on_c, 0, 31, 0
2, 71480, Note_on_c, 0, 30, 75
2, 71483, Note_on_c, 0, 62, 77
2, 71484, Note_on_c, 0, 45, 76
2, 71484, Note_on_c, 0, 50, 77
2, 71489, Note_on_c, 0, 57, 71
2, 71490, Note_on_c, 0, 42, 72
2, 71517, Note_on_c, 0, 45, 0
2, 71518, Note_on_c, 0, 57, 0
2, 71522, Note_on_c, 0, 50, 0
2, 71522, Note_on_c, 0, 62, 0
2, 71571, Note_on_c, 0, 62, 68
2, 71593, Note_on_c, 0, 42, 0
2, 71613, Note_on_c, 0, 62, 0
2, 71614, Note_on_c, 0, 30, 0
2, 71616, Note_on_c, 0, 28, 62
2, 71620, Note_on_c, 0, 40, 68
2, 71622, Note_on_c, 0, 67, 67
2, 71623, Note_on_c, 0, 59, 69
2, 71633, Note_on_c, 0, 47, 65
2, 71633, Note_on_c, 0, 55, 69
2, 71656, Note_on_c, 0, 59, 0
2, 71662, Note_on_c, 0, 47, 0
2, 71662, Note_on_c, 0, 67, 0
2, 71666, Note_on_c, 0, 55, 0
2, 71688, Note_on_c, 0, 28, 0
2, 71698, Note_on_c, 0, 40, 0
2, 71739, Note_on_c, 0, 28, 67
2, 71759, Note_on_c, 0, 40, 62
2, 71766, Note_on_c, 0, 57, 63
2, 71767, Note_on_c, 0, 49, 62
2, 71767, Note_on_c, 0, 52, 68
2, 71794, Note_on_c, 0, 49, 0
2, 71800, Note_on_c, 0, 57, 0
2, 71800, Note_on_c, 0, 52, 0
2, 71880, Note_on_c, 0, 28, 0
2, 71885, Note_on_c, 0, 26, 77
2, 71913, Note_on_c, 0, 40, 0
2, 71919, Note_on_c, 0, 38, 58
2, 71967, Note_on_c, 0, 53, 56
2, 71967, Note_on_c, 0, 59, 58
2, 72032, Note_on_c, 0, 57, 63
2, 72033, Note_on_c, 0, 54, 65
2, 72062, Note_on_c, 0, 53, 0
2, 72070, Note_on_c, 0, 59, 0
2, 72118, Note_on_c, 0, 53, 65
2, 72118, Note_on_c, 0, 59, 68
2, 72126, Note_on_c, 0, 54, 0
2, 72127, Note_on_c, 0, 57, 0
2, 72178, Note_on_c, 0, 57, 66
2, 72179, Note_on_c, 0, 54, 67
2, 72182, Note_on_c, 0, 53, 0
2, 72188, Note_on_c, 0, 59, 0
2, 72236, Note_on_c, 0, 53, 66
2, 72236, Note_on_c, 0, 59, 62
2, 72241, Note_on_c, 0, 54, 0
2, 72254, Note_on_c, 0, 57, 0
2, 72297, Note_on_c, 0, 54, 65
2, 72303, Note_on_c, 0, 57, 65
2, 72308, Note_on_c, 0, 53, 0
2, 72316, Note_on_c, 0, 59, 0
2, 72362, Note_on_c, 0, 53, 68
2, 72362, Note_on_c, 0, 59, 64
2, 72370, Note_on_c, 0, 54, 0
2, 72383, Note_on_c, 0, 57, 0
2, 72419, Note_on_c, 0, 26, 0
2, 72424, Note_on_c, 0, 53, 0
2, 72424, Note_on_c, 0, 59, 0
2, 72425, Note_on_c, 0, 38, 0
2, 72430, Note_on_c, 0, 54, 70
2, 72430, Note_on_c, 0, 57, 66
2, 72461, Note_on_c, 0, 57, 0
2, 72461, Note_on_c, 0, 54, 0
2, 72556, Note_on_c, 0, 56, 79
2, 72557, Note_on_c, 0, 54, 78
2, 72561, Note_on_c, 0, 78, 74
2, 72576, Note_on_c, 0, 90, 73
2, 72577, Note_on_c, 0, 54, 0
2, 72577, Note_on_c, 0, 56, 0
2, 72624, Note_on_c, 0, 56, 74
2, 72625, Note_on_c, 0, 54, 79
2, 72645, Note_on_c, 0, 54, 0
2, 72656, Note_on_c, 0, 56, 0
2, 72686, Note_on_c, 0, 88, 72
2, 72688, Note_on_c, 0, 54, 79
2, 72692, Note_on_c, 0, 57, 73
2, 72692, Note_on_c, 0, 76, 76
2, 72693, Note_on_c, 0, 78, 0
2, 72697, Note_on_c, 0, 90, 0
2, 72719, Note_on_c, 0, 54, 0
2, 72724, Note_on_c, 0, 57, 0
2, 72802, Note_on_c, 0, 76, 0
2, 72803, Note_on_c, 0, 88, 0
2, 72803, Note_on_c, 0, 47, 80
2, 72807, Note_on_c, 0, 54, 77
2, 72808, Note_on_c, 0, 62, 73
2, 72813, Note_on_c, 0, 59, 77
2, 72821, Note_on_c, 0, 74, 78
2, 72821, Note_on_c, 0, 86, 76
2, 72840, Note_on_c, 0, 59, 0
2, 72840, Note_on_c, 0, 47, 0
2, 72841, Note_on_c, 0, 54, 0
2, 72940, Note_on_c, 0, 62, 0
2, 72942, Note_on_c, 0, 61, 84
2, 72943, Note_on_c, 0, 45, 86
2, 72943, Note_on_c, 0, 54, 84
2, 72948, Note_on_c, 0, 74, 0
2, 72952, Note_on_c, 0, 85, 76
2, 72953, Note_on_c, 0, 86, 0
2, 72958, Note_on_c, 0, 73, 75
2, 72972, Note_on_c, 0, 61, 0
2, 72974, Note_on_c, 0, 54, 0
2, 72977, Note_on_c, 0, 45, 0
2, 73086, Note_on_c, 0, 62, 72
2, 73087, Note_on_c, 0, 54, 71
2, 73090, Note_on_c, 0, 71, 62
2, 73091, Note_on_c, 0, 83, 63
2, 73096, Note_on_c, 0, 73, 0
2, 73101, Note_on_c, 0, 85, 0
2, 73116, Note_on_c, 0, 54, 0
2, 73126, Note_on_c, 0, 62, 0
2, 73159, Note_on_c, 0, 62, 68
2, 73164, Note_on_c, 0, 54, 73
2, 73186, Note_on_c, 0, 54, 0
2, 73202, Note_on_c, 0, 62, 0
2, 73223, Note_on_c, 0, 49, 71
2, 73226, Note_on_c, 0, 71, 0
2, 73227, Note_on_c, 0, 66, 67
2, 73231, Note_on_c, 0, 61, 65
2, 73231, Note_on_c, 0, 69, 68
2, 73236, Note_on_c, 0, 81, 67
2, 73251, Note_on_c, 0, 49, 0
2, 73260, Note_on_c, 0, 61, 0
2, 73279, Note_on_c, 0, 83, 0
2, 73358, Note_on_c, 0, 66, 0
2, 73363, Note_on_c, 0, 69, 0
2, 73363, Note_on_c, 0, 59, 69
2, 73364, Note_on_c, 0, 50, 72
2, 73368, Note_on_c, 0, 68, 67
2, 73378, Note_on_c, 0, 80, 64
2, 73393, Note_on_c, 0, 50, 0
2, 73393, Note_on_c, 0, 59, 0
2, 73427, Note_on_c, 0, 81, 0
2, 73502, Note_on_c, 0, 45, 81
2, 73506, Note_on_c, 0, 68, 0
2, 73506, Note_on_c, 0, 66, 73
2, 73510, Note_on_c, 0, 57, 77
2, 73510, Note_on_c, 0, 78, 70
2, 73511, Note_on_c, 0, 61, 80
2, 73535, Note_on_c, 0, 45, 0
2, 73539, Note_on_c, 0, 57, 0
2, 73539, Note_on_c, 0, 61, 0
2, 73563, Note_on_c, 0, 80, 0
2, 73588, Note_on_c, 0, 66, 0
2, 73594, Note_on_c, 0, 78, 0
2, 73629, Note_on_c, 0, 64, 69
2, 73633, Note_on_c, 0, 76, 64
2, 73634, Note_on_c, 0, 47, 70
2, 73643, Note_on_c, 0, 56, 71
2, 73657, Note_on_c, 0, 47, 0
2, 73664, Note_on_c, 0, 56, 0
2, 73704, Note_on_c, 0, 47, 74
2, 73704, Note_on_c, 0, 56, 71
2, 73734, Note_on_c, 0, 56, 0
2, 73739, Note_on_c, 0, 47, 0
2, 73771, Note_on_c, 0, 42, 72
2, 73779, Note_on_c, 0, 57, 70
2, 73779, Note_on_c, 0, 62, 72
2, 73780, Note_on_c, 0, 54, 68
2, 73784, Note_on_c, 0, 74, 69
2, 73797, Note_on_c, 0, 42, 0
2, 73807, Note_on_c, 0, 57, 0
2, 73808, Note_on_c, 0, 54, 0
2, 73819, Note_on_c, 0, 64, 0
2, 73824, Note_on_c, 0, 76, 0
2, 73896, Note_on_c, 0, 41, 69
2, 73903, Note_on_c, 0, 62, 0
2, 73904, Note_on_c, 0, 53, 76
2, 73904, Note_on_c, 0, 56, 76
2, 73904, Note_on_c, 0, 59, 75
2, 73904, Note_on_c, 0, 61, 76
2, 73905, Note_on_c, 0, 74, 0
2, 73910, Note_on_c, 0, 73, 69
2, 73924, Note_on_c, 0, 41, 0
2, 73933, Note_on_c, 0, 61, 0
2, 73934, Note_on_c, 0, 53, 0
2, 73934, Note_on_c, 0, 56, 0
2, 73942, Note_on_c, 0, 59, 0
2, 73944, Note_on_c, 0, 73, 0
2, 74058, Note_on_c, 0, 42, 69
2, 74065, Note_on_c, 0, 57, 73
2, 74066, Note_on_c, 0, 54, 69
2, 74071, Note_on_c, 0, 85, 62
2, 74072, Note_on_c, 0, 73, 64
2, 74125, Note_on_c, 0, 54, 0
2, 74127, Note_on_c, 0, 74, 58
2, 74131, Note_on_c, 0, 73, 0
2, 74131, Note_on_c, 0, 56, 67
2, 74131, Note_on_c, 0, 59, 66
2, 74135, Note_on_c, 0, 57, 0
2, 74136, Note_on_c, 0, 86, 59
2, 74147, Note_on_c, 0, 85, 0
2, 74180, Note_on_c, 0, 57, 64
2, 74180, Note_on_c, 0, 73, 69
2, 74181, Note_on_c, 0, 54, 64
2, 74191, Note_on_c, 0, 42, 0
2, 74205, Note_on_c, 0, 74, 0
2, 74205, Note_on_c, 0, 85, 64
2, 74214, Note_on_c, 0, 56, 0
2, 74219, Note_on_c, 0, 59, 0
2, 74220, Note_on_c, 0, 86, 0
2, 74246, Note_on_c, 0, 42, 66
2, 74255, Note_on_c, 0, 56, 69
2, 74255, Note_on_c, 0, 59, 65
2, 74260, Note_on_c, 0, 74, 60
2, 74265, Note_on_c, 0, 73, 0
2, 74268, Note_on_c, 0, 54, 0
2, 74270, Note_on_c, 0, 86, 56
2, 74274, Note_on_c, 0, 57, 0
2, 74283, Note_on_c, 0, 85, 0
2, 74304, Note_on_c, 0, 42, 0
2, 74320, Note_on_c, 0, 73, 70
2, 74329, Note_on_c, 0, 54, 62
2, 74329, Note_on_c, 0, 57, 69
2, 74334, Note_on_c, 0, 59, 0
2, 74334, Note_on_c, 0, 74, 0
2, 74334, Note_on_c, 0, 56, 0
2, 74335, Note_on_c, 0, 85, 70
2, 74349, Note_on_c, 0, 86, 0
2, 74371, Note_on_c, 0, 42, 67
2, 74384, Note_on_c, 0, 54, 0
2, 74384, Note_on_c, 0, 56, 63
2, 74385, Note_on_c, 0, 59, 62
2, 74390, Note_on_c, 0, 74, 65
2, 74400, Note_on_c, 0, 57, 0
2, 74405, Note_on_c, 0, 73, 0
2, 74420, Note_on_c, 0, 85, 0
2, 74421, Note_on_c, 0, 86, 68
2, 74435, Note_on_c, 0, 54, 67
2, 74455, Note_on_c, 0, 42, 0
2, 74455, Note_on_c, 0, 57, 62
2, 74456, Note_on_c, 0, 73, 63
2, 74461, Note_on_c, 0, 59, 0
2, 74466, Note_on_c, 0, 56, 0
2, 74466, Note_on_c, 0, 74, 0
2, 74471, Note_on_c, 0, 85, 63
2, 74476, Note_on_c, 0, 86, 0
2, 74510, Note_on_c, 0, 56, 67
2, 74510, Note_on_c, 0, 59, 69
2, 74512, Note_on_c, 0, 42, 66
2, 74520, Note_on_c, 0, 54, 0
2, 74520, Note_on_c, 0, 74, 65
2, 74530, Note_on_c, 0, 57, 0
2, 74530, Note_on_c, 0, 86, 68
2, 74531, Note_on_c, 0, 73, 0
2, 74545, Note_on_c, 0, 85, 0
2, 74569, Note_on_c, 0, 42, 0
2, 74571, Note_on_c, 0, 56, 0
2, 74577, Note_on_c, 0, 59, 0
2, 74580, Note_on_c, 0, 54, 81
2, 74580, Note_on_c, 0, 57, 77
2, 74584, Note_on_c, 0, 74, 0
2, 74585, Note_on_c, 0, 73, 77
2, 74599, Note_on_c, 0, 86, 0
2, 74599, Note_on_c, 0, 85, 79
2, 74600, Note_on_c, 0, 54, 0
2, 74609, Note_on_c, 0, 73, 0
2, 74614, Note_on_c, 0, 57, 0
2, 74634, Note_on_c, 0, 85, 0
2, 74648, Control_c, 0, 67, 0
2, 74712, Note_on_c, 0, 59, 78
2, 74716, Note_on_c, 0, 65, 68
2, 74722, Note_on_c, 0, 50, 79
2, 74722, Note_on_c, 0, 68, 75
2, 74750, Note_on_c, 0, 68, 0
2, 74750, Note_on_c, 0, 59, 0
2, 74750, Note_on_c, 0, 65, 0
2, 74789, Note_on_c, 0, 59, 78
2, 74790, Note_on_c, 0, 65, 71
2, 74795, Note_on_c, 0, 68, 69
2, 74824, Note_on_c, 0, 68, 0
2, 74828, Note_on_c, 0, 65, 0
2, 74828, Note_on_c, 0, 59, 0
2, 74850, Note_on_c, 0, 49, 79
2, 74854, Note_on_c, 0, 50, 0
2, 74859, Note_on_c, 0, 61, 78
2, 74859, Note_on_c, 0, 66, 77
2, 74863, Note_on_c, 0, 69, 78
2, 74889, Note_on_c, 0, 61, 0
2, 74894, Note_on_c, 0, 69, 0
2, 74894, Note_on_c, 0, 66, 0
2, 74975, Note_on_c, 0, 49, 0
2, 74994, Note_on_c, 0, 59, 81
2, 74995, Note_on_c, 0, 47, 77
2, 74998, Note_on_c, 0, 62, 77
2, 74998, Note_on_c, 0, 65, 75
2, 74998, Note_on_c, 0, 68, 81
2, 75027, Note_on_c, 0, 62, 0
2, 75030, Note_on_c, 0, 65, 0
2, 75030, Note_on_c, 0, 68, 0
2, 75115, Note_on_c, 0, 47, 0
2, 75116, Note_on_c, 0, 45, 82
2, 75131, Note_on_c, 0, 57, 77
2, 75131, Note_on_c, 0, 61, 76
2, 75141, Note_on_c, 0, 66, 75
2, 75163, Note_on_c, 0, 61, 0
2, 75175, Note_on_c, 0, 66, 0
2, 75214, Note_on_c, 0, 59, 0
2, 75239, Note_on_c, 0, 45, 0
2, 75250, Note_on_c, 0, 57, 0
2, 75255, Note_on_c, 0, 59, 63
2, 75256, Note_on_c, 0, 44, 66
2, 75256, Note_on_c, 0, 56, 63
2, 75256, Note_on_c, 0, 64, 67
2, 75260, Note_on_c, 0, 71, 72
2, 75260, Note_on_c, 0, 76, 69
2, 75283, Note_on_c, 0, 71, 0
2, 75289, Note_on_c, 0, 64, 0
2, 75294, Note_on_c, 0, 59, 0
2, 75294, Note_on_c, 0, 76, 0
2, 75324, Note_on_c, 0, 59, 62
2, 75324, Note_on_c, 0, 64, 63
2, 75334, Note_on_c, 0, 71, 69
2, 75334, Note_on_c, 0, 76, 71
2, 75376, Note_on_c, 0, 44, 0
2, 75381, Note_on_c, 0, 56, 0
2, 75390, Note_on_c, 0, 54, 65
2, 75391, Note_on_c, 0, 42, 64
2, 75395, Note_on_c, 0, 59, 0
2, 75399, Note_on_c, 0, 71, 0
2, 75399, Note_on_c, 0, 73, 71
2, 75400, Note_on_c, 0, 64, 0
2, 75400, Note_on_c, 0, 61, 63
2, 75400, Note_on_c, 0, 69, 69
2, 75404, Note_on_c, 0, 76, 0
2, 75408, Note_on_c, 0, 81, 73
2, 75428, Note_on_c, 0, 61, 0
2, 75432, Note_on_c, 0, 69, 0
2, 75432, Note_on_c, 0, 73, 0
2, 75432, Note_on_c, 0, 81, 0
2, 75503, Note_on_c, 0, 42, 0
2, 75508, Note_on_c, 0, 40, 68
2, 75512, Note_on_c, 0, 54, 0
2, 75522, Note_on_c, 0, 52, 63
2, 75522, Note_on_c, 0, 56, 67
2, 75522, Note_on_c, 0, 61, 67
2, 75535, Note_on_c, 0, 73, 75
2, 75536, Note_on_c, 0, 68, 74
2, 75559, Note_on_c, 0, 61, 0
2, 75560, Note_on_c, 0, 56, 0
2, 75570, Note_on_c, 0, 73, 0
2, 75570, Note_on_c, 0, 68, 0
2, 75624, Note_on_c, 0, 52, 0
2, 75627, Note_on_c, 0, 40, 0
2, 75636, Note_on_c, 0, 38, 69
2, 75644, Note_on_c, 0, 57, 69
2, 75645, Note_on_c, 0, 50, 68
2, 75649, Note_on_c, 0, 69, 72
2, 75649, Note_on_c, 0, 78, 71
2, 75677, Note_on_c, 0, 57, 0
2, 75683, Note_on_c, 0, 69, 0
2, 75688, Note_on_c, 0, 78, 0
2, 75737, Note_on_c, 0, 38, 0
2, 75750, Note_on_c, 0, 50, 0
2, 75756, Note_on_c, 0, 49, 66
2, 75757, Note_on_c, 0, 37, 66
2, 75765, Note_on_c, 0, 57, 69
2, 75766, Note_on_c, 0, 52, 65
2, 75770, Note_on_c, 0, 64, 63
2, 75775, Note_on_c, 0, 69, 75
2, 75798, Note_on_c, 0, 52, 0
2, 75799, Note_on_c, 0, 69, 0
2, 75803, Note_on_c, 0, 57, 0
2, 75804, Note_on_c, 0, 64, 0
2, 75839, Note_on_c, 0, 69, 74
2, 75858, Note_on_c, 0, 37, 0
2, 75874, Note_on_c, 0, 69, 0
2, 75877, Note_on_c, 0, 49, 0
2, 75884, Note_on_c, 0, 47, 62
2, 75889, Note_on_c, 0, 35, 63
2, 75892, Note_on_c, 0, 54, 62
2, 75892, Note_on_c, 0, 62, 63
2, 75892, Note_on_c, 0, 66, 71
2, 75898, Note_on_c, 0, 74, 73
2, 75920, Note_on_c, 0, 54, 0
2, 75925, Note_on_c, 0, 62, 0
2, 75927, Note_on_c, 0, 66, 0
2, 75932, Note_on_c, 0, 74, 0
2, 75971, Note_on_c, 0, 35, 0
2, 75981, Note_on_c, 0, 47, 0
2, 76022, Note_on_c, 0, 35, 64
2, 76026, Note_on_c, 0, 52, 64
2, 76026, Note_on_c, 0, 56, 66
2, 76027, Note_on_c, 0, 64, 69
2, 76031, Note_on_c, 0, 47, 69
2, 76056, Note_on_c, 0, 56, 0
2, 76059, Note_on_c, 0, 52, 0
2, 76065, Note_on_c, 0, 64, 0
2, 76119, Control_c, 0, 67, 127
2, 76141, Note_on_c, 0, 47, 0
2, 76142, Note_on_c, 0, 35, 0
2, 76147, Note_on_c, 0, 45, 58
2, 76149, Note_on_c, 0, 33, 58
2, 76204, Note_on_c, 0, 66, 69
2, 76209, Note_on_c, 0, 60, 68
2, 76272, Note_on_c, 0, 61, 63
2, 76272, Note_on_c, 0, 64, 62
2, 76277, Note_on_c, 0, 60, 0
2, 76292, Note_on_c, 0, 66, 0
2, 76336, Note_on_c, 0, 66, 69
2, 76342, Note_on_c, 0, 60, 73
2, 76356, Note_on_c, 0, 61, 0
2, 76356, Note_on_c, 0, 64, 0
2, 76404, Note_on_c, 0, 61, 57
2, 76404, Note_on_c, 0, 64, 61
2, 76414, Note_on_c, 0, 66, 0
2, 76414, Note_on_c, 0, 60, 0
2, 76462, Note_on_c, 0, 60, 61
2, 76463, Note_on_c, 0, 66, 63
2, 76477, Note_on_c, 0, 61, 0
2, 76479, Note_on_c, 0, 64, 0
2, 76530, Note_on_c, 0, 61, 64
2, 76530, Note_on_c, 0, 64, 69
2, 76533, Note_on_c, 0, 66, 0
2, 76539, Note_on_c, 0, 60, 0
2, 76583, Note_on_c, 0, 60, 69
2, 76588, Note_on_c, 0, 66, 65
2, 76599, Note_on_c, 0, 61, 0
2, 76608, Note_on_c, 0, 64, 0
2, 76647, Note_on_c, 0, 45, 0
2, 76649, Note_on_c, 0, 33, 0
2, 76652, Note_on_c, 0, 66, 0
2, 76653, Note_on_c, 0, 60, 0
2, 76657, Note_on_c, 0, 64, 74
2, 76658, Note_on_c, 0, 61, 73
2, 76727, Note_on_c, 0, 61, 0
2, 76774, Note_on_c, 0, 64, 0
2, 76774, Note_on_c, 0, 61, 72
2, 76774, Note_on_c, 0, 63, 73
2, 76778, Note_on_c, 0, 57, 72
2, 76778, Note_on_c, 0, 73, 75
2, 76778, Note_on_c, 0, 85, 72
2, 76782, Note_on_c, 0, 97, 77
2, 76799, Note_on_c, 0, 63, 0
2, 76800, Note_on_c, 0, 57, 0
2, 76803, Note_on_c, 0, 61, 0
2, 76849, Note_on_c, 0, 57, 75
2, 76849, Note_on_c, 0, 63, 78
2, 76850, Note_on_c, 0, 61, 78
2, 76877, Note_on_c, 0, 61, 0
2, 76879, Note_on_c, 0, 57, 0
2, 76879, Note_on_c, 0, 63, 0
2, 76919, Note_on_c, 0, 73, 0
2, 76919, Note_on_c, 0, 56, 82
2, 76919, Note_on_c, 0, 61, 81
2, 76919, Note_on_c, 0, 64, 80
2, 76923, Note_on_c, 0, 71, 76
2, 76932, Note_on_c, 0, 97, 0
2, 76933, Note_on_c, 0, 85, 0
2, 76933, Note_on_c, 0, 83, 77
2, 76933, Note_on_c, 0, 95, 74
2, 76954, Note_on_c, 0, 61, 0
2, 76954, Note_on_c, 0, 56, 0
2, 76959, Note_on_c, 0, 64, 0
2, 77035, Note_on_c, 0, 71, 0
2, 77047, Note_on_c, 0, 66, 73
2, 77048, Note_on_c, 0, 54, 84
2, 77051, Note_on_c, 0, 83, 0
2, 77052, Note_on_c, 0, 61, 86
2, 77052, Note_on_c, 0, 69, 78
2, 77055, Note_on_c, 0, 95, 0
2, 77062, Note_on_c, 0, 93, 79
2, 77066, Note_on_c, 0, 81, 74
2, 77078, Note_on_c, 0, 54, 0
2, 77083, Note_on_c, 0, 66, 0
2, 77084, Note_on_c, 0, 61, 0
2, 77171, Note_on_c, 0, 81, 0
2, 77177, Note_on_c, 0, 93, 0
2, 77179, Note_on_c, 0, 80, 74
2, 77184, Note_on_c, 0, 61, 81
2, 77184, Note_on_c, 0, 92, 78
2, 77185, Note_on_c, 0, 52, 80
2, 77188, Note_on_c, 0, 68, 72
2, 77189, Note_on_c, 0, 69, 0
2, 77217, Note_on_c, 0, 61, 0
2, 77217, Note_on_c, 0, 68, 0
2, 77218, Note_on_c, 0, 52, 0
2, 77310, Note_on_c, 0, 92, 0
2, 77310, Note_on_c, 0, 78, 62
2, 77311, Note_on_c, 0, 80, 0
2, 77312, Note_on_c, 0, 61, 66
2, 77316, Note_on_c, 0, 69, 66
2, 77321, Note_on_c, 0, 90, 68
2, 77337, Note_on_c, 0, 69, 0
2, 77343, Note_on_c, 0, 61, 0
2, 77390, Note_on_c, 0, 69, 64
2, 77391, Note_on_c, 0, 61, 63
2, 77421, Note_on_c, 0, 61, 0
2, 77446, Note_on_c, 0, 56, 67
2, 77446, Note_on_c, 0, 88, 63
2, 77452, Note_on_c, 0, 69, 0
2, 77460, Note_on_c, 0, 76, 62
2, 77461, Note_on_c, 0, 78, 0
2, 77462, Note_on_c, 0, 68, 64
2, 77481, Note_on_c, 0, 56, 0
2, 77489, Note_on_c, 0, 90, 0
2, 77496, Note_on_c, 0, 68, 0
2, 77582, Note_on_c, 0, 76, 0
2, 77582, Note_on_c, 0, 75, 75
2, 77587, Note_on_c, 0, 87, 72
2, 77588, Note_on_c, 0, 66, 71
2, 77592, Note_on_c, 0, 57, 72
2, 77619, Note_on_c, 0, 57, 0
2, 77625, Note_on_c, 0, 66, 0
2, 77630, Note_on_c, 0, 88, 0
2, 77704, Note_on_c, 0, 75, 0
2, 77705, Note_on_c, 0, 52, 78
2, 77705, Note_on_c, 0, 64, 74
2, 77709, Note_on_c, 0, 68, 69
2, 77709, Note_on_c, 0, 73, 74
2, 77709, Note_on_c, 0, 85, 71
2, 77733, Note_on_c, 0, 87, 0
2, 77734, Note_on_c, 0, 52, 0
2, 77738, Note_on_c, 0, 64, 0
2, 77743, Note_on_c, 0, 68, 0
2, 77832, Note_on_c, 0, 63, 62
2, 77833, Note_on_c, 0, 54, 64
2, 77853, Note_on_c, 0, 71, 70
2, 77853, Note_on_c, 0, 83, 72
2, 77862, Note_on_c, 0, 54, 0
2, 77867, Note_on_c, 0, 63, 0
2, 77893, Note_on_c, 0, 73, 0
2, 77901, Note_on_c, 0, 85, 0
2, 77906, Note_on_c, 0, 63, 63
2, 77907, Note_on_c, 0, 54, 65
2, 77940, Note_on_c, 0, 54, 0
2, 77940, Note_on_c, 0, 63, 0
2, 77961, Note_on_c, 0, 49, 69
2, 77965, Note_on_c, 0, 61, 65
2, 77965, Note_on_c, 0, 64, 64
2, 77965, Note_on_c, 0, 69, 64
2, 77969, Note_on_c, 0, 81, 68
2, 77990, Note_on_c, 0, 61, 0
2, 77993, Note_on_c, 0, 49, 0
2, 77998, Note_on_c, 0, 64, 0
2, 78017, Note_on_c, 0, 71, 0
2, 78021, Note_on_c, 0, 83, 0
2, 78085, Note_on_c, 0, 63, 61
2, 78085, Note_on_c, 0, 66, 56
2, 78086, Note_on_c, 0, 48, 62
2, 78086, Note_on_c, 0, 60, 60
2, 78095, Note_on_c, 0, 81, 0
2, 78095, Note_on_c, 0, 69, 0
2, 78099, Note_on_c, 0, 68, 61
2, 78099, Note_on_c, 0, 80, 63
2, 78115, Note_on_c, 0, 48, 0
2, 78119, Note_on_c, 0, 66, 0
2, 78123, Note_on_c, 0, 63, 0
2, 78124, Note_on_c, 0, 60, 0
2, 78129, Note_on_c, 0, 68, 0
2, 78134, Note_on_c, 0, 80, 0
2, 78205, Note_on_c, 0, 49, 70
2, 78223, Note_on_c, 0, 64, 69
2, 78232, Note_on_c, 0, 92, 68
2, 78233, Note_on_c, 0, 80, 68
2, 78239, Note_on_c, 0, 49, 0
2, 78290, Note_on_c, 0, 63, 67
2, 78290, Note_on_c, 0, 66, 75
2, 78294, Note_on_c, 0, 81, 69
2, 78294, Note_on_c, 0, 93, 75
2, 78303, Note_on_c, 0, 64, 0
2, 78312, Note_on_c, 0, 80, 0
2, 78312, Note_on_c, 0, 92, 0
2, 78351, Note_on_c, 0, 61, 67
2, 78356, Note_on_c, 0, 64, 66
2, 78360, Note_on_c, 0, 80, 68
2, 78360, Note_on_c, 0, 92, 71
2, 78376, Note_on_c, 0, 66, 0
2, 78378, Note_on_c, 0, 81, 0
2, 78379, Note_on_c, 0, 63, 0
2, 78382, Note_on_c, 0, 93, 0
2, 78418, Note_on_c, 0, 63, 67
2, 78419, Note_on_c, 0, 66, 72
2, 78427, Note_on_c, 0, 92, 0
2, 78429, Note_on_c, 0, 49, 62
2, 78432, Note_on_c, 0, 61, 0
2, 78437, Note_on_c, 0, 81, 72
2, 78438, Note_on_c, 0, 64, 0
2, 78442, Note_on_c, 0, 93, 73
2, 78443, Note_on_c, 0, 80, 0
2, 78485, Note_on_c, 0, 92, 75
2, 78486, Note_on_c, 0, 61, 65
2, 78486, Note_on_c, 0, 64, 62
2, 78486, Note_on_c, 0, 80, 74
2, 78491, Note_on_c, 0, 49, 0
2, 78500, Note_on_c, 0, 93, 0
2, 78501, Note_on_c, 0, 66, 0
2, 78504, Note_on_c, 0, 81, 0
2, 78504, Note_on_c, 0, 63, 0
2, 78540, Note_on_c, 0, 64, 0
2, 78542, Note_on_c, 0, 61, 0
2, 78542, Note_on_c, 0, 80, 0
2, 78544, Note_on_c, 0, 92, 0
2, 78547, Note_on_c, 0, 49, 69
2, 78551, Note_on_c, 0, 63, 65
2, 78551, Note_on_c, 0, 66, 74
2, 78551, Note_on_c, 0, 93, 73
2, 78560, Note_on_c, 0, 81, 69
2, 78596, Note_on_c, 0, 80, 69
2, 78600, Note_on_c, 0, 92, 74
2, 78600, Note_on_c, 0, 61, 67
2, 78604, Note_on_c, 0, 49, 0
2, 78604, Note_on_c, 0, 64, 68
2, 78606, Note_on_c, 0, 63, 0
2, 78608, Note_on_c, 0, 81, 0
2, 78609, Note_on_c, 0, 66, 0
2, 78613, Note_on_c, 0, 93, 0
2, 78650, Note_on_c, 0, 64, 0
2, 78652, Note_on_c, 0, 49, 68
2, 78655, Note_on_c, 0, 61, 0
2, 78655, Note_on_c, 0, 92, 0
2, 78656, Note_on_c, 0, 80, 0
2, 78656, Note_on_c, 0, 63, 62
2, 78656, Note_on_c, 0, 66, 70
2, 78661, Note_on_c, 0, 81, 73
2, 78666, Note_on_c, 0, 93, 71
2, 78697, Note_on_c, 0, 66, 0
2, 78698, Note_on_c, 0, 64, 72
2, 78702, Note_on_c, 0, 81, 0
2, 78703, Note_on_c, 0, 63, 0
2, 78704, Note_on_c, 0, 61, 74
2, 78708, Note_on_c, 0, 93, 0
2, 78708, Note_on_c, 0, 80, 75
2, 78713, Note_on_c, 0, 92, 71
2, 78731, Note_on_c, 0, 80, 0
2, 78759, Note_on_c, 0, 76, 69
2, 78759, Note_on_c, 0, 85, 74
2, 78760, Note_on_c, 0, 80, 75
2, 78778, Note_on_c, 0, 49, 0
2, 78783, Note_on_c, 0, 76, 0
2, 78788, Note_on_c, 0, 80, 0
2, 78792, Note_on_c, 0, 85, 0
2, 78827, Note_on_c, 0, 49, 75
2, 78828, Note_on_c, 0, 61, 0
2, 78828, Note_on_c, 0, 37, 76
2, 78828, Note_on_c, 0, 44, 74
2, 78831, Note_on_c, 0, 64, 0
2, 78835, Note_on_c, 0, 76, 73
2, 78835, Note_on_c, 0, 85, 75
2, 78836, Note_on_c, 0, 92, 0
2, 78836, Note_on_c, 0, 80, 71
2, 78859, Note_on_c, 0, 76, 0
2, 78864, Note_on_c, 0, 80, 0
2, 78869, Note_on_c, 0, 85, 0
2, 78908, Note_on_c, 0, 76, 75
2, 78912, Note_on_c, 0, 80, 74
2, 78912, Note_on_c, 0, 85, 76
2, 78932, Note_on_c, 0, 80, 0
2, 78935, Note_on_c, 0, 85, 0
2, 78936, Note_on_c, 0, 76, 0
2, 78971, Note_on_c, 0, 52, 75
2, 78984, Note_on_c, 0, 76, 81
2, 78985, Note_on_c, 0, 80, 79
2, 78989, Note_on_c, 0, 85, 79
2, 79017, Note_on_c, 0, 73, 65
2, 79034, Note_on_c, 0, 88, 64
2, 79045, Note_on_c, 0, 76, 0
2, 79047, Note_on_c, 0, 80, 0
2, 79090, Note_on_c, 0, 76, 69
2, 79091, Note_on_c, 0, 88, 0
2, 79091, Note_on_c, 0, 56, 73
2, 79091, Note_on_c, 0, 84, 69
2, 79092, Note_on_c, 0, 80, 64
2, 79096, Note_on_c, 0, 85, 0
2, 79141, Note_on_c, 0, 85, 68
2, 79166, Note_on_c, 0, 56, 0
2, 79166, Note_on_c, 0, 49, 0
2, 79175, Note_on_c, 0, 80, 0
2, 79182, Note_on_c, 0, 85, 0
2, 79210, Note_on_c, 0, 37, 0
2, 79213, Note_on_c, 0, 52, 0
2, 79213, Note_on_c, 0, 44, 0
2, 79215, Note_on_c, 0, 49, 76
2, 79215, Note_on_c, 0, 56, 75
2, 79215, Note_on_c, 0, 60, 78
2, 79219, Note_on_c, 0, 73, 0
2, 79220, Note_on_c, 0, 76, 0
2, 79224, Note_on_c, 0, 84, 0
2, 79224, Note_on_c, 0, 75, 75
2, 79224, Note_on_c, 0, 78, 77
2, 79224, Note_on_c, 0, 80, 79
2, 79252, Note_on_c, 0, 75, 0
2, 79258, Note_on_c, 0, 78, 0
2, 79264, Note_on_c, 0, 80, 0
2, 79284, Note_on_c, 0, 81, 75
2, 79298, Note_on_c, 0, 60, 0
2, 79313, Note_on_c, 0, 81, 0
2, 79339, Note_on_c, 0, 63, 74
2, 79344, Note_on_c, 0, 72, 72
2, 79344, Note_on_c, 0, 75, 71
2, 79350, Note_on_c, 0, 80, 74
2, 79383, Note_on_c, 0, 80, 0
2, 79404, Note_on_c, 0, 78, 69
2, 79410, Note_on_c, 0, 72, 0
2, 79444, Note_on_c, 0, 78, 0
2, 79458, Note_on_c, 0, 76, 79
2, 79464, Note_on_c, 0, 75, 0
2, 79464, Note_on_c, 0, 68, 80
2, 79464, Note_on_c, 0, 72, 79
2, 79497, Note_on_c, 0, 76, 0
2, 79532, Note_on_c, 0, 75, 71
2, 79554, Note_on_c, 0, 63, 0
2, 79567, Note_on_c, 0, 75, 0
2, 79603, Note_on_c, 0, 72, 0
2, 79604, Note_on_c, 0, 66, 72
2, 79608, Note_on_c, 0, 63, 63
2, 79608, Note_on_c, 0, 73, 71
2, 79644, Note_on_c, 0, 73, 0
2, 79673, Note_on_c, 0, 72, 75
2, 79703, Note_on_c, 0, 72, 0
2, 79714, Note_on_c, 0, 61, 80
2, 79714, Note_on_c, 0, 64, 77
2, 79718, Note_on_c, 0, 63, 0
2, 79718, Note_on_c, 0, 66, 0
2, 79728, Note_on_c, 0, 73, 75
2, 79752, Note_on_c, 0, 61, 0
2, 79762, Note_on_c, 0, 73, 0
2, 79787, Note_on_c, 0, 68, 0
2, 79787, Note_on_c, 0, 61, 74
2, 79792, Note_on_c, 0, 64, 0
2, 79811, Note_on_c, 0, 61, 0
2, 79812, Note_on_c, 0, 49, 0
2, 79857, Note_on_c, 0, 61, 74
2, 79862, Note_on_c, 0, 49, 78
2, 79862, Note_on_c, 0, 55, 81
2, 79863, Note_on_c, 0, 56, 0
2, 79863, Note_on_c, 0, 52, 74
2, 79876, Note_on_c, 0, 73, 71
2, 79878, Note_on_c, 0, 61, 0
2, 79920, Note_on_c, 0, 61, 80
2, 79939, Note_on_c, 0, 49, 0
2, 79944, Note_on_c, 0, 52, 0
2, 79956, Note_on_c, 0, 61, 0
2, 79996, Note_on_c, 0, 55, 0
2, 80002, Note_on_c, 0, 56, 82
2, 80002, Note_on_c, 0, 61, 79
2, 80003, Note_on_c, 0, 49, 79
2, 80003, Note_on_c, 0, 52, 81
2, 80007, Note_on_c, 0, 76, 75
2, 80031, Note_on_c, 0, 73, 0
2, 80063, Note_on_c, 0, 61, 0
2, 80070, Note_on_c, 0, 64, 73
2, 80120, Note_on_c, 0, 64, 0
2, 80128, Note_on_c, 0, 63, 71
2, 80128, Note_on_c, 0, 68, 74
2, 80134, Note_on_c, 0, 80, 83
2, 80140, Note_on_c, 0, 56, 0
2, 80142, Note_on_c, 0, 52, 0
2, 80142, Note_on_c, 0, 49, 0
2, 80152, Note_on_c, 0, 76, 0
2, 80190, Note_on_c, 0, 56, 75
2, 80191, Note_on_c, 0, 63, 0
2, 80191, Note_on_c, 0, 49, 72
2, 80191, Note_on_c, 0, 52, 77
2, 80195, Note_on_c, 0, 61, 76
2, 80217, Note_on_c, 0, 56, 0
2, 80218, Note_on_c, 0, 68, 0
2, 80219, Note_on_c, 0, 49, 0
2, 80263, Note_on_c, 0, 52, 0
2, 80263, Note_on_c, 0, 60, 81
2, 80264, Note_on_c, 0, 51, 84
2, 80264, Note_on_c, 0, 56, 80
2, 80265, Note_on_c, 0, 49, 85
2, 80268, Note_on_c, 0, 63, 85
2, 80269, Note_on_c, 0, 61, 0
2, 80273, Note_on_c, 0, 68, 83
2, 80273, Note_on_c, 0, 72, 81
2, 80274, Note_on_c, 0, 84, 78
2, 80290, Control_c, 0, 64, 127
2, 80297, Note_on_c, 0, 80, 0
2, 80306, Note_on_c, 0, 60, 0
2, 80326, Note_on_c, 0, 61, 72
2, 80387, Note_on_c, 0, 61, 0
2, 80387, Note_on_c, 0, 60, 75
2, 80388, Control_c, 0, 64, 0
2, 80392, Note_on_c, 0, 75, 81
2, 80398, Note_on_c, 0, 87, 80
2, 80416, Note_on_c, 0, 72, 0
2, 80420, Note_on_c, 0, 84, 0
2, 80425, Note_on_c, 0, 60, 0
2, 80435, Note_on_c, 0, 63, 0
2, 80436, Note_on_c, 0, 68, 0
2, 80455, Note_on_c, 0, 51, 0
2, 80464, Note_on_c, 0, 57, 70
2, 80464, Note_on_c, 0, 66, 61
2, 80465, Note_on_c, 0, 56, 0
2, 80465, Note_on_c, 0, 44, 72
2, 80465, Note_on_c, 0, 48, 71
2, 80465, Note_on_c, 0, 54, 72
2, 80466, Note_on_c, 0, 49, 0
2, 80484, Note_on_c, 0, 44, 0
2, 80485, Note_on_c, 0, 54, 0
2, 80485, Note_on_c, 0, 48, 0
2, 80522, Note_on_c, 0, 44, 69
2, 80525, Note_on_c, 0, 66, 0
2, 80526, Note_on_c, 0, 57, 0
2, 80526, Note_on_c, 0, 48, 74
2, 80526, Note_on_c, 0, 54, 69
2, 80526, Note_on_c, 0, 56, 73
2, 80526, Note_on_c, 0, 64, 72
2, 80530, Note_on_c, 0, 80, 86
2, 80535, Note_on_c, 0, 92, 86
2, 80558, Note_on_c, 0, 75, 0
2, 80558, Note_on_c, 0, 87, 0
2, 80568, Note_on_c, 0, 56, 0
2, 80572, Note_on_c, 0, 57, 68
2, 80622, Note_on_c, 0, 57, 0
2, 80627, Note_on_c, 0, 44, 0
2, 80628, Note_on_c, 0, 56, 64
2, 80632, Note_on_c, 0, 54, 0
2, 80664, Note_on_c, 0, 56, 0
2, 80683, Note_on_c, 0, 48, 0
2, 80685, Note_on_c, 0, 44, 68
2, 80685, Note_on_c, 0, 54, 65
2, 80686, Note_on_c, 0, 37, 65
2, 80691, Note_on_c, 0, 64, 0
2, 80698, Note_on_c, 0, 63, 66
2, 80713, Note_on_c, 0, 37, 0
2, 80718, Note_on_c, 0, 44, 0
2, 80765, Note_on_c, 0, 54, 0
2, 80765, Note_on_c, 0, 37, 76
2, 80765, Note_on_c, 0, 44, 77
2, 80766, Note_on_c, 0, 63, 0
2, 80770, Note_on_c, 0, 52, 77
2, 80775, Note_on_c, 0, 61, 76
2, 80781, Note_on_c, 0, 80, 0
2, 80818, Note_on_c, 0, 61, 0
2, 80828, Note_on_c, 0, 92, 0
2, 80829, Note_on_c, 0, 76, 74
2, 80832, Note_on_c, 0, 85, 72
2, 80833, Note_on_c, 0, 80, 74
2, 80856, Note_on_c, 0, 76, 0
2, 80860, Note_on_c, 0, 85, 0
2, 80861, Note_on_c, 0, 80, 0
2, 80895, Note_on_c, 0, 52, 0
2, 80895, Note_on_c, 0, 76, 70
2, 80900, Note_on_c, 0, 85, 71
2, 80901, Note_on_c, 0, 80, 75
2, 80905, Note_on_c, 0, 49, 78
2, 80929, Note_on_c, 0, 76, 0
2, 80933, Note_on_c, 0, 85, 0
2, 80938, Note_on_c, 0, 80, 0
2, 80982, Note_on_c, 0, 76, 74
2, 80988, Note_on_c, 0, 80, 70
2, 80988, Note_on_c, 0, 85, 68
2, 81009, Note_on_c, 0, 80, 0
2, 81012, Note_on_c, 0, 76, 0
2, 81018, Note_on_c, 0, 85, 0
2, 81038, Note_on_c, 0, 52, 77
2, 81052, Note_on_c, 0, 76, 72
2, 81052, Note_on_c, 0, 85, 71
2, 81053, Note_on_c, 0, 80, 70
2, 81064, Control_c, 0, 64, 127
2, 81105, Note_on_c, 0, 73, 64
2, 81115, Note_on_c, 0, 88, 67
2, 81129, Note_on_c, 0, 76, 0
2, 81134, Note_on_c, 0, 80, 0
2, 81147, Control_c, 0, 64, 0
2, 81162, Note_on_c, 0, 56, 78
2, 81170, Note_on_c, 0, 88, 0
2, 81171, Note_on_c, 0, 73, 0
2, 81171, Note_on_c, 0, 76, 66
2, 81175, Note_on_c, 0, 85, 0
2, 81175, Note_on_c, 0, 84, 62
2, 81185, Note_on_c, 0, 80, 65
2, 81225, Note_on_c, 0, 49, 0
2, 81233, Note_on_c, 0, 56, 0
2, 81237, Note_on_c, 0, 85, 56
2, 81238, Note_on_c, 0, 84, 0
2, 81246, Note_on_c, 0, 80, 0
2, 81278, Note_on_c, 0, 60, 81
2, 81279, Note_on_c, 0, 49, 74
2, 81279, Note_on_c, 0, 56, 81
2, 81288, Note_on_c, 0, 76, 0
2, 81288, Note_on_c, 0, 85, 0
2, 81288, Note_on_c, 0, 78, 70
2, 81292, Note_on_c, 0, 75, 71
2, 81292, Note_on_c, 0, 80, 73
2, 81297, Note_on_c, 0, 37, 0
2, 81297, Note_on_c, 0, 44, 0
2, 81299, Note_on_c, 0, 52, 0
2, 81359, Note_on_c, 0, 81, 69
2, 81365, Note_on_c, 0, 75, 0
2, 81372, Note_on_c, 0, 80, 0
2, 81414, Note_on_c, 0, 81, 0
2, 81420, Note_on_c, 0, 72, 72
2, 81420, Note_on_c, 0, 75, 72
2, 81421, Note_on_c, 0, 63, 75
2, 81421, Note_on_c, 0, 80, 74
2, 81430, Note_on_c, 0, 78, 0
2, 81458, Note_on_c, 0, 80, 0
2, 81473, Note_on_c, 0, 78, 62
2, 81504, Note_on_c, 0, 72, 0
2, 81514, Note_on_c, 0, 78, 0
2, 81538, Note_on_c, 0, 68, 82
2, 81548, Note_on_c, 0, 72, 85
2, 81548, Note_on_c, 0, 76, 81
2, 81552, Note_on_c, 0, 75, 0
2, 81557, Note_on_c, 0, 60, 0
2, 81559, Note_on_c, 0, 63, 0
2, 81584, Note_on_c, 0, 76, 0
2, 81601, Note_on_c, 0, 72, 0
2, 81612, Note_on_c, 0, 75, 60
2, 81654, Note_on_c, 0, 75, 0
2, 81669, Note_on_c, 0, 63, 75
2, 81669, Note_on_c, 0, 66, 69
2, 81687, Note_on_c, 0, 73, 68
2, 81707, Note_on_c, 0, 73, 0
2, 81735, Note_on_c, 0, 72, 74
2, 81769, Note_on_c, 0, 72, 0
2, 81788, Note_on_c, 0, 56, 0
2, 81789, Note_on_c, 0, 64, 67
2, 81789, Note_on_c, 0, 73, 72
2, 81792, Note_on_c, 0, 63, 0
2, 81792, Note_on_c, 0, 49, 0
2, 81803, Note_on_c, 0, 61, 69
2, 81823, Note_on_c, 0, 61, 0
2, 81847, Note_on_c, 0, 68, 0
2, 81852, Note_on_c, 0, 66, 0
2, 81852, Note_on_c, 0, 64, 0
2, 81857, Note_on_c, 0, 61, 69
2, 81877, Note_on_c, 0, 61, 0
2, 81887, Note_on_c, 0, 73, 0
2, 81922, Note_on_c, 0, 52, 62
2, 81922, Note_on_c, 0, 55, 64
2, 81923, Note_on_c, 0, 49, 65
2, 81923, Note_on_c, 0, 61, 66
2, 81936, Note_on_c, 0, 73, 81
2, 81950, Note_on_c, 0, 61, 0
2, 81983, Note_on_c, 0, 61, 69
2, 82001, Note_on_c, 0, 61, 0
2, 82005, Note_on_c, 0, 49, 0
2, 82005, Note_on_c, 0, 52, 0
2, 82051, Note_on_c, 0, 55, 0
2, 82055, Note_on_c, 0, 56, 64
2, 82056, Note_on_c, 0, 49, 66
2, 82056, Note_on_c, 0, 52, 67
2, 82056, Note_on_c, 0, 61, 67
2, 82060, Note_on_c, 0, 76, 76
2, 82085, Note_on_c, 0, 73, 0
2, 82125, Note_on_c, 0, 64, 71
2, 82185, Note_on_c, 0, 68, 76
2, 82190, Note_on_c, 0, 63, 73
2, 82194, Note_on_c, 0, 49, 0
2, 82195, Note_on_c, 0, 52, 0
2, 82200, Note_on_c, 0, 80, 77
2, 82204, Note_on_c, 0, 56, 0
2, 82210, Note_on_c, 0, 61, 0
2, 82215, Note_on_c, 0, 64, 0
2, 82219, Note_on_c, 0, 76, 0
2, 82249, Note_on_c, 0, 56, 69
2, 82250, Note_on_c, 0, 49, 70
2, 82250, Note_on_c, 0, 52, 75
2, 82260, Note_on_c, 0, 63, 0
2, 82260, Note_on_c, 0, 68, 0
2, 82260, Note_on_c, 0, 61, 73
2, 82270, Note_on_c, 0, 56, 0
2, 82270, Note_on_c, 0, 49, 0
2, 82296, Note_on_c, 0, 61, 0
2, 82308, Note_on_c, 0, 63, 70
2, 82308, Note_on_c, 0, 68, 85
2, 82313, Note_on_c, 0, 52, 0
2, 82313, Note_on_c, 0, 49, 68
2, 82318, Note_on_c, 0, 56, 66
2, 82318, Note_on_c, 0, 60, 69
2, 82319, Note_on_c, 0, 51, 62
2, 82322, Note_on_c, 0, 72, 86
2, 82333, Note_on_c, 0, 84, 81
2, 82345, Note_on_c, 0, 51, 0
2, 82346, Note_on_c, 0, 56, 0
2, 82350, Note_on_c, 0, 60, 0
2, 82351, Note_on_c, 0, 49, 0
2, 82361, Note_on_c, 0, 80, 0
2, 82377, Control_c, 0, 64, 127
2, 82387, Note_on_c, 0, 61, 66
2, 82418, Note_on_c, 0, 61, 0
2, 82451, Note_on_c, 0, 60, 66
2, 82461, Note_on_c, 0, 75, 86
2, 82461, Note_on_c, 0, 87, 83
2, 82481, Note_on_c, 0, 72, 0
2, 82483, Note_on_c, 0, 60, 0
2, 82483, Note_on_c, 0, 84, 0
2, 82490, Control_c, 0, 64, 0
2, 82521, Note_on_c, 0, 68, 0
2, 82521, Note_on_c, 0, 44, 63
2, 82521, Note_on_c, 0, 48, 62
2, 82521, Note_on_c, 0, 66, 57
2, 82522, Note_on_c, 0, 54, 63
2, 82526, Note_on_c, 0, 57, 68
2, 82542, Note_on_c, 0, 54, 0
2, 82542, Note_on_c, 0, 44, 0
2, 82544, Note_on_c, 0, 48, 0
2, 82562, Note_on_c, 0, 57, 0
2, 82588, Note_on_c, 0, 44, 64
2, 82591, Note_on_c, 0, 48, 67
2, 82591, Note_on_c, 0, 56, 68
2, 82592, Note_on_c, 0, 66, 0
2, 82592, Note_on_c, 0, 54, 65
2, 82592, Note_on_c, 0, 64, 65
2, 82597, Note_on_c, 0, 63, 0
2, 82608, Note_on_c, 0, 80, 87
2, 82612, Note_on_c, 0, 92, 83
2, 82626, Note_on_c, 0, 56, 0
2, 82632, Note_on_c, 0, 75, 0
2, 82637, Note_on_c, 0, 87, 0
2, 82661, Note_on_c, 0, 57, 67
2, 82704, Note_on_c, 0, 57, 0
2, 82715, Note_on_c, 0, 56, 63
2, 82724, Note_on_c, 0, 44, 0
2, 82735, Note_on_c, 0, 54, 0
2, 82780, Note_on_c, 0, 37, 67
2, 82780, Note_on_c, 0, 44, 68
2, 82788, Note_on_c, 0, 56, 0
2, 82789, Note_on_c, 0, 64, 0
2, 82794, Note_on_c, 0, 54, 66
2, 82794, Note_on_c, 0, 63, 67
2, 82800, Note_on_c, 0, 37, 0
2, 82807, Note_on_c, 0, 44, 0
2, 82857, Note_on_c, 0, 48, 0
2, 82857, Note_on_c, 0, 54, 0
2, 82857, Note_on_c, 0, 44, 80
2, 82858, Note_on_c, 0, 37, 76
2, 82862, Note_on_c, 0, 52, 80
2, 82872, Note_on_c, 0, 63, 0
2, 82872, Note_on_c, 0, 61, 74
2, 82882, Note_on_c, 0, 80, 0
2, 82930, Note_on_c, 0, 92, 0
2, 82930, Note_on_c, 0, 76, 73
2, 82935, Note_on_c, 0, 80, 71
2, 82935, Note_on_c, 0, 85, 71
2, 82957, Note_on_c, 0, 80, 0
2, 82959, Note_on_c, 0, 76, 0
2, 82964, Note_on_c, 0, 85, 0
2, 82987, Note_on_c, 0, 44, 0
2, 82987, Note_on_c, 0, 37, 0
2, 82988, Note_on_c, 0, 52, 0
2, 82991, Note_on_c, 0, 61, 0
2, 82997, Note_on_c, 0, 76, 68
2, 82997, Note_on_c, 0, 85, 73
2, 82998, Note_on_c, 0, 80, 73
2, 83025, Note_on_c, 0, 85, 0
2, 83026, Note_on_c, 0, 80, 0
2, 83026, Note_on_c, 0, 76, 0
2, 83060, Note_on_c, 0, 76, 71
2, 83064, Note_on_c, 0, 80, 75
2, 83064, Note_on_c, 0, 85, 75
2, 83087, Note_on_c, 0, 76, 0
2, 83092, Note_on_c, 0, 85, 0
2, 83092, Note_on_c, 0, 80, 0
2, 83104, Control_c, 0, 64, 127
2, 83126, Note_on_c, 0, 76, 76
2, 83130, Note_on_c, 0, 85, 81
2, 83139, Note_on_c, 0, 80, 75
2, 83163, Note_on_c, 0, 85, 0
2, 83191, Note_on_c, 0, 76, 0
2, 83197, Note_on_c, 0, 83, 65
2, 83198, Control_c, 0, 64, 0
2, 83235, Note_on_c, 0, 83, 0
2, 83235, Note_on_c, 0, 73, 67
2, 83235, Note_on_c, 0, 76, 69
2, 83236, Note_on_c, 0, 80, 0
2, 83241, Note_on_c, 0, 81, 63
2, 83264, Note_on_c, 0, 76, 0
2, 83264, Note_on_c, 0, 73, 0
2, 83269, Note_on_c, 0, 81, 0
2, 83304, Note_on_c, 0, 73, 65
2, 83304, Note_on_c, 0, 76, 71
2, 83365, Note_on_c, 0, 73, 0
2, 83367, Note_on_c, 0, 76, 0
2, 83368, Note_on_c, 0, 75, 76
2, 83372, Note_on_c, 0, 71, 76
2, 83373, Note_on_c, 0, 80, 82
2, 83424, Note_on_c, 0, 68, 76
2, 83439, Note_on_c, 0, 71, 0
2, 83454, Note_on_c, 0, 68, 0
2, 83489, Note_on_c, 0, 57, 62
2, 83489, Note_on_c, 0, 59, 67
2, 83493, Note_on_c, 0, 75, 0
2, 83494, Note_on_c, 0, 80, 0
2, 83494, Note_on_c, 0, 65, 68
2, 83494, Note_on_c, 0, 68, 74
2, 83494, Note_on_c, 0, 71, 71
2, 83494, Note_on_c, 0, 74, 69
2, 83514, Note_on_c, 0, 68, 0
2, 83518, Note_on_c, 0, 57, 0
2, 83518, Note_on_c, 0, 59, 0
2, 83563, Note_on_c, 0, 57, 66
2, 83564, Note_on_c, 0, 68, 69
2, 83568, Note_on_c, 0, 59, 67
2, 83586, Note_on_c, 0, 57, 0
2, 83592, Note_on_c, 0, 68, 0
2, 83592, Note_on_c, 0, 71, 0
2, 83592, Note_on_c, 0, 59, 0
2, 83635, Note_on_c, 0, 57, 64
2, 83635, Note_on_c, 0, 59, 66
2, 83643, Note_on_c, 0, 65, 0
2, 83644, Note_on_c, 0, 71, 64
2, 83645, Note_on_c, 0, 74, 0
2, 83645, Note_on_c, 0, 63, 66
2, 83645, Note_on_c, 0, 75, 66
2, 83650, Note_on_c, 0, 68, 62
2, 83693, Note_on_c, 0, 68, 0
2, 83693, Note_on_c, 0, 71, 0
2, 83694, Note_on_c, 0, 63, 0
2, 83695, Note_on_c, 0, 66, 69
2, 83699, Note_on_c, 0, 59, 0
2, 83699, Note_on_c, 0, 75, 0
2, 83699, Note_on_c, 0, 57, 0
2, 83750, Note_on_c, 0, 66, 0
2, 83756, Note_on_c, 0, 57, 64
2, 83756, Note_on_c, 0, 59, 69
2, 83756, Note_on_c, 0, 64, 63
2, 83779, Note_on_c, 0, 59, 0
2, 83784, Note_on_c, 0, 57, 0
2, 83789, Note_on_c, 0, 64, 0
2, 83814, Note_on_c, 0, 57, 62
2, 83814, Note_on_c, 0, 59, 67
2, 83823, Note_on_c, 0, 63, 77
2, 83837, Note_on_c, 0, 59, 0
2, 83837, Note_on_c, 0, 57, 0
2, 83855, Note_on_c, 0, 63, 0
2, 83878, Note_on_c, 0, 54, 76
2, 83878, Note_on_c, 0, 57, 81
2, 83878, Note_on_c, 0, 61, 81
2, 83908, Note_on_c, 0, 54, 0
2, 83917, Note_on_c, 0, 57, 0
2, 83941, Note_on_c, 0, 69, 64
2, 83946, Note_on_c, 0, 75, 65
2, 83946, Note_on_c, 0, 80, 69
2, 83965, Note_on_c, 0, 69, 0
2, 83966, Note_on_c, 0, 75, 0
2, 83968, Note_on_c, 0, 80, 0
2, 84004, Note_on_c, 0, 57, 72
2, 84004, Note_on_c, 0, 69, 65
2, 84004, Note_on_c, 0, 75, 66
2, 84005, Note_on_c, 0, 54, 74
2, 84005, Note_on_c, 0, 80, 69
2, 84006, Note_on_c, 0, 58, 72
2, 84019, Note_on_c, 0, 61, 0
2, 84033, Note_on_c, 0, 69, 0
2, 84034, Note_on_c, 0, 75, 0
2, 84034, Note_on_c, 0, 57, 0
2, 84035, Note_on_c, 0, 54, 0
2, 84038, Note_on_c, 0, 80, 0
2, 84046, Control_c, 0, 64, 127
2, 84077, Note_on_c, 0, 69, 64
2, 84082, Note_on_c, 0, 75, 59
2, 84083, Note_on_c, 0, 80, 61
2, 84106, Note_on_c, 0, 80, 0
2, 84106, Note_on_c, 0, 75, 0
2, 84106, Note_on_c, 0, 69, 0
2, 84144, Note_on_c, 0, 57, 73
2, 84144, Note_on_c, 0, 59, 68
2, 84144, Note_on_c, 0, 54, 73
2, 84144, Note_on_c, 0, 69, 75
2, 84144, Note_on_c, 0, 75, 77
2, 84144, Note_on_c, 0, 80, 75
2, 84153, Note_on_c, 0, 58, 0
2, 84153, Control_c, 0, 64, 0
2, 84170, Note_on_c, 0, 54, 0
2, 84171, Note_on_c, 0, 57, 0
2, 84190, Note_on_c, 0, 69, 0
2, 84199, Note_on_c, 0, 80, 0
2, 84205, Note_on_c, 0, 78, 68
2, 84233, Note_on_c, 0, 78, 0
2, 84236, Note_on_c, 0, 66, 73
2, 84236, Note_on_c, 0, 69, 71
2, 84237, Note_on_c, 0, 76, 73
2, 84249, Note_on_c, 0, 75, 0
2, 84250, Note_on_c, 0, 59, 0
2, 84273, Note_on_c, 0, 76, 0
2, 84303, Note_on_c, 0, 75, 69
2, 84341, Note_on_c, 0, 75, 0
2, 84365, Note_on_c, 0, 66, 0
2, 84365, Note_on_c, 0, 69, 0
2, 84365, Note_on_c, 0, 64, 60
2, 84370, Note_on_c, 0, 73, 80
2, 84371, Note_on_c, 0, 68, 81
2, 84388, Note_on_c, 0, 64, 0
2, 84432, Note_on_c, 0, 64, 77
2, 84453, Note_on_c, 0, 64, 0
2, 84466, Note_on_c, 0, 52, 79
2, 84479, Note_on_c, 0, 68, 0
2, 84483, Note_on_c, 0, 67, 69
2, 84484, Note_on_c, 0, 52, 0
2, 84484, Note_on_c, 0, 73, 0
2, 84484, Note_on_c, 0, 56, 80
2, 84484, Note_on_c, 0, 61, 74
2, 84484, Note_on_c, 0, 64, 75
2, 84484, Note_on_c, 0, 70, 73
2, 84503, Note_on_c, 0, 56, 0
2, 84504, Note_on_c, 0, 64, 0
2, 84504, Note_on_c, 0, 61, 0
2, 84544, Note_on_c, 0, 56, 78
2, 84545, Note_on_c, 0, 52, 85
2, 84545, Note_on_c, 0, 61, 82
2, 84545, Note_on_c, 0, 64, 82
2, 84563, Note_on_c, 0, 52, 0
2, 84574, Note_on_c, 0, 56, 0
2, 84576, Note_on_c, 0, 61, 0
2, 84576, Note_on_c, 0, 64, 0
2, 84599, Note_on_c, 0, 70, 0
2, 84600, Note_on_c, 0, 67, 0
2, 84600, Note_on_c, 0, 52, 82
2, 84600, Note_on_c, 0, 56, 87
2, 84600, Note_on_c, 0, 59, 85
2, 84604, Note_on_c, 0, 71, 63
2, 84605, Note_on_c, 0, 68, 63
2, 84606, Note_on_c, 0, 64, 85
2, 84629, Note_on_c, 0, 52, 0
2, 84632, Note_on_c, 0, 68, 0
2, 84632, Note_on_c, 0, 56, 0
2, 84632, Note_on_c, 0, 59, 0
2, 84633, Note_on_c, 0, 71, 0
2, 84672, Note_on_c, 0, 63, 64
2, 84677, Note_on_c, 0, 64, 0
2, 84726, Note_on_c, 0, 52, 68
2, 84726, Note_on_c, 0, 56, 68
2, 84731, Note_on_c, 0, 63, 0
2, 84731, Note_on_c, 0, 61, 69
2, 84746, Note_on_c, 0, 52, 0
2, 84747, Note_on_c, 0, 56, 0
2, 84761, Note_on_c, 0, 61, 0
2, 84795, Note_on_c, 0, 56, 69
2, 84800, Note_on_c, 0, 52, 76
2, 84800, Note_on_c, 0, 59, 76
2, 84820, Note_on_c, 0, 52, 0
2, 84840, Note_on_c, 0, 59, 0
2, 84864, Note_on_c, 0, 56, 0
2, 84874, Note_on_c, 0, 47, 74
2, 84874, Note_on_c, 0, 52, 80
2, 84884, Note_on_c, 0, 57, 76
2, 84935, Note_on_c, 0, 76, 72
2, 84936, Note_on_c, 0, 71, 71
2, 84936, Note_on_c, 0, 83, 72
2, 84940, Note_on_c, 0, 47, 0
2, 84940, Note_on_c, 0, 88, 70
2, 84945, Note_on_c, 0, 52, 0
2, 84959, Note_on_c, 0, 76, 0
2, 84959, Note_on_c, 0, 71, 0
2, 84960, Note_on_c, 0, 88, 0
2, 84964, Note_on_c, 0, 83, 0
2, 84995, Note_on_c, 0, 47, 78
2, 84995, Note_on_c, 0, 55, 74
2, 84999, Note_on_c, 0, 71, 72
2, 84999, Note_on_c, 0, 76, 73
2, 85000, Note_on_c, 0, 57, 0
2, 85000, Note_on_c, 0, 52, 77
2, 85004, Note_on_c, 0, 83, 78
2, 85004, Note_on_c, 0, 88, 74
2, 85020, Note_on_c, 0, 71, 0
2, 85028, Note_on_c, 0, 83, 0
2, 85028, Note_on_c, 0, 88, 0
2, 85029, Note_on_c, 0, 76, 0
2, 85078, Note_on_c, 0, 76, 72
2, 85079, Note_on_c, 0, 47, 0
2, 85079, Note_on_c, 0, 52, 0
2, 85079, Note_on_c, 0, 71, 74
2, 85083, Note_on_c, 0, 88, 74
2, 85084, Note_on_c, 0, 83, 72
2, 85101, Note_on_c, 0, 71, 0
2, 85107, Note_on_c, 0, 88, 0
2, 85108, Note_on_c, 0, 83, 0
2, 85108, Note_on_c, 0, 76, 0
2, 85131, Note_on_c, 0, 55, 0
2, 85133, Control_c, 0, 64, 127
2, 85134, Note_on_c, 0, 56, 65
2, 85140, Note_on_c, 0, 52, 66
2, 85141, Note_on_c, 0, 47, 68
2, 85160, Note_on_c, 0, 71, 79
2, 85160, Note_on_c, 0, 76, 82
2, 85161, Note_on_c, 0, 83, 79
2, 85165, Note_on_c, 0, 88, 77
2, 85208, Note_on_c, 0, 88, 0
2, 85208, Note_on_c, 0, 75, 73
2, 85214, Note_on_c, 0, 76, 0
2, 85214, Note_on_c, 0, 87, 77
2, 85239, Control_c, 0, 64, 0
2, 85250, Note_on_c, 0, 71, 0
2, 85251, Note_on_c, 0, 75, 0
2, 85256, Note_on_c, 0, 87, 0
2, 85257, Note_on_c, 0, 76, 70
2, 85258, Note_on_c, 0, 73, 74
2, 85262, Note_on_c, 0, 85, 77
2, 85263, Note_on_c, 0, 80, 77
2, 85277, Note_on_c, 0, 83, 0
2, 85281, Note_on_c, 0, 76, 0
2, 85283, Note_on_c, 0, 80, 0
2, 85320, Note_on_c, 0, 85, 0
2, 85321, Note_on_c, 0, 73, 0
2, 85325, Note_on_c, 0, 76, 71
2, 85326, Note_on_c, 0, 80, 76
2, 85326, Note_on_c, 0, 83, 74
2, 85342, Note_on_c, 0, 47, 0
2, 85345, Note_on_c, 0, 52, 0
2, 85346, Note_on_c, 0, 56, 0
2, 85350, Note_on_c, 0, 83, 0
2, 85396, Note_on_c, 0, 76, 0
2, 85396, Note_on_c, 0, 80, 0
2, 85397, Note_on_c, 0, 75, 75
2, 85397, Note_on_c, 0, 79, 74
2, 85397, Note_on_c, 0, 83, 77
2, 85442, Note_on_c, 0, 71, 78
2, 85467, Note_on_c, 0, 71, 0
2, 85471, Note_on_c, 0, 75, 0
2, 85518, Note_on_c, 0, 79, 0
2, 85523, Note_on_c, 0, 83, 0
2, 85523, Note_on_c, 0, 61, 65
2, 85523, Note_on_c, 0, 63, 67
2, 85523, Note_on_c, 0, 69, 72
2, 85523, Note_on_c, 0, 71, 68
2, 85523, Note_on_c, 0, 75, 70
2, 85524, Note_on_c, 0, 78, 73
2, 85544, Note_on_c, 0, 63, 0
2, 85544, Note_on_c, 0, 61, 0
2, 85546, Note_on_c, 0, 71, 0
2, 85587, Note_on_c, 0, 61, 63
2, 85587, Note_on_c, 0, 63, 63
2, 85587, Note_on_c, 0, 71, 76
2, 85598, Note_on_c, 0, 75, 0
2, 85608, Note_on_c, 0, 63, 0
2, 85608, Note_on_c, 0, 61, 0
2, 85616, Note_on_c, 0, 71, 0
2, 85643, Note_on_c, 0, 69, 0
2, 85645, Note_on_c, 0, 63, 63
2, 85645, Note_on_c, 0, 67, 66
2, 85646, Note_on_c, 0, 78, 0
2, 85646, Note_on_c, 0, 61, 66
2, 85649, Note_on_c, 0, 75, 63
2, 85650, Note_on_c, 0, 71, 62
2, 85650, Note_on_c, 0, 79, 64
2, 85674, Note_on_c, 0, 63, 0
2, 85677, Note_on_c, 0, 61, 0
2, 85711, Note_on_c, 0, 67, 0
2, 85716, Note_on_c, 0, 75, 0
2, 85716, Note_on_c, 0, 79, 0
2, 85717, Note_on_c, 0, 71, 0
2, 85722, Note_on_c, 0, 70, 62
2, 85762, Note_on_c, 0, 70, 0
2, 85782, Note_on_c, 0, 61, 69
2, 85782, Note_on_c, 0, 63, 64
2, 85792, Note_on_c, 0, 68, 63
2, 85801, Note_on_c, 0, 61, 0
2, 85802, Note_on_c, 0, 63, 0
2, 85825, Note_on_c, 0, 68, 0
2, 85855, Note_on_c, 0, 63, 75
2, 85855, Note_on_c, 0, 67, 63
2, 85856, Note_on_c, 0, 61, 75
2, 85875, Note_on_c, 0, 61, 0
2, 85875, Note_on_c, 0, 63, 0
2, 85890, Note_on_c, 0, 67, 0
2, 85932, Note_on_c, 0, 58, 69
2, 85933, Note_on_c, 0, 61, 68
2, 85933, Note_on_c, 0, 64, 75
2, 85970, Note_on_c, 0, 79, 63
2, 85971, Note_on_c, 0, 73, 62
2, 85971, Note_on_c, 0, 83, 67
2, 85989, Note_on_c, 0, 58, 0
2, 85990, Note_on_c, 0, 73, 0
2, 85992, Note_on_c, 0, 79, 0
2, 85992, Note_on_c, 0, 61, 0
2, 85993, Note_on_c, 0, 83, 0
2, 86039, Note_on_c, 0, 64, 0
2, 86042, Note_on_c, 0, 58, 72
2, 86042, Note_on_c, 0, 61, 69
2, 86042, Note_on_c, 0, 62, 71
2, 86043, Note_on_c, 0, 73, 70
2, 86046, Note_on_c, 0, 79, 65
2, 86046, Note_on_c, 0, 83, 70
2, 86064, Note_on_c, 0, 73, 0
2, 86066, Note_on_c, 0, 79, 0
2, 86066, Control_c, 0, 64, 127
2, 86069, Note_on_c, 0, 83, 0
2, 86109, Note_on_c, 0, 73, 62
2, 86109, Note_on_c, 0, 79, 63
2, 86109, Note_on_c, 0, 83, 63
2, 86122, Note_on_c, 0, 58, 0
2, 86122, Note_on_c, 0, 61, 0
2, 86128, Note_on_c, 0, 73, 0
2, 86133, Note_on_c, 0, 79, 0
2, 86137, Note_on_c, 0, 83, 0
2, 86167, Control_c, 0, 64, 0
2, 86168, Note_on_c, 0, 62, 0
2, 86173, Note_on_c, 0, 63, 71
2, 86174, Note_on_c, 0, 58, 68
2, 86178, Note_on_c, 0, 61, 64
2, 86178, Note_on_c, 0, 73, 75
2, 86178, Note_on_c, 0, 83, 77
2, 86179, Note_on_c, 0, 79, 71
2, 86231, Note_on_c, 0, 83, 0
2, 86231, Note_on_c, 0, 82, 65
2, 86240, Note_on_c, 0, 73, 0
2, 86282, Note_on_c, 0, 61, 0
2, 86282, Note_on_c, 0, 63, 0
2, 86284, Note_on_c, 0, 58, 0
2, 86289, Note_on_c, 0, 82, 0
2, 86289, Note_on_c, 0, 70, 66
2, 86294, Note_on_c, 0, 73, 71
2, 86294, Note_on_c, 0, 80, 67
2, 86318, Note_on_c, 0, 79, 0
2, 86328, Note_on_c, 0, 70, 0
2, 86328, Note_on_c, 0, 73, 0
2, 86362, Note_on_c, 0, 80, 0
2, 86368, Note_on_c, 0, 79, 70
2, 86373, Note_on_c, 0, 70, 83
2, 86376, Note_on_c, 0, 73, 77
2, 86417, Note_on_c, 0, 68, 77
2, 86421, Note_on_c, 0, 79, 0
2, 86422, Note_on_c, 0, 76, 82
2, 86425, Note_on_c, 0, 70, 0
2, 86425, Note_on_c, 0, 73, 0
2, 86430, Note_on_c, 0, 71, 82
2, 86440, Note_on_c, 0, 68, 0
2, 86471, Note_on_c, 0, 68, 77
2, 86475, Note_on_c, 0, 71, 0
2, 86491, Note_on_c, 0, 68, 0
2, 86524, Note_on_c, 0, 76, 0
2, 86524, Note_on_c, 0, 59, 69
2, 86525, Note_on_c, 0, 56, 68
2, 86525, Note_on_c, 0, 64, 69
2, 86529, Note_on_c, 0, 71, 70
2, 86529, Note_on_c, 0, 74, 70
2, 86530, Note_on_c, 0, 68, 70
2, 86546, Note_on_c, 0, 59, 0
2, 86553, Note_on_c, 0, 68, 0
2, 86555, Note_on_c, 0, 56, 0
2, 86555, Note_on_c, 0, 64, 0
2, 86600, Note_on_c, 0, 59, 62
2, 86601, Note_on_c, 0, 56, 68
2, 86606, Note_on_c, 0, 64, 62
2, 86606, Note_on_c, 0, 68, 73
2, 86625, Note_on_c, 0, 71, 0
2, 86626, Note_on_c, 0, 68, 0
2, 86630, Note_on_c, 0, 59, 0
2, 86631, Note_on_c, 0, 56, 0
2, 86664, Note_on_c, 0, 64, 0
2, 86668, Note_on_c, 0, 68, 69
2, 86668, Note_on_c, 0, 71, 65
2, 86669, Note_on_c, 0, 74, 0
2, 86669, Note_on_c, 0, 56, 63
2, 86669, Note_on_c, 0, 59, 66
2, 86669, Note_on_c, 0, 63, 64
2, 86669, Note_on_c, 0, 75, 66
2, 86725, Note_on_c, 0, 75, 0
2, 86725, Note_on_c, 0, 71, 0
2, 86725, Note_on_c, 0, 68, 0
2, 86725, Note_on_c, 0, 63, 0
2, 86726, Note_on_c, 0, 66, 67
2, 86739, Note_on_c, 0, 59, 0
2, 86746, Note_on_c, 0, 56, 0
2, 86790, Note_on_c, 0, 56, 63
2, 86795, Note_on_c, 0, 59, 63
2, 86795, Note_on_c, 0, 64, 65
2, 86796, Note_on_c, 0, 66, 0
2, 86822, Note_on_c, 0, 56, 0
2, 86824, Note_on_c, 0, 59, 0
2, 86830, Note_on_c, 0, 64, 0
2, 86865, Note_on_c, 0, 63, 68
2, 86871, Note_on_c, 0, 59, 68
2, 86875, Note_on_c, 0, 56, 67
2, 86883, Control_c, 0, 67, 0
2, 86897, Note_on_c, 0, 56, 0
2, 86898, Note_on_c, 0, 63, 0
2, 86930, Note_on_c, 0, 59, 0
2, 86930, Note_on_c, 0, 56, 79
2, 86930, Note_on_c, 0, 61, 81
2, 86931, Note_on_c, 0, 51, 79
2, 87000, Note_on_c, 0, 71, 70
2, 87000, Note_on_c, 0, 75, 75
2, 87002, Note_on_c, 0, 56, 0
2, 87003, Note_on_c, 0, 80, 68
2, 87008, Note_on_c, 0, 51, 0
2, 87020, Note_on_c, 0, 71, 0
2, 87023, Note_on_c, 0, 75, 0
2, 87024, Note_on_c, 0, 80, 0
2, 87049, Note_on_c, 0, 44, 73
2, 87051, Note_on_c, 0, 61, 0
2, 87052, Note_on_c, 0, 56, 73
2, 87052, Note_on_c, 0, 58, 74
2, 87053, Note_on_c, 0, 51, 73
2, 87069, Note_on_c, 0, 32, 75
2, 87075, Note_on_c, 0, 71, 71
2, 87075, Note_on_c, 0, 75, 73
2, 87075, Note_on_c, 0, 80, 71
2, 87095, Note_on_c, 0, 80, 0
2, 87096, Note_on_c, 0, 71, 0
2, 87097, Note_on_c, 0, 75, 0
2, 87135, Note_on_c, 0, 71, 71
2, 87135, Note_on_c, 0, 80, 69
2, 87148, Note_on_c, 0, 75, 68
2, 87149, Note_on_c, 0, 56, 0
2, 87166, Note_on_c, 0, 71, 0
2, 87168, Note_on_c, 0, 75, 0
2, 87170, Note_on_c, 0, 80, 0
2, 87176, Note_on_c, 0, 44, 0
2, 87176, Note_on_c, 0, 32, 0
2, 87180, Note_on_c, 0, 51, 0
2, 87186, Note_on_c, 0, 47, 63
2, 87193, Note_on_c, 0, 56, 69
2, 87194, Note_on_c, 0, 58, 0
2, 87203, Note_on_c, 0, 59, 63
2, 87217, Note_on_c, 0, 71, 77
2, 87217, Note_on_c, 0, 75, 75
2, 87218, Note_on_c, 0, 80, 78
2, 87245, Note_on_c, 0, 71, 0
2, 87259, Note_on_c, 0, 68, 66
2, 87260, Note_on_c, 0, 83, 67
2, 87318, Note_on_c, 0, 68, 0
2, 87319, Note_on_c, 0, 47, 0
2, 87320, Note_on_c, 0, 71, 67
2, 87324, Note_on_c, 0, 80, 0
2, 87324, Note_on_c, 0, 83, 0
2, 87324, Note_on_c, 0, 79, 65
2, 87328, Note_on_c, 0, 51, 66
2, 87365, Note_on_c, 0, 79, 0
2, 87383, Note_on_c, 0, 51, 0
2, 87390, Note_on_c, 0, 80, 68
2, 87393, Note_on_c, 0, 75, 0
2, 87430, Note_on_c, 0, 59, 0
2, 87430, Note_on_c, 0, 44, 79
2, 87432, Note_on_c, 0, 56, 0
2, 87432, Note_on_c, 0, 71, 0
2, 87433, Note_on_c, 0, 51, 81
2, 87433, Note_on_c, 0, 55, 79
2, 87433, Note_on_c, 0, 70, 74
2, 87434, Note_on_c, 0, 75, 73
2, 87436, Note_on_c, 0, 80, 0
2, 87448, Note_on_c, 0, 73, 70
2, 87494, Note_on_c, 0, 73, 0
2, 87496, Note_on_c, 0, 75, 0
2, 87502, Note_on_c, 0, 76, 71
2, 87505, Control_c, 0, 64, 127
2, 87514, Note_on_c, 0, 70, 0
2, 87561, Note_on_c, 0, 58, 82
2, 87561, Note_on_c, 0, 67, 70
2, 87561, Note_on_c, 0, 70, 75
2, 87562, Note_on_c, 0, 76, 0
2, 87566, Note_on_c, 0, 75, 71
2, 87596, Note_on_c, 0, 75, 0
2, 87597, Control_c, 0, 64, 0
2, 87643, Note_on_c, 0, 67, 0
2, 87648, Note_on_c, 0, 73, 72
2, 87672, Note_on_c, 0, 73, 0
2, 87692, Note_on_c, 0, 67, 68
2, 87702, Note_on_c, 0, 63, 80
2, 87706, Note_on_c, 0, 71, 69
2, 87720, Note_on_c, 0, 70, 0
2, 87740, Note_on_c, 0, 71, 0
2, 87768, Note_on_c, 0, 58, 0
2, 87770, Note_on_c, 0, 70, 71
2, 87809, Note_on_c, 0, 70, 0
2, 87819, Note_on_c, 0, 58, 57
2, 87819, Note_on_c, 0, 61, 60
2, 87819, Note_on_c, 0, 68, 74
2, 87842, Note_on_c, 0, 67, 0
2, 87896, Note_on_c, 0, 67, 69
2, 87907, Note_on_c, 0, 68, 0
2, 87949, Note_on_c, 0, 55, 0
2, 87954, Note_on_c, 0, 59, 81
2, 87955, Note_on_c, 0, 67, 0
2, 87955, Note_on_c, 0, 63, 0
2, 87955, Note_on_c, 0, 56, 75
2, 87956, Note_on_c, 0, 58, 0
2, 87960, Note_on_c, 0, 61, 0
2, 87960, Note_on_c, 0, 68, 77
2, 87984, Note_on_c, 0, 56, 0
2, 88020, Note_on_c, 0, 44, 0
2, 88020, Note_on_c, 0, 56, 81
2, 88028, Note_on_c, 0, 68, 0
2, 88042, Note_on_c, 0, 56, 0
2, 88064, Note_on_c, 0, 59, 0
2, 88076, Note_on_c, 0, 51, 0
2, 88078, Note_on_c, 0, 44, 78
2, 88078, Note_on_c, 0, 47, 76
2, 88080, Note_on_c, 0, 56, 75
2, 88081, Note_on_c, 0, 50, 78
2, 88082, Note_on_c, 0, 68, 81
2, 88102, Note_on_c, 0, 56, 0
2, 88160, Note_on_c, 0, 44, 0
2, 88161, Note_on_c, 0, 47, 0
2, 88161, Note_on_c, 0, 56, 77
2, 88185, Note_on_c, 0, 56, 0
2, 88211, Note_on_c, 0, 50, 0
2, 88217, Note_on_c, 0, 44, 81
2, 88217, Note_on_c, 0, 47, 80
2, 88217, Note_on_c, 0, 51, 76
2, 88224, Note_on_c, 0, 68, 0
2, 88225, Note_on_c, 0, 56, 79
2, 88231, Note_on_c, 0, 71, 80
2, 88271, Note_on_c, 0, 56, 0
2, 88271, Note_on_c, 0, 59, 63
2, 88325, Note_on_c, 0, 59, 0
2, 88331, Note_on_c, 0, 71, 0
2, 88340, Note_on_c, 0, 44, 0
2, 88340, Note_on_c, 0, 47, 0
2, 88340, Note_on_c, 0, 58, 75
2, 88340, Note_on_c, 0, 63, 79
2, 88345, Note_on_c, 0, 51, 0
2, 88345, Note_on_c, 0, 75, 84
2, 88395, Note_on_c, 0, 47, 78
2, 88396, Note_on_c, 0, 44, 74
2, 88401, Note_on_c, 0, 51, 77
2, 88405, Note_on_c, 0, 56, 77
2, 88415, Note_on_c, 0, 63, 0
2, 88424, Note_on_c, 0, 44, 0
2, 88424, Note_on_c, 0, 58, 0
2, 88424, Note_on_c, 0, 47, 0
2, 88424, Note_on_c, 0, 51, 0
2, 88460, Note_on_c, 0, 75, 0
2, 88460, Note_on_c, 0, 44, 76
2, 88461, Note_on_c, 0, 56, 0
2, 88464, Note_on_c, 0, 55, 75
2, 88464, Note_on_c, 0, 63, 79
2, 88465, Note_on_c, 0, 46, 76
2, 88468, Note_on_c, 0, 67, 84
2, 88469, Note_on_c, 0, 51, 80
2, 88469, Note_on_c, 0, 79, 84
2, 88473, Note_on_c, 0, 58, 77
2, 88495, Control_c, 0, 64, 127
2, 88531, Note_on_c, 0, 58, 0
2, 88532, Note_on_c, 0, 56, 76
2, 88551, Note_on_c, 0, 55, 0
2, 88601, Note_on_c, 0, 56, 0
2, 88607, Note_on_c, 0, 67, 0
2, 88608, Note_on_c, 0, 79, 0
2, 88608, Note_on_c, 0, 55, 69
2, 88608, Note_on_c, 0, 70, 85
2, 88612, Note_on_c, 0, 82, 84
2, 88617, Control_c, 0, 64, 0
2, 88655, Note_on_c, 0, 51, 0
2, 88656, Note_on_c, 0, 46, 0
2, 88656, Note_on_c, 0, 44, 0
2, 88660, Note_on_c, 0, 55, 0
2, 88660, Note_on_c, 0, 49, 68
2, 88661, Note_on_c, 0, 52, 75
2, 88662, Note_on_c, 0, 43, 75
2, 88667, Note_on_c, 0, 39, 74
2, 88680, Note_on_c, 0, 63, 0
2, 88681, Note_on_c, 0, 43, 0
2, 88684, Note_on_c, 0, 49, 0
2, 88685, Note_on_c, 0, 61, 73
2, 88686, Note_on_c, 0, 39, 0
2, 88701, Note_on_c, 0, 52, 0
2, 88725, Note_on_c, 0, 61, 0
2, 88729, Note_on_c, 0, 51, 68
2, 88729, Note_on_c, 0, 59, 74
2, 88730, Note_on_c, 0, 43, 74
2, 88730, Note_on_c, 0, 49, 72
2, 88731, Note_on_c, 0, 39, 74
2, 88739, Note_on_c, 0, 82, 0
2, 88739, Note_on_c, 0, 70, 0
2, 88744, Note_on_c, 0, 75, 88
2, 88749, Note_on_c, 0, 87, 92
2, 88794, Note_on_c, 0, 52, 71
2, 88809, Note_on_c, 0, 51, 0
2, 88831, Note_on_c, 0, 52, 0
2, 88862, Note_on_c, 0, 51, 69
2, 88870, Note_on_c, 0, 39, 0
2, 88874, Note_on_c, 0, 49, 0
2, 88895, Note_on_c, 0, 51, 0
2, 88920, Note_on_c, 0, 59, 0
2, 88923, Note_on_c, 0, 43, 0
2, 88928, Note_on_c, 0, 58, 68
2, 88929, Note_on_c, 0, 39, 66
2, 88929, Note_on_c, 0, 49, 71
2, 88948, Note_on_c, 0, 39, 0
2, 88962, Note_on_c, 0, 49, 0
2, 88996, Note_on_c, 0, 32, 68
2, 88997, Note_on_c, 0, 58, 0
2, 89000, Note_on_c, 0, 39, 63
2, 89000, Note_on_c, 0, 47, 65
2, 89005, Note_on_c, 0, 56, 69
2, 89022, Note_on_c, 0, 75, 0
2, 89064, Note_on_c, 0, 56, 0
2, 89074, Note_on_c, 0, 71, 61
2, 89075, Note_on_c, 0, 75, 58
2, 89078, Note_on_c, 0, 87, 0
2, 89079, Note_on_c, 0, 80, 61
2, 89095, Note_on_c, 0, 71, 0
2, 89103, Note_on_c, 0, 75, 0
2, 89109, Note_on_c, 0, 80, 0
2, 89128, Note_on_c, 0, 47, 0
2, 89134, Note_on_c, 0, 44, 70
2, 89137, Note_on_c, 0, 71, 67
2, 89138, Note_on_c, 0, 75, 67
2, 89138, Note_on_c, 0, 80, 65
2, 89160, Note_on_c, 0, 71, 0
2, 89167, Note_on_c, 0, 75, 0
2, 89168, Note_on_c, 0, 80, 0
2, 89217, Note_on_c, 0, 71, 63
2, 89217, Note_on_c, 0, 75, 61
2, 89218, Note_on_c, 0, 80, 61
2, 89237, Note_on_c, 0, 71, 0
2, 89238, Note_on_c, 0, 80, 0
2, 89240, Note_on_c, 0, 75, 0
2, 89246, Note_on_c, 0, 47, 77
2, 89280, Note_on_c, 0, 71, 68
2, 89283, Note_on_c, 0, 75, 71
2, 89285, Note_on_c, 0, 80, 70
2, 89338, Note_on_c, 0, 68, 71
2, 89338, Note_on_c, 0, 83, 68
2, 89342, Note_on_c, 0, 71, 0
2, 89347, Note_on_c, 0, 75, 0
2, 89386, Note_on_c, 0, 51, 74
2, 89390, Note_on_c, 0, 68, 0
2, 89393, Note_on_c, 0, 83, 0
2, 89395, Note_on_c, 0, 71, 68
2, 89395, Note_on_c, 0, 75, 73
2, 89396, Note_on_c, 0, 80, 0
2, 89396, Note_on_c, 0, 79, 75
2, 89462, Note_on_c, 0, 51, 0
2, 89462, Note_on_c, 0, 44, 0
2, 89470, Note_on_c, 0, 79, 0
2, 89475, Note_on_c, 0, 75, 0
2, 89479, Note_on_c, 0, 80, 71
2, 89514, Note_on_c, 0, 47, 0
2, 89520, Note_on_c, 0, 80, 0
2, 89520, Note_on_c, 0, 71, 0
2, 89520, Note_on_c, 0, 44, 79
2, 89520, Note_on_c, 0, 51, 81
2, 89524, Note_on_c, 0, 55, 80
2, 89524, Note_on_c, 0, 70, 74
2, 89524, Note_on_c, 0, 73, 76
2, 89524, Note_on_c, 0, 75, 78
2, 89540, Note_on_c, 0, 39, 0
2, 89544, Note_on_c, 0, 32, 0
2, 89564, Note_on_c, 0, 75, 0
2, 89601, Note_on_c, 0, 76, 74
2, 89613, Control_c, 0, 64, 127
2, 89620, Note_on_c, 0, 70, 0
2, 89635, Note_on_c, 0, 76, 0
2, 89655, Note_on_c, 0, 58, 83
2, 89664, Note_on_c, 0, 67, 72
2, 89664, Note_on_c, 0, 70, 73
2, 89677, Note_on_c, 0, 75, 70
2, 89683, Note_on_c, 0, 73, 0
2, 89698, Note_on_c, 0, 75, 0
2, 89712, Control_c, 0, 64, 0
2, 89731, Note_on_c, 0, 73, 74
2, 89745, Note_on_c, 0, 67, 0
2, 89769, Note_on_c, 0, 73, 0
2, 89793, Note_on_c, 0, 63, 83
2, 89798, Note_on_c, 0, 67, 71
2, 89798, Note_on_c, 0, 71, 75
2, 89812, Note_on_c, 0, 70, 0
2, 89825, Note_on_c, 0, 71, 0
2, 89859, Note_on_c, 0, 70, 70
2, 89877, Note_on_c, 0, 58, 0
2, 89897, Note_on_c, 0, 70, 0
2, 89916, Note_on_c, 0, 68, 73
2, 89925, Note_on_c, 0, 58, 57
2, 89926, Note_on_c, 0, 61, 56
2, 89939, Note_on_c, 0, 67, 0
2, 89945, Note_on_c, 0, 68, 0
2, 89985, Note_on_c, 0, 67, 75
2, 90020, Note_on_c, 0, 67, 0
2, 90027, Note_on_c, 0, 61, 0
2, 90029, Note_on_c, 0, 55, 0
2, 90029, Note_on_c, 0, 58, 0
2, 90030, Note_on_c, 0, 56, 68
2, 90030, Note_on_c, 0, 59, 72
2, 90034, Note_on_c, 0, 63, 0
2, 90043, Note_on_c, 0, 68, 72
2, 90050, Note_on_c, 0, 56, 0
2, 90079, Note_on_c, 0, 59, 0
2, 90080, Note_on_c, 0, 56, 74
2, 90098, Note_on_c, 0, 68, 0
2, 90103, Note_on_c, 0, 44, 0
2, 90109, Note_on_c, 0, 56, 0
2, 90150, Note_on_c, 0, 51, 0
2, 90151, Note_on_c, 0, 68, 79
2, 90152, Note_on_c, 0, 56, 72
2, 90156, Note_on_c, 0, 47, 75
2, 90156, Note_on_c, 0, 50, 74
2, 90157, Note_on_c, 0, 44, 68
2, 90172, Note_on_c, 0, 56, 0
2, 90212, Note_on_c, 0, 44, 0
2, 90213, Note_on_c, 0, 47, 0
2, 90214, Note_on_c, 0, 56, 75
2, 90237, Note_on_c, 0, 56, 0
2, 90267, Note_on_c, 0, 50, 0
2, 90267, Note_on_c, 0, 44, 81
2, 90267, Note_on_c, 0, 47, 78
2, 90271, Note_on_c, 0, 68, 0
2, 90271, Note_on_c, 0, 51, 78
2, 90271, Note_on_c, 0, 56, 76
2, 90276, Note_on_c, 0, 71, 81
2, 90332, Note_on_c, 0, 59, 73
2, 90386, Note_on_c, 0, 59, 0
2, 90389, Note_on_c, 0, 58, 71
2, 90389, Note_on_c, 0, 63, 70
2, 90393, Note_on_c, 0, 71, 0
2, 90393, Note_on_c, 0, 75, 83
2, 90394, Note_on_c, 0, 56, 0
2, 90399, Note_on_c, 0, 47, 0
2, 90400, Note_on_c, 0, 44, 0
2, 90402, Note_on_c, 0, 51, 0
2, 90446, Note_on_c, 0, 58, 0
2, 90456, Note_on_c, 0, 51, 72
2, 90456, Note_on_c, 0, 44, 72
2, 90456, Note_on_c, 0, 47, 72
2, 90456, Note_on_c, 0, 56, 74
2, 90470, Note_on_c, 0, 63, 0
2, 90476, Note_on_c, 0, 44, 0
2, 90477, Note_on_c, 0, 47, 0
2, 90478, Note_on_c, 0, 51, 0
2, 90525, Note_on_c, 0, 63, 82
2, 90528, Note_on_c, 0, 67, 77
2, 90529, Note_on_c, 0, 75, 0
2, 90529, Note_on_c, 0, 44, 80
2, 90529, Note_on_c, 0, 79, 77
2, 90530, Control_c, 0, 64, 127
2, 90533, Note_on_c, 0, 47, 63
2, 90533, Note_on_c, 0, 51, 66
2, 90533, Note_on_c, 0, 55, 68
2, 90534, Note_on_c, 0, 56, 0
2, 90534, Note_on_c, 0, 58, 70
2, 90595, Note_on_c, 0, 55, 0
2, 90597, Note_on_c, 0, 56, 67
2, 90644, Control_c, 0, 64, 0
2, 90653, Note_on_c, 0, 79, 0
2, 90654, Note_on_c, 0, 67, 0
2, 90659, Note_on_c, 0, 70, 82
2, 90659, Note_on_c, 0, 82, 80
2, 90667, Note_on_c, 0, 56, 0
2, 90673, Note_on_c, 0, 55, 64
2, 90717, Note_on_c, 0, 55, 0
2, 90717, Note_on_c, 0, 44, 0
2, 90727, Note_on_c, 0, 47, 0
2, 90727, Note_on_c, 0, 51, 0
2, 90727, Note_on_c, 0, 43, 66
2, 90728, Note_on_c, 0, 39, 63
2, 90732, Note_on_c, 0, 49, 69
2, 90733, Note_on_c, 0, 52, 65
2, 90738, Note_on_c, 0, 63, 0
2, 90742, Note_on_c, 0, 61, 68
2, 90748, Note_on_c, 0, 39, 0
2, 90752, Note_on_c, 0, 49, 0
2, 90756, Note_on_c, 0, 43, 0
2, 90787, Note_on_c, 0, 82, 0
2, 90790, Note_on_c, 0, 70, 0
2, 90792, Note_on_c, 0, 52, 0
2, 90797, Note_on_c, 0, 39, 67
2, 90797, Note_on_c, 0, 43, 64
2, 90797, Note_on_c, 0, 49, 62
2, 90798, Note_on_c, 0, 75, 81
2, 90798, Note_on_c, 0, 87, 81
2, 90800, Note_on_c, 0, 58, 0
2, 90800, Note_on_c, 0, 61, 0
2, 90800, Note_on_c, 0, 51, 66
2, 90801, Note_on_c, 0, 59, 62
2, 90848, Note_on_c, 0, 51, 0
2, 90855, Note_on_c, 0, 52, 66
2, 90879, Note_on_c, 0, 39, 0
2, 90880, Note_on_c, 0, 49, 0
2, 90905, Note_on_c, 0, 52, 0
2, 90906, Note_on_c, 0, 51, 69
2, 90961, Note_on_c, 0, 32, 69
2, 90966, Note_on_c, 0, 39, 63
2, 90971, Note_on_c, 0, 49, 62
2, 90971, Note_on_c, 0, 58, 66
2, 90980, Note_on_c, 0, 43, 0
2, 90984, Note_on_c, 0, 51, 0
2, 90985, Note_on_c, 0, 59, 0
2, 90988, Note_on_c, 0, 39, 0
2, 90990, Note_on_c, 0, 32, 0
2, 91032, Note_on_c, 0, 32, 74
2, 91036, Note_on_c, 0, 47, 78
2, 91037, Note_on_c, 0, 39, 76
2, 91042, Note_on_c, 0, 56, 81
2, 91052, Note_on_c, 0, 49, 0
2, 91052, Note_on_c, 0, 75, 0
2, 91056, Note_on_c, 0, 58, 0
2, 91102, Note_on_c, 0, 87, 0
2, 91117, Note_on_c, 0, 71, 69
2, 91123, Note_on_c, 0, 75, 73
2, 91124, Note_on_c, 0, 80, 70
2, 91144, Note_on_c, 0, 75, 0
2, 91147, Note_on_c, 0, 71, 0
2, 91147, Note_on_c, 0, 80, 0
2, 91158, Note_on_c, 0, 39, 0
2, 91166, Note_on_c, 0, 32, 0
2, 91169, Note_on_c, 0, 47, 0
2, 91171, Note_on_c, 0, 56, 0
2, 91173, Note_on_c, 0, 71, 76
2, 91177, Note_on_c, 0, 75, 80
2, 91177, Note_on_c, 0, 80, 76
2, 91207, Note_on_c, 0, 80, 0
2, 91207, Note_on_c, 0, 75, 0
2, 91208, Note_on_c, 0, 71, 0
2, 91234, Control_c, 0, 64, 127
2, 91244, Note_on_c, 0, 71, 77
2, 91244, Note_on_c, 0, 75, 77
2, 91248, Note_on_c, 0, 80, 77
2, 91266, Note_on_c, 0, 71, 0
2, 91272, Note_on_c, 0, 80, 0
2, 91272, Note_on_c, 0, 75, 0
2, 91318, Note_on_c, 0, 71, 69
2, 91322, Note_on_c, 0, 75, 74
2, 91328, Note_on_c, 0, 80, 71
2, 91343, Control_c, 0, 64, 0
2, 91368, Note_on_c, 0, 71, 0
2, 91383, Note_on_c, 0, 80, 0
2, 91384, Note_on_c, 0, 78, 68
2, 91416, Note_on_c, 0, 78, 0
2, 91427, Note_on_c, 0, 75, 0
2, 91438, Note_on_c, 0, 71, 70
2, 91438, Note_on_c, 0, 76, 68
2, 91442, Note_on_c, 0, 68, 74
2, 91463, Note_on_c, 0, 68, 0
2, 91466, Note_on_c, 0, 71, 0
2, 91476, Note_on_c, 0, 76, 0
2, 91506, Note_on_c, 0, 71, 73
2, 91507, Note_on_c, 0, 68, 69
2, 91507, Note_on_c, 0, 75, 71
2, 91529, Note_on_c, 0, 75, 0
2, 91529, Note_on_c, 0, 71, 0
2, 91548, Note_on_c, 0, 68, 0
2, 91564, Note_on_c, 0, 66, 77
2, 91568, Note_on_c, 0, 75, 77
2, 91569, Note_on_c, 0, 70, 80
2, 91628, Note_on_c, 0, 63, 71
2, 91632, Note_on_c, 0, 66, 0
2, 91652, Note_on_c, 0, 63, 0
2, 91671, Note_on_c, 0, 60, 72
2, 91672, Note_on_c, 0, 52, 70
2, 91672, Note_on_c, 0, 54, 69
2, 91677, Note_on_c, 0, 70, 0
2, 91680, Note_on_c, 0, 75, 0
2, 91680, Note_on_c, 0, 63, 75
2, 91681, Note_on_c, 0, 66, 72
2, 91694, Note_on_c, 0, 52, 0
2, 91694, Note_on_c, 0, 54, 0
2, 91700, Note_on_c, 0, 69, 74
2, 91710, Note_on_c, 0, 63, 0
2, 91746, Note_on_c, 0, 63, 69
2, 91752, Note_on_c, 0, 52, 74
2, 91752, Note_on_c, 0, 54, 73
2, 91770, Note_on_c, 0, 52, 0
2, 91771, Note_on_c, 0, 54, 0
2, 91775, Note_on_c, 0, 66, 0
2, 91775, Note_on_c, 0, 63, 0
2, 91819, Note_on_c, 0, 60, 0
2, 91823, Note_on_c, 0, 69, 0
2, 91824, Note_on_c, 0, 66, 67
2, 91824, Note_on_c, 0, 52, 79
2, 91827, Note_on_c, 0, 63, 81
2, 91827, Note_on_c, 0, 70, 68
2, 91828, Note_on_c, 0, 54, 74
2, 91830, Note_on_c, 0, 58, 78
2, 91885, Note_on_c, 0, 66, 0
2, 91889, Note_on_c, 0, 52, 0
2, 91889, Note_on_c, 0, 63, 0
2, 91890, Note_on_c, 0, 70, 0
2, 91890, Note_on_c, 0, 54, 0
2, 91891, Note_on_c, 0, 61, 68
2, 91940, Note_on_c, 0, 61, 0
2, 91944, Note_on_c, 0, 58, 0
2, 91945, Note_on_c, 0, 52, 66
2, 91945, Note_on_c, 0, 54, 68
2, 91945, Note_on_c, 0, 59, 65
2, 91966, Note_on_c, 0, 54, 0
2, 91967, Note_on_c, 0, 52, 0
2, 92017, Note_on_c, 0, 59, 0
2, 92017, Note_on_c, 0, 52, 66
2, 92017, Note_on_c, 0, 54, 66
2, 92017, Note_on_c, 0, 58, 65
2, 92038, Note_on_c, 0, 52, 0
2, 92064, Note_on_c, 0, 54, 0
2, 92072, Note_on_c, 0, 58, 0
2, 92072, Note_on_c, 0, 56, 79
2, 92073, Note_on_c, 0, 49, 76
2, 92078, Note_on_c, 0, 52, 81
2, 92149, Note_on_c, 0, 49, 0
2, 92151, Note_on_c, 0, 64, 72
2, 92154, Note_on_c, 0, 52, 0
2, 92155, Note_on_c, 0, 70, 72
2, 92155, Note_on_c, 0, 75, 70
2, 92175, Note_on_c, 0, 75, 0
2, 92175, Note_on_c, 0, 70, 0
2, 92179, Note_on_c, 0, 64, 0
2, 92208, Note_on_c, 0, 56, 0
2, 92209, Note_on_c, 0, 52, 72
2, 92209, Note_on_c, 0, 53, 75
2, 92210, Note_on_c, 0, 49, 72
2, 92219, Note_on_c, 0, 64, 71
2, 92224, Note_on_c, 0, 70, 75
2, 92224, Note_on_c, 0, 75, 69
2, 92244, Note_on_c, 0, 70, 0
2, 92245, Note_on_c, 0, 75, 0
2, 92248, Note_on_c, 0, 64, 0
2, 92286, Note_on_c, 0, 70, 72
2, 92287, Note_on_c, 0, 64, 69
2, 92292, Note_on_c, 0, 75, 70
2, 92295, Note_on_c, 0, 49, 0
2, 92296, Note_on_c, 0, 52, 0
2, 92307, Note_on_c, 0, 64, 0
2, 92308, Note_on_c, 0, 70, 0
2, 92314, Note_on_c, 0, 75, 0
2, 92347, Note_on_c, 0, 53, 0
2, 92352, Note_on_c, 0, 49, 67
2, 92356, Note_on_c, 0, 64, 63
2, 92356, Note_on_c, 0, 70, 68
2, 92357, Note_on_c, 0, 52, 63
2, 92357, Note_on_c, 0, 54, 67
2, 92361, Note_on_c, 0, 75, 64
2, 92380, Note_on_c, 0, 49, 0
2, 92385, Note_on_c, 0, 54, 0
2, 92385, Note_on_c, 0, 52, 0
2, 92422, Control_c, 0, 64, 127
2, 92435, Note_on_c, 0, 75, 0
2, 92435, Note_on_c, 0, 73, 64
2, 92439, Note_on_c, 0, 64, 0
2, 92471, Note_on_c, 0, 73, 0
2, 92491, Note_on_c, 0, 70, 0
2, 92491, Note_on_c, 0, 64, 59
2, 92496, Note_on_c, 0, 61, 57
2, 92496, Note_on_c, 0, 71, 62
2, 92513, Control_c, 0, 64, 0
2, 92516, Note_on_c, 0, 61, 0
2, 92520, Note_on_c, 0, 64, 0
2, 92525, Note_on_c, 0, 71, 0
2, 92566, Note_on_c, 0, 64, 56
2, 92569, Note_on_c, 0, 61, 56
2, 92575, Note_on_c, 0, 70, 69
2, 92603, Note_on_c, 0, 70, 0
2, 92628, Note_on_c, 0, 64, 0
2, 92637, Note_on_c, 0, 61, 0
2, 92637, Note_on_c, 0, 59, 66
2, 92638, Note_on_c, 0, 63, 63
2, 92641, Note_on_c, 0, 68, 79
2, 92664, Note_on_c, 0, 59, 0
2, 92688, Note_on_c, 0, 63, 0
2, 92703, Note_on_c, 0, 59, 68
2, 92723, Note_on_c, 0, 59, 0
2, 92736, Note_on_c, 0, 68, 0
2, 92757, Note_on_c, 0, 56, 68
2, 92757, Note_on_c, 0, 59, 72
2, 92757, Note_on_c, 0, 63, 69
2, 92758, Note_on_c, 0, 47, 75
2, 92760, Note_on_c, 0, 65, 71
2, 92761, Note_on_c, 0, 51, 74
2, 92777, Note_on_c, 0, 47, 0
2, 92781, Note_on_c, 0, 51, 0
2, 92784, Note_on_c, 0, 59, 0
2, 92804, Note_on_c, 0, 63, 0
2, 92825, Note_on_c, 0, 47, 75
2, 92829, Note_on_c, 0, 51, 71
2, 92829, Note_on_c, 0, 59, 71
2, 92844, Note_on_c, 0, 47, 0
2, 92846, Note_on_c, 0, 56, 0
2, 92848, Note_on_c, 0, 51, 0
2, 92849, Note_on_c, 0, 59, 0
2, 92851, Note_on_c, 0, 65, 0
2, 92881, Note_on_c, 0, 63, 71
2, 92883, Note_on_c, 0, 47, 57
2, 92883, Note_on_c, 0, 51, 62
2, 92883, Note_on_c, 0, 54, 62
2, 92883, Note_on_c, 0, 66, 69
2, 92886, Note_on_c, 0, 59, 66
2, 92936, Note_on_c, 0, 59, 0
2, 92936, Note_on_c, 0, 51, 0
2, 92937, Note_on_c, 0, 66, 0
2, 92937, Note_on_c, 0, 63, 0
2, 92942, Note_on_c, 0, 47, 0
2, 92956, Note_on_c, 0, 58, 65
2, 92991, Note_on_c, 0, 58, 0
2, 92991, Note_on_c, 0, 47, 64
2, 92995, Note_on_c, 0, 51, 68
2, 92995, Note_on_c, 0, 56, 63
2, 92996, Note_on_c, 0, 54, 0
2, 93009, Note_on_c, 0, 47, 0
2, 93014, Note_on_c, 0, 51, 0
2, 93046, Note_on_c, 0, 56, 0
2, 93051, Note_on_c, 0, 47, 70
2, 93051, Note_on_c, 0, 51, 68
2, 93051, Note_on_c, 0, 54, 74
2, 93070, Note_on_c, 0, 47, 0
2, 93107, Note_on_c, 0, 51, 0
2, 93115, Note_on_c, 0, 54, 0
2, 93119, Note_on_c, 0, 47, 70
2, 93122, Note_on_c, 0, 52, 69
2, 93124, Note_on_c, 0, 42, 70
2, 93190, Note_on_c, 0, 71, 68
2, 93191, Note_on_c, 0, 66, 69
2, 93195, Note_on_c, 0, 78, 69
2, 93195, Note_on_c, 0, 83, 70
2, 93202, Note_on_c, 0, 42, 0
2, 93214, Note_on_c, 0, 47, 0
2, 93214, Control_c, 0, 67, 127
2, 93217, Note_on_c, 0, 66, 0
2, 93217, Note_on_c, 0, 71, 0
2, 93222, Note_on_c, 0, 78, 0
2, 93223, Note_on_c, 0, 83, 0
2, 93246, Control_c, 0, 67, 0
2, 93254, Note_on_c, 0, 66, 70
2, 93258, Note_on_c, 0, 71, 71
2, 93263, Note_on_c, 0, 52, 0
2, 93263, Note_on_c, 0, 47, 63
2, 93263, Note_on_c, 0, 50, 65
2, 93264, Note_on_c, 0, 42, 64
2, 93266, Note_on_c, 0, 78, 76
2, 93272, Note_on_c, 0, 83, 74
2, 93278, Note_on_c, 0, 71, 0
2, 93281, Note_on_c, 0, 66, 0
2, 93291, Note_on_c, 0, 83, 0
2, 93295, Note_on_c, 0, 78, 0
2, 93331, Note_on_c, 0, 66, 75
2, 93335, Note_on_c, 0, 71, 76
2, 93335, Note_on_c, 0, 78, 75
2, 93335, Note_on_c, 0, 83, 73
2, 93343, Note_on_c, 0, 47, 0
2, 93345, Note_on_c, 0, 42, 0
2, 93356, Note_on_c, 0, 71, 0
2, 93358, Note_on_c, 0, 66, 0
2, 93358, Note_on_c, 0, 83, 0
2, 93362, Note_on_c, 0, 78, 0
2, 93387, Note_on_c, 0, 50, 0
2, 93393, Note_on_c, 0, 47, 69
2, 93394, Note_on_c, 0, 42, 65
2, 93396, Note_on_c, 0, 71, 79
2, 93397, Note_on_c, 0, 51, 67
2, 93397, Note_on_c, 0, 66, 78
2, 93401, Note_on_c, 0, 78, 77
2, 93402, Note_on_c, 0, 83, 77
2, 93438, Control_c, 0, 64, 127
2, 93474, Note_on_c, 0, 83, 0
2, 93474, Note_on_c, 0, 71, 0
2, 93474, Note_on_c, 0, 66, 0
2, 93475, Note_on_c, 0, 70, 78
2, 93475, Note_on_c, 0, 82, 74
2, 93513, Note_on_c, 0, 82, 0
2, 93533, Note_on_c, 0, 71, 71
2, 93534, Note_on_c, 0, 75, 77
2, 93536, Note_on_c, 0, 70, 0
2, 93539, Note_on_c, 0, 80, 78
2, 93552, Control_c, 0, 64, 0
2, 93553, Note_on_c, 0, 78, 0
2, 93557, Note_on_c, 0, 71, 0
2, 93563, Note_on_c, 0, 75, 0
2, 93573, Note_on_c, 0, 80, 0
2, 93603, Note_on_c, 0, 71, 78
2, 93603, Note_on_c, 0, 78, 78
2, 93608, Note_on_c, 0, 75, 78
2, 93633, Note_on_c, 0, 78, 0
2, 93648, Note_on_c, 0, 47, 0
2, 93648, Note_on_c, 0, 51, 0
2, 93653, Note_on_c, 0, 42, 0
2, 93657, Note_on_c, 0, 75, 0
2, 93658, Note_on_c, 0, 71, 0
2, 93664, Note_on_c, 0, 70, 83
2, 93664, Note_on_c, 0, 74, 77
2, 93664, Note_on_c, 0, 78, 84
2, 93719, Note_on_c, 0, 66, 84
2, 93726, Note_on_c, 0, 70, 0
2, 93748, Note_on_c, 0, 66, 0
2, 93776, Note_on_c, 0, 73, 76
2, 93777, Note_on_c, 0, 74, 0
2, 93777, Note_on_c, 0, 56, 67
2, 93777, Note_on_c, 0, 64, 64
2, 93777, Note_on_c, 0, 66, 73
2, 93777, Note_on_c, 0, 70, 76
2, 93778, Note_on_c, 0, 58, 66
2, 93783, Note_on_c, 0, 78, 0
2, 93798, Note_on_c, 0, 56, 0
2, 93798, Note_on_c, 0, 66, 0
2, 93798, Note_on_c, 0, 58, 0
2, 93842, Note_on_c, 0, 66, 73
2, 93847, Note_on_c, 0, 56, 64
2, 93848, Note_on_c, 0, 58, 69
2, 93866, Note_on_c, 0, 70, 0
2, 93868, Note_on_c, 0, 56, 0
2, 93868, Note_on_c, 0, 58, 0
2, 93877, Note_on_c, 0, 66, 0
2, 93913, Note_on_c, 0, 56, 67
2, 93913, Note_on_c, 0, 58, 64
2, 93913, Note_on_c, 0, 62, 63
2, 93913, Note_on_c, 0, 70, 66
2, 93917, Note_on_c, 0, 64, 0
2, 93918, Note_on_c, 0, 73, 0
2, 93918, Note_on_c, 0, 66, 65
2, 93922, Note_on_c, 0, 74, 65
2, 93984, Note_on_c, 0, 66, 0
2, 93987, Note_on_c, 0, 70, 0
2, 93987, Note_on_c, 0, 74, 0
2, 93988, Note_on_c, 0, 65, 67
2, 93990, Note_on_c, 0, 58, 0
2, 93996, Note_on_c, 0, 56, 0
2, 94047, Note_on_c, 0, 65, 0
2, 94047, Note_on_c, 0, 56, 65
2, 94048, Note_on_c, 0, 63, 69
2, 94051, Note_on_c, 0, 58, 69
2, 94061, Note_on_c, 0, 62, 0
2, 94067, Note_on_c, 0, 56, 0
2, 94072, Note_on_c, 0, 58, 0
2, 94110, Note_on_c, 0, 56, 67
2, 94110, Note_on_c, 0, 58, 66
2, 94110, Note_on_c, 0, 62, 68
2, 94113, Note_on_c, 0, 63, 0
2, 94140, Note_on_c, 0, 56, 0
2, 94145, Note_on_c, 0, 62, 0
2, 94185, Note_on_c, 0, 58, 0
2, 94188, Note_on_c, 0, 53, 77
2, 94188, Note_on_c, 0, 59, 77
2, 94189, Note_on_c, 0, 56, 74
2, 94256, Note_on_c, 0, 68, 68
2, 94261, Note_on_c, 0, 74, 70
2, 94261, Note_on_c, 0, 78, 71
2, 94270, Note_on_c, 0, 53, 0
2, 94272, Note_on_c, 0, 56, 0
2, 94282, Note_on_c, 0, 74, 0
2, 94282, Note_on_c, 0, 78, 0
2, 94286, Note_on_c, 0, 68, 0
2, 94320, Note_on_c, 0, 59, 0
2, 94321, Note_on_c, 0, 57, 67
2, 94322, Note_on_c, 0, 53, 69
2, 94322, Note_on_c, 0, 56, 63
2, 94326, Note_on_c, 0, 68, 69
2, 94326, Note_on_c, 0, 78, 71
2, 94327, Note_on_c, 0, 74, 69
2, 94346, Note_on_c, 0, 68, 0
2, 94347, Note_on_c, 0, 74, 0
2, 94355, Note_on_c, 0, 78, 0
2, 94404, Note_on_c, 0, 78, 74
2, 94405, Note_on_c, 0, 74, 73
2, 94410, Note_on_c, 0, 68, 71
2, 94415, Note_on_c, 0, 56, 0
2, 94419, Note_on_c, 0, 53, 0
2, 94425, Note_on_c, 0, 74, 0
2, 94430, Note_on_c, 0, 68, 0
2, 94435, Note_on_c, 0, 78, 0
2, 94458, Note_on_c, 0, 57, 0
2, 94468, Note_on_c, 0, 58, 68
2, 94469, Note_on_c, 0, 53, 64
2, 94469, Note_on_c, 0, 56, 62
2, 94469, Note_on_c, 0, 68, 69
2, 94473, Note_on_c, 0, 74, 73
2, 94473, Note_on_c, 0, 78, 72
2, 94476, Control_c, 0, 64, 127
2, 94536, Note_on_c, 0, 78, 0
2, 94540, Note_on_c, 0, 77, 67
2, 94545, Note_on_c, 0, 68, 0
2, 94570, Note_on_c, 0, 77, 0
2, 94593, Control_c, 0, 64, 0
2, 94595, Note_on_c, 0, 65, 66
2, 94596, Note_on_c, 0, 68, 67
2, 94602, Note_on_c, 0, 74, 0
2, 94611, Note_on_c, 0, 75, 63
2, 94618, Note_on_c, 0, 65, 0
2, 94619, Note_on_c, 0, 68, 0
2, 94645, Note_on_c, 0, 75, 0
2, 94659, Note_on_c, 0, 58, 0
2, 94659, Note_on_c, 0, 53, 0
2, 94660, Note_on_c, 0, 56, 0
2, 94660, Note_on_c, 0, 65, 64
2, 94665, Note_on_c, 0, 68, 68
2, 94665, Note_on_c, 0, 74, 66
2, 94695, Note_on_c, 0, 74, 0
2, 94720, Note_on_c, 0, 65, 0
2, 94725, Note_on_c, 0, 68, 0
2, 94726, Note_on_c, 0, 66, 74
2, 94730, Note_on_c, 0, 71, 78
2, 94779, Note_on_c, 0, 63, 74
2, 94809, Note_on_c, 0, 63, 0
2, 94812, Note_on_c, 0, 66, 0
2, 94849, Note_on_c, 0, 51, 69
2, 94849, Note_on_c, 0, 54, 68
2, 94853, Note_on_c, 0, 63, 68
2, 94853, Note_on_c, 0, 66, 68
2, 94854, Note_on_c, 0, 59, 70
2, 94858, Note_on_c, 0, 69, 73
2, 94864, Note_on_c, 0, 71, 0
2, 94870, Note_on_c, 0, 51, 0
2, 94870, Note_on_c, 0, 54, 0
2, 94892, Note_on_c, 0, 63, 0
2, 94921, Note_on_c, 0, 63, 72
2, 94922, Note_on_c, 0, 51, 71
2, 94922, Note_on_c, 0, 54, 73
2, 94928, Note_on_c, 0, 66, 0
2, 94943, Note_on_c, 0, 51, 0
2, 94943, Note_on_c, 0, 54, 0
2, 94951, Note_on_c, 0, 63, 0
2, 94981, Note_on_c, 0, 59, 0
2, 94982, Note_on_c, 0, 69, 0
2, 94992, Note_on_c, 0, 63, 76
2, 94992, Note_on_c, 0, 66, 62
2, 94992, Note_on_c, 0, 70, 64
2, 94993, Note_on_c, 0, 58, 78
2, 94994, Note_on_c, 0, 51, 78
2, 94994, Note_on_c, 0, 54, 81
2, 95058, Note_on_c, 0, 63, 0
2, 95058, Note_on_c, 0, 61, 69
2, 95062, Note_on_c, 0, 66, 0
2, 95062, Note_on_c, 0, 70, 0
2, 95063, Note_on_c, 0, 51, 0
2, 95065, Note_on_c, 0, 54, 0
2, 95112, Note_on_c, 0, 61, 0
2, 95115, Note_on_c, 0, 58, 0
2, 95124, Note_on_c, 0, 51, 68
2, 95124, Note_on_c, 0, 54, 67
2, 95124, Note_on_c, 0, 59, 69
2, 95145, Note_on_c, 0, 54, 0
2, 95145, Note_on_c, 0, 51, 0
2, 95195, Note_on_c, 0, 59, 0
2, 95200, Note_on_c, 0, 58, 68
2, 95201, Note_on_c, 0, 51, 69
2, 95201, Note_on_c, 0, 54, 63
2, 95221, Note_on_c, 0, 51, 0
2, 95261, Note_on_c, 0, 54, 0
2, 95266, Note_on_c, 0, 58, 0
2, 95271, Note_on_c, 0, 46, 84
2, 95272, Note_on_c, 0, 39, 81
2, 95275, Note_on_c, 0, 56, 83
2, 95276, Note_on_c, 0, 51, 84
2, 95299, Control_c, 0, 64, 127
2, 95340, Note_on_c, 0, 75, 80
2, 95340, Note_on_c, 0, 87, 77
2, 95360, Note_on_c, 0, 75, 0
2, 95364, Note_on_c, 0, 87, 0
2, 95384, Note_on_c, 0, 56, 0
2, 95385, Note_on_c, 0, 51, 0
2, 95391, Note_on_c, 0, 53, 74
2, 95401, Control_c, 0, 64, 0
2, 95405, Note_on_c, 0, 87, 76
2, 95406, Note_on_c, 0, 75, 78
2, 95427, Note_on_c, 0, 75, 0
2, 95434, Note_on_c, 0, 87, 0
2, 95459, Note_on_c, 0, 75, 76
2, 95459, Note_on_c, 0, 87, 78
2, 95480, Note_on_c, 0, 75, 0
2, 95494, Note_on_c, 0, 87, 0
2, 95497, Note_on_c, 0, 39, 0
2, 95499, Note_on_c, 0, 46, 0
2, 95504, Note_on_c, 0, 53, 0
2, 95510, Note_on_c, 0, 54, 84
2, 95519, Note_on_c, 0, 75, 92
2, 95523, Note_on_c, 0, 87, 88
2, 95543, Note_on_c, 0, 54, 0
2, 95571, Note_on_c, 0, 78, 79
2, 95575, Note_on_c, 0, 90, 83
2, 95627, Note_on_c, 0, 90, 0
2, 95627, Note_on_c, 0, 77, 80
2, 95631, Note_on_c, 0, 78, 0
2, 95644, Note_on_c, 0, 87, 0
2, 95645, Note_on_c, 0, 75, 0
2, 95646, Note_on_c, 0, 89, 84
2, 95688, Note_on_c, 0, 89, 0
2, 95688, Note_on_c, 0, 77, 0
2, 95693, Note_on_c, 0, 75, 82
2, 95693, Note_on_c, 0, 87, 84
2, 95729, Note_on_c, 0, 29, 92
2, 95734, Note_on_c, 0, 41, 90
2, 95742, Note_on_c, 0, 87, 0
2, 95742, Note_on_c, 0, 75, 0
2, 95742, Note_on_c, 0, 74, 91
2, 95742, Note_on_c, 0, 86, 89
2, 95782, Note_on_c, 0, 59, 65
2, 95786, Note_on_c, 0, 68, 59
2, 95788, Control_c, 0, 64, 127
2, 95804, Note_on_c, 0, 68, 0
2, 95807, Note_on_c, 0, 59, 0
2, 95834, Note_on_c, 0, 59, 80
2, 95839, Note_on_c, 0, 68, 84
2, 95859, Note_on_c, 0, 68, 0
2, 95862, Note_on_c, 0, 59, 0
2, 95896, Note_on_c, 0, 59, 83
2, 95901, Control_c, 0, 64, 0
2, 95905, Note_on_c, 0, 68, 82
2, 95924, Note_on_c, 0, 68, 0
2, 95924, Note_on_c, 0, 59, 0
2, 95971, Note_on_c, 0, 59, 77
2, 95976, Note_on_c, 0, 68, 93
2, 96017, Note_on_c, 0, 68, 0
2, 96024, Note_on_c, 0, 59, 0
2, 96026, Note_on_c, 0, 56, 80
2, 96026, Note_on_c, 0, 71, 74
2, 96084, Note_on_c, 0, 56, 0
2, 96090, Note_on_c, 0, 71, 0
2, 96090, Note_on_c, 0, 58, 79
2, 96094, Note_on_c, 0, 70, 78
2, 96147, Note_on_c, 0, 58, 0
2, 96157, Note_on_c, 0, 59, 81
2, 96168, Note_on_c, 0, 70, 0
2, 96172, Note_on_c, 0, 68, 75
2, 96188, Note_on_c, 0, 41, 0
2, 96197, Note_on_c, 0, 29, 0
2, 96197, Note_on_c, 0, 30, 87
2, 96207, Note_on_c, 0, 42, 89
2, 96209, Note_on_c, 0, 59, 0
2, 96210, Note_on_c, 0, 74, 0
2, 96211, Note_on_c, 0, 66, 87
2, 96215, Note_on_c, 0, 75, 93
2, 96216, Note_on_c, 0, 58, 87
2, 96220, Note_on_c, 0, 86, 0
2, 96220, Note_on_c, 0, 87, 93
2, 96233, Note_on_c, 0, 42, 0
2, 96242, Note_on_c, 0, 68, 0
2, 96244, Note_on_c, 0, 30, 0
2, 96246, Note_on_c, 0, 58, 0
2, 96249, Note_on_c, 0, 66, 0
2, 96260, Note_on_c, 0, 75, 0
2, 96269, Note_on_c, 0, 87, 0
2, 96310, Note_on_c, 0, 58, 91
2, 96330, Note_on_c, 0, 58, 0
2, 96363, Note_on_c, 0, 58, 92
2, 96397, Note_on_c, 0, 58, 0
2, 96423, Note_on_c, 0, 51, 93
2, 96427, Note_on_c, 0, 58, 87
2, 96427, Note_on_c, 0, 63, 92
2, 96429, Note_on_c, 0, 42, 92
2, 96520, Note_on_c, 0, 58, 0
2, 96556, Note_on_c, 0, 42, 0
2, 96559, Note_on_c, 0, 51, 0
2, 96566, Note_on_c, 0, 63, 0
2, 96571, Note_on_c, 0, 65, 89
2, 96572, Note_on_c, 0, 62, 80
2, 96573, Note_on_c, 0, 46, 81
2, 96573, Note_on_c, 0, 53, 81
2, 96573, Note_on_c, 0, 58, 82
2, 96655, Note_on_c, 0, 58, 0
2, 96691, Note_on_c, 0, 62, 0
2, 96696, Note_on_c, 0, 46, 0
2, 96697, Note_on_c, 0, 53, 0
2, 96705, Note_on_c, 0, 65, 0
2, 96706, Note_on_c, 0, 51, 91
2, 96706, Note_on_c, 0, 54, 87
2, 96706, Note_on_c, 0, 58, 86
2, 96706, Note_on_c, 0, 63, 93
2, 96706, Note_on_c, 0, 66, 98
2, 96736, Control_c, 0, 64, 127
2, 96810, Control_c, 0, 64, 0
2, 96890, Note_on_c, 0, 58, 0
2, 96936, Note_on_c, 0, 54, 0
2, 96938, Note_on_c, 0, 66, 0
2, 96939, Note_on_c, 0, 51, 0
2, 96945, Note_on_c, 0, 63, 0
2, 96946, Note_on_c, 0, 53, 91
2, 96946, Note_on_c, 0, 62, 88
2, 96946, Note_on_c, 0, 65, 98
2, 96947, Note_on_c, 0, 46, 87
2, 96947, Note_on_c, 0, 58, 87
2, 97196, Note_on_c, 0, 46, 0
2, 97201, Note_on_c, 0, 58, 0
2, 97204, Note_on_c, 0, 53, 0
2, 97205, Note_on_c, 0, 62, 0
2, 97206, Note_on_c, 0, 49, 98
2, 97207, Note_on_c, 0, 66, 96
2, 97208, Note_on_c, 0, 42, 98
2, 97211, Note_on_c, 0, 65, 0
2, 97212, Note_on_c, 0, 54, 92
2, 97212, Note_on_c, 0, 59, 93
2, 97212, Note_on_c, 0, 61, 93
2, 97252, Control_c, 0, 64, 127
2, 97256, Note_on_c, 0, 78, 61
2, 97261, Note_on_c, 0, 90, 62
2, 97281, Note_on_c, 0, 90, 0
2, 97285, Note_on_c, 0, 78, 0
2, 97314, Control_c, 0, 64, 0
2, 97319, Note_on_c, 0, 59, 0
2, 97324, Note_on_c, 0, 56, 88
2, 97328, Note_on_c, 0, 90, 87
2, 97329, Note_on_c, 0, 78, 82
2, 97350, Note_on_c, 0, 78, 0
2, 97350, Note_on_c, 0, 90, 0
2, 97398, Note_on_c, 0, 78, 87
2, 97403, Note_on_c, 0, 90, 84
2, 97428, Note_on_c, 0, 78, 0
2, 97430, Note_on_c, 0, 90, 0
2, 97462, Note_on_c, 0, 56, 0
2, 97462, Note_on_c, 0, 78, 97
2, 97462, Note_on_c, 0, 90, 96
2, 97466, Note_on_c, 0, 57, 95
2, 97536, Note_on_c, 0, 93, 81
2, 97540, Note_on_c, 0, 81, 79
2, 97568, Note_on_c, 0, 54, 0
2, 97570, Note_on_c, 0, 49, 0
2, 97581, Note_on_c, 0, 42, 0
2, 97584, Note_on_c, 0, 57, 0
2, 97584, Note_on_c, 0, 66, 0
2, 97584, Note_on_c, 0, 61, 0
2, 97589, Note_on_c, 0, 81, 0
2, 97594, Note_on_c, 0, 92, 75
2, 97595, Note_on_c, 0, 80, 76
2, 97600, Note_on_c, 0, 78, 0
2, 97601, Note_on_c, 0, 90, 0
2, 97606, Note_on_c, 0, 93, 0
2, 97652, Note_on_c, 0, 92, 0
2, 97654, Note_on_c, 0, 80, 0
2, 97657, Note_on_c, 0, 90, 80
2, 97658, Note_on_c, 0, 78, 86
2, 97706, Note_on_c, 0, 32, 99
2, 97709, Note_on_c, 0, 44, 96
2, 97723, Note_on_c, 0, 90, 0
2, 97724, Note_on_c, 0, 78, 0
2, 97724, Note_on_c, 0, 77, 97
2, 97724, Note_on_c, 0, 89, 99
2, 97765, Control_c, 0, 64, 127
2, 97769, Note_on_c, 0, 62, 61
2, 97769, Note_on_c, 0, 71, 62
2, 97789, Note_on_c, 0, 62, 0
2, 97798, Note_on_c, 0, 71, 0
2, 97848, Note_on_c, 0, 62, 87
2, 97848, Note_on_c, 0, 71, 92
2, 97872, Control_c, 0, 64, 0
2, 97876, Note_on_c, 0, 62, 0
2, 97877, Note_on_c, 0, 71, 0
2, 97918, Note_on_c, 0, 62, 88
2, 97923, Note_on_c, 0, 71, 90
2, 97946, Note_on_c, 0, 71, 0
2, 97947, Note_on_c, 0, 62, 0
2, 97985, Note_on_c, 0, 62, 92
2, 97989, Note_on_c, 0, 71, 99
2, 98040, Note_on_c, 0, 59, 61
2, 98045, Note_on_c, 0, 74, 81
2, 98100, Note_on_c, 0, 59, 0
2, 98107, Note_on_c, 0, 74, 0
2, 98111, Note_on_c, 0, 61, 80
2, 98111, Note_on_c, 0, 73, 80
2, 98113, Note_on_c, 0, 62, 0
2, 98115, Note_on_c, 0, 71, 0
2, 98161, Note_on_c, 0, 61, 0
2, 98165, Note_on_c, 0, 73, 0
2, 98171, Note_on_c, 0, 62, 82
2, 98171, Note_on_c, 0, 71, 84
2, 98210, Note_on_c, 0, 32, 0
2, 98219, Note_on_c, 0, 77, 0
2, 98224, Note_on_c, 0, 78, 92
2, 98229, Note_on_c, 0, 89, 0
2, 98229, Note_on_c, 0, 90, 96
2, 98230, Note_on_c, 0, 44, 0
2, 98230, Note_on_c, 0, 61, 93
2, 98231, Note_on_c, 0, 45, 93
2, 98232, Note_on_c, 0, 62, 0
2, 98232, Note_on_c, 0, 71, 0
2, 98232, Note_on_c, 0, 33, 99
2, 98233, Note_on_c, 0, 69, 97
2, 98288, Note_on_c, 0, 61, 0
2, 98340, Note_on_c, 0, 61, 95
2, 98360, Note_on_c, 0, 61, 0
2, 98411, Note_on_c, 0, 61, 96
2, 98425, Note_on_c, 0, 45, 0
2, 98431, Note_on_c, 0, 61, 0
2, 98463, Note_on_c, 0, 33, 0
2, 98469, Note_on_c, 0, 78, 0
2, 98470, Note_on_c, 0, 45, 93
2, 98472, Note_on_c, 0, 90, 0
2, 98473, Note_on_c, 0, 69, 0
2, 98473, Note_on_c, 0, 66, 94
2, 98474, Note_on_c, 0, 54, 99
2, 98484, Note_on_c, 0, 61, 97
2, 98540, Note_on_c, 0, 61, 0
2, 98575, Note_on_c, 0, 54, 0
2, 98581, Note_on_c, 0, 45, 0
2, 98586, Note_on_c, 0, 56, 98
2, 98587, Note_on_c, 0, 49, 92
2, 98590, Note_on_c, 0, 65, 99
2, 98591, Note_on_c, 0, 66, 0
2, 98591, Note_on_c, 0, 68, 92
2, 98595, Note_on_c, 0, 61, 94
2, 98685, Note_on_c, 0, 61, 0
2, 98729, Note_on_c, 0, 49, 0
2, 98730, Note_on_c, 0, 56, 0
2, 98730, Note_on_c, 0, 68, 0
2, 98736, Note_on_c, 0, 54, 99
2, 98736, Note_on_c, 0, 57, 94
2, 98736, Note_on_c, 0, 61, 95
2, 98739, Note_on_c, 0, 65, 0
2, 98740, Note_on_c, 0, 66, 92
2, 98740, Note_on_c, 0, 69, 94
2, 98770, Control_c, 0, 64, 127
2, 98845, Control_c, 0, 64, 0
2, 98930, Note_on_c, 0, 61, 0
2, 98977, Note_on_c, 0, 66, 0
2, 98977, Note_on_c, 0, 54, 0
2, 98978, Note_on_c, 0, 57, 0
2, 98979, Note_on_c, 0, 69, 0
2, 98979, Note_on_c, 0, 49, 93
2, 98982, Note_on_c, 0, 56, 91
2, 98982, Note_on_c, 0, 65, 93
2, 98983, Note_on_c, 0, 61, 88
2, 98983, Note_on_c, 0, 68, 99
2, 99214, Note_on_c, 0, 61, 0
2, 99216, Note_on_c, 0, 56, 0
2, 99220, Note_on_c, 0, 68, 0
2, 99223, Note_on_c, 0, 49, 0
2, 99225, Note_on_c, 0, 57, 95
2, 99226, Note_on_c, 0, 45, 95
2, 99226, Note_on_c, 0, 62, 93
2, 99227, Note_on_c, 0, 52, 95
2, 99230, Note_on_c, 0, 65, 0
2, 99230, Note_on_c, 0, 64, 96
2, 99230, Note_on_c, 0, 69, 99
2, 99279, Control_c, 0, 64, 127
2, 99288, Note_on_c, 0, 93, 63
2, 99316, Note_on_c, 0, 93, 0
2, 99343, Note_on_c, 0, 62, 0
2, 99348, Note_on_c, 0, 59, 97
2, 99362, Note_on_c, 0, 81, 75
2, 99362, Note_on_c, 0, 93, 80
2, 99382, Note_on_c, 0, 81, 0
2, 99383, Note_on_c, 0, 93, 0
2, 99427, Note_on_c, 0, 93, 84
2, 99432, Note_on_c, 0, 81, 80
2, 99449, Note_on_c, 0, 93, 0
2, 99451, Note_on_c, 0, 81, 0
2, 99476, Note_on_c, 0, 59, 0
2, 99496, Note_on_c, 0, 60, 95
2, 99498, Control_c, 0, 64, 0
2, 99510, Note_on_c, 0, 81, 93
2, 99510, Note_on_c, 0, 93, 95
2, 99555, Note_on_c, 0, 84, 58
2, 99561, Note_on_c, 0, 96, 62
2, 99610, Note_on_c, 0, 81, 0
2, 99611, Note_on_c, 0, 84, 0
2, 99615, Note_on_c, 0, 93, 0
2, 99615, Note_on_c, 0, 96, 0
2, 99617, Note_on_c, 0, 83, 69
2, 99621, Note_on_c, 0, 95, 74
2, 99666, Note_on_c, 0, 95, 0
2, 99666, Note_on_c, 0, 83, 0
2, 99666, Note_on_c, 0, 93, 74
2, 99670, Note_on_c, 0, 81, 70
2, 99717, Note_on_c, 0, 81, 0
2, 99723, Note_on_c, 0, 77, 93
2, 99728, Note_on_c, 0, 89, 92
2, 99731, Note_on_c, 0, 93, 0
2, 99737, Note_on_c, 0, 45, 0
2, 99737, Note_on_c, 0, 57, 0
2, 99738, Note_on_c, 0, 52, 0
2, 99738, Note_on_c, 0, 60, 0
2, 99743, Note_on_c, 0, 64, 0
2, 99783, Note_on_c, 0, 77, 0
2, 99787, Note_on_c, 0, 76, 80
2, 99796, Note_on_c, 0, 89, 0
2, 99796, Note_on_c, 0, 88, 75
2, 99837, Note_on_c, 0, 76, 0
2, 99848, Note_on_c, 0, 64, 81
2, 99848, Note_on_c, 0, 74, 78
2, 99852, Note_on_c, 0, 88, 0
2, 99857, Note_on_c, 0, 86, 78
2, 99907, Note_on_c, 0, 74, 0
2, 99913, Note_on_c, 0, 84, 79
2, 99917, Note_on_c, 0, 86, 0
2, 99918, Note_on_c, 0, 72, 77
2, 99960, Note_on_c, 0, 60, 84
2, 99968, Note_on_c, 0, 72, 0
2, 99973, Note_on_c, 0, 84, 0
2, 99974, Note_on_c, 0, 71, 78
2, 99974, Note_on_c, 0, 83, 76
2, 100024, Note_on_c, 0, 71, 0
2, 100033, Note_on_c, 0, 83, 0
2, 100038, Note_on_c, 0, 81, 76
2, 100094, Note_on_c, 0, 57, 87
2, 100097, Note_on_c, 0, 81, 0
2, 100098, Note_on_c, 0, 69, 0
2, 100099, Note_on_c, 0, 64, 0
2, 100099, Note_on_c, 0, 65, 78
2, 100104, Note_on_c, 0, 77, 78
2, 100149, Note_on_c, 0, 76, 80
2, 100150, Note_on_c, 0, 77, 0
2, 100158, Note_on_c, 0, 64, 99
2, 100159, Note_on_c, 0, 65, 0
2, 100205, Note_on_c, 0, 60, 0
2, 100207, Note_on_c, 0, 76, 0
2, 100216, Note_on_c, 0, 64, 0
2, 100217, Note_on_c, 0, 52, 97
2, 100217, Note_on_c, 0, 62, 92
2, 100218, Note_on_c, 0, 43, 93
2, 100285, Control_c, 0, 64, 127
2, 100293, Note_on_c, 0, 93, 77
2, 100296, Note_on_c, 0, 81, 80
2, 100318, Note_on_c, 0, 81, 0
2, 100320, Note_on_c, 0, 93, 0
2, 100345, Note_on_c, 0, 62, 0
2, 100345, Note_on_c, 0, 59, 93
2, 100360, Note_on_c, 0, 93, 86
2, 100361, Note_on_c, 0, 81, 81
2, 100385, Note_on_c, 0, 81, 0
2, 100390, Note_on_c, 0, 93, 0
2, 100406, Control_c, 0, 64, 0
2, 100411, Note_on_c, 0, 81, 84
2, 100411, Note_on_c, 0, 93, 81
2, 100434, Note_on_c, 0, 81, 0
2, 100439, Note_on_c, 0, 93, 0
2, 100469, Note_on_c, 0, 59, 0
2, 100473, Note_on_c, 0, 60, 87
2, 100478, Note_on_c, 0, 93, 98
2, 100479, Note_on_c, 0, 81, 94
2, 100512, Note_on_c, 0, 81, 0
2, 100516, Note_on_c, 0, 93, 0
2, 100534, Note_on_c, 0, 84, 65
2, 100548, Note_on_c, 0, 96, 65
2, 100589, Note_on_c, 0, 84, 0
2, 100593, Note_on_c, 0, 83, 73
2, 100599, Note_on_c, 0, 96, 0
2, 100599, Note_on_c, 0, 95, 73
2, 100639, Note_on_c, 0, 83, 0
2, 100644, Note_on_c, 0, 95, 0
2, 100644, Note_on_c, 0, 81, 74
2, 100644, Note_on_c, 0, 93, 69
2, 100689, Note_on_c, 0, 43, 0
2, 100694, Note_on_c, 0, 57, 0
2, 100695, Note_on_c, 0, 60, 0
2, 100695, Note_on_c, 0, 52, 0
2, 100700, Note_on_c, 0, 81, 0
2, 100700, Note_on_c, 0, 69, 86
2, 100700, Note_on_c, 0, 77, 89
2, 100704, Note_on_c, 0, 93, 0
2, 100704, Note_on_c, 0, 89, 88
2, 100754, Note_on_c, 0, 89, 0
2, 100754, Note_on_c, 0, 76, 77
2, 100759, Note_on_c, 0, 88, 78
2, 100760, Note_on_c, 0, 77, 0
2, 100810, Note_on_c, 0, 76, 0
2, 100811, Note_on_c, 0, 64, 83
2, 100814, Note_on_c, 0, 74, 75
2, 100815, Note_on_c, 0, 88, 0
2, 100815, Note_on_c, 0, 86, 81
2, 100871, Note_on_c, 0, 74, 0
2, 100874, Note_on_c, 0, 84, 77
2, 100879, Note_on_c, 0, 86, 0
2, 100879, Note_on_c, 0, 72, 78
2, 100935, Note_on_c, 0, 72, 0
2, 100935, Note_on_c, 0, 84, 0
2, 100941, Note_on_c, 0, 60, 86
2, 100941, Note_on_c, 0, 71, 80
2, 100941, Note_on_c, 0, 83, 76
2, 100950, Note_on_c, 0, 69, 0
2, 100992, Note_on_c, 0, 71, 0
2, 101002, Note_on_c, 0, 69, 74
2, 101003, Note_on_c, 0, 83, 0
2, 101014, Note_on_c, 0, 81, 81
2, 101058, Note_on_c, 0, 81, 0
2, 101058, Note_on_c, 0, 57, 86
2, 101058, Note_on_c, 0, 65, 75
2, 101059, Note_on_c, 0, 69, 0
2, 101064, Note_on_c, 0, 77, 79
2, 101073, Note_on_c, 0, 64, 0
2, 101122, Note_on_c, 0, 65, 0
2, 101122, Note_on_c, 0, 77, 0
2, 101123, Note_on_c, 0, 76, 79
2, 101127, Note_on_c, 0, 64, 86
2, 101173, Note_on_c, 0, 41, 90
2, 101181, Note_on_c, 0, 53, 91
2, 101181, Note_on_c, 0, 62, 88
2, 101186, Note_on_c, 0, 60, 0
2, 101190, Note_on_c, 0, 64, 0
2, 101207, Control_c, 0, 64, 127
2, 101228, Note_on_c, 0, 76, 0
2, 101238, Note_on_c, 0, 81, 76
2, 101238, Note_on_c, 0, 93, 76
2, 101259, Note_on_c, 0, 81, 0
2, 101266, Note_on_c, 0, 93, 0
2, 101273, Control_c, 0, 64, 0
2, 101285, Note_on_c, 0, 62, 0
2, 101295, Note_on_c, 0, 59, 84
2, 101299, Note_on_c, 0, 93, 83
2, 101300, Note_on_c, 0, 81, 87
2, 101319, Note_on_c, 0, 81, 0
2, 101327, Note_on_c, 0, 93, 0
2, 101367, Note_on_c, 0, 81, 81
2, 101367, Note_on_c, 0, 93, 85
2, 101390, Note_on_c, 0, 81, 0
2, 101391, Note_on_c, 0, 59, 0
2, 101395, Note_on_c, 0, 93, 0
2, 101402, Note_on_c, 0, 60, 82
2, 101435, Note_on_c, 0, 93, 95
2, 101436, Note_on_c, 0, 81, 100
2, 101471, Note_on_c, 0, 84, 58
2, 101474, Note_on_c, 0, 96, 60
2, 101519, Note_on_c, 0, 81, 0
2, 101523, Note_on_c, 0, 84, 0
2, 101525, Note_on_c, 0, 96, 0
2, 101525, Note_on_c, 0, 93, 0
2, 101528, Note_on_c, 0, 95, 80
2, 101529, Note_on_c, 0, 83, 74
2, 101567, Note_on_c, 0, 83, 0
2, 101575, Note_on_c, 0, 95, 0
2, 101575, Note_on_c, 0, 81, 74
2, 101575, Note_on_c, 0, 93, 76
2, 101586, Note_on_c, 0, 60, 0
2, 101586, Note_on_c, 0, 57, 0
2, 101615, Note_on_c, 0, 93, 0
2, 101633, Note_on_c, 0, 41, 0
2, 101633, Note_on_c, 0, 53, 0
2, 101634, Note_on_c, 0, 57, 86
2, 101634, Note_on_c, 0, 60, 87
2, 101634, Note_on_c, 0, 65, 81
2, 101635, Note_on_c, 0, 52, 87
2, 101641, Note_on_c, 0, 40, 93
2, 101652, Note_on_c, 0, 81, 0
2, 101669, Control_c, 0, 64, 127
2, 101690, Note_on_c, 0, 69, 79
2, 101704, Note_on_c, 0, 81, 82
2, 101720, Note_on_c, 0, 69, 0
2, 101725, Note_on_c, 0, 81, 0
2, 101753, Note_on_c, 0, 65, 0
2, 101754, Note_on_c, 0, 63, 87
2, 101754, Note_on_c, 0, 69, 96
2, 101760, Control_c, 0, 64, 0
2, 101761, Note_on_c, 0, 81, 91
2, 101783, Note_on_c, 0, 81, 0
2, 101783, Note_on_c, 0, 69, 0
2, 101818, Note_on_c, 0, 69, 92
2, 101823, Note_on_c, 0, 81, 95
2, 101843, Note_on_c, 0, 81, 0
2, 101843, Note_on_c, 0, 69, 0
2, 101870, Note_on_c, 0, 63, 0
2, 101871, Note_on_c, 0, 64, 87
2, 101890, Note_on_c, 0, 69, 99
2, 101899, Note_on_c, 0, 81, 97
2, 101932, Note_on_c, 0, 72, 59
2, 101942, Note_on_c, 0, 84, 65
2, 101979, Note_on_c, 0, 72, 0
2, 101983, Note_on_c, 0, 71, 79
2, 101988, Note_on_c, 0, 84, 0
2, 101988, Note_on_c, 0, 69, 0
2, 101989, Note_on_c, 0, 81, 0
2, 101993, Note_on_c, 0, 83, 77
2, 102035, Note_on_c, 0, 83, 0
2, 102035, Note_on_c, 0, 71, 0
2, 102036, Note_on_c, 0, 69, 79
2, 102040, Note_on_c, 0, 57, 0
2, 102046, Note_on_c, 0, 81, 79
2, 102090, Note_on_c, 0, 64, 0
2, 102090, Note_on_c, 0, 52, 0
2, 102092, Note_on_c, 0, 40, 0
2, 102092, Note_on_c, 0, 53, 83
2, 102092, Note_on_c, 0, 62, 87
2, 102093, Note_on_c, 0, 41, 82
2, 102095, Note_on_c, 0, 81, 0
2, 102095, Note_on_c, 0, 69, 0
2, 102096, Note_on_c, 0, 60, 0
2, 102096, Note_on_c, 0, 57, 88
2, 102143, Control_c, 0, 64, 127
2, 102145, Note_on_c, 0, 69, 81
2, 102151, Note_on_c, 0, 81, 78
2, 102170, Note_on_c, 0, 81, 0
2, 102174, Note_on_c, 0, 69, 0
2, 102206, Note_on_c, 0, 62, 0
2, 102216, Note_on_c, 0, 59, 84
2, 102216, Note_on_c, 0, 69, 89
2, 102223, Control_c, 0, 64, 0
2, 102226, Note_on_c, 0, 81, 90
2, 102244, Note_on_c, 0, 69, 0
2, 102245, Note_on_c, 0, 81, 0
2, 102276, Note_on_c, 0, 69, 87
2, 102281, Note_on_c, 0, 81, 88
2, 102296, Note_on_c, 0, 69, 0
2, 102300, Note_on_c, 0, 81, 0
2, 102327, Note_on_c, 0, 59, 0
2, 102329, Note_on_c, 0, 60, 80
2, 102329, Note_on_c, 0, 69, 97
2, 102338, Note_on_c, 0, 81, 98
2, 102358, Note_on_c, 0, 69, 0
2, 102360, Note_on_c, 0, 81, 0
2, 102386, Note_on_c, 0, 72, 56
2, 102402, Note_on_c, 0, 84, 57
2, 102456, Note_on_c, 0, 84, 0
2, 102456, Note_on_c, 0, 72, 0
2, 102460, Note_on_c, 0, 71, 81
2, 102462, Note_on_c, 0, 83, 77
2, 102517, Note_on_c, 0, 71, 0
2, 102517, Note_on_c, 0, 69, 77
2, 102518, Note_on_c, 0, 83, 0
2, 102528, Note_on_c, 0, 81, 74
2, 102530, Note_on_c, 0, 60, 0
2, 102530, Note_on_c, 0, 57, 0
2, 102577, Note_on_c, 0, 41, 0
2, 102579, Note_on_c, 0, 40, 86
2, 102581, Note_on_c, 0, 53, 0
2, 102583, Note_on_c, 0, 69, 0
2, 102583, Note_on_c, 0, 60, 84
2, 102584, Note_on_c, 0, 52, 80
2, 102588, Note_on_c, 0, 57, 81
2, 102588, Note_on_c, 0, 65, 81
2, 102602, Note_on_c, 0, 81, 0
2, 102618, Control_c, 0, 64, 127
2, 102636, Note_on_c, 0, 69, 79
2, 102646, Note_on_c, 0, 81, 75
2, 102656, Note_on_c, 0, 69, 0
2, 102665, Note_on_c, 0, 81, 0
2, 102665, Control_c, 0, 64, 0
2, 102695, Note_on_c, 0, 63, 76
2, 102695, Note_on_c, 0, 69, 88
2, 102698, Note_on_c, 0, 65, 0
2, 102703, Note_on_c, 0, 81, 88
2, 102721, Note_on_c, 0, 69, 0
2, 102722, Note_on_c, 0, 81, 0
2, 102767, Note_on_c, 0, 69, 95
2, 102771, Note_on_c, 0, 81, 99
2, 102787, Note_on_c, 0, 69, 0
2, 102791, Note_on_c, 0, 81, 0
2, 102805, Note_on_c, 0, 52, 0
2, 102806, Note_on_c, 0, 40, 0
2, 102815, Note_on_c, 0, 63, 0
2, 102816, Note_on_c, 0, 57, 0
2, 102819, Note_on_c, 0, 60, 0
2, 102821, Note_on_c, 0, 64, 81
2, 102830, Note_on_c, 0, 69, 99
2, 102849, Note_on_c, 0, 81, 93
2, 102860, Note_on_c, 0, 64, 0
2, 102884, Note_on_c, 0, 72, 63
2, 102885, Note_on_c, 0, 84, 56
2, 102910, Note_on_c, 0, 81, 0
2, 102913, Note_on_c, 0, 69, 0
2, 102924, Note_on_c, 0, 84, 0
2, 102925, Note_on_c, 0, 72, 0
2, 102930, Note_on_c, 0, 71, 78
2, 102930, Note_on_c, 0, 83, 81
2, 102965, Note_on_c, 0, 71, 0
2, 102971, Note_on_c, 0, 83, 0
2, 102971, Note_on_c, 0, 69, 81
2, 102976, Note_on_c, 0, 81, 75
2, 103025, Control_c, 0, 64, 127
2, 103026, Note_on_c, 0, 81, 0
2, 103026, Note_on_c, 0, 63, 82
2, 103027, Note_on_c, 0, 57, 81
2, 103027, Note_on_c, 0, 60, 86
2, 103028, Note_on_c, 0, 41, 86
2, 103028, Note_on_c, 0, 53, 85
2, 103032, Note_on_c, 0, 69, 0
2, 103067, Note_on_c, 0, 69, 74
2, 103071, Note_on_c, 0, 81, 75
2, 103085, Control_c, 0, 64, 0
2, 103092, Note_on_c, 0, 81, 0
2, 103095, Note_on_c, 0, 69, 0
2, 103129, Note_on_c, 0, 69, 86
2, 103135, Note_on_c, 0, 81, 90
2, 103152, Note_on_c, 0, 69, 0
2, 103154, Note_on_c, 0, 81, 0
2, 103186, Note_on_c, 0, 69, 92
2, 103191, Note_on_c, 0, 81, 88
2, 103211, Note_on_c, 0, 69, 0
2, 103212, Note_on_c, 0, 81, 0
2, 103234, Note_on_c, 0, 53, 0
2, 103237, Note_on_c, 0, 41, 0
2, 103239, Note_on_c, 0, 57, 0
2, 103243, Note_on_c, 0, 52, 81
2, 103244, Note_on_c, 0, 60, 0
2, 103244, Note_on_c, 0, 40, 77
2, 103244, Note_on_c, 0, 64, 80
2, 103248, Note_on_c, 0, 63, 0
2, 103269, Note_on_c, 0, 69, 95
2, 103272, Note_on_c, 0, 81, 97
2, 103281, Note_on_c, 0, 40, 0
2, 103289, Note_on_c, 0, 52, 0
2, 103292, Note_on_c, 0, 64, 0
2, 103324, Note_on_c, 0, 72, 60
2, 103325, Note_on_c, 0, 84, 58
2, 103344, Note_on_c, 0, 81, 0
2, 103375, Note_on_c, 0, 69, 0
2, 103376, Note_on_c, 0, 72, 0
2, 103387, Note_on_c, 0, 84, 0
2, 103387, Note_on_c, 0, 71, 77
2, 103388, Note_on_c, 0, 83, 80
2, 103422, Note_on_c, 0, 71, 0
2, 103424, Note_on_c, 0, 83, 0
2, 103425, Note_on_c, 0, 69, 77
2, 103434, Note_on_c, 0, 81, 80
2, 103463, Control_c, 0, 64, 127
2, 103471, Note_on_c, 0, 41, 84
2, 103480, Note_on_c, 0, 53, 85
2, 103480, Note_on_c, 0, 60, 80
2, 103480, Note_on_c, 0, 63, 80
2, 103485, Note_on_c, 0, 57, 82
2, 103487, Note_on_c, 0, 81, 0
2, 103489, Note_on_c, 0, 69, 0
2, 103521, Control_c, 0, 64, 0
2, 103546, Note_on_c, 0, 69, 74
2, 103551, Note_on_c, 0, 81, 79
2, 103567, Note_on_c, 0, 69, 0
2, 103572, Note_on_c, 0, 81, 0
2, 103602, Note_on_c, 0, 69, 89
2, 103612, Note_on_c, 0, 81, 86
2, 103623, Note_on_c, 0, 69, 0
2, 103632, Note_on_c, 0, 81, 0
2, 103669, Note_on_c, 0, 81, 91
2, 103690, Note_on_c, 0, 81, 0
2, 103703, Note_on_c, 0, 41, 0
2, 103708, Note_on_c, 0, 63, 0
2, 103709, Note_on_c, 0, 53, 0
2, 103714, Note_on_c, 0, 64, 78
2, 103715, Note_on_c, 0, 60, 0
2, 103717, Note_on_c, 0, 57, 0
2, 103719, Note_on_c, 0, 52, 76
2, 103720, Note_on_c, 0, 40, 77
2, 103728, Note_on_c, 0, 69, 86
2, 103749, Note_on_c, 0, 64, 0
2, 103750, Note_on_c, 0, 81, 87
2, 103754, Note_on_c, 0, 52, 0
2, 103758, Note_on_c, 0, 40, 0
2, 103784, Note_on_c, 0, 72, 58
2, 103784, Note_on_c, 0, 84, 57
2, 103825, Note_on_c, 0, 72, 0
2, 103830, Note_on_c, 0, 71, 78
2, 103831, Note_on_c, 0, 84, 0
2, 103831, Note_on_c, 0, 69, 0
2, 103834, Note_on_c, 0, 81, 0
2, 103847, Note_on_c, 0, 83, 76
2, 103886, Note_on_c, 0, 71, 0
2, 103888, Note_on_c, 0, 69, 74
2, 103892, Note_on_c, 0, 83, 0
2, 103897, Note_on_c, 0, 81, 78
2, 103935, Control_c, 0, 64, 127
2, 103935, Note_on_c, 0, 40, 79
2, 103939, Note_on_c, 0, 55, 80
2, 103943, Note_on_c, 0, 81, 0
2, 103943, Note_on_c, 0, 60, 75
2, 103944, Note_on_c, 0, 52, 79
2, 103944, Note_on_c, 0, 57, 77
2, 103948, Note_on_c, 0, 69, 0
2, 103999, Control_c, 0, 64, 0
2, 103999, Note_on_c, 0, 69, 74
2, 104010, Note_on_c, 0, 81, 74
2, 104030, Note_on_c, 0, 81, 0
2, 104035, Note_on_c, 0, 69, 0
2, 104054, Note_on_c, 0, 69, 76
2, 104069, Note_on_c, 0, 81, 74
2, 104088, Note_on_c, 0, 69, 0
2, 104089, Note_on_c, 0, 81, 0
2, 104120, Note_on_c, 0, 69, 93
2, 104126, Note_on_c, 0, 81, 88
2, 104140, Note_on_c, 0, 69, 0
2, 104144, Note_on_c, 0, 81, 0
2, 104148, Note_on_c, 0, 40, 0
2, 104154, Note_on_c, 0, 52, 0
2, 104159, Note_on_c, 0, 55, 0
2, 104160, Note_on_c, 0, 39, 74
2, 104163, Note_on_c, 0, 57, 0
2, 104163, Note_on_c, 0, 51, 74
2, 104163, Note_on_c, 0, 61, 70
2, 104164, Note_on_c, 0, 60, 0
2, 104184, Note_on_c, 0, 69, 88
2, 104193, Note_on_c, 0, 81, 86
2, 104202, Note_on_c, 0, 61, 0
2, 104202, Note_on_c, 0, 51, 0
2, 104203, Note_on_c, 0, 39, 0
2, 104222, Note_on_c, 0, 73, 60
2, 104235, Note_on_c, 0, 85, 57
2, 104273, Note_on_c, 0, 69, 0
2, 104276, Note_on_c, 0, 73, 0
2, 104280, Note_on_c, 0, 71, 75
2, 104280, Note_on_c, 0, 83, 75
2, 104286, Note_on_c, 0, 85, 0
2, 104290, Note_on_c, 0, 81, 0
2, 104322, Note_on_c, 0, 71, 0
2, 104327, Note_on_c, 0, 69, 73
2, 104330, Note_on_c, 0, 83, 0
2, 104333, Control_c, 0, 64, 127
2, 104336, Note_on_c, 0, 81, 75
2, 104386, Note_on_c, 0, 57, 81
2, 104387, Note_on_c, 0, 52, 74
2, 104387, Note_on_c, 0, 55, 79
2, 104387, Note_on_c, 0, 60, 75
2, 104389, Note_on_c, 0, 40, 76
2, 104391, Note_on_c, 0, 81, 0
2, 104396, Note_on_c, 0, 69, 0
2, 104417, Control_c, 0, 64, 0
2, 104448, Note_on_c, 0, 69, 81
2, 104451, Note_on_c, 0, 81, 75
2, 104472, Note_on_c, 0, 81, 0
2, 104476, Note_on_c, 0, 69, 0
2, 104503, Note_on_c, 0, 69, 80
2, 104511, Note_on_c, 0, 81, 76
2, 104531, Note_on_c, 0, 81, 0
2, 104531, Note_on_c, 0, 69, 0
2, 104568, Note_on_c, 0, 69, 81
2, 104570, Note_on_c, 0, 81, 76
2, 104586, Note_on_c, 0, 69, 0
2, 104590, Note_on_c, 0, 81, 0
2, 104595, Note_on_c, 0, 57, 0
2, 104595, Note_on_c, 0, 52, 0
2, 104596, Note_on_c, 0, 51, 68
2, 104597, Note_on_c, 0, 55, 0
2, 104598, Note_on_c, 0, 60, 0
2, 104606, Note_on_c, 0, 40, 0
2, 104606, Note_on_c, 0, 39, 68
2, 104610, Note_on_c, 0, 61, 75
2, 104630, Note_on_c, 0, 69, 87
2, 104634, Note_on_c, 0, 81, 93
2, 104644, Note_on_c, 0, 39, 0
2, 104648, Note_on_c, 0, 61, 0
2, 104654, Note_on_c, 0, 51, 0
2, 104667, Note_on_c, 0, 85, 62
2, 104668, Note_on_c, 0, 73, 61
2, 104722, Note_on_c, 0, 81, 0
2, 104723, Note_on_c, 0, 73, 0
2, 104728, Note_on_c, 0, 85, 0
2, 104728, Note_on_c, 0, 69, 0
2, 104728, Note_on_c, 0, 83, 72
2, 104729, Note_on_c, 0, 71, 68
2, 104775, Note_on_c, 0, 71, 0
2, 104781, Note_on_c, 0, 69, 70
2, 104784, Note_on_c, 0, 83, 0
2, 104790, Note_on_c, 0, 81, 73
2, 104799, Control_c, 0, 64, 127
2, 104813, Note_on_c, 0, 69, 0
2, 104827, Note_on_c, 0, 55, 77
2, 104829, Note_on_c, 0, 40, 78
2, 104831, Note_on_c, 0, 60, 75
2, 104832, Note_on_c, 0, 57, 76
2, 104832, Note_on_c, 0, 52, 77
2, 104855, Control_c, 0, 64, 0
2, 104874, Note_on_c, 0, 81, 0
2, 104876, Note_on_c, 0, 69, 77
2, 104904, Note_on_c, 0, 69, 0
2, 104937, Note_on_c, 0, 69, 80
2, 104966, Note_on_c, 0, 69, 0
2, 105006, Note_on_c, 0, 69, 75
2, 105025, Note_on_c, 0, 69, 0
2, 105052, Note_on_c, 0, 52, 0
2, 105053, Note_on_c, 0, 55, 0
2, 105055, Note_on_c, 0, 60, 0
2, 105056, Note_on_c, 0, 40, 0
2, 105060, Note_on_c, 0, 61, 73
2, 105061, Note_on_c, 0, 39, 69
2, 105061, Note_on_c, 0, 51, 70
2, 105062, Note_on_c, 0, 57, 0
2, 105070, Note_on_c, 0, 69, 80
2, 105100, Note_on_c, 0, 39, 0
2, 105105, Note_on_c, 0, 51, 0
2, 105105, Note_on_c, 0, 61, 0
2, 105132, Note_on_c, 0, 73, 62
2, 105178, Note_on_c, 0, 73, 0
2, 105188, Note_on_c, 0, 71, 73
2, 105202, Note_on_c, 0, 69, 0
2, 105242, Note_on_c, 0, 71, 0
2, 105250, Note_on_c, 0, 69, 74
2, 105276, Note_on_c, 0, 69, 0
2, 105276, Control_c, 0, 64, 127
2, 105279, Note_on_c, 0, 55, 78
2, 105279, Note_on_c, 0, 57, 74
2, 105280, Note_on_c, 0, 40, 79
2, 105280, Note_on_c, 0, 52, 79
2, 105280, Note_on_c, 0, 60, 78
2, 105328, Note_on_c, 0, 69, 74
2, 105336, Control_c, 0, 64, 0
2, 105357, Note_on_c, 0, 69, 0
2, 105396, Note_on_c, 0, 69, 71
2, 105425, Note_on_c, 0, 69, 0
2, 105459, Note_on_c, 0, 69, 70
2, 105478, Note_on_c, 0, 69, 0
2, 105480, Note_on_c, 0, 52, 0
2, 105486, Note_on_c, 0, 40, 0
2, 105486, Note_on_c, 0, 60, 0
2, 105487, Note_on_c, 0, 39, 69
2, 105488, Note_on_c, 0, 55, 0
2, 105490, Note_on_c, 0, 57, 0
2, 105492, Note_on_c, 0, 51, 68
2, 105492, Note_on_c, 0, 61, 71
2, 105520, Note_on_c, 0, 39, 0
2, 105523, Note_on_c, 0, 69, 72
2, 105526, Note_on_c, 0, 51, 0
2, 105533, Note_on_c, 0, 61, 0
2, 105558, Note_on_c, 0, 73, 73
2, 105617, Note_on_c, 0, 69, 0
2, 105618, Note_on_c, 0, 73, 0
2, 105619, Note_on_c, 0, 71, 70
2, 105669, Note_on_c, 0, 71, 0
2, 105674, Note_on_c, 0, 69, 71
2, 105715, Note_on_c, 0, 69, 0
2, 105722, Note_on_c, 0, 45, 80
2, 105723, Note_on_c, 0, 48, 76
2, 105723, Note_on_c, 0, 55, 75
2, 105724, Note_on_c, 0, 40, 61
2, 105728, Control_c, 0, 64, 127
2, 105781, Note_on_c, 0, 57, 75
2, 105789, Control_c, 0, 64, 0
2, 105809, Note_on_c, 0, 57, 0
2, 105849, Note_on_c, 0, 57, 75
2, 105870, Note_on_c, 0, 57, 0
2, 105895, Note_on_c, 0, 57, 73
2, 105925, Note_on_c, 0, 57, 0
2, 105951, Note_on_c, 0, 48, 0
2, 105951, Note_on_c, 0, 40, 0
2, 105957, Note_on_c, 0, 39, 74
2, 105957, Note_on_c, 0, 49, 73
2, 105958, Note_on_c, 0, 55, 0
2, 105966, Note_on_c, 0, 57, 70
2, 106044, Note_on_c, 0, 61, 63
2, 106064, Note_on_c, 0, 39, 0
2, 106068, Note_on_c, 0, 57, 0
2, 106073, Note_on_c, 0, 45, 0
2, 106074, Note_on_c, 0, 49, 0
2, 106074, Note_on_c, 0, 61, 0
2, 106080, Note_on_c, 0, 59, 69
2, 106126, Note_on_c, 0, 59, 0
2, 106131, Note_on_c, 0, 57, 67
2, 106173, Note_on_c, 0, 48, 79
2, 106177, Note_on_c, 0, 55, 80
2, 106179, Note_on_c, 0, 40, 80
2, 106183, Control_c, 0, 64, 127
2, 106187, Note_on_c, 0, 45, 75
2, 106197, Note_on_c, 0, 57, 0
2, 106242, Control_c, 0, 64, 0
2, 106242, Note_on_c, 0, 57, 70
2, 106270, Note_on_c, 0, 57, 0
2, 106312, Note_on_c, 0, 57, 72
2, 106336, Note_on_c, 0, 57, 0
2, 106370, Note_on_c, 0, 57, 79
2, 106399, Note_on_c, 0, 57, 0
2, 106414, Note_on_c, 0, 48, 0
2, 106419, Note_on_c, 0, 49, 80
2, 106429, Note_on_c, 0, 40, 0
2, 106439, Note_on_c, 0, 57, 74
2, 106440, Note_on_c, 0, 39, 80
2, 106443, Note_on_c, 0, 55, 0
2, 106490, Note_on_c, 0, 61, 57
2, 106543, Note_on_c, 0, 61, 0
2, 106547, Note_on_c, 0, 59, 65
2, 106552, Note_on_c, 0, 57, 0
2, 106590, Note_on_c, 0, 39, 0
2, 106595, Note_on_c, 0, 45, 0
2, 106599, Note_on_c, 0, 49, 0
2, 106605, Note_on_c, 0, 59, 0
2, 106606, Note_on_c, 0, 57, 69
2, 106674, Note_on_c, 0, 57, 0
2, 106728, Note_on_c, 0, 57, 69
2, 106752, Note_on_c, 0, 57, 0
2, 106795, Note_on_c, 0, 57, 74
2, 106827, Note_on_c, 0, 57, 0
2, 106871, Note_on_c, 0, 57, 73
2, 106892, Note_on_c, 0, 57, 0
2, 106918, Note_on_c, 0, 45, 65
2, 106919, Note_on_c, 0, 39, 67
2, 106921, Note_on_c, 0, 55, 63
2, 106922, Note_on_c, 0, 49, 63
2, 106930, Note_on_c, 0, 57, 69
2, 106947, Control_c, 0, 64, 127
2, 106980, Note_on_c, 0, 61, 68
2, 107037, Note_on_c, 0, 61, 0
2, 107044, Note_on_c, 0, 59, 63
2, 107055, Note_on_c, 0, 57, 0
2, 107104, Note_on_c, 0, 59, 0
2, 107110, Note_on_c, 0, 57, 63
2, 107139, Note_on_c, 0, 57, 0
2, 107171, Note_on_c, 0, 57, 59
2, 107228, Note_on_c, 0, 61, 56
2, 107263, Note_on_c, 0, 61, 0
2, 107266, Note_on_c, 0, 57, 0
2, 107286, Note_on_c, 0, 59, 62
2, 107295, Control_c, 0, 64, 0
2, 107326, Note_on_c, 0, 59, 0
2, 107330, Note_on_c, 0, 57, 69
2, 107366, Note_on_c, 0, 57, 0
2, 107417, Note_on_c, 0, 57, 75
2, 107470, Note_on_c, 0, 61, 61
2, 107504, Note_on_c, 0, 57, 0
2, 107510, Note_on_c, 0, 61, 0
2, 107525, Note_on_c, 0, 59, 64
2, 107537, Note_on_c, 0, 39, 0
2, 107552, Note_on_c, 0, 45, 0
2, 107555, Note_on_c, 0, 49, 0
2, 107562, Note_on_c, 0, 55, 0
2, 107577, Note_on_c, 0, 57, 69
2, 107582, Note_on_c, 0, 59, 0
2, 107609, Note_on_c, 0, 57, 0
2, 107645, Note_on_c, 0, 57, 68
2, 107679, Note_on_c, 0, 57, 0
2, 107718, Note_on_c, 0, 57, 67
2, 107740, Note_on_c, 0, 57, 0
2, 107775, Note_on_c, 0, 57, 62
2, 107806, Note_on_c, 0, 57, 0
2, 107848, Note_on_c, 0, 39, 63
2, 107848, Note_on_c, 0, 45, 62
2, 107848, Note_on_c, 0, 49, 62
2, 107852, Note_on_c, 0, 55, 65
2, 107861, Note_on_c, 0, 57, 62
2, 107918, Note_on_c, 0, 61, 58
2, 107956, Control_c, 0, 64, 127
2, 107973, Note_on_c, 0, 59, 62
2, 107976, Note_on_c, 0, 61, 0
2, 107983, Note_on_c, 0, 57, 0
2, 108032, Note_on_c, 0, 59, 0
2, 108037, Note_on_c, 0, 57, 73
2, 108059, Note_on_c, 0, 57, 0
2, 108101, Note_on_c, 0, 57, 73
2, 108151, Note_on_c, 0, 61, 61
2, 108207, Note_on_c, 0, 59, 56
2, 108215, Note_on_c, 0, 61, 0
2, 108216, Note_on_c, 0, 57, 0
2, 108256, Note_on_c, 0, 57, 62
2, 108266, Note_on_c, 0, 59, 0
2, 108285, Note_on_c, 0, 57, 0
2, 108333, Note_on_c, 0, 57, 64
2, 108374, Note_on_c, 0, 61, 59
2, 108413, Control_c, 0, 64, 0
2, 108427, Note_on_c, 0, 61, 0
2, 108433, Note_on_c, 0, 59, 62
2, 108438, Note_on_c, 0, 57, 0
2, 108482, Note_on_c, 0, 59, 0
2, 108488, Note_on_c, 0, 57, 56
2, 108584, Note_on_c, 0, 45, 0
2, 108628, Note_on_c, 0, 39, 0
2, 108628, Note_on_c, 0, 45, 63
2, 108629, Note_on_c, 0, 49, 0
2, 108632, Note_on_c, 0, 57, 0
2, 108634, Note_on_c, 0, 55, 0
2, 108662, Note_on_c, 0, 45, 0
2, 108696, Note_on_c, 0, 45, 62
2, 108720, Note_on_c, 0, 45, 0
2, 108753, Note_on_c, 0, 45, 67
2, 108783, Note_on_c, 0, 45, 0
2, 108826, Note_on_c, 0, 45, 80
2, 108875, Note_on_c, 0, 49, 61
2, 108921, Control_c, 0, 64, 127
2, 108940, Note_on_c, 0, 47, 67
2, 108950, Note_on_c, 0, 49, 0
2, 108958, Note_on_c, 0, 45, 0
2, 109001, Note_on_c, 0, 45, 68
2, 109005, Note_on_c, 0, 47, 0
2, 109032, Note_on_c, 0, 45, 0
2, 109076, Note_on_c, 0, 45, 60
2, 109119, Note_on_c, 0, 49, 62
2, 109166, Note_on_c, 0, 47, 56
2, 109180, Note_on_c, 0, 45, 0
2, 109184, Note_on_c, 0, 49, 0
2, 109238, Note_on_c, 0, 47, 0
2, 109245, Note_on_c, 0, 45, 69
2, 109267, Note_on_c, 0, 45, 0
2, 109323, Note_on_c, 0, 45, 75
2, 109375, Note_on_c, 0, 49, 59
2, 109451, Note_on_c, 0, 47, 60
2, 109464, Note_on_c, 0, 49, 0
2, 109473, Note_on_c, 0, 45, 0
2, 109521, Note_on_c, 0, 45, 60
2, 109526, Note_on_c, 0, 47, 0
2, 109542, Note_on_c, 0, 45, 0
2, 109601, Note_on_c, 0, 43, 69
2, 109605, Note_on_c, 0, 45, 68
2, 109607, Note_on_c, 0, 39, 68
2, 109661, Note_on_c, 0, 49, 62
2, 109713, Note_on_c, 0, 47, 62
2, 109724, Note_on_c, 0, 49, 0
2, 109745, Note_on_c, 0, 45, 0
2, 109785, Note_on_c, 0, 45, 67
2, 109801, Note_on_c, 0, 47, 0
2, 109817, Note_on_c, 0, 45, 0
2, 109860, Note_on_c, 0, 45, 79
2, 109911, Note_on_c, 0, 49, 63
2, 109963, Note_on_c, 0, 49, 0
2, 109974, Note_on_c, 0, 47, 67
2, 110001, Note_on_c, 0, 45, 0
2, 110028, Note_on_c, 0, 47, 0
2, 110036, Note_on_c, 0, 45, 62
2, 110056, Note_on_c, 0, 45, 0
2, 110101, Note_on_c, 0, 45, 56
2, 110163, Note_on_c, 0, 49, 63
2, 110233, Note_on_c, 0, 47, 62
2, 110242, Note_on_c, 0, 49, 0
2, 110242, Note_on_c, 0, 45, 0
2, 110253, Control_c, 0, 64, 0
2, 110283, Note_on_c, 0, 47, 0
2, 110290, Note_on_c, 0, 45, 67
2, 110311, Note_on_c, 0, 45, 0
2, 110360, Note_on_c, 0, 45, 75
2, 110431, Note_on_c, 0, 49, 59
2, 110488, Note_on_c, 0, 49, 0
2, 110492, Note_on_c, 0, 47, 57
2, 110507, Note_on_c, 0, 45, 0
2, 110551, Note_on_c, 0, 47, 0
2, 110562, Note_on_c, 0, 45, 61
2, 110583, Note_on_c, 0, 45, 0
2, 110634, Note_on_c, 0, 39, 0
2, 110639, Note_on_c, 0, 43, 0
2, 110639, Note_on_c, 0, 38, 59
2, 110639, Note_on_c, 0, 45, 62
2, 110643, Note_on_c, 0, 42, 58
2, 110689, Note_on_c, 0, 50, 63
2, 110762, Note_on_c, 0, 45, 0
2, 110767, Note_on_c, 0, 47, 67
2, 110777, Note_on_c, 0, 50, 0
2, 110804, Control_c, 0, 64, 127
2, 110809, Note_on_c, 0, 47, 0
2, 110834, Note_on_c, 0, 45, 65
2, 110856, Note_on_c, 0, 45, 0
2, 110911, Note_on_c, 0, 45, 77
2, 110957, Note_on_c, 0, 50, 57
2, 110993, Note_on_c, 0, 50, 0
2, 110997, Note_on_c, 0, 45, 0
2, 111013, Note_on_c, 0, 47, 64
2, 111055, Note_on_c, 0, 47, 0
2, 111081, Note_on_c, 0, 45, 63
2, 111115, Note_on_c, 0, 45, 0
2, 111152, Note_on_c, 0, 45, 78
2, 111204, Note_on_c, 0, 50, 61
2, 111233, Note_on_c, 0, 50, 0
2, 111261, Note_on_c, 0, 45, 0
2, 111267, Note_on_c, 0, 47, 59
2, 111301, Note_on_c, 0, 47, 0
2, 111323, Note_on_c, 0, 45, 63
2, 111343, Note_on_c, 0, 45, 0
2, 111393, Note_on_c, 0, 45, 78
2, 111455, Note_on_c, 0, 50, 58
2, 111495, Note_on_c, 0, 50, 0
2, 111505, Note_on_c, 0, 45, 0
2, 111510, Note_on_c, 0, 47, 58
2, 111544, Note_on_c, 0, 47, 0
2, 111548, Control_c, 0, 64, 0
2, 111563, Note_on_c, 0, 45, 63
2, 111593, Note_on_c, 0, 45, 0
2, 111633, Note_on_c, 0, 45, 77
2, 111682, Note_on_c, 0, 50, 56
2, 111744, Note_on_c, 0, 50, 0
2, 111752, Note_on_c, 0, 47, 63
2, 111766, Note_on_c, 0, 45, 0
2, 111800, Note_on_c, 0, 47, 0
2, 111811, Note_on_c, 0, 42, 0
2, 111812, Note_on_c, 0, 38, 0
2, 111817, Note_on_c, 0, 45, 64
2, 111854, Note_on_c, 0, 45, 0
2, 111911, Note_on_c, 0, 45, 75
2, 111917, Control_c, 0, 64, 127
2, 111962, Note_on_c, 0, 50, 59
2, 112005, Note_on_c, 0, 50, 0
2, 112012, Note_on_c, 0, 47, 64
2, 112015, Note_on_c, 0, 45, 0
2, 112062, Note_on_c, 0, 47, 0
2, 112067, Note_on_c, 0, 45, 64
2, 112097, Note_on_c, 0, 45, 0
2, 112151, Note_on_c, 0, 45, 73
2, 112171, Control_c, 0, 64, 0
2, 112267, Note_on_c, 0, 45, 0
2, 112279, Note_on_c, 0, 50, 63
2, 112350, Note_on_c, 0, 50, 0
2, 112358, Note_on_c, 0, 47, 68
2, 112460, Note_on_c, 0, 47, 0
2, 112465, Note_on_c, 0, 45, 69
2, 112560, Note_on_c, 0, 50, 64
2, 112650, Note_on_c, 0, 50, 0
2, 112650, Note_on_c, 0, 45, 0
2, 112656, Note_on_c, 0, 47, 63
2, 112679, Control_c, 0, 64, 127
2, 112749, Note_on_c, 0, 47, 0
2, 112758, Note_on_c, 0, 45, 64
2, 112848, Note_on_c, 0, 50, 56
2, 112939, Note_on_c, 0, 45, 0
2, 112944, Note_on_c, 0, 50, 0
2, 112949, Control_c, 0, 64, 0
2, 112950, Note_on_c, 0, 47, 61
2, 113040, Note_on_c, 0, 47, 0
2, 113043, Note_on_c, 0, 45, 59
2, 113163, Note_on_c, 0, 50, 60
2, 113251, Note_on_c, 0, 50, 0
2, 113253, Note_on_c, 0, 47, 61
2, 113312, Note_on_c, 0, 45, 0
2, 113359, Note_on_c, 0, 47, 0
2, 113359, Note_on_c, 0, 45, 63
2, 113396, Control_c, 0, 67, 127
2, 113450, Control_c, 0, 64, 127
2, 113530, Note_on_c, 0, 50, 59
2, 113585, Control_c, 0, 64, 0
2, 113702, Note_on_c, 0, 50, 0
2, 113706, Note_on_c, 0, 45, 0
2, 113715, Note_on_c, 0, 47, 59
2, 113879, Note_on_c, 0, 47, 0
2, 113886, Note_on_c, 0, 45, 60
2, 114025, Control_c, 0, 64, 127
2, 114076, Note_on_c, 0, 45, 0
2, 114084, Control_c, 0, 64, 0
2, 114085, Note_on_c, 0, 50, 60
2, 114268, Note_on_c, 0, 50, 0
2, 114276, Note_on_c, 0, 47, 60
2, 114462, Note_on_c, 0, 47, 0
2, 114466, Note_on_c, 0, 45, 57
2, 114671, Note_on_c, 0, 50, 57
2, 114870, Note_on_c, 0, 54, 58
2, 115056, Note_on_c, 0, 57, 61
2, 115074, Control_c, 0, 64, 127
2, 115287, Note_on_c, 0, 62, 56
2, 115591, Note_on_c, 0, 66, 69
2, 115848, Note_on_c, 0, 69, 69
2, 115864, Note_on_c, 0, 54, 0
2, 115865, Note_on_c, 0, 57, 0
2, 115865, Note_on_c, 0, 50, 0
2, 115867, Note_on_c, 0, 45, 0
2, 115869, Note_on_c, 0, 62, 0
2, 115872, Note_on_c, 0, 66, 0
2, 116809, Note_on_c, 0, 71, 101
2, 116902, Note_on_c, 0, 69, 0
2, 117195, Note_on_c, 0, 71, 0
2, 117252, Note_on_c, 0, 71, 108
2, 118773, Note_on_c, 0, 74, 67
2, 118862, Note_on_c, 0, 71, 0
2, 119948, Note_on_c, 0, 78, 57
2, 120012, Note_on_c, 0, 74, 0
2, 120571, Note_on_c, 0, 78, 0
2, 120620, Note_on_c, 0, 78, 63
2, 120785, Control_c, 0, 67, 0
2, 121028, Control_c, 0, 64, 0
2, 121187, Control_c, 0, 64, 127
2, 121606, Control_c, 0, 64, 0
2, 122048, Control_c, 0, 64, 127
2, 122114, Control_c, 0, 64, 0
2, 122605, Note_on_c, 0, 78, 0
2, 125403, Note_on_c, 0, 78, 66
2, 125420, Note_on_c, 0, 66, 64
2, 125514, Control_c, 0, 64, 127
2, 125832, Note_on_c, 0, 76, 73
2, 125833, Note_on_c, 0, 64, 64
2, 125899, Note_on_c, 0, 66, 0
2, 125899, Note_on_c, 0, 78, 0
2, 126248, Note_on_c, 0, 62, 69
2, 126252, Note_on_c, 0, 74, 79
2, 126301, Note_on_c, 0, 64, 0
2, 126319, Note_on_c, 0, 76, 0
2, 126456, Note_on_c, 0, 62, 0
2, 126514, Note_on_c, 0, 62, 68
2, 126542, Control_c, 0, 64, 0
2, 126634, Note_on_c, 0, 66, 62
2, 126655, Note_on_c, 0, 59, 73
2, 126657, Note_on_c, 0, 38, 68
2, 126672, Note_on_c, 0, 45, 69
2, 126676, Note_on_c, 0, 50, 68
2, 126685, Note_on_c, 0, 54, 74
2, 126756, Note_on_c, 0, 71, 87
2, 126801, Note_on_c, 0, 74, 0
2, 127114, Note_on_c, 0, 69, 83
2, 127128, Note_on_c, 0, 57, 83
2, 127174, Note_on_c, 0, 71, 0
2, 127174, Note_on_c, 0, 59, 0
2, 127285, Control_c, 0, 64, 127
2, 127384, Note_on_c, 0, 54, 0
2, 127438, Note_on_c, 0, 57, 0
2, 127439, Note_on_c, 0, 66, 0
2, 127462, Note_on_c, 0, 54, 92
2, 127490, Note_on_c, 0, 69, 0
2, 127490, Note_on_c, 0, 66, 91
2, 127762, Note_on_c, 0, 57, 92
2, 127768, Note_on_c, 0, 69, 95
2, 127855, Control_c, 0, 64, 0
2, 127912, Note_on_c, 0, 38, 0
2, 128042, Note_on_c, 0, 62, 0
2, 128047, Note_on_c, 0, 50, 0
2, 128073, Note_on_c, 0, 45, 0
2, 128075, Note_on_c, 0, 44, 72
2, 128079, Note_on_c, 0, 66, 0
2, 128081, Note_on_c, 0, 38, 70
2, 128089, Note_on_c, 0, 62, 70
2, 128094, Note_on_c, 0, 65, 92
2, 128098, Note_on_c, 0, 54, 0
2, 128098, Note_on_c, 0, 53, 71
2, 128099, Note_on_c, 0, 50, 71
2, 128109, Note_on_c, 0, 74, 89
2, 128124, Note_on_c, 0, 57, 0
2, 128130, Note_on_c, 0, 69, 0
2, 128329, Control_c, 0, 64, 127
2, 129087, Note_on_c, 0, 74, 0
2, 129088, Note_on_c, 0, 59, 63
2, 129092, Control_c, 0, 64, 0
2, 129092, Note_on_c, 0, 71, 63
2, 129406, Note_on_c, 0, 38, 0
2, 129409, Note_on_c, 0, 62, 0
2, 129432, Note_on_c, 0, 50, 0
2, 129454, Note_on_c, 0, 71, 0
2, 129454, Note_on_c, 0, 65, 0
2, 129459, Note_on_c, 0, 45, 60
2, 129460, Note_on_c, 0, 44, 0
2, 129460, Note_on_c, 0, 69, 70
2, 129466, Note_on_c, 0, 38, 59
2, 129475, Note_on_c, 0, 53, 0
2, 129480, Note_on_c, 0, 54, 63
2, 129483, Note_on_c, 0, 66, 75
2, 129484, Note_on_c, 0, 50, 62
2, 129484, Note_on_c, 0, 62, 56
2, 129495, Note_on_c, 0, 59, 0
2, 129498, Note_on_c, 0, 57, 56
2, 129536, Control_c, 0, 64, 127
2, 129583, Control_c, 0, 67, 127
2, 129758, Note_on_c, 0, 38, 0
2, 129767, Note_on_c, 0, 45, 0
2, 129778, Note_on_c, 0, 50, 0
2, 129790, Note_on_c, 0, 54, 0
2, 129811, Note_on_c, 0, 38, 63
2, 129818, Note_on_c, 0, 45, 63
2, 129834, Note_on_c, 0, 50, 62
2, 129844, Note_on_c, 0, 54, 68
2, 130357, Note_on_c, 0, 38, 0
2, 130368, Note_on_c, 0, 45, 0
2, 130380, Note_on_c, 0, 50, 0
2, 130388, Note_on_c, 0, 54, 0
2, 130408, Note_on_c, 0, 38, 60
2, 130418, Note_on_c, 0, 45, 60
2, 130423, Control_c, 0, 64, 0
2, 130440, Note_on_c, 0, 50, 60
2, 130444, Note_on_c, 0, 54, 56
2, 131048, Note_on_c, 0, 66, 0
2, 131098, Note_on_c, 0, 66, 65
2, 131102, Note_on_c, 0, 78, 66
2, 131124, Note_on_c, 0, 69, 0
2, 131126, Note_on_c, 0, 62, 0
2, 131235, Control_c, 0, 64, 127
2, 131523, Note_on_c, 0, 76, 70
2, 131534, Note_on_c, 0, 64, 61
2, 131593, Note_on_c, 0, 66, 0
2, 131604, Note_on_c, 0, 78, 0
2, 131900, Note_on_c, 0, 62, 66
2, 131900, Note_on_c, 0, 74, 70
2, 131970, Note_on_c, 0, 64, 0
2, 131976, Note_on_c, 0, 76, 0
2, 132051, Note_on_c, 0, 54, 0
2, 132052, Note_on_c, 0, 38, 0
2, 132053, Note_on_c, 0, 45, 0
2, 132054, Note_on_c, 0, 50, 0
2, 132065, Note_on_c, 0, 57, 0
2, 132222, Note_on_c, 0, 62, 0
2, 132275, Note_on_c, 0, 74, 0
2, 132275, Note_on_c, 0, 45, 59
2, 132276, Note_on_c, 0, 38, 59
2, 132276, Note_on_c, 0, 50, 64
2, 132280, Note_on_c, 0, 57, 64
2, 132280, Note_on_c, 0, 69, 77
2, 132281, Note_on_c, 0, 54, 60
2, 132281, Note_on_c, 0, 62, 64
2, 132299, Control_c, 0, 64, 0
2, 132610, Note_on_c, 0, 54, 0
2, 132663, Note_on_c, 0, 54, 69
2, 132663, Note_on_c, 0, 66, 77
2, 132752, Note_on_c, 0, 69, 0
2, 132883, Note_on_c, 0, 50, 0
2, 132883, Note_on_c, 0, 62, 0
2, 132885, Control_c, 0, 64, 127
2, 132936, Note_on_c, 0, 66, 0
2, 132941, Note_on_c, 0, 50, 89
2, 132951, Note_on_c, 0, 62, 83
2, 133148, Note_on_c, 0, 54, 0
2, 133207, Note_on_c, 0, 38, 0
2, 133219, Note_on_c, 0, 54, 94
2, 133219, Note_on_c, 0, 66, 98
2, 133234, Control_c, 0, 64, 0
2, 133445, Note_on_c, 0, 45, 0
2, 133505, Note_on_c, 0, 54, 0
2, 133505, Note_on_c, 0, 57, 0
2, 133506, Note_on_c, 0, 50, 0
2, 133506, Note_on_c, 0, 45, 76
2, 133506, Note_on_c, 0, 55, 83
2, 133510, Note_on_c, 0, 38, 77
2, 133510, Note_on_c, 0, 49, 80
2, 133510, Note_on_c, 0, 59, 81
2, 133514, Note_on_c, 0, 51, 79
2, 133519, Note_on_c, 0, 61, 79
2, 133525, Note_on_c, 0, 62, 0
2, 133525, Note_on_c, 0, 66, 0
2, 133529, Note_on_c, 0, 67, 90
2, 133529, Note_on_c, 0, 71, 87
2, 133558, Note_on_c, 0, 63, 96
2, 133633, Control_c, 0, 64, 127
2, 133953, Control_c, 0, 64, 0
2, 134126, Note_on_c, 0, 51, 0
2, 134127, Note_on_c, 0, 63, 0
2, 134128, Note_on_c, 0, 52, 63
2, 134133, Note_on_c, 0, 64, 62
2, 134479, Note_on_c, 0, 59, 0
2, 134483, Note_on_c, 0, 71, 0
2, 134488, Note_on_c, 0, 57, 63
2, 134488, Note_on_c, 0, 69, 63
2, 134541, Control_c, 0, 64, 127
2, 134565, Note_on_c, 0, 38, 0
2, 134740, Note_on_c, 0, 45, 0
2, 134740, Control_c, 0, 64, 0
2, 134752, Note_on_c, 0, 69, 0
2, 134776, Note_on_c, 0, 57, 0
2, 134798, Note_on_c, 0, 64, 0
2, 134798, Note_on_c, 0, 45, 58
2, 134799, Note_on_c, 0, 62, 62
2, 134803, Note_on_c, 0, 61, 0
2, 134803, Note_on_c, 0, 67, 0
2, 134806, Note_on_c, 0, 38, 58
2, 134808, Note_on_c, 0, 69, 76
2, 134826, Note_on_c, 0, 52, 0
2, 134830, Note_on_c, 0, 49, 0
2, 134832, Note_on_c, 0, 55, 0
2, 134834, Note_on_c, 0, 57, 57
2, 134835, Note_on_c, 0, 50, 62
2, 134835, Note_on_c, 0, 54, 60
2, 135107, Control_c, 0, 64, 127
2, 135204, Note_on_c, 0, 50, 0
2, 135206, Note_on_c, 0, 38, 0
2, 135209, Note_on_c, 0, 45, 0
2, 135210, Note_on_c, 0, 62, 0
2, 135211, Note_on_c, 0, 54, 0
2, 135269, Note_on_c, 0, 45, 62
2, 135269, Note_on_c, 0, 54, 65
2, 135269, Note_on_c, 0, 62, 63
2, 135270, Note_on_c, 0, 50, 63
2, 135275, Note_on_c, 0, 38, 62
2, 135275, Note_on_c, 0, 66, 65
2, 135602, Note_on_c, 0, 62, 0
2, 135681, Note_on_c, 0, 38, 0
2, 135686, Note_on_c, 0, 54, 0
2, 135686, Note_on_c, 0, 45, 0
2, 135686, Note_on_c, 0, 50, 0
2, 135692, Note_on_c, 0, 66, 0
2, 135736, Note_on_c, 0, 38, 57
2, 135743, Note_on_c, 0, 66, 63
2, 135744, Note_on_c, 0, 45, 57
2, 135744, Note_on_c, 0, 50, 59
2, 135745, Control_c, 0, 67, 0
2, 135748, Note_on_c, 0, 54, 63
2, 135748, Note_on_c, 0, 62, 58
2, 135854, Note_on_c, 0, 38, 0
2, 135909, Note_on_c, 0, 38, 87
2, 135976, Note_on_c, 0, 45, 0
2, 135997, Note_on_c, 0, 54, 0
2, 136000, Note_on_c, 0, 57, 0
2, 136011, Note_on_c, 0, 69, 0
2, 136013, Control_c, 0, 64, 0
2, 136017, Note_on_c, 0, 50, 0
2, 136022, Note_on_c, 0, 45, 92
2, 136029, Note_on_c, 0, 51, 96
2, 136047, Note_on_c, 0, 57, 90
2, 136049, Note_on_c, 0, 54, 95
2, 136053, Note_on_c, 0, 62, 0
2, 136057, Note_on_c, 0, 66, 0
2, 136057, Note_on_c, 0, 60, 94
2, 136057, Note_on_c, 0, 69, 101
2, 136057, Note_on_c, 0, 72, 96
2, 136062, Note_on_c, 0, 81, 102
2, 136421, Control_c, 0, 64, 127
2, 136589, Note_on_c, 0, 54, 0
2, 136597, Note_on_c, 0, 55, 80
2, 136598, Note_on_c, 0, 57, 0
2, 136606, Note_on_c, 0, 69, 0
2, 136607, Note_on_c, 0, 67, 84
2, 136609, Note_on_c, 0, 81, 0
2, 136611, Note_on_c, 0, 79, 84
2, 136958, Note_on_c, 0, 55, 0
2, 137007, Note_on_c, 0, 66, 81
2, 137012, Note_on_c, 0, 67, 0
2, 137012, Note_on_c, 0, 57, 70
2, 137021, Note_on_c, 0, 78, 81
2, 137022, Note_on_c, 0, 79, 0
2, 137098, Note_on_c, 0, 38, 0
2, 137261, Control_c, 0, 64, 0
2, 137328, Note_on_c, 0, 78, 0
2, 137328, Note_on_c, 0, 66, 0
2, 137374, Note_on_c, 0, 51, 0
2, 137375, Note_on_c, 0, 72, 0
2, 137375, Note_on_c, 0, 66, 86
2, 137375, Note_on_c, 0, 67, 83
2, 137375, Note_on_c, 0, 71, 87
2, 137379, Note_on_c, 0, 78, 83
2, 137387, Note_on_c, 0, 45, 0
2, 137391, Note_on_c, 0, 38, 80
2, 137391, Note_on_c, 0, 47, 79
2, 137393, Note_on_c, 0, 60, 0
2, 137393, Note_on_c, 0, 55, 74
2, 137393, Note_on_c, 0, 59, 74
2, 137394, Note_on_c, 0, 57, 0
2, 137394, Note_on_c, 0, 52, 79
2, 137604, Control_c, 0, 64, 127
2, 137895, Control_c, 0, 64, 0
2, 138142, Note_on_c, 0, 76, 69
2, 138143, Note_on_c, 0, 64, 68
2, 138207, Note_on_c, 0, 66, 0
2, 138222, Note_on_c, 0, 78, 0
2, 138555, Note_on_c, 0, 38, 0
2, 138568, Note_on_c, 0, 76, 0
2, 138572, Note_on_c, 0, 64, 0
2, 138811, Note_on_c, 0, 67, 0
2, 138816, Note_on_c, 0, 52, 0
2, 138816, Note_on_c, 0, 55, 0
2, 138849, Note_on_c, 0, 38, 106
2, 138858, Note_on_c, 0, 47, 0
2, 138858, Note_on_c, 0, 71, 0
2, 138864, Note_on_c, 0, 43, 105
2, 138868, Note_on_c, 0, 67, 115
2, 138868, Note_on_c, 0, 70, 109
2, 138868, Note_on_c, 0, 79, 109
2, 138872, Note_on_c, 0, 59, 0
2, 138872, Note_on_c, 0, 55, 103
2, 138873, Note_on_c, 0, 49, 108
2, 138873, Note_on_c, 0, 52, 104
2, 138877, Note_on_c, 0, 58, 105
2, 139046, Control_c, 0, 64, 127
2, 139621, Note_on_c, 0, 55, 0
2, 139628, Note_on_c, 0, 78, 84
2, 139629, Note_on_c, 0, 66, 79
2, 139630, Note_on_c, 0, 67, 0
2, 139630, Note_on_c, 0, 54, 85
2, 139717, Note_on_c, 0, 79, 0
2, 140002, Note_on_c, 0, 66, 0
2, 140004, Note_on_c, 0, 54, 0
2, 140009, Note_on_c, 0, 76, 74
2, 140010, Note_on_c, 0, 55, 65
2, 140010, Note_on_c, 0, 64, 63
2, 140099, Note_on_c, 0, 78, 0
2, 140134, Control_c, 0, 64, 0
2, 140176, Note_on_c, 0, 38, 0
2, 140357, Note_on_c, 0, 64, 0
2, 140362, Note_on_c, 0, 76, 0
2, 140398, Note_on_c, 0, 43, 0
2, 140398, Note_on_c, 0, 49, 0
2, 140401, Note_on_c, 0, 55, 0
2, 140405, Note_on_c, 0, 38, 72
2, 140405, Note_on_c, 0, 45, 74
2, 140406, Note_on_c, 0, 70, 0
2, 140407, Note_on_c, 0, 57, 76
2, 140408, Note_on_c, 0, 52, 0
2, 140408, Note_on_c, 0, 58, 0
2, 140408, Note_on_c, 0, 50, 72
2, 140408, Note_on_c, 0, 54, 71
2, 140408, Note_on_c, 0, 64, 76
2, 140408, Note_on_c, 0, 69, 80
2, 140408, Note_on_c, 0, 76, 77
2, 140634, Control_c, 0, 64, 127
2, 140919, Control_c, 0, 67, 127
2, 141047, Control_c, 0, 64, 0
2, 141192, Note_on_c, 0, 62, 57
2, 141202, Note_on_c, 0, 74, 64
2, 141283, Note_on_c, 0, 64, 0
2, 141288, Note_on_c, 0, 76, 0
2, 141459, Control_c, 0, 67, 0
2, 141633, Control_c, 0, 67, 127
2, 141726, Note_on_c, 0, 50, 0
2, 141737, Note_on_c, 0, 62, 0
2, 141737, Note_on_c, 0, 74, 0
2, 141756, Note_on_c, 0, 54, 0
2, 141940, Note_on_c, 0, 69, 0
2, 141951, Note_on_c, 0, 38, 0
2, 141960, Note_on_c, 0, 32, 65
2, 141962, Note_on_c, 0, 57, 0
2, 141962, Note_on_c, 0, 44, 66
2, 141962, Note_on_c, 0, 54, 66
2, 141962, Note_on_c, 0, 59, 69
2, 141962, Note_on_c, 0, 62, 63
2, 141963, Note_on_c, 0, 45, 0
2, 141963, Note_on_c, 0, 50, 62
2, 141967, Note_on_c, 0, 66, 57
2, 141967, Note_on_c, 0, 71, 58
2, 142069, Control_c, 0, 64, 127
2, 142401, Note_on_c, 0, 66, 0
2, 142451, Note_on_c, 0, 66, 71
2, 142454, Note_on_c, 0, 78, 78
2, 142855, Note_on_c, 0, 64, 72
2, 142865, Note_on_c, 0, 76, 70
2, 142920, Control_c, 0, 64, 0
2, 142935, Note_on_c, 0, 66, 0
2, 142941, Note_on_c, 0, 78, 0
2, 143221, Note_on_c, 0, 62, 0
2, 143261, Control_c, 0, 64, 127
2, 143270, Note_on_c, 0, 62, 64
2, 143270, Note_on_c, 0, 74, 71
2, 143323, Note_on_c, 0, 64, 0
2, 143328, Note_on_c, 0, 76, 0
2, 143352, Control_c, 0, 64, 0
2, 143470, Note_on_c, 0, 54, 0
2, 143470, Note_on_c, 0, 50, 0
2, 143626, Note_on_c, 0, 62, 0
2, 143647, Note_on_c, 0, 57, 68
2, 143647, Note_on_c, 0, 69, 75
2, 143667, Note_on_c, 0, 32, 0
2, 143668, Note_on_c, 0, 33, 65
2, 143669, Note_on_c, 0, 44, 0
2, 143671, Note_on_c, 0, 71, 0
2, 143671, Note_on_c, 0, 59, 0
2, 143671, Note_on_c, 0, 45, 68
2, 143671, Note_on_c, 0, 62, 67
2, 143672, Note_on_c, 0, 50, 62
2, 143676, Note_on_c, 0, 66, 80
2, 143677, Note_on_c, 0, 54, 62
2, 143746, Note_on_c, 0, 74, 0
2, 143844, Control_c, 0, 64, 127
2, 143901, Note_on_c, 0, 54, 0
2, 143941, Note_on_c, 0, 66, 0
2, 144071, Note_on_c, 0, 66, 81
2, 144075, Note_on_c, 0, 54, 77
2, 144147, Note_on_c, 0, 69, 0
2, 144270, Note_on_c, 0, 50, 0
2, 144280, Note_on_c, 0, 62, 0
2, 144413, Note_on_c, 0, 66, 0
2, 144431, Note_on_c, 0, 50, 80
2, 144431, Note_on_c, 0, 62, 87
2, 144680, Note_on_c, 0, 54, 0
2, 144742, Note_on_c, 0, 54, 84
2, 144745, Note_on_c, 0, 66, 84
2, 144783, Note_on_c, 0, 33, 0
2, 144817, Note_on_c, 0, 45, 0
2, 144914, Control_c, 0, 64, 0
2, 144961, Note_on_c, 0, 62, 0
2, 144964, Note_on_c, 0, 63, 86
2, 144994, Note_on_c, 0, 61, 62
2, 145049, Note_on_c, 0, 54, 0
2, 145050, Note_on_c, 0, 66, 0
2, 145051, Note_on_c, 0, 33, 59
2, 145054, Note_on_c, 0, 57, 0
2, 145054, Note_on_c, 0, 55, 61
2, 145055, Note_on_c, 0, 45, 62
2, 145058, Note_on_c, 0, 67, 57
2, 145100, Note_on_c, 0, 50, 0
2, 145104, Note_on_c, 0, 49, 70
2, 145104, Note_on_c, 0, 51, 68
2, 145104, Note_on_c, 0, 59, 70
2, 145108, Note_on_c, 0, 71, 90
2, 145346, Control_c, 0, 64, 127
2, 145619, Control_c, 0, 64, 0
2, 145823, Note_on_c, 0, 51, 0
2, 145827, Note_on_c, 0, 63, 0
2, 145828, Note_on_c, 0, 52, 67
2, 145832, Note_on_c, 0, 64, 67
2, 146208, Control_c, 0, 64, 127
2, 146211, Note_on_c, 0, 59, 0
2, 146222, Note_on_c, 0, 57, 59
2, 146227, Note_on_c, 0, 69, 73
2, 146293, Note_on_c, 0, 71, 0
2, 146408, Note_on_c, 0, 45, 0
2, 146538, Control_c, 0, 64, 0
2, 146637, Note_on_c, 0, 57, 0
2, 146639, Note_on_c, 0, 33, 0
2, 146651, Note_on_c, 0, 38, 62
2, 146675, Note_on_c, 0, 69, 0
2, 146675, Note_on_c, 0, 45, 63
2, 146678, Note_on_c, 0, 52, 0
2, 146683, Note_on_c, 0, 49, 0
2, 146685, Note_on_c, 0, 55, 0
2, 146688, Note_on_c, 0, 57, 62
2, 146689, Note_on_c, 0, 50, 63
2, 146689, Note_on_c, 0, 54, 63
2, 146719, Note_on_c, 0, 62, 68
2, 146750, Note_on_c, 0, 66, 60
2, 146753, Note_on_c, 0, 64, 0
2, 146758, Note_on_c, 0, 61, 0
2, 146763, Note_on_c, 0, 67, 0
2, 146784, Note_on_c, 0, 69, 80
2, 146955, Control_c, 0, 64, 127
2, 147035, Note_on_c, 0, 38, 0
2, 147043, Note_on_c, 0, 62, 0
2, 147047, Note_on_c, 0, 45, 0
2, 147048, Note_on_c, 0, 50, 0
2, 147056, Note_on_c, 0, 66, 0
2, 147060, Note_on_c, 0, 54, 0
2, 147089, Note_on_c, 0, 38, 63
2, 147093, Note_on_c, 0, 62, 69
2, 147093, Note_on_c, 0, 66, 63
2, 147097, Note_on_c, 0, 45, 67
2, 147103, Note_on_c, 0, 50, 66
2, 147113, Note_on_c, 0, 54, 64
2, 147638, Note_on_c, 0, 54, 0
2, 147640, Note_on_c, 0, 50, 0
2, 147649, Note_on_c, 0, 45, 0
2, 147652, Note_on_c, 0, 38, 0
2, 147653, Note_on_c, 0, 62, 0
2, 147653, Note_on_c, 0, 66, 0
2, 147663, Control_c, 0, 64, 0
2, 147701, Note_on_c, 0, 38, 63
2, 147705, Note_on_c, 0, 45, 59
2, 147705, Note_on_c, 0, 62, 57
2, 147705, Note_on_c, 0, 66, 56
2, 147706, Note_on_c, 0, 50, 57
2, 147706, Note_on_c, 0, 54, 61
2, 147710, Note_on_c, 0, 57, 0
2, 147721, Control_c, 0, 67, 0
2, 147843, Note_on_c, 0, 38, 0
2, 147846, Note_on_c, 0, 45, 0
2, 147878, Note_on_c, 0, 54, 0
2, 147900, Note_on_c, 0, 38, 93
2, 147970, Note_on_c, 0, 69, 0
2, 148007, Note_on_c, 0, 45, 89
2, 148008, Note_on_c, 0, 50, 0
2, 148011, Note_on_c, 0, 57, 89
2, 148012, Note_on_c, 0, 51, 92
2, 148022, Note_on_c, 0, 66, 0
2, 148022, Note_on_c, 0, 54, 87
2, 148026, Note_on_c, 0, 62, 0
2, 148027, Note_on_c, 0, 69, 96
2, 148031, Note_on_c, 0, 60, 86
2, 148035, Note_on_c, 0, 72, 94
2, 148040, Note_on_c, 0, 81, 94
2, 148053, Control_c, 0, 64, 127
2, 148691, Note_on_c, 0, 54, 0
2, 148766, Note_on_c, 0, 55, 79
2, 148770, Note_on_c, 0, 69, 0
2, 148771, Note_on_c, 0, 67, 89
2, 148771, Note_on_c, 0, 79, 90
2, 148820, Control_c, 0, 64, 0
2, 148842, Note_on_c, 0, 81, 0
2, 149091, Note_on_c, 0, 57, 0
2, 149144, Note_on_c, 0, 79, 0
2, 149144, Note_on_c, 0, 57, 74
2, 149144, Note_on_c, 0, 66, 93
2, 149149, Note_on_c, 0, 78, 93
2, 149166, Note_on_c, 0, 55, 0
2, 149168, Note_on_c, 0, 67, 0
2, 149317, Note_on_c, 0, 38, 0
2, 149473, Note_on_c, 0, 55, 77
2, 149478, Note_on_c, 0, 57, 0
2, 149478, Note_on_c, 0, 45, 0
2, 149484, Note_on_c, 0, 47, 76
2, 149487, Note_on_c, 0, 78, 0
2, 149489, Note_on_c, 0, 38, 77
2, 149493, Note_on_c, 0, 51, 0
2, 149497, Note_on_c, 0, 52, 75
2, 149515, Note_on_c, 0, 60, 0
2, 149520, Note_on_c, 0, 59, 79
2, 149521, Note_on_c, 0, 66, 0
2, 149524, Note_on_c, 0, 67, 93
2, 149526, Control_c, 0, 64, 127
2, 149529, Note_on_c, 0, 72, 0
2, 149534, Note_on_c, 0, 71, 99
2, 149534, Note_on_c, 0, 78, 98
2, 150062, Control_c, 0, 64, 0
2, 150260, Note_on_c, 0, 64, 62
2, 150260, Note_on_c, 0, 76, 73
2, 150261, Note_on_c, 0, 78, 0
2, 150440, Control_c, 0, 64, 127
2, 150566, Note_on_c, 0, 38, 0
2, 150683, Control_c, 0, 64, 0
2, 150854, Note_on_c, 0, 52, 0
2, 150860, Note_on_c, 0, 55, 0
2, 150860, Note_on_c, 0, 67, 0
2, 150898, Note_on_c, 0, 47, 0
2, 150899, Note_on_c, 0, 59, 0
2, 150901, Note_on_c, 0, 38, 91
2, 150904, Note_on_c, 0, 49, 92
2, 150904, Note_on_c, 0, 55, 91
2, 150904, Note_on_c, 0, 58, 93
2, 150904, Note_on_c, 0, 67, 92
2, 150904, Note_on_c, 0, 70, 98
2, 150905, Note_on_c, 0, 71, 0
2, 150905, Note_on_c, 0, 43, 88
2, 150905, Note_on_c, 0, 52, 87
2, 150910, Note_on_c, 0, 79, 94
2, 150928, Note_on_c, 0, 64, 0
2, 150932, Note_on_c, 0, 76, 0
2, 151100, Control_c, 0, 64, 127
2, 151628, Note_on_c, 0, 52, 0
2, 151633, Note_on_c, 0, 54, 75
2, 151638, Note_on_c, 0, 55, 0
2, 151643, Note_on_c, 0, 66, 80
2, 151648, Note_on_c, 0, 78, 81
2, 151718, Note_on_c, 0, 67, 0
2, 151736, Note_on_c, 0, 79, 0
2, 151889, Control_c, 0, 64, 0
2, 152000, Note_on_c, 0, 54, 0
2, 152016, Note_on_c, 0, 70, 0
2, 152019, Note_on_c, 0, 55, 62
2, 152020, Note_on_c, 0, 64, 68
2, 152024, Note_on_c, 0, 76, 72
2, 152107, Note_on_c, 0, 66, 0
2, 152117, Note_on_c, 0, 78, 0
2, 152199, Note_on_c, 0, 38, 0
2, 152305, Control_c, 0, 64, 127
2, 152401, Note_on_c, 0, 76, 0
2, 152402, Note_on_c, 0, 43, 0
2, 152402, Note_on_c, 0, 38, 62
2, 152403, Note_on_c, 0, 64, 0
2, 152407, Control_c, 0, 64, 0
2, 152407, Note_on_c, 0, 45, 63
2, 152409, Note_on_c, 0, 49, 0
2, 152418, Note_on_c, 0, 50, 63
2, 152432, Note_on_c, 0, 55, 0
2, 152436, Note_on_c, 0, 54, 63
2, 152441, Note_on_c, 0, 58, 0
2, 152445, Note_on_c, 0, 57, 69
2, 152449, Note_on_c, 0, 76, 75
2, 152450, Note_on_c, 0, 64, 64
2, 152460, Note_on_c, 0, 66, 76
2, 152464, Note_on_c, 0, 69, 79
2, 152771, Control_c, 0, 64, 127
2, 152857, Control_c, 0, 67, 127
2, 153017, Control_c, 0, 64, 0
2, 153240, Note_on_c, 0, 62, 62
2, 153240, Note_on_c, 0, 74, 64
2, 153304, Note_on_c, 0, 76, 0
2, 153308, Note_on_c, 0, 64, 0
2, 153457, Control_c, 0, 64, 127
2, 153746, Note_on_c, 0, 66, 0
2, 153766, Note_on_c, 0, 74, 0
2, 153766, Note_on_c, 0, 62, 0
2, 153769, Note_on_c, 0, 50, 0
2, 153781, Note_on_c, 0, 69, 0
2, 153801, Control_c, 0, 64, 0
2, 153912, Note_on_c, 0, 54, 0
2, 153940, Note_on_c, 0, 45, 0
2, 153960, Note_on_c, 0, 38, 0
2, 153962, Note_on_c, 0, 57, 0
2, 153989, Note_on_c, 0, 44, 82
2, 153990, Note_on_c, 0, 32, 78
2, 153993, Note_on_c, 0, 59, 80
2, 153998, Note_on_c, 0, 50, 82
2, 153998, Note_on_c, 0, 66, 80
2, 153998, Note_on_c, 0, 71, 79
2, 153999, Note_on_c, 0, 54, 78
2, 153999, Note_on_c, 0, 62, 81
2, 154155, Control_c, 0, 64, 127
2, 154477, Note_on_c, 0, 66, 0
2, 154527, Note_on_c, 0, 66, 88
2, 154532, Note_on_c, 0, 78, 87
2, 154786, Control_c, 0, 64, 0
2, 155015, Note_on_c, 0, 78, 0
2, 155017, Note_on_c, 0, 76, 80
2, 155024, Note_on_c, 0, 64, 78
2, 155025, Note_on_c, 0, 66, 0
2, 155443, Note_on_c, 0, 62, 0
2, 155491, Note_on_c, 0, 62, 63
2, 155494, Note_on_c, 0, 64, 0
2, 155496, Note_on_c, 0, 76, 0
2, 155496, Note_on_c, 0, 74, 69
2, 155727, Note_on_c, 0, 50, 0
2, 155736, Note_on_c, 0, 54, 0
2, 155855, Note_on_c, 0, 62, 0
2, 155890, Note_on_c, 0, 57, 63
2, 155909, Note_on_c, 0, 32, 0
2, 155910, Note_on_c, 0, 59, 0
2, 155918, Note_on_c, 0, 33, 60
2, 155921, Note_on_c, 0, 62, 61
2, 155930, Note_on_c, 0, 54, 62
2, 155931, Note_on_c, 0, 50, 63
2, 155931, Note_on_c, 0, 66, 61
2, 155934, Note_on_c, 0, 44, 0
2, 155941, Note_on_c, 0, 45, 60
2, 155949, Note_on_c, 0, 71, 0
2, 155951, Note_on_c, 0, 74, 0
2, 155955, Note_on_c, 0, 69, 73
2, 156182, Control_c, 0, 64, 127
2, 156186, Note_on_c, 0, 66, 0
2, 156299, Note_on_c, 0, 54, 0
2, 156361, Note_on_c, 0, 69, 0
2, 156368, Note_on_c, 0, 54, 71
2, 156378, Note_on_c, 0, 66, 77
2, 156597, Note_on_c, 0, 62, 0
2, 156724, Note_on_c, 0, 50, 0
2, 156786, Note_on_c, 0, 50, 81
2, 156790, Note_on_c, 0, 66, 0
2, 156790, Note_on_c, 0, 62, 79
2, 157105, Note_on_c, 0, 54, 0
2, 157209, Note_on_c, 0, 54, 86
2, 157209, Note_on_c, 0, 66, 84
2, 157230, Control_c, 0, 64, 0
2, 157442, Note_on_c, 0, 33, 0
2, 157490, Note_on_c, 0, 45, 0
2, 157497, Note_on_c, 0, 62, 0
2, 157498, Note_on_c, 0, 63, 91
2, 157558, Note_on_c, 0, 61, 73
2, 157596, Note_on_c, 0, 66, 0
2, 157597, Note_on_c, 0, 67, 68
2, 157649, Note_on_c, 0, 33, 71
2, 157671, Note_on_c, 0, 54, 0
2, 157672, Note_on_c, 0, 57, 0
2, 157672, Note_on_c, 0, 50, 0
2, 157672, Note_on_c, 0, 55, 74
2, 157673, Note_on_c, 0, 51, 71
2, 157678, Note_on_c, 0, 71, 84
2, 157687, Note_on_c, 0, 59, 72
2, 157718, Note_on_c, 0, 45, 77
2, 157743, Note_on_c, 0, 49, 68
2, 157927, Control_c, 0, 64, 127
2, 158318, Control_c, 0, 64, 0
2, 158534, Note_on_c, 0, 51, 0
2, 158562, Note_on_c, 0, 63, 0
2, 158564, Note_on_c, 0, 64, 59
2, 158598, Note_on_c, 0, 52, 57
2, 159036, Note_on_c, 0, 59, 0
2, 159039, Note_on_c, 0, 57, 57
2, 159090, Note_on_c, 0, 69, 68
2, 159144, Note_on_c, 0, 71, 0
2, 159271, Control_c, 0, 64, 127
2, 159417, Note_on_c, 0, 45, 0
2, 159637, Control_c, 0, 64, 0
2, 159670, Note_on_c, 0, 57, 0
2, 159681, Note_on_c, 0, 33, 0
2, 159685, Note_on_c, 0, 45, 57
2, 159686, Note_on_c, 0, 38, 62
2, 159695, Note_on_c, 0, 61, 0
2, 159695, Note_on_c, 0, 67, 0
2, 159695, Note_on_c, 0, 62, 62
2, 159697, Note_on_c, 0, 64, 0
2, 159698, Note_on_c, 0, 49, 0
2, 159705, Note_on_c, 0, 50, 57
2, 159709, Note_on_c, 0, 66, 74
2, 159716, Note_on_c, 0, 52, 0
2, 159719, Note_on_c, 0, 57, 56
2, 159720, Note_on_c, 0, 55, 0
2, 159720, Note_on_c, 0, 54, 63
2, 159950, Note_on_c, 0, 57, 0
2, 159961, Note_on_c, 0, 62, 0
2, 159971, Note_on_c, 0, 66, 0
2, 160003, Note_on_c, 0, 57, 63
2, 160008, Note_on_c, 0, 62, 63
2, 160018, Note_on_c, 0, 66, 63
2, 160040, Note_on_c, 0, 66, 0
2, 160047, Note_on_c, 0, 62, 0
2, 160047, Note_on_c, 0, 57, 0
2, 160056, Control_c, 0, 64, 127
2, 160098, Note_on_c, 0, 57, 58
2, 160099, Note_on_c, 0, 62, 57
2, 160099, Note_on_c, 0, 66, 62
2, 160128, Note_on_c, 0, 62, 0
2, 160133, Note_on_c, 0, 66, 0
2, 160138, Note_on_c, 0, 57, 0
2, 160192, Note_on_c, 0, 57, 56
2, 160192, Note_on_c, 0, 62, 57
2, 160192, Note_on_c, 0, 66, 59
2, 160269, Note_on_c, 0, 69, 0
2, 160273, Note_on_c, 0, 71, 68
2, 160308, Note_on_c, 0, 62, 0
2, 160319, Note_on_c, 0, 66, 0
2, 160329, Note_on_c, 0, 57, 0
2, 160374, Note_on_c, 0, 62, 63
2, 160375, Note_on_c, 0, 66, 59
2, 160385, Note_on_c, 0, 57, 58
2, 160419, Note_on_c, 0, 73, 73
2, 160442, Note_on_c, 0, 71, 0
2, 160512, Note_on_c, 0, 57, 0
2, 160523, Note_on_c, 0, 62, 0
2, 160527, Note_on_c, 0, 66, 0
2, 160543, Note_on_c, 0, 74, 76
2, 160555, Note_on_c, 0, 45, 0
2, 160558, Note_on_c, 0, 38, 0
2, 160560, Note_on_c, 0, 50, 0
2, 160560, Note_on_c, 0, 54, 0
2, 160562, Note_on_c, 0, 73, 0
2, 160567, Note_on_c, 0, 57, 63
2, 160574, Note_on_c, 0, 66, 78
2, 160578, Note_on_c, 0, 62, 61
2, 160624, Note_on_c, 0, 74, 0
2, 160680, Note_on_c, 0, 74, 71
2, 160702, Note_on_c, 0, 57, 0
2, 160714, Note_on_c, 0, 62, 0
2, 160725, Note_on_c, 0, 66, 0
2, 160765, Note_on_c, 0, 57, 61
2, 160766, Note_on_c, 0, 62, 61
2, 160776, Note_on_c, 0, 66, 59
2, 160796, Note_on_c, 0, 57, 0
2, 160799, Note_on_c, 0, 62, 0
2, 160811, Note_on_c, 0, 66, 0
2, 160831, Note_on_c, 0, 76, 74
2, 160851, Note_on_c, 0, 74, 0
2, 160851, Note_on_c, 0, 57, 65
2, 160856, Note_on_c, 0, 62, 67
2, 160863, Note_on_c, 0, 66, 73
2, 160913, Note_on_c, 0, 57, 0
2, 160922, Note_on_c, 0, 66, 0
2, 160933, Note_on_c, 0, 62, 0
2, 160949, Note_on_c, 0, 78, 80
2, 160969, Note_on_c, 0, 76, 0
2, 160974, Note_on_c, 0, 57, 61
2, 160975, Note_on_c, 0, 66, 79
2, 160990, Note_on_c, 0, 62, 61
2, 160992, Control_c, 0, 64, 0
2, 161097, Note_on_c, 0, 79, 74
2, 161126, Note_on_c, 0, 78, 0
2, 161131, Note_on_c, 0, 62, 0
2, 161133, Note_on_c, 0, 57, 0
2, 161141, Note_on_c, 0, 66, 0
2, 161183, Note_on_c, 0, 62, 63
2, 161186, Note_on_c, 0, 57, 63
2, 161187, Note_on_c, 0, 66, 65
2, 161225, Note_on_c, 0, 81, 80
2, 161245, Note_on_c, 0, 79, 0
2, 161321, Note_on_c, 0, 62, 0
2, 161328, Note_on_c, 0, 26, 62
2, 161331, Note_on_c, 0, 38, 67
2, 161334, Note_on_c, 0, 66, 0
2, 161358, Note_on_c, 0, 81, 0
2, 161358, Note_on_c, 0, 57, 0
2, 161359, Note_on_c, 0, 83, 75
2, 161364, Note_on_c, 0, 59, 62
2, 161368, Note_on_c, 0, 47, 61
2, 161373, Note_on_c, 0, 62, 62
2, 161383, Note_on_c, 0, 66, 79
2, 161385, Control_c, 0, 64, 127
2, 161534, Note_on_c, 0, 66, 0
2, 161536, Note_on_c, 0, 59, 0
2, 161541, Note_on_c, 0, 62, 0
2, 161605, Note_on_c, 0, 66, 56
2, 161609, Note_on_c, 0, 59, 60
2, 161609, Note_on_c, 0, 62, 59
2, 161647, Note_on_c, 0, 66, 0
2, 161649, Note_on_c, 0, 59, 0
2, 161668, Note_on_c, 0, 62, 0
2, 161706, Note_on_c, 0, 62, 57
2, 161707, Note_on_c, 0, 59, 61
2, 161711, Note_on_c, 0, 66, 59
2, 161755, Note_on_c, 0, 62, 0
2, 161763, Note_on_c, 0, 59, 0
2, 161767, Note_on_c, 0, 66, 0
2, 161803, Note_on_c, 0, 59, 58
2, 161807, Note_on_c, 0, 62, 69
2, 161817, Note_on_c, 0, 66, 60
2, 161841, Note_on_c, 0, 47, 0
2, 161893, Note_on_c, 0, 47, 74
2, 161906, Note_on_c, 0, 83, 0
2, 161906, Note_on_c, 0, 78, 62
2, 161918, Control_c, 0, 64, 0
2, 161944, Note_on_c, 0, 59, 0
2, 161951, Note_on_c, 0, 62, 0
2, 161951, Note_on_c, 0, 66, 0
2, 161994, Note_on_c, 0, 78, 0
2, 161998, Note_on_c, 0, 62, 75
2, 161998, Note_on_c, 0, 66, 63
2, 161998, Note_on_c, 0, 74, 66
2, 162002, Note_on_c, 0, 59, 74
2, 162035, Note_on_c, 0, 49, 69
2, 162039, Note_on_c, 0, 47, 0
2, 162092, Note_on_c, 0, 73, 69
2, 162098, Note_on_c, 0, 74, 0
2, 162128, Note_on_c, 0, 38, 0
2, 162151, Note_on_c, 0, 59, 0
2, 162152, Note_on_c, 0, 62, 0
2, 162154, Note_on_c, 0, 66, 0
2, 162172, Note_on_c, 0, 26, 0
2, 162177, Note_on_c, 0, 38, 57
2, 162181, Note_on_c, 0, 49, 0
2, 162181, Note_on_c, 0, 50, 61
2, 162195, Note_on_c, 0, 62, 62
2, 162199, Note_on_c, 0, 73, 0
2, 162200, Note_on_c, 0, 59, 63
2, 162204, Note_on_c, 0, 71, 69
2, 162205, Note_on_c, 0, 66, 71
2, 162286, Note_on_c, 0, 50, 0
2, 162320, Note_on_c, 0, 62, 0
2, 162325, Note_on_c, 0, 59, 0
2, 162330, Note_on_c, 0, 50, 72
2, 162336, Note_on_c, 0, 66, 0
2, 162340, Control_c, 0, 64, 127
2, 162367, Note_on_c, 0, 62, 58
2, 162371, Note_on_c, 0, 59, 56
2, 162388, Note_on_c, 0, 66, 61
2, 162408, Note_on_c, 0, 62, 0
2, 162409, Note_on_c, 0, 59, 0
2, 162416, Note_on_c, 0, 66, 0
2, 162447, Note_on_c, 0, 52, 57
2, 162461, Note_on_c, 0, 62, 61
2, 162462, Note_on_c, 0, 59, 63
2, 162466, Note_on_c, 0, 66, 56
2, 162484, Note_on_c, 0, 59, 0
2, 162485, Note_on_c, 0, 50, 0
2, 162490, Note_on_c, 0, 71, 0
2, 162505, Note_on_c, 0, 66, 0
2, 162516, Note_on_c, 0, 62, 0
2, 162562, Note_on_c, 0, 62, 74
2, 162562, Note_on_c, 0, 66, 57
2, 162593, Note_on_c, 0, 54, 79
2, 162630, Note_on_c, 0, 38, 0
2, 162630, Note_on_c, 0, 52, 0
2, 162631, Control_c, 0, 64, 0
2, 162690, Note_on_c, 0, 62, 0
2, 162699, Note_on_c, 0, 66, 0
2, 162710, Note_on_c, 0, 55, 57
2, 162735, Note_on_c, 0, 62, 60
2, 162749, Note_on_c, 0, 54, 0
2, 162753, Note_on_c, 0, 66, 61
2, 162843, Note_on_c, 0, 57, 74
2, 162888, Note_on_c, 0, 55, 0
2, 162967, Note_on_c, 0, 50, 74
2, 162974, Note_on_c, 0, 38, 79
2, 162976, Note_on_c, 0, 67, 87
2, 162976, Note_on_c, 0, 76, 85
2, 162990, Note_on_c, 0, 59, 76
2, 162990, Note_on_c, 0, 64, 76
2, 163011, Note_on_c, 0, 57, 0
2, 163014, Note_on_c, 0, 62, 0
2, 163014, Note_on_c, 0, 66, 0
2, 163043, Control_c, 0, 64, 127
2, 163094, Control_c, 0, 67, 0
2, 163150, Note_on_c, 0, 64, 0
2, 163164, Note_on_c, 0, 67, 0
2, 163204, Note_on_c, 0, 64, 60
2, 163219, Note_on_c, 0, 67, 66
2, 163255, Note_on_c, 0, 67, 0
2, 163259, Note_on_c, 0, 64, 0
2, 163316, Note_on_c, 0, 64, 61
2, 163316, Note_on_c, 0, 67, 68
2, 163371, Note_on_c, 0, 64, 0
2, 163380, Note_on_c, 0, 67, 0
2, 163427, Note_on_c, 0, 64, 63
2, 163432, Note_on_c, 0, 67, 64
2, 163457, Control_c, 0, 64, 0
2, 163491, Note_on_c, 0, 76, 0
2, 163521, Note_on_c, 0, 59, 0
2, 163536, Note_on_c, 0, 76, 68
2, 163546, Note_on_c, 0, 57, 58
2, 163557, Note_on_c, 0, 64, 0
2, 163561, Note_on_c, 0, 67, 0
2, 163607, Note_on_c, 0, 64, 68
2, 163616, Note_on_c, 0, 67, 62
2, 163621, Note_on_c, 0, 55, 65
2, 163625, Note_on_c, 0, 57, 0
2, 163677, Note_on_c, 0, 78, 75
2, 163698, Note_on_c, 0, 55, 0
2, 163704, Note_on_c, 0, 54, 65
2, 163728, Note_on_c, 0, 76, 0
2, 163732, Note_on_c, 0, 64, 0
2, 163732, Note_on_c, 0, 67, 0
2, 163785, Note_on_c, 0, 38, 0
2, 163786, Note_on_c, 0, 64, 67
2, 163789, Note_on_c, 0, 54, 0
2, 163790, Note_on_c, 0, 67, 76
2, 163794, Note_on_c, 0, 50, 0
2, 163794, Note_on_c, 0, 55, 67
2, 163794, Note_on_c, 0, 59, 66
2, 163795, Note_on_c, 0, 52, 67
2, 163799, Note_on_c, 0, 79, 77
2, 163823, Note_on_c, 0, 78, 0
2, 163866, Control_c, 0, 64, 127
2, 163888, Note_on_c, 0, 79, 0
2, 163936, Note_on_c, 0, 59, 0
2, 163936, Note_on_c, 0, 64, 0
2, 163937, Note_on_c, 0, 67, 0
2, 163942, Note_on_c, 0, 79, 80
2, 163985, Note_on_c, 0, 64, 66
2, 163985, Note_on_c, 0, 67, 65
2, 163986, Note_on_c, 0, 59, 69
2, 164018, Note_on_c, 0, 67, 0
2, 164025, Note_on_c, 0, 59, 0
2, 164029, Note_on_c, 0, 64, 0
2, 164060, Note_on_c, 0, 79, 0
2, 164064, Note_on_c, 0, 81, 74
2, 164073, Note_on_c, 0, 67, 64
2, 164080, Note_on_c, 0, 59, 71
2, 164080, Note_on_c, 0, 64, 66
2, 164112, Note_on_c, 0, 59, 0
2, 164112, Note_on_c, 0, 67, 0
2, 164113, Note_on_c, 0, 64, 0
2, 164160, Note_on_c, 0, 52, 0
2, 164162, Note_on_c, 0, 55, 0
2, 164165, Note_on_c, 0, 59, 79
2, 164166, Note_on_c, 0, 64, 77
2, 164166, Note_on_c, 0, 67, 83
2, 164166, Note_on_c, 0, 83, 83
2, 164208, Note_on_c, 0, 81, 0
2, 164290, Note_on_c, 0, 85, 84
2, 164293, Control_c, 0, 64, 0
2, 164301, Note_on_c, 0, 59, 0
2, 164304, Note_on_c, 0, 67, 0
2, 164310, Note_on_c, 0, 64, 0
2, 164319, Note_on_c, 0, 83, 0
2, 164354, Note_on_c, 0, 59, 80
2, 164354, Note_on_c, 0, 64, 75
2, 164354, Note_on_c, 0, 67, 64
2, 164413, Note_on_c, 0, 86, 75
2, 164442, Note_on_c, 0, 85, 0
2, 164518, Note_on_c, 0, 64, 0
2, 164550, Note_on_c, 0, 37, 78
2, 164550, Note_on_c, 0, 49, 82
2, 164558, Note_on_c, 0, 59, 0
2, 164558, Note_on_c, 0, 57, 83
2, 164559, Note_on_c, 0, 52, 83
2, 164568, Note_on_c, 0, 64, 78
2, 164575, Note_on_c, 0, 67, 0
2, 164577, Note_on_c, 0, 88, 72
2, 164579, Note_on_c, 0, 69, 69
2, 164598, Note_on_c, 0, 37, 0
2, 164601, Note_on_c, 0, 86, 0
2, 164630, Control_c, 0, 64, 127
2, 164699, Control_c, 0, 67, 127
2, 164709, Note_on_c, 0, 57, 0
2, 164712, Note_on_c, 0, 64, 0
2, 164723, Note_on_c, 0, 69, 0
2, 164761, Note_on_c, 0, 57, 67
2, 164761, Note_on_c, 0, 64, 67
2, 164771, Note_on_c, 0, 69, 62
2, 164815, Note_on_c, 0, 57, 0
2, 164819, Note_on_c, 0, 69, 0
2, 164820, Note_on_c, 0, 64, 0
2, 164864, Note_on_c, 0, 64, 64
2, 164865, Note_on_c, 0, 57, 67
2, 164869, Note_on_c, 0, 69, 60
2, 164899, Note_on_c, 0, 57, 0
2, 164908, Note_on_c, 0, 64, 0
2, 164909, Note_on_c, 0, 69, 0
2, 164954, Note_on_c, 0, 57, 73
2, 164964, Note_on_c, 0, 64, 69
2, 164964, Note_on_c, 0, 69, 75
2, 165084, Note_on_c, 0, 52, 0
2, 165122, Note_on_c, 0, 85, 68
2, 165127, Note_on_c, 0, 88, 0
2, 165132, Note_on_c, 0, 64, 0
2, 165132, Note_on_c, 0, 52, 81
2, 165135, Note_on_c, 0, 69, 0
2, 165145, Control_c, 0, 64, 0
2, 165174, Note_on_c, 0, 64, 59
2, 165178, Note_on_c, 0, 85, 0
2, 165178, Note_on_c, 0, 69, 62
2, 165188, Note_on_c, 0, 81, 68
2, 165208, Note_on_c, 0, 57, 0
2, 165243, Note_on_c, 0, 54, 74
2, 165263, Note_on_c, 0, 81, 0
2, 165267, Note_on_c, 0, 52, 0
2, 165274, Note_on_c, 0, 76, 69
2, 165303, Note_on_c, 0, 64, 0
2, 165313, Note_on_c, 0, 69, 0
2, 165355, Note_on_c, 0, 64, 81
2, 165358, Note_on_c, 0, 76, 0
2, 165369, Note_on_c, 0, 54, 0
2, 165370, Note_on_c, 0, 69, 74
2, 165370, Note_on_c, 0, 73, 68
2, 165374, Note_on_c, 0, 55, 75
2, 165442, Note_on_c, 0, 55, 0
2, 165462, Control_c, 0, 64, 127
2, 165484, Control_c, 0, 67, 0
2, 165495, Note_on_c, 0, 55, 69
2, 165504, Note_on_c, 0, 69, 0
2, 165508, Note_on_c, 0, 64, 0
2, 165553, Note_on_c, 0, 64, 62
2, 165557, Note_on_c, 0, 69, 62
2, 165571, Note_on_c, 0, 64, 0
2, 165576, Note_on_c, 0, 69, 0
2, 165625, Note_on_c, 0, 57, 73
2, 165629, Note_on_c, 0, 64, 75
2, 165629, Note_on_c, 0, 69, 69
2, 165650, Note_on_c, 0, 55, 0
2, 165692, Note_on_c, 0, 69, 0
2, 165730, Note_on_c, 0, 49, 0
2, 165733, Note_on_c, 0, 73, 0
2, 165737, Note_on_c, 0, 64, 0
2, 165740, Note_on_c, 0, 37, 68
2, 165743, Note_on_c, 0, 69, 71
2, 165763, Note_on_c, 0, 59, 75
2, 165792, Note_on_c, 0, 57, 0
2, 165870, Note_on_c, 0, 69, 0
2, 165870, Note_on_c, 0, 61, 79
2, 165894, Note_on_c, 0, 59, 0
2, 165924, Note_on_c, 0, 69, 73
2, 165969, Control_c, 0, 64, 0
2, 165973, Note_on_c, 0, 62, 79
2, 166003, Note_on_c, 0, 61, 0
2, 166044, Note_on_c, 0, 64, 94
2, 166062, Note_on_c, 0, 62, 0
2, 166083, Note_on_c, 0, 64, 0
2, 166134, Note_on_c, 0, 64, 79
2, 166135, Note_on_c, 0, 37, 0
2, 166135, Note_on_c, 0, 66, 84
2, 166141, Note_on_c, 0, 36, 81
2, 166145, Note_on_c, 0, 70, 88
2, 166146, Note_on_c, 0, 69, 0
2, 166231, Note_on_c, 0, 36, 0
2, 166251, Note_on_c, 0, 37, 78
2, 166270, Note_on_c, 0, 70, 0
2, 166271, Note_on_c, 0, 66, 0
2, 166272, Note_on_c, 0, 37, 0
2, 166293, Control_c, 0, 64, 127
2, 166296, Note_on_c, 0, 36, 80
2, 166319, Note_on_c, 0, 36, 0
2, 166320, Note_on_c, 0, 66, 78
2, 166320, Note_on_c, 0, 70, 73
2, 166354, Note_on_c, 0, 66, 0
2, 166355, Note_on_c, 0, 37, 91
2, 166359, Note_on_c, 0, 70, 0
2, 166376, Note_on_c, 0, 37, 0
2, 166401, Note_on_c, 0, 36, 85
2, 166405, Note_on_c, 0, 66, 73
2, 166411, Note_on_c, 0, 70, 76
2, 166424, Note_on_c, 0, 36, 0
2, 166444, Note_on_c, 0, 64, 0
2, 166453, Note_on_c, 0, 37, 87
2, 166455, Note_on_c, 0, 66, 0
2, 166456, Note_on_c, 0, 70, 0
2, 166474, Note_on_c, 0, 37, 0
2, 166488, Note_on_c, 0, 42, 87
2, 166492, Note_on_c, 0, 36, 90
2, 166496, Note_on_c, 0, 64, 88
2, 166502, Note_on_c, 0, 66, 97
2, 166503, Note_on_c, 0, 78, 98
2, 166506, Note_on_c, 0, 70, 93
2, 166512, Note_on_c, 0, 90, 91
2, 166513, Note_on_c, 0, 36, 0
2, 166534, Note_on_c, 0, 37, 87
2, 166554, Note_on_c, 0, 37, 0
2, 166579, Note_on_c, 0, 36, 83
2, 166598, Note_on_c, 0, 36, 0
2, 166627, Note_on_c, 0, 37, 84
2, 166660, Note_on_c, 0, 37, 0
2, 166666, Note_on_c, 0, 36, 85
2, 166669, Note_on_c, 0, 64, 0
2, 166669, Note_on_c, 0, 70, 0
2, 166670, Note_on_c, 0, 66, 0
2, 166701, Note_on_c, 0, 36, 0
2, 166720, Note_on_c, 0, 64, 84
2, 166721, Note_on_c, 0, 66, 81
2, 166721, Note_on_c, 0, 70, 82
2, 166727, Note_on_c, 0, 35, 81
2, 166780, Note_on_c, 0, 36, 86
2, 166805, Note_on_c, 0, 35, 0
2, 166844, Note_on_c, 0, 64, 0
2, 166850, Note_on_c, 0, 37, 89
2, 166854, Note_on_c, 0, 66, 0
2, 166876, Note_on_c, 0, 36, 0
2, 166883, Note_on_c, 0, 42, 0
2, 166893, Note_on_c, 0, 44, 86
2, 166896, Note_on_c, 0, 37, 0
2, 166896, Note_on_c, 0, 64, 86
2, 166900, Note_on_c, 0, 70, 0
2, 166906, Note_on_c, 0, 66, 83
2, 167034, Note_on_c, 0, 25, 88
2, 167040, Note_on_c, 0, 66, 0
2, 167040, Note_on_c, 0, 64, 0
2, 167086, Note_on_c, 0, 64, 85
2, 167086, Note_on_c, 0, 66, 72
2, 167126, Note_on_c, 0, 64, 0
2, 167137, Note_on_c, 0, 66, 0
2, 167173, Note_on_c, 0, 64, 84
2, 167186, Note_on_c, 0, 66, 77
2, 167220, Note_on_c, 0, 64, 0
2, 167226, Note_on_c, 0, 66, 0
2, 167260, Note_on_c, 0, 25, 0
2, 167264, Note_on_c, 0, 44, 0
2, 167270, Note_on_c, 0, 64, 95
2, 167271, Note_on_c, 0, 46, 93
2, 167275, Note_on_c, 0, 78, 0
2, 167275, Note_on_c, 0, 76, 103
2, 167280, Note_on_c, 0, 66, 102
2, 167284, Note_on_c, 0, 90, 0
2, 167288, Note_on_c, 0, 88, 100
2, 167357, Control_c, 0, 64, 0
2, 167440, Note_on_c, 0, 66, 0
2, 167440, Note_on_c, 0, 64, 0
2, 167489, Note_on_c, 0, 64, 95
2, 167489, Note_on_c, 0, 66, 92
2, 167637, Note_on_c, 0, 64, 0
2, 167642, Note_on_c, 0, 66, 0
2, 167645, Note_on_c, 0, 46, 0
2, 167646, Note_on_c, 0, 59, 100
2, 167653, Note_on_c, 0, 35, 103
2, 167656, Note_on_c, 0, 47, 102
2, 167662, Note_on_c, 0, 76, 0
2, 167665, Note_on_c, 0, 88, 0
2, 167676, Note_on_c, 0, 54, 101
2, 167710, Note_on_c, 0, 35, 0
2, 167720, Note_on_c, 0, 76, 116
2, 167720, Note_on_c, 0, 88, 113
2, 167733, Control_c, 0, 64, 127
2, 167866, Note_on_c, 0, 59, 0
2, 167922, Note_on_c, 0, 59, 86
2, 167923, Note_on_c, 0, 66, 73
2, 167977, Note_on_c, 0, 66, 0
2, 167981, Note_on_c, 0, 59, 0
2, 168025, Note_on_c, 0, 59, 91
2, 168025, Note_on_c, 0, 66, 74
2, 168095, Note_on_c, 0, 66, 0
2, 168124, Note_on_c, 0, 47, 0
2, 168128, Note_on_c, 0, 59, 0
2, 168129, Note_on_c, 0, 49, 99
2, 168129, Note_on_c, 0, 66, 79
2, 168220, Note_on_c, 0, 54, 0
2, 168226, Note_on_c, 0, 56, 91
2, 168255, Note_on_c, 0, 66, 0
2, 168308, Note_on_c, 0, 66, 75
2, 168317, Note_on_c, 0, 56, 0
2, 168327, Note_on_c, 0, 58, 92
2, 168337, Control_c, 0, 64, 0
2, 168372, Note_on_c, 0, 76, 0
2, 168376, Note_on_c, 0, 88, 0
2, 168382, Note_on_c, 0, 74, 94
2, 168382, Note_on_c, 0, 86, 92
2, 168423, Note_on_c, 0, 66, 0
2, 168427, Note_on_c, 0, 74, 0
2, 168428, Note_on_c, 0, 86, 0
2, 168430, Note_on_c, 0, 49, 0
2, 168441, Note_on_c, 0, 47, 95
2, 168441, Note_on_c, 0, 50, 97
2, 168449, Note_on_c, 0, 58, 0
2, 168450, Note_on_c, 0, 59, 99
2, 168480, Note_on_c, 0, 66, 69
2, 168485, Note_on_c, 0, 74, 70
2, 168489, Note_on_c, 0, 86, 68
2, 168532, Note_on_c, 0, 59, 0
2, 168591, Note_on_c, 0, 59, 91
2, 168603, Note_on_c, 0, 66, 0
2, 168648, Note_on_c, 0, 66, 68
2, 168696, Note_on_c, 0, 66, 0
2, 168696, Note_on_c, 0, 61, 97
2, 168735, Control_c, 0, 64, 127
2, 168736, Note_on_c, 0, 59, 0
2, 168743, Note_on_c, 0, 66, 71
2, 168765, Note_on_c, 0, 47, 0
2, 168795, Note_on_c, 0, 66, 0
2, 168799, Note_on_c, 0, 62, 100
2, 168811, Note_on_c, 0, 47, 98
2, 168814, Note_on_c, 0, 50, 0
2, 168814, Note_on_c, 0, 52, 97
2, 168821, Note_on_c, 0, 61, 0
2, 168843, Note_on_c, 0, 66, 71
2, 168872, Note_on_c, 0, 66, 0
2, 168883, Note_on_c, 0, 62, 0
2, 168883, Note_on_c, 0, 64, 98
2, 168954, Note_on_c, 0, 64, 0
2, 168960, Note_on_c, 0, 66, 99
2, 169025, Note_on_c, 0, 68, 98
2, 169026, Note_on_c, 0, 66, 0
2, 169088, Note_on_c, 0, 68, 0
2, 169095, Note_on_c, 0, 69, 100
2, 169118, Control_c, 0, 64, 0
2, 169148, Note_on_c, 0, 69, 0
2, 169154, Note_on_c, 0, 70, 103
2, 169165, Note_on_c, 0, 40, 102
2, 169184, Note_on_c, 0, 53, 99
2, 169185, Note_on_c, 0, 47, 0
2, 169185, Note_on_c, 0, 52, 0
2, 169195, Note_on_c, 0, 62, 101
2, 169195, Note_on_c, 0, 64, 100
2, 169215, Note_on_c, 0, 70, 0
2, 169215, Note_on_c, 0, 74, 0
2, 169219, Note_on_c, 0, 71, 115
2, 169220, Note_on_c, 0, 86, 0
2, 169225, Note_on_c, 0, 40, 0
2, 169296, Note_on_c, 0, 64, 0
2, 169307, Note_on_c, 0, 62, 0
2, 169359, Note_on_c, 0, 62, 78
2, 169359, Note_on_c, 0, 64, 72
2, 169388, Note_on_c, 0, 64, 0
2, 169388, Note_on_c, 0, 62, 0
2, 169435, Note_on_c, 0, 64, 73
2, 169439, Note_on_c, 0, 62, 70
2, 169483, Note_on_c, 0, 62, 0
2, 169483, Note_on_c, 0, 64, 0
2, 169535, Note_on_c, 0, 62, 91
2, 169535, Note_on_c, 0, 73, 98
2, 169536, Note_on_c, 0, 64, 94
2, 169539, Note_on_c, 0, 85, 101
2, 169549, Note_on_c, 0, 53, 0
2, 169556, Note_on_c, 0, 54, 95
2, 169564, Note_on_c, 0, 71, 0
2, 169577, Control_c, 0, 64, 127
2, 169745, Note_on_c, 0, 64, 0
2, 169745, Note_on_c, 0, 62, 0
2, 169796, Note_on_c, 0, 62, 61
2, 169797, Note_on_c, 0, 64, 61
2, 169926, Note_on_c, 0, 62, 0
2, 169932, Note_on_c, 0, 64, 0
2, 169938, Note_on_c, 0, 54, 0
2, 169944, Note_on_c, 0, 55, 86
2, 169945, Note_on_c, 0, 40, 87
2, 169986, Note_on_c, 0, 62, 62
2, 169986, Note_on_c, 0, 64, 62
2, 170120, Note_on_c, 0, 62, 0
2, 170124, Note_on_c, 0, 64, 0
2, 170168, Note_on_c, 0, 62, 57
2, 170169, Note_on_c, 0, 64, 58
2, 170210, Note_on_c, 0, 62, 0
2, 170217, Note_on_c, 0, 64, 0
2, 170257, Note_on_c, 0, 64, 57
2, 170258, Note_on_c, 0, 62, 56
2, 170273, Control_c, 0, 64, 0
2, 170314, Note_on_c, 0, 62, 0
2, 170314, Note_on_c, 0, 40, 0
2, 170320, Note_on_c, 0, 64, 0
2, 170367, Note_on_c, 0, 28, 87
2, 170370, Note_on_c, 0, 55, 0
2, 170370, Note_on_c, 0, 73, 0
2, 170371, Note_on_c, 0, 40, 86
2, 170374, Note_on_c, 0, 71, 83
2, 170374, Note_on_c, 0, 83, 84
2, 170375, Note_on_c, 0, 56, 87
2, 170375, Note_on_c, 0, 62, 86
2, 170375, Note_on_c, 0, 64, 83
2, 170378, Note_on_c, 0, 85, 0
2, 170501, Note_on_c, 0, 64, 0
2, 170512, Note_on_c, 0, 62, 0
2, 170555, Note_on_c, 0, 62, 62
2, 170555, Note_on_c, 0, 64, 58
2, 170703, Note_on_c, 0, 83, 0
2, 170703, Note_on_c, 0, 71, 0
2, 170742, Note_on_c, 0, 28, 0
2, 170749, Note_on_c, 0, 71, 93
2, 170751, Note_on_c, 0, 40, 0
2, 170753, Note_on_c, 0, 64, 0
2, 170754, Note_on_c, 0, 45, 82
2, 170754, Note_on_c, 0, 83, 86
2, 170755, Note_on_c, 0, 56, 0
2, 170755, Note_on_c, 0, 33, 85
2, 170761, Note_on_c, 0, 57, 80
2, 170764, Note_on_c, 0, 62, 0
2, 170767, Note_on_c, 0, 61, 83
2, 170829, Control_c, 0, 64, 127
2, 170895, Note_on_c, 0, 61, 0
2, 170951, Note_on_c, 0, 61, 63
2, 170951, Note_on_c, 0, 64, 59
2, 170992, Note_on_c, 0, 64, 0
2, 170993, Note_on_c, 0, 61, 0
2, 171045, Note_on_c, 0, 61, 64
2, 171045, Note_on_c, 0, 64, 68
2, 171088, Note_on_c, 0, 61, 0
2, 171094, Note_on_c, 0, 64, 0
2, 171138, Note_on_c, 0, 57, 0
2, 171138, Note_on_c, 0, 64, 68
2, 171144, Note_on_c, 0, 59, 83
2, 171144, Note_on_c, 0, 61, 83
2, 171207, Control_c, 0, 64, 0
2, 171304, Note_on_c, 0, 61, 0
2, 171313, Note_on_c, 0, 64, 0
2, 171357, Note_on_c, 0, 61, 59
2, 171358, Note_on_c, 0, 64, 59
2, 171435, Note_on_c, 0, 71, 0
2, 171435, Note_on_c, 0, 69, 74
2, 171441, Note_on_c, 0, 83, 0
2, 171445, Note_on_c, 0, 81, 70
2, 171496, Note_on_c, 0, 81, 0
2, 171498, Note_on_c, 0, 69, 0
2, 171501, Note_on_c, 0, 64, 0
2, 171547, Note_on_c, 0, 61, 0
2, 171548, Note_on_c, 0, 59, 0
2, 171548, Note_on_c, 0, 57, 78
2, 171548, Note_on_c, 0, 60, 74
2, 171548, Note_on_c, 0, 64, 77
2, 171552, Note_on_c, 0, 69, 81
2, 171555, Note_on_c, 0, 81, 78
2, 171601, Control_c, 0, 64, 127
2, 171682, Note_on_c, 0, 64, 0
2, 171685, Note_on_c, 0, 57, 0
2, 171733, Note_on_c, 0, 69, 0
2, 171733, Note_on_c, 0, 81, 0
2, 171733, Note_on_c, 0, 57, 62
2, 171733, Note_on_c, 0, 64, 61
2, 171783, Note_on_c, 0, 64, 0
2, 171791, Note_on_c, 0, 57, 0
2, 171839, Note_on_c, 0, 57, 59
2, 171844, Note_on_c, 0, 64, 61
2, 171897, Note_on_c, 0, 64, 0
2, 171897, Note_on_c, 0, 57, 0
2, 171933, Note_on_c, 0, 60, 0
2, 171936, Control_c, 0, 64, 0
2, 171942, Note_on_c, 0, 57, 62
2, 171942, Note_on_c, 0, 64, 62
2, 171948, Note_on_c, 0, 61, 58
2, 172023, Note_on_c, 0, 80, 78
2, 172062, Note_on_c, 0, 57, 0
2, 172078, Note_on_c, 0, 81, 84
2, 172087, Note_on_c, 0, 33, 0
2, 172097, Note_on_c, 0, 45, 0
2, 172112, Note_on_c, 0, 57, 63
2, 172124, Note_on_c, 0, 83, 83
2, 172146, Note_on_c, 0, 64, 0
2, 172163, Note_on_c, 0, 85, 81
2, 172213, Note_on_c, 0, 86, 93
2, 172251, Note_on_c, 0, 88, 89
2, 172275, Note_on_c, 0, 88, 0
2, 172279, Note_on_c, 0, 80, 0
2, 172279, Note_on_c, 0, 81, 0
2, 172285, Note_on_c, 0, 86, 0
2, 172286, Note_on_c, 0, 83, 0
2, 172286, Note_on_c, 0, 85, 0
2, 172292, Note_on_c, 0, 90, 93
2, 172307, Note_on_c, 0, 57, 0
2, 172311, Note_on_c, 0, 61, 0
2, 172313, Note_on_c, 0, 90, 0
2, 172335, Note_on_c, 0, 92, 89
2, 172359, Note_on_c, 0, 52, 80
2, 172359, Note_on_c, 0, 57, 84
2, 172360, Note_on_c, 0, 33, 86
2, 172363, Note_on_c, 0, 45, 84
2, 172364, Note_on_c, 0, 61, 85
2, 172364, Note_on_c, 0, 64, 80
2, 172370, Control_c, 0, 64, 127
2, 172373, Note_on_c, 0, 92, 0
2, 172379, Note_on_c, 0, 93, 92
2, 172515, Note_on_c, 0, 52, 0
2, 172521, Note_on_c, 0, 57, 0
2, 172522, Note_on_c, 0, 61, 0
2, 172572, Note_on_c, 0, 57, 58
2, 172573, Note_on_c, 0, 52, 62
2, 172577, Note_on_c, 0, 61, 63
2, 172615, Note_on_c, 0, 52, 0
2, 172617, Note_on_c, 0, 61, 0
2, 172620, Note_on_c, 0, 57, 0
2, 172671, Note_on_c, 0, 57, 63
2, 172672, Note_on_c, 0, 52, 67
2, 172672, Note_on_c, 0, 61, 67
2, 172680, Control_c, 0, 64, 0
2, 172703, Note_on_c, 0, 57, 0
2, 172704, Note_on_c, 0, 61, 0
2, 172707, Note_on_c, 0, 52, 0
2, 172758, Note_on_c, 0, 57, 79
2, 172759, Note_on_c, 0, 52, 77
2, 172775, Note_on_c, 0, 61, 81
2, 172781, Note_on_c, 0, 33, 0
2, 172791, Note_on_c, 0, 45, 0
2, 172800, Note_on_c, 0, 93, 0
2, 172903, Note_on_c, 0, 64, 0
2, 172907, Note_on_c, 0, 66, 71
2, 172911, Note_on_c, 0, 52, 0
2, 172915, Note_on_c, 0, 57, 0
2, 172915, Note_on_c, 0, 61, 0
2, 172968, Note_on_c, 0, 57, 60
2, 172968, Note_on_c, 0, 61, 60
2, 172968, Note_on_c, 0, 52, 58
2, 173043, Note_on_c, 0, 66, 0
2, 173049, Note_on_c, 0, 68, 69
2, 173087, Note_on_c, 0, 52, 0
2, 173097, Note_on_c, 0, 61, 0
2, 173099, Note_on_c, 0, 57, 0
2, 173141, Note_on_c, 0, 52, 76
2, 173145, Note_on_c, 0, 57, 75
2, 173145, Note_on_c, 0, 61, 78
2, 173146, Note_on_c, 0, 68, 0
2, 173149, Note_on_c, 0, 69, 78
2, 173176, Control_c, 0, 64, 127
2, 173197, Note_on_c, 0, 69, 0
2, 173273, Note_on_c, 0, 69, 77
2, 173293, Note_on_c, 0, 52, 0
2, 173297, Note_on_c, 0, 61, 0
2, 173298, Note_on_c, 0, 57, 0
2, 173350, Note_on_c, 0, 57, 59
2, 173350, Note_on_c, 0, 61, 66
2, 173351, Note_on_c, 0, 52, 60
2, 173383, Note_on_c, 0, 57, 0
2, 173387, Note_on_c, 0, 52, 0
2, 173393, Note_on_c, 0, 61, 0
2, 173393, Note_on_c, 0, 69, 0
2, 173399, Note_on_c, 0, 71, 75
2, 173443, Note_on_c, 0, 57, 61
2, 173444, Note_on_c, 0, 52, 61
2, 173444, Note_on_c, 0, 61, 64
2, 173492, Note_on_c, 0, 52, 0
2, 173495, Note_on_c, 0, 61, 0
2, 173495, Note_on_c, 0, 57, 0
2, 173506, Note_on_c, 0, 71, 0
2, 173512, Note_on_c, 0, 73, 79
2, 173542, Note_on_c, 0, 57, 70
2, 173542, Note_on_c, 0, 61, 69
2, 173543, Note_on_c, 0, 52, 70
2, 173621, Note_on_c, 0, 73, 0
2, 173625, Note_on_c, 0, 74, 84
2, 173651, Control_c, 0, 64, 0
2, 173664, Note_on_c, 0, 52, 0
2, 173670, Note_on_c, 0, 57, 0
2, 173670, Note_on_c, 0, 61, 0
2, 173717, Note_on_c, 0, 52, 60
2, 173717, Note_on_c, 0, 61, 65
2, 173720, Note_on_c, 0, 57, 63
2, 173756, Note_on_c, 0, 74, 0
2, 173762, Note_on_c, 0, 76, 80
2, 173840, Note_on_c, 0, 57, 0
2, 173841, Note_on_c, 0, 61, 0
2, 173892, Note_on_c, 0, 52, 0
2, 173894, Note_on_c, 0, 33, 83
2, 173897, Note_on_c, 0, 45, 88
2, 173897, Note_on_c, 0, 57, 84
2, 173897, Note_on_c, 0, 61, 83
2, 173898, Note_on_c, 0, 54, 88
2, 173899, Note_on_c, 0, 42, 82
2, 173906, Note_on_c, 0, 76, 0
2, 173912, Note_on_c, 0, 78, 82
2, 173939, Note_on_c, 0, 33, 0
2, 173943, Note_on_c, 0, 45, 0
2, 174042, Control_c, 0, 64, 127
2, 174050, Note_on_c, 0, 54, 0
2, 174054, Note_on_c, 0, 61, 0
2, 174055, Note_on_c, 0, 57, 0
2, 174106, Note_on_c, 0, 57, 58
2, 174107, Note_on_c, 0, 54, 56
2, 174107, Note_on_c, 0, 61, 62
2, 174167, Note_on_c, 0, 54, 0
2, 174169, Note_on_c, 0, 57, 0
2, 174173, Note_on_c, 0, 61, 0
2, 174224, Note_on_c, 0, 54, 75
2, 174224, Note_on_c, 0, 57, 75
2, 174224, Note_on_c, 0, 61, 75
2, 174304, Note_on_c, 0, 57, 0
2, 174304, Note_on_c, 0, 54, 0
2, 174308, Note_on_c, 0, 61, 0
2, 174355, Note_on_c, 0, 57, 76
2, 174360, Note_on_c, 0, 54, 74
2, 174360, Note_on_c, 0, 61, 78
2, 174381, Note_on_c, 0, 42, 0
2, 174438, Note_on_c, 0, 42, 58
2, 174471, Note_on_c, 0, 78, 0
2, 174471, Note_on_c, 0, 73, 64
2, 174480, Note_on_c, 0, 54, 0
2, 174483, Note_on_c, 0, 57, 0
2, 174484, Note_on_c, 0, 61, 0
2, 174530, Note_on_c, 0, 73, 0
2, 174534, Note_on_c, 0, 54, 63
2, 174534, Note_on_c, 0, 57, 59
2, 174534, Note_on_c, 0, 61, 56
2, 174534, Note_on_c, 0, 69, 69
2, 174573, Control_c, 0, 64, 0
2, 174585, Note_on_c, 0, 44, 74
2, 174632, Note_on_c, 0, 69, 0
2, 174638, Note_on_c, 0, 68, 68
2, 174666, Note_on_c, 0, 54, 0
2, 174667, Note_on_c, 0, 61, 0
2, 174670, Note_on_c, 0, 57, 0
2, 174715, Note_on_c, 0, 68, 0
2, 174718, Note_on_c, 0, 57, 80
2, 174719, Note_on_c, 0, 54, 76
2, 174719, Note_on_c, 0, 61, 81
2, 174720, Note_on_c, 0, 45, 81
2, 174720, Note_on_c, 0, 66, 68
2, 174728, Note_on_c, 0, 44, 0
2, 174738, Note_on_c, 0, 42, 0
2, 174786, Note_on_c, 0, 45, 0
2, 174831, Note_on_c, 0, 54, 0
2, 174832, Note_on_c, 0, 61, 0
2, 174832, Note_on_c, 0, 57, 0
2, 174840, Note_on_c, 0, 45, 56
2, 174880, Note_on_c, 0, 54, 62
2, 174880, Note_on_c, 0, 61, 63
2, 174884, Note_on_c, 0, 57, 57
2, 174912, Control_c, 0, 64, 127
2, 174932, Note_on_c, 0, 54, 0
2, 174933, Note_on_c, 0, 57, 0
2, 174935, Note_on_c, 0, 61, 0
2, 174969, Note_on_c, 0, 47, 69
2, 174983, Note_on_c, 0, 54, 69
2, 174983, Note_on_c, 0, 57, 72
2, 174983, Note_on_c, 0, 61, 74
2, 174991, Note_on_c, 0, 45, 0
2, 175029, Note_on_c, 0, 61, 0
2, 175031, Note_on_c, 0, 54, 0
2, 175032, Note_on_c, 0, 57, 0
2, 175085, Note_on_c, 0, 49, 75
2, 175085, Note_on_c, 0, 54, 74
2, 175085, Note_on_c, 0, 57, 79
2, 175085, Note_on_c, 0, 61, 76
2, 175104, Control_c, 0, 64, 0
2, 175111, Note_on_c, 0, 47, 0
2, 175223, Note_on_c, 0, 54, 0
2, 175223, Note_on_c, 0, 61, 0
2, 175223, Note_on_c, 0, 50, 78
2, 175226, Note_on_c, 0, 57, 0
2, 175247, Note_on_c, 0, 49, 0
2, 175272, Note_on_c, 0, 54, 58
2, 175272, Note_on_c, 0, 57, 57
2, 175272, Note_on_c, 0, 61, 56
2, 175341, Note_on_c, 0, 52, 85
2, 175356, Note_on_c, 0, 54, 0
2, 175365, Note_on_c, 0, 50, 0
2, 175482, Note_on_c, 0, 59, 86
2, 175486, Note_on_c, 0, 54, 83
2, 175486, Note_on_c, 0, 62, 87
2, 175487, Note_on_c, 0, 61, 0
2, 175490, Note_on_c, 0, 45, 81
2, 175490, Note_on_c, 0, 71, 66
2, 175492, Note_on_c, 0, 33, 82
2, 175506, Note_on_c, 0, 52, 0
2, 175510, Note_on_c, 0, 57, 0
2, 175515, Note_on_c, 0, 66, 0
2, 175532, Note_on_c, 0, 59, 0
2, 175535, Note_on_c, 0, 62, 0
2, 175555, Control_c, 0, 64, 127
2, 175690, Note_on_c, 0, 59, 57
2, 175691, Note_on_c, 0, 62, 61
2, 175755, Note_on_c, 0, 59, 0
2, 175756, Note_on_c, 0, 62, 0
2, 175798, Note_on_c, 0, 59, 59
2, 175798, Note_on_c, 0, 62, 62
2, 175864, Note_on_c, 0, 62, 0
2, 175864, Note_on_c, 0, 59, 0
2, 175918, Note_on_c, 0, 59, 68
2, 175918, Note_on_c, 0, 62, 75
2, 175995, Note_on_c, 0, 71, 0
2, 176011, Note_on_c, 0, 54, 0
2, 176016, Note_on_c, 0, 52, 68
2, 176019, Control_c, 0, 64, 0
2, 176051, Note_on_c, 0, 71, 73
2, 176066, Note_on_c, 0, 59, 0
2, 176070, Note_on_c, 0, 62, 0
2, 176111, Note_on_c, 0, 52, 0
2, 176116, Note_on_c, 0, 59, 75
2, 176117, Note_on_c, 0, 50, 71
2, 176117, Note_on_c, 0, 62, 73
2, 176182, Note_on_c, 0, 50, 0
2, 176208, Note_on_c, 0, 59, 0
2, 176210, Note_on_c, 0, 62, 0
2, 176210, Note_on_c, 0, 73, 69
2, 176216, Note_on_c, 0, 49, 72
2, 176236, Note_on_c, 0, 71, 0
2, 176286, Note_on_c, 0, 59, 70
2, 176286, Note_on_c, 0, 62, 69
2, 176296, Note_on_c, 0, 49, 0
2, 176302, Note_on_c, 0, 47, 71
2, 176305, Note_on_c, 0, 50, 72
2, 176305, Note_on_c, 0, 54, 69
2, 176322, Note_on_c, 0, 33, 0
2, 176328, Note_on_c, 0, 45, 0
2, 176331, Note_on_c, 0, 74, 78
2, 176352, Note_on_c, 0, 73, 0
2, 176352, Control_c, 0, 64, 127
2, 176397, Note_on_c, 0, 74, 0
2, 176412, Note_on_c, 0, 54, 0
2, 176423, Note_on_c, 0, 59, 0
2, 176423, Note_on_c, 0, 62, 0
2, 176449, Note_on_c, 0, 74, 80
2, 176474, Note_on_c, 0, 54, 64
2, 176474, Note_on_c, 0, 59, 57
2, 176474, Note_on_c, 0, 62, 57
2, 176502, Note_on_c, 0, 54, 0
2, 176503, Note_on_c, 0, 59, 0
2, 176513, Note_on_c, 0, 62, 0
2, 176558, Note_on_c, 0, 59, 63
2, 176559, Note_on_c, 0, 54, 58
2, 176559, Note_on_c, 0, 62, 62
2, 176584, Note_on_c, 0, 76, 74
2, 176609, Note_on_c, 0, 74, 0
2, 176610, Note_on_c, 0, 54, 0
2, 176612, Note_on_c, 0, 62, 0
2, 176618, Note_on_c, 0, 59, 0
2, 176668, Note_on_c, 0, 54, 66
2, 176668, Note_on_c, 0, 59, 68
2, 176668, Note_on_c, 0, 62, 66
2, 176682, Note_on_c, 0, 47, 0
2, 176692, Note_on_c, 0, 50, 0
2, 176719, Note_on_c, 0, 78, 77
2, 176745, Note_on_c, 0, 76, 0
2, 176811, Note_on_c, 0, 62, 0
2, 176811, Note_on_c, 0, 54, 0
2, 176811, Note_on_c, 0, 59, 0
2, 176812, Control_c, 0, 64, 0
2, 176832, Note_on_c, 0, 80, 84
2, 176853, Note_on_c, 0, 78, 0
2, 176862, Note_on_c, 0, 62, 73
2, 176863, Note_on_c, 0, 54, 71
2, 176869, Note_on_c, 0, 59, 75
2, 176951, Note_on_c, 0, 80, 0
2, 176959, Note_on_c, 0, 81, 82
2, 177052, Note_on_c, 0, 59, 0
2, 177102, Note_on_c, 0, 54, 0
2, 177103, Note_on_c, 0, 81, 0
2, 177104, Note_on_c, 0, 44, 88
2, 177104, Note_on_c, 0, 47, 82
2, 177106, Note_on_c, 0, 32, 82
2, 177108, Note_on_c, 0, 52, 89
2, 177108, Note_on_c, 0, 59, 87
2, 177108, Note_on_c, 0, 64, 87
2, 177109, Note_on_c, 0, 62, 0
2, 177110, Control_c, 0, 64, 127
2, 177112, Note_on_c, 0, 83, 82
2, 177168, Note_on_c, 0, 32, 0
2, 177250, Note_on_c, 0, 52, 0
2, 177251, Note_on_c, 0, 64, 0
2, 177253, Note_on_c, 0, 59, 0
2, 177309, Note_on_c, 0, 59, 59
2, 177312, Note_on_c, 0, 64, 62
2, 177312, Note_on_c, 0, 52, 59
2, 177375, Note_on_c, 0, 59, 0
2, 177376, Note_on_c, 0, 52, 0
2, 177384, Note_on_c, 0, 64, 0
2, 177438, Note_on_c, 0, 59, 57
2, 177438, Note_on_c, 0, 64, 60
2, 177439, Note_on_c, 0, 52, 59
2, 177501, Note_on_c, 0, 64, 0
2, 177502, Note_on_c, 0, 59, 0
2, 177502, Note_on_c, 0, 52, 0
2, 177554, Note_on_c, 0, 52, 74
2, 177554, Note_on_c, 0, 59, 77
2, 177558, Note_on_c, 0, 64, 76
2, 177602, Note_on_c, 0, 47, 0
2, 177642, Note_on_c, 0, 52, 0
2, 177646, Note_on_c, 0, 47, 62
2, 177651, Note_on_c, 0, 83, 0
2, 177657, Note_on_c, 0, 80, 61
2, 177685, Note_on_c, 0, 59, 0
2, 177685, Control_c, 0, 64, 0
2, 177689, Note_on_c, 0, 64, 0
2, 177736, Note_on_c, 0, 59, 81
2, 177742, Note_on_c, 0, 64, 77
2, 177747, Note_on_c, 0, 80, 0
2, 177751, Note_on_c, 0, 76, 62
2, 177773, Note_on_c, 0, 49, 74
2, 177795, Note_on_c, 0, 47, 0
2, 177801, Note_on_c, 0, 76, 0
2, 177810, Note_on_c, 0, 71, 57
2, 177831, Note_on_c, 0, 59, 0
2, 177838, Note_on_c, 0, 64, 0
2, 177885, Note_on_c, 0, 64, 79
2, 177886, Note_on_c, 0, 59, 74
2, 177894, Note_on_c, 0, 71, 0
2, 177904, Note_on_c, 0, 68, 68
2, 177918, Note_on_c, 0, 50, 78
2, 177933, Note_on_c, 0, 49, 0
2, 177995, Control_c, 0, 64, 127
2, 178019, Note_on_c, 0, 50, 0
2, 178033, Note_on_c, 0, 59, 0
2, 178036, Note_on_c, 0, 64, 0
2, 178067, Note_on_c, 0, 50, 63
2, 178085, Note_on_c, 0, 64, 62
2, 178089, Note_on_c, 0, 59, 57
2, 178135, Note_on_c, 0, 59, 0
2, 178142, Note_on_c, 0, 64, 0
2, 178171, Note_on_c, 0, 52, 76
2, 178185, Note_on_c, 0, 59, 56
2, 178187, Note_on_c, 0, 50, 0
2, 178190, Note_on_c, 0, 64, 58
2, 178248, Note_on_c, 0, 64, 0
2, 178292, Note_on_c, 0, 59, 0
2, 178292, Note_on_c, 0, 68, 0
2, 178298, Note_on_c, 0, 54, 74
2, 178298, Note_on_c, 0, 64, 76
2, 178309, Note_on_c, 0, 32, 78
2, 178311, Note_on_c, 0, 44, 0
2, 178318, Note_on_c, 0, 52, 0
2, 178368, Note_on_c, 0, 32, 0
2, 178440, Note_on_c, 0, 54, 0
2, 178444, Note_on_c, 0, 64, 0
2, 178445, Note_on_c, 0, 56, 76
2, 178462, Control_c, 0, 64, 0
2, 178491, Note_on_c, 0, 64, 78
2, 178547, Note_on_c, 0, 57, 74
2, 178568, Note_on_c, 0, 56, 0
2, 178606, Note_on_c, 0, 59, 82
2, 178640, Note_on_c, 0, 57, 0
2, 178665, Note_on_c, 0, 59, 0
2, 178699, Note_on_c, 0, 31, 82
2, 178711, Note_on_c, 0, 64, 0
2, 178713, Note_on_c, 0, 59, 87
2, 178713, Note_on_c, 0, 61, 87
2, 178713, Note_on_c, 0, 65, 61
2, 178792, Note_on_c, 0, 33, 57
2, 178801, Note_on_c, 0, 59, 0
2, 178811, Note_on_c, 0, 31, 0
2, 178853, Note_on_c, 0, 65, 0
2, 178857, Note_on_c, 0, 61, 0
2, 178859, Control_c, 0, 64, 127
2, 178862, Note_on_c, 0, 33, 0
2, 178874, Note_on_c, 0, 31, 76
2, 178895, Note_on_c, 0, 31, 0
2, 178904, Note_on_c, 0, 65, 57
2, 178910, Note_on_c, 0, 59, 75
2, 178910, Note_on_c, 0, 61, 78
2, 178921, Note_on_c, 0, 33, 80
2, 178941, Note_on_c, 0, 61, 0
2, 178942, Note_on_c, 0, 33, 0
2, 178945, Note_on_c, 0, 59, 0
2, 178951, Note_on_c, 0, 65, 0
2, 178978, Note_on_c, 0, 31, 85
2, 178998, Note_on_c, 0, 31, 0
2, 179008, Note_on_c, 0, 59, 87
2, 179008, Note_on_c, 0, 61, 87
2, 179012, Note_on_c, 0, 65, 95
2, 179023, Note_on_c, 0, 33, 83
2, 179038, Note_on_c, 0, 61, 0
2, 179038, Note_on_c, 0, 59, 0
2, 179043, Note_on_c, 0, 65, 0
2, 179044, Note_on_c, 0, 33, 0
2, 179070, Note_on_c, 0, 31, 80
2, 179095, Note_on_c, 0, 31, 0
2, 179096, Note_on_c, 0, 37, 81
2, 179099, Note_on_c, 0, 59, 82
2, 179100, Note_on_c, 0, 61, 87
2, 179100, Note_on_c, 0, 65, 95
2, 179107, Note_on_c, 0, 85, 94
2, 179111, Note_on_c, 0, 33, 85
2, 179112, Note_on_c, 0, 97, 93
2, 179140, Note_on_c, 0, 33, 0
2, 179152, Note_on_c, 0, 31, 77
2, 179172, Note_on_c, 0, 31, 0
2, 179198, Note_on_c, 0, 33, 80
2, 179228, Note_on_c, 0, 33, 0
2, 179244, Note_on_c, 0, 31, 81
2, 179250, Note_on_c, 0, 61, 0
2, 179252, Note_on_c, 0, 65, 0
2, 179252, Note_on_c, 0, 59, 0
2, 179267, Note_on_c, 0, 31, 0
2, 179296, Note_on_c, 0, 33, 73
2, 179310, Note_on_c, 0, 59, 75
2, 179310, Note_on_c, 0, 61, 68
2, 179310, Note_on_c, 0, 65, 98
2, 179339, Note_on_c, 0, 33, 0
2, 179345, Note_on_c, 0, 31, 71
2, 179369, Control_c, 0, 64, 0
2, 179389, Note_on_c, 0, 31, 0
2, 179395, Note_on_c, 0, 30, 75
2, 179434, Note_on_c, 0, 31, 75
2, 179458, Note_on_c, 0, 30, 0
2, 179458, Note_on_c, 0, 61, 0
2, 179468, Note_on_c, 0, 59, 0
2, 179503, Note_on_c, 0, 37, 0
2, 179509, Note_on_c, 0, 31, 0
2, 179510, Note_on_c, 0, 39, 88
2, 179519, Note_on_c, 0, 59, 88
2, 179520, Note_on_c, 0, 65, 0
2, 179520, Note_on_c, 0, 32, 92
2, 179520, Note_on_c, 0, 61, 93
2, 179559, Note_on_c, 0, 32, 0
2, 179651, Note_on_c, 0, 59, 0
2, 179655, Note_on_c, 0, 61, 0
2, 179708, Note_on_c, 0, 59, 62
2, 179712, Note_on_c, 0, 61, 68
2, 179753, Note_on_c, 0, 61, 0
2, 179760, Note_on_c, 0, 59, 0
2, 179807, Control_c, 0, 64, 127
2, 179814, Note_on_c, 0, 59, 62
2, 179815, Note_on_c, 0, 61, 65
2, 179844, Note_on_c, 0, 59, 0
2, 179848, Note_on_c, 0, 61, 0
2, 179874, Note_on_c, 0, 85, 0
2, 179892, Note_on_c, 0, 39, 0
2, 179898, Note_on_c, 0, 41, 85
2, 179902, Note_on_c, 0, 59, 87
2, 179902, Note_on_c, 0, 61, 80
2, 179905, Note_on_c, 0, 83, 99
2, 179905, Note_on_c, 0, 95, 93
2, 179909, Note_on_c, 0, 97, 0
2, 180041, Control_c, 0, 64, 0
2, 180051, Note_on_c, 0, 61, 0
2, 180051, Note_on_c, 0, 59, 0
2, 180103, Note_on_c, 0, 59, 69
2, 180104, Note_on_c, 0, 61, 70
2, 180234, Note_on_c, 0, 95, 0
2, 180249, Note_on_c, 0, 61, 0
2, 180249, Note_on_c, 0, 83, 0
2, 180285, Note_on_c, 0, 41, 0
2, 180292, Note_on_c, 0, 30, 82
2, 180295, Note_on_c, 0, 59, 0
2, 180295, Note_on_c, 0, 49, 81
2, 180295, Note_on_c, 0, 54, 82
2, 180295, Note_on_c, 0, 61, 84
2, 180295, Note_on_c, 0, 83, 94
2, 180296, Note_on_c, 0, 42, 84
2, 180306, Note_on_c, 0, 95, 96
2, 180357, Note_on_c, 0, 30, 0
2, 180369, Control_c, 0, 64, 127
2, 180431, Note_on_c, 0, 54, 0
2, 180442, Note_on_c, 0, 61, 0
2, 180494, Note_on_c, 0, 54, 69
2, 180494, Note_on_c, 0, 61, 69
2, 180544, Note_on_c, 0, 54, 0
2, 180551, Note_on_c, 0, 61, 0
2, 180604, Note_on_c, 0, 54, 69
2, 180605, Note_on_c, 0, 61, 75
2, 180644, Note_on_c, 0, 54, 0
2, 180651, Note_on_c, 0, 61, 0
2, 180666, Note_on_c, 0, 42, 0
2, 180678, Note_on_c, 0, 44, 74
2, 180703, Note_on_c, 0, 54, 81
2, 180703, Note_on_c, 0, 61, 80
2, 180809, Note_on_c, 0, 49, 0
2, 180816, Note_on_c, 0, 51, 86
2, 180818, Note_on_c, 0, 54, 0
2, 180824, Note_on_c, 0, 61, 0
2, 180852, Control_c, 0, 64, 0
2, 180867, Note_on_c, 0, 61, 63
2, 180868, Note_on_c, 0, 54, 56
2, 180949, Note_on_c, 0, 51, 0
2, 180950, Note_on_c, 0, 54, 0
2, 180953, Note_on_c, 0, 83, 0
2, 180959, Note_on_c, 0, 95, 0
2, 180960, Note_on_c, 0, 93, 83
2, 180960, Note_on_c, 0, 53, 80
2, 180960, Note_on_c, 0, 81, 85
2, 180989, Note_on_c, 0, 61, 0
2, 181010, Note_on_c, 0, 81, 0
2, 181020, Note_on_c, 0, 93, 0
2, 181050, Note_on_c, 0, 61, 80
2, 181053, Note_on_c, 0, 44, 0
2, 181058, Note_on_c, 0, 53, 0
2, 181059, Note_on_c, 0, 45, 85
2, 181063, Note_on_c, 0, 54, 86
2, 181064, Note_on_c, 0, 42, 84
2, 181066, Note_on_c, 0, 93, 96
2, 181067, Note_on_c, 0, 81, 96
2, 181138, Note_on_c, 0, 54, 0
2, 181200, Note_on_c, 0, 61, 0
2, 181214, Note_on_c, 0, 54, 60
2, 181235, Control_c, 0, 64, 127
2, 181259, Note_on_c, 0, 61, 60
2, 181301, Note_on_c, 0, 61, 0
2, 181326, Note_on_c, 0, 54, 0
2, 181326, Note_on_c, 0, 56, 86
2, 181342, Note_on_c, 0, 61, 81
2, 181376, Note_on_c, 0, 61, 0
2, 181411, Note_on_c, 0, 42, 0
2, 181430, Note_on_c, 0, 61, 83
2, 181438, Note_on_c, 0, 56, 0
2, 181444, Note_on_c, 0, 57, 83
2, 181448, Note_on_c, 0, 81, 0
2, 181455, Note_on_c, 0, 45, 0
2, 181459, Note_on_c, 0, 93, 0
2, 181460, Note_on_c, 0, 47, 82
2, 181464, Note_on_c, 0, 42, 86
2, 181492, Note_on_c, 0, 57, 0
2, 181522, Note_on_c, 0, 59, 87
2, 181541, Note_on_c, 0, 61, 0
2, 181587, Control_c, 0, 64, 0
2, 181608, Note_on_c, 0, 61, 82
2, 181640, Note_on_c, 0, 59, 0
2, 181684, Note_on_c, 0, 63, 84
2, 181710, Note_on_c, 0, 61, 0
2, 181752, Note_on_c, 0, 65, 82
2, 181776, Note_on_c, 0, 63, 0
2, 181830, Note_on_c, 0, 42, 0
2, 181834, Note_on_c, 0, 47, 0
2, 181835, Note_on_c, 0, 35, 84
2, 181839, Note_on_c, 0, 65, 0
2, 181839, Note_on_c, 0, 48, 83
2, 181839, Note_on_c, 0, 59, 83
2, 181839, Note_on_c, 0, 66, 89
2, 181843, Note_on_c, 0, 57, 86
2, 181972, Note_on_c, 0, 59, 0
2, 181978, Note_on_c, 0, 57, 0
2, 182025, Note_on_c, 0, 66, 0
2, 182031, Note_on_c, 0, 57, 69
2, 182032, Note_on_c, 0, 59, 63
2, 182041, Control_c, 0, 64, 127
2, 182062, Note_on_c, 0, 59, 0
2, 182062, Note_on_c, 0, 57, 0
2, 182131, Note_on_c, 0, 57, 67
2, 182132, Note_on_c, 0, 59, 66
2, 182163, Note_on_c, 0, 57, 0
2, 182170, Note_on_c, 0, 59, 0
2, 182224, Note_on_c, 0, 48, 0
2, 182230, Note_on_c, 0, 57, 82
2, 182230, Note_on_c, 0, 59, 86
2, 182231, Note_on_c, 0, 49, 87
2, 182231, Note_on_c, 0, 80, 90
2, 182231, Note_on_c, 0, 92, 93
2, 182369, Note_on_c, 0, 57, 0
2, 182373, Note_on_c, 0, 59, 0
2, 182427, Note_on_c, 0, 57, 66
2, 182427, Note_on_c, 0, 59, 63
2, 182443, Control_c, 0, 64, 0
2, 182489, Note_on_c, 0, 57, 0
2, 182493, Note_on_c, 0, 59, 0
2, 182538, Note_on_c, 0, 57, 64
2, 182538, Note_on_c, 0, 59, 62
2, 182582, Note_on_c, 0, 59, 0
2, 182586, Note_on_c, 0, 57, 0
2, 182644, Note_on_c, 0, 47, 87
2, 182647, Note_on_c, 0, 57, 81
2, 182647, Note_on_c, 0, 59, 84
2, 182648, Note_on_c, 0, 49, 0
2, 182648, Note_on_c, 0, 50, 85
2, 182818, Note_on_c, 0, 57, 0
2, 182819, Note_on_c, 0, 59, 0
2, 182875, Note_on_c, 0, 57, 57
2, 182875, Note_on_c, 0, 59, 61
2, 182885, Control_c, 0, 64, 127
2, 182927, Note_on_c, 0, 59, 0
2, 182928, Note_on_c, 0, 57, 0
2, 182980, Note_on_c, 0, 57, 63
2, 182980, Note_on_c, 0, 59, 61
2, 183019, Note_on_c, 0, 35, 0
2, 183022, Note_on_c, 0, 57, 0
2, 183033, Note_on_c, 0, 59, 0
2, 183073, Note_on_c, 0, 92, 0
2, 183073, Note_on_c, 0, 35, 76
2, 183076, Note_on_c, 0, 50, 0
2, 183076, Note_on_c, 0, 78, 85
2, 183077, Note_on_c, 0, 80, 0
2, 183081, Note_on_c, 0, 59, 75
2, 183081, Note_on_c, 0, 90, 82
2, 183085, Note_on_c, 0, 51, 81
2, 183085, Note_on_c, 0, 57, 78
2, 183175, Note_on_c, 0, 57, 0
2, 183182, Note_on_c, 0, 59, 0
2, 183211, Control_c, 0, 64, 0
2, 183228, Note_on_c, 0, 59, 63
2, 183232, Note_on_c, 0, 57, 63
2, 183450, Note_on_c, 0, 90, 0
2, 183450, Note_on_c, 0, 78, 0
2, 183475, Note_on_c, 0, 51, 0
2, 183476, Note_on_c, 0, 35, 0
2, 183480, Note_on_c, 0, 57, 0
2, 183480, Note_on_c, 0, 59, 0
2, 183480, Note_on_c, 0, 47, 0
2, 183481, Note_on_c, 0, 28, 84
2, 183485, Note_on_c, 0, 40, 84
2, 183485, Note_on_c, 0, 52, 80
2, 183485, Note_on_c, 0, 56, 81
2, 183495, Note_on_c, 0, 78, 87
2, 183501, Note_on_c, 0, 90, 93
2, 183596, Control_c, 0, 64, 127
2, 183694, Note_on_c, 0, 56, 0
2, 183753, Note_on_c, 0, 59, 59
2, 183754, Note_on_c, 0, 56, 57
2, 183797, Note_on_c, 0, 56, 0
2, 183797, Note_on_c, 0, 59, 0
2, 183841, Note_on_c, 0, 56, 81
2, 183847, Note_on_c, 0, 59, 85
2, 183881, Note_on_c, 0, 59, 0
2, 183882, Note_on_c, 0, 56, 0
2, 183934, Note_on_c, 0, 52, 0
2, 183939, Note_on_c, 0, 56, 81
2, 183940, Note_on_c, 0, 54, 86
2, 183940, Note_on_c, 0, 59, 84
2, 184102, Control_c, 0, 64, 0
2, 184112, Note_on_c, 0, 59, 0
2, 184112, Note_on_c, 0, 56, 0
2, 184161, Note_on_c, 0, 59, 59
2, 184167, Note_on_c, 0, 56, 56
2, 184220, Note_on_c, 0, 76, 74
2, 184223, Note_on_c, 0, 78, 0
2, 184223, Note_on_c, 0, 90, 0
2, 184229, Note_on_c, 0, 88, 75
2, 184282, Note_on_c, 0, 59, 0
2, 184283, Note_on_c, 0, 76, 0
2, 184286, Note_on_c, 0, 88, 0
2, 184323, Note_on_c, 0, 56, 0
2, 184325, Note_on_c, 0, 54, 0
2, 184332, Note_on_c, 0, 55, 76
2, 184335, Note_on_c, 0, 76, 85
2, 184336, Note_on_c, 0, 52, 74
2, 184336, Note_on_c, 0, 59, 78
2, 184345, Note_on_c, 0, 88, 84
2, 184506, Note_on_c, 0, 59, 0
2, 184506, Note_on_c, 0, 52, 0
2, 184556, Note_on_c, 0, 59, 58
2, 184557, Note_on_c, 0, 52, 62
2, 184590, Note_on_c, 0, 52, 0
2, 184590, Note_on_c, 0, 59, 0
2, 184608, Control_c, 0, 64, 127
2, 184640, Note_on_c, 0, 59, 56
2, 184647, Note_on_c, 0, 52, 59
2, 184723, Note_on_c, 0, 52, 0
2, 184728, Note_on_c, 0, 59, 0
2, 184757, Note_on_c, 0, 40, 0
2, 184768, Note_on_c, 0, 76, 0
2, 184774, Note_on_c, 0, 59, 72
2, 184775, Note_on_c, 0, 88, 0
2, 184777, Note_on_c, 0, 55, 0
2, 184777, Note_on_c, 0, 56, 69
2, 184778, Note_on_c, 0, 52, 68
2, 184833, Note_on_c, 0, 87, 81
2, 184883, Note_on_c, 0, 88, 85
2, 184898, Note_on_c, 0, 52, 0
2, 184899, Note_on_c, 0, 59, 0
2, 184928, Note_on_c, 0, 90, 85
2, 184939, Note_on_c, 0, 28, 0
2, 184972, Control_c, 0, 64, 0
2, 184973, Note_on_c, 0, 52, 64
2, 184973, Note_on_c, 0, 59, 65
2, 184983, Note_on_c, 0, 92, 88
2, 185022, Note_on_c, 0, 93, 96
2, 185062, Note_on_c, 0, 95, 96
2, 185112, Note_on_c, 0, 97, 98
2, 185140, Note_on_c, 0, 52, 0
2, 185141, Note_on_c, 0, 56, 0
2, 185161, Note_on_c, 0, 99, 95
2, 185173, Note_on_c, 0, 28, 90
2, 185176, Note_on_c, 0, 92, 0
2, 185181, Note_on_c, 0, 87, 0
2, 185182, Note_on_c, 0, 40, 89
2, 185184, Note_on_c, 0, 95, 0
2, 185184, Note_on_c, 0, 93, 0
2, 185184, Note_on_c, 0, 90, 0
2, 185185, Note_on_c, 0, 88, 0
2, 185190, Note_on_c, 0, 97, 0
2, 185191, Note_on_c, 0, 59, 0
2, 185191, Note_on_c, 0, 52, 91
2, 185191, Note_on_c, 0, 56, 93
2, 185196, Note_on_c, 0, 64, 93
2, 185197, Note_on_c, 0, 71, 96
2, 185223, Note_on_c, 0, 100, 105
2, 185248, Note_on_c, 0, 99, 0
2, 185263, Note_on_c, 0, 100, 0
2, 185344, Control_c, 0, 64, 127
2, 185360, Note_on_c, 0, 52, 0
2, 185367, Note_on_c, 0, 64, 0
2, 185372, Note_on_c, 0, 56, 0
2, 185421, Note_on_c, 0, 52, 72
2, 185421, Note_on_c, 0, 56, 74
2, 185424, Note_on_c, 0, 64, 72
2, 185459, Note_on_c, 0, 52, 0
2, 185464, Note_on_c, 0, 56, 0
2, 185465, Note_on_c, 0, 64, 0
2, 185515, Note_on_c, 0, 56, 70
2, 185515, Note_on_c, 0, 64, 68
2, 185531, Note_on_c, 0, 52, 72
2, 185568, Note_on_c, 0, 56, 0
2, 185581, Note_on_c, 0, 64, 0
2, 185581, Note_on_c, 0, 52, 0
2, 185624, Note_on_c, 0, 28, 0
2, 185632, Note_on_c, 0, 40, 0
2, 185640, Note_on_c, 0, 52, 83
2, 185640, Note_on_c, 0, 56, 80
2, 185640, Note_on_c, 0, 64, 86
2, 185683, Note_on_c, 0, 52, 0
2, 185686, Note_on_c, 0, 56, 0
2, 185691, Note_on_c, 0, 64, 0
2, 185764, Note_on_c, 0, 71, 0
2, 185776, Note_on_c, 0, 73, 81
2, 185831, Note_on_c, 0, 59, 67
2, 185831, Note_on_c, 0, 64, 65
2, 185835, Note_on_c, 0, 56, 62
2, 185851, Control_c, 0, 64, 0
2, 185917, Note_on_c, 0, 75, 81
2, 185939, Note_on_c, 0, 73, 0
2, 185976, Note_on_c, 0, 56, 0
2, 185980, Note_on_c, 0, 64, 0
2, 185985, Note_on_c, 0, 59, 0
2, 186016, Control_c, 0, 64, 127
2, 186035, Note_on_c, 0, 56, 71
2, 186036, Note_on_c, 0, 59, 75
2, 186036, Note_on_c, 0, 64, 72
2, 186041, Note_on_c, 0, 76, 81
2, 186067, Note_on_c, 0, 75, 0
2, 186108, Note_on_c, 0, 76, 0
2, 186142, Control_c, 0, 64, 0
2, 186162, Note_on_c, 0, 59, 0
2, 186164, Note_on_c, 0, 76, 80
2, 186167, Note_on_c, 0, 56, 0
2, 186167, Note_on_c, 0, 64, 0
2, 186245, Note_on_c, 0, 56, 63
2, 186250, Note_on_c, 0, 59, 68
2, 186251, Note_on_c, 0, 64, 63
2, 186298, Note_on_c, 0, 56, 0
2, 186303, Note_on_c, 0, 64, 0
2, 186308, Note_on_c, 0, 59, 0
2, 186309, Note_on_c, 0, 78, 74
2, 186335, Note_on_c, 0, 76, 0
2, 186360, Note_on_c, 0, 56, 68
2, 186360, Note_on_c, 0, 59, 66
2, 186361, Note_on_c, 0, 64, 65
2, 186412, Note_on_c, 0, 64, 0
2, 186417, Note_on_c, 0, 56, 0
2, 186419, Control_c, 0, 64, 127
2, 186421, Note_on_c, 0, 59, 0
2, 186422, Note_on_c, 0, 80, 78
2, 186448, Note_on_c, 0, 78, 0
2, 186475, Note_on_c, 0, 56, 68
2, 186475, Note_on_c, 0, 59, 74
2, 186475, Note_on_c, 0, 64, 72
2, 186511, Note_on_c, 0, 56, 0
2, 186516, Note_on_c, 0, 59, 0
2, 186522, Note_on_c, 0, 64, 0
2, 186570, Note_on_c, 0, 81, 75
2, 186590, Note_on_c, 0, 80, 0
2, 186660, Note_on_c, 0, 64, 63
2, 186665, Note_on_c, 0, 56, 59
2, 186665, Note_on_c, 0, 59, 61
2, 186691, Control_c, 0, 64, 0
2, 186699, Note_on_c, 0, 82, 75
2, 186720, Note_on_c, 0, 81, 0
2, 186821, Note_on_c, 0, 56, 0
2, 186835, Note_on_c, 0, 64, 0
2, 186835, Note_on_c, 0, 59, 0
2, 186885, Note_on_c, 0, 56, 79
2, 186885, Note_on_c, 0, 59, 79
2, 186885, Note_on_c, 0, 64, 75
2, 186885, Note_on_c, 0, 83, 68
2, 186886, Note_on_c, 0, 40, 77
2, 186886, Note_on_c, 0, 47, 80
2, 186909, Note_on_c, 0, 82, 0
2, 187014, Note_on_c, 0, 56, 0
2, 187017, Note_on_c, 0, 64, 0
2, 187018, Note_on_c, 0, 59, 0
2, 187072, Note_on_c, 0, 56, 61
2, 187078, Note_on_c, 0, 59, 57
2, 187078, Note_on_c, 0, 64, 63
2, 187128, Control_c, 0, 64, 127
2, 187153, Note_on_c, 0, 59, 0
2, 187153, Note_on_c, 0, 56, 0
2, 187159, Note_on_c, 0, 64, 0
2, 187208, Note_on_c, 0, 56, 58
2, 187208, Note_on_c, 0, 59, 56
2, 187208, Note_on_c, 0, 64, 57
2, 187281, Note_on_c, 0, 64, 0
2, 187286, Note_on_c, 0, 56, 0
2, 187287, Note_on_c, 0, 59, 0
2, 187330, Note_on_c, 0, 59, 75
2, 187331, Note_on_c, 0, 56, 80
2, 187331, Note_on_c, 0, 64, 79
2, 187440, Note_on_c, 0, 49, 60
2, 187446, Note_on_c, 0, 83, 0
2, 187447, Note_on_c, 0, 80, 69
2, 187464, Note_on_c, 0, 47, 0
2, 187470, Control_c, 0, 64, 0
2, 187482, Note_on_c, 0, 59, 0
2, 187538, Note_on_c, 0, 59, 81
2, 187541, Note_on_c, 0, 80, 0
2, 187542, Note_on_c, 0, 76, 63
2, 187590, Note_on_c, 0, 49, 0
2, 187590, Note_on_c, 0, 51, 74
2, 187617, Note_on_c, 0, 76, 0
2, 187625, Note_on_c, 0, 71, 63
2, 187656, Note_on_c, 0, 40, 0
2, 187670, Note_on_c, 0, 59, 0
2, 187702, Note_on_c, 0, 28, 79
2, 187707, Note_on_c, 0, 40, 75
2, 187710, Note_on_c, 0, 56, 0
2, 187711, Note_on_c, 0, 52, 81
2, 187721, Note_on_c, 0, 64, 0
2, 187721, Note_on_c, 0, 71, 0
2, 187721, Note_on_c, 0, 59, 74
2, 187721, Note_on_c, 0, 68, 62
2, 187730, Note_on_c, 0, 51, 0
2, 187765, Note_on_c, 0, 28, 0
2, 187776, Note_on_c, 0, 40, 0
2, 187810, Note_on_c, 0, 59, 0
2, 187833, Control_c, 0, 64, 127
2, 187847, Note_on_c, 0, 52, 0
2, 187857, Note_on_c, 0, 59, 79
2, 187898, Note_on_c, 0, 52, 75
2, 187937, Note_on_c, 0, 59, 0
2, 187990, Note_on_c, 0, 59, 61
2, 188010, Note_on_c, 0, 52, 0
2, 188029, Note_on_c, 0, 54, 79
2, 188095, Note_on_c, 0, 59, 0
2, 188147, Note_on_c, 0, 68, 0
2, 188147, Note_on_c, 0, 59, 85
2, 188149, Note_on_c, 0, 40, 80
2, 188151, Note_on_c, 0, 56, 85
2, 188152, Note_on_c, 0, 64, 80
2, 188176, Note_on_c, 0, 54, 0
2, 188270, Note_on_c, 0, 56, 0
2, 188281, Note_on_c, 0, 59, 0
2, 188281, Note_on_c, 0, 64, 0
2, 188281, Note_on_c, 0, 57, 63
2, 188332, Note_on_c, 0, 59, 60
2, 188332, Note_on_c, 0, 64, 59
2, 188333, Note_on_c, 0, 68, 61
2, 188389, Control_c, 0, 64, 0
2, 188398, Note_on_c, 0, 57, 0
2, 188399, Note_on_c, 0, 59, 0
2, 188418, Note_on_c, 0, 58, 85
2, 188498, Note_on_c, 0, 64, 0
2, 188524, Note_on_c, 0, 40, 0
2, 188538, Note_on_c, 0, 38, 91
2, 188541, Note_on_c, 0, 58, 0
2, 188546, Note_on_c, 0, 68, 0
2, 188551, Note_on_c, 0, 67, 85
2, 188551, Note_on_c, 0, 71, 87
2, 188552, Note_on_c, 0, 59, 85
2, 188552, Note_on_c, 0, 64, 87
2, 188694, Note_on_c, 0, 64, 0
2, 188694, Note_on_c, 0, 67, 0
2, 188741, Note_on_c, 0, 64, 57
2, 188741, Note_on_c, 0, 67, 70
2, 188780, Control_c, 0, 64, 127
2, 188808, Note_on_c, 0, 67, 0
2, 188813, Note_on_c, 0, 64, 0
2, 188864, Note_on_c, 0, 64, 60
2, 188864, Note_on_c, 0, 67, 70
2, 188942, Note_on_c, 0, 67, 0
2, 188948, Note_on_c, 0, 64, 0
2, 188995, Note_on_c, 0, 67, 74
2, 188996, Note_on_c, 0, 64, 62
2, 189097, Note_on_c, 0, 55, 62
2, 189129, Note_on_c, 0, 71, 0
2, 189139, Note_on_c, 0, 73, 76
2, 189144, Note_on_c, 0, 67, 0
2, 189149, Note_on_c, 0, 64, 0
2, 189199, Note_on_c, 0, 64, 65
2, 189199, Note_on_c, 0, 67, 80
2, 189205, Note_on_c, 0, 52, 66
2, 189251, Note_on_c, 0, 73, 0
2, 189262, Note_on_c, 0, 75, 75
2, 189272, Note_on_c, 0, 47, 67
2, 189311, Note_on_c, 0, 38, 0
2, 189330, Note_on_c, 0, 64, 0
2, 189333, Note_on_c, 0, 55, 0
2, 189333, Note_on_c, 0, 59, 0
2, 189333, Note_on_c, 0, 67, 0
2, 189372, Note_on_c, 0, 43, 81
2, 189377, Note_on_c, 0, 75, 0
2, 189378, Note_on_c, 0, 38, 74
2, 189381, Note_on_c, 0, 76, 80
2, 189385, Note_on_c, 0, 67, 78
2, 189386, Note_on_c, 0, 55, 81
2, 189386, Note_on_c, 0, 59, 75
2, 189386, Note_on_c, 0, 64, 75
2, 189392, Note_on_c, 0, 52, 0
2, 189394, Note_on_c, 0, 47, 0
2, 189473, Note_on_c, 0, 76, 0
2, 189528, Note_on_c, 0, 76, 84
2, 189529, Note_on_c, 0, 59, 0
2, 189531, Note_on_c, 0, 55, 0
2, 189532, Note_on_c, 0, 64, 0
2, 189533, Note_on_c, 0, 67, 0
2, 189584, Note_on_c, 0, 55, 65
2, 189584, Note_on_c, 0, 64, 66
2, 189584, Note_on_c, 0, 67, 63
2, 189585, Note_on_c, 0, 59, 66
2, 189631, Note_on_c, 0, 59, 0
2, 189634, Note_on_c, 0, 55, 0
2, 189656, Note_on_c, 0, 76, 0
2, 189661, Note_on_c, 0, 78, 85
2, 189682, Note_on_c, 0, 55, 72
2, 189688, Note_on_c, 0, 59, 72
2, 189745, Note_on_c, 0, 67, 0
2, 189752, Note_on_c, 0, 55, 0
2, 189752, Note_on_c, 0, 59, 0
2, 189757, Note_on_c, 0, 64, 0
2, 189794, Note_on_c, 0, 59, 73
2, 189795, Note_on_c, 0, 55, 77
2, 189798, Note_on_c, 0, 78, 0
2, 189798, Note_on_c, 0, 67, 83
2, 189799, Note_on_c, 0, 64, 72
2, 189800, Control_c, 0, 64, 0
2, 189805, Note_on_c, 0, 79, 84
2, 189928, Note_on_c, 0, 81, 88
2, 189933, Note_on_c, 0, 64, 0
2, 189937, Note_on_c, 0, 59, 0
2, 189937, Note_on_c, 0, 67, 0
2, 189938, Note_on_c, 0, 55, 0
2, 189978, Note_on_c, 0, 79, 0
2, 189984, Note_on_c, 0, 55, 64
2, 189984, Note_on_c, 0, 64, 70
2, 189988, Note_on_c, 0, 59, 68
2, 189988, Note_on_c, 0, 67, 85
2, 190053, Note_on_c, 0, 82, 80
2, 190099, Note_on_c, 0, 81, 0
2, 190127, Note_on_c, 0, 55, 0
2, 190132, Note_on_c, 0, 67, 0
2, 190141, Note_on_c, 0, 64, 0
2, 190172, Note_on_c, 0, 38, 0
2, 190176, Note_on_c, 0, 43, 0
2, 190181, Note_on_c, 0, 47, 87
2, 190182, Note_on_c, 0, 37, 88
2, 190185, Note_on_c, 0, 67, 92
2, 190186, Note_on_c, 0, 55, 87
2, 190186, Note_on_c, 0, 64, 87
2, 190191, Note_on_c, 0, 83, 86
2, 190210, Note_on_c, 0, 59, 0
2, 190250, Note_on_c, 0, 82, 0
2, 190320, Note_on_c, 0, 55, 0
2, 190325, Note_on_c, 0, 67, 0
2, 190325, Note_on_c, 0, 64, 0
2, 190333, Control_c, 0, 64, 127
2, 190374, Note_on_c, 0, 55, 66
2, 190374, Note_on_c, 0, 67, 64
2, 190375, Note_on_c, 0, 64, 65
2, 190449, Note_on_c, 0, 55, 0
2, 190452, Note_on_c, 0, 64, 0
2, 190454, Note_on_c, 0, 67, 0
2, 190498, Note_on_c, 0, 55, 74
2, 190504, Note_on_c, 0, 64, 71
2, 190504, Note_on_c, 0, 67, 59
2, 190558, Note_on_c, 0, 67, 0
2, 190559, Note_on_c, 0, 55, 0
2, 190564, Note_on_c, 0, 64, 0
2, 190606, Note_on_c, 0, 55, 69
2, 190611, Note_on_c, 0, 59, 69
2, 190611, Note_on_c, 0, 64, 73
2, 190611, Note_on_c, 0, 67, 63
2, 190730, Note_on_c, 0, 47, 0
2, 190731, Note_on_c, 0, 83, 0
2, 190731, Note_on_c, 0, 79, 63
2, 190736, Note_on_c, 0, 49, 74
2, 190741, Note_on_c, 0, 59, 0
2, 190796, Note_on_c, 0, 59, 62
2, 190815, Note_on_c, 0, 79, 0
2, 190820, Note_on_c, 0, 76, 67
2, 190854, Note_on_c, 0, 51, 75
2, 190860, Control_c, 0, 64, 0
2, 190894, Note_on_c, 0, 76, 0
2, 190902, Note_on_c, 0, 71, 62
2, 190927, Note_on_c, 0, 37, 0
2, 190938, Note_on_c, 0, 67, 0
2, 190939, Note_on_c, 0, 59, 0
2, 190941, Note_on_c, 0, 49, 0
2, 190986, Note_on_c, 0, 64, 0
2, 190992, Note_on_c, 0, 37, 76
2, 190994, Note_on_c, 0, 51, 0
2, 190995, Note_on_c, 0, 71, 0
2, 190995, Note_on_c, 0, 55, 0
2, 190995, Note_on_c, 0, 59, 74
2, 190995, Note_on_c, 0, 67, 75
2, 191007, Note_on_c, 0, 49, 80
2, 191007, Note_on_c, 0, 52, 80
2, 191040, Note_on_c, 0, 67, 0
2, 191098, Note_on_c, 0, 52, 0
2, 191154, Note_on_c, 0, 52, 80
2, 191159, Note_on_c, 0, 59, 0
2, 191206, Note_on_c, 0, 59, 59
2, 191206, Note_on_c, 0, 64, 62
2, 191247, Note_on_c, 0, 64, 0
2, 191249, Note_on_c, 0, 59, 0
2, 191271, Note_on_c, 0, 54, 59
2, 191277, Control_c, 0, 64, 127
2, 191294, Note_on_c, 0, 52, 0
2, 191301, Note_on_c, 0, 59, 58
2, 191305, Note_on_c, 0, 64, 56
2, 191346, Note_on_c, 0, 59, 0
2, 191356, Note_on_c, 0, 64, 0
2, 191399, Note_on_c, 0, 55, 78
2, 191404, Note_on_c, 0, 59, 81
2, 191404, Note_on_c, 0, 64, 77
2, 191404, Note_on_c, 0, 67, 72
2, 191414, Note_on_c, 0, 54, 0
2, 191534, Note_on_c, 0, 57, 86
2, 191540, Note_on_c, 0, 64, 0
2, 191543, Note_on_c, 0, 67, 0
2, 191560, Note_on_c, 0, 55, 0
2, 191594, Note_on_c, 0, 64, 58
2, 191594, Note_on_c, 0, 67, 71
2, 191648, Note_on_c, 0, 58, 87
2, 191650, Note_on_c, 0, 59, 0
2, 191652, Control_c, 0, 64, 0
2, 191671, Note_on_c, 0, 57, 0
2, 191744, Note_on_c, 0, 67, 0
2, 191747, Note_on_c, 0, 64, 0
2, 191788, Note_on_c, 0, 49, 0
2, 191794, Note_on_c, 0, 47, 86
2, 191794, Note_on_c, 0, 52, 80
2, 191795, Note_on_c, 0, 35, 85
2, 191798, Note_on_c, 0, 55, 82
2, 191798, Note_on_c, 0, 59, 87
2, 191799, Note_on_c, 0, 64, 87
2, 191804, Note_on_c, 0, 67, 80
2, 191813, Note_on_c, 0, 37, 0
2, 191823, Note_on_c, 0, 58, 0
2, 191917, Note_on_c, 0, 52, 0
2, 191925, Note_on_c, 0, 55, 0
2, 191931, Note_on_c, 0, 67, 0
2, 191933, Note_on_c, 0, 64, 0
2, 191975, Note_on_c, 0, 55, 57
2, 191976, Note_on_c, 0, 52, 63
2, 191984, Note_on_c, 0, 64, 63
2, 191984, Note_on_c, 0, 67, 68
2, 192018, Note_on_c, 0, 52, 0
2, 192024, Control_c, 0, 64, 127
2, 192034, Note_on_c, 0, 55, 0
2, 192039, Note_on_c, 0, 67, 0
2, 192045, Note_on_c, 0, 64, 0
2, 192079, Note_on_c, 0, 55, 56
2, 192080, Note_on_c, 0, 52, 68
2, 192095, Note_on_c, 0, 64, 69
2, 192097, Note_on_c, 0, 67, 88
2, 192131, Note_on_c, 0, 52, 0
2, 192142, Note_on_c, 0, 55, 0
2, 192146, Note_on_c, 0, 64, 0
2, 192147, Note_on_c, 0, 67, 0
2, 192190, Note_on_c, 0, 55, 64
2, 192195, Note_on_c, 0, 52, 56
2, 192195, Note_on_c, 0, 76, 88
2, 192201, Note_on_c, 0, 88, 86
2, 192206, Note_on_c, 0, 64, 71
2, 192206, Note_on_c, 0, 67, 88
2, 192247, Note_on_c, 0, 55, 0
2, 192288, Note_on_c, 0, 59, 0
2, 192294, Note_on_c, 0, 55, 70
2, 192325, Note_on_c, 0, 52, 0
2, 192342, Note_on_c, 0, 67, 0
2, 192347, Note_on_c, 0, 64, 0
2, 192379, Note_on_c, 0, 52, 70
2, 192398, Note_on_c, 0, 64, 75
2, 192398, Note_on_c, 0, 67, 72
2, 192405, Note_on_c, 0, 55, 0
2, 192417, Note_on_c, 0, 47, 0
2, 192473, Note_on_c, 0, 47, 68
2, 192498, Note_on_c, 0, 52, 0
2, 192558, Note_on_c, 0, 67, 0
2, 192558, Note_on_c, 0, 64, 0
2, 192592, Note_on_c, 0, 43, 79
2, 192611, Note_on_c, 0, 64, 76
2, 192617, Note_on_c, 0, 67, 78
2, 192618, Note_on_c, 0, 47, 0
2, 192800, Control_c, 0, 64, 0
2, 192816, Note_on_c, 0, 52, 56
2, 192821, Note_on_c, 0, 55, 56
2, 192846, Note_on_c, 0, 52, 0
2, 192852, Note_on_c, 0, 55, 0
2, 192902, Note_on_c, 0, 52, 57
2, 192902, Note_on_c, 0, 55, 57
2, 192923, Note_on_c, 0, 35, 0
2, 192937, Note_on_c, 0, 52, 0
2, 192943, Note_on_c, 0, 55, 0
2, 192949, Note_on_c, 0, 64, 0
2, 192982, Note_on_c, 0, 35, 76
2, 192990, Note_on_c, 0, 55, 81
2, 192991, Note_on_c, 0, 47, 75
2, 192994, Note_on_c, 0, 64, 74
2, 192995, Note_on_c, 0, 67, 0
2, 192995, Note_on_c, 0, 74, 86
2, 192996, Note_on_c, 0, 76, 0
2, 192996, Note_on_c, 0, 88, 0
2, 192996, Note_on_c, 0, 52, 77
2, 193001, Note_on_c, 0, 86, 90
2, 193016, Note_on_c, 0, 43, 0
2, 193134, Control_c, 0, 64, 127
2, 193142, Note_on_c, 0, 52, 0
2, 193147, Note_on_c, 0, 64, 0
2, 193147, Note_on_c, 0, 55, 0
2, 193195, Note_on_c, 0, 52, 81
2, 193200, Note_on_c, 0, 55, 75
2, 193200, Note_on_c, 0, 64, 74
2, 193355, Note_on_c, 0, 64, 0
2, 193361, Note_on_c, 0, 52, 0
2, 193367, Note_on_c, 0, 74, 0
2, 193367, Note_on_c, 0, 86, 0
2, 193367, Note_on_c, 0, 55, 0
2, 193392, Note_on_c, 0, 35, 0
2, 193403, Note_on_c, 0, 47, 0
2, 193410, Note_on_c, 0, 33, 83
2, 193413, Note_on_c, 0, 45, 84
2, 193413, Note_on_c, 0, 52, 84
2, 193413, Note_on_c, 0, 55, 81
2, 193413, Note_on_c, 0, 64, 83
2, 193417, Note_on_c, 0, 74, 99
2, 193422, Note_on_c, 0, 86, 98
2, 193436, Control_c, 0, 64, 0
2, 193444, Note_on_c, 0, 45, 0
2, 193445, Note_on_c, 0, 33, 0
2, 193450, Note_on_c, 0, 47, 87
2, 193451, Note_on_c, 0, 35, 82
2, 193501, Note_on_c, 0, 45, 86
2, 193502, Note_on_c, 0, 33, 82
2, 193505, Note_on_c, 0, 35, 0
2, 193510, Note_on_c, 0, 47, 0
2, 193542, Note_on_c, 0, 33, 0
2, 193545, Note_on_c, 0, 45, 0
2, 193561, Note_on_c, 0, 47, 63
2, 193562, Note_on_c, 0, 35, 56
2, 193581, Note_on_c, 0, 55, 0
2, 193581, Note_on_c, 0, 52, 0
2, 193585, Note_on_c, 0, 64, 0
2, 193594, Note_on_c, 0, 35, 0
2, 193597, Note_on_c, 0, 47, 0
2, 193597, Note_on_c, 0, 33, 71
2, 193602, Note_on_c, 0, 45, 70
2, 193632, Note_on_c, 0, 45, 0
2, 193632, Note_on_c, 0, 33, 0
2, 193632, Note_on_c, 0, 52, 72
2, 193632, Note_on_c, 0, 55, 73
2, 193632, Note_on_c, 0, 64, 72
2, 193648, Note_on_c, 0, 35, 70
2, 193653, Note_on_c, 0, 47, 75
2, 193666, Note_on_c, 0, 52, 0
2, 193672, Note_on_c, 0, 64, 0
2, 193672, Note_on_c, 0, 55, 0
2, 193679, Note_on_c, 0, 35, 0
2, 193683, Note_on_c, 0, 47, 0
2, 193685, Note_on_c, 0, 33, 68
2, 193688, Note_on_c, 0, 45, 72
2, 193718, Note_on_c, 0, 33, 0
2, 193718, Note_on_c, 0, 52, 70
2, 193718, Note_on_c, 0, 64, 72
2, 193724, Note_on_c, 0, 55, 73
2, 193743, Note_on_c, 0, 45, 0
2, 193744, Note_on_c, 0, 32, 73
2, 193747, Note_on_c, 0, 44, 71
2, 193763, Note_on_c, 0, 52, 0
2, 193764, Note_on_c, 0, 55, 0
2, 193766, Note_on_c, 0, 64, 0
2, 193782, Note_on_c, 0, 44, 0
2, 193788, Note_on_c, 0, 32, 0
2, 193794, Note_on_c, 0, 45, 81
2, 193795, Note_on_c, 0, 33, 75
2, 193819, Note_on_c, 0, 52, 75
2, 193819, Note_on_c, 0, 55, 79
2, 193819, Note_on_c, 0, 64, 81
2, 193942, Note_on_c, 0, 52, 0
2, 193944, Note_on_c, 0, 55, 0
2, 193947, Note_on_c, 0, 64, 0
2, 193999, Note_on_c, 0, 52, 63
2, 193999, Note_on_c, 0, 64, 64
2, 194004, Note_on_c, 0, 55, 64
2, 194011, Control_c, 0, 64, 127
2, 194082, Note_on_c, 0, 73, 75
2, 194083, Note_on_c, 0, 74, 0
2, 194086, Note_on_c, 0, 85, 74
2, 194088, Note_on_c, 0, 86, 0
2, 194111, Note_on_c, 0, 52, 0
2, 194112, Note_on_c, 0, 73, 0
2, 194116, Note_on_c, 0, 64, 0
2, 194117, Note_on_c, 0, 55, 0
2, 194122, Note_on_c, 0, 85, 0
2, 194167, Note_on_c, 0, 55, 78
2, 194173, Note_on_c, 0, 64, 74
2, 194173, Note_on_c, 0, 73, 97
2, 194173, Note_on_c, 0, 85, 97
2, 194174, Note_on_c, 0, 52, 79
2, 194329, Note_on_c, 0, 45, 0
2, 194330, Note_on_c, 0, 55, 0
2, 194333, Note_on_c, 0, 52, 0
2, 194339, Note_on_c, 0, 64, 0
2, 194349, Note_on_c, 0, 33, 0
2, 194380, Note_on_c, 0, 52, 69
2, 194380, Note_on_c, 0, 55, 68
2, 194386, Note_on_c, 0, 64, 63
2, 194420, Note_on_c, 0, 55, 0
2, 194420, Note_on_c, 0, 52, 0
2, 194424, Note_on_c, 0, 64, 0
2, 194472, Note_on_c, 0, 55, 69
2, 194472, Note_on_c, 0, 52, 66
2, 194482, Note_on_c, 0, 64, 67
2, 194513, Note_on_c, 0, 52, 0
2, 194520, Note_on_c, 0, 55, 0
2, 194521, Note_on_c, 0, 64, 0
2, 194564, Note_on_c, 0, 33, 83
2, 194567, Note_on_c, 0, 55, 83
2, 194568, Note_on_c, 0, 45, 80
2, 194568, Note_on_c, 0, 52, 84
2, 194568, Note_on_c, 0, 64, 80
2, 194695, Control_c, 0, 64, 0
2, 194711, Note_on_c, 0, 52, 0
2, 194715, Note_on_c, 0, 55, 0
2, 194716, Note_on_c, 0, 64, 0
2, 194768, Note_on_c, 0, 55, 78
2, 194769, Note_on_c, 0, 52, 74
2, 194774, Note_on_c, 0, 64, 76
2, 194885, Note_on_c, 0, 52, 0
2, 194887, Note_on_c, 0, 64, 0
2, 194926, Note_on_c, 0, 45, 0
2, 194927, Note_on_c, 0, 33, 0
2, 194931, Note_on_c, 0, 31, 81
2, 194933, Note_on_c, 0, 55, 0
2, 194935, Note_on_c, 0, 52, 85
2, 194936, Note_on_c, 0, 43, 86
2, 194945, Note_on_c, 0, 61, 81
2, 194951, Note_on_c, 0, 64, 86
2, 195099, Note_on_c, 0, 52, 0
2, 195100, Note_on_c, 0, 64, 0
2, 195101, Note_on_c, 0, 61, 0
2, 195111, Control_c, 0, 64, 127
2, 195166, Note_on_c, 0, 61, 74
2, 195166, Note_on_c, 0, 64, 74
2, 195167, Note_on_c, 0, 52, 74
2, 195213, Note_on_c, 0, 52, 0
2, 195225, Note_on_c, 0, 64, 0
2, 195226, Note_on_c, 0, 61, 0
2, 195281, Note_on_c, 0, 52, 73
2, 195286, Note_on_c, 0, 61, 73
2, 195286, Note_on_c, 0, 64, 71
2, 195318, Note_on_c, 0, 52, 0
2, 195323, Note_on_c, 0, 64, 0
2, 195324, Note_on_c, 0, 61, 0
2, 195325, Note_on_c, 0, 73, 0
2, 195331, Note_on_c, 0, 85, 0
2, 195373, Note_on_c, 0, 52, 78
2, 195373, Note_on_c, 0, 64, 78
2, 195378, Note_on_c, 0, 61, 79
2, 195378, Note_on_c, 0, 73, 92
2, 195383, Note_on_c, 0, 85, 88
2, 195539, Note_on_c, 0, 61, 0
2, 195540, Note_on_c, 0, 52, 0
2, 195545, Note_on_c, 0, 64, 0
2, 195568, Note_on_c, 0, 43, 0
2, 195568, Note_on_c, 0, 31, 0
2, 195596, Note_on_c, 0, 52, 64
2, 195600, Note_on_c, 0, 61, 58
2, 195600, Note_on_c, 0, 64, 65
2, 195642, Control_c, 0, 64, 0
2, 195706, Note_on_c, 0, 61, 0
2, 195711, Note_on_c, 0, 64, 0
2, 195719, Note_on_c, 0, 52, 0
2, 195757, Note_on_c, 0, 31, 85
2, 195760, Note_on_c, 0, 43, 89
2, 195760, Note_on_c, 0, 52, 91
2, 195760, Note_on_c, 0, 61, 86
2, 195760, Note_on_c, 0, 64, 86
2, 195914, Note_on_c, 0, 52, 0
2, 195921, Note_on_c, 0, 61, 0
2, 195921, Note_on_c, 0, 64, 0
2, 195970, Note_on_c, 0, 52, 81
2, 195970, Note_on_c, 0, 64, 78
2, 195976, Note_on_c, 0, 61, 81
2, 196015, Note_on_c, 0, 52, 0
2, 196020, Control_c, 0, 64, 127
2, 196021, Note_on_c, 0, 64, 0
2, 196023, Note_on_c, 0, 61, 0
2, 196076, Note_on_c, 0, 52, 74
2, 196076, Note_on_c, 0, 61, 80
2, 196076, Note_on_c, 0, 64, 77
2, 196104, Note_on_c, 0, 52, 0
2, 196110, Note_on_c, 0, 61, 0
2, 196117, Note_on_c, 0, 64, 0
2, 196145, Note_on_c, 0, 43, 0
2, 196150, Note_on_c, 0, 31, 0
2, 196167, Note_on_c, 0, 73, 0
2, 196169, Note_on_c, 0, 61, 83
2, 196169, Note_on_c, 0, 64, 85
2, 196169, Note_on_c, 0, 71, 99
2, 196169, Note_on_c, 0, 83, 95
2, 196170, Note_on_c, 0, 52, 87
2, 196175, Note_on_c, 0, 85, 0
2, 196314, Note_on_c, 0, 61, 0
2, 196317, Note_on_c, 0, 64, 0
2, 196317, Note_on_c, 0, 52, 0
2, 196344, Note_on_c, 0, 31, 92
2, 196349, Note_on_c, 0, 43, 94
2, 196364, Note_on_c, 0, 52, 91
2, 196369, Note_on_c, 0, 61, 96
2, 196369, Note_on_c, 0, 64, 90
2, 196493, Control_c, 0, 64, 0
2, 196517, Note_on_c, 0, 31, 0
2, 196520, Note_on_c, 0, 43, 0
2, 196526, Note_on_c, 0, 83, 0
2, 196526, Note_on_c, 0, 71, 0
2, 196543, Note_on_c, 0, 30, 94
2, 196548, Note_on_c, 0, 42, 95
2, 196566, Note_on_c, 0, 52, 0
2, 196573, Note_on_c, 0, 61, 0
2, 196573, Note_on_c, 0, 43, 100
2, 196574, Note_on_c, 0, 31, 100
2, 196576, Note_on_c, 0, 64, 0
2, 196576, Note_on_c, 0, 62, 99
2, 196577, Note_on_c, 0, 30, 0
2, 196577, Note_on_c, 0, 42, 0
2, 196577, Note_on_c, 0, 50, 97
2, 196582, Note_on_c, 0, 71, 104
2, 196582, Note_on_c, 0, 83, 105
2, 196612, Note_on_c, 0, 31, 0
2, 196617, Note_on_c, 0, 43, 0
2, 196634, Note_on_c, 0, 30, 98
2, 196639, Note_on_c, 0, 42, 100
2, 196665, Note_on_c, 0, 30, 0
2, 196668, Note_on_c, 0, 42, 0
2, 196675, Note_on_c, 0, 43, 99
2, 196676, Note_on_c, 0, 31, 98
2, 196698, Note_on_c, 0, 43, 0
2, 196704, Note_on_c, 0, 31, 0
2, 196722, Note_on_c, 0, 30, 96
2, 196728, Note_on_c, 0, 42, 80
2, 196730, Note_on_c, 0, 50, 0
2, 196736, Note_on_c, 0, 62, 0
2, 196747, Note_on_c, 0, 30, 0
2, 196752, Note_on_c, 0, 42, 0
2, 196757, Note_on_c, 0, 43, 83
2, 196763, Note_on_c, 0, 31, 81
2, 196788, Note_on_c, 0, 50, 86
2, 196793, Note_on_c, 0, 62, 81
2, 196805, Note_on_c, 0, 30, 86
2, 196811, Note_on_c, 0, 42, 80
2, 196819, Note_on_c, 0, 50, 0
2, 196821, Note_on_c, 0, 62, 0
2, 196830, Note_on_c, 0, 31, 0
2, 196835, Note_on_c, 0, 43, 0
2, 196863, Control_c, 0, 64, 127
2, 196866, Note_on_c, 0, 41, 85
2, 196867, Note_on_c, 0, 29, 83
2, 196875, Note_on_c, 0, 50, 84
2, 196881, Note_on_c, 0, 62, 80
2, 196882, Note_on_c, 0, 42, 0
2, 196882, Note_on_c, 0, 30, 0
2, 196911, Note_on_c, 0, 50, 0
2, 196918, Note_on_c, 0, 62, 0
2, 196938, Note_on_c, 0, 30, 85
2, 196939, Note_on_c, 0, 42, 90
2, 196957, Note_on_c, 0, 41, 0
2, 196958, Note_on_c, 0, 29, 0
2, 196967, Note_on_c, 0, 50, 91
2, 196972, Note_on_c, 0, 62, 90
2, 197112, Note_on_c, 0, 62, 0
2, 197112, Note_on_c, 0, 50, 0
2, 197168, Note_on_c, 0, 50, 78
2, 197174, Note_on_c, 0, 62, 81
2, 197258, Note_on_c, 0, 71, 0
2, 197259, Note_on_c, 0, 83, 0
2, 197265, Note_on_c, 0, 69, 82
2, 197271, Note_on_c, 0, 81, 83
2, 197276, Note_on_c, 0, 50, 0
2, 197285, Note_on_c, 0, 62, 0
2, 197305, Note_on_c, 0, 81, 0
2, 197306, Note_on_c, 0, 69, 0
2, 197337, Note_on_c, 0, 62, 89
2, 197338, Note_on_c, 0, 50, 86
2, 197355, Note_on_c, 0, 69, 98
2, 197365, Note_on_c, 0, 81, 95
2, 197470, Note_on_c, 0, 50, 0
2, 197478, Note_on_c, 0, 62, 0
2, 197524, Note_on_c, 0, 50, 77
2, 197530, Note_on_c, 0, 62, 80
2, 197550, Note_on_c, 0, 50, 0
2, 197561, Note_on_c, 0, 62, 0
2, 197613, Note_on_c, 0, 50, 74
2, 197613, Note_on_c, 0, 62, 74
2, 197646, Note_on_c, 0, 42, 0
2, 197654, Note_on_c, 0, 30, 0
2, 197655, Note_on_c, 0, 62, 0
2, 197658, Note_on_c, 0, 50, 0
2, 197714, Note_on_c, 0, 30, 82
2, 197719, Note_on_c, 0, 50, 85
2, 197719, Note_on_c, 0, 62, 85
2, 197720, Note_on_c, 0, 42, 81
2, 197853, Note_on_c, 0, 62, 0
2, 197857, Control_c, 0, 64, 0
2, 197906, Note_on_c, 0, 62, 82
2, 198064, Note_on_c, 0, 50, 0
2, 198071, Note_on_c, 0, 62, 0
2, 198114, Note_on_c, 0, 30, 0
2, 198119, Note_on_c, 0, 42, 0
2, 198120, Note_on_c, 0, 29, 102
2, 198120, Note_on_c, 0, 41, 104
2, 198125, Note_on_c, 0, 50, 103
2, 198125, Note_on_c, 0, 62, 101
2, 198155, Note_on_c, 0, 81, 0
2, 198155, Note_on_c, 0, 69, 0
2, 198286, Note_on_c, 0, 50, 0
2, 198292, Note_on_c, 0, 62, 0
2, 198337, Note_on_c, 0, 50, 96
2, 198337, Note_on_c, 0, 62, 92
2, 198348, Control_c, 0, 64, 127
2, 198360, Note_on_c, 0, 50, 0
2, 198367, Note_on_c, 0, 62, 0
2, 198420, Note_on_c, 0, 50, 72
2, 198420, Note_on_c, 0, 62, 71
2, 198457, Note_on_c, 0, 62, 0
2, 198462, Note_on_c, 0, 50, 0
2, 198516, Note_on_c, 0, 59, 78
2, 198516, Note_on_c, 0, 62, 82
2, 198527, Note_on_c, 0, 50, 84
2, 198529, Note_on_c, 0, 71, 104
2, 198530, Note_on_c, 0, 83, 102
2, 198664, Note_on_c, 0, 62, 0
2, 198665, Note_on_c, 0, 50, 0
2, 198723, Note_on_c, 0, 62, 100
2, 198724, Note_on_c, 0, 50, 94
2, 198855, Note_on_c, 0, 50, 0
2, 198862, Note_on_c, 0, 29, 0
2, 198862, Note_on_c, 0, 62, 0
2, 198872, Note_on_c, 0, 41, 0
2, 198905, Note_on_c, 0, 50, 95
2, 198917, Note_on_c, 0, 29, 92
2, 198919, Note_on_c, 0, 62, 96
2, 198926, Note_on_c, 0, 41, 96
2, 199018, Note_on_c, 0, 50, 0
2, 199020, Note_on_c, 0, 62, 0
2, 199067, Control_c, 0, 64, 0
2, 199072, Note_on_c, 0, 62, 89
2, 199073, Note_on_c, 0, 50, 84
2, 199107, Note_on_c, 0, 50, 0
2, 199124, Note_on_c, 0, 62, 0
2, 199164, Note_on_c, 0, 50, 89
2, 199179, Note_on_c, 0, 62, 97
2, 199220, Note_on_c, 0, 50, 0
2, 199230, Note_on_c, 0, 62, 0
2, 199272, Note_on_c, 0, 59, 0
2, 199279, Note_on_c, 0, 57, 95
2, 199280, Note_on_c, 0, 50, 97
2, 199280, Note_on_c, 0, 62, 102
2, 199289, Note_on_c, 0, 71, 0
2, 199295, Note_on_c, 0, 69, 92
2, 199304, Note_on_c, 0, 83, 0
2, 199311, Note_on_c, 0, 81, 94
2, 199394, Note_on_c, 0, 29, 0
2, 199395, Note_on_c, 0, 50, 0
2, 199404, Note_on_c, 0, 41, 0
2, 199412, Note_on_c, 0, 62, 0
2, 199447, Note_on_c, 0, 29, 87
2, 199452, Note_on_c, 0, 50, 89
2, 199458, Note_on_c, 0, 41, 89
2, 199466, Note_on_c, 0, 62, 90
2, 199531, Note_on_c, 0, 69, 0
2, 199539, Note_on_c, 0, 81, 0
2, 199666, Note_on_c, 0, 29, 0
2, 199667, Note_on_c, 0, 28, 103
2, 199678, Note_on_c, 0, 41, 0
2, 199680, Note_on_c, 0, 57, 0
2, 199680, Note_on_c, 0, 50, 0
2, 199681, Note_on_c, 0, 40, 102
2, 199686, Note_on_c, 0, 55, 103
2, 199686, Note_on_c, 0, 67, 100
2, 199695, Note_on_c, 0, 61, 99
2, 199696, Note_on_c, 0, 62, 0
2, 199793, Control_c, 0, 64, 127
2, 199807, Note_on_c, 0, 55, 0
2, 199809, Note_on_c, 0, 61, 0
2, 199812, Note_on_c, 0, 67, 0
2, 199851, Note_on_c, 0, 55, 93
2, 199861, Note_on_c, 0, 61, 94
2, 199861, Note_on_c, 0, 67, 95
2, 199872, Note_on_c, 0, 55, 0
2, 199881, Note_on_c, 0, 61, 0
2, 199886, Note_on_c, 0, 67, 0
2, 199926, Note_on_c, 0, 55, 93
2, 199941, Note_on_c, 0, 61, 94
2, 199941, Note_on_c, 0, 67, 99
2, 200005, Note_on_c, 0, 67, 0
2, 200006, Note_on_c, 0, 55, 0
2, 200015, Note_on_c, 0, 61, 0
2, 200059, Note_on_c, 0, 55, 96
2, 200064, Note_on_c, 0, 67, 96
2, 200069, Note_on_c, 0, 59, 96
2, 200075, Note_on_c, 0, 61, 93
2, 200075, Note_on_c, 0, 71, 96
2, 200096, Note_on_c, 0, 83, 99
2, 200213, Note_on_c, 0, 55, 0
2, 200231, Note_on_c, 0, 67, 0
2, 200237, Note_on_c, 0, 61, 0
2, 200268, Note_on_c, 0, 55, 92
2, 200282, Note_on_c, 0, 67, 88
2, 200289, Note_on_c, 0, 61, 89
2, 200394, Note_on_c, 0, 67, 0
2, 200401, Note_on_c, 0, 55, 0
2, 200409, Note_on_c, 0, 61, 0
2, 200445, Note_on_c, 0, 67, 99
2, 200450, Note_on_c, 0, 55, 91
2, 200466, Note_on_c, 0, 61, 91
2, 200560, Note_on_c, 0, 55, 0
2, 200577, Note_on_c, 0, 67, 0
2, 200578, Note_on_c, 0, 61, 0
2, 200615, Note_on_c, 0, 55, 87
2, 200635, Note_on_c, 0, 61, 81
2, 200640, Note_on_c, 0, 67, 86
2, 200649, Note_on_c, 0, 55, 0
2, 200669, Note_on_c, 0, 67, 0
2, 200670, Note_on_c, 0, 61, 0
2, 200700, Note_on_c, 0, 55, 83
2, 200724, Note_on_c, 0, 61, 96
2, 200724, Note_on_c, 0, 67, 81
2, 200757, Note_on_c, 0, 61, 0
2, 200757, Note_on_c, 0, 55, 0
2, 200762, Note_on_c, 0, 67, 0
2, 200793, Note_on_c, 0, 28, 0
2, 200798, Note_on_c, 0, 40, 0
2, 200803, Note_on_c, 0, 59, 0
2, 200808, Note_on_c, 0, 55, 94
2, 200808, Note_on_c, 0, 57, 94
2, 200818, Note_on_c, 0, 67, 96
2, 200823, Note_on_c, 0, 71, 0
2, 200823, Note_on_c, 0, 61, 99
2, 200832, Note_on_c, 0, 69, 94
2, 200843, Note_on_c, 0, 83, 0
2, 200852, Note_on_c, 0, 81, 99
2, 200921, Control_c, 0, 64, 0
2, 200934, Note_on_c, 0, 55, 0
2, 200948, Note_on_c, 0, 67, 0
2, 200950, Note_on_c, 0, 61, 0
2, 200986, Note_on_c, 0, 55, 87
2, 201001, Note_on_c, 0, 61, 86
2, 201006, Note_on_c, 0, 67, 92
2, 201207, Note_on_c, 0, 57, 0
2, 201222, Note_on_c, 0, 55, 0
2, 201222, Note_on_c, 0, 81, 0
2, 201225, Note_on_c, 0, 61, 0
2, 201226, Note_on_c, 0, 67, 0
2, 201233, Note_on_c, 0, 69, 0
2, 201743, Note_on_c, 0, 55, 96
2, 201743, Note_on_c, 0, 67, 99
2, 201747, Note_on_c, 0, 79, 93
2, 201793, Control_c, 0, 64, 127
2, 202286, Note_on_c, 0, 55, 0
2, 202287, Note_on_c, 0, 54, 96
2, 202290, Note_on_c, 0, 79, 0
2, 202290, Note_on_c, 0, 67, 0
2, 202291, Note_on_c, 0, 66, 97
2, 202296, Note_on_c, 0, 78, 95
2, 202838, Note_on_c, 0, 54, 0
2, 202839, Note_on_c, 0, 66, 0
2, 202844, Note_on_c, 0, 78, 0
2, 202845, Note_on_c, 0, 52, 96
2, 202848, Note_on_c, 0, 64, 93
2, 202848, Note_on_c, 0, 76, 97
2, 202863, Control_c, 0, 64, 0
2, 203401, Control_c, 0, 64, 127
2, 203413, Note_on_c, 0, 52, 0
2, 203414, Note_on_c, 0, 64, 0
2, 203421, Note_on_c, 0, 74, 99
2, 203422, Note_on_c, 0, 50, 94
2, 203422, Note_on_c, 0, 62, 92
2, 203424, Note_on_c, 0, 76, 0
2, 203681, Control_c, 0, 64, 0
2, 203990, Note_on_c, 0, 50, 0
2, 203995, Note_on_c, 0, 74, 0
2, 203998, Note_on_c, 0, 62, 0
2, 203998, Note_on_c, 0, 61, 95
2, 203999, Note_on_c, 0, 49, 99
2, 204001, Note_on_c, 0, 73, 95
2, 205073, Note_on_c, 0, 47, 96
2, 205078, Note_on_c, 0, 59, 98
2, 205078, Note_on_c, 0, 71, 97
2, 205123, Note_on_c, 0, 49, 0
2, 205124, Note_on_c, 0, 61, 0
2, 205129, Note_on_c, 0, 73, 0
2, 205721, Note_on_c, 0, 47, 0
2, 205726, Note_on_c, 0, 71, 0
2, 205730, Note_on_c, 0, 59, 0
2, 205733, Note_on_c, 0, 46, 94
2, 205736, Note_on_c, 0, 70, 92
2, 205737, Note_on_c, 0, 58, 92
2, 205879, Control_c, 0, 64, 127
2, 206794, Control_c, 0, 64, 0
2, 207144, Note_on_c, 0, 57, 90
2, 207145, Note_on_c, 0, 45, 91
2, 207148, Note_on_c, 0, 69, 89
2, 207191, Note_on_c, 0, 46, 0
2, 207202, Note_on_c, 0, 58, 0
2, 207205, Note_on_c, 0, 70, 0
2, 208319, Note_on_c, 0, 57, 0
2, 208319, Note_on_c, 0, 45, 0
2, 208324, Note_on_c, 0, 69, 0
2, 209345, Control_c, 0, 67, 127
2, 209882, Control_c, 0, 64, 127
2, 210053, Note_on_c, 0, 45, 56
2, 210054, Note_on_c, 0, 38, 61
2, 210057, Note_on_c, 0, 50, 62
2, 210057, Note_on_c, 0, 54, 56
2, 210062, Note_on_c, 0, 57, 61
2, 210193, Note_on_c, 0, 50, 0
2, 210198, Note_on_c, 0, 45, 0
2, 210199, Note_on_c, 0, 38, 0
2, 210201, Note_on_c, 0, 57, 0
2, 210203, Note_on_c, 0, 54, 0
2, 210256, Note_on_c, 0, 54, 62
2, 210258, Note_on_c, 0, 38, 58
2, 210261, Note_on_c, 0, 45, 56
2, 210261, Note_on_c, 0, 57, 61
2, 210262, Note_on_c, 0, 50, 61
2, 210406, Note_on_c, 0, 54, 0
2, 210408, Note_on_c, 0, 50, 0
2, 210408, Note_on_c, 0, 45, 0
2, 210409, Note_on_c, 0, 38, 0
2, 210414, Note_on_c, 0, 57, 0
2, 210462, Note_on_c, 0, 38, 62
2, 210465, Note_on_c, 0, 45, 58
2, 210465, Note_on_c, 0, 50, 62
2, 210465, Note_on_c, 0, 54, 58
2, 210470, Note_on_c, 0, 57, 60
2, 210627, Note_on_c, 0, 50, 0
2, 210634, Note_on_c, 0, 54, 0
2, 210635, Note_on_c, 0, 38, 0
2, 210635, Note_on_c, 0, 45, 0
2, 210642, Note_on_c, 0, 57, 0
2, 210693, Note_on_c, 0, 57, 61
2, 210694, Note_on_c, 0, 38, 59
2, 210694, Note_on_c, 0, 45, 59
2, 210694, Note_on_c, 0, 50, 57
2, 210694, Note_on_c, 0, 54, 56
2, 210828, Note_on_c, 0, 54, 0
2, 210833, Note_on_c, 0, 57, 0
2, 210834, Note_on_c, 0, 38, 0
2, 210839, Note_on_c, 0, 45, 0
2, 210839, Note_on_c, 0, 50, 0
2, 210887, Note_on_c, 0, 45, 63
2, 210888, Note_on_c, 0, 38, 60
2, 210891, Note_on_c, 0, 50, 60
2, 210891, Note_on_c, 0, 54, 57
2, 210891, Note_on_c, 0, 57, 63
2, 210979, Control_c, 0, 64, 0
2, 211080, Note_on_c, 0, 38, 0
2, 211096, Note_on_c, 0, 45, 0
2, 211096, Note_on_c, 0, 50, 0
2, 211099, Note_on_c, 0, 54, 0
2, 211099, Note_on_c, 0, 57, 0
2, 211137, Note_on_c, 0, 38, 57
2, 211151, Note_on_c, 0, 45, 56
2, 211156, Note_on_c, 0, 50, 56
2, 211156, Note_on_c, 0, 54, 61
2, 211156, Note_on_c, 0, 57, 57
2, 211369, Control_c, 0, 64, 127
2, 211554, Note_on_c, 0, 66, 72
2, 211557, Note_on_c, 0, 78, 72
2, 211558, Note_on_c, 0, 90, 73
2, 212011, Note_on_c, 0, 64, 80
2, 212016, Note_on_c, 0, 76, 79
2, 212016, Note_on_c, 0, 88, 75
2, 212062, Note_on_c, 0, 66, 0
2, 212071, Note_on_c, 0, 90, 0
2, 212077, Note_on_c, 0, 78, 0
2, 212324, Control_c, 0, 64, 0
2, 212420, Note_on_c, 0, 62, 79
2, 212424, Note_on_c, 0, 74, 78
2, 212424, Note_on_c, 0, 86, 81
2, 212476, Note_on_c, 0, 64, 0
2, 212484, Note_on_c, 0, 88, 0
2, 212485, Note_on_c, 0, 76, 0
2, 212719, Control_c, 0, 64, 127
2, 212847, Note_on_c, 0, 38, 0
2, 212847, Note_on_c, 0, 54, 0
2, 212850, Note_on_c, 0, 45, 0
2, 212855, Note_on_c, 0, 50, 0
2, 212856, Note_on_c, 0, 59, 80
2, 212859, Note_on_c, 0, 57, 0
2, 212860, Note_on_c, 0, 71, 86
2, 212865, Note_on_c, 0, 83, 90
2, 212925, Note_on_c, 0, 62, 0
2, 212927, Note_on_c, 0, 74, 0
2, 212935, Note_on_c, 0, 86, 0
2, 213113, Note_on_c, 0, 45, 68
2, 213114, Note_on_c, 0, 38, 69
2, 213119, Note_on_c, 0, 50, 75
2, 213127, Note_on_c, 0, 66, 75
2, 213144, Control_c, 0, 64, 0
2, 213257, Note_on_c, 0, 69, 86
2, 213265, Note_on_c, 0, 57, 90
2, 213265, Note_on_c, 0, 81, 86
2, 213309, Note_on_c, 0, 45, 0
2, 213315, Note_on_c, 0, 38, 0
2, 213315, Note_on_c, 0, 50, 0
2, 213318, Note_on_c, 0, 66, 0
2, 213320, Note_on_c, 0, 59, 0
2, 213320, Note_on_c, 0, 71, 0
2, 213321, Note_on_c, 0, 83, 0
2, 213366, Note_on_c, 0, 38, 70
2, 213366, Note_on_c, 0, 66, 72
2, 213371, Note_on_c, 0, 45, 76
2, 213371, Note_on_c, 0, 50, 74
2, 213371, Note_on_c, 0, 62, 72
2, 213518, Note_on_c, 0, 50, 0
2, 213521, Note_on_c, 0, 45, 0
2, 213524, Note_on_c, 0, 62, 0
2, 213524, Note_on_c, 0, 38, 0
2, 213528, Note_on_c, 0, 66, 0
2, 213530, Control_c, 0, 64, 127
2, 213574, Note_on_c, 0, 57, 0
2, 213575, Note_on_c, 0, 45, 95
2, 213575, Note_on_c, 0, 66, 97
2, 213576, Note_on_c, 0, 38, 98
2, 213578, Note_on_c, 0, 81, 0
2, 213578, Note_on_c, 0, 50, 92
2, 213578, Note_on_c, 0, 62, 95
2, 213578, Note_on_c, 0, 78, 98
2, 213579, Note_on_c, 0, 54, 95
2, 213713, Note_on_c, 0, 54, 0
2, 213715, Note_on_c, 0, 38, 0
2, 213715, Note_on_c, 0, 45, 0
2, 213717, Note_on_c, 0, 50, 0
2, 213720, Note_on_c, 0, 66, 0
2, 213728, Note_on_c, 0, 62, 0
2, 213770, Note_on_c, 0, 38, 77
2, 213772, Note_on_c, 0, 45, 76
2, 213772, Note_on_c, 0, 62, 81
2, 213773, Note_on_c, 0, 50, 77
2, 213773, Note_on_c, 0, 54, 76
2, 213773, Note_on_c, 0, 66, 82
2, 213812, Note_on_c, 0, 69, 0
2, 213861, Note_on_c, 0, 57, 109
2, 213861, Note_on_c, 0, 69, 100
2, 213865, Note_on_c, 0, 81, 99
2, 213885, Note_on_c, 0, 78, 0
2, 213889, Note_on_c, 0, 50, 0
2, 213890, Note_on_c, 0, 45, 0
2, 213891, Note_on_c, 0, 38, 0
2, 213905, Note_on_c, 0, 66, 0
2, 213937, Note_on_c, 0, 38, 80
2, 213941, Note_on_c, 0, 45, 80
2, 213941, Note_on_c, 0, 50, 77
2, 213947, Control_c, 0, 64, 0
2, 213951, Note_on_c, 0, 66, 79
2, 214153, Note_on_c, 0, 62, 0
2, 214204, Note_on_c, 0, 62, 109
2, 214204, Note_on_c, 0, 86, 103
2, 214210, Note_on_c, 0, 74, 100
2, 214302, Note_on_c, 0, 50, 0
2, 214304, Note_on_c, 0, 38, 0
2, 214304, Note_on_c, 0, 54, 0
2, 214306, Note_on_c, 0, 66, 0
2, 214306, Note_on_c, 0, 45, 0
2, 214307, Note_on_c, 0, 57, 0
2, 214313, Note_on_c, 0, 81, 0
2, 214314, Note_on_c, 0, 69, 0
2, 214356, Control_c, 0, 64, 127
2, 214431, Note_on_c, 0, 38, 72
2, 214431, Note_on_c, 0, 44, 74
2, 214431, Note_on_c, 0, 47, 75
2, 214431, Note_on_c, 0, 50, 68
2, 214431, Note_on_c, 0, 53, 69
2, 214435, Note_on_c, 0, 56, 69
2, 214435, Note_on_c, 0, 65, 77
2, 214566, Note_on_c, 0, 44, 0
2, 214568, Note_on_c, 0, 56, 0
2, 214568, Note_on_c, 0, 38, 0
2, 214570, Note_on_c, 0, 53, 0
2, 214571, Note_on_c, 0, 50, 0
2, 214572, Note_on_c, 0, 47, 0
2, 214599, Note_on_c, 0, 65, 0
2, 214625, Note_on_c, 0, 50, 63
2, 214625, Note_on_c, 0, 53, 65
2, 214626, Note_on_c, 0, 38, 64
2, 214626, Note_on_c, 0, 47, 68
2, 214630, Note_on_c, 0, 56, 63
2, 214635, Note_on_c, 0, 44, 70
2, 214644, Note_on_c, 0, 65, 75
2, 214762, Note_on_c, 0, 44, 0
2, 214766, Note_on_c, 0, 47, 0
2, 214766, Note_on_c, 0, 38, 0
2, 214766, Note_on_c, 0, 50, 0
2, 214771, Note_on_c, 0, 53, 0
2, 214772, Note_on_c, 0, 56, 0
2, 214793, Note_on_c, 0, 65, 0
2, 214824, Note_on_c, 0, 50, 72
2, 214824, Note_on_c, 0, 53, 72
2, 214824, Note_on_c, 0, 56, 65
2, 214825, Note_on_c, 0, 38, 72
2, 214825, Note_on_c, 0, 44, 69
2, 214825, Note_on_c, 0, 47, 65
2, 214849, Note_on_c, 0, 65, 72
2, 214996, Note_on_c, 0, 44, 0
2, 214997, Note_on_c, 0, 38, 0
2, 215003, Note_on_c, 0, 47, 0
2, 215003, Note_on_c, 0, 56, 0
2, 215003, Note_on_c, 0, 50, 0
2, 215008, Note_on_c, 0, 53, 0
2, 215056, Note_on_c, 0, 38, 64
2, 215060, Note_on_c, 0, 53, 61
2, 215061, Note_on_c, 0, 44, 59
2, 215061, Note_on_c, 0, 47, 65
2, 215061, Note_on_c, 0, 50, 65
2, 215061, Note_on_c, 0, 56, 60
2, 215191, Note_on_c, 0, 62, 0
2, 215193, Note_on_c, 0, 59, 69
2, 215205, Note_on_c, 0, 71, 76
2, 215205, Note_on_c, 0, 83, 73
2, 215222, Note_on_c, 0, 56, 0
2, 215222, Control_c, 0, 64, 0
2, 215226, Note_on_c, 0, 47, 0
2, 215226, Note_on_c, 0, 50, 0
2, 215231, Note_on_c, 0, 53, 0
2, 215232, Note_on_c, 0, 38, 0
2, 215232, Note_on_c, 0, 44, 0
2, 215244, Note_on_c, 0, 65, 0
2, 215284, Note_on_c, 0, 53, 59
2, 215285, Note_on_c, 0, 44, 59
2, 215285, Note_on_c, 0, 47, 60
2, 215285, Note_on_c, 0, 50, 57
2, 215286, Note_on_c, 0, 38, 62
2, 215290, Note_on_c, 0, 56, 61
2, 215301, Note_on_c, 0, 65, 61
2, 215325, Note_on_c, 0, 74, 0
2, 215330, Note_on_c, 0, 86, 0
2, 215608, Note_on_c, 0, 44, 0
2, 215610, Note_on_c, 0, 59, 0
2, 215611, Note_on_c, 0, 38, 0
2, 215615, Note_on_c, 0, 47, 0
2, 215615, Note_on_c, 0, 50, 0
2, 215615, Note_on_c, 0, 65, 0
2, 215615, Note_on_c, 0, 56, 0
2, 215616, Note_on_c, 0, 53, 0
2, 215621, Note_on_c, 0, 57, 68
2, 215621, Note_on_c, 0, 69, 71
2, 215633, Note_on_c, 0, 81, 69
2, 215690, Note_on_c, 0, 71, 0
2, 215690, Note_on_c, 0, 83, 0
2, 215756, Control_c, 0, 64, 127
2, 215839, Note_on_c, 0, 38, 62
2, 215843, Note_on_c, 0, 62, 58
2, 215844, Note_on_c, 0, 45, 59
2, 215844, Note_on_c, 0, 50, 62
2, 215844, Note_on_c, 0, 54, 58
2, 215844, Note_on_c, 0, 66, 62
2, 215975, Note_on_c, 0, 50, 0
2, 215978, Note_on_c, 0, 45, 0
2, 215978, Note_on_c, 0, 38, 0
2, 215980, Note_on_c, 0, 54, 0
2, 215985, Note_on_c, 0, 66, 0
2, 215991, Note_on_c, 0, 62, 0
2, 216032, Note_on_c, 0, 45, 63
2, 216032, Note_on_c, 0, 50, 65
2, 216033, Note_on_c, 0, 38, 63
2, 216037, Note_on_c, 0, 54, 61
2, 216037, Note_on_c, 0, 62, 63
2, 216037, Note_on_c, 0, 66, 63
2, 216165, Note_on_c, 0, 45, 0
2, 216166, Note_on_c, 0, 50, 0
2, 216167, Note_on_c, 0, 38, 0
2, 216170, Note_on_c, 0, 54, 0
2, 216172, Note_on_c, 0, 62, 0
2, 216174, Note_on_c, 0, 66, 0
2, 216224, Note_on_c, 0, 45, 64
2, 216225, Note_on_c, 0, 38, 67
2, 216229, Note_on_c, 0, 50, 66
2, 216229, Note_on_c, 0, 54, 66
2, 216229, Note_on_c, 0, 62, 64
2, 216230, Note_on_c, 0, 66, 67
2, 216368, Note_on_c, 0, 54, 0
2, 216375, Note_on_c, 0, 38, 0
2, 216380, Note_on_c, 0, 50, 0
2, 216382, Note_on_c, 0, 62, 0
2, 216383, Note_on_c, 0, 45, 0
2, 216389, Note_on_c, 0, 66, 0
2, 216439, Note_on_c, 0, 45, 62
2, 216439, Note_on_c, 0, 62, 57
2, 216440, Note_on_c, 0, 50, 60
2, 216441, Note_on_c, 0, 38, 63
2, 216445, Note_on_c, 0, 66, 61
2, 216446, Note_on_c, 0, 54, 57
2, 216567, Note_on_c, 0, 50, 0
2, 216573, Note_on_c, 0, 54, 0
2, 216575, Note_on_c, 0, 66, 0
2, 216575, Note_on_c, 0, 62, 0
2, 216575, Note_on_c, 0, 38, 0
2, 216576, Note_on_c, 0, 45, 0
2, 216627, Note_on_c, 0, 45, 56
2, 216628, Note_on_c, 0, 50, 57
2, 216628, Note_on_c, 0, 62, 62
2, 216628, Note_on_c, 0, 66, 63
2, 216629, Note_on_c, 0, 38, 63
2, 216634, Note_on_c, 0, 54, 57
2, 216841, Control_c, 0, 64, 0
2, 216842, Note_on_c, 0, 38, 0
2, 216846, Note_on_c, 0, 50, 0
2, 216851, Note_on_c, 0, 45, 0
2, 216851, Note_on_c, 0, 54, 0
2, 216856, Note_on_c, 0, 66, 0
2, 216857, Note_on_c, 0, 62, 0
2, 216902, Note_on_c, 0, 38, 61
2, 216906, Note_on_c, 0, 45, 61
2, 216906, Note_on_c, 0, 50, 60
2, 216906, Note_on_c, 0, 54, 57
2, 216906, Note_on_c, 0, 62, 61
2, 216907, Note_on_c, 0, 66, 68
2, 216925, Control_c, 0, 67, 0
2, 217219, Note_on_c, 0, 66, 0
2, 217267, Note_on_c, 0, 81, 0
2, 217272, Note_on_c, 0, 69, 0
2, 217272, Note_on_c, 0, 66, 66
2, 217278, Note_on_c, 0, 78, 63
2, 217278, Note_on_c, 0, 90, 62
2, 217532, Control_c, 0, 64, 127
2, 217660, Note_on_c, 0, 45, 0
2, 217662, Note_on_c, 0, 54, 0
2, 217662, Note_on_c, 0, 50, 0
2, 217663, Note_on_c, 0, 38, 0
2, 217668, Note_on_c, 0, 57, 0
2, 217668, Note_on_c, 0, 66, 0
2, 217669, Note_on_c, 0, 64, 64
2, 217670, Note_on_c, 0, 90, 0
2, 217672, Note_on_c, 0, 62, 0
2, 217673, Note_on_c, 0, 76, 70
2, 217679, Note_on_c, 0, 88, 70
2, 217683, Note_on_c, 0, 78, 0
2, 218046, Note_on_c, 0, 64, 0
2, 218046, Note_on_c, 0, 62, 84
2, 218052, Note_on_c, 0, 76, 0
2, 218052, Note_on_c, 0, 74, 82
2, 218063, Note_on_c, 0, 88, 0
2, 218067, Note_on_c, 0, 86, 84
2, 218417, Note_on_c, 0, 62, 0
2, 218449, Note_on_c, 0, 57, 91
2, 218450, Note_on_c, 0, 74, 0
2, 218450, Note_on_c, 0, 69, 91
2, 218455, Note_on_c, 0, 86, 0
2, 218455, Note_on_c, 0, 81, 90
2, 218471, Control_c, 0, 64, 0
2, 218670, Note_on_c, 0, 45, 72
2, 218672, Note_on_c, 0, 38, 72
2, 218676, Note_on_c, 0, 62, 73
2, 218676, Note_on_c, 0, 66, 72
2, 218797, Note_on_c, 0, 81, 0
2, 218801, Note_on_c, 0, 57, 0
2, 218803, Note_on_c, 0, 54, 84
2, 218803, Note_on_c, 0, 78, 82
2, 218841, Note_on_c, 0, 45, 0
2, 218845, Note_on_c, 0, 38, 0
2, 218847, Note_on_c, 0, 66, 0
2, 218852, Note_on_c, 0, 62, 0
2, 218896, Note_on_c, 0, 66, 73
2, 218897, Note_on_c, 0, 38, 69
2, 218901, Note_on_c, 0, 45, 68
2, 218901, Note_on_c, 0, 62, 66
2, 218934, Control_c, 0, 64, 127
2, 219166, Note_on_c, 0, 45, 0
2, 219172, Note_on_c, 0, 38, 0
2, 219174, Note_on_c, 0, 66, 0
2, 219175, Note_on_c, 0, 62, 0
2, 219214, Note_on_c, 0, 54, 0
2, 219220, Note_on_c, 0, 38, 76
2, 219224, Note_on_c, 0, 78, 0
2, 219224, Note_on_c, 0, 45, 80
2, 219224, Note_on_c, 0, 62, 76
2, 219224, Note_on_c, 0, 66, 82
2, 219225, Note_on_c, 0, 50, 75
2, 219229, Note_on_c, 0, 74, 87
2, 219378, Note_on_c, 0, 45, 0
2, 219380, Note_on_c, 0, 38, 0
2, 219382, Note_on_c, 0, 66, 0
2, 219388, Note_on_c, 0, 62, 0
2, 219439, Note_on_c, 0, 38, 77
2, 219439, Note_on_c, 0, 45, 79
2, 219444, Note_on_c, 0, 62, 81
2, 219444, Note_on_c, 0, 66, 65
2, 219534, Note_on_c, 0, 38, 0
2, 219539, Note_on_c, 0, 45, 0
2, 219551, Note_on_c, 0, 62, 0
2, 219551, Note_on_c, 0, 54, 77
2, 219554, Note_on_c, 0, 66, 0
2, 219555, Note_on_c, 0, 74, 0
2, 219561, Note_on_c, 0, 78, 80
2, 219567, Control_c, 0, 64, 0
2, 219599, Note_on_c, 0, 38, 58
2, 219599, Note_on_c, 0, 45, 57
2, 219609, Note_on_c, 0, 62, 58
2, 219615, Note_on_c, 0, 66, 58
2, 219656, Control_c, 0, 67, 127
2, 219917, Note_on_c, 0, 59, 75
2, 219928, Note_on_c, 0, 45, 0
2, 219939, Note_on_c, 0, 54, 0
2, 219943, Note_on_c, 0, 50, 0
2, 219944, Note_on_c, 0, 62, 0
2, 219945, Note_on_c, 0, 66, 0
2, 219945, Note_on_c, 0, 38, 0
2, 219949, Note_on_c, 0, 69, 0
2, 219951, Note_on_c, 0, 71, 86
2, 219976, Note_on_c, 0, 83, 80
2, 220003, Note_on_c, 0, 78, 0
2, 220022, Control_c, 0, 64, 127
2, 220140, Note_on_c, 0, 45, 57
2, 220140, Note_on_c, 0, 49, 58
2, 220140, Note_on_c, 0, 55, 61
2, 220141, Note_on_c, 0, 38, 58
2, 220145, Note_on_c, 0, 64, 58
2, 220150, Note_on_c, 0, 67, 59
2, 220282, Note_on_c, 0, 49, 0
2, 220288, Note_on_c, 0, 67, 0
2, 220289, Note_on_c, 0, 38, 0
2, 220289, Note_on_c, 0, 55, 0
2, 220294, Note_on_c, 0, 45, 0
2, 220295, Note_on_c, 0, 64, 0
2, 220346, Note_on_c, 0, 45, 57
2, 220346, Note_on_c, 0, 49, 58
2, 220346, Note_on_c, 0, 55, 57
2, 220348, Note_on_c, 0, 38, 62
2, 220350, Note_on_c, 0, 64, 62
2, 220350, Note_on_c, 0, 67, 58
2, 220479, Note_on_c, 0, 49, 0
2, 220479, Note_on_c, 0, 45, 0
2, 220484, Note_on_c, 0, 64, 0
2, 220485, Note_on_c, 0, 55, 0
2, 220486, Note_on_c, 0, 67, 0
2, 220486, Note_on_c, 0, 38, 0
2, 220535, Note_on_c, 0, 45, 62
2, 220535, Note_on_c, 0, 55, 66
2, 220536, Note_on_c, 0, 38, 67
2, 220536, Note_on_c, 0, 49, 68
2, 220539, Note_on_c, 0, 64, 69
2, 220539, Note_on_c, 0, 67, 62
2, 220647, Control_c, 0, 64, 0
2, 220711, Note_on_c, 0, 49, 0
2, 220711, Note_on_c, 0, 45, 0
2, 220716, Note_on_c, 0, 38, 0
2, 220722, Note_on_c, 0, 67, 0
2, 220722, Note_on_c, 0, 64, 0
2, 220722, Note_on_c, 0, 55, 0
2, 220764, Note_on_c, 0, 45, 61
2, 220769, Note_on_c, 0, 38, 57
2, 220769, Note_on_c, 0, 49, 60
2, 220769, Note_on_c, 0, 55, 59
2, 220774, Note_on_c, 0, 67, 56
2, 220775, Note_on_c, 0, 64, 62
2, 220896, Note_on_c, 0, 59, 0
2, 220896, Note_on_c, 0, 57, 70
2, 220940, Note_on_c, 0, 71, 0
2, 220944, Note_on_c, 0, 69, 69
2, 220955, Note_on_c, 0, 83, 0
2, 220962, Note_on_c, 0, 38, 0
2, 220964, Note_on_c, 0, 49, 0
2, 220966, Note_on_c, 0, 81, 65
2, 220968, Note_on_c, 0, 55, 0
2, 220968, Note_on_c, 0, 64, 0
2, 220968, Note_on_c, 0, 45, 0
2, 220968, Note_on_c, 0, 67, 0
2, 221019, Note_on_c, 0, 38, 56
2, 221019, Note_on_c, 0, 45, 58
2, 221024, Note_on_c, 0, 49, 59
2, 221024, Note_on_c, 0, 55, 61
2, 221024, Note_on_c, 0, 64, 60
2, 221024, Note_on_c, 0, 67, 59
2, 221202, Note_on_c, 0, 57, 0
2, 221215, Note_on_c, 0, 81, 0
2, 221217, Note_on_c, 0, 69, 0
2, 221264, Note_on_c, 0, 57, 67
2, 221269, Note_on_c, 0, 69, 73
2, 221275, Note_on_c, 0, 81, 74
2, 221285, Note_on_c, 0, 67, 0
2, 221285, Note_on_c, 0, 45, 0
2, 221286, Note_on_c, 0, 49, 0
2, 221291, Note_on_c, 0, 55, 0
2, 221292, Note_on_c, 0, 38, 0
2, 221294, Note_on_c, 0, 64, 0
2, 221378, Control_c, 0, 64, 127
2, 221480, Note_on_c, 0, 45, 56
2, 221482, Note_on_c, 0, 38, 61
2, 221484, Note_on_c, 0, 66, 63
2, 221485, Note_on_c, 0, 54, 61
2, 221485, Note_on_c, 0, 62, 61
2, 221491, Note_on_c, 0, 50, 59
2, 221606, Note_on_c, 0, 50, 0
2, 221606, Note_on_c, 0, 38, 0
2, 221610, Note_on_c, 0, 54, 0
2, 221611, Note_on_c, 0, 45, 0
2, 221616, Note_on_c, 0, 62, 0
2, 221616, Note_on_c, 0, 66, 0
2, 221676, Note_on_c, 0, 45, 57
2, 221677, Note_on_c, 0, 38, 57
2, 221681, Note_on_c, 0, 62, 61
2, 221682, Note_on_c, 0, 50, 57
2, 221682, Note_on_c, 0, 54, 56
2, 221682, Note_on_c, 0, 66, 60
2, 221782, Control_c, 0, 67, 0
2, 221817, Note_on_c, 0, 54, 0
2, 221824, Note_on_c, 0, 50, 0
2, 221824, Note_on_c, 0, 45, 0
2, 221825, Note_on_c, 0, 38, 0
2, 221876, Note_on_c, 0, 45, 56
2, 221876, Note_on_c, 0, 50, 62
2, 221876, Note_on_c, 0, 54, 61
2, 221877, Note_on_c, 0, 38, 57
2, 221972, Note_on_c, 0, 69, 0
2, 221986, Note_on_c, 0, 81, 0
2, 222006, Note_on_c, 0, 50, 0
2, 222010, Note_on_c, 0, 54, 0
2, 222012, Note_on_c, 0, 45, 0
2, 222013, Note_on_c, 0, 38, 0
2, 222024, Note_on_c, 0, 69, 79
2, 222050, Note_on_c, 0, 81, 74
2, 222067, Note_on_c, 0, 38, 58
2, 222071, Note_on_c, 0, 45, 62
2, 222071, Note_on_c, 0, 50, 56
2, 222072, Note_on_c, 0, 54, 61
2, 222101, Note_on_c, 0, 71, 85
2, 222105, Note_on_c, 0, 83, 82
2, 222110, Control_c, 0, 64, 0
2, 222150, Note_on_c, 0, 73, 85
2, 222156, Note_on_c, 0, 85, 80
2, 222209, Note_on_c, 0, 74, 81
2, 222210, Note_on_c, 0, 86, 82
2, 222237, Note_on_c, 0, 85, 0
2, 222266, Note_on_c, 0, 74, 0
2, 222278, Note_on_c, 0, 76, 86
2, 222284, Note_on_c, 0, 88, 92
2, 222307, Note_on_c, 0, 38, 0
2, 222333, Note_on_c, 0, 76, 0
2, 222335, Note_on_c, 0, 78, 91
2, 222339, Note_on_c, 0, 90, 86
2, 222360, Note_on_c, 0, 38, 89
2, 222364, Note_on_c, 0, 88, 0
2, 222400, Note_on_c, 0, 54, 0
2, 222400, Note_on_c, 0, 57, 0
2, 222400, Note_on_c, 0, 45, 0
2, 222404, Note_on_c, 0, 66, 0
2, 222411, Note_on_c, 0, 79, 92
2, 222411, Note_on_c, 0, 91, 91
2, 222422, Note_on_c, 0, 81, 0
2, 222436, Note_on_c, 0, 50, 0
2, 222436, Note_on_c, 0, 90, 0
2, 222447, Note_on_c, 0, 73, 0
2, 222448, Note_on_c, 0, 71, 0
2, 222448, Note_on_c, 0, 45, 90
2, 222450, Note_on_c, 0, 62, 0
2, 222452, Note_on_c, 0, 57, 86
2, 222453, Note_on_c, 0, 51, 86
2, 222453, Note_on_c, 0, 54, 86
2, 222453, Note_on_c, 0, 60, 86
2, 222453, Note_on_c, 0, 66, 93
2, 222457, Note_on_c, 0, 72, 97
2, 222472, Note_on_c, 0, 79, 0
2, 222474, Note_on_c, 0, 78, 0
2, 222475, Note_on_c, 0, 83, 0
2, 222476, Note_on_c, 0, 93, 95
2, 222477, Note_on_c, 0, 86, 0
2, 222477, Note_on_c, 0, 84, 92
2, 222481, Note_on_c, 0, 81, 97
2, 222506, Note_on_c, 0, 91, 0
2, 222643, Control_c, 0, 64, 127
2, 223082, Note_on_c, 0, 81, 0
2, 223083, Note_on_c, 0, 60, 0
2, 223092, Note_on_c, 0, 84, 0
2, 223094, Note_on_c, 0, 72, 0
2, 223126, Note_on_c, 0, 54, 0
2, 223129, Note_on_c, 0, 57, 0
2, 223130, Note_on_c, 0, 55, 80
2, 223131, Note_on_c, 0, 60, 80
2, 223136, Note_on_c, 0, 66, 0
2, 223136, Note_on_c, 0, 67, 89
2, 223147, Note_on_c, 0, 72, 89
2, 223147, Note_on_c, 0, 84, 89
2, 223147, Note_on_c, 0, 91, 88
2, 223148, Note_on_c, 0, 79, 86
2, 223152, Note_on_c, 0, 81, 90
2, 223229, Note_on_c, 0, 93, 0
2, 223409, Control_c, 0, 64, 0
2, 223490, Note_on_c, 0, 38, 0
2, 223497, Note_on_c, 0, 57, 75
2, 223506, Note_on_c, 0, 66, 88
2, 223511, Note_on_c, 0, 78, 87
2, 223516, Note_on_c, 0, 90, 91
2, 223579, Note_on_c, 0, 79, 0
2, 223580, Note_on_c, 0, 67, 0
2, 223586, Note_on_c, 0, 91, 0
2, 223824, Note_on_c, 0, 55, 0
2, 223830, Note_on_c, 0, 66, 0
2, 223830, Note_on_c, 0, 90, 0
2, 223839, Note_on_c, 0, 78, 0
2, 223858, Note_on_c, 0, 45, 0
2, 223859, Note_on_c, 0, 51, 0
2, 223864, Note_on_c, 0, 38, 86
2, 223866, Note_on_c, 0, 57, 0
2, 223867, Note_on_c, 0, 52, 92
2, 223867, Note_on_c, 0, 55, 92
2, 223868, Note_on_c, 0, 47, 87
2, 223872, Note_on_c, 0, 72, 0
2, 223872, Note_on_c, 0, 66, 93
2, 223875, Note_on_c, 0, 60, 0
2, 223877, Note_on_c, 0, 59, 86
2, 223877, Note_on_c, 0, 71, 99
2, 223882, Note_on_c, 0, 90, 98
2, 223887, Note_on_c, 0, 69, 0
2, 223888, Note_on_c, 0, 67, 93
2, 223893, Note_on_c, 0, 78, 94
2, 223894, Note_on_c, 0, 79, 99
2, 223896, Note_on_c, 0, 81, 0
2, 223897, Note_on_c, 0, 84, 0
2, 223901, Note_on_c, 0, 83, 97
2, 223984, Control_c, 0, 64, 127
2, 224063, Note_on_c, 0, 59, 0
2, 224064, Note_on_c, 0, 55, 0
2, 224067, Note_on_c, 0, 83, 0
2, 224067, Note_on_c, 0, 79, 0
2, 224115, Note_on_c, 0, 55, 72
2, 224115, Note_on_c, 0, 59, 68
2, 224119, Note_on_c, 0, 83, 76
2, 224120, Note_on_c, 0, 79, 76
2, 224254, Note_on_c, 0, 55, 0
2, 224258, Note_on_c, 0, 59, 0
2, 224276, Note_on_c, 0, 79, 0
2, 224289, Note_on_c, 0, 83, 0
2, 224315, Note_on_c, 0, 55, 71
2, 224315, Note_on_c, 0, 59, 72
2, 224331, Note_on_c, 0, 79, 76
2, 224340, Note_on_c, 0, 83, 79
2, 224351, Control_c, 0, 64, 0
2, 224458, Note_on_c, 0, 55, 0
2, 224460, Note_on_c, 0, 79, 0
2, 224461, Note_on_c, 0, 71, 0
2, 224467, Note_on_c, 0, 67, 0
2, 224472, Note_on_c, 0, 59, 0
2, 224485, Note_on_c, 0, 83, 0
2, 224503, Note_on_c, 0, 66, 0
2, 224509, Note_on_c, 0, 55, 61
2, 224514, Note_on_c, 0, 78, 0
2, 224520, Note_on_c, 0, 59, 73
2, 224520, Note_on_c, 0, 64, 68
2, 224520, Note_on_c, 0, 67, 76
2, 224525, Note_on_c, 0, 71, 77
2, 224525, Note_on_c, 0, 76, 79
2, 224525, Note_on_c, 0, 83, 74
2, 224531, Note_on_c, 0, 79, 76
2, 224531, Note_on_c, 0, 88, 75
2, 224631, Note_on_c, 0, 90, 0
2, 224674, Note_on_c, 0, 59, 0
2, 224675, Note_on_c, 0, 55, 0
2, 224693, Note_on_c, 0, 79, 0
2, 224697, Note_on_c, 0, 83, 0
2, 224730, Note_on_c, 0, 55, 71
2, 224730, Note_on_c, 0, 59, 70
2, 224755, Note_on_c, 0, 79, 59
2, 224755, Note_on_c, 0, 83, 60
2, 224791, Control_c, 0, 64, 127
2, 224895, Note_on_c, 0, 59, 0
2, 224896, Note_on_c, 0, 55, 0
2, 224907, Note_on_c, 0, 79, 0
2, 224907, Note_on_c, 0, 83, 0
2, 224945, Note_on_c, 0, 38, 0
2, 224945, Note_on_c, 0, 55, 69
2, 224951, Note_on_c, 0, 59, 62
2, 224965, Note_on_c, 0, 79, 63
2, 224965, Note_on_c, 0, 83, 57
2, 225058, Control_c, 0, 64, 0
2, 225085, Note_on_c, 0, 52, 0
2, 225092, Note_on_c, 0, 64, 0
2, 225097, Note_on_c, 0, 67, 0
2, 225108, Note_on_c, 0, 79, 0
2, 225109, Note_on_c, 0, 55, 0
2, 225134, Note_on_c, 0, 43, 87
2, 225135, Note_on_c, 0, 38, 83
2, 225139, Note_on_c, 0, 47, 0
2, 225144, Note_on_c, 0, 64, 85
2, 225144, Note_on_c, 0, 49, 87
2, 225144, Note_on_c, 0, 58, 87
2, 225148, Note_on_c, 0, 67, 90
2, 225149, Note_on_c, 0, 59, 0
2, 225149, Note_on_c, 0, 52, 83
2, 225157, Note_on_c, 0, 71, 0
2, 225158, Note_on_c, 0, 83, 0
2, 225158, Note_on_c, 0, 55, 87
2, 225158, Note_on_c, 0, 70, 88
2, 225163, Note_on_c, 0, 82, 93
2, 225164, Note_on_c, 0, 79, 86
2, 225164, Note_on_c, 0, 91, 93
2, 225182, Note_on_c, 0, 76, 0
2, 225193, Note_on_c, 0, 88, 0
2, 225528, Control_c, 0, 64, 127
2, 225829, Note_on_c, 0, 58, 0
2, 225843, Note_on_c, 0, 67, 0
2, 225847, Note_on_c, 0, 79, 0
2, 225848, Note_on_c, 0, 82, 0
2, 225870, Note_on_c, 0, 52, 0
2, 225872, Note_on_c, 0, 55, 0
2, 225876, Note_on_c, 0, 54, 81
2, 225887, Note_on_c, 0, 58, 77
2, 225887, Note_on_c, 0, 66, 84
2, 225894, Note_on_c, 0, 67, 83
2, 225895, Note_on_c, 0, 79, 85
2, 225901, Note_on_c, 0, 82, 83
2, 225912, Note_on_c, 0, 90, 84
2, 225961, Note_on_c, 0, 91, 0
2, 226134, Control_c, 0, 64, 0
2, 226218, Note_on_c, 0, 64, 0
2, 226263, Note_on_c, 0, 66, 0
2, 226269, Note_on_c, 0, 88, 83
2, 226273, Note_on_c, 0, 54, 0
2, 226273, Note_on_c, 0, 64, 78
2, 226273, Note_on_c, 0, 76, 80
2, 226275, Note_on_c, 0, 38, 0
2, 226277, Note_on_c, 0, 55, 81
2, 226338, Note_on_c, 0, 90, 0
2, 226604, Note_on_c, 0, 64, 0
2, 226606, Note_on_c, 0, 76, 0
2, 226620, Note_on_c, 0, 88, 0
2, 226645, Note_on_c, 0, 38, 80
2, 226652, Note_on_c, 0, 55, 0
2, 226653, Note_on_c, 0, 49, 0
2, 226653, Note_on_c, 0, 43, 0
2, 226657, Note_on_c, 0, 70, 0
2, 226657, Note_on_c, 0, 67, 0
2, 226658, Note_on_c, 0, 45, 82
2, 226658, Note_on_c, 0, 50, 81
2, 226659, Note_on_c, 0, 58, 0
2, 226659, Note_on_c, 0, 82, 0
2, 226665, Note_on_c, 0, 54, 82
2, 226669, Note_on_c, 0, 79, 0
2, 226670, Note_on_c, 0, 57, 80
2, 226670, Note_on_c, 0, 64, 83
2, 226674, Note_on_c, 0, 69, 80
2, 226674, Note_on_c, 0, 76, 80
2, 226674, Note_on_c, 0, 78, 81
2, 226680, Note_on_c, 0, 81, 84
2, 226680, Note_on_c, 0, 88, 86
2, 226765, Control_c, 0, 64, 127
2, 226852, Note_on_c, 0, 57, 0
2, 226866, Note_on_c, 0, 78, 0
2, 226866, Note_on_c, 0, 54, 0
2, 226870, Note_on_c, 0, 81, 0
2, 226876, Note_on_c, 0, 69, 0
2, 226909, Control_c, 0, 64, 0
2, 226914, Note_on_c, 0, 54, 66
2, 226924, Note_on_c, 0, 78, 71
2, 226925, Note_on_c, 0, 66, 74
2, 226929, Note_on_c, 0, 57, 64
2, 226929, Note_on_c, 0, 69, 68
2, 226940, Note_on_c, 0, 81, 75
2, 226964, Control_c, 0, 64, 127
2, 227069, Note_on_c, 0, 57, 0
2, 227081, Note_on_c, 0, 78, 0
2, 227082, Note_on_c, 0, 54, 0
2, 227082, Note_on_c, 0, 81, 0
2, 227084, Note_on_c, 0, 69, 0
2, 227088, Note_on_c, 0, 66, 0
2, 227136, Note_on_c, 0, 57, 68
2, 227137, Note_on_c, 0, 78, 70
2, 227142, Note_on_c, 0, 54, 69
2, 227142, Note_on_c, 0, 66, 68
2, 227146, Note_on_c, 0, 69, 71
2, 227152, Note_on_c, 0, 81, 74
2, 227153, Control_c, 0, 64, 0
2, 227262, Note_on_c, 0, 57, 0
2, 227268, Note_on_c, 0, 66, 0
2, 227268, Note_on_c, 0, 54, 0
2, 227272, Note_on_c, 0, 81, 0
2, 227278, Note_on_c, 0, 78, 0
2, 227315, Note_on_c, 0, 76, 0
2, 227324, Note_on_c, 0, 54, 62
2, 227324, Note_on_c, 0, 62, 61
2, 227324, Note_on_c, 0, 66, 75
2, 227328, Note_on_c, 0, 74, 76
2, 227328, Note_on_c, 0, 57, 66
2, 227328, Note_on_c, 0, 78, 79
2, 227328, Note_on_c, 0, 86, 81
2, 227334, Note_on_c, 0, 81, 75
2, 227412, Note_on_c, 0, 88, 0
2, 227413, Note_on_c, 0, 64, 0
2, 227444, Note_on_c, 0, 66, 0
2, 227448, Note_on_c, 0, 54, 0
2, 227448, Note_on_c, 0, 81, 0
2, 227459, Note_on_c, 0, 69, 0
2, 227460, Note_on_c, 0, 57, 0
2, 227460, Note_on_c, 0, 78, 0
2, 227497, Note_on_c, 0, 66, 62
2, 227505, Note_on_c, 0, 54, 67
2, 227505, Note_on_c, 0, 57, 66
2, 227505, Note_on_c, 0, 69, 68
2, 227511, Note_on_c, 0, 78, 64
2, 227513, Control_c, 0, 64, 127
2, 227514, Note_on_c, 0, 81, 69
2, 227637, Note_on_c, 0, 54, 0
2, 227642, Note_on_c, 0, 57, 0
2, 227647, Note_on_c, 0, 81, 0
2, 227652, Note_on_c, 0, 66, 0
2, 227652, Note_on_c, 0, 69, 0
2, 227666, Note_on_c, 0, 78, 0
2, 227689, Note_on_c, 0, 50, 0
2, 227691, Control_c, 0, 64, 0
2, 227692, Note_on_c, 0, 54, 59
2, 227696, Note_on_c, 0, 66, 57
2, 227702, Note_on_c, 0, 57, 62
2, 227702, Note_on_c, 0, 69, 61
2, 227711, Note_on_c, 0, 78, 60
2, 227711, Note_on_c, 0, 81, 56
2, 227876, Note_on_c, 0, 54, 0
2, 227880, Note_on_c, 0, 66, 0
2, 227880, Note_on_c, 0, 62, 0
2, 227922, Note_on_c, 0, 45, 0
2, 227928, Note_on_c, 0, 57, 0
2, 227928, Note_on_c, 0, 38, 0
2, 227929, Note_on_c, 0, 50, 75
2, 227930, Note_on_c, 0, 32, 77
2, 227930, Note_on_c, 0, 44, 78
2, 227932, Note_on_c, 0, 62, 74
2, 227932, Note_on_c, 0, 66, 59
2, 227933, Note_on_c, 0, 69, 0
2, 227933, Note_on_c, 0, 54, 74
2, 227933, Note_on_c, 0, 59, 79
2, 227937, Note_on_c, 0, 71, 56
2, 227960, Note_on_c, 0, 81, 0
2, 227964, Note_on_c, 0, 74, 0
2, 227968, Note_on_c, 0, 86, 0
2, 227969, Note_on_c, 0, 78, 0
2, 228357, Note_on_c, 0, 66, 0
2, 228412, Note_on_c, 0, 66, 86
2, 228417, Note_on_c, 0, 78, 91
2, 228428, Note_on_c, 0, 90, 92
2, 228580, Control_c, 0, 64, 127
2, 228884, Note_on_c, 0, 64, 82
2, 228891, Note_on_c, 0, 88, 80
2, 228892, Note_on_c, 0, 76, 81
2, 228951, Note_on_c, 0, 66, 0
2, 228960, Note_on_c, 0, 90, 0
2, 228967, Note_on_c, 0, 78, 0
2, 229348, Note_on_c, 0, 62, 0
2, 229391, Control_c, 0, 64, 0
2, 229400, Note_on_c, 0, 62, 65
2, 229416, Note_on_c, 0, 74, 68
2, 229417, Note_on_c, 0, 86, 67
2, 229476, Note_on_c, 0, 64, 0
2, 229495, Note_on_c, 0, 76, 0
2, 229500, Note_on_c, 0, 88, 0
2, 229502, Control_c, 0, 67, 127
2, 229832, Note_on_c, 0, 54, 0
2, 229837, Note_on_c, 0, 50, 0
2, 229839, Note_on_c, 0, 74, 0
2, 229844, Note_on_c, 0, 62, 0
2, 229874, Note_on_c, 0, 32, 0
2, 229887, Note_on_c, 0, 44, 0
2, 229891, Note_on_c, 0, 59, 0
2, 229892, Note_on_c, 0, 71, 0
2, 229892, Note_on_c, 0, 50, 66
2, 229892, Note_on_c, 0, 54, 62
2, 229892, Note_on_c, 0, 62, 64
2, 229893, Note_on_c, 0, 33, 63
2, 229896, Note_on_c, 0, 45, 65
2, 229896, Note_on_c, 0, 57, 69
2, 229908, Note_on_c, 0, 81, 56
2, 229918, Note_on_c, 0, 66, 56
2, 229918, Note_on_c, 0, 74, 63
2, 229918, Note_on_c, 0, 78, 62
2, 229919, Note_on_c, 0, 69, 61
2, 229961, Control_c, 0, 64, 127
2, 229968, Note_on_c, 0, 86, 0
2, 230111, Note_on_c, 0, 78, 0
2, 230115, Note_on_c, 0, 33, 0
2, 230119, Note_on_c, 0, 50, 0
2, 230123, Note_on_c, 0, 45, 0
2, 230124, Note_on_c, 0, 54, 0
2, 230124, Note_on_c, 0, 57, 0
2, 230173, Note_on_c, 0, 33, 63
2, 230177, Note_on_c, 0, 45, 62
2, 230182, Note_on_c, 0, 57, 60
2, 230183, Note_on_c, 0, 50, 59
2, 230183, Note_on_c, 0, 54, 63
2, 230256, Note_on_c, 0, 66, 0
2, 230309, Note_on_c, 0, 69, 0
2, 230309, Note_on_c, 0, 66, 72
2, 230309, Note_on_c, 0, 78, 71
2, 230345, Note_on_c, 0, 50, 0
2, 230347, Note_on_c, 0, 33, 0
2, 230351, Note_on_c, 0, 45, 0
2, 230356, Note_on_c, 0, 57, 0
2, 230357, Note_on_c, 0, 54, 0
2, 230376, Note_on_c, 0, 81, 0
2, 230409, Note_on_c, 0, 50, 62
2, 230410, Note_on_c, 0, 54, 61
2, 230411, Note_on_c, 0, 33, 62
2, 230415, Note_on_c, 0, 57, 61
2, 230416, Note_on_c, 0, 45, 62
2, 230557, Note_on_c, 0, 54, 0
2, 230558, Note_on_c, 0, 33, 0
2, 230563, Note_on_c, 0, 45, 0
2, 230563, Note_on_c, 0, 50, 0
2, 230567, Note_on_c, 0, 57, 0
2, 230568, Note_on_c, 0, 62, 0
2, 230568, Note_on_c, 0, 74, 0
2, 230612, Note_on_c, 0, 33, 69
2, 230612, Note_on_c, 0, 45, 66
2, 230616, Note_on_c, 0, 66, 0
2, 230616, Note_on_c, 0, 54, 67
2, 230616, Note_on_c, 0, 57, 67
2, 230616, Note_on_c, 0, 62, 62
2, 230616, Note_on_c, 0, 50, 66
2, 230621, Note_on_c, 0, 74, 72
2, 230688, Note_on_c, 0, 78, 0
2, 230760, Note_on_c, 0, 54, 0
2, 230766, Note_on_c, 0, 33, 0
2, 230768, Note_on_c, 0, 57, 0
2, 230770, Note_on_c, 0, 45, 0
2, 230771, Note_on_c, 0, 50, 0
2, 230820, Note_on_c, 0, 33, 65
2, 230824, Note_on_c, 0, 45, 67
2, 230830, Note_on_c, 0, 50, 65
2, 230830, Note_on_c, 0, 54, 67
2, 230830, Note_on_c, 0, 57, 66
2, 230881, Control_c, 0, 64, 0
2, 230930, Note_on_c, 0, 66, 73
2, 230935, Note_on_c, 0, 78, 76
2, 230971, Note_on_c, 0, 33, 0
2, 230975, Note_on_c, 0, 45, 0
2, 230979, Note_on_c, 0, 50, 0
2, 230979, Note_on_c, 0, 54, 0
2, 230980, Note_on_c, 0, 57, 0
2, 231000, Note_on_c, 0, 62, 0
2, 231002, Note_on_c, 0, 74, 0
2, 231027, Note_on_c, 0, 33, 69
2, 231027, Note_on_c, 0, 45, 64
2, 231027, Note_on_c, 0, 50, 69
2, 231032, Note_on_c, 0, 54, 67
2, 231032, Note_on_c, 0, 57, 69
2, 231244, Note_on_c, 0, 59, 77
2, 231249, Note_on_c, 0, 71, 70
2, 231249, Note_on_c, 0, 83, 76
2, 231264, Note_on_c, 0, 45, 0
2, 231264, Note_on_c, 0, 33, 0
2, 231270, Note_on_c, 0, 50, 0
2, 231271, Note_on_c, 0, 54, 0
2, 231276, Note_on_c, 0, 66, 0
2, 231277, Note_on_c, 0, 57, 0
2, 231285, Note_on_c, 0, 78, 0
2, 231342, Control_c, 0, 64, 127
2, 231474, Note_on_c, 0, 33, 60
2, 231478, Note_on_c, 0, 45, 56
2, 231483, Note_on_c, 0, 55, 59
2, 231483, Note_on_c, 0, 61, 57
2, 231483, Note_on_c, 0, 64, 61
2, 231624, Note_on_c, 0, 61, 0
2, 231625, Note_on_c, 0, 33, 0
2, 231631, Note_on_c, 0, 64, 0
2, 231631, Note_on_c, 0, 45, 0
2, 231631, Note_on_c, 0, 55, 0
2, 231690, Note_on_c, 0, 33, 57
2, 231692, Note_on_c, 0, 45, 61
2, 231692, Note_on_c, 0, 55, 56
2, 231697, Note_on_c, 0, 61, 61
2, 231697, Note_on_c, 0, 64, 60
2, 231859, Note_on_c, 0, 33, 0
2, 231860, Note_on_c, 0, 55, 0
2, 231862, Note_on_c, 0, 45, 0
2, 231863, Note_on_c, 0, 61, 0
2, 231864, Note_on_c, 0, 64, 0
2, 231911, Note_on_c, 0, 33, 60
2, 231914, Note_on_c, 0, 45, 57
2, 231915, Note_on_c, 0, 55, 60
2, 231921, Note_on_c, 0, 61, 57
2, 231921, Note_on_c, 0, 64, 62
2, 232054, Note_on_c, 0, 61, 0
2, 232054, Note_on_c, 0, 33, 0
2, 232055, Note_on_c, 0, 55, 0
2, 232059, Note_on_c, 0, 64, 0
2, 232059, Note_on_c, 0, 45, 0
2, 232108, Note_on_c, 0, 33, 56
2, 232110, Note_on_c, 0, 45, 63
2, 232111, Note_on_c, 0, 55, 59
2, 232118, Note_on_c, 0, 61, 60
2, 232118, Note_on_c, 0, 64, 60
2, 232212, Control_c, 0, 64, 0
2, 232317, Note_on_c, 0, 59, 0
2, 232321, Note_on_c, 0, 57, 58
2, 232322, Note_on_c, 0, 69, 62
2, 232333, Note_on_c, 0, 81, 63
2, 232405, Note_on_c, 0, 71, 0
2, 232410, Note_on_c, 0, 45, 0
2, 232411, Note_on_c, 0, 83, 0
2, 232416, Note_on_c, 0, 33, 0
2, 232420, Note_on_c, 0, 61, 0
2, 232420, Note_on_c, 0, 55, 0
2, 232426, Note_on_c, 0, 64, 0
2, 232466, Note_on_c, 0, 33, 56
2, 232471, Note_on_c, 0, 45, 58
2, 232476, Note_on_c, 0, 55, 60
2, 232476, Note_on_c, 0, 61, 63
2, 232476, Note_on_c, 0, 64, 59
2, 232611, Note_on_c, 0, 57, 0
2, 232611, Note_on_c, 0, 81, 0
2, 232617, Note_on_c, 0, 69, 0
2, 232653, Note_on_c, 0, 33, 0
2, 232657, Note_on_c, 0, 45, 0
2, 232661, Note_on_c, 0, 61, 0
2, 232667, Note_on_c, 0, 64, 0
2, 232667, Note_on_c, 0, 55, 0
2, 232667, Note_on_c, 0, 57, 69
2, 232672, Note_on_c, 0, 69, 69
2, 232677, Note_on_c, 0, 81, 62
2, 232800, Control_c, 0, 64, 127
2, 232966, Note_on_c, 0, 45, 62
2, 232966, Note_on_c, 0, 66, 56
2, 232967, Note_on_c, 0, 50, 59
2, 232967, Note_on_c, 0, 54, 62
2, 232968, Note_on_c, 0, 38, 58
2, 232971, Note_on_c, 0, 62, 63
2, 233066, Note_on_c, 0, 50, 0
2, 233067, Note_on_c, 0, 45, 0
2, 233069, Note_on_c, 0, 54, 0
2, 233073, Note_on_c, 0, 38, 0
2, 233075, Note_on_c, 0, 62, 0
2, 233076, Note_on_c, 0, 66, 0
2, 233133, Note_on_c, 0, 45, 62
2, 233133, Note_on_c, 0, 50, 59
2, 233134, Note_on_c, 0, 38, 62
2, 233134, Note_on_c, 0, 54, 60
2, 233137, Note_on_c, 0, 62, 59
2, 233138, Note_on_c, 0, 66, 59
2, 233197, Control_c, 0, 67, 0
2, 233287, Note_on_c, 0, 54, 0
2, 233288, Note_on_c, 0, 38, 0
2, 233288, Note_on_c, 0, 45, 0
2, 233292, Note_on_c, 0, 50, 0
2, 233346, Note_on_c, 0, 45, 58
2, 233346, Note_on_c, 0, 50, 60
2, 233351, Note_on_c, 0, 38, 57
2, 233351, Note_on_c, 0, 54, 58
2, 233398, Note_on_c, 0, 81, 0
2, 233403, Note_on_c, 0, 69, 0
2, 233457, Note_on_c, 0, 69, 81
2, 233462, Note_on_c, 0, 81, 80
2, 233483, Note_on_c, 0, 50, 0
2, 233488, Note_on_c, 0, 38, 0
2, 233489, Note_on_c, 0, 54, 0
2, 233493, Note_on_c, 0, 45, 0
2, 233521, Note_on_c, 0, 71, 87
2, 233521, Note_on_c, 0, 83, 85
2, 233544, Note_on_c, 0, 45, 57
2, 233544, Note_on_c, 0, 38, 61
2, 233548, Note_on_c, 0, 50, 58
2, 233549, Note_on_c, 0, 54, 59
2, 233590, Note_on_c, 0, 73, 83
2, 233595, Note_on_c, 0, 85, 86
2, 233641, Note_on_c, 0, 73, 0
2, 233646, Note_on_c, 0, 74, 91
2, 233663, Note_on_c, 0, 86, 88
2, 233672, Control_c, 0, 64, 0
2, 233691, Note_on_c, 0, 85, 0
2, 233721, Note_on_c, 0, 76, 86
2, 233721, Note_on_c, 0, 88, 93
2, 233742, Note_on_c, 0, 38, 0
2, 233765, Note_on_c, 0, 78, 89
2, 233771, Note_on_c, 0, 90, 92
2, 233805, Note_on_c, 0, 38, 98
2, 233828, Note_on_c, 0, 79, 93
2, 233828, Note_on_c, 0, 91, 86
2, 233833, Note_on_c, 0, 54, 0
2, 233843, Note_on_c, 0, 66, 0
2, 233844, Note_on_c, 0, 57, 0
2, 233845, Note_on_c, 0, 81, 0
2, 233845, Note_on_c, 0, 45, 0
2, 233847, Note_on_c, 0, 69, 0
2, 233856, Note_on_c, 0, 90, 0
2, 233860, Note_on_c, 0, 78, 0
2, 233889, Note_on_c, 0, 50, 0
2, 233890, Note_on_c, 0, 45, 92
2, 233895, Note_on_c, 0, 71, 0
2, 233895, Note_on_c, 0, 83, 0
2, 233895, Note_on_c, 0, 62, 0
2, 233895, Note_on_c, 0, 74, 0
2, 233896, Note_on_c, 0, 54, 96
2, 233896, Note_on_c, 0, 57, 99
2, 233896, Note_on_c, 0, 66, 92
2, 233897, Note_on_c, 0, 51, 93
2, 233899, Note_on_c, 0, 69, 98
2, 233900, Note_on_c, 0, 86, 0
2, 233900, Note_on_c, 0, 60, 92
2, 233900, Note_on_c, 0, 72, 94
2, 233900, Note_on_c, 0, 84, 92
2, 233904, Note_on_c, 0, 81, 94
2, 233904, Note_on_c, 0, 93, 93
2, 233924, Note_on_c, 0, 91, 0
2, 233924, Note_on_c, 0, 88, 0
2, 233925, Note_on_c, 0, 76, 0
2, 233925, Note_on_c, 0, 79, 0
2, 234102, Control_c, 0, 64, 127
2, 234546, Note_on_c, 0, 60, 0
2, 234592, Note_on_c, 0, 66, 0
2, 234592, Note_on_c, 0, 69, 0
2, 234594, Note_on_c, 0, 54, 0
2, 234607, Note_on_c, 0, 72, 0
2, 234607, Note_on_c, 0, 81, 0
2, 234611, Note_on_c, 0, 84, 0
2, 234659, Note_on_c, 0, 55, 80
2, 234659, Note_on_c, 0, 67, 93
2, 234664, Note_on_c, 0, 60, 78
2, 234664, Note_on_c, 0, 69, 91
2, 234664, Note_on_c, 0, 72, 91
2, 234664, Note_on_c, 0, 79, 90
2, 234664, Note_on_c, 0, 84, 87
2, 234669, Note_on_c, 0, 81, 89
2, 234669, Note_on_c, 0, 91, 90
2, 234729, Note_on_c, 0, 93, 0
2, 234849, Control_c, 0, 64, 0
2, 235008, Note_on_c, 0, 57, 0
2, 235057, Note_on_c, 0, 79, 0
2, 235058, Note_on_c, 0, 57, 84
2, 235058, Note_on_c, 0, 66, 89
2, 235063, Note_on_c, 0, 67, 0
2, 235068, Note_on_c, 0, 78, 92
2, 235068, Note_on_c, 0, 90, 92
2, 235069, Note_on_c, 0, 91, 0
2, 235296, Note_on_c, 0, 38, 0
2, 235435, Note_on_c, 0, 66, 0
2, 235436, Note_on_c, 0, 55, 0
2, 235436, Note_on_c, 0, 78, 0
2, 235436, Note_on_c, 0, 90, 0
2, 235469, Control_c, 0, 64, 127
2, 235477, Note_on_c, 0, 45, 0
2, 235478, Note_on_c, 0, 51, 0
2, 235482, Note_on_c, 0, 60, 0
2, 235482, Note_on_c, 0, 72, 0
2, 235482, Note_on_c, 0, 66, 99
2, 235484, Note_on_c, 0, 81, 0
2, 235485, Note_on_c, 0, 57, 0
2, 235486, Note_on_c, 0, 84, 0
2, 235486, Note_on_c, 0, 55, 87
2, 235486, Note_on_c, 0, 59, 89
2, 235486, Note_on_c, 0, 67, 97
2, 235487, Note_on_c, 0, 47, 89
2, 235487, Note_on_c, 0, 52, 92
2, 235488, Note_on_c, 0, 38, 89
2, 235489, Note_on_c, 0, 71, 95
2, 235489, Note_on_c, 0, 78, 94
2, 235489, Note_on_c, 0, 79, 96
2, 235489, Note_on_c, 0, 90, 94
2, 235490, Note_on_c, 0, 83, 95
2, 235491, Note_on_c, 0, 69, 0
2, 235688, Note_on_c, 0, 71, 0
2, 235694, Note_on_c, 0, 55, 0
2, 235700, Note_on_c, 0, 59, 0
2, 235700, Note_on_c, 0, 66, 0
2, 235700, Note_on_c, 0, 79, 0
2, 235704, Note_on_c, 0, 83, 0
2, 235746, Note_on_c, 0, 67, 0
2, 235748, Note_on_c, 0, 66, 81
2, 235753, Note_on_c, 0, 55, 78
2, 235754, Note_on_c, 0, 59, 76
2, 235762, Note_on_c, 0, 71, 77
2, 235763, Note_on_c, 0, 79, 74
2, 235764, Note_on_c, 0, 83, 81
2, 235919, Note_on_c, 0, 59, 0
2, 235923, Note_on_c, 0, 79, 0
2, 235924, Note_on_c, 0, 55, 0
2, 235924, Note_on_c, 0, 83, 0
2, 235977, Note_on_c, 0, 55, 80
2, 235978, Note_on_c, 0, 59, 81
2, 235982, Note_on_c, 0, 79, 79
2, 235982, Note_on_c, 0, 83, 77
2, 236047, Control_c, 0, 64, 0
2, 236134, Note_on_c, 0, 59, 0
2, 236140, Note_on_c, 0, 79, 0
2, 236140, Note_on_c, 0, 55, 0
2, 236141, Note_on_c, 0, 71, 0
2, 236149, Note_on_c, 0, 83, 0
2, 236194, Note_on_c, 0, 66, 0
2, 236196, Note_on_c, 0, 90, 0
2, 236196, Note_on_c, 0, 55, 70
2, 236196, Note_on_c, 0, 67, 82
2, 236196, Note_on_c, 0, 71, 85
2, 236196, Note_on_c, 0, 76, 86
2, 236197, Note_on_c, 0, 59, 72
2, 236197, Note_on_c, 0, 64, 72
2, 236201, Note_on_c, 0, 79, 83
2, 236201, Note_on_c, 0, 83, 83
2, 236206, Note_on_c, 0, 88, 87
2, 236208, Note_on_c, 0, 78, 0
2, 236313, Note_on_c, 0, 59, 0
2, 236314, Note_on_c, 0, 67, 0
2, 236320, Note_on_c, 0, 83, 0
2, 236336, Note_on_c, 0, 55, 0
2, 236336, Note_on_c, 0, 71, 0
2, 236341, Note_on_c, 0, 79, 0
2, 236392, Note_on_c, 0, 55, 71
2, 236397, Note_on_c, 0, 71, 75
2, 236397, Note_on_c, 0, 83, 71
2, 236398, Note_on_c, 0, 59, 72
2, 236398, Note_on_c, 0, 67, 68
2, 236398, Note_on_c, 0, 79, 73
2, 236524, Note_on_c, 0, 71, 0
2, 236529, Note_on_c, 0, 67, 0
2, 236529, Note_on_c, 0, 59, 0
2, 236531, Note_on_c, 0, 55, 0
2, 236536, Note_on_c, 0, 83, 0
2, 236536, Note_on_c, 0, 79, 0
2, 236578, Note_on_c, 0, 52, 0
2, 236584, Note_on_c, 0, 67, 74
2, 236584, Note_on_c, 0, 71, 69
2, 236585, Note_on_c, 0, 55, 64
2, 236585, Note_on_c, 0, 59, 65
2, 236585, Note_on_c, 0, 83, 75
2, 236590, Note_on_c, 0, 79, 73
2, 236752, Note_on_c, 0, 38, 0
2, 236796, Note_on_c, 0, 64, 0
2, 236797, Note_on_c, 0, 38, 85
2, 236802, Note_on_c, 0, 55, 0
2, 236811, Note_on_c, 0, 67, 0
2, 236819, Note_on_c, 0, 79, 0
2, 236834, Note_on_c, 0, 43, 83
2, 236844, Note_on_c, 0, 64, 81
2, 236845, Note_on_c, 0, 59, 0
2, 236852, Note_on_c, 0, 47, 0
2, 236859, Note_on_c, 0, 49, 84
2, 236859, Note_on_c, 0, 55, 87
2, 236860, Note_on_c, 0, 71, 0
2, 236860, Note_on_c, 0, 52, 82
2, 236860, Note_on_c, 0, 58, 83
2, 236870, Note_on_c, 0, 83, 0
2, 236870, Note_on_c, 0, 70, 93
2, 236870, Note_on_c, 0, 79, 87
2, 236870, Note_on_c, 0, 82, 90
2, 236880, Note_on_c, 0, 67, 88
2, 236886, Note_on_c, 0, 91, 86
2, 236898, Note_on_c, 0, 88, 0
2, 236902, Note_on_c, 0, 76, 0
2, 236920, Control_c, 0, 64, 127
2, 237543, Note_on_c, 0, 58, 0
2, 237548, Note_on_c, 0, 70, 0
2, 237548, Note_on_c, 0, 82, 0
2, 237549, Note_on_c, 0, 79, 0
2, 237549, Note_on_c, 0, 67, 0
2, 237596, Note_on_c, 0, 67, 81
2, 237597, Note_on_c, 0, 52, 0
2, 237597, Note_on_c, 0, 55, 0
2, 237597, Note_on_c, 0, 54, 77
2, 237600, Note_on_c, 0, 70, 81
2, 237600, Note_on_c, 0, 73, 82
2, 237600, Note_on_c, 0, 78, 84
2, 237601, Note_on_c, 0, 91, 0
2, 237601, Note_on_c, 0, 58, 78
2, 237605, Note_on_c, 0, 82, 80
2, 237605, Note_on_c, 0, 90, 86
2, 237606, Note_on_c, 0, 79, 85
2, 237767, Control_c, 0, 64, 0
2, 237825, Control_c, 0, 64, 127
2, 237969, Note_on_c, 0, 64, 0
2, 238003, Note_on_c, 0, 54, 0
2, 238009, Note_on_c, 0, 55, 68
2, 238020, Note_on_c, 0, 90, 0
2, 238020, Note_on_c, 0, 76, 87
2, 238021, Note_on_c, 0, 78, 0
2, 238032, Note_on_c, 0, 64, 69
2, 238036, Note_on_c, 0, 88, 84
2, 238144, Control_c, 0, 64, 0
2, 238272, Note_on_c, 0, 38, 0
2, 238405, Note_on_c, 0, 64, 0
2, 238405, Note_on_c, 0, 76, 0
2, 238416, Note_on_c, 0, 88, 0
2, 238426, Note_on_c, 0, 38, 80
2, 238445, Note_on_c, 0, 49, 0
2, 238445, Note_on_c, 0, 55, 0
2, 238447, Note_on_c, 0, 43, 0
2, 238448, Note_on_c, 0, 58, 0
2, 238454, Note_on_c, 0, 67, 0
2, 238455, Note_on_c, 0, 73, 0
2, 238455, Note_on_c, 0, 45, 81
2, 238456, Note_on_c, 0, 50, 75
2, 238456, Note_on_c, 0, 54, 79
2, 238456, Note_on_c, 0, 64, 76
2, 238457, Note_on_c, 0, 82, 0
2, 238459, Note_on_c, 0, 79, 0
2, 238459, Note_on_c, 0, 57, 76
2, 238460, Note_on_c, 0, 70, 0
2, 238460, Note_on_c, 0, 69, 87
2, 238460, Note_on_c, 0, 76, 87
2, 238460, Note_on_c, 0, 78, 83
2, 238464, Note_on_c, 0, 88, 81
2, 238465, Note_on_c, 0, 81, 85
2, 238551, Control_c, 0, 64, 127
2, 238624, Note_on_c, 0, 54, 0
2, 238633, Note_on_c, 0, 81, 0
2, 238635, Note_on_c, 0, 78, 0
2, 238635, Note_on_c, 0, 57, 0
2, 238687, Note_on_c, 0, 54, 77
2, 238692, Note_on_c, 0, 57, 75
2, 238692, Note_on_c, 0, 78, 68
2, 238698, Note_on_c, 0, 81, 73
2, 238851, Note_on_c, 0, 54, 0
2, 238853, Note_on_c, 0, 57, 0
2, 238857, Note_on_c, 0, 81, 0
2, 238865, Note_on_c, 0, 78, 0
2, 238918, Note_on_c, 0, 57, 75
2, 238918, Note_on_c, 0, 78, 68
2, 238919, Note_on_c, 0, 54, 72
2, 238928, Note_on_c, 0, 81, 75
2, 238989, Control_c, 0, 64, 0
2, 239077, Note_on_c, 0, 81, 0
2, 239079, Note_on_c, 0, 54, 0
2, 239080, Note_on_c, 0, 57, 0
2, 239081, Note_on_c, 0, 78, 0
2, 239137, Note_on_c, 0, 76, 0
2, 239139, Note_on_c, 0, 88, 0
2, 239140, Note_on_c, 0, 64, 0
2, 239140, Note_on_c, 0, 54, 68
2, 239140, Note_on_c, 0, 57, 68
2, 239140, Note_on_c, 0, 62, 74
2, 239141, Note_on_c, 0, 66, 78
2, 239145, Note_on_c, 0, 78, 76
2, 239146, Note_on_c, 0, 74, 77
2, 239146, Note_on_c, 0, 86, 80
2, 239151, Note_on_c, 0, 81, 80
2, 239277, Note_on_c, 0, 66, 0
2, 239280, Note_on_c, 0, 57, 0
2, 239281, Note_on_c, 0, 54, 0
2, 239283, Note_on_c, 0, 69, 0
2, 239283, Note_on_c, 0, 81, 0
2, 239289, Note_on_c, 0, 78, 0
2, 239319, Control_c, 0, 64, 127
2, 239334, Note_on_c, 0, 54, 68
2, 239334, Note_on_c, 0, 57, 69
2, 239334, Note_on_c, 0, 66, 65
2, 239339, Note_on_c, 0, 69, 69
2, 239339, Note_on_c, 0, 78, 68
2, 239345, Note_on_c, 0, 81, 66
2, 239492, Note_on_c, 0, 54, 0
2, 239496, Note_on_c, 0, 66, 0
2, 239497, Note_on_c, 0, 57, 0
2, 239498, Note_on_c, 0, 69, 0
2, 239498, Note_on_c, 0, 81, 0
2, 239499, Note_on_c, 0, 78, 0
2, 239560, Note_on_c, 0, 57, 61
2, 239561, Note_on_c, 0, 54, 56
2, 239561, Note_on_c, 0, 66, 57
2, 239561, Note_on_c, 0, 78, 57
2, 239567, Note_on_c, 0, 81, 61
2, 239570, Note_on_c, 0, 69, 62
2, 239774, Note_on_c, 0, 50, 0
2, 239776, Note_on_c, 0, 66, 0
2, 239777, Note_on_c, 0, 54, 0
2, 239783, Note_on_c, 0, 62, 0
2, 239802, Control_c, 0, 64, 0
2, 239818, Note_on_c, 0, 38, 0
2, 239825, Note_on_c, 0, 32, 78
2, 239827, Note_on_c, 0, 45, 0
2, 239828, Note_on_c, 0, 74, 0
2, 239828, Note_on_c, 0, 81, 0
2, 239829, Note_on_c, 0, 44, 79
2, 239832, Note_on_c, 0, 57, 0
2, 239833, Note_on_c, 0, 50, 75
2, 239833, Note_on_c, 0, 54, 75
2, 239833, Note_on_c, 0, 59, 79
2, 239833, Note_on_c, 0, 62, 77
2, 239833, Note_on_c, 0, 66, 63
2, 239833, Note_on_c, 0, 71, 62
2, 239835, Note_on_c, 0, 69, 0
2, 239837, Note_on_c, 0, 78, 0
2, 239837, Note_on_c, 0, 86, 0
2, 240345, Note_on_c, 0, 66, 0
2, 240400, Note_on_c, 0, 66, 66
2, 240405, Note_on_c, 0, 78, 62
2, 240409, Note_on_c, 0, 90, 63
2, 240481, Control_c, 0, 64, 127
2, 240869, Note_on_c, 0, 66, 0
2, 240875, Note_on_c, 0, 64, 64
2, 240877, Note_on_c, 0, 78, 0
2, 240881, Note_on_c, 0, 76, 68
2, 240886, Note_on_c, 0, 88, 67
2, 240977, Note_on_c, 0, 90, 0
2, 241260, Note_on_c, 0, 62, 0
2, 241306, Note_on_c, 0, 76, 0
2, 241307, Note_on_c, 0, 64, 0
2, 241311, Note_on_c, 0, 62, 74
2, 241311, Note_on_c, 0, 74, 68
2, 241316, Note_on_c, 0, 86, 68
2, 241385, Note_on_c, 0, 88, 0
2, 241729, Note_on_c, 0, 50, 0
2, 241730, Note_on_c, 0, 54, 0
2, 241741, Note_on_c, 0, 74, 0
2, 241747, Note_on_c, 0, 62, 0
2, 241779, Control_c, 0, 64, 0
2, 241780, Note_on_c, 0, 32, 0
2, 241782, Note_on_c, 0, 59, 0
2, 241788, Note_on_c, 0, 71, 0
2, 241794, Note_on_c, 0, 44, 0
2, 241800, Note_on_c, 0, 45, 72
2, 241800, Note_on_c, 0, 50, 68
2, 241800, Note_on_c, 0, 54, 70
2, 241800, Note_on_c, 0, 57, 68
2, 241800, Note_on_c, 0, 62, 69
2, 241800, Note_on_c, 0, 66, 78
2, 241801, Note_on_c, 0, 33, 75
2, 241805, Note_on_c, 0, 69, 80
2, 241805, Note_on_c, 0, 74, 76
2, 241805, Note_on_c, 0, 78, 74
2, 241816, Note_on_c, 0, 81, 77
2, 241888, Note_on_c, 0, 86, 0
2, 242033, Note_on_c, 0, 33, 0
2, 242037, Note_on_c, 0, 45, 0
2, 242038, Note_on_c, 0, 57, 0
2, 242042, Note_on_c, 0, 54, 0
2, 242042, Note_on_c, 0, 50, 0
2, 242090, Note_on_c, 0, 45, 69
2, 242091, Note_on_c, 0, 50, 68
2, 242092, Note_on_c, 0, 33, 70
2, 242094, Note_on_c, 0, 57, 68
2, 242100, Note_on_c, 0, 54, 67
2, 242106, Control_c, 0, 64, 127
2, 242151, Note_on_c, 0, 66, 0
2, 242169, Note_on_c, 0, 78, 0
2, 242209, Note_on_c, 0, 66, 78
2, 242217, Note_on_c, 0, 78, 85
2, 242269, Note_on_c, 0, 57, 0
2, 242269, Note_on_c, 0, 54, 0
2, 242274, Note_on_c, 0, 50, 0
2, 242274, Note_on_c, 0, 45, 0
2, 242285, Note_on_c, 0, 69, 0
2, 242297, Note_on_c, 0, 81, 0
2, 242334, Note_on_c, 0, 45, 70
2, 242334, Note_on_c, 0, 57, 70
2, 242335, Note_on_c, 0, 50, 71
2, 242335, Note_on_c, 0, 54, 69
2, 242489, Note_on_c, 0, 50, 0
2, 242491, Note_on_c, 0, 54, 0
2, 242491, Note_on_c, 0, 45, 0
2, 242491, Note_on_c, 0, 33, 0
2, 242500, Note_on_c, 0, 57, 0
2, 242508, Note_on_c, 0, 74, 0
2, 242520, Note_on_c, 0, 62, 0
2, 242549, Note_on_c, 0, 33, 77
2, 242553, Note_on_c, 0, 45, 77
2, 242553, Note_on_c, 0, 50, 78
2, 242558, Note_on_c, 0, 57, 80
2, 242559, Note_on_c, 0, 54, 78
2, 242564, Note_on_c, 0, 78, 0
2, 242575, Note_on_c, 0, 74, 82
2, 242581, Note_on_c, 0, 66, 0
2, 242592, Note_on_c, 0, 62, 79
2, 242729, Note_on_c, 0, 50, 0
2, 242735, Note_on_c, 0, 33, 0
2, 242740, Note_on_c, 0, 57, 0
2, 242744, Note_on_c, 0, 45, 0
2, 242746, Note_on_c, 0, 54, 0
2, 242800, Note_on_c, 0, 33, 79
2, 242804, Note_on_c, 0, 45, 81
2, 242804, Note_on_c, 0, 50, 78
2, 242804, Note_on_c, 0, 54, 81
2, 242809, Note_on_c, 0, 57, 78
2, 242979, Note_on_c, 0, 66, 83
2, 242985, Note_on_c, 0, 78, 89
2, 243008, Note_on_c, 0, 33, 0
2, 243012, Note_on_c, 0, 45, 0
2, 243013, Note_on_c, 0, 74, 0
2, 243013, Note_on_c, 0, 62, 0
2, 243020, Note_on_c, 0, 54, 0
2, 243020, Note_on_c, 0, 50, 0
2, 243020, Note_on_c, 0, 57, 0
2, 243071, Note_on_c, 0, 45, 80
2, 243072, Note_on_c, 0, 33, 84
2, 243076, Note_on_c, 0, 50, 80
2, 243076, Note_on_c, 0, 54, 80
2, 243081, Note_on_c, 0, 57, 79
2, 243143, Control_c, 0, 64, 0
2, 243385, Note_on_c, 0, 33, 0
2, 243387, Note_on_c, 0, 45, 0
2, 243393, Note_on_c, 0, 50, 0
2, 243394, Note_on_c, 0, 83, 80
2, 243398, Note_on_c, 0, 54, 0
2, 243399, Note_on_c, 0, 57, 0
2, 243400, Note_on_c, 0, 59, 84
2, 243405, Note_on_c, 0, 71, 73
2, 243467, Note_on_c, 0, 66, 0
2, 243474, Note_on_c, 0, 78, 0
2, 243503, Control_c, 0, 67, 127
2, 243630, Control_c, 0, 64, 127
2, 243685, Note_on_c, 0, 33, 61
2, 243689, Note_on_c, 0, 55, 63
2, 243689, Note_on_c, 0, 61, 64
2, 243689, Note_on_c, 0, 64, 62
2, 243690, Note_on_c, 0, 45, 62
2, 243815, Note_on_c, 0, 33, 0
2, 243816, Note_on_c, 0, 45, 0
2, 243819, Note_on_c, 0, 61, 0
2, 243824, Note_on_c, 0, 55, 0
2, 243824, Note_on_c, 0, 64, 0
2, 243875, Note_on_c, 0, 45, 64
2, 243876, Note_on_c, 0, 33, 60
2, 243880, Note_on_c, 0, 55, 60
2, 243885, Note_on_c, 0, 61, 62
2, 243885, Note_on_c, 0, 64, 63
2, 243993, Note_on_c, 0, 33, 0
2, 244004, Note_on_c, 0, 61, 0
2, 244008, Note_on_c, 0, 45, 0
2, 244014, Note_on_c, 0, 64, 0
2, 244042, Note_on_c, 0, 55, 0
2, 244128, Note_on_c, 0, 45, 61
2, 244129, Note_on_c, 0, 33, 64
2, 244134, Note_on_c, 0, 55, 58
2, 244134, Note_on_c, 0, 61, 59
2, 244134, Note_on_c, 0, 64, 58
2, 244265, Control_c, 0, 64, 0
2, 244347, Note_on_c, 0, 33, 0
2, 244373, Note_on_c, 0, 45, 0
2, 244373, Note_on_c, 0, 61, 0
2, 244381, Note_on_c, 0, 55, 0
2, 244382, Note_on_c, 0, 64, 0
2, 244428, Note_on_c, 0, 33, 63
2, 244433, Note_on_c, 0, 45, 57
2, 244438, Note_on_c, 0, 64, 59
2, 244439, Note_on_c, 0, 55, 56
2, 244439, Note_on_c, 0, 61, 59
2, 244515, Control_c, 0, 67, 0
2, 244679, Note_on_c, 0, 59, 0
2, 244684, Note_on_c, 0, 57, 62
2, 244690, Note_on_c, 0, 69, 63
2, 244701, Note_on_c, 0, 81, 69
2, 244721, Note_on_c, 0, 61, 0
2, 244754, Note_on_c, 0, 45, 0
2, 244754, Note_on_c, 0, 55, 0
2, 244755, Note_on_c, 0, 64, 0
2, 244759, Note_on_c, 0, 71, 0
2, 244759, Note_on_c, 0, 83, 0
2, 244779, Control_c, 0, 64, 127
2, 244810, Note_on_c, 0, 45, 63
2, 244815, Note_on_c, 0, 55, 56
2, 244815, Note_on_c, 0, 61, 56
2, 244815, Note_on_c, 0, 64, 60
2, 245089, Control_c, 0, 64, 0
2, 245097, Note_on_c, 0, 57, 0
2, 245170, Note_on_c, 0, 55, 0
2, 245187, Note_on_c, 0, 45, 0
2, 245191, Note_on_c, 0, 69, 0
2, 245191, Note_on_c, 0, 81, 0
2, 245191, Note_on_c, 0, 33, 0
2, 245247, Note_on_c, 0, 57, 61
2, 245247, Note_on_c, 0, 69, 68
2, 245256, Note_on_c, 0, 81, 74
2, 245272, Note_on_c, 0, 61, 0
2, 245272, Note_on_c, 0, 64, 0
2, 245553, Note_on_c, 0, 54, 62
2, 245553, Note_on_c, 0, 62, 58
2, 245560, Note_on_c, 0, 38, 59
2, 245564, Note_on_c, 0, 45, 60
2, 245565, Note_on_c, 0, 50, 57
2, 245673, Control_c, 0, 64, 127
2, 245697, Note_on_c, 0, 38, 0
2, 245702, Note_on_c, 0, 45, 0
2, 245703, Note_on_c, 0, 50, 0
2, 245703, Note_on_c, 0, 62, 0
2, 245708, Note_on_c, 0, 54, 0
2, 245760, Note_on_c, 0, 38, 58
2, 245764, Note_on_c, 0, 45, 59
2, 245764, Note_on_c, 0, 50, 60
2, 245764, Note_on_c, 0, 62, 60
2, 245770, Note_on_c, 0, 54, 57
2, 245907, Note_on_c, 0, 45, 0
2, 245908, Note_on_c, 0, 38, 0
2, 245908, Note_on_c, 0, 50, 0
2, 245920, Note_on_c, 0, 54, 0
2, 245922, Note_on_c, 0, 62, 0
2, 245983, Note_on_c, 0, 45, 59
2, 245984, Note_on_c, 0, 50, 58
2, 245984, Note_on_c, 0, 62, 56
2, 245985, Note_on_c, 0, 38, 62
2, 245985, Note_on_c, 0, 54, 63
2, 246118, Note_on_c, 0, 38, 0
2, 246121, Note_on_c, 0, 50, 0
2, 246122, Note_on_c, 0, 54, 0
2, 246127, Note_on_c, 0, 45, 0
2, 246133, Note_on_c, 0, 62, 0
2, 246184, Note_on_c, 0, 45, 60
2, 246184, Note_on_c, 0, 50, 62
2, 246185, Note_on_c, 0, 38, 61
2, 246190, Note_on_c, 0, 54, 56
2, 246190, Note_on_c, 0, 62, 60
2, 246314, Note_on_c, 0, 50, 0
2, 246318, Note_on_c, 0, 38, 0
2, 246325, Note_on_c, 0, 62, 0
2, 246326, Note_on_c, 0, 45, 0
2, 246327, Note_on_c, 0, 54, 0
2, 246331, Control_c, 0, 64, 0
2, 246386, Note_on_c, 0, 45, 58
2, 246390, Note_on_c, 0, 38, 56
2, 246392, Note_on_c, 0, 54, 58
2, 246392, Note_on_c, 0, 62, 63
2, 246393, Note_on_c, 0, 50, 58
2, 246490, Note_on_c, 0, 38, 0
2, 246494, Note_on_c, 0, 54, 0
2, 246496, Note_on_c, 0, 57, 0
2, 246505, Note_on_c, 0, 62, 0
2, 246550, Note_on_c, 0, 81, 0
2, 246558, Note_on_c, 0, 69, 0
2, 246560, Note_on_c, 0, 38, 58
2, 246564, Note_on_c, 0, 62, 58
2, 246570, Note_on_c, 0, 57, 59
2, 246570, Note_on_c, 0, 72, 83
2, 246570, Note_on_c, 0, 78, 84
2, 246570, Note_on_c, 0, 84, 84
2, 246575, Note_on_c, 0, 54, 57
2, 246583, Note_on_c, 0, 38, 0
2, 246592, Note_on_c, 0, 45, 0
2, 246626, Note_on_c, 0, 50, 0
2, 246639, Note_on_c, 0, 38, 61
2, 246683, Note_on_c, 0, 38, 0
2, 246694, Note_on_c, 0, 50, 56
2, 246744, Note_on_c, 0, 50, 0
2, 246744, Note_on_c, 0, 38, 64
2, 246763, Control_c, 0, 64, 127
2, 246795, Note_on_c, 0, 38, 0
2, 246802, Note_on_c, 0, 50, 65
2, 246853, Note_on_c, 0, 50, 0
2, 246860, Note_on_c, 0, 38, 64
2, 246905, Note_on_c, 0, 38, 0
2, 246914, Note_on_c, 0, 50, 68
2, 246937, Note_on_c, 0, 50, 0
2, 246965, Note_on_c, 0, 38, 73
2, 246999, Note_on_c, 0, 50, 72
2, 247006, Note_on_c, 0, 38, 0
2, 247043, Note_on_c, 0, 50, 0
2, 247065, Note_on_c, 0, 38, 76
2, 247104, Note_on_c, 0, 38, 0
2, 247108, Note_on_c, 0, 50, 69
2, 247146, Note_on_c, 0, 50, 0
2, 247160, Note_on_c, 0, 38, 71
2, 247192, Note_on_c, 0, 38, 0
2, 247214, Note_on_c, 0, 62, 0
2, 247221, Note_on_c, 0, 50, 77
2, 247224, Note_on_c, 0, 63, 74
2, 247242, Note_on_c, 0, 50, 0
2, 247248, Note_on_c, 0, 38, 76
2, 247286, Note_on_c, 0, 38, 0
2, 247303, Note_on_c, 0, 50, 72
2, 247350, Note_on_c, 0, 38, 74
2, 247371, Note_on_c, 0, 50, 0
2, 247383, Note_on_c, 0, 38, 0
2, 247428, Note_on_c, 0, 50, 70
2, 247453, Note_on_c, 0, 50, 0
2, 247453, Note_on_c, 0, 38, 70
2, 247467, Note_on_c, 0, 78, 0
2, 247485, Note_on_c, 0, 38, 0
2, 247507, Note_on_c, 0, 50, 73
2, 247522, Note_on_c, 0, 84, 0
2, 247523, Note_on_c, 0, 78, 83
2, 247528, Note_on_c, 0, 90, 81
2, 247550, Note_on_c, 0, 72, 0
2, 247557, Note_on_c, 0, 50, 0
2, 247562, Note_on_c, 0, 38, 70
2, 247580, Control_c, 0, 64, 0
2, 247612, Note_on_c, 0, 38, 0
2, 247618, Note_on_c, 0, 50, 69
2, 247656, Note_on_c, 0, 50, 0
2, 247678, Note_on_c, 0, 38, 74
2, 247701, Note_on_c, 0, 38, 0
2, 247722, Note_on_c, 0, 50, 71
2, 247760, Note_on_c, 0, 50, 0
2, 247765, Note_on_c, 0, 38, 69
2, 247786, Note_on_c, 0, 63, 0
2, 247799, Note_on_c, 0, 38, 0
2, 247822, Note_on_c, 0, 50, 70
2, 247827, Note_on_c, 0, 57, 0
2, 247827, Note_on_c, 0, 54, 0
2, 247844, Note_on_c, 0, 63, 62
2, 247855, Note_on_c, 0, 55, 61
2, 247856, Note_on_c, 0, 50, 0
2, 247866, Note_on_c, 0, 59, 62
2, 247868, Note_on_c, 0, 38, 56
2, 247889, Note_on_c, 0, 67, 78
2, 247891, Note_on_c, 0, 38, 0
2, 247899, Note_on_c, 0, 71, 79
2, 247905, Note_on_c, 0, 79, 78
2, 247918, Note_on_c, 0, 50, 56
2, 247927, Note_on_c, 0, 83, 75
2, 247943, Note_on_c, 0, 50, 0
2, 247975, Note_on_c, 0, 38, 72
2, 247982, Note_on_c, 0, 78, 0
2, 247987, Note_on_c, 0, 90, 0
2, 247997, Note_on_c, 0, 38, 0
2, 248019, Note_on_c, 0, 50, 69
2, 248041, Note_on_c, 0, 50, 0
2, 248046, Note_on_c, 0, 38, 73
2, 248086, Note_on_c, 0, 38, 0
2, 248097, Control_c, 0, 64, 127
2, 248101, Note_on_c, 0, 50, 68
2, 248139, Note_on_c, 0, 50, 0
2, 248149, Note_on_c, 0, 38, 69
2, 248194, Note_on_c, 0, 38, 0
2, 248206, Note_on_c, 0, 50, 73
2, 248255, Note_on_c, 0, 50, 0
2, 248258, Note_on_c, 0, 38, 71
2, 248298, Note_on_c, 0, 38, 0
2, 248314, Note_on_c, 0, 50, 74
2, 248320, Control_c, 0, 64, 0
2, 248349, Note_on_c, 0, 50, 0
2, 248360, Note_on_c, 0, 38, 72
2, 248404, Note_on_c, 0, 38, 0
2, 248415, Note_on_c, 0, 50, 75
2, 248463, Note_on_c, 0, 50, 0
2, 248467, Note_on_c, 0, 38, 74
2, 248505, Note_on_c, 0, 38, 0
2, 248522, Note_on_c, 0, 50, 72
2, 248544, Note_on_c, 0, 50, 0
2, 248559, Note_on_c, 0, 63, 0
2, 248561, Note_on_c, 0, 64, 74
2, 248567, Note_on_c, 0, 38, 70
2, 248590, Note_on_c, 0, 38, 0
2, 248611, Note_on_c, 0, 50, 74
2, 248646, Note_on_c, 0, 50, 0
2, 248651, Note_on_c, 0, 38, 63
2, 248673, Note_on_c, 0, 38, 0
2, 248706, Note_on_c, 0, 50, 67
2, 248729, Note_on_c, 0, 50, 0
2, 248768, Note_on_c, 0, 38, 63
2, 248795, Note_on_c, 0, 50, 69
2, 248801, Note_on_c, 0, 38, 0
2, 248818, Note_on_c, 0, 50, 0
2, 248860, Note_on_c, 0, 38, 67
2, 248883, Note_on_c, 0, 38, 0
2, 248893, Note_on_c, 0, 50, 64
2, 248941, Note_on_c, 0, 50, 0
2, 248953, Note_on_c, 0, 38, 63
2, 248978, Note_on_c, 0, 38, 0
2, 249160, Note_on_c, 0, 50, 64
2, 249206, Note_on_c, 0, 38, 77
2, 249210, Note_on_c, 0, 50, 0
2, 249252, Note_on_c, 0, 38, 0
2, 249257, Note_on_c, 0, 64, 0
2, 249262, Note_on_c, 0, 55, 0
2, 249262, Note_on_c, 0, 59, 0
2, 249281, Note_on_c, 0, 50, 76
2, 249300, Note_on_c, 0, 71, 0
2, 249304, Note_on_c, 0, 50, 0
2, 249324, Note_on_c, 0, 38, 75
2, 249326, Note_on_c, 0, 83, 0
2, 249326, Note_on_c, 0, 67, 0
2, 249326, Note_on_c, 0, 59, 77
2, 249332, Note_on_c, 0, 55, 75
2, 249337, Note_on_c, 0, 52, 73
2, 249337, Note_on_c, 0, 64, 79
2, 249360, Note_on_c, 0, 71, 79
2, 249371, Note_on_c, 0, 38, 0
2, 249377, Note_on_c, 0, 50, 79
2, 249382, Note_on_c, 0, 79, 0
2, 249383, Note_on_c, 0, 83, 81
2, 249399, Note_on_c, 0, 50, 0
2, 249432, Note_on_c, 0, 38, 78
2, 249455, Note_on_c, 0, 38, 0
2, 249477, Control_c, 0, 64, 127
2, 249483, Note_on_c, 0, 50, 78
2, 249505, Note_on_c, 0, 50, 0
2, 249528, Note_on_c, 0, 38, 77
2, 249552, Note_on_c, 0, 38, 0
2, 249555, Note_on_c, 0, 50, 75
2, 249581, Note_on_c, 0, 50, 0
2, 249615, Note_on_c, 0, 38, 77
2, 249642, Note_on_c, 0, 38, 0
2, 249661, Note_on_c, 0, 50, 78
2, 249688, Note_on_c, 0, 50, 0
2, 249715, Note_on_c, 0, 38, 75
2, 249738, Note_on_c, 0, 38, 0
2, 249760, Note_on_c, 0, 50, 74
2, 249782, Note_on_c, 0, 50, 0
2, 249817, Note_on_c, 0, 38, 75
2, 249840, Note_on_c, 0, 38, 0
2, 249873, Note_on_c, 0, 50, 75
2, 249896, Note_on_c, 0, 50, 0
2, 249909, Note_on_c, 0, 38, 76
2, 249932, Note_on_c, 0, 38, 0
2, 249988, Note_on_c, 0, 50, 75
2, 250011, Note_on_c, 0, 50, 0
2, 250015, Note_on_c, 0, 61, 76
2, 250016, Note_on_c, 0, 38, 78
2, 250038, Note_on_c, 0, 59, 0
2, 250040, Note_on_c, 0, 38, 0
2, 250074, Note_on_c, 0, 50, 77
2, 250100, Note_on_c, 0, 50, 0
2, 250122, Note_on_c, 0, 38, 74
2, 250148, Note_on_c, 0, 38, 0
2, 250181, Note_on_c, 0, 50, 76
2, 250206, Note_on_c, 0, 50, 0
2, 250223, Note_on_c, 0, 38, 78
2, 250248, Note_on_c, 0, 38, 0
2, 250280, Note_on_c, 0, 50, 71
2, 250305, Note_on_c, 0, 50, 0
2, 250315, Note_on_c, 0, 38, 78
2, 250336, Note_on_c, 0, 88, 83
2, 250337, Note_on_c, 0, 76, 78
2, 250339, Note_on_c, 0, 38, 0
2, 250358, Note_on_c, 0, 83, 0
2, 250372, Control_c, 0, 64, 0
2, 250377, Note_on_c, 0, 50, 78
2, 250400, Note_on_c, 0, 50, 0
2, 250413, Note_on_c, 0, 38, 74
2, 250444, Note_on_c, 0, 38, 0
2, 250485, Note_on_c, 0, 50, 69
2, 250510, Note_on_c, 0, 50, 0
2, 250522, Note_on_c, 0, 38, 69
2, 250544, Note_on_c, 0, 38, 0
2, 250572, Note_on_c, 0, 61, 0
2, 250589, Note_on_c, 0, 50, 74
2, 250607, Note_on_c, 0, 38, 70
2, 250624, Note_on_c, 0, 50, 0
2, 250624, Note_on_c, 0, 64, 0
2, 250626, Note_on_c, 0, 55, 0
2, 250627, Note_on_c, 0, 52, 0
2, 250631, Note_on_c, 0, 38, 0
2, 250634, Note_on_c, 0, 61, 60
2, 250647, Note_on_c, 0, 54, 63
2, 250656, Note_on_c, 0, 57, 58
2, 250663, Note_on_c, 0, 71, 0
2, 250669, Note_on_c, 0, 69, 68
2, 250674, Note_on_c, 0, 81, 68
2, 250686, Note_on_c, 0, 50, 61
2, 250709, Note_on_c, 0, 50, 0
2, 250715, Note_on_c, 0, 38, 56
2, 250748, Note_on_c, 0, 38, 0
2, 250752, Note_on_c, 0, 76, 0
2, 250752, Note_on_c, 0, 88, 0
2, 250776, Note_on_c, 0, 50, 68
2, 250800, Note_on_c, 0, 50, 0
2, 250817, Note_on_c, 0, 38, 62
2, 250840, Note_on_c, 0, 38, 0
2, 250877, Note_on_c, 0, 50, 62
2, 250878, Control_c, 0, 64, 127
2, 250900, Note_on_c, 0, 50, 0
2, 250917, Note_on_c, 0, 38, 62
2, 250940, Note_on_c, 0, 38, 0
2, 250989, Note_on_c, 0, 50, 66
2, 251012, Note_on_c, 0, 50, 0
2, 251023, Note_on_c, 0, 38, 63
2, 251048, Note_on_c, 0, 38, 0
2, 251094, Note_on_c, 0, 50, 63
2, 251112, Note_on_c, 0, 38, 64
2, 251120, Note_on_c, 0, 50, 0
2, 251137, Note_on_c, 0, 38, 0
2, 251195, Note_on_c, 0, 50, 69
2, 251218, Note_on_c, 0, 50, 0
2, 251230, Note_on_c, 0, 38, 67
2, 251253, Note_on_c, 0, 38, 0
2, 251291, Note_on_c, 0, 50, 64
2, 251296, Control_c, 0, 64, 0
2, 251315, Note_on_c, 0, 50, 0
2, 251321, Note_on_c, 0, 38, 65
2, 251348, Note_on_c, 0, 38, 0
2, 251348, Note_on_c, 0, 61, 0
2, 251348, Note_on_c, 0, 62, 68
2, 251396, Note_on_c, 0, 50, 67
2, 251419, Note_on_c, 0, 50, 0
2, 251427, Note_on_c, 0, 38, 67
2, 251450, Note_on_c, 0, 38, 0
2, 251495, Note_on_c, 0, 50, 63
2, 251531, Note_on_c, 0, 50, 0
2, 251533, Note_on_c, 0, 38, 65
2, 251558, Note_on_c, 0, 38, 0
2, 251598, Note_on_c, 0, 50, 65
2, 251635, Note_on_c, 0, 50, 0
2, 251655, Note_on_c, 0, 38, 64
2, 251682, Note_on_c, 0, 38, 0
2, 251725, Note_on_c, 0, 50, 68
2, 251744, Note_on_c, 0, 38, 62
2, 251749, Note_on_c, 0, 50, 0
2, 251780, Note_on_c, 0, 38, 0
2, 251823, Note_on_c, 0, 50, 67
2, 251846, Note_on_c, 0, 50, 0
2, 251858, Note_on_c, 0, 38, 64
2, 251881, Note_on_c, 0, 38, 0
2, 251926, Note_on_c, 0, 50, 66
2, 251948, Note_on_c, 0, 50, 0
2, 251963, Note_on_c, 0, 57, 0
2, 251964, Note_on_c, 0, 62, 0
2, 251964, Note_on_c, 0, 69, 0
2, 251966, Note_on_c, 0, 54, 0
2, 251968, Note_on_c, 0, 38, 65
2, 251969, Note_on_c, 0, 81, 0
2, 252000, Note_on_c, 0, 38, 0
2, 252028, Note_on_c, 0, 54, 62
2, 252028, Note_on_c, 0, 57, 69
2, 252028, Note_on_c, 0, 62, 62
2, 252030, Note_on_c, 0, 50, 67
2, 252034, Note_on_c, 0, 69, 78
2, 252051, Note_on_c, 0, 66, 80
2, 252051, Note_on_c, 0, 81, 80
2, 252053, Note_on_c, 0, 50, 0
2, 252070, Note_on_c, 0, 38, 63
2, 252095, Note_on_c, 0, 38, 0
2, 252117, Note_on_c, 0, 50, 64
2, 252134, Control_c, 0, 64, 127
2, 252141, Note_on_c, 0, 50, 0
2, 252161, Note_on_c, 0, 38, 65
2, 252188, Note_on_c, 0, 38, 0
2, 252205, Note_on_c, 0, 50, 64
2, 252228, Note_on_c, 0, 50, 0
2, 252256, Note_on_c, 0, 38, 69
2, 252279, Note_on_c, 0, 38, 0
2, 252305, Note_on_c, 0, 50, 66
2, 252326, Note_on_c, 0, 50, 0
2, 252354, Note_on_c, 0, 38, 68
2, 252386, Note_on_c, 0, 38, 0
2, 252397, Note_on_c, 0, 50, 63
2, 252419, Note_on_c, 0, 50, 0
2, 252464, Note_on_c, 0, 38, 62
2, 252487, Note_on_c, 0, 38, 0
2, 252508, Note_on_c, 0, 50, 68
2, 252531, Note_on_c, 0, 50, 0
2, 252548, Note_on_c, 0, 38, 64
2, 252573, Note_on_c, 0, 38, 0
2, 252615, Note_on_c, 0, 50, 64
2, 252637, Note_on_c, 0, 50, 0
2, 252658, Note_on_c, 0, 38, 66
2, 252674, Note_on_c, 0, 62, 0
2, 252678, Note_on_c, 0, 63, 68
2, 252680, Note_on_c, 0, 38, 0
2, 252707, Note_on_c, 0, 50, 67
2, 252739, Note_on_c, 0, 50, 0
2, 252741, Note_on_c, 0, 38, 64
2, 252764, Note_on_c, 0, 38, 0
2, 252799, Note_on_c, 0, 50, 64
2, 252821, Note_on_c, 0, 50, 0
2, 252851, Note_on_c, 0, 38, 70
2, 252873, Note_on_c, 0, 38, 0
2, 252906, Note_on_c, 0, 50, 70
2, 252931, Note_on_c, 0, 50, 0
2, 252954, Note_on_c, 0, 38, 69
2, 252981, Note_on_c, 0, 38, 0
2, 252992, Note_on_c, 0, 84, 80
2, 253004, Note_on_c, 0, 72, 79
2, 253005, Note_on_c, 0, 50, 64
2, 253009, Control_c, 0, 64, 0
2, 253039, Note_on_c, 0, 50, 0
2, 253051, Note_on_c, 0, 38, 62
2, 253057, Note_on_c, 0, 81, 0
2, 253070, Note_on_c, 0, 69, 0
2, 253076, Note_on_c, 0, 38, 0
2, 253116, Note_on_c, 0, 50, 68
2, 253140, Note_on_c, 0, 50, 0
2, 253151, Note_on_c, 0, 38, 62
2, 253176, Note_on_c, 0, 38, 0
2, 253211, Note_on_c, 0, 50, 62
2, 253246, Note_on_c, 0, 50, 0
2, 253248, Note_on_c, 0, 38, 62
2, 253280, Note_on_c, 0, 38, 0
2, 253313, Note_on_c, 0, 50, 65
2, 253317, Note_on_c, 0, 54, 0
2, 253317, Note_on_c, 0, 57, 0
2, 253323, Note_on_c, 0, 63, 0
2, 253323, Note_on_c, 0, 66, 0
2, 253324, Note_on_c, 0, 64, 62
2, 253329, Note_on_c, 0, 59, 64
2, 253330, Note_on_c, 0, 52, 65
2, 253330, Note_on_c, 0, 68, 73
2, 253330, Note_on_c, 0, 80, 73
2, 253343, Note_on_c, 0, 38, 62
2, 253344, Note_on_c, 0, 50, 0
2, 253374, Note_on_c, 0, 38, 0
2, 253405, Note_on_c, 0, 84, 0
2, 253409, Note_on_c, 0, 72, 0
2, 253413, Note_on_c, 0, 50, 62
2, 253437, Note_on_c, 0, 38, 62
2, 253438, Note_on_c, 0, 50, 0
2, 253460, Note_on_c, 0, 38, 0
2, 253495, Note_on_c, 0, 50, 62
2, 253520, Note_on_c, 0, 50, 0
2, 253562, Note_on_c, 0, 38, 64
2, 253568, Control_c, 0, 64, 127
2, 253587, Note_on_c, 0, 38, 0
2, 253625, Note_on_c, 0, 50, 67
2, 253649, Note_on_c, 0, 50, 0
2, 253668, Note_on_c, 0, 38, 66
2, 253692, Note_on_c, 0, 38, 0
2, 253732, Note_on_c, 0, 50, 62
2, 253754, Note_on_c, 0, 50, 0
2, 253755, Note_on_c, 0, 38, 69
2, 253783, Note_on_c, 0, 38, 0
2, 253829, Note_on_c, 0, 50, 68
2, 253857, Note_on_c, 0, 50, 0
2, 253864, Note_on_c, 0, 38, 62
2, 253889, Note_on_c, 0, 38, 0
2, 253917, Note_on_c, 0, 50, 66
2, 253946, Note_on_c, 0, 50, 0
2, 253966, Note_on_c, 0, 38, 64
2, 253991, Note_on_c, 0, 38, 0
2, 254000, Note_on_c, 0, 56, 68
2, 254025, Note_on_c, 0, 50, 65
2, 254050, Note_on_c, 0, 50, 0
2, 254067, Note_on_c, 0, 38, 65
2, 254093, Note_on_c, 0, 38, 0
2, 254125, Note_on_c, 0, 50, 66
2, 254149, Note_on_c, 0, 50, 0
2, 254166, Note_on_c, 0, 38, 70
2, 254190, Note_on_c, 0, 38, 0
2, 254229, Note_on_c, 0, 50, 69
2, 254261, Note_on_c, 0, 50, 0
2, 254276, Control_c, 0, 64, 0
2, 254287, Note_on_c, 0, 38, 68
2, 254291, Note_on_c, 0, 83, 74
2, 254292, Note_on_c, 0, 80, 0
2, 254303, Note_on_c, 0, 71, 69
2, 254311, Note_on_c, 0, 38, 0
2, 254328, Note_on_c, 0, 50, 64
2, 254362, Note_on_c, 0, 50, 0
2, 254376, Note_on_c, 0, 38, 65
2, 254402, Note_on_c, 0, 38, 0
2, 254466, Note_on_c, 0, 50, 67
2, 254490, Note_on_c, 0, 50, 0
2, 254496, Note_on_c, 0, 38, 68
2, 254531, Note_on_c, 0, 38, 0
2, 254545, Note_on_c, 0, 56, 0
2, 254555, Note_on_c, 0, 50, 64
2, 254568, Note_on_c, 0, 59, 0
2, 254570, Note_on_c, 0, 52, 0
2, 254577, Note_on_c, 0, 50, 0
2, 254583, Note_on_c, 0, 56, 65
2, 254588, Note_on_c, 0, 64, 0
2, 254597, Note_on_c, 0, 38, 65
2, 254619, Note_on_c, 0, 38, 0
2, 254623, Note_on_c, 0, 68, 0
2, 254624, Note_on_c, 0, 56, 0
2, 254629, Note_on_c, 0, 67, 67
2, 254630, Note_on_c, 0, 55, 64
2, 254630, Note_on_c, 0, 59, 69
2, 254630, Note_on_c, 0, 79, 63
2, 254636, Note_on_c, 0, 52, 63
2, 254641, Note_on_c, 0, 64, 69
2, 254647, Note_on_c, 0, 50, 63
2, 254682, Note_on_c, 0, 50, 0
2, 254696, Note_on_c, 0, 38, 63
2, 254697, Note_on_c, 0, 83, 0
2, 254698, Note_on_c, 0, 71, 0
2, 254724, Note_on_c, 0, 38, 0
2, 254752, Note_on_c, 0, 50, 68
2, 254783, Note_on_c, 0, 50, 0
2, 254794, Note_on_c, 0, 38, 62
2, 254818, Note_on_c, 0, 38, 0
2, 254859, Note_on_c, 0, 50, 62
2, 254884, Note_on_c, 0, 50, 0
2, 254904, Note_on_c, 0, 38, 64
2, 254904, Control_c, 0, 64, 127
2, 254928, Note_on_c, 0, 38, 0
2, 254961, Note_on_c, 0, 50, 62
2, 254986, Note_on_c, 0, 50, 0
2, 255016, Note_on_c, 0, 38, 65
2, 255041, Note_on_c, 0, 38, 0
2, 255056, Note_on_c, 0, 50, 65
2, 255080, Note_on_c, 0, 50, 0
2, 255097, Note_on_c, 0, 38, 67
2, 255132, Note_on_c, 0, 38, 0
2, 255160, Note_on_c, 0, 50, 62
2, 255187, Note_on_c, 0, 50, 0
2, 255214, Note_on_c, 0, 38, 62
2, 255239, Note_on_c, 0, 38, 0
2, 255253, Note_on_c, 0, 50, 63
2, 255293, Note_on_c, 0, 50, 0
2, 255319, Note_on_c, 0, 38, 65
2, 255326, Note_on_c, 0, 59, 0
2, 255328, Note_on_c, 0, 61, 62
2, 255345, Note_on_c, 0, 38, 0
2, 255364, Note_on_c, 0, 50, 63
2, 255389, Note_on_c, 0, 50, 0
2, 255420, Note_on_c, 0, 38, 63
2, 255447, Note_on_c, 0, 38, 0
2, 255480, Note_on_c, 0, 50, 68
2, 255516, Note_on_c, 0, 50, 0
2, 255530, Note_on_c, 0, 38, 64
2, 255554, Note_on_c, 0, 38, 0
2, 255576, Note_on_c, 0, 50, 63
2, 255601, Note_on_c, 0, 50, 0
2, 255619, Note_on_c, 0, 38, 69
2, 255643, Note_on_c, 0, 38, 0
2, 255662, Note_on_c, 0, 82, 70
2, 255664, Control_c, 0, 64, 0
2, 255668, Note_on_c, 0, 70, 74
2, 255687, Note_on_c, 0, 50, 63
2, 255708, Note_on_c, 0, 50, 0
2, 255721, Note_on_c, 0, 38, 62
2, 255725, Note_on_c, 0, 67, 0
2, 255729, Note_on_c, 0, 79, 0
2, 255746, Note_on_c, 0, 38, 0
2, 255799, Note_on_c, 0, 50, 63
2, 255818, Note_on_c, 0, 38, 64
2, 255829, Note_on_c, 0, 50, 0
2, 255845, Note_on_c, 0, 38, 0
2, 255887, Note_on_c, 0, 50, 63
2, 255921, Note_on_c, 0, 50, 0
2, 255935, Note_on_c, 0, 38, 66
2, 255969, Note_on_c, 0, 38, 0
2, 255974, Note_on_c, 0, 52, 0
2, 255979, Note_on_c, 0, 61, 0
2, 255979, Note_on_c, 0, 64, 0
2, 255983, Note_on_c, 0, 55, 0
2, 255984, Note_on_c, 0, 62, 65
2, 255985, Note_on_c, 0, 66, 64
2, 255989, Note_on_c, 0, 78, 64
2, 255990, Note_on_c, 0, 50, 65
2, 255990, Note_on_c, 0, 57, 63
2, 256025, Note_on_c, 0, 50, 0
2, 256026, Note_on_c, 0, 38, 62
2, 256058, Note_on_c, 0, 38, 0
2, 256074, Note_on_c, 0, 70, 0
2, 256082, Note_on_c, 0, 82, 0
2, 256093, Note_on_c, 0, 50, 67
2, 256126, Note_on_c, 0, 50, 0
2, 256139, Control_c, 0, 64, 127
2, 256143, Note_on_c, 0, 38, 62
2, 256169, Note_on_c, 0, 38, 0
2, 256198, Note_on_c, 0, 50, 64
2, 256220, Note_on_c, 0, 50, 0
2, 256233, Note_on_c, 0, 38, 66
2, 256264, Note_on_c, 0, 38, 0
2, 256293, Note_on_c, 0, 50, 69
2, 256315, Note_on_c, 0, 50, 0
2, 256332, Note_on_c, 0, 38, 63
2, 256356, Note_on_c, 0, 38, 0
2, 256389, Note_on_c, 0, 50, 68
2, 256414, Note_on_c, 0, 50, 0
2, 256418, Note_on_c, 0, 38, 64
2, 256442, Note_on_c, 0, 38, 0
2, 256488, Note_on_c, 0, 50, 69
2, 256513, Note_on_c, 0, 50, 0
2, 256522, Note_on_c, 0, 38, 69
2, 256547, Note_on_c, 0, 38, 0
2, 256592, Note_on_c, 0, 50, 67
2, 256616, Note_on_c, 0, 50, 0
2, 256620, Note_on_c, 0, 38, 66
2, 256656, Note_on_c, 0, 38, 0
2, 256680, Note_on_c, 0, 50, 68
2, 256683, Note_on_c, 0, 54, 68
2, 256712, Note_on_c, 0, 50, 0
2, 256727, Note_on_c, 0, 38, 67
2, 256751, Note_on_c, 0, 38, 0
2, 256796, Note_on_c, 0, 50, 67
2, 256822, Note_on_c, 0, 50, 0
2, 256838, Note_on_c, 0, 38, 69
2, 256862, Note_on_c, 0, 38, 0
2, 256866, Control_c, 0, 64, 0
2, 256908, Note_on_c, 0, 50, 63
2, 256939, Note_on_c, 0, 38, 67
2, 256944, Note_on_c, 0, 50, 0
2, 256965, Note_on_c, 0, 38, 0
2, 257013, Note_on_c, 0, 50, 66
2, 257017, Note_on_c, 0, 69, 69
2, 257022, Note_on_c, 0, 81, 66
2, 257043, Note_on_c, 0, 50, 0
2, 257045, Note_on_c, 0, 38, 62
2, 257069, Note_on_c, 0, 38, 0
2, 257088, Note_on_c, 0, 66, 0
2, 257093, Note_on_c, 0, 78, 0
2, 257120, Note_on_c, 0, 50, 66
2, 257139, Note_on_c, 0, 38, 68
2, 257144, Note_on_c, 0, 50, 0
2, 257164, Note_on_c, 0, 38, 0
2, 257166, Control_c, 0, 67, 127
2, 257229, Note_on_c, 0, 50, 66
2, 257240, Note_on_c, 0, 38, 64
2, 257255, Note_on_c, 0, 50, 0
2, 257265, Note_on_c, 0, 38, 0
2, 257328, Note_on_c, 0, 50, 74
2, 257347, Note_on_c, 0, 54, 0
2, 257352, Note_on_c, 0, 62, 0
2, 257352, Note_on_c, 0, 38, 75
2, 257356, Note_on_c, 0, 57, 0
2, 257376, Note_on_c, 0, 38, 0
2, 257382, Note_on_c, 0, 26, 75
2, 257412, Note_on_c, 0, 81, 0
2, 257417, Note_on_c, 0, 26, 0
2, 257417, Note_on_c, 0, 57, 70
2, 257417, Note_on_c, 0, 60, 72
2, 257418, Note_on_c, 0, 69, 0
2, 257418, Note_on_c, 0, 54, 72
2, 257418, Note_on_c, 0, 62, 70
2, 257423, Note_on_c, 0, 72, 81
2, 257458, Note_on_c, 0, 50, 0
2, 257459, Note_on_c, 0, 38, 75
2, 257484, Note_on_c, 0, 38, 0
2, 257506, Note_on_c, 0, 26, 75
2, 257541, Note_on_c, 0, 26, 0
2, 257546, Control_c, 0, 64, 127
2, 257577, Note_on_c, 0, 38, 73
2, 257599, Note_on_c, 0, 26, 74
2, 257600, Note_on_c, 0, 38, 0
2, 257627, Note_on_c, 0, 26, 0
2, 257674, Note_on_c, 0, 38, 71
2, 257700, Note_on_c, 0, 38, 0
2, 257715, Note_on_c, 0, 26, 75
2, 257750, Note_on_c, 0, 26, 0
2, 257770, Note_on_c, 0, 38, 71
2, 257801, Note_on_c, 0, 38, 0
2, 257806, Note_on_c, 0, 26, 73
2, 257845, Note_on_c, 0, 26, 0
2, 257876, Note_on_c, 0, 38, 72
2, 257900, Note_on_c, 0, 38, 0
2, 257930, Note_on_c, 0, 26, 74
2, 257957, Note_on_c, 0, 26, 0
2, 257977, Note_on_c, 0, 38, 71
2, 258013, Note_on_c, 0, 38, 0
2, 258014, Note_on_c, 0, 26, 68
2, 258048, Note_on_c, 0, 26, 0
2, 258069, Note_on_c, 0, 38, 74
2, 258091, Note_on_c, 0, 63, 71
2, 258092, Note_on_c, 0, 38, 0
2, 258101, Note_on_c, 0, 62, 0
2, 258121, Note_on_c, 0, 26, 74
2, 258145, Note_on_c, 0, 26, 0
2, 258179, Note_on_c, 0, 38, 75
2, 258214, Note_on_c, 0, 38, 0
2, 258219, Note_on_c, 0, 26, 74
2, 258253, Note_on_c, 0, 26, 0
2, 258277, Note_on_c, 0, 38, 73
2, 258311, Note_on_c, 0, 38, 0
2, 258312, Note_on_c, 0, 26, 76
2, 258347, Note_on_c, 0, 26, 0
2, 258389, Note_on_c, 0, 38, 73
2, 258394, Note_on_c, 0, 78, 81
2, 258411, Note_on_c, 0, 66, 87
2, 258413, Note_on_c, 0, 38, 0
2, 258425, Note_on_c, 0, 26, 72
2, 258458, Note_on_c, 0, 26, 0
2, 258465, Note_on_c, 0, 38, 73
2, 258480, Note_on_c, 0, 72, 0
2, 258480, Control_c, 0, 64, 0
2, 258495, Note_on_c, 0, 38, 0
2, 258528, Note_on_c, 0, 26, 69
2, 258557, Note_on_c, 0, 26, 0
2, 258581, Note_on_c, 0, 38, 72
2, 258605, Note_on_c, 0, 38, 0
2, 258635, Note_on_c, 0, 26, 72
2, 258670, Note_on_c, 0, 26, 0
2, 258681, Note_on_c, 0, 63, 0
2, 258686, Note_on_c, 0, 38, 79
2, 258713, Note_on_c, 0, 38, 0
2, 258722, Note_on_c, 0, 26, 59
2, 258732, Note_on_c, 0, 54, 0
2, 258738, Note_on_c, 0, 57, 0
2, 258739, Note_on_c, 0, 60, 0
2, 258744, Note_on_c, 0, 71, 80
2, 258745, Note_on_c, 0, 63, 59
2, 258756, Note_on_c, 0, 26, 0
2, 258763, Note_on_c, 0, 59, 60
2, 258768, Note_on_c, 0, 55, 60
2, 258788, Note_on_c, 0, 38, 59
2, 258813, Note_on_c, 0, 38, 0
2, 258816, Note_on_c, 0, 66, 0
2, 258825, Note_on_c, 0, 78, 0
2, 258831, Note_on_c, 0, 26, 74
2, 258855, Control_c, 0, 64, 127
2, 258865, Note_on_c, 0, 26, 0
2, 258902, Note_on_c, 0, 38, 73
2, 258936, Note_on_c, 0, 38, 0
2, 258952, Note_on_c, 0, 26, 74
2, 258991, Note_on_c, 0, 26, 0
2, 259010, Note_on_c, 0, 38, 75
2, 259044, Note_on_c, 0, 38, 0
2, 259054, Note_on_c, 0, 26, 74
2, 259080, Note_on_c, 0, 26, 0
2, 259130, Note_on_c, 0, 38, 70
2, 259154, Note_on_c, 0, 26, 71
2, 259159, Note_on_c, 0, 38, 0
2, 259185, Note_on_c, 0, 26, 0
2, 259214, Control_c, 0, 64, 0
2, 259227, Note_on_c, 0, 38, 75
2, 259253, Note_on_c, 0, 38, 0
2, 259258, Note_on_c, 0, 26, 75
2, 259299, Note_on_c, 0, 26, 0
2, 259334, Note_on_c, 0, 38, 69
2, 259365, Note_on_c, 0, 38, 0
2, 259383, Note_on_c, 0, 26, 72
2, 259416, Note_on_c, 0, 26, 0
2, 259442, Note_on_c, 0, 38, 75
2, 259467, Note_on_c, 0, 38, 0
2, 259494, Note_on_c, 0, 63, 0
2, 259494, Note_on_c, 0, 64, 72
2, 259495, Note_on_c, 0, 26, 69
2, 259519, Note_on_c, 0, 26, 0
2, 259536, Note_on_c, 0, 38, 75
2, 259560, Note_on_c, 0, 38, 0
2, 259594, Note_on_c, 0, 26, 68
2, 259629, Note_on_c, 0, 26, 0
2, 259648, Note_on_c, 0, 38, 62
2, 259670, Note_on_c, 0, 38, 0
2, 259694, Note_on_c, 0, 26, 64
2, 259719, Note_on_c, 0, 26, 0
2, 259734, Note_on_c, 0, 38, 67
2, 259760, Note_on_c, 0, 38, 0
2, 259797, Note_on_c, 0, 26, 63
2, 259825, Note_on_c, 0, 26, 0
2, 259849, Note_on_c, 0, 38, 66
2, 259874, Note_on_c, 0, 38, 0
2, 259891, Note_on_c, 0, 26, 66
2, 259913, Note_on_c, 0, 26, 0
2, 259943, Note_on_c, 0, 38, 69
2, 259964, Note_on_c, 0, 38, 0
2, 259994, Note_on_c, 0, 26, 62
2, 260019, Note_on_c, 0, 26, 0
2, 260049, Note_on_c, 0, 38, 71
2, 260088, Note_on_c, 0, 38, 0
2, 260098, Note_on_c, 0, 59, 0
2, 260107, Note_on_c, 0, 64, 0
2, 260111, Note_on_c, 0, 55, 0
2, 260116, Note_on_c, 0, 71, 0
2, 260118, Note_on_c, 0, 26, 69
2, 260149, Note_on_c, 0, 26, 0
2, 260159, Note_on_c, 0, 38, 72
2, 260167, Note_on_c, 0, 55, 71
2, 260173, Note_on_c, 0, 59, 69
2, 260173, Note_on_c, 0, 71, 75
2, 260174, Note_on_c, 0, 52, 72
2, 260174, Note_on_c, 0, 64, 74
2, 260181, Note_on_c, 0, 38, 0
2, 260202, Note_on_c, 0, 26, 72
2, 260237, Note_on_c, 0, 26, 0
2, 260237, Control_c, 0, 64, 127
2, 260253, Note_on_c, 0, 38, 70
2, 260281, Note_on_c, 0, 38, 0
2, 260301, Note_on_c, 0, 26, 74
2, 260335, Note_on_c, 0, 26, 0
2, 260359, Note_on_c, 0, 38, 68
2, 260384, Note_on_c, 0, 38, 0
2, 260405, Note_on_c, 0, 26, 72
2, 260439, Note_on_c, 0, 26, 0
2, 260464, Note_on_c, 0, 38, 68
2, 260488, Note_on_c, 0, 38, 0
2, 260523, Note_on_c, 0, 26, 74
2, 260557, Note_on_c, 0, 26, 0
2, 260563, Note_on_c, 0, 38, 71
2, 260596, Note_on_c, 0, 38, 0
2, 260625, Control_c, 0, 67, 0
2, 260637, Note_on_c, 0, 26, 69
2, 260665, Control_c, 0, 67, 127
2, 260667, Note_on_c, 0, 26, 0
2, 260673, Note_on_c, 0, 38, 70
2, 260700, Note_on_c, 0, 38, 0
2, 260736, Note_on_c, 0, 26, 73
2, 260770, Note_on_c, 0, 26, 0
2, 260789, Note_on_c, 0, 38, 73
2, 260816, Note_on_c, 0, 38, 0
2, 260831, Note_on_c, 0, 26, 73
2, 260855, Note_on_c, 0, 26, 0
2, 260890, Note_on_c, 0, 38, 69
2, 260899, Note_on_c, 0, 61, 68
2, 260918, Note_on_c, 0, 38, 0
2, 260929, Note_on_c, 0, 26, 73
2, 260961, Note_on_c, 0, 26, 0
2, 260993, Note_on_c, 0, 38, 73
2, 261026, Note_on_c, 0, 38, 0
2, 261027, Note_on_c, 0, 26, 73
2, 261061, Note_on_c, 0, 26, 0
2, 261090, Note_on_c, 0, 38, 71
2, 261134, Note_on_c, 0, 38, 0
2, 261141, Note_on_c, 0, 26, 74
2, 261152, Note_on_c, 0, 64, 0
2, 261175, Note_on_c, 0, 26, 0
2, 261189, Note_on_c, 0, 38, 68
2, 261213, Note_on_c, 0, 38, 0
2, 261213, Note_on_c, 0, 64, 64
2, 261258, Note_on_c, 0, 76, 81
2, 261259, Note_on_c, 0, 26, 66
2, 261269, Control_c, 0, 64, 0
2, 261280, Note_on_c, 0, 71, 0
2, 261293, Note_on_c, 0, 26, 0
2, 261307, Note_on_c, 0, 38, 63
2, 261331, Note_on_c, 0, 38, 0
2, 261367, Note_on_c, 0, 26, 68
2, 261401, Note_on_c, 0, 26, 0
2, 261408, Note_on_c, 0, 38, 62
2, 261441, Note_on_c, 0, 38, 0
2, 261467, Note_on_c, 0, 26, 67
2, 261501, Note_on_c, 0, 26, 0
2, 261505, Note_on_c, 0, 52, 0
2, 261507, Note_on_c, 0, 55, 0
2, 261512, Note_on_c, 0, 54, 69
2, 261514, Note_on_c, 0, 61, 0
2, 261518, Note_on_c, 0, 59, 0
2, 261519, Note_on_c, 0, 38, 74
2, 261534, Note_on_c, 0, 57, 75
2, 261552, Note_on_c, 0, 38, 0
2, 261558, Note_on_c, 0, 69, 75
2, 261565, Note_on_c, 0, 26, 77
2, 261581, Note_on_c, 0, 61, 76
2, 261593, Note_on_c, 0, 26, 0
2, 261617, Note_on_c, 0, 38, 67
2, 261643, Note_on_c, 0, 64, 0
2, 261649, Note_on_c, 0, 76, 0
2, 261649, Note_on_c, 0, 38, 0
2, 261664, Note_on_c, 0, 26, 64
2, 261697, Note_on_c, 0, 26, 0
2, 261723, Note_on_c, 0, 38, 62
2, 261758, Note_on_c, 0, 38, 0
2, 261771, Note_on_c, 0, 26, 66
2, 261807, Note_on_c, 0, 26, 0
2, 261820, Note_on_c, 0, 38, 62
2, 261857, Note_on_c, 0, 38, 0
2, 261884, Note_on_c, 0, 26, 69
2, 261912, Note_on_c, 0, 26, 0
2, 261944, Note_on_c, 0, 38, 62
2, 261968, Note_on_c, 0, 38, 0
2, 262005, Note_on_c, 0, 26, 62
2, 262033, Note_on_c, 0, 26, 0
2, 262034, Note_on_c, 0, 38, 64
2, 262069, Note_on_c, 0, 38, 0
2, 262112, Note_on_c, 0, 26, 63
2, 262138, Note_on_c, 0, 26, 0
2, 262153, Note_on_c, 0, 38, 64
2, 262182, Note_on_c, 0, 38, 0
2, 262216, Note_on_c, 0, 26, 64
2, 262225, Note_on_c, 0, 62, 67
2, 262232, Note_on_c, 0, 61, 0
2, 262251, Note_on_c, 0, 26, 0
2, 262276, Note_on_c, 0, 38, 64
2, 262301, Note_on_c, 0, 38, 0
2, 262313, Note_on_c, 0, 26, 68
2, 262344, Note_on_c, 0, 26, 0
2, 262381, Note_on_c, 0, 38, 66
2, 262401, Control_c, 0, 64, 127
2, 262407, Note_on_c, 0, 38, 0
2, 262423, Note_on_c, 0, 26, 68
2, 262459, Note_on_c, 0, 26, 0
2, 262483, Note_on_c, 0, 38, 63
2, 262509, Note_on_c, 0, 38, 0
2, 262525, Note_on_c, 0, 26, 67
2, 262560, Note_on_c, 0, 26, 0
2, 262580, Note_on_c, 0, 38, 62
2, 262581, Control_c, 0, 64, 0
2, 262616, Note_on_c, 0, 38, 0
2, 262634, Note_on_c, 0, 26, 64
2, 262671, Note_on_c, 0, 26, 0
2, 262690, Note_on_c, 0, 38, 63
2, 262720, Note_on_c, 0, 38, 0
2, 262750, Note_on_c, 0, 26, 62
2, 262777, Note_on_c, 0, 26, 0
2, 262805, Note_on_c, 0, 38, 72
2, 262830, Note_on_c, 0, 38, 0
2, 262855, Note_on_c, 0, 26, 68
2, 262859, Note_on_c, 0, 54, 0
2, 262884, Note_on_c, 0, 69, 0
2, 262886, Note_on_c, 0, 57, 0
2, 262886, Note_on_c, 0, 26, 0
2, 262890, Note_on_c, 0, 62, 0
2, 262913, Note_on_c, 0, 38, 71
2, 262938, Note_on_c, 0, 38, 0
2, 262954, Note_on_c, 0, 54, 72
2, 262954, Note_on_c, 0, 57, 74
2, 262954, Note_on_c, 0, 62, 70
2, 262954, Note_on_c, 0, 69, 75
2, 262968, Note_on_c, 0, 26, 70
2, 263002, Note_on_c, 0, 26, 0
2, 263023, Note_on_c, 0, 38, 73
2, 263058, Note_on_c, 0, 38, 0
2, 263079, Note_on_c, 0, 26, 68
2, 263111, Note_on_c, 0, 26, 0
2, 263134, Note_on_c, 0, 38, 68
2, 263158, Note_on_c, 0, 38, 0
2, 263182, Note_on_c, 0, 26, 70
2, 263201, Control_c, 0, 64, 127
2, 263217, Note_on_c, 0, 26, 0
2, 263243, Note_on_c, 0, 38, 68
2, 263268, Note_on_c, 0, 38, 0
2, 263304, Note_on_c, 0, 26, 69
2, 263338, Note_on_c, 0, 26, 0
2, 263345, Note_on_c, 0, 38, 73
2, 263378, Note_on_c, 0, 38, 0
2, 263399, Note_on_c, 0, 26, 69
2, 263433, Note_on_c, 0, 26, 0
2, 263451, Note_on_c, 0, 38, 74
2, 263479, Note_on_c, 0, 38, 0
2, 263510, Note_on_c, 0, 26, 71
2, 263540, Note_on_c, 0, 26, 0
2, 263540, Note_on_c, 0, 38, 72
2, 263573, Note_on_c, 0, 38, 0
2, 263603, Note_on_c, 0, 26, 75
2, 263616, Note_on_c, 0, 62, 0
2, 263626, Note_on_c, 0, 63, 68
2, 263637, Note_on_c, 0, 26, 0
2, 263643, Note_on_c, 0, 38, 73
2, 263677, Note_on_c, 0, 38, 0
2, 263701, Note_on_c, 0, 26, 69
2, 263735, Note_on_c, 0, 26, 0
2, 263755, Note_on_c, 0, 38, 75
2, 263780, Note_on_c, 0, 38, 0
2, 263814, Note_on_c, 0, 26, 70
2, 263847, Note_on_c, 0, 26, 0
2, 263856, Note_on_c, 0, 38, 71
2, 263880, Note_on_c, 0, 38, 0
2, 263916, Note_on_c, 0, 26, 73
2, 263931, Note_on_c, 0, 69, 0
2, 263943, Note_on_c, 0, 72, 81
2, 263948, Note_on_c, 0, 26, 0
2, 263956, Note_on_c, 0, 38, 73
2, 263982, Note_on_c, 0, 38, 0
2, 264015, Note_on_c, 0, 26, 75
2, 264030, Control_c, 0, 64, 0
2, 264059, Note_on_c, 0, 26, 0
2, 264075, Note_on_c, 0, 38, 70
2, 264099, Note_on_c, 0, 38, 0
2, 264118, Note_on_c, 0, 26, 77
2, 264163, Note_on_c, 0, 26, 0
2, 264174, Note_on_c, 0, 38, 63
2, 264199, Note_on_c, 0, 38, 0
2, 264220, Note_on_c, 0, 26, 63
2, 264251, Control_c, 0, 67, 0
2, 264255, Note_on_c, 0, 26, 0
2, 264268, Note_on_c, 0, 38, 69
2, 264291, Note_on_c, 0, 38, 0
2, 264301, Control_c, 0, 67, 127
2, 264308, Note_on_c, 0, 54, 0
2, 264308, Note_on_c, 0, 59, 69
2, 264309, Note_on_c, 0, 63, 0
2, 264309, Note_on_c, 0, 52, 66
2, 264313, Note_on_c, 0, 57, 0
2, 264313, Note_on_c, 0, 64, 67
2, 264313, Note_on_c, 0, 68, 73
2, 264339, Note_on_c, 0, 26, 63
2, 264365, Note_on_c, 0, 26, 0
2, 264377, Note_on_c, 0, 72, 0
2, 264381, Note_on_c, 0, 38, 67
2, 264405, Note_on_c, 0, 38, 0
2, 264439, Note_on_c, 0, 26, 66
2, 264463, Note_on_c, 0, 26, 0
2, 264481, Note_on_c, 0, 38, 62
2, 264520, Note_on_c, 0, 38, 0
2, 264538, Note_on_c, 0, 26, 67
2, 264574, Note_on_c, 0, 26, 0
2, 264584, Note_on_c, 0, 38, 65
2, 264618, Note_on_c, 0, 38, 0
2, 264631, Note_on_c, 0, 26, 66
2, 264674, Note_on_c, 0, 26, 0
2, 264699, Note_on_c, 0, 38, 62
2, 264723, Note_on_c, 0, 38, 0
2, 264729, Note_on_c, 0, 26, 63
2, 264762, Note_on_c, 0, 26, 0
2, 264783, Note_on_c, 0, 38, 64
2, 264808, Note_on_c, 0, 38, 0
2, 264842, Note_on_c, 0, 26, 69
2, 264870, Note_on_c, 0, 26, 0
2, 264904, Note_on_c, 0, 38, 62
2, 264929, Note_on_c, 0, 38, 0
2, 264942, Note_on_c, 0, 26, 62
2, 264975, Note_on_c, 0, 26, 0
2, 265006, Control_c, 0, 64, 127
2, 265010, Note_on_c, 0, 38, 65
2, 265029, Note_on_c, 0, 56, 62
2, 265034, Note_on_c, 0, 38, 0
2, 265045, Note_on_c, 0, 26, 66
2, 265074, Note_on_c, 0, 26, 0
2, 265104, Note_on_c, 0, 38, 69
2, 265137, Note_on_c, 0, 38, 0
2, 265143, Note_on_c, 0, 26, 62
2, 265168, Note_on_c, 0, 26, 0
2, 265200, Note_on_c, 0, 38, 67
2, 265224, Note_on_c, 0, 38, 0
2, 265248, Note_on_c, 0, 26, 65
2, 265283, Note_on_c, 0, 26, 0
2, 265301, Note_on_c, 0, 38, 63
2, 265334, Note_on_c, 0, 68, 0
2, 265338, Note_on_c, 0, 38, 0
2, 265342, Note_on_c, 0, 71, 74
2, 265356, Note_on_c, 0, 26, 68
2, 265390, Note_on_c, 0, 26, 0
2, 265413, Control_c, 0, 64, 0
2, 265415, Note_on_c, 0, 38, 64
2, 265440, Note_on_c, 0, 38, 0
2, 265443, Note_on_c, 0, 26, 66
2, 265482, Note_on_c, 0, 26, 0
2, 265524, Note_on_c, 0, 38, 68
2, 265548, Note_on_c, 0, 38, 0
2, 265573, Note_on_c, 0, 26, 69
2, 265604, Note_on_c, 0, 26, 0
2, 265615, Note_on_c, 0, 59, 0
2, 265621, Note_on_c, 0, 52, 0
2, 265630, Note_on_c, 0, 38, 70
2, 265656, Note_on_c, 0, 38, 0
2, 265676, Note_on_c, 0, 56, 0
2, 265678, Note_on_c, 0, 26, 68
2, 265686, Note_on_c, 0, 64, 0
2, 265686, Note_on_c, 0, 55, 75
2, 265686, Note_on_c, 0, 59, 71
2, 265687, Note_on_c, 0, 52, 69
2, 265692, Note_on_c, 0, 67, 67
2, 265712, Note_on_c, 0, 26, 0
2, 265719, Note_on_c, 0, 38, 70
2, 265743, Note_on_c, 0, 38, 0
2, 265753, Note_on_c, 0, 71, 0
2, 265774, Note_on_c, 0, 26, 70
2, 265809, Note_on_c, 0, 26, 0
2, 265829, Note_on_c, 0, 38, 73
2, 265854, Note_on_c, 0, 38, 0
2, 265879, Note_on_c, 0, 26, 71
2, 265905, Note_on_c, 0, 26, 0
2, 265944, Note_on_c, 0, 38, 68
2, 265968, Note_on_c, 0, 38, 0
2, 265981, Note_on_c, 0, 26, 72
2, 266015, Note_on_c, 0, 26, 0
2, 266045, Note_on_c, 0, 38, 71
2, 266069, Note_on_c, 0, 38, 0
2, 266081, Note_on_c, 0, 26, 68
2, 266110, Note_on_c, 0, 26, 0
2, 266153, Note_on_c, 0, 38, 75
2, 266159, Control_c, 0, 64, 127
2, 266180, Note_on_c, 0, 38, 0
2, 266184, Note_on_c, 0, 26, 69
2, 266219, Note_on_c, 0, 26, 0
2, 266238, Note_on_c, 0, 38, 68
2, 266276, Note_on_c, 0, 38, 0
2, 266314, Note_on_c, 0, 26, 74
2, 266342, Note_on_c, 0, 26, 0
2, 266371, Note_on_c, 0, 38, 62
2, 266397, Note_on_c, 0, 38, 0
2, 266400, Note_on_c, 0, 26, 57
2, 266435, Note_on_c, 0, 26, 0
2, 266459, Note_on_c, 0, 59, 0
2, 266474, Note_on_c, 0, 38, 59
2, 266495, Note_on_c, 0, 61, 58
2, 266504, Note_on_c, 0, 38, 0
2, 266514, Note_on_c, 0, 26, 60
2, 266548, Note_on_c, 0, 26, 0
2, 266573, Note_on_c, 0, 38, 59
2, 266607, Note_on_c, 0, 38, 0
2, 266627, Note_on_c, 0, 26, 63
2, 266655, Control_c, 0, 67, 0
2, 266664, Note_on_c, 0, 26, 0
2, 266683, Note_on_c, 0, 38, 62
2, 266706, Control_c, 0, 67, 127
2, 266719, Note_on_c, 0, 38, 0
2, 266733, Note_on_c, 0, 26, 62
2, 266761, Note_on_c, 0, 70, 70
2, 266770, Note_on_c, 0, 26, 0
2, 266782, Note_on_c, 0, 38, 64
2, 266808, Note_on_c, 0, 38, 0
2, 266831, Note_on_c, 0, 67, 0
2, 266832, Control_c, 0, 64, 0
2, 266832, Note_on_c, 0, 26, 62
2, 266867, Note_on_c, 0, 26, 0
2, 266914, Note_on_c, 0, 38, 58
2, 266938, Note_on_c, 0, 26, 62
2, 266943, Note_on_c, 0, 38, 0
2, 267004, Note_on_c, 0, 38, 62
2, 267039, Note_on_c, 0, 38, 0
2, 267083, Note_on_c, 0, 26, 0
2, 267117, Note_on_c, 0, 38, 65
2, 267143, Note_on_c, 0, 52, 0
2, 267146, Note_on_c, 0, 61, 0
2, 267148, Note_on_c, 0, 55, 0
2, 267150, Note_on_c, 0, 50, 66
2, 267150, Note_on_c, 0, 62, 66
2, 267150, Note_on_c, 0, 66, 62
2, 267155, Note_on_c, 0, 57, 67
2, 267161, Note_on_c, 0, 45, 67
2, 267248, Note_on_c, 0, 70, 0
2, 267500, Control_c, 0, 64, 127
2, 267829, Note_on_c, 0, 54, 67
2, 268151, Note_on_c, 0, 66, 0
2, 268164, Note_on_c, 0, 69, 76
2, 268200, Control_c, 0, 67, 0
2, 268224, Control_c, 0, 64, 0
2, 268637, Control_c, 0, 67, 127
2, 268648, Note_on_c, 0, 38, 0
2, 268666, Note_on_c, 0, 62, 0
2, 268852, Note_on_c, 0, 50, 0
2, 268907, Note_on_c, 0, 45, 0
2, 268913, Note_on_c, 0, 54, 0
2, 268918, Note_on_c, 0, 57, 0
2, 268918, Note_on_c, 0, 56, 68
2, 268918, Note_on_c, 0, 62, 70
2, 268919, Note_on_c, 0, 38, 71
2, 268919, Note_on_c, 0, 46, 69
2, 268919, Note_on_c, 0, 50, 74
2, 268951, Note_on_c, 0, 65, 70
2, 269033, Note_on_c, 0, 69, 0
2, 269257, Control_c, 0, 64, 127
2, 269650, Note_on_c, 0, 56, 0
2, 269650, Note_on_c, 0, 50, 0
2, 269650, Note_on_c, 0, 53, 66
2, 270028, Note_on_c, 0, 70, 75
2, 270084, Note_on_c, 0, 65, 0
2, 270120, Control_c, 0, 64, 0
2, 270154, Note_on_c, 0, 38, 0
2, 270192, Note_on_c, 0, 62, 0
2, 270395, Note_on_c, 0, 46, 0
2, 270408, Note_on_c, 0, 45, 65
2, 270409, Note_on_c, 0, 38, 66
2, 270433, Note_on_c, 0, 53, 0
2, 270433, Note_on_c, 0, 66, 69
2, 270438, Note_on_c, 0, 50, 64
2, 270438, Note_on_c, 0, 57, 67
2, 270439, Note_on_c, 0, 62, 63
2, 270533, Note_on_c, 0, 70, 0
2, 270710, Control_c, 0, 64, 127
2, 271115, Note_on_c, 0, 50, 0
2, 271128, Note_on_c, 0, 54, 68
2, 271499, Note_on_c, 0, 66, 0
2, 271504, Note_on_c, 0, 38, 0
2, 271504, Note_on_c, 0, 69, 70
2, 271600, Control_c, 0, 64, 0
2, 271608, Note_on_c, 0, 62, 0
2, 271858, Note_on_c, 0, 38, 68
2, 271859, Note_on_c, 0, 45, 0
2, 271872, Note_on_c, 0, 54, 0
2, 271879, Note_on_c, 0, 57, 0
2, 271882, Note_on_c, 0, 56, 65
2, 271882, Note_on_c, 0, 62, 63
2, 271882, Note_on_c, 0, 65, 69
2, 271883, Note_on_c, 0, 46, 64
2, 271883, Note_on_c, 0, 50, 69
2, 271995, Note_on_c, 0, 69, 0
2, 272369, Control_c, 0, 64, 127
2, 272710, Note_on_c, 0, 53, 56
2, 272735, Note_on_c, 0, 50, 0
2, 273046, Control_c, 0, 64, 0
2, 273055, Note_on_c, 0, 65, 0
2, 273064, Note_on_c, 0, 70, 64
2, 273212, Note_on_c, 0, 38, 0
2, 273216, Note_on_c, 0, 62, 0
2, 273453, Note_on_c, 0, 46, 0
2, 273456, Note_on_c, 0, 53, 0
2, 273462, Note_on_c, 0, 38, 63
2, 273467, Note_on_c, 0, 56, 0
2, 273467, Note_on_c, 0, 62, 65
2, 273467, Note_on_c, 0, 66, 62
2, 273473, Note_on_c, 0, 50, 67
2, 273474, Note_on_c, 0, 45, 68
2, 273478, Note_on_c, 0, 57, 69
2, 273562, Note_on_c, 0, 70, 0
2, 273632, Control_c, 0, 64, 127
2, 274207, Note_on_c, 0, 54, 58
2, 274232, Note_on_c, 0, 50, 0
2, 274667, Control_c, 0, 64, 0
2, 274691, Note_on_c, 0, 66, 0
2, 274704, Note_on_c, 0, 69, 67
2, 274717, Note_on_c, 0, 38, 0
2, 274788, Note_on_c, 0, 45, 0
2, 274825, Note_on_c, 0, 62, 0
2, 274999, Note_on_c, 0, 57, 0
2, 275055, Note_on_c, 0, 38, 62
2, 275060, Note_on_c, 0, 54, 0
2, 275060, Note_on_c, 0, 45, 62
2, 275060, Note_on_c, 0, 50, 57
2, 275060, Note_on_c, 0, 57, 58
2, 275060, Note_on_c, 0, 62, 59
2, 275061, Note_on_c, 0, 66, 69
2, 275130, Note_on_c, 0, 69, 0
2, 275422, Control_c, 0, 64, 127
2, 275888, Note_on_c, 0, 50, 0
2, 275889, Note_on_c, 0, 54, 61
2, 276368, Note_on_c, 0, 69, 62
2, 276439, Note_on_c, 0, 66, 0
2, 276447, Note_on_c, 0, 38, 0
2, 276459, Note_on_c, 0, 57, 0
2, 276520, Note_on_c, 0, 45, 0
2, 276533, Note_on_c, 0, 62, 0
2, 276782, Note_on_c, 0, 54, 0
2, 276816, Note_on_c, 0, 45, 63
2, 276816, Note_on_c, 0, 57, 57
2, 276816, Note_on_c, 0, 62, 63
2, 276816, Note_on_c, 0, 50, 56
2, 276817, Note_on_c, 0, 38, 56
2, 276821, Note_on_c, 0, 66, 56
2, 276885, Note_on_c, 0, 69, 0
2, 277293, Control_c, 0, 64, 0
2, 277661, Note_on_c, 0, 54, 60
2, 277692, Note_on_c, 0, 50, 0
2, 278114, Note_on_c, 0, 69, 59
2, 278304, Note_on_c, 0, 66, 0
2, 278919, Note_on_c, 0, 69, 0
2, 278928, Note_on_c, 0, 38, 0
2, 278928, Note_on_c, 0, 45, 0
2, 278928, Note_on_c, 0, 54, 0
2, 278934, Note_on_c, 0, 57, 0
2, 278940, Note_on_c, 0, 62, 0
2, 279065, Note_on_c, 0, 78, 70
2, 279621, Note_on_c, 0, 76, 79
2, 279698, Note_on_c, 0, 78, 0
2, 280258, Note_on_c, 0, 74, 86
2, 280330, Note_on_c, 0, 76, 0
2, 280780, Note_on_c, 0, 26, 68
2, 280795, Note_on_c, 0, 45, 67
2, 280795, Note_on_c, 0, 50, 72
2, 280800, Note_on_c, 0, 54, 67
2, 280813, Note_on_c, 0, 26, 0
2, 280823, Note_on_c, 0, 62, 70
2, 280823, Note_on_c, 0, 71, 90
2, 280824, Note_on_c, 0, 57, 71
2, 280859, Note_on_c, 0, 38, 74
2, 280885, Note_on_c, 0, 38, 0
2, 280894, Note_on_c, 0, 26, 69
2, 280921, Note_on_c, 0, 26, 0
2, 280943, Note_on_c, 0, 74, 0
2, 280970, Note_on_c, 0, 38, 69
2, 280993, Note_on_c, 0, 38, 0
2, 280998, Note_on_c, 0, 26, 71
2, 281033, Note_on_c, 0, 26, 0
2, 281062, Note_on_c, 0, 38, 73
2, 281085, Note_on_c, 0, 38, 0
2, 281102, Note_on_c, 0, 26, 71
2, 281125, Control_c, 0, 64, 127
2, 281134, Note_on_c, 0, 26, 0
2, 281175, Note_on_c, 0, 38, 72
2, 281199, Note_on_c, 0, 38, 0
2, 281199, Note_on_c, 0, 26, 70
2, 281227, Note_on_c, 0, 26, 0
2, 281261, Note_on_c, 0, 38, 74
2, 281290, Note_on_c, 0, 38, 0
2, 281305, Note_on_c, 0, 26, 73
2, 281340, Note_on_c, 0, 26, 0
2, 281364, Note_on_c, 0, 38, 72
2, 281381, Note_on_c, 0, 69, 76
2, 281392, Note_on_c, 0, 38, 0
2, 281398, Note_on_c, 0, 26, 72
2, 281432, Note_on_c, 0, 26, 0
2, 281461, Note_on_c, 0, 71, 0
2, 281470, Note_on_c, 0, 38, 74
2, 281494, Note_on_c, 0, 38, 0
2, 281504, Note_on_c, 0, 26, 74
2, 281541, Note_on_c, 0, 26, 0
2, 281572, Note_on_c, 0, 38, 73
2, 281596, Note_on_c, 0, 38, 0
2, 281609, Note_on_c, 0, 26, 71
2, 281643, Note_on_c, 0, 26, 0
2, 281676, Note_on_c, 0, 38, 67
2, 281693, Control_c, 0, 64, 0
2, 281711, Note_on_c, 0, 38, 0
2, 281719, Note_on_c, 0, 26, 68
2, 281745, Note_on_c, 0, 26, 0
2, 281791, Note_on_c, 0, 38, 72
2, 281815, Note_on_c, 0, 38, 0
2, 281828, Note_on_c, 0, 26, 71
2, 281856, Note_on_c, 0, 26, 0
2, 281877, Note_on_c, 0, 38, 69
2, 281903, Note_on_c, 0, 38, 0
2, 281939, Note_on_c, 0, 26, 68
2, 281942, Note_on_c, 0, 66, 82
2, 281982, Note_on_c, 0, 26, 0
2, 282008, Note_on_c, 0, 38, 75
2, 282034, Note_on_c, 0, 38, 0
2, 282040, Note_on_c, 0, 26, 71
2, 282048, Note_on_c, 0, 69, 0
2, 282076, Note_on_c, 0, 26, 0
2, 282121, Note_on_c, 0, 38, 73
2, 282145, Note_on_c, 0, 26, 73
2, 282156, Note_on_c, 0, 38, 0
2, 282183, Control_c, 0, 64, 127
2, 282188, Note_on_c, 0, 26, 0
2, 282230, Note_on_c, 0, 38, 72
2, 282254, Note_on_c, 0, 38, 0
2, 282254, Note_on_c, 0, 26, 71
2, 282288, Note_on_c, 0, 26, 0
2, 282320, Note_on_c, 0, 38, 75
2, 282343, Note_on_c, 0, 38, 0
2, 282357, Note_on_c, 0, 26, 75
2, 282385, Note_on_c, 0, 26, 0
2, 282440, Note_on_c, 0, 38, 73
2, 282464, Note_on_c, 0, 38, 0
2, 282477, Note_on_c, 0, 26, 70
2, 282511, Note_on_c, 0, 26, 0
2, 282553, Note_on_c, 0, 38, 68
2, 282566, Note_on_c, 0, 26, 73
2, 282579, Note_on_c, 0, 38, 0
2, 282601, Note_on_c, 0, 26, 0
2, 282606, Note_on_c, 0, 69, 85
2, 282650, Note_on_c, 0, 38, 77
2, 282676, Note_on_c, 0, 38, 0
2, 282679, Note_on_c, 0, 66, 0
2, 282679, Note_on_c, 0, 26, 78
2, 282714, Note_on_c, 0, 26, 0
2, 282749, Note_on_c, 0, 38, 81
2, 282780, Note_on_c, 0, 26, 77
2, 282784, Note_on_c, 0, 38, 0
2, 282816, Note_on_c, 0, 26, 0
2, 282852, Control_c, 0, 64, 0
2, 282861, Note_on_c, 0, 38, 80
2, 282888, Note_on_c, 0, 38, 0
2, 282897, Note_on_c, 0, 26, 81
2, 282901, Note_on_c, 0, 54, 0
2, 282901, Note_on_c, 0, 53, 81
2, 282932, Note_on_c, 0, 26, 0
2, 282954, Note_on_c, 0, 62, 0
2, 282968, Note_on_c, 0, 38, 86
2, 282989, Note_on_c, 0, 57, 0
2, 282989, Note_on_c, 0, 56, 81
2, 282993, Note_on_c, 0, 38, 0
2, 282993, Note_on_c, 0, 26, 86
2, 283019, Note_on_c, 0, 26, 0
2, 283025, Note_on_c, 0, 50, 0
2, 283057, Note_on_c, 0, 59, 82
2, 283072, Note_on_c, 0, 38, 83
2, 283076, Note_on_c, 0, 45, 0
2, 283076, Note_on_c, 0, 44, 85
2, 283093, Note_on_c, 0, 50, 82
2, 283096, Note_on_c, 0, 38, 0
2, 283108, Note_on_c, 0, 26, 80
2, 283144, Note_on_c, 0, 26, 0
2, 283168, Note_on_c, 0, 38, 80
2, 283192, Note_on_c, 0, 38, 0
2, 283210, Note_on_c, 0, 26, 78
2, 283224, Note_on_c, 0, 62, 78
2, 283243, Note_on_c, 0, 26, 0
2, 283265, Note_on_c, 0, 74, 87
2, 283278, Note_on_c, 0, 38, 74
2, 283297, Note_on_c, 0, 69, 0
2, 283302, Note_on_c, 0, 38, 0
2, 283313, Note_on_c, 0, 26, 78
2, 283339, Note_on_c, 0, 26, 0
2, 283379, Note_on_c, 0, 38, 79
2, 283403, Note_on_c, 0, 38, 0
2, 283416, Note_on_c, 0, 26, 80
2, 283450, Note_on_c, 0, 26, 0
2, 283487, Note_on_c, 0, 38, 81
2, 283512, Note_on_c, 0, 38, 0
2, 283525, Note_on_c, 0, 26, 74
2, 283531, Control_c, 0, 64, 127
2, 283560, Note_on_c, 0, 26, 0
2, 283592, Note_on_c, 0, 38, 60
2, 283628, Note_on_c, 0, 38, 0
2, 283646, Note_on_c, 0, 26, 71
2, 283680, Note_on_c, 0, 26, 0
2, 283715, Note_on_c, 0, 38, 70
2, 283737, Note_on_c, 0, 38, 0
2, 283737, Note_on_c, 0, 26, 74
2, 283765, Note_on_c, 0, 26, 0
2, 283800, Note_on_c, 0, 38, 72
2, 283824, Note_on_c, 0, 38, 0
2, 283848, Note_on_c, 0, 26, 75
2, 283890, Note_on_c, 0, 26, 0
2, 283921, Note_on_c, 0, 38, 75
2, 283959, Note_on_c, 0, 38, 0
2, 283965, Note_on_c, 0, 26, 74
2, 283999, Note_on_c, 0, 26, 0
2, 284026, Note_on_c, 0, 38, 68
2, 284062, Note_on_c, 0, 38, 0
2, 284069, Note_on_c, 0, 26, 74
2, 284112, Note_on_c, 0, 26, 0
2, 284144, Note_on_c, 0, 38, 69
2, 284167, Note_on_c, 0, 38, 0
2, 284180, Note_on_c, 0, 26, 67
2, 284214, Note_on_c, 0, 26, 0
2, 284246, Note_on_c, 0, 38, 67
2, 284269, Note_on_c, 0, 38, 0
2, 284288, Note_on_c, 0, 26, 68
2, 284318, Note_on_c, 0, 26, 0
2, 284340, Note_on_c, 0, 38, 64
2, 284364, Note_on_c, 0, 38, 0
2, 284388, Note_on_c, 0, 26, 63
2, 284421, Note_on_c, 0, 26, 0
2, 284447, Note_on_c, 0, 38, 63
2, 284471, Note_on_c, 0, 38, 0
2, 284507, Note_on_c, 0, 26, 67
2, 284530, Note_on_c, 0, 26, 0
2, 284553, Note_on_c, 0, 38, 68
2, 284577, Note_on_c, 0, 38, 0
2, 284607, Note_on_c, 0, 26, 62
2, 284639, Note_on_c, 0, 26, 0
2, 284663, Note_on_c, 0, 38, 67
2, 284685, Note_on_c, 0, 38, 0
2, 284692, Note_on_c, 0, 26, 69
2, 284715, Note_on_c, 0, 26, 0
2, 284765, Note_on_c, 0, 38, 68
2, 284788, Note_on_c, 0, 38, 0
2, 284801, Note_on_c, 0, 26, 67
2, 284823, Note_on_c, 0, 26, 0
2, 284851, Note_on_c, 0, 38, 62
2, 284872, Note_on_c, 0, 38, 0
2, 284878, Note_on_c, 0, 71, 63
2, 284896, Note_on_c, 0, 26, 66
2, 284930, Note_on_c, 0, 26, 0
2, 284949, Note_on_c, 0, 38, 69
2, 284972, Note_on_c, 0, 38, 0
2, 284995, Note_on_c, 0, 26, 64
2, 285000, Note_on_c, 0, 74, 0
2, 285029, Note_on_c, 0, 26, 0
2, 285037, Note_on_c, 0, 38, 65
2, 285047, Control_c, 0, 64, 0
2, 285066, Note_on_c, 0, 38, 0
2, 285089, Note_on_c, 0, 26, 67
2, 285120, Note_on_c, 0, 26, 0
2, 285147, Note_on_c, 0, 38, 69
2, 285175, Note_on_c, 0, 38, 0
2, 285207, Note_on_c, 0, 26, 65
2, 285234, Note_on_c, 0, 26, 0
2, 285261, Note_on_c, 0, 38, 68
2, 285284, Note_on_c, 0, 38, 0
2, 285318, Note_on_c, 0, 26, 64
2, 285355, Note_on_c, 0, 26, 0
2, 285372, Note_on_c, 0, 38, 62
2, 285408, Note_on_c, 0, 38, 0
2, 285413, Note_on_c, 0, 50, 0
2, 285414, Note_on_c, 0, 26, 62
2, 285423, Note_on_c, 0, 62, 0
2, 285450, Note_on_c, 0, 26, 0
2, 285464, Note_on_c, 0, 59, 0
2, 285472, Note_on_c, 0, 44, 0
2, 285473, Note_on_c, 0, 53, 0
2, 285477, Note_on_c, 0, 56, 0
2, 285480, Note_on_c, 0, 45, 68
2, 285480, Note_on_c, 0, 50, 63
2, 285480, Note_on_c, 0, 54, 65
2, 285480, Note_on_c, 0, 57, 64
2, 285481, Note_on_c, 0, 38, 68
2, 285486, Note_on_c, 0, 62, 64
2, 285486, Note_on_c, 0, 69, 72
2, 285507, Note_on_c, 0, 38, 0
2, 285521, Note_on_c, 0, 26, 64
2, 285555, Note_on_c, 0, 26, 0
2, 285586, Note_on_c, 0, 71, 0
2, 285618, Note_on_c, 0, 38, 68
2, 285639, Note_on_c, 0, 26, 68
2, 285645, Note_on_c, 0, 38, 0
2, 285663, Note_on_c, 0, 26, 0
2, 285728, Note_on_c, 0, 38, 66
2, 285741, Note_on_c, 0, 26, 63
2, 285751, Note_on_c, 0, 38, 0
2, 285773, Note_on_c, 0, 26, 0
2, 285832, Note_on_c, 0, 38, 65
2, 285842, Note_on_c, 0, 26, 64
2, 285848, Control_c, 0, 64, 127
2, 285856, Note_on_c, 0, 38, 0
2, 285869, Note_on_c, 0, 26, 0
2, 285935, Note_on_c, 0, 38, 67
2, 285944, Note_on_c, 0, 26, 67
2, 285959, Note_on_c, 0, 38, 0
2, 285977, Note_on_c, 0, 26, 0
2, 286044, Note_on_c, 0, 38, 64
2, 286055, Note_on_c, 0, 26, 67
2, 286080, Note_on_c, 0, 38, 0
2, 286093, Note_on_c, 0, 26, 0
2, 286143, Note_on_c, 0, 38, 68
2, 286161, Note_on_c, 0, 26, 62
2, 286178, Note_on_c, 0, 38, 0
2, 286203, Note_on_c, 0, 26, 0
2, 286257, Note_on_c, 0, 38, 66
2, 286282, Note_on_c, 0, 26, 65
2, 286285, Note_on_c, 0, 38, 0
2, 286316, Note_on_c, 0, 26, 0
2, 286359, Note_on_c, 0, 38, 65
2, 286378, Note_on_c, 0, 26, 68
2, 286392, Note_on_c, 0, 38, 0
2, 286411, Note_on_c, 0, 26, 0
2, 286447, Note_on_c, 0, 38, 65
2, 286472, Note_on_c, 0, 26, 63
2, 286475, Note_on_c, 0, 38, 0
2, 286502, Note_on_c, 0, 26, 0
2, 286568, Note_on_c, 0, 38, 64
2, 286579, Note_on_c, 0, 26, 68
2, 286592, Note_on_c, 0, 38, 0
2, 286609, Note_on_c, 0, 26, 0
2, 286668, Note_on_c, 0, 38, 62
2, 286680, Note_on_c, 0, 26, 62
2, 286693, Note_on_c, 0, 38, 0
2, 286721, Note_on_c, 0, 26, 0
2, 286781, Note_on_c, 0, 38, 65
2, 286794, Note_on_c, 0, 26, 67
2, 286806, Note_on_c, 0, 38, 0
2, 286829, Note_on_c, 0, 26, 0
2, 286877, Note_on_c, 0, 38, 67
2, 286899, Note_on_c, 0, 38, 0
2, 286912, Note_on_c, 0, 26, 65
2, 286937, Note_on_c, 0, 26, 0
2, 286985, Note_on_c, 0, 38, 63
2, 287015, Note_on_c, 0, 26, 62
2, 287019, Note_on_c, 0, 38, 0
2, 287051, Note_on_c, 0, 26, 0
2, 287082, Note_on_c, 0, 38, 66
2, 287112, Note_on_c, 0, 26, 64
2, 287116, Note_on_c, 0, 38, 0
2, 287139, Note_on_c, 0, 26, 0
2, 287203, Note_on_c, 0, 38, 69
2, 287228, Note_on_c, 0, 26, 69
2, 287232, Note_on_c, 0, 38, 0
2, 287254, Note_on_c, 0, 26, 0
2, 287319, Note_on_c, 0, 38, 68
2, 287330, Note_on_c, 0, 26, 63
2, 287347, Note_on_c, 0, 38, 0
2, 287359, Note_on_c, 0, 26, 0
2, 287417, Note_on_c, 0, 38, 67
2, 287440, Note_on_c, 0, 26, 69
2, 287444, Note_on_c, 0, 38, 0
2, 287473, Note_on_c, 0, 26, 0
2, 287501, Note_on_c, 0, 38, 68
2, 287540, Note_on_c, 0, 38, 0
2, 287551, Note_on_c, 0, 26, 64
2, 287576, Note_on_c, 0, 26, 0
2, 287617, Note_on_c, 0, 38, 65
2, 287645, Note_on_c, 0, 38, 0
2, 287662, Note_on_c, 0, 26, 69
2, 287691, Note_on_c, 0, 26, 0
2, 287743, Note_on_c, 0, 38, 69
2, 287768, Note_on_c, 0, 38, 0
2, 287768, Note_on_c, 0, 26, 64
2, 287804, Note_on_c, 0, 26, 0
2, 287848, Note_on_c, 0, 38, 65
2, 287879, Note_on_c, 0, 26, 67
2, 287883, Note_on_c, 0, 38, 0
2, 287919, Note_on_c, 0, 26, 0
2, 287964, Note_on_c, 0, 38, 64
2, 287987, Note_on_c, 0, 26, 69
2, 287988, Note_on_c, 0, 38, 0
2, 288023, Note_on_c, 0, 26, 0
2, 288026, Note_on_c, 0, 45, 0
2, 288030, Note_on_c, 0, 54, 0
2, 288034, Note_on_c, 0, 50, 0
2, 288035, Note_on_c, 0, 69, 0
2, 288035, Note_on_c, 0, 57, 0
2, 288040, Note_on_c, 0, 62, 0
2, 288075, Note_on_c, 0, 38, 62
2, 288100, Note_on_c, 0, 26, 69
2, 288101, Note_on_c, 0, 38, 0
2, 288136, Note_on_c, 0, 26, 0
2, 288169, Note_on_c, 0, 38, 66
2, 288205, Note_on_c, 0, 38, 0
2, 288206, Note_on_c, 0, 26, 63
2, 288242, Note_on_c, 0, 26, 0
2, 288294, Note_on_c, 0, 78, 62
2, 288295, Note_on_c, 0, 38, 65
2, 288318, Note_on_c, 0, 26, 62
2, 288319, Note_on_c, 0, 38, 0
2, 288353, Note_on_c, 0, 26, 0
2, 288401, Note_on_c, 0, 38, 66
2, 288418, Note_on_c, 0, 26, 64
2, 288426, Note_on_c, 0, 38, 0
2, 288444, Note_on_c, 0, 26, 0
2, 288500, Note_on_c, 0, 38, 63
2, 288511, Note_on_c, 0, 26, 64
2, 288525, Note_on_c, 0, 38, 0
2, 288558, Note_on_c, 0, 26, 0
2, 288595, Note_on_c, 0, 38, 69
2, 288618, Note_on_c, 0, 38, 0
2, 288629, Note_on_c, 0, 26, 69
2, 288664, Note_on_c, 0, 26, 0
2, 288704, Note_on_c, 0, 38, 66
2, 288727, Note_on_c, 0, 38, 0
2, 288733, Note_on_c, 0, 26, 70
2, 288765, Note_on_c, 0, 26, 0
2, 288801, Note_on_c, 0, 38, 70
2, 288824, Note_on_c, 0, 26, 71
2, 288832, Note_on_c, 0, 76, 68
2, 288833, Note_on_c, 0, 38, 0
2, 288855, Note_on_c, 0, 26, 0
2, 288895, Note_on_c, 0, 38, 70
2, 288918, Note_on_c, 0, 38, 0
2, 288930, Note_on_c, 0, 26, 65
2, 288934, Note_on_c, 0, 78, 0
2, 288964, Note_on_c, 0, 26, 0
2, 288982, Note_on_c, 0, 38, 70
2, 289007, Note_on_c, 0, 38, 0
2, 289025, Note_on_c, 0, 26, 66
2, 289058, Note_on_c, 0, 26, 0
2, 289092, Note_on_c, 0, 38, 69
2, 289118, Note_on_c, 0, 38, 0
2, 289140, Note_on_c, 0, 26, 69
2, 289175, Note_on_c, 0, 26, 0
2, 289200, Note_on_c, 0, 38, 67
2, 289224, Note_on_c, 0, 38, 0
2, 289247, Note_on_c, 0, 26, 69
2, 289269, Control_c, 0, 64, 0
2, 289270, Note_on_c, 0, 26, 0
2, 289288, Note_on_c, 0, 38, 69
2, 289311, Note_on_c, 0, 38, 0
2, 289364, Note_on_c, 0, 26, 69
2, 289381, Note_on_c, 0, 74, 75
2, 289392, Note_on_c, 0, 38, 71
2, 289397, Note_on_c, 0, 26, 0
2, 289418, Note_on_c, 0, 38, 0
2, 289450, Note_on_c, 0, 26, 72
2, 289462, Note_on_c, 0, 76, 0
2, 289487, Note_on_c, 0, 26, 0
2, 289505, Note_on_c, 0, 38, 75
2, 289540, Note_on_c, 0, 38, 0
2, 289558, Note_on_c, 0, 26, 74
2, 289587, Note_on_c, 0, 26, 0
2, 289613, Note_on_c, 0, 38, 73
2, 289650, Note_on_c, 0, 38, 0
2, 289650, Note_on_c, 0, 26, 73
2, 289689, Note_on_c, 0, 26, 0
2, 289705, Control_c, 0, 64, 127
2, 289724, Note_on_c, 0, 38, 74
2, 289751, Note_on_c, 0, 38, 0
2, 289767, Note_on_c, 0, 26, 72
2, 289801, Note_on_c, 0, 26, 0
2, 289822, Note_on_c, 0, 38, 74
2, 289855, Note_on_c, 0, 38, 0
2, 289875, Control_c, 0, 67, 0
2, 289876, Note_on_c, 0, 26, 75
2, 289912, Note_on_c, 0, 26, 0
2, 289918, Control_c, 0, 67, 127
2, 289919, Note_on_c, 0, 38, 69
2, 289944, Note_on_c, 0, 38, 0
2, 289992, Note_on_c, 0, 26, 69
2, 290019, Note_on_c, 0, 26, 0
2, 290022, Note_on_c, 0, 38, 74
2, 290032, Note_on_c, 0, 54, 75
2, 290033, Note_on_c, 0, 45, 70
2, 290033, Note_on_c, 0, 50, 72
2, 290038, Note_on_c, 0, 57, 68
2, 290038, Note_on_c, 0, 69, 75
2, 290039, Note_on_c, 0, 62, 71
2, 290039, Note_on_c, 0, 66, 78
2, 290047, Note_on_c, 0, 38, 0
2, 290094, Note_on_c, 0, 26, 72
2, 290111, Note_on_c, 0, 74, 0
2, 290131, Note_on_c, 0, 26, 0
2, 290158, Note_on_c, 0, 38, 72
2, 290184, Note_on_c, 0, 38, 0
2, 290201, Note_on_c, 0, 26, 74
2, 290236, Note_on_c, 0, 26, 0
2, 290242, Note_on_c, 0, 38, 67
2, 290277, Note_on_c, 0, 38, 0
2, 290308, Note_on_c, 0, 26, 67
2, 290342, Note_on_c, 0, 26, 0
2, 290350, Note_on_c, 0, 38, 69
2, 290390, Note_on_c, 0, 38, 0
2, 290407, Note_on_c, 0, 26, 73
2, 290439, Note_on_c, 0, 26, 0
2, 290447, Note_on_c, 0, 38, 68
2, 290478, Note_on_c, 0, 38, 0
2, 290499, Note_on_c, 0, 26, 71
2, 290533, Note_on_c, 0, 26, 0
2, 290556, Note_on_c, 0, 38, 66
2, 290581, Note_on_c, 0, 38, 0
2, 290599, Note_on_c, 0, 26, 72
2, 290626, Note_on_c, 0, 66, 0
2, 290630, Note_on_c, 0, 26, 0
2, 290659, Note_on_c, 0, 38, 65
2, 290685, Note_on_c, 0, 38, 0
2, 290693, Note_on_c, 0, 66, 78
2, 290706, Note_on_c, 0, 26, 72
2, 290739, Note_on_c, 0, 26, 0
2, 290769, Note_on_c, 0, 38, 67
2, 290796, Note_on_c, 0, 69, 0
2, 290804, Note_on_c, 0, 38, 0
2, 290809, Note_on_c, 0, 26, 66
2, 290841, Note_on_c, 0, 26, 0
2, 290862, Note_on_c, 0, 38, 69
2, 290888, Note_on_c, 0, 38, 0
2, 290909, Note_on_c, 0, 26, 64
2, 290943, Note_on_c, 0, 26, 0
2, 290968, Note_on_c, 0, 38, 64
2, 290993, Note_on_c, 0, 38, 0
2, 291005, Note_on_c, 0, 26, 67
2, 291037, Note_on_c, 0, 26, 0
2, 291063, Note_on_c, 0, 38, 64
2, 291097, Note_on_c, 0, 38, 0
2, 291118, Note_on_c, 0, 26, 66
2, 291139, Note_on_c, 0, 62, 0
2, 291153, Note_on_c, 0, 26, 0
2, 291179, Note_on_c, 0, 38, 66
2, 291204, Note_on_c, 0, 38, 0
2, 291230, Note_on_c, 0, 26, 67
2, 291251, Note_on_c, 0, 62, 66
2, 291255, Note_on_c, 0, 26, 0
2, 291282, Note_on_c, 0, 38, 68
2, 291303, Note_on_c, 0, 66, 0
2, 291317, Note_on_c, 0, 38, 0
2, 291337, Note_on_c, 0, 26, 63
2, 291360, Note_on_c, 0, 26, 0
2, 291396, Note_on_c, 0, 38, 67
2, 291423, Note_on_c, 0, 38, 0
2, 291448, Note_on_c, 0, 26, 62
2, 291482, Note_on_c, 0, 26, 0
2, 291504, Note_on_c, 0, 38, 66
2, 291528, Note_on_c, 0, 38, 0
2, 291552, Note_on_c, 0, 26, 69
2, 291587, Note_on_c, 0, 26, 0
2, 291612, Note_on_c, 0, 38, 67
2, 291637, Note_on_c, 0, 38, 0
2, 291649, Note_on_c, 0, 26, 64
2, 291674, Note_on_c, 0, 26, 0
2, 291709, Note_on_c, 0, 38, 69
2, 291735, Note_on_c, 0, 38, 0
2, 291757, Note_on_c, 0, 26, 64
2, 291797, Note_on_c, 0, 26, 0
2, 291815, Note_on_c, 0, 38, 64
2, 291840, Note_on_c, 0, 38, 0
2, 291850, Note_on_c, 0, 26, 65
2, 291885, Note_on_c, 0, 26, 0
2, 291907, Note_on_c, 0, 66, 74
2, 291908, Note_on_c, 0, 38, 63
2, 291931, Note_on_c, 0, 38, 0
2, 291953, Note_on_c, 0, 26, 69
2, 291979, Note_on_c, 0, 26, 0
2, 292006, Note_on_c, 0, 38, 68
2, 292028, Note_on_c, 0, 38, 0
2, 292056, Control_c, 0, 64, 0
2, 292070, Note_on_c, 0, 26, 68
2, 292104, Note_on_c, 0, 26, 0
2, 292112, Note_on_c, 0, 38, 69
2, 292146, Note_on_c, 0, 38, 0
2, 292172, Note_on_c, 0, 26, 66
2, 292205, Note_on_c, 0, 26, 0
2, 292225, Note_on_c, 0, 38, 66
2, 292260, Note_on_c, 0, 38, 0
2, 292278, Note_on_c, 0, 26, 64
2, 292287, Note_on_c, 0, 45, 0
2, 292312, Note_on_c, 0, 26, 0
2, 292330, Note_on_c, 0, 38, 69
2, 292353, Note_on_c, 0, 38, 0
2, 292369, Note_on_c, 0, 26, 66
2, 292404, Note_on_c, 0, 26, 0
2, 292434, Note_on_c, 0, 38, 67
2, 292461, Note_on_c, 0, 38, 0
2, 292477, Note_on_c, 0, 66, 0
2, 292859, Note_on_c, 0, 26, 67
2, 292862, Note_on_c, 0, 66, 73
2, 292866, Note_on_c, 0, 57, 0
2, 292892, Note_on_c, 0, 54, 0
2, 292893, Note_on_c, 0, 50, 0
2, 292896, Note_on_c, 0, 38, 64
2, 292896, Note_on_c, 0, 45, 63
2, 292900, Note_on_c, 0, 52, 64
2, 292903, Note_on_c, 0, 55, 69
2, 292908, Note_on_c, 0, 57, 69
2, 292912, Note_on_c, 0, 66, 0
2, 292912, Note_on_c, 0, 61, 67
2, 292913, Note_on_c, 0, 62, 0
2, 292914, Note_on_c, 0, 26, 0
2, 292914, Note_on_c, 0, 67, 75
2, 292914, Note_on_c, 0, 71, 70
2, 292920, Control_c, 0, 67, 0
2, 292922, Note_on_c, 0, 52, 0
2, 292934, Note_on_c, 0, 45, 0
2, 292938, Note_on_c, 0, 57, 0
2, 292938, Note_on_c, 0, 55, 0
2, 292992, Note_on_c, 0, 55, 67
2, 292993, Note_on_c, 0, 57, 62
2, 292998, Note_on_c, 0, 38, 0
2, 293003, Note_on_c, 0, 45, 65
2, 293021, Note_on_c, 0, 45, 0
2, 293047, Note_on_c, 0, 45, 66
2, 293098, Note_on_c, 0, 52, 66
2, 293110, Control_c, 0, 67, 127
2, 293118, Note_on_c, 0, 26, 63
2, 293157, Note_on_c, 0, 26, 0
2, 293200, Note_on_c, 0, 38, 67
2, 293223, Note_on_c, 0, 26, 65
2, 293224, Note_on_c, 0, 38, 0
2, 293250, Note_on_c, 0, 26, 0
2, 293298, Note_on_c, 0, 38, 63
2, 293329, Note_on_c, 0, 38, 0
2, 293337, Note_on_c, 0, 26, 69
2, 293368, Note_on_c, 0, 26, 0
2, 293389, Note_on_c, 0, 38, 69
2, 293414, Note_on_c, 0, 38, 0
2, 293418, Control_c, 0, 64, 127
2, 293440, Note_on_c, 0, 26, 65
2, 293473, Note_on_c, 0, 26, 0
2, 293495, Note_on_c, 0, 38, 67
2, 293518, Note_on_c, 0, 38, 0
2, 293541, Note_on_c, 0, 26, 62
2, 293575, Note_on_c, 0, 26, 0
2, 293601, Note_on_c, 0, 38, 63
2, 293626, Note_on_c, 0, 38, 0
2, 293669, Note_on_c, 0, 26, 68
2, 293703, Note_on_c, 0, 26, 0
2, 293712, Note_on_c, 0, 38, 64
2, 293736, Note_on_c, 0, 38, 0
2, 293760, Note_on_c, 0, 26, 62
2, 293791, Note_on_c, 0, 26, 0
2, 293818, Note_on_c, 0, 38, 65
2, 293841, Note_on_c, 0, 38, 0
2, 293858, Note_on_c, 0, 26, 62
2, 293893, Note_on_c, 0, 26, 0
2, 293911, Note_on_c, 0, 38, 65
2, 293936, Note_on_c, 0, 38, 0
2, 293953, Note_on_c, 0, 26, 67
2, 293989, Note_on_c, 0, 26, 0
2, 293990, Note_on_c, 0, 38, 67
2, 294024, Note_on_c, 0, 38, 0
2, 294066, Note_on_c, 0, 26, 69
2, 294101, Note_on_c, 0, 26, 0
2, 294101, Note_on_c, 0, 38, 66
2, 294124, Note_on_c, 0, 38, 0
2, 294174, Note_on_c, 0, 26, 67
2, 294209, Note_on_c, 0, 26, 0
2, 294214, Note_on_c, 0, 38, 69
2, 294240, Note_on_c, 0, 38, 0
2, 294273, Note_on_c, 0, 26, 69
2, 294300, Note_on_c, 0, 26, 0
2, 294318, Note_on_c, 0, 38, 63
2, 294340, Note_on_c, 0, 38, 0
2, 294375, Note_on_c, 0, 26, 63
2, 294397, Note_on_c, 0, 26, 0
2, 294414, Note_on_c, 0, 38, 66
2, 294436, Note_on_c, 0, 38, 0
2, 294476, Note_on_c, 0, 26, 66
2, 294502, Note_on_c, 0, 26, 0
2, 294528, Note_on_c, 0, 38, 69
2, 294552, Note_on_c, 0, 38, 0
2, 294575, Note_on_c, 0, 26, 65
2, 294612, Note_on_c, 0, 26, 0
2, 294624, Note_on_c, 0, 38, 63
2, 294649, Note_on_c, 0, 38, 0
2, 294683, Note_on_c, 0, 26, 63
2, 294718, Note_on_c, 0, 26, 0
2, 294723, Note_on_c, 0, 38, 66
2, 294749, Note_on_c, 0, 38, 0
2, 294770, Note_on_c, 0, 26, 69
2, 294805, Note_on_c, 0, 26, 0
2, 294829, Note_on_c, 0, 38, 62
2, 294864, Note_on_c, 0, 38, 0
2, 294886, Note_on_c, 0, 26, 64
2, 294919, Note_on_c, 0, 26, 0
2, 294937, Note_on_c, 0, 38, 67
2, 294961, Note_on_c, 0, 38, 0
2, 294997, Note_on_c, 0, 26, 65
2, 295030, Control_c, 0, 64, 0
2, 295032, Note_on_c, 0, 26, 0
2, 295058, Note_on_c, 0, 38, 64
2, 295082, Note_on_c, 0, 38, 0
2, 295120, Note_on_c, 0, 26, 63
2, 295133, Note_on_c, 0, 45, 0
2, 295139, Note_on_c, 0, 71, 0
2, 295144, Note_on_c, 0, 26, 0
2, 295147, Note_on_c, 0, 69, 61
2, 295148, Note_on_c, 0, 38, 62
2, 295174, Note_on_c, 0, 38, 0
2, 295209, Note_on_c, 0, 26, 69
2, 295243, Note_on_c, 0, 26, 0
2, 295250, Note_on_c, 0, 38, 67
2, 295284, Note_on_c, 0, 38, 0
2, 295319, Note_on_c, 0, 26, 62
2, 295344, Note_on_c, 0, 26, 0
2, 295370, Note_on_c, 0, 38, 69
2, 295394, Note_on_c, 0, 38, 0
2, 295416, Note_on_c, 0, 26, 60
2, 295446, Note_on_c, 0, 26, 0
2, 295450, Note_on_c, 0, 69, 0
2, 295456, Note_on_c, 0, 57, 0
2, 295464, Note_on_c, 0, 38, 56
2, 295488, Note_on_c, 0, 38, 0
2, 295504, Note_on_c, 0, 55, 0
2, 295504, Note_on_c, 0, 52, 0
2, 295505, Note_on_c, 0, 67, 0
2, 295505, Note_on_c, 0, 61, 0
2, 295505, Note_on_c, 0, 45, 56
2, 295511, Note_on_c, 0, 50, 58
2, 295511, Note_on_c, 0, 54, 63
2, 295511, Note_on_c, 0, 57, 58
2, 295511, Note_on_c, 0, 62, 59
2, 295511, Note_on_c, 0, 66, 65
2, 295512, Note_on_c, 0, 69, 62
2, 295516, Note_on_c, 0, 26, 61
2, 295558, Note_on_c, 0, 26, 0
2, 295565, Note_on_c, 0, 38, 61
2, 295589, Note_on_c, 0, 38, 0
2, 295627, Note_on_c, 0, 26, 60
2, 295659, Note_on_c, 0, 26, 0
2, 295683, Note_on_c, 0, 38, 64
2, 295708, Note_on_c, 0, 38, 0
2, 295737, Note_on_c, 0, 26, 62
2, 295761, Note_on_c, 0, 38, 67
2, 295767, Note_on_c, 0, 26, 0
2, 295783, Note_on_c, 0, 38, 0
2, 295797, Note_on_c, 0, 26, 64
2, 295821, Note_on_c, 0, 26, 0
2, 295830, Note_on_c, 0, 38, 68
2, 295881, Note_on_c, 0, 26, 69
2, 295899, Note_on_c, 0, 38, 0
2, 295920, Note_on_c, 0, 26, 0
2, 295950, Note_on_c, 0, 38, 64
2, 295964, Note_on_c, 0, 66, 0
2, 295968, Note_on_c, 0, 26, 64
2, 295974, Control_c, 0, 64, 127
2, 295977, Note_on_c, 0, 38, 0
2, 295990, Note_on_c, 0, 66, 66
2, 296002, Note_on_c, 0, 26, 0
2, 296010, Note_on_c, 0, 38, 63
2, 296035, Note_on_c, 0, 38, 0
2, 296052, Note_on_c, 0, 26, 63
2, 296074, Note_on_c, 0, 38, 67
2, 296086, Note_on_c, 0, 26, 0
2, 296099, Note_on_c, 0, 38, 0
2, 296140, Note_on_c, 0, 26, 67
2, 296180, Note_on_c, 0, 26, 0
2, 296188, Note_on_c, 0, 38, 62
2, 296213, Note_on_c, 0, 38, 0
2, 296264, Note_on_c, 0, 26, 63
2, 296286, Note_on_c, 0, 26, 0
2, 296286, Note_on_c, 0, 38, 69
2, 296308, Note_on_c, 0, 38, 0
2, 296329, Note_on_c, 0, 26, 64
2, 296368, Note_on_c, 0, 26, 0
2, 296381, Note_on_c, 0, 38, 68
2, 296403, Note_on_c, 0, 38, 0
2, 296447, Note_on_c, 0, 26, 68
2, 296476, Note_on_c, 0, 38, 67
2, 296480, Note_on_c, 0, 26, 0
2, 296500, Note_on_c, 0, 38, 0
2, 296551, Note_on_c, 0, 26, 63
2, 296580, Note_on_c, 0, 38, 69
2, 296586, Note_on_c, 0, 26, 0
2, 296603, Note_on_c, 0, 38, 0
2, 296638, Note_on_c, 0, 26, 66
2, 296671, Note_on_c, 0, 26, 0
2, 296696, Note_on_c, 0, 38, 65
2, 296720, Note_on_c, 0, 38, 0
2, 296736, Note_on_c, 0, 26, 65
2, 296769, Note_on_c, 0, 26, 0
2, 296777, Note_on_c, 0, 38, 68
2, 296809, Note_on_c, 0, 38, 0
2, 296851, Note_on_c, 0, 26, 63
2, 296880, Note_on_c, 0, 38, 66
2, 296882, Note_on_c, 0, 26, 0
2, 296904, Note_on_c, 0, 38, 0
2, 296947, Note_on_c, 0, 26, 63
2, 296972, Note_on_c, 0, 26, 0
2, 296976, Note_on_c, 0, 38, 68
2, 297009, Note_on_c, 0, 38, 0
2, 297042, Note_on_c, 0, 26, 67
2, 297067, Note_on_c, 0, 26, 0
2, 297106, Note_on_c, 0, 38, 68
2, 297130, Note_on_c, 0, 38, 0
2, 297155, Note_on_c, 0, 26, 62
2, 297189, Note_on_c, 0, 26, 0
2, 297201, Note_on_c, 0, 38, 69
2, 297228, Note_on_c, 0, 38, 0
2, 297259, Note_on_c, 0, 26, 66
2, 297291, Note_on_c, 0, 26, 0
2, 297299, Note_on_c, 0, 38, 65
2, 297321, Note_on_c, 0, 38, 0
2, 297343, Note_on_c, 0, 26, 63
2, 297382, Note_on_c, 0, 26, 0
2, 297400, Note_on_c, 0, 38, 66
2, 297424, Note_on_c, 0, 38, 0
2, 297441, Note_on_c, 0, 26, 62
2, 297474, Note_on_c, 0, 26, 0
2, 297504, Note_on_c, 0, 38, 66
2, 297529, Note_on_c, 0, 38, 0
2, 297552, Note_on_c, 0, 26, 67
2, 297578, Note_on_c, 0, 26, 0
2, 297604, Note_on_c, 0, 38, 66
2, 297628, Note_on_c, 0, 38, 0
2, 297652, Note_on_c, 0, 26, 62
2, 297678, Control_c, 0, 64, 0
2, 297684, Note_on_c, 0, 26, 0
2, 297693, Note_on_c, 0, 38, 62
2, 297717, Note_on_c, 0, 38, 0
2, 297750, Note_on_c, 0, 26, 64
2, 297779, Note_on_c, 0, 26, 0
2, 297784, Note_on_c, 0, 38, 66
2, 297817, Note_on_c, 0, 38, 0
2, 297855, Note_on_c, 0, 26, 67
2, 297877, Note_on_c, 0, 38, 62
2, 297888, Note_on_c, 0, 26, 0
2, 297901, Note_on_c, 0, 38, 0
2, 297910, Note_on_c, 0, 66, 0
2, 297974, Note_on_c, 0, 38, 64
2, 297982, Note_on_c, 0, 26, 69
2, 298007, Note_on_c, 0, 26, 0
2, 298008, Note_on_c, 0, 38, 0
2, 298080, Note_on_c, 0, 38, 67
2, 298161, Note_on_c, 0, 26, 63
2, 298236, Note_on_c, 0, 57, 0
2, 298241, Note_on_c, 0, 45, 0
2, 298241, Note_on_c, 0, 66, 74
2, 298252, Note_on_c, 0, 69, 0
2, 298258, Note_on_c, 0, 38, 0
2, 298261, Note_on_c, 0, 26, 0
2, 298261, Note_on_c, 0, 54, 0
2, 298271, Note_on_c, 0, 50, 0
2, 298271, Note_on_c, 0, 62, 0
2, 298762, Note_on_c, 0, 64, 73
2, 298805, Control_c, 0, 64, 127
2, 298863, Note_on_c, 0, 66, 0
2, 299027, Control_c, 0, 64, 0
2, 299311, Note_on_c, 0, 62, 68
2, 299369, Note_on_c, 0, 64, 0
2, 299938, Note_on_c, 0, 26, 77
2, 299958, Note_on_c, 0, 45, 57
2, 299959, Note_on_c, 0, 50, 58
2, 299959, Note_on_c, 0, 57, 63
2, 299960, Note_on_c, 0, 54, 58
2, 299972, Note_on_c, 0, 26, 0
2, 300000, Note_on_c, 0, 38, 60
2, 300023, Note_on_c, 0, 38, 0
2, 300040, Note_on_c, 0, 26, 57
2, 300073, Note_on_c, 0, 26, 0
2, 300079, Note_on_c, 0, 62, 0
2, 300104, Note_on_c, 0, 38, 57
2, 300126, Note_on_c, 0, 38, 0
2, 300144, Note_on_c, 0, 26, 58
2, 300178, Note_on_c, 0, 26, 0
2, 300183, Note_on_c, 0, 38, 57
2, 300207, Note_on_c, 0, 38, 0
2, 300236, Note_on_c, 0, 26, 59
2, 300270, Note_on_c, 0, 26, 0
2, 300299, Note_on_c, 0, 38, 62
2, 300307, Control_c, 0, 64, 127
2, 300322, Note_on_c, 0, 26, 59
2, 300323, Note_on_c, 0, 38, 0
2, 300356, Note_on_c, 0, 26, 0
2, 300401, Note_on_c, 0, 38, 63
2, 300425, Note_on_c, 0, 38, 0
2, 300441, Note_on_c, 0, 26, 63
2, 300467, Note_on_c, 0, 26, 0
2, 300498, Note_on_c, 0, 38, 63
2, 300528, Note_on_c, 0, 26, 60
2, 300531, Note_on_c, 0, 38, 0
2, 300562, Note_on_c, 0, 26, 0
2, 300597, Note_on_c, 0, 38, 60
2, 300619, Note_on_c, 0, 38, 0
2, 300641, Note_on_c, 0, 26, 56
2, 300674, Note_on_c, 0, 26, 0
2, 300704, Note_on_c, 0, 38, 62
2, 300732, Note_on_c, 0, 26, 59
2, 300737, Note_on_c, 0, 38, 0
2, 300766, Note_on_c, 0, 26, 0
2, 300791, Note_on_c, 0, 38, 57
2, 300825, Note_on_c, 0, 38, 0
2, 300829, Note_on_c, 0, 26, 62
2, 300862, Note_on_c, 0, 26, 0
2, 300903, Note_on_c, 0, 38, 57
2, 300925, Note_on_c, 0, 38, 0
2, 300936, Note_on_c, 0, 26, 60
2, 300969, Note_on_c, 0, 26, 0
2, 301006, Note_on_c, 0, 38, 60
2, 301030, Note_on_c, 0, 38, 0
2, 301039, Note_on_c, 0, 26, 60
2, 301074, Note_on_c, 0, 26, 0
2, 301105, Note_on_c, 0, 38, 57
2, 301128, Note_on_c, 0, 38, 0
2, 301147, Note_on_c, 0, 26, 58
2, 301175, Note_on_c, 0, 26, 0
2, 301212, Note_on_c, 0, 38, 57
2, 301234, Note_on_c, 0, 26, 56
2, 301235, Note_on_c, 0, 38, 0
2, 301268, Note_on_c, 0, 26, 0
2, 301312, Note_on_c, 0, 38, 57
2, 301345, Note_on_c, 0, 38, 0
2, 301353, Note_on_c, 0, 26, 62
2, 301386, Note_on_c, 0, 26, 0
2, 301403, Note_on_c, 0, 38, 62
2, 301431, Note_on_c, 0, 38, 0
2, 301451, Note_on_c, 0, 26, 62
2, 301488, Note_on_c, 0, 26, 0
2, 301521, Note_on_c, 0, 38, 58
2, 301546, Note_on_c, 0, 38, 0
2, 301558, Note_on_c, 0, 26, 59
2, 301591, Note_on_c, 0, 26, 0
2, 301623, Note_on_c, 0, 38, 57
2, 301648, Note_on_c, 0, 38, 0
2, 301665, Note_on_c, 0, 26, 57
2, 301699, Note_on_c, 0, 26, 0
2, 301718, Note_on_c, 0, 38, 61
2, 301740, Control_c, 0, 64, 0
2, 301747, Note_on_c, 0, 38, 0
2, 301767, Note_on_c, 0, 26, 59
2, 301800, Note_on_c, 0, 26, 0
2, 301842, Note_on_c, 0, 38, 61
2, 301866, Note_on_c, 0, 38, 0
2, 301877, Note_on_c, 0, 26, 61
2, 301912, Note_on_c, 0, 26, 0
2, 301946, Note_on_c, 0, 38, 56
2, 301966, Note_on_c, 0, 26, 63
2, 301981, Note_on_c, 0, 38, 0
2, 302011, Note_on_c, 0, 26, 0
2, 302053, Note_on_c, 0, 38, 58
2, 302077, Note_on_c, 0, 38, 0
2, 302077, Note_on_c, 0, 26, 59
2, 302112, Note_on_c, 0, 26, 0
2, 302162, Note_on_c, 0, 38, 59
2, 302175, Note_on_c, 0, 26, 58
2, 302186, Note_on_c, 0, 38, 0
2, 302208, Note_on_c, 0, 26, 0
2, 302263, Note_on_c, 0, 38, 59
2, 302285, Note_on_c, 0, 26, 59
2, 302978, Note_on_c, 0, 26, 0
2, 302978, Note_on_c, 0, 54, 0
2, 302988, Note_on_c, 0, 45, 0
2, 302988, Note_on_c, 0, 50, 0
2, 302989, Note_on_c, 0, 38, 0
2, 302999, Note_on_c, 0, 57, 0
2, 303001, Note_on_c, 0, 66, 65
2, 303692, Note_on_c, 0, 64, 64
2, 303786, Note_on_c, 0, 66, 0
2, 304355, Note_on_c, 0, 62, 64
2, 304454, Note_on_c, 0, 64, 0
2, 304475, Control_c, 0, 64, 127
2, 305016, Note_on_c, 0, 26, 57
2, 305025, Control_c, 0, 64, 0
2, 305038, Note_on_c, 0, 45, 56
2, 305038, Note_on_c, 0, 50, 62
2, 305044, Note_on_c, 0, 54, 75
2, 305048, Note_on_c, 0, 26, 0
2, 305072, Note_on_c, 0, 57, 71
2, 305109, Note_on_c, 0, 38, 58
2, 305133, Note_on_c, 0, 26, 58
2, 305134, Note_on_c, 0, 38, 0
2, 305161, Note_on_c, 0, 26, 0
2, 305184, Note_on_c, 0, 62, 0
2, 305209, Note_on_c, 0, 38, 62
2, 305234, Note_on_c, 0, 38, 0
2, 305234, Note_on_c, 0, 26, 56
2, 305268, Note_on_c, 0, 26, 0
2, 305317, Note_on_c, 0, 38, 58
2, 305341, Note_on_c, 0, 38, 0
2, 305341, Note_on_c, 0, 26, 62
2, 305365, Note_on_c, 0, 26, 0
2, 305405, Note_on_c, 0, 38, 63
2, 305429, Note_on_c, 0, 38, 0
2, 305446, Note_on_c, 0, 26, 61
2, 305477, Note_on_c, 0, 26, 0
2, 305509, Note_on_c, 0, 38, 61
2, 305533, Note_on_c, 0, 38, 0
2, 305533, Note_on_c, 0, 26, 61
2, 305566, Note_on_c, 0, 26, 0
2, 305615, Note_on_c, 0, 38, 57
2, 305626, Note_on_c, 0, 26, 59
2, 305642, Note_on_c, 0, 38, 0
2, 305660, Note_on_c, 0, 26, 0
2, 305691, Control_c, 0, 64, 127
2, 305721, Note_on_c, 0, 38, 60
2, 305745, Note_on_c, 0, 38, 0
2, 305745, Note_on_c, 0, 26, 59
2, 305782, Note_on_c, 0, 26, 0
2, 305828, Note_on_c, 0, 38, 62
2, 305848, Note_on_c, 0, 26, 57
2, 305853, Note_on_c, 0, 38, 0
2, 305877, Note_on_c, 0, 26, 0
2, 305939, Note_on_c, 0, 38, 56
2, 305951, Note_on_c, 0, 26, 63
2, 305963, Note_on_c, 0, 38, 0
2, 305978, Note_on_c, 0, 26, 0
2, 306037, Note_on_c, 0, 38, 56
2, 306048, Note_on_c, 0, 26, 61
2, 306060, Note_on_c, 0, 38, 0
2, 306081, Note_on_c, 0, 26, 0
2, 306138, Note_on_c, 0, 38, 56
2, 306154, Note_on_c, 0, 26, 59
2, 306162, Note_on_c, 0, 38, 0
2, 306185, Note_on_c, 0, 26, 0
2, 306258, Note_on_c, 0, 26, 60
2, 306258, Note_on_c, 0, 38, 60
2, 306283, Note_on_c, 0, 38, 0
2, 306292, Note_on_c, 0, 26, 0
2, 306348, Note_on_c, 0, 38, 59
2, 306372, Note_on_c, 0, 38, 0
2, 306379, Note_on_c, 0, 26, 63
2, 306411, Note_on_c, 0, 26, 0
2, 306456, Note_on_c, 0, 38, 62
2, 306470, Note_on_c, 0, 26, 62
2, 306480, Note_on_c, 0, 38, 0
2, 306503, Note_on_c, 0, 26, 0
2, 306552, Note_on_c, 0, 38, 63
2, 306576, Note_on_c, 0, 38, 0
2, 306576, Note_on_c, 0, 26, 59
2, 306601, Note_on_c, 0, 26, 0
2, 306657, Note_on_c, 0, 38, 60
2, 306681, Note_on_c, 0, 26, 60
2, 306682, Note_on_c, 0, 38, 0
2, 306710, Note_on_c, 0, 26, 0
2, 306769, Note_on_c, 0, 38, 56
2, 306793, Note_on_c, 0, 38, 0
2, 306794, Note_on_c, 0, 26, 60
2, 306831, Note_on_c, 0, 26, 0
2, 306885, Note_on_c, 0, 38, 60
2, 306902, Control_c, 0, 64, 0
2, 306922, Note_on_c, 0, 38, 0
2, 306923, Note_on_c, 0, 26, 60
2, 306947, Note_on_c, 0, 26, 0
2, 306984, Note_on_c, 0, 38, 59
2, 307008, Note_on_c, 0, 38, 0
2, 307028, Note_on_c, 0, 26, 62
2, 307052, Note_on_c, 0, 26, 0
2, 307095, Note_on_c, 0, 38, 63
2, 307122, Note_on_c, 0, 38, 0
2, 307139, Note_on_c, 0, 26, 57
2, 307164, Note_on_c, 0, 26, 0
2, 307201, Note_on_c, 0, 38, 58
2, 307228, Note_on_c, 0, 38, 0
2, 307238, Note_on_c, 0, 26, 59
2, 307273, Note_on_c, 0, 26, 0
2, 307313, Note_on_c, 0, 38, 62
2, 307337, Note_on_c, 0, 38, 0
2, 307350, Note_on_c, 0, 26, 63
2, 307384, Note_on_c, 0, 26, 0
2, 307414, Note_on_c, 0, 38, 57
2, 307455, Note_on_c, 0, 26, 59
2, 307966, Note_on_c, 0, 66, 63
2, 307983, Note_on_c, 0, 45, 0
2, 307987, Note_on_c, 0, 38, 0
2, 307991, Note_on_c, 0, 54, 0
2, 307992, Note_on_c, 0, 26, 0
2, 307995, Note_on_c, 0, 50, 0
2, 308000, Note_on_c, 0, 57, 0
2, 308591, Note_on_c, 0, 64, 61
2, 308660, Note_on_c, 0, 66, 0
2, 309110, Note_on_c, 0, 62, 60
2, 309207, Note_on_c, 0, 64, 0
2, 309584, Note_on_c, 0, 59, 62
2, 309587, Control_c, 0, 64, 127
2, 309658, Note_on_c, 0, 62, 0
2, 309827, Control_c, 0, 64, 0
2, 310120, Note_on_c, 0, 57, 61
2, 310201, Note_on_c, 0, 59, 0
2, 310658, Note_on_c, 0, 45, 56
2, 310666, Note_on_c, 0, 38, 59
2, 310701, Note_on_c, 0, 54, 62
2, 310804, Note_on_c, 0, 57, 0
2, 311394, Note_on_c, 0, 50, 63
2, 311471, Note_on_c, 0, 54, 0
2, 311961, Note_on_c, 0, 45, 0
2, 311964, Note_on_c, 0, 50, 0
2, 311975, Note_on_c, 0, 47, 60
2, 312014, Control_c, 0, 64, 127
2, 312312, Control_c, 0, 64, 0
2, 312668, Note_on_c, 0, 38, 0
2, 312672, Note_on_c, 0, 45, 57
2, 312737, Note_on_c, 0, 47, 0
2, 313515, Note_on_c, 0, 42, 56
2, 313617, Note_on_c, 0, 45, 0
2, 314723, Note_on_c, 0, 38, 63
2, 314862, Note_on_c, 0, 42, 0
2, 315098, Control_c, 0, 64, 127
2, 315925, Control_c, 0, 64, 0
2, 316008, Control_c, 0, 67, 0
2, 317400, Note_on_c, 0, 38, 0
2, 317400, End_track
0, 0, End_of_file
