0, 0, Header, 1, 2, 192
1, 0, Start_track
1, 0, Title_t, "Ampico player piano roll #58417 Concerto Bf Minor c/b Tschaikovsky p/b Souvaine "
1, 0, Title_t, " "
1, 0, Copyright_t, "Adaptation for Disklavier pianos, by: Robert C. Kuhmann (c) 2012."
1, 0, Text_t, "Roll expression tracks converted to MIDI velocities\012"
1, 0, Time_signature, 4, 2, 24, 8
1, 0, Key_signature, 0, "major"
1, 0, Tempo, 461538
1, 0, Marker_t, "Standard MIDI:LPI 235:Tempo  80: 03-20-2003"
1, 0, End_track
2, 0, Start_track
2, 0, Title_t, "Grand Piano"
2, 0, Program_c, 0, 0
2, 0, Control_c, 0, 7, 115
2, 708, Note_on_c, 0, 65, 76
2, 916, Note_on_c, 0, 61, 75
2, 919, Note_on_c, 0, 65, 0
2, 1106, Note_on_c, 0, 60, 73
2, 1108, Note_on_c, 0, 61, 0
2, 1328, Note_on_c, 0, 60, 0
2, 1331, Note_on_c, 0, 58, 77
2, 1402, Control_c, 0, 64, 127
2, 1642, Note_on_c, 0, 44, 82
2, 1644, Note_on_c, 0, 49, 82
2, 1654, Note_on_c, 0, 58, 0
2, 1668, Note_on_c, 0, 53, 88
2, 1685, Note_on_c, 0, 58, 91
2, 1688, Note_on_c, 0, 70, 100
2, 1700, Note_on_c, 0, 73, 101
2, 1704, Note_on_c, 0, 77, 97
2, 1709, Note_on_c, 0, 82, 102
2, 1714, Note_on_c, 0, 53, 0
2, 1717, Note_on_c, 0, 44, 0
2, 1730, Note_on_c, 0, 58, 0
2, 1730, Note_on_c, 0, 49, 0
2, 1732, Note_on_c, 0, 73, 0
2, 1745, Note_on_c, 0, 77, 0
2, 1745, Note_on_c, 0, 70, 0
2, 1750, Note_on_c, 0, 82, 0
2, 1755, Control_c, 0, 64, 0
2, 1889, Note_on_c, 0, 65, 91
2, 2070, Note_on_c, 0, 61, 88
2, 2072, Note_on_c, 0, 65, 0
2, 2251, Note_on_c, 0, 61, 0
2, 2253, Note_on_c, 0, 60, 87
2, 2435, Note_on_c, 0, 60, 0
2, 2439, Note_on_c, 0, 58, 95
2, 2489, Control_c, 0, 64, 127
2, 2712, Note_on_c, 0, 43, 77
2, 2722, Control_c, 0, 64, 0
2, 2740, Note_on_c, 0, 49, 75
2, 2742, Note_on_c, 0, 58, 0
2, 2757, Note_on_c, 0, 53, 78
2, 2774, Note_on_c, 0, 70, 84
2, 2774, Note_on_c, 0, 77, 88
2, 2774, Note_on_c, 0, 82, 90
2, 2779, Note_on_c, 0, 58, 84
2, 2780, Note_on_c, 0, 73, 87
2, 2800, Note_on_c, 0, 43, 0
2, 2806, Note_on_c, 0, 49, 0
2, 2811, Note_on_c, 0, 53, 0
2, 2821, Note_on_c, 0, 70, 0
2, 2821, Note_on_c, 0, 77, 0
2, 2821, Note_on_c, 0, 82, 0
2, 2828, Note_on_c, 0, 73, 0
2, 2832, Note_on_c, 0, 58, 0
2, 2984, Note_on_c, 0, 65, 84
2, 3130, Note_on_c, 0, 65, 0
2, 3154, Note_on_c, 0, 61, 83
2, 3333, Note_on_c, 0, 61, 0
2, 3335, Note_on_c, 0, 60, 82
2, 3529, Note_on_c, 0, 60, 0
2, 3531, Note_on_c, 0, 58, 92
2, 3834, Note_on_c, 0, 82, 109
2, 3835, Note_on_c, 0, 70, 108
2, 3839, Note_on_c, 0, 72, 107
2, 3840, Note_on_c, 0, 58, 0
2, 3840, Note_on_c, 0, 42, 107
2, 3841, Note_on_c, 0, 46, 109
2, 3841, Note_on_c, 0, 48, 109
2, 3841, Note_on_c, 0, 54, 111
2, 3842, Note_on_c, 0, 75, 108
2, 3846, Control_c, 0, 64, 127
2, 3986, Control_c, 0, 64, 0
2, 4113, Note_on_c, 0, 42, 0
2, 4118, Note_on_c, 0, 41, 104
2, 4129, Note_on_c, 0, 46, 0
2, 4130, Note_on_c, 0, 44, 107
2, 4136, Note_on_c, 0, 48, 0
2, 4137, Note_on_c, 0, 75, 0
2, 4137, Note_on_c, 0, 72, 0
2, 4137, Note_on_c, 0, 70, 0
2, 4138, Note_on_c, 0, 49, 109
2, 4143, Note_on_c, 0, 54, 0
2, 4149, Note_on_c, 0, 68, 111
2, 4150, Note_on_c, 0, 82, 0
2, 4152, Note_on_c, 0, 53, 108
2, 4152, Note_on_c, 0, 73, 114
2, 4154, Note_on_c, 0, 80, 112
2, 4215, Control_c, 0, 64, 127
2, 4362, Control_c, 0, 64, 0
2, 4455, Note_on_c, 0, 49, 0
2, 4467, Note_on_c, 0, 41, 0
2, 4469, Note_on_c, 0, 40, 97
2, 4475, Note_on_c, 0, 73, 0
2, 4484, Note_on_c, 0, 46, 98
2, 4485, Note_on_c, 0, 44, 0
2, 4491, Note_on_c, 0, 49, 96
2, 4507, Note_on_c, 0, 53, 0
2, 4508, Note_on_c, 0, 52, 107
2, 4510, Note_on_c, 0, 79, 109
2, 4512, Note_on_c, 0, 68, 0
2, 4512, Note_on_c, 0, 80, 0
2, 4513, Note_on_c, 0, 82, 107
2, 4514, Note_on_c, 0, 70, 106
2, 4514, Note_on_c, 0, 73, 107
2, 4573, Control_c, 0, 64, 127
2, 4585, Control_c, 0, 67, 127
2, 4610, Control_c, 0, 67, 0
2, 4666, Control_c, 0, 67, 127
2, 4695, Control_c, 0, 67, 0
2, 4738, Control_c, 0, 64, 0
2, 4776, Note_on_c, 0, 46, 0
2, 4779, Note_on_c, 0, 40, 0
2, 4782, Note_on_c, 0, 39, 96
2, 4786, Note_on_c, 0, 52, 0
2, 4800, Note_on_c, 0, 49, 0
2, 4803, Note_on_c, 0, 73, 0
2, 4809, Note_on_c, 0, 46, 97
2, 4812, Note_on_c, 0, 79, 0
2, 4814, Note_on_c, 0, 70, 0
2, 4815, Note_on_c, 0, 82, 0
2, 4830, Note_on_c, 0, 49, 97
2, 4837, Note_on_c, 0, 73, 106
2, 4844, Note_on_c, 0, 70, 105
2, 4845, Note_on_c, 0, 82, 102
2, 4849, Note_on_c, 0, 51, 102
2, 4851, Note_on_c, 0, 79, 106
2, 4975, Control_c, 0, 64, 127
2, 5122, Control_c, 0, 64, 0
2, 5128, Note_on_c, 0, 51, 0
2, 5128, Note_on_c, 0, 39, 0
2, 5128, Note_on_c, 0, 46, 0
2, 5128, Note_on_c, 0, 49, 0
2, 5130, Note_on_c, 0, 44, 94
2, 5193, Note_on_c, 0, 51, 97
2, 5214, Note_on_c, 0, 54, 94
2, 5229, Note_on_c, 0, 70, 0
2, 5230, Note_on_c, 0, 73, 0
2, 5230, Note_on_c, 0, 79, 0
2, 5230, Note_on_c, 0, 82, 0
2, 5231, Note_on_c, 0, 72, 96
2, 5232, Note_on_c, 0, 84, 98
2, 5232, Note_on_c, 0, 60, 97
2, 5234, Note_on_c, 0, 75, 96
2, 5234, Note_on_c, 0, 80, 100
2, 5576, Note_on_c, 0, 80, 0
2, 5610, Note_on_c, 0, 32, 94
2, 5611, Note_on_c, 0, 25, 96
2, 5611, Note_on_c, 0, 37, 90
2, 5616, Note_on_c, 0, 60, 0
2, 5616, Note_on_c, 0, 54, 0
2, 5616, Note_on_c, 0, 44, 0
2, 5617, Note_on_c, 0, 51, 0
2, 5617, Note_on_c, 0, 84, 0
2, 5617, Note_on_c, 0, 72, 0
2, 5617, Note_on_c, 0, 75, 0
2, 5618, Note_on_c, 0, 41, 94
2, 5619, Note_on_c, 0, 73, 90
2, 5619, Note_on_c, 0, 77, 96
2, 5619, Note_on_c, 0, 85, 93
2, 5622, Note_on_c, 0, 80, 93
2, 5695, Control_c, 0, 64, 127
2, 5976, Note_on_c, 0, 77, 0
2, 5976, Note_on_c, 0, 73, 0
2, 6000, Note_on_c, 0, 41, 0
2, 6000, Note_on_c, 0, 37, 0
2, 6000, Note_on_c, 0, 32, 0
2, 6000, Note_on_c, 0, 25, 0
2, 6001, Note_on_c, 0, 49, 92
2, 6004, Note_on_c, 0, 68, 85
2, 6013, Note_on_c, 0, 56, 88
2, 6015, Note_on_c, 0, 80, 0
2, 6018, Note_on_c, 0, 65, 91
2, 6019, Note_on_c, 0, 85, 0
2, 6021, Note_on_c, 0, 61, 87
2, 6021, Note_on_c, 0, 77, 90
2, 6022, Note_on_c, 0, 73, 87
2, 6347, Note_on_c, 0, 73, 0
2, 6387, Note_on_c, 0, 49, 0
2, 6387, Note_on_c, 0, 61, 0
2, 6389, Note_on_c, 0, 68, 0
2, 6389, Note_on_c, 0, 77, 0
2, 6391, Note_on_c, 0, 56, 0
2, 6392, Note_on_c, 0, 65, 0
2, 6398, Note_on_c, 0, 73, 84
2, 6398, Note_on_c, 0, 80, 84
2, 6398, Note_on_c, 0, 92, 82
2, 6399, Note_on_c, 0, 85, 85
2, 6402, Note_on_c, 0, 89, 83
2, 6402, Note_on_c, 0, 101, 88
2, 6403, Note_on_c, 0, 97, 86
2, 6789, Note_on_c, 0, 25, 83
2, 6789, Note_on_c, 0, 32, 84
2, 6789, Note_on_c, 0, 37, 79
2, 6795, Note_on_c, 0, 89, 0
2, 6795, Note_on_c, 0, 92, 0
2, 6796, Note_on_c, 0, 97, 0
2, 6796, Note_on_c, 0, 101, 0
2, 6798, Note_on_c, 0, 65, 84
2, 6799, Note_on_c, 0, 73, 0
2, 6799, Note_on_c, 0, 80, 0
2, 6800, Note_on_c, 0, 85, 0
2, 6800, Note_on_c, 0, 53, 81
2, 6800, Note_on_c, 0, 56, 79
2, 6801, Note_on_c, 0, 61, 80
2, 7161, Note_on_c, 0, 61, 0
2, 7161, Note_on_c, 0, 56, 0
2, 7162, Note_on_c, 0, 65, 0
2, 7200, Note_on_c, 0, 25, 0
2, 7200, Note_on_c, 0, 32, 0
2, 7200, Note_on_c, 0, 37, 0
2, 7201, Note_on_c, 0, 53, 0
2, 7202, Note_on_c, 0, 49, 81
2, 7202, Note_on_c, 0, 56, 80
2, 7203, Note_on_c, 0, 61, 83
2, 7203, Note_on_c, 0, 65, 83
2, 7203, Note_on_c, 0, 73, 82
2, 7203, Note_on_c, 0, 77, 82
2, 7204, Note_on_c, 0, 68, 84
2, 7367, Note_on_c, 0, 56, 0
2, 7368, Note_on_c, 0, 68, 0
2, 7408, Note_on_c, 0, 49, 0
2, 7408, Note_on_c, 0, 68, 82
2, 7409, Note_on_c, 0, 73, 0
2, 7409, Note_on_c, 0, 61, 0
2, 7409, Note_on_c, 0, 65, 0
2, 7409, Note_on_c, 0, 77, 0
2, 7410, Note_on_c, 0, 56, 81
2, 7411, Note_on_c, 0, 80, 80
2, 7626, Note_on_c, 0, 80, 0
2, 7628, Note_on_c, 0, 65, 78
2, 7629, Note_on_c, 0, 56, 0
2, 7630, Note_on_c, 0, 68, 0
2, 7631, Note_on_c, 0, 53, 82
2, 7631, Note_on_c, 0, 92, 84
2, 7632, Note_on_c, 0, 77, 79
2, 7632, Note_on_c, 0, 89, 79
2, 7632, Note_on_c, 0, 101, 79
2, 7632, Note_on_c, 0, 97, 78
2, 7793, Control_c, 0, 64, 0
2, 7852, Note_on_c, 0, 89, 0
2, 7852, Note_on_c, 0, 92, 0
2, 7853, Note_on_c, 0, 101, 0
2, 7853, Note_on_c, 0, 97, 0
2, 7853, Note_on_c, 0, 51, 81
2, 7854, Note_on_c, 0, 63, 80
2, 7854, Note_on_c, 0, 75, 78
2, 7855, Note_on_c, 0, 53, 0
2, 7855, Note_on_c, 0, 65, 0
2, 7856, Note_on_c, 0, 77, 0
2, 8093, Note_on_c, 0, 25, 83
2, 8105, Note_on_c, 0, 37, 78
2, 8115, Note_on_c, 0, 68, 83
2, 8119, Note_on_c, 0, 65, 78
2, 8120, Note_on_c, 0, 51, 0
2, 8121, Note_on_c, 0, 63, 0
2, 8121, Note_on_c, 0, 75, 0
2, 8122, Note_on_c, 0, 61, 83
2, 8123, Note_on_c, 0, 73, 80
2, 8146, Control_c, 0, 64, 127
2, 8279, Note_on_c, 0, 44, 62
2, 8279, Note_on_c, 0, 49, 59
2, 8279, Note_on_c, 0, 53, 59
2, 8279, Note_on_c, 0, 56, 60
2, 8303, Note_on_c, 0, 56, 0
2, 8304, Note_on_c, 0, 53, 0
2, 8309, Note_on_c, 0, 44, 0
2, 8309, Note_on_c, 0, 49, 0
2, 8341, Note_on_c, 0, 53, 72
2, 8341, Note_on_c, 0, 56, 74
2, 8349, Note_on_c, 0, 44, 76
2, 8349, Note_on_c, 0, 49, 77
2, 8407, Note_on_c, 0, 56, 0
2, 8408, Note_on_c, 0, 53, 0
2, 8411, Note_on_c, 0, 61, 0
2, 8412, Note_on_c, 0, 65, 0
2, 8451, Note_on_c, 0, 44, 0
2, 8452, Note_on_c, 0, 49, 0
2, 8457, Note_on_c, 0, 53, 59
2, 8457, Note_on_c, 0, 65, 68
2, 8460, Note_on_c, 0, 56, 62
2, 8461, Note_on_c, 0, 61, 61
2, 8480, Note_on_c, 0, 61, 0
2, 8483, Note_on_c, 0, 56, 0
2, 8484, Note_on_c, 0, 53, 0
2, 8484, Note_on_c, 0, 65, 0
2, 8516, Note_on_c, 0, 65, 82
2, 8519, Note_on_c, 0, 56, 73
2, 8519, Note_on_c, 0, 61, 73
2, 8520, Note_on_c, 0, 53, 74
2, 8520, Note_on_c, 0, 80, 84
2, 8521, Note_on_c, 0, 68, 0
2, 8524, Note_on_c, 0, 73, 0
2, 8525, Note_on_c, 0, 89, 79
2, 8526, Note_on_c, 0, 77, 77
2, 8526, Note_on_c, 0, 85, 78
2, 8611, Note_on_c, 0, 56, 0
2, 8612, Note_on_c, 0, 61, 0
2, 8619, Note_on_c, 0, 53, 0
2, 8620, Note_on_c, 0, 65, 0
2, 8660, Note_on_c, 0, 65, 62
2, 8662, Note_on_c, 0, 56, 72
2, 8663, Note_on_c, 0, 61, 66
2, 8664, Note_on_c, 0, 53, 68
2, 8683, Note_on_c, 0, 61, 0
2, 8686, Note_on_c, 0, 56, 0
2, 8687, Note_on_c, 0, 65, 0
2, 8687, Note_on_c, 0, 53, 0
2, 8714, Note_on_c, 0, 65, 81
2, 8716, Note_on_c, 0, 56, 84
2, 8717, Note_on_c, 0, 53, 81
2, 8717, Note_on_c, 0, 61, 84
2, 8736, Note_on_c, 0, 37, 0
2, 8798, Note_on_c, 0, 61, 0
2, 8799, Note_on_c, 0, 65, 0
2, 8839, Note_on_c, 0, 56, 0
2, 8840, Note_on_c, 0, 53, 0
2, 8854, Note_on_c, 0, 61, 46
2, 8855, Note_on_c, 0, 65, 68
2, 8856, Note_on_c, 0, 68, 66
2, 8856, Note_on_c, 0, 73, 66
2, 8879, Note_on_c, 0, 73, 0
2, 8879, Note_on_c, 0, 68, 0
2, 8887, Note_on_c, 0, 65, 0
2, 8896, Note_on_c, 0, 61, 0
2, 8897, Note_on_c, 0, 25, 0
2, 8919, Note_on_c, 0, 65, 83
2, 8922, Note_on_c, 0, 61, 73
2, 8924, Note_on_c, 0, 68, 84
2, 8924, Note_on_c, 0, 73, 83
2, 8990, Note_on_c, 0, 61, 0
2, 8991, Note_on_c, 0, 68, 0
2, 8994, Note_on_c, 0, 65, 0
2, 8998, Note_on_c, 0, 73, 0
2, 9048, Note_on_c, 0, 61, 41
2, 9049, Note_on_c, 0, 65, 66
2, 9049, Note_on_c, 0, 68, 65
2, 9052, Note_on_c, 0, 73, 64
2, 9072, Note_on_c, 0, 73, 0
2, 9072, Note_on_c, 0, 68, 0
2, 9072, Note_on_c, 0, 61, 0
2, 9084, Note_on_c, 0, 65, 0
2, 9099, Note_on_c, 0, 77, 0
2, 9105, Note_on_c, 0, 65, 80
2, 9109, Note_on_c, 0, 61, 71
2, 9109, Note_on_c, 0, 73, 79
2, 9109, Note_on_c, 0, 75, 82
2, 9110, Note_on_c, 0, 68, 83
2, 9113, Note_on_c, 0, 80, 0
2, 9113, Note_on_c, 0, 89, 0
2, 9115, Note_on_c, 0, 87, 84
2, 9123, Note_on_c, 0, 85, 0
2, 9127, Control_c, 0, 64, 0
2, 9324, Note_on_c, 0, 37, 79
2, 9326, Note_on_c, 0, 78, 83
2, 9326, Note_on_c, 0, 80, 78
2, 9326, Note_on_c, 0, 85, 80
2, 9327, Note_on_c, 0, 90, 78
2, 9330, Note_on_c, 0, 61, 0
2, 9331, Note_on_c, 0, 65, 0
2, 9331, Note_on_c, 0, 75, 0
2, 9331, Note_on_c, 0, 73, 0
2, 9331, Note_on_c, 0, 25, 81
2, 9339, Note_on_c, 0, 68, 0
2, 9345, Note_on_c, 0, 87, 0
2, 9468, Note_on_c, 0, 49, 57
2, 9468, Note_on_c, 0, 56, 55
2, 9469, Note_on_c, 0, 53, 59
2, 9469, Note_on_c, 0, 61, 55
2, 9492, Note_on_c, 0, 61, 0
2, 9492, Note_on_c, 0, 53, 0
2, 9492, Note_on_c, 0, 49, 0
2, 9492, Note_on_c, 0, 56, 0
2, 9529, Note_on_c, 0, 49, 76
2, 9529, Note_on_c, 0, 56, 77
2, 9530, Note_on_c, 0, 53, 73
2, 9530, Note_on_c, 0, 61, 76
2, 9545, Control_c, 0, 64, 127
2, 9590, Note_on_c, 0, 56, 0
2, 9594, Note_on_c, 0, 53, 0
2, 9601, Note_on_c, 0, 61, 0
2, 9640, Note_on_c, 0, 65, 62
2, 9641, Note_on_c, 0, 49, 0
2, 9643, Note_on_c, 0, 53, 56
2, 9643, Note_on_c, 0, 56, 55
2, 9643, Note_on_c, 0, 61, 58
2, 9666, Note_on_c, 0, 56, 0
2, 9667, Note_on_c, 0, 61, 0
2, 9667, Note_on_c, 0, 53, 0
2, 9668, Note_on_c, 0, 65, 0
2, 9704, Note_on_c, 0, 65, 78
2, 9705, Note_on_c, 0, 56, 72
2, 9710, Note_on_c, 0, 53, 78
2, 9710, Note_on_c, 0, 61, 71
2, 9740, Note_on_c, 0, 37, 0
2, 9799, Note_on_c, 0, 56, 0
2, 9800, Note_on_c, 0, 61, 0
2, 9801, Note_on_c, 0, 65, 0
2, 9802, Note_on_c, 0, 25, 0
2, 9830, Note_on_c, 0, 53, 0
2, 9832, Note_on_c, 0, 56, 59
2, 9833, Note_on_c, 0, 61, 53
2, 9841, Note_on_c, 0, 65, 74
2, 9842, Note_on_c, 0, 68, 77
2, 9871, Note_on_c, 0, 68, 0
2, 9871, Note_on_c, 0, 65, 0
2, 9871, Note_on_c, 0, 56, 0
2, 9871, Note_on_c, 0, 61, 0
2, 9905, Note_on_c, 0, 65, 74
2, 9905, Note_on_c, 0, 68, 76
2, 9906, Note_on_c, 0, 56, 73
2, 9908, Note_on_c, 0, 61, 72
2, 9910, Note_on_c, 0, 90, 0
2, 9910, Note_on_c, 0, 78, 0
2, 9912, Note_on_c, 0, 80, 0
2, 9912, Note_on_c, 0, 85, 0
2, 9914, Note_on_c, 0, 77, 73
2, 9914, Note_on_c, 0, 89, 79
2, 10019, Note_on_c, 0, 65, 0
2, 10019, Note_on_c, 0, 68, 0
2, 10019, Note_on_c, 0, 61, 0
2, 10061, Note_on_c, 0, 56, 0
2, 10061, Note_on_c, 0, 65, 75
2, 10064, Note_on_c, 0, 61, 72
2, 10066, Note_on_c, 0, 68, 70
2, 10087, Note_on_c, 0, 68, 0
2, 10090, Note_on_c, 0, 65, 0
2, 10090, Note_on_c, 0, 61, 0
2, 10130, Note_on_c, 0, 89, 0
2, 10131, Note_on_c, 0, 61, 82
2, 10131, Note_on_c, 0, 65, 83
2, 10132, Note_on_c, 0, 72, 87
2, 10133, Note_on_c, 0, 68, 86
2, 10133, Note_on_c, 0, 84, 83
2, 10134, Note_on_c, 0, 77, 0
2, 10206, Note_on_c, 0, 61, 0
2, 10207, Note_on_c, 0, 68, 0
2, 10207, Note_on_c, 0, 65, 0
2, 10249, Note_on_c, 0, 65, 69
2, 10251, Note_on_c, 0, 61, 61
2, 10253, Note_on_c, 0, 68, 74
2, 10278, Note_on_c, 0, 61, 0
2, 10278, Note_on_c, 0, 65, 0
2, 10279, Note_on_c, 0, 68, 0
2, 10319, Note_on_c, 0, 72, 0
2, 10320, Note_on_c, 0, 84, 0
2, 10320, Note_on_c, 0, 61, 82
2, 10321, Note_on_c, 0, 65, 86
2, 10321, Note_on_c, 0, 68, 92
2, 10330, Note_on_c, 0, 73, 91
2, 10330, Note_on_c, 0, 85, 89
2, 10451, Note_on_c, 0, 23, 94
2, 10452, Control_c, 0, 64, 0
2, 10484, Note_on_c, 0, 23, 0
2, 10524, Note_on_c, 0, 61, 0
2, 10525, Note_on_c, 0, 73, 0
2, 10525, Note_on_c, 0, 85, 0
2, 10525, Note_on_c, 0, 68, 0
2, 10525, Note_on_c, 0, 37, 88
2, 10528, Note_on_c, 0, 65, 0
2, 10531, Note_on_c, 0, 70, 91
2, 10531, Note_on_c, 0, 82, 92
2, 10532, Note_on_c, 0, 25, 94
2, 10703, Note_on_c, 0, 46, 72
2, 10703, Note_on_c, 0, 51, 69
2, 10703, Note_on_c, 0, 54, 69
2, 10706, Note_on_c, 0, 58, 70
2, 10724, Note_on_c, 0, 58, 0
2, 10726, Note_on_c, 0, 54, 0
2, 10726, Note_on_c, 0, 46, 0
2, 10726, Note_on_c, 0, 51, 0
2, 10758, Note_on_c, 0, 46, 72
2, 10758, Note_on_c, 0, 51, 68
2, 10758, Note_on_c, 0, 54, 72
2, 10759, Note_on_c, 0, 58, 69
2, 10838, Note_on_c, 0, 58, 0
2, 10841, Note_on_c, 0, 54, 0
2, 10841, Note_on_c, 0, 51, 0
2, 10842, Control_c, 0, 64, 127
2, 10883, Note_on_c, 0, 46, 0
2, 10885, Note_on_c, 0, 51, 63
2, 10885, Note_on_c, 0, 54, 66
2, 10886, Note_on_c, 0, 58, 67
2, 10886, Note_on_c, 0, 63, 62
2, 10907, Note_on_c, 0, 58, 0
2, 10908, Note_on_c, 0, 63, 0
2, 10911, Note_on_c, 0, 51, 0
2, 10911, Note_on_c, 0, 54, 0
2, 10948, Note_on_c, 0, 54, 83
2, 10948, Note_on_c, 0, 58, 78
2, 10949, Note_on_c, 0, 51, 78
2, 10950, Note_on_c, 0, 63, 80
2, 10950, Note_on_c, 0, 75, 87
2, 10950, Note_on_c, 0, 87, 88
2, 10951, Note_on_c, 0, 70, 0
2, 10952, Note_on_c, 0, 82, 0
2, 11020, Note_on_c, 0, 37, 0
2, 11046, Note_on_c, 0, 63, 0
2, 11049, Note_on_c, 0, 54, 0
2, 11049, Note_on_c, 0, 58, 0
2, 11090, Note_on_c, 0, 25, 0
2, 11090, Note_on_c, 0, 54, 67
2, 11090, Note_on_c, 0, 58, 69
2, 11090, Note_on_c, 0, 63, 69
2, 11090, Note_on_c, 0, 66, 55
2, 11091, Note_on_c, 0, 51, 0
2, 11114, Note_on_c, 0, 54, 0
2, 11115, Note_on_c, 0, 63, 0
2, 11115, Note_on_c, 0, 58, 0
2, 11115, Note_on_c, 0, 66, 0
2, 11157, Note_on_c, 0, 58, 69
2, 11158, Note_on_c, 0, 63, 67
2, 11158, Note_on_c, 0, 66, 77
2, 11160, Note_on_c, 0, 54, 66
2, 11259, Note_on_c, 0, 58, 0
2, 11260, Note_on_c, 0, 66, 0
2, 11268, Note_on_c, 0, 63, 0
2, 11296, Note_on_c, 0, 63, 63
2, 11296, Note_on_c, 0, 66, 55
2, 11299, Note_on_c, 0, 58, 63
2, 11299, Note_on_c, 0, 70, 62
2, 11304, Note_on_c, 0, 54, 0
2, 11320, Note_on_c, 0, 58, 0
2, 11321, Note_on_c, 0, 66, 0
2, 11321, Note_on_c, 0, 63, 0
2, 11321, Note_on_c, 0, 70, 0
2, 11366, Note_on_c, 0, 58, 67
2, 11366, Note_on_c, 0, 70, 79
2, 11367, Note_on_c, 0, 63, 61
2, 11367, Note_on_c, 0, 66, 77
2, 11423, Note_on_c, 0, 66, 0
2, 11423, Note_on_c, 0, 70, 0
2, 11423, Note_on_c, 0, 75, 0
2, 11423, Note_on_c, 0, 63, 0
2, 11469, Note_on_c, 0, 58, 0
2, 11483, Note_on_c, 0, 66, 57
2, 11486, Note_on_c, 0, 63, 79
2, 11486, Note_on_c, 0, 70, 61
2, 11486, Note_on_c, 0, 75, 58
2, 11508, Note_on_c, 0, 75, 0
2, 11508, Note_on_c, 0, 63, 0
2, 11508, Note_on_c, 0, 70, 0
2, 11508, Note_on_c, 0, 66, 0
2, 11538, Note_on_c, 0, 70, 73
2, 11548, Note_on_c, 0, 87, 0
2, 11549, Note_on_c, 0, 89, 72
2, 11551, Note_on_c, 0, 63, 44
2, 11551, Note_on_c, 0, 66, 75
2, 11551, Note_on_c, 0, 77, 75
2, 11552, Note_on_c, 0, 75, 77
2, 11676, Control_c, 0, 64, 0
2, 11745, Note_on_c, 0, 70, 0
2, 11769, Note_on_c, 0, 25, 84
2, 11775, Note_on_c, 0, 37, 81
2, 11781, Note_on_c, 0, 89, 0
2, 11782, Note_on_c, 0, 63, 0
2, 11782, Note_on_c, 0, 66, 0
2, 11782, Note_on_c, 0, 77, 0
2, 11782, Note_on_c, 0, 75, 0
2, 11783, Note_on_c, 0, 82, 81
2, 11784, Note_on_c, 0, 70, 80
2, 11927, Note_on_c, 0, 51, 57
2, 11930, Note_on_c, 0, 46, 56
2, 11930, Note_on_c, 0, 54, 58
2, 11930, Note_on_c, 0, 58, 54
2, 11949, Note_on_c, 0, 46, 0
2, 11952, Note_on_c, 0, 58, 0
2, 11952, Note_on_c, 0, 51, 0
2, 11952, Note_on_c, 0, 54, 0
2, 11992, Note_on_c, 0, 46, 55
2, 11993, Note_on_c, 0, 51, 58
2, 11993, Note_on_c, 0, 54, 59
2, 11993, Note_on_c, 0, 58, 53
2, 12049, Control_c, 0, 64, 127
2, 12077, Note_on_c, 0, 51, 0
2, 12078, Note_on_c, 0, 58, 0
2, 12081, Note_on_c, 0, 54, 0
2, 12120, Note_on_c, 0, 46, 0
2, 12130, Note_on_c, 0, 63, 66
2, 12134, Note_on_c, 0, 51, 66
2, 12134, Note_on_c, 0, 54, 64
2, 12134, Note_on_c, 0, 58, 59
2, 12147, Note_on_c, 0, 69, 76
2, 12155, Note_on_c, 0, 54, 0
2, 12156, Note_on_c, 0, 58, 0
2, 12156, Note_on_c, 0, 63, 0
2, 12159, Note_on_c, 0, 51, 0
2, 12172, Note_on_c, 0, 69, 0
2, 12198, Note_on_c, 0, 63, 63
2, 12200, Note_on_c, 0, 51, 65
2, 12200, Note_on_c, 0, 54, 59
2, 12201, Note_on_c, 0, 58, 59
2, 12269, Note_on_c, 0, 63, 0
2, 12271, Note_on_c, 0, 54, 0
2, 12272, Note_on_c, 0, 58, 0
2, 12313, Note_on_c, 0, 37, 0
2, 12314, Note_on_c, 0, 51, 0
2, 12322, Note_on_c, 0, 54, 74
2, 12323, Note_on_c, 0, 58, 73
2, 12324, Note_on_c, 0, 63, 71
2, 12324, Note_on_c, 0, 66, 56
2, 12347, Note_on_c, 0, 58, 0
2, 12347, Note_on_c, 0, 54, 0
2, 12348, Note_on_c, 0, 63, 0
2, 12348, Note_on_c, 0, 66, 0
2, 12349, Note_on_c, 0, 25, 0
2, 12392, Note_on_c, 0, 70, 0
2, 12393, Note_on_c, 0, 54, 77
2, 12393, Note_on_c, 0, 58, 76
2, 12393, Note_on_c, 0, 63, 76
2, 12394, Note_on_c, 0, 66, 76
2, 12395, Note_on_c, 0, 75, 72
2, 12400, Note_on_c, 0, 82, 0
2, 12401, Note_on_c, 0, 87, 71
2, 12483, Note_on_c, 0, 58, 0
2, 12484, Note_on_c, 0, 66, 0
2, 12484, Note_on_c, 0, 63, 0
2, 12527, Note_on_c, 0, 54, 0
2, 12529, Note_on_c, 0, 58, 63
2, 12529, Note_on_c, 0, 63, 63
2, 12529, Note_on_c, 0, 66, 69
2, 12551, Note_on_c, 0, 63, 0
2, 12552, Note_on_c, 0, 66, 0
2, 12554, Note_on_c, 0, 58, 0
2, 12586, Note_on_c, 0, 87, 0
2, 12586, Note_on_c, 0, 75, 0
2, 12588, Note_on_c, 0, 58, 69
2, 12588, Note_on_c, 0, 72, 77
2, 12589, Note_on_c, 0, 84, 81
2, 12595, Note_on_c, 0, 63, 68
2, 12596, Note_on_c, 0, 66, 82
2, 12693, Note_on_c, 0, 66, 0
2, 12700, Note_on_c, 0, 58, 0
2, 12700, Note_on_c, 0, 63, 0
2, 12747, Note_on_c, 0, 58, 52
2, 12747, Note_on_c, 0, 63, 51
2, 12747, Note_on_c, 0, 66, 72
2, 12769, Note_on_c, 0, 63, 0
2, 12772, Note_on_c, 0, 58, 0
2, 12772, Note_on_c, 0, 66, 0
2, 12813, Note_on_c, 0, 84, 0
2, 12814, Note_on_c, 0, 58, 58
2, 12814, Note_on_c, 0, 70, 87
2, 12815, Note_on_c, 0, 63, 55
2, 12815, Note_on_c, 0, 66, 83
2, 12816, Note_on_c, 0, 72, 0
2, 12817, Note_on_c, 0, 82, 89
2, 12893, Control_c, 0, 64, 0
2, 13009, Note_on_c, 0, 82, 0
2, 13011, Note_on_c, 0, 80, 89
2, 13012, Note_on_c, 0, 58, 0
2, 13012, Note_on_c, 0, 70, 0
2, 13012, Note_on_c, 0, 78, 91
2, 13015, Note_on_c, 0, 63, 0
2, 13015, Note_on_c, 0, 66, 0
2, 13015, Note_on_c, 0, 37, 86
2, 13016, Note_on_c, 0, 25, 88
2, 13018, Note_on_c, 0, 68, 86
2, 13018, Note_on_c, 0, 72, 89
2, 13018, Note_on_c, 0, 75, 92
2, 13177, Note_on_c, 0, 56, 50
2, 13177, Note_on_c, 0, 60, 51
2, 13178, Note_on_c, 0, 51, 53
2, 13198, Note_on_c, 0, 60, 0
2, 13198, Note_on_c, 0, 56, 0
2, 13201, Note_on_c, 0, 51, 0
2, 13232, Note_on_c, 0, 60, 49
2, 13233, Note_on_c, 0, 51, 50
2, 13233, Note_on_c, 0, 56, 48
2, 13285, Control_c, 0, 64, 127
2, 13333, Note_on_c, 0, 56, 0
2, 13342, Note_on_c, 0, 51, 0
2, 13350, Note_on_c, 0, 60, 0
2, 13387, Note_on_c, 0, 56, 48
2, 13395, Note_on_c, 0, 51, 52
2, 13395, Note_on_c, 0, 60, 48
2, 13396, Note_on_c, 0, 63, 52
2, 13412, Note_on_c, 0, 56, 0
2, 13416, Note_on_c, 0, 80, 0
2, 13418, Note_on_c, 0, 60, 0
2, 13419, Note_on_c, 0, 51, 0
2, 13419, Note_on_c, 0, 75, 0
2, 13420, Note_on_c, 0, 63, 0
2, 13448, Note_on_c, 0, 60, 45
2, 13449, Note_on_c, 0, 51, 47
2, 13449, Note_on_c, 0, 84, 82
2, 13450, Note_on_c, 0, 63, 47
2, 13451, Note_on_c, 0, 56, 51
2, 13456, Note_on_c, 0, 87, 86
2, 13457, Note_on_c, 0, 78, 0
2, 13457, Note_on_c, 0, 75, 88
2, 13458, Note_on_c, 0, 68, 0
2, 13458, Note_on_c, 0, 72, 0
2, 13459, Note_on_c, 0, 80, 82
2, 13536, Note_on_c, 0, 56, 0
2, 13544, Note_on_c, 0, 60, 0
2, 13545, Note_on_c, 0, 63, 0
2, 13580, Note_on_c, 0, 51, 0
2, 13596, Note_on_c, 0, 56, 50
2, 13596, Note_on_c, 0, 60, 49
2, 13597, Note_on_c, 0, 63, 49
2, 13597, Note_on_c, 0, 68, 62
2, 13612, Note_on_c, 0, 37, 0
2, 13621, Note_on_c, 0, 60, 0
2, 13621, Note_on_c, 0, 56, 0
2, 13622, Note_on_c, 0, 63, 0
2, 13622, Note_on_c, 0, 68, 0
2, 13652, Note_on_c, 0, 56, 46
2, 13661, Note_on_c, 0, 60, 63
2, 13662, Note_on_c, 0, 68, 80
2, 13666, Note_on_c, 0, 63, 77
2, 13739, Note_on_c, 0, 25, 0
2, 13743, Note_on_c, 0, 60, 0
2, 13744, Note_on_c, 0, 63, 0
2, 13744, Note_on_c, 0, 68, 0
2, 13789, Note_on_c, 0, 56, 0
2, 13795, Note_on_c, 0, 60, 46
2, 13795, Note_on_c, 0, 63, 42
2, 13796, Note_on_c, 0, 68, 60
2, 13796, Note_on_c, 0, 72, 62
2, 13819, Note_on_c, 0, 60, 0
2, 13820, Note_on_c, 0, 72, 0
2, 13820, Note_on_c, 0, 63, 0
2, 13820, Note_on_c, 0, 68, 0
2, 13859, Note_on_c, 0, 60, 44
2, 13860, Note_on_c, 0, 63, 43
2, 13864, Note_on_c, 0, 68, 76
2, 13864, Note_on_c, 0, 72, 72
2, 13938, Note_on_c, 0, 63, 0
2, 13938, Note_on_c, 0, 75, 0
2, 13942, Note_on_c, 0, 68, 0
2, 13945, Note_on_c, 0, 72, 0
2, 13979, Note_on_c, 0, 60, 0
2, 13995, Note_on_c, 0, 63, 47
2, 13997, Note_on_c, 0, 68, 71
2, 13997, Note_on_c, 0, 75, 66
2, 14001, Note_on_c, 0, 72, 68
2, 14019, Note_on_c, 0, 72, 0
2, 14019, Note_on_c, 0, 68, 0
2, 14019, Note_on_c, 0, 63, 0
2, 14019, Note_on_c, 0, 75, 0
2, 14020, Note_on_c, 0, 84, 0
2, 14063, Note_on_c, 0, 77, 78
2, 14063, Note_on_c, 0, 84, 83
2, 14064, Note_on_c, 0, 63, 75
2, 14064, Note_on_c, 0, 68, 81
2, 14064, Note_on_c, 0, 72, 82
2, 14064, Note_on_c, 0, 75, 77
2, 14067, Note_on_c, 0, 87, 0
2, 14067, Note_on_c, 0, 80, 0
2, 14070, Note_on_c, 0, 89, 77
2, 14152, Control_c, 0, 64, 0
2, 14232, Note_on_c, 0, 84, 0
2, 14272, Note_on_c, 0, 68, 0
2, 14272, Note_on_c, 0, 77, 0
2, 14272, Note_on_c, 0, 63, 0
2, 14272, Note_on_c, 0, 75, 0
2, 14272, Note_on_c, 0, 72, 0
2, 14273, Note_on_c, 0, 37, 79
2, 14274, Note_on_c, 0, 25, 78
2, 14274, Note_on_c, 0, 80, 78
2, 14274, Note_on_c, 0, 87, 80
2, 14275, Note_on_c, 0, 84, 81
2, 14279, Note_on_c, 0, 89, 0
2, 14280, Note_on_c, 0, 92, 82
2, 14414, Note_on_c, 0, 60, 57
2, 14415, Note_on_c, 0, 51, 57
2, 14415, Note_on_c, 0, 56, 53
2, 14437, Note_on_c, 0, 56, 0
2, 14438, Note_on_c, 0, 60, 0
2, 14442, Note_on_c, 0, 51, 0
2, 14472, Note_on_c, 0, 51, 74
2, 14472, Note_on_c, 0, 60, 75
2, 14478, Note_on_c, 0, 56, 73
2, 14489, Control_c, 0, 64, 127
2, 14569, Note_on_c, 0, 56, 0
2, 14569, Note_on_c, 0, 60, 0
2, 14569, Note_on_c, 0, 51, 0
2, 14622, Note_on_c, 0, 56, 56
2, 14622, Note_on_c, 0, 60, 53
2, 14623, Note_on_c, 0, 51, 55
2, 14624, Note_on_c, 0, 63, 54
2, 14642, Note_on_c, 0, 60, 0
2, 14647, Note_on_c, 0, 63, 0
2, 14653, Note_on_c, 0, 56, 0
2, 14654, Note_on_c, 0, 51, 0
2, 14683, Note_on_c, 0, 60, 78
2, 14684, Note_on_c, 0, 63, 72
2, 14689, Note_on_c, 0, 56, 75
2, 14690, Note_on_c, 0, 51, 75
2, 14758, Note_on_c, 0, 60, 0
2, 14768, Note_on_c, 0, 56, 0
2, 14769, Note_on_c, 0, 63, 0
2, 14801, Note_on_c, 0, 60, 53
2, 14802, Note_on_c, 0, 68, 62
2, 14807, Note_on_c, 0, 63, 59
2, 14809, Note_on_c, 0, 51, 0
2, 14810, Note_on_c, 0, 56, 58
2, 14824, Note_on_c, 0, 60, 0
2, 14824, Note_on_c, 0, 84, 0
2, 14825, Note_on_c, 0, 68, 0
2, 14831, Note_on_c, 0, 80, 0
2, 14831, Note_on_c, 0, 87, 0
2, 14832, Note_on_c, 0, 63, 0
2, 14834, Note_on_c, 0, 56, 0
2, 14864, Note_on_c, 0, 63, 72
2, 14864, Note_on_c, 0, 68, 84
2, 14864, Note_on_c, 0, 84, 84
2, 14867, Note_on_c, 0, 56, 77
2, 14867, Note_on_c, 0, 60, 75
2, 14867, Note_on_c, 0, 80, 82
2, 14869, Note_on_c, 0, 92, 0
2, 14875, Note_on_c, 0, 75, 78
2, 14875, Note_on_c, 0, 87, 82
2, 14981, Note_on_c, 0, 60, 0
2, 14982, Note_on_c, 0, 68, 0
2, 14982, Note_on_c, 0, 63, 0
2, 15023, Note_on_c, 0, 56, 0
2, 15025, Note_on_c, 0, 60, 57
2, 15025, Note_on_c, 0, 63, 53
2, 15026, Note_on_c, 0, 68, 61
2, 15026, Note_on_c, 0, 72, 62
2, 15029, Note_on_c, 0, 84, 0
2, 15030, Note_on_c, 0, 80, 0
2, 15030, Note_on_c, 0, 87, 0
2, 15031, Note_on_c, 0, 75, 0
2, 15045, Note_on_c, 0, 60, 0
2, 15046, Note_on_c, 0, 63, 0
2, 15046, Note_on_c, 0, 68, 0
2, 15049, Note_on_c, 0, 72, 0
2, 15073, Note_on_c, 0, 75, 79
2, 15073, Note_on_c, 0, 80, 84
2, 15073, Note_on_c, 0, 87, 79
2, 15074, Note_on_c, 0, 84, 79
2, 15076, Note_on_c, 0, 60, 73
2, 15081, Note_on_c, 0, 63, 73
2, 15081, Note_on_c, 0, 72, 78
2, 15082, Note_on_c, 0, 68, 81
2, 15165, Note_on_c, 0, 25, 0
2, 15181, Note_on_c, 0, 68, 0
2, 15181, Note_on_c, 0, 63, 0
2, 15181, Note_on_c, 0, 72, 0
2, 15181, Note_on_c, 0, 75, 0
2, 15192, Note_on_c, 0, 37, 0
2, 15224, Note_on_c, 0, 60, 0
2, 15235, Note_on_c, 0, 63, 65
2, 15235, Note_on_c, 0, 72, 71
2, 15235, Note_on_c, 0, 75, 68
2, 15236, Note_on_c, 0, 68, 70
2, 15260, Note_on_c, 0, 68, 0
2, 15260, Note_on_c, 0, 63, 0
2, 15260, Note_on_c, 0, 75, 0
2, 15268, Note_on_c, 0, 72, 0
2, 15290, Note_on_c, 0, 80, 0
2, 15293, Note_on_c, 0, 77, 81
2, 15299, Note_on_c, 0, 63, 76
2, 15300, Note_on_c, 0, 68, 77
2, 15300, Note_on_c, 0, 72, 82
2, 15304, Note_on_c, 0, 75, 82
2, 15305, Note_on_c, 0, 87, 0
2, 15309, Note_on_c, 0, 84, 0
2, 15311, Note_on_c, 0, 89, 77
2, 15449, Note_on_c, 0, 89, 0
2, 15480, Control_c, 0, 64, 0
2, 15484, Note_on_c, 0, 25, 81
2, 15487, Note_on_c, 0, 92, 77
2, 15488, Note_on_c, 0, 75, 0
2, 15488, Note_on_c, 0, 72, 0
2, 15488, Note_on_c, 0, 63, 0
2, 15488, Note_on_c, 0, 68, 0
2, 15488, Note_on_c, 0, 77, 0
2, 15490, Note_on_c, 0, 80, 81
2, 15491, Note_on_c, 0, 85, 79
2, 15491, Note_on_c, 0, 89, 80
2, 15497, Note_on_c, 0, 37, 80
2, 15681, Note_on_c, 0, 53, 59
2, 15681, Note_on_c, 0, 56, 62
2, 15682, Note_on_c, 0, 49, 62
2, 15682, Note_on_c, 0, 61, 66
2, 15704, Note_on_c, 0, 49, 0
2, 15705, Note_on_c, 0, 61, 0
2, 15705, Note_on_c, 0, 56, 0
2, 15717, Control_c, 0, 64, 127
2, 15719, Note_on_c, 0, 53, 0
2, 15748, Note_on_c, 0, 56, 75
2, 15749, Note_on_c, 0, 49, 74
2, 15749, Note_on_c, 0, 53, 73
2, 15750, Note_on_c, 0, 61, 71
2, 15822, Note_on_c, 0, 56, 0
2, 15823, Note_on_c, 0, 61, 0
2, 15823, Note_on_c, 0, 53, 0
2, 15863, Note_on_c, 0, 56, 66
2, 15864, Note_on_c, 0, 61, 62
2, 15864, Note_on_c, 0, 53, 63
2, 15864, Note_on_c, 0, 65, 62
2, 15865, Note_on_c, 0, 49, 0
2, 15888, Note_on_c, 0, 61, 0
2, 15888, Note_on_c, 0, 65, 0
2, 15888, Note_on_c, 0, 56, 0
2, 15888, Note_on_c, 0, 53, 0
2, 15924, Note_on_c, 0, 61, 73
2, 15924, Note_on_c, 0, 65, 78
2, 15925, Note_on_c, 0, 53, 71
2, 15927, Note_on_c, 0, 56, 76
2, 16002, Note_on_c, 0, 56, 0
2, 16002, Note_on_c, 0, 61, 0
2, 16007, Note_on_c, 0, 65, 0
2, 16043, Note_on_c, 0, 65, 66
2, 16045, Note_on_c, 0, 53, 0
2, 16045, Note_on_c, 0, 56, 59
2, 16047, Note_on_c, 0, 61, 64
2, 16048, Note_on_c, 0, 68, 61
2, 16071, Note_on_c, 0, 56, 0
2, 16072, Note_on_c, 0, 68, 0
2, 16080, Note_on_c, 0, 65, 0
2, 16080, Note_on_c, 0, 61, 0
2, 16080, Note_on_c, 0, 89, 0
2, 16115, Note_on_c, 0, 56, 78
2, 16117, Note_on_c, 0, 68, 78
2, 16120, Note_on_c, 0, 65, 80
2, 16121, Note_on_c, 0, 80, 0
2, 16121, Note_on_c, 0, 92, 0
2, 16122, Note_on_c, 0, 85, 0
2, 16123, Note_on_c, 0, 61, 71
2, 16123, Note_on_c, 0, 89, 79
2, 16124, Note_on_c, 0, 77, 77
2, 16226, Note_on_c, 0, 61, 0
2, 16226, Note_on_c, 0, 65, 0
2, 16226, Note_on_c, 0, 68, 0
2, 16266, Note_on_c, 0, 56, 0
2, 16266, Note_on_c, 0, 61, 66
2, 16266, Note_on_c, 0, 65, 66
2, 16266, Note_on_c, 0, 68, 68
2, 16269, Note_on_c, 0, 73, 67
2, 16289, Note_on_c, 0, 73, 0
2, 16289, Note_on_c, 0, 68, 0
2, 16289, Note_on_c, 0, 61, 0
2, 16289, Note_on_c, 0, 65, 0
2, 16305, Note_on_c, 0, 82, 78
2, 16314, Note_on_c, 0, 89, 0
2, 16315, Note_on_c, 0, 77, 0
2, 16315, Note_on_c, 0, 94, 83
2, 16330, Note_on_c, 0, 61, 76
2, 16331, Note_on_c, 0, 65, 78
2, 16331, Note_on_c, 0, 68, 84
2, 16331, Note_on_c, 0, 73, 80
2, 16397, Note_on_c, 0, 73, 0
2, 16397, Note_on_c, 0, 68, 0
2, 16400, Note_on_c, 0, 61, 0
2, 16400, Note_on_c, 0, 65, 0
2, 16438, Note_on_c, 0, 61, 65
2, 16439, Note_on_c, 0, 65, 46
2, 16439, Note_on_c, 0, 73, 48
2, 16440, Note_on_c, 0, 68, 49
2, 16462, Note_on_c, 0, 61, 0
2, 16463, Note_on_c, 0, 68, 0
2, 16463, Note_on_c, 0, 73, 0
2, 16470, Note_on_c, 0, 65, 0
2, 16499, Note_on_c, 0, 61, 79
2, 16508, Control_c, 0, 64, 0
2, 16508, Note_on_c, 0, 65, 82
2, 16511, Note_on_c, 0, 68, 76
2, 16511, Note_on_c, 0, 73, 77
2, 16512, Note_on_c, 0, 94, 0
2, 16515, Note_on_c, 0, 82, 0
2, 16517, Note_on_c, 0, 80, 76
2, 16517, Note_on_c, 0, 92, 81
2, 16669, Note_on_c, 0, 80, 0
2, 16675, Note_on_c, 0, 91, 74
2, 16693, Note_on_c, 0, 91, 0
2, 16708, Note_on_c, 0, 92, 0
2, 16708, Note_on_c, 0, 44, 85
2, 16710, Note_on_c, 0, 37, 0
2, 16710, Note_on_c, 0, 80, 74
2, 16710, Note_on_c, 0, 87, 78
2, 16711, Note_on_c, 0, 84, 78
2, 16715, Note_on_c, 0, 32, 86
2, 16716, Note_on_c, 0, 73, 0
2, 16716, Note_on_c, 0, 68, 0
2, 16716, Note_on_c, 0, 65, 0
2, 16718, Note_on_c, 0, 61, 0
2, 16718, Note_on_c, 0, 75, 74
2, 16732, Note_on_c, 0, 25, 0
2, 16829, Note_on_c, 0, 75, 0
2, 16872, Note_on_c, 0, 63, 51
2, 16872, Note_on_c, 0, 68, 72
2, 16872, Note_on_c, 0, 72, 69
2, 16872, Note_on_c, 0, 75, 72
2, 16891, Note_on_c, 0, 72, 0
2, 16895, Note_on_c, 0, 75, 0
2, 16895, Note_on_c, 0, 68, 0
2, 16895, Note_on_c, 0, 63, 0
2, 16917, Control_c, 0, 64, 127
2, 16919, Note_on_c, 0, 75, 80
2, 16926, Note_on_c, 0, 63, 65
2, 16926, Note_on_c, 0, 68, 77
2, 16926, Note_on_c, 0, 72, 79
2, 16957, Note_on_c, 0, 72, 0
2, 16957, Note_on_c, 0, 68, 0
2, 17024, Note_on_c, 0, 63, 0
2, 17071, Note_on_c, 0, 60, 54
2, 17071, Note_on_c, 0, 68, 62
2, 17072, Note_on_c, 0, 72, 60
2, 17075, Note_on_c, 0, 63, 60
2, 17095, Note_on_c, 0, 60, 0
2, 17096, Note_on_c, 0, 63, 0
2, 17096, Note_on_c, 0, 68, 0
2, 17096, Note_on_c, 0, 72, 0
2, 17135, Note_on_c, 0, 60, 73
2, 17136, Note_on_c, 0, 63, 77
2, 17136, Note_on_c, 0, 68, 83
2, 17138, Note_on_c, 0, 72, 84
2, 17166, Note_on_c, 0, 72, 0
2, 17174, Note_on_c, 0, 84, 0
2, 17215, Note_on_c, 0, 87, 0
2, 17215, Note_on_c, 0, 75, 0
2, 17218, Note_on_c, 0, 72, 81
2, 17218, Note_on_c, 0, 84, 84
2, 17223, Note_on_c, 0, 63, 0
2, 17226, Note_on_c, 0, 60, 0
2, 17227, Note_on_c, 0, 68, 0
2, 17266, Note_on_c, 0, 60, 64
2, 17267, Note_on_c, 0, 63, 66
2, 17268, Note_on_c, 0, 68, 42
2, 17269, Note_on_c, 0, 56, 65
2, 17290, Note_on_c, 0, 56, 0
2, 17291, Note_on_c, 0, 63, 0
2, 17291, Note_on_c, 0, 60, 0
2, 17292, Note_on_c, 0, 68, 0
2, 17330, Note_on_c, 0, 63, 77
2, 17334, Note_on_c, 0, 56, 74
2, 17334, Note_on_c, 0, 60, 76
2, 17336, Note_on_c, 0, 68, 81
2, 17371, Note_on_c, 0, 72, 0
2, 17376, Note_on_c, 0, 70, 79
2, 17380, Note_on_c, 0, 80, 0
2, 17381, Note_on_c, 0, 84, 0
2, 17382, Note_on_c, 0, 82, 83
2, 17387, Note_on_c, 0, 60, 0
2, 17387, Note_on_c, 0, 56, 0
2, 17388, Note_on_c, 0, 63, 0
2, 17429, Note_on_c, 0, 68, 0
2, 17438, Note_on_c, 0, 56, 62
2, 17439, Note_on_c, 0, 60, 65
2, 17439, Note_on_c, 0, 63, 61
2, 17440, Note_on_c, 0, 51, 59
2, 17463, Note_on_c, 0, 60, 0
2, 17463, Note_on_c, 0, 56, 0
2, 17464, Note_on_c, 0, 51, 0
2, 17464, Note_on_c, 0, 63, 0
2, 17503, Note_on_c, 0, 51, 83
2, 17503, Note_on_c, 0, 56, 84
2, 17503, Note_on_c, 0, 60, 77
2, 17504, Note_on_c, 0, 63, 83
2, 17517, Note_on_c, 0, 82, 0
2, 17520, Note_on_c, 0, 70, 0
2, 17520, Note_on_c, 0, 68, 79
2, 17521, Note_on_c, 0, 80, 84
2, 17583, Note_on_c, 0, 60, 0
2, 17583, Note_on_c, 0, 56, 0
2, 17584, Note_on_c, 0, 51, 0
2, 17626, Note_on_c, 0, 63, 0
2, 17629, Note_on_c, 0, 80, 0
2, 17630, Note_on_c, 0, 56, 42
2, 17633, Note_on_c, 0, 68, 0
2, 17633, Note_on_c, 0, 60, 42
2, 17634, Note_on_c, 0, 48, 45
2, 17634, Note_on_c, 0, 51, 47
2, 17635, Note_on_c, 0, 66, 77
2, 17635, Note_on_c, 0, 78, 78
2, 17655, Note_on_c, 0, 48, 0
2, 17655, Note_on_c, 0, 60, 0
2, 17658, Note_on_c, 0, 56, 0
2, 17659, Note_on_c, 0, 51, 0
2, 17696, Note_on_c, 0, 48, 79
2, 17696, Note_on_c, 0, 56, 84
2, 17696, Note_on_c, 0, 60, 80
2, 17697, Note_on_c, 0, 51, 83
2, 17768, Note_on_c, 0, 66, 0
2, 17768, Note_on_c, 0, 78, 0
2, 17771, Note_on_c, 0, 63, 79
2, 17771, Note_on_c, 0, 75, 81
2, 17783, Control_c, 0, 64, 0
2, 17946, Note_on_c, 0, 44, 0
2, 17951, Note_on_c, 0, 56, 0
2, 17952, Note_on_c, 0, 75, 0
2, 17952, Note_on_c, 0, 63, 0
2, 17952, Note_on_c, 0, 25, 77
2, 17952, Note_on_c, 0, 37, 78
2, 17953, Note_on_c, 0, 32, 0
2, 17953, Note_on_c, 0, 61, 80
2, 17954, Note_on_c, 0, 48, 0
2, 17954, Note_on_c, 0, 51, 0
2, 17954, Note_on_c, 0, 65, 77
2, 17954, Note_on_c, 0, 68, 84
2, 17955, Note_on_c, 0, 73, 78
2, 17965, Note_on_c, 0, 60, 0
2, 18101, Note_on_c, 0, 49, 59
2, 18105, Note_on_c, 0, 44, 53
2, 18105, Note_on_c, 0, 56, 54
2, 18106, Note_on_c, 0, 53, 58
2, 18125, Note_on_c, 0, 56, 0
2, 18129, Note_on_c, 0, 44, 0
2, 18129, Note_on_c, 0, 49, 0
2, 18130, Note_on_c, 0, 53, 0
2, 18171, Note_on_c, 0, 49, 75
2, 18174, Control_c, 0, 64, 127
2, 18174, Note_on_c, 0, 44, 75
2, 18174, Note_on_c, 0, 53, 75
2, 18174, Note_on_c, 0, 56, 71
2, 18276, Note_on_c, 0, 49, 0
2, 18277, Note_on_c, 0, 53, 0
2, 18277, Note_on_c, 0, 61, 0
2, 18284, Note_on_c, 0, 56, 0
2, 18315, Note_on_c, 0, 44, 0
2, 18320, Note_on_c, 0, 56, 56
2, 18321, Note_on_c, 0, 49, 56
2, 18321, Note_on_c, 0, 61, 60
2, 18322, Note_on_c, 0, 53, 55
2, 18345, Note_on_c, 0, 56, 0
2, 18346, Note_on_c, 0, 61, 0
2, 18346, Note_on_c, 0, 49, 0
2, 18347, Note_on_c, 0, 53, 0
2, 18377, Note_on_c, 0, 73, 0
2, 18377, Note_on_c, 0, 68, 0
2, 18378, Note_on_c, 0, 49, 72
2, 18378, Note_on_c, 0, 80, 82
2, 18378, Note_on_c, 0, 85, 78
2, 18378, Note_on_c, 0, 89, 78
2, 18379, Note_on_c, 0, 77, 79
2, 18381, Note_on_c, 0, 65, 0
2, 18384, Note_on_c, 0, 56, 76
2, 18384, Note_on_c, 0, 53, 71
2, 18385, Note_on_c, 0, 61, 74
2, 18479, Note_on_c, 0, 93, 47
2, 18482, Note_on_c, 0, 56, 0
2, 18483, Note_on_c, 0, 61, 0
2, 18483, Note_on_c, 0, 53, 0
2, 18495, Note_on_c, 0, 93, 0
2, 18522, Note_on_c, 0, 56, 57
2, 18522, Note_on_c, 0, 61, 57
2, 18522, Note_on_c, 0, 65, 46
2, 18523, Note_on_c, 0, 53, 55
2, 18524, Note_on_c, 0, 49, 0
2, 18546, Note_on_c, 0, 56, 0
2, 18547, Note_on_c, 0, 65, 0
2, 18547, Note_on_c, 0, 61, 0
2, 18547, Note_on_c, 0, 53, 0
2, 18585, Note_on_c, 0, 56, 72
2, 18585, Note_on_c, 0, 61, 74
2, 18585, Note_on_c, 0, 65, 71
2, 18589, Note_on_c, 0, 53, 76
2, 18672, Note_on_c, 0, 56, 0
2, 18680, Note_on_c, 0, 61, 0
2, 18681, Note_on_c, 0, 65, 0
2, 18710, Note_on_c, 0, 53, 0
2, 18711, Note_on_c, 0, 56, 53
2, 18719, Note_on_c, 0, 61, 58
2, 18720, Note_on_c, 0, 65, 60
2, 18720, Note_on_c, 0, 68, 53
2, 18733, Note_on_c, 0, 56, 0
2, 18742, Note_on_c, 0, 61, 0
2, 18743, Note_on_c, 0, 65, 0
2, 18743, Note_on_c, 0, 68, 0
2, 18770, Note_on_c, 0, 56, 76
2, 18772, Note_on_c, 0, 61, 76
2, 18781, Note_on_c, 0, 65, 72
2, 18782, Note_on_c, 0, 68, 72
2, 18864, Note_on_c, 0, 61, 0
2, 18865, Note_on_c, 0, 68, 0
2, 18868, Note_on_c, 0, 65, 0
2, 18904, Note_on_c, 0, 56, 0
2, 18914, Note_on_c, 0, 61, 54
2, 18915, Note_on_c, 0, 65, 49
2, 18915, Note_on_c, 0, 68, 47
2, 18915, Note_on_c, 0, 73, 49
2, 18937, Note_on_c, 0, 73, 0
2, 18937, Note_on_c, 0, 68, 0
2, 18937, Note_on_c, 0, 61, 0
2, 18937, Note_on_c, 0, 65, 0
2, 18972, Note_on_c, 0, 87, 77
2, 18973, Note_on_c, 0, 75, 83
2, 18974, Note_on_c, 0, 80, 0
2, 18976, Note_on_c, 0, 61, 72
2, 18976, Note_on_c, 0, 65, 77
2, 18978, Note_on_c, 0, 77, 0
2, 18980, Note_on_c, 0, 68, 77
2, 18980, Note_on_c, 0, 73, 81
2, 18984, Note_on_c, 0, 85, 0
2, 18984, Note_on_c, 0, 89, 0
2, 19093, Control_c, 0, 64, 0
2, 19176, Note_on_c, 0, 29, 78
2, 19177, Note_on_c, 0, 41, 79
2, 19178, Note_on_c, 0, 37, 0
2, 19178, Note_on_c, 0, 25, 0
2, 19182, Note_on_c, 0, 73, 0
2, 19182, Note_on_c, 0, 87, 0
2, 19183, Note_on_c, 0, 75, 0
2, 19184, Note_on_c, 0, 85, 84
2, 19185, Note_on_c, 0, 61, 0
2, 19185, Note_on_c, 0, 78, 80
2, 19185, Note_on_c, 0, 90, 80
2, 19186, Note_on_c, 0, 65, 0
2, 19187, Note_on_c, 0, 68, 0
2, 19331, Note_on_c, 0, 44, 56
2, 19331, Note_on_c, 0, 56, 58
2, 19332, Note_on_c, 0, 49, 56
2, 19332, Note_on_c, 0, 53, 56
2, 19355, Note_on_c, 0, 44, 0
2, 19356, Note_on_c, 0, 53, 0
2, 19356, Note_on_c, 0, 49, 0
2, 19356, Note_on_c, 0, 56, 0
2, 19393, Note_on_c, 0, 49, 77
2, 19398, Note_on_c, 0, 56, 73
2, 19399, Note_on_c, 0, 44, 74
2, 19399, Note_on_c, 0, 53, 78
2, 19476, Control_c, 0, 64, 127
2, 19489, Note_on_c, 0, 56, 0
2, 19489, Note_on_c, 0, 49, 0
2, 19490, Note_on_c, 0, 53, 0
2, 19530, Note_on_c, 0, 49, 55
2, 19530, Note_on_c, 0, 56, 54
2, 19530, Note_on_c, 0, 61, 60
2, 19531, Note_on_c, 0, 53, 57
2, 19532, Note_on_c, 0, 44, 0
2, 19549, Note_on_c, 0, 49, 0
2, 19553, Note_on_c, 0, 56, 0
2, 19554, Note_on_c, 0, 61, 0
2, 19554, Note_on_c, 0, 53, 0
2, 19578, Note_on_c, 0, 49, 73
2, 19584, Note_on_c, 0, 56, 72
2, 19585, Note_on_c, 0, 61, 77
2, 19586, Note_on_c, 0, 53, 78
2, 19677, Note_on_c, 0, 53, 0
2, 19684, Note_on_c, 0, 56, 0
2, 19685, Note_on_c, 0, 61, 0
2, 19727, Note_on_c, 0, 49, 0
2, 19731, Note_on_c, 0, 56, 59
2, 19731, Note_on_c, 0, 61, 55
2, 19732, Note_on_c, 0, 53, 57
2, 19732, Note_on_c, 0, 65, 59
2, 19756, Note_on_c, 0, 53, 0
2, 19756, Note_on_c, 0, 61, 0
2, 19756, Note_on_c, 0, 56, 0
2, 19757, Note_on_c, 0, 65, 0
2, 19792, Note_on_c, 0, 77, 72
2, 19799, Note_on_c, 0, 65, 72
2, 19800, Note_on_c, 0, 85, 0
2, 19800, Note_on_c, 0, 90, 0
2, 19800, Note_on_c, 0, 78, 0
2, 19800, Note_on_c, 0, 56, 78
2, 19800, Note_on_c, 0, 89, 79
2, 19801, Note_on_c, 0, 53, 72
2, 19801, Note_on_c, 0, 61, 75
2, 19900, Note_on_c, 0, 61, 0
2, 19900, Note_on_c, 0, 56, 0
2, 19901, Note_on_c, 0, 65, 0
2, 19942, Note_on_c, 0, 53, 0
2, 19943, Note_on_c, 0, 65, 65
2, 19950, Note_on_c, 0, 56, 61
2, 19951, Note_on_c, 0, 61, 60
2, 19952, Note_on_c, 0, 68, 67
2, 19971, Note_on_c, 0, 61, 0
2, 19972, Note_on_c, 0, 68, 0
2, 19972, Note_on_c, 0, 65, 0
2, 19974, Note_on_c, 0, 56, 0
2, 20013, Note_on_c, 0, 89, 0
2, 20014, Note_on_c, 0, 77, 0
2, 20014, Note_on_c, 0, 56, 80
2, 20015, Note_on_c, 0, 61, 82
2, 20016, Note_on_c, 0, 65, 80
2, 20016, Note_on_c, 0, 72, 81
2, 20016, Note_on_c, 0, 84, 85
2, 20019, Note_on_c, 0, 68, 86
2, 20104, Note_on_c, 0, 61, 0
2, 20105, Note_on_c, 0, 68, 0
2, 20109, Note_on_c, 0, 65, 0
2, 20139, Note_on_c, 0, 56, 0
2, 20146, Note_on_c, 0, 65, 51
2, 20149, Note_on_c, 0, 61, 52
2, 20150, Note_on_c, 0, 68, 49
2, 20174, Note_on_c, 0, 68, 0
2, 20174, Note_on_c, 0, 65, 0
2, 20174, Note_on_c, 0, 61, 0
2, 20211, Note_on_c, 0, 84, 0
2, 20213, Note_on_c, 0, 61, 81
2, 20213, Note_on_c, 0, 68, 80
2, 20213, Note_on_c, 0, 73, 82
2, 20213, Note_on_c, 0, 85, 82
2, 20216, Note_on_c, 0, 72, 0
2, 20216, Note_on_c, 0, 65, 82
2, 20260, Control_c, 0, 64, 0
2, 20376, Note_on_c, 0, 41, 0
2, 20403, Note_on_c, 0, 29, 0
2, 20439, Note_on_c, 0, 61, 0
2, 20440, Note_on_c, 0, 68, 0
2, 20440, Note_on_c, 0, 85, 0
2, 20440, Note_on_c, 0, 65, 0
2, 20440, Note_on_c, 0, 73, 0
2, 20442, Note_on_c, 0, 30, 83
2, 20446, Note_on_c, 0, 82, 83
2, 20447, Note_on_c, 0, 70, 87
2, 20448, Note_on_c, 0, 42, 87
2, 20601, Note_on_c, 0, 58, 47
2, 20606, Note_on_c, 0, 49, 45
2, 20606, Note_on_c, 0, 51, 48
2, 20609, Note_on_c, 0, 54, 44
2, 20624, Control_c, 0, 64, 127
2, 20629, Note_on_c, 0, 51, 0
2, 20629, Note_on_c, 0, 49, 0
2, 20630, Note_on_c, 0, 58, 0
2, 20633, Note_on_c, 0, 54, 0
2, 20656, Note_on_c, 0, 51, 77
2, 20667, Note_on_c, 0, 49, 74
2, 20674, Note_on_c, 0, 58, 73
2, 20675, Note_on_c, 0, 54, 75
2, 20771, Note_on_c, 0, 51, 0
2, 20780, Note_on_c, 0, 54, 0
2, 20780, Note_on_c, 0, 58, 0
2, 20804, Note_on_c, 0, 58, 54
2, 20804, Note_on_c, 0, 61, 59
2, 20805, Note_on_c, 0, 51, 56
2, 20808, Note_on_c, 0, 49, 0
2, 20811, Note_on_c, 0, 54, 54
2, 20827, Note_on_c, 0, 51, 0
2, 20827, Note_on_c, 0, 58, 0
2, 20831, Note_on_c, 0, 61, 0
2, 20834, Note_on_c, 0, 54, 0
2, 20868, Note_on_c, 0, 51, 78
2, 20876, Note_on_c, 0, 54, 78
2, 20876, Note_on_c, 0, 61, 72
2, 20877, Note_on_c, 0, 58, 76
2, 20877, Note_on_c, 0, 75, 82
2, 20881, Note_on_c, 0, 70, 0
2, 20882, Note_on_c, 0, 82, 0
2, 20886, Note_on_c, 0, 87, 84
2, 20974, Note_on_c, 0, 58, 0
2, 20974, Note_on_c, 0, 54, 0
2, 20981, Note_on_c, 0, 61, 0
2, 21014, Note_on_c, 0, 54, 64
2, 21014, Note_on_c, 0, 58, 62
2, 21014, Note_on_c, 0, 61, 66
2, 21014, Note_on_c, 0, 63, 65
2, 21015, Note_on_c, 0, 51, 0
2, 21034, Note_on_c, 0, 61, 0
2, 21035, Note_on_c, 0, 63, 0
2, 21038, Note_on_c, 0, 54, 0
2, 21038, Note_on_c, 0, 58, 0
2, 21076, Note_on_c, 0, 54, 74
2, 21076, Note_on_c, 0, 61, 71
2, 21077, Note_on_c, 0, 58, 75
2, 21078, Note_on_c, 0, 63, 71
2, 21177, Note_on_c, 0, 63, 0
2, 21177, Note_on_c, 0, 61, 0
2, 21217, Note_on_c, 0, 54, 0
2, 21219, Note_on_c, 0, 61, 46
2, 21219, Note_on_c, 0, 63, 45
2, 21219, Note_on_c, 0, 70, 57
2, 21220, Note_on_c, 0, 66, 59
2, 21221, Note_on_c, 0, 58, 0
2, 21240, Note_on_c, 0, 66, 0
2, 21240, Note_on_c, 0, 70, 0
2, 21240, Note_on_c, 0, 63, 0
2, 21243, Note_on_c, 0, 61, 0
2, 21276, Note_on_c, 0, 61, 79
2, 21276, Note_on_c, 0, 63, 83
2, 21276, Note_on_c, 0, 66, 83
2, 21277, Note_on_c, 0, 70, 80
2, 21382, Note_on_c, 0, 70, 0
2, 21382, Note_on_c, 0, 66, 0
2, 21382, Note_on_c, 0, 63, 0
2, 21422, Note_on_c, 0, 61, 0
2, 21434, Note_on_c, 0, 63, 63
2, 21438, Note_on_c, 0, 70, 83
2, 21438, Note_on_c, 0, 73, 79
2, 21439, Note_on_c, 0, 66, 79
2, 21458, Note_on_c, 0, 66, 0
2, 21458, Note_on_c, 0, 73, 0
2, 21458, Note_on_c, 0, 63, 0
2, 21458, Note_on_c, 0, 70, 0
2, 21491, Note_on_c, 0, 87, 0
2, 21491, Control_c, 0, 64, 0
2, 21494, Note_on_c, 0, 89, 78
2, 21499, Note_on_c, 0, 75, 0
2, 21501, Note_on_c, 0, 66, 84
2, 21501, Note_on_c, 0, 70, 80
2, 21501, Note_on_c, 0, 77, 79
2, 21502, Note_on_c, 0, 63, 82
2, 21502, Note_on_c, 0, 73, 78
2, 21670, Note_on_c, 0, 30, 0
2, 21672, Note_on_c, 0, 27, 79
2, 21678, Note_on_c, 0, 73, 0
2, 21680, Note_on_c, 0, 42, 0
2, 21681, Note_on_c, 0, 70, 0
2, 21682, Note_on_c, 0, 66, 0
2, 21682, Note_on_c, 0, 63, 0
2, 21683, Note_on_c, 0, 39, 80
2, 21691, Note_on_c, 0, 80, 79
2, 21692, Note_on_c, 0, 92, 80
2, 21724, Note_on_c, 0, 77, 0
2, 21731, Note_on_c, 0, 89, 0
2, 21852, Note_on_c, 0, 48, 53
2, 21853, Note_on_c, 0, 51, 53
2, 21853, Note_on_c, 0, 54, 50
2, 21854, Note_on_c, 0, 58, 48
2, 21878, Note_on_c, 0, 58, 0
2, 21878, Note_on_c, 0, 54, 0
2, 21878, Note_on_c, 0, 48, 0
2, 21878, Note_on_c, 0, 51, 0
2, 21891, Control_c, 0, 64, 127
2, 21922, Note_on_c, 0, 48, 79
2, 21922, Note_on_c, 0, 51, 82
2, 21922, Note_on_c, 0, 54, 79
2, 21923, Note_on_c, 0, 58, 79
2, 21955, Note_on_c, 0, 58, 0
2, 21955, Note_on_c, 0, 54, 0
2, 21955, Note_on_c, 0, 51, 0
2, 22046, Note_on_c, 0, 48, 0
2, 22048, Note_on_c, 0, 51, 47
2, 22048, Note_on_c, 0, 54, 53
2, 22048, Note_on_c, 0, 58, 47
2, 22048, Note_on_c, 0, 60, 52
2, 22072, Note_on_c, 0, 60, 0
2, 22072, Note_on_c, 0, 58, 0
2, 22072, Note_on_c, 0, 51, 0
2, 22081, Note_on_c, 0, 54, 0
2, 22100, Note_on_c, 0, 60, 78
2, 22112, Note_on_c, 0, 51, 84
2, 22112, Note_on_c, 0, 54, 79
2, 22112, Note_on_c, 0, 58, 77
2, 22209, Note_on_c, 0, 58, 0
2, 22249, Note_on_c, 0, 54, 0
2, 22249, Note_on_c, 0, 60, 0
2, 22249, Note_on_c, 0, 51, 0
2, 22251, Note_on_c, 0, 61, 48
2, 22252, Note_on_c, 0, 58, 50
2, 22253, Note_on_c, 0, 63, 54
2, 22261, Note_on_c, 0, 66, 44
2, 22272, Note_on_c, 0, 61, 0
2, 22273, Note_on_c, 0, 58, 0
2, 22276, Note_on_c, 0, 63, 0
2, 22280, Note_on_c, 0, 66, 0
2, 22316, Note_on_c, 0, 58, 78
2, 22316, Note_on_c, 0, 61, 78
2, 22317, Note_on_c, 0, 63, 82
2, 22320, Note_on_c, 0, 80, 0
2, 22321, Note_on_c, 0, 92, 0
2, 22323, Note_on_c, 0, 66, 75
2, 22323, Note_on_c, 0, 90, 74
2, 22326, Note_on_c, 0, 78, 73
2, 22427, Note_on_c, 0, 66, 0
2, 22430, Note_on_c, 0, 63, 0
2, 22468, Note_on_c, 0, 61, 0
2, 22469, Note_on_c, 0, 58, 0
2, 22471, Note_on_c, 0, 60, 48
2, 22471, Note_on_c, 0, 63, 54
2, 22471, Note_on_c, 0, 70, 59
2, 22472, Note_on_c, 0, 66, 58
2, 22494, Note_on_c, 0, 70, 0
2, 22496, Note_on_c, 0, 60, 0
2, 22497, Note_on_c, 0, 66, 0
2, 22497, Note_on_c, 0, 63, 0
2, 22521, Note_on_c, 0, 78, 0
2, 22523, Note_on_c, 0, 77, 74
2, 22530, Note_on_c, 0, 90, 0
2, 22531, Note_on_c, 0, 60, 81
2, 22531, Note_on_c, 0, 89, 75
2, 22532, Note_on_c, 0, 63, 83
2, 22532, Note_on_c, 0, 66, 73
2, 22535, Note_on_c, 0, 70, 73
2, 22626, Note_on_c, 0, 66, 0
2, 22632, Note_on_c, 0, 70, 0
2, 22632, Note_on_c, 0, 63, 0
2, 22666, Note_on_c, 0, 66, 58
2, 22675, Note_on_c, 0, 60, 0
2, 22675, Note_on_c, 0, 63, 42
2, 22678, Note_on_c, 0, 70, 58
2, 22679, Note_on_c, 0, 72, 60
2, 22691, Note_on_c, 0, 66, 0
2, 22699, Note_on_c, 0, 72, 0
2, 22699, Note_on_c, 0, 63, 0
2, 22699, Note_on_c, 0, 70, 0
2, 22733, Note_on_c, 0, 63, 70
2, 22733, Note_on_c, 0, 66, 79
2, 22737, Note_on_c, 0, 72, 84
2, 22738, Note_on_c, 0, 89, 0
2, 22742, Note_on_c, 0, 77, 0
2, 22744, Note_on_c, 0, 70, 84
2, 22744, Note_on_c, 0, 78, 78
2, 22744, Note_on_c, 0, 90, 84
2, 22776, Control_c, 0, 64, 0
2, 22947, Note_on_c, 0, 84, 77
2, 22949, Note_on_c, 0, 90, 0
2, 22949, Note_on_c, 0, 78, 0
2, 22952, Note_on_c, 0, 27, 0
2, 22952, Note_on_c, 0, 39, 0
2, 22953, Note_on_c, 0, 66, 0
2, 22953, Note_on_c, 0, 63, 0
2, 22953, Note_on_c, 0, 72, 0
2, 22953, Note_on_c, 0, 70, 0
2, 22954, Note_on_c, 0, 29, 69
2, 22954, Note_on_c, 0, 41, 65
2, 22954, Note_on_c, 0, 89, 79
2, 22955, Note_on_c, 0, 81, 82
2, 22959, Note_on_c, 0, 77, 77
2, 23094, Note_on_c, 0, 69, 54
2, 23101, Note_on_c, 0, 60, 59
2, 23102, Note_on_c, 0, 57, 65
2, 23102, Note_on_c, 0, 65, 54
2, 23113, Control_c, 0, 64, 127
2, 23122, Note_on_c, 0, 57, 0
2, 23122, Note_on_c, 0, 60, 0
2, 23123, Note_on_c, 0, 69, 0
2, 23127, Note_on_c, 0, 65, 0
2, 23135, Note_on_c, 0, 84, 0
2, 23159, Note_on_c, 0, 57, 73
2, 23159, Note_on_c, 0, 60, 71
2, 23160, Note_on_c, 0, 65, 79
2, 23160, Note_on_c, 0, 69, 78
2, 23164, Note_on_c, 0, 81, 0
2, 23166, Note_on_c, 0, 72, 79
2, 23166, Note_on_c, 0, 84, 82
2, 23167, Note_on_c, 0, 89, 0
2, 23167, Note_on_c, 0, 77, 0
2, 23203, Control_c, 0, 64, 0
2, 23353, Note_on_c, 0, 29, 0
2, 23353, Note_on_c, 0, 86, 77
2, 23356, Note_on_c, 0, 34, 84
2, 23356, Note_on_c, 0, 46, 85
2, 23357, Note_on_c, 0, 41, 0
2, 23361, Note_on_c, 0, 72, 0
2, 23361, Note_on_c, 0, 84, 0
2, 23361, Note_on_c, 0, 57, 0
2, 23361, Note_on_c, 0, 60, 0
2, 23362, Note_on_c, 0, 69, 0
2, 23363, Note_on_c, 0, 77, 78
2, 23363, Note_on_c, 0, 80, 78
2, 23363, Note_on_c, 0, 89, 82
2, 23365, Note_on_c, 0, 65, 0
2, 23460, Note_on_c, 0, 86, 0
2, 23527, Note_on_c, 0, 68, 55
2, 23529, Note_on_c, 0, 58, 66
2, 23529, Note_on_c, 0, 62, 65
2, 23550, Note_on_c, 0, 62, 0
2, 23550, Note_on_c, 0, 58, 0
2, 23551, Note_on_c, 0, 68, 0
2, 23564, Control_c, 0, 64, 127
2, 23577, Note_on_c, 0, 74, 84
2, 23579, Note_on_c, 0, 86, 90
2, 23581, Note_on_c, 0, 62, 80
2, 23583, Note_on_c, 0, 89, 0
2, 23583, Note_on_c, 0, 77, 0
2, 23583, Note_on_c, 0, 80, 0
2, 23586, Note_on_c, 0, 68, 89
2, 23592, Note_on_c, 0, 58, 79
2, 23645, Control_c, 0, 64, 0
2, 23787, Note_on_c, 0, 34, 0
2, 23788, Note_on_c, 0, 62, 0
2, 23788, Note_on_c, 0, 58, 0
2, 23789, Note_on_c, 0, 68, 0
2, 23789, Note_on_c, 0, 74, 0
2, 23789, Note_on_c, 0, 86, 0
2, 23790, Note_on_c, 0, 39, 91
2, 23791, Note_on_c, 0, 75, 80
2, 23791, Note_on_c, 0, 82, 87
2, 23791, Note_on_c, 0, 87, 80
2, 23792, Note_on_c, 0, 79, 83
2, 23795, Note_on_c, 0, 46, 0
2, 23802, Note_on_c, 0, 51, 87
2, 23889, Note_on_c, 0, 82, 0
2, 23952, Note_on_c, 0, 55, 73
2, 23958, Note_on_c, 0, 67, 65
2, 23965, Note_on_c, 0, 58, 78
2, 23966, Note_on_c, 0, 63, 78
2, 23971, Control_c, 0, 64, 127
2, 23977, Note_on_c, 0, 55, 0
2, 23987, Note_on_c, 0, 63, 0
2, 23987, Note_on_c, 0, 67, 0
2, 23990, Note_on_c, 0, 58, 0
2, 24016, Note_on_c, 0, 70, 86
2, 24016, Note_on_c, 0, 82, 87
2, 24021, Note_on_c, 0, 55, 90
2, 24021, Note_on_c, 0, 58, 94
2, 24022, Note_on_c, 0, 63, 90
2, 24026, Note_on_c, 0, 87, 0
2, 24027, Note_on_c, 0, 75, 0
2, 24027, Note_on_c, 0, 79, 0
2, 24029, Note_on_c, 0, 67, 90
2, 24067, Control_c, 0, 64, 0
2, 24216, Note_on_c, 0, 39, 0
2, 24217, Note_on_c, 0, 67, 0
2, 24217, Note_on_c, 0, 82, 0
2, 24217, Note_on_c, 0, 58, 0
2, 24217, Note_on_c, 0, 63, 0
2, 24217, Note_on_c, 0, 70, 0
2, 24217, Note_on_c, 0, 32, 97
2, 24218, Note_on_c, 0, 44, 97
2, 24218, Note_on_c, 0, 84, 82
2, 24219, Note_on_c, 0, 78, 83
2, 24219, Note_on_c, 0, 87, 84
2, 24220, Note_on_c, 0, 55, 0
2, 24220, Note_on_c, 0, 51, 0
2, 24220, Note_on_c, 0, 75, 87
2, 24291, Note_on_c, 0, 84, 0
2, 24382, Control_c, 0, 64, 127
2, 24396, Note_on_c, 0, 60, 90
2, 24397, Note_on_c, 0, 68, 75
2, 24398, Note_on_c, 0, 66, 72
2, 24421, Note_on_c, 0, 66, 0
2, 24421, Note_on_c, 0, 68, 0
2, 24423, Note_on_c, 0, 60, 0
2, 24447, Note_on_c, 0, 87, 0
2, 24447, Note_on_c, 0, 78, 0
2, 24449, Note_on_c, 0, 84, 91
2, 24450, Note_on_c, 0, 72, 93
2, 24456, Note_on_c, 0, 66, 91
2, 24457, Note_on_c, 0, 68, 96
2, 24462, Note_on_c, 0, 75, 0
2, 24464, Note_on_c, 0, 60, 95
2, 24494, Control_c, 0, 64, 0
2, 24654, Note_on_c, 0, 32, 0
2, 24655, Note_on_c, 0, 60, 0
2, 24656, Note_on_c, 0, 66, 0
2, 24656, Note_on_c, 0, 84, 0
2, 24656, Note_on_c, 0, 72, 0
2, 24656, Note_on_c, 0, 68, 0
2, 24657, Note_on_c, 0, 37, 101
2, 24657, Note_on_c, 0, 77, 94
2, 24658, Note_on_c, 0, 49, 104
2, 24658, Note_on_c, 0, 73, 94
2, 24658, Note_on_c, 0, 80, 90
2, 24658, Note_on_c, 0, 85, 89
2, 24659, Note_on_c, 0, 44, 0
2, 24783, Note_on_c, 0, 77, 0
2, 24848, Note_on_c, 0, 65, 65
2, 24851, Control_c, 0, 64, 127
2, 24851, Note_on_c, 0, 53, 82
2, 24851, Note_on_c, 0, 61, 78
2, 24873, Note_on_c, 0, 61, 0
2, 24877, Note_on_c, 0, 53, 0
2, 24878, Note_on_c, 0, 65, 0
2, 24917, Note_on_c, 0, 61, 98
2, 24917, Note_on_c, 0, 77, 98
2, 24918, Note_on_c, 0, 65, 99
2, 24921, Note_on_c, 0, 53, 103
2, 24931, Note_on_c, 0, 80, 0
2, 24933, Control_c, 0, 64, 0
2, 24935, Note_on_c, 0, 85, 0
2, 25091, Note_on_c, 0, 73, 0
2, 25138, Note_on_c, 0, 37, 0
2, 25139, Note_on_c, 0, 61, 0
2, 25140, Note_on_c, 0, 53, 0
2, 25141, Note_on_c, 0, 77, 0
2, 25141, Note_on_c, 0, 65, 0
2, 25141, Note_on_c, 0, 31, 102
2, 25143, Note_on_c, 0, 70, 101
2, 25143, Note_on_c, 0, 73, 97
2, 25143, Note_on_c, 0, 82, 98
2, 25147, Note_on_c, 0, 49, 0
2, 25149, Note_on_c, 0, 43, 101
2, 25334, Control_c, 0, 64, 127
2, 25334, Note_on_c, 0, 61, 87
2, 25335, Note_on_c, 0, 55, 83
2, 25335, Note_on_c, 0, 58, 90
2, 25335, Note_on_c, 0, 65, 66
2, 25360, Note_on_c, 0, 58, 0
2, 25360, Note_on_c, 0, 55, 0
2, 25360, Note_on_c, 0, 61, 0
2, 25361, Note_on_c, 0, 65, 0
2, 25411, Note_on_c, 0, 55, 101
2, 25412, Note_on_c, 0, 58, 98
2, 25412, Note_on_c, 0, 61, 98
2, 25412, Note_on_c, 0, 65, 101
2, 25412, Note_on_c, 0, 72, 101
2, 25413, Note_on_c, 0, 84, 100
2, 25416, Note_on_c, 0, 73, 0
2, 25416, Note_on_c, 0, 70, 0
2, 25424, Note_on_c, 0, 82, 0
2, 25472, Control_c, 0, 64, 0
2, 25632, Note_on_c, 0, 61, 0
2, 25632, Note_on_c, 0, 31, 0
2, 25632, Note_on_c, 0, 58, 0
2, 25632, Note_on_c, 0, 55, 0
2, 25632, Note_on_c, 0, 84, 0
2, 25632, Note_on_c, 0, 65, 0
2, 25632, Note_on_c, 0, 72, 0
2, 25632, Note_on_c, 0, 43, 0
2, 25632, Note_on_c, 0, 32, 97
2, 25634, Note_on_c, 0, 44, 96
2, 25634, Note_on_c, 0, 73, 96
2, 25634, Note_on_c, 0, 77, 95
2, 25634, Note_on_c, 0, 80, 100
2, 25635, Note_on_c, 0, 68, 95
2, 25786, Note_on_c, 0, 80, 0
2, 25786, Note_on_c, 0, 77, 0
2, 25786, Note_on_c, 0, 73, 0
2, 25828, Note_on_c, 0, 65, 74
2, 25830, Note_on_c, 0, 89, 73
2, 25830, Note_on_c, 0, 92, 77
2, 25831, Note_on_c, 0, 73, 76
2, 25831, Note_on_c, 0, 80, 79
2, 25832, Note_on_c, 0, 77, 75
2, 25832, Note_on_c, 0, 85, 76
2, 25850, Control_c, 0, 64, 127
2, 25851, Note_on_c, 0, 85, 0
2, 25851, Note_on_c, 0, 77, 0
2, 25851, Note_on_c, 0, 73, 0
2, 25851, Note_on_c, 0, 80, 0
2, 25851, Note_on_c, 0, 89, 0
2, 25851, Note_on_c, 0, 92, 0
2, 25855, Note_on_c, 0, 65, 0
2, 25886, Note_on_c, 0, 89, 92
2, 25887, Note_on_c, 0, 73, 99
2, 25887, Note_on_c, 0, 92, 96
2, 25888, Note_on_c, 0, 65, 94
2, 25888, Note_on_c, 0, 70, 95
2, 25888, Note_on_c, 0, 77, 94
2, 25888, Note_on_c, 0, 82, 98
2, 25888, Note_on_c, 0, 85, 97
2, 25904, Note_on_c, 0, 68, 0
2, 26009, Note_on_c, 0, 82, 0
2, 26016, Note_on_c, 0, 89, 0
2, 26016, Note_on_c, 0, 77, 0
2, 26016, Note_on_c, 0, 73, 0
2, 26016, Note_on_c, 0, 85, 0
2, 26016, Note_on_c, 0, 65, 0
2, 26054, Note_on_c, 0, 92, 0
2, 26057, Note_on_c, 0, 65, 87
2, 26062, Note_on_c, 0, 61, 76
2, 26062, Note_on_c, 0, 68, 82
2, 26062, Note_on_c, 0, 73, 83
2, 26062, Note_on_c, 0, 77, 86
2, 26062, Note_on_c, 0, 80, 89
2, 26062, Note_on_c, 0, 85, 88
2, 26062, Note_on_c, 0, 89, 83
2, 26080, Note_on_c, 0, 89, 0
2, 26080, Note_on_c, 0, 77, 0
2, 26080, Note_on_c, 0, 85, 0
2, 26080, Note_on_c, 0, 73, 0
2, 26080, Note_on_c, 0, 65, 0
2, 26080, Note_on_c, 0, 80, 0
2, 26080, Note_on_c, 0, 61, 0
2, 26081, Note_on_c, 0, 68, 0
2, 26108, Note_on_c, 0, 68, 108
2, 26121, Note_on_c, 0, 65, 106
2, 26123, Note_on_c, 0, 84, 109
2, 26123, Note_on_c, 0, 89, 103
2, 26124, Note_on_c, 0, 61, 97
2, 26124, Note_on_c, 0, 72, 109
2, 26124, Note_on_c, 0, 73, 105
2, 26124, Note_on_c, 0, 77, 109
2, 26124, Note_on_c, 0, 80, 105
2, 26124, Note_on_c, 0, 85, 107
2, 26136, Note_on_c, 0, 70, 0
2, 26217, Note_on_c, 0, 85, 0
2, 26224, Note_on_c, 0, 61, 0
2, 26225, Note_on_c, 0, 65, 0
2, 26225, Note_on_c, 0, 73, 0
2, 26225, Note_on_c, 0, 68, 0
2, 26267, Note_on_c, 0, 61, 82
2, 26268, Note_on_c, 0, 65, 99
2, 26268, Note_on_c, 0, 68, 101
2, 26280, Note_on_c, 0, 77, 0
2, 26280, Note_on_c, 0, 80, 0
2, 26291, Note_on_c, 0, 68, 0
2, 26291, Note_on_c, 0, 61, 0
2, 26291, Note_on_c, 0, 65, 0
2, 26321, Note_on_c, 0, 89, 0
2, 26323, Note_on_c, 0, 61, 105
2, 26323, Note_on_c, 0, 85, 108
2, 26324, Note_on_c, 0, 68, 111
2, 26324, Note_on_c, 0, 73, 112
2, 26327, Note_on_c, 0, 80, 107
2, 26328, Note_on_c, 0, 77, 111
2, 26330, Note_on_c, 0, 65, 110
2, 26339, Note_on_c, 0, 72, 0
2, 26340, Note_on_c, 0, 84, 0
2, 26419, Note_on_c, 0, 61, 0
2, 26419, Note_on_c, 0, 65, 0
2, 26459, Note_on_c, 0, 68, 0
2, 26459, Note_on_c, 0, 61, 99
2, 26460, Note_on_c, 0, 65, 96
2, 26472, Note_on_c, 0, 53, 96
2, 26484, Note_on_c, 0, 61, 0
2, 26486, Note_on_c, 0, 65, 0
2, 26487, Note_on_c, 0, 80, 0
2, 26491, Note_on_c, 0, 53, 0
2, 26514, Note_on_c, 0, 53, 113
2, 26525, Note_on_c, 0, 73, 0
2, 26525, Note_on_c, 0, 77, 0
2, 26525, Note_on_c, 0, 85, 0
2, 26526, Note_on_c, 0, 61, 112
2, 26527, Note_on_c, 0, 65, 111
2, 26527, Note_on_c, 0, 75, 113
2, 26527, Note_on_c, 0, 80, 118
2, 26527, Note_on_c, 0, 87, 111
2, 26637, Note_on_c, 0, 61, 0
2, 26637, Note_on_c, 0, 53, 0
2, 26671, Note_on_c, 0, 49, 97
2, 26678, Note_on_c, 0, 65, 0
2, 26680, Note_on_c, 0, 53, 97
2, 26680, Note_on_c, 0, 61, 101
2, 26710, Note_on_c, 0, 49, 0
2, 26711, Note_on_c, 0, 61, 0
2, 26711, Note_on_c, 0, 53, 0
2, 26732, Note_on_c, 0, 49, 112
2, 26735, Control_c, 0, 64, 0
2, 26742, Note_on_c, 0, 87, 0
2, 26744, Note_on_c, 0, 89, 108
2, 26745, Note_on_c, 0, 80, 0
2, 26750, Note_on_c, 0, 75, 0
2, 26750, Note_on_c, 0, 53, 108
2, 26751, Note_on_c, 0, 61, 110
2, 26753, Note_on_c, 0, 77, 112
2, 26974, Note_on_c, 0, 32, 0
2, 26975, Note_on_c, 0, 44, 0
2, 26975, Note_on_c, 0, 49, 0
2, 26975, Note_on_c, 0, 61, 0
2, 26976, Note_on_c, 0, 89, 0
2, 26976, Note_on_c, 0, 53, 0
2, 26976, Note_on_c, 0, 77, 0
2, 26976, Note_on_c, 0, 27, 112
2, 26976, Note_on_c, 0, 39, 107
2, 26977, Note_on_c, 0, 75, 107
2, 26977, Note_on_c, 0, 87, 111
2, 26978, Note_on_c, 0, 79, 107
2, 26983, Note_on_c, 0, 82, 112
2, 27138, Control_c, 0, 64, 127
2, 27174, Note_on_c, 0, 58, 86
2, 27175, Note_on_c, 0, 63, 83
2, 27176, Note_on_c, 0, 67, 70
2, 27176, Note_on_c, 0, 70, 71
2, 27197, Note_on_c, 0, 67, 0
2, 27199, Note_on_c, 0, 70, 0
2, 27199, Note_on_c, 0, 58, 0
2, 27200, Note_on_c, 0, 63, 0
2, 27229, Note_on_c, 0, 87, 0
2, 27231, Note_on_c, 0, 89, 105
2, 27238, Note_on_c, 0, 75, 0
2, 27238, Note_on_c, 0, 82, 0
2, 27239, Note_on_c, 0, 79, 0
2, 27240, Note_on_c, 0, 67, 100
2, 27243, Note_on_c, 0, 63, 99
2, 27243, Note_on_c, 0, 70, 99
2, 27243, Note_on_c, 0, 77, 100
2, 27244, Note_on_c, 0, 58, 100
2, 27360, Note_on_c, 0, 63, 0
2, 27362, Note_on_c, 0, 67, 0
2, 27365, Note_on_c, 0, 58, 0
2, 27406, Note_on_c, 0, 70, 0
2, 27414, Note_on_c, 0, 55, 73
2, 27415, Note_on_c, 0, 58, 69
2, 27416, Note_on_c, 0, 63, 72
2, 27417, Note_on_c, 0, 67, 63
2, 27440, Note_on_c, 0, 63, 0
2, 27440, Note_on_c, 0, 58, 0
2, 27440, Note_on_c, 0, 55, 0
2, 27441, Note_on_c, 0, 67, 0
2, 27479, Note_on_c, 0, 89, 0
2, 27480, Note_on_c, 0, 55, 80
2, 27481, Note_on_c, 0, 67, 75
2, 27482, Note_on_c, 0, 77, 0
2, 27484, Note_on_c, 0, 58, 80
2, 27484, Note_on_c, 0, 63, 76
2, 27484, Note_on_c, 0, 75, 79
2, 27484, Note_on_c, 0, 82, 73
2, 27580, Control_c, 0, 64, 0
2, 27624, Note_on_c, 0, 63, 0
2, 27630, Note_on_c, 0, 55, 0
2, 27631, Note_on_c, 0, 58, 0
2, 27668, Note_on_c, 0, 67, 0
2, 27677, Note_on_c, 0, 51, 69
2, 27677, Note_on_c, 0, 55, 70
2, 27677, Note_on_c, 0, 58, 72
2, 27678, Note_on_c, 0, 63, 74
2, 27698, Note_on_c, 0, 55, 0
2, 27699, Note_on_c, 0, 63, 0
2, 27702, Note_on_c, 0, 51, 0
2, 27703, Note_on_c, 0, 58, 0
2, 27738, Note_on_c, 0, 83, 74
2, 27744, Note_on_c, 0, 55, 94
2, 27744, Note_on_c, 0, 58, 89
2, 27745, Note_on_c, 0, 51, 89
2, 27746, Note_on_c, 0, 63, 91
2, 27746, Note_on_c, 0, 67, 76
2, 27746, Note_on_c, 0, 71, 76
2, 27747, Note_on_c, 0, 82, 0
2, 27988, Note_on_c, 0, 39, 0
2, 27990, Note_on_c, 0, 44, 53
2, 27993, Note_on_c, 0, 32, 57
2, 27996, Note_on_c, 0, 51, 0
2, 27996, Note_on_c, 0, 27, 0
2, 27996, Note_on_c, 0, 55, 0
2, 27997, Note_on_c, 0, 75, 0
2, 27997, Note_on_c, 0, 63, 0
2, 27997, Note_on_c, 0, 67, 0
2, 27997, Note_on_c, 0, 58, 0
2, 27999, Note_on_c, 0, 78, 61
2, 28132, Control_c, 0, 64, 127
2, 28214, Note_on_c, 0, 63, 47
2, 28214, Note_on_c, 0, 66, 60
2, 28215, Note_on_c, 0, 56, 46
2, 28217, Note_on_c, 0, 60, 44
2, 28229, Note_on_c, 0, 78, 0
2, 28236, Note_on_c, 0, 60, 0
2, 28236, Note_on_c, 0, 56, 0
2, 28237, Note_on_c, 0, 63, 0
2, 28237, Note_on_c, 0, 66, 0
2, 28270, Note_on_c, 0, 84, 58
2, 28272, Note_on_c, 0, 83, 0
2, 28273, Note_on_c, 0, 78, 55
2, 28278, Note_on_c, 0, 71, 0
2, 28280, Note_on_c, 0, 56, 61
2, 28280, Note_on_c, 0, 60, 66
2, 28281, Note_on_c, 0, 63, 64
2, 28281, Note_on_c, 0, 66, 58
2, 28281, Note_on_c, 0, 72, 59
2, 28349, Control_c, 0, 64, 0
2, 28553, Note_on_c, 0, 32, 0
2, 28556, Note_on_c, 0, 25, 55
2, 28560, Note_on_c, 0, 78, 0
2, 28560, Note_on_c, 0, 60, 0
2, 28561, Note_on_c, 0, 66, 0
2, 28561, Note_on_c, 0, 72, 0
2, 28561, Note_on_c, 0, 63, 0
2, 28561, Note_on_c, 0, 37, 59
2, 28562, Note_on_c, 0, 80, 56
2, 28563, Note_on_c, 0, 73, 58
2, 28563, Note_on_c, 0, 77, 53
2, 28564, Note_on_c, 0, 56, 0
2, 28564, Note_on_c, 0, 44, 0
2, 28571, Note_on_c, 0, 85, 53
2, 28584, Note_on_c, 0, 84, 0
2, 28736, Note_on_c, 0, 73, 0
2, 28736, Control_c, 0, 64, 127
2, 28771, Note_on_c, 0, 49, 49
2, 28773, Note_on_c, 0, 80, 0
2, 28776, Note_on_c, 0, 77, 0
2, 28776, Note_on_c, 0, 85, 0
2, 28776, Note_on_c, 0, 65, 49
2, 28778, Note_on_c, 0, 61, 50
2, 28779, Note_on_c, 0, 68, 50
2, 28779, Note_on_c, 0, 73, 48
2, 28798, Note_on_c, 0, 61, 0
2, 28799, Note_on_c, 0, 73, 0
2, 28800, Note_on_c, 0, 68, 0
2, 28803, Note_on_c, 0, 65, 0
2, 28825, Note_on_c, 0, 61, 58
2, 28834, Note_on_c, 0, 65, 67
2, 28834, Note_on_c, 0, 73, 66
2, 28835, Note_on_c, 0, 68, 66
2, 28931, Note_on_c, 0, 61, 0
2, 28931, Note_on_c, 0, 49, 0
2, 28932, Note_on_c, 0, 73, 0
2, 28941, Note_on_c, 0, 65, 0
2, 28941, Note_on_c, 0, 68, 0
2, 28965, Note_on_c, 0, 49, 48
2, 28973, Note_on_c, 0, 61, 47
2, 28977, Note_on_c, 0, 73, 42
2, 28981, Note_on_c, 0, 65, 47
2, 28985, Note_on_c, 0, 68, 49
2, 28995, Note_on_c, 0, 61, 0
2, 28995, Note_on_c, 0, 49, 0
2, 28996, Note_on_c, 0, 73, 0
2, 29004, Note_on_c, 0, 68, 0
2, 29008, Note_on_c, 0, 65, 0
2, 29031, Note_on_c, 0, 49, 52
2, 29036, Note_on_c, 0, 65, 69
2, 29038, Note_on_c, 0, 61, 52
2, 29039, Note_on_c, 0, 73, 68
2, 29040, Note_on_c, 0, 68, 68
2, 29063, Control_c, 0, 64, 0
2, 29107, Note_on_c, 0, 61, 0
2, 29107, Note_on_c, 0, 49, 0
2, 29108, Note_on_c, 0, 73, 0
2, 29108, Note_on_c, 0, 65, 0
2, 29108, Note_on_c, 0, 68, 0
2, 29256, Note_on_c, 0, 25, 0
2, 29256, Note_on_c, 0, 37, 0
2, 29259, Note_on_c, 0, 56, 71
2, 29386, Control_c, 0, 64, 127
2, 29482, Note_on_c, 0, 56, 0
2, 29486, Note_on_c, 0, 53, 65
2, 29625, Control_c, 0, 64, 0
2, 29724, Note_on_c, 0, 51, 62
2, 29769, Note_on_c, 0, 53, 0
2, 29973, Note_on_c, 0, 37, 79
2, 29973, Note_on_c, 0, 49, 79
2, 30029, Control_c, 0, 67, 127
2, 30050, Note_on_c, 0, 51, 0
2, 30165, Note_on_c, 0, 83, 67
2, 30165, Note_on_c, 0, 86, 69
2, 30214, Note_on_c, 0, 83, 0
2, 30215, Note_on_c, 0, 86, 0
2, 30301, Note_on_c, 0, 80, 62
2, 30301, Note_on_c, 0, 83, 67
2, 30345, Note_on_c, 0, 83, 0
2, 30345, Note_on_c, 0, 80, 0
2, 30350, Control_c, 0, 64, 127
2, 30374, Note_on_c, 0, 53, 55
2, 30399, Note_on_c, 0, 59, 58
2, 30413, Note_on_c, 0, 62, 87
2, 30414, Note_on_c, 0, 49, 0
2, 30414, Note_on_c, 0, 37, 0
2, 30421, Note_on_c, 0, 77, 65
2, 30421, Note_on_c, 0, 80, 68
2, 30467, Note_on_c, 0, 80, 0
2, 30468, Note_on_c, 0, 77, 0
2, 30574, Note_on_c, 0, 71, 61
2, 30574, Note_on_c, 0, 77, 62
2, 30617, Note_on_c, 0, 77, 0
2, 30627, Note_on_c, 0, 71, 0
2, 30692, Note_on_c, 0, 68, 63
2, 30699, Note_on_c, 0, 71, 59
2, 30740, Note_on_c, 0, 71, 0
2, 30741, Note_on_c, 0, 68, 0
2, 30763, Note_on_c, 0, 59, 0
2, 30807, Note_on_c, 0, 53, 0
2, 30807, Note_on_c, 0, 65, 52
2, 30810, Note_on_c, 0, 59, 55
2, 30811, Note_on_c, 0, 68, 52
2, 30866, Note_on_c, 0, 65, 0
2, 30881, Note_on_c, 0, 68, 0
2, 30885, Note_on_c, 0, 59, 0
2, 30944, Note_on_c, 0, 65, 51
2, 30947, Note_on_c, 0, 59, 51
2, 30988, Note_on_c, 0, 65, 0
2, 30996, Note_on_c, 0, 59, 0
2, 31057, Note_on_c, 0, 53, 60
2, 31069, Control_c, 0, 64, 0
2, 31083, Note_on_c, 0, 59, 53
2, 31115, Note_on_c, 0, 62, 0
2, 31148, Note_on_c, 0, 59, 0
2, 31293, Note_on_c, 0, 54, 49
2, 31304, Note_on_c, 0, 57, 52
2, 31306, Note_on_c, 0, 53, 0
2, 31307, Note_on_c, 0, 37, 53
2, 31307, Note_on_c, 0, 49, 49
2, 31520, Control_c, 0, 64, 127
2, 31669, Note_on_c, 0, 57, 0
2, 31672, Note_on_c, 0, 49, 0
2, 31708, Note_on_c, 0, 54, 0
2, 31710, Note_on_c, 0, 49, 50
2, 31710, Note_on_c, 0, 57, 45
2, 31725, Control_c, 0, 67, 0
2, 31791, Control_c, 0, 64, 0
2, 31911, Note_on_c, 0, 61, 58
2, 31912, Note_on_c, 0, 49, 0
2, 31916, Note_on_c, 0, 57, 0
2, 32090, Note_on_c, 0, 61, 0
2, 32091, Note_on_c, 0, 57, 53
2, 32100, Control_c, 0, 64, 127
2, 32269, Note_on_c, 0, 57, 0
2, 32276, Note_on_c, 0, 54, 57
2, 32311, Control_c, 0, 64, 0
2, 32448, Note_on_c, 0, 37, 0
2, 32488, Note_on_c, 0, 51, 48
2, 32490, Note_on_c, 0, 37, 46
2, 32493, Note_on_c, 0, 54, 0
2, 32532, Control_c, 0, 67, 127
2, 32648, Note_on_c, 0, 81, 42
2, 32656, Note_on_c, 0, 84, 43
2, 32664, Control_c, 0, 64, 127
2, 32693, Note_on_c, 0, 84, 0
2, 32693, Note_on_c, 0, 81, 0
2, 32774, Note_on_c, 0, 81, 46
2, 32775, Note_on_c, 0, 78, 41
2, 32837, Note_on_c, 0, 78, 0
2, 32838, Note_on_c, 0, 81, 0
2, 32866, Note_on_c, 0, 54, 41
2, 32882, Note_on_c, 0, 78, 41
2, 32883, Note_on_c, 0, 51, 0
2, 32893, Note_on_c, 0, 75, 46
2, 32901, Note_on_c, 0, 57, 72
2, 32940, Note_on_c, 0, 75, 0
2, 32940, Note_on_c, 0, 78, 0
2, 33035, Note_on_c, 0, 75, 46
2, 33036, Note_on_c, 0, 72, 47
2, 33096, Note_on_c, 0, 72, 0
2, 33096, Note_on_c, 0, 75, 0
2, 33181, Note_on_c, 0, 72, 45
2, 33182, Note_on_c, 0, 66, 41
2, 33225, Note_on_c, 0, 72, 0
2, 33240, Note_on_c, 0, 66, 0
2, 33312, Note_on_c, 0, 60, 45
2, 33312, Note_on_c, 0, 63, 48
2, 33321, Note_on_c, 0, 66, 47
2, 33412, Note_on_c, 0, 60, 0
2, 33413, Note_on_c, 0, 63, 0
2, 33456, Note_on_c, 0, 66, 0
2, 33456, Note_on_c, 0, 60, 41
2, 33458, Note_on_c, 0, 63, 45
2, 33470, Control_c, 0, 64, 0
2, 33648, Note_on_c, 0, 54, 0
2, 33649, Note_on_c, 0, 56, 54
2, 33651, Note_on_c, 0, 57, 0
2, 33753, Note_on_c, 0, 37, 0
2, 33792, Note_on_c, 0, 37, 60
2, 33816, Note_on_c, 0, 56, 0
2, 33817, Note_on_c, 0, 60, 0
2, 33817, Note_on_c, 0, 63, 0
2, 33819, Note_on_c, 0, 49, 59
2, 33820, Note_on_c, 0, 53, 57
2, 33851, Note_on_c, 0, 53, 0
2, 33892, Control_c, 0, 64, 127
2, 34110, Note_on_c, 0, 53, 43
2, 34137, Note_on_c, 0, 56, 41
2, 34150, Note_on_c, 0, 61, 58
2, 34157, Note_on_c, 0, 53, 0
2, 34163, Note_on_c, 0, 56, 0
2, 34182, Note_on_c, 0, 61, 0
2, 34437, Note_on_c, 0, 56, 48
2, 34453, Note_on_c, 0, 61, 44
2, 34469, Note_on_c, 0, 65, 59
2, 34475, Control_c, 0, 67, 0
2, 34493, Note_on_c, 0, 56, 0
2, 34497, Note_on_c, 0, 61, 0
2, 34517, Note_on_c, 0, 65, 0
2, 34796, Note_on_c, 0, 53, 65
2, 34805, Note_on_c, 0, 65, 70
2, 34816, Control_c, 0, 64, 0
2, 35235, Note_on_c, 0, 49, 0
2, 35235, Note_on_c, 0, 37, 0
2, 35791, Note_on_c, 0, 37, 68
2, 35791, Note_on_c, 0, 49, 67
2, 35818, Note_on_c, 0, 53, 0
2, 35818, Note_on_c, 0, 65, 0
2, 35880, Control_c, 0, 64, 127
2, 36062, Note_on_c, 0, 53, 74
2, 36070, Note_on_c, 0, 56, 74
2, 36086, Note_on_c, 0, 61, 72
2, 36119, Note_on_c, 0, 53, 0
2, 36125, Note_on_c, 0, 56, 0
2, 36142, Note_on_c, 0, 61, 0
2, 36383, Note_on_c, 0, 56, 57
2, 36391, Note_on_c, 0, 61, 61
2, 36399, Note_on_c, 0, 65, 71
2, 36429, Note_on_c, 0, 56, 0
2, 36437, Note_on_c, 0, 61, 0
2, 36449, Note_on_c, 0, 65, 0
2, 36811, Note_on_c, 0, 65, 73
2, 36814, Note_on_c, 0, 53, 64
2, 36861, Control_c, 0, 64, 0
2, 37063, Note_on_c, 0, 37, 0
2, 37063, Note_on_c, 0, 49, 0
2, 37809, Note_on_c, 0, 36, 62
2, 37819, Note_on_c, 0, 65, 0
2, 37822, Note_on_c, 0, 53, 0
2, 37823, Note_on_c, 0, 48, 65
2, 37858, Control_c, 0, 64, 127
2, 38064, Note_on_c, 0, 53, 48
2, 38100, Note_on_c, 0, 57, 41
2, 38114, Note_on_c, 0, 53, 0
2, 38132, Note_on_c, 0, 63, 64
2, 38150, Note_on_c, 0, 57, 0
2, 38173, Note_on_c, 0, 63, 0
2, 38384, Note_on_c, 0, 57, 48
2, 38420, Note_on_c, 0, 63, 52
2, 38452, Note_on_c, 0, 65, 64
2, 38490, Note_on_c, 0, 57, 0
2, 38521, Note_on_c, 0, 63, 0
2, 38559, Note_on_c, 0, 65, 0
2, 38640, Control_c, 0, 64, 0
2, 38812, Note_on_c, 0, 36, 0
2, 38813, Note_on_c, 0, 48, 0
2, 38813, Note_on_c, 0, 65, 77
2, 38816, Note_on_c, 0, 53, 65
2, 39763, Note_on_c, 0, 35, 99
2, 39763, Note_on_c, 0, 47, 94
2, 39822, Control_c, 0, 64, 127
2, 39831, Note_on_c, 0, 53, 0
2, 39831, Note_on_c, 0, 65, 0
2, 40047, Note_on_c, 0, 53, 92
2, 40054, Note_on_c, 0, 56, 90
2, 40079, Note_on_c, 0, 62, 95
2, 40321, Note_on_c, 0, 56, 0
2, 40352, Note_on_c, 0, 62, 0
2, 40364, Note_on_c, 0, 56, 93
2, 40374, Note_on_c, 0, 53, 0
2, 40400, Note_on_c, 0, 62, 91
2, 40432, Note_on_c, 0, 65, 95
2, 40720, Note_on_c, 0, 65, 0
2, 40810, Control_c, 0, 64, 0
2, 40835, Note_on_c, 0, 65, 109
2, 40837, Note_on_c, 0, 53, 104
2, 40839, Note_on_c, 0, 56, 0
2, 40839, Note_on_c, 0, 62, 0
2, 41036, Control_c, 0, 67, 127
2, 41103, Note_on_c, 0, 47, 0
2, 41103, Note_on_c, 0, 35, 0
2, 41777, Control_c, 0, 64, 127
2, 42028, Note_on_c, 0, 53, 0
2, 42029, Note_on_c, 0, 65, 0
2, 42075, Control_c, 0, 64, 0
2, 42077, Note_on_c, 0, 72, 50
2, 42083, Note_on_c, 0, 60, 42
2, 42084, Note_on_c, 0, 48, 42
2, 42085, Note_on_c, 0, 65, 48
2, 42089, Note_on_c, 0, 53, 47
2, 42089, Note_on_c, 0, 68, 54
2, 42616, Control_c, 0, 64, 127
2, 42664, Note_on_c, 0, 60, 0
2, 42681, Note_on_c, 0, 72, 0
2, 42735, Note_on_c, 0, 60, 47
2, 42743, Note_on_c, 0, 72, 56
2, 42751, Note_on_c, 0, 68, 0
2, 42968, Note_on_c, 0, 72, 0
2, 42977, Note_on_c, 0, 60, 0
2, 43032, Note_on_c, 0, 72, 49
2, 43039, Note_on_c, 0, 60, 45
2, 43058, Note_on_c, 0, 65, 0
2, 43066, Note_on_c, 0, 72, 0
2, 43066, Note_on_c, 0, 60, 0
2, 43111, Note_on_c, 0, 60, 56
2, 43112, Note_on_c, 0, 72, 66
2, 43187, Control_c, 0, 64, 0
2, 43223, Note_on_c, 0, 60, 0
2, 43223, Note_on_c, 0, 48, 0
2, 43224, Note_on_c, 0, 72, 0
2, 43290, Note_on_c, 0, 60, 45
2, 43291, Note_on_c, 0, 48, 44
2, 43291, Note_on_c, 0, 72, 53
2, 43292, Note_on_c, 0, 53, 0
2, 43453, Note_on_c, 0, 74, 50
2, 43460, Note_on_c, 0, 50, 56
2, 43460, Note_on_c, 0, 62, 51
2, 43509, Note_on_c, 0, 72, 0
2, 43517, Note_on_c, 0, 60, 0
2, 43517, Note_on_c, 0, 48, 0
2, 43602, Note_on_c, 0, 74, 0
2, 43604, Note_on_c, 0, 77, 55
2, 43608, Note_on_c, 0, 62, 0
2, 43609, Note_on_c, 0, 53, 57
2, 43609, Note_on_c, 0, 65, 58
2, 43660, Note_on_c, 0, 50, 0
2, 43758, Note_on_c, 0, 72, 58
2, 43766, Note_on_c, 0, 80, 61
2, 43767, Note_on_c, 0, 68, 57
2, 43769, Note_on_c, 0, 56, 60
2, 43815, Note_on_c, 0, 53, 0
2, 43818, Note_on_c, 0, 77, 0
2, 43822, Note_on_c, 0, 65, 0
2, 43866, Note_on_c, 0, 72, 0
2, 43879, Control_c, 0, 64, 127
2, 43922, Note_on_c, 0, 80, 0
2, 43924, Note_on_c, 0, 84, 60
2, 43925, Note_on_c, 0, 56, 0
2, 43926, Note_on_c, 0, 72, 63
2, 43927, Note_on_c, 0, 60, 55
2, 43934, Note_on_c, 0, 68, 0
2, 43982, Note_on_c, 0, 72, 0
2, 44040, Note_on_c, 0, 72, 44
2, 44065, Note_on_c, 0, 72, 0
2, 44079, Control_c, 0, 64, 0
2, 44095, Note_on_c, 0, 84, 0
2, 44095, Control_c, 0, 67, 0
2, 44102, Note_on_c, 0, 85, 62
2, 44105, Note_on_c, 0, 61, 54
2, 44106, Note_on_c, 0, 60, 0
2, 44109, Note_on_c, 0, 72, 61
2, 44110, Note_on_c, 0, 73, 61
2, 44177, Note_on_c, 0, 61, 0
2, 44178, Note_on_c, 0, 85, 0
2, 44178, Note_on_c, 0, 73, 0
2, 44282, Note_on_c, 0, 55, 51
2, 44284, Note_on_c, 0, 67, 48
2, 44284, Note_on_c, 0, 79, 49
2, 44311, Note_on_c, 0, 72, 0
2, 44449, Note_on_c, 0, 72, 54
2, 44455, Note_on_c, 0, 60, 51
2, 44456, Note_on_c, 0, 84, 51
2, 44502, Note_on_c, 0, 55, 0
2, 44511, Note_on_c, 0, 79, 0
2, 44511, Note_on_c, 0, 67, 0
2, 44594, Note_on_c, 0, 62, 55
2, 44595, Note_on_c, 0, 74, 52
2, 44595, Note_on_c, 0, 86, 49
2, 44631, Note_on_c, 0, 60, 0
2, 44640, Note_on_c, 0, 72, 0
2, 44640, Note_on_c, 0, 84, 0
2, 44750, Note_on_c, 0, 65, 55
2, 44750, Note_on_c, 0, 72, 51
2, 44757, Note_on_c, 0, 74, 0
2, 44762, Note_on_c, 0, 77, 55
2, 44762, Note_on_c, 0, 89, 55
2, 44814, Note_on_c, 0, 86, 0
2, 44832, Note_on_c, 0, 62, 0
2, 44854, Control_c, 0, 64, 127
2, 44911, Note_on_c, 0, 65, 0
2, 44911, Note_on_c, 0, 67, 58
2, 44915, Note_on_c, 0, 72, 0
2, 44915, Note_on_c, 0, 77, 0
2, 44915, Note_on_c, 0, 89, 0
2, 44918, Note_on_c, 0, 91, 59
2, 44922, Note_on_c, 0, 79, 56
2, 45050, Note_on_c, 0, 72, 63
2, 45060, Control_c, 0, 64, 0
2, 45073, Note_on_c, 0, 72, 0
2, 45112, Note_on_c, 0, 91, 0
2, 45113, Note_on_c, 0, 79, 0
2, 45114, Note_on_c, 0, 96, 58
2, 45118, Note_on_c, 0, 72, 62
2, 45118, Note_on_c, 0, 84, 60
2, 45120, Note_on_c, 0, 67, 0
2, 45184, Note_on_c, 0, 96, 0
2, 45191, Note_on_c, 0, 84, 0
2, 45296, Note_on_c, 0, 73, 63
2, 45296, Note_on_c, 0, 85, 67
2, 45302, Note_on_c, 0, 72, 0
2, 45305, Note_on_c, 0, 97, 67
2, 45479, Note_on_c, 0, 86, 65
2, 45480, Note_on_c, 0, 74, 66
2, 45481, Note_on_c, 0, 98, 63
2, 45544, Note_on_c, 0, 85, 0
2, 45545, Note_on_c, 0, 97, 0
2, 45547, Note_on_c, 0, 73, 0
2, 45695, Note_on_c, 0, 74, 0
2, 45696, Note_on_c, 0, 91, 48
2, 45697, Note_on_c, 0, 67, 51
2, 45705, Note_on_c, 0, 79, 50
2, 45711, Note_on_c, 0, 86, 0
2, 45726, Note_on_c, 0, 98, 0
2, 45773, Note_on_c, 0, 91, 0
2, 45774, Note_on_c, 0, 67, 0
2, 45782, Note_on_c, 0, 79, 0
2, 45893, Note_on_c, 0, 94, 56
2, 45903, Note_on_c, 0, 70, 59
2, 45907, Note_on_c, 0, 82, 53
2, 45965, Note_on_c, 0, 94, 0
2, 45974, Note_on_c, 0, 82, 0
2, 45974, Note_on_c, 0, 70, 0
2, 46077, Note_on_c, 0, 93, 58
2, 46080, Note_on_c, 0, 81, 54
2, 46088, Note_on_c, 0, 69, 57
2, 46172, Note_on_c, 0, 93, 0
2, 46176, Note_on_c, 0, 81, 0
2, 46183, Note_on_c, 0, 69, 0
2, 46294, Note_on_c, 0, 84, 56
2, 46295, Note_on_c, 0, 72, 59
2, 46296, Control_c, 0, 64, 127
2, 46296, Note_on_c, 0, 96, 61
2, 46380, Control_c, 0, 64, 0
2, 46511, Note_on_c, 0, 66, 48
2, 46511, Note_on_c, 0, 90, 47
2, 46514, Note_on_c, 0, 78, 44
2, 46522, Note_on_c, 0, 96, 0
2, 46523, Note_on_c, 0, 84, 0
2, 46524, Note_on_c, 0, 72, 0
2, 46608, Note_on_c, 0, 66, 0
2, 46608, Note_on_c, 0, 78, 0
2, 46608, Note_on_c, 0, 90, 0
2, 46728, Control_c, 0, 64, 127
2, 46728, Note_on_c, 0, 80, 57
2, 46728, Note_on_c, 0, 92, 57
2, 46728, Note_on_c, 0, 68, 59
2, 46814, Control_c, 0, 64, 0
2, 46950, Note_on_c, 0, 92, 0
2, 46950, Note_on_c, 0, 80, 0
2, 46954, Note_on_c, 0, 68, 0
2, 46956, Note_on_c, 0, 67, 51
2, 46956, Note_on_c, 0, 91, 49
2, 46957, Note_on_c, 0, 79, 50
2, 47042, Note_on_c, 0, 91, 0
2, 47043, Note_on_c, 0, 79, 0
2, 47043, Note_on_c, 0, 67, 0
2, 47149, Note_on_c, 0, 88, 49
2, 47159, Note_on_c, 0, 64, 53
2, 47159, Note_on_c, 0, 76, 51
2, 47237, Note_on_c, 0, 64, 0
2, 47237, Note_on_c, 0, 88, 0
2, 47238, Note_on_c, 0, 76, 0
2, 47345, Note_on_c, 0, 59, 52
2, 47345, Note_on_c, 0, 71, 52
2, 47345, Note_on_c, 0, 83, 49
2, 47353, Control_c, 0, 67, 127
2, 47448, Note_on_c, 0, 83, 0
2, 47448, Note_on_c, 0, 71, 0
2, 47448, Note_on_c, 0, 59, 0
2, 47546, Note_on_c, 0, 61, 50
2, 47547, Note_on_c, 0, 85, 61
2, 47554, Note_on_c, 0, 73, 55
2, 47620, Control_c, 0, 64, 127
2, 47709, Control_c, 0, 64, 0
2, 47786, Note_on_c, 0, 61, 0
2, 47788, Note_on_c, 0, 60, 43
2, 47796, Note_on_c, 0, 85, 0
2, 47798, Note_on_c, 0, 84, 52
2, 47804, Note_on_c, 0, 73, 0
2, 47807, Note_on_c, 0, 72, 54
2, 47891, Note_on_c, 0, 60, 0
2, 47892, Note_on_c, 0, 72, 0
2, 47892, Note_on_c, 0, 84, 0
2, 48025, Note_on_c, 0, 56, 49
2, 48034, Note_on_c, 0, 80, 49
2, 48035, Note_on_c, 0, 68, 52
2, 48074, Note_on_c, 0, 56, 0
2, 48078, Note_on_c, 0, 80, 0
2, 48082, Note_on_c, 0, 68, 0
2, 48236, Note_on_c, 0, 55, 48
2, 48241, Note_on_c, 0, 67, 48
2, 48242, Note_on_c, 0, 79, 51
2, 48286, Note_on_c, 0, 79, 0
2, 48286, Note_on_c, 0, 67, 0
2, 48288, Note_on_c, 0, 55, 0
2, 48422, Note_on_c, 0, 52, 48
2, 48431, Note_on_c, 0, 64, 49
2, 48431, Note_on_c, 0, 76, 47
2, 48456, Note_on_c, 0, 52, 0
2, 48458, Note_on_c, 0, 64, 0
2, 48459, Note_on_c, 0, 76, 0
2, 48654, Note_on_c, 0, 47, 47
2, 48655, Note_on_c, 0, 71, 54
2, 48656, Note_on_c, 0, 59, 47
2, 48710, Note_on_c, 0, 71, 0
2, 48713, Note_on_c, 0, 47, 0
2, 48714, Note_on_c, 0, 59, 0
2, 48904, Note_on_c, 0, 61, 58
2, 48905, Note_on_c, 0, 49, 54
2, 48906, Note_on_c, 0, 73, 54
2, 49156, Note_on_c, 0, 73, 0
2, 49156, Note_on_c, 0, 49, 0
2, 49156, Note_on_c, 0, 61, 0
2, 49157, Note_on_c, 0, 48, 54
2, 49158, Note_on_c, 0, 60, 48
2, 49158, Note_on_c, 0, 72, 45
2, 49272, Note_on_c, 0, 72, 0
2, 49272, Note_on_c, 0, 60, 0
2, 49272, Note_on_c, 0, 48, 0
2, 49401, Note_on_c, 0, 68, 48
2, 49402, Note_on_c, 0, 56, 41
2, 49404, Note_on_c, 0, 44, 41
2, 49506, Note_on_c, 0, 68, 0
2, 49508, Note_on_c, 0, 44, 0
2, 49508, Note_on_c, 0, 56, 0
2, 49655, Note_on_c, 0, 40, 46
2, 49655, Note_on_c, 0, 52, 42
2, 49655, Note_on_c, 0, 64, 48
2, 49715, Note_on_c, 0, 40, 0
2, 49717, Note_on_c, 0, 64, 0
2, 49726, Note_on_c, 0, 52, 0
2, 49921, Note_on_c, 0, 47, 47
2, 49922, Note_on_c, 0, 35, 45
2, 49923, Note_on_c, 0, 59, 46
2, 50044, Note_on_c, 0, 59, 0
2, 50046, Note_on_c, 0, 47, 0
2, 50078, Note_on_c, 0, 35, 0
2, 50280, Note_on_c, 0, 36, 48
2, 50281, Note_on_c, 0, 48, 47
2, 50281, Note_on_c, 0, 60, 42
2, 50411, Note_on_c, 0, 36, 0
2, 50412, Note_on_c, 0, 48, 0
2, 50413, Note_on_c, 0, 60, 0
2, 50700, Note_on_c, 0, 37, 41
2, 50701, Note_on_c, 0, 49, 48
2, 50702, Note_on_c, 0, 61, 48
2, 50721, Control_c, 0, 64, 127
2, 50742, Note_on_c, 0, 37, 0
2, 50745, Note_on_c, 0, 49, 0
2, 50782, Note_on_c, 0, 61, 0
2, 50855, Control_c, 0, 64, 0
2, 51338, Note_on_c, 0, 31, 44
2, 51338, Note_on_c, 0, 43, 48
2, 51339, Note_on_c, 0, 55, 42
2, 51340, Control_c, 0, 64, 127
2, 51384, Note_on_c, 0, 31, 0
2, 51387, Note_on_c, 0, 43, 0
2, 51446, Note_on_c, 0, 55, 0
2, 51487, Control_c, 0, 64, 0
2, 52049, Note_on_c, 0, 36, 44
2, 52050, Note_on_c, 0, 48, 45
2, 52050, Note_on_c, 0, 60, 48
2, 52336, Control_c, 0, 64, 127
2, 52538, Control_c, 0, 64, 0
2, 53000, Note_on_c, 0, 36, 0
2, 53002, Note_on_c, 0, 60, 0
2, 53002, Note_on_c, 0, 48, 0
2, 53495, Note_on_c, 0, 28, 59
2, 53522, Note_on_c, 0, 28, 0
2, 53537, Note_on_c, 0, 40, 41
2, 53570, Note_on_c, 0, 40, 0
2, 53596, Note_on_c, 0, 29, 46
2, 53625, Note_on_c, 0, 29, 0
2, 53654, Note_on_c, 0, 41, 47
2, 53688, Note_on_c, 0, 41, 0
2, 53713, Note_on_c, 0, 28, 50
2, 53746, Note_on_c, 0, 28, 0
2, 53766, Note_on_c, 0, 40, 45
2, 53794, Note_on_c, 0, 40, 0
2, 53816, Note_on_c, 0, 29, 48
2, 53847, Note_on_c, 0, 29, 0
2, 53860, Note_on_c, 0, 41, 46
2, 53889, Note_on_c, 0, 41, 0
2, 53908, Note_on_c, 0, 32, 61
2, 53941, Note_on_c, 0, 32, 0
2, 53949, Note_on_c, 0, 44, 48
2, 53977, Note_on_c, 0, 44, 0
2, 53996, Note_on_c, 0, 33, 46
2, 54030, Note_on_c, 0, 33, 0
2, 54032, Note_on_c, 0, 45, 55
2, 54063, Note_on_c, 0, 45, 0
2, 54083, Note_on_c, 0, 32, 54
2, 54110, Note_on_c, 0, 44, 47
2, 54115, Note_on_c, 0, 32, 0
2, 54143, Note_on_c, 0, 44, 0
2, 54166, Note_on_c, 0, 33, 47
2, 54193, Note_on_c, 0, 45, 50
2, 54194, Note_on_c, 0, 33, 0
2, 54223, Note_on_c, 0, 45, 0
2, 54254, Note_on_c, 0, 35, 62
2, 54277, Note_on_c, 0, 47, 53
2, 54283, Note_on_c, 0, 35, 0
2, 54310, Note_on_c, 0, 47, 0
2, 54327, Note_on_c, 0, 36, 47
2, 54351, Note_on_c, 0, 48, 53
2, 54359, Note_on_c, 0, 36, 0
2, 54387, Note_on_c, 0, 48, 0
2, 54406, Note_on_c, 0, 35, 51
2, 54434, Note_on_c, 0, 35, 0
2, 54448, Note_on_c, 0, 47, 51
2, 54476, Note_on_c, 0, 47, 0
2, 54489, Note_on_c, 0, 36, 51
2, 54513, Note_on_c, 0, 48, 53
2, 54521, Note_on_c, 0, 36, 0
2, 54545, Note_on_c, 0, 48, 0
2, 54570, Control_c, 0, 67, 0
2, 54575, Note_on_c, 0, 40, 69
2, 54606, Note_on_c, 0, 40, 0
2, 54609, Note_on_c, 0, 52, 49
2, 54629, Note_on_c, 0, 52, 0
2, 54649, Note_on_c, 0, 41, 49
2, 54682, Note_on_c, 0, 41, 0
2, 54692, Note_on_c, 0, 53, 49
2, 54712, Note_on_c, 0, 40, 60
2, 54720, Note_on_c, 0, 53, 0
2, 54735, Note_on_c, 0, 52, 56
2, 54752, Note_on_c, 0, 40, 0
2, 54771, Note_on_c, 0, 52, 0
2, 54780, Note_on_c, 0, 41, 50
2, 54812, Note_on_c, 0, 41, 0
2, 54822, Note_on_c, 0, 53, 55
2, 54854, Note_on_c, 0, 53, 0
2, 54868, Note_on_c, 0, 32, 70
2, 54901, Note_on_c, 0, 32, 0
2, 54904, Note_on_c, 0, 44, 58
2, 54915, Note_on_c, 0, 56, 62
2, 54924, Note_on_c, 0, 44, 0
2, 54936, Note_on_c, 0, 56, 0
2, 54944, Note_on_c, 0, 33, 63
2, 54973, Note_on_c, 0, 33, 0
2, 54984, Note_on_c, 0, 57, 55
2, 54986, Note_on_c, 0, 45, 52
2, 55015, Note_on_c, 0, 45, 0
2, 55015, Note_on_c, 0, 57, 0
2, 55015, Note_on_c, 0, 32, 63
2, 55049, Note_on_c, 0, 32, 0
2, 55058, Note_on_c, 0, 44, 56
2, 55070, Note_on_c, 0, 56, 54
2, 55090, Note_on_c, 0, 44, 0
2, 55099, Note_on_c, 0, 56, 0
2, 55106, Note_on_c, 0, 33, 56
2, 55139, Note_on_c, 0, 33, 0
2, 55144, Note_on_c, 0, 45, 51
2, 55144, Note_on_c, 0, 57, 57
2, 55172, Note_on_c, 0, 57, 0
2, 55172, Note_on_c, 0, 45, 0
2, 55177, Note_on_c, 0, 35, 71
2, 55208, Note_on_c, 0, 35, 0
2, 55218, Note_on_c, 0, 47, 51
2, 55223, Note_on_c, 0, 59, 58
2, 55251, Note_on_c, 0, 47, 0
2, 55252, Note_on_c, 0, 59, 0
2, 55262, Note_on_c, 0, 36, 62
2, 55296, Note_on_c, 0, 36, 0
2, 55307, Note_on_c, 0, 48, 55
2, 55307, Note_on_c, 0, 60, 52
2, 55340, Note_on_c, 0, 60, 0
2, 55340, Note_on_c, 0, 48, 0
2, 55349, Note_on_c, 0, 35, 70
2, 55383, Note_on_c, 0, 35, 0
2, 55385, Note_on_c, 0, 47, 56
2, 55387, Note_on_c, 0, 59, 59
2, 55416, Note_on_c, 0, 59, 0
2, 55417, Note_on_c, 0, 47, 0
2, 55427, Note_on_c, 0, 36, 64
2, 55461, Note_on_c, 0, 36, 0
2, 55472, Note_on_c, 0, 48, 63
2, 55472, Note_on_c, 0, 60, 61
2, 55501, Note_on_c, 0, 60, 0
2, 55501, Note_on_c, 0, 48, 0
2, 55515, Note_on_c, 0, 40, 78
2, 55549, Note_on_c, 0, 40, 0
2, 55556, Note_on_c, 0, 52, 58
2, 55558, Note_on_c, 0, 64, 55
2, 55591, Note_on_c, 0, 52, 0
2, 55592, Note_on_c, 0, 64, 0
2, 55592, Note_on_c, 0, 41, 67
2, 55628, Note_on_c, 0, 41, 0
2, 55635, Note_on_c, 0, 65, 63
2, 55640, Note_on_c, 0, 53, 58
2, 55669, Note_on_c, 0, 53, 0
2, 55669, Note_on_c, 0, 65, 0
2, 55669, Note_on_c, 0, 40, 71
2, 55704, Note_on_c, 0, 40, 0
2, 55714, Note_on_c, 0, 52, 55
2, 55719, Note_on_c, 0, 64, 58
2, 55741, Note_on_c, 0, 52, 0
2, 55742, Note_on_c, 0, 64, 0
2, 55761, Note_on_c, 0, 41, 63
2, 55794, Note_on_c, 0, 41, 0
2, 55795, Note_on_c, 0, 65, 63
2, 55798, Note_on_c, 0, 53, 66
2, 55825, Note_on_c, 0, 53, 0
2, 55826, Note_on_c, 0, 65, 0
2, 55840, Note_on_c, 0, 44, 80
2, 55872, Note_on_c, 0, 44, 0
2, 55893, Note_on_c, 0, 68, 72
2, 55895, Note_on_c, 0, 56, 58
2, 55922, Note_on_c, 0, 56, 0
2, 55924, Note_on_c, 0, 68, 0
2, 55925, Note_on_c, 0, 45, 59
2, 55959, Note_on_c, 0, 45, 0
2, 55962, Note_on_c, 0, 57, 63
2, 55963, Note_on_c, 0, 69, 60
2, 55990, Note_on_c, 0, 69, 0
2, 55990, Note_on_c, 0, 44, 70
2, 55992, Note_on_c, 0, 57, 0
2, 56020, Note_on_c, 0, 56, 64
2, 56021, Note_on_c, 0, 44, 0
2, 56022, Note_on_c, 0, 68, 67
2, 56048, Note_on_c, 0, 56, 0
2, 56049, Note_on_c, 0, 68, 0
2, 56058, Note_on_c, 0, 45, 68
2, 56090, Note_on_c, 0, 45, 0
2, 56093, Note_on_c, 0, 57, 67
2, 56094, Note_on_c, 0, 69, 60
2, 56121, Note_on_c, 0, 69, 0
2, 56124, Note_on_c, 0, 57, 0
2, 56141, Note_on_c, 0, 47, 89
2, 56168, Note_on_c, 0, 59, 61
2, 56174, Note_on_c, 0, 47, 0
2, 56176, Note_on_c, 0, 71, 74
2, 56204, Note_on_c, 0, 71, 0
2, 56209, Note_on_c, 0, 59, 0
2, 56218, Note_on_c, 0, 48, 69
2, 56245, Note_on_c, 0, 72, 61
2, 56254, Note_on_c, 0, 60, 67
2, 56259, Note_on_c, 0, 48, 0
2, 56283, Note_on_c, 0, 60, 0
2, 56284, Note_on_c, 0, 72, 0
2, 56304, Note_on_c, 0, 47, 72
2, 56333, Note_on_c, 0, 47, 0
2, 56340, Note_on_c, 0, 71, 69
2, 56341, Note_on_c, 0, 59, 68
2, 56369, Note_on_c, 0, 59, 0
2, 56369, Note_on_c, 0, 71, 0
2, 56378, Note_on_c, 0, 48, 73
2, 56410, Note_on_c, 0, 48, 0
2, 56412, Note_on_c, 0, 60, 61
2, 56413, Note_on_c, 0, 72, 84
2, 56433, Note_on_c, 0, 60, 0
2, 56434, Note_on_c, 0, 72, 0
2, 56437, Note_on_c, 0, 52, 86
2, 56479, Note_on_c, 0, 64, 69
2, 56480, Note_on_c, 0, 52, 0
2, 56482, Note_on_c, 0, 76, 69
2, 56500, Note_on_c, 0, 76, 0
2, 56503, Note_on_c, 0, 64, 0
2, 56532, Note_on_c, 0, 53, 68
2, 56557, Note_on_c, 0, 77, 65
2, 56558, Note_on_c, 0, 65, 66
2, 56563, Note_on_c, 0, 53, 0
2, 56579, Note_on_c, 0, 65, 0
2, 56579, Note_on_c, 0, 77, 0
2, 56622, Note_on_c, 0, 52, 72
2, 56638, Note_on_c, 0, 64, 72
2, 56639, Note_on_c, 0, 76, 65
2, 56650, Note_on_c, 0, 52, 0
2, 56666, Note_on_c, 0, 76, 0
2, 56666, Note_on_c, 0, 64, 0
2, 56688, Note_on_c, 0, 53, 91
2, 56712, Note_on_c, 0, 65, 64
2, 56717, Note_on_c, 0, 53, 0
2, 56719, Note_on_c, 0, 77, 66
2, 56744, Note_on_c, 0, 65, 0
2, 56752, Note_on_c, 0, 77, 0
2, 56757, Control_c, 0, 64, 127
2, 56761, Note_on_c, 0, 56, 91
2, 56794, Note_on_c, 0, 56, 0
2, 56797, Note_on_c, 0, 80, 83
2, 56806, Note_on_c, 0, 68, 85
2, 56826, Note_on_c, 0, 80, 0
2, 56837, Note_on_c, 0, 68, 0
2, 56854, Note_on_c, 0, 57, 71
2, 56887, Note_on_c, 0, 57, 0
2, 56889, Note_on_c, 0, 69, 73
2, 56889, Note_on_c, 0, 81, 78
2, 56918, Note_on_c, 0, 81, 0
2, 56918, Note_on_c, 0, 69, 0
2, 56938, Note_on_c, 0, 56, 86
2, 56967, Note_on_c, 0, 56, 0
2, 56970, Note_on_c, 0, 80, 74
2, 56971, Note_on_c, 0, 68, 78
2, 57001, Note_on_c, 0, 68, 0
2, 57001, Note_on_c, 0, 80, 0
2, 57003, Note_on_c, 0, 57, 85
2, 57035, Note_on_c, 0, 57, 0
2, 57045, Note_on_c, 0, 81, 91
2, 57046, Note_on_c, 0, 69, 89
2, 57073, Note_on_c, 0, 69, 0
2, 57073, Note_on_c, 0, 81, 0
2, 57088, Note_on_c, 0, 59, 91
2, 57127, Note_on_c, 0, 59, 0
2, 57128, Note_on_c, 0, 71, 71
2, 57129, Note_on_c, 0, 83, 69
2, 57156, Note_on_c, 0, 83, 0
2, 57158, Note_on_c, 0, 71, 0
2, 57168, Note_on_c, 0, 60, 88
2, 57199, Note_on_c, 0, 60, 0
2, 57204, Note_on_c, 0, 72, 73
2, 57204, Note_on_c, 0, 84, 72
2, 57223, Note_on_c, 0, 84, 0
2, 57226, Note_on_c, 0, 72, 0
2, 57240, Note_on_c, 0, 59, 92
2, 57272, Note_on_c, 0, 59, 0
2, 57273, Note_on_c, 0, 71, 70
2, 57274, Note_on_c, 0, 83, 76
2, 57300, Note_on_c, 0, 71, 0
2, 57301, Note_on_c, 0, 83, 0
2, 57310, Note_on_c, 0, 60, 89
2, 57334, Control_c, 0, 64, 0
2, 57341, Note_on_c, 0, 60, 0
2, 57352, Note_on_c, 0, 72, 80
2, 57358, Note_on_c, 0, 84, 102
2, 57378, Note_on_c, 0, 72, 0
2, 57388, Note_on_c, 0, 84, 0
2, 57390, Note_on_c, 0, 64, 105
2, 57422, Note_on_c, 0, 64, 0
2, 57425, Note_on_c, 0, 88, 79
2, 57426, Note_on_c, 0, 76, 79
2, 57444, Note_on_c, 0, 76, 0
2, 57452, Note_on_c, 0, 88, 0
2, 57461, Note_on_c, 0, 65, 84
2, 57485, Note_on_c, 0, 65, 0
2, 57507, Note_on_c, 0, 77, 83
2, 57507, Note_on_c, 0, 89, 78
2, 57524, Note_on_c, 0, 59, 92
2, 57529, Note_on_c, 0, 89, 0
2, 57529, Note_on_c, 0, 77, 0
2, 57574, Note_on_c, 0, 59, 0
2, 57574, Note_on_c, 0, 71, 79
2, 57576, Note_on_c, 0, 83, 83
2, 57601, Note_on_c, 0, 60, 97
2, 57603, Note_on_c, 0, 71, 0
2, 57604, Note_on_c, 0, 83, 0
2, 57638, Note_on_c, 0, 60, 0
2, 57671, Note_on_c, 0, 72, 98
2, 57671, Note_on_c, 0, 84, 99
2, 57678, Note_on_c, 0, 64, 109
2, 57697, Note_on_c, 0, 72, 0
2, 57698, Note_on_c, 0, 84, 0
2, 57709, Note_on_c, 0, 64, 0
2, 57722, Control_c, 0, 64, 127
2, 57737, Note_on_c, 0, 76, 97
2, 57739, Note_on_c, 0, 88, 102
2, 57757, Note_on_c, 0, 88, 0
2, 57763, Note_on_c, 0, 76, 0
2, 57779, Note_on_c, 0, 65, 87
2, 57812, Note_on_c, 0, 65, 0
2, 57813, Note_on_c, 0, 89, 82
2, 57819, Note_on_c, 0, 77, 87
2, 57844, Note_on_c, 0, 77, 0
2, 57844, Note_on_c, 0, 89, 0
2, 57846, Control_c, 0, 64, 0
2, 57860, Note_on_c, 0, 59, 86
2, 57894, Note_on_c, 0, 71, 86
2, 57895, Note_on_c, 0, 83, 82
2, 57910, Note_on_c, 0, 59, 0
2, 57917, Note_on_c, 0, 60, 87
2, 57924, Note_on_c, 0, 71, 0
2, 57925, Note_on_c, 0, 83, 0
2, 57972, Note_on_c, 0, 72, 97
2, 57972, Note_on_c, 0, 84, 99
2, 57989, Note_on_c, 0, 60, 0
2, 57994, Note_on_c, 0, 84, 0
2, 58006, Note_on_c, 0, 72, 0
2, 58029, Note_on_c, 0, 64, 105
2, 58059, Note_on_c, 0, 64, 0
2, 58061, Note_on_c, 0, 88, 76
2, 58062, Note_on_c, 0, 76, 92
2, 58081, Note_on_c, 0, 88, 0
2, 58082, Note_on_c, 0, 76, 0
2, 58121, Note_on_c, 0, 65, 96
2, 58124, Control_c, 0, 64, 127
2, 58149, Note_on_c, 0, 89, 97
2, 58150, Note_on_c, 0, 77, 93
2, 58156, Note_on_c, 0, 65, 0
2, 58172, Note_on_c, 0, 89, 0
2, 58180, Note_on_c, 0, 77, 0
2, 58190, Note_on_c, 0, 62, 99
2, 58220, Note_on_c, 0, 74, 90
2, 58227, Note_on_c, 0, 86, 90
2, 58232, Note_on_c, 0, 62, 0
2, 58254, Note_on_c, 0, 74, 0
2, 58262, Note_on_c, 0, 86, 0
2, 58284, Note_on_c, 0, 63, 89
2, 58306, Note_on_c, 0, 87, 89
2, 58307, Note_on_c, 0, 75, 95
2, 58313, Note_on_c, 0, 63, 0
2, 58339, Note_on_c, 0, 75, 0
2, 58339, Note_on_c, 0, 87, 0
2, 58375, Note_on_c, 0, 60, 86
2, 58403, Note_on_c, 0, 60, 0
2, 58411, Note_on_c, 0, 72, 83
2, 58411, Note_on_c, 0, 84, 82
2, 58440, Note_on_c, 0, 84, 0
2, 58440, Note_on_c, 0, 72, 0
2, 58470, Note_on_c, 0, 61, 85
2, 58502, Control_c, 0, 64, 0
2, 58503, Note_on_c, 0, 61, 0
2, 58506, Note_on_c, 0, 73, 80
2, 58506, Note_on_c, 0, 85, 86
2, 58532, Note_on_c, 0, 73, 0
2, 58536, Note_on_c, 0, 85, 0
2, 58562, Note_on_c, 0, 59, 87
2, 58599, Note_on_c, 0, 71, 80
2, 58602, Note_on_c, 0, 59, 0
2, 58603, Note_on_c, 0, 83, 81
2, 58631, Note_on_c, 0, 71, 0
2, 58632, Note_on_c, 0, 83, 0
2, 58648, Note_on_c, 0, 60, 88
2, 58680, Note_on_c, 0, 60, 0
2, 58703, Note_on_c, 0, 72, 80
2, 58703, Note_on_c, 0, 84, 79
2, 58723, Note_on_c, 0, 84, 0
2, 58723, Note_on_c, 0, 72, 0
2, 58769, Note_on_c, 0, 46, 100
2, 58769, Note_on_c, 0, 53, 98
2, 58769, Note_on_c, 0, 58, 99
2, 58776, Control_c, 0, 64, 127
2, 58793, Note_on_c, 0, 70, 92
2, 58796, Note_on_c, 0, 82, 88
2, 58809, Note_on_c, 0, 58, 0
2, 58809, Note_on_c, 0, 46, 0
2, 58810, Note_on_c, 0, 53, 0
2, 58822, Note_on_c, 0, 82, 0
2, 58824, Note_on_c, 0, 70, 0
2, 58843, Note_on_c, 0, 60, 66
2, 58875, Note_on_c, 0, 60, 0
2, 58886, Note_on_c, 0, 72, 86
2, 58889, Note_on_c, 0, 84, 84
2, 58920, Note_on_c, 0, 84, 0
2, 58920, Note_on_c, 0, 72, 0
2, 58921, Note_on_c, 0, 70, 88
2, 58921, Note_on_c, 0, 77, 87
2, 58930, Note_on_c, 0, 65, 83
2, 58940, Note_on_c, 0, 61, 85
2, 58962, Note_on_c, 0, 70, 0
2, 58963, Note_on_c, 0, 77, 0
2, 58963, Note_on_c, 0, 65, 0
2, 58972, Note_on_c, 0, 73, 90
2, 58972, Note_on_c, 0, 85, 86
2, 58977, Note_on_c, 0, 61, 0
2, 59002, Note_on_c, 0, 85, 0
2, 59002, Note_on_c, 0, 73, 0
2, 59022, Note_on_c, 0, 60, 90
2, 59055, Note_on_c, 0, 60, 0
2, 59060, Note_on_c, 0, 84, 89
2, 59067, Note_on_c, 0, 72, 84
2, 59089, Note_on_c, 0, 84, 0
2, 59097, Note_on_c, 0, 72, 0
2, 59098, Note_on_c, 0, 61, 93
2, 59101, Note_on_c, 0, 46, 93
2, 59103, Note_on_c, 0, 53, 93
2, 59119, Note_on_c, 0, 63, 90
2, 59131, Note_on_c, 0, 46, 0
2, 59131, Note_on_c, 0, 61, 0
2, 59132, Note_on_c, 0, 53, 0
2, 59159, Note_on_c, 0, 63, 0
2, 59160, Note_on_c, 0, 87, 96
2, 59161, Note_on_c, 0, 75, 93
2, 59181, Control_c, 0, 64, 0
2, 59189, Note_on_c, 0, 75, 0
2, 59189, Note_on_c, 0, 87, 0
2, 59211, Note_on_c, 0, 61, 82
2, 59239, Note_on_c, 0, 73, 79
2, 59246, Note_on_c, 0, 85, 82
2, 59252, Note_on_c, 0, 61, 0
2, 59260, Note_on_c, 0, 73, 0
2, 59268, Note_on_c, 0, 85, 0
2, 59287, Note_on_c, 0, 65, 79
2, 59290, Note_on_c, 0, 77, 77
2, 59291, Note_on_c, 0, 70, 82
2, 59297, Note_on_c, 0, 60, 82
2, 59328, Note_on_c, 0, 70, 0
2, 59328, Note_on_c, 0, 65, 0
2, 59328, Note_on_c, 0, 77, 0
2, 59329, Note_on_c, 0, 72, 75
2, 59329, Note_on_c, 0, 84, 76
2, 59338, Note_on_c, 0, 60, 0
2, 59352, Note_on_c, 0, 84, 0
2, 59354, Note_on_c, 0, 72, 0
2, 59379, Note_on_c, 0, 58, 80
2, 59414, Note_on_c, 0, 58, 0
2, 59417, Note_on_c, 0, 70, 73
2, 59427, Note_on_c, 0, 82, 77
2, 59437, Note_on_c, 0, 70, 0
2, 59446, Note_on_c, 0, 82, 0
2, 59457, Note_on_c, 0, 46, 92
2, 59465, Note_on_c, 0, 56, 98
2, 59465, Note_on_c, 0, 60, 94
2, 59466, Note_on_c, 0, 53, 91
2, 59477, Control_c, 0, 64, 127
2, 59498, Note_on_c, 0, 53, 0
2, 59498, Note_on_c, 0, 46, 0
2, 59498, Note_on_c, 0, 56, 0
2, 59498, Note_on_c, 0, 60, 0
2, 59506, Note_on_c, 0, 68, 84
2, 59506, Note_on_c, 0, 80, 82
2, 59533, Note_on_c, 0, 80, 0
2, 59533, Note_on_c, 0, 68, 0
2, 59546, Note_on_c, 0, 57, 65
2, 59574, Note_on_c, 0, 57, 0
2, 59577, Note_on_c, 0, 69, 78
2, 59579, Note_on_c, 0, 81, 79
2, 59605, Control_c, 0, 64, 0
2, 59607, Note_on_c, 0, 81, 0
2, 59607, Note_on_c, 0, 69, 0
2, 59629, Note_on_c, 0, 52, 84
2, 59629, Note_on_c, 0, 65, 77
2, 59629, Note_on_c, 0, 72, 79
2, 59629, Note_on_c, 0, 77, 76
2, 59630, Note_on_c, 0, 75, 72
2, 59656, Note_on_c, 0, 77, 0
2, 59659, Note_on_c, 0, 72, 0
2, 59659, Note_on_c, 0, 75, 0
2, 59659, Note_on_c, 0, 65, 0
2, 59661, Note_on_c, 0, 64, 80
2, 59662, Note_on_c, 0, 76, 76
2, 59673, Note_on_c, 0, 52, 0
2, 59689, Note_on_c, 0, 76, 0
2, 59691, Note_on_c, 0, 64, 0
2, 59701, Note_on_c, 0, 53, 78
2, 59736, Note_on_c, 0, 65, 71
2, 59738, Note_on_c, 0, 77, 77
2, 59752, Note_on_c, 0, 53, 0
2, 59768, Note_on_c, 0, 77, 0
2, 59768, Note_on_c, 0, 65, 0
2, 59780, Note_on_c, 0, 60, 92
2, 59784, Note_on_c, 0, 46, 94
2, 59784, Note_on_c, 0, 53, 94
2, 59784, Note_on_c, 0, 56, 95
2, 59818, Note_on_c, 0, 56, 0
2, 59819, Note_on_c, 0, 53, 0
2, 59819, Note_on_c, 0, 60, 0
2, 59820, Note_on_c, 0, 46, 0
2, 59822, Note_on_c, 0, 68, 82
2, 59822, Note_on_c, 0, 80, 81
2, 59865, Note_on_c, 0, 57, 63
2, 59890, Note_on_c, 0, 68, 0
2, 59892, Note_on_c, 0, 69, 71
2, 59894, Note_on_c, 0, 80, 0
2, 59899, Note_on_c, 0, 81, 76
2, 59920, Note_on_c, 0, 69, 0
2, 59928, Note_on_c, 0, 81, 0
2, 59941, Note_on_c, 0, 65, 74
2, 59942, Note_on_c, 0, 72, 75
2, 59942, Note_on_c, 0, 75, 70
2, 59942, Note_on_c, 0, 77, 70
2, 59948, Note_on_c, 0, 52, 76
2, 59964, Note_on_c, 0, 57, 0
2, 59976, Note_on_c, 0, 75, 0
2, 59978, Note_on_c, 0, 65, 0
2, 59978, Note_on_c, 0, 72, 0
2, 59979, Note_on_c, 0, 77, 0
2, 59981, Note_on_c, 0, 64, 81
2, 59982, Note_on_c, 0, 76, 69
2, 60008, Note_on_c, 0, 64, 0
2, 60009, Note_on_c, 0, 76, 0
2, 60027, Note_on_c, 0, 52, 0
2, 60029, Note_on_c, 0, 53, 81
2, 60053, Note_on_c, 0, 65, 73
2, 60056, Note_on_c, 0, 77, 75
2, 60062, Note_on_c, 0, 53, 0
2, 60085, Note_on_c, 0, 65, 0
2, 60086, Note_on_c, 0, 77, 0
2, 60114, Note_on_c, 0, 46, 87
2, 60115, Note_on_c, 0, 52, 85
2, 60115, Note_on_c, 0, 61, 84
2, 60149, Control_c, 0, 64, 127
2, 60150, Note_on_c, 0, 64, 88
2, 60151, Note_on_c, 0, 76, 84
2, 60156, Note_on_c, 0, 61, 0
2, 60156, Note_on_c, 0, 46, 0
2, 60171, Note_on_c, 0, 52, 0
2, 60192, Note_on_c, 0, 53, 89
2, 60215, Note_on_c, 0, 64, 0
2, 60216, Note_on_c, 0, 76, 0
2, 60222, Note_on_c, 0, 65, 86
2, 60237, Note_on_c, 0, 77, 86
2, 60258, Note_on_c, 0, 53, 0
2, 60273, Note_on_c, 0, 77, 0
2, 60273, Note_on_c, 0, 65, 0
2, 60287, Note_on_c, 0, 58, 93
2, 60313, Note_on_c, 0, 65, 91
2, 60318, Note_on_c, 0, 73, 93
2, 60319, Note_on_c, 0, 70, 93
2, 60319, Note_on_c, 0, 77, 92
2, 60327, Note_on_c, 0, 82, 92
2, 60336, Note_on_c, 0, 58, 0
2, 60355, Note_on_c, 0, 73, 0
2, 60360, Note_on_c, 0, 65, 0
2, 60360, Note_on_c, 0, 77, 0
2, 60369, Note_on_c, 0, 53, 85
2, 60375, Note_on_c, 0, 82, 0
2, 60375, Note_on_c, 0, 70, 0
2, 60418, Note_on_c, 0, 65, 79
2, 60421, Note_on_c, 0, 77, 79
2, 60434, Note_on_c, 0, 53, 0
2, 60444, Note_on_c, 0, 46, 90
2, 60444, Note_on_c, 0, 61, 87
2, 60449, Control_c, 0, 64, 0
2, 60454, Note_on_c, 0, 51, 90
2, 60468, Note_on_c, 0, 77, 0
2, 60471, Note_on_c, 0, 65, 0
2, 60486, Note_on_c, 0, 61, 0
2, 60486, Note_on_c, 0, 46, 0
2, 60497, Note_on_c, 0, 63, 65
2, 60498, Note_on_c, 0, 75, 85
2, 60522, Note_on_c, 0, 51, 0
2, 60538, Note_on_c, 0, 75, 0
2, 60538, Note_on_c, 0, 63, 0
2, 60548, Note_on_c, 0, 49, 84
2, 60590, Note_on_c, 0, 61, 61
2, 60591, Note_on_c, 0, 73, 77
2, 60607, Note_on_c, 0, 49, 0
2, 60640, Note_on_c, 0, 48, 81
2, 60641, Note_on_c, 0, 70, 74
2, 60643, Note_on_c, 0, 65, 76
2, 60645, Note_on_c, 0, 77, 78
2, 60656, Note_on_c, 0, 61, 0
2, 60657, Note_on_c, 0, 73, 0
2, 60682, Note_on_c, 0, 60, 60
2, 60688, Note_on_c, 0, 70, 0
2, 60688, Note_on_c, 0, 77, 0
2, 60693, Note_on_c, 0, 65, 0
2, 60696, Note_on_c, 0, 48, 0
2, 60703, Note_on_c, 0, 72, 76
2, 60730, Note_on_c, 0, 60, 0
2, 60731, Note_on_c, 0, 46, 77
2, 60747, Note_on_c, 0, 72, 0
2, 60772, Control_c, 0, 64, 127
2, 60783, Note_on_c, 0, 46, 0
2, 60791, Note_on_c, 0, 58, 80
2, 60791, Note_on_c, 0, 70, 83
2, 60808, Control_c, 0, 64, 0
2, 60819, Note_on_c, 0, 48, 79
2, 60819, Note_on_c, 0, 60, 81
2, 60822, Note_on_c, 0, 46, 81
2, 60822, Note_on_c, 0, 53, 78
2, 60837, Note_on_c, 0, 70, 0
2, 60843, Note_on_c, 0, 60, 0
2, 60845, Control_c, 0, 64, 127
2, 60852, Note_on_c, 0, 58, 0
2, 60859, Note_on_c, 0, 46, 0
2, 60866, Note_on_c, 0, 53, 0
2, 60868, Note_on_c, 0, 60, 57
2, 60869, Note_on_c, 0, 72, 85
2, 60885, Note_on_c, 0, 48, 0
2, 60901, Note_on_c, 0, 49, 79
2, 60939, Note_on_c, 0, 60, 0
2, 60940, Note_on_c, 0, 72, 0
2, 60942, Note_on_c, 0, 61, 64
2, 60942, Note_on_c, 0, 73, 71
2, 60958, Note_on_c, 0, 49, 0
2, 60983, Note_on_c, 0, 47, 76
2, 60984, Note_on_c, 0, 77, 81
2, 60984, Note_on_c, 0, 65, 84
2, 60989, Note_on_c, 0, 69, 78
2, 60989, Note_on_c, 0, 75, 79
2, 61012, Note_on_c, 0, 69, 0
2, 61013, Control_c, 0, 64, 0
2, 61014, Note_on_c, 0, 59, 62
2, 61015, Note_on_c, 0, 61, 0
2, 61016, Note_on_c, 0, 65, 0
2, 61019, Note_on_c, 0, 77, 0
2, 61021, Note_on_c, 0, 71, 84
2, 61023, Note_on_c, 0, 73, 0
2, 61023, Note_on_c, 0, 75, 0
2, 61030, Note_on_c, 0, 47, 0
2, 61060, Note_on_c, 0, 48, 83
2, 61069, Note_on_c, 0, 71, 0
2, 61070, Note_on_c, 0, 59, 0
2, 61103, Note_on_c, 0, 60, 76
2, 61104, Note_on_c, 0, 72, 76
2, 61119, Note_on_c, 0, 48, 0
2, 61142, Note_on_c, 0, 60, 0
2, 61143, Note_on_c, 0, 72, 0
2, 61144, Note_on_c, 0, 49, 89
2, 61145, Note_on_c, 0, 46, 91
2, 61145, Note_on_c, 0, 53, 90
2, 61185, Note_on_c, 0, 46, 0
2, 61187, Note_on_c, 0, 61, 62
2, 61188, Note_on_c, 0, 73, 82
2, 61193, Note_on_c, 0, 49, 0
2, 61194, Note_on_c, 0, 53, 0
2, 61238, Note_on_c, 0, 48, 69
2, 61263, Note_on_c, 0, 61, 0
2, 61263, Note_on_c, 0, 73, 0
2, 61271, Note_on_c, 0, 60, 70
2, 61272, Note_on_c, 0, 72, 88
2, 61312, Note_on_c, 0, 60, 0
2, 61313, Note_on_c, 0, 72, 0
2, 61320, Note_on_c, 0, 48, 0
2, 61323, Note_on_c, 0, 54, 89
2, 61356, Note_on_c, 0, 75, 66
2, 61357, Note_on_c, 0, 69, 63
2, 61360, Note_on_c, 0, 72, 69
2, 61363, Note_on_c, 0, 66, 66
2, 61366, Note_on_c, 0, 78, 62
2, 61372, Note_on_c, 0, 54, 0
2, 61396, Note_on_c, 0, 72, 0
2, 61396, Note_on_c, 0, 75, 0
2, 61396, Note_on_c, 0, 69, 0
2, 61406, Note_on_c, 0, 53, 57
2, 61440, Note_on_c, 0, 78, 0
2, 61440, Note_on_c, 0, 66, 0
2, 61442, Note_on_c, 0, 65, 80
2, 61442, Note_on_c, 0, 77, 84
2, 61460, Note_on_c, 0, 53, 0
2, 61512, Note_on_c, 0, 61, 81
2, 61512, Note_on_c, 0, 46, 83
2, 61512, Note_on_c, 0, 58, 82
2, 61513, Note_on_c, 0, 53, 84
2, 61519, Note_on_c, 0, 77, 0
2, 61519, Note_on_c, 0, 65, 0
2, 61549, Note_on_c, 0, 61, 0
2, 61550, Note_on_c, 0, 53, 0
2, 61552, Note_on_c, 0, 70, 83
2, 61553, Note_on_c, 0, 46, 0
2, 61555, Note_on_c, 0, 82, 83
2, 61590, Control_c, 0, 64, 127
2, 61602, Note_on_c, 0, 58, 0
2, 61603, Note_on_c, 0, 60, 86
2, 61633, Note_on_c, 0, 82, 0
2, 61633, Note_on_c, 0, 70, 0
2, 61635, Note_on_c, 0, 84, 78
2, 61636, Note_on_c, 0, 72, 82
2, 61676, Note_on_c, 0, 60, 0
2, 61678, Note_on_c, 0, 61, 87
2, 61679, Note_on_c, 0, 70, 80
2, 61679, Note_on_c, 0, 77, 76
2, 61680, Note_on_c, 0, 65, 79
2, 61691, Note_on_c, 0, 72, 0
2, 61691, Note_on_c, 0, 84, 0
2, 61713, Note_on_c, 0, 85, 79
2, 61714, Note_on_c, 0, 73, 79
2, 61752, Note_on_c, 0, 77, 0
2, 61759, Note_on_c, 0, 70, 0
2, 61759, Note_on_c, 0, 61, 0
2, 61761, Note_on_c, 0, 60, 87
2, 61763, Note_on_c, 0, 65, 0
2, 61787, Note_on_c, 0, 85, 0
2, 61789, Note_on_c, 0, 84, 79
2, 61795, Note_on_c, 0, 73, 0
2, 61797, Note_on_c, 0, 72, 84
2, 61837, Note_on_c, 0, 60, 0
2, 61839, Note_on_c, 0, 46, 84
2, 61839, Note_on_c, 0, 61, 83
2, 61840, Note_on_c, 0, 53, 87
2, 61840, Note_on_c, 0, 63, 87
2, 61855, Control_c, 0, 64, 0
2, 61871, Note_on_c, 0, 61, 0
2, 61871, Note_on_c, 0, 46, 0
2, 61872, Note_on_c, 0, 53, 0
2, 61872, Note_on_c, 0, 72, 0
2, 61877, Note_on_c, 0, 75, 84
2, 61879, Note_on_c, 0, 84, 0
2, 61885, Note_on_c, 0, 87, 83
2, 61927, Note_on_c, 0, 87, 0
2, 61927, Note_on_c, 0, 75, 0
2, 61928, Note_on_c, 0, 63, 0
2, 61929, Note_on_c, 0, 61, 79
2, 61965, Note_on_c, 0, 73, 72
2, 61968, Note_on_c, 0, 85, 73
2, 62011, Note_on_c, 0, 73, 0
2, 62011, Note_on_c, 0, 61, 0
2, 62012, Note_on_c, 0, 60, 77
2, 62013, Note_on_c, 0, 65, 72
2, 62017, Note_on_c, 0, 70, 72
2, 62017, Note_on_c, 0, 77, 71
2, 62018, Note_on_c, 0, 85, 0
2, 62048, Note_on_c, 0, 72, 64
2, 62059, Note_on_c, 0, 84, 68
2, 62064, Note_on_c, 0, 70, 0
2, 62064, Note_on_c, 0, 77, 0
2, 62064, Note_on_c, 0, 65, 0
2, 62094, Note_on_c, 0, 72, 0
2, 62102, Note_on_c, 0, 84, 0
2, 62105, Note_on_c, 0, 60, 0
2, 62107, Note_on_c, 0, 58, 76
2, 62134, Note_on_c, 0, 70, 67
2, 62141, Note_on_c, 0, 82, 71
2, 62146, Note_on_c, 0, 58, 0
2, 62172, Note_on_c, 0, 70, 0
2, 62180, Note_on_c, 0, 82, 0
2, 62191, Note_on_c, 0, 46, 87
2, 62191, Note_on_c, 0, 53, 83
2, 62191, Note_on_c, 0, 56, 86
2, 62191, Note_on_c, 0, 60, 89
2, 62231, Control_c, 0, 64, 127
2, 62232, Note_on_c, 0, 68, 74
2, 62236, Note_on_c, 0, 60, 0
2, 62236, Note_on_c, 0, 56, 0
2, 62236, Note_on_c, 0, 46, 0
2, 62237, Note_on_c, 0, 53, 0
2, 62243, Note_on_c, 0, 80, 70
2, 62260, Note_on_c, 0, 68, 0
2, 62267, Note_on_c, 0, 80, 0
2, 62274, Note_on_c, 0, 57, 53
2, 62303, Note_on_c, 0, 57, 0
2, 62321, Note_on_c, 0, 69, 66
2, 62321, Note_on_c, 0, 81, 70
2, 62324, Control_c, 0, 64, 0
2, 62349, Note_on_c, 0, 81, 0
2, 62349, Note_on_c, 0, 69, 0
2, 62351, Note_on_c, 0, 65, 69
2, 62353, Note_on_c, 0, 52, 72
2, 62354, Note_on_c, 0, 72, 71
2, 62354, Note_on_c, 0, 75, 69
2, 62354, Note_on_c, 0, 77, 69
2, 62381, Note_on_c, 0, 77, 0
2, 62381, Note_on_c, 0, 72, 0
2, 62381, Note_on_c, 0, 75, 0
2, 62381, Note_on_c, 0, 65, 0
2, 62391, Note_on_c, 0, 64, 75
2, 62392, Note_on_c, 0, 76, 69
2, 62430, Note_on_c, 0, 52, 0
2, 62431, Note_on_c, 0, 76, 0
2, 62431, Note_on_c, 0, 64, 0
2, 62440, Note_on_c, 0, 53, 74
2, 62472, Note_on_c, 0, 53, 0
2, 62472, Note_on_c, 0, 65, 70
2, 62474, Note_on_c, 0, 77, 68
2, 62503, Note_on_c, 0, 77, 0
2, 62506, Note_on_c, 0, 65, 0
2, 62540, Note_on_c, 0, 56, 80
2, 62541, Note_on_c, 0, 46, 83
2, 62541, Note_on_c, 0, 53, 80
2, 62541, Note_on_c, 0, 60, 83
2, 62583, Note_on_c, 0, 68, 62
2, 62583, Note_on_c, 0, 80, 63
2, 62601, Note_on_c, 0, 60, 0
2, 62601, Note_on_c, 0, 46, 0
2, 62602, Note_on_c, 0, 53, 0
2, 62618, Note_on_c, 0, 57, 47
2, 62624, Note_on_c, 0, 56, 0
2, 62641, Note_on_c, 0, 80, 0
2, 62653, Note_on_c, 0, 68, 0
2, 62660, Note_on_c, 0, 57, 0
2, 62663, Note_on_c, 0, 69, 66
2, 62663, Note_on_c, 0, 81, 59
2, 62685, Note_on_c, 0, 69, 0
2, 62692, Note_on_c, 0, 81, 0
2, 62694, Note_on_c, 0, 65, 60
2, 62695, Note_on_c, 0, 75, 62
2, 62697, Note_on_c, 0, 52, 67
2, 62698, Note_on_c, 0, 77, 62
2, 62699, Note_on_c, 0, 72, 63
2, 62736, Note_on_c, 0, 72, 0
2, 62736, Note_on_c, 0, 75, 0
2, 62736, Note_on_c, 0, 65, 0
2, 62736, Note_on_c, 0, 77, 0
2, 62738, Note_on_c, 0, 64, 64
2, 62747, Note_on_c, 0, 76, 60
2, 62786, Note_on_c, 0, 64, 0
2, 62786, Note_on_c, 0, 52, 0
2, 62787, Note_on_c, 0, 76, 0
2, 62787, Note_on_c, 0, 53, 69
2, 62811, Note_on_c, 0, 65, 70
2, 62816, Note_on_c, 0, 77, 69
2, 62822, Note_on_c, 0, 53, 0
2, 62846, Note_on_c, 0, 77, 0
2, 62854, Note_on_c, 0, 65, 0
2, 62875, Note_on_c, 0, 46, 68
2, 62875, Note_on_c, 0, 61, 65
2, 62876, Note_on_c, 0, 58, 66
2, 62877, Note_on_c, 0, 53, 69
2, 62910, Note_on_c, 0, 82, 70
2, 62911, Note_on_c, 0, 70, 64
2, 62914, Note_on_c, 0, 61, 0
2, 62914, Note_on_c, 0, 46, 0
2, 62915, Note_on_c, 0, 53, 0
2, 62932, Control_c, 0, 64, 127
2, 62956, Note_on_c, 0, 60, 71
2, 62958, Note_on_c, 0, 58, 0
2, 62972, Note_on_c, 0, 82, 0
2, 62983, Note_on_c, 0, 70, 0
2, 62986, Note_on_c, 0, 84, 68
2, 62994, Note_on_c, 0, 72, 66
2, 63035, Note_on_c, 0, 60, 0
2, 63035, Note_on_c, 0, 65, 65
2, 63038, Note_on_c, 0, 61, 64
2, 63038, Note_on_c, 0, 77, 71
2, 63039, Note_on_c, 0, 70, 64
2, 63080, Note_on_c, 0, 70, 0
2, 63080, Note_on_c, 0, 84, 0
2, 63080, Note_on_c, 0, 72, 0
2, 63081, Note_on_c, 0, 65, 0
2, 63081, Note_on_c, 0, 77, 0
2, 63082, Note_on_c, 0, 85, 63
2, 63083, Note_on_c, 0, 73, 67
2, 63112, Note_on_c, 0, 61, 0
2, 63119, Note_on_c, 0, 60, 67
2, 63148, Note_on_c, 0, 73, 0
2, 63149, Note_on_c, 0, 85, 0
2, 63159, Note_on_c, 0, 72, 75
2, 63159, Note_on_c, 0, 84, 74
2, 63192, Note_on_c, 0, 46, 69
2, 63192, Note_on_c, 0, 53, 72
2, 63192, Note_on_c, 0, 61, 75
2, 63201, Note_on_c, 0, 63, 73
2, 63206, Note_on_c, 0, 60, 0
2, 63213, Control_c, 0, 64, 0
2, 63232, Note_on_c, 0, 46, 0
2, 63233, Note_on_c, 0, 53, 0
2, 63240, Note_on_c, 0, 72, 0
2, 63240, Note_on_c, 0, 61, 0
2, 63248, Note_on_c, 0, 84, 0
2, 63255, Note_on_c, 0, 75, 70
2, 63263, Note_on_c, 0, 87, 75
2, 63286, Note_on_c, 0, 61, 66
2, 63293, Note_on_c, 0, 63, 0
2, 63301, Note_on_c, 0, 75, 0
2, 63301, Note_on_c, 0, 87, 0
2, 63327, Note_on_c, 0, 73, 58
2, 63340, Note_on_c, 0, 85, 56
2, 63373, Note_on_c, 0, 65, 56
2, 63375, Note_on_c, 0, 77, 61
2, 63376, Note_on_c, 0, 70, 57
2, 63383, Note_on_c, 0, 60, 64
2, 63389, Note_on_c, 0, 73, 0
2, 63389, Note_on_c, 0, 61, 0
2, 63390, Note_on_c, 0, 85, 0
2, 63416, Note_on_c, 0, 77, 0
2, 63416, Note_on_c, 0, 70, 0
2, 63417, Note_on_c, 0, 65, 0
2, 63432, Note_on_c, 0, 84, 55
2, 63432, Note_on_c, 0, 72, 62
2, 63480, Note_on_c, 0, 58, 63
2, 63486, Note_on_c, 0, 60, 0
2, 63487, Note_on_c, 0, 84, 0
2, 63487, Note_on_c, 0, 72, 0
2, 63516, Note_on_c, 0, 70, 52
2, 63517, Note_on_c, 0, 82, 50
2, 63530, Control_c, 0, 64, 127
2, 63546, Note_on_c, 0, 47, 66
2, 63547, Note_on_c, 0, 53, 72
2, 63552, Note_on_c, 0, 70, 0
2, 63553, Note_on_c, 0, 82, 0
2, 63560, Note_on_c, 0, 58, 0
2, 63562, Note_on_c, 0, 61, 71
2, 63573, Control_c, 0, 64, 0
2, 63581, Note_on_c, 0, 47, 0
2, 63586, Note_on_c, 0, 53, 0
2, 63593, Note_on_c, 0, 85, 66
2, 63594, Note_on_c, 0, 73, 69
2, 63618, Control_c, 0, 64, 127
2, 63633, Note_on_c, 0, 61, 0
2, 63634, Note_on_c, 0, 73, 0
2, 63634, Note_on_c, 0, 85, 0
2, 63635, Note_on_c, 0, 62, 69
2, 63681, Note_on_c, 0, 86, 74
2, 63682, Note_on_c, 0, 74, 71
2, 63717, Note_on_c, 0, 62, 0
2, 63718, Note_on_c, 0, 74, 0
2, 63718, Note_on_c, 0, 86, 0
2, 63723, Note_on_c, 0, 65, 69
2, 63724, Note_on_c, 0, 71, 71
2, 63725, Note_on_c, 0, 79, 71
2, 63727, Note_on_c, 0, 63, 69
2, 63761, Note_on_c, 0, 79, 0
2, 63763, Note_on_c, 0, 71, 0
2, 63764, Note_on_c, 0, 65, 0
2, 63766, Note_on_c, 0, 87, 71
2, 63774, Note_on_c, 0, 75, 77
2, 63815, Note_on_c, 0, 75, 0
2, 63816, Note_on_c, 0, 62, 71
2, 63817, Note_on_c, 0, 87, 0
2, 63826, Note_on_c, 0, 63, 0
2, 63849, Note_on_c, 0, 74, 75
2, 63849, Note_on_c, 0, 86, 71
2, 63856, Control_c, 0, 64, 0
2, 63857, Note_on_c, 0, 62, 0
2, 63889, Note_on_c, 0, 74, 0
2, 63890, Note_on_c, 0, 47, 72
2, 63890, Note_on_c, 0, 53, 75
2, 63890, Note_on_c, 0, 62, 72
2, 63891, Note_on_c, 0, 67, 76
2, 63897, Note_on_c, 0, 86, 0
2, 63927, Note_on_c, 0, 91, 77
2, 63928, Note_on_c, 0, 79, 80
2, 63933, Note_on_c, 0, 62, 0
2, 63933, Note_on_c, 0, 47, 0
2, 63933, Note_on_c, 0, 53, 0
2, 63972, Note_on_c, 0, 91, 0
2, 63974, Note_on_c, 0, 79, 0
2, 63977, Note_on_c, 0, 67, 0
2, 63979, Note_on_c, 0, 65, 59
2, 64010, Note_on_c, 0, 89, 57
2, 64012, Note_on_c, 0, 65, 0
2, 64015, Note_on_c, 0, 77, 64
2, 64053, Note_on_c, 0, 77, 0
2, 64053, Note_on_c, 0, 89, 0
2, 64055, Note_on_c, 0, 71, 61
2, 64056, Note_on_c, 0, 63, 63
2, 64056, Note_on_c, 0, 65, 62
2, 64056, Note_on_c, 0, 79, 61
2, 64089, Note_on_c, 0, 87, 58
2, 64092, Note_on_c, 0, 79, 0
2, 64094, Note_on_c, 0, 71, 0
2, 64095, Note_on_c, 0, 65, 0
2, 64095, Note_on_c, 0, 75, 59
2, 64139, Note_on_c, 0, 75, 0
2, 64139, Note_on_c, 0, 87, 0
2, 64150, Note_on_c, 0, 62, 69
2, 64155, Note_on_c, 0, 63, 0
2, 64194, Note_on_c, 0, 86, 69
2, 64195, Note_on_c, 0, 74, 63
2, 64251, Note_on_c, 0, 86, 0
2, 64252, Note_on_c, 0, 74, 0
2, 64253, Note_on_c, 0, 48, 76
2, 64253, Note_on_c, 0, 55, 74
2, 64254, Note_on_c, 0, 62, 0
2, 64256, Note_on_c, 0, 60, 73
2, 64256, Note_on_c, 0, 63, 77
2, 64290, Note_on_c, 0, 84, 68
2, 64291, Note_on_c, 0, 72, 64
2, 64294, Note_on_c, 0, 63, 0
2, 64294, Note_on_c, 0, 55, 0
2, 64294, Note_on_c, 0, 48, 0
2, 64319, Control_c, 0, 64, 127
2, 64329, Note_on_c, 0, 60, 0
2, 64332, Note_on_c, 0, 62, 45
2, 64362, Note_on_c, 0, 72, 0
2, 64367, Note_on_c, 0, 84, 0
2, 64368, Note_on_c, 0, 86, 64
2, 64369, Note_on_c, 0, 74, 64
2, 64407, Note_on_c, 0, 72, 62
2, 64412, Note_on_c, 0, 67, 67
2, 64412, Note_on_c, 0, 79, 67
2, 64416, Note_on_c, 0, 62, 0
2, 64419, Note_on_c, 0, 63, 72
2, 64448, Note_on_c, 0, 86, 0
2, 64448, Note_on_c, 0, 74, 0
2, 64449, Note_on_c, 0, 87, 65
2, 64450, Note_on_c, 0, 75, 60
2, 64455, Note_on_c, 0, 67, 0
2, 64455, Note_on_c, 0, 79, 0
2, 64458, Note_on_c, 0, 72, 0
2, 64495, Note_on_c, 0, 63, 0
2, 64497, Note_on_c, 0, 62, 72
2, 64524, Note_on_c, 0, 87, 0
2, 64530, Note_on_c, 0, 75, 0
2, 64531, Note_on_c, 0, 74, 54
2, 64532, Note_on_c, 0, 86, 71
2, 64536, Control_c, 0, 64, 0
2, 64590, Note_on_c, 0, 62, 0
2, 64592, Note_on_c, 0, 48, 68
2, 64593, Note_on_c, 0, 55, 65
2, 64593, Note_on_c, 0, 63, 70
2, 64593, Note_on_c, 0, 65, 70
2, 64612, Note_on_c, 0, 86, 0
2, 64613, Note_on_c, 0, 74, 0
2, 64618, Note_on_c, 0, 89, 71
2, 64619, Note_on_c, 0, 77, 68
2, 64624, Note_on_c, 0, 63, 0
2, 64639, Note_on_c, 0, 48, 0
2, 64655, Note_on_c, 0, 55, 0
2, 64662, Note_on_c, 0, 89, 0
2, 64662, Note_on_c, 0, 77, 0
2, 64675, Note_on_c, 0, 65, 0
2, 64677, Note_on_c, 0, 63, 66
2, 64691, Note_on_c, 0, 87, 59
2, 64692, Note_on_c, 0, 75, 63
2, 64740, Note_on_c, 0, 72, 63
2, 64743, Note_on_c, 0, 67, 59
2, 64743, Note_on_c, 0, 79, 65
2, 64745, Note_on_c, 0, 62, 62
2, 64747, Note_on_c, 0, 63, 0
2, 64752, Note_on_c, 0, 87, 0
2, 64754, Note_on_c, 0, 75, 0
2, 64770, Note_on_c, 0, 67, 0
2, 64780, Note_on_c, 0, 72, 0
2, 64782, Note_on_c, 0, 74, 60
2, 64782, Note_on_c, 0, 86, 62
2, 64784, Note_on_c, 0, 79, 0
2, 64824, Note_on_c, 0, 62, 0
2, 64824, Note_on_c, 0, 60, 64
2, 64831, Note_on_c, 0, 86, 0
2, 64832, Note_on_c, 0, 74, 0
2, 64856, Note_on_c, 0, 60, 0
2, 64857, Note_on_c, 0, 72, 59
2, 64859, Note_on_c, 0, 84, 63
2, 64886, Note_on_c, 0, 72, 0
2, 64887, Note_on_c, 0, 84, 0
2, 64920, Note_on_c, 0, 55, 77
2, 64922, Control_c, 0, 64, 127
2, 64922, Note_on_c, 0, 48, 77
2, 64922, Note_on_c, 0, 58, 78
2, 64922, Note_on_c, 0, 62, 77
2, 64946, Note_on_c, 0, 82, 67
2, 64949, Note_on_c, 0, 70, 70
2, 64950, Note_on_c, 0, 58, 0
2, 64958, Note_on_c, 0, 62, 0
2, 64961, Note_on_c, 0, 55, 0
2, 64961, Note_on_c, 0, 48, 0
2, 64977, Note_on_c, 0, 70, 0
2, 64977, Note_on_c, 0, 82, 0
2, 65007, Note_on_c, 0, 59, 45
2, 65022, Note_on_c, 0, 83, 44
2, 65023, Note_on_c, 0, 71, 44
2, 65036, Note_on_c, 0, 59, 0
2, 65051, Note_on_c, 0, 71, 0
2, 65052, Note_on_c, 0, 83, 0
2, 65081, Note_on_c, 0, 67, 60
2, 65081, Note_on_c, 0, 77, 55
2, 65081, Note_on_c, 0, 79, 60
2, 65082, Note_on_c, 0, 74, 60
2, 65083, Control_c, 0, 64, 0
2, 65086, Note_on_c, 0, 54, 63
2, 65108, Note_on_c, 0, 67, 0
2, 65113, Note_on_c, 0, 78, 57
2, 65114, Note_on_c, 0, 66, 55
2, 65117, Note_on_c, 0, 54, 0
2, 65119, Note_on_c, 0, 74, 0
2, 65122, Note_on_c, 0, 77, 0
2, 65123, Note_on_c, 0, 79, 0
2, 65140, Note_on_c, 0, 66, 0
2, 65140, Note_on_c, 0, 78, 0
2, 65160, Note_on_c, 0, 55, 63
2, 65184, Note_on_c, 0, 67, 56
2, 65184, Note_on_c, 0, 79, 60
2, 65189, Note_on_c, 0, 55, 0
2, 65213, Note_on_c, 0, 79, 0
2, 65213, Note_on_c, 0, 67, 0
2, 65214, Note_on_c, 0, 55, 74
2, 65217, Note_on_c, 0, 48, 75
2, 65217, Note_on_c, 0, 62, 78
2, 65233, Note_on_c, 0, 58, 73
2, 65257, Note_on_c, 0, 62, 0
2, 65257, Note_on_c, 0, 55, 0
2, 65262, Note_on_c, 0, 70, 63
2, 65262, Note_on_c, 0, 82, 65
2, 65265, Note_on_c, 0, 48, 0
2, 65299, Note_on_c, 0, 58, 0
2, 65322, Note_on_c, 0, 59, 46
2, 65328, Note_on_c, 0, 70, 0
2, 65336, Note_on_c, 0, 82, 0
2, 65345, Note_on_c, 0, 71, 42
2, 65350, Note_on_c, 0, 83, 46
2, 65380, Note_on_c, 0, 59, 0
2, 65382, Note_on_c, 0, 79, 44
2, 65383, Note_on_c, 0, 67, 45
2, 65383, Note_on_c, 0, 74, 44
2, 65383, Note_on_c, 0, 77, 43
2, 65400, Note_on_c, 0, 54, 62
2, 65422, Note_on_c, 0, 71, 0
2, 65427, Note_on_c, 0, 79, 0
2, 65429, Note_on_c, 0, 54, 0
2, 65430, Note_on_c, 0, 67, 0
2, 65430, Note_on_c, 0, 83, 0
2, 65430, Note_on_c, 0, 77, 0
2, 65430, Note_on_c, 0, 74, 0
2, 65432, Note_on_c, 0, 66, 53
2, 65433, Note_on_c, 0, 78, 57
2, 65462, Note_on_c, 0, 78, 0
2, 65465, Note_on_c, 0, 66, 0
2, 65482, Note_on_c, 0, 55, 66
2, 65511, Note_on_c, 0, 67, 54
2, 65511, Note_on_c, 0, 79, 55
2, 65517, Note_on_c, 0, 55, 0
2, 65542, Note_on_c, 0, 79, 0
2, 65542, Note_on_c, 0, 67, 0
2, 65571, Note_on_c, 0, 48, 83
2, 65571, Note_on_c, 0, 63, 84
2, 65578, Note_on_c, 0, 54, 84
2, 65589, Control_c, 0, 64, 127
2, 65605, Note_on_c, 0, 78, 61
2, 65606, Note_on_c, 0, 66, 62
2, 65635, Note_on_c, 0, 63, 0
2, 65638, Note_on_c, 0, 48, 0
2, 65645, Note_on_c, 0, 54, 0
2, 65656, Note_on_c, 0, 55, 45
2, 65678, Note_on_c, 0, 78, 0
2, 65683, Note_on_c, 0, 66, 0
2, 65700, Note_on_c, 0, 79, 61
2, 65701, Note_on_c, 0, 67, 56
2, 65728, Note_on_c, 0, 55, 0
2, 65729, Note_on_c, 0, 79, 0
2, 65736, Note_on_c, 0, 67, 0
2, 65742, Note_on_c, 0, 60, 68
2, 65774, Note_on_c, 0, 84, 57
2, 65775, Note_on_c, 0, 67, 57
2, 65775, Note_on_c, 0, 72, 58
2, 65775, Note_on_c, 0, 79, 59
2, 65778, Note_on_c, 0, 75, 56
2, 65805, Note_on_c, 0, 60, 0
2, 65806, Note_on_c, 0, 67, 0
2, 65807, Note_on_c, 0, 79, 0
2, 65807, Note_on_c, 0, 55, 63
2, 65812, Note_on_c, 0, 75, 0
2, 65827, Control_c, 0, 64, 0
2, 65847, Note_on_c, 0, 72, 0
2, 65847, Note_on_c, 0, 84, 0
2, 65857, Note_on_c, 0, 67, 57
2, 65858, Note_on_c, 0, 79, 55
2, 65892, Note_on_c, 0, 53, 66
2, 65898, Note_on_c, 0, 55, 0
2, 65930, Note_on_c, 0, 79, 0
2, 65933, Note_on_c, 0, 67, 0
2, 65934, Note_on_c, 0, 65, 56
2, 65940, Note_on_c, 0, 77, 55
2, 65985, Note_on_c, 0, 53, 0
2, 65992, Note_on_c, 0, 51, 65
2, 66033, Note_on_c, 0, 77, 0
2, 66033, Note_on_c, 0, 65, 0
2, 66035, Note_on_c, 0, 63, 64
2, 66035, Note_on_c, 0, 75, 54
2, 66079, Note_on_c, 0, 51, 0
2, 66081, Note_on_c, 0, 50, 61
2, 66091, Note_on_c, 0, 74, 53
2, 66101, Note_on_c, 0, 63, 0
2, 66104, Note_on_c, 0, 62, 66
2, 66105, Note_on_c, 0, 75, 0
2, 66151, Note_on_c, 0, 50, 0
2, 66153, Note_on_c, 0, 48, 61
2, 66194, Note_on_c, 0, 48, 0
2, 66195, Note_on_c, 0, 62, 0
2, 66196, Note_on_c, 0, 74, 0
2, 66196, Note_on_c, 0, 60, 65
2, 66197, Note_on_c, 0, 72, 59
2, 66236, Note_on_c, 0, 55, 78
2, 66237, Note_on_c, 0, 63, 71
2, 66240, Note_on_c, 0, 48, 78
2, 66240, Note_on_c, 0, 50, 76
2, 66261, Note_on_c, 0, 60, 0
2, 66262, Note_on_c, 0, 72, 0
2, 66269, Note_on_c, 0, 63, 0
2, 66280, Note_on_c, 0, 62, 42
2, 66282, Note_on_c, 0, 61, 43
2, 66282, Note_on_c, 0, 73, 59
2, 66283, Note_on_c, 0, 74, 61
2, 66284, Note_on_c, 0, 48, 0
2, 66296, Note_on_c, 0, 55, 0
2, 66301, Note_on_c, 0, 61, 0
2, 66301, Note_on_c, 0, 73, 0
2, 66313, Note_on_c, 0, 50, 0
2, 66314, Control_c, 0, 64, 127
2, 66315, Note_on_c, 0, 51, 49
2, 66363, Note_on_c, 0, 62, 0
2, 66363, Note_on_c, 0, 63, 67
2, 66364, Note_on_c, 0, 74, 0
2, 66366, Note_on_c, 0, 75, 62
2, 66395, Note_on_c, 0, 63, 0
2, 66396, Note_on_c, 0, 75, 0
2, 66404, Note_on_c, 0, 55, 66
2, 66407, Note_on_c, 0, 51, 0
2, 66440, Note_on_c, 0, 63, 67
2, 66440, Note_on_c, 0, 79, 55
2, 66441, Note_on_c, 0, 67, 59
2, 66441, Note_on_c, 0, 72, 57
2, 66441, Note_on_c, 0, 75, 58
2, 66469, Note_on_c, 0, 75, 0
2, 66469, Note_on_c, 0, 63, 0
2, 66477, Note_on_c, 0, 72, 0
2, 66480, Note_on_c, 0, 55, 0
2, 66481, Note_on_c, 0, 51, 62
2, 66520, Note_on_c, 0, 79, 0
2, 66520, Note_on_c, 0, 67, 0
2, 66522, Note_on_c, 0, 63, 60
2, 66527, Note_on_c, 0, 75, 54
2, 66537, Control_c, 0, 64, 0
2, 66568, Note_on_c, 0, 50, 63
2, 66575, Note_on_c, 0, 51, 0
2, 66598, Note_on_c, 0, 63, 0
2, 66599, Note_on_c, 0, 75, 0
2, 66608, Note_on_c, 0, 62, 59
2, 66609, Note_on_c, 0, 74, 59
2, 66644, Note_on_c, 0, 48, 64
2, 66649, Note_on_c, 0, 50, 0
2, 66686, Note_on_c, 0, 62, 0
2, 66687, Note_on_c, 0, 74, 0
2, 66688, Note_on_c, 0, 60, 63
2, 66689, Note_on_c, 0, 72, 60
2, 66730, Note_on_c, 0, 44, 66
2, 66737, Note_on_c, 0, 48, 0
2, 66770, Note_on_c, 0, 56, 66
2, 66771, Note_on_c, 0, 60, 0
2, 66772, Note_on_c, 0, 72, 0
2, 66785, Note_on_c, 0, 68, 54
2, 66815, Note_on_c, 0, 43, 60
2, 66823, Note_on_c, 0, 44, 0
2, 66847, Note_on_c, 0, 56, 0
2, 66848, Note_on_c, 0, 68, 0
2, 66857, Note_on_c, 0, 55, 65
2, 66858, Note_on_c, 0, 67, 66
2, 66891, Note_on_c, 0, 42, 72
2, 66897, Note_on_c, 0, 43, 0
2, 66912, Note_on_c, 0, 48, 70
2, 66919, Control_c, 0, 64, 127
2, 66926, Note_on_c, 0, 55, 0
2, 66927, Note_on_c, 0, 67, 0
2, 66936, Note_on_c, 0, 66, 54
2, 66938, Note_on_c, 0, 54, 45
2, 66967, Note_on_c, 0, 48, 0
2, 66970, Note_on_c, 0, 43, 46
2, 66975, Note_on_c, 0, 42, 0
2, 67003, Note_on_c, 0, 54, 0
2, 67004, Note_on_c, 0, 66, 0
2, 67011, Note_on_c, 0, 55, 47
2, 67014, Note_on_c, 0, 67, 57
2, 67050, Note_on_c, 0, 67, 0
2, 67052, Note_on_c, 0, 55, 0
2, 67060, Note_on_c, 0, 43, 0
2, 67061, Note_on_c, 0, 48, 63
2, 67095, Note_on_c, 0, 55, 65
2, 67095, Note_on_c, 0, 60, 65
2, 67095, Note_on_c, 0, 63, 63
2, 67096, Note_on_c, 0, 67, 58
2, 67097, Note_on_c, 0, 72, 55
2, 67119, Control_c, 0, 64, 0
2, 67124, Note_on_c, 0, 55, 0
2, 67125, Note_on_c, 0, 67, 0
2, 67125, Note_on_c, 0, 63, 0
2, 67138, Note_on_c, 0, 43, 62
2, 67143, Note_on_c, 0, 48, 0
2, 67166, Note_on_c, 0, 60, 0
2, 67166, Note_on_c, 0, 72, 0
2, 67169, Note_on_c, 0, 55, 59
2, 67170, Note_on_c, 0, 67, 55
2, 67225, Note_on_c, 0, 41, 64
2, 67227, Note_on_c, 0, 43, 0
2, 67261, Note_on_c, 0, 55, 0
2, 67262, Note_on_c, 0, 67, 0
2, 67264, Note_on_c, 0, 65, 54
2, 67269, Note_on_c, 0, 53, 66
2, 67302, Note_on_c, 0, 39, 66
2, 67307, Note_on_c, 0, 41, 0
2, 67348, Note_on_c, 0, 63, 61
2, 67349, Note_on_c, 0, 53, 0
2, 67350, Note_on_c, 0, 51, 64
2, 67368, Note_on_c, 0, 65, 0
2, 67387, Note_on_c, 0, 38, 65
2, 67390, Note_on_c, 0, 39, 0
2, 67423, Note_on_c, 0, 51, 0
2, 67424, Note_on_c, 0, 63, 0
2, 67426, Note_on_c, 0, 50, 62
2, 67426, Note_on_c, 0, 62, 62
2, 67455, Note_on_c, 0, 36, 62
2, 67461, Note_on_c, 0, 38, 0
2, 67497, Note_on_c, 0, 50, 0
2, 67497, Note_on_c, 0, 62, 0
2, 67500, Note_on_c, 0, 48, 68
2, 67500, Note_on_c, 0, 60, 67
2, 67540, Note_on_c, 0, 35, 68
2, 67545, Note_on_c, 0, 36, 0
2, 67547, Note_on_c, 0, 48, 0
2, 67576, Control_c, 0, 64, 127
2, 67577, Note_on_c, 0, 47, 45
2, 67583, Note_on_c, 0, 35, 0
2, 67584, Note_on_c, 0, 60, 0
2, 67588, Note_on_c, 0, 59, 48
2, 67619, Note_on_c, 0, 47, 0
2, 67619, Note_on_c, 0, 36, 42
2, 67621, Note_on_c, 0, 48, 44
2, 67659, Note_on_c, 0, 60, 42
2, 67664, Note_on_c, 0, 59, 0
2, 67690, Note_on_c, 0, 36, 0
2, 67693, Note_on_c, 0, 32, 64
2, 67700, Note_on_c, 0, 48, 0
2, 67701, Note_on_c, 0, 44, 64
2, 67705, Control_c, 0, 64, 0
2, 67726, Note_on_c, 0, 32, 0
2, 67734, Note_on_c, 0, 44, 0
2, 67750, Note_on_c, 0, 60, 0
2, 67752, Note_on_c, 0, 56, 62
2, 67784, Note_on_c, 0, 56, 0
2, 67784, Note_on_c, 0, 31, 63
2, 67786, Note_on_c, 0, 43, 64
2, 67808, Note_on_c, 0, 55, 65
2, 67814, Note_on_c, 0, 31, 0
2, 67815, Note_on_c, 0, 43, 0
2, 67843, Note_on_c, 0, 55, 0
2, 67852, Note_on_c, 0, 30, 64
2, 67852, Note_on_c, 0, 42, 63
2, 67873, Note_on_c, 0, 54, 66
2, 67937, Note_on_c, 0, 42, 0
2, 67937, Note_on_c, 0, 30, 0
2, 67939, Note_on_c, 0, 31, 62
2, 67940, Note_on_c, 0, 43, 63
2, 67948, Note_on_c, 0, 55, 64
2, 67949, Note_on_c, 0, 54, 0
2, 67972, Note_on_c, 0, 31, 0
2, 67973, Note_on_c, 0, 43, 0
2, 67981, Note_on_c, 0, 55, 0
2, 68016, Note_on_c, 0, 26, 59
2, 68022, Note_on_c, 0, 38, 61
2, 68045, Note_on_c, 0, 50, 65
2, 68094, Note_on_c, 0, 26, 0
2, 68096, Note_on_c, 0, 27, 61
2, 68121, Note_on_c, 0, 38, 0
2, 68122, Note_on_c, 0, 50, 0
2, 68124, Note_on_c, 0, 39, 64
2, 68125, Note_on_c, 0, 51, 62
2, 68153, Note_on_c, 0, 27, 0
2, 68159, Note_on_c, 0, 51, 0
2, 68160, Note_on_c, 0, 35, 69
2, 68196, Note_on_c, 0, 47, 71
2, 68211, Control_c, 0, 64, 127
2, 68226, Note_on_c, 0, 35, 0
2, 68226, Note_on_c, 0, 39, 0
2, 68228, Note_on_c, 0, 36, 66
2, 68261, Note_on_c, 0, 47, 0
2, 68263, Note_on_c, 0, 48, 65
2, 68297, Note_on_c, 0, 48, 0
2, 68314, Note_on_c, 0, 30, 79
2, 68347, Control_c, 0, 64, 0
2, 68354, Note_on_c, 0, 42, 82
2, 68393, Note_on_c, 0, 31, 81
2, 68394, Note_on_c, 0, 36, 0
2, 68395, Note_on_c, 0, 30, 0
2, 68425, Note_on_c, 0, 31, 0
2, 68435, Note_on_c, 0, 42, 0
2, 68436, Note_on_c, 0, 43, 80
2, 68472, Note_on_c, 0, 43, 0
2, 68485, Note_on_c, 0, 35, 81
2, 68529, Note_on_c, 0, 47, 48
2, 68570, Note_on_c, 0, 35, 0
2, 68572, Note_on_c, 0, 36, 58
2, 68605, Note_on_c, 0, 48, 53
2, 68607, Note_on_c, 0, 47, 0
2, 68639, Note_on_c, 0, 48, 0
2, 68645, Note_on_c, 0, 36, 0
2, 68645, Note_on_c, 0, 30, 53
2, 68677, Note_on_c, 0, 42, 57
2, 68711, Note_on_c, 0, 42, 0
2, 68715, Note_on_c, 0, 31, 60
2, 68718, Note_on_c, 0, 30, 0
2, 68749, Note_on_c, 0, 43, 60
2, 68750, Note_on_c, 0, 31, 0
2, 68788, Note_on_c, 0, 43, 0
2, 68814, Note_on_c, 0, 55, 57
2, 68815, Note_on_c, 0, 63, 53
2, 68816, Note_on_c, 0, 67, 53
2, 68818, Note_on_c, 0, 36, 59
2, 68818, Note_on_c, 0, 51, 59
2, 68819, Note_on_c, 0, 72, 58
2, 68819, Note_on_c, 0, 75, 60
2, 68821, Note_on_c, 0, 79, 59
2, 68844, Note_on_c, 0, 36, 0
2, 68862, Note_on_c, 0, 72, 0
2, 68863, Note_on_c, 0, 75, 0
2, 68915, Note_on_c, 0, 67, 0
2, 68916, Note_on_c, 0, 79, 0
2, 68918, Note_on_c, 0, 55, 0
2, 68919, Note_on_c, 0, 63, 0
2, 68928, Note_on_c, 0, 51, 0
2, 68987, Note_on_c, 0, 36, 57
2, 69004, Note_on_c, 0, 48, 54
2, 69005, Note_on_c, 0, 53, 56
2, 69005, Note_on_c, 0, 62, 57
2, 69008, Note_on_c, 0, 56, 59
2, 69008, Note_on_c, 0, 60, 56
2, 69010, Note_on_c, 0, 74, 64
2, 69019, Note_on_c, 0, 36, 0
2, 69024, Note_on_c, 0, 68, 41
2, 69024, Note_on_c, 0, 72, 45
2, 69038, Control_c, 0, 64, 127
2, 69272, Control_c, 0, 64, 0
2, 69312, Note_on_c, 0, 48, 0
2, 69312, Note_on_c, 0, 60, 0
2, 69321, Note_on_c, 0, 72, 0
2, 69341, Note_on_c, 0, 60, 59
2, 69355, Note_on_c, 0, 48, 58
2, 69355, Note_on_c, 0, 55, 55
2, 69356, Note_on_c, 0, 63, 57
2, 69356, Note_on_c, 0, 75, 49
2, 69363, Note_on_c, 0, 67, 44
2, 69366, Note_on_c, 0, 72, 43
2, 69367, Note_on_c, 0, 56, 0
2, 69368, Note_on_c, 0, 74, 0
2, 69371, Note_on_c, 0, 68, 0
2, 69371, Note_on_c, 0, 53, 0
2, 69371, Note_on_c, 0, 62, 0
2, 69480, Note_on_c, 0, 67, 0
2, 69480, Note_on_c, 0, 72, 0
2, 69536, Note_on_c, 0, 55, 0
2, 69536, Note_on_c, 0, 60, 0
2, 69536, Note_on_c, 0, 63, 0
2, 69537, Note_on_c, 0, 75, 0
2, 69539, Note_on_c, 0, 48, 0
2, 69573, Note_on_c, 0, 35, 59
2, 69610, Note_on_c, 0, 47, 54
2, 69640, Control_c, 0, 64, 127
2, 69642, Note_on_c, 0, 35, 0
2, 69643, Note_on_c, 0, 36, 50
2, 69686, Note_on_c, 0, 48, 52
2, 69688, Note_on_c, 0, 47, 0
2, 69718, Note_on_c, 0, 48, 0
2, 69728, Note_on_c, 0, 30, 49
2, 69762, Note_on_c, 0, 36, 0
2, 69765, Note_on_c, 0, 42, 47
2, 69767, Note_on_c, 0, 30, 0
2, 69792, Note_on_c, 0, 42, 0
2, 69814, Note_on_c, 0, 31, 48
2, 69835, Control_c, 0, 64, 0
2, 69847, Note_on_c, 0, 31, 0
2, 69850, Note_on_c, 0, 43, 58
2, 69884, Note_on_c, 0, 43, 0
2, 69889, Note_on_c, 0, 35, 58
2, 69926, Note_on_c, 0, 47, 44
2, 69955, Note_on_c, 0, 47, 0
2, 69975, Note_on_c, 0, 35, 0
2, 69977, Note_on_c, 0, 36, 49
2, 70008, Note_on_c, 0, 48, 48
2, 70040, Note_on_c, 0, 48, 0
2, 70047, Note_on_c, 0, 36, 0
2, 70050, Note_on_c, 0, 30, 50
2, 70081, Note_on_c, 0, 42, 48
2, 70113, Note_on_c, 0, 42, 0
2, 70121, Note_on_c, 0, 30, 0
2, 70123, Note_on_c, 0, 31, 53
2, 70158, Note_on_c, 0, 43, 47
2, 70169, Note_on_c, 0, 31, 0
2, 70192, Note_on_c, 0, 43, 0
2, 70200, Note_on_c, 0, 36, 47
2, 70200, Note_on_c, 0, 48, 51
2, 70201, Note_on_c, 0, 55, 47
2, 70201, Note_on_c, 0, 60, 54
2, 70202, Note_on_c, 0, 63, 47
2, 70203, Note_on_c, 0, 67, 48
2, 70203, Note_on_c, 0, 72, 50
2, 70203, Note_on_c, 0, 75, 49
2, 70228, Note_on_c, 0, 36, 0
2, 70266, Note_on_c, 0, 72, 0
2, 70267, Note_on_c, 0, 67, 0
2, 70314, Note_on_c, 0, 48, 0
2, 70314, Note_on_c, 0, 55, 0
2, 70315, Note_on_c, 0, 63, 0
2, 70316, Note_on_c, 0, 75, 0
2, 70318, Note_on_c, 0, 60, 0
2, 70360, Note_on_c, 0, 48, 54
2, 70362, Note_on_c, 0, 56, 51
2, 70368, Note_on_c, 0, 63, 47
2, 70370, Note_on_c, 0, 60, 52
2, 70377, Control_c, 0, 64, 127
2, 70388, Note_on_c, 0, 66, 53
2, 70550, Control_c, 0, 64, 0
2, 70567, Control_c, 0, 67, 127
2, 70688, Note_on_c, 0, 60, 0
2, 70688, Note_on_c, 0, 63, 0
2, 70688, Note_on_c, 0, 48, 0
2, 70733, Note_on_c, 0, 48, 46
2, 70733, Note_on_c, 0, 55, 43
2, 70733, Note_on_c, 0, 63, 47
2, 70734, Note_on_c, 0, 60, 45
2, 70735, Note_on_c, 0, 67, 60
2, 70741, Control_c, 0, 67, 0
2, 70754, Note_on_c, 0, 56, 0
2, 70755, Note_on_c, 0, 66, 0
2, 70893, Note_on_c, 0, 48, 0
2, 70893, Note_on_c, 0, 55, 0
2, 70893, Note_on_c, 0, 60, 0
2, 70894, Note_on_c, 0, 63, 0
2, 70895, Note_on_c, 0, 67, 0
2, 70943, Note_on_c, 0, 35, 44
2, 70973, Note_on_c, 0, 47, 41
2, 71035, Note_on_c, 0, 35, 0
2, 71036, Note_on_c, 0, 36, 48
2, 71070, Note_on_c, 0, 47, 0
2, 71073, Note_on_c, 0, 48, 54
2, 71105, Note_on_c, 0, 36, 0
2, 71107, Note_on_c, 0, 48, 0
2, 71108, Note_on_c, 0, 32, 53
2, 71150, Note_on_c, 0, 44, 52
2, 71181, Control_c, 0, 64, 127
2, 71184, Note_on_c, 0, 44, 0
2, 71197, Note_on_c, 0, 31, 48
2, 71199, Note_on_c, 0, 32, 0
2, 71223, Note_on_c, 0, 43, 54
2, 71228, Note_on_c, 0, 31, 0
2, 71258, Note_on_c, 0, 43, 0
2, 71260, Note_on_c, 0, 35, 53
2, 71293, Control_c, 0, 64, 0
2, 71313, Note_on_c, 0, 47, 42
2, 71356, Note_on_c, 0, 36, 42
2, 71358, Note_on_c, 0, 35, 0
2, 71390, Note_on_c, 0, 36, 0
2, 71399, Note_on_c, 0, 47, 0
2, 71401, Note_on_c, 0, 48, 47
2, 71424, Note_on_c, 0, 32, 42
2, 71436, Note_on_c, 0, 48, 0
2, 71459, Note_on_c, 0, 32, 0
2, 71484, Note_on_c, 0, 44, 48
2, 71517, Note_on_c, 0, 31, 41
2, 71547, Control_c, 0, 67, 127
2, 71549, Note_on_c, 0, 31, 0
2, 71559, Note_on_c, 0, 44, 0
2, 71561, Note_on_c, 0, 43, 57
2, 71605, Note_on_c, 0, 32, 59
2, 71638, Note_on_c, 0, 32, 0
2, 71640, Note_on_c, 0, 43, 0
2, 71641, Note_on_c, 0, 44, 48
2, 71671, Note_on_c, 0, 31, 48
2, 71726, Note_on_c, 0, 44, 0
2, 71727, Note_on_c, 0, 43, 53
2, 71775, Note_on_c, 0, 32, 48
2, 71777, Note_on_c, 0, 31, 0
2, 71811, Note_on_c, 0, 43, 0
2, 71817, Note_on_c, 0, 44, 43
2, 71865, Note_on_c, 0, 31, 48
2, 71866, Note_on_c, 0, 32, 0
2, 71909, Note_on_c, 0, 43, 42
2, 71911, Note_on_c, 0, 44, 0
2, 71914, Note_on_c, 0, 31, 0
2, 71964, Note_on_c, 0, 43, 0
2, 71970, Note_on_c, 0, 32, 41
2, 72009, Note_on_c, 0, 44, 43
2, 72014, Note_on_c, 0, 32, 0
2, 72050, Note_on_c, 0, 44, 0
2, 72052, Note_on_c, 0, 31, 44
2, 72087, Note_on_c, 0, 43, 42
2, 72100, Note_on_c, 0, 31, 0
2, 72144, Note_on_c, 0, 43, 0
2, 72150, Note_on_c, 0, 32, 41
2, 72198, Note_on_c, 0, 44, 42
2, 72203, Note_on_c, 0, 32, 0
2, 72261, Note_on_c, 0, 44, 0
2, 72275, Note_on_c, 0, 31, 47
2, 72308, Note_on_c, 0, 31, 0
2, 72330, Note_on_c, 0, 43, 42
2, 72362, Note_on_c, 0, 43, 0
2, 72626, Note_on_c, 0, 46, 65
2, 72627, Note_on_c, 0, 75, 70
2, 72677, Control_c, 0, 64, 127
2, 72728, Note_on_c, 0, 72, 49
2, 72773, Control_c, 0, 64, 0
2, 72787, Note_on_c, 0, 67, 46
2, 72845, Note_on_c, 0, 63, 47
2, 72892, Note_on_c, 0, 72, 0
2, 72894, Note_on_c, 0, 71, 68
2, 72901, Note_on_c, 0, 67, 0
2, 72921, Note_on_c, 0, 75, 0
2, 72954, Note_on_c, 0, 67, 48
2, 72960, Note_on_c, 0, 63, 0
2, 73016, Note_on_c, 0, 63, 53
2, 73056, Control_c, 0, 64, 127
2, 73072, Note_on_c, 0, 62, 41
2, 73144, Note_on_c, 0, 60, 60
2, 73195, Note_on_c, 0, 55, 58
2, 73245, Note_on_c, 0, 51, 59
2, 73284, Control_c, 0, 64, 0
2, 73306, Note_on_c, 0, 48, 55
2, 73323, Note_on_c, 0, 46, 0
2, 73370, Note_on_c, 0, 46, 60
2, 73371, Note_on_c, 0, 72, 65
2, 73380, Note_on_c, 0, 67, 0
2, 73424, Note_on_c, 0, 63, 0
2, 73426, Note_on_c, 0, 67, 43
2, 73435, Note_on_c, 0, 71, 0
2, 73485, Note_on_c, 0, 62, 0
2, 73487, Note_on_c, 0, 63, 46
2, 73489, Note_on_c, 0, 71, 42
2, 73507, Note_on_c, 0, 71, 0
2, 73516, Note_on_c, 0, 60, 0
2, 73551, Note_on_c, 0, 60, 48
2, 73553, Note_on_c, 0, 55, 0
2, 73568, Note_on_c, 0, 72, 0
2, 73626, Note_on_c, 0, 46, 0
2, 73631, Note_on_c, 0, 51, 0
2, 73631, Note_on_c, 0, 48, 0
2, 73632, Note_on_c, 0, 45, 60
2, 73634, Note_on_c, 0, 67, 0
2, 73637, Note_on_c, 0, 60, 0
2, 73637, Note_on_c, 0, 63, 0
2, 73640, Note_on_c, 0, 79, 69
2, 73699, Control_c, 0, 64, 127
2, 73728, Note_on_c, 0, 75, 42
2, 73800, Note_on_c, 0, 72, 43
2, 73824, Control_c, 0, 64, 0
2, 73862, Note_on_c, 0, 67, 42
2, 73936, Note_on_c, 0, 75, 0
2, 73939, Note_on_c, 0, 72, 0
2, 73942, Note_on_c, 0, 74, 48
2, 73971, Note_on_c, 0, 79, 0
2, 73992, Note_on_c, 0, 72, 42
2, 74014, Note_on_c, 0, 67, 0
2, 74070, Note_on_c, 0, 67, 46
2, 74112, Note_on_c, 0, 63, 42
2, 74173, Note_on_c, 0, 60, 46
2, 74176, Control_c, 0, 64, 127
2, 74233, Note_on_c, 0, 55, 48
2, 74304, Note_on_c, 0, 51, 44
2, 74362, Note_on_c, 0, 48, 41
2, 74376, Note_on_c, 0, 45, 0
2, 74385, Control_c, 0, 64, 0
2, 74430, Note_on_c, 0, 45, 52
2, 74450, Note_on_c, 0, 75, 66
2, 74456, Note_on_c, 0, 72, 0
2, 74511, Note_on_c, 0, 72, 46
2, 74517, Note_on_c, 0, 74, 0
2, 74524, Note_on_c, 0, 67, 0
2, 74578, Note_on_c, 0, 67, 43
2, 74584, Note_on_c, 0, 63, 0
2, 74636, Note_on_c, 0, 60, 0
2, 74639, Note_on_c, 0, 63, 46
2, 74652, Note_on_c, 0, 75, 0
2, 74691, Note_on_c, 0, 48, 0
2, 74691, Note_on_c, 0, 55, 0
2, 74691, Note_on_c, 0, 45, 0
2, 74691, Note_on_c, 0, 51, 0
2, 74693, Note_on_c, 0, 43, 73
2, 74722, Note_on_c, 0, 72, 0
2, 74725, Note_on_c, 0, 63, 0
2, 74725, Note_on_c, 0, 67, 0
2, 74726, Note_on_c, 0, 82, 79
2, 74770, Control_c, 0, 64, 127
2, 74784, Note_on_c, 0, 75, 49
2, 74851, Note_on_c, 0, 72, 58
2, 74904, Control_c, 0, 64, 0
2, 74920, Note_on_c, 0, 70, 60
2, 74988, Note_on_c, 0, 81, 82
2, 75044, Note_on_c, 0, 67, 47
2, 75048, Note_on_c, 0, 82, 0
2, 75108, Note_on_c, 0, 63, 53
2, 75158, Note_on_c, 0, 60, 50
2, 75237, Note_on_c, 0, 60, 0
2, 75238, Note_on_c, 0, 63, 0
2, 75238, Note_on_c, 0, 67, 0
2, 75238, Note_on_c, 0, 70, 0
2, 75238, Note_on_c, 0, 72, 0
2, 75238, Note_on_c, 0, 75, 0
2, 75240, Note_on_c, 0, 43, 0
2, 75240, Note_on_c, 0, 54, 69
2, 75240, Note_on_c, 0, 84, 77
2, 75280, Note_on_c, 0, 81, 0
2, 75299, Note_on_c, 0, 75, 49
2, 75326, Control_c, 0, 64, 127
2, 75377, Note_on_c, 0, 72, 53
2, 75441, Note_on_c, 0, 70, 53
2, 75512, Note_on_c, 0, 82, 70
2, 75529, Control_c, 0, 64, 0
2, 75567, Note_on_c, 0, 84, 0
2, 75586, Note_on_c, 0, 66, 44
2, 75647, Note_on_c, 0, 63, 50
2, 75700, Note_on_c, 0, 60, 48
2, 75759, Note_on_c, 0, 60, 0
2, 75760, Note_on_c, 0, 63, 0
2, 75760, Note_on_c, 0, 70, 0
2, 75760, Note_on_c, 0, 75, 0
2, 75760, Note_on_c, 0, 72, 0
2, 75760, Note_on_c, 0, 66, 0
2, 75762, Note_on_c, 0, 53, 62
2, 75763, Note_on_c, 0, 54, 0
2, 75768, Note_on_c, 0, 82, 0
2, 75773, Note_on_c, 0, 81, 83
2, 75801, Control_c, 0, 64, 127
2, 75868, Note_on_c, 0, 75, 46
2, 75893, Control_c, 0, 64, 0
2, 75917, Note_on_c, 0, 60, 41
2, 75918, Note_on_c, 0, 72, 45
2, 75983, Note_on_c, 0, 65, 41
2, 75984, Note_on_c, 0, 69, 41
2, 76037, Note_on_c, 0, 69, 0
2, 76037, Note_on_c, 0, 75, 0
2, 76039, Note_on_c, 0, 60, 0
2, 76040, Note_on_c, 0, 72, 0
2, 76040, Note_on_c, 0, 53, 0
2, 76040, Note_on_c, 0, 65, 0
2, 76041, Note_on_c, 0, 55, 59
2, 76044, Note_on_c, 0, 79, 70
2, 76094, Note_on_c, 0, 81, 0
2, 76128, Note_on_c, 0, 75, 43
2, 76178, Note_on_c, 0, 60, 43
2, 76180, Note_on_c, 0, 72, 42
2, 76241, Note_on_c, 0, 67, 47
2, 76248, Note_on_c, 0, 63, 48
2, 76299, Note_on_c, 0, 55, 0
2, 76300, Note_on_c, 0, 67, 0
2, 76300, Note_on_c, 0, 75, 0
2, 76300, Note_on_c, 0, 72, 0
2, 76300, Note_on_c, 0, 63, 0
2, 76301, Note_on_c, 0, 56, 59
2, 76302, Note_on_c, 0, 77, 62
2, 76303, Note_on_c, 0, 60, 0
2, 76361, Control_c, 0, 64, 127
2, 76368, Note_on_c, 0, 79, 0
2, 76377, Note_on_c, 0, 71, 45
2, 76445, Control_c, 0, 64, 0
2, 76450, Note_on_c, 0, 59, 48
2, 76450, Note_on_c, 0, 68, 47
2, 76503, Note_on_c, 0, 62, 42
2, 76504, Note_on_c, 0, 65, 65
2, 76560, Note_on_c, 0, 62, 0
2, 76560, Note_on_c, 0, 56, 0
2, 76561, Note_on_c, 0, 71, 0
2, 76561, Note_on_c, 0, 59, 0
2, 76561, Note_on_c, 0, 68, 0
2, 76561, Note_on_c, 0, 65, 0
2, 76562, Note_on_c, 0, 45, 51
2, 76574, Note_on_c, 0, 72, 63
2, 76617, Note_on_c, 0, 64, 46
2, 76623, Note_on_c, 0, 77, 0
2, 76702, Note_on_c, 0, 64, 0
2, 76704, Note_on_c, 0, 53, 45
2, 76704, Note_on_c, 0, 63, 41
2, 76771, Note_on_c, 0, 60, 62
2, 76834, Note_on_c, 0, 60, 0
2, 76835, Note_on_c, 0, 53, 0
2, 76835, Note_on_c, 0, 63, 0
2, 76842, Note_on_c, 0, 45, 0
2, 76843, Note_on_c, 0, 72, 0
2, 76845, Note_on_c, 0, 46, 66
2, 76846, Note_on_c, 0, 74, 69
2, 76876, Control_c, 0, 67, 0
2, 76889, Control_c, 0, 64, 127
2, 76906, Note_on_c, 0, 53, 46
2, 76974, Note_on_c, 0, 58, 47
2, 77040, Note_on_c, 0, 65, 45
2, 77068, Note_on_c, 0, 74, 0
2, 77116, Note_on_c, 0, 74, 71
2, 77125, Control_c, 0, 64, 0
2, 77174, Note_on_c, 0, 62, 46
2, 77201, Note_on_c, 0, 65, 0
2, 77242, Note_on_c, 0, 65, 45
2, 77309, Note_on_c, 0, 70, 48
2, 77362, Note_on_c, 0, 58, 0
2, 77362, Note_on_c, 0, 46, 0
2, 77362, Note_on_c, 0, 62, 0
2, 77363, Note_on_c, 0, 70, 0
2, 77363, Note_on_c, 0, 53, 0
2, 77363, Note_on_c, 0, 65, 0
2, 77364, Note_on_c, 0, 51, 71
2, 77373, Note_on_c, 0, 79, 65
2, 77433, Note_on_c, 0, 55, 46
2, 77445, Note_on_c, 0, 74, 0
2, 77526, Control_c, 0, 64, 127
2, 77535, Note_on_c, 0, 59, 56
2, 77581, Note_on_c, 0, 62, 65
2, 77666, Note_on_c, 0, 63, 60
2, 77725, Note_on_c, 0, 67, 47
2, 77816, Note_on_c, 0, 71, 50
2, 77875, Note_on_c, 0, 75, 51
2, 77928, Control_c, 0, 64, 0
2, 78052, Note_on_c, 0, 71, 0
2, 78089, Note_on_c, 0, 71, 51
2, 78096, Note_on_c, 0, 67, 0
2, 78138, Note_on_c, 0, 67, 53
2, 78145, Note_on_c, 0, 55, 0
2, 78145, Note_on_c, 0, 62, 0
2, 78146, Note_on_c, 0, 59, 0
2, 78184, Note_on_c, 0, 67, 0
2, 78184, Note_on_c, 0, 63, 0
2, 78185, Note_on_c, 0, 55, 66
2, 78185, Note_on_c, 0, 62, 66
2, 78186, Note_on_c, 0, 51, 0
2, 78186, Note_on_c, 0, 71, 0
2, 78186, Note_on_c, 0, 59, 63
2, 78191, Note_on_c, 0, 75, 0
2, 78193, Note_on_c, 0, 74, 70
2, 78248, Note_on_c, 0, 79, 0
2, 78264, Control_c, 0, 64, 127
2, 78269, Note_on_c, 0, 71, 42
2, 78319, Note_on_c, 0, 67, 44
2, 78331, Note_on_c, 0, 62, 0
2, 78337, Control_c, 0, 64, 0
2, 78375, Note_on_c, 0, 62, 43
2, 78406, Note_on_c, 0, 55, 0
2, 78444, Note_on_c, 0, 55, 60
2, 78447, Note_on_c, 0, 59, 0
2, 78448, Note_on_c, 0, 51, 56
2, 78448, Note_on_c, 0, 60, 57
2, 78453, Note_on_c, 0, 71, 0
2, 78453, Note_on_c, 0, 62, 0
2, 78454, Note_on_c, 0, 74, 0
2, 78454, Note_on_c, 0, 67, 0
2, 78456, Note_on_c, 0, 79, 69
2, 78542, Note_on_c, 0, 75, 52
2, 78599, Note_on_c, 0, 72, 49
2, 78644, Control_c, 0, 64, 127
2, 78656, Note_on_c, 0, 67, 47
2, 78683, Note_on_c, 0, 51, 0
2, 78720, Note_on_c, 0, 55, 0
2, 78721, Note_on_c, 0, 75, 0
2, 78721, Note_on_c, 0, 72, 0
2, 78724, Note_on_c, 0, 60, 0
2, 78726, Note_on_c, 0, 51, 53
2, 78727, Note_on_c, 0, 69, 65
2, 78755, Control_c, 0, 64, 0
2, 78757, Note_on_c, 0, 67, 0
2, 78792, Note_on_c, 0, 79, 0
2, 78799, Note_on_c, 0, 67, 49
2, 78855, Note_on_c, 0, 60, 48
2, 78912, Note_on_c, 0, 57, 44
2, 78988, Note_on_c, 0, 74, 75
2, 78991, Note_on_c, 0, 60, 0
2, 78992, Note_on_c, 0, 57, 0
2, 78992, Note_on_c, 0, 69, 0
2, 78993, Note_on_c, 0, 67, 0
2, 78994, Note_on_c, 0, 50, 65
2, 78995, Note_on_c, 0, 51, 0
2, 79007, Control_c, 0, 64, 127
2, 79068, Note_on_c, 0, 70, 48
2, 79137, Note_on_c, 0, 66, 44
2, 79188, Note_on_c, 0, 62, 46
2, 79222, Note_on_c, 0, 70, 0
2, 79265, Note_on_c, 0, 62, 0
2, 79265, Note_on_c, 0, 50, 0
2, 79268, Note_on_c, 0, 52, 46
2, 79268, Note_on_c, 0, 70, 41
2, 79273, Note_on_c, 0, 66, 0
2, 79318, Control_c, 0, 64, 0
2, 79319, Note_on_c, 0, 66, 46
2, 79333, Note_on_c, 0, 74, 0
2, 79377, Note_on_c, 0, 62, 45
2, 79420, Note_on_c, 0, 66, 0
2, 79438, Note_on_c, 0, 60, 47
2, 79510, Note_on_c, 0, 43, 61
2, 79514, Note_on_c, 0, 60, 0
2, 79514, Note_on_c, 0, 62, 0
2, 79515, Note_on_c, 0, 52, 0
2, 79517, Note_on_c, 0, 50, 63
2, 79517, Note_on_c, 0, 57, 63
2, 79517, Note_on_c, 0, 66, 68
2, 79560, Note_on_c, 0, 70, 0
2, 79574, Control_c, 0, 64, 127
2, 79582, Note_on_c, 0, 62, 41
2, 79658, Note_on_c, 0, 60, 45
2, 79679, Control_c, 0, 64, 0
2, 79722, Note_on_c, 0, 57, 0
2, 79724, Note_on_c, 0, 54, 46
2, 79790, Note_on_c, 0, 60, 0
2, 79791, Note_on_c, 0, 62, 0
2, 79792, Note_on_c, 0, 58, 46
2, 79793, Note_on_c, 0, 67, 60
2, 79849, Note_on_c, 0, 66, 0
2, 79868, Note_on_c, 0, 62, 47
2, 79909, Note_on_c, 0, 67, 0
2, 79953, Note_on_c, 0, 67, 44
2, 80008, Note_on_c, 0, 70, 47
2, 80056, Note_on_c, 0, 62, 0
2, 80057, Note_on_c, 0, 67, 0
2, 80057, Note_on_c, 0, 50, 0
2, 80057, Note_on_c, 0, 43, 0
2, 80057, Note_on_c, 0, 58, 0
2, 80057, Note_on_c, 0, 70, 0
2, 80057, Note_on_c, 0, 41, 57
2, 80060, Note_on_c, 0, 54, 0
2, 80060, Note_on_c, 0, 74, 62
2, 80126, Control_c, 0, 67, 127
2, 80163, Note_on_c, 0, 50, 44
2, 80217, Note_on_c, 0, 53, 47
2, 80237, Control_c, 0, 64, 127
2, 80304, Note_on_c, 0, 59, 48
2, 80362, Note_on_c, 0, 74, 0
2, 80363, Note_on_c, 0, 71, 69
2, 80427, Note_on_c, 0, 62, 46
2, 80478, Note_on_c, 0, 64, 48
2, 80553, Note_on_c, 0, 65, 52
2, 80575, Control_c, 0, 64, 0
2, 80617, Note_on_c, 0, 65, 0
2, 80619, Note_on_c, 0, 68, 51
2, 80674, Note_on_c, 0, 65, 47
2, 80687, Note_on_c, 0, 64, 0
2, 80740, Note_on_c, 0, 64, 50
2, 80753, Note_on_c, 0, 62, 0
2, 80768, Note_on_c, 0, 68, 0
2, 80792, Note_on_c, 0, 65, 0
2, 80793, Note_on_c, 0, 62, 46
2, 80800, Note_on_c, 0, 64, 0
2, 80826, Note_on_c, 0, 53, 0
2, 80867, Note_on_c, 0, 41, 0
2, 80867, Note_on_c, 0, 62, 0
2, 80867, Note_on_c, 0, 53, 41
2, 80867, Note_on_c, 0, 72, 52
2, 80868, Note_on_c, 0, 59, 0
2, 80868, Note_on_c, 0, 50, 0
2, 80868, Note_on_c, 0, 63, 48
2, 80870, Note_on_c, 0, 57, 44
2, 80917, Control_c, 0, 64, 127
2, 80938, Note_on_c, 0, 71, 0
2, 80976, Control_c, 0, 67, 0
2, 80983, Control_c, 0, 64, 0
2, 81016, Note_on_c, 0, 63, 0
2, 81022, Note_on_c, 0, 64, 41
2, 81061, Note_on_c, 0, 72, 0
2, 81082, Note_on_c, 0, 65, 47
2, 81084, Note_on_c, 0, 64, 0
2, 81168, Note_on_c, 0, 65, 0
2, 81175, Note_on_c, 0, 75, 64
2, 81178, Note_on_c, 0, 57, 0
2, 81179, Note_on_c, 0, 53, 0
2, 81180, Note_on_c, 0, 46, 53
2, 81240, Control_c, 0, 64, 127
2, 81267, Note_on_c, 0, 72, 45
2, 81332, Note_on_c, 0, 67, 44
2, 81403, Note_on_c, 0, 63, 43
2, 81485, Note_on_c, 0, 75, 0
2, 81486, Control_c, 0, 64, 0
2, 81488, Note_on_c, 0, 72, 0
2, 81491, Note_on_c, 0, 71, 66
2, 81497, Note_on_c, 0, 67, 0
2, 81545, Note_on_c, 0, 67, 43
2, 81574, Note_on_c, 0, 63, 0
2, 81623, Note_on_c, 0, 63, 42
2, 81665, Note_on_c, 0, 62, 45
2, 81744, Note_on_c, 0, 60, 60
2, 81829, Note_on_c, 0, 55, 60
2, 81885, Control_c, 0, 64, 127
2, 81892, Note_on_c, 0, 51, 57
2, 81950, Note_on_c, 0, 48, 59
2, 81981, Note_on_c, 0, 46, 0
2, 81995, Control_c, 0, 64, 0
2, 82021, Note_on_c, 0, 46, 74
2, 82033, Note_on_c, 0, 72, 64
2, 82063, Note_on_c, 0, 67, 0
2, 82105, Note_on_c, 0, 71, 0
2, 82107, Note_on_c, 0, 67, 43
2, 82131, Note_on_c, 0, 63, 0
2, 82173, Note_on_c, 0, 63, 44
2, 82174, Note_on_c, 0, 62, 0
2, 82188, Note_on_c, 0, 60, 0
2, 82231, Note_on_c, 0, 60, 43
2, 82256, Note_on_c, 0, 72, 0
2, 82326, Note_on_c, 0, 60, 0
2, 82326, Note_on_c, 0, 55, 0
2, 82327, Note_on_c, 0, 46, 0
2, 82327, Note_on_c, 0, 48, 0
2, 82327, Note_on_c, 0, 63, 0
2, 82328, Note_on_c, 0, 67, 0
2, 82330, Note_on_c, 0, 51, 0
2, 82332, Note_on_c, 0, 45, 59
2, 82334, Note_on_c, 0, 79, 66
2, 82413, Note_on_c, 0, 75, 48
2, 82420, Control_c, 0, 64, 127
2, 82484, Note_on_c, 0, 72, 46
2, 82535, Note_on_c, 0, 67, 50
2, 82558, Control_c, 0, 64, 0
2, 82606, Note_on_c, 0, 75, 0
2, 82606, Note_on_c, 0, 79, 0
2, 82608, Note_on_c, 0, 74, 68
2, 82624, Note_on_c, 0, 72, 0
2, 82659, Note_on_c, 0, 67, 0
2, 82661, Note_on_c, 0, 72, 47
2, 82714, Note_on_c, 0, 67, 48
2, 82786, Note_on_c, 0, 63, 42
2, 82847, Control_c, 0, 64, 127
2, 82851, Note_on_c, 0, 60, 65
2, 82916, Note_on_c, 0, 55, 59
2, 82985, Note_on_c, 0, 51, 63
2, 83031, Control_c, 0, 64, 0
2, 83040, Note_on_c, 0, 45, 0
2, 83041, Note_on_c, 0, 48, 59
2, 83091, Note_on_c, 0, 45, 66
2, 83112, Note_on_c, 0, 75, 66
2, 83125, Note_on_c, 0, 72, 0
2, 83161, Note_on_c, 0, 74, 0
2, 83175, Note_on_c, 0, 72, 42
2, 83181, Note_on_c, 0, 67, 0
2, 83231, Note_on_c, 0, 67, 44
2, 83236, Note_on_c, 0, 63, 0
2, 83279, Note_on_c, 0, 63, 43
2, 83354, Note_on_c, 0, 48, 0
2, 83354, Note_on_c, 0, 45, 0
2, 83354, Note_on_c, 0, 51, 0
2, 83354, Note_on_c, 0, 55, 0
2, 83354, Note_on_c, 0, 60, 0
2, 83357, Note_on_c, 0, 43, 66
2, 83358, Note_on_c, 0, 75, 0
2, 83361, Note_on_c, 0, 72, 0
2, 83362, Note_on_c, 0, 67, 0
2, 83362, Note_on_c, 0, 63, 0
2, 83362, Note_on_c, 0, 82, 72
2, 83363, Note_on_c, 0, 70, 70
2, 83430, Control_c, 0, 64, 127
2, 83502, Note_on_c, 0, 75, 47
2, 83527, Control_c, 0, 64, 0
2, 83565, Note_on_c, 0, 72, 52
2, 83605, Note_on_c, 0, 69, 76
2, 83606, Note_on_c, 0, 70, 0
2, 83607, Note_on_c, 0, 81, 76
2, 83650, Note_on_c, 0, 82, 0
2, 83672, Note_on_c, 0, 67, 46
2, 83740, Note_on_c, 0, 63, 51
2, 83782, Note_on_c, 0, 60, 46
2, 83884, Note_on_c, 0, 60, 0
2, 83884, Note_on_c, 0, 43, 0
2, 83885, Note_on_c, 0, 69, 0
2, 83885, Note_on_c, 0, 75, 0
2, 83885, Note_on_c, 0, 72, 0
2, 83885, Note_on_c, 0, 63, 0
2, 83886, Note_on_c, 0, 67, 0
2, 83886, Note_on_c, 0, 42, 69
2, 83887, Note_on_c, 0, 54, 68
2, 83887, Note_on_c, 0, 86, 68
2, 83888, Note_on_c, 0, 74, 67
2, 83931, Note_on_c, 0, 81, 0
2, 83948, Control_c, 0, 64, 127
2, 84024, Note_on_c, 0, 74, 0
2, 84033, Note_on_c, 0, 81, 46
2, 84079, Note_on_c, 0, 74, 46
2, 84162, Note_on_c, 0, 72, 59
2, 84162, Note_on_c, 0, 84, 60
2, 84175, Control_c, 0, 64, 0
2, 84219, Note_on_c, 0, 62, 44
2, 84222, Note_on_c, 0, 86, 0
2, 84272, Note_on_c, 0, 54, 0
2, 84275, Note_on_c, 0, 57, 45
2, 84326, Note_on_c, 0, 54, 48
2, 84407, Note_on_c, 0, 42, 0
2, 84408, Note_on_c, 0, 54, 0
2, 84408, Note_on_c, 0, 62, 0
2, 84408, Note_on_c, 0, 57, 0
2, 84409, Note_on_c, 0, 55, 65
2, 84416, Note_on_c, 0, 74, 0
2, 84416, Note_on_c, 0, 81, 0
2, 84416, Note_on_c, 0, 84, 0
2, 84416, Note_on_c, 0, 72, 0
2, 84417, Note_on_c, 0, 82, 68
2, 84418, Note_on_c, 0, 70, 65
2, 84481, Note_on_c, 0, 79, 47
2, 84495, Control_c, 0, 64, 127
2, 84536, Note_on_c, 0, 74, 42
2, 84545, Note_on_c, 0, 43, 44
2, 84546, Note_on_c, 0, 50, 46
2, 84559, Note_on_c, 0, 70, 0
2, 84585, Control_c, 0, 64, 0
2, 84605, Note_on_c, 0, 70, 48
2, 84675, Note_on_c, 0, 79, 0
2, 84677, Note_on_c, 0, 66, 69
2, 84678, Note_on_c, 0, 55, 0
2, 84678, Note_on_c, 0, 50, 0
2, 84680, Note_on_c, 0, 57, 67
2, 84680, Note_on_c, 0, 78, 66
2, 84702, Note_on_c, 0, 74, 0
2, 84744, Note_on_c, 0, 82, 0
2, 84745, Note_on_c, 0, 74, 47
2, 84802, Note_on_c, 0, 45, 44
2, 84802, Note_on_c, 0, 50, 44
2, 84804, Note_on_c, 0, 43, 0
2, 84812, Note_on_c, 0, 70, 0
2, 84814, Note_on_c, 0, 69, 45
2, 84826, Note_on_c, 0, 66, 0
2, 84870, Note_on_c, 0, 66, 41
2, 84939, Note_on_c, 0, 69, 0
2, 84942, Note_on_c, 0, 57, 0
2, 84942, Note_on_c, 0, 66, 0
2, 84943, Note_on_c, 0, 74, 0
2, 84944, Note_on_c, 0, 58, 59
2, 84945, Note_on_c, 0, 67, 46
2, 84945, Note_on_c, 0, 79, 45
2, 84948, Note_on_c, 0, 50, 0
2, 85021, Note_on_c, 0, 78, 0
2, 85023, Note_on_c, 0, 75, 41
2, 85083, Note_on_c, 0, 50, 44
2, 85084, Note_on_c, 0, 45, 0
2, 85084, Note_on_c, 0, 74, 46
2, 85086, Note_on_c, 0, 46, 41
2, 85089, Note_on_c, 0, 67, 0
2, 85131, Note_on_c, 0, 67, 46
2, 85132, Note_on_c, 0, 74, 0
2, 85196, Note_on_c, 0, 62, 57
2, 85197, Note_on_c, 0, 74, 72
2, 85198, Note_on_c, 0, 50, 0
2, 85198, Note_on_c, 0, 58, 0
2, 85198, Note_on_c, 0, 75, 0
2, 85198, Note_on_c, 0, 67, 0
2, 85200, Note_on_c, 0, 59, 54
2, 85261, Note_on_c, 0, 79, 0
2, 85267, Note_on_c, 0, 68, 48
2, 85341, Note_on_c, 0, 68, 0
2, 85342, Note_on_c, 0, 50, 45
2, 85344, Note_on_c, 0, 62, 0
2, 85345, Note_on_c, 0, 47, 43
2, 85346, Note_on_c, 0, 67, 47
2, 85351, Note_on_c, 0, 46, 0
2, 85388, Note_on_c, 0, 59, 0
2, 85390, Note_on_c, 0, 62, 46
2, 85419, Note_on_c, 0, 67, 0
2, 85462, Note_on_c, 0, 62, 0
2, 85463, Note_on_c, 0, 74, 0
2, 85464, Note_on_c, 0, 63, 65
2, 85464, Note_on_c, 0, 67, 72
2, 85465, Note_on_c, 0, 75, 73
2, 85468, Note_on_c, 0, 47, 0
2, 85470, Note_on_c, 0, 48, 63
2, 85472, Note_on_c, 0, 50, 0
2, 85538, Note_on_c, 0, 51, 50
2, 85575, Control_c, 0, 64, 127
2, 85586, Note_on_c, 0, 75, 0
2, 85587, Note_on_c, 0, 55, 51
2, 85649, Note_on_c, 0, 60, 46
2, 85684, Note_on_c, 0, 63, 0
2, 85729, Note_on_c, 0, 75, 51
2, 85732, Note_on_c, 0, 63, 50
2, 85752, Note_on_c, 0, 67, 0
2, 85796, Note_on_c, 0, 67, 45
2, 85800, Control_c, 0, 64, 0
2, 85859, Note_on_c, 0, 72, 53
2, 85889, Note_on_c, 0, 75, 0
2, 85932, Note_on_c, 0, 75, 52
2, 85944, Note_on_c, 0, 72, 0
2, 85984, Note_on_c, 0, 48, 0
2, 85984, Note_on_c, 0, 51, 0
2, 85984, Note_on_c, 0, 55, 0
2, 85984, Note_on_c, 0, 60, 0
2, 85985, Note_on_c, 0, 75, 0
2, 85985, Note_on_c, 0, 67, 0
2, 85985, Note_on_c, 0, 63, 0
2, 85987, Note_on_c, 0, 46, 70
2, 85987, Note_on_c, 0, 69, 64
2, 85987, Note_on_c, 0, 72, 68
2, 85987, Note_on_c, 0, 81, 64
2, 86088, Note_on_c, 0, 48, 41
2, 86129, Note_on_c, 0, 51, 41
2, 86187, Control_c, 0, 64, 127
2, 86194, Note_on_c, 0, 58, 44
2, 86253, Note_on_c, 0, 67, 61
2, 86257, Note_on_c, 0, 79, 63
2, 86260, Note_on_c, 0, 63, 42
2, 86262, Note_on_c, 0, 60, 46
2, 86299, Note_on_c, 0, 72, 0
2, 86314, Control_c, 0, 64, 0
2, 86326, Note_on_c, 0, 81, 0
2, 86326, Note_on_c, 0, 69, 0
2, 86342, Note_on_c, 0, 72, 47
2, 86378, Note_on_c, 0, 79, 0
2, 86397, Note_on_c, 0, 75, 41
2, 86424, Note_on_c, 0, 79, 46
2, 86444, Note_on_c, 0, 72, 0
2, 86485, Note_on_c, 0, 48, 0
2, 86485, Note_on_c, 0, 46, 0
2, 86485, Note_on_c, 0, 60, 0
2, 86486, Note_on_c, 0, 58, 0
2, 86486, Note_on_c, 0, 75, 0
2, 86486, Note_on_c, 0, 63, 0
2, 86487, Note_on_c, 0, 79, 0
2, 86488, Note_on_c, 0, 65, 63
2, 86488, Note_on_c, 0, 72, 66
2, 86489, Note_on_c, 0, 51, 0
2, 86490, Note_on_c, 0, 45, 48
2, 86492, Note_on_c, 0, 77, 64
2, 86553, Note_on_c, 0, 48, 47
2, 86565, Note_on_c, 0, 67, 0
2, 86597, Note_on_c, 0, 53, 43
2, 86672, Note_on_c, 0, 57, 43
2, 86692, Note_on_c, 0, 69, 63
2, 86694, Note_on_c, 0, 65, 0
2, 86711, Control_c, 0, 64, 127
2, 86717, Note_on_c, 0, 53, 0
2, 86726, Note_on_c, 0, 72, 0
2, 86759, Note_on_c, 0, 60, 70
2, 86767, Note_on_c, 0, 72, 60
2, 86774, Note_on_c, 0, 53, 69
2, 86800, Note_on_c, 0, 77, 0
2, 86832, Note_on_c, 0, 65, 72
2, 86841, Note_on_c, 0, 57, 0
2, 86843, Note_on_c, 0, 77, 66
2, 86857, Note_on_c, 0, 69, 0
2, 86894, Note_on_c, 0, 69, 66
2, 86899, Note_on_c, 0, 72, 0
2, 86901, Note_on_c, 0, 81, 65
2, 86959, Note_on_c, 0, 84, 70
2, 86964, Note_on_c, 0, 77, 0
2, 86970, Note_on_c, 0, 65, 0
2, 86992, Note_on_c, 0, 53, 0
2, 86994, Note_on_c, 0, 57, 74
2, 87010, Note_on_c, 0, 65, 46
2, 87013, Note_on_c, 0, 77, 47
2, 87020, Note_on_c, 0, 89, 48
2, 87072, Note_on_c, 0, 84, 0
2, 87078, Note_on_c, 0, 73, 44
2, 87079, Note_on_c, 0, 85, 48
2, 87092, Note_on_c, 0, 81, 0
2, 87092, Note_on_c, 0, 69, 0
2, 87135, Note_on_c, 0, 81, 48
2, 87136, Note_on_c, 0, 69, 47
2, 87141, Note_on_c, 0, 77, 0
2, 87145, Note_on_c, 0, 65, 0
2, 87184, Note_on_c, 0, 65, 42
2, 87189, Note_on_c, 0, 77, 43
2, 87216, Note_on_c, 0, 65, 0
2, 87223, Note_on_c, 0, 77, 0
2, 87240, Note_on_c, 0, 57, 0
2, 87240, Note_on_c, 0, 55, 62
2, 87252, Control_c, 0, 64, 0
2, 87255, Note_on_c, 0, 65, 47
2, 87266, Note_on_c, 0, 77, 44
2, 87272, Note_on_c, 0, 73, 0
2, 87306, Note_on_c, 0, 60, 0
2, 87309, Note_on_c, 0, 61, 41
2, 87315, Note_on_c, 0, 73, 41
2, 87340, Note_on_c, 0, 69, 0
2, 87363, Note_on_c, 0, 77, 0
2, 87377, Note_on_c, 0, 57, 46
2, 87382, Note_on_c, 0, 69, 42
2, 87390, Note_on_c, 0, 65, 0
2, 87431, Note_on_c, 0, 53, 41
2, 87433, Note_on_c, 0, 65, 59
2, 87485, Note_on_c, 0, 45, 0
2, 87486, Note_on_c, 0, 53, 0
2, 87486, Note_on_c, 0, 69, 0
2, 87486, Note_on_c, 0, 61, 0
2, 87486, Note_on_c, 0, 73, 0
2, 87486, Note_on_c, 0, 89, 0
2, 87486, Note_on_c, 0, 85, 0
2, 87486, Note_on_c, 0, 81, 0
2, 87488, Note_on_c, 0, 74, 65
2, 87489, Note_on_c, 0, 57, 0
2, 87489, Note_on_c, 0, 48, 0
2, 87490, Note_on_c, 0, 65, 0
2, 87490, Note_on_c, 0, 46, 53
2, 87492, Note_on_c, 0, 70, 64
2, 87492, Note_on_c, 0, 77, 63
2, 87557, Note_on_c, 0, 50, 47
2, 87569, Control_c, 0, 64, 127
2, 87604, Note_on_c, 0, 53, 41
2, 87606, Note_on_c, 0, 55, 0
2, 87639, Note_on_c, 0, 77, 0
2, 87673, Note_on_c, 0, 58, 43
2, 87750, Note_on_c, 0, 65, 71
2, 87751, Note_on_c, 0, 62, 48
2, 87751, Note_on_c, 0, 77, 68
2, 87757, Note_on_c, 0, 70, 0
2, 87800, Note_on_c, 0, 70, 44
2, 87807, Control_c, 0, 64, 0
2, 87821, Note_on_c, 0, 74, 0
2, 87869, Note_on_c, 0, 74, 50
2, 87882, Note_on_c, 0, 77, 0
2, 87925, Note_on_c, 0, 77, 69
2, 87963, Note_on_c, 0, 77, 0
2, 87968, Note_on_c, 0, 74, 0
2, 88008, Note_on_c, 0, 62, 0
2, 88008, Note_on_c, 0, 70, 0
2, 88008, Note_on_c, 0, 58, 0
2, 88009, Note_on_c, 0, 47, 73
2, 88010, Note_on_c, 0, 50, 0
2, 88010, Note_on_c, 0, 65, 0
2, 88010, Note_on_c, 0, 46, 0
2, 88010, Note_on_c, 0, 53, 0
2, 88010, Note_on_c, 0, 69, 69
2, 88013, Note_on_c, 0, 77, 72
2, 88013, Note_on_c, 0, 81, 68
2, 88014, Note_on_c, 0, 74, 67
2, 88087, Note_on_c, 0, 50, 46
2, 88128, Note_on_c, 0, 55, 48
2, 88198, Control_c, 0, 64, 127
2, 88205, Note_on_c, 0, 59, 43
2, 88265, Note_on_c, 0, 65, 60
2, 88267, Note_on_c, 0, 81, 0
2, 88268, Note_on_c, 0, 62, 46
2, 88269, Note_on_c, 0, 67, 55
2, 88269, Note_on_c, 0, 79, 53
2, 88289, Note_on_c, 0, 74, 0
2, 88329, Note_on_c, 0, 69, 0
2, 88331, Note_on_c, 0, 74, 46
2, 88346, Note_on_c, 0, 77, 0
2, 88389, Note_on_c, 0, 77, 43
2, 88397, Control_c, 0, 64, 0
2, 88402, Note_on_c, 0, 79, 0
2, 88444, Note_on_c, 0, 79, 43
2, 88446, Note_on_c, 0, 77, 0
2, 88455, Note_on_c, 0, 65, 0
2, 88516, Note_on_c, 0, 62, 0
2, 88516, Note_on_c, 0, 79, 0
2, 88517, Note_on_c, 0, 74, 0
2, 88518, Note_on_c, 0, 48, 57
2, 88518, Note_on_c, 0, 65, 58
2, 88518, Note_on_c, 0, 75, 58
2, 88519, Note_on_c, 0, 55, 0
2, 88519, Note_on_c, 0, 47, 0
2, 88519, Note_on_c, 0, 50, 0
2, 88520, Note_on_c, 0, 59, 0
2, 88521, Note_on_c, 0, 77, 55
2, 88582, Note_on_c, 0, 67, 0
2, 88583, Note_on_c, 0, 51, 46
2, 88624, Note_on_c, 0, 53, 49
2, 88668, Control_c, 0, 64, 127
2, 88672, Note_on_c, 0, 75, 0
2, 88677, Note_on_c, 0, 57, 50
2, 88678, Note_on_c, 0, 69, 54
2, 88708, Note_on_c, 0, 53, 0
2, 88751, Note_on_c, 0, 60, 70
2, 88752, Note_on_c, 0, 72, 58
2, 88766, Note_on_c, 0, 53, 76
2, 88778, Note_on_c, 0, 77, 0
2, 88782, Note_on_c, 0, 65, 0
2, 88818, Note_on_c, 0, 65, 69
2, 88818, Note_on_c, 0, 77, 66
2, 88828, Note_on_c, 0, 69, 0
2, 88864, Note_on_c, 0, 57, 0
2, 88865, Note_on_c, 0, 72, 0
2, 88867, Note_on_c, 0, 69, 63
2, 88867, Note_on_c, 0, 81, 69
2, 88932, Note_on_c, 0, 72, 68
2, 88932, Note_on_c, 0, 84, 65
2, 88941, Note_on_c, 0, 77, 0
2, 88941, Note_on_c, 0, 65, 0
2, 88978, Note_on_c, 0, 53, 0
2, 88980, Note_on_c, 0, 57, 73
2, 88980, Note_on_c, 0, 77, 47
2, 88981, Note_on_c, 0, 89, 46
2, 89001, Note_on_c, 0, 72, 0
2, 89043, Note_on_c, 0, 84, 0
2, 89049, Note_on_c, 0, 73, 42
2, 89049, Note_on_c, 0, 85, 42
2, 89063, Note_on_c, 0, 81, 0
2, 89063, Note_on_c, 0, 69, 0
2, 89107, Note_on_c, 0, 69, 41
2, 89107, Note_on_c, 0, 81, 42
2, 89112, Note_on_c, 0, 77, 0
2, 89151, Note_on_c, 0, 65, 43
2, 89155, Note_on_c, 0, 77, 42
2, 89187, Note_on_c, 0, 65, 0
2, 89191, Note_on_c, 0, 77, 0
2, 89225, Note_on_c, 0, 57, 0
2, 89227, Note_on_c, 0, 55, 64
2, 89228, Note_on_c, 0, 65, 42
2, 89228, Note_on_c, 0, 77, 41
2, 89249, Note_on_c, 0, 73, 0
2, 89268, Note_on_c, 0, 39, 48
2, 89274, Control_c, 0, 64, 0
2, 89286, Note_on_c, 0, 39, 0
2, 89290, Note_on_c, 0, 60, 0
2, 89292, Note_on_c, 0, 61, 46
2, 89293, Note_on_c, 0, 73, 44
2, 89319, Note_on_c, 0, 69, 0
2, 89359, Note_on_c, 0, 55, 0
2, 89359, Note_on_c, 0, 69, 45
2, 89363, Note_on_c, 0, 57, 45
2, 89376, Note_on_c, 0, 65, 0
2, 89417, Note_on_c, 0, 73, 0
2, 89417, Note_on_c, 0, 57, 0
2, 89417, Note_on_c, 0, 85, 0
2, 89417, Note_on_c, 0, 81, 0
2, 89417, Note_on_c, 0, 89, 0
2, 89417, Note_on_c, 0, 48, 0
2, 89417, Note_on_c, 0, 61, 0
2, 89417, Note_on_c, 0, 77, 0
2, 89418, Note_on_c, 0, 53, 41
2, 89420, Note_on_c, 0, 51, 0
2, 89420, Note_on_c, 0, 65, 42
2, 89431, Note_on_c, 0, 69, 0
2, 89452, Note_on_c, 0, 65, 0
2, 89452, Note_on_c, 0, 53, 0
2, 89481, Note_on_c, 0, 46, 41
2, 89545, Note_on_c, 0, 53, 43
2, 89577, Control_c, 0, 64, 127
2, 89609, Note_on_c, 0, 58, 47
2, 89660, Note_on_c, 0, 62, 43
2, 89715, Control_c, 0, 64, 0
2, 89719, Note_on_c, 0, 65, 60
2, 89732, Note_on_c, 0, 77, 57
2, 89780, Note_on_c, 0, 74, 46
2, 89797, Note_on_c, 0, 65, 0
2, 89841, Note_on_c, 0, 70, 52
2, 89893, Note_on_c, 0, 65, 52
2, 89941, Note_on_c, 0, 62, 0
2, 89945, Note_on_c, 0, 46, 0
2, 89946, Note_on_c, 0, 53, 0
2, 89946, Note_on_c, 0, 58, 0
2, 89947, Note_on_c, 0, 47, 56
2, 89969, Note_on_c, 0, 65, 0
2, 89997, Note_on_c, 0, 70, 0
2, 90000, Note_on_c, 0, 53, 44
2, 90014, Note_on_c, 0, 77, 0
2, 90019, Note_on_c, 0, 74, 0
2, 90070, Note_on_c, 0, 55, 46
2, 90125, Control_c, 0, 64, 127
2, 90143, Note_on_c, 0, 62, 42
2, 90211, Note_on_c, 0, 67, 53
2, 90211, Note_on_c, 0, 79, 56
2, 90221, Control_c, 0, 64, 0
2, 90270, Note_on_c, 0, 77, 42
2, 90284, Note_on_c, 0, 55, 0
2, 90285, Note_on_c, 0, 67, 0
2, 90330, Note_on_c, 0, 55, 46
2, 90341, Note_on_c, 0, 74, 54
2, 90387, Note_on_c, 0, 62, 0
2, 90391, Note_on_c, 0, 67, 48
2, 90430, Note_on_c, 0, 55, 0
2, 90430, Note_on_c, 0, 47, 0
2, 90431, Note_on_c, 0, 53, 0
2, 90432, Note_on_c, 0, 48, 72
2, 90482, Note_on_c, 0, 55, 47
2, 90490, Note_on_c, 0, 79, 0
2, 90508, Note_on_c, 0, 77, 0
2, 90517, Note_on_c, 0, 74, 0
2, 90541, Note_on_c, 0, 67, 0
2, 90570, Note_on_c, 0, 60, 43
2, 90609, Control_c, 0, 64, 127
2, 90616, Note_on_c, 0, 64, 49
2, 90691, Note_on_c, 0, 67, 65
2, 90691, Note_on_c, 0, 79, 67
2, 90744, Control_c, 0, 64, 0
2, 90758, Note_on_c, 0, 76, 42
2, 90760, Note_on_c, 0, 67, 0
2, 90815, Note_on_c, 0, 72, 52
2, 90855, Note_on_c, 0, 67, 54
2, 90899, Note_on_c, 0, 60, 0
2, 90899, Note_on_c, 0, 55, 0
2, 90900, Note_on_c, 0, 48, 0
2, 90900, Note_on_c, 0, 64, 0
2, 90902, Note_on_c, 0, 49, 69
2, 90922, Note_on_c, 0, 67, 0
2, 90922, Note_on_c, 0, 76, 0
2, 90934, Note_on_c, 0, 72, 0
2, 90938, Note_on_c, 0, 79, 0
2, 90973, Note_on_c, 0, 55, 41
2, 91043, Note_on_c, 0, 57, 42
2, 91088, Control_c, 0, 64, 127
2, 91105, Note_on_c, 0, 64, 41
2, 91158, Note_on_c, 0, 81, 59
2, 91159, Note_on_c, 0, 69, 65
2, 91226, Note_on_c, 0, 79, 47
2, 91231, Note_on_c, 0, 69, 0
2, 91296, Note_on_c, 0, 76, 48
2, 91302, Control_c, 0, 64, 0
2, 91322, Note_on_c, 0, 69, 52
2, 91365, Note_on_c, 0, 50, 66
2, 91367, Note_on_c, 0, 49, 0
2, 91367, Note_on_c, 0, 57, 0
2, 91367, Note_on_c, 0, 55, 0
2, 91368, Note_on_c, 0, 64, 0
2, 91413, Note_on_c, 0, 79, 0
2, 91419, Note_on_c, 0, 76, 0
2, 91424, Note_on_c, 0, 81, 0
2, 91425, Note_on_c, 0, 57, 41
2, 91439, Note_on_c, 0, 69, 0
2, 91489, Note_on_c, 0, 62, 41
2, 91549, Note_on_c, 0, 65, 72
2, 91567, Control_c, 0, 64, 127
2, 91624, Note_on_c, 0, 81, 71
2, 91625, Note_on_c, 0, 69, 67
2, 91675, Note_on_c, 0, 77, 48
2, 91700, Note_on_c, 0, 69, 0
2, 91726, Note_on_c, 0, 74, 52
2, 91732, Control_c, 0, 64, 0
2, 91792, Note_on_c, 0, 50, 0
2, 91796, Note_on_c, 0, 69, 48
2, 91834, Note_on_c, 0, 57, 0
2, 91834, Note_on_c, 0, 62, 0
2, 91835, Note_on_c, 0, 65, 0
2, 91837, Note_on_c, 0, 50, 76
2, 91916, Note_on_c, 0, 81, 0
2, 91917, Note_on_c, 0, 74, 0
2, 91920, Note_on_c, 0, 77, 0
2, 91920, Note_on_c, 0, 69, 0
2, 91921, Note_on_c, 0, 56, 44
2, 91974, Note_on_c, 0, 58, 42
2, 92020, Control_c, 0, 64, 127
2, 92020, Note_on_c, 0, 65, 74
2, 92081, Note_on_c, 0, 70, 70
2, 92085, Note_on_c, 0, 82, 69
2, 92148, Note_on_c, 0, 80, 47
2, 92155, Note_on_c, 0, 70, 0
2, 92180, Control_c, 0, 64, 0
2, 92199, Note_on_c, 0, 77, 55
2, 92266, Note_on_c, 0, 70, 52
2, 92267, Note_on_c, 0, 65, 0
2, 92303, Note_on_c, 0, 56, 0
2, 92303, Note_on_c, 0, 80, 0
2, 92304, Note_on_c, 0, 58, 0
2, 92304, Note_on_c, 0, 82, 0
2, 92304, Note_on_c, 0, 70, 0
2, 92304, Note_on_c, 0, 77, 0
2, 92307, Note_on_c, 0, 50, 0
2, 92309, Note_on_c, 0, 51, 55
2, 92376, Note_on_c, 0, 58, 42
2, 92436, Note_on_c, 0, 63, 45
2, 92481, Note_on_c, 0, 67, 52
2, 92553, Note_on_c, 0, 70, 73
2, 92553, Note_on_c, 0, 82, 68
2, 92555, Control_c, 0, 64, 127
2, 92625, Note_on_c, 0, 79, 45
2, 92626, Note_on_c, 0, 70, 0
2, 92674, Note_on_c, 0, 75, 50
2, 92678, Control_c, 0, 64, 0
2, 92718, Note_on_c, 0, 67, 0
2, 92723, Note_on_c, 0, 63, 0
2, 92724, Note_on_c, 0, 70, 51
2, 92760, Note_on_c, 0, 70, 0
2, 92761, Note_on_c, 0, 79, 0
2, 92761, Note_on_c, 0, 82, 0
2, 92762, Note_on_c, 0, 51, 0
2, 92763, Note_on_c, 0, 58, 0
2, 92764, Note_on_c, 0, 52, 50
2, 92773, Note_on_c, 0, 75, 0
2, 92832, Note_on_c, 0, 58, 45
2, 92884, Note_on_c, 0, 60, 49
2, 92945, Note_on_c, 0, 67, 53
2, 92981, Control_c, 0, 64, 127
2, 93013, Note_on_c, 0, 72, 71
2, 93013, Note_on_c, 0, 84, 78
2, 93056, Note_on_c, 0, 82, 54
2, 93083, Note_on_c, 0, 72, 0
2, 93101, Control_c, 0, 64, 0
2, 93106, Note_on_c, 0, 79, 55
2, 93167, Note_on_c, 0, 60, 0
2, 93167, Note_on_c, 0, 82, 0
2, 93168, Note_on_c, 0, 58, 0
2, 93168, Note_on_c, 0, 84, 0
2, 93168, Note_on_c, 0, 79, 0
2, 93169, Note_on_c, 0, 72, 53
2, 93170, Note_on_c, 0, 52, 0
2, 93170, Note_on_c, 0, 67, 0
2, 93225, Note_on_c, 0, 72, 0
2, 93229, Note_on_c, 0, 65, 77
2, 93233, Note_on_c, 0, 53, 63
2, 93291, Note_on_c, 0, 58, 50
2, 93291, Note_on_c, 0, 61, 55
2, 93357, Note_on_c, 0, 73, 86
2, 93357, Note_on_c, 0, 85, 87
2, 93368, Control_c, 0, 64, 127
2, 93415, Note_on_c, 0, 77, 57
2, 93415, Note_on_c, 0, 82, 52
2, 93429, Note_on_c, 0, 58, 0
2, 93467, Note_on_c, 0, 61, 0
2, 93468, Note_on_c, 0, 53, 0
2, 93468, Note_on_c, 0, 65, 0
2, 93468, Note_on_c, 0, 73, 0
2, 93468, Note_on_c, 0, 77, 0
2, 93472, Note_on_c, 0, 58, 74
2, 93472, Note_on_c, 0, 70, 84
2, 93479, Control_c, 0, 64, 0
2, 93509, Note_on_c, 0, 65, 68
2, 93513, Note_on_c, 0, 62, 52
2, 93582, Note_on_c, 0, 85, 0
2, 93583, Note_on_c, 0, 82, 0
2, 93589, Note_on_c, 0, 74, 86
2, 93589, Note_on_c, 0, 86, 87
2, 93646, Note_on_c, 0, 77, 55
2, 93646, Note_on_c, 0, 82, 60
2, 93687, Note_on_c, 0, 86, 0
2, 93689, Note_on_c, 0, 62, 0
2, 93690, Note_on_c, 0, 77, 0
2, 93690, Note_on_c, 0, 65, 0
2, 93690, Note_on_c, 0, 58, 0
2, 93690, Note_on_c, 0, 74, 0
2, 93690, Note_on_c, 0, 70, 0
2, 93690, Note_on_c, 0, 82, 0
2, 93691, Note_on_c, 0, 55, 81
2, 93692, Note_on_c, 0, 63, 82
2, 93744, Note_on_c, 0, 58, 58
2, 93744, Note_on_c, 0, 60, 59
2, 93778, Control_c, 0, 64, 127
2, 93812, Note_on_c, 0, 75, 55
2, 93812, Note_on_c, 0, 87, 55
2, 93852, Note_on_c, 0, 82, 57
2, 93857, Note_on_c, 0, 84, 60
2, 93859, Control_c, 0, 64, 0
2, 93907, Note_on_c, 0, 54, 86
2, 93908, Note_on_c, 0, 64, 87
2, 93912, Note_on_c, 0, 60, 0
2, 93912, Note_on_c, 0, 55, 0
2, 93913, Note_on_c, 0, 63, 0
2, 93913, Note_on_c, 0, 58, 0
2, 93964, Note_on_c, 0, 58, 62
2, 93964, Note_on_c, 0, 61, 62
2, 94011, Note_on_c, 0, 82, 0
2, 94011, Note_on_c, 0, 84, 0
2, 94011, Note_on_c, 0, 75, 0
2, 94011, Note_on_c, 0, 87, 0
2, 94013, Note_on_c, 0, 88, 61
2, 94014, Note_on_c, 0, 76, 61
2, 94061, Note_on_c, 0, 82, 56
2, 94069, Note_on_c, 0, 85, 62
2, 94080, Note_on_c, 0, 88, 0
2, 94084, Note_on_c, 0, 82, 0
2, 94122, Note_on_c, 0, 85, 0
2, 94122, Note_on_c, 0, 76, 0
2, 94124, Note_on_c, 0, 61, 0
2, 94124, Note_on_c, 0, 54, 0
2, 94124, Note_on_c, 0, 65, 95
2, 94125, Note_on_c, 0, 64, 0
2, 94125, Note_on_c, 0, 58, 0
2, 94126, Note_on_c, 0, 53, 90
2, 94127, Note_on_c, 0, 77, 91
2, 94127, Note_on_c, 0, 82, 95
2, 94127, Note_on_c, 0, 86, 92
2, 94127, Note_on_c, 0, 89, 90
2, 94210, Note_on_c, 0, 58, 52
2, 94224, Note_on_c, 0, 77, 0
2, 94224, Note_on_c, 0, 65, 0
2, 94251, Control_c, 0, 64, 127
2, 94285, Note_on_c, 0, 62, 55
2, 94341, Note_on_c, 0, 89, 0
2, 94342, Note_on_c, 0, 86, 0
2, 94342, Note_on_c, 0, 82, 0
2, 94343, Note_on_c, 0, 65, 72
2, 94347, Note_on_c, 0, 77, 73
2, 94432, Note_on_c, 0, 74, 46
2, 94443, Note_on_c, 0, 65, 0
2, 94485, Note_on_c, 0, 53, 0
2, 94485, Note_on_c, 0, 58, 0
2, 94485, Note_on_c, 0, 62, 0
2, 94488, Note_on_c, 0, 70, 51
2, 94510, Note_on_c, 0, 24, 69
2, 94528, Note_on_c, 0, 65, 45
2, 94536, Note_on_c, 0, 24, 0
2, 94588, Note_on_c, 0, 41, 44
2, 94646, Note_on_c, 0, 50, 48
2, 94723, Note_on_c, 0, 53, 48
2, 94776, Note_on_c, 0, 58, 51
2, 94825, Note_on_c, 0, 70, 0
2, 94825, Note_on_c, 0, 65, 0
2, 94825, Note_on_c, 0, 77, 0
2, 94826, Note_on_c, 0, 74, 0
2, 94828, Note_on_c, 0, 67, 65
2, 94833, Note_on_c, 0, 79, 70
2, 94899, Note_on_c, 0, 67, 0
2, 94905, Note_on_c, 0, 74, 44
2, 94956, Note_on_c, 0, 70, 48
2, 95007, Note_on_c, 0, 67, 44
2, 95045, Note_on_c, 0, 53, 0
2, 95076, Note_on_c, 0, 67, 0
2, 95076, Note_on_c, 0, 70, 0
2, 95077, Note_on_c, 0, 53, 45
2, 95078, Note_on_c, 0, 41, 0
2, 95079, Note_on_c, 0, 58, 0
2, 95079, Note_on_c, 0, 50, 0
2, 95080, Note_on_c, 0, 74, 0
2, 95136, Note_on_c, 0, 58, 46
2, 95196, Note_on_c, 0, 62, 41
2, 95256, Note_on_c, 0, 65, 65
2, 95304, Note_on_c, 0, 79, 0
2, 95305, Note_on_c, 0, 70, 64
2, 95305, Note_on_c, 0, 82, 65
2, 95375, Note_on_c, 0, 77, 51
2, 95380, Note_on_c, 0, 70, 0
2, 95405, Note_on_c, 0, 74, 47
2, 95459, Note_on_c, 0, 70, 46
2, 95547, Note_on_c, 0, 82, 0
2, 95551, Note_on_c, 0, 77, 0
2, 95552, Note_on_c, 0, 74, 0
2, 95554, Note_on_c, 0, 73, 45
2, 95554, Note_on_c, 0, 85, 49
2, 95563, Note_on_c, 0, 70, 0
2, 95612, Note_on_c, 0, 82, 47
2, 95613, Note_on_c, 0, 70, 45
2, 95645, Note_on_c, 0, 65, 0
2, 95649, Note_on_c, 0, 73, 0
2, 95686, Note_on_c, 0, 65, 45
2, 95689, Note_on_c, 0, 77, 45
2, 95750, Note_on_c, 0, 62, 0
2, 95751, Note_on_c, 0, 73, 50
2, 95752, Note_on_c, 0, 61, 54
2, 95797, Note_on_c, 0, 73, 0
2, 95802, Note_on_c, 0, 74, 74
2, 95806, Control_c, 0, 64, 0
2, 95830, Note_on_c, 0, 85, 0
2, 95836, Note_on_c, 0, 86, 71
2, 95842, Note_on_c, 0, 70, 0
2, 95842, Note_on_c, 0, 82, 0
2, 95879, Note_on_c, 0, 74, 0
2, 95887, Note_on_c, 0, 70, 45
2, 95887, Note_on_c, 0, 82, 46
2, 95893, Note_on_c, 0, 77, 0
2, 95898, Note_on_c, 0, 65, 0
2, 95935, Note_on_c, 0, 65, 50
2, 95937, Note_on_c, 0, 77, 49
2, 95969, Note_on_c, 0, 61, 0
2, 95973, Note_on_c, 0, 62, 49
2, 95974, Note_on_c, 0, 74, 48
2, 96019, Note_on_c, 0, 53, 0
2, 96055, Note_on_c, 0, 82, 0
2, 96055, Note_on_c, 0, 86, 0
2, 96059, Note_on_c, 0, 62, 0
2, 96059, Note_on_c, 0, 70, 0
2, 96060, Note_on_c, 0, 77, 0
2, 96062, Note_on_c, 0, 58, 0
2, 96062, Note_on_c, 0, 53, 67
2, 96150, Note_on_c, 0, 65, 0
2, 96152, Note_on_c, 0, 59, 42
2, 96222, Note_on_c, 0, 62, 42
2, 96250, Control_c, 0, 64, 127
2, 96281, Note_on_c, 0, 74, 0
2, 96283, Note_on_c, 0, 67, 54
2, 96283, Note_on_c, 0, 79, 59
2, 96339, Note_on_c, 0, 74, 47
2, 96352, Note_on_c, 0, 67, 0
2, 96398, Note_on_c, 0, 71, 43
2, 96466, Note_on_c, 0, 67, 47
2, 96513, Note_on_c, 0, 41, 84
2, 96534, Note_on_c, 0, 62, 0
2, 96538, Note_on_c, 0, 53, 0
2, 96539, Note_on_c, 0, 59, 0
2, 96556, Note_on_c, 0, 50, 48
2, 96622, Note_on_c, 0, 55, 42
2, 96694, Note_on_c, 0, 59, 41
2, 96698, Note_on_c, 0, 71, 0
2, 96741, Note_on_c, 0, 74, 0
2, 96741, Note_on_c, 0, 79, 0
2, 96741, Note_on_c, 0, 67, 0
2, 96746, Note_on_c, 0, 71, 61
2, 96746, Note_on_c, 0, 83, 65
2, 96823, Note_on_c, 0, 71, 0
2, 96827, Note_on_c, 0, 79, 63
2, 96854, Note_on_c, 0, 74, 63
2, 96903, Note_on_c, 0, 71, 60
2, 96965, Note_on_c, 0, 55, 0
2, 96965, Note_on_c, 0, 41, 0
2, 96965, Note_on_c, 0, 50, 0
2, 96966, Note_on_c, 0, 59, 0
2, 96967, Note_on_c, 0, 53, 78
2, 97019, Note_on_c, 0, 59, 46
2, 97095, Note_on_c, 0, 62, 59
2, 97127, Note_on_c, 0, 71, 0
2, 97152, Note_on_c, 0, 67, 67
2, 97177, Note_on_c, 0, 83, 0
2, 97221, Note_on_c, 0, 83, 69
2, 97222, Note_on_c, 0, 71, 72
2, 97224, Note_on_c, 0, 79, 0
2, 97259, Note_on_c, 0, 74, 0
2, 97272, Note_on_c, 0, 79, 46
2, 97277, Note_on_c, 0, 71, 0
2, 97303, Note_on_c, 0, 74, 51
2, 97356, Note_on_c, 0, 71, 50
2, 97411, Note_on_c, 0, 83, 0
2, 97412, Note_on_c, 0, 74, 0
2, 97432, Note_on_c, 0, 73, 74
2, 97433, Note_on_c, 0, 85, 73
2, 97444, Note_on_c, 0, 71, 0
2, 97485, Control_c, 0, 64, 0
2, 97486, Note_on_c, 0, 83, 46
2, 97487, Note_on_c, 0, 73, 0
2, 97492, Note_on_c, 0, 71, 49
2, 97496, Note_on_c, 0, 67, 0
2, 97496, Note_on_c, 0, 79, 0
2, 97546, Note_on_c, 0, 67, 49
2, 97546, Note_on_c, 0, 79, 46
2, 97582, Note_on_c, 0, 62, 0
2, 97584, Note_on_c, 0, 61, 50
2, 97584, Note_on_c, 0, 73, 43
2, 97585, Note_on_c, 0, 71, 0
2, 97585, Note_on_c, 0, 53, 0
2, 97586, Note_on_c, 0, 59, 0
2, 97660, Note_on_c, 0, 73, 0
2, 97661, Note_on_c, 0, 85, 0
2, 97662, Note_on_c, 0, 86, 72
2, 97663, Note_on_c, 0, 74, 72
2, 97672, Note_on_c, 0, 83, 0
2, 97711, Note_on_c, 0, 79, 0
2, 97711, Note_on_c, 0, 71, 68
2, 97712, Note_on_c, 0, 83, 69
2, 97714, Note_on_c, 0, 67, 0
2, 97756, Note_on_c, 0, 67, 67
2, 97756, Note_on_c, 0, 79, 66
2, 97765, Note_on_c, 0, 74, 0
2, 97804, Note_on_c, 0, 62, 44
2, 97808, Note_on_c, 0, 61, 0
2, 97810, Note_on_c, 0, 74, 69
2, 97859, Note_on_c, 0, 53, 75
2, 97874, Note_on_c, 0, 71, 0
2, 97874, Note_on_c, 0, 62, 0
2, 97875, Note_on_c, 0, 74, 0
2, 97875, Note_on_c, 0, 79, 0
2, 97875, Note_on_c, 0, 67, 0
2, 97875, Note_on_c, 0, 86, 0
2, 97875, Note_on_c, 0, 83, 0
2, 97877, Note_on_c, 0, 65, 67
2, 97978, Control_c, 0, 64, 127
2, 97990, Note_on_c, 0, 60, 42
2, 98062, Note_on_c, 0, 63, 41
2, 98067, Note_on_c, 0, 65, 0
2, 98112, Note_on_c, 0, 67, 53
2, 98113, Note_on_c, 0, 79, 59
2, 98184, Note_on_c, 0, 75, 42
2, 98222, Note_on_c, 0, 67, 0
2, 98229, Note_on_c, 0, 72, 43
2, 98267, Note_on_c, 0, 67, 47
2, 98268, Note_on_c, 0, 63, 0
2, 98327, Note_on_c, 0, 41, 47
2, 98376, Note_on_c, 0, 48, 44
2, 98431, Note_on_c, 0, 53, 0
2, 98431, Note_on_c, 0, 60, 0
2, 98432, Note_on_c, 0, 51, 59
2, 98482, Note_on_c, 0, 55, 54
2, 98499, Note_on_c, 0, 72, 0
2, 98539, Note_on_c, 0, 75, 0
2, 98540, Note_on_c, 0, 67, 0
2, 98540, Note_on_c, 0, 79, 0
2, 98541, Note_on_c, 0, 84, 54
2, 98542, Note_on_c, 0, 72, 58
2, 98613, Note_on_c, 0, 79, 43
2, 98658, Note_on_c, 0, 72, 0
2, 98660, Note_on_c, 0, 75, 44
2, 98708, Note_on_c, 0, 72, 44
2, 98754, Note_on_c, 0, 55, 0
2, 98754, Note_on_c, 0, 48, 0
2, 98754, Note_on_c, 0, 41, 0
2, 98756, Note_on_c, 0, 53, 80
2, 98757, Note_on_c, 0, 51, 0
2, 98805, Note_on_c, 0, 60, 45
2, 98862, Note_on_c, 0, 63, 46
2, 98912, Note_on_c, 0, 67, 53
2, 98981, Note_on_c, 0, 72, 0
2, 98981, Note_on_c, 0, 84, 0
2, 98981, Note_on_c, 0, 75, 0
2, 98982, Note_on_c, 0, 79, 0
2, 98982, Note_on_c, 0, 86, 67
2, 98984, Note_on_c, 0, 74, 68
2, 99065, Note_on_c, 0, 84, 88
2, 99084, Note_on_c, 0, 74, 0
2, 99097, Note_on_c, 0, 79, 83
2, 99135, Note_on_c, 0, 74, 83
2, 99154, Note_on_c, 0, 74, 0
2, 99175, Control_c, 0, 64, 0
2, 99203, Note_on_c, 0, 74, 88
2, 99235, Note_on_c, 0, 67, 0
2, 99240, Note_on_c, 0, 72, 48
2, 99284, Note_on_c, 0, 67, 54
2, 99340, Note_on_c, 0, 62, 48
2, 99341, Note_on_c, 0, 60, 0
2, 99342, Note_on_c, 0, 63, 0
2, 99342, Note_on_c, 0, 53, 0
2, 99387, Note_on_c, 0, 86, 0
2, 99387, Note_on_c, 0, 79, 0
2, 99389, Note_on_c, 0, 62, 0
2, 99390, Note_on_c, 0, 67, 0
2, 99390, Note_on_c, 0, 72, 0
2, 99390, Note_on_c, 0, 74, 0
2, 99390, Note_on_c, 0, 84, 0
2, 99392, Note_on_c, 0, 75, 76
2, 99392, Note_on_c, 0, 87, 80
2, 99442, Note_on_c, 0, 84, 50
2, 99478, Note_on_c, 0, 79, 50
2, 99488, Control_c, 0, 64, 127
2, 99500, Note_on_c, 0, 75, 0
2, 99552, Note_on_c, 0, 75, 50
2, 99577, Note_on_c, 0, 75, 0
2, 99624, Note_on_c, 0, 63, 52
2, 99624, Note_on_c, 0, 75, 53
2, 99634, Control_c, 0, 64, 0
2, 99689, Note_on_c, 0, 73, 50
2, 99720, Note_on_c, 0, 63, 0
2, 99732, Note_on_c, 0, 67, 51
2, 99770, Note_on_c, 0, 75, 0
2, 99770, Note_on_c, 0, 87, 0
2, 99772, Note_on_c, 0, 63, 53
2, 99820, Note_on_c, 0, 84, 0
2, 99820, Note_on_c, 0, 73, 0
2, 99820, Note_on_c, 0, 67, 0
2, 99821, Note_on_c, 0, 79, 0
2, 99822, Note_on_c, 0, 87, 74
2, 99823, Note_on_c, 0, 63, 0
2, 99827, Note_on_c, 0, 75, 49
2, 99859, Note_on_c, 0, 85, 49
2, 99909, Note_on_c, 0, 75, 0
2, 99912, Control_c, 0, 64, 127
2, 99932, Note_on_c, 0, 79, 54
2, 99967, Note_on_c, 0, 75, 54
2, 99996, Note_on_c, 0, 75, 0
2, 100046, Note_on_c, 0, 75, 79
2, 100047, Note_on_c, 0, 63, 51
2, 100096, Note_on_c, 0, 73, 47
2, 100104, Control_c, 0, 64, 0
2, 100146, Note_on_c, 0, 63, 0
2, 100165, Note_on_c, 0, 67, 48
2, 100196, Note_on_c, 0, 63, 51
2, 100263, Note_on_c, 0, 85, 0
2, 100271, Note_on_c, 0, 87, 0
2, 100271, Note_on_c, 0, 79, 0
2, 100275, Note_on_c, 0, 73, 0
2, 100275, Note_on_c, 0, 75, 0
2, 100275, Note_on_c, 0, 67, 0
2, 100275, Note_on_c, 0, 63, 0
2, 100277, Note_on_c, 0, 76, 53
2, 100277, Note_on_c, 0, 88, 49
2, 100321, Note_on_c, 0, 85, 47
2, 100359, Note_on_c, 0, 76, 0
2, 100382, Note_on_c, 0, 79, 62
2, 100417, Note_on_c, 0, 76, 62
2, 100436, Note_on_c, 0, 76, 0
2, 100450, Control_c, 0, 64, 127
2, 100491, Note_on_c, 0, 64, 45
2, 100497, Note_on_c, 0, 76, 47
2, 100545, Note_on_c, 0, 73, 47
2, 100558, Control_c, 0, 64, 0
2, 100616, Note_on_c, 0, 64, 0
2, 100616, Note_on_c, 0, 67, 47
2, 100670, Note_on_c, 0, 64, 49
2, 100733, Note_on_c, 0, 64, 0
2, 100733, Note_on_c, 0, 88, 0
2, 100733, Note_on_c, 0, 73, 0
2, 100733, Note_on_c, 0, 85, 0
2, 100733, Note_on_c, 0, 67, 0
2, 100734, Note_on_c, 0, 79, 0
2, 100734, Note_on_c, 0, 76, 0
2, 100734, Note_on_c, 0, 87, 73
2, 100735, Note_on_c, 0, 75, 70
2, 100783, Note_on_c, 0, 85, 43
2, 100821, Note_on_c, 0, 75, 0
2, 100832, Note_on_c, 0, 79, 41
2, 100878, Note_on_c, 0, 75, 45
2, 100899, Note_on_c, 0, 75, 0
2, 100908, Control_c, 0, 64, 127
2, 100941, Note_on_c, 0, 63, 74
2, 100941, Note_on_c, 0, 75, 74
2, 101010, Note_on_c, 0, 73, 42
2, 101028, Control_c, 0, 64, 0
2, 101046, Note_on_c, 0, 63, 0
2, 101048, Note_on_c, 0, 67, 48
2, 101099, Note_on_c, 0, 63, 46
2, 101170, Note_on_c, 0, 63, 0
2, 101170, Note_on_c, 0, 73, 0
2, 101170, Note_on_c, 0, 85, 0
2, 101170, Note_on_c, 0, 87, 0
2, 101170, Note_on_c, 0, 75, 0
2, 101171, Note_on_c, 0, 79, 0
2, 101171, Note_on_c, 0, 67, 0
2, 101172, Note_on_c, 0, 88, 72
2, 101173, Note_on_c, 0, 76, 68
2, 101243, Note_on_c, 0, 85, 44
2, 101257, Note_on_c, 0, 76, 0
2, 101280, Note_on_c, 0, 79, 56
2, 101317, Note_on_c, 0, 76, 57
2, 101337, Note_on_c, 0, 76, 0
2, 101352, Control_c, 0, 64, 127
2, 101389, Note_on_c, 0, 64, 46
2, 101389, Note_on_c, 0, 76, 86
2, 101434, Note_on_c, 0, 73, 47
2, 101467, Control_c, 0, 64, 0
2, 101491, Note_on_c, 0, 64, 0
2, 101501, Note_on_c, 0, 67, 50
2, 101544, Note_on_c, 0, 64, 51
2, 101608, Note_on_c, 0, 88, 0
2, 101609, Note_on_c, 0, 85, 0
2, 101609, Note_on_c, 0, 79, 0
2, 101609, Note_on_c, 0, 76, 0
2, 101609, Note_on_c, 0, 67, 0
2, 101614, Note_on_c, 0, 73, 0
2, 101614, Note_on_c, 0, 64, 0
2, 101615, Note_on_c, 0, 87, 76
2, 101616, Note_on_c, 0, 75, 77
2, 101665, Note_on_c, 0, 85, 53
2, 101709, Note_on_c, 0, 79, 54
2, 101710, Note_on_c, 0, 75, 0
2, 101765, Note_on_c, 0, 75, 50
2, 101785, Note_on_c, 0, 75, 0
2, 101791, Control_c, 0, 64, 127
2, 101831, Note_on_c, 0, 63, 84
2, 101834, Note_on_c, 0, 75, 82
2, 101894, Note_on_c, 0, 73, 61
2, 101912, Control_c, 0, 64, 0
2, 101929, Note_on_c, 0, 63, 0
2, 101944, Note_on_c, 0, 67, 58
2, 101986, Note_on_c, 0, 63, 52
2, 102048, Note_on_c, 0, 63, 0
2, 102048, Note_on_c, 0, 85, 0
2, 102048, Note_on_c, 0, 73, 0
2, 102048, Note_on_c, 0, 87, 0
2, 102048, Note_on_c, 0, 75, 0
2, 102048, Note_on_c, 0, 67, 0
2, 102049, Note_on_c, 0, 88, 80
2, 102050, Note_on_c, 0, 76, 77
2, 102055, Note_on_c, 0, 79, 0
2, 102106, Note_on_c, 0, 85, 57
2, 102138, Note_on_c, 0, 76, 0
2, 102151, Note_on_c, 0, 79, 59
2, 102191, Note_on_c, 0, 76, 53
2, 102215, Note_on_c, 0, 76, 0
2, 102234, Control_c, 0, 64, 127
2, 102268, Note_on_c, 0, 64, 89
2, 102269, Note_on_c, 0, 76, 84
2, 102334, Note_on_c, 0, 73, 56
2, 102347, Control_c, 0, 64, 0
2, 102386, Note_on_c, 0, 67, 56
2, 102391, Note_on_c, 0, 64, 0
2, 102443, Note_on_c, 0, 64, 57
2, 102493, Note_on_c, 0, 73, 0
2, 102494, Note_on_c, 0, 76, 0
2, 102494, Note_on_c, 0, 79, 0
2, 102496, Note_on_c, 0, 88, 0
2, 102497, Note_on_c, 0, 85, 0
2, 102497, Note_on_c, 0, 64, 0
2, 102497, Note_on_c, 0, 67, 0
2, 102499, Note_on_c, 0, 75, 80
2, 102499, Note_on_c, 0, 87, 84
2, 102563, Note_on_c, 0, 85, 56
2, 102593, Note_on_c, 0, 75, 0
2, 102601, Note_on_c, 0, 79, 56
2, 102648, Note_on_c, 0, 75, 59
2, 102670, Note_on_c, 0, 75, 0
2, 102700, Control_c, 0, 64, 127
2, 102722, Note_on_c, 0, 75, 88
2, 102731, Note_on_c, 0, 63, 87
2, 102758, Note_on_c, 0, 73, 63
2, 102806, Note_on_c, 0, 63, 0
2, 102810, Note_on_c, 0, 67, 62
2, 102829, Control_c, 0, 64, 0
2, 102854, Note_on_c, 0, 63, 61
2, 102866, Note_on_c, 0, 73, 0
2, 102890, Note_on_c, 0, 85, 0
2, 102910, Note_on_c, 0, 87, 0
2, 102910, Note_on_c, 0, 75, 0
2, 102911, Note_on_c, 0, 79, 0
2, 102911, Note_on_c, 0, 63, 0
2, 102912, Note_on_c, 0, 88, 94
2, 102912, Note_on_c, 0, 64, 101
2, 102912, Note_on_c, 0, 73, 97
2, 102912, Note_on_c, 0, 76, 95
2, 102926, Note_on_c, 0, 67, 0
2, 102948, Note_on_c, 0, 85, 59
2, 102979, Note_on_c, 0, 76, 0
2, 102989, Note_on_c, 0, 79, 63
2, 103038, Note_on_c, 0, 76, 57
2, 103144, Note_on_c, 0, 79, 0
2, 103146, Note_on_c, 0, 88, 0
2, 103147, Note_on_c, 0, 85, 0
2, 103147, Note_on_c, 0, 73, 0
2, 103147, Note_on_c, 0, 64, 0
2, 103148, Note_on_c, 0, 76, 0
2, 103152, Note_on_c, 0, 65, 94
2, 103156, Note_on_c, 0, 89, 97
2, 103157, Note_on_c, 0, 70, 92
2, 103157, Note_on_c, 0, 74, 96
2, 103157, Note_on_c, 0, 86, 91
2, 103158, Note_on_c, 0, 82, 95
2, 103183, Control_c, 0, 64, 127
2, 103237, Note_on_c, 0, 77, 72
2, 103267, Note_on_c, 0, 77, 0
2, 103267, Note_on_c, 0, 70, 0
2, 103267, Note_on_c, 0, 89, 0
2, 103267, Note_on_c, 0, 82, 0
2, 103268, Note_on_c, 0, 86, 0
2, 103268, Note_on_c, 0, 74, 0
2, 103321, Note_on_c, 0, 77, 74
2, 103322, Note_on_c, 0, 70, 77
2, 103322, Note_on_c, 0, 74, 77
2, 103331, Note_on_c, 0, 65, 0
2, 103372, Note_on_c, 0, 65, 88
2, 103445, Note_on_c, 0, 62, 75
2, 103449, Note_on_c, 0, 58, 80
2, 103514, Note_on_c, 0, 53, 91
2, 103543, Note_on_c, 0, 65, 0
2, 103543, Note_on_c, 0, 77, 0
2, 103543, Note_on_c, 0, 70, 0
2, 103547, Note_on_c, 0, 62, 0
2, 103547, Note_on_c, 0, 58, 0
2, 103548, Note_on_c, 0, 74, 0
2, 103596, Note_on_c, 0, 58, 88
2, 103597, Note_on_c, 0, 62, 86
2, 103597, Note_on_c, 0, 65, 80
2, 103606, Note_on_c, 0, 53, 0
2, 103658, Note_on_c, 0, 53, 50
2, 103707, Note_on_c, 0, 46, 68
2, 103707, Note_on_c, 0, 50, 67
2, 103727, Control_c, 0, 64, 0
2, 103789, Note_on_c, 0, 89, 64
2, 103793, Note_on_c, 0, 82, 70
2, 103793, Note_on_c, 0, 86, 70
2, 103794, Note_on_c, 0, 41, 87
2, 103812, Note_on_c, 0, 82, 0
2, 103816, Note_on_c, 0, 86, 0
2, 103823, Note_on_c, 0, 89, 0
2, 103872, Note_on_c, 0, 82, 70
2, 103872, Note_on_c, 0, 86, 73
2, 103872, Note_on_c, 0, 88, 72
2, 103893, Note_on_c, 0, 86, 0
2, 103893, Note_on_c, 0, 82, 0
2, 103900, Note_on_c, 0, 88, 0
2, 103950, Note_on_c, 0, 82, 76
2, 103951, Note_on_c, 0, 86, 77
2, 103958, Note_on_c, 0, 89, 76
2, 103978, Note_on_c, 0, 86, 0
2, 103978, Note_on_c, 0, 82, 0
2, 103986, Note_on_c, 0, 89, 0
2, 104027, Note_on_c, 0, 41, 0
2, 104028, Note_on_c, 0, 58, 0
2, 104032, Note_on_c, 0, 62, 0
2, 104032, Note_on_c, 0, 46, 0
2, 104032, Note_on_c, 0, 50, 0
2, 104032, Note_on_c, 0, 86, 83
2, 104033, Note_on_c, 0, 65, 0
2, 104033, Note_on_c, 0, 53, 0
2, 104034, Note_on_c, 0, 83, 86
2, 104034, Note_on_c, 0, 91, 89
2, 104101, Note_on_c, 0, 79, 53
2, 104113, Control_c, 0, 64, 127
2, 104142, Note_on_c, 0, 79, 0
2, 104191, Note_on_c, 0, 91, 0
2, 104192, Note_on_c, 0, 83, 0
2, 104192, Note_on_c, 0, 86, 0
2, 104194, Note_on_c, 0, 71, 63
2, 104195, Note_on_c, 0, 79, 69
2, 104200, Note_on_c, 0, 74, 67
2, 104255, Note_on_c, 0, 67, 73
2, 104312, Note_on_c, 0, 62, 50
2, 104317, Note_on_c, 0, 59, 50
2, 104390, Note_on_c, 0, 53, 68
2, 104413, Note_on_c, 0, 62, 0
2, 104414, Note_on_c, 0, 59, 0
2, 104420, Note_on_c, 0, 67, 0
2, 104460, Note_on_c, 0, 79, 0
2, 104462, Note_on_c, 0, 71, 0
2, 104463, Note_on_c, 0, 74, 0
2, 104464, Note_on_c, 0, 62, 45
2, 104465, Note_on_c, 0, 67, 67
2, 104466, Note_on_c, 0, 59, 43
2, 104517, Control_c, 0, 64, 0
2, 104535, Note_on_c, 0, 55, 66
2, 104539, Note_on_c, 0, 53, 0
2, 104594, Note_on_c, 0, 47, 67
2, 104599, Note_on_c, 0, 50, 79
2, 104654, Note_on_c, 0, 41, 82
2, 104655, Note_on_c, 0, 91, 65
2, 104656, Note_on_c, 0, 83, 61
2, 104656, Note_on_c, 0, 86, 61
2, 104675, Note_on_c, 0, 83, 0
2, 104676, Note_on_c, 0, 86, 0
2, 104678, Note_on_c, 0, 91, 0
2, 104718, Note_on_c, 0, 83, 72
2, 104718, Note_on_c, 0, 86, 75
2, 104718, Note_on_c, 0, 90, 75
2, 104737, Note_on_c, 0, 86, 0
2, 104737, Note_on_c, 0, 83, 0
2, 104744, Note_on_c, 0, 90, 0
2, 104784, Note_on_c, 0, 83, 78
2, 104784, Note_on_c, 0, 86, 79
2, 104784, Note_on_c, 0, 91, 75
2, 104810, Note_on_c, 0, 91, 0
2, 104810, Note_on_c, 0, 86, 0
2, 104810, Note_on_c, 0, 83, 0
2, 104857, Note_on_c, 0, 55, 0
2, 104858, Note_on_c, 0, 62, 0
2, 104859, Note_on_c, 0, 67, 0
2, 104860, Note_on_c, 0, 84, 81
2, 104861, Note_on_c, 0, 47, 0
2, 104861, Note_on_c, 0, 50, 0
2, 104862, Note_on_c, 0, 59, 0
2, 104863, Note_on_c, 0, 87, 83
2, 104863, Note_on_c, 0, 92, 81
2, 104925, Control_c, 0, 64, 127
2, 104933, Note_on_c, 0, 80, 45
2, 104986, Note_on_c, 0, 80, 0
2, 105040, Note_on_c, 0, 87, 0
2, 105040, Note_on_c, 0, 92, 0
2, 105040, Note_on_c, 0, 84, 0
2, 105042, Note_on_c, 0, 80, 66
2, 105043, Note_on_c, 0, 72, 66
2, 105117, Note_on_c, 0, 68, 75
2, 105177, Note_on_c, 0, 60, 65
2, 105178, Note_on_c, 0, 63, 66
2, 105240, Note_on_c, 0, 53, 72
2, 105244, Note_on_c, 0, 60, 0
2, 105245, Note_on_c, 0, 68, 0
2, 105245, Note_on_c, 0, 63, 0
2, 105264, Note_on_c, 0, 41, 0
2, 105299, Note_on_c, 0, 80, 0
2, 105299, Note_on_c, 0, 72, 0
2, 105300, Note_on_c, 0, 60, 80
2, 105301, Note_on_c, 0, 68, 69
2, 105302, Note_on_c, 0, 63, 80
2, 105319, Note_on_c, 0, 53, 0
2, 105334, Control_c, 0, 64, 0
2, 105372, Note_on_c, 0, 56, 46
2, 105373, Note_on_c, 0, 53, 48
2, 105438, Note_on_c, 0, 53, 0
2, 105440, Note_on_c, 0, 48, 47
2, 105440, Note_on_c, 0, 51, 48
2, 105518, Note_on_c, 0, 92, 78
2, 105519, Note_on_c, 0, 84, 76
2, 105519, Note_on_c, 0, 87, 78
2, 105525, Note_on_c, 0, 41, 65
2, 105537, Note_on_c, 0, 84, 0
2, 105541, Note_on_c, 0, 87, 0
2, 105549, Note_on_c, 0, 92, 0
2, 105603, Note_on_c, 0, 84, 72
2, 105603, Note_on_c, 0, 91, 76
2, 105607, Note_on_c, 0, 87, 71
2, 105629, Note_on_c, 0, 87, 0
2, 105629, Note_on_c, 0, 84, 0
2, 105633, Note_on_c, 0, 91, 0
2, 105676, Note_on_c, 0, 92, 79
2, 105684, Note_on_c, 0, 84, 82
2, 105684, Note_on_c, 0, 87, 81
2, 105714, Note_on_c, 0, 87, 0
2, 105714, Note_on_c, 0, 84, 0
2, 105714, Note_on_c, 0, 92, 0
2, 105743, Note_on_c, 0, 88, 81
2, 105747, Note_on_c, 0, 60, 0
2, 105747, Note_on_c, 0, 48, 0
2, 105748, Note_on_c, 0, 63, 0
2, 105748, Note_on_c, 0, 68, 0
2, 105750, Note_on_c, 0, 85, 85
2, 105750, Note_on_c, 0, 93, 82
2, 105751, Note_on_c, 0, 56, 0
2, 105751, Note_on_c, 0, 51, 0
2, 105819, Note_on_c, 0, 81, 45
2, 105831, Control_c, 0, 64, 127
2, 105857, Note_on_c, 0, 81, 0
2, 105906, Note_on_c, 0, 93, 0
2, 105907, Note_on_c, 0, 85, 0
2, 105907, Note_on_c, 0, 88, 0
2, 105913, Note_on_c, 0, 73, 62
2, 105913, Note_on_c, 0, 81, 63
2, 105914, Note_on_c, 0, 76, 63
2, 105981, Note_on_c, 0, 69, 63
2, 106046, Note_on_c, 0, 61, 60
2, 106046, Note_on_c, 0, 64, 65
2, 106096, Note_on_c, 0, 53, 67
2, 106112, Note_on_c, 0, 61, 0
2, 106113, Note_on_c, 0, 64, 0
2, 106113, Note_on_c, 0, 69, 0
2, 106130, Note_on_c, 0, 41, 0
2, 106159, Note_on_c, 0, 76, 0
2, 106159, Note_on_c, 0, 73, 0
2, 106159, Note_on_c, 0, 81, 0
2, 106161, Note_on_c, 0, 61, 65
2, 106161, Note_on_c, 0, 64, 72
2, 106162, Note_on_c, 0, 69, 72
2, 106227, Note_on_c, 0, 57, 65
2, 106250, Control_c, 0, 64, 0
2, 106275, Note_on_c, 0, 53, 0
2, 106281, Note_on_c, 0, 49, 66
2, 106282, Note_on_c, 0, 52, 84
2, 106357, Note_on_c, 0, 41, 84
2, 106357, Note_on_c, 0, 88, 78
2, 106357, Note_on_c, 0, 93, 74
2, 106358, Note_on_c, 0, 85, 76
2, 106375, Note_on_c, 0, 88, 0
2, 106379, Note_on_c, 0, 85, 0
2, 106386, Note_on_c, 0, 93, 0
2, 106418, Note_on_c, 0, 92, 77
2, 106419, Note_on_c, 0, 88, 71
2, 106420, Note_on_c, 0, 85, 76
2, 106438, Note_on_c, 0, 88, 0
2, 106441, Note_on_c, 0, 85, 0
2, 106443, Note_on_c, 0, 92, 0
2, 106484, Note_on_c, 0, 93, 75
2, 106488, Note_on_c, 0, 85, 75
2, 106488, Note_on_c, 0, 88, 72
2, 106511, Note_on_c, 0, 93, 0
2, 106514, Note_on_c, 0, 88, 0
2, 106515, Note_on_c, 0, 85, 0
2, 106550, Note_on_c, 0, 61, 0
2, 106550, Note_on_c, 0, 49, 0
2, 106550, Note_on_c, 0, 57, 0
2, 106551, Note_on_c, 0, 69, 0
2, 106551, Note_on_c, 0, 64, 0
2, 106551, Note_on_c, 0, 94, 42
2, 106553, Note_on_c, 0, 86, 46
2, 106553, Note_on_c, 0, 89, 48
2, 106554, Note_on_c, 0, 52, 0
2, 106588, Control_c, 0, 64, 127
2, 106623, Note_on_c, 0, 82, 47
2, 106682, Note_on_c, 0, 77, 65
2, 106683, Note_on_c, 0, 74, 66
2, 106711, Note_on_c, 0, 77, 0
2, 106719, Note_on_c, 0, 82, 0
2, 106721, Control_c, 0, 64, 0
2, 106731, Note_on_c, 0, 74, 0
2, 106768, Note_on_c, 0, 89, 0
2, 106768, Note_on_c, 0, 94, 0
2, 106769, Note_on_c, 0, 86, 0
2, 106775, Note_on_c, 0, 77, 61
2, 106775, Note_on_c, 0, 82, 68
2, 106776, Note_on_c, 0, 74, 64
2, 106799, Note_on_c, 0, 41, 0
2, 106852, Note_on_c, 0, 70, 64
2, 106907, Note_on_c, 0, 62, 53
2, 106907, Note_on_c, 0, 65, 69
2, 106971, Note_on_c, 0, 62, 0
2, 106971, Note_on_c, 0, 77, 0
2, 106971, Note_on_c, 0, 82, 0
2, 106975, Note_on_c, 0, 70, 0
2, 106976, Note_on_c, 0, 65, 0
2, 106976, Note_on_c, 0, 74, 0
2, 106976, Note_on_c, 0, 87, 53
2, 106976, Note_on_c, 0, 95, 47
2, 106977, Note_on_c, 0, 90, 50
2, 107029, Control_c, 0, 64, 127
2, 107054, Note_on_c, 0, 83, 53
2, 107107, Note_on_c, 0, 75, 64
2, 107109, Note_on_c, 0, 78, 66
2, 107133, Note_on_c, 0, 78, 0
2, 107133, Note_on_c, 0, 75, 0
2, 107136, Note_on_c, 0, 83, 0
2, 107151, Control_c, 0, 64, 0
2, 107184, Note_on_c, 0, 90, 0
2, 107184, Note_on_c, 0, 87, 0
2, 107185, Note_on_c, 0, 83, 77
2, 107186, Note_on_c, 0, 75, 81
2, 107186, Note_on_c, 0, 78, 77
2, 107191, Note_on_c, 0, 95, 0
2, 107235, Note_on_c, 0, 71, 49
2, 107306, Note_on_c, 0, 71, 0
2, 107310, Note_on_c, 0, 78, 0
2, 107310, Note_on_c, 0, 83, 0
2, 107314, Note_on_c, 0, 63, 65
2, 107314, Note_on_c, 0, 66, 71
2, 107316, Note_on_c, 0, 75, 0
2, 107341, Note_on_c, 0, 66, 0
2, 107341, Note_on_c, 0, 63, 0
2, 107383, Note_on_c, 0, 88, 56
2, 107383, Note_on_c, 0, 96, 52
2, 107388, Note_on_c, 0, 91, 52
2, 107422, Control_c, 0, 64, 127
2, 107428, Note_on_c, 0, 84, 51
2, 107477, Note_on_c, 0, 79, 68
2, 107484, Note_on_c, 0, 76, 69
2, 107531, Note_on_c, 0, 91, 0
2, 107531, Note_on_c, 0, 88, 0
2, 107531, Note_on_c, 0, 96, 0
2, 107532, Note_on_c, 0, 84, 0
2, 107532, Note_on_c, 0, 79, 0
2, 107532, Note_on_c, 0, 76, 0
2, 107566, Control_c, 0, 64, 0
2, 107591, Note_on_c, 0, 76, 83
2, 107591, Note_on_c, 0, 79, 84
2, 107591, Note_on_c, 0, 84, 84
2, 107650, Note_on_c, 0, 72, 56
2, 107688, Note_on_c, 0, 64, 70
2, 107698, Note_on_c, 0, 67, 56
2, 107726, Note_on_c, 0, 67, 0
2, 107727, Note_on_c, 0, 76, 0
2, 107727, Note_on_c, 0, 79, 0
2, 107729, Note_on_c, 0, 64, 0
2, 107730, Note_on_c, 0, 84, 0
2, 107730, Note_on_c, 0, 72, 0
2, 107790, Note_on_c, 0, 89, 92
2, 107791, Note_on_c, 0, 92, 88
2, 107792, Note_on_c, 0, 97, 94
2, 107807, Control_c, 0, 64, 127
2, 107861, Note_on_c, 0, 85, 52
2, 107913, Note_on_c, 0, 77, 74
2, 107913, Note_on_c, 0, 80, 75
2, 107935, Note_on_c, 0, 80, 0
2, 107935, Note_on_c, 0, 85, 0
2, 107935, Note_on_c, 0, 77, 0
2, 107957, Control_c, 0, 64, 0
2, 107981, Note_on_c, 0, 77, 91
2, 107983, Note_on_c, 0, 92, 0
2, 107984, Note_on_c, 0, 97, 0
2, 107988, Note_on_c, 0, 89, 0
2, 107989, Note_on_c, 0, 80, 85
2, 107990, Note_on_c, 0, 85, 88
2, 108057, Note_on_c, 0, 73, 61
2, 108116, Note_on_c, 0, 65, 71
2, 108116, Note_on_c, 0, 68, 73
2, 108156, Note_on_c, 0, 80, 0
2, 108157, Note_on_c, 0, 85, 0
2, 108157, Note_on_c, 0, 73, 0
2, 108157, Note_on_c, 0, 77, 0
2, 108157, Note_on_c, 0, 68, 0
2, 108161, Note_on_c, 0, 65, 0
2, 108187, Note_on_c, 0, 93, 72
2, 108187, Note_on_c, 0, 98, 73
2, 108188, Note_on_c, 0, 90, 73
2, 108265, Note_on_c, 0, 86, 63
2, 108317, Note_on_c, 0, 78, 57
2, 108317, Note_on_c, 0, 81, 59
2, 108382, Note_on_c, 0, 93, 0
2, 108383, Note_on_c, 0, 90, 0
2, 108387, Note_on_c, 0, 91, 78
2, 108387, Note_on_c, 0, 94, 78
2, 108388, Note_on_c, 0, 99, 80
2, 108389, Note_on_c, 0, 98, 0
2, 108445, Note_on_c, 0, 86, 0
2, 108446, Note_on_c, 0, 87, 62
2, 108507, Note_on_c, 0, 78, 0
2, 108507, Note_on_c, 0, 81, 0
2, 108508, Note_on_c, 0, 82, 62
2, 108509, Note_on_c, 0, 79, 59
2, 108549, Control_c, 0, 64, 127
2, 108579, Note_on_c, 0, 91, 0
2, 108580, Note_on_c, 0, 99, 0
2, 108584, Note_on_c, 0, 94, 0
2, 108585, Note_on_c, 0, 92, 84
2, 108585, Note_on_c, 0, 95, 88
2, 108585, Note_on_c, 0, 100, 88
2, 108646, Note_on_c, 0, 87, 0
2, 108652, Note_on_c, 0, 88, 64
2, 108714, Note_on_c, 0, 80, 60
2, 108714, Note_on_c, 0, 83, 61
2, 108719, Note_on_c, 0, 82, 0
2, 108719, Note_on_c, 0, 79, 0
2, 108772, Note_on_c, 0, 100, 0
2, 108772, Note_on_c, 0, 92, 0
2, 108772, Note_on_c, 0, 95, 0
2, 108777, Note_on_c, 0, 96, 85
2, 108782, Note_on_c, 0, 93, 64
2, 108782, Note_on_c, 0, 101, 63
2, 108845, Note_on_c, 0, 88, 0
2, 108850, Note_on_c, 0, 89, 67
2, 108897, Note_on_c, 0, 83, 0
2, 108897, Note_on_c, 0, 80, 0
2, 108904, Note_on_c, 0, 81, 66
2, 108904, Note_on_c, 0, 84, 68
2, 108970, Note_on_c, 0, 96, 0
2, 108971, Note_on_c, 0, 93, 0
2, 108971, Note_on_c, 0, 101, 0
2, 108972, Note_on_c, 0, 94, 98
2, 108973, Note_on_c, 0, 102, 92
2, 108974, Note_on_c, 0, 97, 94
2, 109054, Note_on_c, 0, 89, 0
2, 109056, Note_on_c, 0, 90, 63
2, 109104, Note_on_c, 0, 81, 0
2, 109104, Note_on_c, 0, 84, 0
2, 109105, Note_on_c, 0, 82, 69
2, 109106, Note_on_c, 0, 85, 70
2, 109176, Note_on_c, 0, 94, 0
2, 109177, Note_on_c, 0, 102, 0
2, 109177, Note_on_c, 0, 97, 0
2, 109182, Note_on_c, 0, 95, 94
2, 109183, Note_on_c, 0, 98, 100
2, 109184, Note_on_c, 0, 103, 95
2, 109236, Note_on_c, 0, 90, 0
2, 109242, Note_on_c, 0, 91, 76
2, 109277, Note_on_c, 0, 82, 0
2, 109282, Note_on_c, 0, 85, 0
2, 109284, Note_on_c, 0, 83, 83
2, 109284, Note_on_c, 0, 86, 81
2, 109351, Note_on_c, 0, 103, 0
2, 109355, Note_on_c, 0, 98, 0
2, 109355, Note_on_c, 0, 95, 0
2, 109356, Note_on_c, 0, 96, 96
2, 109357, Note_on_c, 0, 99, 101
2, 109416, Note_on_c, 0, 91, 0
2, 109421, Note_on_c, 0, 92, 86
2, 109471, Note_on_c, 0, 96, 0
2, 109472, Note_on_c, 0, 99, 0
2, 109472, Note_on_c, 0, 86, 0
2, 109474, Note_on_c, 0, 84, 85
2, 109476, Note_on_c, 0, 83, 0
2, 109477, Note_on_c, 0, 87, 89
2, 109497, Control_c, 0, 64, 0
2, 109525, Note_on_c, 0, 96, 103
2, 109526, Note_on_c, 0, 99, 109
2, 109566, Note_on_c, 0, 93, 94
2, 109577, Note_on_c, 0, 87, 0
2, 109578, Note_on_c, 0, 84, 0
2, 109594, Note_on_c, 0, 92, 0
2, 109626, Note_on_c, 0, 96, 0
2, 109627, Note_on_c, 0, 99, 0
2, 109632, Note_on_c, 0, 87, 94
2, 109633, Note_on_c, 0, 84, 93
2, 109703, Note_on_c, 0, 87, 0
2, 109704, Note_on_c, 0, 84, 0
2, 109709, Note_on_c, 0, 93, 0
2, 109709, Note_on_c, 0, 78, 105
2, 109713, Note_on_c, 0, 82, 108
2, 109715, Note_on_c, 0, 94, 107
2, 109716, Note_on_c, 0, 102, 105
2, 109717, Note_on_c, 0, 85, 108
2, 109725, Note_on_c, 0, 97, 110
2, 109863, Control_c, 0, 64, 127
2, 110076, Note_on_c, 0, 94, 0
2, 110077, Note_on_c, 0, 97, 0
2, 110088, Note_on_c, 0, 85, 0
2, 110088, Note_on_c, 0, 82, 0
2, 110110, Note_on_c, 0, 78, 0
2, 110111, Note_on_c, 0, 102, 0
2, 110284, Note_on_c, 0, 42, 77
2, 110284, Note_on_c, 0, 49, 77
2, 110285, Note_on_c, 0, 54, 80
2, 110285, Note_on_c, 0, 58, 84
2, 110751, Note_on_c, 0, 42, 0
2, 110782, Note_on_c, 0, 49, 0
2, 110836, Note_on_c, 0, 54, 0
2, 110862, Note_on_c, 0, 42, 65
2, 110869, Note_on_c, 0, 58, 0
2, 110924, Note_on_c, 0, 49, 59
2, 110994, Note_on_c, 0, 54, 65
2, 111041, Note_on_c, 0, 58, 81
2, 111436, Note_on_c, 0, 42, 0
2, 111457, Note_on_c, 0, 49, 0
2, 111517, Note_on_c, 0, 42, 60
2, 111542, Note_on_c, 0, 54, 0
2, 111590, Control_c, 0, 64, 0
2, 111614, Note_on_c, 0, 49, 61
2, 111629, Note_on_c, 0, 58, 0
2, 111701, Note_on_c, 0, 54, 64
2, 111789, Note_on_c, 0, 58, 65
2, 111972, Control_c, 0, 64, 127
2, 112261, Note_on_c, 0, 42, 0
2, 112490, Note_on_c, 0, 42, 64
2, 112555, Note_on_c, 0, 49, 0
2, 112742, Note_on_c, 0, 49, 64
2, 112752, Note_on_c, 0, 54, 0
2, 112780, Control_c, 0, 64, 0
2, 112899, Note_on_c, 0, 58, 0
2, 112909, Note_on_c, 0, 54, 59
2, 113062, Note_on_c, 0, 42, 0
2, 113085, Note_on_c, 0, 58, 42
2, 113160, Control_c, 0, 64, 127
2, 113200, Note_on_c, 0, 49, 0
2, 113225, Note_on_c, 0, 42, 64
2, 113325, Note_on_c, 0, 54, 0
2, 113360, Note_on_c, 0, 49, 59
2, 113421, Note_on_c, 0, 58, 0
2, 113442, Control_c, 0, 64, 0
2, 113466, Note_on_c, 0, 54, 57
2, 113543, Note_on_c, 0, 42, 0
2, 113577, Note_on_c, 0, 58, 57
2, 113646, Note_on_c, 0, 49, 0
2, 113677, Note_on_c, 0, 42, 53
2, 113700, Control_c, 0, 64, 127
2, 113774, Note_on_c, 0, 49, 55
2, 113802, Control_c, 0, 64, 0
2, 113808, Note_on_c, 0, 54, 0
2, 113883, Note_on_c, 0, 54, 51
2, 113893, Note_on_c, 0, 58, 0
2, 114013, Note_on_c, 0, 58, 47
2, 114064, Note_on_c, 0, 42, 0
2, 114137, Control_c, 0, 64, 127
2, 114152, Note_on_c, 0, 42, 52
2, 114236, Note_on_c, 0, 49, 0
2, 114240, Control_c, 0, 64, 0
2, 114324, Note_on_c, 0, 49, 54
2, 114326, Note_on_c, 0, 54, 0
2, 114440, Note_on_c, 0, 54, 47
2, 114511, Note_on_c, 0, 58, 0
2, 114553, Note_on_c, 0, 58, 48
2, 114815, Control_c, 0, 64, 127
2, 114844, Note_on_c, 0, 42, 0
2, 114887, Note_on_c, 0, 49, 0
2, 114887, Note_on_c, 0, 58, 0
2, 114888, Note_on_c, 0, 42, 41
2, 114891, Note_on_c, 0, 54, 0
2, 115074, Control_c, 0, 64, 0
2, 115173, Note_on_c, 0, 49, 47
2, 115238, Control_c, 0, 67, 127
2, 115392, Note_on_c, 0, 54, 60
2, 115560, Control_c, 0, 64, 127
2, 115568, Note_on_c, 0, 64, 41
2, 115598, Note_on_c, 0, 58, 42
2, 115783, Note_on_c, 0, 42, 0
2, 115824, Note_on_c, 0, 42, 54
2, 115866, Note_on_c, 0, 49, 0
2, 115945, Note_on_c, 0, 54, 0
2, 115979, Note_on_c, 0, 49, 48
2, 116027, Control_c, 0, 64, 0
2, 116104, Note_on_c, 0, 54, 60
2, 116146, Note_on_c, 0, 58, 0
2, 116184, Note_on_c, 0, 60, 47
2, 116186, Note_on_c, 0, 64, 0
2, 116216, Note_on_c, 0, 58, 42
2, 116310, Note_on_c, 0, 42, 0
2, 116317, Note_on_c, 0, 49, 0
2, 116353, Note_on_c, 0, 42, 47
2, 116361, Control_c, 0, 64, 127
2, 116454, Note_on_c, 0, 54, 0
2, 116485, Note_on_c, 0, 49, 47
2, 116520, Control_c, 0, 64, 0
2, 116594, Note_on_c, 0, 54, 53
2, 116619, Note_on_c, 0, 58, 0
2, 116653, Note_on_c, 0, 60, 0
2, 116657, Note_on_c, 0, 61, 58
2, 116680, Note_on_c, 0, 58, 48
2, 116741, Note_on_c, 0, 42, 0
2, 116742, Note_on_c, 0, 49, 0
2, 116784, Note_on_c, 0, 42, 47
2, 116869, Note_on_c, 0, 54, 0
2, 116891, Note_on_c, 0, 49, 46
2, 116996, Note_on_c, 0, 58, 0
2, 117013, Note_on_c, 0, 54, 41
2, 117015, Control_c, 0, 64, 127
2, 117130, Note_on_c, 0, 61, 0
2, 117134, Note_on_c, 0, 64, 42
2, 117149, Note_on_c, 0, 58, 44
2, 117240, Note_on_c, 0, 42, 0
2, 117280, Note_on_c, 0, 54, 0
2, 117281, Note_on_c, 0, 58, 0
2, 117282, Note_on_c, 0, 42, 45
2, 117284, Note_on_c, 0, 49, 0
2, 117286, Control_c, 0, 64, 0
2, 117433, Note_on_c, 0, 47, 46
2, 117598, Note_on_c, 0, 54, 41
2, 117742, Note_on_c, 0, 59, 48
2, 117748, Note_on_c, 0, 78, 59
2, 117749, Control_c, 0, 64, 127
2, 117830, Note_on_c, 0, 42, 0
2, 117870, Note_on_c, 0, 42, 47
2, 117960, Note_on_c, 0, 47, 0
2, 117998, Note_on_c, 0, 59, 0
2, 117998, Note_on_c, 0, 64, 0
2, 117999, Note_on_c, 0, 62, 46
2, 118006, Note_on_c, 0, 47, 47
2, 118008, Note_on_c, 0, 54, 0
2, 118066, Control_c, 0, 64, 0
2, 118109, Note_on_c, 0, 54, 43
2, 118226, Note_on_c, 0, 59, 46
2, 118226, Note_on_c, 0, 71, 60
2, 118272, Note_on_c, 0, 42, 0
2, 118317, Note_on_c, 0, 42, 43
2, 118383, Note_on_c, 0, 47, 0
2, 118422, Note_on_c, 0, 61, 42
2, 118428, Note_on_c, 0, 62, 0
2, 118429, Note_on_c, 0, 78, 0
2, 118433, Note_on_c, 0, 59, 0
2, 118435, Note_on_c, 0, 47, 43
2, 118482, Note_on_c, 0, 54, 0
2, 118492, Control_c, 0, 64, 127
2, 118524, Note_on_c, 0, 54, 41
2, 118632, Control_c, 0, 64, 0
2, 118640, Note_on_c, 0, 59, 44
2, 118656, Note_on_c, 0, 66, 54
2, 118714, Note_on_c, 0, 42, 0
2, 118755, Note_on_c, 0, 42, 43
2, 118817, Note_on_c, 0, 47, 0
2, 118860, Note_on_c, 0, 47, 52
2, 118868, Note_on_c, 0, 62, 47
2, 118870, Note_on_c, 0, 71, 0
2, 118870, Note_on_c, 0, 61, 0
2, 118871, Note_on_c, 0, 59, 0
2, 118955, Note_on_c, 0, 54, 0
2, 119008, Control_c, 0, 64, 127
2, 119008, Note_on_c, 0, 54, 48
2, 119071, Control_c, 0, 67, 0
2, 119124, Note_on_c, 0, 59, 43
2, 119124, Note_on_c, 0, 71, 47
2, 119125, Note_on_c, 0, 62, 0
2, 119126, Note_on_c, 0, 66, 0
2, 119148, Control_c, 0, 64, 0
2, 119274, Note_on_c, 0, 54, 0
2, 119274, Note_on_c, 0, 42, 0
2, 119274, Note_on_c, 0, 47, 0
2, 119275, Note_on_c, 0, 71, 0
2, 119275, Note_on_c, 0, 59, 0
2, 119276, Note_on_c, 0, 43, 45
2, 119489, Note_on_c, 0, 50, 43
2, 119572, Control_c, 0, 64, 127
2, 119672, Note_on_c, 0, 55, 41
2, 119817, Note_on_c, 0, 59, 48
2, 119833, Note_on_c, 0, 65, 63
2, 119948, Note_on_c, 0, 43, 0
2, 120002, Note_on_c, 0, 43, 47
2, 120051, Note_on_c, 0, 50, 0
2, 120106, Note_on_c, 0, 50, 41
2, 120183, Note_on_c, 0, 55, 0
2, 120238, Note_on_c, 0, 55, 42
2, 120309, Note_on_c, 0, 59, 0
2, 120342, Control_c, 0, 64, 0
2, 120360, Note_on_c, 0, 61, 48
2, 120363, Note_on_c, 0, 65, 0
2, 120373, Note_on_c, 0, 59, 41
2, 120453, Note_on_c, 0, 43, 0
2, 120502, Note_on_c, 0, 43, 45
2, 120554, Note_on_c, 0, 50, 0
2, 120609, Note_on_c, 0, 50, 47
2, 120630, Control_c, 0, 64, 127
2, 120650, Note_on_c, 0, 55, 0
2, 120705, Note_on_c, 0, 55, 42
2, 120752, Control_c, 0, 64, 0
2, 120770, Note_on_c, 0, 59, 0
2, 120810, Note_on_c, 0, 62, 46
2, 120819, Note_on_c, 0, 61, 0
2, 120831, Note_on_c, 0, 59, 42
2, 120877, Note_on_c, 0, 43, 0
2, 120932, Note_on_c, 0, 43, 47
2, 120981, Note_on_c, 0, 50, 0
2, 121034, Note_on_c, 0, 50, 41
2, 121074, Note_on_c, 0, 55, 0
2, 121126, Note_on_c, 0, 55, 48
2, 121135, Control_c, 0, 64, 127
2, 121200, Note_on_c, 0, 59, 0
2, 121242, Note_on_c, 0, 59, 49
2, 121249, Note_on_c, 0, 65, 49
2, 121250, Note_on_c, 0, 62, 0
2, 121272, Control_c, 0, 64, 0
2, 121318, Note_on_c, 0, 43, 0
2, 121369, Note_on_c, 0, 50, 0
2, 121370, Note_on_c, 0, 55, 0
2, 121370, Note_on_c, 0, 43, 57
2, 121371, Note_on_c, 0, 59, 0
2, 121493, Note_on_c, 0, 48, 57
2, 121622, Note_on_c, 0, 55, 55
2, 121632, Control_c, 0, 64, 127
2, 121727, Note_on_c, 0, 55, 0
2, 121727, Note_on_c, 0, 48, 0
2, 121728, Note_on_c, 0, 60, 57
2, 121746, Note_on_c, 0, 79, 63
2, 121830, Note_on_c, 0, 43, 0
2, 121880, Note_on_c, 0, 43, 52
2, 121893, Control_c, 0, 64, 0
2, 121998, Note_on_c, 0, 63, 44
2, 122002, Note_on_c, 0, 60, 0
2, 122004, Note_on_c, 0, 48, 46
2, 122022, Note_on_c, 0, 65, 0
2, 122093, Note_on_c, 0, 55, 47
2, 122195, Note_on_c, 0, 79, 0
2, 122196, Note_on_c, 0, 60, 50
2, 122197, Note_on_c, 0, 72, 65
2, 122232, Control_c, 0, 64, 127
2, 122292, Note_on_c, 0, 43, 0
2, 122328, Note_on_c, 0, 43, 48
2, 122361, Control_c, 0, 64, 0
2, 122369, Note_on_c, 0, 48, 0
2, 122411, Note_on_c, 0, 63, 0
2, 122411, Note_on_c, 0, 62, 48
2, 122413, Note_on_c, 0, 60, 0
2, 122413, Note_on_c, 0, 55, 0
2, 122415, Note_on_c, 0, 48, 49
2, 122513, Note_on_c, 0, 55, 48
2, 122616, Note_on_c, 0, 60, 42
2, 122627, Note_on_c, 0, 67, 53
2, 122644, Control_c, 0, 64, 127
2, 122702, Note_on_c, 0, 43, 0
2, 122744, Note_on_c, 0, 43, 43
2, 122768, Control_c, 0, 64, 0
2, 122796, Note_on_c, 0, 48, 0
2, 122838, Note_on_c, 0, 62, 0
2, 122838, Note_on_c, 0, 55, 0
2, 122838, Note_on_c, 0, 60, 0
2, 122842, Note_on_c, 0, 63, 46
2, 122844, Note_on_c, 0, 48, 46
2, 122870, Note_on_c, 0, 72, 0
2, 122942, Note_on_c, 0, 55, 45
2, 123044, Note_on_c, 0, 63, 0
2, 123045, Note_on_c, 0, 60, 46
2, 123054, Note_on_c, 0, 72, 51
2, 123071, Control_c, 0, 64, 127
2, 123146, Note_on_c, 0, 60, 0
2, 123146, Note_on_c, 0, 48, 0
2, 123146, Note_on_c, 0, 55, 0
2, 123150, Note_on_c, 0, 43, 0
2, 123152, Note_on_c, 0, 44, 52
2, 123180, Control_c, 0, 64, 0
2, 123317, Note_on_c, 0, 67, 0
2, 123317, Note_on_c, 0, 72, 0
2, 123319, Note_on_c, 0, 51, 50
2, 123320, Note_on_c, 0, 66, 51
2, 123429, Note_on_c, 0, 56, 49
2, 123431, Control_c, 0, 64, 127
2, 123546, Note_on_c, 0, 60, 50
2, 123574, Note_on_c, 0, 80, 59
2, 123624, Control_c, 0, 64, 0
2, 123634, Note_on_c, 0, 44, 0
2, 123674, Note_on_c, 0, 44, 48
2, 123775, Note_on_c, 0, 56, 0
2, 123777, Note_on_c, 0, 49, 48
2, 123779, Note_on_c, 0, 51, 0
2, 123783, Note_on_c, 0, 60, 0
2, 123784, Note_on_c, 0, 66, 0
2, 123785, Note_on_c, 0, 80, 0
2, 123786, Note_on_c, 0, 65, 60
2, 123894, Note_on_c, 0, 56, 52
2, 123901, Control_c, 0, 64, 127
2, 123983, Note_on_c, 0, 61, 47
2, 123992, Note_on_c, 0, 73, 63
2, 124015, Note_on_c, 0, 44, 0
2, 124017, Control_c, 0, 64, 0
2, 124069, Note_on_c, 0, 44, 48
2, 124109, Note_on_c, 0, 49, 0
2, 124169, Note_on_c, 0, 65, 0
2, 124173, Note_on_c, 0, 64, 45
2, 124180, Note_on_c, 0, 56, 0
2, 124181, Note_on_c, 0, 49, 43
2, 124274, Note_on_c, 0, 56, 41
2, 124304, Note_on_c, 0, 61, 0
2, 124353, Note_on_c, 0, 61, 41
2, 124355, Note_on_c, 0, 68, 61
2, 124357, Control_c, 0, 64, 127
2, 124369, Note_on_c, 0, 44, 0
2, 124423, Note_on_c, 0, 44, 46
2, 124466, Control_c, 0, 64, 0
2, 124471, Note_on_c, 0, 49, 0
2, 124526, Note_on_c, 0, 49, 43
2, 124533, Note_on_c, 0, 64, 0
2, 124535, Note_on_c, 0, 65, 52
2, 124547, Note_on_c, 0, 56, 0
2, 124645, Note_on_c, 0, 56, 44
2, 124656, Note_on_c, 0, 73, 0
2, 124663, Note_on_c, 0, 61, 0
2, 124716, Note_on_c, 0, 61, 47
2, 124721, Note_on_c, 0, 73, 48
2, 124743, Note_on_c, 0, 68, 0
2, 124805, Note_on_c, 0, 44, 0
2, 124805, Note_on_c, 0, 49, 0
2, 124807, Note_on_c, 0, 46, 61
2, 124934, Note_on_c, 0, 56, 0
2, 124935, Note_on_c, 0, 61, 0
2, 124936, Note_on_c, 0, 73, 0
2, 124936, Note_on_c, 0, 65, 0
2, 124938, Note_on_c, 0, 68, 60
2, 124965, Note_on_c, 0, 53, 58
2, 125001, Control_c, 0, 64, 127
2, 125063, Note_on_c, 0, 58, 55
2, 125163, Note_on_c, 0, 82, 65
2, 125167, Note_on_c, 0, 62, 54
2, 125221, Note_on_c, 0, 46, 0
2, 125271, Note_on_c, 0, 46, 57
2, 125279, Control_c, 0, 64, 0
2, 125364, Note_on_c, 0, 51, 53
2, 125369, Note_on_c, 0, 67, 57
2, 125370, Note_on_c, 0, 68, 0
2, 125376, Note_on_c, 0, 53, 0
2, 125376, Note_on_c, 0, 62, 0
2, 125384, Note_on_c, 0, 58, 0
2, 125475, Note_on_c, 0, 58, 52
2, 125563, Note_on_c, 0, 63, 54
2, 125575, Note_on_c, 0, 82, 0
2, 125581, Note_on_c, 0, 75, 59
2, 125589, Control_c, 0, 64, 127
2, 125600, Note_on_c, 0, 46, 0
2, 125647, Note_on_c, 0, 51, 0
2, 125649, Note_on_c, 0, 46, 53
2, 125678, Control_c, 0, 64, 0
2, 125716, Note_on_c, 0, 67, 0
2, 125717, Note_on_c, 0, 66, 60
2, 125725, Note_on_c, 0, 51, 54
2, 125774, Note_on_c, 0, 58, 0
2, 125818, Note_on_c, 0, 58, 43
2, 125845, Note_on_c, 0, 63, 0
2, 125878, Note_on_c, 0, 63, 44
2, 125882, Note_on_c, 0, 70, 60
2, 125909, Control_c, 0, 64, 127
2, 125922, Note_on_c, 0, 46, 0
2, 125975, Note_on_c, 0, 46, 47
2, 125997, Note_on_c, 0, 51, 0
2, 126002, Control_c, 0, 64, 0
2, 126029, Note_on_c, 0, 66, 0
2, 126031, Note_on_c, 0, 67, 54
2, 126049, Note_on_c, 0, 51, 44
2, 126099, Note_on_c, 0, 58, 0
2, 126144, Note_on_c, 0, 58, 47
2, 126163, Note_on_c, 0, 75, 0
2, 126163, Note_on_c, 0, 63, 0
2, 126208, Note_on_c, 0, 63, 60
2, 126212, Note_on_c, 0, 75, 65
2, 126284, Note_on_c, 0, 51, 0
2, 126286, Note_on_c, 0, 48, 60
2, 126287, Note_on_c, 0, 46, 0
2, 126317, Note_on_c, 0, 70, 0
2, 126360, Note_on_c, 0, 58, 0
2, 126360, Note_on_c, 0, 67, 0
2, 126360, Note_on_c, 0, 63, 0
2, 126362, Note_on_c, 0, 70, 71
2, 126384, Note_on_c, 0, 55, 65
2, 126471, Note_on_c, 0, 60, 65
2, 126540, Note_on_c, 0, 84, 75
2, 126541, Note_on_c, 0, 75, 0
2, 126563, Note_on_c, 0, 70, 0
2, 126567, Note_on_c, 0, 64, 57
2, 126576, Control_c, 0, 64, 127
2, 126589, Note_on_c, 0, 48, 0
2, 126621, Note_on_c, 0, 60, 0
2, 126621, Note_on_c, 0, 55, 0
2, 126622, Note_on_c, 0, 64, 0
2, 126626, Note_on_c, 0, 48, 60
2, 126713, Note_on_c, 0, 68, 70
2, 126727, Control_c, 0, 64, 0
2, 126735, Note_on_c, 0, 53, 63
2, 126805, Note_on_c, 0, 60, 52
2, 126855, Note_on_c, 0, 84, 0
2, 126865, Note_on_c, 0, 77, 54
2, 126866, Note_on_c, 0, 68, 0
2, 126872, Note_on_c, 0, 65, 60
2, 126873, Note_on_c, 0, 69, 61
2, 126949, Note_on_c, 0, 60, 0
2, 126949, Note_on_c, 0, 48, 0
2, 126949, Note_on_c, 0, 53, 0
2, 126950, Note_on_c, 0, 69, 0
2, 126950, Note_on_c, 0, 65, 0
2, 126951, Note_on_c, 0, 50, 53
2, 127044, Note_on_c, 0, 57, 66
2, 127045, Note_on_c, 0, 72, 74
2, 127071, Control_c, 0, 64, 127
2, 127126, Note_on_c, 0, 62, 56
2, 127216, Note_on_c, 0, 86, 77
2, 127221, Note_on_c, 0, 77, 0
2, 127227, Note_on_c, 0, 66, 73
2, 127280, Note_on_c, 0, 50, 0
2, 127301, Control_c, 0, 64, 0
2, 127321, Note_on_c, 0, 50, 59
2, 127323, Note_on_c, 0, 57, 0
2, 127323, Note_on_c, 0, 72, 0
2, 127323, Note_on_c, 0, 62, 0
2, 127323, Note_on_c, 0, 66, 0
2, 127416, Note_on_c, 0, 55, 56
2, 127416, Note_on_c, 0, 70, 73
2, 127519, Note_on_c, 0, 62, 50
2, 127611, Note_on_c, 0, 70, 0
2, 127612, Note_on_c, 0, 86, 0
2, 127613, Note_on_c, 0, 71, 56
2, 127614, Note_on_c, 0, 67, 55
2, 127614, Note_on_c, 0, 79, 59
2, 127718, Note_on_c, 0, 71, 0
2, 127718, Note_on_c, 0, 50, 0
2, 127718, Note_on_c, 0, 62, 0
2, 127718, Note_on_c, 0, 55, 0
2, 127719, Note_on_c, 0, 79, 0
2, 127719, Note_on_c, 0, 67, 0
2, 127720, Note_on_c, 0, 49, 52
2, 127848, Note_on_c, 0, 55, 54
2, 127848, Note_on_c, 0, 70, 59
2, 127868, Control_c, 0, 64, 127
2, 127970, Note_on_c, 0, 58, 49
2, 128014, Note_on_c, 0, 64, 48
2, 128014, Note_on_c, 0, 85, 54
2, 128078, Note_on_c, 0, 55, 0
2, 128078, Note_on_c, 0, 49, 0
2, 128080, Note_on_c, 0, 52, 56
2, 128129, Note_on_c, 0, 58, 0
2, 128157, Note_on_c, 0, 70, 0
2, 128169, Note_on_c, 0, 58, 57
2, 128170, Note_on_c, 0, 73, 68
2, 128235, Note_on_c, 0, 64, 0
2, 128235, Note_on_c, 0, 61, 47
2, 128285, Note_on_c, 0, 85, 0
2, 128286, Note_on_c, 0, 88, 63
2, 128287, Note_on_c, 0, 67, 59
2, 128340, Note_on_c, 0, 52, 0
2, 128342, Note_on_c, 0, 55, 56
2, 128375, Note_on_c, 0, 61, 0
2, 128417, Note_on_c, 0, 58, 0
2, 128417, Note_on_c, 0, 73, 0
2, 128418, Note_on_c, 0, 61, 57
2, 128419, Note_on_c, 0, 76, 70
2, 128483, Note_on_c, 0, 67, 0
2, 128484, Note_on_c, 0, 64, 48
2, 128548, Note_on_c, 0, 88, 0
2, 128554, Note_on_c, 0, 70, 55
2, 128554, Note_on_c, 0, 91, 52
2, 128581, Note_on_c, 0, 54, 68
2, 128599, Note_on_c, 0, 54, 0
2, 128616, Note_on_c, 0, 61, 0
2, 128659, Note_on_c, 0, 55, 0
2, 128660, Note_on_c, 0, 76, 0
2, 128662, Note_on_c, 0, 61, 65
2, 128667, Note_on_c, 0, 64, 0
2, 128705, Note_on_c, 0, 79, 72
2, 128713, Note_on_c, 0, 64, 69
2, 128777, Note_on_c, 0, 70, 0
2, 128779, Note_on_c, 0, 67, 50
2, 128826, Note_on_c, 0, 91, 0
2, 128832, Note_on_c, 0, 94, 61
2, 128832, Note_on_c, 0, 73, 60
2, 128853, Note_on_c, 0, 61, 0
2, 128896, Note_on_c, 0, 64, 0
2, 128898, Note_on_c, 0, 61, 61
2, 128919, Note_on_c, 0, 67, 0
2, 128961, Note_on_c, 0, 79, 0
2, 128963, Note_on_c, 0, 67, 78
2, 128963, Note_on_c, 0, 82, 75
2, 129038, Note_on_c, 0, 73, 0
2, 129039, Note_on_c, 0, 70, 54
2, 129084, Note_on_c, 0, 94, 0
2, 129084, Note_on_c, 0, 76, 64
2, 129084, Note_on_c, 0, 97, 67
2, 129101, Control_c, 0, 64, 0
2, 129141, Control_c, 0, 64, 127
2, 129152, Note_on_c, 0, 61, 0
2, 129153, Note_on_c, 0, 67, 0
2, 129159, Note_on_c, 0, 64, 75
2, 129165, Note_on_c, 0, 70, 0
2, 129203, Note_on_c, 0, 82, 0
2, 129204, Note_on_c, 0, 85, 81
2, 129205, Note_on_c, 0, 70, 76
2, 129280, Note_on_c, 0, 76, 0
2, 129281, Note_on_c, 0, 73, 55
2, 129330, Note_on_c, 0, 97, 0
2, 129335, Note_on_c, 0, 79, 66
2, 129335, Note_on_c, 0, 100, 65
2, 129395, Note_on_c, 0, 67, 71
2, 129396, Note_on_c, 0, 70, 0
2, 129396, Note_on_c, 0, 64, 0
2, 129425, Note_on_c, 0, 73, 0
2, 129456, Note_on_c, 0, 85, 0
2, 129458, Note_on_c, 0, 88, 68
2, 129465, Note_on_c, 0, 73, 60
2, 129544, Note_on_c, 0, 76, 69
2, 129545, Note_on_c, 0, 100, 0
2, 129608, Note_on_c, 0, 88, 0
2, 129609, Note_on_c, 0, 79, 0
2, 129615, Note_on_c, 0, 82, 61
2, 129629, Note_on_c, 0, 103, 60
2, 129636, Note_on_c, 0, 67, 0
2, 129677, Note_on_c, 0, 67, 62
2, 129694, Note_on_c, 0, 73, 0
2, 129740, Note_on_c, 0, 88, 73
2, 129741, Note_on_c, 0, 73, 77
2, 129763, Note_on_c, 0, 76, 0
2, 129810, Note_on_c, 0, 76, 56
2, 129848, Note_on_c, 0, 103, 0
2, 129852, Note_on_c, 0, 82, 0
2, 129896, Note_on_c, 0, 88, 0
2, 129898, Note_on_c, 0, 82, 66
2, 129898, Note_on_c, 0, 103, 62
2, 129913, Note_on_c, 0, 67, 0
2, 129960, Note_on_c, 0, 67, 56
2, 129996, Note_on_c, 0, 73, 0
2, 130044, Note_on_c, 0, 88, 68
2, 130045, Note_on_c, 0, 73, 70
2, 130076, Note_on_c, 0, 76, 0
2, 130123, Note_on_c, 0, 76, 57
2, 130165, Note_on_c, 0, 82, 0
2, 130170, Note_on_c, 0, 103, 0
2, 130212, Note_on_c, 0, 82, 58
2, 130223, Note_on_c, 0, 103, 59
2, 130227, Note_on_c, 0, 88, 0
2, 130248, Note_on_c, 0, 67, 0
2, 130293, Note_on_c, 0, 67, 59
2, 130320, Note_on_c, 0, 73, 0
2, 130376, Note_on_c, 0, 73, 61
2, 130376, Note_on_c, 0, 88, 62
2, 130410, Note_on_c, 0, 76, 0
2, 130463, Note_on_c, 0, 76, 54
2, 130499, Note_on_c, 0, 82, 0
2, 130515, Note_on_c, 0, 103, 0
2, 130551, Note_on_c, 0, 82, 58
2, 130568, Note_on_c, 0, 103, 54
2, 130573, Control_c, 0, 67, 127
2, 130614, Note_on_c, 0, 67, 0
2, 130650, Note_on_c, 0, 67, 58
2, 130741, Note_on_c, 0, 88, 0
2, 130743, Note_on_c, 0, 86, 80
2, 130755, Note_on_c, 0, 73, 0
2, 130755, Control_c, 0, 64, 0
2, 130756, Note_on_c, 0, 82, 0
2, 130756, Note_on_c, 0, 76, 0
2, 130758, Note_on_c, 0, 74, 57
2, 130870, Note_on_c, 0, 77, 56
2, 130908, Note_on_c, 0, 103, 0
2, 130957, Note_on_c, 0, 86, 0
2, 130959, Note_on_c, 0, 103, 55
2, 130963, Note_on_c, 0, 83, 61
2, 131013, Note_on_c, 0, 67, 0
2, 131032, Control_c, 0, 64, 127
2, 131057, Note_on_c, 0, 67, 77
2, 131090, Note_on_c, 0, 74, 0
2, 131134, Note_on_c, 0, 83, 0
2, 131137, Note_on_c, 0, 74, 73
2, 131137, Note_on_c, 0, 86, 73
2, 131166, Note_on_c, 0, 77, 0
2, 131218, Note_on_c, 0, 77, 54
2, 131275, Note_on_c, 0, 103, 0
2, 131307, Note_on_c, 0, 86, 0
2, 131314, Note_on_c, 0, 83, 53
2, 131321, Note_on_c, 0, 103, 57
2, 131357, Note_on_c, 0, 67, 0
2, 131400, Note_on_c, 0, 67, 60
2, 131436, Note_on_c, 0, 74, 0
2, 131480, Note_on_c, 0, 83, 0
2, 131484, Note_on_c, 0, 74, 60
2, 131484, Note_on_c, 0, 86, 59
2, 131525, Note_on_c, 0, 77, 0
2, 131572, Note_on_c, 0, 77, 49
2, 131626, Note_on_c, 0, 103, 0
2, 131654, Note_on_c, 0, 86, 0
2, 131660, Note_on_c, 0, 83, 50
2, 131676, Note_on_c, 0, 103, 57
2, 131699, Note_on_c, 0, 67, 0
2, 131746, Note_on_c, 0, 67, 43
2, 131776, Note_on_c, 0, 74, 0
2, 131816, Note_on_c, 0, 83, 0
2, 131820, Note_on_c, 0, 86, 62
2, 131825, Note_on_c, 0, 74, 62
2, 131880, Note_on_c, 0, 77, 0
2, 131911, Control_c, 0, 64, 0
2, 131926, Note_on_c, 0, 77, 48
2, 131968, Note_on_c, 0, 103, 0
2, 132012, Note_on_c, 0, 86, 0
2, 132014, Note_on_c, 0, 83, 48
2, 132014, Note_on_c, 0, 103, 41
2, 132055, Note_on_c, 0, 67, 0
2, 132083, Note_on_c, 0, 83, 0
2, 132095, Note_on_c, 0, 67, 44
2, 132128, Note_on_c, 0, 74, 0
2, 132172, Note_on_c, 0, 83, 53
2, 132173, Note_on_c, 0, 74, 54
2, 132236, Note_on_c, 0, 77, 0
2, 132236, Control_c, 0, 64, 127
2, 132278, Note_on_c, 0, 77, 47
2, 132360, Note_on_c, 0, 103, 0
2, 132365, Note_on_c, 0, 79, 48
2, 132365, Note_on_c, 0, 98, 51
2, 132399, Note_on_c, 0, 67, 0
2, 132435, Note_on_c, 0, 83, 0
2, 132446, Note_on_c, 0, 67, 42
2, 132486, Note_on_c, 0, 74, 0
2, 132532, Note_on_c, 0, 79, 0
2, 132532, Note_on_c, 0, 77, 0
2, 132534, Note_on_c, 0, 83, 50
2, 132535, Note_on_c, 0, 74, 50
2, 132663, Note_on_c, 0, 77, 44
2, 132694, Note_on_c, 0, 98, 0
2, 132731, Note_on_c, 0, 83, 0
2, 132733, Note_on_c, 0, 79, 41
2, 132745, Note_on_c, 0, 98, 46
2, 132747, Control_c, 0, 64, 0
2, 132775, Note_on_c, 0, 67, 0
2, 132821, Note_on_c, 0, 77, 0
2, 132822, Note_on_c, 0, 74, 0
2, 132824, Note_on_c, 0, 67, 45
2, 132839, Note_on_c, 0, 79, 0
2, 132934, Note_on_c, 0, 71, 53
2, 132938, Note_on_c, 0, 79, 48
2, 133044, Note_on_c, 0, 74, 43
2, 133074, Control_c, 0, 64, 127
2, 133163, Note_on_c, 0, 98, 0
2, 133168, Note_on_c, 0, 95, 41
2, 133175, Note_on_c, 0, 79, 0
2, 133176, Note_on_c, 0, 77, 44
2, 133235, Control_c, 0, 64, 0
2, 133249, Note_on_c, 0, 67, 0
2, 133297, Note_on_c, 0, 67, 47
2, 133340, Note_on_c, 0, 71, 0
2, 133383, Note_on_c, 0, 71, 48
2, 133385, Note_on_c, 0, 77, 0
2, 133385, Note_on_c, 0, 79, 42
2, 133450, Note_on_c, 0, 74, 0
2, 133499, Note_on_c, 0, 74, 55
2, 133509, Control_c, 0, 64, 127
2, 133625, Note_on_c, 0, 95, 0
2, 133629, Note_on_c, 0, 77, 61
2, 133632, Note_on_c, 0, 91, 62
2, 133639, Note_on_c, 0, 79, 0
2, 133645, Control_c, 0, 64, 0
2, 133677, Note_on_c, 0, 77, 0
2, 133683, Note_on_c, 0, 79, 46
2, 133689, Note_on_c, 0, 67, 0
2, 133714, Note_on_c, 0, 79, 0
2, 133731, Note_on_c, 0, 81, 46
2, 133732, Note_on_c, 0, 67, 48
2, 133781, Note_on_c, 0, 81, 0
2, 133788, Note_on_c, 0, 79, 59
2, 133819, Note_on_c, 0, 79, 0
2, 133829, Note_on_c, 0, 71, 0
2, 133841, Note_on_c, 0, 91, 0
2, 133848, Note_on_c, 0, 93, 60
2, 133872, Note_on_c, 0, 71, 49
2, 133873, Note_on_c, 0, 79, 44
2, 133903, Note_on_c, 0, 79, 0
2, 133907, Note_on_c, 0, 74, 0
2, 133950, Note_on_c, 0, 81, 50
2, 133951, Note_on_c, 0, 74, 47
2, 133987, Note_on_c, 0, 79, 50
2, 133989, Note_on_c, 0, 81, 0
2, 134018, Note_on_c, 0, 79, 0
2, 134044, Note_on_c, 0, 93, 0
2, 134051, Note_on_c, 0, 95, 56
2, 134068, Control_c, 0, 64, 127
2, 134068, Note_on_c, 0, 77, 60
2, 134098, Note_on_c, 0, 77, 0
2, 134102, Note_on_c, 0, 79, 45
2, 134108, Note_on_c, 0, 67, 0
2, 134136, Note_on_c, 0, 79, 0
2, 134155, Note_on_c, 0, 67, 42
2, 134155, Note_on_c, 0, 81, 43
2, 134188, Note_on_c, 0, 81, 0
2, 134190, Note_on_c, 0, 79, 45
2, 134221, Note_on_c, 0, 79, 0
2, 134236, Note_on_c, 0, 95, 0
2, 134241, Note_on_c, 0, 71, 0
2, 134243, Note_on_c, 0, 91, 57
2, 134289, Note_on_c, 0, 71, 48
2, 134290, Note_on_c, 0, 79, 46
2, 134303, Note_on_c, 0, 74, 0
2, 134319, Note_on_c, 0, 79, 0
2, 134340, Note_on_c, 0, 74, 47
2, 134350, Note_on_c, 0, 81, 47
2, 134399, Note_on_c, 0, 81, 0
2, 134402, Note_on_c, 0, 79, 53
2, 134432, Note_on_c, 0, 79, 0
2, 134436, Control_c, 0, 64, 0
2, 134456, Note_on_c, 0, 93, 54
2, 134475, Note_on_c, 0, 77, 46
2, 134506, Note_on_c, 0, 77, 0
2, 134513, Note_on_c, 0, 79, 46
2, 134519, Note_on_c, 0, 67, 0
2, 134544, Note_on_c, 0, 79, 0
2, 134564, Note_on_c, 0, 71, 0
2, 134566, Note_on_c, 0, 67, 46
2, 134569, Note_on_c, 0, 81, 47
2, 134600, Note_on_c, 0, 81, 0
2, 134607, Note_on_c, 0, 79, 45
2, 134638, Note_on_c, 0, 79, 0
2, 134670, Note_on_c, 0, 95, 62
2, 134691, Note_on_c, 0, 71, 78
2, 134691, Note_on_c, 0, 79, 80
2, 134712, Note_on_c, 0, 91, 0
2, 134721, Note_on_c, 0, 79, 0
2, 134743, Note_on_c, 0, 93, 0
2, 134756, Note_on_c, 0, 74, 0
2, 134765, Note_on_c, 0, 72, 43
2, 134765, Note_on_c, 0, 81, 48
2, 134803, Note_on_c, 0, 81, 0
2, 134809, Note_on_c, 0, 79, 41
2, 134824, Control_c, 0, 64, 127
2, 134838, Note_on_c, 0, 79, 0
2, 134869, Note_on_c, 0, 95, 0
2, 134874, Note_on_c, 0, 96, 66
2, 134876, Note_on_c, 0, 76, 64
2, 134924, Note_on_c, 0, 76, 0
2, 134926, Note_on_c, 0, 79, 46
2, 134931, Note_on_c, 0, 67, 0
2, 134954, Note_on_c, 0, 79, 0
2, 134976, Note_on_c, 0, 67, 47
2, 134976, Note_on_c, 0, 81, 41
2, 135012, Note_on_c, 0, 81, 0
2, 135016, Note_on_c, 0, 71, 0
2, 135021, Note_on_c, 0, 79, 46
2, 135048, Note_on_c, 0, 79, 0
2, 135049, Note_on_c, 0, 71, 59
2, 135049, Note_on_c, 0, 91, 53
2, 135085, Note_on_c, 0, 96, 0
2, 135100, Note_on_c, 0, 79, 42
2, 135123, Note_on_c, 0, 72, 0
2, 135128, Note_on_c, 0, 79, 0
2, 135166, Note_on_c, 0, 72, 44
2, 135168, Note_on_c, 0, 81, 47
2, 135205, Control_c, 0, 64, 0
2, 135206, Note_on_c, 0, 81, 0
2, 135210, Note_on_c, 0, 79, 49
2, 135242, Note_on_c, 0, 79, 0
2, 135248, Note_on_c, 0, 91, 0
2, 135254, Note_on_c, 0, 93, 48
2, 135281, Note_on_c, 0, 76, 45
2, 135319, Note_on_c, 0, 76, 0
2, 135326, Note_on_c, 0, 79, 43
2, 135336, Note_on_c, 0, 67, 0
2, 135357, Note_on_c, 0, 79, 0
2, 135379, Note_on_c, 0, 81, 42
2, 135380, Note_on_c, 0, 67, 45
2, 135409, Note_on_c, 0, 81, 0
2, 135413, Note_on_c, 0, 79, 44
2, 135448, Note_on_c, 0, 79, 0
2, 135454, Note_on_c, 0, 71, 0
2, 135462, Note_on_c, 0, 86, 54
2, 135482, Note_on_c, 0, 93, 0
2, 135483, Note_on_c, 0, 72, 0
2, 135516, Note_on_c, 0, 79, 42
2, 135546, Note_on_c, 0, 79, 0
2, 135547, Note_on_c, 0, 71, 45
2, 135568, Note_on_c, 0, 81, 45
2, 135598, Control_c, 0, 64, 127
2, 135622, Note_on_c, 0, 81, 0
2, 135624, Note_on_c, 0, 73, 41
2, 135624, Note_on_c, 0, 79, 45
2, 135655, Note_on_c, 0, 86, 0
2, 135660, Note_on_c, 0, 79, 0
2, 135679, Note_on_c, 0, 93, 43
2, 135680, Note_on_c, 0, 77, 41
2, 135723, Note_on_c, 0, 67, 0
2, 135730, Note_on_c, 0, 93, 0
2, 135731, Note_on_c, 0, 77, 0
2, 135738, Note_on_c, 0, 79, 41
2, 135768, Note_on_c, 0, 71, 0
2, 135769, Note_on_c, 0, 79, 0
2, 135769, Note_on_c, 0, 73, 0
2, 135771, Note_on_c, 0, 67, 42
2, 135799, Note_on_c, 0, 81, 47
2, 135845, Note_on_c, 0, 81, 0
2, 135849, Note_on_c, 0, 79, 47
2, 135880, Note_on_c, 0, 79, 0
2, 135882, Note_on_c, 0, 86, 48
2, 135907, Note_on_c, 0, 70, 43
2, 135931, Note_on_c, 0, 86, 0
2, 135937, Note_on_c, 0, 79, 41
2, 135969, Note_on_c, 0, 79, 0
2, 135975, Note_on_c, 0, 71, 43
2, 136000, Note_on_c, 0, 81, 45
2, 136040, Note_on_c, 0, 81, 0
2, 136044, Note_on_c, 0, 79, 47
2, 136075, Note_on_c, 0, 79, 0
2, 136101, Note_on_c, 0, 93, 55
2, 136102, Note_on_c, 0, 77, 57
2, 136110, Control_c, 0, 64, 0
2, 136146, Note_on_c, 0, 67, 0
2, 136154, Note_on_c, 0, 77, 0
2, 136158, Note_on_c, 0, 79, 41
2, 136188, Note_on_c, 0, 79, 0
2, 136190, Note_on_c, 0, 67, 42
2, 136191, Note_on_c, 0, 71, 0
2, 136210, Note_on_c, 0, 81, 45
2, 136240, Note_on_c, 0, 81, 0
2, 136255, Note_on_c, 0, 79, 41
2, 136285, Note_on_c, 0, 79, 0
2, 136292, Note_on_c, 0, 93, 0
2, 136297, Note_on_c, 0, 91, 60
2, 136335, Note_on_c, 0, 71, 43
2, 136344, Note_on_c, 0, 70, 0
2, 136361, Note_on_c, 0, 79, 48
2, 136392, Note_on_c, 0, 79, 0
2, 136407, Note_on_c, 0, 72, 46
2, 136414, Note_on_c, 0, 81, 42
2, 136444, Note_on_c, 0, 81, 0
2, 136460, Note_on_c, 0, 79, 44
2, 136488, Note_on_c, 0, 79, 0
2, 136493, Control_c, 0, 64, 127
2, 136502, Note_on_c, 0, 91, 0
2, 136508, Note_on_c, 0, 93, 53
2, 136510, Note_on_c, 0, 76, 55
2, 136560, Note_on_c, 0, 67, 0
2, 136570, Note_on_c, 0, 79, 42
2, 136598, Note_on_c, 0, 79, 0
2, 136598, Note_on_c, 0, 71, 0
2, 136600, Note_on_c, 0, 67, 47
2, 136620, Note_on_c, 0, 81, 45
2, 136651, Note_on_c, 0, 81, 0
2, 136675, Note_on_c, 0, 79, 44
2, 136705, Note_on_c, 0, 79, 0
2, 136711, Note_on_c, 0, 93, 0
2, 136718, Note_on_c, 0, 88, 48
2, 136719, Note_on_c, 0, 71, 54
2, 136775, Note_on_c, 0, 79, 48
2, 136778, Note_on_c, 0, 72, 0
2, 136804, Note_on_c, 0, 79, 0
2, 136819, Note_on_c, 0, 81, 43
2, 136827, Note_on_c, 0, 72, 47
2, 136849, Note_on_c, 0, 81, 0
2, 136873, Note_on_c, 0, 79, 42
2, 136884, Control_c, 0, 64, 0
2, 136886, Note_on_c, 0, 76, 0
2, 136901, Note_on_c, 0, 88, 0
2, 136902, Note_on_c, 0, 79, 0
2, 136908, Note_on_c, 0, 91, 55
2, 136934, Note_on_c, 0, 76, 48
2, 136975, Note_on_c, 0, 67, 0
2, 136991, Note_on_c, 0, 79, 44
2, 137016, Note_on_c, 0, 79, 0
2, 137020, Note_on_c, 0, 71, 0
2, 137022, Note_on_c, 0, 67, 42
2, 137042, Note_on_c, 0, 81, 45
2, 137073, Note_on_c, 0, 81, 0
2, 137089, Note_on_c, 0, 79, 48
2, 137119, Note_on_c, 0, 79, 0
2, 137133, Note_on_c, 0, 93, 61
2, 137165, Note_on_c, 0, 76, 0
2, 137165, Note_on_c, 0, 72, 0
2, 137166, Note_on_c, 0, 71, 55
2, 137184, Note_on_c, 0, 79, 56
2, 137218, Note_on_c, 0, 79, 0
2, 137245, Note_on_c, 0, 91, 0
2, 137249, Note_on_c, 0, 81, 54
2, 137250, Note_on_c, 0, 74, 60
2, 137272, Control_c, 0, 64, 127
2, 137280, Note_on_c, 0, 81, 0
2, 137303, Note_on_c, 0, 79, 56
2, 137335, Note_on_c, 0, 79, 0
2, 137352, Note_on_c, 0, 77, 60
2, 137356, Note_on_c, 0, 93, 0
2, 137358, Note_on_c, 0, 95, 59
2, 137406, Note_on_c, 0, 77, 0
2, 137408, Note_on_c, 0, 79, 42
2, 137439, Note_on_c, 0, 79, 0
2, 137450, Note_on_c, 0, 71, 0
2, 137451, Note_on_c, 0, 74, 0
2, 137451, Note_on_c, 0, 67, 0
2, 137452, Note_on_c, 0, 65, 47
2, 137459, Note_on_c, 0, 81, 48
2, 137491, Note_on_c, 0, 81, 0
2, 137497, Note_on_c, 0, 79, 43
2, 137528, Note_on_c, 0, 79, 0
2, 137534, Note_on_c, 0, 95, 0
2, 137536, Note_on_c, 0, 91, 47
2, 137546, Note_on_c, 0, 67, 47
2, 137589, Note_on_c, 0, 79, 43
2, 137616, Note_on_c, 0, 79, 0
2, 137653, Note_on_c, 0, 71, 41
2, 137657, Note_on_c, 0, 81, 44
2, 137672, Control_c, 0, 64, 0
2, 137688, Note_on_c, 0, 81, 0
2, 137689, Note_on_c, 0, 79, 48
2, 137719, Note_on_c, 0, 79, 0
2, 137739, Note_on_c, 0, 93, 61
2, 137754, Note_on_c, 0, 74, 59
2, 137784, Note_on_c, 0, 79, 50
2, 137814, Note_on_c, 0, 79, 0
2, 137851, Note_on_c, 0, 67, 0
2, 137852, Note_on_c, 0, 81, 43
2, 137853, Note_on_c, 0, 64, 52
2, 137854, Note_on_c, 0, 65, 0
2, 137880, Note_on_c, 0, 81, 0
2, 137887, Note_on_c, 0, 79, 43
2, 137917, Note_on_c, 0, 79, 0
2, 137928, Note_on_c, 0, 91, 0
2, 137929, Note_on_c, 0, 95, 54
2, 137930, Note_on_c, 0, 67, 58
2, 137951, Note_on_c, 0, 71, 0
2, 137952, Note_on_c, 0, 74, 0
2, 137982, Note_on_c, 0, 93, 0
2, 137989, Note_on_c, 0, 79, 43
2, 138019, Note_on_c, 0, 79, 0
2, 138034, Control_c, 0, 64, 127
2, 138039, Note_on_c, 0, 81, 45
2, 138056, Note_on_c, 0, 72, 43
2, 138081, Note_on_c, 0, 79, 45
2, 138090, Note_on_c, 0, 81, 0
2, 138126, Note_on_c, 0, 79, 0
2, 138142, Note_on_c, 0, 95, 0
2, 138147, Note_on_c, 0, 96, 53
2, 138167, Note_on_c, 0, 76, 42
2, 138210, Note_on_c, 0, 79, 42
2, 138241, Note_on_c, 0, 79, 0
2, 138248, Note_on_c, 0, 67, 0
2, 138248, Note_on_c, 0, 64, 0
2, 138248, Note_on_c, 0, 76, 0
2, 138253, Note_on_c, 0, 81, 54
2, 138254, Note_on_c, 0, 63, 61
2, 138291, Note_on_c, 0, 81, 0
2, 138298, Note_on_c, 0, 79, 53
2, 138302, Control_c, 0, 64, 0
2, 138328, Note_on_c, 0, 79, 0
2, 138338, Note_on_c, 0, 67, 53
2, 138340, Note_on_c, 0, 91, 58
2, 138364, Note_on_c, 0, 72, 0
2, 138394, Note_on_c, 0, 79, 43
2, 138415, Note_on_c, 0, 96, 0
2, 138425, Note_on_c, 0, 79, 0
2, 138439, Note_on_c, 0, 72, 41
2, 138460, Note_on_c, 0, 81, 46
2, 138501, Note_on_c, 0, 81, 0
2, 138509, Note_on_c, 0, 79, 43
2, 138541, Note_on_c, 0, 79, 0
2, 138547, Note_on_c, 0, 75, 50
2, 138561, Note_on_c, 0, 91, 0
2, 138567, Note_on_c, 0, 93, 52
2, 138612, Note_on_c, 0, 79, 44
2, 138648, Note_on_c, 0, 79, 0
2, 138667, Note_on_c, 0, 81, 45
2, 138672, Note_on_c, 0, 63, 0
2, 138672, Note_on_c, 0, 75, 0
2, 138672, Note_on_c, 0, 67, 0
2, 138673, Note_on_c, 0, 62, 64
2, 138675, Note_on_c, 0, 72, 0
2, 138713, Note_on_c, 0, 81, 0
2, 138720, Note_on_c, 0, 79, 45
2, 138744, Note_on_c, 0, 93, 0
2, 138750, Note_on_c, 0, 79, 0
2, 138751, Note_on_c, 0, 86, 60
2, 138768, Note_on_c, 0, 65, 57
2, 138804, Note_on_c, 0, 79, 45
2, 138809, Control_c, 0, 64, 127
2, 138836, Note_on_c, 0, 79, 0
2, 138860, Note_on_c, 0, 81, 44
2, 138887, Note_on_c, 0, 72, 47
2, 138912, Note_on_c, 0, 81, 0
2, 138916, Note_on_c, 0, 79, 42
2, 138937, Control_c, 0, 64, 0
2, 138947, Note_on_c, 0, 79, 0
2, 138968, Note_on_c, 0, 86, 0
2, 138968, Note_on_c, 0, 93, 55
2, 138979, Note_on_c, 0, 74, 51
2, 139024, Note_on_c, 0, 79, 55
2, 139054, Note_on_c, 0, 79, 0
2, 139057, Note_on_c, 0, 62, 0
2, 139077, Note_on_c, 0, 81, 57
2, 139104, Note_on_c, 0, 62, 67
2, 139114, Note_on_c, 0, 81, 0
2, 139120, Note_on_c, 0, 79, 62
2, 139150, Note_on_c, 0, 79, 0
2, 139153, Note_on_c, 0, 65, 0
2, 139164, Note_on_c, 0, 93, 0
2, 139173, Note_on_c, 0, 86, 65
2, 139198, Note_on_c, 0, 65, 64
2, 139220, Note_on_c, 0, 79, 45
2, 139248, Note_on_c, 0, 79, 0
2, 139255, Control_c, 0, 64, 127
2, 139279, Note_on_c, 0, 81, 51
2, 139305, Note_on_c, 0, 72, 0
2, 139309, Note_on_c, 0, 71, 48
2, 139323, Note_on_c, 0, 81, 0
2, 139325, Note_on_c, 0, 79, 47
2, 139337, Control_c, 0, 64, 0
2, 139354, Note_on_c, 0, 79, 0
2, 139359, Note_on_c, 0, 74, 0
2, 139374, Note_on_c, 0, 86, 0
2, 139375, Note_on_c, 0, 93, 60
2, 139402, Note_on_c, 0, 74, 63
2, 139438, Note_on_c, 0, 79, 48
2, 139466, Note_on_c, 0, 79, 0
2, 139491, Note_on_c, 0, 61, 64
2, 139492, Note_on_c, 0, 81, 46
2, 139493, Note_on_c, 0, 71, 0
2, 139493, Note_on_c, 0, 62, 0
2, 139494, Note_on_c, 0, 74, 0
2, 139498, Note_on_c, 0, 65, 0
2, 139548, Note_on_c, 0, 81, 0
2, 139555, Note_on_c, 0, 79, 51
2, 139584, Note_on_c, 0, 93, 0
2, 139586, Note_on_c, 0, 79, 0
2, 139586, Note_on_c, 0, 91, 57
2, 139588, Note_on_c, 0, 64, 48
2, 139644, Note_on_c, 0, 79, 51
2, 139658, Control_c, 0, 64, 127
2, 139676, Note_on_c, 0, 79, 0
2, 139691, Note_on_c, 0, 69, 47
2, 139701, Note_on_c, 0, 81, 48
2, 139732, Note_on_c, 0, 81, 0
2, 139739, Note_on_c, 0, 79, 45
2, 139756, Control_c, 0, 64, 0
2, 139768, Note_on_c, 0, 79, 0
2, 139792, Note_on_c, 0, 91, 0
2, 139798, Note_on_c, 0, 93, 55
2, 139800, Note_on_c, 0, 76, 60
2, 139850, Note_on_c, 0, 79, 45
2, 139883, Note_on_c, 0, 61, 0
2, 139884, Note_on_c, 0, 64, 0
2, 139884, Note_on_c, 0, 69, 0
2, 139884, Note_on_c, 0, 76, 0
2, 139884, Note_on_c, 0, 79, 0
2, 139884, Note_on_c, 0, 81, 42
2, 139885, Note_on_c, 0, 60, 53
2, 139921, Note_on_c, 0, 81, 0
2, 139925, Note_on_c, 0, 79, 46
2, 139988, Note_on_c, 0, 86, 51
2, 139989, Note_on_c, 0, 93, 0
2, 139997, Note_on_c, 0, 62, 48
2, 140029, Note_on_c, 0, 79, 0
2, 140031, Note_on_c, 0, 74, 48
2, 140057, Control_c, 0, 64, 127
2, 140062, Note_on_c, 0, 74, 0
2, 140088, Note_on_c, 0, 76, 48
2, 140097, Note_on_c, 0, 66, 43
2, 140133, Note_on_c, 0, 76, 0
2, 140134, Note_on_c, 0, 74, 42
2, 140155, Control_c, 0, 64, 0
2, 140168, Note_on_c, 0, 74, 0
2, 140192, Note_on_c, 0, 86, 0
2, 140198, Note_on_c, 0, 88, 48
2, 140207, Note_on_c, 0, 69, 49
2, 140239, Note_on_c, 0, 74, 48
2, 140272, Note_on_c, 0, 74, 0
2, 140298, Note_on_c, 0, 76, 49
2, 140312, Note_on_c, 0, 60, 0
2, 140312, Note_on_c, 0, 66, 0
2, 140316, Note_on_c, 0, 62, 0
2, 140316, Note_on_c, 0, 69, 0
2, 140320, Note_on_c, 0, 59, 59
2, 140333, Note_on_c, 0, 76, 0
2, 140337, Note_on_c, 0, 74, 49
2, 140370, Note_on_c, 0, 74, 0
2, 140401, Note_on_c, 0, 88, 0
2, 140403, Note_on_c, 0, 90, 61
2, 140412, Note_on_c, 0, 62, 46
2, 140458, Note_on_c, 0, 74, 45
2, 140472, Control_c, 0, 64, 127
2, 140492, Note_on_c, 0, 74, 0
2, 140521, Note_on_c, 0, 67, 42
2, 140521, Note_on_c, 0, 76, 42
2, 140548, Control_c, 0, 64, 0
2, 140559, Note_on_c, 0, 74, 48
2, 140574, Note_on_c, 0, 76, 0
2, 140592, Note_on_c, 0, 74, 0
2, 140597, Note_on_c, 0, 90, 0
2, 140598, Note_on_c, 0, 91, 49
2, 140613, Note_on_c, 0, 71, 50
2, 140664, Note_on_c, 0, 79, 42
2, 140693, Note_on_c, 0, 79, 0
2, 140700, Note_on_c, 0, 62, 0
2, 140700, Note_on_c, 0, 71, 0
2, 140705, Note_on_c, 0, 59, 0
2, 140706, Note_on_c, 0, 67, 0
2, 140706, Note_on_c, 0, 58, 42
2, 140714, Note_on_c, 0, 81, 45
2, 140745, Note_on_c, 0, 81, 0
2, 140749, Note_on_c, 0, 79, 44
2, 140783, Note_on_c, 0, 60, 44
2, 140805, Note_on_c, 0, 91, 0
2, 140806, Note_on_c, 0, 79, 0
2, 140811, Note_on_c, 0, 84, 49
2, 140832, Control_c, 0, 64, 127
2, 140856, Note_on_c, 0, 72, 48
2, 140889, Note_on_c, 0, 72, 0
2, 140893, Note_on_c, 0, 64, 44
2, 140909, Note_on_c, 0, 74, 47
2, 140913, Control_c, 0, 64, 0
2, 140959, Note_on_c, 0, 74, 0
2, 140961, Note_on_c, 0, 72, 47
2, 140970, Note_on_c, 0, 67, 51
2, 140996, Note_on_c, 0, 72, 0
2, 140996, Note_on_c, 0, 84, 0
2, 140998, Note_on_c, 0, 86, 41
2, 141064, Note_on_c, 0, 72, 45
2, 141085, Note_on_c, 0, 64, 0
2, 141085, Note_on_c, 0, 60, 0
2, 141085, Note_on_c, 0, 58, 0
2, 141086, Note_on_c, 0, 67, 0
2, 141092, Note_on_c, 0, 57, 53
2, 141094, Note_on_c, 0, 72, 0
2, 141109, Note_on_c, 0, 74, 45
2, 141149, Note_on_c, 0, 74, 0
2, 141150, Note_on_c, 0, 72, 44
2, 141185, Note_on_c, 0, 72, 0
2, 141199, Note_on_c, 0, 60, 41
2, 141215, Note_on_c, 0, 86, 0
2, 141216, Note_on_c, 0, 88, 47
2, 141226, Control_c, 0, 64, 127
2, 141261, Note_on_c, 0, 72, 45
2, 141296, Note_on_c, 0, 72, 0
2, 141307, Note_on_c, 0, 74, 47
2, 141318, Control_c, 0, 64, 0
2, 141327, Note_on_c, 0, 65, 42
2, 141366, Note_on_c, 0, 72, 41
2, 141368, Note_on_c, 0, 74, 0
2, 141403, Note_on_c, 0, 72, 0
2, 141419, Note_on_c, 0, 88, 0
2, 141420, Note_on_c, 0, 89, 46
2, 141431, Note_on_c, 0, 69, 43
2, 141477, Note_on_c, 0, 77, 48
2, 141507, Note_on_c, 0, 77, 0
2, 141527, Note_on_c, 0, 60, 0
2, 141527, Note_on_c, 0, 57, 0
2, 141528, Note_on_c, 0, 69, 0
2, 141528, Note_on_c, 0, 65, 0
2, 141528, Note_on_c, 0, 56, 46
2, 141530, Note_on_c, 0, 79, 48
2, 141575, Note_on_c, 0, 79, 0
2, 141576, Note_on_c, 0, 77, 42
2, 141581, Note_on_c, 0, 89, 0
2, 141610, Note_on_c, 0, 77, 0
2, 141642, Control_c, 0, 64, 127
2, 141642, Note_on_c, 0, 58, 44
2, 141651, Note_on_c, 0, 82, 42
2, 141697, Note_on_c, 0, 70, 46
2, 141728, Note_on_c, 0, 70, 0
2, 141744, Control_c, 0, 64, 0
2, 141747, Note_on_c, 0, 62, 48
2, 141748, Note_on_c, 0, 72, 46
2, 141816, Note_on_c, 0, 72, 0
2, 141816, Note_on_c, 0, 70, 42
2, 141838, Note_on_c, 0, 82, 0
2, 141841, Note_on_c, 0, 84, 43
2, 141846, Note_on_c, 0, 70, 0
2, 141858, Note_on_c, 0, 65, 43
2, 141915, Note_on_c, 0, 70, 46
2, 141945, Note_on_c, 0, 70, 0
2, 141951, Note_on_c, 0, 56, 0
2, 141952, Note_on_c, 0, 62, 0
2, 141952, Note_on_c, 0, 65, 0
2, 141954, Note_on_c, 0, 55, 48
2, 141955, Note_on_c, 0, 58, 0
2, 141959, Note_on_c, 0, 72, 46
2, 142004, Note_on_c, 0, 72, 0
2, 142010, Note_on_c, 0, 70, 43
2, 142041, Note_on_c, 0, 70, 0
2, 142050, Note_on_c, 0, 84, 0
2, 142052, Note_on_c, 0, 86, 49
2, 142063, Note_on_c, 0, 58, 41
2, 142094, Control_c, 0, 64, 127
2, 142115, Note_on_c, 0, 70, 46
2, 142150, Note_on_c, 0, 70, 0
2, 142175, Note_on_c, 0, 63, 48
2, 142175, Note_on_c, 0, 72, 49
2, 142203, Control_c, 0, 64, 0
2, 142213, Note_on_c, 0, 72, 0
2, 142217, Note_on_c, 0, 70, 42
2, 142251, Note_on_c, 0, 70, 0
2, 142267, Note_on_c, 0, 87, 42
2, 142268, Note_on_c, 0, 86, 0
2, 142283, Note_on_c, 0, 67, 43
2, 142344, Note_on_c, 0, 70, 50
2, 142356, Note_on_c, 0, 55, 0
2, 142357, Note_on_c, 0, 67, 0
2, 142357, Note_on_c, 0, 63, 0
2, 142357, Note_on_c, 0, 58, 0
2, 142363, Note_on_c, 0, 54, 47
2, 142372, Note_on_c, 0, 72, 44
2, 142378, Note_on_c, 0, 70, 0
2, 142440, Note_on_c, 0, 72, 0
2, 142443, Note_on_c, 0, 70, 47
2, 142469, Note_on_c, 0, 87, 0
2, 142471, Control_c, 0, 64, 127
2, 142472, Note_on_c, 0, 58, 48
2, 142472, Note_on_c, 0, 75, 55
2, 142477, Note_on_c, 0, 70, 0
2, 142535, Note_on_c, 0, 70, 45
2, 142570, Note_on_c, 0, 70, 0
2, 142581, Note_on_c, 0, 61, 45
2, 142582, Note_on_c, 0, 72, 47
2, 142585, Control_c, 0, 64, 0
2, 142632, Note_on_c, 0, 72, 0
2, 142639, Note_on_c, 0, 70, 49
2, 142670, Note_on_c, 0, 70, 0
2, 142670, Note_on_c, 0, 75, 0
2, 142672, Note_on_c, 0, 64, 46
2, 142672, Note_on_c, 0, 76, 57
2, 142721, Note_on_c, 0, 66, 46
2, 142752, Note_on_c, 0, 66, 0
2, 142772, Note_on_c, 0, 58, 0
2, 142772, Note_on_c, 0, 54, 0
2, 142772, Note_on_c, 0, 61, 0
2, 142772, Note_on_c, 0, 64, 0
2, 142774, Note_on_c, 0, 52, 51
2, 142775, Note_on_c, 0, 68, 49
2, 142821, Note_on_c, 0, 66, 48
2, 142850, Note_on_c, 0, 66, 0
2, 142850, Note_on_c, 0, 68, 0
2, 142869, Note_on_c, 0, 76, 0
2, 142871, Note_on_c, 0, 72, 68
2, 142874, Note_on_c, 0, 54, 49
2, 142916, Control_c, 0, 64, 127
2, 142930, Note_on_c, 0, 66, 46
2, 142961, Note_on_c, 0, 66, 0
2, 142965, Note_on_c, 0, 68, 50
2, 142975, Note_on_c, 0, 58, 49
2, 143005, Control_c, 0, 64, 0
2, 143021, Note_on_c, 0, 68, 0
2, 143028, Note_on_c, 0, 66, 51
2, 143057, Note_on_c, 0, 66, 0
2, 143077, Note_on_c, 0, 72, 0
2, 143081, Note_on_c, 0, 73, 60
2, 143086, Note_on_c, 0, 52, 0
2, 143086, Note_on_c, 0, 58, 0
2, 143086, Note_on_c, 0, 54, 0
2, 143088, Note_on_c, 0, 61, 48
2, 143112, Note_on_c, 0, 64, 48
2, 143147, Note_on_c, 0, 64, 0
2, 143158, Note_on_c, 0, 66, 53
2, 143194, Note_on_c, 0, 49, 52
2, 143199, Note_on_c, 0, 61, 0
2, 143200, Note_on_c, 0, 66, 0
2, 143202, Note_on_c, 0, 64, 53
2, 143236, Note_on_c, 0, 64, 0
2, 143252, Note_on_c, 0, 73, 0
2, 143257, Note_on_c, 0, 69, 62
2, 143267, Note_on_c, 0, 52, 52
2, 143307, Note_on_c, 0, 64, 55
2, 143321, Control_c, 0, 64, 127
2, 143342, Note_on_c, 0, 64, 0
2, 143352, Note_on_c, 0, 66, 53
2, 143378, Note_on_c, 0, 54, 49
2, 143402, Note_on_c, 0, 66, 0
2, 143402, Note_on_c, 0, 64, 55
2, 143408, Control_c, 0, 64, 0
2, 143462, Note_on_c, 0, 64, 0
2, 143462, Note_on_c, 0, 69, 0
2, 143464, Note_on_c, 0, 61, 51
2, 143464, Note_on_c, 0, 70, 55
2, 143471, Note_on_c, 0, 58, 50
2, 143492, Note_on_c, 0, 61, 0
2, 143501, Note_on_c, 0, 60, 61
2, 143537, Note_on_c, 0, 46, 61
2, 143543, Note_on_c, 0, 63, 62
2, 143571, Note_on_c, 0, 63, 0
2, 143606, Note_on_c, 0, 54, 0
2, 143606, Note_on_c, 0, 60, 0
2, 143606, Note_on_c, 0, 58, 0
2, 143606, Note_on_c, 0, 49, 0
2, 143606, Note_on_c, 0, 52, 0
2, 143607, Note_on_c, 0, 61, 67
2, 143642, Note_on_c, 0, 61, 0
2, 143643, Note_on_c, 0, 70, 0
2, 143644, Note_on_c, 0, 64, 67
2, 143649, Note_on_c, 0, 49, 73
2, 143686, Note_on_c, 0, 57, 48
2, 143735, Note_on_c, 0, 59, 62
2, 143741, Note_on_c, 0, 52, 61
2, 143791, Note_on_c, 0, 58, 62
2, 143792, Note_on_c, 0, 59, 0
2, 143797, Note_on_c, 0, 57, 0
2, 143822, Note_on_c, 0, 54, 66
2, 143835, Note_on_c, 0, 49, 0
2, 143835, Note_on_c, 0, 46, 0
2, 143836, Note_on_c, 0, 58, 0
2, 143836, Note_on_c, 0, 64, 0
2, 143836, Note_on_c, 0, 52, 0
2, 143837, Note_on_c, 0, 61, 69
2, 143869, Note_on_c, 0, 53, 51
2, 143894, Control_c, 0, 67, 0
2, 143904, Note_on_c, 0, 53, 0
2, 143908, Note_on_c, 0, 54, 0
2, 143909, Note_on_c, 0, 56, 60
2, 143910, Note_on_c, 0, 40, 59
2, 143940, Control_c, 0, 64, 127
2, 143945, Note_on_c, 0, 56, 0
2, 143955, Note_on_c, 0, 42, 59
2, 143964, Note_on_c, 0, 54, 63
2, 144011, Note_on_c, 0, 61, 0
2, 144013, Note_on_c, 0, 58, 68
2, 144020, Note_on_c, 0, 46, 69
2, 144038, Control_c, 0, 64, 0
2, 144063, Note_on_c, 0, 48, 68
2, 144065, Note_on_c, 0, 54, 0
2, 144131, Note_on_c, 0, 51, 67
2, 144161, Note_on_c, 0, 51, 0
2, 144172, Note_on_c, 0, 49, 68
2, 144208, Note_on_c, 0, 58, 0
2, 144210, Note_on_c, 0, 52, 68
2, 144231, Note_on_c, 0, 42, 0
2, 144231, Note_on_c, 0, 48, 0
2, 144233, Note_on_c, 0, 45, 68
2, 144235, Note_on_c, 0, 46, 0
2, 144235, Note_on_c, 0, 40, 0
2, 144244, Note_on_c, 0, 52, 0
2, 144289, Note_on_c, 0, 49, 0
2, 144293, Note_on_c, 0, 47, 66
2, 144322, Control_c, 0, 64, 127
2, 144343, Note_on_c, 0, 46, 71
2, 144345, Note_on_c, 0, 45, 0
2, 144382, Note_on_c, 0, 46, 0
2, 144388, Note_on_c, 0, 49, 71
2, 144399, Note_on_c, 0, 47, 0
2, 144445, Note_on_c, 0, 49, 0
2, 144456, Note_on_c, 0, 41, 67
2, 144500, Note_on_c, 0, 44, 67
2, 144553, Note_on_c, 0, 42, 70
2, 144558, Note_on_c, 0, 41, 0
2, 144597, Note_on_c, 0, 42, 0
2, 144613, Note_on_c, 0, 44, 0
2, 144617, Note_on_c, 0, 46, 70
2, 144631, Note_on_c, 0, 36, 68
2, 144660, Note_on_c, 0, 46, 0
2, 144675, Control_c, 0, 64, 0
2, 144692, Note_on_c, 0, 39, 72
2, 144751, Note_on_c, 0, 36, 0
2, 144753, Note_on_c, 0, 37, 71
2, 144785, Note_on_c, 0, 37, 0
2, 144793, Note_on_c, 0, 39, 0
2, 144798, Note_on_c, 0, 40, 70
2, 144837, Note_on_c, 0, 33, 73
2, 144843, Note_on_c, 0, 40, 0
2, 144900, Note_on_c, 0, 35, 66
2, 144943, Note_on_c, 0, 33, 0
2, 144945, Note_on_c, 0, 34, 68
2, 144976, Note_on_c, 0, 34, 0
2, 145007, Note_on_c, 0, 35, 0
2, 145008, Note_on_c, 0, 37, 69
2, 145033, Note_on_c, 0, 29, 72
2, 145039, Note_on_c, 0, 37, 0
2, 145080, Note_on_c, 0, 31, 72
2, 145086, Note_on_c, 0, 29, 0
2, 145136, Note_on_c, 0, 29, 70
2, 145157, Control_c, 0, 64, 127
2, 145196, Note_on_c, 0, 31, 0
2, 145197, Note_on_c, 0, 29, 0
2, 145203, Note_on_c, 0, 30, 68
2, 145249, Note_on_c, 0, 29, 72
2, 145301, Note_on_c, 0, 30, 0
2, 145302, Note_on_c, 0, 31, 77
2, 145313, Note_on_c, 0, 29, 0
2, 145354, Note_on_c, 0, 29, 69
2, 145394, Note_on_c, 0, 30, 81
2, 145396, Note_on_c, 0, 31, 0
2, 145401, Note_on_c, 0, 29, 0
2, 145450, Note_on_c, 0, 29, 75
2, 145510, Note_on_c, 0, 30, 0
2, 145516, Note_on_c, 0, 29, 0
2, 145518, Note_on_c, 0, 31, 66
2, 145566, Note_on_c, 0, 29, 64
2, 145626, Note_on_c, 0, 31, 0
2, 145631, Note_on_c, 0, 30, 64
2, 145644, Note_on_c, 0, 29, 0
2, 145694, Note_on_c, 0, 29, 61
2, 145746, Note_on_c, 0, 30, 0
2, 145746, Note_on_c, 0, 31, 52
2, 145776, Note_on_c, 0, 29, 0
2, 145821, Note_on_c, 0, 29, 50
2, 145841, Control_c, 0, 64, 0
2, 145877, Note_on_c, 0, 30, 53
2, 145878, Note_on_c, 0, 31, 0
2, 145903, Note_on_c, 0, 29, 0
2, 145951, Note_on_c, 0, 29, 48
2, 146005, Note_on_c, 0, 31, 46
2, 146016, Note_on_c, 0, 30, 0
2, 146024, Note_on_c, 0, 29, 0
2, 146068, Note_on_c, 0, 29, 47
2, 146135, Note_on_c, 0, 29, 0
2, 146138, Note_on_c, 0, 31, 0
2, 146143, Note_on_c, 0, 30, 47
2, 146417, Control_c, 0, 64, 127
2, 146804, Control_c, 0, 64, 0
2, 147134, Note_on_c, 0, 30, 0
2, 147135, Note_on_c, 0, 33, 60
2, 147378, Control_c, 0, 64, 127
2, 147416, Note_on_c, 0, 34, 61
2, 147467, Note_on_c, 0, 33, 0
2, 147610, Note_on_c, 0, 36, 61
2, 147645, Note_on_c, 0, 34, 0
2, 147759, Control_c, 0, 64, 0
2, 147784, Note_on_c, 0, 37, 70
2, 147802, Note_on_c, 0, 36, 0
2, 147936, Note_on_c, 0, 37, 0
2, 147937, Note_on_c, 0, 36, 64
2, 148133, Note_on_c, 0, 36, 0
2, 148142, Note_on_c, 0, 39, 62
2, 148163, Control_c, 0, 64, 127
2, 148282, Control_c, 0, 64, 0
2, 148360, Note_on_c, 0, 39, 0
2, 148362, Note_on_c, 0, 37, 66
2, 148567, Note_on_c, 0, 37, 0
2, 148569, Note_on_c, 0, 36, 57
2, 148687, Control_c, 0, 67, 127
2, 148692, Control_c, 0, 64, 127
2, 148810, Control_c, 0, 64, 0
2, 148830, Note_on_c, 0, 36, 0
2, 148834, Note_on_c, 0, 34, 59
2, 149109, Note_on_c, 0, 34, 0
2, 149110, Note_on_c, 0, 32, 54
2, 149163, Note_on_c, 0, 49, 61
2, 149168, Note_on_c, 0, 58, 63
2, 149168, Note_on_c, 0, 61, 59
2, 149197, Control_c, 0, 64, 127
2, 149401, Note_on_c, 0, 32, 0
2, 149405, Note_on_c, 0, 30, 49
2, 149620, Note_on_c, 0, 30, 0
2, 149626, Note_on_c, 0, 28, 42
2, 149627, Control_c, 0, 64, 0
2, 149934, Note_on_c, 0, 28, 0
2, 149938, Note_on_c, 0, 29, 65
2, 150252, Note_on_c, 0, 49, 0
2, 150311, Note_on_c, 0, 48, 42
2, 150392, Control_c, 0, 64, 127
2, 150420, Note_on_c, 0, 49, 45
2, 150517, Note_on_c, 0, 53, 47
2, 150619, Note_on_c, 0, 54, 45
2, 150662, Note_on_c, 0, 53, 0
2, 150700, Note_on_c, 0, 49, 0
2, 150700, Note_on_c, 0, 48, 0
2, 150700, Note_on_c, 0, 54, 0
2, 150702, Note_on_c, 0, 53, 45
2, 150790, Note_on_c, 0, 54, 46
2, 150860, Note_on_c, 0, 57, 47
2, 150881, Note_on_c, 0, 58, 0
2, 150902, Note_on_c, 0, 29, 0
2, 150904, Note_on_c, 0, 61, 0
2, 150927, Note_on_c, 0, 58, 42
2, 150955, Control_c, 0, 64, 0
2, 151007, Note_on_c, 0, 60, 48
2, 151081, Note_on_c, 0, 61, 42
2, 151154, Note_on_c, 0, 65, 42
2, 151226, Note_on_c, 0, 66, 46
2, 151275, Note_on_c, 0, 69, 48
2, 151333, Note_on_c, 0, 70, 46
2, 151378, Note_on_c, 0, 72, 42
2, 151409, Note_on_c, 0, 70, 0
2, 151415, Note_on_c, 0, 61, 0
2, 151415, Note_on_c, 0, 60, 0
2, 151416, Note_on_c, 0, 58, 0
2, 151416, Note_on_c, 0, 69, 0
2, 151416, Note_on_c, 0, 66, 0
2, 151416, Note_on_c, 0, 72, 0
2, 151419, Note_on_c, 0, 54, 0
2, 151419, Note_on_c, 0, 57, 0
2, 151419, Note_on_c, 0, 53, 0
2, 151420, Note_on_c, 0, 65, 0
2, 151422, Note_on_c, 0, 73, 53
2, 152076, Note_on_c, 0, 65, 53
2, 152077, Note_on_c, 0, 73, 0
2, 152180, Note_on_c, 0, 66, 55
2, 152263, Note_on_c, 0, 69, 53
2, 152287, Control_c, 0, 64, 127
2, 152339, Note_on_c, 0, 70, 59
2, 152382, Note_on_c, 0, 72, 53
2, 152436, Note_on_c, 0, 73, 60
2, 152469, Note_on_c, 0, 77, 53
2, 152502, Note_on_c, 0, 69, 0
2, 152507, Note_on_c, 0, 77, 0
2, 152511, Note_on_c, 0, 66, 0
2, 152511, Note_on_c, 0, 70, 0
2, 152511, Note_on_c, 0, 65, 0
2, 152511, Note_on_c, 0, 73, 0
2, 152511, Note_on_c, 0, 72, 0
2, 152512, Note_on_c, 0, 78, 59
2, 152540, Note_on_c, 0, 69, 58
2, 152544, Note_on_c, 0, 78, 0
2, 152587, Note_on_c, 0, 70, 44
2, 152624, Note_on_c, 0, 72, 43
2, 152668, Note_on_c, 0, 73, 43
2, 152696, Note_on_c, 0, 77, 41
2, 152746, Note_on_c, 0, 78, 47
2, 152780, Note_on_c, 0, 81, 48
2, 152786, Note_on_c, 0, 72, 0
2, 152809, Note_on_c, 0, 77, 0
2, 152809, Note_on_c, 0, 70, 0
2, 152809, Note_on_c, 0, 73, 0
2, 152809, Note_on_c, 0, 69, 0
2, 152809, Note_on_c, 0, 78, 0
2, 152810, Note_on_c, 0, 81, 0
2, 152816, Note_on_c, 0, 82, 58
2, 152832, Note_on_c, 0, 72, 54
2, 152842, Note_on_c, 0, 82, 0
2, 152856, Note_on_c, 0, 73, 44
2, 152894, Note_on_c, 0, 77, 48
2, 152942, Note_on_c, 0, 78, 46
2, 152980, Note_on_c, 0, 81, 43
2, 153020, Note_on_c, 0, 82, 47
2, 153048, Note_on_c, 0, 84, 47
2, 153062, Note_on_c, 0, 77, 0
2, 153077, Note_on_c, 0, 85, 47
2, 153097, Note_on_c, 0, 78, 0
2, 153101, Note_on_c, 0, 73, 0
2, 153106, Note_on_c, 0, 72, 0
2, 153107, Note_on_c, 0, 77, 48
2, 153122, Note_on_c, 0, 81, 0
2, 153144, Note_on_c, 0, 78, 47
2, 153158, Note_on_c, 0, 82, 0
2, 153168, Note_on_c, 0, 81, 41
2, 153182, Note_on_c, 0, 84, 0
2, 153205, Note_on_c, 0, 82, 43
2, 153219, Note_on_c, 0, 85, 0
2, 153234, Note_on_c, 0, 84, 41
2, 153267, Note_on_c, 0, 85, 42
2, 153312, Note_on_c, 0, 89, 48
2, 153326, Note_on_c, 0, 81, 0
2, 153350, Note_on_c, 0, 90, 41
2, 153363, Note_on_c, 0, 82, 0
2, 153372, Note_on_c, 0, 78, 0
2, 153376, Note_on_c, 0, 77, 0
2, 153378, Note_on_c, 0, 81, 41
2, 153392, Note_on_c, 0, 84, 0
2, 153415, Note_on_c, 0, 82, 53
2, 153436, Note_on_c, 0, 85, 0
2, 153438, Note_on_c, 0, 84, 43
2, 153459, Note_on_c, 0, 89, 0
2, 153479, Note_on_c, 0, 85, 48
2, 153503, Note_on_c, 0, 89, 41
2, 153518, Note_on_c, 0, 90, 0
2, 153566, Note_on_c, 0, 90, 43
2, 153581, Note_on_c, 0, 93, 41
2, 153597, Note_on_c, 0, 84, 0
2, 153625, Note_on_c, 0, 85, 0
2, 153631, Note_on_c, 0, 94, 44
2, 153651, Note_on_c, 0, 82, 0
2, 153651, Note_on_c, 0, 81, 0
2, 153658, Note_on_c, 0, 84, 54
2, 153659, Note_on_c, 0, 89, 0
2, 153683, Note_on_c, 0, 85, 51
2, 153714, Note_on_c, 0, 90, 0
2, 153720, Note_on_c, 0, 89, 42
2, 153733, Note_on_c, 0, 23, 43
2, 153743, Note_on_c, 0, 93, 0
2, 153771, Note_on_c, 0, 23, 0
2, 153776, Note_on_c, 0, 90, 48
2, 153788, Note_on_c, 0, 94, 0
2, 153803, Note_on_c, 0, 93, 41
2, 153848, Note_on_c, 0, 94, 48
2, 153891, Note_on_c, 0, 96, 48
2, 153907, Control_c, 0, 64, 0
2, 153923, Note_on_c, 0, 89, 0
2, 153932, Note_on_c, 0, 97, 46
2, 153971, Note_on_c, 0, 90, 0
2, 153984, Note_on_c, 0, 84, 0
2, 153984, Note_on_c, 0, 85, 0
2, 153985, Note_on_c, 0, 89, 41
2, 154009, Note_on_c, 0, 93, 0
2, 154035, Note_on_c, 0, 90, 44
2, 154066, Note_on_c, 0, 94, 0
2, 154068, Note_on_c, 0, 93, 42
2, 154127, Note_on_c, 0, 94, 42
2, 154128, Note_on_c, 0, 96, 0
2, 154187, Note_on_c, 0, 96, 47
2, 154191, Note_on_c, 0, 97, 0
2, 154250, Note_on_c, 0, 97, 43
2, 154318, Note_on_c, 0, 101, 43
2, 154380, Note_on_c, 0, 102, 48
2, 154398, Note_on_c, 0, 93, 0
2, 154400, Note_on_c, 0, 97, 0
2, 154402, Note_on_c, 0, 94, 0
2, 154402, Note_on_c, 0, 89, 0
2, 154402, Note_on_c, 0, 96, 0
2, 154403, Note_on_c, 0, 90, 0
2, 154405, Note_on_c, 0, 98, 44
2, 154444, Note_on_c, 0, 98, 0
2, 154453, Note_on_c, 0, 101, 0
2, 154453, Note_on_c, 0, 102, 0
2, 154464, Note_on_c, 0, 99, 48
2, 154488, Note_on_c, 0, 96, 43
2, 154499, Note_on_c, 0, 99, 0
2, 154518, Note_on_c, 0, 96, 0
2, 154543, Note_on_c, 0, 97, 41
2, 154575, Note_on_c, 0, 93, 47
2, 154583, Note_on_c, 0, 97, 0
2, 154615, Note_on_c, 0, 93, 0
2, 154626, Note_on_c, 0, 94, 46
2, 154664, Note_on_c, 0, 89, 48
2, 154667, Note_on_c, 0, 94, 0
2, 154719, Note_on_c, 0, 89, 0
2, 154728, Note_on_c, 0, 90, 44
2, 154769, Note_on_c, 0, 90, 0
2, 154775, Note_on_c, 0, 86, 45
2, 154812, Note_on_c, 0, 87, 42
2, 154815, Note_on_c, 0, 86, 0
2, 154847, Note_on_c, 0, 84, 48
2, 154861, Note_on_c, 0, 87, 0
2, 154886, Note_on_c, 0, 84, 0
2, 154901, Note_on_c, 0, 85, 43
2, 154924, Note_on_c, 0, 81, 48
2, 154947, Note_on_c, 0, 85, 0
2, 154981, Note_on_c, 0, 82, 47
2, 154986, Note_on_c, 0, 81, 0
2, 155028, Note_on_c, 0, 77, 46
2, 155034, Note_on_c, 0, 82, 0
2, 155067, Note_on_c, 0, 77, 0
2, 155075, Note_on_c, 0, 78, 44
2, 155109, Note_on_c, 0, 74, 48
2, 155113, Note_on_c, 0, 78, 0
2, 155153, Note_on_c, 0, 74, 0
2, 155167, Note_on_c, 0, 75, 42
2, 155191, Note_on_c, 0, 72, 43
2, 155206, Note_on_c, 0, 75, 0
2, 155242, Note_on_c, 0, 72, 0
2, 155245, Note_on_c, 0, 73, 42
2, 155281, Note_on_c, 0, 69, 43
2, 155287, Note_on_c, 0, 73, 0
2, 155328, Note_on_c, 0, 69, 0
2, 155331, Note_on_c, 0, 70, 45
2, 155364, Note_on_c, 0, 65, 47
2, 155382, Note_on_c, 0, 70, 0
2, 155421, Note_on_c, 0, 65, 0
2, 155424, Note_on_c, 0, 66, 48
2, 155457, Note_on_c, 0, 62, 44
2, 155476, Note_on_c, 0, 66, 0
2, 155509, Note_on_c, 0, 62, 0
2, 155518, Note_on_c, 0, 63, 42
2, 155550, Note_on_c, 0, 60, 43
2, 155565, Note_on_c, 0, 63, 0
2, 155616, Note_on_c, 0, 61, 57
2, 155741, Note_on_c, 0, 60, 0
2, 155745, Note_on_c, 0, 57, 56
2, 155913, Note_on_c, 0, 57, 0
2, 155919, Note_on_c, 0, 58, 63
2, 155933, Note_on_c, 0, 61, 0
2, 155991, Control_c, 0, 64, 127
2, 156088, Note_on_c, 0, 58, 0
2, 156091, Note_on_c, 0, 61, 70
2, 156328, Note_on_c, 0, 61, 0
2, 156332, Note_on_c, 0, 65, 67
2, 156466, Control_c, 0, 64, 0
2, 156756, Note_on_c, 0, 68, 70
2, 156831, Note_on_c, 0, 65, 0
2, 156959, Control_c, 0, 64, 127
2, 157432, Control_c, 0, 64, 0
2, 157626, Note_on_c, 0, 66, 66
2, 157656, Control_c, 0, 67, 0
2, 157704, Note_on_c, 0, 68, 0
2, 158082, Note_on_c, 0, 66, 0
2, 158086, Note_on_c, 0, 65, 62
2, 158105, Control_c, 0, 64, 127
2, 158246, Control_c, 0, 64, 0
2, 158378, Note_on_c, 0, 65, 0
2, 158382, Note_on_c, 0, 64, 72
2, 158658, Note_on_c, 0, 64, 0
2, 158662, Note_on_c, 0, 65, 72
2, 159004, Note_on_c, 0, 62, 72
2, 159008, Note_on_c, 0, 41, 73
2, 159008, Note_on_c, 0, 47, 74
2, 159008, Note_on_c, 0, 56, 74
2, 159009, Note_on_c, 0, 50, 73
2, 159009, Note_on_c, 0, 53, 76
2, 159180, Note_on_c, 0, 50, 0
2, 159180, Note_on_c, 0, 47, 0
2, 159180, Note_on_c, 0, 41, 0
2, 159180, Note_on_c, 0, 56, 0
2, 159181, Note_on_c, 0, 62, 0
2, 159181, Note_on_c, 0, 53, 0
2, 159722, Control_c, 0, 67, 127
2, 160129, Note_on_c, 0, 65, 0
2, 160140, Note_on_c, 0, 64, 63
2, 160482, Note_on_c, 0, 64, 0
2, 160489, Note_on_c, 0, 65, 64
2, 160865, Note_on_c, 0, 53, 58
2, 160866, Note_on_c, 0, 48, 58
2, 160866, Note_on_c, 0, 51, 58
2, 160870, Note_on_c, 0, 41, 55
2, 160872, Note_on_c, 0, 60, 60
2, 160878, Note_on_c, 0, 57, 60
2, 160887, Control_c, 0, 64, 127
2, 160946, Note_on_c, 0, 41, 0
2, 160971, Note_on_c, 0, 48, 0
2, 160971, Note_on_c, 0, 53, 0
2, 160976, Note_on_c, 0, 51, 0
2, 161009, Note_on_c, 0, 57, 0
2, 161026, Control_c, 0, 64, 0
2, 161056, Note_on_c, 0, 60, 0
2, 161916, Note_on_c, 0, 65, 0
2, 161930, Note_on_c, 0, 64, 66
2, 162192, Note_on_c, 0, 65, 57
2, 162257, Note_on_c, 0, 64, 0
2, 162659, Note_on_c, 0, 65, 0
2, 162667, Note_on_c, 0, 64, 60
2, 162972, Note_on_c, 0, 65, 48
2, 163017, Note_on_c, 0, 64, 0
2, 163165, Note_on_c, 0, 65, 0
2, 163173, Note_on_c, 0, 64, 53
2, 163219, Control_c, 0, 64, 127
2, 163283, Control_c, 0, 64, 0
2, 163342, Note_on_c, 0, 65, 51
2, 163364, Note_on_c, 0, 64, 0
2, 163484, Note_on_c, 0, 64, 50
2, 163507, Note_on_c, 0, 65, 0
2, 163623, Note_on_c, 0, 64, 0
2, 163631, Note_on_c, 0, 65, 57
2, 163640, Control_c, 0, 64, 127
2, 163733, Control_c, 0, 64, 0
2, 163793, Note_on_c, 0, 64, 59
2, 163811, Note_on_c, 0, 65, 0
2, 163911, Note_on_c, 0, 65, 48
2, 163939, Note_on_c, 0, 64, 0
2, 164030, Note_on_c, 0, 65, 0
2, 164038, Note_on_c, 0, 64, 60
2, 164165, Note_on_c, 0, 65, 42
2, 164194, Note_on_c, 0, 64, 0
2, 164272, Note_on_c, 0, 64, 46
2, 164290, Note_on_c, 0, 65, 0
2, 164376, Note_on_c, 0, 64, 0
2, 164380, Note_on_c, 0, 65, 47
2, 164468, Note_on_c, 0, 65, 0
2, 164473, Note_on_c, 0, 64, 49
2, 164561, Note_on_c, 0, 64, 0
2, 164565, Note_on_c, 0, 65, 47
2, 164642, Note_on_c, 0, 65, 0
2, 164646, Note_on_c, 0, 64, 47
2, 164731, Note_on_c, 0, 64, 0
2, 164734, Note_on_c, 0, 65, 45
2, 164812, Note_on_c, 0, 65, 0
2, 164818, Note_on_c, 0, 64, 46
2, 164910, Note_on_c, 0, 64, 0
2, 164914, Note_on_c, 0, 65, 44
2, 164989, Note_on_c, 0, 65, 0
2, 164992, Note_on_c, 0, 64, 48
2, 165080, Note_on_c, 0, 64, 0
2, 165084, Note_on_c, 0, 65, 47
2, 165167, Note_on_c, 0, 65, 0
2, 165169, Note_on_c, 0, 64, 45
2, 165170, Note_on_c, 0, 76, 45
2, 165261, Note_on_c, 0, 64, 0
2, 165262, Note_on_c, 0, 76, 0
2, 165263, Note_on_c, 0, 65, 43
2, 165266, Control_c, 0, 64, 127
2, 165267, Note_on_c, 0, 77, 48
2, 165341, Note_on_c, 0, 77, 0
2, 165350, Note_on_c, 0, 76, 53
2, 165354, Note_on_c, 0, 65, 0
2, 165358, Note_on_c, 0, 64, 46
2, 165431, Note_on_c, 0, 76, 0
2, 165434, Note_on_c, 0, 64, 0
2, 165437, Note_on_c, 0, 77, 49
2, 165442, Note_on_c, 0, 65, 49
2, 165462, Control_c, 0, 64, 0
2, 165509, Note_on_c, 0, 77, 0
2, 165513, Note_on_c, 0, 76, 44
2, 165519, Note_on_c, 0, 65, 0
2, 165522, Note_on_c, 0, 64, 47
2, 165596, Note_on_c, 0, 64, 0
2, 165599, Note_on_c, 0, 65, 44
2, 165607, Note_on_c, 0, 76, 0
2, 165608, Note_on_c, 0, 77, 47
2, 165680, Note_on_c, 0, 77, 0
2, 165684, Note_on_c, 0, 65, 0
2, 165684, Note_on_c, 0, 74, 50
2, 165685, Note_on_c, 0, 62, 47
2, 165771, Note_on_c, 0, 75, 50
2, 165784, Note_on_c, 0, 63, 48
2, 165833, Control_c, 0, 64, 127
2, 165859, Note_on_c, 0, 64, 43
2, 165860, Note_on_c, 0, 76, 43
2, 165932, Control_c, 0, 64, 0
2, 165936, Note_on_c, 0, 62, 0
2, 165936, Note_on_c, 0, 65, 50
2, 165937, Note_on_c, 0, 64, 0
2, 165937, Note_on_c, 0, 63, 0
2, 165941, Note_on_c, 0, 75, 0
2, 165942, Note_on_c, 0, 76, 0
2, 165946, Note_on_c, 0, 74, 0
2, 165949, Note_on_c, 0, 77, 44
2, 166006, Note_on_c, 0, 77, 0
2, 166008, Note_on_c, 0, 74, 46
2, 166011, Note_on_c, 0, 65, 0
2, 166012, Note_on_c, 0, 62, 50
2, 166104, Note_on_c, 0, 63, 47
2, 166108, Note_on_c, 0, 75, 51
2, 166169, Note_on_c, 0, 64, 45
2, 166183, Note_on_c, 0, 76, 44
2, 166269, Note_on_c, 0, 62, 0
2, 166270, Note_on_c, 0, 64, 0
2, 166270, Note_on_c, 0, 63, 0
2, 166272, Note_on_c, 0, 65, 48
2, 166278, Note_on_c, 0, 75, 0
2, 166279, Note_on_c, 0, 74, 0
2, 166279, Note_on_c, 0, 76, 0
2, 166280, Note_on_c, 0, 77, 48
2, 166317, Note_on_c, 0, 77, 0
2, 166344, Note_on_c, 0, 65, 0
2, 166348, Note_on_c, 0, 60, 47
2, 166367, Note_on_c, 0, 72, 44
2, 166448, Note_on_c, 0, 73, 44
2, 166453, Note_on_c, 0, 61, 42
2, 166526, Note_on_c, 0, 64, 48
2, 166536, Note_on_c, 0, 76, 42
2, 166622, Note_on_c, 0, 60, 0
2, 166623, Note_on_c, 0, 64, 0
2, 166623, Note_on_c, 0, 61, 0
2, 166623, Note_on_c, 0, 72, 0
2, 166623, Note_on_c, 0, 73, 0
2, 166624, Note_on_c, 0, 76, 0
2, 166627, Note_on_c, 0, 65, 46
2, 166627, Note_on_c, 0, 77, 47
2, 166672, Note_on_c, 0, 65, 0
2, 166719, Note_on_c, 0, 77, 0
2, 166722, Note_on_c, 0, 65, 47
2, 166722, Note_on_c, 0, 73, 49
2, 166726, Note_on_c, 0, 61, 47
2, 166789, Note_on_c, 0, 74, 48
2, 166812, Note_on_c, 0, 62, 48
2, 166908, Note_on_c, 0, 62, 0
2, 166908, Note_on_c, 0, 65, 0
2, 166908, Note_on_c, 0, 61, 0
2, 166908, Note_on_c, 0, 73, 0
2, 166909, Note_on_c, 0, 74, 0
2, 166909, Note_on_c, 0, 63, 47
2, 166910, Note_on_c, 0, 60, 48
2, 166910, Note_on_c, 0, 75, 58
2, 166911, Note_on_c, 0, 67, 60
2, 166911, Note_on_c, 0, 72, 56
2, 166948, Control_c, 0, 64, 127
2, 167006, Note_on_c, 0, 65, 42
2, 167007, Note_on_c, 0, 77, 47
2, 167058, Note_on_c, 0, 60, 0
2, 167059, Note_on_c, 0, 72, 0
2, 167059, Note_on_c, 0, 63, 0
2, 167059, Note_on_c, 0, 75, 0
2, 167105, Control_c, 0, 64, 0
2, 167106, Note_on_c, 0, 77, 0
2, 167109, Note_on_c, 0, 69, 54
2, 167110, Note_on_c, 0, 63, 54
2, 167110, Note_on_c, 0, 72, 58
2, 167112, Note_on_c, 0, 60, 50
2, 167113, Note_on_c, 0, 75, 57
2, 167154, Note_on_c, 0, 65, 0
2, 167154, Note_on_c, 0, 67, 0
2, 167203, Note_on_c, 0, 65, 42
2, 167208, Note_on_c, 0, 77, 43
2, 167226, Note_on_c, 0, 69, 0
2, 167249, Note_on_c, 0, 69, 41
2, 167267, Note_on_c, 0, 75, 0
2, 167267, Note_on_c, 0, 63, 0
2, 167267, Note_on_c, 0, 72, 0
2, 167267, Note_on_c, 0, 60, 0
2, 167268, Note_on_c, 0, 65, 0
2, 167308, Note_on_c, 0, 65, 54
2, 167311, Note_on_c, 0, 69, 0
2, 167311, Note_on_c, 0, 77, 0
2, 167312, Note_on_c, 0, 60, 45
2, 167312, Note_on_c, 0, 80, 51
2, 167313, Note_on_c, 0, 63, 41
2, 167313, Note_on_c, 0, 72, 53
2, 167313, Note_on_c, 0, 75, 54
2, 167314, Note_on_c, 0, 68, 52
2, 167386, Note_on_c, 0, 80, 0
2, 167392, Note_on_c, 0, 68, 0
2, 167393, Note_on_c, 0, 81, 41
2, 167394, Note_on_c, 0, 69, 48
2, 167453, Note_on_c, 0, 72, 0
2, 167453, Note_on_c, 0, 63, 0
2, 167453, Note_on_c, 0, 75, 0
2, 167497, Note_on_c, 0, 81, 0
2, 167498, Note_on_c, 0, 69, 0
2, 167498, Note_on_c, 0, 65, 0
2, 167499, Note_on_c, 0, 72, 66
2, 167499, Note_on_c, 0, 75, 64
2, 167500, Note_on_c, 0, 63, 42
2, 167500, Note_on_c, 0, 67, 60
2, 167592, Note_on_c, 0, 65, 44
2, 167593, Note_on_c, 0, 63, 0
2, 167593, Note_on_c, 0, 75, 0
2, 167593, Note_on_c, 0, 60, 0
2, 167593, Note_on_c, 0, 72, 0
2, 167597, Note_on_c, 0, 77, 46
2, 167680, Note_on_c, 0, 77, 0
2, 167680, Note_on_c, 0, 65, 0
2, 167683, Note_on_c, 0, 62, 56
2, 167686, Note_on_c, 0, 67, 0
2, 167687, Note_on_c, 0, 69, 57
2, 167687, Note_on_c, 0, 76, 57
2, 167688, Note_on_c, 0, 64, 61
2, 167688, Note_on_c, 0, 74, 58
2, 167716, Control_c, 0, 64, 127
2, 167779, Note_on_c, 0, 64, 0
2, 167779, Note_on_c, 0, 76, 0
2, 167782, Note_on_c, 0, 65, 45
2, 167784, Note_on_c, 0, 74, 0
2, 167785, Note_on_c, 0, 77, 42
2, 167788, Note_on_c, 0, 62, 0
2, 167831, Control_c, 0, 64, 0
2, 167868, Note_on_c, 0, 77, 0
2, 167869, Note_on_c, 0, 65, 0
2, 167872, Note_on_c, 0, 64, 47
2, 167872, Note_on_c, 0, 70, 58
2, 167872, Note_on_c, 0, 76, 54
2, 167876, Note_on_c, 0, 62, 51
2, 167877, Note_on_c, 0, 74, 54
2, 167922, Note_on_c, 0, 69, 0
2, 167946, Note_on_c, 0, 76, 0
2, 167950, Note_on_c, 0, 62, 0
2, 167951, Note_on_c, 0, 64, 0
2, 167951, Note_on_c, 0, 74, 0
2, 167953, Note_on_c, 0, 65, 46
2, 167953, Note_on_c, 0, 77, 48
2, 168006, Note_on_c, 0, 65, 0
2, 168052, Note_on_c, 0, 70, 0
2, 168053, Note_on_c, 0, 77, 0
2, 168053, Note_on_c, 0, 62, 47
2, 168054, Note_on_c, 0, 57, 54
2, 168054, Note_on_c, 0, 65, 48
2, 168055, Note_on_c, 0, 69, 48
2, 168055, Note_on_c, 0, 74, 54
2, 168143, Note_on_c, 0, 58, 45
2, 168144, Note_on_c, 0, 69, 0
2, 168144, Note_on_c, 0, 57, 0
2, 168145, Note_on_c, 0, 74, 0
2, 168146, Note_on_c, 0, 70, 45
2, 168178, Note_on_c, 0, 70, 0
2, 168178, Note_on_c, 0, 58, 0
2, 168224, Note_on_c, 0, 62, 0
2, 168225, Note_on_c, 0, 65, 0
2, 168229, Note_on_c, 0, 67, 53
2, 168229, Note_on_c, 0, 73, 57
2, 168233, Note_on_c, 0, 58, 57
2, 168233, Note_on_c, 0, 61, 58
2, 168233, Note_on_c, 0, 70, 54
2, 168304, Control_c, 0, 64, 127
2, 168319, Note_on_c, 0, 61, 0
2, 168319, Note_on_c, 0, 58, 0
2, 168320, Note_on_c, 0, 73, 0
2, 168323, Note_on_c, 0, 62, 41
2, 168323, Note_on_c, 0, 74, 43
2, 168387, Note_on_c, 0, 62, 0
2, 168388, Note_on_c, 0, 74, 0
2, 168437, Note_on_c, 0, 70, 0
2, 168437, Note_on_c, 0, 60, 58
2, 168438, Note_on_c, 0, 57, 60
2, 168438, Note_on_c, 0, 62, 61
2, 168439, Note_on_c, 0, 69, 62
2, 168439, Note_on_c, 0, 74, 67
2, 168443, Control_c, 0, 64, 0
2, 168493, Note_on_c, 0, 67, 0
2, 168539, Note_on_c, 0, 62, 0
2, 168540, Note_on_c, 0, 69, 0
2, 168540, Note_on_c, 0, 57, 0
2, 168546, Note_on_c, 0, 74, 0
2, 168547, Note_on_c, 0, 63, 45
2, 168547, Note_on_c, 0, 75, 50
2, 168578, Note_on_c, 0, 60, 0
2, 168642, Note_on_c, 0, 75, 0
2, 168642, Note_on_c, 0, 63, 0
2, 168645, Note_on_c, 0, 57, 46
2, 168645, Note_on_c, 0, 59, 50
2, 168645, Note_on_c, 0, 69, 55
2, 168645, Note_on_c, 0, 71, 56
2, 168646, Note_on_c, 0, 67, 53
2, 168682, Control_c, 0, 64, 127
2, 168737, Note_on_c, 0, 71, 0
2, 168737, Note_on_c, 0, 57, 0
2, 168738, Note_on_c, 0, 59, 0
2, 168738, Note_on_c, 0, 69, 0
2, 168738, Note_on_c, 0, 60, 50
2, 168741, Note_on_c, 0, 72, 49
2, 168771, Note_on_c, 0, 60, 0
2, 168789, Control_c, 0, 64, 0
2, 168819, Note_on_c, 0, 60, 57
2, 168820, Note_on_c, 0, 62, 61
2, 168823, Note_on_c, 0, 72, 0
2, 168823, Note_on_c, 0, 67, 0
2, 168824, Note_on_c, 0, 56, 62
2, 168825, Note_on_c, 0, 69, 63
2, 168825, Note_on_c, 0, 74, 62
2, 168926, Note_on_c, 0, 56, 0
2, 168926, Note_on_c, 0, 62, 0
2, 168927, Note_on_c, 0, 74, 0
2, 168927, Note_on_c, 0, 69, 0
2, 168930, Note_on_c, 0, 63, 49
2, 168930, Note_on_c, 0, 75, 49
2, 168962, Note_on_c, 0, 75, 0
2, 168963, Note_on_c, 0, 63, 0
2, 169022, Note_on_c, 0, 69, 53
2, 169025, Note_on_c, 0, 60, 0
2, 169028, Note_on_c, 0, 71, 53
2, 169029, Note_on_c, 0, 57, 53
2, 169029, Note_on_c, 0, 59, 59
2, 169029, Note_on_c, 0, 67, 49
2, 169115, Note_on_c, 0, 57, 0
2, 169115, Note_on_c, 0, 71, 0
2, 169116, Note_on_c, 0, 69, 0
2, 169116, Note_on_c, 0, 59, 0
2, 169117, Note_on_c, 0, 72, 54
2, 169121, Note_on_c, 0, 60, 52
2, 169153, Note_on_c, 0, 60, 0
2, 169153, Note_on_c, 0, 72, 0
2, 169229, Note_on_c, 0, 67, 0
2, 169230, Note_on_c, 0, 61, 55
2, 169231, Note_on_c, 0, 65, 59
2, 169231, Note_on_c, 0, 73, 53
2, 169235, Note_on_c, 0, 58, 58
2, 169235, Note_on_c, 0, 70, 56
2, 169268, Note_on_c, 0, 70, 0
2, 169314, Note_on_c, 0, 61, 0
2, 169315, Note_on_c, 0, 58, 0
2, 169316, Note_on_c, 0, 62, 49
2, 169326, Note_on_c, 0, 74, 46
2, 169327, Note_on_c, 0, 73, 0
2, 169351, Note_on_c, 0, 62, 0
2, 169392, Note_on_c, 0, 74, 0
2, 169428, Note_on_c, 0, 65, 0
2, 169429, Note_on_c, 0, 62, 48
2, 169430, Note_on_c, 0, 67, 56
2, 169430, Note_on_c, 0, 74, 52
2, 169434, Note_on_c, 0, 64, 46
2, 169435, Note_on_c, 0, 76, 54
2, 169527, Note_on_c, 0, 62, 0
2, 169528, Note_on_c, 0, 64, 0
2, 169528, Note_on_c, 0, 76, 0
2, 169528, Note_on_c, 0, 74, 0
2, 169531, Note_on_c, 0, 65, 49
2, 169531, Note_on_c, 0, 77, 44
2, 169567, Note_on_c, 0, 77, 0
2, 169584, Note_on_c, 0, 65, 0
2, 169634, Note_on_c, 0, 67, 0
2, 169635, Note_on_c, 0, 62, 41
2, 169636, Note_on_c, 0, 53, 47
2, 169636, Note_on_c, 0, 65, 46
2, 169636, Note_on_c, 0, 69, 41
2, 169640, Note_on_c, 0, 57, 43
2, 169746, Note_on_c, 0, 65, 0
2, 169750, Note_on_c, 0, 69, 0
2, 169750, Note_on_c, 0, 57, 0
2, 169750, Note_on_c, 0, 53, 0
2, 169751, Note_on_c, 0, 58, 48
2, 169752, Note_on_c, 0, 70, 54
2, 169784, Note_on_c, 0, 70, 0
2, 169793, Note_on_c, 0, 62, 0
2, 169843, Note_on_c, 0, 62, 47
2, 169846, Note_on_c, 0, 74, 59
2, 169847, Note_on_c, 0, 58, 0
2, 169848, Note_on_c, 0, 57, 44
2, 169848, Note_on_c, 0, 69, 57
2, 169848, Note_on_c, 0, 77, 60
2, 169955, Note_on_c, 0, 74, 0
2, 169955, Note_on_c, 0, 62, 0
2, 169959, Note_on_c, 0, 58, 42
2, 169960, Note_on_c, 0, 69, 0
2, 169960, Note_on_c, 0, 57, 0
2, 169963, Note_on_c, 0, 70, 47
2, 169995, Note_on_c, 0, 70, 0
2, 170076, Note_on_c, 0, 77, 0
2, 170079, Note_on_c, 0, 63, 47
2, 170080, Note_on_c, 0, 79, 63
2, 170081, Note_on_c, 0, 58, 0
2, 170134, Control_c, 0, 64, 127
2, 170152, Note_on_c, 0, 57, 52
2, 170205, Note_on_c, 0, 53, 51
2, 170272, Note_on_c, 0, 46, 51
2, 170273, Note_on_c, 0, 81, 49
2, 170313, Note_on_c, 0, 79, 0
2, 170327, Note_on_c, 0, 75, 47
2, 170366, Note_on_c, 0, 72, 49
2, 170414, Note_on_c, 0, 72, 0
2, 170418, Note_on_c, 0, 65, 46
2, 170419, Note_on_c, 0, 46, 0
2, 170419, Note_on_c, 0, 63, 0
2, 170419, Note_on_c, 0, 57, 0
2, 170419, Note_on_c, 0, 53, 0
2, 170419, Note_on_c, 0, 75, 0
2, 170500, Note_on_c, 0, 65, 0
2, 170503, Note_on_c, 0, 63, 50
2, 170507, Note_on_c, 0, 77, 62
2, 170525, Control_c, 0, 64, 0
2, 170556, Note_on_c, 0, 81, 0
2, 170579, Note_on_c, 0, 57, 55
2, 170648, Note_on_c, 0, 53, 53
2, 170714, Note_on_c, 0, 77, 0
2, 170729, Note_on_c, 0, 46, 52
2, 170730, Note_on_c, 0, 79, 69
2, 170765, Note_on_c, 0, 75, 49
2, 170798, Note_on_c, 0, 72, 47
2, 170832, Note_on_c, 0, 46, 0
2, 170832, Note_on_c, 0, 63, 0
2, 170832, Note_on_c, 0, 53, 0
2, 170832, Note_on_c, 0, 57, 0
2, 170835, Note_on_c, 0, 65, 45
2, 170904, Note_on_c, 0, 72, 0
2, 170904, Note_on_c, 0, 75, 0
2, 170904, Note_on_c, 0, 79, 0
2, 170904, Note_on_c, 0, 62, 60
2, 170905, Note_on_c, 0, 81, 72
2, 170918, Control_c, 0, 64, 127
2, 170987, Note_on_c, 0, 58, 64
2, 171042, Note_on_c, 0, 53, 63
2, 171061, Note_on_c, 0, 80, 65
2, 171080, Note_on_c, 0, 80, 0
2, 171094, Note_on_c, 0, 81, 0
2, 171095, Note_on_c, 0, 82, 68
2, 171102, Note_on_c, 0, 46, 63
2, 171134, Note_on_c, 0, 74, 45
2, 171189, Note_on_c, 0, 65, 0
2, 171196, Note_on_c, 0, 70, 49
2, 171242, Note_on_c, 0, 65, 42
2, 171262, Note_on_c, 0, 62, 0
2, 171305, Note_on_c, 0, 58, 0
2, 171305, Note_on_c, 0, 82, 0
2, 171306, Note_on_c, 0, 74, 0
2, 171307, Note_on_c, 0, 46, 0
2, 171311, Note_on_c, 0, 62, 50
2, 171312, Note_on_c, 0, 77, 60
2, 171320, Note_on_c, 0, 53, 0
2, 171397, Note_on_c, 0, 58, 51
2, 171451, Note_on_c, 0, 53, 54
2, 171452, Control_c, 0, 64, 0
2, 171509, Note_on_c, 0, 77, 0
2, 171510, Note_on_c, 0, 46, 51
2, 171516, Note_on_c, 0, 79, 57
2, 171551, Note_on_c, 0, 74, 42
2, 171555, Note_on_c, 0, 70, 0
2, 171595, Note_on_c, 0, 65, 0
2, 171607, Note_on_c, 0, 70, 44
2, 171643, Note_on_c, 0, 65, 42
2, 171705, Note_on_c, 0, 79, 0
2, 171708, Note_on_c, 0, 62, 0
2, 171708, Note_on_c, 0, 46, 0
2, 171709, Note_on_c, 0, 53, 0
2, 171709, Note_on_c, 0, 58, 0
2, 171709, Note_on_c, 0, 65, 0
2, 171709, Note_on_c, 0, 70, 0
2, 171710, Note_on_c, 0, 74, 0
2, 171711, Note_on_c, 0, 63, 52
2, 171711, Note_on_c, 0, 72, 61
2, 171752, Control_c, 0, 64, 127
2, 171783, Note_on_c, 0, 57, 51
2, 171850, Note_on_c, 0, 53, 53
2, 171922, Note_on_c, 0, 46, 48
2, 171936, Note_on_c, 0, 72, 0
2, 171945, Note_on_c, 0, 79, 53
2, 171984, Note_on_c, 0, 79, 0
2, 171993, Note_on_c, 0, 75, 42
2, 172029, Note_on_c, 0, 69, 44
2, 172059, Note_on_c, 0, 69, 0
2, 172072, Note_on_c, 0, 57, 0
2, 172072, Note_on_c, 0, 46, 0
2, 172073, Note_on_c, 0, 63, 0
2, 172073, Note_on_c, 0, 53, 0
2, 172076, Note_on_c, 0, 65, 43
2, 172147, Note_on_c, 0, 65, 0
2, 172147, Note_on_c, 0, 75, 0
2, 172150, Note_on_c, 0, 72, 62
2, 172153, Note_on_c, 0, 63, 43
2, 172224, Note_on_c, 0, 57, 46
2, 172246, Control_c, 0, 64, 0
2, 172278, Note_on_c, 0, 53, 46
2, 172360, Note_on_c, 0, 46, 47
2, 172361, Note_on_c, 0, 77, 53
2, 172388, Note_on_c, 0, 72, 0
2, 172436, Note_on_c, 0, 72, 48
2, 172457, Note_on_c, 0, 69, 48
2, 172506, Note_on_c, 0, 65, 45
2, 172509, Note_on_c, 0, 46, 0
2, 172509, Note_on_c, 0, 63, 0
2, 172509, Note_on_c, 0, 53, 0
2, 172509, Note_on_c, 0, 57, 0
2, 172559, Note_on_c, 0, 69, 0
2, 172562, Note_on_c, 0, 77, 0
2, 172562, Note_on_c, 0, 72, 0
2, 172563, Note_on_c, 0, 53, 53
2, 172563, Note_on_c, 0, 58, 54
2, 172564, Note_on_c, 0, 70, 60
2, 172595, Control_c, 0, 67, 0
2, 172695, Note_on_c, 0, 65, 0
2, 172700, Note_on_c, 0, 53, 0
2, 172700, Note_on_c, 0, 58, 0
2, 172749, Note_on_c, 0, 62, 58
2, 172749, Note_on_c, 0, 77, 66
2, 172752, Note_on_c, 0, 65, 64
2, 172755, Note_on_c, 0, 50, 58
2, 172756, Note_on_c, 0, 70, 0
2, 172827, Control_c, 0, 64, 127
2, 172845, Note_on_c, 0, 53, 50
2, 172845, Note_on_c, 0, 58, 46
2, 172845, Note_on_c, 0, 70, 50
2, 172886, Note_on_c, 0, 74, 45
2, 172958, Note_on_c, 0, 65, 0
2, 172959, Note_on_c, 0, 74, 0
2, 172962, Note_on_c, 0, 67, 69
2, 172963, Note_on_c, 0, 58, 0
2, 172963, Note_on_c, 0, 53, 0
2, 172963, Note_on_c, 0, 77, 0
2, 172963, Note_on_c, 0, 70, 0
2, 172964, Note_on_c, 0, 49, 65
2, 172964, Note_on_c, 0, 61, 64
2, 172967, Note_on_c, 0, 79, 71
2, 172979, Note_on_c, 0, 62, 0
2, 172979, Note_on_c, 0, 50, 0
2, 173036, Note_on_c, 0, 70, 55
2, 173063, Note_on_c, 0, 52, 50
2, 173065, Note_on_c, 0, 58, 53
2, 173098, Note_on_c, 0, 70, 0
2, 173101, Note_on_c, 0, 76, 52
2, 173182, Note_on_c, 0, 76, 0
2, 173182, Note_on_c, 0, 58, 0
2, 173182, Note_on_c, 0, 79, 0
2, 173185, Note_on_c, 0, 52, 0
2, 173186, Note_on_c, 0, 60, 66
2, 173187, Note_on_c, 0, 48, 66
2, 173187, Note_on_c, 0, 69, 52
2, 173187, Note_on_c, 0, 81, 53
2, 173193, Note_on_c, 0, 67, 0
2, 173201, Note_on_c, 0, 49, 0
2, 173202, Note_on_c, 0, 61, 0
2, 173251, Control_c, 0, 64, 0
2, 173258, Note_on_c, 0, 72, 52
2, 173276, Note_on_c, 0, 54, 58
2, 173277, Note_on_c, 0, 57, 58
2, 173316, Note_on_c, 0, 72, 0
2, 173319, Note_on_c, 0, 75, 55
2, 173345, Note_on_c, 0, 54, 0
2, 173395, Note_on_c, 0, 75, 0
2, 173398, Note_on_c, 0, 60, 0
2, 173399, Note_on_c, 0, 57, 0
2, 173400, Note_on_c, 0, 84, 75
2, 173400, Note_on_c, 0, 42, 71
2, 173400, Note_on_c, 0, 54, 70
2, 173400, Note_on_c, 0, 72, 76
2, 173405, Note_on_c, 0, 81, 0
2, 173406, Note_on_c, 0, 69, 0
2, 173415, Note_on_c, 0, 48, 0
2, 173472, Note_on_c, 0, 81, 55
2, 173483, Note_on_c, 0, 45, 55
2, 173486, Note_on_c, 0, 50, 52
2, 173526, Note_on_c, 0, 74, 47
2, 173593, Note_on_c, 0, 55, 57
2, 173597, Note_on_c, 0, 50, 0
2, 173597, Note_on_c, 0, 45, 0
2, 173598, Note_on_c, 0, 43, 53
2, 173604, Note_on_c, 0, 74, 0
2, 173604, Note_on_c, 0, 81, 0
2, 173607, Note_on_c, 0, 70, 60
2, 173607, Note_on_c, 0, 82, 61
2, 173612, Note_on_c, 0, 84, 0
2, 173613, Note_on_c, 0, 42, 0
2, 173613, Note_on_c, 0, 54, 0
2, 173629, Note_on_c, 0, 72, 0
2, 173668, Note_on_c, 0, 79, 45
2, 173687, Note_on_c, 0, 46, 47
2, 173688, Note_on_c, 0, 50, 45
2, 173724, Note_on_c, 0, 79, 0
2, 173728, Note_on_c, 0, 70, 0
2, 173731, Note_on_c, 0, 74, 44
2, 173753, Note_on_c, 0, 74, 0
2, 173753, Note_on_c, 0, 55, 0
2, 173767, Note_on_c, 0, 82, 0
2, 173804, Note_on_c, 0, 46, 0
2, 173805, Note_on_c, 0, 43, 0
2, 173805, Note_on_c, 0, 50, 0
2, 173806, Note_on_c, 0, 55, 71
2, 173806, Note_on_c, 0, 62, 66
2, 173806, Note_on_c, 0, 74, 73
2, 173865, Note_on_c, 0, 62, 0
2, 173868, Note_on_c, 0, 46, 42
2, 173869, Note_on_c, 0, 67, 44
2, 173897, Control_c, 0, 64, 127
2, 173923, Note_on_c, 0, 46, 0
2, 173927, Note_on_c, 0, 43, 45
2, 173944, Note_on_c, 0, 70, 46
2, 173965, Note_on_c, 0, 55, 0
2, 174003, Note_on_c, 0, 67, 0
2, 174003, Note_on_c, 0, 74, 0
2, 174004, Note_on_c, 0, 54, 72
2, 174007, Note_on_c, 0, 76, 65
2, 174010, Note_on_c, 0, 64, 72
2, 174028, Note_on_c, 0, 70, 0
2, 174076, Note_on_c, 0, 43, 0
2, 174077, Note_on_c, 0, 46, 48
2, 174088, Note_on_c, 0, 70, 42
2, 174115, Control_c, 0, 64, 0
2, 174142, Note_on_c, 0, 64, 0
2, 174150, Note_on_c, 0, 42, 48
2, 174154, Note_on_c, 0, 72, 43
2, 174172, Note_on_c, 0, 76, 0
2, 174187, Note_on_c, 0, 54, 0
2, 174217, Note_on_c, 0, 53, 71
2, 174218, Note_on_c, 0, 42, 0
2, 174218, Note_on_c, 0, 65, 66
2, 174219, Note_on_c, 0, 46, 0
2, 174220, Note_on_c, 0, 70, 0
2, 174220, Note_on_c, 0, 72, 0
2, 174223, Note_on_c, 0, 77, 72
2, 174272, Note_on_c, 0, 45, 48
2, 174280, Note_on_c, 0, 77, 0
2, 174280, Note_on_c, 0, 65, 0
2, 174283, Note_on_c, 0, 69, 44
2, 174350, Note_on_c, 0, 41, 45
2, 174354, Note_on_c, 0, 69, 0
2, 174357, Note_on_c, 0, 72, 49
2, 174375, Note_on_c, 0, 53, 0
2, 174413, Note_on_c, 0, 45, 0
2, 174414, Note_on_c, 0, 40, 74
2, 174425, Note_on_c, 0, 79, 45
2, 174431, Note_on_c, 0, 72, 0
2, 174453, Control_c, 0, 64, 127
2, 174479, Note_on_c, 0, 43, 45
2, 174484, Note_on_c, 0, 41, 0
2, 174488, Note_on_c, 0, 72, 47
2, 174564, Note_on_c, 0, 43, 0
2, 174564, Note_on_c, 0, 67, 52
2, 174567, Note_on_c, 0, 52, 62
2, 174583, Note_on_c, 0, 72, 0
2, 174597, Note_on_c, 0, 52, 0
2, 174642, Note_on_c, 0, 67, 0
2, 174643, Note_on_c, 0, 52, 60
2, 174643, Note_on_c, 0, 55, 64
2, 174644, Note_on_c, 0, 72, 67
2, 174667, Note_on_c, 0, 79, 0
2, 174670, Control_c, 0, 64, 0
2, 174722, Note_on_c, 0, 67, 46
2, 174726, Note_on_c, 0, 40, 0
2, 174780, Note_on_c, 0, 67, 0
2, 174784, Note_on_c, 0, 55, 0
2, 174784, Note_on_c, 0, 52, 0
2, 174787, Note_on_c, 0, 60, 42
2, 174865, Note_on_c, 0, 72, 0
2, 174869, Note_on_c, 0, 79, 77
2, 174873, Note_on_c, 0, 39, 43
2, 174928, Control_c, 0, 64, 127
2, 174937, Note_on_c, 0, 60, 0
2, 174945, Note_on_c, 0, 43, 47
2, 174946, Note_on_c, 0, 72, 43
2, 174994, Note_on_c, 0, 72, 0
2, 174998, Note_on_c, 0, 67, 49
2, 175001, Note_on_c, 0, 51, 56
2, 175029, Note_on_c, 0, 51, 0
2, 175080, Note_on_c, 0, 43, 0
2, 175081, Note_on_c, 0, 67, 0
2, 175082, Note_on_c, 0, 51, 60
2, 175082, Note_on_c, 0, 55, 61
2, 175083, Note_on_c, 0, 72, 69
2, 175098, Note_on_c, 0, 79, 0
2, 175111, Control_c, 0, 64, 0
2, 175126, Note_on_c, 0, 55, 0
2, 175126, Note_on_c, 0, 51, 0
2, 175160, Note_on_c, 0, 72, 0
2, 175163, Note_on_c, 0, 67, 46
2, 175172, Note_on_c, 0, 39, 0
2, 175208, Note_on_c, 0, 60, 50
2, 175293, Note_on_c, 0, 77, 65
2, 175297, Note_on_c, 0, 60, 0
2, 175298, Note_on_c, 0, 67, 0
2, 175299, Note_on_c, 0, 38, 65
2, 175354, Note_on_c, 0, 41, 44
2, 175382, Note_on_c, 0, 71, 43
2, 175386, Control_c, 0, 64, 127
2, 175425, Note_on_c, 0, 50, 55
2, 175431, Note_on_c, 0, 65, 47
2, 175465, Note_on_c, 0, 71, 0
2, 175474, Control_c, 0, 67, 127
2, 175488, Note_on_c, 0, 50, 0
2, 175513, Control_c, 0, 67, 0
2, 175519, Note_on_c, 0, 50, 60
2, 175519, Note_on_c, 0, 53, 63
2, 175534, Note_on_c, 0, 65, 0
2, 175535, Note_on_c, 0, 71, 68
2, 175539, Note_on_c, 0, 41, 0
2, 175570, Note_on_c, 0, 77, 0
2, 175586, Note_on_c, 0, 50, 0
2, 175587, Note_on_c, 0, 53, 0
2, 175588, Note_on_c, 0, 65, 47
2, 175602, Control_c, 0, 64, 0
2, 175610, Note_on_c, 0, 38, 0
2, 175659, Note_on_c, 0, 59, 47
2, 175715, Note_on_c, 0, 65, 0
2, 175715, Note_on_c, 0, 71, 0
2, 175716, Note_on_c, 0, 37, 59
2, 175720, Note_on_c, 0, 59, 0
2, 175723, Note_on_c, 0, 77, 65
2, 175795, Note_on_c, 0, 43, 41
2, 175804, Note_on_c, 0, 71, 41
2, 175853, Note_on_c, 0, 49, 42
2, 175872, Note_on_c, 0, 65, 71
2, 175876, Note_on_c, 0, 49, 0
2, 175895, Note_on_c, 0, 71, 0
2, 175917, Note_on_c, 0, 55, 54
2, 175918, Note_on_c, 0, 49, 56
2, 175926, Note_on_c, 0, 71, 66
2, 175938, Note_on_c, 0, 43, 0
2, 175942, Note_on_c, 0, 65, 0
2, 175972, Note_on_c, 0, 77, 0
2, 175978, Note_on_c, 0, 55, 0
2, 175978, Note_on_c, 0, 49, 0
2, 175999, Note_on_c, 0, 65, 46
2, 176039, Note_on_c, 0, 37, 0
2, 176060, Note_on_c, 0, 59, 42
2, 176074, Note_on_c, 0, 65, 0
2, 176074, Note_on_c, 0, 71, 0
2, 176140, Note_on_c, 0, 60, 54
2, 176141, Note_on_c, 0, 48, 56
2, 176149, Note_on_c, 0, 59, 0
2, 176207, Note_on_c, 0, 55, 42
2, 176208, Note_on_c, 0, 52, 42
2, 176208, Note_on_c, 0, 64, 41
2, 176208, Note_on_c, 0, 76, 55
2, 176235, Control_c, 0, 64, 127
2, 176291, Note_on_c, 0, 72, 47
2, 176292, Note_on_c, 0, 67, 47
2, 176348, Note_on_c, 0, 60, 0
2, 176349, Note_on_c, 0, 52, 0
2, 176349, Note_on_c, 0, 48, 0
2, 176349, Note_on_c, 0, 55, 0
2, 176350, Note_on_c, 0, 54, 54
2, 176351, Note_on_c, 0, 42, 57
2, 176392, Note_on_c, 0, 76, 0
2, 176396, Control_c, 0, 64, 0
2, 176400, Note_on_c, 0, 64, 0
2, 176408, Note_on_c, 0, 67, 0
2, 176408, Note_on_c, 0, 72, 0
2, 176411, Note_on_c, 0, 48, 47
2, 176411, Note_on_c, 0, 51, 44
2, 176411, Note_on_c, 0, 75, 61
2, 176412, Note_on_c, 0, 63, 48
2, 176478, Note_on_c, 0, 72, 48
2, 176484, Note_on_c, 0, 69, 48
2, 176549, Note_on_c, 0, 51, 0
2, 176549, Note_on_c, 0, 48, 0
2, 176549, Note_on_c, 0, 54, 0
2, 176549, Note_on_c, 0, 42, 0
2, 176550, Note_on_c, 0, 55, 61
2, 176551, Note_on_c, 0, 43, 62
2, 176582, Note_on_c, 0, 75, 0
2, 176582, Note_on_c, 0, 63, 0
2, 176618, Note_on_c, 0, 72, 0
2, 176618, Note_on_c, 0, 69, 0
2, 176618, Note_on_c, 0, 55, 0
2, 176619, Note_on_c, 0, 50, 46
2, 176619, Note_on_c, 0, 62, 50
2, 176624, Note_on_c, 0, 46, 46
2, 176624, Note_on_c, 0, 74, 64
2, 176683, Note_on_c, 0, 46, 0
2, 176683, Note_on_c, 0, 50, 0
2, 176683, Note_on_c, 0, 43, 0
2, 176686, Note_on_c, 0, 67, 48
2, 176686, Note_on_c, 0, 70, 47
2, 176729, Note_on_c, 0, 70, 0
2, 176729, Note_on_c, 0, 67, 0
2, 176762, Note_on_c, 0, 74, 0
2, 176766, Note_on_c, 0, 62, 0
2, 176769, Note_on_c, 0, 40, 69
2, 176770, Note_on_c, 0, 52, 64
2, 176831, Note_on_c, 0, 69, 70
2, 176832, Note_on_c, 0, 43, 50
2, 176834, Note_on_c, 0, 46, 46
2, 176835, Note_on_c, 0, 81, 70
2, 176871, Control_c, 0, 64, 127
2, 176909, Note_on_c, 0, 73, 49
2, 176923, Note_on_c, 0, 52, 0
2, 176973, Note_on_c, 0, 52, 56
2, 176974, Note_on_c, 0, 61, 53
2, 176975, Note_on_c, 0, 46, 0
2, 176975, Note_on_c, 0, 43, 0
2, 176993, Control_c, 0, 64, 0
2, 177032, Note_on_c, 0, 81, 0
2, 177032, Note_on_c, 0, 69, 0
2, 177032, Note_on_c, 0, 73, 0
2, 177033, Note_on_c, 0, 55, 48
2, 177033, Note_on_c, 0, 58, 50
2, 177036, Note_on_c, 0, 67, 67
2, 177036, Note_on_c, 0, 79, 64
2, 177083, Note_on_c, 0, 40, 0
2, 177106, Note_on_c, 0, 79, 0
2, 177112, Note_on_c, 0, 70, 45
2, 177112, Note_on_c, 0, 73, 46
2, 177160, Note_on_c, 0, 58, 0
2, 177160, Note_on_c, 0, 52, 0
2, 177160, Note_on_c, 0, 55, 0
2, 177160, Note_on_c, 0, 61, 0
2, 177161, Note_on_c, 0, 41, 64
2, 177161, Note_on_c, 0, 53, 63
2, 177230, Note_on_c, 0, 67, 0
2, 177230, Note_on_c, 0, 70, 0
2, 177230, Note_on_c, 0, 73, 0
2, 177231, Note_on_c, 0, 45, 48
2, 177231, Note_on_c, 0, 50, 52
2, 177232, Note_on_c, 0, 68, 69
2, 177232, Note_on_c, 0, 80, 70
2, 177259, Control_c, 0, 64, 127
2, 177298, Note_on_c, 0, 74, 52
2, 177320, Note_on_c, 0, 53, 0
2, 177364, Note_on_c, 0, 50, 0
2, 177364, Note_on_c, 0, 45, 0
2, 177368, Note_on_c, 0, 53, 68
2, 177368, Note_on_c, 0, 62, 71
2, 177381, Control_c, 0, 64, 0
2, 177437, Note_on_c, 0, 74, 0
2, 177440, Note_on_c, 0, 69, 75
2, 177441, Note_on_c, 0, 68, 0
2, 177442, Note_on_c, 0, 57, 54
2, 177442, Note_on_c, 0, 81, 77
2, 177454, Note_on_c, 0, 80, 0
2, 177485, Note_on_c, 0, 41, 0
2, 177506, Note_on_c, 0, 74, 50
2, 177552, Note_on_c, 0, 53, 0
2, 177552, Note_on_c, 0, 57, 0
2, 177553, Note_on_c, 0, 42, 75
2, 177556, Note_on_c, 0, 62, 0
2, 177559, Note_on_c, 0, 54, 79
2, 177582, Note_on_c, 0, 74, 0
2, 177636, Note_on_c, 0, 81, 0
2, 177636, Note_on_c, 0, 69, 0
2, 177637, Note_on_c, 0, 45, 54
2, 177637, Note_on_c, 0, 50, 52
2, 177638, Note_on_c, 0, 74, 83
2, 177641, Control_c, 0, 64, 127
2, 177642, Note_on_c, 0, 86, 84
2, 177700, Note_on_c, 0, 81, 53
2, 177726, Note_on_c, 0, 54, 0
2, 177768, Control_c, 0, 64, 0
2, 177771, Note_on_c, 0, 81, 0
2, 177774, Note_on_c, 0, 62, 64
2, 177775, Note_on_c, 0, 50, 0
2, 177775, Note_on_c, 0, 45, 0
2, 177776, Note_on_c, 0, 74, 0
2, 177777, Note_on_c, 0, 54, 64
2, 177828, Note_on_c, 0, 86, 0
2, 177834, Note_on_c, 0, 57, 51
2, 177834, Note_on_c, 0, 69, 74
2, 177834, Note_on_c, 0, 81, 72
2, 177885, Note_on_c, 0, 42, 0
2, 177898, Note_on_c, 0, 74, 53
2, 177926, Note_on_c, 0, 62, 0
2, 177927, Note_on_c, 0, 57, 0
2, 177931, Note_on_c, 0, 54, 0
2, 177932, Note_on_c, 0, 43, 73
2, 177933, Note_on_c, 0, 55, 79
2, 177972, Note_on_c, 0, 69, 0
2, 177972, Note_on_c, 0, 81, 0
2, 177973, Note_on_c, 0, 74, 0
2, 178033, Note_on_c, 0, 81, 89
2, 178034, Note_on_c, 0, 69, 88
2, 178040, Note_on_c, 0, 46, 52
2, 178044, Control_c, 0, 64, 127
2, 178044, Note_on_c, 0, 50, 52
2, 178108, Note_on_c, 0, 74, 56
2, 178136, Note_on_c, 0, 55, 0
2, 178153, Control_c, 0, 64, 0
2, 178193, Note_on_c, 0, 50, 0
2, 178196, Note_on_c, 0, 62, 81
2, 178197, Note_on_c, 0, 46, 0
2, 178200, Note_on_c, 0, 55, 78
2, 178223, Note_on_c, 0, 69, 0
2, 178252, Note_on_c, 0, 74, 0
2, 178260, Note_on_c, 0, 81, 0
2, 178263, Note_on_c, 0, 58, 58
2, 178263, Note_on_c, 0, 70, 87
2, 178263, Note_on_c, 0, 82, 85
2, 178269, Note_on_c, 0, 43, 0
2, 178311, Note_on_c, 0, 74, 58
2, 178347, Note_on_c, 0, 62, 0
2, 178347, Note_on_c, 0, 55, 0
2, 178348, Note_on_c, 0, 58, 0
2, 178348, Note_on_c, 0, 74, 0
2, 178400, Note_on_c, 0, 43, 87
2, 178400, Note_on_c, 0, 55, 92
2, 178454, Note_on_c, 0, 82, 0
2, 178458, Note_on_c, 0, 70, 0
2, 178461, Control_c, 0, 64, 127
2, 178486, Note_on_c, 0, 87, 90
2, 178487, Note_on_c, 0, 75, 87
2, 178540, Note_on_c, 0, 82, 62
2, 178554, Note_on_c, 0, 55, 0
2, 178613, Note_on_c, 0, 55, 63
2, 178616, Note_on_c, 0, 67, 63
2, 178617, Note_on_c, 0, 58, 61
2, 178618, Control_c, 0, 64, 0
2, 178618, Note_on_c, 0, 63, 61
2, 178628, Note_on_c, 0, 82, 0
2, 178687, Note_on_c, 0, 75, 0
2, 178687, Note_on_c, 0, 87, 0
2, 178699, Note_on_c, 0, 82, 89
2, 178700, Note_on_c, 0, 70, 92
2, 178743, Note_on_c, 0, 43, 0
2, 178751, Note_on_c, 0, 55, 0
2, 178752, Note_on_c, 0, 58, 0
2, 178752, Note_on_c, 0, 67, 0
2, 178752, Note_on_c, 0, 63, 0
2, 178752, Note_on_c, 0, 70, 0
2, 178755, Note_on_c, 0, 75, 63
2, 178830, Note_on_c, 0, 32, 97
2, 178831, Note_on_c, 0, 44, 92
2, 178874, Note_on_c, 0, 75, 0
2, 178874, Note_on_c, 0, 82, 0
2, 178877, Note_on_c, 0, 71, 96
2, 178881, Note_on_c, 0, 83, 95
2, 178916, Control_c, 0, 64, 127
2, 178951, Note_on_c, 0, 75, 92
2, 178955, Note_on_c, 0, 80, 95
2, 179013, Note_on_c, 0, 60, 63
2, 179016, Note_on_c, 0, 71, 0
2, 179018, Note_on_c, 0, 56, 68
2, 179019, Note_on_c, 0, 63, 62
2, 179019, Note_on_c, 0, 68, 91
2, 179063, Control_c, 0, 64, 0
2, 179072, Note_on_c, 0, 75, 0
2, 179072, Note_on_c, 0, 83, 0
2, 179072, Note_on_c, 0, 80, 0
2, 179075, Note_on_c, 0, 72, 98
2, 179079, Note_on_c, 0, 84, 92
2, 179145, Note_on_c, 0, 60, 0
2, 179145, Note_on_c, 0, 56, 0
2, 179146, Note_on_c, 0, 68, 0
2, 179146, Note_on_c, 0, 63, 0
2, 179146, Note_on_c, 0, 72, 0
2, 179149, Note_on_c, 0, 75, 63
2, 179149, Note_on_c, 0, 80, 64
2, 179227, Note_on_c, 0, 32, 0
2, 179228, Note_on_c, 0, 44, 0
2, 179231, Note_on_c, 0, 33, 94
2, 179232, Note_on_c, 0, 45, 100
2, 179287, Note_on_c, 0, 80, 0
2, 179287, Note_on_c, 0, 84, 0
2, 179291, Note_on_c, 0, 75, 0
2, 179294, Note_on_c, 0, 89, 102
2, 179298, Note_on_c, 0, 77, 105
2, 179311, Control_c, 0, 64, 127
2, 179376, Note_on_c, 0, 84, 69
2, 179434, Note_on_c, 0, 60, 67
2, 179435, Note_on_c, 0, 57, 67
2, 179435, Note_on_c, 0, 65, 68
2, 179435, Note_on_c, 0, 69, 68
2, 179449, Control_c, 0, 64, 0
2, 179455, Note_on_c, 0, 84, 0
2, 179468, Note_on_c, 0, 77, 0
2, 179498, Note_on_c, 0, 89, 0
2, 179515, Note_on_c, 0, 84, 93
2, 179516, Note_on_c, 0, 72, 97
2, 179572, Note_on_c, 0, 60, 0
2, 179573, Note_on_c, 0, 69, 0
2, 179573, Note_on_c, 0, 57, 0
2, 179578, Note_on_c, 0, 65, 0
2, 179581, Note_on_c, 0, 77, 68
2, 179647, Note_on_c, 0, 45, 0
2, 179650, Note_on_c, 0, 34, 99
2, 179651, Note_on_c, 0, 46, 99
2, 179652, Note_on_c, 0, 33, 0
2, 179688, Note_on_c, 0, 84, 0
2, 179706, Note_on_c, 0, 72, 0
2, 179710, Note_on_c, 0, 77, 0
2, 179712, Note_on_c, 0, 85, 110
2, 179713, Note_on_c, 0, 73, 109
2, 179728, Control_c, 0, 64, 127
2, 179762, Note_on_c, 0, 77, 70
2, 179765, Note_on_c, 0, 82, 76
2, 179843, Note_on_c, 0, 58, 74
2, 179843, Note_on_c, 0, 62, 75
2, 179844, Note_on_c, 0, 65, 112
2, 179848, Control_c, 0, 64, 0
2, 179848, Note_on_c, 0, 70, 106
2, 179902, Note_on_c, 0, 82, 0
2, 179902, Note_on_c, 0, 73, 0
2, 179902, Note_on_c, 0, 85, 0
2, 179902, Note_on_c, 0, 77, 0
2, 179904, Note_on_c, 0, 74, 104
2, 179908, Note_on_c, 0, 86, 104
2, 179953, Note_on_c, 0, 86, 0
2, 179953, Note_on_c, 0, 74, 0
2, 179953, Note_on_c, 0, 58, 0
2, 179953, Note_on_c, 0, 70, 0
2, 179953, Note_on_c, 0, 62, 0
2, 179958, Note_on_c, 0, 65, 0
2, 179959, Note_on_c, 0, 77, 71
2, 179962, Note_on_c, 0, 82, 72
2, 180044, Note_on_c, 0, 34, 0
2, 180045, Note_on_c, 0, 46, 0
2, 180048, Note_on_c, 0, 35, 103
2, 180048, Note_on_c, 0, 47, 102
2, 180109, Note_on_c, 0, 77, 0
2, 180109, Note_on_c, 0, 82, 0
2, 180112, Note_on_c, 0, 79, 104
2, 180113, Note_on_c, 0, 91, 101
2, 180114, Control_c, 0, 64, 127
2, 180163, Note_on_c, 0, 86, 69
2, 180242, Note_on_c, 0, 67, 80
2, 180245, Control_c, 0, 64, 0
2, 180245, Note_on_c, 0, 59, 71
2, 180245, Note_on_c, 0, 62, 67
2, 180245, Note_on_c, 0, 71, 80
2, 180251, Note_on_c, 0, 86, 0
2, 180302, Note_on_c, 0, 79, 0
2, 180305, Note_on_c, 0, 91, 0
2, 180309, Note_on_c, 0, 74, 105
2, 180310, Note_on_c, 0, 86, 105
2, 180375, Note_on_c, 0, 71, 0
2, 180375, Note_on_c, 0, 62, 0
2, 180376, Note_on_c, 0, 59, 0
2, 180376, Note_on_c, 0, 67, 0
2, 180376, Note_on_c, 0, 74, 0
2, 180384, Note_on_c, 0, 79, 81
2, 180421, Control_c, 0, 67, 127
2, 180431, Note_on_c, 0, 36, 105
2, 180432, Note_on_c, 0, 48, 101
2, 180436, Note_on_c, 0, 47, 0
2, 180436, Note_on_c, 0, 35, 0
2, 180442, Control_c, 0, 67, 0
2, 180447, Note_on_c, 0, 79, 0
2, 180499, Note_on_c, 0, 91, 102
2, 180506, Note_on_c, 0, 86, 0
2, 180510, Note_on_c, 0, 79, 102
2, 180514, Control_c, 0, 64, 127
2, 180579, Note_on_c, 0, 84, 61
2, 180583, Note_on_c, 0, 87, 66
2, 180643, Control_c, 0, 64, 0
2, 180650, Note_on_c, 0, 72, 83
2, 180651, Note_on_c, 0, 60, 76
2, 180654, Note_on_c, 0, 63, 76
2, 180654, Note_on_c, 0, 67, 78
2, 180655, Note_on_c, 0, 87, 0
2, 180695, Note_on_c, 0, 79, 0
2, 180711, Note_on_c, 0, 91, 0
2, 180717, Note_on_c, 0, 75, 102
2, 180718, Note_on_c, 0, 87, 99
2, 180722, Note_on_c, 0, 84, 0
2, 180743, Control_c, 0, 64, 127
2, 180777, Note_on_c, 0, 72, 0
2, 180778, Note_on_c, 0, 67, 0
2, 180783, Note_on_c, 0, 84, 80
2, 180784, Note_on_c, 0, 60, 0
2, 180784, Note_on_c, 0, 79, 85
2, 180789, Note_on_c, 0, 63, 0
2, 180790, Control_c, 0, 64, 0
2, 180849, Note_on_c, 0, 36, 0
2, 180849, Note_on_c, 0, 48, 0
2, 180852, Note_on_c, 0, 37, 93
2, 180856, Note_on_c, 0, 49, 93
2, 180912, Note_on_c, 0, 87, 0
2, 180912, Note_on_c, 0, 75, 0
2, 180921, Note_on_c, 0, 79, 0
2, 180931, Note_on_c, 0, 81, 102
2, 180931, Note_on_c, 0, 93, 97
2, 180936, Note_on_c, 0, 84, 0
2, 180945, Control_c, 0, 64, 127
2, 180992, Note_on_c, 0, 88, 63
2, 181047, Note_on_c, 0, 61, 82
2, 181048, Note_on_c, 0, 69, 83
2, 181049, Note_on_c, 0, 88, 0
2, 181053, Note_on_c, 0, 64, 78
2, 181053, Note_on_c, 0, 73, 90
2, 181060, Control_c, 0, 64, 0
2, 181101, Note_on_c, 0, 81, 0
2, 181108, Note_on_c, 0, 76, 98
2, 181108, Note_on_c, 0, 88, 95
2, 181118, Note_on_c, 0, 93, 0
2, 181173, Note_on_c, 0, 61, 0
2, 181174, Note_on_c, 0, 73, 0
2, 181174, Note_on_c, 0, 64, 0
2, 181177, Note_on_c, 0, 69, 0
2, 181180, Note_on_c, 0, 81, 90
2, 181238, Note_on_c, 0, 37, 0
2, 181238, Note_on_c, 0, 49, 0
2, 181241, Note_on_c, 0, 38, 103
2, 181242, Note_on_c, 0, 50, 98
2, 181256, Note_on_c, 0, 81, 0
2, 181272, Note_on_c, 0, 88, 0
2, 181272, Note_on_c, 0, 76, 0
2, 181317, Note_on_c, 0, 93, 101
2, 181318, Note_on_c, 0, 81, 104
2, 181352, Control_c, 0, 64, 127
2, 181374, Note_on_c, 0, 86, 65
2, 181380, Note_on_c, 0, 89, 71
2, 181455, Note_on_c, 0, 65, 105
2, 181458, Note_on_c, 0, 89, 0
2, 181458, Note_on_c, 0, 86, 0
2, 181459, Note_on_c, 0, 62, 95
2, 181460, Note_on_c, 0, 69, 104
2, 181460, Note_on_c, 0, 74, 103
2, 181471, Control_c, 0, 64, 0
2, 181510, Note_on_c, 0, 81, 0
2, 181510, Note_on_c, 0, 93, 0
2, 181515, Note_on_c, 0, 77, 108
2, 181515, Note_on_c, 0, 89, 107
2, 181563, Note_on_c, 0, 65, 0
2, 181567, Note_on_c, 0, 62, 0
2, 181568, Note_on_c, 0, 74, 0
2, 181568, Note_on_c, 0, 69, 0
2, 181578, Note_on_c, 0, 81, 100
2, 181581, Note_on_c, 0, 86, 106
2, 181584, Note_on_c, 0, 38, 0
2, 181584, Note_on_c, 0, 50, 0
2, 181642, Note_on_c, 0, 38, 110
2, 181643, Note_on_c, 0, 50, 108
2, 181694, Note_on_c, 0, 94, 104
2, 181704, Note_on_c, 0, 89, 0
2, 181712, Note_on_c, 0, 77, 0
2, 181712, Note_on_c, 0, 81, 0
2, 181720, Note_on_c, 0, 82, 108
2, 181733, Note_on_c, 0, 86, 0
2, 181751, Control_c, 0, 64, 127
2, 181782, Note_on_c, 0, 89, 110
2, 181851, Note_on_c, 0, 65, 105
2, 181855, Note_on_c, 0, 62, 100
2, 181856, Note_on_c, 0, 70, 105
2, 181857, Note_on_c, 0, 74, 107
2, 181871, Note_on_c, 0, 89, 0
2, 181876, Control_c, 0, 64, 0
2, 181908, Note_on_c, 0, 82, 0
2, 181928, Note_on_c, 0, 77, 102
2, 181928, Note_on_c, 0, 89, 109
2, 181943, Note_on_c, 0, 94, 0
2, 181971, Note_on_c, 0, 89, 0
2, 181971, Note_on_c, 0, 62, 0
2, 181972, Note_on_c, 0, 74, 0
2, 181972, Note_on_c, 0, 77, 0
2, 181972, Note_on_c, 0, 70, 0
2, 181972, Note_on_c, 0, 65, 0
2, 181978, Note_on_c, 0, 82, 105
2, 182001, Note_on_c, 0, 82, 0
2, 182056, Note_on_c, 0, 38, 0
2, 182056, Note_on_c, 0, 50, 0
2, 182059, Note_on_c, 0, 54, 65
2, 182059, Note_on_c, 0, 63, 70
2, 182059, Note_on_c, 0, 94, 107
2, 182060, Note_on_c, 0, 51, 71
2, 182060, Note_on_c, 0, 58, 69
2, 182060, Note_on_c, 0, 82, 102
2, 182060, Note_on_c, 0, 87, 103
2, 182060, Note_on_c, 0, 90, 102
2, 182112, Note_on_c, 0, 39, 71
2, 182112, Control_c, 0, 64, 127
2, 182173, Note_on_c, 0, 42, 86
2, 182191, Note_on_c, 0, 51, 0
2, 182191, Note_on_c, 0, 54, 0
2, 182231, Note_on_c, 0, 46, 92
2, 182245, Note_on_c, 0, 58, 0
2, 182294, Note_on_c, 0, 51, 97
2, 182302, Note_on_c, 0, 54, 97
2, 182345, Note_on_c, 0, 63, 0
2, 182351, Note_on_c, 0, 58, 100
2, 182393, Note_on_c, 0, 94, 0
2, 182398, Note_on_c, 0, 90, 0
2, 182398, Note_on_c, 0, 82, 0
2, 182400, Note_on_c, 0, 63, 98
2, 182401, Note_on_c, 0, 66, 102
2, 182406, Note_on_c, 0, 87, 0
2, 182426, Note_on_c, 0, 51, 0
2, 182474, Note_on_c, 0, 54, 0
2, 182474, Note_on_c, 0, 58, 0
2, 182477, Note_on_c, 0, 51, 61
2, 182521, Note_on_c, 0, 54, 76
2, 182535, Note_on_c, 0, 39, 0
2, 182535, Note_on_c, 0, 42, 0
2, 182536, Note_on_c, 0, 46, 0
2, 182558, Note_on_c, 0, 63, 0
2, 182583, Note_on_c, 0, 66, 0
2, 182586, Note_on_c, 0, 58, 93
2, 182666, Note_on_c, 0, 63, 91
2, 182667, Note_on_c, 0, 66, 85
2, 182733, Note_on_c, 0, 70, 87
2, 182780, Note_on_c, 0, 63, 0
2, 182784, Note_on_c, 0, 75, 89
2, 182784, Note_on_c, 0, 78, 92
2, 182852, Note_on_c, 0, 63, 81
2, 182857, Note_on_c, 0, 66, 0
2, 182886, Note_on_c, 0, 70, 0
2, 182898, Note_on_c, 0, 66, 75
2, 182902, Note_on_c, 0, 51, 0
2, 182902, Note_on_c, 0, 58, 0
2, 182905, Note_on_c, 0, 54, 0
2, 182918, Control_c, 0, 64, 0
2, 182969, Note_on_c, 0, 70, 93
2, 182991, Note_on_c, 0, 78, 0
2, 182991, Note_on_c, 0, 75, 0
2, 183033, Note_on_c, 0, 75, 89
2, 183114, Note_on_c, 0, 75, 0
2, 183114, Note_on_c, 0, 70, 0
2, 183118, Note_on_c, 0, 78, 92
2, 183161, Note_on_c, 0, 39, 86
2, 183161, Note_on_c, 0, 51, 85
2, 183168, Note_on_c, 0, 63, 0
2, 183168, Note_on_c, 0, 66, 0
2, 183171, Note_on_c, 0, 70, 89
2, 183171, Note_on_c, 0, 75, 87
2, 183172, Note_on_c, 0, 82, 90
2, 183311, Note_on_c, 0, 70, 0
2, 183312, Note_on_c, 0, 82, 0
2, 183367, Note_on_c, 0, 75, 0
2, 183370, Note_on_c, 0, 51, 0
2, 183370, Note_on_c, 0, 39, 0
2, 183371, Note_on_c, 0, 38, 90
2, 183371, Note_on_c, 0, 70, 86
2, 183374, Note_on_c, 0, 50, 91
2, 183374, Note_on_c, 0, 82, 89
2, 183375, Note_on_c, 0, 77, 85
2, 183383, Note_on_c, 0, 78, 0
2, 183532, Note_on_c, 0, 82, 0
2, 183532, Note_on_c, 0, 70, 0
2, 183576, Note_on_c, 0, 38, 0
2, 183576, Note_on_c, 0, 50, 0
2, 183579, Note_on_c, 0, 39, 86
2, 183580, Note_on_c, 0, 51, 84
2, 183586, Note_on_c, 0, 77, 0
2, 183594, Note_on_c, 0, 70, 88
2, 183594, Note_on_c, 0, 78, 87
2, 183595, Note_on_c, 0, 82, 83
2, 183600, Note_on_c, 0, 75, 85
2, 183613, Note_on_c, 0, 39, 0
2, 183618, Control_c, 0, 64, 127
2, 183657, Note_on_c, 0, 39, 86
2, 183672, Note_on_c, 0, 51, 0
2, 183732, Note_on_c, 0, 42, 83
2, 183787, Note_on_c, 0, 46, 82
2, 183860, Note_on_c, 0, 51, 83
2, 183860, Note_on_c, 0, 54, 85
2, 183924, Note_on_c, 0, 58, 85
2, 183987, Note_on_c, 0, 78, 0
2, 183987, Note_on_c, 0, 82, 0
2, 183987, Note_on_c, 0, 75, 0
2, 183990, Note_on_c, 0, 63, 85
2, 183990, Note_on_c, 0, 66, 83
2, 183991, Note_on_c, 0, 70, 0
2, 184000, Note_on_c, 0, 51, 0
2, 184069, Note_on_c, 0, 54, 0
2, 184072, Note_on_c, 0, 51, 85
2, 184080, Note_on_c, 0, 58, 0
2, 184108, Note_on_c, 0, 46, 0
2, 184108, Note_on_c, 0, 39, 0
2, 184108, Note_on_c, 0, 42, 0
2, 184111, Note_on_c, 0, 54, 86
2, 184153, Note_on_c, 0, 63, 0
2, 184163, Note_on_c, 0, 58, 83
2, 184209, Note_on_c, 0, 66, 0
2, 184210, Note_on_c, 0, 63, 83
2, 184298, Note_on_c, 0, 66, 77
2, 184298, Note_on_c, 0, 70, 76
2, 184354, Note_on_c, 0, 75, 84
2, 184354, Note_on_c, 0, 78, 81
2, 184359, Note_on_c, 0, 63, 0
2, 184409, Note_on_c, 0, 63, 83
2, 184422, Note_on_c, 0, 66, 0
2, 184432, Note_on_c, 0, 75, 0
2, 184432, Note_on_c, 0, 70, 0
2, 184465, Note_on_c, 0, 66, 48
2, 184488, Note_on_c, 0, 58, 0
2, 184488, Note_on_c, 0, 54, 0
2, 184488, Note_on_c, 0, 51, 0
2, 184530, Note_on_c, 0, 70, 71
2, 184577, Control_c, 0, 64, 0
2, 184593, Note_on_c, 0, 78, 0
2, 184608, Note_on_c, 0, 75, 65
2, 184664, Note_on_c, 0, 78, 69
2, 184670, Note_on_c, 0, 75, 0
2, 184670, Note_on_c, 0, 70, 0
2, 184726, Note_on_c, 0, 66, 0
2, 184727, Note_on_c, 0, 39, 78
2, 184727, Note_on_c, 0, 51, 80
2, 184728, Note_on_c, 0, 70, 84
2, 184728, Note_on_c, 0, 75, 77
2, 184728, Note_on_c, 0, 82, 77
2, 184733, Note_on_c, 0, 63, 0
2, 184886, Note_on_c, 0, 70, 0
2, 184886, Note_on_c, 0, 82, 0
2, 184937, Note_on_c, 0, 78, 0
2, 184941, Note_on_c, 0, 51, 0
2, 184941, Note_on_c, 0, 39, 0
2, 184942, Note_on_c, 0, 75, 0
2, 184943, Note_on_c, 0, 50, 83
2, 184943, Note_on_c, 0, 77, 84
2, 184943, Note_on_c, 0, 82, 81
2, 184944, Note_on_c, 0, 70, 84
2, 184951, Note_on_c, 0, 38, 83
2, 185081, Note_on_c, 0, 82, 0
2, 185085, Note_on_c, 0, 70, 0
2, 185085, Note_on_c, 0, 77, 0
2, 185137, Note_on_c, 0, 38, 0
2, 185137, Note_on_c, 0, 39, 81
2, 185137, Note_on_c, 0, 51, 83
2, 185137, Note_on_c, 0, 82, 80
2, 185138, Note_on_c, 0, 50, 0
2, 185138, Note_on_c, 0, 70, 78
2, 185138, Note_on_c, 0, 75, 80
2, 185142, Note_on_c, 0, 78, 83
2, 185163, Note_on_c, 0, 39, 0
2, 185185, Note_on_c, 0, 39, 48
2, 185223, Control_c, 0, 64, 127
2, 185248, Note_on_c, 0, 42, 65
2, 185268, Note_on_c, 0, 51, 0
2, 185304, Note_on_c, 0, 46, 77
2, 185363, Note_on_c, 0, 51, 76
2, 185373, Note_on_c, 0, 54, 77
2, 185428, Note_on_c, 0, 58, 81
2, 185474, Note_on_c, 0, 82, 0
2, 185477, Note_on_c, 0, 66, 77
2, 185478, Note_on_c, 0, 70, 0
2, 185478, Note_on_c, 0, 75, 0
2, 185478, Note_on_c, 0, 78, 0
2, 185481, Note_on_c, 0, 63, 44
2, 185487, Note_on_c, 0, 51, 0
2, 185531, Note_on_c, 0, 54, 0
2, 185534, Note_on_c, 0, 51, 46
2, 185580, Note_on_c, 0, 58, 0
2, 185584, Note_on_c, 0, 63, 0
2, 185587, Note_on_c, 0, 54, 64
2, 185592, Note_on_c, 0, 46, 0
2, 185592, Note_on_c, 0, 42, 0
2, 185592, Note_on_c, 0, 39, 0
2, 185638, Note_on_c, 0, 66, 0
2, 185639, Note_on_c, 0, 58, 78
2, 185710, Note_on_c, 0, 63, 77
2, 185718, Note_on_c, 0, 66, 77
2, 185762, Note_on_c, 0, 70, 72
2, 185784, Control_c, 0, 64, 0
2, 185788, Note_on_c, 0, 58, 0
2, 185835, Note_on_c, 0, 75, 81
2, 185835, Note_on_c, 0, 78, 79
2, 185883, Note_on_c, 0, 52, 45
2, 185939, Note_on_c, 0, 58, 62
2, 185949, Note_on_c, 0, 78, 0
2, 185952, Note_on_c, 0, 63, 0
2, 185952, Note_on_c, 0, 75, 0
2, 185952, Note_on_c, 0, 66, 0
2, 185956, Note_on_c, 0, 70, 0
2, 185960, Note_on_c, 0, 54, 0
2, 185965, Note_on_c, 0, 51, 0
2, 185989, Note_on_c, 0, 61, 78
2, 186065, Note_on_c, 0, 66, 75
2, 186076, Note_on_c, 0, 70, 76
2, 186127, Note_on_c, 0, 73, 71
2, 186158, Control_c, 0, 64, 127
2, 186192, Note_on_c, 0, 78, 82
2, 186198, Note_on_c, 0, 70, 0
2, 186201, Note_on_c, 0, 82, 82
2, 186243, Note_on_c, 0, 73, 0
2, 186268, Note_on_c, 0, 78, 0
2, 186274, Note_on_c, 0, 64, 78
2, 186283, Note_on_c, 0, 61, 0
2, 186287, Note_on_c, 0, 58, 0
2, 186287, Note_on_c, 0, 52, 0
2, 186288, Note_on_c, 0, 66, 0
2, 186312, Note_on_c, 0, 70, 65
2, 186347, Note_on_c, 0, 73, 78
2, 186357, Note_on_c, 0, 82, 0
2, 186408, Note_on_c, 0, 78, 75
2, 186432, Note_on_c, 0, 82, 71
2, 186480, Note_on_c, 0, 85, 74
2, 186507, Note_on_c, 0, 94, 72
2, 186512, Note_on_c, 0, 90, 82
2, 186567, Note_on_c, 0, 90, 0
2, 186610, Note_on_c, 0, 54, 67
2, 186615, Control_c, 0, 64, 0
2, 186618, Note_on_c, 0, 85, 0
2, 186618, Note_on_c, 0, 78, 0
2, 186618, Note_on_c, 0, 82, 0
2, 186626, Note_on_c, 0, 58, 66
2, 186664, Note_on_c, 0, 61, 70
2, 186670, Note_on_c, 0, 70, 0
2, 186670, Note_on_c, 0, 73, 0
2, 186670, Note_on_c, 0, 94, 0
2, 186672, Note_on_c, 0, 78, 77
2, 186673, Note_on_c, 0, 90, 77
2, 186677, Note_on_c, 0, 82, 83
2, 186677, Note_on_c, 0, 85, 81
2, 186690, Note_on_c, 0, 64, 0
2, 186694, Note_on_c, 0, 66, 81
2, 186816, Note_on_c, 0, 82, 0
2, 186816, Note_on_c, 0, 58, 0
2, 186863, Note_on_c, 0, 54, 0
2, 186863, Note_on_c, 0, 61, 0
2, 186864, Note_on_c, 0, 78, 0
2, 186864, Note_on_c, 0, 85, 0
2, 186864, Note_on_c, 0, 66, 0
2, 186864, Note_on_c, 0, 90, 0
2, 186864, Note_on_c, 0, 53, 71
2, 186864, Note_on_c, 0, 58, 71
2, 186865, Note_on_c, 0, 62, 78
2, 186865, Note_on_c, 0, 65, 80
2, 186865, Note_on_c, 0, 89, 81
2, 186866, Note_on_c, 0, 77, 81
2, 186866, Note_on_c, 0, 86, 79
2, 186869, Note_on_c, 0, 82, 79
2, 186925, Note_on_c, 0, 77, 0
2, 186975, Control_c, 0, 64, 127
2, 187056, Note_on_c, 0, 82, 0
2, 187056, Note_on_c, 0, 89, 0
2, 187056, Note_on_c, 0, 58, 0
2, 187056, Note_on_c, 0, 53, 0
2, 187056, Note_on_c, 0, 62, 0
2, 187056, Note_on_c, 0, 86, 0
2, 187057, Note_on_c, 0, 65, 0
2, 187060, Note_on_c, 0, 70, 77
2, 187060, Note_on_c, 0, 74, 77
2, 187061, Note_on_c, 0, 77, 79
2, 187120, Note_on_c, 0, 82, 63
2, 187120, Note_on_c, 0, 89, 66
2, 187124, Note_on_c, 0, 94, 62
2, 187128, Note_on_c, 0, 98, 60
2, 187138, Note_on_c, 0, 74, 0
2, 187192, Note_on_c, 0, 86, 61
2, 187200, Note_on_c, 0, 94, 0
2, 187205, Note_on_c, 0, 70, 0
2, 187250, Note_on_c, 0, 65, 85
2, 187254, Note_on_c, 0, 70, 79
2, 187255, Note_on_c, 0, 74, 80
2, 187260, Note_on_c, 0, 77, 0
2, 187269, Note_on_c, 0, 89, 0
2, 187270, Note_on_c, 0, 86, 0
2, 187307, Note_on_c, 0, 77, 68
2, 187310, Note_on_c, 0, 82, 0
2, 187310, Note_on_c, 0, 98, 0
2, 187315, Note_on_c, 0, 89, 68
2, 187316, Note_on_c, 0, 94, 64
2, 187317, Note_on_c, 0, 86, 69
2, 187328, Note_on_c, 0, 70, 0
2, 187375, Note_on_c, 0, 89, 0
2, 187376, Note_on_c, 0, 82, 64
2, 187392, Note_on_c, 0, 65, 0
2, 187439, Note_on_c, 0, 62, 74
2, 187439, Note_on_c, 0, 65, 89
2, 187441, Note_on_c, 0, 70, 89
2, 187445, Note_on_c, 0, 86, 0
2, 187445, Note_on_c, 0, 74, 0
2, 187445, Note_on_c, 0, 82, 0
2, 187488, Note_on_c, 0, 94, 0
2, 187493, Note_on_c, 0, 65, 0
2, 187494, Note_on_c, 0, 82, 68
2, 187494, Note_on_c, 0, 89, 68
2, 187495, Note_on_c, 0, 77, 0
2, 187495, Note_on_c, 0, 74, 66
2, 187495, Note_on_c, 0, 86, 68
2, 187538, Note_on_c, 0, 62, 0
2, 187547, Note_on_c, 0, 86, 0
2, 187555, Note_on_c, 0, 77, 69
2, 187587, Note_on_c, 0, 58, 75
2, 187587, Note_on_c, 0, 62, 80
2, 187588, Note_on_c, 0, 65, 93
2, 187602, Note_on_c, 0, 77, 0
2, 187602, Note_on_c, 0, 82, 0
2, 187606, Note_on_c, 0, 70, 0
2, 187639, Note_on_c, 0, 62, 0
2, 187648, Note_on_c, 0, 89, 0
2, 187649, Note_on_c, 0, 74, 0
2, 187654, Note_on_c, 0, 70, 75
2, 187654, Note_on_c, 0, 77, 71
2, 187654, Note_on_c, 0, 82, 75
2, 187654, Note_on_c, 0, 86, 72
2, 187712, Note_on_c, 0, 58, 0
2, 187713, Note_on_c, 0, 82, 0
2, 187721, Note_on_c, 0, 74, 77
2, 187758, Note_on_c, 0, 65, 0
2, 187764, Note_on_c, 0, 53, 81
2, 187764, Note_on_c, 0, 58, 78
2, 187764, Note_on_c, 0, 62, 76
2, 187786, Note_on_c, 0, 77, 0
2, 187786, Note_on_c, 0, 74, 0
2, 187813, Note_on_c, 0, 58, 0
2, 187825, Note_on_c, 0, 86, 0
2, 187828, Note_on_c, 0, 65, 82
2, 187828, Note_on_c, 0, 77, 82
2, 187829, Note_on_c, 0, 74, 83
2, 187830, Note_on_c, 0, 70, 0
2, 187833, Note_on_c, 0, 82, 80
2, 187888, Note_on_c, 0, 77, 0
2, 187896, Note_on_c, 0, 53, 0
2, 187902, Note_on_c, 0, 70, 71
2, 187942, Note_on_c, 0, 62, 0
2, 187943, Note_on_c, 0, 58, 75
2, 187944, Note_on_c, 0, 50, 79
2, 187944, Note_on_c, 0, 53, 76
2, 187968, Note_on_c, 0, 74, 0
2, 187971, Note_on_c, 0, 70, 0
2, 188004, Note_on_c, 0, 53, 0
2, 188014, Note_on_c, 0, 82, 0
2, 188014, Note_on_c, 0, 65, 0
2, 188015, Note_on_c, 0, 62, 72
2, 188015, Note_on_c, 0, 74, 72
2, 188016, Note_on_c, 0, 70, 75
2, 188016, Note_on_c, 0, 77, 68
2, 188065, Note_on_c, 0, 74, 0
2, 188068, Note_on_c, 0, 65, 74
2, 188073, Note_on_c, 0, 58, 0
2, 188088, Control_c, 0, 64, 0
2, 188118, Note_on_c, 0, 50, 0
2, 188121, Note_on_c, 0, 46, 67
2, 188125, Note_on_c, 0, 58, 71
2, 188126, Note_on_c, 0, 53, 69
2, 188139, Note_on_c, 0, 70, 0
2, 188139, Note_on_c, 0, 65, 0
2, 188147, Note_on_c, 0, 58, 0
2, 188182, Note_on_c, 0, 65, 69
2, 188185, Note_on_c, 0, 58, 69
2, 188185, Note_on_c, 0, 70, 74
2, 188185, Note_on_c, 0, 74, 72
2, 188186, Note_on_c, 0, 62, 0
2, 188187, Note_on_c, 0, 77, 0
2, 188208, Note_on_c, 0, 53, 0
2, 188215, Note_on_c, 0, 46, 0
2, 188261, Note_on_c, 0, 58, 0
2, 188264, Note_on_c, 0, 62, 61
2, 188327, Note_on_c, 0, 41, 91
2, 188331, Note_on_c, 0, 53, 88
2, 188378, Note_on_c, 0, 62, 0
2, 188378, Note_on_c, 0, 70, 0
2, 188379, Note_on_c, 0, 74, 0
2, 188379, Note_on_c, 0, 65, 0
2, 188380, Note_on_c, 0, 60, 50
2, 188381, Note_on_c, 0, 72, 75
2, 188435, Note_on_c, 0, 65, 49
2, 188435, Note_on_c, 0, 70, 47
2, 188470, Note_on_c, 0, 60, 0
2, 188516, Note_on_c, 0, 53, 0
2, 188516, Note_on_c, 0, 60, 72
2, 188517, Note_on_c, 0, 48, 72
2, 188530, Note_on_c, 0, 65, 0
2, 188568, Control_c, 0, 64, 127
2, 188577, Note_on_c, 0, 65, 81
2, 188577, Note_on_c, 0, 77, 76
2, 188582, Note_on_c, 0, 72, 0
2, 188587, Note_on_c, 0, 70, 0
2, 188644, Note_on_c, 0, 77, 0
2, 188647, Note_on_c, 0, 72, 49
2, 188652, Note_on_c, 0, 70, 47
2, 188658, Note_on_c, 0, 65, 0
2, 188697, Note_on_c, 0, 60, 0
2, 188700, Note_on_c, 0, 53, 77
2, 188701, Note_on_c, 0, 65, 86
2, 188702, Note_on_c, 0, 48, 0
2, 188719, Note_on_c, 0, 72, 0
2, 188766, Note_on_c, 0, 70, 0
2, 188767, Note_on_c, 0, 72, 80
2, 188767, Note_on_c, 0, 84, 82
2, 188823, Note_on_c, 0, 84, 0
2, 188829, Note_on_c, 0, 77, 46
2, 188829, Note_on_c, 0, 82, 45
2, 188834, Note_on_c, 0, 72, 0
2, 188878, Note_on_c, 0, 53, 0
2, 188879, Note_on_c, 0, 65, 0
2, 188883, Note_on_c, 0, 60, 80
2, 188884, Note_on_c, 0, 72, 82
2, 188904, Note_on_c, 0, 77, 0
2, 188916, Note_on_c, 0, 41, 0
2, 188937, Note_on_c, 0, 82, 0
2, 188943, Note_on_c, 0, 89, 81
2, 188944, Note_on_c, 0, 77, 81
2, 188965, Control_c, 0, 64, 0
2, 188981, Note_on_c, 0, 89, 0
2, 188985, Note_on_c, 0, 60, 0
2, 188986, Note_on_c, 0, 72, 0
2, 188986, Note_on_c, 0, 77, 0
2, 188989, Note_on_c, 0, 82, 42
2, 188989, Note_on_c, 0, 84, 49
2, 189072, Note_on_c, 0, 41, 81
2, 189073, Note_on_c, 0, 53, 79
2, 189132, Note_on_c, 0, 84, 0
2, 189132, Note_on_c, 0, 82, 0
2, 189133, Note_on_c, 0, 60, 49
2, 189134, Note_on_c, 0, 72, 60
2, 189177, Note_on_c, 0, 65, 43
2, 189182, Note_on_c, 0, 69, 43
2, 189211, Note_on_c, 0, 60, 0
2, 189247, Note_on_c, 0, 53, 0
2, 189250, Note_on_c, 0, 48, 76
2, 189258, Note_on_c, 0, 60, 74
2, 189271, Note_on_c, 0, 65, 0
2, 189316, Note_on_c, 0, 65, 75
2, 189319, Control_c, 0, 64, 127
2, 189320, Note_on_c, 0, 77, 75
2, 189321, Note_on_c, 0, 72, 0
2, 189322, Note_on_c, 0, 69, 0
2, 189369, Note_on_c, 0, 69, 49
2, 189369, Note_on_c, 0, 72, 48
2, 189389, Note_on_c, 0, 65, 0
2, 189431, Note_on_c, 0, 60, 0
2, 189433, Note_on_c, 0, 53, 79
2, 189434, Note_on_c, 0, 48, 0
2, 189434, Note_on_c, 0, 65, 85
2, 189448, Note_on_c, 0, 72, 0
2, 189499, Note_on_c, 0, 77, 0
2, 189499, Note_on_c, 0, 69, 0
2, 189500, Note_on_c, 0, 72, 82
2, 189501, Note_on_c, 0, 84, 86
2, 189555, Note_on_c, 0, 84, 0
2, 189561, Note_on_c, 0, 77, 61
2, 189562, Note_on_c, 0, 81, 62
2, 189575, Note_on_c, 0, 72, 0
2, 189620, Note_on_c, 0, 53, 0
2, 189620, Note_on_c, 0, 65, 0
2, 189623, Note_on_c, 0, 60, 83
2, 189624, Note_on_c, 0, 72, 81
2, 189628, Note_on_c, 0, 77, 0
2, 189647, Note_on_c, 0, 41, 0
2, 189663, Note_on_c, 0, 81, 0
2, 189668, Note_on_c, 0, 77, 78
2, 189669, Note_on_c, 0, 89, 83
2, 189689, Control_c, 0, 64, 0
2, 189709, Note_on_c, 0, 77, 0
2, 189717, Note_on_c, 0, 81, 85
2, 189725, Note_on_c, 0, 84, 80
2, 189793, Note_on_c, 0, 60, 0
2, 189794, Note_on_c, 0, 72, 0
2, 189797, Note_on_c, 0, 62, 84
2, 189797, Note_on_c, 0, 65, 79
2, 189802, Note_on_c, 0, 58, 83
2, 189802, Note_on_c, 0, 70, 78
2, 189803, Note_on_c, 0, 81, 0
2, 189803, Note_on_c, 0, 84, 0
2, 189803, Note_on_c, 0, 89, 0
2, 189804, Note_on_c, 0, 77, 82
2, 189804, Note_on_c, 0, 82, 83
2, 189809, Note_on_c, 0, 74, 82
2, 189876, Note_on_c, 0, 62, 0
2, 189877, Note_on_c, 0, 65, 0
2, 189877, Note_on_c, 0, 70, 0
2, 189877, Note_on_c, 0, 58, 0
2, 189886, Note_on_c, 0, 82, 0
2, 189886, Note_on_c, 0, 77, 0
2, 189887, Note_on_c, 0, 74, 0
2, 190021, Note_on_c, 0, 42, 80
2, 190031, Note_on_c, 0, 54, 81
2, 190031, Note_on_c, 0, 60, 84
2, 190032, Note_on_c, 0, 46, 79
2, 190032, Note_on_c, 0, 72, 80
2, 190098, Control_c, 0, 64, 127
2, 190103, Note_on_c, 0, 63, 48
2, 190154, Note_on_c, 0, 72, 0
2, 190160, Note_on_c, 0, 70, 60
2, 190257, Note_on_c, 0, 72, 69
2, 190300, Note_on_c, 0, 75, 71
2, 190358, Note_on_c, 0, 82, 67
2, 190382, Note_on_c, 0, 70, 0
2, 190423, Note_on_c, 0, 82, 0
2, 190428, Note_on_c, 0, 75, 0
2, 190428, Note_on_c, 0, 63, 0
2, 190428, Note_on_c, 0, 72, 0
2, 190431, Note_on_c, 0, 66, 74
2, 190435, Note_on_c, 0, 78, 78
2, 190436, Note_on_c, 0, 70, 74
2, 190439, Note_on_c, 0, 96, 72
2, 190443, Note_on_c, 0, 84, 78
2, 190485, Note_on_c, 0, 87, 74
2, 190525, Note_on_c, 0, 96, 0
2, 190526, Note_on_c, 0, 94, 72
2, 190531, Control_c, 0, 64, 0
2, 190546, Note_on_c, 0, 70, 0
2, 190587, Note_on_c, 0, 42, 0
2, 190587, Note_on_c, 0, 46, 0
2, 190587, Note_on_c, 0, 60, 0
2, 190587, Note_on_c, 0, 54, 0
2, 190588, Note_on_c, 0, 66, 0
2, 190588, Note_on_c, 0, 78, 0
2, 190589, Note_on_c, 0, 77, 79
2, 190590, Note_on_c, 0, 70, 84
2, 190591, Note_on_c, 0, 94, 0
2, 190591, Note_on_c, 0, 87, 0
2, 190591, Note_on_c, 0, 74, 77
2, 190596, Note_on_c, 0, 84, 0
2, 190597, Note_on_c, 0, 89, 78
2, 190598, Note_on_c, 0, 82, 81
2, 190598, Note_on_c, 0, 86, 78
2, 190598, Note_on_c, 0, 98, 82
2, 190657, Note_on_c, 0, 77, 0
2, 190662, Note_on_c, 0, 70, 0
2, 190666, Note_on_c, 0, 89, 0
2, 190666, Note_on_c, 0, 74, 0
2, 190666, Note_on_c, 0, 98, 0
2, 190674, Note_on_c, 0, 82, 0
2, 190675, Note_on_c, 0, 86, 0
2, 190754, Note_on_c, 0, 52, 77
2, 190775, Note_on_c, 0, 58, 78
2, 190783, Note_on_c, 0, 90, 82
2, 190792, Note_on_c, 0, 61, 72
2, 190792, Note_on_c, 0, 102, 82
2, 190793, Note_on_c, 0, 97, 79
2, 190800, Note_on_c, 0, 66, 82
2, 190837, Control_c, 0, 64, 127
2, 190850, Note_on_c, 0, 90, 0
2, 190851, Note_on_c, 0, 94, 47
2, 190890, Note_on_c, 0, 94, 0
2, 190891, Note_on_c, 0, 97, 0
2, 190891, Note_on_c, 0, 102, 0
2, 190896, Note_on_c, 0, 90, 68
2, 190937, Note_on_c, 0, 90, 0
2, 190988, Note_on_c, 0, 85, 76
2, 190988, Note_on_c, 0, 90, 73
2, 191043, Note_on_c, 0, 82, 72
2, 191080, Note_on_c, 0, 78, 71
2, 191110, Note_on_c, 0, 78, 0
2, 191122, Note_on_c, 0, 52, 0
2, 191157, Note_on_c, 0, 78, 78
2, 191162, Note_on_c, 0, 61, 0
2, 191162, Note_on_c, 0, 73, 82
2, 191163, Note_on_c, 0, 90, 0
2, 191163, Note_on_c, 0, 58, 0
2, 191163, Note_on_c, 0, 66, 0
2, 191163, Note_on_c, 0, 85, 0
2, 191163, Note_on_c, 0, 82, 0
2, 191164, Note_on_c, 0, 40, 71
2, 191169, Note_on_c, 0, 52, 75
2, 191208, Control_c, 0, 64, 0
2, 191232, Note_on_c, 0, 70, 84
2, 191266, Note_on_c, 0, 66, 83
2, 191311, Note_on_c, 0, 70, 0
2, 191349, Note_on_c, 0, 40, 0
2, 191350, Note_on_c, 0, 52, 0
2, 191351, Note_on_c, 0, 46, 78
2, 191351, Note_on_c, 0, 58, 82
2, 191356, Note_on_c, 0, 73, 0
2, 191356, Note_on_c, 0, 78, 0
2, 191356, Note_on_c, 0, 66, 0
2, 191357, Note_on_c, 0, 77, 82
2, 191358, Note_on_c, 0, 70, 81
2, 191358, Note_on_c, 0, 74, 79
2, 191359, Note_on_c, 0, 65, 80
2, 191427, Note_on_c, 0, 58, 0
2, 191431, Note_on_c, 0, 77, 0
2, 191431, Note_on_c, 0, 70, 0
2, 191431, Note_on_c, 0, 46, 0
2, 191431, Note_on_c, 0, 65, 0
2, 191431, Note_on_c, 0, 74, 0
2, 191561, Note_on_c, 0, 42, 84
2, 191561, Note_on_c, 0, 46, 77
2, 191561, Note_on_c, 0, 54, 83
2, 191561, Note_on_c, 0, 60, 84
2, 191562, Note_on_c, 0, 72, 80
2, 191595, Note_on_c, 0, 72, 0
2, 191628, Note_on_c, 0, 63, 48
2, 191644, Control_c, 0, 64, 127
2, 191682, Note_on_c, 0, 70, 65
2, 191736, Note_on_c, 0, 72, 73
2, 191792, Note_on_c, 0, 75, 75
2, 191866, Note_on_c, 0, 70, 0
2, 191901, Note_on_c, 0, 75, 0
2, 191901, Note_on_c, 0, 72, 0
2, 191902, Note_on_c, 0, 63, 0
2, 191904, Note_on_c, 0, 66, 82
2, 191904, Note_on_c, 0, 70, 77
2, 191904, Note_on_c, 0, 78, 78
2, 191904, Note_on_c, 0, 84, 78
2, 191907, Note_on_c, 0, 96, 82
2, 191953, Control_c, 0, 64, 0
2, 191956, Note_on_c, 0, 87, 84
2, 192001, Note_on_c, 0, 96, 0
2, 192007, Note_on_c, 0, 94, 79
2, 192028, Note_on_c, 0, 94, 0
2, 192033, Note_on_c, 0, 70, 0
2, 192073, Note_on_c, 0, 87, 0
2, 192073, Note_on_c, 0, 54, 0
2, 192073, Note_on_c, 0, 60, 0
2, 192074, Note_on_c, 0, 66, 0
2, 192074, Note_on_c, 0, 84, 0
2, 192074, Note_on_c, 0, 78, 0
2, 192075, Note_on_c, 0, 82, 85
2, 192076, Note_on_c, 0, 86, 85
2, 192077, Note_on_c, 0, 42, 0
2, 192077, Note_on_c, 0, 46, 0
2, 192077, Note_on_c, 0, 74, 87
2, 192078, Note_on_c, 0, 89, 91
2, 192079, Note_on_c, 0, 70, 90
2, 192079, Note_on_c, 0, 77, 90
2, 192079, Note_on_c, 0, 94, 88
2, 192079, Note_on_c, 0, 98, 85
2, 192133, Note_on_c, 0, 82, 0
2, 192134, Note_on_c, 0, 86, 0
2, 192147, Note_on_c, 0, 94, 0
2, 192148, Note_on_c, 0, 98, 0
2, 192152, Note_on_c, 0, 70, 0
2, 192152, Note_on_c, 0, 89, 0
2, 192152, Note_on_c, 0, 77, 0
2, 192152, Note_on_c, 0, 74, 0
2, 192261, Note_on_c, 0, 54, 81
2, 192276, Note_on_c, 0, 61, 78
2, 192279, Note_on_c, 0, 97, 87
2, 192279, Note_on_c, 0, 102, 88
2, 192287, Note_on_c, 0, 66, 85
2, 192296, Control_c, 0, 64, 127
2, 192336, Note_on_c, 0, 94, 52
2, 192360, Note_on_c, 0, 90, 64
2, 192374, Note_on_c, 0, 102, 0
2, 192408, Note_on_c, 0, 102, 69
2, 192409, Note_on_c, 0, 90, 0
2, 192442, Note_on_c, 0, 97, 0
2, 192442, Note_on_c, 0, 102, 0
2, 192446, Note_on_c, 0, 94, 0
2, 192449, Note_on_c, 0, 90, 70
2, 192453, Note_on_c, 0, 85, 72
2, 192506, Note_on_c, 0, 82, 74
2, 192551, Note_on_c, 0, 78, 78
2, 192580, Note_on_c, 0, 78, 0
2, 192617, Note_on_c, 0, 61, 0
2, 192617, Note_on_c, 0, 54, 0
2, 192618, Note_on_c, 0, 66, 0
2, 192618, Note_on_c, 0, 40, 71
2, 192619, Note_on_c, 0, 52, 75
2, 192622, Note_on_c, 0, 90, 0
2, 192625, Note_on_c, 0, 85, 0
2, 192625, Note_on_c, 0, 82, 0
2, 192628, Note_on_c, 0, 73, 71
2, 192628, Note_on_c, 0, 78, 74
2, 192649, Control_c, 0, 64, 0
2, 192703, Note_on_c, 0, 70, 75
2, 192728, Note_on_c, 0, 66, 74
2, 192762, Note_on_c, 0, 70, 0
2, 192799, Note_on_c, 0, 40, 0
2, 192800, Note_on_c, 0, 52, 0
2, 192801, Note_on_c, 0, 46, 81
2, 192801, Note_on_c, 0, 50, 81
2, 192801, Note_on_c, 0, 58, 80
2, 192802, Note_on_c, 0, 53, 82
2, 192803, Note_on_c, 0, 78, 0
2, 192803, Note_on_c, 0, 73, 0
2, 192808, Note_on_c, 0, 66, 0
2, 192809, Note_on_c, 0, 77, 81
2, 192810, Note_on_c, 0, 70, 77
2, 192810, Note_on_c, 0, 74, 84
2, 192811, Note_on_c, 0, 65, 80
2, 192861, Note_on_c, 0, 50, 0
2, 192861, Note_on_c, 0, 53, 0
2, 192877, Note_on_c, 0, 77, 0
2, 192877, Note_on_c, 0, 58, 0
2, 192878, Note_on_c, 0, 65, 0
2, 192878, Note_on_c, 0, 74, 0
2, 192882, Note_on_c, 0, 70, 0
2, 192882, Note_on_c, 0, 46, 0
2, 192957, Note_on_c, 0, 54, 80
2, 192979, Note_on_c, 0, 58, 84
2, 192995, Note_on_c, 0, 61, 79
2, 192995, Note_on_c, 0, 94, 83
2, 192996, Note_on_c, 0, 90, 83
2, 192996, Note_on_c, 0, 97, 77
2, 192996, Note_on_c, 0, 102, 78
2, 193017, Note_on_c, 0, 66, 80
2, 193026, Note_on_c, 0, 94, 0
2, 193066, Control_c, 0, 64, 127
2, 193076, Note_on_c, 0, 90, 0
2, 193077, Note_on_c, 0, 94, 68
2, 193128, Note_on_c, 0, 90, 70
2, 193155, Note_on_c, 0, 90, 0
2, 193200, Note_on_c, 0, 94, 0
2, 193200, Note_on_c, 0, 102, 0
2, 193200, Note_on_c, 0, 97, 0
2, 193203, Note_on_c, 0, 90, 69
2, 193208, Note_on_c, 0, 85, 68
2, 193261, Note_on_c, 0, 82, 68
2, 193312, Note_on_c, 0, 78, 73
2, 193342, Note_on_c, 0, 78, 0
2, 193370, Note_on_c, 0, 61, 0
2, 193370, Note_on_c, 0, 58, 0
2, 193371, Note_on_c, 0, 66, 0
2, 193372, Note_on_c, 0, 40, 73
2, 193373, Note_on_c, 0, 52, 76
2, 193374, Note_on_c, 0, 54, 0
2, 193387, Note_on_c, 0, 90, 0
2, 193387, Note_on_c, 0, 85, 0
2, 193387, Note_on_c, 0, 82, 0
2, 193393, Note_on_c, 0, 73, 75
2, 193393, Note_on_c, 0, 78, 77
2, 193407, Control_c, 0, 64, 0
2, 193448, Note_on_c, 0, 70, 77
2, 193502, Note_on_c, 0, 66, 72
2, 193519, Note_on_c, 0, 70, 0
2, 193561, Note_on_c, 0, 66, 0
2, 193565, Note_on_c, 0, 46, 80
2, 193565, Note_on_c, 0, 53, 84
2, 193565, Note_on_c, 0, 65, 80
2, 193566, Note_on_c, 0, 40, 0
2, 193566, Note_on_c, 0, 52, 0
2, 193569, Note_on_c, 0, 58, 80
2, 193569, Note_on_c, 0, 70, 79
2, 193570, Note_on_c, 0, 73, 0
2, 193577, Note_on_c, 0, 77, 84
2, 193578, Note_on_c, 0, 74, 80
2, 193583, Note_on_c, 0, 78, 0
2, 193616, Note_on_c, 0, 58, 0
2, 193637, Note_on_c, 0, 53, 0
2, 193646, Note_on_c, 0, 70, 0
2, 193646, Note_on_c, 0, 46, 0
2, 193646, Note_on_c, 0, 65, 0
2, 193655, Note_on_c, 0, 77, 0
2, 193655, Note_on_c, 0, 74, 0
2, 193713, Note_on_c, 0, 52, 80
2, 193742, Note_on_c, 0, 58, 81
2, 193751, Note_on_c, 0, 61, 81
2, 193758, Note_on_c, 0, 90, 82
2, 193758, Note_on_c, 0, 94, 82
2, 193758, Note_on_c, 0, 102, 79
2, 193759, Note_on_c, 0, 66, 82
2, 193767, Note_on_c, 0, 97, 84
2, 193787, Note_on_c, 0, 94, 0
2, 193812, Note_on_c, 0, 90, 0
2, 193815, Control_c, 0, 64, 127
2, 193837, Note_on_c, 0, 94, 69
2, 193863, Note_on_c, 0, 90, 70
2, 193884, Note_on_c, 0, 90, 0
2, 193929, Note_on_c, 0, 94, 0
2, 193930, Note_on_c, 0, 102, 0
2, 193930, Note_on_c, 0, 97, 0
2, 193935, Note_on_c, 0, 85, 70
2, 193936, Note_on_c, 0, 90, 69
2, 194001, Note_on_c, 0, 82, 72
2, 194047, Note_on_c, 0, 78, 66
2, 194069, Note_on_c, 0, 78, 0
2, 194082, Note_on_c, 0, 52, 0
2, 194114, Note_on_c, 0, 90, 0
2, 194114, Note_on_c, 0, 85, 0
2, 194114, Note_on_c, 0, 82, 0
2, 194114, Control_c, 0, 64, 0
2, 194121, Note_on_c, 0, 73, 78
2, 194121, Note_on_c, 0, 78, 76
2, 194124, Note_on_c, 0, 58, 0
2, 194125, Note_on_c, 0, 40, 78
2, 194126, Note_on_c, 0, 61, 0
2, 194127, Note_on_c, 0, 66, 0
2, 194130, Note_on_c, 0, 52, 80
2, 194184, Note_on_c, 0, 70, 78
2, 194251, Note_on_c, 0, 70, 0
2, 194292, Note_on_c, 0, 78, 0
2, 194297, Note_on_c, 0, 40, 0
2, 194297, Note_on_c, 0, 73, 0
2, 194297, Note_on_c, 0, 52, 0
2, 194298, Note_on_c, 0, 77, 78
2, 194299, Note_on_c, 0, 46, 80
2, 194299, Note_on_c, 0, 53, 82
2, 194299, Note_on_c, 0, 58, 79
2, 194299, Note_on_c, 0, 70, 84
2, 194300, Note_on_c, 0, 65, 77
2, 194300, Note_on_c, 0, 74, 77
2, 194459, Note_on_c, 0, 77, 0
2, 194460, Note_on_c, 0, 65, 0
2, 194460, Note_on_c, 0, 53, 0
2, 194460, Note_on_c, 0, 58, 0
2, 194460, Note_on_c, 0, 46, 0
2, 194460, Note_on_c, 0, 74, 0
2, 194460, Note_on_c, 0, 70, 0
2, 194480, Note_on_c, 0, 40, 76
2, 194480, Note_on_c, 0, 78, 77
2, 194481, Note_on_c, 0, 52, 77
2, 194484, Note_on_c, 0, 90, 79
2, 194485, Note_on_c, 0, 82, 84
2, 194485, Note_on_c, 0, 86, 83
2, 194486, Control_c, 0, 64, 127
2, 194565, Control_c, 0, 64, 0
2, 194614, Note_on_c, 0, 86, 0
2, 194614, Note_on_c, 0, 82, 0
2, 194659, Note_on_c, 0, 78, 0
2, 194659, Note_on_c, 0, 90, 0
2, 194660, Note_on_c, 0, 89, 79
2, 194664, Note_on_c, 0, 77, 83
2, 194664, Note_on_c, 0, 82, 82
2, 194664, Note_on_c, 0, 86, 84
2, 194671, Note_on_c, 0, 52, 0
2, 194672, Note_on_c, 0, 46, 73
2, 194672, Note_on_c, 0, 58, 74
2, 194675, Note_on_c, 0, 40, 0
2, 194793, Note_on_c, 0, 82, 0
2, 194851, Note_on_c, 0, 77, 0
2, 194851, Note_on_c, 0, 89, 0
2, 194851, Note_on_c, 0, 86, 0
2, 194854, Note_on_c, 0, 85, 83
2, 194855, Note_on_c, 0, 90, 82
2, 194857, Note_on_c, 0, 94, 83
2, 194858, Note_on_c, 0, 82, 80
2, 194865, Note_on_c, 0, 58, 0
2, 194868, Note_on_c, 0, 40, 71
2, 194868, Note_on_c, 0, 52, 77
2, 194869, Note_on_c, 0, 46, 0
2, 194869, Control_c, 0, 64, 127
2, 194976, Control_c, 0, 64, 0
2, 194990, Note_on_c, 0, 85, 0
2, 194990, Note_on_c, 0, 82, 0
2, 195031, Note_on_c, 0, 58, 84
2, 195032, Note_on_c, 0, 94, 0
2, 195033, Note_on_c, 0, 90, 0
2, 195034, Note_on_c, 0, 89, 81
2, 195035, Note_on_c, 0, 46, 83
2, 195036, Note_on_c, 0, 52, 0
2, 195036, Note_on_c, 0, 40, 0
2, 195037, Note_on_c, 0, 82, 81
2, 195038, Note_on_c, 0, 77, 80
2, 195153, Note_on_c, 0, 82, 0
2, 195195, Note_on_c, 0, 89, 0
2, 195196, Note_on_c, 0, 77, 0
2, 195200, Note_on_c, 0, 46, 0
2, 195204, Control_c, 0, 64, 127
2, 195208, Note_on_c, 0, 58, 0
2, 195211, Note_on_c, 0, 40, 80
2, 195211, Note_on_c, 0, 78, 82
2, 195211, Note_on_c, 0, 82, 87
2, 195211, Note_on_c, 0, 85, 82
2, 195211, Note_on_c, 0, 90, 82
2, 195219, Note_on_c, 0, 52, 82
2, 195264, Control_c, 0, 64, 0
2, 195309, Note_on_c, 0, 82, 0
2, 195355, Note_on_c, 0, 90, 0
2, 195355, Note_on_c, 0, 85, 0
2, 195358, Note_on_c, 0, 40, 0
2, 195359, Note_on_c, 0, 78, 0
2, 195359, Note_on_c, 0, 52, 0
2, 195375, Note_on_c, 0, 46, 85
2, 195376, Note_on_c, 0, 82, 85
2, 195376, Note_on_c, 0, 89, 86
2, 195377, Note_on_c, 0, 77, 86
2, 195377, Note_on_c, 0, 86, 83
2, 195380, Note_on_c, 0, 58, 85
2, 195470, Note_on_c, 0, 82, 0
2, 195514, Note_on_c, 0, 46, 0
2, 195514, Note_on_c, 0, 58, 0
2, 195515, Note_on_c, 0, 77, 0
2, 195515, Note_on_c, 0, 86, 0
2, 195515, Note_on_c, 0, 89, 0
2, 195528, Control_c, 0, 64, 127
2, 195533, Note_on_c, 0, 85, 86
2, 195540, Note_on_c, 0, 40, 89
2, 195547, Note_on_c, 0, 52, 87
2, 195547, Note_on_c, 0, 82, 87
2, 195547, Note_on_c, 0, 94, 86
2, 195548, Note_on_c, 0, 90, 88
2, 195613, Control_c, 0, 64, 0
2, 195667, Note_on_c, 0, 82, 0
2, 195712, Note_on_c, 0, 46, 88
2, 195712, Note_on_c, 0, 58, 90
2, 195712, Note_on_c, 0, 82, 89
2, 195712, Note_on_c, 0, 89, 89
2, 195713, Note_on_c, 0, 77, 89
2, 195713, Note_on_c, 0, 86, 93
2, 195733, Note_on_c, 0, 94, 0
2, 195734, Note_on_c, 0, 85, 0
2, 195734, Note_on_c, 0, 90, 0
2, 195737, Note_on_c, 0, 40, 0
2, 195738, Note_on_c, 0, 52, 0
2, 195742, Note_on_c, 0, 86, 0
2, 195742, Note_on_c, 0, 89, 0
2, 195745, Note_on_c, 0, 58, 0
2, 195745, Note_on_c, 0, 82, 0
2, 195745, Note_on_c, 0, 77, 0
2, 195745, Note_on_c, 0, 46, 0
2, 195797, Note_on_c, 0, 33, 54
2, 195797, Note_on_c, 0, 45, 56
2, 195797, Note_on_c, 0, 57, 55
2, 195829, Note_on_c, 0, 45, 0
2, 195829, Note_on_c, 0, 33, 0
2, 195848, Note_on_c, 0, 57, 0
2, 195870, Note_on_c, 0, 34, 80
2, 195871, Note_on_c, 0, 46, 81
2, 195880, Note_on_c, 0, 58, 77
2, 195902, Note_on_c, 0, 46, 0
2, 195902, Note_on_c, 0, 34, 0
2, 195911, Note_on_c, 0, 58, 0
2, 195940, Note_on_c, 0, 37, 77
2, 195940, Note_on_c, 0, 49, 83
2, 195940, Note_on_c, 0, 61, 79
2, 195972, Note_on_c, 0, 61, 0
2, 195972, Control_c, 0, 64, 127
2, 195976, Note_on_c, 0, 49, 0
2, 195976, Note_on_c, 0, 37, 0
2, 196026, Note_on_c, 0, 38, 52
2, 196026, Note_on_c, 0, 62, 57
2, 196027, Note_on_c, 0, 50, 53
2, 196056, Note_on_c, 0, 50, 0
2, 196056, Note_on_c, 0, 62, 0
2, 196056, Note_on_c, 0, 38, 0
2, 196097, Note_on_c, 0, 49, 52
2, 196098, Control_c, 0, 64, 0
2, 196105, Note_on_c, 0, 37, 56
2, 196110, Note_on_c, 0, 61, 77
2, 196120, Note_on_c, 0, 49, 0
2, 196132, Note_on_c, 0, 37, 0
2, 196141, Note_on_c, 0, 61, 0
2, 196191, Note_on_c, 0, 50, 79
2, 196191, Note_on_c, 0, 62, 75
2, 196200, Note_on_c, 0, 38, 80
2, 196224, Note_on_c, 0, 62, 0
2, 196224, Note_on_c, 0, 50, 0
2, 196239, Note_on_c, 0, 38, 0
2, 196275, Note_on_c, 0, 39, 79
2, 196279, Note_on_c, 0, 51, 78
2, 196279, Note_on_c, 0, 63, 74
2, 196311, Note_on_c, 0, 51, 0
2, 196311, Note_on_c, 0, 39, 0
2, 196320, Note_on_c, 0, 63, 0
2, 196344, Control_c, 0, 64, 127
2, 196360, Note_on_c, 0, 41, 92
2, 196361, Note_on_c, 0, 53, 87
2, 196362, Note_on_c, 0, 65, 90
2, 196392, Note_on_c, 0, 65, 0
2, 196392, Note_on_c, 0, 53, 0
2, 196394, Note_on_c, 0, 41, 0
2, 196424, Note_on_c, 0, 52, 50
2, 196436, Note_on_c, 0, 64, 67
2, 196440, Note_on_c, 0, 40, 73
2, 196459, Note_on_c, 0, 52, 0
2, 196464, Note_on_c, 0, 64, 0
2, 196470, Note_on_c, 0, 40, 0
2, 196483, Control_c, 0, 64, 0
2, 196516, Note_on_c, 0, 53, 82
2, 196516, Note_on_c, 0, 65, 82
2, 196520, Note_on_c, 0, 41, 81
2, 196544, Note_on_c, 0, 65, 0
2, 196551, Note_on_c, 0, 41, 0
2, 196552, Note_on_c, 0, 53, 0
2, 196581, Note_on_c, 0, 57, 81
2, 196581, Note_on_c, 0, 69, 85
2, 196584, Note_on_c, 0, 45, 85
2, 196616, Note_on_c, 0, 45, 0
2, 196616, Note_on_c, 0, 57, 0
2, 196617, Note_on_c, 0, 69, 0
2, 196674, Note_on_c, 0, 46, 85
2, 196674, Note_on_c, 0, 58, 84
2, 196675, Note_on_c, 0, 70, 90
2, 196687, Control_c, 0, 64, 127
2, 196704, Note_on_c, 0, 58, 0
2, 196708, Note_on_c, 0, 70, 0
2, 196708, Note_on_c, 0, 46, 0
2, 196757, Note_on_c, 0, 57, 53
2, 196757, Note_on_c, 0, 69, 48
2, 196766, Note_on_c, 0, 45, 47
2, 196783, Control_c, 0, 64, 0
2, 196787, Note_on_c, 0, 69, 0
2, 196787, Note_on_c, 0, 57, 0
2, 196796, Note_on_c, 0, 45, 0
2, 196833, Note_on_c, 0, 46, 84
2, 196833, Note_on_c, 0, 58, 81
2, 196834, Note_on_c, 0, 34, 82
2, 196834, Note_on_c, 0, 70, 82
2, 196863, Note_on_c, 0, 58, 0
2, 196867, Note_on_c, 0, 46, 0
2, 196867, Note_on_c, 0, 34, 0
2, 196867, Note_on_c, 0, 70, 0
2, 196903, Note_on_c, 0, 49, 77
2, 196911, Note_on_c, 0, 61, 76
2, 196912, Note_on_c, 0, 37, 82
2, 196916, Note_on_c, 0, 73, 82
2, 196929, Note_on_c, 0, 49, 0
2, 196946, Note_on_c, 0, 61, 0
2, 196946, Note_on_c, 0, 37, 0
2, 196946, Note_on_c, 0, 73, 0
2, 196992, Control_c, 0, 64, 127
2, 196992, Note_on_c, 0, 38, 86
2, 196992, Note_on_c, 0, 50, 86
2, 196992, Note_on_c, 0, 62, 82
2, 196993, Note_on_c, 0, 74, 85
2, 197023, Note_on_c, 0, 62, 0
2, 197023, Note_on_c, 0, 38, 0
2, 197023, Note_on_c, 0, 50, 0
2, 197024, Note_on_c, 0, 74, 0
2, 197073, Note_on_c, 0, 37, 83
2, 197073, Note_on_c, 0, 49, 89
2, 197073, Note_on_c, 0, 61, 83
2, 197082, Note_on_c, 0, 73, 82
2, 197087, Control_c, 0, 64, 0
2, 197104, Note_on_c, 0, 61, 0
2, 197104, Note_on_c, 0, 49, 0
2, 197116, Note_on_c, 0, 37, 0
2, 197117, Note_on_c, 0, 73, 0
2, 197160, Note_on_c, 0, 38, 88
2, 197160, Note_on_c, 0, 50, 84
2, 197160, Note_on_c, 0, 62, 88
2, 197170, Note_on_c, 0, 74, 85
2, 197183, Note_on_c, 0, 50, 0
2, 197190, Note_on_c, 0, 38, 0
2, 197191, Note_on_c, 0, 62, 0
2, 197192, Note_on_c, 0, 74, 0
2, 197240, Note_on_c, 0, 39, 87
2, 197240, Note_on_c, 0, 51, 81
2, 197241, Note_on_c, 0, 63, 88
2, 197241, Note_on_c, 0, 75, 84
2, 197267, Note_on_c, 0, 75, 0
2, 197267, Note_on_c, 0, 39, 0
2, 197267, Note_on_c, 0, 51, 0
2, 197267, Note_on_c, 0, 63, 0
2, 197308, Note_on_c, 0, 41, 84
2, 197309, Control_c, 0, 64, 127
2, 197309, Note_on_c, 0, 53, 88
2, 197309, Note_on_c, 0, 65, 83
2, 197309, Note_on_c, 0, 77, 83
2, 197341, Note_on_c, 0, 41, 0
2, 197342, Note_on_c, 0, 53, 0
2, 197342, Note_on_c, 0, 65, 0
2, 197342, Note_on_c, 0, 77, 0
2, 197392, Note_on_c, 0, 40, 84
2, 197393, Note_on_c, 0, 52, 86
2, 197393, Note_on_c, 0, 64, 85
2, 197393, Note_on_c, 0, 76, 85
2, 197416, Control_c, 0, 64, 0
2, 197421, Note_on_c, 0, 64, 0
2, 197421, Note_on_c, 0, 52, 0
2, 197424, Note_on_c, 0, 40, 0
2, 197433, Note_on_c, 0, 76, 0
2, 197470, Note_on_c, 0, 41, 85
2, 197472, Note_on_c, 0, 53, 82
2, 197479, Note_on_c, 0, 77, 87
2, 197480, Note_on_c, 0, 65, 81
2, 197503, Note_on_c, 0, 41, 0
2, 197508, Note_on_c, 0, 53, 0
2, 197512, Note_on_c, 0, 77, 0
2, 197517, Note_on_c, 0, 65, 0
2, 197554, Note_on_c, 0, 81, 81
2, 197555, Note_on_c, 0, 45, 87
2, 197555, Note_on_c, 0, 69, 86
2, 197556, Note_on_c, 0, 57, 87
2, 197572, Control_c, 0, 64, 127
2, 197579, Note_on_c, 0, 57, 0
2, 197579, Note_on_c, 0, 69, 0
2, 197579, Note_on_c, 0, 45, 0
2, 197587, Note_on_c, 0, 81, 0
2, 197640, Note_on_c, 0, 82, 82
2, 197640, Note_on_c, 0, 58, 79
2, 197640, Note_on_c, 0, 70, 82
2, 197641, Note_on_c, 0, 46, 84
2, 197663, Note_on_c, 0, 46, 0
2, 197663, Note_on_c, 0, 70, 0
2, 197663, Note_on_c, 0, 58, 0
2, 197666, Note_on_c, 0, 82, 0
2, 197704, Note_on_c, 0, 45, 84
2, 197712, Note_on_c, 0, 57, 83
2, 197712, Note_on_c, 0, 69, 82
2, 197712, Note_on_c, 0, 81, 83
2, 197727, Note_on_c, 0, 45, 0
2, 197735, Note_on_c, 0, 57, 0
2, 197735, Note_on_c, 0, 69, 0
2, 197743, Note_on_c, 0, 81, 0
2, 197784, Note_on_c, 0, 82, 79
2, 197793, Note_on_c, 0, 58, 84
2, 197797, Note_on_c, 0, 46, 86
2, 197797, Note_on_c, 0, 70, 79
2, 197816, Note_on_c, 0, 82, 0
2, 197820, Note_on_c, 0, 58, 0
2, 197820, Note_on_c, 0, 46, 0
2, 197820, Note_on_c, 0, 70, 0
2, 197856, Note_on_c, 0, 49, 81
2, 197856, Note_on_c, 0, 61, 79
2, 197860, Note_on_c, 0, 73, 83
2, 197868, Note_on_c, 0, 85, 78
2, 197891, Note_on_c, 0, 73, 0
2, 197891, Note_on_c, 0, 49, 0
2, 197891, Note_on_c, 0, 61, 0
2, 197900, Note_on_c, 0, 85, 0
2, 197937, Note_on_c, 0, 62, 82
2, 197942, Note_on_c, 0, 50, 79
2, 197942, Note_on_c, 0, 86, 82
2, 197946, Note_on_c, 0, 74, 79
2, 197969, Note_on_c, 0, 86, 0
2, 197972, Note_on_c, 0, 62, 0
2, 197973, Note_on_c, 0, 50, 0
2, 197980, Note_on_c, 0, 74, 0
2, 198010, Note_on_c, 0, 51, 82
2, 198011, Note_on_c, 0, 63, 83
2, 198011, Note_on_c, 0, 75, 83
2, 198011, Note_on_c, 0, 87, 80
2, 198031, Note_on_c, 0, 51, 0
2, 198032, Note_on_c, 0, 63, 0
2, 198040, Note_on_c, 0, 87, 0
2, 198041, Note_on_c, 0, 75, 0
2, 198074, Control_c, 0, 64, 0
2, 198079, Note_on_c, 0, 52, 84
2, 198079, Note_on_c, 0, 64, 83
2, 198079, Note_on_c, 0, 76, 78
2, 198079, Note_on_c, 0, 88, 83
2, 198100, Note_on_c, 0, 64, 0
2, 198104, Note_on_c, 0, 52, 0
2, 198108, Note_on_c, 0, 88, 0
2, 198109, Note_on_c, 0, 76, 0
2, 198148, Note_on_c, 0, 53, 77
2, 198157, Note_on_c, 0, 65, 80
2, 198157, Note_on_c, 0, 77, 80
2, 198161, Note_on_c, 0, 89, 79
2, 198184, Note_on_c, 0, 53, 0
2, 198192, Note_on_c, 0, 65, 0
2, 198192, Note_on_c, 0, 77, 0
2, 198192, Note_on_c, 0, 89, 0
2, 198229, Note_on_c, 0, 58, 82
2, 198230, Note_on_c, 0, 70, 82
2, 198230, Note_on_c, 0, 94, 77
2, 198231, Note_on_c, 0, 82, 79
2, 198389, Control_c, 0, 64, 127
2, 198498, Note_on_c, 0, 94, 0
2, 198503, Note_on_c, 0, 58, 0
2, 198503, Note_on_c, 0, 70, 0
2, 198503, Note_on_c, 0, 82, 0
2, 198505, Note_on_c, 0, 46, 84
2, 198535, Note_on_c, 0, 53, 79
2, 198579, Note_on_c, 0, 58, 82
2, 198580, Note_on_c, 0, 62, 80
2, 198580, Note_on_c, 0, 70, 79
2, 198580, Note_on_c, 0, 82, 78
2, 198581, Note_on_c, 0, 74, 77
2, 198581, Note_on_c, 0, 77, 84
2, 198741, Note_on_c, 0, 53, 0
2, 198741, Note_on_c, 0, 46, 0
2, 198758, Note_on_c, 0, 77, 0
2, 198758, Note_on_c, 0, 58, 0
2, 198758, Note_on_c, 0, 82, 0
2, 198759, Note_on_c, 0, 74, 0
2, 198785, Note_on_c, 0, 62, 0
2, 198786, Note_on_c, 0, 70, 0
2, 198891, Note_on_c, 0, 46, 79
2, 198919, Note_on_c, 0, 53, 81
2, 198949, Note_on_c, 0, 74, 80
2, 198949, Note_on_c, 0, 82, 78
2, 198950, Note_on_c, 0, 70, 79
2, 198950, Note_on_c, 0, 77, 81
2, 198958, Note_on_c, 0, 58, 84
2, 198966, Note_on_c, 0, 62, 83
2, 199055, Note_on_c, 0, 46, 0
2, 199056, Note_on_c, 0, 53, 0
2, 199092, Note_on_c, 0, 58, 0
2, 199101, Note_on_c, 0, 62, 0
2, 199109, Note_on_c, 0, 70, 0
2, 199109, Note_on_c, 0, 74, 0
2, 199134, Note_on_c, 0, 82, 0
2, 199139, Note_on_c, 0, 77, 0
2, 199286, Note_on_c, 0, 46, 83
2, 199325, Note_on_c, 0, 53, 82
2, 199350, Note_on_c, 0, 82, 79
2, 199355, Note_on_c, 0, 77, 79
2, 199356, Note_on_c, 0, 74, 78
2, 199359, Note_on_c, 0, 62, 79
2, 199363, Note_on_c, 0, 58, 80
2, 199364, Note_on_c, 0, 70, 79
2, 199452, Note_on_c, 0, 46, 0
2, 199461, Note_on_c, 0, 53, 0
2, 199468, Note_on_c, 0, 62, 0
2, 199468, Note_on_c, 0, 70, 0
2, 199468, Note_on_c, 0, 58, 0
2, 199486, Note_on_c, 0, 77, 0
2, 199486, Note_on_c, 0, 74, 0
2, 199511, Note_on_c, 0, 82, 0
2, 199608, Control_c, 0, 64, 0
2, 199641, Note_on_c, 0, 46, 84
2, 199669, Note_on_c, 0, 53, 81
2, 199708, Note_on_c, 0, 58, 84
2, 199731, Note_on_c, 0, 74, 77
2, 199731, Note_on_c, 0, 77, 83
2, 199731, Note_on_c, 0, 82, 77
2, 199738, Note_on_c, 0, 62, 82
2, 199739, Note_on_c, 0, 70, 82
2, 199780, Note_on_c, 0, 46, 0
2, 199781, Note_on_c, 0, 53, 0
2, 199790, Note_on_c, 0, 58, 0
2, 199795, Note_on_c, 0, 74, 0
2, 199798, Note_on_c, 0, 62, 0
2, 199799, Note_on_c, 0, 70, 0
2, 199799, Note_on_c, 0, 77, 0
2, 199799, Note_on_c, 0, 82, 0
2, 199920, Note_on_c, 0, 51, 77
2, 199954, Note_on_c, 0, 54, 78
2, 199966, Note_on_c, 0, 58, 77
2, 199974, Note_on_c, 0, 63, 82
2, 199979, Note_on_c, 0, 70, 77
2, 199986, Note_on_c, 0, 75, 81
2, 199986, Note_on_c, 0, 78, 80
2, 199987, Note_on_c, 0, 82, 82
2, 199995, Note_on_c, 0, 51, 0
2, 200016, Note_on_c, 0, 54, 0
2, 200019, Note_on_c, 0, 70, 0
2, 200033, Note_on_c, 0, 58, 0
2, 200033, Note_on_c, 0, 75, 0
2, 200041, Note_on_c, 0, 82, 0
2, 200041, Note_on_c, 0, 78, 0
2, 200050, Note_on_c, 0, 63, 0
2, 200103, Note_on_c, 0, 46, 77
2, 200151, Note_on_c, 0, 53, 84
2, 200186, Note_on_c, 0, 58, 83
2, 200204, Note_on_c, 0, 62, 82
2, 200204, Note_on_c, 0, 74, 80
2, 200204, Note_on_c, 0, 77, 77
2, 200208, Note_on_c, 0, 70, 77
2, 200208, Note_on_c, 0, 82, 77
2, 200268, Control_c, 0, 64, 127
2, 200487, Note_on_c, 0, 58, 0
2, 200490, Note_on_c, 0, 46, 0
2, 200592, Note_on_c, 0, 70, 0
2, 200592, Note_on_c, 0, 82, 0
2, 200592, Note_on_c, 0, 53, 0
2, 200592, Note_on_c, 0, 74, 0
2, 200592, Note_on_c, 0, 77, 0
2, 200616, Note_on_c, 0, 62, 0
2, 200783, Note_on_c, 0, 34, 81
2, 200783, Note_on_c, 0, 46, 77
2, 200787, Note_on_c, 0, 58, 83
2, 201652, Control_c, 0, 64, 0
2, 202166, Note_on_c, 0, 58, 0
2, 202169, Note_on_c, 0, 34, 0
2, 202170, Note_on_c, 0, 46, 0
2, 202170, End_track
0, 0, End_of_file
