0, 0, Header, 1, 7, 192
1, 0, Start_track
1, 0, Title_t, "59292A"
1, 0, Copyright_t, "Adaptation for Disklavier pianos, by: Robert C. Kuhmann (c) 2012."
1, 0, Text_t, "Roll expression/accent tracks, where present, converted to MIDI velocties.\012"
1, 0, Time_signature, 4, 2, 24, 8
1, 0, Key_signature, 0, "major"
1, 0, Tempo, 500000
1, 0, Marker_t, "Standard MIDI:LPI 106:Tempo  65: 08-25-2003"
1, 0, End_track
2, 0, Start_track
2, 0, Title_t, "Andante Cantabile"
2, 0, Program_c, 0, 0
2, 0, Control_c, 0, 7, 115
2, 39, Control_c, 0, 67, 127
2, 251, Note_on_c, 0, 70, 69
2, 257, Control_c, 0, 64, 127
2, 260, Note_on_c, 0, 46, 56
2, 263, Note_on_c, 0, 53, 56
2, 263, Note_on_c, 0, 58, 54
2, 263, Note_on_c, 0, 62, 54
2, 274, Note_on_c, 0, 65, 58
2, 517, Note_on_c, 0, 74, 66
2, 718, Note_on_c, 0, 74, 0
2, 785, Note_on_c, 0, 74, 79
2, 994, Note_on_c, 0, 70, 0
2, 1047, Note_on_c, 0, 74, 0
2, 1056, Note_on_c, 0, 70, 71
2, 1189, Control_c, 0, 64, 0
2, 1228, Note_on_c, 0, 58, 0
2, 1240, Note_on_c, 0, 70, 0
2, 1287, Note_on_c, 0, 62, 0
2, 1287, Note_on_c, 0, 65, 0
2, 1293, Note_on_c, 0, 55, 61
2, 1293, Note_on_c, 0, 58, 55
2, 1293, Note_on_c, 0, 63, 62
2, 1293, Note_on_c, 0, 75, 75
2, 1307, Note_on_c, 0, 70, 59
2, 1413, Control_c, 0, 64, 127
2, 1700, Note_on_c, 0, 58, 0
2, 1705, Control_c, 0, 64, 0
2, 1752, Note_on_c, 0, 55, 0
2, 1761, Note_on_c, 0, 58, 55
2, 1761, Note_on_c, 0, 74, 72
2, 1773, Note_on_c, 0, 62, 53
2, 1784, Note_on_c, 0, 65, 55
2, 1828, Note_on_c, 0, 75, 0
2, 1828, Note_on_c, 0, 63, 0
2, 1828, Note_on_c, 0, 70, 0
2, 1992, Control_c, 0, 64, 127
2, 2151, Control_c, 0, 64, 0
2, 2246, Note_on_c, 0, 46, 0
2, 2249, Note_on_c, 0, 74, 0
2, 2249, Note_on_c, 0, 62, 0
2, 2249, Note_on_c, 0, 53, 0
2, 2257, Note_on_c, 0, 57, 66
2, 2257, Note_on_c, 0, 60, 60
2, 2257, Note_on_c, 0, 72, 76
2, 2260, Note_on_c, 0, 58, 0
2, 2497, Control_c, 0, 64, 127
2, 2684, Note_on_c, 0, 67, 64
2, 2687, Note_on_c, 0, 65, 0
2, 2742, Note_on_c, 0, 72, 0
2, 2854, Control_c, 0, 64, 0
2, 2896, Note_on_c, 0, 65, 64
2, 2976, Note_on_c, 0, 67, 0
2, 3133, Note_on_c, 0, 60, 0
2, 3133, Note_on_c, 0, 57, 0
2, 3142, Note_on_c, 0, 55, 53
2, 3142, Note_on_c, 0, 58, 53
2, 3142, Note_on_c, 0, 64, 59
2, 3142, Note_on_c, 0, 72, 55
2, 3194, Control_c, 0, 64, 127
2, 3200, Note_on_c, 0, 65, 0
2, 3329, Control_c, 0, 64, 0
2, 3373, Note_on_c, 0, 70, 53
2, 3429, Note_on_c, 0, 72, 0
2, 3596, Note_on_c, 0, 64, 0
2, 3596, Note_on_c, 0, 55, 0
2, 3596, Note_on_c, 0, 70, 0
2, 3604, Note_on_c, 0, 53, 54
2, 3604, Note_on_c, 0, 60, 53
2, 3604, Note_on_c, 0, 65, 52
2, 3702, Control_c, 0, 64, 127
2, 3881, Control_c, 0, 64, 0
2, 4065, Note_on_c, 0, 57, 52
2, 4135, Note_on_c, 0, 58, 0
2, 4406, Note_on_c, 0, 57, 0
2, 4437, Note_on_c, 0, 53, 0
2, 4448, Note_on_c, 0, 50, 69
2, 4451, Note_on_c, 0, 65, 0
2, 4463, Note_on_c, 0, 60, 0
2, 4471, Note_on_c, 0, 57, 65
2, 4511, Control_c, 0, 64, 127
2, 4516, Note_on_c, 0, 65, 77
2, 4756, Note_on_c, 0, 62, 79
2, 4973, Control_c, 0, 64, 0
2, 4998, Note_on_c, 0, 65, 0
2, 4998, Note_on_c, 0, 50, 0
2, 4998, Note_on_c, 0, 57, 0
2, 5007, Note_on_c, 0, 46, 65
2, 5007, Note_on_c, 0, 55, 69
2, 5007, Note_on_c, 0, 67, 78
2, 5077, Note_on_c, 0, 62, 0
2, 5280, Control_c, 0, 64, 127
2, 5453, Note_on_c, 0, 46, 0
2, 5453, Note_on_c, 0, 55, 0
2, 5465, Note_on_c, 0, 62, 56
2, 5473, Control_c, 0, 64, 0
2, 5476, Note_on_c, 0, 50, 54
2, 5488, Note_on_c, 0, 53, 51
2, 5532, Note_on_c, 0, 67, 0
2, 5914, Note_on_c, 0, 53, 0
2, 5914, Note_on_c, 0, 50, 0
2, 5923, Note_on_c, 0, 48, 63
2, 5926, Note_on_c, 0, 55, 57
2, 5926, Note_on_c, 0, 64, 61
2, 5926, Note_on_c, 0, 72, 70
2, 5996, Note_on_c, 0, 62, 0
2, 6113, Control_c, 0, 64, 127
2, 6152, Note_on_c, 0, 48, 0
2, 6161, Note_on_c, 0, 46, 61
2, 6339, Note_on_c, 0, 64, 0
2, 6339, Note_on_c, 0, 72, 0
2, 6382, Control_c, 0, 64, 0
2, 6396, Note_on_c, 0, 55, 0
2, 6396, Note_on_c, 0, 46, 0
2, 6408, Note_on_c, 0, 64, 59
2, 6408, Note_on_c, 0, 72, 63
2, 6419, Note_on_c, 0, 45, 58
2, 6419, Note_on_c, 0, 57, 64
2, 6625, Control_c, 0, 64, 127
2, 6653, Note_on_c, 0, 45, 0
2, 6653, Note_on_c, 0, 64, 0
2, 6656, Note_on_c, 0, 57, 0
2, 6662, Note_on_c, 0, 43, 55
2, 6662, Note_on_c, 0, 58, 53
2, 6665, Note_on_c, 0, 62, 55
2, 6665, Note_on_c, 0, 74, 66
2, 6696, Control_c, 0, 64, 0
2, 6723, Note_on_c, 0, 72, 0
2, 6902, Note_on_c, 0, 62, 0
2, 6902, Note_on_c, 0, 43, 0
2, 6908, Control_c, 0, 64, 127
2, 6911, Note_on_c, 0, 48, 58
2, 6911, Note_on_c, 0, 60, 56
2, 6911, Note_on_c, 0, 64, 55
2, 6911, Note_on_c, 0, 69, 60
2, 6913, Note_on_c, 0, 58, 0
2, 7006, Note_on_c, 0, 74, 0
2, 7033, Control_c, 0, 64, 0
2, 7181, Note_on_c, 0, 64, 0
2, 7181, Note_on_c, 0, 60, 0
2, 7190, Note_on_c, 0, 58, 55
2, 7190, Note_on_c, 0, 67, 63
2, 7282, Note_on_c, 0, 69, 0
2, 7288, Control_c, 0, 64, 127
2, 7374, Control_c, 0, 64, 0
2, 7477, Note_on_c, 0, 48, 0
2, 7477, Note_on_c, 0, 67, 0
2, 7488, Note_on_c, 0, 53, 51
2, 7488, Note_on_c, 0, 57, 53
2, 7488, Note_on_c, 0, 60, 52
2, 7488, Note_on_c, 0, 65, 51
2, 7556, Note_on_c, 0, 58, 0
2, 7595, Control_c, 0, 64, 127
2, 7695, Control_c, 0, 64, 0
2, 7800, Note_on_c, 0, 60, 0
2, 7809, Note_on_c, 0, 55, 55
2, 7809, Note_on_c, 0, 58, 57
2, 7898, Note_on_c, 0, 53, 0
2, 7898, Note_on_c, 0, 57, 0
2, 8090, Note_on_c, 0, 53, 56
2, 8093, Note_on_c, 0, 57, 54
2, 8127, Note_on_c, 0, 58, 0
2, 8127, Note_on_c, 0, 55, 0
2, 8420, Note_on_c, 0, 53, 0
2, 8462, Note_on_c, 0, 46, 64
2, 8476, Note_on_c, 0, 65, 0
2, 8485, Note_on_c, 0, 53, 52
2, 8499, Note_on_c, 0, 57, 0
2, 8508, Note_on_c, 0, 58, 55
2, 8527, Note_on_c, 0, 62, 55
2, 8539, Note_on_c, 0, 65, 55
2, 8575, Note_on_c, 0, 70, 71
2, 8606, Control_c, 0, 64, 127
2, 8801, Note_on_c, 0, 74, 72
2, 8999, Note_on_c, 0, 74, 0
2, 8999, Note_on_c, 0, 58, 0
2, 8999, Note_on_c, 0, 62, 0
2, 9038, Control_c, 0, 64, 0
2, 9052, Note_on_c, 0, 65, 0
2, 9052, Note_on_c, 0, 46, 0
2, 9052, Note_on_c, 0, 53, 0
2, 9055, Note_on_c, 0, 70, 0
2, 9064, Note_on_c, 0, 58, 65
2, 9064, Note_on_c, 0, 62, 65
2, 9064, Note_on_c, 0, 74, 79
2, 9086, Note_on_c, 0, 67, 58
2, 9339, Note_on_c, 0, 74, 0
2, 9345, Note_on_c, 0, 55, 61
2, 9345, Note_on_c, 0, 70, 73
2, 9364, Control_c, 0, 64, 127
2, 9429, Note_on_c, 0, 55, 0
2, 9473, Note_on_c, 0, 48, 61
2, 9484, Note_on_c, 0, 55, 57
2, 9493, Note_on_c, 0, 67, 0
2, 9509, Note_on_c, 0, 58, 0
2, 9515, Note_on_c, 0, 60, 69
2, 9531, Note_on_c, 0, 62, 0
2, 9537, Note_on_c, 0, 63, 67
2, 9549, Control_c, 0, 64, 0
2, 9549, Note_on_c, 0, 67, 64
2, 9582, Note_on_c, 0, 70, 0
2, 9591, Note_on_c, 0, 75, 85
2, 9822, Note_on_c, 0, 67, 0
2, 9828, Control_c, 0, 64, 127
2, 9831, Note_on_c, 0, 69, 74
2, 9973, Control_c, 0, 64, 0
2, 9989, Note_on_c, 0, 55, 0
2, 10042, Note_on_c, 0, 63, 0
2, 10042, Note_on_c, 0, 60, 0
2, 10042, Note_on_c, 0, 48, 0
2, 10042, Note_on_c, 0, 69, 0
2, 10054, Note_on_c, 0, 55, 66
2, 10054, Note_on_c, 0, 58, 70
2, 10054, Note_on_c, 0, 62, 63
2, 10054, Note_on_c, 0, 70, 82
2, 10054, Note_on_c, 0, 74, 79
2, 10068, Note_on_c, 0, 75, 0
2, 10249, Control_c, 0, 64, 127
2, 10302, Note_on_c, 0, 62, 0
2, 10311, Note_on_c, 0, 64, 66
2, 10369, Control_c, 0, 64, 0
2, 10539, Note_on_c, 0, 64, 0
2, 10539, Note_on_c, 0, 58, 0
2, 10542, Note_on_c, 0, 74, 0
2, 10542, Note_on_c, 0, 70, 0
2, 10548, Note_on_c, 0, 57, 58
2, 10548, Note_on_c, 0, 60, 60
2, 10548, Note_on_c, 0, 72, 81
2, 10551, Note_on_c, 0, 55, 0
2, 10570, Note_on_c, 0, 65, 59
2, 10604, Control_c, 0, 64, 127
2, 10788, Note_on_c, 0, 64, 67
2, 10800, Note_on_c, 0, 65, 0
2, 10852, Control_c, 0, 64, 0
2, 10978, Note_on_c, 0, 57, 0
2, 10978, Note_on_c, 0, 64, 0
2, 10978, Note_on_c, 0, 60, 0
2, 11009, Note_on_c, 0, 58, 62
2, 11009, Note_on_c, 0, 62, 63
2, 11009, Note_on_c, 0, 67, 75
2, 11107, Control_c, 0, 64, 127
2, 11112, Note_on_c, 0, 72, 0
2, 11238, Control_c, 0, 64, 0
2, 11260, Note_on_c, 0, 65, 72
2, 11307, Note_on_c, 0, 67, 0
2, 11499, Note_on_c, 0, 65, 0
2, 11499, Note_on_c, 0, 55, 61
2, 11508, Note_on_c, 0, 72, 67
2, 11561, Control_c, 0, 64, 127
2, 11669, Control_c, 0, 64, 0
2, 11772, Note_on_c, 0, 70, 60
2, 11867, Note_on_c, 0, 72, 0
2, 11993, Note_on_c, 0, 55, 0
2, 11993, Note_on_c, 0, 58, 0
2, 11993, Note_on_c, 0, 62, 0
2, 11993, Note_on_c, 0, 70, 0
2, 12001, Note_on_c, 0, 65, 64
2, 12004, Note_on_c, 0, 57, 53
2, 12004, Note_on_c, 0, 60, 53
2, 12085, Control_c, 0, 64, 127
2, 12216, Control_c, 0, 64, 0
2, 12265, Note_on_c, 0, 57, 0
2, 12274, Note_on_c, 0, 58, 58
2, 12508, Note_on_c, 0, 58, 0
2, 12517, Note_on_c, 0, 57, 58
2, 12729, Note_on_c, 0, 53, 55
2, 12915, Note_on_c, 0, 65, 0
2, 12968, Note_on_c, 0, 60, 0
2, 12980, Note_on_c, 0, 65, 73
2, 12983, Note_on_c, 0, 53, 0
2, 12991, Note_on_c, 0, 50, 63
2, 13033, Control_c, 0, 64, 127
2, 13223, Note_on_c, 0, 62, 75
2, 13442, Note_on_c, 0, 65, 0
2, 13445, Note_on_c, 0, 57, 0
2, 13445, Note_on_c, 0, 50, 0
2, 13454, Note_on_c, 0, 52, 71
2, 13454, Note_on_c, 0, 55, 66
2, 13454, Note_on_c, 0, 67, 78
2, 13476, Control_c, 0, 64, 0
2, 13757, Control_c, 0, 64, 127
2, 13877, Note_on_c, 0, 62, 0
2, 13936, Note_on_c, 0, 52, 0
2, 13936, Note_on_c, 0, 55, 0
2, 13936, Note_on_c, 0, 67, 0
2, 13947, Control_c, 0, 64, 0
2, 13947, Note_on_c, 0, 62, 54
2, 13953, Note_on_c, 0, 53, 51
2, 13968, Note_on_c, 0, 57, 51
2, 14391, Note_on_c, 0, 64, 64
2, 14391, Note_on_c, 0, 72, 69
2, 14402, Note_on_c, 0, 55, 62
2, 14402, Note_on_c, 0, 58, 61
2, 14470, Note_on_c, 0, 57, 0
2, 14470, Note_on_c, 0, 62, 0
2, 14470, Note_on_c, 0, 53, 0
2, 14642, Note_on_c, 0, 72, 0
2, 14651, Note_on_c, 0, 65, 64
2, 14654, Note_on_c, 0, 53, 61
2, 14654, Note_on_c, 0, 57, 65
2, 14726, Note_on_c, 0, 64, 0
2, 14726, Note_on_c, 0, 58, 0
2, 14726, Note_on_c, 0, 55, 0
2, 14882, Note_on_c, 0, 65, 0
2, 14882, Note_on_c, 0, 53, 0
2, 14882, Note_on_c, 0, 57, 0
2, 14891, Note_on_c, 0, 72, 73
2, 14894, Note_on_c, 0, 52, 60
2, 14894, Note_on_c, 0, 55, 65
2, 14903, Note_on_c, 0, 67, 64
2, 14911, Control_c, 0, 64, 127
2, 15128, Note_on_c, 0, 72, 0
2, 15137, Note_on_c, 0, 74, 66
2, 15254, Control_c, 0, 64, 0
2, 15402, Note_on_c, 0, 48, 58
2, 15402, Note_on_c, 0, 60, 55
2, 15402, Note_on_c, 0, 64, 55
2, 15402, Note_on_c, 0, 69, 62
2, 15497, Note_on_c, 0, 74, 0
2, 15497, Note_on_c, 0, 52, 0
2, 15497, Note_on_c, 0, 67, 0
2, 15497, Note_on_c, 0, 55, 0
2, 15620, Control_c, 0, 64, 127
2, 15703, Note_on_c, 0, 64, 0
2, 15715, Note_on_c, 0, 58, 52
2, 15715, Note_on_c, 0, 67, 57
2, 15770, Note_on_c, 0, 69, 0
2, 15770, Control_c, 0, 64, 0
2, 15929, Note_on_c, 0, 60, 0
2, 15940, Note_on_c, 0, 48, 0
2, 15949, Note_on_c, 0, 41, 54
2, 15963, Note_on_c, 0, 57, 58
2, 15966, Note_on_c, 0, 58, 0
2, 15997, Note_on_c, 0, 60, 54
2, 16008, Note_on_c, 0, 67, 0
2, 16017, Note_on_c, 0, 65, 53
2, 16079, Control_c, 0, 64, 127
2, 16251, Control_c, 0, 64, 0
2, 16329, Note_on_c, 0, 55, 55
2, 16329, Note_on_c, 0, 58, 52
2, 16385, Note_on_c, 0, 60, 0
2, 16388, Note_on_c, 0, 57, 0
2, 16616, Note_on_c, 0, 53, 55
2, 16616, Note_on_c, 0, 57, 58
2, 16619, Control_c, 0, 67, 0
2, 16672, Note_on_c, 0, 55, 0
2, 16672, Note_on_c, 0, 58, 0
2, 17067, Note_on_c, 0, 65, 0
2, 17098, Note_on_c, 0, 41, 0
2, 17098, Note_on_c, 0, 57, 0
2, 17098, Note_on_c, 0, 53, 0
2, 17107, Note_on_c, 0, 63, 60
2, 17129, Note_on_c, 0, 65, 58
2, 17173, Control_c, 0, 64, 127
2, 17187, Note_on_c, 0, 72, 76
2, 17488, Note_on_c, 0, 77, 77
2, 17504, Note_on_c, 0, 72, 0
2, 17680, Note_on_c, 0, 77, 0
2, 17724, Note_on_c, 0, 63, 0
2, 17733, Control_c, 0, 64, 0
2, 17733, Note_on_c, 0, 62, 63
2, 17747, Note_on_c, 0, 77, 81
2, 17990, Note_on_c, 0, 77, 0
2, 17999, Note_on_c, 0, 70, 70
2, 18018, Control_c, 0, 64, 127
2, 18191, Note_on_c, 0, 62, 0
2, 18191, Note_on_c, 0, 65, 0
2, 18202, Note_on_c, 0, 60, 85
2, 18227, Note_on_c, 0, 70, 0
2, 18236, Note_on_c, 0, 75, 75
2, 18255, Control_c, 0, 64, 0
2, 18470, Control_c, 0, 64, 127
2, 18484, Note_on_c, 0, 65, 75
2, 18521, Note_on_c, 0, 60, 0
2, 18669, Note_on_c, 0, 65, 0
2, 18730, Note_on_c, 0, 75, 0
2, 18739, Note_on_c, 0, 65, 72
2, 18739, Note_on_c, 0, 74, 69
2, 18761, Control_c, 0, 64, 0
2, 18976, Note_on_c, 0, 58, 64
2, 19174, Note_on_c, 0, 65, 0
2, 19213, Note_on_c, 0, 45, 55
2, 19227, Note_on_c, 0, 72, 66
2, 19230, Note_on_c, 0, 74, 0
2, 19239, Note_on_c, 0, 57, 53
2, 19239, Note_on_c, 0, 60, 56
2, 19242, Note_on_c, 0, 58, 0
2, 19248, Note_on_c, 0, 65, 54
2, 19476, Note_on_c, 0, 57, 0
2, 19479, Note_on_c, 0, 53, 76
2, 19554, Note_on_c, 0, 72, 0
2, 19562, Note_on_c, 0, 74, 59
2, 19568, Control_c, 0, 64, 127
2, 19621, Note_on_c, 0, 74, 0
2, 19630, Note_on_c, 0, 72, 58
2, 19644, Note_on_c, 0, 53, 0
2, 19688, Note_on_c, 0, 72, 0
2, 19700, Note_on_c, 0, 71, 64
2, 19744, Note_on_c, 0, 71, 0
2, 19752, Note_on_c, 0, 72, 59
2, 19767, Note_on_c, 0, 65, 0
2, 19798, Control_c, 0, 64, 0
2, 19809, Note_on_c, 0, 53, 57
2, 19812, Note_on_c, 0, 72, 0
2, 19821, Note_on_c, 0, 74, 76
2, 19824, Note_on_c, 0, 60, 0
2, 19829, Note_on_c, 0, 65, 65
2, 19832, Note_on_c, 0, 58, 57
2, 20064, Control_c, 0, 64, 127
2, 20086, Note_on_c, 0, 46, 53
2, 20088, Note_on_c, 0, 45, 0
2, 20100, Note_on_c, 0, 62, 52
2, 20100, Note_on_c, 0, 70, 65
2, 20144, Note_on_c, 0, 65, 0
2, 20147, Note_on_c, 0, 74, 0
2, 20225, Control_c, 0, 67, 127
2, 20303, Note_on_c, 0, 70, 0
2, 20352, Control_c, 0, 64, 0
2, 20367, Note_on_c, 0, 46, 0
2, 20367, Note_on_c, 0, 70, 68
2, 20370, Note_on_c, 0, 53, 0
2, 20370, Note_on_c, 0, 58, 0
2, 20370, Note_on_c, 0, 62, 0
2, 20378, Note_on_c, 0, 40, 66
2, 20390, Note_on_c, 0, 60, 51
2, 20393, Note_on_c, 0, 52, 54
2, 20393, Note_on_c, 0, 67, 53
2, 20661, Note_on_c, 0, 40, 0
2, 20664, Note_on_c, 0, 52, 0
2, 20666, Control_c, 0, 64, 127
2, 20669, Note_on_c, 0, 48, 75
2, 20719, Note_on_c, 0, 70, 0
2, 20719, Note_on_c, 0, 67, 0
2, 20719, Note_on_c, 0, 60, 0
2, 20728, Note_on_c, 0, 62, 58
2, 20761, Note_on_c, 0, 62, 0
2, 20770, Note_on_c, 0, 60, 57
2, 20817, Note_on_c, 0, 60, 0
2, 20823, Note_on_c, 0, 59, 62
2, 20881, Note_on_c, 0, 60, 61
2, 20884, Note_on_c, 0, 59, 0
2, 20915, Note_on_c, 0, 48, 0
2, 20946, Control_c, 0, 64, 0
2, 20960, Note_on_c, 0, 60, 0
2, 20972, Note_on_c, 0, 67, 63
2, 20983, Note_on_c, 0, 57, 63
2, 20995, Note_on_c, 0, 69, 54
2, 21006, Note_on_c, 0, 48, 69
2, 21277, Note_on_c, 0, 41, 58
2, 21280, Note_on_c, 0, 65, 54
2, 21358, Note_on_c, 0, 67, 0
2, 21466, Note_on_c, 0, 69, 0
2, 21555, Note_on_c, 0, 65, 0
2, 21611, Note_on_c, 0, 41, 0
2, 21614, Note_on_c, 0, 48, 0
2, 21614, Note_on_c, 0, 57, 0
2, 21623, Note_on_c, 0, 72, 70
2, 21625, Note_on_c, 0, 63, 57
2, 21645, Note_on_c, 0, 65, 56
2, 21731, Control_c, 0, 64, 127
2, 21917, Note_on_c, 0, 72, 0
2, 21926, Note_on_c, 0, 77, 64
2, 22141, Note_on_c, 0, 77, 0
2, 22197, Note_on_c, 0, 63, 0
2, 22205, Note_on_c, 0, 62, 61
2, 22205, Note_on_c, 0, 77, 67
2, 22211, Control_c, 0, 64, 0
2, 22456, Note_on_c, 0, 77, 0
2, 22464, Note_on_c, 0, 70, 63
2, 22492, Control_c, 0, 64, 127
2, 22677, Note_on_c, 0, 70, 0
2, 22677, Note_on_c, 0, 62, 0
2, 22682, Note_on_c, 0, 60, 65
2, 22682, Note_on_c, 0, 75, 72
2, 22725, Control_c, 0, 64, 0
2, 22886, Note_on_c, 0, 65, 0
2, 22953, Note_on_c, 0, 65, 73
2, 23012, Note_on_c, 0, 60, 0
2, 23062, Control_c, 0, 64, 127
2, 23126, Note_on_c, 0, 65, 0
2, 23179, Note_on_c, 0, 65, 74
2, 23182, Note_on_c, 0, 75, 0
2, 23190, Note_on_c, 0, 74, 70
2, 23255, Control_c, 0, 64, 0
2, 23377, Control_c, 0, 67, 0
2, 23402, Note_on_c, 0, 58, 58
2, 23622, Note_on_c, 0, 65, 0
2, 23625, Note_on_c, 0, 74, 0
2, 23634, Note_on_c, 0, 66, 72
2, 23634, Note_on_c, 0, 72, 71
2, 23645, Note_on_c, 0, 57, 75
2, 23648, Note_on_c, 0, 58, 0
2, 23726, Control_c, 0, 64, 127
2, 23855, Note_on_c, 0, 66, 0
2, 23863, Note_on_c, 0, 62, 70
2, 24039, Control_c, 0, 64, 0
2, 24045, Note_on_c, 0, 62, 0
2, 24103, Note_on_c, 0, 72, 0
2, 24109, Note_on_c, 0, 62, 70
2, 24109, Note_on_c, 0, 67, 72
2, 24112, Note_on_c, 0, 70, 70
2, 24238, Note_on_c, 0, 57, 0
2, 24343, Note_on_c, 0, 55, 63
2, 24415, Control_c, 0, 64, 127
2, 24541, Note_on_c, 0, 62, 0
2, 24591, Control_c, 0, 64, 0
2, 24597, Note_on_c, 0, 70, 0
2, 24597, Note_on_c, 0, 67, 0
2, 24597, Note_on_c, 0, 55, 0
2, 24602, Note_on_c, 0, 42, 69
2, 24605, Note_on_c, 0, 54, 75
2, 24605, Note_on_c, 0, 60, 75
2, 24608, Note_on_c, 0, 62, 75
2, 24608, Note_on_c, 0, 69, 77
2, 24892, Note_on_c, 0, 50, 72
2, 24912, Control_c, 0, 64, 127
2, 25076, Note_on_c, 0, 50, 0
2, 25120, Note_on_c, 0, 69, 0
2, 25128, Control_c, 0, 64, 0
2, 25128, Note_on_c, 0, 67, 79
2, 25131, Note_on_c, 0, 54, 0
2, 25140, Note_on_c, 0, 50, 70
2, 25140, Note_on_c, 0, 55, 71
2, 25140, Note_on_c, 0, 58, 73
2, 25461, Note_on_c, 0, 42, 0
2, 25461, Note_on_c, 0, 43, 67
2, 25591, Note_on_c, 0, 58, 0
2, 25622, Note_on_c, 0, 50, 0
2, 25622, Note_on_c, 0, 43, 0
2, 25633, Note_on_c, 0, 53, 55
2, 25636, Note_on_c, 0, 55, 0
2, 25656, Note_on_c, 0, 58, 58
2, 25672, Note_on_c, 0, 67, 0
2, 25680, Note_on_c, 0, 60, 0
2, 25683, Note_on_c, 0, 62, 0
2, 25692, Note_on_c, 0, 61, 54
2, 25728, Note_on_c, 0, 67, 69
2, 25762, Note_on_c, 0, 70, 70
2, 25809, Note_on_c, 0, 73, 83
2, 25834, Control_c, 0, 64, 127
2, 26068, Note_on_c, 0, 75, 70
2, 26093, Note_on_c, 0, 73, 0
2, 26149, Note_on_c, 0, 70, 0
2, 26149, Note_on_c, 0, 75, 0
2, 26168, Note_on_c, 0, 73, 74
2, 26252, Note_on_c, 0, 73, 0
2, 26255, Control_c, 0, 64, 0
2, 26260, Note_on_c, 0, 72, 69
2, 26344, Note_on_c, 0, 72, 0
2, 26350, Note_on_c, 0, 73, 72
2, 26433, Note_on_c, 0, 73, 0
2, 26442, Note_on_c, 0, 79, 65
2, 26562, Control_c, 0, 64, 127
2, 26762, Note_on_c, 0, 79, 0
2, 26771, Note_on_c, 0, 73, 63
2, 26980, Note_on_c, 0, 58, 0
2, 27008, Note_on_c, 0, 40, 60
2, 27014, Note_on_c, 0, 67, 0
2, 27014, Note_on_c, 0, 53, 0
2, 27023, Note_on_c, 0, 52, 60
2, 27039, Note_on_c, 0, 61, 0
2, 27045, Control_c, 0, 64, 0
2, 27081, Note_on_c, 0, 58, 80
2, 27081, Note_on_c, 0, 67, 54
2, 27128, Note_on_c, 0, 73, 0
2, 27137, Note_on_c, 0, 72, 62
2, 27382, Control_c, 0, 64, 127
2, 27424, Note_on_c, 0, 58, 0
2, 27432, Note_on_c, 0, 60, 64
2, 27510, Note_on_c, 0, 60, 0
2, 27522, Note_on_c, 0, 58, 68
2, 27592, Note_on_c, 0, 58, 0
2, 27600, Note_on_c, 0, 57, 70
2, 27606, Control_c, 0, 64, 0
2, 27678, Note_on_c, 0, 57, 0
2, 27687, Note_on_c, 0, 58, 62
2, 27701, Note_on_c, 0, 67, 0
2, 27741, Note_on_c, 0, 40, 0
2, 27755, Note_on_c, 0, 58, 0
2, 27755, Note_on_c, 0, 52, 0
2, 27764, Note_on_c, 0, 67, 71
2, 27881, Control_c, 0, 64, 127
2, 28118, Note_on_c, 0, 58, 64
2, 28210, Note_on_c, 0, 58, 0
2, 28263, Note_on_c, 0, 53, 61
2, 28291, Note_on_c, 0, 67, 0
2, 28296, Control_c, 0, 64, 0
2, 28321, Note_on_c, 0, 58, 53
2, 28364, Note_on_c, 0, 61, 67
2, 28397, Note_on_c, 0, 67, 63
2, 28412, Note_on_c, 0, 70, 63
2, 28437, Note_on_c, 0, 72, 0
2, 28445, Note_on_c, 0, 73, 61
2, 28540, Control_c, 0, 64, 127
2, 28596, Control_c, 0, 67, 127
2, 28777, Note_on_c, 0, 73, 0
2, 28777, Note_on_c, 0, 70, 0
2, 28786, Note_on_c, 0, 75, 72
2, 28856, Note_on_c, 0, 75, 0
2, 28865, Note_on_c, 0, 73, 72
2, 28923, Note_on_c, 0, 73, 0
2, 28932, Control_c, 0, 64, 0
2, 28932, Note_on_c, 0, 72, 76
2, 29007, Note_on_c, 0, 72, 0
2, 29016, Note_on_c, 0, 73, 73
2, 29093, Note_on_c, 0, 73, 0
2, 29105, Note_on_c, 0, 79, 67
2, 29241, Control_c, 0, 64, 127
2, 29386, Note_on_c, 0, 79, 0
2, 29392, Note_on_c, 0, 73, 58
2, 29581, Note_on_c, 0, 40, 53
2, 29584, Note_on_c, 0, 58, 0
2, 29628, Note_on_c, 0, 67, 0
2, 29640, Note_on_c, 0, 61, 0
2, 29645, Control_c, 0, 64, 0
2, 29648, Note_on_c, 0, 58, 73
2, 29651, Note_on_c, 0, 53, 0
2, 29693, Note_on_c, 0, 67, 63
2, 29727, Note_on_c, 0, 52, 51
2, 29774, Note_on_c, 0, 73, 0
2, 29780, Note_on_c, 0, 72, 57
2, 30050, Note_on_c, 0, 58, 0
2, 30056, Control_c, 0, 64, 127
2, 30059, Note_on_c, 0, 60, 67
2, 30151, Note_on_c, 0, 60, 0
2, 30160, Note_on_c, 0, 58, 67
2, 30243, Note_on_c, 0, 58, 0
2, 30249, Note_on_c, 0, 57, 71
2, 30261, Control_c, 0, 64, 0
2, 30325, Note_on_c, 0, 58, 64
2, 30331, Note_on_c, 0, 57, 0
2, 30342, Note_on_c, 0, 67, 0
2, 30398, Note_on_c, 0, 58, 0
2, 30426, Note_on_c, 0, 67, 65
2, 30562, Control_c, 0, 64, 127
2, 30746, Note_on_c, 0, 40, 0
2, 30746, Note_on_c, 0, 52, 0
2, 30755, Note_on_c, 0, 58, 63
2, 30814, Control_c, 0, 64, 0
2, 31026, Note_on_c, 0, 58, 0
2, 31034, Note_on_c, 0, 51, 59
2, 31034, Note_on_c, 0, 57, 62
2, 31049, Note_on_c, 0, 72, 0
2, 31057, Note_on_c, 0, 60, 57
2, 31082, Note_on_c, 0, 67, 0
2, 31088, Note_on_c, 0, 65, 54
2, 31125, Note_on_c, 0, 72, 70
2, 31141, Control_c, 0, 64, 127
2, 31434, Note_on_c, 0, 72, 0
2, 31445, Note_on_c, 0, 74, 70
2, 31510, Control_c, 0, 64, 0
2, 31524, Note_on_c, 0, 74, 0
2, 31536, Note_on_c, 0, 72, 69
2, 31625, Note_on_c, 0, 72, 0
2, 31633, Note_on_c, 0, 71, 70
2, 31711, Note_on_c, 0, 71, 0
2, 31720, Note_on_c, 0, 72, 64
2, 31820, Note_on_c, 0, 51, 0
2, 31828, Note_on_c, 0, 57, 0
2, 31828, Note_on_c, 0, 72, 0
2, 31828, Note_on_c, 0, 50, 64
2, 31840, Note_on_c, 0, 60, 0
2, 31840, Note_on_c, 0, 58, 70
2, 31840, Note_on_c, 0, 77, 70
2, 31851, Note_on_c, 0, 62, 68
2, 31926, Control_c, 0, 64, 127
2, 31945, Control_c, 0, 67, 0
2, 32257, Note_on_c, 0, 77, 0
2, 32269, Note_on_c, 0, 70, 54
2, 32305, Control_c, 0, 64, 0
2, 32531, Note_on_c, 0, 70, 0
2, 32565, Note_on_c, 0, 58, 0
2, 32573, Note_on_c, 0, 72, 60
2, 32610, Note_on_c, 0, 65, 0
2, 32613, Note_on_c, 0, 72, 0
2, 32621, Note_on_c, 0, 70, 72
2, 32624, Note_on_c, 0, 50, 0
2, 32624, Note_on_c, 0, 62, 0
2, 32630, Note_on_c, 0, 58, 73
2, 32686, Control_c, 0, 64, 127
2, 32814, Note_on_c, 0, 70, 0
2, 32820, Note_on_c, 0, 69, 69
2, 32934, Control_c, 0, 64, 0
2, 33012, Note_on_c, 0, 69, 0
2, 33021, Note_on_c, 0, 70, 63
2, 33224, Note_on_c, 0, 74, 56
2, 33280, Note_on_c, 0, 70, 0
2, 33302, Control_c, 0, 67, 127
2, 33488, Note_on_c, 0, 64, 56
2, 33500, Note_on_c, 0, 54, 52
2, 33536, Note_on_c, 0, 74, 0
2, 33576, Control_c, 0, 64, 127
2, 33762, Control_c, 0, 64, 0
2, 34002, Note_on_c, 0, 58, 0
2, 34002, Note_on_c, 0, 64, 0
2, 34002, Note_on_c, 0, 54, 0
2, 34445, Note_on_c, 0, 65, 63
2, 34501, Note_on_c, 0, 65, 0
2, 34507, Note_on_c, 0, 64, 52
2, 34521, Note_on_c, 0, 49, 52
2, 34533, Note_on_c, 0, 42, 58
2, 34533, Note_on_c, 0, 58, 53
2, 34544, Note_on_c, 0, 52, 53
2, 34614, Control_c, 0, 64, 127
2, 34726, Note_on_c, 0, 64, 0
2, 34734, Note_on_c, 0, 63, 62
2, 34901, Note_on_c, 0, 63, 0
2, 34910, Note_on_c, 0, 64, 63
2, 34977, Control_c, 0, 64, 0
2, 35091, Note_on_c, 0, 64, 0
2, 35097, Note_on_c, 0, 70, 63
2, 35292, Control_c, 0, 64, 127
2, 35421, Note_on_c, 0, 70, 0
2, 35429, Note_on_c, 0, 64, 64
2, 35457, Control_c, 0, 64, 0
2, 35892, Note_on_c, 0, 65, 52
2, 35898, Note_on_c, 0, 42, 0
2, 35904, Note_on_c, 0, 48, 55
2, 35904, Note_on_c, 0, 53, 53
2, 35904, Note_on_c, 0, 57, 52
2, 35959, Note_on_c, 0, 64, 0
2, 35959, Note_on_c, 0, 49, 0
2, 35959, Note_on_c, 0, 52, 0
2, 35959, Note_on_c, 0, 58, 0
2, 36076, Control_c, 0, 64, 127
2, 36132, Control_c, 0, 67, 0
2, 36232, Control_c, 0, 64, 0
2, 36475, Note_on_c, 0, 65, 0
2, 36475, Note_on_c, 0, 57, 0
2, 36475, Note_on_c, 0, 48, 0
2, 36475, Note_on_c, 0, 53, 0
2, 36692, Note_on_c, 0, 65, 52
2, 36926, Note_on_c, 0, 65, 0
2, 36935, Note_on_c, 0, 67, 65
2, 37185, Note_on_c, 0, 67, 0
2, 37194, Note_on_c, 0, 69, 67
2, 37397, Note_on_c, 0, 62, 60
2, 37419, Note_on_c, 0, 65, 55
2, 37447, Note_on_c, 0, 69, 0
2, 37453, Note_on_c, 0, 46, 57
2, 37453, Note_on_c, 0, 58, 62
2, 37453, Note_on_c, 0, 70, 76
2, 37456, Note_on_c, 0, 53, 59
2, 37551, Control_c, 0, 64, 127
2, 37662, Note_on_c, 0, 70, 0
2, 37668, Note_on_c, 0, 74, 68
2, 37854, Note_on_c, 0, 74, 0
2, 37919, Note_on_c, 0, 74, 74
2, 38134, Note_on_c, 0, 74, 0
2, 38142, Note_on_c, 0, 70, 70
2, 38324, Note_on_c, 0, 58, 0
2, 38346, Note_on_c, 0, 70, 0
2, 38379, Note_on_c, 0, 46, 0
2, 38379, Note_on_c, 0, 53, 0
2, 38379, Control_c, 0, 64, 0
2, 38394, Note_on_c, 0, 62, 0
2, 38394, Note_on_c, 0, 65, 0
2, 38394, Note_on_c, 0, 55, 65
2, 38394, Note_on_c, 0, 58, 63
2, 38394, Note_on_c, 0, 75, 73
2, 38405, Note_on_c, 0, 63, 65
2, 38417, Note_on_c, 0, 70, 57
2, 38689, Control_c, 0, 64, 127
2, 38798, Note_on_c, 0, 58, 0
2, 38809, Control_c, 0, 64, 0
2, 38856, Note_on_c, 0, 63, 0
2, 38856, Note_on_c, 0, 55, 0
2, 38856, Note_on_c, 0, 75, 0
2, 38868, Note_on_c, 0, 58, 57
2, 38868, Note_on_c, 0, 62, 60
2, 38868, Note_on_c, 0, 74, 66
2, 38880, Note_on_c, 0, 65, 67
2, 39136, Control_c, 0, 64, 127
2, 39284, Control_c, 0, 64, 0
2, 39342, Note_on_c, 0, 74, 0
2, 39342, Note_on_c, 0, 62, 0
2, 39342, Note_on_c, 0, 70, 0
2, 39342, Note_on_c, 0, 58, 0
2, 39351, Note_on_c, 0, 57, 63
2, 39351, Note_on_c, 0, 60, 62
2, 39351, Note_on_c, 0, 72, 70
2, 39468, Note_on_c, 0, 65, 0
2, 39674, Control_c, 0, 64, 127
2, 39767, Note_on_c, 0, 72, 0
2, 39775, Note_on_c, 0, 67, 61
2, 39995, Note_on_c, 0, 67, 0
2, 40001, Note_on_c, 0, 65, 64
2, 40056, Control_c, 0, 64, 0
2, 40246, Note_on_c, 0, 55, 53
2, 40260, Note_on_c, 0, 58, 55
2, 40260, Note_on_c, 0, 64, 55
2, 40260, Note_on_c, 0, 72, 63
2, 40296, Note_on_c, 0, 65, 0
2, 40319, Note_on_c, 0, 57, 0
2, 40319, Note_on_c, 0, 60, 0
2, 40416, Control_c, 0, 64, 127
2, 40514, Note_on_c, 0, 72, 0
2, 40523, Note_on_c, 0, 70, 55
2, 40576, Control_c, 0, 64, 0
2, 40579, Control_c, 0, 67, 127
2, 40732, Note_on_c, 0, 55, 0
2, 40741, Note_on_c, 0, 53, 55
2, 40744, Note_on_c, 0, 64, 0
2, 40752, Note_on_c, 0, 60, 54
2, 40752, Note_on_c, 0, 65, 59
2, 40814, Note_on_c, 0, 70, 0
2, 40875, Control_c, 0, 64, 127
2, 41032, Control_c, 0, 64, 0
2, 41205, Note_on_c, 0, 57, 61
2, 41294, Note_on_c, 0, 58, 0
2, 41328, Control_c, 0, 67, 0
2, 41559, Note_on_c, 0, 60, 0
2, 41570, Note_on_c, 0, 65, 0
2, 41582, Note_on_c, 0, 53, 0
2, 41582, Note_on_c, 0, 57, 0
2, 41640, Note_on_c, 0, 65, 80
2, 41649, Note_on_c, 0, 50, 64
2, 41652, Note_on_c, 0, 57, 64
2, 41652, Note_on_c, 0, 62, 66
2, 41727, Control_c, 0, 64, 127
2, 41746, Note_on_c, 0, 62, 0
2, 41891, Note_on_c, 0, 62, 79
2, 42075, Control_c, 0, 64, 0
2, 42115, Note_on_c, 0, 57, 0
2, 42115, Note_on_c, 0, 65, 0
2, 42123, Note_on_c, 0, 50, 0
2, 42123, Note_on_c, 0, 55, 65
2, 42123, Note_on_c, 0, 67, 80
2, 42135, Note_on_c, 0, 46, 64
2, 42360, Control_c, 0, 64, 127
2, 42517, Note_on_c, 0, 62, 0
2, 42570, Note_on_c, 0, 46, 0
2, 42573, Note_on_c, 0, 67, 0
2, 42573, Note_on_c, 0, 55, 0
2, 42578, Note_on_c, 0, 62, 56
2, 42593, Note_on_c, 0, 50, 57
2, 42601, Note_on_c, 0, 53, 57
2, 42604, Control_c, 0, 64, 0
2, 42604, Note_on_c, 0, 57, 52
2, 42877, Control_c, 0, 64, 127
2, 42944, Control_c, 0, 64, 0
2, 43003, Note_on_c, 0, 57, 0
2, 43003, Note_on_c, 0, 62, 0
2, 43003, Note_on_c, 0, 50, 0
2, 43003, Note_on_c, 0, 53, 0
2, 43011, Note_on_c, 0, 48, 61
2, 43011, Note_on_c, 0, 55, 60
2, 43011, Note_on_c, 0, 60, 59
2, 43011, Note_on_c, 0, 64, 64
2, 43011, Note_on_c, 0, 72, 74
2, 43237, Control_c, 0, 64, 127
2, 43253, Note_on_c, 0, 48, 0
2, 43262, Note_on_c, 0, 46, 68
2, 43460, Note_on_c, 0, 72, 0
2, 43510, Note_on_c, 0, 55, 0
2, 43510, Note_on_c, 0, 46, 0
2, 43518, Note_on_c, 0, 45, 63
2, 43518, Note_on_c, 0, 57, 65
2, 43521, Note_on_c, 0, 72, 82
2, 43571, Control_c, 0, 64, 0
2, 43691, Note_on_c, 0, 45, 0
2, 43700, Note_on_c, 0, 43, 74
2, 43728, Note_on_c, 0, 57, 0
2, 43736, Note_on_c, 0, 55, 53
2, 43758, Note_on_c, 0, 62, 53
2, 43773, Note_on_c, 0, 64, 0
2, 43773, Note_on_c, 0, 60, 0
2, 43781, Note_on_c, 0, 70, 54
2, 43796, Note_on_c, 0, 72, 0
2, 43818, Note_on_c, 0, 74, 76
2, 43843, Control_c, 0, 64, 127
2, 43913, Control_c, 0, 64, 0
2, 43993, Note_on_c, 0, 43, 0
2, 43996, Note_on_c, 0, 55, 0
2, 44002, Note_on_c, 0, 48, 67
2, 44064, Note_on_c, 0, 60, 51
2, 44066, Note_on_c, 0, 62, 0
2, 44097, Note_on_c, 0, 74, 0
2, 44097, Note_on_c, 0, 70, 0
2, 44106, Note_on_c, 0, 64, 54
2, 44106, Note_on_c, 0, 69, 73
2, 44170, Control_c, 0, 64, 127
2, 44182, Control_c, 0, 67, 127
2, 44368, Control_c, 0, 64, 0
2, 44396, Note_on_c, 0, 64, 0
2, 44396, Note_on_c, 0, 60, 0
2, 44404, Note_on_c, 0, 58, 64
2, 44404, Note_on_c, 0, 67, 73
2, 44474, Note_on_c, 0, 69, 0
2, 44639, Control_c, 0, 64, 127
2, 44686, Control_c, 0, 64, 0
2, 44688, Note_on_c, 0, 48, 0
2, 44691, Note_on_c, 0, 58, 0
2, 44691, Note_on_c, 0, 67, 0
2, 44700, Note_on_c, 0, 53, 62
2, 44700, Note_on_c, 0, 57, 64
2, 44700, Note_on_c, 0, 65, 65
2, 44703, Note_on_c, 0, 60, 58
2, 44934, Control_c, 0, 64, 127
2, 45034, Note_on_c, 0, 60, 0
2, 45034, Note_on_c, 0, 53, 0
2, 45034, Note_on_c, 0, 57, 0
2, 45043, Note_on_c, 0, 58, 55
2, 45046, Note_on_c, 0, 55, 55
2, 45054, Control_c, 0, 64, 0
2, 45378, Note_on_c, 0, 55, 0
2, 45381, Note_on_c, 0, 58, 0
2, 45389, Note_on_c, 0, 53, 51
2, 45389, Note_on_c, 0, 57, 54
2, 45526, Control_c, 0, 67, 0
2, 45600, Control_c, 0, 64, 127
2, 45693, Control_c, 0, 64, 0
2, 45860, Note_on_c, 0, 65, 0
2, 45904, Note_on_c, 0, 57, 0
2, 45904, Note_on_c, 0, 53, 0
2, 45912, Note_on_c, 0, 46, 54
2, 45912, Note_on_c, 0, 58, 57
2, 45912, Note_on_c, 0, 62, 54
2, 45912, Note_on_c, 0, 70, 69
2, 45924, Note_on_c, 0, 65, 52
2, 46019, Control_c, 0, 64, 127
2, 46176, Note_on_c, 0, 74, 68
2, 46234, Note_on_c, 0, 62, 0
2, 46298, Note_on_c, 0, 58, 0
2, 46391, Note_on_c, 0, 74, 0
2, 46418, Note_on_c, 0, 58, 65
2, 46418, Note_on_c, 0, 62, 64
2, 46430, Note_on_c, 0, 67, 56
2, 46444, Note_on_c, 0, 65, 0
2, 46444, Note_on_c, 0, 70, 0
2, 46453, Note_on_c, 0, 74, 65
2, 46698, Note_on_c, 0, 70, 71
2, 46723, Note_on_c, 0, 74, 0
2, 46781, Note_on_c, 0, 67, 0
2, 46818, Note_on_c, 0, 48, 56
2, 46840, Control_c, 0, 64, 0
2, 46854, Note_on_c, 0, 46, 0
2, 46866, Note_on_c, 0, 55, 70
2, 46877, Note_on_c, 0, 60, 66
2, 46889, Note_on_c, 0, 63, 68
2, 46892, Note_on_c, 0, 58, 0
2, 46911, Note_on_c, 0, 67, 56
2, 46914, Note_on_c, 0, 62, 0
2, 46928, Note_on_c, 0, 70, 0
2, 46940, Note_on_c, 0, 75, 77
2, 47149, Note_on_c, 0, 69, 72
2, 47328, Note_on_c, 0, 55, 0
2, 47383, Note_on_c, 0, 48, 0
2, 47383, Note_on_c, 0, 60, 0
2, 47386, Note_on_c, 0, 67, 0
2, 47386, Note_on_c, 0, 63, 0
2, 47386, Note_on_c, 0, 75, 0
2, 47386, Note_on_c, 0, 69, 0
2, 47392, Note_on_c, 0, 55, 64
2, 47395, Note_on_c, 0, 58, 64
2, 47395, Note_on_c, 0, 62, 63
2, 47395, Note_on_c, 0, 74, 78
2, 47406, Note_on_c, 0, 70, 79
2, 47478, Control_c, 0, 64, 127
2, 47534, Control_c, 0, 67, 127
2, 47620, Note_on_c, 0, 62, 0
2, 47626, Note_on_c, 0, 64, 67
2, 47635, Control_c, 0, 64, 0
2, 47847, Note_on_c, 0, 57, 71
2, 47847, Note_on_c, 0, 72, 80
2, 47858, Note_on_c, 0, 60, 74
2, 47858, Note_on_c, 0, 65, 74
2, 47861, Note_on_c, 0, 64, 0
2, 47861, Note_on_c, 0, 74, 0
2, 47861, Note_on_c, 0, 55, 0
2, 47861, Note_on_c, 0, 70, 0
2, 47861, Note_on_c, 0, 58, 0
2, 47939, Control_c, 0, 64, 127
2, 48056, Control_c, 0, 64, 0
2, 48084, Note_on_c, 0, 65, 0
2, 48093, Note_on_c, 0, 64, 67
2, 48315, Note_on_c, 0, 64, 0
2, 48315, Note_on_c, 0, 60, 0
2, 48315, Note_on_c, 0, 57, 0
2, 48315, Note_on_c, 0, 72, 0
2, 48321, Note_on_c, 0, 58, 59
2, 48321, Note_on_c, 0, 62, 64
2, 48321, Note_on_c, 0, 67, 70
2, 48555, Note_on_c, 0, 67, 0
2, 48564, Note_on_c, 0, 65, 68
2, 48718, Note_on_c, 0, 62, 0
2, 48773, Note_on_c, 0, 65, 0
2, 48782, Note_on_c, 0, 55, 61
2, 48782, Note_on_c, 0, 62, 57
2, 48782, Note_on_c, 0, 72, 66
2, 48796, Control_c, 0, 64, 127
2, 48802, Note_on_c, 0, 67, 51
2, 48956, Control_c, 0, 64, 0
2, 49042, Note_on_c, 0, 72, 0
2, 49048, Note_on_c, 0, 70, 65
2, 49246, Note_on_c, 0, 70, 0
2, 49246, Note_on_c, 0, 67, 0
2, 49246, Note_on_c, 0, 58, 0
2, 49246, Note_on_c, 0, 55, 0
2, 49246, Note_on_c, 0, 62, 0
2, 49254, Note_on_c, 0, 60, 51
2, 49254, Note_on_c, 0, 65, 60
2, 49257, Note_on_c, 0, 57, 54
2, 49327, Control_c, 0, 64, 127
2, 49486, Control_c, 0, 64, 0
2, 49502, Note_on_c, 0, 57, 0
2, 49508, Note_on_c, 0, 58, 65
2, 49733, Note_on_c, 0, 57, 58
2, 49803, Note_on_c, 0, 58, 0
2, 49945, Note_on_c, 0, 53, 53
2, 50115, Note_on_c, 0, 65, 0
2, 50168, Note_on_c, 0, 60, 0
2, 50177, Note_on_c, 0, 65, 71
2, 50188, Note_on_c, 0, 50, 57
2, 50247, Control_c, 0, 64, 127
2, 50423, Note_on_c, 0, 62, 74
2, 50645, Note_on_c, 0, 65, 0
2, 50654, Note_on_c, 0, 67, 77
2, 50657, Note_on_c, 0, 50, 0
2, 50657, Note_on_c, 0, 53, 0
2, 50657, Note_on_c, 0, 57, 0
2, 50665, Note_on_c, 0, 52, 64
2, 50674, Control_c, 0, 64, 0
2, 50746, Note_on_c, 0, 62, 0
2, 50969, Control_c, 0, 64, 127
2, 51127, Note_on_c, 0, 52, 0
2, 51127, Note_on_c, 0, 67, 0
2, 51133, Note_on_c, 0, 53, 54
2, 51136, Note_on_c, 0, 62, 59
2, 51155, Note_on_c, 0, 57, 55
2, 51167, Control_c, 0, 64, 0
2, 51571, Note_on_c, 0, 57, 0
2, 51571, Note_on_c, 0, 62, 0
2, 51571, Note_on_c, 0, 53, 0
2, 51579, Note_on_c, 0, 55, 57
2, 51579, Note_on_c, 0, 58, 55
2, 51579, Note_on_c, 0, 60, 57
2, 51579, Note_on_c, 0, 64, 58
2, 51579, Note_on_c, 0, 72, 67
2, 51641, Control_c, 0, 64, 127
2, 51827, Note_on_c, 0, 64, 0
2, 51827, Note_on_c, 0, 58, 0
2, 51827, Note_on_c, 0, 55, 0
2, 51836, Note_on_c, 0, 53, 53
2, 51836, Note_on_c, 0, 57, 56
2, 51836, Note_on_c, 0, 65, 54
2, 51844, Control_c, 0, 64, 0
2, 52020, Note_on_c, 0, 60, 0
2, 52020, Note_on_c, 0, 72, 0
2, 52076, Note_on_c, 0, 57, 0
2, 52076, Note_on_c, 0, 53, 0
2, 52076, Note_on_c, 0, 65, 0
2, 52084, Note_on_c, 0, 52, 63
2, 52084, Note_on_c, 0, 55, 63
2, 52087, Note_on_c, 0, 60, 64
2, 52087, Note_on_c, 0, 72, 65
2, 52109, Note_on_c, 0, 67, 55
2, 52149, Control_c, 0, 64, 127
2, 52399, Note_on_c, 0, 74, 59
2, 52469, Note_on_c, 0, 72, 0
2, 52534, Control_c, 0, 64, 0
2, 52670, Note_on_c, 0, 36, 65
2, 52673, Note_on_c, 0, 48, 60
2, 52673, Note_on_c, 0, 57, 59
2, 52673, Note_on_c, 0, 64, 65
2, 52673, Note_on_c, 0, 69, 59
2, 52728, Note_on_c, 0, 60, 0
2, 52728, Note_on_c, 0, 55, 0
2, 52731, Note_on_c, 0, 74, 0
2, 52731, Note_on_c, 0, 52, 0
2, 52731, Note_on_c, 0, 67, 0
2, 52988, Note_on_c, 0, 58, 61
2, 52988, Note_on_c, 0, 67, 58
2, 53068, Note_on_c, 0, 69, 0
2, 53080, Note_on_c, 0, 57, 0
2, 53292, Note_on_c, 0, 36, 0
2, 53292, Note_on_c, 0, 64, 0
2, 53292, Note_on_c, 0, 48, 0
2, 53292, Note_on_c, 0, 67, 0
2, 53292, Note_on_c, 0, 58, 0
2, 53304, Note_on_c, 0, 41, 62
2, 53304, Note_on_c, 0, 53, 60
2, 53304, Note_on_c, 0, 57, 58
2, 53304, Note_on_c, 0, 60, 61
2, 53304, Note_on_c, 0, 65, 61
2, 53365, Control_c, 0, 64, 127
2, 53596, Note_on_c, 0, 57, 0
2, 53605, Note_on_c, 0, 55, 56
2, 53605, Note_on_c, 0, 58, 57
2, 53616, Control_c, 0, 64, 0
2, 53664, Note_on_c, 0, 60, 0
2, 53850, Note_on_c, 0, 53, 0
2, 53914, Note_on_c, 0, 53, 51
2, 53917, Note_on_c, 0, 57, 51
2, 53976, Note_on_c, 0, 55, 0
2, 53976, Note_on_c, 0, 58, 0
2, 54586, Note_on_c, 0, 65, 0
2, 54639, Note_on_c, 0, 41, 0
2, 54639, Note_on_c, 0, 53, 0
2, 54642, Note_on_c, 0, 57, 0
2, 54648, Note_on_c, 0, 65, 60
2, 54837, Control_c, 0, 64, 127
2, 55084, Note_on_c, 0, 65, 0
2, 55149, Note_on_c, 0, 65, 66
2, 55581, Note_on_c, 0, 65, 0
2, 55645, Note_on_c, 0, 65, 79
2, 56068, Note_on_c, 0, 65, 0
2, 56133, Note_on_c, 0, 65, 57
2, 56590, Note_on_c, 0, 65, 0
2, 56654, Note_on_c, 0, 65, 70
2, 56835, Control_c, 0, 64, 0
2, 57020, Control_c, 0, 64, 127
2, 57090, Note_on_c, 0, 65, 0
2, 57151, Note_on_c, 0, 65, 68
2, 57268, Control_c, 0, 64, 0
2, 57528, Control_c, 0, 64, 127
2, 57608, Note_on_c, 0, 65, 0
2, 57672, Note_on_c, 0, 65, 60
2, 57675, Control_c, 0, 64, 0
2, 58213, Note_on_c, 0, 65, 0
2, 58277, Note_on_c, 0, 65, 58
2, 58592, Note_on_c, 0, 49, 58
2, 58718, Note_on_c, 0, 49, 0
2, 58782, Control_c, 0, 64, 127
2, 58797, Note_on_c, 0, 65, 0
2, 58852, Control_c, 0, 64, 0
2, 58864, Note_on_c, 0, 58, 53
2, 58864, Note_on_c, 0, 65, 55
2, 58875, Note_on_c, 0, 61, 58
2, 58990, Note_on_c, 0, 58, 0
2, 59110, Control_c, 0, 64, 127
2, 59135, Note_on_c, 0, 57, 64
2, 59179, Control_c, 0, 64, 0
2, 59259, Note_on_c, 0, 57, 0
2, 59371, Note_on_c, 0, 56, 54
2, 59460, Note_on_c, 0, 56, 0
2, 59593, Note_on_c, 0, 49, 61
2, 59722, Note_on_c, 0, 49, 0
2, 59808, Control_c, 0, 64, 127
2, 59811, Note_on_c, 0, 61, 0
2, 59811, Note_on_c, 0, 65, 0
2, 59876, Note_on_c, 0, 65, 53
2, 59879, Note_on_c, 0, 58, 60
2, 59879, Note_on_c, 0, 61, 59
2, 59881, Control_c, 0, 64, 0
2, 60012, Note_on_c, 0, 58, 0
2, 60132, Note_on_c, 0, 57, 58
2, 60135, Control_c, 0, 64, 127
2, 60202, Control_c, 0, 64, 0
2, 60261, Note_on_c, 0, 57, 0
2, 60391, Note_on_c, 0, 56, 52
2, 60480, Note_on_c, 0, 56, 0
2, 60631, Note_on_c, 0, 49, 59
2, 60675, Note_on_c, 0, 65, 0
2, 60684, Control_c, 0, 64, 127
2, 60684, Note_on_c, 0, 77, 75
2, 60754, Note_on_c, 0, 49, 0
2, 60796, Control_c, 0, 64, 0
2, 60874, Note_on_c, 0, 61, 0
2, 60936, Note_on_c, 0, 65, 57
2, 60938, Note_on_c, 0, 58, 57
2, 60950, Note_on_c, 0, 61, 58
2, 61067, Note_on_c, 0, 58, 0
2, 61142, Control_c, 0, 64, 127
2, 61173, Note_on_c, 0, 77, 0
2, 61173, Note_on_c, 0, 57, 60
2, 61181, Note_on_c, 0, 73, 70
2, 61206, Control_c, 0, 64, 0
2, 61296, Note_on_c, 0, 57, 0
2, 61426, Note_on_c, 0, 56, 58
2, 61518, Note_on_c, 0, 56, 0
2, 61552, Note_on_c, 0, 73, 0
2, 61563, Note_on_c, 0, 75, 75
2, 61653, Note_on_c, 0, 75, 0
2, 61661, Note_on_c, 0, 49, 64
2, 61661, Note_on_c, 0, 77, 76
2, 61778, Note_on_c, 0, 49, 0
2, 61812, Note_on_c, 0, 65, 0
2, 61826, Note_on_c, 0, 61, 0
2, 61857, Control_c, 0, 64, 127
2, 61879, Note_on_c, 0, 65, 57
2, 61891, Note_on_c, 0, 58, 57
2, 61899, Note_on_c, 0, 61, 57
2, 61924, Control_c, 0, 64, 0
2, 61980, Note_on_c, 0, 58, 0
2, 62125, Note_on_c, 0, 57, 62
2, 62128, Note_on_c, 0, 77, 0
2, 62136, Note_on_c, 0, 73, 64
2, 62186, Control_c, 0, 64, 127
2, 62206, Note_on_c, 0, 57, 0
2, 62256, Control_c, 0, 64, 0
2, 62355, Note_on_c, 0, 56, 54
2, 62448, Note_on_c, 0, 56, 0
2, 62459, Note_on_c, 0, 73, 0
2, 62468, Note_on_c, 0, 75, 66
2, 62593, Note_on_c, 0, 75, 0
2, 62602, Note_on_c, 0, 77, 67
2, 62636, Note_on_c, 0, 49, 64
2, 62680, Control_c, 0, 64, 127
2, 62760, Note_on_c, 0, 49, 0
2, 62772, Note_on_c, 0, 61, 0
2, 62772, Note_on_c, 0, 65, 0
2, 62806, Control_c, 0, 64, 0
2, 62836, Note_on_c, 0, 65, 51
2, 62842, Note_on_c, 0, 58, 58
2, 62848, Note_on_c, 0, 61, 55
2, 62965, Note_on_c, 0, 58, 0
2, 63091, Note_on_c, 0, 57, 63
2, 63216, Note_on_c, 0, 57, 0
2, 63314, Note_on_c, 0, 77, 0
2, 63323, Note_on_c, 0, 56, 51
2, 63323, Note_on_c, 0, 80, 63
2, 63412, Note_on_c, 0, 56, 0
2, 63496, Control_c, 0, 64, 127
2, 63521, Note_on_c, 0, 61, 0
2, 63521, Note_on_c, 0, 65, 0
2, 63563, Control_c, 0, 64, 0
2, 63585, Note_on_c, 0, 49, 70
2, 63613, Note_on_c, 0, 80, 0
2, 63711, Note_on_c, 0, 49, 0
2, 63809, Note_on_c, 0, 58, 55
2, 63820, Note_on_c, 0, 61, 53
2, 63863, Control_c, 0, 64, 127
2, 63933, Control_c, 0, 64, 0
2, 63947, Note_on_c, 0, 58, 0
2, 64045, Note_on_c, 0, 57, 58
2, 64067, Note_on_c, 0, 65, 76
2, 64126, Note_on_c, 0, 57, 0
2, 64268, Note_on_c, 0, 68, 73
2, 64293, Note_on_c, 0, 56, 63
2, 64360, Note_on_c, 0, 56, 0
2, 64360, Note_on_c, 0, 65, 0
2, 64432, Note_on_c, 0, 68, 0
2, 64438, Note_on_c, 0, 70, 72
2, 64471, Control_c, 0, 64, 127
2, 64566, Note_on_c, 0, 70, 0
2, 64575, Control_c, 0, 64, 0
2, 64575, Note_on_c, 0, 49, 63
2, 64575, Note_on_c, 0, 73, 65
2, 64764, Note_on_c, 0, 61, 0
2, 64820, Note_on_c, 0, 49, 0
2, 64823, Note_on_c, 0, 73, 0
2, 64828, Note_on_c, 0, 61, 63
2, 64831, Note_on_c, 0, 58, 61
2, 64862, Control_c, 0, 64, 127
2, 64920, Note_on_c, 0, 58, 0
2, 64929, Control_c, 0, 64, 0
2, 65068, Note_on_c, 0, 57, 61
2, 65083, Note_on_c, 0, 65, 62
2, 65158, Note_on_c, 0, 57, 0
2, 65291, Note_on_c, 0, 68, 70
2, 65333, Note_on_c, 0, 56, 58
2, 65425, Note_on_c, 0, 56, 0
2, 65481, Note_on_c, 0, 68, 0
2, 65490, Note_on_c, 0, 70, 72
2, 65693, Control_c, 0, 64, 127
2, 65696, Note_on_c, 0, 49, 66
2, 65721, Note_on_c, 0, 70, 0
2, 65721, Note_on_c, 0, 61, 0
2, 65721, Note_on_c, 0, 65, 0
2, 65733, Note_on_c, 0, 77, 76
2, 65800, Control_c, 0, 64, 0
2, 66020, Note_on_c, 0, 49, 0
2, 66031, Note_on_c, 0, 58, 51
2, 66031, Note_on_c, 0, 66, 57
2, 66040, Note_on_c, 0, 60, 51
2, 66071, Control_c, 0, 64, 127
2, 66123, Note_on_c, 0, 58, 0
2, 66140, Control_c, 0, 64, 0
2, 66279, Note_on_c, 0, 57, 62
2, 66393, Note_on_c, 0, 57, 0
2, 66496, Note_on_c, 0, 77, 0
2, 66504, Note_on_c, 0, 75, 58
2, 66516, Note_on_c, 0, 56, 52
2, 66608, Note_on_c, 0, 56, 0
2, 66753, Note_on_c, 0, 75, 0
2, 66759, Note_on_c, 0, 60, 0
2, 66759, Note_on_c, 0, 49, 61
2, 66759, Note_on_c, 0, 73, 64
2, 66762, Note_on_c, 0, 66, 0
2, 66848, Note_on_c, 0, 49, 0
2, 66951, Control_c, 0, 64, 127
2, 66979, Note_on_c, 0, 65, 51
2, 66982, Note_on_c, 0, 58, 58
2, 66990, Note_on_c, 0, 61, 54
2, 67032, Control_c, 0, 64, 0
2, 67138, Note_on_c, 0, 58, 0
2, 67233, Note_on_c, 0, 57, 64
2, 67328, Note_on_c, 0, 57, 0
2, 67462, Note_on_c, 0, 56, 55
2, 67542, Note_on_c, 0, 56, 0
2, 67676, Note_on_c, 0, 61, 0
2, 67676, Note_on_c, 0, 65, 0
2, 67681, Note_on_c, 0, 49, 55
2, 67812, Note_on_c, 0, 49, 0
2, 67920, Note_on_c, 0, 73, 0
2, 67926, Note_on_c, 0, 58, 56
2, 67926, Note_on_c, 0, 61, 52
2, 67926, Note_on_c, 0, 65, 52
2, 68052, Note_on_c, 0, 58, 0
2, 68127, Control_c, 0, 64, 127
2, 68180, Note_on_c, 0, 57, 54
2, 68196, Control_c, 0, 64, 0
2, 68266, Note_on_c, 0, 57, 0
2, 68400, Note_on_c, 0, 56, 51
2, 68486, Note_on_c, 0, 56, 0
2, 68622, Note_on_c, 0, 49, 63
2, 68650, Note_on_c, 0, 70, 79
2, 68684, Note_on_c, 0, 65, 0
2, 68684, Note_on_c, 0, 61, 0
2, 68754, Control_c, 0, 64, 127
2, 68910, Note_on_c, 0, 58, 51
2, 68910, Note_on_c, 0, 66, 55
2, 68919, Control_c, 0, 64, 0
2, 68922, Note_on_c, 0, 60, 55
2, 68933, Note_on_c, 0, 49, 0
2, 69036, Note_on_c, 0, 58, 0
2, 69153, Note_on_c, 0, 70, 0
2, 69153, Control_c, 0, 64, 127
2, 69162, Note_on_c, 0, 57, 59
2, 69162, Note_on_c, 0, 72, 83
2, 69226, Control_c, 0, 64, 0
2, 69257, Note_on_c, 0, 57, 0
2, 69402, Note_on_c, 0, 56, 59
2, 69494, Note_on_c, 0, 56, 0
2, 69519, Note_on_c, 0, 72, 0
2, 69525, Note_on_c, 0, 73, 70
2, 69589, Note_on_c, 0, 60, 0
2, 69589, Note_on_c, 0, 66, 0
2, 69661, Note_on_c, 0, 73, 0
2, 69664, Note_on_c, 0, 49, 67
2, 69667, Note_on_c, 0, 72, 80
2, 69695, Control_c, 0, 64, 127
2, 69765, Control_c, 0, 64, 0
2, 69901, Note_on_c, 0, 49, 0
2, 69901, Note_on_c, 0, 58, 68
2, 69912, Note_on_c, 0, 66, 58
2, 69924, Note_on_c, 0, 60, 51
2, 70032, Note_on_c, 0, 58, 0
2, 70141, Note_on_c, 0, 72, 0
2, 70152, Note_on_c, 0, 73, 76
2, 70161, Note_on_c, 0, 57, 64
2, 70242, Note_on_c, 0, 57, 0
2, 70406, Note_on_c, 0, 56, 56
2, 70467, Note_on_c, 0, 73, 0
2, 70476, Note_on_c, 0, 75, 64
2, 70488, Note_on_c, 0, 56, 0
2, 70555, Note_on_c, 0, 60, 0
2, 70555, Note_on_c, 0, 66, 0
2, 70558, Note_on_c, 0, 75, 0
2, 70566, Note_on_c, 0, 73, 52
2, 70622, Note_on_c, 0, 75, 53
2, 70631, Note_on_c, 0, 49, 57
2, 70631, Note_on_c, 0, 77, 53
2, 70670, Control_c, 0, 64, 127
2, 70695, Note_on_c, 0, 75, 0
2, 70751, Note_on_c, 0, 73, 0
2, 70753, Note_on_c, 0, 77, 0
2, 70759, Note_on_c, 0, 75, 63
2, 70771, Note_on_c, 0, 49, 0
2, 70787, Control_c, 0, 64, 0
2, 70910, Note_on_c, 0, 75, 0
2, 70916, Note_on_c, 0, 58, 57
2, 70919, Note_on_c, 0, 73, 58
2, 70930, Note_on_c, 0, 61, 51
2, 70930, Note_on_c, 0, 65, 55
2, 71044, Note_on_c, 0, 58, 0
2, 71189, Note_on_c, 0, 57, 61
2, 71281, Note_on_c, 0, 57, 0
2, 71424, Note_on_c, 0, 56, 58
2, 71501, Note_on_c, 0, 56, 0
2, 71607, Note_on_c, 0, 73, 0
2, 71607, Note_on_c, 0, 61, 0
2, 71607, Note_on_c, 0, 65, 0
2, 71635, Note_on_c, 0, 49, 59
2, 71735, Note_on_c, 0, 49, 0
2, 71805, Control_c, 0, 64, 127
2, 71857, Note_on_c, 0, 58, 57
2, 71857, Note_on_c, 0, 65, 58
2, 71869, Note_on_c, 0, 61, 56
2, 71875, Control_c, 0, 64, 0
2, 71967, Note_on_c, 0, 58, 0
2, 72097, Note_on_c, 0, 57, 54
2, 72114, Control_c, 0, 64, 127
2, 72181, Note_on_c, 0, 57, 0
2, 72184, Control_c, 0, 64, 0
2, 72337, Note_on_c, 0, 56, 57
2, 72432, Note_on_c, 0, 56, 0
2, 72510, Note_on_c, 0, 61, 0
2, 72513, Note_on_c, 0, 65, 0
2, 72577, Note_on_c, 0, 49, 60
2, 72583, Control_c, 0, 64, 127
2, 72583, Note_on_c, 0, 70, 64
2, 72658, Control_c, 0, 64, 0
2, 72711, Note_on_c, 0, 49, 0
2, 72837, Note_on_c, 0, 58, 51
2, 72837, Note_on_c, 0, 66, 57
2, 72848, Note_on_c, 0, 60, 57
2, 72864, Control_c, 0, 64, 127
2, 72935, Control_c, 0, 64, 0
2, 72965, Note_on_c, 0, 58, 0
2, 73085, Note_on_c, 0, 57, 60
2, 73091, Note_on_c, 0, 70, 0
2, 73097, Note_on_c, 0, 72, 74
2, 73183, Note_on_c, 0, 57, 0
2, 73359, Note_on_c, 0, 56, 60
2, 73448, Note_on_c, 0, 56, 0
2, 73448, Note_on_c, 0, 72, 0
2, 73460, Note_on_c, 0, 73, 73
2, 73527, Note_on_c, 0, 66, 0
2, 73527, Note_on_c, 0, 60, 0
2, 73583, Note_on_c, 0, 73, 0
2, 73588, Note_on_c, 0, 49, 62
2, 73591, Note_on_c, 0, 75, 79
2, 73748, Note_on_c, 0, 49, 0
2, 73828, Control_c, 0, 64, 127
2, 73850, Note_on_c, 0, 58, 65
2, 73850, Note_on_c, 0, 66, 52
2, 73862, Note_on_c, 0, 60, 57
2, 73904, Control_c, 0, 64, 0
2, 73974, Note_on_c, 0, 58, 0
2, 74077, Note_on_c, 0, 75, 0
2, 74088, Note_on_c, 0, 77, 76
2, 74097, Note_on_c, 0, 57, 61
2, 74189, Note_on_c, 0, 57, 0
2, 74359, Note_on_c, 0, 56, 57
2, 74362, Note_on_c, 0, 60, 0
2, 74384, Note_on_c, 0, 66, 0
2, 74451, Note_on_c, 0, 56, 0
2, 74476, Control_c, 0, 64, 127
2, 74568, Control_c, 0, 64, 0
2, 74583, Note_on_c, 0, 73, 58
2, 74586, Note_on_c, 0, 77, 0
2, 74592, Note_on_c, 0, 49, 60
2, 74694, Note_on_c, 0, 49, 0
2, 74836, Control_c, 0, 64, 127
2, 74845, Note_on_c, 0, 58, 51
2, 74845, Note_on_c, 0, 65, 51
2, 74856, Note_on_c, 0, 61, 57
2, 74904, Control_c, 0, 64, 0
2, 74931, Note_on_c, 0, 58, 0
2, 75079, Note_on_c, 0, 57, 57
2, 75171, Note_on_c, 0, 57, 0
2, 75319, Note_on_c, 0, 56, 58
2, 75406, Note_on_c, 0, 56, 0
2, 75514, Note_on_c, 0, 73, 0
2, 75514, Note_on_c, 0, 65, 0
2, 75514, Note_on_c, 0, 61, 0
2, 75545, Note_on_c, 0, 49, 58
2, 75684, Note_on_c, 0, 49, 0
2, 75784, Note_on_c, 0, 58, 56
2, 75784, Note_on_c, 0, 65, 52
2, 75798, Note_on_c, 0, 61, 51
2, 75868, Note_on_c, 0, 58, 0
2, 76047, Control_c, 0, 64, 127
2, 76050, Note_on_c, 0, 57, 60
2, 76128, Control_c, 0, 64, 0
2, 76142, Note_on_c, 0, 57, 0
2, 76309, Note_on_c, 0, 56, 51
2, 76398, Note_on_c, 0, 56, 0
2, 76608, Note_on_c, 0, 61, 0
2, 76608, Note_on_c, 0, 65, 0
2, 76616, Note_on_c, 0, 49, 64
2, 76619, Note_on_c, 0, 77, 66
2, 76745, Note_on_c, 0, 49, 0
2, 76828, Control_c, 0, 64, 127
2, 76875, Note_on_c, 0, 58, 59
2, 76875, Note_on_c, 0, 61, 63
2, 76875, Note_on_c, 0, 65, 57
2, 76897, Control_c, 0, 64, 0
2, 76995, Note_on_c, 0, 58, 0
2, 77146, Control_c, 0, 64, 127
2, 77149, Note_on_c, 0, 57, 59
2, 77149, Note_on_c, 0, 73, 69
2, 77210, Note_on_c, 0, 77, 0
2, 77219, Control_c, 0, 64, 0
2, 77286, Note_on_c, 0, 57, 0
2, 77428, Note_on_c, 0, 56, 55
2, 77528, Note_on_c, 0, 75, 64
2, 77553, Note_on_c, 0, 73, 0
2, 77667, Note_on_c, 0, 65, 0
2, 77679, Note_on_c, 0, 75, 0
2, 77682, Note_on_c, 0, 61, 0
2, 77682, Note_on_c, 0, 56, 0
2, 77690, Note_on_c, 0, 49, 60
2, 77690, Note_on_c, 0, 77, 74
2, 77737, Control_c, 0, 64, 127
2, 77808, Control_c, 0, 64, 0
2, 77930, Note_on_c, 0, 49, 0
2, 77939, Note_on_c, 0, 65, 56
2, 77942, Note_on_c, 0, 58, 52
2, 77948, Note_on_c, 0, 61, 51
2, 78031, Note_on_c, 0, 58, 0
2, 78170, Note_on_c, 0, 73, 71
2, 78182, Note_on_c, 0, 57, 65
2, 78193, Control_c, 0, 64, 127
2, 78264, Note_on_c, 0, 77, 0
2, 78264, Control_c, 0, 64, 0
2, 78286, Note_on_c, 0, 57, 0
2, 78439, Note_on_c, 0, 56, 66
2, 78528, Note_on_c, 0, 56, 0
2, 78545, Note_on_c, 0, 75, 73
2, 78573, Note_on_c, 0, 73, 0
2, 78701, Note_on_c, 0, 61, 0
2, 78701, Note_on_c, 0, 65, 0
2, 78701, Note_on_c, 0, 75, 0
2, 78713, Note_on_c, 0, 49, 68
2, 78713, Note_on_c, 0, 77, 76
2, 78744, Control_c, 0, 64, 127
2, 78959, Note_on_c, 0, 49, 0
2, 78967, Note_on_c, 0, 58, 75
2, 78979, Note_on_c, 0, 65, 56
2, 78993, Note_on_c, 0, 61, 54
2, 79018, Control_c, 0, 64, 0
2, 79062, Note_on_c, 0, 58, 0
2, 79207, Note_on_c, 0, 57, 64
2, 79302, Note_on_c, 0, 57, 0
2, 79475, Note_on_c, 0, 61, 0
2, 79475, Note_on_c, 0, 65, 0
2, 79484, Note_on_c, 0, 80, 63
2, 79487, Note_on_c, 0, 56, 63
2, 79542, Note_on_c, 0, 56, 0
2, 79576, Note_on_c, 0, 77, 0
2, 79576, Control_c, 0, 64, 127
2, 79715, Control_c, 0, 64, 0
2, 79731, Note_on_c, 0, 49, 59
2, 79824, Note_on_c, 0, 80, 0
2, 79860, Note_on_c, 0, 49, 0
2, 79983, Note_on_c, 0, 58, 69
2, 79994, Control_c, 0, 64, 127
2, 79994, Note_on_c, 0, 61, 56
2, 80062, Control_c, 0, 64, 0
2, 80134, Note_on_c, 0, 58, 0
2, 80254, Note_on_c, 0, 57, 60
2, 80273, Note_on_c, 0, 65, 69
2, 80359, Note_on_c, 0, 57, 0
2, 80401, Note_on_c, 0, 65, 0
2, 80454, Note_on_c, 0, 68, 67
2, 80546, Note_on_c, 0, 56, 55
2, 80580, Note_on_c, 0, 68, 0
2, 80633, Note_on_c, 0, 70, 66
2, 80669, Note_on_c, 0, 56, 0
2, 80772, Note_on_c, 0, 70, 0
2, 80803, Note_on_c, 0, 73, 68
2, 80806, Note_on_c, 0, 49, 62
2, 80864, Control_c, 0, 64, 127
2, 80967, Note_on_c, 0, 61, 0
2, 81003, Control_c, 0, 64, 0
2, 81065, Note_on_c, 0, 58, 60
2, 81076, Note_on_c, 0, 61, 58
2, 81107, Control_c, 0, 67, 0
2, 81157, Note_on_c, 0, 58, 0
2, 81274, Note_on_c, 0, 73, 0
2, 81311, Note_on_c, 0, 49, 0
2, 81344, Note_on_c, 0, 61, 0
2, 81344, Note_on_c, 0, 57, 53
2, 81353, Note_on_c, 0, 65, 68
2, 81445, Note_on_c, 0, 57, 0
2, 81556, Note_on_c, 0, 65, 0
2, 81565, Note_on_c, 0, 68, 68
2, 81657, Note_on_c, 0, 56, 52
2, 81746, Note_on_c, 0, 56, 0
2, 81758, Note_on_c, 0, 68, 0
2, 81764, Note_on_c, 0, 70, 57
2, 81828, Control_c, 0, 67, 127
2, 81917, Note_on_c, 0, 49, 56
2, 81984, Control_c, 0, 64, 127
2, 81990, Note_on_c, 0, 77, 61
2, 82065, Note_on_c, 0, 70, 0
2, 82087, Control_c, 0, 64, 0
2, 82131, Note_on_c, 0, 49, 0
2, 82265, Note_on_c, 0, 66, 58
2, 82268, Note_on_c, 0, 58, 58
2, 82279, Note_on_c, 0, 60, 52
2, 82360, Note_on_c, 0, 58, 0
2, 82516, Control_c, 0, 64, 127
2, 82528, Note_on_c, 0, 57, 63
2, 82589, Control_c, 0, 64, 0
2, 82608, Note_on_c, 0, 57, 0
2, 82739, Note_on_c, 0, 75, 63
2, 82751, Note_on_c, 0, 56, 57
2, 82831, Note_on_c, 0, 56, 0
2, 82831, Note_on_c, 0, 77, 0
2, 83016, Note_on_c, 0, 60, 0
2, 83016, Note_on_c, 0, 66, 0
2, 83016, Note_on_c, 0, 75, 0
2, 83024, Note_on_c, 0, 49, 61
2, 83024, Note_on_c, 0, 73, 63
2, 83150, Note_on_c, 0, 49, 0
2, 83283, Note_on_c, 0, 58, 59
2, 83292, Note_on_c, 0, 61, 63
2, 83292, Note_on_c, 0, 65, 53
2, 83387, Note_on_c, 0, 58, 0
2, 83462, Control_c, 0, 64, 127
2, 83515, Note_on_c, 0, 57, 58
2, 83529, Control_c, 0, 64, 0
2, 83599, Note_on_c, 0, 57, 0
2, 83750, Note_on_c, 0, 56, 58
2, 83833, Note_on_c, 0, 56, 0
2, 83959, Note_on_c, 0, 73, 0
2, 83959, Note_on_c, 0, 61, 0
2, 83959, Note_on_c, 0, 65, 0
2, 83968, Note_on_c, 0, 49, 56
2, 84048, Note_on_c, 0, 49, 0
2, 84205, Note_on_c, 0, 58, 62
2, 84205, Note_on_c, 0, 65, 53
2, 84219, Note_on_c, 0, 61, 51
2, 84297, Note_on_c, 0, 58, 0
2, 84395, Control_c, 0, 64, 127
2, 84462, Note_on_c, 0, 57, 59
2, 84465, Control_c, 0, 64, 0
2, 84565, Note_on_c, 0, 57, 0
2, 84654, Control_c, 0, 67, 0
2, 84698, Note_on_c, 0, 56, 58
2, 84776, Note_on_c, 0, 56, 0
2, 84885, Note_on_c, 0, 65, 0
2, 84940, Note_on_c, 0, 61, 0
2, 84952, Control_c, 0, 64, 127
2, 84952, Note_on_c, 0, 46, 68
2, 84952, Note_on_c, 0, 65, 71
2, 84952, Note_on_c, 0, 77, 75
2, 85019, Control_c, 0, 64, 0
2, 85100, Note_on_c, 0, 46, 0
2, 85183, Note_on_c, 0, 58, 54
2, 85192, Note_on_c, 0, 61, 52
2, 85284, Note_on_c, 0, 58, 0
2, 85306, Note_on_c, 0, 61, 0
2, 85359, Control_c, 0, 64, 127
2, 85392, Note_on_c, 0, 54, 64
2, 85392, Note_on_c, 0, 61, 57
2, 85395, Note_on_c, 0, 65, 0
2, 85401, Note_on_c, 0, 73, 74
2, 85426, Control_c, 0, 64, 0
2, 85473, Note_on_c, 0, 77, 0
2, 85485, Note_on_c, 0, 54, 0
2, 85638, Note_on_c, 0, 53, 52
2, 85730, Note_on_c, 0, 53, 0
2, 85747, Note_on_c, 0, 63, 66
2, 85747, Note_on_c, 0, 75, 82
2, 85750, Note_on_c, 0, 61, 0
2, 85794, Note_on_c, 0, 73, 0
2, 85858, Note_on_c, 0, 63, 0
2, 85861, Note_on_c, 0, 75, 0
2, 85870, Note_on_c, 0, 46, 68
2, 85870, Note_on_c, 0, 65, 81
2, 85870, Note_on_c, 0, 77, 78
2, 85878, Control_c, 0, 64, 127
2, 85948, Control_c, 0, 64, 0
2, 85995, Note_on_c, 0, 46, 0
2, 86070, Note_on_c, 0, 58, 52
2, 86070, Note_on_c, 0, 61, 58
2, 86173, Note_on_c, 0, 58, 0
2, 86195, Note_on_c, 0, 61, 0
2, 86259, Control_c, 0, 64, 127
2, 86287, Note_on_c, 0, 65, 0
2, 86296, Note_on_c, 0, 54, 68
2, 86296, Note_on_c, 0, 61, 64
2, 86296, Note_on_c, 0, 73, 76
2, 86329, Control_c, 0, 64, 0
2, 86388, Note_on_c, 0, 54, 0
2, 86391, Note_on_c, 0, 77, 0
2, 86539, Note_on_c, 0, 53, 64
2, 86631, Note_on_c, 0, 53, 0
2, 86631, Note_on_c, 0, 61, 0
2, 86650, Note_on_c, 0, 63, 60
2, 86650, Note_on_c, 0, 75, 81
2, 86689, Note_on_c, 0, 73, 0
2, 86801, Note_on_c, 0, 75, 0
2, 86801, Note_on_c, 0, 63, 0
2, 86807, Note_on_c, 0, 46, 74
2, 86807, Note_on_c, 0, 65, 82
2, 86809, Note_on_c, 0, 77, 81
2, 86815, Control_c, 0, 64, 127
2, 86887, Control_c, 0, 64, 0
2, 86943, Note_on_c, 0, 46, 0
2, 87046, Note_on_c, 0, 58, 72
2, 87076, Note_on_c, 0, 61, 54
2, 87138, Note_on_c, 0, 58, 0
2, 87277, Note_on_c, 0, 54, 65
2, 87280, Note_on_c, 0, 70, 81
2, 87280, Note_on_c, 0, 82, 80
2, 87283, Control_c, 0, 64, 127
2, 87355, Note_on_c, 0, 65, 0
2, 87355, Note_on_c, 0, 77, 0
2, 87363, Note_on_c, 0, 54, 0
2, 87383, Control_c, 0, 64, 0
2, 87503, Note_on_c, 0, 53, 62
2, 87595, Note_on_c, 0, 53, 0
2, 87628, Note_on_c, 0, 61, 0
2, 87715, Note_on_c, 0, 46, 63
2, 87840, Note_on_c, 0, 46, 0
2, 87930, Note_on_c, 0, 58, 57
2, 87930, Note_on_c, 0, 61, 54
2, 88035, Note_on_c, 0, 58, 0
2, 88144, Note_on_c, 0, 54, 61
2, 88150, Control_c, 0, 64, 127
2, 88158, Note_on_c, 0, 70, 0
2, 88161, Note_on_c, 0, 82, 0
2, 88167, Note_on_c, 0, 64, 59
2, 88167, Note_on_c, 0, 76, 65
2, 88234, Note_on_c, 0, 54, 0
2, 88340, Control_c, 0, 64, 0
2, 88365, Note_on_c, 0, 65, 65
2, 88365, Note_on_c, 0, 77, 67
2, 88395, Note_on_c, 0, 53, 56
2, 88401, Note_on_c, 0, 76, 0
2, 88401, Note_on_c, 0, 64, 0
2, 88420, Note_on_c, 0, 61, 0
2, 88488, Note_on_c, 0, 53, 0
2, 88499, Note_on_c, 0, 70, 75
2, 88502, Note_on_c, 0, 82, 76
2, 88546, Note_on_c, 0, 65, 0
2, 88549, Note_on_c, 0, 77, 0
2, 88697, Note_on_c, 0, 70, 0
2, 88697, Note_on_c, 0, 82, 0
2, 88705, Note_on_c, 0, 73, 82
2, 88705, Note_on_c, 0, 85, 82
2, 88711, Note_on_c, 0, 46, 75
2, 88730, Control_c, 0, 64, 127
2, 88922, Control_c, 0, 64, 0
2, 88939, Note_on_c, 0, 46, 0
2, 88950, Note_on_c, 0, 58, 52
2, 88962, Note_on_c, 0, 61, 58
2, 89040, Note_on_c, 0, 58, 0
2, 89207, Note_on_c, 0, 54, 68
2, 89254, Note_on_c, 0, 73, 0
2, 89256, Note_on_c, 0, 85, 0
2, 89262, Note_on_c, 0, 64, 77
2, 89262, Note_on_c, 0, 76, 81
2, 89287, Control_c, 0, 64, 127
2, 89321, Note_on_c, 0, 54, 0
2, 89432, Note_on_c, 0, 65, 77
2, 89435, Note_on_c, 0, 77, 77
2, 89499, Note_on_c, 0, 64, 0
2, 89505, Note_on_c, 0, 76, 0
2, 89533, Note_on_c, 0, 53, 58
2, 89600, Note_on_c, 0, 53, 0
2, 89615, Control_c, 0, 64, 0
2, 89626, Note_on_c, 0, 70, 79
2, 89629, Note_on_c, 0, 82, 80
2, 89704, Note_on_c, 0, 77, 0
2, 89704, Note_on_c, 0, 65, 0
2, 89796, Note_on_c, 0, 61, 0
2, 89802, Note_on_c, 0, 46, 82
2, 89866, Note_on_c, 0, 73, 89
2, 89869, Note_on_c, 0, 85, 88
2, 89947, Note_on_c, 0, 70, 0
2, 89950, Note_on_c, 0, 82, 0
2, 89966, Note_on_c, 0, 46, 0
2, 90047, Control_c, 0, 64, 127
2, 90139, Note_on_c, 0, 57, 51
2, 90150, Note_on_c, 0, 63, 53
2, 90231, Note_on_c, 0, 57, 0
2, 90398, Note_on_c, 0, 54, 60
2, 90484, Note_on_c, 0, 54, 0
2, 90552, Control_c, 0, 64, 0
2, 90669, Note_on_c, 0, 53, 56
2, 90672, Note_on_c, 0, 72, 66
2, 90674, Note_on_c, 0, 84, 69
2, 90742, Note_on_c, 0, 73, 0
2, 90744, Note_on_c, 0, 85, 0
2, 90825, Note_on_c, 0, 53, 0
2, 90959, Note_on_c, 0, 63, 0
2, 90959, Note_on_c, 0, 70, 76
2, 90961, Note_on_c, 0, 82, 69
2, 90964, Note_on_c, 0, 46, 67
2, 91042, Note_on_c, 0, 72, 0
2, 91045, Note_on_c, 0, 84, 0
2, 91059, Note_on_c, 0, 46, 0
2, 91176, Control_c, 0, 64, 127
2, 91235, Note_on_c, 0, 58, 60
2, 91244, Note_on_c, 0, 61, 60
2, 91383, Note_on_c, 0, 58, 0
2, 91453, Control_c, 0, 64, 0
2, 91481, Note_on_c, 0, 54, 61
2, 91576, Note_on_c, 0, 54, 0
2, 91718, Note_on_c, 0, 53, 53
2, 91765, Control_c, 0, 67, 127
2, 91801, Note_on_c, 0, 53, 0
2, 91960, Note_on_c, 0, 46, 57
2, 92071, Note_on_c, 0, 46, 0
2, 92096, Note_on_c, 0, 61, 0
2, 92155, Note_on_c, 0, 70, 0
2, 92155, Note_on_c, 0, 82, 0
2, 92160, Control_c, 0, 64, 127
2, 92180, Note_on_c, 0, 58, 58
2, 92180, Note_on_c, 0, 61, 54
2, 92213, Control_c, 0, 64, 0
2, 92280, Note_on_c, 0, 58, 0
2, 92423, Note_on_c, 0, 54, 51
2, 92467, Control_c, 0, 64, 127
2, 92503, Note_on_c, 0, 54, 0
2, 92525, Control_c, 0, 64, 0
2, 92606, Control_c, 0, 67, 0
2, 92642, Note_on_c, 0, 53, 57
2, 92712, Note_on_c, 0, 53, 0
2, 92932, Note_on_c, 0, 61, 0
2, 92935, Note_on_c, 0, 46, 66
2, 92941, Note_on_c, 0, 72, 80
2, 92963, Control_c, 0, 64, 127
2, 93172, Control_c, 0, 64, 0
2, 93178, Note_on_c, 0, 57, 59
2, 93190, Note_on_c, 0, 46, 0
2, 93190, Note_on_c, 0, 63, 58
2, 93362, Note_on_c, 0, 57, 0
2, 93412, Note_on_c, 0, 54, 57
2, 93527, Note_on_c, 0, 54, 0
2, 93624, Note_on_c, 0, 53, 51
2, 93627, Note_on_c, 0, 73, 66
2, 93680, Note_on_c, 0, 53, 0
2, 93695, Note_on_c, 0, 72, 0
2, 93859, Note_on_c, 0, 63, 0
2, 93864, Note_on_c, 0, 46, 65
2, 93870, Note_on_c, 0, 70, 69
2, 93917, Control_c, 0, 64, 127
2, 93939, Note_on_c, 0, 73, 0
2, 93986, Note_on_c, 0, 46, 0
2, 94073, Control_c, 0, 64, 0
2, 94117, Note_on_c, 0, 58, 61
2, 94117, Note_on_c, 0, 61, 57
2, 94120, Note_on_c, 0, 77, 61
2, 94220, Note_on_c, 0, 70, 0
2, 94256, Note_on_c, 0, 58, 0
2, 94309, Control_c, 0, 64, 127
2, 94328, Note_on_c, 0, 54, 61
2, 94370, Control_c, 0, 64, 0
2, 94410, Note_on_c, 0, 54, 0
2, 94543, Note_on_c, 0, 53, 56
2, 94587, Control_c, 0, 67, 127
2, 94624, Note_on_c, 0, 53, 0
2, 94766, Note_on_c, 0, 46, 67
2, 94794, Note_on_c, 0, 61, 0
2, 94797, Note_on_c, 0, 77, 0
2, 94805, Note_on_c, 0, 72, 76
2, 94849, Control_c, 0, 64, 127
2, 95006, Control_c, 0, 64, 0
2, 95031, Note_on_c, 0, 57, 59
2, 95031, Note_on_c, 0, 63, 62
2, 95045, Note_on_c, 0, 46, 0
2, 95176, Note_on_c, 0, 57, 0
2, 95265, Note_on_c, 0, 54, 62
2, 95354, Note_on_c, 0, 54, 0
2, 95466, Note_on_c, 0, 73, 69
2, 95469, Control_c, 0, 64, 127
2, 95496, Note_on_c, 0, 53, 56
2, 95539, Control_c, 0, 64, 0
2, 95547, Note_on_c, 0, 72, 0
2, 95567, Note_on_c, 0, 53, 0
2, 95700, Note_on_c, 0, 63, 0
2, 95706, Note_on_c, 0, 46, 57
2, 95712, Note_on_c, 0, 70, 63
2, 95789, Note_on_c, 0, 73, 0
2, 95833, Control_c, 0, 64, 127
2, 95931, Note_on_c, 0, 46, 0
2, 95943, Note_on_c, 0, 58, 64
2, 95943, Note_on_c, 0, 61, 61
2, 96069, Note_on_c, 0, 58, 0
2, 96164, Note_on_c, 0, 54, 57
2, 96172, Control_c, 0, 64, 0
2, 96244, Note_on_c, 0, 54, 0
2, 96386, Note_on_c, 0, 53, 53
2, 96454, Note_on_c, 0, 53, 0
2, 96648, Note_on_c, 0, 46, 62
2, 96651, Note_on_c, 0, 61, 0
2, 96654, Note_on_c, 0, 70, 0
2, 96660, Note_on_c, 0, 72, 67
2, 96735, Control_c, 0, 64, 127
2, 96921, Note_on_c, 0, 57, 65
2, 96921, Note_on_c, 0, 63, 63
2, 96924, Note_on_c, 0, 46, 0
2, 97024, Note_on_c, 0, 57, 0
2, 97124, Control_c, 0, 64, 0
2, 97146, Note_on_c, 0, 54, 55
2, 97377, Note_on_c, 0, 54, 0
2, 97389, Note_on_c, 0, 53, 52
2, 97389, Note_on_c, 0, 73, 64
2, 97469, Note_on_c, 0, 72, 0
2, 97648, Note_on_c, 0, 63, 0
2, 97648, Note_on_c, 0, 53, 0
2, 97654, Note_on_c, 0, 46, 62
2, 97656, Note_on_c, 0, 70, 64
2, 97712, Control_c, 0, 64, 127
2, 97749, Note_on_c, 0, 73, 0
2, 97907, Note_on_c, 0, 46, 0
2, 97921, Note_on_c, 0, 58, 57
2, 97921, Note_on_c, 0, 61, 51
2, 97921, Note_on_c, 0, 77, 57
2, 98008, Note_on_c, 0, 70, 0
2, 98041, Note_on_c, 0, 58, 0
2, 98053, Control_c, 0, 64, 0
2, 98142, Note_on_c, 0, 54, 53
2, 98229, Note_on_c, 0, 54, 0
2, 98374, Note_on_c, 0, 53, 52
2, 98472, Note_on_c, 0, 53, 0
2, 98636, Note_on_c, 0, 46, 53
2, 98641, Note_on_c, 0, 77, 0
2, 98647, Note_on_c, 0, 72, 76
2, 98681, Control_c, 0, 64, 127
2, 98798, Control_c, 0, 64, 0
2, 98918, Note_on_c, 0, 46, 0
2, 98918, Note_on_c, 0, 61, 0
2, 98927, Note_on_c, 0, 57, 66
2, 98938, Note_on_c, 0, 63, 53
2, 99089, Note_on_c, 0, 57, 0
2, 99219, Note_on_c, 0, 54, 61
2, 99345, Note_on_c, 0, 54, 0
2, 99423, Note_on_c, 0, 65, 61
2, 99490, Note_on_c, 0, 53, 51
2, 99515, Note_on_c, 0, 72, 0
2, 99590, Note_on_c, 0, 53, 0
2, 99732, Note_on_c, 0, 65, 0
2, 99738, Note_on_c, 0, 72, 64
2, 99741, Note_on_c, 0, 46, 58
2, 99766, Control_c, 0, 64, 127
2, 99833, Control_c, 0, 64, 0
2, 99866, Note_on_c, 0, 46, 0
2, 99931, Note_on_c, 0, 63, 0
2, 99998, Note_on_c, 0, 57, 58
2, 100009, Note_on_c, 0, 63, 58
2, 100090, Note_on_c, 0, 57, 0
2, 100269, Note_on_c, 0, 54, 63
2, 100364, Note_on_c, 0, 54, 0
2, 100497, Note_on_c, 0, 72, 0
2, 100534, Note_on_c, 0, 53, 57
2, 100534, Note_on_c, 0, 65, 54
2, 100633, Note_on_c, 0, 53, 0
2, 100834, Note_on_c, 0, 65, 0
2, 100853, Note_on_c, 0, 46, 57
2, 100859, Note_on_c, 0, 72, 62
2, 100878, Control_c, 0, 64, 127
2, 100995, Control_c, 0, 64, 0
2, 101035, Note_on_c, 0, 46, 0
2, 101090, Note_on_c, 0, 63, 0
2, 101155, Note_on_c, 0, 63, 56
2, 101158, Note_on_c, 0, 57, 52
2, 101247, Note_on_c, 0, 57, 0
2, 101453, Note_on_c, 0, 54, 53
2, 101568, Note_on_c, 0, 54, 0
2, 101790, Note_on_c, 0, 65, 53
2, 101793, Note_on_c, 0, 53, 56
2, 101880, Note_on_c, 0, 72, 0
2, 101885, Control_c, 0, 67, 0
2, 101913, Note_on_c, 0, 53, 0
2, 102111, Note_on_c, 0, 65, 0
2, 102111, Note_on_c, 0, 63, 0
2, 102437, Note_on_c, 0, 53, 62
2, 102437, Note_on_c, 0, 65, 61
2, 102680, Note_on_c, 0, 55, 67
2, 102680, Note_on_c, 0, 67, 68
2, 102747, Note_on_c, 0, 65, 0
2, 102750, Note_on_c, 0, 53, 0
2, 102909, Note_on_c, 0, 57, 70
2, 102917, Note_on_c, 0, 69, 70
2, 102987, Note_on_c, 0, 55, 0
2, 102996, Note_on_c, 0, 67, 0
2, 103150, Note_on_c, 0, 69, 0
2, 103152, Note_on_c, 0, 57, 0
2, 103158, Note_on_c, 0, 70, 78
2, 103161, Note_on_c, 0, 58, 73
2, 103242, Control_c, 0, 64, 127
2, 103368, Control_c, 0, 64, 0
2, 103379, Note_on_c, 0, 74, 77
2, 103382, Note_on_c, 0, 62, 70
2, 103449, Note_on_c, 0, 70, 0
2, 103452, Note_on_c, 0, 58, 0
2, 103466, Control_c, 0, 64, 127
2, 103538, Note_on_c, 0, 74, 0
2, 103541, Note_on_c, 0, 62, 0
2, 103603, Note_on_c, 0, 74, 76
2, 103606, Note_on_c, 0, 58, 74
2, 103606, Note_on_c, 0, 62, 81
2, 103608, Note_on_c, 0, 46, 78
2, 103790, Note_on_c, 0, 58, 0
2, 103821, Control_c, 0, 64, 0
2, 103848, Note_on_c, 0, 58, 76
2, 103851, Note_on_c, 0, 62, 0
2, 103860, Note_on_c, 0, 74, 0
2, 103860, Note_on_c, 0, 70, 73
2, 104080, Note_on_c, 0, 46, 0
2, 104088, Note_on_c, 0, 70, 0
2, 104088, Note_on_c, 0, 55, 65
2, 104091, Note_on_c, 0, 58, 0
2, 104091, Note_on_c, 0, 43, 67
2, 104094, Note_on_c, 0, 75, 71
2, 104100, Note_on_c, 0, 63, 67
2, 104167, Control_c, 0, 64, 127
2, 104321, Control_c, 0, 64, 0
2, 104329, Note_on_c, 0, 43, 0
2, 104329, Note_on_c, 0, 55, 0
2, 104338, Note_on_c, 0, 45, 69
2, 104338, Note_on_c, 0, 57, 63
2, 104575, Note_on_c, 0, 57, 0
2, 104575, Note_on_c, 0, 63, 0
2, 104575, Note_on_c, 0, 75, 0
2, 104575, Note_on_c, 0, 45, 0
2, 104584, Note_on_c, 0, 46, 64
2, 104584, Note_on_c, 0, 58, 67
2, 104584, Note_on_c, 0, 62, 68
2, 104584, Note_on_c, 0, 74, 70
2, 104732, Control_c, 0, 64, 127
2, 104746, Note_on_c, 0, 62, 0
2, 104802, Note_on_c, 0, 58, 0
2, 104810, Note_on_c, 0, 62, 66
2, 104813, Note_on_c, 0, 46, 0
2, 104825, Note_on_c, 0, 50, 69
2, 105017, Control_c, 0, 64, 0
2, 105025, Note_on_c, 0, 62, 0
2, 105025, Note_on_c, 0, 74, 0
2, 105028, Note_on_c, 0, 50, 0
2, 105034, Note_on_c, 0, 60, 64
2, 105034, Note_on_c, 0, 63, 70
2, 105034, Note_on_c, 0, 72, 82
2, 105037, Note_on_c, 0, 51, 66
2, 105232, Note_on_c, 0, 51, 0
2, 105290, Note_on_c, 0, 60, 0
2, 105302, Note_on_c, 0, 39, 62
2, 105302, Note_on_c, 0, 51, 61
2, 105391, Control_c, 0, 64, 127
2, 105500, Control_c, 0, 64, 0
2, 105522, Note_on_c, 0, 51, 0
2, 105522, Note_on_c, 0, 63, 0
2, 105522, Note_on_c, 0, 72, 0
2, 105522, Note_on_c, 0, 39, 0
2, 105533, Note_on_c, 0, 40, 61
2, 105533, Note_on_c, 0, 52, 57
2, 105533, Note_on_c, 0, 55, 62
2, 105533, Note_on_c, 0, 67, 76
2, 105762, Note_on_c, 0, 67, 0
2, 105762, Note_on_c, 0, 40, 0
2, 105762, Note_on_c, 0, 52, 0
2, 105762, Note_on_c, 0, 55, 0
2, 105768, Note_on_c, 0, 41, 60
2, 105768, Note_on_c, 0, 65, 64
2, 105770, Note_on_c, 0, 53, 61
2, 105993, Note_on_c, 0, 65, 0
2, 105996, Note_on_c, 0, 53, 0
2, 105996, Note_on_c, 0, 41, 0
2, 106005, Note_on_c, 0, 45, 63
2, 106005, Note_on_c, 0, 57, 67
2, 106005, Note_on_c, 0, 60, 66
2, 106005, Note_on_c, 0, 72, 67
2, 106035, Control_c, 0, 64, 127
2, 106158, Control_c, 0, 64, 0
2, 106248, Note_on_c, 0, 45, 0
2, 106256, Note_on_c, 0, 46, 62
2, 106259, Note_on_c, 0, 72, 0
2, 106259, Note_on_c, 0, 60, 0
2, 106262, Note_on_c, 0, 57, 0
2, 106268, Note_on_c, 0, 58, 59
2, 106268, Note_on_c, 0, 70, 59
2, 106480, Note_on_c, 0, 70, 0
2, 106480, Note_on_c, 0, 58, 0
2, 106480, Note_on_c, 0, 46, 0
2, 106508, Note_on_c, 0, 45, 61
2, 106508, Note_on_c, 0, 53, 59
2, 106508, Note_on_c, 0, 57, 60
2, 106508, Note_on_c, 0, 65, 64
2, 106616, Control_c, 0, 67, 127
2, 106764, Note_on_c, 0, 57, 0
2, 106764, Note_on_c, 0, 45, 0
2, 106770, Note_on_c, 0, 44, 69
2, 106770, Note_on_c, 0, 56, 71
2, 107026, Note_on_c, 0, 56, 0
2, 107026, Note_on_c, 0, 44, 0
2, 107035, Note_on_c, 0, 45, 64
2, 107046, Note_on_c, 0, 57, 58
2, 107205, Note_on_c, 0, 53, 0
2, 107232, Control_c, 0, 67, 0
2, 107272, Note_on_c, 0, 45, 0
2, 107280, Note_on_c, 0, 41, 52
2, 107283, Note_on_c, 0, 57, 0
2, 107292, Note_on_c, 0, 53, 55
2, 107434, Note_on_c, 0, 65, 0
2, 107446, Note_on_c, 0, 53, 0
2, 107488, Note_on_c, 0, 41, 0
2, 107521, Note_on_c, 0, 38, 64
2, 107524, Note_on_c, 0, 65, 58
2, 107536, Note_on_c, 0, 50, 63
2, 107536, Note_on_c, 0, 53, 64
2, 107567, Control_c, 0, 64, 127
2, 107756, Note_on_c, 0, 65, 0
2, 107778, Note_on_c, 0, 62, 78
2, 107981, Control_c, 0, 64, 0
2, 107984, Note_on_c, 0, 62, 0
2, 107984, Note_on_c, 0, 53, 0
2, 107984, Note_on_c, 0, 50, 0
2, 107984, Note_on_c, 0, 38, 0
2, 108018, Note_on_c, 0, 40, 62
2, 108021, Note_on_c, 0, 52, 64
2, 108021, Note_on_c, 0, 55, 60
2, 108021, Note_on_c, 0, 67, 76
2, 108264, Control_c, 0, 64, 127
2, 108417, Control_c, 0, 64, 0
2, 108481, Note_on_c, 0, 40, 0
2, 108484, Note_on_c, 0, 52, 0
2, 108484, Note_on_c, 0, 55, 0
2, 108484, Note_on_c, 0, 67, 0
2, 108490, Note_on_c, 0, 41, 52
2, 108493, Note_on_c, 0, 62, 57
2, 108502, Note_on_c, 0, 50, 54
2, 108502, Note_on_c, 0, 53, 51
2, 108504, Note_on_c, 0, 57, 56
2, 108931, Note_on_c, 0, 41, 0
2, 108934, Note_on_c, 0, 53, 0
2, 108934, Note_on_c, 0, 62, 0
2, 108934, Note_on_c, 0, 50, 0
2, 108934, Note_on_c, 0, 57, 0
2, 108945, Note_on_c, 0, 72, 70
2, 108951, Note_on_c, 0, 52, 63
2, 108954, Note_on_c, 0, 40, 58
2, 108957, Note_on_c, 0, 60, 64
2, 109024, Control_c, 0, 64, 127
2, 109180, Control_c, 0, 64, 0
2, 109200, Note_on_c, 0, 40, 0
2, 109200, Note_on_c, 0, 52, 0
2, 109205, Note_on_c, 0, 38, 51
2, 109208, Note_on_c, 0, 50, 51
2, 109239, Control_c, 0, 67, 127
2, 109292, Control_c, 0, 64, 127
2, 109412, Note_on_c, 0, 60, 0
2, 109415, Note_on_c, 0, 72, 0
2, 109462, Note_on_c, 0, 38, 0
2, 109464, Note_on_c, 0, 50, 0
2, 109473, Note_on_c, 0, 40, 60
2, 109476, Note_on_c, 0, 52, 59
2, 109476, Note_on_c, 0, 60, 61
2, 109476, Note_on_c, 0, 72, 75
2, 109482, Control_c, 0, 64, 0
2, 109750, Note_on_c, 0, 72, 0
2, 109750, Note_on_c, 0, 60, 0
2, 109758, Note_on_c, 0, 62, 61
2, 109761, Note_on_c, 0, 74, 79
2, 109984, Note_on_c, 0, 40, 0
2, 109987, Note_on_c, 0, 52, 0
2, 109990, Note_on_c, 0, 62, 0
2, 109990, Note_on_c, 0, 41, 58
2, 109992, Note_on_c, 0, 74, 0
2, 109998, Note_on_c, 0, 53, 60
2, 109998, Note_on_c, 0, 57, 64
2, 110001, Note_on_c, 0, 69, 72
2, 110230, Note_on_c, 0, 41, 0
2, 110232, Note_on_c, 0, 53, 0
2, 110235, Note_on_c, 0, 57, 0
2, 110235, Note_on_c, 0, 69, 0
2, 110238, Note_on_c, 0, 43, 57
2, 110241, Note_on_c, 0, 55, 58
2, 110244, Note_on_c, 0, 67, 63
2, 110484, Note_on_c, 0, 43, 0
2, 110487, Note_on_c, 0, 55, 0
2, 110490, Note_on_c, 0, 67, 0
2, 110496, Note_on_c, 0, 57, 55
2, 110501, Note_on_c, 0, 65, 64
2, 110507, Note_on_c, 0, 45, 57
2, 110510, Note_on_c, 0, 53, 56
2, 110510, Note_on_c, 0, 60, 56
2, 110526, Control_c, 0, 64, 127
2, 110699, Control_c, 0, 64, 0
2, 110774, Note_on_c, 0, 53, 0
2, 110774, Note_on_c, 0, 45, 0
2, 110777, Note_on_c, 0, 57, 0
2, 110780, Note_on_c, 0, 43, 61
2, 110785, Note_on_c, 0, 55, 64
2, 111061, Note_on_c, 0, 55, 0
2, 111067, Note_on_c, 0, 43, 0
2, 111067, Note_on_c, 0, 53, 53
2, 111075, Note_on_c, 0, 41, 51
2, 111106, Control_c, 0, 64, 127
2, 111242, Note_on_c, 0, 41, 0
2, 111292, Control_c, 0, 64, 0
2, 111301, Control_c, 0, 67, 0
2, 111371, Note_on_c, 0, 29, 51
2, 111374, Note_on_c, 0, 41, 53
2, 111383, Note_on_c, 0, 53, 0
2, 111589, Note_on_c, 0, 60, 0
2, 111589, Note_on_c, 0, 65, 0
2, 111600, Note_on_c, 0, 29, 0
2, 111600, Note_on_c, 0, 46, 69
2, 111603, Note_on_c, 0, 41, 0
2, 111609, Note_on_c, 0, 34, 75
2, 111609, Note_on_c, 0, 70, 82
2, 111612, Note_on_c, 0, 82, 80
2, 111656, Control_c, 0, 64, 127
2, 111854, Note_on_c, 0, 70, 0
2, 111854, Note_on_c, 0, 74, 72
2, 111857, Note_on_c, 0, 82, 0
2, 111857, Note_on_c, 0, 86, 75
2, 112021, Note_on_c, 0, 74, 0
2, 112027, Note_on_c, 0, 86, 0
2, 112049, Note_on_c, 0, 53, 76
2, 112052, Note_on_c, 0, 58, 72
2, 112052, Note_on_c, 0, 62, 73
2, 112077, Note_on_c, 0, 74, 80
2, 112080, Note_on_c, 0, 86, 79
2, 112299, Control_c, 0, 64, 0
2, 112327, Note_on_c, 0, 74, 0
2, 112330, Note_on_c, 0, 86, 0
2, 112336, Note_on_c, 0, 70, 78
2, 112336, Note_on_c, 0, 82, 79
2, 112450, Note_on_c, 0, 58, 0
2, 112506, Note_on_c, 0, 62, 0
2, 112506, Note_on_c, 0, 53, 0
2, 112514, Note_on_c, 0, 55, 77
2, 112517, Note_on_c, 0, 58, 77
2, 112526, Note_on_c, 0, 63, 77
2, 112532, Note_on_c, 0, 70, 0
2, 112546, Note_on_c, 0, 82, 0
2, 112552, Note_on_c, 0, 75, 68
2, 112555, Note_on_c, 0, 87, 70
2, 112685, Control_c, 0, 64, 127
2, 112794, Note_on_c, 0, 57, 63
2, 112805, Note_on_c, 0, 55, 0
2, 112805, Note_on_c, 0, 58, 0
2, 112808, Note_on_c, 0, 63, 0
2, 112967, Control_c, 0, 64, 0
2, 113014, Note_on_c, 0, 34, 0
2, 113019, Note_on_c, 0, 46, 0
2, 113022, Note_on_c, 0, 57, 0
2, 113025, Note_on_c, 0, 75, 0
2, 113028, Note_on_c, 0, 53, 68
2, 113031, Note_on_c, 0, 87, 0
2, 113031, Note_on_c, 0, 58, 66
2, 113034, Note_on_c, 0, 74, 75
2, 113037, Note_on_c, 0, 77, 75
2, 113037, Note_on_c, 0, 86, 73
2, 113190, Control_c, 0, 64, 127
2, 113246, Note_on_c, 0, 62, 65
2, 113430, Note_on_c, 0, 77, 0
2, 113436, Control_c, 0, 64, 0
2, 113480, Note_on_c, 0, 53, 0
2, 113480, Note_on_c, 0, 62, 0
2, 113483, Note_on_c, 0, 74, 0
2, 113486, Note_on_c, 0, 86, 0
2, 113489, Note_on_c, 0, 57, 70
2, 113492, Note_on_c, 0, 58, 0
2, 113492, Note_on_c, 0, 65, 77
2, 113492, Note_on_c, 0, 72, 72
2, 113492, Note_on_c, 0, 77, 74
2, 113495, Note_on_c, 0, 84, 77
2, 113656, Control_c, 0, 64, 127
2, 113952, Control_c, 0, 64, 0
2, 113960, Note_on_c, 0, 60, 62
2, 113994, Note_on_c, 0, 65, 0
2, 113997, Note_on_c, 0, 77, 0
2, 113997, Note_on_c, 0, 72, 0
2, 114002, Note_on_c, 0, 84, 0
2, 114005, Note_on_c, 0, 67, 70
2, 114008, Note_on_c, 0, 79, 70
2, 114209, Control_c, 0, 64, 127
2, 114267, Note_on_c, 0, 67, 0
2, 114273, Note_on_c, 0, 65, 67
2, 114282, Note_on_c, 0, 79, 0
2, 114288, Note_on_c, 0, 77, 64
2, 114321, Control_c, 0, 64, 0
2, 114497, Note_on_c, 0, 55, 61
2, 114497, Note_on_c, 0, 58, 60
2, 114500, Note_on_c, 0, 62, 61
2, 114508, Note_on_c, 0, 72, 59
2, 114514, Note_on_c, 0, 84, 59
2, 114533, Note_on_c, 0, 57, 0
2, 114533, Note_on_c, 0, 65, 0
2, 114533, Note_on_c, 0, 60, 0
2, 114548, Note_on_c, 0, 77, 0
2, 114553, Control_c, 0, 64, 127
2, 114624, Control_c, 0, 64, 0
2, 114757, Note_on_c, 0, 64, 57
2, 114766, Note_on_c, 0, 72, 0
2, 114768, Note_on_c, 0, 84, 0
2, 114774, Note_on_c, 0, 70, 57
2, 114777, Note_on_c, 0, 82, 54
2, 115006, Note_on_c, 0, 55, 0
2, 115006, Note_on_c, 0, 58, 0
2, 115008, Note_on_c, 0, 62, 0
2, 115014, Note_on_c, 0, 53, 55
2, 115017, Note_on_c, 0, 57, 55
2, 115017, Note_on_c, 0, 60, 57
2, 115029, Note_on_c, 0, 65, 55
2, 115029, Note_on_c, 0, 69, 57
2, 115043, Note_on_c, 0, 77, 53
2, 115085, Note_on_c, 0, 70, 0
2, 115085, Note_on_c, 0, 64, 0
2, 115100, Note_on_c, 0, 82, 0
2, 115158, Control_c, 0, 64, 127
2, 115158, Control_c, 0, 67, 127
2, 115287, Note_on_c, 0, 55, 58
2, 115438, Note_on_c, 0, 53, 0
2, 115493, Note_on_c, 0, 55, 0
2, 115540, Control_c, 0, 64, 0
2, 115543, Note_on_c, 0, 53, 66
2, 115677, Control_c, 0, 67, 0
2, 115763, Note_on_c, 0, 41, 53
2, 115872, Note_on_c, 0, 57, 0
2, 115902, Note_on_c, 0, 69, 0
2, 115902, Note_on_c, 0, 65, 0
2, 115921, Note_on_c, 0, 41, 0
2, 115924, Note_on_c, 0, 53, 0
2, 115933, Note_on_c, 0, 50, 61
2, 115933, Note_on_c, 0, 57, 60
2, 115949, Note_on_c, 0, 77, 0
2, 115961, Note_on_c, 0, 60, 0
2, 115969, Note_on_c, 0, 62, 58
2, 115981, Note_on_c, 0, 65, 63
2, 115992, Note_on_c, 0, 69, 59
2, 116017, Note_on_c, 0, 77, 79
2, 116037, Control_c, 0, 64, 127
2, 116256, Note_on_c, 0, 77, 0
2, 116265, Note_on_c, 0, 74, 76
2, 116413, Note_on_c, 0, 62, 0
2, 116447, Control_c, 0, 64, 0
2, 116458, Note_on_c, 0, 74, 0
2, 116502, Note_on_c, 0, 57, 0
2, 116508, Note_on_c, 0, 58, 66
2, 116511, Note_on_c, 0, 50, 0
2, 116511, Note_on_c, 0, 69, 0
2, 116511, Note_on_c, 0, 65, 0
2, 116511, Note_on_c, 0, 62, 64
2, 116520, Note_on_c, 0, 55, 65
2, 116520, Note_on_c, 0, 67, 79
2, 116520, Note_on_c, 0, 74, 81
2, 116522, Note_on_c, 0, 79, 75
2, 116779, Control_c, 0, 64, 127
2, 116902, Control_c, 0, 64, 0
2, 116963, Note_on_c, 0, 74, 0
2, 116963, Note_on_c, 0, 62, 0
2, 117013, Note_on_c, 0, 58, 0
2, 117013, Note_on_c, 0, 55, 0
2, 117016, Note_on_c, 0, 67, 0
2, 117016, Note_on_c, 0, 79, 0
2, 117022, Note_on_c, 0, 53, 76
2, 117022, Note_on_c, 0, 57, 72
2, 117022, Note_on_c, 0, 62, 71
2, 117022, Note_on_c, 0, 74, 71
2, 117036, Note_on_c, 0, 69, 57
2, 117222, Control_c, 0, 64, 127
2, 117484, Note_on_c, 0, 62, 0
2, 117484, Note_on_c, 0, 53, 0
2, 117484, Note_on_c, 0, 57, 0
2, 117496, Note_on_c, 0, 52, 71
2, 117496, Note_on_c, 0, 55, 70
2, 117496, Note_on_c, 0, 60, 74
2, 117499, Note_on_c, 0, 74, 0
2, 117499, Note_on_c, 0, 69, 0
2, 117507, Note_on_c, 0, 72, 79
2, 117510, Note_on_c, 0, 84, 81
2, 117535, Control_c, 0, 64, 0
2, 117761, Note_on_c, 0, 55, 0
2, 117772, Note_on_c, 0, 52, 0
2, 117772, Note_on_c, 0, 53, 76
2, 117784, Note_on_c, 0, 50, 70
2, 117957, Note_on_c, 0, 60, 0
2, 117968, Note_on_c, 0, 72, 0
2, 117971, Note_on_c, 0, 84, 0
2, 118021, Note_on_c, 0, 60, 78
2, 118024, Note_on_c, 0, 53, 0
2, 118024, Note_on_c, 0, 50, 0
2, 118035, Note_on_c, 0, 48, 74
2, 118035, Note_on_c, 0, 52, 73
2, 118035, Note_on_c, 0, 72, 79
2, 118038, Note_on_c, 0, 84, 85
2, 118066, Control_c, 0, 64, 127
2, 118344, Note_on_c, 0, 84, 0
2, 118344, Note_on_c, 0, 60, 0
2, 118344, Note_on_c, 0, 72, 0
2, 118353, Note_on_c, 0, 62, 79
2, 118353, Note_on_c, 0, 74, 77
2, 118353, Note_on_c, 0, 86, 78
2, 118640, Note_on_c, 0, 86, 0
2, 118640, Note_on_c, 0, 62, 0
2, 118652, Note_on_c, 0, 57, 68
2, 118652, Note_on_c, 0, 69, 70
2, 118652, Note_on_c, 0, 81, 73
2, 118655, Note_on_c, 0, 74, 0
2, 118719, Control_c, 0, 64, 0
2, 118931, Note_on_c, 0, 55, 61
2, 118931, Note_on_c, 0, 67, 70
2, 118931, Note_on_c, 0, 79, 69
2, 118934, Note_on_c, 0, 48, 0
2, 118934, Note_on_c, 0, 52, 0
2, 118945, Note_on_c, 0, 46, 57
2, 118945, Note_on_c, 0, 50, 57
2, 119004, Note_on_c, 0, 57, 0
2, 119026, Note_on_c, 0, 69, 0
2, 119029, Note_on_c, 0, 81, 0
2, 119230, Note_on_c, 0, 55, 0
2, 119230, Note_on_c, 0, 67, 0
2, 119230, Note_on_c, 0, 50, 0
2, 119230, Note_on_c, 0, 46, 0
2, 119230, Note_on_c, 0, 79, 0
2, 119238, Note_on_c, 0, 45, 63
2, 119238, Note_on_c, 0, 48, 63
2, 119238, Note_on_c, 0, 53, 61
2, 119238, Note_on_c, 0, 65, 65
2, 119238, Note_on_c, 0, 77, 65
2, 119352, Control_c, 0, 64, 127
2, 119492, Note_on_c, 0, 45, 0
2, 119503, Control_c, 0, 64, 0
2, 119512, Note_on_c, 0, 46, 62
2, 119512, Note_on_c, 0, 50, 63
2, 119559, Note_on_c, 0, 48, 0
2, 119818, Note_on_c, 0, 45, 57
2, 119818, Note_on_c, 0, 48, 58
2, 119885, Note_on_c, 0, 46, 0
2, 119885, Note_on_c, 0, 50, 0
2, 119994, Control_c, 0, 64, 127
2, 120038, Note_on_c, 0, 53, 0
2, 120149, Note_on_c, 0, 41, 52
2, 120155, Control_c, 0, 64, 0
2, 120161, Note_on_c, 0, 53, 52
2, 120219, Note_on_c, 0, 48, 0
2, 120222, Note_on_c, 0, 45, 0
2, 120364, Note_on_c, 0, 41, 0
2, 120364, Note_on_c, 0, 53, 0
2, 120370, Note_on_c, 0, 34, 78
2, 120370, Note_on_c, 0, 46, 77
2, 120493, Note_on_c, 0, 65, 0
2, 120493, Note_on_c, 0, 77, 0
2, 120502, Note_on_c, 0, 70, 87
2, 120502, Note_on_c, 0, 82, 87
2, 120513, Note_on_c, 0, 53, 73
2, 120513, Note_on_c, 0, 58, 72
2, 120513, Note_on_c, 0, 62, 69
2, 120583, Control_c, 0, 64, 127
2, 120765, Note_on_c, 0, 70, 0
2, 120770, Note_on_c, 0, 86, 82
2, 120773, Note_on_c, 0, 82, 0
2, 120773, Note_on_c, 0, 74, 86
2, 120940, Note_on_c, 0, 74, 0
2, 120952, Note_on_c, 0, 86, 0
2, 121002, Note_on_c, 0, 53, 0
2, 121008, Note_on_c, 0, 54, 79
2, 121016, Note_on_c, 0, 74, 94
2, 121016, Note_on_c, 0, 86, 95
2, 121152, Control_c, 0, 64, 0
2, 121233, Note_on_c, 0, 74, 0
2, 121252, Note_on_c, 0, 70, 81
2, 121255, Note_on_c, 0, 86, 0
2, 121264, Note_on_c, 0, 82, 79
2, 121267, Note_on_c, 0, 46, 0
2, 121339, Note_on_c, 0, 54, 0
2, 121339, Note_on_c, 0, 58, 0
2, 121339, Note_on_c, 0, 62, 0
2, 121342, Note_on_c, 0, 34, 0
2, 121347, Note_on_c, 0, 46, 77
2, 121453, Note_on_c, 0, 82, 0
2, 121459, Note_on_c, 0, 87, 92
2, 121464, Note_on_c, 0, 70, 0
2, 121464, Note_on_c, 0, 55, 84
2, 121470, Note_on_c, 0, 75, 92
2, 121476, Note_on_c, 0, 63, 83
2, 121504, Control_c, 0, 64, 127
2, 121704, Note_on_c, 0, 55, 0
2, 121713, Note_on_c, 0, 54, 77
2, 121735, Control_c, 0, 64, 0
2, 121924, Note_on_c, 0, 87, 0
2, 121927, Note_on_c, 0, 63, 0
2, 121927, Note_on_c, 0, 75, 0
2, 121930, Note_on_c, 0, 46, 0
2, 121930, Note_on_c, 0, 54, 0
2, 121930, Note_on_c, 0, 86, 75
2, 121936, Note_on_c, 0, 74, 77
2, 121936, Note_on_c, 0, 77, 77
2, 121939, Note_on_c, 0, 53, 75
2, 121939, Note_on_c, 0, 62, 80
2, 122114, Control_c, 0, 64, 127
2, 122184, Note_on_c, 0, 58, 82
2, 122360, Note_on_c, 0, 53, 0
2, 122402, Note_on_c, 0, 77, 0
2, 122419, Note_on_c, 0, 58, 0
2, 122427, Note_on_c, 0, 53, 65
2, 122436, Note_on_c, 0, 72, 64
2, 122450, Note_on_c, 0, 74, 0
2, 122453, Note_on_c, 0, 62, 0
2, 122459, Control_c, 0, 64, 0
2, 122459, Note_on_c, 0, 77, 87
2, 122462, Note_on_c, 0, 60, 85
2, 122471, Note_on_c, 0, 86, 0
2, 122482, Note_on_c, 0, 84, 84
2, 122763, Control_c, 0, 64, 127
2, 122894, Note_on_c, 0, 53, 0
2, 122894, Note_on_c, 0, 60, 0
2, 122897, Control_c, 0, 64, 0
2, 122900, Note_on_c, 0, 67, 74
2, 122903, Note_on_c, 0, 57, 66
2, 122911, Note_on_c, 0, 77, 0
2, 122911, Note_on_c, 0, 84, 0
2, 122926, Note_on_c, 0, 79, 70
2, 123218, Note_on_c, 0, 79, 0
2, 123221, Note_on_c, 0, 67, 0
2, 123224, Note_on_c, 0, 77, 65
2, 123227, Note_on_c, 0, 65, 64
2, 123406, Note_on_c, 0, 72, 0
2, 123458, Note_on_c, 0, 77, 0
2, 123461, Note_on_c, 0, 57, 0
2, 123461, Note_on_c, 0, 65, 0
2, 123464, Note_on_c, 0, 84, 63
2, 123467, Note_on_c, 0, 72, 65
2, 123467, Note_on_c, 0, 74, 67
2, 123470, Note_on_c, 0, 55, 63
2, 123470, Note_on_c, 0, 58, 57
2, 123470, Note_on_c, 0, 62, 57
2, 123517, Control_c, 0, 64, 127
2, 123684, Control_c, 0, 64, 0
2, 123728, Note_on_c, 0, 74, 0
2, 123728, Note_on_c, 0, 84, 0
2, 123728, Note_on_c, 0, 72, 0
2, 123737, Note_on_c, 0, 70, 63
2, 123737, Note_on_c, 0, 76, 63
2, 123737, Note_on_c, 0, 82, 61
2, 124002, Note_on_c, 0, 82, 0
2, 124002, Note_on_c, 0, 70, 0
2, 124002, Note_on_c, 0, 62, 0
2, 124002, Note_on_c, 0, 76, 0
2, 124005, Note_on_c, 0, 55, 0
2, 124005, Note_on_c, 0, 58, 0
2, 124010, Note_on_c, 0, 77, 59
2, 124013, Note_on_c, 0, 53, 60
2, 124013, Note_on_c, 0, 57, 59
2, 124013, Note_on_c, 0, 60, 55
2, 124022, Note_on_c, 0, 65, 57
2, 124022, Note_on_c, 0, 69, 57
2, 124237, Note_on_c, 0, 60, 0
2, 124237, Note_on_c, 0, 57, 0
2, 124237, Note_on_c, 0, 53, 0
2, 124243, Note_on_c, 0, 55, 58
2, 124329, Control_c, 0, 64, 127
2, 124477, Control_c, 0, 64, 0
2, 124496, Note_on_c, 0, 55, 0
2, 124505, Note_on_c, 0, 53, 56
2, 124560, Control_c, 0, 67, 127
2, 124728, Control_c, 0, 67, 0
2, 124736, Note_on_c, 0, 41, 58
2, 124751, Note_on_c, 0, 29, 59
2, 124909, Note_on_c, 0, 69, 0
2, 124909, Note_on_c, 0, 77, 0
2, 124909, Note_on_c, 0, 65, 0
2, 124970, Note_on_c, 0, 53, 0
2, 124970, Note_on_c, 0, 41, 0
2, 124973, Note_on_c, 0, 29, 0
2, 124973, Note_on_c, 0, 77, 56
2, 124979, Note_on_c, 0, 38, 78
2, 124979, Note_on_c, 0, 50, 75
2, 124988, Note_on_c, 0, 65, 57
2, 124988, Note_on_c, 0, 69, 51
2, 125018, Control_c, 0, 64, 127
2, 125241, Note_on_c, 0, 77, 0
2, 125247, Note_on_c, 0, 74, 76
2, 125403, Control_c, 0, 64, 0
2, 125415, Note_on_c, 0, 38, 0
2, 125424, Note_on_c, 0, 43, 61
2, 125432, Note_on_c, 0, 74, 0
2, 125448, Note_on_c, 0, 46, 57
2, 125471, Note_on_c, 0, 50, 0
2, 125479, Note_on_c, 0, 55, 78
2, 125496, Note_on_c, 0, 74, 74
2, 125496, Note_on_c, 0, 79, 75
2, 125498, Note_on_c, 0, 69, 0
2, 125498, Note_on_c, 0, 65, 0
2, 125510, Note_on_c, 0, 67, 71
2, 125696, Control_c, 0, 64, 127
2, 125802, Control_c, 0, 64, 0
2, 125930, Note_on_c, 0, 74, 0
2, 125986, Note_on_c, 0, 79, 0
2, 125986, Note_on_c, 0, 67, 0
2, 125989, Note_on_c, 0, 46, 0
2, 125989, Note_on_c, 0, 43, 0
2, 125995, Note_on_c, 0, 69, 75
2, 125995, Note_on_c, 0, 74, 71
2, 126000, Note_on_c, 0, 41, 69
2, 126000, Note_on_c, 0, 45, 72
2, 126000, Note_on_c, 0, 62, 69
2, 126003, Note_on_c, 0, 55, 0
2, 126012, Note_on_c, 0, 53, 72
2, 126456, Note_on_c, 0, 45, 0
2, 126456, Note_on_c, 0, 41, 0
2, 126464, Note_on_c, 0, 40, 75
2, 126464, Note_on_c, 0, 52, 78
2, 126470, Note_on_c, 0, 72, 73
2, 126470, Note_on_c, 0, 79, 73
2, 126479, Note_on_c, 0, 84, 70
2, 126521, Note_on_c, 0, 53, 0
2, 126540, Note_on_c, 0, 74, 0
2, 126540, Note_on_c, 0, 69, 0
2, 126543, Note_on_c, 0, 62, 0
2, 126601, Control_c, 0, 64, 127
2, 126732, Note_on_c, 0, 79, 0
2, 126738, Note_on_c, 0, 77, 77
2, 126746, Note_on_c, 0, 40, 0
2, 126755, Note_on_c, 0, 38, 79
2, 126758, Note_on_c, 0, 52, 0
2, 126767, Note_on_c, 0, 50, 78
2, 126939, Note_on_c, 0, 72, 0
2, 126939, Note_on_c, 0, 84, 0
2, 126998, Note_on_c, 0, 77, 0
2, 127007, Note_on_c, 0, 72, 80
2, 127007, Note_on_c, 0, 76, 78
2, 127007, Note_on_c, 0, 84, 75
2, 127009, Note_on_c, 0, 50, 0
2, 127012, Note_on_c, 0, 38, 0
2, 127018, Note_on_c, 0, 36, 76
2, 127018, Note_on_c, 0, 48, 80
2, 127046, Control_c, 0, 64, 0
2, 127269, Note_on_c, 0, 74, 76
2, 127269, Note_on_c, 0, 86, 76
2, 127324, Note_on_c, 0, 76, 0
2, 127324, Note_on_c, 0, 84, 0
2, 127324, Note_on_c, 0, 72, 0
2, 127358, Control_c, 0, 64, 127
2, 127573, Note_on_c, 0, 86, 0
2, 127573, Note_on_c, 0, 74, 0
2, 127582, Note_on_c, 0, 69, 67
2, 127593, Note_on_c, 0, 81, 69
2, 127674, Control_c, 0, 64, 0
2, 127880, Note_on_c, 0, 36, 0
2, 127880, Note_on_c, 0, 48, 0
2, 127889, Note_on_c, 0, 34, 65
2, 127889, Note_on_c, 0, 46, 64
2, 127889, Note_on_c, 0, 67, 65
2, 127889, Note_on_c, 0, 74, 64
2, 127889, Note_on_c, 0, 79, 70
2, 127972, Note_on_c, 0, 69, 0
2, 127972, Note_on_c, 0, 81, 0
2, 128176, Note_on_c, 0, 74, 0
2, 128176, Note_on_c, 0, 67, 0
2, 128176, Note_on_c, 0, 79, 0
2, 128182, Note_on_c, 0, 65, 68
2, 128182, Note_on_c, 0, 72, 63
2, 128182, Note_on_c, 0, 77, 67
2, 128184, Note_on_c, 0, 46, 0
2, 128184, Note_on_c, 0, 34, 0
2, 128190, Note_on_c, 0, 33, 68
2, 128190, Note_on_c, 0, 45, 68
2, 128243, Control_c, 0, 67, 127
2, 128277, Control_c, 0, 64, 127
2, 128441, Note_on_c, 0, 72, 0
2, 128449, Note_on_c, 0, 33, 0
2, 128449, Note_on_c, 0, 45, 0
2, 128449, Note_on_c, 0, 74, 68
2, 128461, Note_on_c, 0, 46, 63
2, 128470, Note_on_c, 0, 34, 62
2, 128559, Control_c, 0, 64, 0
2, 128751, Note_on_c, 0, 72, 59
2, 128765, Note_on_c, 0, 33, 58
2, 128765, Note_on_c, 0, 45, 59
2, 128846, Note_on_c, 0, 34, 0
2, 128846, Note_on_c, 0, 46, 0
2, 128871, Note_on_c, 0, 74, 0
2, 129063, Control_c, 0, 67, 0
2, 129119, Note_on_c, 0, 29, 54
2, 129119, Note_on_c, 0, 41, 55
2, 129119, Note_on_c, 0, 69, 55
2, 129199, Note_on_c, 0, 45, 0
2, 129199, Note_on_c, 0, 33, 0
2, 129216, Note_on_c, 0, 72, 0
2, 129460, Note_on_c, 0, 65, 0
2, 129513, Note_on_c, 0, 41, 0
2, 129513, Note_on_c, 0, 29, 0
2, 129516, Note_on_c, 0, 77, 0
2, 129525, Note_on_c, 0, 63, 59
2, 129525, Note_on_c, 0, 72, 52
2, 129544, Note_on_c, 0, 65, 51
2, 129614, Control_c, 0, 64, 127
2, 129792, Note_on_c, 0, 72, 0
2, 129801, Note_on_c, 0, 77, 75
2, 130016, Note_on_c, 0, 77, 0
2, 130060, Control_c, 0, 64, 0
2, 130069, Note_on_c, 0, 63, 0
2, 130078, Note_on_c, 0, 62, 62
2, 130080, Note_on_c, 0, 77, 57
2, 130097, Note_on_c, 0, 70, 56
2, 130283, Note_on_c, 0, 70, 0
2, 130339, Note_on_c, 0, 69, 0
2, 130353, Note_on_c, 0, 70, 66
2, 130397, Control_c, 0, 64, 127
2, 130567, Control_c, 0, 64, 0
2, 130573, Note_on_c, 0, 70, 0
2, 130573, Note_on_c, 0, 65, 0
2, 130573, Note_on_c, 0, 62, 0
2, 130576, Note_on_c, 0, 77, 0
2, 130584, Note_on_c, 0, 60, 63
2, 130584, Note_on_c, 0, 75, 57
2, 130604, Note_on_c, 0, 69, 53
2, 130721, Control_c, 0, 67, 127
2, 130851, Control_c, 0, 64, 127
2, 130873, Note_on_c, 0, 69, 0
2, 130879, Note_on_c, 0, 65, 74
2, 130949, Note_on_c, 0, 60, 0
2, 131078, Note_on_c, 0, 65, 0
2, 131136, Note_on_c, 0, 75, 0
2, 131139, Note_on_c, 0, 65, 67
2, 131148, Control_c, 0, 64, 0
2, 131157, Note_on_c, 0, 74, 54
2, 131168, Note_on_c, 0, 70, 53
2, 131394, Note_on_c, 0, 58, 53
2, 131397, Note_on_c, 0, 65, 0
2, 131452, Control_c, 0, 67, 0
2, 131575, Note_on_c, 0, 58, 0
2, 131578, Note_on_c, 0, 70, 0
2, 131578, Note_on_c, 0, 74, 0
2, 132294, Control_c, 0, 67, 127
2, 132673, Note_on_c, 0, 77, 52
2, 132676, Control_c, 0, 64, 127
2, 132682, Note_on_c, 0, 68, 52
2, 132691, Note_on_c, 0, 70, 55
2, 132691, Note_on_c, 0, 74, 51
2, 132866, Control_c, 0, 64, 0
2, 132944, Note_on_c, 0, 77, 0
2, 132956, Note_on_c, 0, 82, 66
2, 132959, Control_c, 0, 64, 127
2, 133153, Note_on_c, 0, 82, 0
2, 133181, Control_c, 0, 64, 0
2, 133200, Note_on_c, 0, 68, 0
2, 133203, Note_on_c, 0, 70, 0
2, 133218, Note_on_c, 0, 82, 70
2, 133234, Note_on_c, 0, 67, 52
2, 133234, Note_on_c, 0, 75, 59
2, 133392, Control_c, 0, 64, 127
2, 133432, Note_on_c, 0, 75, 0
2, 133488, Note_on_c, 0, 74, 0
2, 133502, Note_on_c, 0, 75, 63
2, 133583, Control_c, 0, 64, 0
2, 133744, Note_on_c, 0, 67, 0
2, 133747, Note_on_c, 0, 75, 0
2, 133750, Note_on_c, 0, 82, 0
2, 133752, Note_on_c, 0, 65, 74
2, 133764, Note_on_c, 0, 74, 70
2, 133767, Note_on_c, 0, 80, 58
2, 134076, Note_on_c, 0, 70, 66
2, 134143, Note_on_c, 0, 65, 0
2, 134146, Control_c, 0, 64, 127
2, 134244, Note_on_c, 0, 70, 0
2, 134322, Control_c, 0, 64, 0
2, 134350, Note_on_c, 0, 74, 0
2, 134352, Note_on_c, 0, 80, 0
2, 134358, Note_on_c, 0, 70, 61
2, 134375, Note_on_c, 0, 79, 55
2, 134383, Note_on_c, 0, 75, 52
2, 134609, Note_on_c, 0, 70, 0
2, 134615, Note_on_c, 0, 63, 58
2, 134837, Note_on_c, 0, 63, 0
2, 134843, Note_on_c, 0, 75, 0
2, 134843, Note_on_c, 0, 79, 0
2, 134941, Control_c, 0, 67, 0
2, 135793, Note_on_c, 0, 61, 62
2, 135793, Note_on_c, 0, 70, 76
2, 135805, Note_on_c, 0, 52, 61
2, 135814, Control_c, 0, 64, 127
2, 135816, Note_on_c, 0, 67, 57
2, 136446, Control_c, 0, 64, 0
2, 136628, Note_on_c, 0, 61, 0
2, 136631, Note_on_c, 0, 70, 0
2, 136636, Note_on_c, 0, 60, 57
2, 136639, Note_on_c, 0, 72, 64
2, 136803, Control_c, 0, 64, 127
2, 136903, Control_c, 0, 67, 127
2, 137012, Control_c, 0, 64, 0
2, 137170, Note_on_c, 0, 60, 0
2, 137173, Note_on_c, 0, 72, 0
2, 137176, Note_on_c, 0, 58, 56
2, 137184, Note_on_c, 0, 73, 64
2, 137343, Control_c, 0, 64, 127
2, 137494, Control_c, 0, 64, 0
2, 137574, Note_on_c, 0, 58, 0
2, 137577, Note_on_c, 0, 41, 57
2, 137619, Note_on_c, 0, 52, 0
2, 137628, Note_on_c, 0, 58, 81
2, 137667, Note_on_c, 0, 67, 0
2, 137673, Note_on_c, 0, 65, 62
2, 137712, Note_on_c, 0, 73, 0
2, 137721, Note_on_c, 0, 74, 61
2, 137824, Control_c, 0, 64, 127
2, 137980, Control_c, 0, 64, 0
2, 138002, Note_on_c, 0, 58, 0
2, 138014, Note_on_c, 0, 62, 76
2, 138045, Control_c, 0, 64, 127
2, 138209, Note_on_c, 0, 62, 0
2, 138287, Note_on_c, 0, 62, 76
2, 138287, Note_on_c, 0, 70, 60
2, 138292, Note_on_c, 0, 74, 0
2, 138309, Control_c, 0, 64, 0
2, 138565, Note_on_c, 0, 58, 72
2, 138657, Note_on_c, 0, 62, 0
2, 138746, Note_on_c, 0, 70, 0
2, 138796, Note_on_c, 0, 41, 0
2, 138799, Note_on_c, 0, 65, 0
2, 138799, Note_on_c, 0, 58, 0
2, 138811, Note_on_c, 0, 63, 54
2, 138822, Note_on_c, 0, 67, 61
2, 138831, Note_on_c, 0, 70, 64
2, 138842, Note_on_c, 0, 53, 58
2, 138898, Control_c, 0, 64, 127
2, 139115, Control_c, 0, 64, 0
2, 139330, Note_on_c, 0, 62, 70
2, 139330, Note_on_c, 0, 65, 58
2, 139400, Note_on_c, 0, 67, 0
2, 139422, Note_on_c, 0, 63, 0
2, 139489, Control_c, 0, 64, 127
2, 139564, Control_c, 0, 64, 0
2, 139865, Note_on_c, 0, 62, 0
2, 139865, Note_on_c, 0, 53, 0
2, 139865, Note_on_c, 0, 65, 0
2, 139865, Note_on_c, 0, 70, 0
2, 139873, Note_on_c, 0, 60, 56
2, 139873, Note_on_c, 0, 69, 65
2, 139885, Note_on_c, 0, 54, 53
2, 139888, Note_on_c, 0, 63, 54
2, 139916, Control_c, 0, 64, 127
2, 140074, Control_c, 0, 64, 0
2, 140453, Note_on_c, 0, 54, 0
2, 140453, Note_on_c, 0, 58, 56
2, 140456, Note_on_c, 0, 69, 0
2, 140465, Note_on_c, 0, 55, 54
2, 140465, Note_on_c, 0, 62, 54
2, 140465, Note_on_c, 0, 70, 53
2, 140520, Note_on_c, 0, 63, 0
2, 140520, Note_on_c, 0, 60, 0
2, 140543, Control_c, 0, 67, 0
2, 140755, Note_on_c, 0, 58, 0
2, 140755, Note_on_c, 0, 62, 0
2, 140855, Note_on_c, 0, 55, 0
2, 140857, Note_on_c, 0, 70, 0
2, 141100, Control_c, 0, 67, 127
2, 141371, Note_on_c, 0, 30, 56
2, 141385, Note_on_c, 0, 42, 53
2, 141416, Note_on_c, 0, 49, 60
2, 141441, Control_c, 0, 64, 127
2, 141472, Note_on_c, 0, 58, 53
2, 141505, Note_on_c, 0, 64, 70
2, 141823, Control_c, 0, 64, 0
2, 142018, Note_on_c, 0, 58, 0
2, 142030, Note_on_c, 0, 49, 0
2, 142030, Note_on_c, 0, 30, 0
2, 142030, Note_on_c, 0, 42, 0
2, 142038, Note_on_c, 0, 29, 63
2, 142038, Note_on_c, 0, 41, 67
2, 142038, Note_on_c, 0, 50, 70
2, 142072, Note_on_c, 0, 58, 51
2, 142128, Note_on_c, 0, 64, 0
2, 142139, Note_on_c, 0, 65, 58
2, 142245, Control_c, 0, 64, 127
2, 142415, Note_on_c, 0, 53, 70
2, 142590, Note_on_c, 0, 53, 0
2, 142646, Note_on_c, 0, 65, 0
2, 142652, Note_on_c, 0, 58, 0
2, 142652, Note_on_c, 0, 50, 0
2, 142655, Note_on_c, 0, 41, 0
2, 142655, Control_c, 0, 64, 0
2, 142660, Note_on_c, 0, 53, 68
2, 142682, Note_on_c, 0, 62, 55
2, 142958, Note_on_c, 0, 50, 69
2, 143064, Note_on_c, 0, 53, 0
2, 143125, Note_on_c, 0, 29, 0
2, 143200, Note_on_c, 0, 29, 67
2, 143236, Note_on_c, 0, 50, 0
2, 143242, Note_on_c, 0, 57, 64
2, 143245, Note_on_c, 0, 62, 0
2, 143245, Note_on_c, 0, 43, 63
2, 143254, Note_on_c, 0, 63, 72
2, 143382, Control_c, 0, 64, 127
2, 143568, Control_c, 0, 64, 0
2, 143828, Note_on_c, 0, 43, 0
2, 143833, Note_on_c, 0, 53, 69
2, 144129, Note_on_c, 0, 63, 0
2, 144135, Note_on_c, 0, 62, 59
2, 144350, Note_on_c, 0, 62, 0
2, 144364, Note_on_c, 0, 53, 0
2, 144408, Note_on_c, 0, 57, 0
2, 144414, Note_on_c, 0, 58, 62
2, 144414, Note_on_c, 0, 62, 63
2, 144426, Note_on_c, 0, 29, 0
2, 144429, Note_on_c, 0, 53, 60
2, 144432, Note_on_c, 0, 46, 58
2, 144540, Note_on_c, 0, 62, 0
2, 144543, Note_on_c, 0, 58, 0
2, 144543, Note_on_c, 0, 53, 0
2, 144543, Note_on_c, 0, 46, 0
2, 144694, Note_on_c, 0, 62, 58
2, 144696, Note_on_c, 0, 53, 54
2, 144696, Note_on_c, 0, 58, 56
2, 144699, Note_on_c, 0, 46, 53
2, 144742, Note_on_c, 0, 58, 0
2, 144742, Note_on_c, 0, 62, 0
2, 144742, Note_on_c, 0, 53, 0
2, 144744, Note_on_c, 0, 46, 0
2, 145452, Note_on_c, 0, 70, 57
2, 145455, Note_on_c, 0, 46, 55
2, 145464, Note_on_c, 0, 62, 56
2, 145466, Note_on_c, 0, 53, 55
2, 145494, Note_on_c, 0, 70, 0
2, 145503, Note_on_c, 0, 46, 0
2, 145509, Note_on_c, 0, 62, 0
2, 145512, Note_on_c, 0, 53, 0
2, 145727, Note_on_c, 0, 62, 56
2, 145727, Note_on_c, 0, 70, 54
2, 145741, Note_on_c, 0, 46, 53
2, 145741, Note_on_c, 0, 53, 57
2, 145760, Note_on_c, 0, 70, 0
2, 145775, Note_on_c, 0, 62, 0
2, 145786, Note_on_c, 0, 53, 0
2, 145789, Note_on_c, 0, 46, 0
2, 146400, Note_on_c, 0, 62, 55
2, 146422, Note_on_c, 0, 65, 54
2, 146422, Note_on_c, 0, 70, 54
2, 146424, Note_on_c, 0, 46, 51
2, 146424, Note_on_c, 0, 53, 53
2, 146458, Note_on_c, 0, 70, 0
2, 146458, Note_on_c, 0, 65, 0
2, 146464, Note_on_c, 0, 53, 0
2, 146467, Note_on_c, 0, 46, 0
2, 146503, Control_c, 0, 64, 127
2, 146620, Note_on_c, 0, 62, 0
2, 146663, Control_c, 0, 64, 0
2, 146707, Note_on_c, 0, 62, 51
2, 146707, Note_on_c, 0, 65, 56
2, 146707, Note_on_c, 0, 70, 56
2, 146710, Note_on_c, 0, 46, 52
2, 146710, Note_on_c, 0, 53, 55
2, 146740, Note_on_c, 0, 53, 0
2, 146740, Note_on_c, 0, 70, 0
2, 146740, Note_on_c, 0, 65, 0
2, 146746, Note_on_c, 0, 46, 0
2, 146997, Note_on_c, 0, 58, 67
2, 147055, Note_on_c, 0, 62, 0
2, 147354, Note_on_c, 0, 60, 64
2, 147357, Note_on_c, 0, 58, 0
2, 147490, Note_on_c, 0, 62, 58
2, 147493, Note_on_c, 0, 60, 0
2, 147499, Note_on_c, 0, 65, 55
2, 147499, Note_on_c, 0, 70, 53
2, 147504, Note_on_c, 0, 46, 54
2, 147504, Note_on_c, 0, 53, 55
2, 147532, Note_on_c, 0, 70, 0
2, 147532, Note_on_c, 0, 65, 0
2, 147535, Note_on_c, 0, 53, 0
2, 147541, Note_on_c, 0, 46, 0
2, 147597, Control_c, 0, 64, 127
2, 147680, Note_on_c, 0, 62, 0
2, 147711, Control_c, 0, 64, 0
2, 147747, Note_on_c, 0, 62, 57
2, 147747, Note_on_c, 0, 65, 58
2, 147750, Note_on_c, 0, 46, 52
2, 147750, Note_on_c, 0, 53, 58
2, 147756, Note_on_c, 0, 70, 58
2, 147784, Note_on_c, 0, 53, 0
2, 147784, Note_on_c, 0, 65, 0
2, 147787, Note_on_c, 0, 46, 0
2, 147792, Note_on_c, 0, 70, 0
2, 148046, Note_on_c, 0, 58, 65
2, 148102, Note_on_c, 0, 62, 0
2, 148386, Note_on_c, 0, 60, 59
2, 148402, Note_on_c, 0, 58, 0
2, 148519, Note_on_c, 0, 62, 56
2, 148531, Note_on_c, 0, 60, 0
2, 148536, Note_on_c, 0, 65, 51
2, 148536, Note_on_c, 0, 70, 57
2, 148542, Note_on_c, 0, 46, 54
2, 148542, Note_on_c, 0, 53, 52
2, 148573, Note_on_c, 0, 70, 0
2, 148573, Note_on_c, 0, 65, 0
2, 148576, Note_on_c, 0, 53, 0
2, 148576, Note_on_c, 0, 46, 0
2, 148671, Control_c, 0, 64, 127
2, 148738, Note_on_c, 0, 62, 0
2, 148744, Control_c, 0, 64, 0
2, 148802, Note_on_c, 0, 70, 52
2, 148805, Note_on_c, 0, 62, 56
2, 148814, Note_on_c, 0, 46, 55
2, 148814, Note_on_c, 0, 53, 55
2, 148839, Note_on_c, 0, 70, 0
2, 148850, Note_on_c, 0, 53, 0
2, 148853, Note_on_c, 0, 46, 0
2, 149073, Note_on_c, 0, 62, 0
2, 149082, Note_on_c, 0, 65, 76
2, 149202, Control_c, 0, 64, 127
2, 149452, Control_c, 0, 64, 0
2, 149552, Note_on_c, 0, 62, 53
2, 149552, Note_on_c, 0, 70, 73
2, 149555, Note_on_c, 0, 46, 54
2, 149555, Note_on_c, 0, 53, 55
2, 149583, Note_on_c, 0, 70, 0
2, 149586, Note_on_c, 0, 46, 0
2, 149586, Note_on_c, 0, 53, 0
2, 149586, Note_on_c, 0, 62, 0
2, 149808, Note_on_c, 0, 70, 76
2, 149811, Note_on_c, 0, 46, 58
2, 149811, Note_on_c, 0, 53, 56
2, 149811, Note_on_c, 0, 62, 51
2, 149831, Control_c, 0, 67, 0
2, 149845, Note_on_c, 0, 62, 0
2, 149845, Note_on_c, 0, 46, 0
2, 149845, Note_on_c, 0, 53, 0
2, 149876, Note_on_c, 0, 70, 0
2, 150141, Note_on_c, 0, 65, 0
2, 150141, Note_on_c, 0, 55, 68
2, 150216, Control_c, 0, 64, 127
2, 150333, Note_on_c, 0, 57, 65
2, 150416, Control_c, 0, 64, 0
2, 150435, Note_on_c, 0, 55, 0
2, 150505, Note_on_c, 0, 58, 68
2, 150570, Note_on_c, 0, 57, 0
2, 150684, Note_on_c, 0, 62, 73
2, 150703, Note_on_c, 0, 46, 52
2, 150703, Note_on_c, 0, 53, 58
2, 150703, Note_on_c, 0, 70, 71
2, 150734, Note_on_c, 0, 46, 0
2, 150737, Note_on_c, 0, 53, 0
2, 150737, Note_on_c, 0, 70, 0
2, 150762, Note_on_c, 0, 58, 0
2, 150798, Control_c, 0, 64, 127
2, 150915, Control_c, 0, 64, 0
2, 151041, Note_on_c, 0, 46, 53
2, 151041, Note_on_c, 0, 53, 54
2, 151041, Note_on_c, 0, 70, 76
2, 151075, Note_on_c, 0, 46, 0
2, 151078, Note_on_c, 0, 70, 0
2, 151078, Note_on_c, 0, 53, 0
2, 151180, Control_c, 0, 67, 127
2, 151406, Note_on_c, 0, 62, 0
2, 151437, Note_on_c, 0, 55, 65
2, 151523, Control_c, 0, 64, 127
2, 151634, Note_on_c, 0, 57, 66
2, 151674, Control_c, 0, 64, 0
2, 151680, Note_on_c, 0, 55, 0
2, 151810, Note_on_c, 0, 58, 63
2, 151866, Note_on_c, 0, 57, 0
2, 152022, Note_on_c, 0, 62, 51
2, 152037, Note_on_c, 0, 58, 0
2, 152042, Note_on_c, 0, 46, 53
2, 152042, Note_on_c, 0, 54, 54
2, 152045, Note_on_c, 0, 63, 58
2, 152045, Note_on_c, 0, 69, 54
2, 152076, Note_on_c, 0, 46, 0
2, 152079, Note_on_c, 0, 63, 0
2, 152079, Note_on_c, 0, 69, 0
2, 152079, Note_on_c, 0, 54, 0
2, 152146, Control_c, 0, 64, 127
2, 152249, Control_c, 0, 64, 0
2, 152344, Note_on_c, 0, 46, 53
2, 152347, Note_on_c, 0, 54, 51
2, 152347, Note_on_c, 0, 63, 58
2, 152347, Note_on_c, 0, 69, 53
2, 152380, Note_on_c, 0, 54, 0
2, 152380, Note_on_c, 0, 46, 0
2, 152383, Note_on_c, 0, 69, 0
2, 152383, Note_on_c, 0, 63, 0
2, 152634, Control_c, 0, 64, 127
2, 152846, Control_c, 0, 64, 0
2, 152896, Note_on_c, 0, 60, 57
2, 152902, Note_on_c, 0, 62, 0
2, 153161, Note_on_c, 0, 58, 57
2, 153175, Note_on_c, 0, 60, 0
2, 153181, Note_on_c, 0, 46, 52
2, 153181, Note_on_c, 0, 53, 52
2, 153184, Note_on_c, 0, 62, 53
2, 153184, Note_on_c, 0, 70, 58
2, 153212, Note_on_c, 0, 46, 0
2, 153215, Note_on_c, 0, 53, 0
2, 153217, Note_on_c, 0, 70, 0
2, 153217, Note_on_c, 0, 62, 0
2, 153409, Note_on_c, 0, 46, 56
2, 153415, Note_on_c, 0, 62, 54
2, 153415, Note_on_c, 0, 70, 52
2, 153427, Note_on_c, 0, 53, 52
2, 153446, Note_on_c, 0, 46, 0
2, 153449, Note_on_c, 0, 62, 0
2, 153452, Note_on_c, 0, 70, 0
2, 153460, Note_on_c, 0, 53, 0
2, 153555, Control_c, 0, 64, 127
2, 153840, Control_c, 0, 64, 0
2, 154115, Note_on_c, 0, 46, 54
2, 154121, Note_on_c, 0, 62, 54
2, 154124, Note_on_c, 0, 70, 58
2, 154129, Note_on_c, 0, 53, 56
2, 154154, Note_on_c, 0, 46, 0
2, 154157, Note_on_c, 0, 62, 0
2, 154160, Note_on_c, 0, 70, 0
2, 154169, Note_on_c, 0, 53, 0
2, 154364, Note_on_c, 0, 46, 51
2, 154375, Note_on_c, 0, 53, 52
2, 154375, Note_on_c, 0, 62, 56
2, 154378, Note_on_c, 0, 70, 55
2, 154394, Note_on_c, 0, 46, 0
2, 154406, Note_on_c, 0, 53, 0
2, 154409, Note_on_c, 0, 62, 0
2, 154412, Note_on_c, 0, 70, 0
2, 154495, Control_c, 0, 67, 0
2, 154523, Control_c, 0, 64, 127
2, 154743, Control_c, 0, 64, 0
2, 154804, Note_on_c, 0, 58, 0
2, 155011, Note_on_c, 0, 55, 53
2, 155025, Note_on_c, 0, 46, 53
2, 155028, Note_on_c, 0, 53, 58
2, 155031, Note_on_c, 0, 63, 57
2, 155037, Note_on_c, 0, 72, 58
2, 155064, Note_on_c, 0, 53, 0
2, 155064, Note_on_c, 0, 46, 0
2, 155070, Note_on_c, 0, 72, 0
2, 155070, Note_on_c, 0, 63, 0
2, 155095, Control_c, 0, 64, 127
2, 155201, Control_c, 0, 64, 0
2, 155293, Note_on_c, 0, 46, 58
2, 155296, Note_on_c, 0, 53, 56
2, 155296, Note_on_c, 0, 63, 52
2, 155302, Note_on_c, 0, 72, 52
2, 155329, Note_on_c, 0, 46, 0
2, 155332, Note_on_c, 0, 53, 0
2, 155335, Note_on_c, 0, 72, 0
2, 155335, Note_on_c, 0, 63, 0
2, 155536, Note_on_c, 0, 57, 68
2, 155547, Note_on_c, 0, 55, 0
2, 155619, Control_c, 0, 64, 127
2, 155719, Control_c, 0, 64, 0
2, 155895, Note_on_c, 0, 58, 65
2, 155911, Note_on_c, 0, 57, 0
2, 156053, Note_on_c, 0, 57, 57
2, 156068, Note_on_c, 0, 58, 0
2, 156071, Note_on_c, 0, 46, 58
2, 156073, Note_on_c, 0, 53, 51
2, 156076, Note_on_c, 0, 63, 56
2, 156079, Note_on_c, 0, 72, 51
2, 156107, Note_on_c, 0, 46, 0
2, 156110, Note_on_c, 0, 53, 0
2, 156113, Note_on_c, 0, 63, 0
2, 156116, Note_on_c, 0, 72, 0
2, 156141, Control_c, 0, 64, 127
2, 156255, Control_c, 0, 64, 0
2, 156330, Note_on_c, 0, 46, 58
2, 156333, Note_on_c, 0, 53, 55
2, 156336, Note_on_c, 0, 63, 53
2, 156350, Note_on_c, 0, 72, 51
2, 156366, Note_on_c, 0, 46, 0
2, 156369, Note_on_c, 0, 53, 0
2, 156372, Note_on_c, 0, 63, 0
2, 156388, Note_on_c, 0, 72, 0
2, 156620, Note_on_c, 0, 58, 71
2, 156690, Note_on_c, 0, 57, 0
2, 156974, Note_on_c, 0, 60, 63
2, 157046, Note_on_c, 0, 58, 0
2, 157163, Note_on_c, 0, 62, 53
2, 157169, Note_on_c, 0, 46, 57
2, 157172, Note_on_c, 0, 53, 58
2, 157177, Note_on_c, 0, 60, 0
2, 157177, Note_on_c, 0, 70, 76
2, 157202, Note_on_c, 0, 46, 0
2, 157205, Note_on_c, 0, 53, 0
2, 157211, Note_on_c, 0, 70, 0
2, 157283, Note_on_c, 0, 60, 63
2, 157297, Note_on_c, 0, 62, 0
2, 157397, Note_on_c, 0, 58, 58
2, 157414, Note_on_c, 0, 46, 54
2, 157419, Note_on_c, 0, 53, 51
2, 157419, Note_on_c, 0, 62, 54
2, 157422, Note_on_c, 0, 60, 0
2, 157422, Note_on_c, 0, 70, 72
2, 157450, Note_on_c, 0, 46, 0
2, 157453, Note_on_c, 0, 53, 0
2, 157456, Note_on_c, 0, 62, 0
2, 157459, Note_on_c, 0, 70, 0
2, 157637, Control_c, 0, 64, 127
2, 157938, Control_c, 0, 64, 0
2, 158111, Note_on_c, 0, 46, 54
2, 158113, Note_on_c, 0, 53, 52
2, 158116, Note_on_c, 0, 62, 52
2, 158119, Note_on_c, 0, 70, 58
2, 158147, Note_on_c, 0, 53, 0
2, 158147, Note_on_c, 0, 46, 0
2, 158150, Note_on_c, 0, 62, 0
2, 158156, Note_on_c, 0, 70, 0
2, 158368, Note_on_c, 0, 46, 52
2, 158368, Note_on_c, 0, 53, 54
2, 158374, Note_on_c, 0, 62, 53
2, 158374, Note_on_c, 0, 70, 56
2, 158401, Note_on_c, 0, 53, 0
2, 158401, Note_on_c, 0, 46, 0
2, 158407, Note_on_c, 0, 62, 0
2, 158413, Note_on_c, 0, 70, 0
2, 158633, Control_c, 0, 64, 127
2, 158731, Note_on_c, 0, 58, 0
2, 158756, Control_c, 0, 67, 127
2, 158798, Control_c, 0, 64, 0
2, 159046, Note_on_c, 0, 55, 58
2, 159062, Note_on_c, 0, 46, 55
2, 159068, Note_on_c, 0, 53, 54
2, 159071, Note_on_c, 0, 63, 53
2, 159071, Note_on_c, 0, 72, 51
2, 159098, Note_on_c, 0, 46, 0
2, 159101, Note_on_c, 0, 53, 0
2, 159104, Note_on_c, 0, 63, 0
2, 159110, Note_on_c, 0, 72, 0
2, 159141, Control_c, 0, 64, 127
2, 159294, Control_c, 0, 64, 0
2, 159316, Note_on_c, 0, 46, 56
2, 159319, Note_on_c, 0, 63, 55
2, 159328, Note_on_c, 0, 53, 54
2, 159334, Note_on_c, 0, 72, 54
2, 159348, Note_on_c, 0, 46, 0
2, 159354, Note_on_c, 0, 63, 0
2, 159365, Note_on_c, 0, 53, 0
2, 159371, Note_on_c, 0, 72, 0
2, 159572, Note_on_c, 0, 57, 68
2, 159639, Note_on_c, 0, 55, 0
2, 159762, Control_c, 0, 64, 127
2, 159912, Control_c, 0, 64, 0
2, 159946, Note_on_c, 0, 58, 63
2, 160016, Note_on_c, 0, 57, 0
2, 160103, Note_on_c, 0, 60, 57
2, 160119, Note_on_c, 0, 46, 52
2, 160119, Note_on_c, 0, 53, 51
2, 160122, Note_on_c, 0, 63, 54
2, 160125, Note_on_c, 0, 69, 55
2, 160152, Note_on_c, 0, 46, 0
2, 160155, Note_on_c, 0, 53, 0
2, 160158, Note_on_c, 0, 63, 0
2, 160158, Note_on_c, 0, 69, 0
2, 160180, Note_on_c, 0, 58, 0
2, 160367, Note_on_c, 0, 46, 55
2, 160369, Note_on_c, 0, 53, 51
2, 160369, Note_on_c, 0, 63, 53
2, 160375, Note_on_c, 0, 69, 53
2, 160403, Note_on_c, 0, 53, 0
2, 160403, Note_on_c, 0, 46, 0
2, 160406, Note_on_c, 0, 63, 0
2, 160409, Note_on_c, 0, 69, 0
2, 160687, Note_on_c, 0, 62, 64
2, 160754, Note_on_c, 0, 60, 0
2, 160826, Control_c, 0, 64, 127
2, 161024, Control_c, 0, 64, 0
2, 161185, Note_on_c, 0, 62, 0
2, 161228, Note_on_c, 0, 58, 57
2, 161247, Note_on_c, 0, 53, 51
2, 161247, Note_on_c, 0, 62, 56
2, 161250, Note_on_c, 0, 70, 51
2, 161253, Note_on_c, 0, 46, 52
2, 161280, Note_on_c, 0, 53, 0
2, 161283, Note_on_c, 0, 70, 0
2, 161283, Note_on_c, 0, 62, 0
2, 161289, Note_on_c, 0, 46, 0
2, 161509, Note_on_c, 0, 62, 52
2, 161512, Note_on_c, 0, 70, 51
2, 161518, Note_on_c, 0, 46, 53
2, 161518, Note_on_c, 0, 53, 58
2, 161548, Note_on_c, 0, 70, 0
2, 161548, Note_on_c, 0, 62, 0
2, 161554, Note_on_c, 0, 46, 0
2, 161557, Note_on_c, 0, 53, 0
2, 161618, Control_c, 0, 64, 127
2, 161905, Control_c, 0, 64, 0
2, 162198, Note_on_c, 0, 46, 51
2, 162198, Note_on_c, 0, 53, 51
2, 162213, Note_on_c, 0, 62, 54
2, 162213, Note_on_c, 0, 70, 58
2, 162235, Note_on_c, 0, 53, 0
2, 162235, Note_on_c, 0, 46, 0
2, 162251, Note_on_c, 0, 70, 0
2, 162251, Note_on_c, 0, 62, 0
2, 162463, Note_on_c, 0, 46, 53
2, 162463, Note_on_c, 0, 53, 58
2, 162463, Note_on_c, 0, 62, 52
2, 162463, Note_on_c, 0, 70, 58
2, 162497, Note_on_c, 0, 62, 0
2, 162497, Note_on_c, 0, 53, 0
2, 162497, Note_on_c, 0, 46, 0
2, 162533, Note_on_c, 0, 58, 0
2, 162533, Note_on_c, 0, 70, 0
2, 162768, Note_on_c, 0, 62, 76
2, 162835, Control_c, 0, 64, 127
2, 162946, Note_on_c, 0, 65, 70
2, 163002, Note_on_c, 0, 62, 0
2, 163032, Control_c, 0, 64, 0
2, 163088, Note_on_c, 0, 67, 68
2, 163147, Note_on_c, 0, 65, 0
2, 163267, Note_on_c, 0, 46, 55
2, 163278, Note_on_c, 0, 53, 56
2, 163278, Note_on_c, 0, 62, 53
2, 163278, Note_on_c, 0, 70, 64
2, 163303, Note_on_c, 0, 46, 0
2, 163312, Note_on_c, 0, 62, 0
2, 163312, Note_on_c, 0, 53, 0
2, 163326, Note_on_c, 0, 67, 0
2, 163345, Control_c, 0, 64, 127
2, 163448, Control_c, 0, 64, 0
2, 163540, Note_on_c, 0, 46, 58
2, 163540, Note_on_c, 0, 53, 53
2, 163540, Note_on_c, 0, 62, 58
2, 163574, Note_on_c, 0, 62, 0
2, 163574, Note_on_c, 0, 53, 0
2, 163574, Note_on_c, 0, 46, 0
2, 163822, Note_on_c, 0, 70, 0
2, 163830, Note_on_c, 0, 65, 68
2, 163867, Control_c, 0, 64, 127
2, 163987, Control_c, 0, 64, 0
2, 164034, Note_on_c, 0, 67, 68
2, 164104, Note_on_c, 0, 65, 0
2, 164168, Note_on_c, 0, 70, 64
2, 164232, Note_on_c, 0, 67, 0
2, 164277, Note_on_c, 0, 70, 0
2, 164329, Note_on_c, 0, 62, 57
2, 164329, Note_on_c, 0, 74, 56
2, 164332, Note_on_c, 0, 46, 58
2, 164332, Note_on_c, 0, 53, 55
2, 164338, Note_on_c, 0, 70, 51
2, 164363, Note_on_c, 0, 62, 0
2, 164366, Note_on_c, 0, 53, 0
2, 164366, Note_on_c, 0, 46, 0
2, 164375, Note_on_c, 0, 70, 0
2, 164422, Control_c, 0, 64, 127
2, 164514, Control_c, 0, 64, 0
2, 164594, Note_on_c, 0, 70, 54
2, 164597, Note_on_c, 0, 62, 56
2, 164612, Note_on_c, 0, 46, 55
2, 164612, Note_on_c, 0, 53, 51
2, 164634, Note_on_c, 0, 70, 0
2, 164637, Note_on_c, 0, 62, 0
2, 164648, Note_on_c, 0, 53, 0
2, 164648, Note_on_c, 0, 46, 0
2, 164880, Note_on_c, 0, 74, 0
2, 164891, Note_on_c, 0, 69, 57
2, 164952, Control_c, 0, 64, 127
2, 165075, Note_on_c, 0, 70, 62
2, 165092, Note_on_c, 0, 69, 0
2, 165192, Note_on_c, 0, 70, 0
2, 165197, Note_on_c, 0, 74, 56
2, 165256, Control_c, 0, 64, 0
2, 165281, Note_on_c, 0, 46, 57
2, 165300, Note_on_c, 0, 53, 51
2, 165361, Note_on_c, 0, 77, 63
2, 165370, Note_on_c, 0, 74, 0
2, 165370, Note_on_c, 0, 62, 51
2, 165379, Note_on_c, 0, 46, 0
2, 165379, Note_on_c, 0, 53, 0
2, 165382, Note_on_c, 0, 70, 56
2, 165407, Note_on_c, 0, 62, 0
2, 165415, Note_on_c, 0, 70, 0
2, 165574, Note_on_c, 0, 46, 51
2, 165616, Note_on_c, 0, 53, 57
2, 165663, Note_on_c, 0, 53, 0
2, 165666, Note_on_c, 0, 46, 0
2, 165669, Note_on_c, 0, 70, 56
2, 165672, Note_on_c, 0, 62, 57
2, 165705, Note_on_c, 0, 62, 0
2, 165717, Note_on_c, 0, 70, 0
2, 165792, Control_c, 0, 64, 127
2, 166128, Control_c, 0, 64, 0
2, 166341, Note_on_c, 0, 74, 52
2, 166355, Note_on_c, 0, 77, 0
2, 166364, Note_on_c, 0, 70, 53
2, 166367, Note_on_c, 0, 62, 55
2, 166372, Note_on_c, 0, 46, 52
2, 166381, Note_on_c, 0, 53, 51
2, 166403, Note_on_c, 0, 62, 0
2, 166403, Note_on_c, 0, 70, 0
2, 166409, Note_on_c, 0, 46, 0
2, 166415, Note_on_c, 0, 53, 0
2, 166646, Note_on_c, 0, 46, 54
2, 166652, Note_on_c, 0, 62, 56
2, 166652, Note_on_c, 0, 70, 54
2, 166655, Note_on_c, 0, 53, 56
2, 166682, Note_on_c, 0, 46, 0
2, 166685, Note_on_c, 0, 70, 0
2, 166688, Note_on_c, 0, 62, 0
2, 166691, Note_on_c, 0, 53, 0
2, 166895, Note_on_c, 0, 74, 0
2, 166909, Note_on_c, 0, 65, 58
2, 166951, Control_c, 0, 64, 127
2, 167085, Note_on_c, 0, 67, 62
2, 167104, Note_on_c, 0, 65, 0
2, 167110, Control_c, 0, 64, 0
2, 167215, Note_on_c, 0, 70, 61
2, 167227, Note_on_c, 0, 67, 0
2, 167313, Note_on_c, 0, 70, 0
2, 167357, Note_on_c, 0, 74, 57
2, 167382, Note_on_c, 0, 70, 56
2, 167385, Note_on_c, 0, 53, 53
2, 167385, Note_on_c, 0, 62, 53
2, 167388, Note_on_c, 0, 46, 53
2, 167422, Note_on_c, 0, 70, 0
2, 167424, Note_on_c, 0, 62, 0
2, 167424, Note_on_c, 0, 53, 0
2, 167427, Note_on_c, 0, 46, 0
2, 167647, Note_on_c, 0, 62, 55
2, 167647, Note_on_c, 0, 70, 57
2, 167650, Note_on_c, 0, 46, 57
2, 167650, Note_on_c, 0, 53, 56
2, 167681, Note_on_c, 0, 70, 0
2, 167681, Note_on_c, 0, 62, 0
2, 167687, Note_on_c, 0, 53, 0
2, 167687, Note_on_c, 0, 46, 0
2, 167881, Note_on_c, 0, 74, 0
2, 167896, Note_on_c, 0, 69, 68
2, 167935, Control_c, 0, 64, 127
2, 168055, Note_on_c, 0, 70, 66
2, 168070, Note_on_c, 0, 69, 0
2, 168070, Control_c, 0, 64, 0
2, 168169, Note_on_c, 0, 70, 0
2, 168175, Note_on_c, 0, 74, 64
2, 168247, Note_on_c, 0, 46, 55
2, 168266, Note_on_c, 0, 53, 57
2, 168311, Note_on_c, 0, 62, 54
2, 168316, Note_on_c, 0, 77, 57
2, 168328, Control_c, 0, 64, 127
2, 168331, Note_on_c, 0, 74, 0
2, 168339, Note_on_c, 0, 70, 56
2, 168342, Note_on_c, 0, 62, 0
2, 168345, Note_on_c, 0, 53, 0
2, 168348, Note_on_c, 0, 46, 0
2, 168384, Note_on_c, 0, 70, 0
2, 168535, Control_c, 0, 64, 0
2, 168538, Note_on_c, 0, 46, 55
2, 168560, Note_on_c, 0, 53, 57
2, 168604, Note_on_c, 0, 62, 55
2, 168635, Note_on_c, 0, 70, 53
2, 168638, Note_on_c, 0, 62, 0
2, 168652, Note_on_c, 0, 53, 0
2, 168661, Note_on_c, 0, 46, 0
2, 168667, Note_on_c, 0, 70, 0
2, 168695, Control_c, 0, 67, 0
2, 168923, Note_on_c, 0, 77, 0
2, 168929, Note_on_c, 0, 74, 65
2, 168987, Control_c, 0, 64, 127
2, 169077, Note_on_c, 0, 74, 0
2, 169082, Note_on_c, 0, 77, 69
2, 169138, Control_c, 0, 64, 0
2, 169185, Note_on_c, 0, 77, 0
2, 169191, Note_on_c, 0, 79, 67
2, 169230, Note_on_c, 0, 46, 51
2, 169286, Note_on_c, 0, 53, 53
2, 169342, Note_on_c, 0, 79, 0
2, 169347, Note_on_c, 0, 82, 76
2, 169372, Note_on_c, 0, 70, 53
2, 169375, Note_on_c, 0, 62, 52
2, 169492, Control_c, 0, 64, 127
2, 169618, Note_on_c, 0, 46, 0
2, 169630, Note_on_c, 0, 53, 0
2, 169646, Control_c, 0, 64, 0
2, 169657, Note_on_c, 0, 62, 0
2, 169669, Note_on_c, 0, 70, 0
2, 169685, Note_on_c, 0, 46, 55
2, 169700, Note_on_c, 0, 53, 56
2, 169725, Note_on_c, 0, 46, 0
2, 169730, Note_on_c, 0, 62, 58
2, 169736, Note_on_c, 0, 53, 0
2, 169742, Note_on_c, 0, 70, 53
2, 169770, Note_on_c, 0, 62, 0
2, 169781, Note_on_c, 0, 70, 0
2, 170423, Note_on_c, 0, 62, 54
2, 170423, Note_on_c, 0, 65, 54
2, 170423, Note_on_c, 0, 70, 51
2, 170425, Note_on_c, 0, 46, 55
2, 170425, Note_on_c, 0, 53, 52
2, 170459, Note_on_c, 0, 53, 0
2, 170459, Note_on_c, 0, 62, 0
2, 170459, Note_on_c, 0, 65, 0
2, 170459, Note_on_c, 0, 70, 0
2, 170462, Note_on_c, 0, 46, 0
2, 170715, Note_on_c, 0, 62, 55
2, 170715, Note_on_c, 0, 65, 56
2, 170715, Note_on_c, 0, 70, 55
2, 170718, Note_on_c, 0, 46, 58
2, 170718, Note_on_c, 0, 53, 52
2, 170727, Note_on_c, 0, 82, 0
2, 170749, Note_on_c, 0, 70, 0
2, 170749, Note_on_c, 0, 62, 0
2, 170749, Note_on_c, 0, 65, 0
2, 170752, Note_on_c, 0, 53, 0
2, 170755, Note_on_c, 0, 46, 0
2, 171027, Note_on_c, 0, 77, 82
2, 171047, Control_c, 0, 64, 127
2, 171183, Note_on_c, 0, 77, 0
2, 171192, Note_on_c, 0, 79, 81
2, 171241, Control_c, 0, 64, 0
2, 171303, Note_on_c, 0, 79, 0
2, 171309, Note_on_c, 0, 82, 78
2, 171379, Note_on_c, 0, 67, 69
2, 171412, Note_on_c, 0, 70, 72
2, 171434, Note_on_c, 0, 76, 65
2, 171468, Note_on_c, 0, 82, 0
2, 171477, Note_on_c, 0, 86, 84
2, 171588, Control_c, 0, 64, 127
2, 172064, Control_c, 0, 64, 0
2, 172173, Control_c, 0, 64, 127
2, 172315, Control_c, 0, 64, 0
2, 172390, Note_on_c, 0, 86, 0
2, 172390, Note_on_c, 0, 67, 0
2, 172395, Note_on_c, 0, 66, 70
2, 172395, Note_on_c, 0, 84, 72
2, 172811, Note_on_c, 0, 66, 0
2, 172811, Note_on_c, 0, 76, 0
2, 172811, Note_on_c, 0, 70, 0
2, 172820, Note_on_c, 0, 65, 75
2, 172820, Note_on_c, 0, 69, 73
2, 172820, Note_on_c, 0, 77, 70
2, 173104, Control_c, 0, 64, 127
2, 173234, Note_on_c, 0, 65, 0
2, 173234, Control_c, 0, 64, 0
2, 173246, Note_on_c, 0, 63, 72
2, 173435, Note_on_c, 0, 84, 0
2, 173499, Note_on_c, 0, 84, 67
2, 173639, Control_c, 0, 64, 127
2, 173728, Note_on_c, 0, 84, 0
2, 173736, Note_on_c, 0, 86, 74
2, 173820, Note_on_c, 0, 86, 0
2, 173873, Note_on_c, 0, 84, 67
2, 173984, Note_on_c, 0, 84, 0
2, 173990, Note_on_c, 0, 83, 61
2, 173999, Control_c, 0, 64, 0
2, 174098, Note_on_c, 0, 83, 0
2, 174104, Note_on_c, 0, 84, 64
2, 174168, Control_c, 0, 67, 127
2, 174233, Note_on_c, 0, 69, 0
2, 174236, Note_on_c, 0, 63, 0
2, 174236, Note_on_c, 0, 84, 0
2, 174247, Note_on_c, 0, 62, 63
2, 174247, Note_on_c, 0, 70, 73
2, 174247, Note_on_c, 0, 89, 71
2, 174406, Control_c, 0, 64, 127
2, 174578, Control_c, 0, 64, 0
2, 174723, Note_on_c, 0, 89, 0
2, 174732, Note_on_c, 0, 82, 61
2, 175158, Note_on_c, 0, 70, 0
2, 175161, Note_on_c, 0, 82, 0
2, 175173, Note_on_c, 0, 84, 61
2, 175206, Note_on_c, 0, 84, 0
2, 175218, Note_on_c, 0, 62, 0
2, 175218, Note_on_c, 0, 82, 61
2, 175221, Note_on_c, 0, 77, 0
2, 175224, Note_on_c, 0, 67, 62
2, 175226, Note_on_c, 0, 70, 61
2, 175226, Note_on_c, 0, 76, 57
2, 175316, Control_c, 0, 64, 127
2, 175424, Note_on_c, 0, 82, 0
2, 175468, Note_on_c, 0, 81, 60
2, 175560, Note_on_c, 0, 81, 0
2, 175563, Control_c, 0, 64, 0
2, 175569, Note_on_c, 0, 82, 61
2, 175653, Note_on_c, 0, 76, 0
2, 175689, Note_on_c, 0, 82, 0
2, 175701, Note_on_c, 0, 86, 57
2, 175848, Note_on_c, 0, 70, 0
2, 175848, Note_on_c, 0, 67, 0
2, 175851, Note_on_c, 0, 86, 0
2, 175857, Note_on_c, 0, 76, 58
2, 175866, Note_on_c, 0, 66, 58
2, 175927, Control_c, 0, 64, 127
2, 175971, Control_c, 0, 67, 0
2, 175993, Control_c, 0, 64, 0
2, 176175, Note_on_c, 0, 66, 0
2, 176267, Note_on_c, 0, 76, 0
2, 176545, Control_c, 0, 67, 127
2, 176813, Note_on_c, 0, 77, 52
2, 176847, Note_on_c, 0, 77, 0
2, 176853, Note_on_c, 0, 54, 61
2, 176853, Note_on_c, 0, 61, 59
2, 176853, Note_on_c, 0, 64, 61
2, 176856, Note_on_c, 0, 70, 67
2, 176856, Note_on_c, 0, 76, 70
2, 176883, Control_c, 0, 64, 127
2, 177009, Note_on_c, 0, 76, 0
2, 177018, Note_on_c, 0, 75, 59
2, 177129, Note_on_c, 0, 75, 0
2, 177138, Note_on_c, 0, 76, 58
2, 177168, Control_c, 0, 64, 0
2, 177240, Note_on_c, 0, 76, 0
2, 177249, Note_on_c, 0, 82, 56
2, 177330, Note_on_c, 0, 54, 0
2, 177330, Note_on_c, 0, 64, 0
2, 177330, Note_on_c, 0, 61, 0
2, 177344, Note_on_c, 0, 70, 0
2, 177397, Note_on_c, 0, 82, 0
2, 177397, Note_on_c, 0, 54, 54
2, 177397, Note_on_c, 0, 61, 58
2, 177400, Note_on_c, 0, 64, 51
2, 177400, Note_on_c, 0, 70, 60
2, 177403, Note_on_c, 0, 76, 60
2, 177450, Control_c, 0, 67, 0
2, 177672, Note_on_c, 0, 70, 0
2, 177672, Note_on_c, 0, 61, 0
2, 177787, Note_on_c, 0, 54, 0
2, 177790, Note_on_c, 0, 64, 0
2, 177792, Note_on_c, 0, 76, 0
2, 178233, Control_c, 0, 67, 127
2, 178743, Note_on_c, 0, 65, 54
2, 178785, Note_on_c, 0, 42, 54
2, 178785, Note_on_c, 0, 49, 51
2, 178788, Note_on_c, 0, 52, 57
2, 178791, Note_on_c, 0, 58, 58
2, 178791, Note_on_c, 0, 64, 58
2, 178794, Note_on_c, 0, 65, 0
2, 178822, Control_c, 0, 64, 127
2, 178992, Note_on_c, 0, 64, 0
2, 179003, Note_on_c, 0, 63, 58
2, 179078, Control_c, 0, 64, 0
2, 179153, Note_on_c, 0, 63, 0
2, 179164, Note_on_c, 0, 64, 57
2, 179284, Note_on_c, 0, 64, 0
2, 179284, Note_on_c, 0, 70, 51
2, 179365, Note_on_c, 0, 42, 0
2, 179365, Note_on_c, 0, 49, 0
2, 179368, Note_on_c, 0, 52, 0
2, 179368, Note_on_c, 0, 58, 0
2, 179426, Note_on_c, 0, 42, 56
2, 179429, Note_on_c, 0, 70, 0
2, 179429, Note_on_c, 0, 49, 58
2, 179432, Note_on_c, 0, 52, 57
2, 179432, Note_on_c, 0, 58, 54
2, 179432, Note_on_c, 0, 64, 58
2, 179507, Control_c, 0, 67, 0
2, 179624, Note_on_c, 0, 58, 0
2, 179624, Note_on_c, 0, 52, 0
2, 179722, Note_on_c, 0, 49, 0
2, 179756, Note_on_c, 0, 42, 0
2, 179764, Note_on_c, 0, 64, 0
2, 180838, Note_on_c, 0, 29, 54
2, 180899, Note_on_c, 0, 41, 57
2, 180938, Note_on_c, 0, 50, 54
2, 180972, Note_on_c, 0, 53, 70
2, 181022, Note_on_c, 0, 58, 67
2, 181031, Control_c, 0, 64, 127
2, 181056, Note_on_c, 0, 65, 53
2, 181250, Control_c, 0, 64, 0
2, 181392, Control_c, 0, 64, 127
2, 181407, Note_on_c, 0, 58, 0
2, 181410, Note_on_c, 0, 65, 0
2, 181421, Note_on_c, 0, 62, 70
2, 181625, Control_c, 0, 64, 0
2, 181664, Note_on_c, 0, 62, 0
2, 181714, Note_on_c, 0, 29, 0
2, 181720, Note_on_c, 0, 41, 0
2, 181723, Note_on_c, 0, 50, 0
2, 181723, Note_on_c, 0, 53, 0
2, 181728, Control_c, 0, 64, 127
2, 181737, Note_on_c, 0, 62, 75
2, 181896, Control_c, 0, 64, 0
2, 182021, Note_on_c, 0, 58, 70
2, 182027, Note_on_c, 0, 62, 0
2, 182272, Note_on_c, 0, 58, 0
2, 182286, Note_on_c, 0, 63, 76
2, 182448, Control_c, 0, 67, 127
2, 182584, Note_on_c, 0, 29, 56
2, 182598, Note_on_c, 0, 41, 56
2, 182615, Note_on_c, 0, 48, 58
2, 182659, Note_on_c, 0, 51, 58
2, 182692, Note_on_c, 0, 57, 60
2, 182795, Note_on_c, 0, 65, 59
2, 183071, Note_on_c, 0, 29, 0
2, 183073, Note_on_c, 0, 41, 0
2, 183076, Note_on_c, 0, 51, 0
2, 183076, Note_on_c, 0, 48, 0
2, 183079, Note_on_c, 0, 57, 0
2, 183079, Note_on_c, 0, 65, 0
2, 183350, Note_on_c, 0, 34, 58
2, 183353, Note_on_c, 0, 46, 56
2, 183356, Note_on_c, 0, 53, 56
2, 183356, Note_on_c, 0, 58, 53
2, 183359, Note_on_c, 0, 65, 53
2, 183571, Note_on_c, 0, 34, 0
2, 183574, Note_on_c, 0, 46, 0
2, 183576, Note_on_c, 0, 53, 0
2, 183576, Note_on_c, 0, 58, 0
2, 183576, Note_on_c, 0, 65, 0
2, 183676, Control_c, 0, 64, 127
2, 183810, Control_c, 0, 64, 0
2, 183852, Note_on_c, 0, 63, 0
2, 183864, Note_on_c, 0, 62, 63
2, 184126, Note_on_c, 0, 62, 0
2, 184137, Note_on_c, 0, 61, 58
2, 184360, Note_on_c, 0, 61, 0
2, 184379, Note_on_c, 0, 62, 63
2, 184499, Control_c, 0, 64, 127
2, 184669, Control_c, 0, 64, 0
2, 185087, Note_on_c, 0, 29, 53
2, 185101, Note_on_c, 0, 41, 51
2, 185101, Note_on_c, 0, 50, 56
2, 185115, Note_on_c, 0, 53, 58
2, 185130, Note_on_c, 0, 62, 0
2, 185138, Note_on_c, 0, 58, 67
2, 185175, Note_on_c, 0, 65, 58
2, 185273, Control_c, 0, 64, 127
2, 185459, Control_c, 0, 64, 0
2, 185509, Note_on_c, 0, 65, 0
2, 185523, Note_on_c, 0, 62, 67
2, 185607, Control_c, 0, 64, 127
2, 185793, Note_on_c, 0, 62, 0
2, 185846, Note_on_c, 0, 29, 0
2, 185846, Control_c, 0, 64, 0
2, 185849, Note_on_c, 0, 53, 0
2, 185849, Note_on_c, 0, 50, 0
2, 185849, Note_on_c, 0, 41, 0
2, 185849, Note_on_c, 0, 58, 0
2, 185860, Note_on_c, 0, 62, 69
2, 186122, Note_on_c, 0, 62, 0
2, 186131, Note_on_c, 0, 58, 59
2, 186262, Control_c, 0, 64, 127
2, 186409, Note_on_c, 0, 58, 0
2, 186418, Note_on_c, 0, 63, 62
2, 186462, Control_c, 0, 64, 0
2, 186752, Note_on_c, 0, 29, 56
2, 186808, Note_on_c, 0, 41, 54
2, 186850, Note_on_c, 0, 51, 57
2, 186864, Note_on_c, 0, 48, 56
2, 186907, Note_on_c, 0, 57, 53
2, 186974, Note_on_c, 0, 65, 54
2, 187107, Note_on_c, 0, 51, 0
2, 187157, Note_on_c, 0, 57, 0
2, 187344, Note_on_c, 0, 48, 0
2, 187344, Note_on_c, 0, 41, 0
2, 187349, Note_on_c, 0, 29, 0
2, 187352, Note_on_c, 0, 65, 0
2, 187450, Control_c, 0, 67, 0
2, 187497, Control_c, 0, 67, 127
2, 187544, Note_on_c, 0, 65, 51
2, 187547, Note_on_c, 0, 53, 54
2, 187547, Note_on_c, 0, 58, 54
2, 187550, Note_on_c, 0, 46, 54
2, 187561, Note_on_c, 0, 34, 58
2, 187753, Note_on_c, 0, 46, 0
2, 187753, Note_on_c, 0, 58, 0
2, 187753, Note_on_c, 0, 53, 0
2, 187756, Note_on_c, 0, 34, 0
2, 187762, Note_on_c, 0, 65, 0
2, 187840, Control_c, 0, 64, 127
2, 188004, Control_c, 0, 64, 0
2, 188051, Note_on_c, 0, 62, 56
2, 188171, Note_on_c, 0, 63, 0
2, 188461, Control_c, 0, 64, 127
2, 188594, Control_c, 0, 64, 0
2, 188811, Note_on_c, 0, 61, 51
2, 188817, Note_on_c, 0, 62, 0
2, 189079, Note_on_c, 0, 62, 52
2, 189177, Note_on_c, 0, 61, 0
2, 189311, Note_on_c, 0, 62, 0
2, 189330, Note_on_c, 0, 67, 57
2, 189349, Control_c, 0, 64, 127
2, 189513, Control_c, 0, 64, 0
2, 189563, Note_on_c, 0, 67, 0
2, 189582, Note_on_c, 0, 65, 64
2, 189841, Note_on_c, 0, 67, 52
2, 189944, Note_on_c, 0, 65, 0
2, 190098, Note_on_c, 0, 70, 61
2, 190156, Note_on_c, 0, 67, 0
2, 190313, Note_on_c, 0, 74, 64
2, 190383, Note_on_c, 0, 70, 0
2, 190617, Note_on_c, 0, 77, 70
2, 190636, Control_c, 0, 64, 127
2, 190706, Note_on_c, 0, 74, 0
2, 190781, Control_c, 0, 64, 0
2, 190910, Note_on_c, 0, 74, 58
2, 190996, Note_on_c, 0, 77, 0
2, 191191, Note_on_c, 0, 74, 0
2, 191200, Note_on_c, 0, 77, 62
2, 191456, Note_on_c, 0, 77, 0
2, 191490, Note_on_c, 0, 79, 58
2, 191819, Note_on_c, 0, 82, 57
2, 191875, Note_on_c, 0, 79, 0
2, 191914, Control_c, 0, 64, 127
2, 192245, Control_c, 0, 64, 0
2, 192482, Control_c, 0, 64, 127
2, 192591, Note_on_c, 0, 82, 0
2, 192644, Note_on_c, 0, 63, 54
2, 192677, Note_on_c, 0, 70, 53
2, 192711, Note_on_c, 0, 75, 58
2, 192755, Note_on_c, 0, 79, 61
2, 192808, Note_on_c, 0, 82, 63
2, 192861, Note_on_c, 0, 87, 54
2, 192938, Note_on_c, 0, 94, 56
2, 192950, Control_c, 0, 64, 0
2, 193195, Control_c, 0, 64, 127
2, 193638, Note_on_c, 0, 70, 0
2, 193700, Control_c, 0, 64, 0
2, 193722, Note_on_c, 0, 58, 52
2, 193741, Note_on_c, 0, 65, 52
2, 193755, Note_on_c, 0, 63, 0
2, 193770, Note_on_c, 0, 70, 53
2, 193800, Note_on_c, 0, 74, 54
2, 193815, Note_on_c, 0, 82, 0
2, 193857, Note_on_c, 0, 75, 0
2, 193876, Note_on_c, 0, 77, 64
2, 193893, Note_on_c, 0, 79, 0
2, 193951, Note_on_c, 0, 82, 55
2, 194046, Note_on_c, 0, 86, 55
2, 194063, Note_on_c, 0, 94, 0
2, 194063, Note_on_c, 0, 87, 0
2, 194168, Control_c, 0, 64, 127
2, 194187, Note_on_c, 0, 94, 54
2, 194781, Control_c, 0, 67, 0
2, 195065, Note_on_c, 0, 94, 0
2, 195065, Note_on_c, 0, 82, 0
2, 195065, Note_on_c, 0, 77, 0
2, 195065, Note_on_c, 0, 70, 0
2, 195065, Note_on_c, 0, 86, 0
2, 195065, Note_on_c, 0, 74, 0
2, 195071, Note_on_c, 0, 58, 0
2, 195071, Note_on_c, 0, 65, 0
2, 196509, Control_c, 0, 64, 0
2, 196509, End_track
3, 0, Start_track
3, 0, Title_t, "c/b Tschaikovsky - Klindworth"
3, 0, End_track
4, 0, Start_track
4, 0, Title_t, "p/b Philip Gordon"
4, 0, End_track
5, 0, Start_track
5, 0, Title_t, "Ampico # 59292"
5, 0, End_track
6, 0, Start_track
6, 0, Title_t, "Scan of a player piano roll"
6, 0, End_track
7, 0, Start_track
7, 0, Title_t, "by Terry Smythe, Winnipeg, Canada"
7, 0, End_track
0, 0, End_of_file
