0, 0, Header, 1, 5, 480
1, 0, Start_track
1, 0, Title_t, "tchaikovsky concerto1 mv1"
1, 0, Copyright_t, "Adaptation for Disklavier pianos, by: Robert C. Kuhmann (c) 2012."
1, 0, Text_t, "Seq. (c) by: Segundo G. Yogore,  2007\012"
1, 0, Time_signature, 3, 2, 24, 8
1, 0, Key_signature, -5, "major"
1, 0, Tempo, 666667
1, 54000, Tempo, 689655
1, 54240, Tempo, 714286
1, 54480, Tempo, 740741
1, 54720, Tempo, 779221
1, 54960, Tempo, 810811
1, 55200, Tempo, 845070
1, 55440, Tempo, 882353
1, 55680, Tempo, 937500
1, 56880, Tempo, 666667
1, 57600, Time_signature, 4, 2, 24, 8
1, 61440, Time_signature, 3, 2, 24, 8
1, 62880, Time_signature, 4, 2, 24, 8
1, 74400, Time_signature, 3, 2, 24, 8
1, 89760, Tempo, 689655
1, 90000, Tempo, 714286
1, 90240, Tempo, 740741
1, 90480, Tempo, 779221
1, 90720, Tempo, 810811
1, 90960, Tempo, 845070
1, 91200, Tempo, 882353
1, 91440, Tempo, 937500
1, 93120, Tempo, 666667
1, 160800, Time_signature, 4, 2, 24, 8
1, 160800, Tempo, 389610
1, 305040, Tempo, 405405
1, 305280, Tempo, 422535
1, 305520, Tempo, 441176
1, 305760, Tempo, 468750
1, 306000, Tempo, 491803
1, 306240, Tempo, 517241
1, 306480, Tempo, 545455
1, 306720, Tempo, 517241
1, 318960, Tempo, 545455
1, 319200, Tempo, 576923
1, 319440, Tempo, 612245
1, 319680, Tempo, 666667
1, 319920, Tempo, 714286
1, 320160, Tempo, 769231
1, 320400, Tempo, 833333
1, 320640, Tempo, 937500
1, 322080, Tempo, 483871
1, 342480, Tempo, 508475
1, 342720, Tempo, 535714
1, 342960, Tempo, 566038
1, 343200, Tempo, 612245
1, 343440, Tempo, 652174
1, 343680, Tempo, 697674
1, 343920, Tempo, 750000
1, 344160, Tempo, 833333
1, 345120, Time_signature, 5, 2, 24, 8
1, 346080, Tempo, 483871
1, 347520, Time_signature, 4, 2, 24, 8
1, 370800, Tempo, 508475
1, 371040, Tempo, 535714
1, 371280, Tempo, 566038
1, 371520, Tempo, 612245
1, 371760, Tempo, 652174
1, 372000, Tempo, 697674
1, 372240, Tempo, 750000
1, 372480, Tempo, 476190
1, 386160, Tempo, 500000
1, 386400, Tempo, 526316
1, 386640, Tempo, 555556
1, 386880, Tempo, 600000
1, 387120, Tempo, 638298
1, 387360, Tempo, 681818
1, 387600, Tempo, 731707
1, 387840, Tempo, 476190
1, 414720, Tempo, 389610
1, 434160, Tempo, 405405
1, 434400, Tempo, 422535
1, 434640, Tempo, 441176
1, 434880, Tempo, 468750
1, 435120, Tempo, 491803
1, 435360, Tempo, 517241
1, 435600, Tempo, 545455
1, 435840, Tempo, 410959
1, 463920, Tempo, 428571
1, 464160, Tempo, 447761
1, 464400, Tempo, 468750
1, 464640, Time_signature, 5, 2, 24, 8
1, 464640, Tempo, 500000
1, 464880, Tempo, 555556
1, 465120, Tempo, 625000
1, 465360, Tempo, 714286
1, 465600, Tempo, 882353
1, 465840, Tempo, 967742
1, 466080, Tempo, 1071429
1, 466320, Tempo, 1200000
1, 466560, Tempo, 500000
1, 467040, Time_signature, 4, 2, 24, 8
1, 512400, Tempo, 526316
1, 512640, Tempo, 555556
1, 512880, Tempo, 588235
1, 513120, Time_signature, 5, 2, 24, 8
1, 513120, Tempo, 638298
1, 513360, Tempo, 681818
1, 513600, Tempo, 731707
1, 513840, Tempo, 789474
1, 514080, Tempo, 882353
1, 515040, Tempo, 389610
1, 515520, Time_signature, 4, 2, 24, 8
1, 557280, Tempo, 365854
1, 696240, Tempo, 372671
1, 696480, Tempo, 379747
1, 696720, Tempo, 387097
1, 696960, Tempo, 397351
1, 697200, Tempo, 405405
1, 697440, Tempo, 413793
1, 697680, Tempo, 422535
1, 697920, Tempo, 434783
1, 698160, Tempo, 444444
1, 698400, Tempo, 454545
1, 698640, Tempo, 465116
1, 698880, Tempo, 480000
1, 699120, Tempo, 491803
1, 699360, Tempo, 504202
1, 699600, Tempo, 517241
1, 699840, Tempo, 375000
1, 701760, Tempo, 365854
1, 744240, Tempo, 379747
1, 744480, Tempo, 394737
1, 744720, Tempo, 410959
1, 744960, Tempo, 434783
1, 745200, Tempo, 454545
1, 745440, Tempo, 476190
1, 745680, Tempo, 500000
1, 745920, Tempo, 410959
1, 857520, Tempo, 428571
1, 857760, Tempo, 447761
1, 858000, Tempo, 468750
1, 858240, Tempo, 500000
1, 858480, Tempo, 526316
1, 858720, Tempo, 555556
1, 858960, Tempo, 588235
1, 859200, Key_signature, -2, "major"
1, 859200, Tempo, 517241
1, 872880, Tempo, 545455
1, 873120, Tempo, 576923
1, 873360, Tempo, 612245
1, 873600, Tempo, 666667
1, 873840, Tempo, 714286
1, 874080, Tempo, 769231
1, 874320, Tempo, 833333
1, 874560, Tempo, 517241
1, 895920, Tempo, 545455
1, 896160, Tempo, 576923
1, 896400, Tempo, 612245
1, 896640, Tempo, 666667
1, 896880, Tempo, 714286
1, 897120, Tempo, 769231
1, 897360, Tempo, 833333
1, 897600, Tempo, 476190
1, 913200, Tempo, 500000
1, 913440, Tempo, 526316
1, 913680, Tempo, 555556
1, 913920, Tempo, 600000
1, 914160, Tempo, 638298
1, 914400, Tempo, 681818
1, 914640, Tempo, 731707
1, 914880, Tempo, 476190
1, 959040, Tempo, 389610
1, 1066080, Tempo, 483871
1, 1068480, Tempo, 365854
1, 1070240, Tempo, 483871
1, 1070400, Time_signature, 5, 2, 24, 8
1, 1072800, Time_signature, 4, 2, 24, 8
1, 1072800, Tempo, 365854
1, 1074560, Tempo, 483871
1, 1074720, Time_signature, 5, 2, 24, 8
1, 1077120, Time_signature, 4, 2, 24, 8
1, 1077120, Tempo, 365854
1, 1078880, Tempo, 483871
1, 1079040, Time_signature, 5, 2, 24, 8
1, 1081440, Time_signature, 4, 2, 24, 8
1, 1081440, Tempo, 365854
1, 1106640, Tempo, 666667
1, 1133280, Time_signature, 1, 2, 24, 8
1, 1133760, Time_signature, 4, 2, 24, 8
1, 1135920, Tempo, 689655
1, 1136160, Tempo, 714286
1, 1136400, Tempo, 740741
1, 1136640, Tempo, 779221
1, 1136880, Tempo, 810811
1, 1137120, Tempo, 845070
1, 1137360, Tempo, 882353
1, 1137600, Tempo, 400000
1, 1138560, Tempo, 389610
1, 1196160, Tempo, 365854
1, 1245120, Time_signature, 10, 2, 24, 8
1, 1245120, End_track
2, 0, Start_track
2, 0, Title_t, "Grand Piano"
2, 0, Program_c, 0, 0
2, 0, Control_c, 0, 7, 115
2, 0, Control_c, 0, 10, 86
2, 7200, Control_c, 0, 64, 127
2, 7200, Note_on_c, 0, 53, 83
2, 7200, Note_on_c, 0, 56, 83
2, 7200, Note_on_c, 0, 61, 83
2, 7200, Note_on_c, 0, 65, 83
2, 7680, Note_on_c, 0, 65, 0
2, 7680, Note_on_c, 0, 53, 0
2, 7680, Note_on_c, 0, 56, 0
2, 7680, Note_on_c, 0, 61, 0
2, 7680, Note_on_c, 0, 65, 83
2, 7680, Note_on_c, 0, 68, 83
2, 7680, Note_on_c, 0, 73, 83
2, 7680, Note_on_c, 0, 77, 83
2, 8160, Note_on_c, 0, 77, 0
2, 8160, Note_on_c, 0, 65, 0
2, 8160, Note_on_c, 0, 68, 0
2, 8160, Note_on_c, 0, 73, 0
2, 8160, Note_on_c, 0, 89, 83
2, 8160, Note_on_c, 0, 92, 83
2, 8160, Note_on_c, 0, 97, 83
2, 8160, Note_on_c, 0, 101, 83
2, 8640, Note_on_c, 0, 101, 0
2, 8640, Note_on_c, 0, 89, 0
2, 8640, Note_on_c, 0, 92, 0
2, 8640, Note_on_c, 0, 97, 0
2, 8640, Note_on_c, 0, 53, 83
2, 8640, Note_on_c, 0, 56, 83
2, 8640, Note_on_c, 0, 61, 83
2, 8640, Note_on_c, 0, 65, 83
2, 9120, Note_on_c, 0, 65, 0
2, 9120, Note_on_c, 0, 53, 0
2, 9120, Note_on_c, 0, 56, 0
2, 9120, Note_on_c, 0, 61, 0
2, 9120, Note_on_c, 0, 65, 83
2, 9120, Note_on_c, 0, 68, 83
2, 9120, Note_on_c, 0, 73, 83
2, 9120, Note_on_c, 0, 77, 83
2, 9600, Note_on_c, 0, 77, 0
2, 9600, Note_on_c, 0, 65, 0
2, 9600, Note_on_c, 0, 68, 0
2, 9600, Note_on_c, 0, 73, 0
2, 9600, Note_on_c, 0, 89, 83
2, 9600, Note_on_c, 0, 92, 83
2, 9600, Note_on_c, 0, 97, 83
2, 9600, Note_on_c, 0, 101, 83
2, 10080, Note_on_c, 0, 101, 0
2, 10080, Note_on_c, 0, 89, 0
2, 10080, Note_on_c, 0, 92, 0
2, 10080, Note_on_c, 0, 97, 0
2, 10080, Note_on_c, 0, 53, 83
2, 10080, Note_on_c, 0, 56, 83
2, 10080, Note_on_c, 0, 61, 83
2, 10080, Note_on_c, 0, 65, 83
2, 10560, Note_on_c, 0, 65, 0
2, 10560, Note_on_c, 0, 53, 0
2, 10560, Note_on_c, 0, 56, 0
2, 10560, Note_on_c, 0, 61, 0
2, 10560, Note_on_c, 0, 65, 83
2, 10560, Note_on_c, 0, 68, 83
2, 10560, Note_on_c, 0, 73, 83
2, 10560, Note_on_c, 0, 77, 83
2, 11040, Note_on_c, 0, 77, 0
2, 11040, Note_on_c, 0, 65, 0
2, 11040, Note_on_c, 0, 68, 0
2, 11040, Note_on_c, 0, 73, 0
2, 11040, Note_on_c, 0, 89, 83
2, 11040, Note_on_c, 0, 92, 83
2, 11040, Note_on_c, 0, 97, 83
2, 11040, Note_on_c, 0, 101, 83
2, 11520, Note_on_c, 0, 101, 0
2, 11520, Note_on_c, 0, 89, 0
2, 11520, Note_on_c, 0, 92, 0
2, 11520, Note_on_c, 0, 97, 0
2, 11520, Note_on_c, 0, 53, 83
2, 11520, Note_on_c, 0, 56, 83
2, 11520, Note_on_c, 0, 61, 83
2, 11520, Note_on_c, 0, 65, 83
2, 12000, Note_on_c, 0, 65, 0
2, 12000, Note_on_c, 0, 53, 0
2, 12000, Note_on_c, 0, 56, 0
2, 12000, Note_on_c, 0, 61, 0
2, 12000, Note_on_c, 0, 65, 83
2, 12000, Note_on_c, 0, 68, 83
2, 12000, Note_on_c, 0, 73, 83
2, 12000, Note_on_c, 0, 77, 83
2, 12480, Note_on_c, 0, 77, 0
2, 12480, Note_on_c, 0, 65, 0
2, 12480, Note_on_c, 0, 68, 0
2, 12480, Note_on_c, 0, 73, 0
2, 12480, Control_c, 0, 64, 0
2, 12480, Note_on_c, 0, 89, 83
2, 12480, Note_on_c, 0, 92, 83
2, 12480, Note_on_c, 0, 97, 83
2, 12480, Note_on_c, 0, 101, 83
2, 12960, Note_on_c, 0, 101, 0
2, 12960, Note_on_c, 0, 89, 0
2, 12960, Note_on_c, 0, 92, 0
2, 12960, Note_on_c, 0, 97, 0
2, 12960, Control_c, 0, 64, 127
2, 12960, Note_on_c, 0, 51, 83
2, 12960, Note_on_c, 0, 54, 83
2, 12960, Note_on_c, 0, 58, 83
2, 12960, Note_on_c, 0, 63, 83
2, 13440, Note_on_c, 0, 63, 0
2, 13440, Note_on_c, 0, 51, 0
2, 13440, Note_on_c, 0, 54, 0
2, 13440, Note_on_c, 0, 58, 0
2, 13440, Note_on_c, 0, 63, 83
2, 13440, Note_on_c, 0, 66, 83
2, 13440, Note_on_c, 0, 70, 83
2, 13440, Note_on_c, 0, 75, 83
2, 13920, Note_on_c, 0, 75, 0
2, 13920, Note_on_c, 0, 63, 0
2, 13920, Note_on_c, 0, 66, 0
2, 13920, Note_on_c, 0, 70, 0
2, 13920, Note_on_c, 0, 87, 83
2, 13920, Note_on_c, 0, 90, 83
2, 13920, Note_on_c, 0, 94, 83
2, 13920, Note_on_c, 0, 99, 83
2, 14400, Note_on_c, 0, 99, 0
2, 14400, Note_on_c, 0, 87, 0
2, 14400, Note_on_c, 0, 90, 0
2, 14400, Note_on_c, 0, 94, 0
2, 14400, Note_on_c, 0, 51, 83
2, 14400, Note_on_c, 0, 54, 83
2, 14400, Note_on_c, 0, 58, 83
2, 14400, Note_on_c, 0, 63, 83
2, 14880, Note_on_c, 0, 63, 0
2, 14880, Note_on_c, 0, 51, 0
2, 14880, Note_on_c, 0, 54, 0
2, 14880, Note_on_c, 0, 58, 0
2, 14880, Note_on_c, 0, 63, 83
2, 14880, Note_on_c, 0, 66, 83
2, 14880, Note_on_c, 0, 70, 83
2, 14880, Note_on_c, 0, 75, 83
2, 15360, Note_on_c, 0, 75, 0
2, 15360, Note_on_c, 0, 63, 0
2, 15360, Note_on_c, 0, 66, 0
2, 15360, Note_on_c, 0, 70, 0
2, 15360, Control_c, 0, 64, 0
2, 15360, Note_on_c, 0, 87, 83
2, 15360, Note_on_c, 0, 90, 83
2, 15360, Note_on_c, 0, 94, 83
2, 15360, Note_on_c, 0, 99, 83
2, 15840, Note_on_c, 0, 99, 0
2, 15840, Note_on_c, 0, 87, 0
2, 15840, Note_on_c, 0, 90, 0
2, 15840, Note_on_c, 0, 94, 0
2, 15840, Control_c, 0, 64, 127
2, 15840, Note_on_c, 0, 56, 83
2, 15840, Note_on_c, 0, 60, 83
2, 15840, Note_on_c, 0, 63, 83
2, 15840, Note_on_c, 0, 68, 83
2, 16320, Note_on_c, 0, 68, 0
2, 16320, Note_on_c, 0, 56, 0
2, 16320, Note_on_c, 0, 60, 0
2, 16320, Note_on_c, 0, 63, 0
2, 16320, Note_on_c, 0, 68, 83
2, 16320, Note_on_c, 0, 72, 83
2, 16320, Note_on_c, 0, 75, 83
2, 16320, Note_on_c, 0, 80, 83
2, 16800, Note_on_c, 0, 80, 0
2, 16800, Note_on_c, 0, 68, 0
2, 16800, Note_on_c, 0, 72, 0
2, 16800, Note_on_c, 0, 75, 0
2, 16800, Note_on_c, 0, 92, 83
2, 16800, Note_on_c, 0, 96, 83
2, 16800, Note_on_c, 0, 99, 83
2, 16800, Note_on_c, 0, 104, 83
2, 17280, Note_on_c, 0, 104, 0
2, 17280, Note_on_c, 0, 92, 0
2, 17280, Note_on_c, 0, 96, 0
2, 17280, Note_on_c, 0, 99, 0
2, 17280, Note_on_c, 0, 56, 83
2, 17280, Note_on_c, 0, 60, 83
2, 17280, Note_on_c, 0, 63, 83
2, 17280, Note_on_c, 0, 68, 83
2, 17760, Note_on_c, 0, 68, 0
2, 17760, Note_on_c, 0, 56, 0
2, 17760, Note_on_c, 0, 60, 0
2, 17760, Note_on_c, 0, 63, 0
2, 17760, Note_on_c, 0, 68, 83
2, 17760, Note_on_c, 0, 72, 83
2, 17760, Note_on_c, 0, 75, 83
2, 17760, Note_on_c, 0, 80, 83
2, 18240, Note_on_c, 0, 80, 0
2, 18240, Note_on_c, 0, 68, 0
2, 18240, Note_on_c, 0, 72, 0
2, 18240, Note_on_c, 0, 75, 0
2, 18240, Control_c, 0, 64, 0
2, 18240, Note_on_c, 0, 92, 83
2, 18240, Note_on_c, 0, 96, 83
2, 18240, Note_on_c, 0, 99, 83
2, 18240, Note_on_c, 0, 104, 83
2, 18720, Note_on_c, 0, 104, 0
2, 18720, Note_on_c, 0, 92, 0
2, 18720, Note_on_c, 0, 96, 0
2, 18720, Note_on_c, 0, 99, 0
2, 18720, Control_c, 0, 64, 127
2, 18720, Note_on_c, 0, 53, 83
2, 18720, Note_on_c, 0, 56, 83
2, 18720, Note_on_c, 0, 61, 83
2, 18720, Note_on_c, 0, 65, 83
2, 19200, Note_on_c, 0, 65, 0
2, 19200, Note_on_c, 0, 53, 0
2, 19200, Note_on_c, 0, 56, 0
2, 19200, Note_on_c, 0, 61, 0
2, 19200, Note_on_c, 0, 65, 83
2, 19200, Note_on_c, 0, 68, 83
2, 19200, Note_on_c, 0, 73, 83
2, 19200, Note_on_c, 0, 77, 83
2, 19680, Note_on_c, 0, 77, 0
2, 19680, Note_on_c, 0, 65, 0
2, 19680, Note_on_c, 0, 68, 0
2, 19680, Note_on_c, 0, 73, 0
2, 19680, Control_c, 0, 64, 0
2, 19680, Note_on_c, 0, 89, 83
2, 19680, Note_on_c, 0, 92, 83
2, 19680, Note_on_c, 0, 97, 83
2, 19680, Note_on_c, 0, 101, 83
2, 20160, Note_on_c, 0, 101, 0
2, 20160, Note_on_c, 0, 89, 0
2, 20160, Note_on_c, 0, 92, 0
2, 20160, Note_on_c, 0, 97, 0
2, 20160, Control_c, 0, 64, 127
2, 20160, Note_on_c, 0, 51, 83
2, 20160, Note_on_c, 0, 56, 83
2, 20160, Note_on_c, 0, 60, 83
2, 20160, Note_on_c, 0, 63, 83
2, 20640, Note_on_c, 0, 63, 0
2, 20640, Note_on_c, 0, 51, 0
2, 20640, Note_on_c, 0, 56, 0
2, 20640, Note_on_c, 0, 60, 0
2, 20640, Note_on_c, 0, 80, 83
2, 20640, Note_on_c, 0, 84, 83
2, 20640, Note_on_c, 0, 87, 83
2, 20640, Note_on_c, 0, 92, 83
2, 21120, Note_on_c, 0, 92, 0
2, 21120, Note_on_c, 0, 80, 0
2, 21120, Note_on_c, 0, 84, 0
2, 21120, Note_on_c, 0, 87, 0
2, 21120, Control_c, 0, 64, 0
2, 21120, Note_on_c, 0, 68, 83
2, 21120, Note_on_c, 0, 72, 83
2, 21120, Note_on_c, 0, 75, 83
2, 21120, Note_on_c, 0, 80, 83
2, 21600, Note_on_c, 0, 80, 0
2, 21600, Note_on_c, 0, 68, 0
2, 21600, Note_on_c, 0, 72, 0
2, 21600, Note_on_c, 0, 75, 0
2, 21600, Control_c, 0, 64, 127
2, 21600, Note_on_c, 0, 53, 83
2, 21600, Note_on_c, 0, 56, 83
2, 21600, Note_on_c, 0, 61, 83
2, 21600, Note_on_c, 0, 65, 83
2, 22080, Note_on_c, 0, 65, 0
2, 22080, Note_on_c, 0, 53, 0
2, 22080, Note_on_c, 0, 56, 0
2, 22080, Note_on_c, 0, 61, 0
2, 22080, Note_on_c, 0, 65, 83
2, 22080, Note_on_c, 0, 68, 83
2, 22080, Note_on_c, 0, 73, 83
2, 22080, Note_on_c, 0, 77, 83
2, 22560, Note_on_c, 0, 77, 0
2, 22560, Note_on_c, 0, 65, 0
2, 22560, Note_on_c, 0, 68, 0
2, 22560, Note_on_c, 0, 73, 0
2, 22560, Control_c, 0, 64, 0
2, 22560, Note_on_c, 0, 89, 83
2, 22560, Note_on_c, 0, 92, 83
2, 22560, Note_on_c, 0, 97, 83
2, 22560, Note_on_c, 0, 101, 83
2, 23040, Note_on_c, 0, 101, 0
2, 23040, Note_on_c, 0, 89, 0
2, 23040, Note_on_c, 0, 92, 0
2, 23040, Note_on_c, 0, 97, 0
2, 23040, Control_c, 0, 64, 127
2, 23040, Note_on_c, 0, 53, 83
2, 23040, Note_on_c, 0, 56, 83
2, 23040, Note_on_c, 0, 61, 83
2, 23040, Note_on_c, 0, 65, 83
2, 23520, Note_on_c, 0, 65, 0
2, 23520, Note_on_c, 0, 53, 0
2, 23520, Note_on_c, 0, 56, 0
2, 23520, Note_on_c, 0, 61, 0
2, 23520, Note_on_c, 0, 65, 83
2, 23520, Note_on_c, 0, 68, 83
2, 23520, Note_on_c, 0, 73, 83
2, 23520, Note_on_c, 0, 77, 83
2, 24000, Note_on_c, 0, 77, 0
2, 24000, Note_on_c, 0, 65, 0
2, 24000, Note_on_c, 0, 68, 0
2, 24000, Note_on_c, 0, 73, 0
2, 24000, Control_c, 0, 64, 0
2, 24000, Note_on_c, 0, 89, 83
2, 24000, Note_on_c, 0, 92, 83
2, 24000, Note_on_c, 0, 97, 83
2, 24000, Note_on_c, 0, 101, 83
2, 24480, Note_on_c, 0, 101, 0
2, 24480, Note_on_c, 0, 89, 0
2, 24480, Note_on_c, 0, 92, 0
2, 24480, Note_on_c, 0, 97, 0
2, 24480, Control_c, 0, 64, 127
2, 24480, Note_on_c, 0, 51, 83
2, 24480, Note_on_c, 0, 58, 83
2, 24480, Note_on_c, 0, 61, 83
2, 24480, Note_on_c, 0, 63, 83
2, 24960, Note_on_c, 0, 63, 0
2, 24960, Note_on_c, 0, 51, 0
2, 24960, Note_on_c, 0, 58, 0
2, 24960, Note_on_c, 0, 61, 0
2, 24960, Note_on_c, 0, 63, 83
2, 24960, Note_on_c, 0, 70, 83
2, 24960, Note_on_c, 0, 73, 83
2, 24960, Note_on_c, 0, 75, 83
2, 25440, Note_on_c, 0, 75, 0
2, 25440, Note_on_c, 0, 63, 0
2, 25440, Note_on_c, 0, 70, 0
2, 25440, Note_on_c, 0, 73, 0
2, 25440, Control_c, 0, 64, 0
2, 25440, Note_on_c, 0, 87, 83
2, 25440, Note_on_c, 0, 94, 83
2, 25440, Note_on_c, 0, 97, 83
2, 25440, Note_on_c, 0, 99, 83
2, 25920, Note_on_c, 0, 99, 0
2, 25920, Note_on_c, 0, 87, 0
2, 25920, Note_on_c, 0, 94, 0
2, 25920, Note_on_c, 0, 97, 0
2, 25920, Control_c, 0, 64, 127
2, 25920, Note_on_c, 0, 54, 83
2, 25920, Note_on_c, 0, 58, 83
2, 25920, Note_on_c, 0, 60, 83
2, 25920, Note_on_c, 0, 66, 83
2, 26400, Note_on_c, 0, 66, 0
2, 26400, Note_on_c, 0, 54, 0
2, 26400, Note_on_c, 0, 58, 0
2, 26400, Note_on_c, 0, 60, 0
2, 26400, Note_on_c, 0, 66, 83
2, 26400, Note_on_c, 0, 70, 83
2, 26400, Note_on_c, 0, 75, 83
2, 26400, Note_on_c, 0, 78, 83
2, 26880, Note_on_c, 0, 78, 0
2, 26880, Note_on_c, 0, 66, 0
2, 26880, Note_on_c, 0, 70, 0
2, 26880, Note_on_c, 0, 75, 0
2, 26880, Control_c, 0, 64, 0
2, 26880, Note_on_c, 0, 90, 83
2, 26880, Note_on_c, 0, 94, 83
2, 26880, Note_on_c, 0, 99, 83
2, 26880, Note_on_c, 0, 102, 83
2, 27270, Note_on_c, 0, 77, 83
2, 27300, Note_on_c, 0, 81, 83
2, 27330, Note_on_c, 0, 84, 83
2, 27360, Note_on_c, 0, 102, 0
2, 27360, Note_on_c, 0, 99, 0
2, 27360, Note_on_c, 0, 90, 0
2, 27360, Note_on_c, 0, 94, 0
2, 27360, Note_on_c, 0, 89, 83
2, 27750, Note_on_c, 0, 77, 83
2, 27780, Note_on_c, 0, 80, 83
2, 27810, Note_on_c, 0, 82, 83
2, 27840, Note_on_c, 0, 89, 0
2, 27840, Note_on_c, 0, 84, 0
2, 27840, Note_on_c, 0, 81, 0
2, 27840, Note_on_c, 0, 77, 0
2, 27840, Note_on_c, 0, 89, 83
2, 28230, Note_on_c, 0, 75, 83
2, 28260, Note_on_c, 0, 79, 83
2, 28290, Note_on_c, 0, 82, 83
2, 28320, Note_on_c, 0, 89, 0
2, 28320, Note_on_c, 0, 82, 0
2, 28320, Note_on_c, 0, 80, 0
2, 28320, Note_on_c, 0, 77, 0
2, 28320, Note_on_c, 0, 87, 83
2, 28710, Note_on_c, 0, 75, 83
2, 28740, Note_on_c, 0, 78, 83
2, 28770, Note_on_c, 0, 80, 83
2, 28800, Note_on_c, 0, 87, 0
2, 28800, Note_on_c, 0, 82, 0
2, 28800, Note_on_c, 0, 79, 0
2, 28800, Note_on_c, 0, 75, 0
2, 28800, Note_on_c, 0, 87, 83
2, 29190, Note_on_c, 0, 73, 83
2, 29220, Note_on_c, 0, 77, 83
2, 29250, Note_on_c, 0, 80, 83
2, 29280, Note_on_c, 0, 87, 0
2, 29280, Note_on_c, 0, 80, 0
2, 29280, Note_on_c, 0, 78, 0
2, 29280, Note_on_c, 0, 75, 0
2, 29280, Note_on_c, 0, 85, 83
2, 29670, Note_on_c, 0, 70, 83
2, 29700, Note_on_c, 0, 73, 83
2, 29730, Note_on_c, 0, 77, 83
2, 29760, Note_on_c, 0, 85, 0
2, 29760, Note_on_c, 0, 80, 0
2, 29760, Note_on_c, 0, 77, 0
2, 29760, Note_on_c, 0, 73, 0
2, 29760, Note_on_c, 0, 82, 83
2, 30150, Note_on_c, 0, 68, 83
2, 30180, Note_on_c, 0, 73, 83
2, 30210, Note_on_c, 0, 77, 83
2, 30240, Note_on_c, 0, 82, 0
2, 30240, Note_on_c, 0, 77, 0
2, 30240, Note_on_c, 0, 73, 0
2, 30240, Note_on_c, 0, 70, 0
2, 30240, Control_c, 0, 64, 127
2, 30240, Note_on_c, 0, 80, 83
2, 30630, Note_on_c, 0, 80, 83
2, 30660, Note_on_c, 0, 85, 83
2, 30690, Note_on_c, 0, 89, 83
2, 30720, Note_on_c, 0, 80, 0
2, 30720, Note_on_c, 0, 77, 0
2, 30720, Note_on_c, 0, 73, 0
2, 30720, Note_on_c, 0, 68, 0
2, 30720, Note_on_c, 0, 92, 83
2, 31110, Note_on_c, 0, 77, 83
2, 31140, Note_on_c, 0, 80, 83
2, 31170, Note_on_c, 0, 85, 83
2, 31200, Note_on_c, 0, 92, 0
2, 31200, Note_on_c, 0, 89, 0
2, 31200, Note_on_c, 0, 85, 0
2, 31200, Note_on_c, 0, 80, 0
2, 31200, Note_on_c, 0, 89, 83
2, 31590, Note_on_c, 0, 75, 83
2, 31620, Note_on_c, 0, 79, 83
2, 31650, Note_on_c, 0, 82, 83
2, 31680, Note_on_c, 0, 89, 0
2, 31680, Note_on_c, 0, 85, 0
2, 31680, Note_on_c, 0, 80, 0
2, 31680, Note_on_c, 0, 77, 0
2, 31680, Control_c, 0, 64, 0
2, 31680, Note_on_c, 0, 87, 83
2, 32070, Note_on_c, 0, 67, 83
2, 32100, Note_on_c, 0, 70, 83
2, 32130, Note_on_c, 0, 75, 83
2, 32160, Note_on_c, 0, 87, 0
2, 32160, Note_on_c, 0, 82, 0
2, 32160, Note_on_c, 0, 79, 0
2, 32160, Note_on_c, 0, 75, 0
2, 32160, Note_on_c, 0, 79, 83
2, 32550, Note_on_c, 0, 66, 83
2, 32580, Note_on_c, 0, 68, 83
2, 32610, Note_on_c, 0, 75, 83
2, 32640, Note_on_c, 0, 79, 0
2, 32640, Note_on_c, 0, 75, 0
2, 32640, Note_on_c, 0, 70, 0
2, 32640, Note_on_c, 0, 67, 0
2, 32640, Note_on_c, 0, 78, 83
2, 33030, Note_on_c, 0, 65, 83
2, 33060, Note_on_c, 0, 68, 83
2, 33090, Note_on_c, 0, 73, 83
2, 33120, Note_on_c, 0, 78, 0
2, 33120, Note_on_c, 0, 75, 0
2, 33120, Note_on_c, 0, 68, 0
2, 33120, Note_on_c, 0, 66, 0
2, 33120, Note_on_c, 0, 77, 83
2, 33600, Note_on_c, 0, 77, 0
2, 33600, Note_on_c, 0, 68, 0
2, 33600, Note_on_c, 0, 65, 0
2, 33600, Note_on_c, 0, 73, 0
2, 35220, Control_c, 0, 64, 127
2, 35220, Note_on_c, 0, 68, 83
2, 35220, Note_on_c, 0, 73, 83
2, 35220, Note_on_c, 0, 80, 83
2, 35280, Note_on_c, 0, 80, 0
2, 35280, Note_on_c, 0, 73, 0
2, 35280, Note_on_c, 0, 68, 0
2, 35280, Note_on_c, 0, 68, 83
2, 35280, Note_on_c, 0, 73, 83
2, 35280, Note_on_c, 0, 80, 83
2, 35460, Note_on_c, 0, 80, 0
2, 35460, Note_on_c, 0, 73, 0
2, 35460, Note_on_c, 0, 68, 0
2, 35460, Note_on_c, 0, 65, 83
2, 35460, Note_on_c, 0, 68, 83
2, 35460, Note_on_c, 0, 77, 83
2, 35520, Note_on_c, 0, 77, 0
2, 35520, Note_on_c, 0, 68, 0
2, 35520, Note_on_c, 0, 65, 0
2, 35520, Note_on_c, 0, 65, 83
2, 35520, Note_on_c, 0, 68, 83
2, 35520, Note_on_c, 0, 77, 83
2, 35700, Note_on_c, 0, 77, 0
2, 35700, Note_on_c, 0, 68, 0
2, 35700, Note_on_c, 0, 65, 0
2, 35700, Note_on_c, 0, 63, 83
2, 35700, Note_on_c, 0, 68, 83
2, 35700, Note_on_c, 0, 75, 83
2, 35760, Note_on_c, 0, 75, 0
2, 35760, Note_on_c, 0, 68, 0
2, 35760, Note_on_c, 0, 63, 0
2, 35760, Note_on_c, 0, 63, 83
2, 35760, Note_on_c, 0, 68, 83
2, 35760, Note_on_c, 0, 75, 83
2, 35940, Note_on_c, 0, 75, 0
2, 35940, Note_on_c, 0, 68, 0
2, 35940, Note_on_c, 0, 63, 0
2, 35940, Control_c, 0, 64, 0
2, 35940, Note_on_c, 0, 65, 83
2, 35940, Note_on_c, 0, 68, 83
2, 35940, Note_on_c, 0, 73, 83
2, 36000, Note_on_c, 0, 73, 0
2, 36000, Note_on_c, 0, 68, 0
2, 36000, Note_on_c, 0, 65, 0
2, 36000, Note_on_c, 0, 65, 83
2, 36000, Note_on_c, 0, 68, 83
2, 36000, Note_on_c, 0, 73, 83
2, 36480, Note_on_c, 0, 73, 0
2, 36480, Note_on_c, 0, 68, 0
2, 36480, Note_on_c, 0, 65, 0
2, 36480, Note_on_c, 0, 77, 109
2, 36480, Note_on_c, 0, 80, 109
2, 36480, Note_on_c, 0, 85, 109
2, 36480, Note_on_c, 0, 89, 109
2, 37200, Note_on_c, 0, 89, 0
2, 37200, Note_on_c, 0, 77, 0
2, 37200, Note_on_c, 0, 80, 0
2, 37200, Note_on_c, 0, 85, 0
2, 37200, Note_on_c, 0, 75, 83
2, 37200, Note_on_c, 0, 87, 83
2, 37440, Note_on_c, 0, 87, 0
2, 37440, Note_on_c, 0, 75, 0
2, 37440, Note_on_c, 0, 78, 109
2, 37440, Note_on_c, 0, 80, 109
2, 37440, Note_on_c, 0, 85, 109
2, 37440, Note_on_c, 0, 90, 109
2, 38040, Note_on_c, 0, 90, 0
2, 38040, Note_on_c, 0, 78, 0
2, 38040, Note_on_c, 0, 80, 0
2, 38040, Note_on_c, 0, 85, 0
2, 38040, Control_c, 0, 64, 127
2, 38040, Note_on_c, 0, 77, 83
2, 38040, Note_on_c, 0, 89, 83
2, 38160, Note_on_c, 0, 89, 0
2, 38160, Note_on_c, 0, 77, 0
2, 38160, Note_on_c, 0, 72, 83
2, 38160, Note_on_c, 0, 84, 83
2, 38280, Note_on_c, 0, 84, 0
2, 38280, Note_on_c, 0, 72, 0
2, 38280, Note_on_c, 0, 73, 83
2, 38280, Note_on_c, 0, 85, 83
2, 38400, Note_on_c, 0, 85, 0
2, 38400, Note_on_c, 0, 73, 0
2, 38400, Note_on_c, 0, 75, 83
2, 38400, Note_on_c, 0, 87, 83
2, 38520, Note_on_c, 0, 87, 0
2, 38520, Note_on_c, 0, 75, 0
2, 38520, Note_on_c, 0, 73, 83
2, 38520, Note_on_c, 0, 85, 83
2, 38640, Note_on_c, 0, 85, 0
2, 38640, Note_on_c, 0, 73, 0
2, 38640, Note_on_c, 0, 72, 83
2, 38640, Note_on_c, 0, 84, 83
2, 38760, Note_on_c, 0, 84, 0
2, 38760, Note_on_c, 0, 72, 0
2, 38760, Note_on_c, 0, 73, 83
2, 38760, Note_on_c, 0, 85, 83
2, 38880, Note_on_c, 0, 85, 0
2, 38880, Note_on_c, 0, 73, 0
2, 38880, Control_c, 0, 64, 0
2, 38880, Note_on_c, 0, 70, 83
2, 38880, Note_on_c, 0, 82, 83
2, 39120, Note_on_c, 0, 82, 0
2, 39120, Note_on_c, 0, 70, 0
2, 39360, Note_on_c, 0, 75, 109
2, 39360, Note_on_c, 0, 78, 109
2, 39360, Note_on_c, 0, 82, 109
2, 39360, Note_on_c, 0, 87, 109
2, 40080, Note_on_c, 0, 87, 0
2, 40080, Note_on_c, 0, 75, 0
2, 40080, Note_on_c, 0, 78, 0
2, 40080, Note_on_c, 0, 82, 0
2, 40080, Note_on_c, 0, 77, 83
2, 40080, Note_on_c, 0, 89, 83
2, 40320, Note_on_c, 0, 89, 0
2, 40320, Note_on_c, 0, 77, 0
2, 40320, Note_on_c, 0, 70, 109
2, 40320, Note_on_c, 0, 75, 109
2, 40320, Note_on_c, 0, 78, 109
2, 40320, Note_on_c, 0, 82, 109
2, 40980, Note_on_c, 0, 82, 0
2, 40980, Note_on_c, 0, 70, 0
2, 40980, Note_on_c, 0, 75, 0
2, 40980, Note_on_c, 0, 78, 0
2, 40980, Control_c, 0, 64, 127
2, 40980, Note_on_c, 0, 75, 83
2, 40980, Note_on_c, 0, 78, 83
2, 40980, Note_on_c, 0, 82, 83
2, 40980, Note_on_c, 0, 87, 83
2, 41040, Note_on_c, 0, 87, 0
2, 41040, Note_on_c, 0, 75, 0
2, 41040, Note_on_c, 0, 78, 0
2, 41040, Note_on_c, 0, 82, 0
2, 41040, Note_on_c, 0, 75, 83
2, 41040, Note_on_c, 0, 78, 83
2, 41040, Note_on_c, 0, 82, 83
2, 41040, Note_on_c, 0, 87, 83
2, 41220, Note_on_c, 0, 87, 0
2, 41220, Note_on_c, 0, 75, 0
2, 41220, Note_on_c, 0, 78, 0
2, 41220, Note_on_c, 0, 82, 0
2, 41220, Note_on_c, 0, 72, 83
2, 41220, Note_on_c, 0, 75, 83
2, 41220, Note_on_c, 0, 78, 83
2, 41220, Note_on_c, 0, 84, 83
2, 41280, Note_on_c, 0, 84, 0
2, 41280, Note_on_c, 0, 72, 0
2, 41280, Note_on_c, 0, 75, 0
2, 41280, Note_on_c, 0, 78, 0
2, 41280, Note_on_c, 0, 72, 83
2, 41280, Note_on_c, 0, 75, 83
2, 41280, Note_on_c, 0, 78, 83
2, 41280, Note_on_c, 0, 84, 83
2, 41460, Note_on_c, 0, 84, 0
2, 41460, Note_on_c, 0, 72, 0
2, 41460, Note_on_c, 0, 75, 0
2, 41460, Note_on_c, 0, 78, 0
2, 41460, Note_on_c, 0, 70, 83
2, 41460, Note_on_c, 0, 75, 83
2, 41460, Note_on_c, 0, 78, 83
2, 41460, Note_on_c, 0, 82, 83
2, 41520, Note_on_c, 0, 82, 0
2, 41520, Note_on_c, 0, 70, 0
2, 41520, Note_on_c, 0, 75, 0
2, 41520, Note_on_c, 0, 78, 0
2, 41520, Note_on_c, 0, 70, 83
2, 41520, Note_on_c, 0, 75, 83
2, 41520, Note_on_c, 0, 78, 83
2, 41520, Note_on_c, 0, 82, 83
2, 41700, Note_on_c, 0, 82, 0
2, 41700, Note_on_c, 0, 70, 0
2, 41700, Note_on_c, 0, 75, 0
2, 41700, Note_on_c, 0, 78, 0
2, 41700, Note_on_c, 0, 68, 83
2, 41700, Note_on_c, 0, 75, 83
2, 41700, Note_on_c, 0, 78, 83
2, 41700, Note_on_c, 0, 80, 83
2, 41760, Note_on_c, 0, 80, 0
2, 41760, Note_on_c, 0, 68, 0
2, 41760, Note_on_c, 0, 75, 0
2, 41760, Note_on_c, 0, 78, 0
2, 41760, Control_c, 0, 64, 0
2, 41760, Note_on_c, 0, 68, 83
2, 41760, Note_on_c, 0, 75, 83
2, 41760, Note_on_c, 0, 78, 83
2, 41760, Note_on_c, 0, 80, 83
2, 42240, Note_on_c, 0, 80, 0
2, 42240, Note_on_c, 0, 68, 0
2, 42240, Note_on_c, 0, 75, 0
2, 42240, Note_on_c, 0, 78, 0
2, 42240, Note_on_c, 0, 75, 109
2, 42240, Note_on_c, 0, 80, 109
2, 42240, Note_on_c, 0, 84, 109
2, 42240, Note_on_c, 0, 87, 109
2, 42960, Note_on_c, 0, 87, 0
2, 42960, Note_on_c, 0, 75, 0
2, 42960, Note_on_c, 0, 80, 0
2, 42960, Note_on_c, 0, 84, 0
2, 42960, Note_on_c, 0, 77, 83
2, 42960, Note_on_c, 0, 89, 83
2, 43200, Note_on_c, 0, 89, 0
2, 43200, Note_on_c, 0, 77, 0
2, 43200, Note_on_c, 0, 80, 109
2, 43200, Note_on_c, 0, 84, 109
2, 43200, Note_on_c, 0, 87, 109
2, 43200, Note_on_c, 0, 92, 109
2, 43839, Note_on_c, 0, 92, 0
2, 43839, Note_on_c, 0, 80, 0
2, 43839, Note_on_c, 0, 84, 0
2, 43839, Note_on_c, 0, 87, 0
2, 43839, Note_on_c, 0, 75, 109
2, 43839, Note_on_c, 0, 87, 109
2, 44000, Note_on_c, 0, 87, 0
2, 44000, Note_on_c, 0, 75, 0
2, 44000, Note_on_c, 0, 74, 109
2, 44000, Note_on_c, 0, 86, 109
2, 44160, Note_on_c, 0, 86, 0
2, 44160, Note_on_c, 0, 74, 0
2, 44160, Note_on_c, 0, 75, 109
2, 44160, Note_on_c, 0, 87, 109
2, 44319, Note_on_c, 0, 87, 0
2, 44319, Note_on_c, 0, 75, 0
2, 44319, Note_on_c, 0, 77, 109
2, 44319, Note_on_c, 0, 89, 109
2, 44480, Note_on_c, 0, 89, 0
2, 44480, Note_on_c, 0, 77, 0
2, 44480, Note_on_c, 0, 78, 109
2, 44480, Note_on_c, 0, 90, 109
2, 44640, Note_on_c, 0, 90, 0
2, 44640, Note_on_c, 0, 78, 0
2, 44640, Note_on_c, 0, 80, 109
2, 44640, Note_on_c, 0, 85, 109
2, 44640, Note_on_c, 0, 89, 109
2, 44640, Note_on_c, 0, 92, 109
2, 45360, Note_on_c, 0, 92, 0
2, 45360, Note_on_c, 0, 80, 0
2, 45360, Note_on_c, 0, 85, 0
2, 45360, Note_on_c, 0, 89, 0
2, 45360, Note_on_c, 0, 77, 109
2, 45360, Note_on_c, 0, 89, 109
2, 45600, Note_on_c, 0, 89, 0
2, 45600, Note_on_c, 0, 77, 0
2, 45600, Note_on_c, 0, 82, 109
2, 45600, Note_on_c, 0, 94, 109
2, 45840, Note_on_c, 0, 94, 0
2, 45840, Note_on_c, 0, 82, 0
2, 45840, Note_on_c, 0, 80, 109
2, 45840, Note_on_c, 0, 92, 109
2, 46080, Note_on_c, 0, 92, 0
2, 46080, Note_on_c, 0, 80, 0
2, 46080, Note_on_c, 0, 80, 109
2, 46080, Note_on_c, 0, 92, 109
2, 46800, Note_on_c, 0, 92, 0
2, 46800, Note_on_c, 0, 80, 0
2, 46800, Note_on_c, 0, 75, 109
2, 46800, Note_on_c, 0, 87, 109
2, 47040, Note_on_c, 0, 87, 0
2, 47040, Note_on_c, 0, 75, 0
2, 47040, Note_on_c, 0, 82, 109
2, 47040, Note_on_c, 0, 94, 109
2, 47280, Note_on_c, 0, 94, 0
2, 47280, Note_on_c, 0, 82, 0
2, 47280, Note_on_c, 0, 80, 109
2, 47280, Note_on_c, 0, 92, 109
2, 47520, Note_on_c, 0, 92, 0
2, 47520, Note_on_c, 0, 80, 0
2, 47520, Note_on_c, 0, 80, 83
2, 47520, Note_on_c, 0, 92, 83
2, 48240, Note_on_c, 0, 92, 0
2, 48240, Note_on_c, 0, 80, 0
2, 48240, Note_on_c, 0, 77, 109
2, 48240, Note_on_c, 0, 89, 109
2, 48480, Note_on_c, 0, 89, 0
2, 48480, Note_on_c, 0, 77, 0
2, 48480, Note_on_c, 0, 83, 109
2, 48480, Note_on_c, 0, 95, 109
2, 48720, Note_on_c, 0, 95, 0
2, 48720, Note_on_c, 0, 83, 0
2, 48720, Note_on_c, 0, 82, 109
2, 48720, Note_on_c, 0, 94, 109
2, 48960, Note_on_c, 0, 94, 0
2, 48960, Note_on_c, 0, 82, 0
2, 48960, Note_on_c, 0, 82, 109
2, 48960, Note_on_c, 0, 94, 109
2, 49680, Note_on_c, 0, 94, 0
2, 49680, Note_on_c, 0, 82, 0
2, 49680, Note_on_c, 0, 78, 109
2, 49680, Note_on_c, 0, 90, 109
2, 49920, Note_on_c, 0, 90, 0
2, 49920, Note_on_c, 0, 78, 0
2, 49920, Note_on_c, 0, 85, 109
2, 49920, Note_on_c, 0, 97, 109
2, 50160, Note_on_c, 0, 97, 0
2, 50160, Note_on_c, 0, 85, 0
2, 50160, Note_on_c, 0, 84, 109
2, 50160, Note_on_c, 0, 96, 109
2, 50400, Note_on_c, 0, 96, 0
2, 50400, Note_on_c, 0, 84, 0
2, 50400, Note_on_c, 0, 84, 109
2, 50400, Note_on_c, 0, 96, 109
2, 51039, Note_on_c, 0, 96, 0
2, 51039, Note_on_c, 0, 84, 0
2, 51039, Note_on_c, 0, 80, 83
2, 51039, Note_on_c, 0, 92, 83
2, 51200, Note_on_c, 0, 92, 0
2, 51200, Note_on_c, 0, 80, 0
2, 51200, Note_on_c, 0, 85, 83
2, 51200, Note_on_c, 0, 97, 83
2, 51360, Note_on_c, 0, 97, 0
2, 51360, Note_on_c, 0, 85, 0
2, 51360, Note_on_c, 0, 84, 83
2, 51360, Note_on_c, 0, 96, 83
2, 51519, Note_on_c, 0, 96, 0
2, 51519, Note_on_c, 0, 84, 0
2, 51519, Note_on_c, 0, 80, 83
2, 51519, Note_on_c, 0, 92, 83
2, 51680, Note_on_c, 0, 92, 0
2, 51680, Note_on_c, 0, 80, 0
2, 51680, Note_on_c, 0, 79, 83
2, 51680, Note_on_c, 0, 91, 83
2, 51840, Note_on_c, 0, 91, 0
2, 51840, Note_on_c, 0, 79, 0
2, 51840, Note_on_c, 0, 77, 83
2, 51840, Note_on_c, 0, 80, 83
2, 51840, Note_on_c, 0, 84, 83
2, 51840, Note_on_c, 0, 89, 83
2, 51999, Note_on_c, 0, 89, 0
2, 51999, Note_on_c, 0, 77, 0
2, 51999, Note_on_c, 0, 80, 0
2, 51999, Note_on_c, 0, 84, 0
2, 51999, Note_on_c, 0, 73, 83
2, 51999, Note_on_c, 0, 85, 83
2, 52160, Note_on_c, 0, 85, 0
2, 52160, Note_on_c, 0, 73, 0
2, 52160, Note_on_c, 0, 72, 83
2, 52160, Note_on_c, 0, 84, 83
2, 52320, Note_on_c, 0, 84, 0
2, 52320, Note_on_c, 0, 72, 0
2, 52320, Note_on_c, 0, 71, 83
2, 52320, Note_on_c, 0, 77, 83
2, 52320, Note_on_c, 0, 80, 83
2, 52320, Note_on_c, 0, 83, 83
2, 52479, Note_on_c, 0, 83, 0
2, 52479, Note_on_c, 0, 71, 0
2, 52479, Note_on_c, 0, 72, 83
2, 52479, Note_on_c, 0, 84, 83
2, 52640, Note_on_c, 0, 84, 0
2, 52640, Note_on_c, 0, 72, 0
2, 52640, Note_on_c, 0, 68, 83
2, 52640, Note_on_c, 0, 80, 83
2, 52800, Note_on_c, 0, 80, 0
2, 52800, Note_on_c, 0, 77, 0
2, 52800, Note_on_c, 0, 80, 0
2, 52800, Note_on_c, 0, 68, 0
2, 52800, Note_on_c, 0, 67, 83
2, 52800, Note_on_c, 0, 72, 83
2, 52800, Note_on_c, 0, 79, 83
2, 52959, Note_on_c, 0, 79, 0
2, 52959, Note_on_c, 0, 67, 0
2, 52959, Note_on_c, 0, 68, 83
2, 52959, Note_on_c, 0, 80, 83
2, 53120, Note_on_c, 0, 80, 0
2, 53120, Note_on_c, 0, 68, 0
2, 53120, Note_on_c, 0, 65, 83
2, 53120, Note_on_c, 0, 77, 83
2, 53280, Note_on_c, 0, 77, 0
2, 53280, Note_on_c, 0, 65, 0
2, 53280, Note_on_c, 0, 72, 0
2, 53280, Note_on_c, 0, 61, 83
2, 53280, Note_on_c, 0, 65, 83
2, 53280, Note_on_c, 0, 68, 83
2, 53280, Note_on_c, 0, 73, 83
2, 53439, Note_on_c, 0, 73, 0
2, 53439, Note_on_c, 0, 61, 0
2, 53439, Note_on_c, 0, 65, 0
2, 53439, Note_on_c, 0, 68, 0
2, 53439, Note_on_c, 0, 60, 83
2, 53439, Note_on_c, 0, 72, 83
2, 53600, Note_on_c, 0, 72, 0
2, 53600, Note_on_c, 0, 60, 0
2, 53600, Note_on_c, 0, 59, 83
2, 53600, Note_on_c, 0, 71, 83
2, 53760, Note_on_c, 0, 71, 0
2, 53760, Note_on_c, 0, 59, 0
2, 53760, Note_on_c, 0, 60, 96
2, 53760, Note_on_c, 0, 72, 96
2, 53919, Note_on_c, 0, 72, 0
2, 53919, Note_on_c, 0, 60, 0
2, 53919, Note_on_c, 0, 56, 96
2, 53919, Note_on_c, 0, 68, 96
2, 54080, Note_on_c, 0, 68, 0
2, 54080, Note_on_c, 0, 56, 0
2, 54080, Note_on_c, 0, 55, 96
2, 54080, Note_on_c, 0, 67, 96
2, 54240, Note_on_c, 0, 67, 0
2, 54240, Note_on_c, 0, 55, 0
2, 54240, Note_on_c, 0, 53, 96
2, 54240, Note_on_c, 0, 65, 96
2, 54399, Note_on_c, 0, 65, 0
2, 54399, Note_on_c, 0, 53, 0
2, 54399, Note_on_c, 0, 61, 96
2, 54560, Note_on_c, 0, 61, 0
2, 54560, Note_on_c, 0, 60, 96
2, 54720, Note_on_c, 0, 60, 0
2, 54720, Note_on_c, 0, 59, 96
2, 54960, Note_on_c, 0, 59, 0
2, 54960, Note_on_c, 0, 60, 96
2, 55200, Note_on_c, 0, 60, 0
2, 55200, Note_on_c, 0, 56, 96
2, 55440, Note_on_c, 0, 56, 0
2, 55440, Note_on_c, 0, 55, 96
2, 55680, Note_on_c, 0, 55, 0
2, 55680, Note_on_c, 0, 53, 96
2, 55680, Note_on_c, 0, 56, 96
2, 55680, Note_on_c, 0, 59, 96
2, 55680, Note_on_c, 0, 65, 96
2, 56550, Note_on_c, 0, 68, 96
2, 56580, Note_on_c, 0, 71, 96
2, 56610, Note_on_c, 0, 77, 96
2, 56640, Note_on_c, 0, 65, 0
2, 56640, Note_on_c, 0, 59, 0
2, 56640, Note_on_c, 0, 53, 0
2, 56640, Note_on_c, 0, 56, 0
2, 56640, Note_on_c, 0, 80, 96
2, 56880, Note_on_c, 0, 80, 0
2, 56880, Note_on_c, 0, 71, 0
2, 56880, Note_on_c, 0, 68, 0
2, 56880, Note_on_c, 0, 77, 0
2, 56880, Note_on_c, 0, 59, 122
2, 57120, Note_on_c, 0, 59, 0
2, 57120, Note_on_c, 0, 56, 122
2, 57360, Note_on_c, 0, 56, 0
2, 57360, Note_on_c, 0, 54, 122
2, 57600, Note_on_c, 0, 54, 0
2, 57600, Control_c, 0, 64, 127
2, 57600, Note_on_c, 0, 44, 96
2, 57600, Note_on_c, 0, 47, 96
2, 57600, Note_on_c, 0, 53, 96
2, 57840, Note_on_c, 0, 53, 0
2, 57840, Note_on_c, 0, 47, 0
2, 57840, Note_on_c, 0, 44, 0
2, 57840, Note_on_c, 0, 53, 96
2, 57879, Note_on_c, 0, 53, 0
2, 57879, Note_on_c, 0, 56, 96
2, 57920, Note_on_c, 0, 56, 0
2, 57920, Note_on_c, 0, 59, 96
2, 57960, Note_on_c, 0, 59, 0
2, 57960, Note_on_c, 0, 62, 96
2, 57999, Note_on_c, 0, 62, 0
2, 57999, Note_on_c, 0, 65, 96
2, 58040, Note_on_c, 0, 65, 0
2, 58040, Note_on_c, 0, 68, 96
2, 58080, Note_on_c, 0, 68, 0
2, 58080, Note_on_c, 0, 71, 96
2, 58119, Note_on_c, 0, 71, 0
2, 58119, Note_on_c, 0, 74, 96
2, 58160, Note_on_c, 0, 74, 0
2, 58160, Note_on_c, 0, 77, 96
2, 58200, Note_on_c, 0, 77, 0
2, 58200, Note_on_c, 0, 80, 96
2, 58239, Note_on_c, 0, 80, 0
2, 58239, Note_on_c, 0, 83, 96
2, 58280, Note_on_c, 0, 83, 0
2, 58280, Note_on_c, 0, 86, 96
2, 58320, Note_on_c, 0, 86, 0
2, 58320, Note_on_c, 0, 89, 96
2, 58380, Note_on_c, 0, 89, 0
2, 58380, Note_on_c, 0, 92, 96
2, 58440, Note_on_c, 0, 92, 0
2, 58440, Note_on_c, 0, 95, 96
2, 58680, Control_c, 0, 64, 0
2, 58800, Note_on_c, 0, 95, 0
2, 58800, Note_on_c, 0, 62, 122
2, 59040, Note_on_c, 0, 62, 0
2, 59040, Note_on_c, 0, 59, 122
2, 59280, Note_on_c, 0, 59, 0
2, 59280, Note_on_c, 0, 58, 122
2, 59520, Note_on_c, 0, 58, 0
2, 59520, Control_c, 0, 64, 127
2, 59520, Note_on_c, 0, 47, 96
2, 59520, Note_on_c, 0, 50, 96
2, 59520, Note_on_c, 0, 56, 96
2, 59760, Note_on_c, 0, 56, 0
2, 59760, Note_on_c, 0, 50, 0
2, 59760, Note_on_c, 0, 47, 0
2, 59760, Note_on_c, 0, 56, 96
2, 59799, Note_on_c, 0, 56, 0
2, 59799, Note_on_c, 0, 59, 96
2, 59840, Note_on_c, 0, 59, 0
2, 59840, Note_on_c, 0, 62, 96
2, 59880, Note_on_c, 0, 62, 0
2, 59880, Note_on_c, 0, 65, 96
2, 59919, Note_on_c, 0, 65, 0
2, 59919, Note_on_c, 0, 68, 96
2, 59960, Note_on_c, 0, 68, 0
2, 59960, Note_on_c, 0, 71, 96
2, 60000, Note_on_c, 0, 71, 0
2, 60000, Note_on_c, 0, 74, 96
2, 60039, Note_on_c, 0, 74, 0
2, 60039, Note_on_c, 0, 77, 96
2, 60080, Note_on_c, 0, 77, 0
2, 60080, Note_on_c, 0, 80, 96
2, 60120, Note_on_c, 0, 80, 0
2, 60120, Note_on_c, 0, 83, 96
2, 60159, Note_on_c, 0, 83, 0
2, 60159, Note_on_c, 0, 86, 96
2, 60200, Note_on_c, 0, 86, 0
2, 60200, Note_on_c, 0, 89, 96
2, 60240, Note_on_c, 0, 89, 0
2, 60240, Note_on_c, 0, 92, 96
2, 60300, Note_on_c, 0, 92, 0
2, 60300, Note_on_c, 0, 95, 96
2, 60360, Note_on_c, 0, 95, 0
2, 60360, Note_on_c, 0, 98, 96
2, 60540, Control_c, 0, 64, 0
2, 60660, Note_on_c, 0, 98, 0
2, 60660, Note_on_c, 0, 65, 122
2, 60900, Note_on_c, 0, 65, 0
2, 60900, Note_on_c, 0, 62, 122
2, 61140, Note_on_c, 0, 62, 0
2, 61140, Note_on_c, 0, 61, 122
2, 61360, Note_on_c, 0, 50, 96
2, 61380, Note_on_c, 0, 61, 0
2, 61400, Note_on_c, 0, 53, 96
2, 61440, Control_c, 0, 64, 127
2, 61440, Note_on_c, 0, 59, 96
2, 61590, Note_on_c, 0, 62, 96
2, 61620, Note_on_c, 0, 65, 96
2, 61650, Note_on_c, 0, 71, 96
2, 61680, Note_on_c, 0, 59, 0
2, 61680, Note_on_c, 0, 50, 0
2, 61680, Note_on_c, 0, 53, 0
2, 61680, Note_on_c, 0, 74, 96
2, 61830, Note_on_c, 0, 65, 96
2, 61860, Note_on_c, 0, 71, 96
2, 61890, Note_on_c, 0, 74, 96
2, 61920, Note_on_c, 0, 74, 0
2, 61920, Note_on_c, 0, 62, 0
2, 61920, Note_on_c, 0, 71, 0
2, 61920, Note_on_c, 0, 65, 0
2, 61920, Note_on_c, 0, 77, 96
2, 62070, Note_on_c, 0, 71, 96
2, 62100, Note_on_c, 0, 74, 96
2, 62130, Note_on_c, 0, 77, 96
2, 62160, Note_on_c, 0, 77, 0
2, 62160, Note_on_c, 0, 74, 0
2, 62160, Note_on_c, 0, 71, 0
2, 62160, Note_on_c, 0, 65, 0
2, 62160, Note_on_c, 0, 83, 96
2, 62310, Note_on_c, 0, 74, 96
2, 62340, Note_on_c, 0, 77, 96
2, 62370, Note_on_c, 0, 83, 96
2, 62400, Note_on_c, 0, 83, 0
2, 62400, Note_on_c, 0, 77, 0
2, 62400, Note_on_c, 0, 74, 0
2, 62400, Note_on_c, 0, 71, 0
2, 62400, Note_on_c, 0, 86, 96
2, 62550, Note_on_c, 0, 77, 96
2, 62580, Note_on_c, 0, 83, 96
2, 62610, Note_on_c, 0, 86, 96
2, 62640, Note_on_c, 0, 86, 0
2, 62640, Note_on_c, 0, 83, 0
2, 62640, Note_on_c, 0, 77, 0
2, 62640, Note_on_c, 0, 74, 0
2, 62640, Control_c, 0, 64, 0
2, 62640, Note_on_c, 0, 89, 96
2, 62880, Note_on_c, 0, 89, 0
2, 62880, Note_on_c, 0, 83, 0
2, 62880, Note_on_c, 0, 77, 0
2, 62880, Note_on_c, 0, 86, 0
2, 62880, Control_c, 0, 64, 127
2, 62880, Note_on_c, 0, 76, 96
2, 62880, Note_on_c, 0, 79, 96
2, 62880, Note_on_c, 0, 85, 96
2, 62880, Note_on_c, 0, 88, 96
2, 63120, Note_on_c, 0, 88, 0
2, 63120, Note_on_c, 0, 76, 0
2, 63120, Note_on_c, 0, 79, 0
2, 63120, Note_on_c, 0, 85, 0
2, 63120, Note_on_c, 0, 52, 96
2, 63159, Note_on_c, 0, 52, 0
2, 63159, Note_on_c, 0, 55, 96
2, 63200, Note_on_c, 0, 55, 0
2, 63200, Note_on_c, 0, 58, 96
2, 63240, Note_on_c, 0, 58, 0
2, 63240, Note_on_c, 0, 61, 96
2, 63279, Note_on_c, 0, 61, 0
2, 63279, Note_on_c, 0, 64, 96
2, 63320, Note_on_c, 0, 64, 0
2, 63320, Note_on_c, 0, 67, 96
2, 63360, Note_on_c, 0, 67, 0
2, 63360, Note_on_c, 0, 70, 96
2, 63399, Note_on_c, 0, 70, 0
2, 63399, Note_on_c, 0, 73, 96
2, 63440, Note_on_c, 0, 73, 0
2, 63440, Note_on_c, 0, 76, 96
2, 63480, Note_on_c, 0, 76, 0
2, 63480, Note_on_c, 0, 79, 96
2, 63519, Note_on_c, 0, 79, 0
2, 63519, Note_on_c, 0, 82, 96
2, 63560, Note_on_c, 0, 82, 0
2, 63560, Note_on_c, 0, 85, 96
2, 63600, Note_on_c, 0, 85, 0
2, 63600, Note_on_c, 0, 88, 96
2, 63639, Note_on_c, 0, 88, 0
2, 63639, Note_on_c, 0, 91, 96
2, 63680, Note_on_c, 0, 91, 0
2, 63680, Note_on_c, 0, 94, 96
2, 63720, Note_on_c, 0, 94, 0
2, 63720, Note_on_c, 0, 97, 96
2, 63780, Note_on_c, 0, 97, 0
2, 63780, Note_on_c, 0, 100, 96
2, 64080, Note_on_c, 0, 100, 0
2, 64080, Control_c, 0, 64, 0
2, 64080, Note_on_c, 0, 61, 122
2, 64320, Note_on_c, 0, 61, 0
2, 64320, Note_on_c, 0, 58, 122
2, 64560, Note_on_c, 0, 58, 0
2, 64560, Note_on_c, 0, 56, 122
2, 64800, Note_on_c, 0, 56, 0
2, 64800, Control_c, 0, 64, 127
2, 64800, Note_on_c, 0, 46, 96
2, 64800, Note_on_c, 0, 49, 96
2, 64800, Note_on_c, 0, 55, 96
2, 65040, Note_on_c, 0, 55, 0
2, 65040, Note_on_c, 0, 49, 0
2, 65040, Note_on_c, 0, 46, 0
2, 65040, Note_on_c, 0, 55, 96
2, 65079, Note_on_c, 0, 55, 0
2, 65079, Note_on_c, 0, 58, 96
2, 65120, Note_on_c, 0, 58, 0
2, 65120, Note_on_c, 0, 61, 96
2, 65160, Note_on_c, 0, 61, 0
2, 65160, Note_on_c, 0, 64, 96
2, 65199, Note_on_c, 0, 64, 0
2, 65199, Note_on_c, 0, 67, 96
2, 65240, Note_on_c, 0, 67, 0
2, 65240, Note_on_c, 0, 70, 96
2, 65280, Note_on_c, 0, 70, 0
2, 65280, Note_on_c, 0, 73, 96
2, 65319, Note_on_c, 0, 73, 0
2, 65319, Note_on_c, 0, 76, 96
2, 65360, Note_on_c, 0, 76, 0
2, 65360, Note_on_c, 0, 79, 96
2, 65400, Note_on_c, 0, 79, 0
2, 65400, Note_on_c, 0, 82, 96
2, 65439, Note_on_c, 0, 82, 0
2, 65439, Note_on_c, 0, 85, 96
2, 65480, Note_on_c, 0, 85, 0
2, 65480, Note_on_c, 0, 88, 96
2, 65520, Note_on_c, 0, 88, 0
2, 65520, Note_on_c, 0, 91, 96
2, 65580, Note_on_c, 0, 91, 0
2, 65580, Note_on_c, 0, 94, 96
2, 65640, Note_on_c, 0, 94, 0
2, 65640, Note_on_c, 0, 97, 96
2, 66000, Note_on_c, 0, 97, 0
2, 66000, Control_c, 0, 64, 0
2, 66000, Note_on_c, 0, 64, 122
2, 66240, Note_on_c, 0, 64, 0
2, 66240, Note_on_c, 0, 61, 122
2, 66480, Note_on_c, 0, 61, 0
2, 66480, Note_on_c, 0, 60, 122
2, 66720, Note_on_c, 0, 60, 0
2, 66720, Control_c, 0, 64, 127
2, 66720, Note_on_c, 0, 49, 96
2, 66720, Note_on_c, 0, 52, 96
2, 66720, Note_on_c, 0, 58, 96
2, 66960, Note_on_c, 0, 58, 0
2, 66960, Note_on_c, 0, 52, 0
2, 66960, Note_on_c, 0, 49, 0
2, 66960, Note_on_c, 0, 58, 96
2, 66999, Note_on_c, 0, 58, 0
2, 66999, Note_on_c, 0, 61, 96
2, 67040, Note_on_c, 0, 61, 0
2, 67040, Note_on_c, 0, 64, 96
2, 67080, Note_on_c, 0, 64, 0
2, 67080, Note_on_c, 0, 67, 96
2, 67119, Note_on_c, 0, 67, 0
2, 67119, Note_on_c, 0, 70, 96
2, 67160, Note_on_c, 0, 70, 0
2, 67160, Note_on_c, 0, 73, 96
2, 67200, Note_on_c, 0, 73, 0
2, 67200, Note_on_c, 0, 76, 96
2, 67239, Note_on_c, 0, 76, 0
2, 67239, Note_on_c, 0, 79, 96
2, 67280, Note_on_c, 0, 79, 0
2, 67280, Note_on_c, 0, 82, 96
2, 67320, Note_on_c, 0, 82, 0
2, 67320, Note_on_c, 0, 85, 96
2, 67359, Note_on_c, 0, 85, 0
2, 67359, Note_on_c, 0, 88, 96
2, 67400, Note_on_c, 0, 88, 0
2, 67400, Note_on_c, 0, 91, 96
2, 67440, Note_on_c, 0, 91, 0
2, 67440, Note_on_c, 0, 94, 96
2, 67500, Note_on_c, 0, 94, 0
2, 67500, Note_on_c, 0, 97, 96
2, 67560, Note_on_c, 0, 97, 0
2, 67560, Note_on_c, 0, 100, 96
2, 67920, Note_on_c, 0, 100, 0
2, 67920, Control_c, 0, 64, 0
2, 67920, Note_on_c, 0, 67, 122
2, 68160, Note_on_c, 0, 67, 0
2, 68160, Note_on_c, 0, 64, 122
2, 68400, Note_on_c, 0, 64, 0
2, 68400, Note_on_c, 0, 63, 122
2, 68640, Note_on_c, 0, 63, 0
2, 68640, Control_c, 0, 64, 127
2, 68640, Note_on_c, 0, 52, 96
2, 68640, Note_on_c, 0, 55, 96
2, 68640, Note_on_c, 0, 61, 96
2, 68790, Note_on_c, 0, 64, 96
2, 68820, Note_on_c, 0, 67, 96
2, 68850, Note_on_c, 0, 73, 96
2, 68880, Note_on_c, 0, 61, 0
2, 68880, Note_on_c, 0, 52, 0
2, 68880, Note_on_c, 0, 55, 0
2, 68880, Note_on_c, 0, 76, 96
2, 69030, Note_on_c, 0, 67, 96
2, 69060, Note_on_c, 0, 73, 96
2, 69090, Note_on_c, 0, 76, 96
2, 69120, Note_on_c, 0, 76, 0
2, 69120, Note_on_c, 0, 64, 0
2, 69120, Note_on_c, 0, 73, 0
2, 69120, Note_on_c, 0, 67, 0
2, 69120, Note_on_c, 0, 79, 96
2, 69270, Note_on_c, 0, 73, 96
2, 69300, Note_on_c, 0, 76, 96
2, 69330, Note_on_c, 0, 79, 96
2, 69360, Note_on_c, 0, 79, 0
2, 69360, Note_on_c, 0, 76, 0
2, 69360, Note_on_c, 0, 73, 0
2, 69360, Note_on_c, 0, 67, 0
2, 69360, Note_on_c, 0, 85, 96
2, 69510, Note_on_c, 0, 76, 96
2, 69540, Note_on_c, 0, 79, 96
2, 69570, Note_on_c, 0, 85, 96
2, 69600, Note_on_c, 0, 85, 0
2, 69600, Note_on_c, 0, 79, 0
2, 69600, Note_on_c, 0, 76, 0
2, 69600, Note_on_c, 0, 73, 0
2, 69600, Note_on_c, 0, 88, 96
2, 69750, Note_on_c, 0, 79, 96
2, 69780, Note_on_c, 0, 85, 96
2, 69810, Note_on_c, 0, 88, 96
2, 69840, Note_on_c, 0, 88, 0
2, 69840, Note_on_c, 0, 85, 0
2, 69840, Note_on_c, 0, 79, 0
2, 69840, Note_on_c, 0, 76, 0
2, 69840, Note_on_c, 0, 91, 96
2, 69990, Note_on_c, 0, 73, 96
2, 70020, Note_on_c, 0, 76, 96
2, 70050, Note_on_c, 0, 79, 96
2, 70080, Note_on_c, 0, 91, 0
2, 70080, Note_on_c, 0, 88, 0
2, 70080, Note_on_c, 0, 85, 0
2, 70080, Note_on_c, 0, 79, 0
2, 70080, Note_on_c, 0, 97, 96
2, 70230, Note_on_c, 0, 88, 96
2, 70260, Note_on_c, 0, 91, 96
2, 70290, Note_on_c, 0, 97, 96
2, 70320, Note_on_c, 0, 91, 0
2, 70320, Note_on_c, 0, 76, 0
2, 70320, Note_on_c, 0, 73, 0
2, 70320, Note_on_c, 0, 97, 0
2, 70320, Note_on_c, 0, 100, 96
2, 70560, Note_on_c, 0, 100, 0
2, 70560, Note_on_c, 0, 97, 0
2, 70560, Note_on_c, 0, 88, 0
2, 70560, Note_on_c, 0, 79, 0
2, 70560, Note_on_c, 0, 91, 96
2, 70560, Note_on_c, 0, 97, 96
2, 70560, Note_on_c, 0, 100, 96
2, 70560, Note_on_c, 0, 103, 96
2, 71040, Control_c, 0, 64, 0
2, 71160, Note_on_c, 0, 103, 0
2, 71160, Note_on_c, 0, 91, 0
2, 71160, Note_on_c, 0, 97, 0
2, 71160, Note_on_c, 0, 100, 0
2, 71160, Control_c, 0, 64, 127
2, 71160, Note_on_c, 0, 91, 57
2, 71160, Note_on_c, 0, 100, 57
2, 71199, Note_on_c, 0, 100, 0
2, 71199, Note_on_c, 0, 91, 0
2, 71199, Note_on_c, 0, 90, 57
2, 71199, Note_on_c, 0, 102, 57
2, 71240, Note_on_c, 0, 102, 0
2, 71240, Note_on_c, 0, 90, 0
2, 71240, Note_on_c, 0, 88, 57
2, 71240, Note_on_c, 0, 103, 57
2, 71280, Note_on_c, 0, 103, 0
2, 71280, Note_on_c, 0, 88, 0
2, 71280, Note_on_c, 0, 88, 57
2, 71280, Note_on_c, 0, 97, 57
2, 71319, Note_on_c, 0, 97, 0
2, 71319, Note_on_c, 0, 88, 0
2, 71319, Note_on_c, 0, 87, 57
2, 71319, Note_on_c, 0, 99, 57
2, 71360, Note_on_c, 0, 99, 0
2, 71360, Note_on_c, 0, 87, 0
2, 71360, Note_on_c, 0, 85, 57
2, 71360, Note_on_c, 0, 100, 57
2, 71400, Note_on_c, 0, 100, 0
2, 71400, Note_on_c, 0, 85, 0
2, 71400, Note_on_c, 0, 85, 57
2, 71400, Note_on_c, 0, 94, 57
2, 71439, Note_on_c, 0, 94, 0
2, 71439, Note_on_c, 0, 85, 0
2, 71439, Note_on_c, 0, 84, 57
2, 71439, Note_on_c, 0, 96, 57
2, 71480, Note_on_c, 0, 96, 0
2, 71480, Note_on_c, 0, 84, 0
2, 71480, Note_on_c, 0, 82, 57
2, 71480, Note_on_c, 0, 97, 57
2, 71520, Note_on_c, 0, 97, 0
2, 71520, Note_on_c, 0, 82, 0
2, 71520, Note_on_c, 0, 82, 57
2, 71520, Note_on_c, 0, 91, 57
2, 71559, Note_on_c, 0, 91, 0
2, 71559, Note_on_c, 0, 82, 0
2, 71559, Note_on_c, 0, 80, 57
2, 71559, Note_on_c, 0, 92, 57
2, 71600, Note_on_c, 0, 92, 0
2, 71600, Note_on_c, 0, 80, 0
2, 71600, Note_on_c, 0, 79, 57
2, 71600, Note_on_c, 0, 94, 57
2, 71640, Note_on_c, 0, 94, 0
2, 71640, Note_on_c, 0, 79, 0
2, 71640, Note_on_c, 0, 79, 57
2, 71640, Note_on_c, 0, 88, 57
2, 71679, Note_on_c, 0, 88, 0
2, 71679, Note_on_c, 0, 79, 0
2, 71679, Note_on_c, 0, 78, 57
2, 71679, Note_on_c, 0, 90, 57
2, 71720, Note_on_c, 0, 90, 0
2, 71720, Note_on_c, 0, 78, 0
2, 71720, Note_on_c, 0, 76, 57
2, 71720, Note_on_c, 0, 91, 57
2, 71760, Note_on_c, 0, 91, 0
2, 71760, Note_on_c, 0, 76, 0
2, 71760, Note_on_c, 0, 76, 70
2, 71760, Note_on_c, 0, 85, 70
2, 71799, Note_on_c, 0, 85, 0
2, 71799, Note_on_c, 0, 76, 0
2, 71799, Note_on_c, 0, 75, 70
2, 71799, Note_on_c, 0, 87, 70
2, 71840, Note_on_c, 0, 87, 0
2, 71840, Note_on_c, 0, 75, 0
2, 71840, Note_on_c, 0, 73, 70
2, 71840, Note_on_c, 0, 88, 70
2, 71880, Note_on_c, 0, 88, 0
2, 71880, Note_on_c, 0, 73, 0
2, 71880, Note_on_c, 0, 73, 70
2, 71880, Note_on_c, 0, 82, 70
2, 71919, Note_on_c, 0, 82, 0
2, 71919, Note_on_c, 0, 73, 0
2, 71919, Note_on_c, 0, 72, 70
2, 71919, Note_on_c, 0, 84, 70
2, 71960, Note_on_c, 0, 84, 0
2, 71960, Note_on_c, 0, 72, 0
2, 71960, Note_on_c, 0, 70, 70
2, 71960, Note_on_c, 0, 85, 70
2, 72000, Note_on_c, 0, 85, 0
2, 72000, Note_on_c, 0, 70, 0
2, 72000, Note_on_c, 0, 70, 70
2, 72000, Note_on_c, 0, 79, 70
2, 72039, Note_on_c, 0, 79, 0
2, 72039, Note_on_c, 0, 70, 0
2, 72039, Note_on_c, 0, 68, 70
2, 72039, Note_on_c, 0, 80, 70
2, 72080, Note_on_c, 0, 80, 0
2, 72080, Note_on_c, 0, 68, 0
2, 72080, Note_on_c, 0, 67, 70
2, 72080, Note_on_c, 0, 82, 70
2, 72120, Note_on_c, 0, 82, 0
2, 72120, Note_on_c, 0, 67, 0
2, 72120, Note_on_c, 0, 67, 70
2, 72120, Note_on_c, 0, 76, 70
2, 72159, Note_on_c, 0, 76, 0
2, 72159, Note_on_c, 0, 67, 0
2, 72159, Note_on_c, 0, 66, 70
2, 72159, Note_on_c, 0, 78, 70
2, 72200, Note_on_c, 0, 78, 0
2, 72200, Note_on_c, 0, 66, 0
2, 72200, Note_on_c, 0, 64, 70
2, 72200, Note_on_c, 0, 81, 70
2, 72240, Note_on_c, 0, 81, 0
2, 72240, Note_on_c, 0, 64, 0
2, 72240, Note_on_c, 0, 64, 70
2, 72240, Note_on_c, 0, 73, 70
2, 72279, Note_on_c, 0, 73, 0
2, 72279, Note_on_c, 0, 64, 0
2, 72279, Note_on_c, 0, 63, 70
2, 72279, Note_on_c, 0, 75, 70
2, 72320, Note_on_c, 0, 75, 0
2, 72320, Note_on_c, 0, 63, 0
2, 72320, Note_on_c, 0, 61, 70
2, 72320, Note_on_c, 0, 76, 70
2, 72360, Note_on_c, 0, 76, 0
2, 72360, Note_on_c, 0, 61, 0
2, 72360, Note_on_c, 0, 61, 70
2, 72360, Note_on_c, 0, 70, 70
2, 72399, Note_on_c, 0, 70, 0
2, 72399, Note_on_c, 0, 61, 0
2, 72399, Note_on_c, 0, 60, 70
2, 72399, Note_on_c, 0, 72, 70
2, 72440, Note_on_c, 0, 72, 0
2, 72440, Note_on_c, 0, 60, 0
2, 72440, Note_on_c, 0, 58, 70
2, 72440, Note_on_c, 0, 73, 70
2, 72480, Note_on_c, 0, 73, 0
2, 72480, Note_on_c, 0, 58, 0
2, 72480, Note_on_c, 0, 58, 70
2, 72480, Note_on_c, 0, 67, 70
2, 72519, Note_on_c, 0, 67, 0
2, 72519, Note_on_c, 0, 58, 0
2, 72519, Note_on_c, 0, 56, 70
2, 72519, Note_on_c, 0, 68, 70
2, 72560, Note_on_c, 0, 68, 0
2, 72560, Note_on_c, 0, 56, 0
2, 72560, Note_on_c, 0, 55, 70
2, 72560, Note_on_c, 0, 70, 70
2, 72600, Note_on_c, 0, 70, 0
2, 72600, Note_on_c, 0, 55, 0
2, 72600, Note_on_c, 0, 55, 70
2, 72600, Note_on_c, 0, 64, 70
2, 72639, Note_on_c, 0, 64, 0
2, 72639, Note_on_c, 0, 55, 0
2, 72639, Note_on_c, 0, 54, 70
2, 72639, Note_on_c, 0, 66, 70
2, 72680, Note_on_c, 0, 66, 0
2, 72680, Note_on_c, 0, 54, 0
2, 72680, Note_on_c, 0, 52, 70
2, 72680, Note_on_c, 0, 69, 70
2, 72720, Note_on_c, 0, 69, 0
2, 72720, Note_on_c, 0, 52, 0
2, 72720, Note_on_c, 0, 52, 70
2, 72720, Note_on_c, 0, 61, 70
2, 72759, Note_on_c, 0, 61, 0
2, 72759, Note_on_c, 0, 52, 0
2, 72759, Note_on_c, 0, 51, 70
2, 72759, Note_on_c, 0, 63, 70
2, 72800, Note_on_c, 0, 63, 0
2, 72800, Note_on_c, 0, 51, 0
2, 72800, Note_on_c, 0, 49, 70
2, 72800, Note_on_c, 0, 64, 70
2, 72840, Note_on_c, 0, 64, 0
2, 72840, Note_on_c, 0, 49, 0
2, 72840, Note_on_c, 0, 49, 83
2, 72840, Note_on_c, 0, 58, 83
2, 72879, Note_on_c, 0, 58, 0
2, 72879, Note_on_c, 0, 49, 0
2, 72879, Note_on_c, 0, 48, 83
2, 72879, Note_on_c, 0, 60, 83
2, 72920, Note_on_c, 0, 60, 0
2, 72920, Note_on_c, 0, 48, 0
2, 72920, Note_on_c, 0, 46, 83
2, 72920, Note_on_c, 0, 61, 83
2, 72960, Note_on_c, 0, 61, 0
2, 72960, Note_on_c, 0, 46, 0
2, 72960, Note_on_c, 0, 46, 83
2, 72960, Note_on_c, 0, 55, 83
2, 72999, Note_on_c, 0, 55, 0
2, 72999, Note_on_c, 0, 46, 0
2, 72999, Note_on_c, 0, 44, 83
2, 72999, Note_on_c, 0, 56, 83
2, 73040, Note_on_c, 0, 56, 0
2, 73040, Note_on_c, 0, 44, 0
2, 73040, Note_on_c, 0, 43, 83
2, 73040, Note_on_c, 0, 58, 83
2, 73080, Note_on_c, 0, 58, 0
2, 73080, Note_on_c, 0, 43, 0
2, 73080, Note_on_c, 0, 43, 83
2, 73080, Note_on_c, 0, 52, 83
2, 73119, Note_on_c, 0, 52, 0
2, 73119, Note_on_c, 0, 43, 0
2, 73119, Note_on_c, 0, 42, 83
2, 73119, Note_on_c, 0, 54, 83
2, 73160, Note_on_c, 0, 54, 0
2, 73160, Note_on_c, 0, 42, 0
2, 73160, Note_on_c, 0, 40, 83
2, 73160, Note_on_c, 0, 57, 83
2, 73200, Note_on_c, 0, 57, 0
2, 73200, Note_on_c, 0, 40, 0
2, 73200, Note_on_c, 0, 40, 83
2, 73200, Note_on_c, 0, 49, 83
2, 73239, Note_on_c, 0, 49, 0
2, 73239, Note_on_c, 0, 40, 0
2, 73239, Note_on_c, 0, 39, 83
2, 73239, Note_on_c, 0, 51, 83
2, 73280, Note_on_c, 0, 51, 0
2, 73280, Note_on_c, 0, 39, 0
2, 73280, Note_on_c, 0, 37, 83
2, 73280, Note_on_c, 0, 52, 83
2, 73320, Note_on_c, 0, 52, 0
2, 73320, Note_on_c, 0, 37, 0
2, 73320, Control_c, 0, 64, 0
2, 73320, Note_on_c, 0, 42, 122
2, 73320, Note_on_c, 0, 51, 122
2, 73800, Note_on_c, 0, 51, 0
2, 73800, Note_on_c, 0, 42, 0
2, 73800, Control_c, 0, 64, 127
2, 73800, Note_on_c, 0, 45, 96
2, 73839, Note_on_c, 0, 45, 0
2, 73839, Note_on_c, 0, 49, 96
2, 73880, Note_on_c, 0, 49, 0
2, 73880, Note_on_c, 0, 51, 96
2, 73920, Note_on_c, 0, 51, 0
2, 73920, Note_on_c, 0, 54, 96
2, 73959, Note_on_c, 0, 54, 0
2, 73959, Note_on_c, 0, 57, 96
2, 74000, Note_on_c, 0, 57, 0
2, 74000, Note_on_c, 0, 61, 96
2, 74040, Note_on_c, 0, 61, 0
2, 74040, Note_on_c, 0, 63, 96
2, 74079, Note_on_c, 0, 63, 0
2, 74079, Note_on_c, 0, 66, 96
2, 74120, Note_on_c, 0, 66, 0
2, 74120, Note_on_c, 0, 69, 96
2, 74160, Note_on_c, 0, 69, 0
2, 74160, Note_on_c, 0, 73, 96
2, 74199, Note_on_c, 0, 73, 0
2, 74199, Note_on_c, 0, 75, 96
2, 74240, Note_on_c, 0, 75, 0
2, 74240, Note_on_c, 0, 78, 96
2, 74280, Note_on_c, 0, 78, 0
2, 74280, Note_on_c, 0, 81, 96
2, 74319, Note_on_c, 0, 81, 0
2, 74319, Note_on_c, 0, 85, 96
2, 74360, Note_on_c, 0, 85, 0
2, 74360, Note_on_c, 0, 87, 96
2, 74400, Note_on_c, 0, 87, 0
2, 74400, Note_on_c, 0, 90, 96
2, 74439, Note_on_c, 0, 90, 0
2, 74439, Note_on_c, 0, 93, 96
2, 74480, Note_on_c, 0, 93, 0
2, 74480, Note_on_c, 0, 97, 96
2, 74520, Note_on_c, 0, 97, 0
2, 74520, Note_on_c, 0, 99, 96
2, 74580, Note_on_c, 0, 99, 0
2, 74580, Note_on_c, 0, 102, 96
2, 74640, Note_on_c, 0, 102, 0
2, 74640, Note_on_c, 0, 105, 96
2, 75120, Note_on_c, 0, 105, 0
2, 75120, Control_c, 0, 64, 0
2, 75120, Note_on_c, 0, 57, 122
2, 75360, Note_on_c, 0, 57, 0
2, 75360, Note_on_c, 0, 54, 122
2, 75600, Note_on_c, 0, 54, 0
2, 75600, Note_on_c, 0, 52, 122
2, 75840, Note_on_c, 0, 52, 0
2, 75840, Control_c, 0, 64, 127
2, 75840, Note_on_c, 0, 51, 96
2, 76080, Note_on_c, 0, 51, 0
2, 76230, Note_on_c, 0, 69, 96
2, 76260, Note_on_c, 0, 73, 96
2, 76290, Note_on_c, 0, 78, 96
2, 76320, Note_on_c, 0, 81, 96
2, 76560, Note_on_c, 0, 81, 0
2, 76560, Note_on_c, 0, 69, 0
2, 76560, Note_on_c, 0, 73, 0
2, 76560, Note_on_c, 0, 78, 0
2, 76560, Note_on_c, 0, 61, 96
2, 76800, Note_on_c, 0, 61, 0
2, 76800, Note_on_c, 0, 57, 96
2, 77040, Note_on_c, 0, 57, 0
2, 77040, Control_c, 0, 64, 0
2, 77040, Note_on_c, 0, 56, 96
2, 77280, Note_on_c, 0, 56, 0
2, 77280, Control_c, 0, 64, 127
2, 77280, Note_on_c, 0, 54, 96
2, 77520, Note_on_c, 0, 54, 0
2, 77670, Note_on_c, 0, 72, 96
2, 77700, Note_on_c, 0, 75, 96
2, 77730, Note_on_c, 0, 81, 96
2, 77760, Note_on_c, 0, 84, 96
2, 78000, Note_on_c, 0, 84, 0
2, 78000, Note_on_c, 0, 72, 0
2, 78000, Note_on_c, 0, 75, 0
2, 78000, Note_on_c, 0, 81, 0
2, 78000, Note_on_c, 0, 63, 96
2, 78240, Note_on_c, 0, 63, 0
2, 78240, Note_on_c, 0, 60, 96
2, 78480, Note_on_c, 0, 60, 0
2, 78480, Control_c, 0, 64, 0
2, 78480, Note_on_c, 0, 58, 96
2, 78720, Note_on_c, 0, 58, 0
2, 78720, Note_on_c, 0, 57, 96
2, 78960, Note_on_c, 0, 57, 0
2, 79140, Note_on_c, 0, 75, 96
2, 79140, Note_on_c, 0, 78, 96
2, 79140, Note_on_c, 0, 84, 96
2, 79140, Note_on_c, 0, 87, 96
2, 79200, Note_on_c, 0, 87, 0
2, 79200, Note_on_c, 0, 75, 0
2, 79200, Note_on_c, 0, 78, 0
2, 79200, Note_on_c, 0, 84, 0
2, 79200, Note_on_c, 0, 75, 96
2, 79200, Note_on_c, 0, 78, 96
2, 79200, Note_on_c, 0, 84, 96
2, 79200, Note_on_c, 0, 87, 96
2, 79680, Note_on_c, 0, 87, 0
2, 79680, Note_on_c, 0, 75, 0
2, 79680, Note_on_c, 0, 78, 0
2, 79680, Note_on_c, 0, 84, 0
2, 79920, Note_on_c, 0, 66, 96
2, 79967, Note_on_c, 0, 66, 0
2, 80160, Note_on_c, 0, 63, 96
2, 80207, Note_on_c, 0, 63, 0
2, 80400, Note_on_c, 0, 61, 96
2, 80447, Note_on_c, 0, 61, 0
2, 80640, Note_on_c, 0, 60, 96
2, 80687, Note_on_c, 0, 60, 0
2, 81060, Note_on_c, 0, 75, 96
2, 81060, Note_on_c, 0, 81, 96
2, 81060, Note_on_c, 0, 84, 96
2, 81060, Note_on_c, 0, 87, 96
2, 81120, Note_on_c, 0, 87, 0
2, 81120, Note_on_c, 0, 75, 0
2, 81120, Note_on_c, 0, 81, 0
2, 81120, Note_on_c, 0, 84, 0
2, 81120, Note_on_c, 0, 75, 96
2, 81120, Note_on_c, 0, 81, 96
2, 81120, Note_on_c, 0, 84, 96
2, 81120, Note_on_c, 0, 87, 96
2, 81600, Note_on_c, 0, 87, 0
2, 81600, Note_on_c, 0, 75, 0
2, 81600, Note_on_c, 0, 81, 0
2, 81600, Note_on_c, 0, 84, 0
2, 81840, Note_on_c, 0, 69, 96
2, 81887, Note_on_c, 0, 69, 0
2, 82080, Note_on_c, 0, 66, 96
2, 82127, Note_on_c, 0, 66, 0
2, 82320, Note_on_c, 0, 65, 96
2, 82367, Note_on_c, 0, 65, 0
2, 82560, Note_on_c, 0, 63, 96
2, 82607, Note_on_c, 0, 63, 0
2, 82980, Note_on_c, 0, 78, 96
2, 82980, Note_on_c, 0, 81, 96
2, 82980, Note_on_c, 0, 84, 96
2, 82980, Note_on_c, 0, 90, 96
2, 83040, Note_on_c, 0, 90, 0
2, 83040, Note_on_c, 0, 78, 0
2, 83040, Note_on_c, 0, 81, 0
2, 83040, Note_on_c, 0, 84, 0
2, 83040, Note_on_c, 0, 78, 96
2, 83040, Note_on_c, 0, 81, 96
2, 83040, Note_on_c, 0, 84, 96
2, 83040, Note_on_c, 0, 90, 96
2, 83520, Note_on_c, 0, 90, 0
2, 83520, Note_on_c, 0, 78, 0
2, 83520, Note_on_c, 0, 81, 0
2, 83520, Note_on_c, 0, 84, 0
2, 83760, Note_on_c, 0, 60, 96
2, 83760, Note_on_c, 0, 72, 96
2, 83807, Note_on_c, 0, 72, 0
2, 83807, Note_on_c, 0, 60, 0
2, 84000, Note_on_c, 0, 57, 96
2, 84000, Note_on_c, 0, 69, 96
2, 84047, Note_on_c, 0, 69, 0
2, 84047, Note_on_c, 0, 57, 0
2, 84240, Note_on_c, 0, 56, 96
2, 84240, Note_on_c, 0, 68, 96
2, 84287, Note_on_c, 0, 68, 0
2, 84287, Note_on_c, 0, 56, 0
2, 84480, Note_on_c, 0, 54, 96
2, 84480, Note_on_c, 0, 66, 96
2, 84576, Note_on_c, 0, 66, 0
2, 84576, Note_on_c, 0, 54, 0
2, 85680, Note_on_c, 0, 66, 96
2, 85680, Note_on_c, 0, 78, 96
2, 85727, Note_on_c, 0, 78, 0
2, 85727, Note_on_c, 0, 66, 0
2, 85920, Note_on_c, 0, 63, 96
2, 85920, Note_on_c, 0, 75, 96
2, 85967, Note_on_c, 0, 75, 0
2, 85967, Note_on_c, 0, 63, 0
2, 86160, Note_on_c, 0, 61, 96
2, 86160, Note_on_c, 0, 73, 96
2, 86207, Note_on_c, 0, 73, 0
2, 86207, Note_on_c, 0, 61, 0
2, 86400, Note_on_c, 0, 60, 96
2, 86400, Note_on_c, 0, 72, 96
2, 86496, Note_on_c, 0, 72, 0
2, 86496, Note_on_c, 0, 60, 0
2, 87600, Note_on_c, 0, 72, 96
2, 87600, Note_on_c, 0, 84, 96
2, 87647, Note_on_c, 0, 84, 0
2, 87647, Note_on_c, 0, 72, 0
2, 87840, Note_on_c, 0, 69, 96
2, 87840, Note_on_c, 0, 81, 96
2, 87887, Note_on_c, 0, 81, 0
2, 87887, Note_on_c, 0, 69, 0
2, 88080, Note_on_c, 0, 68, 96
2, 88080, Note_on_c, 0, 80, 96
2, 88127, Note_on_c, 0, 80, 0
2, 88127, Note_on_c, 0, 68, 0
2, 88320, Note_on_c, 0, 66, 96
2, 88320, Note_on_c, 0, 78, 96
2, 88416, Note_on_c, 0, 78, 0
2, 88416, Note_on_c, 0, 66, 0
2, 89520, Note_on_c, 0, 78, 70
2, 89520, Note_on_c, 0, 90, 70
2, 89760, Note_on_c, 0, 90, 0
2, 89760, Note_on_c, 0, 78, 0
2, 89760, Note_on_c, 0, 75, 70
2, 89760, Note_on_c, 0, 87, 70
2, 90000, Note_on_c, 0, 87, 0
2, 90000, Note_on_c, 0, 75, 0
2, 90000, Note_on_c, 0, 73, 70
2, 90000, Note_on_c, 0, 85, 70
2, 90240, Note_on_c, 0, 85, 0
2, 90240, Note_on_c, 0, 73, 0
2, 90240, Control_c, 0, 64, 127
2, 90240, Note_on_c, 0, 72, 70
2, 90240, Note_on_c, 0, 84, 70
2, 90480, Note_on_c, 0, 84, 0
2, 90480, Note_on_c, 0, 72, 0
2, 90480, Note_on_c, 0, 81, 70
2, 90480, Note_on_c, 0, 93, 70
2, 90720, Note_on_c, 0, 93, 0
2, 90720, Note_on_c, 0, 81, 0
2, 90720, Note_on_c, 0, 78, 70
2, 90720, Note_on_c, 0, 90, 70
2, 90960, Note_on_c, 0, 90, 0
2, 90960, Note_on_c, 0, 78, 0
2, 90960, Note_on_c, 0, 75, 70
2, 90960, Note_on_c, 0, 87, 70
2, 91200, Note_on_c, 0, 87, 0
2, 91200, Note_on_c, 0, 75, 0
2, 91200, Note_on_c, 0, 72, 70
2, 91200, Note_on_c, 0, 84, 70
2, 91440, Note_on_c, 0, 84, 0
2, 91440, Note_on_c, 0, 72, 0
2, 91440, Control_c, 0, 64, 0
2, 91440, Note_on_c, 0, 70, 70
2, 91440, Note_on_c, 0, 82, 70
2, 91680, Note_on_c, 0, 82, 0
2, 91680, Note_on_c, 0, 70, 0
2, 91680, Note_on_c, 0, 69, 70
2, 91680, Note_on_c, 0, 81, 70
2, 91920, Note_on_c, 0, 81, 0
2, 91920, Note_on_c, 0, 69, 0
2, 91920, Note_on_c, 0, 68, 70
2, 91920, Note_on_c, 0, 80, 70
2, 92160, Note_on_c, 0, 80, 0
2, 92160, Note_on_c, 0, 68, 0
2, 92160, Note_on_c, 0, 67, 70
2, 92160, Note_on_c, 0, 79, 70
2, 92400, Note_on_c, 0, 79, 0
2, 92400, Note_on_c, 0, 67, 0
2, 93300, Control_c, 0, 64, 127
2, 93300, Note_on_c, 0, 61, 70
2, 93300, Note_on_c, 0, 65, 70
2, 93300, Note_on_c, 0, 68, 70
2, 93300, Note_on_c, 0, 73, 70
2, 93360, Note_on_c, 0, 73, 0
2, 93360, Note_on_c, 0, 61, 0
2, 93360, Note_on_c, 0, 65, 0
2, 93360, Note_on_c, 0, 68, 0
2, 93360, Note_on_c, 0, 61, 70
2, 93360, Note_on_c, 0, 65, 70
2, 93360, Note_on_c, 0, 68, 70
2, 93360, Note_on_c, 0, 73, 70
2, 93540, Note_on_c, 0, 73, 0
2, 93540, Note_on_c, 0, 61, 0
2, 93540, Note_on_c, 0, 65, 0
2, 93540, Note_on_c, 0, 68, 0
2, 93540, Note_on_c, 0, 65, 70
2, 93540, Note_on_c, 0, 68, 70
2, 93540, Note_on_c, 0, 73, 70
2, 93540, Note_on_c, 0, 77, 70
2, 93600, Note_on_c, 0, 77, 0
2, 93600, Note_on_c, 0, 65, 0
2, 93600, Note_on_c, 0, 68, 0
2, 93600, Note_on_c, 0, 73, 0
2, 93600, Note_on_c, 0, 65, 70
2, 93600, Note_on_c, 0, 68, 70
2, 93600, Note_on_c, 0, 73, 70
2, 93600, Note_on_c, 0, 77, 70
2, 93780, Note_on_c, 0, 77, 0
2, 93780, Note_on_c, 0, 65, 0
2, 93780, Note_on_c, 0, 68, 0
2, 93780, Note_on_c, 0, 73, 0
2, 93780, Note_on_c, 0, 68, 70
2, 93780, Note_on_c, 0, 73, 70
2, 93780, Note_on_c, 0, 77, 70
2, 93780, Note_on_c, 0, 80, 70
2, 93840, Note_on_c, 0, 80, 0
2, 93840, Note_on_c, 0, 68, 0
2, 93840, Note_on_c, 0, 73, 0
2, 93840, Note_on_c, 0, 77, 0
2, 93840, Note_on_c, 0, 68, 70
2, 93840, Note_on_c, 0, 73, 70
2, 93840, Note_on_c, 0, 77, 70
2, 93840, Note_on_c, 0, 80, 70
2, 94020, Note_on_c, 0, 80, 0
2, 94020, Note_on_c, 0, 68, 0
2, 94020, Note_on_c, 0, 73, 0
2, 94020, Note_on_c, 0, 77, 0
2, 94020, Note_on_c, 0, 73, 70
2, 94020, Note_on_c, 0, 77, 70
2, 94020, Note_on_c, 0, 80, 70
2, 94020, Note_on_c, 0, 85, 70
2, 94080, Note_on_c, 0, 85, 0
2, 94080, Note_on_c, 0, 73, 0
2, 94080, Note_on_c, 0, 77, 0
2, 94080, Note_on_c, 0, 80, 0
2, 94080, Note_on_c, 0, 73, 70
2, 94080, Note_on_c, 0, 77, 70
2, 94080, Note_on_c, 0, 80, 70
2, 94080, Note_on_c, 0, 85, 70
2, 94260, Note_on_c, 0, 85, 0
2, 94260, Note_on_c, 0, 73, 0
2, 94260, Note_on_c, 0, 77, 0
2, 94260, Note_on_c, 0, 80, 0
2, 94260, Note_on_c, 0, 77, 70
2, 94260, Note_on_c, 0, 80, 70
2, 94260, Note_on_c, 0, 85, 70
2, 94260, Note_on_c, 0, 89, 70
2, 94320, Note_on_c, 0, 89, 0
2, 94320, Note_on_c, 0, 77, 0
2, 94320, Note_on_c, 0, 80, 0
2, 94320, Note_on_c, 0, 85, 0
2, 94320, Control_c, 0, 64, 0
2, 94320, Note_on_c, 0, 77, 70
2, 94320, Note_on_c, 0, 80, 70
2, 94320, Note_on_c, 0, 85, 70
2, 94320, Note_on_c, 0, 89, 70
2, 94560, Note_on_c, 0, 89, 0
2, 94560, Note_on_c, 0, 77, 0
2, 94560, Note_on_c, 0, 80, 0
2, 94560, Note_on_c, 0, 85, 0
2, 94740, Control_c, 0, 64, 127
2, 94740, Note_on_c, 0, 61, 83
2, 94740, Note_on_c, 0, 65, 83
2, 94740, Note_on_c, 0, 68, 83
2, 94740, Note_on_c, 0, 73, 83
2, 94800, Note_on_c, 0, 73, 0
2, 94800, Note_on_c, 0, 61, 0
2, 94800, Note_on_c, 0, 65, 0
2, 94800, Note_on_c, 0, 68, 0
2, 94800, Note_on_c, 0, 61, 83
2, 94800, Note_on_c, 0, 65, 83
2, 94800, Note_on_c, 0, 68, 83
2, 94800, Note_on_c, 0, 73, 83
2, 94980, Note_on_c, 0, 73, 0
2, 94980, Note_on_c, 0, 61, 0
2, 94980, Note_on_c, 0, 65, 0
2, 94980, Note_on_c, 0, 68, 0
2, 94980, Note_on_c, 0, 65, 83
2, 94980, Note_on_c, 0, 68, 83
2, 94980, Note_on_c, 0, 73, 83
2, 94980, Note_on_c, 0, 77, 83
2, 95040, Note_on_c, 0, 77, 0
2, 95040, Note_on_c, 0, 65, 0
2, 95040, Note_on_c, 0, 68, 0
2, 95040, Note_on_c, 0, 73, 0
2, 95040, Note_on_c, 0, 65, 83
2, 95040, Note_on_c, 0, 68, 83
2, 95040, Note_on_c, 0, 73, 83
2, 95040, Note_on_c, 0, 77, 83
2, 95220, Note_on_c, 0, 77, 0
2, 95220, Note_on_c, 0, 65, 0
2, 95220, Note_on_c, 0, 68, 0
2, 95220, Note_on_c, 0, 73, 0
2, 95220, Note_on_c, 0, 68, 83
2, 95220, Note_on_c, 0, 73, 83
2, 95220, Note_on_c, 0, 77, 83
2, 95220, Note_on_c, 0, 80, 83
2, 95280, Note_on_c, 0, 80, 0
2, 95280, Note_on_c, 0, 68, 0
2, 95280, Note_on_c, 0, 73, 0
2, 95280, Note_on_c, 0, 77, 0
2, 95280, Note_on_c, 0, 68, 83
2, 95280, Note_on_c, 0, 73, 83
2, 95280, Note_on_c, 0, 77, 83
2, 95280, Note_on_c, 0, 80, 83
2, 95460, Note_on_c, 0, 80, 0
2, 95460, Note_on_c, 0, 68, 0
2, 95460, Note_on_c, 0, 73, 0
2, 95460, Note_on_c, 0, 77, 0
2, 95460, Note_on_c, 0, 73, 83
2, 95460, Note_on_c, 0, 77, 83
2, 95460, Note_on_c, 0, 80, 83
2, 95460, Note_on_c, 0, 85, 83
2, 95520, Note_on_c, 0, 85, 0
2, 95520, Note_on_c, 0, 73, 0
2, 95520, Note_on_c, 0, 77, 0
2, 95520, Note_on_c, 0, 80, 0
2, 95520, Note_on_c, 0, 73, 83
2, 95520, Note_on_c, 0, 77, 83
2, 95520, Note_on_c, 0, 80, 83
2, 95520, Note_on_c, 0, 85, 83
2, 95700, Note_on_c, 0, 85, 0
2, 95700, Note_on_c, 0, 73, 0
2, 95700, Note_on_c, 0, 77, 0
2, 95700, Note_on_c, 0, 80, 0
2, 95700, Note_on_c, 0, 77, 83
2, 95700, Note_on_c, 0, 80, 83
2, 95700, Note_on_c, 0, 85, 83
2, 95700, Note_on_c, 0, 89, 83
2, 95760, Note_on_c, 0, 89, 0
2, 95760, Note_on_c, 0, 77, 0
2, 95760, Note_on_c, 0, 80, 0
2, 95760, Note_on_c, 0, 85, 0
2, 95760, Control_c, 0, 64, 0
2, 95760, Note_on_c, 0, 77, 83
2, 95760, Note_on_c, 0, 80, 83
2, 95760, Note_on_c, 0, 85, 83
2, 95760, Note_on_c, 0, 89, 83
2, 96000, Note_on_c, 0, 89, 0
2, 96000, Note_on_c, 0, 77, 0
2, 96000, Note_on_c, 0, 80, 0
2, 96000, Note_on_c, 0, 85, 0
2, 96180, Control_c, 0, 64, 127
2, 96180, Note_on_c, 0, 63, 83
2, 96180, Note_on_c, 0, 66, 83
2, 96180, Note_on_c, 0, 70, 83
2, 96180, Note_on_c, 0, 75, 83
2, 96240, Note_on_c, 0, 75, 0
2, 96240, Note_on_c, 0, 63, 0
2, 96240, Note_on_c, 0, 66, 0
2, 96240, Note_on_c, 0, 70, 0
2, 96240, Note_on_c, 0, 63, 83
2, 96240, Note_on_c, 0, 66, 83
2, 96240, Note_on_c, 0, 70, 83
2, 96240, Note_on_c, 0, 75, 83
2, 96420, Note_on_c, 0, 75, 0
2, 96420, Note_on_c, 0, 63, 0
2, 96420, Note_on_c, 0, 66, 0
2, 96420, Note_on_c, 0, 70, 0
2, 96420, Note_on_c, 0, 66, 83
2, 96420, Note_on_c, 0, 70, 83
2, 96420, Note_on_c, 0, 75, 83
2, 96420, Note_on_c, 0, 78, 83
2, 96480, Note_on_c, 0, 78, 0
2, 96480, Note_on_c, 0, 66, 0
2, 96480, Note_on_c, 0, 70, 0
2, 96480, Note_on_c, 0, 75, 0
2, 96480, Note_on_c, 0, 66, 83
2, 96480, Note_on_c, 0, 70, 83
2, 96480, Note_on_c, 0, 75, 83
2, 96480, Note_on_c, 0, 78, 83
2, 96660, Note_on_c, 0, 78, 0
2, 96660, Note_on_c, 0, 66, 0
2, 96660, Note_on_c, 0, 70, 0
2, 96660, Note_on_c, 0, 75, 0
2, 96660, Note_on_c, 0, 70, 83
2, 96660, Note_on_c, 0, 75, 83
2, 96660, Note_on_c, 0, 78, 83
2, 96660, Note_on_c, 0, 82, 83
2, 96720, Note_on_c, 0, 82, 0
2, 96720, Note_on_c, 0, 70, 0
2, 96720, Note_on_c, 0, 75, 0
2, 96720, Note_on_c, 0, 78, 0
2, 96720, Note_on_c, 0, 70, 83
2, 96720, Note_on_c, 0, 75, 83
2, 96720, Note_on_c, 0, 78, 83
2, 96720, Note_on_c, 0, 82, 83
2, 96900, Note_on_c, 0, 82, 0
2, 96900, Note_on_c, 0, 70, 0
2, 96900, Note_on_c, 0, 75, 0
2, 96900, Note_on_c, 0, 78, 0
2, 96900, Note_on_c, 0, 75, 83
2, 96900, Note_on_c, 0, 78, 83
2, 96900, Note_on_c, 0, 82, 83
2, 96900, Note_on_c, 0, 87, 83
2, 96960, Note_on_c, 0, 87, 0
2, 96960, Note_on_c, 0, 75, 0
2, 96960, Note_on_c, 0, 78, 0
2, 96960, Note_on_c, 0, 82, 0
2, 96960, Note_on_c, 0, 75, 83
2, 96960, Note_on_c, 0, 78, 83
2, 96960, Note_on_c, 0, 82, 83
2, 96960, Note_on_c, 0, 87, 83
2, 97140, Note_on_c, 0, 87, 0
2, 97140, Note_on_c, 0, 75, 0
2, 97140, Note_on_c, 0, 78, 0
2, 97140, Note_on_c, 0, 82, 0
2, 97140, Note_on_c, 0, 78, 83
2, 97140, Note_on_c, 0, 82, 83
2, 97140, Note_on_c, 0, 87, 83
2, 97140, Note_on_c, 0, 90, 83
2, 97200, Note_on_c, 0, 90, 0
2, 97200, Note_on_c, 0, 78, 0
2, 97200, Note_on_c, 0, 82, 0
2, 97200, Note_on_c, 0, 87, 0
2, 97200, Control_c, 0, 64, 0
2, 97200, Note_on_c, 0, 78, 83
2, 97200, Note_on_c, 0, 82, 83
2, 97200, Note_on_c, 0, 87, 83
2, 97200, Note_on_c, 0, 90, 83
2, 97440, Note_on_c, 0, 90, 0
2, 97440, Note_on_c, 0, 78, 0
2, 97440, Note_on_c, 0, 82, 0
2, 97440, Note_on_c, 0, 87, 0
2, 97620, Control_c, 0, 64, 127
2, 97620, Note_on_c, 0, 63, 83
2, 97620, Note_on_c, 0, 66, 83
2, 97620, Note_on_c, 0, 70, 83
2, 97620, Note_on_c, 0, 75, 83
2, 97680, Note_on_c, 0, 75, 0
2, 97680, Note_on_c, 0, 63, 0
2, 97680, Note_on_c, 0, 66, 0
2, 97680, Note_on_c, 0, 70, 0
2, 97680, Note_on_c, 0, 63, 83
2, 97680, Note_on_c, 0, 66, 83
2, 97680, Note_on_c, 0, 70, 83
2, 97680, Note_on_c, 0, 75, 83
2, 97860, Note_on_c, 0, 75, 0
2, 97860, Note_on_c, 0, 63, 0
2, 97860, Note_on_c, 0, 66, 0
2, 97860, Note_on_c, 0, 70, 0
2, 97860, Note_on_c, 0, 66, 83
2, 97860, Note_on_c, 0, 70, 83
2, 97860, Note_on_c, 0, 75, 83
2, 97860, Note_on_c, 0, 78, 83
2, 97920, Note_on_c, 0, 78, 0
2, 97920, Note_on_c, 0, 66, 0
2, 97920, Note_on_c, 0, 70, 0
2, 97920, Note_on_c, 0, 75, 0
2, 97920, Note_on_c, 0, 66, 83
2, 97920, Note_on_c, 0, 70, 83
2, 97920, Note_on_c, 0, 75, 83
2, 97920, Note_on_c, 0, 78, 83
2, 98100, Note_on_c, 0, 78, 0
2, 98100, Note_on_c, 0, 66, 0
2, 98100, Note_on_c, 0, 70, 0
2, 98100, Note_on_c, 0, 75, 0
2, 98100, Note_on_c, 0, 70, 83
2, 98100, Note_on_c, 0, 75, 83
2, 98100, Note_on_c, 0, 78, 83
2, 98100, Note_on_c, 0, 82, 83
2, 98160, Note_on_c, 0, 82, 0
2, 98160, Note_on_c, 0, 70, 0
2, 98160, Note_on_c, 0, 75, 0
2, 98160, Note_on_c, 0, 78, 0
2, 98160, Note_on_c, 0, 70, 83
2, 98160, Note_on_c, 0, 75, 83
2, 98160, Note_on_c, 0, 78, 83
2, 98160, Note_on_c, 0, 82, 83
2, 98340, Note_on_c, 0, 82, 0
2, 98340, Note_on_c, 0, 70, 0
2, 98340, Note_on_c, 0, 75, 0
2, 98340, Note_on_c, 0, 78, 0
2, 98340, Note_on_c, 0, 75, 83
2, 98340, Note_on_c, 0, 78, 83
2, 98340, Note_on_c, 0, 82, 83
2, 98340, Note_on_c, 0, 87, 83
2, 98400, Note_on_c, 0, 87, 0
2, 98400, Note_on_c, 0, 75, 0
2, 98400, Note_on_c, 0, 78, 0
2, 98400, Note_on_c, 0, 82, 0
2, 98400, Note_on_c, 0, 75, 83
2, 98400, Note_on_c, 0, 78, 83
2, 98400, Note_on_c, 0, 82, 83
2, 98400, Note_on_c, 0, 87, 83
2, 98580, Note_on_c, 0, 87, 0
2, 98580, Note_on_c, 0, 75, 0
2, 98580, Note_on_c, 0, 78, 0
2, 98580, Note_on_c, 0, 82, 0
2, 98580, Note_on_c, 0, 78, 83
2, 98580, Note_on_c, 0, 82, 83
2, 98580, Note_on_c, 0, 87, 83
2, 98580, Note_on_c, 0, 90, 83
2, 98640, Note_on_c, 0, 90, 0
2, 98640, Note_on_c, 0, 78, 0
2, 98640, Note_on_c, 0, 82, 0
2, 98640, Note_on_c, 0, 87, 0
2, 98640, Control_c, 0, 64, 0
2, 98640, Note_on_c, 0, 78, 83
2, 98640, Note_on_c, 0, 82, 83
2, 98640, Note_on_c, 0, 87, 83
2, 98640, Note_on_c, 0, 90, 83
2, 98880, Note_on_c, 0, 90, 0
2, 98880, Note_on_c, 0, 78, 0
2, 98880, Note_on_c, 0, 82, 0
2, 98880, Note_on_c, 0, 87, 0
2, 99060, Control_c, 0, 64, 127
2, 99060, Note_on_c, 0, 63, 83
2, 99060, Note_on_c, 0, 68, 83
2, 99060, Note_on_c, 0, 72, 83
2, 99060, Note_on_c, 0, 75, 83
2, 99120, Note_on_c, 0, 75, 0
2, 99120, Note_on_c, 0, 63, 0
2, 99120, Note_on_c, 0, 68, 0
2, 99120, Note_on_c, 0, 72, 0
2, 99120, Note_on_c, 0, 63, 83
2, 99120, Note_on_c, 0, 68, 83
2, 99120, Note_on_c, 0, 72, 83
2, 99120, Note_on_c, 0, 75, 83
2, 99300, Note_on_c, 0, 75, 0
2, 99300, Note_on_c, 0, 63, 0
2, 99300, Note_on_c, 0, 68, 0
2, 99300, Note_on_c, 0, 72, 0
2, 99300, Note_on_c, 0, 68, 83
2, 99300, Note_on_c, 0, 72, 83
2, 99300, Note_on_c, 0, 75, 83
2, 99300, Note_on_c, 0, 80, 83
2, 99360, Note_on_c, 0, 80, 0
2, 99360, Note_on_c, 0, 68, 0
2, 99360, Note_on_c, 0, 72, 0
2, 99360, Note_on_c, 0, 75, 0
2, 99360, Note_on_c, 0, 68, 83
2, 99360, Note_on_c, 0, 72, 83
2, 99360, Note_on_c, 0, 75, 83
2, 99360, Note_on_c, 0, 80, 83
2, 99540, Note_on_c, 0, 80, 0
2, 99540, Note_on_c, 0, 68, 0
2, 99540, Note_on_c, 0, 72, 0
2, 99540, Note_on_c, 0, 75, 0
2, 99540, Note_on_c, 0, 72, 83
2, 99540, Note_on_c, 0, 75, 83
2, 99540, Note_on_c, 0, 80, 83
2, 99540, Note_on_c, 0, 84, 83
2, 99600, Note_on_c, 0, 84, 0
2, 99600, Note_on_c, 0, 72, 0
2, 99600, Note_on_c, 0, 75, 0
2, 99600, Note_on_c, 0, 80, 0
2, 99600, Note_on_c, 0, 72, 83
2, 99600, Note_on_c, 0, 75, 83
2, 99600, Note_on_c, 0, 80, 83
2, 99600, Note_on_c, 0, 84, 83
2, 99780, Note_on_c, 0, 84, 0
2, 99780, Note_on_c, 0, 72, 0
2, 99780, Note_on_c, 0, 75, 0
2, 99780, Note_on_c, 0, 80, 0
2, 99780, Note_on_c, 0, 75, 83
2, 99780, Note_on_c, 0, 80, 83
2, 99780, Note_on_c, 0, 84, 83
2, 99780, Note_on_c, 0, 87, 83
2, 99840, Note_on_c, 0, 87, 0
2, 99840, Note_on_c, 0, 75, 0
2, 99840, Note_on_c, 0, 80, 0
2, 99840, Note_on_c, 0, 84, 0
2, 99840, Note_on_c, 0, 75, 83
2, 99840, Note_on_c, 0, 80, 83
2, 99840, Note_on_c, 0, 84, 83
2, 99840, Note_on_c, 0, 87, 83
2, 100020, Note_on_c, 0, 87, 0
2, 100020, Note_on_c, 0, 75, 0
2, 100020, Note_on_c, 0, 80, 0
2, 100020, Note_on_c, 0, 84, 0
2, 100020, Note_on_c, 0, 80, 83
2, 100020, Note_on_c, 0, 84, 83
2, 100020, Note_on_c, 0, 87, 83
2, 100020, Note_on_c, 0, 92, 83
2, 100080, Note_on_c, 0, 92, 0
2, 100080, Note_on_c, 0, 80, 0
2, 100080, Note_on_c, 0, 84, 0
2, 100080, Note_on_c, 0, 87, 0
2, 100080, Control_c, 0, 64, 0
2, 100080, Note_on_c, 0, 80, 83
2, 100080, Note_on_c, 0, 84, 83
2, 100080, Note_on_c, 0, 87, 83
2, 100080, Note_on_c, 0, 92, 83
2, 100320, Note_on_c, 0, 92, 0
2, 100320, Note_on_c, 0, 80, 0
2, 100320, Note_on_c, 0, 84, 0
2, 100320, Note_on_c, 0, 87, 0
2, 100500, Control_c, 0, 64, 127
2, 100500, Note_on_c, 0, 63, 83
2, 100500, Note_on_c, 0, 68, 83
2, 100500, Note_on_c, 0, 72, 83
2, 100500, Note_on_c, 0, 75, 83
2, 100560, Note_on_c, 0, 75, 0
2, 100560, Note_on_c, 0, 63, 0
2, 100560, Note_on_c, 0, 68, 0
2, 100560, Note_on_c, 0, 72, 0
2, 100560, Note_on_c, 0, 63, 83
2, 100560, Note_on_c, 0, 68, 83
2, 100560, Note_on_c, 0, 72, 83
2, 100560, Note_on_c, 0, 75, 83
2, 100740, Note_on_c, 0, 75, 0
2, 100740, Note_on_c, 0, 63, 0
2, 100740, Note_on_c, 0, 68, 0
2, 100740, Note_on_c, 0, 72, 0
2, 100740, Note_on_c, 0, 68, 83
2, 100740, Note_on_c, 0, 72, 83
2, 100740, Note_on_c, 0, 75, 83
2, 100740, Note_on_c, 0, 80, 83
2, 100800, Note_on_c, 0, 80, 0
2, 100800, Note_on_c, 0, 68, 0
2, 100800, Note_on_c, 0, 72, 0
2, 100800, Note_on_c, 0, 75, 0
2, 100800, Note_on_c, 0, 68, 83
2, 100800, Note_on_c, 0, 72, 83
2, 100800, Note_on_c, 0, 75, 83
2, 100800, Note_on_c, 0, 80, 83
2, 100980, Note_on_c, 0, 80, 0
2, 100980, Note_on_c, 0, 68, 0
2, 100980, Note_on_c, 0, 72, 0
2, 100980, Note_on_c, 0, 75, 0
2, 100980, Note_on_c, 0, 72, 83
2, 100980, Note_on_c, 0, 75, 83
2, 100980, Note_on_c, 0, 80, 83
2, 100980, Note_on_c, 0, 84, 83
2, 101040, Note_on_c, 0, 84, 0
2, 101040, Note_on_c, 0, 72, 0
2, 101040, Note_on_c, 0, 75, 0
2, 101040, Note_on_c, 0, 80, 0
2, 101040, Note_on_c, 0, 72, 83
2, 101040, Note_on_c, 0, 75, 83
2, 101040, Note_on_c, 0, 80, 83
2, 101040, Note_on_c, 0, 84, 83
2, 101220, Note_on_c, 0, 84, 0
2, 101220, Note_on_c, 0, 72, 0
2, 101220, Note_on_c, 0, 75, 0
2, 101220, Note_on_c, 0, 80, 0
2, 101220, Note_on_c, 0, 75, 83
2, 101220, Note_on_c, 0, 80, 83
2, 101220, Note_on_c, 0, 84, 83
2, 101220, Note_on_c, 0, 87, 83
2, 101280, Note_on_c, 0, 87, 0
2, 101280, Note_on_c, 0, 75, 0
2, 101280, Note_on_c, 0, 80, 0
2, 101280, Note_on_c, 0, 84, 0
2, 101280, Note_on_c, 0, 75, 83
2, 101280, Note_on_c, 0, 80, 83
2, 101280, Note_on_c, 0, 84, 83
2, 101280, Note_on_c, 0, 87, 83
2, 101460, Note_on_c, 0, 87, 0
2, 101460, Note_on_c, 0, 75, 0
2, 101460, Note_on_c, 0, 80, 0
2, 101460, Note_on_c, 0, 84, 0
2, 101460, Note_on_c, 0, 80, 83
2, 101460, Note_on_c, 0, 84, 83
2, 101460, Note_on_c, 0, 87, 83
2, 101460, Note_on_c, 0, 92, 83
2, 101520, Note_on_c, 0, 92, 0
2, 101520, Note_on_c, 0, 80, 0
2, 101520, Note_on_c, 0, 84, 0
2, 101520, Note_on_c, 0, 87, 0
2, 101520, Control_c, 0, 64, 0
2, 101520, Note_on_c, 0, 80, 83
2, 101520, Note_on_c, 0, 84, 83
2, 101520, Note_on_c, 0, 87, 83
2, 101520, Note_on_c, 0, 92, 83
2, 101760, Note_on_c, 0, 92, 0
2, 101760, Note_on_c, 0, 80, 0
2, 101760, Note_on_c, 0, 84, 0
2, 101760, Note_on_c, 0, 87, 0
2, 101940, Control_c, 0, 64, 127
2, 101940, Note_on_c, 0, 65, 83
2, 101940, Note_on_c, 0, 68, 83
2, 101940, Note_on_c, 0, 73, 83
2, 101940, Note_on_c, 0, 77, 83
2, 102000, Note_on_c, 0, 77, 0
2, 102000, Note_on_c, 0, 65, 0
2, 102000, Note_on_c, 0, 68, 0
2, 102000, Note_on_c, 0, 73, 0
2, 102000, Note_on_c, 0, 65, 83
2, 102000, Note_on_c, 0, 68, 83
2, 102000, Note_on_c, 0, 73, 83
2, 102000, Note_on_c, 0, 77, 83
2, 102180, Note_on_c, 0, 77, 0
2, 102180, Note_on_c, 0, 65, 0
2, 102180, Note_on_c, 0, 68, 0
2, 102180, Note_on_c, 0, 73, 0
2, 102180, Note_on_c, 0, 68, 83
2, 102180, Note_on_c, 0, 73, 83
2, 102180, Note_on_c, 0, 77, 83
2, 102180, Note_on_c, 0, 80, 83
2, 102240, Note_on_c, 0, 80, 0
2, 102240, Note_on_c, 0, 68, 0
2, 102240, Note_on_c, 0, 73, 0
2, 102240, Note_on_c, 0, 77, 0
2, 102240, Note_on_c, 0, 68, 83
2, 102240, Note_on_c, 0, 73, 83
2, 102240, Note_on_c, 0, 77, 83
2, 102240, Note_on_c, 0, 80, 83
2, 102420, Note_on_c, 0, 80, 0
2, 102420, Note_on_c, 0, 68, 0
2, 102420, Note_on_c, 0, 73, 0
2, 102420, Note_on_c, 0, 77, 0
2, 102420, Note_on_c, 0, 73, 83
2, 102420, Note_on_c, 0, 77, 83
2, 102420, Note_on_c, 0, 80, 83
2, 102420, Note_on_c, 0, 85, 83
2, 102480, Note_on_c, 0, 85, 0
2, 102480, Note_on_c, 0, 73, 0
2, 102480, Note_on_c, 0, 77, 0
2, 102480, Note_on_c, 0, 80, 0
2, 102480, Note_on_c, 0, 73, 83
2, 102480, Note_on_c, 0, 77, 83
2, 102480, Note_on_c, 0, 80, 83
2, 102480, Note_on_c, 0, 85, 83
2, 102660, Note_on_c, 0, 85, 0
2, 102660, Note_on_c, 0, 73, 0
2, 102660, Note_on_c, 0, 77, 0
2, 102660, Note_on_c, 0, 80, 0
2, 102660, Note_on_c, 0, 77, 83
2, 102660, Note_on_c, 0, 80, 83
2, 102660, Note_on_c, 0, 85, 83
2, 102660, Note_on_c, 0, 89, 83
2, 102720, Note_on_c, 0, 89, 0
2, 102720, Note_on_c, 0, 77, 0
2, 102720, Note_on_c, 0, 80, 0
2, 102720, Note_on_c, 0, 85, 0
2, 102720, Note_on_c, 0, 77, 83
2, 102720, Note_on_c, 0, 80, 83
2, 102720, Note_on_c, 0, 85, 83
2, 102720, Note_on_c, 0, 89, 83
2, 102900, Note_on_c, 0, 89, 0
2, 102900, Note_on_c, 0, 77, 0
2, 102900, Note_on_c, 0, 80, 0
2, 102900, Note_on_c, 0, 85, 0
2, 102900, Note_on_c, 0, 80, 83
2, 102900, Note_on_c, 0, 85, 83
2, 102900, Note_on_c, 0, 89, 83
2, 102900, Note_on_c, 0, 92, 83
2, 102960, Note_on_c, 0, 92, 0
2, 102960, Note_on_c, 0, 80, 0
2, 102960, Note_on_c, 0, 85, 0
2, 102960, Note_on_c, 0, 89, 0
2, 102960, Control_c, 0, 64, 0
2, 102960, Note_on_c, 0, 80, 83
2, 102960, Note_on_c, 0, 85, 83
2, 102960, Note_on_c, 0, 89, 83
2, 102960, Note_on_c, 0, 92, 83
2, 103200, Note_on_c, 0, 92, 0
2, 103200, Note_on_c, 0, 80, 0
2, 103200, Note_on_c, 0, 85, 0
2, 103200, Note_on_c, 0, 89, 0
2, 103380, Control_c, 0, 64, 127
2, 103380, Note_on_c, 0, 80, 83
2, 103380, Note_on_c, 0, 84, 83
2, 103380, Note_on_c, 0, 87, 83
2, 103380, Note_on_c, 0, 92, 83
2, 103440, Note_on_c, 0, 92, 0
2, 103440, Note_on_c, 0, 80, 0
2, 103440, Note_on_c, 0, 84, 0
2, 103440, Note_on_c, 0, 87, 0
2, 103440, Note_on_c, 0, 80, 83
2, 103440, Note_on_c, 0, 84, 83
2, 103440, Note_on_c, 0, 87, 83
2, 103440, Note_on_c, 0, 92, 83
2, 103620, Note_on_c, 0, 92, 0
2, 103620, Note_on_c, 0, 80, 0
2, 103620, Note_on_c, 0, 84, 0
2, 103620, Note_on_c, 0, 87, 0
2, 103620, Note_on_c, 0, 75, 83
2, 103620, Note_on_c, 0, 80, 83
2, 103620, Note_on_c, 0, 84, 83
2, 103620, Note_on_c, 0, 87, 83
2, 103680, Note_on_c, 0, 87, 0
2, 103680, Note_on_c, 0, 75, 0
2, 103680, Note_on_c, 0, 80, 0
2, 103680, Note_on_c, 0, 84, 0
2, 103680, Note_on_c, 0, 75, 83
2, 103680, Note_on_c, 0, 80, 83
2, 103680, Note_on_c, 0, 84, 83
2, 103680, Note_on_c, 0, 87, 83
2, 103860, Note_on_c, 0, 87, 0
2, 103860, Note_on_c, 0, 75, 0
2, 103860, Note_on_c, 0, 80, 0
2, 103860, Note_on_c, 0, 84, 0
2, 103860, Note_on_c, 0, 72, 83
2, 103860, Note_on_c, 0, 75, 83
2, 103860, Note_on_c, 0, 80, 83
2, 103860, Note_on_c, 0, 84, 83
2, 103920, Note_on_c, 0, 84, 0
2, 103920, Note_on_c, 0, 72, 0
2, 103920, Note_on_c, 0, 75, 0
2, 103920, Note_on_c, 0, 80, 0
2, 103920, Note_on_c, 0, 72, 83
2, 103920, Note_on_c, 0, 75, 83
2, 103920, Note_on_c, 0, 80, 83
2, 103920, Note_on_c, 0, 84, 83
2, 104100, Note_on_c, 0, 84, 0
2, 104100, Note_on_c, 0, 72, 0
2, 104100, Note_on_c, 0, 75, 0
2, 104100, Note_on_c, 0, 80, 0
2, 104100, Note_on_c, 0, 68, 83
2, 104100, Note_on_c, 0, 72, 83
2, 104100, Note_on_c, 0, 75, 83
2, 104100, Note_on_c, 0, 80, 83
2, 104160, Note_on_c, 0, 80, 0
2, 104160, Note_on_c, 0, 68, 0
2, 104160, Note_on_c, 0, 72, 0
2, 104160, Note_on_c, 0, 75, 0
2, 104160, Note_on_c, 0, 68, 83
2, 104160, Note_on_c, 0, 72, 83
2, 104160, Note_on_c, 0, 75, 83
2, 104160, Note_on_c, 0, 80, 83
2, 104340, Note_on_c, 0, 80, 0
2, 104340, Note_on_c, 0, 68, 0
2, 104340, Note_on_c, 0, 72, 0
2, 104340, Note_on_c, 0, 75, 0
2, 104340, Note_on_c, 0, 63, 83
2, 104340, Note_on_c, 0, 68, 83
2, 104340, Note_on_c, 0, 72, 83
2, 104340, Note_on_c, 0, 75, 83
2, 104400, Note_on_c, 0, 75, 0
2, 104400, Note_on_c, 0, 63, 0
2, 104400, Note_on_c, 0, 68, 0
2, 104400, Note_on_c, 0, 72, 0
2, 104400, Control_c, 0, 64, 0
2, 104400, Note_on_c, 0, 63, 83
2, 104400, Note_on_c, 0, 68, 83
2, 104400, Note_on_c, 0, 72, 83
2, 104400, Note_on_c, 0, 75, 83
2, 104640, Note_on_c, 0, 75, 0
2, 104640, Note_on_c, 0, 63, 0
2, 104640, Note_on_c, 0, 68, 0
2, 104640, Note_on_c, 0, 72, 0
2, 104820, Control_c, 0, 64, 127
2, 104820, Note_on_c, 0, 61, 70
2, 104820, Note_on_c, 0, 65, 70
2, 104820, Note_on_c, 0, 68, 70
2, 104820, Note_on_c, 0, 73, 70
2, 104880, Note_on_c, 0, 73, 0
2, 104880, Note_on_c, 0, 61, 0
2, 104880, Note_on_c, 0, 65, 0
2, 104880, Note_on_c, 0, 68, 0
2, 104880, Note_on_c, 0, 61, 70
2, 104880, Note_on_c, 0, 65, 70
2, 104880, Note_on_c, 0, 68, 70
2, 104880, Note_on_c, 0, 73, 70
2, 105060, Note_on_c, 0, 73, 0
2, 105060, Note_on_c, 0, 61, 0
2, 105060, Note_on_c, 0, 65, 0
2, 105060, Note_on_c, 0, 68, 0
2, 105060, Note_on_c, 0, 65, 70
2, 105060, Note_on_c, 0, 68, 70
2, 105060, Note_on_c, 0, 73, 70
2, 105060, Note_on_c, 0, 77, 70
2, 105120, Note_on_c, 0, 77, 0
2, 105120, Note_on_c, 0, 65, 0
2, 105120, Note_on_c, 0, 68, 0
2, 105120, Note_on_c, 0, 73, 0
2, 105120, Note_on_c, 0, 65, 70
2, 105120, Note_on_c, 0, 68, 70
2, 105120, Note_on_c, 0, 73, 70
2, 105120, Note_on_c, 0, 77, 70
2, 105300, Note_on_c, 0, 77, 0
2, 105300, Note_on_c, 0, 65, 0
2, 105300, Note_on_c, 0, 68, 0
2, 105300, Note_on_c, 0, 73, 0
2, 105300, Note_on_c, 0, 68, 70
2, 105300, Note_on_c, 0, 73, 70
2, 105300, Note_on_c, 0, 77, 70
2, 105300, Note_on_c, 0, 80, 70
2, 105360, Note_on_c, 0, 80, 0
2, 105360, Note_on_c, 0, 68, 0
2, 105360, Note_on_c, 0, 73, 0
2, 105360, Note_on_c, 0, 77, 0
2, 105360, Note_on_c, 0, 68, 70
2, 105360, Note_on_c, 0, 73, 70
2, 105360, Note_on_c, 0, 77, 70
2, 105360, Note_on_c, 0, 80, 70
2, 105540, Note_on_c, 0, 80, 0
2, 105540, Note_on_c, 0, 68, 0
2, 105540, Note_on_c, 0, 73, 0
2, 105540, Note_on_c, 0, 77, 0
2, 105540, Note_on_c, 0, 73, 70
2, 105540, Note_on_c, 0, 77, 70
2, 105540, Note_on_c, 0, 80, 70
2, 105540, Note_on_c, 0, 85, 70
2, 105600, Note_on_c, 0, 85, 0
2, 105600, Note_on_c, 0, 73, 0
2, 105600, Note_on_c, 0, 77, 0
2, 105600, Note_on_c, 0, 80, 0
2, 105600, Note_on_c, 0, 73, 70
2, 105600, Note_on_c, 0, 77, 70
2, 105600, Note_on_c, 0, 80, 70
2, 105600, Note_on_c, 0, 85, 70
2, 105780, Note_on_c, 0, 85, 0
2, 105780, Note_on_c, 0, 73, 0
2, 105780, Note_on_c, 0, 77, 0
2, 105780, Note_on_c, 0, 80, 0
2, 105780, Note_on_c, 0, 77, 70
2, 105780, Note_on_c, 0, 80, 70
2, 105780, Note_on_c, 0, 85, 70
2, 105780, Note_on_c, 0, 89, 70
2, 105840, Note_on_c, 0, 89, 0
2, 105840, Note_on_c, 0, 77, 0
2, 105840, Note_on_c, 0, 80, 0
2, 105840, Note_on_c, 0, 85, 0
2, 105840, Control_c, 0, 64, 0
2, 105840, Note_on_c, 0, 77, 70
2, 105840, Note_on_c, 0, 80, 70
2, 105840, Note_on_c, 0, 85, 70
2, 105840, Note_on_c, 0, 89, 70
2, 106080, Note_on_c, 0, 89, 0
2, 106080, Note_on_c, 0, 77, 0
2, 106080, Note_on_c, 0, 80, 0
2, 106080, Note_on_c, 0, 85, 0
2, 106260, Control_c, 0, 64, 127
2, 106260, Note_on_c, 0, 61, 83
2, 106260, Note_on_c, 0, 65, 83
2, 106260, Note_on_c, 0, 68, 83
2, 106260, Note_on_c, 0, 73, 83
2, 106320, Note_on_c, 0, 73, 0
2, 106320, Note_on_c, 0, 61, 0
2, 106320, Note_on_c, 0, 65, 0
2, 106320, Note_on_c, 0, 68, 0
2, 106320, Note_on_c, 0, 61, 83
2, 106320, Note_on_c, 0, 65, 83
2, 106320, Note_on_c, 0, 68, 83
2, 106320, Note_on_c, 0, 73, 83
2, 106500, Note_on_c, 0, 73, 0
2, 106500, Note_on_c, 0, 61, 0
2, 106500, Note_on_c, 0, 65, 0
2, 106500, Note_on_c, 0, 68, 0
2, 106500, Note_on_c, 0, 65, 83
2, 106500, Note_on_c, 0, 68, 83
2, 106500, Note_on_c, 0, 73, 83
2, 106500, Note_on_c, 0, 77, 83
2, 106560, Note_on_c, 0, 77, 0
2, 106560, Note_on_c, 0, 65, 0
2, 106560, Note_on_c, 0, 68, 0
2, 106560, Note_on_c, 0, 73, 0
2, 106560, Note_on_c, 0, 65, 83
2, 106560, Note_on_c, 0, 68, 83
2, 106560, Note_on_c, 0, 73, 83
2, 106560, Note_on_c, 0, 77, 83
2, 106740, Note_on_c, 0, 77, 0
2, 106740, Note_on_c, 0, 65, 0
2, 106740, Note_on_c, 0, 68, 0
2, 106740, Note_on_c, 0, 73, 0
2, 106740, Note_on_c, 0, 68, 83
2, 106740, Note_on_c, 0, 73, 83
2, 106740, Note_on_c, 0, 77, 83
2, 106740, Note_on_c, 0, 80, 83
2, 106800, Note_on_c, 0, 80, 0
2, 106800, Note_on_c, 0, 68, 0
2, 106800, Note_on_c, 0, 73, 0
2, 106800, Note_on_c, 0, 77, 0
2, 106800, Note_on_c, 0, 68, 83
2, 106800, Note_on_c, 0, 73, 83
2, 106800, Note_on_c, 0, 77, 83
2, 106800, Note_on_c, 0, 80, 83
2, 106980, Note_on_c, 0, 80, 0
2, 106980, Note_on_c, 0, 68, 0
2, 106980, Note_on_c, 0, 73, 0
2, 106980, Note_on_c, 0, 77, 0
2, 106980, Note_on_c, 0, 73, 83
2, 106980, Note_on_c, 0, 77, 83
2, 106980, Note_on_c, 0, 80, 83
2, 106980, Note_on_c, 0, 85, 83
2, 107040, Note_on_c, 0, 85, 0
2, 107040, Note_on_c, 0, 73, 0
2, 107040, Note_on_c, 0, 77, 0
2, 107040, Note_on_c, 0, 80, 0
2, 107040, Note_on_c, 0, 73, 83
2, 107040, Note_on_c, 0, 77, 83
2, 107040, Note_on_c, 0, 80, 83
2, 107040, Note_on_c, 0, 85, 83
2, 107220, Note_on_c, 0, 85, 0
2, 107220, Note_on_c, 0, 73, 0
2, 107220, Note_on_c, 0, 77, 0
2, 107220, Note_on_c, 0, 80, 0
2, 107220, Note_on_c, 0, 77, 83
2, 107220, Note_on_c, 0, 80, 83
2, 107220, Note_on_c, 0, 85, 83
2, 107220, Note_on_c, 0, 89, 83
2, 107280, Note_on_c, 0, 89, 0
2, 107280, Note_on_c, 0, 77, 0
2, 107280, Note_on_c, 0, 80, 0
2, 107280, Note_on_c, 0, 85, 0
2, 107280, Control_c, 0, 64, 0
2, 107280, Note_on_c, 0, 77, 83
2, 107280, Note_on_c, 0, 80, 83
2, 107280, Note_on_c, 0, 85, 83
2, 107280, Note_on_c, 0, 89, 83
2, 107520, Note_on_c, 0, 89, 0
2, 107520, Note_on_c, 0, 77, 0
2, 107520, Note_on_c, 0, 80, 0
2, 107520, Note_on_c, 0, 85, 0
2, 107700, Control_c, 0, 64, 127
2, 107700, Note_on_c, 0, 61, 83
2, 107700, Note_on_c, 0, 63, 83
2, 107700, Note_on_c, 0, 70, 83
2, 107700, Note_on_c, 0, 73, 83
2, 107760, Note_on_c, 0, 73, 0
2, 107760, Note_on_c, 0, 61, 0
2, 107760, Note_on_c, 0, 63, 0
2, 107760, Note_on_c, 0, 70, 0
2, 107760, Note_on_c, 0, 61, 83
2, 107760, Note_on_c, 0, 63, 83
2, 107760, Note_on_c, 0, 70, 83
2, 107760, Note_on_c, 0, 73, 83
2, 107940, Note_on_c, 0, 73, 0
2, 107940, Note_on_c, 0, 61, 0
2, 107940, Note_on_c, 0, 63, 0
2, 107940, Note_on_c, 0, 70, 0
2, 107940, Note_on_c, 0, 63, 83
2, 107940, Note_on_c, 0, 70, 83
2, 107940, Note_on_c, 0, 73, 83
2, 107940, Note_on_c, 0, 75, 83
2, 108000, Note_on_c, 0, 75, 0
2, 108000, Note_on_c, 0, 63, 0
2, 108000, Note_on_c, 0, 70, 0
2, 108000, Note_on_c, 0, 73, 0
2, 108000, Note_on_c, 0, 63, 83
2, 108000, Note_on_c, 0, 70, 83
2, 108000, Note_on_c, 0, 73, 83
2, 108000, Note_on_c, 0, 75, 83
2, 108180, Note_on_c, 0, 75, 0
2, 108180, Note_on_c, 0, 63, 0
2, 108180, Note_on_c, 0, 70, 0
2, 108180, Note_on_c, 0, 73, 0
2, 108180, Note_on_c, 0, 70, 83
2, 108180, Note_on_c, 0, 73, 83
2, 108180, Note_on_c, 0, 75, 83
2, 108180, Note_on_c, 0, 82, 83
2, 108240, Note_on_c, 0, 82, 0
2, 108240, Note_on_c, 0, 70, 0
2, 108240, Note_on_c, 0, 73, 0
2, 108240, Note_on_c, 0, 75, 0
2, 108240, Note_on_c, 0, 70, 83
2, 108240, Note_on_c, 0, 73, 83
2, 108240, Note_on_c, 0, 75, 83
2, 108240, Note_on_c, 0, 82, 83
2, 108420, Note_on_c, 0, 82, 0
2, 108420, Note_on_c, 0, 70, 0
2, 108420, Note_on_c, 0, 73, 0
2, 108420, Note_on_c, 0, 75, 0
2, 108420, Note_on_c, 0, 73, 83
2, 108420, Note_on_c, 0, 75, 83
2, 108420, Note_on_c, 0, 82, 83
2, 108420, Note_on_c, 0, 85, 83
2, 108480, Note_on_c, 0, 85, 0
2, 108480, Note_on_c, 0, 73, 0
2, 108480, Note_on_c, 0, 75, 0
2, 108480, Note_on_c, 0, 82, 0
2, 108480, Note_on_c, 0, 73, 83
2, 108480, Note_on_c, 0, 75, 83
2, 108480, Note_on_c, 0, 82, 83
2, 108480, Note_on_c, 0, 85, 83
2, 108660, Note_on_c, 0, 85, 0
2, 108660, Note_on_c, 0, 73, 0
2, 108660, Note_on_c, 0, 75, 0
2, 108660, Note_on_c, 0, 82, 0
2, 108660, Note_on_c, 0, 75, 83
2, 108660, Note_on_c, 0, 82, 83
2, 108660, Note_on_c, 0, 85, 83
2, 108660, Note_on_c, 0, 87, 83
2, 108720, Note_on_c, 0, 87, 0
2, 108720, Note_on_c, 0, 75, 0
2, 108720, Note_on_c, 0, 82, 0
2, 108720, Note_on_c, 0, 85, 0
2, 108720, Control_c, 0, 64, 0
2, 108720, Note_on_c, 0, 75, 83
2, 108720, Note_on_c, 0, 82, 83
2, 108720, Note_on_c, 0, 85, 83
2, 108720, Note_on_c, 0, 87, 83
2, 108960, Note_on_c, 0, 87, 0
2, 108960, Note_on_c, 0, 75, 0
2, 108960, Note_on_c, 0, 82, 0
2, 108960, Note_on_c, 0, 85, 0
2, 109140, Control_c, 0, 64, 127
2, 109140, Note_on_c, 0, 60, 83
2, 109140, Note_on_c, 0, 66, 83
2, 109140, Note_on_c, 0, 70, 83
2, 109140, Note_on_c, 0, 72, 83
2, 109200, Note_on_c, 0, 72, 0
2, 109200, Note_on_c, 0, 60, 0
2, 109200, Note_on_c, 0, 66, 0
2, 109200, Note_on_c, 0, 70, 0
2, 109200, Note_on_c, 0, 60, 83
2, 109200, Note_on_c, 0, 66, 83
2, 109200, Note_on_c, 0, 70, 83
2, 109200, Note_on_c, 0, 72, 83
2, 109380, Note_on_c, 0, 72, 0
2, 109380, Note_on_c, 0, 60, 0
2, 109380, Note_on_c, 0, 66, 0
2, 109380, Note_on_c, 0, 70, 0
2, 109380, Note_on_c, 0, 66, 83
2, 109380, Note_on_c, 0, 70, 83
2, 109380, Note_on_c, 0, 72, 83
2, 109380, Note_on_c, 0, 78, 83
2, 109440, Note_on_c, 0, 78, 0
2, 109440, Note_on_c, 0, 66, 0
2, 109440, Note_on_c, 0, 70, 0
2, 109440, Note_on_c, 0, 72, 0
2, 109440, Note_on_c, 0, 66, 83
2, 109440, Note_on_c, 0, 70, 83
2, 109440, Note_on_c, 0, 72, 83
2, 109440, Note_on_c, 0, 78, 83
2, 109620, Note_on_c, 0, 78, 0
2, 109620, Note_on_c, 0, 66, 0
2, 109620, Note_on_c, 0, 70, 0
2, 109620, Note_on_c, 0, 72, 0
2, 109620, Note_on_c, 0, 70, 83
2, 109620, Note_on_c, 0, 72, 83
2, 109620, Note_on_c, 0, 78, 83
2, 109620, Note_on_c, 0, 82, 83
2, 109680, Note_on_c, 0, 82, 0
2, 109680, Note_on_c, 0, 70, 0
2, 109680, Note_on_c, 0, 72, 0
2, 109680, Note_on_c, 0, 78, 0
2, 109680, Note_on_c, 0, 70, 83
2, 109680, Note_on_c, 0, 72, 83
2, 109680, Note_on_c, 0, 78, 83
2, 109680, Note_on_c, 0, 82, 83
2, 109860, Note_on_c, 0, 82, 0
2, 109860, Note_on_c, 0, 70, 0
2, 109860, Note_on_c, 0, 72, 0
2, 109860, Note_on_c, 0, 78, 0
2, 109860, Note_on_c, 0, 72, 83
2, 109860, Note_on_c, 0, 78, 83
2, 109860, Note_on_c, 0, 82, 83
2, 109860, Note_on_c, 0, 84, 83
2, 109920, Note_on_c, 0, 84, 0
2, 109920, Note_on_c, 0, 72, 0
2, 109920, Note_on_c, 0, 78, 0
2, 109920, Note_on_c, 0, 82, 0
2, 109920, Note_on_c, 0, 72, 83
2, 109920, Note_on_c, 0, 78, 83
2, 109920, Note_on_c, 0, 82, 83
2, 109920, Note_on_c, 0, 84, 83
2, 110100, Note_on_c, 0, 84, 0
2, 110100, Note_on_c, 0, 72, 0
2, 110100, Note_on_c, 0, 78, 0
2, 110100, Note_on_c, 0, 82, 0
2, 110100, Note_on_c, 0, 78, 83
2, 110100, Note_on_c, 0, 82, 83
2, 110100, Note_on_c, 0, 84, 83
2, 110100, Note_on_c, 0, 90, 83
2, 110160, Note_on_c, 0, 90, 0
2, 110160, Note_on_c, 0, 78, 0
2, 110160, Note_on_c, 0, 82, 0
2, 110160, Note_on_c, 0, 84, 0
2, 110160, Control_c, 0, 64, 0
2, 110160, Note_on_c, 0, 78, 83
2, 110160, Note_on_c, 0, 82, 83
2, 110160, Note_on_c, 0, 84, 83
2, 110160, Note_on_c, 0, 90, 83
2, 110400, Note_on_c, 0, 90, 0
2, 110400, Note_on_c, 0, 78, 0
2, 110400, Note_on_c, 0, 82, 0
2, 110400, Note_on_c, 0, 84, 0
2, 110580, Note_on_c, 0, 77, 83
2, 110580, Note_on_c, 0, 81, 83
2, 110580, Note_on_c, 0, 84, 83
2, 110580, Note_on_c, 0, 89, 83
2, 110640, Note_on_c, 0, 89, 0
2, 110640, Note_on_c, 0, 77, 0
2, 110640, Note_on_c, 0, 81, 0
2, 110640, Note_on_c, 0, 84, 0
2, 110640, Note_on_c, 0, 77, 109
2, 110640, Note_on_c, 0, 81, 109
2, 110640, Note_on_c, 0, 84, 109
2, 110640, Note_on_c, 0, 89, 109
2, 110880, Note_on_c, 0, 89, 0
2, 110880, Note_on_c, 0, 77, 0
2, 110880, Note_on_c, 0, 81, 0
2, 110880, Note_on_c, 0, 84, 0
2, 111060, Note_on_c, 0, 77, 83
2, 111060, Note_on_c, 0, 80, 83
2, 111060, Note_on_c, 0, 86, 83
2, 111060, Note_on_c, 0, 89, 83
2, 111120, Note_on_c, 0, 89, 0
2, 111120, Note_on_c, 0, 77, 0
2, 111120, Note_on_c, 0, 80, 0
2, 111120, Note_on_c, 0, 86, 0
2, 111120, Note_on_c, 0, 77, 109
2, 111120, Note_on_c, 0, 80, 109
2, 111120, Note_on_c, 0, 86, 109
2, 111120, Note_on_c, 0, 89, 109
2, 111360, Note_on_c, 0, 89, 0
2, 111360, Note_on_c, 0, 77, 0
2, 111360, Note_on_c, 0, 80, 0
2, 111360, Note_on_c, 0, 86, 0
2, 111540, Note_on_c, 0, 75, 83
2, 111540, Note_on_c, 0, 79, 83
2, 111540, Note_on_c, 0, 82, 83
2, 111540, Note_on_c, 0, 87, 83
2, 111600, Note_on_c, 0, 87, 0
2, 111600, Note_on_c, 0, 75, 0
2, 111600, Note_on_c, 0, 79, 0
2, 111600, Note_on_c, 0, 82, 0
2, 111600, Note_on_c, 0, 75, 109
2, 111600, Note_on_c, 0, 79, 109
2, 111600, Note_on_c, 0, 82, 109
2, 111600, Note_on_c, 0, 87, 109
2, 111840, Note_on_c, 0, 87, 0
2, 111840, Note_on_c, 0, 75, 0
2, 111840, Note_on_c, 0, 79, 0
2, 111840, Note_on_c, 0, 82, 0
2, 112020, Note_on_c, 0, 75, 83
2, 112020, Note_on_c, 0, 78, 83
2, 112020, Note_on_c, 0, 84, 83
2, 112020, Note_on_c, 0, 87, 83
2, 112080, Note_on_c, 0, 87, 0
2, 112080, Note_on_c, 0, 75, 0
2, 112080, Note_on_c, 0, 78, 0
2, 112080, Note_on_c, 0, 84, 0
2, 112080, Note_on_c, 0, 75, 109
2, 112080, Note_on_c, 0, 78, 109
2, 112080, Note_on_c, 0, 84, 109
2, 112080, Note_on_c, 0, 87, 109
2, 112320, Note_on_c, 0, 87, 0
2, 112320, Note_on_c, 0, 75, 0
2, 112320, Note_on_c, 0, 78, 0
2, 112320, Note_on_c, 0, 84, 0
2, 112500, Note_on_c, 0, 73, 83
2, 112500, Note_on_c, 0, 77, 83
2, 112500, Note_on_c, 0, 80, 83
2, 112500, Note_on_c, 0, 85, 83
2, 112560, Note_on_c, 0, 85, 0
2, 112560, Note_on_c, 0, 73, 0
2, 112560, Note_on_c, 0, 77, 0
2, 112560, Note_on_c, 0, 80, 0
2, 112560, Note_on_c, 0, 73, 109
2, 112560, Note_on_c, 0, 77, 109
2, 112560, Note_on_c, 0, 80, 109
2, 112560, Note_on_c, 0, 85, 109
2, 112800, Note_on_c, 0, 85, 0
2, 112800, Note_on_c, 0, 73, 0
2, 112800, Note_on_c, 0, 77, 0
2, 112800, Note_on_c, 0, 80, 0
2, 112980, Note_on_c, 0, 70, 83
2, 112980, Note_on_c, 0, 73, 83
2, 112980, Note_on_c, 0, 77, 83
2, 112980, Note_on_c, 0, 82, 83
2, 113040, Note_on_c, 0, 82, 0
2, 113040, Note_on_c, 0, 70, 0
2, 113040, Note_on_c, 0, 73, 0
2, 113040, Note_on_c, 0, 77, 0
2, 113040, Note_on_c, 0, 70, 109
2, 113040, Note_on_c, 0, 73, 109
2, 113040, Note_on_c, 0, 77, 109
2, 113040, Note_on_c, 0, 82, 109
2, 113280, Note_on_c, 0, 82, 0
2, 113280, Note_on_c, 0, 70, 0
2, 113280, Note_on_c, 0, 73, 0
2, 113280, Note_on_c, 0, 77, 0
2, 113460, Control_c, 0, 64, 127
2, 113460, Note_on_c, 0, 80, 83
2, 113460, Note_on_c, 0, 85, 83
2, 113460, Note_on_c, 0, 89, 83
2, 113460, Note_on_c, 0, 92, 83
2, 113520, Note_on_c, 0, 92, 0
2, 113520, Note_on_c, 0, 80, 0
2, 113520, Note_on_c, 0, 85, 0
2, 113520, Note_on_c, 0, 89, 0
2, 113520, Note_on_c, 0, 80, 83
2, 113520, Note_on_c, 0, 85, 83
2, 113520, Note_on_c, 0, 89, 83
2, 113520, Note_on_c, 0, 92, 83
2, 113700, Note_on_c, 0, 92, 0
2, 113700, Note_on_c, 0, 80, 0
2, 113700, Note_on_c, 0, 85, 0
2, 113700, Note_on_c, 0, 89, 0
2, 113700, Note_on_c, 0, 77, 83
2, 113700, Note_on_c, 0, 80, 83
2, 113700, Note_on_c, 0, 85, 83
2, 113700, Note_on_c, 0, 89, 83
2, 113760, Note_on_c, 0, 89, 0
2, 113760, Note_on_c, 0, 77, 0
2, 113760, Note_on_c, 0, 80, 0
2, 113760, Note_on_c, 0, 85, 0
2, 113760, Note_on_c, 0, 77, 83
2, 113760, Note_on_c, 0, 80, 83
2, 113760, Note_on_c, 0, 85, 83
2, 113760, Note_on_c, 0, 89, 83
2, 113940, Note_on_c, 0, 89, 0
2, 113940, Note_on_c, 0, 77, 0
2, 113940, Note_on_c, 0, 80, 0
2, 113940, Note_on_c, 0, 85, 0
2, 113940, Note_on_c, 0, 73, 83
2, 113940, Note_on_c, 0, 77, 83
2, 113940, Note_on_c, 0, 80, 83
2, 113940, Note_on_c, 0, 85, 83
2, 114000, Note_on_c, 0, 85, 0
2, 114000, Note_on_c, 0, 73, 0
2, 114000, Note_on_c, 0, 77, 0
2, 114000, Note_on_c, 0, 80, 0
2, 114000, Note_on_c, 0, 73, 83
2, 114000, Note_on_c, 0, 77, 83
2, 114000, Note_on_c, 0, 80, 83
2, 114000, Note_on_c, 0, 85, 83
2, 114180, Note_on_c, 0, 85, 0
2, 114180, Note_on_c, 0, 73, 0
2, 114180, Note_on_c, 0, 77, 0
2, 114180, Note_on_c, 0, 80, 0
2, 114180, Note_on_c, 0, 68, 83
2, 114180, Note_on_c, 0, 73, 83
2, 114180, Note_on_c, 0, 77, 83
2, 114180, Note_on_c, 0, 80, 83
2, 114240, Note_on_c, 0, 80, 0
2, 114240, Note_on_c, 0, 68, 0
2, 114240, Note_on_c, 0, 73, 0
2, 114240, Note_on_c, 0, 77, 0
2, 114240, Note_on_c, 0, 68, 83
2, 114240, Note_on_c, 0, 73, 83
2, 114240, Note_on_c, 0, 77, 83
2, 114240, Note_on_c, 0, 80, 83
2, 114420, Note_on_c, 0, 80, 0
2, 114420, Note_on_c, 0, 68, 0
2, 114420, Note_on_c, 0, 73, 0
2, 114420, Note_on_c, 0, 77, 0
2, 114420, Note_on_c, 0, 65, 83
2, 114420, Note_on_c, 0, 68, 83
2, 114420, Note_on_c, 0, 73, 83
2, 114420, Note_on_c, 0, 77, 83
2, 114480, Note_on_c, 0, 77, 0
2, 114480, Note_on_c, 0, 65, 0
2, 114480, Note_on_c, 0, 68, 0
2, 114480, Note_on_c, 0, 73, 0
2, 114480, Control_c, 0, 64, 0
2, 114480, Note_on_c, 0, 65, 83
2, 114480, Note_on_c, 0, 68, 83
2, 114480, Note_on_c, 0, 73, 83
2, 114480, Note_on_c, 0, 77, 83
2, 114720, Note_on_c, 0, 77, 0
2, 114720, Note_on_c, 0, 65, 0
2, 114720, Note_on_c, 0, 68, 0
2, 114720, Note_on_c, 0, 73, 0
2, 114900, Control_c, 0, 64, 127
2, 114900, Note_on_c, 0, 75, 83
2, 114900, Note_on_c, 0, 79, 83
2, 114900, Note_on_c, 0, 82, 83
2, 114900, Note_on_c, 0, 87, 83
2, 114960, Note_on_c, 0, 87, 0
2, 114960, Note_on_c, 0, 75, 0
2, 114960, Note_on_c, 0, 79, 0
2, 114960, Note_on_c, 0, 82, 0
2, 114960, Note_on_c, 0, 75, 83
2, 114960, Note_on_c, 0, 79, 83
2, 114960, Note_on_c, 0, 82, 83
2, 114960, Note_on_c, 0, 87, 83
2, 115140, Note_on_c, 0, 87, 0
2, 115140, Note_on_c, 0, 75, 0
2, 115140, Note_on_c, 0, 79, 0
2, 115140, Note_on_c, 0, 82, 0
2, 115140, Note_on_c, 0, 70, 83
2, 115140, Note_on_c, 0, 75, 83
2, 115140, Note_on_c, 0, 79, 83
2, 115140, Note_on_c, 0, 82, 83
2, 115200, Note_on_c, 0, 82, 0
2, 115200, Note_on_c, 0, 70, 0
2, 115200, Note_on_c, 0, 75, 0
2, 115200, Note_on_c, 0, 79, 0
2, 115200, Note_on_c, 0, 70, 83
2, 115200, Note_on_c, 0, 75, 83
2, 115200, Note_on_c, 0, 79, 83
2, 115200, Note_on_c, 0, 82, 83
2, 115380, Note_on_c, 0, 82, 0
2, 115380, Note_on_c, 0, 70, 0
2, 115380, Note_on_c, 0, 75, 0
2, 115380, Note_on_c, 0, 79, 0
2, 115380, Note_on_c, 0, 67, 83
2, 115380, Note_on_c, 0, 70, 83
2, 115380, Note_on_c, 0, 75, 83
2, 115380, Note_on_c, 0, 79, 83
2, 115440, Note_on_c, 0, 79, 0
2, 115440, Note_on_c, 0, 67, 0
2, 115440, Note_on_c, 0, 70, 0
2, 115440, Note_on_c, 0, 75, 0
2, 115440, Note_on_c, 0, 67, 83
2, 115440, Note_on_c, 0, 70, 83
2, 115440, Note_on_c, 0, 75, 83
2, 115440, Note_on_c, 0, 79, 83
2, 115680, Note_on_c, 0, 79, 0
2, 115680, Note_on_c, 0, 67, 0
2, 115680, Note_on_c, 0, 70, 0
2, 115680, Note_on_c, 0, 75, 0
2, 115680, Control_c, 0, 64, 0
2, 115860, Note_on_c, 0, 66, 83
2, 115860, Note_on_c, 0, 68, 83
2, 115860, Note_on_c, 0, 75, 83
2, 115860, Note_on_c, 0, 78, 83
2, 115920, Note_on_c, 0, 78, 0
2, 115920, Note_on_c, 0, 66, 0
2, 115920, Note_on_c, 0, 68, 0
2, 115920, Note_on_c, 0, 75, 0
2, 115920, Note_on_c, 0, 66, 83
2, 115920, Note_on_c, 0, 68, 83
2, 115920, Note_on_c, 0, 75, 83
2, 115920, Note_on_c, 0, 78, 83
2, 116160, Note_on_c, 0, 78, 0
2, 116160, Note_on_c, 0, 66, 0
2, 116160, Note_on_c, 0, 68, 0
2, 116160, Note_on_c, 0, 75, 0
2, 116340, Note_on_c, 0, 65, 83
2, 116340, Note_on_c, 0, 68, 83
2, 116340, Note_on_c, 0, 73, 83
2, 116340, Note_on_c, 0, 77, 83
2, 116400, Note_on_c, 0, 77, 0
2, 116400, Note_on_c, 0, 65, 0
2, 116400, Note_on_c, 0, 68, 0
2, 116400, Note_on_c, 0, 73, 0
2, 116400, Note_on_c, 0, 65, 83
2, 116400, Note_on_c, 0, 68, 83
2, 116400, Note_on_c, 0, 73, 83
2, 116400, Note_on_c, 0, 77, 83
2, 116580, Note_on_c, 0, 77, 0
2, 116580, Note_on_c, 0, 65, 0
2, 116580, Note_on_c, 0, 68, 0
2, 116580, Note_on_c, 0, 73, 0
2, 116580, Note_on_c, 0, 65, 83
2, 116580, Note_on_c, 0, 68, 83
2, 116580, Note_on_c, 0, 73, 83
2, 116640, Note_on_c, 0, 73, 0
2, 116640, Note_on_c, 0, 68, 0
2, 116640, Note_on_c, 0, 65, 0
2, 116640, Note_on_c, 0, 65, 83
2, 116640, Note_on_c, 0, 68, 83
2, 116640, Note_on_c, 0, 73, 83
2, 116880, Note_on_c, 0, 73, 0
2, 116880, Note_on_c, 0, 68, 0
2, 116880, Note_on_c, 0, 65, 0
2, 117759, Note_on_c, 0, 86, 57
2, 117759, Note_on_c, 0, 92, 57
2, 117759, Note_on_c, 0, 98, 57
2, 117791, Note_on_c, 0, 98, 0
2, 117791, Note_on_c, 0, 92, 0
2, 117791, Note_on_c, 0, 86, 0
2, 117920, Note_on_c, 0, 83, 57
2, 117920, Note_on_c, 0, 95, 57
2, 117952, Note_on_c, 0, 95, 0
2, 117952, Note_on_c, 0, 83, 0
2, 118080, Note_on_c, 0, 80, 57
2, 118080, Note_on_c, 0, 83, 57
2, 118080, Note_on_c, 0, 92, 57
2, 118111, Note_on_c, 0, 92, 0
2, 118111, Note_on_c, 0, 83, 0
2, 118111, Note_on_c, 0, 80, 0
2, 118239, Note_on_c, 0, 80, 57
2, 118239, Note_on_c, 0, 89, 57
2, 118271, Note_on_c, 0, 89, 0
2, 118271, Note_on_c, 0, 80, 0
2, 118400, Note_on_c, 0, 77, 57
2, 118400, Note_on_c, 0, 83, 57
2, 118432, Note_on_c, 0, 83, 0
2, 118432, Note_on_c, 0, 77, 0
2, 118560, Note_on_c, 0, 71, 57
2, 118560, Note_on_c, 0, 80, 57
2, 118591, Note_on_c, 0, 80, 0
2, 118591, Note_on_c, 0, 71, 0
2, 118719, Note_on_c, 0, 68, 57
2, 118719, Note_on_c, 0, 77, 57
2, 118751, Note_on_c, 0, 77, 0
2, 118751, Note_on_c, 0, 68, 0
2, 118880, Note_on_c, 0, 62, 57
2, 118880, Note_on_c, 0, 68, 57
2, 118880, Note_on_c, 0, 71, 57
2, 118912, Note_on_c, 0, 71, 0
2, 118912, Note_on_c, 0, 68, 0
2, 118912, Note_on_c, 0, 62, 0
2, 119040, Note_on_c, 0, 49, 57
2, 119040, Note_on_c, 0, 54, 57
2, 119040, Note_on_c, 0, 57, 57
2, 119040, Note_on_c, 0, 61, 57
2, 119040, Note_on_c, 0, 66, 57
2, 119040, Note_on_c, 0, 69, 57
2, 119087, Note_on_c, 0, 69, 0
2, 119087, Note_on_c, 0, 54, 0
2, 119087, Note_on_c, 0, 57, 0
2, 119087, Note_on_c, 0, 49, 0
2, 119087, Note_on_c, 0, 66, 0
2, 119087, Note_on_c, 0, 61, 0
2, 120639, Note_on_c, 0, 84, 57
2, 120639, Note_on_c, 0, 90, 57
2, 120639, Note_on_c, 0, 96, 57
2, 120671, Note_on_c, 0, 96, 0
2, 120671, Note_on_c, 0, 90, 0
2, 120671, Note_on_c, 0, 84, 0
2, 120800, Note_on_c, 0, 81, 57
2, 120800, Note_on_c, 0, 93, 57
2, 120832, Note_on_c, 0, 93, 0
2, 120832, Note_on_c, 0, 81, 0
2, 120960, Note_on_c, 0, 78, 57
2, 120960, Note_on_c, 0, 84, 57
2, 120960, Note_on_c, 0, 90, 57
2, 120991, Note_on_c, 0, 90, 0
2, 120991, Note_on_c, 0, 84, 0
2, 120991, Note_on_c, 0, 78, 0
2, 121119, Note_on_c, 0, 78, 57
2, 121119, Note_on_c, 0, 87, 57
2, 121151, Note_on_c, 0, 87, 0
2, 121151, Note_on_c, 0, 78, 0
2, 121280, Note_on_c, 0, 75, 57
2, 121280, Note_on_c, 0, 84, 57
2, 121312, Note_on_c, 0, 84, 0
2, 121312, Note_on_c, 0, 75, 0
2, 121440, Note_on_c, 0, 72, 57
2, 121440, Note_on_c, 0, 78, 57
2, 121471, Note_on_c, 0, 78, 0
2, 121471, Note_on_c, 0, 72, 0
2, 121599, Note_on_c, 0, 66, 57
2, 121599, Note_on_c, 0, 75, 57
2, 121631, Note_on_c, 0, 75, 0
2, 121631, Note_on_c, 0, 66, 0
2, 121760, Note_on_c, 0, 63, 57
2, 121760, Note_on_c, 0, 66, 57
2, 121760, Note_on_c, 0, 72, 57
2, 121792, Note_on_c, 0, 72, 0
2, 121792, Note_on_c, 0, 66, 0
2, 121792, Note_on_c, 0, 63, 0
2, 121920, Note_on_c, 0, 65, 57
2, 121920, Note_on_c, 0, 68, 57
2, 121920, Note_on_c, 0, 73, 57
2, 121967, Note_on_c, 0, 73, 0
2, 121967, Note_on_c, 0, 68, 0
2, 121967, Note_on_c, 0, 65, 0
2, 123519, Note_on_c, 0, 83, 57
2, 123519, Note_on_c, 0, 86, 57
2, 123551, Note_on_c, 0, 86, 0
2, 123551, Note_on_c, 0, 83, 0
2, 123680, Note_on_c, 0, 80, 57
2, 123680, Note_on_c, 0, 83, 57
2, 123712, Note_on_c, 0, 83, 0
2, 123712, Note_on_c, 0, 80, 0
2, 123840, Note_on_c, 0, 77, 57
2, 123840, Note_on_c, 0, 80, 57
2, 123871, Note_on_c, 0, 80, 0
2, 123871, Note_on_c, 0, 77, 0
2, 123999, Note_on_c, 0, 71, 57
2, 123999, Note_on_c, 0, 77, 57
2, 124031, Note_on_c, 0, 77, 0
2, 124031, Note_on_c, 0, 71, 0
2, 124160, Note_on_c, 0, 68, 57
2, 124160, Note_on_c, 0, 71, 57
2, 124192, Note_on_c, 0, 71, 0
2, 124192, Note_on_c, 0, 68, 0
2, 124320, Note_on_c, 0, 65, 57
2, 124320, Note_on_c, 0, 68, 57
2, 124351, Note_on_c, 0, 68, 0
2, 124351, Note_on_c, 0, 65, 0
2, 124479, Note_on_c, 0, 59, 57
2, 124479, Note_on_c, 0, 65, 57
2, 124511, Note_on_c, 0, 65, 0
2, 124511, Note_on_c, 0, 59, 0
2, 124640, Note_on_c, 0, 56, 57
2, 124640, Note_on_c, 0, 59, 57
2, 124672, Note_on_c, 0, 59, 0
2, 124672, Note_on_c, 0, 56, 0
2, 124800, Note_on_c, 0, 54, 57
2, 124800, Note_on_c, 0, 57, 57
2, 124847, Note_on_c, 0, 57, 0
2, 124847, Note_on_c, 0, 54, 0
2, 126399, Note_on_c, 0, 81, 57
2, 126399, Note_on_c, 0, 84, 57
2, 126431, Note_on_c, 0, 84, 0
2, 126431, Note_on_c, 0, 81, 0
2, 126560, Note_on_c, 0, 78, 57
2, 126560, Note_on_c, 0, 81, 57
2, 126592, Note_on_c, 0, 81, 0
2, 126592, Note_on_c, 0, 78, 0
2, 126720, Note_on_c, 0, 75, 57
2, 126720, Note_on_c, 0, 78, 57
2, 126751, Note_on_c, 0, 78, 0
2, 126751, Note_on_c, 0, 75, 0
2, 126879, Note_on_c, 0, 72, 57
2, 126879, Note_on_c, 0, 75, 57
2, 126911, Note_on_c, 0, 75, 0
2, 126911, Note_on_c, 0, 72, 0
2, 127040, Note_on_c, 0, 66, 57
2, 127040, Note_on_c, 0, 72, 57
2, 127072, Note_on_c, 0, 72, 0
2, 127072, Note_on_c, 0, 66, 0
2, 127200, Note_on_c, 0, 63, 57
2, 127200, Note_on_c, 0, 66, 57
2, 127231, Note_on_c, 0, 66, 0
2, 127231, Note_on_c, 0, 63, 0
2, 127359, Note_on_c, 0, 60, 57
2, 127359, Note_on_c, 0, 63, 57
2, 127391, Note_on_c, 0, 63, 0
2, 127391, Note_on_c, 0, 60, 0
2, 127520, Note_on_c, 0, 54, 57
2, 127520, Note_on_c, 0, 60, 57
2, 127552, Note_on_c, 0, 60, 0
2, 127552, Note_on_c, 0, 54, 0
2, 127680, Note_on_c, 0, 56, 57
2, 127680, Note_on_c, 0, 61, 57
2, 127727, Note_on_c, 0, 61, 0
2, 127727, Note_on_c, 0, 56, 0
2, 140880, Note_on_c, 0, 60, 57
2, 140880, Note_on_c, 0, 72, 57
2, 141120, Note_on_c, 0, 72, 0
2, 141120, Note_on_c, 0, 60, 0
2, 141120, Note_on_c, 0, 62, 57
2, 141120, Note_on_c, 0, 74, 57
2, 141360, Note_on_c, 0, 74, 0
2, 141360, Note_on_c, 0, 62, 0
2, 141360, Note_on_c, 0, 65, 57
2, 141360, Note_on_c, 0, 77, 57
2, 141600, Note_on_c, 0, 77, 0
2, 141600, Note_on_c, 0, 65, 0
2, 141600, Note_on_c, 0, 68, 57
2, 141600, Note_on_c, 0, 80, 57
2, 141840, Note_on_c, 0, 80, 0
2, 141840, Note_on_c, 0, 68, 0
2, 141840, Note_on_c, 0, 72, 57
2, 141840, Note_on_c, 0, 84, 57
2, 142080, Note_on_c, 0, 84, 0
2, 142080, Note_on_c, 0, 72, 0
2, 142080, Note_on_c, 0, 73, 57
2, 142080, Note_on_c, 0, 85, 57
2, 142320, Note_on_c, 0, 85, 0
2, 142320, Note_on_c, 0, 73, 0
2, 142320, Note_on_c, 0, 67, 57
2, 142320, Note_on_c, 0, 79, 57
2, 142560, Note_on_c, 0, 79, 0
2, 142560, Note_on_c, 0, 67, 0
2, 142560, Note_on_c, 0, 72, 57
2, 142560, Note_on_c, 0, 84, 57
2, 142800, Note_on_c, 0, 84, 0
2, 142800, Note_on_c, 0, 72, 0
2, 142800, Note_on_c, 0, 74, 57
2, 142800, Note_on_c, 0, 86, 57
2, 143040, Note_on_c, 0, 86, 0
2, 143040, Note_on_c, 0, 74, 0
2, 143040, Note_on_c, 0, 77, 57
2, 143040, Note_on_c, 0, 89, 57
2, 143280, Note_on_c, 0, 89, 0
2, 143280, Note_on_c, 0, 77, 0
2, 143280, Note_on_c, 0, 79, 57
2, 143280, Note_on_c, 0, 91, 57
2, 143520, Note_on_c, 0, 91, 0
2, 143520, Note_on_c, 0, 79, 0
2, 143520, Note_on_c, 0, 84, 70
2, 143520, Note_on_c, 0, 96, 70
2, 143567, Note_on_c, 0, 96, 0
2, 143567, Note_on_c, 0, 84, 0
2, 143760, Note_on_c, 0, 85, 70
2, 143760, Note_on_c, 0, 97, 70
2, 144000, Note_on_c, 0, 97, 0
2, 144000, Note_on_c, 0, 85, 0
2, 144000, Note_on_c, 0, 86, 70
2, 144000, Note_on_c, 0, 98, 70
2, 144240, Note_on_c, 0, 98, 0
2, 144240, Note_on_c, 0, 86, 0
2, 144240, Note_on_c, 0, 79, 70
2, 144240, Note_on_c, 0, 91, 70
2, 144480, Note_on_c, 0, 91, 0
2, 144480, Note_on_c, 0, 79, 0
2, 144480, Note_on_c, 0, 82, 70
2, 144480, Note_on_c, 0, 94, 70
2, 144720, Note_on_c, 0, 94, 0
2, 144720, Note_on_c, 0, 82, 0
2, 144720, Note_on_c, 0, 81, 70
2, 144720, Note_on_c, 0, 93, 70
2, 144767, Note_on_c, 0, 93, 0
2, 144767, Note_on_c, 0, 81, 0
2, 144960, Note_on_c, 0, 84, 70
2, 144960, Note_on_c, 0, 96, 70
2, 145007, Note_on_c, 0, 96, 0
2, 145007, Note_on_c, 0, 84, 0
2, 145200, Note_on_c, 0, 78, 70
2, 145200, Note_on_c, 0, 90, 70
2, 145440, Note_on_c, 0, 90, 0
2, 145440, Note_on_c, 0, 78, 0
2, 145440, Note_on_c, 0, 80, 70
2, 145440, Note_on_c, 0, 92, 70
2, 145680, Note_on_c, 0, 92, 0
2, 145680, Note_on_c, 0, 80, 0
2, 145680, Note_on_c, 0, 79, 70
2, 145680, Note_on_c, 0, 91, 70
2, 145727, Note_on_c, 0, 91, 0
2, 145727, Note_on_c, 0, 79, 0
2, 145920, Note_on_c, 0, 76, 70
2, 145920, Note_on_c, 0, 88, 70
2, 145967, Note_on_c, 0, 88, 0
2, 145967, Note_on_c, 0, 76, 0
2, 146160, Note_on_c, 0, 71, 70
2, 146160, Note_on_c, 0, 83, 70
2, 146207, Note_on_c, 0, 83, 0
2, 146207, Note_on_c, 0, 71, 0
2, 146400, Note_on_c, 0, 73, 57
2, 146400, Note_on_c, 0, 85, 57
2, 146640, Note_on_c, 0, 85, 0
2, 146640, Note_on_c, 0, 73, 0
2, 146640, Note_on_c, 0, 72, 57
2, 146640, Note_on_c, 0, 84, 57
2, 146880, Note_on_c, 0, 84, 0
2, 146880, Note_on_c, 0, 72, 0
2, 146880, Note_on_c, 0, 68, 57
2, 146880, Note_on_c, 0, 80, 57
2, 146927, Note_on_c, 0, 80, 0
2, 146927, Note_on_c, 0, 68, 0
2, 147120, Note_on_c, 0, 67, 57
2, 147120, Note_on_c, 0, 79, 57
2, 147167, Note_on_c, 0, 79, 0
2, 147167, Note_on_c, 0, 67, 0
2, 147360, Note_on_c, 0, 64, 57
2, 147360, Note_on_c, 0, 76, 57
2, 147407, Note_on_c, 0, 76, 0
2, 147407, Note_on_c, 0, 64, 0
2, 147600, Note_on_c, 0, 59, 57
2, 147600, Note_on_c, 0, 71, 57
2, 147647, Note_on_c, 0, 71, 0
2, 147647, Note_on_c, 0, 59, 0
2, 147840, Note_on_c, 0, 61, 57
2, 147840, Note_on_c, 0, 73, 57
2, 148080, Note_on_c, 0, 73, 0
2, 148080, Note_on_c, 0, 61, 0
2, 148080, Note_on_c, 0, 60, 57
2, 148080, Note_on_c, 0, 72, 57
2, 148320, Note_on_c, 0, 72, 0
2, 148320, Note_on_c, 0, 60, 0
2, 148320, Note_on_c, 0, 68, 57
2, 148367, Note_on_c, 0, 68, 0
2, 148560, Note_on_c, 0, 64, 57
2, 148607, Note_on_c, 0, 64, 0
2, 148800, Note_on_c, 0, 59, 57
2, 148847, Note_on_c, 0, 59, 0
2, 149040, Note_on_c, 0, 60, 57
2, 149087, Note_on_c, 0, 60, 0
2, 149280, Note_on_c, 0, 61, 57
2, 149376, Note_on_c, 0, 61, 0
2, 149760, Note_on_c, 0, 55, 57
2, 149856, Note_on_c, 0, 55, 0
2, 150240, Note_on_c, 0, 60, 57
2, 150336, Note_on_c, 0, 60, 0
2, 160800, Note_on_c, 0, 52, 57
2, 160800, Note_on_c, 0, 64, 57
2, 160959, Note_on_c, 0, 64, 0
2, 160959, Note_on_c, 0, 52, 0
2, 160959, Note_on_c, 0, 53, 57
2, 160959, Note_on_c, 0, 65, 57
2, 161120, Note_on_c, 0, 65, 0
2, 161120, Note_on_c, 0, 53, 0
2, 161280, Note_on_c, 0, 54, 57
2, 161280, Note_on_c, 0, 66, 57
2, 161439, Note_on_c, 0, 66, 0
2, 161439, Note_on_c, 0, 54, 0
2, 161439, Note_on_c, 0, 53, 57
2, 161439, Note_on_c, 0, 65, 57
2, 161600, Note_on_c, 0, 65, 0
2, 161600, Note_on_c, 0, 53, 0
2, 161760, Note_on_c, 0, 58, 57
2, 161760, Note_on_c, 0, 70, 57
2, 161919, Note_on_c, 0, 70, 0
2, 161919, Note_on_c, 0, 58, 0
2, 161919, Note_on_c, 0, 57, 57
2, 161919, Note_on_c, 0, 69, 57
2, 162080, Note_on_c, 0, 69, 0
2, 162080, Note_on_c, 0, 57, 0
2, 162240, Note_on_c, 0, 56, 57
2, 162240, Note_on_c, 0, 68, 57
2, 162399, Note_on_c, 0, 68, 0
2, 162399, Note_on_c, 0, 56, 0
2, 162399, Note_on_c, 0, 57, 57
2, 162399, Note_on_c, 0, 69, 57
2, 162560, Note_on_c, 0, 69, 0
2, 162560, Note_on_c, 0, 57, 0
2, 162720, Note_on_c, 0, 59, 57
2, 162720, Note_on_c, 0, 71, 57
2, 162879, Note_on_c, 0, 71, 0
2, 162879, Note_on_c, 0, 59, 0
2, 162879, Note_on_c, 0, 60, 57
2, 162879, Note_on_c, 0, 72, 57
2, 163040, Note_on_c, 0, 72, 0
2, 163040, Note_on_c, 0, 60, 0
2, 163200, Note_on_c, 0, 61, 57
2, 163200, Note_on_c, 0, 73, 57
2, 163359, Note_on_c, 0, 73, 0
2, 163359, Note_on_c, 0, 61, 0
2, 163359, Note_on_c, 0, 60, 57
2, 163359, Note_on_c, 0, 72, 57
2, 163520, Note_on_c, 0, 72, 0
2, 163520, Note_on_c, 0, 60, 0
2, 163680, Note_on_c, 0, 66, 57
2, 163680, Note_on_c, 0, 78, 57
2, 163839, Note_on_c, 0, 78, 0
2, 163839, Note_on_c, 0, 66, 0
2, 163839, Note_on_c, 0, 65, 57
2, 163839, Note_on_c, 0, 77, 57
2, 164000, Note_on_c, 0, 77, 0
2, 164000, Note_on_c, 0, 65, 0
2, 164160, Note_on_c, 0, 64, 57
2, 164160, Note_on_c, 0, 76, 57
2, 164319, Note_on_c, 0, 76, 0
2, 164319, Note_on_c, 0, 64, 0
2, 164319, Note_on_c, 0, 65, 57
2, 164319, Note_on_c, 0, 77, 57
2, 164480, Note_on_c, 0, 77, 0
2, 164480, Note_on_c, 0, 65, 0
2, 164640, Note_on_c, 0, 68, 57
2, 164640, Note_on_c, 0, 80, 57
2, 164799, Note_on_c, 0, 80, 0
2, 164799, Note_on_c, 0, 68, 0
2, 164799, Note_on_c, 0, 69, 57
2, 164799, Note_on_c, 0, 81, 57
2, 164960, Note_on_c, 0, 81, 0
2, 164960, Note_on_c, 0, 69, 0
2, 165120, Note_on_c, 0, 70, 57
2, 165120, Note_on_c, 0, 82, 57
2, 165279, Note_on_c, 0, 82, 0
2, 165279, Note_on_c, 0, 70, 0
2, 165279, Note_on_c, 0, 69, 57
2, 165279, Note_on_c, 0, 81, 57
2, 165440, Note_on_c, 0, 81, 0
2, 165440, Note_on_c, 0, 69, 0
2, 165600, Note_on_c, 0, 73, 57
2, 165600, Note_on_c, 0, 85, 57
2, 165759, Note_on_c, 0, 85, 0
2, 165759, Note_on_c, 0, 73, 0
2, 165759, Note_on_c, 0, 72, 57
2, 165759, Note_on_c, 0, 84, 57
2, 165920, Note_on_c, 0, 84, 0
2, 165920, Note_on_c, 0, 72, 0
2, 166080, Note_on_c, 0, 71, 57
2, 166080, Note_on_c, 0, 83, 57
2, 166239, Note_on_c, 0, 83, 0
2, 166239, Note_on_c, 0, 71, 0
2, 166239, Note_on_c, 0, 72, 57
2, 166239, Note_on_c, 0, 84, 57
2, 166400, Note_on_c, 0, 84, 0
2, 166400, Note_on_c, 0, 72, 0
2, 166560, Note_on_c, 0, 78, 57
2, 166560, Note_on_c, 0, 90, 57
2, 166719, Note_on_c, 0, 90, 0
2, 166719, Note_on_c, 0, 78, 0
2, 166719, Note_on_c, 0, 77, 57
2, 166719, Note_on_c, 0, 89, 57
2, 166880, Note_on_c, 0, 89, 0
2, 166880, Note_on_c, 0, 77, 0
2, 167040, Note_on_c, 0, 76, 57
2, 167040, Note_on_c, 0, 88, 57
2, 167199, Note_on_c, 0, 88, 0
2, 167199, Note_on_c, 0, 76, 0
2, 167199, Note_on_c, 0, 77, 57
2, 167199, Note_on_c, 0, 89, 57
2, 167360, Note_on_c, 0, 89, 0
2, 167360, Note_on_c, 0, 77, 0
2, 167520, Note_on_c, 0, 78, 57
2, 167520, Note_on_c, 0, 90, 57
2, 167679, Note_on_c, 0, 90, 0
2, 167679, Note_on_c, 0, 78, 0
2, 167679, Note_on_c, 0, 77, 57
2, 167679, Note_on_c, 0, 89, 57
2, 167840, Note_on_c, 0, 89, 0
2, 167840, Note_on_c, 0, 77, 0
2, 168000, Note_on_c, 0, 76, 57
2, 168000, Note_on_c, 0, 88, 57
2, 168159, Note_on_c, 0, 88, 0
2, 168159, Note_on_c, 0, 76, 0
2, 168159, Note_on_c, 0, 77, 57
2, 168159, Note_on_c, 0, 89, 57
2, 168320, Note_on_c, 0, 89, 0
2, 168320, Note_on_c, 0, 77, 0
2, 168480, Note_on_c, 0, 73, 57
2, 168480, Note_on_c, 0, 85, 57
2, 168639, Note_on_c, 0, 85, 0
2, 168639, Note_on_c, 0, 73, 0
2, 168639, Note_on_c, 0, 72, 57
2, 168639, Note_on_c, 0, 84, 57
2, 168800, Note_on_c, 0, 84, 0
2, 168800, Note_on_c, 0, 72, 0
2, 168960, Note_on_c, 0, 71, 57
2, 168960, Note_on_c, 0, 83, 57
2, 169119, Note_on_c, 0, 83, 0
2, 169119, Note_on_c, 0, 71, 0
2, 169119, Note_on_c, 0, 72, 57
2, 169119, Note_on_c, 0, 84, 57
2, 169280, Note_on_c, 0, 84, 0
2, 169280, Note_on_c, 0, 72, 0
2, 169440, Note_on_c, 0, 73, 57
2, 169440, Note_on_c, 0, 85, 57
2, 169599, Note_on_c, 0, 85, 0
2, 169599, Note_on_c, 0, 73, 0
2, 169599, Note_on_c, 0, 72, 57
2, 169599, Note_on_c, 0, 84, 57
2, 169760, Note_on_c, 0, 84, 0
2, 169760, Note_on_c, 0, 72, 0
2, 169920, Note_on_c, 0, 71, 57
2, 169920, Note_on_c, 0, 83, 57
2, 170079, Note_on_c, 0, 83, 0
2, 170079, Note_on_c, 0, 71, 0
2, 170079, Note_on_c, 0, 72, 57
2, 170079, Note_on_c, 0, 84, 57
2, 170240, Note_on_c, 0, 84, 0
2, 170240, Note_on_c, 0, 72, 0
2, 170400, Note_on_c, 0, 70, 57
2, 170400, Note_on_c, 0, 82, 57
2, 170559, Note_on_c, 0, 82, 0
2, 170559, Note_on_c, 0, 70, 0
2, 170559, Note_on_c, 0, 69, 57
2, 170559, Note_on_c, 0, 81, 57
2, 170720, Note_on_c, 0, 81, 0
2, 170720, Note_on_c, 0, 69, 0
2, 170880, Note_on_c, 0, 68, 57
2, 170880, Note_on_c, 0, 80, 57
2, 171039, Note_on_c, 0, 80, 0
2, 171039, Note_on_c, 0, 68, 0
2, 171039, Note_on_c, 0, 69, 57
2, 171039, Note_on_c, 0, 81, 57
2, 171200, Note_on_c, 0, 81, 0
2, 171200, Note_on_c, 0, 69, 0
2, 171360, Note_on_c, 0, 66, 57
2, 171360, Note_on_c, 0, 78, 57
2, 171519, Note_on_c, 0, 78, 0
2, 171519, Note_on_c, 0, 66, 0
2, 171519, Note_on_c, 0, 65, 57
2, 171519, Note_on_c, 0, 77, 57
2, 171680, Note_on_c, 0, 77, 0
2, 171680, Note_on_c, 0, 65, 0
2, 171840, Note_on_c, 0, 64, 57
2, 171840, Note_on_c, 0, 76, 57
2, 171999, Note_on_c, 0, 76, 0
2, 171999, Note_on_c, 0, 64, 0
2, 171999, Note_on_c, 0, 65, 57
2, 171999, Note_on_c, 0, 77, 57
2, 172160, Note_on_c, 0, 77, 0
2, 172160, Note_on_c, 0, 65, 0
2, 172320, Note_on_c, 0, 70, 57
2, 172320, Note_on_c, 0, 82, 57
2, 172479, Note_on_c, 0, 82, 0
2, 172479, Note_on_c, 0, 70, 0
2, 172479, Note_on_c, 0, 72, 57
2, 172479, Note_on_c, 0, 84, 57
2, 172640, Note_on_c, 0, 84, 0
2, 172640, Note_on_c, 0, 72, 0
2, 172800, Note_on_c, 0, 73, 57
2, 172800, Note_on_c, 0, 85, 57
2, 172959, Note_on_c, 0, 85, 0
2, 172959, Note_on_c, 0, 73, 0
2, 172959, Note_on_c, 0, 72, 57
2, 172959, Note_on_c, 0, 84, 57
2, 173120, Note_on_c, 0, 84, 0
2, 173120, Note_on_c, 0, 72, 0
2, 173280, Note_on_c, 0, 75, 57
2, 173280, Note_on_c, 0, 87, 57
2, 173439, Note_on_c, 0, 87, 0
2, 173439, Note_on_c, 0, 75, 0
2, 173439, Note_on_c, 0, 73, 57
2, 173439, Note_on_c, 0, 85, 57
2, 173600, Note_on_c, 0, 85, 0
2, 173600, Note_on_c, 0, 73, 0
2, 173760, Note_on_c, 0, 72, 57
2, 173760, Note_on_c, 0, 84, 57
2, 173919, Note_on_c, 0, 84, 0
2, 173919, Note_on_c, 0, 72, 0
2, 173919, Note_on_c, 0, 70, 57
2, 173919, Note_on_c, 0, 82, 57
2, 174080, Note_on_c, 0, 82, 0
2, 174080, Note_on_c, 0, 70, 0
2, 174240, Note_on_c, 0, 69, 57
2, 174240, Note_on_c, 0, 81, 57
2, 174399, Note_on_c, 0, 81, 0
2, 174399, Note_on_c, 0, 69, 0
2, 174399, Note_on_c, 0, 65, 57
2, 174399, Note_on_c, 0, 77, 57
2, 174560, Note_on_c, 0, 77, 0
2, 174560, Note_on_c, 0, 65, 0
2, 175200, Note_on_c, 0, 69, 57
2, 175200, Note_on_c, 0, 81, 57
2, 175359, Note_on_c, 0, 81, 0
2, 175359, Note_on_c, 0, 69, 0
2, 175359, Note_on_c, 0, 65, 57
2, 175359, Note_on_c, 0, 77, 57
2, 175520, Note_on_c, 0, 77, 0
2, 175520, Note_on_c, 0, 65, 0
2, 176160, Note_on_c, 0, 64, 57
2, 176160, Note_on_c, 0, 76, 57
2, 176319, Note_on_c, 0, 76, 0
2, 176319, Note_on_c, 0, 64, 0
2, 176319, Note_on_c, 0, 65, 57
2, 176319, Note_on_c, 0, 77, 57
2, 176480, Note_on_c, 0, 77, 0
2, 176480, Note_on_c, 0, 65, 0
2, 176640, Note_on_c, 0, 70, 57
2, 176640, Note_on_c, 0, 82, 57
2, 176799, Note_on_c, 0, 82, 0
2, 176799, Note_on_c, 0, 70, 0
2, 176799, Note_on_c, 0, 65, 57
2, 176799, Note_on_c, 0, 77, 57
2, 176960, Note_on_c, 0, 77, 0
2, 176960, Note_on_c, 0, 65, 0
2, 177120, Note_on_c, 0, 63, 57
2, 177120, Note_on_c, 0, 75, 57
2, 177279, Note_on_c, 0, 75, 0
2, 177279, Note_on_c, 0, 63, 0
2, 177279, Note_on_c, 0, 61, 57
2, 177279, Note_on_c, 0, 73, 57
2, 177440, Note_on_c, 0, 73, 0
2, 177440, Note_on_c, 0, 61, 0
2, 177600, Note_on_c, 0, 60, 57
2, 177600, Note_on_c, 0, 72, 57
2, 177759, Note_on_c, 0, 72, 0
2, 177759, Note_on_c, 0, 60, 0
2, 177759, Note_on_c, 0, 58, 57
2, 177759, Note_on_c, 0, 70, 57
2, 177920, Note_on_c, 0, 70, 0
2, 177920, Note_on_c, 0, 58, 0
2, 178080, Note_on_c, 0, 60, 57
2, 178080, Note_on_c, 0, 72, 57
2, 178127, Note_on_c, 0, 72, 0
2, 178127, Note_on_c, 0, 60, 0
2, 178560, Note_on_c, 0, 72, 57
2, 178560, Note_on_c, 0, 84, 57
2, 178607, Note_on_c, 0, 84, 0
2, 178607, Note_on_c, 0, 72, 0
2, 179040, Note_on_c, 0, 84, 57
2, 179040, Note_on_c, 0, 96, 57
2, 179087, Note_on_c, 0, 96, 0
2, 179087, Note_on_c, 0, 84, 0
2, 180000, Note_on_c, 0, 70, 57
2, 180000, Note_on_c, 0, 82, 57
2, 180159, Note_on_c, 0, 82, 0
2, 180159, Note_on_c, 0, 70, 0
2, 180159, Note_on_c, 0, 72, 57
2, 180159, Note_on_c, 0, 84, 57
2, 180320, Note_on_c, 0, 84, 0
2, 180320, Note_on_c, 0, 72, 0
2, 180480, Note_on_c, 0, 73, 57
2, 180480, Note_on_c, 0, 85, 57
2, 180639, Note_on_c, 0, 85, 0
2, 180639, Note_on_c, 0, 73, 0
2, 180639, Note_on_c, 0, 72, 57
2, 180639, Note_on_c, 0, 84, 57
2, 180800, Note_on_c, 0, 84, 0
2, 180800, Note_on_c, 0, 72, 0
2, 180960, Note_on_c, 0, 75, 57
2, 180960, Note_on_c, 0, 87, 57
2, 181119, Note_on_c, 0, 87, 0
2, 181119, Note_on_c, 0, 75, 0
2, 181119, Note_on_c, 0, 73, 57
2, 181119, Note_on_c, 0, 85, 57
2, 181280, Note_on_c, 0, 85, 0
2, 181280, Note_on_c, 0, 73, 0
2, 181440, Note_on_c, 0, 72, 57
2, 181440, Note_on_c, 0, 84, 57
2, 181599, Note_on_c, 0, 84, 0
2, 181599, Note_on_c, 0, 72, 0
2, 181599, Note_on_c, 0, 70, 57
2, 181599, Note_on_c, 0, 82, 57
2, 181760, Note_on_c, 0, 82, 0
2, 181760, Note_on_c, 0, 70, 0
2, 181920, Note_on_c, 0, 69, 57
2, 181920, Note_on_c, 0, 81, 57
2, 182079, Note_on_c, 0, 81, 0
2, 182079, Note_on_c, 0, 69, 0
2, 182079, Note_on_c, 0, 65, 57
2, 182079, Note_on_c, 0, 77, 57
2, 182240, Note_on_c, 0, 77, 0
2, 182240, Note_on_c, 0, 65, 0
2, 182880, Note_on_c, 0, 69, 57
2, 182880, Note_on_c, 0, 81, 57
2, 183039, Note_on_c, 0, 81, 0
2, 183039, Note_on_c, 0, 69, 0
2, 183039, Note_on_c, 0, 65, 57
2, 183039, Note_on_c, 0, 77, 57
2, 183200, Note_on_c, 0, 77, 0
2, 183200, Note_on_c, 0, 65, 0
2, 183840, Note_on_c, 0, 64, 57
2, 183840, Note_on_c, 0, 76, 57
2, 183999, Note_on_c, 0, 76, 0
2, 183999, Note_on_c, 0, 64, 0
2, 183999, Note_on_c, 0, 65, 57
2, 183999, Note_on_c, 0, 77, 57
2, 184160, Note_on_c, 0, 77, 0
2, 184160, Note_on_c, 0, 65, 0
2, 184320, Note_on_c, 0, 70, 57
2, 184320, Note_on_c, 0, 82, 57
2, 184479, Note_on_c, 0, 82, 0
2, 184479, Note_on_c, 0, 70, 0
2, 184479, Note_on_c, 0, 65, 57
2, 184479, Note_on_c, 0, 77, 57
2, 184640, Note_on_c, 0, 77, 0
2, 184640, Note_on_c, 0, 65, 0
2, 184800, Note_on_c, 0, 63, 57
2, 184800, Note_on_c, 0, 75, 57
2, 184959, Note_on_c, 0, 75, 0
2, 184959, Note_on_c, 0, 63, 0
2, 184959, Note_on_c, 0, 61, 57
2, 184959, Note_on_c, 0, 73, 57
2, 185120, Note_on_c, 0, 73, 0
2, 185120, Note_on_c, 0, 61, 0
2, 185280, Note_on_c, 0, 60, 57
2, 185280, Note_on_c, 0, 72, 57
2, 185439, Note_on_c, 0, 72, 0
2, 185439, Note_on_c, 0, 60, 0
2, 185439, Note_on_c, 0, 58, 57
2, 185439, Note_on_c, 0, 70, 57
2, 185600, Note_on_c, 0, 70, 0
2, 185600, Note_on_c, 0, 58, 0
2, 185760, Note_on_c, 0, 63, 57
2, 185760, Note_on_c, 0, 75, 57
2, 185807, Note_on_c, 0, 75, 0
2, 185807, Note_on_c, 0, 63, 0
2, 186240, Note_on_c, 0, 75, 57
2, 186240, Note_on_c, 0, 87, 57
2, 186287, Note_on_c, 0, 87, 0
2, 186287, Note_on_c, 0, 75, 0
2, 186720, Note_on_c, 0, 87, 57
2, 186720, Note_on_c, 0, 99, 57
2, 186767, Note_on_c, 0, 99, 0
2, 186767, Note_on_c, 0, 87, 0
2, 187680, Note_on_c, 0, 67, 57
2, 187680, Note_on_c, 0, 79, 57
2, 187839, Note_on_c, 0, 79, 0
2, 187839, Note_on_c, 0, 67, 0
2, 187839, Note_on_c, 0, 68, 57
2, 187839, Note_on_c, 0, 80, 57
2, 188000, Note_on_c, 0, 80, 0
2, 188000, Note_on_c, 0, 68, 0
2, 188160, Note_on_c, 0, 73, 57
2, 188160, Note_on_c, 0, 85, 57
2, 188319, Note_on_c, 0, 85, 0
2, 188319, Note_on_c, 0, 73, 0
2, 188319, Note_on_c, 0, 68, 57
2, 188319, Note_on_c, 0, 80, 57
2, 188480, Note_on_c, 0, 80, 0
2, 188480, Note_on_c, 0, 68, 0
2, 188640, Note_on_c, 0, 66, 57
2, 188640, Note_on_c, 0, 78, 57
2, 188799, Note_on_c, 0, 78, 0
2, 188799, Note_on_c, 0, 66, 0
2, 188799, Note_on_c, 0, 65, 57
2, 188799, Note_on_c, 0, 77, 57
2, 188960, Note_on_c, 0, 77, 0
2, 188960, Note_on_c, 0, 65, 0
2, 189120, Note_on_c, 0, 63, 57
2, 189120, Note_on_c, 0, 75, 57
2, 189279, Note_on_c, 0, 75, 0
2, 189279, Note_on_c, 0, 63, 0
2, 189279, Note_on_c, 0, 61, 57
2, 189279, Note_on_c, 0, 73, 57
2, 189440, Note_on_c, 0, 73, 0
2, 189440, Note_on_c, 0, 61, 0
2, 189600, Note_on_c, 0, 67, 57
2, 189600, Note_on_c, 0, 79, 57
2, 189647, Note_on_c, 0, 79, 0
2, 189647, Note_on_c, 0, 67, 0
2, 190080, Note_on_c, 0, 79, 57
2, 190080, Note_on_c, 0, 91, 57
2, 190127, Note_on_c, 0, 91, 0
2, 190127, Note_on_c, 0, 79, 0
2, 190560, Note_on_c, 0, 91, 57
2, 190560, Note_on_c, 0, 103, 57
2, 190607, Note_on_c, 0, 103, 0
2, 190607, Note_on_c, 0, 91, 0
2, 191520, Note_on_c, 0, 71, 57
2, 191520, Note_on_c, 0, 83, 57
2, 191679, Note_on_c, 0, 83, 0
2, 191679, Note_on_c, 0, 71, 0
2, 191679, Note_on_c, 0, 72, 57
2, 191679, Note_on_c, 0, 84, 57
2, 191840, Note_on_c, 0, 84, 0
2, 191840, Note_on_c, 0, 72, 0
2, 192000, Note_on_c, 0, 77, 57
2, 192000, Note_on_c, 0, 89, 57
2, 192159, Note_on_c, 0, 89, 0
2, 192159, Note_on_c, 0, 77, 0
2, 192159, Note_on_c, 0, 72, 57
2, 192159, Note_on_c, 0, 84, 57
2, 192320, Note_on_c, 0, 84, 0
2, 192320, Note_on_c, 0, 72, 0
2, 192480, Note_on_c, 0, 75, 57
2, 192480, Note_on_c, 0, 87, 57
2, 192639, Note_on_c, 0, 87, 0
2, 192639, Note_on_c, 0, 75, 0
2, 192639, Note_on_c, 0, 73, 57
2, 192639, Note_on_c, 0, 85, 57
2, 192800, Note_on_c, 0, 85, 0
2, 192800, Note_on_c, 0, 73, 0
2, 192960, Note_on_c, 0, 72, 57
2, 192960, Note_on_c, 0, 84, 57
2, 193119, Note_on_c, 0, 84, 0
2, 193119, Note_on_c, 0, 72, 0
2, 193119, Note_on_c, 0, 70, 57
2, 193119, Note_on_c, 0, 82, 57
2, 193280, Note_on_c, 0, 82, 0
2, 193280, Note_on_c, 0, 70, 0
2, 193440, Note_on_c, 0, 72, 57
2, 193440, Note_on_c, 0, 84, 57
2, 193487, Note_on_c, 0, 84, 0
2, 193487, Note_on_c, 0, 72, 0
2, 193920, Note_on_c, 0, 84, 57
2, 193920, Note_on_c, 0, 96, 57
2, 193967, Note_on_c, 0, 96, 0
2, 193967, Note_on_c, 0, 84, 0
2, 194400, Note_on_c, 0, 72, 57
2, 194400, Note_on_c, 0, 84, 57
2, 194447, Note_on_c, 0, 84, 0
2, 194447, Note_on_c, 0, 72, 0
2, 194880, Note_on_c, 0, 60, 57
2, 194927, Note_on_c, 0, 60, 0
2, 195360, Note_on_c, 0, 71, 57
2, 195360, Note_on_c, 0, 83, 57
2, 195519, Note_on_c, 0, 83, 0
2, 195519, Note_on_c, 0, 71, 0
2, 195519, Note_on_c, 0, 72, 57
2, 195519, Note_on_c, 0, 84, 57
2, 195680, Note_on_c, 0, 84, 0
2, 195680, Note_on_c, 0, 72, 0
2, 195840, Note_on_c, 0, 77, 57
2, 195840, Note_on_c, 0, 89, 57
2, 195999, Note_on_c, 0, 89, 0
2, 195999, Note_on_c, 0, 77, 0
2, 195999, Note_on_c, 0, 72, 57
2, 195999, Note_on_c, 0, 84, 57
2, 196160, Note_on_c, 0, 84, 0
2, 196160, Note_on_c, 0, 72, 0
2, 196320, Note_on_c, 0, 75, 57
2, 196320, Note_on_c, 0, 87, 57
2, 196479, Note_on_c, 0, 87, 0
2, 196479, Note_on_c, 0, 75, 0
2, 196479, Note_on_c, 0, 73, 57
2, 196479, Note_on_c, 0, 85, 57
2, 196640, Note_on_c, 0, 85, 0
2, 196640, Note_on_c, 0, 73, 0
2, 196800, Note_on_c, 0, 72, 57
2, 196800, Note_on_c, 0, 84, 57
2, 196959, Note_on_c, 0, 84, 0
2, 196959, Note_on_c, 0, 72, 0
2, 196959, Note_on_c, 0, 70, 57
2, 196959, Note_on_c, 0, 82, 57
2, 197120, Note_on_c, 0, 82, 0
2, 197120, Note_on_c, 0, 70, 0
2, 197280, Note_on_c, 0, 72, 57
2, 197280, Note_on_c, 0, 84, 57
2, 197327, Note_on_c, 0, 84, 0
2, 197327, Note_on_c, 0, 72, 0
2, 197760, Note_on_c, 0, 84, 57
2, 197760, Note_on_c, 0, 96, 57
2, 197807, Note_on_c, 0, 96, 0
2, 197807, Note_on_c, 0, 84, 0
2, 198240, Note_on_c, 0, 72, 57
2, 198240, Note_on_c, 0, 84, 57
2, 198287, Note_on_c, 0, 84, 0
2, 198287, Note_on_c, 0, 72, 0
2, 198720, Note_on_c, 0, 60, 57
2, 198767, Note_on_c, 0, 60, 0
2, 199200, Note_on_c, 0, 71, 70
2, 199200, Note_on_c, 0, 83, 70
2, 199359, Note_on_c, 0, 83, 0
2, 199359, Note_on_c, 0, 71, 0
2, 199359, Note_on_c, 0, 72, 70
2, 199359, Note_on_c, 0, 84, 70
2, 199520, Note_on_c, 0, 84, 0
2, 199520, Note_on_c, 0, 72, 0
2, 199680, Note_on_c, 0, 77, 70
2, 199680, Note_on_c, 0, 89, 70
2, 199839, Note_on_c, 0, 89, 0
2, 199839, Note_on_c, 0, 77, 0
2, 199839, Note_on_c, 0, 72, 70
2, 199839, Note_on_c, 0, 84, 70
2, 200000, Note_on_c, 0, 84, 0
2, 200000, Note_on_c, 0, 72, 0
2, 200160, Note_on_c, 0, 75, 70
2, 200160, Note_on_c, 0, 87, 70
2, 200319, Note_on_c, 0, 87, 0
2, 200319, Note_on_c, 0, 75, 0
2, 200319, Note_on_c, 0, 73, 70
2, 200319, Note_on_c, 0, 85, 70
2, 200480, Note_on_c, 0, 85, 0
2, 200480, Note_on_c, 0, 73, 0
2, 200640, Note_on_c, 0, 72, 70
2, 200640, Note_on_c, 0, 84, 70
2, 200799, Note_on_c, 0, 84, 0
2, 200799, Note_on_c, 0, 72, 0
2, 200799, Note_on_c, 0, 70, 70
2, 200799, Note_on_c, 0, 82, 70
2, 200960, Note_on_c, 0, 82, 0
2, 200960, Note_on_c, 0, 70, 0
2, 201120, Note_on_c, 0, 73, 70
2, 201120, Note_on_c, 0, 85, 70
2, 201279, Note_on_c, 0, 85, 0
2, 201279, Note_on_c, 0, 73, 0
2, 201279, Note_on_c, 0, 74, 70
2, 201279, Note_on_c, 0, 86, 70
2, 201440, Note_on_c, 0, 86, 0
2, 201440, Note_on_c, 0, 74, 0
2, 201600, Note_on_c, 0, 79, 70
2, 201600, Note_on_c, 0, 91, 70
2, 201759, Note_on_c, 0, 91, 0
2, 201759, Note_on_c, 0, 79, 0
2, 201759, Note_on_c, 0, 74, 70
2, 201759, Note_on_c, 0, 86, 70
2, 201920, Note_on_c, 0, 86, 0
2, 201920, Note_on_c, 0, 74, 0
2, 202080, Note_on_c, 0, 77, 70
2, 202080, Note_on_c, 0, 89, 70
2, 202239, Note_on_c, 0, 89, 0
2, 202239, Note_on_c, 0, 77, 0
2, 202239, Note_on_c, 0, 76, 70
2, 202239, Note_on_c, 0, 88, 70
2, 202400, Note_on_c, 0, 88, 0
2, 202400, Note_on_c, 0, 76, 0
2, 202560, Note_on_c, 0, 73, 70
2, 202560, Note_on_c, 0, 85, 70
2, 202719, Note_on_c, 0, 85, 0
2, 202719, Note_on_c, 0, 73, 0
2, 202719, Note_on_c, 0, 72, 70
2, 202719, Note_on_c, 0, 84, 70
2, 202880, Note_on_c, 0, 84, 0
2, 202880, Note_on_c, 0, 72, 0
2, 203040, Note_on_c, 0, 83, 96
2, 203199, Note_on_c, 0, 83, 0
2, 203199, Note_on_c, 0, 84, 70
2, 203360, Note_on_c, 0, 84, 0
2, 203520, Note_on_c, 0, 71, 96
2, 203679, Note_on_c, 0, 71, 0
2, 203679, Note_on_c, 0, 72, 70
2, 203679, Note_on_c, 0, 84, 70
2, 203840, Note_on_c, 0, 84, 0
2, 203840, Note_on_c, 0, 72, 0
2, 204000, Note_on_c, 0, 71, 96
2, 204159, Note_on_c, 0, 71, 0
2, 204159, Note_on_c, 0, 72, 70
2, 204320, Note_on_c, 0, 72, 0
2, 204480, Note_on_c, 0, 59, 96
2, 204639, Note_on_c, 0, 59, 0
2, 204639, Note_on_c, 0, 60, 70
2, 204639, Note_on_c, 0, 72, 70
2, 204800, Note_on_c, 0, 72, 0
2, 204800, Note_on_c, 0, 60, 0
2, 211200, Note_on_c, 0, 65, 57
2, 211200, Note_on_c, 0, 68, 57
2, 211200, Note_on_c, 0, 72, 57
2, 211440, Note_on_c, 0, 72, 0
2, 211440, Note_on_c, 0, 68, 0
2, 211440, Note_on_c, 0, 65, 0
2, 212160, Note_on_c, 0, 72, 57
2, 212160, Note_on_c, 0, 77, 57
2, 212400, Note_on_c, 0, 77, 0
2, 212400, Note_on_c, 0, 72, 0
2, 213120, Note_on_c, 0, 70, 57
2, 213120, Note_on_c, 0, 73, 57
2, 213120, Note_on_c, 0, 75, 57
2, 213360, Note_on_c, 0, 75, 0
2, 213360, Note_on_c, 0, 73, 0
2, 213360, Note_on_c, 0, 70, 0
2, 214080, Note_on_c, 0, 63, 57
2, 214080, Note_on_c, 0, 67, 57
2, 214080, Note_on_c, 0, 70, 57
2, 214320, Note_on_c, 0, 70, 0
2, 214320, Note_on_c, 0, 67, 0
2, 214320, Note_on_c, 0, 63, 0
2, 215040, Note_on_c, 0, 63, 57
2, 215040, Note_on_c, 0, 68, 57
2, 215040, Note_on_c, 0, 72, 57
2, 215280, Note_on_c, 0, 72, 0
2, 215280, Note_on_c, 0, 68, 0
2, 215280, Note_on_c, 0, 63, 0
2, 216000, Note_on_c, 0, 75, 57
2, 216000, Note_on_c, 0, 80, 57
2, 216240, Note_on_c, 0, 80, 0
2, 216240, Note_on_c, 0, 75, 0
2, 216960, Note_on_c, 0, 74, 57
2, 216960, Note_on_c, 0, 77, 57
2, 216960, Note_on_c, 0, 79, 57
2, 217200, Note_on_c, 0, 79, 0
2, 217200, Note_on_c, 0, 77, 0
2, 217200, Note_on_c, 0, 74, 0
2, 217920, Note_on_c, 0, 67, 57
2, 217920, Note_on_c, 0, 71, 57
2, 217920, Note_on_c, 0, 74, 57
2, 218160, Note_on_c, 0, 74, 0
2, 218160, Note_on_c, 0, 71, 0
2, 218160, Note_on_c, 0, 67, 0
2, 218880, Note_on_c, 0, 72, 57
2, 218880, Note_on_c, 0, 79, 57
2, 219120, Note_on_c, 0, 79, 0
2, 219120, Note_on_c, 0, 72, 0
2, 219840, Note_on_c, 0, 76, 57
2, 219840, Note_on_c, 0, 79, 57
2, 219840, Note_on_c, 0, 84, 57
2, 219960, Note_on_c, 0, 84, 0
2, 219960, Note_on_c, 0, 79, 0
2, 219960, Note_on_c, 0, 76, 0
2, 220800, Note_on_c, 0, 69, 57
2, 220920, Note_on_c, 0, 69, 0
2, 220920, Note_on_c, 0, 67, 57
2, 221040, Note_on_c, 0, 67, 0
2, 221040, Note_on_c, 0, 77, 57
2, 221040, Note_on_c, 0, 79, 57
2, 221160, Note_on_c, 0, 79, 0
2, 221160, Note_on_c, 0, 77, 0
2, 221160, Note_on_c, 0, 67, 57
2, 221280, Note_on_c, 0, 67, 0
2, 221280, Note_on_c, 0, 62, 57
2, 221400, Note_on_c, 0, 62, 0
2, 221400, Note_on_c, 0, 65, 57
2, 221520, Note_on_c, 0, 65, 0
2, 221520, Note_on_c, 0, 67, 57
2, 221640, Note_on_c, 0, 67, 0
2, 221640, Note_on_c, 0, 74, 57
2, 221760, Note_on_c, 0, 74, 0
2, 221760, Note_on_c, 0, 78, 57
2, 221880, Note_on_c, 0, 78, 0
2, 221880, Note_on_c, 0, 79, 57
2, 222000, Note_on_c, 0, 79, 0
2, 222000, Note_on_c, 0, 89, 57
2, 222000, Note_on_c, 0, 91, 57
2, 222120, Note_on_c, 0, 91, 0
2, 222120, Note_on_c, 0, 89, 0
2, 222120, Control_c, 0, 64, 0
2, 222120, Note_on_c, 0, 79, 57
2, 222240, Note_on_c, 0, 79, 0
2, 222720, Note_on_c, 0, 72, 57
2, 222720, Note_on_c, 0, 79, 57
2, 222960, Note_on_c, 0, 79, 0
2, 222960, Note_on_c, 0, 72, 0
2, 223680, Note_on_c, 0, 76, 57
2, 223680, Note_on_c, 0, 79, 57
2, 223680, Note_on_c, 0, 84, 57
2, 223800, Note_on_c, 0, 84, 0
2, 223800, Note_on_c, 0, 79, 0
2, 223800, Note_on_c, 0, 76, 0
2, 224640, Note_on_c, 0, 69, 57
2, 224760, Note_on_c, 0, 69, 0
2, 224760, Note_on_c, 0, 67, 57
2, 224880, Note_on_c, 0, 67, 0
2, 224880, Note_on_c, 0, 77, 57
2, 224880, Note_on_c, 0, 79, 57
2, 225000, Note_on_c, 0, 79, 0
2, 225000, Note_on_c, 0, 77, 0
2, 225000, Note_on_c, 0, 67, 57
2, 225120, Note_on_c, 0, 67, 0
2, 225120, Note_on_c, 0, 62, 57
2, 225240, Note_on_c, 0, 62, 0
2, 225240, Note_on_c, 0, 65, 57
2, 225360, Note_on_c, 0, 65, 0
2, 225360, Note_on_c, 0, 67, 57
2, 225480, Note_on_c, 0, 67, 0
2, 225480, Note_on_c, 0, 74, 57
2, 225600, Note_on_c, 0, 74, 0
2, 225600, Note_on_c, 0, 78, 57
2, 225720, Note_on_c, 0, 78, 0
2, 225720, Note_on_c, 0, 79, 57
2, 225840, Note_on_c, 0, 79, 0
2, 225840, Note_on_c, 0, 89, 57
2, 225840, Note_on_c, 0, 91, 57
2, 225960, Note_on_c, 0, 91, 0
2, 225960, Note_on_c, 0, 89, 0
2, 225960, Control_c, 0, 64, 0
2, 225960, Note_on_c, 0, 79, 57
2, 226080, Note_on_c, 0, 79, 0
2, 226080, Control_c, 0, 64, 127
2, 226080, Note_on_c, 0, 72, 57
2, 226200, Note_on_c, 0, 72, 0
2, 226200, Note_on_c, 0, 76, 57
2, 226320, Note_on_c, 0, 76, 0
2, 226320, Note_on_c, 0, 79, 57
2, 226440, Note_on_c, 0, 79, 0
2, 226440, Note_on_c, 0, 84, 57
2, 226560, Note_on_c, 0, 84, 0
2, 226560, Note_on_c, 0, 90, 57
2, 226680, Note_on_c, 0, 90, 0
2, 226680, Note_on_c, 0, 91, 57
2, 226800, Note_on_c, 0, 91, 0
2, 226800, Note_on_c, 0, 96, 57
2, 226800, Note_on_c, 0, 100, 57
2, 226800, Note_on_c, 0, 103, 57
2, 226920, Note_on_c, 0, 103, 0
2, 226920, Note_on_c, 0, 100, 0
2, 226920, Note_on_c, 0, 96, 0
2, 226920, Note_on_c, 0, 91, 57
2, 227040, Note_on_c, 0, 91, 0
2, 227040, Note_on_c, 0, 78, 57
2, 227040, Note_on_c, 0, 88, 57
2, 227160, Note_on_c, 0, 88, 0
2, 227160, Note_on_c, 0, 78, 0
2, 227160, Note_on_c, 0, 79, 57
2, 227160, Note_on_c, 0, 84, 57
2, 227280, Note_on_c, 0, 84, 0
2, 227280, Note_on_c, 0, 79, 0
2, 227280, Note_on_c, 0, 91, 57
2, 227280, Note_on_c, 0, 96, 57
2, 227280, Note_on_c, 0, 100, 57
2, 227400, Note_on_c, 0, 100, 0
2, 227400, Note_on_c, 0, 96, 0
2, 227400, Note_on_c, 0, 91, 0
2, 227400, Note_on_c, 0, 88, 57
2, 227520, Note_on_c, 0, 88, 0
2, 227520, Note_on_c, 0, 75, 57
2, 227520, Note_on_c, 0, 84, 57
2, 227640, Note_on_c, 0, 84, 0
2, 227640, Note_on_c, 0, 75, 0
2, 227640, Note_on_c, 0, 76, 57
2, 227640, Note_on_c, 0, 79, 57
2, 227760, Note_on_c, 0, 79, 0
2, 227760, Note_on_c, 0, 76, 0
2, 227760, Note_on_c, 0, 88, 57
2, 227760, Note_on_c, 0, 91, 57
2, 227760, Note_on_c, 0, 96, 57
2, 227880, Note_on_c, 0, 96, 0
2, 227880, Note_on_c, 0, 91, 0
2, 227880, Note_on_c, 0, 88, 0
2, 227880, Control_c, 0, 64, 0
2, 227880, Note_on_c, 0, 84, 57
2, 228000, Note_on_c, 0, 84, 0
2, 228000, Control_c, 0, 64, 127
2, 228000, Note_on_c, 0, 67, 57
2, 228120, Note_on_c, 0, 67, 0
2, 228120, Note_on_c, 0, 72, 57
2, 228240, Note_on_c, 0, 72, 0
2, 228240, Note_on_c, 0, 76, 57
2, 228360, Note_on_c, 0, 76, 0
2, 228360, Note_on_c, 0, 77, 57
2, 228480, Note_on_c, 0, 77, 0
2, 228480, Note_on_c, 0, 78, 57
2, 228600, Note_on_c, 0, 78, 0
2, 228600, Note_on_c, 0, 79, 57
2, 228720, Note_on_c, 0, 79, 0
2, 228720, Note_on_c, 0, 84, 57
2, 228720, Note_on_c, 0, 88, 57
2, 228720, Note_on_c, 0, 91, 57
2, 228840, Note_on_c, 0, 91, 0
2, 228840, Note_on_c, 0, 88, 0
2, 228840, Note_on_c, 0, 84, 0
2, 228840, Note_on_c, 0, 79, 57
2, 228960, Note_on_c, 0, 79, 0
2, 228960, Note_on_c, 0, 66, 57
2, 228960, Note_on_c, 0, 76, 57
2, 229080, Note_on_c, 0, 76, 0
2, 229080, Note_on_c, 0, 66, 0
2, 229080, Note_on_c, 0, 67, 57
2, 229080, Note_on_c, 0, 72, 57
2, 229200, Note_on_c, 0, 72, 0
2, 229200, Note_on_c, 0, 67, 0
2, 229200, Note_on_c, 0, 79, 57
2, 229200, Note_on_c, 0, 84, 57
2, 229200, Note_on_c, 0, 88, 57
2, 229320, Note_on_c, 0, 88, 0
2, 229320, Note_on_c, 0, 84, 0
2, 229320, Note_on_c, 0, 79, 0
2, 229320, Note_on_c, 0, 76, 57
2, 229440, Note_on_c, 0, 76, 0
2, 229440, Note_on_c, 0, 63, 57
2, 229440, Note_on_c, 0, 72, 57
2, 229560, Note_on_c, 0, 72, 0
2, 229560, Note_on_c, 0, 63, 0
2, 229560, Note_on_c, 0, 64, 57
2, 229560, Note_on_c, 0, 67, 57
2, 229680, Note_on_c, 0, 67, 0
2, 229680, Note_on_c, 0, 64, 0
2, 229680, Note_on_c, 0, 76, 57
2, 229680, Note_on_c, 0, 79, 57
2, 229680, Note_on_c, 0, 84, 57
2, 229800, Note_on_c, 0, 84, 0
2, 229800, Note_on_c, 0, 79, 0
2, 229800, Note_on_c, 0, 76, 0
2, 229800, Control_c, 0, 64, 0
2, 229800, Note_on_c, 0, 72, 57
2, 229920, Note_on_c, 0, 72, 0
2, 229920, Control_c, 0, 64, 127
2, 229920, Note_on_c, 0, 55, 57
2, 230040, Note_on_c, 0, 55, 0
2, 230040, Note_on_c, 0, 60, 57
2, 230160, Note_on_c, 0, 60, 0
2, 230160, Note_on_c, 0, 64, 57
2, 230280, Note_on_c, 0, 64, 0
2, 230280, Note_on_c, 0, 65, 57
2, 230400, Note_on_c, 0, 65, 0
2, 230400, Note_on_c, 0, 66, 57
2, 230520, Note_on_c, 0, 66, 0
2, 230520, Note_on_c, 0, 67, 57
2, 230640, Note_on_c, 0, 67, 0
2, 230640, Note_on_c, 0, 72, 57
2, 230640, Note_on_c, 0, 76, 57
2, 230640, Note_on_c, 0, 79, 57
2, 230760, Note_on_c, 0, 79, 0
2, 230760, Note_on_c, 0, 76, 0
2, 230760, Note_on_c, 0, 72, 0
2, 230760, Note_on_c, 0, 67, 57
2, 230880, Note_on_c, 0, 67, 0
2, 230880, Control_c, 0, 64, 0
2, 230880, Note_on_c, 0, 54, 57
2, 230880, Note_on_c, 0, 64, 57
2, 231000, Note_on_c, 0, 64, 0
2, 231000, Note_on_c, 0, 54, 0
2, 231000, Note_on_c, 0, 55, 57
2, 231000, Note_on_c, 0, 60, 57
2, 231120, Note_on_c, 0, 60, 0
2, 231120, Note_on_c, 0, 55, 0
2, 231120, Note_on_c, 0, 67, 57
2, 231120, Note_on_c, 0, 72, 57
2, 231120, Note_on_c, 0, 76, 57
2, 231240, Note_on_c, 0, 76, 0
2, 231240, Note_on_c, 0, 72, 0
2, 231240, Note_on_c, 0, 67, 0
2, 231240, Note_on_c, 0, 64, 57
2, 231360, Note_on_c, 0, 64, 0
2, 231360, Note_on_c, 0, 51, 57
2, 231360, Note_on_c, 0, 60, 57
2, 231480, Note_on_c, 0, 60, 0
2, 231480, Note_on_c, 0, 51, 0
2, 231480, Note_on_c, 0, 52, 57
2, 231480, Note_on_c, 0, 55, 57
2, 231600, Note_on_c, 0, 55, 0
2, 231600, Note_on_c, 0, 52, 0
2, 231600, Note_on_c, 0, 64, 57
2, 231600, Note_on_c, 0, 67, 57
2, 231600, Note_on_c, 0, 72, 57
2, 231720, Note_on_c, 0, 72, 0
2, 231720, Note_on_c, 0, 67, 0
2, 231720, Note_on_c, 0, 64, 0
2, 231720, Note_on_c, 0, 60, 57
2, 231840, Note_on_c, 0, 60, 0
2, 233760, Control_c, 0, 64, 127
2, 235200, Note_on_c, 0, 67, 57
2, 235320, Note_on_c, 0, 67, 0
2, 235320, Note_on_c, 0, 72, 57
2, 235440, Note_on_c, 0, 72, 0
2, 235440, Note_on_c, 0, 76, 57
2, 235560, Note_on_c, 0, 76, 0
2, 235560, Control_c, 0, 64, 0
2, 235560, Note_on_c, 0, 79, 57
2, 235680, Note_on_c, 0, 79, 0
2, 235680, Note_on_c, 0, 84, 83
2, 235727, Note_on_c, 0, 84, 0
2, 239040, Control_c, 0, 64, 127
2, 239040, Note_on_c, 0, 68, 57
2, 239160, Note_on_c, 0, 68, 0
2, 239160, Note_on_c, 0, 72, 57
2, 239280, Note_on_c, 0, 72, 0
2, 239280, Note_on_c, 0, 77, 57
2, 239400, Note_on_c, 0, 77, 0
2, 239400, Note_on_c, 0, 80, 57
2, 239520, Note_on_c, 0, 80, 0
2, 239520, Control_c, 0, 64, 0
2, 239520, Note_on_c, 0, 84, 83
2, 239567, Note_on_c, 0, 84, 0
2, 241440, Control_c, 0, 64, 127
2, 241440, Note_on_c, 0, 48, 57
2, 241560, Note_on_c, 0, 48, 0
2, 241560, Note_on_c, 0, 53, 57
2, 241680, Note_on_c, 0, 53, 0
2, 241680, Note_on_c, 0, 57, 57
2, 241800, Note_on_c, 0, 57, 0
2, 241800, Note_on_c, 0, 63, 57
2, 241920, Note_on_c, 0, 63, 0
2, 241920, Note_on_c, 0, 64, 57
2, 242040, Note_on_c, 0, 64, 0
2, 242040, Note_on_c, 0, 65, 57
2, 242160, Note_on_c, 0, 65, 0
2, 242160, Note_on_c, 0, 69, 57
2, 242280, Note_on_c, 0, 69, 0
2, 242280, Note_on_c, 0, 72, 57
2, 242400, Note_on_c, 0, 72, 0
2, 242400, Control_c, 0, 64, 0
2, 242400, Note_on_c, 0, 77, 83
2, 242447, Note_on_c, 0, 77, 0
2, 243360, Control_c, 0, 64, 127
2, 243360, Note_on_c, 0, 48, 70
2, 243480, Note_on_c, 0, 48, 0
2, 243480, Note_on_c, 0, 53, 70
2, 243600, Note_on_c, 0, 53, 0
2, 243600, Note_on_c, 0, 58, 70
2, 243720, Note_on_c, 0, 58, 0
2, 243720, Note_on_c, 0, 61, 70
2, 243840, Note_on_c, 0, 61, 0
2, 243840, Note_on_c, 0, 64, 70
2, 243960, Note_on_c, 0, 64, 0
2, 243960, Note_on_c, 0, 65, 70
2, 244080, Note_on_c, 0, 65, 0
2, 244080, Note_on_c, 0, 70, 70
2, 244200, Note_on_c, 0, 70, 0
2, 244200, Note_on_c, 0, 73, 70
2, 244320, Note_on_c, 0, 73, 0
2, 244320, Control_c, 0, 64, 0
2, 244320, Note_on_c, 0, 77, 96
2, 244367, Note_on_c, 0, 77, 0
2, 245280, Control_c, 0, 64, 127
2, 245280, Note_on_c, 0, 48, 70
2, 245400, Note_on_c, 0, 48, 0
2, 245400, Note_on_c, 0, 55, 70
2, 245520, Note_on_c, 0, 55, 0
2, 245520, Note_on_c, 0, 59, 70
2, 245640, Note_on_c, 0, 59, 0
2, 245640, Note_on_c, 0, 62, 70
2, 245760, Note_on_c, 0, 62, 0
2, 245760, Note_on_c, 0, 66, 70
2, 245880, Note_on_c, 0, 66, 0
2, 245880, Note_on_c, 0, 67, 70
2, 246000, Note_on_c, 0, 67, 0
2, 246000, Note_on_c, 0, 71, 70
2, 246120, Note_on_c, 0, 71, 0
2, 246120, Note_on_c, 0, 74, 70
2, 246240, Note_on_c, 0, 74, 0
2, 246240, Control_c, 0, 64, 0
2, 246240, Note_on_c, 0, 79, 96
2, 246287, Note_on_c, 0, 79, 0
2, 247200, Control_c, 0, 64, 127
2, 247200, Note_on_c, 0, 48, 70
2, 247320, Note_on_c, 0, 48, 0
2, 247320, Note_on_c, 0, 55, 70
2, 247440, Note_on_c, 0, 55, 0
2, 247440, Note_on_c, 0, 58, 70
2, 247560, Note_on_c, 0, 58, 0
2, 247560, Note_on_c, 0, 64, 70
2, 247680, Note_on_c, 0, 64, 0
2, 247680, Note_on_c, 0, 66, 70
2, 247800, Note_on_c, 0, 66, 0
2, 247800, Note_on_c, 0, 67, 70
2, 247920, Note_on_c, 0, 67, 0
2, 247920, Note_on_c, 0, 72, 70
2, 248040, Note_on_c, 0, 72, 0
2, 248040, Note_on_c, 0, 76, 70
2, 248160, Note_on_c, 0, 76, 0
2, 248160, Control_c, 0, 64, 0
2, 248160, Note_on_c, 0, 79, 96
2, 248207, Note_on_c, 0, 79, 0
2, 249120, Control_c, 0, 64, 127
2, 249120, Note_on_c, 0, 60, 70
2, 249240, Note_on_c, 0, 60, 0
2, 249240, Note_on_c, 0, 65, 70
2, 249360, Note_on_c, 0, 65, 0
2, 249360, Note_on_c, 0, 69, 70
2, 249480, Note_on_c, 0, 69, 0
2, 249480, Note_on_c, 0, 75, 70
2, 249600, Note_on_c, 0, 75, 0
2, 249600, Note_on_c, 0, 76, 70
2, 249720, Note_on_c, 0, 76, 0
2, 249720, Note_on_c, 0, 77, 70
2, 249840, Note_on_c, 0, 77, 0
2, 249840, Note_on_c, 0, 81, 70
2, 249960, Note_on_c, 0, 81, 0
2, 249960, Note_on_c, 0, 84, 70
2, 250080, Note_on_c, 0, 84, 0
2, 250080, Control_c, 0, 64, 0
2, 250080, Note_on_c, 0, 89, 96
2, 250127, Note_on_c, 0, 89, 0
2, 251040, Note_on_c, 0, 76, 70
2, 251040, Note_on_c, 0, 81, 70
2, 251040, Note_on_c, 0, 87, 70
2, 251040, Note_on_c, 0, 88, 70
2, 251071, Note_on_c, 0, 88, 0
2, 251071, Note_on_c, 0, 76, 0
2, 251071, Note_on_c, 0, 81, 0
2, 251071, Note_on_c, 0, 87, 0
2, 251199, Note_on_c, 0, 77, 70
2, 251199, Note_on_c, 0, 81, 70
2, 251199, Note_on_c, 0, 87, 70
2, 251199, Note_on_c, 0, 89, 70
2, 251231, Note_on_c, 0, 89, 0
2, 251231, Note_on_c, 0, 77, 0
2, 251231, Note_on_c, 0, 81, 0
2, 251231, Note_on_c, 0, 87, 0
2, 251520, Note_on_c, 0, 78, 70
2, 251520, Note_on_c, 0, 81, 70
2, 251520, Note_on_c, 0, 87, 70
2, 251520, Note_on_c, 0, 90, 70
2, 251551, Note_on_c, 0, 90, 0
2, 251551, Note_on_c, 0, 78, 0
2, 251551, Note_on_c, 0, 81, 0
2, 251551, Note_on_c, 0, 87, 0
2, 251679, Note_on_c, 0, 77, 70
2, 251679, Note_on_c, 0, 81, 70
2, 251679, Note_on_c, 0, 87, 70
2, 251679, Note_on_c, 0, 89, 70
2, 251711, Note_on_c, 0, 89, 0
2, 251711, Note_on_c, 0, 77, 0
2, 251711, Note_on_c, 0, 81, 0
2, 251711, Note_on_c, 0, 87, 0
2, 252960, Note_on_c, 0, 52, 70
2, 252960, Note_on_c, 0, 57, 70
2, 252960, Note_on_c, 0, 63, 70
2, 252960, Note_on_c, 0, 64, 70
2, 252991, Note_on_c, 0, 64, 0
2, 252991, Note_on_c, 0, 52, 0
2, 252991, Note_on_c, 0, 57, 0
2, 252991, Note_on_c, 0, 63, 0
2, 253119, Note_on_c, 0, 53, 70
2, 253119, Note_on_c, 0, 57, 70
2, 253119, Note_on_c, 0, 63, 70
2, 253119, Note_on_c, 0, 65, 70
2, 253151, Note_on_c, 0, 65, 0
2, 253151, Note_on_c, 0, 53, 0
2, 253151, Note_on_c, 0, 57, 0
2, 253151, Note_on_c, 0, 63, 0
2, 253440, Note_on_c, 0, 54, 70
2, 253440, Note_on_c, 0, 57, 70
2, 253440, Note_on_c, 0, 63, 70
2, 253440, Note_on_c, 0, 66, 70
2, 253471, Note_on_c, 0, 66, 0
2, 253471, Note_on_c, 0, 54, 0
2, 253471, Note_on_c, 0, 57, 0
2, 253471, Note_on_c, 0, 63, 0
2, 253599, Note_on_c, 0, 53, 70
2, 253599, Note_on_c, 0, 57, 70
2, 253599, Note_on_c, 0, 63, 70
2, 253599, Note_on_c, 0, 65, 70
2, 253631, Note_on_c, 0, 65, 0
2, 253631, Note_on_c, 0, 53, 0
2, 253631, Note_on_c, 0, 57, 0
2, 253631, Note_on_c, 0, 63, 0
2, 253920, Note_on_c, 0, 52, 70
2, 253920, Note_on_c, 0, 57, 70
2, 253920, Note_on_c, 0, 63, 70
2, 253920, Note_on_c, 0, 64, 70
2, 253951, Note_on_c, 0, 64, 0
2, 253951, Note_on_c, 0, 52, 0
2, 253951, Note_on_c, 0, 57, 0
2, 253951, Note_on_c, 0, 63, 0
2, 254079, Note_on_c, 0, 53, 70
2, 254079, Note_on_c, 0, 57, 70
2, 254079, Note_on_c, 0, 63, 70
2, 254079, Note_on_c, 0, 65, 70
2, 254111, Note_on_c, 0, 65, 0
2, 254111, Note_on_c, 0, 53, 0
2, 254111, Note_on_c, 0, 57, 0
2, 254111, Note_on_c, 0, 63, 0
2, 254400, Note_on_c, 0, 54, 70
2, 254400, Note_on_c, 0, 57, 70
2, 254400, Note_on_c, 0, 63, 70
2, 254400, Note_on_c, 0, 66, 70
2, 254431, Note_on_c, 0, 66, 0
2, 254431, Note_on_c, 0, 54, 0
2, 254431, Note_on_c, 0, 57, 0
2, 254431, Note_on_c, 0, 63, 0
2, 254559, Note_on_c, 0, 53, 70
2, 254559, Note_on_c, 0, 57, 70
2, 254559, Note_on_c, 0, 63, 70
2, 254559, Note_on_c, 0, 65, 70
2, 254591, Note_on_c, 0, 65, 0
2, 254591, Note_on_c, 0, 53, 0
2, 254591, Note_on_c, 0, 57, 0
2, 254591, Note_on_c, 0, 63, 0
2, 254880, Note_on_c, 0, 52, 70
2, 254880, Note_on_c, 0, 57, 70
2, 254880, Note_on_c, 0, 63, 70
2, 254880, Note_on_c, 0, 64, 70
2, 254895, Note_on_c, 0, 64, 0
2, 254895, Note_on_c, 0, 52, 0
2, 254895, Note_on_c, 0, 57, 0
2, 254895, Note_on_c, 0, 63, 0
2, 255039, Note_on_c, 0, 53, 70
2, 255039, Note_on_c, 0, 57, 70
2, 255039, Note_on_c, 0, 63, 70
2, 255039, Note_on_c, 0, 65, 70
2, 255054, Note_on_c, 0, 65, 0
2, 255054, Note_on_c, 0, 53, 0
2, 255054, Note_on_c, 0, 57, 0
2, 255054, Note_on_c, 0, 63, 0
2, 255360, Note_on_c, 0, 52, 70
2, 255360, Note_on_c, 0, 57, 70
2, 255360, Note_on_c, 0, 63, 70
2, 255360, Note_on_c, 0, 64, 70
2, 255375, Note_on_c, 0, 64, 0
2, 255375, Note_on_c, 0, 52, 0
2, 255375, Note_on_c, 0, 57, 0
2, 255375, Note_on_c, 0, 63, 0
2, 255519, Note_on_c, 0, 53, 70
2, 255519, Note_on_c, 0, 57, 70
2, 255519, Note_on_c, 0, 63, 70
2, 255519, Note_on_c, 0, 65, 70
2, 255534, Note_on_c, 0, 65, 0
2, 255534, Note_on_c, 0, 53, 0
2, 255534, Note_on_c, 0, 57, 0
2, 255534, Note_on_c, 0, 63, 0
2, 255840, Note_on_c, 0, 53, 70
2, 255840, Note_on_c, 0, 57, 70
2, 255840, Note_on_c, 0, 59, 70
2, 255871, Note_on_c, 0, 59, 0
2, 255871, Note_on_c, 0, 57, 0
2, 255871, Note_on_c, 0, 53, 0
2, 255999, Note_on_c, 0, 53, 70
2, 255999, Note_on_c, 0, 57, 70
2, 255999, Note_on_c, 0, 60, 70
2, 256031, Note_on_c, 0, 60, 0
2, 256031, Note_on_c, 0, 57, 0
2, 256031, Note_on_c, 0, 53, 0
2, 256320, Note_on_c, 0, 53, 70
2, 256320, Note_on_c, 0, 57, 70
2, 256320, Note_on_c, 0, 59, 70
2, 256351, Note_on_c, 0, 59, 0
2, 256351, Note_on_c, 0, 57, 0
2, 256351, Note_on_c, 0, 53, 0
2, 256479, Note_on_c, 0, 53, 70
2, 256479, Note_on_c, 0, 57, 70
2, 256479, Note_on_c, 0, 60, 70
2, 256511, Note_on_c, 0, 60, 0
2, 256511, Note_on_c, 0, 57, 0
2, 256511, Note_on_c, 0, 53, 0
2, 256800, Note_on_c, 0, 48, 57
2, 256800, Note_on_c, 0, 53, 57
2, 256800, Note_on_c, 0, 56, 57
2, 256831, Note_on_c, 0, 56, 0
2, 256831, Note_on_c, 0, 53, 0
2, 256831, Note_on_c, 0, 48, 0
2, 256959, Note_on_c, 0, 48, 57
2, 256959, Note_on_c, 0, 53, 57
2, 256959, Note_on_c, 0, 57, 57
2, 256991, Note_on_c, 0, 57, 0
2, 256991, Note_on_c, 0, 53, 0
2, 256991, Note_on_c, 0, 48, 0
2, 257280, Note_on_c, 0, 48, 57
2, 257280, Note_on_c, 0, 53, 57
2, 257280, Note_on_c, 0, 56, 57
2, 257311, Note_on_c, 0, 56, 0
2, 257311, Note_on_c, 0, 53, 0
2, 257311, Note_on_c, 0, 48, 0
2, 257439, Note_on_c, 0, 48, 57
2, 257439, Note_on_c, 0, 53, 57
2, 257439, Note_on_c, 0, 57, 57
2, 257471, Note_on_c, 0, 57, 0
2, 257471, Note_on_c, 0, 53, 0
2, 257471, Note_on_c, 0, 48, 0
2, 257760, Note_on_c, 0, 45, 57
2, 257760, Note_on_c, 0, 48, 57
2, 257760, Note_on_c, 0, 52, 57
2, 257791, Note_on_c, 0, 52, 0
2, 257791, Note_on_c, 0, 48, 0
2, 257791, Note_on_c, 0, 45, 0
2, 257919, Note_on_c, 0, 45, 57
2, 257919, Note_on_c, 0, 48, 57
2, 257919, Note_on_c, 0, 53, 57
2, 257951, Note_on_c, 0, 53, 0
2, 257951, Note_on_c, 0, 48, 0
2, 257951, Note_on_c, 0, 45, 0
2, 258240, Note_on_c, 0, 45, 57
2, 258240, Note_on_c, 0, 48, 57
2, 258240, Note_on_c, 0, 52, 57
2, 258271, Note_on_c, 0, 52, 0
2, 258271, Note_on_c, 0, 48, 0
2, 258271, Note_on_c, 0, 45, 0
2, 258399, Note_on_c, 0, 45, 57
2, 258399, Note_on_c, 0, 48, 57
2, 258399, Note_on_c, 0, 53, 57
2, 258431, Note_on_c, 0, 53, 0
2, 258431, Note_on_c, 0, 48, 0
2, 258431, Note_on_c, 0, 45, 0
2, 258720, Note_on_c, 0, 45, 57
2, 258720, Note_on_c, 0, 47, 57
2, 258751, Note_on_c, 0, 47, 0
2, 258751, Note_on_c, 0, 45, 0
2, 258879, Note_on_c, 0, 45, 57
2, 258879, Note_on_c, 0, 48, 57
2, 258911, Note_on_c, 0, 48, 0
2, 258911, Note_on_c, 0, 45, 0
2, 259200, Note_on_c, 0, 45, 57
2, 259200, Note_on_c, 0, 47, 57
2, 259231, Note_on_c, 0, 47, 0
2, 259231, Note_on_c, 0, 45, 0
2, 259359, Note_on_c, 0, 45, 57
2, 259359, Note_on_c, 0, 48, 57
2, 259391, Note_on_c, 0, 48, 0
2, 259391, Note_on_c, 0, 45, 0
2, 259680, Note_on_c, 0, 44, 57
2, 259711, Note_on_c, 0, 44, 0
2, 259839, Note_on_c, 0, 45, 57
2, 259871, Note_on_c, 0, 45, 0
2, 260160, Note_on_c, 0, 44, 57
2, 260191, Note_on_c, 0, 44, 0
2, 260319, Note_on_c, 0, 45, 57
2, 260351, Note_on_c, 0, 45, 0
2, 260640, Note_on_c, 0, 28, 57
2, 260663, Note_on_c, 0, 28, 0
2, 260760, Note_on_c, 0, 40, 57
2, 260783, Note_on_c, 0, 40, 0
2, 260880, Note_on_c, 0, 29, 57
2, 260903, Note_on_c, 0, 29, 0
2, 261000, Note_on_c, 0, 41, 57
2, 261023, Note_on_c, 0, 41, 0
2, 261120, Note_on_c, 0, 28, 57
2, 261143, Note_on_c, 0, 28, 0
2, 261240, Note_on_c, 0, 40, 57
2, 261263, Note_on_c, 0, 40, 0
2, 261360, Note_on_c, 0, 29, 57
2, 261383, Note_on_c, 0, 29, 0
2, 261480, Note_on_c, 0, 41, 57
2, 261503, Note_on_c, 0, 41, 0
2, 261600, Note_on_c, 0, 32, 57
2, 261623, Note_on_c, 0, 32, 0
2, 261720, Note_on_c, 0, 44, 57
2, 261743, Note_on_c, 0, 44, 0
2, 261840, Note_on_c, 0, 33, 57
2, 261863, Note_on_c, 0, 33, 0
2, 261960, Note_on_c, 0, 45, 57
2, 261983, Note_on_c, 0, 45, 0
2, 262080, Note_on_c, 0, 32, 57
2, 262103, Note_on_c, 0, 32, 0
2, 262200, Note_on_c, 0, 44, 57
2, 262223, Note_on_c, 0, 44, 0
2, 262320, Note_on_c, 0, 33, 57
2, 262343, Note_on_c, 0, 33, 0
2, 262440, Note_on_c, 0, 45, 57
2, 262463, Note_on_c, 0, 45, 0
2, 262560, Note_on_c, 0, 35, 70
2, 262583, Note_on_c, 0, 35, 0
2, 262680, Note_on_c, 0, 47, 70
2, 262703, Note_on_c, 0, 47, 0
2, 262800, Note_on_c, 0, 36, 70
2, 262823, Note_on_c, 0, 36, 0
2, 262920, Note_on_c, 0, 48, 70
2, 262943, Note_on_c, 0, 48, 0
2, 263040, Note_on_c, 0, 35, 70
2, 263063, Note_on_c, 0, 35, 0
2, 263160, Note_on_c, 0, 47, 70
2, 263183, Note_on_c, 0, 47, 0
2, 263280, Note_on_c, 0, 36, 70
2, 263303, Note_on_c, 0, 36, 0
2, 263400, Note_on_c, 0, 48, 70
2, 263423, Note_on_c, 0, 48, 0
2, 263520, Note_on_c, 0, 40, 70
2, 263543, Note_on_c, 0, 40, 0
2, 263640, Note_on_c, 0, 52, 70
2, 263663, Note_on_c, 0, 52, 0
2, 263760, Note_on_c, 0, 41, 70
2, 263783, Note_on_c, 0, 41, 0
2, 263880, Note_on_c, 0, 53, 70
2, 263903, Note_on_c, 0, 53, 0
2, 264000, Note_on_c, 0, 40, 70
2, 264023, Note_on_c, 0, 40, 0
2, 264120, Note_on_c, 0, 52, 70
2, 264143, Note_on_c, 0, 52, 0
2, 264240, Note_on_c, 0, 41, 70
2, 264263, Note_on_c, 0, 41, 0
2, 264360, Note_on_c, 0, 53, 70
2, 264383, Note_on_c, 0, 53, 0
2, 268320, Note_on_c, 0, 47, 70
2, 268343, Note_on_c, 0, 47, 0
2, 268440, Note_on_c, 0, 59, 70
2, 268440, Note_on_c, 0, 71, 70
2, 268463, Note_on_c, 0, 71, 0
2, 268463, Note_on_c, 0, 59, 0
2, 268560, Note_on_c, 0, 48, 70
2, 268583, Note_on_c, 0, 48, 0
2, 268680, Note_on_c, 0, 60, 70
2, 268680, Note_on_c, 0, 72, 70
2, 268703, Note_on_c, 0, 72, 0
2, 268703, Note_on_c, 0, 60, 0
2, 268800, Note_on_c, 0, 47, 70
2, 268823, Note_on_c, 0, 47, 0
2, 268920, Note_on_c, 0, 59, 70
2, 268920, Note_on_c, 0, 71, 70
2, 268943, Note_on_c, 0, 71, 0
2, 268943, Note_on_c, 0, 59, 0
2, 269040, Note_on_c, 0, 48, 70
2, 269063, Note_on_c, 0, 48, 0
2, 269160, Note_on_c, 0, 60, 70
2, 269160, Note_on_c, 0, 72, 70
2, 269183, Note_on_c, 0, 72, 0
2, 269183, Note_on_c, 0, 60, 0
2, 269280, Note_on_c, 0, 52, 70
2, 269303, Note_on_c, 0, 52, 0
2, 269400, Note_on_c, 0, 64, 70
2, 269400, Note_on_c, 0, 76, 70
2, 269423, Note_on_c, 0, 76, 0
2, 269423, Note_on_c, 0, 64, 0
2, 269520, Note_on_c, 0, 53, 70
2, 269543, Note_on_c, 0, 53, 0
2, 269640, Note_on_c, 0, 65, 70
2, 269640, Note_on_c, 0, 77, 70
2, 269663, Note_on_c, 0, 77, 0
2, 269663, Note_on_c, 0, 65, 0
2, 269760, Note_on_c, 0, 52, 70
2, 269783, Note_on_c, 0, 52, 0
2, 269880, Note_on_c, 0, 64, 70
2, 269880, Note_on_c, 0, 76, 70
2, 269903, Note_on_c, 0, 76, 0
2, 269903, Note_on_c, 0, 64, 0
2, 270000, Note_on_c, 0, 53, 70
2, 270023, Note_on_c, 0, 53, 0
2, 270120, Note_on_c, 0, 65, 70
2, 270120, Note_on_c, 0, 77, 70
2, 270143, Note_on_c, 0, 77, 0
2, 270143, Note_on_c, 0, 65, 0
2, 270240, Note_on_c, 0, 56, 83
2, 270263, Note_on_c, 0, 56, 0
2, 270360, Note_on_c, 0, 68, 83
2, 270360, Note_on_c, 0, 80, 83
2, 270383, Note_on_c, 0, 80, 0
2, 270383, Note_on_c, 0, 68, 0
2, 270480, Note_on_c, 0, 57, 83
2, 270503, Note_on_c, 0, 57, 0
2, 270600, Note_on_c, 0, 69, 83
2, 270600, Note_on_c, 0, 81, 83
2, 270623, Note_on_c, 0, 81, 0
2, 270623, Note_on_c, 0, 69, 0
2, 270720, Note_on_c, 0, 56, 83
2, 270743, Note_on_c, 0, 56, 0
2, 270840, Note_on_c, 0, 68, 83
2, 270840, Note_on_c, 0, 80, 83
2, 270863, Note_on_c, 0, 80, 0
2, 270863, Note_on_c, 0, 68, 0
2, 270960, Note_on_c, 0, 57, 83
2, 270983, Note_on_c, 0, 57, 0
2, 271080, Note_on_c, 0, 69, 83
2, 271080, Note_on_c, 0, 81, 83
2, 271103, Note_on_c, 0, 81, 0
2, 271103, Note_on_c, 0, 69, 0
2, 271200, Note_on_c, 0, 59, 83
2, 271223, Note_on_c, 0, 59, 0
2, 271320, Note_on_c, 0, 71, 83
2, 271320, Note_on_c, 0, 83, 83
2, 271343, Note_on_c, 0, 83, 0
2, 271343, Note_on_c, 0, 71, 0
2, 271440, Note_on_c, 0, 60, 83
2, 271463, Note_on_c, 0, 60, 0
2, 271560, Note_on_c, 0, 72, 83
2, 271560, Note_on_c, 0, 84, 83
2, 271583, Note_on_c, 0, 84, 0
2, 271583, Note_on_c, 0, 72, 0
2, 271680, Note_on_c, 0, 59, 83
2, 271703, Note_on_c, 0, 59, 0
2, 271800, Note_on_c, 0, 71, 83
2, 271800, Note_on_c, 0, 83, 83
2, 271823, Note_on_c, 0, 83, 0
2, 271823, Note_on_c, 0, 71, 0
2, 271920, Note_on_c, 0, 60, 83
2, 271943, Note_on_c, 0, 60, 0
2, 272040, Note_on_c, 0, 72, 83
2, 272040, Note_on_c, 0, 84, 83
2, 272063, Note_on_c, 0, 84, 0
2, 272063, Note_on_c, 0, 72, 0
2, 272160, Note_on_c, 0, 64, 96
2, 272183, Note_on_c, 0, 64, 0
2, 272280, Note_on_c, 0, 76, 96
2, 272280, Note_on_c, 0, 88, 96
2, 272303, Note_on_c, 0, 88, 0
2, 272303, Note_on_c, 0, 76, 0
2, 272400, Note_on_c, 0, 65, 96
2, 272423, Note_on_c, 0, 65, 0
2, 272520, Note_on_c, 0, 77, 96
2, 272520, Note_on_c, 0, 89, 96
2, 272543, Note_on_c, 0, 89, 0
2, 272543, Note_on_c, 0, 77, 0
2, 272640, Note_on_c, 0, 59, 96
2, 272663, Note_on_c, 0, 59, 0
2, 272760, Note_on_c, 0, 71, 96
2, 272760, Note_on_c, 0, 83, 96
2, 272783, Note_on_c, 0, 83, 0
2, 272783, Note_on_c, 0, 71, 0
2, 272880, Note_on_c, 0, 60, 96
2, 272903, Note_on_c, 0, 60, 0
2, 273000, Note_on_c, 0, 72, 96
2, 273000, Note_on_c, 0, 84, 96
2, 273023, Note_on_c, 0, 84, 0
2, 273023, Note_on_c, 0, 72, 0
2, 273120, Note_on_c, 0, 64, 96
2, 273143, Note_on_c, 0, 64, 0
2, 273240, Note_on_c, 0, 76, 96
2, 273240, Note_on_c, 0, 88, 96
2, 273263, Note_on_c, 0, 88, 0
2, 273263, Note_on_c, 0, 76, 0
2, 273360, Note_on_c, 0, 65, 96
2, 273383, Note_on_c, 0, 65, 0
2, 273480, Note_on_c, 0, 77, 96
2, 273480, Note_on_c, 0, 89, 96
2, 273503, Note_on_c, 0, 89, 0
2, 273503, Note_on_c, 0, 77, 0
2, 273600, Note_on_c, 0, 59, 96
2, 273623, Note_on_c, 0, 59, 0
2, 273720, Note_on_c, 0, 71, 96
2, 273720, Note_on_c, 0, 83, 96
2, 273743, Note_on_c, 0, 83, 0
2, 273743, Note_on_c, 0, 71, 0
2, 273840, Note_on_c, 0, 60, 96
2, 273863, Note_on_c, 0, 60, 0
2, 273960, Note_on_c, 0, 72, 96
2, 273960, Note_on_c, 0, 84, 96
2, 273983, Note_on_c, 0, 84, 0
2, 273983, Note_on_c, 0, 72, 0
2, 274080, Note_on_c, 0, 64, 96
2, 274103, Note_on_c, 0, 64, 0
2, 274200, Note_on_c, 0, 76, 96
2, 274200, Note_on_c, 0, 88, 96
2, 274223, Note_on_c, 0, 88, 0
2, 274223, Note_on_c, 0, 76, 0
2, 274320, Note_on_c, 0, 65, 96
2, 274343, Note_on_c, 0, 65, 0
2, 274440, Note_on_c, 0, 77, 96
2, 274440, Note_on_c, 0, 89, 96
2, 274463, Note_on_c, 0, 89, 0
2, 274463, Note_on_c, 0, 77, 0
2, 274560, Note_on_c, 0, 62, 83
2, 274583, Note_on_c, 0, 62, 0
2, 274680, Note_on_c, 0, 74, 83
2, 274680, Note_on_c, 0, 86, 83
2, 274703, Note_on_c, 0, 86, 0
2, 274703, Note_on_c, 0, 74, 0
2, 274800, Note_on_c, 0, 63, 83
2, 274823, Note_on_c, 0, 63, 0
2, 274920, Note_on_c, 0, 75, 83
2, 274920, Note_on_c, 0, 87, 83
2, 274943, Note_on_c, 0, 87, 0
2, 274943, Note_on_c, 0, 75, 0
2, 275040, Note_on_c, 0, 60, 83
2, 275063, Note_on_c, 0, 60, 0
2, 275160, Note_on_c, 0, 72, 83
2, 275160, Note_on_c, 0, 84, 83
2, 275183, Note_on_c, 0, 84, 0
2, 275183, Note_on_c, 0, 72, 0
2, 275280, Note_on_c, 0, 61, 83
2, 275303, Note_on_c, 0, 61, 0
2, 275400, Note_on_c, 0, 73, 70
2, 275400, Note_on_c, 0, 85, 70
2, 275423, Note_on_c, 0, 85, 0
2, 275423, Note_on_c, 0, 73, 0
2, 275520, Note_on_c, 0, 59, 70
2, 275543, Note_on_c, 0, 59, 0
2, 275640, Note_on_c, 0, 71, 70
2, 275640, Note_on_c, 0, 83, 70
2, 275663, Note_on_c, 0, 83, 0
2, 275663, Note_on_c, 0, 71, 0
2, 275760, Note_on_c, 0, 60, 70
2, 275783, Note_on_c, 0, 60, 0
2, 275880, Note_on_c, 0, 72, 70
2, 275880, Note_on_c, 0, 84, 70
2, 275903, Note_on_c, 0, 84, 0
2, 275903, Note_on_c, 0, 72, 0
2, 276000, Note_on_c, 0, 58, 70
2, 276023, Note_on_c, 0, 58, 0
2, 276120, Note_on_c, 0, 70, 70
2, 276120, Note_on_c, 0, 82, 70
2, 276143, Note_on_c, 0, 82, 0
2, 276143, Note_on_c, 0, 70, 0
2, 276240, Note_on_c, 0, 60, 70
2, 276263, Note_on_c, 0, 60, 0
2, 276360, Note_on_c, 0, 72, 70
2, 276360, Note_on_c, 0, 84, 70
2, 276383, Note_on_c, 0, 84, 0
2, 276383, Note_on_c, 0, 72, 0
2, 276480, Note_on_c, 0, 61, 70
2, 276503, Note_on_c, 0, 61, 0
2, 276600, Note_on_c, 0, 73, 70
2, 276600, Note_on_c, 0, 85, 70
2, 276623, Note_on_c, 0, 85, 0
2, 276623, Note_on_c, 0, 73, 0
2, 276720, Note_on_c, 0, 60, 70
2, 276743, Note_on_c, 0, 60, 0
2, 276840, Note_on_c, 0, 72, 70
2, 276840, Note_on_c, 0, 84, 70
2, 276863, Note_on_c, 0, 84, 0
2, 276863, Note_on_c, 0, 72, 0
2, 276960, Note_on_c, 0, 63, 96
2, 276983, Note_on_c, 0, 63, 0
2, 277080, Note_on_c, 0, 75, 70
2, 277080, Note_on_c, 0, 87, 70
2, 277103, Note_on_c, 0, 87, 0
2, 277103, Note_on_c, 0, 75, 0
2, 277200, Note_on_c, 0, 61, 70
2, 277223, Note_on_c, 0, 61, 0
2, 277320, Note_on_c, 0, 73, 70
2, 277320, Note_on_c, 0, 85, 70
2, 277343, Note_on_c, 0, 85, 0
2, 277343, Note_on_c, 0, 73, 0
2, 277440, Note_on_c, 0, 60, 70
2, 277463, Note_on_c, 0, 60, 0
2, 277560, Note_on_c, 0, 72, 70
2, 277560, Note_on_c, 0, 84, 70
2, 277583, Note_on_c, 0, 84, 0
2, 277583, Note_on_c, 0, 72, 0
2, 277680, Note_on_c, 0, 58, 70
2, 277703, Note_on_c, 0, 58, 0
2, 277800, Note_on_c, 0, 70, 70
2, 277800, Note_on_c, 0, 82, 70
2, 277823, Note_on_c, 0, 82, 0
2, 277823, Note_on_c, 0, 70, 0
2, 277920, Note_on_c, 0, 56, 70
2, 277943, Note_on_c, 0, 56, 0
2, 278040, Note_on_c, 0, 68, 70
2, 278040, Note_on_c, 0, 80, 70
2, 278063, Note_on_c, 0, 80, 0
2, 278063, Note_on_c, 0, 68, 0
2, 278160, Note_on_c, 0, 57, 70
2, 278183, Note_on_c, 0, 57, 0
2, 278280, Note_on_c, 0, 69, 70
2, 278280, Note_on_c, 0, 81, 70
2, 278303, Note_on_c, 0, 81, 0
2, 278303, Note_on_c, 0, 69, 0
2, 278400, Note_on_c, 0, 52, 70
2, 278423, Note_on_c, 0, 52, 0
2, 278520, Note_on_c, 0, 64, 70
2, 278520, Note_on_c, 0, 76, 70
2, 278543, Note_on_c, 0, 76, 0
2, 278543, Note_on_c, 0, 64, 0
2, 278640, Note_on_c, 0, 53, 70
2, 278663, Note_on_c, 0, 53, 0
2, 278760, Note_on_c, 0, 65, 70
2, 278760, Note_on_c, 0, 77, 70
2, 278783, Note_on_c, 0, 77, 0
2, 278783, Note_on_c, 0, 65, 0
2, 278880, Note_on_c, 0, 56, 70
2, 278903, Note_on_c, 0, 56, 0
2, 279000, Note_on_c, 0, 68, 70
2, 279000, Note_on_c, 0, 80, 70
2, 279023, Note_on_c, 0, 80, 0
2, 279023, Note_on_c, 0, 68, 0
2, 279120, Note_on_c, 0, 57, 70
2, 279143, Note_on_c, 0, 57, 0
2, 279240, Note_on_c, 0, 69, 70
2, 279240, Note_on_c, 0, 81, 70
2, 279263, Note_on_c, 0, 81, 0
2, 279263, Note_on_c, 0, 69, 0
2, 279360, Note_on_c, 0, 52, 70
2, 279383, Note_on_c, 0, 52, 0
2, 279480, Note_on_c, 0, 64, 70
2, 279480, Note_on_c, 0, 76, 70
2, 279503, Note_on_c, 0, 76, 0
2, 279503, Note_on_c, 0, 64, 0
2, 279600, Note_on_c, 0, 53, 70
2, 279623, Note_on_c, 0, 53, 0
2, 279720, Note_on_c, 0, 65, 70
2, 279720, Note_on_c, 0, 77, 70
2, 279743, Note_on_c, 0, 77, 0
2, 279743, Note_on_c, 0, 65, 0
2, 322080, Note_on_c, 0, 73, 57
2, 322560, Note_on_c, 0, 73, 0
2, 322560, Note_on_c, 0, 69, 57
2, 323520, Note_on_c, 0, 69, 0
2, 323520, Note_on_c, 0, 70, 57
2, 324000, Note_on_c, 0, 70, 0
2, 324000, Note_on_c, 0, 77, 57
2, 324480, Note_on_c, 0, 77, 0
2, 324480, Note_on_c, 0, 72, 57
2, 325440, Note_on_c, 0, 72, 0
2, 325440, Note_on_c, 0, 73, 70
2, 325920, Note_on_c, 0, 73, 0
2, 325920, Note_on_c, 0, 68, 70
2, 325920, Note_on_c, 0, 80, 70
2, 326400, Note_on_c, 0, 80, 0
2, 326400, Note_on_c, 0, 68, 0
2, 326400, Control_c, 0, 64, 127
2, 326400, Note_on_c, 0, 67, 70
2, 326400, Note_on_c, 0, 79, 70
2, 326790, Note_on_c, 0, 67, 70
2, 326820, Note_on_c, 0, 70, 70
2, 326850, Note_on_c, 0, 75, 70
2, 326880, Note_on_c, 0, 79, 0
2, 326880, Note_on_c, 0, 67, 0
2, 326880, Note_on_c, 0, 82, 70
2, 327360, Note_on_c, 0, 82, 0
2, 327360, Note_on_c, 0, 75, 0
2, 327360, Note_on_c, 0, 67, 0
2, 327360, Note_on_c, 0, 70, 0
2, 327360, Control_c, 0, 64, 0
2, 327360, Note_on_c, 0, 68, 70
2, 327360, Note_on_c, 0, 70, 70
2, 327360, Note_on_c, 0, 77, 70
2, 327360, Note_on_c, 0, 80, 70
2, 327840, Note_on_c, 0, 80, 0
2, 327840, Note_on_c, 0, 68, 0
2, 327840, Note_on_c, 0, 70, 0
2, 327840, Note_on_c, 0, 77, 0
2, 327840, Note_on_c, 0, 67, 70
2, 327840, Note_on_c, 0, 79, 70
2, 328320, Note_on_c, 0, 79, 0
2, 328320, Note_on_c, 0, 67, 0
2, 328320, Note_on_c, 0, 65, 57
2, 328320, Note_on_c, 0, 77, 57
2, 328800, Note_on_c, 0, 77, 0
2, 328800, Note_on_c, 0, 65, 0
2, 328800, Note_on_c, 0, 70, 57
2, 328800, Note_on_c, 0, 75, 57
2, 329280, Note_on_c, 0, 75, 0
2, 329280, Note_on_c, 0, 70, 0
2, 329280, Note_on_c, 0, 70, 57
2, 329760, Note_on_c, 0, 70, 0
2, 329760, Note_on_c, 0, 63, 57
2, 329760, Note_on_c, 0, 72, 57
2, 330240, Note_on_c, 0, 72, 0
2, 330240, Note_on_c, 0, 63, 0
2, 330240, Note_on_c, 0, 65, 57
2, 330240, Note_on_c, 0, 72, 57
2, 330720, Note_on_c, 0, 72, 0
2, 330720, Note_on_c, 0, 65, 0
2, 330720, Note_on_c, 0, 79, 57
2, 331200, Note_on_c, 0, 79, 0
2, 331200, Note_on_c, 0, 75, 57
2, 331680, Note_on_c, 0, 75, 0
2, 331680, Note_on_c, 0, 74, 57
2, 332160, Note_on_c, 0, 74, 0
2, 332160, Note_on_c, 0, 72, 57
2, 332640, Note_on_c, 0, 72, 0
2, 332640, Note_on_c, 0, 65, 57
2, 332640, Note_on_c, 0, 71, 57
2, 334080, Note_on_c, 0, 71, 0
2, 334080, Note_on_c, 0, 65, 0
2, 334080, Note_on_c, 0, 65, 57
2, 334080, Note_on_c, 0, 71, 57
2, 334560, Note_on_c, 0, 71, 0
2, 334560, Note_on_c, 0, 65, 0
2, 334560, Note_on_c, 0, 72, 57
2, 334560, Note_on_c, 0, 79, 57
2, 335040, Note_on_c, 0, 79, 0
2, 335040, Note_on_c, 0, 72, 0
2, 335040, Note_on_c, 0, 75, 57
2, 335520, Note_on_c, 0, 75, 0
2, 335520, Note_on_c, 0, 74, 57
2, 336000, Note_on_c, 0, 74, 0
2, 336000, Note_on_c, 0, 72, 57
2, 336480, Note_on_c, 0, 72, 0
2, 336480, Note_on_c, 0, 65, 57
2, 336480, Note_on_c, 0, 71, 57
2, 337920, Note_on_c, 0, 71, 0
2, 337920, Note_on_c, 0, 65, 0
2, 337920, Note_on_c, 0, 65, 57
2, 337920, Note_on_c, 0, 71, 57
2, 338400, Note_on_c, 0, 71, 0
2, 338400, Note_on_c, 0, 65, 0
2, 338400, Note_on_c, 0, 79, 57
2, 338880, Note_on_c, 0, 79, 0
2, 338880, Note_on_c, 0, 75, 57
2, 339360, Note_on_c, 0, 75, 0
2, 339360, Note_on_c, 0, 74, 57
2, 339840, Note_on_c, 0, 74, 0
2, 339840, Note_on_c, 0, 72, 57
2, 340320, Note_on_c, 0, 72, 0
2, 340320, Note_on_c, 0, 70, 57
2, 340800, Note_on_c, 0, 70, 0
2, 340800, Note_on_c, 0, 68, 57
2, 341280, Note_on_c, 0, 68, 0
2, 341280, Note_on_c, 0, 67, 57
2, 341760, Note_on_c, 0, 67, 0
2, 341760, Note_on_c, 0, 63, 57
2, 342240, Note_on_c, 0, 63, 0
2, 342240, Note_on_c, 0, 62, 57
2, 342720, Note_on_c, 0, 62, 0
2, 342720, Note_on_c, 0, 60, 57
2, 343200, Note_on_c, 0, 60, 0
2, 343200, Note_on_c, 0, 63, 70
2, 344640, Note_on_c, 0, 63, 0
2, 344640, Note_on_c, 0, 62, 57
2, 345120, Note_on_c, 0, 62, 0
2, 345120, Control_c, 0, 64, 127
2, 345120, Note_on_c, 0, 51, 57
2, 345120, Note_on_c, 0, 55, 57
2, 345120, Note_on_c, 0, 60, 57
2, 345600, Note_on_c, 0, 60, 0
2, 345600, Note_on_c, 0, 55, 0
2, 345600, Note_on_c, 0, 51, 0
2, 345600, Control_c, 0, 64, 0
2, 346080, Note_on_c, 0, 63, 57
2, 346560, Note_on_c, 0, 63, 0
2, 346560, Note_on_c, 0, 65, 57
2, 347040, Note_on_c, 0, 65, 0
2, 347040, Note_on_c, 0, 67, 57
2, 347520, Note_on_c, 0, 67, 0
2, 347520, Note_on_c, 0, 63, 57
2, 348000, Note_on_c, 0, 63, 0
2, 348000, Note_on_c, 0, 65, 57
2, 348480, Note_on_c, 0, 65, 0
2, 348480, Note_on_c, 0, 67, 57
2, 348960, Note_on_c, 0, 67, 0
2, 348960, Note_on_c, 0, 68, 57
2, 349440, Note_on_c, 0, 68, 0
2, 349440, Note_on_c, 0, 63, 57
2, 349920, Note_on_c, 0, 63, 0
2, 349920, Note_on_c, 0, 65, 57
2, 350400, Note_on_c, 0, 65, 0
2, 350400, Note_on_c, 0, 58, 57
2, 350880, Note_on_c, 0, 58, 0
2, 350880, Note_on_c, 0, 65, 57
2, 351360, Note_on_c, 0, 65, 0
2, 351360, Note_on_c, 0, 58, 57
2, 351840, Note_on_c, 0, 58, 0
2, 351840, Note_on_c, 0, 65, 57
2, 352320, Note_on_c, 0, 65, 0
2, 352320, Note_on_c, 0, 60, 57
2, 352800, Note_on_c, 0, 60, 0
2, 352800, Note_on_c, 0, 65, 57
2, 353280, Note_on_c, 0, 65, 0
2, 353280, Note_on_c, 0, 60, 57
2, 353760, Note_on_c, 0, 60, 0
2, 353760, Note_on_c, 0, 63, 57
2, 354240, Note_on_c, 0, 63, 0
2, 354240, Note_on_c, 0, 65, 57
2, 354720, Note_on_c, 0, 65, 0
2, 354720, Note_on_c, 0, 67, 57
2, 355200, Note_on_c, 0, 67, 0
2, 355200, Note_on_c, 0, 63, 57
2, 355680, Note_on_c, 0, 63, 0
2, 355680, Note_on_c, 0, 65, 57
2, 356160, Note_on_c, 0, 65, 0
2, 356160, Note_on_c, 0, 67, 57
2, 356640, Note_on_c, 0, 67, 0
2, 356640, Note_on_c, 0, 68, 57
2, 357120, Note_on_c, 0, 68, 0
2, 357120, Note_on_c, 0, 63, 57
2, 357600, Note_on_c, 0, 63, 0
2, 357600, Note_on_c, 0, 65, 57
2, 358080, Note_on_c, 0, 65, 0
2, 358080, Note_on_c, 0, 58, 57
2, 358560, Note_on_c, 0, 58, 0
2, 358560, Note_on_c, 0, 65, 57
2, 359040, Note_on_c, 0, 65, 0
2, 360000, Note_on_c, 0, 60, 57
2, 360000, Note_on_c, 0, 72, 57
2, 360480, Note_on_c, 0, 72, 0
2, 360480, Note_on_c, 0, 60, 0
2, 360480, Note_on_c, 0, 60, 83
2, 360480, Note_on_c, 0, 67, 83
2, 361440, Note_on_c, 0, 67, 0
2, 361440, Note_on_c, 0, 68, 57
2, 361920, Note_on_c, 0, 68, 0
2, 361920, Note_on_c, 0, 60, 0
2, 363840, Note_on_c, 0, 60, 57
2, 363840, Note_on_c, 0, 72, 57
2, 364320, Note_on_c, 0, 72, 0
2, 364320, Note_on_c, 0, 60, 0
2, 364320, Note_on_c, 0, 60, 83
2, 364320, Note_on_c, 0, 67, 83
2, 365280, Note_on_c, 0, 67, 0
2, 365280, Note_on_c, 0, 68, 57
2, 365760, Note_on_c, 0, 68, 0
2, 365760, Note_on_c, 0, 60, 0
2, 367680, Note_on_c, 0, 70, 57
2, 367680, Note_on_c, 0, 79, 57
2, 367680, Note_on_c, 0, 84, 57
2, 368160, Note_on_c, 0, 84, 0
2, 368160, Note_on_c, 0, 79, 0
2, 368160, Note_on_c, 0, 70, 0
2, 368160, Note_on_c, 0, 70, 83
2, 368160, Note_on_c, 0, 78, 83
2, 369120, Note_on_c, 0, 78, 0
2, 369120, Note_on_c, 0, 79, 57
2, 369600, Note_on_c, 0, 79, 0
2, 369600, Note_on_c, 0, 70, 0
2, 372480, Note_on_c, 0, 73, 70
2, 372960, Note_on_c, 0, 73, 0
2, 372960, Note_on_c, 0, 69, 96
2, 373920, Note_on_c, 0, 69, 0
2, 373920, Note_on_c, 0, 70, 70
2, 374400, Note_on_c, 0, 70, 0
2, 374400, Note_on_c, 0, 77, 70
2, 374880, Note_on_c, 0, 77, 0
2, 374880, Note_on_c, 0, 72, 96
2, 375840, Note_on_c, 0, 72, 0
2, 375840, Note_on_c, 0, 73, 70
2, 376320, Note_on_c, 0, 73, 0
2, 376320, Note_on_c, 0, 80, 70
2, 376800, Note_on_c, 0, 80, 0
2, 376800, Note_on_c, 0, 79, 70
2, 377280, Note_on_c, 0, 79, 0
2, 377280, Note_on_c, 0, 82, 70
2, 377760, Note_on_c, 0, 82, 0
2, 377760, Note_on_c, 0, 80, 70
2, 378240, Note_on_c, 0, 80, 0
2, 378240, Note_on_c, 0, 79, 96
2, 378720, Note_on_c, 0, 79, 0
2, 378720, Note_on_c, 0, 77, 96
2, 379200, Note_on_c, 0, 77, 0
2, 379200, Note_on_c, 0, 75, 96
2, 379680, Note_on_c, 0, 75, 0
2, 379680, Note_on_c, 0, 70, 96
2, 380160, Note_on_c, 0, 70, 0
2, 380160, Note_on_c, 0, 72, 70
2, 380640, Note_on_c, 0, 72, 0
2, 380640, Note_on_c, 0, 72, 70
2, 381120, Note_on_c, 0, 72, 0
2, 381120, Note_on_c, 0, 77, 96
2, 382560, Note_on_c, 0, 77, 0
2, 382560, Note_on_c, 0, 72, 70
2, 383040, Note_on_c, 0, 72, 0
2, 383040, Note_on_c, 0, 77, 70
2, 383520, Note_on_c, 0, 77, 0
2, 383520, Note_on_c, 0, 67, 70
2, 384000, Note_on_c, 0, 67, 0
2, 384000, Note_on_c, 0, 72, 70
2, 384480, Note_on_c, 0, 72, 0
2, 384480, Note_on_c, 0, 68, 70
2, 384960, Note_on_c, 0, 68, 0
2, 384960, Note_on_c, 0, 64, 70
2, 385440, Note_on_c, 0, 64, 0
2, 385440, Note_on_c, 0, 65, 70
2, 385920, Note_on_c, 0, 65, 0
2, 385920, Note_on_c, 0, 72, 70
2, 386400, Note_on_c, 0, 72, 0
2, 386400, Note_on_c, 0, 69, 70
2, 387360, Note_on_c, 0, 69, 0
2, 387360, Note_on_c, 0, 70, 70
2, 387600, Note_on_c, 0, 70, 0
2, 387840, Note_on_c, 0, 73, 70
2, 388320, Note_on_c, 0, 73, 0
2, 388320, Note_on_c, 0, 69, 96
2, 389280, Note_on_c, 0, 69, 0
2, 389280, Note_on_c, 0, 70, 70
2, 389760, Note_on_c, 0, 70, 0
2, 389760, Note_on_c, 0, 77, 70
2, 390240, Note_on_c, 0, 77, 0
2, 390240, Note_on_c, 0, 72, 96
2, 391200, Note_on_c, 0, 72, 0
2, 391200, Note_on_c, 0, 73, 70
2, 391680, Note_on_c, 0, 73, 0
2, 391680, Note_on_c, 0, 80, 70
2, 392160, Note_on_c, 0, 80, 0
2, 392160, Note_on_c, 0, 79, 70
2, 392640, Note_on_c, 0, 79, 0
2, 392640, Note_on_c, 0, 82, 70
2, 393120, Note_on_c, 0, 82, 0
2, 393120, Note_on_c, 0, 80, 70
2, 393600, Note_on_c, 0, 80, 0
2, 393600, Note_on_c, 0, 79, 96
2, 394080, Note_on_c, 0, 79, 0
2, 394080, Note_on_c, 0, 77, 96
2, 394560, Note_on_c, 0, 77, 0
2, 394560, Note_on_c, 0, 75, 96
2, 395040, Note_on_c, 0, 75, 0
2, 395040, Note_on_c, 0, 70, 96
2, 395520, Note_on_c, 0, 70, 0
2, 395520, Note_on_c, 0, 72, 70
2, 396000, Note_on_c, 0, 72, 0
2, 396000, Note_on_c, 0, 72, 70
2, 396480, Note_on_c, 0, 72, 0
2, 396480, Note_on_c, 0, 79, 96
2, 396960, Note_on_c, 0, 79, 0
2, 396960, Note_on_c, 0, 75, 96
2, 397440, Note_on_c, 0, 75, 0
2, 397440, Note_on_c, 0, 74, 96
2, 397920, Note_on_c, 0, 74, 0
2, 397920, Note_on_c, 0, 72, 96
2, 398400, Note_on_c, 0, 72, 0
2, 398400, Note_on_c, 0, 68, 96
2, 398880, Note_on_c, 0, 68, 0
2, 398880, Note_on_c, 0, 67, 96
2, 399360, Note_on_c, 0, 67, 0
2, 399360, Control_c, 0, 64, 127
2, 399360, Note_on_c, 0, 66, 96
2, 399840, Note_on_c, 0, 66, 0
2, 399840, Note_on_c, 0, 67, 96
2, 400320, Note_on_c, 0, 67, 0
2, 400320, Note_on_c, 0, 79, 96
2, 400800, Note_on_c, 0, 79, 0
2, 400800, Note_on_c, 0, 75, 96
2, 401280, Note_on_c, 0, 75, 0
2, 401280, Note_on_c, 0, 74, 96
2, 401760, Note_on_c, 0, 74, 0
2, 401760, Note_on_c, 0, 72, 96
2, 402240, Note_on_c, 0, 72, 0
2, 402240, Note_on_c, 0, 68, 96
2, 402720, Note_on_c, 0, 68, 0
2, 402720, Note_on_c, 0, 67, 96
2, 403200, Note_on_c, 0, 67, 0
2, 403200, Control_c, 0, 64, 127
2, 403200, Note_on_c, 0, 66, 96
2, 403680, Note_on_c, 0, 66, 0
2, 403680, Note_on_c, 0, 67, 96
2, 404160, Note_on_c, 0, 67, 0
2, 404160, Control_c, 0, 64, 0
2, 404280, Control_c, 0, 64, 127
2, 404280, Note_on_c, 0, 67, 96
2, 404280, Note_on_c, 0, 79, 96
2, 404400, Note_on_c, 0, 79, 0
2, 404400, Note_on_c, 0, 67, 0
2, 404400, Note_on_c, 0, 75, 70
2, 404520, Note_on_c, 0, 75, 0
2, 404520, Note_on_c, 0, 72, 70
2, 404640, Note_on_c, 0, 72, 0
2, 404640, Note_on_c, 0, 63, 70
2, 404760, Note_on_c, 0, 63, 0
2, 404760, Note_on_c, 0, 75, 70
2, 404880, Note_on_c, 0, 75, 0
2, 404880, Note_on_c, 0, 72, 70
2, 405000, Note_on_c, 0, 72, 0
2, 405000, Note_on_c, 0, 67, 70
2, 405120, Note_on_c, 0, 67, 0
2, 405120, Note_on_c, 0, 62, 70
2, 405240, Note_on_c, 0, 62, 0
2, 405240, Note_on_c, 0, 74, 70
2, 405360, Note_on_c, 0, 74, 0
2, 405360, Note_on_c, 0, 67, 70
2, 405480, Note_on_c, 0, 67, 0
2, 405480, Note_on_c, 0, 63, 70
2, 405600, Note_on_c, 0, 63, 0
2, 405600, Note_on_c, 0, 60, 70
2, 405720, Note_on_c, 0, 60, 0
2, 405720, Note_on_c, 0, 72, 70
2, 405840, Note_on_c, 0, 72, 0
2, 405840, Note_on_c, 0, 67, 70
2, 405960, Note_on_c, 0, 67, 0
2, 405960, Control_c, 0, 64, 0
2, 405960, Note_on_c, 0, 63, 70
2, 406080, Note_on_c, 0, 63, 0
2, 406080, Control_c, 0, 64, 127
2, 406200, Note_on_c, 0, 72, 109
2, 406200, Note_on_c, 0, 84, 109
2, 406320, Note_on_c, 0, 84, 0
2, 406320, Note_on_c, 0, 72, 0
2, 406320, Note_on_c, 0, 80, 83
2, 406440, Note_on_c, 0, 80, 0
2, 406440, Note_on_c, 0, 77, 83
2, 406560, Note_on_c, 0, 77, 0
2, 406560, Note_on_c, 0, 68, 83
2, 406680, Note_on_c, 0, 68, 0
2, 406680, Note_on_c, 0, 80, 83
2, 406800, Note_on_c, 0, 80, 0
2, 406800, Note_on_c, 0, 77, 83
2, 406920, Note_on_c, 0, 77, 0
2, 406920, Note_on_c, 0, 72, 83
2, 407040, Note_on_c, 0, 72, 0
2, 407040, Note_on_c, 0, 67, 83
2, 407160, Note_on_c, 0, 67, 0
2, 407160, Note_on_c, 0, 79, 83
2, 407280, Note_on_c, 0, 79, 0
2, 407280, Note_on_c, 0, 72, 83
2, 407400, Note_on_c, 0, 72, 0
2, 407400, Note_on_c, 0, 68, 83
2, 407520, Note_on_c, 0, 68, 0
2, 407520, Note_on_c, 0, 65, 83
2, 407640, Note_on_c, 0, 65, 0
2, 407640, Note_on_c, 0, 77, 83
2, 407760, Note_on_c, 0, 77, 0
2, 407760, Note_on_c, 0, 72, 83
2, 407880, Note_on_c, 0, 72, 0
2, 407880, Control_c, 0, 64, 0
2, 407880, Note_on_c, 0, 68, 83
2, 408000, Note_on_c, 0, 68, 0
2, 408000, Control_c, 0, 64, 127
2, 408120, Note_on_c, 0, 77, 109
2, 408120, Note_on_c, 0, 89, 109
2, 408240, Note_on_c, 0, 89, 0
2, 408240, Note_on_c, 0, 77, 0
2, 408240, Note_on_c, 0, 85, 83
2, 408360, Note_on_c, 0, 85, 0
2, 408360, Note_on_c, 0, 82, 83
2, 408480, Note_on_c, 0, 82, 0
2, 408480, Note_on_c, 0, 73, 83
2, 408600, Note_on_c, 0, 73, 0
2, 408600, Note_on_c, 0, 85, 83
2, 408720, Note_on_c, 0, 85, 0
2, 408720, Note_on_c, 0, 82, 83
2, 408840, Note_on_c, 0, 82, 0
2, 408840, Note_on_c, 0, 77, 83
2, 408960, Note_on_c, 0, 77, 0
2, 408960, Note_on_c, 0, 72, 83
2, 409080, Note_on_c, 0, 72, 0
2, 409080, Note_on_c, 0, 84, 83
2, 409200, Note_on_c, 0, 84, 0
2, 409200, Note_on_c, 0, 77, 83
2, 409320, Note_on_c, 0, 77, 0
2, 409320, Note_on_c, 0, 73, 83
2, 409440, Note_on_c, 0, 73, 0
2, 409440, Note_on_c, 0, 70, 83
2, 409560, Note_on_c, 0, 70, 0
2, 409560, Note_on_c, 0, 82, 83
2, 409680, Note_on_c, 0, 82, 0
2, 409680, Note_on_c, 0, 77, 83
2, 409800, Note_on_c, 0, 77, 0
2, 409800, Control_c, 0, 64, 0
2, 409800, Note_on_c, 0, 73, 83
2, 409920, Note_on_c, 0, 73, 0
2, 409920, Control_c, 0, 64, 127
2, 410040, Note_on_c, 0, 80, 109
2, 410040, Note_on_c, 0, 92, 109
2, 410160, Note_on_c, 0, 92, 0
2, 410160, Note_on_c, 0, 80, 0
2, 410160, Note_on_c, 0, 87, 83
2, 410280, Note_on_c, 0, 87, 0
2, 410280, Note_on_c, 0, 84, 83
2, 410400, Note_on_c, 0, 84, 0
2, 410400, Note_on_c, 0, 75, 83
2, 410520, Note_on_c, 0, 75, 0
2, 410520, Note_on_c, 0, 87, 83
2, 410640, Note_on_c, 0, 87, 0
2, 410640, Note_on_c, 0, 84, 83
2, 410760, Note_on_c, 0, 84, 0
2, 410760, Note_on_c, 0, 80, 83
2, 410880, Note_on_c, 0, 80, 0
2, 410880, Control_c, 0, 64, 127
2, 410880, Note_on_c, 0, 74, 83
2, 411000, Note_on_c, 0, 74, 0
2, 411000, Note_on_c, 0, 86, 83
2, 411120, Note_on_c, 0, 86, 0
2, 411120, Note_on_c, 0, 80, 83
2, 411240, Note_on_c, 0, 80, 0
2, 411240, Note_on_c, 0, 78, 83
2, 411360, Note_on_c, 0, 78, 0
2, 411360, Note_on_c, 0, 72, 83
2, 411480, Note_on_c, 0, 72, 0
2, 411480, Note_on_c, 0, 84, 83
2, 411600, Note_on_c, 0, 84, 0
2, 411600, Note_on_c, 0, 80, 83
2, 411720, Note_on_c, 0, 80, 0
2, 411720, Control_c, 0, 64, 0
2, 411720, Note_on_c, 0, 78, 83
2, 411840, Note_on_c, 0, 78, 0
2, 411840, Control_c, 0, 64, 127
2, 411960, Note_on_c, 0, 71, 83
2, 411960, Note_on_c, 0, 83, 83
2, 412080, Note_on_c, 0, 83, 0
2, 412080, Note_on_c, 0, 71, 0
2, 412080, Note_on_c, 0, 80, 83
2, 412200, Note_on_c, 0, 80, 0
2, 412200, Note_on_c, 0, 78, 83
2, 412320, Note_on_c, 0, 78, 0
2, 412320, Note_on_c, 0, 72, 83
2, 412440, Note_on_c, 0, 72, 0
2, 412440, Note_on_c, 0, 84, 83
2, 412560, Note_on_c, 0, 84, 0
2, 412560, Note_on_c, 0, 80, 83
2, 412680, Note_on_c, 0, 80, 0
2, 412680, Note_on_c, 0, 78, 83
2, 412800, Note_on_c, 0, 78, 0
2, 412800, Note_on_c, 0, 59, 83
2, 412920, Note_on_c, 0, 59, 0
2, 412920, Note_on_c, 0, 71, 83
2, 413040, Note_on_c, 0, 71, 0
2, 413040, Note_on_c, 0, 68, 83
2, 413160, Note_on_c, 0, 68, 0
2, 413160, Note_on_c, 0, 66, 83
2, 413280, Note_on_c, 0, 66, 0
2, 413280, Note_on_c, 0, 60, 83
2, 413400, Note_on_c, 0, 60, 0
2, 413400, Note_on_c, 0, 72, 83
2, 413520, Note_on_c, 0, 72, 0
2, 413520, Note_on_c, 0, 68, 83
2, 413640, Note_on_c, 0, 68, 0
2, 413640, Note_on_c, 0, 66, 83
2, 413760, Note_on_c, 0, 66, 0
2, 413760, Note_on_c, 0, 47, 83
2, 413880, Note_on_c, 0, 47, 0
2, 413880, Note_on_c, 0, 59, 83
2, 414000, Note_on_c, 0, 59, 0
2, 414000, Note_on_c, 0, 56, 83
2, 414120, Note_on_c, 0, 56, 0
2, 414120, Note_on_c, 0, 54, 83
2, 414240, Note_on_c, 0, 54, 0
2, 414240, Note_on_c, 0, 48, 83
2, 414360, Note_on_c, 0, 48, 0
2, 414360, Note_on_c, 0, 60, 83
2, 414480, Note_on_c, 0, 60, 0
2, 414480, Note_on_c, 0, 56, 83
2, 414600, Note_on_c, 0, 56, 0
2, 414600, Control_c, 0, 64, 0
2, 414600, Note_on_c, 0, 54, 83
2, 414720, Note_on_c, 0, 54, 0
2, 414720, Note_on_c, 0, 48, 83
2, 414720, Note_on_c, 0, 51, 83
2, 414720, Note_on_c, 0, 55, 83
2, 414960, Note_on_c, 0, 55, 0
2, 414960, Note_on_c, 0, 51, 0
2, 414960, Note_on_c, 0, 48, 0
2, 415080, Note_on_c, 0, 39, 83
2, 415080, Note_on_c, 0, 43, 83
2, 415080, Note_on_c, 0, 47, 83
2, 415200, Note_on_c, 0, 47, 0
2, 415200, Note_on_c, 0, 43, 0
2, 415200, Note_on_c, 0, 39, 0
2, 415200, Note_on_c, 0, 48, 83
2, 415200, Note_on_c, 0, 51, 83
2, 415200, Note_on_c, 0, 55, 83
2, 415320, Note_on_c, 0, 55, 0
2, 415320, Note_on_c, 0, 51, 0
2, 415320, Note_on_c, 0, 48, 0
2, 415320, Note_on_c, 0, 39, 83
2, 415320, Note_on_c, 0, 43, 83
2, 415320, Note_on_c, 0, 47, 83
2, 415440, Note_on_c, 0, 47, 0
2, 415440, Note_on_c, 0, 43, 0
2, 415440, Note_on_c, 0, 39, 0
2, 415440, Note_on_c, 0, 50, 83
2, 415440, Note_on_c, 0, 51, 83
2, 415440, Note_on_c, 0, 55, 83
2, 415560, Note_on_c, 0, 55, 0
2, 415560, Note_on_c, 0, 51, 0
2, 415560, Note_on_c, 0, 50, 0
2, 415560, Note_on_c, 0, 39, 83
2, 415560, Note_on_c, 0, 43, 83
2, 415560, Note_on_c, 0, 48, 83
2, 415680, Note_on_c, 0, 48, 0
2, 415680, Note_on_c, 0, 43, 0
2, 415680, Note_on_c, 0, 39, 0
2, 415680, Note_on_c, 0, 51, 83
2, 415680, Note_on_c, 0, 55, 83
2, 415680, Note_on_c, 0, 60, 83
2, 415800, Note_on_c, 0, 60, 0
2, 415800, Note_on_c, 0, 55, 0
2, 415800, Note_on_c, 0, 51, 0
2, 415800, Note_on_c, 0, 43, 83
2, 415800, Note_on_c, 0, 48, 83
2, 415800, Note_on_c, 0, 50, 83
2, 415920, Note_on_c, 0, 50, 0
2, 415920, Note_on_c, 0, 48, 0
2, 415920, Note_on_c, 0, 43, 0
2, 415920, Note_on_c, 0, 53, 83
2, 415920, Note_on_c, 0, 55, 83
2, 415920, Note_on_c, 0, 60, 83
2, 416040, Note_on_c, 0, 60, 0
2, 416040, Note_on_c, 0, 55, 0
2, 416040, Note_on_c, 0, 53, 0
2, 416040, Note_on_c, 0, 43, 83
2, 416040, Note_on_c, 0, 48, 83
2, 416040, Note_on_c, 0, 51, 83
2, 416160, Note_on_c, 0, 51, 0
2, 416160, Note_on_c, 0, 48, 0
2, 416160, Note_on_c, 0, 43, 0
2, 416160, Note_on_c, 0, 55, 83
2, 416160, Note_on_c, 0, 60, 83
2, 416160, Note_on_c, 0, 63, 83
2, 416280, Note_on_c, 0, 63, 0
2, 416280, Note_on_c, 0, 60, 0
2, 416280, Note_on_c, 0, 55, 0
2, 416280, Note_on_c, 0, 48, 83
2, 416280, Note_on_c, 0, 51, 83
2, 416280, Note_on_c, 0, 54, 83
2, 416400, Note_on_c, 0, 54, 0
2, 416400, Note_on_c, 0, 51, 0
2, 416400, Note_on_c, 0, 48, 0
2, 416400, Note_on_c, 0, 56, 83
2, 416400, Note_on_c, 0, 60, 83
2, 416400, Note_on_c, 0, 63, 83
2, 416520, Note_on_c, 0, 63, 0
2, 416520, Note_on_c, 0, 60, 0
2, 416520, Note_on_c, 0, 56, 0
2, 416520, Note_on_c, 0, 48, 83
2, 416520, Note_on_c, 0, 51, 83
2, 416520, Note_on_c, 0, 55, 83
2, 416640, Note_on_c, 0, 55, 0
2, 416640, Note_on_c, 0, 51, 0
2, 416640, Note_on_c, 0, 48, 0
2, 416640, Note_on_c, 0, 60, 83
2, 416640, Note_on_c, 0, 63, 83
2, 416640, Note_on_c, 0, 67, 83
2, 416760, Note_on_c, 0, 67, 0
2, 416760, Note_on_c, 0, 63, 0
2, 416760, Note_on_c, 0, 60, 0
2, 416760, Note_on_c, 0, 51, 83
2, 416760, Note_on_c, 0, 55, 83
2, 416760, Note_on_c, 0, 59, 83
2, 416880, Note_on_c, 0, 59, 0
2, 416880, Note_on_c, 0, 55, 0
2, 416880, Note_on_c, 0, 51, 0
2, 416880, Note_on_c, 0, 62, 83
2, 416880, Note_on_c, 0, 63, 83
2, 416880, Note_on_c, 0, 67, 83
2, 417000, Note_on_c, 0, 67, 0
2, 417000, Note_on_c, 0, 63, 0
2, 417000, Note_on_c, 0, 62, 0
2, 417000, Note_on_c, 0, 51, 83
2, 417000, Note_on_c, 0, 55, 83
2, 417000, Note_on_c, 0, 60, 83
2, 417120, Note_on_c, 0, 60, 0
2, 417120, Note_on_c, 0, 55, 0
2, 417120, Note_on_c, 0, 51, 0
2, 417120, Note_on_c, 0, 55, 83
2, 417120, Note_on_c, 0, 60, 83
2, 417120, Note_on_c, 0, 63, 83
2, 417240, Note_on_c, 0, 63, 0
2, 417240, Note_on_c, 0, 60, 0
2, 417240, Note_on_c, 0, 55, 0
2, 417240, Note_on_c, 0, 48, 83
2, 417240, Note_on_c, 0, 51, 83
2, 417240, Note_on_c, 0, 54, 83
2, 417360, Note_on_c, 0, 54, 0
2, 417360, Note_on_c, 0, 51, 0
2, 417360, Note_on_c, 0, 48, 0
2, 417360, Note_on_c, 0, 56, 83
2, 417360, Note_on_c, 0, 60, 83
2, 417360, Note_on_c, 0, 63, 83
2, 417480, Note_on_c, 0, 63, 0
2, 417480, Note_on_c, 0, 60, 0
2, 417480, Note_on_c, 0, 56, 0
2, 417480, Note_on_c, 0, 48, 83
2, 417480, Note_on_c, 0, 51, 83
2, 417480, Note_on_c, 0, 55, 83
2, 417600, Note_on_c, 0, 55, 0
2, 417600, Note_on_c, 0, 51, 0
2, 417600, Note_on_c, 0, 48, 0
2, 417600, Note_on_c, 0, 60, 83
2, 417600, Note_on_c, 0, 63, 83
2, 417600, Note_on_c, 0, 67, 83
2, 417720, Note_on_c, 0, 67, 0
2, 417720, Note_on_c, 0, 63, 0
2, 417720, Note_on_c, 0, 60, 0
2, 417720, Note_on_c, 0, 51, 83
2, 417720, Note_on_c, 0, 55, 83
2, 417720, Note_on_c, 0, 59, 83
2, 417840, Note_on_c, 0, 59, 0
2, 417840, Note_on_c, 0, 55, 0
2, 417840, Note_on_c, 0, 51, 0
2, 417840, Note_on_c, 0, 62, 83
2, 417840, Note_on_c, 0, 63, 83
2, 417840, Note_on_c, 0, 67, 83
2, 417960, Note_on_c, 0, 67, 0
2, 417960, Note_on_c, 0, 63, 0
2, 417960, Note_on_c, 0, 62, 0
2, 417960, Note_on_c, 0, 51, 83
2, 417960, Note_on_c, 0, 55, 83
2, 417960, Note_on_c, 0, 60, 83
2, 418080, Note_on_c, 0, 60, 0
2, 418080, Note_on_c, 0, 55, 0
2, 418080, Note_on_c, 0, 51, 0
2, 418080, Note_on_c, 0, 63, 83
2, 418080, Note_on_c, 0, 67, 83
2, 418080, Note_on_c, 0, 72, 83
2, 418200, Note_on_c, 0, 72, 0
2, 418200, Note_on_c, 0, 67, 0
2, 418200, Note_on_c, 0, 63, 0
2, 418200, Note_on_c, 0, 55, 83
2, 418200, Note_on_c, 0, 60, 83
2, 418200, Note_on_c, 0, 62, 83
2, 418320, Note_on_c, 0, 62, 0
2, 418320, Note_on_c, 0, 60, 0
2, 418320, Note_on_c, 0, 55, 0
2, 418320, Note_on_c, 0, 65, 83
2, 418320, Note_on_c, 0, 67, 83
2, 418320, Note_on_c, 0, 72, 83
2, 418440, Note_on_c, 0, 72, 0
2, 418440, Note_on_c, 0, 67, 0
2, 418440, Note_on_c, 0, 65, 0
2, 418440, Note_on_c, 0, 55, 83
2, 418440, Note_on_c, 0, 60, 83
2, 418440, Note_on_c, 0, 63, 83
2, 418560, Note_on_c, 0, 63, 0
2, 418560, Note_on_c, 0, 60, 0
2, 418560, Note_on_c, 0, 55, 0
2, 418560, Note_on_c, 0, 67, 83
2, 418560, Note_on_c, 0, 72, 83
2, 418560, Note_on_c, 0, 75, 83
2, 418680, Note_on_c, 0, 75, 0
2, 418680, Note_on_c, 0, 72, 0
2, 418680, Note_on_c, 0, 67, 0
2, 418680, Note_on_c, 0, 60, 83
2, 418680, Note_on_c, 0, 63, 83
2, 418680, Note_on_c, 0, 66, 83
2, 418800, Note_on_c, 0, 66, 0
2, 418800, Note_on_c, 0, 63, 0
2, 418800, Note_on_c, 0, 60, 0
2, 418800, Note_on_c, 0, 68, 83
2, 418800, Note_on_c, 0, 72, 83
2, 418800, Note_on_c, 0, 75, 83
2, 418920, Note_on_c, 0, 75, 0
2, 418920, Note_on_c, 0, 72, 0
2, 418920, Note_on_c, 0, 68, 0
2, 418920, Note_on_c, 0, 60, 83
2, 418920, Note_on_c, 0, 63, 83
2, 418920, Note_on_c, 0, 67, 83
2, 419040, Note_on_c, 0, 67, 0
2, 419040, Note_on_c, 0, 63, 0
2, 419040, Note_on_c, 0, 60, 0
2, 419040, Note_on_c, 0, 63, 83
2, 419040, Note_on_c, 0, 67, 83
2, 419040, Note_on_c, 0, 72, 83
2, 419160, Note_on_c, 0, 72, 0
2, 419160, Note_on_c, 0, 67, 0
2, 419160, Note_on_c, 0, 63, 0
2, 419160, Note_on_c, 0, 55, 83
2, 419160, Note_on_c, 0, 60, 83
2, 419160, Note_on_c, 0, 62, 83
2, 419280, Note_on_c, 0, 62, 0
2, 419280, Note_on_c, 0, 60, 0
2, 419280, Note_on_c, 0, 55, 0
2, 419280, Note_on_c, 0, 65, 83
2, 419280, Note_on_c, 0, 67, 83
2, 419280, Note_on_c, 0, 72, 83
2, 419400, Note_on_c, 0, 72, 0
2, 419400, Note_on_c, 0, 67, 0
2, 419400, Note_on_c, 0, 65, 0
2, 419400, Note_on_c, 0, 55, 83
2, 419400, Note_on_c, 0, 60, 83
2, 419400, Note_on_c, 0, 63, 83
2, 419520, Note_on_c, 0, 63, 0
2, 419520, Note_on_c, 0, 60, 0
2, 419520, Note_on_c, 0, 55, 0
2, 419520, Note_on_c, 0, 67, 83
2, 419520, Note_on_c, 0, 72, 83
2, 419520, Note_on_c, 0, 75, 83
2, 419640, Note_on_c, 0, 75, 0
2, 419640, Note_on_c, 0, 72, 0
2, 419640, Note_on_c, 0, 67, 0
2, 419640, Note_on_c, 0, 60, 83
2, 419640, Note_on_c, 0, 63, 83
2, 419640, Note_on_c, 0, 66, 83
2, 419760, Note_on_c, 0, 66, 0
2, 419760, Note_on_c, 0, 63, 0
2, 419760, Note_on_c, 0, 60, 0
2, 419760, Note_on_c, 0, 68, 83
2, 419760, Note_on_c, 0, 72, 83
2, 419760, Note_on_c, 0, 75, 83
2, 419880, Note_on_c, 0, 75, 0
2, 419880, Note_on_c, 0, 72, 0
2, 419880, Note_on_c, 0, 68, 0
2, 419880, Note_on_c, 0, 60, 83
2, 419880, Note_on_c, 0, 63, 83
2, 419880, Note_on_c, 0, 67, 83
2, 420000, Note_on_c, 0, 67, 0
2, 420000, Note_on_c, 0, 63, 0
2, 420000, Note_on_c, 0, 60, 0
2, 420000, Note_on_c, 0, 72, 83
2, 420000, Note_on_c, 0, 75, 83
2, 420000, Note_on_c, 0, 79, 83
2, 420120, Note_on_c, 0, 79, 0
2, 420120, Note_on_c, 0, 75, 0
2, 420120, Note_on_c, 0, 72, 0
2, 420120, Note_on_c, 0, 63, 83
2, 420120, Note_on_c, 0, 67, 83
2, 420120, Note_on_c, 0, 71, 83
2, 420240, Note_on_c, 0, 71, 0
2, 420240, Note_on_c, 0, 67, 0
2, 420240, Note_on_c, 0, 63, 0
2, 420240, Note_on_c, 0, 74, 83
2, 420240, Note_on_c, 0, 75, 83
2, 420240, Note_on_c, 0, 79, 83
2, 420360, Note_on_c, 0, 79, 0
2, 420360, Note_on_c, 0, 75, 0
2, 420360, Note_on_c, 0, 74, 0
2, 420360, Note_on_c, 0, 63, 83
2, 420360, Note_on_c, 0, 67, 83
2, 420360, Note_on_c, 0, 72, 83
2, 420480, Note_on_c, 0, 72, 0
2, 420480, Note_on_c, 0, 67, 0
2, 420480, Note_on_c, 0, 63, 0
2, 420480, Note_on_c, 0, 75, 83
2, 420480, Note_on_c, 0, 79, 83
2, 420480, Note_on_c, 0, 84, 83
2, 420600, Note_on_c, 0, 84, 0
2, 420600, Note_on_c, 0, 79, 0
2, 420600, Note_on_c, 0, 75, 0
2, 420600, Note_on_c, 0, 67, 83
2, 420600, Note_on_c, 0, 72, 83
2, 420600, Note_on_c, 0, 74, 83
2, 420720, Note_on_c, 0, 74, 0
2, 420720, Note_on_c, 0, 72, 0
2, 420720, Note_on_c, 0, 67, 0
2, 420720, Note_on_c, 0, 77, 83
2, 420720, Note_on_c, 0, 79, 83
2, 420720, Note_on_c, 0, 84, 83
2, 420840, Note_on_c, 0, 84, 0
2, 420840, Note_on_c, 0, 79, 0
2, 420840, Note_on_c, 0, 77, 0
2, 420840, Note_on_c, 0, 67, 83
2, 420840, Note_on_c, 0, 72, 83
2, 420840, Note_on_c, 0, 75, 83
2, 420960, Note_on_c, 0, 75, 0
2, 420960, Note_on_c, 0, 72, 0
2, 420960, Note_on_c, 0, 67, 0
2, 420960, Note_on_c, 0, 72, 83
2, 420960, Note_on_c, 0, 75, 83
2, 420960, Note_on_c, 0, 79, 83
2, 421080, Note_on_c, 0, 79, 0
2, 421080, Note_on_c, 0, 75, 0
2, 421080, Note_on_c, 0, 72, 0
2, 421080, Note_on_c, 0, 63, 83
2, 421080, Note_on_c, 0, 67, 83
2, 421080, Note_on_c, 0, 71, 83
2, 421200, Note_on_c, 0, 71, 0
2, 421200, Note_on_c, 0, 67, 0
2, 421200, Note_on_c, 0, 63, 0
2, 421200, Note_on_c, 0, 74, 83
2, 421200, Note_on_c, 0, 75, 83
2, 421200, Note_on_c, 0, 79, 83
2, 421320, Note_on_c, 0, 79, 0
2, 421320, Note_on_c, 0, 75, 0
2, 421320, Note_on_c, 0, 74, 0
2, 421320, Note_on_c, 0, 63, 83
2, 421320, Note_on_c, 0, 67, 83
2, 421320, Note_on_c, 0, 72, 83
2, 421440, Note_on_c, 0, 72, 0
2, 421440, Note_on_c, 0, 67, 0
2, 421440, Note_on_c, 0, 63, 0
2, 421440, Note_on_c, 0, 75, 83
2, 421440, Note_on_c, 0, 79, 83
2, 421440, Note_on_c, 0, 84, 83
2, 421560, Note_on_c, 0, 84, 0
2, 421560, Note_on_c, 0, 79, 0
2, 421560, Note_on_c, 0, 75, 0
2, 421560, Note_on_c, 0, 67, 83
2, 421560, Note_on_c, 0, 72, 83
2, 421560, Note_on_c, 0, 74, 83
2, 421680, Note_on_c, 0, 74, 0
2, 421680, Note_on_c, 0, 72, 0
2, 421680, Note_on_c, 0, 67, 0
2, 421680, Note_on_c, 0, 77, 83
2, 421680, Note_on_c, 0, 79, 83
2, 421680, Note_on_c, 0, 84, 83
2, 421800, Note_on_c, 0, 84, 0
2, 421800, Note_on_c, 0, 79, 0
2, 421800, Note_on_c, 0, 77, 0
2, 421800, Note_on_c, 0, 67, 83
2, 421800, Note_on_c, 0, 72, 83
2, 421800, Note_on_c, 0, 75, 83
2, 421920, Note_on_c, 0, 75, 0
2, 421920, Note_on_c, 0, 72, 0
2, 421920, Note_on_c, 0, 67, 0
2, 421920, Note_on_c, 0, 79, 83
2, 421920, Note_on_c, 0, 84, 83
2, 421920, Note_on_c, 0, 87, 83
2, 422040, Note_on_c, 0, 87, 0
2, 422040, Note_on_c, 0, 84, 0
2, 422040, Note_on_c, 0, 79, 0
2, 422040, Note_on_c, 0, 72, 83
2, 422040, Note_on_c, 0, 75, 83
2, 422040, Note_on_c, 0, 78, 83
2, 422160, Note_on_c, 0, 78, 0
2, 422160, Note_on_c, 0, 75, 0
2, 422160, Note_on_c, 0, 72, 0
2, 422160, Note_on_c, 0, 80, 83
2, 422160, Note_on_c, 0, 84, 83
2, 422160, Note_on_c, 0, 87, 83
2, 422280, Note_on_c, 0, 87, 0
2, 422280, Note_on_c, 0, 84, 0
2, 422280, Note_on_c, 0, 80, 0
2, 422280, Note_on_c, 0, 72, 83
2, 422280, Note_on_c, 0, 75, 83
2, 422280, Note_on_c, 0, 79, 83
2, 422400, Note_on_c, 0, 79, 0
2, 422400, Note_on_c, 0, 75, 0
2, 422400, Note_on_c, 0, 72, 0
2, 422400, Control_c, 0, 64, 127
2, 422400, Note_on_c, 0, 84, 83
2, 422400, Note_on_c, 0, 87, 83
2, 422400, Note_on_c, 0, 91, 83
2, 422559, Note_on_c, 0, 91, 0
2, 422559, Note_on_c, 0, 87, 0
2, 422559, Note_on_c, 0, 84, 0
2, 422559, Note_on_c, 0, 79, 83
2, 422720, Note_on_c, 0, 79, 0
2, 422720, Note_on_c, 0, 72, 83
2, 422720, Note_on_c, 0, 75, 83
2, 422720, Note_on_c, 0, 79, 83
2, 422880, Note_on_c, 0, 79, 0
2, 422880, Note_on_c, 0, 75, 0
2, 422880, Note_on_c, 0, 72, 0
2, 422880, Note_on_c, 0, 67, 83
2, 423039, Note_on_c, 0, 67, 0
2, 423039, Note_on_c, 0, 60, 83
2, 423039, Note_on_c, 0, 63, 83
2, 423200, Note_on_c, 0, 63, 0
2, 423200, Note_on_c, 0, 60, 0
2, 423200, Note_on_c, 0, 55, 83
2, 423360, Note_on_c, 0, 55, 0
2, 423840, Control_c, 0, 64, 0
2, 424320, Control_c, 0, 64, 127
2, 424320, Note_on_c, 0, 84, 83
2, 424320, Note_on_c, 0, 87, 83
2, 424320, Note_on_c, 0, 92, 83
2, 424479, Note_on_c, 0, 92, 0
2, 424479, Note_on_c, 0, 87, 0
2, 424479, Note_on_c, 0, 84, 0
2, 424479, Note_on_c, 0, 80, 83
2, 424640, Note_on_c, 0, 80, 0
2, 424640, Note_on_c, 0, 72, 83
2, 424640, Note_on_c, 0, 75, 83
2, 424640, Note_on_c, 0, 80, 83
2, 424800, Note_on_c, 0, 80, 0
2, 424800, Note_on_c, 0, 75, 0
2, 424800, Note_on_c, 0, 72, 0
2, 424800, Note_on_c, 0, 68, 83
2, 424959, Note_on_c, 0, 68, 0
2, 424959, Note_on_c, 0, 60, 83
2, 424959, Note_on_c, 0, 63, 83
2, 425120, Note_on_c, 0, 63, 0
2, 425120, Note_on_c, 0, 60, 0
2, 425120, Note_on_c, 0, 55, 83
2, 425280, Note_on_c, 0, 55, 0
2, 425760, Control_c, 0, 64, 0
2, 426240, Control_c, 0, 64, 127
2, 426240, Note_on_c, 0, 85, 83
2, 426240, Note_on_c, 0, 88, 83
2, 426240, Note_on_c, 0, 93, 83
2, 426399, Note_on_c, 0, 93, 0
2, 426399, Note_on_c, 0, 88, 0
2, 426399, Note_on_c, 0, 85, 0
2, 426399, Note_on_c, 0, 81, 83
2, 426560, Note_on_c, 0, 81, 0
2, 426560, Note_on_c, 0, 73, 83
2, 426560, Note_on_c, 0, 76, 83
2, 426560, Note_on_c, 0, 81, 83
2, 426720, Note_on_c, 0, 81, 0
2, 426720, Note_on_c, 0, 76, 0
2, 426720, Note_on_c, 0, 73, 0
2, 426720, Note_on_c, 0, 69, 83
2, 426879, Note_on_c, 0, 69, 0
2, 426879, Note_on_c, 0, 61, 83
2, 426879, Note_on_c, 0, 64, 83
2, 427040, Note_on_c, 0, 64, 0
2, 427040, Note_on_c, 0, 61, 0
2, 427040, Note_on_c, 0, 55, 83
2, 427200, Note_on_c, 0, 55, 0
2, 427680, Control_c, 0, 64, 0
2, 428160, Control_c, 0, 64, 127
2, 428160, Note_on_c, 0, 86, 83
2, 428160, Note_on_c, 0, 89, 83
2, 428160, Note_on_c, 0, 94, 83
2, 428319, Note_on_c, 0, 94, 0
2, 428319, Note_on_c, 0, 89, 0
2, 428319, Note_on_c, 0, 86, 0
2, 428319, Note_on_c, 0, 82, 83
2, 428480, Note_on_c, 0, 82, 0
2, 428480, Note_on_c, 0, 74, 83
2, 428480, Note_on_c, 0, 77, 83
2, 428640, Note_on_c, 0, 77, 0
2, 428640, Note_on_c, 0, 74, 0
2, 428640, Note_on_c, 0, 74, 83
2, 428640, Note_on_c, 0, 77, 83
2, 428640, Note_on_c, 0, 82, 83
2, 428799, Note_on_c, 0, 82, 0
2, 428799, Note_on_c, 0, 77, 0
2, 428799, Note_on_c, 0, 74, 0
2, 428799, Note_on_c, 0, 70, 83
2, 428960, Note_on_c, 0, 70, 0
2, 428960, Control_c, 0, 64, 0
2, 428960, Note_on_c, 0, 62, 83
2, 428960, Note_on_c, 0, 65, 83
2, 429120, Note_on_c, 0, 65, 0
2, 429120, Note_on_c, 0, 62, 0
2, 429120, Control_c, 0, 64, 127
2, 429120, Note_on_c, 0, 86, 83
2, 429120, Note_on_c, 0, 89, 83
2, 429120, Note_on_c, 0, 95, 83
2, 429279, Note_on_c, 0, 95, 0
2, 429279, Note_on_c, 0, 89, 0
2, 429279, Note_on_c, 0, 86, 0
2, 429279, Note_on_c, 0, 83, 83
2, 429440, Note_on_c, 0, 83, 0
2, 429440, Note_on_c, 0, 74, 83
2, 429440, Note_on_c, 0, 77, 83
2, 429600, Note_on_c, 0, 77, 0
2, 429600, Note_on_c, 0, 74, 0
2, 429600, Note_on_c, 0, 74, 83
2, 429600, Note_on_c, 0, 77, 83
2, 429600, Note_on_c, 0, 83, 83
2, 429759, Note_on_c, 0, 83, 0
2, 429759, Note_on_c, 0, 77, 0
2, 429759, Note_on_c, 0, 74, 0
2, 429759, Note_on_c, 0, 71, 83
2, 429920, Note_on_c, 0, 71, 0
2, 429920, Control_c, 0, 64, 0
2, 429920, Note_on_c, 0, 62, 83
2, 429920, Note_on_c, 0, 65, 83
2, 430080, Note_on_c, 0, 65, 0
2, 430080, Note_on_c, 0, 62, 0
2, 430080, Control_c, 0, 64, 127
2, 430080, Note_on_c, 0, 87, 83
2, 430080, Note_on_c, 0, 90, 83
2, 430080, Note_on_c, 0, 96, 83
2, 430239, Note_on_c, 0, 96, 0
2, 430239, Note_on_c, 0, 90, 0
2, 430239, Note_on_c, 0, 87, 0
2, 430239, Note_on_c, 0, 84, 83
2, 430400, Note_on_c, 0, 84, 0
2, 430400, Note_on_c, 0, 75, 83
2, 430400, Note_on_c, 0, 78, 83
2, 430560, Note_on_c, 0, 78, 0
2, 430560, Note_on_c, 0, 75, 0
2, 430560, Note_on_c, 0, 75, 83
2, 430560, Note_on_c, 0, 78, 83
2, 430560, Note_on_c, 0, 84, 83
2, 430719, Note_on_c, 0, 84, 0
2, 430719, Note_on_c, 0, 78, 0
2, 430719, Note_on_c, 0, 75, 0
2, 430719, Note_on_c, 0, 72, 83
2, 430880, Note_on_c, 0, 72, 0
2, 430880, Control_c, 0, 64, 0
2, 430880, Note_on_c, 0, 63, 83
2, 430880, Note_on_c, 0, 66, 83
2, 431040, Note_on_c, 0, 66, 0
2, 431040, Note_on_c, 0, 63, 0
2, 431040, Control_c, 0, 64, 127
2, 431040, Note_on_c, 0, 88, 83
2, 431040, Note_on_c, 0, 91, 83
2, 431040, Note_on_c, 0, 97, 83
2, 431199, Note_on_c, 0, 97, 0
2, 431199, Note_on_c, 0, 91, 0
2, 431199, Note_on_c, 0, 88, 0
2, 431199, Note_on_c, 0, 85, 83
2, 431360, Note_on_c, 0, 85, 0
2, 431360, Note_on_c, 0, 76, 83
2, 431360, Note_on_c, 0, 79, 83
2, 431520, Note_on_c, 0, 79, 0
2, 431520, Note_on_c, 0, 76, 0
2, 431520, Note_on_c, 0, 76, 83
2, 431520, Note_on_c, 0, 79, 83
2, 431520, Note_on_c, 0, 85, 83
2, 431679, Note_on_c, 0, 85, 0
2, 431679, Note_on_c, 0, 79, 0
2, 431679, Note_on_c, 0, 76, 0
2, 431679, Note_on_c, 0, 73, 83
2, 431840, Note_on_c, 0, 73, 0
2, 431840, Control_c, 0, 64, 0
2, 431840, Note_on_c, 0, 64, 83
2, 431840, Note_on_c, 0, 67, 83
2, 432000, Note_on_c, 0, 67, 0
2, 432000, Note_on_c, 0, 64, 0
2, 432000, Control_c, 0, 64, 127
2, 432000, Note_on_c, 0, 89, 83
2, 432000, Note_on_c, 0, 92, 83
2, 432000, Note_on_c, 0, 98, 83
2, 432159, Note_on_c, 0, 98, 0
2, 432159, Note_on_c, 0, 92, 0
2, 432159, Note_on_c, 0, 89, 0
2, 432159, Note_on_c, 0, 86, 83
2, 432320, Note_on_c, 0, 86, 0
2, 432320, Note_on_c, 0, 77, 83
2, 432320, Note_on_c, 0, 80, 83
2, 432480, Note_on_c, 0, 80, 0
2, 432480, Note_on_c, 0, 77, 0
2, 432480, Note_on_c, 0, 77, 83
2, 432480, Note_on_c, 0, 80, 83
2, 432480, Note_on_c, 0, 86, 83
2, 432639, Note_on_c, 0, 86, 0
2, 432639, Note_on_c, 0, 80, 0
2, 432639, Note_on_c, 0, 77, 0
2, 432639, Note_on_c, 0, 74, 83
2, 432800, Note_on_c, 0, 74, 0
2, 432800, Control_c, 0, 64, 0
2, 432800, Note_on_c, 0, 65, 83
2, 432800, Note_on_c, 0, 68, 83
2, 432960, Note_on_c, 0, 68, 0
2, 432960, Note_on_c, 0, 65, 0
2, 432960, Control_c, 0, 64, 127
2, 432960, Note_on_c, 0, 90, 83
2, 432960, Note_on_c, 0, 93, 83
2, 432960, Note_on_c, 0, 99, 83
2, 433119, Note_on_c, 0, 99, 0
2, 433119, Note_on_c, 0, 93, 0
2, 433119, Note_on_c, 0, 90, 0
2, 433119, Note_on_c, 0, 87, 83
2, 433280, Note_on_c, 0, 87, 0
2, 433280, Note_on_c, 0, 78, 83
2, 433280, Note_on_c, 0, 81, 83
2, 433440, Note_on_c, 0, 81, 0
2, 433440, Note_on_c, 0, 78, 0
2, 433440, Note_on_c, 0, 78, 83
2, 433440, Note_on_c, 0, 81, 83
2, 433440, Note_on_c, 0, 87, 83
2, 433599, Note_on_c, 0, 87, 0
2, 433599, Note_on_c, 0, 81, 0
2, 433599, Note_on_c, 0, 78, 0
2, 433599, Note_on_c, 0, 75, 83
2, 433760, Note_on_c, 0, 75, 0
2, 433760, Control_c, 0, 64, 0
2, 433760, Note_on_c, 0, 66, 83
2, 433760, Note_on_c, 0, 69, 83
2, 433920, Note_on_c, 0, 69, 0
2, 433920, Note_on_c, 0, 66, 0
2, 433920, Control_c, 0, 64, 127
2, 433920, Note_on_c, 0, 91, 83
2, 433920, Note_on_c, 0, 94, 83
2, 433920, Note_on_c, 0, 100, 83
2, 434079, Note_on_c, 0, 100, 0
2, 434079, Note_on_c, 0, 94, 0
2, 434079, Note_on_c, 0, 91, 0
2, 434079, Note_on_c, 0, 88, 83
2, 434240, Note_on_c, 0, 88, 0
2, 434240, Note_on_c, 0, 79, 83
2, 434240, Note_on_c, 0, 82, 83
2, 434400, Note_on_c, 0, 82, 0
2, 434400, Note_on_c, 0, 79, 0
2, 434400, Note_on_c, 0, 92, 83
2, 434400, Note_on_c, 0, 95, 83
2, 434400, Note_on_c, 0, 101, 83
2, 434559, Note_on_c, 0, 101, 0
2, 434559, Note_on_c, 0, 95, 0
2, 434559, Note_on_c, 0, 92, 0
2, 434559, Note_on_c, 0, 89, 83
2, 434720, Note_on_c, 0, 89, 0
2, 434720, Note_on_c, 0, 80, 83
2, 434720, Note_on_c, 0, 83, 83
2, 434880, Note_on_c, 0, 83, 0
2, 434880, Note_on_c, 0, 80, 0
2, 434880, Note_on_c, 0, 93, 83
2, 434880, Note_on_c, 0, 96, 83
2, 434880, Note_on_c, 0, 102, 83
2, 435039, Note_on_c, 0, 102, 0
2, 435039, Note_on_c, 0, 96, 0
2, 435039, Note_on_c, 0, 93, 0
2, 435039, Note_on_c, 0, 90, 83
2, 435200, Note_on_c, 0, 90, 0
2, 435200, Note_on_c, 0, 81, 83
2, 435200, Note_on_c, 0, 84, 83
2, 435360, Note_on_c, 0, 84, 0
2, 435360, Note_on_c, 0, 81, 0
2, 435360, Control_c, 0, 64, 0
2, 435360, Note_on_c, 0, 95, 83
2, 435360, Note_on_c, 0, 98, 83
2, 435360, Note_on_c, 0, 103, 83
2, 435519, Note_on_c, 0, 103, 0
2, 435519, Note_on_c, 0, 98, 0
2, 435519, Note_on_c, 0, 95, 0
2, 435519, Note_on_c, 0, 91, 83
2, 435680, Note_on_c, 0, 91, 0
2, 435680, Note_on_c, 0, 83, 83
2, 435680, Note_on_c, 0, 86, 83
2, 435840, Note_on_c, 0, 86, 0
2, 435840, Note_on_c, 0, 83, 0
2, 435999, Note_on_c, 0, 77, 96
2, 435999, Note_on_c, 0, 89, 96
2, 436031, Note_on_c, 0, 89, 0
2, 436031, Note_on_c, 0, 77, 0
2, 436160, Note_on_c, 0, 79, 96
2, 436160, Note_on_c, 0, 91, 96
2, 436192, Note_on_c, 0, 91, 0
2, 436192, Note_on_c, 0, 79, 0
2, 436320, Note_on_c, 0, 80, 122
2, 436320, Note_on_c, 0, 92, 122
2, 436959, Note_on_c, 0, 92, 0
2, 436959, Note_on_c, 0, 80, 0
2, 436959, Note_on_c, 0, 74, 96
2, 436959, Note_on_c, 0, 86, 96
2, 436991, Note_on_c, 0, 86, 0
2, 436991, Note_on_c, 0, 74, 0
2, 437120, Note_on_c, 0, 75, 96
2, 437120, Note_on_c, 0, 87, 96
2, 437152, Note_on_c, 0, 87, 0
2, 437152, Note_on_c, 0, 75, 0
2, 437280, Note_on_c, 0, 77, 96
2, 437280, Note_on_c, 0, 89, 96
2, 437311, Note_on_c, 0, 89, 0
2, 437311, Note_on_c, 0, 77, 0
2, 437439, Note_on_c, 0, 71, 96
2, 437439, Note_on_c, 0, 83, 96
2, 437471, Note_on_c, 0, 83, 0
2, 437471, Note_on_c, 0, 71, 0
2, 437600, Note_on_c, 0, 72, 96
2, 437600, Note_on_c, 0, 84, 96
2, 437632, Note_on_c, 0, 84, 0
2, 437632, Note_on_c, 0, 72, 0
2, 437760, Note_on_c, 0, 74, 96
2, 437760, Note_on_c, 0, 86, 96
2, 437791, Note_on_c, 0, 86, 0
2, 437791, Note_on_c, 0, 74, 0
2, 437919, Note_on_c, 0, 65, 96
2, 437919, Note_on_c, 0, 77, 96
2, 437951, Note_on_c, 0, 77, 0
2, 437951, Note_on_c, 0, 65, 0
2, 438080, Note_on_c, 0, 67, 96
2, 438080, Note_on_c, 0, 79, 96
2, 438112, Note_on_c, 0, 79, 0
2, 438112, Note_on_c, 0, 67, 0
2, 438240, Note_on_c, 0, 68, 96
2, 438240, Note_on_c, 0, 80, 96
2, 438271, Note_on_c, 0, 80, 0
2, 438271, Note_on_c, 0, 68, 0
2, 438399, Note_on_c, 0, 62, 96
2, 438399, Note_on_c, 0, 74, 96
2, 438431, Note_on_c, 0, 74, 0
2, 438431, Note_on_c, 0, 62, 0
2, 438560, Note_on_c, 0, 63, 96
2, 438560, Note_on_c, 0, 75, 96
2, 438592, Note_on_c, 0, 75, 0
2, 438592, Note_on_c, 0, 63, 0
2, 438720, Note_on_c, 0, 65, 96
2, 438720, Note_on_c, 0, 77, 96
2, 438751, Note_on_c, 0, 77, 0
2, 438751, Note_on_c, 0, 65, 0
2, 438879, Note_on_c, 0, 53, 96
2, 438879, Note_on_c, 0, 65, 96
2, 438911, Note_on_c, 0, 65, 0
2, 438911, Note_on_c, 0, 53, 0
2, 439040, Note_on_c, 0, 56, 96
2, 439040, Note_on_c, 0, 68, 96
2, 439072, Note_on_c, 0, 68, 0
2, 439072, Note_on_c, 0, 56, 0
2, 439200, Note_on_c, 0, 59, 96
2, 439200, Note_on_c, 0, 71, 96
2, 439231, Note_on_c, 0, 71, 0
2, 439231, Note_on_c, 0, 59, 0
2, 439359, Note_on_c, 0, 62, 96
2, 439359, Note_on_c, 0, 74, 96
2, 439391, Note_on_c, 0, 74, 0
2, 439391, Note_on_c, 0, 62, 0
2, 439520, Note_on_c, 0, 65, 96
2, 439520, Note_on_c, 0, 77, 96
2, 439552, Note_on_c, 0, 77, 0
2, 439552, Note_on_c, 0, 65, 0
2, 439839, Note_on_c, 0, 78, 96
2, 439839, Note_on_c, 0, 90, 96
2, 439871, Note_on_c, 0, 90, 0
2, 439871, Note_on_c, 0, 78, 0
2, 440000, Note_on_c, 0, 80, 96
2, 440000, Note_on_c, 0, 92, 96
2, 440032, Note_on_c, 0, 92, 0
2, 440032, Note_on_c, 0, 80, 0
2, 440160, Note_on_c, 0, 81, 122
2, 440160, Note_on_c, 0, 93, 122
2, 440799, Note_on_c, 0, 93, 0
2, 440799, Note_on_c, 0, 81, 0
2, 440799, Note_on_c, 0, 75, 96
2, 440799, Note_on_c, 0, 87, 96
2, 440831, Note_on_c, 0, 87, 0
2, 440831, Note_on_c, 0, 75, 0
2, 440960, Note_on_c, 0, 77, 96
2, 440960, Note_on_c, 0, 89, 96
2, 440992, Note_on_c, 0, 89, 0
2, 440992, Note_on_c, 0, 77, 0
2, 441120, Note_on_c, 0, 78, 96
2, 441120, Note_on_c, 0, 90, 96
2, 441151, Note_on_c, 0, 90, 0
2, 441151, Note_on_c, 0, 78, 0
2, 441279, Note_on_c, 0, 72, 96
2, 441279, Note_on_c, 0, 84, 96
2, 441311, Note_on_c, 0, 84, 0
2, 441311, Note_on_c, 0, 72, 0
2, 441440, Note_on_c, 0, 74, 96
2, 441440, Note_on_c, 0, 86, 96
2, 441472, Note_on_c, 0, 86, 0
2, 441472, Note_on_c, 0, 74, 0
2, 441600, Note_on_c, 0, 75, 96
2, 441600, Note_on_c, 0, 87, 96
2, 441631, Note_on_c, 0, 87, 0
2, 441631, Note_on_c, 0, 75, 0
2, 441759, Note_on_c, 0, 66, 96
2, 441759, Note_on_c, 0, 78, 96
2, 441791, Note_on_c, 0, 78, 0
2, 441791, Note_on_c, 0, 66, 0
2, 441920, Note_on_c, 0, 68, 96
2, 441920, Note_on_c, 0, 80, 96
2, 441952, Note_on_c, 0, 80, 0
2, 441952, Note_on_c, 0, 68, 0
2, 442080, Note_on_c, 0, 69, 96
2, 442080, Note_on_c, 0, 81, 96
2, 442111, Note_on_c, 0, 81, 0
2, 442111, Note_on_c, 0, 69, 0
2, 442239, Note_on_c, 0, 63, 96
2, 442239, Note_on_c, 0, 75, 96
2, 442271, Note_on_c, 0, 75, 0
2, 442271, Note_on_c, 0, 63, 0
2, 442400, Note_on_c, 0, 65, 96
2, 442400, Note_on_c, 0, 77, 96
2, 442432, Note_on_c, 0, 77, 0
2, 442432, Note_on_c, 0, 65, 0
2, 442560, Note_on_c, 0, 66, 96
2, 442560, Note_on_c, 0, 78, 96
2, 442591, Note_on_c, 0, 78, 0
2, 442591, Note_on_c, 0, 66, 0
2, 442719, Note_on_c, 0, 54, 96
2, 442719, Note_on_c, 0, 66, 96
2, 442751, Note_on_c, 0, 66, 0
2, 442751, Note_on_c, 0, 54, 0
2, 442880, Note_on_c, 0, 57, 96
2, 442880, Note_on_c, 0, 69, 96
2, 442912, Note_on_c, 0, 69, 0
2, 442912, Note_on_c, 0, 57, 0
2, 443040, Note_on_c, 0, 60, 96
2, 443040, Note_on_c, 0, 72, 96
2, 443071, Note_on_c, 0, 72, 0
2, 443071, Note_on_c, 0, 60, 0
2, 443199, Note_on_c, 0, 63, 96
2, 443199, Note_on_c, 0, 75, 96
2, 443231, Note_on_c, 0, 75, 0
2, 443231, Note_on_c, 0, 63, 0
2, 443360, Note_on_c, 0, 66, 96
2, 443360, Note_on_c, 0, 78, 96
2, 443392, Note_on_c, 0, 78, 0
2, 443392, Note_on_c, 0, 66, 0
2, 443679, Note_on_c, 0, 65, 96
2, 443679, Note_on_c, 0, 77, 96
2, 443711, Note_on_c, 0, 77, 0
2, 443711, Note_on_c, 0, 65, 0
2, 443840, Note_on_c, 0, 68, 96
2, 443840, Note_on_c, 0, 80, 96
2, 443872, Note_on_c, 0, 80, 0
2, 443872, Note_on_c, 0, 68, 0
2, 444000, Note_on_c, 0, 71, 96
2, 444000, Note_on_c, 0, 83, 96
2, 444031, Note_on_c, 0, 83, 0
2, 444031, Note_on_c, 0, 71, 0
2, 444159, Note_on_c, 0, 74, 96
2, 444159, Note_on_c, 0, 86, 96
2, 444191, Note_on_c, 0, 86, 0
2, 444191, Note_on_c, 0, 74, 0
2, 444320, Note_on_c, 0, 77, 96
2, 444320, Note_on_c, 0, 89, 96
2, 444352, Note_on_c, 0, 89, 0
2, 444352, Note_on_c, 0, 77, 0
2, 444639, Note_on_c, 0, 68, 96
2, 444639, Note_on_c, 0, 80, 96
2, 444671, Note_on_c, 0, 80, 0
2, 444671, Note_on_c, 0, 68, 0
2, 444800, Note_on_c, 0, 71, 96
2, 444800, Note_on_c, 0, 83, 96
2, 444832, Note_on_c, 0, 83, 0
2, 444832, Note_on_c, 0, 71, 0
2, 444960, Note_on_c, 0, 73, 96
2, 444960, Note_on_c, 0, 85, 96
2, 444991, Note_on_c, 0, 85, 0
2, 444991, Note_on_c, 0, 73, 0
2, 445119, Note_on_c, 0, 77, 96
2, 445119, Note_on_c, 0, 89, 96
2, 445151, Note_on_c, 0, 89, 0
2, 445151, Note_on_c, 0, 77, 0
2, 445280, Note_on_c, 0, 80, 96
2, 445280, Note_on_c, 0, 92, 96
2, 445312, Note_on_c, 0, 92, 0
2, 445312, Note_on_c, 0, 80, 0
2, 445599, Note_on_c, 0, 68, 96
2, 445599, Note_on_c, 0, 80, 96
2, 445631, Note_on_c, 0, 80, 0
2, 445631, Note_on_c, 0, 68, 0
2, 445760, Note_on_c, 0, 72, 96
2, 445760, Note_on_c, 0, 84, 96
2, 445792, Note_on_c, 0, 84, 0
2, 445792, Note_on_c, 0, 72, 0
2, 445920, Note_on_c, 0, 77, 96
2, 445920, Note_on_c, 0, 89, 96
2, 445951, Note_on_c, 0, 89, 0
2, 445951, Note_on_c, 0, 77, 0
2, 446079, Note_on_c, 0, 80, 96
2, 446079, Note_on_c, 0, 92, 96
2, 446111, Note_on_c, 0, 92, 0
2, 446111, Note_on_c, 0, 80, 0
2, 446240, Note_on_c, 0, 84, 96
2, 446240, Note_on_c, 0, 96, 96
2, 446272, Note_on_c, 0, 96, 0
2, 446272, Note_on_c, 0, 84, 0
2, 446559, Note_on_c, 0, 68, 96
2, 446559, Note_on_c, 0, 80, 96
2, 446591, Note_on_c, 0, 80, 0
2, 446591, Note_on_c, 0, 68, 0
2, 446720, Note_on_c, 0, 74, 96
2, 446720, Note_on_c, 0, 86, 96
2, 446752, Note_on_c, 0, 86, 0
2, 446752, Note_on_c, 0, 74, 0
2, 446880, Note_on_c, 0, 77, 96
2, 446880, Note_on_c, 0, 89, 96
2, 446911, Note_on_c, 0, 89, 0
2, 446911, Note_on_c, 0, 77, 0
2, 447039, Note_on_c, 0, 80, 96
2, 447039, Note_on_c, 0, 92, 96
2, 447071, Note_on_c, 0, 92, 0
2, 447071, Note_on_c, 0, 80, 0
2, 447200, Note_on_c, 0, 86, 96
2, 447200, Note_on_c, 0, 98, 96
2, 447232, Note_on_c, 0, 98, 0
2, 447232, Note_on_c, 0, 86, 0
2, 447519, Note_on_c, 0, 72, 96
2, 447519, Note_on_c, 0, 84, 96
2, 447551, Note_on_c, 0, 84, 0
2, 447551, Note_on_c, 0, 72, 0
2, 447680, Note_on_c, 0, 74, 96
2, 447680, Note_on_c, 0, 86, 96
2, 447712, Note_on_c, 0, 86, 0
2, 447712, Note_on_c, 0, 74, 0
2, 447840, Note_on_c, 0, 78, 96
2, 447840, Note_on_c, 0, 90, 96
2, 447871, Note_on_c, 0, 90, 0
2, 447871, Note_on_c, 0, 78, 0
2, 447999, Note_on_c, 0, 84, 96
2, 447999, Note_on_c, 0, 96, 96
2, 448031, Note_on_c, 0, 96, 0
2, 448031, Note_on_c, 0, 84, 0
2, 448160, Note_on_c, 0, 86, 96
2, 448160, Note_on_c, 0, 98, 96
2, 448192, Note_on_c, 0, 98, 0
2, 448192, Note_on_c, 0, 86, 0
2, 448320, Control_c, 0, 64, 127
2, 448320, Note_on_c, 0, 87, 96
2, 448320, Note_on_c, 0, 99, 96
2, 448351, Note_on_c, 0, 99, 0
2, 448351, Note_on_c, 0, 87, 0
2, 448479, Note_on_c, 0, 86, 96
2, 448479, Note_on_c, 0, 98, 96
2, 448511, Note_on_c, 0, 98, 0
2, 448511, Note_on_c, 0, 86, 0
2, 448640, Note_on_c, 0, 84, 96
2, 448640, Note_on_c, 0, 96, 96
2, 448672, Note_on_c, 0, 96, 0
2, 448672, Note_on_c, 0, 84, 0
2, 448800, Note_on_c, 0, 80, 96
2, 448800, Note_on_c, 0, 92, 96
2, 448831, Note_on_c, 0, 92, 0
2, 448831, Note_on_c, 0, 80, 0
2, 448959, Note_on_c, 0, 79, 96
2, 448959, Note_on_c, 0, 91, 96
2, 448991, Note_on_c, 0, 91, 0
2, 448991, Note_on_c, 0, 79, 0
2, 449120, Note_on_c, 0, 77, 96
2, 449120, Note_on_c, 0, 89, 96
2, 449152, Note_on_c, 0, 89, 0
2, 449152, Note_on_c, 0, 77, 0
2, 449280, Note_on_c, 0, 75, 96
2, 449280, Note_on_c, 0, 87, 96
2, 449311, Note_on_c, 0, 87, 0
2, 449311, Note_on_c, 0, 75, 0
2, 449439, Note_on_c, 0, 74, 96
2, 449439, Note_on_c, 0, 86, 96
2, 449471, Note_on_c, 0, 86, 0
2, 449471, Note_on_c, 0, 74, 0
2, 449600, Note_on_c, 0, 72, 96
2, 449600, Note_on_c, 0, 84, 96
2, 449632, Note_on_c, 0, 84, 0
2, 449632, Note_on_c, 0, 72, 0
2, 449760, Note_on_c, 0, 68, 96
2, 449760, Note_on_c, 0, 80, 96
2, 449791, Note_on_c, 0, 80, 0
2, 449791, Note_on_c, 0, 68, 0
2, 449919, Note_on_c, 0, 67, 96
2, 449919, Note_on_c, 0, 79, 96
2, 449951, Note_on_c, 0, 79, 0
2, 449951, Note_on_c, 0, 67, 0
2, 450080, Note_on_c, 0, 65, 96
2, 450080, Note_on_c, 0, 77, 96
2, 450112, Note_on_c, 0, 77, 0
2, 450112, Note_on_c, 0, 65, 0
2, 450240, Note_on_c, 0, 63, 122
2, 450240, Note_on_c, 0, 75, 122
2, 450480, Note_on_c, 0, 75, 0
2, 450480, Note_on_c, 0, 63, 0
2, 450480, Note_on_c, 0, 62, 122
2, 450480, Note_on_c, 0, 74, 122
2, 450720, Note_on_c, 0, 74, 0
2, 450720, Note_on_c, 0, 62, 0
2, 450720, Note_on_c, 0, 60, 122
2, 450720, Note_on_c, 0, 72, 122
2, 450960, Note_on_c, 0, 72, 0
2, 450960, Note_on_c, 0, 60, 0
2, 450960, Note_on_c, 0, 56, 122
2, 450960, Note_on_c, 0, 68, 122
2, 451200, Note_on_c, 0, 68, 0
2, 451200, Note_on_c, 0, 56, 0
2, 451200, Note_on_c, 0, 55, 96
2, 451200, Note_on_c, 0, 60, 96
2, 451200, Note_on_c, 0, 63, 96
2, 451200, Note_on_c, 0, 67, 96
2, 451680, Note_on_c, 0, 67, 0
2, 451680, Note_on_c, 0, 55, 0
2, 451680, Note_on_c, 0, 60, 0
2, 451680, Note_on_c, 0, 63, 0
2, 451680, Note_on_c, 0, 57, 96
2, 451680, Note_on_c, 0, 69, 96
2, 452160, Note_on_c, 0, 69, 0
2, 452160, Note_on_c, 0, 57, 0
2, 452160, Note_on_c, 0, 59, 96
2, 452160, Note_on_c, 0, 63, 96
2, 452160, Note_on_c, 0, 67, 96
2, 452160, Note_on_c, 0, 71, 96
2, 452640, Note_on_c, 0, 71, 0
2, 452640, Note_on_c, 0, 59, 0
2, 452640, Note_on_c, 0, 63, 0
2, 452640, Note_on_c, 0, 67, 0
2, 452640, Note_on_c, 0, 60, 96
2, 452640, Note_on_c, 0, 72, 96
2, 453120, Note_on_c, 0, 72, 0
2, 453120, Note_on_c, 0, 60, 0
2, 453120, Note_on_c, 0, 62, 96
2, 453120, Note_on_c, 0, 74, 96
2, 453440, Note_on_c, 0, 74, 0
2, 453440, Note_on_c, 0, 62, 0
2, 453440, Note_on_c, 0, 63, 96
2, 453440, Note_on_c, 0, 75, 96
2, 453759, Note_on_c, 0, 75, 0
2, 453759, Note_on_c, 0, 63, 0
2, 453759, Note_on_c, 0, 67, 96
2, 453759, Note_on_c, 0, 79, 96
2, 454080, Note_on_c, 0, 79, 0
2, 454080, Note_on_c, 0, 67, 0
2, 454080, Note_on_c, 0, 70, 122
2, 454080, Note_on_c, 0, 82, 122
2, 454560, Note_on_c, 0, 82, 0
2, 454560, Note_on_c, 0, 70, 0
2, 454560, Note_on_c, 0, 68, 96
2, 454560, Note_on_c, 0, 80, 96
2, 454950, Note_on_c, 0, 67, 96
2, 454980, Note_on_c, 0, 74, 96
2, 455010, Note_on_c, 0, 77, 96
2, 455040, Note_on_c, 0, 80, 0
2, 455040, Note_on_c, 0, 68, 0
2, 455040, Note_on_c, 0, 79, 96
2, 455910, Note_on_c, 0, 68, 96
2, 455940, Note_on_c, 0, 74, 96
2, 455970, Note_on_c, 0, 77, 96
2, 456000, Note_on_c, 0, 79, 0
2, 456000, Note_on_c, 0, 74, 0
2, 456000, Note_on_c, 0, 77, 0
2, 456000, Note_on_c, 0, 67, 0
2, 456000, Note_on_c, 0, 80, 96
2, 456870, Note_on_c, 0, 69, 96
2, 456900, Note_on_c, 0, 74, 96
2, 456930, Note_on_c, 0, 77, 96
2, 456960, Note_on_c, 0, 80, 0
2, 456960, Note_on_c, 0, 77, 0
2, 456960, Note_on_c, 0, 74, 0
2, 456960, Note_on_c, 0, 68, 0
2, 456960, Note_on_c, 0, 81, 96
2, 457830, Note_on_c, 0, 71, 96
2, 457860, Note_on_c, 0, 74, 96
2, 457890, Note_on_c, 0, 77, 96
2, 457920, Note_on_c, 0, 81, 0
2, 457920, Note_on_c, 0, 77, 0
2, 457920, Note_on_c, 0, 74, 0
2, 457920, Note_on_c, 0, 69, 0
2, 457920, Note_on_c, 0, 83, 96
2, 458880, Note_on_c, 0, 83, 0
2, 458880, Note_on_c, 0, 74, 0
2, 458880, Note_on_c, 0, 71, 0
2, 458880, Note_on_c, 0, 77, 0
2, 460320, Control_c, 0, 64, 127
2, 460320, Note_on_c, 0, 67, 96
2, 460479, Note_on_c, 0, 67, 0
2, 460479, Note_on_c, 0, 72, 96
2, 460640, Note_on_c, 0, 72, 0
2, 460640, Note_on_c, 0, 75, 96
2, 460800, Note_on_c, 0, 75, 0
2, 460800, Note_on_c, 0, 79, 83
2, 460920, Note_on_c, 0, 79, 0
2, 460920, Note_on_c, 0, 75, 83
2, 461040, Note_on_c, 0, 75, 0
2, 461040, Note_on_c, 0, 72, 83
2, 461160, Note_on_c, 0, 72, 0
2, 461160, Note_on_c, 0, 67, 83
2, 461280, Note_on_c, 0, 67, 0
2, 461280, Note_on_c, 0, 63, 83
2, 461400, Note_on_c, 0, 63, 0
2, 461400, Note_on_c, 0, 60, 83
2, 461520, Note_on_c, 0, 60, 0
2, 461520, Note_on_c, 0, 55, 83
2, 461640, Note_on_c, 0, 55, 0
2, 461640, Note_on_c, 0, 51, 83
2, 461760, Note_on_c, 0, 51, 0
2, 461760, Note_on_c, 0, 48, 83
2, 461880, Note_on_c, 0, 48, 0
2, 461880, Note_on_c, 0, 51, 83
2, 462000, Note_on_c, 0, 51, 0
2, 462000, Note_on_c, 0, 55, 83
2, 462120, Note_on_c, 0, 55, 0
2, 462120, Note_on_c, 0, 60, 83
2, 462240, Note_on_c, 0, 60, 0
2, 462240, Note_on_c, 0, 63, 83
2, 462336, Note_on_c, 0, 63, 0
2, 462336, Note_on_c, 0, 67, 83
2, 462432, Note_on_c, 0, 67, 0
2, 462432, Note_on_c, 0, 72, 83
2, 462527, Note_on_c, 0, 72, 0
2, 462527, Note_on_c, 0, 75, 83
2, 462623, Note_on_c, 0, 75, 0
2, 462623, Note_on_c, 0, 79, 83
2, 462720, Note_on_c, 0, 79, 0
2, 462720, Note_on_c, 0, 84, 83
2, 462800, Note_on_c, 0, 84, 0
2, 462800, Note_on_c, 0, 79, 83
2, 462879, Note_on_c, 0, 79, 0
2, 462879, Note_on_c, 0, 75, 83
2, 462960, Note_on_c, 0, 75, 0
2, 462960, Note_on_c, 0, 72, 83
2, 463040, Note_on_c, 0, 72, 0
2, 463040, Note_on_c, 0, 67, 83
2, 463119, Note_on_c, 0, 67, 0
2, 463119, Note_on_c, 0, 63, 83
2, 463200, Note_on_c, 0, 63, 0
2, 464640, Note_on_c, 0, 79, 70
2, 464720, Note_on_c, 0, 79, 0
2, 464720, Note_on_c, 0, 75, 70
2, 464799, Note_on_c, 0, 75, 0
2, 464799, Note_on_c, 0, 72, 70
2, 464880, Note_on_c, 0, 72, 0
2, 464880, Note_on_c, 0, 67, 70
2, 464960, Note_on_c, 0, 67, 0
2, 464960, Note_on_c, 0, 72, 70
2, 465039, Note_on_c, 0, 72, 0
2, 465039, Note_on_c, 0, 74, 70
2, 465120, Note_on_c, 0, 74, 0
2, 465120, Note_on_c, 0, 75, 57
2, 465200, Note_on_c, 0, 75, 0
2, 465200, Note_on_c, 0, 79, 57
2, 465279, Note_on_c, 0, 79, 0
2, 465279, Note_on_c, 0, 84, 57
2, 465360, Note_on_c, 0, 84, 0
2, 465360, Note_on_c, 0, 87, 57
2, 465440, Note_on_c, 0, 87, 0
2, 465440, Note_on_c, 0, 91, 57
2, 465519, Note_on_c, 0, 91, 0
2, 465519, Note_on_c, 0, 96, 57
2, 465600, Note_on_c, 0, 96, 0
2, 465600, Note_on_c, 0, 99, 83
2, 466080, Note_on_c, 0, 99, 0
2, 466080, Control_c, 0, 64, 0
2, 482400, Control_c, 0, 64, 127
2, 482400, Note_on_c, 0, 85, 44
2, 482400, Note_on_c, 0, 87, 44
2, 482520, Note_on_c, 0, 87, 0
2, 482520, Note_on_c, 0, 85, 0
2, 482520, Note_on_c, 0, 82, 44
2, 482640, Note_on_c, 0, 82, 0
2, 482640, Note_on_c, 0, 79, 44
2, 482760, Note_on_c, 0, 79, 0
2, 482760, Note_on_c, 0, 75, 44
2, 482880, Note_on_c, 0, 75, 0
2, 482880, Note_on_c, 0, 73, 44
2, 483000, Note_on_c, 0, 73, 0
2, 483000, Note_on_c, 0, 70, 44
2, 483120, Note_on_c, 0, 70, 0
2, 483120, Note_on_c, 0, 67, 44
2, 483240, Note_on_c, 0, 67, 0
2, 483240, Note_on_c, 0, 63, 44
2, 483360, Note_on_c, 0, 63, 0
2, 483360, Note_on_c, 0, 85, 44
2, 483360, Note_on_c, 0, 87, 44
2, 483480, Note_on_c, 0, 87, 0
2, 483480, Note_on_c, 0, 85, 0
2, 483480, Note_on_c, 0, 82, 44
2, 483600, Note_on_c, 0, 82, 0
2, 483600, Note_on_c, 0, 79, 44
2, 483720, Note_on_c, 0, 79, 0
2, 483720, Note_on_c, 0, 75, 44
2, 483840, Note_on_c, 0, 75, 0
2, 483840, Note_on_c, 0, 73, 44
2, 483960, Note_on_c, 0, 73, 0
2, 483960, Note_on_c, 0, 70, 44
2, 484080, Note_on_c, 0, 70, 0
2, 484080, Note_on_c, 0, 67, 44
2, 484200, Note_on_c, 0, 67, 0
2, 484200, Control_c, 0, 64, 0
2, 484200, Note_on_c, 0, 63, 44
2, 484320, Note_on_c, 0, 63, 0
2, 484320, Control_c, 0, 64, 127
2, 484320, Note_on_c, 0, 84, 44
2, 484320, Note_on_c, 0, 87, 44
2, 484440, Note_on_c, 0, 87, 0
2, 484440, Note_on_c, 0, 84, 0
2, 484440, Note_on_c, 0, 80, 44
2, 484560, Note_on_c, 0, 80, 0
2, 484560, Note_on_c, 0, 77, 44
2, 484680, Note_on_c, 0, 77, 0
2, 484680, Note_on_c, 0, 75, 44
2, 484800, Note_on_c, 0, 75, 0
2, 484800, Note_on_c, 0, 72, 44
2, 484920, Note_on_c, 0, 72, 0
2, 484920, Note_on_c, 0, 68, 44
2, 485040, Note_on_c, 0, 68, 0
2, 485040, Note_on_c, 0, 65, 44
2, 485160, Note_on_c, 0, 65, 0
2, 485160, Note_on_c, 0, 63, 44
2, 485280, Note_on_c, 0, 63, 0
2, 485280, Note_on_c, 0, 84, 44
2, 485280, Note_on_c, 0, 87, 44
2, 485400, Note_on_c, 0, 87, 0
2, 485400, Note_on_c, 0, 84, 0
2, 485400, Note_on_c, 0, 80, 44
2, 485520, Note_on_c, 0, 80, 0
2, 485520, Note_on_c, 0, 77, 44
2, 485640, Note_on_c, 0, 77, 0
2, 485640, Note_on_c, 0, 75, 44
2, 485760, Note_on_c, 0, 75, 0
2, 485760, Note_on_c, 0, 72, 44
2, 485880, Note_on_c, 0, 72, 0
2, 485880, Note_on_c, 0, 68, 44
2, 486000, Note_on_c, 0, 68, 0
2, 486000, Note_on_c, 0, 65, 44
2, 486120, Note_on_c, 0, 65, 0
2, 486120, Control_c, 0, 64, 0
2, 486120, Note_on_c, 0, 63, 44
2, 486240, Note_on_c, 0, 63, 0
2, 486240, Control_c, 0, 64, 127
2, 486240, Note_on_c, 0, 85, 44
2, 486240, Note_on_c, 0, 87, 44
2, 486360, Note_on_c, 0, 87, 0
2, 486360, Note_on_c, 0, 85, 0
2, 486360, Note_on_c, 0, 82, 44
2, 486480, Note_on_c, 0, 82, 0
2, 486480, Note_on_c, 0, 79, 44
2, 486600, Note_on_c, 0, 79, 0
2, 486600, Note_on_c, 0, 75, 44
2, 486720, Note_on_c, 0, 75, 0
2, 486720, Note_on_c, 0, 73, 44
2, 486840, Note_on_c, 0, 73, 0
2, 486840, Note_on_c, 0, 70, 44
2, 486960, Note_on_c, 0, 70, 0
2, 486960, Note_on_c, 0, 67, 44
2, 487080, Note_on_c, 0, 67, 0
2, 487080, Note_on_c, 0, 63, 44
2, 487200, Note_on_c, 0, 63, 0
2, 487200, Note_on_c, 0, 85, 44
2, 487200, Note_on_c, 0, 87, 44
2, 487320, Note_on_c, 0, 87, 0
2, 487320, Note_on_c, 0, 85, 0
2, 487320, Note_on_c, 0, 82, 44
2, 487440, Note_on_c, 0, 82, 0
2, 487440, Note_on_c, 0, 79, 44
2, 487560, Note_on_c, 0, 79, 0
2, 487560, Note_on_c, 0, 75, 44
2, 487680, Note_on_c, 0, 75, 0
2, 487680, Note_on_c, 0, 73, 44
2, 487800, Note_on_c, 0, 73, 0
2, 487800, Note_on_c, 0, 70, 44
2, 487920, Note_on_c, 0, 70, 0
2, 487920, Note_on_c, 0, 67, 44
2, 488040, Note_on_c, 0, 67, 0
2, 488040, Control_c, 0, 64, 0
2, 488040, Note_on_c, 0, 63, 44
2, 488160, Note_on_c, 0, 63, 0
2, 488160, Control_c, 0, 64, 127
2, 488160, Note_on_c, 0, 84, 44
2, 488160, Note_on_c, 0, 87, 44
2, 488280, Note_on_c, 0, 87, 0
2, 488280, Note_on_c, 0, 84, 0
2, 488280, Note_on_c, 0, 80, 44
2, 488400, Note_on_c, 0, 80, 0
2, 488400, Note_on_c, 0, 77, 44
2, 488520, Note_on_c, 0, 77, 0
2, 488520, Note_on_c, 0, 75, 44
2, 488640, Note_on_c, 0, 75, 0
2, 488640, Note_on_c, 0, 72, 44
2, 488760, Note_on_c, 0, 72, 0
2, 488760, Note_on_c, 0, 68, 44
2, 488880, Note_on_c, 0, 68, 0
2, 488880, Note_on_c, 0, 65, 44
2, 489000, Note_on_c, 0, 65, 0
2, 489000, Note_on_c, 0, 63, 44
2, 489120, Note_on_c, 0, 63, 0
2, 489120, Note_on_c, 0, 84, 44
2, 489120, Note_on_c, 0, 87, 44
2, 489240, Note_on_c, 0, 87, 0
2, 489240, Note_on_c, 0, 84, 0
2, 489240, Note_on_c, 0, 80, 44
2, 489360, Note_on_c, 0, 80, 0
2, 489360, Note_on_c, 0, 77, 44
2, 489480, Note_on_c, 0, 77, 0
2, 489480, Note_on_c, 0, 75, 44
2, 489600, Note_on_c, 0, 75, 0
2, 489600, Note_on_c, 0, 72, 44
2, 489720, Note_on_c, 0, 72, 0
2, 489720, Note_on_c, 0, 68, 44
2, 489840, Note_on_c, 0, 68, 0
2, 489840, Note_on_c, 0, 65, 44
2, 489960, Note_on_c, 0, 65, 0
2, 489960, Control_c, 0, 64, 0
2, 489960, Note_on_c, 0, 63, 44
2, 490080, Note_on_c, 0, 63, 0
2, 490080, Control_c, 0, 64, 127
2, 490080, Note_on_c, 0, 85, 44
2, 490080, Note_on_c, 0, 87, 44
2, 490200, Note_on_c, 0, 87, 0
2, 490200, Note_on_c, 0, 85, 0
2, 490200, Note_on_c, 0, 82, 44
2, 490320, Note_on_c, 0, 82, 0
2, 490320, Note_on_c, 0, 79, 44
2, 490440, Note_on_c, 0, 79, 0
2, 490440, Note_on_c, 0, 75, 44
2, 490560, Note_on_c, 0, 75, 0
2, 490560, Note_on_c, 0, 73, 44
2, 490680, Note_on_c, 0, 73, 0
2, 490680, Note_on_c, 0, 70, 44
2, 490800, Note_on_c, 0, 70, 0
2, 490800, Note_on_c, 0, 67, 44
2, 490920, Note_on_c, 0, 67, 0
2, 490920, Note_on_c, 0, 63, 44
2, 491040, Note_on_c, 0, 63, 0
2, 491040, Note_on_c, 0, 85, 44
2, 491040, Note_on_c, 0, 87, 44
2, 491160, Note_on_c, 0, 87, 0
2, 491160, Note_on_c, 0, 85, 0
2, 491160, Note_on_c, 0, 82, 44
2, 491280, Note_on_c, 0, 82, 0
2, 491280, Note_on_c, 0, 79, 44
2, 491400, Note_on_c, 0, 79, 0
2, 491400, Note_on_c, 0, 75, 44
2, 491520, Note_on_c, 0, 75, 0
2, 491520, Note_on_c, 0, 73, 44
2, 491640, Note_on_c, 0, 73, 0
2, 491640, Note_on_c, 0, 70, 44
2, 491760, Note_on_c, 0, 70, 0
2, 491760, Note_on_c, 0, 67, 44
2, 491880, Note_on_c, 0, 67, 0
2, 491880, Control_c, 0, 64, 0
2, 491880, Note_on_c, 0, 63, 44
2, 492000, Note_on_c, 0, 63, 0
2, 492000, Control_c, 0, 64, 127
2, 492000, Note_on_c, 0, 84, 44
2, 492000, Note_on_c, 0, 87, 44
2, 492120, Note_on_c, 0, 87, 0
2, 492120, Note_on_c, 0, 84, 0
2, 492120, Note_on_c, 0, 80, 44
2, 492240, Note_on_c, 0, 80, 0
2, 492240, Note_on_c, 0, 77, 44
2, 492360, Note_on_c, 0, 77, 0
2, 492360, Note_on_c, 0, 75, 44
2, 492480, Note_on_c, 0, 75, 0
2, 492480, Note_on_c, 0, 72, 44
2, 492600, Note_on_c, 0, 72, 0
2, 492600, Note_on_c, 0, 68, 44
2, 492720, Note_on_c, 0, 68, 0
2, 492720, Note_on_c, 0, 65, 44
2, 492840, Note_on_c, 0, 65, 0
2, 492840, Note_on_c, 0, 63, 44
2, 492960, Note_on_c, 0, 63, 0
2, 492960, Note_on_c, 0, 84, 44
2, 492960, Note_on_c, 0, 87, 44
2, 493080, Note_on_c, 0, 87, 0
2, 493080, Note_on_c, 0, 84, 0
2, 493080, Note_on_c, 0, 80, 44
2, 493200, Note_on_c, 0, 80, 0
2, 493200, Note_on_c, 0, 77, 44
2, 493320, Note_on_c, 0, 77, 0
2, 493320, Note_on_c, 0, 75, 44
2, 493440, Note_on_c, 0, 75, 0
2, 493440, Note_on_c, 0, 72, 44
2, 493560, Note_on_c, 0, 72, 0
2, 493560, Note_on_c, 0, 68, 44
2, 493680, Note_on_c, 0, 68, 0
2, 493680, Note_on_c, 0, 65, 44
2, 493800, Note_on_c, 0, 65, 0
2, 493800, Control_c, 0, 64, 0
2, 493800, Note_on_c, 0, 63, 44
2, 493920, Note_on_c, 0, 63, 0
2, 493920, Control_c, 0, 64, 127
2, 493920, Note_on_c, 0, 83, 44
2, 493920, Note_on_c, 0, 86, 44
2, 494040, Note_on_c, 0, 86, 0
2, 494040, Note_on_c, 0, 83, 0
2, 494040, Note_on_c, 0, 80, 44
2, 494160, Note_on_c, 0, 80, 0
2, 494160, Note_on_c, 0, 76, 44
2, 494280, Note_on_c, 0, 76, 0
2, 494280, Note_on_c, 0, 74, 44
2, 494400, Note_on_c, 0, 74, 0
2, 494400, Note_on_c, 0, 71, 44
2, 494520, Note_on_c, 0, 71, 0
2, 494520, Note_on_c, 0, 68, 44
2, 494640, Note_on_c, 0, 68, 0
2, 494640, Note_on_c, 0, 64, 44
2, 494760, Note_on_c, 0, 64, 0
2, 494760, Note_on_c, 0, 62, 44
2, 494880, Note_on_c, 0, 62, 0
2, 494880, Note_on_c, 0, 83, 44
2, 494880, Note_on_c, 0, 86, 44
2, 495000, Note_on_c, 0, 86, 0
2, 495000, Note_on_c, 0, 83, 0
2, 495000, Note_on_c, 0, 80, 44
2, 495120, Note_on_c, 0, 80, 0
2, 495120, Note_on_c, 0, 76, 44
2, 495240, Note_on_c, 0, 76, 0
2, 495240, Note_on_c, 0, 74, 44
2, 495360, Note_on_c, 0, 74, 0
2, 495360, Note_on_c, 0, 71, 44
2, 495480, Note_on_c, 0, 71, 0
2, 495480, Note_on_c, 0, 68, 44
2, 495600, Note_on_c, 0, 68, 0
2, 495600, Note_on_c, 0, 64, 44
2, 495720, Note_on_c, 0, 64, 0
2, 495720, Control_c, 0, 64, 0
2, 495720, Note_on_c, 0, 62, 44
2, 495840, Note_on_c, 0, 62, 0
2, 495840, Note_on_c, 0, 56, 44
2, 495960, Note_on_c, 0, 56, 0
2, 495960, Note_on_c, 0, 53, 44
2, 496080, Note_on_c, 0, 53, 0
2, 496080, Note_on_c, 0, 51, 44
2, 496200, Note_on_c, 0, 51, 0
2, 496200, Note_on_c, 0, 48, 44
2, 496320, Note_on_c, 0, 48, 0
2, 496560, Control_c, 0, 64, 127
2, 496560, Note_on_c, 0, 51, 44
2, 496680, Note_on_c, 0, 51, 0
2, 496680, Note_on_c, 0, 56, 44
2, 496800, Note_on_c, 0, 56, 0
2, 496800, Note_on_c, 0, 60, 44
2, 496920, Note_on_c, 0, 60, 0
2, 496920, Note_on_c, 0, 63, 44
2, 497040, Note_on_c, 0, 63, 0
2, 497040, Note_on_c, 0, 68, 44
2, 497160, Note_on_c, 0, 68, 0
2, 497160, Note_on_c, 0, 72, 44
2, 497280, Note_on_c, 0, 72, 0
2, 497280, Note_on_c, 0, 75, 44
2, 497400, Note_on_c, 0, 75, 0
2, 497400, Note_on_c, 0, 80, 44
2, 497520, Note_on_c, 0, 80, 0
2, 497520, Note_on_c, 0, 84, 44
2, 497640, Note_on_c, 0, 84, 0
2, 497640, Control_c, 0, 64, 0
2, 497760, Control_c, 0, 64, 127
2, 497760, Note_on_c, 0, 83, 44
2, 497760, Note_on_c, 0, 86, 44
2, 497880, Note_on_c, 0, 86, 0
2, 497880, Note_on_c, 0, 83, 0
2, 497880, Note_on_c, 0, 80, 44
2, 498000, Note_on_c, 0, 80, 0
2, 498000, Note_on_c, 0, 76, 44
2, 498120, Note_on_c, 0, 76, 0
2, 498120, Note_on_c, 0, 74, 44
2, 498240, Note_on_c, 0, 74, 0
2, 498240, Note_on_c, 0, 71, 44
2, 498360, Note_on_c, 0, 71, 0
2, 498360, Note_on_c, 0, 68, 44
2, 498480, Note_on_c, 0, 68, 0
2, 498480, Note_on_c, 0, 64, 44
2, 498600, Note_on_c, 0, 64, 0
2, 498600, Note_on_c, 0, 62, 44
2, 498720, Note_on_c, 0, 62, 0
2, 498720, Note_on_c, 0, 83, 44
2, 498720, Note_on_c, 0, 86, 44
2, 498840, Note_on_c, 0, 86, 0
2, 498840, Note_on_c, 0, 83, 0
2, 498840, Note_on_c, 0, 80, 44
2, 498960, Note_on_c, 0, 80, 0
2, 498960, Note_on_c, 0, 76, 44
2, 499080, Note_on_c, 0, 76, 0
2, 499080, Note_on_c, 0, 74, 44
2, 499200, Note_on_c, 0, 74, 0
2, 499200, Note_on_c, 0, 71, 44
2, 499320, Note_on_c, 0, 71, 0
2, 499320, Note_on_c, 0, 68, 44
2, 499440, Note_on_c, 0, 68, 0
2, 499440, Note_on_c, 0, 64, 44
2, 499560, Note_on_c, 0, 64, 0
2, 499560, Control_c, 0, 64, 0
2, 499560, Note_on_c, 0, 62, 44
2, 499680, Note_on_c, 0, 62, 0
2, 499680, Note_on_c, 0, 56, 44
2, 499800, Note_on_c, 0, 56, 0
2, 499800, Note_on_c, 0, 53, 44
2, 499920, Note_on_c, 0, 53, 0
2, 499920, Note_on_c, 0, 51, 44
2, 500040, Note_on_c, 0, 51, 0
2, 500040, Note_on_c, 0, 48, 44
2, 500160, Note_on_c, 0, 48, 0
2, 500400, Control_c, 0, 64, 127
2, 500400, Note_on_c, 0, 51, 44
2, 500520, Note_on_c, 0, 51, 0
2, 500520, Note_on_c, 0, 56, 44
2, 500640, Note_on_c, 0, 56, 0
2, 500640, Note_on_c, 0, 60, 44
2, 500760, Note_on_c, 0, 60, 0
2, 500760, Note_on_c, 0, 63, 44
2, 500880, Note_on_c, 0, 63, 0
2, 500880, Note_on_c, 0, 68, 44
2, 501000, Note_on_c, 0, 68, 0
2, 501000, Note_on_c, 0, 72, 44
2, 501120, Note_on_c, 0, 72, 0
2, 501120, Note_on_c, 0, 75, 44
2, 501240, Note_on_c, 0, 75, 0
2, 501240, Note_on_c, 0, 80, 44
2, 501360, Note_on_c, 0, 80, 0
2, 501360, Note_on_c, 0, 84, 44
2, 501480, Note_on_c, 0, 84, 0
2, 501480, Control_c, 0, 64, 0
2, 501480, Note_on_c, 0, 87, 44
2, 501600, Note_on_c, 0, 87, 0
2, 501600, Control_c, 0, 64, 127
2, 501600, Note_on_c, 0, 92, 44
2, 501720, Note_on_c, 0, 92, 0
2, 501720, Note_on_c, 0, 87, 44
2, 501840, Note_on_c, 0, 87, 0
2, 501840, Note_on_c, 0, 84, 44
2, 501960, Note_on_c, 0, 84, 0
2, 501960, Note_on_c, 0, 80, 44
2, 502080, Note_on_c, 0, 80, 0
2, 502080, Note_on_c, 0, 75, 44
2, 502200, Note_on_c, 0, 75, 0
2, 502200, Note_on_c, 0, 72, 44
2, 502320, Note_on_c, 0, 72, 0
2, 502320, Note_on_c, 0, 68, 44
2, 502440, Note_on_c, 0, 68, 0
2, 502440, Note_on_c, 0, 63, 44
2, 502560, Note_on_c, 0, 63, 0
2, 502560, Note_on_c, 0, 60, 44
2, 502680, Note_on_c, 0, 60, 0
2, 502680, Note_on_c, 0, 63, 44
2, 502800, Note_on_c, 0, 63, 0
2, 502800, Note_on_c, 0, 68, 44
2, 502920, Note_on_c, 0, 68, 0
2, 502920, Note_on_c, 0, 72, 44
2, 503040, Note_on_c, 0, 72, 0
2, 503040, Note_on_c, 0, 75, 44
2, 503136, Note_on_c, 0, 75, 0
2, 503136, Note_on_c, 0, 80, 44
2, 503232, Note_on_c, 0, 80, 0
2, 503232, Note_on_c, 0, 84, 44
2, 503327, Note_on_c, 0, 84, 0
2, 503327, Note_on_c, 0, 87, 44
2, 503423, Note_on_c, 0, 87, 0
2, 503423, Note_on_c, 0, 92, 44
2, 503520, Note_on_c, 0, 92, 0
2, 503520, Note_on_c, 0, 96, 44
2, 503640, Note_on_c, 0, 96, 0
2, 503640, Note_on_c, 0, 92, 44
2, 503760, Note_on_c, 0, 92, 0
2, 503760, Note_on_c, 0, 87, 44
2, 503880, Note_on_c, 0, 87, 0
2, 503880, Note_on_c, 0, 84, 44
2, 504000, Note_on_c, 0, 84, 0
2, 504000, Note_on_c, 0, 80, 44
2, 504120, Note_on_c, 0, 80, 0
2, 504120, Note_on_c, 0, 75, 44
2, 504240, Note_on_c, 0, 75, 0
2, 504240, Note_on_c, 0, 72, 44
2, 504360, Note_on_c, 0, 72, 0
2, 504360, Note_on_c, 0, 68, 44
2, 504480, Note_on_c, 0, 68, 0
2, 504480, Note_on_c, 0, 63, 44
2, 504600, Note_on_c, 0, 63, 0
2, 504600, Note_on_c, 0, 68, 44
2, 504720, Note_on_c, 0, 68, 0
2, 504720, Note_on_c, 0, 72, 44
2, 504840, Note_on_c, 0, 72, 0
2, 504840, Note_on_c, 0, 75, 44
2, 504960, Note_on_c, 0, 75, 0
2, 504960, Note_on_c, 0, 80, 44
2, 505056, Note_on_c, 0, 80, 0
2, 505056, Note_on_c, 0, 84, 44
2, 505152, Note_on_c, 0, 84, 0
2, 505152, Note_on_c, 0, 87, 44
2, 505247, Note_on_c, 0, 87, 0
2, 505247, Note_on_c, 0, 92, 44
2, 505343, Note_on_c, 0, 92, 0
2, 505343, Control_c, 0, 64, 0
2, 505343, Note_on_c, 0, 96, 44
2, 505440, Note_on_c, 0, 96, 0
2, 505440, Control_c, 0, 64, 127
2, 505440, Note_on_c, 0, 99, 44
2, 505560, Note_on_c, 0, 99, 0
2, 505560, Note_on_c, 0, 96, 44
2, 505680, Note_on_c, 0, 96, 0
2, 505680, Note_on_c, 0, 92, 44
2, 505800, Note_on_c, 0, 92, 0
2, 505800, Note_on_c, 0, 87, 44
2, 505920, Note_on_c, 0, 87, 0
2, 505920, Note_on_c, 0, 84, 44
2, 506040, Note_on_c, 0, 84, 0
2, 506040, Note_on_c, 0, 80, 44
2, 506160, Note_on_c, 0, 80, 0
2, 506160, Note_on_c, 0, 75, 44
2, 506280, Note_on_c, 0, 75, 0
2, 506280, Note_on_c, 0, 72, 44
2, 506400, Note_on_c, 0, 72, 0
2, 506400, Note_on_c, 0, 68, 44
2, 506520, Note_on_c, 0, 68, 0
2, 506520, Note_on_c, 0, 72, 44
2, 506640, Note_on_c, 0, 72, 0
2, 506640, Note_on_c, 0, 75, 44
2, 506760, Note_on_c, 0, 75, 0
2, 506760, Note_on_c, 0, 80, 44
2, 506880, Note_on_c, 0, 80, 0
2, 506880, Note_on_c, 0, 84, 44
2, 506976, Note_on_c, 0, 84, 0
2, 506976, Note_on_c, 0, 87, 44
2, 507072, Note_on_c, 0, 87, 0
2, 507072, Note_on_c, 0, 92, 44
2, 507167, Note_on_c, 0, 92, 0
2, 507167, Note_on_c, 0, 96, 44
2, 507263, Note_on_c, 0, 96, 0
2, 507263, Note_on_c, 0, 99, 44
2, 507360, Note_on_c, 0, 99, 0
2, 507360, Note_on_c, 0, 104, 44
2, 507480, Note_on_c, 0, 104, 0
2, 507480, Note_on_c, 0, 99, 44
2, 507600, Note_on_c, 0, 99, 0
2, 507600, Note_on_c, 0, 96, 44
2, 507720, Note_on_c, 0, 96, 0
2, 507720, Note_on_c, 0, 92, 44
2, 507840, Note_on_c, 0, 92, 0
2, 507840, Note_on_c, 0, 87, 44
2, 507960, Note_on_c, 0, 87, 0
2, 507960, Note_on_c, 0, 84, 44
2, 508080, Note_on_c, 0, 84, 0
2, 508080, Note_on_c, 0, 87, 44
2, 508200, Note_on_c, 0, 87, 0
2, 508200, Note_on_c, 0, 92, 44
2, 508320, Note_on_c, 0, 92, 0
2, 508320, Note_on_c, 0, 96, 44
2, 508440, Note_on_c, 0, 96, 0
2, 508440, Note_on_c, 0, 92, 44
2, 508560, Note_on_c, 0, 92, 0
2, 508560, Note_on_c, 0, 87, 44
2, 508680, Note_on_c, 0, 87, 0
2, 508680, Note_on_c, 0, 84, 44
2, 508800, Note_on_c, 0, 84, 0
2, 508800, Note_on_c, 0, 80, 44
2, 508920, Note_on_c, 0, 80, 0
2, 508920, Note_on_c, 0, 75, 44
2, 509040, Note_on_c, 0, 75, 0
2, 509040, Note_on_c, 0, 80, 44
2, 509160, Note_on_c, 0, 80, 0
2, 509160, Note_on_c, 0, 84, 44
2, 509280, Note_on_c, 0, 84, 0
2, 509280, Note_on_c, 0, 87, 44
2, 509400, Note_on_c, 0, 87, 0
2, 509400, Note_on_c, 0, 84, 44
2, 509520, Note_on_c, 0, 84, 0
2, 509520, Note_on_c, 0, 80, 44
2, 509640, Note_on_c, 0, 80, 0
2, 509640, Note_on_c, 0, 75, 44
2, 509760, Note_on_c, 0, 75, 0
2, 509760, Note_on_c, 0, 72, 44
2, 509880, Note_on_c, 0, 72, 0
2, 509880, Note_on_c, 0, 68, 44
2, 510000, Note_on_c, 0, 68, 0
2, 510000, Note_on_c, 0, 72, 44
2, 510120, Note_on_c, 0, 72, 0
2, 510120, Note_on_c, 0, 75, 44
2, 510240, Note_on_c, 0, 75, 0
2, 510240, Note_on_c, 0, 80, 44
2, 510360, Note_on_c, 0, 80, 0
2, 510360, Note_on_c, 0, 75, 44
2, 510480, Note_on_c, 0, 75, 0
2, 510480, Note_on_c, 0, 72, 44
2, 510600, Note_on_c, 0, 72, 0
2, 510600, Note_on_c, 0, 68, 44
2, 510720, Note_on_c, 0, 68, 0
2, 510720, Note_on_c, 0, 63, 44
2, 510840, Note_on_c, 0, 63, 0
2, 510840, Note_on_c, 0, 60, 44
2, 510960, Note_on_c, 0, 60, 0
2, 510960, Note_on_c, 0, 63, 44
2, 511080, Note_on_c, 0, 63, 0
2, 511080, Control_c, 0, 64, 0
2, 511080, Note_on_c, 0, 68, 44
2, 511200, Note_on_c, 0, 68, 0
2, 511200, Control_c, 0, 64, 127
2, 511200, Note_on_c, 0, 72, 44
2, 511320, Note_on_c, 0, 72, 0
2, 511320, Note_on_c, 0, 68, 44
2, 511440, Note_on_c, 0, 68, 0
2, 511440, Note_on_c, 0, 63, 44
2, 511560, Note_on_c, 0, 63, 0
2, 511560, Note_on_c, 0, 60, 44
2, 511680, Note_on_c, 0, 60, 0
2, 511680, Note_on_c, 0, 56, 44
2, 511800, Note_on_c, 0, 56, 0
2, 511800, Note_on_c, 0, 51, 44
2, 511920, Note_on_c, 0, 51, 0
2, 511920, Note_on_c, 0, 56, 44
2, 512040, Note_on_c, 0, 56, 0
2, 512040, Note_on_c, 0, 60, 44
2, 512160, Note_on_c, 0, 60, 0
2, 512160, Note_on_c, 0, 63, 44
2, 512280, Note_on_c, 0, 63, 0
2, 512280, Note_on_c, 0, 60, 44
2, 512400, Note_on_c, 0, 60, 0
2, 512400, Note_on_c, 0, 56, 44
2, 512520, Note_on_c, 0, 56, 0
2, 512520, Note_on_c, 0, 60, 44
2, 512640, Note_on_c, 0, 60, 0
2, 512640, Note_on_c, 0, 63, 44
2, 512760, Note_on_c, 0, 63, 0
2, 512760, Note_on_c, 0, 68, 44
2, 512880, Note_on_c, 0, 68, 0
2, 512880, Note_on_c, 0, 72, 44
2, 513000, Note_on_c, 0, 72, 0
2, 513000, Note_on_c, 0, 75, 44
2, 513120, Note_on_c, 0, 75, 0
2, 513120, Note_on_c, 0, 80, 44
2, 513240, Note_on_c, 0, 80, 0
2, 513240, Note_on_c, 0, 75, 44
2, 513360, Note_on_c, 0, 75, 0
2, 513360, Note_on_c, 0, 80, 44
2, 513480, Note_on_c, 0, 80, 0
2, 513480, Note_on_c, 0, 84, 44
2, 513600, Note_on_c, 0, 84, 0
2, 513600, Note_on_c, 0, 87, 44
2, 513720, Note_on_c, 0, 87, 0
2, 513720, Note_on_c, 0, 92, 44
2, 513840, Note_on_c, 0, 92, 0
2, 513840, Note_on_c, 0, 96, 44
2, 513960, Note_on_c, 0, 96, 0
2, 513960, Note_on_c, 0, 99, 44
2, 514080, Note_on_c, 0, 99, 0
2, 514080, Note_on_c, 0, 104, 44
2, 515040, Note_on_c, 0, 104, 0
2, 515040, Control_c, 0, 64, 0
2, 619200, Control_c, 0, 64, 127
2, 619200, Note_on_c, 0, 75, 96
2, 619200, Note_on_c, 0, 87, 96
2, 619440, Note_on_c, 0, 87, 0
2, 619440, Note_on_c, 0, 75, 0
2, 619440, Note_on_c, 0, 74, 96
2, 619440, Note_on_c, 0, 86, 96
2, 619680, Note_on_c, 0, 86, 0
2, 619680, Note_on_c, 0, 74, 0
2, 619680, Note_on_c, 0, 72, 96
2, 619680, Note_on_c, 0, 84, 96
2, 619920, Note_on_c, 0, 84, 0
2, 619920, Note_on_c, 0, 72, 0
2, 619920, Control_c, 0, 64, 0
2, 619920, Note_on_c, 0, 70, 96
2, 619920, Note_on_c, 0, 82, 96
2, 620160, Note_on_c, 0, 82, 0
2, 620160, Note_on_c, 0, 70, 0
2, 620160, Control_c, 0, 64, 127
2, 620160, Note_on_c, 0, 72, 96
2, 620160, Note_on_c, 0, 84, 96
2, 620400, Note_on_c, 0, 84, 0
2, 620400, Note_on_c, 0, 72, 0
2, 620400, Note_on_c, 0, 70, 96
2, 620400, Note_on_c, 0, 82, 96
2, 620640, Note_on_c, 0, 82, 0
2, 620640, Note_on_c, 0, 70, 0
2, 620640, Note_on_c, 0, 68, 96
2, 620640, Note_on_c, 0, 80, 96
2, 620880, Note_on_c, 0, 80, 0
2, 620880, Note_on_c, 0, 68, 0
2, 620880, Control_c, 0, 64, 0
2, 620880, Note_on_c, 0, 67, 96
2, 620880, Note_on_c, 0, 79, 96
2, 621120, Note_on_c, 0, 79, 0
2, 621120, Note_on_c, 0, 67, 0
2, 621120, Control_c, 0, 64, 127
2, 621120, Note_on_c, 0, 75, 96
2, 621120, Note_on_c, 0, 87, 96
2, 621360, Note_on_c, 0, 87, 0
2, 621360, Note_on_c, 0, 75, 0
2, 621360, Note_on_c, 0, 74, 96
2, 621360, Note_on_c, 0, 86, 96
2, 621600, Note_on_c, 0, 86, 0
2, 621600, Note_on_c, 0, 74, 0
2, 621600, Note_on_c, 0, 72, 96
2, 621600, Note_on_c, 0, 84, 96
2, 621840, Note_on_c, 0, 84, 0
2, 621840, Note_on_c, 0, 72, 0
2, 621840, Control_c, 0, 64, 0
2, 621840, Note_on_c, 0, 70, 96
2, 621840, Note_on_c, 0, 82, 96
2, 622080, Note_on_c, 0, 82, 0
2, 622080, Note_on_c, 0, 70, 0
2, 622080, Control_c, 0, 64, 127
2, 622080, Note_on_c, 0, 72, 96
2, 622080, Note_on_c, 0, 84, 96
2, 622320, Note_on_c, 0, 84, 0
2, 622320, Note_on_c, 0, 72, 0
2, 622320, Note_on_c, 0, 70, 96
2, 622320, Note_on_c, 0, 82, 96
2, 622560, Note_on_c, 0, 82, 0
2, 622560, Note_on_c, 0, 70, 0
2, 622560, Note_on_c, 0, 68, 96
2, 622560, Note_on_c, 0, 80, 96
2, 622800, Note_on_c, 0, 80, 0
2, 622800, Note_on_c, 0, 68, 0
2, 622800, Control_c, 0, 64, 0
2, 622800, Note_on_c, 0, 67, 96
2, 622800, Note_on_c, 0, 79, 96
2, 623040, Note_on_c, 0, 79, 0
2, 623040, Note_on_c, 0, 67, 0
2, 623040, Control_c, 0, 64, 127
2, 623040, Note_on_c, 0, 79, 96
2, 623040, Note_on_c, 0, 91, 96
2, 623280, Note_on_c, 0, 91, 0
2, 623280, Note_on_c, 0, 79, 0
2, 623280, Note_on_c, 0, 77, 96
2, 623280, Note_on_c, 0, 89, 96
2, 623520, Note_on_c, 0, 89, 0
2, 623520, Note_on_c, 0, 77, 0
2, 623520, Note_on_c, 0, 75, 96
2, 623520, Note_on_c, 0, 87, 96
2, 623760, Note_on_c, 0, 87, 0
2, 623760, Note_on_c, 0, 75, 0
2, 623760, Control_c, 0, 64, 0
2, 623760, Note_on_c, 0, 74, 96
2, 623760, Note_on_c, 0, 86, 96
2, 624000, Note_on_c, 0, 86, 0
2, 624000, Note_on_c, 0, 74, 0
2, 624000, Control_c, 0, 64, 127
2, 624000, Note_on_c, 0, 75, 96
2, 624000, Note_on_c, 0, 87, 96
2, 624240, Note_on_c, 0, 87, 0
2, 624240, Note_on_c, 0, 75, 0
2, 624240, Note_on_c, 0, 74, 96
2, 624240, Note_on_c, 0, 86, 96
2, 624480, Note_on_c, 0, 86, 0
2, 624480, Note_on_c, 0, 74, 0
2, 624480, Note_on_c, 0, 72, 96
2, 624480, Note_on_c, 0, 84, 96
2, 624720, Note_on_c, 0, 84, 0
2, 624720, Note_on_c, 0, 72, 0
2, 624720, Control_c, 0, 64, 0
2, 624720, Note_on_c, 0, 70, 96
2, 624720, Note_on_c, 0, 82, 96
2, 624960, Note_on_c, 0, 82, 0
2, 624960, Note_on_c, 0, 70, 0
2, 624960, Control_c, 0, 64, 127
2, 624960, Note_on_c, 0, 79, 96
2, 624960, Note_on_c, 0, 91, 96
2, 625200, Note_on_c, 0, 91, 0
2, 625200, Note_on_c, 0, 79, 0
2, 625200, Note_on_c, 0, 77, 96
2, 625200, Note_on_c, 0, 89, 96
2, 625440, Note_on_c, 0, 89, 0
2, 625440, Note_on_c, 0, 77, 0
2, 625440, Note_on_c, 0, 75, 96
2, 625440, Note_on_c, 0, 87, 96
2, 625680, Note_on_c, 0, 87, 0
2, 625680, Note_on_c, 0, 75, 0
2, 625680, Control_c, 0, 64, 0
2, 625680, Note_on_c, 0, 74, 96
2, 625680, Note_on_c, 0, 86, 96
2, 625920, Note_on_c, 0, 86, 0
2, 625920, Note_on_c, 0, 74, 0
2, 625920, Control_c, 0, 64, 127
2, 625920, Note_on_c, 0, 75, 96
2, 625920, Note_on_c, 0, 87, 96
2, 626160, Note_on_c, 0, 87, 0
2, 626160, Note_on_c, 0, 75, 0
2, 626160, Note_on_c, 0, 74, 96
2, 626160, Note_on_c, 0, 86, 96
2, 626400, Note_on_c, 0, 86, 0
2, 626400, Note_on_c, 0, 74, 0
2, 626400, Note_on_c, 0, 72, 96
2, 626400, Note_on_c, 0, 84, 96
2, 626640, Note_on_c, 0, 84, 0
2, 626640, Note_on_c, 0, 72, 0
2, 626640, Control_c, 0, 64, 0
2, 626640, Note_on_c, 0, 70, 96
2, 626640, Note_on_c, 0, 82, 96
2, 626880, Note_on_c, 0, 82, 0
2, 626880, Note_on_c, 0, 70, 0
2, 626880, Control_c, 0, 64, 127
2, 626880, Note_on_c, 0, 84, 96
2, 626880, Note_on_c, 0, 96, 96
2, 627120, Note_on_c, 0, 96, 0
2, 627120, Note_on_c, 0, 84, 0
2, 627120, Note_on_c, 0, 82, 96
2, 627120, Note_on_c, 0, 94, 96
2, 627360, Note_on_c, 0, 94, 0
2, 627360, Note_on_c, 0, 82, 0
2, 627360, Note_on_c, 0, 80, 96
2, 627360, Note_on_c, 0, 92, 96
2, 627600, Note_on_c, 0, 92, 0
2, 627600, Note_on_c, 0, 80, 0
2, 627600, Control_c, 0, 64, 0
2, 627600, Note_on_c, 0, 79, 96
2, 627600, Note_on_c, 0, 91, 96
2, 627840, Note_on_c, 0, 91, 0
2, 627840, Note_on_c, 0, 79, 0
2, 627840, Control_c, 0, 64, 127
2, 627840, Note_on_c, 0, 80, 96
2, 627840, Note_on_c, 0, 92, 96
2, 628080, Note_on_c, 0, 92, 0
2, 628080, Note_on_c, 0, 80, 0
2, 628080, Note_on_c, 0, 79, 96
2, 628080, Note_on_c, 0, 91, 96
2, 628320, Note_on_c, 0, 91, 0
2, 628320, Note_on_c, 0, 79, 0
2, 628320, Note_on_c, 0, 77, 96
2, 628320, Note_on_c, 0, 89, 96
2, 628560, Note_on_c, 0, 89, 0
2, 628560, Note_on_c, 0, 77, 0
2, 628560, Control_c, 0, 64, 0
2, 628560, Note_on_c, 0, 75, 96
2, 628560, Note_on_c, 0, 87, 96
2, 628800, Note_on_c, 0, 87, 0
2, 628800, Note_on_c, 0, 75, 0
2, 628800, Control_c, 0, 64, 127
2, 628800, Note_on_c, 0, 84, 96
2, 628800, Note_on_c, 0, 96, 96
2, 629040, Note_on_c, 0, 96, 0
2, 629040, Note_on_c, 0, 84, 0
2, 629040, Note_on_c, 0, 82, 96
2, 629040, Note_on_c, 0, 94, 96
2, 629280, Note_on_c, 0, 94, 0
2, 629280, Note_on_c, 0, 82, 0
2, 629280, Note_on_c, 0, 80, 96
2, 629280, Note_on_c, 0, 92, 96
2, 629520, Note_on_c, 0, 92, 0
2, 629520, Note_on_c, 0, 80, 0
2, 629520, Control_c, 0, 64, 0
2, 629520, Note_on_c, 0, 79, 96
2, 629520, Note_on_c, 0, 91, 96
2, 629760, Note_on_c, 0, 91, 0
2, 629760, Note_on_c, 0, 79, 0
2, 629760, Control_c, 0, 64, 127
2, 629760, Note_on_c, 0, 80, 96
2, 629760, Note_on_c, 0, 92, 96
2, 630000, Note_on_c, 0, 92, 0
2, 630000, Note_on_c, 0, 80, 0
2, 630000, Note_on_c, 0, 79, 96
2, 630000, Note_on_c, 0, 91, 96
2, 630240, Note_on_c, 0, 91, 0
2, 630240, Note_on_c, 0, 79, 0
2, 630240, Note_on_c, 0, 77, 96
2, 630240, Note_on_c, 0, 89, 96
2, 630480, Note_on_c, 0, 89, 0
2, 630480, Note_on_c, 0, 77, 0
2, 630480, Control_c, 0, 64, 0
2, 630480, Note_on_c, 0, 75, 96
2, 630480, Note_on_c, 0, 87, 96
2, 630720, Note_on_c, 0, 87, 0
2, 630720, Note_on_c, 0, 75, 0
2, 630720, Control_c, 0, 64, 127
2, 630720, Note_on_c, 0, 87, 96
2, 630720, Note_on_c, 0, 99, 96
2, 630960, Note_on_c, 0, 99, 0
2, 630960, Note_on_c, 0, 87, 0
2, 630960, Note_on_c, 0, 86, 96
2, 630960, Note_on_c, 0, 98, 96
2, 631200, Note_on_c, 0, 98, 0
2, 631200, Note_on_c, 0, 86, 0
2, 631200, Note_on_c, 0, 83, 96
2, 631200, Note_on_c, 0, 95, 96
2, 631440, Note_on_c, 0, 95, 0
2, 631440, Note_on_c, 0, 83, 0
2, 631440, Control_c, 0, 64, 0
2, 631440, Note_on_c, 0, 81, 96
2, 631440, Note_on_c, 0, 93, 96
2, 631680, Note_on_c, 0, 93, 0
2, 631680, Note_on_c, 0, 81, 0
2, 631680, Control_c, 0, 64, 127
2, 631680, Note_on_c, 0, 83, 96
2, 631680, Note_on_c, 0, 95, 96
2, 631920, Note_on_c, 0, 95, 0
2, 631920, Note_on_c, 0, 83, 0
2, 631920, Note_on_c, 0, 82, 96
2, 631920, Note_on_c, 0, 94, 96
2, 632160, Note_on_c, 0, 94, 0
2, 632160, Note_on_c, 0, 82, 0
2, 632160, Note_on_c, 0, 80, 96
2, 632160, Note_on_c, 0, 92, 96
2, 632400, Note_on_c, 0, 92, 0
2, 632400, Note_on_c, 0, 80, 0
2, 632400, Control_c, 0, 64, 0
2, 632400, Note_on_c, 0, 78, 96
2, 632400, Note_on_c, 0, 90, 96
2, 632640, Note_on_c, 0, 90, 0
2, 632640, Note_on_c, 0, 78, 0
2, 632640, Control_c, 0, 64, 127
2, 632640, Note_on_c, 0, 80, 96
2, 632640, Note_on_c, 0, 92, 96
2, 632880, Note_on_c, 0, 92, 0
2, 632880, Note_on_c, 0, 80, 0
2, 632880, Note_on_c, 0, 79, 96
2, 632880, Note_on_c, 0, 91, 96
2, 633120, Note_on_c, 0, 91, 0
2, 633120, Note_on_c, 0, 79, 0
2, 633120, Note_on_c, 0, 76, 96
2, 633120, Note_on_c, 0, 88, 96
2, 633360, Note_on_c, 0, 88, 0
2, 633360, Note_on_c, 0, 76, 0
2, 633360, Control_c, 0, 64, 0
2, 633360, Note_on_c, 0, 74, 96
2, 633360, Note_on_c, 0, 86, 96
2, 633600, Note_on_c, 0, 86, 0
2, 633600, Note_on_c, 0, 74, 0
2, 633600, Control_c, 0, 64, 127
2, 633600, Note_on_c, 0, 76, 96
2, 633600, Note_on_c, 0, 88, 96
2, 633840, Note_on_c, 0, 88, 0
2, 633840, Note_on_c, 0, 76, 0
2, 633840, Note_on_c, 0, 75, 96
2, 633840, Note_on_c, 0, 87, 96
2, 634080, Note_on_c, 0, 87, 0
2, 634080, Note_on_c, 0, 75, 0
2, 634080, Note_on_c, 0, 71, 96
2, 634080, Note_on_c, 0, 83, 96
2, 634320, Note_on_c, 0, 83, 0
2, 634320, Note_on_c, 0, 71, 0
2, 634320, Control_c, 0, 64, 0
2, 634320, Note_on_c, 0, 69, 96
2, 634320, Note_on_c, 0, 81, 96
2, 634560, Note_on_c, 0, 81, 0
2, 634560, Note_on_c, 0, 69, 0
2, 634560, Control_c, 0, 64, 127
2, 634560, Note_on_c, 0, 71, 96
2, 634560, Note_on_c, 0, 83, 96
2, 634800, Note_on_c, 0, 83, 0
2, 634800, Note_on_c, 0, 71, 0
2, 634800, Note_on_c, 0, 70, 96
2, 634800, Note_on_c, 0, 82, 96
2, 635040, Note_on_c, 0, 82, 0
2, 635040, Note_on_c, 0, 70, 0
2, 635040, Note_on_c, 0, 68, 96
2, 635040, Note_on_c, 0, 80, 96
2, 635280, Note_on_c, 0, 80, 0
2, 635280, Note_on_c, 0, 68, 0
2, 635280, Control_c, 0, 64, 0
2, 635280, Note_on_c, 0, 66, 96
2, 635280, Note_on_c, 0, 78, 96
2, 635520, Note_on_c, 0, 78, 0
2, 635520, Note_on_c, 0, 66, 0
2, 635520, Control_c, 0, 64, 127
2, 635520, Note_on_c, 0, 68, 96
2, 635520, Note_on_c, 0, 80, 96
2, 635760, Note_on_c, 0, 80, 0
2, 635760, Note_on_c, 0, 68, 0
2, 635760, Note_on_c, 0, 67, 96
2, 635760, Note_on_c, 0, 79, 96
2, 636000, Note_on_c, 0, 79, 0
2, 636000, Note_on_c, 0, 67, 0
2, 636000, Note_on_c, 0, 64, 96
2, 636000, Note_on_c, 0, 76, 96
2, 636240, Note_on_c, 0, 76, 0
2, 636240, Note_on_c, 0, 64, 0
2, 636240, Control_c, 0, 64, 0
2, 636240, Note_on_c, 0, 62, 96
2, 636240, Note_on_c, 0, 74, 96
2, 636480, Note_on_c, 0, 74, 0
2, 636480, Note_on_c, 0, 62, 0
2, 636480, Control_c, 0, 64, 127
2, 636480, Note_on_c, 0, 64, 96
2, 636480, Note_on_c, 0, 76, 96
2, 636720, Note_on_c, 0, 76, 0
2, 636720, Note_on_c, 0, 64, 0
2, 636720, Note_on_c, 0, 63, 96
2, 636720, Note_on_c, 0, 75, 96
2, 636960, Note_on_c, 0, 75, 0
2, 636960, Note_on_c, 0, 63, 0
2, 636960, Note_on_c, 0, 59, 96
2, 636960, Note_on_c, 0, 71, 96
2, 637200, Note_on_c, 0, 71, 0
2, 637200, Note_on_c, 0, 59, 0
2, 637200, Control_c, 0, 64, 0
2, 637200, Note_on_c, 0, 57, 96
2, 637200, Note_on_c, 0, 69, 96
2, 637440, Note_on_c, 0, 69, 0
2, 637440, Note_on_c, 0, 57, 0
2, 637440, Control_c, 0, 64, 127
2, 637440, Note_on_c, 0, 59, 96
2, 637440, Note_on_c, 0, 71, 96
2, 637680, Note_on_c, 0, 71, 0
2, 637680, Note_on_c, 0, 59, 0
2, 637680, Note_on_c, 0, 58, 96
2, 637680, Note_on_c, 0, 70, 96
2, 637920, Note_on_c, 0, 70, 0
2, 637920, Note_on_c, 0, 58, 0
2, 637920, Note_on_c, 0, 56, 96
2, 637920, Note_on_c, 0, 68, 96
2, 638160, Note_on_c, 0, 68, 0
2, 638160, Note_on_c, 0, 56, 0
2, 638160, Control_c, 0, 64, 0
2, 638160, Note_on_c, 0, 54, 96
2, 638160, Note_on_c, 0, 66, 96
2, 638400, Note_on_c, 0, 66, 0
2, 638400, Note_on_c, 0, 54, 0
2, 638400, Control_c, 0, 64, 127
2, 638400, Note_on_c, 0, 56, 96
2, 638400, Note_on_c, 0, 68, 96
2, 638720, Note_on_c, 0, 68, 0
2, 638720, Note_on_c, 0, 56, 0
2, 638720, Note_on_c, 0, 55, 96
2, 638720, Note_on_c, 0, 67, 96
2, 639039, Note_on_c, 0, 67, 0
2, 639039, Note_on_c, 0, 55, 0
2, 639039, Note_on_c, 0, 51, 96
2, 639039, Note_on_c, 0, 63, 96
2, 639360, Note_on_c, 0, 63, 0
2, 639360, Note_on_c, 0, 51, 0
2, 639360, Note_on_c, 0, 59, 96
2, 639680, Note_on_c, 0, 59, 0
2, 639680, Note_on_c, 0, 58, 96
2, 639999, Note_on_c, 0, 58, 0
2, 639999, Control_c, 0, 64, 0
2, 639999, Note_on_c, 0, 55, 96
2, 640320, Note_on_c, 0, 55, 0
2, 640320, Note_on_c, 0, 51, 96
2, 640800, Note_on_c, 0, 51, 0
2, 640800, Note_on_c, 0, 67, 83
2, 640800, Note_on_c, 0, 69, 83
2, 641760, Note_on_c, 0, 69, 0
2, 641760, Note_on_c, 0, 67, 0
2, 641760, Note_on_c, 0, 70, 57
2, 642240, Note_on_c, 0, 70, 0
2, 642240, Note_on_c, 0, 75, 57
2, 642560, Note_on_c, 0, 75, 0
2, 642879, Note_on_c, 0, 59, 57
2, 642879, Note_on_c, 0, 63, 57
2, 642879, Note_on_c, 0, 67, 57
2, 643839, Note_on_c, 0, 67, 0
2, 643839, Note_on_c, 0, 63, 0
2, 643839, Note_on_c, 0, 59, 0
2, 643839, Note_on_c, 0, 68, 57
2, 644160, Note_on_c, 0, 68, 0
2, 644640, Note_on_c, 0, 68, 57
2, 644640, Note_on_c, 0, 74, 57
2, 644640, Note_on_c, 0, 76, 57
2, 645600, Note_on_c, 0, 76, 0
2, 645600, Note_on_c, 0, 74, 0
2, 645600, Note_on_c, 0, 68, 0
2, 645600, Note_on_c, 0, 77, 57
2, 646080, Note_on_c, 0, 77, 0
2, 646080, Note_on_c, 0, 82, 57
2, 646400, Note_on_c, 0, 82, 0
2, 646719, Note_on_c, 0, 66, 57
2, 646719, Note_on_c, 0, 70, 57
2, 646719, Note_on_c, 0, 74, 57
2, 647679, Note_on_c, 0, 74, 0
2, 647679, Note_on_c, 0, 70, 0
2, 647679, Note_on_c, 0, 66, 0
2, 647679, Note_on_c, 0, 67, 57
2, 647679, Note_on_c, 0, 70, 57
2, 647679, Note_on_c, 0, 75, 57
2, 648000, Note_on_c, 0, 75, 0
2, 648000, Note_on_c, 0, 70, 0
2, 648000, Note_on_c, 0, 67, 0
2, 648480, Note_on_c, 0, 79, 83
2, 648480, Note_on_c, 0, 81, 83
2, 649440, Note_on_c, 0, 81, 0
2, 649440, Note_on_c, 0, 79, 0
2, 649440, Note_on_c, 0, 82, 57
2, 649920, Note_on_c, 0, 82, 0
2, 649920, Note_on_c, 0, 87, 57
2, 650240, Note_on_c, 0, 87, 0
2, 650559, Note_on_c, 0, 71, 57
2, 650559, Note_on_c, 0, 75, 57
2, 650559, Note_on_c, 0, 79, 57
2, 651519, Note_on_c, 0, 79, 0
2, 651519, Note_on_c, 0, 75, 0
2, 651519, Note_on_c, 0, 71, 0
2, 651519, Note_on_c, 0, 80, 57
2, 651840, Note_on_c, 0, 80, 0
2, 652320, Note_on_c, 0, 80, 57
2, 652320, Note_on_c, 0, 86, 57
2, 652320, Note_on_c, 0, 88, 57
2, 653280, Note_on_c, 0, 88, 0
2, 653280, Note_on_c, 0, 86, 0
2, 653280, Note_on_c, 0, 80, 0
2, 653280, Note_on_c, 0, 89, 57
2, 653760, Note_on_c, 0, 89, 0
2, 653760, Note_on_c, 0, 94, 57
2, 654080, Note_on_c, 0, 94, 0
2, 654399, Note_on_c, 0, 78, 57
2, 654399, Note_on_c, 0, 82, 57
2, 654399, Note_on_c, 0, 86, 57
2, 655359, Note_on_c, 0, 86, 0
2, 655359, Note_on_c, 0, 82, 0
2, 655359, Note_on_c, 0, 78, 0
2, 655359, Note_on_c, 0, 79, 57
2, 655359, Note_on_c, 0, 82, 57
2, 655359, Note_on_c, 0, 87, 57
2, 655680, Note_on_c, 0, 87, 0
2, 655680, Note_on_c, 0, 82, 0
2, 655680, Note_on_c, 0, 79, 0
2, 656160, Note_on_c, 0, 88, 70
2, 657120, Note_on_c, 0, 88, 0
2, 657120, Note_on_c, 0, 76, 44
2, 657120, Note_on_c, 0, 79, 44
2, 657600, Note_on_c, 0, 79, 0
2, 657600, Note_on_c, 0, 76, 0
2, 657600, Note_on_c, 0, 82, 44
2, 658080, Note_on_c, 0, 82, 0
2, 658080, Note_on_c, 0, 75, 44
2, 658080, Note_on_c, 0, 80, 44
2, 658560, Note_on_c, 0, 80, 0
2, 658560, Note_on_c, 0, 75, 0
2, 658880, Note_on_c, 0, 87, 44
2, 659199, Note_on_c, 0, 87, 0
2, 659199, Note_on_c, 0, 92, 44
2, 659520, Note_on_c, 0, 92, 0
2, 660000, Note_on_c, 0, 83, 70
2, 660960, Note_on_c, 0, 83, 0
2, 660960, Note_on_c, 0, 71, 44
2, 660960, Note_on_c, 0, 74, 44
2, 661440, Note_on_c, 0, 74, 0
2, 661440, Note_on_c, 0, 71, 0
2, 661440, Note_on_c, 0, 77, 44
2, 661920, Note_on_c, 0, 77, 0
2, 661920, Note_on_c, 0, 70, 44
2, 661920, Note_on_c, 0, 75, 44
2, 662400, Note_on_c, 0, 75, 0
2, 662400, Note_on_c, 0, 70, 0
2, 662720, Note_on_c, 0, 82, 44
2, 663039, Note_on_c, 0, 82, 0
2, 663039, Note_on_c, 0, 87, 44
2, 663360, Note_on_c, 0, 87, 0
2, 663840, Note_on_c, 0, 67, 83
2, 663840, Note_on_c, 0, 70, 83
2, 663840, Note_on_c, 0, 79, 83
2, 664800, Note_on_c, 0, 79, 0
2, 664800, Note_on_c, 0, 70, 0
2, 664800, Note_on_c, 0, 67, 0
2, 664800, Note_on_c, 0, 65, 83
2, 664800, Note_on_c, 0, 70, 83
2, 664800, Note_on_c, 0, 77, 83
2, 665280, Note_on_c, 0, 77, 0
2, 665280, Note_on_c, 0, 70, 0
2, 665280, Note_on_c, 0, 65, 0
2, 665280, Note_on_c, 0, 63, 83
2, 665280, Note_on_c, 0, 67, 83
2, 665280, Note_on_c, 0, 70, 83
2, 665280, Note_on_c, 0, 75, 83
2, 666240, Note_on_c, 0, 75, 0
2, 666240, Note_on_c, 0, 63, 0
2, 666240, Note_on_c, 0, 67, 0
2, 666240, Note_on_c, 0, 70, 0
2, 666240, Note_on_c, 0, 67, 83
2, 666240, Note_on_c, 0, 70, 83
2, 666240, Note_on_c, 0, 74, 83
2, 666720, Note_on_c, 0, 74, 0
2, 666720, Note_on_c, 0, 70, 0
2, 666720, Note_on_c, 0, 67, 0
2, 667520, Note_on_c, 0, 67, 83
2, 667520, Note_on_c, 0, 70, 83
2, 667520, Note_on_c, 0, 73, 83
2, 667839, Note_on_c, 0, 73, 0
2, 667839, Note_on_c, 0, 70, 0
2, 667839, Note_on_c, 0, 67, 0
2, 667839, Note_on_c, 0, 67, 83
2, 667839, Note_on_c, 0, 70, 83
2, 667839, Note_on_c, 0, 74, 83
2, 668160, Note_on_c, 0, 74, 0
2, 668160, Note_on_c, 0, 70, 0
2, 668160, Note_on_c, 0, 67, 0
2, 668160, Note_on_c, 0, 67, 109
2, 668160, Note_on_c, 0, 70, 109
2, 668160, Note_on_c, 0, 79, 109
2, 668799, Note_on_c, 0, 79, 0
2, 668799, Note_on_c, 0, 70, 0
2, 668799, Note_on_c, 0, 67, 0
2, 668799, Note_on_c, 0, 65, 83
2, 668799, Note_on_c, 0, 70, 83
2, 668799, Note_on_c, 0, 77, 83
2, 669120, Note_on_c, 0, 77, 0
2, 669120, Note_on_c, 0, 70, 0
2, 669120, Note_on_c, 0, 65, 0
2, 669120, Note_on_c, 0, 63, 83
2, 669120, Note_on_c, 0, 67, 83
2, 669120, Note_on_c, 0, 70, 83
2, 669120, Note_on_c, 0, 75, 83
2, 670080, Note_on_c, 0, 75, 0
2, 670080, Note_on_c, 0, 63, 0
2, 670080, Note_on_c, 0, 67, 0
2, 670080, Note_on_c, 0, 70, 0
2, 670080, Note_on_c, 0, 67, 83
2, 670080, Note_on_c, 0, 70, 83
2, 670080, Note_on_c, 0, 74, 83
2, 670560, Note_on_c, 0, 74, 0
2, 670560, Note_on_c, 0, 70, 0
2, 670560, Note_on_c, 0, 67, 0
2, 671360, Note_on_c, 0, 67, 83
2, 671360, Note_on_c, 0, 79, 83
2, 671679, Note_on_c, 0, 79, 0
2, 671679, Note_on_c, 0, 67, 0
2, 671679, Note_on_c, 0, 69, 83
2, 671679, Note_on_c, 0, 81, 83
2, 672000, Note_on_c, 0, 81, 0
2, 672000, Note_on_c, 0, 69, 0
2, 672000, Note_on_c, 0, 70, 109
2, 672000, Note_on_c, 0, 74, 109
2, 672000, Note_on_c, 0, 79, 109
2, 672000, Note_on_c, 0, 82, 109
2, 672639, Note_on_c, 0, 82, 0
2, 672639, Note_on_c, 0, 70, 0
2, 672639, Note_on_c, 0, 74, 0
2, 672639, Note_on_c, 0, 79, 0
2, 672639, Note_on_c, 0, 69, 83
2, 672639, Note_on_c, 0, 81, 83
2, 672960, Note_on_c, 0, 81, 0
2, 672960, Note_on_c, 0, 69, 0
2, 672960, Note_on_c, 0, 68, 83
2, 672960, Note_on_c, 0, 74, 83
2, 672960, Note_on_c, 0, 77, 83
2, 672960, Note_on_c, 0, 80, 83
2, 673440, Note_on_c, 0, 80, 0
2, 673440, Note_on_c, 0, 68, 0
2, 673440, Note_on_c, 0, 74, 0
2, 673440, Note_on_c, 0, 77, 0
2, 673440, Note_on_c, 0, 62, 83
2, 673440, Note_on_c, 0, 74, 83
2, 674880, Note_on_c, 0, 74, 0
2, 674880, Note_on_c, 0, 62, 0
2, 675200, Note_on_c, 0, 72, 96
2, 675200, Note_on_c, 0, 79, 96
2, 675200, Note_on_c, 0, 84, 96
2, 675519, Note_on_c, 0, 84, 0
2, 675519, Note_on_c, 0, 79, 0
2, 675519, Note_on_c, 0, 72, 0
2, 675519, Note_on_c, 0, 74, 96
2, 675519, Note_on_c, 0, 79, 96
2, 675519, Note_on_c, 0, 86, 96
2, 675840, Note_on_c, 0, 86, 0
2, 675840, Note_on_c, 0, 79, 0
2, 675840, Note_on_c, 0, 74, 0
2, 675840, Note_on_c, 0, 75, 122
2, 675840, Note_on_c, 0, 79, 122
2, 675840, Note_on_c, 0, 84, 122
2, 675840, Note_on_c, 0, 87, 122
2, 676479, Note_on_c, 0, 87, 0
2, 676479, Note_on_c, 0, 75, 0
2, 676479, Note_on_c, 0, 79, 0
2, 676479, Note_on_c, 0, 84, 0
2, 676479, Note_on_c, 0, 74, 96
2, 676479, Note_on_c, 0, 86, 96
2, 676800, Note_on_c, 0, 86, 0
2, 676800, Note_on_c, 0, 74, 0
2, 676800, Note_on_c, 0, 73, 96
2, 676800, Note_on_c, 0, 79, 96
2, 676800, Note_on_c, 0, 82, 96
2, 676800, Note_on_c, 0, 85, 96
2, 677280, Note_on_c, 0, 85, 0
2, 677280, Note_on_c, 0, 73, 0
2, 677280, Note_on_c, 0, 79, 0
2, 677280, Note_on_c, 0, 82, 0
2, 677280, Note_on_c, 0, 67, 96
2, 677280, Note_on_c, 0, 73, 96
2, 677280, Note_on_c, 0, 79, 96
2, 678720, Note_on_c, 0, 79, 0
2, 678720, Note_on_c, 0, 73, 0
2, 678720, Note_on_c, 0, 67, 0
2, 679040, Note_on_c, 0, 73, 96
2, 679040, Note_on_c, 0, 79, 96
2, 679040, Note_on_c, 0, 82, 96
2, 679040, Note_on_c, 0, 85, 96
2, 679359, Note_on_c, 0, 85, 0
2, 679359, Note_on_c, 0, 73, 0
2, 679359, Note_on_c, 0, 79, 0
2, 679359, Note_on_c, 0, 82, 0
2, 679359, Note_on_c, 0, 74, 96
2, 679359, Note_on_c, 0, 79, 96
2, 679359, Note_on_c, 0, 82, 96
2, 679359, Note_on_c, 0, 86, 96
2, 679680, Note_on_c, 0, 86, 0
2, 679680, Note_on_c, 0, 74, 0
2, 679680, Note_on_c, 0, 79, 0
2, 679680, Note_on_c, 0, 82, 0
2, 679680, Note_on_c, 0, 79, 122
2, 679680, Note_on_c, 0, 82, 122
2, 679680, Note_on_c, 0, 91, 122
2, 680319, Note_on_c, 0, 91, 0
2, 680319, Note_on_c, 0, 82, 0
2, 680319, Note_on_c, 0, 79, 0
2, 680319, Note_on_c, 0, 77, 96
2, 680319, Note_on_c, 0, 82, 96
2, 680319, Note_on_c, 0, 89, 96
2, 680640, Note_on_c, 0, 89, 0
2, 680640, Note_on_c, 0, 82, 0
2, 680640, Note_on_c, 0, 77, 0
2, 680640, Note_on_c, 0, 75, 96
2, 680640, Note_on_c, 0, 79, 96
2, 680640, Note_on_c, 0, 82, 96
2, 680640, Note_on_c, 0, 87, 96
2, 681120, Note_on_c, 0, 87, 0
2, 681120, Note_on_c, 0, 75, 0
2, 681120, Note_on_c, 0, 79, 0
2, 681120, Note_on_c, 0, 82, 0
2, 681120, Note_on_c, 0, 74, 96
2, 681120, Note_on_c, 0, 79, 96
2, 681120, Note_on_c, 0, 82, 96
2, 681120, Note_on_c, 0, 86, 96
2, 681600, Note_on_c, 0, 86, 0
2, 681600, Note_on_c, 0, 74, 0
2, 681600, Note_on_c, 0, 79, 0
2, 681600, Note_on_c, 0, 82, 0
2, 682880, Note_on_c, 0, 73, 96
2, 682880, Note_on_c, 0, 79, 96
2, 682880, Note_on_c, 0, 82, 96
2, 682880, Note_on_c, 0, 85, 96
2, 683199, Note_on_c, 0, 85, 0
2, 683199, Note_on_c, 0, 73, 0
2, 683199, Note_on_c, 0, 79, 0
2, 683199, Note_on_c, 0, 82, 0
2, 683199, Note_on_c, 0, 74, 96
2, 683199, Note_on_c, 0, 79, 96
2, 683199, Note_on_c, 0, 82, 96
2, 683199, Note_on_c, 0, 86, 96
2, 683520, Note_on_c, 0, 86, 0
2, 683520, Note_on_c, 0, 74, 0
2, 683520, Note_on_c, 0, 79, 0
2, 683520, Note_on_c, 0, 82, 0
2, 683520, Note_on_c, 0, 79, 122
2, 683520, Note_on_c, 0, 82, 122
2, 683520, Note_on_c, 0, 91, 122
2, 684159, Note_on_c, 0, 91, 0
2, 684159, Note_on_c, 0, 82, 0
2, 684159, Note_on_c, 0, 79, 0
2, 684159, Note_on_c, 0, 77, 96
2, 684159, Note_on_c, 0, 82, 96
2, 684159, Note_on_c, 0, 89, 96
2, 684480, Note_on_c, 0, 89, 0
2, 684480, Note_on_c, 0, 82, 0
2, 684480, Note_on_c, 0, 77, 0
2, 684480, Note_on_c, 0, 75, 96
2, 684480, Note_on_c, 0, 79, 96
2, 684480, Note_on_c, 0, 82, 96
2, 684480, Note_on_c, 0, 87, 96
2, 684960, Note_on_c, 0, 87, 0
2, 684960, Note_on_c, 0, 75, 0
2, 684960, Note_on_c, 0, 79, 0
2, 684960, Note_on_c, 0, 82, 0
2, 684960, Note_on_c, 0, 79, 96
2, 684960, Note_on_c, 0, 82, 96
2, 684960, Note_on_c, 0, 86, 96
2, 685440, Note_on_c, 0, 86, 0
2, 685440, Note_on_c, 0, 82, 0
2, 685440, Note_on_c, 0, 79, 0
2, 685760, Note_on_c, 0, 79, 96
2, 685760, Note_on_c, 0, 91, 96
2, 686079, Note_on_c, 0, 91, 0
2, 686079, Note_on_c, 0, 79, 0
2, 686079, Note_on_c, 0, 81, 96
2, 686079, Note_on_c, 0, 93, 96
2, 686400, Note_on_c, 0, 93, 0
2, 686400, Note_on_c, 0, 81, 0
2, 686400, Note_on_c, 0, 82, 96
2, 686400, Note_on_c, 0, 94, 96
2, 686720, Note_on_c, 0, 94, 0
2, 686720, Note_on_c, 0, 82, 0
2, 686720, Note_on_c, 0, 78, 96
2, 686720, Note_on_c, 0, 82, 96
2, 686720, Note_on_c, 0, 90, 96
2, 687039, Note_on_c, 0, 90, 0
2, 687039, Note_on_c, 0, 82, 0
2, 687039, Note_on_c, 0, 78, 0
2, 687039, Note_on_c, 0, 79, 96
2, 687039, Note_on_c, 0, 82, 96
2, 687039, Note_on_c, 0, 91, 96
2, 687360, Note_on_c, 0, 91, 0
2, 687360, Note_on_c, 0, 82, 0
2, 687360, Note_on_c, 0, 79, 0
2, 687680, Note_on_c, 0, 73, 96
2, 687680, Note_on_c, 0, 79, 96
2, 687680, Note_on_c, 0, 85, 96
2, 687999, Note_on_c, 0, 85, 0
2, 687999, Note_on_c, 0, 79, 0
2, 687999, Note_on_c, 0, 73, 0
2, 687999, Note_on_c, 0, 74, 96
2, 687999, Note_on_c, 0, 86, 96
2, 688320, Note_on_c, 0, 86, 0
2, 688320, Note_on_c, 0, 74, 0
2, 688320, Note_on_c, 0, 75, 96
2, 688320, Note_on_c, 0, 79, 96
2, 688320, Note_on_c, 0, 82, 96
2, 688320, Note_on_c, 0, 87, 96
2, 688640, Note_on_c, 0, 87, 0
2, 688640, Note_on_c, 0, 75, 0
2, 688640, Note_on_c, 0, 79, 0
2, 688640, Note_on_c, 0, 82, 0
2, 688640, Note_on_c, 0, 73, 96
2, 688640, Note_on_c, 0, 85, 96
2, 688959, Note_on_c, 0, 85, 0
2, 688959, Note_on_c, 0, 73, 0
2, 688959, Note_on_c, 0, 74, 96
2, 688959, Note_on_c, 0, 86, 96
2, 689280, Note_on_c, 0, 86, 0
2, 689280, Note_on_c, 0, 74, 0
2, 689600, Note_on_c, 0, 67, 96
2, 689600, Note_on_c, 0, 79, 96
2, 689919, Note_on_c, 0, 79, 0
2, 689919, Note_on_c, 0, 67, 0
2, 689919, Note_on_c, 0, 69, 96
2, 689919, Note_on_c, 0, 81, 96
2, 690240, Note_on_c, 0, 81, 0
2, 690240, Note_on_c, 0, 69, 0
2, 690240, Note_on_c, 0, 70, 96
2, 690240, Note_on_c, 0, 82, 96
2, 690560, Note_on_c, 0, 82, 0
2, 690560, Note_on_c, 0, 70, 0
2, 690560, Note_on_c, 0, 66, 96
2, 690560, Note_on_c, 0, 70, 96
2, 690560, Note_on_c, 0, 78, 96
2, 690879, Note_on_c, 0, 78, 0
2, 690879, Note_on_c, 0, 70, 0
2, 690879, Note_on_c, 0, 66, 0
2, 690879, Note_on_c, 0, 67, 96
2, 690879, Note_on_c, 0, 70, 96
2, 690879, Note_on_c, 0, 79, 96
2, 691200, Note_on_c, 0, 79, 0
2, 691200, Note_on_c, 0, 70, 0
2, 691200, Note_on_c, 0, 67, 0
2, 691520, Note_on_c, 0, 61, 96
2, 691520, Note_on_c, 0, 67, 96
2, 691520, Note_on_c, 0, 73, 96
2, 691839, Note_on_c, 0, 73, 0
2, 691839, Note_on_c, 0, 67, 0
2, 691839, Note_on_c, 0, 61, 0
2, 691839, Note_on_c, 0, 62, 96
2, 691839, Note_on_c, 0, 74, 96
2, 692160, Note_on_c, 0, 74, 0
2, 692160, Note_on_c, 0, 62, 0
2, 692160, Note_on_c, 0, 63, 83
2, 692160, Note_on_c, 0, 67, 83
2, 692160, Note_on_c, 0, 70, 83
2, 692160, Note_on_c, 0, 75, 83
2, 692480, Note_on_c, 0, 75, 0
2, 692480, Note_on_c, 0, 63, 0
2, 692480, Note_on_c, 0, 67, 0
2, 692480, Note_on_c, 0, 70, 0
2, 692480, Note_on_c, 0, 61, 83
2, 692480, Note_on_c, 0, 73, 83
2, 692799, Note_on_c, 0, 73, 0
2, 692799, Note_on_c, 0, 61, 0
2, 692799, Note_on_c, 0, 62, 83
2, 692799, Note_on_c, 0, 74, 83
2, 693120, Note_on_c, 0, 74, 0
2, 693120, Note_on_c, 0, 62, 0
2, 694080, Note_on_c, 0, 63, 83
2, 694080, Note_on_c, 0, 67, 83
2, 694080, Note_on_c, 0, 70, 83
2, 694080, Note_on_c, 0, 75, 83
2, 694400, Note_on_c, 0, 75, 0
2, 694400, Note_on_c, 0, 63, 0
2, 694400, Note_on_c, 0, 67, 0
2, 694400, Note_on_c, 0, 70, 0
2, 694400, Note_on_c, 0, 61, 83
2, 694400, Note_on_c, 0, 73, 83
2, 694719, Note_on_c, 0, 73, 0
2, 694719, Note_on_c, 0, 61, 0
2, 694719, Note_on_c, 0, 62, 83
2, 694719, Note_on_c, 0, 74, 83
2, 695040, Note_on_c, 0, 74, 0
2, 695040, Note_on_c, 0, 62, 0
2, 696000, Note_on_c, 0, 64, 83
2, 696000, Note_on_c, 0, 67, 83
2, 696000, Note_on_c, 0, 70, 83
2, 696000, Note_on_c, 0, 76, 83
2, 696320, Note_on_c, 0, 76, 0
2, 696320, Note_on_c, 0, 64, 0
2, 696320, Note_on_c, 0, 67, 0
2, 696320, Note_on_c, 0, 70, 0
2, 696320, Note_on_c, 0, 62, 83
2, 696320, Note_on_c, 0, 74, 83
2, 696639, Note_on_c, 0, 74, 0
2, 696639, Note_on_c, 0, 62, 0
2, 696639, Note_on_c, 0, 63, 83
2, 696639, Note_on_c, 0, 75, 83
2, 696960, Note_on_c, 0, 75, 0
2, 696960, Note_on_c, 0, 63, 0
2, 697920, Note_on_c, 0, 64, 83
2, 697920, Note_on_c, 0, 67, 83
2, 697920, Note_on_c, 0, 70, 83
2, 697920, Note_on_c, 0, 76, 83
2, 698240, Note_on_c, 0, 76, 0
2, 698240, Note_on_c, 0, 64, 0
2, 698240, Note_on_c, 0, 67, 0
2, 698240, Note_on_c, 0, 70, 0
2, 698240, Note_on_c, 0, 62, 83
2, 698240, Note_on_c, 0, 74, 83
2, 698559, Note_on_c, 0, 74, 0
2, 698559, Note_on_c, 0, 62, 0
2, 698559, Note_on_c, 0, 63, 83
2, 698559, Note_on_c, 0, 75, 83
2, 698880, Note_on_c, 0, 75, 0
2, 698880, Note_on_c, 0, 63, 0
2, 702399, Note_on_c, 0, 76, 96
2, 702399, Note_on_c, 0, 80, 96
2, 702399, Note_on_c, 0, 88, 96
2, 703359, Note_on_c, 0, 88, 0
2, 703359, Note_on_c, 0, 80, 0
2, 703359, Note_on_c, 0, 76, 0
2, 703359, Note_on_c, 0, 75, 96
2, 703359, Note_on_c, 0, 80, 96
2, 703359, Note_on_c, 0, 87, 96
2, 703680, Note_on_c, 0, 87, 0
2, 703680, Note_on_c, 0, 80, 0
2, 703680, Note_on_c, 0, 75, 0
2, 703680, Note_on_c, 0, 73, 96
2, 703680, Note_on_c, 0, 76, 96
2, 703680, Note_on_c, 0, 80, 96
2, 703680, Note_on_c, 0, 85, 96
2, 704319, Note_on_c, 0, 85, 0
2, 704319, Note_on_c, 0, 73, 0
2, 704319, Note_on_c, 0, 76, 0
2, 704319, Note_on_c, 0, 80, 0
2, 704319, Note_on_c, 0, 71, 96
2, 704319, Note_on_c, 0, 76, 96
2, 704319, Note_on_c, 0, 80, 96
2, 704319, Note_on_c, 0, 83, 96
2, 704640, Note_on_c, 0, 83, 0
2, 704640, Note_on_c, 0, 71, 0
2, 704640, Note_on_c, 0, 76, 0
2, 704640, Note_on_c, 0, 80, 0
2, 705920, Note_on_c, 0, 70, 96
2, 705920, Note_on_c, 0, 82, 96
2, 706239, Note_on_c, 0, 82, 0
2, 706239, Note_on_c, 0, 70, 0
2, 706239, Note_on_c, 0, 71, 96
2, 706239, Note_on_c, 0, 83, 96
2, 706560, Note_on_c, 0, 83, 0
2, 706560, Note_on_c, 0, 71, 0
2, 706560, Note_on_c, 0, 76, 96
2, 706560, Note_on_c, 0, 80, 96
2, 706560, Note_on_c, 0, 88, 96
2, 707199, Note_on_c, 0, 88, 0
2, 707199, Note_on_c, 0, 80, 0
2, 707199, Note_on_c, 0, 76, 0
2, 707199, Note_on_c, 0, 75, 96
2, 707199, Note_on_c, 0, 80, 96
2, 707199, Note_on_c, 0, 87, 96
2, 707520, Note_on_c, 0, 87, 0
2, 707520, Note_on_c, 0, 80, 0
2, 707520, Note_on_c, 0, 75, 0
2, 707520, Note_on_c, 0, 73, 96
2, 707520, Note_on_c, 0, 77, 96
2, 707520, Note_on_c, 0, 80, 96
2, 707520, Note_on_c, 0, 85, 96
2, 707840, Note_on_c, 0, 85, 0
2, 707840, Note_on_c, 0, 73, 0
2, 707840, Note_on_c, 0, 77, 0
2, 707840, Note_on_c, 0, 80, 0
2, 707840, Note_on_c, 0, 63, 96
2, 707840, Note_on_c, 0, 73, 96
2, 707840, Note_on_c, 0, 75, 96
2, 708159, Note_on_c, 0, 75, 0
2, 708159, Note_on_c, 0, 73, 0
2, 708159, Note_on_c, 0, 63, 0
2, 708159, Note_on_c, 0, 65, 96
2, 708159, Note_on_c, 0, 73, 96
2, 708159, Note_on_c, 0, 77, 96
2, 708480, Note_on_c, 0, 77, 0
2, 708480, Note_on_c, 0, 73, 0
2, 708480, Note_on_c, 0, 65, 0
2, 708480, Note_on_c, 0, 66, 96
2, 708480, Note_on_c, 0, 73, 96
2, 708480, Note_on_c, 0, 78, 96
2, 709440, Note_on_c, 0, 78, 0
2, 709440, Note_on_c, 0, 73, 0
2, 709440, Note_on_c, 0, 66, 0
2, 710079, Note_on_c, 0, 69, 96
2, 710079, Note_on_c, 0, 73, 96
2, 710079, Note_on_c, 0, 81, 96
2, 711039, Note_on_c, 0, 81, 0
2, 711039, Note_on_c, 0, 73, 0
2, 711039, Note_on_c, 0, 69, 0
2, 711039, Note_on_c, 0, 68, 96
2, 711039, Note_on_c, 0, 73, 96
2, 711039, Note_on_c, 0, 80, 96
2, 711360, Note_on_c, 0, 80, 0
2, 711360, Note_on_c, 0, 73, 0
2, 711360, Note_on_c, 0, 68, 0
2, 711360, Note_on_c, 0, 68, 96
2, 711360, Note_on_c, 0, 73, 96
2, 711360, Note_on_c, 0, 80, 96
2, 711999, Note_on_c, 0, 80, 0
2, 711999, Note_on_c, 0, 73, 0
2, 711999, Note_on_c, 0, 68, 0
2, 711999, Note_on_c, 0, 66, 96
2, 711999, Note_on_c, 0, 73, 96
2, 711999, Note_on_c, 0, 78, 96
2, 712320, Note_on_c, 0, 78, 0
2, 712320, Note_on_c, 0, 73, 0
2, 712320, Note_on_c, 0, 66, 0
2, 713600, Note_on_c, 0, 65, 96
2, 713600, Note_on_c, 0, 73, 96
2, 713600, Note_on_c, 0, 77, 96
2, 713919, Note_on_c, 0, 77, 0
2, 713919, Note_on_c, 0, 73, 0
2, 713919, Note_on_c, 0, 65, 0
2, 713919, Note_on_c, 0, 66, 96
2, 713919, Note_on_c, 0, 73, 96
2, 713919, Note_on_c, 0, 78, 96
2, 714240, Note_on_c, 0, 78, 0
2, 714240, Note_on_c, 0, 73, 0
2, 714240, Note_on_c, 0, 66, 0
2, 714240, Note_on_c, 0, 69, 96
2, 714240, Note_on_c, 0, 73, 96
2, 714240, Note_on_c, 0, 81, 96
2, 714879, Note_on_c, 0, 81, 0
2, 714879, Note_on_c, 0, 73, 0
2, 714879, Note_on_c, 0, 69, 0
2, 714879, Note_on_c, 0, 68, 96
2, 714879, Note_on_c, 0, 73, 96
2, 714879, Note_on_c, 0, 80, 96
2, 715200, Note_on_c, 0, 80, 0
2, 715200, Note_on_c, 0, 73, 0
2, 715200, Note_on_c, 0, 68, 0
2, 715200, Note_on_c, 0, 68, 96
2, 715200, Note_on_c, 0, 73, 96
2, 715200, Note_on_c, 0, 80, 96
2, 715520, Note_on_c, 0, 80, 0
2, 715520, Note_on_c, 0, 73, 0
2, 715520, Note_on_c, 0, 68, 0
2, 715520, Note_on_c, 0, 65, 96
2, 715520, Note_on_c, 0, 73, 96
2, 715520, Note_on_c, 0, 77, 96
2, 715839, Note_on_c, 0, 77, 0
2, 715839, Note_on_c, 0, 73, 0
2, 715839, Note_on_c, 0, 65, 0
2, 715839, Note_on_c, 0, 66, 96
2, 715839, Note_on_c, 0, 73, 96
2, 715839, Note_on_c, 0, 78, 96
2, 716160, Note_on_c, 0, 78, 0
2, 716160, Note_on_c, 0, 73, 0
2, 716160, Note_on_c, 0, 66, 0
2, 716160, Note_on_c, 0, 67, 96
2, 716160, Note_on_c, 0, 70, 96
2, 716160, Note_on_c, 0, 75, 96
2, 716160, Note_on_c, 0, 79, 96
2, 717120, Note_on_c, 0, 79, 0
2, 717120, Note_on_c, 0, 67, 0
2, 717120, Note_on_c, 0, 70, 0
2, 717120, Note_on_c, 0, 75, 0
2, 717759, Note_on_c, 0, 75, 96
2, 717759, Note_on_c, 0, 87, 96
2, 718719, Note_on_c, 0, 87, 0
2, 718719, Note_on_c, 0, 75, 0
2, 718719, Note_on_c, 0, 73, 96
2, 718719, Note_on_c, 0, 75, 96
2, 718719, Note_on_c, 0, 85, 96
2, 719040, Note_on_c, 0, 85, 0
2, 719040, Note_on_c, 0, 75, 0
2, 719040, Note_on_c, 0, 73, 0
2, 719040, Note_on_c, 0, 73, 96
2, 719040, Note_on_c, 0, 75, 96
2, 719040, Note_on_c, 0, 85, 96
2, 720000, Note_on_c, 0, 85, 0
2, 720000, Note_on_c, 0, 75, 0
2, 720000, Note_on_c, 0, 73, 0
2, 720000, Note_on_c, 0, 71, 96
2, 720000, Note_on_c, 0, 75, 96
2, 720000, Note_on_c, 0, 83, 96
2, 720480, Note_on_c, 0, 83, 0
2, 720480, Note_on_c, 0, 75, 0
2, 720480, Note_on_c, 0, 71, 0
2, 721280, Note_on_c, 0, 67, 96
2, 721280, Note_on_c, 0, 75, 96
2, 721280, Note_on_c, 0, 79, 96
2, 721599, Note_on_c, 0, 79, 0
2, 721599, Note_on_c, 0, 75, 0
2, 721599, Note_on_c, 0, 67, 0
2, 721599, Note_on_c, 0, 68, 96
2, 721599, Note_on_c, 0, 75, 96
2, 721599, Note_on_c, 0, 80, 96
2, 721920, Note_on_c, 0, 80, 0
2, 721920, Note_on_c, 0, 75, 0
2, 721920, Note_on_c, 0, 68, 0
2, 721920, Note_on_c, 0, 75, 96
2, 721920, Note_on_c, 0, 87, 96
2, 722559, Note_on_c, 0, 87, 0
2, 722559, Note_on_c, 0, 75, 0
2, 722559, Note_on_c, 0, 73, 96
2, 722559, Note_on_c, 0, 75, 96
2, 722559, Note_on_c, 0, 85, 96
2, 722880, Note_on_c, 0, 85, 0
2, 722880, Note_on_c, 0, 75, 0
2, 722880, Note_on_c, 0, 73, 0
2, 722880, Note_on_c, 0, 73, 96
2, 722880, Note_on_c, 0, 75, 96
2, 722880, Note_on_c, 0, 85, 96
2, 723840, Note_on_c, 0, 85, 0
2, 723840, Note_on_c, 0, 75, 0
2, 723840, Note_on_c, 0, 73, 0
2, 723840, Note_on_c, 0, 71, 96
2, 723840, Note_on_c, 0, 75, 96
2, 723840, Note_on_c, 0, 83, 96
2, 724320, Note_on_c, 0, 83, 0
2, 724320, Note_on_c, 0, 75, 0
2, 724320, Note_on_c, 0, 71, 0
2, 725120, Note_on_c, 0, 72, 96
2, 725120, Note_on_c, 0, 80, 96
2, 725120, Note_on_c, 0, 84, 96
2, 725439, Note_on_c, 0, 84, 0
2, 725439, Note_on_c, 0, 80, 0
2, 725439, Note_on_c, 0, 72, 0
2, 725439, Note_on_c, 0, 73, 96
2, 725439, Note_on_c, 0, 80, 96
2, 725439, Note_on_c, 0, 85, 96
2, 725760, Note_on_c, 0, 85, 0
2, 725760, Note_on_c, 0, 80, 0
2, 725760, Note_on_c, 0, 73, 0
2, 725760, Note_on_c, 0, 80, 96
2, 725760, Note_on_c, 0, 92, 96
2, 726399, Note_on_c, 0, 92, 0
2, 726399, Note_on_c, 0, 80, 0
2, 726399, Note_on_c, 0, 78, 96
2, 726399, Note_on_c, 0, 80, 96
2, 726399, Note_on_c, 0, 90, 96
2, 726720, Note_on_c, 0, 90, 0
2, 726720, Note_on_c, 0, 80, 0
2, 726720, Note_on_c, 0, 78, 0
2, 726720, Note_on_c, 0, 78, 96
2, 726720, Note_on_c, 0, 80, 96
2, 726720, Note_on_c, 0, 90, 96
2, 727359, Note_on_c, 0, 90, 0
2, 727359, Note_on_c, 0, 80, 0
2, 727359, Note_on_c, 0, 78, 0
2, 727359, Note_on_c, 0, 76, 96
2, 727359, Note_on_c, 0, 80, 96
2, 727359, Note_on_c, 0, 88, 96
2, 727680, Note_on_c, 0, 88, 0
2, 727680, Note_on_c, 0, 80, 0
2, 727680, Note_on_c, 0, 76, 0
2, 728960, Note_on_c, 0, 72, 96
2, 728960, Note_on_c, 0, 80, 96
2, 728960, Note_on_c, 0, 84, 96
2, 729279, Note_on_c, 0, 84, 0
2, 729279, Note_on_c, 0, 80, 0
2, 729279, Note_on_c, 0, 72, 0
2, 729279, Note_on_c, 0, 73, 96
2, 729279, Note_on_c, 0, 80, 96
2, 729279, Note_on_c, 0, 85, 96
2, 729600, Note_on_c, 0, 85, 0
2, 729600, Note_on_c, 0, 80, 0
2, 729600, Note_on_c, 0, 73, 0
2, 729600, Note_on_c, 0, 80, 96
2, 729600, Note_on_c, 0, 92, 96
2, 730239, Note_on_c, 0, 92, 0
2, 730239, Note_on_c, 0, 80, 0
2, 730239, Note_on_c, 0, 78, 96
2, 730239, Note_on_c, 0, 80, 96
2, 730239, Note_on_c, 0, 90, 96
2, 730560, Note_on_c, 0, 90, 0
2, 730560, Note_on_c, 0, 80, 0
2, 730560, Note_on_c, 0, 78, 0
2, 730560, Note_on_c, 0, 78, 96
2, 730560, Note_on_c, 0, 80, 96
2, 730560, Note_on_c, 0, 90, 96
2, 730880, Note_on_c, 0, 90, 0
2, 730880, Note_on_c, 0, 80, 0
2, 730880, Note_on_c, 0, 78, 0
2, 730880, Note_on_c, 0, 75, 96
2, 730880, Note_on_c, 0, 80, 96
2, 730880, Note_on_c, 0, 87, 96
2, 731199, Note_on_c, 0, 87, 0
2, 731199, Note_on_c, 0, 80, 0
2, 731199, Note_on_c, 0, 75, 0
2, 731199, Note_on_c, 0, 76, 96
2, 731199, Note_on_c, 0, 80, 96
2, 731199, Note_on_c, 0, 88, 96
2, 731520, Note_on_c, 0, 88, 0
2, 731520, Note_on_c, 0, 80, 0
2, 731520, Note_on_c, 0, 76, 0
2, 732800, Note_on_c, 0, 77, 96
2, 732800, Note_on_c, 0, 85, 96
2, 732800, Note_on_c, 0, 89, 96
2, 733119, Note_on_c, 0, 89, 0
2, 733119, Note_on_c, 0, 85, 0
2, 733119, Note_on_c, 0, 77, 0
2, 733119, Note_on_c, 0, 78, 96
2, 733119, Note_on_c, 0, 85, 96
2, 733119, Note_on_c, 0, 90, 96
2, 733440, Note_on_c, 0, 90, 0
2, 733440, Note_on_c, 0, 85, 0
2, 733440, Note_on_c, 0, 78, 0
2, 733440, Note_on_c, 0, 85, 96
2, 733440, Note_on_c, 0, 97, 96
2, 734079, Note_on_c, 0, 97, 0
2, 734079, Note_on_c, 0, 85, 0
2, 734079, Note_on_c, 0, 83, 96
2, 734079, Note_on_c, 0, 85, 96
2, 734079, Note_on_c, 0, 95, 96
2, 734400, Note_on_c, 0, 95, 0
2, 734400, Note_on_c, 0, 85, 0
2, 734400, Note_on_c, 0, 83, 0
2, 734400, Note_on_c, 0, 83, 96
2, 734400, Note_on_c, 0, 85, 96
2, 734400, Note_on_c, 0, 95, 96
2, 735039, Note_on_c, 0, 95, 0
2, 735039, Note_on_c, 0, 85, 0
2, 735039, Note_on_c, 0, 83, 0
2, 735039, Note_on_c, 0, 81, 96
2, 735039, Note_on_c, 0, 85, 96
2, 735039, Note_on_c, 0, 93, 96
2, 735360, Note_on_c, 0, 93, 0
2, 735360, Note_on_c, 0, 85, 0
2, 735360, Note_on_c, 0, 81, 0
2, 736640, Note_on_c, 0, 77, 96
2, 736640, Note_on_c, 0, 85, 96
2, 736640, Note_on_c, 0, 89, 96
2, 736959, Note_on_c, 0, 89, 0
2, 736959, Note_on_c, 0, 85, 0
2, 736959, Note_on_c, 0, 77, 0
2, 736959, Note_on_c, 0, 78, 96
2, 736959, Note_on_c, 0, 85, 96
2, 736959, Note_on_c, 0, 90, 96
2, 737280, Note_on_c, 0, 90, 0
2, 737280, Note_on_c, 0, 85, 0
2, 737280, Note_on_c, 0, 78, 0
2, 737280, Note_on_c, 0, 85, 96
2, 737280, Note_on_c, 0, 97, 96
2, 737919, Note_on_c, 0, 97, 0
2, 737919, Note_on_c, 0, 85, 0
2, 737919, Note_on_c, 0, 83, 96
2, 737919, Note_on_c, 0, 85, 96
2, 737919, Note_on_c, 0, 95, 96
2, 738240, Note_on_c, 0, 95, 0
2, 738240, Note_on_c, 0, 85, 0
2, 738240, Note_on_c, 0, 83, 0
2, 738240, Note_on_c, 0, 83, 96
2, 738240, Note_on_c, 0, 85, 96
2, 738240, Note_on_c, 0, 95, 96
2, 738560, Note_on_c, 0, 95, 0
2, 738560, Note_on_c, 0, 85, 0
2, 738560, Note_on_c, 0, 83, 0
2, 738560, Note_on_c, 0, 80, 96
2, 738560, Note_on_c, 0, 85, 96
2, 738560, Note_on_c, 0, 92, 96
2, 738879, Note_on_c, 0, 92, 0
2, 738879, Note_on_c, 0, 85, 0
2, 738879, Note_on_c, 0, 80, 0
2, 738879, Note_on_c, 0, 81, 96
2, 738879, Note_on_c, 0, 85, 96
2, 738879, Note_on_c, 0, 93, 96
2, 739200, Note_on_c, 0, 93, 0
2, 739200, Note_on_c, 0, 85, 0
2, 739200, Note_on_c, 0, 81, 0
2, 756960, Control_c, 0, 64, 127
2, 756960, Note_on_c, 0, 87, 57
2, 756960, Note_on_c, 0, 90, 57
2, 756960, Note_on_c, 0, 92, 57
2, 757119, Note_on_c, 0, 92, 0
2, 757119, Note_on_c, 0, 90, 0
2, 757119, Note_on_c, 0, 87, 0
2, 757119, Note_on_c, 0, 85, 57
2, 757280, Note_on_c, 0, 85, 0
2, 757280, Note_on_c, 0, 84, 57
2, 757440, Note_on_c, 0, 84, 0
2, 757440, Note_on_c, 0, 75, 57
2, 757440, Note_on_c, 0, 78, 57
2, 757440, Note_on_c, 0, 80, 57
2, 757599, Note_on_c, 0, 80, 0
2, 757599, Note_on_c, 0, 78, 0
2, 757599, Note_on_c, 0, 75, 0
2, 757599, Note_on_c, 0, 73, 57
2, 757760, Note_on_c, 0, 73, 0
2, 757760, Note_on_c, 0, 72, 57
2, 757920, Note_on_c, 0, 72, 0
2, 757920, Note_on_c, 0, 63, 57
2, 757920, Note_on_c, 0, 66, 57
2, 757920, Note_on_c, 0, 68, 57
2, 758079, Note_on_c, 0, 68, 0
2, 758079, Note_on_c, 0, 66, 0
2, 758079, Note_on_c, 0, 63, 0
2, 758079, Note_on_c, 0, 61, 57
2, 758240, Note_on_c, 0, 61, 0
2, 758240, Note_on_c, 0, 60, 57
2, 758400, Note_on_c, 0, 60, 0
2, 758880, Control_c, 0, 64, 0
2, 760320, Control_c, 0, 64, 127
2, 760320, Note_on_c, 0, 61, 57
2, 760479, Note_on_c, 0, 61, 0
2, 760479, Note_on_c, 0, 68, 57
2, 760640, Note_on_c, 0, 68, 0
2, 760640, Note_on_c, 0, 73, 57
2, 760800, Note_on_c, 0, 73, 0
2, 760800, Note_on_c, 0, 80, 57
2, 760959, Note_on_c, 0, 80, 0
2, 760959, Note_on_c, 0, 85, 57
2, 761120, Note_on_c, 0, 85, 0
2, 761120, Control_c, 0, 64, 0
2, 761120, Note_on_c, 0, 92, 57
2, 761280, Note_on_c, 0, 92, 0
2, 764640, Control_c, 0, 64, 127
2, 764640, Note_on_c, 0, 89, 57
2, 764640, Note_on_c, 0, 92, 57
2, 764640, Note_on_c, 0, 94, 57
2, 764799, Note_on_c, 0, 94, 0
2, 764799, Note_on_c, 0, 92, 0
2, 764799, Note_on_c, 0, 89, 0
2, 764799, Note_on_c, 0, 87, 57
2, 764960, Note_on_c, 0, 87, 0
2, 764960, Note_on_c, 0, 86, 57
2, 765120, Note_on_c, 0, 86, 0
2, 765120, Note_on_c, 0, 77, 57
2, 765120, Note_on_c, 0, 80, 57
2, 765120, Note_on_c, 0, 82, 57
2, 765279, Note_on_c, 0, 82, 0
2, 765279, Note_on_c, 0, 80, 0
2, 765279, Note_on_c, 0, 77, 0
2, 765279, Note_on_c, 0, 75, 57
2, 765440, Note_on_c, 0, 75, 0
2, 765440, Note_on_c, 0, 74, 57
2, 765600, Note_on_c, 0, 74, 0
2, 765600, Note_on_c, 0, 65, 57
2, 765600, Note_on_c, 0, 68, 57
2, 765600, Note_on_c, 0, 70, 57
2, 765759, Note_on_c, 0, 70, 0
2, 765759, Note_on_c, 0, 68, 0
2, 765759, Note_on_c, 0, 65, 0
2, 765759, Note_on_c, 0, 63, 57
2, 765920, Note_on_c, 0, 63, 0
2, 765920, Note_on_c, 0, 62, 57
2, 766080, Note_on_c, 0, 62, 0
2, 766560, Control_c, 0, 64, 0
2, 768000, Control_c, 0, 64, 127
2, 768000, Note_on_c, 0, 63, 57
2, 768159, Note_on_c, 0, 63, 0
2, 768159, Note_on_c, 0, 70, 57
2, 768320, Note_on_c, 0, 70, 0
2, 768320, Note_on_c, 0, 75, 57
2, 768480, Note_on_c, 0, 75, 0
2, 768480, Note_on_c, 0, 82, 57
2, 768639, Note_on_c, 0, 82, 0
2, 768639, Note_on_c, 0, 87, 57
2, 768800, Note_on_c, 0, 87, 0
2, 768800, Control_c, 0, 64, 0
2, 768800, Note_on_c, 0, 94, 57
2, 768960, Note_on_c, 0, 94, 0
2, 770400, Control_c, 0, 64, 127
2, 770400, Note_on_c, 0, 79, 57
2, 770400, Note_on_c, 0, 82, 57
2, 770400, Note_on_c, 0, 84, 57
2, 770559, Note_on_c, 0, 84, 0
2, 770559, Note_on_c, 0, 82, 0
2, 770559, Note_on_c, 0, 79, 0
2, 770559, Note_on_c, 0, 77, 57
2, 770720, Note_on_c, 0, 77, 0
2, 770720, Note_on_c, 0, 76, 57
2, 770880, Note_on_c, 0, 76, 0
2, 770880, Note_on_c, 0, 70, 57
2, 770880, Note_on_c, 0, 72, 57
2, 771039, Note_on_c, 0, 72, 0
2, 771039, Note_on_c, 0, 70, 0
2, 771039, Note_on_c, 0, 68, 57
2, 771200, Note_on_c, 0, 68, 0
2, 771200, Note_on_c, 0, 67, 57
2, 771360, Note_on_c, 0, 67, 0
2, 771360, Note_on_c, 0, 58, 57
2, 771360, Note_on_c, 0, 60, 57
2, 771519, Note_on_c, 0, 60, 0
2, 771519, Note_on_c, 0, 58, 0
2, 771519, Note_on_c, 0, 61, 57
2, 771680, Note_on_c, 0, 61, 0
2, 771680, Note_on_c, 0, 60, 57
2, 771840, Note_on_c, 0, 60, 0
2, 771840, Note_on_c, 0, 53, 57
2, 771840, Note_on_c, 0, 56, 57
2, 771840, Note_on_c, 0, 59, 57
2, 771999, Note_on_c, 0, 59, 0
2, 771999, Note_on_c, 0, 56, 0
2, 771999, Note_on_c, 0, 53, 0
2, 771999, Note_on_c, 0, 60, 57
2, 772160, Note_on_c, 0, 60, 0
2, 772160, Note_on_c, 0, 61, 57
2, 772320, Note_on_c, 0, 61, 0
2, 772320, Note_on_c, 0, 44, 57
2, 772320, Note_on_c, 0, 49, 57
2, 772479, Note_on_c, 0, 49, 0
2, 772479, Note_on_c, 0, 44, 0
2, 772479, Note_on_c, 0, 47, 57
2, 772640, Note_on_c, 0, 47, 0
2, 772640, Control_c, 0, 64, 0
2, 772640, Note_on_c, 0, 48, 57
2, 772800, Note_on_c, 0, 48, 0
2, 774240, Control_c, 0, 64, 127
2, 774240, Note_on_c, 0, 81, 57
2, 774240, Note_on_c, 0, 84, 57
2, 774240, Note_on_c, 0, 86, 57
2, 774399, Note_on_c, 0, 86, 0
2, 774399, Note_on_c, 0, 84, 0
2, 774399, Note_on_c, 0, 81, 0
2, 774399, Note_on_c, 0, 79, 57
2, 774560, Note_on_c, 0, 79, 0
2, 774560, Note_on_c, 0, 78, 57
2, 774720, Note_on_c, 0, 78, 0
2, 774720, Note_on_c, 0, 72, 57
2, 774720, Note_on_c, 0, 74, 57
2, 774879, Note_on_c, 0, 74, 0
2, 774879, Note_on_c, 0, 72, 0
2, 774879, Note_on_c, 0, 70, 57
2, 775040, Note_on_c, 0, 70, 0
2, 775040, Note_on_c, 0, 69, 57
2, 775200, Note_on_c, 0, 69, 0
2, 775200, Note_on_c, 0, 60, 57
2, 775200, Note_on_c, 0, 62, 57
2, 775359, Note_on_c, 0, 62, 0
2, 775359, Note_on_c, 0, 60, 0
2, 775359, Note_on_c, 0, 63, 57
2, 775520, Note_on_c, 0, 63, 0
2, 775520, Note_on_c, 0, 62, 57
2, 775680, Note_on_c, 0, 62, 0
2, 775680, Note_on_c, 0, 55, 57
2, 775680, Note_on_c, 0, 58, 57
2, 775680, Note_on_c, 0, 61, 57
2, 775839, Note_on_c, 0, 61, 0
2, 775839, Note_on_c, 0, 58, 0
2, 775839, Note_on_c, 0, 55, 0
2, 775839, Note_on_c, 0, 62, 57
2, 776000, Note_on_c, 0, 62, 0
2, 776000, Note_on_c, 0, 63, 57
2, 776160, Note_on_c, 0, 63, 0
2, 776160, Note_on_c, 0, 46, 57
2, 776160, Note_on_c, 0, 51, 57
2, 776319, Note_on_c, 0, 51, 0
2, 776319, Note_on_c, 0, 46, 0
2, 776319, Note_on_c, 0, 49, 57
2, 776480, Note_on_c, 0, 49, 0
2, 776480, Control_c, 0, 64, 0
2, 776480, Note_on_c, 0, 50, 57
2, 776640, Note_on_c, 0, 50, 0
2, 776640, Control_c, 0, 64, 127
2, 776760, Note_on_c, 0, 63, 57
2, 776880, Note_on_c, 0, 63, 0
2, 776880, Note_on_c, 0, 75, 57
2, 777000, Note_on_c, 0, 75, 0
2, 777000, Note_on_c, 0, 70, 57
2, 777120, Note_on_c, 0, 70, 0
2, 777240, Note_on_c, 0, 75, 57
2, 777360, Note_on_c, 0, 75, 0
2, 777360, Note_on_c, 0, 82, 57
2, 777360, Note_on_c, 0, 87, 57
2, 777480, Note_on_c, 0, 87, 0
2, 777480, Note_on_c, 0, 82, 0
2, 777480, Control_c, 0, 64, 0
2, 777480, Note_on_c, 0, 75, 57
2, 777600, Note_on_c, 0, 75, 0
2, 777720, Control_c, 0, 64, 127
2, 777720, Note_on_c, 0, 68, 57
2, 777840, Note_on_c, 0, 68, 0
2, 777840, Note_on_c, 0, 80, 57
2, 777960, Note_on_c, 0, 80, 0
2, 777960, Note_on_c, 0, 75, 57
2, 778080, Note_on_c, 0, 75, 0
2, 778200, Note_on_c, 0, 80, 57
2, 778320, Note_on_c, 0, 80, 0
2, 778320, Note_on_c, 0, 87, 57
2, 778320, Note_on_c, 0, 92, 57
2, 778440, Note_on_c, 0, 92, 0
2, 778440, Note_on_c, 0, 87, 0
2, 778440, Control_c, 0, 64, 0
2, 778440, Note_on_c, 0, 80, 57
2, 778560, Note_on_c, 0, 80, 0
2, 778560, Control_c, 0, 64, 127
2, 778680, Note_on_c, 0, 65, 57
2, 778800, Note_on_c, 0, 65, 0
2, 778800, Note_on_c, 0, 77, 57
2, 778920, Note_on_c, 0, 77, 0
2, 778920, Note_on_c, 0, 72, 57
2, 779040, Note_on_c, 0, 72, 0
2, 779160, Note_on_c, 0, 77, 57
2, 779280, Note_on_c, 0, 77, 0
2, 779280, Note_on_c, 0, 84, 57
2, 779280, Note_on_c, 0, 89, 57
2, 779400, Note_on_c, 0, 89, 0
2, 779400, Note_on_c, 0, 84, 0
2, 779400, Control_c, 0, 64, 0
2, 779400, Note_on_c, 0, 77, 57
2, 779520, Note_on_c, 0, 77, 0
2, 779520, Control_c, 0, 64, 127
2, 779640, Note_on_c, 0, 70, 57
2, 779760, Note_on_c, 0, 70, 0
2, 779760, Note_on_c, 0, 82, 57
2, 779880, Note_on_c, 0, 82, 0
2, 779880, Note_on_c, 0, 77, 57
2, 780000, Note_on_c, 0, 77, 0
2, 780120, Note_on_c, 0, 82, 57
2, 780240, Note_on_c, 0, 82, 0
2, 780240, Note_on_c, 0, 89, 57
2, 780240, Note_on_c, 0, 94, 57
2, 780360, Note_on_c, 0, 94, 0
2, 780360, Note_on_c, 0, 89, 0
2, 780360, Control_c, 0, 64, 0
2, 780360, Note_on_c, 0, 82, 57
2, 780480, Note_on_c, 0, 82, 0
2, 780720, Note_on_c, 0, 70, 57
2, 780720, Note_on_c, 0, 82, 57
2, 780840, Note_on_c, 0, 82, 0
2, 780840, Note_on_c, 0, 70, 0
2, 780840, Note_on_c, 0, 78, 57
2, 780960, Note_on_c, 0, 78, 0
2, 781200, Note_on_c, 0, 82, 57
2, 781200, Note_on_c, 0, 94, 57
2, 781320, Note_on_c, 0, 94, 0
2, 781320, Note_on_c, 0, 82, 0
2, 781320, Note_on_c, 0, 90, 57
2, 781440, Note_on_c, 0, 90, 0
2, 781680, Note_on_c, 0, 71, 57
2, 781680, Note_on_c, 0, 83, 57
2, 781800, Note_on_c, 0, 83, 0
2, 781800, Note_on_c, 0, 71, 0
2, 781800, Note_on_c, 0, 78, 57
2, 781920, Note_on_c, 0, 78, 0
2, 782160, Note_on_c, 0, 83, 57
2, 782160, Note_on_c, 0, 95, 57
2, 782280, Note_on_c, 0, 95, 0
2, 782280, Note_on_c, 0, 83, 0
2, 782280, Note_on_c, 0, 90, 57
2, 782400, Note_on_c, 0, 90, 0
2, 782640, Note_on_c, 0, 71, 57
2, 782640, Note_on_c, 0, 83, 57
2, 782760, Note_on_c, 0, 83, 0
2, 782760, Note_on_c, 0, 71, 0
2, 782760, Note_on_c, 0, 79, 57
2, 782880, Note_on_c, 0, 79, 0
2, 783120, Note_on_c, 0, 83, 57
2, 783120, Note_on_c, 0, 95, 57
2, 783240, Note_on_c, 0, 95, 0
2, 783240, Note_on_c, 0, 83, 0
2, 783240, Note_on_c, 0, 91, 57
2, 783360, Note_on_c, 0, 91, 0
2, 783600, Note_on_c, 0, 72, 57
2, 783600, Note_on_c, 0, 84, 57
2, 783720, Note_on_c, 0, 84, 0
2, 783720, Note_on_c, 0, 72, 0
2, 783720, Note_on_c, 0, 79, 57
2, 783840, Note_on_c, 0, 79, 0
2, 784080, Note_on_c, 0, 84, 57
2, 784080, Note_on_c, 0, 96, 57
2, 784200, Note_on_c, 0, 96, 0
2, 784200, Note_on_c, 0, 84, 0
2, 784200, Note_on_c, 0, 91, 57
2, 784320, Note_on_c, 0, 91, 0
2, 784440, Control_c, 0, 64, 127
2, 784440, Note_on_c, 0, 66, 57
2, 784560, Note_on_c, 0, 66, 0
2, 784560, Note_on_c, 0, 78, 57
2, 784680, Note_on_c, 0, 78, 0
2, 784680, Note_on_c, 0, 73, 57
2, 784800, Note_on_c, 0, 73, 0
2, 784920, Note_on_c, 0, 78, 57
2, 785040, Note_on_c, 0, 78, 0
2, 785040, Note_on_c, 0, 85, 57
2, 785040, Note_on_c, 0, 90, 57
2, 785160, Note_on_c, 0, 90, 0
2, 785160, Note_on_c, 0, 85, 0
2, 785160, Control_c, 0, 64, 0
2, 785160, Note_on_c, 0, 78, 57
2, 785280, Note_on_c, 0, 78, 0
2, 785400, Control_c, 0, 64, 127
2, 785400, Note_on_c, 0, 71, 57
2, 785520, Note_on_c, 0, 71, 0
2, 785520, Note_on_c, 0, 83, 57
2, 785640, Note_on_c, 0, 83, 0
2, 785640, Note_on_c, 0, 78, 57
2, 785760, Note_on_c, 0, 78, 0
2, 785880, Note_on_c, 0, 83, 57
2, 786000, Note_on_c, 0, 83, 0
2, 786000, Note_on_c, 0, 90, 57
2, 786000, Note_on_c, 0, 95, 57
2, 786120, Note_on_c, 0, 95, 0
2, 786120, Note_on_c, 0, 90, 0
2, 786120, Control_c, 0, 64, 0
2, 786120, Note_on_c, 0, 83, 57
2, 786240, Note_on_c, 0, 83, 0
2, 786360, Control_c, 0, 64, 127
2, 786360, Note_on_c, 0, 67, 57
2, 786480, Note_on_c, 0, 67, 0
2, 786480, Note_on_c, 0, 79, 57
2, 786600, Note_on_c, 0, 79, 0
2, 786600, Note_on_c, 0, 74, 57
2, 786720, Note_on_c, 0, 74, 0
2, 786840, Note_on_c, 0, 79, 57
2, 786960, Note_on_c, 0, 79, 0
2, 786960, Note_on_c, 0, 86, 57
2, 786960, Note_on_c, 0, 91, 57
2, 787080, Note_on_c, 0, 91, 0
2, 787080, Note_on_c, 0, 86, 0
2, 787080, Control_c, 0, 64, 0
2, 787080, Note_on_c, 0, 79, 57
2, 787200, Note_on_c, 0, 79, 0
2, 787320, Control_c, 0, 64, 127
2, 787320, Note_on_c, 0, 72, 57
2, 787440, Note_on_c, 0, 72, 0
2, 787440, Note_on_c, 0, 84, 57
2, 787560, Note_on_c, 0, 84, 0
2, 787560, Note_on_c, 0, 79, 57
2, 787680, Note_on_c, 0, 79, 0
2, 787800, Note_on_c, 0, 84, 57
2, 787920, Note_on_c, 0, 84, 0
2, 787920, Note_on_c, 0, 91, 57
2, 787920, Note_on_c, 0, 96, 57
2, 788040, Note_on_c, 0, 96, 0
2, 788040, Note_on_c, 0, 91, 0
2, 788040, Control_c, 0, 64, 0
2, 788040, Note_on_c, 0, 84, 57
2, 788160, Note_on_c, 0, 84, 0
2, 788400, Control_c, 0, 64, 127
2, 788400, Note_on_c, 0, 73, 57
2, 788400, Note_on_c, 0, 85, 57
2, 788520, Note_on_c, 0, 85, 0
2, 788520, Note_on_c, 0, 73, 0
2, 788520, Note_on_c, 0, 81, 57
2, 788640, Note_on_c, 0, 81, 0
2, 788880, Note_on_c, 0, 85, 57
2, 788880, Note_on_c, 0, 97, 57
2, 789000, Note_on_c, 0, 97, 0
2, 789000, Note_on_c, 0, 85, 0
2, 789000, Control_c, 0, 64, 0
2, 789000, Note_on_c, 0, 93, 57
2, 789120, Note_on_c, 0, 93, 0
2, 789360, Control_c, 0, 64, 127
2, 789360, Note_on_c, 0, 74, 57
2, 789360, Note_on_c, 0, 86, 57
2, 789480, Note_on_c, 0, 86, 0
2, 789480, Note_on_c, 0, 74, 0
2, 789480, Note_on_c, 0, 81, 57
2, 789600, Note_on_c, 0, 81, 0
2, 789840, Note_on_c, 0, 86, 57
2, 789840, Note_on_c, 0, 98, 57
2, 789960, Note_on_c, 0, 98, 0
2, 789960, Note_on_c, 0, 86, 0
2, 789960, Control_c, 0, 64, 0
2, 789960, Note_on_c, 0, 93, 57
2, 790080, Note_on_c, 0, 93, 0
2, 790320, Control_c, 0, 64, 127
2, 790320, Note_on_c, 0, 74, 57
2, 790320, Note_on_c, 0, 86, 57
2, 790440, Note_on_c, 0, 86, 0
2, 790440, Note_on_c, 0, 74, 0
2, 790440, Note_on_c, 0, 82, 57
2, 790560, Note_on_c, 0, 82, 0
2, 790800, Note_on_c, 0, 86, 57
2, 790800, Note_on_c, 0, 98, 57
2, 790920, Note_on_c, 0, 98, 0
2, 790920, Note_on_c, 0, 86, 0
2, 790920, Control_c, 0, 64, 0
2, 790920, Note_on_c, 0, 94, 57
2, 791040, Note_on_c, 0, 94, 0
2, 791280, Control_c, 0, 64, 127
2, 791280, Note_on_c, 0, 75, 57
2, 791280, Note_on_c, 0, 87, 57
2, 791400, Note_on_c, 0, 87, 0
2, 791400, Note_on_c, 0, 75, 0
2, 791400, Note_on_c, 0, 82, 57
2, 791520, Note_on_c, 0, 82, 0
2, 791760, Note_on_c, 0, 87, 57
2, 791760, Note_on_c, 0, 99, 57
2, 791880, Note_on_c, 0, 99, 0
2, 791880, Note_on_c, 0, 87, 0
2, 791880, Control_c, 0, 64, 0
2, 791880, Note_on_c, 0, 94, 57
2, 792000, Note_on_c, 0, 94, 0
2, 792120, Control_c, 0, 64, 127
2, 792120, Note_on_c, 0, 82, 96
2, 792240, Note_on_c, 0, 82, 0
2, 792240, Note_on_c, 0, 85, 96
2, 792360, Note_on_c, 0, 85, 0
2, 792360, Note_on_c, 0, 88, 96
2, 792480, Note_on_c, 0, 88, 0
2, 792480, Note_on_c, 0, 94, 96
2, 792480, Note_on_c, 0, 100, 96
2, 792600, Note_on_c, 0, 100, 0
2, 792600, Note_on_c, 0, 94, 0
2, 792600, Note_on_c, 0, 88, 96
2, 792720, Note_on_c, 0, 88, 0
2, 792720, Note_on_c, 0, 82, 96
2, 792720, Note_on_c, 0, 88, 96
2, 792840, Note_on_c, 0, 88, 0
2, 792840, Note_on_c, 0, 82, 0
2, 792840, Note_on_c, 0, 76, 96
2, 792960, Note_on_c, 0, 76, 0
2, 793080, Note_on_c, 0, 70, 96
2, 793200, Note_on_c, 0, 70, 0
2, 793200, Note_on_c, 0, 73, 96
2, 793320, Note_on_c, 0, 73, 0
2, 793320, Note_on_c, 0, 76, 96
2, 793440, Note_on_c, 0, 76, 0
2, 793440, Note_on_c, 0, 82, 96
2, 793440, Note_on_c, 0, 88, 96
2, 793560, Note_on_c, 0, 88, 0
2, 793560, Note_on_c, 0, 82, 0
2, 793560, Note_on_c, 0, 76, 96
2, 793680, Note_on_c, 0, 76, 0
2, 793680, Note_on_c, 0, 70, 96
2, 793680, Note_on_c, 0, 76, 96
2, 793800, Note_on_c, 0, 76, 0
2, 793800, Note_on_c, 0, 70, 0
2, 793800, Control_c, 0, 64, 0
2, 793800, Note_on_c, 0, 64, 96
2, 793920, Note_on_c, 0, 64, 0
2, 794040, Control_c, 0, 64, 127
2, 794040, Note_on_c, 0, 82, 96
2, 794160, Note_on_c, 0, 82, 0
2, 794160, Note_on_c, 0, 85, 96
2, 794280, Note_on_c, 0, 85, 0
2, 794280, Note_on_c, 0, 89, 96
2, 794400, Note_on_c, 0, 89, 0
2, 794400, Note_on_c, 0, 94, 96
2, 794400, Note_on_c, 0, 101, 96
2, 794520, Note_on_c, 0, 101, 0
2, 794520, Note_on_c, 0, 94, 0
2, 794520, Note_on_c, 0, 89, 96
2, 794640, Note_on_c, 0, 89, 0
2, 794640, Note_on_c, 0, 82, 96
2, 794640, Note_on_c, 0, 89, 96
2, 794760, Note_on_c, 0, 89, 0
2, 794760, Note_on_c, 0, 82, 0
2, 794760, Note_on_c, 0, 77, 96
2, 794880, Note_on_c, 0, 77, 0
2, 795000, Note_on_c, 0, 70, 96
2, 795120, Note_on_c, 0, 70, 0
2, 795120, Note_on_c, 0, 73, 96
2, 795240, Note_on_c, 0, 73, 0
2, 795240, Note_on_c, 0, 77, 96
2, 795360, Note_on_c, 0, 77, 0
2, 795360, Note_on_c, 0, 82, 96
2, 795360, Note_on_c, 0, 89, 96
2, 795480, Note_on_c, 0, 89, 0
2, 795480, Note_on_c, 0, 82, 0
2, 795480, Note_on_c, 0, 77, 96
2, 795600, Note_on_c, 0, 77, 0
2, 795600, Note_on_c, 0, 70, 96
2, 795600, Note_on_c, 0, 77, 96
2, 795720, Note_on_c, 0, 77, 0
2, 795720, Note_on_c, 0, 70, 0
2, 795720, Control_c, 0, 64, 0
2, 795720, Note_on_c, 0, 65, 96
2, 795840, Note_on_c, 0, 65, 0
2, 795960, Note_on_c, 0, 89, 96
2, 796080, Note_on_c, 0, 89, 0
2, 796080, Note_on_c, 0, 94, 96
2, 796080, Note_on_c, 0, 97, 96
2, 796080, Note_on_c, 0, 101, 96
2, 796200, Note_on_c, 0, 101, 0
2, 796200, Note_on_c, 0, 97, 0
2, 796200, Note_on_c, 0, 94, 0
2, 796200, Note_on_c, 0, 89, 96
2, 796320, Note_on_c, 0, 89, 0
2, 796440, Note_on_c, 0, 85, 96
2, 796560, Note_on_c, 0, 85, 0
2, 796560, Note_on_c, 0, 89, 96
2, 796560, Note_on_c, 0, 94, 96
2, 796560, Note_on_c, 0, 97, 96
2, 796680, Note_on_c, 0, 97, 0
2, 796680, Note_on_c, 0, 94, 0
2, 796680, Note_on_c, 0, 89, 0
2, 796680, Note_on_c, 0, 85, 96
2, 796800, Note_on_c, 0, 85, 0
2, 796920, Note_on_c, 0, 82, 96
2, 797040, Note_on_c, 0, 82, 0
2, 797040, Note_on_c, 0, 85, 96
2, 797040, Note_on_c, 0, 89, 96
2, 797040, Note_on_c, 0, 94, 96
2, 797160, Note_on_c, 0, 94, 0
2, 797160, Note_on_c, 0, 89, 0
2, 797160, Note_on_c, 0, 85, 0
2, 797160, Note_on_c, 0, 82, 96
2, 797280, Note_on_c, 0, 82, 0
2, 797400, Note_on_c, 0, 77, 96
2, 797520, Note_on_c, 0, 77, 0
2, 797520, Note_on_c, 0, 82, 96
2, 797520, Note_on_c, 0, 85, 96
2, 797520, Note_on_c, 0, 89, 96
2, 797640, Note_on_c, 0, 89, 0
2, 797640, Note_on_c, 0, 85, 0
2, 797640, Note_on_c, 0, 82, 0
2, 797640, Note_on_c, 0, 77, 96
2, 797760, Note_on_c, 0, 77, 0
2, 797880, Note_on_c, 0, 73, 96
2, 798000, Note_on_c, 0, 73, 0
2, 798000, Note_on_c, 0, 77, 96
2, 798000, Note_on_c, 0, 82, 96
2, 798000, Note_on_c, 0, 85, 96
2, 798120, Note_on_c, 0, 85, 0
2, 798120, Note_on_c, 0, 82, 0
2, 798120, Note_on_c, 0, 77, 0
2, 798120, Note_on_c, 0, 73, 96
2, 798240, Note_on_c, 0, 73, 0
2, 798360, Note_on_c, 0, 70, 96
2, 798480, Note_on_c, 0, 70, 0
2, 798480, Note_on_c, 0, 73, 96
2, 798480, Note_on_c, 0, 77, 96
2, 798480, Note_on_c, 0, 82, 96
2, 798600, Note_on_c, 0, 82, 0
2, 798600, Note_on_c, 0, 77, 0
2, 798600, Note_on_c, 0, 73, 0
2, 798600, Note_on_c, 0, 70, 96
2, 798720, Note_on_c, 0, 70, 0
2, 798840, Note_on_c, 0, 65, 96
2, 798960, Note_on_c, 0, 65, 0
2, 798960, Note_on_c, 0, 70, 96
2, 798960, Note_on_c, 0, 73, 96
2, 798960, Note_on_c, 0, 77, 96
2, 799080, Note_on_c, 0, 77, 0
2, 799080, Note_on_c, 0, 73, 0
2, 799080, Note_on_c, 0, 70, 0
2, 799080, Note_on_c, 0, 65, 96
2, 799200, Note_on_c, 0, 65, 0
2, 799320, Note_on_c, 0, 61, 96
2, 799440, Note_on_c, 0, 61, 0
2, 799440, Note_on_c, 0, 65, 96
2, 799440, Note_on_c, 0, 70, 96
2, 799440, Note_on_c, 0, 73, 96
2, 799560, Note_on_c, 0, 73, 0
2, 799560, Note_on_c, 0, 70, 0
2, 799560, Note_on_c, 0, 65, 0
2, 799560, Note_on_c, 0, 61, 96
2, 799680, Note_on_c, 0, 61, 0
2, 799800, Note_on_c, 0, 58, 96
2, 799920, Note_on_c, 0, 58, 0
2, 799920, Note_on_c, 0, 61, 96
2, 799920, Note_on_c, 0, 65, 96
2, 799920, Note_on_c, 0, 70, 96
2, 800040, Note_on_c, 0, 70, 0
2, 800040, Note_on_c, 0, 65, 0
2, 800040, Note_on_c, 0, 61, 0
2, 800040, Note_on_c, 0, 58, 96
2, 800160, Note_on_c, 0, 58, 0
2, 800280, Note_on_c, 0, 53, 96
2, 800400, Note_on_c, 0, 53, 0
2, 800400, Note_on_c, 0, 58, 96
2, 800400, Note_on_c, 0, 61, 96
2, 800400, Note_on_c, 0, 65, 96
2, 800520, Note_on_c, 0, 65, 0
2, 800520, Note_on_c, 0, 61, 0
2, 800520, Note_on_c, 0, 58, 0
2, 800520, Note_on_c, 0, 53, 96
2, 800640, Note_on_c, 0, 53, 0
2, 800760, Note_on_c, 0, 49, 96
2, 800880, Note_on_c, 0, 49, 0
2, 800880, Note_on_c, 0, 53, 96
2, 800880, Note_on_c, 0, 58, 96
2, 800880, Note_on_c, 0, 61, 96
2, 801000, Note_on_c, 0, 61, 0
2, 801000, Note_on_c, 0, 58, 0
2, 801000, Note_on_c, 0, 53, 0
2, 801000, Note_on_c, 0, 49, 96
2, 801120, Note_on_c, 0, 49, 0
2, 801240, Note_on_c, 0, 46, 96
2, 801360, Note_on_c, 0, 46, 0
2, 801360, Note_on_c, 0, 49, 96
2, 801360, Note_on_c, 0, 53, 96
2, 801480, Note_on_c, 0, 53, 0
2, 801480, Note_on_c, 0, 49, 0
2, 801480, Note_on_c, 0, 46, 96
2, 801600, Note_on_c, 0, 46, 0
2, 801720, Note_on_c, 0, 46, 96
2, 801840, Note_on_c, 0, 46, 0
2, 801840, Note_on_c, 0, 49, 96
2, 801840, Note_on_c, 0, 52, 96
2, 801960, Note_on_c, 0, 52, 0
2, 801960, Note_on_c, 0, 49, 0
2, 801960, Note_on_c, 0, 46, 96
2, 802080, Note_on_c, 0, 46, 0
2, 802200, Note_on_c, 0, 46, 96
2, 802320, Note_on_c, 0, 46, 0
2, 802320, Note_on_c, 0, 49, 96
2, 802320, Note_on_c, 0, 53, 96
2, 802440, Note_on_c, 0, 53, 0
2, 802440, Note_on_c, 0, 49, 0
2, 802440, Note_on_c, 0, 46, 96
2, 802560, Note_on_c, 0, 46, 0
2, 802680, Note_on_c, 0, 46, 96
2, 802800, Note_on_c, 0, 46, 0
2, 802800, Note_on_c, 0, 49, 96
2, 802800, Note_on_c, 0, 52, 96
2, 802920, Note_on_c, 0, 52, 0
2, 802920, Note_on_c, 0, 49, 0
2, 802920, Note_on_c, 0, 46, 96
2, 803040, Note_on_c, 0, 46, 0
2, 803160, Note_on_c, 0, 46, 96
2, 803280, Note_on_c, 0, 46, 0
2, 803280, Note_on_c, 0, 49, 96
2, 803280, Note_on_c, 0, 53, 96
2, 803400, Note_on_c, 0, 53, 0
2, 803400, Note_on_c, 0, 49, 0
2, 803400, Note_on_c, 0, 46, 96
2, 803520, Note_on_c, 0, 46, 0
2, 803640, Note_on_c, 0, 40, 96
2, 803760, Note_on_c, 0, 40, 0
2, 803760, Note_on_c, 0, 46, 96
2, 803760, Note_on_c, 0, 48, 96
2, 803880, Note_on_c, 0, 48, 0
2, 803880, Note_on_c, 0, 46, 0
2, 803880, Note_on_c, 0, 40, 96
2, 804000, Note_on_c, 0, 40, 0
2, 804120, Note_on_c, 0, 41, 96
2, 804240, Note_on_c, 0, 41, 0
2, 804240, Note_on_c, 0, 46, 96
2, 804240, Note_on_c, 0, 49, 96
2, 804360, Note_on_c, 0, 49, 0
2, 804360, Note_on_c, 0, 46, 0
2, 804360, Note_on_c, 0, 41, 96
2, 804480, Note_on_c, 0, 41, 0
2, 804600, Note_on_c, 0, 40, 96
2, 804720, Note_on_c, 0, 40, 0
2, 804720, Note_on_c, 0, 46, 96
2, 804720, Note_on_c, 0, 48, 96
2, 804840, Note_on_c, 0, 48, 0
2, 804840, Note_on_c, 0, 46, 0
2, 804840, Note_on_c, 0, 40, 96
2, 804960, Note_on_c, 0, 40, 0
2, 805080, Note_on_c, 0, 41, 96
2, 805200, Note_on_c, 0, 41, 0
2, 805200, Note_on_c, 0, 46, 96
2, 805200, Note_on_c, 0, 49, 96
2, 805320, Note_on_c, 0, 49, 0
2, 805320, Note_on_c, 0, 46, 0
2, 805320, Note_on_c, 0, 41, 96
2, 805440, Note_on_c, 0, 41, 0
2, 805440, Note_on_c, 0, 28, 96
2, 805463, Note_on_c, 0, 28, 0
2, 805560, Note_on_c, 0, 40, 96
2, 805583, Note_on_c, 0, 40, 0
2, 805680, Note_on_c, 0, 29, 96
2, 805703, Note_on_c, 0, 29, 0
2, 805800, Note_on_c, 0, 41, 96
2, 805823, Note_on_c, 0, 41, 0
2, 805920, Note_on_c, 0, 28, 96
2, 805943, Note_on_c, 0, 28, 0
2, 806040, Note_on_c, 0, 40, 96
2, 806063, Note_on_c, 0, 40, 0
2, 806160, Note_on_c, 0, 29, 96
2, 806183, Note_on_c, 0, 29, 0
2, 806280, Note_on_c, 0, 41, 96
2, 806303, Note_on_c, 0, 41, 0
2, 806400, Note_on_c, 0, 32, 96
2, 806423, Note_on_c, 0, 32, 0
2, 806520, Note_on_c, 0, 44, 96
2, 806543, Note_on_c, 0, 44, 0
2, 806640, Note_on_c, 0, 33, 96
2, 806663, Note_on_c, 0, 33, 0
2, 806760, Note_on_c, 0, 45, 96
2, 806783, Note_on_c, 0, 45, 0
2, 806880, Note_on_c, 0, 32, 96
2, 806903, Note_on_c, 0, 32, 0
2, 807000, Note_on_c, 0, 44, 96
2, 807023, Note_on_c, 0, 44, 0
2, 807120, Note_on_c, 0, 33, 96
2, 807143, Note_on_c, 0, 33, 0
2, 807240, Note_on_c, 0, 45, 96
2, 807263, Note_on_c, 0, 45, 0
2, 807360, Note_on_c, 0, 35, 96
2, 807383, Note_on_c, 0, 35, 0
2, 807480, Note_on_c, 0, 47, 96
2, 807503, Note_on_c, 0, 47, 0
2, 807600, Note_on_c, 0, 36, 96
2, 807623, Note_on_c, 0, 36, 0
2, 807720, Note_on_c, 0, 48, 96
2, 807743, Note_on_c, 0, 48, 0
2, 807840, Note_on_c, 0, 35, 96
2, 807863, Note_on_c, 0, 35, 0
2, 807960, Note_on_c, 0, 47, 96
2, 807983, Note_on_c, 0, 47, 0
2, 808080, Note_on_c, 0, 36, 96
2, 808103, Note_on_c, 0, 36, 0
2, 808200, Note_on_c, 0, 48, 96
2, 808223, Note_on_c, 0, 48, 0
2, 808320, Note_on_c, 0, 40, 96
2, 808343, Note_on_c, 0, 40, 0
2, 808440, Note_on_c, 0, 52, 96
2, 808463, Note_on_c, 0, 52, 0
2, 808560, Note_on_c, 0, 41, 96
2, 808583, Note_on_c, 0, 41, 0
2, 808680, Note_on_c, 0, 53, 96
2, 808703, Note_on_c, 0, 53, 0
2, 808800, Note_on_c, 0, 40, 96
2, 808823, Note_on_c, 0, 40, 0
2, 808920, Note_on_c, 0, 52, 96
2, 808943, Note_on_c, 0, 52, 0
2, 809040, Note_on_c, 0, 41, 96
2, 809063, Note_on_c, 0, 41, 0
2, 809160, Note_on_c, 0, 53, 96
2, 809183, Note_on_c, 0, 53, 0
2, 809280, Note_on_c, 0, 32, 96
2, 809303, Note_on_c, 0, 32, 0
2, 809400, Note_on_c, 0, 44, 96
2, 809400, Note_on_c, 0, 56, 96
2, 809423, Note_on_c, 0, 56, 0
2, 809423, Note_on_c, 0, 44, 0
2, 809520, Note_on_c, 0, 33, 96
2, 809543, Note_on_c, 0, 33, 0
2, 809640, Note_on_c, 0, 45, 96
2, 809640, Note_on_c, 0, 57, 96
2, 809663, Note_on_c, 0, 57, 0
2, 809663, Note_on_c, 0, 45, 0
2, 809760, Note_on_c, 0, 32, 96
2, 809783, Note_on_c, 0, 32, 0
2, 809880, Note_on_c, 0, 44, 96
2, 809880, Note_on_c, 0, 56, 96
2, 809903, Note_on_c, 0, 56, 0
2, 809903, Note_on_c, 0, 44, 0
2, 810000, Note_on_c, 0, 33, 96
2, 810023, Note_on_c, 0, 33, 0
2, 810120, Note_on_c, 0, 45, 96
2, 810120, Note_on_c, 0, 57, 96
2, 810143, Note_on_c, 0, 57, 0
2, 810143, Note_on_c, 0, 45, 0
2, 810240, Note_on_c, 0, 35, 96
2, 810263, Note_on_c, 0, 35, 0
2, 810360, Note_on_c, 0, 47, 96
2, 810360, Note_on_c, 0, 59, 96
2, 810383, Note_on_c, 0, 59, 0
2, 810383, Note_on_c, 0, 47, 0
2, 810480, Note_on_c, 0, 36, 96
2, 810503, Note_on_c, 0, 36, 0
2, 810600, Note_on_c, 0, 48, 96
2, 810600, Note_on_c, 0, 60, 96
2, 810623, Note_on_c, 0, 60, 0
2, 810623, Note_on_c, 0, 48, 0
2, 810720, Note_on_c, 0, 35, 96
2, 810743, Note_on_c, 0, 35, 0
2, 810840, Note_on_c, 0, 47, 96
2, 810840, Note_on_c, 0, 59, 96
2, 810863, Note_on_c, 0, 59, 0
2, 810863, Note_on_c, 0, 47, 0
2, 810960, Note_on_c, 0, 36, 96
2, 810983, Note_on_c, 0, 36, 0
2, 811080, Note_on_c, 0, 48, 96
2, 811080, Note_on_c, 0, 60, 96
2, 811103, Note_on_c, 0, 60, 0
2, 811103, Note_on_c, 0, 48, 0
2, 811200, Note_on_c, 0, 40, 96
2, 811223, Note_on_c, 0, 40, 0
2, 811320, Note_on_c, 0, 52, 96
2, 811320, Note_on_c, 0, 64, 96
2, 811343, Note_on_c, 0, 64, 0
2, 811343, Note_on_c, 0, 52, 0
2, 811440, Note_on_c, 0, 41, 96
2, 811463, Note_on_c, 0, 41, 0
2, 811560, Note_on_c, 0, 53, 96
2, 811560, Note_on_c, 0, 65, 96
2, 811583, Note_on_c, 0, 65, 0
2, 811583, Note_on_c, 0, 53, 0
2, 811680, Note_on_c, 0, 40, 96
2, 811703, Note_on_c, 0, 40, 0
2, 811800, Note_on_c, 0, 52, 96
2, 811800, Note_on_c, 0, 64, 96
2, 811823, Note_on_c, 0, 64, 0
2, 811823, Note_on_c, 0, 52, 0
2, 811920, Note_on_c, 0, 41, 96
2, 811943, Note_on_c, 0, 41, 0
2, 812040, Note_on_c, 0, 53, 96
2, 812040, Note_on_c, 0, 65, 96
2, 812063, Note_on_c, 0, 65, 0
2, 812063, Note_on_c, 0, 53, 0
2, 812160, Note_on_c, 0, 44, 96
2, 812183, Note_on_c, 0, 44, 0
2, 812280, Note_on_c, 0, 56, 96
2, 812280, Note_on_c, 0, 68, 96
2, 812303, Note_on_c, 0, 68, 0
2, 812303, Note_on_c, 0, 56, 0
2, 812400, Note_on_c, 0, 45, 96
2, 812423, Note_on_c, 0, 45, 0
2, 812520, Note_on_c, 0, 57, 96
2, 812520, Note_on_c, 0, 69, 96
2, 812543, Note_on_c, 0, 69, 0
2, 812543, Note_on_c, 0, 57, 0
2, 812640, Note_on_c, 0, 44, 96
2, 812663, Note_on_c, 0, 44, 0
2, 812760, Note_on_c, 0, 56, 96
2, 812760, Note_on_c, 0, 68, 96
2, 812783, Note_on_c, 0, 68, 0
2, 812783, Note_on_c, 0, 56, 0
2, 812880, Note_on_c, 0, 45, 96
2, 812903, Note_on_c, 0, 45, 0
2, 813000, Note_on_c, 0, 57, 96
2, 813000, Note_on_c, 0, 69, 96
2, 813023, Note_on_c, 0, 69, 0
2, 813023, Note_on_c, 0, 57, 0
2, 813120, Note_on_c, 0, 47, 96
2, 813143, Note_on_c, 0, 47, 0
2, 813240, Note_on_c, 0, 59, 96
2, 813240, Note_on_c, 0, 71, 96
2, 813263, Note_on_c, 0, 71, 0
2, 813263, Note_on_c, 0, 59, 0
2, 813360, Note_on_c, 0, 48, 96
2, 813383, Note_on_c, 0, 48, 0
2, 813480, Note_on_c, 0, 60, 96
2, 813480, Note_on_c, 0, 72, 96
2, 813503, Note_on_c, 0, 72, 0
2, 813503, Note_on_c, 0, 60, 0
2, 813600, Note_on_c, 0, 47, 96
2, 813623, Note_on_c, 0, 47, 0
2, 813720, Note_on_c, 0, 59, 96
2, 813720, Note_on_c, 0, 71, 96
2, 813743, Note_on_c, 0, 71, 0
2, 813743, Note_on_c, 0, 59, 0
2, 813840, Note_on_c, 0, 48, 96
2, 813863, Note_on_c, 0, 48, 0
2, 813960, Note_on_c, 0, 60, 96
2, 813960, Note_on_c, 0, 72, 96
2, 813983, Note_on_c, 0, 72, 0
2, 813983, Note_on_c, 0, 60, 0
2, 814080, Note_on_c, 0, 52, 96
2, 814103, Note_on_c, 0, 52, 0
2, 814200, Note_on_c, 0, 64, 96
2, 814200, Note_on_c, 0, 76, 96
2, 814223, Note_on_c, 0, 76, 0
2, 814223, Note_on_c, 0, 64, 0
2, 814320, Note_on_c, 0, 53, 96
2, 814343, Note_on_c, 0, 53, 0
2, 814440, Note_on_c, 0, 65, 96
2, 814440, Note_on_c, 0, 77, 96
2, 814463, Note_on_c, 0, 77, 0
2, 814463, Note_on_c, 0, 65, 0
2, 814560, Note_on_c, 0, 52, 96
2, 814583, Note_on_c, 0, 52, 0
2, 814680, Note_on_c, 0, 64, 96
2, 814680, Note_on_c, 0, 76, 96
2, 814703, Note_on_c, 0, 76, 0
2, 814703, Note_on_c, 0, 64, 0
2, 814800, Note_on_c, 0, 53, 96
2, 814823, Note_on_c, 0, 53, 0
2, 814920, Note_on_c, 0, 65, 96
2, 814920, Note_on_c, 0, 77, 96
2, 814943, Note_on_c, 0, 77, 0
2, 814943, Note_on_c, 0, 65, 0
2, 815040, Note_on_c, 0, 56, 96
2, 815063, Note_on_c, 0, 56, 0
2, 815160, Note_on_c, 0, 68, 96
2, 815160, Note_on_c, 0, 80, 96
2, 815183, Note_on_c, 0, 80, 0
2, 815183, Note_on_c, 0, 68, 0
2, 815280, Note_on_c, 0, 57, 96
2, 815303, Note_on_c, 0, 57, 0
2, 815400, Note_on_c, 0, 69, 96
2, 815400, Note_on_c, 0, 81, 96
2, 815423, Note_on_c, 0, 81, 0
2, 815423, Note_on_c, 0, 69, 0
2, 815520, Note_on_c, 0, 56, 96
2, 815543, Note_on_c, 0, 56, 0
2, 815640, Note_on_c, 0, 68, 96
2, 815640, Note_on_c, 0, 80, 96
2, 815663, Note_on_c, 0, 80, 0
2, 815663, Note_on_c, 0, 68, 0
2, 815760, Note_on_c, 0, 57, 96
2, 815783, Note_on_c, 0, 57, 0
2, 815880, Note_on_c, 0, 69, 96
2, 815880, Note_on_c, 0, 81, 96
2, 815903, Note_on_c, 0, 81, 0
2, 815903, Note_on_c, 0, 69, 0
2, 816000, Note_on_c, 0, 59, 96
2, 816023, Note_on_c, 0, 59, 0
2, 816120, Note_on_c, 0, 71, 96
2, 816120, Note_on_c, 0, 83, 96
2, 816143, Note_on_c, 0, 83, 0
2, 816143, Note_on_c, 0, 71, 0
2, 816240, Note_on_c, 0, 60, 96
2, 816263, Note_on_c, 0, 60, 0
2, 816360, Note_on_c, 0, 72, 96
2, 816360, Note_on_c, 0, 84, 96
2, 816383, Note_on_c, 0, 84, 0
2, 816383, Note_on_c, 0, 72, 0
2, 816480, Note_on_c, 0, 59, 96
2, 816503, Note_on_c, 0, 59, 0
2, 816600, Note_on_c, 0, 71, 96
2, 816600, Note_on_c, 0, 83, 96
2, 816623, Note_on_c, 0, 83, 0
2, 816623, Note_on_c, 0, 71, 0
2, 816720, Note_on_c, 0, 60, 96
2, 816743, Note_on_c, 0, 60, 0
2, 816840, Note_on_c, 0, 72, 96
2, 816840, Note_on_c, 0, 84, 96
2, 816863, Note_on_c, 0, 84, 0
2, 816863, Note_on_c, 0, 72, 0
2, 816960, Note_on_c, 0, 64, 96
2, 816983, Note_on_c, 0, 64, 0
2, 817080, Note_on_c, 0, 76, 96
2, 817080, Note_on_c, 0, 88, 96
2, 817103, Note_on_c, 0, 88, 0
2, 817103, Note_on_c, 0, 76, 0
2, 817200, Note_on_c, 0, 65, 96
2, 817223, Note_on_c, 0, 65, 0
2, 817320, Note_on_c, 0, 77, 96
2, 817320, Note_on_c, 0, 89, 96
2, 817343, Note_on_c, 0, 89, 0
2, 817343, Note_on_c, 0, 77, 0
2, 817440, Note_on_c, 0, 59, 96
2, 817463, Note_on_c, 0, 59, 0
2, 817560, Note_on_c, 0, 71, 96
2, 817560, Note_on_c, 0, 83, 96
2, 817583, Note_on_c, 0, 83, 0
2, 817583, Note_on_c, 0, 71, 0
2, 817680, Note_on_c, 0, 60, 96
2, 817703, Note_on_c, 0, 60, 0
2, 817800, Note_on_c, 0, 72, 96
2, 817800, Note_on_c, 0, 84, 96
2, 817823, Note_on_c, 0, 84, 0
2, 817823, Note_on_c, 0, 72, 0
2, 817920, Note_on_c, 0, 64, 96
2, 817943, Note_on_c, 0, 64, 0
2, 818040, Note_on_c, 0, 76, 96
2, 818040, Note_on_c, 0, 88, 96
2, 818063, Note_on_c, 0, 88, 0
2, 818063, Note_on_c, 0, 76, 0
2, 818160, Note_on_c, 0, 65, 96
2, 818183, Note_on_c, 0, 65, 0
2, 818280, Note_on_c, 0, 77, 96
2, 818280, Note_on_c, 0, 89, 96
2, 818303, Note_on_c, 0, 89, 0
2, 818303, Note_on_c, 0, 77, 0
2, 818400, Note_on_c, 0, 59, 96
2, 818423, Note_on_c, 0, 59, 0
2, 818520, Note_on_c, 0, 71, 96
2, 818520, Note_on_c, 0, 83, 96
2, 818543, Note_on_c, 0, 83, 0
2, 818543, Note_on_c, 0, 71, 0
2, 818640, Note_on_c, 0, 60, 96
2, 818663, Note_on_c, 0, 60, 0
2, 818760, Note_on_c, 0, 72, 96
2, 818760, Note_on_c, 0, 84, 96
2, 818783, Note_on_c, 0, 84, 0
2, 818783, Note_on_c, 0, 72, 0
2, 818880, Note_on_c, 0, 64, 83
2, 818903, Note_on_c, 0, 64, 0
2, 819000, Note_on_c, 0, 76, 83
2, 819000, Note_on_c, 0, 88, 83
2, 819023, Note_on_c, 0, 88, 0
2, 819023, Note_on_c, 0, 76, 0
2, 819120, Note_on_c, 0, 65, 83
2, 819143, Note_on_c, 0, 65, 0
2, 819240, Note_on_c, 0, 77, 83
2, 819240, Note_on_c, 0, 89, 83
2, 819263, Note_on_c, 0, 89, 0
2, 819263, Note_on_c, 0, 77, 0
2, 819360, Note_on_c, 0, 62, 83
2, 819383, Note_on_c, 0, 62, 0
2, 819480, Note_on_c, 0, 74, 83
2, 819480, Note_on_c, 0, 86, 83
2, 819503, Note_on_c, 0, 86, 0
2, 819503, Note_on_c, 0, 74, 0
2, 819600, Note_on_c, 0, 63, 83
2, 819623, Note_on_c, 0, 63, 0
2, 819720, Note_on_c, 0, 75, 83
2, 819720, Note_on_c, 0, 87, 83
2, 819743, Note_on_c, 0, 87, 0
2, 819743, Note_on_c, 0, 75, 0
2, 819840, Note_on_c, 0, 60, 83
2, 819863, Note_on_c, 0, 60, 0
2, 819960, Note_on_c, 0, 72, 83
2, 819960, Note_on_c, 0, 84, 83
2, 819983, Note_on_c, 0, 84, 0
2, 819983, Note_on_c, 0, 72, 0
2, 820080, Note_on_c, 0, 61, 83
2, 820103, Note_on_c, 0, 61, 0
2, 820200, Note_on_c, 0, 73, 83
2, 820200, Note_on_c, 0, 85, 83
2, 820223, Note_on_c, 0, 85, 0
2, 820223, Note_on_c, 0, 73, 0
2, 820320, Note_on_c, 0, 59, 83
2, 820343, Note_on_c, 0, 59, 0
2, 820440, Note_on_c, 0, 71, 83
2, 820440, Note_on_c, 0, 83, 83
2, 820463, Note_on_c, 0, 83, 0
2, 820463, Note_on_c, 0, 71, 0
2, 820560, Note_on_c, 0, 60, 83
2, 820583, Note_on_c, 0, 60, 0
2, 820680, Note_on_c, 0, 72, 83
2, 820680, Note_on_c, 0, 84, 83
2, 820703, Note_on_c, 0, 84, 0
2, 820703, Note_on_c, 0, 72, 0
2, 820800, Note_on_c, 0, 58, 70
2, 820823, Note_on_c, 0, 58, 0
2, 820920, Note_on_c, 0, 70, 70
2, 820920, Note_on_c, 0, 82, 70
2, 820943, Note_on_c, 0, 82, 0
2, 820943, Note_on_c, 0, 70, 0
2, 821040, Note_on_c, 0, 60, 70
2, 821063, Note_on_c, 0, 60, 0
2, 821160, Note_on_c, 0, 72, 70
2, 821160, Note_on_c, 0, 84, 70
2, 821183, Note_on_c, 0, 84, 0
2, 821183, Note_on_c, 0, 72, 0
2, 821280, Note_on_c, 0, 61, 70
2, 821303, Note_on_c, 0, 61, 0
2, 821400, Note_on_c, 0, 73, 70
2, 821400, Note_on_c, 0, 85, 70
2, 821423, Note_on_c, 0, 85, 0
2, 821423, Note_on_c, 0, 73, 0
2, 821520, Note_on_c, 0, 60, 70
2, 821543, Note_on_c, 0, 60, 0
2, 821640, Note_on_c, 0, 72, 70
2, 821640, Note_on_c, 0, 84, 70
2, 821663, Note_on_c, 0, 84, 0
2, 821663, Note_on_c, 0, 72, 0
2, 821760, Note_on_c, 0, 63, 96
2, 821783, Note_on_c, 0, 63, 0
2, 821880, Note_on_c, 0, 75, 70
2, 821880, Note_on_c, 0, 87, 70
2, 821903, Note_on_c, 0, 87, 0
2, 821903, Note_on_c, 0, 75, 0
2, 822000, Note_on_c, 0, 61, 70
2, 822023, Note_on_c, 0, 61, 0
2, 822120, Note_on_c, 0, 73, 70
2, 822120, Note_on_c, 0, 85, 70
2, 822143, Note_on_c, 0, 85, 0
2, 822143, Note_on_c, 0, 73, 0
2, 822240, Note_on_c, 0, 60, 70
2, 822263, Note_on_c, 0, 60, 0
2, 822360, Note_on_c, 0, 72, 70
2, 822360, Note_on_c, 0, 84, 70
2, 822383, Note_on_c, 0, 84, 0
2, 822383, Note_on_c, 0, 72, 0
2, 822480, Note_on_c, 0, 58, 70
2, 822503, Note_on_c, 0, 58, 0
2, 822600, Note_on_c, 0, 70, 70
2, 822600, Note_on_c, 0, 82, 70
2, 822623, Note_on_c, 0, 82, 0
2, 822623, Note_on_c, 0, 70, 0
2, 822720, Note_on_c, 0, 56, 70
2, 822743, Note_on_c, 0, 56, 0
2, 822840, Note_on_c, 0, 68, 70
2, 822840, Note_on_c, 0, 80, 70
2, 822863, Note_on_c, 0, 80, 0
2, 822863, Note_on_c, 0, 68, 0
2, 822960, Note_on_c, 0, 57, 70
2, 822983, Note_on_c, 0, 57, 0
2, 823080, Note_on_c, 0, 69, 70
2, 823080, Note_on_c, 0, 81, 70
2, 823103, Note_on_c, 0, 81, 0
2, 823103, Note_on_c, 0, 69, 0
2, 823200, Note_on_c, 0, 52, 70
2, 823223, Note_on_c, 0, 52, 0
2, 823320, Note_on_c, 0, 64, 70
2, 823320, Note_on_c, 0, 76, 70
2, 823343, Note_on_c, 0, 76, 0
2, 823343, Note_on_c, 0, 64, 0
2, 823440, Note_on_c, 0, 53, 70
2, 823463, Note_on_c, 0, 53, 0
2, 823560, Note_on_c, 0, 65, 70
2, 823560, Note_on_c, 0, 77, 70
2, 823583, Note_on_c, 0, 77, 0
2, 823583, Note_on_c, 0, 65, 0
2, 823680, Note_on_c, 0, 56, 70
2, 823703, Note_on_c, 0, 56, 0
2, 823800, Note_on_c, 0, 68, 70
2, 823800, Note_on_c, 0, 80, 70
2, 823823, Note_on_c, 0, 80, 0
2, 823823, Note_on_c, 0, 68, 0
2, 823920, Note_on_c, 0, 57, 70
2, 823943, Note_on_c, 0, 57, 0
2, 824040, Note_on_c, 0, 69, 70
2, 824040, Note_on_c, 0, 81, 70
2, 824063, Note_on_c, 0, 81, 0
2, 824063, Note_on_c, 0, 69, 0
2, 824160, Note_on_c, 0, 52, 70
2, 824183, Note_on_c, 0, 52, 0
2, 824280, Note_on_c, 0, 64, 70
2, 824280, Note_on_c, 0, 76, 70
2, 824303, Note_on_c, 0, 76, 0
2, 824303, Note_on_c, 0, 64, 0
2, 824400, Note_on_c, 0, 53, 70
2, 824423, Note_on_c, 0, 53, 0
2, 824520, Note_on_c, 0, 65, 70
2, 824520, Note_on_c, 0, 77, 70
2, 824543, Note_on_c, 0, 77, 0
2, 824543, Note_on_c, 0, 65, 0
2, 824640, Note_on_c, 0, 52, 70
2, 824663, Note_on_c, 0, 52, 0
2, 824760, Note_on_c, 0, 64, 70
2, 824760, Note_on_c, 0, 76, 70
2, 824783, Note_on_c, 0, 76, 0
2, 824783, Note_on_c, 0, 64, 0
2, 824880, Note_on_c, 0, 53, 70
2, 824903, Note_on_c, 0, 53, 0
2, 825000, Note_on_c, 0, 65, 70
2, 825000, Note_on_c, 0, 77, 70
2, 825023, Note_on_c, 0, 77, 0
2, 825023, Note_on_c, 0, 65, 0
2, 825120, Note_on_c, 0, 58, 96
2, 825143, Note_on_c, 0, 58, 0
2, 825240, Note_on_c, 0, 70, 70
2, 825240, Note_on_c, 0, 82, 70
2, 825263, Note_on_c, 0, 82, 0
2, 825263, Note_on_c, 0, 70, 0
2, 825360, Note_on_c, 0, 53, 70
2, 825383, Note_on_c, 0, 53, 0
2, 825480, Note_on_c, 0, 65, 70
2, 825480, Note_on_c, 0, 77, 70
2, 825503, Note_on_c, 0, 77, 0
2, 825503, Note_on_c, 0, 65, 0
2, 825600, Note_on_c, 0, 51, 70
2, 825623, Note_on_c, 0, 51, 0
2, 825720, Note_on_c, 0, 63, 70
2, 825720, Note_on_c, 0, 75, 70
2, 825743, Note_on_c, 0, 75, 0
2, 825743, Note_on_c, 0, 63, 0
2, 825840, Note_on_c, 0, 49, 70
2, 825863, Note_on_c, 0, 49, 0
2, 825960, Note_on_c, 0, 61, 70
2, 825960, Note_on_c, 0, 73, 70
2, 825983, Note_on_c, 0, 73, 0
2, 825983, Note_on_c, 0, 61, 0
2, 826080, Note_on_c, 0, 48, 70
2, 826103, Note_on_c, 0, 48, 0
2, 826200, Note_on_c, 0, 60, 70
2, 826200, Note_on_c, 0, 72, 70
2, 826223, Note_on_c, 0, 72, 0
2, 826223, Note_on_c, 0, 60, 0
2, 826320, Note_on_c, 0, 46, 70
2, 826343, Note_on_c, 0, 46, 0
2, 826440, Note_on_c, 0, 58, 70
2, 826440, Note_on_c, 0, 70, 70
2, 826463, Note_on_c, 0, 70, 0
2, 826463, Note_on_c, 0, 58, 0
2, 826560, Note_on_c, 0, 48, 70
2, 826583, Note_on_c, 0, 48, 0
2, 826680, Note_on_c, 0, 60, 70
2, 826680, Note_on_c, 0, 72, 70
2, 826703, Note_on_c, 0, 72, 0
2, 826703, Note_on_c, 0, 60, 0
2, 826800, Note_on_c, 0, 49, 70
2, 826823, Note_on_c, 0, 49, 0
2, 826920, Note_on_c, 0, 61, 70
2, 826920, Note_on_c, 0, 73, 70
2, 826943, Note_on_c, 0, 73, 0
2, 826943, Note_on_c, 0, 61, 0
2, 827040, Note_on_c, 0, 47, 70
2, 827063, Note_on_c, 0, 47, 0
2, 827160, Note_on_c, 0, 59, 70
2, 827160, Note_on_c, 0, 71, 70
2, 827183, Note_on_c, 0, 71, 0
2, 827183, Note_on_c, 0, 59, 0
2, 827280, Note_on_c, 0, 48, 70
2, 827303, Note_on_c, 0, 48, 0
2, 827400, Note_on_c, 0, 60, 70
2, 827400, Note_on_c, 0, 72, 70
2, 827423, Note_on_c, 0, 72, 0
2, 827423, Note_on_c, 0, 60, 0
2, 827520, Note_on_c, 0, 49, 70
2, 827543, Note_on_c, 0, 49, 0
2, 827640, Note_on_c, 0, 61, 70
2, 827640, Note_on_c, 0, 73, 70
2, 827663, Note_on_c, 0, 73, 0
2, 827663, Note_on_c, 0, 61, 0
2, 827760, Note_on_c, 0, 48, 70
2, 827783, Note_on_c, 0, 48, 0
2, 827880, Note_on_c, 0, 60, 70
2, 827880, Note_on_c, 0, 72, 70
2, 827903, Note_on_c, 0, 72, 0
2, 827903, Note_on_c, 0, 60, 0
2, 828000, Note_on_c, 0, 54, 70
2, 828023, Note_on_c, 0, 54, 0
2, 828120, Note_on_c, 0, 66, 70
2, 828120, Note_on_c, 0, 78, 70
2, 828143, Note_on_c, 0, 78, 0
2, 828143, Note_on_c, 0, 66, 0
2, 828240, Note_on_c, 0, 53, 70
2, 828263, Note_on_c, 0, 53, 0
2, 828360, Note_on_c, 0, 65, 70
2, 828360, Note_on_c, 0, 77, 70
2, 828383, Note_on_c, 0, 77, 0
2, 828383, Note_on_c, 0, 65, 0
2, 828480, Note_on_c, 0, 58, 70
2, 828503, Note_on_c, 0, 58, 0
2, 828600, Note_on_c, 0, 70, 70
2, 828600, Note_on_c, 0, 82, 70
2, 828623, Note_on_c, 0, 82, 0
2, 828623, Note_on_c, 0, 70, 0
2, 828720, Note_on_c, 0, 60, 70
2, 828743, Note_on_c, 0, 60, 0
2, 828840, Note_on_c, 0, 72, 70
2, 828840, Note_on_c, 0, 84, 70
2, 828863, Note_on_c, 0, 84, 0
2, 828863, Note_on_c, 0, 72, 0
2, 828960, Note_on_c, 0, 61, 70
2, 828983, Note_on_c, 0, 61, 0
2, 829080, Note_on_c, 0, 73, 70
2, 829080, Note_on_c, 0, 85, 70
2, 829103, Note_on_c, 0, 85, 0
2, 829103, Note_on_c, 0, 73, 0
2, 829200, Note_on_c, 0, 60, 70
2, 829223, Note_on_c, 0, 60, 0
2, 829320, Note_on_c, 0, 72, 70
2, 829320, Note_on_c, 0, 84, 70
2, 829343, Note_on_c, 0, 84, 0
2, 829343, Note_on_c, 0, 72, 0
2, 829440, Note_on_c, 0, 63, 96
2, 829463, Note_on_c, 0, 63, 0
2, 829560, Note_on_c, 0, 75, 70
2, 829560, Note_on_c, 0, 87, 70
2, 829583, Note_on_c, 0, 87, 0
2, 829583, Note_on_c, 0, 75, 0
2, 829680, Note_on_c, 0, 61, 70
2, 829703, Note_on_c, 0, 61, 0
2, 829800, Note_on_c, 0, 73, 70
2, 829800, Note_on_c, 0, 85, 70
2, 829823, Note_on_c, 0, 85, 0
2, 829823, Note_on_c, 0, 73, 0
2, 829920, Note_on_c, 0, 60, 70
2, 829943, Note_on_c, 0, 60, 0
2, 830040, Note_on_c, 0, 72, 70
2, 830040, Note_on_c, 0, 84, 70
2, 830063, Note_on_c, 0, 84, 0
2, 830063, Note_on_c, 0, 72, 0
2, 830160, Note_on_c, 0, 58, 70
2, 830183, Note_on_c, 0, 58, 0
2, 830280, Note_on_c, 0, 70, 70
2, 830280, Note_on_c, 0, 82, 70
2, 830303, Note_on_c, 0, 82, 0
2, 830303, Note_on_c, 0, 70, 0
2, 830400, Note_on_c, 0, 56, 70
2, 830423, Note_on_c, 0, 56, 0
2, 830520, Note_on_c, 0, 68, 70
2, 830520, Note_on_c, 0, 80, 70
2, 830543, Note_on_c, 0, 80, 0
2, 830543, Note_on_c, 0, 68, 0
2, 830640, Note_on_c, 0, 57, 70
2, 830663, Note_on_c, 0, 57, 0
2, 830760, Note_on_c, 0, 69, 70
2, 830760, Note_on_c, 0, 81, 70
2, 830783, Note_on_c, 0, 81, 0
2, 830783, Note_on_c, 0, 69, 0
2, 830880, Note_on_c, 0, 52, 70
2, 830903, Note_on_c, 0, 52, 0
2, 831000, Note_on_c, 0, 64, 70
2, 831000, Note_on_c, 0, 76, 70
2, 831023, Note_on_c, 0, 76, 0
2, 831023, Note_on_c, 0, 64, 0
2, 831120, Note_on_c, 0, 53, 70
2, 831143, Note_on_c, 0, 53, 0
2, 831240, Note_on_c, 0, 65, 70
2, 831240, Note_on_c, 0, 77, 70
2, 831263, Note_on_c, 0, 77, 0
2, 831263, Note_on_c, 0, 65, 0
2, 831360, Note_on_c, 0, 56, 70
2, 831383, Note_on_c, 0, 56, 0
2, 831480, Note_on_c, 0, 68, 70
2, 831480, Note_on_c, 0, 80, 70
2, 831503, Note_on_c, 0, 80, 0
2, 831503, Note_on_c, 0, 68, 0
2, 831600, Note_on_c, 0, 57, 70
2, 831623, Note_on_c, 0, 57, 0
2, 831720, Note_on_c, 0, 69, 70
2, 831720, Note_on_c, 0, 81, 70
2, 831743, Note_on_c, 0, 81, 0
2, 831743, Note_on_c, 0, 69, 0
2, 831840, Note_on_c, 0, 52, 70
2, 831863, Note_on_c, 0, 52, 0
2, 831960, Note_on_c, 0, 64, 70
2, 831960, Note_on_c, 0, 76, 70
2, 831983, Note_on_c, 0, 76, 0
2, 831983, Note_on_c, 0, 64, 0
2, 832080, Note_on_c, 0, 53, 70
2, 832103, Note_on_c, 0, 53, 0
2, 832200, Note_on_c, 0, 65, 70
2, 832200, Note_on_c, 0, 77, 70
2, 832223, Note_on_c, 0, 77, 0
2, 832223, Note_on_c, 0, 65, 0
2, 832320, Note_on_c, 0, 58, 70
2, 832343, Note_on_c, 0, 58, 0
2, 832440, Note_on_c, 0, 70, 70
2, 832440, Note_on_c, 0, 82, 70
2, 832463, Note_on_c, 0, 82, 0
2, 832463, Note_on_c, 0, 70, 0
2, 832560, Note_on_c, 0, 60, 70
2, 832583, Note_on_c, 0, 60, 0
2, 832680, Note_on_c, 0, 72, 70
2, 832680, Note_on_c, 0, 84, 70
2, 832703, Note_on_c, 0, 84, 0
2, 832703, Note_on_c, 0, 72, 0
2, 832800, Note_on_c, 0, 61, 70
2, 832823, Note_on_c, 0, 61, 0
2, 832920, Note_on_c, 0, 73, 70
2, 832920, Note_on_c, 0, 85, 70
2, 832943, Note_on_c, 0, 85, 0
2, 832943, Note_on_c, 0, 73, 0
2, 833040, Note_on_c, 0, 60, 70
2, 833063, Note_on_c, 0, 60, 0
2, 833160, Note_on_c, 0, 72, 70
2, 833160, Note_on_c, 0, 84, 70
2, 833183, Note_on_c, 0, 84, 0
2, 833183, Note_on_c, 0, 72, 0
2, 833280, Note_on_c, 0, 63, 96
2, 833303, Note_on_c, 0, 63, 0
2, 833400, Note_on_c, 0, 75, 70
2, 833400, Note_on_c, 0, 87, 70
2, 833423, Note_on_c, 0, 87, 0
2, 833423, Note_on_c, 0, 75, 0
2, 833520, Note_on_c, 0, 61, 70
2, 833543, Note_on_c, 0, 61, 0
2, 833640, Note_on_c, 0, 73, 70
2, 833640, Note_on_c, 0, 85, 70
2, 833663, Note_on_c, 0, 85, 0
2, 833663, Note_on_c, 0, 73, 0
2, 833760, Note_on_c, 0, 60, 70
2, 833783, Note_on_c, 0, 60, 0
2, 833880, Note_on_c, 0, 72, 70
2, 833880, Note_on_c, 0, 84, 70
2, 833903, Note_on_c, 0, 84, 0
2, 833903, Note_on_c, 0, 72, 0
2, 834000, Note_on_c, 0, 58, 70
2, 834023, Note_on_c, 0, 58, 0
2, 834120, Note_on_c, 0, 70, 70
2, 834120, Note_on_c, 0, 82, 70
2, 834143, Note_on_c, 0, 82, 0
2, 834143, Note_on_c, 0, 70, 0
2, 834240, Note_on_c, 0, 61, 83
2, 834263, Note_on_c, 0, 61, 0
2, 834360, Note_on_c, 0, 73, 83
2, 834360, Note_on_c, 0, 85, 83
2, 834383, Note_on_c, 0, 85, 0
2, 834383, Note_on_c, 0, 73, 0
2, 834480, Note_on_c, 0, 62, 83
2, 834503, Note_on_c, 0, 62, 0
2, 834600, Note_on_c, 0, 74, 83
2, 834600, Note_on_c, 0, 86, 83
2, 834623, Note_on_c, 0, 86, 0
2, 834623, Note_on_c, 0, 74, 0
2, 834720, Note_on_c, 0, 63, 83
2, 834743, Note_on_c, 0, 63, 0
2, 834840, Note_on_c, 0, 75, 83
2, 834840, Note_on_c, 0, 87, 83
2, 834863, Note_on_c, 0, 87, 0
2, 834863, Note_on_c, 0, 75, 0
2, 834960, Note_on_c, 0, 62, 83
2, 834983, Note_on_c, 0, 62, 0
2, 835080, Note_on_c, 0, 74, 83
2, 835080, Note_on_c, 0, 86, 83
2, 835103, Note_on_c, 0, 86, 0
2, 835103, Note_on_c, 0, 74, 0
2, 835200, Note_on_c, 0, 67, 83
2, 835223, Note_on_c, 0, 67, 0
2, 835320, Note_on_c, 0, 79, 83
2, 835320, Note_on_c, 0, 91, 83
2, 835343, Note_on_c, 0, 91, 0
2, 835343, Note_on_c, 0, 79, 0
2, 835440, Note_on_c, 0, 65, 83
2, 835463, Note_on_c, 0, 65, 0
2, 835560, Note_on_c, 0, 77, 83
2, 835560, Note_on_c, 0, 89, 83
2, 835583, Note_on_c, 0, 89, 0
2, 835583, Note_on_c, 0, 77, 0
2, 835680, Note_on_c, 0, 63, 83
2, 835703, Note_on_c, 0, 63, 0
2, 835800, Note_on_c, 0, 75, 83
2, 835800, Note_on_c, 0, 87, 83
2, 835823, Note_on_c, 0, 87, 0
2, 835823, Note_on_c, 0, 75, 0
2, 835920, Note_on_c, 0, 62, 83
2, 835943, Note_on_c, 0, 62, 0
2, 836040, Note_on_c, 0, 74, 83
2, 836040, Note_on_c, 0, 86, 83
2, 836063, Note_on_c, 0, 86, 0
2, 836063, Note_on_c, 0, 74, 0
2, 836160, Note_on_c, 0, 60, 70
2, 836183, Note_on_c, 0, 60, 0
2, 836280, Note_on_c, 0, 72, 70
2, 836280, Note_on_c, 0, 84, 70
2, 836303, Note_on_c, 0, 84, 0
2, 836303, Note_on_c, 0, 72, 0
2, 836400, Note_on_c, 0, 62, 70
2, 836423, Note_on_c, 0, 62, 0
2, 836520, Note_on_c, 0, 74, 70
2, 836520, Note_on_c, 0, 86, 70
2, 836543, Note_on_c, 0, 86, 0
2, 836543, Note_on_c, 0, 74, 0
2, 836640, Note_on_c, 0, 63, 70
2, 836663, Note_on_c, 0, 63, 0
2, 836760, Note_on_c, 0, 75, 70
2, 836760, Note_on_c, 0, 87, 70
2, 836783, Note_on_c, 0, 87, 0
2, 836783, Note_on_c, 0, 75, 0
2, 836880, Note_on_c, 0, 62, 70
2, 836903, Note_on_c, 0, 62, 0
2, 837000, Note_on_c, 0, 74, 70
2, 837000, Note_on_c, 0, 86, 70
2, 837023, Note_on_c, 0, 86, 0
2, 837023, Note_on_c, 0, 74, 0
2, 837120, Note_on_c, 0, 65, 70
2, 837143, Note_on_c, 0, 65, 0
2, 837240, Note_on_c, 0, 77, 70
2, 837240, Note_on_c, 0, 89, 70
2, 837263, Note_on_c, 0, 89, 0
2, 837263, Note_on_c, 0, 77, 0
2, 837360, Note_on_c, 0, 63, 70
2, 837383, Note_on_c, 0, 63, 0
2, 837480, Note_on_c, 0, 75, 70
2, 837480, Note_on_c, 0, 87, 70
2, 837503, Note_on_c, 0, 87, 0
2, 837503, Note_on_c, 0, 75, 0
2, 837600, Note_on_c, 0, 62, 70
2, 837623, Note_on_c, 0, 62, 0
2, 837720, Note_on_c, 0, 74, 70
2, 837720, Note_on_c, 0, 86, 70
2, 837743, Note_on_c, 0, 86, 0
2, 837743, Note_on_c, 0, 74, 0
2, 837840, Note_on_c, 0, 60, 70
2, 837863, Note_on_c, 0, 60, 0
2, 837960, Note_on_c, 0, 72, 70
2, 837960, Note_on_c, 0, 84, 70
2, 837983, Note_on_c, 0, 84, 0
2, 837983, Note_on_c, 0, 72, 0
2, 838080, Note_on_c, 0, 58, 70
2, 838103, Note_on_c, 0, 58, 0
2, 838200, Note_on_c, 0, 70, 70
2, 838200, Note_on_c, 0, 82, 70
2, 838223, Note_on_c, 0, 82, 0
2, 838223, Note_on_c, 0, 70, 0
2, 838320, Note_on_c, 0, 59, 70
2, 838343, Note_on_c, 0, 59, 0
2, 838440, Note_on_c, 0, 71, 70
2, 838440, Note_on_c, 0, 83, 70
2, 838463, Note_on_c, 0, 83, 0
2, 838463, Note_on_c, 0, 71, 0
2, 838560, Note_on_c, 0, 54, 70
2, 838583, Note_on_c, 0, 54, 0
2, 838680, Note_on_c, 0, 66, 70
2, 838680, Note_on_c, 0, 78, 70
2, 838703, Note_on_c, 0, 78, 0
2, 838703, Note_on_c, 0, 66, 0
2, 838800, Note_on_c, 0, 55, 70
2, 838823, Note_on_c, 0, 55, 0
2, 838920, Note_on_c, 0, 67, 70
2, 838920, Note_on_c, 0, 79, 70
2, 838943, Note_on_c, 0, 79, 0
2, 838943, Note_on_c, 0, 67, 0
2, 839040, Note_on_c, 0, 58, 70
2, 839063, Note_on_c, 0, 58, 0
2, 839160, Note_on_c, 0, 70, 70
2, 839160, Note_on_c, 0, 82, 70
2, 839183, Note_on_c, 0, 82, 0
2, 839183, Note_on_c, 0, 70, 0
2, 839280, Note_on_c, 0, 59, 70
2, 839303, Note_on_c, 0, 59, 0
2, 839400, Note_on_c, 0, 71, 70
2, 839400, Note_on_c, 0, 83, 70
2, 839423, Note_on_c, 0, 83, 0
2, 839423, Note_on_c, 0, 71, 0
2, 839520, Note_on_c, 0, 54, 70
2, 839543, Note_on_c, 0, 54, 0
2, 839640, Note_on_c, 0, 66, 70
2, 839640, Note_on_c, 0, 78, 70
2, 839663, Note_on_c, 0, 78, 0
2, 839663, Note_on_c, 0, 66, 0
2, 839760, Note_on_c, 0, 55, 70
2, 839783, Note_on_c, 0, 55, 0
2, 839880, Note_on_c, 0, 67, 70
2, 839880, Note_on_c, 0, 79, 70
2, 839903, Note_on_c, 0, 79, 0
2, 839903, Note_on_c, 0, 67, 0
2, 840000, Note_on_c, 0, 54, 70
2, 840023, Note_on_c, 0, 54, 0
2, 840120, Note_on_c, 0, 66, 70
2, 840120, Note_on_c, 0, 78, 70
2, 840143, Note_on_c, 0, 78, 0
2, 840143, Note_on_c, 0, 66, 0
2, 840240, Note_on_c, 0, 55, 70
2, 840263, Note_on_c, 0, 55, 0
2, 840360, Note_on_c, 0, 67, 70
2, 840360, Note_on_c, 0, 79, 70
2, 840383, Note_on_c, 0, 79, 0
2, 840383, Note_on_c, 0, 67, 0
2, 840480, Note_on_c, 0, 60, 70
2, 840503, Note_on_c, 0, 60, 0
2, 840600, Note_on_c, 0, 72, 70
2, 840600, Note_on_c, 0, 84, 70
2, 840623, Note_on_c, 0, 84, 0
2, 840623, Note_on_c, 0, 72, 0
2, 840720, Note_on_c, 0, 55, 70
2, 840743, Note_on_c, 0, 55, 0
2, 840840, Note_on_c, 0, 67, 70
2, 840840, Note_on_c, 0, 79, 70
2, 840863, Note_on_c, 0, 79, 0
2, 840863, Note_on_c, 0, 67, 0
2, 840960, Note_on_c, 0, 53, 70
2, 840983, Note_on_c, 0, 53, 0
2, 841080, Note_on_c, 0, 65, 70
2, 841080, Note_on_c, 0, 77, 70
2, 841103, Note_on_c, 0, 77, 0
2, 841103, Note_on_c, 0, 65, 0
2, 841200, Note_on_c, 0, 51, 70
2, 841223, Note_on_c, 0, 51, 0
2, 841320, Note_on_c, 0, 63, 70
2, 841320, Note_on_c, 0, 75, 70
2, 841343, Note_on_c, 0, 75, 0
2, 841343, Note_on_c, 0, 63, 0
2, 841440, Note_on_c, 0, 50, 70
2, 841463, Note_on_c, 0, 50, 0
2, 841560, Note_on_c, 0, 62, 70
2, 841560, Note_on_c, 0, 74, 70
2, 841583, Note_on_c, 0, 74, 0
2, 841583, Note_on_c, 0, 62, 0
2, 841680, Note_on_c, 0, 48, 70
2, 841703, Note_on_c, 0, 48, 0
2, 841800, Note_on_c, 0, 60, 70
2, 841800, Note_on_c, 0, 72, 70
2, 841823, Note_on_c, 0, 72, 0
2, 841823, Note_on_c, 0, 60, 0
2, 841920, Note_on_c, 0, 50, 70
2, 841943, Note_on_c, 0, 50, 0
2, 842040, Note_on_c, 0, 62, 70
2, 842040, Note_on_c, 0, 74, 70
2, 842063, Note_on_c, 0, 74, 0
2, 842063, Note_on_c, 0, 62, 0
2, 842160, Note_on_c, 0, 51, 70
2, 842183, Note_on_c, 0, 51, 0
2, 842280, Note_on_c, 0, 63, 70
2, 842280, Note_on_c, 0, 75, 70
2, 842303, Note_on_c, 0, 75, 0
2, 842303, Note_on_c, 0, 63, 0
2, 842400, Note_on_c, 0, 55, 70
2, 842423, Note_on_c, 0, 55, 0
2, 842520, Note_on_c, 0, 67, 70
2, 842520, Note_on_c, 0, 79, 70
2, 842543, Note_on_c, 0, 79, 0
2, 842543, Note_on_c, 0, 67, 0
2, 842640, Note_on_c, 0, 51, 70
2, 842663, Note_on_c, 0, 51, 0
2, 842760, Note_on_c, 0, 63, 70
2, 842760, Note_on_c, 0, 75, 70
2, 842783, Note_on_c, 0, 75, 0
2, 842783, Note_on_c, 0, 63, 0
2, 842880, Note_on_c, 0, 50, 70
2, 842903, Note_on_c, 0, 50, 0
2, 843000, Note_on_c, 0, 62, 70
2, 843000, Note_on_c, 0, 74, 70
2, 843023, Note_on_c, 0, 74, 0
2, 843023, Note_on_c, 0, 62, 0
2, 843120, Note_on_c, 0, 48, 70
2, 843143, Note_on_c, 0, 48, 0
2, 843240, Note_on_c, 0, 60, 70
2, 843240, Note_on_c, 0, 72, 70
2, 843263, Note_on_c, 0, 72, 0
2, 843263, Note_on_c, 0, 60, 0
2, 843360, Note_on_c, 0, 44, 70
2, 843383, Note_on_c, 0, 44, 0
2, 843480, Note_on_c, 0, 56, 70
2, 843480, Note_on_c, 0, 68, 70
2, 843503, Note_on_c, 0, 68, 0
2, 843503, Note_on_c, 0, 56, 0
2, 843600, Note_on_c, 0, 43, 70
2, 843623, Note_on_c, 0, 43, 0
2, 843720, Note_on_c, 0, 55, 70
2, 843720, Note_on_c, 0, 67, 70
2, 843743, Note_on_c, 0, 67, 0
2, 843743, Note_on_c, 0, 55, 0
2, 843840, Note_on_c, 0, 42, 70
2, 843863, Note_on_c, 0, 42, 0
2, 843960, Note_on_c, 0, 54, 70
2, 843960, Note_on_c, 0, 66, 70
2, 843983, Note_on_c, 0, 66, 0
2, 843983, Note_on_c, 0, 54, 0
2, 844080, Note_on_c, 0, 43, 70
2, 844103, Note_on_c, 0, 43, 0
2, 844200, Note_on_c, 0, 55, 70
2, 844200, Note_on_c, 0, 67, 70
2, 844223, Note_on_c, 0, 67, 0
2, 844223, Note_on_c, 0, 55, 0
2, 844320, Note_on_c, 0, 48, 70
2, 844343, Note_on_c, 0, 48, 0
2, 844440, Note_on_c, 0, 60, 70
2, 844440, Note_on_c, 0, 72, 70
2, 844463, Note_on_c, 0, 72, 0
2, 844463, Note_on_c, 0, 60, 0
2, 844560, Note_on_c, 0, 43, 70
2, 844583, Note_on_c, 0, 43, 0
2, 844680, Note_on_c, 0, 55, 70
2, 844680, Note_on_c, 0, 67, 70
2, 844703, Note_on_c, 0, 67, 0
2, 844703, Note_on_c, 0, 55, 0
2, 844800, Note_on_c, 0, 41, 70
2, 844823, Note_on_c, 0, 41, 0
2, 844920, Note_on_c, 0, 53, 70
2, 844920, Note_on_c, 0, 65, 70
2, 844943, Note_on_c, 0, 65, 0
2, 844943, Note_on_c, 0, 53, 0
2, 845040, Note_on_c, 0, 39, 70
2, 845063, Note_on_c, 0, 39, 0
2, 845160, Note_on_c, 0, 51, 70
2, 845160, Note_on_c, 0, 63, 70
2, 845183, Note_on_c, 0, 63, 0
2, 845183, Note_on_c, 0, 51, 0
2, 845280, Note_on_c, 0, 38, 70
2, 845303, Note_on_c, 0, 38, 0
2, 845400, Note_on_c, 0, 50, 70
2, 845400, Note_on_c, 0, 62, 70
2, 845423, Note_on_c, 0, 62, 0
2, 845423, Note_on_c, 0, 50, 0
2, 845520, Note_on_c, 0, 36, 70
2, 845543, Note_on_c, 0, 36, 0
2, 845640, Note_on_c, 0, 48, 70
2, 845640, Note_on_c, 0, 60, 70
2, 845663, Note_on_c, 0, 60, 0
2, 845663, Note_on_c, 0, 48, 0
2, 845760, Note_on_c, 0, 35, 70
2, 845760, Note_on_c, 0, 47, 70
2, 845783, Note_on_c, 0, 47, 0
2, 845783, Note_on_c, 0, 35, 0
2, 845880, Note_on_c, 0, 59, 70
2, 845903, Note_on_c, 0, 59, 0
2, 846000, Note_on_c, 0, 36, 70
2, 846000, Note_on_c, 0, 48, 70
2, 846023, Note_on_c, 0, 48, 0
2, 846023, Note_on_c, 0, 36, 0
2, 846120, Note_on_c, 0, 60, 70
2, 846143, Note_on_c, 0, 60, 0
2, 846240, Note_on_c, 0, 32, 70
2, 846240, Note_on_c, 0, 44, 70
2, 846263, Note_on_c, 0, 44, 0
2, 846263, Note_on_c, 0, 32, 0
2, 846360, Note_on_c, 0, 56, 70
2, 846383, Note_on_c, 0, 56, 0
2, 846480, Note_on_c, 0, 31, 70
2, 846480, Note_on_c, 0, 43, 70
2, 846503, Note_on_c, 0, 43, 0
2, 846503, Note_on_c, 0, 31, 0
2, 846600, Note_on_c, 0, 55, 70
2, 846623, Note_on_c, 0, 55, 0
2, 846720, Note_on_c, 0, 30, 70
2, 846720, Note_on_c, 0, 42, 70
2, 846743, Note_on_c, 0, 42, 0
2, 846743, Note_on_c, 0, 30, 0
2, 846840, Note_on_c, 0, 54, 70
2, 846863, Note_on_c, 0, 54, 0
2, 846960, Note_on_c, 0, 31, 70
2, 846960, Note_on_c, 0, 43, 70
2, 846983, Note_on_c, 0, 43, 0
2, 846983, Note_on_c, 0, 31, 0
2, 847080, Note_on_c, 0, 55, 70
2, 847103, Note_on_c, 0, 55, 0
2, 847200, Note_on_c, 0, 38, 70
2, 847223, Note_on_c, 0, 38, 0
2, 847320, Note_on_c, 0, 50, 70
2, 847343, Note_on_c, 0, 50, 0
2, 847440, Note_on_c, 0, 39, 70
2, 847463, Note_on_c, 0, 39, 0
2, 847560, Note_on_c, 0, 51, 70
2, 847583, Note_on_c, 0, 51, 0
2, 847680, Note_on_c, 0, 35, 70
2, 847703, Note_on_c, 0, 35, 0
2, 847800, Note_on_c, 0, 47, 70
2, 847823, Note_on_c, 0, 47, 0
2, 847920, Note_on_c, 0, 36, 70
2, 847943, Note_on_c, 0, 36, 0
2, 848040, Note_on_c, 0, 48, 70
2, 848063, Note_on_c, 0, 48, 0
2, 848160, Note_on_c, 0, 30, 70
2, 848183, Note_on_c, 0, 30, 0
2, 848280, Note_on_c, 0, 42, 70
2, 848303, Note_on_c, 0, 42, 0
2, 848400, Note_on_c, 0, 31, 70
2, 848423, Note_on_c, 0, 31, 0
2, 848520, Note_on_c, 0, 43, 70
2, 848543, Note_on_c, 0, 43, 0
2, 848640, Note_on_c, 0, 35, 70
2, 848663, Note_on_c, 0, 35, 0
2, 848760, Note_on_c, 0, 47, 70
2, 848783, Note_on_c, 0, 47, 0
2, 848880, Note_on_c, 0, 36, 70
2, 848903, Note_on_c, 0, 36, 0
2, 849000, Note_on_c, 0, 48, 70
2, 849023, Note_on_c, 0, 48, 0
2, 849120, Note_on_c, 0, 30, 70
2, 849143, Note_on_c, 0, 30, 0
2, 849240, Note_on_c, 0, 42, 70
2, 849263, Note_on_c, 0, 42, 0
2, 849360, Note_on_c, 0, 31, 70
2, 849383, Note_on_c, 0, 31, 0
2, 849480, Note_on_c, 0, 43, 70
2, 849503, Note_on_c, 0, 43, 0
2, 849600, Note_on_c, 0, 36, 70
2, 849600, Note_on_c, 0, 48, 70
2, 849840, Note_on_c, 0, 48, 0
2, 849840, Note_on_c, 0, 36, 0
2, 851520, Note_on_c, 0, 35, 57
2, 851543, Note_on_c, 0, 35, 0
2, 851640, Note_on_c, 0, 47, 57
2, 851663, Note_on_c, 0, 47, 0
2, 851760, Note_on_c, 0, 36, 57
2, 851783, Note_on_c, 0, 36, 0
2, 851880, Note_on_c, 0, 48, 57
2, 851903, Note_on_c, 0, 48, 0
2, 852000, Note_on_c, 0, 30, 57
2, 852023, Note_on_c, 0, 30, 0
2, 852120, Note_on_c, 0, 42, 57
2, 852143, Note_on_c, 0, 42, 0
2, 852240, Note_on_c, 0, 31, 57
2, 852263, Note_on_c, 0, 31, 0
2, 852360, Note_on_c, 0, 43, 57
2, 852383, Note_on_c, 0, 43, 0
2, 852480, Note_on_c, 0, 35, 57
2, 852503, Note_on_c, 0, 35, 0
2, 852600, Note_on_c, 0, 47, 57
2, 852623, Note_on_c, 0, 47, 0
2, 852720, Note_on_c, 0, 36, 57
2, 852743, Note_on_c, 0, 36, 0
2, 852840, Note_on_c, 0, 48, 57
2, 852863, Note_on_c, 0, 48, 0
2, 852960, Note_on_c, 0, 30, 57
2, 852983, Note_on_c, 0, 30, 0
2, 853080, Note_on_c, 0, 42, 57
2, 853103, Note_on_c, 0, 42, 0
2, 853200, Note_on_c, 0, 31, 57
2, 853223, Note_on_c, 0, 31, 0
2, 853320, Note_on_c, 0, 43, 57
2, 853343, Note_on_c, 0, 43, 0
2, 853440, Note_on_c, 0, 36, 57
2, 853440, Note_on_c, 0, 48, 57
2, 853680, Note_on_c, 0, 48, 0
2, 853680, Note_on_c, 0, 36, 0
2, 855360, Note_on_c, 0, 35, 57
2, 855383, Note_on_c, 0, 35, 0
2, 855480, Note_on_c, 0, 47, 57
2, 855503, Note_on_c, 0, 47, 0
2, 855600, Note_on_c, 0, 36, 57
2, 855623, Note_on_c, 0, 36, 0
2, 855720, Note_on_c, 0, 48, 57
2, 855743, Note_on_c, 0, 48, 0
2, 855840, Note_on_c, 0, 32, 57
2, 855863, Note_on_c, 0, 32, 0
2, 855960, Note_on_c, 0, 44, 57
2, 855983, Note_on_c, 0, 44, 0
2, 856080, Note_on_c, 0, 31, 57
2, 856103, Note_on_c, 0, 31, 0
2, 856200, Note_on_c, 0, 43, 57
2, 856223, Note_on_c, 0, 43, 0
2, 856320, Note_on_c, 0, 35, 57
2, 856343, Note_on_c, 0, 35, 0
2, 856440, Note_on_c, 0, 47, 57
2, 856463, Note_on_c, 0, 47, 0
2, 856560, Note_on_c, 0, 36, 57
2, 856583, Note_on_c, 0, 36, 0
2, 856680, Note_on_c, 0, 48, 57
2, 856703, Note_on_c, 0, 48, 0
2, 856800, Note_on_c, 0, 32, 57
2, 856823, Note_on_c, 0, 32, 0
2, 856920, Note_on_c, 0, 44, 57
2, 856943, Note_on_c, 0, 44, 0
2, 857040, Note_on_c, 0, 31, 57
2, 857063, Note_on_c, 0, 31, 0
2, 857160, Note_on_c, 0, 43, 57
2, 857183, Note_on_c, 0, 43, 0
2, 857280, Note_on_c, 0, 32, 57
2, 857303, Note_on_c, 0, 32, 0
2, 857400, Note_on_c, 0, 44, 57
2, 857423, Note_on_c, 0, 44, 0
2, 857520, Note_on_c, 0, 31, 57
2, 857543, Note_on_c, 0, 31, 0
2, 857640, Note_on_c, 0, 43, 57
2, 857663, Note_on_c, 0, 43, 0
2, 857760, Note_on_c, 0, 32, 57
2, 857783, Note_on_c, 0, 32, 0
2, 857880, Note_on_c, 0, 44, 57
2, 857903, Note_on_c, 0, 44, 0
2, 858000, Note_on_c, 0, 31, 57
2, 858023, Note_on_c, 0, 31, 0
2, 858120, Note_on_c, 0, 43, 57
2, 858143, Note_on_c, 0, 43, 0
2, 858240, Note_on_c, 0, 32, 57
2, 858263, Note_on_c, 0, 32, 0
2, 858360, Note_on_c, 0, 44, 57
2, 858383, Note_on_c, 0, 44, 0
2, 858480, Note_on_c, 0, 31, 57
2, 858503, Note_on_c, 0, 31, 0
2, 858600, Note_on_c, 0, 43, 57
2, 858623, Note_on_c, 0, 43, 0
2, 858720, Note_on_c, 0, 32, 57
2, 858743, Note_on_c, 0, 32, 0
2, 858840, Note_on_c, 0, 44, 57
2, 858863, Note_on_c, 0, 44, 0
2, 858960, Note_on_c, 0, 31, 57
2, 858983, Note_on_c, 0, 31, 0
2, 859080, Note_on_c, 0, 43, 57
2, 859103, Note_on_c, 0, 43, 0
2, 859200, Note_on_c, 0, 36, 57
2, 859200, Note_on_c, 0, 48, 57
2, 859440, Note_on_c, 0, 48, 0
2, 859440, Note_on_c, 0, 36, 0
2, 859680, Note_on_c, 0, 71, 57
2, 860640, Note_on_c, 0, 71, 0
2, 860640, Note_on_c, 0, 72, 57
2, 861120, Note_on_c, 0, 72, 0
2, 861120, Note_on_c, 0, 79, 57
2, 861600, Note_on_c, 0, 79, 0
2, 861600, Note_on_c, 0, 74, 57
2, 862560, Note_on_c, 0, 74, 0
2, 862560, Note_on_c, 0, 75, 57
2, 863040, Note_on_c, 0, 75, 0
2, 863040, Note_on_c, 0, 82, 70
2, 863520, Note_on_c, 0, 82, 0
2, 863520, Note_on_c, 0, 81, 70
2, 864000, Note_on_c, 0, 81, 0
2, 864000, Note_on_c, 0, 84, 70
2, 864480, Note_on_c, 0, 84, 0
2, 864480, Note_on_c, 0, 82, 70
2, 864960, Note_on_c, 0, 82, 0
2, 864960, Note_on_c, 0, 81, 70
2, 865440, Note_on_c, 0, 81, 0
2, 865440, Note_on_c, 0, 79, 70
2, 865920, Note_on_c, 0, 79, 0
2, 865920, Note_on_c, 0, 77, 57
2, 866400, Note_on_c, 0, 77, 0
2, 866400, Note_on_c, 0, 72, 57
2, 866880, Note_on_c, 0, 72, 0
2, 866880, Note_on_c, 0, 74, 57
2, 867360, Note_on_c, 0, 74, 0
2, 867360, Note_on_c, 0, 74, 70
2, 867840, Note_on_c, 0, 74, 0
2, 867840, Note_on_c, 0, 79, 70
2, 869280, Note_on_c, 0, 79, 0
2, 869280, Note_on_c, 0, 74, 57
2, 869760, Note_on_c, 0, 74, 0
2, 869760, Note_on_c, 0, 79, 57
2, 870240, Note_on_c, 0, 79, 0
2, 870240, Note_on_c, 0, 69, 57
2, 870720, Note_on_c, 0, 69, 0
2, 870720, Note_on_c, 0, 74, 57
2, 871200, Note_on_c, 0, 74, 0
2, 871200, Note_on_c, 0, 70, 57
2, 871680, Note_on_c, 0, 70, 0
2, 871680, Note_on_c, 0, 66, 57
2, 872160, Note_on_c, 0, 66, 0
2, 872160, Note_on_c, 0, 67, 70
2, 872640, Note_on_c, 0, 67, 0
2, 872640, Note_on_c, 0, 74, 70
2, 873120, Note_on_c, 0, 74, 0
2, 873120, Note_on_c, 0, 71, 70
2, 874080, Note_on_c, 0, 71, 0
2, 874080, Note_on_c, 0, 72, 57
2, 874560, Note_on_c, 0, 72, 0
2, 874560, Note_on_c, 0, 75, 70
2, 875040, Note_on_c, 0, 75, 0
2, 875040, Note_on_c, 0, 71, 70
2, 876000, Note_on_c, 0, 71, 0
2, 876000, Note_on_c, 0, 72, 70
2, 876480, Note_on_c, 0, 72, 0
2, 876480, Note_on_c, 0, 79, 70
2, 876960, Note_on_c, 0, 79, 0
2, 876960, Note_on_c, 0, 74, 70
2, 877920, Note_on_c, 0, 74, 0
2, 877920, Note_on_c, 0, 75, 83
2, 878400, Note_on_c, 0, 75, 0
2, 878400, Note_on_c, 0, 82, 83
2, 878880, Note_on_c, 0, 82, 0
2, 878880, Note_on_c, 0, 81, 83
2, 879360, Note_on_c, 0, 81, 0
2, 879360, Note_on_c, 0, 84, 83
2, 879840, Note_on_c, 0, 84, 0
2, 879840, Note_on_c, 0, 82, 83
2, 880320, Note_on_c, 0, 82, 0
2, 880320, Note_on_c, 0, 81, 83
2, 880800, Note_on_c, 0, 81, 0
2, 880800, Note_on_c, 0, 79, 83
2, 881280, Note_on_c, 0, 79, 0
2, 881280, Note_on_c, 0, 77, 70
2, 881760, Note_on_c, 0, 77, 0
2, 881760, Note_on_c, 0, 72, 70
2, 882240, Note_on_c, 0, 72, 0
2, 882240, Note_on_c, 0, 74, 70
2, 882720, Note_on_c, 0, 74, 0
2, 882720, Note_on_c, 0, 74, 83
2, 883200, Note_on_c, 0, 74, 0
2, 883200, Note_on_c, 0, 81, 83
2, 883680, Note_on_c, 0, 81, 0
2, 883680, Note_on_c, 0, 77, 83
2, 884160, Note_on_c, 0, 77, 0
2, 884160, Note_on_c, 0, 76, 83
2, 884640, Note_on_c, 0, 76, 0
2, 884640, Note_on_c, 0, 74, 83
2, 885120, Note_on_c, 0, 74, 0
2, 885120, Note_on_c, 0, 73, 83
2, 886560, Note_on_c, 0, 73, 0
2, 886560, Note_on_c, 0, 73, 83
2, 887040, Note_on_c, 0, 73, 0
2, 887040, Note_on_c, 0, 81, 83
2, 887520, Note_on_c, 0, 81, 0
2, 887520, Note_on_c, 0, 77, 83
2, 888000, Note_on_c, 0, 77, 0
2, 888000, Note_on_c, 0, 76, 83
2, 888480, Note_on_c, 0, 76, 0
2, 888480, Note_on_c, 0, 74, 83
2, 888960, Note_on_c, 0, 74, 0
2, 888960, Note_on_c, 0, 73, 83
2, 890400, Note_on_c, 0, 73, 0
2, 890400, Note_on_c, 0, 73, 83
2, 890880, Note_on_c, 0, 73, 0
2, 890880, Note_on_c, 0, 81, 83
2, 891360, Note_on_c, 0, 81, 0
2, 891360, Note_on_c, 0, 77, 83
2, 891840, Note_on_c, 0, 77, 0
2, 891840, Note_on_c, 0, 76, 70
2, 892320, Note_on_c, 0, 76, 0
2, 892320, Note_on_c, 0, 74, 70
2, 892800, Note_on_c, 0, 74, 0
2, 892800, Note_on_c, 0, 72, 70
2, 893280, Note_on_c, 0, 72, 0
2, 893280, Note_on_c, 0, 70, 70
2, 893760, Note_on_c, 0, 70, 0
2, 893760, Note_on_c, 0, 69, 57
2, 894240, Note_on_c, 0, 69, 0
2, 894240, Note_on_c, 0, 65, 57
2, 894720, Note_on_c, 0, 65, 0
2, 894720, Note_on_c, 0, 64, 57
2, 895200, Note_on_c, 0, 64, 0
2, 895200, Note_on_c, 0, 62, 70
2, 895680, Note_on_c, 0, 62, 0
2, 895680, Note_on_c, 0, 65, 96
2, 897120, Note_on_c, 0, 65, 0
2, 897120, Note_on_c, 0, 64, 57
2, 897600, Note_on_c, 0, 64, 0
2, 898560, Control_c, 0, 64, 127
2, 898560, Note_on_c, 0, 57, 57
2, 898719, Note_on_c, 0, 57, 0
2, 898719, Note_on_c, 0, 62, 57
2, 898880, Note_on_c, 0, 62, 0
2, 898880, Note_on_c, 0, 64, 57
2, 899040, Note_on_c, 0, 64, 0
2, 899040, Note_on_c, 0, 65, 57
2, 899199, Note_on_c, 0, 65, 0
2, 899199, Note_on_c, 0, 69, 57
2, 899360, Note_on_c, 0, 69, 0
2, 899360, Control_c, 0, 64, 0
2, 899360, Note_on_c, 0, 74, 57
2, 899520, Note_on_c, 0, 74, 0
2, 899520, Note_on_c, 0, 75, 70
2, 900000, Note_on_c, 0, 75, 0
2, 900000, Note_on_c, 0, 71, 70
2, 900960, Note_on_c, 0, 71, 0
2, 900960, Note_on_c, 0, 72, 70
2, 901440, Note_on_c, 0, 72, 0
2, 901440, Note_on_c, 0, 79, 70
2, 901920, Note_on_c, 0, 79, 0
2, 901920, Note_on_c, 0, 74, 70
2, 902880, Note_on_c, 0, 74, 0
2, 902880, Note_on_c, 0, 75, 70
2, 903360, Note_on_c, 0, 75, 0
2, 903360, Note_on_c, 0, 82, 70
2, 903840, Note_on_c, 0, 82, 0
2, 903840, Note_on_c, 0, 81, 70
2, 904320, Note_on_c, 0, 81, 0
2, 904320, Note_on_c, 0, 84, 70
2, 904800, Note_on_c, 0, 84, 0
2, 904800, Note_on_c, 0, 82, 70
2, 905280, Note_on_c, 0, 82, 0
2, 905280, Note_on_c, 0, 81, 96
2, 905760, Note_on_c, 0, 81, 0
2, 905760, Note_on_c, 0, 79, 96
2, 906240, Note_on_c, 0, 79, 0
2, 906240, Note_on_c, 0, 77, 96
2, 906720, Note_on_c, 0, 77, 0
2, 906720, Note_on_c, 0, 72, 96
2, 907200, Note_on_c, 0, 72, 0
2, 907200, Note_on_c, 0, 74, 70
2, 907680, Note_on_c, 0, 74, 0
2, 907680, Note_on_c, 0, 74, 70
2, 908160, Note_on_c, 0, 74, 0
2, 908160, Note_on_c, 0, 79, 96
2, 909600, Note_on_c, 0, 79, 0
2, 909600, Note_on_c, 0, 74, 70
2, 910080, Note_on_c, 0, 74, 0
2, 910080, Note_on_c, 0, 79, 96
2, 910560, Note_on_c, 0, 79, 0
2, 910560, Note_on_c, 0, 69, 70
2, 911040, Note_on_c, 0, 69, 0
2, 911040, Note_on_c, 0, 74, 70
2, 911520, Note_on_c, 0, 74, 0
2, 911520, Note_on_c, 0, 70, 70
2, 912000, Note_on_c, 0, 70, 0
2, 912000, Note_on_c, 0, 66, 70
2, 912480, Note_on_c, 0, 66, 0
2, 912480, Note_on_c, 0, 67, 70
2, 912960, Note_on_c, 0, 67, 0
2, 912960, Note_on_c, 0, 74, 70
2, 913440, Note_on_c, 0, 74, 0
2, 913440, Note_on_c, 0, 71, 70
2, 914400, Note_on_c, 0, 71, 0
2, 914400, Note_on_c, 0, 72, 70
2, 914880, Note_on_c, 0, 72, 0
2, 914880, Note_on_c, 0, 75, 70
2, 915360, Note_on_c, 0, 75, 0
2, 915360, Note_on_c, 0, 71, 70
2, 916320, Note_on_c, 0, 71, 0
2, 916320, Note_on_c, 0, 72, 70
2, 916800, Note_on_c, 0, 72, 0
2, 916800, Note_on_c, 0, 79, 83
2, 917280, Note_on_c, 0, 79, 0
2, 917280, Note_on_c, 0, 74, 83
2, 918240, Note_on_c, 0, 74, 0
2, 918240, Note_on_c, 0, 75, 83
2, 918720, Note_on_c, 0, 75, 0
2, 918720, Note_on_c, 0, 70, 83
2, 918720, Note_on_c, 0, 82, 83
2, 919200, Note_on_c, 0, 82, 0
2, 919200, Note_on_c, 0, 70, 0
2, 919200, Note_on_c, 0, 69, 83
2, 919200, Note_on_c, 0, 81, 83
2, 919680, Note_on_c, 0, 81, 0
2, 919680, Note_on_c, 0, 69, 0
2, 919680, Note_on_c, 0, 74, 109
2, 919680, Note_on_c, 0, 86, 109
2, 920160, Note_on_c, 0, 86, 0
2, 920160, Note_on_c, 0, 74, 0
2, 920160, Note_on_c, 0, 72, 109
2, 920160, Note_on_c, 0, 84, 109
2, 920640, Note_on_c, 0, 84, 0
2, 920640, Note_on_c, 0, 72, 0
2, 920640, Note_on_c, 0, 70, 109
2, 920640, Note_on_c, 0, 82, 109
2, 921120, Note_on_c, 0, 82, 0
2, 921120, Note_on_c, 0, 70, 0
2, 921120, Note_on_c, 0, 66, 109
2, 921120, Note_on_c, 0, 78, 109
2, 921600, Note_on_c, 0, 78, 0
2, 921600, Note_on_c, 0, 66, 0
2, 921600, Note_on_c, 0, 67, 109
2, 921600, Note_on_c, 0, 79, 109
2, 922080, Note_on_c, 0, 79, 0
2, 922080, Note_on_c, 0, 67, 0
2, 922080, Note_on_c, 0, 62, 109
2, 922080, Note_on_c, 0, 74, 109
2, 922560, Note_on_c, 0, 74, 0
2, 922560, Note_on_c, 0, 62, 0
2, 922560, Note_on_c, 0, 63, 83
2, 922560, Note_on_c, 0, 67, 83
2, 922560, Note_on_c, 0, 75, 83
2, 923040, Note_on_c, 0, 75, 0
2, 923040, Note_on_c, 0, 67, 0
2, 923040, Note_on_c, 0, 63, 0
2, 923040, Note_on_c, 0, 75, 83
2, 923520, Note_on_c, 0, 75, 0
2, 923520, Note_on_c, 0, 69, 83
2, 923520, Note_on_c, 0, 72, 83
2, 923520, Note_on_c, 0, 81, 83
2, 924000, Note_on_c, 0, 81, 0
2, 924000, Note_on_c, 0, 72, 0
2, 924000, Note_on_c, 0, 69, 0
2, 924000, Note_on_c, 0, 67, 83
2, 924000, Note_on_c, 0, 79, 83
2, 924480, Note_on_c, 0, 79, 0
2, 924480, Note_on_c, 0, 67, 0
2, 924480, Control_c, 0, 64, 127
2, 924480, Note_on_c, 0, 65, 83
2, 924480, Note_on_c, 0, 72, 83
2, 924480, Note_on_c, 0, 77, 83
2, 924840, Note_on_c, 0, 77, 0
2, 924840, Note_on_c, 0, 72, 0
2, 924840, Note_on_c, 0, 65, 0
2, 924840, Note_on_c, 0, 69, 83
2, 924960, Note_on_c, 0, 69, 0
2, 924960, Note_on_c, 0, 72, 83
2, 925080, Note_on_c, 0, 72, 0
2, 925080, Note_on_c, 0, 77, 83
2, 925200, Note_on_c, 0, 77, 0
2, 925200, Note_on_c, 0, 81, 83
2, 925320, Note_on_c, 0, 81, 0
2, 925320, Control_c, 0, 64, 0
2, 925320, Note_on_c, 0, 84, 83
2, 925440, Note_on_c, 0, 84, 0
2, 925440, Control_c, 0, 64, 127
2, 925440, Control_c, 0, 64, 127
2, 925440, Note_on_c, 0, 89, 83
2, 925560, Note_on_c, 0, 89, 0
2, 925560, Note_on_c, 0, 85, 83
2, 925680, Note_on_c, 0, 85, 0
2, 925680, Note_on_c, 0, 81, 83
2, 925800, Note_on_c, 0, 81, 0
2, 925800, Note_on_c, 0, 77, 83
2, 925920, Note_on_c, 0, 77, 0
2, 925920, Note_on_c, 0, 77, 83
2, 926040, Note_on_c, 0, 77, 0
2, 926040, Note_on_c, 0, 73, 83
2, 926160, Note_on_c, 0, 73, 0
2, 926160, Note_on_c, 0, 69, 83
2, 926280, Note_on_c, 0, 69, 0
2, 926280, Control_c, 0, 64, 0
2, 926280, Note_on_c, 0, 65, 83
2, 926400, Note_on_c, 0, 74, 83
2, 926400, Note_on_c, 0, 77, 83
2, 926880, Note_on_c, 0, 77, 0
2, 926880, Note_on_c, 0, 74, 0
2, 926880, Note_on_c, 0, 65, 0
2, 926880, Note_on_c, 0, 65, 109
2, 926880, Note_on_c, 0, 77, 109
2, 927360, Note_on_c, 0, 77, 0
2, 927360, Note_on_c, 0, 65, 0
2, 927360, Note_on_c, 0, 69, 109
2, 927360, Note_on_c, 0, 81, 109
2, 927840, Note_on_c, 0, 81, 0
2, 927840, Note_on_c, 0, 69, 0
2, 927840, Note_on_c, 0, 67, 109
2, 927840, Note_on_c, 0, 79, 109
2, 928320, Note_on_c, 0, 79, 0
2, 928320, Note_on_c, 0, 67, 0
2, 928320, Control_c, 0, 64, 127
2, 928320, Note_on_c, 0, 65, 83
2, 928320, Note_on_c, 0, 75, 83
2, 928320, Note_on_c, 0, 77, 83
2, 928680, Note_on_c, 0, 77, 0
2, 928680, Note_on_c, 0, 75, 0
2, 928680, Note_on_c, 0, 65, 0
2, 928680, Note_on_c, 0, 69, 83
2, 928800, Note_on_c, 0, 69, 0
2, 928800, Note_on_c, 0, 72, 83
2, 928920, Note_on_c, 0, 72, 0
2, 928920, Note_on_c, 0, 77, 83
2, 929040, Note_on_c, 0, 77, 0
2, 929040, Note_on_c, 0, 81, 83
2, 929160, Note_on_c, 0, 81, 0
2, 929160, Control_c, 0, 64, 0
2, 929160, Note_on_c, 0, 84, 83
2, 929280, Note_on_c, 0, 84, 0
2, 929280, Control_c, 0, 64, 127
2, 929280, Control_c, 0, 64, 127
2, 929280, Note_on_c, 0, 89, 83
2, 929400, Note_on_c, 0, 89, 0
2, 929400, Note_on_c, 0, 85, 83
2, 929520, Note_on_c, 0, 85, 0
2, 929520, Note_on_c, 0, 81, 83
2, 929640, Note_on_c, 0, 81, 0
2, 929640, Note_on_c, 0, 77, 83
2, 929760, Note_on_c, 0, 77, 0
2, 929760, Note_on_c, 0, 77, 83
2, 929880, Note_on_c, 0, 77, 0
2, 929880, Note_on_c, 0, 73, 83
2, 930000, Note_on_c, 0, 73, 0
2, 930000, Note_on_c, 0, 69, 83
2, 930120, Note_on_c, 0, 69, 0
2, 930120, Control_c, 0, 64, 0
2, 930120, Note_on_c, 0, 65, 83
2, 930240, Note_on_c, 0, 65, 0
2, 930720, Note_on_c, 0, 65, 70
2, 930720, Note_on_c, 0, 77, 70
2, 931200, Note_on_c, 0, 77, 0
2, 931200, Note_on_c, 0, 65, 0
2, 931680, Note_on_c, 0, 67, 70
2, 931680, Note_on_c, 0, 79, 70
2, 932160, Note_on_c, 0, 79, 0
2, 932160, Note_on_c, 0, 67, 0
2, 932640, Note_on_c, 0, 67, 70
2, 932640, Note_on_c, 0, 79, 70
2, 933120, Note_on_c, 0, 79, 0
2, 933120, Note_on_c, 0, 67, 0
2, 933600, Note_on_c, 0, 69, 70
2, 933600, Note_on_c, 0, 81, 70
2, 934080, Note_on_c, 0, 81, 0
2, 934080, Note_on_c, 0, 69, 0
2, 934560, Note_on_c, 0, 69, 70
2, 934560, Note_on_c, 0, 81, 70
2, 935040, Note_on_c, 0, 81, 0
2, 935040, Note_on_c, 0, 69, 0
2, 935520, Note_on_c, 0, 70, 70
2, 935520, Note_on_c, 0, 82, 70
2, 936000, Note_on_c, 0, 82, 0
2, 936000, Note_on_c, 0, 70, 0
2, 936480, Note_on_c, 0, 70, 70
2, 936480, Note_on_c, 0, 82, 70
2, 936960, Note_on_c, 0, 82, 0
2, 936960, Note_on_c, 0, 70, 0
2, 937440, Note_on_c, 0, 72, 70
2, 937440, Note_on_c, 0, 84, 70
2, 937920, Note_on_c, 0, 84, 0
2, 937920, Note_on_c, 0, 72, 0
2, 937920, Control_c, 0, 64, 127
2, 937920, Note_on_c, 0, 53, 70
2, 937920, Note_on_c, 0, 65, 70
2, 938040, Note_on_c, 0, 65, 0
2, 938040, Note_on_c, 0, 53, 0
2, 938040, Note_on_c, 0, 58, 70
2, 938040, Note_on_c, 0, 61, 70
2, 938160, Note_on_c, 0, 61, 0
2, 938160, Note_on_c, 0, 58, 0
2, 938160, Note_on_c, 0, 73, 70
2, 938160, Note_on_c, 0, 85, 70
2, 938280, Note_on_c, 0, 85, 0
2, 938280, Note_on_c, 0, 73, 0
2, 938280, Control_c, 0, 64, 0
2, 938280, Note_on_c, 0, 77, 70
2, 938280, Note_on_c, 0, 82, 70
2, 938400, Note_on_c, 0, 82, 0
2, 938400, Note_on_c, 0, 77, 0
2, 938400, Control_c, 0, 64, 127
2, 938400, Note_on_c, 0, 58, 70
2, 938400, Note_on_c, 0, 70, 70
2, 938520, Note_on_c, 0, 70, 0
2, 938520, Note_on_c, 0, 58, 0
2, 938520, Note_on_c, 0, 62, 70
2, 938520, Note_on_c, 0, 65, 70
2, 938640, Note_on_c, 0, 65, 0
2, 938640, Note_on_c, 0, 62, 0
2, 938640, Note_on_c, 0, 74, 70
2, 938640, Note_on_c, 0, 86, 70
2, 938760, Note_on_c, 0, 86, 0
2, 938760, Note_on_c, 0, 74, 0
2, 938760, Control_c, 0, 64, 0
2, 938760, Note_on_c, 0, 77, 70
2, 938760, Note_on_c, 0, 82, 70
2, 938880, Note_on_c, 0, 82, 0
2, 938880, Note_on_c, 0, 77, 0
2, 938880, Control_c, 0, 64, 127
2, 938880, Note_on_c, 0, 55, 70
2, 938880, Note_on_c, 0, 63, 70
2, 939000, Note_on_c, 0, 63, 0
2, 939000, Note_on_c, 0, 55, 0
2, 939000, Note_on_c, 0, 58, 70
2, 939000, Note_on_c, 0, 60, 70
2, 939120, Note_on_c, 0, 60, 0
2, 939120, Note_on_c, 0, 58, 0
2, 939120, Note_on_c, 0, 75, 70
2, 939120, Note_on_c, 0, 87, 70
2, 939240, Note_on_c, 0, 87, 0
2, 939240, Note_on_c, 0, 75, 0
2, 939240, Control_c, 0, 64, 0
2, 939240, Note_on_c, 0, 82, 70
2, 939240, Note_on_c, 0, 84, 70
2, 939360, Note_on_c, 0, 84, 0
2, 939360, Note_on_c, 0, 82, 0
2, 939360, Control_c, 0, 64, 127
2, 939360, Note_on_c, 0, 54, 70
2, 939360, Note_on_c, 0, 64, 70
2, 939480, Note_on_c, 0, 64, 0
2, 939480, Note_on_c, 0, 54, 0
2, 939480, Note_on_c, 0, 58, 70
2, 939480, Note_on_c, 0, 61, 70
2, 939600, Note_on_c, 0, 61, 0
2, 939600, Note_on_c, 0, 58, 0
2, 939600, Note_on_c, 0, 73, 70
2, 939600, Note_on_c, 0, 85, 70
2, 939720, Note_on_c, 0, 85, 0
2, 939720, Note_on_c, 0, 73, 0
2, 939720, Control_c, 0, 64, 0
2, 939720, Note_on_c, 0, 76, 70
2, 939720, Note_on_c, 0, 82, 70
2, 939840, Note_on_c, 0, 82, 0
2, 939840, Note_on_c, 0, 76, 0
2, 939840, Note_on_c, 0, 74, 70
2, 939840, Note_on_c, 0, 77, 70
2, 939840, Note_on_c, 0, 82, 70
2, 939840, Note_on_c, 0, 86, 70
2, 940320, Note_on_c, 0, 86, 0
2, 940320, Note_on_c, 0, 74, 0
2, 940320, Note_on_c, 0, 77, 0
2, 940320, Note_on_c, 0, 82, 0
2, 940320, Note_on_c, 0, 65, 83
2, 940320, Note_on_c, 0, 77, 83
2, 940800, Note_on_c, 0, 77, 0
2, 940800, Note_on_c, 0, 65, 0
2, 941280, Note_on_c, 0, 67, 83
2, 941280, Note_on_c, 0, 79, 83
2, 941760, Note_on_c, 0, 79, 0
2, 941760, Note_on_c, 0, 67, 0
2, 942240, Control_c, 0, 64, 127
2, 942240, Note_on_c, 0, 70, 83
2, 942240, Note_on_c, 0, 82, 83
2, 942360, Note_on_c, 0, 82, 0
2, 942360, Note_on_c, 0, 70, 0
2, 942360, Note_on_c, 0, 77, 83
2, 942480, Note_on_c, 0, 77, 0
2, 942480, Note_on_c, 0, 74, 83
2, 942600, Note_on_c, 0, 74, 0
2, 942600, Note_on_c, 0, 70, 83
2, 942720, Note_on_c, 0, 70, 0
2, 942720, Note_on_c, 0, 85, 83
2, 942840, Note_on_c, 0, 85, 0
2, 942840, Note_on_c, 0, 82, 83
2, 942960, Note_on_c, 0, 82, 0
2, 942960, Note_on_c, 0, 77, 83
2, 943080, Note_on_c, 0, 77, 0
2, 943080, Note_on_c, 0, 73, 83
2, 943200, Note_on_c, 0, 73, 0
2, 943200, Note_on_c, 0, 86, 83
2, 943320, Note_on_c, 0, 86, 0
2, 943320, Note_on_c, 0, 82, 83
2, 943440, Note_on_c, 0, 82, 0
2, 943440, Note_on_c, 0, 77, 83
2, 943560, Note_on_c, 0, 77, 0
2, 943560, Control_c, 0, 64, 0
2, 943560, Note_on_c, 0, 74, 83
2, 943680, Note_on_c, 0, 74, 0
2, 944160, Control_c, 0, 64, 127
2, 944160, Note_on_c, 0, 67, 83
2, 944160, Note_on_c, 0, 79, 83
2, 944280, Note_on_c, 0, 79, 0
2, 944280, Note_on_c, 0, 67, 0
2, 944280, Note_on_c, 0, 74, 83
2, 944400, Note_on_c, 0, 74, 0
2, 944400, Note_on_c, 0, 71, 83
2, 944520, Note_on_c, 0, 71, 0
2, 944520, Note_on_c, 0, 67, 83
2, 944640, Note_on_c, 0, 67, 0
2, 945120, Note_on_c, 0, 71, 83
2, 945120, Note_on_c, 0, 83, 83
2, 945240, Note_on_c, 0, 83, 0
2, 945240, Note_on_c, 0, 71, 0
2, 945240, Note_on_c, 0, 79, 83
2, 945360, Note_on_c, 0, 79, 0
2, 945360, Note_on_c, 0, 74, 83
2, 945480, Note_on_c, 0, 74, 0
2, 945480, Control_c, 0, 64, 0
2, 945480, Note_on_c, 0, 71, 83
2, 945600, Note_on_c, 0, 71, 0
2, 946080, Control_c, 0, 64, 127
2, 946080, Note_on_c, 0, 71, 83
2, 946080, Note_on_c, 0, 83, 83
2, 946200, Note_on_c, 0, 83, 0
2, 946200, Note_on_c, 0, 71, 0
2, 946200, Note_on_c, 0, 79, 83
2, 946320, Note_on_c, 0, 79, 0
2, 946320, Note_on_c, 0, 74, 83
2, 946440, Note_on_c, 0, 74, 0
2, 946440, Note_on_c, 0, 71, 83
2, 946560, Note_on_c, 0, 71, 0
2, 946560, Note_on_c, 0, 85, 83
2, 946680, Note_on_c, 0, 85, 0
2, 946680, Note_on_c, 0, 83, 83
2, 946800, Note_on_c, 0, 83, 0
2, 946800, Note_on_c, 0, 79, 83
2, 946920, Note_on_c, 0, 79, 0
2, 946920, Note_on_c, 0, 73, 83
2, 947040, Note_on_c, 0, 73, 0
2, 947040, Note_on_c, 0, 86, 83
2, 947160, Note_on_c, 0, 86, 0
2, 947160, Note_on_c, 0, 83, 83
2, 947280, Note_on_c, 0, 83, 0
2, 947280, Note_on_c, 0, 79, 83
2, 947400, Note_on_c, 0, 79, 0
2, 947400, Control_c, 0, 64, 0
2, 947400, Note_on_c, 0, 74, 83
2, 947520, Note_on_c, 0, 74, 0
2, 948000, Control_c, 0, 64, 127
2, 948000, Note_on_c, 0, 67, 83
2, 948000, Note_on_c, 0, 79, 83
2, 948120, Note_on_c, 0, 79, 0
2, 948120, Note_on_c, 0, 67, 0
2, 948120, Note_on_c, 0, 75, 83
2, 948240, Note_on_c, 0, 75, 0
2, 948240, Note_on_c, 0, 72, 83
2, 948360, Note_on_c, 0, 72, 0
2, 948360, Note_on_c, 0, 67, 83
2, 948480, Note_on_c, 0, 67, 0
2, 948960, Note_on_c, 0, 72, 83
2, 948960, Note_on_c, 0, 84, 83
2, 949080, Note_on_c, 0, 84, 0
2, 949080, Note_on_c, 0, 72, 0
2, 949080, Note_on_c, 0, 79, 83
2, 949200, Note_on_c, 0, 79, 0
2, 949200, Note_on_c, 0, 75, 83
2, 949320, Note_on_c, 0, 75, 0
2, 949320, Note_on_c, 0, 72, 83
2, 949440, Note_on_c, 0, 72, 0
2, 949920, Note_on_c, 0, 74, 83
2, 949920, Note_on_c, 0, 86, 83
2, 950040, Note_on_c, 0, 86, 0
2, 950040, Note_on_c, 0, 74, 0
2, 950040, Note_on_c, 0, 84, 83
2, 950160, Note_on_c, 0, 84, 0
2, 950160, Note_on_c, 0, 79, 83
2, 950280, Note_on_c, 0, 79, 0
2, 950280, Note_on_c, 0, 74, 83
2, 950400, Note_on_c, 0, 74, 0
2, 950400, Note_on_c, 0, 74, 83
2, 950520, Note_on_c, 0, 74, 0
2, 950520, Note_on_c, 0, 72, 83
2, 950640, Note_on_c, 0, 72, 0
2, 950640, Note_on_c, 0, 67, 83
2, 950760, Note_on_c, 0, 67, 0
2, 950760, Note_on_c, 0, 62, 83
2, 950880, Note_on_c, 0, 62, 0
2, 950880, Note_on_c, 0, 75, 83
2, 950880, Note_on_c, 0, 87, 83
2, 951000, Note_on_c, 0, 87, 0
2, 951000, Note_on_c, 0, 75, 0
2, 951000, Note_on_c, 0, 84, 83
2, 951120, Note_on_c, 0, 84, 0
2, 951120, Note_on_c, 0, 79, 83
2, 951240, Note_on_c, 0, 79, 0
2, 951240, Control_c, 0, 64, 0
2, 951240, Note_on_c, 0, 75, 83
2, 951360, Note_on_c, 0, 75, 0
2, 951360, Control_c, 0, 64, 127
2, 951360, Note_on_c, 0, 63, 83
2, 951360, Note_on_c, 0, 75, 83
2, 951480, Note_on_c, 0, 75, 0
2, 951480, Note_on_c, 0, 63, 0
2, 951480, Note_on_c, 0, 73, 83
2, 951600, Note_on_c, 0, 73, 0
2, 951600, Note_on_c, 0, 67, 83
2, 951720, Note_on_c, 0, 67, 0
2, 951720, Note_on_c, 0, 63, 83
2, 951840, Note_on_c, 0, 63, 0
2, 951840, Note_on_c, 0, 75, 83
2, 951840, Note_on_c, 0, 87, 83
2, 951960, Note_on_c, 0, 87, 0
2, 951960, Note_on_c, 0, 75, 0
2, 951960, Note_on_c, 0, 85, 83
2, 952080, Note_on_c, 0, 85, 0
2, 952080, Note_on_c, 0, 79, 83
2, 952200, Note_on_c, 0, 79, 0
2, 952200, Note_on_c, 0, 75, 83
2, 952320, Note_on_c, 0, 75, 0
2, 952320, Note_on_c, 0, 63, 83
2, 952320, Note_on_c, 0, 75, 83
2, 952440, Note_on_c, 0, 75, 0
2, 952440, Note_on_c, 0, 63, 0
2, 952440, Note_on_c, 0, 73, 83
2, 952560, Note_on_c, 0, 73, 0
2, 952560, Note_on_c, 0, 67, 83
2, 952680, Note_on_c, 0, 67, 0
2, 952680, Note_on_c, 0, 63, 83
2, 952800, Note_on_c, 0, 63, 0
2, 952800, Note_on_c, 0, 75, 83
2, 952800, Note_on_c, 0, 87, 83
2, 952920, Note_on_c, 0, 87, 0
2, 952920, Note_on_c, 0, 75, 0
2, 952920, Note_on_c, 0, 85, 83
2, 953040, Note_on_c, 0, 85, 0
2, 953040, Note_on_c, 0, 79, 83
2, 953160, Note_on_c, 0, 79, 0
2, 953160, Control_c, 0, 64, 0
2, 953160, Note_on_c, 0, 75, 83
2, 953280, Note_on_c, 0, 75, 0
2, 953280, Note_on_c, 0, 64, 109
2, 953280, Note_on_c, 0, 76, 109
2, 953400, Note_on_c, 0, 76, 0
2, 953400, Note_on_c, 0, 64, 0
2, 953400, Note_on_c, 0, 73, 83
2, 953520, Note_on_c, 0, 73, 0
2, 953520, Note_on_c, 0, 67, 83
2, 953640, Note_on_c, 0, 67, 0
2, 953640, Note_on_c, 0, 64, 83
2, 953760, Note_on_c, 0, 64, 0
2, 953760, Control_c, 0, 64, 127
2, 953760, Note_on_c, 0, 75, 83
2, 953760, Note_on_c, 0, 87, 83
2, 953880, Note_on_c, 0, 87, 0
2, 953880, Note_on_c, 0, 75, 0
2, 953880, Note_on_c, 0, 85, 83
2, 954000, Note_on_c, 0, 85, 0
2, 954000, Note_on_c, 0, 79, 83
2, 954120, Note_on_c, 0, 79, 0
2, 954120, Note_on_c, 0, 75, 83
2, 954240, Note_on_c, 0, 75, 0
2, 954240, Note_on_c, 0, 63, 83
2, 954240, Note_on_c, 0, 75, 83
2, 954360, Note_on_c, 0, 75, 0
2, 954360, Note_on_c, 0, 63, 0
2, 954360, Note_on_c, 0, 73, 83
2, 954480, Note_on_c, 0, 73, 0
2, 954480, Note_on_c, 0, 67, 83
2, 954600, Note_on_c, 0, 67, 0
2, 954600, Control_c, 0, 64, 0
2, 954600, Note_on_c, 0, 63, 83
2, 954720, Note_on_c, 0, 63, 0
2, 954720, Control_c, 0, 64, 127
2, 954720, Note_on_c, 0, 76, 83
2, 954720, Note_on_c, 0, 88, 83
2, 954840, Note_on_c, 0, 88, 0
2, 954840, Note_on_c, 0, 76, 0
2, 954840, Note_on_c, 0, 85, 83
2, 954960, Note_on_c, 0, 85, 0
2, 954960, Note_on_c, 0, 79, 83
2, 955080, Note_on_c, 0, 79, 0
2, 955080, Note_on_c, 0, 76, 83
2, 955200, Note_on_c, 0, 76, 0
2, 955200, Note_on_c, 0, 64, 109
2, 955200, Note_on_c, 0, 76, 109
2, 955320, Note_on_c, 0, 76, 0
2, 955320, Note_on_c, 0, 64, 0
2, 955320, Note_on_c, 0, 73, 83
2, 955440, Note_on_c, 0, 73, 0
2, 955440, Note_on_c, 0, 67, 83
2, 955560, Note_on_c, 0, 67, 0
2, 955560, Control_c, 0, 64, 0
2, 955560, Note_on_c, 0, 64, 83
2, 955680, Note_on_c, 0, 64, 0
2, 955680, Control_c, 0, 64, 127
2, 955680, Note_on_c, 0, 75, 83
2, 955680, Note_on_c, 0, 87, 83
2, 955800, Note_on_c, 0, 87, 0
2, 955800, Note_on_c, 0, 75, 0
2, 955800, Note_on_c, 0, 85, 83
2, 955920, Note_on_c, 0, 85, 0
2, 955920, Note_on_c, 0, 79, 83
2, 956040, Note_on_c, 0, 79, 0
2, 956040, Note_on_c, 0, 75, 83
2, 956160, Note_on_c, 0, 75, 0
2, 956160, Note_on_c, 0, 63, 83
2, 956160, Note_on_c, 0, 75, 83
2, 956280, Note_on_c, 0, 75, 0
2, 956280, Note_on_c, 0, 63, 0
2, 956280, Note_on_c, 0, 73, 83
2, 956400, Note_on_c, 0, 73, 0
2, 956400, Note_on_c, 0, 67, 83
2, 956520, Note_on_c, 0, 67, 0
2, 956520, Control_c, 0, 64, 0
2, 956520, Note_on_c, 0, 63, 83
2, 956640, Note_on_c, 0, 63, 0
2, 956640, Control_c, 0, 64, 127
2, 956640, Note_on_c, 0, 76, 83
2, 956640, Note_on_c, 0, 88, 83
2, 956760, Note_on_c, 0, 88, 0
2, 956760, Note_on_c, 0, 76, 0
2, 956760, Note_on_c, 0, 85, 83
2, 956880, Note_on_c, 0, 85, 0
2, 956880, Note_on_c, 0, 79, 83
2, 957000, Note_on_c, 0, 79, 0
2, 957000, Note_on_c, 0, 76, 83
2, 957120, Note_on_c, 0, 76, 0
2, 957120, Note_on_c, 0, 64, 109
2, 957120, Note_on_c, 0, 76, 109
2, 957240, Note_on_c, 0, 76, 0
2, 957240, Note_on_c, 0, 64, 0
2, 957240, Note_on_c, 0, 73, 83
2, 957360, Note_on_c, 0, 73, 0
2, 957360, Note_on_c, 0, 67, 83
2, 957480, Note_on_c, 0, 67, 0
2, 957480, Control_c, 0, 64, 0
2, 957480, Note_on_c, 0, 64, 83
2, 957600, Note_on_c, 0, 64, 0
2, 957600, Control_c, 0, 64, 127
2, 957600, Note_on_c, 0, 75, 83
2, 957600, Note_on_c, 0, 87, 83
2, 957720, Note_on_c, 0, 87, 0
2, 957720, Note_on_c, 0, 75, 0
2, 957720, Note_on_c, 0, 85, 83
2, 957840, Note_on_c, 0, 85, 0
2, 957840, Note_on_c, 0, 79, 83
2, 957960, Note_on_c, 0, 79, 0
2, 957960, Note_on_c, 0, 75, 83
2, 958080, Note_on_c, 0, 75, 0
2, 958080, Note_on_c, 0, 63, 83
2, 958080, Note_on_c, 0, 75, 83
2, 958200, Note_on_c, 0, 75, 0
2, 958200, Note_on_c, 0, 63, 0
2, 958200, Note_on_c, 0, 73, 83
2, 958320, Note_on_c, 0, 73, 0
2, 958320, Note_on_c, 0, 67, 83
2, 958440, Note_on_c, 0, 67, 0
2, 958440, Control_c, 0, 64, 0
2, 958440, Note_on_c, 0, 63, 83
2, 958560, Note_on_c, 0, 63, 0
2, 958560, Note_on_c, 0, 88, 83
2, 958680, Note_on_c, 0, 88, 0
2, 958680, Note_on_c, 0, 85, 83
2, 958800, Note_on_c, 0, 85, 0
2, 958800, Note_on_c, 0, 79, 83
2, 958920, Note_on_c, 0, 79, 0
2, 958920, Note_on_c, 0, 76, 83
2, 959040, Note_on_c, 0, 76, 0
2, 959040, Control_c, 0, 64, 127
2, 959040, Note_on_c, 0, 82, 96
2, 959040, Note_on_c, 0, 86, 96
2, 959040, Note_on_c, 0, 89, 96
2, 959199, Note_on_c, 0, 89, 0
2, 959199, Note_on_c, 0, 86, 0
2, 959199, Note_on_c, 0, 82, 0
2, 959199, Note_on_c, 0, 77, 96
2, 959360, Note_on_c, 0, 77, 0
2, 959360, Note_on_c, 0, 70, 96
2, 959360, Note_on_c, 0, 74, 96
2, 959360, Note_on_c, 0, 77, 96
2, 959520, Note_on_c, 0, 77, 0
2, 959520, Note_on_c, 0, 74, 0
2, 959520, Note_on_c, 0, 70, 0
2, 960480, Control_c, 0, 64, 0
2, 960960, Control_c, 0, 64, 127
2, 960960, Note_on_c, 0, 83, 96
2, 960960, Note_on_c, 0, 86, 96
2, 960960, Note_on_c, 0, 91, 96
2, 961119, Note_on_c, 0, 91, 0
2, 961119, Note_on_c, 0, 86, 0
2, 961119, Note_on_c, 0, 83, 0
2, 961119, Note_on_c, 0, 79, 96
2, 961280, Note_on_c, 0, 79, 0
2, 961280, Note_on_c, 0, 71, 96
2, 961280, Note_on_c, 0, 74, 96
2, 961280, Note_on_c, 0, 79, 96
2, 961440, Note_on_c, 0, 79, 0
2, 961440, Note_on_c, 0, 74, 0
2, 961440, Note_on_c, 0, 71, 0
2, 962400, Control_c, 0, 64, 0
2, 962880, Control_c, 0, 64, 127
2, 962880, Note_on_c, 0, 84, 96
2, 962880, Note_on_c, 0, 87, 96
2, 962880, Note_on_c, 0, 92, 96
2, 963039, Note_on_c, 0, 92, 0
2, 963039, Note_on_c, 0, 87, 0
2, 963039, Note_on_c, 0, 84, 0
2, 963039, Note_on_c, 0, 80, 96
2, 963200, Note_on_c, 0, 80, 0
2, 963200, Note_on_c, 0, 72, 96
2, 963200, Note_on_c, 0, 75, 96
2, 963200, Note_on_c, 0, 80, 96
2, 963360, Note_on_c, 0, 80, 0
2, 963360, Note_on_c, 0, 75, 0
2, 963360, Note_on_c, 0, 72, 0
2, 964320, Control_c, 0, 64, 0
2, 964800, Control_c, 0, 64, 127
2, 964800, Note_on_c, 0, 85, 96
2, 964800, Note_on_c, 0, 88, 96
2, 964800, Note_on_c, 0, 93, 96
2, 964959, Note_on_c, 0, 93, 0
2, 964959, Note_on_c, 0, 88, 0
2, 964959, Note_on_c, 0, 85, 0
2, 964959, Note_on_c, 0, 81, 96
2, 965120, Note_on_c, 0, 81, 0
2, 965120, Note_on_c, 0, 73, 96
2, 965120, Note_on_c, 0, 76, 96
2, 965120, Note_on_c, 0, 81, 96
2, 965280, Note_on_c, 0, 81, 0
2, 965280, Note_on_c, 0, 76, 0
2, 965280, Note_on_c, 0, 73, 0
2, 966240, Control_c, 0, 64, 0
2, 966720, Control_c, 0, 64, 127
2, 966720, Note_on_c, 0, 86, 96
2, 966720, Note_on_c, 0, 89, 96
2, 966720, Note_on_c, 0, 94, 96
2, 966879, Note_on_c, 0, 94, 0
2, 966879, Note_on_c, 0, 89, 0
2, 966879, Note_on_c, 0, 86, 0
2, 966879, Note_on_c, 0, 82, 96
2, 967040, Note_on_c, 0, 82, 0
2, 967040, Note_on_c, 0, 74, 96
2, 967040, Note_on_c, 0, 77, 96
2, 967200, Note_on_c, 0, 77, 0
2, 967200, Note_on_c, 0, 74, 0
2, 967200, Note_on_c, 0, 74, 96
2, 967200, Note_on_c, 0, 77, 96
2, 967200, Note_on_c, 0, 82, 96
2, 967359, Note_on_c, 0, 82, 0
2, 967359, Note_on_c, 0, 77, 0
2, 967359, Note_on_c, 0, 74, 0
2, 967359, Note_on_c, 0, 70, 96
2, 967520, Note_on_c, 0, 70, 0
2, 967520, Control_c, 0, 64, 0
2, 967520, Note_on_c, 0, 62, 96
2, 967520, Note_on_c, 0, 65, 96
2, 967680, Note_on_c, 0, 65, 0
2, 967680, Note_on_c, 0, 62, 0
2, 967680, Control_c, 0, 64, 127
2, 967680, Note_on_c, 0, 87, 96
2, 967680, Note_on_c, 0, 90, 96
2, 967680, Note_on_c, 0, 95, 96
2, 967839, Note_on_c, 0, 95, 0
2, 967839, Note_on_c, 0, 90, 0
2, 967839, Note_on_c, 0, 87, 0
2, 967839, Note_on_c, 0, 83, 96
2, 968000, Note_on_c, 0, 83, 0
2, 968000, Note_on_c, 0, 75, 96
2, 968000, Note_on_c, 0, 78, 96
2, 968160, Note_on_c, 0, 78, 0
2, 968160, Note_on_c, 0, 75, 0
2, 968160, Note_on_c, 0, 75, 96
2, 968160, Note_on_c, 0, 78, 96
2, 968160, Note_on_c, 0, 83, 96
2, 968319, Note_on_c, 0, 83, 0
2, 968319, Note_on_c, 0, 78, 0
2, 968319, Note_on_c, 0, 75, 0
2, 968319, Note_on_c, 0, 71, 96
2, 968480, Note_on_c, 0, 71, 0
2, 968480, Control_c, 0, 64, 0
2, 968480, Note_on_c, 0, 63, 96
2, 968480, Note_on_c, 0, 66, 96
2, 968640, Note_on_c, 0, 66, 0
2, 968640, Note_on_c, 0, 63, 0
2, 968640, Control_c, 0, 64, 127
2, 968640, Note_on_c, 0, 88, 96
2, 968640, Note_on_c, 0, 91, 96
2, 968640, Note_on_c, 0, 96, 96
2, 968799, Note_on_c, 0, 96, 0
2, 968799, Note_on_c, 0, 91, 0
2, 968799, Note_on_c, 0, 88, 0
2, 968799, Note_on_c, 0, 84, 96
2, 968960, Note_on_c, 0, 84, 0
2, 968960, Note_on_c, 0, 76, 96
2, 968960, Note_on_c, 0, 79, 96
2, 969120, Note_on_c, 0, 79, 0
2, 969120, Note_on_c, 0, 76, 0
2, 969120, Note_on_c, 0, 76, 96
2, 969120, Note_on_c, 0, 79, 96
2, 969120, Note_on_c, 0, 84, 96
2, 969279, Note_on_c, 0, 84, 0
2, 969279, Note_on_c, 0, 79, 0
2, 969279, Note_on_c, 0, 76, 0
2, 969279, Note_on_c, 0, 72, 96
2, 969440, Note_on_c, 0, 72, 0
2, 969440, Control_c, 0, 64, 0
2, 969440, Note_on_c, 0, 64, 96
2, 969440, Note_on_c, 0, 67, 96
2, 969600, Note_on_c, 0, 67, 0
2, 969600, Note_on_c, 0, 64, 0
2, 969600, Control_c, 0, 64, 127
2, 969600, Note_on_c, 0, 89, 96
2, 969600, Note_on_c, 0, 92, 96
2, 969600, Note_on_c, 0, 97, 96
2, 969759, Note_on_c, 0, 97, 0
2, 969759, Note_on_c, 0, 92, 0
2, 969759, Note_on_c, 0, 89, 0
2, 969759, Note_on_c, 0, 85, 96
2, 969920, Note_on_c, 0, 85, 0
2, 969920, Note_on_c, 0, 77, 96
2, 969920, Note_on_c, 0, 80, 96
2, 970080, Note_on_c, 0, 80, 0
2, 970080, Note_on_c, 0, 77, 0
2, 970080, Note_on_c, 0, 77, 96
2, 970080, Note_on_c, 0, 80, 96
2, 970080, Note_on_c, 0, 85, 96
2, 970239, Note_on_c, 0, 85, 0
2, 970239, Note_on_c, 0, 80, 0
2, 970239, Note_on_c, 0, 77, 0
2, 970239, Note_on_c, 0, 73, 96
2, 970400, Note_on_c, 0, 73, 0
2, 970400, Control_c, 0, 64, 0
2, 970400, Note_on_c, 0, 65, 96
2, 970400, Note_on_c, 0, 68, 96
2, 970560, Note_on_c, 0, 68, 0
2, 970560, Note_on_c, 0, 65, 0
2, 970560, Note_on_c, 0, 90, 96
2, 970560, Note_on_c, 0, 93, 96
2, 970560, Note_on_c, 0, 98, 96
2, 970719, Note_on_c, 0, 98, 0
2, 970719, Note_on_c, 0, 93, 0
2, 970719, Note_on_c, 0, 90, 0
2, 970719, Note_on_c, 0, 86, 96
2, 970880, Note_on_c, 0, 86, 0
2, 970880, Note_on_c, 0, 78, 96
2, 970880, Note_on_c, 0, 81, 96
2, 971040, Note_on_c, 0, 81, 0
2, 971040, Note_on_c, 0, 78, 0
2, 971040, Note_on_c, 0, 91, 96
2, 971040, Note_on_c, 0, 94, 96
2, 971040, Note_on_c, 0, 99, 96
2, 971199, Note_on_c, 0, 99, 0
2, 971199, Note_on_c, 0, 94, 0
2, 971199, Note_on_c, 0, 91, 0
2, 971199, Note_on_c, 0, 87, 96
2, 971360, Note_on_c, 0, 87, 0
2, 971360, Note_on_c, 0, 79, 96
2, 971360, Note_on_c, 0, 82, 96
2, 971520, Note_on_c, 0, 82, 0
2, 971520, Note_on_c, 0, 79, 0
2, 971520, Note_on_c, 0, 92, 96
2, 971520, Note_on_c, 0, 95, 96
2, 971520, Note_on_c, 0, 100, 96
2, 971679, Note_on_c, 0, 100, 0
2, 971679, Note_on_c, 0, 95, 0
2, 971679, Note_on_c, 0, 92, 0
2, 971679, Note_on_c, 0, 88, 96
2, 971840, Note_on_c, 0, 88, 0
2, 971840, Note_on_c, 0, 80, 96
2, 971840, Note_on_c, 0, 83, 96
2, 972000, Note_on_c, 0, 83, 0
2, 972000, Note_on_c, 0, 80, 0
2, 972000, Note_on_c, 0, 93, 96
2, 972000, Note_on_c, 0, 96, 96
2, 972000, Note_on_c, 0, 101, 96
2, 972159, Note_on_c, 0, 101, 0
2, 972159, Note_on_c, 0, 96, 0
2, 972159, Note_on_c, 0, 93, 0
2, 972159, Note_on_c, 0, 90, 96
2, 972320, Note_on_c, 0, 90, 0
2, 972320, Note_on_c, 0, 81, 96
2, 972320, Note_on_c, 0, 84, 96
2, 972480, Note_on_c, 0, 84, 0
2, 972480, Note_on_c, 0, 81, 0
2, 972480, Note_on_c, 0, 94, 96
2, 972480, Note_on_c, 0, 97, 96
2, 972480, Note_on_c, 0, 102, 96
2, 972639, Note_on_c, 0, 102, 0
2, 972639, Note_on_c, 0, 97, 0
2, 972639, Note_on_c, 0, 94, 0
2, 972639, Note_on_c, 0, 90, 96
2, 972800, Note_on_c, 0, 90, 0
2, 972800, Note_on_c, 0, 82, 96
2, 972800, Note_on_c, 0, 85, 96
2, 972960, Note_on_c, 0, 85, 0
2, 972960, Note_on_c, 0, 82, 0
2, 972960, Note_on_c, 0, 95, 96
2, 972960, Note_on_c, 0, 98, 96
2, 972960, Note_on_c, 0, 103, 96
2, 973119, Note_on_c, 0, 103, 0
2, 973119, Note_on_c, 0, 98, 0
2, 973119, Note_on_c, 0, 95, 0
2, 973119, Note_on_c, 0, 91, 96
2, 973280, Note_on_c, 0, 91, 0
2, 973280, Note_on_c, 0, 83, 96
2, 973280, Note_on_c, 0, 86, 96
2, 973440, Note_on_c, 0, 86, 0
2, 973440, Note_on_c, 0, 83, 0
2, 973440, Note_on_c, 0, 96, 96
2, 973440, Note_on_c, 0, 99, 96
2, 973440, Note_on_c, 0, 104, 96
2, 973599, Note_on_c, 0, 104, 0
2, 973599, Note_on_c, 0, 99, 0
2, 973599, Note_on_c, 0, 96, 0
2, 973599, Note_on_c, 0, 92, 96
2, 973760, Note_on_c, 0, 92, 0
2, 973760, Note_on_c, 0, 84, 96
2, 973760, Note_on_c, 0, 87, 96
2, 973920, Note_on_c, 0, 87, 0
2, 973920, Note_on_c, 0, 84, 0
2, 973920, Note_on_c, 0, 96, 96
2, 973920, Note_on_c, 0, 99, 96
2, 973920, Note_on_c, 0, 105, 96
2, 974079, Note_on_c, 0, 105, 0
2, 974079, Note_on_c, 0, 99, 0
2, 974079, Note_on_c, 0, 96, 0
2, 974079, Note_on_c, 0, 93, 96
2, 974240, Note_on_c, 0, 93, 0
2, 974240, Note_on_c, 0, 84, 96
2, 974240, Note_on_c, 0, 87, 96
2, 974400, Note_on_c, 0, 87, 0
2, 974400, Note_on_c, 0, 84, 0
2, 974400, Note_on_c, 0, 78, 96
2, 974400, Note_on_c, 0, 82, 96
2, 974400, Note_on_c, 0, 85, 96
2, 974400, Note_on_c, 0, 94, 96
2, 974400, Note_on_c, 0, 97, 96
2, 974400, Note_on_c, 0, 106, 96
2, 974640, Note_on_c, 0, 106, 0
2, 974640, Note_on_c, 0, 82, 0
2, 974640, Note_on_c, 0, 85, 0
2, 974640, Note_on_c, 0, 78, 0
2, 974640, Note_on_c, 0, 97, 0
2, 974640, Note_on_c, 0, 94, 0
2, 979110, Note_on_c, 0, 70, 96
2, 979140, Note_on_c, 0, 73, 96
2, 979170, Note_on_c, 0, 78, 96
2, 979200, Note_on_c, 0, 82, 96
2, 980160, Note_on_c, 0, 82, 0
2, 980160, Note_on_c, 0, 70, 0
2, 980160, Note_on_c, 0, 73, 0
2, 980160, Note_on_c, 0, 78, 0
2, 981030, Note_on_c, 0, 70, 96
2, 981060, Note_on_c, 0, 73, 96
2, 981090, Note_on_c, 0, 78, 96
2, 981120, Note_on_c, 0, 82, 96
2, 982080, Note_on_c, 0, 82, 0
2, 982080, Note_on_c, 0, 70, 0
2, 982080, Note_on_c, 0, 73, 0
2, 982080, Note_on_c, 0, 78, 0
2, 982470, Note_on_c, 0, 70, 96
2, 982500, Note_on_c, 0, 73, 96
2, 982530, Note_on_c, 0, 78, 96
2, 982560, Note_on_c, 0, 82, 96
2, 983040, Note_on_c, 0, 82, 0
2, 983040, Note_on_c, 0, 70, 0
2, 983040, Note_on_c, 0, 73, 0
2, 983040, Note_on_c, 0, 78, 0
2, 983430, Note_on_c, 0, 70, 96
2, 983460, Note_on_c, 0, 73, 96
2, 983490, Note_on_c, 0, 78, 96
2, 983520, Note_on_c, 0, 82, 96
2, 984000, Note_on_c, 0, 82, 0
2, 984000, Note_on_c, 0, 70, 0
2, 984000, Note_on_c, 0, 73, 0
2, 984000, Note_on_c, 0, 78, 0
2, 984390, Note_on_c, 0, 70, 96
2, 984420, Note_on_c, 0, 73, 96
2, 984450, Note_on_c, 0, 78, 96
2, 984480, Note_on_c, 0, 82, 96
2, 984960, Note_on_c, 0, 82, 0
2, 984960, Note_on_c, 0, 70, 0
2, 984960, Note_on_c, 0, 73, 0
2, 984960, Note_on_c, 0, 78, 0
2, 985350, Note_on_c, 0, 70, 96
2, 985380, Note_on_c, 0, 73, 96
2, 985410, Note_on_c, 0, 78, 96
2, 985440, Note_on_c, 0, 82, 96
2, 985920, Note_on_c, 0, 82, 0
2, 985920, Note_on_c, 0, 70, 0
2, 985920, Note_on_c, 0, 73, 0
2, 985920, Note_on_c, 0, 78, 0
2, 985920, Note_on_c, 0, 70, 96
2, 985920, Note_on_c, 0, 73, 96
2, 985920, Note_on_c, 0, 78, 96
2, 985920, Note_on_c, 0, 82, 96
2, 986880, Note_on_c, 0, 82, 0
2, 986880, Note_on_c, 0, 70, 0
2, 986880, Note_on_c, 0, 73, 0
2, 986880, Note_on_c, 0, 78, 0
2, 994080, Control_c, 0, 64, 127
2, 994080, Note_on_c, 0, 64, 70
2, 995040, Note_on_c, 0, 64, 0
2, 995040, Note_on_c, 0, 60, 70
2, 996000, Note_on_c, 0, 60, 0
2, 996000, Control_c, 0, 64, 0
2, 996000, Note_on_c, 0, 61, 70
2, 996960, Note_on_c, 0, 61, 0
2, 996960, Control_c, 0, 64, 127
2, 996960, Note_on_c, 0, 64, 70
2, 997920, Note_on_c, 0, 64, 0
2, 997920, Note_on_c, 0, 78, 70
2, 998400, Note_on_c, 0, 78, 0
2, 998400, Note_on_c, 0, 62, 70
2, 998880, Note_on_c, 0, 62, 0
2, 998880, Note_on_c, 0, 71, 70
2, 999360, Note_on_c, 0, 61, 70
2, 999840, Note_on_c, 0, 61, 0
2, 999840, Note_on_c, 0, 71, 0
2, 999840, Note_on_c, 0, 66, 70
2, 1000320, Note_on_c, 0, 66, 0
2, 1000320, Note_on_c, 0, 62, 70
2, 1000800, Note_on_c, 0, 62, 0
2, 1000800, Control_c, 0, 64, 0
2, 1000800, Note_on_c, 0, 71, 70
2, 1001280, Note_on_c, 0, 71, 0
2, 1001760, Control_c, 0, 64, 127
2, 1001760, Note_on_c, 0, 65, 70
2, 1002720, Note_on_c, 0, 65, 0
2, 1002720, Note_on_c, 0, 61, 70
2, 1003680, Note_on_c, 0, 61, 0
2, 1003680, Note_on_c, 0, 62, 70
2, 1004640, Note_on_c, 0, 62, 0
2, 1004640, Control_c, 0, 64, 0
2, 1004640, Note_on_c, 0, 65, 70
2, 1005600, Note_on_c, 0, 65, 0
2, 1005600, Control_c, 0, 64, 127
2, 1005600, Note_on_c, 0, 79, 70
2, 1006080, Note_on_c, 0, 79, 0
2, 1006080, Note_on_c, 0, 63, 70
2, 1006560, Note_on_c, 0, 63, 0
2, 1006560, Note_on_c, 0, 72, 70
2, 1007040, Note_on_c, 0, 72, 0
2, 1007040, Note_on_c, 0, 62, 70
2, 1007520, Note_on_c, 0, 62, 0
2, 1007520, Note_on_c, 0, 67, 70
2, 1008000, Note_on_c, 0, 67, 0
2, 1008000, Note_on_c, 0, 63, 70
2, 1008480, Note_on_c, 0, 63, 0
2, 1008480, Control_c, 0, 64, 0
2, 1008480, Note_on_c, 0, 72, 70
2, 1008960, Note_on_c, 0, 72, 0
2, 1008960, Control_c, 0, 64, 127
2, 1008960, Note_on_c, 0, 66, 70
2, 1009440, Note_on_c, 0, 66, 0
2, 1009440, Control_c, 0, 64, 0
2, 1009440, Note_on_c, 0, 80, 70
2, 1009920, Note_on_c, 0, 80, 0
2, 1009920, Control_c, 0, 64, 127
2, 1009920, Note_on_c, 0, 65, 70
2, 1010400, Note_on_c, 0, 65, 0
2, 1010400, Note_on_c, 0, 73, 70
2, 1010880, Note_on_c, 0, 73, 0
2, 1010880, Note_on_c, 0, 64, 70
2, 1011360, Note_on_c, 0, 64, 0
2, 1011360, Note_on_c, 0, 68, 70
2, 1011840, Note_on_c, 0, 68, 0
2, 1011840, Control_c, 0, 64, 0
2, 1011840, Note_on_c, 0, 65, 70
2, 1012320, Note_on_c, 0, 65, 0
2, 1012320, Control_c, 0, 64, 127
2, 1012320, Note_on_c, 0, 73, 70
2, 1012800, Note_on_c, 0, 73, 0
2, 1012800, Note_on_c, 0, 68, 70
2, 1013280, Note_on_c, 0, 68, 0
2, 1013280, Control_c, 0, 64, 0
2, 1013280, Note_on_c, 0, 82, 70
2, 1013760, Note_on_c, 0, 82, 0
2, 1013760, Control_c, 0, 64, 127
2, 1013760, Note_on_c, 0, 67, 70
2, 1014240, Note_on_c, 0, 67, 0
2, 1014240, Note_on_c, 0, 75, 70
2, 1014720, Note_on_c, 0, 75, 0
2, 1014720, Note_on_c, 0, 66, 70
2, 1015200, Note_on_c, 0, 66, 0
2, 1015200, Note_on_c, 0, 70, 70
2, 1015680, Note_on_c, 0, 70, 0
2, 1015680, Control_c, 0, 64, 0
2, 1015680, Note_on_c, 0, 67, 70
2, 1016160, Note_on_c, 0, 67, 0
2, 1016160, Control_c, 0, 64, 127
2, 1016160, Note_on_c, 0, 75, 70
2, 1016640, Note_on_c, 0, 75, 0
2, 1016640, Control_c, 0, 64, 0
2, 1016640, Note_on_c, 0, 70, 70
2, 1017120, Note_on_c, 0, 70, 0
2, 1017120, Control_c, 0, 64, 127
2, 1017120, Note_on_c, 0, 84, 70
2, 1017600, Note_on_c, 0, 84, 0
2, 1017600, Note_on_c, 0, 68, 70
2, 1018080, Note_on_c, 0, 68, 0
2, 1018080, Control_c, 0, 64, 0
2, 1018080, Note_on_c, 0, 69, 70
2, 1018080, Note_on_c, 0, 77, 70
2, 1018560, Note_on_c, 0, 77, 0
2, 1018560, Note_on_c, 0, 69, 0
2, 1018560, Control_c, 0, 64, 127
2, 1018560, Note_on_c, 0, 72, 70
2, 1019040, Note_on_c, 0, 72, 0
2, 1019040, Control_c, 0, 64, 0
2, 1019040, Note_on_c, 0, 86, 70
2, 1019520, Note_on_c, 0, 86, 0
2, 1019520, Control_c, 0, 64, 127
2, 1019520, Note_on_c, 0, 70, 70
2, 1020000, Note_on_c, 0, 70, 0
2, 1020000, Control_c, 0, 64, 0
2, 1020000, Note_on_c, 0, 71, 70
2, 1020000, Note_on_c, 0, 79, 70
2, 1020480, Note_on_c, 0, 79, 0
2, 1020480, Note_on_c, 0, 71, 0
2, 1020480, Control_c, 0, 64, 127
2, 1020480, Note_on_c, 0, 70, 83
2, 1020960, Note_on_c, 0, 70, 0
2, 1020960, Note_on_c, 0, 85, 83
2, 1021440, Note_on_c, 0, 85, 0
2, 1021440, Note_on_c, 0, 73, 83
2, 1021920, Note_on_c, 0, 73, 0
2, 1021920, Note_on_c, 0, 88, 83
2, 1022400, Note_on_c, 0, 88, 0
2, 1022400, Note_on_c, 0, 76, 83
2, 1022880, Note_on_c, 0, 76, 0
2, 1022880, Note_on_c, 0, 91, 83
2, 1023360, Note_on_c, 0, 91, 0
2, 1023360, Note_on_c, 0, 79, 83
2, 1023840, Note_on_c, 0, 79, 0
2, 1023840, Note_on_c, 0, 94, 83
2, 1024320, Note_on_c, 0, 94, 0
2, 1024320, Note_on_c, 0, 82, 83
2, 1024800, Note_on_c, 0, 82, 0
2, 1024800, Note_on_c, 0, 97, 83
2, 1025280, Note_on_c, 0, 97, 0
2, 1025280, Note_on_c, 0, 85, 83
2, 1025760, Note_on_c, 0, 85, 0
2, 1025760, Note_on_c, 0, 100, 83
2, 1026240, Note_on_c, 0, 100, 0
2, 1026240, Note_on_c, 0, 88, 83
2, 1026720, Note_on_c, 0, 88, 0
2, 1026720, Note_on_c, 0, 103, 83
2, 1027200, Note_on_c, 0, 103, 0
2, 1027200, Note_on_c, 0, 88, 83
2, 1027680, Note_on_c, 0, 88, 0
2, 1027680, Note_on_c, 0, 103, 83
2, 1028160, Note_on_c, 0, 103, 0
2, 1028160, Note_on_c, 0, 88, 83
2, 1028640, Note_on_c, 0, 88, 0
2, 1028640, Note_on_c, 0, 103, 83
2, 1029120, Note_on_c, 0, 103, 0
2, 1029120, Note_on_c, 0, 88, 83
2, 1029600, Note_on_c, 0, 88, 0
2, 1029600, Control_c, 0, 64, 0
2, 1029600, Note_on_c, 0, 103, 83
2, 1030080, Note_on_c, 0, 103, 0
2, 1030080, Control_c, 0, 64, 127
2, 1030080, Note_on_c, 0, 86, 83
2, 1030560, Note_on_c, 0, 86, 0
2, 1030560, Note_on_c, 0, 103, 83
2, 1031040, Note_on_c, 0, 103, 0
2, 1031040, Note_on_c, 0, 86, 70
2, 1031520, Note_on_c, 0, 86, 0
2, 1031520, Note_on_c, 0, 103, 70
2, 1032000, Note_on_c, 0, 103, 0
2, 1032000, Note_on_c, 0, 86, 70
2, 1032480, Note_on_c, 0, 86, 0
2, 1032480, Note_on_c, 0, 103, 70
2, 1032960, Note_on_c, 0, 103, 0
2, 1032960, Note_on_c, 0, 86, 57
2, 1033440, Note_on_c, 0, 86, 0
2, 1033440, Note_on_c, 0, 103, 57
2, 1033920, Note_on_c, 0, 103, 0
2, 1033920, Note_on_c, 0, 83, 57
2, 1034400, Note_on_c, 0, 83, 0
2, 1034400, Note_on_c, 0, 98, 57
2, 1034880, Note_on_c, 0, 98, 0
2, 1034880, Note_on_c, 0, 83, 57
2, 1035360, Note_on_c, 0, 83, 0
2, 1035360, Note_on_c, 0, 98, 57
2, 1035840, Note_on_c, 0, 98, 0
2, 1035840, Note_on_c, 0, 79, 57
2, 1036320, Note_on_c, 0, 79, 0
2, 1036320, Note_on_c, 0, 95, 57
2, 1036800, Note_on_c, 0, 95, 0
2, 1036800, Note_on_c, 0, 79, 57
2, 1037280, Note_on_c, 0, 79, 0
2, 1037280, Note_on_c, 0, 91, 57
2, 1037400, Note_on_c, 0, 91, 0
2, 1037400, Note_on_c, 0, 79, 57
2, 1037520, Note_on_c, 0, 79, 0
2, 1037520, Note_on_c, 0, 81, 57
2, 1037640, Note_on_c, 0, 81, 0
2, 1037640, Control_c, 0, 64, 0
2, 1037640, Note_on_c, 0, 79, 57
2, 1037760, Note_on_c, 0, 79, 0
2, 1037760, Control_c, 0, 64, 127
2, 1037760, Note_on_c, 0, 93, 57
2, 1037880, Note_on_c, 0, 93, 0
2, 1037880, Note_on_c, 0, 79, 57
2, 1038000, Note_on_c, 0, 79, 0
2, 1038000, Note_on_c, 0, 81, 57
2, 1038120, Note_on_c, 0, 81, 0
2, 1038120, Note_on_c, 0, 79, 57
2, 1038240, Note_on_c, 0, 79, 0
2, 1038240, Note_on_c, 0, 95, 57
2, 1038360, Note_on_c, 0, 95, 0
2, 1038360, Note_on_c, 0, 79, 57
2, 1038480, Note_on_c, 0, 79, 0
2, 1038480, Note_on_c, 0, 81, 57
2, 1038600, Note_on_c, 0, 81, 0
2, 1038600, Note_on_c, 0, 79, 57
2, 1038720, Note_on_c, 0, 79, 0
2, 1038720, Note_on_c, 0, 91, 57
2, 1038840, Note_on_c, 0, 91, 0
2, 1038840, Note_on_c, 0, 79, 57
2, 1038960, Note_on_c, 0, 79, 0
2, 1038960, Note_on_c, 0, 81, 57
2, 1039080, Note_on_c, 0, 81, 0
2, 1039080, Note_on_c, 0, 79, 57
2, 1039200, Note_on_c, 0, 79, 0
2, 1039200, Note_on_c, 0, 93, 57
2, 1039320, Note_on_c, 0, 93, 0
2, 1039320, Note_on_c, 0, 79, 57
2, 1039440, Note_on_c, 0, 79, 0
2, 1039440, Note_on_c, 0, 81, 57
2, 1039560, Note_on_c, 0, 81, 0
2, 1039560, Control_c, 0, 64, 0
2, 1039560, Note_on_c, 0, 79, 57
2, 1039680, Note_on_c, 0, 79, 0
2, 1039680, Control_c, 0, 64, 127
2, 1039680, Note_on_c, 0, 95, 57
2, 1039800, Note_on_c, 0, 95, 0
2, 1039800, Note_on_c, 0, 79, 57
2, 1039920, Note_on_c, 0, 79, 0
2, 1039920, Note_on_c, 0, 81, 57
2, 1040040, Note_on_c, 0, 81, 0
2, 1040040, Note_on_c, 0, 79, 57
2, 1040160, Note_on_c, 0, 79, 0
2, 1040160, Note_on_c, 0, 96, 57
2, 1040280, Note_on_c, 0, 96, 0
2, 1040280, Note_on_c, 0, 79, 57
2, 1040400, Note_on_c, 0, 79, 0
2, 1040400, Note_on_c, 0, 81, 57
2, 1040520, Note_on_c, 0, 81, 0
2, 1040520, Note_on_c, 0, 79, 57
2, 1040640, Note_on_c, 0, 79, 0
2, 1040640, Note_on_c, 0, 91, 57
2, 1040760, Note_on_c, 0, 91, 0
2, 1040760, Note_on_c, 0, 79, 57
2, 1040880, Note_on_c, 0, 79, 0
2, 1040880, Note_on_c, 0, 81, 57
2, 1041000, Note_on_c, 0, 81, 0
2, 1041000, Note_on_c, 0, 79, 57
2, 1041120, Note_on_c, 0, 79, 0
2, 1041120, Note_on_c, 0, 93, 57
2, 1041240, Note_on_c, 0, 93, 0
2, 1041240, Note_on_c, 0, 79, 57
2, 1041360, Note_on_c, 0, 79, 0
2, 1041360, Note_on_c, 0, 81, 57
2, 1041480, Note_on_c, 0, 81, 0
2, 1041480, Control_c, 0, 64, 0
2, 1041480, Note_on_c, 0, 79, 57
2, 1041600, Note_on_c, 0, 79, 0
2, 1041600, Control_c, 0, 64, 127
2, 1041600, Note_on_c, 0, 86, 57
2, 1041720, Note_on_c, 0, 86, 0
2, 1041720, Note_on_c, 0, 79, 57
2, 1041840, Note_on_c, 0, 79, 0
2, 1041840, Note_on_c, 0, 81, 57
2, 1041960, Note_on_c, 0, 81, 0
2, 1041960, Note_on_c, 0, 79, 57
2, 1042080, Note_on_c, 0, 79, 0
2, 1042080, Note_on_c, 0, 93, 57
2, 1042200, Note_on_c, 0, 93, 0
2, 1042200, Note_on_c, 0, 79, 57
2, 1042320, Note_on_c, 0, 79, 0
2, 1042320, Note_on_c, 0, 81, 57
2, 1042440, Note_on_c, 0, 81, 0
2, 1042440, Note_on_c, 0, 79, 57
2, 1042560, Note_on_c, 0, 79, 0
2, 1042560, Note_on_c, 0, 86, 57
2, 1042680, Note_on_c, 0, 86, 0
2, 1042680, Note_on_c, 0, 79, 57
2, 1042800, Note_on_c, 0, 79, 0
2, 1042800, Note_on_c, 0, 81, 57
2, 1042920, Note_on_c, 0, 81, 0
2, 1042920, Note_on_c, 0, 79, 57
2, 1043040, Note_on_c, 0, 79, 0
2, 1043040, Note_on_c, 0, 93, 57
2, 1043160, Note_on_c, 0, 93, 0
2, 1043160, Note_on_c, 0, 79, 57
2, 1043280, Note_on_c, 0, 79, 0
2, 1043280, Note_on_c, 0, 81, 57
2, 1043400, Note_on_c, 0, 81, 0
2, 1043400, Control_c, 0, 64, 0
2, 1043400, Note_on_c, 0, 79, 57
2, 1043520, Note_on_c, 0, 79, 0
2, 1043520, Control_c, 0, 64, 127
2, 1043520, Note_on_c, 0, 91, 57
2, 1043640, Note_on_c, 0, 91, 0
2, 1043640, Note_on_c, 0, 79, 57
2, 1043760, Note_on_c, 0, 79, 0
2, 1043760, Note_on_c, 0, 81, 57
2, 1043880, Note_on_c, 0, 81, 0
2, 1043880, Note_on_c, 0, 79, 57
2, 1044000, Note_on_c, 0, 79, 0
2, 1044000, Note_on_c, 0, 93, 57
2, 1044120, Note_on_c, 0, 93, 0
2, 1044120, Note_on_c, 0, 79, 57
2, 1044240, Note_on_c, 0, 79, 0
2, 1044240, Note_on_c, 0, 81, 57
2, 1044360, Note_on_c, 0, 81, 0
2, 1044360, Note_on_c, 0, 79, 57
2, 1044480, Note_on_c, 0, 79, 0
2, 1044480, Note_on_c, 0, 88, 57
2, 1044600, Note_on_c, 0, 88, 0
2, 1044600, Note_on_c, 0, 79, 57
2, 1044720, Note_on_c, 0, 79, 0
2, 1044720, Note_on_c, 0, 81, 57
2, 1044840, Note_on_c, 0, 81, 0
2, 1044840, Note_on_c, 0, 79, 57
2, 1044960, Note_on_c, 0, 79, 0
2, 1044960, Note_on_c, 0, 91, 57
2, 1045080, Note_on_c, 0, 91, 0
2, 1045080, Note_on_c, 0, 79, 57
2, 1045200, Note_on_c, 0, 79, 0
2, 1045200, Note_on_c, 0, 81, 57
2, 1045320, Note_on_c, 0, 81, 0
2, 1045320, Control_c, 0, 64, 0
2, 1045320, Note_on_c, 0, 79, 57
2, 1045440, Note_on_c, 0, 79, 0
2, 1045440, Control_c, 0, 64, 127
2, 1045440, Note_on_c, 0, 93, 57
2, 1045560, Note_on_c, 0, 93, 0
2, 1045560, Note_on_c, 0, 79, 57
2, 1045680, Note_on_c, 0, 79, 0
2, 1045680, Note_on_c, 0, 81, 57
2, 1045800, Note_on_c, 0, 81, 0
2, 1045800, Note_on_c, 0, 79, 57
2, 1045920, Note_on_c, 0, 79, 0
2, 1045920, Note_on_c, 0, 95, 57
2, 1046040, Note_on_c, 0, 95, 0
2, 1046040, Note_on_c, 0, 79, 57
2, 1046160, Note_on_c, 0, 79, 0
2, 1046160, Note_on_c, 0, 81, 57
2, 1046280, Note_on_c, 0, 81, 0
2, 1046280, Note_on_c, 0, 79, 57
2, 1046400, Note_on_c, 0, 79, 0
2, 1046400, Note_on_c, 0, 91, 57
2, 1046520, Note_on_c, 0, 91, 0
2, 1046520, Note_on_c, 0, 79, 57
2, 1046640, Note_on_c, 0, 79, 0
2, 1046640, Note_on_c, 0, 81, 57
2, 1046760, Note_on_c, 0, 81, 0
2, 1046760, Note_on_c, 0, 79, 57
2, 1046880, Note_on_c, 0, 79, 0
2, 1046880, Note_on_c, 0, 93, 57
2, 1047000, Note_on_c, 0, 93, 0
2, 1047000, Note_on_c, 0, 79, 57
2, 1047120, Note_on_c, 0, 79, 0
2, 1047120, Note_on_c, 0, 81, 57
2, 1047240, Note_on_c, 0, 81, 0
2, 1047240, Control_c, 0, 64, 0
2, 1047240, Note_on_c, 0, 79, 57
2, 1047360, Note_on_c, 0, 79, 0
2, 1047360, Control_c, 0, 64, 127
2, 1047360, Note_on_c, 0, 95, 57
2, 1047480, Note_on_c, 0, 95, 0
2, 1047480, Note_on_c, 0, 79, 57
2, 1047600, Note_on_c, 0, 79, 0
2, 1047600, Note_on_c, 0, 81, 57
2, 1047720, Note_on_c, 0, 81, 0
2, 1047720, Note_on_c, 0, 79, 57
2, 1047840, Note_on_c, 0, 79, 0
2, 1047840, Note_on_c, 0, 96, 57
2, 1047960, Note_on_c, 0, 96, 0
2, 1047960, Note_on_c, 0, 79, 57
2, 1048080, Note_on_c, 0, 79, 0
2, 1048080, Note_on_c, 0, 81, 57
2, 1048200, Note_on_c, 0, 81, 0
2, 1048200, Note_on_c, 0, 79, 57
2, 1048320, Note_on_c, 0, 79, 0
2, 1048320, Note_on_c, 0, 91, 57
2, 1048440, Note_on_c, 0, 91, 0
2, 1048440, Note_on_c, 0, 79, 57
2, 1048560, Note_on_c, 0, 79, 0
2, 1048560, Note_on_c, 0, 81, 57
2, 1048680, Note_on_c, 0, 81, 0
2, 1048680, Note_on_c, 0, 79, 57
2, 1048800, Note_on_c, 0, 79, 0
2, 1048800, Note_on_c, 0, 93, 57
2, 1048920, Note_on_c, 0, 93, 0
2, 1048920, Note_on_c, 0, 79, 57
2, 1049040, Note_on_c, 0, 79, 0
2, 1049040, Note_on_c, 0, 81, 57
2, 1049160, Note_on_c, 0, 81, 0
2, 1049160, Control_c, 0, 64, 0
2, 1049160, Note_on_c, 0, 79, 57
2, 1049280, Note_on_c, 0, 79, 0
2, 1049280, Control_c, 0, 64, 127
2, 1049280, Note_on_c, 0, 86, 57
2, 1049400, Note_on_c, 0, 86, 0
2, 1049400, Note_on_c, 0, 79, 57
2, 1049520, Note_on_c, 0, 79, 0
2, 1049520, Note_on_c, 0, 81, 57
2, 1049640, Note_on_c, 0, 81, 0
2, 1049640, Note_on_c, 0, 79, 57
2, 1049760, Note_on_c, 0, 79, 0
2, 1049760, Note_on_c, 0, 93, 57
2, 1049880, Note_on_c, 0, 93, 0
2, 1049880, Note_on_c, 0, 79, 57
2, 1050000, Note_on_c, 0, 79, 0
2, 1050000, Note_on_c, 0, 81, 57
2, 1050120, Note_on_c, 0, 81, 0
2, 1050120, Note_on_c, 0, 79, 57
2, 1050240, Note_on_c, 0, 79, 0
2, 1050240, Note_on_c, 0, 86, 57
2, 1050360, Note_on_c, 0, 86, 0
2, 1050360, Note_on_c, 0, 79, 57
2, 1050480, Note_on_c, 0, 79, 0
2, 1050480, Note_on_c, 0, 81, 57
2, 1050600, Note_on_c, 0, 81, 0
2, 1050600, Note_on_c, 0, 79, 57
2, 1050720, Note_on_c, 0, 79, 0
2, 1050720, Note_on_c, 0, 93, 57
2, 1050840, Note_on_c, 0, 93, 0
2, 1050840, Note_on_c, 0, 79, 57
2, 1050960, Note_on_c, 0, 79, 0
2, 1050960, Note_on_c, 0, 81, 57
2, 1051080, Note_on_c, 0, 81, 0
2, 1051080, Control_c, 0, 64, 0
2, 1051080, Note_on_c, 0, 79, 57
2, 1051200, Note_on_c, 0, 79, 0
2, 1051200, Control_c, 0, 64, 127
2, 1051200, Note_on_c, 0, 91, 57
2, 1051320, Note_on_c, 0, 91, 0
2, 1051320, Note_on_c, 0, 79, 57
2, 1051440, Note_on_c, 0, 79, 0
2, 1051440, Note_on_c, 0, 81, 57
2, 1051560, Note_on_c, 0, 81, 0
2, 1051560, Note_on_c, 0, 79, 57
2, 1051680, Note_on_c, 0, 79, 0
2, 1051680, Note_on_c, 0, 93, 57
2, 1051800, Note_on_c, 0, 93, 0
2, 1051800, Note_on_c, 0, 79, 57
2, 1051920, Note_on_c, 0, 79, 0
2, 1051920, Note_on_c, 0, 81, 57
2, 1052040, Note_on_c, 0, 81, 0
2, 1052040, Control_c, 0, 64, 0
2, 1052040, Note_on_c, 0, 79, 57
2, 1052160, Note_on_c, 0, 79, 0
2, 1052160, Control_c, 0, 64, 127
2, 1052160, Note_on_c, 0, 86, 57
2, 1052280, Note_on_c, 0, 86, 0
2, 1052280, Note_on_c, 0, 74, 57
2, 1052400, Note_on_c, 0, 74, 0
2, 1052400, Note_on_c, 0, 76, 57
2, 1052520, Note_on_c, 0, 76, 0
2, 1052520, Note_on_c, 0, 74, 57
2, 1052640, Note_on_c, 0, 74, 0
2, 1052640, Note_on_c, 0, 88, 57
2, 1052760, Note_on_c, 0, 88, 0
2, 1052760, Note_on_c, 0, 74, 57
2, 1052880, Note_on_c, 0, 74, 0
2, 1052880, Note_on_c, 0, 76, 57
2, 1053000, Note_on_c, 0, 76, 0
2, 1053000, Control_c, 0, 64, 0
2, 1053000, Note_on_c, 0, 74, 57
2, 1053120, Note_on_c, 0, 74, 0
2, 1053120, Control_c, 0, 64, 127
2, 1053120, Note_on_c, 0, 90, 57
2, 1053240, Note_on_c, 0, 90, 0
2, 1053240, Note_on_c, 0, 74, 57
2, 1053360, Note_on_c, 0, 74, 0
2, 1053360, Note_on_c, 0, 76, 57
2, 1053480, Note_on_c, 0, 76, 0
2, 1053480, Note_on_c, 0, 74, 57
2, 1053600, Note_on_c, 0, 74, 0
2, 1053600, Note_on_c, 0, 91, 57
2, 1053720, Note_on_c, 0, 91, 0
2, 1053720, Note_on_c, 0, 79, 57
2, 1053840, Note_on_c, 0, 79, 0
2, 1053840, Note_on_c, 0, 81, 57
2, 1053960, Note_on_c, 0, 81, 0
2, 1053960, Note_on_c, 0, 79, 57
2, 1054080, Note_on_c, 0, 79, 0
2, 1054080, Note_on_c, 0, 84, 57
2, 1054200, Note_on_c, 0, 84, 0
2, 1054200, Note_on_c, 0, 72, 57
2, 1054320, Note_on_c, 0, 72, 0
2, 1054320, Note_on_c, 0, 74, 57
2, 1054440, Note_on_c, 0, 74, 0
2, 1054440, Note_on_c, 0, 72, 57
2, 1054560, Note_on_c, 0, 72, 0
2, 1054560, Note_on_c, 0, 86, 57
2, 1054680, Note_on_c, 0, 86, 0
2, 1054680, Note_on_c, 0, 72, 57
2, 1054800, Note_on_c, 0, 72, 0
2, 1054800, Note_on_c, 0, 74, 57
2, 1054920, Note_on_c, 0, 74, 0
2, 1054920, Control_c, 0, 64, 0
2, 1054920, Note_on_c, 0, 72, 57
2, 1055040, Note_on_c, 0, 72, 0
2, 1055040, Control_c, 0, 64, 127
2, 1055040, Note_on_c, 0, 88, 57
2, 1055160, Note_on_c, 0, 88, 0
2, 1055160, Note_on_c, 0, 72, 57
2, 1055280, Note_on_c, 0, 72, 0
2, 1055280, Note_on_c, 0, 74, 57
2, 1055400, Note_on_c, 0, 74, 0
2, 1055400, Note_on_c, 0, 72, 57
2, 1055520, Note_on_c, 0, 72, 0
2, 1055520, Note_on_c, 0, 89, 57
2, 1055640, Note_on_c, 0, 89, 0
2, 1055640, Note_on_c, 0, 77, 57
2, 1055760, Note_on_c, 0, 77, 0
2, 1055760, Note_on_c, 0, 79, 57
2, 1055880, Note_on_c, 0, 79, 0
2, 1055880, Note_on_c, 0, 77, 57
2, 1056000, Note_on_c, 0, 77, 0
2, 1056000, Note_on_c, 0, 82, 57
2, 1056120, Note_on_c, 0, 82, 0
2, 1056120, Note_on_c, 0, 70, 57
2, 1056240, Note_on_c, 0, 70, 0
2, 1056240, Note_on_c, 0, 72, 57
2, 1056360, Note_on_c, 0, 72, 0
2, 1056360, Note_on_c, 0, 70, 57
2, 1056480, Note_on_c, 0, 70, 0
2, 1056480, Note_on_c, 0, 84, 57
2, 1056600, Note_on_c, 0, 84, 0
2, 1056600, Note_on_c, 0, 70, 57
2, 1056720, Note_on_c, 0, 70, 0
2, 1056720, Note_on_c, 0, 72, 57
2, 1056840, Note_on_c, 0, 72, 0
2, 1056840, Control_c, 0, 64, 0
2, 1056840, Note_on_c, 0, 70, 57
2, 1056960, Note_on_c, 0, 70, 0
2, 1056960, Control_c, 0, 64, 127
2, 1056960, Note_on_c, 0, 86, 57
2, 1057080, Note_on_c, 0, 86, 0
2, 1057080, Note_on_c, 0, 70, 57
2, 1057200, Note_on_c, 0, 70, 0
2, 1057200, Note_on_c, 0, 72, 57
2, 1057320, Note_on_c, 0, 72, 0
2, 1057320, Note_on_c, 0, 70, 57
2, 1057440, Note_on_c, 0, 70, 0
2, 1057440, Note_on_c, 0, 87, 57
2, 1057560, Note_on_c, 0, 87, 0
2, 1057560, Note_on_c, 0, 70, 57
2, 1057680, Note_on_c, 0, 70, 0
2, 1057680, Note_on_c, 0, 72, 57
2, 1057800, Note_on_c, 0, 72, 0
2, 1057800, Note_on_c, 0, 70, 57
2, 1057920, Note_on_c, 0, 70, 0
2, 1057920, Note_on_c, 0, 75, 57
2, 1058040, Note_on_c, 0, 75, 0
2, 1058040, Note_on_c, 0, 70, 57
2, 1058160, Note_on_c, 0, 70, 0
2, 1058160, Note_on_c, 0, 72, 57
2, 1058280, Note_on_c, 0, 72, 0
2, 1058280, Note_on_c, 0, 70, 57
2, 1058400, Note_on_c, 0, 70, 0
2, 1058400, Note_on_c, 0, 76, 57
2, 1058520, Note_on_c, 0, 76, 0
2, 1058520, Note_on_c, 0, 66, 57
2, 1058640, Note_on_c, 0, 66, 0
2, 1058640, Note_on_c, 0, 68, 57
2, 1058760, Note_on_c, 0, 68, 0
2, 1058760, Control_c, 0, 64, 0
2, 1058760, Note_on_c, 0, 66, 57
2, 1058880, Note_on_c, 0, 66, 0
2, 1058880, Control_c, 0, 64, 127
2, 1058880, Note_on_c, 0, 72, 57
2, 1059000, Note_on_c, 0, 72, 0
2, 1059000, Note_on_c, 0, 66, 57
2, 1059120, Note_on_c, 0, 66, 0
2, 1059120, Note_on_c, 0, 68, 57
2, 1059240, Note_on_c, 0, 68, 0
2, 1059240, Note_on_c, 0, 66, 57
2, 1059360, Note_on_c, 0, 66, 0
2, 1059360, Note_on_c, 0, 74, 57
2, 1059480, Note_on_c, 0, 74, 0
2, 1059480, Note_on_c, 0, 64, 57
2, 1059600, Note_on_c, 0, 64, 0
2, 1059600, Note_on_c, 0, 66, 57
2, 1059720, Note_on_c, 0, 66, 0
2, 1059720, Note_on_c, 0, 64, 57
2, 1059840, Note_on_c, 0, 64, 0
2, 1059840, Note_on_c, 0, 69, 57
2, 1059960, Note_on_c, 0, 69, 0
2, 1059960, Note_on_c, 0, 64, 57
2, 1060080, Note_on_c, 0, 64, 0
2, 1060080, Note_on_c, 0, 66, 57
2, 1060200, Note_on_c, 0, 66, 0
2, 1060200, Note_on_c, 0, 64, 57
2, 1060320, Note_on_c, 0, 64, 0
2, 1060320, Note_on_c, 0, 70, 57
2, 1060440, Note_on_c, 0, 70, 0
2, 1060440, Note_on_c, 0, 60, 57
2, 1060560, Note_on_c, 0, 60, 0
2, 1060560, Note_on_c, 0, 63, 57
2, 1060680, Note_on_c, 0, 63, 0
2, 1060680, Control_c, 0, 64, 0
2, 1060680, Note_on_c, 0, 61, 57
2, 1060800, Note_on_c, 0, 61, 0
2, 1060800, Note_on_c, 0, 64, 57
2, 1060920, Note_on_c, 0, 64, 0
2, 1060920, Note_on_c, 0, 57, 57
2, 1061040, Note_on_c, 0, 57, 0
2, 1061040, Note_on_c, 0, 59, 57
2, 1061160, Note_on_c, 0, 59, 0
2, 1061160, Note_on_c, 0, 58, 57
2, 1061280, Note_on_c, 0, 58, 0
2, 1061280, Note_on_c, 0, 61, 57
2, 1061400, Note_on_c, 0, 61, 0
2, 1061400, Note_on_c, 0, 53, 57
2, 1061520, Note_on_c, 0, 53, 0
2, 1061520, Note_on_c, 0, 56, 57
2, 1061640, Note_on_c, 0, 56, 0
2, 1061640, Note_on_c, 0, 54, 57
2, 1061760, Note_on_c, 0, 54, 0
2, 1061760, Note_on_c, 0, 46, 57
2, 1061880, Note_on_c, 0, 46, 0
2, 1061880, Note_on_c, 0, 47, 57
2, 1062000, Note_on_c, 0, 47, 0
2, 1062000, Note_on_c, 0, 51, 57
2, 1062120, Note_on_c, 0, 51, 0
2, 1062120, Note_on_c, 0, 49, 57
2, 1062240, Note_on_c, 0, 49, 0
2, 1062240, Note_on_c, 0, 52, 57
2, 1062360, Note_on_c, 0, 52, 0
2, 1066080, Control_c, 0, 64, 127
2, 1066470, Note_on_c, 0, 58, 57
2, 1066500, Note_on_c, 0, 64, 57
2, 1066530, Note_on_c, 0, 66, 57
2, 1066560, Note_on_c, 0, 75, 57
2, 1066800, Note_on_c, 0, 75, 0
2, 1066800, Note_on_c, 0, 58, 0
2, 1066800, Note_on_c, 0, 64, 0
2, 1066800, Note_on_c, 0, 66, 0
2, 1066800, Note_on_c, 0, 42, 57
2, 1066868, Note_on_c, 0, 42, 0
2, 1066868, Note_on_c, 0, 49, 57
2, 1066937, Note_on_c, 0, 49, 0
2, 1066937, Note_on_c, 0, 52, 57
2, 1067005, Note_on_c, 0, 52, 0
2, 1067005, Note_on_c, 0, 54, 57
2, 1067074, Note_on_c, 0, 54, 0
2, 1067074, Note_on_c, 0, 58, 57
2, 1067142, Note_on_c, 0, 58, 0
2, 1067142, Note_on_c, 0, 64, 57
2, 1067211, Note_on_c, 0, 64, 0
2, 1067211, Note_on_c, 0, 66, 57
2, 1067280, Note_on_c, 0, 66, 0
2, 1067280, Note_on_c, 0, 72, 83
2, 1068000, Note_on_c, 0, 72, 0
2, 1068000, Control_c, 0, 64, 0
2, 1068000, Note_on_c, 0, 73, 57
2, 1068480, Note_on_c, 0, 73, 0
2, 1068639, Note_on_c, 0, 66, 57
2, 1068639, Note_on_c, 0, 76, 57
2, 1068639, Note_on_c, 0, 78, 57
2, 1068671, Note_on_c, 0, 78, 0
2, 1068671, Note_on_c, 0, 76, 0
2, 1068671, Note_on_c, 0, 66, 0
2, 1068800, Note_on_c, 0, 67, 57
2, 1068800, Note_on_c, 0, 79, 57
2, 1068832, Note_on_c, 0, 79, 0
2, 1068832, Note_on_c, 0, 67, 0
2, 1068960, Note_on_c, 0, 68, 70
2, 1068960, Note_on_c, 0, 80, 70
2, 1068991, Note_on_c, 0, 80, 0
2, 1068991, Note_on_c, 0, 68, 0
2, 1069119, Note_on_c, 0, 69, 70
2, 1069119, Note_on_c, 0, 81, 70
2, 1069151, Note_on_c, 0, 81, 0
2, 1069151, Note_on_c, 0, 69, 0
2, 1069280, Note_on_c, 0, 70, 83
2, 1069280, Note_on_c, 0, 82, 83
2, 1069312, Note_on_c, 0, 82, 0
2, 1069312, Note_on_c, 0, 70, 0
2, 1069599, Note_on_c, 0, 69, 57
2, 1069599, Note_on_c, 0, 79, 57
2, 1069599, Note_on_c, 0, 81, 57
2, 1069631, Note_on_c, 0, 81, 0
2, 1069631, Note_on_c, 0, 79, 0
2, 1069631, Note_on_c, 0, 69, 0
2, 1069760, Note_on_c, 0, 70, 57
2, 1069760, Note_on_c, 0, 82, 57
2, 1069792, Note_on_c, 0, 82, 0
2, 1069792, Note_on_c, 0, 70, 0
2, 1069920, Note_on_c, 0, 71, 70
2, 1069920, Note_on_c, 0, 83, 70
2, 1069951, Note_on_c, 0, 83, 0
2, 1069951, Note_on_c, 0, 71, 0
2, 1070079, Note_on_c, 0, 72, 70
2, 1070079, Note_on_c, 0, 84, 70
2, 1070111, Note_on_c, 0, 84, 0
2, 1070111, Note_on_c, 0, 72, 0
2, 1070240, Note_on_c, 0, 73, 83
2, 1070240, Note_on_c, 0, 85, 83
2, 1070272, Note_on_c, 0, 85, 0
2, 1070272, Note_on_c, 0, 73, 0
2, 1070550, Note_on_c, 0, 66, 57
2, 1070580, Note_on_c, 0, 71, 57
2, 1070610, Note_on_c, 0, 75, 57
2, 1070640, Control_c, 0, 64, 127
2, 1070640, Note_on_c, 0, 80, 57
2, 1070880, Note_on_c, 0, 80, 0
2, 1070880, Note_on_c, 0, 66, 0
2, 1070880, Note_on_c, 0, 71, 0
2, 1070880, Note_on_c, 0, 75, 0
2, 1070880, Note_on_c, 0, 54, 57
2, 1070940, Note_on_c, 0, 54, 0
2, 1070940, Note_on_c, 0, 59, 57
2, 1071000, Note_on_c, 0, 59, 0
2, 1071000, Note_on_c, 0, 63, 57
2, 1071060, Note_on_c, 0, 63, 0
2, 1071060, Note_on_c, 0, 66, 57
2, 1071120, Note_on_c, 0, 66, 0
2, 1071120, Note_on_c, 0, 59, 57
2, 1071180, Note_on_c, 0, 59, 0
2, 1071180, Note_on_c, 0, 63, 57
2, 1071240, Note_on_c, 0, 63, 0
2, 1071240, Note_on_c, 0, 66, 57
2, 1071300, Note_on_c, 0, 66, 0
2, 1071300, Note_on_c, 0, 71, 57
2, 1071360, Note_on_c, 0, 71, 0
2, 1071360, Note_on_c, 0, 77, 83
2, 1072320, Note_on_c, 0, 77, 0
2, 1072320, Control_c, 0, 64, 0
2, 1072320, Note_on_c, 0, 78, 57
2, 1072800, Note_on_c, 0, 78, 0
2, 1072959, Note_on_c, 0, 68, 57
2, 1072959, Note_on_c, 0, 78, 57
2, 1072959, Note_on_c, 0, 80, 57
2, 1072991, Note_on_c, 0, 80, 0
2, 1072991, Note_on_c, 0, 78, 0
2, 1072991, Note_on_c, 0, 68, 0
2, 1073120, Note_on_c, 0, 70, 57
2, 1073120, Note_on_c, 0, 82, 57
2, 1073152, Note_on_c, 0, 82, 0
2, 1073152, Note_on_c, 0, 70, 0
2, 1073280, Note_on_c, 0, 71, 70
2, 1073280, Note_on_c, 0, 83, 70
2, 1073311, Note_on_c, 0, 83, 0
2, 1073311, Note_on_c, 0, 71, 0
2, 1073439, Note_on_c, 0, 74, 70
2, 1073439, Note_on_c, 0, 86, 70
2, 1073471, Note_on_c, 0, 86, 0
2, 1073471, Note_on_c, 0, 74, 0
2, 1073600, Note_on_c, 0, 75, 83
2, 1073600, Note_on_c, 0, 87, 83
2, 1073632, Note_on_c, 0, 87, 0
2, 1073632, Note_on_c, 0, 75, 0
2, 1073919, Note_on_c, 0, 71, 57
2, 1073919, Note_on_c, 0, 80, 57
2, 1073919, Note_on_c, 0, 83, 57
2, 1073951, Note_on_c, 0, 83, 0
2, 1073951, Note_on_c, 0, 80, 0
2, 1073951, Note_on_c, 0, 71, 0
2, 1074080, Note_on_c, 0, 73, 57
2, 1074080, Note_on_c, 0, 85, 57
2, 1074112, Note_on_c, 0, 85, 0
2, 1074112, Note_on_c, 0, 73, 0
2, 1074240, Note_on_c, 0, 75, 70
2, 1074240, Note_on_c, 0, 87, 70
2, 1074271, Note_on_c, 0, 87, 0
2, 1074271, Note_on_c, 0, 75, 0
2, 1074399, Note_on_c, 0, 77, 70
2, 1074399, Note_on_c, 0, 89, 70
2, 1074431, Note_on_c, 0, 89, 0
2, 1074431, Note_on_c, 0, 77, 0
2, 1074560, Note_on_c, 0, 78, 83
2, 1074560, Note_on_c, 0, 90, 83
2, 1074592, Note_on_c, 0, 90, 0
2, 1074592, Note_on_c, 0, 78, 0
2, 1074720, Control_c, 0, 64, 127
2, 1074870, Note_on_c, 0, 60, 57
2, 1074900, Note_on_c, 0, 66, 57
2, 1074930, Note_on_c, 0, 68, 57
2, 1074960, Note_on_c, 0, 75, 57
2, 1075200, Note_on_c, 0, 75, 0
2, 1075200, Note_on_c, 0, 60, 0
2, 1075200, Note_on_c, 0, 66, 0
2, 1075200, Note_on_c, 0, 68, 0
2, 1075200, Note_on_c, 0, 44, 57
2, 1075268, Note_on_c, 0, 44, 0
2, 1075268, Note_on_c, 0, 51, 57
2, 1075337, Note_on_c, 0, 51, 0
2, 1075337, Note_on_c, 0, 54, 57
2, 1075405, Note_on_c, 0, 54, 0
2, 1075405, Note_on_c, 0, 56, 57
2, 1075474, Note_on_c, 0, 56, 0
2, 1075474, Note_on_c, 0, 60, 57
2, 1075542, Note_on_c, 0, 60, 0
2, 1075542, Note_on_c, 0, 66, 57
2, 1075611, Note_on_c, 0, 66, 0
2, 1075611, Note_on_c, 0, 68, 57
2, 1075680, Note_on_c, 0, 68, 0
2, 1075680, Note_on_c, 0, 74, 83
2, 1076640, Note_on_c, 0, 74, 0
2, 1076640, Control_c, 0, 64, 0
2, 1076640, Note_on_c, 0, 75, 57
2, 1077120, Note_on_c, 0, 75, 0
2, 1077279, Note_on_c, 0, 68, 57
2, 1077279, Note_on_c, 0, 78, 57
2, 1077279, Note_on_c, 0, 80, 57
2, 1077311, Note_on_c, 0, 80, 0
2, 1077311, Note_on_c, 0, 78, 0
2, 1077311, Note_on_c, 0, 68, 0
2, 1077440, Note_on_c, 0, 69, 57
2, 1077440, Note_on_c, 0, 81, 57
2, 1077472, Note_on_c, 0, 81, 0
2, 1077472, Note_on_c, 0, 69, 0
2, 1077600, Note_on_c, 0, 70, 70
2, 1077600, Note_on_c, 0, 82, 70
2, 1077631, Note_on_c, 0, 82, 0
2, 1077631, Note_on_c, 0, 70, 0
2, 1077759, Note_on_c, 0, 71, 70
2, 1077759, Note_on_c, 0, 83, 70
2, 1077791, Note_on_c, 0, 83, 0
2, 1077791, Note_on_c, 0, 71, 0
2, 1077920, Note_on_c, 0, 72, 83
2, 1077920, Note_on_c, 0, 84, 83
2, 1077952, Note_on_c, 0, 84, 0
2, 1077952, Note_on_c, 0, 72, 0
2, 1078239, Note_on_c, 0, 70, 57
2, 1078239, Note_on_c, 0, 80, 57
2, 1078239, Note_on_c, 0, 82, 57
2, 1078271, Note_on_c, 0, 82, 0
2, 1078271, Note_on_c, 0, 80, 0
2, 1078271, Note_on_c, 0, 70, 0
2, 1078400, Note_on_c, 0, 72, 57
2, 1078400, Note_on_c, 0, 84, 57
2, 1078432, Note_on_c, 0, 84, 0
2, 1078432, Note_on_c, 0, 72, 0
2, 1078560, Note_on_c, 0, 73, 70
2, 1078560, Note_on_c, 0, 85, 70
2, 1078591, Note_on_c, 0, 85, 0
2, 1078591, Note_on_c, 0, 73, 0
2, 1078719, Note_on_c, 0, 74, 70
2, 1078719, Note_on_c, 0, 86, 70
2, 1078751, Note_on_c, 0, 86, 0
2, 1078751, Note_on_c, 0, 74, 0
2, 1078880, Note_on_c, 0, 75, 83
2, 1078880, Note_on_c, 0, 87, 83
2, 1078912, Note_on_c, 0, 87, 0
2, 1078912, Note_on_c, 0, 75, 0
2, 1079040, Control_c, 0, 64, 127
2, 1079190, Note_on_c, 0, 68, 57
2, 1079220, Note_on_c, 0, 73, 57
2, 1079250, Note_on_c, 0, 76, 57
2, 1079280, Note_on_c, 0, 81, 57
2, 1079520, Note_on_c, 0, 81, 0
2, 1079520, Note_on_c, 0, 68, 0
2, 1079520, Note_on_c, 0, 73, 0
2, 1079520, Note_on_c, 0, 76, 0
2, 1079520, Note_on_c, 0, 44, 57
2, 1079580, Note_on_c, 0, 44, 0
2, 1079580, Note_on_c, 0, 49, 57
2, 1079640, Note_on_c, 0, 49, 0
2, 1079640, Note_on_c, 0, 52, 57
2, 1079700, Note_on_c, 0, 52, 0
2, 1079700, Note_on_c, 0, 56, 57
2, 1079760, Note_on_c, 0, 56, 0
2, 1079760, Note_on_c, 0, 61, 57
2, 1079820, Note_on_c, 0, 61, 0
2, 1079820, Note_on_c, 0, 64, 57
2, 1079880, Note_on_c, 0, 64, 0
2, 1079880, Note_on_c, 0, 68, 57
2, 1079940, Note_on_c, 0, 68, 0
2, 1079940, Note_on_c, 0, 73, 57
2, 1080000, Note_on_c, 0, 73, 0
2, 1080000, Note_on_c, 0, 79, 83
2, 1080960, Note_on_c, 0, 79, 0
2, 1080960, Control_c, 0, 64, 0
2, 1080960, Note_on_c, 0, 80, 57
2, 1081440, Note_on_c, 0, 80, 0
2, 1081599, Note_on_c, 0, 70, 57
2, 1081599, Note_on_c, 0, 80, 57
2, 1081599, Note_on_c, 0, 82, 57
2, 1081631, Note_on_c, 0, 82, 0
2, 1081631, Note_on_c, 0, 80, 0
2, 1081631, Note_on_c, 0, 70, 0
2, 1081760, Note_on_c, 0, 72, 57
2, 1081760, Note_on_c, 0, 84, 57
2, 1081792, Note_on_c, 0, 84, 0
2, 1081792, Note_on_c, 0, 72, 0
2, 1081920, Note_on_c, 0, 73, 70
2, 1081920, Note_on_c, 0, 85, 70
2, 1081951, Note_on_c, 0, 85, 0
2, 1081951, Note_on_c, 0, 73, 0
2, 1082079, Note_on_c, 0, 75, 70
2, 1082079, Note_on_c, 0, 87, 70
2, 1082111, Note_on_c, 0, 87, 0
2, 1082111, Note_on_c, 0, 75, 0
2, 1082240, Note_on_c, 0, 76, 83
2, 1082240, Note_on_c, 0, 88, 83
2, 1082272, Note_on_c, 0, 88, 0
2, 1082272, Note_on_c, 0, 76, 0
2, 1082559, Note_on_c, 0, 73, 57
2, 1082559, Note_on_c, 0, 80, 57
2, 1082559, Note_on_c, 0, 85, 57
2, 1082591, Note_on_c, 0, 85, 0
2, 1082591, Note_on_c, 0, 80, 0
2, 1082591, Note_on_c, 0, 73, 0
2, 1082720, Note_on_c, 0, 75, 57
2, 1082720, Note_on_c, 0, 87, 57
2, 1082752, Note_on_c, 0, 87, 0
2, 1082752, Note_on_c, 0, 75, 0
2, 1082880, Note_on_c, 0, 76, 70
2, 1082880, Note_on_c, 0, 88, 70
2, 1082911, Note_on_c, 0, 88, 0
2, 1082911, Note_on_c, 0, 76, 0
2, 1083039, Note_on_c, 0, 79, 70
2, 1083039, Note_on_c, 0, 91, 70
2, 1083071, Note_on_c, 0, 91, 0
2, 1083071, Note_on_c, 0, 79, 0
2, 1083200, Note_on_c, 0, 80, 83
2, 1083200, Note_on_c, 0, 92, 83
2, 1083232, Note_on_c, 0, 92, 0
2, 1083232, Note_on_c, 0, 80, 0
2, 1083519, Note_on_c, 0, 60, 83
2, 1083519, Note_on_c, 0, 64, 83
2, 1083680, Note_on_c, 0, 64, 0
2, 1083680, Note_on_c, 0, 60, 0
2, 1083680, Note_on_c, 0, 61, 83
2, 1083840, Note_on_c, 0, 61, 0
2, 1083840, Note_on_c, 0, 63, 83
2, 1083840, Note_on_c, 0, 69, 83
2, 1083840, Note_on_c, 0, 73, 83
2, 1083999, Note_on_c, 0, 73, 0
2, 1083999, Note_on_c, 0, 69, 0
2, 1083999, Note_on_c, 0, 63, 0
2, 1083999, Note_on_c, 0, 64, 83
2, 1084160, Note_on_c, 0, 64, 0
2, 1084160, Note_on_c, 0, 69, 83
2, 1084160, Note_on_c, 0, 73, 83
2, 1084160, Note_on_c, 0, 76, 83
2, 1084320, Note_on_c, 0, 76, 0
2, 1084320, Note_on_c, 0, 73, 0
2, 1084320, Note_on_c, 0, 69, 0
2, 1084320, Note_on_c, 0, 69, 83
2, 1084320, Note_on_c, 0, 73, 83
2, 1084320, Note_on_c, 0, 76, 83
2, 1084320, Note_on_c, 0, 81, 83
2, 1084367, Note_on_c, 0, 81, 0
2, 1084367, Note_on_c, 0, 69, 0
2, 1084367, Note_on_c, 0, 73, 0
2, 1084367, Note_on_c, 0, 76, 0
2, 1084560, Note_on_c, 0, 67, 83
2, 1084560, Note_on_c, 0, 76, 83
2, 1084560, Note_on_c, 0, 79, 83
2, 1085040, Note_on_c, 0, 79, 0
2, 1085040, Note_on_c, 0, 76, 0
2, 1085040, Note_on_c, 0, 67, 0
2, 1085280, Note_on_c, 0, 68, 83
2, 1085280, Note_on_c, 0, 75, 83
2, 1085280, Note_on_c, 0, 80, 83
2, 1085439, Note_on_c, 0, 80, 0
2, 1085439, Note_on_c, 0, 75, 0
2, 1085439, Note_on_c, 0, 68, 0
2, 1085439, Control_c, 0, 64, 127
2, 1085439, Note_on_c, 0, 67, 83
2, 1085600, Note_on_c, 0, 67, 0
2, 1085600, Note_on_c, 0, 68, 83
2, 1085760, Note_on_c, 0, 68, 0
2, 1085760, Note_on_c, 0, 73, 83
2, 1085760, Note_on_c, 0, 76, 83
2, 1085919, Note_on_c, 0, 76, 0
2, 1085919, Note_on_c, 0, 73, 0
2, 1085919, Note_on_c, 0, 79, 83
2, 1086080, Note_on_c, 0, 79, 0
2, 1086080, Note_on_c, 0, 80, 83
2, 1086240, Note_on_c, 0, 80, 0
2, 1086240, Note_on_c, 0, 85, 83
2, 1086240, Note_on_c, 0, 88, 83
2, 1086399, Note_on_c, 0, 88, 0
2, 1086399, Note_on_c, 0, 85, 0
2, 1086399, Note_on_c, 0, 79, 83
2, 1086560, Note_on_c, 0, 79, 0
2, 1086560, Note_on_c, 0, 80, 83
2, 1086720, Note_on_c, 0, 80, 0
2, 1086720, Note_on_c, 0, 85, 83
2, 1086720, Note_on_c, 0, 88, 83
2, 1086879, Note_on_c, 0, 88, 0
2, 1086879, Note_on_c, 0, 85, 0
2, 1086879, Note_on_c, 0, 91, 83
2, 1087040, Note_on_c, 0, 91, 0
2, 1087040, Control_c, 0, 64, 0
2, 1087040, Note_on_c, 0, 92, 83
2, 1087040, Note_on_c, 0, 97, 83
2, 1087040, Note_on_c, 0, 100, 83
2, 1087200, Note_on_c, 0, 100, 0
2, 1087200, Note_on_c, 0, 97, 0
2, 1087200, Note_on_c, 0, 92, 0
2, 1087359, Note_on_c, 0, 62, 83
2, 1087359, Note_on_c, 0, 66, 83
2, 1087520, Note_on_c, 0, 66, 0
2, 1087520, Note_on_c, 0, 62, 0
2, 1087520, Note_on_c, 0, 63, 83
2, 1087680, Note_on_c, 0, 63, 0
2, 1087680, Note_on_c, 0, 65, 83
2, 1087680, Note_on_c, 0, 71, 83
2, 1087680, Note_on_c, 0, 75, 83
2, 1087839, Note_on_c, 0, 75, 0
2, 1087839, Note_on_c, 0, 71, 0
2, 1087839, Note_on_c, 0, 65, 0
2, 1087839, Note_on_c, 0, 66, 83
2, 1088000, Note_on_c, 0, 66, 0
2, 1088000, Note_on_c, 0, 71, 83
2, 1088000, Note_on_c, 0, 75, 83
2, 1088000, Note_on_c, 0, 78, 83
2, 1088160, Note_on_c, 0, 78, 0
2, 1088160, Note_on_c, 0, 75, 0
2, 1088160, Note_on_c, 0, 71, 0
2, 1088160, Note_on_c, 0, 71, 83
2, 1088160, Note_on_c, 0, 75, 83
2, 1088160, Note_on_c, 0, 78, 83
2, 1088160, Note_on_c, 0, 83, 83
2, 1088207, Note_on_c, 0, 83, 0
2, 1088207, Note_on_c, 0, 71, 0
2, 1088207, Note_on_c, 0, 75, 0
2, 1088207, Note_on_c, 0, 78, 0
2, 1088640, Note_on_c, 0, 69, 83
2, 1088640, Note_on_c, 0, 78, 83
2, 1088640, Note_on_c, 0, 81, 83
2, 1089120, Note_on_c, 0, 81, 0
2, 1089120, Note_on_c, 0, 78, 0
2, 1089120, Note_on_c, 0, 69, 0
2, 1089120, Note_on_c, 0, 70, 83
2, 1089120, Note_on_c, 0, 77, 83
2, 1089120, Note_on_c, 0, 82, 83
2, 1089279, Note_on_c, 0, 82, 0
2, 1089279, Note_on_c, 0, 77, 0
2, 1089279, Note_on_c, 0, 70, 0
2, 1089279, Control_c, 0, 64, 127
2, 1089279, Note_on_c, 0, 69, 83
2, 1089440, Note_on_c, 0, 69, 0
2, 1089440, Note_on_c, 0, 70, 83
2, 1089600, Note_on_c, 0, 70, 0
2, 1089600, Note_on_c, 0, 75, 83
2, 1089600, Note_on_c, 0, 78, 83
2, 1089759, Note_on_c, 0, 78, 0
2, 1089759, Note_on_c, 0, 75, 0
2, 1089759, Note_on_c, 0, 81, 83
2, 1089920, Note_on_c, 0, 81, 0
2, 1089920, Note_on_c, 0, 82, 83
2, 1090080, Note_on_c, 0, 82, 0
2, 1090080, Note_on_c, 0, 87, 83
2, 1090080, Note_on_c, 0, 90, 83
2, 1090239, Note_on_c, 0, 90, 0
2, 1090239, Note_on_c, 0, 87, 0
2, 1090239, Note_on_c, 0, 81, 83
2, 1090400, Note_on_c, 0, 81, 0
2, 1090400, Note_on_c, 0, 82, 83
2, 1090560, Note_on_c, 0, 82, 0
2, 1090560, Note_on_c, 0, 87, 83
2, 1090560, Note_on_c, 0, 90, 83
2, 1090719, Note_on_c, 0, 90, 0
2, 1090719, Note_on_c, 0, 87, 0
2, 1090719, Note_on_c, 0, 93, 83
2, 1090880, Note_on_c, 0, 93, 0
2, 1090880, Control_c, 0, 64, 0
2, 1090880, Note_on_c, 0, 94, 83
2, 1090880, Note_on_c, 0, 99, 83
2, 1090880, Note_on_c, 0, 102, 83
2, 1091040, Note_on_c, 0, 102, 0
2, 1091040, Note_on_c, 0, 99, 0
2, 1091040, Note_on_c, 0, 94, 0
2, 1091199, Note_on_c, 0, 65, 96
2, 1091360, Note_on_c, 0, 65, 0
2, 1091360, Note_on_c, 0, 66, 96
2, 1091520, Note_on_c, 0, 66, 0
2, 1091520, Control_c, 0, 64, 127
2, 1091520, Note_on_c, 0, 73, 96
2, 1091520, Note_on_c, 0, 76, 96
2, 1091679, Note_on_c, 0, 76, 0
2, 1091679, Note_on_c, 0, 73, 0
2, 1091679, Note_on_c, 0, 77, 96
2, 1091840, Note_on_c, 0, 77, 0
2, 1091840, Note_on_c, 0, 78, 96
2, 1092000, Note_on_c, 0, 78, 0
2, 1092000, Note_on_c, 0, 85, 96
2, 1092000, Note_on_c, 0, 88, 96
2, 1092159, Note_on_c, 0, 88, 0
2, 1092159, Note_on_c, 0, 85, 0
2, 1092159, Note_on_c, 0, 78, 96
2, 1092320, Note_on_c, 0, 78, 0
2, 1092320, Control_c, 0, 64, 0
2, 1092320, Note_on_c, 0, 76, 96
2, 1092480, Note_on_c, 0, 76, 0
2, 1092480, Note_on_c, 0, 73, 96
2, 1092480, Note_on_c, 0, 76, 96
2, 1092639, Note_on_c, 0, 76, 0
2, 1092639, Note_on_c, 0, 73, 0
2, 1092639, Note_on_c, 0, 66, 96
2, 1092800, Note_on_c, 0, 66, 0
2, 1092800, Note_on_c, 0, 64, 96
2, 1092960, Note_on_c, 0, 64, 0
2, 1092960, Note_on_c, 0, 68, 96
2, 1092960, Note_on_c, 0, 71, 96
2, 1092960, Note_on_c, 0, 80, 96
2, 1093440, Note_on_c, 0, 80, 0
2, 1093440, Note_on_c, 0, 71, 0
2, 1093440, Note_on_c, 0, 68, 0
2, 1093440, Note_on_c, 0, 65, 122
2, 1093440, Note_on_c, 0, 71, 122
2, 1093440, Note_on_c, 0, 77, 122
2, 1094400, Note_on_c, 0, 77, 0
2, 1094400, Note_on_c, 0, 71, 0
2, 1094400, Note_on_c, 0, 65, 0
2, 1094400, Note_on_c, 0, 66, 96
2, 1094400, Note_on_c, 0, 71, 96
2, 1094400, Note_on_c, 0, 78, 96
2, 1094880, Note_on_c, 0, 78, 0
2, 1094880, Note_on_c, 0, 71, 0
2, 1094880, Note_on_c, 0, 66, 0
2, 1095039, Note_on_c, 0, 67, 96
2, 1095200, Note_on_c, 0, 67, 0
2, 1095200, Note_on_c, 0, 68, 96
2, 1095360, Note_on_c, 0, 68, 0
2, 1095360, Control_c, 0, 64, 127
2, 1095360, Note_on_c, 0, 75, 96
2, 1095360, Note_on_c, 0, 78, 96
2, 1095519, Note_on_c, 0, 78, 0
2, 1095519, Note_on_c, 0, 75, 0
2, 1095519, Note_on_c, 0, 79, 96
2, 1095680, Note_on_c, 0, 79, 0
2, 1095680, Note_on_c, 0, 80, 96
2, 1095840, Note_on_c, 0, 80, 0
2, 1095840, Note_on_c, 0, 87, 96
2, 1095840, Note_on_c, 0, 90, 96
2, 1095999, Note_on_c, 0, 90, 0
2, 1095999, Note_on_c, 0, 87, 0
2, 1095999, Note_on_c, 0, 80, 96
2, 1096160, Note_on_c, 0, 80, 0
2, 1096160, Control_c, 0, 64, 0
2, 1096160, Note_on_c, 0, 78, 96
2, 1096320, Note_on_c, 0, 78, 0
2, 1096320, Note_on_c, 0, 75, 96
2, 1096320, Note_on_c, 0, 78, 96
2, 1096479, Note_on_c, 0, 78, 0
2, 1096479, Note_on_c, 0, 75, 0
2, 1096479, Note_on_c, 0, 68, 96
2, 1096640, Note_on_c, 0, 68, 0
2, 1096640, Note_on_c, 0, 66, 96
2, 1096800, Note_on_c, 0, 66, 0
2, 1096800, Note_on_c, 0, 69, 96
2, 1096800, Note_on_c, 0, 73, 96
2, 1096800, Note_on_c, 0, 81, 96
2, 1097280, Note_on_c, 0, 81, 0
2, 1097280, Note_on_c, 0, 73, 0
2, 1097280, Note_on_c, 0, 69, 0
2, 1097280, Note_on_c, 0, 67, 122
2, 1097280, Note_on_c, 0, 73, 122
2, 1097280, Note_on_c, 0, 79, 122
2, 1098240, Note_on_c, 0, 79, 0
2, 1098240, Note_on_c, 0, 73, 0
2, 1098240, Note_on_c, 0, 67, 0
2, 1098240, Note_on_c, 0, 68, 96
2, 1098240, Note_on_c, 0, 73, 96
2, 1098240, Note_on_c, 0, 80, 96
2, 1098720, Note_on_c, 0, 80, 0
2, 1098720, Note_on_c, 0, 73, 0
2, 1098720, Note_on_c, 0, 68, 0
2, 1098879, Note_on_c, 0, 61, 96
2, 1098879, Note_on_c, 0, 73, 96
2, 1098911, Note_on_c, 0, 73, 0
2, 1098911, Note_on_c, 0, 61, 0
2, 1099040, Note_on_c, 0, 62, 96
2, 1099040, Note_on_c, 0, 74, 96
2, 1099072, Note_on_c, 0, 74, 0
2, 1099072, Note_on_c, 0, 62, 0
2, 1099200, Note_on_c, 0, 64, 96
2, 1099200, Note_on_c, 0, 76, 96
2, 1099231, Note_on_c, 0, 76, 0
2, 1099231, Note_on_c, 0, 64, 0
2, 1099359, Note_on_c, 0, 66, 96
2, 1099359, Note_on_c, 0, 78, 96
2, 1099391, Note_on_c, 0, 78, 0
2, 1099391, Note_on_c, 0, 66, 0
2, 1099520, Note_on_c, 0, 67, 96
2, 1099520, Note_on_c, 0, 79, 96
2, 1099552, Note_on_c, 0, 79, 0
2, 1099552, Note_on_c, 0, 67, 0
2, 1099680, Note_on_c, 0, 71, 122
2, 1099680, Note_on_c, 0, 73, 122
2, 1099680, Note_on_c, 0, 83, 122
2, 1099727, Note_on_c, 0, 83, 0
2, 1099727, Note_on_c, 0, 73, 0
2, 1099727, Note_on_c, 0, 71, 0
2, 1100160, Note_on_c, 0, 69, 96
2, 1100160, Note_on_c, 0, 74, 96
2, 1100160, Note_on_c, 0, 81, 96
2, 1100640, Note_on_c, 0, 81, 0
2, 1100640, Note_on_c, 0, 74, 0
2, 1100640, Note_on_c, 0, 69, 0
2, 1100799, Note_on_c, 0, 62, 96
2, 1100799, Note_on_c, 0, 74, 96
2, 1100831, Note_on_c, 0, 74, 0
2, 1100831, Note_on_c, 0, 62, 0
2, 1100960, Note_on_c, 0, 64, 96
2, 1100960, Note_on_c, 0, 76, 96
2, 1100992, Note_on_c, 0, 76, 0
2, 1100992, Note_on_c, 0, 64, 0
2, 1101120, Note_on_c, 0, 66, 96
2, 1101120, Note_on_c, 0, 78, 96
2, 1101151, Note_on_c, 0, 78, 0
2, 1101151, Note_on_c, 0, 66, 0
2, 1101279, Note_on_c, 0, 67, 96
2, 1101279, Note_on_c, 0, 79, 96
2, 1101311, Note_on_c, 0, 79, 0
2, 1101311, Note_on_c, 0, 67, 0
2, 1101440, Note_on_c, 0, 69, 96
2, 1101440, Note_on_c, 0, 81, 96
2, 1101472, Note_on_c, 0, 81, 0
2, 1101472, Note_on_c, 0, 69, 0
2, 1101600, Note_on_c, 0, 72, 122
2, 1101600, Note_on_c, 0, 75, 122
2, 1101600, Note_on_c, 0, 84, 122
2, 1101647, Note_on_c, 0, 84, 0
2, 1101647, Note_on_c, 0, 75, 0
2, 1101647, Note_on_c, 0, 72, 0
2, 1102080, Note_on_c, 0, 71, 96
2, 1102080, Note_on_c, 0, 76, 96
2, 1102080, Note_on_c, 0, 83, 96
2, 1102560, Note_on_c, 0, 83, 0
2, 1102560, Note_on_c, 0, 76, 0
2, 1102560, Note_on_c, 0, 71, 0
2, 1102560, Note_on_c, 0, 72, 96
2, 1102560, Note_on_c, 0, 76, 96
2, 1102560, Note_on_c, 0, 79, 96
2, 1102560, Note_on_c, 0, 84, 96
2, 1102800, Note_on_c, 0, 84, 0
2, 1102800, Note_on_c, 0, 72, 0
2, 1102800, Note_on_c, 0, 76, 0
2, 1102800, Note_on_c, 0, 79, 0
2, 1103040, Note_on_c, 0, 65, 96
2, 1103040, Note_on_c, 0, 72, 96
2, 1103040, Note_on_c, 0, 77, 96
2, 1103071, Note_on_c, 0, 77, 0
2, 1103071, Note_on_c, 0, 72, 0
2, 1103071, Note_on_c, 0, 65, 0
2, 1103199, Note_on_c, 0, 67, 96
2, 1103231, Note_on_c, 0, 67, 0
2, 1103360, Note_on_c, 0, 69, 96
2, 1103392, Note_on_c, 0, 69, 0
2, 1103520, Note_on_c, 0, 74, 96
2, 1103520, Note_on_c, 0, 78, 96
2, 1103520, Note_on_c, 0, 81, 96
2, 1103520, Note_on_c, 0, 86, 96
2, 1103760, Note_on_c, 0, 86, 0
2, 1103760, Note_on_c, 0, 74, 0
2, 1103760, Note_on_c, 0, 78, 0
2, 1103760, Note_on_c, 0, 81, 0
2, 1104000, Note_on_c, 0, 67, 96
2, 1104000, Note_on_c, 0, 74, 96
2, 1104000, Note_on_c, 0, 79, 96
2, 1104031, Note_on_c, 0, 79, 0
2, 1104031, Note_on_c, 0, 74, 0
2, 1104031, Note_on_c, 0, 67, 0
2, 1104159, Note_on_c, 0, 69, 96
2, 1104191, Note_on_c, 0, 69, 0
2, 1104320, Note_on_c, 0, 71, 96
2, 1104352, Note_on_c, 0, 71, 0
2, 1104480, Note_on_c, 0, 76, 96
2, 1104480, Note_on_c, 0, 80, 96
2, 1104480, Note_on_c, 0, 83, 96
2, 1104480, Note_on_c, 0, 88, 96
2, 1104720, Note_on_c, 0, 88, 0
2, 1104720, Note_on_c, 0, 76, 0
2, 1104720, Note_on_c, 0, 80, 0
2, 1104720, Note_on_c, 0, 83, 0
2, 1104960, Note_on_c, 0, 69, 96
2, 1104960, Note_on_c, 0, 76, 96
2, 1104960, Note_on_c, 0, 81, 96
2, 1104991, Note_on_c, 0, 81, 0
2, 1104991, Note_on_c, 0, 76, 0
2, 1104991, Note_on_c, 0, 69, 0
2, 1105119, Note_on_c, 0, 71, 96
2, 1105151, Note_on_c, 0, 71, 0
2, 1105280, Note_on_c, 0, 72, 96
2, 1105312, Note_on_c, 0, 72, 0
2, 1105440, Note_on_c, 0, 77, 96
2, 1105440, Note_on_c, 0, 81, 96
2, 1105440, Note_on_c, 0, 84, 96
2, 1105440, Note_on_c, 0, 89, 96
2, 1105680, Note_on_c, 0, 89, 0
2, 1105680, Note_on_c, 0, 77, 0
2, 1105680, Note_on_c, 0, 81, 0
2, 1105680, Note_on_c, 0, 84, 0
2, 1105920, Note_on_c, 0, 70, 96
2, 1105920, Note_on_c, 0, 77, 96
2, 1105920, Note_on_c, 0, 82, 96
2, 1105951, Note_on_c, 0, 82, 0
2, 1105951, Note_on_c, 0, 77, 0
2, 1105951, Note_on_c, 0, 70, 0
2, 1106079, Note_on_c, 0, 72, 96
2, 1106111, Note_on_c, 0, 72, 0
2, 1106240, Note_on_c, 0, 74, 96
2, 1106272, Note_on_c, 0, 74, 0
2, 1106310, Note_on_c, 0, 78, 96
2, 1106340, Note_on_c, 0, 82, 96
2, 1106370, Note_on_c, 0, 85, 96
2, 1106400, Control_c, 0, 64, 127
2, 1106400, Note_on_c, 0, 90, 96
2, 1106640, Note_on_c, 0, 90, 0
2, 1106640, Note_on_c, 0, 78, 0
2, 1106640, Note_on_c, 0, 82, 0
2, 1106640, Note_on_c, 0, 85, 0
2, 1106640, Note_on_c, 0, 70, 96
2, 1106640, Note_on_c, 0, 73, 96
2, 1106640, Note_on_c, 0, 78, 96
2, 1106880, Note_on_c, 0, 78, 0
2, 1106880, Note_on_c, 0, 73, 0
2, 1106880, Note_on_c, 0, 70, 0
2, 1106880, Note_on_c, 0, 70, 96
2, 1106880, Note_on_c, 0, 73, 96
2, 1106880, Note_on_c, 0, 78, 96
2, 1106880, Note_on_c, 0, 82, 96
2, 1107120, Note_on_c, 0, 82, 0
2, 1107120, Note_on_c, 0, 70, 0
2, 1107120, Note_on_c, 0, 73, 0
2, 1107120, Note_on_c, 0, 78, 0
2, 1107120, Note_on_c, 0, 73, 96
2, 1107120, Note_on_c, 0, 78, 96
2, 1107120, Note_on_c, 0, 82, 96
2, 1107120, Note_on_c, 0, 85, 96
2, 1107360, Note_on_c, 0, 85, 0
2, 1107360, Note_on_c, 0, 73, 0
2, 1107360, Note_on_c, 0, 78, 0
2, 1107360, Note_on_c, 0, 82, 0
2, 1107360, Note_on_c, 0, 78, 96
2, 1107360, Note_on_c, 0, 82, 96
2, 1107360, Note_on_c, 0, 85, 96
2, 1107360, Note_on_c, 0, 90, 96
2, 1107600, Note_on_c, 0, 90, 0
2, 1107600, Note_on_c, 0, 78, 0
2, 1107600, Note_on_c, 0, 82, 0
2, 1107600, Note_on_c, 0, 85, 0
2, 1107600, Note_on_c, 0, 82, 96
2, 1107600, Note_on_c, 0, 85, 96
2, 1107600, Note_on_c, 0, 90, 96
2, 1107840, Note_on_c, 0, 90, 0
2, 1107840, Note_on_c, 0, 85, 0
2, 1107840, Note_on_c, 0, 82, 0
2, 1107840, Note_on_c, 0, 82, 96
2, 1107840, Note_on_c, 0, 85, 96
2, 1107840, Note_on_c, 0, 90, 96
2, 1107840, Note_on_c, 0, 94, 96
2, 1108080, Note_on_c, 0, 94, 0
2, 1108080, Note_on_c, 0, 82, 0
2, 1108080, Note_on_c, 0, 85, 0
2, 1108080, Note_on_c, 0, 90, 0
2, 1108080, Control_c, 0, 64, 0
2, 1108080, Note_on_c, 0, 85, 96
2, 1108080, Note_on_c, 0, 90, 96
2, 1108080, Note_on_c, 0, 94, 96
2, 1108080, Note_on_c, 0, 97, 96
2, 1108320, Note_on_c, 0, 97, 0
2, 1108320, Note_on_c, 0, 85, 0
2, 1108320, Note_on_c, 0, 90, 0
2, 1108320, Note_on_c, 0, 94, 0
2, 1108320, Control_c, 0, 64, 127
2, 1108320, Note_on_c, 0, 90, 122
2, 1108320, Note_on_c, 0, 94, 122
2, 1108320, Note_on_c, 0, 97, 122
2, 1108320, Note_on_c, 0, 102, 122
2, 1108800, Note_on_c, 0, 102, 0
2, 1108800, Note_on_c, 0, 90, 0
2, 1108800, Note_on_c, 0, 94, 0
2, 1108800, Note_on_c, 0, 97, 0
2, 1108800, Note_on_c, 0, 78, 122
2, 1108800, Note_on_c, 0, 82, 122
2, 1108800, Note_on_c, 0, 85, 122
2, 1108800, Note_on_c, 0, 90, 122
2, 1109280, Note_on_c, 0, 90, 0
2, 1109280, Note_on_c, 0, 78, 0
2, 1109280, Note_on_c, 0, 82, 0
2, 1109280, Note_on_c, 0, 85, 0
2, 1109280, Note_on_c, 0, 66, 122
2, 1109280, Note_on_c, 0, 70, 122
2, 1109280, Note_on_c, 0, 73, 122
2, 1109280, Note_on_c, 0, 78, 122
2, 1109760, Note_on_c, 0, 78, 0
2, 1109760, Note_on_c, 0, 66, 0
2, 1109760, Note_on_c, 0, 70, 0
2, 1109760, Note_on_c, 0, 73, 0
2, 1109760, Control_c, 0, 64, 0
2, 1109760, Note_on_c, 0, 54, 122
2, 1109760, Note_on_c, 0, 58, 122
2, 1109760, Note_on_c, 0, 61, 122
2, 1109760, Note_on_c, 0, 66, 122
2, 1110240, Note_on_c, 0, 66, 0
2, 1110240, Note_on_c, 0, 54, 0
2, 1110240, Note_on_c, 0, 58, 0
2, 1110240, Note_on_c, 0, 61, 0
2, 1112640, Note_on_c, 0, 49, 44
2, 1112640, Note_on_c, 0, 58, 44
2, 1112640, Note_on_c, 0, 61, 44
2, 1113600, Note_on_c, 0, 61, 0
2, 1113600, Note_on_c, 0, 58, 0
2, 1113600, Note_on_c, 0, 49, 0
2, 1116240, Control_c, 0, 64, 127
2, 1116240, Note_on_c, 0, 65, 57
2, 1116360, Note_on_c, 0, 65, 0
2, 1116360, Note_on_c, 0, 69, 57
2, 1116480, Note_on_c, 0, 69, 0
2, 1116480, Note_on_c, 0, 70, 57
2, 1116600, Note_on_c, 0, 70, 0
2, 1116600, Note_on_c, 0, 73, 57
2, 1116720, Note_on_c, 0, 73, 0
2, 1116720, Note_on_c, 0, 77, 57
2, 1116840, Note_on_c, 0, 77, 0
2, 1116840, Note_on_c, 0, 80, 57
2, 1117680, Note_on_c, 0, 80, 0
2, 1117680, Control_c, 0, 64, 0
2, 1117680, Note_on_c, 0, 78, 57
2, 1117920, Note_on_c, 0, 78, 0
2, 1117920, Note_on_c, 0, 77, 57
2, 1118400, Note_on_c, 0, 77, 0
2, 1118400, Note_on_c, 0, 71, 57
2, 1119360, Note_on_c, 0, 71, 0
2, 1119360, Note_on_c, 0, 72, 57
2, 1119840, Note_on_c, 0, 72, 0
2, 1119840, Note_on_c, 0, 73, 57
2, 1120320, Note_on_c, 0, 73, 0
2, 1120320, Note_on_c, 0, 69, 57
2, 1121280, Note_on_c, 0, 69, 0
2, 1121280, Note_on_c, 0, 70, 57
2, 1121760, Note_on_c, 0, 70, 0
2, 1121760, Note_on_c, 0, 68, 57
2, 1122118, Control_c, 0, 64, 127
2, 1122240, Note_on_c, 0, 68, 0
2, 1122240, Note_on_c, 0, 65, 57
2, 1123200, Note_on_c, 0, 65, 0
2, 1123200, Note_on_c, 0, 66, 57
2, 1123680, Note_on_c, 0, 66, 0
2, 1123680, Note_on_c, 0, 61, 57
2, 1124160, Note_on_c, 0, 61, 0
2, 1124160, Note_on_c, 0, 51, 57
2, 1124160, Note_on_c, 0, 57, 57
2, 1125120, Note_on_c, 0, 57, 0
2, 1125120, Note_on_c, 0, 51, 0
2, 1125120, Note_on_c, 0, 49, 57
2, 1125120, Note_on_c, 0, 58, 57
2, 1125600, Note_on_c, 0, 58, 0
2, 1125600, Note_on_c, 0, 49, 0
2, 1126560, Note_on_c, 0, 66, 44
2, 1126620, Note_on_c, 0, 66, 0
2, 1126620, Note_on_c, 0, 69, 44
2, 1126680, Note_on_c, 0, 69, 0
2, 1126680, Note_on_c, 0, 70, 44
2, 1126740, Note_on_c, 0, 70, 0
2, 1126740, Note_on_c, 0, 72, 44
2, 1126800, Note_on_c, 0, 72, 0
2, 1126800, Note_on_c, 0, 73, 44
2, 1127520, Note_on_c, 0, 73, 0
2, 1127520, Control_c, 0, 64, 127
2, 1127520, Note_on_c, 0, 65, 57
2, 1127580, Note_on_c, 0, 65, 0
2, 1127580, Note_on_c, 0, 66, 57
2, 1127640, Note_on_c, 0, 66, 0
2, 1127640, Note_on_c, 0, 69, 57
2, 1127700, Note_on_c, 0, 69, 0
2, 1127700, Note_on_c, 0, 70, 57
2, 1127760, Note_on_c, 0, 70, 0
2, 1127760, Note_on_c, 0, 72, 57
2, 1127820, Note_on_c, 0, 72, 0
2, 1127820, Note_on_c, 0, 73, 57
2, 1127880, Note_on_c, 0, 73, 0
2, 1127880, Note_on_c, 0, 77, 57
2, 1127940, Note_on_c, 0, 77, 0
2, 1127940, Note_on_c, 0, 78, 57
2, 1128000, Note_on_c, 0, 78, 0
2, 1128000, Note_on_c, 0, 69, 57
2, 1128060, Note_on_c, 0, 69, 0
2, 1128060, Note_on_c, 0, 70, 57
2, 1128120, Note_on_c, 0, 70, 0
2, 1128120, Note_on_c, 0, 72, 57
2, 1128180, Note_on_c, 0, 72, 0
2, 1128180, Note_on_c, 0, 73, 57
2, 1128240, Note_on_c, 0, 73, 0
2, 1128240, Note_on_c, 0, 77, 57
2, 1128300, Note_on_c, 0, 77, 0
2, 1128300, Note_on_c, 0, 78, 57
2, 1128360, Note_on_c, 0, 78, 0
2, 1128360, Note_on_c, 0, 81, 57
2, 1128420, Note_on_c, 0, 81, 0
2, 1128420, Note_on_c, 0, 82, 57
2, 1128480, Note_on_c, 0, 82, 0
2, 1128480, Note_on_c, 0, 72, 57
2, 1128540, Note_on_c, 0, 72, 0
2, 1128540, Note_on_c, 0, 73, 57
2, 1128600, Note_on_c, 0, 73, 0
2, 1128600, Note_on_c, 0, 77, 57
2, 1128660, Note_on_c, 0, 77, 0
2, 1128660, Note_on_c, 0, 78, 57
2, 1128720, Note_on_c, 0, 78, 0
2, 1128720, Note_on_c, 0, 81, 57
2, 1128780, Note_on_c, 0, 81, 0
2, 1128780, Note_on_c, 0, 82, 57
2, 1128840, Note_on_c, 0, 82, 0
2, 1128840, Note_on_c, 0, 84, 57
2, 1128900, Note_on_c, 0, 84, 0
2, 1128900, Note_on_c, 0, 85, 57
2, 1128960, Note_on_c, 0, 85, 0
2, 1128960, Note_on_c, 0, 77, 57
2, 1129020, Note_on_c, 0, 77, 0
2, 1129020, Note_on_c, 0, 78, 57
2, 1129080, Note_on_c, 0, 78, 0
2, 1129080, Note_on_c, 0, 81, 57
2, 1129140, Note_on_c, 0, 81, 0
2, 1129140, Note_on_c, 0, 82, 57
2, 1129200, Note_on_c, 0, 82, 0
2, 1129200, Note_on_c, 0, 84, 57
2, 1129260, Note_on_c, 0, 84, 0
2, 1129260, Note_on_c, 0, 85, 57
2, 1129320, Note_on_c, 0, 85, 0
2, 1129320, Note_on_c, 0, 89, 57
2, 1129380, Note_on_c, 0, 89, 0
2, 1129380, Note_on_c, 0, 90, 57
2, 1129440, Note_on_c, 0, 90, 0
2, 1129440, Note_on_c, 0, 81, 57
2, 1129500, Note_on_c, 0, 81, 0
2, 1129500, Note_on_c, 0, 82, 57
2, 1129560, Note_on_c, 0, 82, 0
2, 1129560, Note_on_c, 0, 84, 57
2, 1129620, Note_on_c, 0, 84, 0
2, 1129620, Note_on_c, 0, 85, 57
2, 1129680, Note_on_c, 0, 85, 0
2, 1129680, Note_on_c, 0, 89, 57
2, 1129740, Note_on_c, 0, 89, 0
2, 1129740, Note_on_c, 0, 90, 57
2, 1129800, Note_on_c, 0, 90, 0
2, 1129800, Note_on_c, 0, 93, 57
2, 1129860, Note_on_c, 0, 93, 0
2, 1129860, Note_on_c, 0, 94, 57
2, 1129920, Note_on_c, 0, 94, 0
2, 1129920, Note_on_c, 0, 84, 57
2, 1129980, Note_on_c, 0, 84, 0
2, 1129980, Note_on_c, 0, 85, 57
2, 1130040, Note_on_c, 0, 85, 0
2, 1130040, Note_on_c, 0, 89, 57
2, 1130100, Note_on_c, 0, 89, 0
2, 1130100, Note_on_c, 0, 90, 57
2, 1130160, Note_on_c, 0, 90, 0
2, 1130160, Note_on_c, 0, 93, 57
2, 1130220, Note_on_c, 0, 93, 0
2, 1130220, Note_on_c, 0, 94, 57
2, 1130280, Note_on_c, 0, 94, 0
2, 1130280, Note_on_c, 0, 96, 57
2, 1130340, Note_on_c, 0, 96, 0
2, 1130340, Note_on_c, 0, 97, 57
2, 1130400, Note_on_c, 0, 97, 0
2, 1130400, Note_on_c, 0, 89, 57
2, 1130460, Note_on_c, 0, 89, 0
2, 1130460, Note_on_c, 0, 90, 57
2, 1130520, Note_on_c, 0, 90, 0
2, 1130520, Note_on_c, 0, 93, 57
2, 1130580, Note_on_c, 0, 93, 0
2, 1130580, Note_on_c, 0, 94, 57
2, 1130640, Note_on_c, 0, 94, 0
2, 1130640, Note_on_c, 0, 96, 57
2, 1130700, Note_on_c, 0, 96, 0
2, 1130700, Note_on_c, 0, 97, 57
2, 1130760, Note_on_c, 0, 97, 0
2, 1130760, Control_c, 0, 64, 0
2, 1130760, Note_on_c, 0, 101, 57
2, 1130820, Note_on_c, 0, 101, 0
2, 1130820, Control_c, 0, 64, 127
2, 1130820, Note_on_c, 0, 102, 57
2, 1130880, Note_on_c, 0, 102, 0
2, 1130880, Note_on_c, 0, 98, 57
2, 1130940, Note_on_c, 0, 98, 0
2, 1130940, Note_on_c, 0, 99, 57
2, 1131000, Note_on_c, 0, 99, 0
2, 1131000, Note_on_c, 0, 96, 57
2, 1131060, Note_on_c, 0, 96, 0
2, 1131060, Note_on_c, 0, 97, 57
2, 1131120, Note_on_c, 0, 97, 0
2, 1131120, Note_on_c, 0, 93, 57
2, 1131180, Note_on_c, 0, 93, 0
2, 1131180, Note_on_c, 0, 94, 57
2, 1131240, Note_on_c, 0, 94, 0
2, 1131240, Note_on_c, 0, 89, 57
2, 1131300, Note_on_c, 0, 89, 0
2, 1131300, Note_on_c, 0, 90, 57
2, 1131360, Note_on_c, 0, 90, 0
2, 1131360, Note_on_c, 0, 86, 57
2, 1131420, Note_on_c, 0, 86, 0
2, 1131420, Note_on_c, 0, 87, 57
2, 1131480, Note_on_c, 0, 87, 0
2, 1131480, Note_on_c, 0, 84, 57
2, 1131540, Note_on_c, 0, 84, 0
2, 1131540, Note_on_c, 0, 85, 57
2, 1131600, Note_on_c, 0, 85, 0
2, 1131600, Note_on_c, 0, 81, 57
2, 1131660, Note_on_c, 0, 81, 0
2, 1131660, Note_on_c, 0, 82, 57
2, 1131720, Note_on_c, 0, 82, 0
2, 1131720, Note_on_c, 0, 77, 57
2, 1131780, Note_on_c, 0, 77, 0
2, 1131780, Note_on_c, 0, 78, 57
2, 1131840, Note_on_c, 0, 78, 0
2, 1131840, Note_on_c, 0, 74, 57
2, 1131900, Note_on_c, 0, 74, 0
2, 1131900, Note_on_c, 0, 75, 57
2, 1131960, Note_on_c, 0, 75, 0
2, 1131960, Note_on_c, 0, 72, 57
2, 1132020, Note_on_c, 0, 72, 0
2, 1132020, Note_on_c, 0, 73, 57
2, 1132080, Note_on_c, 0, 73, 0
2, 1132080, Note_on_c, 0, 69, 57
2, 1132140, Note_on_c, 0, 69, 0
2, 1132140, Note_on_c, 0, 70, 57
2, 1132200, Note_on_c, 0, 70, 0
2, 1132200, Note_on_c, 0, 65, 57
2, 1132260, Note_on_c, 0, 65, 0
2, 1132260, Note_on_c, 0, 66, 57
2, 1132320, Note_on_c, 0, 66, 0
2, 1132320, Note_on_c, 0, 62, 57
2, 1132380, Note_on_c, 0, 62, 0
2, 1132380, Note_on_c, 0, 63, 57
2, 1132440, Note_on_c, 0, 63, 0
2, 1132440, Control_c, 0, 64, 0
2, 1132440, Note_on_c, 0, 60, 57
2, 1132500, Note_on_c, 0, 60, 0
2, 1132500, Control_c, 0, 64, 127
2, 1132500, Note_on_c, 0, 61, 57
2, 1132620, Note_on_c, 0, 61, 0
2, 1132620, Note_on_c, 0, 57, 57
2, 1132740, Note_on_c, 0, 57, 0
2, 1132740, Note_on_c, 0, 58, 57
2, 1132860, Note_on_c, 0, 58, 0
2, 1132860, Note_on_c, 0, 61, 57
2, 1132980, Note_on_c, 0, 61, 0
2, 1132980, Note_on_c, 0, 65, 57
2, 1133100, Note_on_c, 0, 65, 0
2, 1133100, Note_on_c, 0, 68, 57
2, 1133520, Note_on_c, 0, 68, 0
2, 1133520, Control_c, 0, 64, 0
2, 1133520, Note_on_c, 0, 66, 57
2, 1133760, Note_on_c, 0, 66, 0
2, 1133760, Note_on_c, 0, 65, 57
2, 1133919, Note_on_c, 0, 65, 0
2, 1133919, Note_on_c, 0, 64, 57
2, 1134080, Note_on_c, 0, 64, 0
2, 1134080, Note_on_c, 0, 65, 57
2, 1134879, Note_on_c, 0, 65, 0
2, 1134879, Note_on_c, 0, 64, 57
2, 1135040, Note_on_c, 0, 64, 0
2, 1135040, Note_on_c, 0, 65, 57
2, 1135839, Note_on_c, 0, 65, 0
2, 1135839, Note_on_c, 0, 64, 57
2, 1136000, Note_on_c, 0, 64, 0
2, 1136000, Note_on_c, 0, 65, 57
2, 1136319, Note_on_c, 0, 65, 0
2, 1136319, Note_on_c, 0, 64, 57
2, 1136480, Note_on_c, 0, 64, 0
2, 1136480, Note_on_c, 0, 65, 57
2, 1136640, Note_on_c, 0, 65, 0
2, 1136640, Note_on_c, 0, 64, 57
2, 1136799, Note_on_c, 0, 64, 0
2, 1136799, Note_on_c, 0, 65, 57
2, 1136960, Note_on_c, 0, 65, 0
2, 1136960, Note_on_c, 0, 64, 57
2, 1137120, Note_on_c, 0, 64, 0
2, 1137120, Note_on_c, 0, 65, 57
2, 1137279, Note_on_c, 0, 65, 0
2, 1137279, Note_on_c, 0, 64, 57
2, 1137440, Note_on_c, 0, 64, 0
2, 1137440, Note_on_c, 0, 65, 57
2, 1137600, Note_on_c, 0, 65, 0
2, 1137600, Note_on_c, 0, 64, 57
2, 1137840, Note_on_c, 0, 64, 0
2, 1137840, Note_on_c, 0, 65, 57
2, 1138080, Note_on_c, 0, 65, 0
2, 1138080, Note_on_c, 0, 64, 57
2, 1138320, Note_on_c, 0, 64, 0
2, 1138320, Note_on_c, 0, 65, 57
2, 1138560, Note_on_c, 0, 65, 0
2, 1138560, Note_on_c, 0, 64, 57
2, 1138800, Note_on_c, 0, 64, 0
2, 1138800, Note_on_c, 0, 65, 57
2, 1139040, Note_on_c, 0, 65, 0
2, 1139040, Note_on_c, 0, 64, 57
2, 1139280, Note_on_c, 0, 64, 0
2, 1139280, Note_on_c, 0, 65, 57
2, 1139520, Note_on_c, 0, 65, 0
2, 1139520, Note_on_c, 0, 64, 57
2, 1139760, Note_on_c, 0, 64, 0
2, 1139760, Note_on_c, 0, 65, 57
2, 1140000, Note_on_c, 0, 65, 0
2, 1140000, Note_on_c, 0, 64, 57
2, 1140240, Note_on_c, 0, 64, 0
2, 1140240, Note_on_c, 0, 65, 57
2, 1140480, Note_on_c, 0, 65, 0
2, 1140480, Note_on_c, 0, 64, 57
2, 1140480, Note_on_c, 0, 76, 57
2, 1140720, Note_on_c, 0, 76, 0
2, 1140720, Note_on_c, 0, 64, 0
2, 1140720, Note_on_c, 0, 65, 57
2, 1140720, Note_on_c, 0, 77, 57
2, 1140960, Note_on_c, 0, 77, 0
2, 1140960, Note_on_c, 0, 65, 0
2, 1140960, Note_on_c, 0, 64, 57
2, 1140960, Note_on_c, 0, 76, 57
2, 1141200, Note_on_c, 0, 76, 0
2, 1141200, Note_on_c, 0, 64, 0
2, 1141200, Note_on_c, 0, 65, 57
2, 1141200, Note_on_c, 0, 77, 57
2, 1141440, Note_on_c, 0, 77, 0
2, 1141440, Note_on_c, 0, 65, 0
2, 1141440, Note_on_c, 0, 76, 57
2, 1141680, Note_on_c, 0, 76, 0
2, 1141680, Note_on_c, 0, 77, 57
2, 1141920, Note_on_c, 0, 77, 0
2, 1141920, Note_on_c, 0, 74, 57
2, 1142160, Note_on_c, 0, 74, 0
2, 1142160, Note_on_c, 0, 75, 57
2, 1142400, Note_on_c, 0, 75, 0
2, 1142400, Note_on_c, 0, 76, 57
2, 1142640, Note_on_c, 0, 76, 0
2, 1142640, Note_on_c, 0, 77, 57
2, 1142880, Note_on_c, 0, 77, 0
2, 1142880, Note_on_c, 0, 74, 57
2, 1143120, Note_on_c, 0, 74, 0
2, 1143120, Note_on_c, 0, 75, 57
2, 1143360, Note_on_c, 0, 75, 0
2, 1143360, Note_on_c, 0, 76, 57
2, 1143600, Note_on_c, 0, 76, 0
2, 1143600, Note_on_c, 0, 77, 57
2, 1143840, Note_on_c, 0, 77, 0
2, 1143840, Note_on_c, 0, 73, 57
2, 1144080, Note_on_c, 0, 73, 0
2, 1144080, Note_on_c, 0, 74, 57
2, 1144320, Note_on_c, 0, 74, 0
2, 1144320, Note_on_c, 0, 76, 57
2, 1144560, Note_on_c, 0, 76, 0
2, 1144560, Note_on_c, 0, 77, 57
2, 1144800, Note_on_c, 0, 77, 0
2, 1144800, Note_on_c, 0, 73, 57
2, 1145040, Note_on_c, 0, 73, 0
2, 1145040, Note_on_c, 0, 74, 57
2, 1145280, Note_on_c, 0, 74, 0
2, 1145280, Note_on_c, 0, 72, 57
2, 1145280, Note_on_c, 0, 75, 57
2, 1145520, Note_on_c, 0, 75, 0
2, 1145520, Note_on_c, 0, 72, 0
2, 1145520, Note_on_c, 0, 77, 57
2, 1145760, Note_on_c, 0, 77, 0
2, 1145760, Note_on_c, 0, 72, 57
2, 1145760, Note_on_c, 0, 75, 57
2, 1146000, Note_on_c, 0, 75, 0
2, 1146000, Note_on_c, 0, 72, 0
2, 1146000, Note_on_c, 0, 77, 57
2, 1146240, Note_on_c, 0, 77, 0
2, 1146240, Note_on_c, 0, 72, 57
2, 1146240, Note_on_c, 0, 75, 57
2, 1146240, Note_on_c, 0, 80, 57
2, 1146480, Note_on_c, 0, 80, 0
2, 1146480, Note_on_c, 0, 75, 0
2, 1146480, Note_on_c, 0, 72, 0
2, 1146480, Note_on_c, 0, 81, 57
2, 1146720, Note_on_c, 0, 81, 0
2, 1146720, Note_on_c, 0, 72, 57
2, 1146720, Note_on_c, 0, 75, 57
2, 1146960, Note_on_c, 0, 75, 0
2, 1146960, Note_on_c, 0, 72, 0
2, 1146960, Note_on_c, 0, 77, 57
2, 1147200, Note_on_c, 0, 77, 0
2, 1147200, Note_on_c, 0, 74, 57
2, 1147200, Note_on_c, 0, 76, 57
2, 1147440, Note_on_c, 0, 76, 0
2, 1147440, Note_on_c, 0, 74, 0
2, 1147440, Note_on_c, 0, 77, 57
2, 1147680, Note_on_c, 0, 77, 0
2, 1147680, Note_on_c, 0, 74, 57
2, 1147680, Note_on_c, 0, 76, 57
2, 1147920, Note_on_c, 0, 76, 0
2, 1147920, Note_on_c, 0, 74, 0
2, 1147920, Note_on_c, 0, 77, 57
2, 1148160, Note_on_c, 0, 77, 0
2, 1148160, Note_on_c, 0, 69, 57
2, 1148160, Note_on_c, 0, 74, 57
2, 1148400, Note_on_c, 0, 74, 0
2, 1148400, Note_on_c, 0, 69, 0
2, 1148400, Note_on_c, 0, 70, 57
2, 1148640, Note_on_c, 0, 70, 0
2, 1148640, Note_on_c, 0, 70, 57
2, 1148640, Note_on_c, 0, 73, 57
2, 1148880, Note_on_c, 0, 73, 0
2, 1148880, Note_on_c, 0, 70, 0
2, 1148880, Note_on_c, 0, 74, 57
2, 1149120, Note_on_c, 0, 74, 0
2, 1149120, Note_on_c, 0, 69, 57
2, 1149120, Note_on_c, 0, 74, 57
2, 1149360, Note_on_c, 0, 74, 0
2, 1149360, Note_on_c, 0, 69, 0
2, 1149360, Note_on_c, 0, 75, 57
2, 1149600, Note_on_c, 0, 75, 0
2, 1149600, Note_on_c, 0, 69, 57
2, 1149600, Note_on_c, 0, 71, 57
2, 1149840, Note_on_c, 0, 71, 0
2, 1149840, Note_on_c, 0, 69, 0
2, 1149840, Note_on_c, 0, 72, 57
2, 1150080, Note_on_c, 0, 72, 0
2, 1150080, Note_on_c, 0, 69, 57
2, 1150080, Note_on_c, 0, 74, 57
2, 1150320, Note_on_c, 0, 74, 0
2, 1150320, Note_on_c, 0, 69, 0
2, 1150320, Note_on_c, 0, 75, 57
2, 1150560, Note_on_c, 0, 75, 0
2, 1150560, Note_on_c, 0, 69, 57
2, 1150560, Note_on_c, 0, 71, 57
2, 1150800, Note_on_c, 0, 71, 0
2, 1150800, Note_on_c, 0, 69, 0
2, 1150800, Note_on_c, 0, 72, 57
2, 1151040, Note_on_c, 0, 72, 0
2, 1151040, Note_on_c, 0, 70, 57
2, 1151040, Note_on_c, 0, 73, 57
2, 1151280, Note_on_c, 0, 73, 0
2, 1151280, Note_on_c, 0, 70, 0
2, 1151280, Note_on_c, 0, 74, 57
2, 1151520, Note_on_c, 0, 74, 0
2, 1151520, Note_on_c, 0, 74, 57
2, 1151520, Note_on_c, 0, 76, 57
2, 1151760, Note_on_c, 0, 76, 0
2, 1151760, Note_on_c, 0, 74, 0
2, 1151760, Note_on_c, 0, 77, 57
2, 1152000, Note_on_c, 0, 77, 0
2, 1152000, Note_on_c, 0, 65, 57
2, 1152000, Note_on_c, 0, 69, 57
2, 1152240, Note_on_c, 0, 69, 0
2, 1152240, Note_on_c, 0, 65, 0
2, 1152240, Note_on_c, 0, 70, 57
2, 1152480, Note_on_c, 0, 70, 0
2, 1152480, Note_on_c, 0, 69, 57
2, 1152480, Note_on_c, 0, 74, 57
2, 1152720, Note_on_c, 0, 74, 0
2, 1152720, Note_on_c, 0, 69, 0
2, 1152720, Note_on_c, 0, 70, 57
2, 1152960, Note_on_c, 0, 70, 0
2, 1152960, Control_c, 0, 64, 127
2, 1152960, Note_on_c, 0, 79, 57
2, 1153200, Note_on_c, 0, 79, 0
2, 1153440, Note_on_c, 0, 81, 57
2, 1153560, Note_on_c, 0, 81, 0
2, 1153560, Note_on_c, 0, 75, 57
2, 1153680, Note_on_c, 0, 75, 0
2, 1153680, Note_on_c, 0, 72, 57
2, 1153800, Note_on_c, 0, 72, 0
2, 1153800, Note_on_c, 0, 65, 57
2, 1153920, Note_on_c, 0, 65, 0
2, 1153920, Note_on_c, 0, 77, 57
2, 1154160, Note_on_c, 0, 77, 0
2, 1154400, Note_on_c, 0, 79, 57
2, 1154520, Note_on_c, 0, 79, 0
2, 1154520, Note_on_c, 0, 75, 57
2, 1154640, Note_on_c, 0, 75, 0
2, 1154640, Note_on_c, 0, 72, 57
2, 1154760, Note_on_c, 0, 72, 0
2, 1154760, Control_c, 0, 64, 0
2, 1154760, Note_on_c, 0, 65, 57
2, 1154880, Note_on_c, 0, 65, 0
2, 1154880, Control_c, 0, 64, 127
2, 1154880, Note_on_c, 0, 81, 57
2, 1155120, Note_on_c, 0, 81, 0
2, 1155360, Note_on_c, 0, 82, 57
2, 1155480, Note_on_c, 0, 82, 0
2, 1155480, Note_on_c, 0, 74, 57
2, 1155600, Note_on_c, 0, 74, 0
2, 1155600, Note_on_c, 0, 70, 57
2, 1155720, Note_on_c, 0, 70, 0
2, 1155720, Note_on_c, 0, 65, 57
2, 1155840, Note_on_c, 0, 65, 0
2, 1155840, Note_on_c, 0, 77, 57
2, 1156080, Note_on_c, 0, 77, 0
2, 1156320, Note_on_c, 0, 79, 57
2, 1156440, Note_on_c, 0, 79, 0
2, 1156440, Note_on_c, 0, 74, 57
2, 1156560, Note_on_c, 0, 74, 0
2, 1156560, Note_on_c, 0, 70, 57
2, 1156680, Note_on_c, 0, 70, 0
2, 1156680, Control_c, 0, 64, 0
2, 1156680, Note_on_c, 0, 65, 57
2, 1156800, Note_on_c, 0, 65, 0
2, 1156800, Control_c, 0, 64, 127
2, 1156800, Note_on_c, 0, 72, 57
2, 1157040, Note_on_c, 0, 72, 0
2, 1157280, Note_on_c, 0, 79, 57
2, 1157400, Note_on_c, 0, 79, 0
2, 1157400, Note_on_c, 0, 75, 57
2, 1157520, Note_on_c, 0, 75, 0
2, 1157520, Note_on_c, 0, 69, 57
2, 1157640, Note_on_c, 0, 69, 0
2, 1157640, Note_on_c, 0, 65, 57
2, 1157760, Note_on_c, 0, 65, 0
2, 1157760, Note_on_c, 0, 72, 57
2, 1158000, Note_on_c, 0, 72, 0
2, 1158240, Note_on_c, 0, 77, 57
2, 1158360, Note_on_c, 0, 77, 0
2, 1158360, Note_on_c, 0, 72, 57
2, 1158480, Note_on_c, 0, 72, 0
2, 1158480, Note_on_c, 0, 69, 57
2, 1158600, Note_on_c, 0, 69, 0
2, 1158600, Control_c, 0, 64, 0
2, 1158600, Note_on_c, 0, 65, 57
2, 1158720, Note_on_c, 0, 65, 0
2, 1158720, Note_on_c, 0, 70, 57
2, 1158960, Note_on_c, 0, 70, 0
2, 1159200, Note_on_c, 0, 65, 57
2, 1159200, Note_on_c, 0, 77, 57
2, 1159359, Note_on_c, 0, 77, 0
2, 1159359, Note_on_c, 0, 65, 0
2, 1159359, Note_on_c, 0, 70, 57
2, 1159520, Note_on_c, 0, 70, 0
2, 1159520, Note_on_c, 0, 74, 57
2, 1159680, Note_on_c, 0, 74, 0
2, 1159680, Note_on_c, 0, 67, 70
2, 1159680, Note_on_c, 0, 79, 70
2, 1159839, Note_on_c, 0, 79, 0
2, 1159839, Note_on_c, 0, 67, 0
2, 1159839, Note_on_c, 0, 70, 70
2, 1160000, Note_on_c, 0, 70, 0
2, 1160000, Note_on_c, 0, 76, 70
2, 1160160, Note_on_c, 0, 76, 0
2, 1160160, Note_on_c, 0, 69, 70
2, 1160160, Note_on_c, 0, 81, 70
2, 1160319, Note_on_c, 0, 81, 0
2, 1160319, Note_on_c, 0, 69, 0
2, 1160319, Note_on_c, 0, 72, 70
2, 1160480, Note_on_c, 0, 72, 0
2, 1160480, Note_on_c, 0, 75, 70
2, 1160640, Note_on_c, 0, 75, 0
2, 1160640, Note_on_c, 0, 72, 96
2, 1160640, Note_on_c, 0, 84, 96
2, 1160799, Note_on_c, 0, 84, 0
2, 1160799, Note_on_c, 0, 72, 0
2, 1160799, Note_on_c, 0, 81, 70
2, 1160960, Note_on_c, 0, 81, 0
2, 1160960, Note_on_c, 0, 74, 70
2, 1161120, Note_on_c, 0, 74, 0
2, 1161120, Note_on_c, 0, 70, 57
2, 1161120, Note_on_c, 0, 82, 57
2, 1161279, Note_on_c, 0, 82, 0
2, 1161279, Note_on_c, 0, 70, 0
2, 1161279, Note_on_c, 0, 79, 57
2, 1161440, Note_on_c, 0, 79, 0
2, 1161440, Note_on_c, 0, 74, 57
2, 1161600, Note_on_c, 0, 74, 0
2, 1161600, Note_on_c, 0, 62, 57
2, 1161600, Note_on_c, 0, 74, 57
2, 1161759, Note_on_c, 0, 74, 0
2, 1161759, Note_on_c, 0, 62, 0
2, 1161759, Note_on_c, 0, 67, 57
2, 1161920, Note_on_c, 0, 67, 0
2, 1161920, Note_on_c, 0, 70, 57
2, 1162080, Note_on_c, 0, 70, 0
2, 1162080, Note_on_c, 0, 64, 57
2, 1162080, Note_on_c, 0, 76, 57
2, 1162239, Note_on_c, 0, 76, 0
2, 1162239, Note_on_c, 0, 64, 0
2, 1162239, Note_on_c, 0, 70, 57
2, 1162400, Note_on_c, 0, 70, 0
2, 1162400, Note_on_c, 0, 72, 57
2, 1162560, Note_on_c, 0, 72, 0
2, 1162560, Note_on_c, 0, 65, 57
2, 1162560, Note_on_c, 0, 77, 57
2, 1162719, Note_on_c, 0, 77, 0
2, 1162719, Note_on_c, 0, 65, 0
2, 1162719, Note_on_c, 0, 69, 57
2, 1162880, Note_on_c, 0, 69, 0
2, 1162880, Note_on_c, 0, 72, 57
2, 1163040, Note_on_c, 0, 72, 0
2, 1163040, Control_c, 0, 64, 127
2, 1163040, Note_on_c, 0, 79, 57
2, 1163199, Note_on_c, 0, 79, 0
2, 1163199, Note_on_c, 0, 72, 57
2, 1163360, Note_on_c, 0, 72, 0
2, 1163360, Note_on_c, 0, 67, 57
2, 1163520, Note_on_c, 0, 67, 0
2, 1163520, Note_on_c, 0, 72, 57
2, 1163679, Note_on_c, 0, 72, 0
2, 1163679, Note_on_c, 0, 67, 57
2, 1163840, Note_on_c, 0, 67, 0
2, 1163840, Control_c, 0, 64, 0
2, 1163840, Note_on_c, 0, 60, 57
2, 1164000, Note_on_c, 0, 60, 0
2, 1164000, Control_c, 0, 64, 127
2, 1164000, Note_on_c, 0, 79, 57
2, 1164159, Note_on_c, 0, 79, 0
2, 1164159, Note_on_c, 0, 72, 57
2, 1164320, Note_on_c, 0, 72, 0
2, 1164320, Note_on_c, 0, 67, 57
2, 1164480, Note_on_c, 0, 67, 0
2, 1164480, Note_on_c, 0, 72, 57
2, 1164639, Note_on_c, 0, 72, 0
2, 1164639, Note_on_c, 0, 67, 57
2, 1164800, Note_on_c, 0, 67, 0
2, 1164800, Control_c, 0, 64, 0
2, 1164800, Note_on_c, 0, 60, 57
2, 1164960, Note_on_c, 0, 60, 0
2, 1164960, Control_c, 0, 64, 127
2, 1164960, Note_on_c, 0, 77, 57
2, 1165119, Note_on_c, 0, 77, 0
2, 1165119, Note_on_c, 0, 71, 57
2, 1165280, Note_on_c, 0, 71, 0
2, 1165280, Note_on_c, 0, 65, 57
2, 1165440, Note_on_c, 0, 65, 0
2, 1165440, Note_on_c, 0, 71, 57
2, 1165599, Note_on_c, 0, 71, 0
2, 1165599, Note_on_c, 0, 65, 57
2, 1165760, Note_on_c, 0, 65, 0
2, 1165760, Control_c, 0, 64, 0
2, 1165760, Note_on_c, 0, 59, 57
2, 1165920, Note_on_c, 0, 59, 0
2, 1165920, Control_c, 0, 64, 127
2, 1165920, Note_on_c, 0, 77, 57
2, 1166079, Note_on_c, 0, 77, 0
2, 1166079, Note_on_c, 0, 71, 57
2, 1166240, Note_on_c, 0, 71, 0
2, 1166240, Note_on_c, 0, 65, 57
2, 1166400, Note_on_c, 0, 65, 0
2, 1166400, Control_c, 0, 64, 127
2, 1166400, Note_on_c, 0, 71, 57
2, 1166559, Note_on_c, 0, 71, 0
2, 1166559, Note_on_c, 0, 65, 57
2, 1166720, Note_on_c, 0, 65, 0
2, 1166720, Note_on_c, 0, 59, 57
2, 1166880, Note_on_c, 0, 59, 0
2, 1166880, Control_c, 0, 64, 0
2, 1167039, Note_on_c, 0, 64, 57
2, 1167039, Note_on_c, 0, 76, 57
2, 1167200, Note_on_c, 0, 76, 0
2, 1167200, Note_on_c, 0, 64, 0
2, 1167200, Note_on_c, 0, 67, 57
2, 1167200, Note_on_c, 0, 72, 57
2, 1167360, Note_on_c, 0, 72, 0
2, 1167360, Note_on_c, 0, 67, 0
2, 1167519, Note_on_c, 0, 63, 57
2, 1167519, Note_on_c, 0, 75, 57
2, 1167680, Note_on_c, 0, 75, 0
2, 1167680, Note_on_c, 0, 63, 0
2, 1167680, Note_on_c, 0, 69, 57
2, 1167680, Note_on_c, 0, 72, 57
2, 1167840, Note_on_c, 0, 72, 0
2, 1167840, Note_on_c, 0, 69, 0
2, 1167999, Note_on_c, 0, 62, 57
2, 1167999, Note_on_c, 0, 74, 57
2, 1168160, Note_on_c, 0, 74, 0
2, 1168160, Note_on_c, 0, 62, 0
2, 1168160, Note_on_c, 0, 67, 57
2, 1168160, Note_on_c, 0, 70, 57
2, 1168320, Note_on_c, 0, 70, 0
2, 1168320, Note_on_c, 0, 67, 0
2, 1168320, Control_c, 0, 64, 127
2, 1168479, Note_on_c, 0, 69, 57
2, 1168479, Note_on_c, 0, 81, 57
2, 1168640, Note_on_c, 0, 81, 0
2, 1168640, Note_on_c, 0, 69, 0
2, 1168640, Note_on_c, 0, 73, 57
2, 1168800, Note_on_c, 0, 73, 0
2, 1168959, Note_on_c, 0, 67, 70
2, 1168959, Note_on_c, 0, 79, 70
2, 1169120, Note_on_c, 0, 79, 0
2, 1169120, Note_on_c, 0, 67, 0
2, 1169120, Control_c, 0, 64, 0
2, 1169120, Note_on_c, 0, 70, 70
2, 1169120, Note_on_c, 0, 73, 70
2, 1169280, Note_on_c, 0, 73, 0
2, 1169280, Note_on_c, 0, 70, 0
2, 1169280, Control_c, 0, 64, 127
2, 1169439, Note_on_c, 0, 68, 70
2, 1169439, Note_on_c, 0, 80, 70
2, 1169600, Note_on_c, 0, 80, 0
2, 1169600, Note_on_c, 0, 68, 0
2, 1169600, Note_on_c, 0, 74, 70
2, 1169760, Note_on_c, 0, 74, 0
2, 1169919, Note_on_c, 0, 69, 70
2, 1169919, Note_on_c, 0, 81, 70
2, 1170080, Note_on_c, 0, 81, 0
2, 1170080, Note_on_c, 0, 69, 0
2, 1170080, Control_c, 0, 64, 0
2, 1170080, Note_on_c, 0, 74, 70
2, 1170240, Note_on_c, 0, 74, 0
2, 1170240, Control_c, 0, 64, 127
2, 1170399, Note_on_c, 0, 74, 70
2, 1170399, Note_on_c, 0, 86, 70
2, 1170560, Note_on_c, 0, 86, 0
2, 1170560, Note_on_c, 0, 74, 0
2, 1170560, Note_on_c, 0, 81, 70
2, 1170720, Note_on_c, 0, 81, 0
2, 1170879, Note_on_c, 0, 69, 70
2, 1170879, Note_on_c, 0, 81, 70
2, 1171040, Note_on_c, 0, 81, 0
2, 1171040, Note_on_c, 0, 69, 0
2, 1171040, Control_c, 0, 64, 0
2, 1171040, Note_on_c, 0, 74, 70
2, 1171200, Note_on_c, 0, 74, 0
2, 1171200, Control_c, 0, 64, 127
2, 1171359, Note_on_c, 0, 69, 70
2, 1171359, Note_on_c, 0, 81, 70
2, 1171520, Note_on_c, 0, 81, 0
2, 1171520, Note_on_c, 0, 69, 0
2, 1171520, Note_on_c, 0, 74, 70
2, 1171680, Note_on_c, 0, 74, 0
2, 1171839, Note_on_c, 0, 70, 70
2, 1171839, Note_on_c, 0, 82, 70
2, 1172000, Note_on_c, 0, 82, 0
2, 1172000, Note_on_c, 0, 70, 0
2, 1172000, Control_c, 0, 64, 0
2, 1172000, Note_on_c, 0, 74, 70
2, 1172160, Note_on_c, 0, 74, 0
2, 1172319, Note_on_c, 0, 79, 70
2, 1172319, Note_on_c, 0, 84, 70
2, 1172319, Note_on_c, 0, 87, 70
2, 1172480, Note_on_c, 0, 87, 0
2, 1172480, Note_on_c, 0, 84, 0
2, 1172480, Note_on_c, 0, 79, 0
2, 1172480, Note_on_c, 0, 75, 70
2, 1172640, Note_on_c, 0, 75, 0
2, 1172799, Note_on_c, 0, 75, 70
2, 1172799, Note_on_c, 0, 79, 70
2, 1172799, Note_on_c, 0, 84, 70
2, 1172960, Note_on_c, 0, 84, 0
2, 1172960, Note_on_c, 0, 79, 0
2, 1172960, Note_on_c, 0, 75, 0
2, 1172960, Note_on_c, 0, 72, 70
2, 1173120, Note_on_c, 0, 72, 0
2, 1173279, Note_on_c, 0, 84, 70
2, 1173279, Note_on_c, 0, 89, 70
2, 1173440, Note_on_c, 0, 89, 0
2, 1173440, Note_on_c, 0, 84, 0
2, 1173440, Note_on_c, 0, 77, 70
2, 1173600, Note_on_c, 0, 77, 0
2, 1173759, Note_on_c, 0, 72, 70
2, 1173759, Note_on_c, 0, 81, 70
2, 1173920, Note_on_c, 0, 81, 0
2, 1173920, Note_on_c, 0, 72, 0
2, 1173920, Note_on_c, 0, 69, 70
2, 1174080, Note_on_c, 0, 69, 0
2, 1174239, Note_on_c, 0, 74, 70
2, 1174239, Note_on_c, 0, 77, 70
2, 1174239, Note_on_c, 0, 82, 70
2, 1174400, Note_on_c, 0, 82, 0
2, 1174400, Note_on_c, 0, 77, 0
2, 1174400, Note_on_c, 0, 74, 0
2, 1174400, Note_on_c, 0, 70, 70
2, 1174560, Note_on_c, 0, 70, 0
2, 1174560, Note_on_c, 0, 65, 57
2, 1174560, Note_on_c, 0, 77, 57
2, 1174719, Note_on_c, 0, 77, 0
2, 1174719, Note_on_c, 0, 65, 0
2, 1174719, Note_on_c, 0, 70, 57
2, 1174880, Note_on_c, 0, 70, 0
2, 1174880, Note_on_c, 0, 74, 57
2, 1175040, Note_on_c, 0, 74, 0
2, 1175040, Note_on_c, 0, 67, 70
2, 1175040, Note_on_c, 0, 79, 70
2, 1175199, Note_on_c, 0, 79, 0
2, 1175199, Note_on_c, 0, 67, 0
2, 1175199, Note_on_c, 0, 70, 70
2, 1175360, Note_on_c, 0, 70, 0
2, 1175360, Note_on_c, 0, 76, 70
2, 1175520, Note_on_c, 0, 76, 0
2, 1175520, Note_on_c, 0, 69, 70
2, 1175520, Note_on_c, 0, 81, 70
2, 1175679, Note_on_c, 0, 81, 0
2, 1175679, Note_on_c, 0, 69, 0
2, 1175679, Note_on_c, 0, 72, 70
2, 1175840, Note_on_c, 0, 72, 0
2, 1175840, Note_on_c, 0, 75, 70
2, 1176000, Note_on_c, 0, 75, 0
2, 1176000, Note_on_c, 0, 72, 96
2, 1176000, Note_on_c, 0, 84, 96
2, 1176159, Note_on_c, 0, 84, 0
2, 1176159, Note_on_c, 0, 72, 0
2, 1176159, Note_on_c, 0, 81, 70
2, 1176320, Note_on_c, 0, 81, 0
2, 1176320, Note_on_c, 0, 74, 70
2, 1176480, Note_on_c, 0, 74, 0
2, 1176480, Note_on_c, 0, 70, 57
2, 1176480, Note_on_c, 0, 82, 57
2, 1176639, Note_on_c, 0, 82, 0
2, 1176639, Note_on_c, 0, 70, 0
2, 1176639, Note_on_c, 0, 79, 57
2, 1176800, Note_on_c, 0, 79, 0
2, 1176800, Note_on_c, 0, 74, 57
2, 1176960, Note_on_c, 0, 74, 0
2, 1176960, Note_on_c, 0, 62, 57
2, 1176960, Note_on_c, 0, 74, 57
2, 1177119, Note_on_c, 0, 74, 0
2, 1177119, Note_on_c, 0, 62, 0
2, 1177119, Note_on_c, 0, 67, 57
2, 1177280, Note_on_c, 0, 67, 0
2, 1177280, Note_on_c, 0, 70, 57
2, 1177440, Note_on_c, 0, 70, 0
2, 1177440, Note_on_c, 0, 64, 57
2, 1177440, Note_on_c, 0, 76, 57
2, 1177599, Note_on_c, 0, 76, 0
2, 1177599, Note_on_c, 0, 64, 0
2, 1177599, Note_on_c, 0, 70, 57
2, 1177760, Note_on_c, 0, 70, 0
2, 1177760, Note_on_c, 0, 72, 57
2, 1177920, Note_on_c, 0, 72, 0
2, 1177920, Note_on_c, 0, 65, 57
2, 1177920, Note_on_c, 0, 77, 57
2, 1178079, Note_on_c, 0, 77, 0
2, 1178079, Note_on_c, 0, 65, 0
2, 1178079, Note_on_c, 0, 69, 57
2, 1178240, Note_on_c, 0, 69, 0
2, 1178240, Note_on_c, 0, 72, 57
2, 1178400, Note_on_c, 0, 72, 0
2, 1178400, Control_c, 0, 64, 127
2, 1178400, Note_on_c, 0, 79, 57
2, 1178559, Note_on_c, 0, 79, 0
2, 1178559, Note_on_c, 0, 72, 57
2, 1178720, Note_on_c, 0, 72, 0
2, 1178720, Note_on_c, 0, 67, 57
2, 1178880, Note_on_c, 0, 67, 0
2, 1178880, Note_on_c, 0, 72, 57
2, 1179039, Note_on_c, 0, 72, 0
2, 1179039, Note_on_c, 0, 67, 57
2, 1179200, Note_on_c, 0, 67, 0
2, 1179200, Control_c, 0, 64, 0
2, 1179200, Note_on_c, 0, 60, 57
2, 1179360, Note_on_c, 0, 60, 0
2, 1179360, Control_c, 0, 64, 127
2, 1179360, Note_on_c, 0, 79, 57
2, 1179519, Note_on_c, 0, 79, 0
2, 1179519, Note_on_c, 0, 72, 57
2, 1179680, Note_on_c, 0, 72, 0
2, 1179680, Note_on_c, 0, 67, 57
2, 1179840, Note_on_c, 0, 67, 0
2, 1179840, Note_on_c, 0, 72, 57
2, 1179999, Note_on_c, 0, 72, 0
2, 1179999, Note_on_c, 0, 67, 57
2, 1180160, Note_on_c, 0, 67, 0
2, 1180160, Control_c, 0, 64, 0
2, 1180160, Note_on_c, 0, 60, 57
2, 1180320, Note_on_c, 0, 60, 0
2, 1180320, Control_c, 0, 64, 127
2, 1180320, Note_on_c, 0, 77, 57
2, 1180479, Note_on_c, 0, 77, 0
2, 1180479, Note_on_c, 0, 71, 57
2, 1180640, Note_on_c, 0, 71, 0
2, 1180640, Note_on_c, 0, 65, 57
2, 1180800, Note_on_c, 0, 65, 0
2, 1180800, Note_on_c, 0, 71, 57
2, 1180959, Note_on_c, 0, 71, 0
2, 1180959, Note_on_c, 0, 65, 57
2, 1181120, Note_on_c, 0, 65, 0
2, 1181120, Control_c, 0, 64, 0
2, 1181120, Note_on_c, 0, 59, 57
2, 1181280, Note_on_c, 0, 59, 0
2, 1181280, Control_c, 0, 64, 127
2, 1181280, Note_on_c, 0, 77, 57
2, 1181439, Note_on_c, 0, 77, 0
2, 1181439, Note_on_c, 0, 71, 57
2, 1181600, Note_on_c, 0, 71, 0
2, 1181600, Note_on_c, 0, 65, 57
2, 1181760, Note_on_c, 0, 65, 0
2, 1181760, Control_c, 0, 64, 127
2, 1181760, Note_on_c, 0, 71, 57
2, 1181919, Note_on_c, 0, 71, 0
2, 1181919, Note_on_c, 0, 65, 57
2, 1182080, Note_on_c, 0, 65, 0
2, 1182080, Note_on_c, 0, 59, 57
2, 1182240, Note_on_c, 0, 59, 0
2, 1182240, Control_c, 0, 64, 0
2, 1182399, Note_on_c, 0, 64, 57
2, 1182399, Note_on_c, 0, 76, 57
2, 1182560, Note_on_c, 0, 76, 0
2, 1182560, Note_on_c, 0, 64, 0
2, 1182560, Note_on_c, 0, 67, 57
2, 1182560, Note_on_c, 0, 72, 57
2, 1182720, Note_on_c, 0, 72, 0
2, 1182720, Note_on_c, 0, 67, 0
2, 1182879, Note_on_c, 0, 63, 57
2, 1182879, Note_on_c, 0, 75, 57
2, 1183040, Note_on_c, 0, 75, 0
2, 1183040, Note_on_c, 0, 63, 0
2, 1183040, Note_on_c, 0, 69, 57
2, 1183040, Note_on_c, 0, 72, 57
2, 1183200, Note_on_c, 0, 72, 0
2, 1183200, Note_on_c, 0, 69, 0
2, 1183359, Note_on_c, 0, 62, 57
2, 1183359, Note_on_c, 0, 74, 57
2, 1183520, Note_on_c, 0, 74, 0
2, 1183520, Note_on_c, 0, 62, 0
2, 1183520, Note_on_c, 0, 67, 57
2, 1183520, Note_on_c, 0, 70, 57
2, 1183680, Note_on_c, 0, 70, 0
2, 1183680, Note_on_c, 0, 67, 0
2, 1183680, Control_c, 0, 64, 127
2, 1183839, Note_on_c, 0, 69, 57
2, 1183839, Note_on_c, 0, 81, 57
2, 1184000, Note_on_c, 0, 81, 0
2, 1184000, Note_on_c, 0, 69, 0
2, 1184000, Note_on_c, 0, 73, 57
2, 1184160, Note_on_c, 0, 73, 0
2, 1184319, Note_on_c, 0, 67, 70
2, 1184319, Note_on_c, 0, 79, 70
2, 1184480, Note_on_c, 0, 79, 0
2, 1184480, Note_on_c, 0, 67, 0
2, 1184480, Control_c, 0, 64, 0
2, 1184480, Note_on_c, 0, 70, 70
2, 1184480, Note_on_c, 0, 73, 70
2, 1184640, Note_on_c, 0, 73, 0
2, 1184640, Note_on_c, 0, 70, 0
2, 1184640, Control_c, 0, 64, 127
2, 1184799, Note_on_c, 0, 68, 70
2, 1184799, Note_on_c, 0, 80, 70
2, 1184960, Note_on_c, 0, 80, 0
2, 1184960, Note_on_c, 0, 68, 0
2, 1184960, Note_on_c, 0, 74, 70
2, 1185120, Note_on_c, 0, 74, 0
2, 1185279, Note_on_c, 0, 69, 70
2, 1185279, Note_on_c, 0, 81, 70
2, 1185440, Note_on_c, 0, 81, 0
2, 1185440, Note_on_c, 0, 69, 0
2, 1185440, Control_c, 0, 64, 0
2, 1185440, Note_on_c, 0, 74, 70
2, 1185600, Note_on_c, 0, 74, 0
2, 1185600, Control_c, 0, 64, 127
2, 1185759, Note_on_c, 0, 74, 70
2, 1185759, Note_on_c, 0, 86, 70
2, 1185920, Note_on_c, 0, 86, 0
2, 1185920, Note_on_c, 0, 74, 0
2, 1185920, Note_on_c, 0, 81, 70
2, 1186080, Note_on_c, 0, 81, 0
2, 1186239, Note_on_c, 0, 69, 70
2, 1186239, Note_on_c, 0, 81, 70
2, 1186400, Note_on_c, 0, 81, 0
2, 1186400, Note_on_c, 0, 69, 0
2, 1186400, Control_c, 0, 64, 0
2, 1186400, Note_on_c, 0, 74, 70
2, 1186560, Note_on_c, 0, 74, 0
2, 1186560, Control_c, 0, 64, 127
2, 1186719, Note_on_c, 0, 69, 70
2, 1186719, Note_on_c, 0, 81, 70
2, 1186880, Note_on_c, 0, 81, 0
2, 1186880, Note_on_c, 0, 69, 0
2, 1186880, Note_on_c, 0, 74, 70
2, 1187040, Note_on_c, 0, 74, 0
2, 1187199, Note_on_c, 0, 70, 70
2, 1187199, Note_on_c, 0, 82, 70
2, 1187360, Note_on_c, 0, 82, 0
2, 1187360, Note_on_c, 0, 70, 0
2, 1187360, Control_c, 0, 64, 0
2, 1187360, Note_on_c, 0, 74, 70
2, 1187520, Note_on_c, 0, 74, 0
2, 1187520, Control_c, 0, 64, 127
2, 1187679, Note_on_c, 0, 75, 83
2, 1187679, Note_on_c, 0, 87, 83
2, 1187840, Note_on_c, 0, 87, 0
2, 1187840, Note_on_c, 0, 75, 0
2, 1187840, Note_on_c, 0, 82, 83
2, 1188000, Note_on_c, 0, 82, 0
2, 1188159, Note_on_c, 0, 70, 83
2, 1188159, Note_on_c, 0, 82, 83
2, 1188320, Note_on_c, 0, 82, 0
2, 1188320, Note_on_c, 0, 70, 0
2, 1188320, Control_c, 0, 64, 0
2, 1188320, Note_on_c, 0, 75, 83
2, 1188480, Note_on_c, 0, 75, 0
2, 1188639, Control_c, 0, 64, 127
2, 1188639, Note_on_c, 0, 71, 83
2, 1188639, Note_on_c, 0, 83, 83
2, 1188800, Note_on_c, 0, 83, 0
2, 1188800, Note_on_c, 0, 71, 0
2, 1188800, Note_on_c, 0, 75, 83
2, 1188800, Note_on_c, 0, 80, 83
2, 1188960, Note_on_c, 0, 80, 0
2, 1188960, Note_on_c, 0, 75, 0
2, 1189119, Note_on_c, 0, 72, 83
2, 1189119, Note_on_c, 0, 84, 83
2, 1189280, Note_on_c, 0, 84, 0
2, 1189280, Note_on_c, 0, 72, 0
2, 1189280, Control_c, 0, 64, 0
2, 1189280, Note_on_c, 0, 75, 83
2, 1189280, Note_on_c, 0, 80, 83
2, 1189440, Note_on_c, 0, 80, 0
2, 1189440, Note_on_c, 0, 75, 0
2, 1189440, Control_c, 0, 64, 127
2, 1189599, Note_on_c, 0, 77, 83
2, 1189599, Note_on_c, 0, 89, 83
2, 1189760, Note_on_c, 0, 89, 0
2, 1189760, Note_on_c, 0, 77, 0
2, 1189760, Note_on_c, 0, 84, 83
2, 1189920, Note_on_c, 0, 84, 0
2, 1190079, Note_on_c, 0, 72, 83
2, 1190079, Note_on_c, 0, 84, 83
2, 1190240, Note_on_c, 0, 84, 0
2, 1190240, Note_on_c, 0, 72, 0
2, 1190240, Control_c, 0, 64, 0
2, 1190240, Note_on_c, 0, 77, 83
2, 1190400, Note_on_c, 0, 77, 0
2, 1190400, Control_c, 0, 64, 127
2, 1190559, Note_on_c, 0, 73, 83
2, 1190559, Note_on_c, 0, 85, 83
2, 1190720, Note_on_c, 0, 85, 0
2, 1190720, Note_on_c, 0, 73, 0
2, 1190720, Note_on_c, 0, 77, 83
2, 1190720, Note_on_c, 0, 82, 83
2, 1190880, Note_on_c, 0, 82, 0
2, 1190880, Note_on_c, 0, 77, 0
2, 1191039, Note_on_c, 0, 74, 83
2, 1191039, Note_on_c, 0, 86, 83
2, 1191200, Note_on_c, 0, 86, 0
2, 1191200, Note_on_c, 0, 74, 0
2, 1191200, Control_c, 0, 64, 0
2, 1191200, Note_on_c, 0, 77, 83
2, 1191200, Note_on_c, 0, 82, 83
2, 1191360, Note_on_c, 0, 82, 0
2, 1191360, Note_on_c, 0, 77, 0
2, 1191360, Control_c, 0, 64, 127
2, 1191519, Note_on_c, 0, 79, 83
2, 1191519, Note_on_c, 0, 91, 83
2, 1191680, Note_on_c, 0, 91, 0
2, 1191680, Note_on_c, 0, 79, 0
2, 1191680, Note_on_c, 0, 86, 83
2, 1191840, Note_on_c, 0, 86, 0
2, 1191999, Note_on_c, 0, 74, 83
2, 1191999, Note_on_c, 0, 86, 83
2, 1192160, Note_on_c, 0, 86, 0
2, 1192160, Note_on_c, 0, 74, 0
2, 1192160, Control_c, 0, 64, 0
2, 1192160, Note_on_c, 0, 79, 83
2, 1192320, Note_on_c, 0, 79, 0
2, 1192320, Control_c, 0, 64, 127
2, 1192479, Note_on_c, 0, 79, 83
2, 1192479, Note_on_c, 0, 91, 83
2, 1192640, Note_on_c, 0, 91, 0
2, 1192640, Note_on_c, 0, 79, 0
2, 1192640, Note_on_c, 0, 84, 83
2, 1192640, Note_on_c, 0, 87, 83
2, 1192800, Note_on_c, 0, 87, 0
2, 1192800, Note_on_c, 0, 84, 0
2, 1192959, Note_on_c, 0, 75, 83
2, 1192959, Note_on_c, 0, 87, 83
2, 1193120, Note_on_c, 0, 87, 0
2, 1193120, Note_on_c, 0, 75, 0
2, 1193120, Control_c, 0, 64, 0
2, 1193120, Note_on_c, 0, 79, 83
2, 1193120, Note_on_c, 0, 84, 83
2, 1193280, Note_on_c, 0, 84, 0
2, 1193280, Note_on_c, 0, 79, 0
2, 1193280, Control_c, 0, 64, 127
2, 1193439, Note_on_c, 0, 81, 83
2, 1193439, Note_on_c, 0, 93, 83
2, 1193600, Note_on_c, 0, 93, 0
2, 1193600, Note_on_c, 0, 81, 0
2, 1193600, Note_on_c, 0, 88, 83
2, 1193760, Note_on_c, 0, 88, 0
2, 1193919, Note_on_c, 0, 76, 83
2, 1193919, Note_on_c, 0, 88, 83
2, 1194080, Note_on_c, 0, 88, 0
2, 1194080, Note_on_c, 0, 76, 0
2, 1194080, Control_c, 0, 64, 0
2, 1194080, Note_on_c, 0, 81, 83
2, 1194240, Note_on_c, 0, 81, 0
2, 1194240, Control_c, 0, 64, 127
2, 1194399, Note_on_c, 0, 81, 83
2, 1194399, Note_on_c, 0, 93, 83
2, 1194560, Note_on_c, 0, 93, 0
2, 1194560, Note_on_c, 0, 81, 0
2, 1194560, Note_on_c, 0, 86, 83
2, 1194560, Note_on_c, 0, 89, 83
2, 1194720, Note_on_c, 0, 89, 0
2, 1194720, Note_on_c, 0, 86, 0
2, 1194879, Note_on_c, 0, 77, 83
2, 1194879, Note_on_c, 0, 89, 83
2, 1195040, Note_on_c, 0, 89, 0
2, 1195040, Note_on_c, 0, 77, 0
2, 1195040, Control_c, 0, 64, 0
2, 1195040, Note_on_c, 0, 81, 83
2, 1195040, Note_on_c, 0, 86, 83
2, 1195200, Note_on_c, 0, 86, 0
2, 1195200, Note_on_c, 0, 81, 0
2, 1195359, Control_c, 0, 64, 127
2, 1195359, Note_on_c, 0, 82, 83
2, 1195359, Note_on_c, 0, 94, 83
2, 1195520, Note_on_c, 0, 94, 0
2, 1195520, Note_on_c, 0, 82, 0
2, 1195520, Note_on_c, 0, 89, 83
2, 1195680, Note_on_c, 0, 89, 0
2, 1195839, Note_on_c, 0, 77, 83
2, 1195839, Note_on_c, 0, 89, 83
2, 1196000, Note_on_c, 0, 89, 0
2, 1196000, Note_on_c, 0, 77, 0
2, 1196000, Note_on_c, 0, 82, 83
2, 1196160, Note_on_c, 0, 82, 0
2, 1196160, Control_c, 0, 64, 0
2, 1196160, Note_on_c, 0, 82, 96
2, 1196160, Note_on_c, 0, 87, 96
2, 1196160, Note_on_c, 0, 90, 96
2, 1196160, Note_on_c, 0, 94, 96
2, 1196400, Note_on_c, 0, 94, 0
2, 1196400, Note_on_c, 0, 82, 0
2, 1196400, Note_on_c, 0, 87, 0
2, 1196400, Note_on_c, 0, 90, 0
2, 1196799, Control_c, 0, 64, 127
2, 1196799, Note_on_c, 0, 54, 96
2, 1196960, Note_on_c, 0, 54, 0
2, 1196960, Note_on_c, 0, 58, 96
2, 1197120, Note_on_c, 0, 58, 0
2, 1197120, Note_on_c, 0, 63, 96
2, 1197120, Note_on_c, 0, 66, 96
2, 1197279, Note_on_c, 0, 66, 0
2, 1197279, Note_on_c, 0, 63, 0
2, 1197279, Note_on_c, 0, 51, 96
2, 1197440, Note_on_c, 0, 51, 0
2, 1197440, Note_on_c, 0, 54, 96
2, 1197600, Note_on_c, 0, 54, 0
2, 1197600, Note_on_c, 0, 58, 96
2, 1197759, Note_on_c, 0, 58, 0
2, 1197759, Note_on_c, 0, 63, 96
2, 1197759, Note_on_c, 0, 66, 96
2, 1197920, Note_on_c, 0, 66, 0
2, 1197920, Note_on_c, 0, 63, 0
2, 1197920, Note_on_c, 0, 70, 96
2, 1198080, Note_on_c, 0, 70, 0
2, 1198080, Note_on_c, 0, 75, 96
2, 1198080, Note_on_c, 0, 78, 96
2, 1198239, Note_on_c, 0, 78, 0
2, 1198239, Note_on_c, 0, 75, 0
2, 1198239, Note_on_c, 0, 63, 96
2, 1198400, Note_on_c, 0, 63, 0
2, 1198400, Note_on_c, 0, 66, 96
2, 1198560, Note_on_c, 0, 66, 0
2, 1198560, Note_on_c, 0, 70, 96
2, 1198719, Note_on_c, 0, 70, 0
2, 1198719, Note_on_c, 0, 75, 96
2, 1198719, Note_on_c, 0, 78, 96
2, 1198880, Note_on_c, 0, 78, 0
2, 1198880, Note_on_c, 0, 75, 0
2, 1198880, Note_on_c, 0, 82, 96
2, 1199040, Note_on_c, 0, 82, 0
2, 1199040, Note_on_c, 0, 87, 96
2, 1199040, Note_on_c, 0, 90, 96
2, 1199280, Note_on_c, 0, 90, 0
2, 1199280, Note_on_c, 0, 87, 0
2, 1199280, Control_c, 0, 64, 0
2, 1200960, Note_on_c, 0, 63, 96
2, 1200960, Note_on_c, 0, 66, 96
2, 1201119, Note_on_c, 0, 66, 0
2, 1201119, Note_on_c, 0, 63, 0
2, 1201119, Note_on_c, 0, 51, 96
2, 1201280, Note_on_c, 0, 51, 0
2, 1201280, Note_on_c, 0, 54, 96
2, 1201440, Note_on_c, 0, 54, 0
2, 1201440, Note_on_c, 0, 58, 96
2, 1201599, Note_on_c, 0, 58, 0
2, 1201599, Note_on_c, 0, 63, 96
2, 1201599, Note_on_c, 0, 66, 96
2, 1201760, Note_on_c, 0, 66, 0
2, 1201760, Note_on_c, 0, 63, 0
2, 1201760, Note_on_c, 0, 70, 96
2, 1201920, Note_on_c, 0, 70, 0
2, 1201920, Note_on_c, 0, 75, 96
2, 1201920, Note_on_c, 0, 78, 96
2, 1202079, Note_on_c, 0, 78, 0
2, 1202079, Note_on_c, 0, 75, 0
2, 1202079, Note_on_c, 0, 63, 96
2, 1202240, Note_on_c, 0, 63, 0
2, 1202240, Note_on_c, 0, 66, 96
2, 1202400, Note_on_c, 0, 66, 0
2, 1202400, Note_on_c, 0, 70, 96
2, 1202559, Note_on_c, 0, 70, 0
2, 1202559, Note_on_c, 0, 75, 96
2, 1202559, Note_on_c, 0, 78, 96
2, 1202720, Note_on_c, 0, 78, 0
2, 1202720, Note_on_c, 0, 75, 0
2, 1202720, Note_on_c, 0, 82, 96
2, 1202880, Note_on_c, 0, 82, 0
2, 1202880, Note_on_c, 0, 87, 96
2, 1202880, Note_on_c, 0, 90, 96
2, 1203120, Note_on_c, 0, 90, 0
2, 1203120, Note_on_c, 0, 87, 0
2, 1203120, Control_c, 0, 64, 0
2, 1204800, Note_on_c, 0, 63, 96
2, 1204800, Note_on_c, 0, 66, 96
2, 1204959, Note_on_c, 0, 66, 0
2, 1204959, Note_on_c, 0, 63, 0
2, 1204959, Note_on_c, 0, 51, 96
2, 1205120, Note_on_c, 0, 51, 0
2, 1205120, Note_on_c, 0, 54, 96
2, 1205280, Note_on_c, 0, 54, 0
2, 1205280, Note_on_c, 0, 58, 96
2, 1205439, Note_on_c, 0, 58, 0
2, 1205439, Note_on_c, 0, 63, 96
2, 1205439, Note_on_c, 0, 66, 96
2, 1205600, Note_on_c, 0, 66, 0
2, 1205600, Note_on_c, 0, 63, 0
2, 1205600, Note_on_c, 0, 70, 96
2, 1205760, Note_on_c, 0, 70, 0
2, 1205760, Control_c, 0, 64, 0
2, 1205760, Note_on_c, 0, 75, 96
2, 1205760, Note_on_c, 0, 78, 96
2, 1205919, Note_on_c, 0, 78, 0
2, 1205919, Note_on_c, 0, 75, 0
2, 1205919, Control_c, 0, 64, 127
2, 1205919, Note_on_c, 0, 52, 96
2, 1206080, Note_on_c, 0, 52, 0
2, 1206080, Note_on_c, 0, 58, 96
2, 1206240, Note_on_c, 0, 58, 0
2, 1206240, Note_on_c, 0, 61, 96
2, 1206399, Note_on_c, 0, 61, 0
2, 1206399, Note_on_c, 0, 66, 96
2, 1206399, Note_on_c, 0, 70, 96
2, 1206560, Note_on_c, 0, 70, 0
2, 1206560, Note_on_c, 0, 66, 0
2, 1206560, Note_on_c, 0, 73, 96
2, 1206720, Note_on_c, 0, 73, 0
2, 1206720, Note_on_c, 0, 78, 96
2, 1206720, Note_on_c, 0, 82, 96
2, 1206879, Note_on_c, 0, 82, 0
2, 1206879, Note_on_c, 0, 78, 0
2, 1206879, Note_on_c, 0, 64, 96
2, 1207040, Note_on_c, 0, 64, 0
2, 1207040, Note_on_c, 0, 70, 96
2, 1207200, Note_on_c, 0, 70, 0
2, 1207200, Note_on_c, 0, 73, 96
2, 1207359, Note_on_c, 0, 73, 0
2, 1207359, Note_on_c, 0, 78, 96
2, 1207359, Note_on_c, 0, 82, 96
2, 1207520, Note_on_c, 0, 82, 0
2, 1207520, Note_on_c, 0, 78, 0
2, 1207520, Note_on_c, 0, 85, 96
2, 1207680, Note_on_c, 0, 85, 0
2, 1207680, Note_on_c, 0, 90, 96
2, 1207680, Note_on_c, 0, 94, 96
2, 1207839, Note_on_c, 0, 94, 0
2, 1207839, Note_on_c, 0, 90, 0
2, 1207839, Note_on_c, 0, 85, 96
2, 1208000, Note_on_c, 0, 85, 0
2, 1208000, Note_on_c, 0, 82, 96
2, 1208160, Note_on_c, 0, 82, 0
2, 1208160, Note_on_c, 0, 85, 122
2, 1208160, Note_on_c, 0, 90, 122
2, 1208319, Note_on_c, 0, 90, 0
2, 1208319, Note_on_c, 0, 85, 0
2, 1208319, Note_on_c, 0, 82, 96
2, 1208480, Note_on_c, 0, 82, 0
2, 1208480, Control_c, 0, 64, 0
2, 1208480, Note_on_c, 0, 78, 96
2, 1208640, Note_on_c, 0, 78, 0
2, 1208640, Control_c, 0, 64, 127
2, 1208640, Note_on_c, 0, 77, 122
2, 1208640, Note_on_c, 0, 82, 122
2, 1208640, Note_on_c, 0, 86, 122
2, 1208640, Note_on_c, 0, 89, 122
2, 1208880, Note_on_c, 0, 89, 0
2, 1208880, Note_on_c, 0, 77, 0
2, 1208880, Note_on_c, 0, 82, 0
2, 1208880, Note_on_c, 0, 86, 0
2, 1209279, Note_on_c, 0, 89, 96
2, 1209279, Note_on_c, 0, 94, 96
2, 1209279, Note_on_c, 0, 98, 96
2, 1209440, Note_on_c, 0, 98, 0
2, 1209440, Note_on_c, 0, 94, 0
2, 1209440, Note_on_c, 0, 89, 0
2, 1209440, Note_on_c, 0, 86, 96
2, 1209600, Note_on_c, 0, 86, 0
2, 1209759, Note_on_c, 0, 86, 96
2, 1209759, Note_on_c, 0, 89, 96
2, 1209759, Note_on_c, 0, 94, 96
2, 1209920, Note_on_c, 0, 94, 0
2, 1209920, Note_on_c, 0, 89, 0
2, 1209920, Note_on_c, 0, 86, 0
2, 1209920, Note_on_c, 0, 82, 96
2, 1210080, Note_on_c, 0, 82, 0
2, 1210239, Note_on_c, 0, 82, 96
2, 1210239, Note_on_c, 0, 86, 96
2, 1210239, Note_on_c, 0, 89, 96
2, 1210400, Note_on_c, 0, 89, 0
2, 1210400, Note_on_c, 0, 86, 0
2, 1210400, Note_on_c, 0, 82, 0
2, 1210400, Note_on_c, 0, 77, 96
2, 1210560, Note_on_c, 0, 77, 0
2, 1210719, Note_on_c, 0, 77, 96
2, 1210719, Note_on_c, 0, 82, 96
2, 1210719, Note_on_c, 0, 86, 96
2, 1210880, Note_on_c, 0, 86, 0
2, 1210880, Note_on_c, 0, 82, 0
2, 1210880, Note_on_c, 0, 77, 0
2, 1210880, Note_on_c, 0, 74, 96
2, 1211040, Note_on_c, 0, 74, 0
2, 1211199, Note_on_c, 0, 74, 96
2, 1211199, Note_on_c, 0, 77, 96
2, 1211199, Note_on_c, 0, 82, 96
2, 1211360, Note_on_c, 0, 82, 0
2, 1211360, Note_on_c, 0, 77, 0
2, 1211360, Note_on_c, 0, 74, 0
2, 1211360, Note_on_c, 0, 70, 96
2, 1211520, Note_on_c, 0, 70, 0
2, 1211679, Note_on_c, 0, 70, 96
2, 1211679, Note_on_c, 0, 74, 96
2, 1211679, Note_on_c, 0, 77, 96
2, 1211840, Note_on_c, 0, 77, 0
2, 1211840, Note_on_c, 0, 74, 0
2, 1211840, Note_on_c, 0, 70, 0
2, 1211840, Note_on_c, 0, 65, 96
2, 1212000, Note_on_c, 0, 65, 0
2, 1212159, Note_on_c, 0, 65, 96
2, 1212159, Note_on_c, 0, 70, 96
2, 1212159, Note_on_c, 0, 74, 96
2, 1212320, Note_on_c, 0, 74, 0
2, 1212320, Note_on_c, 0, 70, 0
2, 1212320, Note_on_c, 0, 65, 0
2, 1212320, Note_on_c, 0, 62, 96
2, 1212480, Note_on_c, 0, 62, 0
2, 1212480, Control_c, 0, 64, 127
2, 1212639, Note_on_c, 0, 60, 96
2, 1212639, Note_on_c, 0, 72, 96
2, 1212800, Note_on_c, 0, 72, 0
2, 1212800, Note_on_c, 0, 60, 0
2, 1212800, Note_on_c, 0, 65, 96
2, 1212800, Note_on_c, 0, 70, 96
2, 1212960, Note_on_c, 0, 70, 0
2, 1212960, Note_on_c, 0, 65, 0
2, 1213119, Note_on_c, 0, 65, 96
2, 1213119, Note_on_c, 0, 77, 96
2, 1213280, Note_on_c, 0, 77, 0
2, 1213280, Note_on_c, 0, 65, 0
2, 1213280, Note_on_c, 0, 70, 96
2, 1213280, Note_on_c, 0, 72, 96
2, 1213440, Note_on_c, 0, 72, 0
2, 1213440, Note_on_c, 0, 70, 0
2, 1213599, Note_on_c, 0, 72, 96
2, 1213599, Note_on_c, 0, 84, 96
2, 1213760, Note_on_c, 0, 84, 0
2, 1213760, Note_on_c, 0, 72, 0
2, 1213760, Note_on_c, 0, 77, 96
2, 1213760, Note_on_c, 0, 82, 96
2, 1213920, Note_on_c, 0, 82, 0
2, 1213920, Note_on_c, 0, 77, 0
2, 1214079, Note_on_c, 0, 77, 96
2, 1214079, Note_on_c, 0, 89, 96
2, 1214240, Note_on_c, 0, 89, 0
2, 1214240, Note_on_c, 0, 77, 0
2, 1214240, Control_c, 0, 64, 0
2, 1214240, Note_on_c, 0, 82, 96
2, 1214240, Note_on_c, 0, 84, 96
2, 1214400, Note_on_c, 0, 84, 0
2, 1214400, Note_on_c, 0, 82, 0
2, 1214400, Control_c, 0, 64, 127
2, 1214559, Note_on_c, 0, 60, 96
2, 1214559, Note_on_c, 0, 72, 96
2, 1214720, Note_on_c, 0, 72, 0
2, 1214720, Note_on_c, 0, 60, 0
2, 1214720, Note_on_c, 0, 65, 96
2, 1214720, Note_on_c, 0, 69, 96
2, 1214880, Note_on_c, 0, 69, 0
2, 1214880, Note_on_c, 0, 65, 0
2, 1215039, Note_on_c, 0, 65, 96
2, 1215039, Note_on_c, 0, 77, 96
2, 1215200, Note_on_c, 0, 77, 0
2, 1215200, Note_on_c, 0, 65, 0
2, 1215200, Note_on_c, 0, 69, 96
2, 1215200, Note_on_c, 0, 72, 96
2, 1215360, Note_on_c, 0, 72, 0
2, 1215360, Note_on_c, 0, 69, 0
2, 1215519, Note_on_c, 0, 72, 96
2, 1215519, Note_on_c, 0, 84, 96
2, 1215680, Note_on_c, 0, 84, 0
2, 1215680, Note_on_c, 0, 72, 0
2, 1215680, Note_on_c, 0, 77, 96
2, 1215680, Note_on_c, 0, 81, 96
2, 1215840, Note_on_c, 0, 81, 0
2, 1215840, Note_on_c, 0, 77, 0
2, 1215999, Note_on_c, 0, 77, 96
2, 1215999, Note_on_c, 0, 89, 96
2, 1216160, Note_on_c, 0, 89, 0
2, 1216160, Note_on_c, 0, 77, 0
2, 1216160, Control_c, 0, 64, 0
2, 1216160, Note_on_c, 0, 81, 96
2, 1216160, Note_on_c, 0, 84, 96
2, 1216320, Note_on_c, 0, 84, 0
2, 1216320, Note_on_c, 0, 81, 0
2, 1216320, Note_on_c, 0, 74, 96
2, 1216320, Note_on_c, 0, 77, 96
2, 1216320, Note_on_c, 0, 82, 96
2, 1216560, Note_on_c, 0, 82, 0
2, 1216560, Note_on_c, 0, 77, 0
2, 1216560, Note_on_c, 0, 74, 0
2, 1216800, Control_c, 0, 64, 127
2, 1216800, Note_on_c, 0, 60, 122
2, 1216800, Note_on_c, 0, 72, 122
2, 1216959, Note_on_c, 0, 72, 0
2, 1216959, Note_on_c, 0, 60, 0
2, 1216959, Note_on_c, 0, 63, 96
2, 1217120, Note_on_c, 0, 63, 0
2, 1217120, Note_on_c, 0, 70, 96
2, 1217280, Note_on_c, 0, 70, 0
2, 1217280, Note_on_c, 0, 72, 96
2, 1217439, Note_on_c, 0, 72, 0
2, 1217439, Note_on_c, 0, 75, 96
2, 1217600, Note_on_c, 0, 75, 0
2, 1217600, Note_on_c, 0, 82, 96
2, 1217760, Note_on_c, 0, 82, 0
2, 1217760, Note_on_c, 0, 84, 96
2, 1217760, Note_on_c, 0, 96, 96
2, 1217919, Note_on_c, 0, 96, 0
2, 1217919, Note_on_c, 0, 84, 0
2, 1217919, Note_on_c, 0, 87, 96
2, 1218080, Note_on_c, 0, 87, 0
2, 1218080, Note_on_c, 0, 94, 96
2, 1218240, Note_on_c, 0, 94, 0
2, 1218240, Control_c, 0, 64, 0
2, 1218240, Note_on_c, 0, 86, 96
2, 1218240, Note_on_c, 0, 89, 96
2, 1218240, Note_on_c, 0, 98, 96
2, 1218720, Note_on_c, 0, 98, 0
2, 1218720, Note_on_c, 0, 89, 0
2, 1218720, Note_on_c, 0, 86, 0
2, 1218720, Control_c, 0, 64, 127
2, 1218720, Note_on_c, 0, 90, 122
2, 1218720, Note_on_c, 0, 97, 122
2, 1218720, Note_on_c, 0, 102, 122
2, 1218879, Note_on_c, 0, 102, 0
2, 1218879, Note_on_c, 0, 97, 0
2, 1218879, Note_on_c, 0, 90, 0
2, 1218879, Note_on_c, 0, 94, 96
2, 1219040, Note_on_c, 0, 94, 0
2, 1219040, Note_on_c, 0, 90, 96
2, 1219200, Note_on_c, 0, 90, 0
2, 1219200, Note_on_c, 0, 85, 96
2, 1219200, Note_on_c, 0, 90, 96
2, 1219359, Note_on_c, 0, 90, 0
2, 1219359, Note_on_c, 0, 85, 0
2, 1219359, Note_on_c, 0, 82, 96
2, 1219520, Note_on_c, 0, 82, 0
2, 1219520, Note_on_c, 0, 78, 96
2, 1219680, Note_on_c, 0, 78, 0
2, 1219680, Note_on_c, 0, 73, 96
2, 1219680, Note_on_c, 0, 78, 96
2, 1219839, Note_on_c, 0, 78, 0
2, 1219839, Note_on_c, 0, 73, 0
2, 1219839, Note_on_c, 0, 70, 96
2, 1220000, Note_on_c, 0, 70, 0
2, 1220000, Note_on_c, 0, 66, 96
2, 1220160, Note_on_c, 0, 66, 0
2, 1220160, Control_c, 0, 64, 0
2, 1220160, Note_on_c, 0, 65, 96
2, 1220160, Note_on_c, 0, 70, 96
2, 1220160, Note_on_c, 0, 74, 96
2, 1220160, Note_on_c, 0, 77, 96
2, 1220400, Note_on_c, 0, 77, 0
2, 1220400, Note_on_c, 0, 65, 0
2, 1220400, Note_on_c, 0, 70, 0
2, 1220400, Note_on_c, 0, 74, 0
2, 1220640, Control_c, 0, 64, 127
2, 1220640, Note_on_c, 0, 60, 122
2, 1220640, Note_on_c, 0, 72, 122
2, 1220799, Note_on_c, 0, 72, 0
2, 1220799, Note_on_c, 0, 60, 0
2, 1220799, Note_on_c, 0, 63, 96
2, 1220960, Note_on_c, 0, 63, 0
2, 1220960, Note_on_c, 0, 70, 96
2, 1221120, Note_on_c, 0, 70, 0
2, 1221120, Note_on_c, 0, 72, 96
2, 1221279, Note_on_c, 0, 72, 0
2, 1221279, Note_on_c, 0, 75, 96
2, 1221440, Note_on_c, 0, 75, 0
2, 1221440, Note_on_c, 0, 82, 96
2, 1221600, Note_on_c, 0, 82, 0
2, 1221600, Note_on_c, 0, 84, 96
2, 1221600, Note_on_c, 0, 96, 96
2, 1221759, Note_on_c, 0, 96, 0
2, 1221759, Note_on_c, 0, 84, 0
2, 1221759, Note_on_c, 0, 87, 96
2, 1221920, Note_on_c, 0, 87, 0
2, 1221920, Note_on_c, 0, 94, 96
2, 1222080, Note_on_c, 0, 94, 0
2, 1222080, Control_c, 0, 64, 0
2, 1222080, Note_on_c, 0, 86, 96
2, 1222080, Note_on_c, 0, 89, 96
2, 1222080, Note_on_c, 0, 98, 96
2, 1222560, Note_on_c, 0, 98, 0
2, 1222560, Note_on_c, 0, 89, 0
2, 1222560, Note_on_c, 0, 86, 0
2, 1222560, Control_c, 0, 64, 127
2, 1222560, Note_on_c, 0, 90, 122
2, 1222560, Note_on_c, 0, 97, 122
2, 1222560, Note_on_c, 0, 102, 122
2, 1222719, Note_on_c, 0, 102, 0
2, 1222719, Note_on_c, 0, 97, 0
2, 1222719, Note_on_c, 0, 90, 0
2, 1222719, Note_on_c, 0, 94, 96
2, 1222880, Note_on_c, 0, 94, 0
2, 1222880, Note_on_c, 0, 90, 96
2, 1223040, Note_on_c, 0, 90, 0
2, 1223040, Note_on_c, 0, 85, 96
2, 1223040, Note_on_c, 0, 90, 96
2, 1223199, Note_on_c, 0, 90, 0
2, 1223199, Note_on_c, 0, 85, 0
2, 1223199, Note_on_c, 0, 82, 96
2, 1223360, Note_on_c, 0, 82, 0
2, 1223360, Note_on_c, 0, 78, 96
2, 1223520, Note_on_c, 0, 78, 0
2, 1223520, Note_on_c, 0, 73, 96
2, 1223520, Note_on_c, 0, 78, 96
2, 1223679, Note_on_c, 0, 78, 0
2, 1223679, Note_on_c, 0, 73, 0
2, 1223679, Note_on_c, 0, 70, 96
2, 1223840, Note_on_c, 0, 70, 0
2, 1223840, Note_on_c, 0, 66, 96
2, 1224000, Note_on_c, 0, 66, 0
2, 1224000, Control_c, 0, 64, 0
2, 1224000, Note_on_c, 0, 65, 96
2, 1224000, Note_on_c, 0, 70, 96
2, 1224000, Note_on_c, 0, 74, 96
2, 1224000, Note_on_c, 0, 77, 96
2, 1224480, Note_on_c, 0, 77, 0
2, 1224480, Note_on_c, 0, 65, 0
2, 1224480, Note_on_c, 0, 70, 0
2, 1224480, Note_on_c, 0, 74, 0
2, 1224480, Control_c, 0, 64, 127
2, 1224480, Note_on_c, 0, 90, 122
2, 1224480, Note_on_c, 0, 97, 122
2, 1224480, Note_on_c, 0, 102, 122
2, 1224639, Note_on_c, 0, 102, 0
2, 1224639, Note_on_c, 0, 97, 0
2, 1224639, Note_on_c, 0, 90, 0
2, 1224639, Note_on_c, 0, 94, 96
2, 1224800, Note_on_c, 0, 94, 0
2, 1224800, Note_on_c, 0, 90, 96
2, 1224960, Note_on_c, 0, 90, 0
2, 1224960, Note_on_c, 0, 85, 96
2, 1224960, Note_on_c, 0, 90, 96
2, 1225119, Note_on_c, 0, 90, 0
2, 1225119, Note_on_c, 0, 85, 0
2, 1225119, Note_on_c, 0, 82, 96
2, 1225280, Note_on_c, 0, 82, 0
2, 1225280, Note_on_c, 0, 78, 96
2, 1225440, Note_on_c, 0, 78, 0
2, 1225440, Note_on_c, 0, 73, 96
2, 1225440, Note_on_c, 0, 78, 96
2, 1225599, Note_on_c, 0, 78, 0
2, 1225599, Note_on_c, 0, 73, 0
2, 1225599, Note_on_c, 0, 70, 96
2, 1225760, Note_on_c, 0, 70, 0
2, 1225760, Note_on_c, 0, 66, 96
2, 1225920, Note_on_c, 0, 66, 0
2, 1225920, Control_c, 0, 64, 0
2, 1225920, Note_on_c, 0, 65, 96
2, 1225920, Note_on_c, 0, 70, 96
2, 1225920, Note_on_c, 0, 74, 96
2, 1225920, Note_on_c, 0, 77, 96
2, 1226400, Note_on_c, 0, 77, 0
2, 1226400, Note_on_c, 0, 65, 0
2, 1226400, Note_on_c, 0, 70, 0
2, 1226400, Note_on_c, 0, 74, 0
2, 1226400, Control_c, 0, 64, 127
2, 1226400, Note_on_c, 0, 90, 122
2, 1226400, Note_on_c, 0, 97, 122
2, 1226400, Note_on_c, 0, 102, 122
2, 1226559, Note_on_c, 0, 102, 0
2, 1226559, Note_on_c, 0, 97, 0
2, 1226559, Note_on_c, 0, 90, 0
2, 1226559, Note_on_c, 0, 94, 96
2, 1226720, Note_on_c, 0, 94, 0
2, 1226720, Note_on_c, 0, 90, 96
2, 1226880, Note_on_c, 0, 90, 0
2, 1226880, Note_on_c, 0, 85, 96
2, 1226880, Note_on_c, 0, 90, 96
2, 1227039, Note_on_c, 0, 90, 0
2, 1227039, Note_on_c, 0, 85, 0
2, 1227039, Note_on_c, 0, 82, 96
2, 1227200, Note_on_c, 0, 82, 0
2, 1227200, Note_on_c, 0, 78, 96
2, 1227360, Note_on_c, 0, 78, 0
2, 1227360, Note_on_c, 0, 73, 96
2, 1227360, Note_on_c, 0, 78, 96
2, 1227519, Note_on_c, 0, 78, 0
2, 1227519, Note_on_c, 0, 73, 0
2, 1227519, Note_on_c, 0, 70, 96
2, 1227680, Note_on_c, 0, 70, 0
2, 1227680, Note_on_c, 0, 66, 96
2, 1227840, Note_on_c, 0, 66, 0
2, 1227840, Control_c, 0, 64, 0
2, 1227840, Note_on_c, 0, 65, 96
2, 1227840, Note_on_c, 0, 70, 96
2, 1227840, Note_on_c, 0, 74, 96
2, 1227840, Note_on_c, 0, 77, 96
2, 1228080, Note_on_c, 0, 77, 0
2, 1228080, Note_on_c, 0, 65, 0
2, 1228080, Note_on_c, 0, 70, 0
2, 1228080, Note_on_c, 0, 74, 0
2, 1231680, Control_c, 0, 64, 0
2, 1231920, Note_on_c, 0, 57, 96
2, 1232160, Note_on_c, 0, 57, 0
2, 1232160, Note_on_c, 0, 58, 96
2, 1232400, Note_on_c, 0, 58, 0
2, 1232400, Note_on_c, 0, 61, 96
2, 1232640, Note_on_c, 0, 61, 0
2, 1232640, Note_on_c, 0, 62, 96
2, 1232880, Note_on_c, 0, 62, 0
2, 1232880, Note_on_c, 0, 61, 96
2, 1233120, Note_on_c, 0, 61, 0
2, 1233120, Note_on_c, 0, 62, 96
2, 1233360, Note_on_c, 0, 62, 0
2, 1233360, Note_on_c, 0, 51, 96
2, 1233360, Note_on_c, 0, 63, 96
2, 1233600, Note_on_c, 0, 63, 0
2, 1233600, Note_on_c, 0, 51, 0
2, 1233600, Note_on_c, 0, 53, 96
2, 1233600, Note_on_c, 0, 65, 96
2, 1233840, Note_on_c, 0, 65, 0
2, 1233840, Note_on_c, 0, 53, 0
2, 1233840, Note_on_c, 0, 52, 96
2, 1233840, Note_on_c, 0, 64, 96
2, 1234080, Note_on_c, 0, 64, 0
2, 1234080, Note_on_c, 0, 52, 0
2, 1234080, Note_on_c, 0, 53, 96
2, 1234080, Note_on_c, 0, 65, 96
2, 1234320, Note_on_c, 0, 65, 0
2, 1234320, Note_on_c, 0, 53, 0
2, 1234320, Note_on_c, 0, 57, 96
2, 1234320, Note_on_c, 0, 69, 96
2, 1234560, Note_on_c, 0, 69, 0
2, 1234560, Note_on_c, 0, 57, 0
2, 1234560, Control_c, 0, 64, 127
2, 1234560, Note_on_c, 0, 58, 96
2, 1234560, Note_on_c, 0, 70, 96
2, 1234800, Note_on_c, 0, 70, 0
2, 1234800, Note_on_c, 0, 58, 0
2, 1234800, Note_on_c, 0, 57, 96
2, 1234800, Note_on_c, 0, 69, 96
2, 1235040, Note_on_c, 0, 69, 0
2, 1235040, Note_on_c, 0, 57, 0
2, 1235040, Note_on_c, 0, 58, 96
2, 1235040, Note_on_c, 0, 70, 96
2, 1235280, Note_on_c, 0, 70, 0
2, 1235280, Note_on_c, 0, 58, 0
2, 1235280, Note_on_c, 0, 61, 96
2, 1235280, Note_on_c, 0, 73, 96
2, 1235520, Note_on_c, 0, 73, 0
2, 1235520, Note_on_c, 0, 61, 0
2, 1235520, Note_on_c, 0, 62, 96
2, 1235520, Note_on_c, 0, 74, 96
2, 1235760, Note_on_c, 0, 74, 0
2, 1235760, Note_on_c, 0, 62, 0
2, 1235760, Note_on_c, 0, 61, 96
2, 1235760, Note_on_c, 0, 73, 96
2, 1236000, Note_on_c, 0, 73, 0
2, 1236000, Note_on_c, 0, 61, 0
2, 1236000, Note_on_c, 0, 62, 96
2, 1236000, Note_on_c, 0, 74, 96
2, 1236240, Note_on_c, 0, 74, 0
2, 1236240, Note_on_c, 0, 62, 0
2, 1236240, Note_on_c, 0, 63, 96
2, 1236240, Note_on_c, 0, 75, 96
2, 1236480, Note_on_c, 0, 75, 0
2, 1236480, Note_on_c, 0, 63, 0
2, 1236480, Note_on_c, 0, 65, 96
2, 1236480, Note_on_c, 0, 77, 96
2, 1236720, Note_on_c, 0, 77, 0
2, 1236720, Note_on_c, 0, 65, 0
2, 1236720, Note_on_c, 0, 64, 96
2, 1236720, Note_on_c, 0, 76, 96
2, 1236960, Note_on_c, 0, 76, 0
2, 1236960, Note_on_c, 0, 64, 0
2, 1236960, Note_on_c, 0, 65, 96
2, 1236960, Note_on_c, 0, 77, 96
2, 1237200, Note_on_c, 0, 77, 0
2, 1237200, Note_on_c, 0, 65, 0
2, 1237200, Note_on_c, 0, 69, 96
2, 1237200, Note_on_c, 0, 81, 96
2, 1237440, Note_on_c, 0, 81, 0
2, 1237440, Note_on_c, 0, 69, 0
2, 1237440, Note_on_c, 0, 70, 96
2, 1237440, Note_on_c, 0, 82, 96
2, 1237680, Note_on_c, 0, 82, 0
2, 1237680, Note_on_c, 0, 70, 0
2, 1237680, Note_on_c, 0, 69, 96
2, 1237680, Note_on_c, 0, 81, 96
2, 1237920, Note_on_c, 0, 81, 0
2, 1237920, Note_on_c, 0, 69, 0
2, 1237920, Note_on_c, 0, 70, 96
2, 1237920, Note_on_c, 0, 82, 96
2, 1238160, Note_on_c, 0, 82, 0
2, 1238160, Note_on_c, 0, 70, 0
2, 1238160, Note_on_c, 0, 73, 96
2, 1238160, Note_on_c, 0, 85, 96
2, 1238400, Note_on_c, 0, 85, 0
2, 1238400, Note_on_c, 0, 73, 0
2, 1238400, Note_on_c, 0, 74, 96
2, 1238400, Note_on_c, 0, 86, 96
2, 1238640, Note_on_c, 0, 86, 0
2, 1238640, Note_on_c, 0, 74, 0
2, 1238640, Note_on_c, 0, 75, 96
2, 1238640, Note_on_c, 0, 87, 96
2, 1238880, Note_on_c, 0, 87, 0
2, 1238880, Note_on_c, 0, 75, 0
2, 1238880, Note_on_c, 0, 76, 96
2, 1238880, Note_on_c, 0, 88, 96
2, 1239120, Note_on_c, 0, 88, 0
2, 1239120, Note_on_c, 0, 76, 0
2, 1239120, Note_on_c, 0, 77, 96
2, 1239120, Note_on_c, 0, 89, 96
2, 1239360, Note_on_c, 0, 89, 0
2, 1239360, Note_on_c, 0, 77, 0
2, 1239360, Note_on_c, 0, 82, 96
2, 1239360, Note_on_c, 0, 94, 96
2, 1239840, Note_on_c, 0, 94, 0
2, 1239840, Note_on_c, 0, 82, 0
2, 1239840, Control_c, 0, 64, 0
2, 1240320, Control_c, 0, 64, 127
2, 1240320, Note_on_c, 0, 70, 96
2, 1240320, Note_on_c, 0, 74, 96
2, 1240320, Note_on_c, 0, 77, 96
2, 1240320, Note_on_c, 0, 82, 96
2, 1240800, Note_on_c, 0, 82, 0
2, 1240800, Note_on_c, 0, 70, 0
2, 1240800, Note_on_c, 0, 74, 0
2, 1240800, Note_on_c, 0, 77, 0
2, 1241280, Note_on_c, 0, 70, 96
2, 1241280, Note_on_c, 0, 74, 96
2, 1241280, Note_on_c, 0, 77, 96
2, 1241280, Note_on_c, 0, 82, 96
2, 1241760, Note_on_c, 0, 82, 0
2, 1241760, Note_on_c, 0, 70, 0
2, 1241760, Note_on_c, 0, 74, 0
2, 1241760, Note_on_c, 0, 77, 0
2, 1242240, Note_on_c, 0, 70, 96
2, 1242240, Note_on_c, 0, 74, 96
2, 1242240, Note_on_c, 0, 77, 96
2, 1242240, Note_on_c, 0, 82, 96
2, 1242720, Note_on_c, 0, 82, 0
2, 1242720, Note_on_c, 0, 70, 0
2, 1242720, Note_on_c, 0, 74, 0
2, 1242720, Note_on_c, 0, 77, 0
2, 1242720, Control_c, 0, 64, 0
2, 1243200, Note_on_c, 0, 70, 96
2, 1243200, Note_on_c, 0, 74, 96
2, 1243200, Note_on_c, 0, 77, 96
2, 1243200, Note_on_c, 0, 82, 96
2, 1243680, Note_on_c, 0, 82, 0
2, 1243680, Note_on_c, 0, 70, 0
2, 1243680, Note_on_c, 0, 74, 0
2, 1243680, Note_on_c, 0, 77, 0
2, 1243680, Note_on_c, 0, 70, 122
2, 1243680, Note_on_c, 0, 75, 122
2, 1243680, Note_on_c, 0, 79, 122
2, 1243680, Note_on_c, 0, 82, 122
2, 1244160, Note_on_c, 0, 82, 0
2, 1244160, Note_on_c, 0, 70, 0
2, 1244160, Note_on_c, 0, 75, 0
2, 1244160, Note_on_c, 0, 79, 0
2, 1244160, Control_c, 0, 64, 127
2, 1244160, Note_on_c, 0, 70, 122
2, 1244160, Note_on_c, 0, 74, 122
2, 1244160, Note_on_c, 0, 77, 122
2, 1244160, Note_on_c, 0, 82, 122
2, 1244640, Note_on_c, 0, 82, 0
2, 1244640, Note_on_c, 0, 70, 0
2, 1244640, Note_on_c, 0, 74, 0
2, 1244640, Note_on_c, 0, 77, 0
2, 1245120, Note_on_c, 0, 58, 122
2, 1247040, Control_c, 0, 64, 0
2, 1249920, Note_on_c, 0, 58, 0
2, 1249920, End_track
3, 0, Start_track
3, 0, Title_t, "Grand Piano"
3, 0, Program_c, 0, 0
3, 0, Control_c, 0, 7, 115
3, 0, Control_c, 0, 10, 79
3, 1830, Note_on_c, 0, 70, 78
3, 1860, Note_on_c, 0, 73, 78
3, 1890, Note_on_c, 0, 77, 78
3, 1920, Note_on_c, 0, 82, 78
3, 2400, Note_on_c, 0, 82, 0
3, 2400, Note_on_c, 0, 70, 0
3, 2400, Note_on_c, 0, 73, 0
3, 2400, Note_on_c, 0, 77, 0
3, 3270, Note_on_c, 0, 70, 78
3, 3300, Note_on_c, 0, 73, 78
3, 3330, Note_on_c, 0, 77, 78
3, 3360, Note_on_c, 0, 82, 78
3, 3840, Note_on_c, 0, 82, 0
3, 3840, Note_on_c, 0, 70, 0
3, 3840, Note_on_c, 0, 73, 0
3, 3840, Note_on_c, 0, 77, 0
3, 7200, Control_c, 0, 64, 127
3, 7200, Note_on_c, 0, 25, 78
3, 7200, Note_on_c, 0, 32, 78
3, 7200, Note_on_c, 0, 37, 78
3, 7680, Note_on_c, 0, 37, 0
3, 7680, Note_on_c, 0, 32, 0
3, 7680, Note_on_c, 0, 25, 0
3, 7680, Note_on_c, 0, 49, 78
3, 7680, Note_on_c, 0, 56, 78
3, 7680, Note_on_c, 0, 61, 78
3, 8160, Note_on_c, 0, 61, 0
3, 8160, Note_on_c, 0, 56, 0
3, 8160, Note_on_c, 0, 49, 0
3, 8160, Note_on_c, 0, 73, 78
3, 8160, Note_on_c, 0, 80, 78
3, 8160, Note_on_c, 0, 85, 78
3, 8640, Note_on_c, 0, 85, 0
3, 8640, Note_on_c, 0, 80, 0
3, 8640, Note_on_c, 0, 73, 0
3, 8640, Note_on_c, 0, 25, 78
3, 8640, Note_on_c, 0, 32, 78
3, 8640, Note_on_c, 0, 37, 78
3, 9120, Note_on_c, 0, 37, 0
3, 9120, Note_on_c, 0, 32, 0
3, 9120, Note_on_c, 0, 25, 0
3, 9120, Note_on_c, 0, 49, 78
3, 9120, Note_on_c, 0, 56, 78
3, 9120, Note_on_c, 0, 61, 78
3, 9600, Note_on_c, 0, 61, 0
3, 9600, Note_on_c, 0, 56, 0
3, 9600, Note_on_c, 0, 49, 0
3, 9600, Note_on_c, 0, 73, 78
3, 9600, Note_on_c, 0, 80, 78
3, 9600, Note_on_c, 0, 85, 78
3, 10080, Note_on_c, 0, 85, 0
3, 10080, Note_on_c, 0, 80, 0
3, 10080, Note_on_c, 0, 73, 0
3, 10080, Note_on_c, 0, 25, 78
3, 10080, Note_on_c, 0, 32, 78
3, 10080, Note_on_c, 0, 37, 78
3, 10560, Note_on_c, 0, 37, 0
3, 10560, Note_on_c, 0, 32, 0
3, 10560, Note_on_c, 0, 25, 0
3, 10560, Note_on_c, 0, 49, 78
3, 10560, Note_on_c, 0, 56, 78
3, 10560, Note_on_c, 0, 61, 78
3, 11040, Note_on_c, 0, 61, 0
3, 11040, Note_on_c, 0, 56, 0
3, 11040, Note_on_c, 0, 49, 0
3, 11040, Note_on_c, 0, 73, 78
3, 11040, Note_on_c, 0, 80, 78
3, 11040, Note_on_c, 0, 85, 78
3, 11520, Note_on_c, 0, 85, 0
3, 11520, Note_on_c, 0, 80, 0
3, 11520, Note_on_c, 0, 73, 0
3, 11520, Note_on_c, 0, 25, 78
3, 11520, Note_on_c, 0, 32, 78
3, 11520, Note_on_c, 0, 37, 78
3, 12000, Note_on_c, 0, 37, 0
3, 12000, Note_on_c, 0, 32, 0
3, 12000, Note_on_c, 0, 25, 0
3, 12000, Note_on_c, 0, 49, 78
3, 12000, Note_on_c, 0, 56, 78
3, 12000, Note_on_c, 0, 61, 78
3, 12480, Note_on_c, 0, 61, 0
3, 12480, Note_on_c, 0, 56, 0
3, 12480, Note_on_c, 0, 49, 0
3, 12480, Control_c, 0, 64, 0
3, 12480, Note_on_c, 0, 73, 78
3, 12480, Note_on_c, 0, 80, 78
3, 12480, Note_on_c, 0, 85, 78
3, 12960, Note_on_c, 0, 85, 0
3, 12960, Note_on_c, 0, 80, 0
3, 12960, Note_on_c, 0, 73, 0
3, 12960, Control_c, 0, 64, 127
3, 12960, Note_on_c, 0, 25, 78
3, 12960, Note_on_c, 0, 37, 78
3, 13440, Note_on_c, 0, 37, 0
3, 13440, Note_on_c, 0, 25, 0
3, 13440, Note_on_c, 0, 46, 78
3, 13440, Note_on_c, 0, 51, 78
3, 13440, Note_on_c, 0, 54, 78
3, 13440, Note_on_c, 0, 58, 78
3, 13920, Note_on_c, 0, 58, 0
3, 13920, Note_on_c, 0, 46, 0
3, 13920, Note_on_c, 0, 51, 0
3, 13920, Note_on_c, 0, 54, 0
3, 13920, Note_on_c, 0, 70, 78
3, 13920, Note_on_c, 0, 75, 78
3, 13920, Note_on_c, 0, 78, 78
3, 13920, Note_on_c, 0, 82, 78
3, 14400, Note_on_c, 0, 82, 0
3, 14400, Note_on_c, 0, 70, 0
3, 14400, Note_on_c, 0, 75, 0
3, 14400, Note_on_c, 0, 78, 0
3, 14400, Note_on_c, 0, 25, 78
3, 14400, Note_on_c, 0, 37, 78
3, 14880, Note_on_c, 0, 37, 0
3, 14880, Note_on_c, 0, 25, 0
3, 14880, Note_on_c, 0, 46, 78
3, 14880, Note_on_c, 0, 51, 78
3, 14880, Note_on_c, 0, 54, 78
3, 14880, Note_on_c, 0, 58, 78
3, 15360, Note_on_c, 0, 58, 0
3, 15360, Note_on_c, 0, 46, 0
3, 15360, Note_on_c, 0, 51, 0
3, 15360, Note_on_c, 0, 54, 0
3, 15360, Control_c, 0, 64, 0
3, 15360, Note_on_c, 0, 70, 78
3, 15360, Note_on_c, 0, 75, 78
3, 15360, Note_on_c, 0, 78, 78
3, 15360, Note_on_c, 0, 82, 78
3, 15840, Note_on_c, 0, 82, 0
3, 15840, Note_on_c, 0, 70, 0
3, 15840, Note_on_c, 0, 75, 0
3, 15840, Note_on_c, 0, 78, 0
3, 15840, Control_c, 0, 64, 127
3, 15840, Note_on_c, 0, 25, 78
3, 15840, Note_on_c, 0, 32, 78
3, 15840, Note_on_c, 0, 37, 78
3, 16320, Note_on_c, 0, 37, 0
3, 16320, Note_on_c, 0, 32, 0
3, 16320, Note_on_c, 0, 25, 0
3, 16320, Note_on_c, 0, 51, 78
3, 16320, Note_on_c, 0, 56, 78
3, 16320, Note_on_c, 0, 60, 78
3, 16320, Note_on_c, 0, 63, 78
3, 16800, Note_on_c, 0, 63, 0
3, 16800, Note_on_c, 0, 51, 0
3, 16800, Note_on_c, 0, 56, 0
3, 16800, Note_on_c, 0, 60, 0
3, 16800, Note_on_c, 0, 75, 78
3, 16800, Note_on_c, 0, 80, 78
3, 16800, Note_on_c, 0, 84, 78
3, 16800, Note_on_c, 0, 87, 78
3, 17280, Note_on_c, 0, 87, 0
3, 17280, Note_on_c, 0, 75, 0
3, 17280, Note_on_c, 0, 80, 0
3, 17280, Note_on_c, 0, 84, 0
3, 17280, Note_on_c, 0, 25, 78
3, 17280, Note_on_c, 0, 32, 78
3, 17280, Note_on_c, 0, 37, 78
3, 17760, Note_on_c, 0, 37, 0
3, 17760, Note_on_c, 0, 32, 0
3, 17760, Note_on_c, 0, 25, 0
3, 17760, Note_on_c, 0, 51, 78
3, 17760, Note_on_c, 0, 56, 78
3, 17760, Note_on_c, 0, 60, 78
3, 17760, Note_on_c, 0, 63, 78
3, 18240, Note_on_c, 0, 63, 0
3, 18240, Note_on_c, 0, 51, 0
3, 18240, Note_on_c, 0, 56, 0
3, 18240, Note_on_c, 0, 60, 0
3, 18240, Control_c, 0, 64, 0
3, 18240, Note_on_c, 0, 75, 78
3, 18240, Note_on_c, 0, 80, 78
3, 18240, Note_on_c, 0, 84, 78
3, 18240, Note_on_c, 0, 87, 78
3, 18720, Note_on_c, 0, 87, 0
3, 18720, Note_on_c, 0, 75, 0
3, 18720, Note_on_c, 0, 80, 0
3, 18720, Note_on_c, 0, 84, 0
3, 18720, Control_c, 0, 64, 127
3, 18720, Note_on_c, 0, 25, 78
3, 18720, Note_on_c, 0, 32, 78
3, 18720, Note_on_c, 0, 37, 78
3, 19200, Note_on_c, 0, 37, 0
3, 19200, Note_on_c, 0, 32, 0
3, 19200, Note_on_c, 0, 25, 0
3, 19200, Note_on_c, 0, 49, 78
3, 19200, Note_on_c, 0, 56, 78
3, 19200, Note_on_c, 0, 61, 78
3, 19680, Note_on_c, 0, 61, 0
3, 19680, Note_on_c, 0, 56, 0
3, 19680, Note_on_c, 0, 49, 0
3, 19680, Control_c, 0, 64, 0
3, 19680, Note_on_c, 0, 73, 78
3, 19680, Note_on_c, 0, 80, 78
3, 19680, Note_on_c, 0, 85, 78
3, 20160, Note_on_c, 0, 85, 0
3, 20160, Note_on_c, 0, 80, 0
3, 20160, Note_on_c, 0, 73, 0
3, 20160, Control_c, 0, 64, 127
3, 20160, Note_on_c, 0, 32, 78
3, 20160, Note_on_c, 0, 44, 78
3, 20640, Note_on_c, 0, 44, 0
3, 20640, Note_on_c, 0, 32, 0
3, 20640, Note_on_c, 0, 63, 78
3, 20640, Note_on_c, 0, 68, 78
3, 20640, Note_on_c, 0, 72, 78
3, 20640, Note_on_c, 0, 75, 78
3, 21120, Note_on_c, 0, 75, 0
3, 21120, Note_on_c, 0, 63, 0
3, 21120, Note_on_c, 0, 68, 0
3, 21120, Note_on_c, 0, 72, 0
3, 21120, Control_c, 0, 64, 0
3, 21120, Note_on_c, 0, 51, 78
3, 21120, Note_on_c, 0, 56, 78
3, 21120, Note_on_c, 0, 60, 78
3, 21120, Note_on_c, 0, 63, 78
3, 21600, Note_on_c, 0, 63, 0
3, 21600, Note_on_c, 0, 51, 0
3, 21600, Note_on_c, 0, 56, 0
3, 21600, Note_on_c, 0, 60, 0
3, 21600, Control_c, 0, 64, 127
3, 21600, Note_on_c, 0, 25, 78
3, 21600, Note_on_c, 0, 32, 78
3, 21600, Note_on_c, 0, 37, 78
3, 22080, Note_on_c, 0, 37, 0
3, 22080, Note_on_c, 0, 32, 0
3, 22080, Note_on_c, 0, 25, 0
3, 22080, Note_on_c, 0, 49, 78
3, 22080, Note_on_c, 0, 56, 78
3, 22080, Note_on_c, 0, 61, 78
3, 22560, Note_on_c, 0, 61, 0
3, 22560, Note_on_c, 0, 56, 0
3, 22560, Note_on_c, 0, 49, 0
3, 22560, Control_c, 0, 64, 0
3, 22560, Note_on_c, 0, 73, 78
3, 22560, Note_on_c, 0, 80, 78
3, 22560, Note_on_c, 0, 85, 78
3, 23040, Note_on_c, 0, 85, 0
3, 23040, Note_on_c, 0, 80, 0
3, 23040, Note_on_c, 0, 73, 0
3, 23040, Control_c, 0, 64, 127
3, 23040, Note_on_c, 0, 29, 78
3, 23040, Note_on_c, 0, 41, 78
3, 23520, Note_on_c, 0, 41, 0
3, 23520, Note_on_c, 0, 29, 0
3, 23520, Note_on_c, 0, 49, 78
3, 23520, Note_on_c, 0, 56, 78
3, 23520, Note_on_c, 0, 61, 78
3, 24000, Note_on_c, 0, 61, 0
3, 24000, Note_on_c, 0, 56, 0
3, 24000, Note_on_c, 0, 49, 0
3, 24000, Control_c, 0, 64, 0
3, 24000, Note_on_c, 0, 73, 78
3, 24000, Note_on_c, 0, 80, 78
3, 24000, Note_on_c, 0, 85, 78
3, 24480, Note_on_c, 0, 85, 0
3, 24480, Note_on_c, 0, 80, 0
3, 24480, Note_on_c, 0, 73, 0
3, 24480, Control_c, 0, 64, 127
3, 24480, Note_on_c, 0, 30, 78
3, 24480, Note_on_c, 0, 42, 78
3, 24960, Note_on_c, 0, 42, 0
3, 24960, Note_on_c, 0, 30, 0
3, 24960, Note_on_c, 0, 46, 78
3, 24960, Note_on_c, 0, 51, 78
3, 24960, Note_on_c, 0, 54, 78
3, 24960, Note_on_c, 0, 58, 78
3, 25440, Note_on_c, 0, 58, 0
3, 25440, Note_on_c, 0, 46, 0
3, 25440, Note_on_c, 0, 51, 0
3, 25440, Note_on_c, 0, 54, 0
3, 25440, Control_c, 0, 64, 0
3, 25440, Note_on_c, 0, 70, 78
3, 25440, Note_on_c, 0, 75, 78
3, 25440, Note_on_c, 0, 78, 78
3, 25440, Note_on_c, 0, 82, 78
3, 25920, Note_on_c, 0, 82, 0
3, 25920, Note_on_c, 0, 70, 0
3, 25920, Note_on_c, 0, 75, 0
3, 25920, Note_on_c, 0, 78, 0
3, 25920, Control_c, 0, 64, 127
3, 25920, Note_on_c, 0, 27, 78
3, 25920, Note_on_c, 0, 39, 78
3, 26400, Note_on_c, 0, 39, 0
3, 26400, Note_on_c, 0, 27, 0
3, 26400, Note_on_c, 0, 48, 78
3, 26400, Note_on_c, 0, 54, 78
3, 26400, Note_on_c, 0, 58, 78
3, 26400, Note_on_c, 0, 60, 78
3, 26880, Note_on_c, 0, 60, 0
3, 26880, Note_on_c, 0, 48, 0
3, 26880, Note_on_c, 0, 54, 0
3, 26880, Note_on_c, 0, 58, 0
3, 26880, Control_c, 0, 64, 0
3, 26880, Note_on_c, 0, 72, 78
3, 26880, Note_on_c, 0, 78, 78
3, 26880, Note_on_c, 0, 82, 78
3, 26880, Note_on_c, 0, 84, 78
3, 27270, Note_on_c, 0, 53, 78
3, 27300, Note_on_c, 0, 60, 78
3, 27330, Note_on_c, 0, 65, 78
3, 27360, Note_on_c, 0, 84, 0
3, 27360, Note_on_c, 0, 82, 0
3, 27360, Note_on_c, 0, 72, 0
3, 27360, Note_on_c, 0, 78, 0
3, 27360, Note_on_c, 0, 69, 78
3, 27750, Note_on_c, 0, 58, 78
3, 27780, Note_on_c, 0, 62, 78
3, 27810, Note_on_c, 0, 68, 78
3, 27840, Note_on_c, 0, 69, 0
3, 27840, Note_on_c, 0, 65, 0
3, 27840, Note_on_c, 0, 60, 0
3, 27840, Note_on_c, 0, 53, 0
3, 27840, Note_on_c, 0, 70, 78
3, 28230, Note_on_c, 0, 51, 78
3, 28260, Note_on_c, 0, 58, 78
3, 28290, Note_on_c, 0, 63, 78
3, 28320, Note_on_c, 0, 70, 0
3, 28320, Note_on_c, 0, 68, 0
3, 28320, Note_on_c, 0, 62, 0
3, 28320, Note_on_c, 0, 58, 0
3, 28320, Note_on_c, 0, 67, 78
3, 28710, Note_on_c, 0, 56, 78
3, 28740, Note_on_c, 0, 60, 78
3, 28770, Note_on_c, 0, 63, 78
3, 28800, Note_on_c, 0, 67, 0
3, 28800, Note_on_c, 0, 63, 0
3, 28800, Note_on_c, 0, 58, 0
3, 28800, Note_on_c, 0, 51, 0
3, 28800, Note_on_c, 0, 68, 78
3, 29190, Note_on_c, 0, 49, 78
3, 29220, Note_on_c, 0, 56, 78
3, 29250, Note_on_c, 0, 61, 78
3, 29280, Note_on_c, 0, 68, 0
3, 29280, Note_on_c, 0, 63, 0
3, 29280, Note_on_c, 0, 60, 0
3, 29280, Note_on_c, 0, 56, 0
3, 29280, Note_on_c, 0, 65, 78
3, 29670, Note_on_c, 0, 43, 78
3, 29700, Note_on_c, 0, 49, 78
3, 29730, Note_on_c, 0, 53, 78
3, 29760, Note_on_c, 0, 65, 0
3, 29760, Note_on_c, 0, 61, 0
3, 29760, Note_on_c, 0, 56, 0
3, 29760, Note_on_c, 0, 49, 0
3, 29760, Note_on_c, 0, 58, 78
3, 30150, Note_on_c, 0, 44, 78
3, 30180, Note_on_c, 0, 49, 78
3, 30210, Note_on_c, 0, 53, 78
3, 30240, Note_on_c, 0, 58, 0
3, 30240, Note_on_c, 0, 53, 0
3, 30240, Note_on_c, 0, 49, 0
3, 30240, Note_on_c, 0, 43, 0
3, 30240, Control_c, 0, 64, 127
3, 30240, Note_on_c, 0, 56, 78
3, 30630, Note_on_c, 0, 65, 78
3, 30660, Note_on_c, 0, 68, 78
3, 30690, Note_on_c, 0, 73, 78
3, 30720, Note_on_c, 0, 56, 0
3, 30720, Note_on_c, 0, 53, 0
3, 30720, Note_on_c, 0, 49, 0
3, 30720, Note_on_c, 0, 44, 0
3, 30720, Note_on_c, 0, 77, 78
3, 31110, Note_on_c, 0, 61, 78
3, 31140, Note_on_c, 0, 65, 78
3, 31170, Note_on_c, 0, 68, 78
3, 31200, Note_on_c, 0, 77, 0
3, 31200, Note_on_c, 0, 73, 0
3, 31200, Note_on_c, 0, 68, 0
3, 31200, Note_on_c, 0, 65, 0
3, 31200, Note_on_c, 0, 73, 78
3, 31590, Note_on_c, 0, 58, 78
3, 31620, Note_on_c, 0, 63, 78
3, 31650, Note_on_c, 0, 67, 78
3, 31680, Note_on_c, 0, 73, 0
3, 31680, Note_on_c, 0, 68, 0
3, 31680, Note_on_c, 0, 65, 0
3, 31680, Note_on_c, 0, 61, 0
3, 31680, Control_c, 0, 64, 0
3, 31680, Note_on_c, 0, 70, 78
3, 32070, Note_on_c, 0, 51, 78
3, 32100, Note_on_c, 0, 55, 78
3, 32130, Note_on_c, 0, 58, 78
3, 32160, Note_on_c, 0, 70, 0
3, 32160, Note_on_c, 0, 67, 0
3, 32160, Note_on_c, 0, 63, 0
3, 32160, Note_on_c, 0, 58, 0
3, 32160, Note_on_c, 0, 63, 78
3, 32550, Note_on_c, 0, 44, 78
3, 32580, Note_on_c, 0, 51, 78
3, 32610, Note_on_c, 0, 56, 78
3, 32640, Note_on_c, 0, 63, 0
3, 32640, Note_on_c, 0, 58, 0
3, 32640, Note_on_c, 0, 55, 0
3, 32640, Note_on_c, 0, 51, 0
3, 32640, Note_on_c, 0, 60, 78
3, 33040, Note_on_c, 0, 49, 78
3, 33080, Note_on_c, 0, 56, 78
3, 33120, Note_on_c, 0, 60, 0
3, 33120, Note_on_c, 0, 56, 0
3, 33120, Note_on_c, 0, 51, 0
3, 33120, Note_on_c, 0, 44, 0
3, 33120, Note_on_c, 0, 61, 78
3, 33600, Note_on_c, 0, 61, 0
3, 33600, Note_on_c, 0, 56, 0
3, 33600, Note_on_c, 0, 49, 0
3, 35220, Control_c, 0, 64, 127
3, 35220, Note_on_c, 0, 56, 78
3, 35220, Note_on_c, 0, 61, 78
3, 35220, Note_on_c, 0, 65, 78
3, 35280, Note_on_c, 0, 65, 0
3, 35280, Note_on_c, 0, 61, 0
3, 35280, Note_on_c, 0, 56, 0
3, 35280, Note_on_c, 0, 56, 78
3, 35280, Note_on_c, 0, 61, 78
3, 35280, Note_on_c, 0, 65, 78
3, 35460, Note_on_c, 0, 65, 0
3, 35460, Note_on_c, 0, 61, 0
3, 35460, Note_on_c, 0, 56, 0
3, 35460, Note_on_c, 0, 53, 78
3, 35460, Note_on_c, 0, 56, 78
3, 35460, Note_on_c, 0, 61, 78
3, 35520, Note_on_c, 0, 61, 0
3, 35520, Note_on_c, 0, 56, 0
3, 35520, Note_on_c, 0, 53, 0
3, 35520, Note_on_c, 0, 53, 78
3, 35520, Note_on_c, 0, 56, 78
3, 35520, Note_on_c, 0, 61, 78
3, 35700, Note_on_c, 0, 61, 0
3, 35700, Note_on_c, 0, 56, 0
3, 35700, Note_on_c, 0, 53, 0
3, 35700, Note_on_c, 0, 51, 78
3, 35700, Note_on_c, 0, 56, 78
3, 35700, Note_on_c, 0, 61, 78
3, 35760, Note_on_c, 0, 61, 0
3, 35760, Note_on_c, 0, 56, 0
3, 35760, Note_on_c, 0, 51, 0
3, 35760, Note_on_c, 0, 51, 78
3, 35760, Note_on_c, 0, 56, 78
3, 35760, Note_on_c, 0, 61, 78
3, 35940, Note_on_c, 0, 61, 0
3, 35940, Note_on_c, 0, 56, 0
3, 35940, Note_on_c, 0, 51, 0
3, 35940, Control_c, 0, 64, 0
3, 35940, Note_on_c, 0, 49, 78
3, 35940, Note_on_c, 0, 56, 78
3, 35940, Note_on_c, 0, 61, 78
3, 36000, Note_on_c, 0, 61, 0
3, 36000, Note_on_c, 0, 56, 0
3, 36000, Note_on_c, 0, 49, 0
3, 36000, Note_on_c, 0, 49, 78
3, 36000, Note_on_c, 0, 56, 78
3, 36000, Note_on_c, 0, 61, 78
3, 36480, Note_on_c, 0, 49, 0
3, 36480, Note_on_c, 0, 53, 104
3, 36480, Note_on_c, 0, 65, 104
3, 37200, Note_on_c, 0, 65, 0
3, 37200, Note_on_c, 0, 56, 0
3, 37200, Note_on_c, 0, 61, 0
3, 37200, Note_on_c, 0, 53, 0
3, 37200, Note_on_c, 0, 51, 78
3, 37200, Note_on_c, 0, 63, 78
3, 37440, Note_on_c, 0, 63, 0
3, 37440, Note_on_c, 0, 51, 0
3, 37440, Note_on_c, 0, 54, 104
3, 37440, Note_on_c, 0, 56, 104
3, 37440, Note_on_c, 0, 61, 104
3, 37440, Note_on_c, 0, 66, 104
3, 38040, Note_on_c, 0, 66, 0
3, 38040, Note_on_c, 0, 54, 0
3, 38040, Note_on_c, 0, 56, 0
3, 38040, Note_on_c, 0, 61, 0
3, 38040, Control_c, 0, 64, 127
3, 38040, Note_on_c, 0, 53, 78
3, 38040, Note_on_c, 0, 65, 78
3, 38160, Note_on_c, 0, 65, 0
3, 38160, Note_on_c, 0, 53, 0
3, 38160, Note_on_c, 0, 48, 78
3, 38160, Note_on_c, 0, 60, 78
3, 38280, Note_on_c, 0, 60, 0
3, 38280, Note_on_c, 0, 48, 0
3, 38280, Note_on_c, 0, 49, 78
3, 38280, Note_on_c, 0, 61, 78
3, 38400, Note_on_c, 0, 61, 0
3, 38400, Note_on_c, 0, 49, 0
3, 38400, Note_on_c, 0, 51, 78
3, 38400, Note_on_c, 0, 63, 78
3, 38520, Note_on_c, 0, 63, 0
3, 38520, Note_on_c, 0, 51, 0
3, 38520, Note_on_c, 0, 49, 78
3, 38520, Note_on_c, 0, 61, 78
3, 38640, Note_on_c, 0, 61, 0
3, 38640, Note_on_c, 0, 49, 0
3, 38640, Note_on_c, 0, 48, 78
3, 38640, Note_on_c, 0, 60, 78
3, 38760, Note_on_c, 0, 60, 0
3, 38760, Note_on_c, 0, 48, 0
3, 38760, Note_on_c, 0, 49, 78
3, 38760, Note_on_c, 0, 61, 78
3, 38880, Note_on_c, 0, 61, 0
3, 38880, Note_on_c, 0, 49, 0
3, 38880, Control_c, 0, 64, 0
3, 38880, Note_on_c, 0, 46, 78
3, 38880, Note_on_c, 0, 58, 78
3, 39120, Note_on_c, 0, 58, 0
3, 39120, Note_on_c, 0, 46, 0
3, 39360, Note_on_c, 0, 51, 104
3, 39360, Note_on_c, 0, 54, 104
3, 39360, Note_on_c, 0, 58, 104
3, 39360, Note_on_c, 0, 63, 104
3, 40080, Note_on_c, 0, 63, 0
3, 40080, Note_on_c, 0, 51, 0
3, 40080, Note_on_c, 0, 54, 0
3, 40080, Note_on_c, 0, 58, 0
3, 40080, Note_on_c, 0, 53, 78
3, 40080, Note_on_c, 0, 65, 78
3, 40320, Note_on_c, 0, 65, 0
3, 40320, Note_on_c, 0, 53, 0
3, 40320, Note_on_c, 0, 46, 104
3, 40320, Note_on_c, 0, 51, 104
3, 40320, Note_on_c, 0, 54, 104
3, 40320, Note_on_c, 0, 58, 104
3, 40980, Note_on_c, 0, 58, 0
3, 40980, Note_on_c, 0, 46, 0
3, 40980, Note_on_c, 0, 51, 0
3, 40980, Note_on_c, 0, 54, 0
3, 40980, Control_c, 0, 64, 127
3, 40980, Note_on_c, 0, 51, 78
3, 40980, Note_on_c, 0, 54, 78
3, 40980, Note_on_c, 0, 58, 78
3, 40980, Note_on_c, 0, 63, 78
3, 41040, Note_on_c, 0, 63, 0
3, 41040, Note_on_c, 0, 51, 0
3, 41040, Note_on_c, 0, 54, 0
3, 41040, Note_on_c, 0, 58, 0
3, 41040, Note_on_c, 0, 51, 78
3, 41040, Note_on_c, 0, 54, 78
3, 41040, Note_on_c, 0, 58, 78
3, 41040, Note_on_c, 0, 63, 78
3, 41220, Note_on_c, 0, 63, 0
3, 41220, Note_on_c, 0, 51, 0
3, 41220, Note_on_c, 0, 54, 0
3, 41220, Note_on_c, 0, 58, 0
3, 41220, Note_on_c, 0, 48, 78
3, 41220, Note_on_c, 0, 51, 78
3, 41220, Note_on_c, 0, 54, 78
3, 41220, Note_on_c, 0, 60, 78
3, 41280, Note_on_c, 0, 60, 0
3, 41280, Note_on_c, 0, 48, 0
3, 41280, Note_on_c, 0, 51, 0
3, 41280, Note_on_c, 0, 54, 0
3, 41280, Note_on_c, 0, 48, 78
3, 41280, Note_on_c, 0, 51, 78
3, 41280, Note_on_c, 0, 54, 78
3, 41280, Note_on_c, 0, 60, 78
3, 41460, Note_on_c, 0, 60, 0
3, 41460, Note_on_c, 0, 48, 0
3, 41460, Note_on_c, 0, 51, 0
3, 41460, Note_on_c, 0, 54, 0
3, 41460, Note_on_c, 0, 46, 78
3, 41460, Note_on_c, 0, 51, 78
3, 41460, Note_on_c, 0, 54, 78
3, 41460, Note_on_c, 0, 58, 78
3, 41520, Note_on_c, 0, 58, 0
3, 41520, Note_on_c, 0, 46, 0
3, 41520, Note_on_c, 0, 51, 0
3, 41520, Note_on_c, 0, 54, 0
3, 41520, Note_on_c, 0, 46, 78
3, 41520, Note_on_c, 0, 51, 78
3, 41520, Note_on_c, 0, 54, 78
3, 41520, Note_on_c, 0, 58, 78
3, 41700, Note_on_c, 0, 58, 0
3, 41700, Note_on_c, 0, 46, 0
3, 41700, Note_on_c, 0, 51, 0
3, 41700, Note_on_c, 0, 54, 0
3, 41700, Note_on_c, 0, 44, 78
3, 41700, Note_on_c, 0, 51, 78
3, 41700, Note_on_c, 0, 54, 78
3, 41700, Note_on_c, 0, 56, 78
3, 41760, Note_on_c, 0, 56, 0
3, 41760, Note_on_c, 0, 44, 0
3, 41760, Note_on_c, 0, 51, 0
3, 41760, Note_on_c, 0, 54, 0
3, 41760, Control_c, 0, 64, 0
3, 41760, Note_on_c, 0, 44, 78
3, 41760, Note_on_c, 0, 51, 78
3, 41760, Note_on_c, 0, 54, 78
3, 41760, Note_on_c, 0, 56, 78
3, 42240, Note_on_c, 0, 56, 0
3, 42240, Note_on_c, 0, 44, 0
3, 42240, Note_on_c, 0, 51, 0
3, 42240, Note_on_c, 0, 54, 0
3, 42240, Note_on_c, 0, 51, 104
3, 42240, Note_on_c, 0, 56, 104
3, 42240, Note_on_c, 0, 60, 104
3, 42240, Note_on_c, 0, 63, 104
3, 42960, Note_on_c, 0, 63, 0
3, 42960, Note_on_c, 0, 51, 0
3, 42960, Note_on_c, 0, 56, 0
3, 42960, Note_on_c, 0, 60, 0
3, 42960, Note_on_c, 0, 53, 78
3, 42960, Note_on_c, 0, 65, 78
3, 43200, Note_on_c, 0, 65, 0
3, 43200, Note_on_c, 0, 53, 0
3, 43200, Note_on_c, 0, 56, 104
3, 43200, Note_on_c, 0, 60, 104
3, 43200, Note_on_c, 0, 63, 104
3, 43200, Note_on_c, 0, 68, 104
3, 43839, Note_on_c, 0, 68, 0
3, 43839, Note_on_c, 0, 56, 0
3, 43839, Note_on_c, 0, 60, 0
3, 43839, Note_on_c, 0, 63, 0
3, 43839, Note_on_c, 0, 51, 104
3, 43839, Note_on_c, 0, 63, 104
3, 44000, Note_on_c, 0, 63, 0
3, 44000, Note_on_c, 0, 51, 0
3, 44000, Note_on_c, 0, 50, 104
3, 44000, Note_on_c, 0, 62, 104
3, 44160, Note_on_c, 0, 62, 0
3, 44160, Note_on_c, 0, 50, 0
3, 44160, Note_on_c, 0, 51, 104
3, 44160, Note_on_c, 0, 63, 104
3, 44319, Note_on_c, 0, 63, 0
3, 44319, Note_on_c, 0, 51, 0
3, 44319, Note_on_c, 0, 53, 104
3, 44319, Note_on_c, 0, 65, 104
3, 44480, Note_on_c, 0, 65, 0
3, 44480, Note_on_c, 0, 53, 0
3, 44480, Note_on_c, 0, 54, 104
3, 44480, Note_on_c, 0, 66, 104
3, 44640, Note_on_c, 0, 66, 0
3, 44640, Note_on_c, 0, 54, 0
3, 44640, Note_on_c, 0, 56, 104
3, 44640, Note_on_c, 0, 61, 104
3, 44640, Note_on_c, 0, 65, 104
3, 44640, Note_on_c, 0, 68, 104
3, 45360, Note_on_c, 0, 68, 0
3, 45360, Note_on_c, 0, 56, 0
3, 45360, Note_on_c, 0, 61, 0
3, 45360, Note_on_c, 0, 65, 0
3, 45360, Note_on_c, 0, 53, 104
3, 45360, Note_on_c, 0, 65, 104
3, 45600, Note_on_c, 0, 65, 0
3, 45600, Note_on_c, 0, 53, 0
3, 45600, Note_on_c, 0, 58, 104
3, 45600, Note_on_c, 0, 70, 104
3, 45840, Note_on_c, 0, 70, 0
3, 45840, Note_on_c, 0, 58, 0
3, 45840, Note_on_c, 0, 56, 104
3, 45840, Note_on_c, 0, 68, 104
3, 46080, Note_on_c, 0, 68, 0
3, 46080, Note_on_c, 0, 56, 0
3, 46080, Note_on_c, 0, 56, 104
3, 46080, Note_on_c, 0, 68, 104
3, 46800, Note_on_c, 0, 68, 0
3, 46800, Note_on_c, 0, 56, 0
3, 46800, Note_on_c, 0, 51, 104
3, 46800, Note_on_c, 0, 63, 104
3, 47040, Note_on_c, 0, 63, 0
3, 47040, Note_on_c, 0, 51, 0
3, 47040, Note_on_c, 0, 58, 104
3, 47040, Note_on_c, 0, 70, 104
3, 47280, Note_on_c, 0, 70, 0
3, 47280, Note_on_c, 0, 58, 0
3, 47280, Note_on_c, 0, 56, 104
3, 47280, Note_on_c, 0, 68, 104
3, 47520, Note_on_c, 0, 68, 0
3, 47520, Note_on_c, 0, 56, 0
3, 47520, Note_on_c, 0, 56, 78
3, 47520, Note_on_c, 0, 68, 78
3, 48240, Note_on_c, 0, 68, 0
3, 48240, Note_on_c, 0, 56, 0
3, 48240, Note_on_c, 0, 53, 104
3, 48240, Note_on_c, 0, 65, 104
3, 48480, Note_on_c, 0, 65, 0
3, 48480, Note_on_c, 0, 53, 0
3, 48480, Note_on_c, 0, 59, 104
3, 48480, Note_on_c, 0, 71, 104
3, 48720, Note_on_c, 0, 71, 0
3, 48720, Note_on_c, 0, 59, 0
3, 48720, Note_on_c, 0, 58, 104
3, 48720, Note_on_c, 0, 70, 104
3, 48960, Note_on_c, 0, 70, 0
3, 48960, Note_on_c, 0, 58, 0
3, 48960, Note_on_c, 0, 58, 104
3, 48960, Note_on_c, 0, 70, 104
3, 49680, Note_on_c, 0, 70, 0
3, 49680, Note_on_c, 0, 58, 0
3, 49680, Note_on_c, 0, 54, 104
3, 49680, Note_on_c, 0, 66, 104
3, 49920, Note_on_c, 0, 66, 0
3, 49920, Note_on_c, 0, 54, 0
3, 49920, Note_on_c, 0, 61, 104
3, 49920, Note_on_c, 0, 73, 104
3, 50160, Note_on_c, 0, 73, 0
3, 50160, Note_on_c, 0, 61, 0
3, 50160, Note_on_c, 0, 60, 104
3, 50160, Note_on_c, 0, 72, 104
3, 50400, Note_on_c, 0, 72, 0
3, 50400, Note_on_c, 0, 60, 0
3, 50400, Note_on_c, 0, 60, 104
3, 50400, Note_on_c, 0, 72, 104
3, 51039, Note_on_c, 0, 72, 0
3, 51039, Note_on_c, 0, 60, 0
3, 51039, Note_on_c, 0, 56, 78
3, 51039, Note_on_c, 0, 68, 78
3, 51200, Note_on_c, 0, 68, 0
3, 51200, Note_on_c, 0, 56, 0
3, 51200, Note_on_c, 0, 61, 78
3, 51200, Note_on_c, 0, 73, 78
3, 51360, Note_on_c, 0, 73, 0
3, 51360, Note_on_c, 0, 61, 0
3, 51360, Note_on_c, 0, 60, 78
3, 51360, Note_on_c, 0, 72, 78
3, 51519, Note_on_c, 0, 72, 0
3, 51519, Note_on_c, 0, 60, 0
3, 51519, Note_on_c, 0, 56, 78
3, 51519, Note_on_c, 0, 68, 78
3, 51680, Note_on_c, 0, 68, 0
3, 51680, Note_on_c, 0, 56, 0
3, 51680, Note_on_c, 0, 55, 78
3, 51680, Note_on_c, 0, 67, 78
3, 51840, Note_on_c, 0, 67, 0
3, 51840, Note_on_c, 0, 55, 0
3, 51840, Note_on_c, 0, 53, 78
3, 51840, Note_on_c, 0, 56, 78
3, 51840, Note_on_c, 0, 60, 78
3, 51840, Note_on_c, 0, 65, 78
3, 51999, Note_on_c, 0, 65, 0
3, 51999, Note_on_c, 0, 53, 0
3, 51999, Note_on_c, 0, 56, 0
3, 51999, Note_on_c, 0, 60, 0
3, 51999, Note_on_c, 0, 49, 78
3, 51999, Note_on_c, 0, 61, 78
3, 52160, Note_on_c, 0, 61, 0
3, 52160, Note_on_c, 0, 49, 0
3, 52160, Note_on_c, 0, 48, 78
3, 52160, Note_on_c, 0, 60, 78
3, 52320, Note_on_c, 0, 60, 0
3, 52320, Note_on_c, 0, 48, 0
3, 52320, Note_on_c, 0, 47, 78
3, 52320, Note_on_c, 0, 53, 78
3, 52320, Note_on_c, 0, 56, 78
3, 52320, Note_on_c, 0, 59, 78
3, 52479, Note_on_c, 0, 59, 0
3, 52479, Note_on_c, 0, 47, 0
3, 52479, Note_on_c, 0, 48, 78
3, 52479, Note_on_c, 0, 60, 78
3, 52640, Note_on_c, 0, 60, 0
3, 52640, Note_on_c, 0, 48, 0
3, 52640, Note_on_c, 0, 44, 78
3, 52640, Note_on_c, 0, 56, 78
3, 52800, Note_on_c, 0, 56, 0
3, 52800, Note_on_c, 0, 53, 0
3, 52800, Note_on_c, 0, 56, 0
3, 52800, Note_on_c, 0, 44, 0
3, 52800, Note_on_c, 0, 43, 78
3, 52800, Note_on_c, 0, 48, 78
3, 52800, Note_on_c, 0, 55, 78
3, 52959, Note_on_c, 0, 55, 0
3, 52959, Note_on_c, 0, 43, 0
3, 52959, Note_on_c, 0, 44, 78
3, 52959, Note_on_c, 0, 56, 78
3, 53120, Note_on_c, 0, 56, 0
3, 53120, Note_on_c, 0, 44, 0
3, 53120, Note_on_c, 0, 41, 78
3, 53120, Note_on_c, 0, 53, 78
3, 53280, Note_on_c, 0, 53, 0
3, 53280, Note_on_c, 0, 41, 0
3, 53280, Note_on_c, 0, 48, 0
3, 53280, Note_on_c, 0, 37, 78
3, 53280, Note_on_c, 0, 41, 78
3, 53280, Note_on_c, 0, 44, 78
3, 53280, Note_on_c, 0, 49, 78
3, 53439, Note_on_c, 0, 49, 0
3, 53439, Note_on_c, 0, 37, 0
3, 53439, Note_on_c, 0, 41, 0
3, 53439, Note_on_c, 0, 44, 0
3, 53439, Note_on_c, 0, 36, 78
3, 53439, Note_on_c, 0, 48, 78
3, 53600, Note_on_c, 0, 48, 0
3, 53600, Note_on_c, 0, 36, 0
3, 53600, Note_on_c, 0, 35, 78
3, 53600, Note_on_c, 0, 47, 78
3, 53760, Note_on_c, 0, 47, 0
3, 53760, Note_on_c, 0, 35, 0
3, 53760, Note_on_c, 0, 36, 78
3, 53760, Note_on_c, 0, 48, 78
3, 53919, Note_on_c, 0, 48, 0
3, 53919, Note_on_c, 0, 36, 0
3, 53919, Note_on_c, 0, 44, 78
3, 54080, Note_on_c, 0, 44, 0
3, 54080, Note_on_c, 0, 43, 78
3, 54240, Note_on_c, 0, 43, 0
3, 54240, Note_on_c, 0, 41, 78
3, 54399, Note_on_c, 0, 41, 0
3, 54399, Note_on_c, 0, 37, 78
3, 54399, Note_on_c, 0, 49, 78
3, 54560, Note_on_c, 0, 49, 0
3, 54560, Note_on_c, 0, 37, 0
3, 54560, Note_on_c, 0, 36, 78
3, 54560, Note_on_c, 0, 48, 78
3, 54720, Note_on_c, 0, 48, 0
3, 54720, Note_on_c, 0, 36, 0
3, 54720, Note_on_c, 0, 35, 78
3, 54720, Note_on_c, 0, 47, 78
3, 54960, Note_on_c, 0, 47, 0
3, 54960, Note_on_c, 0, 35, 0
3, 54960, Note_on_c, 0, 36, 78
3, 54960, Note_on_c, 0, 48, 78
3, 55200, Note_on_c, 0, 48, 0
3, 55200, Note_on_c, 0, 36, 0
3, 55200, Note_on_c, 0, 32, 104
3, 55200, Note_on_c, 0, 44, 104
3, 55440, Note_on_c, 0, 44, 0
3, 55440, Note_on_c, 0, 32, 0
3, 55440, Note_on_c, 0, 31, 104
3, 55440, Note_on_c, 0, 43, 104
3, 55680, Note_on_c, 0, 43, 0
3, 55680, Note_on_c, 0, 31, 0
3, 55680, Note_on_c, 0, 29, 104
3, 55680, Note_on_c, 0, 41, 104
3, 55920, Note_on_c, 0, 41, 0
3, 55920, Note_on_c, 0, 29, 0
3, 55920, Note_on_c, 0, 27, 104
3, 55920, Note_on_c, 0, 39, 104
3, 56160, Note_on_c, 0, 39, 0
3, 56160, Note_on_c, 0, 27, 0
3, 56160, Note_on_c, 0, 26, 104
3, 56160, Note_on_c, 0, 38, 104
3, 56550, Note_on_c, 0, 50, 78
3, 56580, Note_on_c, 0, 56, 78
3, 56610, Note_on_c, 0, 59, 78
3, 56640, Note_on_c, 0, 38, 0
3, 56640, Note_on_c, 0, 26, 0
3, 56640, Note_on_c, 0, 65, 78
3, 56880, Note_on_c, 0, 65, 0
3, 56880, Note_on_c, 0, 59, 0
3, 56880, Note_on_c, 0, 50, 0
3, 56880, Note_on_c, 0, 56, 0
3, 57600, Control_c, 0, 64, 127
3, 57600, Note_on_c, 0, 26, 78
3, 57600, Note_on_c, 0, 38, 78
3, 57840, Note_on_c, 0, 38, 0
3, 57840, Note_on_c, 0, 26, 0
3, 57840, Note_on_c, 0, 44, 78
3, 57879, Note_on_c, 0, 44, 0
3, 57879, Note_on_c, 0, 48, 78
3, 57920, Note_on_c, 0, 48, 0
3, 57920, Note_on_c, 0, 50, 78
3, 57960, Note_on_c, 0, 50, 0
3, 57960, Note_on_c, 0, 53, 78
3, 57999, Note_on_c, 0, 53, 0
3, 57999, Note_on_c, 0, 56, 78
3, 58040, Note_on_c, 0, 56, 0
3, 58040, Note_on_c, 0, 59, 78
3, 58080, Note_on_c, 0, 59, 0
3, 58080, Note_on_c, 0, 62, 78
3, 58119, Note_on_c, 0, 62, 0
3, 58119, Note_on_c, 0, 65, 78
3, 58160, Note_on_c, 0, 65, 0
3, 58160, Note_on_c, 0, 68, 78
3, 58200, Note_on_c, 0, 68, 0
3, 58200, Note_on_c, 0, 71, 78
3, 58239, Note_on_c, 0, 71, 0
3, 58239, Note_on_c, 0, 74, 78
3, 58280, Note_on_c, 0, 74, 0
3, 58280, Note_on_c, 0, 77, 78
3, 58320, Note_on_c, 0, 77, 0
3, 58320, Note_on_c, 0, 80, 78
3, 58380, Note_on_c, 0, 80, 0
3, 58380, Note_on_c, 0, 83, 78
3, 58440, Note_on_c, 0, 83, 0
3, 58440, Note_on_c, 0, 86, 78
3, 58800, Note_on_c, 0, 86, 0
3, 58800, Control_c, 0, 64, 0
3, 59520, Control_c, 0, 64, 127
3, 59520, Note_on_c, 0, 29, 78
3, 59520, Note_on_c, 0, 41, 78
3, 59760, Note_on_c, 0, 41, 0
3, 59760, Note_on_c, 0, 29, 0
3, 59760, Note_on_c, 0, 47, 78
3, 59799, Note_on_c, 0, 47, 0
3, 59799, Note_on_c, 0, 50, 78
3, 59840, Note_on_c, 0, 50, 0
3, 59840, Note_on_c, 0, 53, 78
3, 59880, Note_on_c, 0, 53, 0
3, 59880, Note_on_c, 0, 56, 78
3, 59919, Note_on_c, 0, 56, 0
3, 59919, Note_on_c, 0, 59, 78
3, 59960, Note_on_c, 0, 59, 0
3, 59960, Note_on_c, 0, 62, 78
3, 60000, Note_on_c, 0, 62, 0
3, 60000, Note_on_c, 0, 65, 78
3, 60039, Note_on_c, 0, 65, 0
3, 60039, Note_on_c, 0, 68, 78
3, 60080, Note_on_c, 0, 68, 0
3, 60080, Note_on_c, 0, 71, 78
3, 60120, Note_on_c, 0, 71, 0
3, 60120, Note_on_c, 0, 74, 78
3, 60159, Note_on_c, 0, 74, 0
3, 60159, Note_on_c, 0, 77, 78
3, 60200, Note_on_c, 0, 77, 0
3, 60200, Note_on_c, 0, 80, 78
3, 60240, Note_on_c, 0, 80, 0
3, 60240, Note_on_c, 0, 83, 78
3, 60300, Note_on_c, 0, 83, 0
3, 60300, Note_on_c, 0, 86, 78
3, 60360, Note_on_c, 0, 86, 0
3, 60360, Note_on_c, 0, 89, 78
3, 60600, Note_on_c, 0, 89, 0
3, 60600, Control_c, 0, 64, 0
3, 61380, Note_on_c, 0, 32, 78
3, 61440, Control_c, 0, 64, 127
3, 61440, Note_on_c, 0, 44, 78
3, 61590, Note_on_c, 0, 44, 78
3, 61620, Note_on_c, 0, 50, 78
3, 61650, Note_on_c, 0, 53, 78
3, 61680, Note_on_c, 0, 44, 0
3, 61680, Note_on_c, 0, 32, 0
3, 61680, Note_on_c, 0, 59, 78
3, 61830, Note_on_c, 0, 44, 78
3, 61860, Note_on_c, 0, 50, 78
3, 61890, Note_on_c, 0, 53, 78
3, 61920, Note_on_c, 0, 59, 0
3, 61920, Note_on_c, 0, 50, 0
3, 61920, Note_on_c, 0, 53, 0
3, 61920, Note_on_c, 0, 44, 0
3, 61920, Note_on_c, 0, 59, 78
3, 62070, Note_on_c, 0, 44, 78
3, 62100, Note_on_c, 0, 50, 78
3, 62130, Note_on_c, 0, 53, 78
3, 62160, Note_on_c, 0, 59, 0
3, 62160, Note_on_c, 0, 53, 0
3, 62160, Note_on_c, 0, 50, 0
3, 62160, Note_on_c, 0, 44, 0
3, 62160, Note_on_c, 0, 59, 78
3, 62310, Note_on_c, 0, 56, 78
3, 62340, Note_on_c, 0, 62, 78
3, 62370, Note_on_c, 0, 65, 78
3, 62400, Note_on_c, 0, 59, 0
3, 62400, Note_on_c, 0, 53, 0
3, 62400, Note_on_c, 0, 50, 0
3, 62400, Note_on_c, 0, 44, 0
3, 62400, Note_on_c, 0, 71, 78
3, 62550, Note_on_c, 0, 56, 78
3, 62580, Note_on_c, 0, 62, 78
3, 62610, Note_on_c, 0, 65, 78
3, 62640, Note_on_c, 0, 71, 0
3, 62640, Note_on_c, 0, 65, 0
3, 62640, Note_on_c, 0, 62, 0
3, 62640, Note_on_c, 0, 56, 0
3, 62640, Control_c, 0, 64, 0
3, 62640, Note_on_c, 0, 71, 78
3, 62880, Note_on_c, 0, 71, 0
3, 62880, Note_on_c, 0, 62, 0
3, 62880, Note_on_c, 0, 56, 0
3, 62880, Note_on_c, 0, 65, 0
3, 62880, Control_c, 0, 64, 127
3, 62880, Note_on_c, 0, 55, 78
3, 62880, Note_on_c, 0, 61, 78
3, 62880, Note_on_c, 0, 64, 78
3, 62880, Note_on_c, 0, 70, 78
3, 63120, Note_on_c, 0, 70, 0
3, 63120, Note_on_c, 0, 55, 0
3, 63120, Note_on_c, 0, 61, 0
3, 63120, Note_on_c, 0, 64, 0
3, 63120, Note_on_c, 0, 43, 78
3, 63159, Note_on_c, 0, 43, 0
3, 63159, Note_on_c, 0, 46, 78
3, 63200, Note_on_c, 0, 46, 0
3, 63200, Note_on_c, 0, 49, 78
3, 63240, Note_on_c, 0, 49, 0
3, 63240, Note_on_c, 0, 52, 78
3, 63279, Note_on_c, 0, 52, 0
3, 63279, Note_on_c, 0, 55, 78
3, 63320, Note_on_c, 0, 55, 0
3, 63320, Note_on_c, 0, 58, 78
3, 63360, Note_on_c, 0, 58, 0
3, 63360, Note_on_c, 0, 61, 78
3, 63399, Note_on_c, 0, 61, 0
3, 63399, Note_on_c, 0, 64, 78
3, 63440, Note_on_c, 0, 64, 0
3, 63440, Note_on_c, 0, 67, 78
3, 63480, Note_on_c, 0, 67, 0
3, 63480, Note_on_c, 0, 70, 78
3, 63519, Note_on_c, 0, 70, 0
3, 63519, Note_on_c, 0, 73, 78
3, 63560, Note_on_c, 0, 73, 0
3, 63560, Note_on_c, 0, 76, 78
3, 63600, Note_on_c, 0, 76, 0
3, 63600, Note_on_c, 0, 79, 78
3, 63639, Note_on_c, 0, 79, 0
3, 63639, Note_on_c, 0, 82, 78
3, 63680, Note_on_c, 0, 82, 0
3, 63680, Note_on_c, 0, 85, 78
3, 63720, Note_on_c, 0, 85, 0
3, 63720, Note_on_c, 0, 88, 78
3, 63780, Note_on_c, 0, 88, 0
3, 63780, Note_on_c, 0, 91, 78
3, 64020, Note_on_c, 0, 91, 0
3, 64080, Control_c, 0, 64, 0
3, 68640, Control_c, 0, 64, 127
3, 68640, Note_on_c, 0, 34, 78
3, 68640, Note_on_c, 0, 46, 78
3, 68790, Note_on_c, 0, 46, 78
3, 68820, Note_on_c, 0, 52, 78
3, 68850, Note_on_c, 0, 55, 78
3, 68880, Note_on_c, 0, 46, 0
3, 68880, Note_on_c, 0, 34, 0
3, 68880, Note_on_c, 0, 61, 78
3, 69030, Note_on_c, 0, 46, 78
3, 69060, Note_on_c, 0, 52, 78
3, 69090, Note_on_c, 0, 55, 78
3, 69120, Note_on_c, 0, 61, 0
3, 69120, Note_on_c, 0, 52, 0
3, 69120, Note_on_c, 0, 55, 0
3, 69120, Note_on_c, 0, 46, 0
3, 69120, Note_on_c, 0, 61, 78
3, 69270, Note_on_c, 0, 46, 78
3, 69300, Note_on_c, 0, 52, 78
3, 69330, Note_on_c, 0, 55, 78
3, 69360, Note_on_c, 0, 61, 0
3, 69360, Note_on_c, 0, 55, 0
3, 69360, Note_on_c, 0, 52, 0
3, 69360, Note_on_c, 0, 46, 0
3, 69360, Note_on_c, 0, 61, 78
3, 69510, Note_on_c, 0, 58, 78
3, 69540, Note_on_c, 0, 64, 78
3, 69570, Note_on_c, 0, 67, 78
3, 69600, Note_on_c, 0, 61, 0
3, 69600, Note_on_c, 0, 55, 0
3, 69600, Note_on_c, 0, 52, 0
3, 69600, Note_on_c, 0, 46, 0
3, 69600, Note_on_c, 0, 73, 78
3, 69750, Note_on_c, 0, 58, 78
3, 69780, Note_on_c, 0, 64, 78
3, 69810, Note_on_c, 0, 67, 78
3, 69840, Note_on_c, 0, 73, 0
3, 69840, Note_on_c, 0, 67, 0
3, 69840, Note_on_c, 0, 64, 0
3, 69840, Note_on_c, 0, 58, 0
3, 69840, Note_on_c, 0, 73, 78
3, 69990, Note_on_c, 0, 58, 78
3, 70020, Note_on_c, 0, 64, 78
3, 70050, Note_on_c, 0, 67, 78
3, 70080, Note_on_c, 0, 73, 0
3, 70080, Note_on_c, 0, 67, 0
3, 70080, Note_on_c, 0, 64, 0
3, 70080, Note_on_c, 0, 58, 0
3, 70080, Note_on_c, 0, 73, 78
3, 70230, Note_on_c, 0, 70, 78
3, 70260, Note_on_c, 0, 76, 78
3, 70290, Note_on_c, 0, 79, 78
3, 70320, Note_on_c, 0, 73, 0
3, 70320, Note_on_c, 0, 67, 0
3, 70320, Note_on_c, 0, 64, 0
3, 70320, Note_on_c, 0, 58, 0
3, 70320, Note_on_c, 0, 85, 78
3, 70470, Note_on_c, 0, 70, 78
3, 70500, Note_on_c, 0, 76, 78
3, 70530, Note_on_c, 0, 79, 78
3, 70560, Note_on_c, 0, 85, 0
3, 70560, Note_on_c, 0, 79, 0
3, 70560, Note_on_c, 0, 76, 0
3, 70560, Note_on_c, 0, 70, 0
3, 70560, Note_on_c, 0, 85, 78
3, 71040, Control_c, 0, 64, 0
3, 71160, Note_on_c, 0, 85, 0
3, 71160, Note_on_c, 0, 76, 0
3, 71160, Note_on_c, 0, 70, 0
3, 71160, Note_on_c, 0, 79, 0
3, 71160, Control_c, 0, 64, 127
3, 71160, Note_on_c, 0, 85, 52
3, 71160, Note_on_c, 0, 94, 52
3, 71280, Note_on_c, 0, 94, 0
3, 71280, Note_on_c, 0, 85, 0
3, 71280, Note_on_c, 0, 82, 52
3, 71280, Note_on_c, 0, 91, 52
3, 71400, Note_on_c, 0, 91, 0
3, 71400, Note_on_c, 0, 82, 0
3, 71400, Note_on_c, 0, 79, 52
3, 71400, Note_on_c, 0, 88, 52
3, 71520, Note_on_c, 0, 88, 0
3, 71520, Note_on_c, 0, 79, 0
3, 71520, Note_on_c, 0, 76, 52
3, 71520, Note_on_c, 0, 85, 52
3, 71640, Note_on_c, 0, 85, 0
3, 71640, Note_on_c, 0, 76, 0
3, 71640, Note_on_c, 0, 73, 52
3, 71640, Note_on_c, 0, 82, 52
3, 71760, Note_on_c, 0, 82, 0
3, 71760, Note_on_c, 0, 73, 0
3, 71760, Note_on_c, 0, 70, 65
3, 71760, Note_on_c, 0, 79, 65
3, 71880, Note_on_c, 0, 79, 0
3, 71880, Note_on_c, 0, 70, 0
3, 71880, Note_on_c, 0, 67, 65
3, 71880, Note_on_c, 0, 76, 65
3, 72000, Note_on_c, 0, 76, 0
3, 72000, Note_on_c, 0, 67, 0
3, 72000, Note_on_c, 0, 64, 65
3, 72000, Note_on_c, 0, 73, 65
3, 72120, Note_on_c, 0, 73, 0
3, 72120, Note_on_c, 0, 64, 0
3, 72120, Note_on_c, 0, 61, 65
3, 72120, Note_on_c, 0, 70, 65
3, 72240, Note_on_c, 0, 70, 0
3, 72240, Note_on_c, 0, 61, 0
3, 72240, Note_on_c, 0, 58, 65
3, 72240, Note_on_c, 0, 67, 65
3, 72360, Note_on_c, 0, 67, 0
3, 72360, Note_on_c, 0, 58, 0
3, 72360, Note_on_c, 0, 55, 65
3, 72360, Note_on_c, 0, 64, 65
3, 72480, Note_on_c, 0, 64, 0
3, 72480, Note_on_c, 0, 55, 0
3, 72480, Note_on_c, 0, 52, 65
3, 72480, Note_on_c, 0, 61, 65
3, 72600, Note_on_c, 0, 61, 0
3, 72600, Note_on_c, 0, 52, 0
3, 72600, Note_on_c, 0, 49, 65
3, 72600, Note_on_c, 0, 58, 65
3, 72720, Note_on_c, 0, 58, 0
3, 72720, Note_on_c, 0, 49, 0
3, 72720, Note_on_c, 0, 46, 65
3, 72720, Note_on_c, 0, 55, 65
3, 72840, Note_on_c, 0, 55, 0
3, 72840, Note_on_c, 0, 46, 0
3, 72840, Note_on_c, 0, 43, 78
3, 72840, Note_on_c, 0, 52, 78
3, 72960, Note_on_c, 0, 52, 0
3, 72960, Note_on_c, 0, 43, 0
3, 72960, Note_on_c, 0, 40, 78
3, 72960, Note_on_c, 0, 49, 78
3, 73080, Note_on_c, 0, 49, 0
3, 73080, Note_on_c, 0, 40, 0
3, 73080, Note_on_c, 0, 37, 78
3, 73080, Note_on_c, 0, 46, 78
3, 73200, Note_on_c, 0, 46, 0
3, 73200, Note_on_c, 0, 37, 0
3, 73200, Note_on_c, 0, 34, 78
3, 73200, Note_on_c, 0, 43, 78
3, 73320, Note_on_c, 0, 43, 0
3, 73320, Note_on_c, 0, 34, 0
3, 73320, Control_c, 0, 64, 0
3, 73320, Note_on_c, 0, 33, 104
3, 73320, Note_on_c, 0, 37, 104
3, 73800, Note_on_c, 0, 37, 0
3, 73800, Note_on_c, 0, 33, 0
3, 73800, Control_c, 0, 64, 127
3, 73800, Note_on_c, 0, 37, 78
3, 73839, Note_on_c, 0, 37, 0
3, 73839, Note_on_c, 0, 39, 78
3, 73880, Note_on_c, 0, 39, 0
3, 73880, Note_on_c, 0, 43, 78
3, 73920, Note_on_c, 0, 43, 0
3, 73920, Note_on_c, 0, 45, 78
3, 73959, Note_on_c, 0, 45, 0
3, 73959, Note_on_c, 0, 49, 78
3, 74000, Note_on_c, 0, 49, 0
3, 74000, Note_on_c, 0, 51, 78
3, 74040, Note_on_c, 0, 51, 0
3, 74040, Note_on_c, 0, 55, 78
3, 74079, Note_on_c, 0, 55, 0
3, 74079, Note_on_c, 0, 57, 78
3, 74120, Note_on_c, 0, 57, 0
3, 74120, Note_on_c, 0, 61, 78
3, 74160, Note_on_c, 0, 61, 0
3, 74160, Note_on_c, 0, 63, 78
3, 74199, Note_on_c, 0, 63, 0
3, 74199, Note_on_c, 0, 66, 78
3, 74240, Note_on_c, 0, 66, 0
3, 74240, Note_on_c, 0, 69, 78
3, 74280, Note_on_c, 0, 69, 0
3, 74280, Note_on_c, 0, 73, 78
3, 74319, Note_on_c, 0, 73, 0
3, 74319, Note_on_c, 0, 75, 78
3, 74360, Note_on_c, 0, 75, 0
3, 74360, Note_on_c, 0, 78, 78
3, 74400, Note_on_c, 0, 78, 0
3, 74400, Note_on_c, 0, 81, 78
3, 74439, Note_on_c, 0, 81, 0
3, 74439, Note_on_c, 0, 85, 78
3, 74480, Note_on_c, 0, 85, 0
3, 74480, Note_on_c, 0, 87, 78
3, 74520, Note_on_c, 0, 87, 0
3, 74520, Note_on_c, 0, 90, 78
3, 74580, Note_on_c, 0, 90, 0
3, 74580, Note_on_c, 0, 93, 78
3, 74640, Note_on_c, 0, 93, 0
3, 74640, Note_on_c, 0, 97, 78
3, 75120, Note_on_c, 0, 97, 0
3, 75120, Control_c, 0, 64, 0
3, 75120, Note_on_c, 0, 33, 104
3, 75120, Note_on_c, 0, 45, 104
3, 75360, Note_on_c, 0, 45, 0
3, 75360, Note_on_c, 0, 33, 0
3, 75360, Note_on_c, 0, 30, 104
3, 75360, Note_on_c, 0, 42, 104
3, 75600, Note_on_c, 0, 42, 0
3, 75600, Note_on_c, 0, 30, 0
3, 75600, Note_on_c, 0, 28, 104
3, 75600, Note_on_c, 0, 40, 104
3, 75840, Note_on_c, 0, 40, 0
3, 75840, Note_on_c, 0, 28, 0
3, 75840, Control_c, 0, 64, 127
3, 75840, Note_on_c, 0, 27, 78
3, 75840, Note_on_c, 0, 39, 78
3, 76080, Note_on_c, 0, 39, 0
3, 76080, Note_on_c, 0, 27, 0
3, 76320, Note_on_c, 0, 51, 78
3, 76320, Note_on_c, 0, 57, 78
3, 76320, Note_on_c, 0, 61, 78
3, 76320, Note_on_c, 0, 66, 78
3, 76560, Note_on_c, 0, 66, 0
3, 76560, Note_on_c, 0, 51, 0
3, 76560, Note_on_c, 0, 57, 0
3, 76560, Note_on_c, 0, 61, 0
3, 76560, Note_on_c, 0, 37, 78
3, 76560, Note_on_c, 0, 49, 78
3, 76800, Note_on_c, 0, 49, 0
3, 76800, Note_on_c, 0, 37, 0
3, 76800, Note_on_c, 0, 33, 78
3, 76800, Note_on_c, 0, 45, 78
3, 77040, Note_on_c, 0, 45, 0
3, 77040, Note_on_c, 0, 33, 0
3, 77040, Control_c, 0, 64, 0
3, 77040, Note_on_c, 0, 32, 78
3, 77040, Note_on_c, 0, 44, 78
3, 77280, Note_on_c, 0, 44, 0
3, 77280, Note_on_c, 0, 32, 0
3, 77280, Control_c, 0, 64, 127
3, 77280, Note_on_c, 0, 30, 78
3, 77280, Note_on_c, 0, 42, 78
3, 77520, Note_on_c, 0, 42, 0
3, 77520, Note_on_c, 0, 30, 0
3, 77760, Note_on_c, 0, 54, 78
3, 77760, Note_on_c, 0, 60, 78
3, 77760, Note_on_c, 0, 63, 78
3, 77760, Note_on_c, 0, 69, 78
3, 78000, Note_on_c, 0, 69, 0
3, 78000, Note_on_c, 0, 54, 0
3, 78000, Note_on_c, 0, 60, 0
3, 78000, Note_on_c, 0, 63, 0
3, 78000, Note_on_c, 0, 39, 78
3, 78000, Note_on_c, 0, 51, 78
3, 78240, Note_on_c, 0, 51, 0
3, 78240, Note_on_c, 0, 39, 0
3, 78240, Note_on_c, 0, 36, 78
3, 78240, Note_on_c, 0, 48, 78
3, 78480, Note_on_c, 0, 48, 0
3, 78480, Note_on_c, 0, 36, 0
3, 78480, Control_c, 0, 64, 0
3, 78480, Note_on_c, 0, 34, 78
3, 78480, Note_on_c, 0, 46, 78
3, 78720, Note_on_c, 0, 46, 0
3, 78720, Note_on_c, 0, 34, 0
3, 78720, Note_on_c, 0, 33, 78
3, 78720, Note_on_c, 0, 45, 78
3, 78960, Note_on_c, 0, 45, 0
3, 78960, Note_on_c, 0, 33, 0
3, 79920, Note_on_c, 0, 42, 78
3, 79920, Note_on_c, 0, 54, 78
3, 79967, Note_on_c, 0, 54, 0
3, 79967, Note_on_c, 0, 42, 0
3, 80160, Note_on_c, 0, 39, 78
3, 80160, Note_on_c, 0, 51, 78
3, 80207, Note_on_c, 0, 51, 0
3, 80207, Note_on_c, 0, 39, 0
3, 80400, Note_on_c, 0, 37, 78
3, 80400, Note_on_c, 0, 49, 78
3, 80447, Note_on_c, 0, 49, 0
3, 80447, Note_on_c, 0, 37, 0
3, 80640, Note_on_c, 0, 36, 78
3, 80640, Note_on_c, 0, 48, 78
3, 80687, Note_on_c, 0, 48, 0
3, 80687, Note_on_c, 0, 36, 0
3, 81840, Note_on_c, 0, 45, 78
3, 81840, Note_on_c, 0, 57, 78
3, 81887, Note_on_c, 0, 57, 0
3, 81887, Note_on_c, 0, 45, 0
3, 82080, Note_on_c, 0, 42, 78
3, 82080, Note_on_c, 0, 54, 78
3, 82127, Note_on_c, 0, 54, 0
3, 82127, Note_on_c, 0, 42, 0
3, 82320, Note_on_c, 0, 41, 78
3, 82320, Note_on_c, 0, 53, 78
3, 82367, Note_on_c, 0, 53, 0
3, 82367, Note_on_c, 0, 41, 0
3, 82560, Note_on_c, 0, 39, 78
3, 82560, Note_on_c, 0, 51, 78
3, 82607, Note_on_c, 0, 51, 0
3, 82607, Note_on_c, 0, 39, 0
3, 82980, Note_on_c, 0, 60, 78
3, 82980, Note_on_c, 0, 66, 78
3, 82980, Note_on_c, 0, 69, 78
3, 82980, Note_on_c, 0, 72, 78
3, 83040, Note_on_c, 0, 72, 0
3, 83040, Note_on_c, 0, 60, 0
3, 83040, Note_on_c, 0, 66, 0
3, 83040, Note_on_c, 0, 69, 0
3, 83040, Note_on_c, 0, 60, 78
3, 83040, Note_on_c, 0, 66, 78
3, 83040, Note_on_c, 0, 69, 78
3, 83040, Note_on_c, 0, 72, 78
3, 83520, Note_on_c, 0, 72, 0
3, 83520, Note_on_c, 0, 60, 0
3, 83520, Note_on_c, 0, 66, 0
3, 83520, Note_on_c, 0, 69, 0
3, 83760, Note_on_c, 0, 48, 78
3, 83807, Note_on_c, 0, 48, 0
3, 84000, Note_on_c, 0, 45, 78
3, 84047, Note_on_c, 0, 45, 0
3, 84240, Note_on_c, 0, 44, 78
3, 84287, Note_on_c, 0, 44, 0
3, 84480, Note_on_c, 0, 42, 78
3, 84576, Note_on_c, 0, 42, 0
3, 85680, Note_on_c, 0, 54, 78
3, 85727, Note_on_c, 0, 54, 0
3, 85920, Note_on_c, 0, 51, 78
3, 85967, Note_on_c, 0, 51, 0
3, 86160, Note_on_c, 0, 49, 78
3, 86207, Note_on_c, 0, 49, 0
3, 86400, Note_on_c, 0, 48, 78
3, 86496, Note_on_c, 0, 48, 0
3, 87600, Note_on_c, 0, 60, 78
3, 87647, Note_on_c, 0, 60, 0
3, 87840, Note_on_c, 0, 57, 78
3, 87887, Note_on_c, 0, 57, 0
3, 88080, Note_on_c, 0, 56, 78
3, 88127, Note_on_c, 0, 56, 0
3, 88320, Note_on_c, 0, 54, 78
3, 88416, Note_on_c, 0, 54, 0
3, 89520, Note_on_c, 0, 66, 65
3, 89760, Note_on_c, 0, 66, 0
3, 89760, Note_on_c, 0, 63, 65
3, 90000, Note_on_c, 0, 63, 0
3, 90000, Note_on_c, 0, 61, 65
3, 90240, Note_on_c, 0, 61, 0
3, 90240, Control_c, 0, 64, 127
3, 90240, Note_on_c, 0, 60, 65
3, 90480, Note_on_c, 0, 60, 0
3, 90480, Note_on_c, 0, 69, 65
3, 90720, Note_on_c, 0, 69, 0
3, 90720, Note_on_c, 0, 66, 65
3, 90960, Note_on_c, 0, 66, 0
3, 90960, Note_on_c, 0, 63, 65
3, 91200, Note_on_c, 0, 63, 0
3, 91200, Control_c, 0, 64, 0
3, 91200, Note_on_c, 0, 60, 65
3, 91440, Note_on_c, 0, 60, 0
3, 91440, Note_on_c, 0, 58, 65
3, 91680, Note_on_c, 0, 58, 0
3, 91680, Note_on_c, 0, 57, 65
3, 91920, Note_on_c, 0, 57, 0
3, 91920, Note_on_c, 0, 56, 65
3, 92160, Note_on_c, 0, 56, 0
3, 92160, Note_on_c, 0, 55, 65
3, 92400, Note_on_c, 0, 55, 0
3, 93120, Control_c, 0, 64, 127
3, 93120, Note_on_c, 0, 25, 65
3, 93120, Note_on_c, 0, 37, 65
3, 93300, Note_on_c, 0, 37, 0
3, 93300, Note_on_c, 0, 25, 0
3, 93300, Note_on_c, 0, 44, 65
3, 93300, Note_on_c, 0, 49, 65
3, 93300, Note_on_c, 0, 53, 65
3, 93300, Note_on_c, 0, 56, 65
3, 93360, Note_on_c, 0, 56, 0
3, 93360, Note_on_c, 0, 44, 0
3, 93360, Note_on_c, 0, 49, 0
3, 93360, Note_on_c, 0, 53, 0
3, 93360, Note_on_c, 0, 44, 65
3, 93360, Note_on_c, 0, 49, 65
3, 93360, Note_on_c, 0, 53, 65
3, 93360, Note_on_c, 0, 56, 65
3, 93540, Note_on_c, 0, 56, 0
3, 93540, Note_on_c, 0, 44, 0
3, 93540, Note_on_c, 0, 49, 0
3, 93540, Note_on_c, 0, 53, 0
3, 93540, Note_on_c, 0, 49, 65
3, 93540, Note_on_c, 0, 53, 65
3, 93540, Note_on_c, 0, 56, 65
3, 93540, Note_on_c, 0, 61, 65
3, 93600, Note_on_c, 0, 61, 0
3, 93600, Note_on_c, 0, 49, 0
3, 93600, Note_on_c, 0, 53, 0
3, 93600, Note_on_c, 0, 56, 0
3, 93600, Note_on_c, 0, 49, 65
3, 93600, Note_on_c, 0, 53, 65
3, 93600, Note_on_c, 0, 56, 65
3, 93600, Note_on_c, 0, 61, 65
3, 93780, Note_on_c, 0, 61, 0
3, 93780, Note_on_c, 0, 49, 0
3, 93780, Note_on_c, 0, 53, 0
3, 93780, Note_on_c, 0, 56, 0
3, 93780, Note_on_c, 0, 53, 65
3, 93780, Note_on_c, 0, 56, 65
3, 93780, Note_on_c, 0, 61, 65
3, 93780, Note_on_c, 0, 65, 65
3, 93840, Note_on_c, 0, 65, 0
3, 93840, Note_on_c, 0, 53, 0
3, 93840, Note_on_c, 0, 56, 0
3, 93840, Note_on_c, 0, 61, 0
3, 93840, Note_on_c, 0, 53, 65
3, 93840, Note_on_c, 0, 56, 65
3, 93840, Note_on_c, 0, 61, 65
3, 93840, Note_on_c, 0, 65, 65
3, 94020, Note_on_c, 0, 65, 0
3, 94020, Note_on_c, 0, 53, 0
3, 94020, Note_on_c, 0, 56, 0
3, 94020, Note_on_c, 0, 61, 0
3, 94020, Note_on_c, 0, 56, 65
3, 94020, Note_on_c, 0, 61, 65
3, 94020, Note_on_c, 0, 65, 65
3, 94020, Note_on_c, 0, 68, 65
3, 94080, Note_on_c, 0, 68, 0
3, 94080, Note_on_c, 0, 56, 0
3, 94080, Note_on_c, 0, 61, 0
3, 94080, Note_on_c, 0, 65, 0
3, 94080, Note_on_c, 0, 56, 65
3, 94080, Note_on_c, 0, 61, 65
3, 94080, Note_on_c, 0, 65, 65
3, 94080, Note_on_c, 0, 68, 65
3, 94260, Note_on_c, 0, 68, 0
3, 94260, Note_on_c, 0, 56, 0
3, 94260, Note_on_c, 0, 61, 0
3, 94260, Note_on_c, 0, 65, 0
3, 94260, Note_on_c, 0, 61, 65
3, 94260, Note_on_c, 0, 65, 65
3, 94260, Note_on_c, 0, 68, 65
3, 94260, Note_on_c, 0, 73, 65
3, 94320, Note_on_c, 0, 73, 0
3, 94320, Note_on_c, 0, 61, 0
3, 94320, Note_on_c, 0, 65, 0
3, 94320, Note_on_c, 0, 68, 0
3, 94320, Control_c, 0, 64, 0
3, 94320, Note_on_c, 0, 61, 65
3, 94320, Note_on_c, 0, 65, 65
3, 94320, Note_on_c, 0, 68, 65
3, 94320, Note_on_c, 0, 73, 65
3, 94560, Note_on_c, 0, 73, 0
3, 94560, Note_on_c, 0, 61, 0
3, 94560, Note_on_c, 0, 65, 0
3, 94560, Note_on_c, 0, 68, 0
3, 94560, Control_c, 0, 64, 127
3, 94560, Note_on_c, 0, 25, 78
3, 94560, Note_on_c, 0, 37, 78
3, 94740, Note_on_c, 0, 37, 0
3, 94740, Note_on_c, 0, 25, 0
3, 94740, Note_on_c, 0, 44, 78
3, 94740, Note_on_c, 0, 49, 78
3, 94740, Note_on_c, 0, 53, 78
3, 94740, Note_on_c, 0, 56, 78
3, 94800, Note_on_c, 0, 56, 0
3, 94800, Note_on_c, 0, 44, 0
3, 94800, Note_on_c, 0, 49, 0
3, 94800, Note_on_c, 0, 53, 0
3, 94800, Note_on_c, 0, 44, 78
3, 94800, Note_on_c, 0, 49, 78
3, 94800, Note_on_c, 0, 53, 78
3, 94800, Note_on_c, 0, 56, 78
3, 94980, Note_on_c, 0, 56, 0
3, 94980, Note_on_c, 0, 44, 0
3, 94980, Note_on_c, 0, 49, 0
3, 94980, Note_on_c, 0, 53, 0
3, 94980, Note_on_c, 0, 49, 78
3, 94980, Note_on_c, 0, 53, 78
3, 94980, Note_on_c, 0, 56, 78
3, 94980, Note_on_c, 0, 61, 78
3, 95040, Note_on_c, 0, 61, 0
3, 95040, Note_on_c, 0, 49, 0
3, 95040, Note_on_c, 0, 53, 0
3, 95040, Note_on_c, 0, 56, 0
3, 95040, Note_on_c, 0, 49, 78
3, 95040, Note_on_c, 0, 53, 78
3, 95040, Note_on_c, 0, 56, 78
3, 95040, Note_on_c, 0, 61, 78
3, 95220, Note_on_c, 0, 61, 0
3, 95220, Note_on_c, 0, 49, 0
3, 95220, Note_on_c, 0, 53, 0
3, 95220, Note_on_c, 0, 56, 0
3, 95220, Note_on_c, 0, 53, 78
3, 95220, Note_on_c, 0, 56, 78
3, 95220, Note_on_c, 0, 61, 78
3, 95220, Note_on_c, 0, 65, 78
3, 95280, Note_on_c, 0, 65, 0
3, 95280, Note_on_c, 0, 53, 0
3, 95280, Note_on_c, 0, 56, 0
3, 95280, Note_on_c, 0, 61, 0
3, 95280, Note_on_c, 0, 53, 78
3, 95280, Note_on_c, 0, 56, 78
3, 95280, Note_on_c, 0, 61, 78
3, 95280, Note_on_c, 0, 65, 78
3, 95460, Note_on_c, 0, 65, 0
3, 95460, Note_on_c, 0, 53, 0
3, 95460, Note_on_c, 0, 56, 0
3, 95460, Note_on_c, 0, 61, 0
3, 95460, Note_on_c, 0, 56, 78
3, 95460, Note_on_c, 0, 61, 78
3, 95460, Note_on_c, 0, 65, 78
3, 95460, Note_on_c, 0, 68, 78
3, 95520, Note_on_c, 0, 68, 0
3, 95520, Note_on_c, 0, 56, 0
3, 95520, Note_on_c, 0, 61, 0
3, 95520, Note_on_c, 0, 65, 0
3, 95520, Note_on_c, 0, 56, 78
3, 95520, Note_on_c, 0, 61, 78
3, 95520, Note_on_c, 0, 65, 78
3, 95520, Note_on_c, 0, 68, 78
3, 95700, Note_on_c, 0, 68, 0
3, 95700, Note_on_c, 0, 56, 0
3, 95700, Note_on_c, 0, 61, 0
3, 95700, Note_on_c, 0, 65, 0
3, 95700, Note_on_c, 0, 61, 78
3, 95700, Note_on_c, 0, 65, 78
3, 95700, Note_on_c, 0, 68, 78
3, 95700, Note_on_c, 0, 73, 78
3, 95760, Note_on_c, 0, 73, 0
3, 95760, Note_on_c, 0, 61, 0
3, 95760, Note_on_c, 0, 65, 0
3, 95760, Note_on_c, 0, 68, 0
3, 95760, Control_c, 0, 64, 0
3, 95760, Note_on_c, 0, 61, 78
3, 95760, Note_on_c, 0, 65, 78
3, 95760, Note_on_c, 0, 68, 78
3, 95760, Note_on_c, 0, 73, 78
3, 96000, Note_on_c, 0, 73, 0
3, 96000, Note_on_c, 0, 61, 0
3, 96000, Note_on_c, 0, 65, 0
3, 96000, Note_on_c, 0, 68, 0
3, 96000, Control_c, 0, 64, 127
3, 96000, Note_on_c, 0, 25, 78
3, 96000, Note_on_c, 0, 37, 78
3, 96180, Note_on_c, 0, 37, 0
3, 96180, Note_on_c, 0, 25, 0
3, 96180, Note_on_c, 0, 46, 78
3, 96180, Note_on_c, 0, 51, 78
3, 96180, Note_on_c, 0, 54, 78
3, 96180, Note_on_c, 0, 58, 78
3, 96240, Note_on_c, 0, 58, 0
3, 96240, Note_on_c, 0, 46, 0
3, 96240, Note_on_c, 0, 51, 0
3, 96240, Note_on_c, 0, 54, 0
3, 96240, Note_on_c, 0, 46, 78
3, 96240, Note_on_c, 0, 51, 78
3, 96240, Note_on_c, 0, 54, 78
3, 96240, Note_on_c, 0, 58, 78
3, 96420, Note_on_c, 0, 58, 0
3, 96420, Note_on_c, 0, 46, 0
3, 96420, Note_on_c, 0, 51, 0
3, 96420, Note_on_c, 0, 54, 0
3, 96420, Note_on_c, 0, 51, 78
3, 96420, Note_on_c, 0, 54, 78
3, 96420, Note_on_c, 0, 58, 78
3, 96420, Note_on_c, 0, 63, 78
3, 96480, Note_on_c, 0, 63, 0
3, 96480, Note_on_c, 0, 51, 0
3, 96480, Note_on_c, 0, 54, 0
3, 96480, Note_on_c, 0, 58, 0
3, 96480, Note_on_c, 0, 51, 78
3, 96480, Note_on_c, 0, 54, 78
3, 96480, Note_on_c, 0, 58, 78
3, 96480, Note_on_c, 0, 63, 78
3, 96660, Note_on_c, 0, 63, 0
3, 96660, Note_on_c, 0, 51, 0
3, 96660, Note_on_c, 0, 54, 0
3, 96660, Note_on_c, 0, 58, 0
3, 96660, Note_on_c, 0, 54, 78
3, 96660, Note_on_c, 0, 58, 78
3, 96660, Note_on_c, 0, 63, 78
3, 96660, Note_on_c, 0, 66, 78
3, 96720, Note_on_c, 0, 66, 0
3, 96720, Note_on_c, 0, 54, 0
3, 96720, Note_on_c, 0, 58, 0
3, 96720, Note_on_c, 0, 63, 0
3, 96720, Note_on_c, 0, 54, 78
3, 96720, Note_on_c, 0, 58, 78
3, 96720, Note_on_c, 0, 63, 78
3, 96720, Note_on_c, 0, 66, 78
3, 96900, Note_on_c, 0, 66, 0
3, 96900, Note_on_c, 0, 54, 0
3, 96900, Note_on_c, 0, 58, 0
3, 96900, Note_on_c, 0, 63, 0
3, 96900, Note_on_c, 0, 58, 78
3, 96900, Note_on_c, 0, 63, 78
3, 96900, Note_on_c, 0, 66, 78
3, 96900, Note_on_c, 0, 70, 78
3, 96960, Note_on_c, 0, 70, 0
3, 96960, Note_on_c, 0, 58, 0
3, 96960, Note_on_c, 0, 63, 0
3, 96960, Note_on_c, 0, 66, 0
3, 96960, Note_on_c, 0, 58, 78
3, 96960, Note_on_c, 0, 63, 78
3, 96960, Note_on_c, 0, 66, 78
3, 96960, Note_on_c, 0, 70, 78
3, 97140, Note_on_c, 0, 70, 0
3, 97140, Note_on_c, 0, 58, 0
3, 97140, Note_on_c, 0, 63, 0
3, 97140, Note_on_c, 0, 66, 0
3, 97140, Note_on_c, 0, 63, 78
3, 97140, Note_on_c, 0, 66, 78
3, 97140, Note_on_c, 0, 70, 78
3, 97140, Note_on_c, 0, 75, 78
3, 97200, Note_on_c, 0, 75, 0
3, 97200, Note_on_c, 0, 63, 0
3, 97200, Note_on_c, 0, 66, 0
3, 97200, Note_on_c, 0, 70, 0
3, 97200, Control_c, 0, 64, 0
3, 97200, Note_on_c, 0, 63, 78
3, 97200, Note_on_c, 0, 66, 78
3, 97200, Note_on_c, 0, 70, 78
3, 97200, Note_on_c, 0, 75, 78
3, 97440, Note_on_c, 0, 75, 0
3, 97440, Note_on_c, 0, 63, 0
3, 97440, Note_on_c, 0, 66, 0
3, 97440, Note_on_c, 0, 70, 0
3, 97440, Control_c, 0, 64, 127
3, 97440, Note_on_c, 0, 25, 78
3, 97440, Note_on_c, 0, 37, 78
3, 97620, Note_on_c, 0, 37, 0
3, 97620, Note_on_c, 0, 25, 0
3, 97620, Note_on_c, 0, 46, 78
3, 97620, Note_on_c, 0, 51, 78
3, 97620, Note_on_c, 0, 54, 78
3, 97620, Note_on_c, 0, 58, 78
3, 97680, Note_on_c, 0, 58, 0
3, 97680, Note_on_c, 0, 46, 0
3, 97680, Note_on_c, 0, 51, 0
3, 97680, Note_on_c, 0, 54, 0
3, 97680, Note_on_c, 0, 46, 78
3, 97680, Note_on_c, 0, 51, 78
3, 97680, Note_on_c, 0, 54, 78
3, 97680, Note_on_c, 0, 58, 78
3, 97860, Note_on_c, 0, 58, 0
3, 97860, Note_on_c, 0, 46, 0
3, 97860, Note_on_c, 0, 51, 0
3, 97860, Note_on_c, 0, 54, 0
3, 97860, Note_on_c, 0, 51, 78
3, 97860, Note_on_c, 0, 54, 78
3, 97860, Note_on_c, 0, 58, 78
3, 97860, Note_on_c, 0, 63, 78
3, 97920, Note_on_c, 0, 63, 0
3, 97920, Note_on_c, 0, 51, 0
3, 97920, Note_on_c, 0, 54, 0
3, 97920, Note_on_c, 0, 58, 0
3, 97920, Note_on_c, 0, 51, 78
3, 97920, Note_on_c, 0, 54, 78
3, 97920, Note_on_c, 0, 58, 78
3, 97920, Note_on_c, 0, 63, 78
3, 98100, Note_on_c, 0, 63, 0
3, 98100, Note_on_c, 0, 51, 0
3, 98100, Note_on_c, 0, 54, 0
3, 98100, Note_on_c, 0, 58, 0
3, 98100, Note_on_c, 0, 54, 78
3, 98100, Note_on_c, 0, 58, 78
3, 98100, Note_on_c, 0, 63, 78
3, 98100, Note_on_c, 0, 66, 78
3, 98160, Note_on_c, 0, 66, 0
3, 98160, Note_on_c, 0, 54, 0
3, 98160, Note_on_c, 0, 58, 0
3, 98160, Note_on_c, 0, 63, 0
3, 98160, Note_on_c, 0, 54, 78
3, 98160, Note_on_c, 0, 58, 78
3, 98160, Note_on_c, 0, 63, 78
3, 98160, Note_on_c, 0, 66, 78
3, 98340, Note_on_c, 0, 66, 0
3, 98340, Note_on_c, 0, 54, 0
3, 98340, Note_on_c, 0, 58, 0
3, 98340, Note_on_c, 0, 63, 0
3, 98340, Note_on_c, 0, 58, 78
3, 98340, Note_on_c, 0, 63, 78
3, 98340, Note_on_c, 0, 66, 78
3, 98340, Note_on_c, 0, 70, 78
3, 98400, Note_on_c, 0, 70, 0
3, 98400, Note_on_c, 0, 58, 0
3, 98400, Note_on_c, 0, 63, 0
3, 98400, Note_on_c, 0, 66, 0
3, 98400, Note_on_c, 0, 58, 78
3, 98400, Note_on_c, 0, 63, 78
3, 98400, Note_on_c, 0, 66, 78
3, 98400, Note_on_c, 0, 70, 78
3, 98580, Note_on_c, 0, 70, 0
3, 98580, Note_on_c, 0, 58, 0
3, 98580, Note_on_c, 0, 63, 0
3, 98580, Note_on_c, 0, 66, 0
3, 98580, Note_on_c, 0, 63, 78
3, 98580, Note_on_c, 0, 66, 78
3, 98580, Note_on_c, 0, 70, 78
3, 98580, Note_on_c, 0, 75, 78
3, 98640, Note_on_c, 0, 75, 0
3, 98640, Note_on_c, 0, 63, 0
3, 98640, Note_on_c, 0, 66, 0
3, 98640, Note_on_c, 0, 70, 0
3, 98640, Control_c, 0, 64, 0
3, 98640, Note_on_c, 0, 63, 78
3, 98640, Note_on_c, 0, 66, 78
3, 98640, Note_on_c, 0, 70, 78
3, 98640, Note_on_c, 0, 75, 78
3, 98880, Note_on_c, 0, 75, 0
3, 98880, Note_on_c, 0, 63, 0
3, 98880, Note_on_c, 0, 66, 0
3, 98880, Note_on_c, 0, 70, 0
3, 98880, Control_c, 0, 64, 127
3, 98880, Note_on_c, 0, 25, 78
3, 98880, Note_on_c, 0, 37, 78
3, 99060, Note_on_c, 0, 37, 0
3, 99060, Note_on_c, 0, 25, 0
3, 99060, Note_on_c, 0, 51, 78
3, 99060, Note_on_c, 0, 56, 78
3, 99060, Note_on_c, 0, 60, 78
3, 99120, Note_on_c, 0, 60, 0
3, 99120, Note_on_c, 0, 56, 0
3, 99120, Note_on_c, 0, 51, 0
3, 99120, Note_on_c, 0, 51, 78
3, 99120, Note_on_c, 0, 56, 78
3, 99120, Note_on_c, 0, 60, 78
3, 99300, Note_on_c, 0, 60, 0
3, 99300, Note_on_c, 0, 56, 0
3, 99300, Note_on_c, 0, 51, 0
3, 99300, Note_on_c, 0, 51, 78
3, 99300, Note_on_c, 0, 56, 78
3, 99300, Note_on_c, 0, 60, 78
3, 99300, Note_on_c, 0, 63, 78
3, 99360, Note_on_c, 0, 63, 0
3, 99360, Note_on_c, 0, 51, 0
3, 99360, Note_on_c, 0, 56, 0
3, 99360, Note_on_c, 0, 60, 0
3, 99360, Note_on_c, 0, 51, 78
3, 99360, Note_on_c, 0, 56, 78
3, 99360, Note_on_c, 0, 60, 78
3, 99360, Note_on_c, 0, 63, 78
3, 99540, Note_on_c, 0, 63, 0
3, 99540, Note_on_c, 0, 51, 0
3, 99540, Note_on_c, 0, 56, 0
3, 99540, Note_on_c, 0, 60, 0
3, 99540, Note_on_c, 0, 56, 78
3, 99540, Note_on_c, 0, 60, 78
3, 99540, Note_on_c, 0, 63, 78
3, 99540, Note_on_c, 0, 68, 78
3, 99600, Note_on_c, 0, 68, 0
3, 99600, Note_on_c, 0, 56, 0
3, 99600, Note_on_c, 0, 60, 0
3, 99600, Note_on_c, 0, 63, 0
3, 99600, Note_on_c, 0, 56, 78
3, 99600, Note_on_c, 0, 60, 78
3, 99600, Note_on_c, 0, 63, 78
3, 99600, Note_on_c, 0, 68, 78
3, 99780, Note_on_c, 0, 68, 0
3, 99780, Note_on_c, 0, 56, 0
3, 99780, Note_on_c, 0, 60, 0
3, 99780, Note_on_c, 0, 63, 0
3, 99780, Note_on_c, 0, 60, 78
3, 99780, Note_on_c, 0, 63, 78
3, 99780, Note_on_c, 0, 68, 78
3, 99780, Note_on_c, 0, 72, 78
3, 99840, Note_on_c, 0, 72, 0
3, 99840, Note_on_c, 0, 60, 0
3, 99840, Note_on_c, 0, 63, 0
3, 99840, Note_on_c, 0, 68, 0
3, 99840, Note_on_c, 0, 60, 78
3, 99840, Note_on_c, 0, 63, 78
3, 99840, Note_on_c, 0, 68, 78
3, 99840, Note_on_c, 0, 72, 78
3, 100020, Note_on_c, 0, 72, 0
3, 100020, Note_on_c, 0, 60, 0
3, 100020, Note_on_c, 0, 63, 0
3, 100020, Note_on_c, 0, 68, 0
3, 100020, Note_on_c, 0, 63, 78
3, 100020, Note_on_c, 0, 68, 78
3, 100020, Note_on_c, 0, 72, 78
3, 100020, Note_on_c, 0, 75, 78
3, 100080, Note_on_c, 0, 75, 0
3, 100080, Note_on_c, 0, 63, 0
3, 100080, Note_on_c, 0, 68, 0
3, 100080, Note_on_c, 0, 72, 0
3, 100080, Control_c, 0, 64, 0
3, 100080, Note_on_c, 0, 63, 78
3, 100080, Note_on_c, 0, 68, 78
3, 100080, Note_on_c, 0, 72, 78
3, 100080, Note_on_c, 0, 75, 78
3, 100320, Note_on_c, 0, 75, 0
3, 100320, Note_on_c, 0, 63, 0
3, 100320, Note_on_c, 0, 68, 0
3, 100320, Note_on_c, 0, 72, 0
3, 100320, Control_c, 0, 64, 127
3, 100320, Note_on_c, 0, 25, 78
3, 100320, Note_on_c, 0, 37, 78
3, 100500, Note_on_c, 0, 37, 0
3, 100500, Note_on_c, 0, 25, 0
3, 100500, Note_on_c, 0, 51, 78
3, 100500, Note_on_c, 0, 56, 78
3, 100500, Note_on_c, 0, 60, 78
3, 100560, Note_on_c, 0, 60, 0
3, 100560, Note_on_c, 0, 56, 0
3, 100560, Note_on_c, 0, 51, 0
3, 100560, Note_on_c, 0, 51, 78
3, 100560, Note_on_c, 0, 56, 78
3, 100560, Note_on_c, 0, 60, 78
3, 100740, Note_on_c, 0, 60, 0
3, 100740, Note_on_c, 0, 56, 0
3, 100740, Note_on_c, 0, 51, 0
3, 100740, Note_on_c, 0, 51, 78
3, 100740, Note_on_c, 0, 56, 78
3, 100740, Note_on_c, 0, 60, 78
3, 100740, Note_on_c, 0, 63, 78
3, 100800, Note_on_c, 0, 63, 0
3, 100800, Note_on_c, 0, 51, 0
3, 100800, Note_on_c, 0, 56, 0
3, 100800, Note_on_c, 0, 60, 0
3, 100800, Note_on_c, 0, 51, 78
3, 100800, Note_on_c, 0, 56, 78
3, 100800, Note_on_c, 0, 60, 78
3, 100800, Note_on_c, 0, 63, 78
3, 100980, Note_on_c, 0, 63, 0
3, 100980, Note_on_c, 0, 51, 0
3, 100980, Note_on_c, 0, 56, 0
3, 100980, Note_on_c, 0, 60, 0
3, 100980, Note_on_c, 0, 56, 78
3, 100980, Note_on_c, 0, 60, 78
3, 100980, Note_on_c, 0, 63, 78
3, 100980, Note_on_c, 0, 68, 78
3, 101040, Note_on_c, 0, 68, 0
3, 101040, Note_on_c, 0, 56, 0
3, 101040, Note_on_c, 0, 60, 0
3, 101040, Note_on_c, 0, 63, 0
3, 101040, Note_on_c, 0, 56, 78
3, 101040, Note_on_c, 0, 60, 78
3, 101040, Note_on_c, 0, 63, 78
3, 101040, Note_on_c, 0, 68, 78
3, 101220, Note_on_c, 0, 68, 0
3, 101220, Note_on_c, 0, 56, 0
3, 101220, Note_on_c, 0, 60, 0
3, 101220, Note_on_c, 0, 63, 0
3, 101220, Note_on_c, 0, 60, 78
3, 101220, Note_on_c, 0, 63, 78
3, 101220, Note_on_c, 0, 68, 78
3, 101220, Note_on_c, 0, 72, 78
3, 101280, Note_on_c, 0, 72, 0
3, 101280, Note_on_c, 0, 60, 0
3, 101280, Note_on_c, 0, 63, 0
3, 101280, Note_on_c, 0, 68, 0
3, 101280, Note_on_c, 0, 60, 78
3, 101280, Note_on_c, 0, 63, 78
3, 101280, Note_on_c, 0, 68, 78
3, 101280, Note_on_c, 0, 72, 78
3, 101460, Note_on_c, 0, 72, 0
3, 101460, Note_on_c, 0, 60, 0
3, 101460, Note_on_c, 0, 63, 0
3, 101460, Note_on_c, 0, 68, 0
3, 101460, Note_on_c, 0, 63, 78
3, 101460, Note_on_c, 0, 68, 78
3, 101460, Note_on_c, 0, 72, 78
3, 101460, Note_on_c, 0, 75, 78
3, 101520, Note_on_c, 0, 75, 0
3, 101520, Note_on_c, 0, 63, 0
3, 101520, Note_on_c, 0, 68, 0
3, 101520, Note_on_c, 0, 72, 0
3, 101520, Control_c, 0, 64, 0
3, 101520, Note_on_c, 0, 63, 78
3, 101520, Note_on_c, 0, 68, 78
3, 101520, Note_on_c, 0, 72, 78
3, 101520, Note_on_c, 0, 75, 78
3, 101760, Note_on_c, 0, 75, 0
3, 101760, Note_on_c, 0, 63, 0
3, 101760, Note_on_c, 0, 68, 0
3, 101760, Note_on_c, 0, 72, 0
3, 101760, Control_c, 0, 64, 127
3, 101760, Note_on_c, 0, 25, 78
3, 101760, Note_on_c, 0, 37, 78
3, 101940, Note_on_c, 0, 37, 0
3, 101940, Note_on_c, 0, 25, 0
3, 101940, Note_on_c, 0, 49, 78
3, 101940, Note_on_c, 0, 53, 78
3, 101940, Note_on_c, 0, 56, 78
3, 101940, Note_on_c, 0, 61, 78
3, 102000, Note_on_c, 0, 61, 0
3, 102000, Note_on_c, 0, 49, 0
3, 102000, Note_on_c, 0, 53, 0
3, 102000, Note_on_c, 0, 56, 0
3, 102000, Note_on_c, 0, 49, 78
3, 102000, Note_on_c, 0, 53, 78
3, 102000, Note_on_c, 0, 56, 78
3, 102000, Note_on_c, 0, 61, 78
3, 102180, Note_on_c, 0, 61, 0
3, 102180, Note_on_c, 0, 49, 0
3, 102180, Note_on_c, 0, 53, 0
3, 102180, Note_on_c, 0, 56, 0
3, 102180, Note_on_c, 0, 53, 78
3, 102180, Note_on_c, 0, 56, 78
3, 102180, Note_on_c, 0, 61, 78
3, 102180, Note_on_c, 0, 65, 78
3, 102240, Note_on_c, 0, 65, 0
3, 102240, Note_on_c, 0, 53, 0
3, 102240, Note_on_c, 0, 56, 0
3, 102240, Note_on_c, 0, 61, 0
3, 102240, Note_on_c, 0, 53, 78
3, 102240, Note_on_c, 0, 56, 78
3, 102240, Note_on_c, 0, 61, 78
3, 102240, Note_on_c, 0, 65, 78
3, 102420, Note_on_c, 0, 65, 0
3, 102420, Note_on_c, 0, 53, 0
3, 102420, Note_on_c, 0, 56, 0
3, 102420, Note_on_c, 0, 61, 0
3, 102420, Note_on_c, 0, 56, 78
3, 102420, Note_on_c, 0, 61, 78
3, 102420, Note_on_c, 0, 65, 78
3, 102420, Note_on_c, 0, 68, 78
3, 102480, Note_on_c, 0, 68, 0
3, 102480, Note_on_c, 0, 56, 0
3, 102480, Note_on_c, 0, 61, 0
3, 102480, Note_on_c, 0, 65, 0
3, 102480, Note_on_c, 0, 56, 78
3, 102480, Note_on_c, 0, 61, 78
3, 102480, Note_on_c, 0, 65, 78
3, 102480, Note_on_c, 0, 68, 78
3, 102660, Note_on_c, 0, 68, 0
3, 102660, Note_on_c, 0, 56, 0
3, 102660, Note_on_c, 0, 61, 0
3, 102660, Note_on_c, 0, 65, 0
3, 102660, Note_on_c, 0, 61, 78
3, 102660, Note_on_c, 0, 65, 78
3, 102660, Note_on_c, 0, 68, 78
3, 102660, Note_on_c, 0, 73, 78
3, 102720, Note_on_c, 0, 73, 0
3, 102720, Note_on_c, 0, 61, 0
3, 102720, Note_on_c, 0, 65, 0
3, 102720, Note_on_c, 0, 68, 0
3, 102720, Note_on_c, 0, 61, 78
3, 102720, Note_on_c, 0, 65, 78
3, 102720, Note_on_c, 0, 68, 78
3, 102720, Note_on_c, 0, 73, 78
3, 102900, Note_on_c, 0, 73, 0
3, 102900, Note_on_c, 0, 61, 0
3, 102900, Note_on_c, 0, 65, 0
3, 102900, Note_on_c, 0, 68, 0
3, 102900, Note_on_c, 0, 65, 78
3, 102900, Note_on_c, 0, 68, 78
3, 102900, Note_on_c, 0, 73, 78
3, 102900, Note_on_c, 0, 77, 78
3, 102960, Note_on_c, 0, 77, 0
3, 102960, Note_on_c, 0, 65, 0
3, 102960, Note_on_c, 0, 68, 0
3, 102960, Note_on_c, 0, 73, 0
3, 102960, Control_c, 0, 64, 0
3, 102960, Note_on_c, 0, 65, 78
3, 102960, Note_on_c, 0, 68, 78
3, 102960, Note_on_c, 0, 73, 78
3, 102960, Note_on_c, 0, 77, 78
3, 103200, Note_on_c, 0, 77, 0
3, 103200, Note_on_c, 0, 65, 0
3, 103200, Note_on_c, 0, 68, 0
3, 103200, Note_on_c, 0, 73, 0
3, 103380, Control_c, 0, 64, 127
3, 103380, Note_on_c, 0, 63, 78
3, 103380, Note_on_c, 0, 68, 78
3, 103380, Note_on_c, 0, 72, 78
3, 103380, Note_on_c, 0, 75, 78
3, 103440, Note_on_c, 0, 75, 0
3, 103440, Note_on_c, 0, 63, 0
3, 103440, Note_on_c, 0, 68, 0
3, 103440, Note_on_c, 0, 72, 0
3, 103440, Note_on_c, 0, 63, 78
3, 103440, Note_on_c, 0, 68, 78
3, 103440, Note_on_c, 0, 72, 78
3, 103440, Note_on_c, 0, 75, 78
3, 103620, Note_on_c, 0, 75, 0
3, 103620, Note_on_c, 0, 63, 0
3, 103620, Note_on_c, 0, 68, 0
3, 103620, Note_on_c, 0, 72, 0
3, 103620, Note_on_c, 0, 60, 78
3, 103620, Note_on_c, 0, 63, 78
3, 103620, Note_on_c, 0, 68, 78
3, 103620, Note_on_c, 0, 72, 78
3, 103680, Note_on_c, 0, 72, 0
3, 103680, Note_on_c, 0, 60, 0
3, 103680, Note_on_c, 0, 63, 0
3, 103680, Note_on_c, 0, 68, 0
3, 103680, Note_on_c, 0, 60, 78
3, 103680, Note_on_c, 0, 63, 78
3, 103680, Note_on_c, 0, 68, 78
3, 103680, Note_on_c, 0, 72, 78
3, 103860, Note_on_c, 0, 72, 0
3, 103860, Note_on_c, 0, 60, 0
3, 103860, Note_on_c, 0, 63, 0
3, 103860, Note_on_c, 0, 68, 0
3, 103860, Note_on_c, 0, 56, 78
3, 103860, Note_on_c, 0, 60, 78
3, 103860, Note_on_c, 0, 63, 78
3, 103860, Note_on_c, 0, 68, 78
3, 103920, Note_on_c, 0, 68, 0
3, 103920, Note_on_c, 0, 56, 0
3, 103920, Note_on_c, 0, 60, 0
3, 103920, Note_on_c, 0, 63, 0
3, 103920, Note_on_c, 0, 56, 78
3, 103920, Note_on_c, 0, 60, 78
3, 103920, Note_on_c, 0, 63, 78
3, 103920, Note_on_c, 0, 68, 78
3, 104100, Note_on_c, 0, 68, 0
3, 104100, Note_on_c, 0, 56, 0
3, 104100, Note_on_c, 0, 60, 0
3, 104100, Note_on_c, 0, 63, 0
3, 104100, Note_on_c, 0, 51, 78
3, 104100, Note_on_c, 0, 56, 78
3, 104100, Note_on_c, 0, 60, 78
3, 104100, Note_on_c, 0, 63, 78
3, 104160, Note_on_c, 0, 63, 0
3, 104160, Note_on_c, 0, 51, 0
3, 104160, Note_on_c, 0, 56, 0
3, 104160, Note_on_c, 0, 60, 0
3, 104160, Note_on_c, 0, 51, 78
3, 104160, Note_on_c, 0, 56, 78
3, 104160, Note_on_c, 0, 60, 78
3, 104160, Note_on_c, 0, 63, 78
3, 104340, Note_on_c, 0, 63, 0
3, 104340, Note_on_c, 0, 51, 0
3, 104340, Note_on_c, 0, 56, 0
3, 104340, Note_on_c, 0, 60, 0
3, 104340, Note_on_c, 0, 48, 78
3, 104340, Note_on_c, 0, 51, 78
3, 104340, Note_on_c, 0, 56, 78
3, 104340, Note_on_c, 0, 60, 78
3, 104400, Note_on_c, 0, 60, 0
3, 104400, Note_on_c, 0, 48, 0
3, 104400, Note_on_c, 0, 51, 0
3, 104400, Note_on_c, 0, 56, 0
3, 104400, Control_c, 0, 64, 0
3, 104400, Note_on_c, 0, 48, 78
3, 104400, Note_on_c, 0, 51, 78
3, 104400, Note_on_c, 0, 56, 78
3, 104400, Note_on_c, 0, 60, 78
3, 104640, Note_on_c, 0, 60, 0
3, 104640, Note_on_c, 0, 48, 0
3, 104640, Note_on_c, 0, 51, 0
3, 104640, Note_on_c, 0, 56, 0
3, 104640, Control_c, 0, 64, 127
3, 104640, Note_on_c, 0, 25, 65
3, 104640, Note_on_c, 0, 37, 65
3, 104820, Note_on_c, 0, 37, 0
3, 104820, Note_on_c, 0, 25, 0
3, 104820, Note_on_c, 0, 44, 65
3, 104820, Note_on_c, 0, 49, 65
3, 104820, Note_on_c, 0, 53, 65
3, 104820, Note_on_c, 0, 56, 65
3, 104880, Note_on_c, 0, 56, 0
3, 104880, Note_on_c, 0, 44, 0
3, 104880, Note_on_c, 0, 49, 0
3, 104880, Note_on_c, 0, 53, 0
3, 104880, Note_on_c, 0, 44, 65
3, 104880, Note_on_c, 0, 49, 65
3, 104880, Note_on_c, 0, 53, 65
3, 104880, Note_on_c, 0, 56, 65
3, 105060, Note_on_c, 0, 56, 0
3, 105060, Note_on_c, 0, 44, 0
3, 105060, Note_on_c, 0, 49, 0
3, 105060, Note_on_c, 0, 53, 0
3, 105060, Note_on_c, 0, 49, 65
3, 105060, Note_on_c, 0, 53, 65
3, 105060, Note_on_c, 0, 56, 65
3, 105060, Note_on_c, 0, 61, 65
3, 105120, Note_on_c, 0, 61, 0
3, 105120, Note_on_c, 0, 49, 0
3, 105120, Note_on_c, 0, 53, 0
3, 105120, Note_on_c, 0, 56, 0
3, 105120, Note_on_c, 0, 49, 65
3, 105120, Note_on_c, 0, 53, 65
3, 105120, Note_on_c, 0, 56, 65
3, 105120, Note_on_c, 0, 61, 65
3, 105300, Note_on_c, 0, 61, 0
3, 105300, Note_on_c, 0, 49, 0
3, 105300, Note_on_c, 0, 53, 0
3, 105300, Note_on_c, 0, 56, 0
3, 105300, Note_on_c, 0, 53, 65
3, 105300, Note_on_c, 0, 56, 65
3, 105300, Note_on_c, 0, 61, 65
3, 105300, Note_on_c, 0, 65, 65
3, 105360, Note_on_c, 0, 65, 0
3, 105360, Note_on_c, 0, 53, 0
3, 105360, Note_on_c, 0, 56, 0
3, 105360, Note_on_c, 0, 61, 0
3, 105360, Note_on_c, 0, 53, 65
3, 105360, Note_on_c, 0, 56, 65
3, 105360, Note_on_c, 0, 61, 65
3, 105360, Note_on_c, 0, 65, 65
3, 105540, Note_on_c, 0, 65, 0
3, 105540, Note_on_c, 0, 53, 0
3, 105540, Note_on_c, 0, 56, 0
3, 105540, Note_on_c, 0, 61, 0
3, 105540, Note_on_c, 0, 56, 65
3, 105540, Note_on_c, 0, 61, 65
3, 105540, Note_on_c, 0, 65, 65
3, 105540, Note_on_c, 0, 68, 65
3, 105600, Note_on_c, 0, 68, 0
3, 105600, Note_on_c, 0, 56, 0
3, 105600, Note_on_c, 0, 61, 0
3, 105600, Note_on_c, 0, 65, 0
3, 105600, Note_on_c, 0, 56, 65
3, 105600, Note_on_c, 0, 61, 65
3, 105600, Note_on_c, 0, 65, 65
3, 105600, Note_on_c, 0, 68, 65
3, 105780, Note_on_c, 0, 68, 0
3, 105780, Note_on_c, 0, 56, 0
3, 105780, Note_on_c, 0, 61, 0
3, 105780, Note_on_c, 0, 65, 0
3, 105780, Note_on_c, 0, 61, 65
3, 105780, Note_on_c, 0, 65, 65
3, 105780, Note_on_c, 0, 68, 65
3, 105780, Note_on_c, 0, 73, 65
3, 105840, Note_on_c, 0, 73, 0
3, 105840, Note_on_c, 0, 61, 0
3, 105840, Note_on_c, 0, 65, 0
3, 105840, Note_on_c, 0, 68, 0
3, 105840, Control_c, 0, 64, 0
3, 105840, Note_on_c, 0, 61, 65
3, 105840, Note_on_c, 0, 65, 65
3, 105840, Note_on_c, 0, 68, 65
3, 105840, Note_on_c, 0, 73, 65
3, 106080, Note_on_c, 0, 73, 0
3, 106080, Note_on_c, 0, 61, 0
3, 106080, Note_on_c, 0, 65, 0
3, 106080, Note_on_c, 0, 68, 0
3, 106080, Control_c, 0, 64, 127
3, 106080, Note_on_c, 0, 25, 78
3, 106080, Note_on_c, 0, 37, 78
3, 106260, Note_on_c, 0, 37, 0
3, 106260, Note_on_c, 0, 25, 0
3, 106260, Note_on_c, 0, 44, 78
3, 106260, Note_on_c, 0, 49, 78
3, 106260, Note_on_c, 0, 53, 78
3, 106260, Note_on_c, 0, 56, 78
3, 106320, Note_on_c, 0, 56, 0
3, 106320, Note_on_c, 0, 44, 0
3, 106320, Note_on_c, 0, 49, 0
3, 106320, Note_on_c, 0, 53, 0
3, 106320, Note_on_c, 0, 44, 78
3, 106320, Note_on_c, 0, 49, 78
3, 106320, Note_on_c, 0, 53, 78
3, 106320, Note_on_c, 0, 56, 78
3, 106500, Note_on_c, 0, 56, 0
3, 106500, Note_on_c, 0, 44, 0
3, 106500, Note_on_c, 0, 49, 0
3, 106500, Note_on_c, 0, 53, 0
3, 106500, Note_on_c, 0, 49, 78
3, 106500, Note_on_c, 0, 53, 78
3, 106500, Note_on_c, 0, 56, 78
3, 106500, Note_on_c, 0, 61, 78
3, 106560, Note_on_c, 0, 61, 0
3, 106560, Note_on_c, 0, 49, 0
3, 106560, Note_on_c, 0, 53, 0
3, 106560, Note_on_c, 0, 56, 0
3, 106560, Note_on_c, 0, 49, 78
3, 106560, Note_on_c, 0, 53, 78
3, 106560, Note_on_c, 0, 56, 78
3, 106560, Note_on_c, 0, 61, 78
3, 106740, Note_on_c, 0, 61, 0
3, 106740, Note_on_c, 0, 49, 0
3, 106740, Note_on_c, 0, 53, 0
3, 106740, Note_on_c, 0, 56, 0
3, 106740, Note_on_c, 0, 53, 78
3, 106740, Note_on_c, 0, 56, 78
3, 106740, Note_on_c, 0, 61, 78
3, 106740, Note_on_c, 0, 65, 78
3, 106800, Note_on_c, 0, 65, 0
3, 106800, Note_on_c, 0, 53, 0
3, 106800, Note_on_c, 0, 56, 0
3, 106800, Note_on_c, 0, 61, 0
3, 106800, Note_on_c, 0, 53, 78
3, 106800, Note_on_c, 0, 56, 78
3, 106800, Note_on_c, 0, 61, 78
3, 106800, Note_on_c, 0, 65, 78
3, 106980, Note_on_c, 0, 65, 0
3, 106980, Note_on_c, 0, 53, 0
3, 106980, Note_on_c, 0, 56, 0
3, 106980, Note_on_c, 0, 61, 0
3, 106980, Note_on_c, 0, 56, 78
3, 106980, Note_on_c, 0, 61, 78
3, 106980, Note_on_c, 0, 65, 78
3, 106980, Note_on_c, 0, 68, 78
3, 107040, Note_on_c, 0, 68, 0
3, 107040, Note_on_c, 0, 56, 0
3, 107040, Note_on_c, 0, 61, 0
3, 107040, Note_on_c, 0, 65, 0
3, 107040, Note_on_c, 0, 56, 78
3, 107040, Note_on_c, 0, 61, 78
3, 107040, Note_on_c, 0, 65, 78
3, 107040, Note_on_c, 0, 68, 78
3, 107220, Note_on_c, 0, 68, 0
3, 107220, Note_on_c, 0, 56, 0
3, 107220, Note_on_c, 0, 61, 0
3, 107220, Note_on_c, 0, 65, 0
3, 107220, Note_on_c, 0, 61, 78
3, 107220, Note_on_c, 0, 65, 78
3, 107220, Note_on_c, 0, 68, 78
3, 107220, Note_on_c, 0, 73, 78
3, 107280, Note_on_c, 0, 73, 0
3, 107280, Note_on_c, 0, 61, 0
3, 107280, Note_on_c, 0, 65, 0
3, 107280, Note_on_c, 0, 68, 0
3, 107280, Control_c, 0, 64, 0
3, 107280, Note_on_c, 0, 61, 78
3, 107280, Note_on_c, 0, 65, 78
3, 107280, Note_on_c, 0, 68, 78
3, 107280, Note_on_c, 0, 73, 78
3, 107520, Note_on_c, 0, 73, 0
3, 107520, Note_on_c, 0, 61, 0
3, 107520, Note_on_c, 0, 65, 0
3, 107520, Note_on_c, 0, 68, 0
3, 107520, Control_c, 0, 64, 127
3, 107520, Note_on_c, 0, 30, 78
3, 107520, Note_on_c, 0, 42, 78
3, 107700, Note_on_c, 0, 42, 0
3, 107700, Note_on_c, 0, 30, 0
3, 107700, Note_on_c, 0, 49, 78
3, 107700, Note_on_c, 0, 51, 78
3, 107700, Note_on_c, 0, 54, 78
3, 107700, Note_on_c, 0, 58, 78
3, 107760, Note_on_c, 0, 58, 0
3, 107760, Note_on_c, 0, 49, 0
3, 107760, Note_on_c, 0, 51, 0
3, 107760, Note_on_c, 0, 54, 0
3, 107760, Note_on_c, 0, 49, 78
3, 107760, Note_on_c, 0, 51, 78
3, 107760, Note_on_c, 0, 54, 78
3, 107760, Note_on_c, 0, 58, 78
3, 107940, Note_on_c, 0, 58, 0
3, 107940, Note_on_c, 0, 49, 0
3, 107940, Note_on_c, 0, 51, 0
3, 107940, Note_on_c, 0, 54, 0
3, 107940, Note_on_c, 0, 51, 78
3, 107940, Note_on_c, 0, 54, 78
3, 107940, Note_on_c, 0, 58, 78
3, 107940, Note_on_c, 0, 61, 78
3, 108000, Note_on_c, 0, 61, 0
3, 108000, Note_on_c, 0, 51, 0
3, 108000, Note_on_c, 0, 54, 0
3, 108000, Note_on_c, 0, 58, 0
3, 108000, Note_on_c, 0, 51, 78
3, 108000, Note_on_c, 0, 54, 78
3, 108000, Note_on_c, 0, 58, 78
3, 108000, Note_on_c, 0, 61, 78
3, 108180, Note_on_c, 0, 61, 0
3, 108180, Note_on_c, 0, 51, 0
3, 108180, Note_on_c, 0, 54, 0
3, 108180, Note_on_c, 0, 58, 0
3, 108180, Note_on_c, 0, 54, 78
3, 108180, Note_on_c, 0, 58, 78
3, 108180, Note_on_c, 0, 61, 78
3, 108180, Note_on_c, 0, 63, 78
3, 108240, Note_on_c, 0, 63, 0
3, 108240, Note_on_c, 0, 54, 0
3, 108240, Note_on_c, 0, 58, 0
3, 108240, Note_on_c, 0, 61, 0
3, 108240, Note_on_c, 0, 54, 78
3, 108240, Note_on_c, 0, 58, 78
3, 108240, Note_on_c, 0, 61, 78
3, 108240, Note_on_c, 0, 63, 78
3, 108420, Note_on_c, 0, 63, 0
3, 108420, Note_on_c, 0, 54, 0
3, 108420, Note_on_c, 0, 58, 0
3, 108420, Note_on_c, 0, 61, 0
3, 108420, Note_on_c, 0, 61, 78
3, 108420, Note_on_c, 0, 63, 78
3, 108420, Note_on_c, 0, 66, 78
3, 108420, Note_on_c, 0, 70, 78
3, 108480, Note_on_c, 0, 70, 0
3, 108480, Note_on_c, 0, 61, 0
3, 108480, Note_on_c, 0, 63, 0
3, 108480, Note_on_c, 0, 66, 0
3, 108480, Note_on_c, 0, 61, 78
3, 108480, Note_on_c, 0, 63, 78
3, 108480, Note_on_c, 0, 66, 78
3, 108480, Note_on_c, 0, 70, 78
3, 108660, Note_on_c, 0, 70, 0
3, 108660, Note_on_c, 0, 61, 0
3, 108660, Note_on_c, 0, 63, 0
3, 108660, Note_on_c, 0, 66, 0
3, 108660, Note_on_c, 0, 63, 78
3, 108660, Note_on_c, 0, 66, 78
3, 108660, Note_on_c, 0, 70, 78
3, 108660, Note_on_c, 0, 73, 78
3, 108720, Note_on_c, 0, 73, 0
3, 108720, Note_on_c, 0, 63, 0
3, 108720, Note_on_c, 0, 66, 0
3, 108720, Note_on_c, 0, 70, 0
3, 108720, Control_c, 0, 64, 0
3, 108720, Note_on_c, 0, 63, 78
3, 108720, Note_on_c, 0, 66, 78
3, 108720, Note_on_c, 0, 70, 78
3, 108720, Note_on_c, 0, 73, 78
3, 108960, Note_on_c, 0, 73, 0
3, 108960, Note_on_c, 0, 63, 0
3, 108960, Note_on_c, 0, 66, 0
3, 108960, Note_on_c, 0, 70, 0
3, 108960, Control_c, 0, 64, 127
3, 108960, Note_on_c, 0, 27, 78
3, 108960, Note_on_c, 0, 39, 78
3, 109140, Note_on_c, 0, 39, 0
3, 109140, Note_on_c, 0, 27, 0
3, 109140, Note_on_c, 0, 48, 78
3, 109140, Note_on_c, 0, 51, 78
3, 109140, Note_on_c, 0, 54, 78
3, 109140, Note_on_c, 0, 58, 78
3, 109200, Note_on_c, 0, 58, 0
3, 109200, Note_on_c, 0, 48, 0
3, 109200, Note_on_c, 0, 51, 0
3, 109200, Note_on_c, 0, 54, 0
3, 109200, Note_on_c, 0, 48, 78
3, 109200, Note_on_c, 0, 51, 78
3, 109200, Note_on_c, 0, 54, 78
3, 109200, Note_on_c, 0, 58, 78
3, 109380, Note_on_c, 0, 58, 0
3, 109380, Note_on_c, 0, 48, 0
3, 109380, Note_on_c, 0, 51, 0
3, 109380, Note_on_c, 0, 54, 0
3, 109380, Note_on_c, 0, 51, 78
3, 109380, Note_on_c, 0, 54, 78
3, 109380, Note_on_c, 0, 58, 78
3, 109380, Note_on_c, 0, 60, 78
3, 109440, Note_on_c, 0, 60, 0
3, 109440, Note_on_c, 0, 51, 0
3, 109440, Note_on_c, 0, 54, 0
3, 109440, Note_on_c, 0, 58, 0
3, 109440, Note_on_c, 0, 51, 78
3, 109440, Note_on_c, 0, 54, 78
3, 109440, Note_on_c, 0, 58, 78
3, 109440, Note_on_c, 0, 60, 78
3, 109620, Note_on_c, 0, 60, 0
3, 109620, Note_on_c, 0, 51, 0
3, 109620, Note_on_c, 0, 54, 0
3, 109620, Note_on_c, 0, 58, 0
3, 109620, Note_on_c, 0, 58, 78
3, 109620, Note_on_c, 0, 60, 78
3, 109620, Note_on_c, 0, 63, 78
3, 109620, Note_on_c, 0, 66, 78
3, 109680, Note_on_c, 0, 66, 0
3, 109680, Note_on_c, 0, 58, 0
3, 109680, Note_on_c, 0, 60, 0
3, 109680, Note_on_c, 0, 63, 0
3, 109680, Note_on_c, 0, 58, 78
3, 109680, Note_on_c, 0, 60, 78
3, 109680, Note_on_c, 0, 63, 78
3, 109680, Note_on_c, 0, 66, 78
3, 109860, Note_on_c, 0, 66, 0
3, 109860, Note_on_c, 0, 58, 0
3, 109860, Note_on_c, 0, 60, 0
3, 109860, Note_on_c, 0, 63, 0
3, 109860, Note_on_c, 0, 60, 78
3, 109860, Note_on_c, 0, 63, 78
3, 109860, Note_on_c, 0, 66, 78
3, 109860, Note_on_c, 0, 70, 78
3, 109920, Note_on_c, 0, 70, 0
3, 109920, Note_on_c, 0, 60, 0
3, 109920, Note_on_c, 0, 63, 0
3, 109920, Note_on_c, 0, 66, 0
3, 109920, Note_on_c, 0, 60, 78
3, 109920, Note_on_c, 0, 63, 78
3, 109920, Note_on_c, 0, 66, 78
3, 109920, Note_on_c, 0, 70, 78
3, 110100, Note_on_c, 0, 70, 0
3, 110100, Note_on_c, 0, 60, 0
3, 110100, Note_on_c, 0, 63, 0
3, 110100, Note_on_c, 0, 66, 0
3, 110100, Note_on_c, 0, 63, 78
3, 110100, Note_on_c, 0, 66, 78
3, 110100, Note_on_c, 0, 70, 78
3, 110100, Note_on_c, 0, 72, 78
3, 110160, Note_on_c, 0, 72, 0
3, 110160, Note_on_c, 0, 63, 0
3, 110160, Note_on_c, 0, 66, 0
3, 110160, Note_on_c, 0, 70, 0
3, 110160, Control_c, 0, 64, 0
3, 110160, Note_on_c, 0, 63, 78
3, 110160, Note_on_c, 0, 66, 78
3, 110160, Note_on_c, 0, 70, 78
3, 110160, Note_on_c, 0, 72, 78
3, 110400, Note_on_c, 0, 72, 0
3, 110400, Note_on_c, 0, 63, 0
3, 110400, Note_on_c, 0, 66, 0
3, 110400, Note_on_c, 0, 70, 0
3, 110400, Note_on_c, 0, 29, 78
3, 110400, Note_on_c, 0, 41, 78
3, 110640, Note_on_c, 0, 41, 0
3, 110640, Note_on_c, 0, 29, 0
3, 110640, Note_on_c, 0, 57, 78
3, 110640, Note_on_c, 0, 60, 78
3, 110640, Note_on_c, 0, 65, 78
3, 110640, Note_on_c, 0, 69, 78
3, 110880, Note_on_c, 0, 69, 0
3, 110880, Note_on_c, 0, 57, 0
3, 110880, Note_on_c, 0, 60, 0
3, 110880, Note_on_c, 0, 65, 0
3, 110880, Note_on_c, 0, 34, 78
3, 110880, Note_on_c, 0, 46, 78
3, 111120, Note_on_c, 0, 46, 0
3, 111120, Note_on_c, 0, 34, 0
3, 111120, Note_on_c, 0, 58, 78
3, 111120, Note_on_c, 0, 62, 78
3, 111120, Note_on_c, 0, 68, 78
3, 111120, Note_on_c, 0, 70, 78
3, 111360, Note_on_c, 0, 70, 0
3, 111360, Note_on_c, 0, 58, 0
3, 111360, Note_on_c, 0, 62, 0
3, 111360, Note_on_c, 0, 68, 0
3, 111360, Note_on_c, 0, 39, 78
3, 111360, Note_on_c, 0, 51, 78
3, 111600, Note_on_c, 0, 51, 0
3, 111600, Note_on_c, 0, 39, 0
3, 111600, Note_on_c, 0, 55, 78
3, 111600, Note_on_c, 0, 58, 78
3, 111600, Note_on_c, 0, 63, 78
3, 111600, Note_on_c, 0, 67, 78
3, 111840, Note_on_c, 0, 67, 0
3, 111840, Note_on_c, 0, 55, 0
3, 111840, Note_on_c, 0, 58, 0
3, 111840, Note_on_c, 0, 63, 0
3, 111840, Note_on_c, 0, 32, 78
3, 111840, Note_on_c, 0, 44, 78
3, 112080, Note_on_c, 0, 44, 0
3, 112080, Note_on_c, 0, 32, 0
3, 112080, Note_on_c, 0, 56, 78
3, 112080, Note_on_c, 0, 60, 78
3, 112080, Note_on_c, 0, 66, 78
3, 112080, Note_on_c, 0, 68, 78
3, 112320, Note_on_c, 0, 68, 0
3, 112320, Note_on_c, 0, 56, 0
3, 112320, Note_on_c, 0, 60, 0
3, 112320, Note_on_c, 0, 66, 0
3, 112320, Note_on_c, 0, 37, 78
3, 112320, Note_on_c, 0, 49, 78
3, 112560, Note_on_c, 0, 49, 0
3, 112560, Note_on_c, 0, 37, 0
3, 112560, Note_on_c, 0, 53, 78
3, 112560, Note_on_c, 0, 56, 78
3, 112560, Note_on_c, 0, 61, 78
3, 112560, Note_on_c, 0, 65, 78
3, 112800, Note_on_c, 0, 65, 0
3, 112800, Note_on_c, 0, 53, 0
3, 112800, Note_on_c, 0, 56, 0
3, 112800, Note_on_c, 0, 61, 0
3, 112800, Note_on_c, 0, 31, 78
3, 112800, Note_on_c, 0, 43, 78
3, 113040, Note_on_c, 0, 43, 0
3, 113040, Note_on_c, 0, 31, 0
3, 113040, Note_on_c, 0, 55, 78
3, 113040, Note_on_c, 0, 58, 78
3, 113040, Note_on_c, 0, 61, 78
3, 113040, Note_on_c, 0, 65, 78
3, 113280, Note_on_c, 0, 65, 0
3, 113280, Note_on_c, 0, 55, 0
3, 113280, Note_on_c, 0, 58, 0
3, 113280, Note_on_c, 0, 61, 0
3, 113280, Control_c, 0, 64, 127
3, 113280, Note_on_c, 0, 32, 78
3, 113280, Note_on_c, 0, 44, 78
3, 113460, Note_on_c, 0, 44, 0
3, 113460, Note_on_c, 0, 32, 0
3, 113460, Note_on_c, 0, 65, 78
3, 113460, Note_on_c, 0, 68, 78
3, 113460, Note_on_c, 0, 73, 78
3, 113460, Note_on_c, 0, 77, 78
3, 113520, Note_on_c, 0, 77, 0
3, 113520, Note_on_c, 0, 65, 0
3, 113520, Note_on_c, 0, 68, 0
3, 113520, Note_on_c, 0, 73, 0
3, 113520, Note_on_c, 0, 65, 78
3, 113520, Note_on_c, 0, 68, 78
3, 113520, Note_on_c, 0, 73, 78
3, 113520, Note_on_c, 0, 77, 78
3, 113700, Note_on_c, 0, 77, 0
3, 113700, Note_on_c, 0, 65, 0
3, 113700, Note_on_c, 0, 68, 0
3, 113700, Note_on_c, 0, 73, 0
3, 113700, Note_on_c, 0, 61, 78
3, 113700, Note_on_c, 0, 65, 78
3, 113700, Note_on_c, 0, 68, 78
3, 113700, Note_on_c, 0, 73, 78
3, 113760, Note_on_c, 0, 73, 0
3, 113760, Note_on_c, 0, 61, 0
3, 113760, Note_on_c, 0, 65, 0
3, 113760, Note_on_c, 0, 68, 0
3, 113760, Note_on_c, 0, 61, 78
3, 113760, Note_on_c, 0, 65, 78
3, 113760, Note_on_c, 0, 68, 78
3, 113760, Note_on_c, 0, 73, 78
3, 113940, Note_on_c, 0, 73, 0
3, 113940, Note_on_c, 0, 61, 0
3, 113940, Note_on_c, 0, 65, 0
3, 113940, Note_on_c, 0, 68, 0
3, 113940, Note_on_c, 0, 56, 78
3, 113940, Note_on_c, 0, 61, 78
3, 113940, Note_on_c, 0, 65, 78
3, 113940, Note_on_c, 0, 68, 78
3, 114000, Note_on_c, 0, 68, 0
3, 114000, Note_on_c, 0, 56, 0
3, 114000, Note_on_c, 0, 61, 0
3, 114000, Note_on_c, 0, 65, 0
3, 114000, Note_on_c, 0, 56, 78
3, 114000, Note_on_c, 0, 61, 78
3, 114000, Note_on_c, 0, 65, 78
3, 114000, Note_on_c, 0, 68, 78
3, 114180, Note_on_c, 0, 68, 0
3, 114180, Note_on_c, 0, 56, 0
3, 114180, Note_on_c, 0, 61, 0
3, 114180, Note_on_c, 0, 65, 0
3, 114180, Note_on_c, 0, 53, 78
3, 114180, Note_on_c, 0, 56, 78
3, 114180, Note_on_c, 0, 61, 78
3, 114180, Note_on_c, 0, 65, 78
3, 114240, Note_on_c, 0, 65, 0
3, 114240, Note_on_c, 0, 53, 0
3, 114240, Note_on_c, 0, 56, 0
3, 114240, Note_on_c, 0, 61, 0
3, 114240, Note_on_c, 0, 53, 78
3, 114240, Note_on_c, 0, 56, 78
3, 114240, Note_on_c, 0, 61, 78
3, 114240, Note_on_c, 0, 65, 78
3, 114420, Note_on_c, 0, 65, 0
3, 114420, Note_on_c, 0, 53, 0
3, 114420, Note_on_c, 0, 56, 0
3, 114420, Note_on_c, 0, 61, 0
3, 114420, Note_on_c, 0, 49, 78
3, 114420, Note_on_c, 0, 53, 78
3, 114420, Note_on_c, 0, 56, 78
3, 114420, Note_on_c, 0, 61, 78
3, 114480, Note_on_c, 0, 61, 0
3, 114480, Note_on_c, 0, 49, 0
3, 114480, Note_on_c, 0, 53, 0
3, 114480, Note_on_c, 0, 56, 0
3, 114480, Control_c, 0, 64, 0
3, 114480, Note_on_c, 0, 49, 78
3, 114480, Note_on_c, 0, 53, 78
3, 114480, Note_on_c, 0, 56, 78
3, 114480, Note_on_c, 0, 61, 78
3, 114720, Note_on_c, 0, 61, 0
3, 114720, Note_on_c, 0, 49, 0
3, 114720, Note_on_c, 0, 53, 0
3, 114720, Note_on_c, 0, 56, 0
3, 114720, Control_c, 0, 64, 127
3, 114720, Note_on_c, 0, 27, 78
3, 114720, Note_on_c, 0, 39, 78
3, 114900, Note_on_c, 0, 39, 0
3, 114900, Note_on_c, 0, 27, 0
3, 114900, Note_on_c, 0, 58, 78
3, 114900, Note_on_c, 0, 63, 78
3, 114900, Note_on_c, 0, 67, 78
3, 114900, Note_on_c, 0, 70, 78
3, 114960, Note_on_c, 0, 70, 0
3, 114960, Note_on_c, 0, 58, 0
3, 114960, Note_on_c, 0, 63, 0
3, 114960, Note_on_c, 0, 67, 0
3, 114960, Note_on_c, 0, 58, 78
3, 114960, Note_on_c, 0, 63, 78
3, 114960, Note_on_c, 0, 67, 78
3, 114960, Note_on_c, 0, 70, 78
3, 115140, Note_on_c, 0, 70, 0
3, 115140, Note_on_c, 0, 58, 0
3, 115140, Note_on_c, 0, 63, 0
3, 115140, Note_on_c, 0, 67, 0
3, 115140, Note_on_c, 0, 55, 78
3, 115140, Note_on_c, 0, 58, 78
3, 115140, Note_on_c, 0, 63, 78
3, 115140, Note_on_c, 0, 67, 78
3, 115200, Note_on_c, 0, 67, 0
3, 115200, Note_on_c, 0, 55, 0
3, 115200, Note_on_c, 0, 58, 0
3, 115200, Note_on_c, 0, 63, 0
3, 115200, Note_on_c, 0, 55, 78
3, 115200, Note_on_c, 0, 58, 78
3, 115200, Note_on_c, 0, 63, 78
3, 115200, Note_on_c, 0, 67, 78
3, 115380, Note_on_c, 0, 67, 0
3, 115380, Note_on_c, 0, 55, 0
3, 115380, Note_on_c, 0, 58, 0
3, 115380, Note_on_c, 0, 63, 0
3, 115380, Note_on_c, 0, 51, 78
3, 115380, Note_on_c, 0, 55, 78
3, 115380, Note_on_c, 0, 58, 78
3, 115380, Note_on_c, 0, 63, 78
3, 115440, Note_on_c, 0, 63, 0
3, 115440, Note_on_c, 0, 51, 0
3, 115440, Note_on_c, 0, 55, 0
3, 115440, Note_on_c, 0, 58, 0
3, 115440, Note_on_c, 0, 51, 78
3, 115440, Note_on_c, 0, 55, 78
3, 115440, Note_on_c, 0, 58, 78
3, 115440, Note_on_c, 0, 63, 78
3, 115680, Note_on_c, 0, 63, 0
3, 115680, Note_on_c, 0, 51, 0
3, 115680, Note_on_c, 0, 55, 0
3, 115680, Note_on_c, 0, 58, 0
3, 115680, Control_c, 0, 64, 0
3, 115680, Note_on_c, 0, 32, 78
3, 115680, Note_on_c, 0, 44, 78
3, 115920, Note_on_c, 0, 44, 0
3, 115920, Note_on_c, 0, 32, 0
3, 115920, Note_on_c, 0, 54, 78
3, 115920, Note_on_c, 0, 56, 78
3, 115920, Note_on_c, 0, 60, 78
3, 115920, Note_on_c, 0, 63, 78
3, 116160, Note_on_c, 0, 63, 0
3, 116160, Note_on_c, 0, 54, 0
3, 116160, Note_on_c, 0, 56, 0
3, 116160, Note_on_c, 0, 60, 0
3, 116160, Control_c, 0, 64, 127
3, 116160, Note_on_c, 0, 25, 78
3, 116160, Note_on_c, 0, 37, 78
3, 116340, Note_on_c, 0, 37, 0
3, 116340, Note_on_c, 0, 25, 0
3, 116340, Note_on_c, 0, 49, 78
3, 116340, Note_on_c, 0, 53, 78
3, 116340, Note_on_c, 0, 56, 78
3, 116340, Note_on_c, 0, 61, 78
3, 116400, Note_on_c, 0, 61, 0
3, 116400, Note_on_c, 0, 49, 0
3, 116400, Note_on_c, 0, 53, 0
3, 116400, Note_on_c, 0, 56, 0
3, 116400, Note_on_c, 0, 49, 78
3, 116400, Note_on_c, 0, 53, 78
3, 116400, Note_on_c, 0, 56, 78
3, 116400, Note_on_c, 0, 61, 78
3, 116580, Note_on_c, 0, 61, 0
3, 116580, Note_on_c, 0, 49, 0
3, 116580, Note_on_c, 0, 53, 0
3, 116580, Note_on_c, 0, 56, 0
3, 116580, Note_on_c, 0, 49, 78
3, 116580, Note_on_c, 0, 53, 78
3, 116580, Note_on_c, 0, 56, 78
3, 116580, Note_on_c, 0, 61, 78
3, 116640, Note_on_c, 0, 61, 0
3, 116640, Note_on_c, 0, 49, 0
3, 116640, Note_on_c, 0, 53, 0
3, 116640, Note_on_c, 0, 56, 0
3, 116640, Note_on_c, 0, 49, 78
3, 116640, Note_on_c, 0, 53, 78
3, 116640, Note_on_c, 0, 56, 78
3, 116640, Note_on_c, 0, 61, 78
3, 116880, Note_on_c, 0, 61, 0
3, 116880, Note_on_c, 0, 49, 0
3, 116880, Note_on_c, 0, 53, 0
3, 116880, Note_on_c, 0, 56, 0
3, 117120, Control_c, 0, 64, 0
3, 117759, Note_on_c, 0, 80, 39
3, 117759, Note_on_c, 0, 83, 39
3, 117791, Note_on_c, 0, 83, 0
3, 117791, Note_on_c, 0, 80, 0
3, 117920, Note_on_c, 0, 77, 39
3, 117920, Note_on_c, 0, 80, 39
3, 117952, Note_on_c, 0, 80, 0
3, 117952, Note_on_c, 0, 77, 0
3, 118080, Note_on_c, 0, 71, 39
3, 118080, Note_on_c, 0, 77, 39
3, 118111, Note_on_c, 0, 77, 0
3, 118111, Note_on_c, 0, 71, 0
3, 118239, Note_on_c, 0, 68, 39
3, 118239, Note_on_c, 0, 77, 39
3, 118271, Note_on_c, 0, 77, 0
3, 118271, Note_on_c, 0, 68, 0
3, 118400, Note_on_c, 0, 65, 39
3, 118400, Note_on_c, 0, 71, 39
3, 118432, Note_on_c, 0, 71, 0
3, 118432, Note_on_c, 0, 65, 0
3, 118560, Note_on_c, 0, 59, 39
3, 118560, Note_on_c, 0, 68, 39
3, 118591, Note_on_c, 0, 68, 0
3, 118591, Note_on_c, 0, 59, 0
3, 118719, Note_on_c, 0, 56, 39
3, 118719, Note_on_c, 0, 65, 39
3, 118751, Note_on_c, 0, 65, 0
3, 118751, Note_on_c, 0, 56, 0
3, 118880, Note_on_c, 0, 50, 39
3, 118880, Note_on_c, 0, 56, 39
3, 118880, Note_on_c, 0, 59, 39
3, 118912, Note_on_c, 0, 59, 0
3, 118912, Note_on_c, 0, 56, 0
3, 118912, Note_on_c, 0, 50, 0
3, 119199, Note_on_c, 0, 66, 39
3, 119199, Note_on_c, 0, 69, 39
3, 119199, Note_on_c, 0, 73, 39
3, 119231, Note_on_c, 0, 73, 0
3, 119231, Note_on_c, 0, 69, 0
3, 119231, Note_on_c, 0, 66, 0
3, 119360, Note_on_c, 0, 69, 39
3, 119360, Note_on_c, 0, 73, 39
3, 119360, Note_on_c, 0, 78, 39
3, 119392, Note_on_c, 0, 78, 0
3, 119392, Note_on_c, 0, 73, 0
3, 119392, Note_on_c, 0, 69, 0
3, 119520, Note_on_c, 0, 73, 39
3, 119520, Note_on_c, 0, 78, 39
3, 119520, Note_on_c, 0, 81, 39
3, 119551, Note_on_c, 0, 81, 0
3, 119551, Note_on_c, 0, 78, 0
3, 119551, Note_on_c, 0, 73, 0
3, 119679, Note_on_c, 0, 78, 39
3, 119679, Note_on_c, 0, 81, 39
3, 119679, Note_on_c, 0, 85, 39
3, 119711, Note_on_c, 0, 85, 0
3, 119711, Note_on_c, 0, 81, 0
3, 119711, Note_on_c, 0, 78, 0
3, 119840, Note_on_c, 0, 81, 39
3, 119840, Note_on_c, 0, 85, 39
3, 119840, Note_on_c, 0, 90, 39
3, 119872, Note_on_c, 0, 90, 0
3, 119872, Note_on_c, 0, 85, 0
3, 119872, Note_on_c, 0, 81, 0
3, 120000, Note_on_c, 0, 85, 39
3, 120000, Note_on_c, 0, 90, 39
3, 120000, Note_on_c, 0, 93, 39
3, 120047, Note_on_c, 0, 93, 0
3, 120047, Note_on_c, 0, 90, 0
3, 120047, Note_on_c, 0, 85, 0
3, 120639, Note_on_c, 0, 78, 39
3, 120639, Note_on_c, 0, 81, 39
3, 120671, Note_on_c, 0, 81, 0
3, 120671, Note_on_c, 0, 78, 0
3, 120800, Note_on_c, 0, 72, 39
3, 120800, Note_on_c, 0, 78, 39
3, 120832, Note_on_c, 0, 78, 0
3, 120832, Note_on_c, 0, 72, 0
3, 120960, Note_on_c, 0, 72, 39
3, 120960, Note_on_c, 0, 75, 39
3, 120991, Note_on_c, 0, 75, 0
3, 120991, Note_on_c, 0, 72, 0
3, 121119, Note_on_c, 0, 66, 39
3, 121119, Note_on_c, 0, 75, 39
3, 121151, Note_on_c, 0, 75, 0
3, 121151, Note_on_c, 0, 66, 0
3, 121280, Note_on_c, 0, 63, 39
3, 121280, Note_on_c, 0, 72, 39
3, 121312, Note_on_c, 0, 72, 0
3, 121312, Note_on_c, 0, 63, 0
3, 121440, Note_on_c, 0, 60, 39
3, 121440, Note_on_c, 0, 66, 39
3, 121471, Note_on_c, 0, 66, 0
3, 121471, Note_on_c, 0, 60, 0
3, 121599, Note_on_c, 0, 54, 39
3, 121599, Note_on_c, 0, 63, 39
3, 121631, Note_on_c, 0, 63, 0
3, 121631, Note_on_c, 0, 54, 0
3, 121760, Note_on_c, 0, 51, 39
3, 121760, Note_on_c, 0, 54, 39
3, 121760, Note_on_c, 0, 60, 39
3, 121792, Note_on_c, 0, 60, 0
3, 121792, Note_on_c, 0, 54, 0
3, 121792, Note_on_c, 0, 51, 0
3, 121920, Note_on_c, 0, 53, 39
3, 121920, Note_on_c, 0, 56, 39
3, 121920, Note_on_c, 0, 61, 39
3, 121951, Note_on_c, 0, 61, 0
3, 121951, Note_on_c, 0, 56, 0
3, 121951, Note_on_c, 0, 53, 0
3, 122079, Note_on_c, 0, 65, 39
3, 122079, Note_on_c, 0, 68, 39
3, 122079, Note_on_c, 0, 73, 39
3, 122111, Note_on_c, 0, 73, 0
3, 122111, Note_on_c, 0, 68, 0
3, 122111, Note_on_c, 0, 65, 0
3, 122240, Note_on_c, 0, 68, 39
3, 122240, Note_on_c, 0, 73, 39
3, 122240, Note_on_c, 0, 77, 39
3, 122272, Note_on_c, 0, 77, 0
3, 122272, Note_on_c, 0, 73, 0
3, 122272, Note_on_c, 0, 68, 0
3, 122400, Note_on_c, 0, 73, 39
3, 122400, Note_on_c, 0, 77, 39
3, 122400, Note_on_c, 0, 80, 39
3, 122431, Note_on_c, 0, 80, 0
3, 122431, Note_on_c, 0, 77, 0
3, 122431, Note_on_c, 0, 73, 0
3, 122559, Note_on_c, 0, 77, 39
3, 122559, Note_on_c, 0, 80, 39
3, 122559, Note_on_c, 0, 85, 39
3, 122591, Note_on_c, 0, 85, 0
3, 122591, Note_on_c, 0, 80, 0
3, 122591, Note_on_c, 0, 77, 0
3, 122720, Note_on_c, 0, 80, 39
3, 122720, Note_on_c, 0, 85, 39
3, 122720, Note_on_c, 0, 89, 39
3, 122752, Note_on_c, 0, 89, 0
3, 122752, Note_on_c, 0, 85, 0
3, 122752, Note_on_c, 0, 80, 0
3, 122880, Note_on_c, 0, 85, 39
3, 122880, Note_on_c, 0, 89, 39
3, 122880, Note_on_c, 0, 92, 39
3, 122927, Note_on_c, 0, 92, 0
3, 122927, Note_on_c, 0, 89, 0
3, 122927, Note_on_c, 0, 85, 0
3, 124800, Note_on_c, 0, 49, 39
3, 124831, Note_on_c, 0, 49, 0
3, 124959, Note_on_c, 0, 54, 39
3, 124959, Note_on_c, 0, 57, 39
3, 124959, Note_on_c, 0, 61, 39
3, 124991, Note_on_c, 0, 61, 0
3, 124991, Note_on_c, 0, 57, 0
3, 124991, Note_on_c, 0, 54, 0
3, 125120, Note_on_c, 0, 57, 39
3, 125120, Note_on_c, 0, 61, 39
3, 125120, Note_on_c, 0, 66, 39
3, 125152, Note_on_c, 0, 66, 0
3, 125152, Note_on_c, 0, 61, 0
3, 125152, Note_on_c, 0, 57, 0
3, 125280, Note_on_c, 0, 61, 39
3, 125280, Note_on_c, 0, 66, 39
3, 125280, Note_on_c, 0, 69, 39
3, 125311, Note_on_c, 0, 69, 0
3, 125311, Note_on_c, 0, 66, 0
3, 125311, Note_on_c, 0, 61, 0
3, 125439, Note_on_c, 0, 66, 39
3, 125439, Note_on_c, 0, 69, 39
3, 125439, Note_on_c, 0, 73, 39
3, 125471, Note_on_c, 0, 73, 0
3, 125471, Note_on_c, 0, 69, 0
3, 125471, Note_on_c, 0, 66, 0
3, 125600, Note_on_c, 0, 69, 39
3, 125600, Note_on_c, 0, 73, 39
3, 125600, Note_on_c, 0, 78, 39
3, 125632, Note_on_c, 0, 78, 0
3, 125632, Note_on_c, 0, 73, 0
3, 125632, Note_on_c, 0, 69, 0
3, 125760, Note_on_c, 0, 73, 39
3, 125760, Note_on_c, 0, 78, 39
3, 125760, Note_on_c, 0, 81, 39
3, 125807, Note_on_c, 0, 81, 0
3, 125807, Note_on_c, 0, 78, 0
3, 125807, Note_on_c, 0, 73, 0
3, 127680, Note_on_c, 0, 53, 39
3, 127711, Note_on_c, 0, 53, 0
3, 127839, Note_on_c, 0, 49, 39
3, 127839, Note_on_c, 0, 53, 39
3, 127839, Note_on_c, 0, 56, 39
3, 127871, Note_on_c, 0, 56, 0
3, 127871, Note_on_c, 0, 53, 0
3, 127871, Note_on_c, 0, 49, 0
3, 128000, Note_on_c, 0, 53, 39
3, 128000, Note_on_c, 0, 56, 39
3, 128000, Note_on_c, 0, 61, 39
3, 128032, Note_on_c, 0, 61, 0
3, 128032, Note_on_c, 0, 56, 0
3, 128032, Note_on_c, 0, 53, 0
3, 128160, Note_on_c, 0, 56, 39
3, 128160, Note_on_c, 0, 61, 39
3, 128160, Note_on_c, 0, 65, 39
3, 128191, Note_on_c, 0, 65, 0
3, 128191, Note_on_c, 0, 61, 0
3, 128191, Note_on_c, 0, 56, 0
3, 128319, Note_on_c, 0, 61, 39
3, 128319, Note_on_c, 0, 65, 39
3, 128319, Note_on_c, 0, 68, 39
3, 128351, Note_on_c, 0, 68, 0
3, 128351, Note_on_c, 0, 65, 0
3, 128351, Note_on_c, 0, 61, 0
3, 128480, Note_on_c, 0, 65, 39
3, 128480, Note_on_c, 0, 68, 39
3, 128480, Note_on_c, 0, 73, 39
3, 128512, Note_on_c, 0, 73, 0
3, 128512, Note_on_c, 0, 68, 0
3, 128512, Note_on_c, 0, 65, 0
3, 128640, Note_on_c, 0, 68, 39
3, 128640, Note_on_c, 0, 73, 39
3, 128640, Note_on_c, 0, 77, 39
3, 128687, Note_on_c, 0, 77, 0
3, 128687, Note_on_c, 0, 73, 0
3, 128687, Note_on_c, 0, 68, 0
3, 140880, Note_on_c, 0, 48, 39
3, 141120, Note_on_c, 0, 48, 0
3, 141120, Note_on_c, 0, 50, 39
3, 141360, Note_on_c, 0, 50, 0
3, 141360, Note_on_c, 0, 53, 39
3, 141600, Note_on_c, 0, 53, 0
3, 141600, Note_on_c, 0, 56, 39
3, 141840, Note_on_c, 0, 56, 0
3, 141840, Note_on_c, 0, 60, 39
3, 142080, Note_on_c, 0, 60, 0
3, 142080, Note_on_c, 0, 61, 39
3, 142320, Note_on_c, 0, 61, 0
3, 142320, Note_on_c, 0, 55, 39
3, 142560, Note_on_c, 0, 55, 0
3, 142560, Note_on_c, 0, 60, 39
3, 142800, Note_on_c, 0, 60, 0
3, 142800, Note_on_c, 0, 62, 39
3, 143040, Note_on_c, 0, 62, 0
3, 143040, Note_on_c, 0, 65, 39
3, 143280, Note_on_c, 0, 65, 0
3, 143280, Note_on_c, 0, 67, 39
3, 143520, Note_on_c, 0, 67, 0
3, 143520, Note_on_c, 0, 72, 52
3, 143567, Note_on_c, 0, 72, 0
3, 143760, Note_on_c, 0, 73, 52
3, 144000, Note_on_c, 0, 73, 0
3, 144000, Note_on_c, 0, 74, 52
3, 144240, Note_on_c, 0, 74, 0
3, 144240, Note_on_c, 0, 67, 52
3, 144480, Note_on_c, 0, 67, 0
3, 144480, Note_on_c, 0, 70, 52
3, 144720, Note_on_c, 0, 70, 0
3, 144720, Note_on_c, 0, 69, 52
3, 144767, Note_on_c, 0, 69, 0
3, 144960, Note_on_c, 0, 72, 52
3, 145007, Note_on_c, 0, 72, 0
3, 145200, Note_on_c, 0, 66, 52
3, 145440, Note_on_c, 0, 66, 0
3, 145440, Note_on_c, 0, 68, 52
3, 145680, Note_on_c, 0, 68, 0
3, 145680, Note_on_c, 0, 67, 52
3, 145727, Note_on_c, 0, 67, 0
3, 145920, Note_on_c, 0, 64, 52
3, 145967, Note_on_c, 0, 64, 0
3, 146160, Note_on_c, 0, 59, 52
3, 146207, Note_on_c, 0, 59, 0
3, 146400, Note_on_c, 0, 61, 39
3, 146640, Note_on_c, 0, 61, 0
3, 146640, Note_on_c, 0, 60, 39
3, 146880, Note_on_c, 0, 60, 0
3, 146880, Note_on_c, 0, 56, 39
3, 146927, Note_on_c, 0, 56, 0
3, 147120, Note_on_c, 0, 55, 39
3, 147167, Note_on_c, 0, 55, 0
3, 147360, Note_on_c, 0, 52, 39
3, 147407, Note_on_c, 0, 52, 0
3, 147600, Note_on_c, 0, 47, 39
3, 147647, Note_on_c, 0, 47, 0
3, 147840, Note_on_c, 0, 49, 39
3, 148080, Note_on_c, 0, 49, 0
3, 148080, Note_on_c, 0, 48, 39
3, 148320, Note_on_c, 0, 48, 0
3, 148320, Note_on_c, 0, 44, 39
3, 148320, Note_on_c, 0, 56, 39
3, 148367, Note_on_c, 0, 56, 0
3, 148367, Note_on_c, 0, 44, 0
3, 148560, Note_on_c, 0, 40, 39
3, 148560, Note_on_c, 0, 52, 39
3, 148607, Note_on_c, 0, 52, 0
3, 148607, Note_on_c, 0, 40, 0
3, 148800, Note_on_c, 0, 35, 39
3, 148800, Note_on_c, 0, 47, 39
3, 148847, Note_on_c, 0, 47, 0
3, 148847, Note_on_c, 0, 35, 0
3, 149040, Note_on_c, 0, 36, 39
3, 149040, Note_on_c, 0, 48, 39
3, 149087, Note_on_c, 0, 48, 0
3, 149087, Note_on_c, 0, 36, 0
3, 149280, Note_on_c, 0, 37, 39
3, 149280, Note_on_c, 0, 49, 39
3, 149376, Note_on_c, 0, 49, 0
3, 149376, Note_on_c, 0, 37, 0
3, 149760, Note_on_c, 0, 31, 39
3, 149760, Note_on_c, 0, 43, 39
3, 149856, Note_on_c, 0, 43, 0
3, 149856, Note_on_c, 0, 31, 0
3, 150240, Note_on_c, 0, 36, 39
3, 150240, Note_on_c, 0, 48, 39
3, 150336, Note_on_c, 0, 48, 0
3, 150336, Note_on_c, 0, 36, 0
3, 160800, Note_on_c, 0, 40, 39
3, 160959, Note_on_c, 0, 40, 0
3, 160959, Note_on_c, 0, 41, 39
3, 161120, Note_on_c, 0, 41, 0
3, 161280, Note_on_c, 0, 42, 39
3, 161439, Note_on_c, 0, 42, 0
3, 161439, Note_on_c, 0, 41, 39
3, 161600, Note_on_c, 0, 41, 0
3, 161760, Note_on_c, 0, 46, 39
3, 161919, Note_on_c, 0, 46, 0
3, 161919, Note_on_c, 0, 45, 39
3, 162080, Note_on_c, 0, 45, 0
3, 162240, Note_on_c, 0, 44, 39
3, 162399, Note_on_c, 0, 44, 0
3, 162399, Note_on_c, 0, 45, 39
3, 162560, Note_on_c, 0, 45, 0
3, 162720, Note_on_c, 0, 47, 39
3, 162879, Note_on_c, 0, 47, 0
3, 162879, Note_on_c, 0, 48, 39
3, 163040, Note_on_c, 0, 48, 0
3, 163200, Note_on_c, 0, 49, 39
3, 163359, Note_on_c, 0, 49, 0
3, 163359, Note_on_c, 0, 48, 39
3, 163520, Note_on_c, 0, 48, 0
3, 163680, Note_on_c, 0, 54, 39
3, 163839, Note_on_c, 0, 54, 0
3, 163839, Note_on_c, 0, 53, 39
3, 164000, Note_on_c, 0, 53, 0
3, 164160, Note_on_c, 0, 52, 39
3, 164319, Note_on_c, 0, 52, 0
3, 164319, Note_on_c, 0, 53, 39
3, 164480, Note_on_c, 0, 53, 0
3, 164640, Note_on_c, 0, 56, 39
3, 164799, Note_on_c, 0, 56, 0
3, 164799, Note_on_c, 0, 57, 39
3, 164960, Note_on_c, 0, 57, 0
3, 165120, Note_on_c, 0, 58, 39
3, 165279, Note_on_c, 0, 58, 0
3, 165279, Note_on_c, 0, 57, 39
3, 165440, Note_on_c, 0, 57, 0
3, 165600, Note_on_c, 0, 61, 39
3, 165759, Note_on_c, 0, 61, 0
3, 165759, Note_on_c, 0, 60, 39
3, 165920, Note_on_c, 0, 60, 0
3, 166080, Note_on_c, 0, 59, 39
3, 166239, Note_on_c, 0, 59, 0
3, 166239, Note_on_c, 0, 60, 39
3, 166400, Note_on_c, 0, 60, 0
3, 166560, Note_on_c, 0, 66, 39
3, 166719, Note_on_c, 0, 66, 0
3, 166719, Note_on_c, 0, 65, 39
3, 166880, Note_on_c, 0, 65, 0
3, 167040, Note_on_c, 0, 64, 39
3, 167199, Note_on_c, 0, 64, 0
3, 167199, Note_on_c, 0, 65, 39
3, 167360, Note_on_c, 0, 65, 0
3, 167520, Note_on_c, 0, 66, 39
3, 167679, Note_on_c, 0, 66, 0
3, 167679, Note_on_c, 0, 65, 39
3, 167840, Note_on_c, 0, 65, 0
3, 168000, Note_on_c, 0, 64, 39
3, 168159, Note_on_c, 0, 64, 0
3, 168159, Note_on_c, 0, 65, 39
3, 168320, Note_on_c, 0, 65, 0
3, 168480, Note_on_c, 0, 61, 39
3, 168639, Note_on_c, 0, 61, 0
3, 168639, Note_on_c, 0, 60, 39
3, 168800, Note_on_c, 0, 60, 0
3, 168960, Note_on_c, 0, 59, 39
3, 169119, Note_on_c, 0, 59, 0
3, 169119, Note_on_c, 0, 60, 39
3, 169280, Note_on_c, 0, 60, 0
3, 169440, Note_on_c, 0, 61, 39
3, 169599, Note_on_c, 0, 61, 0
3, 169599, Note_on_c, 0, 60, 39
3, 169760, Note_on_c, 0, 60, 0
3, 169920, Note_on_c, 0, 59, 39
3, 170079, Note_on_c, 0, 59, 0
3, 170079, Note_on_c, 0, 60, 39
3, 170240, Note_on_c, 0, 60, 0
3, 170400, Note_on_c, 0, 58, 39
3, 170559, Note_on_c, 0, 58, 0
3, 170559, Note_on_c, 0, 57, 39
3, 170720, Note_on_c, 0, 57, 0
3, 170880, Note_on_c, 0, 56, 39
3, 171039, Note_on_c, 0, 56, 0
3, 171039, Note_on_c, 0, 57, 39
3, 171200, Note_on_c, 0, 57, 0
3, 171360, Note_on_c, 0, 54, 39
3, 171519, Note_on_c, 0, 54, 0
3, 171519, Note_on_c, 0, 53, 39
3, 171680, Note_on_c, 0, 53, 0
3, 171840, Note_on_c, 0, 52, 39
3, 171999, Note_on_c, 0, 52, 0
3, 171999, Note_on_c, 0, 53, 39
3, 172160, Note_on_c, 0, 53, 0
3, 172320, Note_on_c, 0, 58, 39
3, 172479, Note_on_c, 0, 58, 0
3, 172479, Note_on_c, 0, 60, 39
3, 172640, Note_on_c, 0, 60, 0
3, 172800, Note_on_c, 0, 61, 39
3, 172959, Note_on_c, 0, 61, 0
3, 172959, Note_on_c, 0, 60, 39
3, 173120, Note_on_c, 0, 60, 0
3, 173280, Note_on_c, 0, 63, 39
3, 173439, Note_on_c, 0, 63, 0
3, 173439, Note_on_c, 0, 61, 39
3, 173600, Note_on_c, 0, 61, 0
3, 173760, Note_on_c, 0, 60, 39
3, 173919, Note_on_c, 0, 60, 0
3, 173919, Note_on_c, 0, 58, 39
3, 174080, Note_on_c, 0, 58, 0
3, 174240, Note_on_c, 0, 57, 39
3, 174399, Note_on_c, 0, 57, 0
3, 174399, Note_on_c, 0, 53, 39
3, 174560, Note_on_c, 0, 53, 0
3, 175200, Note_on_c, 0, 57, 39
3, 175359, Note_on_c, 0, 57, 0
3, 175359, Note_on_c, 0, 53, 39
3, 175520, Note_on_c, 0, 53, 0
3, 176160, Note_on_c, 0, 52, 39
3, 176319, Note_on_c, 0, 52, 0
3, 176319, Note_on_c, 0, 53, 39
3, 176480, Note_on_c, 0, 53, 0
3, 176640, Note_on_c, 0, 58, 39
3, 176799, Note_on_c, 0, 58, 0
3, 176799, Note_on_c, 0, 53, 39
3, 176960, Note_on_c, 0, 53, 0
3, 177120, Note_on_c, 0, 51, 39
3, 177279, Note_on_c, 0, 51, 0
3, 177279, Note_on_c, 0, 49, 39
3, 177440, Note_on_c, 0, 49, 0
3, 177600, Note_on_c, 0, 48, 39
3, 177759, Note_on_c, 0, 48, 0
3, 177759, Note_on_c, 0, 46, 39
3, 177920, Note_on_c, 0, 46, 0
3, 178080, Note_on_c, 0, 48, 39
3, 178127, Note_on_c, 0, 48, 0
3, 178560, Note_on_c, 0, 60, 39
3, 178607, Note_on_c, 0, 60, 0
3, 179040, Note_on_c, 0, 72, 39
3, 179087, Note_on_c, 0, 72, 0
3, 180000, Note_on_c, 0, 58, 39
3, 180159, Note_on_c, 0, 58, 0
3, 180159, Note_on_c, 0, 60, 39
3, 180320, Note_on_c, 0, 60, 0
3, 180480, Note_on_c, 0, 61, 39
3, 180639, Note_on_c, 0, 61, 0
3, 180639, Note_on_c, 0, 60, 39
3, 180800, Note_on_c, 0, 60, 0
3, 180960, Note_on_c, 0, 63, 39
3, 181119, Note_on_c, 0, 63, 0
3, 181119, Note_on_c, 0, 61, 39
3, 181280, Note_on_c, 0, 61, 0
3, 181440, Note_on_c, 0, 60, 39
3, 181599, Note_on_c, 0, 60, 0
3, 181599, Note_on_c, 0, 58, 39
3, 181760, Note_on_c, 0, 58, 0
3, 181920, Note_on_c, 0, 57, 39
3, 182079, Note_on_c, 0, 57, 0
3, 182079, Note_on_c, 0, 53, 39
3, 182240, Note_on_c, 0, 53, 0
3, 182880, Note_on_c, 0, 57, 39
3, 183039, Note_on_c, 0, 57, 0
3, 183039, Note_on_c, 0, 53, 39
3, 183200, Note_on_c, 0, 53, 0
3, 183840, Note_on_c, 0, 52, 39
3, 183999, Note_on_c, 0, 52, 0
3, 183999, Note_on_c, 0, 53, 39
3, 184160, Note_on_c, 0, 53, 0
3, 184320, Note_on_c, 0, 58, 39
3, 184479, Note_on_c, 0, 58, 0
3, 184479, Note_on_c, 0, 53, 39
3, 184640, Note_on_c, 0, 53, 0
3, 184800, Note_on_c, 0, 51, 39
3, 184959, Note_on_c, 0, 51, 0
3, 184959, Note_on_c, 0, 49, 39
3, 185120, Note_on_c, 0, 49, 0
3, 185280, Note_on_c, 0, 48, 39
3, 185439, Note_on_c, 0, 48, 0
3, 185439, Note_on_c, 0, 46, 39
3, 185600, Note_on_c, 0, 46, 0
3, 185760, Note_on_c, 0, 51, 39
3, 185807, Note_on_c, 0, 51, 0
3, 186240, Note_on_c, 0, 63, 39
3, 186287, Note_on_c, 0, 63, 0
3, 186720, Note_on_c, 0, 75, 39
3, 186767, Note_on_c, 0, 75, 0
3, 187680, Note_on_c, 0, 55, 39
3, 187839, Note_on_c, 0, 55, 0
3, 187839, Note_on_c, 0, 56, 39
3, 188000, Note_on_c, 0, 56, 0
3, 188160, Note_on_c, 0, 61, 39
3, 188319, Note_on_c, 0, 61, 0
3, 188319, Note_on_c, 0, 56, 39
3, 188480, Note_on_c, 0, 56, 0
3, 188640, Note_on_c, 0, 54, 39
3, 188799, Note_on_c, 0, 54, 0
3, 188799, Note_on_c, 0, 53, 39
3, 188960, Note_on_c, 0, 53, 0
3, 189120, Note_on_c, 0, 51, 39
3, 189279, Note_on_c, 0, 51, 0
3, 189279, Note_on_c, 0, 49, 39
3, 189440, Note_on_c, 0, 49, 0
3, 189600, Note_on_c, 0, 55, 39
3, 189647, Note_on_c, 0, 55, 0
3, 190080, Note_on_c, 0, 67, 39
3, 190127, Note_on_c, 0, 67, 0
3, 190560, Note_on_c, 0, 79, 39
3, 190607, Note_on_c, 0, 79, 0
3, 191520, Note_on_c, 0, 59, 39
3, 191679, Note_on_c, 0, 59, 0
3, 191679, Note_on_c, 0, 60, 39
3, 191840, Note_on_c, 0, 60, 0
3, 192000, Note_on_c, 0, 65, 39
3, 192159, Note_on_c, 0, 65, 0
3, 192159, Note_on_c, 0, 60, 39
3, 192320, Note_on_c, 0, 60, 0
3, 192480, Note_on_c, 0, 63, 39
3, 192639, Note_on_c, 0, 63, 0
3, 192639, Note_on_c, 0, 61, 39
3, 192800, Note_on_c, 0, 61, 0
3, 192960, Note_on_c, 0, 60, 39
3, 193119, Note_on_c, 0, 60, 0
3, 193119, Note_on_c, 0, 58, 39
3, 193280, Note_on_c, 0, 58, 0
3, 193440, Note_on_c, 0, 60, 39
3, 193487, Note_on_c, 0, 60, 0
3, 193920, Note_on_c, 0, 72, 39
3, 193967, Note_on_c, 0, 72, 0
3, 194400, Note_on_c, 0, 60, 39
3, 194447, Note_on_c, 0, 60, 0
3, 194880, Note_on_c, 0, 48, 39
3, 194927, Note_on_c, 0, 48, 0
3, 195360, Note_on_c, 0, 59, 39
3, 195519, Note_on_c, 0, 59, 0
3, 195519, Note_on_c, 0, 60, 39
3, 195680, Note_on_c, 0, 60, 0
3, 195840, Note_on_c, 0, 65, 39
3, 195999, Note_on_c, 0, 65, 0
3, 195999, Note_on_c, 0, 60, 39
3, 196160, Note_on_c, 0, 60, 0
3, 196320, Note_on_c, 0, 63, 39
3, 196479, Note_on_c, 0, 63, 0
3, 196479, Note_on_c, 0, 61, 39
3, 196640, Note_on_c, 0, 61, 0
3, 196800, Note_on_c, 0, 60, 39
3, 196959, Note_on_c, 0, 60, 0
3, 196959, Note_on_c, 0, 58, 39
3, 197120, Note_on_c, 0, 58, 0
3, 197280, Note_on_c, 0, 60, 39
3, 197327, Note_on_c, 0, 60, 0
3, 197760, Note_on_c, 0, 72, 39
3, 197807, Note_on_c, 0, 72, 0
3, 198240, Note_on_c, 0, 60, 39
3, 198287, Note_on_c, 0, 60, 0
3, 198720, Note_on_c, 0, 48, 39
3, 198767, Note_on_c, 0, 48, 0
3, 199200, Note_on_c, 0, 59, 52
3, 199359, Note_on_c, 0, 59, 0
3, 199359, Note_on_c, 0, 60, 52
3, 199520, Note_on_c, 0, 60, 0
3, 199680, Note_on_c, 0, 65, 52
3, 199839, Note_on_c, 0, 65, 0
3, 199839, Note_on_c, 0, 60, 52
3, 200000, Note_on_c, 0, 60, 0
3, 200160, Note_on_c, 0, 63, 52
3, 200319, Note_on_c, 0, 63, 0
3, 200319, Note_on_c, 0, 61, 52
3, 200480, Note_on_c, 0, 61, 0
3, 200640, Note_on_c, 0, 60, 52
3, 200799, Note_on_c, 0, 60, 0
3, 200799, Note_on_c, 0, 58, 52
3, 200960, Note_on_c, 0, 58, 0
3, 201120, Note_on_c, 0, 61, 52
3, 201279, Note_on_c, 0, 61, 0
3, 201279, Note_on_c, 0, 62, 52
3, 201440, Note_on_c, 0, 62, 0
3, 201600, Note_on_c, 0, 67, 52
3, 201759, Note_on_c, 0, 67, 0
3, 201759, Note_on_c, 0, 62, 52
3, 201920, Note_on_c, 0, 62, 0
3, 202080, Note_on_c, 0, 65, 52
3, 202239, Note_on_c, 0, 65, 0
3, 202239, Note_on_c, 0, 64, 52
3, 202400, Note_on_c, 0, 64, 0
3, 202560, Note_on_c, 0, 61, 52
3, 202719, Note_on_c, 0, 61, 0
3, 202719, Note_on_c, 0, 60, 52
3, 202880, Note_on_c, 0, 60, 0
3, 204960, Note_on_c, 0, 59, 65
3, 205119, Note_on_c, 0, 59, 0
3, 205119, Note_on_c, 0, 60, 65
3, 205280, Note_on_c, 0, 60, 0
3, 205440, Note_on_c, 0, 47, 65
3, 205599, Note_on_c, 0, 47, 0
3, 205599, Note_on_c, 0, 48, 65
3, 205599, Note_on_c, 0, 60, 65
3, 205760, Note_on_c, 0, 60, 0
3, 205760, Note_on_c, 0, 48, 0
3, 205920, Note_on_c, 0, 47, 65
3, 206079, Note_on_c, 0, 47, 0
3, 206079, Note_on_c, 0, 48, 65
3, 206240, Note_on_c, 0, 48, 0
3, 206400, Note_on_c, 0, 35, 65
3, 206559, Note_on_c, 0, 35, 0
3, 206559, Note_on_c, 0, 36, 65
3, 206559, Note_on_c, 0, 48, 65
3, 206720, Note_on_c, 0, 48, 0
3, 206720, Note_on_c, 0, 36, 0
3, 206880, Note_on_c, 0, 35, 65
3, 207039, Note_on_c, 0, 35, 0
3, 207039, Note_on_c, 0, 36, 65
3, 207200, Note_on_c, 0, 36, 0
3, 207360, Note_on_c, 0, 35, 65
3, 207519, Note_on_c, 0, 35, 0
3, 207519, Note_on_c, 0, 36, 65
3, 207680, Note_on_c, 0, 36, 0
3, 207840, Note_on_c, 0, 39, 65
3, 207999, Note_on_c, 0, 39, 0
3, 207999, Note_on_c, 0, 40, 65
3, 208160, Note_on_c, 0, 40, 0
3, 208320, Note_on_c, 0, 42, 65
3, 208479, Note_on_c, 0, 42, 0
3, 208479, Note_on_c, 0, 43, 65
3, 208640, Note_on_c, 0, 43, 0
3, 208800, Note_on_c, 0, 47, 78
3, 208959, Note_on_c, 0, 47, 0
3, 208959, Note_on_c, 0, 48, 78
3, 209120, Note_on_c, 0, 48, 0
3, 209280, Note_on_c, 0, 51, 78
3, 209439, Note_on_c, 0, 51, 0
3, 209439, Note_on_c, 0, 52, 78
3, 209600, Note_on_c, 0, 52, 0
3, 209760, Note_on_c, 0, 54, 78
3, 209919, Note_on_c, 0, 54, 0
3, 209919, Note_on_c, 0, 55, 78
3, 210080, Note_on_c, 0, 55, 0
3, 210240, Note_on_c, 0, 59, 78
3, 210399, Note_on_c, 0, 59, 0
3, 210399, Note_on_c, 0, 60, 78
3, 210560, Note_on_c, 0, 60, 0
3, 210720, Note_on_c, 0, 41, 52
3, 210840, Note_on_c, 0, 41, 0
3, 210840, Note_on_c, 0, 48, 52
3, 210960, Note_on_c, 0, 48, 0
3, 210960, Note_on_c, 0, 53, 52
3, 211080, Note_on_c, 0, 53, 0
3, 211080, Note_on_c, 0, 60, 52
3, 211200, Note_on_c, 0, 60, 0
3, 211680, Note_on_c, 0, 44, 52
3, 211800, Note_on_c, 0, 44, 0
3, 211800, Note_on_c, 0, 53, 52
3, 211920, Note_on_c, 0, 53, 0
3, 211920, Note_on_c, 0, 60, 52
3, 212040, Note_on_c, 0, 60, 0
3, 212040, Note_on_c, 0, 65, 52
3, 212160, Note_on_c, 0, 65, 0
3, 212640, Note_on_c, 0, 43, 52
3, 212760, Note_on_c, 0, 43, 0
3, 212760, Note_on_c, 0, 51, 52
3, 212880, Note_on_c, 0, 51, 0
3, 212880, Note_on_c, 0, 58, 52
3, 213000, Note_on_c, 0, 58, 0
3, 213000, Note_on_c, 0, 63, 52
3, 213120, Note_on_c, 0, 63, 0
3, 213600, Note_on_c, 0, 39, 52
3, 213720, Note_on_c, 0, 39, 0
3, 213720, Note_on_c, 0, 46, 52
3, 213840, Note_on_c, 0, 46, 0
3, 213840, Note_on_c, 0, 55, 52
3, 213960, Note_on_c, 0, 55, 0
3, 213960, Note_on_c, 0, 58, 52
3, 214080, Note_on_c, 0, 58, 0
3, 214560, Note_on_c, 0, 44, 52
3, 214680, Note_on_c, 0, 44, 0
3, 214680, Note_on_c, 0, 51, 52
3, 214800, Note_on_c, 0, 51, 0
3, 214800, Note_on_c, 0, 56, 52
3, 214920, Note_on_c, 0, 56, 0
3, 214920, Note_on_c, 0, 60, 52
3, 215040, Note_on_c, 0, 60, 0
3, 215520, Note_on_c, 0, 48, 52
3, 215640, Note_on_c, 0, 48, 0
3, 215640, Note_on_c, 0, 56, 52
3, 215760, Note_on_c, 0, 56, 0
3, 215760, Note_on_c, 0, 63, 52
3, 215880, Note_on_c, 0, 63, 0
3, 215880, Note_on_c, 0, 68, 52
3, 216000, Note_on_c, 0, 68, 0
3, 216480, Note_on_c, 0, 47, 52
3, 216600, Note_on_c, 0, 47, 0
3, 216600, Note_on_c, 0, 55, 52
3, 216720, Note_on_c, 0, 55, 0
3, 216720, Note_on_c, 0, 62, 52
3, 216840, Note_on_c, 0, 62, 0
3, 216840, Note_on_c, 0, 67, 52
3, 216960, Note_on_c, 0, 67, 0
3, 217440, Note_on_c, 0, 43, 52
3, 217560, Note_on_c, 0, 43, 0
3, 217560, Note_on_c, 0, 50, 52
3, 217680, Note_on_c, 0, 50, 0
3, 217680, Note_on_c, 0, 55, 52
3, 217800, Note_on_c, 0, 55, 0
3, 217800, Note_on_c, 0, 62, 52
3, 217920, Note_on_c, 0, 62, 0
3, 218400, Note_on_c, 0, 48, 52
3, 218520, Note_on_c, 0, 48, 0
3, 218520, Note_on_c, 0, 55, 52
3, 218640, Note_on_c, 0, 55, 0
3, 218640, Note_on_c, 0, 60, 52
3, 218760, Note_on_c, 0, 60, 0
3, 218760, Note_on_c, 0, 67, 52
3, 218880, Note_on_c, 0, 67, 0
3, 219360, Note_on_c, 0, 55, 52
3, 219480, Note_on_c, 0, 55, 0
3, 219480, Note_on_c, 0, 60, 52
3, 219600, Note_on_c, 0, 60, 0
3, 219600, Note_on_c, 0, 67, 52
3, 219720, Note_on_c, 0, 67, 0
3, 219720, Note_on_c, 0, 72, 52
3, 219840, Note_on_c, 0, 72, 0
3, 220320, Control_c, 0, 64, 127
3, 220320, Note_on_c, 0, 50, 52
3, 220440, Note_on_c, 0, 50, 0
3, 220440, Note_on_c, 0, 53, 52
3, 220560, Note_on_c, 0, 53, 0
3, 220560, Note_on_c, 0, 55, 52
3, 220680, Note_on_c, 0, 55, 0
3, 220680, Note_on_c, 0, 62, 52
3, 220800, Note_on_c, 0, 62, 0
3, 222000, Control_c, 0, 64, 0
3, 222240, Note_on_c, 0, 48, 52
3, 222360, Note_on_c, 0, 48, 0
3, 222360, Note_on_c, 0, 55, 52
3, 222480, Note_on_c, 0, 55, 0
3, 222480, Note_on_c, 0, 60, 52
3, 222600, Note_on_c, 0, 60, 0
3, 222600, Note_on_c, 0, 67, 52
3, 222720, Note_on_c, 0, 67, 0
3, 223200, Note_on_c, 0, 55, 52
3, 223320, Note_on_c, 0, 55, 0
3, 223320, Note_on_c, 0, 60, 52
3, 223440, Note_on_c, 0, 60, 0
3, 223440, Note_on_c, 0, 67, 52
3, 223560, Note_on_c, 0, 67, 0
3, 223560, Note_on_c, 0, 72, 52
3, 223680, Note_on_c, 0, 72, 0
3, 224160, Control_c, 0, 64, 127
3, 224160, Note_on_c, 0, 50, 52
3, 224280, Note_on_c, 0, 50, 0
3, 224280, Note_on_c, 0, 53, 52
3, 224400, Note_on_c, 0, 53, 0
3, 224400, Note_on_c, 0, 55, 52
3, 224520, Note_on_c, 0, 55, 0
3, 224520, Note_on_c, 0, 62, 52
3, 224640, Note_on_c, 0, 62, 0
3, 225840, Control_c, 0, 64, 0
3, 231840, Note_on_c, 0, 47, 52
3, 231840, Note_on_c, 0, 55, 52
3, 231960, Note_on_c, 0, 55, 0
3, 231960, Note_on_c, 0, 47, 0
3, 231960, Note_on_c, 0, 48, 52
3, 231960, Note_on_c, 0, 52, 52
3, 232080, Note_on_c, 0, 52, 0
3, 232080, Note_on_c, 0, 48, 0
3, 232080, Note_on_c, 0, 60, 52
3, 232080, Note_on_c, 0, 64, 52
3, 232080, Note_on_c, 0, 67, 52
3, 232200, Note_on_c, 0, 67, 0
3, 232200, Note_on_c, 0, 64, 0
3, 232200, Note_on_c, 0, 60, 0
3, 232200, Note_on_c, 0, 55, 52
3, 232320, Note_on_c, 0, 55, 0
3, 232320, Note_on_c, 0, 42, 52
3, 232320, Note_on_c, 0, 52, 52
3, 232440, Note_on_c, 0, 52, 0
3, 232440, Note_on_c, 0, 42, 0
3, 232440, Note_on_c, 0, 43, 52
3, 232440, Note_on_c, 0, 48, 52
3, 232560, Note_on_c, 0, 48, 0
3, 232560, Note_on_c, 0, 43, 0
3, 232560, Note_on_c, 0, 55, 52
3, 232560, Note_on_c, 0, 60, 52
3, 232560, Note_on_c, 0, 64, 52
3, 232680, Note_on_c, 0, 64, 0
3, 232680, Note_on_c, 0, 60, 0
3, 232680, Note_on_c, 0, 55, 0
3, 232680, Note_on_c, 0, 52, 52
3, 232800, Note_on_c, 0, 52, 0
3, 232800, Note_on_c, 0, 39, 52
3, 232800, Note_on_c, 0, 48, 52
3, 232920, Note_on_c, 0, 48, 0
3, 232920, Note_on_c, 0, 39, 0
3, 232920, Note_on_c, 0, 40, 52
3, 232920, Note_on_c, 0, 43, 52
3, 233040, Note_on_c, 0, 43, 0
3, 233040, Note_on_c, 0, 40, 0
3, 233040, Note_on_c, 0, 52, 52
3, 233040, Note_on_c, 0, 55, 52
3, 233040, Note_on_c, 0, 60, 52
3, 233160, Note_on_c, 0, 60, 0
3, 233160, Note_on_c, 0, 55, 0
3, 233160, Note_on_c, 0, 52, 0
3, 233160, Note_on_c, 0, 48, 52
3, 233280, Note_on_c, 0, 48, 0
3, 233280, Note_on_c, 0, 35, 52
3, 233280, Note_on_c, 0, 43, 52
3, 233400, Note_on_c, 0, 43, 0
3, 233400, Note_on_c, 0, 35, 0
3, 233400, Note_on_c, 0, 36, 52
3, 233400, Note_on_c, 0, 40, 52
3, 233520, Note_on_c, 0, 40, 0
3, 233520, Note_on_c, 0, 36, 0
3, 233520, Note_on_c, 0, 48, 52
3, 233520, Note_on_c, 0, 52, 52
3, 233520, Note_on_c, 0, 55, 52
3, 233640, Note_on_c, 0, 55, 0
3, 233640, Note_on_c, 0, 52, 0
3, 233640, Note_on_c, 0, 48, 0
3, 233640, Note_on_c, 0, 43, 52
3, 233760, Note_on_c, 0, 43, 0
3, 233760, Control_c, 0, 64, 127
3, 233760, Note_on_c, 0, 24, 52
3, 233880, Note_on_c, 0, 24, 0
3, 233880, Note_on_c, 0, 31, 52
3, 234000, Note_on_c, 0, 31, 0
3, 234000, Note_on_c, 0, 36, 52
3, 234120, Note_on_c, 0, 36, 0
3, 234120, Note_on_c, 0, 40, 52
3, 234240, Note_on_c, 0, 40, 0
3, 234240, Note_on_c, 0, 43, 52
3, 234360, Note_on_c, 0, 43, 0
3, 234360, Note_on_c, 0, 48, 52
3, 234480, Note_on_c, 0, 48, 0
3, 234480, Note_on_c, 0, 52, 52
3, 234600, Note_on_c, 0, 52, 0
3, 234600, Note_on_c, 0, 55, 52
3, 234720, Note_on_c, 0, 55, 0
3, 234720, Note_on_c, 0, 48, 52
3, 234840, Note_on_c, 0, 48, 0
3, 234840, Note_on_c, 0, 55, 52
3, 234960, Note_on_c, 0, 55, 0
3, 234960, Note_on_c, 0, 60, 52
3, 235080, Note_on_c, 0, 60, 0
3, 235080, Note_on_c, 0, 64, 52
3, 235200, Note_on_c, 0, 64, 0
3, 235200, Control_c, 0, 64, 0
3, 237600, Control_c, 0, 64, 127
3, 237600, Note_on_c, 0, 24, 52
3, 237720, Note_on_c, 0, 24, 0
3, 237720, Note_on_c, 0, 32, 52
3, 237840, Note_on_c, 0, 32, 0
3, 237840, Note_on_c, 0, 36, 52
3, 237960, Note_on_c, 0, 36, 0
3, 237960, Note_on_c, 0, 41, 52
3, 238080, Note_on_c, 0, 41, 0
3, 238080, Note_on_c, 0, 44, 52
3, 238200, Note_on_c, 0, 44, 0
3, 238200, Note_on_c, 0, 48, 52
3, 238320, Note_on_c, 0, 48, 0
3, 238320, Note_on_c, 0, 53, 52
3, 238440, Note_on_c, 0, 53, 0
3, 238440, Note_on_c, 0, 56, 52
3, 238560, Note_on_c, 0, 56, 0
3, 238560, Note_on_c, 0, 48, 52
3, 238680, Note_on_c, 0, 48, 0
3, 238680, Note_on_c, 0, 56, 52
3, 238800, Note_on_c, 0, 56, 0
3, 238800, Note_on_c, 0, 60, 52
3, 238920, Note_on_c, 0, 60, 0
3, 238920, Note_on_c, 0, 65, 52
3, 239040, Note_on_c, 0, 65, 0
3, 239040, Control_c, 0, 64, 0
3, 251040, Note_on_c, 0, 65, 52
3, 251040, Note_on_c, 0, 69, 52
3, 251040, Note_on_c, 0, 75, 52
3, 251071, Note_on_c, 0, 75, 0
3, 251071, Note_on_c, 0, 69, 0
3, 251071, Note_on_c, 0, 65, 0
3, 251199, Note_on_c, 0, 65, 52
3, 251199, Note_on_c, 0, 69, 52
3, 251199, Note_on_c, 0, 75, 52
3, 251231, Note_on_c, 0, 75, 0
3, 251231, Note_on_c, 0, 69, 0
3, 251231, Note_on_c, 0, 65, 0
3, 251520, Note_on_c, 0, 65, 52
3, 251520, Note_on_c, 0, 69, 52
3, 251520, Note_on_c, 0, 75, 52
3, 251551, Note_on_c, 0, 75, 0
3, 251551, Note_on_c, 0, 69, 0
3, 251551, Note_on_c, 0, 65, 0
3, 251679, Note_on_c, 0, 65, 52
3, 251679, Note_on_c, 0, 69, 52
3, 251679, Note_on_c, 0, 75, 52
3, 251711, Note_on_c, 0, 75, 0
3, 251711, Note_on_c, 0, 69, 0
3, 251711, Note_on_c, 0, 65, 0
3, 252960, Note_on_c, 0, 41, 52
3, 252960, Note_on_c, 0, 45, 52
3, 252960, Note_on_c, 0, 51, 52
3, 252991, Note_on_c, 0, 51, 0
3, 252991, Note_on_c, 0, 45, 0
3, 252991, Note_on_c, 0, 41, 0
3, 253119, Note_on_c, 0, 41, 52
3, 253119, Note_on_c, 0, 45, 52
3, 253119, Note_on_c, 0, 51, 52
3, 253151, Note_on_c, 0, 51, 0
3, 253151, Note_on_c, 0, 45, 0
3, 253151, Note_on_c, 0, 41, 0
3, 253440, Note_on_c, 0, 41, 52
3, 253440, Note_on_c, 0, 45, 52
3, 253440, Note_on_c, 0, 51, 52
3, 253471, Note_on_c, 0, 51, 0
3, 253471, Note_on_c, 0, 45, 0
3, 253471, Note_on_c, 0, 41, 0
3, 253599, Note_on_c, 0, 41, 52
3, 253599, Note_on_c, 0, 45, 52
3, 253599, Note_on_c, 0, 51, 52
3, 253631, Note_on_c, 0, 51, 0
3, 253631, Note_on_c, 0, 45, 0
3, 253631, Note_on_c, 0, 41, 0
3, 253920, Note_on_c, 0, 41, 52
3, 253920, Note_on_c, 0, 45, 52
3, 253920, Note_on_c, 0, 51, 52
3, 253951, Note_on_c, 0, 51, 0
3, 253951, Note_on_c, 0, 45, 0
3, 253951, Note_on_c, 0, 41, 0
3, 254079, Note_on_c, 0, 41, 52
3, 254079, Note_on_c, 0, 45, 52
3, 254079, Note_on_c, 0, 51, 52
3, 254111, Note_on_c, 0, 51, 0
3, 254111, Note_on_c, 0, 45, 0
3, 254111, Note_on_c, 0, 41, 0
3, 254400, Note_on_c, 0, 41, 52
3, 254400, Note_on_c, 0, 45, 52
3, 254400, Note_on_c, 0, 51, 52
3, 254431, Note_on_c, 0, 51, 0
3, 254431, Note_on_c, 0, 45, 0
3, 254431, Note_on_c, 0, 41, 0
3, 254559, Note_on_c, 0, 41, 52
3, 254559, Note_on_c, 0, 45, 52
3, 254559, Note_on_c, 0, 51, 52
3, 254591, Note_on_c, 0, 51, 0
3, 254591, Note_on_c, 0, 45, 0
3, 254591, Note_on_c, 0, 41, 0
3, 254880, Note_on_c, 0, 41, 52
3, 254880, Note_on_c, 0, 45, 52
3, 254880, Note_on_c, 0, 51, 52
3, 254911, Note_on_c, 0, 51, 0
3, 254911, Note_on_c, 0, 45, 0
3, 254911, Note_on_c, 0, 41, 0
3, 255039, Note_on_c, 0, 41, 52
3, 255039, Note_on_c, 0, 45, 52
3, 255039, Note_on_c, 0, 51, 52
3, 255071, Note_on_c, 0, 51, 0
3, 255071, Note_on_c, 0, 45, 0
3, 255071, Note_on_c, 0, 41, 0
3, 255360, Note_on_c, 0, 41, 52
3, 255360, Note_on_c, 0, 45, 52
3, 255360, Note_on_c, 0, 51, 52
3, 255391, Note_on_c, 0, 51, 0
3, 255391, Note_on_c, 0, 45, 0
3, 255391, Note_on_c, 0, 41, 0
3, 255519, Note_on_c, 0, 41, 52
3, 255519, Note_on_c, 0, 45, 52
3, 255519, Note_on_c, 0, 51, 52
3, 255551, Note_on_c, 0, 51, 0
3, 255551, Note_on_c, 0, 45, 0
3, 255551, Note_on_c, 0, 41, 0
3, 255840, Note_on_c, 0, 41, 52
3, 255840, Note_on_c, 0, 45, 52
3, 255840, Note_on_c, 0, 47, 52
3, 255871, Note_on_c, 0, 47, 0
3, 255871, Note_on_c, 0, 45, 0
3, 255871, Note_on_c, 0, 41, 0
3, 255999, Note_on_c, 0, 41, 52
3, 255999, Note_on_c, 0, 45, 52
3, 255999, Note_on_c, 0, 48, 52
3, 256031, Note_on_c, 0, 48, 0
3, 256031, Note_on_c, 0, 45, 0
3, 256031, Note_on_c, 0, 41, 0
3, 256320, Note_on_c, 0, 41, 52
3, 256320, Note_on_c, 0, 45, 52
3, 256320, Note_on_c, 0, 47, 52
3, 256351, Note_on_c, 0, 47, 0
3, 256351, Note_on_c, 0, 45, 0
3, 256351, Note_on_c, 0, 41, 0
3, 256479, Note_on_c, 0, 41, 52
3, 256479, Note_on_c, 0, 45, 52
3, 256479, Note_on_c, 0, 48, 52
3, 256511, Note_on_c, 0, 48, 0
3, 256511, Note_on_c, 0, 45, 0
3, 256511, Note_on_c, 0, 41, 0
3, 256800, Note_on_c, 0, 36, 39
3, 256800, Note_on_c, 0, 41, 39
3, 256800, Note_on_c, 0, 44, 39
3, 256831, Note_on_c, 0, 44, 0
3, 256831, Note_on_c, 0, 41, 0
3, 256831, Note_on_c, 0, 36, 0
3, 256959, Note_on_c, 0, 36, 39
3, 256959, Note_on_c, 0, 41, 39
3, 256959, Note_on_c, 0, 45, 39
3, 256991, Note_on_c, 0, 45, 0
3, 256991, Note_on_c, 0, 41, 0
3, 256991, Note_on_c, 0, 36, 0
3, 257280, Note_on_c, 0, 36, 39
3, 257280, Note_on_c, 0, 41, 39
3, 257280, Note_on_c, 0, 44, 39
3, 257311, Note_on_c, 0, 44, 0
3, 257311, Note_on_c, 0, 41, 0
3, 257311, Note_on_c, 0, 36, 0
3, 257439, Note_on_c, 0, 36, 39
3, 257439, Note_on_c, 0, 41, 39
3, 257439, Note_on_c, 0, 45, 39
3, 257471, Note_on_c, 0, 45, 0
3, 257471, Note_on_c, 0, 41, 0
3, 257471, Note_on_c, 0, 36, 0
3, 257760, Note_on_c, 0, 33, 39
3, 257760, Note_on_c, 0, 36, 39
3, 257760, Note_on_c, 0, 40, 39
3, 257791, Note_on_c, 0, 40, 0
3, 257791, Note_on_c, 0, 36, 0
3, 257791, Note_on_c, 0, 33, 0
3, 257919, Note_on_c, 0, 33, 39
3, 257919, Note_on_c, 0, 36, 39
3, 257919, Note_on_c, 0, 41, 39
3, 257951, Note_on_c, 0, 41, 0
3, 257951, Note_on_c, 0, 36, 0
3, 257951, Note_on_c, 0, 33, 0
3, 258240, Note_on_c, 0, 33, 39
3, 258240, Note_on_c, 0, 36, 39
3, 258240, Note_on_c, 0, 40, 39
3, 258271, Note_on_c, 0, 40, 0
3, 258271, Note_on_c, 0, 36, 0
3, 258271, Note_on_c, 0, 33, 0
3, 258399, Note_on_c, 0, 33, 39
3, 258399, Note_on_c, 0, 36, 39
3, 258399, Note_on_c, 0, 41, 39
3, 258431, Note_on_c, 0, 41, 0
3, 258431, Note_on_c, 0, 36, 0
3, 258431, Note_on_c, 0, 33, 0
3, 258720, Note_on_c, 0, 33, 39
3, 258720, Note_on_c, 0, 35, 39
3, 258751, Note_on_c, 0, 35, 0
3, 258751, Note_on_c, 0, 33, 0
3, 258879, Note_on_c, 0, 33, 39
3, 258879, Note_on_c, 0, 36, 39
3, 258911, Note_on_c, 0, 36, 0
3, 258911, Note_on_c, 0, 33, 0
3, 259200, Note_on_c, 0, 33, 39
3, 259200, Note_on_c, 0, 35, 39
3, 259231, Note_on_c, 0, 35, 0
3, 259231, Note_on_c, 0, 33, 0
3, 259359, Note_on_c, 0, 33, 39
3, 259359, Note_on_c, 0, 36, 39
3, 259391, Note_on_c, 0, 36, 0
3, 259391, Note_on_c, 0, 33, 0
3, 259680, Note_on_c, 0, 32, 39
3, 259711, Note_on_c, 0, 32, 0
3, 259839, Note_on_c, 0, 33, 39
3, 259871, Note_on_c, 0, 33, 0
3, 260160, Note_on_c, 0, 32, 39
3, 260191, Note_on_c, 0, 32, 0
3, 260319, Note_on_c, 0, 33, 39
3, 260351, Note_on_c, 0, 33, 0
3, 264480, Note_on_c, 0, 32, 65
3, 264503, Note_on_c, 0, 32, 0
3, 264600, Note_on_c, 0, 44, 65
3, 264600, Note_on_c, 0, 56, 65
3, 264623, Note_on_c, 0, 56, 0
3, 264623, Note_on_c, 0, 44, 0
3, 264720, Note_on_c, 0, 33, 65
3, 264743, Note_on_c, 0, 33, 0
3, 264840, Note_on_c, 0, 45, 65
3, 264840, Note_on_c, 0, 57, 65
3, 264863, Note_on_c, 0, 57, 0
3, 264863, Note_on_c, 0, 45, 0
3, 264960, Note_on_c, 0, 32, 65
3, 264983, Note_on_c, 0, 32, 0
3, 265080, Note_on_c, 0, 44, 65
3, 265080, Note_on_c, 0, 56, 65
3, 265103, Note_on_c, 0, 56, 0
3, 265103, Note_on_c, 0, 44, 0
3, 265200, Note_on_c, 0, 33, 65
3, 265223, Note_on_c, 0, 33, 0
3, 265320, Note_on_c, 0, 45, 65
3, 265320, Note_on_c, 0, 57, 65
3, 265343, Note_on_c, 0, 57, 0
3, 265343, Note_on_c, 0, 45, 0
3, 265440, Note_on_c, 0, 35, 65
3, 265463, Note_on_c, 0, 35, 0
3, 265560, Note_on_c, 0, 47, 65
3, 265560, Note_on_c, 0, 59, 65
3, 265583, Note_on_c, 0, 59, 0
3, 265583, Note_on_c, 0, 47, 0
3, 265680, Note_on_c, 0, 36, 65
3, 265703, Note_on_c, 0, 36, 0
3, 265800, Note_on_c, 0, 48, 65
3, 265800, Note_on_c, 0, 60, 65
3, 265823, Note_on_c, 0, 60, 0
3, 265823, Note_on_c, 0, 48, 0
3, 265920, Note_on_c, 0, 35, 65
3, 265943, Note_on_c, 0, 35, 0
3, 266040, Note_on_c, 0, 47, 65
3, 266040, Note_on_c, 0, 59, 65
3, 266063, Note_on_c, 0, 59, 0
3, 266063, Note_on_c, 0, 47, 0
3, 266160, Note_on_c, 0, 36, 65
3, 266183, Note_on_c, 0, 36, 0
3, 266280, Note_on_c, 0, 48, 65
3, 266280, Note_on_c, 0, 60, 65
3, 266303, Note_on_c, 0, 60, 0
3, 266303, Note_on_c, 0, 48, 0
3, 266400, Note_on_c, 0, 40, 65
3, 266423, Note_on_c, 0, 40, 0
3, 266520, Note_on_c, 0, 52, 65
3, 266520, Note_on_c, 0, 64, 65
3, 266543, Note_on_c, 0, 64, 0
3, 266543, Note_on_c, 0, 52, 0
3, 266640, Note_on_c, 0, 41, 65
3, 266663, Note_on_c, 0, 41, 0
3, 266760, Note_on_c, 0, 53, 65
3, 266760, Note_on_c, 0, 65, 65
3, 266783, Note_on_c, 0, 65, 0
3, 266783, Note_on_c, 0, 53, 0
3, 266880, Note_on_c, 0, 40, 65
3, 266903, Note_on_c, 0, 40, 0
3, 267000, Note_on_c, 0, 52, 65
3, 267000, Note_on_c, 0, 64, 65
3, 267023, Note_on_c, 0, 64, 0
3, 267023, Note_on_c, 0, 52, 0
3, 267120, Note_on_c, 0, 41, 65
3, 267143, Note_on_c, 0, 41, 0
3, 267240, Note_on_c, 0, 53, 65
3, 267240, Note_on_c, 0, 65, 65
3, 267263, Note_on_c, 0, 65, 0
3, 267263, Note_on_c, 0, 53, 0
3, 267360, Note_on_c, 0, 44, 65
3, 267383, Note_on_c, 0, 44, 0
3, 267480, Note_on_c, 0, 56, 65
3, 267480, Note_on_c, 0, 68, 65
3, 267503, Note_on_c, 0, 68, 0
3, 267503, Note_on_c, 0, 56, 0
3, 267600, Note_on_c, 0, 45, 65
3, 267623, Note_on_c, 0, 45, 0
3, 267720, Note_on_c, 0, 57, 65
3, 267720, Note_on_c, 0, 69, 65
3, 267743, Note_on_c, 0, 69, 0
3, 267743, Note_on_c, 0, 57, 0
3, 267840, Note_on_c, 0, 44, 65
3, 267863, Note_on_c, 0, 44, 0
3, 267960, Note_on_c, 0, 56, 65
3, 267960, Note_on_c, 0, 68, 65
3, 267983, Note_on_c, 0, 68, 0
3, 267983, Note_on_c, 0, 56, 0
3, 268080, Note_on_c, 0, 45, 65
3, 268103, Note_on_c, 0, 45, 0
3, 268200, Note_on_c, 0, 57, 65
3, 268200, Note_on_c, 0, 69, 65
3, 268223, Note_on_c, 0, 69, 0
3, 268223, Note_on_c, 0, 57, 0
3, 279840, Note_on_c, 0, 52, 65
3, 279863, Note_on_c, 0, 52, 0
3, 279960, Note_on_c, 0, 64, 65
3, 279960, Note_on_c, 0, 76, 65
3, 279983, Note_on_c, 0, 76, 0
3, 279983, Note_on_c, 0, 64, 0
3, 280080, Note_on_c, 0, 53, 65
3, 280103, Note_on_c, 0, 53, 0
3, 280200, Note_on_c, 0, 65, 65
3, 280200, Note_on_c, 0, 77, 65
3, 280223, Note_on_c, 0, 77, 0
3, 280223, Note_on_c, 0, 65, 0
3, 280320, Note_on_c, 0, 58, 91
3, 280343, Note_on_c, 0, 58, 0
3, 280440, Note_on_c, 0, 70, 65
3, 280440, Note_on_c, 0, 82, 65
3, 280463, Note_on_c, 0, 82, 0
3, 280463, Note_on_c, 0, 70, 0
3, 280560, Note_on_c, 0, 53, 65
3, 280583, Note_on_c, 0, 53, 0
3, 280680, Note_on_c, 0, 65, 65
3, 280680, Note_on_c, 0, 77, 65
3, 280703, Note_on_c, 0, 77, 0
3, 280703, Note_on_c, 0, 65, 0
3, 280800, Note_on_c, 0, 51, 65
3, 280823, Note_on_c, 0, 51, 0
3, 280920, Note_on_c, 0, 63, 65
3, 280920, Note_on_c, 0, 75, 65
3, 280943, Note_on_c, 0, 75, 0
3, 280943, Note_on_c, 0, 63, 0
3, 281040, Note_on_c, 0, 49, 65
3, 281063, Note_on_c, 0, 49, 0
3, 281160, Note_on_c, 0, 61, 65
3, 281160, Note_on_c, 0, 73, 65
3, 281183, Note_on_c, 0, 73, 0
3, 281183, Note_on_c, 0, 61, 0
3, 281280, Note_on_c, 0, 48, 65
3, 281303, Note_on_c, 0, 48, 0
3, 281400, Note_on_c, 0, 60, 65
3, 281400, Note_on_c, 0, 72, 65
3, 281423, Note_on_c, 0, 72, 0
3, 281423, Note_on_c, 0, 60, 0
3, 281520, Note_on_c, 0, 46, 65
3, 281543, Note_on_c, 0, 46, 0
3, 281640, Note_on_c, 0, 58, 65
3, 281640, Note_on_c, 0, 70, 65
3, 281663, Note_on_c, 0, 70, 0
3, 281663, Note_on_c, 0, 58, 0
3, 281760, Note_on_c, 0, 48, 65
3, 281783, Note_on_c, 0, 48, 0
3, 281880, Note_on_c, 0, 60, 65
3, 281880, Note_on_c, 0, 72, 65
3, 281903, Note_on_c, 0, 72, 0
3, 281903, Note_on_c, 0, 60, 0
3, 282000, Note_on_c, 0, 49, 65
3, 282023, Note_on_c, 0, 49, 0
3, 282120, Note_on_c, 0, 61, 65
3, 282120, Note_on_c, 0, 73, 65
3, 282143, Note_on_c, 0, 73, 0
3, 282143, Note_on_c, 0, 61, 0
3, 282240, Note_on_c, 0, 47, 65
3, 282263, Note_on_c, 0, 47, 0
3, 282360, Note_on_c, 0, 59, 65
3, 282360, Note_on_c, 0, 71, 65
3, 282383, Note_on_c, 0, 71, 0
3, 282383, Note_on_c, 0, 59, 0
3, 282480, Note_on_c, 0, 48, 65
3, 282503, Note_on_c, 0, 48, 0
3, 282600, Note_on_c, 0, 60, 65
3, 282600, Note_on_c, 0, 72, 65
3, 282623, Note_on_c, 0, 72, 0
3, 282623, Note_on_c, 0, 60, 0
3, 282720, Note_on_c, 0, 49, 65
3, 282743, Note_on_c, 0, 49, 0
3, 282840, Note_on_c, 0, 61, 65
3, 282840, Note_on_c, 0, 73, 65
3, 282863, Note_on_c, 0, 73, 0
3, 282863, Note_on_c, 0, 61, 0
3, 282960, Note_on_c, 0, 48, 65
3, 282983, Note_on_c, 0, 48, 0
3, 283080, Note_on_c, 0, 60, 65
3, 283080, Note_on_c, 0, 72, 65
3, 283103, Note_on_c, 0, 72, 0
3, 283103, Note_on_c, 0, 60, 0
3, 283200, Note_on_c, 0, 54, 65
3, 283223, Note_on_c, 0, 54, 0
3, 283320, Note_on_c, 0, 66, 65
3, 283320, Note_on_c, 0, 78, 65
3, 283343, Note_on_c, 0, 78, 0
3, 283343, Note_on_c, 0, 66, 0
3, 283440, Note_on_c, 0, 53, 65
3, 283463, Note_on_c, 0, 53, 0
3, 283560, Note_on_c, 0, 65, 65
3, 283560, Note_on_c, 0, 77, 65
3, 283583, Note_on_c, 0, 77, 0
3, 283583, Note_on_c, 0, 65, 0
3, 283680, Note_on_c, 0, 58, 65
3, 283703, Note_on_c, 0, 58, 0
3, 283800, Note_on_c, 0, 70, 65
3, 283800, Note_on_c, 0, 82, 65
3, 283823, Note_on_c, 0, 82, 0
3, 283823, Note_on_c, 0, 70, 0
3, 283920, Note_on_c, 0, 60, 65
3, 283943, Note_on_c, 0, 60, 0
3, 284040, Note_on_c, 0, 72, 65
3, 284040, Note_on_c, 0, 84, 65
3, 284063, Note_on_c, 0, 84, 0
3, 284063, Note_on_c, 0, 72, 0
3, 284160, Note_on_c, 0, 61, 65
3, 284183, Note_on_c, 0, 61, 0
3, 284280, Note_on_c, 0, 73, 65
3, 284280, Note_on_c, 0, 85, 65
3, 284303, Note_on_c, 0, 85, 0
3, 284303, Note_on_c, 0, 73, 0
3, 284400, Note_on_c, 0, 60, 65
3, 284423, Note_on_c, 0, 60, 0
3, 284520, Note_on_c, 0, 72, 65
3, 284520, Note_on_c, 0, 84, 65
3, 284543, Note_on_c, 0, 84, 0
3, 284543, Note_on_c, 0, 72, 0
3, 284640, Note_on_c, 0, 63, 91
3, 284663, Note_on_c, 0, 63, 0
3, 284760, Note_on_c, 0, 75, 65
3, 284760, Note_on_c, 0, 87, 65
3, 284783, Note_on_c, 0, 87, 0
3, 284783, Note_on_c, 0, 75, 0
3, 284880, Note_on_c, 0, 61, 65
3, 284903, Note_on_c, 0, 61, 0
3, 285000, Note_on_c, 0, 73, 65
3, 285000, Note_on_c, 0, 85, 65
3, 285023, Note_on_c, 0, 85, 0
3, 285023, Note_on_c, 0, 73, 0
3, 285120, Note_on_c, 0, 60, 65
3, 285143, Note_on_c, 0, 60, 0
3, 285240, Note_on_c, 0, 72, 65
3, 285240, Note_on_c, 0, 84, 65
3, 285263, Note_on_c, 0, 84, 0
3, 285263, Note_on_c, 0, 72, 0
3, 285360, Note_on_c, 0, 58, 65
3, 285383, Note_on_c, 0, 58, 0
3, 285480, Note_on_c, 0, 70, 65
3, 285480, Note_on_c, 0, 82, 65
3, 285503, Note_on_c, 0, 82, 0
3, 285503, Note_on_c, 0, 70, 0
3, 285600, Note_on_c, 0, 56, 65
3, 285623, Note_on_c, 0, 56, 0
3, 285720, Note_on_c, 0, 68, 65
3, 285720, Note_on_c, 0, 80, 65
3, 285743, Note_on_c, 0, 80, 0
3, 285743, Note_on_c, 0, 68, 0
3, 285840, Note_on_c, 0, 57, 65
3, 285863, Note_on_c, 0, 57, 0
3, 285960, Note_on_c, 0, 69, 65
3, 285960, Note_on_c, 0, 81, 65
3, 285983, Note_on_c, 0, 81, 0
3, 285983, Note_on_c, 0, 69, 0
3, 286080, Note_on_c, 0, 52, 65
3, 286103, Note_on_c, 0, 52, 0
3, 286200, Note_on_c, 0, 64, 65
3, 286200, Note_on_c, 0, 76, 65
3, 286223, Note_on_c, 0, 76, 0
3, 286223, Note_on_c, 0, 64, 0
3, 286320, Note_on_c, 0, 53, 65
3, 286343, Note_on_c, 0, 53, 0
3, 286440, Note_on_c, 0, 65, 65
3, 286440, Note_on_c, 0, 77, 65
3, 286463, Note_on_c, 0, 77, 0
3, 286463, Note_on_c, 0, 65, 0
3, 286560, Note_on_c, 0, 56, 65
3, 286583, Note_on_c, 0, 56, 0
3, 286680, Note_on_c, 0, 68, 65
3, 286680, Note_on_c, 0, 80, 65
3, 286703, Note_on_c, 0, 80, 0
3, 286703, Note_on_c, 0, 68, 0
3, 286800, Note_on_c, 0, 57, 65
3, 286823, Note_on_c, 0, 57, 0
3, 286920, Note_on_c, 0, 69, 65
3, 286920, Note_on_c, 0, 81, 65
3, 286943, Note_on_c, 0, 81, 0
3, 286943, Note_on_c, 0, 69, 0
3, 287040, Note_on_c, 0, 52, 65
3, 287063, Note_on_c, 0, 52, 0
3, 287160, Note_on_c, 0, 64, 65
3, 287160, Note_on_c, 0, 76, 65
3, 287183, Note_on_c, 0, 76, 0
3, 287183, Note_on_c, 0, 64, 0
3, 287280, Note_on_c, 0, 53, 65
3, 287303, Note_on_c, 0, 53, 0
3, 287400, Note_on_c, 0, 65, 65
3, 287400, Note_on_c, 0, 77, 65
3, 287423, Note_on_c, 0, 77, 0
3, 287423, Note_on_c, 0, 65, 0
3, 287520, Note_on_c, 0, 52, 65
3, 287543, Note_on_c, 0, 52, 0
3, 287640, Note_on_c, 0, 64, 65
3, 287640, Note_on_c, 0, 76, 65
3, 287663, Note_on_c, 0, 76, 0
3, 287663, Note_on_c, 0, 64, 0
3, 287760, Note_on_c, 0, 53, 65
3, 287783, Note_on_c, 0, 53, 0
3, 287880, Note_on_c, 0, 65, 65
3, 287880, Note_on_c, 0, 77, 65
3, 287903, Note_on_c, 0, 77, 0
3, 287903, Note_on_c, 0, 65, 0
3, 288000, Note_on_c, 0, 58, 91
3, 288023, Note_on_c, 0, 58, 0
3, 288120, Note_on_c, 0, 70, 65
3, 288120, Note_on_c, 0, 82, 65
3, 288143, Note_on_c, 0, 82, 0
3, 288143, Note_on_c, 0, 70, 0
3, 288240, Note_on_c, 0, 53, 65
3, 288263, Note_on_c, 0, 53, 0
3, 288360, Note_on_c, 0, 65, 65
3, 288360, Note_on_c, 0, 77, 65
3, 288383, Note_on_c, 0, 77, 0
3, 288383, Note_on_c, 0, 65, 0
3, 288480, Note_on_c, 0, 51, 65
3, 288503, Note_on_c, 0, 51, 0
3, 288600, Note_on_c, 0, 63, 65
3, 288600, Note_on_c, 0, 75, 65
3, 288623, Note_on_c, 0, 75, 0
3, 288623, Note_on_c, 0, 63, 0
3, 288720, Note_on_c, 0, 49, 65
3, 288743, Note_on_c, 0, 49, 0
3, 288840, Note_on_c, 0, 61, 65
3, 288840, Note_on_c, 0, 73, 65
3, 288863, Note_on_c, 0, 73, 0
3, 288863, Note_on_c, 0, 61, 0
3, 288960, Note_on_c, 0, 48, 65
3, 288983, Note_on_c, 0, 48, 0
3, 289080, Note_on_c, 0, 60, 65
3, 289080, Note_on_c, 0, 72, 65
3, 289103, Note_on_c, 0, 72, 0
3, 289103, Note_on_c, 0, 60, 0
3, 289200, Note_on_c, 0, 46, 65
3, 289223, Note_on_c, 0, 46, 0
3, 289320, Note_on_c, 0, 58, 65
3, 289320, Note_on_c, 0, 70, 65
3, 289343, Note_on_c, 0, 70, 0
3, 289343, Note_on_c, 0, 58, 0
3, 289440, Note_on_c, 0, 48, 65
3, 289463, Note_on_c, 0, 48, 0
3, 289560, Note_on_c, 0, 60, 65
3, 289560, Note_on_c, 0, 72, 65
3, 289583, Note_on_c, 0, 72, 0
3, 289583, Note_on_c, 0, 60, 0
3, 289680, Note_on_c, 0, 49, 65
3, 289703, Note_on_c, 0, 49, 0
3, 289800, Note_on_c, 0, 61, 65
3, 289800, Note_on_c, 0, 73, 65
3, 289823, Note_on_c, 0, 73, 0
3, 289823, Note_on_c, 0, 61, 0
3, 289920, Note_on_c, 0, 53, 91
3, 289943, Note_on_c, 0, 53, 0
3, 290040, Note_on_c, 0, 65, 65
3, 290040, Note_on_c, 0, 77, 65
3, 290063, Note_on_c, 0, 77, 0
3, 290063, Note_on_c, 0, 65, 0
3, 290160, Note_on_c, 0, 49, 65
3, 290183, Note_on_c, 0, 49, 0
3, 290280, Note_on_c, 0, 61, 65
3, 290280, Note_on_c, 0, 73, 65
3, 290303, Note_on_c, 0, 73, 0
3, 290303, Note_on_c, 0, 61, 0
3, 290400, Note_on_c, 0, 48, 65
3, 290423, Note_on_c, 0, 48, 0
3, 290520, Note_on_c, 0, 60, 65
3, 290520, Note_on_c, 0, 72, 65
3, 290543, Note_on_c, 0, 72, 0
3, 290543, Note_on_c, 0, 60, 0
3, 290640, Note_on_c, 0, 46, 65
3, 290663, Note_on_c, 0, 46, 0
3, 290760, Note_on_c, 0, 58, 65
3, 290760, Note_on_c, 0, 70, 65
3, 290783, Note_on_c, 0, 70, 0
3, 290783, Note_on_c, 0, 58, 0
3, 290880, Note_on_c, 0, 42, 65
3, 290903, Note_on_c, 0, 42, 0
3, 291000, Note_on_c, 0, 54, 65
3, 291000, Note_on_c, 0, 66, 65
3, 291023, Note_on_c, 0, 66, 0
3, 291023, Note_on_c, 0, 54, 0
3, 291120, Note_on_c, 0, 41, 65
3, 291143, Note_on_c, 0, 41, 0
3, 291240, Note_on_c, 0, 53, 65
3, 291240, Note_on_c, 0, 65, 65
3, 291263, Note_on_c, 0, 65, 0
3, 291263, Note_on_c, 0, 53, 0
3, 291360, Note_on_c, 0, 40, 65
3, 291383, Note_on_c, 0, 40, 0
3, 291480, Note_on_c, 0, 52, 65
3, 291480, Note_on_c, 0, 64, 65
3, 291503, Note_on_c, 0, 64, 0
3, 291503, Note_on_c, 0, 52, 0
3, 291600, Note_on_c, 0, 41, 65
3, 291623, Note_on_c, 0, 41, 0
3, 291720, Note_on_c, 0, 53, 65
3, 291720, Note_on_c, 0, 65, 65
3, 291743, Note_on_c, 0, 65, 0
3, 291743, Note_on_c, 0, 53, 0
3, 291840, Note_on_c, 0, 46, 91
3, 291863, Note_on_c, 0, 46, 0
3, 291960, Note_on_c, 0, 58, 65
3, 291960, Note_on_c, 0, 70, 65
3, 291983, Note_on_c, 0, 70, 0
3, 291983, Note_on_c, 0, 58, 0
3, 292080, Note_on_c, 0, 41, 65
3, 292103, Note_on_c, 0, 41, 0
3, 292200, Note_on_c, 0, 53, 65
3, 292200, Note_on_c, 0, 65, 65
3, 292223, Note_on_c, 0, 65, 0
3, 292223, Note_on_c, 0, 53, 0
3, 292320, Note_on_c, 0, 39, 65
3, 292343, Note_on_c, 0, 39, 0
3, 292440, Note_on_c, 0, 51, 65
3, 292440, Note_on_c, 0, 63, 65
3, 292463, Note_on_c, 0, 63, 0
3, 292463, Note_on_c, 0, 51, 0
3, 292560, Note_on_c, 0, 37, 65
3, 292583, Note_on_c, 0, 37, 0
3, 292680, Note_on_c, 0, 49, 65
3, 292680, Note_on_c, 0, 61, 65
3, 292703, Note_on_c, 0, 61, 0
3, 292703, Note_on_c, 0, 49, 0
3, 292800, Note_on_c, 0, 36, 65
3, 292823, Note_on_c, 0, 36, 0
3, 292920, Note_on_c, 0, 48, 65
3, 292920, Note_on_c, 0, 60, 65
3, 292943, Note_on_c, 0, 60, 0
3, 292943, Note_on_c, 0, 48, 0
3, 293040, Note_on_c, 0, 34, 65
3, 293063, Note_on_c, 0, 34, 0
3, 293160, Note_on_c, 0, 46, 65
3, 293160, Note_on_c, 0, 58, 65
3, 293183, Note_on_c, 0, 58, 0
3, 293183, Note_on_c, 0, 46, 0
3, 293280, Note_on_c, 0, 33, 65
3, 293280, Note_on_c, 0, 45, 65
3, 293303, Note_on_c, 0, 45, 0
3, 293303, Note_on_c, 0, 33, 0
3, 293400, Note_on_c, 0, 57, 65
3, 293423, Note_on_c, 0, 57, 0
3, 293520, Note_on_c, 0, 34, 65
3, 293520, Note_on_c, 0, 46, 65
3, 293543, Note_on_c, 0, 46, 0
3, 293543, Note_on_c, 0, 34, 0
3, 293640, Note_on_c, 0, 58, 65
3, 293663, Note_on_c, 0, 58, 0
3, 293760, Note_on_c, 0, 30, 65
3, 293760, Note_on_c, 0, 42, 65
3, 293783, Note_on_c, 0, 42, 0
3, 293783, Note_on_c, 0, 30, 0
3, 293880, Note_on_c, 0, 54, 65
3, 293903, Note_on_c, 0, 54, 0
3, 294000, Note_on_c, 0, 29, 65
3, 294000, Note_on_c, 0, 41, 65
3, 294023, Note_on_c, 0, 41, 0
3, 294023, Note_on_c, 0, 29, 0
3, 294120, Note_on_c, 0, 53, 65
3, 294143, Note_on_c, 0, 53, 0
3, 294240, Note_on_c, 0, 28, 65
3, 294240, Note_on_c, 0, 40, 65
3, 294263, Note_on_c, 0, 40, 0
3, 294263, Note_on_c, 0, 28, 0
3, 294360, Note_on_c, 0, 52, 65
3, 294383, Note_on_c, 0, 52, 0
3, 294480, Note_on_c, 0, 29, 65
3, 294480, Note_on_c, 0, 41, 65
3, 294503, Note_on_c, 0, 41, 0
3, 294503, Note_on_c, 0, 29, 0
3, 294600, Note_on_c, 0, 53, 65
3, 294623, Note_on_c, 0, 53, 0
3, 294720, Note_on_c, 0, 24, 65
3, 294720, Note_on_c, 0, 36, 65
3, 294743, Note_on_c, 0, 36, 0
3, 294743, Note_on_c, 0, 24, 0
3, 294840, Note_on_c, 0, 48, 65
3, 294863, Note_on_c, 0, 48, 0
3, 294960, Note_on_c, 0, 25, 65
3, 294960, Note_on_c, 0, 37, 65
3, 294983, Note_on_c, 0, 37, 0
3, 294983, Note_on_c, 0, 25, 0
3, 295080, Note_on_c, 0, 49, 65
3, 295103, Note_on_c, 0, 49, 0
3, 295200, Note_on_c, 0, 21, 65
3, 295200, Note_on_c, 0, 33, 65
3, 295223, Note_on_c, 0, 33, 0
3, 295223, Note_on_c, 0, 21, 0
3, 295320, Note_on_c, 0, 45, 65
3, 295343, Note_on_c, 0, 45, 0
3, 295440, Note_on_c, 0, 22, 65
3, 295440, Note_on_c, 0, 34, 65
3, 295463, Note_on_c, 0, 34, 0
3, 295463, Note_on_c, 0, 22, 0
3, 295560, Note_on_c, 0, 46, 65
3, 295583, Note_on_c, 0, 46, 0
3, 295680, Note_on_c, 0, 16, 65
3, 295680, Note_on_c, 0, 28, 65
3, 295703, Note_on_c, 0, 28, 0
3, 295703, Note_on_c, 0, 16, 0
3, 295800, Note_on_c, 0, 40, 65
3, 295823, Note_on_c, 0, 40, 0
3, 295920, Note_on_c, 0, 17, 65
3, 295920, Note_on_c, 0, 29, 65
3, 295943, Note_on_c, 0, 29, 0
3, 295943, Note_on_c, 0, 17, 0
3, 296040, Note_on_c, 0, 41, 65
3, 296063, Note_on_c, 0, 41, 0
3, 296160, Note_on_c, 0, 21, 65
3, 296160, Note_on_c, 0, 33, 65
3, 296183, Note_on_c, 0, 33, 0
3, 296183, Note_on_c, 0, 21, 0
3, 296280, Note_on_c, 0, 45, 65
3, 296303, Note_on_c, 0, 45, 0
3, 296400, Note_on_c, 0, 22, 65
3, 296400, Note_on_c, 0, 34, 65
3, 296423, Note_on_c, 0, 34, 0
3, 296423, Note_on_c, 0, 22, 0
3, 296520, Note_on_c, 0, 46, 65
3, 296543, Note_on_c, 0, 46, 0
3, 296640, Note_on_c, 0, 16, 65
3, 296640, Note_on_c, 0, 28, 65
3, 296663, Note_on_c, 0, 28, 0
3, 296663, Note_on_c, 0, 16, 0
3, 296760, Note_on_c, 0, 40, 65
3, 296783, Note_on_c, 0, 40, 0
3, 296880, Note_on_c, 0, 17, 65
3, 296880, Note_on_c, 0, 29, 65
3, 296903, Note_on_c, 0, 29, 0
3, 296903, Note_on_c, 0, 17, 0
3, 297000, Note_on_c, 0, 41, 65
3, 297023, Note_on_c, 0, 41, 0
3, 297120, Note_on_c, 0, 22, 65
3, 297120, Note_on_c, 0, 34, 65
3, 297120, Note_on_c, 0, 46, 65
3, 297360, Note_on_c, 0, 46, 0
3, 297360, Note_on_c, 0, 34, 0
3, 297360, Note_on_c, 0, 22, 0
3, 299040, Note_on_c, 0, 21, 65
3, 299040, Note_on_c, 0, 33, 65
3, 299063, Note_on_c, 0, 33, 0
3, 299063, Note_on_c, 0, 21, 0
3, 299160, Note_on_c, 0, 45, 65
3, 299183, Note_on_c, 0, 45, 0
3, 299280, Note_on_c, 0, 22, 65
3, 299280, Note_on_c, 0, 34, 65
3, 299303, Note_on_c, 0, 34, 0
3, 299303, Note_on_c, 0, 22, 0
3, 299400, Note_on_c, 0, 46, 65
3, 299423, Note_on_c, 0, 46, 0
3, 299520, Note_on_c, 0, 16, 65
3, 299520, Note_on_c, 0, 28, 65
3, 299543, Note_on_c, 0, 28, 0
3, 299543, Note_on_c, 0, 16, 0
3, 299640, Note_on_c, 0, 40, 65
3, 299663, Note_on_c, 0, 40, 0
3, 299760, Note_on_c, 0, 17, 65
3, 299760, Note_on_c, 0, 29, 65
3, 299783, Note_on_c, 0, 29, 0
3, 299783, Note_on_c, 0, 17, 0
3, 299880, Note_on_c, 0, 41, 65
3, 299903, Note_on_c, 0, 41, 0
3, 300000, Note_on_c, 0, 21, 65
3, 300000, Note_on_c, 0, 33, 65
3, 300023, Note_on_c, 0, 33, 0
3, 300023, Note_on_c, 0, 21, 0
3, 300120, Note_on_c, 0, 45, 65
3, 300143, Note_on_c, 0, 45, 0
3, 300240, Note_on_c, 0, 22, 65
3, 300240, Note_on_c, 0, 34, 65
3, 300263, Note_on_c, 0, 34, 0
3, 300263, Note_on_c, 0, 22, 0
3, 300360, Note_on_c, 0, 46, 65
3, 300383, Note_on_c, 0, 46, 0
3, 300480, Note_on_c, 0, 16, 65
3, 300480, Note_on_c, 0, 28, 65
3, 300503, Note_on_c, 0, 28, 0
3, 300503, Note_on_c, 0, 16, 0
3, 300600, Note_on_c, 0, 40, 65
3, 300623, Note_on_c, 0, 40, 0
3, 300720, Note_on_c, 0, 17, 65
3, 300720, Note_on_c, 0, 29, 65
3, 300743, Note_on_c, 0, 29, 0
3, 300743, Note_on_c, 0, 17, 0
3, 300840, Note_on_c, 0, 41, 65
3, 300863, Note_on_c, 0, 41, 0
3, 300960, Note_on_c, 0, 22, 65
3, 300960, Note_on_c, 0, 34, 65
3, 300960, Note_on_c, 0, 46, 65
3, 301200, Note_on_c, 0, 46, 0
3, 301200, Note_on_c, 0, 34, 0
3, 301200, Note_on_c, 0, 22, 0
3, 302880, Note_on_c, 0, 21, 52
3, 302880, Note_on_c, 0, 33, 52
3, 302903, Note_on_c, 0, 33, 0
3, 302903, Note_on_c, 0, 21, 0
3, 303000, Note_on_c, 0, 45, 52
3, 303023, Note_on_c, 0, 45, 0
3, 303120, Note_on_c, 0, 22, 52
3, 303120, Note_on_c, 0, 34, 52
3, 303143, Note_on_c, 0, 34, 0
3, 303143, Note_on_c, 0, 22, 0
3, 303240, Note_on_c, 0, 46, 52
3, 303263, Note_on_c, 0, 46, 0
3, 303360, Note_on_c, 0, 16, 52
3, 303360, Note_on_c, 0, 28, 52
3, 303383, Note_on_c, 0, 28, 0
3, 303383, Note_on_c, 0, 16, 0
3, 303480, Note_on_c, 0, 40, 52
3, 303503, Note_on_c, 0, 40, 0
3, 303600, Note_on_c, 0, 17, 52
3, 303600, Note_on_c, 0, 29, 52
3, 303623, Note_on_c, 0, 29, 0
3, 303623, Note_on_c, 0, 17, 0
3, 303720, Note_on_c, 0, 41, 52
3, 303743, Note_on_c, 0, 41, 0
3, 303840, Note_on_c, 0, 21, 52
3, 303840, Note_on_c, 0, 33, 52
3, 303863, Note_on_c, 0, 33, 0
3, 303863, Note_on_c, 0, 21, 0
3, 303960, Note_on_c, 0, 45, 52
3, 303983, Note_on_c, 0, 45, 0
3, 304080, Note_on_c, 0, 22, 52
3, 304080, Note_on_c, 0, 34, 52
3, 304103, Note_on_c, 0, 34, 0
3, 304103, Note_on_c, 0, 22, 0
3, 304200, Note_on_c, 0, 46, 52
3, 304223, Note_on_c, 0, 46, 0
3, 304320, Note_on_c, 0, 16, 52
3, 304320, Note_on_c, 0, 28, 52
3, 304343, Note_on_c, 0, 28, 0
3, 304343, Note_on_c, 0, 16, 0
3, 304440, Note_on_c, 0, 40, 52
3, 304463, Note_on_c, 0, 40, 0
3, 304560, Note_on_c, 0, 17, 52
3, 304560, Note_on_c, 0, 29, 52
3, 304583, Note_on_c, 0, 29, 0
3, 304583, Note_on_c, 0, 17, 0
3, 304680, Note_on_c, 0, 41, 52
3, 304703, Note_on_c, 0, 41, 0
3, 304800, Note_on_c, 0, 18, 52
3, 304800, Note_on_c, 0, 30, 52
3, 304823, Note_on_c, 0, 30, 0
3, 304823, Note_on_c, 0, 18, 0
3, 304920, Note_on_c, 0, 42, 52
3, 304943, Note_on_c, 0, 42, 0
3, 305040, Note_on_c, 0, 17, 52
3, 305040, Note_on_c, 0, 29, 52
3, 305063, Note_on_c, 0, 29, 0
3, 305063, Note_on_c, 0, 17, 0
3, 305160, Note_on_c, 0, 41, 52
3, 305183, Note_on_c, 0, 41, 0
3, 305280, Note_on_c, 0, 18, 52
3, 305280, Note_on_c, 0, 30, 52
3, 305303, Note_on_c, 0, 30, 0
3, 305303, Note_on_c, 0, 18, 0
3, 305400, Note_on_c, 0, 42, 52
3, 305423, Note_on_c, 0, 42, 0
3, 305520, Note_on_c, 0, 17, 52
3, 305520, Note_on_c, 0, 29, 52
3, 305543, Note_on_c, 0, 29, 0
3, 305543, Note_on_c, 0, 17, 0
3, 305640, Note_on_c, 0, 41, 52
3, 305663, Note_on_c, 0, 41, 0
3, 305760, Note_on_c, 0, 18, 52
3, 305760, Note_on_c, 0, 30, 52
3, 305783, Note_on_c, 0, 30, 0
3, 305783, Note_on_c, 0, 18, 0
3, 305880, Note_on_c, 0, 42, 52
3, 305903, Note_on_c, 0, 42, 0
3, 306000, Note_on_c, 0, 17, 52
3, 306000, Note_on_c, 0, 29, 52
3, 306023, Note_on_c, 0, 29, 0
3, 306023, Note_on_c, 0, 17, 0
3, 306120, Note_on_c, 0, 41, 52
3, 306143, Note_on_c, 0, 41, 0
3, 306240, Note_on_c, 0, 18, 52
3, 306240, Note_on_c, 0, 30, 52
3, 306263, Note_on_c, 0, 30, 0
3, 306263, Note_on_c, 0, 18, 0
3, 306360, Note_on_c, 0, 42, 52
3, 306383, Note_on_c, 0, 42, 0
3, 306480, Note_on_c, 0, 17, 52
3, 306480, Note_on_c, 0, 29, 52
3, 306503, Note_on_c, 0, 29, 0
3, 306503, Note_on_c, 0, 17, 0
3, 306600, Note_on_c, 0, 41, 52
3, 306623, Note_on_c, 0, 41, 0
3, 306720, Note_on_c, 0, 34, 52
3, 306720, Note_on_c, 0, 46, 52
3, 306960, Note_on_c, 0, 46, 0
3, 306960, Note_on_c, 0, 34, 0
3, 322080, Note_on_c, 0, 65, 39
3, 322560, Note_on_c, 0, 65, 0
3, 322560, Note_on_c, 0, 65, 39
3, 323520, Note_on_c, 0, 65, 0
3, 323520, Note_on_c, 0, 65, 39
3, 324000, Note_on_c, 0, 65, 0
3, 324000, Note_on_c, 0, 65, 39
3, 324000, Note_on_c, 0, 70, 39
3, 324480, Note_on_c, 0, 70, 0
3, 324480, Note_on_c, 0, 65, 0
3, 324480, Note_on_c, 0, 65, 39
3, 324480, Note_on_c, 0, 70, 39
3, 325440, Note_on_c, 0, 70, 0
3, 325440, Note_on_c, 0, 65, 0
3, 325440, Note_on_c, 0, 65, 52
3, 325440, Note_on_c, 0, 70, 52
3, 325920, Note_on_c, 0, 70, 0
3, 325920, Note_on_c, 0, 65, 0
3, 325920, Note_on_c, 0, 70, 52
3, 325920, Note_on_c, 0, 73, 52
3, 326880, Note_on_c, 0, 73, 0
3, 326880, Note_on_c, 0, 70, 0
3, 327840, Note_on_c, 0, 70, 52
3, 327840, Note_on_c, 0, 75, 52
3, 328800, Note_on_c, 0, 75, 0
3, 328800, Note_on_c, 0, 70, 0
3, 328800, Note_on_c, 0, 63, 39
3, 329760, Note_on_c, 0, 63, 0
3, 330720, Note_on_c, 0, 67, 39
3, 332640, Note_on_c, 0, 67, 0
3, 334560, Note_on_c, 0, 67, 39
3, 336480, Note_on_c, 0, 67, 0
3, 338400, Note_on_c, 0, 67, 39
3, 338400, Note_on_c, 0, 72, 39
3, 339360, Note_on_c, 0, 72, 0
3, 339360, Note_on_c, 0, 67, 0
3, 340320, Note_on_c, 0, 60, 39
3, 340320, Note_on_c, 0, 65, 39
3, 341280, Note_on_c, 0, 65, 0
3, 342240, Note_on_c, 0, 60, 0
3, 342240, Note_on_c, 0, 54, 39
3, 344160, Note_on_c, 0, 54, 0
3, 344160, Note_on_c, 0, 53, 39
3, 344160, Note_on_c, 0, 55, 39
3, 345120, Note_on_c, 0, 55, 0
3, 345120, Note_on_c, 0, 53, 0
3, 346560, Note_on_c, 0, 58, 39
3, 346560, Note_on_c, 0, 61, 39
3, 347520, Note_on_c, 0, 61, 0
3, 347520, Note_on_c, 0, 58, 0
3, 347520, Note_on_c, 0, 58, 39
3, 347520, Note_on_c, 0, 61, 39
3, 348480, Note_on_c, 0, 61, 0
3, 348480, Note_on_c, 0, 58, 0
3, 348480, Note_on_c, 0, 60, 39
3, 348480, Note_on_c, 0, 63, 39
3, 349440, Note_on_c, 0, 63, 0
3, 349440, Note_on_c, 0, 60, 0
3, 349440, Note_on_c, 0, 60, 39
3, 350400, Note_on_c, 0, 60, 0
3, 350400, Note_on_c, 0, 55, 39
3, 350400, Note_on_c, 0, 58, 39
3, 351360, Note_on_c, 0, 58, 0
3, 351360, Note_on_c, 0, 55, 0
3, 351360, Note_on_c, 0, 55, 39
3, 352320, Note_on_c, 0, 55, 0
3, 352320, Note_on_c, 0, 56, 39
3, 352320, Note_on_c, 0, 60, 39
3, 353280, Note_on_c, 0, 60, 0
3, 353280, Note_on_c, 0, 56, 0
3, 353280, Note_on_c, 0, 60, 39
3, 354240, Note_on_c, 0, 60, 0
3, 354240, Note_on_c, 0, 58, 39
3, 354240, Note_on_c, 0, 61, 39
3, 355200, Note_on_c, 0, 61, 0
3, 355200, Note_on_c, 0, 58, 0
3, 355200, Note_on_c, 0, 58, 39
3, 355200, Note_on_c, 0, 61, 39
3, 356160, Note_on_c, 0, 61, 0
3, 356160, Note_on_c, 0, 58, 0
3, 356160, Note_on_c, 0, 60, 39
3, 356160, Note_on_c, 0, 63, 39
3, 357120, Note_on_c, 0, 63, 0
3, 357120, Note_on_c, 0, 60, 0
3, 357120, Note_on_c, 0, 60, 39
3, 358080, Note_on_c, 0, 60, 0
3, 358080, Note_on_c, 0, 55, 39
3, 358080, Note_on_c, 0, 58, 39
3, 359040, Note_on_c, 0, 58, 0
3, 359040, Note_on_c, 0, 55, 0
3, 360000, Note_on_c, 0, 56, 39
3, 360000, Note_on_c, 0, 63, 39
3, 360480, Note_on_c, 0, 63, 0
3, 360480, Note_on_c, 0, 56, 0
3, 360480, Note_on_c, 0, 56, 65
3, 360480, Note_on_c, 0, 64, 65
3, 361440, Note_on_c, 0, 64, 0
3, 361440, Note_on_c, 0, 65, 39
3, 361920, Note_on_c, 0, 65, 0
3, 361920, Note_on_c, 0, 56, 0
3, 363840, Note_on_c, 0, 56, 39
3, 363840, Note_on_c, 0, 63, 39
3, 364320, Note_on_c, 0, 63, 0
3, 364320, Note_on_c, 0, 56, 0
3, 364320, Note_on_c, 0, 56, 65
3, 364320, Note_on_c, 0, 64, 65
3, 365280, Note_on_c, 0, 64, 0
3, 365280, Note_on_c, 0, 65, 39
3, 365760, Note_on_c, 0, 65, 0
3, 365760, Note_on_c, 0, 56, 0
3, 367680, Note_on_c, 0, 60, 39
3, 367680, Note_on_c, 0, 64, 39
3, 367680, Note_on_c, 0, 72, 39
3, 368160, Note_on_c, 0, 72, 0
3, 368160, Note_on_c, 0, 64, 0
3, 368160, Note_on_c, 0, 60, 0
3, 368160, Note_on_c, 0, 60, 65
3, 368160, Note_on_c, 0, 64, 65
3, 368160, Note_on_c, 0, 72, 65
3, 369600, Note_on_c, 0, 72, 0
3, 369600, Note_on_c, 0, 64, 0
3, 369600, Note_on_c, 0, 60, 0
3, 372480, Control_c, 0, 64, 127
3, 372480, Note_on_c, 0, 44, 52
3, 372600, Note_on_c, 0, 44, 0
3, 372600, Note_on_c, 0, 70, 52
3, 372720, Note_on_c, 0, 70, 0
3, 372720, Note_on_c, 0, 65, 52
3, 372840, Note_on_c, 0, 65, 0
3, 372840, Control_c, 0, 64, 0
3, 372840, Note_on_c, 0, 61, 52
3, 372960, Note_on_c, 0, 61, 0
3, 373080, Control_c, 0, 64, 127
3, 373080, Note_on_c, 0, 65, 52
3, 373200, Note_on_c, 0, 65, 0
3, 373200, Note_on_c, 0, 61, 52
3, 373320, Note_on_c, 0, 61, 0
3, 373320, Note_on_c, 0, 60, 52
3, 373440, Note_on_c, 0, 60, 0
3, 373440, Note_on_c, 0, 58, 52
3, 373560, Note_on_c, 0, 58, 0
3, 373560, Note_on_c, 0, 53, 52
3, 373680, Note_on_c, 0, 53, 0
3, 373680, Note_on_c, 0, 49, 52
3, 373800, Note_on_c, 0, 49, 0
3, 373800, Note_on_c, 0, 46, 52
3, 373920, Note_on_c, 0, 46, 0
3, 373920, Note_on_c, 0, 44, 52
3, 374040, Note_on_c, 0, 44, 0
3, 374040, Note_on_c, 0, 65, 52
3, 374160, Note_on_c, 0, 65, 0
3, 374160, Note_on_c, 0, 61, 52
3, 374280, Note_on_c, 0, 61, 0
3, 374280, Control_c, 0, 64, 0
3, 374280, Note_on_c, 0, 58, 52
3, 374400, Note_on_c, 0, 58, 0
3, 374400, Control_c, 0, 64, 127
3, 374400, Note_on_c, 0, 43, 52
3, 374520, Note_on_c, 0, 43, 0
3, 374520, Note_on_c, 0, 73, 52
3, 374640, Note_on_c, 0, 73, 0
3, 374640, Note_on_c, 0, 70, 52
3, 374760, Note_on_c, 0, 70, 0
3, 374760, Note_on_c, 0, 65, 52
3, 374880, Note_on_c, 0, 65, 0
3, 374880, Control_c, 0, 64, 0
3, 375000, Control_c, 0, 64, 127
3, 375000, Note_on_c, 0, 70, 52
3, 375120, Note_on_c, 0, 70, 0
3, 375120, Note_on_c, 0, 65, 52
3, 375240, Note_on_c, 0, 65, 0
3, 375240, Note_on_c, 0, 61, 52
3, 375360, Note_on_c, 0, 61, 0
3, 375360, Note_on_c, 0, 58, 52
3, 375480, Note_on_c, 0, 58, 0
3, 375480, Note_on_c, 0, 53, 52
3, 375600, Note_on_c, 0, 53, 0
3, 375600, Note_on_c, 0, 49, 52
3, 375720, Note_on_c, 0, 49, 0
3, 375720, Note_on_c, 0, 46, 52
3, 375840, Note_on_c, 0, 46, 0
3, 375840, Note_on_c, 0, 43, 52
3, 375960, Note_on_c, 0, 43, 0
3, 375960, Note_on_c, 0, 70, 52
3, 376080, Note_on_c, 0, 70, 0
3, 376080, Note_on_c, 0, 65, 52
3, 376200, Note_on_c, 0, 65, 0
3, 376200, Control_c, 0, 64, 0
3, 376200, Note_on_c, 0, 61, 52
3, 376320, Note_on_c, 0, 61, 0
3, 376320, Control_c, 0, 64, 127
3, 376320, Note_on_c, 0, 41, 52
3, 376440, Note_on_c, 0, 41, 0
3, 376440, Note_on_c, 0, 73, 52
3, 376560, Note_on_c, 0, 73, 0
3, 376560, Note_on_c, 0, 70, 52
3, 376680, Note_on_c, 0, 70, 0
3, 376680, Note_on_c, 0, 68, 52
3, 376800, Note_on_c, 0, 68, 0
3, 376920, Note_on_c, 0, 65, 52
3, 377040, Note_on_c, 0, 65, 0
3, 377040, Note_on_c, 0, 61, 52
3, 377160, Note_on_c, 0, 61, 0
3, 377160, Control_c, 0, 64, 0
3, 377160, Note_on_c, 0, 58, 52
3, 377280, Note_on_c, 0, 58, 0
3, 377280, Control_c, 0, 64, 127
3, 377280, Note_on_c, 0, 52, 52
3, 377400, Note_on_c, 0, 52, 0
3, 377400, Note_on_c, 0, 73, 52
3, 377520, Note_on_c, 0, 73, 0
3, 377520, Note_on_c, 0, 70, 52
3, 377640, Note_on_c, 0, 70, 0
3, 377640, Note_on_c, 0, 68, 52
3, 377760, Note_on_c, 0, 68, 0
3, 377880, Note_on_c, 0, 64, 52
3, 378000, Note_on_c, 0, 64, 0
3, 378000, Note_on_c, 0, 61, 52
3, 378120, Note_on_c, 0, 61, 0
3, 378120, Control_c, 0, 64, 0
3, 378120, Note_on_c, 0, 58, 52
3, 378240, Note_on_c, 0, 58, 0
3, 378240, Control_c, 0, 64, 127
3, 378240, Note_on_c, 0, 51, 52
3, 378360, Note_on_c, 0, 51, 0
3, 378360, Note_on_c, 0, 73, 52
3, 378480, Note_on_c, 0, 73, 0
3, 378480, Note_on_c, 0, 58, 52
3, 378480, Note_on_c, 0, 70, 52
3, 378600, Note_on_c, 0, 70, 0
3, 378600, Note_on_c, 0, 58, 0
3, 378600, Control_c, 0, 64, 0
3, 378600, Note_on_c, 0, 63, 52
3, 378600, Note_on_c, 0, 67, 52
3, 378720, Note_on_c, 0, 67, 0
3, 378720, Note_on_c, 0, 63, 0
3, 378720, Control_c, 0, 64, 127
3, 378720, Note_on_c, 0, 53, 52
3, 378840, Note_on_c, 0, 53, 0
3, 378840, Note_on_c, 0, 73, 52
3, 378960, Note_on_c, 0, 73, 0
3, 378960, Note_on_c, 0, 58, 52
3, 378960, Note_on_c, 0, 70, 52
3, 379080, Note_on_c, 0, 70, 0
3, 379080, Note_on_c, 0, 58, 0
3, 379080, Control_c, 0, 64, 0
3, 379080, Note_on_c, 0, 61, 52
3, 379080, Note_on_c, 0, 65, 52
3, 379200, Note_on_c, 0, 65, 0
3, 379200, Note_on_c, 0, 61, 0
3, 379200, Control_c, 0, 64, 127
3, 379200, Note_on_c, 0, 54, 52
3, 379320, Note_on_c, 0, 54, 0
3, 379320, Note_on_c, 0, 69, 52
3, 379440, Note_on_c, 0, 69, 0
3, 379440, Note_on_c, 0, 57, 52
3, 379440, Note_on_c, 0, 66, 52
3, 379560, Note_on_c, 0, 66, 0
3, 379560, Note_on_c, 0, 57, 0
3, 379560, Control_c, 0, 64, 0
3, 379560, Note_on_c, 0, 60, 52
3, 379560, Note_on_c, 0, 63, 52
3, 379680, Note_on_c, 0, 60, 0
3, 379680, Control_c, 0, 64, 127
3, 379680, Note_on_c, 0, 43, 52
3, 379800, Note_on_c, 0, 43, 0
3, 379800, Note_on_c, 0, 63, 0
3, 379800, Note_on_c, 0, 62, 52
3, 379920, Note_on_c, 0, 62, 0
3, 379920, Note_on_c, 0, 51, 52
3, 379920, Note_on_c, 0, 61, 52
3, 380040, Note_on_c, 0, 61, 0
3, 380040, Note_on_c, 0, 51, 0
3, 380040, Control_c, 0, 64, 0
3, 380040, Note_on_c, 0, 58, 52
3, 380160, Note_on_c, 0, 58, 0
3, 380160, Control_c, 0, 64, 127
3, 380160, Note_on_c, 0, 44, 52
3, 380280, Note_on_c, 0, 44, 0
3, 380280, Note_on_c, 0, 51, 52
3, 380400, Note_on_c, 0, 51, 0
3, 380400, Note_on_c, 0, 56, 52
3, 380520, Note_on_c, 0, 56, 0
3, 380520, Note_on_c, 0, 63, 52
3, 380640, Note_on_c, 0, 63, 0
3, 380760, Note_on_c, 0, 60, 52
3, 380880, Note_on_c, 0, 60, 0
3, 380880, Note_on_c, 0, 63, 52
3, 381000, Note_on_c, 0, 63, 0
3, 381000, Control_c, 0, 64, 0
3, 381000, Note_on_c, 0, 68, 52
3, 381120, Note_on_c, 0, 68, 0
3, 381120, Control_c, 0, 64, 127
3, 381120, Note_on_c, 0, 49, 52
3, 381240, Note_on_c, 0, 49, 0
3, 381240, Note_on_c, 0, 53, 52
3, 381360, Note_on_c, 0, 53, 0
3, 381360, Note_on_c, 0, 57, 52
3, 381480, Note_on_c, 0, 57, 0
3, 381480, Note_on_c, 0, 60, 52
3, 381600, Note_on_c, 0, 60, 0
3, 381600, Note_on_c, 0, 61, 52
3, 381720, Note_on_c, 0, 61, 0
3, 381720, Note_on_c, 0, 65, 52
3, 381840, Note_on_c, 0, 65, 0
3, 381840, Note_on_c, 0, 69, 52
3, 381960, Note_on_c, 0, 69, 0
3, 381960, Control_c, 0, 64, 0
3, 381960, Note_on_c, 0, 73, 52
3, 382080, Note_on_c, 0, 73, 0
3, 382080, Note_on_c, 0, 77, 52
3, 382200, Note_on_c, 0, 77, 0
3, 382200, Note_on_c, 0, 73, 52
3, 382320, Note_on_c, 0, 73, 0
3, 382320, Note_on_c, 0, 69, 52
3, 382440, Note_on_c, 0, 69, 0
3, 382440, Note_on_c, 0, 65, 52
3, 382560, Note_on_c, 0, 65, 0
3, 382680, Note_on_c, 0, 69, 52
3, 382800, Note_on_c, 0, 69, 0
3, 382800, Note_on_c, 0, 65, 52
3, 382920, Note_on_c, 0, 65, 0
3, 382920, Note_on_c, 0, 60, 52
3, 383040, Note_on_c, 0, 60, 0
3, 383160, Note_on_c, 0, 73, 52
3, 383280, Note_on_c, 0, 73, 0
3, 383280, Note_on_c, 0, 70, 52
3, 383400, Note_on_c, 0, 70, 0
3, 383400, Note_on_c, 0, 65, 52
3, 383520, Note_on_c, 0, 65, 0
3, 383640, Note_on_c, 0, 65, 52
3, 383760, Note_on_c, 0, 65, 0
3, 383760, Note_on_c, 0, 58, 52
3, 383880, Note_on_c, 0, 58, 0
3, 383880, Note_on_c, 0, 55, 52
3, 384000, Note_on_c, 0, 55, 0
3, 384120, Note_on_c, 0, 68, 52
3, 384240, Note_on_c, 0, 68, 0
3, 384240, Note_on_c, 0, 64, 52
3, 384360, Note_on_c, 0, 64, 0
3, 384360, Note_on_c, 0, 60, 52
3, 384480, Note_on_c, 0, 60, 0
3, 384600, Note_on_c, 0, 64, 52
3, 384720, Note_on_c, 0, 64, 0
3, 384720, Note_on_c, 0, 60, 52
3, 384840, Note_on_c, 0, 60, 0
3, 384840, Note_on_c, 0, 58, 52
3, 384960, Note_on_c, 0, 58, 0
3, 385080, Note_on_c, 0, 60, 52
3, 385200, Note_on_c, 0, 60, 0
3, 385200, Note_on_c, 0, 58, 52
3, 385320, Note_on_c, 0, 58, 0
3, 385320, Note_on_c, 0, 52, 52
3, 385440, Note_on_c, 0, 52, 0
3, 385560, Note_on_c, 0, 60, 52
3, 385680, Note_on_c, 0, 60, 0
3, 385680, Note_on_c, 0, 65, 52
3, 385800, Note_on_c, 0, 65, 0
3, 385800, Note_on_c, 0, 68, 52
3, 385920, Note_on_c, 0, 68, 0
3, 385920, Control_c, 0, 64, 127
3, 385920, Note_on_c, 0, 39, 52
3, 386040, Note_on_c, 0, 39, 0
3, 386040, Note_on_c, 0, 48, 52
3, 386160, Note_on_c, 0, 48, 0
3, 386160, Note_on_c, 0, 51, 52
3, 386280, Note_on_c, 0, 51, 0
3, 386280, Note_on_c, 0, 54, 52
3, 386400, Note_on_c, 0, 54, 0
3, 386400, Note_on_c, 0, 57, 52
3, 386520, Note_on_c, 0, 57, 0
3, 386520, Note_on_c, 0, 60, 52
3, 386640, Note_on_c, 0, 60, 0
3, 386640, Note_on_c, 0, 62, 52
3, 386760, Note_on_c, 0, 62, 0
3, 386760, Note_on_c, 0, 63, 52
3, 386880, Note_on_c, 0, 63, 0
3, 386880, Note_on_c, 0, 66, 52
3, 387000, Note_on_c, 0, 66, 0
3, 387000, Note_on_c, 0, 63, 52
3, 387120, Note_on_c, 0, 63, 0
3, 387120, Note_on_c, 0, 62, 52
3, 387240, Note_on_c, 0, 62, 0
3, 387240, Note_on_c, 0, 60, 52
3, 387360, Note_on_c, 0, 60, 0
3, 387360, Control_c, 0, 64, 0
3, 387360, Note_on_c, 0, 51, 52
3, 387360, Note_on_c, 0, 55, 52
3, 387360, Note_on_c, 0, 61, 52
3, 387480, Note_on_c, 0, 61, 0
3, 387480, Note_on_c, 0, 55, 0
3, 387480, Note_on_c, 0, 51, 0
3, 387480, Note_on_c, 0, 58, 52
3, 387600, Note_on_c, 0, 58, 0
3, 387600, Note_on_c, 0, 62, 52
3, 387720, Note_on_c, 0, 62, 0
3, 387720, Note_on_c, 0, 63, 52
3, 387840, Note_on_c, 0, 63, 0
3, 387840, Control_c, 0, 64, 127
3, 387840, Note_on_c, 0, 44, 52
3, 387960, Note_on_c, 0, 44, 0
3, 387960, Note_on_c, 0, 70, 52
3, 388080, Note_on_c, 0, 70, 0
3, 388080, Note_on_c, 0, 65, 52
3, 388200, Note_on_c, 0, 65, 0
3, 388200, Control_c, 0, 64, 0
3, 388200, Note_on_c, 0, 61, 52
3, 388320, Note_on_c, 0, 61, 0
3, 388440, Control_c, 0, 64, 127
3, 388440, Note_on_c, 0, 65, 52
3, 388560, Note_on_c, 0, 65, 0
3, 388560, Note_on_c, 0, 61, 52
3, 388680, Note_on_c, 0, 61, 0
3, 388680, Note_on_c, 0, 60, 52
3, 388800, Note_on_c, 0, 60, 0
3, 388800, Note_on_c, 0, 58, 52
3, 388920, Note_on_c, 0, 58, 0
3, 388920, Note_on_c, 0, 53, 52
3, 389040, Note_on_c, 0, 53, 0
3, 389040, Note_on_c, 0, 49, 52
3, 389160, Note_on_c, 0, 49, 0
3, 389160, Note_on_c, 0, 46, 52
3, 389280, Note_on_c, 0, 46, 0
3, 389280, Note_on_c, 0, 44, 52
3, 389400, Note_on_c, 0, 44, 0
3, 389400, Note_on_c, 0, 65, 52
3, 389520, Note_on_c, 0, 65, 0
3, 389520, Note_on_c, 0, 61, 52
3, 389640, Note_on_c, 0, 61, 0
3, 389640, Control_c, 0, 64, 0
3, 389640, Note_on_c, 0, 58, 52
3, 389760, Note_on_c, 0, 58, 0
3, 389760, Control_c, 0, 64, 127
3, 389760, Note_on_c, 0, 43, 52
3, 389880, Note_on_c, 0, 43, 0
3, 389880, Note_on_c, 0, 73, 52
3, 390000, Note_on_c, 0, 73, 0
3, 390000, Note_on_c, 0, 70, 52
3, 390120, Note_on_c, 0, 70, 0
3, 390120, Note_on_c, 0, 65, 52
3, 390240, Note_on_c, 0, 65, 0
3, 390240, Control_c, 0, 64, 0
3, 390360, Control_c, 0, 64, 127
3, 390360, Note_on_c, 0, 70, 52
3, 390480, Note_on_c, 0, 70, 0
3, 390480, Note_on_c, 0, 65, 52
3, 390600, Note_on_c, 0, 65, 0
3, 390600, Note_on_c, 0, 61, 52
3, 390720, Note_on_c, 0, 61, 0
3, 390720, Note_on_c, 0, 58, 52
3, 390840, Note_on_c, 0, 58, 0
3, 390840, Note_on_c, 0, 53, 52
3, 390960, Note_on_c, 0, 53, 0
3, 390960, Note_on_c, 0, 49, 52
3, 391080, Note_on_c, 0, 49, 0
3, 391080, Note_on_c, 0, 46, 52
3, 391200, Note_on_c, 0, 46, 0
3, 391200, Note_on_c, 0, 43, 52
3, 391320, Note_on_c, 0, 43, 0
3, 391320, Note_on_c, 0, 70, 52
3, 391440, Note_on_c, 0, 70, 0
3, 391440, Note_on_c, 0, 65, 52
3, 391560, Note_on_c, 0, 65, 0
3, 391560, Control_c, 0, 64, 0
3, 391560, Note_on_c, 0, 61, 52
3, 391680, Note_on_c, 0, 61, 0
3, 391680, Control_c, 0, 64, 127
3, 391680, Note_on_c, 0, 41, 52
3, 391800, Note_on_c, 0, 41, 0
3, 391800, Note_on_c, 0, 73, 52
3, 391920, Note_on_c, 0, 73, 0
3, 391920, Note_on_c, 0, 70, 52
3, 392040, Note_on_c, 0, 70, 0
3, 392040, Note_on_c, 0, 68, 52
3, 392160, Note_on_c, 0, 68, 0
3, 392280, Note_on_c, 0, 65, 52
3, 392400, Note_on_c, 0, 65, 0
3, 392400, Note_on_c, 0, 61, 52
3, 392520, Note_on_c, 0, 61, 0
3, 392520, Control_c, 0, 64, 0
3, 392520, Note_on_c, 0, 58, 52
3, 392640, Note_on_c, 0, 58, 0
3, 392640, Control_c, 0, 64, 127
3, 392640, Note_on_c, 0, 52, 52
3, 392760, Note_on_c, 0, 52, 0
3, 392760, Note_on_c, 0, 73, 52
3, 392880, Note_on_c, 0, 73, 0
3, 392880, Note_on_c, 0, 70, 52
3, 393000, Note_on_c, 0, 70, 0
3, 393000, Note_on_c, 0, 68, 52
3, 393120, Note_on_c, 0, 68, 0
3, 393240, Note_on_c, 0, 64, 52
3, 393360, Note_on_c, 0, 64, 0
3, 393360, Note_on_c, 0, 61, 52
3, 393480, Note_on_c, 0, 61, 0
3, 393480, Control_c, 0, 64, 0
3, 393480, Note_on_c, 0, 58, 52
3, 393600, Note_on_c, 0, 58, 0
3, 393600, Control_c, 0, 64, 127
3, 393600, Note_on_c, 0, 51, 52
3, 393720, Note_on_c, 0, 51, 0
3, 393720, Note_on_c, 0, 73, 52
3, 393840, Note_on_c, 0, 73, 0
3, 393840, Note_on_c, 0, 58, 52
3, 393840, Note_on_c, 0, 70, 52
3, 393960, Note_on_c, 0, 70, 0
3, 393960, Note_on_c, 0, 58, 0
3, 393960, Control_c, 0, 64, 0
3, 393960, Note_on_c, 0, 63, 52
3, 393960, Note_on_c, 0, 67, 52
3, 394080, Note_on_c, 0, 67, 0
3, 394080, Note_on_c, 0, 63, 0
3, 394080, Control_c, 0, 64, 127
3, 394080, Note_on_c, 0, 53, 52
3, 394200, Note_on_c, 0, 53, 0
3, 394200, Note_on_c, 0, 73, 52
3, 394320, Note_on_c, 0, 73, 0
3, 394320, Note_on_c, 0, 58, 52
3, 394320, Note_on_c, 0, 70, 52
3, 394440, Note_on_c, 0, 70, 0
3, 394440, Note_on_c, 0, 58, 0
3, 394440, Control_c, 0, 64, 0
3, 394440, Note_on_c, 0, 61, 52
3, 394440, Note_on_c, 0, 65, 52
3, 394560, Note_on_c, 0, 65, 0
3, 394560, Note_on_c, 0, 61, 0
3, 394560, Control_c, 0, 64, 127
3, 394560, Note_on_c, 0, 54, 52
3, 394680, Note_on_c, 0, 54, 0
3, 394680, Note_on_c, 0, 69, 52
3, 394800, Note_on_c, 0, 69, 0
3, 394800, Note_on_c, 0, 57, 52
3, 394800, Note_on_c, 0, 66, 52
3, 394920, Note_on_c, 0, 66, 0
3, 394920, Note_on_c, 0, 57, 0
3, 394920, Control_c, 0, 64, 0
3, 394920, Note_on_c, 0, 60, 52
3, 394920, Note_on_c, 0, 63, 52
3, 395040, Note_on_c, 0, 60, 0
3, 395040, Control_c, 0, 64, 127
3, 395040, Note_on_c, 0, 43, 52
3, 395160, Note_on_c, 0, 43, 0
3, 395160, Note_on_c, 0, 63, 0
3, 395160, Note_on_c, 0, 62, 52
3, 395280, Note_on_c, 0, 62, 0
3, 395280, Note_on_c, 0, 51, 52
3, 395280, Note_on_c, 0, 61, 52
3, 395400, Note_on_c, 0, 61, 0
3, 395400, Note_on_c, 0, 51, 0
3, 395400, Control_c, 0, 64, 0
3, 395400, Note_on_c, 0, 58, 52
3, 395520, Note_on_c, 0, 58, 0
3, 395640, Note_on_c, 0, 68, 52
3, 395760, Note_on_c, 0, 68, 0
3, 395760, Note_on_c, 0, 63, 52
3, 395880, Note_on_c, 0, 63, 0
3, 395880, Note_on_c, 0, 60, 52
3, 396000, Note_on_c, 0, 60, 0
3, 396120, Note_on_c, 0, 68, 52
3, 396240, Note_on_c, 0, 68, 0
3, 396240, Note_on_c, 0, 65, 52
3, 396360, Note_on_c, 0, 65, 0
3, 396360, Note_on_c, 0, 62, 52
3, 396480, Note_on_c, 0, 62, 0
3, 396600, Control_c, 0, 64, 127
3, 396600, Note_on_c, 0, 75, 52
3, 396720, Note_on_c, 0, 75, 0
3, 396720, Note_on_c, 0, 72, 52
3, 396840, Note_on_c, 0, 72, 0
3, 396840, Note_on_c, 0, 67, 52
3, 396960, Note_on_c, 0, 67, 0
3, 397080, Note_on_c, 0, 72, 52
3, 397200, Note_on_c, 0, 72, 0
3, 397200, Note_on_c, 0, 67, 52
3, 397320, Note_on_c, 0, 67, 0
3, 397320, Note_on_c, 0, 63, 52
3, 397440, Note_on_c, 0, 63, 0
3, 397560, Note_on_c, 0, 62, 52
3, 397680, Note_on_c, 0, 62, 0
3, 397680, Note_on_c, 0, 63, 52
3, 397800, Note_on_c, 0, 63, 0
3, 397800, Note_on_c, 0, 67, 52
3, 397920, Note_on_c, 0, 67, 0
3, 398040, Note_on_c, 0, 75, 52
3, 398160, Note_on_c, 0, 75, 0
3, 398160, Note_on_c, 0, 79, 52
3, 398280, Note_on_c, 0, 79, 0
3, 398280, Note_on_c, 0, 84, 52
3, 398400, Note_on_c, 0, 84, 0
3, 398400, Control_c, 0, 64, 0
3, 398520, Control_c, 0, 64, 127
3, 398520, Note_on_c, 0, 86, 52
3, 398640, Note_on_c, 0, 86, 0
3, 398640, Note_on_c, 0, 83, 52
3, 398760, Note_on_c, 0, 83, 0
3, 398760, Note_on_c, 0, 77, 52
3, 398880, Note_on_c, 0, 77, 0
3, 398880, Note_on_c, 0, 71, 52
3, 399000, Note_on_c, 0, 71, 0
3, 399000, Note_on_c, 0, 77, 52
3, 399120, Note_on_c, 0, 77, 0
3, 399120, Note_on_c, 0, 83, 52
3, 399240, Note_on_c, 0, 83, 0
3, 399240, Control_c, 0, 64, 0
3, 399240, Note_on_c, 0, 86, 52
3, 399360, Note_on_c, 0, 86, 0
3, 399360, Note_on_c, 0, 98, 52
3, 399480, Note_on_c, 0, 98, 0
3, 399480, Note_on_c, 0, 95, 52
3, 399600, Note_on_c, 0, 95, 0
3, 399600, Note_on_c, 0, 89, 52
3, 399720, Note_on_c, 0, 89, 0
3, 399720, Note_on_c, 0, 86, 52
3, 399840, Note_on_c, 0, 86, 0
3, 399840, Note_on_c, 0, 86, 52
3, 399960, Note_on_c, 0, 86, 0
3, 399960, Note_on_c, 0, 83, 52
3, 400080, Note_on_c, 0, 83, 0
3, 400080, Note_on_c, 0, 77, 52
3, 400200, Note_on_c, 0, 77, 0
3, 400200, Note_on_c, 0, 71, 52
3, 400320, Note_on_c, 0, 71, 0
3, 400320, Control_c, 0, 64, 0
3, 400440, Control_c, 0, 64, 127
3, 400440, Note_on_c, 0, 75, 52
3, 400560, Note_on_c, 0, 75, 0
3, 400560, Note_on_c, 0, 72, 52
3, 400680, Note_on_c, 0, 72, 0
3, 400680, Note_on_c, 0, 67, 52
3, 400800, Note_on_c, 0, 67, 0
3, 400920, Note_on_c, 0, 72, 52
3, 401040, Note_on_c, 0, 72, 0
3, 401040, Note_on_c, 0, 67, 52
3, 401160, Note_on_c, 0, 67, 0
3, 401160, Note_on_c, 0, 63, 52
3, 401280, Note_on_c, 0, 63, 0
3, 401400, Note_on_c, 0, 62, 52
3, 401520, Note_on_c, 0, 62, 0
3, 401520, Note_on_c, 0, 63, 52
3, 401640, Note_on_c, 0, 63, 0
3, 401640, Note_on_c, 0, 67, 52
3, 401760, Note_on_c, 0, 67, 0
3, 401880, Note_on_c, 0, 75, 52
3, 402000, Note_on_c, 0, 75, 0
3, 402000, Note_on_c, 0, 79, 52
3, 402120, Note_on_c, 0, 79, 0
3, 402120, Note_on_c, 0, 84, 52
3, 402240, Note_on_c, 0, 84, 0
3, 402240, Control_c, 0, 64, 0
3, 402360, Control_c, 0, 64, 127
3, 402360, Note_on_c, 0, 86, 52
3, 402480, Note_on_c, 0, 86, 0
3, 402480, Note_on_c, 0, 83, 52
3, 402600, Note_on_c, 0, 83, 0
3, 402600, Note_on_c, 0, 77, 52
3, 402720, Note_on_c, 0, 77, 0
3, 402720, Note_on_c, 0, 71, 52
3, 402840, Note_on_c, 0, 71, 0
3, 402840, Note_on_c, 0, 77, 52
3, 402960, Note_on_c, 0, 77, 0
3, 402960, Note_on_c, 0, 83, 52
3, 403080, Note_on_c, 0, 83, 0
3, 403080, Control_c, 0, 64, 0
3, 403080, Note_on_c, 0, 86, 52
3, 403200, Note_on_c, 0, 86, 0
3, 403200, Note_on_c, 0, 98, 52
3, 403320, Note_on_c, 0, 98, 0
3, 403320, Note_on_c, 0, 95, 52
3, 403440, Note_on_c, 0, 95, 0
3, 403440, Note_on_c, 0, 89, 52
3, 403560, Note_on_c, 0, 89, 0
3, 403560, Note_on_c, 0, 86, 52
3, 403680, Note_on_c, 0, 86, 0
3, 403680, Note_on_c, 0, 86, 52
3, 403800, Note_on_c, 0, 86, 0
3, 403800, Note_on_c, 0, 83, 52
3, 403920, Note_on_c, 0, 83, 0
3, 403920, Note_on_c, 0, 77, 52
3, 404040, Note_on_c, 0, 77, 0
3, 404040, Control_c, 0, 64, 0
3, 404040, Note_on_c, 0, 71, 52
3, 404160, Note_on_c, 0, 71, 0
3, 404160, Control_c, 0, 64, 127
3, 404160, Note_on_c, 0, 31, 52
3, 404160, Note_on_c, 0, 43, 52
3, 404640, Note_on_c, 0, 43, 0
3, 404640, Note_on_c, 0, 31, 0
3, 404640, Note_on_c, 0, 45, 52
3, 405120, Note_on_c, 0, 45, 0
3, 405120, Note_on_c, 0, 47, 52
3, 405600, Note_on_c, 0, 47, 0
3, 405600, Control_c, 0, 64, 0
3, 405600, Note_on_c, 0, 48, 52
3, 406080, Note_on_c, 0, 48, 0
3, 406080, Control_c, 0, 64, 127
3, 406080, Note_on_c, 0, 41, 65
3, 406080, Note_on_c, 0, 44, 65
3, 406080, Note_on_c, 0, 48, 65
3, 406560, Note_on_c, 0, 48, 0
3, 406560, Note_on_c, 0, 44, 0
3, 406560, Note_on_c, 0, 41, 0
3, 406560, Note_on_c, 0, 50, 65
3, 407040, Note_on_c, 0, 50, 0
3, 407040, Note_on_c, 0, 52, 65
3, 407520, Note_on_c, 0, 52, 0
3, 407520, Control_c, 0, 64, 0
3, 407520, Note_on_c, 0, 53, 65
3, 408000, Note_on_c, 0, 53, 0
3, 408000, Control_c, 0, 64, 127
3, 408000, Note_on_c, 0, 49, 65
3, 408000, Note_on_c, 0, 53, 65
3, 408000, Note_on_c, 0, 55, 65
3, 408480, Note_on_c, 0, 55, 0
3, 408480, Note_on_c, 0, 53, 0
3, 408480, Note_on_c, 0, 49, 0
3, 408480, Note_on_c, 0, 56, 65
3, 408960, Note_on_c, 0, 56, 0
3, 408960, Note_on_c, 0, 57, 65
3, 409440, Note_on_c, 0, 57, 0
3, 409440, Control_c, 0, 64, 0
3, 409440, Note_on_c, 0, 58, 65
3, 409920, Note_on_c, 0, 58, 0
3, 409920, Control_c, 0, 64, 127
3, 409920, Note_on_c, 0, 53, 65
3, 409920, Note_on_c, 0, 56, 65
3, 409920, Note_on_c, 0, 59, 65
3, 410400, Note_on_c, 0, 59, 0
3, 410400, Note_on_c, 0, 56, 0
3, 410400, Note_on_c, 0, 53, 0
3, 410400, Note_on_c, 0, 60, 65
3, 410880, Note_on_c, 0, 60, 0
3, 410880, Control_c, 0, 64, 127
3, 410880, Note_on_c, 0, 56, 65
3, 410880, Note_on_c, 0, 60, 65
3, 410880, Note_on_c, 0, 62, 65
3, 411360, Note_on_c, 0, 62, 0
3, 411360, Note_on_c, 0, 60, 0
3, 411360, Note_on_c, 0, 56, 0
3, 411360, Control_c, 0, 64, 0
3, 411360, Note_on_c, 0, 63, 65
3, 411840, Note_on_c, 0, 63, 0
3, 411840, Control_c, 0, 64, 127
3, 411840, Note_on_c, 0, 66, 65
3, 411840, Note_on_c, 0, 68, 65
3, 411840, Note_on_c, 0, 74, 65
3, 412320, Note_on_c, 0, 74, 0
3, 412320, Note_on_c, 0, 68, 0
3, 412320, Note_on_c, 0, 66, 0
3, 412320, Note_on_c, 0, 75, 65
3, 412800, Note_on_c, 0, 75, 0
3, 412800, Note_on_c, 0, 54, 65
3, 412800, Note_on_c, 0, 56, 65
3, 412800, Note_on_c, 0, 62, 65
3, 413280, Note_on_c, 0, 62, 0
3, 413280, Note_on_c, 0, 56, 0
3, 413280, Note_on_c, 0, 54, 0
3, 413280, Note_on_c, 0, 63, 65
3, 413760, Note_on_c, 0, 63, 0
3, 413760, Note_on_c, 0, 42, 65
3, 413760, Note_on_c, 0, 44, 65
3, 413760, Note_on_c, 0, 50, 65
3, 414240, Note_on_c, 0, 50, 0
3, 414240, Note_on_c, 0, 44, 0
3, 414240, Note_on_c, 0, 42, 0
3, 414240, Control_c, 0, 64, 0
3, 414240, Note_on_c, 0, 51, 65
3, 414720, Note_on_c, 0, 51, 0
3, 414720, Note_on_c, 0, 31, 65
3, 414720, Note_on_c, 0, 36, 65
3, 414720, Note_on_c, 0, 39, 65
3, 414720, Note_on_c, 0, 43, 65
3, 415200, Note_on_c, 0, 43, 0
3, 415200, Note_on_c, 0, 31, 0
3, 415200, Note_on_c, 0, 36, 0
3, 415200, Note_on_c, 0, 39, 0
3, 423360, Control_c, 0, 64, 127
3, 423360, Note_on_c, 0, 60, 78
3, 423360, Note_on_c, 0, 63, 78
3, 423360, Note_on_c, 0, 67, 78
3, 423519, Note_on_c, 0, 67, 0
3, 423519, Note_on_c, 0, 63, 0
3, 423519, Note_on_c, 0, 60, 0
3, 423519, Note_on_c, 0, 55, 78
3, 423680, Note_on_c, 0, 55, 0
3, 423680, Note_on_c, 0, 48, 78
3, 423680, Note_on_c, 0, 51, 78
3, 423840, Note_on_c, 0, 51, 0
3, 423840, Note_on_c, 0, 48, 0
3, 423840, Note_on_c, 0, 43, 78
3, 424080, Note_on_c, 0, 43, 0
3, 424080, Control_c, 0, 64, 0
3, 425280, Control_c, 0, 64, 127
3, 425280, Note_on_c, 0, 60, 78
3, 425280, Note_on_c, 0, 63, 78
3, 425280, Note_on_c, 0, 68, 78
3, 425439, Note_on_c, 0, 68, 0
3, 425439, Note_on_c, 0, 63, 0
3, 425439, Note_on_c, 0, 60, 0
3, 425439, Note_on_c, 0, 56, 78
3, 425600, Note_on_c, 0, 56, 0
3, 425600, Note_on_c, 0, 48, 78
3, 425600, Note_on_c, 0, 51, 78
3, 425760, Note_on_c, 0, 51, 0
3, 425760, Note_on_c, 0, 48, 0
3, 425760, Note_on_c, 0, 43, 78
3, 426000, Note_on_c, 0, 43, 0
3, 426000, Control_c, 0, 64, 0
3, 426720, Control_c, 0, 64, 127
3, 427200, Note_on_c, 0, 61, 78
3, 427200, Note_on_c, 0, 64, 78
3, 427200, Note_on_c, 0, 69, 78
3, 427359, Note_on_c, 0, 69, 0
3, 427359, Note_on_c, 0, 64, 0
3, 427359, Note_on_c, 0, 61, 0
3, 427359, Note_on_c, 0, 57, 78
3, 427520, Note_on_c, 0, 57, 0
3, 427520, Note_on_c, 0, 49, 78
3, 427520, Note_on_c, 0, 52, 78
3, 427680, Note_on_c, 0, 52, 0
3, 427680, Note_on_c, 0, 49, 0
3, 427680, Note_on_c, 0, 43, 78
3, 427920, Note_on_c, 0, 43, 0
3, 427920, Control_c, 0, 64, 0
3, 435999, Note_on_c, 0, 53, 91
3, 435999, Note_on_c, 0, 65, 91
3, 436031, Note_on_c, 0, 65, 0
3, 436031, Note_on_c, 0, 53, 0
3, 436160, Note_on_c, 0, 55, 91
3, 436160, Note_on_c, 0, 67, 91
3, 436192, Note_on_c, 0, 67, 0
3, 436192, Note_on_c, 0, 55, 0
3, 436320, Note_on_c, 0, 56, 117
3, 436320, Note_on_c, 0, 68, 117
3, 436959, Note_on_c, 0, 68, 0
3, 436959, Note_on_c, 0, 56, 0
3, 436959, Note_on_c, 0, 50, 91
3, 436959, Note_on_c, 0, 62, 91
3, 436991, Note_on_c, 0, 62, 0
3, 436991, Note_on_c, 0, 50, 0
3, 437120, Note_on_c, 0, 51, 91
3, 437120, Note_on_c, 0, 63, 91
3, 437152, Note_on_c, 0, 63, 0
3, 437152, Note_on_c, 0, 51, 0
3, 437280, Note_on_c, 0, 53, 91
3, 437280, Note_on_c, 0, 65, 91
3, 437311, Note_on_c, 0, 65, 0
3, 437311, Note_on_c, 0, 53, 0
3, 437439, Note_on_c, 0, 47, 91
3, 437439, Note_on_c, 0, 59, 91
3, 437471, Note_on_c, 0, 59, 0
3, 437471, Note_on_c, 0, 47, 0
3, 437600, Note_on_c, 0, 48, 91
3, 437600, Note_on_c, 0, 60, 91
3, 437632, Note_on_c, 0, 60, 0
3, 437632, Note_on_c, 0, 48, 0
3, 437760, Note_on_c, 0, 50, 91
3, 437760, Note_on_c, 0, 62, 91
3, 437791, Note_on_c, 0, 62, 0
3, 437791, Note_on_c, 0, 50, 0
3, 437919, Note_on_c, 0, 41, 91
3, 437919, Note_on_c, 0, 53, 91
3, 437951, Note_on_c, 0, 53, 0
3, 437951, Note_on_c, 0, 41, 0
3, 438080, Note_on_c, 0, 43, 91
3, 438080, Note_on_c, 0, 55, 91
3, 438112, Note_on_c, 0, 55, 0
3, 438112, Note_on_c, 0, 43, 0
3, 438240, Note_on_c, 0, 44, 91
3, 438240, Note_on_c, 0, 56, 91
3, 438271, Note_on_c, 0, 56, 0
3, 438271, Note_on_c, 0, 44, 0
3, 438399, Note_on_c, 0, 38, 91
3, 438399, Note_on_c, 0, 50, 91
3, 438431, Note_on_c, 0, 50, 0
3, 438431, Note_on_c, 0, 38, 0
3, 438560, Note_on_c, 0, 39, 91
3, 438560, Note_on_c, 0, 51, 91
3, 438592, Note_on_c, 0, 51, 0
3, 438592, Note_on_c, 0, 39, 0
3, 438720, Note_on_c, 0, 41, 91
3, 438720, Note_on_c, 0, 53, 91
3, 438751, Note_on_c, 0, 53, 0
3, 438751, Note_on_c, 0, 41, 0
3, 438879, Note_on_c, 0, 29, 91
3, 438879, Note_on_c, 0, 41, 91
3, 438911, Note_on_c, 0, 41, 0
3, 438911, Note_on_c, 0, 29, 0
3, 439040, Note_on_c, 0, 32, 91
3, 439040, Note_on_c, 0, 44, 91
3, 439072, Note_on_c, 0, 44, 0
3, 439072, Note_on_c, 0, 32, 0
3, 439200, Note_on_c, 0, 35, 91
3, 439200, Note_on_c, 0, 47, 91
3, 439231, Note_on_c, 0, 47, 0
3, 439231, Note_on_c, 0, 35, 0
3, 439359, Note_on_c, 0, 38, 91
3, 439359, Note_on_c, 0, 50, 91
3, 439391, Note_on_c, 0, 50, 0
3, 439391, Note_on_c, 0, 38, 0
3, 439520, Note_on_c, 0, 41, 91
3, 439520, Note_on_c, 0, 53, 91
3, 439552, Note_on_c, 0, 53, 0
3, 439552, Note_on_c, 0, 41, 0
3, 439839, Note_on_c, 0, 54, 91
3, 439839, Note_on_c, 0, 66, 91
3, 439871, Note_on_c, 0, 66, 0
3, 439871, Note_on_c, 0, 54, 0
3, 440000, Note_on_c, 0, 56, 91
3, 440000, Note_on_c, 0, 68, 91
3, 440032, Note_on_c, 0, 68, 0
3, 440032, Note_on_c, 0, 56, 0
3, 440160, Note_on_c, 0, 57, 117
3, 440160, Note_on_c, 0, 69, 117
3, 440799, Note_on_c, 0, 69, 0
3, 440799, Note_on_c, 0, 57, 0
3, 440799, Note_on_c, 0, 51, 91
3, 440799, Note_on_c, 0, 63, 91
3, 440831, Note_on_c, 0, 63, 0
3, 440831, Note_on_c, 0, 51, 0
3, 440960, Note_on_c, 0, 53, 91
3, 440960, Note_on_c, 0, 65, 91
3, 440992, Note_on_c, 0, 65, 0
3, 440992, Note_on_c, 0, 53, 0
3, 441120, Note_on_c, 0, 54, 91
3, 441120, Note_on_c, 0, 66, 91
3, 441151, Note_on_c, 0, 66, 0
3, 441151, Note_on_c, 0, 54, 0
3, 441279, Note_on_c, 0, 48, 91
3, 441279, Note_on_c, 0, 60, 91
3, 441311, Note_on_c, 0, 60, 0
3, 441311, Note_on_c, 0, 48, 0
3, 441440, Note_on_c, 0, 50, 91
3, 441440, Note_on_c, 0, 62, 91
3, 441472, Note_on_c, 0, 62, 0
3, 441472, Note_on_c, 0, 50, 0
3, 441600, Note_on_c, 0, 51, 91
3, 441600, Note_on_c, 0, 63, 91
3, 441631, Note_on_c, 0, 63, 0
3, 441631, Note_on_c, 0, 51, 0
3, 441759, Note_on_c, 0, 42, 91
3, 441759, Note_on_c, 0, 54, 91
3, 441791, Note_on_c, 0, 54, 0
3, 441791, Note_on_c, 0, 42, 0
3, 441920, Note_on_c, 0, 44, 91
3, 441920, Note_on_c, 0, 56, 91
3, 441952, Note_on_c, 0, 56, 0
3, 441952, Note_on_c, 0, 44, 0
3, 442080, Note_on_c, 0, 45, 91
3, 442080, Note_on_c, 0, 57, 91
3, 442111, Note_on_c, 0, 57, 0
3, 442111, Note_on_c, 0, 45, 0
3, 442239, Note_on_c, 0, 39, 91
3, 442239, Note_on_c, 0, 51, 91
3, 442271, Note_on_c, 0, 51, 0
3, 442271, Note_on_c, 0, 39, 0
3, 442400, Note_on_c, 0, 41, 91
3, 442400, Note_on_c, 0, 53, 91
3, 442432, Note_on_c, 0, 53, 0
3, 442432, Note_on_c, 0, 41, 0
3, 442560, Note_on_c, 0, 42, 91
3, 442560, Note_on_c, 0, 54, 91
3, 442591, Note_on_c, 0, 54, 0
3, 442591, Note_on_c, 0, 42, 0
3, 442719, Note_on_c, 0, 30, 91
3, 442719, Note_on_c, 0, 42, 91
3, 442751, Note_on_c, 0, 42, 0
3, 442751, Note_on_c, 0, 30, 0
3, 442880, Note_on_c, 0, 33, 91
3, 442880, Note_on_c, 0, 45, 91
3, 442912, Note_on_c, 0, 45, 0
3, 442912, Note_on_c, 0, 33, 0
3, 443040, Note_on_c, 0, 36, 91
3, 443040, Note_on_c, 0, 48, 91
3, 443071, Note_on_c, 0, 48, 0
3, 443071, Note_on_c, 0, 36, 0
3, 443199, Note_on_c, 0, 39, 91
3, 443199, Note_on_c, 0, 51, 91
3, 443231, Note_on_c, 0, 51, 0
3, 443231, Note_on_c, 0, 39, 0
3, 443360, Note_on_c, 0, 42, 91
3, 443360, Note_on_c, 0, 54, 91
3, 443392, Note_on_c, 0, 54, 0
3, 443392, Note_on_c, 0, 42, 0
3, 443679, Note_on_c, 0, 41, 91
3, 443679, Note_on_c, 0, 53, 91
3, 443711, Note_on_c, 0, 53, 0
3, 443711, Note_on_c, 0, 41, 0
3, 443840, Note_on_c, 0, 44, 91
3, 443840, Note_on_c, 0, 56, 91
3, 443872, Note_on_c, 0, 56, 0
3, 443872, Note_on_c, 0, 44, 0
3, 444000, Note_on_c, 0, 47, 91
3, 444000, Note_on_c, 0, 59, 91
3, 444031, Note_on_c, 0, 59, 0
3, 444031, Note_on_c, 0, 47, 0
3, 444159, Note_on_c, 0, 50, 91
3, 444159, Note_on_c, 0, 62, 91
3, 444191, Note_on_c, 0, 62, 0
3, 444191, Note_on_c, 0, 50, 0
3, 444320, Note_on_c, 0, 53, 91
3, 444320, Note_on_c, 0, 65, 91
3, 444352, Note_on_c, 0, 65, 0
3, 444352, Note_on_c, 0, 53, 0
3, 444639, Note_on_c, 0, 44, 91
3, 444639, Note_on_c, 0, 56, 91
3, 444671, Note_on_c, 0, 56, 0
3, 444671, Note_on_c, 0, 44, 0
3, 444800, Note_on_c, 0, 47, 91
3, 444800, Note_on_c, 0, 59, 91
3, 444832, Note_on_c, 0, 59, 0
3, 444832, Note_on_c, 0, 47, 0
3, 444960, Note_on_c, 0, 49, 91
3, 444960, Note_on_c, 0, 61, 91
3, 444991, Note_on_c, 0, 61, 0
3, 444991, Note_on_c, 0, 49, 0
3, 445119, Note_on_c, 0, 53, 91
3, 445119, Note_on_c, 0, 65, 91
3, 445151, Note_on_c, 0, 65, 0
3, 445151, Note_on_c, 0, 53, 0
3, 445280, Note_on_c, 0, 56, 91
3, 445280, Note_on_c, 0, 68, 91
3, 445312, Note_on_c, 0, 68, 0
3, 445312, Note_on_c, 0, 56, 0
3, 445599, Note_on_c, 0, 44, 91
3, 445599, Note_on_c, 0, 56, 91
3, 445631, Note_on_c, 0, 56, 0
3, 445631, Note_on_c, 0, 44, 0
3, 445760, Note_on_c, 0, 48, 91
3, 445760, Note_on_c, 0, 60, 91
3, 445792, Note_on_c, 0, 60, 0
3, 445792, Note_on_c, 0, 48, 0
3, 445920, Note_on_c, 0, 53, 91
3, 445920, Note_on_c, 0, 65, 91
3, 445951, Note_on_c, 0, 65, 0
3, 445951, Note_on_c, 0, 53, 0
3, 446079, Note_on_c, 0, 56, 91
3, 446079, Note_on_c, 0, 68, 91
3, 446111, Note_on_c, 0, 68, 0
3, 446111, Note_on_c, 0, 56, 0
3, 446240, Note_on_c, 0, 60, 91
3, 446240, Note_on_c, 0, 72, 91
3, 446272, Note_on_c, 0, 72, 0
3, 446272, Note_on_c, 0, 60, 0
3, 446559, Note_on_c, 0, 44, 91
3, 446559, Note_on_c, 0, 56, 91
3, 446591, Note_on_c, 0, 56, 0
3, 446591, Note_on_c, 0, 44, 0
3, 446720, Note_on_c, 0, 50, 91
3, 446720, Note_on_c, 0, 62, 91
3, 446752, Note_on_c, 0, 62, 0
3, 446752, Note_on_c, 0, 50, 0
3, 446880, Note_on_c, 0, 53, 91
3, 446880, Note_on_c, 0, 65, 91
3, 446911, Note_on_c, 0, 65, 0
3, 446911, Note_on_c, 0, 53, 0
3, 447039, Note_on_c, 0, 56, 91
3, 447039, Note_on_c, 0, 68, 91
3, 447071, Note_on_c, 0, 68, 0
3, 447071, Note_on_c, 0, 56, 0
3, 447200, Note_on_c, 0, 62, 91
3, 447200, Note_on_c, 0, 74, 91
3, 447232, Note_on_c, 0, 74, 0
3, 447232, Note_on_c, 0, 62, 0
3, 447519, Note_on_c, 0, 48, 91
3, 447519, Note_on_c, 0, 60, 91
3, 447551, Note_on_c, 0, 60, 0
3, 447551, Note_on_c, 0, 48, 0
3, 447680, Note_on_c, 0, 50, 91
3, 447680, Note_on_c, 0, 62, 91
3, 447712, Note_on_c, 0, 62, 0
3, 447712, Note_on_c, 0, 50, 0
3, 447840, Note_on_c, 0, 54, 91
3, 447840, Note_on_c, 0, 66, 91
3, 447871, Note_on_c, 0, 66, 0
3, 447871, Note_on_c, 0, 54, 0
3, 447999, Note_on_c, 0, 60, 91
3, 447999, Note_on_c, 0, 72, 91
3, 448031, Note_on_c, 0, 72, 0
3, 448031, Note_on_c, 0, 60, 0
3, 448160, Note_on_c, 0, 62, 91
3, 448160, Note_on_c, 0, 74, 91
3, 448192, Note_on_c, 0, 74, 0
3, 448192, Note_on_c, 0, 62, 0
3, 448320, Control_c, 0, 64, 127
3, 448320, Note_on_c, 0, 63, 91
3, 448320, Note_on_c, 0, 75, 91
3, 448351, Note_on_c, 0, 75, 0
3, 448351, Note_on_c, 0, 63, 0
3, 448479, Note_on_c, 0, 62, 91
3, 448479, Note_on_c, 0, 74, 91
3, 448511, Note_on_c, 0, 74, 0
3, 448511, Note_on_c, 0, 62, 0
3, 448640, Note_on_c, 0, 60, 91
3, 448640, Note_on_c, 0, 72, 91
3, 448672, Note_on_c, 0, 72, 0
3, 448672, Note_on_c, 0, 60, 0
3, 448800, Note_on_c, 0, 56, 91
3, 448800, Note_on_c, 0, 68, 91
3, 448831, Note_on_c, 0, 68, 0
3, 448831, Note_on_c, 0, 56, 0
3, 448959, Note_on_c, 0, 55, 91
3, 448959, Note_on_c, 0, 67, 91
3, 448991, Note_on_c, 0, 67, 0
3, 448991, Note_on_c, 0, 55, 0
3, 449120, Note_on_c, 0, 53, 91
3, 449120, Note_on_c, 0, 65, 91
3, 449152, Note_on_c, 0, 65, 0
3, 449152, Note_on_c, 0, 53, 0
3, 449280, Note_on_c, 0, 51, 91
3, 449280, Note_on_c, 0, 63, 91
3, 449311, Note_on_c, 0, 63, 0
3, 449311, Note_on_c, 0, 51, 0
3, 449439, Note_on_c, 0, 50, 91
3, 449439, Note_on_c, 0, 62, 91
3, 449471, Note_on_c, 0, 62, 0
3, 449471, Note_on_c, 0, 50, 0
3, 449600, Note_on_c, 0, 48, 91
3, 449600, Note_on_c, 0, 60, 91
3, 449632, Note_on_c, 0, 60, 0
3, 449632, Note_on_c, 0, 48, 0
3, 449760, Note_on_c, 0, 44, 91
3, 449760, Note_on_c, 0, 56, 91
3, 449791, Note_on_c, 0, 56, 0
3, 449791, Note_on_c, 0, 44, 0
3, 449919, Note_on_c, 0, 43, 91
3, 449919, Note_on_c, 0, 55, 91
3, 449951, Note_on_c, 0, 55, 0
3, 449951, Note_on_c, 0, 43, 0
3, 450080, Note_on_c, 0, 41, 91
3, 450080, Note_on_c, 0, 53, 91
3, 450112, Note_on_c, 0, 53, 0
3, 450112, Note_on_c, 0, 41, 0
3, 450240, Note_on_c, 0, 39, 117
3, 450240, Note_on_c, 0, 51, 117
3, 450480, Note_on_c, 0, 51, 0
3, 450480, Note_on_c, 0, 39, 0
3, 450480, Note_on_c, 0, 38, 117
3, 450480, Note_on_c, 0, 50, 117
3, 450720, Note_on_c, 0, 50, 0
3, 450720, Note_on_c, 0, 38, 0
3, 450720, Note_on_c, 0, 36, 117
3, 450720, Note_on_c, 0, 48, 117
3, 450960, Note_on_c, 0, 48, 0
3, 450960, Note_on_c, 0, 36, 0
3, 450960, Note_on_c, 0, 32, 117
3, 450960, Note_on_c, 0, 44, 117
3, 451200, Note_on_c, 0, 44, 0
3, 451200, Note_on_c, 0, 32, 0
3, 451200, Note_on_c, 0, 31, 91
3, 451200, Note_on_c, 0, 36, 91
3, 451200, Note_on_c, 0, 39, 91
3, 451200, Note_on_c, 0, 43, 91
3, 451680, Note_on_c, 0, 43, 0
3, 451680, Note_on_c, 0, 31, 0
3, 451680, Note_on_c, 0, 36, 0
3, 451680, Note_on_c, 0, 39, 0
3, 452160, Note_on_c, 0, 43, 91
3, 452160, Note_on_c, 0, 48, 91
3, 452160, Note_on_c, 0, 51, 91
3, 452160, Note_on_c, 0, 55, 91
3, 452640, Note_on_c, 0, 55, 0
3, 452640, Note_on_c, 0, 43, 0
3, 452640, Note_on_c, 0, 48, 0
3, 452640, Note_on_c, 0, 51, 0
3, 454080, Note_on_c, 0, 55, 91
3, 454080, Note_on_c, 0, 60, 91
3, 454080, Note_on_c, 0, 63, 91
3, 454080, Note_on_c, 0, 67, 91
3, 454080, Note_on_c, 0, 72, 91
3, 454080, Note_on_c, 0, 75, 91
3, 454944, Note_on_c, 0, 43, 91
3, 454968, Note_on_c, 0, 50, 91
3, 454992, Note_on_c, 0, 53, 91
3, 455016, Note_on_c, 0, 59, 91
3, 455040, Note_on_c, 0, 75, 0
3, 455040, Note_on_c, 0, 67, 0
3, 455040, Note_on_c, 0, 55, 0
3, 455040, Note_on_c, 0, 63, 0
3, 455040, Note_on_c, 0, 72, 0
3, 455040, Note_on_c, 0, 60, 0
3, 455040, Control_c, 0, 64, 127
3, 455040, Note_on_c, 0, 65, 91
3, 455904, Note_on_c, 0, 43, 91
3, 455928, Note_on_c, 0, 50, 91
3, 455952, Note_on_c, 0, 53, 91
3, 455976, Note_on_c, 0, 59, 91
3, 456000, Note_on_c, 0, 65, 0
3, 456000, Note_on_c, 0, 53, 0
3, 456000, Note_on_c, 0, 59, 0
3, 456000, Note_on_c, 0, 50, 0
3, 456000, Note_on_c, 0, 43, 0
3, 456000, Note_on_c, 0, 65, 91
3, 456864, Note_on_c, 0, 43, 91
3, 456888, Note_on_c, 0, 50, 91
3, 456912, Note_on_c, 0, 53, 91
3, 456936, Note_on_c, 0, 59, 91
3, 456960, Note_on_c, 0, 65, 0
3, 456960, Note_on_c, 0, 53, 0
3, 456960, Note_on_c, 0, 59, 0
3, 456960, Note_on_c, 0, 50, 0
3, 456960, Note_on_c, 0, 43, 0
3, 456960, Note_on_c, 0, 65, 91
3, 457824, Note_on_c, 0, 43, 91
3, 457848, Note_on_c, 0, 50, 91
3, 457872, Note_on_c, 0, 53, 91
3, 457896, Note_on_c, 0, 59, 91
3, 457920, Note_on_c, 0, 65, 0
3, 457920, Note_on_c, 0, 53, 0
3, 457920, Note_on_c, 0, 59, 0
3, 457920, Note_on_c, 0, 50, 0
3, 457920, Note_on_c, 0, 43, 0
3, 457920, Note_on_c, 0, 65, 91
3, 458400, Control_c, 0, 64, 0
3, 458880, Note_on_c, 0, 65, 0
3, 458880, Note_on_c, 0, 50, 0
3, 458880, Note_on_c, 0, 59, 0
3, 458880, Note_on_c, 0, 43, 0
3, 458880, Note_on_c, 0, 53, 0
3, 458880, Control_c, 0, 64, 127
3, 458880, Note_on_c, 0, 24, 91
3, 458880, Note_on_c, 0, 36, 91
3, 459200, Note_on_c, 0, 36, 0
3, 459200, Note_on_c, 0, 24, 0
3, 459200, Note_on_c, 0, 43, 91
3, 459519, Note_on_c, 0, 43, 0
3, 459519, Note_on_c, 0, 48, 91
3, 459840, Note_on_c, 0, 48, 0
3, 459840, Note_on_c, 0, 51, 91
3, 459960, Note_on_c, 0, 51, 0
3, 459960, Note_on_c, 0, 55, 91
3, 460080, Note_on_c, 0, 55, 0
3, 460080, Note_on_c, 0, 60, 91
3, 460200, Note_on_c, 0, 60, 0
3, 460200, Note_on_c, 0, 63, 91
3, 460320, Note_on_c, 0, 63, 0
3, 463200, Note_on_c, 0, 60, 91
3, 463280, Note_on_c, 0, 60, 0
3, 463280, Note_on_c, 0, 55, 91
3, 463359, Note_on_c, 0, 55, 0
3, 463359, Note_on_c, 0, 51, 91
3, 463440, Note_on_c, 0, 51, 0
3, 463440, Note_on_c, 0, 48, 91
3, 463520, Note_on_c, 0, 48, 0
3, 463520, Note_on_c, 0, 43, 91
3, 463599, Note_on_c, 0, 43, 0
3, 463599, Note_on_c, 0, 39, 91
3, 463680, Note_on_c, 0, 39, 0
3, 463680, Note_on_c, 0, 36, 91
3, 463767, Note_on_c, 0, 36, 0
3, 463767, Note_on_c, 0, 39, 91
3, 463854, Note_on_c, 0, 39, 0
3, 463854, Note_on_c, 0, 43, 91
3, 463942, Note_on_c, 0, 43, 0
3, 463942, Note_on_c, 0, 48, 91
3, 464029, Note_on_c, 0, 48, 0
3, 464029, Note_on_c, 0, 51, 91
3, 464116, Note_on_c, 0, 51, 0
3, 464116, Note_on_c, 0, 55, 91
3, 464203, Note_on_c, 0, 55, 0
3, 464203, Note_on_c, 0, 60, 91
3, 464290, Note_on_c, 0, 60, 0
3, 464290, Note_on_c, 0, 63, 91
3, 464378, Note_on_c, 0, 63, 0
3, 464378, Note_on_c, 0, 67, 91
3, 464465, Note_on_c, 0, 67, 0
3, 464465, Note_on_c, 0, 72, 91
3, 464552, Note_on_c, 0, 72, 0
3, 464552, Note_on_c, 0, 75, 91
3, 464640, Note_on_c, 0, 75, 0
3, 466080, Control_c, 0, 64, 0
3, 467040, Note_on_c, 0, 70, 39
3, 467040, Note_on_c, 0, 73, 39
3, 468000, Note_on_c, 0, 73, 0
3, 468000, Note_on_c, 0, 70, 0
3, 468000, Note_on_c, 0, 70, 39
3, 468000, Note_on_c, 0, 73, 39
3, 468960, Note_on_c, 0, 73, 0
3, 468960, Note_on_c, 0, 70, 0
3, 468960, Note_on_c, 0, 72, 39
3, 468960, Note_on_c, 0, 75, 39
3, 469920, Note_on_c, 0, 75, 0
3, 469920, Note_on_c, 0, 72, 0
3, 469920, Note_on_c, 0, 68, 39
3, 469920, Note_on_c, 0, 72, 39
3, 470880, Note_on_c, 0, 72, 0
3, 470880, Note_on_c, 0, 68, 0
3, 470880, Note_on_c, 0, 67, 39
3, 470880, Note_on_c, 0, 70, 39
3, 471840, Note_on_c, 0, 70, 0
3, 471840, Note_on_c, 0, 67, 0
3, 471840, Note_on_c, 0, 67, 39
3, 471840, Note_on_c, 0, 70, 39
3, 472800, Note_on_c, 0, 70, 0
3, 472800, Note_on_c, 0, 67, 0
3, 472800, Note_on_c, 0, 68, 39
3, 472800, Note_on_c, 0, 72, 39
3, 473760, Note_on_c, 0, 72, 0
3, 473760, Note_on_c, 0, 68, 0
3, 473760, Note_on_c, 0, 68, 39
3, 473760, Note_on_c, 0, 72, 39
3, 474720, Note_on_c, 0, 72, 0
3, 474720, Note_on_c, 0, 68, 0
3, 474720, Note_on_c, 0, 70, 39
3, 474720, Note_on_c, 0, 73, 39
3, 475680, Note_on_c, 0, 73, 0
3, 475680, Note_on_c, 0, 70, 0
3, 475680, Note_on_c, 0, 70, 39
3, 475680, Note_on_c, 0, 73, 39
3, 476640, Note_on_c, 0, 73, 0
3, 476640, Note_on_c, 0, 70, 0
3, 476640, Note_on_c, 0, 72, 39
3, 476640, Note_on_c, 0, 75, 39
3, 477600, Note_on_c, 0, 75, 0
3, 477600, Note_on_c, 0, 72, 0
3, 477600, Note_on_c, 0, 68, 39
3, 477600, Note_on_c, 0, 72, 39
3, 478560, Note_on_c, 0, 72, 0
3, 478560, Note_on_c, 0, 68, 0
3, 478560, Note_on_c, 0, 67, 39
3, 478560, Note_on_c, 0, 70, 39
3, 479520, Note_on_c, 0, 70, 0
3, 479520, Note_on_c, 0, 67, 0
3, 479520, Note_on_c, 0, 67, 39
3, 479520, Note_on_c, 0, 70, 39
3, 480480, Note_on_c, 0, 70, 0
3, 480480, Note_on_c, 0, 67, 0
3, 480480, Note_on_c, 0, 68, 39
3, 480480, Note_on_c, 0, 72, 39
3, 481440, Note_on_c, 0, 72, 0
3, 481440, Note_on_c, 0, 68, 0
3, 496320, Control_c, 0, 64, 127
3, 496320, Note_on_c, 0, 32, 39
3, 496440, Note_on_c, 0, 32, 0
3, 496440, Note_on_c, 0, 39, 39
3, 496560, Note_on_c, 0, 39, 0
3, 496560, Note_on_c, 0, 44, 39
3, 496680, Note_on_c, 0, 44, 0
3, 496680, Note_on_c, 0, 48, 39
3, 496800, Note_on_c, 0, 48, 0
3, 496800, Note_on_c, 0, 51, 39
3, 496920, Note_on_c, 0, 51, 0
3, 496920, Note_on_c, 0, 56, 39
3, 497040, Note_on_c, 0, 56, 0
3, 497040, Note_on_c, 0, 60, 39
3, 497160, Note_on_c, 0, 60, 0
3, 497160, Note_on_c, 0, 63, 39
3, 497280, Note_on_c, 0, 63, 0
3, 497280, Note_on_c, 0, 68, 39
3, 497400, Note_on_c, 0, 68, 0
3, 497400, Note_on_c, 0, 72, 39
3, 497520, Note_on_c, 0, 72, 0
3, 497520, Note_on_c, 0, 75, 39
3, 497640, Note_on_c, 0, 75, 0
3, 497640, Control_c, 0, 64, 0
3, 500160, Control_c, 0, 64, 127
3, 500160, Note_on_c, 0, 32, 39
3, 500280, Note_on_c, 0, 32, 0
3, 500280, Note_on_c, 0, 39, 39
3, 500400, Note_on_c, 0, 39, 0
3, 500400, Note_on_c, 0, 44, 39
3, 500520, Note_on_c, 0, 44, 0
3, 500520, Note_on_c, 0, 48, 39
3, 500640, Note_on_c, 0, 48, 0
3, 500640, Note_on_c, 0, 51, 39
3, 500760, Note_on_c, 0, 51, 0
3, 500760, Note_on_c, 0, 56, 39
3, 500880, Note_on_c, 0, 56, 0
3, 500880, Note_on_c, 0, 60, 39
3, 501000, Note_on_c, 0, 60, 0
3, 501000, Note_on_c, 0, 63, 39
3, 501120, Note_on_c, 0, 63, 0
3, 501120, Note_on_c, 0, 68, 39
3, 501240, Note_on_c, 0, 68, 0
3, 501240, Note_on_c, 0, 72, 39
3, 501360, Note_on_c, 0, 72, 0
3, 501360, Note_on_c, 0, 75, 39
3, 501480, Note_on_c, 0, 75, 0
3, 501480, Control_c, 0, 64, 0
3, 501480, Note_on_c, 0, 80, 39
3, 501600, Note_on_c, 0, 80, 0
3, 501600, Control_c, 0, 64, 127
3, 501600, Note_on_c, 0, 84, 39
3, 501720, Note_on_c, 0, 84, 0
3, 501720, Note_on_c, 0, 80, 39
3, 501840, Note_on_c, 0, 80, 0
3, 501840, Note_on_c, 0, 75, 39
3, 501960, Note_on_c, 0, 75, 0
3, 501960, Note_on_c, 0, 72, 39
3, 502080, Note_on_c, 0, 72, 0
3, 502080, Note_on_c, 0, 68, 39
3, 502200, Note_on_c, 0, 68, 0
3, 502200, Note_on_c, 0, 63, 39
3, 502320, Note_on_c, 0, 63, 0
3, 502320, Note_on_c, 0, 60, 39
3, 502440, Note_on_c, 0, 60, 0
3, 502440, Note_on_c, 0, 56, 39
3, 502560, Note_on_c, 0, 56, 0
3, 502560, Note_on_c, 0, 51, 39
3, 502680, Note_on_c, 0, 51, 0
3, 502680, Note_on_c, 0, 56, 39
3, 502800, Note_on_c, 0, 56, 0
3, 502800, Note_on_c, 0, 60, 39
3, 502920, Note_on_c, 0, 60, 0
3, 502920, Note_on_c, 0, 63, 39
3, 503040, Note_on_c, 0, 63, 0
3, 503040, Note_on_c, 0, 68, 39
3, 503136, Note_on_c, 0, 68, 0
3, 503136, Note_on_c, 0, 72, 39
3, 503232, Note_on_c, 0, 72, 0
3, 503232, Note_on_c, 0, 75, 39
3, 503327, Note_on_c, 0, 75, 0
3, 503327, Note_on_c, 0, 80, 39
3, 503423, Note_on_c, 0, 80, 0
3, 503423, Note_on_c, 0, 84, 39
3, 503520, Note_on_c, 0, 84, 0
3, 503520, Note_on_c, 0, 87, 39
3, 503640, Note_on_c, 0, 87, 0
3, 503640, Note_on_c, 0, 84, 39
3, 503760, Note_on_c, 0, 84, 0
3, 503760, Note_on_c, 0, 80, 39
3, 503880, Note_on_c, 0, 80, 0
3, 503880, Note_on_c, 0, 75, 39
3, 504000, Note_on_c, 0, 75, 0
3, 504000, Note_on_c, 0, 72, 39
3, 504120, Note_on_c, 0, 72, 0
3, 504120, Note_on_c, 0, 68, 39
3, 504240, Note_on_c, 0, 68, 0
3, 504240, Note_on_c, 0, 63, 39
3, 504360, Note_on_c, 0, 63, 0
3, 504360, Note_on_c, 0, 60, 39
3, 504480, Note_on_c, 0, 60, 0
3, 504480, Note_on_c, 0, 56, 39
3, 504600, Note_on_c, 0, 56, 0
3, 504600, Note_on_c, 0, 60, 39
3, 504720, Note_on_c, 0, 60, 0
3, 504720, Note_on_c, 0, 63, 39
3, 504840, Note_on_c, 0, 63, 0
3, 504840, Note_on_c, 0, 68, 39
3, 504960, Note_on_c, 0, 68, 0
3, 504960, Note_on_c, 0, 72, 39
3, 505056, Note_on_c, 0, 72, 0
3, 505056, Note_on_c, 0, 75, 39
3, 505152, Note_on_c, 0, 75, 0
3, 505152, Note_on_c, 0, 80, 39
3, 505247, Note_on_c, 0, 80, 0
3, 505247, Note_on_c, 0, 84, 39
3, 505343, Note_on_c, 0, 84, 0
3, 505343, Control_c, 0, 64, 0
3, 505343, Note_on_c, 0, 87, 39
3, 505440, Note_on_c, 0, 87, 0
3, 505440, Control_c, 0, 64, 127
3, 505440, Note_on_c, 0, 92, 39
3, 505560, Note_on_c, 0, 92, 0
3, 505560, Note_on_c, 0, 87, 39
3, 505680, Note_on_c, 0, 87, 0
3, 505680, Note_on_c, 0, 84, 39
3, 505800, Note_on_c, 0, 84, 0
3, 505800, Note_on_c, 0, 80, 39
3, 505920, Note_on_c, 0, 80, 0
3, 505920, Note_on_c, 0, 75, 39
3, 506040, Note_on_c, 0, 75, 0
3, 506040, Note_on_c, 0, 72, 39
3, 506160, Note_on_c, 0, 72, 0
3, 506160, Note_on_c, 0, 68, 39
3, 506280, Note_on_c, 0, 68, 0
3, 506280, Note_on_c, 0, 63, 39
3, 506400, Note_on_c, 0, 63, 0
3, 506400, Note_on_c, 0, 60, 39
3, 506520, Note_on_c, 0, 60, 0
3, 506520, Note_on_c, 0, 63, 39
3, 506640, Note_on_c, 0, 63, 0
3, 506640, Note_on_c, 0, 68, 39
3, 506760, Note_on_c, 0, 68, 0
3, 506760, Note_on_c, 0, 72, 39
3, 506880, Note_on_c, 0, 72, 0
3, 506880, Note_on_c, 0, 75, 39
3, 506976, Note_on_c, 0, 75, 0
3, 506976, Note_on_c, 0, 80, 39
3, 507072, Note_on_c, 0, 80, 0
3, 507072, Note_on_c, 0, 84, 39
3, 507167, Note_on_c, 0, 84, 0
3, 507167, Note_on_c, 0, 87, 39
3, 507263, Note_on_c, 0, 87, 0
3, 507263, Note_on_c, 0, 92, 39
3, 507360, Note_on_c, 0, 92, 0
3, 507360, Note_on_c, 0, 96, 39
3, 507480, Note_on_c, 0, 96, 0
3, 507480, Note_on_c, 0, 92, 39
3, 507600, Note_on_c, 0, 92, 0
3, 507600, Note_on_c, 0, 87, 39
3, 507720, Note_on_c, 0, 87, 0
3, 507720, Note_on_c, 0, 84, 39
3, 507840, Note_on_c, 0, 84, 0
3, 507840, Note_on_c, 0, 80, 39
3, 507960, Note_on_c, 0, 80, 0
3, 507960, Note_on_c, 0, 75, 39
3, 508080, Note_on_c, 0, 75, 0
3, 508080, Note_on_c, 0, 80, 39
3, 508200, Note_on_c, 0, 80, 0
3, 508200, Note_on_c, 0, 84, 39
3, 508320, Note_on_c, 0, 84, 0
3, 508320, Note_on_c, 0, 87, 39
3, 508440, Note_on_c, 0, 87, 0
3, 508440, Note_on_c, 0, 84, 39
3, 508560, Note_on_c, 0, 84, 0
3, 508560, Note_on_c, 0, 80, 39
3, 508680, Note_on_c, 0, 80, 0
3, 508680, Note_on_c, 0, 75, 39
3, 508800, Note_on_c, 0, 75, 0
3, 508800, Note_on_c, 0, 72, 39
3, 508920, Note_on_c, 0, 72, 0
3, 508920, Note_on_c, 0, 68, 39
3, 509040, Note_on_c, 0, 68, 0
3, 509040, Note_on_c, 0, 72, 39
3, 509160, Note_on_c, 0, 72, 0
3, 509160, Note_on_c, 0, 75, 39
3, 509280, Note_on_c, 0, 75, 0
3, 509280, Note_on_c, 0, 80, 39
3, 509400, Note_on_c, 0, 80, 0
3, 509400, Note_on_c, 0, 75, 39
3, 509520, Note_on_c, 0, 75, 0
3, 509520, Note_on_c, 0, 72, 39
3, 509640, Note_on_c, 0, 72, 0
3, 509640, Note_on_c, 0, 68, 39
3, 509760, Note_on_c, 0, 68, 0
3, 509760, Note_on_c, 0, 63, 39
3, 509880, Note_on_c, 0, 63, 0
3, 509880, Note_on_c, 0, 60, 39
3, 510000, Note_on_c, 0, 60, 0
3, 510000, Note_on_c, 0, 63, 39
3, 510120, Note_on_c, 0, 63, 0
3, 510120, Note_on_c, 0, 68, 39
3, 510240, Note_on_c, 0, 68, 0
3, 510240, Note_on_c, 0, 72, 39
3, 510360, Note_on_c, 0, 72, 0
3, 510360, Note_on_c, 0, 68, 39
3, 510480, Note_on_c, 0, 68, 0
3, 510480, Note_on_c, 0, 63, 39
3, 510600, Note_on_c, 0, 63, 0
3, 510600, Note_on_c, 0, 60, 39
3, 510720, Note_on_c, 0, 60, 0
3, 510720, Note_on_c, 0, 56, 39
3, 510840, Note_on_c, 0, 56, 0
3, 510840, Note_on_c, 0, 51, 39
3, 510960, Note_on_c, 0, 51, 0
3, 510960, Note_on_c, 0, 56, 39
3, 511080, Note_on_c, 0, 56, 0
3, 511080, Control_c, 0, 64, 0
3, 511080, Note_on_c, 0, 60, 39
3, 511200, Note_on_c, 0, 60, 0
3, 511200, Control_c, 0, 64, 127
3, 511200, Note_on_c, 0, 63, 39
3, 511320, Note_on_c, 0, 63, 0
3, 511320, Note_on_c, 0, 60, 39
3, 511440, Note_on_c, 0, 60, 0
3, 511440, Note_on_c, 0, 56, 39
3, 511560, Note_on_c, 0, 56, 0
3, 511560, Note_on_c, 0, 51, 39
3, 511680, Note_on_c, 0, 51, 0
3, 511680, Note_on_c, 0, 48, 39
3, 511800, Note_on_c, 0, 48, 0
3, 511800, Note_on_c, 0, 44, 39
3, 511920, Note_on_c, 0, 44, 0
3, 511920, Note_on_c, 0, 48, 39
3, 512040, Note_on_c, 0, 48, 0
3, 512040, Note_on_c, 0, 51, 39
3, 512160, Note_on_c, 0, 51, 0
3, 512160, Note_on_c, 0, 56, 39
3, 512280, Note_on_c, 0, 56, 0
3, 512280, Note_on_c, 0, 51, 39
3, 512400, Note_on_c, 0, 51, 0
3, 512400, Note_on_c, 0, 48, 39
3, 512520, Note_on_c, 0, 48, 0
3, 512520, Note_on_c, 0, 51, 39
3, 512640, Note_on_c, 0, 51, 0
3, 512640, Note_on_c, 0, 56, 39
3, 512760, Note_on_c, 0, 56, 0
3, 512760, Note_on_c, 0, 60, 39
3, 512880, Note_on_c, 0, 60, 0
3, 512880, Note_on_c, 0, 63, 39
3, 513000, Note_on_c, 0, 63, 0
3, 513000, Note_on_c, 0, 68, 39
3, 513120, Note_on_c, 0, 68, 0
3, 513120, Note_on_c, 0, 72, 39
3, 513240, Note_on_c, 0, 72, 0
3, 513240, Note_on_c, 0, 68, 39
3, 513360, Note_on_c, 0, 68, 0
3, 513360, Note_on_c, 0, 72, 39
3, 513480, Note_on_c, 0, 72, 0
3, 513480, Note_on_c, 0, 75, 39
3, 513600, Note_on_c, 0, 75, 0
3, 513600, Note_on_c, 0, 80, 39
3, 513720, Note_on_c, 0, 80, 0
3, 513720, Note_on_c, 0, 84, 39
3, 513840, Note_on_c, 0, 84, 0
3, 513840, Note_on_c, 0, 87, 39
3, 513960, Note_on_c, 0, 87, 0
3, 513960, Note_on_c, 0, 92, 39
3, 514080, Note_on_c, 0, 92, 0
3, 514080, Note_on_c, 0, 96, 39
3, 515040, Note_on_c, 0, 96, 0
3, 515040, Control_c, 0, 64, 0
3, 619200, Control_c, 0, 64, 127
3, 619200, Note_on_c, 0, 51, 91
3, 619200, Note_on_c, 0, 63, 91
3, 619440, Note_on_c, 0, 63, 0
3, 619440, Note_on_c, 0, 51, 0
3, 619440, Note_on_c, 0, 50, 91
3, 619440, Note_on_c, 0, 62, 91
3, 619680, Note_on_c, 0, 62, 0
3, 619680, Note_on_c, 0, 50, 0
3, 619680, Note_on_c, 0, 48, 91
3, 619680, Note_on_c, 0, 60, 91
3, 619920, Note_on_c, 0, 60, 0
3, 619920, Note_on_c, 0, 48, 0
3, 619920, Control_c, 0, 64, 0
3, 619920, Note_on_c, 0, 46, 91
3, 619920, Note_on_c, 0, 58, 91
3, 620160, Note_on_c, 0, 58, 0
3, 620160, Note_on_c, 0, 46, 0
3, 620160, Control_c, 0, 64, 127
3, 620160, Note_on_c, 0, 48, 91
3, 620160, Note_on_c, 0, 60, 91
3, 620400, Note_on_c, 0, 60, 0
3, 620400, Note_on_c, 0, 48, 0
3, 620400, Note_on_c, 0, 46, 91
3, 620400, Note_on_c, 0, 58, 91
3, 620640, Note_on_c, 0, 58, 0
3, 620640, Note_on_c, 0, 46, 0
3, 620640, Note_on_c, 0, 44, 91
3, 620640, Note_on_c, 0, 56, 91
3, 620880, Note_on_c, 0, 56, 0
3, 620880, Note_on_c, 0, 44, 0
3, 620880, Control_c, 0, 64, 0
3, 620880, Note_on_c, 0, 43, 91
3, 620880, Note_on_c, 0, 55, 91
3, 621120, Note_on_c, 0, 55, 0
3, 621120, Note_on_c, 0, 43, 0
3, 621120, Control_c, 0, 64, 127
3, 621120, Note_on_c, 0, 51, 91
3, 621120, Note_on_c, 0, 63, 91
3, 621360, Note_on_c, 0, 63, 0
3, 621360, Note_on_c, 0, 51, 0
3, 621360, Note_on_c, 0, 50, 91
3, 621360, Note_on_c, 0, 62, 91
3, 621600, Note_on_c, 0, 62, 0
3, 621600, Note_on_c, 0, 50, 0
3, 621600, Note_on_c, 0, 48, 91
3, 621600, Note_on_c, 0, 60, 91
3, 621840, Note_on_c, 0, 60, 0
3, 621840, Note_on_c, 0, 48, 0
3, 621840, Control_c, 0, 64, 0
3, 621840, Note_on_c, 0, 46, 91
3, 621840, Note_on_c, 0, 58, 91
3, 622080, Note_on_c, 0, 58, 0
3, 622080, Note_on_c, 0, 46, 0
3, 622080, Control_c, 0, 64, 127
3, 622080, Note_on_c, 0, 48, 91
3, 622080, Note_on_c, 0, 60, 91
3, 622320, Note_on_c, 0, 60, 0
3, 622320, Note_on_c, 0, 48, 0
3, 622320, Note_on_c, 0, 46, 91
3, 622320, Note_on_c, 0, 58, 91
3, 622560, Note_on_c, 0, 58, 0
3, 622560, Note_on_c, 0, 46, 0
3, 622560, Note_on_c, 0, 44, 91
3, 622560, Note_on_c, 0, 56, 91
3, 622800, Note_on_c, 0, 56, 0
3, 622800, Note_on_c, 0, 44, 0
3, 622800, Control_c, 0, 64, 0
3, 622800, Note_on_c, 0, 43, 91
3, 622800, Note_on_c, 0, 55, 91
3, 623040, Note_on_c, 0, 55, 0
3, 623040, Note_on_c, 0, 43, 0
3, 623040, Control_c, 0, 64, 127
3, 623040, Note_on_c, 0, 55, 91
3, 623040, Note_on_c, 0, 67, 91
3, 623280, Note_on_c, 0, 67, 0
3, 623280, Note_on_c, 0, 55, 0
3, 623280, Note_on_c, 0, 53, 91
3, 623280, Note_on_c, 0, 65, 91
3, 623520, Note_on_c, 0, 65, 0
3, 623520, Note_on_c, 0, 53, 0
3, 623520, Note_on_c, 0, 51, 91
3, 623520, Note_on_c, 0, 63, 91
3, 623760, Note_on_c, 0, 63, 0
3, 623760, Note_on_c, 0, 51, 0
3, 623760, Control_c, 0, 64, 0
3, 623760, Note_on_c, 0, 50, 91
3, 623760, Note_on_c, 0, 62, 91
3, 624000, Note_on_c, 0, 62, 0
3, 624000, Note_on_c, 0, 50, 0
3, 624000, Control_c, 0, 64, 127
3, 624000, Note_on_c, 0, 51, 91
3, 624000, Note_on_c, 0, 63, 91
3, 624240, Note_on_c, 0, 63, 0
3, 624240, Note_on_c, 0, 51, 0
3, 624240, Note_on_c, 0, 50, 91
3, 624240, Note_on_c, 0, 62, 91
3, 624480, Note_on_c, 0, 62, 0
3, 624480, Note_on_c, 0, 50, 0
3, 624480, Note_on_c, 0, 48, 91
3, 624480, Note_on_c, 0, 60, 91
3, 624720, Note_on_c, 0, 60, 0
3, 624720, Note_on_c, 0, 48, 0
3, 624720, Control_c, 0, 64, 0
3, 624720, Note_on_c, 0, 46, 91
3, 624720, Note_on_c, 0, 58, 91
3, 624960, Note_on_c, 0, 58, 0
3, 624960, Note_on_c, 0, 46, 0
3, 624960, Control_c, 0, 64, 127
3, 624960, Note_on_c, 0, 55, 91
3, 624960, Note_on_c, 0, 67, 91
3, 625200, Note_on_c, 0, 67, 0
3, 625200, Note_on_c, 0, 55, 0
3, 625200, Note_on_c, 0, 53, 91
3, 625200, Note_on_c, 0, 65, 91
3, 625440, Note_on_c, 0, 65, 0
3, 625440, Note_on_c, 0, 53, 0
3, 625440, Note_on_c, 0, 51, 91
3, 625440, Note_on_c, 0, 63, 91
3, 625680, Note_on_c, 0, 63, 0
3, 625680, Note_on_c, 0, 51, 0
3, 625680, Control_c, 0, 64, 0
3, 625680, Note_on_c, 0, 50, 91
3, 625680, Note_on_c, 0, 62, 91
3, 625920, Note_on_c, 0, 62, 0
3, 625920, Note_on_c, 0, 50, 0
3, 625920, Control_c, 0, 64, 127
3, 625920, Note_on_c, 0, 51, 91
3, 625920, Note_on_c, 0, 63, 91
3, 626160, Note_on_c, 0, 63, 0
3, 626160, Note_on_c, 0, 51, 0
3, 626160, Note_on_c, 0, 50, 91
3, 626160, Note_on_c, 0, 62, 91
3, 626400, Note_on_c, 0, 62, 0
3, 626400, Note_on_c, 0, 50, 0
3, 626400, Note_on_c, 0, 48, 91
3, 626400, Note_on_c, 0, 60, 91
3, 626640, Note_on_c, 0, 60, 0
3, 626640, Note_on_c, 0, 48, 0
3, 626640, Control_c, 0, 64, 0
3, 626640, Note_on_c, 0, 46, 91
3, 626640, Note_on_c, 0, 58, 91
3, 626880, Note_on_c, 0, 58, 0
3, 626880, Note_on_c, 0, 46, 0
3, 626880, Control_c, 0, 64, 127
3, 626880, Note_on_c, 0, 60, 91
3, 626880, Note_on_c, 0, 72, 91
3, 627120, Note_on_c, 0, 72, 0
3, 627120, Note_on_c, 0, 60, 0
3, 627120, Note_on_c, 0, 58, 91
3, 627120, Note_on_c, 0, 70, 91
3, 627360, Note_on_c, 0, 70, 0
3, 627360, Note_on_c, 0, 58, 0
3, 627360, Note_on_c, 0, 56, 91
3, 627360, Note_on_c, 0, 68, 91
3, 627600, Note_on_c, 0, 68, 0
3, 627600, Note_on_c, 0, 56, 0
3, 627600, Control_c, 0, 64, 0
3, 627600, Note_on_c, 0, 55, 91
3, 627600, Note_on_c, 0, 67, 91
3, 627840, Note_on_c, 0, 67, 0
3, 627840, Note_on_c, 0, 55, 0
3, 627840, Control_c, 0, 64, 127
3, 627840, Note_on_c, 0, 56, 91
3, 627840, Note_on_c, 0, 68, 91
3, 628080, Note_on_c, 0, 68, 0
3, 628080, Note_on_c, 0, 56, 0
3, 628080, Note_on_c, 0, 55, 91
3, 628080, Note_on_c, 0, 67, 91
3, 628320, Note_on_c, 0, 67, 0
3, 628320, Note_on_c, 0, 55, 0
3, 628320, Note_on_c, 0, 53, 91
3, 628320, Note_on_c, 0, 65, 91
3, 628560, Note_on_c, 0, 65, 0
3, 628560, Note_on_c, 0, 53, 0
3, 628560, Control_c, 0, 64, 0
3, 628560, Note_on_c, 0, 51, 91
3, 628560, Note_on_c, 0, 63, 91
3, 628800, Note_on_c, 0, 63, 0
3, 628800, Note_on_c, 0, 51, 0
3, 628800, Control_c, 0, 64, 127
3, 628800, Note_on_c, 0, 60, 91
3, 628800, Note_on_c, 0, 72, 91
3, 629040, Note_on_c, 0, 72, 0
3, 629040, Note_on_c, 0, 60, 0
3, 629040, Note_on_c, 0, 58, 91
3, 629040, Note_on_c, 0, 70, 91
3, 629280, Note_on_c, 0, 70, 0
3, 629280, Note_on_c, 0, 58, 0
3, 629280, Note_on_c, 0, 56, 91
3, 629280, Note_on_c, 0, 68, 91
3, 629520, Note_on_c, 0, 68, 0
3, 629520, Note_on_c, 0, 56, 0
3, 629520, Control_c, 0, 64, 0
3, 629520, Note_on_c, 0, 55, 91
3, 629520, Note_on_c, 0, 67, 91
3, 629760, Note_on_c, 0, 67, 0
3, 629760, Note_on_c, 0, 55, 0
3, 629760, Control_c, 0, 64, 127
3, 629760, Note_on_c, 0, 56, 91
3, 629760, Note_on_c, 0, 68, 91
3, 630000, Note_on_c, 0, 68, 0
3, 630000, Note_on_c, 0, 56, 0
3, 630000, Note_on_c, 0, 55, 91
3, 630000, Note_on_c, 0, 67, 91
3, 630240, Note_on_c, 0, 67, 0
3, 630240, Note_on_c, 0, 55, 0
3, 630240, Note_on_c, 0, 53, 91
3, 630240, Note_on_c, 0, 65, 91
3, 630480, Note_on_c, 0, 65, 0
3, 630480, Note_on_c, 0, 53, 0
3, 630480, Control_c, 0, 64, 0
3, 630480, Note_on_c, 0, 51, 91
3, 630480, Note_on_c, 0, 63, 91
3, 630720, Note_on_c, 0, 63, 0
3, 630720, Note_on_c, 0, 51, 0
3, 630720, Control_c, 0, 64, 127
3, 630720, Note_on_c, 0, 63, 91
3, 630720, Note_on_c, 0, 75, 91
3, 630960, Note_on_c, 0, 75, 0
3, 630960, Note_on_c, 0, 63, 0
3, 630960, Note_on_c, 0, 62, 91
3, 630960, Note_on_c, 0, 74, 91
3, 631200, Note_on_c, 0, 74, 0
3, 631200, Note_on_c, 0, 62, 0
3, 631200, Note_on_c, 0, 59, 91
3, 631200, Note_on_c, 0, 71, 91
3, 631440, Note_on_c, 0, 71, 0
3, 631440, Note_on_c, 0, 59, 0
3, 631440, Control_c, 0, 64, 0
3, 631440, Note_on_c, 0, 57, 91
3, 631440, Note_on_c, 0, 69, 91
3, 631680, Note_on_c, 0, 69, 0
3, 631680, Note_on_c, 0, 57, 0
3, 631680, Control_c, 0, 64, 127
3, 631680, Note_on_c, 0, 59, 91
3, 631680, Note_on_c, 0, 71, 91
3, 631920, Note_on_c, 0, 71, 0
3, 631920, Note_on_c, 0, 59, 0
3, 631920, Note_on_c, 0, 58, 91
3, 631920, Note_on_c, 0, 70, 91
3, 632160, Note_on_c, 0, 70, 0
3, 632160, Note_on_c, 0, 58, 0
3, 632160, Note_on_c, 0, 56, 91
3, 632160, Note_on_c, 0, 68, 91
3, 632400, Note_on_c, 0, 68, 0
3, 632400, Note_on_c, 0, 56, 0
3, 632400, Control_c, 0, 64, 0
3, 632400, Note_on_c, 0, 54, 91
3, 632400, Note_on_c, 0, 66, 91
3, 632640, Note_on_c, 0, 66, 0
3, 632640, Note_on_c, 0, 54, 0
3, 632640, Control_c, 0, 64, 127
3, 632640, Note_on_c, 0, 56, 91
3, 632640, Note_on_c, 0, 68, 91
3, 632880, Note_on_c, 0, 68, 0
3, 632880, Note_on_c, 0, 56, 0
3, 632880, Note_on_c, 0, 55, 91
3, 632880, Note_on_c, 0, 67, 91
3, 633120, Note_on_c, 0, 67, 0
3, 633120, Note_on_c, 0, 55, 0
3, 633120, Note_on_c, 0, 52, 91
3, 633120, Note_on_c, 0, 64, 91
3, 633360, Note_on_c, 0, 64, 0
3, 633360, Note_on_c, 0, 52, 0
3, 633360, Control_c, 0, 64, 0
3, 633360, Note_on_c, 0, 50, 91
3, 633360, Note_on_c, 0, 62, 91
3, 633600, Note_on_c, 0, 62, 0
3, 633600, Note_on_c, 0, 50, 0
3, 633600, Control_c, 0, 64, 127
3, 633600, Note_on_c, 0, 52, 91
3, 633600, Note_on_c, 0, 64, 91
3, 633840, Note_on_c, 0, 64, 0
3, 633840, Note_on_c, 0, 52, 0
3, 633840, Note_on_c, 0, 51, 91
3, 633840, Note_on_c, 0, 63, 91
3, 634080, Note_on_c, 0, 63, 0
3, 634080, Note_on_c, 0, 51, 0
3, 634080, Note_on_c, 0, 47, 91
3, 634080, Note_on_c, 0, 59, 91
3, 634320, Note_on_c, 0, 59, 0
3, 634320, Note_on_c, 0, 47, 0
3, 634320, Control_c, 0, 64, 0
3, 634320, Note_on_c, 0, 45, 91
3, 634320, Note_on_c, 0, 57, 91
3, 634560, Note_on_c, 0, 57, 0
3, 634560, Note_on_c, 0, 45, 0
3, 634560, Control_c, 0, 64, 127
3, 634560, Note_on_c, 0, 47, 91
3, 634560, Note_on_c, 0, 59, 91
3, 634800, Note_on_c, 0, 59, 0
3, 634800, Note_on_c, 0, 47, 0
3, 634800, Note_on_c, 0, 46, 91
3, 634800, Note_on_c, 0, 58, 91
3, 635040, Note_on_c, 0, 58, 0
3, 635040, Note_on_c, 0, 46, 0
3, 635040, Note_on_c, 0, 44, 91
3, 635040, Note_on_c, 0, 56, 91
3, 635280, Note_on_c, 0, 56, 0
3, 635280, Note_on_c, 0, 44, 0
3, 635280, Control_c, 0, 64, 0
3, 635280, Note_on_c, 0, 42, 91
3, 635280, Note_on_c, 0, 54, 91
3, 635520, Note_on_c, 0, 54, 0
3, 635520, Note_on_c, 0, 42, 0
3, 635520, Control_c, 0, 64, 127
3, 635520, Note_on_c, 0, 44, 91
3, 635520, Note_on_c, 0, 56, 91
3, 635760, Note_on_c, 0, 56, 0
3, 635760, Note_on_c, 0, 44, 0
3, 635760, Note_on_c, 0, 43, 91
3, 635760, Note_on_c, 0, 55, 91
3, 636000, Note_on_c, 0, 55, 0
3, 636000, Note_on_c, 0, 43, 0
3, 636000, Note_on_c, 0, 40, 91
3, 636000, Note_on_c, 0, 52, 91
3, 636240, Note_on_c, 0, 52, 0
3, 636240, Note_on_c, 0, 40, 0
3, 636240, Control_c, 0, 64, 0
3, 636240, Note_on_c, 0, 38, 91
3, 636240, Note_on_c, 0, 50, 91
3, 636480, Note_on_c, 0, 50, 0
3, 636480, Note_on_c, 0, 38, 0
3, 636480, Control_c, 0, 64, 127
3, 636480, Note_on_c, 0, 40, 91
3, 636480, Note_on_c, 0, 52, 91
3, 636720, Note_on_c, 0, 52, 0
3, 636720, Note_on_c, 0, 40, 0
3, 636720, Note_on_c, 0, 39, 91
3, 636720, Note_on_c, 0, 51, 91
3, 636960, Note_on_c, 0, 51, 0
3, 636960, Note_on_c, 0, 39, 0
3, 636960, Note_on_c, 0, 35, 91
3, 636960, Note_on_c, 0, 47, 91
3, 637200, Note_on_c, 0, 47, 0
3, 637200, Note_on_c, 0, 35, 0
3, 637200, Control_c, 0, 64, 0
3, 637200, Note_on_c, 0, 33, 91
3, 637200, Note_on_c, 0, 45, 91
3, 637440, Note_on_c, 0, 45, 0
3, 637440, Note_on_c, 0, 33, 0
3, 637440, Control_c, 0, 64, 127
3, 637440, Note_on_c, 0, 35, 91
3, 637440, Note_on_c, 0, 47, 91
3, 637680, Note_on_c, 0, 47, 0
3, 637680, Note_on_c, 0, 35, 0
3, 637680, Note_on_c, 0, 34, 91
3, 637680, Note_on_c, 0, 46, 91
3, 637920, Note_on_c, 0, 46, 0
3, 637920, Note_on_c, 0, 34, 0
3, 637920, Note_on_c, 0, 32, 91
3, 637920, Note_on_c, 0, 44, 91
3, 638160, Note_on_c, 0, 44, 0
3, 638160, Note_on_c, 0, 32, 0
3, 638160, Control_c, 0, 64, 0
3, 638160, Note_on_c, 0, 30, 91
3, 638160, Note_on_c, 0, 42, 91
3, 638400, Note_on_c, 0, 42, 0
3, 638400, Note_on_c, 0, 30, 0
3, 638400, Control_c, 0, 64, 127
3, 638400, Note_on_c, 0, 32, 91
3, 638400, Note_on_c, 0, 44, 91
3, 638720, Note_on_c, 0, 44, 0
3, 638720, Note_on_c, 0, 32, 0
3, 638720, Note_on_c, 0, 31, 91
3, 638720, Note_on_c, 0, 43, 91
3, 639039, Note_on_c, 0, 43, 0
3, 639039, Note_on_c, 0, 31, 0
3, 639039, Note_on_c, 0, 39, 91
3, 639360, Note_on_c, 0, 39, 0
3, 639360, Note_on_c, 0, 35, 91
3, 639360, Note_on_c, 0, 47, 91
3, 639680, Note_on_c, 0, 47, 0
3, 639680, Note_on_c, 0, 35, 0
3, 639680, Note_on_c, 0, 34, 91
3, 639680, Note_on_c, 0, 46, 91
3, 639999, Note_on_c, 0, 46, 0
3, 639999, Note_on_c, 0, 34, 0
3, 639999, Control_c, 0, 64, 0
3, 639999, Note_on_c, 0, 31, 91
3, 639999, Note_on_c, 0, 43, 91
3, 640320, Note_on_c, 0, 43, 0
3, 640320, Note_on_c, 0, 31, 0
3, 640320, Note_on_c, 0, 27, 91
3, 640320, Note_on_c, 0, 39, 91
3, 640800, Note_on_c, 0, 39, 0
3, 640800, Note_on_c, 0, 27, 0
3, 640800, Note_on_c, 0, 51, 39
3, 640800, Note_on_c, 0, 61, 39
3, 642240, Note_on_c, 0, 61, 0
3, 642240, Note_on_c, 0, 51, 0
3, 642560, Control_c, 0, 64, 127
3, 642560, Note_on_c, 0, 39, 39
3, 642879, Note_on_c, 0, 39, 0
3, 642879, Note_on_c, 0, 47, 39
3, 643200, Note_on_c, 0, 47, 0
3, 643200, Note_on_c, 0, 56, 39
3, 643520, Note_on_c, 0, 56, 0
3, 643520, Note_on_c, 0, 58, 39
3, 643839, Note_on_c, 0, 58, 0
3, 643839, Control_c, 0, 64, 0
3, 643839, Note_on_c, 0, 59, 39
3, 644160, Note_on_c, 0, 59, 0
3, 644160, Note_on_c, 0, 51, 39
3, 644640, Note_on_c, 0, 51, 0
3, 644640, Note_on_c, 0, 58, 39
3, 644640, Note_on_c, 0, 62, 39
3, 646080, Note_on_c, 0, 62, 0
3, 646080, Note_on_c, 0, 58, 0
3, 646400, Control_c, 0, 64, 127
3, 646400, Note_on_c, 0, 51, 39
3, 646719, Note_on_c, 0, 51, 0
3, 646719, Note_on_c, 0, 58, 39
3, 647040, Note_on_c, 0, 58, 0
3, 647040, Note_on_c, 0, 68, 39
3, 647360, Note_on_c, 0, 68, 0
3, 647360, Note_on_c, 0, 58, 39
3, 647679, Note_on_c, 0, 58, 0
3, 647679, Control_c, 0, 64, 0
3, 647679, Note_on_c, 0, 51, 39
3, 648000, Note_on_c, 0, 51, 0
3, 648000, Note_on_c, 0, 39, 39
3, 648480, Note_on_c, 0, 39, 0
3, 648480, Note_on_c, 0, 63, 39
3, 648480, Note_on_c, 0, 73, 39
3, 649920, Note_on_c, 0, 73, 0
3, 649920, Note_on_c, 0, 63, 0
3, 650240, Control_c, 0, 64, 127
3, 650240, Note_on_c, 0, 51, 39
3, 650559, Note_on_c, 0, 51, 0
3, 650559, Note_on_c, 0, 59, 39
3, 650880, Note_on_c, 0, 59, 0
3, 650880, Note_on_c, 0, 68, 39
3, 651200, Note_on_c, 0, 68, 0
3, 651200, Note_on_c, 0, 70, 39
3, 651519, Note_on_c, 0, 70, 0
3, 651519, Control_c, 0, 64, 0
3, 651519, Note_on_c, 0, 71, 39
3, 651840, Note_on_c, 0, 71, 0
3, 651840, Note_on_c, 0, 63, 39
3, 652320, Note_on_c, 0, 63, 0
3, 652320, Note_on_c, 0, 70, 39
3, 652320, Note_on_c, 0, 74, 39
3, 653760, Note_on_c, 0, 74, 0
3, 653760, Note_on_c, 0, 70, 0
3, 654080, Control_c, 0, 64, 127
3, 654080, Note_on_c, 0, 63, 39
3, 654399, Note_on_c, 0, 63, 0
3, 654399, Note_on_c, 0, 70, 39
3, 654720, Note_on_c, 0, 70, 0
3, 654720, Note_on_c, 0, 80, 39
3, 655040, Note_on_c, 0, 80, 0
3, 655040, Note_on_c, 0, 70, 39
3, 655359, Note_on_c, 0, 70, 0
3, 655359, Control_c, 0, 64, 0
3, 655359, Note_on_c, 0, 63, 39
3, 655680, Note_on_c, 0, 63, 0
3, 655680, Control_c, 0, 64, 127
3, 655680, Note_on_c, 0, 51, 39
3, 656000, Note_on_c, 0, 51, 0
3, 656000, Note_on_c, 0, 58, 39
3, 656000, Note_on_c, 0, 61, 39
3, 656319, Note_on_c, 0, 61, 0
3, 656319, Note_on_c, 0, 58, 0
3, 656319, Note_on_c, 0, 67, 39
3, 656640, Note_on_c, 0, 67, 0
3, 656640, Control_c, 0, 64, 0
3, 656640, Note_on_c, 0, 73, 65
3, 657600, Note_on_c, 0, 73, 0
3, 657920, Control_c, 0, 64, 127
3, 657920, Note_on_c, 0, 63, 39
3, 658239, Note_on_c, 0, 63, 0
3, 658239, Note_on_c, 0, 68, 39
3, 658239, Note_on_c, 0, 70, 39
3, 658560, Note_on_c, 0, 70, 0
3, 658560, Note_on_c, 0, 68, 0
3, 658560, Note_on_c, 0, 73, 39
3, 659040, Note_on_c, 0, 73, 0
3, 659040, Control_c, 0, 64, 0
3, 659040, Note_on_c, 0, 72, 39
3, 659520, Note_on_c, 0, 72, 0
3, 659520, Control_c, 0, 64, 127
3, 659520, Note_on_c, 0, 51, 39
3, 659840, Note_on_c, 0, 51, 0
3, 659840, Note_on_c, 0, 56, 39
3, 659840, Note_on_c, 0, 59, 39
3, 660159, Note_on_c, 0, 59, 0
3, 660159, Note_on_c, 0, 56, 0
3, 660159, Note_on_c, 0, 62, 39
3, 660480, Note_on_c, 0, 62, 0
3, 660480, Control_c, 0, 64, 0
3, 660480, Note_on_c, 0, 68, 65
3, 661440, Note_on_c, 0, 68, 0
3, 661760, Control_c, 0, 64, 127
3, 661760, Note_on_c, 0, 58, 39
3, 662079, Note_on_c, 0, 58, 0
3, 662079, Note_on_c, 0, 63, 39
3, 662079, Note_on_c, 0, 66, 39
3, 662400, Note_on_c, 0, 66, 0
3, 662400, Note_on_c, 0, 63, 0
3, 662400, Note_on_c, 0, 68, 39
3, 662880, Note_on_c, 0, 68, 0
3, 662880, Control_c, 0, 64, 0
3, 662880, Note_on_c, 0, 67, 39
3, 663360, Note_on_c, 0, 67, 0
3, 663360, Note_on_c, 0, 39, 78
3, 663360, Note_on_c, 0, 51, 78
3, 663680, Note_on_c, 0, 51, 0
3, 663680, Note_on_c, 0, 39, 0
3, 663680, Note_on_c, 0, 37, 78
3, 663680, Note_on_c, 0, 49, 78
3, 663999, Note_on_c, 0, 49, 0
3, 663999, Note_on_c, 0, 37, 0
3, 663999, Note_on_c, 0, 38, 78
3, 663999, Note_on_c, 0, 50, 78
3, 664320, Note_on_c, 0, 50, 0
3, 664320, Note_on_c, 0, 38, 0
3, 664320, Note_on_c, 0, 50, 78
3, 664320, Note_on_c, 0, 55, 78
3, 664320, Note_on_c, 0, 58, 78
3, 665280, Note_on_c, 0, 58, 0
3, 665280, Note_on_c, 0, 55, 0
3, 665280, Note_on_c, 0, 50, 0
3, 665600, Note_on_c, 0, 49, 78
3, 665600, Note_on_c, 0, 61, 78
3, 665919, Note_on_c, 0, 61, 0
3, 665919, Note_on_c, 0, 49, 0
3, 665919, Note_on_c, 0, 50, 78
3, 665919, Note_on_c, 0, 62, 78
3, 666240, Note_on_c, 0, 62, 0
3, 666240, Note_on_c, 0, 50, 0
3, 666240, Note_on_c, 0, 55, 78
3, 666240, Note_on_c, 0, 67, 78
3, 666879, Note_on_c, 0, 67, 0
3, 666879, Note_on_c, 0, 55, 0
3, 666879, Note_on_c, 0, 53, 78
3, 666879, Note_on_c, 0, 55, 78
3, 666879, Note_on_c, 0, 65, 78
3, 667200, Note_on_c, 0, 65, 0
3, 667200, Note_on_c, 0, 55, 0
3, 667200, Note_on_c, 0, 53, 0
3, 667200, Note_on_c, 0, 51, 78
3, 667200, Note_on_c, 0, 55, 78
3, 667200, Note_on_c, 0, 63, 78
3, 667839, Note_on_c, 0, 63, 0
3, 667839, Note_on_c, 0, 55, 0
3, 667839, Note_on_c, 0, 51, 0
3, 667839, Note_on_c, 0, 50, 78
3, 667839, Note_on_c, 0, 55, 78
3, 667839, Note_on_c, 0, 62, 78
3, 668160, Note_on_c, 0, 62, 0
3, 668160, Note_on_c, 0, 55, 0
3, 668160, Note_on_c, 0, 50, 0
3, 669440, Note_on_c, 0, 49, 78
3, 669440, Note_on_c, 0, 61, 78
3, 669759, Note_on_c, 0, 61, 0
3, 669759, Note_on_c, 0, 49, 0
3, 669759, Note_on_c, 0, 50, 78
3, 669759, Note_on_c, 0, 62, 78
3, 670080, Note_on_c, 0, 62, 0
3, 670080, Note_on_c, 0, 50, 0
3, 670080, Note_on_c, 0, 55, 104
3, 670080, Note_on_c, 0, 67, 104
3, 670719, Note_on_c, 0, 67, 0
3, 670719, Note_on_c, 0, 55, 0
3, 670719, Note_on_c, 0, 53, 78
3, 670719, Note_on_c, 0, 55, 78
3, 670719, Note_on_c, 0, 65, 78
3, 671040, Note_on_c, 0, 65, 0
3, 671040, Note_on_c, 0, 55, 0
3, 671040, Note_on_c, 0, 53, 0
3, 671040, Note_on_c, 0, 51, 78
3, 671040, Note_on_c, 0, 55, 78
3, 671040, Note_on_c, 0, 63, 78
3, 671679, Note_on_c, 0, 63, 0
3, 671679, Note_on_c, 0, 55, 0
3, 671679, Note_on_c, 0, 51, 0
3, 671679, Note_on_c, 0, 50, 78
3, 671679, Note_on_c, 0, 55, 78
3, 671679, Note_on_c, 0, 62, 78
3, 672000, Note_on_c, 0, 62, 0
3, 672000, Note_on_c, 0, 55, 0
3, 672000, Note_on_c, 0, 50, 0
3, 672960, Control_c, 0, 64, 127
3, 672960, Note_on_c, 0, 38, 78
3, 672960, Note_on_c, 0, 50, 78
3, 673280, Note_on_c, 0, 50, 0
3, 673280, Note_on_c, 0, 38, 0
3, 673280, Note_on_c, 0, 53, 78
3, 673280, Note_on_c, 0, 59, 78
3, 673280, Note_on_c, 0, 65, 78
3, 673599, Note_on_c, 0, 65, 0
3, 673599, Note_on_c, 0, 59, 0
3, 673599, Note_on_c, 0, 53, 0
3, 673599, Note_on_c, 0, 55, 78
3, 673599, Note_on_c, 0, 59, 78
3, 673599, Note_on_c, 0, 67, 78
3, 673920, Note_on_c, 0, 67, 0
3, 673920, Note_on_c, 0, 59, 0
3, 673920, Note_on_c, 0, 55, 0
3, 673920, Note_on_c, 0, 56, 104
3, 673920, Note_on_c, 0, 59, 104
3, 673920, Note_on_c, 0, 68, 104
3, 674559, Note_on_c, 0, 68, 0
3, 674559, Note_on_c, 0, 59, 0
3, 674559, Note_on_c, 0, 56, 0
3, 674559, Control_c, 0, 64, 0
3, 674559, Note_on_c, 0, 55, 78
3, 674559, Note_on_c, 0, 59, 78
3, 674559, Note_on_c, 0, 67, 78
3, 674880, Note_on_c, 0, 67, 0
3, 674880, Note_on_c, 0, 59, 0
3, 674880, Note_on_c, 0, 55, 0
3, 674880, Note_on_c, 0, 53, 78
3, 674880, Note_on_c, 0, 55, 78
3, 674880, Note_on_c, 0, 60, 78
3, 674880, Note_on_c, 0, 65, 78
3, 675840, Note_on_c, 0, 65, 0
3, 675840, Note_on_c, 0, 53, 0
3, 675840, Note_on_c, 0, 55, 0
3, 675840, Note_on_c, 0, 60, 0
3, 675840, Note_on_c, 0, 51, 91
3, 675840, Note_on_c, 0, 55, 91
3, 675840, Note_on_c, 0, 60, 91
3, 675840, Note_on_c, 0, 63, 91
3, 676320, Note_on_c, 0, 63, 0
3, 676320, Note_on_c, 0, 51, 0
3, 676320, Note_on_c, 0, 55, 0
3, 676320, Note_on_c, 0, 60, 0
3, 676800, Note_on_c, 0, 38, 91
3, 676800, Note_on_c, 0, 50, 91
3, 677120, Note_on_c, 0, 50, 0
3, 677120, Note_on_c, 0, 38, 0
3, 677120, Note_on_c, 0, 55, 91
3, 677120, Note_on_c, 0, 67, 91
3, 677439, Note_on_c, 0, 67, 0
3, 677439, Note_on_c, 0, 55, 0
3, 677439, Note_on_c, 0, 57, 91
3, 677439, Note_on_c, 0, 69, 91
3, 677760, Note_on_c, 0, 69, 0
3, 677760, Note_on_c, 0, 57, 0
3, 677760, Note_on_c, 0, 58, 91
3, 677760, Note_on_c, 0, 70, 91
3, 678399, Note_on_c, 0, 70, 0
3, 678399, Note_on_c, 0, 58, 0
3, 678399, Control_c, 0, 64, 0
3, 678399, Note_on_c, 0, 57, 91
3, 678399, Note_on_c, 0, 69, 91
3, 678720, Note_on_c, 0, 69, 0
3, 678720, Note_on_c, 0, 57, 0
3, 678720, Note_on_c, 0, 55, 91
3, 678720, Note_on_c, 0, 67, 91
3, 679200, Note_on_c, 0, 67, 0
3, 679200, Note_on_c, 0, 55, 0
3, 679200, Note_on_c, 0, 53, 91
3, 679200, Note_on_c, 0, 55, 91
3, 679200, Note_on_c, 0, 65, 91
3, 679680, Note_on_c, 0, 65, 0
3, 679680, Note_on_c, 0, 55, 0
3, 679680, Note_on_c, 0, 53, 0
3, 679680, Note_on_c, 0, 51, 91
3, 679680, Note_on_c, 0, 55, 91
3, 679680, Note_on_c, 0, 63, 91
3, 680160, Note_on_c, 0, 63, 0
3, 680160, Note_on_c, 0, 55, 0
3, 680160, Note_on_c, 0, 51, 0
3, 680160, Note_on_c, 0, 50, 91
3, 680160, Note_on_c, 0, 55, 91
3, 680160, Note_on_c, 0, 62, 91
3, 680640, Note_on_c, 0, 62, 0
3, 680640, Note_on_c, 0, 55, 0
3, 680640, Note_on_c, 0, 50, 0
3, 680640, Control_c, 0, 64, 127
3, 680640, Note_on_c, 0, 38, 91
3, 680640, Note_on_c, 0, 50, 91
3, 680960, Note_on_c, 0, 50, 0
3, 680960, Note_on_c, 0, 38, 0
3, 680960, Note_on_c, 0, 49, 91
3, 680960, Note_on_c, 0, 61, 91
3, 681279, Note_on_c, 0, 61, 0
3, 681279, Note_on_c, 0, 49, 0
3, 681279, Note_on_c, 0, 50, 91
3, 681279, Note_on_c, 0, 62, 91
3, 681600, Note_on_c, 0, 62, 0
3, 681600, Note_on_c, 0, 50, 0
3, 681600, Note_on_c, 0, 62, 91
3, 681600, Note_on_c, 0, 74, 91
3, 681920, Note_on_c, 0, 74, 0
3, 681920, Note_on_c, 0, 62, 0
3, 681920, Note_on_c, 0, 58, 91
3, 681920, Note_on_c, 0, 70, 91
3, 682239, Note_on_c, 0, 70, 0
3, 682239, Note_on_c, 0, 58, 0
3, 682239, Note_on_c, 0, 57, 91
3, 682239, Note_on_c, 0, 69, 91
3, 682560, Note_on_c, 0, 69, 0
3, 682560, Note_on_c, 0, 57, 0
3, 682560, Control_c, 0, 64, 0
3, 682560, Note_on_c, 0, 55, 91
3, 682560, Note_on_c, 0, 67, 91
3, 683040, Note_on_c, 0, 67, 0
3, 683040, Note_on_c, 0, 55, 0
3, 683040, Note_on_c, 0, 53, 91
3, 683040, Note_on_c, 0, 55, 91
3, 683040, Note_on_c, 0, 65, 91
3, 683520, Note_on_c, 0, 65, 0
3, 683520, Note_on_c, 0, 55, 0
3, 683520, Note_on_c, 0, 53, 0
3, 683520, Note_on_c, 0, 51, 91
3, 683520, Note_on_c, 0, 55, 91
3, 683520, Note_on_c, 0, 63, 91
3, 684000, Note_on_c, 0, 63, 0
3, 684000, Note_on_c, 0, 55, 0
3, 684000, Note_on_c, 0, 51, 0
3, 684000, Note_on_c, 0, 50, 91
3, 684000, Note_on_c, 0, 55, 91
3, 684000, Note_on_c, 0, 62, 91
3, 684480, Note_on_c, 0, 62, 0
3, 684480, Note_on_c, 0, 55, 0
3, 684480, Note_on_c, 0, 50, 0
3, 684800, Note_on_c, 0, 61, 91
3, 684800, Note_on_c, 0, 73, 91
3, 685119, Note_on_c, 0, 73, 0
3, 685119, Note_on_c, 0, 61, 0
3, 685119, Note_on_c, 0, 62, 91
3, 685119, Note_on_c, 0, 74, 91
3, 685440, Note_on_c, 0, 74, 0
3, 685440, Note_on_c, 0, 62, 0
3, 685440, Note_on_c, 0, 67, 91
3, 685440, Note_on_c, 0, 79, 91
3, 685920, Note_on_c, 0, 79, 0
3, 685920, Note_on_c, 0, 67, 0
3, 685920, Note_on_c, 0, 65, 91
3, 685920, Note_on_c, 0, 67, 91
3, 685920, Note_on_c, 0, 77, 91
3, 686400, Note_on_c, 0, 77, 0
3, 686400, Note_on_c, 0, 67, 0
3, 686400, Note_on_c, 0, 65, 0
3, 686400, Note_on_c, 0, 63, 91
3, 686400, Note_on_c, 0, 67, 91
3, 686400, Note_on_c, 0, 75, 91
3, 686880, Note_on_c, 0, 75, 0
3, 686880, Note_on_c, 0, 67, 0
3, 686880, Note_on_c, 0, 63, 0
3, 686880, Note_on_c, 0, 62, 91
3, 686880, Note_on_c, 0, 67, 91
3, 686880, Note_on_c, 0, 74, 91
3, 687360, Note_on_c, 0, 74, 0
3, 687360, Note_on_c, 0, 67, 0
3, 687360, Note_on_c, 0, 62, 0
3, 687360, Note_on_c, 0, 58, 91
3, 687360, Note_on_c, 0, 70, 91
3, 687840, Note_on_c, 0, 70, 0
3, 687840, Note_on_c, 0, 58, 0
3, 687840, Note_on_c, 0, 57, 91
3, 687840, Note_on_c, 0, 69, 91
3, 688320, Note_on_c, 0, 69, 0
3, 688320, Note_on_c, 0, 57, 0
3, 688320, Note_on_c, 0, 55, 91
3, 688320, Note_on_c, 0, 67, 91
3, 688800, Note_on_c, 0, 67, 0
3, 688800, Note_on_c, 0, 55, 0
3, 688800, Note_on_c, 0, 50, 91
3, 688800, Note_on_c, 0, 62, 91
3, 689280, Note_on_c, 0, 62, 0
3, 689280, Note_on_c, 0, 50, 0
3, 689280, Note_on_c, 0, 55, 91
3, 689280, Note_on_c, 0, 67, 91
3, 689760, Note_on_c, 0, 67, 0
3, 689760, Note_on_c, 0, 55, 0
3, 689760, Note_on_c, 0, 53, 91
3, 689760, Note_on_c, 0, 65, 91
3, 690240, Note_on_c, 0, 65, 0
3, 690240, Note_on_c, 0, 53, 0
3, 690240, Note_on_c, 0, 51, 91
3, 690240, Note_on_c, 0, 55, 91
3, 690240, Note_on_c, 0, 63, 91
3, 690720, Note_on_c, 0, 63, 0
3, 690720, Note_on_c, 0, 55, 0
3, 690720, Note_on_c, 0, 51, 0
3, 690720, Note_on_c, 0, 50, 91
3, 690720, Note_on_c, 0, 55, 91
3, 690720, Note_on_c, 0, 62, 91
3, 691200, Note_on_c, 0, 62, 0
3, 691200, Note_on_c, 0, 55, 0
3, 691200, Note_on_c, 0, 50, 0
3, 691200, Note_on_c, 0, 46, 91
3, 691200, Note_on_c, 0, 58, 91
3, 691680, Note_on_c, 0, 58, 0
3, 691680, Note_on_c, 0, 46, 0
3, 691680, Note_on_c, 0, 45, 91
3, 691680, Note_on_c, 0, 57, 91
3, 692160, Note_on_c, 0, 57, 0
3, 692160, Note_on_c, 0, 45, 0
3, 692160, Note_on_c, 0, 43, 78
3, 692160, Note_on_c, 0, 46, 78
3, 692160, Note_on_c, 0, 55, 78
3, 692640, Note_on_c, 0, 55, 0
3, 692640, Note_on_c, 0, 46, 0
3, 692640, Note_on_c, 0, 43, 0
3, 692640, Note_on_c, 0, 38, 78
3, 692640, Note_on_c, 0, 50, 78
3, 693120, Note_on_c, 0, 50, 0
3, 693120, Note_on_c, 0, 38, 0
3, 694080, Note_on_c, 0, 43, 78
3, 694080, Note_on_c, 0, 46, 78
3, 694080, Note_on_c, 0, 55, 78
3, 694560, Note_on_c, 0, 55, 0
3, 694560, Note_on_c, 0, 46, 0
3, 694560, Note_on_c, 0, 43, 0
3, 694560, Note_on_c, 0, 38, 78
3, 694560, Note_on_c, 0, 50, 78
3, 695040, Note_on_c, 0, 50, 0
3, 695040, Note_on_c, 0, 38, 0
3, 696000, Note_on_c, 0, 43, 78
3, 696000, Note_on_c, 0, 46, 78
3, 696000, Note_on_c, 0, 55, 78
3, 696480, Note_on_c, 0, 55, 0
3, 696480, Note_on_c, 0, 46, 0
3, 696480, Note_on_c, 0, 43, 0
3, 696480, Note_on_c, 0, 37, 78
3, 696480, Note_on_c, 0, 49, 78
3, 696960, Note_on_c, 0, 49, 0
3, 696960, Note_on_c, 0, 37, 0
3, 697920, Note_on_c, 0, 43, 78
3, 697920, Note_on_c, 0, 46, 78
3, 697920, Note_on_c, 0, 55, 78
3, 698400, Note_on_c, 0, 55, 0
3, 698400, Note_on_c, 0, 46, 0
3, 698400, Note_on_c, 0, 43, 0
3, 698400, Note_on_c, 0, 37, 78
3, 698400, Note_on_c, 0, 49, 78
3, 698880, Note_on_c, 0, 49, 0
3, 698880, Note_on_c, 0, 37, 0
3, 702399, Note_on_c, 0, 52, 91
3, 702399, Note_on_c, 0, 56, 91
3, 702399, Note_on_c, 0, 64, 91
3, 703359, Note_on_c, 0, 64, 0
3, 703359, Note_on_c, 0, 56, 0
3, 703359, Note_on_c, 0, 52, 0
3, 703359, Note_on_c, 0, 51, 91
3, 703359, Note_on_c, 0, 56, 91
3, 703359, Note_on_c, 0, 63, 91
3, 703680, Note_on_c, 0, 63, 0
3, 703680, Note_on_c, 0, 56, 0
3, 703680, Note_on_c, 0, 51, 0
3, 703680, Note_on_c, 0, 49, 91
3, 703680, Note_on_c, 0, 52, 91
3, 703680, Note_on_c, 0, 56, 91
3, 703680, Note_on_c, 0, 61, 91
3, 704319, Note_on_c, 0, 61, 0
3, 704319, Note_on_c, 0, 49, 0
3, 704319, Note_on_c, 0, 52, 0
3, 704319, Note_on_c, 0, 56, 0
3, 704319, Note_on_c, 0, 47, 91
3, 704319, Note_on_c, 0, 52, 91
3, 704319, Note_on_c, 0, 56, 91
3, 704319, Note_on_c, 0, 59, 91
3, 704640, Note_on_c, 0, 59, 0
3, 704640, Note_on_c, 0, 47, 0
3, 704640, Note_on_c, 0, 52, 0
3, 704640, Note_on_c, 0, 56, 0
3, 705920, Note_on_c, 0, 46, 91
3, 705920, Note_on_c, 0, 58, 91
3, 706239, Note_on_c, 0, 58, 0
3, 706239, Note_on_c, 0, 46, 0
3, 706239, Note_on_c, 0, 47, 91
3, 706239, Note_on_c, 0, 59, 91
3, 706560, Note_on_c, 0, 59, 0
3, 706560, Note_on_c, 0, 47, 0
3, 706560, Note_on_c, 0, 52, 91
3, 706560, Note_on_c, 0, 56, 91
3, 706560, Note_on_c, 0, 64, 91
3, 707199, Note_on_c, 0, 64, 0
3, 707199, Note_on_c, 0, 56, 0
3, 707199, Note_on_c, 0, 52, 0
3, 707199, Note_on_c, 0, 51, 91
3, 707199, Note_on_c, 0, 56, 91
3, 707199, Note_on_c, 0, 63, 91
3, 707520, Note_on_c, 0, 63, 0
3, 707520, Note_on_c, 0, 56, 0
3, 707520, Note_on_c, 0, 51, 0
3, 707520, Note_on_c, 0, 49, 91
3, 707520, Note_on_c, 0, 53, 91
3, 707520, Note_on_c, 0, 56, 91
3, 707520, Note_on_c, 0, 61, 91
3, 707840, Note_on_c, 0, 61, 0
3, 707840, Note_on_c, 0, 49, 0
3, 707840, Note_on_c, 0, 53, 0
3, 707840, Note_on_c, 0, 56, 0
3, 707840, Note_on_c, 0, 51, 91
3, 708159, Note_on_c, 0, 51, 0
3, 708159, Note_on_c, 0, 53, 91
3, 708480, Note_on_c, 0, 53, 0
3, 708480, Note_on_c, 0, 54, 91
3, 709440, Note_on_c, 0, 54, 0
3, 710079, Note_on_c, 0, 57, 91
3, 710079, Note_on_c, 0, 61, 91
3, 711039, Note_on_c, 0, 61, 0
3, 711039, Note_on_c, 0, 57, 0
3, 711039, Note_on_c, 0, 56, 91
3, 711039, Note_on_c, 0, 57, 91
3, 711039, Note_on_c, 0, 61, 91
3, 711360, Note_on_c, 0, 61, 0
3, 711360, Note_on_c, 0, 57, 0
3, 711360, Note_on_c, 0, 56, 0
3, 711360, Note_on_c, 0, 56, 91
3, 711360, Note_on_c, 0, 57, 91
3, 711360, Note_on_c, 0, 61, 91
3, 711999, Note_on_c, 0, 61, 0
3, 711999, Note_on_c, 0, 57, 0
3, 711999, Note_on_c, 0, 56, 0
3, 711999, Note_on_c, 0, 54, 91
3, 711999, Note_on_c, 0, 57, 91
3, 711999, Note_on_c, 0, 61, 91
3, 712320, Note_on_c, 0, 61, 0
3, 712320, Note_on_c, 0, 57, 0
3, 712320, Note_on_c, 0, 54, 0
3, 713600, Note_on_c, 0, 53, 91
3, 713600, Note_on_c, 0, 57, 91
3, 713600, Note_on_c, 0, 61, 91
3, 713919, Note_on_c, 0, 61, 0
3, 713919, Note_on_c, 0, 57, 0
3, 713919, Note_on_c, 0, 53, 0
3, 713919, Note_on_c, 0, 54, 91
3, 713919, Note_on_c, 0, 57, 91
3, 713919, Note_on_c, 0, 61, 91
3, 714240, Note_on_c, 0, 61, 0
3, 714240, Note_on_c, 0, 57, 0
3, 714240, Note_on_c, 0, 54, 0
3, 714240, Note_on_c, 0, 57, 91
3, 714240, Note_on_c, 0, 61, 91
3, 714879, Note_on_c, 0, 61, 0
3, 714879, Note_on_c, 0, 57, 0
3, 714879, Note_on_c, 0, 56, 91
3, 714879, Note_on_c, 0, 57, 91
3, 714879, Note_on_c, 0, 61, 91
3, 715200, Note_on_c, 0, 61, 0
3, 715200, Note_on_c, 0, 57, 0
3, 715200, Note_on_c, 0, 56, 0
3, 715200, Note_on_c, 0, 56, 91
3, 715200, Note_on_c, 0, 57, 91
3, 715200, Note_on_c, 0, 61, 91
3, 715520, Note_on_c, 0, 61, 0
3, 715520, Note_on_c, 0, 57, 0
3, 715520, Note_on_c, 0, 56, 0
3, 715520, Note_on_c, 0, 53, 91
3, 715520, Note_on_c, 0, 57, 91
3, 715520, Note_on_c, 0, 61, 91
3, 715839, Note_on_c, 0, 61, 0
3, 715839, Note_on_c, 0, 57, 0
3, 715839, Note_on_c, 0, 53, 0
3, 715839, Note_on_c, 0, 54, 91
3, 715839, Note_on_c, 0, 57, 91
3, 715839, Note_on_c, 0, 61, 91
3, 716160, Note_on_c, 0, 61, 0
3, 716160, Note_on_c, 0, 57, 0
3, 716160, Note_on_c, 0, 54, 0
3, 716160, Note_on_c, 0, 55, 91
3, 716160, Note_on_c, 0, 58, 91
3, 716160, Note_on_c, 0, 63, 91
3, 717120, Note_on_c, 0, 63, 0
3, 717120, Note_on_c, 0, 58, 0
3, 717120, Note_on_c, 0, 55, 0
3, 717759, Note_on_c, 0, 51, 91
3, 717759, Note_on_c, 0, 63, 91
3, 718719, Note_on_c, 0, 63, 0
3, 718719, Note_on_c, 0, 51, 0
3, 718719, Note_on_c, 0, 49, 91
3, 718719, Note_on_c, 0, 51, 91
3, 718719, Note_on_c, 0, 61, 91
3, 719040, Note_on_c, 0, 61, 0
3, 719040, Note_on_c, 0, 51, 0
3, 719040, Note_on_c, 0, 49, 0
3, 719040, Note_on_c, 0, 49, 91
3, 719040, Note_on_c, 0, 51, 91
3, 719040, Note_on_c, 0, 61, 91
3, 720000, Note_on_c, 0, 61, 0
3, 720000, Note_on_c, 0, 51, 0
3, 720000, Note_on_c, 0, 49, 0
3, 720000, Note_on_c, 0, 47, 91
3, 720000, Note_on_c, 0, 51, 91
3, 720000, Note_on_c, 0, 59, 91
3, 720480, Note_on_c, 0, 59, 0
3, 720480, Note_on_c, 0, 51, 0
3, 720480, Note_on_c, 0, 47, 0
3, 721280, Note_on_c, 0, 43, 91
3, 721280, Note_on_c, 0, 51, 91
3, 721280, Note_on_c, 0, 55, 91
3, 721599, Note_on_c, 0, 55, 0
3, 721599, Note_on_c, 0, 51, 0
3, 721599, Note_on_c, 0, 43, 0
3, 721599, Note_on_c, 0, 44, 91
3, 721599, Note_on_c, 0, 51, 91
3, 721599, Note_on_c, 0, 56, 91
3, 721920, Note_on_c, 0, 56, 0
3, 721920, Note_on_c, 0, 51, 0
3, 721920, Note_on_c, 0, 44, 0
3, 721920, Note_on_c, 0, 51, 91
3, 721920, Note_on_c, 0, 63, 91
3, 722559, Note_on_c, 0, 63, 0
3, 722559, Note_on_c, 0, 51, 0
3, 722559, Note_on_c, 0, 49, 91
3, 722559, Note_on_c, 0, 51, 91
3, 722559, Note_on_c, 0, 61, 91
3, 722880, Note_on_c, 0, 61, 0
3, 722880, Note_on_c, 0, 51, 0
3, 722880, Note_on_c, 0, 49, 0
3, 722880, Note_on_c, 0, 49, 91
3, 722880, Note_on_c, 0, 51, 91
3, 722880, Note_on_c, 0, 61, 91
3, 723840, Note_on_c, 0, 61, 0
3, 723840, Note_on_c, 0, 51, 0
3, 723840, Note_on_c, 0, 49, 0
3, 723840, Note_on_c, 0, 47, 91
3, 723840, Note_on_c, 0, 51, 91
3, 723840, Note_on_c, 0, 59, 91
3, 724320, Note_on_c, 0, 59, 0
3, 724320, Note_on_c, 0, 51, 0
3, 724320, Note_on_c, 0, 47, 0
3, 725120, Note_on_c, 0, 48, 91
3, 725120, Note_on_c, 0, 56, 91
3, 725120, Note_on_c, 0, 60, 91
3, 725439, Note_on_c, 0, 60, 0
3, 725439, Note_on_c, 0, 56, 0
3, 725439, Note_on_c, 0, 48, 0
3, 725439, Note_on_c, 0, 49, 91
3, 725439, Note_on_c, 0, 56, 91
3, 725439, Note_on_c, 0, 61, 91
3, 725760, Note_on_c, 0, 61, 0
3, 725760, Note_on_c, 0, 56, 0
3, 725760, Note_on_c, 0, 49, 0
3, 725760, Note_on_c, 0, 56, 91
3, 725760, Note_on_c, 0, 68, 91
3, 726399, Note_on_c, 0, 68, 0
3, 726399, Note_on_c, 0, 56, 0
3, 726399, Note_on_c, 0, 54, 91
3, 726399, Note_on_c, 0, 56, 91
3, 726399, Note_on_c, 0, 66, 91
3, 726720, Note_on_c, 0, 66, 0
3, 726720, Note_on_c, 0, 56, 0
3, 726720, Note_on_c, 0, 54, 0
3, 726720, Note_on_c, 0, 54, 91
3, 726720, Note_on_c, 0, 56, 91
3, 726720, Note_on_c, 0, 66, 91
3, 727359, Note_on_c, 0, 66, 0
3, 727359, Note_on_c, 0, 56, 0
3, 727359, Note_on_c, 0, 54, 0
3, 727359, Note_on_c, 0, 52, 91
3, 727359, Note_on_c, 0, 56, 91
3, 727359, Note_on_c, 0, 64, 91
3, 727680, Note_on_c, 0, 64, 0
3, 727680, Note_on_c, 0, 56, 0
3, 727680, Note_on_c, 0, 52, 0
3, 728960, Note_on_c, 0, 48, 91
3, 728960, Note_on_c, 0, 56, 91
3, 728960, Note_on_c, 0, 60, 91
3, 729279, Note_on_c, 0, 60, 0
3, 729279, Note_on_c, 0, 56, 0
3, 729279, Note_on_c, 0, 48, 0
3, 729279, Note_on_c, 0, 49, 91
3, 729279, Note_on_c, 0, 56, 91
3, 729279, Note_on_c, 0, 61, 91
3, 729600, Note_on_c, 0, 61, 0
3, 729600, Note_on_c, 0, 56, 0
3, 729600, Note_on_c, 0, 49, 0
3, 729600, Note_on_c, 0, 56, 91
3, 729600, Note_on_c, 0, 68, 91
3, 730239, Note_on_c, 0, 68, 0
3, 730239, Note_on_c, 0, 56, 0
3, 730239, Note_on_c, 0, 54, 91
3, 730239, Note_on_c, 0, 56, 91
3, 730239, Note_on_c, 0, 66, 91
3, 730560, Note_on_c, 0, 66, 0
3, 730560, Note_on_c, 0, 56, 0
3, 730560, Note_on_c, 0, 54, 0
3, 730560, Note_on_c, 0, 54, 91
3, 730560, Note_on_c, 0, 56, 91
3, 730560, Note_on_c, 0, 66, 91
3, 730880, Note_on_c, 0, 66, 0
3, 730880, Note_on_c, 0, 56, 0
3, 730880, Note_on_c, 0, 54, 0
3, 730880, Note_on_c, 0, 51, 91
3, 730880, Note_on_c, 0, 56, 91
3, 730880, Note_on_c, 0, 63, 91
3, 731199, Note_on_c, 0, 63, 0
3, 731199, Note_on_c, 0, 56, 0
3, 731199, Note_on_c, 0, 51, 0
3, 731199, Note_on_c, 0, 52, 91
3, 731199, Note_on_c, 0, 56, 91
3, 731199, Note_on_c, 0, 64, 91
3, 731520, Note_on_c, 0, 64, 0
3, 731520, Note_on_c, 0, 56, 0
3, 731520, Note_on_c, 0, 52, 0
3, 732800, Note_on_c, 0, 53, 91
3, 732800, Note_on_c, 0, 61, 91
3, 732800, Note_on_c, 0, 65, 91
3, 733119, Note_on_c, 0, 65, 0
3, 733119, Note_on_c, 0, 61, 0
3, 733119, Note_on_c, 0, 53, 0
3, 733119, Note_on_c, 0, 54, 91
3, 733119, Note_on_c, 0, 61, 91
3, 733119, Note_on_c, 0, 66, 91
3, 733440, Note_on_c, 0, 66, 0
3, 733440, Note_on_c, 0, 61, 0
3, 733440, Note_on_c, 0, 54, 0
3, 733440, Note_on_c, 0, 61, 91
3, 733440, Note_on_c, 0, 73, 91
3, 734079, Note_on_c, 0, 73, 0
3, 734079, Note_on_c, 0, 61, 0
3, 734079, Note_on_c, 0, 59, 91
3, 734079, Note_on_c, 0, 61, 91
3, 734079, Note_on_c, 0, 71, 91
3, 734400, Note_on_c, 0, 71, 0
3, 734400, Note_on_c, 0, 61, 0
3, 734400, Note_on_c, 0, 59, 0
3, 734400, Note_on_c, 0, 59, 91
3, 734400, Note_on_c, 0, 61, 91
3, 734400, Note_on_c, 0, 71, 91
3, 735039, Note_on_c, 0, 71, 0
3, 735039, Note_on_c, 0, 61, 0
3, 735039, Note_on_c, 0, 59, 0
3, 735039, Note_on_c, 0, 57, 91
3, 735039, Note_on_c, 0, 61, 91
3, 735039, Note_on_c, 0, 69, 91
3, 735360, Note_on_c, 0, 69, 0
3, 735360, Note_on_c, 0, 61, 0
3, 735360, Note_on_c, 0, 57, 0
3, 736640, Note_on_c, 0, 53, 91
3, 736640, Note_on_c, 0, 61, 91
3, 736640, Note_on_c, 0, 65, 91
3, 736959, Note_on_c, 0, 65, 0
3, 736959, Note_on_c, 0, 61, 0
3, 736959, Note_on_c, 0, 53, 0
3, 736959, Note_on_c, 0, 54, 91
3, 736959, Note_on_c, 0, 61, 91
3, 736959, Note_on_c, 0, 66, 91
3, 737280, Note_on_c, 0, 66, 0
3, 737280, Note_on_c, 0, 61, 0
3, 737280, Note_on_c, 0, 54, 0
3, 737280, Note_on_c, 0, 61, 91
3, 737280, Note_on_c, 0, 73, 91
3, 737919, Note_on_c, 0, 73, 0
3, 737919, Note_on_c, 0, 61, 0
3, 737919, Note_on_c, 0, 59, 91
3, 737919, Note_on_c, 0, 61, 91
3, 737919, Note_on_c, 0, 71, 91
3, 738240, Note_on_c, 0, 71, 0
3, 738240, Note_on_c, 0, 61, 0
3, 738240, Note_on_c, 0, 59, 0
3, 738240, Note_on_c, 0, 59, 91
3, 738240, Note_on_c, 0, 61, 91
3, 738240, Note_on_c, 0, 71, 91
3, 738560, Note_on_c, 0, 71, 0
3, 738560, Note_on_c, 0, 61, 0
3, 738560, Note_on_c, 0, 59, 0
3, 738560, Note_on_c, 0, 56, 91
3, 738560, Note_on_c, 0, 61, 91
3, 738560, Note_on_c, 0, 68, 91
3, 738879, Note_on_c, 0, 68, 0
3, 738879, Note_on_c, 0, 61, 0
3, 738879, Note_on_c, 0, 56, 0
3, 738879, Note_on_c, 0, 57, 91
3, 738879, Note_on_c, 0, 61, 91
3, 738879, Note_on_c, 0, 69, 91
3, 739200, Note_on_c, 0, 69, 0
3, 739200, Note_on_c, 0, 61, 0
3, 739200, Note_on_c, 0, 57, 0
3, 758400, Control_c, 0, 64, 127
3, 758400, Note_on_c, 0, 51, 52
3, 758400, Note_on_c, 0, 54, 52
3, 758400, Note_on_c, 0, 56, 52
3, 758559, Note_on_c, 0, 56, 0
3, 758559, Note_on_c, 0, 54, 0
3, 758559, Note_on_c, 0, 51, 0
3, 758559, Note_on_c, 0, 49, 52
3, 758720, Note_on_c, 0, 49, 0
3, 758720, Note_on_c, 0, 48, 52
3, 758880, Note_on_c, 0, 48, 0
3, 758880, Note_on_c, 0, 39, 52
3, 758880, Note_on_c, 0, 42, 52
3, 758880, Note_on_c, 0, 44, 52
3, 759039, Note_on_c, 0, 44, 0
3, 759039, Note_on_c, 0, 42, 0
3, 759039, Note_on_c, 0, 39, 0
3, 759039, Note_on_c, 0, 37, 52
3, 759200, Note_on_c, 0, 37, 0
3, 759200, Control_c, 0, 64, 0
3, 759200, Note_on_c, 0, 36, 52
3, 759360, Note_on_c, 0, 36, 0
3, 759360, Control_c, 0, 64, 127
3, 759360, Note_on_c, 0, 37, 52
3, 759519, Note_on_c, 0, 37, 0
3, 759519, Note_on_c, 0, 44, 52
3, 759680, Note_on_c, 0, 44, 0
3, 759680, Note_on_c, 0, 49, 52
3, 759840, Note_on_c, 0, 49, 0
3, 759840, Note_on_c, 0, 56, 52
3, 759999, Note_on_c, 0, 56, 0
3, 759999, Note_on_c, 0, 61, 52
3, 760160, Note_on_c, 0, 61, 0
3, 760160, Note_on_c, 0, 68, 52
3, 760320, Note_on_c, 0, 68, 0
3, 760800, Control_c, 0, 64, 0
3, 766080, Control_c, 0, 64, 127
3, 766080, Note_on_c, 0, 53, 52
3, 766080, Note_on_c, 0, 56, 52
3, 766080, Note_on_c, 0, 58, 52
3, 766239, Note_on_c, 0, 58, 0
3, 766239, Note_on_c, 0, 56, 0
3, 766239, Note_on_c, 0, 53, 0
3, 766239, Note_on_c, 0, 51, 52
3, 766400, Note_on_c, 0, 51, 0
3, 766400, Note_on_c, 0, 50, 52
3, 766560, Note_on_c, 0, 50, 0
3, 766560, Note_on_c, 0, 41, 52
3, 766560, Note_on_c, 0, 44, 52
3, 766560, Note_on_c, 0, 46, 52
3, 766719, Note_on_c, 0, 46, 0
3, 766719, Note_on_c, 0, 44, 0
3, 766719, Note_on_c, 0, 41, 0
3, 766719, Note_on_c, 0, 39, 52
3, 766880, Note_on_c, 0, 39, 0
3, 766880, Control_c, 0, 64, 0
3, 766880, Note_on_c, 0, 38, 52
3, 767040, Note_on_c, 0, 38, 0
3, 767040, Control_c, 0, 64, 127
3, 767040, Note_on_c, 0, 39, 52
3, 767199, Note_on_c, 0, 39, 0
3, 767199, Note_on_c, 0, 46, 52
3, 767360, Note_on_c, 0, 46, 0
3, 767360, Note_on_c, 0, 51, 52
3, 767520, Note_on_c, 0, 51, 0
3, 767520, Note_on_c, 0, 58, 52
3, 767679, Note_on_c, 0, 58, 0
3, 767679, Note_on_c, 0, 63, 52
3, 767840, Note_on_c, 0, 63, 0
3, 767840, Note_on_c, 0, 70, 52
3, 768000, Note_on_c, 0, 70, 0
3, 768480, Control_c, 0, 64, 0
3, 776640, Note_on_c, 0, 49, 52
3, 776640, Note_on_c, 0, 51, 52
3, 776640, Note_on_c, 0, 61, 52
3, 777120, Note_on_c, 0, 61, 0
3, 777120, Note_on_c, 0, 51, 0
3, 777120, Note_on_c, 0, 49, 0
3, 777120, Note_on_c, 0, 61, 52
3, 777120, Note_on_c, 0, 63, 52
3, 777120, Note_on_c, 0, 68, 52
3, 777360, Note_on_c, 0, 68, 0
3, 777360, Note_on_c, 0, 63, 0
3, 777360, Note_on_c, 0, 61, 0
3, 777360, Note_on_c, 0, 67, 52
3, 777600, Note_on_c, 0, 67, 0
3, 777600, Note_on_c, 0, 48, 52
3, 777600, Note_on_c, 0, 51, 52
3, 777600, Note_on_c, 0, 60, 52
3, 778080, Note_on_c, 0, 60, 0
3, 778080, Note_on_c, 0, 51, 0
3, 778080, Note_on_c, 0, 48, 0
3, 778080, Note_on_c, 0, 60, 52
3, 778080, Note_on_c, 0, 63, 52
3, 778080, Note_on_c, 0, 67, 52
3, 778320, Note_on_c, 0, 67, 0
3, 778320, Note_on_c, 0, 63, 0
3, 778320, Note_on_c, 0, 60, 0
3, 778320, Note_on_c, 0, 68, 52
3, 778560, Note_on_c, 0, 68, 0
3, 778560, Note_on_c, 0, 51, 52
3, 778560, Note_on_c, 0, 53, 52
3, 778560, Note_on_c, 0, 63, 52
3, 779040, Note_on_c, 0, 63, 0
3, 779040, Note_on_c, 0, 53, 0
3, 779040, Note_on_c, 0, 51, 0
3, 779040, Note_on_c, 0, 63, 52
3, 779040, Note_on_c, 0, 65, 52
3, 779040, Note_on_c, 0, 70, 52
3, 779280, Note_on_c, 0, 70, 0
3, 779280, Note_on_c, 0, 65, 0
3, 779280, Note_on_c, 0, 63, 0
3, 779280, Note_on_c, 0, 69, 52
3, 779520, Note_on_c, 0, 69, 0
3, 779520, Note_on_c, 0, 49, 52
3, 779520, Note_on_c, 0, 53, 52
3, 779520, Note_on_c, 0, 61, 52
3, 780000, Note_on_c, 0, 61, 0
3, 780000, Note_on_c, 0, 53, 0
3, 780000, Note_on_c, 0, 49, 0
3, 780000, Note_on_c, 0, 61, 52
3, 780000, Note_on_c, 0, 65, 52
3, 780000, Note_on_c, 0, 69, 52
3, 780240, Note_on_c, 0, 69, 0
3, 780240, Note_on_c, 0, 65, 0
3, 780240, Note_on_c, 0, 61, 0
3, 780240, Note_on_c, 0, 70, 52
3, 780480, Note_on_c, 0, 70, 0
3, 780480, Note_on_c, 0, 54, 52
3, 780480, Note_on_c, 0, 58, 52
3, 780480, Note_on_c, 0, 66, 52
3, 780720, Note_on_c, 0, 66, 0
3, 780720, Note_on_c, 0, 58, 0
3, 780720, Note_on_c, 0, 54, 0
3, 780960, Note_on_c, 0, 66, 52
3, 780960, Note_on_c, 0, 78, 52
3, 781200, Note_on_c, 0, 78, 0
3, 781200, Note_on_c, 0, 66, 0
3, 781440, Note_on_c, 0, 54, 52
3, 781440, Note_on_c, 0, 59, 52
3, 781440, Note_on_c, 0, 66, 52
3, 781680, Note_on_c, 0, 66, 0
3, 781680, Note_on_c, 0, 59, 0
3, 781680, Note_on_c, 0, 54, 0
3, 781920, Note_on_c, 0, 66, 52
3, 781920, Note_on_c, 0, 78, 52
3, 782160, Note_on_c, 0, 78, 0
3, 782160, Note_on_c, 0, 66, 0
3, 782400, Note_on_c, 0, 55, 52
3, 782400, Note_on_c, 0, 59, 52
3, 782400, Note_on_c, 0, 67, 52
3, 782640, Note_on_c, 0, 67, 0
3, 782640, Note_on_c, 0, 59, 0
3, 782640, Note_on_c, 0, 55, 0
3, 782880, Note_on_c, 0, 67, 52
3, 782880, Note_on_c, 0, 79, 52
3, 783120, Note_on_c, 0, 79, 0
3, 783120, Note_on_c, 0, 67, 0
3, 783360, Note_on_c, 0, 55, 52
3, 783360, Note_on_c, 0, 60, 52
3, 783360, Note_on_c, 0, 67, 52
3, 783600, Note_on_c, 0, 67, 0
3, 783600, Note_on_c, 0, 60, 0
3, 783600, Note_on_c, 0, 55, 0
3, 783840, Note_on_c, 0, 67, 52
3, 783840, Note_on_c, 0, 79, 52
3, 784080, Note_on_c, 0, 79, 0
3, 784080, Note_on_c, 0, 67, 0
3, 784320, Note_on_c, 0, 52, 52
3, 784320, Note_on_c, 0, 54, 52
3, 784320, Note_on_c, 0, 64, 52
3, 784800, Note_on_c, 0, 64, 0
3, 784800, Note_on_c, 0, 54, 0
3, 784800, Note_on_c, 0, 52, 0
3, 784800, Note_on_c, 0, 64, 52
3, 784800, Note_on_c, 0, 66, 52
3, 784800, Note_on_c, 0, 71, 52
3, 785040, Note_on_c, 0, 71, 0
3, 785040, Note_on_c, 0, 66, 0
3, 785040, Note_on_c, 0, 64, 0
3, 785040, Note_on_c, 0, 70, 52
3, 785280, Note_on_c, 0, 70, 0
3, 785280, Note_on_c, 0, 51, 52
3, 785280, Note_on_c, 0, 54, 52
3, 785280, Note_on_c, 0, 63, 52
3, 785760, Note_on_c, 0, 63, 0
3, 785760, Note_on_c, 0, 54, 0
3, 785760, Note_on_c, 0, 51, 0
3, 785760, Note_on_c, 0, 63, 52
3, 785760, Note_on_c, 0, 66, 52
3, 785760, Note_on_c, 0, 70, 52
3, 786000, Note_on_c, 0, 70, 0
3, 786000, Note_on_c, 0, 66, 0
3, 786000, Note_on_c, 0, 63, 0
3, 786000, Note_on_c, 0, 71, 52
3, 786240, Note_on_c, 0, 71, 0
3, 786240, Note_on_c, 0, 53, 52
3, 786240, Note_on_c, 0, 55, 52
3, 786240, Note_on_c, 0, 65, 52
3, 786720, Note_on_c, 0, 65, 0
3, 786720, Note_on_c, 0, 55, 0
3, 786720, Note_on_c, 0, 53, 0
3, 786720, Note_on_c, 0, 65, 52
3, 786720, Note_on_c, 0, 67, 52
3, 786720, Note_on_c, 0, 72, 52
3, 786960, Note_on_c, 0, 72, 0
3, 786960, Note_on_c, 0, 67, 0
3, 786960, Note_on_c, 0, 65, 0
3, 786960, Note_on_c, 0, 71, 52
3, 787200, Note_on_c, 0, 71, 0
3, 787200, Note_on_c, 0, 52, 52
3, 787200, Note_on_c, 0, 55, 52
3, 787200, Note_on_c, 0, 64, 52
3, 787680, Note_on_c, 0, 64, 0
3, 787680, Note_on_c, 0, 55, 0
3, 787680, Note_on_c, 0, 52, 0
3, 787680, Note_on_c, 0, 64, 52
3, 787680, Note_on_c, 0, 67, 52
3, 787680, Note_on_c, 0, 71, 52
3, 787920, Note_on_c, 0, 71, 0
3, 787920, Note_on_c, 0, 67, 0
3, 787920, Note_on_c, 0, 64, 0
3, 787920, Note_on_c, 0, 72, 52
3, 788160, Note_on_c, 0, 72, 0
3, 788160, Note_on_c, 0, 57, 52
3, 788160, Note_on_c, 0, 61, 52
3, 788160, Note_on_c, 0, 69, 52
3, 788400, Note_on_c, 0, 69, 0
3, 788400, Note_on_c, 0, 61, 0
3, 788400, Note_on_c, 0, 57, 0
3, 788640, Note_on_c, 0, 69, 52
3, 788640, Note_on_c, 0, 81, 52
3, 788880, Note_on_c, 0, 81, 0
3, 788880, Note_on_c, 0, 69, 0
3, 789120, Note_on_c, 0, 57, 52
3, 789120, Note_on_c, 0, 62, 52
3, 789120, Note_on_c, 0, 69, 52
3, 789360, Note_on_c, 0, 69, 0
3, 789360, Note_on_c, 0, 62, 0
3, 789360, Note_on_c, 0, 57, 0
3, 789600, Note_on_c, 0, 69, 52
3, 789600, Note_on_c, 0, 81, 52
3, 789840, Note_on_c, 0, 81, 0
3, 789840, Note_on_c, 0, 69, 0
3, 790080, Note_on_c, 0, 58, 52
3, 790080, Note_on_c, 0, 62, 52
3, 790080, Note_on_c, 0, 70, 52
3, 790320, Note_on_c, 0, 70, 0
3, 790320, Note_on_c, 0, 62, 0
3, 790320, Note_on_c, 0, 58, 0
3, 790560, Note_on_c, 0, 70, 52
3, 790560, Note_on_c, 0, 82, 52
3, 790800, Note_on_c, 0, 82, 0
3, 790800, Note_on_c, 0, 70, 0
3, 791040, Note_on_c, 0, 58, 52
3, 791040, Note_on_c, 0, 63, 52
3, 791040, Note_on_c, 0, 70, 52
3, 791280, Note_on_c, 0, 70, 0
3, 791280, Note_on_c, 0, 63, 0
3, 791280, Note_on_c, 0, 58, 0
3, 791520, Note_on_c, 0, 70, 52
3, 791520, Note_on_c, 0, 82, 52
3, 791760, Note_on_c, 0, 82, 0
3, 791760, Note_on_c, 0, 70, 0
3, 792000, Control_c, 0, 64, 127
3, 792000, Note_on_c, 0, 66, 78
3, 792000, Note_on_c, 0, 70, 78
3, 792000, Note_on_c, 0, 73, 78
3, 792000, Note_on_c, 0, 78, 78
3, 792240, Note_on_c, 0, 78, 0
3, 792240, Note_on_c, 0, 66, 0
3, 792240, Note_on_c, 0, 70, 0
3, 792240, Note_on_c, 0, 73, 0
3, 792480, Note_on_c, 0, 54, 78
3, 792480, Note_on_c, 0, 58, 78
3, 792480, Note_on_c, 0, 61, 78
3, 792480, Note_on_c, 0, 66, 78
3, 792720, Note_on_c, 0, 66, 0
3, 792720, Note_on_c, 0, 54, 0
3, 792720, Note_on_c, 0, 58, 0
3, 792720, Note_on_c, 0, 61, 0
3, 792960, Note_on_c, 0, 42, 78
3, 792960, Note_on_c, 0, 46, 78
3, 792960, Note_on_c, 0, 49, 78
3, 792960, Note_on_c, 0, 54, 78
3, 793200, Note_on_c, 0, 54, 0
3, 793200, Note_on_c, 0, 42, 0
3, 793200, Note_on_c, 0, 46, 0
3, 793200, Note_on_c, 0, 49, 0
3, 793440, Control_c, 0, 64, 0
3, 793920, Control_c, 0, 64, 127
3, 793920, Note_on_c, 0, 65, 78
3, 793920, Note_on_c, 0, 70, 78
3, 793920, Note_on_c, 0, 73, 78
3, 793920, Note_on_c, 0, 77, 78
3, 794160, Note_on_c, 0, 77, 0
3, 794160, Note_on_c, 0, 65, 0
3, 794160, Note_on_c, 0, 70, 0
3, 794160, Note_on_c, 0, 73, 0
3, 794400, Note_on_c, 0, 53, 78
3, 794400, Note_on_c, 0, 58, 78
3, 794400, Note_on_c, 0, 61, 78
3, 794400, Note_on_c, 0, 65, 78
3, 794640, Note_on_c, 0, 65, 0
3, 794640, Note_on_c, 0, 53, 0
3, 794640, Note_on_c, 0, 58, 0
3, 794640, Note_on_c, 0, 61, 0
3, 794880, Note_on_c, 0, 41, 78
3, 794880, Note_on_c, 0, 46, 78
3, 794880, Note_on_c, 0, 49, 78
3, 794880, Note_on_c, 0, 53, 78
3, 795120, Note_on_c, 0, 53, 0
3, 795120, Note_on_c, 0, 41, 0
3, 795120, Note_on_c, 0, 46, 0
3, 795120, Note_on_c, 0, 49, 0
3, 795360, Control_c, 0, 64, 0
3, 795840, Note_on_c, 0, 73, 78
3, 795840, Note_on_c, 0, 77, 78
3, 795840, Note_on_c, 0, 82, 78
3, 795840, Note_on_c, 0, 85, 78
3, 796080, Note_on_c, 0, 85, 0
3, 796080, Note_on_c, 0, 73, 0
3, 796080, Note_on_c, 0, 77, 0
3, 796080, Note_on_c, 0, 82, 0
3, 796320, Note_on_c, 0, 70, 78
3, 796320, Note_on_c, 0, 73, 78
3, 796320, Note_on_c, 0, 77, 78
3, 796320, Note_on_c, 0, 82, 78
3, 796560, Note_on_c, 0, 82, 0
3, 796560, Note_on_c, 0, 70, 0
3, 796560, Note_on_c, 0, 73, 0
3, 796560, Note_on_c, 0, 77, 0
3, 796800, Note_on_c, 0, 65, 78
3, 796800, Note_on_c, 0, 70, 78
3, 796800, Note_on_c, 0, 73, 78
3, 796800, Note_on_c, 0, 77, 78
3, 797040, Note_on_c, 0, 77, 0
3, 797040, Note_on_c, 0, 65, 0
3, 797040, Note_on_c, 0, 70, 0
3, 797040, Note_on_c, 0, 73, 0
3, 797280, Note_on_c, 0, 61, 78
3, 797280, Note_on_c, 0, 65, 78
3, 797280, Note_on_c, 0, 70, 78
3, 797280, Note_on_c, 0, 73, 78
3, 797520, Note_on_c, 0, 73, 0
3, 797520, Note_on_c, 0, 61, 0
3, 797520, Note_on_c, 0, 65, 0
3, 797520, Note_on_c, 0, 70, 0
3, 797760, Note_on_c, 0, 58, 78
3, 797760, Note_on_c, 0, 61, 78
3, 797760, Note_on_c, 0, 65, 78
3, 797760, Note_on_c, 0, 70, 78
3, 798000, Note_on_c, 0, 70, 0
3, 798000, Note_on_c, 0, 58, 0
3, 798000, Note_on_c, 0, 61, 0
3, 798000, Note_on_c, 0, 65, 0
3, 798240, Note_on_c, 0, 53, 78
3, 798240, Note_on_c, 0, 58, 78
3, 798240, Note_on_c, 0, 61, 78
3, 798240, Note_on_c, 0, 65, 78
3, 798480, Note_on_c, 0, 65, 0
3, 798480, Note_on_c, 0, 53, 0
3, 798480, Note_on_c, 0, 58, 0
3, 798480, Note_on_c, 0, 61, 0
3, 798720, Note_on_c, 0, 49, 78
3, 798720, Note_on_c, 0, 53, 78
3, 798720, Note_on_c, 0, 58, 78
3, 798720, Note_on_c, 0, 61, 78
3, 798960, Note_on_c, 0, 61, 0
3, 798960, Note_on_c, 0, 49, 0
3, 798960, Note_on_c, 0, 53, 0
3, 798960, Note_on_c, 0, 58, 0
3, 799200, Note_on_c, 0, 46, 78
3, 799200, Note_on_c, 0, 49, 78
3, 799200, Note_on_c, 0, 53, 78
3, 799200, Note_on_c, 0, 58, 78
3, 799440, Note_on_c, 0, 58, 0
3, 799440, Note_on_c, 0, 46, 0
3, 799440, Note_on_c, 0, 49, 0
3, 799440, Note_on_c, 0, 53, 0
3, 799680, Note_on_c, 0, 41, 78
3, 799680, Note_on_c, 0, 46, 78
3, 799680, Note_on_c, 0, 49, 78
3, 799680, Note_on_c, 0, 53, 78
3, 799920, Note_on_c, 0, 53, 0
3, 799920, Note_on_c, 0, 41, 0
3, 799920, Note_on_c, 0, 46, 0
3, 799920, Note_on_c, 0, 49, 0
3, 800160, Note_on_c, 0, 37, 78
3, 800160, Note_on_c, 0, 41, 78
3, 800160, Note_on_c, 0, 46, 78
3, 800160, Note_on_c, 0, 49, 78
3, 800400, Note_on_c, 0, 49, 0
3, 800400, Note_on_c, 0, 37, 0
3, 800400, Note_on_c, 0, 41, 0
3, 800400, Note_on_c, 0, 46, 0
3, 800640, Note_on_c, 0, 34, 78
3, 800640, Note_on_c, 0, 37, 78
3, 800640, Note_on_c, 0, 41, 78
3, 800640, Note_on_c, 0, 46, 78
3, 800880, Note_on_c, 0, 46, 0
3, 800880, Note_on_c, 0, 34, 0
3, 800880, Note_on_c, 0, 37, 0
3, 800880, Note_on_c, 0, 41, 0
3, 801120, Note_on_c, 0, 29, 78
3, 801120, Note_on_c, 0, 34, 78
3, 801120, Note_on_c, 0, 37, 78
3, 801120, Note_on_c, 0, 41, 78
3, 801360, Note_on_c, 0, 41, 0
3, 801360, Note_on_c, 0, 29, 0
3, 801360, Note_on_c, 0, 34, 0
3, 801360, Note_on_c, 0, 37, 0
3, 801600, Note_on_c, 0, 34, 78
3, 801600, Note_on_c, 0, 37, 78
3, 801600, Note_on_c, 0, 41, 78
3, 801600, Note_on_c, 0, 46, 78
3, 801840, Note_on_c, 0, 46, 0
3, 801840, Note_on_c, 0, 34, 0
3, 801840, Note_on_c, 0, 37, 0
3, 801840, Note_on_c, 0, 41, 0
3, 802080, Note_on_c, 0, 29, 78
3, 802080, Note_on_c, 0, 34, 78
3, 802080, Note_on_c, 0, 37, 78
3, 802080, Note_on_c, 0, 41, 78
3, 802320, Note_on_c, 0, 41, 0
3, 802320, Note_on_c, 0, 29, 0
3, 802320, Note_on_c, 0, 34, 0
3, 802320, Note_on_c, 0, 37, 0
3, 802560, Note_on_c, 0, 34, 78
3, 802560, Note_on_c, 0, 37, 78
3, 802560, Note_on_c, 0, 41, 78
3, 802560, Note_on_c, 0, 46, 78
3, 802800, Note_on_c, 0, 46, 0
3, 802800, Note_on_c, 0, 34, 0
3, 802800, Note_on_c, 0, 37, 0
3, 802800, Note_on_c, 0, 41, 0
3, 803040, Note_on_c, 0, 29, 78
3, 803040, Note_on_c, 0, 34, 78
3, 803040, Note_on_c, 0, 37, 78
3, 803040, Note_on_c, 0, 41, 78
3, 803280, Note_on_c, 0, 41, 0
3, 803280, Note_on_c, 0, 29, 0
3, 803280, Note_on_c, 0, 34, 0
3, 803280, Note_on_c, 0, 37, 0
3, 803520, Note_on_c, 0, 30, 78
3, 803520, Note_on_c, 0, 34, 78
3, 803520, Note_on_c, 0, 36, 78
3, 803760, Note_on_c, 0, 36, 0
3, 803760, Note_on_c, 0, 34, 0
3, 803760, Note_on_c, 0, 30, 0
3, 804000, Note_on_c, 0, 29, 78
3, 804000, Note_on_c, 0, 34, 78
3, 804000, Note_on_c, 0, 37, 78
3, 804240, Note_on_c, 0, 37, 0
3, 804240, Note_on_c, 0, 34, 0
3, 804240, Note_on_c, 0, 29, 0
3, 804480, Note_on_c, 0, 30, 78
3, 804480, Note_on_c, 0, 34, 78
3, 804480, Note_on_c, 0, 36, 78
3, 804720, Note_on_c, 0, 36, 0
3, 804720, Note_on_c, 0, 34, 0
3, 804720, Note_on_c, 0, 30, 0
3, 804960, Note_on_c, 0, 29, 78
3, 804960, Note_on_c, 0, 34, 78
3, 804960, Note_on_c, 0, 37, 78
3, 805200, Note_on_c, 0, 37, 0
3, 805200, Note_on_c, 0, 34, 0
3, 805200, Note_on_c, 0, 29, 0
3, 859200, Note_on_c, 0, 75, 65
3, 859680, Note_on_c, 0, 75, 0
3, 865200, Note_on_c, 0, 69, 52
3, 865440, Note_on_c, 0, 69, 0
3, 865680, Note_on_c, 0, 67, 52
3, 865920, Note_on_c, 0, 67, 0
3, 866160, Note_on_c, 0, 65, 39
3, 866400, Note_on_c, 0, 65, 0
3, 866640, Note_on_c, 0, 63, 39
3, 866880, Note_on_c, 0, 63, 0
3, 866880, Note_on_c, 0, 62, 39
3, 866880, Note_on_c, 0, 65, 39
3, 866880, Note_on_c, 0, 70, 39
3, 867120, Note_on_c, 0, 70, 0
3, 867120, Note_on_c, 0, 65, 0
3, 867120, Note_on_c, 0, 62, 0
3, 867120, Note_on_c, 0, 62, 39
3, 867120, Note_on_c, 0, 65, 39
3, 867120, Note_on_c, 0, 70, 39
3, 867600, Note_on_c, 0, 70, 0
3, 867600, Note_on_c, 0, 65, 0
3, 867600, Note_on_c, 0, 62, 0
3, 867600, Note_on_c, 0, 62, 39
3, 867600, Note_on_c, 0, 66, 39
3, 867600, Note_on_c, 0, 70, 39
3, 867840, Note_on_c, 0, 70, 0
3, 867840, Note_on_c, 0, 66, 0
3, 867840, Note_on_c, 0, 62, 0
3, 867840, Note_on_c, 0, 63, 52
3, 867840, Note_on_c, 0, 67, 52
3, 867840, Note_on_c, 0, 70, 52
3, 868080, Note_on_c, 0, 70, 0
3, 868080, Note_on_c, 0, 67, 0
3, 868080, Note_on_c, 0, 63, 0
3, 868080, Note_on_c, 0, 63, 52
3, 868080, Note_on_c, 0, 67, 52
3, 868080, Note_on_c, 0, 70, 52
3, 868560, Note_on_c, 0, 70, 0
3, 868560, Note_on_c, 0, 67, 0
3, 868560, Note_on_c, 0, 63, 0
3, 868560, Note_on_c, 0, 62, 52
3, 868560, Note_on_c, 0, 67, 52
3, 868560, Note_on_c, 0, 71, 52
3, 868800, Note_on_c, 0, 62, 0
3, 869040, Note_on_c, 0, 71, 0
3, 869040, Note_on_c, 0, 67, 0
3, 869040, Note_on_c, 0, 67, 52
3, 869040, Note_on_c, 0, 72, 52
3, 869280, Note_on_c, 0, 72, 0
3, 869280, Note_on_c, 0, 67, 0
3, 869280, Note_on_c, 0, 67, 39
3, 869280, Note_on_c, 0, 71, 39
3, 869520, Note_on_c, 0, 71, 0
3, 869520, Note_on_c, 0, 67, 0
3, 869520, Note_on_c, 0, 67, 39
3, 869520, Note_on_c, 0, 71, 39
3, 869760, Note_on_c, 0, 71, 0
3, 869760, Note_on_c, 0, 67, 0
3, 869760, Note_on_c, 0, 67, 39
3, 869760, Note_on_c, 0, 69, 39
3, 870000, Note_on_c, 0, 69, 0
3, 870000, Note_on_c, 0, 67, 0
3, 870000, Note_on_c, 0, 67, 39
3, 870000, Note_on_c, 0, 69, 39
3, 870240, Note_on_c, 0, 69, 0
3, 870240, Note_on_c, 0, 67, 0
3, 870480, Note_on_c, 0, 60, 39
3, 870480, Note_on_c, 0, 67, 39
3, 870720, Note_on_c, 0, 67, 0
3, 870720, Note_on_c, 0, 60, 0
3, 870720, Note_on_c, 0, 62, 39
3, 870720, Note_on_c, 0, 66, 39
3, 870720, Note_on_c, 0, 69, 39
3, 870960, Note_on_c, 0, 69, 0
3, 870960, Note_on_c, 0, 66, 0
3, 870960, Note_on_c, 0, 62, 0
3, 870960, Note_on_c, 0, 62, 39
3, 870960, Note_on_c, 0, 66, 39
3, 870960, Note_on_c, 0, 69, 39
3, 871200, Note_on_c, 0, 69, 0
3, 871200, Note_on_c, 0, 66, 0
3, 871200, Note_on_c, 0, 62, 0
3, 871440, Note_on_c, 0, 62, 39
3, 871440, Note_on_c, 0, 67, 39
3, 871680, Note_on_c, 0, 67, 0
3, 871680, Note_on_c, 0, 62, 0
3, 871920, Note_on_c, 0, 60, 39
3, 871920, Note_on_c, 0, 62, 39
3, 872160, Note_on_c, 0, 62, 0
3, 872160, Note_on_c, 0, 60, 0
3, 872400, Note_on_c, 0, 58, 52
3, 872400, Note_on_c, 0, 62, 52
3, 872640, Note_on_c, 0, 62, 0
3, 872640, Note_on_c, 0, 58, 0
3, 872640, Note_on_c, 0, 62, 52
3, 872640, Note_on_c, 0, 65, 52
3, 872880, Note_on_c, 0, 65, 0
3, 872880, Note_on_c, 0, 62, 0
3, 872880, Note_on_c, 0, 62, 52
3, 872880, Note_on_c, 0, 65, 52
3, 873360, Note_on_c, 0, 65, 0
3, 873360, Note_on_c, 0, 62, 0
3, 873360, Note_on_c, 0, 62, 52
3, 873360, Note_on_c, 0, 65, 52
3, 873840, Note_on_c, 0, 65, 0
3, 873840, Note_on_c, 0, 62, 0
3, 873840, Note_on_c, 0, 62, 52
3, 873840, Note_on_c, 0, 65, 52
3, 874080, Note_on_c, 0, 65, 0
3, 874080, Note_on_c, 0, 62, 0
3, 874080, Note_on_c, 0, 60, 39
3, 874080, Note_on_c, 0, 65, 39
3, 874320, Note_on_c, 0, 65, 0
3, 874320, Note_on_c, 0, 60, 0
3, 874320, Note_on_c, 0, 60, 39
3, 874320, Note_on_c, 0, 65, 39
3, 874560, Note_on_c, 0, 65, 0
3, 874560, Note_on_c, 0, 60, 0
3, 874560, Note_on_c, 0, 63, 52
3, 874560, Note_on_c, 0, 67, 52
3, 874800, Note_on_c, 0, 67, 0
3, 874800, Note_on_c, 0, 63, 0
3, 874800, Note_on_c, 0, 63, 52
3, 874800, Note_on_c, 0, 67, 52
3, 875280, Note_on_c, 0, 67, 0
3, 875280, Note_on_c, 0, 63, 0
3, 875280, Note_on_c, 0, 63, 52
3, 875280, Note_on_c, 0, 67, 52
3, 875760, Note_on_c, 0, 67, 0
3, 875760, Note_on_c, 0, 63, 0
3, 875760, Note_on_c, 0, 63, 52
3, 875760, Note_on_c, 0, 67, 52
3, 876240, Note_on_c, 0, 67, 0
3, 876240, Note_on_c, 0, 63, 0
3, 876240, Note_on_c, 0, 63, 52
3, 876240, Note_on_c, 0, 67, 52
3, 876480, Note_on_c, 0, 67, 0
3, 876480, Note_on_c, 0, 63, 0
3, 876480, Note_on_c, 0, 67, 52
3, 876480, Note_on_c, 0, 72, 52
3, 876720, Note_on_c, 0, 72, 0
3, 876720, Note_on_c, 0, 67, 0
3, 876720, Note_on_c, 0, 67, 52
3, 876720, Note_on_c, 0, 72, 52
3, 877200, Note_on_c, 0, 72, 0
3, 877200, Note_on_c, 0, 67, 0
3, 877200, Note_on_c, 0, 67, 52
3, 877200, Note_on_c, 0, 72, 52
3, 877680, Note_on_c, 0, 72, 0
3, 877680, Note_on_c, 0, 67, 0
3, 877680, Note_on_c, 0, 67, 52
3, 877680, Note_on_c, 0, 72, 52
3, 878160, Note_on_c, 0, 72, 0
3, 878160, Note_on_c, 0, 67, 0
3, 878160, Note_on_c, 0, 67, 65
3, 878160, Note_on_c, 0, 72, 65
3, 878400, Note_on_c, 0, 72, 0
3, 878400, Note_on_c, 0, 67, 0
3, 878640, Note_on_c, 0, 72, 65
3, 879120, Note_on_c, 0, 72, 0
3, 879120, Note_on_c, 0, 72, 65
3, 879600, Note_on_c, 0, 72, 0
3, 879600, Note_on_c, 0, 72, 65
3, 880080, Note_on_c, 0, 72, 0
3, 880080, Note_on_c, 0, 72, 65
3, 880320, Note_on_c, 0, 72, 0
3, 880320, Note_on_c, 0, 69, 65
3, 880320, Note_on_c, 0, 72, 65
3, 880560, Note_on_c, 0, 72, 0
3, 880560, Note_on_c, 0, 69, 0
3, 880560, Note_on_c, 0, 69, 65
3, 880560, Note_on_c, 0, 72, 65
3, 880800, Note_on_c, 0, 72, 0
3, 880800, Note_on_c, 0, 69, 0
3, 880800, Note_on_c, 0, 67, 65
3, 880800, Note_on_c, 0, 72, 65
3, 881040, Note_on_c, 0, 72, 0
3, 881040, Note_on_c, 0, 67, 0
3, 881040, Note_on_c, 0, 67, 65
3, 881040, Note_on_c, 0, 72, 65
3, 881280, Note_on_c, 0, 72, 0
3, 881280, Note_on_c, 0, 67, 0
3, 881280, Note_on_c, 0, 65, 52
3, 881280, Note_on_c, 0, 72, 52
3, 881520, Note_on_c, 0, 72, 0
3, 881520, Note_on_c, 0, 65, 0
3, 881520, Note_on_c, 0, 65, 52
3, 881520, Note_on_c, 0, 72, 52
3, 881760, Note_on_c, 0, 72, 0
3, 881760, Note_on_c, 0, 65, 0
3, 881760, Note_on_c, 0, 65, 52
3, 882000, Note_on_c, 0, 65, 0
3, 882000, Note_on_c, 0, 65, 52
3, 882240, Note_on_c, 0, 65, 0
3, 882240, Note_on_c, 0, 65, 52
3, 882480, Note_on_c, 0, 65, 0
3, 882480, Note_on_c, 0, 65, 52
3, 882720, Note_on_c, 0, 65, 0
3, 882720, Note_on_c, 0, 64, 65
3, 882720, Note_on_c, 0, 67, 65
3, 882960, Note_on_c, 0, 67, 0
3, 882960, Note_on_c, 0, 64, 0
3, 882960, Note_on_c, 0, 64, 65
3, 882960, Note_on_c, 0, 67, 65
3, 883200, Note_on_c, 0, 67, 0
3, 883200, Note_on_c, 0, 64, 0
3, 883200, Note_on_c, 0, 69, 65
3, 883440, Note_on_c, 0, 69, 0
3, 883440, Note_on_c, 0, 69, 65
3, 883920, Note_on_c, 0, 69, 0
3, 883920, Note_on_c, 0, 69, 65
3, 884400, Note_on_c, 0, 69, 0
3, 884400, Note_on_c, 0, 69, 65
3, 884880, Note_on_c, 0, 69, 0
3, 884880, Note_on_c, 0, 69, 65
3, 885120, Note_on_c, 0, 69, 0
3, 885120, Note_on_c, 0, 70, 91
3, 885600, Note_on_c, 0, 70, 0
3, 885600, Note_on_c, 0, 69, 65
3, 886080, Note_on_c, 0, 69, 0
3, 886080, Note_on_c, 0, 68, 65
3, 886560, Note_on_c, 0, 68, 0
3, 886560, Note_on_c, 0, 69, 65
3, 887040, Note_on_c, 0, 69, 0
3, 887040, Note_on_c, 0, 69, 65
3, 887280, Note_on_c, 0, 69, 0
3, 887280, Note_on_c, 0, 69, 65
3, 887760, Note_on_c, 0, 69, 0
3, 887760, Note_on_c, 0, 69, 65
3, 888240, Note_on_c, 0, 69, 0
3, 888240, Note_on_c, 0, 69, 65
3, 888720, Note_on_c, 0, 69, 0
3, 888720, Note_on_c, 0, 69, 65
3, 888960, Note_on_c, 0, 69, 0
3, 888960, Note_on_c, 0, 70, 91
3, 889440, Note_on_c, 0, 70, 0
3, 889440, Note_on_c, 0, 69, 65
3, 889920, Note_on_c, 0, 69, 0
3, 889920, Note_on_c, 0, 68, 65
3, 890400, Note_on_c, 0, 68, 0
3, 890400, Note_on_c, 0, 69, 65
3, 890880, Note_on_c, 0, 69, 0
3, 890880, Note_on_c, 0, 69, 65
3, 891120, Note_on_c, 0, 69, 0
3, 891120, Note_on_c, 0, 69, 65
3, 891600, Note_on_c, 0, 69, 0
3, 891600, Note_on_c, 0, 69, 65
3, 891840, Note_on_c, 0, 69, 0
3, 891840, Note_on_c, 0, 65, 52
3, 891840, Note_on_c, 0, 69, 52
3, 892080, Note_on_c, 0, 69, 0
3, 892080, Note_on_c, 0, 65, 0
3, 892080, Note_on_c, 0, 65, 52
3, 892080, Note_on_c, 0, 69, 52
3, 892560, Note_on_c, 0, 69, 0
3, 892560, Note_on_c, 0, 65, 0
3, 892560, Note_on_c, 0, 65, 52
3, 892560, Note_on_c, 0, 69, 52
3, 892800, Note_on_c, 0, 69, 0
3, 892800, Note_on_c, 0, 65, 0
3, 892800, Note_on_c, 0, 62, 52
3, 892800, Note_on_c, 0, 67, 52
3, 893040, Note_on_c, 0, 67, 0
3, 893040, Note_on_c, 0, 62, 0
3, 893040, Note_on_c, 0, 62, 52
3, 893040, Note_on_c, 0, 67, 52
3, 893520, Note_on_c, 0, 67, 0
3, 893520, Note_on_c, 0, 62, 0
3, 893520, Note_on_c, 0, 62, 52
3, 893520, Note_on_c, 0, 67, 52
3, 893760, Note_on_c, 0, 67, 0
3, 893760, Note_on_c, 0, 62, 0
3, 893760, Note_on_c, 0, 57, 39
3, 893760, Note_on_c, 0, 62, 39
3, 894000, Note_on_c, 0, 62, 0
3, 894000, Note_on_c, 0, 57, 0
3, 894000, Note_on_c, 0, 57, 39
3, 894000, Note_on_c, 0, 62, 39
3, 894240, Note_on_c, 0, 62, 0
3, 894240, Note_on_c, 0, 57, 0
3, 894480, Note_on_c, 0, 62, 39
3, 894720, Note_on_c, 0, 62, 0
3, 894720, Note_on_c, 0, 53, 39
3, 894720, Note_on_c, 0, 56, 39
3, 894960, Note_on_c, 0, 56, 0
3, 894960, Note_on_c, 0, 53, 0
3, 894960, Note_on_c, 0, 53, 39
3, 894960, Note_on_c, 0, 56, 39
3, 895440, Note_on_c, 0, 56, 0
3, 895440, Note_on_c, 0, 53, 0
3, 895440, Note_on_c, 0, 53, 52
3, 895440, Note_on_c, 0, 56, 52
3, 895680, Note_on_c, 0, 56, 0
3, 895680, Note_on_c, 0, 53, 0
3, 895680, Note_on_c, 0, 53, 52
3, 895680, Note_on_c, 0, 56, 52
3, 895920, Note_on_c, 0, 56, 0
3, 895920, Note_on_c, 0, 53, 0
3, 895920, Note_on_c, 0, 53, 52
3, 895920, Note_on_c, 0, 56, 52
3, 896400, Note_on_c, 0, 56, 0
3, 896400, Note_on_c, 0, 53, 0
3, 896400, Note_on_c, 0, 53, 52
3, 896400, Note_on_c, 0, 56, 52
3, 896640, Note_on_c, 0, 56, 0
3, 896640, Note_on_c, 0, 53, 0
3, 896640, Note_on_c, 0, 55, 52
3, 896640, Note_on_c, 0, 57, 52
3, 896880, Note_on_c, 0, 57, 0
3, 896880, Note_on_c, 0, 55, 0
3, 896880, Note_on_c, 0, 55, 52
3, 896880, Note_on_c, 0, 57, 52
3, 897360, Note_on_c, 0, 57, 0
3, 897360, Note_on_c, 0, 55, 0
3, 897360, Note_on_c, 0, 55, 39
3, 897360, Note_on_c, 0, 57, 39
3, 897600, Note_on_c, 0, 57, 0
3, 897600, Note_on_c, 0, 55, 0
3, 897600, Control_c, 0, 64, 127
3, 897600, Note_on_c, 0, 38, 52
3, 897759, Note_on_c, 0, 38, 0
3, 897759, Note_on_c, 0, 45, 52
3, 897920, Note_on_c, 0, 45, 0
3, 897920, Note_on_c, 0, 49, 52
3, 898080, Note_on_c, 0, 49, 0
3, 898080, Note_on_c, 0, 50, 52
3, 898239, Note_on_c, 0, 50, 0
3, 898239, Note_on_c, 0, 52, 52
3, 898400, Note_on_c, 0, 52, 0
3, 898400, Note_on_c, 0, 53, 52
3, 898560, Note_on_c, 0, 53, 0
3, 899040, Control_c, 0, 64, 0
3, 899520, Control_c, 0, 64, 127
3, 899520, Note_on_c, 0, 46, 52
3, 899520, Note_on_c, 0, 75, 52
3, 899640, Note_on_c, 0, 75, 0
3, 899640, Note_on_c, 0, 46, 0
3, 899640, Note_on_c, 0, 72, 52
3, 899760, Note_on_c, 0, 72, 0
3, 899760, Note_on_c, 0, 67, 52
3, 899880, Note_on_c, 0, 67, 0
3, 899880, Control_c, 0, 64, 0
3, 899880, Note_on_c, 0, 63, 52
3, 900000, Note_on_c, 0, 63, 0
3, 900000, Control_c, 0, 64, 127
3, 900000, Note_on_c, 0, 71, 52
3, 900120, Note_on_c, 0, 71, 0
3, 900120, Note_on_c, 0, 67, 52
3, 900240, Note_on_c, 0, 67, 0
3, 900240, Note_on_c, 0, 63, 52
3, 900360, Note_on_c, 0, 63, 0
3, 900360, Note_on_c, 0, 62, 52
3, 900480, Note_on_c, 0, 62, 0
3, 900480, Note_on_c, 0, 60, 52
3, 900600, Note_on_c, 0, 60, 0
3, 900600, Note_on_c, 0, 55, 52
3, 900720, Note_on_c, 0, 55, 0
3, 900720, Note_on_c, 0, 51, 52
3, 900840, Note_on_c, 0, 51, 0
3, 900840, Note_on_c, 0, 48, 52
3, 900960, Note_on_c, 0, 48, 0
3, 900960, Note_on_c, 0, 46, 52
3, 901080, Note_on_c, 0, 46, 0
3, 901080, Note_on_c, 0, 67, 52
3, 901200, Note_on_c, 0, 67, 0
3, 901200, Note_on_c, 0, 63, 52
3, 901320, Note_on_c, 0, 63, 0
3, 901320, Control_c, 0, 64, 0
3, 901320, Note_on_c, 0, 60, 52
3, 901440, Note_on_c, 0, 60, 0
3, 901440, Control_c, 0, 64, 127
3, 901440, Note_on_c, 0, 45, 52
3, 901440, Note_on_c, 0, 79, 52
3, 901560, Note_on_c, 0, 79, 0
3, 901560, Note_on_c, 0, 45, 0
3, 901560, Note_on_c, 0, 75, 52
3, 901680, Note_on_c, 0, 75, 0
3, 901680, Note_on_c, 0, 72, 52
3, 901800, Note_on_c, 0, 72, 0
3, 901800, Control_c, 0, 64, 0
3, 901800, Note_on_c, 0, 67, 52
3, 901920, Note_on_c, 0, 67, 0
3, 901920, Control_c, 0, 64, 127
3, 901920, Note_on_c, 0, 74, 52
3, 902040, Note_on_c, 0, 74, 0
3, 902040, Note_on_c, 0, 72, 52
3, 902160, Note_on_c, 0, 72, 0
3, 902160, Note_on_c, 0, 67, 52
3, 902280, Note_on_c, 0, 67, 0
3, 902280, Note_on_c, 0, 63, 52
3, 902400, Note_on_c, 0, 63, 0
3, 902400, Note_on_c, 0, 60, 52
3, 902520, Note_on_c, 0, 60, 0
3, 902520, Note_on_c, 0, 55, 52
3, 902640, Note_on_c, 0, 55, 0
3, 902640, Note_on_c, 0, 51, 52
3, 902760, Note_on_c, 0, 51, 0
3, 902760, Note_on_c, 0, 48, 52
3, 902880, Note_on_c, 0, 48, 0
3, 902880, Note_on_c, 0, 45, 52
3, 903000, Note_on_c, 0, 45, 0
3, 903000, Note_on_c, 0, 72, 52
3, 903120, Note_on_c, 0, 72, 0
3, 903120, Note_on_c, 0, 67, 52
3, 903240, Note_on_c, 0, 67, 0
3, 903240, Control_c, 0, 64, 0
3, 903240, Note_on_c, 0, 63, 52
3, 903360, Note_on_c, 0, 63, 0
3, 903360, Control_c, 0, 64, 127
3, 903360, Note_on_c, 0, 43, 52
3, 903480, Note_on_c, 0, 43, 0
3, 903480, Note_on_c, 0, 75, 52
3, 903600, Note_on_c, 0, 75, 0
3, 903600, Note_on_c, 0, 72, 52
3, 903720, Note_on_c, 0, 72, 0
3, 903720, Note_on_c, 0, 70, 52
3, 903840, Note_on_c, 0, 70, 0
3, 903960, Note_on_c, 0, 67, 52
3, 904080, Note_on_c, 0, 67, 0
3, 904080, Note_on_c, 0, 63, 52
3, 904200, Note_on_c, 0, 63, 0
3, 904200, Control_c, 0, 64, 0
3, 904200, Note_on_c, 0, 60, 52
3, 904320, Note_on_c, 0, 60, 0
3, 904320, Control_c, 0, 64, 127
3, 904320, Note_on_c, 0, 54, 52
3, 904440, Note_on_c, 0, 54, 0
3, 904440, Note_on_c, 0, 75, 52
3, 904560, Note_on_c, 0, 75, 0
3, 904560, Note_on_c, 0, 72, 52
3, 904680, Note_on_c, 0, 72, 0
3, 904680, Note_on_c, 0, 70, 52
3, 904800, Note_on_c, 0, 70, 0
3, 904920, Note_on_c, 0, 66, 52
3, 905040, Note_on_c, 0, 66, 0
3, 905040, Note_on_c, 0, 63, 52
3, 905160, Note_on_c, 0, 63, 0
3, 905160, Control_c, 0, 64, 0
3, 905160, Note_on_c, 0, 60, 52
3, 905280, Note_on_c, 0, 60, 0
3, 905280, Control_c, 0, 64, 127
3, 905280, Note_on_c, 0, 53, 52
3, 905400, Note_on_c, 0, 53, 0
3, 905400, Note_on_c, 0, 75, 52
3, 905520, Note_on_c, 0, 75, 0
3, 905520, Note_on_c, 0, 60, 52
3, 905520, Note_on_c, 0, 72, 52
3, 905640, Note_on_c, 0, 72, 0
3, 905640, Note_on_c, 0, 60, 0
3, 905640, Control_c, 0, 64, 0
3, 905640, Note_on_c, 0, 65, 52
3, 905640, Note_on_c, 0, 69, 52
3, 905760, Note_on_c, 0, 69, 0
3, 905760, Note_on_c, 0, 65, 0
3, 905760, Control_c, 0, 64, 127
3, 905760, Note_on_c, 0, 55, 52
3, 905880, Note_on_c, 0, 55, 0
3, 905880, Note_on_c, 0, 75, 52
3, 906000, Note_on_c, 0, 75, 0
3, 906000, Note_on_c, 0, 60, 52
3, 906000, Note_on_c, 0, 72, 52
3, 906120, Note_on_c, 0, 72, 0
3, 906120, Note_on_c, 0, 60, 0
3, 906120, Control_c, 0, 64, 0
3, 906120, Note_on_c, 0, 63, 52
3, 906120, Note_on_c, 0, 67, 52
3, 906240, Note_on_c, 0, 67, 0
3, 906240, Note_on_c, 0, 63, 0
3, 906240, Control_c, 0, 64, 127
3, 906240, Note_on_c, 0, 56, 52
3, 906360, Note_on_c, 0, 56, 0
3, 906360, Note_on_c, 0, 71, 52
3, 906480, Note_on_c, 0, 71, 0
3, 906480, Note_on_c, 0, 59, 52
3, 906480, Note_on_c, 0, 68, 52
3, 906600, Note_on_c, 0, 68, 0
3, 906600, Note_on_c, 0, 59, 0
3, 906600, Control_c, 0, 64, 0
3, 906600, Note_on_c, 0, 62, 52
3, 906600, Note_on_c, 0, 65, 52
3, 906720, Note_on_c, 0, 62, 0
3, 906720, Control_c, 0, 64, 127
3, 906720, Note_on_c, 0, 45, 52
3, 906840, Note_on_c, 0, 45, 0
3, 906840, Note_on_c, 0, 65, 0
3, 906840, Note_on_c, 0, 64, 52
3, 906960, Note_on_c, 0, 64, 0
3, 906960, Note_on_c, 0, 53, 52
3, 906960, Note_on_c, 0, 63, 52
3, 907080, Note_on_c, 0, 63, 0
3, 907080, Note_on_c, 0, 53, 0
3, 907080, Control_c, 0, 64, 0
3, 907080, Note_on_c, 0, 60, 52
3, 907200, Note_on_c, 0, 60, 0
3, 907200, Control_c, 0, 64, 127
3, 907200, Note_on_c, 0, 46, 52
3, 907320, Note_on_c, 0, 46, 0
3, 907320, Note_on_c, 0, 53, 52
3, 907440, Note_on_c, 0, 53, 0
3, 907440, Note_on_c, 0, 58, 52
3, 907560, Note_on_c, 0, 58, 0
3, 907560, Note_on_c, 0, 65, 52
3, 907680, Note_on_c, 0, 65, 0
3, 907800, Note_on_c, 0, 62, 52
3, 907920, Note_on_c, 0, 62, 0
3, 907920, Note_on_c, 0, 65, 52
3, 908040, Note_on_c, 0, 65, 0
3, 908040, Control_c, 0, 64, 0
3, 908040, Note_on_c, 0, 70, 52
3, 908160, Note_on_c, 0, 70, 0
3, 908160, Control_c, 0, 64, 127
3, 908160, Note_on_c, 0, 51, 52
3, 908280, Note_on_c, 0, 51, 0
3, 908280, Note_on_c, 0, 55, 52
3, 908400, Note_on_c, 0, 55, 0
3, 908400, Note_on_c, 0, 59, 52
3, 908520, Note_on_c, 0, 59, 0
3, 908520, Note_on_c, 0, 62, 52
3, 908640, Note_on_c, 0, 62, 0
3, 908640, Note_on_c, 0, 63, 52
3, 908760, Note_on_c, 0, 63, 0
3, 908760, Note_on_c, 0, 67, 52
3, 908880, Note_on_c, 0, 67, 0
3, 908880, Note_on_c, 0, 71, 52
3, 909000, Note_on_c, 0, 71, 0
3, 909000, Note_on_c, 0, 75, 52
3, 909120, Note_on_c, 0, 75, 0
3, 909120, Note_on_c, 0, 79, 52
3, 909240, Note_on_c, 0, 79, 0
3, 909240, Note_on_c, 0, 75, 52
3, 909360, Note_on_c, 0, 75, 0
3, 909360, Note_on_c, 0, 71, 52
3, 909480, Note_on_c, 0, 71, 0
3, 909480, Control_c, 0, 64, 0
3, 909480, Note_on_c, 0, 67, 52
3, 909600, Note_on_c, 0, 67, 0
3, 909600, Control_c, 0, 64, 127
3, 909600, Note_on_c, 0, 55, 52
3, 909600, Note_on_c, 0, 59, 52
3, 909600, Note_on_c, 0, 62, 52
3, 909720, Note_on_c, 0, 62, 0
3, 909720, Note_on_c, 0, 59, 0
3, 909720, Note_on_c, 0, 55, 0
3, 909720, Note_on_c, 0, 71, 52
3, 909840, Note_on_c, 0, 71, 0
3, 909840, Note_on_c, 0, 67, 52
3, 909960, Note_on_c, 0, 67, 0
3, 909960, Control_c, 0, 64, 0
3, 909960, Note_on_c, 0, 62, 52
3, 910080, Note_on_c, 0, 62, 0
3, 910080, Control_c, 0, 64, 127
3, 910080, Note_on_c, 0, 51, 52
3, 910080, Note_on_c, 0, 55, 52
3, 910080, Note_on_c, 0, 60, 52
3, 910200, Note_on_c, 0, 60, 0
3, 910200, Note_on_c, 0, 55, 0
3, 910200, Note_on_c, 0, 51, 0
3, 910200, Note_on_c, 0, 75, 52
3, 910320, Note_on_c, 0, 75, 0
3, 910320, Note_on_c, 0, 72, 52
3, 910440, Note_on_c, 0, 72, 0
3, 910440, Control_c, 0, 64, 0
3, 910440, Note_on_c, 0, 67, 52
3, 910560, Note_on_c, 0, 67, 0
3, 910560, Control_c, 0, 64, 127
3, 910560, Note_on_c, 0, 51, 52
3, 910680, Note_on_c, 0, 51, 0
3, 910680, Note_on_c, 0, 67, 52
3, 910800, Note_on_c, 0, 67, 0
3, 910800, Note_on_c, 0, 60, 52
3, 910920, Note_on_c, 0, 60, 0
3, 910920, Control_c, 0, 64, 0
3, 910920, Note_on_c, 0, 57, 52
3, 911040, Note_on_c, 0, 57, 0
3, 911040, Control_c, 0, 64, 127
3, 911040, Note_on_c, 0, 50, 52
3, 911160, Note_on_c, 0, 50, 0
3, 911160, Note_on_c, 0, 70, 52
3, 911280, Note_on_c, 0, 70, 0
3, 911280, Note_on_c, 0, 66, 52
3, 911400, Note_on_c, 0, 66, 0
3, 911400, Control_c, 0, 64, 0
3, 911400, Note_on_c, 0, 62, 52
3, 911520, Note_on_c, 0, 62, 0
3, 911520, Control_c, 0, 64, 127
3, 911520, Note_on_c, 0, 52, 52
3, 911640, Note_on_c, 0, 52, 0
3, 911640, Note_on_c, 0, 66, 52
3, 911760, Note_on_c, 0, 66, 0
3, 911760, Note_on_c, 0, 62, 52
3, 911880, Note_on_c, 0, 62, 0
3, 911880, Control_c, 0, 64, 0
3, 911880, Note_on_c, 0, 60, 52
3, 912000, Note_on_c, 0, 60, 0
3, 912000, Control_c, 0, 64, 127
3, 912000, Note_on_c, 0, 43, 52
3, 912000, Note_on_c, 0, 50, 52
3, 912000, Note_on_c, 0, 57, 52
3, 912120, Note_on_c, 0, 57, 0
3, 912120, Note_on_c, 0, 50, 0
3, 912120, Note_on_c, 0, 43, 0
3, 912120, Note_on_c, 0, 62, 52
3, 912240, Note_on_c, 0, 62, 0
3, 912240, Note_on_c, 0, 60, 52
3, 912360, Note_on_c, 0, 60, 0
3, 912360, Note_on_c, 0, 54, 52
3, 912480, Note_on_c, 0, 54, 0
3, 912480, Note_on_c, 0, 58, 52
3, 912600, Note_on_c, 0, 58, 0
3, 912600, Note_on_c, 0, 62, 52
3, 912720, Note_on_c, 0, 62, 0
3, 912720, Note_on_c, 0, 67, 52
3, 912840, Note_on_c, 0, 67, 0
3, 912840, Control_c, 0, 64, 0
3, 912840, Note_on_c, 0, 70, 52
3, 912960, Note_on_c, 0, 70, 0
3, 912960, Control_c, 0, 64, 127
3, 912960, Note_on_c, 0, 41, 52
3, 913080, Note_on_c, 0, 41, 0
3, 913080, Note_on_c, 0, 50, 52
3, 913200, Note_on_c, 0, 50, 0
3, 913200, Note_on_c, 0, 53, 52
3, 913320, Note_on_c, 0, 53, 0
3, 913320, Note_on_c, 0, 56, 52
3, 913440, Note_on_c, 0, 56, 0
3, 913440, Note_on_c, 0, 59, 52
3, 913560, Note_on_c, 0, 59, 0
3, 913560, Note_on_c, 0, 62, 52
3, 913680, Note_on_c, 0, 62, 0
3, 913680, Note_on_c, 0, 64, 52
3, 913800, Note_on_c, 0, 64, 0
3, 913800, Note_on_c, 0, 65, 52
3, 913920, Note_on_c, 0, 65, 0
3, 913920, Note_on_c, 0, 68, 52
3, 914040, Note_on_c, 0, 68, 0
3, 914040, Note_on_c, 0, 65, 52
3, 914160, Note_on_c, 0, 65, 0
3, 914160, Note_on_c, 0, 64, 52
3, 914280, Note_on_c, 0, 64, 0
3, 914280, Note_on_c, 0, 62, 52
3, 914400, Note_on_c, 0, 62, 0
3, 914400, Control_c, 0, 64, 0
3, 914400, Note_on_c, 0, 53, 52
3, 914400, Note_on_c, 0, 57, 52
3, 914400, Note_on_c, 0, 63, 52
3, 914520, Note_on_c, 0, 63, 0
3, 914520, Note_on_c, 0, 57, 0
3, 914520, Note_on_c, 0, 53, 0
3, 914520, Note_on_c, 0, 60, 52
3, 914640, Note_on_c, 0, 60, 0
3, 914640, Note_on_c, 0, 64, 52
3, 914760, Note_on_c, 0, 64, 0
3, 914760, Note_on_c, 0, 65, 52
3, 914880, Note_on_c, 0, 65, 0
3, 914880, Control_c, 0, 64, 127
3, 914880, Note_on_c, 0, 46, 52
3, 914880, Note_on_c, 0, 75, 52
3, 915000, Note_on_c, 0, 75, 0
3, 915000, Note_on_c, 0, 46, 0
3, 915000, Note_on_c, 0, 72, 52
3, 915120, Note_on_c, 0, 72, 0
3, 915120, Note_on_c, 0, 67, 52
3, 915240, Note_on_c, 0, 67, 0
3, 915240, Control_c, 0, 64, 0
3, 915240, Note_on_c, 0, 63, 52
3, 915360, Note_on_c, 0, 63, 0
3, 915360, Control_c, 0, 64, 127
3, 915360, Note_on_c, 0, 71, 52
3, 915480, Note_on_c, 0, 71, 0
3, 915480, Note_on_c, 0, 67, 52
3, 915600, Note_on_c, 0, 67, 0
3, 915600, Note_on_c, 0, 63, 52
3, 915720, Note_on_c, 0, 63, 0
3, 915720, Note_on_c, 0, 62, 52
3, 915840, Note_on_c, 0, 62, 0
3, 915840, Note_on_c, 0, 60, 52
3, 915960, Note_on_c, 0, 60, 0
3, 915960, Note_on_c, 0, 55, 52
3, 916080, Note_on_c, 0, 55, 0
3, 916080, Note_on_c, 0, 51, 52
3, 916200, Note_on_c, 0, 51, 0
3, 916200, Note_on_c, 0, 48, 52
3, 916320, Note_on_c, 0, 48, 0
3, 916320, Note_on_c, 0, 46, 52
3, 916440, Note_on_c, 0, 46, 0
3, 916440, Note_on_c, 0, 67, 52
3, 916560, Note_on_c, 0, 67, 0
3, 916560, Note_on_c, 0, 63, 52
3, 916680, Note_on_c, 0, 63, 0
3, 916680, Control_c, 0, 64, 0
3, 916680, Note_on_c, 0, 60, 52
3, 916800, Note_on_c, 0, 60, 0
3, 916800, Control_c, 0, 64, 127
3, 916800, Note_on_c, 0, 45, 52
3, 916800, Note_on_c, 0, 79, 52
3, 916920, Note_on_c, 0, 79, 0
3, 916920, Note_on_c, 0, 45, 0
3, 916920, Note_on_c, 0, 75, 52
3, 917040, Note_on_c, 0, 75, 0
3, 917040, Note_on_c, 0, 72, 52
3, 917160, Note_on_c, 0, 72, 0
3, 917160, Control_c, 0, 64, 0
3, 917160, Note_on_c, 0, 67, 52
3, 917280, Note_on_c, 0, 67, 0
3, 917280, Control_c, 0, 64, 127
3, 917280, Note_on_c, 0, 74, 52
3, 917400, Note_on_c, 0, 74, 0
3, 917400, Note_on_c, 0, 72, 52
3, 917520, Note_on_c, 0, 72, 0
3, 917520, Note_on_c, 0, 67, 52
3, 917640, Note_on_c, 0, 67, 0
3, 917640, Note_on_c, 0, 63, 52
3, 917760, Note_on_c, 0, 63, 0
3, 917760, Note_on_c, 0, 60, 52
3, 917880, Note_on_c, 0, 60, 0
3, 917880, Note_on_c, 0, 55, 52
3, 918000, Note_on_c, 0, 55, 0
3, 918000, Note_on_c, 0, 51, 52
3, 918120, Note_on_c, 0, 51, 0
3, 918120, Note_on_c, 0, 48, 52
3, 918240, Note_on_c, 0, 48, 0
3, 918240, Note_on_c, 0, 45, 52
3, 918360, Note_on_c, 0, 45, 0
3, 918360, Note_on_c, 0, 72, 52
3, 918480, Note_on_c, 0, 72, 0
3, 918480, Note_on_c, 0, 67, 52
3, 918600, Note_on_c, 0, 67, 0
3, 918600, Control_c, 0, 64, 0
3, 918600, Note_on_c, 0, 63, 52
3, 918720, Note_on_c, 0, 63, 0
3, 918720, Control_c, 0, 64, 127
3, 918720, Note_on_c, 0, 43, 52
3, 918960, Note_on_c, 0, 43, 0
3, 918960, Note_on_c, 0, 75, 52
3, 919080, Note_on_c, 0, 75, 0
3, 919080, Note_on_c, 0, 72, 52
3, 919200, Note_on_c, 0, 72, 0
3, 919200, Control_c, 0, 64, 0
3, 919320, Note_on_c, 0, 67, 52
3, 919440, Note_on_c, 0, 67, 0
3, 919440, Note_on_c, 0, 63, 52
3, 919560, Note_on_c, 0, 63, 0
3, 919560, Note_on_c, 0, 60, 52
3, 919680, Note_on_c, 0, 60, 0
3, 919680, Control_c, 0, 64, 127
3, 919680, Note_on_c, 0, 42, 52
3, 919680, Note_on_c, 0, 54, 52
3, 919920, Note_on_c, 0, 54, 0
3, 919920, Note_on_c, 0, 42, 0
3, 919920, Note_on_c, 0, 81, 52
3, 920040, Note_on_c, 0, 81, 0
3, 920040, Note_on_c, 0, 74, 52
3, 920160, Note_on_c, 0, 74, 0
3, 920280, Note_on_c, 0, 62, 52
3, 920400, Note_on_c, 0, 62, 0
3, 920400, Note_on_c, 0, 57, 52
3, 920520, Note_on_c, 0, 57, 0
3, 920520, Control_c, 0, 64, 0
3, 920520, Note_on_c, 0, 54, 52
3, 920640, Note_on_c, 0, 54, 0
3, 920640, Control_c, 0, 64, 127
3, 920640, Note_on_c, 0, 55, 52
3, 920760, Note_on_c, 0, 55, 0
3, 920760, Note_on_c, 0, 79, 52
3, 920880, Note_on_c, 0, 79, 0
3, 920880, Note_on_c, 0, 43, 52
3, 920880, Note_on_c, 0, 50, 52
3, 920880, Note_on_c, 0, 74, 52
3, 921000, Note_on_c, 0, 74, 0
3, 921000, Note_on_c, 0, 50, 0
3, 921000, Note_on_c, 0, 43, 0
3, 921000, Control_c, 0, 64, 0
3, 921000, Note_on_c, 0, 70, 52
3, 921120, Note_on_c, 0, 70, 0
3, 921120, Control_c, 0, 64, 127
3, 921120, Note_on_c, 0, 57, 52
3, 921240, Note_on_c, 0, 57, 0
3, 921240, Note_on_c, 0, 74, 52
3, 921360, Note_on_c, 0, 74, 0
3, 921360, Note_on_c, 0, 45, 52
3, 921360, Note_on_c, 0, 50, 52
3, 921360, Note_on_c, 0, 69, 52
3, 921480, Note_on_c, 0, 69, 0
3, 921480, Note_on_c, 0, 50, 0
3, 921480, Note_on_c, 0, 45, 0
3, 921480, Control_c, 0, 64, 0
3, 921480, Note_on_c, 0, 66, 52
3, 921600, Note_on_c, 0, 66, 0
3, 921600, Control_c, 0, 64, 127
3, 921600, Note_on_c, 0, 58, 52
3, 921720, Note_on_c, 0, 58, 0
3, 921720, Note_on_c, 0, 75, 52
3, 921840, Note_on_c, 0, 75, 0
3, 921840, Note_on_c, 0, 46, 52
3, 921840, Note_on_c, 0, 50, 52
3, 921840, Note_on_c, 0, 74, 52
3, 921960, Note_on_c, 0, 74, 0
3, 921960, Note_on_c, 0, 50, 0
3, 921960, Note_on_c, 0, 46, 0
3, 921960, Control_c, 0, 64, 0
3, 921960, Note_on_c, 0, 67, 52
3, 922080, Note_on_c, 0, 67, 0
3, 922080, Control_c, 0, 64, 127
3, 922080, Note_on_c, 0, 59, 52
3, 922200, Note_on_c, 0, 59, 0
3, 922200, Note_on_c, 0, 68, 52
3, 922320, Note_on_c, 0, 68, 0
3, 922320, Note_on_c, 0, 47, 52
3, 922320, Note_on_c, 0, 50, 52
3, 922320, Note_on_c, 0, 67, 52
3, 922440, Note_on_c, 0, 67, 0
3, 922440, Note_on_c, 0, 50, 0
3, 922440, Note_on_c, 0, 47, 0
3, 922440, Control_c, 0, 64, 0
3, 922440, Note_on_c, 0, 62, 52
3, 922560, Note_on_c, 0, 62, 0
3, 922560, Control_c, 0, 64, 127
3, 922560, Note_on_c, 0, 48, 52
3, 922680, Note_on_c, 0, 48, 0
3, 922680, Note_on_c, 0, 51, 52
3, 922800, Note_on_c, 0, 51, 0
3, 922800, Note_on_c, 0, 55, 52
3, 922920, Note_on_c, 0, 55, 0
3, 922920, Note_on_c, 0, 60, 52
3, 923040, Note_on_c, 0, 60, 0
3, 923040, Note_on_c, 0, 63, 52
3, 923160, Note_on_c, 0, 63, 0
3, 923160, Note_on_c, 0, 67, 52
3, 923280, Note_on_c, 0, 67, 0
3, 923280, Note_on_c, 0, 72, 52
3, 923400, Note_on_c, 0, 72, 0
3, 923400, Control_c, 0, 64, 0
3, 923400, Note_on_c, 0, 75, 52
3, 923520, Note_on_c, 0, 75, 0
3, 923520, Control_c, 0, 64, 127
3, 923520, Note_on_c, 0, 46, 52
3, 923640, Note_on_c, 0, 46, 0
3, 923640, Note_on_c, 0, 48, 52
3, 923760, Note_on_c, 0, 48, 0
3, 923760, Note_on_c, 0, 51, 52
3, 923880, Note_on_c, 0, 51, 0
3, 923880, Note_on_c, 0, 58, 52
3, 924000, Note_on_c, 0, 58, 0
3, 924000, Note_on_c, 0, 60, 52
3, 924000, Note_on_c, 0, 63, 52
3, 924000, Note_on_c, 0, 67, 52
3, 924120, Note_on_c, 0, 67, 0
3, 924120, Note_on_c, 0, 63, 0
3, 924120, Note_on_c, 0, 60, 0
3, 924120, Note_on_c, 0, 72, 52
3, 924240, Note_on_c, 0, 72, 0
3, 924240, Note_on_c, 0, 75, 52
3, 924360, Note_on_c, 0, 75, 0
3, 924360, Control_c, 0, 64, 0
3, 924360, Note_on_c, 0, 79, 52
3, 924480, Note_on_c, 0, 79, 0
3, 924480, Control_c, 0, 64, 127
3, 924480, Note_on_c, 0, 45, 52
3, 924600, Note_on_c, 0, 45, 0
3, 924600, Note_on_c, 0, 48, 52
3, 924720, Note_on_c, 0, 48, 0
3, 924720, Note_on_c, 0, 53, 52
3, 924840, Note_on_c, 0, 53, 0
3, 924840, Note_on_c, 0, 57, 52
3, 924960, Note_on_c, 0, 57, 0
3, 924960, Note_on_c, 0, 60, 52
3, 925080, Note_on_c, 0, 60, 0
3, 925080, Note_on_c, 0, 65, 52
3, 925200, Note_on_c, 0, 65, 0
3, 925200, Note_on_c, 0, 69, 52
3, 925320, Note_on_c, 0, 69, 0
3, 925320, Control_c, 0, 64, 0
3, 925440, Note_on_c, 0, 77, 52
3, 925560, Note_on_c, 0, 77, 0
3, 925560, Note_on_c, 0, 73, 52
3, 925680, Note_on_c, 0, 73, 0
3, 925680, Note_on_c, 0, 69, 52
3, 925800, Note_on_c, 0, 69, 0
3, 925800, Note_on_c, 0, 65, 52
3, 925920, Note_on_c, 0, 65, 0
3, 925920, Note_on_c, 0, 65, 52
3, 926040, Note_on_c, 0, 65, 0
3, 926040, Note_on_c, 0, 61, 52
3, 926160, Note_on_c, 0, 61, 0
3, 926160, Note_on_c, 0, 57, 52
3, 926280, Note_on_c, 0, 57, 0
3, 926280, Control_c, 0, 64, 0
3, 926280, Note_on_c, 0, 53, 52
3, 926400, Note_on_c, 0, 53, 0
3, 926400, Control_c, 0, 64, 127
3, 926400, Note_on_c, 0, 46, 52
3, 926520, Note_on_c, 0, 46, 0
3, 926520, Note_on_c, 0, 50, 52
3, 926640, Note_on_c, 0, 50, 0
3, 926640, Note_on_c, 0, 53, 52
3, 926760, Note_on_c, 0, 53, 0
3, 926760, Note_on_c, 0, 58, 52
3, 926880, Note_on_c, 0, 58, 0
3, 926880, Note_on_c, 0, 62, 52
3, 927000, Note_on_c, 0, 62, 0
3, 927000, Note_on_c, 0, 70, 52
3, 927120, Note_on_c, 0, 70, 0
3, 927120, Note_on_c, 0, 74, 52
3, 927240, Note_on_c, 0, 74, 0
3, 927240, Control_c, 0, 64, 0
3, 927240, Note_on_c, 0, 77, 52
3, 927360, Note_on_c, 0, 77, 0
3, 927360, Control_c, 0, 64, 127
3, 927360, Note_on_c, 0, 47, 52
3, 927480, Note_on_c, 0, 47, 0
3, 927480, Note_on_c, 0, 50, 52
3, 927600, Note_on_c, 0, 50, 0
3, 927600, Note_on_c, 0, 55, 52
3, 927720, Note_on_c, 0, 55, 0
3, 927720, Note_on_c, 0, 59, 52
3, 927840, Note_on_c, 0, 59, 0
3, 927840, Note_on_c, 0, 62, 52
3, 927840, Note_on_c, 0, 65, 52
3, 927960, Note_on_c, 0, 65, 0
3, 927960, Note_on_c, 0, 62, 0
3, 927960, Note_on_c, 0, 74, 52
3, 928080, Note_on_c, 0, 74, 0
3, 928080, Note_on_c, 0, 77, 52
3, 928200, Note_on_c, 0, 77, 0
3, 928200, Control_c, 0, 64, 0
3, 928200, Note_on_c, 0, 79, 52
3, 928320, Note_on_c, 0, 79, 0
3, 928320, Control_c, 0, 64, 127
3, 928320, Note_on_c, 0, 48, 52
3, 928440, Note_on_c, 0, 48, 0
3, 928440, Note_on_c, 0, 51, 52
3, 928560, Note_on_c, 0, 51, 0
3, 928560, Note_on_c, 0, 53, 52
3, 928680, Note_on_c, 0, 53, 0
3, 928680, Note_on_c, 0, 57, 52
3, 928800, Note_on_c, 0, 57, 0
3, 928800, Note_on_c, 0, 60, 52
3, 928920, Note_on_c, 0, 60, 0
3, 928920, Note_on_c, 0, 65, 52
3, 929040, Note_on_c, 0, 65, 0
3, 929040, Note_on_c, 0, 69, 52
3, 929160, Note_on_c, 0, 69, 0
3, 929160, Control_c, 0, 64, 0
3, 929280, Note_on_c, 0, 77, 52
3, 929400, Note_on_c, 0, 77, 0
3, 929400, Note_on_c, 0, 73, 52
3, 929520, Note_on_c, 0, 73, 0
3, 929520, Note_on_c, 0, 69, 52
3, 929640, Note_on_c, 0, 69, 0
3, 929640, Note_on_c, 0, 65, 52
3, 929760, Note_on_c, 0, 65, 0
3, 929760, Note_on_c, 0, 65, 52
3, 929880, Note_on_c, 0, 65, 0
3, 929880, Note_on_c, 0, 61, 52
3, 930000, Note_on_c, 0, 61, 0
3, 930000, Note_on_c, 0, 57, 52
3, 930120, Note_on_c, 0, 57, 0
3, 930120, Control_c, 0, 64, 0
3, 930120, Note_on_c, 0, 53, 52
3, 930240, Note_on_c, 0, 53, 0
3, 930240, Control_c, 0, 64, 127
3, 930240, Note_on_c, 0, 46, 52
3, 930360, Note_on_c, 0, 46, 0
3, 930360, Note_on_c, 0, 53, 52
3, 930480, Note_on_c, 0, 53, 0
3, 930480, Note_on_c, 0, 58, 52
3, 930600, Note_on_c, 0, 58, 0
3, 930600, Note_on_c, 0, 62, 52
3, 930720, Note_on_c, 0, 62, 0
3, 930840, Note_on_c, 0, 74, 52
3, 930960, Note_on_c, 0, 74, 0
3, 930960, Note_on_c, 0, 70, 52
3, 931080, Note_on_c, 0, 70, 0
3, 931080, Control_c, 0, 64, 0
3, 931080, Note_on_c, 0, 65, 52
3, 931200, Note_on_c, 0, 65, 0
3, 931200, Control_c, 0, 64, 127
3, 931200, Note_on_c, 0, 47, 52
3, 931320, Note_on_c, 0, 47, 0
3, 931320, Note_on_c, 0, 53, 52
3, 931440, Note_on_c, 0, 53, 0
3, 931440, Note_on_c, 0, 55, 52
3, 931560, Note_on_c, 0, 55, 0
3, 931560, Note_on_c, 0, 62, 52
3, 931680, Note_on_c, 0, 62, 0
3, 931800, Note_on_c, 0, 77, 52
3, 931920, Note_on_c, 0, 77, 0
3, 931920, Note_on_c, 0, 74, 52
3, 932040, Note_on_c, 0, 74, 0
3, 932040, Control_c, 0, 64, 0
3, 932040, Note_on_c, 0, 67, 52
3, 932160, Note_on_c, 0, 67, 0
3, 932160, Control_c, 0, 64, 127
3, 932160, Note_on_c, 0, 48, 52
3, 932280, Note_on_c, 0, 48, 0
3, 932280, Note_on_c, 0, 55, 52
3, 932400, Note_on_c, 0, 55, 0
3, 932400, Note_on_c, 0, 60, 52
3, 932520, Note_on_c, 0, 60, 0
3, 932520, Note_on_c, 0, 64, 52
3, 932640, Note_on_c, 0, 64, 0
3, 932760, Note_on_c, 0, 76, 52
3, 932880, Note_on_c, 0, 76, 0
3, 932880, Note_on_c, 0, 72, 52
3, 933000, Note_on_c, 0, 72, 0
3, 933000, Control_c, 0, 64, 0
3, 933000, Note_on_c, 0, 67, 52
3, 933120, Note_on_c, 0, 67, 0
3, 933120, Control_c, 0, 64, 127
3, 933120, Note_on_c, 0, 49, 52
3, 933240, Note_on_c, 0, 49, 0
3, 933240, Note_on_c, 0, 55, 52
3, 933360, Note_on_c, 0, 55, 0
3, 933360, Note_on_c, 0, 57, 52
3, 933480, Note_on_c, 0, 57, 0
3, 933480, Note_on_c, 0, 64, 52
3, 933600, Note_on_c, 0, 64, 0
3, 933720, Note_on_c, 0, 79, 52
3, 933840, Note_on_c, 0, 79, 0
3, 933840, Note_on_c, 0, 76, 52
3, 933960, Note_on_c, 0, 76, 0
3, 933960, Control_c, 0, 64, 0
3, 933960, Note_on_c, 0, 69, 52
3, 934080, Note_on_c, 0, 69, 0
3, 934080, Control_c, 0, 64, 127
3, 934080, Note_on_c, 0, 50, 52
3, 934200, Note_on_c, 0, 50, 0
3, 934200, Note_on_c, 0, 57, 52
3, 934320, Note_on_c, 0, 57, 0
3, 934320, Note_on_c, 0, 62, 52
3, 934440, Note_on_c, 0, 62, 0
3, 934440, Note_on_c, 0, 65, 52
3, 934560, Note_on_c, 0, 65, 0
3, 934680, Note_on_c, 0, 77, 52
3, 934800, Note_on_c, 0, 77, 0
3, 934800, Note_on_c, 0, 74, 52
3, 934920, Note_on_c, 0, 74, 0
3, 934920, Control_c, 0, 64, 0
3, 934920, Note_on_c, 0, 69, 52
3, 935040, Note_on_c, 0, 69, 0
3, 935040, Control_c, 0, 64, 127
3, 935040, Note_on_c, 0, 50, 52
3, 935160, Note_on_c, 0, 50, 0
3, 935160, Note_on_c, 0, 56, 52
3, 935280, Note_on_c, 0, 56, 0
3, 935280, Note_on_c, 0, 58, 52
3, 935400, Note_on_c, 0, 58, 0
3, 935400, Note_on_c, 0, 65, 52
3, 935520, Note_on_c, 0, 65, 0
3, 935640, Note_on_c, 0, 80, 52
3, 935760, Note_on_c, 0, 80, 0
3, 935760, Note_on_c, 0, 77, 52
3, 935880, Note_on_c, 0, 77, 0
3, 935880, Control_c, 0, 64, 0
3, 935880, Note_on_c, 0, 70, 52
3, 936000, Note_on_c, 0, 70, 0
3, 936000, Control_c, 0, 64, 127
3, 936000, Note_on_c, 0, 51, 52
3, 936120, Note_on_c, 0, 51, 0
3, 936120, Note_on_c, 0, 58, 52
3, 936240, Note_on_c, 0, 58, 0
3, 936240, Note_on_c, 0, 63, 52
3, 936360, Note_on_c, 0, 63, 0
3, 936360, Note_on_c, 0, 67, 52
3, 936480, Note_on_c, 0, 67, 0
3, 936600, Note_on_c, 0, 79, 52
3, 936720, Note_on_c, 0, 79, 0
3, 936720, Note_on_c, 0, 75, 52
3, 936840, Note_on_c, 0, 75, 0
3, 936840, Control_c, 0, 64, 0
3, 936840, Note_on_c, 0, 70, 52
3, 936960, Note_on_c, 0, 70, 0
3, 936960, Control_c, 0, 64, 127
3, 936960, Note_on_c, 0, 52, 52
3, 937080, Note_on_c, 0, 52, 0
3, 937080, Note_on_c, 0, 58, 52
3, 937200, Note_on_c, 0, 58, 0
3, 937200, Note_on_c, 0, 60, 52
3, 937320, Note_on_c, 0, 60, 0
3, 937320, Note_on_c, 0, 67, 52
3, 937440, Note_on_c, 0, 67, 0
3, 937560, Note_on_c, 0, 82, 52
3, 937680, Note_on_c, 0, 82, 0
3, 937680, Note_on_c, 0, 79, 52
3, 937800, Note_on_c, 0, 79, 0
3, 937800, Control_c, 0, 64, 0
3, 937800, Note_on_c, 0, 72, 52
3, 937920, Note_on_c, 0, 72, 0
3, 939840, Control_c, 0, 64, 127
3, 939840, Note_on_c, 0, 53, 52
3, 939840, Note_on_c, 0, 65, 52
3, 940080, Note_on_c, 0, 65, 0
3, 940080, Note_on_c, 0, 53, 0
3, 940080, Note_on_c, 0, 58, 52
3, 940200, Note_on_c, 0, 58, 0
3, 940200, Note_on_c, 0, 62, 52
3, 940320, Note_on_c, 0, 62, 0
3, 940440, Note_on_c, 0, 74, 65
3, 940560, Note_on_c, 0, 74, 0
3, 940560, Note_on_c, 0, 70, 65
3, 940680, Note_on_c, 0, 70, 0
3, 940680, Control_c, 0, 64, 0
3, 940680, Note_on_c, 0, 65, 65
3, 940800, Note_on_c, 0, 65, 0
3, 940800, Control_c, 0, 64, 127
3, 940800, Note_on_c, 0, 41, 65
3, 940920, Note_on_c, 0, 41, 0
3, 940920, Note_on_c, 0, 50, 65
3, 941040, Note_on_c, 0, 50, 0
3, 941040, Note_on_c, 0, 53, 65
3, 941160, Note_on_c, 0, 53, 0
3, 941160, Note_on_c, 0, 58, 65
3, 941280, Note_on_c, 0, 58, 0
3, 941400, Note_on_c, 0, 77, 65
3, 941520, Note_on_c, 0, 77, 0
3, 941520, Note_on_c, 0, 74, 65
3, 941640, Note_on_c, 0, 74, 0
3, 941640, Control_c, 0, 64, 0
3, 941640, Note_on_c, 0, 67, 65
3, 941760, Note_on_c, 0, 67, 0
3, 941760, Control_c, 0, 64, 127
3, 941760, Note_on_c, 0, 53, 65
3, 941880, Note_on_c, 0, 53, 0
3, 941880, Note_on_c, 0, 58, 65
3, 942000, Note_on_c, 0, 58, 0
3, 942000, Note_on_c, 0, 62, 65
3, 942120, Note_on_c, 0, 62, 0
3, 942120, Note_on_c, 0, 65, 65
3, 942240, Note_on_c, 0, 65, 0
3, 942720, Note_on_c, 0, 73, 65
3, 942840, Note_on_c, 0, 73, 0
3, 942840, Note_on_c, 0, 70, 65
3, 942960, Note_on_c, 0, 70, 0
3, 942960, Note_on_c, 0, 65, 65
3, 943080, Note_on_c, 0, 65, 0
3, 943080, Note_on_c, 0, 61, 65
3, 943200, Note_on_c, 0, 61, 0
3, 943200, Note_on_c, 0, 74, 65
3, 943320, Note_on_c, 0, 74, 0
3, 943320, Note_on_c, 0, 70, 65
3, 943440, Note_on_c, 0, 70, 0
3, 943440, Note_on_c, 0, 65, 65
3, 943560, Note_on_c, 0, 65, 0
3, 943560, Control_c, 0, 64, 0
3, 943560, Note_on_c, 0, 62, 65
3, 943680, Note_on_c, 0, 62, 0
3, 943680, Control_c, 0, 64, 127
3, 943680, Note_on_c, 0, 53, 65
3, 943680, Note_on_c, 0, 65, 65
3, 943920, Note_on_c, 0, 65, 0
3, 943920, Note_on_c, 0, 53, 0
3, 943920, Note_on_c, 0, 59, 65
3, 944040, Note_on_c, 0, 59, 0
3, 944040, Note_on_c, 0, 62, 65
3, 944160, Note_on_c, 0, 62, 0
3, 944640, Note_on_c, 0, 41, 65
3, 944760, Note_on_c, 0, 41, 0
3, 944760, Note_on_c, 0, 50, 65
3, 944880, Note_on_c, 0, 50, 0
3, 944880, Note_on_c, 0, 55, 65
3, 945000, Note_on_c, 0, 55, 0
3, 945000, Note_on_c, 0, 59, 65
3, 945120, Note_on_c, 0, 59, 0
3, 945120, Control_c, 0, 64, 0
3, 945600, Control_c, 0, 64, 127
3, 945600, Note_on_c, 0, 53, 65
3, 945720, Note_on_c, 0, 53, 0
3, 945720, Note_on_c, 0, 59, 65
3, 945840, Note_on_c, 0, 59, 0
3, 945840, Note_on_c, 0, 62, 65
3, 945960, Note_on_c, 0, 62, 0
3, 945960, Note_on_c, 0, 65, 65
3, 946080, Note_on_c, 0, 65, 0
3, 946560, Note_on_c, 0, 73, 65
3, 946680, Note_on_c, 0, 73, 0
3, 946680, Note_on_c, 0, 71, 65
3, 946800, Note_on_c, 0, 71, 0
3, 946800, Note_on_c, 0, 65, 65
3, 946920, Note_on_c, 0, 65, 0
3, 946920, Note_on_c, 0, 61, 65
3, 947040, Note_on_c, 0, 61, 0
3, 947040, Note_on_c, 0, 74, 65
3, 947160, Note_on_c, 0, 74, 0
3, 947160, Note_on_c, 0, 71, 65
3, 947280, Note_on_c, 0, 71, 0
3, 947280, Note_on_c, 0, 65, 65
3, 947400, Note_on_c, 0, 65, 0
3, 947400, Control_c, 0, 64, 0
3, 947400, Note_on_c, 0, 62, 65
3, 947520, Note_on_c, 0, 62, 0
3, 947520, Control_c, 0, 64, 127
3, 947520, Note_on_c, 0, 53, 65
3, 947520, Note_on_c, 0, 65, 65
3, 947760, Note_on_c, 0, 65, 0
3, 947760, Note_on_c, 0, 53, 0
3, 947760, Note_on_c, 0, 60, 65
3, 947880, Note_on_c, 0, 60, 0
3, 947880, Note_on_c, 0, 63, 65
3, 948000, Note_on_c, 0, 63, 0
3, 948480, Note_on_c, 0, 41, 65
3, 948600, Note_on_c, 0, 41, 0
3, 948600, Note_on_c, 0, 48, 65
3, 948720, Note_on_c, 0, 48, 0
3, 948720, Note_on_c, 0, 51, 65
3, 948840, Note_on_c, 0, 51, 0
3, 948840, Note_on_c, 0, 55, 65
3, 948960, Note_on_c, 0, 55, 0
3, 949440, Note_on_c, 0, 53, 65
3, 949560, Note_on_c, 0, 53, 0
3, 949560, Note_on_c, 0, 60, 65
3, 949680, Note_on_c, 0, 60, 0
3, 949680, Note_on_c, 0, 63, 65
3, 949800, Note_on_c, 0, 63, 0
3, 949800, Note_on_c, 0, 67, 65
3, 949920, Note_on_c, 0, 67, 0
3, 950880, Control_c, 0, 64, 0
3, 958560, Note_on_c, 0, 64, 65
3, 958560, Note_on_c, 0, 67, 65
3, 958560, Note_on_c, 0, 73, 65
3, 958800, Note_on_c, 0, 73, 0
3, 958800, Note_on_c, 0, 67, 0
3, 958800, Note_on_c, 0, 64, 0
3, 959520, Control_c, 0, 64, 127
3, 959520, Note_on_c, 0, 65, 91
3, 959679, Note_on_c, 0, 65, 0
3, 959679, Note_on_c, 0, 58, 91
3, 959679, Note_on_c, 0, 62, 91
3, 959840, Note_on_c, 0, 62, 0
3, 959840, Note_on_c, 0, 58, 0
3, 959840, Note_on_c, 0, 53, 91
3, 960000, Note_on_c, 0, 53, 0
3, 960000, Note_on_c, 0, 58, 91
3, 960000, Note_on_c, 0, 62, 91
3, 960000, Note_on_c, 0, 65, 91
3, 960159, Note_on_c, 0, 65, 0
3, 960159, Note_on_c, 0, 62, 0
3, 960159, Note_on_c, 0, 58, 0
3, 960159, Note_on_c, 0, 53, 91
3, 960320, Note_on_c, 0, 53, 0
3, 960320, Note_on_c, 0, 46, 91
3, 960320, Note_on_c, 0, 50, 91
3, 960480, Note_on_c, 0, 50, 0
3, 960480, Note_on_c, 0, 46, 0
3, 960480, Note_on_c, 0, 41, 91
3, 960720, Note_on_c, 0, 41, 0
3, 960720, Control_c, 0, 64, 0
3, 961440, Control_c, 0, 64, 127
3, 961440, Note_on_c, 0, 67, 91
3, 961599, Note_on_c, 0, 67, 0
3, 961599, Note_on_c, 0, 59, 91
3, 961599, Note_on_c, 0, 62, 91
3, 961760, Note_on_c, 0, 62, 0
3, 961760, Note_on_c, 0, 59, 0
3, 961760, Note_on_c, 0, 53, 91
3, 961920, Note_on_c, 0, 53, 0
3, 961920, Note_on_c, 0, 59, 91
3, 961920, Note_on_c, 0, 62, 91
3, 961920, Note_on_c, 0, 67, 91
3, 962079, Note_on_c, 0, 67, 0
3, 962079, Note_on_c, 0, 62, 0
3, 962079, Note_on_c, 0, 59, 0
3, 962079, Note_on_c, 0, 55, 91
3, 962240, Note_on_c, 0, 55, 0
3, 962240, Note_on_c, 0, 47, 91
3, 962240, Note_on_c, 0, 50, 91
3, 962400, Note_on_c, 0, 50, 0
3, 962400, Note_on_c, 0, 47, 0
3, 962400, Note_on_c, 0, 41, 91
3, 962640, Note_on_c, 0, 41, 0
3, 962640, Control_c, 0, 64, 0
3, 963360, Control_c, 0, 64, 127
3, 963360, Note_on_c, 0, 68, 91
3, 963519, Note_on_c, 0, 68, 0
3, 963519, Note_on_c, 0, 60, 91
3, 963519, Note_on_c, 0, 63, 91
3, 963680, Note_on_c, 0, 63, 0
3, 963680, Note_on_c, 0, 60, 0
3, 963680, Note_on_c, 0, 53, 91
3, 963840, Note_on_c, 0, 53, 0
3, 963840, Note_on_c, 0, 60, 91
3, 963840, Note_on_c, 0, 63, 91
3, 963840, Note_on_c, 0, 68, 91
3, 963999, Note_on_c, 0, 68, 0
3, 963999, Note_on_c, 0, 63, 0
3, 963999, Note_on_c, 0, 60, 0
3, 963999, Note_on_c, 0, 56, 91
3, 964160, Note_on_c, 0, 56, 0
3, 964160, Note_on_c, 0, 48, 91
3, 964160, Note_on_c, 0, 51, 91
3, 964320, Note_on_c, 0, 51, 0
3, 964320, Note_on_c, 0, 48, 0
3, 964320, Note_on_c, 0, 41, 91
3, 964560, Note_on_c, 0, 41, 0
3, 964560, Control_c, 0, 64, 0
3, 965280, Control_c, 0, 64, 127
3, 965280, Note_on_c, 0, 69, 91
3, 965439, Note_on_c, 0, 69, 0
3, 965439, Note_on_c, 0, 61, 91
3, 965439, Note_on_c, 0, 64, 91
3, 965600, Note_on_c, 0, 64, 0
3, 965600, Note_on_c, 0, 61, 0
3, 965600, Note_on_c, 0, 53, 91
3, 965760, Note_on_c, 0, 53, 0
3, 965760, Note_on_c, 0, 61, 91
3, 965760, Note_on_c, 0, 64, 91
3, 965760, Note_on_c, 0, 69, 91
3, 965919, Note_on_c, 0, 69, 0
3, 965919, Note_on_c, 0, 64, 0
3, 965919, Note_on_c, 0, 61, 0
3, 965919, Note_on_c, 0, 57, 91
3, 966080, Note_on_c, 0, 57, 0
3, 966080, Note_on_c, 0, 49, 91
3, 966080, Note_on_c, 0, 52, 91
3, 966240, Note_on_c, 0, 52, 0
3, 966240, Note_on_c, 0, 49, 0
3, 966240, Note_on_c, 0, 41, 91
3, 966480, Note_on_c, 0, 41, 0
3, 966480, Control_c, 0, 64, 0
3, 979110, Note_on_c, 0, 42, 91
3, 979140, Note_on_c, 0, 49, 91
3, 979170, Note_on_c, 0, 54, 91
3, 979200, Note_on_c, 0, 58, 91
3, 980160, Note_on_c, 0, 58, 0
3, 980160, Note_on_c, 0, 42, 0
3, 980160, Note_on_c, 0, 49, 0
3, 980160, Note_on_c, 0, 54, 0
3, 981030, Note_on_c, 0, 42, 91
3, 981060, Note_on_c, 0, 49, 91
3, 981090, Note_on_c, 0, 54, 91
3, 981120, Note_on_c, 0, 58, 91
3, 982080, Note_on_c, 0, 58, 0
3, 982080, Note_on_c, 0, 42, 0
3, 982080, Note_on_c, 0, 49, 0
3, 982080, Note_on_c, 0, 54, 0
3, 982470, Note_on_c, 0, 42, 91
3, 982500, Note_on_c, 0, 49, 91
3, 982530, Note_on_c, 0, 54, 91
3, 982560, Note_on_c, 0, 58, 91
3, 983040, Note_on_c, 0, 58, 0
3, 983040, Note_on_c, 0, 42, 0
3, 983040, Note_on_c, 0, 49, 0
3, 983040, Note_on_c, 0, 54, 0
3, 983430, Note_on_c, 0, 42, 91
3, 983460, Note_on_c, 0, 49, 91
3, 983490, Note_on_c, 0, 54, 91
3, 983520, Note_on_c, 0, 58, 91
3, 984000, Note_on_c, 0, 58, 0
3, 984000, Note_on_c, 0, 42, 0
3, 984000, Note_on_c, 0, 49, 0
3, 984000, Note_on_c, 0, 54, 0
3, 984390, Note_on_c, 0, 42, 91
3, 984420, Note_on_c, 0, 49, 91
3, 984450, Note_on_c, 0, 54, 91
3, 984480, Note_on_c, 0, 58, 91
3, 984960, Note_on_c, 0, 58, 0
3, 984960, Note_on_c, 0, 42, 0
3, 984960, Note_on_c, 0, 49, 0
3, 984960, Note_on_c, 0, 54, 0
3, 985350, Note_on_c, 0, 42, 91
3, 985380, Note_on_c, 0, 49, 91
3, 985410, Note_on_c, 0, 54, 91
3, 985440, Note_on_c, 0, 58, 91
3, 985920, Note_on_c, 0, 58, 0
3, 985920, Note_on_c, 0, 42, 0
3, 985920, Note_on_c, 0, 49, 0
3, 985920, Note_on_c, 0, 54, 0
3, 985920, Control_c, 0, 64, 127
3, 985920, Note_on_c, 0, 42, 91
3, 985920, Note_on_c, 0, 49, 91
3, 985920, Note_on_c, 0, 54, 91
3, 985920, Note_on_c, 0, 58, 91
3, 986790, Note_on_c, 0, 42, 91
3, 986820, Note_on_c, 0, 49, 91
3, 986850, Note_on_c, 0, 54, 91
3, 986880, Note_on_c, 0, 58, 0
3, 986880, Note_on_c, 0, 54, 0
3, 986880, Note_on_c, 0, 42, 0
3, 986880, Note_on_c, 0, 49, 0
3, 986880, Note_on_c, 0, 58, 91
3, 987750, Note_on_c, 0, 42, 91
3, 987780, Note_on_c, 0, 49, 91
3, 987810, Note_on_c, 0, 54, 91
3, 987840, Note_on_c, 0, 58, 0
3, 987840, Note_on_c, 0, 54, 0
3, 987840, Note_on_c, 0, 49, 0
3, 987840, Note_on_c, 0, 42, 0
3, 987840, Note_on_c, 0, 58, 91
3, 988710, Note_on_c, 0, 42, 91
3, 988740, Note_on_c, 0, 49, 91
3, 988770, Note_on_c, 0, 54, 91
3, 988800, Note_on_c, 0, 58, 0
3, 988800, Note_on_c, 0, 54, 0
3, 988800, Note_on_c, 0, 49, 0
3, 988800, Note_on_c, 0, 42, 0
3, 988800, Note_on_c, 0, 58, 91
3, 989280, Note_on_c, 0, 58, 0
3, 989280, Note_on_c, 0, 49, 0
3, 989280, Note_on_c, 0, 42, 0
3, 989280, Note_on_c, 0, 54, 0
3, 989520, Control_c, 0, 64, 127
3, 989520, Note_on_c, 0, 42, 91
3, 989760, Note_on_c, 0, 42, 0
3, 989760, Note_on_c, 0, 49, 91
3, 990000, Note_on_c, 0, 49, 0
3, 990000, Note_on_c, 0, 54, 91
3, 990240, Note_on_c, 0, 54, 0
3, 990240, Note_on_c, 0, 58, 91
3, 990480, Note_on_c, 0, 58, 0
3, 990480, Note_on_c, 0, 42, 91
3, 990720, Note_on_c, 0, 42, 0
3, 990720, Note_on_c, 0, 49, 91
3, 990960, Note_on_c, 0, 49, 0
3, 990960, Note_on_c, 0, 54, 91
3, 991200, Note_on_c, 0, 54, 0
3, 991200, Note_on_c, 0, 58, 91
3, 991440, Note_on_c, 0, 58, 0
3, 991440, Note_on_c, 0, 42, 91
3, 991680, Note_on_c, 0, 42, 0
3, 991680, Note_on_c, 0, 49, 78
3, 991920, Note_on_c, 0, 49, 0
3, 991920, Note_on_c, 0, 54, 78
3, 992160, Note_on_c, 0, 54, 0
3, 992160, Note_on_c, 0, 58, 78
3, 992400, Note_on_c, 0, 58, 0
3, 992400, Note_on_c, 0, 42, 78
3, 992640, Note_on_c, 0, 42, 0
3, 992640, Note_on_c, 0, 49, 65
3, 992880, Note_on_c, 0, 49, 0
3, 992880, Note_on_c, 0, 54, 65
3, 993120, Note_on_c, 0, 54, 0
3, 993120, Control_c, 0, 64, 0
3, 993120, Note_on_c, 0, 58, 65
3, 993360, Note_on_c, 0, 58, 0
3, 993360, Control_c, 0, 64, 127
3, 993360, Note_on_c, 0, 42, 65
3, 993600, Note_on_c, 0, 42, 0
3, 993600, Note_on_c, 0, 49, 52
3, 993840, Note_on_c, 0, 49, 0
3, 993840, Note_on_c, 0, 54, 52
3, 994080, Note_on_c, 0, 54, 0
3, 994080, Note_on_c, 0, 58, 52
3, 994320, Note_on_c, 0, 58, 0
3, 994320, Note_on_c, 0, 42, 52
3, 994560, Note_on_c, 0, 42, 0
3, 994560, Note_on_c, 0, 49, 52
3, 994800, Note_on_c, 0, 49, 0
3, 994800, Note_on_c, 0, 54, 52
3, 995040, Note_on_c, 0, 54, 0
3, 995040, Note_on_c, 0, 58, 52
3, 995280, Note_on_c, 0, 58, 0
3, 995280, Note_on_c, 0, 42, 52
3, 995520, Note_on_c, 0, 42, 0
3, 995520, Note_on_c, 0, 49, 52
3, 995760, Note_on_c, 0, 49, 0
3, 995760, Note_on_c, 0, 54, 52
3, 996000, Note_on_c, 0, 54, 0
3, 996000, Note_on_c, 0, 58, 52
3, 996240, Note_on_c, 0, 58, 0
3, 996240, Note_on_c, 0, 42, 52
3, 996480, Note_on_c, 0, 42, 0
3, 996480, Note_on_c, 0, 49, 52
3, 996720, Note_on_c, 0, 49, 0
3, 996720, Note_on_c, 0, 54, 52
3, 996960, Note_on_c, 0, 54, 0
3, 996960, Control_c, 0, 64, 0
3, 996960, Note_on_c, 0, 58, 52
3, 997200, Note_on_c, 0, 58, 0
3, 997200, Control_c, 0, 64, 127
3, 997200, Note_on_c, 0, 42, 52
3, 997440, Note_on_c, 0, 42, 0
3, 997440, Note_on_c, 0, 47, 52
3, 997680, Note_on_c, 0, 47, 0
3, 997680, Note_on_c, 0, 54, 52
3, 997920, Note_on_c, 0, 54, 0
3, 997920, Note_on_c, 0, 59, 52
3, 998160, Note_on_c, 0, 59, 0
3, 998160, Note_on_c, 0, 42, 52
3, 998400, Note_on_c, 0, 42, 0
3, 998400, Note_on_c, 0, 47, 52
3, 998640, Note_on_c, 0, 47, 0
3, 998640, Note_on_c, 0, 54, 52
3, 998880, Note_on_c, 0, 54, 0
3, 998880, Note_on_c, 0, 59, 52
3, 999120, Note_on_c, 0, 59, 0
3, 999120, Note_on_c, 0, 42, 52
3, 999360, Note_on_c, 0, 42, 0
3, 999360, Note_on_c, 0, 47, 52
3, 999600, Note_on_c, 0, 47, 0
3, 999600, Note_on_c, 0, 54, 52
3, 999840, Note_on_c, 0, 54, 0
3, 999840, Note_on_c, 0, 59, 52
3, 1000080, Note_on_c, 0, 59, 0
3, 1000080, Note_on_c, 0, 42, 52
3, 1000320, Note_on_c, 0, 42, 0
3, 1000320, Note_on_c, 0, 47, 52
3, 1000560, Note_on_c, 0, 47, 0
3, 1000560, Note_on_c, 0, 54, 52
3, 1000800, Note_on_c, 0, 54, 0
3, 1000800, Control_c, 0, 64, 0
3, 1000800, Note_on_c, 0, 59, 52
3, 1001040, Note_on_c, 0, 59, 0
3, 1001040, Control_c, 0, 64, 127
3, 1001040, Note_on_c, 0, 42, 52
3, 1001280, Note_on_c, 0, 42, 0
3, 1001280, Note_on_c, 0, 50, 52
3, 1001520, Note_on_c, 0, 50, 0
3, 1001520, Note_on_c, 0, 55, 52
3, 1001760, Note_on_c, 0, 55, 0
3, 1001760, Note_on_c, 0, 59, 52
3, 1002000, Note_on_c, 0, 59, 0
3, 1002000, Note_on_c, 0, 43, 52
3, 1002240, Note_on_c, 0, 43, 0
3, 1002240, Note_on_c, 0, 50, 52
3, 1002480, Note_on_c, 0, 50, 0
3, 1002480, Note_on_c, 0, 55, 52
3, 1002720, Note_on_c, 0, 55, 0
3, 1002720, Note_on_c, 0, 59, 52
3, 1002960, Note_on_c, 0, 59, 0
3, 1002960, Note_on_c, 0, 43, 52
3, 1003200, Note_on_c, 0, 43, 0
3, 1003200, Note_on_c, 0, 50, 52
3, 1003440, Note_on_c, 0, 50, 0
3, 1003440, Note_on_c, 0, 55, 52
3, 1003680, Note_on_c, 0, 55, 0
3, 1003680, Note_on_c, 0, 59, 52
3, 1003920, Note_on_c, 0, 59, 0
3, 1003920, Note_on_c, 0, 43, 52
3, 1004160, Note_on_c, 0, 43, 0
3, 1004160, Note_on_c, 0, 50, 52
3, 1004400, Note_on_c, 0, 50, 0
3, 1004400, Note_on_c, 0, 55, 52
3, 1004640, Note_on_c, 0, 55, 0
3, 1004640, Control_c, 0, 64, 0
3, 1004640, Note_on_c, 0, 59, 52
3, 1004880, Note_on_c, 0, 59, 0
3, 1004880, Control_c, 0, 64, 127
3, 1004880, Note_on_c, 0, 43, 52
3, 1005120, Note_on_c, 0, 43, 0
3, 1005120, Note_on_c, 0, 48, 52
3, 1005360, Note_on_c, 0, 48, 0
3, 1005360, Note_on_c, 0, 55, 52
3, 1005600, Note_on_c, 0, 55, 0
3, 1005600, Note_on_c, 0, 60, 52
3, 1005840, Note_on_c, 0, 60, 0
3, 1005840, Note_on_c, 0, 43, 52
3, 1006080, Note_on_c, 0, 43, 0
3, 1006080, Note_on_c, 0, 48, 52
3, 1006320, Note_on_c, 0, 48, 0
3, 1006320, Note_on_c, 0, 55, 52
3, 1006560, Note_on_c, 0, 55, 0
3, 1006560, Note_on_c, 0, 60, 52
3, 1006800, Note_on_c, 0, 60, 0
3, 1006800, Note_on_c, 0, 43, 52
3, 1007040, Note_on_c, 0, 43, 0
3, 1007040, Note_on_c, 0, 48, 52
3, 1007280, Note_on_c, 0, 48, 0
3, 1007280, Note_on_c, 0, 55, 52
3, 1007520, Note_on_c, 0, 55, 0
3, 1007520, Note_on_c, 0, 60, 52
3, 1007760, Note_on_c, 0, 60, 0
3, 1007760, Note_on_c, 0, 43, 52
3, 1008000, Note_on_c, 0, 43, 0
3, 1008000, Note_on_c, 0, 48, 52
3, 1008240, Note_on_c, 0, 48, 0
3, 1008240, Note_on_c, 0, 55, 52
3, 1008480, Note_on_c, 0, 55, 0
3, 1008480, Control_c, 0, 64, 0
3, 1008480, Note_on_c, 0, 60, 52
3, 1008720, Note_on_c, 0, 60, 0
3, 1008720, Control_c, 0, 64, 127
3, 1008720, Note_on_c, 0, 44, 52
3, 1008960, Note_on_c, 0, 44, 0
3, 1008960, Note_on_c, 0, 51, 52
3, 1009200, Note_on_c, 0, 51, 0
3, 1009200, Note_on_c, 0, 56, 52
3, 1009440, Note_on_c, 0, 56, 0
3, 1009440, Control_c, 0, 64, 0
3, 1009440, Note_on_c, 0, 60, 52
3, 1009680, Note_on_c, 0, 60, 0
3, 1009680, Control_c, 0, 64, 127
3, 1009680, Note_on_c, 0, 44, 52
3, 1009920, Note_on_c, 0, 44, 0
3, 1009920, Note_on_c, 0, 49, 52
3, 1010160, Note_on_c, 0, 49, 0
3, 1010160, Note_on_c, 0, 56, 52
3, 1010400, Note_on_c, 0, 56, 0
3, 1010400, Note_on_c, 0, 61, 52
3, 1010640, Note_on_c, 0, 61, 0
3, 1010640, Note_on_c, 0, 44, 52
3, 1010880, Note_on_c, 0, 44, 0
3, 1010880, Note_on_c, 0, 49, 52
3, 1011120, Note_on_c, 0, 49, 0
3, 1011120, Note_on_c, 0, 56, 52
3, 1011360, Note_on_c, 0, 56, 0
3, 1011360, Note_on_c, 0, 61, 52
3, 1011600, Note_on_c, 0, 61, 0
3, 1011600, Note_on_c, 0, 44, 52
3, 1011840, Note_on_c, 0, 44, 0
3, 1011840, Note_on_c, 0, 49, 52
3, 1012080, Note_on_c, 0, 49, 0
3, 1012080, Note_on_c, 0, 56, 52
3, 1012320, Note_on_c, 0, 56, 0
3, 1012320, Control_c, 0, 64, 0
3, 1012320, Note_on_c, 0, 61, 52
3, 1012560, Note_on_c, 0, 61, 0
3, 1012560, Control_c, 0, 64, 127
3, 1012560, Note_on_c, 0, 46, 52
3, 1012800, Note_on_c, 0, 46, 0
3, 1012800, Note_on_c, 0, 53, 52
3, 1013040, Note_on_c, 0, 53, 0
3, 1013040, Note_on_c, 0, 58, 52
3, 1013280, Note_on_c, 0, 58, 0
3, 1013280, Control_c, 0, 64, 0
3, 1013280, Note_on_c, 0, 62, 52
3, 1013520, Note_on_c, 0, 62, 0
3, 1013520, Control_c, 0, 64, 127
3, 1013520, Note_on_c, 0, 46, 52
3, 1013760, Note_on_c, 0, 46, 0
3, 1013760, Note_on_c, 0, 51, 52
3, 1014000, Note_on_c, 0, 51, 0
3, 1014000, Note_on_c, 0, 58, 52
3, 1014240, Note_on_c, 0, 58, 0
3, 1014240, Note_on_c, 0, 63, 52
3, 1014480, Note_on_c, 0, 63, 0
3, 1014480, Note_on_c, 0, 46, 52
3, 1014720, Note_on_c, 0, 46, 0
3, 1014720, Note_on_c, 0, 51, 52
3, 1014960, Note_on_c, 0, 51, 0
3, 1014960, Note_on_c, 0, 58, 52
3, 1015200, Note_on_c, 0, 58, 0
3, 1015200, Note_on_c, 0, 63, 52
3, 1015440, Note_on_c, 0, 63, 0
3, 1015440, Note_on_c, 0, 46, 52
3, 1015680, Note_on_c, 0, 46, 0
3, 1015680, Note_on_c, 0, 51, 52
3, 1015920, Note_on_c, 0, 51, 0
3, 1015920, Note_on_c, 0, 58, 52
3, 1016160, Note_on_c, 0, 58, 0
3, 1016160, Control_c, 0, 64, 0
3, 1016160, Note_on_c, 0, 63, 52
3, 1016400, Note_on_c, 0, 63, 0
3, 1016400, Control_c, 0, 64, 127
3, 1016400, Note_on_c, 0, 48, 52
3, 1016640, Note_on_c, 0, 48, 0
3, 1016640, Note_on_c, 0, 55, 52
3, 1016880, Note_on_c, 0, 55, 0
3, 1016880, Note_on_c, 0, 60, 52
3, 1017120, Note_on_c, 0, 60, 0
3, 1017120, Control_c, 0, 64, 0
3, 1017120, Note_on_c, 0, 64, 52
3, 1017360, Note_on_c, 0, 64, 0
3, 1017360, Control_c, 0, 64, 127
3, 1017360, Note_on_c, 0, 48, 52
3, 1017600, Note_on_c, 0, 48, 0
3, 1017600, Note_on_c, 0, 53, 52
3, 1017840, Note_on_c, 0, 53, 0
3, 1017840, Note_on_c, 0, 60, 52
3, 1018080, Note_on_c, 0, 60, 0
3, 1018080, Control_c, 0, 64, 0
3, 1018080, Note_on_c, 0, 65, 52
3, 1018320, Note_on_c, 0, 65, 0
3, 1018320, Control_c, 0, 64, 127
3, 1018320, Note_on_c, 0, 50, 52
3, 1018560, Note_on_c, 0, 50, 0
3, 1018560, Note_on_c, 0, 57, 52
3, 1018800, Note_on_c, 0, 57, 0
3, 1018800, Note_on_c, 0, 62, 52
3, 1019040, Note_on_c, 0, 62, 0
3, 1019040, Control_c, 0, 64, 0
3, 1019040, Note_on_c, 0, 66, 52
3, 1019280, Note_on_c, 0, 66, 0
3, 1019280, Control_c, 0, 64, 127
3, 1019280, Note_on_c, 0, 50, 52
3, 1019520, Note_on_c, 0, 50, 0
3, 1019520, Note_on_c, 0, 55, 52
3, 1019760, Note_on_c, 0, 55, 0
3, 1019760, Note_on_c, 0, 62, 52
3, 1020000, Note_on_c, 0, 62, 0
3, 1020000, Control_c, 0, 64, 0
3, 1020000, Note_on_c, 0, 67, 52
3, 1020240, Note_on_c, 0, 67, 0
3, 1020240, Control_c, 0, 64, 127
3, 1020240, Note_on_c, 0, 49, 52
3, 1020480, Note_on_c, 0, 49, 0
3, 1020480, Note_on_c, 0, 55, 65
3, 1020720, Note_on_c, 0, 55, 0
3, 1020720, Note_on_c, 0, 58, 65
3, 1020960, Note_on_c, 0, 58, 0
3, 1020960, Note_on_c, 0, 64, 65
3, 1021200, Note_on_c, 0, 64, 0
3, 1021200, Note_on_c, 0, 52, 65
3, 1021440, Note_on_c, 0, 52, 0
3, 1021440, Note_on_c, 0, 58, 65
3, 1021680, Note_on_c, 0, 58, 0
3, 1021680, Note_on_c, 0, 61, 65
3, 1021920, Note_on_c, 0, 61, 0
3, 1021920, Note_on_c, 0, 67, 65
3, 1022160, Note_on_c, 0, 67, 0
3, 1022160, Note_on_c, 0, 67, 65
3, 1022400, Note_on_c, 0, 67, 0
3, 1022400, Note_on_c, 0, 61, 65
3, 1022640, Note_on_c, 0, 61, 0
3, 1022640, Note_on_c, 0, 64, 65
3, 1022880, Note_on_c, 0, 64, 0
3, 1022880, Note_on_c, 0, 70, 65
3, 1023120, Note_on_c, 0, 70, 0
3, 1023120, Note_on_c, 0, 58, 65
3, 1023360, Note_on_c, 0, 58, 0
3, 1023360, Note_on_c, 0, 64, 65
3, 1023600, Note_on_c, 0, 64, 0
3, 1023600, Note_on_c, 0, 67, 65
3, 1023840, Note_on_c, 0, 67, 0
3, 1023840, Note_on_c, 0, 73, 65
3, 1024080, Note_on_c, 0, 73, 0
3, 1024080, Note_on_c, 0, 61, 65
3, 1024320, Note_on_c, 0, 61, 0
3, 1024320, Note_on_c, 0, 67, 65
3, 1024560, Note_on_c, 0, 67, 0
3, 1024560, Note_on_c, 0, 70, 65
3, 1024800, Note_on_c, 0, 70, 0
3, 1024800, Note_on_c, 0, 76, 65
3, 1025040, Note_on_c, 0, 76, 0
3, 1025040, Note_on_c, 0, 64, 65
3, 1025280, Note_on_c, 0, 64, 0
3, 1025280, Note_on_c, 0, 70, 65
3, 1025520, Note_on_c, 0, 70, 0
3, 1025520, Note_on_c, 0, 73, 65
3, 1025760, Note_on_c, 0, 73, 0
3, 1025760, Note_on_c, 0, 79, 65
3, 1026000, Note_on_c, 0, 79, 0
3, 1026000, Note_on_c, 0, 67, 65
3, 1026240, Note_on_c, 0, 67, 0
3, 1026240, Note_on_c, 0, 73, 65
3, 1026480, Note_on_c, 0, 73, 0
3, 1026480, Note_on_c, 0, 76, 65
3, 1026720, Note_on_c, 0, 76, 0
3, 1026720, Note_on_c, 0, 82, 65
3, 1026960, Note_on_c, 0, 82, 0
3, 1026960, Note_on_c, 0, 67, 65
3, 1027200, Note_on_c, 0, 67, 0
3, 1027200, Note_on_c, 0, 73, 65
3, 1027440, Note_on_c, 0, 73, 0
3, 1027440, Note_on_c, 0, 76, 65
3, 1027680, Note_on_c, 0, 76, 0
3, 1027680, Note_on_c, 0, 82, 65
3, 1027920, Note_on_c, 0, 82, 0
3, 1027920, Note_on_c, 0, 67, 65
3, 1028160, Note_on_c, 0, 67, 0
3, 1028160, Note_on_c, 0, 73, 65
3, 1028400, Note_on_c, 0, 73, 0
3, 1028400, Note_on_c, 0, 76, 65
3, 1028640, Note_on_c, 0, 76, 0
3, 1028640, Note_on_c, 0, 82, 65
3, 1028880, Note_on_c, 0, 82, 0
3, 1028880, Note_on_c, 0, 67, 65
3, 1029120, Note_on_c, 0, 67, 0
3, 1029120, Note_on_c, 0, 73, 65
3, 1029360, Note_on_c, 0, 73, 0
3, 1029360, Note_on_c, 0, 76, 65
3, 1029600, Note_on_c, 0, 76, 0
3, 1029600, Note_on_c, 0, 82, 65
3, 1029840, Note_on_c, 0, 82, 0
3, 1029840, Control_c, 0, 64, 0
3, 1029840, Note_on_c, 0, 67, 65
3, 1030080, Note_on_c, 0, 67, 0
3, 1030080, Control_c, 0, 64, 127
3, 1030080, Note_on_c, 0, 74, 65
3, 1030320, Note_on_c, 0, 74, 0
3, 1030320, Note_on_c, 0, 77, 65
3, 1030560, Note_on_c, 0, 77, 0
3, 1030560, Note_on_c, 0, 83, 65
3, 1030800, Note_on_c, 0, 83, 0
3, 1030800, Note_on_c, 0, 67, 65
3, 1031040, Note_on_c, 0, 67, 0
3, 1031040, Note_on_c, 0, 74, 52
3, 1031280, Note_on_c, 0, 74, 0
3, 1031280, Note_on_c, 0, 77, 52
3, 1031520, Note_on_c, 0, 77, 0
3, 1031520, Note_on_c, 0, 83, 52
3, 1031760, Note_on_c, 0, 83, 0
3, 1031760, Note_on_c, 0, 67, 52
3, 1032000, Note_on_c, 0, 67, 0
3, 1032000, Note_on_c, 0, 74, 52
3, 1032240, Note_on_c, 0, 74, 0
3, 1032240, Note_on_c, 0, 77, 52
3, 1032480, Note_on_c, 0, 77, 0
3, 1032480, Note_on_c, 0, 83, 52
3, 1032720, Note_on_c, 0, 83, 0
3, 1032720, Note_on_c, 0, 67, 52
3, 1032960, Note_on_c, 0, 67, 0
3, 1032960, Note_on_c, 0, 74, 39
3, 1033200, Note_on_c, 0, 74, 0
3, 1033200, Note_on_c, 0, 77, 39
3, 1033440, Note_on_c, 0, 77, 0
3, 1033440, Note_on_c, 0, 83, 39
3, 1033680, Note_on_c, 0, 83, 0
3, 1033680, Note_on_c, 0, 67, 39
3, 1033920, Note_on_c, 0, 67, 0
3, 1033920, Note_on_c, 0, 74, 39
3, 1034160, Note_on_c, 0, 74, 0
3, 1034160, Note_on_c, 0, 77, 39
3, 1034400, Note_on_c, 0, 77, 0
3, 1034400, Note_on_c, 0, 79, 39
3, 1034640, Note_on_c, 0, 79, 0
3, 1034640, Note_on_c, 0, 67, 39
3, 1034880, Note_on_c, 0, 67, 0
3, 1034880, Note_on_c, 0, 74, 39
3, 1035120, Note_on_c, 0, 74, 0
3, 1035120, Note_on_c, 0, 77, 39
3, 1035360, Note_on_c, 0, 77, 0
3, 1035360, Note_on_c, 0, 79, 39
3, 1035600, Note_on_c, 0, 79, 0
3, 1035600, Note_on_c, 0, 67, 39
3, 1035840, Note_on_c, 0, 67, 0
3, 1035840, Note_on_c, 0, 71, 39
3, 1036080, Note_on_c, 0, 71, 0
3, 1036080, Note_on_c, 0, 74, 39
3, 1036320, Note_on_c, 0, 74, 0
3, 1036320, Note_on_c, 0, 77, 39
3, 1036560, Note_on_c, 0, 77, 0
3, 1036560, Note_on_c, 0, 67, 39
3, 1036800, Note_on_c, 0, 67, 0
3, 1036800, Note_on_c, 0, 71, 39
3, 1037040, Note_on_c, 0, 71, 0
3, 1037040, Note_on_c, 0, 74, 39
3, 1037280, Note_on_c, 0, 74, 0
3, 1037280, Control_c, 0, 64, 0
3, 1037280, Note_on_c, 0, 77, 39
3, 1037520, Note_on_c, 0, 77, 0
3, 1037520, Control_c, 0, 64, 127
3, 1037520, Note_on_c, 0, 67, 39
3, 1037760, Note_on_c, 0, 67, 0
3, 1037760, Note_on_c, 0, 71, 39
3, 1038000, Note_on_c, 0, 71, 0
3, 1038000, Note_on_c, 0, 74, 39
3, 1038240, Note_on_c, 0, 74, 0
3, 1038240, Note_on_c, 0, 77, 39
3, 1038480, Note_on_c, 0, 77, 0
3, 1038480, Note_on_c, 0, 67, 39
3, 1038720, Note_on_c, 0, 67, 0
3, 1038720, Note_on_c, 0, 71, 39
3, 1038960, Note_on_c, 0, 71, 0
3, 1038960, Note_on_c, 0, 74, 39
3, 1039200, Note_on_c, 0, 74, 0
3, 1039200, Control_c, 0, 64, 0
3, 1039200, Note_on_c, 0, 77, 39
3, 1039440, Note_on_c, 0, 77, 0
3, 1039440, Control_c, 0, 64, 127
3, 1039440, Note_on_c, 0, 67, 39
3, 1039680, Note_on_c, 0, 67, 0
3, 1039680, Note_on_c, 0, 71, 39
3, 1039920, Note_on_c, 0, 71, 0
3, 1039920, Note_on_c, 0, 72, 39
3, 1040160, Note_on_c, 0, 72, 0
3, 1040160, Note_on_c, 0, 76, 39
3, 1040400, Note_on_c, 0, 76, 0
3, 1040400, Note_on_c, 0, 67, 39
3, 1040640, Note_on_c, 0, 67, 0
3, 1040640, Note_on_c, 0, 71, 39
3, 1040880, Note_on_c, 0, 71, 0
3, 1040880, Note_on_c, 0, 72, 39
3, 1041120, Note_on_c, 0, 72, 0
3, 1041120, Control_c, 0, 64, 0
3, 1041120, Note_on_c, 0, 76, 39
3, 1041360, Note_on_c, 0, 76, 0
3, 1041360, Control_c, 0, 64, 127
3, 1041360, Note_on_c, 0, 67, 39
3, 1041600, Note_on_c, 0, 67, 0
3, 1041600, Note_on_c, 0, 70, 39
3, 1041840, Note_on_c, 0, 70, 0
3, 1041840, Note_on_c, 0, 71, 39
3, 1042080, Note_on_c, 0, 71, 0
3, 1042080, Note_on_c, 0, 77, 39
3, 1042320, Note_on_c, 0, 77, 0
3, 1042320, Note_on_c, 0, 67, 39
3, 1042560, Note_on_c, 0, 67, 0
3, 1042560, Note_on_c, 0, 70, 39
3, 1042800, Note_on_c, 0, 70, 0
3, 1042800, Note_on_c, 0, 71, 39
3, 1043040, Note_on_c, 0, 71, 0
3, 1043040, Control_c, 0, 64, 0
3, 1043040, Note_on_c, 0, 77, 39
3, 1043280, Note_on_c, 0, 77, 0
3, 1043280, Control_c, 0, 64, 127
3, 1043280, Note_on_c, 0, 67, 39
3, 1043520, Note_on_c, 0, 67, 0
3, 1043520, Note_on_c, 0, 71, 39
3, 1043760, Note_on_c, 0, 71, 0
3, 1043760, Note_on_c, 0, 72, 39
3, 1044000, Note_on_c, 0, 72, 0
3, 1044000, Note_on_c, 0, 76, 39
3, 1044240, Note_on_c, 0, 76, 0
3, 1044240, Note_on_c, 0, 67, 39
3, 1044480, Note_on_c, 0, 67, 0
3, 1044480, Note_on_c, 0, 71, 39
3, 1044720, Note_on_c, 0, 71, 0
3, 1044720, Note_on_c, 0, 72, 39
3, 1044960, Note_on_c, 0, 72, 0
3, 1044960, Control_c, 0, 64, 0
3, 1044960, Note_on_c, 0, 76, 39
3, 1045200, Note_on_c, 0, 76, 0
3, 1045200, Control_c, 0, 64, 127
3, 1045200, Note_on_c, 0, 67, 39
3, 1045440, Note_on_c, 0, 67, 0
3, 1045440, Note_on_c, 0, 71, 39
3, 1045680, Note_on_c, 0, 71, 0
3, 1045680, Note_on_c, 0, 74, 39
3, 1045920, Note_on_c, 0, 74, 0
3, 1045920, Control_c, 0, 64, 0
3, 1045920, Note_on_c, 0, 77, 39
3, 1046160, Note_on_c, 0, 77, 0
3, 1046160, Control_c, 0, 64, 127
3, 1046160, Note_on_c, 0, 65, 39
3, 1046400, Note_on_c, 0, 65, 0
3, 1046400, Note_on_c, 0, 67, 39
3, 1046640, Note_on_c, 0, 67, 0
3, 1046640, Note_on_c, 0, 71, 39
3, 1046880, Note_on_c, 0, 71, 0
3, 1046880, Control_c, 0, 64, 0
3, 1046880, Note_on_c, 0, 74, 39
3, 1047120, Note_on_c, 0, 74, 0
3, 1047120, Control_c, 0, 64, 127
3, 1047120, Note_on_c, 0, 64, 39
3, 1047360, Note_on_c, 0, 64, 0
3, 1047360, Note_on_c, 0, 67, 39
3, 1047600, Note_on_c, 0, 67, 0
3, 1047600, Note_on_c, 0, 72, 39
3, 1047840, Note_on_c, 0, 72, 0
3, 1047840, Control_c, 0, 64, 0
3, 1047840, Note_on_c, 0, 76, 39
3, 1048080, Note_on_c, 0, 76, 0
3, 1048080, Control_c, 0, 64, 127
3, 1048080, Note_on_c, 0, 63, 39
3, 1048320, Note_on_c, 0, 63, 0
3, 1048320, Note_on_c, 0, 67, 39
3, 1048560, Note_on_c, 0, 67, 0
3, 1048560, Note_on_c, 0, 72, 39
3, 1048800, Note_on_c, 0, 72, 0
3, 1048800, Control_c, 0, 64, 0
3, 1048800, Note_on_c, 0, 75, 39
3, 1049040, Note_on_c, 0, 75, 0
3, 1049040, Control_c, 0, 64, 127
3, 1049040, Note_on_c, 0, 62, 39
3, 1049280, Note_on_c, 0, 62, 0
3, 1049280, Note_on_c, 0, 65, 39
3, 1049520, Note_on_c, 0, 65, 0
3, 1049520, Note_on_c, 0, 72, 39
3, 1049760, Note_on_c, 0, 72, 0
3, 1049760, Control_c, 0, 64, 0
3, 1049760, Note_on_c, 0, 74, 39
3, 1050000, Note_on_c, 0, 74, 0
3, 1050000, Control_c, 0, 64, 127
3, 1050000, Note_on_c, 0, 62, 39
3, 1050240, Note_on_c, 0, 62, 0
3, 1050240, Note_on_c, 0, 65, 39
3, 1050480, Note_on_c, 0, 65, 0
3, 1050480, Note_on_c, 0, 71, 39
3, 1050720, Note_on_c, 0, 71, 0
3, 1050720, Control_c, 0, 64, 0
3, 1050720, Note_on_c, 0, 74, 39
3, 1050960, Note_on_c, 0, 74, 0
3, 1050960, Control_c, 0, 64, 127
3, 1050960, Note_on_c, 0, 61, 39
3, 1051200, Note_on_c, 0, 61, 0
3, 1051200, Note_on_c, 0, 64, 39
3, 1051440, Note_on_c, 0, 64, 0
3, 1051440, Note_on_c, 0, 69, 39
3, 1051680, Note_on_c, 0, 69, 0
3, 1051680, Control_c, 0, 64, 0
3, 1051680, Note_on_c, 0, 76, 39
3, 1051920, Note_on_c, 0, 76, 0
3, 1051920, Control_c, 0, 64, 127
3, 1051920, Note_on_c, 0, 60, 39
3, 1052160, Note_on_c, 0, 60, 0
3, 1052160, Note_on_c, 0, 62, 39
3, 1052400, Note_on_c, 0, 62, 0
3, 1052400, Note_on_c, 0, 66, 39
3, 1052640, Note_on_c, 0, 66, 0
3, 1052640, Control_c, 0, 64, 0
3, 1052640, Note_on_c, 0, 69, 39
3, 1052880, Note_on_c, 0, 69, 0
3, 1052880, Control_c, 0, 64, 127
3, 1052880, Note_on_c, 0, 59, 39
3, 1053120, Note_on_c, 0, 59, 0
3, 1053120, Note_on_c, 0, 62, 39
3, 1053360, Note_on_c, 0, 62, 0
3, 1053360, Note_on_c, 0, 67, 39
3, 1053600, Note_on_c, 0, 67, 0
3, 1053600, Control_c, 0, 64, 0
3, 1053600, Note_on_c, 0, 71, 39
3, 1053840, Note_on_c, 0, 71, 0
3, 1053840, Control_c, 0, 64, 127
3, 1053840, Note_on_c, 0, 58, 39
3, 1054080, Note_on_c, 0, 58, 0
3, 1054080, Note_on_c, 0, 60, 39
3, 1054320, Note_on_c, 0, 60, 0
3, 1054320, Note_on_c, 0, 64, 39
3, 1054560, Note_on_c, 0, 64, 0
3, 1054560, Control_c, 0, 64, 0
3, 1054560, Note_on_c, 0, 67, 39
3, 1054800, Note_on_c, 0, 67, 0
3, 1054800, Control_c, 0, 64, 127
3, 1054800, Note_on_c, 0, 57, 39
3, 1055040, Note_on_c, 0, 57, 0
3, 1055040, Note_on_c, 0, 60, 39
3, 1055280, Note_on_c, 0, 60, 0
3, 1055280, Note_on_c, 0, 65, 39
3, 1055520, Note_on_c, 0, 65, 0
3, 1055520, Control_c, 0, 64, 0
3, 1055520, Note_on_c, 0, 69, 39
3, 1055760, Note_on_c, 0, 69, 0
3, 1055760, Control_c, 0, 64, 127
3, 1055760, Note_on_c, 0, 56, 39
3, 1056000, Note_on_c, 0, 56, 0
3, 1056000, Note_on_c, 0, 58, 39
3, 1056240, Note_on_c, 0, 58, 0
3, 1056240, Note_on_c, 0, 62, 39
3, 1056480, Note_on_c, 0, 62, 0
3, 1056480, Control_c, 0, 64, 0
3, 1056480, Note_on_c, 0, 65, 39
3, 1056720, Note_on_c, 0, 65, 0
3, 1056720, Control_c, 0, 64, 127
3, 1056720, Note_on_c, 0, 55, 39
3, 1056960, Note_on_c, 0, 55, 0
3, 1056960, Note_on_c, 0, 58, 39
3, 1057200, Note_on_c, 0, 58, 0
3, 1057200, Note_on_c, 0, 63, 39
3, 1057440, Note_on_c, 0, 63, 0
3, 1057440, Control_c, 0, 64, 0
3, 1057440, Note_on_c, 0, 67, 39
3, 1057680, Note_on_c, 0, 67, 0
3, 1057680, Control_c, 0, 64, 127
3, 1057680, Note_on_c, 0, 54, 39
3, 1057920, Note_on_c, 0, 54, 0
3, 1057920, Note_on_c, 0, 58, 39
3, 1058160, Note_on_c, 0, 58, 0
3, 1058160, Note_on_c, 0, 61, 39
3, 1058400, Note_on_c, 0, 61, 0
3, 1058400, Control_c, 0, 64, 0
3, 1058400, Note_on_c, 0, 66, 39
3, 1058640, Note_on_c, 0, 66, 0
3, 1058640, Control_c, 0, 64, 127
3, 1058640, Note_on_c, 0, 52, 39
3, 1058880, Note_on_c, 0, 52, 0
3, 1058880, Note_on_c, 0, 54, 39
3, 1059120, Note_on_c, 0, 54, 0
3, 1059120, Note_on_c, 0, 58, 39
3, 1059360, Note_on_c, 0, 58, 0
3, 1059360, Control_c, 0, 64, 0
3, 1059360, Note_on_c, 0, 64, 39
3, 1059600, Note_on_c, 0, 64, 0
3, 1059600, Control_c, 0, 64, 127
3, 1059600, Note_on_c, 0, 49, 39
3, 1059840, Note_on_c, 0, 49, 0
3, 1059840, Note_on_c, 0, 52, 39
3, 1060080, Note_on_c, 0, 52, 0
3, 1060080, Note_on_c, 0, 54, 39
3, 1060320, Note_on_c, 0, 54, 0
3, 1060320, Note_on_c, 0, 61, 39
3, 1060560, Note_on_c, 0, 61, 0
3, 1060560, Control_c, 0, 64, 0
3, 1060560, Note_on_c, 0, 46, 39
3, 1060800, Note_on_c, 0, 46, 0
3, 1060800, Note_on_c, 0, 49, 39
3, 1061040, Note_on_c, 0, 49, 0
3, 1061040, Note_on_c, 0, 52, 39
3, 1061280, Note_on_c, 0, 52, 0
3, 1061280, Note_on_c, 0, 54, 39
3, 1061520, Note_on_c, 0, 54, 0
3, 1061520, Note_on_c, 0, 40, 39
3, 1061760, Note_on_c, 0, 40, 0
3, 1061760, Note_on_c, 0, 42, 39
3, 1062000, Note_on_c, 0, 42, 0
3, 1062000, Note_on_c, 0, 46, 39
3, 1062240, Note_on_c, 0, 46, 0
3, 1062240, Note_on_c, 0, 49, 39
3, 1062360, Note_on_c, 0, 49, 0
3, 1062360, Note_on_c, 0, 45, 39
3, 1062480, Note_on_c, 0, 45, 0
3, 1062480, Note_on_c, 0, 47, 39
3, 1062600, Note_on_c, 0, 47, 0
3, 1062600, Note_on_c, 0, 46, 39
3, 1062720, Note_on_c, 0, 46, 0
3, 1062720, Note_on_c, 0, 49, 39
3, 1062840, Note_on_c, 0, 49, 0
3, 1062840, Note_on_c, 0, 41, 39
3, 1062960, Note_on_c, 0, 41, 0
3, 1062960, Note_on_c, 0, 44, 39
3, 1063080, Note_on_c, 0, 44, 0
3, 1063080, Note_on_c, 0, 42, 39
3, 1063200, Note_on_c, 0, 42, 0
3, 1063200, Note_on_c, 0, 46, 39
3, 1063320, Note_on_c, 0, 46, 0
3, 1063320, Note_on_c, 0, 36, 39
3, 1063440, Note_on_c, 0, 36, 0
3, 1063440, Note_on_c, 0, 39, 39
3, 1063560, Note_on_c, 0, 39, 0
3, 1063560, Note_on_c, 0, 37, 39
3, 1063680, Note_on_c, 0, 37, 0
3, 1063680, Note_on_c, 0, 40, 39
3, 1063800, Note_on_c, 0, 40, 0
3, 1063800, Note_on_c, 0, 33, 39
3, 1063920, Note_on_c, 0, 33, 0
3, 1063920, Note_on_c, 0, 35, 39
3, 1064040, Note_on_c, 0, 35, 0
3, 1064040, Note_on_c, 0, 34, 39
3, 1064160, Note_on_c, 0, 34, 0
3, 1064160, Note_on_c, 0, 37, 39
3, 1064280, Note_on_c, 0, 37, 0
3, 1064280, Note_on_c, 0, 29, 39
3, 1064400, Note_on_c, 0, 29, 0
3, 1064400, Note_on_c, 0, 31, 39
3, 1064520, Note_on_c, 0, 31, 0
3, 1064520, Note_on_c, 0, 29, 39
3, 1064640, Note_on_c, 0, 29, 0
3, 1064640, Note_on_c, 0, 30, 39
3, 1064760, Note_on_c, 0, 30, 0
3, 1064760, Note_on_c, 0, 29, 39
3, 1064880, Note_on_c, 0, 29, 0
3, 1064880, Note_on_c, 0, 31, 39
3, 1065000, Note_on_c, 0, 31, 0
3, 1065000, Note_on_c, 0, 29, 39
3, 1065120, Note_on_c, 0, 29, 0
3, 1065120, Note_on_c, 0, 30, 39
3, 1065240, Note_on_c, 0, 30, 0
3, 1065240, Note_on_c, 0, 29, 39
3, 1065360, Note_on_c, 0, 29, 0
3, 1065360, Note_on_c, 0, 31, 39
3, 1065480, Note_on_c, 0, 31, 0
3, 1065480, Note_on_c, 0, 29, 39
3, 1065600, Note_on_c, 0, 29, 0
3, 1065600, Note_on_c, 0, 30, 39
3, 1065720, Note_on_c, 0, 30, 0
3, 1065720, Note_on_c, 0, 29, 39
3, 1065840, Note_on_c, 0, 29, 0
3, 1065840, Note_on_c, 0, 31, 39
3, 1065960, Note_on_c, 0, 31, 0
3, 1065960, Note_on_c, 0, 29, 39
3, 1066080, Note_on_c, 0, 29, 0
3, 1066080, Note_on_c, 0, 30, 39
3, 1066200, Note_on_c, 0, 30, 0
3, 1066200, Note_on_c, 0, 29, 39
3, 1066320, Note_on_c, 0, 29, 0
3, 1066320, Note_on_c, 0, 31, 39
3, 1066440, Note_on_c, 0, 31, 0
3, 1066440, Note_on_c, 0, 29, 39
3, 1066560, Note_on_c, 0, 29, 0
3, 1066560, Control_c, 0, 64, 127
3, 1066560, Note_on_c, 0, 30, 39
3, 1066800, Note_on_c, 0, 30, 0
3, 1068240, Control_c, 0, 64, 0
3, 1068639, Note_on_c, 0, 46, 52
3, 1068639, Note_on_c, 0, 50, 52
3, 1068639, Note_on_c, 0, 58, 52
3, 1068671, Note_on_c, 0, 58, 0
3, 1068671, Note_on_c, 0, 50, 0
3, 1068671, Note_on_c, 0, 46, 0
3, 1068800, Note_on_c, 0, 45, 52
3, 1068800, Note_on_c, 0, 57, 52
3, 1068832, Note_on_c, 0, 57, 0
3, 1068832, Note_on_c, 0, 45, 0
3, 1068960, Note_on_c, 0, 44, 65
3, 1068960, Note_on_c, 0, 56, 65
3, 1068991, Note_on_c, 0, 56, 0
3, 1068991, Note_on_c, 0, 44, 0
3, 1069119, Note_on_c, 0, 41, 65
3, 1069119, Note_on_c, 0, 53, 65
3, 1069151, Note_on_c, 0, 53, 0
3, 1069151, Note_on_c, 0, 41, 0
3, 1069280, Note_on_c, 0, 42, 78
3, 1069280, Note_on_c, 0, 54, 78
3, 1069312, Note_on_c, 0, 54, 0
3, 1069312, Note_on_c, 0, 42, 0
3, 1069599, Note_on_c, 0, 50, 52
3, 1069599, Note_on_c, 0, 52, 52
3, 1069599, Note_on_c, 0, 62, 52
3, 1069631, Note_on_c, 0, 62, 0
3, 1069631, Note_on_c, 0, 52, 0
3, 1069631, Note_on_c, 0, 50, 0
3, 1069760, Note_on_c, 0, 49, 52
3, 1069760, Note_on_c, 0, 61, 52
3, 1069792, Note_on_c, 0, 61, 0
3, 1069792, Note_on_c, 0, 49, 0
3, 1069920, Note_on_c, 0, 47, 65
3, 1069920, Note_on_c, 0, 59, 65
3, 1069951, Note_on_c, 0, 59, 0
3, 1069951, Note_on_c, 0, 47, 0
3, 1070079, Note_on_c, 0, 45, 65
3, 1070079, Note_on_c, 0, 57, 65
3, 1070111, Note_on_c, 0, 57, 0
3, 1070111, Note_on_c, 0, 45, 0
3, 1070240, Note_on_c, 0, 46, 78
3, 1070240, Note_on_c, 0, 58, 78
3, 1070272, Note_on_c, 0, 58, 0
3, 1070272, Note_on_c, 0, 46, 0
3, 1070560, Note_on_c, 0, 54, 78
3, 1070600, Note_on_c, 0, 59, 78
3, 1070640, Control_c, 0, 64, 127
3, 1070640, Note_on_c, 0, 63, 39
3, 1071120, Note_on_c, 0, 63, 0
3, 1071120, Note_on_c, 0, 59, 0
3, 1071120, Note_on_c, 0, 54, 0
3, 1072080, Control_c, 0, 64, 0
3, 1072959, Note_on_c, 0, 51, 52
3, 1072959, Note_on_c, 0, 54, 52
3, 1072959, Note_on_c, 0, 63, 52
3, 1072991, Note_on_c, 0, 63, 0
3, 1072991, Note_on_c, 0, 54, 0
3, 1072991, Note_on_c, 0, 51, 0
3, 1073120, Note_on_c, 0, 49, 52
3, 1073120, Note_on_c, 0, 61, 52
3, 1073152, Note_on_c, 0, 61, 0
3, 1073152, Note_on_c, 0, 49, 0
3, 1073280, Note_on_c, 0, 47, 65
3, 1073280, Note_on_c, 0, 59, 65
3, 1073311, Note_on_c, 0, 59, 0
3, 1073311, Note_on_c, 0, 47, 0
3, 1073439, Note_on_c, 0, 46, 65
3, 1073439, Note_on_c, 0, 58, 65
3, 1073471, Note_on_c, 0, 58, 0
3, 1073471, Note_on_c, 0, 46, 0
3, 1073600, Note_on_c, 0, 47, 78
3, 1073600, Note_on_c, 0, 59, 78
3, 1073632, Note_on_c, 0, 59, 0
3, 1073632, Note_on_c, 0, 47, 0
3, 1073919, Note_on_c, 0, 54, 52
3, 1073919, Note_on_c, 0, 56, 52
3, 1073919, Note_on_c, 0, 66, 52
3, 1073951, Note_on_c, 0, 66, 0
3, 1073951, Note_on_c, 0, 56, 0
3, 1073951, Note_on_c, 0, 54, 0
3, 1074080, Note_on_c, 0, 52, 52
3, 1074080, Note_on_c, 0, 64, 52
3, 1074112, Note_on_c, 0, 64, 0
3, 1074112, Note_on_c, 0, 52, 0
3, 1074240, Note_on_c, 0, 51, 65
3, 1074240, Note_on_c, 0, 63, 65
3, 1074271, Note_on_c, 0, 63, 0
3, 1074271, Note_on_c, 0, 51, 0
3, 1074399, Note_on_c, 0, 50, 65
3, 1074399, Note_on_c, 0, 62, 65
3, 1074431, Note_on_c, 0, 62, 0
3, 1074431, Note_on_c, 0, 50, 0
3, 1074560, Note_on_c, 0, 51, 78
3, 1074560, Note_on_c, 0, 63, 78
3, 1074592, Note_on_c, 0, 63, 0
3, 1074592, Note_on_c, 0, 51, 0
3, 1074960, Control_c, 0, 64, 127
3, 1074960, Note_on_c, 0, 32, 52
3, 1074960, Note_on_c, 0, 44, 52
3, 1075200, Note_on_c, 0, 44, 0
3, 1075200, Note_on_c, 0, 32, 0
3, 1076880, Control_c, 0, 64, 0
3, 1077279, Note_on_c, 0, 48, 52
3, 1077279, Note_on_c, 0, 51, 52
3, 1077279, Note_on_c, 0, 60, 52
3, 1077311, Note_on_c, 0, 60, 0
3, 1077311, Note_on_c, 0, 51, 0
3, 1077311, Note_on_c, 0, 48, 0
3, 1077440, Note_on_c, 0, 47, 52
3, 1077440, Note_on_c, 0, 59, 52
3, 1077472, Note_on_c, 0, 59, 0
3, 1077472, Note_on_c, 0, 47, 0
3, 1077600, Note_on_c, 0, 46, 65
3, 1077600, Note_on_c, 0, 58, 65
3, 1077631, Note_on_c, 0, 58, 0
3, 1077631, Note_on_c, 0, 46, 0
3, 1077759, Note_on_c, 0, 43, 65
3, 1077759, Note_on_c, 0, 55, 65
3, 1077791, Note_on_c, 0, 55, 0
3, 1077791, Note_on_c, 0, 43, 0
3, 1077920, Note_on_c, 0, 44, 78
3, 1077920, Note_on_c, 0, 56, 78
3, 1077952, Note_on_c, 0, 56, 0
3, 1077952, Note_on_c, 0, 44, 0
3, 1078239, Note_on_c, 0, 52, 52
3, 1078239, Note_on_c, 0, 54, 52
3, 1078239, Note_on_c, 0, 64, 52
3, 1078271, Note_on_c, 0, 64, 0
3, 1078271, Note_on_c, 0, 54, 0
3, 1078271, Note_on_c, 0, 52, 0
3, 1078400, Note_on_c, 0, 51, 52
3, 1078400, Note_on_c, 0, 63, 52
3, 1078432, Note_on_c, 0, 63, 0
3, 1078432, Note_on_c, 0, 51, 0
3, 1078560, Note_on_c, 0, 49, 65
3, 1078560, Note_on_c, 0, 61, 65
3, 1078591, Note_on_c, 0, 61, 0
3, 1078591, Note_on_c, 0, 49, 0
3, 1078719, Note_on_c, 0, 47, 65
3, 1078719, Note_on_c, 0, 59, 65
3, 1078751, Note_on_c, 0, 59, 0
3, 1078751, Note_on_c, 0, 47, 0
3, 1078880, Note_on_c, 0, 48, 78
3, 1078880, Note_on_c, 0, 60, 78
3, 1078912, Note_on_c, 0, 60, 0
3, 1078912, Note_on_c, 0, 48, 0
3, 1079200, Note_on_c, 0, 56, 52
3, 1079240, Note_on_c, 0, 61, 52
3, 1079280, Note_on_c, 0, 64, 52
3, 1079760, Note_on_c, 0, 64, 0
3, 1079760, Note_on_c, 0, 61, 0
3, 1079760, Note_on_c, 0, 56, 0
3, 1081599, Note_on_c, 0, 52, 52
3, 1081599, Note_on_c, 0, 56, 52
3, 1081599, Note_on_c, 0, 64, 52
3, 1081631, Note_on_c, 0, 64, 0
3, 1081631, Note_on_c, 0, 56, 0
3, 1081631, Note_on_c, 0, 52, 0
3, 1081760, Note_on_c, 0, 51, 52
3, 1081760, Note_on_c, 0, 63, 52
3, 1081792, Note_on_c, 0, 63, 0
3, 1081792, Note_on_c, 0, 51, 0
3, 1081920, Note_on_c, 0, 49, 65
3, 1081920, Note_on_c, 0, 61, 65
3, 1081951, Note_on_c, 0, 61, 0
3, 1081951, Note_on_c, 0, 49, 0
3, 1082079, Note_on_c, 0, 48, 65
3, 1082079, Note_on_c, 0, 60, 65
3, 1082111, Note_on_c, 0, 60, 0
3, 1082111, Note_on_c, 0, 48, 0
3, 1082240, Note_on_c, 0, 49, 78
3, 1082240, Note_on_c, 0, 61, 78
3, 1082272, Note_on_c, 0, 61, 0
3, 1082272, Note_on_c, 0, 49, 0
3, 1082559, Note_on_c, 0, 56, 52
3, 1082559, Note_on_c, 0, 64, 52
3, 1082559, Note_on_c, 0, 68, 52
3, 1082591, Note_on_c, 0, 68, 0
3, 1082591, Note_on_c, 0, 64, 0
3, 1082591, Note_on_c, 0, 56, 0
3, 1082720, Note_on_c, 0, 54, 52
3, 1082720, Note_on_c, 0, 66, 52
3, 1082752, Note_on_c, 0, 66, 0
3, 1082752, Note_on_c, 0, 54, 0
3, 1082880, Note_on_c, 0, 52, 65
3, 1082880, Note_on_c, 0, 64, 65
3, 1082911, Note_on_c, 0, 64, 0
3, 1082911, Note_on_c, 0, 52, 0
3, 1083039, Note_on_c, 0, 51, 65
3, 1083039, Note_on_c, 0, 63, 65
3, 1083071, Note_on_c, 0, 63, 0
3, 1083071, Note_on_c, 0, 51, 0
3, 1083200, Note_on_c, 0, 52, 78
3, 1083200, Note_on_c, 0, 64, 78
3, 1083232, Note_on_c, 0, 64, 0
3, 1083232, Note_on_c, 0, 52, 0
3, 1083360, Note_on_c, 0, 45, 104
3, 1083360, Note_on_c, 0, 57, 104
3, 1083840, Note_on_c, 0, 57, 0
3, 1083840, Note_on_c, 0, 45, 0
3, 1083840, Note_on_c, 0, 43, 104
3, 1083840, Note_on_c, 0, 55, 104
3, 1084479, Note_on_c, 0, 55, 0
3, 1084479, Note_on_c, 0, 43, 0
3, 1084479, Note_on_c, 0, 42, 78
3, 1084479, Note_on_c, 0, 54, 78
3, 1084511, Note_on_c, 0, 54, 0
3, 1084511, Note_on_c, 0, 42, 0
3, 1084640, Note_on_c, 0, 43, 78
3, 1084640, Note_on_c, 0, 55, 78
3, 1084672, Note_on_c, 0, 55, 0
3, 1084672, Note_on_c, 0, 43, 0
3, 1084800, Note_on_c, 0, 49, 78
3, 1084800, Note_on_c, 0, 61, 78
3, 1084831, Note_on_c, 0, 61, 0
3, 1084831, Note_on_c, 0, 49, 0
3, 1084959, Note_on_c, 0, 47, 78
3, 1084959, Note_on_c, 0, 59, 78
3, 1084991, Note_on_c, 0, 59, 0
3, 1084991, Note_on_c, 0, 47, 0
3, 1085120, Note_on_c, 0, 48, 78
3, 1085120, Note_on_c, 0, 60, 78
3, 1085439, Note_on_c, 0, 60, 0
3, 1085439, Note_on_c, 0, 48, 0
3, 1085439, Control_c, 0, 64, 127
3, 1085439, Note_on_c, 0, 64, 78
3, 1085600, Note_on_c, 0, 64, 0
3, 1085600, Note_on_c, 0, 56, 78
3, 1085760, Note_on_c, 0, 56, 0
3, 1085760, Note_on_c, 0, 49, 78
3, 1085919, Note_on_c, 0, 49, 0
3, 1085919, Note_on_c, 0, 76, 78
3, 1086080, Note_on_c, 0, 76, 0
3, 1086080, Note_on_c, 0, 68, 78
3, 1086240, Note_on_c, 0, 68, 0
3, 1086240, Note_on_c, 0, 61, 78
3, 1086399, Note_on_c, 0, 61, 0
3, 1086399, Note_on_c, 0, 64, 78
3, 1086560, Note_on_c, 0, 64, 0
3, 1086560, Note_on_c, 0, 68, 78
3, 1086720, Note_on_c, 0, 68, 0
3, 1086720, Note_on_c, 0, 73, 78
3, 1086720, Note_on_c, 0, 76, 78
3, 1086960, Note_on_c, 0, 76, 0
3, 1086960, Note_on_c, 0, 73, 0
3, 1086960, Control_c, 0, 64, 0
3, 1087200, Note_on_c, 0, 47, 104
3, 1087200, Note_on_c, 0, 59, 104
3, 1087680, Note_on_c, 0, 59, 0
3, 1087680, Note_on_c, 0, 47, 0
3, 1087680, Note_on_c, 0, 45, 104
3, 1087680, Note_on_c, 0, 57, 104
3, 1088319, Note_on_c, 0, 57, 0
3, 1088319, Note_on_c, 0, 45, 0
3, 1088319, Note_on_c, 0, 44, 78
3, 1088319, Note_on_c, 0, 56, 78
3, 1088351, Note_on_c, 0, 56, 0
3, 1088351, Note_on_c, 0, 44, 0
3, 1088480, Note_on_c, 0, 45, 78
3, 1088480, Note_on_c, 0, 57, 78
3, 1088512, Note_on_c, 0, 57, 0
3, 1088512, Note_on_c, 0, 45, 0
3, 1088640, Note_on_c, 0, 51, 78
3, 1088640, Note_on_c, 0, 63, 78
3, 1088671, Note_on_c, 0, 63, 0
3, 1088671, Note_on_c, 0, 51, 0
3, 1088799, Note_on_c, 0, 49, 78
3, 1088799, Note_on_c, 0, 61, 78
3, 1088831, Note_on_c, 0, 61, 0
3, 1088831, Note_on_c, 0, 49, 0
3, 1088960, Note_on_c, 0, 50, 78
3, 1088960, Note_on_c, 0, 62, 78
3, 1089279, Note_on_c, 0, 62, 0
3, 1089279, Note_on_c, 0, 50, 0
3, 1089279, Control_c, 0, 64, 127
3, 1089279, Note_on_c, 0, 66, 78
3, 1089440, Note_on_c, 0, 66, 0
3, 1089440, Note_on_c, 0, 58, 78
3, 1089600, Note_on_c, 0, 58, 0
3, 1089600, Note_on_c, 0, 51, 78
3, 1089759, Note_on_c, 0, 51, 0
3, 1089759, Note_on_c, 0, 78, 78
3, 1089920, Note_on_c, 0, 78, 0
3, 1089920, Note_on_c, 0, 70, 78
3, 1090080, Note_on_c, 0, 70, 0
3, 1090080, Note_on_c, 0, 63, 78
3, 1090239, Note_on_c, 0, 63, 0
3, 1090239, Note_on_c, 0, 66, 78
3, 1090400, Note_on_c, 0, 66, 0
3, 1090400, Note_on_c, 0, 70, 78
3, 1090560, Note_on_c, 0, 70, 0
3, 1090560, Note_on_c, 0, 75, 78
3, 1090560, Note_on_c, 0, 78, 78
3, 1090800, Note_on_c, 0, 78, 0
3, 1090800, Note_on_c, 0, 75, 0
3, 1090800, Control_c, 0, 64, 0
3, 1091040, Note_on_c, 0, 47, 104
3, 1091040, Note_on_c, 0, 49, 104
3, 1091040, Note_on_c, 0, 59, 104
3, 1091520, Note_on_c, 0, 59, 0
3, 1091520, Note_on_c, 0, 49, 0
3, 1091520, Note_on_c, 0, 47, 0
3, 1091520, Note_on_c, 0, 45, 104
3, 1091520, Note_on_c, 0, 49, 104
3, 1091520, Note_on_c, 0, 57, 104
3, 1092480, Note_on_c, 0, 57, 0
3, 1092480, Note_on_c, 0, 49, 0
3, 1092480, Note_on_c, 0, 45, 0
3, 1092480, Note_on_c, 0, 46, 78
3, 1092480, Note_on_c, 0, 49, 78
3, 1092480, Note_on_c, 0, 58, 78
3, 1092960, Note_on_c, 0, 58, 0
3, 1092960, Note_on_c, 0, 49, 0
3, 1092960, Note_on_c, 0, 46, 0
3, 1093119, Note_on_c, 0, 37, 91
3, 1093119, Note_on_c, 0, 49, 91
3, 1093151, Note_on_c, 0, 49, 0
3, 1093151, Note_on_c, 0, 37, 0
3, 1093280, Note_on_c, 0, 38, 91
3, 1093280, Note_on_c, 0, 50, 91
3, 1093312, Note_on_c, 0, 50, 0
3, 1093312, Note_on_c, 0, 38, 0
3, 1093440, Note_on_c, 0, 44, 91
3, 1093440, Note_on_c, 0, 56, 91
3, 1093471, Note_on_c, 0, 56, 0
3, 1093471, Note_on_c, 0, 44, 0
3, 1093599, Note_on_c, 0, 43, 91
3, 1093599, Note_on_c, 0, 55, 91
3, 1093631, Note_on_c, 0, 55, 0
3, 1093631, Note_on_c, 0, 43, 0
3, 1093760, Note_on_c, 0, 44, 91
3, 1093760, Note_on_c, 0, 56, 91
3, 1093792, Note_on_c, 0, 56, 0
3, 1093792, Note_on_c, 0, 44, 0
3, 1093920, Note_on_c, 0, 49, 91
3, 1093920, Note_on_c, 0, 61, 91
3, 1093951, Note_on_c, 0, 61, 0
3, 1093951, Note_on_c, 0, 49, 0
3, 1094079, Note_on_c, 0, 50, 91
3, 1094079, Note_on_c, 0, 62, 91
3, 1094111, Note_on_c, 0, 62, 0
3, 1094111, Note_on_c, 0, 50, 0
3, 1094240, Note_on_c, 0, 49, 91
3, 1094240, Note_on_c, 0, 61, 91
3, 1094272, Note_on_c, 0, 61, 0
3, 1094272, Note_on_c, 0, 49, 0
3, 1094400, Note_on_c, 0, 52, 91
3, 1094400, Note_on_c, 0, 64, 91
3, 1094431, Note_on_c, 0, 64, 0
3, 1094431, Note_on_c, 0, 52, 0
3, 1094559, Note_on_c, 0, 50, 91
3, 1094559, Note_on_c, 0, 62, 91
3, 1094591, Note_on_c, 0, 62, 0
3, 1094591, Note_on_c, 0, 50, 0
3, 1094720, Note_on_c, 0, 51, 91
3, 1094720, Note_on_c, 0, 63, 91
3, 1094752, Note_on_c, 0, 63, 0
3, 1094752, Note_on_c, 0, 51, 0
3, 1094880, Note_on_c, 0, 49, 91
3, 1094880, Note_on_c, 0, 51, 91
3, 1094880, Note_on_c, 0, 61, 91
3, 1095360, Note_on_c, 0, 61, 0
3, 1095360, Note_on_c, 0, 51, 0
3, 1095360, Note_on_c, 0, 49, 0
3, 1095360, Note_on_c, 0, 47, 117
3, 1095360, Note_on_c, 0, 51, 117
3, 1095360, Note_on_c, 0, 59, 117
3, 1096320, Note_on_c, 0, 59, 0
3, 1096320, Note_on_c, 0, 51, 0
3, 1096320, Note_on_c, 0, 47, 0
3, 1096320, Note_on_c, 0, 48, 91
3, 1096320, Note_on_c, 0, 51, 91
3, 1096320, Note_on_c, 0, 60, 91
3, 1096800, Note_on_c, 0, 60, 0
3, 1096800, Note_on_c, 0, 51, 0
3, 1096800, Note_on_c, 0, 48, 0
3, 1096959, Note_on_c, 0, 39, 91
3, 1096959, Note_on_c, 0, 51, 91
3, 1096991, Note_on_c, 0, 51, 0
3, 1096991, Note_on_c, 0, 39, 0
3, 1097120, Note_on_c, 0, 40, 91
3, 1097120, Note_on_c, 0, 52, 91
3, 1097152, Note_on_c, 0, 52, 0
3, 1097152, Note_on_c, 0, 40, 0
3, 1097280, Note_on_c, 0, 46, 91
3, 1097280, Note_on_c, 0, 58, 91
3, 1097311, Note_on_c, 0, 58, 0
3, 1097311, Note_on_c, 0, 46, 0
3, 1097439, Note_on_c, 0, 45, 91
3, 1097439, Note_on_c, 0, 57, 91
3, 1097471, Note_on_c, 0, 57, 0
3, 1097471, Note_on_c, 0, 45, 0
3, 1097600, Note_on_c, 0, 46, 91
3, 1097600, Note_on_c, 0, 58, 91
3, 1097632, Note_on_c, 0, 58, 0
3, 1097632, Note_on_c, 0, 46, 0
3, 1097760, Note_on_c, 0, 51, 91
3, 1097760, Note_on_c, 0, 63, 91
3, 1097791, Note_on_c, 0, 63, 0
3, 1097791, Note_on_c, 0, 51, 0
3, 1097919, Note_on_c, 0, 52, 91
3, 1097919, Note_on_c, 0, 64, 91
3, 1097951, Note_on_c, 0, 64, 0
3, 1097951, Note_on_c, 0, 52, 0
3, 1098080, Note_on_c, 0, 51, 91
3, 1098080, Note_on_c, 0, 63, 91
3, 1098112, Note_on_c, 0, 63, 0
3, 1098112, Note_on_c, 0, 51, 0
3, 1098240, Note_on_c, 0, 54, 91
3, 1098240, Note_on_c, 0, 66, 91
3, 1098271, Note_on_c, 0, 66, 0
3, 1098271, Note_on_c, 0, 54, 0
3, 1098399, Note_on_c, 0, 51, 91
3, 1098399, Note_on_c, 0, 63, 91
3, 1098431, Note_on_c, 0, 63, 0
3, 1098431, Note_on_c, 0, 51, 0
3, 1098560, Note_on_c, 0, 52, 91
3, 1098560, Note_on_c, 0, 64, 91
3, 1098592, Note_on_c, 0, 64, 0
3, 1098592, Note_on_c, 0, 52, 0
3, 1098720, Note_on_c, 0, 47, 117
3, 1098720, Note_on_c, 0, 49, 117
3, 1098720, Note_on_c, 0, 59, 117
3, 1098767, Note_on_c, 0, 59, 0
3, 1098767, Note_on_c, 0, 49, 0
3, 1098767, Note_on_c, 0, 47, 0
3, 1099200, Note_on_c, 0, 45, 91
3, 1099200, Note_on_c, 0, 49, 91
3, 1099200, Note_on_c, 0, 57, 91
3, 1099839, Note_on_c, 0, 57, 0
3, 1099839, Note_on_c, 0, 49, 0
3, 1099839, Note_on_c, 0, 45, 0
3, 1099839, Note_on_c, 0, 43, 91
3, 1099839, Note_on_c, 0, 55, 91
3, 1100000, Note_on_c, 0, 55, 0
3, 1100000, Note_on_c, 0, 43, 0
3, 1100000, Note_on_c, 0, 41, 91
3, 1100000, Note_on_c, 0, 53, 91
3, 1100160, Note_on_c, 0, 53, 0
3, 1100160, Note_on_c, 0, 41, 0
3, 1100160, Note_on_c, 0, 42, 91
3, 1100160, Note_on_c, 0, 54, 91
3, 1100319, Note_on_c, 0, 54, 0
3, 1100319, Note_on_c, 0, 42, 0
3, 1100319, Note_on_c, 0, 41, 91
3, 1100319, Note_on_c, 0, 53, 91
3, 1100480, Note_on_c, 0, 53, 0
3, 1100480, Note_on_c, 0, 41, 0
3, 1100480, Note_on_c, 0, 42, 91
3, 1100480, Note_on_c, 0, 54, 91
3, 1100640, Note_on_c, 0, 54, 0
3, 1100640, Note_on_c, 0, 42, 0
3, 1100640, Note_on_c, 0, 48, 117
3, 1100640, Note_on_c, 0, 50, 117
3, 1100640, Note_on_c, 0, 60, 117
3, 1100687, Note_on_c, 0, 60, 0
3, 1100687, Note_on_c, 0, 50, 0
3, 1100687, Note_on_c, 0, 48, 0
3, 1101120, Note_on_c, 0, 47, 91
3, 1101120, Note_on_c, 0, 51, 91
3, 1101120, Note_on_c, 0, 59, 91
3, 1101759, Note_on_c, 0, 59, 0
3, 1101759, Note_on_c, 0, 51, 0
3, 1101759, Note_on_c, 0, 47, 0
3, 1101759, Note_on_c, 0, 45, 91
3, 1101759, Note_on_c, 0, 57, 91
3, 1101920, Note_on_c, 0, 57, 0
3, 1101920, Note_on_c, 0, 45, 0
3, 1101920, Note_on_c, 0, 43, 91
3, 1101920, Note_on_c, 0, 55, 91
3, 1102080, Note_on_c, 0, 55, 0
3, 1102080, Note_on_c, 0, 43, 0
3, 1102080, Note_on_c, 0, 44, 91
3, 1102080, Note_on_c, 0, 56, 91
3, 1102239, Note_on_c, 0, 56, 0
3, 1102239, Note_on_c, 0, 44, 0
3, 1102239, Note_on_c, 0, 43, 91
3, 1102239, Note_on_c, 0, 55, 91
3, 1102400, Note_on_c, 0, 55, 0
3, 1102400, Note_on_c, 0, 43, 0
3, 1102400, Note_on_c, 0, 44, 91
3, 1102400, Note_on_c, 0, 56, 91
3, 1102560, Note_on_c, 0, 56, 0
3, 1102560, Note_on_c, 0, 44, 0
3, 1102560, Note_on_c, 0, 46, 91
3, 1102560, Note_on_c, 0, 52, 91
3, 1102560, Note_on_c, 0, 55, 91
3, 1102560, Note_on_c, 0, 60, 91
3, 1102591, Note_on_c, 0, 60, 0
3, 1102591, Note_on_c, 0, 46, 0
3, 1102591, Note_on_c, 0, 52, 0
3, 1102591, Note_on_c, 0, 55, 0
3, 1102719, Note_on_c, 0, 62, 91
3, 1102751, Note_on_c, 0, 62, 0
3, 1102880, Note_on_c, 0, 64, 91
3, 1102912, Note_on_c, 0, 64, 0
3, 1103040, Note_on_c, 0, 45, 91
3, 1103040, Note_on_c, 0, 57, 91
3, 1103280, Note_on_c, 0, 57, 0
3, 1103280, Note_on_c, 0, 45, 0
3, 1103520, Note_on_c, 0, 48, 91
3, 1103520, Note_on_c, 0, 54, 91
3, 1103520, Note_on_c, 0, 57, 91
3, 1103520, Note_on_c, 0, 62, 91
3, 1103551, Note_on_c, 0, 62, 0
3, 1103551, Note_on_c, 0, 48, 0
3, 1103551, Note_on_c, 0, 54, 0
3, 1103551, Note_on_c, 0, 57, 0
3, 1103679, Note_on_c, 0, 64, 91
3, 1103711, Note_on_c, 0, 64, 0
3, 1103840, Note_on_c, 0, 66, 91
3, 1103872, Note_on_c, 0, 66, 0
3, 1104000, Note_on_c, 0, 47, 91
3, 1104000, Note_on_c, 0, 59, 91
3, 1104240, Note_on_c, 0, 59, 0
3, 1104240, Note_on_c, 0, 47, 0
3, 1104480, Note_on_c, 0, 50, 91
3, 1104480, Note_on_c, 0, 56, 91
3, 1104480, Note_on_c, 0, 59, 91
3, 1104480, Note_on_c, 0, 64, 91
3, 1104511, Note_on_c, 0, 64, 0
3, 1104511, Note_on_c, 0, 50, 0
3, 1104511, Note_on_c, 0, 56, 0
3, 1104511, Note_on_c, 0, 59, 0
3, 1104639, Note_on_c, 0, 66, 91
3, 1104671, Note_on_c, 0, 66, 0
3, 1104800, Note_on_c, 0, 68, 91
3, 1104832, Note_on_c, 0, 68, 0
3, 1104960, Note_on_c, 0, 48, 91
3, 1104960, Note_on_c, 0, 60, 91
3, 1105200, Note_on_c, 0, 60, 0
3, 1105200, Note_on_c, 0, 48, 0
3, 1105440, Note_on_c, 0, 51, 91
3, 1105440, Note_on_c, 0, 57, 91
3, 1105440, Note_on_c, 0, 60, 91
3, 1105440, Note_on_c, 0, 65, 91
3, 1105471, Note_on_c, 0, 65, 0
3, 1105471, Note_on_c, 0, 51, 0
3, 1105471, Note_on_c, 0, 57, 0
3, 1105471, Note_on_c, 0, 60, 0
3, 1105599, Note_on_c, 0, 67, 91
3, 1105631, Note_on_c, 0, 67, 0
3, 1105760, Note_on_c, 0, 69, 91
3, 1105792, Note_on_c, 0, 69, 0
3, 1105920, Note_on_c, 0, 50, 91
3, 1105920, Note_on_c, 0, 62, 91
3, 1106160, Note_on_c, 0, 62, 0
3, 1106160, Note_on_c, 0, 50, 0
3, 1106310, Note_on_c, 0, 52, 78
3, 1106340, Note_on_c, 0, 58, 78
3, 1106370, Note_on_c, 0, 61, 78
3, 1106400, Control_c, 0, 64, 127
3, 1106400, Note_on_c, 0, 66, 78
3, 1106640, Note_on_c, 0, 66, 0
3, 1106640, Note_on_c, 0, 52, 0
3, 1106640, Note_on_c, 0, 58, 0
3, 1106640, Note_on_c, 0, 61, 0
3, 1106640, Note_on_c, 0, 52, 78
3, 1106640, Note_on_c, 0, 58, 78
3, 1106640, Note_on_c, 0, 61, 78
3, 1106640, Note_on_c, 0, 66, 78
3, 1106880, Note_on_c, 0, 66, 0
3, 1106880, Note_on_c, 0, 52, 0
3, 1106880, Note_on_c, 0, 58, 0
3, 1106880, Note_on_c, 0, 61, 0
3, 1106880, Note_on_c, 0, 52, 78
3, 1106880, Note_on_c, 0, 58, 78
3, 1106880, Note_on_c, 0, 61, 78
3, 1106880, Note_on_c, 0, 66, 78
3, 1107120, Note_on_c, 0, 66, 0
3, 1107120, Note_on_c, 0, 52, 0
3, 1107120, Note_on_c, 0, 58, 0
3, 1107120, Note_on_c, 0, 61, 0
3, 1107120, Note_on_c, 0, 52, 78
3, 1107120, Note_on_c, 0, 58, 78
3, 1107120, Note_on_c, 0, 61, 78
3, 1107120, Note_on_c, 0, 66, 78
3, 1107360, Note_on_c, 0, 66, 0
3, 1107360, Note_on_c, 0, 52, 0
3, 1107360, Note_on_c, 0, 58, 0
3, 1107360, Note_on_c, 0, 61, 0
3, 1107360, Note_on_c, 0, 52, 78
3, 1107360, Note_on_c, 0, 58, 78
3, 1107360, Note_on_c, 0, 61, 78
3, 1107360, Note_on_c, 0, 66, 78
3, 1107600, Note_on_c, 0, 66, 0
3, 1107600, Note_on_c, 0, 52, 0
3, 1107600, Note_on_c, 0, 58, 0
3, 1107600, Note_on_c, 0, 61, 0
3, 1107600, Note_on_c, 0, 64, 78
3, 1107600, Note_on_c, 0, 70, 78
3, 1107600, Note_on_c, 0, 73, 78
3, 1107600, Note_on_c, 0, 78, 78
3, 1107840, Note_on_c, 0, 78, 0
3, 1107840, Note_on_c, 0, 64, 0
3, 1107840, Note_on_c, 0, 70, 0
3, 1107840, Note_on_c, 0, 73, 0
3, 1107840, Note_on_c, 0, 64, 78
3, 1107840, Note_on_c, 0, 70, 78
3, 1107840, Note_on_c, 0, 73, 78
3, 1107840, Note_on_c, 0, 78, 78
3, 1108080, Note_on_c, 0, 78, 0
3, 1108080, Note_on_c, 0, 64, 0
3, 1108080, Note_on_c, 0, 70, 0
3, 1108080, Note_on_c, 0, 73, 0
3, 1108080, Control_c, 0, 64, 0
3, 1108080, Note_on_c, 0, 64, 78
3, 1108080, Note_on_c, 0, 70, 78
3, 1108080, Note_on_c, 0, 73, 78
3, 1108080, Note_on_c, 0, 78, 78
3, 1108320, Note_on_c, 0, 78, 0
3, 1108320, Note_on_c, 0, 64, 0
3, 1108320, Note_on_c, 0, 70, 0
3, 1108320, Note_on_c, 0, 73, 0
3, 1108320, Control_c, 0, 64, 127
3, 1108320, Note_on_c, 0, 64, 104
3, 1108320, Note_on_c, 0, 70, 104
3, 1108320, Note_on_c, 0, 73, 104
3, 1108320, Note_on_c, 0, 78, 104
3, 1108800, Note_on_c, 0, 78, 0
3, 1108800, Note_on_c, 0, 64, 0
3, 1108800, Note_on_c, 0, 70, 0
3, 1108800, Note_on_c, 0, 73, 0
3, 1108800, Note_on_c, 0, 64, 104
3, 1108800, Note_on_c, 0, 70, 104
3, 1108800, Note_on_c, 0, 73, 104
3, 1109280, Note_on_c, 0, 73, 0
3, 1109280, Note_on_c, 0, 70, 0
3, 1109280, Note_on_c, 0, 64, 0
3, 1109280, Note_on_c, 0, 52, 104
3, 1109280, Note_on_c, 0, 58, 104
3, 1109280, Note_on_c, 0, 61, 104
3, 1109760, Note_on_c, 0, 61, 0
3, 1109760, Note_on_c, 0, 58, 0
3, 1109760, Note_on_c, 0, 52, 0
3, 1109760, Note_on_c, 0, 40, 104
3, 1109760, Note_on_c, 0, 46, 104
3, 1109760, Note_on_c, 0, 49, 104
3, 1110240, Note_on_c, 0, 49, 0
3, 1110240, Note_on_c, 0, 46, 0
3, 1110240, Note_on_c, 0, 40, 0
3, 1110240, Control_c, 0, 64, 0
3, 1110240, Note_on_c, 0, 28, 78
3, 1110240, Note_on_c, 0, 34, 78
3, 1110240, Note_on_c, 0, 37, 78
3, 1110240, Note_on_c, 0, 42, 78
3, 1110240, Note_on_c, 0, 46, 78
3, 1110240, Note_on_c, 0, 49, 78
3, 1110240, Note_on_c, 0, 54, 78
3, 1110480, Note_on_c, 0, 54, 0
3, 1110480, Note_on_c, 0, 46, 0
3, 1110480, Note_on_c, 0, 34, 0
3, 1110480, Note_on_c, 0, 37, 0
3, 1110480, Note_on_c, 0, 28, 0
3, 1110480, Note_on_c, 0, 49, 0
3, 1110480, Note_on_c, 0, 42, 0
3, 1110480, Note_on_c, 0, 33, 78
3, 1110720, Note_on_c, 0, 33, 0
3, 1110720, Note_on_c, 0, 34, 78
3, 1110960, Note_on_c, 0, 34, 0
3, 1110960, Note_on_c, 0, 36, 65
3, 1111200, Note_on_c, 0, 36, 0
3, 1111200, Note_on_c, 0, 37, 65
3, 1111440, Note_on_c, 0, 37, 0
3, 1111440, Note_on_c, 0, 36, 65
3, 1111680, Note_on_c, 0, 36, 0
3, 1111680, Note_on_c, 0, 39, 65
3, 1111920, Note_on_c, 0, 39, 0
3, 1111920, Note_on_c, 0, 37, 65
3, 1112160, Note_on_c, 0, 37, 0
3, 1112160, Note_on_c, 0, 36, 52
3, 1112400, Note_on_c, 0, 36, 0
3, 1112400, Note_on_c, 0, 34, 52
3, 1112640, Note_on_c, 0, 34, 0
3, 1112640, Note_on_c, 0, 32, 52
3, 1112799, Note_on_c, 0, 32, 0
3, 1112799, Note_on_c, 0, 30, 52
3, 1112960, Note_on_c, 0, 30, 0
3, 1112960, Note_on_c, 0, 28, 52
3, 1113120, Note_on_c, 0, 28, 0
3, 1113120, Control_c, 0, 64, 127
3, 1113120, Note_on_c, 0, 29, 52
3, 1113360, Note_on_c, 0, 29, 0
3, 1113360, Note_on_c, 0, 34, 52
3, 1113600, Note_on_c, 0, 34, 0
3, 1113600, Note_on_c, 0, 37, 52
3, 1113840, Note_on_c, 0, 37, 0
3, 1113840, Note_on_c, 0, 41, 52
3, 1114080, Note_on_c, 0, 41, 0
3, 1114080, Note_on_c, 0, 45, 52
3, 1114320, Note_on_c, 0, 45, 0
3, 1114320, Note_on_c, 0, 46, 52
3, 1114560, Note_on_c, 0, 46, 0
3, 1114560, Note_on_c, 0, 49, 52
3, 1114800, Note_on_c, 0, 49, 0
3, 1114800, Note_on_c, 0, 53, 52
3, 1115040, Note_on_c, 0, 53, 0
3, 1115040, Note_on_c, 0, 57, 52
3, 1115280, Note_on_c, 0, 57, 0
3, 1115280, Note_on_c, 0, 58, 52
3, 1115520, Note_on_c, 0, 58, 0
3, 1115520, Note_on_c, 0, 60, 52
3, 1115760, Note_on_c, 0, 60, 0
3, 1115760, Note_on_c, 0, 61, 52
3, 1116000, Note_on_c, 0, 61, 0
3, 1116000, Note_on_c, 0, 64, 52
3, 1116240, Note_on_c, 0, 64, 0
3, 1116960, Control_c, 0, 64, 0
3, 1118400, Control_c, 0, 64, 127
3, 1118400, Note_on_c, 0, 53, 39
3, 1118400, Note_on_c, 0, 57, 39
3, 1118400, Note_on_c, 0, 63, 39
3, 1118400, Note_on_c, 0, 69, 39
3, 1118880, Note_on_c, 0, 69, 0
3, 1118880, Note_on_c, 0, 53, 0
3, 1118880, Note_on_c, 0, 57, 0
3, 1118880, Note_on_c, 0, 63, 0
3, 1119000, Note_on_c, 0, 41, 39
3, 1119120, Note_on_c, 0, 41, 0
3, 1119120, Note_on_c, 0, 48, 39
3, 1119240, Note_on_c, 0, 48, 0
3, 1119240, Note_on_c, 0, 51, 39
3, 1119360, Note_on_c, 0, 51, 0
3, 1119360, Control_c, 0, 64, 0
3, 1119360, Note_on_c, 0, 57, 39
3, 1119480, Note_on_c, 0, 57, 0
3, 1119480, Note_on_c, 0, 60, 39
3, 1119600, Note_on_c, 0, 60, 0
3, 1119600, Note_on_c, 0, 63, 39
3, 1119720, Note_on_c, 0, 63, 0
3, 1119720, Note_on_c, 0, 69, 39
3, 1119840, Note_on_c, 0, 69, 0
3, 1120320, Control_c, 0, 64, 127
3, 1120320, Note_on_c, 0, 53, 39
3, 1120320, Note_on_c, 0, 58, 39
3, 1120320, Note_on_c, 0, 61, 39
3, 1120320, Note_on_c, 0, 65, 39
3, 1120800, Note_on_c, 0, 65, 0
3, 1120800, Note_on_c, 0, 53, 0
3, 1120800, Note_on_c, 0, 58, 0
3, 1120800, Note_on_c, 0, 61, 0
3, 1120920, Note_on_c, 0, 41, 39
3, 1121040, Note_on_c, 0, 41, 0
3, 1121040, Note_on_c, 0, 46, 39
3, 1121160, Note_on_c, 0, 46, 0
3, 1121160, Note_on_c, 0, 49, 39
3, 1121280, Note_on_c, 0, 49, 0
3, 1121280, Control_c, 0, 64, 0
3, 1121280, Note_on_c, 0, 53, 39
3, 1121400, Note_on_c, 0, 53, 0
3, 1121400, Note_on_c, 0, 58, 39
3, 1121520, Note_on_c, 0, 58, 0
3, 1121520, Note_on_c, 0, 61, 39
3, 1121640, Note_on_c, 0, 61, 0
3, 1121640, Note_on_c, 0, 65, 39
3, 1121760, Note_on_c, 0, 65, 0
3, 1122118, Control_c, 0, 64, 127
3, 1122240, Note_on_c, 0, 54, 39
3, 1122240, Note_on_c, 0, 56, 39
3, 1122240, Note_on_c, 0, 59, 39
3, 1122240, Note_on_c, 0, 62, 39
3, 1122720, Note_on_c, 0, 62, 0
3, 1122720, Note_on_c, 0, 54, 0
3, 1122720, Note_on_c, 0, 56, 0
3, 1122720, Note_on_c, 0, 59, 0
3, 1122840, Note_on_c, 0, 41, 39
3, 1122960, Note_on_c, 0, 41, 0
3, 1122960, Note_on_c, 0, 46, 39
3, 1123080, Note_on_c, 0, 46, 0
3, 1123080, Note_on_c, 0, 51, 39
3, 1123200, Note_on_c, 0, 51, 0
3, 1123200, Control_c, 0, 64, 0
3, 1123200, Note_on_c, 0, 54, 39
3, 1123320, Note_on_c, 0, 54, 0
3, 1123320, Note_on_c, 0, 58, 39
3, 1123440, Note_on_c, 0, 58, 0
3, 1123440, Note_on_c, 0, 62, 39
3, 1123560, Note_on_c, 0, 62, 0
3, 1123560, Note_on_c, 0, 63, 39
3, 1123680, Note_on_c, 0, 63, 0
3, 1124160, Note_on_c, 0, 48, 39
3, 1124640, Note_on_c, 0, 48, 0
3, 1124760, Note_on_c, 0, 42, 39
3, 1124880, Note_on_c, 0, 42, 0
3, 1124880, Note_on_c, 0, 40, 39
3, 1125000, Note_on_c, 0, 40, 0
3, 1125000, Note_on_c, 0, 41, 39
3, 1125120, Note_on_c, 0, 41, 0
3, 1125120, Note_on_c, 0, 42, 39
3, 1125120, Note_on_c, 0, 46, 39
3, 1125240, Note_on_c, 0, 46, 0
3, 1125240, Note_on_c, 0, 42, 0
3, 1125240, Note_on_c, 0, 48, 39
3, 1125360, Note_on_c, 0, 48, 0
3, 1125360, Note_on_c, 0, 49, 39
3, 1125480, Note_on_c, 0, 49, 0
3, 1125480, Note_on_c, 0, 53, 39
3, 1125600, Note_on_c, 0, 53, 0
3, 1125600, Note_on_c, 0, 54, 39
3, 1125720, Note_on_c, 0, 54, 0
3, 1125720, Note_on_c, 0, 53, 39
3, 1125840, Note_on_c, 0, 53, 0
3, 1125840, Note_on_c, 0, 54, 39
3, 1125960, Note_on_c, 0, 54, 0
3, 1125960, Note_on_c, 0, 57, 39
3, 1126080, Note_on_c, 0, 57, 0
3, 1126080, Note_on_c, 0, 58, 39
3, 1126200, Note_on_c, 0, 58, 0
3, 1126200, Note_on_c, 0, 60, 39
3, 1126320, Note_on_c, 0, 60, 0
3, 1126320, Note_on_c, 0, 61, 39
3, 1126440, Note_on_c, 0, 61, 0
3, 1126440, Note_on_c, 0, 65, 39
3, 1126560, Note_on_c, 0, 65, 0
3, 1134240, Note_on_c, 0, 41, 39
3, 1134240, Note_on_c, 0, 47, 39
3, 1134240, Note_on_c, 0, 50, 39
3, 1134240, Note_on_c, 0, 53, 39
3, 1134240, Note_on_c, 0, 56, 39
3, 1134240, Note_on_c, 0, 62, 39
3, 1134720, Note_on_c, 0, 62, 0
3, 1134720, Note_on_c, 0, 47, 0
3, 1134720, Note_on_c, 0, 50, 0
3, 1134720, Note_on_c, 0, 41, 0
3, 1134720, Note_on_c, 0, 56, 0
3, 1134720, Note_on_c, 0, 53, 0
3, 1135200, Note_on_c, 0, 41, 39
3, 1135200, Note_on_c, 0, 48, 39
3, 1135200, Note_on_c, 0, 51, 39
3, 1135200, Note_on_c, 0, 53, 39
3, 1135200, Note_on_c, 0, 57, 39
3, 1135200, Note_on_c, 0, 60, 39
3, 1135680, Note_on_c, 0, 60, 0
3, 1135680, Note_on_c, 0, 48, 0
3, 1135680, Note_on_c, 0, 51, 0
3, 1135680, Note_on_c, 0, 41, 0
3, 1135680, Note_on_c, 0, 57, 0
3, 1135680, Note_on_c, 0, 53, 0
3, 1141440, Note_on_c, 0, 64, 52
3, 1141680, Note_on_c, 0, 64, 0
3, 1141680, Note_on_c, 0, 65, 52
3, 1141920, Note_on_c, 0, 65, 0
3, 1141920, Note_on_c, 0, 62, 52
3, 1142160, Note_on_c, 0, 62, 0
3, 1142160, Note_on_c, 0, 63, 52
3, 1142400, Note_on_c, 0, 63, 0
3, 1142400, Note_on_c, 0, 64, 52
3, 1142640, Note_on_c, 0, 64, 0
3, 1142640, Note_on_c, 0, 65, 52
3, 1142880, Note_on_c, 0, 65, 0
3, 1142880, Note_on_c, 0, 62, 52
3, 1143120, Note_on_c, 0, 62, 0
3, 1143120, Note_on_c, 0, 63, 52
3, 1143360, Note_on_c, 0, 63, 0
3, 1143360, Note_on_c, 0, 64, 52
3, 1143600, Note_on_c, 0, 64, 0
3, 1143600, Note_on_c, 0, 65, 52
3, 1143840, Note_on_c, 0, 65, 0
3, 1143840, Note_on_c, 0, 61, 52
3, 1144080, Note_on_c, 0, 61, 0
3, 1144080, Note_on_c, 0, 62, 52
3, 1144320, Note_on_c, 0, 62, 0
3, 1144320, Note_on_c, 0, 64, 52
3, 1144560, Note_on_c, 0, 64, 0
3, 1144560, Note_on_c, 0, 65, 52
3, 1144800, Note_on_c, 0, 65, 0
3, 1144800, Note_on_c, 0, 61, 52
3, 1145040, Note_on_c, 0, 61, 0
3, 1145040, Note_on_c, 0, 62, 52
3, 1145280, Note_on_c, 0, 62, 0
3, 1145280, Note_on_c, 0, 60, 52
3, 1145280, Note_on_c, 0, 63, 52
3, 1145520, Note_on_c, 0, 63, 0
3, 1145520, Note_on_c, 0, 60, 0
3, 1145520, Note_on_c, 0, 65, 52
3, 1145760, Note_on_c, 0, 65, 0
3, 1145760, Note_on_c, 0, 60, 52
3, 1145760, Note_on_c, 0, 63, 52
3, 1146000, Note_on_c, 0, 63, 0
3, 1146000, Note_on_c, 0, 60, 0
3, 1146000, Note_on_c, 0, 65, 52
3, 1146240, Note_on_c, 0, 65, 0
3, 1146240, Note_on_c, 0, 60, 52
3, 1146240, Note_on_c, 0, 63, 52
3, 1146240, Note_on_c, 0, 68, 52
3, 1146480, Note_on_c, 0, 68, 0
3, 1146480, Note_on_c, 0, 63, 0
3, 1146480, Note_on_c, 0, 60, 0
3, 1146480, Note_on_c, 0, 69, 52
3, 1146720, Note_on_c, 0, 69, 0
3, 1146720, Note_on_c, 0, 60, 52
3, 1146720, Note_on_c, 0, 63, 52
3, 1146960, Note_on_c, 0, 63, 0
3, 1146960, Note_on_c, 0, 60, 0
3, 1146960, Note_on_c, 0, 65, 52
3, 1147200, Note_on_c, 0, 65, 0
3, 1147200, Note_on_c, 0, 62, 52
3, 1147200, Note_on_c, 0, 64, 52
3, 1147440, Note_on_c, 0, 64, 0
3, 1147440, Note_on_c, 0, 62, 0
3, 1147440, Note_on_c, 0, 65, 52
3, 1147680, Note_on_c, 0, 65, 0
3, 1147680, Note_on_c, 0, 62, 52
3, 1147680, Note_on_c, 0, 64, 52
3, 1147920, Note_on_c, 0, 64, 0
3, 1147920, Note_on_c, 0, 62, 0
3, 1147920, Note_on_c, 0, 65, 52
3, 1148160, Note_on_c, 0, 65, 0
3, 1148160, Note_on_c, 0, 57, 52
3, 1148160, Note_on_c, 0, 62, 52
3, 1148400, Note_on_c, 0, 62, 0
3, 1148400, Note_on_c, 0, 57, 0
3, 1148400, Note_on_c, 0, 58, 52
3, 1148640, Note_on_c, 0, 58, 0
3, 1148640, Note_on_c, 0, 58, 52
3, 1148640, Note_on_c, 0, 61, 52
3, 1148880, Note_on_c, 0, 61, 0
3, 1148880, Note_on_c, 0, 58, 0
3, 1148880, Note_on_c, 0, 62, 52
3, 1149120, Note_on_c, 0, 62, 0
3, 1149120, Note_on_c, 0, 57, 52
3, 1149120, Note_on_c, 0, 62, 52
3, 1149360, Note_on_c, 0, 62, 0
3, 1149360, Note_on_c, 0, 57, 0
3, 1149360, Note_on_c, 0, 63, 52
3, 1149600, Note_on_c, 0, 63, 0
3, 1149600, Note_on_c, 0, 57, 52
3, 1149600, Note_on_c, 0, 59, 52
3, 1149840, Note_on_c, 0, 59, 0
3, 1149840, Note_on_c, 0, 57, 0
3, 1149840, Note_on_c, 0, 60, 52
3, 1150080, Note_on_c, 0, 60, 0
3, 1150080, Note_on_c, 0, 57, 52
3, 1150080, Note_on_c, 0, 62, 52
3, 1150320, Note_on_c, 0, 62, 0
3, 1150320, Note_on_c, 0, 57, 0
3, 1150320, Note_on_c, 0, 63, 52
3, 1150560, Note_on_c, 0, 63, 0
3, 1150560, Note_on_c, 0, 57, 52
3, 1150560, Note_on_c, 0, 59, 52
3, 1150800, Note_on_c, 0, 59, 0
3, 1150800, Note_on_c, 0, 57, 0
3, 1150800, Note_on_c, 0, 60, 52
3, 1151040, Note_on_c, 0, 60, 0
3, 1151040, Note_on_c, 0, 58, 52
3, 1151040, Note_on_c, 0, 61, 52
3, 1151280, Note_on_c, 0, 61, 0
3, 1151280, Note_on_c, 0, 58, 0
3, 1151280, Note_on_c, 0, 62, 52
3, 1151520, Note_on_c, 0, 62, 0
3, 1151520, Note_on_c, 0, 62, 52
3, 1151520, Note_on_c, 0, 64, 52
3, 1151760, Note_on_c, 0, 64, 0
3, 1151760, Note_on_c, 0, 62, 0
3, 1151760, Note_on_c, 0, 65, 52
3, 1152000, Note_on_c, 0, 65, 0
3, 1152000, Note_on_c, 0, 53, 52
3, 1152000, Note_on_c, 0, 57, 52
3, 1152240, Note_on_c, 0, 57, 0
3, 1152240, Note_on_c, 0, 53, 0
3, 1152240, Note_on_c, 0, 58, 52
3, 1152480, Note_on_c, 0, 58, 0
3, 1152480, Note_on_c, 0, 57, 52
3, 1152480, Note_on_c, 0, 62, 52
3, 1152720, Note_on_c, 0, 62, 0
3, 1152720, Note_on_c, 0, 57, 0
3, 1152720, Note_on_c, 0, 58, 52
3, 1152960, Note_on_c, 0, 58, 0
3, 1152960, Control_c, 0, 64, 127
3, 1152960, Note_on_c, 0, 63, 52
3, 1153119, Note_on_c, 0, 63, 0
3, 1153119, Note_on_c, 0, 57, 52
3, 1153280, Note_on_c, 0, 57, 0
3, 1153280, Note_on_c, 0, 53, 52
3, 1153440, Note_on_c, 0, 53, 0
3, 1153440, Note_on_c, 0, 46, 52
3, 1153680, Note_on_c, 0, 46, 0
3, 1153920, Note_on_c, 0, 63, 52
3, 1154079, Note_on_c, 0, 63, 0
3, 1154079, Note_on_c, 0, 57, 52
3, 1154240, Note_on_c, 0, 57, 0
3, 1154240, Note_on_c, 0, 53, 52
3, 1154400, Note_on_c, 0, 53, 0
3, 1154400, Note_on_c, 0, 46, 52
3, 1154640, Note_on_c, 0, 46, 0
3, 1154640, Control_c, 0, 64, 0
3, 1154880, Control_c, 0, 64, 127
3, 1154880, Note_on_c, 0, 62, 52
3, 1155039, Note_on_c, 0, 62, 0
3, 1155039, Note_on_c, 0, 58, 52
3, 1155200, Note_on_c, 0, 58, 0
3, 1155200, Note_on_c, 0, 53, 52
3, 1155360, Note_on_c, 0, 53, 0
3, 1155360, Note_on_c, 0, 46, 52
3, 1155600, Note_on_c, 0, 46, 0
3, 1155840, Note_on_c, 0, 62, 52
3, 1155999, Note_on_c, 0, 62, 0
3, 1155999, Note_on_c, 0, 58, 52
3, 1156160, Note_on_c, 0, 58, 0
3, 1156160, Note_on_c, 0, 53, 52
3, 1156320, Note_on_c, 0, 53, 0
3, 1156320, Note_on_c, 0, 46, 52
3, 1156560, Note_on_c, 0, 46, 0
3, 1156560, Control_c, 0, 64, 0
3, 1156800, Control_c, 0, 64, 127
3, 1156800, Note_on_c, 0, 63, 52
3, 1156959, Note_on_c, 0, 63, 0
3, 1156959, Note_on_c, 0, 57, 52
3, 1157120, Note_on_c, 0, 57, 0
3, 1157120, Note_on_c, 0, 53, 52
3, 1157280, Note_on_c, 0, 53, 0
3, 1157280, Note_on_c, 0, 46, 52
3, 1157520, Note_on_c, 0, 46, 0
3, 1157760, Note_on_c, 0, 63, 52
3, 1157919, Note_on_c, 0, 63, 0
3, 1157919, Note_on_c, 0, 57, 52
3, 1158080, Note_on_c, 0, 57, 0
3, 1158080, Note_on_c, 0, 53, 52
3, 1158240, Note_on_c, 0, 53, 0
3, 1158240, Note_on_c, 0, 46, 52
3, 1158480, Note_on_c, 0, 46, 0
3, 1158480, Control_c, 0, 64, 0
3, 1158720, Note_on_c, 0, 58, 52
3, 1158720, Note_on_c, 0, 62, 52
3, 1158960, Note_on_c, 0, 62, 0
3, 1158960, Note_on_c, 0, 58, 0
3, 1159200, Note_on_c, 0, 50, 39
3, 1159200, Note_on_c, 0, 62, 39
3, 1159440, Note_on_c, 0, 62, 0
3, 1159440, Note_on_c, 0, 50, 0
3, 1159440, Note_on_c, 0, 53, 39
3, 1159440, Note_on_c, 0, 58, 39
3, 1159680, Note_on_c, 0, 58, 0
3, 1159680, Note_on_c, 0, 53, 0
3, 1159680, Note_on_c, 0, 49, 52
3, 1159680, Note_on_c, 0, 61, 52
3, 1159920, Note_on_c, 0, 61, 0
3, 1159920, Note_on_c, 0, 49, 0
3, 1159920, Note_on_c, 0, 52, 52
3, 1159920, Note_on_c, 0, 58, 52
3, 1160160, Note_on_c, 0, 58, 0
3, 1160160, Note_on_c, 0, 52, 0
3, 1160160, Note_on_c, 0, 48, 52
3, 1160160, Note_on_c, 0, 60, 52
3, 1160400, Note_on_c, 0, 60, 0
3, 1160400, Note_on_c, 0, 48, 0
3, 1160400, Note_on_c, 0, 54, 52
3, 1160400, Note_on_c, 0, 57, 52
3, 1160640, Note_on_c, 0, 57, 0
3, 1160640, Note_on_c, 0, 54, 0
3, 1160640, Note_on_c, 0, 42, 78
3, 1160640, Note_on_c, 0, 54, 78
3, 1160880, Note_on_c, 0, 54, 0
3, 1160880, Note_on_c, 0, 42, 0
3, 1160880, Note_on_c, 0, 45, 52
3, 1160880, Note_on_c, 0, 50, 52
3, 1161120, Note_on_c, 0, 50, 0
3, 1161120, Note_on_c, 0, 45, 0
3, 1161120, Note_on_c, 0, 43, 52
3, 1161120, Note_on_c, 0, 55, 52
3, 1161360, Note_on_c, 0, 55, 0
3, 1161360, Note_on_c, 0, 43, 0
3, 1161360, Note_on_c, 0, 46, 52
3, 1161360, Note_on_c, 0, 50, 52
3, 1161600, Note_on_c, 0, 50, 0
3, 1161600, Note_on_c, 0, 46, 0
3, 1161600, Note_on_c, 0, 55, 52
3, 1161759, Note_on_c, 0, 55, 0
3, 1161759, Note_on_c, 0, 46, 52
3, 1161920, Note_on_c, 0, 46, 0
3, 1161920, Note_on_c, 0, 43, 52
3, 1162080, Note_on_c, 0, 43, 0
3, 1162080, Note_on_c, 0, 54, 52
3, 1162239, Note_on_c, 0, 54, 0
3, 1162239, Note_on_c, 0, 46, 52
3, 1162400, Note_on_c, 0, 46, 0
3, 1162400, Note_on_c, 0, 42, 52
3, 1162560, Note_on_c, 0, 42, 0
3, 1162560, Note_on_c, 0, 53, 52
3, 1162719, Note_on_c, 0, 53, 0
3, 1162719, Note_on_c, 0, 45, 52
3, 1162880, Note_on_c, 0, 45, 0
3, 1162880, Note_on_c, 0, 41, 52
3, 1163040, Note_on_c, 0, 41, 0
3, 1163040, Control_c, 0, 64, 127
3, 1163040, Note_on_c, 0, 40, 52
3, 1163199, Note_on_c, 0, 40, 0
3, 1163199, Note_on_c, 0, 43, 52
3, 1163360, Note_on_c, 0, 43, 0
3, 1163360, Note_on_c, 0, 52, 52
3, 1163520, Note_on_c, 0, 52, 0
3, 1163520, Note_on_c, 0, 52, 52
3, 1163520, Note_on_c, 0, 55, 52
3, 1163760, Note_on_c, 0, 55, 0
3, 1163760, Note_on_c, 0, 52, 0
3, 1163760, Control_c, 0, 64, 0
3, 1164000, Control_c, 0, 64, 127
3, 1164000, Note_on_c, 0, 39, 52
3, 1164159, Note_on_c, 0, 39, 0
3, 1164159, Note_on_c, 0, 43, 52
3, 1164320, Note_on_c, 0, 43, 0
3, 1164320, Note_on_c, 0, 51, 52
3, 1164480, Note_on_c, 0, 51, 0
3, 1164480, Note_on_c, 0, 51, 52
3, 1164480, Note_on_c, 0, 55, 52
3, 1164720, Note_on_c, 0, 55, 0
3, 1164720, Note_on_c, 0, 51, 0
3, 1164720, Control_c, 0, 64, 0
3, 1164960, Control_c, 0, 64, 127
3, 1164960, Note_on_c, 0, 38, 52
3, 1165119, Note_on_c, 0, 38, 0
3, 1165119, Note_on_c, 0, 41, 52
3, 1165280, Note_on_c, 0, 41, 0
3, 1165280, Note_on_c, 0, 50, 52
3, 1165440, Note_on_c, 0, 50, 0
3, 1165440, Note_on_c, 0, 50, 52
3, 1165440, Note_on_c, 0, 53, 52
3, 1165680, Note_on_c, 0, 53, 0
3, 1165680, Note_on_c, 0, 50, 0
3, 1165680, Control_c, 0, 64, 0
3, 1165920, Control_c, 0, 64, 127
3, 1165920, Note_on_c, 0, 37, 52
3, 1166079, Note_on_c, 0, 37, 0
3, 1166079, Note_on_c, 0, 43, 52
3, 1166240, Note_on_c, 0, 43, 0
3, 1166240, Note_on_c, 0, 49, 52
3, 1166400, Note_on_c, 0, 49, 0
3, 1166400, Note_on_c, 0, 49, 52
3, 1166400, Note_on_c, 0, 55, 52
3, 1166640, Note_on_c, 0, 55, 0
3, 1166640, Note_on_c, 0, 49, 0
3, 1166880, Note_on_c, 0, 48, 52
3, 1166880, Note_on_c, 0, 60, 52
3, 1167039, Note_on_c, 0, 60, 0
3, 1167039, Note_on_c, 0, 48, 0
3, 1167039, Note_on_c, 0, 52, 52
3, 1167039, Note_on_c, 0, 55, 52
3, 1167200, Note_on_c, 0, 55, 0
3, 1167200, Note_on_c, 0, 52, 0
3, 1167360, Note_on_c, 0, 42, 52
3, 1167360, Note_on_c, 0, 54, 52
3, 1167519, Note_on_c, 0, 54, 0
3, 1167519, Note_on_c, 0, 42, 0
3, 1167519, Note_on_c, 0, 48, 52
3, 1167519, Note_on_c, 0, 51, 52
3, 1167680, Note_on_c, 0, 51, 0
3, 1167680, Note_on_c, 0, 48, 0
3, 1167840, Note_on_c, 0, 43, 52
3, 1167840, Note_on_c, 0, 55, 52
3, 1167999, Note_on_c, 0, 55, 0
3, 1167999, Note_on_c, 0, 43, 0
3, 1167999, Note_on_c, 0, 46, 52
3, 1167999, Note_on_c, 0, 50, 52
3, 1168160, Note_on_c, 0, 50, 0
3, 1168160, Note_on_c, 0, 46, 0
3, 1168320, Control_c, 0, 64, 127
3, 1168320, Note_on_c, 0, 40, 52
3, 1168320, Note_on_c, 0, 52, 52
3, 1168479, Note_on_c, 0, 52, 0
3, 1168479, Note_on_c, 0, 40, 0
3, 1168479, Note_on_c, 0, 43, 52
3, 1168479, Note_on_c, 0, 46, 52
3, 1168640, Note_on_c, 0, 46, 0
3, 1168640, Note_on_c, 0, 43, 0
3, 1168800, Note_on_c, 0, 52, 52
3, 1168800, Note_on_c, 0, 61, 52
3, 1168959, Note_on_c, 0, 61, 0
3, 1168959, Note_on_c, 0, 52, 0
3, 1168959, Note_on_c, 0, 55, 52
3, 1168959, Note_on_c, 0, 58, 52
3, 1169120, Note_on_c, 0, 58, 0
3, 1169120, Note_on_c, 0, 55, 0
3, 1169120, Control_c, 0, 64, 0
3, 1169280, Control_c, 0, 64, 127
3, 1169280, Note_on_c, 0, 41, 52
3, 1169280, Note_on_c, 0, 53, 52
3, 1169439, Note_on_c, 0, 53, 0
3, 1169439, Note_on_c, 0, 41, 0
3, 1169439, Note_on_c, 0, 45, 52
3, 1169439, Note_on_c, 0, 50, 52
3, 1169600, Note_on_c, 0, 50, 0
3, 1169600, Note_on_c, 0, 45, 0
3, 1169760, Note_on_c, 0, 53, 52
3, 1169760, Note_on_c, 0, 62, 52
3, 1169919, Note_on_c, 0, 62, 0
3, 1169919, Note_on_c, 0, 53, 0
3, 1169919, Note_on_c, 0, 57, 52
3, 1170080, Note_on_c, 0, 57, 0
3, 1170080, Control_c, 0, 64, 0
3, 1170240, Control_c, 0, 64, 127
3, 1170240, Note_on_c, 0, 42, 52
3, 1170240, Note_on_c, 0, 54, 52
3, 1170399, Note_on_c, 0, 54, 0
3, 1170399, Note_on_c, 0, 42, 0
3, 1170399, Note_on_c, 0, 45, 52
3, 1170399, Note_on_c, 0, 50, 52
3, 1170560, Note_on_c, 0, 50, 0
3, 1170560, Note_on_c, 0, 45, 0
3, 1170720, Note_on_c, 0, 54, 52
3, 1170720, Note_on_c, 0, 62, 52
3, 1170879, Note_on_c, 0, 62, 0
3, 1170879, Note_on_c, 0, 54, 0
3, 1170879, Note_on_c, 0, 57, 52
3, 1171040, Note_on_c, 0, 57, 0
3, 1171040, Control_c, 0, 64, 0
3, 1171200, Control_c, 0, 64, 127
3, 1171200, Note_on_c, 0, 43, 52
3, 1171200, Note_on_c, 0, 55, 52
3, 1171359, Note_on_c, 0, 55, 0
3, 1171359, Note_on_c, 0, 43, 0
3, 1171359, Note_on_c, 0, 46, 52
3, 1171359, Note_on_c, 0, 50, 52
3, 1171520, Note_on_c, 0, 50, 0
3, 1171520, Note_on_c, 0, 46, 0
3, 1171680, Note_on_c, 0, 55, 52
3, 1171680, Note_on_c, 0, 62, 52
3, 1171839, Note_on_c, 0, 62, 0
3, 1171839, Note_on_c, 0, 55, 0
3, 1171839, Note_on_c, 0, 58, 52
3, 1172000, Note_on_c, 0, 58, 0
3, 1172000, Control_c, 0, 64, 0
3, 1172160, Note_on_c, 0, 48, 52
3, 1172160, Note_on_c, 0, 60, 52
3, 1172640, Note_on_c, 0, 60, 0
3, 1172640, Note_on_c, 0, 48, 0
3, 1172640, Note_on_c, 0, 46, 52
3, 1172640, Note_on_c, 0, 48, 52
3, 1172640, Note_on_c, 0, 58, 52
3, 1173120, Note_on_c, 0, 58, 0
3, 1173120, Note_on_c, 0, 48, 0
3, 1173120, Note_on_c, 0, 46, 0
3, 1173120, Note_on_c, 0, 45, 52
3, 1173120, Note_on_c, 0, 48, 52
3, 1173120, Note_on_c, 0, 57, 52
3, 1173600, Note_on_c, 0, 57, 0
3, 1173600, Note_on_c, 0, 48, 0
3, 1173600, Note_on_c, 0, 45, 0
3, 1173600, Note_on_c, 0, 41, 52
3, 1173600, Note_on_c, 0, 48, 52
3, 1173600, Note_on_c, 0, 53, 52
3, 1174080, Note_on_c, 0, 53, 0
3, 1174080, Note_on_c, 0, 48, 0
3, 1174080, Note_on_c, 0, 41, 0
3, 1174080, Note_on_c, 0, 46, 52
3, 1174080, Note_on_c, 0, 53, 52
3, 1174080, Note_on_c, 0, 58, 52
3, 1174320, Note_on_c, 0, 58, 0
3, 1174320, Note_on_c, 0, 53, 0
3, 1174320, Note_on_c, 0, 46, 0
3, 1174560, Note_on_c, 0, 50, 39
3, 1174560, Note_on_c, 0, 62, 39
3, 1174800, Note_on_c, 0, 62, 0
3, 1174800, Note_on_c, 0, 50, 0
3, 1174800, Note_on_c, 0, 53, 39
3, 1174800, Note_on_c, 0, 58, 39
3, 1175040, Note_on_c, 0, 58, 0
3, 1175040, Note_on_c, 0, 53, 0
3, 1175040, Note_on_c, 0, 49, 52
3, 1175040, Note_on_c, 0, 61, 52
3, 1175280, Note_on_c, 0, 61, 0
3, 1175280, Note_on_c, 0, 49, 0
3, 1175280, Note_on_c, 0, 52, 52
3, 1175280, Note_on_c, 0, 58, 52
3, 1175520, Note_on_c, 0, 58, 0
3, 1175520, Note_on_c, 0, 52, 0
3, 1175520, Note_on_c, 0, 48, 52
3, 1175520, Note_on_c, 0, 60, 52
3, 1175760, Note_on_c, 0, 60, 0
3, 1175760, Note_on_c, 0, 48, 0
3, 1175760, Note_on_c, 0, 54, 52
3, 1175760, Note_on_c, 0, 57, 52
3, 1176000, Note_on_c, 0, 57, 0
3, 1176000, Note_on_c, 0, 54, 0
3, 1176000, Note_on_c, 0, 42, 78
3, 1176000, Note_on_c, 0, 54, 78
3, 1176240, Note_on_c, 0, 54, 0
3, 1176240, Note_on_c, 0, 42, 0
3, 1176240, Note_on_c, 0, 45, 52
3, 1176240, Note_on_c, 0, 50, 52
3, 1176480, Note_on_c, 0, 50, 0
3, 1176480, Note_on_c, 0, 45, 0
3, 1176480, Note_on_c, 0, 43, 52
3, 1176480, Note_on_c, 0, 55, 52
3, 1176720, Note_on_c, 0, 55, 0
3, 1176720, Note_on_c, 0, 43, 0
3, 1176720, Note_on_c, 0, 46, 52
3, 1176720, Note_on_c, 0, 50, 52
3, 1176960, Note_on_c, 0, 50, 0
3, 1176960, Note_on_c, 0, 46, 0
3, 1176960, Note_on_c, 0, 55, 52
3, 1177119, Note_on_c, 0, 55, 0
3, 1177119, Note_on_c, 0, 46, 52
3, 1177280, Note_on_c, 0, 46, 0
3, 1177280, Note_on_c, 0, 43, 52
3, 1177440, Note_on_c, 0, 43, 0
3, 1177440, Note_on_c, 0, 54, 52
3, 1177599, Note_on_c, 0, 54, 0
3, 1177599, Note_on_c, 0, 46, 52
3, 1177760, Note_on_c, 0, 46, 0
3, 1177760, Note_on_c, 0, 42, 52
3, 1177920, Note_on_c, 0, 42, 0
3, 1177920, Note_on_c, 0, 53, 52
3, 1178079, Note_on_c, 0, 53, 0
3, 1178079, Note_on_c, 0, 45, 52
3, 1178240, Note_on_c, 0, 45, 0
3, 1178240, Note_on_c, 0, 41, 52
3, 1178400, Note_on_c, 0, 41, 0
3, 1178400, Control_c, 0, 64, 127
3, 1178400, Note_on_c, 0, 40, 52
3, 1178559, Note_on_c, 0, 40, 0
3, 1178559, Note_on_c, 0, 43, 52
3, 1178720, Note_on_c, 0, 43, 0
3, 1178720, Note_on_c, 0, 52, 52
3, 1178880, Note_on_c, 0, 52, 0
3, 1178880, Note_on_c, 0, 52, 52
3, 1178880, Note_on_c, 0, 55, 52
3, 1179120, Note_on_c, 0, 55, 0
3, 1179120, Note_on_c, 0, 52, 0
3, 1179120, Control_c, 0, 64, 0
3, 1179360, Control_c, 0, 64, 127
3, 1179360, Note_on_c, 0, 39, 52
3, 1179519, Note_on_c, 0, 39, 0
3, 1179519, Note_on_c, 0, 43, 52
3, 1179680, Note_on_c, 0, 43, 0
3, 1179680, Note_on_c, 0, 51, 52
3, 1179840, Note_on_c, 0, 51, 0
3, 1179840, Note_on_c, 0, 51, 52
3, 1179840, Note_on_c, 0, 55, 52
3, 1180080, Note_on_c, 0, 55, 0
3, 1180080, Note_on_c, 0, 51, 0
3, 1180080, Control_c, 0, 64, 0
3, 1180320, Control_c, 0, 64, 127
3, 1180320, Note_on_c, 0, 38, 52
3, 1180479, Note_on_c, 0, 38, 0
3, 1180479, Note_on_c, 0, 41, 52
3, 1180640, Note_on_c, 0, 41, 0
3, 1180640, Note_on_c, 0, 50, 52
3, 1180800, Note_on_c, 0, 50, 0
3, 1180800, Note_on_c, 0, 50, 52
3, 1180800, Note_on_c, 0, 53, 52
3, 1181040, Note_on_c, 0, 53, 0
3, 1181040, Note_on_c, 0, 50, 0
3, 1181040, Control_c, 0, 64, 0
3, 1181280, Control_c, 0, 64, 127
3, 1181280, Note_on_c, 0, 37, 52
3, 1181439, Note_on_c, 0, 37, 0
3, 1181439, Note_on_c, 0, 43, 52
3, 1181600, Note_on_c, 0, 43, 0
3, 1181600, Note_on_c, 0, 49, 52
3, 1181760, Note_on_c, 0, 49, 0
3, 1181760, Note_on_c, 0, 49, 52
3, 1181760, Note_on_c, 0, 55, 52
3, 1182000, Note_on_c, 0, 55, 0
3, 1182000, Note_on_c, 0, 49, 0
3, 1182240, Note_on_c, 0, 48, 52
3, 1182240, Note_on_c, 0, 60, 52
3, 1182399, Note_on_c, 0, 60, 0
3, 1182399, Note_on_c, 0, 48, 0
3, 1182399, Note_on_c, 0, 52, 52
3, 1182399, Note_on_c, 0, 55, 52
3, 1182560, Note_on_c, 0, 55, 0
3, 1182560, Note_on_c, 0, 52, 0
3, 1182720, Note_on_c, 0, 42, 52
3, 1182720, Note_on_c, 0, 54, 52
3, 1182879, Note_on_c, 0, 54, 0
3, 1182879, Note_on_c, 0, 42, 0
3, 1182879, Note_on_c, 0, 48, 52
3, 1182879, Note_on_c, 0, 51, 52
3, 1183040, Note_on_c, 0, 51, 0
3, 1183040, Note_on_c, 0, 48, 0
3, 1183200, Note_on_c, 0, 43, 52
3, 1183200, Note_on_c, 0, 55, 52
3, 1183359, Note_on_c, 0, 55, 0
3, 1183359, Note_on_c, 0, 43, 0
3, 1183359, Note_on_c, 0, 46, 52
3, 1183359, Note_on_c, 0, 50, 52
3, 1183520, Note_on_c, 0, 50, 0
3, 1183520, Note_on_c, 0, 46, 0
3, 1183680, Control_c, 0, 64, 127
3, 1183680, Note_on_c, 0, 40, 52
3, 1183680, Note_on_c, 0, 52, 52
3, 1183839, Note_on_c, 0, 52, 0
3, 1183839, Note_on_c, 0, 40, 0
3, 1183839, Note_on_c, 0, 43, 52
3, 1183839, Note_on_c, 0, 46, 52
3, 1184000, Note_on_c, 0, 46, 0
3, 1184000, Note_on_c, 0, 43, 0
3, 1184160, Note_on_c, 0, 52, 52
3, 1184160, Note_on_c, 0, 61, 52
3, 1184319, Note_on_c, 0, 61, 0
3, 1184319, Note_on_c, 0, 52, 0
3, 1184319, Note_on_c, 0, 55, 52
3, 1184319, Note_on_c, 0, 58, 52
3, 1184480, Note_on_c, 0, 58, 0
3, 1184480, Note_on_c, 0, 55, 0
3, 1184480, Control_c, 0, 64, 0
3, 1184640, Control_c, 0, 64, 127
3, 1184640, Note_on_c, 0, 41, 52
3, 1184640, Note_on_c, 0, 53, 52
3, 1184799, Note_on_c, 0, 53, 0
3, 1184799, Note_on_c, 0, 41, 0
3, 1184799, Note_on_c, 0, 45, 52
3, 1184799, Note_on_c, 0, 50, 52
3, 1184960, Note_on_c, 0, 50, 0
3, 1184960, Note_on_c, 0, 45, 0
3, 1185120, Note_on_c, 0, 53, 52
3, 1185120, Note_on_c, 0, 62, 52
3, 1185279, Note_on_c, 0, 62, 0
3, 1185279, Note_on_c, 0, 53, 0
3, 1185279, Note_on_c, 0, 57, 52
3, 1185440, Note_on_c, 0, 57, 0
3, 1185440, Control_c, 0, 64, 0
3, 1185600, Control_c, 0, 64, 127
3, 1185600, Note_on_c, 0, 42, 52
3, 1185600, Note_on_c, 0, 54, 52
3, 1185759, Note_on_c, 0, 54, 0
3, 1185759, Note_on_c, 0, 42, 0
3, 1185759, Note_on_c, 0, 45, 52
3, 1185759, Note_on_c, 0, 50, 52
3, 1185920, Note_on_c, 0, 50, 0
3, 1185920, Note_on_c, 0, 45, 0
3, 1186080, Note_on_c, 0, 54, 52
3, 1186080, Note_on_c, 0, 62, 52
3, 1186239, Note_on_c, 0, 62, 0
3, 1186239, Note_on_c, 0, 54, 0
3, 1186239, Note_on_c, 0, 57, 52
3, 1186400, Note_on_c, 0, 57, 0
3, 1186400, Control_c, 0, 64, 0
3, 1186560, Control_c, 0, 64, 127
3, 1186560, Note_on_c, 0, 43, 52
3, 1186560, Note_on_c, 0, 55, 52
3, 1186719, Note_on_c, 0, 55, 0
3, 1186719, Note_on_c, 0, 43, 0
3, 1186719, Note_on_c, 0, 46, 52
3, 1186719, Note_on_c, 0, 50, 52
3, 1186880, Note_on_c, 0, 50, 0
3, 1186880, Note_on_c, 0, 46, 0
3, 1187040, Note_on_c, 0, 55, 52
3, 1187040, Note_on_c, 0, 62, 52
3, 1187199, Note_on_c, 0, 62, 0
3, 1187199, Note_on_c, 0, 55, 0
3, 1187199, Note_on_c, 0, 58, 52
3, 1187360, Note_on_c, 0, 58, 0
3, 1187360, Control_c, 0, 64, 0
3, 1187520, Note_on_c, 0, 31, 65
3, 1187520, Note_on_c, 0, 43, 65
3, 1188000, Note_on_c, 0, 43, 0
3, 1188000, Note_on_c, 0, 31, 0
3, 1188000, Note_on_c, 0, 55, 65
3, 1188000, Note_on_c, 0, 58, 65
3, 1188000, Note_on_c, 0, 63, 65
3, 1188000, Note_on_c, 0, 67, 65
3, 1188240, Note_on_c, 0, 67, 0
3, 1188240, Note_on_c, 0, 55, 0
3, 1188240, Note_on_c, 0, 58, 0
3, 1188240, Note_on_c, 0, 63, 0
3, 1188480, Note_on_c, 0, 32, 65
3, 1188480, Note_on_c, 0, 44, 65
3, 1188960, Note_on_c, 0, 44, 0
3, 1188960, Note_on_c, 0, 32, 0
3, 1188960, Note_on_c, 0, 56, 65
3, 1188960, Note_on_c, 0, 60, 65
3, 1188960, Note_on_c, 0, 63, 65
3, 1188960, Note_on_c, 0, 68, 65
3, 1189200, Note_on_c, 0, 68, 0
3, 1189200, Note_on_c, 0, 56, 0
3, 1189200, Note_on_c, 0, 60, 0
3, 1189200, Note_on_c, 0, 63, 0
3, 1189440, Note_on_c, 0, 33, 65
3, 1189440, Note_on_c, 0, 45, 65
3, 1189920, Note_on_c, 0, 45, 0
3, 1189920, Note_on_c, 0, 33, 0
3, 1189920, Note_on_c, 0, 57, 65
3, 1189920, Note_on_c, 0, 60, 65
3, 1189920, Note_on_c, 0, 65, 65
3, 1189920, Note_on_c, 0, 69, 65
3, 1190160, Note_on_c, 0, 69, 0
3, 1190160, Note_on_c, 0, 57, 0
3, 1190160, Note_on_c, 0, 60, 0
3, 1190160, Note_on_c, 0, 65, 0
3, 1190400, Note_on_c, 0, 34, 65
3, 1190400, Note_on_c, 0, 46, 65
3, 1190880, Note_on_c, 0, 46, 0
3, 1190880, Note_on_c, 0, 34, 0
3, 1190880, Note_on_c, 0, 58, 65
3, 1190880, Note_on_c, 0, 62, 65
3, 1190880, Note_on_c, 0, 65, 65
3, 1190880, Note_on_c, 0, 70, 65
3, 1191120, Note_on_c, 0, 70, 0
3, 1191120, Note_on_c, 0, 58, 0
3, 1191120, Note_on_c, 0, 62, 0
3, 1191120, Note_on_c, 0, 65, 0
3, 1191360, Note_on_c, 0, 35, 65
3, 1191360, Note_on_c, 0, 47, 65
3, 1191840, Note_on_c, 0, 47, 0
3, 1191840, Note_on_c, 0, 35, 0
3, 1191840, Note_on_c, 0, 59, 65
3, 1191840, Note_on_c, 0, 62, 65
3, 1191840, Note_on_c, 0, 67, 65
3, 1191840, Note_on_c, 0, 71, 65
3, 1192080, Note_on_c, 0, 71, 0
3, 1192080, Note_on_c, 0, 59, 0
3, 1192080, Note_on_c, 0, 62, 0
3, 1192080, Note_on_c, 0, 67, 0
3, 1192320, Note_on_c, 0, 36, 65
3, 1192320, Note_on_c, 0, 48, 65
3, 1192800, Note_on_c, 0, 48, 0
3, 1192800, Note_on_c, 0, 36, 0
3, 1192800, Note_on_c, 0, 60, 65
3, 1192800, Note_on_c, 0, 63, 65
3, 1192800, Note_on_c, 0, 67, 65
3, 1192800, Note_on_c, 0, 72, 65
3, 1193040, Note_on_c, 0, 72, 0
3, 1193040, Note_on_c, 0, 60, 0
3, 1193040, Note_on_c, 0, 63, 0
3, 1193040, Note_on_c, 0, 67, 0
3, 1193280, Note_on_c, 0, 37, 65
3, 1193280, Note_on_c, 0, 49, 65
3, 1193760, Note_on_c, 0, 49, 0
3, 1193760, Note_on_c, 0, 37, 0
3, 1193760, Note_on_c, 0, 61, 65
3, 1193760, Note_on_c, 0, 64, 65
3, 1193760, Note_on_c, 0, 69, 65
3, 1193760, Note_on_c, 0, 73, 65
3, 1194000, Note_on_c, 0, 73, 0
3, 1194000, Note_on_c, 0, 61, 0
3, 1194000, Note_on_c, 0, 64, 0
3, 1194000, Note_on_c, 0, 69, 0
3, 1194240, Note_on_c, 0, 38, 65
3, 1194240, Note_on_c, 0, 50, 65
3, 1194720, Note_on_c, 0, 50, 0
3, 1194720, Note_on_c, 0, 38, 0
3, 1194720, Note_on_c, 0, 62, 65
3, 1194720, Note_on_c, 0, 65, 65
3, 1194720, Note_on_c, 0, 69, 65
3, 1194720, Note_on_c, 0, 74, 65
3, 1194960, Note_on_c, 0, 74, 0
3, 1194960, Note_on_c, 0, 62, 0
3, 1194960, Note_on_c, 0, 65, 0
3, 1194960, Note_on_c, 0, 69, 0
3, 1195200, Control_c, 0, 64, 127
3, 1195200, Note_on_c, 0, 38, 65
3, 1195200, Note_on_c, 0, 50, 65
3, 1195440, Note_on_c, 0, 50, 0
3, 1195440, Note_on_c, 0, 38, 0
3, 1195680, Note_on_c, 0, 62, 65
3, 1195680, Note_on_c, 0, 65, 65
3, 1195680, Note_on_c, 0, 70, 65
3, 1195680, Note_on_c, 0, 74, 65
3, 1195920, Note_on_c, 0, 74, 0
3, 1195920, Note_on_c, 0, 62, 0
3, 1195920, Note_on_c, 0, 65, 0
3, 1195920, Note_on_c, 0, 70, 0
3, 1196160, Control_c, 0, 64, 0
3, 1196160, Note_on_c, 0, 51, 78
3, 1196160, Note_on_c, 0, 54, 78
3, 1196160, Note_on_c, 0, 58, 78
3, 1196160, Note_on_c, 0, 63, 78
3, 1196319, Note_on_c, 0, 63, 0
3, 1196319, Note_on_c, 0, 51, 0
3, 1196319, Note_on_c, 0, 54, 0
3, 1196319, Note_on_c, 0, 58, 0
3, 1196319, Control_c, 0, 64, 127
3, 1196319, Note_on_c, 0, 39, 78
3, 1196480, Note_on_c, 0, 39, 0
3, 1196480, Note_on_c, 0, 42, 78
3, 1196640, Note_on_c, 0, 42, 0
3, 1196640, Note_on_c, 0, 46, 78
3, 1196799, Note_on_c, 0, 46, 0
3, 1196799, Note_on_c, 0, 51, 78
3, 1196960, Note_on_c, 0, 51, 0
3, 1199040, Control_c, 0, 64, 0
3, 1200159, Control_c, 0, 64, 127
3, 1200159, Note_on_c, 0, 39, 78
3, 1200320, Note_on_c, 0, 39, 0
3, 1200320, Note_on_c, 0, 42, 78
3, 1200480, Note_on_c, 0, 42, 0
3, 1200480, Note_on_c, 0, 46, 78
3, 1200639, Note_on_c, 0, 46, 0
3, 1200639, Note_on_c, 0, 51, 78
3, 1200639, Note_on_c, 0, 54, 78
3, 1200800, Note_on_c, 0, 54, 0
3, 1200800, Note_on_c, 0, 51, 0
3, 1200800, Note_on_c, 0, 58, 78
3, 1200960, Note_on_c, 0, 58, 0
3, 1202880, Control_c, 0, 64, 0
3, 1203999, Control_c, 0, 64, 127
3, 1203999, Note_on_c, 0, 39, 78
3, 1204160, Note_on_c, 0, 39, 0
3, 1204160, Note_on_c, 0, 42, 78
3, 1204320, Note_on_c, 0, 42, 0
3, 1204320, Note_on_c, 0, 46, 78
3, 1204479, Note_on_c, 0, 46, 0
3, 1204479, Note_on_c, 0, 51, 78
3, 1204479, Note_on_c, 0, 54, 78
3, 1204640, Note_on_c, 0, 54, 0
3, 1204640, Note_on_c, 0, 51, 0
3, 1204640, Note_on_c, 0, 58, 78
3, 1204800, Note_on_c, 0, 58, 0
3, 1205760, Control_c, 0, 64, 0
3, 1208160, Control_c, 0, 64, 0
3, 1208160, Note_on_c, 0, 52, 104
3, 1208160, Note_on_c, 0, 58, 104
3, 1208160, Note_on_c, 0, 61, 104
3, 1208160, Note_on_c, 0, 66, 104
3, 1208640, Note_on_c, 0, 66, 0
3, 1208640, Note_on_c, 0, 52, 0
3, 1208640, Note_on_c, 0, 58, 0
3, 1208640, Note_on_c, 0, 61, 0
3, 1208640, Control_c, 0, 64, 127
3, 1208640, Note_on_c, 0, 53, 104
3, 1208640, Note_on_c, 0, 58, 104
3, 1208640, Note_on_c, 0, 62, 104
3, 1208640, Note_on_c, 0, 65, 104
3, 1209120, Note_on_c, 0, 65, 0
3, 1209120, Note_on_c, 0, 53, 0
3, 1209120, Note_on_c, 0, 58, 0
3, 1209120, Note_on_c, 0, 62, 0
3, 1209120, Note_on_c, 0, 70, 78
3, 1209120, Note_on_c, 0, 74, 78
3, 1209120, Note_on_c, 0, 77, 78
3, 1209279, Note_on_c, 0, 77, 0
3, 1209279, Note_on_c, 0, 74, 0
3, 1209279, Note_on_c, 0, 70, 0
3, 1209279, Note_on_c, 0, 82, 78
3, 1209440, Note_on_c, 0, 82, 0
3, 1209600, Note_on_c, 0, 65, 78
3, 1209600, Note_on_c, 0, 70, 78
3, 1209600, Note_on_c, 0, 74, 78
3, 1209759, Note_on_c, 0, 74, 0
3, 1209759, Note_on_c, 0, 70, 0
3, 1209759, Note_on_c, 0, 65, 0
3, 1209759, Note_on_c, 0, 77, 78
3, 1209920, Note_on_c, 0, 77, 0
3, 1210080, Note_on_c, 0, 62, 78
3, 1210080, Note_on_c, 0, 65, 78
3, 1210080, Note_on_c, 0, 70, 78
3, 1210239, Note_on_c, 0, 70, 0
3, 1210239, Note_on_c, 0, 65, 0
3, 1210239, Note_on_c, 0, 62, 0
3, 1210239, Note_on_c, 0, 74, 78
3, 1210400, Note_on_c, 0, 74, 0
3, 1210560, Note_on_c, 0, 58, 78
3, 1210560, Note_on_c, 0, 62, 78
3, 1210560, Note_on_c, 0, 65, 78
3, 1210719, Note_on_c, 0, 65, 0
3, 1210719, Note_on_c, 0, 62, 0
3, 1210719, Note_on_c, 0, 58, 0
3, 1210719, Note_on_c, 0, 70, 78
3, 1210880, Note_on_c, 0, 70, 0
3, 1211040, Note_on_c, 0, 53, 78
3, 1211040, Note_on_c, 0, 58, 78
3, 1211040, Note_on_c, 0, 62, 78
3, 1211199, Note_on_c, 0, 62, 0
3, 1211199, Note_on_c, 0, 58, 0
3, 1211199, Note_on_c, 0, 53, 0
3, 1211199, Note_on_c, 0, 65, 78
3, 1211360, Note_on_c, 0, 65, 0
3, 1211520, Note_on_c, 0, 50, 78
3, 1211520, Note_on_c, 0, 53, 78
3, 1211520, Note_on_c, 0, 58, 78
3, 1211679, Note_on_c, 0, 58, 0
3, 1211679, Note_on_c, 0, 53, 0
3, 1211679, Note_on_c, 0, 50, 0
3, 1211679, Note_on_c, 0, 62, 78
3, 1211840, Note_on_c, 0, 62, 0
3, 1212000, Note_on_c, 0, 46, 78
3, 1212000, Note_on_c, 0, 50, 78
3, 1212000, Note_on_c, 0, 53, 78
3, 1212159, Note_on_c, 0, 53, 0
3, 1212159, Note_on_c, 0, 50, 0
3, 1212159, Note_on_c, 0, 46, 0
3, 1212159, Note_on_c, 0, 58, 78
3, 1212320, Note_on_c, 0, 58, 0
3, 1212480, Control_c, 0, 64, 127
3, 1212480, Note_on_c, 0, 41, 78
3, 1212480, Note_on_c, 0, 53, 78
3, 1212960, Note_on_c, 0, 53, 0
3, 1212960, Note_on_c, 0, 41, 0
3, 1212960, Note_on_c, 0, 48, 78
3, 1212960, Note_on_c, 0, 60, 78
3, 1213440, Note_on_c, 0, 60, 0
3, 1213440, Note_on_c, 0, 48, 0
3, 1213440, Note_on_c, 0, 53, 78
3, 1213440, Note_on_c, 0, 65, 78
3, 1213920, Note_on_c, 0, 65, 0
3, 1213920, Note_on_c, 0, 53, 0
3, 1213920, Control_c, 0, 64, 0
3, 1213920, Note_on_c, 0, 60, 78
3, 1213920, Note_on_c, 0, 72, 78
3, 1214400, Note_on_c, 0, 72, 0
3, 1214400, Note_on_c, 0, 60, 0
3, 1214400, Control_c, 0, 64, 127
3, 1214400, Note_on_c, 0, 41, 78
3, 1214400, Note_on_c, 0, 53, 78
3, 1214880, Note_on_c, 0, 53, 0
3, 1214880, Note_on_c, 0, 41, 0
3, 1214880, Note_on_c, 0, 48, 78
3, 1214880, Note_on_c, 0, 60, 78
3, 1215360, Note_on_c, 0, 60, 0
3, 1215360, Note_on_c, 0, 48, 0
3, 1215360, Note_on_c, 0, 53, 78
3, 1215360, Note_on_c, 0, 65, 78
3, 1215840, Note_on_c, 0, 65, 0
3, 1215840, Note_on_c, 0, 53, 0
3, 1215840, Control_c, 0, 64, 0
3, 1215840, Note_on_c, 0, 60, 78
3, 1215840, Note_on_c, 0, 72, 78
3, 1216320, Note_on_c, 0, 72, 0
3, 1216320, Note_on_c, 0, 60, 0
3, 1216320, Note_on_c, 0, 58, 78
3, 1216320, Note_on_c, 0, 62, 78
3, 1216320, Note_on_c, 0, 65, 78
3, 1216320, Note_on_c, 0, 70, 78
3, 1216800, Note_on_c, 0, 70, 0
3, 1216800, Note_on_c, 0, 58, 0
3, 1216800, Note_on_c, 0, 62, 0
3, 1216800, Note_on_c, 0, 65, 0
3, 1216800, Control_c, 0, 64, 127
3, 1216800, Note_on_c, 0, 42, 104
3, 1216800, Note_on_c, 0, 46, 104
3, 1216800, Note_on_c, 0, 54, 104
3, 1217760, Note_on_c, 0, 54, 0
3, 1217760, Note_on_c, 0, 46, 0
3, 1217760, Note_on_c, 0, 42, 0
3, 1217760, Note_on_c, 0, 66, 78
3, 1217760, Note_on_c, 0, 70, 78
3, 1217760, Note_on_c, 0, 78, 78
3, 1218240, Note_on_c, 0, 78, 0
3, 1218240, Note_on_c, 0, 70, 0
3, 1218240, Note_on_c, 0, 66, 0
3, 1218240, Control_c, 0, 64, 0
3, 1218240, Note_on_c, 0, 70, 78
3, 1218240, Note_on_c, 0, 74, 78
3, 1218240, Note_on_c, 0, 77, 78
3, 1218240, Note_on_c, 0, 82, 78
3, 1218720, Note_on_c, 0, 82, 0
3, 1218720, Note_on_c, 0, 70, 0
3, 1218720, Note_on_c, 0, 74, 0
3, 1218720, Note_on_c, 0, 77, 0
3, 1218720, Note_on_c, 0, 52, 104
3, 1218720, Note_on_c, 0, 58, 104
3, 1218720, Note_on_c, 0, 61, 104
3, 1218720, Note_on_c, 0, 66, 104
3, 1219680, Note_on_c, 0, 66, 0
3, 1219680, Note_on_c, 0, 52, 0
3, 1219680, Note_on_c, 0, 58, 0
3, 1219680, Note_on_c, 0, 61, 0
3, 1219680, Note_on_c, 0, 40, 78
3, 1219680, Note_on_c, 0, 52, 78
3, 1220160, Note_on_c, 0, 52, 0
3, 1220160, Note_on_c, 0, 40, 0
3, 1220160, Note_on_c, 0, 46, 78
3, 1220160, Note_on_c, 0, 50, 78
3, 1220160, Note_on_c, 0, 53, 78
3, 1220160, Note_on_c, 0, 58, 78
3, 1220640, Note_on_c, 0, 58, 0
3, 1220640, Note_on_c, 0, 46, 0
3, 1220640, Note_on_c, 0, 50, 0
3, 1220640, Note_on_c, 0, 53, 0
3, 1220640, Control_c, 0, 64, 127
3, 1220640, Note_on_c, 0, 42, 104
3, 1220640, Note_on_c, 0, 46, 104
3, 1220640, Note_on_c, 0, 54, 104
3, 1221600, Note_on_c, 0, 54, 0
3, 1221600, Note_on_c, 0, 46, 0
3, 1221600, Note_on_c, 0, 42, 0
3, 1221600, Note_on_c, 0, 66, 78
3, 1221600, Note_on_c, 0, 70, 78
3, 1221600, Note_on_c, 0, 78, 78
3, 1222080, Note_on_c, 0, 78, 0
3, 1222080, Note_on_c, 0, 70, 0
3, 1222080, Note_on_c, 0, 66, 0
3, 1222080, Note_on_c, 0, 70, 78
3, 1222080, Note_on_c, 0, 74, 78
3, 1222080, Note_on_c, 0, 77, 78
3, 1222080, Note_on_c, 0, 82, 78
3, 1222560, Note_on_c, 0, 82, 0
3, 1222560, Note_on_c, 0, 70, 0
3, 1222560, Note_on_c, 0, 74, 0
3, 1222560, Note_on_c, 0, 77, 0
3, 1222560, Note_on_c, 0, 52, 104
3, 1222560, Note_on_c, 0, 58, 104
3, 1222560, Note_on_c, 0, 61, 104
3, 1222560, Note_on_c, 0, 66, 104
3, 1223520, Note_on_c, 0, 66, 0
3, 1223520, Note_on_c, 0, 52, 0
3, 1223520, Note_on_c, 0, 58, 0
3, 1223520, Note_on_c, 0, 61, 0
3, 1223520, Note_on_c, 0, 40, 78
3, 1223520, Note_on_c, 0, 52, 78
3, 1224000, Note_on_c, 0, 52, 0
3, 1224000, Note_on_c, 0, 40, 0
3, 1224000, Control_c, 0, 64, 0
3, 1224000, Note_on_c, 0, 46, 78
3, 1224000, Note_on_c, 0, 50, 78
3, 1224000, Note_on_c, 0, 53, 78
3, 1224000, Note_on_c, 0, 58, 78
3, 1224480, Note_on_c, 0, 58, 0
3, 1224480, Note_on_c, 0, 46, 0
3, 1224480, Note_on_c, 0, 50, 0
3, 1224480, Note_on_c, 0, 53, 0
3, 1224480, Note_on_c, 0, 52, 104
3, 1224480, Note_on_c, 0, 58, 104
3, 1224480, Note_on_c, 0, 61, 104
3, 1224480, Note_on_c, 0, 66, 104
3, 1225440, Note_on_c, 0, 66, 0
3, 1225440, Note_on_c, 0, 52, 0
3, 1225440, Note_on_c, 0, 58, 0
3, 1225440, Note_on_c, 0, 61, 0
3, 1225440, Note_on_c, 0, 40, 78
3, 1225440, Note_on_c, 0, 52, 78
3, 1225920, Note_on_c, 0, 52, 0
3, 1225920, Note_on_c, 0, 40, 0
3, 1225920, Note_on_c, 0, 46, 78
3, 1225920, Note_on_c, 0, 50, 78
3, 1225920, Note_on_c, 0, 53, 78
3, 1225920, Note_on_c, 0, 58, 78
3, 1226400, Note_on_c, 0, 58, 0
3, 1226400, Note_on_c, 0, 46, 0
3, 1226400, Note_on_c, 0, 50, 0
3, 1226400, Note_on_c, 0, 53, 0
3, 1226400, Note_on_c, 0, 52, 104
3, 1226400, Note_on_c, 0, 58, 104
3, 1226400, Note_on_c, 0, 61, 104
3, 1226400, Note_on_c, 0, 66, 104
3, 1227360, Note_on_c, 0, 66, 0
3, 1227360, Note_on_c, 0, 52, 0
3, 1227360, Note_on_c, 0, 58, 0
3, 1227360, Note_on_c, 0, 61, 0
3, 1227360, Note_on_c, 0, 40, 78
3, 1227360, Note_on_c, 0, 52, 78
3, 1227840, Note_on_c, 0, 52, 0
3, 1227840, Note_on_c, 0, 40, 0
3, 1227840, Note_on_c, 0, 46, 78
3, 1227840, Note_on_c, 0, 50, 78
3, 1227840, Note_on_c, 0, 53, 78
3, 1227840, Note_on_c, 0, 58, 78
3, 1228080, Note_on_c, 0, 58, 0
3, 1228080, Note_on_c, 0, 46, 0
3, 1228080, Note_on_c, 0, 50, 0
3, 1228080, Note_on_c, 0, 53, 0
3, 1231920, Note_on_c, 0, 33, 91
3, 1231920, Note_on_c, 0, 45, 91
3, 1232160, Note_on_c, 0, 45, 0
3, 1232160, Note_on_c, 0, 33, 0
3, 1232160, Note_on_c, 0, 34, 91
3, 1232160, Note_on_c, 0, 46, 91
3, 1232400, Note_on_c, 0, 46, 0
3, 1232400, Note_on_c, 0, 34, 0
3, 1232400, Note_on_c, 0, 37, 91
3, 1232400, Note_on_c, 0, 49, 91
3, 1232640, Note_on_c, 0, 49, 0
3, 1232640, Note_on_c, 0, 37, 0
3, 1232640, Note_on_c, 0, 38, 91
3, 1232640, Note_on_c, 0, 50, 91
3, 1232880, Note_on_c, 0, 50, 0
3, 1232880, Note_on_c, 0, 38, 0
3, 1232880, Note_on_c, 0, 37, 91
3, 1232880, Note_on_c, 0, 49, 91
3, 1233120, Note_on_c, 0, 49, 0
3, 1233120, Note_on_c, 0, 37, 0
3, 1233120, Note_on_c, 0, 38, 91
3, 1233120, Note_on_c, 0, 50, 91
3, 1233360, Note_on_c, 0, 50, 0
3, 1233360, Note_on_c, 0, 38, 0
3, 1233360, Note_on_c, 0, 39, 91
3, 1233600, Note_on_c, 0, 39, 0
3, 1233600, Note_on_c, 0, 41, 91
3, 1233840, Note_on_c, 0, 41, 0
3, 1233840, Note_on_c, 0, 40, 91
3, 1234080, Note_on_c, 0, 40, 0
3, 1234080, Note_on_c, 0, 41, 91
3, 1234320, Note_on_c, 0, 41, 0
3, 1234320, Note_on_c, 0, 45, 91
3, 1234560, Note_on_c, 0, 45, 0
3, 1234560, Control_c, 0, 64, 127
3, 1234560, Note_on_c, 0, 46, 91
3, 1234800, Note_on_c, 0, 46, 0
3, 1234800, Note_on_c, 0, 33, 91
3, 1234800, Note_on_c, 0, 45, 91
3, 1235040, Note_on_c, 0, 45, 0
3, 1235040, Note_on_c, 0, 33, 0
3, 1235040, Note_on_c, 0, 34, 91
3, 1235040, Note_on_c, 0, 46, 91
3, 1235280, Note_on_c, 0, 46, 0
3, 1235280, Note_on_c, 0, 34, 0
3, 1235280, Note_on_c, 0, 37, 91
3, 1235280, Note_on_c, 0, 49, 91
3, 1235520, Note_on_c, 0, 49, 0
3, 1235520, Note_on_c, 0, 37, 0
3, 1235520, Note_on_c, 0, 38, 91
3, 1235520, Note_on_c, 0, 50, 91
3, 1235760, Note_on_c, 0, 50, 0
3, 1235760, Note_on_c, 0, 38, 0
3, 1235760, Note_on_c, 0, 37, 91
3, 1235760, Note_on_c, 0, 49, 91
3, 1236000, Note_on_c, 0, 49, 0
3, 1236000, Note_on_c, 0, 37, 0
3, 1236000, Note_on_c, 0, 38, 91
3, 1236000, Note_on_c, 0, 50, 91
3, 1236240, Note_on_c, 0, 50, 0
3, 1236240, Note_on_c, 0, 38, 0
3, 1236240, Note_on_c, 0, 39, 91
3, 1236240, Note_on_c, 0, 51, 91
3, 1236480, Note_on_c, 0, 51, 0
3, 1236480, Note_on_c, 0, 39, 0
3, 1236480, Note_on_c, 0, 41, 91
3, 1236480, Note_on_c, 0, 53, 91
3, 1236720, Note_on_c, 0, 53, 0
3, 1236720, Note_on_c, 0, 41, 0
3, 1236720, Note_on_c, 0, 40, 91
3, 1236720, Note_on_c, 0, 52, 91
3, 1236960, Note_on_c, 0, 52, 0
3, 1236960, Note_on_c, 0, 40, 0
3, 1236960, Note_on_c, 0, 41, 91
3, 1236960, Note_on_c, 0, 53, 91
3, 1237200, Note_on_c, 0, 53, 0
3, 1237200, Note_on_c, 0, 41, 0
3, 1237200, Note_on_c, 0, 45, 91
3, 1237200, Note_on_c, 0, 57, 91
3, 1237440, Note_on_c, 0, 57, 0
3, 1237440, Note_on_c, 0, 45, 0
3, 1237440, Note_on_c, 0, 46, 91
3, 1237440, Note_on_c, 0, 58, 91
3, 1237680, Note_on_c, 0, 58, 0
3, 1237680, Note_on_c, 0, 46, 0
3, 1237680, Note_on_c, 0, 45, 91
3, 1237680, Note_on_c, 0, 57, 91
3, 1237920, Note_on_c, 0, 57, 0
3, 1237920, Note_on_c, 0, 45, 0
3, 1237920, Note_on_c, 0, 46, 91
3, 1237920, Note_on_c, 0, 58, 91
3, 1238160, Note_on_c, 0, 58, 0
3, 1238160, Note_on_c, 0, 46, 0
3, 1238160, Note_on_c, 0, 49, 91
3, 1238160, Note_on_c, 0, 61, 91
3, 1238400, Note_on_c, 0, 61, 0
3, 1238400, Note_on_c, 0, 49, 0
3, 1238400, Note_on_c, 0, 50, 91
3, 1238400, Note_on_c, 0, 62, 91
3, 1238640, Note_on_c, 0, 62, 0
3, 1238640, Note_on_c, 0, 50, 0
3, 1238640, Note_on_c, 0, 51, 91
3, 1238640, Note_on_c, 0, 63, 91
3, 1238880, Note_on_c, 0, 63, 0
3, 1238880, Note_on_c, 0, 51, 0
3, 1238880, Note_on_c, 0, 52, 91
3, 1238880, Note_on_c, 0, 64, 91
3, 1239120, Note_on_c, 0, 64, 0
3, 1239120, Note_on_c, 0, 52, 0
3, 1239120, Note_on_c, 0, 53, 91
3, 1239120, Note_on_c, 0, 65, 91
3, 1239360, Note_on_c, 0, 65, 0
3, 1239360, Note_on_c, 0, 53, 0
3, 1239360, Note_on_c, 0, 58, 91
3, 1239360, Note_on_c, 0, 70, 91
3, 1239840, Note_on_c, 0, 70, 0
3, 1239840, Note_on_c, 0, 58, 0
3, 1239840, Control_c, 0, 64, 0
3, 1240320, Control_c, 0, 64, 127
3, 1240320, Note_on_c, 0, 46, 91
3, 1240320, Note_on_c, 0, 53, 91
3, 1240320, Note_on_c, 0, 58, 91
3, 1240320, Note_on_c, 0, 62, 91
3, 1240800, Note_on_c, 0, 62, 0
3, 1240800, Note_on_c, 0, 46, 0
3, 1240800, Note_on_c, 0, 53, 0
3, 1240800, Note_on_c, 0, 58, 0
3, 1241280, Note_on_c, 0, 46, 91
3, 1241280, Note_on_c, 0, 53, 91
3, 1241280, Note_on_c, 0, 58, 91
3, 1241280, Note_on_c, 0, 62, 91
3, 1241760, Note_on_c, 0, 62, 0
3, 1241760, Note_on_c, 0, 46, 0
3, 1241760, Note_on_c, 0, 53, 0
3, 1241760, Note_on_c, 0, 58, 0
3, 1242240, Note_on_c, 0, 46, 91
3, 1242240, Note_on_c, 0, 53, 91
3, 1242240, Note_on_c, 0, 58, 91
3, 1242240, Note_on_c, 0, 62, 91
3, 1242720, Note_on_c, 0, 62, 0
3, 1242720, Note_on_c, 0, 46, 0
3, 1242720, Note_on_c, 0, 53, 0
3, 1242720, Note_on_c, 0, 58, 0
3, 1243200, Control_c, 0, 64, 0
3, 1243200, Note_on_c, 0, 46, 91
3, 1243200, Note_on_c, 0, 53, 91
3, 1243200, Note_on_c, 0, 58, 91
3, 1243200, Note_on_c, 0, 62, 91
3, 1243680, Note_on_c, 0, 62, 0
3, 1243680, Note_on_c, 0, 46, 0
3, 1243680, Note_on_c, 0, 53, 0
3, 1243680, Note_on_c, 0, 58, 0
3, 1243680, Note_on_c, 0, 51, 117
3, 1243680, Note_on_c, 0, 55, 117
3, 1243680, Note_on_c, 0, 58, 117
3, 1243680, Note_on_c, 0, 63, 117
3, 1244160, Note_on_c, 0, 63, 0
3, 1244160, Note_on_c, 0, 51, 0
3, 1244160, Note_on_c, 0, 55, 0
3, 1244160, Note_on_c, 0, 58, 0
3, 1244160, Control_c, 0, 64, 127
3, 1244160, Note_on_c, 0, 46, 117
3, 1244160, Note_on_c, 0, 53, 117
3, 1244160, Note_on_c, 0, 58, 117
3, 1244160, Note_on_c, 0, 62, 117
3, 1244640, Note_on_c, 0, 62, 0
3, 1244640, Note_on_c, 0, 46, 0
3, 1244640, Note_on_c, 0, 53, 0
3, 1244640, Note_on_c, 0, 58, 0
3, 1245120, Note_on_c, 0, 34, 117
3, 1245120, Note_on_c, 0, 46, 117
3, 1247040, Control_c, 0, 64, 0
3, 1249920, Note_on_c, 0, 46, 0
3, 1249920, Note_on_c, 0, 34, 0
3, 1249920, End_track
4, 0, Start_track
4, 0, Title_t, "Grand Piano"
4, 0, Program_c, 0, 0
4, 0, Control_c, 0, 7, 115
4, 0, Control_c, 0, 10, 48
4, 720, Note_on_c, 0, 65, 99
4, 960, Note_on_c, 0, 65, 0
4, 960, Note_on_c, 0, 61, 99
4, 1200, Note_on_c, 0, 61, 0
4, 1200, Note_on_c, 0, 60, 99
4, 1440, Note_on_c, 0, 60, 0
4, 1440, Note_on_c, 0, 58, 99
4, 2160, Note_on_c, 0, 58, 0
4, 2160, Note_on_c, 0, 65, 99
4, 2400, Note_on_c, 0, 65, 0
4, 2400, Note_on_c, 0, 61, 99
4, 2640, Note_on_c, 0, 61, 0
4, 2640, Note_on_c, 0, 60, 99
4, 2880, Note_on_c, 0, 60, 0
4, 2880, Note_on_c, 0, 58, 99
4, 3600, Note_on_c, 0, 58, 0
4, 3600, Note_on_c, 0, 65, 99
4, 3840, Note_on_c, 0, 65, 0
4, 3840, Note_on_c, 0, 61, 99
4, 4080, Note_on_c, 0, 61, 0
4, 4080, Note_on_c, 0, 60, 99
4, 4320, Note_on_c, 0, 60, 0
4, 4320, Note_on_c, 0, 58, 99
4, 4710, Note_on_c, 0, 70, 73
4, 4740, Note_on_c, 0, 72, 73
4, 4770, Note_on_c, 0, 75, 73
4, 4800, Note_on_c, 0, 58, 0
4, 4800, Note_on_c, 0, 82, 73
4, 5200, Note_on_c, 0, 68, 73
4, 5240, Note_on_c, 0, 73, 73
4, 5280, Note_on_c, 0, 82, 0
4, 5280, Note_on_c, 0, 70, 0
4, 5280, Note_on_c, 0, 75, 0
4, 5280, Note_on_c, 0, 72, 0
4, 5280, Note_on_c, 0, 80, 73
4, 5670, Note_on_c, 0, 70, 73
4, 5700, Note_on_c, 0, 73, 73
4, 5730, Note_on_c, 0, 78, 73
4, 5760, Note_on_c, 0, 80, 0
4, 5760, Note_on_c, 0, 68, 0
4, 5760, Note_on_c, 0, 73, 0
4, 5760, Control_c, 0, 64, 127
4, 5760, Note_on_c, 0, 82, 73
4, 6150, Note_on_c, 0, 70, 73
4, 6180, Note_on_c, 0, 73, 73
4, 6210, Note_on_c, 0, 79, 73
4, 6240, Note_on_c, 0, 82, 0
4, 6240, Note_on_c, 0, 70, 0
4, 6240, Note_on_c, 0, 78, 0
4, 6240, Note_on_c, 0, 73, 0
4, 6240, Note_on_c, 0, 82, 73
4, 6630, Note_on_c, 0, 72, 73
4, 6660, Note_on_c, 0, 75, 73
4, 6690, Note_on_c, 0, 80, 73
4, 6720, Note_on_c, 0, 82, 0
4, 6720, Note_on_c, 0, 79, 0
4, 6720, Note_on_c, 0, 73, 0
4, 6720, Note_on_c, 0, 70, 0
4, 6720, Control_c, 0, 64, 0
4, 6720, Note_on_c, 0, 84, 73
4, 7200, Note_on_c, 0, 84, 0
4, 7200, Note_on_c, 0, 75, 0
4, 7200, Note_on_c, 0, 72, 0
4, 7200, Note_on_c, 0, 80, 0
4, 7200, Note_on_c, 0, 73, 73
4, 7200, Note_on_c, 0, 77, 73
4, 7200, Note_on_c, 0, 80, 73
4, 7200, Note_on_c, 0, 85, 73
4, 7680, Note_on_c, 0, 85, 0
4, 7680, Note_on_c, 0, 73, 0
4, 7680, Note_on_c, 0, 77, 0
4, 7680, Note_on_c, 0, 80, 0
4, 9360, Note_on_c, 0, 56, 86
4, 9360, Note_on_c, 0, 68, 86
4, 9600, Note_on_c, 0, 68, 0
4, 9600, Note_on_c, 0, 56, 0
4, 9600, Note_on_c, 0, 53, 86
4, 9600, Note_on_c, 0, 65, 86
4, 9840, Note_on_c, 0, 65, 0
4, 9840, Note_on_c, 0, 53, 0
4, 9840, Note_on_c, 0, 51, 86
4, 9840, Note_on_c, 0, 63, 86
4, 10080, Note_on_c, 0, 63, 0
4, 10080, Note_on_c, 0, 51, 0
4, 10080, Note_on_c, 0, 49, 86
4, 10080, Note_on_c, 0, 53, 86
4, 10080, Note_on_c, 0, 61, 86
4, 10560, Note_on_c, 0, 61, 0
4, 10560, Note_on_c, 0, 53, 0
4, 10560, Note_on_c, 0, 49, 0
4, 10560, Note_on_c, 0, 65, 86
4, 10560, Note_on_c, 0, 77, 86
4, 11280, Note_on_c, 0, 77, 0
4, 11280, Note_on_c, 0, 65, 0
4, 11280, Note_on_c, 0, 63, 86
4, 11280, Note_on_c, 0, 75, 86
4, 11520, Note_on_c, 0, 75, 0
4, 11520, Note_on_c, 0, 63, 0
4, 11520, Note_on_c, 0, 66, 86
4, 11520, Note_on_c, 0, 78, 86
4, 12240, Note_on_c, 0, 78, 0
4, 12240, Note_on_c, 0, 66, 0
4, 12240, Note_on_c, 0, 65, 86
4, 12240, Note_on_c, 0, 77, 86
4, 12480, Note_on_c, 0, 77, 0
4, 12480, Note_on_c, 0, 65, 0
4, 12480, Note_on_c, 0, 60, 86
4, 12480, Note_on_c, 0, 72, 86
4, 12720, Note_on_c, 0, 72, 0
4, 12720, Note_on_c, 0, 60, 0
4, 12720, Note_on_c, 0, 61, 86
4, 12720, Note_on_c, 0, 73, 86
4, 12960, Note_on_c, 0, 73, 0
4, 12960, Note_on_c, 0, 61, 0
4, 12960, Note_on_c, 0, 58, 86
4, 12960, Note_on_c, 0, 70, 86
4, 13440, Note_on_c, 0, 70, 0
4, 13440, Note_on_c, 0, 58, 0
4, 13440, Note_on_c, 0, 63, 86
4, 13440, Note_on_c, 0, 75, 86
4, 14160, Note_on_c, 0, 75, 0
4, 14160, Note_on_c, 0, 63, 0
4, 14160, Note_on_c, 0, 65, 86
4, 14160, Note_on_c, 0, 77, 86
4, 14400, Note_on_c, 0, 77, 0
4, 14400, Note_on_c, 0, 65, 0
4, 14400, Note_on_c, 0, 58, 86
4, 14400, Note_on_c, 0, 70, 86
4, 15120, Note_on_c, 0, 70, 0
4, 15120, Note_on_c, 0, 58, 0
4, 15120, Note_on_c, 0, 63, 86
4, 15120, Note_on_c, 0, 75, 86
4, 15360, Note_on_c, 0, 75, 0
4, 15360, Note_on_c, 0, 63, 0
4, 15360, Note_on_c, 0, 60, 86
4, 15360, Note_on_c, 0, 72, 86
4, 15600, Note_on_c, 0, 72, 0
4, 15600, Note_on_c, 0, 60, 0
4, 15600, Note_on_c, 0, 58, 86
4, 15600, Note_on_c, 0, 70, 86
4, 15840, Note_on_c, 0, 70, 0
4, 15840, Note_on_c, 0, 58, 0
4, 15840, Note_on_c, 0, 56, 86
4, 15840, Note_on_c, 0, 68, 86
4, 16320, Note_on_c, 0, 68, 0
4, 16320, Note_on_c, 0, 56, 0
4, 16320, Note_on_c, 0, 63, 86
4, 16320, Note_on_c, 0, 75, 86
4, 17040, Note_on_c, 0, 75, 0
4, 17040, Note_on_c, 0, 63, 0
4, 17040, Note_on_c, 0, 65, 86
4, 17040, Note_on_c, 0, 77, 86
4, 17280, Note_on_c, 0, 77, 0
4, 17280, Note_on_c, 0, 65, 0
4, 17280, Note_on_c, 0, 68, 112
4, 17280, Note_on_c, 0, 80, 112
4, 18000, Note_on_c, 0, 80, 0
4, 18000, Note_on_c, 0, 68, 0
4, 18000, Note_on_c, 0, 63, 86
4, 18000, Note_on_c, 0, 75, 86
4, 18240, Note_on_c, 0, 75, 0
4, 18240, Note_on_c, 0, 63, 0
4, 18240, Note_on_c, 0, 63, 86
4, 18240, Note_on_c, 0, 75, 86
4, 18480, Note_on_c, 0, 75, 0
4, 18480, Note_on_c, 0, 63, 0
4, 18480, Note_on_c, 0, 65, 86
4, 18480, Note_on_c, 0, 77, 86
4, 18720, Note_on_c, 0, 77, 0
4, 18720, Note_on_c, 0, 65, 0
4, 18720, Note_on_c, 0, 68, 86
4, 18720, Note_on_c, 0, 80, 86
4, 19440, Note_on_c, 0, 80, 0
4, 19440, Note_on_c, 0, 68, 0
4, 19440, Note_on_c, 0, 65, 86
4, 19440, Note_on_c, 0, 73, 86
4, 19440, Note_on_c, 0, 77, 86
4, 19680, Note_on_c, 0, 77, 0
4, 19680, Note_on_c, 0, 73, 0
4, 19680, Note_on_c, 0, 65, 0
4, 19680, Note_on_c, 0, 70, 86
4, 19680, Note_on_c, 0, 73, 86
4, 19680, Note_on_c, 0, 82, 86
4, 19920, Note_on_c, 0, 82, 0
4, 19920, Note_on_c, 0, 70, 0
4, 19920, Note_on_c, 0, 68, 86
4, 19920, Note_on_c, 0, 80, 86
4, 20160, Note_on_c, 0, 80, 0
4, 20160, Note_on_c, 0, 68, 0
4, 20160, Note_on_c, 0, 73, 0
4, 20160, Note_on_c, 0, 63, 86
4, 20160, Note_on_c, 0, 68, 86
4, 20160, Note_on_c, 0, 72, 86
4, 20160, Note_on_c, 0, 75, 86
4, 20640, Note_on_c, 0, 72, 0
4, 20640, Note_on_c, 0, 68, 0
4, 20799, Note_on_c, 0, 63, 0
4, 20799, Note_on_c, 0, 75, 0
4, 20799, Note_on_c, 0, 60, 112
4, 20799, Note_on_c, 0, 72, 112
4, 20960, Note_on_c, 0, 72, 0
4, 20960, Note_on_c, 0, 60, 0
4, 20960, Note_on_c, 0, 58, 112
4, 20960, Note_on_c, 0, 70, 112
4, 21120, Note_on_c, 0, 70, 0
4, 21120, Note_on_c, 0, 58, 0
4, 21120, Note_on_c, 0, 56, 112
4, 21120, Note_on_c, 0, 68, 112
4, 21279, Note_on_c, 0, 68, 0
4, 21279, Note_on_c, 0, 56, 0
4, 21279, Note_on_c, 0, 54, 112
4, 21279, Note_on_c, 0, 66, 112
4, 21440, Note_on_c, 0, 66, 0
4, 21440, Note_on_c, 0, 54, 0
4, 21440, Note_on_c, 0, 51, 112
4, 21440, Note_on_c, 0, 63, 112
4, 21600, Note_on_c, 0, 63, 0
4, 21600, Note_on_c, 0, 51, 0
4, 21600, Note_on_c, 0, 53, 112
4, 21600, Note_on_c, 0, 56, 112
4, 21600, Note_on_c, 0, 61, 112
4, 22080, Note_on_c, 0, 61, 0
4, 22080, Note_on_c, 0, 56, 0
4, 22080, Note_on_c, 0, 53, 0
4, 22080, Note_on_c, 0, 65, 86
4, 22080, Note_on_c, 0, 77, 86
4, 22800, Note_on_c, 0, 77, 0
4, 22800, Note_on_c, 0, 65, 0
4, 22800, Note_on_c, 0, 63, 86
4, 22800, Note_on_c, 0, 75, 86
4, 23040, Note_on_c, 0, 75, 0
4, 23040, Note_on_c, 0, 63, 0
4, 23040, Note_on_c, 0, 66, 86
4, 23040, Note_on_c, 0, 78, 86
4, 23760, Note_on_c, 0, 78, 0
4, 23760, Note_on_c, 0, 66, 0
4, 23760, Note_on_c, 0, 65, 86
4, 23760, Note_on_c, 0, 77, 86
4, 24000, Note_on_c, 0, 77, 0
4, 24000, Note_on_c, 0, 65, 0
4, 24000, Note_on_c, 0, 60, 86
4, 24000, Note_on_c, 0, 72, 86
4, 24240, Note_on_c, 0, 72, 0
4, 24240, Note_on_c, 0, 60, 0
4, 24240, Note_on_c, 0, 61, 86
4, 24240, Note_on_c, 0, 73, 86
4, 24480, Note_on_c, 0, 73, 0
4, 24480, Note_on_c, 0, 61, 0
4, 24480, Note_on_c, 0, 58, 86
4, 24480, Note_on_c, 0, 70, 86
4, 24960, Note_on_c, 0, 70, 0
4, 24960, Note_on_c, 0, 58, 0
4, 24960, Note_on_c, 0, 63, 86
4, 24960, Note_on_c, 0, 75, 86
4, 25680, Note_on_c, 0, 75, 0
4, 25680, Note_on_c, 0, 63, 0
4, 25680, Note_on_c, 0, 65, 86
4, 25680, Note_on_c, 0, 77, 86
4, 25920, Note_on_c, 0, 77, 0
4, 25920, Note_on_c, 0, 65, 0
4, 25920, Note_on_c, 0, 68, 112
4, 25920, Note_on_c, 0, 80, 112
4, 26640, Note_on_c, 0, 80, 0
4, 26640, Note_on_c, 0, 68, 0
4, 26640, Note_on_c, 0, 66, 86
4, 26640, Note_on_c, 0, 78, 86
4, 26880, Note_on_c, 0, 78, 0
4, 26880, Note_on_c, 0, 66, 0
4, 26880, Note_on_c, 0, 65, 86
4, 26880, Note_on_c, 0, 77, 86
4, 27120, Note_on_c, 0, 77, 0
4, 27120, Note_on_c, 0, 65, 0
4, 27120, Note_on_c, 0, 66, 86
4, 27120, Note_on_c, 0, 78, 86
4, 27360, Note_on_c, 0, 78, 0
4, 27360, Note_on_c, 0, 66, 0
4, 27360, Note_on_c, 0, 65, 86
4, 27360, Note_on_c, 0, 77, 86
4, 27600, Note_on_c, 0, 77, 0
4, 27600, Note_on_c, 0, 65, 0
4, 27600, Note_on_c, 0, 60, 86
4, 27600, Note_on_c, 0, 72, 86
4, 27840, Note_on_c, 0, 72, 0
4, 27840, Note_on_c, 0, 60, 0
4, 27840, Note_on_c, 0, 65, 86
4, 27840, Note_on_c, 0, 77, 86
4, 28080, Note_on_c, 0, 77, 0
4, 28080, Note_on_c, 0, 65, 0
4, 28080, Note_on_c, 0, 62, 86
4, 28080, Note_on_c, 0, 74, 86
4, 28320, Note_on_c, 0, 74, 0
4, 28320, Note_on_c, 0, 62, 0
4, 28320, Note_on_c, 0, 63, 86
4, 28320, Note_on_c, 0, 75, 86
4, 28560, Note_on_c, 0, 75, 0
4, 28560, Note_on_c, 0, 63, 0
4, 28560, Note_on_c, 0, 58, 86
4, 28560, Note_on_c, 0, 70, 86
4, 28800, Note_on_c, 0, 70, 0
4, 28800, Note_on_c, 0, 58, 0
4, 28800, Note_on_c, 0, 63, 86
4, 28800, Note_on_c, 0, 75, 86
4, 29040, Note_on_c, 0, 75, 0
4, 29040, Note_on_c, 0, 63, 0
4, 29040, Note_on_c, 0, 60, 86
4, 29040, Note_on_c, 0, 72, 86
4, 29280, Note_on_c, 0, 72, 0
4, 29280, Note_on_c, 0, 60, 0
4, 29280, Note_on_c, 0, 61, 86
4, 29280, Note_on_c, 0, 73, 86
4, 29520, Note_on_c, 0, 73, 0
4, 29520, Note_on_c, 0, 61, 0
4, 29520, Note_on_c, 0, 53, 86
4, 29520, Note_on_c, 0, 65, 86
4, 29760, Note_on_c, 0, 65, 0
4, 29760, Note_on_c, 0, 53, 0
4, 29760, Note_on_c, 0, 58, 86
4, 29760, Note_on_c, 0, 70, 86
4, 30000, Note_on_c, 0, 70, 0
4, 30000, Note_on_c, 0, 58, 0
4, 30000, Note_on_c, 0, 60, 86
4, 30000, Note_on_c, 0, 72, 86
4, 30240, Note_on_c, 0, 72, 0
4, 30240, Note_on_c, 0, 60, 0
4, 30240, Note_on_c, 0, 56, 112
4, 30240, Note_on_c, 0, 68, 112
4, 30480, Note_on_c, 0, 68, 0
4, 30480, Note_on_c, 0, 56, 0
4, 30480, Note_on_c, 0, 58, 112
4, 30480, Note_on_c, 0, 70, 112
4, 30720, Note_on_c, 0, 70, 0
4, 30720, Note_on_c, 0, 58, 0
4, 30720, Note_on_c, 0, 60, 112
4, 30720, Note_on_c, 0, 72, 112
4, 30960, Note_on_c, 0, 72, 0
4, 30960, Note_on_c, 0, 60, 0
4, 30960, Note_on_c, 0, 61, 112
4, 30960, Note_on_c, 0, 73, 112
4, 31200, Note_on_c, 0, 73, 0
4, 31200, Note_on_c, 0, 61, 0
4, 31200, Note_on_c, 0, 63, 112
4, 31200, Note_on_c, 0, 75, 112
4, 31440, Note_on_c, 0, 75, 0
4, 31440, Note_on_c, 0, 63, 0
4, 31440, Note_on_c, 0, 65, 112
4, 31440, Note_on_c, 0, 77, 112
4, 31680, Note_on_c, 0, 77, 0
4, 31680, Note_on_c, 0, 65, 0
4, 31680, Note_on_c, 0, 63, 86
4, 31680, Note_on_c, 0, 75, 86
4, 31920, Note_on_c, 0, 75, 0
4, 31920, Note_on_c, 0, 63, 0
4, 31920, Note_on_c, 0, 65, 86
4, 31920, Note_on_c, 0, 77, 86
4, 32160, Note_on_c, 0, 77, 0
4, 32160, Note_on_c, 0, 65, 0
4, 32160, Note_on_c, 0, 58, 112
4, 32160, Note_on_c, 0, 70, 112
4, 32880, Note_on_c, 0, 70, 0
4, 32880, Note_on_c, 0, 58, 0
4, 32880, Note_on_c, 0, 60, 86
4, 32880, Note_on_c, 0, 72, 86
4, 33120, Note_on_c, 0, 72, 0
4, 33120, Note_on_c, 0, 60, 0
4, 33120, Note_on_c, 0, 61, 86
4, 33120, Note_on_c, 0, 73, 86
4, 33520, Note_on_c, 0, 65, 86
4, 33560, Note_on_c, 0, 68, 86
4, 33600, Note_on_c, 0, 73, 0
4, 33600, Note_on_c, 0, 61, 0
4, 33600, Note_on_c, 0, 73, 60
4, 33632, Note_on_c, 0, 65, 0
4, 33664, Note_on_c, 0, 68, 0
4, 33696, Note_on_c, 0, 73, 0
4, 34000, Note_on_c, 0, 68, 60
4, 34040, Note_on_c, 0, 73, 60
4, 34080, Note_on_c, 0, 77, 60
4, 34112, Note_on_c, 0, 68, 0
4, 34144, Note_on_c, 0, 73, 0
4, 34176, Note_on_c, 0, 77, 0
4, 34560, Note_on_c, 0, 53, 60
4, 34560, Note_on_c, 0, 56, 60
4, 34560, Note_on_c, 0, 61, 60
4, 34656, Note_on_c, 0, 61, 0
4, 34656, Note_on_c, 0, 56, 0
4, 34656, Note_on_c, 0, 53, 0
4, 35040, Note_on_c, 0, 65, 60
4, 35040, Note_on_c, 0, 68, 60
4, 35040, Note_on_c, 0, 73, 60
4, 35136, Note_on_c, 0, 73, 0
4, 35136, Note_on_c, 0, 68, 0
4, 35136, Note_on_c, 0, 65, 0
4, 35520, Note_on_c, 0, 68, 60
4, 35520, Note_on_c, 0, 73, 60
4, 35520, Note_on_c, 0, 77, 60
4, 35616, Note_on_c, 0, 77, 0
4, 35616, Note_on_c, 0, 73, 0
4, 35616, Note_on_c, 0, 68, 0
4, 36000, Note_on_c, 0, 53, 60
4, 36000, Note_on_c, 0, 56, 60
4, 36000, Note_on_c, 0, 61, 60
4, 36096, Note_on_c, 0, 61, 0
4, 36096, Note_on_c, 0, 56, 0
4, 36096, Note_on_c, 0, 53, 0
4, 36480, Note_on_c, 0, 65, 60
4, 36480, Note_on_c, 0, 68, 60
4, 36480, Note_on_c, 0, 73, 60
4, 36576, Note_on_c, 0, 73, 0
4, 36576, Note_on_c, 0, 68, 0
4, 36576, Note_on_c, 0, 65, 0
4, 36960, Note_on_c, 0, 68, 60
4, 36960, Note_on_c, 0, 73, 60
4, 36960, Note_on_c, 0, 77, 60
4, 37056, Note_on_c, 0, 77, 0
4, 37056, Note_on_c, 0, 73, 0
4, 37056, Note_on_c, 0, 68, 0
4, 37440, Note_on_c, 0, 53, 60
4, 37440, Note_on_c, 0, 56, 60
4, 37440, Note_on_c, 0, 61, 60
4, 37536, Note_on_c, 0, 61, 0
4, 37536, Note_on_c, 0, 56, 0
4, 37536, Note_on_c, 0, 53, 0
4, 37920, Note_on_c, 0, 65, 60
4, 37920, Note_on_c, 0, 68, 60
4, 37920, Note_on_c, 0, 73, 60
4, 38016, Note_on_c, 0, 73, 0
4, 38016, Note_on_c, 0, 68, 0
4, 38016, Note_on_c, 0, 65, 0
4, 38400, Note_on_c, 0, 68, 60
4, 38400, Note_on_c, 0, 73, 60
4, 38400, Note_on_c, 0, 77, 60
4, 38496, Note_on_c, 0, 77, 0
4, 38496, Note_on_c, 0, 73, 0
4, 38496, Note_on_c, 0, 68, 0
4, 38880, Note_on_c, 0, 54, 60
4, 38880, Note_on_c, 0, 58, 60
4, 38880, Note_on_c, 0, 63, 60
4, 38976, Note_on_c, 0, 63, 0
4, 38976, Note_on_c, 0, 58, 0
4, 38976, Note_on_c, 0, 54, 0
4, 39360, Note_on_c, 0, 66, 60
4, 39360, Note_on_c, 0, 70, 60
4, 39360, Note_on_c, 0, 75, 60
4, 39456, Note_on_c, 0, 75, 0
4, 39456, Note_on_c, 0, 70, 0
4, 39456, Note_on_c, 0, 66, 0
4, 39840, Note_on_c, 0, 70, 60
4, 39840, Note_on_c, 0, 75, 60
4, 39840, Note_on_c, 0, 78, 60
4, 39936, Note_on_c, 0, 78, 0
4, 39936, Note_on_c, 0, 75, 0
4, 39936, Note_on_c, 0, 70, 0
4, 40320, Note_on_c, 0, 54, 60
4, 40320, Note_on_c, 0, 58, 60
4, 40320, Note_on_c, 0, 63, 60
4, 40416, Note_on_c, 0, 63, 0
4, 40416, Note_on_c, 0, 58, 0
4, 40416, Note_on_c, 0, 54, 0
4, 40800, Note_on_c, 0, 66, 60
4, 40800, Note_on_c, 0, 70, 60
4, 40800, Note_on_c, 0, 75, 60
4, 40896, Note_on_c, 0, 75, 0
4, 40896, Note_on_c, 0, 70, 0
4, 40896, Note_on_c, 0, 66, 0
4, 41280, Note_on_c, 0, 70, 60
4, 41280, Note_on_c, 0, 75, 60
4, 41280, Note_on_c, 0, 78, 60
4, 41376, Note_on_c, 0, 78, 0
4, 41376, Note_on_c, 0, 75, 0
4, 41376, Note_on_c, 0, 70, 0
4, 41760, Note_on_c, 0, 56, 60
4, 41760, Note_on_c, 0, 60, 60
4, 41760, Note_on_c, 0, 63, 60
4, 41856, Note_on_c, 0, 63, 0
4, 41856, Note_on_c, 0, 60, 0
4, 41856, Note_on_c, 0, 56, 0
4, 42240, Note_on_c, 0, 68, 60
4, 42240, Note_on_c, 0, 72, 60
4, 42240, Note_on_c, 0, 75, 60
4, 42336, Note_on_c, 0, 75, 0
4, 42336, Note_on_c, 0, 72, 0
4, 42336, Note_on_c, 0, 68, 0
4, 42720, Note_on_c, 0, 72, 60
4, 42720, Note_on_c, 0, 75, 60
4, 42720, Note_on_c, 0, 80, 60
4, 42816, Note_on_c, 0, 80, 0
4, 42816, Note_on_c, 0, 75, 0
4, 42816, Note_on_c, 0, 72, 0
4, 43200, Note_on_c, 0, 56, 60
4, 43200, Note_on_c, 0, 60, 60
4, 43200, Note_on_c, 0, 63, 60
4, 43296, Note_on_c, 0, 63, 0
4, 43296, Note_on_c, 0, 60, 0
4, 43296, Note_on_c, 0, 56, 0
4, 43680, Note_on_c, 0, 68, 60
4, 43680, Note_on_c, 0, 72, 60
4, 43680, Note_on_c, 0, 75, 60
4, 43776, Note_on_c, 0, 75, 0
4, 43776, Note_on_c, 0, 72, 0
4, 43776, Note_on_c, 0, 68, 0
4, 44160, Note_on_c, 0, 72, 60
4, 44160, Note_on_c, 0, 75, 60
4, 44160, Note_on_c, 0, 80, 60
4, 44256, Note_on_c, 0, 80, 0
4, 44256, Note_on_c, 0, 75, 0
4, 44256, Note_on_c, 0, 72, 0
4, 44640, Note_on_c, 0, 56, 60
4, 44640, Note_on_c, 0, 61, 60
4, 44640, Note_on_c, 0, 65, 60
4, 44736, Note_on_c, 0, 65, 0
4, 44736, Note_on_c, 0, 61, 0
4, 44736, Note_on_c, 0, 56, 0
4, 45120, Note_on_c, 0, 68, 60
4, 45120, Note_on_c, 0, 73, 60
4, 45120, Note_on_c, 0, 77, 60
4, 45216, Note_on_c, 0, 77, 0
4, 45216, Note_on_c, 0, 73, 0
4, 45216, Note_on_c, 0, 68, 0
4, 45600, Note_on_c, 0, 73, 60
4, 45600, Note_on_c, 0, 77, 60
4, 45600, Note_on_c, 0, 80, 60
4, 45696, Note_on_c, 0, 80, 0
4, 45696, Note_on_c, 0, 77, 0
4, 45696, Note_on_c, 0, 73, 0
4, 46080, Note_on_c, 0, 68, 73
4, 46080, Note_on_c, 0, 71, 73
4, 46080, Note_on_c, 0, 77, 73
4, 46080, Note_on_c, 0, 80, 73
4, 46176, Note_on_c, 0, 80, 0
4, 46176, Note_on_c, 0, 68, 0
4, 46176, Note_on_c, 0, 71, 0
4, 46176, Note_on_c, 0, 77, 0
4, 46560, Note_on_c, 0, 68, 73
4, 46560, Note_on_c, 0, 72, 73
4, 46560, Note_on_c, 0, 78, 73
4, 46560, Note_on_c, 0, 80, 73
4, 46656, Note_on_c, 0, 80, 0
4, 46656, Note_on_c, 0, 68, 0
4, 46656, Note_on_c, 0, 72, 0
4, 46656, Note_on_c, 0, 78, 0
4, 47520, Note_on_c, 0, 68, 73
4, 47520, Note_on_c, 0, 73, 73
4, 47520, Note_on_c, 0, 79, 73
4, 47520, Note_on_c, 0, 80, 73
4, 47616, Note_on_c, 0, 80, 0
4, 47616, Note_on_c, 0, 68, 0
4, 47616, Note_on_c, 0, 73, 0
4, 47616, Note_on_c, 0, 79, 0
4, 48000, Note_on_c, 0, 68, 73
4, 48000, Note_on_c, 0, 73, 73
4, 48000, Note_on_c, 0, 77, 73
4, 48000, Note_on_c, 0, 80, 73
4, 48096, Note_on_c, 0, 80, 0
4, 48096, Note_on_c, 0, 68, 0
4, 48096, Note_on_c, 0, 73, 0
4, 48096, Note_on_c, 0, 77, 0
4, 48960, Note_on_c, 0, 70, 73
4, 48960, Note_on_c, 0, 74, 73
4, 48960, Note_on_c, 0, 77, 73
4, 48960, Note_on_c, 0, 82, 73
4, 49056, Note_on_c, 0, 82, 0
4, 49056, Note_on_c, 0, 70, 0
4, 49056, Note_on_c, 0, 74, 0
4, 49056, Note_on_c, 0, 77, 0
4, 49440, Note_on_c, 0, 70, 73
4, 49440, Note_on_c, 0, 75, 73
4, 49440, Note_on_c, 0, 82, 73
4, 49536, Note_on_c, 0, 82, 0
4, 49536, Note_on_c, 0, 75, 0
4, 49536, Note_on_c, 0, 70, 0
4, 50400, Note_on_c, 0, 72, 73
4, 50400, Note_on_c, 0, 76, 73
4, 50400, Note_on_c, 0, 79, 73
4, 50400, Note_on_c, 0, 84, 73
4, 50496, Note_on_c, 0, 84, 0
4, 50496, Note_on_c, 0, 72, 0
4, 50496, Note_on_c, 0, 76, 0
4, 50496, Note_on_c, 0, 79, 0
4, 50880, Note_on_c, 0, 72, 73
4, 50880, Note_on_c, 0, 77, 73
4, 50880, Note_on_c, 0, 84, 73
4, 50976, Note_on_c, 0, 84, 0
4, 50976, Note_on_c, 0, 77, 0
4, 50976, Note_on_c, 0, 72, 0
4, 64800, Control_c, 0, 64, 127
4, 64800, Note_on_c, 0, 28, 73
4, 64800, Note_on_c, 0, 40, 73
4, 65040, Note_on_c, 0, 40, 0
4, 65040, Note_on_c, 0, 28, 0
4, 65040, Note_on_c, 0, 46, 73
4, 65079, Note_on_c, 0, 46, 0
4, 65079, Note_on_c, 0, 49, 73
4, 65120, Note_on_c, 0, 49, 0
4, 65120, Note_on_c, 0, 52, 73
4, 65160, Note_on_c, 0, 52, 0
4, 65160, Note_on_c, 0, 55, 73
4, 65199, Note_on_c, 0, 55, 0
4, 65199, Note_on_c, 0, 58, 73
4, 65240, Note_on_c, 0, 58, 0
4, 65240, Note_on_c, 0, 61, 73
4, 65280, Note_on_c, 0, 61, 0
4, 65280, Note_on_c, 0, 64, 73
4, 65319, Note_on_c, 0, 64, 0
4, 65319, Note_on_c, 0, 67, 73
4, 65360, Note_on_c, 0, 67, 0
4, 65360, Note_on_c, 0, 70, 73
4, 65400, Note_on_c, 0, 70, 0
4, 65400, Note_on_c, 0, 73, 73
4, 65439, Note_on_c, 0, 73, 0
4, 65439, Note_on_c, 0, 76, 73
4, 65480, Note_on_c, 0, 76, 0
4, 65480, Note_on_c, 0, 79, 73
4, 65520, Note_on_c, 0, 79, 0
4, 65520, Note_on_c, 0, 82, 73
4, 65580, Note_on_c, 0, 82, 0
4, 65580, Note_on_c, 0, 85, 73
4, 65640, Note_on_c, 0, 85, 0
4, 65640, Note_on_c, 0, 88, 73
4, 66000, Note_on_c, 0, 88, 0
4, 66000, Control_c, 0, 64, 0
4, 66720, Control_c, 0, 64, 127
4, 66720, Note_on_c, 0, 31, 73
4, 66720, Note_on_c, 0, 43, 73
4, 66960, Note_on_c, 0, 43, 0
4, 66960, Note_on_c, 0, 31, 0
4, 66960, Note_on_c, 0, 49, 73
4, 66999, Note_on_c, 0, 49, 0
4, 66999, Note_on_c, 0, 52, 73
4, 67040, Note_on_c, 0, 52, 0
4, 67040, Note_on_c, 0, 55, 73
4, 67080, Note_on_c, 0, 55, 0
4, 67080, Note_on_c, 0, 58, 73
4, 67119, Note_on_c, 0, 58, 0
4, 67119, Note_on_c, 0, 61, 73
4, 67160, Note_on_c, 0, 61, 0
4, 67160, Note_on_c, 0, 64, 73
4, 67200, Note_on_c, 0, 64, 0
4, 67200, Note_on_c, 0, 67, 73
4, 67239, Note_on_c, 0, 67, 0
4, 67239, Note_on_c, 0, 70, 73
4, 67280, Note_on_c, 0, 70, 0
4, 67280, Note_on_c, 0, 73, 73
4, 67320, Note_on_c, 0, 73, 0
4, 67320, Note_on_c, 0, 76, 73
4, 67359, Note_on_c, 0, 76, 0
4, 67359, Note_on_c, 0, 79, 73
4, 67400, Note_on_c, 0, 79, 0
4, 67400, Note_on_c, 0, 82, 73
4, 67440, Note_on_c, 0, 82, 0
4, 67440, Note_on_c, 0, 85, 73
4, 67500, Note_on_c, 0, 85, 0
4, 67500, Note_on_c, 0, 88, 73
4, 67560, Note_on_c, 0, 88, 0
4, 67560, Note_on_c, 0, 91, 73
4, 67800, Note_on_c, 0, 91, 0
4, 67800, Control_c, 0, 64, 0
4, 78960, Note_on_c, 0, 63, 73
4, 79007, Note_on_c, 0, 63, 0
4, 79200, Note_on_c, 0, 60, 73
4, 79247, Note_on_c, 0, 60, 0
4, 79440, Note_on_c, 0, 58, 73
4, 79487, Note_on_c, 0, 58, 0
4, 79680, Note_on_c, 0, 57, 73
4, 79727, Note_on_c, 0, 57, 0
4, 80100, Note_on_c, 0, 75, 73
4, 80100, Note_on_c, 0, 78, 73
4, 80100, Note_on_c, 0, 81, 73
4, 80100, Note_on_c, 0, 87, 73
4, 80160, Note_on_c, 0, 87, 0
4, 80160, Note_on_c, 0, 75, 0
4, 80160, Note_on_c, 0, 78, 0
4, 80160, Note_on_c, 0, 81, 0
4, 80160, Note_on_c, 0, 75, 73
4, 80160, Note_on_c, 0, 78, 73
4, 80160, Note_on_c, 0, 81, 73
4, 80160, Note_on_c, 0, 87, 73
4, 80640, Note_on_c, 0, 87, 0
4, 80640, Note_on_c, 0, 75, 0
4, 80640, Note_on_c, 0, 78, 0
4, 80640, Note_on_c, 0, 81, 0
4, 80880, Note_on_c, 0, 66, 73
4, 80927, Note_on_c, 0, 66, 0
4, 81120, Note_on_c, 0, 63, 73
4, 81167, Note_on_c, 0, 63, 0
4, 81360, Note_on_c, 0, 61, 73
4, 81407, Note_on_c, 0, 61, 0
4, 81600, Note_on_c, 0, 60, 73
4, 81647, Note_on_c, 0, 60, 0
4, 82020, Note_on_c, 0, 78, 73
4, 82020, Note_on_c, 0, 81, 73
4, 82020, Note_on_c, 0, 84, 73
4, 82020, Note_on_c, 0, 90, 73
4, 82080, Note_on_c, 0, 90, 0
4, 82080, Note_on_c, 0, 78, 0
4, 82080, Note_on_c, 0, 81, 0
4, 82080, Note_on_c, 0, 84, 0
4, 82080, Note_on_c, 0, 78, 73
4, 82080, Note_on_c, 0, 81, 73
4, 82080, Note_on_c, 0, 84, 73
4, 82080, Note_on_c, 0, 90, 73
4, 82560, Note_on_c, 0, 90, 0
4, 82560, Note_on_c, 0, 78, 0
4, 82560, Note_on_c, 0, 81, 0
4, 82560, Note_on_c, 0, 84, 0
4, 82800, Note_on_c, 0, 69, 73
4, 82847, Note_on_c, 0, 69, 0
4, 83040, Note_on_c, 0, 66, 73
4, 83087, Note_on_c, 0, 66, 0
4, 83280, Note_on_c, 0, 65, 73
4, 83327, Note_on_c, 0, 65, 0
4, 83520, Note_on_c, 0, 63, 73
4, 83567, Note_on_c, 0, 63, 0
4, 83940, Note_on_c, 0, 81, 73
4, 83940, Note_on_c, 0, 84, 73
4, 83940, Note_on_c, 0, 87, 73
4, 83940, Note_on_c, 0, 93, 73
4, 84000, Note_on_c, 0, 93, 0
4, 84000, Note_on_c, 0, 81, 0
4, 84000, Note_on_c, 0, 84, 0
4, 84000, Note_on_c, 0, 87, 0
4, 84000, Note_on_c, 0, 81, 73
4, 84000, Note_on_c, 0, 84, 73
4, 84000, Note_on_c, 0, 87, 73
4, 84000, Note_on_c, 0, 93, 73
4, 84480, Note_on_c, 0, 93, 0
4, 84480, Note_on_c, 0, 81, 0
4, 84480, Note_on_c, 0, 84, 0
4, 84480, Note_on_c, 0, 87, 0
4, 84720, Note_on_c, 0, 63, 73
4, 84720, Note_on_c, 0, 75, 73
4, 84767, Note_on_c, 0, 75, 0
4, 84767, Note_on_c, 0, 63, 0
4, 84960, Note_on_c, 0, 60, 73
4, 84960, Note_on_c, 0, 72, 73
4, 85007, Note_on_c, 0, 72, 0
4, 85007, Note_on_c, 0, 60, 0
4, 85200, Note_on_c, 0, 58, 73
4, 85200, Note_on_c, 0, 70, 73
4, 85247, Note_on_c, 0, 70, 0
4, 85247, Note_on_c, 0, 58, 0
4, 85440, Note_on_c, 0, 57, 73
4, 85440, Note_on_c, 0, 69, 73
4, 85536, Note_on_c, 0, 69, 0
4, 85536, Note_on_c, 0, 57, 0
4, 86640, Note_on_c, 0, 69, 73
4, 86640, Note_on_c, 0, 81, 73
4, 86687, Note_on_c, 0, 81, 0
4, 86687, Note_on_c, 0, 69, 0
4, 86880, Note_on_c, 0, 66, 73
4, 86880, Note_on_c, 0, 78, 73
4, 86927, Note_on_c, 0, 78, 0
4, 86927, Note_on_c, 0, 66, 0
4, 87120, Note_on_c, 0, 65, 73
4, 87120, Note_on_c, 0, 77, 73
4, 87167, Note_on_c, 0, 77, 0
4, 87167, Note_on_c, 0, 65, 0
4, 87360, Note_on_c, 0, 63, 73
4, 87360, Note_on_c, 0, 75, 73
4, 87456, Note_on_c, 0, 75, 0
4, 87456, Note_on_c, 0, 63, 0
4, 88560, Note_on_c, 0, 75, 73
4, 88560, Note_on_c, 0, 87, 73
4, 88607, Note_on_c, 0, 87, 0
4, 88607, Note_on_c, 0, 75, 0
4, 88800, Note_on_c, 0, 72, 73
4, 88800, Note_on_c, 0, 84, 73
4, 88847, Note_on_c, 0, 84, 0
4, 88847, Note_on_c, 0, 72, 0
4, 89040, Note_on_c, 0, 70, 73
4, 89040, Note_on_c, 0, 82, 73
4, 89087, Note_on_c, 0, 82, 0
4, 89087, Note_on_c, 0, 70, 0
4, 89280, Note_on_c, 0, 69, 73
4, 89280, Note_on_c, 0, 81, 73
4, 89376, Note_on_c, 0, 81, 0
4, 89376, Note_on_c, 0, 69, 0
4, 92400, Note_on_c, 0, 68, 112
4, 92400, Note_on_c, 0, 80, 112
4, 92640, Note_on_c, 0, 80, 0
4, 92640, Note_on_c, 0, 68, 0
4, 92640, Note_on_c, 0, 65, 86
4, 92640, Note_on_c, 0, 77, 86
4, 92880, Note_on_c, 0, 77, 0
4, 92880, Note_on_c, 0, 65, 0
4, 92880, Note_on_c, 0, 63, 86
4, 92880, Note_on_c, 0, 75, 86
4, 93120, Note_on_c, 0, 75, 0
4, 93120, Note_on_c, 0, 63, 0
4, 93120, Note_on_c, 0, 61, 86
4, 93120, Note_on_c, 0, 65, 86
4, 93120, Note_on_c, 0, 68, 86
4, 93120, Note_on_c, 0, 73, 86
4, 93600, Note_on_c, 0, 73, 0
4, 93600, Note_on_c, 0, 61, 0
4, 93600, Note_on_c, 0, 65, 0
4, 93600, Note_on_c, 0, 68, 0
4, 93600, Note_on_c, 0, 77, 86
4, 93600, Note_on_c, 0, 80, 86
4, 93600, Note_on_c, 0, 85, 86
4, 93600, Note_on_c, 0, 89, 86
4, 94320, Note_on_c, 0, 89, 0
4, 94320, Note_on_c, 0, 77, 0
4, 94320, Note_on_c, 0, 80, 0
4, 94320, Note_on_c, 0, 85, 0
4, 94320, Note_on_c, 0, 75, 86
4, 94320, Note_on_c, 0, 87, 86
4, 94560, Note_on_c, 0, 87, 0
4, 94560, Note_on_c, 0, 75, 0
4, 94560, Note_on_c, 0, 78, 86
4, 94560, Note_on_c, 0, 80, 86
4, 94560, Note_on_c, 0, 85, 86
4, 94560, Note_on_c, 0, 90, 86
4, 95280, Note_on_c, 0, 90, 0
4, 95280, Note_on_c, 0, 78, 0
4, 95280, Note_on_c, 0, 80, 0
4, 95280, Note_on_c, 0, 85, 0
4, 95280, Note_on_c, 0, 77, 86
4, 95280, Note_on_c, 0, 89, 86
4, 95520, Note_on_c, 0, 89, 0
4, 95520, Note_on_c, 0, 77, 0
4, 95520, Note_on_c, 0, 72, 86
4, 95520, Note_on_c, 0, 84, 86
4, 95760, Note_on_c, 0, 84, 0
4, 95760, Note_on_c, 0, 72, 0
4, 95760, Note_on_c, 0, 73, 86
4, 95760, Note_on_c, 0, 85, 86
4, 96000, Note_on_c, 0, 85, 0
4, 96000, Note_on_c, 0, 73, 0
4, 96000, Note_on_c, 0, 70, 86
4, 96000, Note_on_c, 0, 75, 86
4, 96000, Note_on_c, 0, 78, 86
4, 96000, Note_on_c, 0, 82, 86
4, 96480, Note_on_c, 0, 82, 0
4, 96480, Note_on_c, 0, 70, 0
4, 96480, Note_on_c, 0, 75, 0
4, 96480, Note_on_c, 0, 78, 0
4, 96480, Note_on_c, 0, 75, 86
4, 96480, Note_on_c, 0, 78, 86
4, 96480, Note_on_c, 0, 82, 86
4, 96480, Note_on_c, 0, 87, 86
4, 97200, Note_on_c, 0, 87, 0
4, 97200, Note_on_c, 0, 75, 0
4, 97200, Note_on_c, 0, 78, 0
4, 97200, Note_on_c, 0, 82, 0
4, 97200, Note_on_c, 0, 77, 86
4, 97200, Note_on_c, 0, 89, 86
4, 97440, Note_on_c, 0, 89, 0
4, 97440, Note_on_c, 0, 77, 0
4, 97440, Note_on_c, 0, 70, 86
4, 97440, Note_on_c, 0, 75, 86
4, 97440, Note_on_c, 0, 78, 86
4, 97440, Note_on_c, 0, 82, 86
4, 98160, Note_on_c, 0, 82, 0
4, 98160, Note_on_c, 0, 70, 0
4, 98160, Note_on_c, 0, 75, 0
4, 98160, Note_on_c, 0, 78, 0
4, 98160, Note_on_c, 0, 75, 86
4, 98160, Note_on_c, 0, 87, 86
4, 98400, Note_on_c, 0, 87, 0
4, 98400, Note_on_c, 0, 75, 0
4, 98400, Note_on_c, 0, 72, 86
4, 98400, Note_on_c, 0, 84, 86
4, 98640, Note_on_c, 0, 84, 0
4, 98640, Note_on_c, 0, 72, 0
4, 98640, Note_on_c, 0, 70, 86
4, 98640, Note_on_c, 0, 82, 86
4, 98880, Note_on_c, 0, 82, 0
4, 98880, Note_on_c, 0, 70, 0
4, 98880, Note_on_c, 0, 68, 86
4, 98880, Note_on_c, 0, 72, 86
4, 98880, Note_on_c, 0, 75, 86
4, 98880, Note_on_c, 0, 80, 86
4, 99360, Note_on_c, 0, 80, 0
4, 99360, Note_on_c, 0, 68, 0
4, 99360, Note_on_c, 0, 72, 0
4, 99360, Note_on_c, 0, 75, 0
4, 99360, Note_on_c, 0, 75, 86
4, 99360, Note_on_c, 0, 80, 86
4, 99360, Note_on_c, 0, 84, 86
4, 99360, Note_on_c, 0, 87, 86
4, 100080, Note_on_c, 0, 87, 0
4, 100080, Note_on_c, 0, 75, 0
4, 100080, Note_on_c, 0, 80, 0
4, 100080, Note_on_c, 0, 84, 0
4, 100080, Note_on_c, 0, 77, 86
4, 100080, Note_on_c, 0, 89, 86
4, 100320, Note_on_c, 0, 89, 0
4, 100320, Note_on_c, 0, 77, 0
4, 100320, Note_on_c, 0, 80, 112
4, 100320, Note_on_c, 0, 84, 112
4, 100320, Note_on_c, 0, 87, 112
4, 100320, Note_on_c, 0, 92, 112
4, 101040, Note_on_c, 0, 92, 0
4, 101040, Note_on_c, 0, 80, 0
4, 101040, Note_on_c, 0, 84, 0
4, 101040, Note_on_c, 0, 87, 0
4, 101040, Note_on_c, 0, 75, 86
4, 101040, Note_on_c, 0, 87, 86
4, 101280, Note_on_c, 0, 87, 0
4, 101280, Note_on_c, 0, 75, 0
4, 101280, Note_on_c, 0, 75, 86
4, 101280, Note_on_c, 0, 80, 86
4, 101280, Note_on_c, 0, 84, 86
4, 101280, Note_on_c, 0, 87, 86
4, 101520, Note_on_c, 0, 87, 0
4, 101520, Note_on_c, 0, 75, 0
4, 101520, Note_on_c, 0, 80, 0
4, 101520, Note_on_c, 0, 84, 0
4, 101520, Note_on_c, 0, 77, 86
4, 101520, Note_on_c, 0, 89, 86
4, 101760, Note_on_c, 0, 89, 0
4, 101760, Note_on_c, 0, 77, 0
4, 101760, Note_on_c, 0, 80, 112
4, 101760, Note_on_c, 0, 85, 112
4, 101760, Note_on_c, 0, 89, 112
4, 101760, Note_on_c, 0, 92, 112
4, 102480, Note_on_c, 0, 92, 0
4, 102480, Note_on_c, 0, 80, 0
4, 102480, Note_on_c, 0, 85, 0
4, 102480, Note_on_c, 0, 89, 0
4, 102480, Note_on_c, 0, 77, 86
4, 102480, Note_on_c, 0, 89, 86
4, 102720, Note_on_c, 0, 89, 0
4, 102720, Note_on_c, 0, 77, 0
4, 102720, Note_on_c, 0, 82, 86
4, 102720, Note_on_c, 0, 94, 86
4, 102960, Note_on_c, 0, 94, 0
4, 102960, Note_on_c, 0, 82, 0
4, 102960, Note_on_c, 0, 80, 86
4, 102960, Note_on_c, 0, 92, 86
4, 103200, Note_on_c, 0, 92, 0
4, 103200, Note_on_c, 0, 80, 0
4, 103200, Note_on_c, 0, 75, 86
4, 103200, Note_on_c, 0, 80, 86
4, 103200, Note_on_c, 0, 84, 86
4, 103200, Note_on_c, 0, 87, 86
4, 103839, Note_on_c, 0, 87, 0
4, 103839, Note_on_c, 0, 75, 0
4, 103839, Note_on_c, 0, 80, 0
4, 103839, Note_on_c, 0, 84, 0
4, 103839, Note_on_c, 0, 72, 112
4, 103839, Note_on_c, 0, 84, 112
4, 104000, Note_on_c, 0, 84, 0
4, 104000, Note_on_c, 0, 72, 0
4, 104000, Note_on_c, 0, 70, 112
4, 104000, Note_on_c, 0, 82, 112
4, 104160, Note_on_c, 0, 82, 0
4, 104160, Note_on_c, 0, 70, 0
4, 104160, Note_on_c, 0, 68, 112
4, 104160, Note_on_c, 0, 80, 112
4, 104319, Note_on_c, 0, 80, 0
4, 104319, Note_on_c, 0, 68, 0
4, 104319, Note_on_c, 0, 66, 112
4, 104319, Note_on_c, 0, 78, 112
4, 104480, Note_on_c, 0, 78, 0
4, 104480, Note_on_c, 0, 66, 0
4, 104480, Note_on_c, 0, 63, 112
4, 104480, Note_on_c, 0, 75, 112
4, 104640, Note_on_c, 0, 75, 0
4, 104640, Note_on_c, 0, 63, 0
4, 104640, Note_on_c, 0, 61, 112
4, 104640, Note_on_c, 0, 65, 112
4, 104640, Note_on_c, 0, 68, 112
4, 104640, Note_on_c, 0, 73, 112
4, 105120, Note_on_c, 0, 73, 0
4, 105120, Note_on_c, 0, 61, 0
4, 105120, Note_on_c, 0, 65, 0
4, 105120, Note_on_c, 0, 68, 0
4, 105120, Note_on_c, 0, 77, 86
4, 105120, Note_on_c, 0, 80, 86
4, 105120, Note_on_c, 0, 85, 86
4, 105120, Note_on_c, 0, 89, 86
4, 105840, Note_on_c, 0, 89, 0
4, 105840, Note_on_c, 0, 77, 0
4, 105840, Note_on_c, 0, 80, 0
4, 105840, Note_on_c, 0, 85, 0
4, 105840, Note_on_c, 0, 75, 86
4, 105840, Note_on_c, 0, 87, 86
4, 106080, Note_on_c, 0, 87, 0
4, 106080, Note_on_c, 0, 75, 0
4, 106080, Note_on_c, 0, 78, 86
4, 106080, Note_on_c, 0, 80, 86
4, 106080, Note_on_c, 0, 85, 86
4, 106080, Note_on_c, 0, 90, 86
4, 106800, Note_on_c, 0, 90, 0
4, 106800, Note_on_c, 0, 78, 0
4, 106800, Note_on_c, 0, 80, 0
4, 106800, Note_on_c, 0, 85, 0
4, 106800, Note_on_c, 0, 77, 86
4, 106800, Note_on_c, 0, 89, 86
4, 107040, Note_on_c, 0, 89, 0
4, 107040, Note_on_c, 0, 77, 0
4, 107040, Note_on_c, 0, 72, 86
4, 107040, Note_on_c, 0, 84, 86
4, 107280, Note_on_c, 0, 84, 0
4, 107280, Note_on_c, 0, 72, 0
4, 107280, Note_on_c, 0, 73, 86
4, 107280, Note_on_c, 0, 85, 86
4, 107520, Note_on_c, 0, 85, 0
4, 107520, Note_on_c, 0, 73, 0
4, 107520, Note_on_c, 0, 70, 86
4, 107520, Note_on_c, 0, 73, 86
4, 107520, Note_on_c, 0, 75, 86
4, 107520, Note_on_c, 0, 82, 86
4, 108000, Note_on_c, 0, 82, 0
4, 108000, Note_on_c, 0, 70, 0
4, 108000, Note_on_c, 0, 73, 0
4, 108000, Note_on_c, 0, 75, 0
4, 108000, Note_on_c, 0, 75, 86
4, 108000, Note_on_c, 0, 87, 86
4, 108720, Note_on_c, 0, 87, 0
4, 108720, Note_on_c, 0, 75, 0
4, 108720, Note_on_c, 0, 77, 86
4, 108720, Note_on_c, 0, 89, 86
4, 108960, Note_on_c, 0, 89, 0
4, 108960, Note_on_c, 0, 77, 0
4, 108960, Note_on_c, 0, 80, 112
4, 108960, Note_on_c, 0, 92, 112
4, 109680, Note_on_c, 0, 92, 0
4, 109680, Note_on_c, 0, 80, 0
4, 109680, Note_on_c, 0, 78, 86
4, 109680, Note_on_c, 0, 90, 86
4, 109920, Note_on_c, 0, 90, 0
4, 109920, Note_on_c, 0, 78, 0
4, 109920, Note_on_c, 0, 77, 86
4, 109920, Note_on_c, 0, 89, 86
4, 110160, Note_on_c, 0, 89, 0
4, 110160, Note_on_c, 0, 77, 0
4, 110160, Note_on_c, 0, 78, 86
4, 110160, Note_on_c, 0, 90, 86
4, 110400, Note_on_c, 0, 90, 0
4, 110400, Note_on_c, 0, 78, 0
4, 110400, Note_on_c, 0, 77, 86
4, 110400, Note_on_c, 0, 81, 86
4, 110400, Note_on_c, 0, 84, 86
4, 110400, Note_on_c, 0, 89, 86
4, 110640, Note_on_c, 0, 89, 0
4, 110640, Note_on_c, 0, 77, 0
4, 110640, Note_on_c, 0, 81, 0
4, 110640, Note_on_c, 0, 84, 0
4, 110640, Note_on_c, 0, 72, 86
4, 110640, Note_on_c, 0, 84, 86
4, 110880, Note_on_c, 0, 84, 0
4, 110880, Note_on_c, 0, 72, 0
4, 110880, Note_on_c, 0, 77, 86
4, 110880, Note_on_c, 0, 80, 86
4, 110880, Note_on_c, 0, 82, 86
4, 110880, Note_on_c, 0, 89, 86
4, 111120, Note_on_c, 0, 89, 0
4, 111120, Note_on_c, 0, 77, 0
4, 111120, Note_on_c, 0, 80, 0
4, 111120, Note_on_c, 0, 82, 0
4, 111120, Note_on_c, 0, 74, 86
4, 111120, Note_on_c, 0, 86, 86
4, 111360, Note_on_c, 0, 86, 0
4, 111360, Note_on_c, 0, 74, 0
4, 111360, Note_on_c, 0, 75, 86
4, 111360, Note_on_c, 0, 79, 86
4, 111360, Note_on_c, 0, 82, 86
4, 111360, Note_on_c, 0, 87, 86
4, 111600, Note_on_c, 0, 87, 0
4, 111600, Note_on_c, 0, 75, 0
4, 111600, Note_on_c, 0, 79, 0
4, 111600, Note_on_c, 0, 82, 0
4, 111600, Note_on_c, 0, 70, 86
4, 111600, Note_on_c, 0, 82, 86
4, 111840, Note_on_c, 0, 82, 0
4, 111840, Note_on_c, 0, 70, 0
4, 111840, Note_on_c, 0, 75, 86
4, 111840, Note_on_c, 0, 78, 86
4, 111840, Note_on_c, 0, 80, 86
4, 111840, Note_on_c, 0, 87, 86
4, 112080, Note_on_c, 0, 87, 0
4, 112080, Note_on_c, 0, 75, 0
4, 112080, Note_on_c, 0, 78, 0
4, 112080, Note_on_c, 0, 80, 0
4, 112080, Note_on_c, 0, 72, 86
4, 112080, Note_on_c, 0, 84, 86
4, 112320, Note_on_c, 0, 84, 0
4, 112320, Note_on_c, 0, 72, 0
4, 112320, Note_on_c, 0, 73, 86
4, 112320, Note_on_c, 0, 77, 86
4, 112320, Note_on_c, 0, 80, 86
4, 112320, Note_on_c, 0, 85, 86
4, 112560, Note_on_c, 0, 85, 0
4, 112560, Note_on_c, 0, 73, 0
4, 112560, Note_on_c, 0, 77, 0
4, 112560, Note_on_c, 0, 80, 0
4, 112560, Note_on_c, 0, 65, 86
4, 112560, Note_on_c, 0, 77, 86
4, 112710, Note_on_c, 0, 70, 86
4, 112740, Note_on_c, 0, 73, 86
4, 112770, Note_on_c, 0, 77, 86
4, 112800, Note_on_c, 0, 77, 0
4, 112800, Note_on_c, 0, 65, 0
4, 112800, Note_on_c, 0, 82, 86
4, 113040, Note_on_c, 0, 82, 0
4, 113040, Note_on_c, 0, 77, 0
4, 113040, Note_on_c, 0, 70, 0
4, 113040, Note_on_c, 0, 73, 0
4, 113040, Note_on_c, 0, 72, 86
4, 113040, Note_on_c, 0, 84, 86
4, 113280, Note_on_c, 0, 84, 0
4, 113280, Note_on_c, 0, 72, 0
4, 113280, Note_on_c, 0, 68, 86
4, 113280, Note_on_c, 0, 73, 86
4, 113280, Note_on_c, 0, 77, 86
4, 113280, Note_on_c, 0, 80, 86
4, 113520, Note_on_c, 0, 80, 0
4, 113520, Note_on_c, 0, 68, 0
4, 113520, Note_on_c, 0, 73, 0
4, 113520, Note_on_c, 0, 77, 0
4, 113520, Note_on_c, 0, 70, 112
4, 113520, Note_on_c, 0, 82, 112
4, 113760, Note_on_c, 0, 82, 0
4, 113760, Note_on_c, 0, 70, 0
4, 113760, Note_on_c, 0, 72, 112
4, 113760, Note_on_c, 0, 84, 112
4, 114000, Note_on_c, 0, 84, 0
4, 114000, Note_on_c, 0, 72, 0
4, 114000, Note_on_c, 0, 73, 112
4, 114000, Note_on_c, 0, 85, 112
4, 114240, Note_on_c, 0, 85, 0
4, 114240, Note_on_c, 0, 73, 0
4, 114240, Note_on_c, 0, 75, 112
4, 114240, Note_on_c, 0, 80, 112
4, 114240, Note_on_c, 0, 85, 112
4, 114240, Note_on_c, 0, 87, 112
4, 114480, Note_on_c, 0, 87, 0
4, 114480, Note_on_c, 0, 75, 0
4, 114480, Note_on_c, 0, 80, 0
4, 114480, Note_on_c, 0, 85, 0
4, 114480, Note_on_c, 0, 77, 112
4, 114480, Note_on_c, 0, 89, 112
4, 114720, Note_on_c, 0, 89, 0
4, 114720, Note_on_c, 0, 77, 0
4, 114720, Note_on_c, 0, 75, 112
4, 114720, Note_on_c, 0, 79, 112
4, 114720, Note_on_c, 0, 82, 112
4, 114720, Note_on_c, 0, 87, 112
4, 114960, Note_on_c, 0, 87, 0
4, 114960, Note_on_c, 0, 75, 0
4, 114960, Note_on_c, 0, 79, 0
4, 114960, Note_on_c, 0, 82, 0
4, 114960, Note_on_c, 0, 77, 86
4, 114960, Note_on_c, 0, 89, 86
4, 115200, Note_on_c, 0, 89, 0
4, 115200, Note_on_c, 0, 77, 0
4, 115200, Note_on_c, 0, 70, 86
4, 115200, Note_on_c, 0, 75, 86
4, 115200, Note_on_c, 0, 79, 86
4, 115200, Note_on_c, 0, 82, 86
4, 115440, Note_on_c, 0, 82, 0
4, 115440, Note_on_c, 0, 70, 0
4, 115440, Note_on_c, 0, 75, 0
4, 115440, Note_on_c, 0, 79, 0
4, 115440, Note_on_c, 0, 71, 86
4, 115440, Note_on_c, 0, 83, 86
4, 115680, Note_on_c, 0, 83, 0
4, 115680, Note_on_c, 0, 71, 0
4, 115680, Note_on_c, 0, 78, 86
4, 115680, Note_on_c, 0, 80, 86
4, 115920, Note_on_c, 0, 80, 0
4, 115920, Note_on_c, 0, 78, 0
4, 115920, Note_on_c, 0, 72, 86
4, 115920, Note_on_c, 0, 84, 86
4, 116160, Note_on_c, 0, 84, 0
4, 116160, Note_on_c, 0, 72, 0
4, 116160, Note_on_c, 0, 73, 86
4, 116160, Note_on_c, 0, 77, 86
4, 116160, Note_on_c, 0, 80, 86
4, 116160, Note_on_c, 0, 85, 86
4, 116640, Note_on_c, 0, 85, 0
4, 116640, Note_on_c, 0, 73, 0
4, 116640, Note_on_c, 0, 77, 0
4, 116640, Note_on_c, 0, 80, 0
4, 116880, Note_on_c, 0, 56, 60
4, 116880, Note_on_c, 0, 68, 60
4, 117120, Note_on_c, 0, 68, 0
4, 117120, Note_on_c, 0, 56, 0
4, 117120, Note_on_c, 0, 53, 60
4, 117120, Note_on_c, 0, 65, 60
4, 117360, Note_on_c, 0, 65, 0
4, 117360, Note_on_c, 0, 53, 0
4, 117360, Note_on_c, 0, 51, 60
4, 117360, Note_on_c, 0, 63, 60
4, 117600, Note_on_c, 0, 63, 0
4, 117600, Note_on_c, 0, 51, 0
4, 117600, Note_on_c, 0, 49, 60
4, 117600, Note_on_c, 0, 61, 60
4, 118080, Note_on_c, 0, 61, 0
4, 118080, Note_on_c, 0, 49, 0
4, 118080, Note_on_c, 0, 62, 86
4, 118080, Note_on_c, 0, 74, 86
4, 118800, Note_on_c, 0, 74, 0
4, 118800, Note_on_c, 0, 62, 0
4, 118800, Note_on_c, 0, 53, 60
4, 118800, Note_on_c, 0, 65, 60
4, 119040, Note_on_c, 0, 65, 0
4, 119040, Note_on_c, 0, 53, 0
4, 119040, Note_on_c, 0, 54, 60
4, 119040, Note_on_c, 0, 66, 60
4, 119760, Note_on_c, 0, 66, 0
4, 119760, Note_on_c, 0, 54, 0
4, 119760, Note_on_c, 0, 61, 60
4, 119760, Note_on_c, 0, 73, 60
4, 120000, Note_on_c, 0, 73, 0
4, 120000, Note_on_c, 0, 61, 0
4, 120000, Note_on_c, 0, 57, 60
4, 120000, Note_on_c, 0, 69, 60
4, 120240, Note_on_c, 0, 69, 0
4, 120240, Note_on_c, 0, 57, 0
4, 120240, Note_on_c, 0, 54, 60
4, 120240, Note_on_c, 0, 66, 60
4, 120480, Note_on_c, 0, 66, 0
4, 120480, Note_on_c, 0, 54, 0
4, 120480, Note_on_c, 0, 51, 60
4, 120480, Note_on_c, 0, 63, 60
4, 120960, Note_on_c, 0, 63, 0
4, 120960, Note_on_c, 0, 51, 0
4, 120960, Note_on_c, 0, 57, 86
4, 120960, Note_on_c, 0, 69, 86
4, 121680, Note_on_c, 0, 69, 0
4, 121680, Note_on_c, 0, 57, 0
4, 121680, Note_on_c, 0, 56, 60
4, 121680, Note_on_c, 0, 68, 60
4, 121920, Note_on_c, 0, 68, 0
4, 121920, Note_on_c, 0, 56, 0
4, 121920, Note_on_c, 0, 49, 60
4, 121920, Note_on_c, 0, 61, 60
4, 122400, Note_on_c, 0, 61, 0
4, 122400, Note_on_c, 0, 49, 0
4, 122640, Note_on_c, 0, 56, 60
4, 122880, Note_on_c, 0, 56, 0
4, 122880, Note_on_c, 0, 53, 60
4, 123120, Note_on_c, 0, 53, 0
4, 123120, Note_on_c, 0, 51, 60
4, 123360, Note_on_c, 0, 51, 0
4, 123360, Note_on_c, 0, 49, 60
4, 123840, Note_on_c, 0, 49, 0
4, 123840, Note_on_c, 0, 62, 86
4, 124560, Note_on_c, 0, 62, 0
4, 124560, Note_on_c, 0, 53, 60
4, 124800, Note_on_c, 0, 53, 0
4, 124800, Note_on_c, 0, 54, 60
4, 125520, Note_on_c, 0, 54, 0
4, 125520, Note_on_c, 0, 61, 60
4, 125760, Note_on_c, 0, 61, 0
4, 125760, Note_on_c, 0, 57, 60
4, 126000, Note_on_c, 0, 57, 0
4, 126000, Note_on_c, 0, 54, 60
4, 126240, Note_on_c, 0, 54, 0
4, 126240, Note_on_c, 0, 51, 60
4, 126720, Note_on_c, 0, 51, 0
4, 126720, Note_on_c, 0, 57, 86
4, 127440, Note_on_c, 0, 57, 0
4, 127440, Note_on_c, 0, 56, 60
4, 127680, Note_on_c, 0, 56, 0
4, 127680, Note_on_c, 0, 49, 60
4, 128080, Note_on_c, 0, 53, 60
4, 128120, Note_on_c, 0, 56, 60
4, 128160, Note_on_c, 0, 49, 0
4, 128160, Note_on_c, 0, 61, 60
4, 128560, Note_on_c, 0, 56, 60
4, 128600, Note_on_c, 0, 61, 60
4, 128640, Note_on_c, 0, 61, 0
4, 128640, Note_on_c, 0, 53, 0
4, 128640, Note_on_c, 0, 56, 0
4, 128640, Note_on_c, 0, 65, 60
4, 129120, Note_on_c, 0, 65, 0
4, 129120, Note_on_c, 0, 56, 0
4, 129120, Note_on_c, 0, 61, 0
4, 129120, Note_on_c, 0, 53, 86
4, 129120, Note_on_c, 0, 65, 86
4, 130560, Note_on_c, 0, 65, 0
4, 130560, Note_on_c, 0, 53, 0
4, 132000, Note_on_c, 0, 53, 86
4, 132000, Note_on_c, 0, 65, 86
4, 133440, Note_on_c, 0, 65, 0
4, 133440, Note_on_c, 0, 53, 0
4, 134880, Note_on_c, 0, 53, 86
4, 134880, Note_on_c, 0, 65, 86
4, 136320, Note_on_c, 0, 65, 0
4, 136320, Note_on_c, 0, 53, 0
4, 137760, Note_on_c, 0, 53, 86
4, 137760, Note_on_c, 0, 65, 86
4, 139200, Note_on_c, 0, 65, 0
4, 139200, Note_on_c, 0, 53, 0
4, 139200, Note_on_c, 0, 60, 34
4, 139200, Note_on_c, 0, 65, 34
4, 139200, Note_on_c, 0, 68, 34
4, 139200, Note_on_c, 0, 72, 34
4, 140160, Note_on_c, 0, 72, 0
4, 140160, Note_on_c, 0, 60, 0
4, 140160, Note_on_c, 0, 65, 0
4, 140160, Note_on_c, 0, 68, 0
4, 140160, Note_on_c, 0, 60, 34
4, 140160, Note_on_c, 0, 72, 34
4, 140520, Note_on_c, 0, 72, 0
4, 140520, Note_on_c, 0, 60, 0
4, 140520, Note_on_c, 0, 60, 34
4, 140520, Note_on_c, 0, 72, 34
4, 140640, Note_on_c, 0, 72, 0
4, 140640, Note_on_c, 0, 60, 0
4, 140640, Note_on_c, 0, 60, 34
4, 140640, Note_on_c, 0, 72, 34
4, 141600, Note_on_c, 0, 72, 0
4, 141600, Note_on_c, 0, 60, 0
4, 141600, Note_on_c, 0, 60, 34
4, 141600, Note_on_c, 0, 72, 34
4, 141960, Note_on_c, 0, 72, 0
4, 141960, Note_on_c, 0, 60, 0
4, 141960, Note_on_c, 0, 60, 34
4, 141960, Note_on_c, 0, 72, 34
4, 142080, Note_on_c, 0, 72, 0
4, 142080, Note_on_c, 0, 60, 0
4, 142080, Note_on_c, 0, 60, 34
4, 142080, Note_on_c, 0, 65, 34
4, 142080, Note_on_c, 0, 67, 34
4, 142080, Note_on_c, 0, 72, 34
4, 143040, Note_on_c, 0, 72, 0
4, 143040, Note_on_c, 0, 60, 0
4, 143040, Note_on_c, 0, 65, 0
4, 143040, Note_on_c, 0, 67, 0
4, 143040, Note_on_c, 0, 60, 34
4, 143040, Note_on_c, 0, 72, 34
4, 143400, Note_on_c, 0, 72, 0
4, 143400, Note_on_c, 0, 60, 0
4, 143400, Note_on_c, 0, 60, 34
4, 143400, Note_on_c, 0, 72, 34
4, 143520, Note_on_c, 0, 72, 0
4, 143520, Note_on_c, 0, 60, 0
4, 143520, Note_on_c, 0, 60, 34
4, 143520, Note_on_c, 0, 64, 34
4, 143520, Note_on_c, 0, 67, 34
4, 143520, Note_on_c, 0, 72, 34
4, 144000, Note_on_c, 0, 72, 0
4, 144000, Note_on_c, 0, 60, 0
4, 144000, Note_on_c, 0, 64, 0
4, 144000, Note_on_c, 0, 67, 0
4, 152160, Note_on_c, 0, 60, 47
4, 152160, Note_on_c, 0, 72, 47
4, 152520, Note_on_c, 0, 72, 0
4, 152520, Note_on_c, 0, 60, 0
4, 152520, Note_on_c, 0, 60, 47
4, 152520, Note_on_c, 0, 72, 47
4, 152640, Note_on_c, 0, 72, 0
4, 152640, Note_on_c, 0, 60, 0
4, 152640, Note_on_c, 0, 60, 47
4, 152640, Note_on_c, 0, 72, 47
4, 154080, Note_on_c, 0, 72, 0
4, 154080, Note_on_c, 0, 60, 0
4, 154080, Note_on_c, 0, 60, 47
4, 154080, Note_on_c, 0, 72, 47
4, 155040, Note_on_c, 0, 72, 0
4, 155040, Note_on_c, 0, 60, 0
4, 155040, Note_on_c, 0, 60, 47
4, 155040, Note_on_c, 0, 72, 47
4, 155400, Note_on_c, 0, 72, 0
4, 155400, Note_on_c, 0, 60, 0
4, 155400, Note_on_c, 0, 60, 47
4, 155400, Note_on_c, 0, 72, 47
4, 155520, Note_on_c, 0, 72, 0
4, 155520, Note_on_c, 0, 60, 0
4, 155520, Note_on_c, 0, 60, 47
4, 155520, Note_on_c, 0, 72, 47
4, 156960, Note_on_c, 0, 72, 0
4, 156960, Note_on_c, 0, 60, 0
4, 156960, Note_on_c, 0, 60, 47
4, 156960, Note_on_c, 0, 72, 47
4, 157920, Note_on_c, 0, 72, 0
4, 157920, Note_on_c, 0, 60, 0
4, 157920, Note_on_c, 0, 60, 47
4, 157920, Note_on_c, 0, 72, 47
4, 158880, Note_on_c, 0, 72, 0
4, 158880, Note_on_c, 0, 60, 0
4, 158880, Note_on_c, 0, 60, 47
4, 158880, Note_on_c, 0, 72, 47
4, 159840, Note_on_c, 0, 72, 0
4, 159840, Note_on_c, 0, 60, 0
4, 172320, Note_on_c, 0, 53, 47
4, 172320, Note_on_c, 0, 58, 47
4, 172320, Note_on_c, 0, 65, 47
4, 173760, Note_on_c, 0, 65, 0
4, 173760, Note_on_c, 0, 58, 0
4, 173760, Note_on_c, 0, 53, 0
4, 174720, Note_on_c, 0, 53, 47
4, 174720, Note_on_c, 0, 60, 47
4, 174720, Note_on_c, 0, 65, 47
4, 175680, Note_on_c, 0, 65, 0
4, 175680, Note_on_c, 0, 60, 0
4, 175680, Note_on_c, 0, 53, 0
4, 175680, Note_on_c, 0, 53, 47
4, 175680, Note_on_c, 0, 60, 47
4, 175680, Note_on_c, 0, 65, 47
4, 176640, Note_on_c, 0, 65, 0
4, 176640, Note_on_c, 0, 60, 0
4, 176640, Note_on_c, 0, 53, 0
4, 176640, Note_on_c, 0, 61, 47
4, 177120, Note_on_c, 0, 61, 0
4, 178320, Note_on_c, 0, 58, 47
4, 178320, Note_on_c, 0, 64, 47
4, 178800, Note_on_c, 0, 64, 0
4, 178800, Note_on_c, 0, 58, 0
4, 178800, Note_on_c, 0, 58, 47
4, 178800, Note_on_c, 0, 64, 47
4, 179040, Note_on_c, 0, 64, 0
4, 179040, Note_on_c, 0, 58, 0
4, 179040, Note_on_c, 0, 57, 47
4, 179040, Note_on_c, 0, 65, 47
4, 179087, Note_on_c, 0, 65, 0
4, 179087, Note_on_c, 0, 57, 0
4, 179400, Note_on_c, 0, 84, 60
4, 179439, Note_on_c, 0, 84, 0
4, 179439, Note_on_c, 0, 86, 60
4, 179480, Note_on_c, 0, 86, 0
4, 179480, Note_on_c, 0, 88, 60
4, 179520, Note_on_c, 0, 88, 0
4, 179520, Note_on_c, 0, 81, 60
4, 179520, Note_on_c, 0, 89, 60
4, 179567, Note_on_c, 0, 89, 0
4, 179567, Note_on_c, 0, 81, 0
4, 180000, Note_on_c, 0, 53, 47
4, 180000, Note_on_c, 0, 58, 47
4, 180000, Note_on_c, 0, 65, 47
4, 181440, Note_on_c, 0, 65, 0
4, 181440, Note_on_c, 0, 58, 0
4, 181440, Note_on_c, 0, 53, 0
4, 182400, Note_on_c, 0, 53, 47
4, 182400, Note_on_c, 0, 60, 47
4, 182400, Note_on_c, 0, 65, 47
4, 183360, Note_on_c, 0, 65, 0
4, 183360, Note_on_c, 0, 60, 0
4, 183360, Note_on_c, 0, 53, 0
4, 183360, Note_on_c, 0, 53, 47
4, 183360, Note_on_c, 0, 60, 47
4, 183360, Note_on_c, 0, 65, 47
4, 184320, Note_on_c, 0, 65, 0
4, 184320, Note_on_c, 0, 60, 0
4, 184320, Note_on_c, 0, 53, 0
4, 184320, Note_on_c, 0, 61, 47
4, 184800, Note_on_c, 0, 61, 0
4, 186000, Note_on_c, 0, 61, 47
4, 186000, Note_on_c, 0, 67, 47
4, 186480, Note_on_c, 0, 67, 0
4, 186480, Note_on_c, 0, 61, 0
4, 186480, Note_on_c, 0, 61, 47
4, 186480, Note_on_c, 0, 67, 47
4, 186720, Note_on_c, 0, 67, 0
4, 186720, Note_on_c, 0, 61, 0
4, 186720, Note_on_c, 0, 60, 47
4, 186720, Note_on_c, 0, 68, 47
4, 186767, Note_on_c, 0, 68, 0
4, 186767, Note_on_c, 0, 60, 0
4, 187080, Note_on_c, 0, 87, 60
4, 187119, Note_on_c, 0, 87, 0
4, 187119, Note_on_c, 0, 89, 60
4, 187160, Note_on_c, 0, 89, 0
4, 187160, Note_on_c, 0, 91, 60
4, 187200, Note_on_c, 0, 91, 0
4, 187200, Note_on_c, 0, 84, 60
4, 187200, Note_on_c, 0, 92, 60
4, 187247, Note_on_c, 0, 92, 0
4, 187247, Note_on_c, 0, 84, 0
4, 188160, Note_on_c, 0, 56, 47
4, 188160, Note_on_c, 0, 61, 47
4, 188160, Note_on_c, 0, 68, 47
4, 189120, Note_on_c, 0, 68, 0
4, 189120, Note_on_c, 0, 61, 0
4, 189120, Note_on_c, 0, 56, 0
4, 189840, Note_on_c, 0, 62, 47
4, 189840, Note_on_c, 0, 67, 47
4, 190320, Note_on_c, 0, 67, 0
4, 190320, Note_on_c, 0, 62, 0
4, 190320, Note_on_c, 0, 62, 47
4, 190320, Note_on_c, 0, 67, 47
4, 190560, Note_on_c, 0, 67, 0
4, 190560, Note_on_c, 0, 62, 0
4, 190560, Note_on_c, 0, 60, 47
4, 190560, Note_on_c, 0, 67, 47
4, 190607, Note_on_c, 0, 67, 0
4, 190607, Note_on_c, 0, 60, 0
4, 190920, Note_on_c, 0, 91, 60
4, 190959, Note_on_c, 0, 91, 0
4, 190959, Note_on_c, 0, 93, 60
4, 191000, Note_on_c, 0, 93, 0
4, 191000, Note_on_c, 0, 95, 60
4, 191040, Note_on_c, 0, 95, 0
4, 191040, Note_on_c, 0, 88, 60
4, 191040, Note_on_c, 0, 96, 60
4, 191055, Note_on_c, 0, 96, 0
4, 191055, Note_on_c, 0, 88, 0
4, 192000, Note_on_c, 0, 53, 47
4, 192000, Note_on_c, 0, 60, 47
4, 192000, Note_on_c, 0, 65, 47
4, 192240, Note_on_c, 0, 65, 0
4, 192240, Note_on_c, 0, 60, 0
4, 192240, Note_on_c, 0, 53, 0
4, 192960, Note_on_c, 0, 53, 47
4, 192960, Note_on_c, 0, 58, 47
4, 192960, Note_on_c, 0, 61, 47
4, 192960, Note_on_c, 0, 65, 47
4, 193200, Note_on_c, 0, 65, 0
4, 193200, Note_on_c, 0, 53, 0
4, 193200, Note_on_c, 0, 58, 0
4, 193200, Note_on_c, 0, 61, 0
4, 193440, Note_on_c, 0, 66, 47
4, 193440, Note_on_c, 0, 78, 47
4, 193599, Note_on_c, 0, 78, 0
4, 193599, Note_on_c, 0, 66, 0
4, 193599, Note_on_c, 0, 67, 47
4, 193599, Note_on_c, 0, 79, 47
4, 193760, Note_on_c, 0, 79, 0
4, 193760, Note_on_c, 0, 67, 0
4, 193920, Note_on_c, 0, 72, 47
4, 193920, Note_on_c, 0, 84, 47
4, 194079, Note_on_c, 0, 84, 0
4, 194079, Note_on_c, 0, 72, 0
4, 194079, Note_on_c, 0, 67, 47
4, 194079, Note_on_c, 0, 79, 47
4, 194240, Note_on_c, 0, 79, 0
4, 194240, Note_on_c, 0, 67, 0
4, 194400, Note_on_c, 0, 70, 47
4, 194400, Note_on_c, 0, 82, 47
4, 194559, Note_on_c, 0, 82, 0
4, 194559, Note_on_c, 0, 70, 0
4, 194559, Note_on_c, 0, 68, 47
4, 194559, Note_on_c, 0, 80, 47
4, 194720, Note_on_c, 0, 80, 0
4, 194720, Note_on_c, 0, 68, 0
4, 194880, Note_on_c, 0, 67, 47
4, 194880, Note_on_c, 0, 79, 47
4, 195039, Note_on_c, 0, 79, 0
4, 195039, Note_on_c, 0, 67, 0
4, 195039, Note_on_c, 0, 65, 47
4, 195039, Note_on_c, 0, 77, 47
4, 195200, Note_on_c, 0, 77, 0
4, 195200, Note_on_c, 0, 65, 0
4, 195840, Note_on_c, 0, 53, 47
4, 195840, Note_on_c, 0, 60, 47
4, 195840, Note_on_c, 0, 65, 47
4, 196080, Note_on_c, 0, 65, 0
4, 196080, Note_on_c, 0, 60, 0
4, 196080, Note_on_c, 0, 53, 0
4, 196800, Note_on_c, 0, 53, 47
4, 196800, Note_on_c, 0, 58, 47
4, 196800, Note_on_c, 0, 61, 47
4, 196800, Note_on_c, 0, 65, 47
4, 197040, Note_on_c, 0, 65, 0
4, 197040, Note_on_c, 0, 53, 0
4, 197040, Note_on_c, 0, 58, 0
4, 197040, Note_on_c, 0, 61, 0
4, 197280, Note_on_c, 0, 66, 47
4, 197280, Note_on_c, 0, 78, 47
4, 197439, Note_on_c, 0, 78, 0
4, 197439, Note_on_c, 0, 66, 0
4, 197439, Note_on_c, 0, 67, 47
4, 197439, Note_on_c, 0, 79, 47
4, 197600, Note_on_c, 0, 79, 0
4, 197600, Note_on_c, 0, 67, 0
4, 197760, Note_on_c, 0, 72, 47
4, 197760, Note_on_c, 0, 84, 47
4, 197919, Note_on_c, 0, 84, 0
4, 197919, Note_on_c, 0, 72, 0
4, 197919, Note_on_c, 0, 67, 47
4, 197919, Note_on_c, 0, 79, 47
4, 198080, Note_on_c, 0, 79, 0
4, 198080, Note_on_c, 0, 67, 0
4, 198240, Note_on_c, 0, 70, 47
4, 198240, Note_on_c, 0, 82, 47
4, 198399, Note_on_c, 0, 82, 0
4, 198399, Note_on_c, 0, 70, 0
4, 198399, Note_on_c, 0, 68, 47
4, 198399, Note_on_c, 0, 80, 47
4, 198560, Note_on_c, 0, 80, 0
4, 198560, Note_on_c, 0, 68, 0
4, 198720, Note_on_c, 0, 67, 47
4, 198720, Note_on_c, 0, 79, 47
4, 198879, Note_on_c, 0, 79, 0
4, 198879, Note_on_c, 0, 67, 0
4, 198879, Note_on_c, 0, 65, 47
4, 198879, Note_on_c, 0, 77, 47
4, 199040, Note_on_c, 0, 77, 0
4, 199040, Note_on_c, 0, 65, 0
4, 199680, Note_on_c, 0, 53, 47
4, 199680, Note_on_c, 0, 60, 47
4, 199680, Note_on_c, 0, 65, 47
4, 199920, Note_on_c, 0, 65, 0
4, 199920, Note_on_c, 0, 60, 0
4, 199920, Note_on_c, 0, 53, 0
4, 200640, Note_on_c, 0, 53, 47
4, 200640, Note_on_c, 0, 58, 47
4, 200640, Note_on_c, 0, 61, 47
4, 200640, Note_on_c, 0, 65, 47
4, 200880, Note_on_c, 0, 65, 0
4, 200880, Note_on_c, 0, 53, 0
4, 200880, Note_on_c, 0, 58, 0
4, 200880, Note_on_c, 0, 61, 0
4, 201600, Note_on_c, 0, 55, 47
4, 201600, Note_on_c, 0, 62, 47
4, 201600, Note_on_c, 0, 67, 47
4, 201840, Note_on_c, 0, 67, 0
4, 201840, Note_on_c, 0, 62, 0
4, 201840, Note_on_c, 0, 55, 0
4, 202560, Note_on_c, 0, 55, 47
4, 202560, Note_on_c, 0, 64, 47
4, 202560, Note_on_c, 0, 67, 47
4, 202800, Note_on_c, 0, 67, 0
4, 202800, Note_on_c, 0, 64, 0
4, 202800, Note_on_c, 0, 55, 0
4, 203520, Note_on_c, 0, 76, 60
4, 203520, Note_on_c, 0, 79, 60
4, 203520, Note_on_c, 0, 82, 60
4, 203567, Note_on_c, 0, 82, 0
4, 203567, Note_on_c, 0, 79, 0
4, 203567, Note_on_c, 0, 76, 0
4, 204480, Note_on_c, 0, 64, 60
4, 204480, Note_on_c, 0, 67, 60
4, 204480, Note_on_c, 0, 70, 60
4, 204527, Note_on_c, 0, 70, 0
4, 204527, Note_on_c, 0, 67, 0
4, 204527, Note_on_c, 0, 64, 0
4, 210720, Note_on_c, 0, 77, 47
4, 210879, Note_on_c, 0, 77, 0
4, 210879, Note_on_c, 0, 79, 47
4, 211040, Note_on_c, 0, 79, 0
4, 211200, Note_on_c, 0, 80, 47
4, 211359, Note_on_c, 0, 80, 0
4, 211359, Note_on_c, 0, 79, 47
4, 211520, Note_on_c, 0, 79, 0
4, 211680, Note_on_c, 0, 82, 47
4, 211839, Note_on_c, 0, 82, 0
4, 211839, Note_on_c, 0, 80, 47
4, 212000, Note_on_c, 0, 80, 0
4, 212160, Note_on_c, 0, 79, 47
4, 212319, Note_on_c, 0, 79, 0
4, 212319, Note_on_c, 0, 77, 47
4, 212480, Note_on_c, 0, 77, 0
4, 212640, Note_on_c, 0, 75, 47
4, 212880, Note_on_c, 0, 75, 0
4, 214560, Note_on_c, 0, 80, 47
4, 214719, Note_on_c, 0, 80, 0
4, 214719, Note_on_c, 0, 82, 47
4, 214880, Note_on_c, 0, 82, 0
4, 215040, Note_on_c, 0, 84, 47
4, 215199, Note_on_c, 0, 84, 0
4, 215199, Note_on_c, 0, 82, 47
4, 215360, Note_on_c, 0, 82, 0
4, 215520, Note_on_c, 0, 85, 47
4, 215679, Note_on_c, 0, 85, 0
4, 215679, Note_on_c, 0, 84, 47
4, 215840, Note_on_c, 0, 84, 0
4, 216000, Note_on_c, 0, 82, 47
4, 216159, Note_on_c, 0, 82, 0
4, 216159, Note_on_c, 0, 80, 47
4, 216320, Note_on_c, 0, 80, 0
4, 216480, Note_on_c, 0, 79, 47
4, 216720, Note_on_c, 0, 79, 0
4, 217440, Note_on_c, 0, 79, 47
4, 217599, Note_on_c, 0, 79, 0
4, 217599, Note_on_c, 0, 77, 47
4, 217760, Note_on_c, 0, 77, 0
4, 217920, Note_on_c, 0, 76, 47
4, 218079, Note_on_c, 0, 76, 0
4, 218079, Note_on_c, 0, 74, 47
4, 218240, Note_on_c, 0, 74, 0
4, 218400, Note_on_c, 0, 72, 47
4, 218640, Note_on_c, 0, 72, 0
4, 220320, Note_on_c, 0, 74, 47
4, 220320, Note_on_c, 0, 86, 47
4, 220479, Note_on_c, 0, 86, 0
4, 220479, Note_on_c, 0, 74, 0
4, 220479, Note_on_c, 0, 76, 47
4, 220479, Note_on_c, 0, 88, 47
4, 220640, Note_on_c, 0, 88, 0
4, 220640, Note_on_c, 0, 76, 0
4, 220800, Note_on_c, 0, 77, 47
4, 220800, Note_on_c, 0, 89, 47
4, 220959, Note_on_c, 0, 89, 0
4, 220959, Note_on_c, 0, 77, 0
4, 220959, Note_on_c, 0, 76, 47
4, 220959, Note_on_c, 0, 88, 47
4, 221120, Note_on_c, 0, 88, 0
4, 221120, Note_on_c, 0, 76, 0
4, 221280, Note_on_c, 0, 79, 47
4, 221280, Note_on_c, 0, 91, 47
4, 221439, Note_on_c, 0, 91, 0
4, 221439, Note_on_c, 0, 79, 0
4, 221439, Note_on_c, 0, 77, 47
4, 221439, Note_on_c, 0, 89, 47
4, 221600, Note_on_c, 0, 89, 0
4, 221600, Note_on_c, 0, 77, 0
4, 221760, Note_on_c, 0, 76, 47
4, 221760, Note_on_c, 0, 88, 47
4, 221919, Note_on_c, 0, 88, 0
4, 221919, Note_on_c, 0, 76, 0
4, 221919, Note_on_c, 0, 74, 47
4, 221919, Note_on_c, 0, 86, 47
4, 222080, Note_on_c, 0, 86, 0
4, 222080, Note_on_c, 0, 74, 0
4, 222240, Note_on_c, 0, 72, 47
4, 222240, Note_on_c, 0, 84, 47
4, 222480, Note_on_c, 0, 84, 0
4, 222480, Note_on_c, 0, 72, 0
4, 224160, Note_on_c, 0, 74, 47
4, 224160, Note_on_c, 0, 86, 47
4, 224319, Note_on_c, 0, 86, 0
4, 224319, Note_on_c, 0, 74, 0
4, 224319, Note_on_c, 0, 76, 47
4, 224319, Note_on_c, 0, 88, 47
4, 224480, Note_on_c, 0, 88, 0
4, 224480, Note_on_c, 0, 76, 0
4, 224640, Note_on_c, 0, 77, 47
4, 224640, Note_on_c, 0, 89, 47
4, 224799, Note_on_c, 0, 89, 0
4, 224799, Note_on_c, 0, 77, 0
4, 224799, Note_on_c, 0, 76, 47
4, 224799, Note_on_c, 0, 88, 47
4, 224960, Note_on_c, 0, 88, 0
4, 224960, Note_on_c, 0, 76, 0
4, 225120, Note_on_c, 0, 79, 47
4, 225120, Note_on_c, 0, 91, 47
4, 225279, Note_on_c, 0, 91, 0
4, 225279, Note_on_c, 0, 79, 0
4, 225279, Note_on_c, 0, 77, 47
4, 225279, Note_on_c, 0, 89, 47
4, 225440, Note_on_c, 0, 89, 0
4, 225440, Note_on_c, 0, 77, 0
4, 225600, Note_on_c, 0, 76, 47
4, 225600, Note_on_c, 0, 88, 47
4, 225759, Note_on_c, 0, 88, 0
4, 225759, Note_on_c, 0, 76, 0
4, 225759, Note_on_c, 0, 74, 47
4, 225759, Note_on_c, 0, 86, 47
4, 225920, Note_on_c, 0, 86, 0
4, 225920, Note_on_c, 0, 74, 0
4, 226080, Note_on_c, 0, 72, 47
4, 226080, Note_on_c, 0, 84, 47
4, 226320, Note_on_c, 0, 84, 0
4, 226320, Note_on_c, 0, 72, 0
4, 235680, Note_on_c, 0, 72, 47
4, 235680, Note_on_c, 0, 84, 47
4, 235711, Note_on_c, 0, 84, 0
4, 235711, Note_on_c, 0, 72, 0
4, 235839, Note_on_c, 0, 74, 47
4, 235839, Note_on_c, 0, 86, 47
4, 235871, Note_on_c, 0, 86, 0
4, 235871, Note_on_c, 0, 74, 0
4, 236160, Note_on_c, 0, 76, 47
4, 236160, Note_on_c, 0, 88, 47
4, 236191, Note_on_c, 0, 88, 0
4, 236191, Note_on_c, 0, 76, 0
4, 236319, Note_on_c, 0, 74, 47
4, 236319, Note_on_c, 0, 86, 47
4, 236351, Note_on_c, 0, 86, 0
4, 236351, Note_on_c, 0, 74, 0
4, 236640, Note_on_c, 0, 77, 47
4, 236640, Note_on_c, 0, 89, 47
4, 236671, Note_on_c, 0, 89, 0
4, 236671, Note_on_c, 0, 77, 0
4, 236799, Note_on_c, 0, 76, 47
4, 236799, Note_on_c, 0, 88, 47
4, 236831, Note_on_c, 0, 88, 0
4, 236831, Note_on_c, 0, 76, 0
4, 237120, Note_on_c, 0, 74, 47
4, 237120, Note_on_c, 0, 86, 47
4, 237151, Note_on_c, 0, 86, 0
4, 237151, Note_on_c, 0, 74, 0
4, 237279, Note_on_c, 0, 72, 47
4, 237279, Note_on_c, 0, 84, 47
4, 237311, Note_on_c, 0, 84, 0
4, 237311, Note_on_c, 0, 72, 0
4, 239520, Note_on_c, 0, 74, 47
4, 239520, Note_on_c, 0, 86, 47
4, 239551, Note_on_c, 0, 86, 0
4, 239551, Note_on_c, 0, 74, 0
4, 239679, Note_on_c, 0, 76, 47
4, 239679, Note_on_c, 0, 88, 47
4, 239711, Note_on_c, 0, 88, 0
4, 239711, Note_on_c, 0, 76, 0
4, 240000, Note_on_c, 0, 77, 47
4, 240000, Note_on_c, 0, 89, 47
4, 240031, Note_on_c, 0, 89, 0
4, 240031, Note_on_c, 0, 77, 0
4, 240159, Note_on_c, 0, 76, 47
4, 240159, Note_on_c, 0, 88, 47
4, 240191, Note_on_c, 0, 88, 0
4, 240191, Note_on_c, 0, 76, 0
4, 240480, Note_on_c, 0, 79, 47
4, 240480, Note_on_c, 0, 91, 47
4, 240511, Note_on_c, 0, 91, 0
4, 240511, Note_on_c, 0, 79, 0
4, 240639, Note_on_c, 0, 77, 47
4, 240639, Note_on_c, 0, 89, 47
4, 240671, Note_on_c, 0, 89, 0
4, 240671, Note_on_c, 0, 77, 0
4, 240960, Note_on_c, 0, 76, 47
4, 240960, Note_on_c, 0, 88, 47
4, 240991, Note_on_c, 0, 88, 0
4, 240991, Note_on_c, 0, 76, 0
4, 241119, Note_on_c, 0, 77, 47
4, 241119, Note_on_c, 0, 89, 47
4, 241151, Note_on_c, 0, 89, 0
4, 241151, Note_on_c, 0, 77, 0
4, 242400, Note_on_c, 0, 65, 60
4, 242400, Note_on_c, 0, 69, 60
4, 242400, Note_on_c, 0, 75, 60
4, 242400, Note_on_c, 0, 77, 60
4, 242400, Note_on_c, 0, 89, 60
4, 242431, Note_on_c, 0, 89, 0
4, 242431, Note_on_c, 0, 75, 0
4, 242431, Note_on_c, 0, 65, 0
4, 242431, Note_on_c, 0, 69, 0
4, 242431, Note_on_c, 0, 77, 0
4, 242559, Note_on_c, 0, 65, 60
4, 242559, Note_on_c, 0, 69, 60
4, 242559, Note_on_c, 0, 75, 60
4, 242559, Note_on_c, 0, 78, 60
4, 242559, Note_on_c, 0, 90, 60
4, 242591, Note_on_c, 0, 90, 0
4, 242591, Note_on_c, 0, 75, 0
4, 242591, Note_on_c, 0, 65, 0
4, 242591, Note_on_c, 0, 69, 0
4, 242591, Note_on_c, 0, 78, 0
4, 242880, Note_on_c, 0, 65, 60
4, 242880, Note_on_c, 0, 69, 60
4, 242880, Note_on_c, 0, 75, 60
4, 242880, Note_on_c, 0, 78, 60
4, 242880, Note_on_c, 0, 90, 60
4, 242911, Note_on_c, 0, 90, 0
4, 242911, Note_on_c, 0, 75, 0
4, 242911, Note_on_c, 0, 65, 0
4, 242911, Note_on_c, 0, 69, 0
4, 242911, Note_on_c, 0, 78, 0
4, 243039, Note_on_c, 0, 65, 60
4, 243039, Note_on_c, 0, 69, 60
4, 243039, Note_on_c, 0, 75, 60
4, 243039, Note_on_c, 0, 77, 60
4, 243039, Note_on_c, 0, 89, 60
4, 243071, Note_on_c, 0, 89, 0
4, 243071, Note_on_c, 0, 75, 0
4, 243071, Note_on_c, 0, 65, 0
4, 243071, Note_on_c, 0, 69, 0
4, 243071, Note_on_c, 0, 77, 0
4, 244320, Note_on_c, 0, 65, 60
4, 244320, Note_on_c, 0, 70, 60
4, 244320, Note_on_c, 0, 73, 60
4, 244320, Note_on_c, 0, 77, 60
4, 244320, Note_on_c, 0, 89, 60
4, 244351, Note_on_c, 0, 89, 0
4, 244351, Note_on_c, 0, 73, 0
4, 244351, Note_on_c, 0, 65, 0
4, 244351, Note_on_c, 0, 70, 0
4, 244351, Note_on_c, 0, 77, 0
4, 244479, Note_on_c, 0, 65, 60
4, 244479, Note_on_c, 0, 70, 60
4, 244479, Note_on_c, 0, 73, 60
4, 244479, Note_on_c, 0, 79, 60
4, 244479, Note_on_c, 0, 91, 60
4, 244511, Note_on_c, 0, 91, 0
4, 244511, Note_on_c, 0, 73, 0
4, 244511, Note_on_c, 0, 65, 0
4, 244511, Note_on_c, 0, 70, 0
4, 244511, Note_on_c, 0, 79, 0
4, 244800, Note_on_c, 0, 65, 60
4, 244800, Note_on_c, 0, 70, 60
4, 244800, Note_on_c, 0, 73, 60
4, 244800, Note_on_c, 0, 79, 60
4, 244800, Note_on_c, 0, 91, 60
4, 244831, Note_on_c, 0, 91, 0
4, 244831, Note_on_c, 0, 73, 0
4, 244831, Note_on_c, 0, 65, 0
4, 244831, Note_on_c, 0, 70, 0
4, 244831, Note_on_c, 0, 79, 0
4, 244959, Note_on_c, 0, 65, 60
4, 244959, Note_on_c, 0, 70, 60
4, 244959, Note_on_c, 0, 73, 60
4, 244959, Note_on_c, 0, 77, 60
4, 244959, Note_on_c, 0, 89, 60
4, 244991, Note_on_c, 0, 89, 0
4, 244991, Note_on_c, 0, 73, 0
4, 244991, Note_on_c, 0, 65, 0
4, 244991, Note_on_c, 0, 70, 0
4, 244991, Note_on_c, 0, 77, 0
4, 246240, Note_on_c, 0, 65, 60
4, 246240, Note_on_c, 0, 67, 60
4, 246240, Note_on_c, 0, 71, 60
4, 246240, Note_on_c, 0, 74, 60
4, 246240, Note_on_c, 0, 79, 60
4, 246240, Note_on_c, 0, 91, 60
4, 246271, Note_on_c, 0, 91, 0
4, 246271, Note_on_c, 0, 67, 0
4, 246271, Note_on_c, 0, 71, 0
4, 246271, Note_on_c, 0, 65, 0
4, 246271, Note_on_c, 0, 79, 0
4, 246271, Note_on_c, 0, 74, 0
4, 246399, Note_on_c, 0, 65, 60
4, 246399, Note_on_c, 0, 67, 60
4, 246399, Note_on_c, 0, 71, 60
4, 246399, Note_on_c, 0, 74, 60
4, 246399, Note_on_c, 0, 80, 60
4, 246399, Note_on_c, 0, 92, 60
4, 246431, Note_on_c, 0, 92, 0
4, 246431, Note_on_c, 0, 67, 0
4, 246431, Note_on_c, 0, 71, 0
4, 246431, Note_on_c, 0, 65, 0
4, 246431, Note_on_c, 0, 80, 0
4, 246431, Note_on_c, 0, 74, 0
4, 246720, Note_on_c, 0, 65, 60
4, 246720, Note_on_c, 0, 67, 60
4, 246720, Note_on_c, 0, 71, 60
4, 246720, Note_on_c, 0, 74, 60
4, 246720, Note_on_c, 0, 80, 60
4, 246720, Note_on_c, 0, 92, 60
4, 246751, Note_on_c, 0, 92, 0
4, 246751, Note_on_c, 0, 67, 0
4, 246751, Note_on_c, 0, 71, 0
4, 246751, Note_on_c, 0, 65, 0
4, 246751, Note_on_c, 0, 80, 0
4, 246751, Note_on_c, 0, 74, 0
4, 246879, Note_on_c, 0, 65, 60
4, 246879, Note_on_c, 0, 67, 60
4, 246879, Note_on_c, 0, 71, 60
4, 246879, Note_on_c, 0, 74, 60
4, 246879, Note_on_c, 0, 79, 60
4, 246879, Note_on_c, 0, 91, 60
4, 246911, Note_on_c, 0, 91, 0
4, 246911, Note_on_c, 0, 67, 0
4, 246911, Note_on_c, 0, 71, 0
4, 246911, Note_on_c, 0, 65, 0
4, 246911, Note_on_c, 0, 79, 0
4, 246911, Note_on_c, 0, 74, 0
4, 248160, Note_on_c, 0, 64, 60
4, 248160, Note_on_c, 0, 67, 60
4, 248160, Note_on_c, 0, 71, 60
4, 248160, Note_on_c, 0, 76, 60
4, 248160, Note_on_c, 0, 79, 60
4, 248160, Note_on_c, 0, 83, 60
4, 248191, Note_on_c, 0, 83, 0
4, 248191, Note_on_c, 0, 67, 0
4, 248191, Note_on_c, 0, 71, 0
4, 248191, Note_on_c, 0, 64, 0
4, 248191, Note_on_c, 0, 79, 0
4, 248191, Note_on_c, 0, 76, 0
4, 248319, Note_on_c, 0, 64, 60
4, 248319, Note_on_c, 0, 67, 60
4, 248319, Note_on_c, 0, 71, 60
4, 248319, Note_on_c, 0, 72, 60
4, 248319, Note_on_c, 0, 76, 60
4, 248319, Note_on_c, 0, 79, 60
4, 248319, Note_on_c, 0, 84, 60
4, 248351, Note_on_c, 0, 84, 0
4, 248351, Note_on_c, 0, 76, 0
4, 248351, Note_on_c, 0, 67, 0
4, 248351, Note_on_c, 0, 71, 0
4, 248351, Note_on_c, 0, 64, 0
4, 248351, Note_on_c, 0, 79, 0
4, 248351, Note_on_c, 0, 72, 0
4, 248640, Note_on_c, 0, 64, 60
4, 248640, Note_on_c, 0, 67, 60
4, 248640, Note_on_c, 0, 71, 60
4, 248640, Note_on_c, 0, 73, 60
4, 248640, Note_on_c, 0, 76, 60
4, 248640, Note_on_c, 0, 79, 60
4, 248640, Note_on_c, 0, 85, 60
4, 248671, Note_on_c, 0, 85, 0
4, 248671, Note_on_c, 0, 76, 0
4, 248671, Note_on_c, 0, 67, 0
4, 248671, Note_on_c, 0, 71, 0
4, 248671, Note_on_c, 0, 64, 0
4, 248671, Note_on_c, 0, 79, 0
4, 248671, Note_on_c, 0, 73, 0
4, 248799, Note_on_c, 0, 64, 60
4, 248799, Note_on_c, 0, 67, 60
4, 248799, Note_on_c, 0, 71, 60
4, 248799, Note_on_c, 0, 72, 60
4, 248799, Note_on_c, 0, 76, 60
4, 248799, Note_on_c, 0, 79, 60
4, 248799, Note_on_c, 0, 84, 60
4, 248831, Note_on_c, 0, 84, 0
4, 248831, Note_on_c, 0, 76, 0
4, 248831, Note_on_c, 0, 67, 0
4, 248831, Note_on_c, 0, 71, 0
4, 248831, Note_on_c, 0, 64, 0
4, 248831, Note_on_c, 0, 79, 0
4, 248831, Note_on_c, 0, 72, 0
4, 250080, Note_on_c, 0, 65, 60
4, 250080, Note_on_c, 0, 69, 60
4, 250080, Note_on_c, 0, 75, 60
4, 250080, Note_on_c, 0, 76, 60
4, 250080, Note_on_c, 0, 81, 60
4, 250080, Note_on_c, 0, 84, 60
4, 250080, Note_on_c, 0, 88, 60
4, 250111, Note_on_c, 0, 88, 0
4, 250111, Note_on_c, 0, 81, 0
4, 250111, Note_on_c, 0, 69, 0
4, 250111, Note_on_c, 0, 75, 0
4, 250111, Note_on_c, 0, 65, 0
4, 250111, Note_on_c, 0, 84, 0
4, 250111, Note_on_c, 0, 76, 0
4, 250239, Note_on_c, 0, 65, 60
4, 250239, Note_on_c, 0, 69, 60
4, 250239, Note_on_c, 0, 75, 60
4, 250239, Note_on_c, 0, 77, 60
4, 250239, Note_on_c, 0, 81, 60
4, 250239, Note_on_c, 0, 84, 60
4, 250239, Note_on_c, 0, 89, 60
4, 250271, Note_on_c, 0, 89, 0
4, 250271, Note_on_c, 0, 81, 0
4, 250271, Note_on_c, 0, 69, 0
4, 250271, Note_on_c, 0, 75, 0
4, 250271, Note_on_c, 0, 65, 0
4, 250271, Note_on_c, 0, 84, 0
4, 250271, Note_on_c, 0, 77, 0
4, 250560, Note_on_c, 0, 65, 60
4, 250560, Note_on_c, 0, 69, 60
4, 250560, Note_on_c, 0, 75, 60
4, 250560, Note_on_c, 0, 78, 60
4, 250560, Note_on_c, 0, 81, 60
4, 250560, Note_on_c, 0, 84, 60
4, 250560, Note_on_c, 0, 90, 60
4, 250591, Note_on_c, 0, 90, 0
4, 250591, Note_on_c, 0, 81, 0
4, 250591, Note_on_c, 0, 69, 0
4, 250591, Note_on_c, 0, 75, 0
4, 250591, Note_on_c, 0, 65, 0
4, 250591, Note_on_c, 0, 84, 0
4, 250591, Note_on_c, 0, 78, 0
4, 250719, Note_on_c, 0, 65, 60
4, 250719, Note_on_c, 0, 69, 60
4, 250719, Note_on_c, 0, 75, 60
4, 250719, Note_on_c, 0, 77, 60
4, 250719, Note_on_c, 0, 81, 60
4, 250719, Note_on_c, 0, 84, 60
4, 250719, Note_on_c, 0, 89, 60
4, 250751, Note_on_c, 0, 89, 0
4, 250751, Note_on_c, 0, 81, 0
4, 250751, Note_on_c, 0, 69, 0
4, 250751, Note_on_c, 0, 75, 0
4, 250751, Note_on_c, 0, 65, 0
4, 250751, Note_on_c, 0, 84, 0
4, 250751, Note_on_c, 0, 77, 0
4, 251040, Note_on_c, 0, 60, 60
4, 252000, Note_on_c, 0, 60, 0
4, 252000, Note_on_c, 0, 53, 60
4, 252000, Note_on_c, 0, 57, 60
4, 252000, Note_on_c, 0, 63, 60
4, 252000, Note_on_c, 0, 64, 60
4, 252000, Note_on_c, 0, 69, 60
4, 252000, Note_on_c, 0, 75, 60
4, 252000, Note_on_c, 0, 76, 60
4, 252031, Note_on_c, 0, 76, 0
4, 252031, Note_on_c, 0, 69, 0
4, 252031, Note_on_c, 0, 57, 0
4, 252031, Note_on_c, 0, 63, 0
4, 252031, Note_on_c, 0, 53, 0
4, 252031, Note_on_c, 0, 75, 0
4, 252031, Note_on_c, 0, 64, 0
4, 252159, Note_on_c, 0, 53, 60
4, 252159, Note_on_c, 0, 57, 60
4, 252159, Note_on_c, 0, 63, 60
4, 252159, Note_on_c, 0, 65, 60
4, 252159, Note_on_c, 0, 69, 60
4, 252159, Note_on_c, 0, 75, 60
4, 252159, Note_on_c, 0, 77, 60
4, 252191, Note_on_c, 0, 77, 0
4, 252191, Note_on_c, 0, 69, 0
4, 252191, Note_on_c, 0, 57, 0
4, 252191, Note_on_c, 0, 63, 0
4, 252191, Note_on_c, 0, 53, 0
4, 252191, Note_on_c, 0, 75, 0
4, 252191, Note_on_c, 0, 65, 0
4, 252480, Note_on_c, 0, 53, 60
4, 252480, Note_on_c, 0, 57, 60
4, 252480, Note_on_c, 0, 63, 60
4, 252480, Note_on_c, 0, 66, 60
4, 252480, Note_on_c, 0, 69, 60
4, 252480, Note_on_c, 0, 75, 60
4, 252480, Note_on_c, 0, 78, 60
4, 252511, Note_on_c, 0, 78, 0
4, 252511, Note_on_c, 0, 69, 0
4, 252511, Note_on_c, 0, 57, 0
4, 252511, Note_on_c, 0, 63, 0
4, 252511, Note_on_c, 0, 53, 0
4, 252511, Note_on_c, 0, 75, 0
4, 252511, Note_on_c, 0, 66, 0
4, 252639, Note_on_c, 0, 53, 60
4, 252639, Note_on_c, 0, 57, 60
4, 252639, Note_on_c, 0, 63, 60
4, 252639, Note_on_c, 0, 65, 60
4, 252639, Note_on_c, 0, 69, 60
4, 252639, Note_on_c, 0, 75, 60
4, 252639, Note_on_c, 0, 77, 60
4, 252671, Note_on_c, 0, 77, 0
4, 252671, Note_on_c, 0, 69, 0
4, 252671, Note_on_c, 0, 57, 0
4, 252671, Note_on_c, 0, 63, 0
4, 252671, Note_on_c, 0, 53, 0
4, 252671, Note_on_c, 0, 75, 0
4, 252671, Note_on_c, 0, 65, 0
4, 276480, Note_on_c, 0, 65, 34
4, 276480, Note_on_c, 0, 70, 34
4, 276480, Note_on_c, 0, 73, 34
4, 276480, Note_on_c, 0, 77, 34
4, 276960, Note_on_c, 0, 77, 0
4, 276960, Note_on_c, 0, 65, 0
4, 276960, Note_on_c, 0, 70, 0
4, 276960, Note_on_c, 0, 73, 0
4, 277440, Note_on_c, 0, 65, 34
4, 277440, Note_on_c, 0, 70, 34
4, 277440, Note_on_c, 0, 73, 34
4, 277440, Note_on_c, 0, 77, 34
4, 277920, Note_on_c, 0, 77, 0
4, 277920, Note_on_c, 0, 65, 0
4, 277920, Note_on_c, 0, 70, 0
4, 277920, Note_on_c, 0, 73, 0
4, 278400, Note_on_c, 0, 65, 34
4, 278400, Note_on_c, 0, 69, 34
4, 278400, Note_on_c, 0, 72, 34
4, 278400, Note_on_c, 0, 75, 34
4, 278400, Note_on_c, 0, 77, 34
4, 278880, Note_on_c, 0, 77, 0
4, 278880, Note_on_c, 0, 72, 0
4, 278880, Note_on_c, 0, 65, 0
4, 278880, Note_on_c, 0, 69, 0
4, 278880, Note_on_c, 0, 75, 0
4, 279360, Note_on_c, 0, 65, 34
4, 279360, Note_on_c, 0, 69, 34
4, 279360, Note_on_c, 0, 72, 34
4, 279360, Note_on_c, 0, 75, 34
4, 279360, Note_on_c, 0, 77, 34
4, 279840, Note_on_c, 0, 77, 0
4, 279840, Note_on_c, 0, 72, 0
4, 279840, Note_on_c, 0, 65, 0
4, 279840, Note_on_c, 0, 69, 0
4, 279840, Note_on_c, 0, 75, 0
4, 280320, Note_on_c, 0, 65, 34
4, 280320, Note_on_c, 0, 70, 34
4, 280320, Note_on_c, 0, 73, 34
4, 280320, Note_on_c, 0, 77, 34
4, 280800, Note_on_c, 0, 77, 0
4, 280800, Note_on_c, 0, 65, 0
4, 280800, Note_on_c, 0, 70, 0
4, 280800, Note_on_c, 0, 73, 0
4, 281280, Note_on_c, 0, 65, 34
4, 281280, Note_on_c, 0, 70, 34
4, 281280, Note_on_c, 0, 73, 34
4, 281280, Note_on_c, 0, 77, 34
4, 281760, Note_on_c, 0, 77, 0
4, 281760, Note_on_c, 0, 65, 0
4, 281760, Note_on_c, 0, 70, 0
4, 281760, Note_on_c, 0, 73, 0
4, 282240, Note_on_c, 0, 65, 34
4, 282240, Note_on_c, 0, 69, 34
4, 282240, Note_on_c, 0, 72, 34
4, 282240, Note_on_c, 0, 75, 34
4, 282240, Note_on_c, 0, 77, 34
4, 282720, Note_on_c, 0, 77, 0
4, 282720, Note_on_c, 0, 72, 0
4, 282720, Note_on_c, 0, 65, 0
4, 282720, Note_on_c, 0, 69, 0
4, 282720, Note_on_c, 0, 75, 0
4, 283200, Note_on_c, 0, 65, 34
4, 283200, Note_on_c, 0, 69, 34
4, 283200, Note_on_c, 0, 72, 34
4, 283200, Note_on_c, 0, 75, 34
4, 283200, Note_on_c, 0, 77, 34
4, 283680, Note_on_c, 0, 77, 0
4, 283680, Note_on_c, 0, 72, 0
4, 283680, Note_on_c, 0, 65, 0
4, 283680, Note_on_c, 0, 69, 0
4, 283680, Note_on_c, 0, 75, 0
4, 284160, Note_on_c, 0, 65, 34
4, 284160, Note_on_c, 0, 70, 34
4, 284160, Note_on_c, 0, 73, 34
4, 284160, Note_on_c, 0, 77, 34
4, 284640, Note_on_c, 0, 77, 0
4, 284640, Note_on_c, 0, 65, 0
4, 284640, Note_on_c, 0, 70, 0
4, 284640, Note_on_c, 0, 73, 0
4, 285120, Note_on_c, 0, 65, 34
4, 285120, Note_on_c, 0, 70, 34
4, 285120, Note_on_c, 0, 73, 34
4, 285120, Note_on_c, 0, 77, 34
4, 285600, Note_on_c, 0, 77, 0
4, 285600, Note_on_c, 0, 65, 0
4, 285600, Note_on_c, 0, 70, 0
4, 285600, Note_on_c, 0, 73, 0
4, 286080, Note_on_c, 0, 65, 34
4, 286080, Note_on_c, 0, 69, 34
4, 286080, Note_on_c, 0, 72, 34
4, 286080, Note_on_c, 0, 75, 34
4, 286080, Note_on_c, 0, 77, 34
4, 286560, Note_on_c, 0, 77, 0
4, 286560, Note_on_c, 0, 72, 0
4, 286560, Note_on_c, 0, 65, 0
4, 286560, Note_on_c, 0, 69, 0
4, 286560, Note_on_c, 0, 75, 0
4, 287040, Note_on_c, 0, 65, 34
4, 287040, Note_on_c, 0, 69, 34
4, 287040, Note_on_c, 0, 72, 34
4, 287040, Note_on_c, 0, 75, 34
4, 287040, Note_on_c, 0, 77, 34
4, 287520, Note_on_c, 0, 77, 0
4, 287520, Note_on_c, 0, 72, 0
4, 287520, Note_on_c, 0, 65, 0
4, 287520, Note_on_c, 0, 69, 0
4, 287520, Note_on_c, 0, 75, 0
4, 288000, Note_on_c, 0, 65, 34
4, 288000, Note_on_c, 0, 70, 34
4, 288000, Note_on_c, 0, 73, 34
4, 288000, Note_on_c, 0, 77, 34
4, 288480, Note_on_c, 0, 77, 0
4, 288480, Note_on_c, 0, 65, 0
4, 288480, Note_on_c, 0, 70, 0
4, 288480, Note_on_c, 0, 73, 0
4, 289920, Note_on_c, 0, 53, 34
4, 289920, Note_on_c, 0, 58, 34
4, 289920, Note_on_c, 0, 61, 34
4, 289920, Note_on_c, 0, 65, 34
4, 290400, Note_on_c, 0, 65, 0
4, 290400, Note_on_c, 0, 53, 0
4, 290400, Note_on_c, 0, 58, 0
4, 290400, Note_on_c, 0, 61, 0
4, 297120, Note_on_c, 0, 65, 47
4, 297120, Note_on_c, 0, 70, 47
4, 297120, Note_on_c, 0, 73, 47
4, 297120, Note_on_c, 0, 77, 47
4, 297600, Note_on_c, 0, 77, 0
4, 297600, Note_on_c, 0, 65, 0
4, 297600, Note_on_c, 0, 70, 0
4, 297600, Note_on_c, 0, 73, 0
4, 297600, Note_on_c, 0, 60, 47
4, 297600, Note_on_c, 0, 66, 47
4, 297600, Note_on_c, 0, 70, 47
4, 297600, Note_on_c, 0, 72, 47
4, 298560, Note_on_c, 0, 72, 0
4, 298560, Note_on_c, 0, 60, 0
4, 298560, Note_on_c, 0, 66, 0
4, 298560, Note_on_c, 0, 70, 0
4, 298560, Note_on_c, 0, 61, 47
4, 298560, Note_on_c, 0, 65, 47
4, 298560, Note_on_c, 0, 70, 47
4, 298560, Note_on_c, 0, 73, 47
4, 299040, Note_on_c, 0, 73, 0
4, 299040, Note_on_c, 0, 61, 0
4, 299040, Note_on_c, 0, 65, 0
4, 299040, Note_on_c, 0, 70, 0
4, 300960, Note_on_c, 0, 61, 47
4, 300960, Note_on_c, 0, 65, 47
4, 300960, Note_on_c, 0, 70, 47
4, 300960, Note_on_c, 0, 73, 47
4, 301440, Note_on_c, 0, 73, 0
4, 301440, Note_on_c, 0, 61, 0
4, 301440, Note_on_c, 0, 65, 0
4, 301440, Note_on_c, 0, 70, 0
4, 301440, Note_on_c, 0, 58, 47
4, 301440, Note_on_c, 0, 61, 47
4, 301440, Note_on_c, 0, 64, 47
4, 302400, Note_on_c, 0, 64, 0
4, 302400, Note_on_c, 0, 61, 0
4, 302400, Note_on_c, 0, 58, 0
4, 302400, Note_on_c, 0, 58, 47
4, 302400, Note_on_c, 0, 61, 47
4, 302400, Note_on_c, 0, 65, 47
4, 302880, Note_on_c, 0, 65, 0
4, 302880, Note_on_c, 0, 61, 0
4, 302880, Note_on_c, 0, 58, 0
4, 306720, Note_on_c, 0, 61, 47
4, 306720, Note_on_c, 0, 65, 47
4, 306720, Note_on_c, 0, 73, 47
4, 307200, Note_on_c, 0, 73, 0
4, 307200, Note_on_c, 0, 65, 0
4, 307200, Note_on_c, 0, 61, 0
4, 307200, Note_on_c, 0, 61, 47
4, 307200, Note_on_c, 0, 65, 47
4, 307200, Note_on_c, 0, 69, 47
4, 308160, Note_on_c, 0, 69, 0
4, 308160, Note_on_c, 0, 65, 0
4, 308160, Note_on_c, 0, 61, 0
4, 308160, Note_on_c, 0, 61, 47
4, 308160, Note_on_c, 0, 65, 47
4, 308160, Note_on_c, 0, 70, 47
4, 308640, Note_on_c, 0, 70, 0
4, 308640, Note_on_c, 0, 65, 0
4, 308640, Note_on_c, 0, 61, 0
4, 308640, Note_on_c, 0, 65, 47
4, 308640, Note_on_c, 0, 70, 47
4, 308640, Note_on_c, 0, 77, 47
4, 309120, Note_on_c, 0, 77, 0
4, 309120, Note_on_c, 0, 70, 0
4, 309120, Note_on_c, 0, 65, 0
4, 309120, Note_on_c, 0, 65, 47
4, 309120, Note_on_c, 0, 70, 47
4, 309120, Note_on_c, 0, 72, 47
4, 310080, Note_on_c, 0, 72, 0
4, 310080, Note_on_c, 0, 70, 0
4, 310080, Note_on_c, 0, 65, 0
4, 310080, Note_on_c, 0, 65, 60
4, 310080, Note_on_c, 0, 70, 60
4, 310080, Note_on_c, 0, 73, 60
4, 310560, Note_on_c, 0, 73, 0
4, 310560, Note_on_c, 0, 70, 0
4, 310560, Note_on_c, 0, 65, 0
4, 310560, Note_on_c, 0, 68, 60
4, 310560, Note_on_c, 0, 80, 60
4, 311040, Note_on_c, 0, 80, 0
4, 311040, Note_on_c, 0, 68, 0
4, 311040, Note_on_c, 0, 67, 60
4, 311040, Note_on_c, 0, 79, 60
4, 311520, Note_on_c, 0, 79, 0
4, 311520, Note_on_c, 0, 67, 0
4, 311520, Note_on_c, 0, 58, 60
4, 311520, Note_on_c, 0, 63, 60
4, 311520, Note_on_c, 0, 67, 60
4, 311520, Note_on_c, 0, 70, 60
4, 311520, Note_on_c, 0, 75, 60
4, 311520, Note_on_c, 0, 82, 60
4, 312000, Note_on_c, 0, 82, 0
4, 312000, Note_on_c, 0, 63, 0
4, 312000, Note_on_c, 0, 67, 0
4, 312000, Note_on_c, 0, 58, 0
4, 312000, Note_on_c, 0, 75, 0
4, 312000, Note_on_c, 0, 70, 0
4, 312000, Note_on_c, 0, 58, 60
4, 312000, Note_on_c, 0, 62, 60
4, 312000, Note_on_c, 0, 68, 60
4, 312000, Note_on_c, 0, 70, 60
4, 312000, Note_on_c, 0, 77, 60
4, 312000, Note_on_c, 0, 80, 60
4, 312480, Note_on_c, 0, 80, 0
4, 312480, Note_on_c, 0, 62, 0
4, 312480, Note_on_c, 0, 68, 0
4, 312480, Note_on_c, 0, 58, 0
4, 312480, Note_on_c, 0, 77, 0
4, 312480, Note_on_c, 0, 70, 0
4, 312480, Note_on_c, 0, 51, 60
4, 312480, Note_on_c, 0, 67, 60
4, 312480, Note_on_c, 0, 79, 60
4, 312960, Note_on_c, 0, 79, 0
4, 312960, Note_on_c, 0, 67, 0
4, 312960, Note_on_c, 0, 51, 0
4, 312960, Note_on_c, 0, 53, 60
4, 312960, Note_on_c, 0, 65, 60
4, 312960, Note_on_c, 0, 77, 60
4, 313440, Note_on_c, 0, 77, 0
4, 313440, Note_on_c, 0, 65, 0
4, 313440, Note_on_c, 0, 53, 0
4, 313440, Note_on_c, 0, 54, 47
4, 313440, Note_on_c, 0, 70, 47
4, 313440, Note_on_c, 0, 75, 47
4, 313920, Note_on_c, 0, 75, 0
4, 313920, Note_on_c, 0, 70, 0
4, 313920, Note_on_c, 0, 54, 0
4, 313920, Note_on_c, 0, 55, 47
4, 313920, Note_on_c, 0, 70, 47
4, 314400, Note_on_c, 0, 70, 0
4, 314400, Note_on_c, 0, 55, 0
4, 314400, Note_on_c, 0, 63, 47
4, 314400, Note_on_c, 0, 68, 47
4, 314400, Note_on_c, 0, 72, 47
4, 314880, Note_on_c, 0, 72, 0
4, 314880, Note_on_c, 0, 68, 0
4, 314880, Note_on_c, 0, 63, 0
4, 314880, Note_on_c, 0, 64, 47
4, 314880, Note_on_c, 0, 68, 47
4, 314880, Note_on_c, 0, 72, 47
4, 315360, Note_on_c, 0, 72, 0
4, 315360, Note_on_c, 0, 68, 0
4, 315360, Note_on_c, 0, 64, 0
4, 315360, Note_on_c, 0, 49, 60
4, 315360, Note_on_c, 0, 61, 60
4, 315360, Note_on_c, 0, 65, 60
4, 315360, Note_on_c, 0, 73, 60
4, 315360, Note_on_c, 0, 77, 60
4, 316800, Note_on_c, 0, 77, 0
4, 316800, Note_on_c, 0, 65, 0
4, 316800, Note_on_c, 0, 49, 0
4, 316800, Note_on_c, 0, 61, 0
4, 316800, Note_on_c, 0, 73, 0
4, 316800, Note_on_c, 0, 65, 47
4, 316800, Note_on_c, 0, 69, 47
4, 316800, Note_on_c, 0, 72, 47
4, 317280, Note_on_c, 0, 72, 0
4, 317280, Note_on_c, 0, 69, 0
4, 317280, Note_on_c, 0, 65, 0
4, 317280, Note_on_c, 0, 65, 47
4, 317280, Note_on_c, 0, 70, 47
4, 317280, Note_on_c, 0, 77, 47
4, 317760, Note_on_c, 0, 77, 0
4, 317760, Note_on_c, 0, 70, 0
4, 317760, Note_on_c, 0, 65, 0
4, 317760, Note_on_c, 0, 65, 47
4, 317760, Note_on_c, 0, 67, 47
4, 318240, Note_on_c, 0, 67, 0
4, 318240, Note_on_c, 0, 65, 0
4, 318240, Note_on_c, 0, 64, 47
4, 318240, Note_on_c, 0, 72, 47
4, 318720, Note_on_c, 0, 72, 0
4, 318720, Note_on_c, 0, 64, 0
4, 318720, Note_on_c, 0, 46, 47
4, 318720, Note_on_c, 0, 52, 47
4, 318720, Note_on_c, 0, 68, 47
4, 319200, Note_on_c, 0, 68, 0
4, 319200, Note_on_c, 0, 52, 0
4, 319200, Note_on_c, 0, 46, 0
4, 319200, Note_on_c, 0, 43, 47
4, 319200, Note_on_c, 0, 55, 47
4, 319200, Note_on_c, 0, 64, 47
4, 319680, Note_on_c, 0, 64, 0
4, 319680, Note_on_c, 0, 55, 0
4, 319680, Note_on_c, 0, 43, 0
4, 319680, Note_on_c, 0, 44, 47
4, 319680, Note_on_c, 0, 53, 47
4, 319680, Note_on_c, 0, 65, 47
4, 320160, Note_on_c, 0, 65, 0
4, 320160, Note_on_c, 0, 53, 0
4, 320160, Note_on_c, 0, 44, 0
4, 320160, Note_on_c, 0, 62, 47
4, 320160, Note_on_c, 0, 65, 47
4, 320160, Note_on_c, 0, 72, 47
4, 320640, Note_on_c, 0, 72, 0
4, 320640, Note_on_c, 0, 65, 0
4, 320640, Note_on_c, 0, 62, 0
4, 320640, Note_on_c, 0, 54, 47
4, 320640, Note_on_c, 0, 61, 47
4, 320640, Note_on_c, 0, 63, 47
4, 320640, Note_on_c, 0, 69, 47
4, 321600, Note_on_c, 0, 69, 0
4, 321600, Note_on_c, 0, 54, 0
4, 321600, Note_on_c, 0, 61, 0
4, 321600, Note_on_c, 0, 63, 0
4, 321600, Note_on_c, 0, 55, 47
4, 321600, Note_on_c, 0, 70, 47
4, 322080, Note_on_c, 0, 70, 0
4, 322080, Note_on_c, 0, 55, 0
4, 322080, Note_on_c, 0, 56, 34
4, 322080, Note_on_c, 0, 58, 34
4, 322080, Note_on_c, 0, 61, 34
4, 322560, Note_on_c, 0, 61, 0
4, 322560, Note_on_c, 0, 58, 0
4, 322560, Note_on_c, 0, 56, 0
4, 322560, Note_on_c, 0, 56, 34
4, 322560, Note_on_c, 0, 58, 34
4, 322560, Note_on_c, 0, 61, 34
4, 323520, Note_on_c, 0, 61, 0
4, 323520, Note_on_c, 0, 58, 0
4, 323520, Note_on_c, 0, 56, 0
4, 323520, Note_on_c, 0, 56, 34
4, 323520, Note_on_c, 0, 58, 34
4, 323520, Note_on_c, 0, 61, 34
4, 324000, Note_on_c, 0, 61, 0
4, 324000, Note_on_c, 0, 58, 0
4, 324000, Note_on_c, 0, 56, 0
4, 324000, Note_on_c, 0, 55, 34
4, 324000, Note_on_c, 0, 58, 34
4, 324000, Note_on_c, 0, 61, 34
4, 324480, Note_on_c, 0, 61, 0
4, 324480, Note_on_c, 0, 58, 0
4, 324480, Note_on_c, 0, 55, 0
4, 324480, Note_on_c, 0, 55, 34
4, 324480, Note_on_c, 0, 58, 34
4, 324480, Note_on_c, 0, 61, 34
4, 325440, Note_on_c, 0, 61, 0
4, 325440, Note_on_c, 0, 58, 0
4, 325440, Note_on_c, 0, 55, 0
4, 325440, Note_on_c, 0, 55, 47
4, 325440, Note_on_c, 0, 58, 47
4, 325440, Note_on_c, 0, 61, 47
4, 325920, Note_on_c, 0, 61, 0
4, 325920, Note_on_c, 0, 58, 0
4, 325920, Note_on_c, 0, 55, 0
4, 325920, Note_on_c, 0, 53, 47
4, 325920, Note_on_c, 0, 58, 47
4, 325920, Note_on_c, 0, 61, 47
4, 325920, Note_on_c, 0, 65, 47
4, 326820, Note_on_c, 0, 58, 47
4, 326880, Note_on_c, 0, 65, 0
4, 326880, Note_on_c, 0, 61, 0
4, 326880, Note_on_c, 0, 53, 0
4, 326880, Note_on_c, 0, 58, 0
4, 326880, Note_on_c, 0, 63, 47
4, 327360, Note_on_c, 0, 63, 0
4, 327360, Note_on_c, 0, 58, 0
4, 327360, Note_on_c, 0, 58, 47
4, 327360, Note_on_c, 0, 62, 47
4, 327840, Note_on_c, 0, 62, 0
4, 327840, Note_on_c, 0, 58, 0
4, 327840, Note_on_c, 0, 58, 47
4, 327840, Note_on_c, 0, 63, 47
4, 328800, Note_on_c, 0, 63, 0
4, 328800, Note_on_c, 0, 58, 0
4, 328800, Note_on_c, 0, 58, 34
4, 329760, Note_on_c, 0, 58, 0
4, 329760, Note_on_c, 0, 56, 34
4, 329760, Note_on_c, 0, 60, 34
4, 330240, Note_on_c, 0, 60, 0
4, 330240, Note_on_c, 0, 56, 0
4, 330240, Note_on_c, 0, 56, 34
4, 330240, Note_on_c, 0, 60, 34
4, 330240, Note_on_c, 0, 62, 34
4, 330720, Note_on_c, 0, 62, 0
4, 330720, Note_on_c, 0, 60, 0
4, 330720, Note_on_c, 0, 56, 0
4, 330720, Note_on_c, 0, 63, 34
4, 332160, Note_on_c, 0, 63, 0
4, 332160, Note_on_c, 0, 63, 34
4, 332640, Note_on_c, 0, 63, 0
4, 332640, Note_on_c, 0, 68, 60
4, 333120, Note_on_c, 0, 68, 0
4, 333120, Note_on_c, 0, 67, 34
4, 333600, Note_on_c, 0, 67, 0
4, 333600, Note_on_c, 0, 66, 34
4, 334080, Note_on_c, 0, 66, 0
4, 334080, Note_on_c, 0, 67, 34
4, 334560, Note_on_c, 0, 67, 0
4, 334560, Note_on_c, 0, 63, 34
4, 336000, Note_on_c, 0, 63, 0
4, 336000, Note_on_c, 0, 63, 34
4, 336480, Note_on_c, 0, 63, 0
4, 336480, Note_on_c, 0, 68, 60
4, 336960, Note_on_c, 0, 68, 0
4, 336960, Note_on_c, 0, 67, 34
4, 337440, Note_on_c, 0, 67, 0
4, 337440, Note_on_c, 0, 66, 34
4, 337920, Note_on_c, 0, 66, 0
4, 337920, Note_on_c, 0, 67, 34
4, 338400, Note_on_c, 0, 67, 0
4, 338400, Note_on_c, 0, 63, 34
4, 339360, Note_on_c, 0, 63, 0
4, 339840, Note_on_c, 0, 48, 34
4, 340320, Note_on_c, 0, 48, 0
4, 340320, Note_on_c, 0, 50, 34
4, 341280, Note_on_c, 0, 50, 0
4, 341280, Note_on_c, 0, 51, 34
4, 341760, Note_on_c, 0, 51, 0
4, 341760, Note_on_c, 0, 55, 34
4, 342240, Note_on_c, 0, 55, 0
4, 342240, Note_on_c, 0, 57, 34
4, 343680, Note_on_c, 0, 57, 0
4, 343680, Note_on_c, 0, 60, 34
4, 344160, Note_on_c, 0, 60, 0
4, 344160, Note_on_c, 0, 58, 34
4, 344640, Note_on_c, 0, 58, 0
4, 344640, Note_on_c, 0, 59, 34
4, 345120, Note_on_c, 0, 59, 0
4, 346560, Note_on_c, 0, 44, 34
4, 346560, Note_on_c, 0, 51, 34
4, 347520, Note_on_c, 0, 51, 0
4, 347520, Note_on_c, 0, 44, 0
4, 347520, Note_on_c, 0, 56, 34
4, 347520, Note_on_c, 0, 63, 34
4, 348480, Note_on_c, 0, 63, 0
4, 348480, Note_on_c, 0, 56, 0
4, 348480, Note_on_c, 0, 44, 34
4, 348480, Note_on_c, 0, 51, 34
4, 349440, Note_on_c, 0, 51, 0
4, 349440, Note_on_c, 0, 44, 0
4, 349440, Note_on_c, 0, 56, 34
4, 349440, Note_on_c, 0, 63, 34
4, 350400, Note_on_c, 0, 63, 0
4, 350400, Note_on_c, 0, 56, 0
4, 350400, Note_on_c, 0, 44, 34
4, 350400, Note_on_c, 0, 49, 34
4, 350400, Note_on_c, 0, 51, 34
4, 351360, Note_on_c, 0, 51, 0
4, 351360, Note_on_c, 0, 49, 0
4, 351360, Note_on_c, 0, 44, 0
4, 351360, Note_on_c, 0, 49, 34
4, 351360, Note_on_c, 0, 51, 34
4, 351360, Note_on_c, 0, 58, 34
4, 352320, Note_on_c, 0, 58, 0
4, 352320, Note_on_c, 0, 51, 0
4, 352320, Note_on_c, 0, 49, 0
4, 352320, Note_on_c, 0, 44, 34
4, 352320, Note_on_c, 0, 51, 34
4, 353280, Note_on_c, 0, 51, 0
4, 353280, Note_on_c, 0, 44, 0
4, 353280, Note_on_c, 0, 56, 34
4, 353280, Note_on_c, 0, 63, 34
4, 354240, Note_on_c, 0, 63, 0
4, 354240, Note_on_c, 0, 56, 0
4, 354240, Note_on_c, 0, 44, 34
4, 354240, Note_on_c, 0, 51, 34
4, 355200, Note_on_c, 0, 51, 0
4, 355200, Note_on_c, 0, 44, 0
4, 355200, Note_on_c, 0, 56, 34
4, 355200, Note_on_c, 0, 63, 34
4, 356160, Note_on_c, 0, 63, 0
4, 356160, Note_on_c, 0, 56, 0
4, 356160, Note_on_c, 0, 44, 34
4, 356160, Note_on_c, 0, 51, 34
4, 357120, Note_on_c, 0, 51, 0
4, 357120, Note_on_c, 0, 44, 0
4, 357120, Note_on_c, 0, 56, 34
4, 357120, Note_on_c, 0, 63, 34
4, 358080, Note_on_c, 0, 63, 0
4, 358080, Note_on_c, 0, 56, 0
4, 358080, Note_on_c, 0, 44, 34
4, 358080, Note_on_c, 0, 49, 34
4, 358080, Note_on_c, 0, 51, 34
4, 359040, Note_on_c, 0, 51, 0
4, 359040, Note_on_c, 0, 49, 0
4, 359040, Note_on_c, 0, 44, 0
4, 359040, Note_on_c, 0, 58, 47
4, 359520, Note_on_c, 0, 58, 0
4, 359520, Note_on_c, 0, 65, 47
4, 360000, Note_on_c, 0, 65, 0
4, 360000, Note_on_c, 0, 56, 47
4, 360000, Note_on_c, 0, 60, 47
4, 360480, Note_on_c, 0, 60, 0
4, 360480, Note_on_c, 0, 56, 0
4, 361440, Note_on_c, 0, 65, 47
4, 361920, Note_on_c, 0, 65, 0
4, 361920, Note_on_c, 0, 58, 47
4, 362400, Note_on_c, 0, 58, 0
4, 362400, Note_on_c, 0, 65, 47
4, 362880, Note_on_c, 0, 65, 0
4, 362880, Note_on_c, 0, 58, 47
4, 363360, Note_on_c, 0, 58, 0
4, 363360, Note_on_c, 0, 65, 47
4, 363840, Note_on_c, 0, 65, 0
4, 363840, Note_on_c, 0, 56, 47
4, 363840, Note_on_c, 0, 60, 47
4, 364320, Note_on_c, 0, 60, 0
4, 364320, Note_on_c, 0, 56, 0
4, 365760, Note_on_c, 0, 65, 47
4, 365760, Note_on_c, 0, 67, 47
4, 365760, Note_on_c, 0, 79, 47
4, 366240, Note_on_c, 0, 79, 0
4, 366240, Note_on_c, 0, 67, 0
4, 366240, Note_on_c, 0, 65, 0
4, 366240, Note_on_c, 0, 65, 47
4, 366240, Note_on_c, 0, 67, 47
4, 366240, Note_on_c, 0, 73, 47
4, 367200, Note_on_c, 0, 73, 0
4, 367200, Note_on_c, 0, 67, 0
4, 367200, Note_on_c, 0, 65, 0
4, 367200, Note_on_c, 0, 74, 47
4, 367680, Note_on_c, 0, 74, 0
4, 369600, Note_on_c, 0, 53, 47
4, 369600, Note_on_c, 0, 60, 47
4, 369600, Note_on_c, 0, 63, 47
4, 369600, Note_on_c, 0, 65, 47
4, 370080, Note_on_c, 0, 65, 0
4, 370080, Note_on_c, 0, 53, 0
4, 370080, Note_on_c, 0, 60, 0
4, 370080, Note_on_c, 0, 63, 0
4, 370080, Note_on_c, 0, 53, 47
4, 370080, Note_on_c, 0, 60, 47
4, 370080, Note_on_c, 0, 63, 47
4, 370080, Note_on_c, 0, 64, 47
4, 371040, Note_on_c, 0, 64, 0
4, 371040, Note_on_c, 0, 65, 47
4, 371520, Note_on_c, 0, 65, 0
4, 371520, Note_on_c, 0, 63, 0
4, 371520, Note_on_c, 0, 60, 0
4, 371520, Note_on_c, 0, 53, 0
4, 371520, Note_on_c, 0, 81, 47
4, 371520, Note_on_c, 0, 84, 47
4, 371520, Note_on_c, 0, 87, 47
4, 371520, Note_on_c, 0, 88, 47
4, 372000, Note_on_c, 0, 88, 0
4, 372000, Note_on_c, 0, 81, 0
4, 372000, Note_on_c, 0, 84, 0
4, 372000, Note_on_c, 0, 87, 0
4, 372000, Note_on_c, 0, 81, 47
4, 372000, Note_on_c, 0, 84, 47
4, 372000, Note_on_c, 0, 87, 47
4, 372000, Note_on_c, 0, 89, 47
4, 372480, Note_on_c, 0, 89, 0
4, 372480, Note_on_c, 0, 81, 0
4, 372480, Note_on_c, 0, 84, 0
4, 372480, Note_on_c, 0, 87, 0
4, 372480, Note_on_c, 0, 58, 34
4, 372480, Note_on_c, 0, 61, 34
4, 372480, Note_on_c, 0, 65, 34
4, 374400, Note_on_c, 0, 65, 0
4, 374400, Note_on_c, 0, 61, 0
4, 374400, Note_on_c, 0, 58, 0
4, 374400, Note_on_c, 0, 58, 34
4, 374400, Note_on_c, 0, 61, 34
4, 374400, Note_on_c, 0, 65, 34
4, 376320, Note_on_c, 0, 65, 0
4, 376320, Note_on_c, 0, 61, 0
4, 376320, Note_on_c, 0, 58, 0
4, 376320, Note_on_c, 0, 58, 34
4, 376320, Note_on_c, 0, 61, 34
4, 376320, Note_on_c, 0, 70, 34
4, 377760, Note_on_c, 0, 70, 0
4, 377760, Note_on_c, 0, 61, 0
4, 377760, Note_on_c, 0, 58, 0
4, 377760, Note_on_c, 0, 68, 34
4, 378240, Note_on_c, 0, 68, 0
4, 378240, Note_on_c, 0, 58, 34
4, 378240, Note_on_c, 0, 61, 34
4, 378240, Note_on_c, 0, 67, 34
4, 378720, Note_on_c, 0, 67, 0
4, 378720, Note_on_c, 0, 65, 34
4, 379200, Note_on_c, 0, 65, 0
4, 379200, Note_on_c, 0, 61, 0
4, 379200, Note_on_c, 0, 58, 0
4, 379200, Note_on_c, 0, 57, 34
4, 379200, Note_on_c, 0, 60, 34
4, 379200, Note_on_c, 0, 63, 34
4, 379680, Note_on_c, 0, 60, 0
4, 379680, Note_on_c, 0, 57, 0
4, 379680, Note_on_c, 0, 58, 34
4, 380160, Note_on_c, 0, 58, 0
4, 380160, Note_on_c, 0, 63, 0
4, 380160, Note_on_c, 0, 60, 34
4, 380160, Note_on_c, 0, 63, 34
4, 380640, Note_on_c, 0, 63, 0
4, 380640, Note_on_c, 0, 60, 0
4, 381120, Note_on_c, 0, 61, 34
4, 381120, Note_on_c, 0, 63, 34
4, 381120, Note_on_c, 0, 65, 34
4, 381120, Note_on_c, 0, 69, 34
4, 382080, Note_on_c, 0, 69, 0
4, 382080, Note_on_c, 0, 61, 0
4, 382080, Note_on_c, 0, 63, 0
4, 382080, Note_on_c, 0, 65, 0
4, 382560, Note_on_c, 0, 53, 47
4, 382560, Note_on_c, 0, 57, 47
4, 382560, Note_on_c, 0, 60, 47
4, 382800, Note_on_c, 0, 60, 0
4, 382800, Note_on_c, 0, 57, 0
4, 382800, Note_on_c, 0, 53, 0
4, 383040, Note_on_c, 0, 49, 47
4, 383040, Note_on_c, 0, 53, 47
4, 383040, Note_on_c, 0, 58, 47
4, 383280, Note_on_c, 0, 58, 0
4, 383280, Note_on_c, 0, 53, 0
4, 383280, Note_on_c, 0, 49, 0
4, 383520, Note_on_c, 0, 49, 47
4, 384000, Note_on_c, 0, 49, 0
4, 384000, Note_on_c, 0, 48, 47
4, 384480, Note_on_c, 0, 48, 0
4, 384480, Note_on_c, 0, 50, 47
4, 384960, Note_on_c, 0, 50, 0
4, 384960, Note_on_c, 0, 41, 47
4, 384960, Note_on_c, 0, 48, 47
4, 384960, Note_on_c, 0, 55, 47
4, 385440, Note_on_c, 0, 55, 0
4, 385440, Note_on_c, 0, 48, 0
4, 385440, Note_on_c, 0, 41, 0
4, 385440, Note_on_c, 0, 56, 47
4, 385920, Note_on_c, 0, 56, 0
4, 385920, Note_on_c, 0, 57, 47
4, 385920, Note_on_c, 0, 60, 47
4, 385920, Note_on_c, 0, 66, 47
4, 387360, Note_on_c, 0, 66, 0
4, 387360, Note_on_c, 0, 60, 0
4, 387360, Note_on_c, 0, 57, 0
4, 387360, Note_on_c, 0, 58, 47
4, 387360, Note_on_c, 0, 61, 47
4, 387360, Note_on_c, 0, 67, 47
4, 387840, Note_on_c, 0, 67, 0
4, 387840, Note_on_c, 0, 61, 0
4, 387840, Note_on_c, 0, 58, 0
4, 387840, Note_on_c, 0, 58, 34
4, 387840, Note_on_c, 0, 61, 34
4, 387840, Note_on_c, 0, 65, 34
4, 389760, Note_on_c, 0, 65, 0
4, 389760, Note_on_c, 0, 61, 0
4, 389760, Note_on_c, 0, 58, 0
4, 389760, Note_on_c, 0, 58, 34
4, 389760, Note_on_c, 0, 61, 34
4, 389760, Note_on_c, 0, 65, 34
4, 391680, Note_on_c, 0, 65, 0
4, 391680, Note_on_c, 0, 61, 0
4, 391680, Note_on_c, 0, 58, 0
4, 391680, Note_on_c, 0, 58, 34
4, 391680, Note_on_c, 0, 61, 34
4, 391680, Note_on_c, 0, 70, 34
4, 393120, Note_on_c, 0, 70, 0
4, 393120, Note_on_c, 0, 61, 0
4, 393120, Note_on_c, 0, 58, 0
4, 393120, Note_on_c, 0, 68, 34
4, 393600, Note_on_c, 0, 68, 0
4, 393600, Note_on_c, 0, 58, 34
4, 393600, Note_on_c, 0, 61, 34
4, 393600, Note_on_c, 0, 67, 34
4, 394080, Note_on_c, 0, 67, 0
4, 394080, Note_on_c, 0, 65, 34
4, 394560, Note_on_c, 0, 65, 0
4, 394560, Note_on_c, 0, 61, 0
4, 394560, Note_on_c, 0, 58, 0
4, 394560, Note_on_c, 0, 57, 34
4, 394560, Note_on_c, 0, 60, 34
4, 394560, Note_on_c, 0, 63, 34
4, 395040, Note_on_c, 0, 60, 0
4, 395040, Note_on_c, 0, 57, 0
4, 395040, Note_on_c, 0, 58, 34
4, 395520, Note_on_c, 0, 58, 0
4, 395520, Note_on_c, 0, 63, 0
4, 395520, Note_on_c, 0, 44, 47
4, 395760, Note_on_c, 0, 44, 0
4, 395760, Note_on_c, 0, 56, 47
4, 396000, Note_on_c, 0, 56, 0
4, 396000, Note_on_c, 0, 41, 47
4, 396240, Note_on_c, 0, 41, 0
4, 396240, Note_on_c, 0, 50, 47
4, 396390, Note_on_c, 0, 43, 47
4, 396420, Note_on_c, 0, 48, 47
4, 396450, Note_on_c, 0, 51, 47
4, 396480, Note_on_c, 0, 50, 0
4, 396480, Control_c, 0, 64, 127
4, 396480, Note_on_c, 0, 55, 47
4, 396960, Note_on_c, 0, 55, 0
4, 396960, Note_on_c, 0, 51, 0
4, 396960, Note_on_c, 0, 48, 0
4, 396960, Note_on_c, 0, 43, 0
4, 396960, Note_on_c, 0, 57, 47
4, 397440, Note_on_c, 0, 57, 0
4, 397440, Note_on_c, 0, 59, 47
4, 397920, Note_on_c, 0, 59, 0
4, 397920, Control_c, 0, 64, 0
4, 397920, Note_on_c, 0, 60, 47
4, 398400, Note_on_c, 0, 60, 0
4, 398400, Note_on_c, 0, 55, 47
4, 398400, Note_on_c, 0, 62, 47
4, 398400, Note_on_c, 0, 65, 47
4, 398880, Note_on_c, 0, 65, 0
4, 398880, Note_on_c, 0, 62, 0
4, 398880, Note_on_c, 0, 55, 0
4, 400320, Control_c, 0, 64, 127
4, 400320, Note_on_c, 0, 43, 47
4, 400320, Note_on_c, 0, 48, 47
4, 400320, Note_on_c, 0, 51, 47
4, 400320, Note_on_c, 0, 55, 47
4, 400800, Note_on_c, 0, 55, 0
4, 400800, Note_on_c, 0, 43, 0
4, 400800, Note_on_c, 0, 48, 0
4, 400800, Note_on_c, 0, 51, 0
4, 400800, Note_on_c, 0, 57, 47
4, 401280, Note_on_c, 0, 57, 0
4, 401280, Note_on_c, 0, 59, 47
4, 401760, Note_on_c, 0, 59, 0
4, 401760, Control_c, 0, 64, 0
4, 401760, Note_on_c, 0, 60, 47
4, 402240, Note_on_c, 0, 60, 0
4, 402240, Note_on_c, 0, 55, 47
4, 402240, Note_on_c, 0, 62, 47
4, 402240, Note_on_c, 0, 65, 47
4, 402720, Note_on_c, 0, 65, 0
4, 402720, Note_on_c, 0, 62, 0
4, 402720, Note_on_c, 0, 55, 0
4, 403200, Note_on_c, 0, 66, 47
4, 403680, Note_on_c, 0, 66, 0
4, 403680, Control_c, 0, 64, 0
4, 403680, Note_on_c, 0, 67, 47
4, 404160, Note_on_c, 0, 67, 0
4, 422400, Note_on_c, 0, 67, 73
4, 422400, Note_on_c, 0, 72, 73
4, 422400, Note_on_c, 0, 75, 73
4, 422400, Note_on_c, 0, 79, 73
4, 423840, Note_on_c, 0, 79, 0
4, 423840, Note_on_c, 0, 67, 0
4, 423840, Note_on_c, 0, 72, 0
4, 423840, Note_on_c, 0, 75, 0
4, 423840, Note_on_c, 0, 72, 73
4, 423840, Note_on_c, 0, 75, 73
4, 423871, Note_on_c, 0, 75, 0
4, 423871, Note_on_c, 0, 72, 0
4, 423999, Note_on_c, 0, 65, 73
4, 423999, Note_on_c, 0, 72, 73
4, 423999, Note_on_c, 0, 75, 73
4, 423999, Note_on_c, 0, 77, 73
4, 424031, Note_on_c, 0, 77, 0
4, 424031, Note_on_c, 0, 65, 0
4, 424031, Note_on_c, 0, 72, 0
4, 424031, Note_on_c, 0, 75, 0
4, 424160, Note_on_c, 0, 67, 73
4, 424160, Note_on_c, 0, 72, 73
4, 424160, Note_on_c, 0, 75, 73
4, 424160, Note_on_c, 0, 79, 73
4, 424192, Note_on_c, 0, 79, 0
4, 424192, Note_on_c, 0, 67, 0
4, 424192, Note_on_c, 0, 72, 0
4, 424192, Note_on_c, 0, 75, 0
4, 424320, Note_on_c, 0, 68, 73
4, 424320, Note_on_c, 0, 72, 73
4, 424320, Note_on_c, 0, 75, 73
4, 424320, Note_on_c, 0, 80, 73
4, 425760, Note_on_c, 0, 80, 0
4, 425760, Note_on_c, 0, 68, 0
4, 425760, Note_on_c, 0, 72, 0
4, 425760, Note_on_c, 0, 75, 0
4, 425760, Note_on_c, 0, 68, 73
4, 425760, Note_on_c, 0, 72, 73
4, 425760, Note_on_c, 0, 75, 73
4, 425760, Note_on_c, 0, 80, 73
4, 425791, Note_on_c, 0, 80, 0
4, 425791, Note_on_c, 0, 68, 0
4, 425791, Note_on_c, 0, 72, 0
4, 425791, Note_on_c, 0, 75, 0
4, 425919, Note_on_c, 0, 67, 73
4, 425919, Note_on_c, 0, 72, 73
4, 425919, Note_on_c, 0, 75, 73
4, 425919, Note_on_c, 0, 79, 73
4, 425951, Note_on_c, 0, 79, 0
4, 425951, Note_on_c, 0, 67, 0
4, 425951, Note_on_c, 0, 72, 0
4, 425951, Note_on_c, 0, 75, 0
4, 426080, Note_on_c, 0, 68, 73
4, 426080, Note_on_c, 0, 72, 73
4, 426080, Note_on_c, 0, 75, 73
4, 426080, Note_on_c, 0, 80, 73
4, 426112, Note_on_c, 0, 80, 0
4, 426112, Note_on_c, 0, 68, 0
4, 426112, Note_on_c, 0, 72, 0
4, 426112, Note_on_c, 0, 75, 0
4, 426240, Note_on_c, 0, 69, 73
4, 426240, Note_on_c, 0, 73, 73
4, 426240, Note_on_c, 0, 76, 73
4, 426240, Note_on_c, 0, 81, 73
4, 427680, Note_on_c, 0, 81, 0
4, 427680, Note_on_c, 0, 69, 0
4, 427680, Note_on_c, 0, 73, 0
4, 427680, Note_on_c, 0, 76, 0
4, 427680, Note_on_c, 0, 69, 73
4, 427680, Note_on_c, 0, 73, 73
4, 427680, Note_on_c, 0, 76, 73
4, 427680, Note_on_c, 0, 81, 73
4, 427711, Note_on_c, 0, 81, 0
4, 427711, Note_on_c, 0, 69, 0
4, 427711, Note_on_c, 0, 73, 0
4, 427711, Note_on_c, 0, 76, 0
4, 427839, Note_on_c, 0, 68, 73
4, 427839, Note_on_c, 0, 73, 73
4, 427839, Note_on_c, 0, 76, 73
4, 427839, Note_on_c, 0, 80, 73
4, 427871, Note_on_c, 0, 80, 0
4, 427871, Note_on_c, 0, 68, 0
4, 427871, Note_on_c, 0, 73, 0
4, 427871, Note_on_c, 0, 76, 0
4, 428000, Note_on_c, 0, 69, 73
4, 428000, Note_on_c, 0, 73, 73
4, 428000, Note_on_c, 0, 76, 73
4, 428000, Note_on_c, 0, 81, 73
4, 428032, Note_on_c, 0, 81, 0
4, 428032, Note_on_c, 0, 69, 0
4, 428032, Note_on_c, 0, 73, 0
4, 428032, Note_on_c, 0, 76, 0
4, 428160, Note_on_c, 0, 70, 73
4, 428160, Note_on_c, 0, 74, 73
4, 428160, Note_on_c, 0, 77, 73
4, 428160, Note_on_c, 0, 82, 73
4, 428640, Note_on_c, 0, 82, 0
4, 428640, Note_on_c, 0, 70, 0
4, 428640, Note_on_c, 0, 74, 0
4, 428640, Note_on_c, 0, 77, 0
4, 428640, Note_on_c, 0, 70, 73
4, 428640, Note_on_c, 0, 74, 73
4, 428640, Note_on_c, 0, 77, 73
4, 428640, Note_on_c, 0, 82, 73
4, 428671, Note_on_c, 0, 82, 0
4, 428671, Note_on_c, 0, 70, 0
4, 428671, Note_on_c, 0, 74, 0
4, 428671, Note_on_c, 0, 77, 0
4, 428799, Note_on_c, 0, 70, 73
4, 428799, Note_on_c, 0, 74, 73
4, 428799, Note_on_c, 0, 77, 73
4, 428831, Note_on_c, 0, 77, 0
4, 428831, Note_on_c, 0, 74, 0
4, 428831, Note_on_c, 0, 70, 0
4, 428960, Note_on_c, 0, 70, 73
4, 428960, Note_on_c, 0, 74, 73
4, 428960, Note_on_c, 0, 77, 73
4, 428960, Note_on_c, 0, 82, 73
4, 428992, Note_on_c, 0, 82, 0
4, 428992, Note_on_c, 0, 70, 0
4, 428992, Note_on_c, 0, 74, 0
4, 428992, Note_on_c, 0, 77, 0
4, 429120, Note_on_c, 0, 71, 73
4, 429120, Note_on_c, 0, 74, 73
4, 429120, Note_on_c, 0, 77, 73
4, 429120, Note_on_c, 0, 83, 73
4, 429600, Note_on_c, 0, 83, 0
4, 429600, Note_on_c, 0, 71, 0
4, 429600, Note_on_c, 0, 74, 0
4, 429600, Note_on_c, 0, 77, 0
4, 429600, Note_on_c, 0, 71, 73
4, 429600, Note_on_c, 0, 74, 73
4, 429600, Note_on_c, 0, 77, 73
4, 429600, Note_on_c, 0, 83, 73
4, 429631, Note_on_c, 0, 83, 0
4, 429631, Note_on_c, 0, 71, 0
4, 429631, Note_on_c, 0, 74, 0
4, 429631, Note_on_c, 0, 77, 0
4, 429759, Note_on_c, 0, 71, 73
4, 429759, Note_on_c, 0, 74, 73
4, 429759, Note_on_c, 0, 77, 73
4, 429791, Note_on_c, 0, 77, 0
4, 429791, Note_on_c, 0, 74, 0
4, 429791, Note_on_c, 0, 71, 0
4, 429920, Note_on_c, 0, 71, 73
4, 429920, Note_on_c, 0, 74, 73
4, 429920, Note_on_c, 0, 77, 73
4, 429920, Note_on_c, 0, 83, 73
4, 429952, Note_on_c, 0, 83, 0
4, 429952, Note_on_c, 0, 71, 0
4, 429952, Note_on_c, 0, 74, 0
4, 429952, Note_on_c, 0, 77, 0
4, 430080, Note_on_c, 0, 72, 73
4, 430080, Note_on_c, 0, 75, 73
4, 430080, Note_on_c, 0, 78, 73
4, 430080, Note_on_c, 0, 84, 73
4, 430560, Note_on_c, 0, 84, 0
4, 430560, Note_on_c, 0, 72, 0
4, 430560, Note_on_c, 0, 75, 0
4, 430560, Note_on_c, 0, 78, 0
4, 430560, Note_on_c, 0, 72, 73
4, 430560, Note_on_c, 0, 75, 73
4, 430560, Note_on_c, 0, 78, 73
4, 430560, Note_on_c, 0, 84, 73
4, 430591, Note_on_c, 0, 84, 0
4, 430591, Note_on_c, 0, 72, 0
4, 430591, Note_on_c, 0, 75, 0
4, 430591, Note_on_c, 0, 78, 0
4, 430719, Note_on_c, 0, 72, 73
4, 430719, Note_on_c, 0, 75, 73
4, 430719, Note_on_c, 0, 78, 73
4, 430751, Note_on_c, 0, 78, 0
4, 430751, Note_on_c, 0, 75, 0
4, 430751, Note_on_c, 0, 72, 0
4, 430880, Note_on_c, 0, 72, 73
4, 430880, Note_on_c, 0, 75, 73
4, 430880, Note_on_c, 0, 78, 73
4, 430880, Note_on_c, 0, 84, 73
4, 430912, Note_on_c, 0, 84, 0
4, 430912, Note_on_c, 0, 72, 0
4, 430912, Note_on_c, 0, 75, 0
4, 430912, Note_on_c, 0, 78, 0
4, 431040, Note_on_c, 0, 73, 73
4, 431040, Note_on_c, 0, 76, 73
4, 431040, Note_on_c, 0, 79, 73
4, 431040, Note_on_c, 0, 85, 73
4, 431520, Note_on_c, 0, 85, 0
4, 431520, Note_on_c, 0, 73, 0
4, 431520, Note_on_c, 0, 76, 0
4, 431520, Note_on_c, 0, 79, 0
4, 431520, Note_on_c, 0, 73, 73
4, 431520, Note_on_c, 0, 76, 73
4, 431520, Note_on_c, 0, 79, 73
4, 431520, Note_on_c, 0, 85, 73
4, 431551, Note_on_c, 0, 85, 0
4, 431551, Note_on_c, 0, 73, 0
4, 431551, Note_on_c, 0, 76, 0
4, 431551, Note_on_c, 0, 79, 0
4, 431679, Note_on_c, 0, 73, 73
4, 431679, Note_on_c, 0, 76, 73
4, 431679, Note_on_c, 0, 79, 73
4, 431711, Note_on_c, 0, 79, 0
4, 431711, Note_on_c, 0, 76, 0
4, 431711, Note_on_c, 0, 73, 0
4, 431840, Note_on_c, 0, 73, 73
4, 431840, Note_on_c, 0, 76, 73
4, 431840, Note_on_c, 0, 79, 73
4, 431840, Note_on_c, 0, 85, 73
4, 431872, Note_on_c, 0, 85, 0
4, 431872, Note_on_c, 0, 73, 0
4, 431872, Note_on_c, 0, 76, 0
4, 431872, Note_on_c, 0, 79, 0
4, 432000, Note_on_c, 0, 74, 60
4, 432000, Note_on_c, 0, 77, 60
4, 432000, Note_on_c, 0, 80, 60
4, 432000, Note_on_c, 0, 86, 60
4, 432960, Note_on_c, 0, 86, 0
4, 432960, Note_on_c, 0, 74, 0
4, 432960, Note_on_c, 0, 77, 0
4, 432960, Note_on_c, 0, 80, 0
4, 432960, Note_on_c, 0, 75, 60
4, 432960, Note_on_c, 0, 78, 60
4, 432960, Note_on_c, 0, 81, 60
4, 432960, Note_on_c, 0, 87, 60
4, 433920, Note_on_c, 0, 87, 0
4, 433920, Note_on_c, 0, 75, 0
4, 433920, Note_on_c, 0, 78, 0
4, 433920, Note_on_c, 0, 81, 0
4, 433920, Note_on_c, 0, 79, 60
4, 433920, Note_on_c, 0, 82, 60
4, 433920, Note_on_c, 0, 88, 60
4, 434400, Note_on_c, 0, 88, 0
4, 434400, Note_on_c, 0, 82, 0
4, 434400, Note_on_c, 0, 79, 0
4, 434400, Note_on_c, 0, 80, 60
4, 434400, Note_on_c, 0, 83, 60
4, 434400, Note_on_c, 0, 89, 60
4, 434880, Note_on_c, 0, 89, 0
4, 434880, Note_on_c, 0, 83, 0
4, 434880, Note_on_c, 0, 80, 0
4, 434880, Note_on_c, 0, 81, 73
4, 434880, Note_on_c, 0, 84, 73
4, 434880, Note_on_c, 0, 90, 73
4, 435360, Note_on_c, 0, 90, 0
4, 435360, Note_on_c, 0, 84, 0
4, 435360, Note_on_c, 0, 81, 0
4, 435360, Note_on_c, 0, 83, 73
4, 435360, Note_on_c, 0, 86, 73
4, 435360, Note_on_c, 0, 91, 73
4, 435840, Note_on_c, 0, 91, 0
4, 435840, Note_on_c, 0, 86, 0
4, 435840, Note_on_c, 0, 83, 0
4, 435840, Control_c, 0, 64, 127
4, 435840, Note_on_c, 0, 80, 112
4, 435840, Note_on_c, 0, 83, 112
4, 435840, Note_on_c, 0, 86, 112
4, 435840, Note_on_c, 0, 92, 112
4, 435936, Note_on_c, 0, 92, 0
4, 435936, Note_on_c, 0, 80, 0
4, 435936, Note_on_c, 0, 83, 0
4, 435936, Note_on_c, 0, 86, 0
4, 436320, Control_c, 0, 64, 0
4, 439680, Control_c, 0, 64, 127
4, 439680, Note_on_c, 0, 81, 112
4, 439680, Note_on_c, 0, 84, 112
4, 439680, Note_on_c, 0, 90, 112
4, 439680, Note_on_c, 0, 93, 112
4, 439776, Note_on_c, 0, 93, 0
4, 439776, Note_on_c, 0, 81, 0
4, 439776, Note_on_c, 0, 84, 0
4, 439776, Note_on_c, 0, 90, 0
4, 440640, Control_c, 0, 64, 0
4, 443520, Control_c, 0, 64, 127
4, 443520, Note_on_c, 0, 71, 86
4, 443520, Note_on_c, 0, 77, 86
4, 443520, Note_on_c, 0, 80, 86
4, 443520, Note_on_c, 0, 83, 86
4, 443616, Note_on_c, 0, 83, 0
4, 443616, Note_on_c, 0, 71, 0
4, 443616, Note_on_c, 0, 77, 0
4, 443616, Note_on_c, 0, 80, 0
4, 444000, Control_c, 0, 64, 0
4, 444480, Control_c, 0, 64, 127
4, 444480, Note_on_c, 0, 71, 86
4, 444480, Note_on_c, 0, 77, 86
4, 444480, Note_on_c, 0, 80, 86
4, 444480, Note_on_c, 0, 83, 86
4, 444576, Note_on_c, 0, 83, 0
4, 444576, Note_on_c, 0, 71, 0
4, 444576, Note_on_c, 0, 77, 0
4, 444576, Note_on_c, 0, 80, 0
4, 444960, Control_c, 0, 64, 0
4, 445440, Control_c, 0, 64, 127
4, 445440, Note_on_c, 0, 72, 86
4, 445440, Note_on_c, 0, 77, 86
4, 445440, Note_on_c, 0, 80, 86
4, 445440, Note_on_c, 0, 84, 86
4, 445536, Note_on_c, 0, 84, 0
4, 445536, Note_on_c, 0, 72, 0
4, 445536, Note_on_c, 0, 77, 0
4, 445536, Note_on_c, 0, 80, 0
4, 445920, Control_c, 0, 64, 0
4, 446400, Control_c, 0, 64, 127
4, 446400, Note_on_c, 0, 74, 86
4, 446400, Note_on_c, 0, 77, 86
4, 446400, Note_on_c, 0, 80, 86
4, 446400, Note_on_c, 0, 86, 86
4, 446496, Note_on_c, 0, 86, 0
4, 446496, Note_on_c, 0, 74, 0
4, 446496, Note_on_c, 0, 77, 0
4, 446496, Note_on_c, 0, 80, 0
4, 446880, Control_c, 0, 64, 0
4, 447360, Control_c, 0, 64, 127
4, 447360, Note_on_c, 0, 74, 86
4, 447360, Note_on_c, 0, 77, 86
4, 447360, Note_on_c, 0, 84, 86
4, 447360, Note_on_c, 0, 86, 86
4, 447456, Note_on_c, 0, 86, 0
4, 447456, Note_on_c, 0, 74, 0
4, 447456, Note_on_c, 0, 77, 0
4, 447456, Note_on_c, 0, 84, 0
4, 447840, Control_c, 0, 64, 0
4, 448320, Control_c, 0, 64, 127
4, 448320, Note_on_c, 0, 75, 86
4, 448320, Note_on_c, 0, 79, 86
4, 448320, Note_on_c, 0, 84, 86
4, 448320, Note_on_c, 0, 87, 86
4, 448416, Note_on_c, 0, 87, 0
4, 448416, Note_on_c, 0, 75, 0
4, 448416, Note_on_c, 0, 79, 0
4, 448416, Note_on_c, 0, 84, 0
4, 448800, Control_c, 0, 64, 0
4, 466560, Note_on_c, 0, 63, 47
4, 466560, Note_on_c, 0, 75, 47
4, 467040, Note_on_c, 0, 75, 0
4, 467040, Note_on_c, 0, 63, 0
4, 467040, Note_on_c, 0, 65, 47
4, 467040, Note_on_c, 0, 77, 47
4, 467520, Note_on_c, 0, 77, 0
4, 467520, Note_on_c, 0, 65, 0
4, 467520, Note_on_c, 0, 67, 47
4, 467520, Note_on_c, 0, 79, 47
4, 468000, Note_on_c, 0, 79, 0
4, 468000, Note_on_c, 0, 67, 0
4, 468000, Note_on_c, 0, 63, 47
4, 468000, Note_on_c, 0, 75, 47
4, 468480, Note_on_c, 0, 75, 0
4, 468480, Note_on_c, 0, 63, 0
4, 468480, Note_on_c, 0, 65, 47
4, 468480, Note_on_c, 0, 77, 47
4, 468960, Note_on_c, 0, 77, 0
4, 468960, Note_on_c, 0, 65, 0
4, 468960, Note_on_c, 0, 67, 47
4, 468960, Note_on_c, 0, 79, 47
4, 469440, Note_on_c, 0, 79, 0
4, 469440, Note_on_c, 0, 67, 0
4, 469440, Note_on_c, 0, 68, 47
4, 469440, Note_on_c, 0, 80, 47
4, 469920, Note_on_c, 0, 80, 0
4, 469920, Note_on_c, 0, 68, 0
4, 469920, Note_on_c, 0, 63, 47
4, 469920, Note_on_c, 0, 75, 47
4, 470400, Note_on_c, 0, 75, 0
4, 470400, Note_on_c, 0, 63, 0
4, 470400, Note_on_c, 0, 65, 47
4, 470400, Note_on_c, 0, 77, 47
4, 470880, Note_on_c, 0, 77, 0
4, 470880, Note_on_c, 0, 65, 0
4, 470880, Note_on_c, 0, 58, 47
4, 470880, Note_on_c, 0, 70, 47
4, 471360, Note_on_c, 0, 70, 0
4, 471360, Note_on_c, 0, 58, 0
4, 471360, Note_on_c, 0, 65, 47
4, 471360, Note_on_c, 0, 77, 47
4, 471840, Note_on_c, 0, 77, 0
4, 471840, Note_on_c, 0, 65, 0
4, 471840, Note_on_c, 0, 58, 47
4, 471840, Note_on_c, 0, 70, 47
4, 472320, Note_on_c, 0, 70, 0
4, 472320, Note_on_c, 0, 58, 0
4, 472320, Note_on_c, 0, 65, 47
4, 472320, Note_on_c, 0, 77, 47
4, 472800, Note_on_c, 0, 77, 0
4, 472800, Note_on_c, 0, 65, 0
4, 472800, Note_on_c, 0, 63, 47
4, 472800, Note_on_c, 0, 75, 47
4, 473280, Note_on_c, 0, 75, 0
4, 473280, Note_on_c, 0, 63, 0
4, 473280, Note_on_c, 0, 65, 47
4, 473280, Note_on_c, 0, 77, 47
4, 473760, Note_on_c, 0, 77, 0
4, 473760, Note_on_c, 0, 65, 0
4, 473760, Note_on_c, 0, 60, 47
4, 473760, Note_on_c, 0, 72, 47
4, 474240, Note_on_c, 0, 72, 0
4, 474240, Note_on_c, 0, 60, 0
4, 474240, Note_on_c, 0, 63, 47
4, 474240, Note_on_c, 0, 75, 47
4, 474720, Note_on_c, 0, 75, 0
4, 474720, Note_on_c, 0, 63, 0
4, 474720, Note_on_c, 0, 65, 47
4, 474720, Note_on_c, 0, 77, 47
4, 475200, Note_on_c, 0, 77, 0
4, 475200, Note_on_c, 0, 65, 0
4, 475200, Note_on_c, 0, 67, 47
4, 475200, Note_on_c, 0, 79, 47
4, 475680, Note_on_c, 0, 79, 0
4, 475680, Note_on_c, 0, 67, 0
4, 475680, Note_on_c, 0, 63, 47
4, 475680, Note_on_c, 0, 75, 47
4, 476160, Note_on_c, 0, 75, 0
4, 476160, Note_on_c, 0, 63, 0
4, 476160, Note_on_c, 0, 65, 47
4, 476160, Note_on_c, 0, 77, 47
4, 476640, Note_on_c, 0, 77, 0
4, 476640, Note_on_c, 0, 65, 0
4, 476640, Note_on_c, 0, 67, 47
4, 476640, Note_on_c, 0, 79, 47
4, 477120, Note_on_c, 0, 79, 0
4, 477120, Note_on_c, 0, 67, 0
4, 477120, Note_on_c, 0, 68, 47
4, 477120, Note_on_c, 0, 80, 47
4, 477600, Note_on_c, 0, 80, 0
4, 477600, Note_on_c, 0, 68, 0
4, 477600, Note_on_c, 0, 63, 47
4, 477600, Note_on_c, 0, 75, 47
4, 478080, Note_on_c, 0, 75, 0
4, 478080, Note_on_c, 0, 63, 0
4, 478080, Note_on_c, 0, 65, 47
4, 478080, Note_on_c, 0, 77, 47
4, 478560, Note_on_c, 0, 77, 0
4, 478560, Note_on_c, 0, 65, 0
4, 478560, Note_on_c, 0, 58, 47
4, 478560, Note_on_c, 0, 70, 47
4, 479040, Note_on_c, 0, 70, 0
4, 479040, Note_on_c, 0, 58, 0
4, 479040, Note_on_c, 0, 65, 47
4, 479040, Note_on_c, 0, 77, 47
4, 479520, Note_on_c, 0, 77, 0
4, 479520, Note_on_c, 0, 65, 0
4, 479520, Note_on_c, 0, 58, 47
4, 479520, Note_on_c, 0, 70, 47
4, 480000, Note_on_c, 0, 70, 0
4, 480000, Note_on_c, 0, 58, 0
4, 480000, Note_on_c, 0, 65, 47
4, 480000, Note_on_c, 0, 77, 47
4, 480480, Note_on_c, 0, 77, 0
4, 480480, Note_on_c, 0, 65, 0
4, 480480, Note_on_c, 0, 60, 47
4, 480480, Note_on_c, 0, 72, 47
4, 480960, Note_on_c, 0, 72, 0
4, 480960, Note_on_c, 0, 60, 0
4, 480960, Note_on_c, 0, 65, 47
4, 480960, Note_on_c, 0, 77, 47
4, 481440, Note_on_c, 0, 77, 0
4, 481440, Note_on_c, 0, 65, 0
4, 481440, Note_on_c, 0, 60, 47
4, 481440, Note_on_c, 0, 68, 47
4, 481440, Note_on_c, 0, 72, 47
4, 481920, Note_on_c, 0, 72, 0
4, 481920, Note_on_c, 0, 68, 0
4, 481920, Note_on_c, 0, 60, 0
4, 481920, Note_on_c, 0, 87, 47
4, 482400, Note_on_c, 0, 87, 0
4, 482400, Note_on_c, 0, 89, 47
4, 482880, Note_on_c, 0, 89, 0
4, 482880, Note_on_c, 0, 91, 47
4, 483360, Note_on_c, 0, 91, 0
4, 483360, Note_on_c, 0, 87, 47
4, 483840, Note_on_c, 0, 87, 0
4, 483840, Note_on_c, 0, 89, 47
4, 484320, Note_on_c, 0, 89, 0
4, 484320, Note_on_c, 0, 91, 47
4, 484800, Note_on_c, 0, 91, 0
4, 484800, Note_on_c, 0, 92, 47
4, 485280, Note_on_c, 0, 92, 0
4, 485280, Note_on_c, 0, 87, 47
4, 485760, Note_on_c, 0, 87, 0
4, 485760, Note_on_c, 0, 89, 47
4, 486240, Note_on_c, 0, 89, 0
4, 486240, Note_on_c, 0, 82, 47
4, 486720, Note_on_c, 0, 82, 0
4, 486720, Note_on_c, 0, 89, 47
4, 487200, Note_on_c, 0, 89, 0
4, 487200, Note_on_c, 0, 82, 47
4, 487680, Note_on_c, 0, 82, 0
4, 487680, Note_on_c, 0, 89, 47
4, 488160, Note_on_c, 0, 89, 0
4, 488160, Note_on_c, 0, 87, 47
4, 488640, Note_on_c, 0, 87, 0
4, 488640, Note_on_c, 0, 89, 47
4, 489120, Note_on_c, 0, 89, 0
4, 489120, Note_on_c, 0, 84, 47
4, 489600, Note_on_c, 0, 84, 0
4, 489600, Note_on_c, 0, 87, 47
4, 490080, Note_on_c, 0, 87, 0
4, 490080, Note_on_c, 0, 89, 47
4, 490560, Note_on_c, 0, 89, 0
4, 490560, Note_on_c, 0, 91, 47
4, 491040, Note_on_c, 0, 91, 0
4, 491040, Note_on_c, 0, 87, 47
4, 491520, Note_on_c, 0, 87, 0
4, 491520, Note_on_c, 0, 89, 47
4, 492000, Note_on_c, 0, 89, 0
4, 492000, Note_on_c, 0, 91, 47
4, 492480, Note_on_c, 0, 91, 0
4, 492480, Note_on_c, 0, 92, 47
4, 492960, Note_on_c, 0, 92, 0
4, 492960, Note_on_c, 0, 87, 47
4, 493440, Note_on_c, 0, 87, 0
4, 493440, Note_on_c, 0, 92, 47
4, 493920, Note_on_c, 0, 92, 0
4, 493920, Note_on_c, 0, 88, 47
4, 494400, Note_on_c, 0, 88, 0
4, 494400, Note_on_c, 0, 92, 47
4, 494880, Note_on_c, 0, 92, 0
4, 494880, Note_on_c, 0, 88, 47
4, 495360, Note_on_c, 0, 88, 0
4, 495360, Note_on_c, 0, 68, 47
4, 495840, Note_on_c, 0, 68, 0
4, 495840, Note_on_c, 0, 63, 47
4, 496320, Note_on_c, 0, 63, 0
4, 496320, Note_on_c, 0, 68, 47
4, 496800, Note_on_c, 0, 68, 0
4, 496800, Note_on_c, 0, 63, 47
4, 497280, Note_on_c, 0, 63, 0
4, 497280, Note_on_c, 0, 92, 47
4, 497760, Note_on_c, 0, 92, 0
4, 497760, Note_on_c, 0, 88, 47
4, 498240, Note_on_c, 0, 88, 0
4, 498240, Note_on_c, 0, 92, 47
4, 498720, Note_on_c, 0, 92, 0
4, 498720, Note_on_c, 0, 88, 47
4, 499200, Note_on_c, 0, 88, 0
4, 499200, Note_on_c, 0, 68, 47
4, 499680, Note_on_c, 0, 68, 0
4, 499680, Note_on_c, 0, 63, 47
4, 500160, Note_on_c, 0, 63, 0
4, 500160, Note_on_c, 0, 68, 47
4, 500640, Note_on_c, 0, 68, 0
4, 500640, Note_on_c, 0, 63, 47
4, 501120, Note_on_c, 0, 63, 0
4, 501120, Note_on_c, 0, 92, 47
4, 501600, Note_on_c, 0, 92, 0
4, 501600, Note_on_c, 0, 80, 47
4, 501600, Note_on_c, 0, 87, 47
4, 502080, Note_on_c, 0, 87, 0
4, 502080, Note_on_c, 0, 80, 0
4, 502080, Note_on_c, 0, 68, 47
4, 502560, Note_on_c, 0, 68, 0
4, 502560, Note_on_c, 0, 56, 47
4, 502560, Note_on_c, 0, 60, 47
4, 502560, Note_on_c, 0, 63, 47
4, 503040, Note_on_c, 0, 63, 0
4, 503040, Note_on_c, 0, 60, 0
4, 503040, Note_on_c, 0, 56, 0
4, 503040, Note_on_c, 0, 92, 47
4, 503520, Note_on_c, 0, 92, 0
4, 503520, Note_on_c, 0, 80, 47
4, 503520, Note_on_c, 0, 87, 47
4, 504000, Note_on_c, 0, 87, 0
4, 504000, Note_on_c, 0, 80, 0
4, 504000, Note_on_c, 0, 68, 47
4, 504480, Note_on_c, 0, 68, 0
4, 504480, Note_on_c, 0, 56, 47
4, 504480, Note_on_c, 0, 60, 47
4, 504480, Note_on_c, 0, 63, 47
4, 504960, Note_on_c, 0, 63, 0
4, 504960, Note_on_c, 0, 60, 0
4, 504960, Note_on_c, 0, 56, 0
4, 504960, Note_on_c, 0, 92, 47
4, 505440, Note_on_c, 0, 92, 0
4, 505440, Control_c, 0, 64, 127
4, 505440, Note_on_c, 0, 75, 47
4, 505440, Note_on_c, 0, 80, 47
4, 505440, Note_on_c, 0, 84, 47
4, 505440, Note_on_c, 0, 87, 47
4, 507360, Note_on_c, 0, 87, 0
4, 507360, Note_on_c, 0, 75, 0
4, 507360, Note_on_c, 0, 80, 0
4, 507360, Note_on_c, 0, 84, 0
4, 510720, Control_c, 0, 64, 0
4, 515040, Note_on_c, 0, 56, 73
4, 515520, Note_on_c, 0, 56, 0
4, 515520, Note_on_c, 0, 58, 73
4, 516000, Note_on_c, 0, 58, 0
4, 516000, Note_on_c, 0, 60, 73
4, 516480, Note_on_c, 0, 60, 0
4, 516480, Note_on_c, 0, 56, 73
4, 516960, Note_on_c, 0, 56, 0
4, 516960, Note_on_c, 0, 58, 73
4, 517440, Note_on_c, 0, 58, 0
4, 517440, Note_on_c, 0, 60, 73
4, 517920, Note_on_c, 0, 60, 0
4, 517920, Note_on_c, 0, 61, 73
4, 518400, Note_on_c, 0, 61, 0
4, 518400, Note_on_c, 0, 57, 73
4, 518880, Note_on_c, 0, 57, 0
4, 518880, Note_on_c, 0, 72, 47
4, 518880, Note_on_c, 0, 84, 47
4, 519039, Note_on_c, 0, 84, 0
4, 519039, Note_on_c, 0, 72, 0
4, 519039, Note_on_c, 0, 73, 47
4, 519039, Note_on_c, 0, 85, 47
4, 519200, Note_on_c, 0, 85, 0
4, 519200, Note_on_c, 0, 73, 0
4, 519360, Note_on_c, 0, 77, 47
4, 519360, Note_on_c, 0, 89, 47
4, 519519, Note_on_c, 0, 89, 0
4, 519519, Note_on_c, 0, 77, 0
4, 519519, Note_on_c, 0, 75, 47
4, 519519, Note_on_c, 0, 87, 47
4, 519680, Note_on_c, 0, 87, 0
4, 519680, Note_on_c, 0, 75, 0
4, 519840, Note_on_c, 0, 66, 47
4, 519840, Note_on_c, 0, 78, 47
4, 519999, Note_on_c, 0, 78, 0
4, 519999, Note_on_c, 0, 66, 0
4, 519999, Note_on_c, 0, 65, 47
4, 519999, Note_on_c, 0, 77, 47
4, 520160, Note_on_c, 0, 77, 0
4, 520160, Note_on_c, 0, 65, 0
4, 520320, Note_on_c, 0, 75, 47
4, 520320, Note_on_c, 0, 87, 47
4, 520479, Note_on_c, 0, 87, 0
4, 520479, Note_on_c, 0, 75, 0
4, 520479, Note_on_c, 0, 73, 47
4, 520479, Note_on_c, 0, 85, 47
4, 520640, Note_on_c, 0, 85, 0
4, 520640, Note_on_c, 0, 73, 0
4, 520800, Note_on_c, 0, 69, 47
4, 520800, Note_on_c, 0, 81, 47
4, 520959, Note_on_c, 0, 81, 0
4, 520959, Note_on_c, 0, 69, 0
4, 520959, Note_on_c, 0, 70, 47
4, 520959, Note_on_c, 0, 82, 47
4, 521120, Note_on_c, 0, 82, 0
4, 521120, Note_on_c, 0, 70, 0
4, 521280, Note_on_c, 0, 73, 47
4, 521280, Note_on_c, 0, 85, 47
4, 521439, Note_on_c, 0, 85, 0
4, 521439, Note_on_c, 0, 73, 0
4, 521439, Note_on_c, 0, 72, 47
4, 521439, Note_on_c, 0, 84, 47
4, 521600, Note_on_c, 0, 84, 0
4, 521600, Note_on_c, 0, 72, 0
4, 521760, Note_on_c, 0, 68, 47
4, 521760, Note_on_c, 0, 80, 47
4, 521919, Note_on_c, 0, 80, 0
4, 521919, Note_on_c, 0, 68, 0
4, 521919, Note_on_c, 0, 69, 47
4, 521919, Note_on_c, 0, 81, 47
4, 522080, Note_on_c, 0, 81, 0
4, 522080, Note_on_c, 0, 69, 0
4, 522240, Note_on_c, 0, 72, 47
4, 522240, Note_on_c, 0, 84, 47
4, 522399, Note_on_c, 0, 84, 0
4, 522399, Note_on_c, 0, 72, 0
4, 522399, Note_on_c, 0, 70, 47
4, 522399, Note_on_c, 0, 82, 47
4, 522560, Note_on_c, 0, 82, 0
4, 522560, Note_on_c, 0, 70, 0
4, 522720, Note_on_c, 0, 58, 73
4, 523200, Note_on_c, 0, 58, 0
4, 523200, Note_on_c, 0, 60, 73
4, 523680, Note_on_c, 0, 60, 0
4, 523680, Note_on_c, 0, 62, 73
4, 524160, Note_on_c, 0, 62, 0
4, 524160, Note_on_c, 0, 58, 73
4, 524640, Note_on_c, 0, 58, 0
4, 524640, Note_on_c, 0, 60, 73
4, 525120, Note_on_c, 0, 60, 0
4, 525120, Note_on_c, 0, 62, 73
4, 525600, Note_on_c, 0, 62, 0
4, 525600, Note_on_c, 0, 63, 73
4, 526080, Note_on_c, 0, 63, 0
4, 526080, Note_on_c, 0, 59, 73
4, 526560, Note_on_c, 0, 59, 0
4, 526560, Note_on_c, 0, 74, 47
4, 526560, Note_on_c, 0, 86, 47
4, 526719, Note_on_c, 0, 86, 0
4, 526719, Note_on_c, 0, 74, 0
4, 526719, Note_on_c, 0, 75, 47
4, 526719, Note_on_c, 0, 87, 47
4, 526880, Note_on_c, 0, 87, 0
4, 526880, Note_on_c, 0, 75, 0
4, 527040, Note_on_c, 0, 79, 47
4, 527040, Note_on_c, 0, 91, 47
4, 527199, Note_on_c, 0, 91, 0
4, 527199, Note_on_c, 0, 79, 0
4, 527199, Note_on_c, 0, 77, 47
4, 527199, Note_on_c, 0, 89, 47
4, 527360, Note_on_c, 0, 89, 0
4, 527360, Note_on_c, 0, 77, 0
4, 527520, Note_on_c, 0, 68, 47
4, 527520, Note_on_c, 0, 80, 47
4, 527679, Note_on_c, 0, 80, 0
4, 527679, Note_on_c, 0, 68, 0
4, 527679, Note_on_c, 0, 67, 47
4, 527679, Note_on_c, 0, 79, 47
4, 527840, Note_on_c, 0, 79, 0
4, 527840, Note_on_c, 0, 67, 0
4, 528000, Note_on_c, 0, 77, 47
4, 528000, Note_on_c, 0, 89, 47
4, 528159, Note_on_c, 0, 89, 0
4, 528159, Note_on_c, 0, 77, 0
4, 528159, Note_on_c, 0, 75, 47
4, 528159, Note_on_c, 0, 87, 47
4, 528320, Note_on_c, 0, 87, 0
4, 528320, Note_on_c, 0, 75, 0
4, 528480, Note_on_c, 0, 71, 47
4, 528480, Note_on_c, 0, 83, 47
4, 528639, Note_on_c, 0, 83, 0
4, 528639, Note_on_c, 0, 71, 0
4, 528639, Note_on_c, 0, 72, 47
4, 528639, Note_on_c, 0, 84, 47
4, 528800, Note_on_c, 0, 84, 0
4, 528800, Note_on_c, 0, 72, 0
4, 528960, Note_on_c, 0, 75, 47
4, 528960, Note_on_c, 0, 87, 47
4, 529119, Note_on_c, 0, 87, 0
4, 529119, Note_on_c, 0, 75, 0
4, 529119, Note_on_c, 0, 74, 47
4, 529119, Note_on_c, 0, 86, 47
4, 529280, Note_on_c, 0, 86, 0
4, 529280, Note_on_c, 0, 74, 0
4, 529440, Note_on_c, 0, 70, 47
4, 529440, Note_on_c, 0, 82, 47
4, 529599, Note_on_c, 0, 82, 0
4, 529599, Note_on_c, 0, 70, 0
4, 529599, Note_on_c, 0, 71, 47
4, 529599, Note_on_c, 0, 83, 47
4, 529760, Note_on_c, 0, 83, 0
4, 529760, Note_on_c, 0, 71, 0
4, 529920, Note_on_c, 0, 74, 47
4, 529920, Note_on_c, 0, 86, 47
4, 530079, Note_on_c, 0, 86, 0
4, 530079, Note_on_c, 0, 74, 0
4, 530079, Note_on_c, 0, 72, 47
4, 530079, Note_on_c, 0, 84, 47
4, 530240, Note_on_c, 0, 84, 0
4, 530240, Note_on_c, 0, 72, 0
4, 530400, Note_on_c, 0, 60, 73
4, 530400, Note_on_c, 0, 72, 73
4, 530880, Note_on_c, 0, 72, 0
4, 530880, Note_on_c, 0, 60, 0
4, 530880, Note_on_c, 0, 62, 73
4, 530880, Note_on_c, 0, 74, 73
4, 531360, Note_on_c, 0, 74, 0
4, 531360, Note_on_c, 0, 62, 0
4, 531360, Note_on_c, 0, 63, 73
4, 531360, Note_on_c, 0, 75, 73
4, 531840, Note_on_c, 0, 75, 0
4, 531840, Note_on_c, 0, 63, 0
4, 531840, Note_on_c, 0, 59, 73
4, 531840, Note_on_c, 0, 67, 73
4, 531840, Note_on_c, 0, 71, 73
4, 532320, Note_on_c, 0, 71, 0
4, 532320, Note_on_c, 0, 67, 0
4, 532320, Note_on_c, 0, 59, 0
4, 532320, Note_on_c, 0, 79, 60
4, 532320, Note_on_c, 0, 91, 60
4, 532800, Note_on_c, 0, 91, 0
4, 532800, Note_on_c, 0, 79, 0
4, 532800, Note_on_c, 0, 74, 60
4, 532800, Note_on_c, 0, 79, 60
4, 532800, Note_on_c, 0, 86, 60
4, 533280, Note_on_c, 0, 86, 0
4, 533280, Note_on_c, 0, 74, 0
4, 533280, Note_on_c, 0, 75, 60
4, 533280, Note_on_c, 0, 87, 60
4, 533760, Note_on_c, 0, 87, 0
4, 533760, Note_on_c, 0, 75, 0
4, 533760, Note_on_c, 0, 79, 0
4, 533760, Note_on_c, 0, 72, 60
4, 533760, Note_on_c, 0, 79, 60
4, 533760, Note_on_c, 0, 84, 60
4, 534240, Note_on_c, 0, 84, 0
4, 534240, Note_on_c, 0, 79, 0
4, 534240, Note_on_c, 0, 72, 0
4, 534240, Note_on_c, 0, 63, 86
4, 534240, Note_on_c, 0, 75, 86
4, 534720, Note_on_c, 0, 75, 0
4, 534720, Note_on_c, 0, 63, 0
4, 534720, Note_on_c, 0, 64, 86
4, 534720, Note_on_c, 0, 76, 86
4, 535200, Note_on_c, 0, 76, 0
4, 535200, Note_on_c, 0, 64, 0
4, 535200, Note_on_c, 0, 65, 86
4, 535200, Note_on_c, 0, 77, 86
4, 535680, Note_on_c, 0, 77, 0
4, 535680, Note_on_c, 0, 65, 0
4, 535680, Note_on_c, 0, 61, 86
4, 535680, Note_on_c, 0, 68, 86
4, 535680, Note_on_c, 0, 73, 86
4, 536160, Note_on_c, 0, 73, 0
4, 536160, Note_on_c, 0, 68, 0
4, 536160, Note_on_c, 0, 61, 0
4, 536160, Note_on_c, 0, 81, 60
4, 536160, Note_on_c, 0, 93, 60
4, 536640, Note_on_c, 0, 93, 0
4, 536640, Note_on_c, 0, 81, 0
4, 536640, Note_on_c, 0, 76, 60
4, 536640, Note_on_c, 0, 81, 60
4, 536640, Note_on_c, 0, 88, 60
4, 537120, Note_on_c, 0, 88, 0
4, 537120, Note_on_c, 0, 76, 0
4, 537120, Note_on_c, 0, 77, 60
4, 537120, Note_on_c, 0, 89, 60
4, 537600, Note_on_c, 0, 89, 0
4, 537600, Note_on_c, 0, 77, 0
4, 537600, Note_on_c, 0, 81, 0
4, 537600, Note_on_c, 0, 74, 60
4, 537600, Note_on_c, 0, 81, 60
4, 537600, Note_on_c, 0, 86, 60
4, 538080, Note_on_c, 0, 86, 0
4, 538080, Note_on_c, 0, 81, 0
4, 538080, Note_on_c, 0, 74, 0
4, 538080, Note_on_c, 0, 74, 60
4, 538320, Note_on_c, 0, 74, 0
4, 538320, Note_on_c, 0, 76, 60
4, 538560, Note_on_c, 0, 76, 0
4, 538560, Note_on_c, 0, 77, 60
4, 538800, Note_on_c, 0, 77, 0
4, 538800, Note_on_c, 0, 78, 60
4, 539040, Note_on_c, 0, 78, 0
4, 539040, Note_on_c, 0, 74, 60
4, 539280, Note_on_c, 0, 74, 0
4, 539280, Note_on_c, 0, 76, 60
4, 539520, Note_on_c, 0, 76, 0
4, 539520, Note_on_c, 0, 78, 60
4, 539760, Note_on_c, 0, 78, 0
4, 539760, Note_on_c, 0, 79, 60
4, 540000, Note_on_c, 0, 79, 0
4, 540000, Note_on_c, 0, 76, 60
4, 540240, Note_on_c, 0, 76, 0
4, 540240, Note_on_c, 0, 78, 60
4, 540480, Note_on_c, 0, 78, 0
4, 540480, Note_on_c, 0, 79, 60
4, 540720, Note_on_c, 0, 79, 0
4, 540720, Note_on_c, 0, 80, 60
4, 540960, Note_on_c, 0, 80, 0
4, 540960, Note_on_c, 0, 76, 60
4, 541200, Note_on_c, 0, 76, 0
4, 541200, Note_on_c, 0, 78, 60
4, 541440, Note_on_c, 0, 78, 0
4, 541440, Note_on_c, 0, 80, 60
4, 541680, Note_on_c, 0, 80, 0
4, 541680, Note_on_c, 0, 81, 60
4, 541920, Note_on_c, 0, 81, 0
4, 541920, Note_on_c, 0, 83, 60
4, 542160, Note_on_c, 0, 83, 0
4, 542160, Note_on_c, 0, 84, 60
4, 542400, Note_on_c, 0, 84, 0
4, 542400, Note_on_c, 0, 86, 60
4, 542640, Note_on_c, 0, 86, 0
4, 542640, Note_on_c, 0, 87, 60
4, 542880, Note_on_c, 0, 87, 0
4, 542880, Note_on_c, 0, 88, 60
4, 543120, Note_on_c, 0, 88, 0
4, 543120, Note_on_c, 0, 89, 60
4, 543360, Note_on_c, 0, 89, 0
4, 543360, Note_on_c, 0, 87, 60
4, 543600, Note_on_c, 0, 87, 0
4, 543600, Note_on_c, 0, 88, 60
4, 543840, Note_on_c, 0, 88, 0
4, 543840, Note_on_c, 0, 93, 60
4, 544080, Note_on_c, 0, 93, 0
4, 544080, Note_on_c, 0, 92, 60
4, 544320, Note_on_c, 0, 92, 0
4, 544320, Note_on_c, 0, 91, 60
4, 544560, Note_on_c, 0, 91, 0
4, 544560, Note_on_c, 0, 90, 60
4, 544800, Note_on_c, 0, 90, 0
4, 544800, Note_on_c, 0, 89, 60
4, 545040, Note_on_c, 0, 89, 0
4, 545040, Note_on_c, 0, 88, 60
4, 545280, Note_on_c, 0, 88, 0
4, 545280, Note_on_c, 0, 87, 60
4, 545520, Note_on_c, 0, 87, 0
4, 545520, Note_on_c, 0, 88, 60
4, 545760, Note_on_c, 0, 88, 0
4, 545760, Note_on_c, 0, 76, 60
4, 546000, Note_on_c, 0, 76, 0
4, 546000, Note_on_c, 0, 78, 60
4, 546240, Note_on_c, 0, 78, 0
4, 546240, Note_on_c, 0, 79, 60
4, 546480, Note_on_c, 0, 79, 0
4, 546480, Note_on_c, 0, 80, 60
4, 546720, Note_on_c, 0, 80, 0
4, 546720, Note_on_c, 0, 76, 60
4, 546960, Note_on_c, 0, 76, 0
4, 546960, Note_on_c, 0, 78, 60
4, 547200, Note_on_c, 0, 78, 0
4, 547200, Note_on_c, 0, 80, 60
4, 547440, Note_on_c, 0, 80, 0
4, 547440, Note_on_c, 0, 81, 60
4, 547680, Note_on_c, 0, 81, 0
4, 547680, Note_on_c, 0, 78, 60
4, 547920, Note_on_c, 0, 78, 0
4, 547920, Note_on_c, 0, 80, 60
4, 548160, Note_on_c, 0, 80, 0
4, 548160, Note_on_c, 0, 81, 60
4, 548400, Note_on_c, 0, 81, 0
4, 548400, Note_on_c, 0, 82, 60
4, 548640, Note_on_c, 0, 82, 0
4, 548640, Note_on_c, 0, 78, 60
4, 548880, Note_on_c, 0, 78, 0
4, 548880, Note_on_c, 0, 80, 60
4, 549120, Note_on_c, 0, 80, 0
4, 549120, Note_on_c, 0, 82, 60
4, 549360, Note_on_c, 0, 82, 0
4, 549360, Note_on_c, 0, 83, 60
4, 549600, Note_on_c, 0, 83, 0
4, 549600, Note_on_c, 0, 85, 60
4, 549840, Note_on_c, 0, 85, 0
4, 549840, Note_on_c, 0, 86, 60
4, 550080, Note_on_c, 0, 86, 0
4, 550080, Note_on_c, 0, 88, 60
4, 550320, Note_on_c, 0, 88, 0
4, 550320, Note_on_c, 0, 89, 60
4, 550560, Note_on_c, 0, 89, 0
4, 550560, Note_on_c, 0, 90, 60
4, 550800, Note_on_c, 0, 90, 0
4, 550800, Note_on_c, 0, 91, 60
4, 551040, Note_on_c, 0, 91, 0
4, 551040, Note_on_c, 0, 89, 60
4, 551280, Note_on_c, 0, 89, 0
4, 551280, Note_on_c, 0, 90, 60
4, 551520, Note_on_c, 0, 90, 0
4, 551520, Note_on_c, 0, 95, 60
4, 551760, Note_on_c, 0, 95, 0
4, 551760, Note_on_c, 0, 94, 60
4, 552000, Note_on_c, 0, 94, 0
4, 552000, Note_on_c, 0, 93, 60
4, 552240, Note_on_c, 0, 93, 0
4, 552240, Note_on_c, 0, 92, 60
4, 552480, Note_on_c, 0, 92, 0
4, 552480, Note_on_c, 0, 91, 60
4, 552720, Note_on_c, 0, 91, 0
4, 552720, Note_on_c, 0, 90, 60
4, 552960, Note_on_c, 0, 90, 0
4, 552960, Note_on_c, 0, 89, 60
4, 553200, Note_on_c, 0, 89, 0
4, 553200, Note_on_c, 0, 90, 60
4, 553440, Note_on_c, 0, 90, 0
4, 553440, Note_on_c, 0, 83, 73
4, 553680, Note_on_c, 0, 83, 0
4, 553680, Note_on_c, 0, 82, 73
4, 553920, Note_on_c, 0, 82, 0
4, 553920, Note_on_c, 0, 81, 73
4, 554160, Note_on_c, 0, 81, 0
4, 554160, Note_on_c, 0, 80, 73
4, 554400, Note_on_c, 0, 80, 0
4, 554400, Note_on_c, 0, 79, 73
4, 554640, Note_on_c, 0, 79, 0
4, 554640, Note_on_c, 0, 78, 73
4, 554880, Note_on_c, 0, 78, 0
4, 554880, Note_on_c, 0, 77, 73
4, 555120, Note_on_c, 0, 77, 0
4, 555120, Note_on_c, 0, 78, 73
4, 555360, Note_on_c, 0, 78, 0
4, 555360, Note_on_c, 0, 81, 73
4, 555600, Note_on_c, 0, 81, 0
4, 555600, Note_on_c, 0, 82, 73
4, 555840, Note_on_c, 0, 82, 0
4, 555840, Note_on_c, 0, 83, 73
4, 556080, Note_on_c, 0, 83, 0
4, 556080, Note_on_c, 0, 84, 73
4, 556320, Note_on_c, 0, 84, 0
4, 556320, Note_on_c, 0, 85, 73
4, 556560, Note_on_c, 0, 85, 0
4, 556560, Note_on_c, 0, 86, 73
4, 556800, Note_on_c, 0, 86, 0
4, 556800, Note_on_c, 0, 87, 73
4, 557040, Note_on_c, 0, 87, 0
4, 557040, Note_on_c, 0, 88, 73
4, 557280, Note_on_c, 0, 88, 0
4, 557280, Note_on_c, 0, 64, 73
4, 557280, Note_on_c, 0, 76, 73
4, 557760, Note_on_c, 0, 76, 0
4, 557760, Note_on_c, 0, 64, 0
4, 557760, Note_on_c, 0, 66, 73
4, 557760, Note_on_c, 0, 76, 73
4, 557760, Note_on_c, 0, 78, 73
4, 558240, Note_on_c, 0, 78, 0
4, 558240, Note_on_c, 0, 76, 0
4, 558240, Note_on_c, 0, 66, 0
4, 558240, Note_on_c, 0, 68, 73
4, 558240, Note_on_c, 0, 76, 73
4, 558240, Note_on_c, 0, 80, 73
4, 558720, Note_on_c, 0, 80, 0
4, 558720, Note_on_c, 0, 76, 0
4, 558720, Note_on_c, 0, 68, 0
4, 558720, Note_on_c, 0, 64, 73
4, 558720, Note_on_c, 0, 76, 73
4, 559200, Note_on_c, 0, 76, 0
4, 559200, Note_on_c, 0, 64, 0
4, 559200, Note_on_c, 0, 66, 73
4, 559200, Note_on_c, 0, 76, 73
4, 559200, Note_on_c, 0, 78, 73
4, 559680, Note_on_c, 0, 78, 0
4, 559680, Note_on_c, 0, 76, 0
4, 559680, Note_on_c, 0, 66, 0
4, 559680, Note_on_c, 0, 68, 73
4, 559680, Note_on_c, 0, 76, 73
4, 559680, Note_on_c, 0, 80, 73
4, 560160, Note_on_c, 0, 80, 0
4, 560160, Note_on_c, 0, 76, 0
4, 560160, Note_on_c, 0, 68, 0
4, 560160, Note_on_c, 0, 69, 73
4, 560160, Note_on_c, 0, 76, 73
4, 560160, Note_on_c, 0, 81, 73
4, 560640, Note_on_c, 0, 81, 0
4, 560640, Note_on_c, 0, 76, 0
4, 560640, Note_on_c, 0, 69, 0
4, 560640, Note_on_c, 0, 64, 73
4, 560640, Note_on_c, 0, 69, 73
4, 560640, Note_on_c, 0, 76, 73
4, 561120, Note_on_c, 0, 76, 0
4, 561120, Note_on_c, 0, 69, 0
4, 561120, Note_on_c, 0, 64, 0
4, 561120, Note_on_c, 0, 81, 73
4, 561360, Note_on_c, 0, 81, 0
4, 561360, Note_on_c, 0, 80, 73
4, 561600, Note_on_c, 0, 80, 0
4, 561600, Note_on_c, 0, 79, 73
4, 561840, Note_on_c, 0, 79, 0
4, 561840, Note_on_c, 0, 78, 73
4, 562080, Note_on_c, 0, 78, 0
4, 562080, Note_on_c, 0, 77, 73
4, 562320, Note_on_c, 0, 77, 0
4, 562320, Note_on_c, 0, 76, 73
4, 562560, Note_on_c, 0, 76, 0
4, 562560, Note_on_c, 0, 75, 73
4, 562800, Note_on_c, 0, 75, 0
4, 562800, Note_on_c, 0, 76, 73
4, 563040, Note_on_c, 0, 76, 0
4, 563040, Note_on_c, 0, 79, 73
4, 563280, Note_on_c, 0, 79, 0
4, 563280, Note_on_c, 0, 80, 73
4, 563520, Note_on_c, 0, 80, 0
4, 563520, Note_on_c, 0, 81, 73
4, 563760, Note_on_c, 0, 81, 0
4, 563760, Note_on_c, 0, 82, 73
4, 564000, Note_on_c, 0, 82, 0
4, 564000, Note_on_c, 0, 83, 73
4, 564240, Note_on_c, 0, 83, 0
4, 564240, Note_on_c, 0, 84, 73
4, 564480, Note_on_c, 0, 84, 0
4, 564480, Note_on_c, 0, 85, 73
4, 564720, Note_on_c, 0, 85, 0
4, 564720, Note_on_c, 0, 86, 73
4, 564960, Note_on_c, 0, 86, 0
4, 564960, Note_on_c, 0, 62, 73
4, 564960, Note_on_c, 0, 74, 73
4, 565440, Note_on_c, 0, 74, 0
4, 565440, Note_on_c, 0, 62, 0
4, 565440, Note_on_c, 0, 64, 73
4, 565440, Note_on_c, 0, 74, 73
4, 565440, Note_on_c, 0, 76, 73
4, 565920, Note_on_c, 0, 76, 0
4, 565920, Note_on_c, 0, 74, 0
4, 565920, Note_on_c, 0, 64, 0
4, 565920, Note_on_c, 0, 66, 73
4, 565920, Note_on_c, 0, 74, 73
4, 565920, Note_on_c, 0, 78, 73
4, 566400, Note_on_c, 0, 78, 0
4, 566400, Note_on_c, 0, 74, 0
4, 566400, Note_on_c, 0, 66, 0
4, 566400, Note_on_c, 0, 62, 73
4, 566400, Note_on_c, 0, 74, 73
4, 566880, Note_on_c, 0, 74, 0
4, 566880, Note_on_c, 0, 62, 0
4, 566880, Note_on_c, 0, 64, 73
4, 566880, Note_on_c, 0, 74, 73
4, 566880, Note_on_c, 0, 76, 73
4, 567360, Note_on_c, 0, 76, 0
4, 567360, Note_on_c, 0, 74, 0
4, 567360, Note_on_c, 0, 64, 0
4, 567360, Note_on_c, 0, 66, 73
4, 567360, Note_on_c, 0, 74, 73
4, 567360, Note_on_c, 0, 78, 73
4, 567840, Note_on_c, 0, 78, 0
4, 567840, Note_on_c, 0, 74, 0
4, 567840, Note_on_c, 0, 66, 0
4, 567840, Note_on_c, 0, 67, 73
4, 567840, Note_on_c, 0, 74, 73
4, 567840, Note_on_c, 0, 79, 73
4, 568320, Note_on_c, 0, 79, 0
4, 568320, Note_on_c, 0, 74, 0
4, 568320, Note_on_c, 0, 67, 0
4, 568320, Note_on_c, 0, 62, 73
4, 568320, Note_on_c, 0, 67, 73
4, 568320, Note_on_c, 0, 74, 73
4, 568800, Note_on_c, 0, 74, 0
4, 568800, Note_on_c, 0, 67, 0
4, 568800, Note_on_c, 0, 62, 0
4, 568800, Note_on_c, 0, 67, 73
4, 568800, Note_on_c, 0, 79, 73
4, 569280, Note_on_c, 0, 79, 0
4, 569280, Note_on_c, 0, 67, 0
4, 569280, Note_on_c, 0, 69, 73
4, 569280, Note_on_c, 0, 79, 73
4, 569280, Note_on_c, 0, 81, 73
4, 569760, Note_on_c, 0, 81, 0
4, 569760, Note_on_c, 0, 69, 0
4, 569760, Note_on_c, 0, 71, 73
4, 569760, Note_on_c, 0, 83, 73
4, 570240, Note_on_c, 0, 83, 0
4, 570240, Note_on_c, 0, 71, 0
4, 570240, Note_on_c, 0, 79, 0
4, 570240, Note_on_c, 0, 67, 73
4, 570240, Note_on_c, 0, 79, 73
4, 570720, Note_on_c, 0, 79, 0
4, 570720, Note_on_c, 0, 67, 0
4, 570720, Note_on_c, 0, 69, 73
4, 570720, Note_on_c, 0, 79, 73
4, 570720, Note_on_c, 0, 81, 73
4, 571200, Note_on_c, 0, 81, 0
4, 571200, Note_on_c, 0, 79, 0
4, 571200, Note_on_c, 0, 69, 0
4, 571200, Note_on_c, 0, 71, 86
4, 571200, Note_on_c, 0, 77, 86
4, 571200, Note_on_c, 0, 79, 86
4, 571200, Note_on_c, 0, 83, 86
4, 571680, Note_on_c, 0, 83, 0
4, 571680, Note_on_c, 0, 71, 0
4, 571680, Note_on_c, 0, 77, 0
4, 571680, Note_on_c, 0, 79, 0
4, 571680, Note_on_c, 0, 72, 86
4, 571680, Note_on_c, 0, 75, 86
4, 571680, Note_on_c, 0, 79, 86
4, 571680, Note_on_c, 0, 84, 86
4, 572160, Note_on_c, 0, 84, 0
4, 572160, Note_on_c, 0, 72, 0
4, 572160, Note_on_c, 0, 75, 0
4, 572160, Note_on_c, 0, 79, 0
4, 572160, Note_on_c, 0, 74, 86
4, 572160, Note_on_c, 0, 79, 86
4, 572160, Note_on_c, 0, 86, 86
4, 572640, Note_on_c, 0, 86, 0
4, 572640, Note_on_c, 0, 79, 0
4, 572640, Note_on_c, 0, 74, 0
4, 572640, Note_on_c, 0, 67, 86
4, 572640, Note_on_c, 0, 79, 86
4, 573120, Note_on_c, 0, 79, 0
4, 573120, Note_on_c, 0, 67, 0
4, 573120, Note_on_c, 0, 69, 86
4, 573120, Note_on_c, 0, 79, 86
4, 573120, Note_on_c, 0, 81, 86
4, 573600, Note_on_c, 0, 81, 0
4, 573600, Note_on_c, 0, 69, 0
4, 573600, Note_on_c, 0, 71, 86
4, 573600, Note_on_c, 0, 83, 86
4, 574080, Note_on_c, 0, 83, 0
4, 574080, Note_on_c, 0, 71, 0
4, 574080, Note_on_c, 0, 79, 0
4, 574080, Note_on_c, 0, 67, 86
4, 574080, Note_on_c, 0, 79, 86
4, 574560, Note_on_c, 0, 79, 0
4, 574560, Note_on_c, 0, 67, 0
4, 574560, Note_on_c, 0, 69, 86
4, 574560, Note_on_c, 0, 79, 86
4, 574560, Note_on_c, 0, 81, 86
4, 575040, Note_on_c, 0, 81, 0
4, 575040, Note_on_c, 0, 79, 0
4, 575040, Note_on_c, 0, 69, 0
4, 575040, Note_on_c, 0, 71, 86
4, 575040, Note_on_c, 0, 77, 86
4, 575040, Note_on_c, 0, 79, 86
4, 575040, Note_on_c, 0, 83, 86
4, 575520, Note_on_c, 0, 83, 0
4, 575520, Note_on_c, 0, 71, 0
4, 575520, Note_on_c, 0, 77, 0
4, 575520, Note_on_c, 0, 79, 0
4, 575520, Note_on_c, 0, 72, 86
4, 575520, Note_on_c, 0, 75, 86
4, 575520, Note_on_c, 0, 79, 86
4, 575520, Note_on_c, 0, 84, 86
4, 576000, Note_on_c, 0, 84, 0
4, 576000, Note_on_c, 0, 72, 0
4, 576000, Note_on_c, 0, 75, 0
4, 576000, Note_on_c, 0, 79, 0
4, 576000, Note_on_c, 0, 74, 86
4, 576000, Note_on_c, 0, 79, 86
4, 576000, Note_on_c, 0, 86, 86
4, 576480, Note_on_c, 0, 86, 0
4, 576480, Note_on_c, 0, 79, 0
4, 576480, Note_on_c, 0, 74, 0
4, 576480, Note_on_c, 0, 72, 86
4, 576480, Note_on_c, 0, 84, 86
4, 576960, Note_on_c, 0, 84, 0
4, 576960, Note_on_c, 0, 72, 0
4, 576960, Note_on_c, 0, 74, 86
4, 576960, Note_on_c, 0, 84, 86
4, 576960, Note_on_c, 0, 86, 86
4, 577440, Note_on_c, 0, 86, 0
4, 577440, Note_on_c, 0, 74, 0
4, 577440, Note_on_c, 0, 76, 86
4, 577440, Note_on_c, 0, 88, 86
4, 577920, Note_on_c, 0, 88, 0
4, 577920, Note_on_c, 0, 76, 0
4, 577920, Note_on_c, 0, 84, 0
4, 577920, Note_on_c, 0, 72, 86
4, 577920, Note_on_c, 0, 84, 86
4, 578400, Note_on_c, 0, 84, 0
4, 578400, Note_on_c, 0, 72, 0
4, 578400, Note_on_c, 0, 74, 86
4, 578400, Note_on_c, 0, 84, 86
4, 578400, Note_on_c, 0, 86, 86
4, 578880, Note_on_c, 0, 86, 0
4, 578880, Note_on_c, 0, 84, 0
4, 578880, Note_on_c, 0, 74, 0
4, 578880, Note_on_c, 0, 76, 86
4, 578880, Note_on_c, 0, 82, 86
4, 578880, Note_on_c, 0, 84, 86
4, 578880, Note_on_c, 0, 88, 86
4, 579360, Note_on_c, 0, 88, 0
4, 579360, Note_on_c, 0, 76, 0
4, 579360, Note_on_c, 0, 82, 0
4, 579360, Note_on_c, 0, 84, 0
4, 579360, Note_on_c, 0, 77, 86
4, 579360, Note_on_c, 0, 80, 86
4, 579360, Note_on_c, 0, 84, 86
4, 579360, Note_on_c, 0, 89, 86
4, 579840, Note_on_c, 0, 89, 0
4, 579840, Note_on_c, 0, 77, 0
4, 579840, Note_on_c, 0, 80, 0
4, 579840, Note_on_c, 0, 84, 0
4, 579840, Note_on_c, 0, 79, 86
4, 579840, Note_on_c, 0, 84, 86
4, 579840, Note_on_c, 0, 91, 86
4, 580320, Note_on_c, 0, 91, 0
4, 580320, Note_on_c, 0, 84, 0
4, 580320, Note_on_c, 0, 79, 0
4, 580320, Note_on_c, 0, 72, 86
4, 580320, Note_on_c, 0, 84, 86
4, 580800, Note_on_c, 0, 84, 0
4, 580800, Note_on_c, 0, 72, 0
4, 580800, Note_on_c, 0, 74, 86
4, 580800, Note_on_c, 0, 84, 86
4, 580800, Note_on_c, 0, 86, 86
4, 581280, Note_on_c, 0, 86, 0
4, 581280, Note_on_c, 0, 74, 0
4, 581280, Note_on_c, 0, 76, 86
4, 581280, Note_on_c, 0, 88, 86
4, 581760, Note_on_c, 0, 88, 0
4, 581760, Note_on_c, 0, 76, 0
4, 581760, Note_on_c, 0, 84, 0
4, 581760, Note_on_c, 0, 72, 86
4, 581760, Note_on_c, 0, 84, 86
4, 582240, Note_on_c, 0, 84, 0
4, 582240, Note_on_c, 0, 72, 0
4, 582240, Note_on_c, 0, 74, 86
4, 582240, Note_on_c, 0, 84, 86
4, 582240, Note_on_c, 0, 86, 86
4, 582720, Note_on_c, 0, 86, 0
4, 582720, Note_on_c, 0, 84, 0
4, 582720, Note_on_c, 0, 74, 0
4, 582720, Note_on_c, 0, 76, 86
4, 582720, Note_on_c, 0, 82, 86
4, 582720, Note_on_c, 0, 84, 86
4, 582720, Note_on_c, 0, 88, 86
4, 583200, Note_on_c, 0, 88, 0
4, 583200, Note_on_c, 0, 76, 0
4, 583200, Note_on_c, 0, 82, 0
4, 583200, Note_on_c, 0, 84, 0
4, 583200, Note_on_c, 0, 77, 86
4, 583200, Note_on_c, 0, 80, 86
4, 583200, Note_on_c, 0, 84, 86
4, 583200, Note_on_c, 0, 89, 86
4, 583680, Note_on_c, 0, 89, 0
4, 583680, Note_on_c, 0, 77, 0
4, 583680, Note_on_c, 0, 80, 0
4, 583680, Note_on_c, 0, 84, 0
4, 583680, Note_on_c, 0, 79, 86
4, 583680, Note_on_c, 0, 84, 86
4, 583680, Note_on_c, 0, 91, 86
4, 584160, Note_on_c, 0, 91, 0
4, 584160, Note_on_c, 0, 84, 0
4, 584160, Note_on_c, 0, 79, 0
4, 584160, Note_on_c, 0, 72, 86
4, 584160, Note_on_c, 0, 80, 86
4, 584160, Note_on_c, 0, 84, 86
4, 584640, Note_on_c, 0, 84, 0
4, 584640, Note_on_c, 0, 80, 0
4, 584640, Note_on_c, 0, 72, 0
4, 584640, Note_on_c, 0, 74, 86
4, 584640, Note_on_c, 0, 80, 86
4, 584640, Note_on_c, 0, 84, 86
4, 584640, Note_on_c, 0, 86, 86
4, 585120, Note_on_c, 0, 86, 0
4, 585120, Note_on_c, 0, 74, 0
4, 585120, Note_on_c, 0, 80, 0
4, 585120, Note_on_c, 0, 84, 0
4, 585120, Note_on_c, 0, 76, 86
4, 585120, Note_on_c, 0, 80, 86
4, 585120, Note_on_c, 0, 84, 86
4, 585120, Note_on_c, 0, 88, 86
4, 585600, Note_on_c, 0, 88, 0
4, 585600, Note_on_c, 0, 76, 0
4, 585600, Note_on_c, 0, 80, 0
4, 585600, Note_on_c, 0, 84, 0
4, 585600, Note_on_c, 0, 72, 86
4, 585600, Note_on_c, 0, 80, 86
4, 585600, Note_on_c, 0, 84, 86
4, 586080, Note_on_c, 0, 84, 0
4, 586080, Note_on_c, 0, 80, 0
4, 586080, Note_on_c, 0, 72, 0
4, 586080, Note_on_c, 0, 74, 86
4, 586080, Note_on_c, 0, 80, 86
4, 586080, Note_on_c, 0, 84, 86
4, 586080, Note_on_c, 0, 86, 86
4, 586560, Note_on_c, 0, 86, 0
4, 586560, Note_on_c, 0, 74, 0
4, 586560, Note_on_c, 0, 80, 0
4, 586560, Note_on_c, 0, 84, 0
4, 586560, Note_on_c, 0, 76, 86
4, 586560, Note_on_c, 0, 80, 86
4, 586560, Note_on_c, 0, 84, 86
4, 586560, Note_on_c, 0, 88, 86
4, 587040, Note_on_c, 0, 88, 0
4, 587040, Note_on_c, 0, 76, 0
4, 587040, Note_on_c, 0, 80, 0
4, 587040, Note_on_c, 0, 84, 0
4, 587040, Note_on_c, 0, 77, 86
4, 587040, Note_on_c, 0, 80, 86
4, 587040, Note_on_c, 0, 84, 86
4, 587040, Note_on_c, 0, 89, 86
4, 587520, Note_on_c, 0, 89, 0
4, 587520, Note_on_c, 0, 77, 0
4, 587520, Note_on_c, 0, 80, 0
4, 587520, Note_on_c, 0, 84, 0
4, 587520, Note_on_c, 0, 71, 86
4, 587520, Note_on_c, 0, 77, 86
4, 587520, Note_on_c, 0, 80, 86
4, 587520, Note_on_c, 0, 83, 86
4, 587840, Note_on_c, 0, 83, 0
4, 587840, Note_on_c, 0, 71, 0
4, 587840, Note_on_c, 0, 77, 0
4, 587840, Note_on_c, 0, 80, 0
4, 587840, Note_on_c, 0, 77, 86
4, 587840, Note_on_c, 0, 89, 86
4, 588159, Note_on_c, 0, 89, 0
4, 588159, Note_on_c, 0, 77, 0
4, 588159, Note_on_c, 0, 79, 86
4, 588159, Note_on_c, 0, 91, 86
4, 588480, Note_on_c, 0, 91, 0
4, 588480, Note_on_c, 0, 79, 0
4, 588480, Note_on_c, 0, 80, 86
4, 588480, Note_on_c, 0, 92, 86
4, 588800, Note_on_c, 0, 92, 0
4, 588800, Note_on_c, 0, 80, 0
4, 588800, Note_on_c, 0, 74, 86
4, 588800, Note_on_c, 0, 86, 86
4, 589119, Note_on_c, 0, 86, 0
4, 589119, Note_on_c, 0, 74, 0
4, 589119, Note_on_c, 0, 76, 86
4, 589119, Note_on_c, 0, 88, 86
4, 589440, Note_on_c, 0, 88, 0
4, 589440, Note_on_c, 0, 76, 0
4, 589440, Note_on_c, 0, 77, 86
4, 589440, Note_on_c, 0, 89, 86
4, 589760, Note_on_c, 0, 89, 0
4, 589760, Note_on_c, 0, 77, 0
4, 589760, Note_on_c, 0, 77, 86
4, 589760, Note_on_c, 0, 89, 86
4, 590079, Note_on_c, 0, 89, 0
4, 590079, Note_on_c, 0, 77, 0
4, 590079, Note_on_c, 0, 79, 86
4, 590079, Note_on_c, 0, 91, 86
4, 590400, Note_on_c, 0, 91, 0
4, 590400, Note_on_c, 0, 79, 0
4, 590400, Note_on_c, 0, 80, 86
4, 590400, Note_on_c, 0, 92, 86
4, 590720, Note_on_c, 0, 92, 0
4, 590720, Note_on_c, 0, 80, 0
4, 590720, Note_on_c, 0, 74, 86
4, 590720, Note_on_c, 0, 86, 86
4, 591039, Note_on_c, 0, 86, 0
4, 591039, Note_on_c, 0, 74, 0
4, 591039, Note_on_c, 0, 76, 86
4, 591039, Note_on_c, 0, 88, 86
4, 591360, Note_on_c, 0, 88, 0
4, 591360, Note_on_c, 0, 76, 0
4, 591360, Note_on_c, 0, 77, 86
4, 591360, Note_on_c, 0, 89, 86
4, 591840, Note_on_c, 0, 89, 0
4, 591840, Note_on_c, 0, 77, 0
4, 591840, Note_on_c, 0, 72, 86
4, 591840, Note_on_c, 0, 80, 86
4, 591840, Note_on_c, 0, 84, 86
4, 592320, Note_on_c, 0, 84, 0
4, 592320, Note_on_c, 0, 80, 0
4, 592320, Note_on_c, 0, 72, 0
4, 592320, Note_on_c, 0, 74, 86
4, 592320, Note_on_c, 0, 80, 86
4, 592320, Note_on_c, 0, 84, 86
4, 592320, Note_on_c, 0, 86, 86
4, 592800, Note_on_c, 0, 86, 0
4, 592800, Note_on_c, 0, 74, 0
4, 592800, Note_on_c, 0, 80, 0
4, 592800, Note_on_c, 0, 84, 0
4, 592800, Note_on_c, 0, 76, 86
4, 592800, Note_on_c, 0, 80, 86
4, 592800, Note_on_c, 0, 84, 86
4, 592800, Note_on_c, 0, 88, 86
4, 593280, Note_on_c, 0, 88, 0
4, 593280, Note_on_c, 0, 76, 0
4, 593280, Note_on_c, 0, 80, 0
4, 593280, Note_on_c, 0, 84, 0
4, 593280, Note_on_c, 0, 72, 86
4, 593280, Note_on_c, 0, 80, 86
4, 593280, Note_on_c, 0, 84, 86
4, 593760, Note_on_c, 0, 84, 0
4, 593760, Note_on_c, 0, 80, 0
4, 593760, Note_on_c, 0, 72, 0
4, 593760, Note_on_c, 0, 74, 86
4, 593760, Note_on_c, 0, 80, 86
4, 593760, Note_on_c, 0, 84, 86
4, 593760, Note_on_c, 0, 86, 86
4, 594240, Note_on_c, 0, 86, 0
4, 594240, Note_on_c, 0, 74, 0
4, 594240, Note_on_c, 0, 80, 0
4, 594240, Note_on_c, 0, 84, 0
4, 594240, Note_on_c, 0, 76, 86
4, 594240, Note_on_c, 0, 80, 86
4, 594240, Note_on_c, 0, 84, 86
4, 594240, Note_on_c, 0, 88, 86
4, 594720, Note_on_c, 0, 88, 0
4, 594720, Note_on_c, 0, 76, 0
4, 594720, Note_on_c, 0, 80, 0
4, 594720, Note_on_c, 0, 84, 0
4, 594720, Note_on_c, 0, 77, 86
4, 594720, Note_on_c, 0, 80, 86
4, 594720, Note_on_c, 0, 84, 86
4, 594720, Note_on_c, 0, 89, 86
4, 595200, Note_on_c, 0, 89, 0
4, 595200, Note_on_c, 0, 77, 0
4, 595200, Note_on_c, 0, 80, 0
4, 595200, Note_on_c, 0, 84, 0
4, 595200, Note_on_c, 0, 71, 86
4, 595200, Note_on_c, 0, 77, 86
4, 595200, Note_on_c, 0, 80, 86
4, 595200, Note_on_c, 0, 83, 86
4, 595520, Note_on_c, 0, 83, 0
4, 595520, Note_on_c, 0, 71, 0
4, 595520, Note_on_c, 0, 77, 0
4, 595520, Note_on_c, 0, 80, 0
4, 595520, Note_on_c, 0, 77, 86
4, 595520, Note_on_c, 0, 89, 86
4, 595839, Note_on_c, 0, 89, 0
4, 595839, Note_on_c, 0, 77, 0
4, 595839, Note_on_c, 0, 79, 86
4, 595839, Note_on_c, 0, 91, 86
4, 596160, Note_on_c, 0, 91, 0
4, 596160, Note_on_c, 0, 79, 0
4, 596160, Note_on_c, 0, 80, 86
4, 596160, Note_on_c, 0, 92, 86
4, 596480, Note_on_c, 0, 92, 0
4, 596480, Note_on_c, 0, 80, 0
4, 596480, Note_on_c, 0, 74, 86
4, 596480, Note_on_c, 0, 86, 86
4, 596799, Note_on_c, 0, 86, 0
4, 596799, Note_on_c, 0, 74, 0
4, 596799, Note_on_c, 0, 76, 86
4, 596799, Note_on_c, 0, 88, 86
4, 597120, Note_on_c, 0, 88, 0
4, 597120, Note_on_c, 0, 76, 0
4, 597120, Note_on_c, 0, 77, 86
4, 597120, Note_on_c, 0, 89, 86
4, 597440, Note_on_c, 0, 89, 0
4, 597440, Note_on_c, 0, 77, 0
4, 597440, Note_on_c, 0, 77, 86
4, 597440, Note_on_c, 0, 89, 86
4, 597759, Note_on_c, 0, 89, 0
4, 597759, Note_on_c, 0, 77, 0
4, 597759, Note_on_c, 0, 79, 86
4, 597759, Note_on_c, 0, 91, 86
4, 598080, Note_on_c, 0, 91, 0
4, 598080, Note_on_c, 0, 79, 0
4, 598080, Note_on_c, 0, 80, 86
4, 598080, Note_on_c, 0, 92, 86
4, 598400, Note_on_c, 0, 92, 0
4, 598400, Note_on_c, 0, 80, 0
4, 598400, Note_on_c, 0, 74, 86
4, 598400, Note_on_c, 0, 86, 86
4, 598719, Note_on_c, 0, 86, 0
4, 598719, Note_on_c, 0, 74, 0
4, 598719, Note_on_c, 0, 76, 86
4, 598719, Note_on_c, 0, 88, 86
4, 599040, Note_on_c, 0, 88, 0
4, 599040, Note_on_c, 0, 76, 0
4, 599040, Note_on_c, 0, 77, 86
4, 599040, Note_on_c, 0, 89, 86
4, 599360, Note_on_c, 0, 89, 0
4, 599360, Note_on_c, 0, 77, 0
4, 599360, Note_on_c, 0, 77, 86
4, 599360, Note_on_c, 0, 89, 86
4, 599679, Note_on_c, 0, 89, 0
4, 599679, Note_on_c, 0, 77, 0
4, 599679, Note_on_c, 0, 79, 86
4, 599679, Note_on_c, 0, 91, 86
4, 600000, Note_on_c, 0, 91, 0
4, 600000, Note_on_c, 0, 79, 0
4, 600000, Note_on_c, 0, 80, 86
4, 600000, Note_on_c, 0, 92, 86
4, 600320, Note_on_c, 0, 92, 0
4, 600320, Note_on_c, 0, 80, 0
4, 600320, Note_on_c, 0, 74, 86
4, 600320, Note_on_c, 0, 86, 86
4, 600639, Note_on_c, 0, 86, 0
4, 600639, Note_on_c, 0, 74, 0
4, 600639, Note_on_c, 0, 76, 86
4, 600639, Note_on_c, 0, 88, 86
4, 600960, Note_on_c, 0, 88, 0
4, 600960, Note_on_c, 0, 76, 0
4, 600960, Note_on_c, 0, 77, 86
4, 600960, Note_on_c, 0, 89, 86
4, 601280, Note_on_c, 0, 89, 0
4, 601280, Note_on_c, 0, 77, 0
4, 601280, Note_on_c, 0, 77, 86
4, 601280, Note_on_c, 0, 89, 86
4, 601599, Note_on_c, 0, 89, 0
4, 601599, Note_on_c, 0, 77, 0
4, 601599, Note_on_c, 0, 79, 86
4, 601599, Note_on_c, 0, 91, 86
4, 601920, Note_on_c, 0, 91, 0
4, 601920, Note_on_c, 0, 79, 0
4, 601920, Note_on_c, 0, 80, 86
4, 601920, Note_on_c, 0, 92, 86
4, 602240, Note_on_c, 0, 92, 0
4, 602240, Note_on_c, 0, 80, 0
4, 602240, Note_on_c, 0, 74, 86
4, 602240, Note_on_c, 0, 86, 86
4, 602559, Note_on_c, 0, 86, 0
4, 602559, Note_on_c, 0, 74, 0
4, 602559, Note_on_c, 0, 76, 86
4, 602559, Note_on_c, 0, 88, 86
4, 602880, Note_on_c, 0, 88, 0
4, 602880, Note_on_c, 0, 76, 0
4, 602880, Note_on_c, 0, 77, 86
4, 602880, Note_on_c, 0, 89, 86
4, 603200, Note_on_c, 0, 89, 0
4, 603200, Note_on_c, 0, 77, 0
4, 603200, Note_on_c, 0, 77, 86
4, 603200, Note_on_c, 0, 89, 86
4, 603519, Note_on_c, 0, 89, 0
4, 603519, Note_on_c, 0, 77, 0
4, 603519, Note_on_c, 0, 79, 86
4, 603519, Note_on_c, 0, 91, 86
4, 603840, Note_on_c, 0, 91, 0
4, 603840, Note_on_c, 0, 79, 0
4, 603840, Note_on_c, 0, 81, 86
4, 603840, Note_on_c, 0, 93, 86
4, 604160, Note_on_c, 0, 93, 0
4, 604160, Note_on_c, 0, 81, 0
4, 604160, Note_on_c, 0, 74, 86
4, 604160, Note_on_c, 0, 86, 86
4, 604479, Note_on_c, 0, 86, 0
4, 604479, Note_on_c, 0, 74, 0
4, 604479, Note_on_c, 0, 76, 86
4, 604479, Note_on_c, 0, 88, 86
4, 604800, Note_on_c, 0, 88, 0
4, 604800, Note_on_c, 0, 76, 0
4, 604800, Note_on_c, 0, 77, 86
4, 604800, Note_on_c, 0, 89, 86
4, 605120, Note_on_c, 0, 89, 0
4, 605120, Note_on_c, 0, 77, 0
4, 605120, Note_on_c, 0, 77, 86
4, 605120, Note_on_c, 0, 89, 86
4, 605439, Note_on_c, 0, 89, 0
4, 605439, Note_on_c, 0, 77, 0
4, 605439, Note_on_c, 0, 79, 86
4, 605439, Note_on_c, 0, 91, 86
4, 605760, Note_on_c, 0, 91, 0
4, 605760, Note_on_c, 0, 79, 0
4, 605760, Note_on_c, 0, 81, 86
4, 605760, Note_on_c, 0, 93, 86
4, 606080, Note_on_c, 0, 93, 0
4, 606080, Note_on_c, 0, 81, 0
4, 606080, Note_on_c, 0, 74, 86
4, 606080, Note_on_c, 0, 86, 86
4, 606399, Note_on_c, 0, 86, 0
4, 606399, Note_on_c, 0, 74, 0
4, 606399, Note_on_c, 0, 76, 86
4, 606399, Note_on_c, 0, 88, 86
4, 606720, Note_on_c, 0, 88, 0
4, 606720, Note_on_c, 0, 76, 0
4, 606720, Note_on_c, 0, 77, 86
4, 606720, Note_on_c, 0, 89, 86
4, 607040, Note_on_c, 0, 89, 0
4, 607040, Note_on_c, 0, 77, 0
4, 607040, Note_on_c, 0, 77, 86
4, 607040, Note_on_c, 0, 89, 86
4, 607359, Note_on_c, 0, 89, 0
4, 607359, Note_on_c, 0, 77, 0
4, 607359, Note_on_c, 0, 79, 86
4, 607359, Note_on_c, 0, 91, 86
4, 607680, Note_on_c, 0, 91, 0
4, 607680, Note_on_c, 0, 79, 0
4, 607680, Note_on_c, 0, 81, 86
4, 607680, Note_on_c, 0, 93, 86
4, 607920, Note_on_c, 0, 93, 0
4, 607920, Note_on_c, 0, 81, 0
4, 607920, Note_on_c, 0, 79, 86
4, 607920, Note_on_c, 0, 91, 86
4, 608160, Note_on_c, 0, 91, 0
4, 608160, Note_on_c, 0, 79, 0
4, 608160, Note_on_c, 0, 77, 86
4, 608160, Note_on_c, 0, 89, 86
4, 608400, Note_on_c, 0, 89, 0
4, 608400, Note_on_c, 0, 77, 0
4, 608400, Note_on_c, 0, 76, 86
4, 608400, Note_on_c, 0, 88, 86
4, 608640, Note_on_c, 0, 88, 0
4, 608640, Note_on_c, 0, 76, 0
4, 608640, Note_on_c, 0, 77, 86
4, 608640, Note_on_c, 0, 89, 86
4, 608880, Note_on_c, 0, 89, 0
4, 608880, Note_on_c, 0, 77, 0
4, 608880, Note_on_c, 0, 76, 86
4, 608880, Note_on_c, 0, 88, 86
4, 609120, Note_on_c, 0, 88, 0
4, 609120, Note_on_c, 0, 76, 0
4, 609120, Note_on_c, 0, 74, 86
4, 609120, Note_on_c, 0, 86, 86
4, 609360, Note_on_c, 0, 86, 0
4, 609360, Note_on_c, 0, 74, 0
4, 609360, Note_on_c, 0, 73, 86
4, 609360, Note_on_c, 0, 85, 86
4, 609600, Note_on_c, 0, 85, 0
4, 609600, Note_on_c, 0, 73, 0
4, 609600, Note_on_c, 0, 74, 86
4, 609600, Note_on_c, 0, 86, 86
4, 609840, Note_on_c, 0, 86, 0
4, 609840, Note_on_c, 0, 74, 0
4, 609840, Note_on_c, 0, 72, 86
4, 609840, Note_on_c, 0, 84, 86
4, 610080, Note_on_c, 0, 84, 0
4, 610080, Note_on_c, 0, 72, 0
4, 610080, Note_on_c, 0, 70, 86
4, 610080, Note_on_c, 0, 82, 86
4, 610320, Note_on_c, 0, 82, 0
4, 610320, Note_on_c, 0, 70, 0
4, 610320, Note_on_c, 0, 69, 86
4, 610320, Note_on_c, 0, 81, 86
4, 610560, Note_on_c, 0, 81, 0
4, 610560, Note_on_c, 0, 69, 0
4, 610560, Note_on_c, 0, 77, 86
4, 610560, Note_on_c, 0, 89, 86
4, 610800, Note_on_c, 0, 89, 0
4, 610800, Note_on_c, 0, 77, 0
4, 610800, Note_on_c, 0, 76, 86
4, 610800, Note_on_c, 0, 88, 86
4, 611040, Note_on_c, 0, 88, 0
4, 611040, Note_on_c, 0, 76, 0
4, 611040, Note_on_c, 0, 74, 86
4, 611040, Note_on_c, 0, 86, 86
4, 611280, Note_on_c, 0, 86, 0
4, 611280, Note_on_c, 0, 74, 0
4, 611280, Note_on_c, 0, 73, 86
4, 611280, Note_on_c, 0, 85, 86
4, 611520, Note_on_c, 0, 85, 0
4, 611520, Note_on_c, 0, 73, 0
4, 611520, Note_on_c, 0, 74, 86
4, 611520, Note_on_c, 0, 86, 86
4, 611760, Note_on_c, 0, 86, 0
4, 611760, Note_on_c, 0, 74, 0
4, 611760, Note_on_c, 0, 72, 86
4, 611760, Note_on_c, 0, 84, 86
4, 612000, Note_on_c, 0, 84, 0
4, 612000, Note_on_c, 0, 72, 0
4, 612000, Note_on_c, 0, 70, 86
4, 612000, Note_on_c, 0, 82, 86
4, 612240, Note_on_c, 0, 82, 0
4, 612240, Note_on_c, 0, 70, 0
4, 612240, Note_on_c, 0, 69, 86
4, 612240, Note_on_c, 0, 81, 86
4, 612480, Note_on_c, 0, 81, 0
4, 612480, Note_on_c, 0, 69, 0
4, 612480, Note_on_c, 0, 70, 86
4, 612480, Note_on_c, 0, 82, 86
4, 612720, Note_on_c, 0, 82, 0
4, 612720, Note_on_c, 0, 70, 0
4, 612720, Note_on_c, 0, 68, 86
4, 612720, Note_on_c, 0, 80, 86
4, 612960, Note_on_c, 0, 80, 0
4, 612960, Note_on_c, 0, 68, 0
4, 612960, Note_on_c, 0, 67, 86
4, 612960, Note_on_c, 0, 79, 86
4, 613200, Note_on_c, 0, 79, 0
4, 613200, Note_on_c, 0, 67, 0
4, 613200, Note_on_c, 0, 65, 86
4, 613200, Note_on_c, 0, 77, 86
4, 613440, Note_on_c, 0, 77, 0
4, 613440, Note_on_c, 0, 65, 0
4, 613440, Note_on_c, 0, 67, 86
4, 613440, Note_on_c, 0, 79, 86
4, 613680, Note_on_c, 0, 79, 0
4, 613680, Note_on_c, 0, 67, 0
4, 613680, Note_on_c, 0, 65, 86
4, 613680, Note_on_c, 0, 77, 86
4, 613920, Note_on_c, 0, 77, 0
4, 613920, Note_on_c, 0, 65, 0
4, 613920, Note_on_c, 0, 63, 86
4, 613920, Note_on_c, 0, 75, 86
4, 614160, Note_on_c, 0, 75, 0
4, 614160, Note_on_c, 0, 63, 0
4, 614160, Note_on_c, 0, 62, 86
4, 614160, Note_on_c, 0, 74, 86
4, 614400, Note_on_c, 0, 74, 0
4, 614400, Note_on_c, 0, 62, 0
4, 614400, Note_on_c, 0, 63, 86
4, 614400, Note_on_c, 0, 75, 86
4, 614640, Note_on_c, 0, 75, 0
4, 614640, Note_on_c, 0, 63, 0
4, 614640, Note_on_c, 0, 62, 86
4, 614640, Note_on_c, 0, 74, 86
4, 614880, Note_on_c, 0, 74, 0
4, 614880, Note_on_c, 0, 62, 0
4, 614880, Note_on_c, 0, 60, 86
4, 614880, Note_on_c, 0, 72, 86
4, 615120, Note_on_c, 0, 72, 0
4, 615120, Note_on_c, 0, 60, 0
4, 615120, Note_on_c, 0, 58, 86
4, 615120, Note_on_c, 0, 70, 86
4, 615360, Note_on_c, 0, 70, 0
4, 615360, Note_on_c, 0, 58, 0
4, 615360, Note_on_c, 0, 67, 86
4, 615360, Note_on_c, 0, 79, 86
4, 615600, Note_on_c, 0, 79, 0
4, 615600, Note_on_c, 0, 67, 0
4, 615600, Note_on_c, 0, 65, 86
4, 615600, Note_on_c, 0, 77, 86
4, 615840, Note_on_c, 0, 77, 0
4, 615840, Note_on_c, 0, 65, 0
4, 615840, Note_on_c, 0, 63, 86
4, 615840, Note_on_c, 0, 75, 86
4, 616080, Note_on_c, 0, 75, 0
4, 616080, Note_on_c, 0, 63, 0
4, 616080, Note_on_c, 0, 62, 86
4, 616080, Note_on_c, 0, 74, 86
4, 616320, Note_on_c, 0, 74, 0
4, 616320, Note_on_c, 0, 62, 0
4, 616320, Note_on_c, 0, 63, 86
4, 616320, Note_on_c, 0, 75, 86
4, 616560, Note_on_c, 0, 75, 0
4, 616560, Note_on_c, 0, 63, 0
4, 616560, Note_on_c, 0, 62, 86
4, 616560, Note_on_c, 0, 74, 86
4, 616800, Note_on_c, 0, 74, 0
4, 616800, Note_on_c, 0, 62, 0
4, 616800, Note_on_c, 0, 60, 86
4, 616800, Note_on_c, 0, 72, 86
4, 617040, Note_on_c, 0, 72, 0
4, 617040, Note_on_c, 0, 60, 0
4, 617040, Note_on_c, 0, 58, 86
4, 617040, Note_on_c, 0, 70, 86
4, 617280, Note_on_c, 0, 70, 0
4, 617280, Note_on_c, 0, 58, 0
4, 617280, Note_on_c, 0, 67, 86
4, 617280, Note_on_c, 0, 79, 86
4, 617520, Note_on_c, 0, 79, 0
4, 617520, Note_on_c, 0, 67, 0
4, 617520, Note_on_c, 0, 65, 86
4, 617520, Note_on_c, 0, 77, 86
4, 617760, Note_on_c, 0, 77, 0
4, 617760, Note_on_c, 0, 65, 0
4, 617760, Note_on_c, 0, 63, 86
4, 617760, Note_on_c, 0, 75, 86
4, 618000, Note_on_c, 0, 75, 0
4, 618000, Note_on_c, 0, 63, 0
4, 618000, Note_on_c, 0, 62, 86
4, 618000, Note_on_c, 0, 74, 86
4, 618240, Note_on_c, 0, 74, 0
4, 618240, Note_on_c, 0, 62, 0
4, 618240, Note_on_c, 0, 63, 86
4, 618240, Note_on_c, 0, 75, 86
4, 618480, Note_on_c, 0, 75, 0
4, 618480, Note_on_c, 0, 63, 0
4, 618480, Note_on_c, 0, 62, 86
4, 618480, Note_on_c, 0, 74, 86
4, 618720, Note_on_c, 0, 74, 0
4, 618720, Note_on_c, 0, 62, 0
4, 618720, Note_on_c, 0, 60, 86
4, 618720, Note_on_c, 0, 72, 86
4, 618960, Note_on_c, 0, 72, 0
4, 618960, Note_on_c, 0, 60, 0
4, 618960, Note_on_c, 0, 58, 86
4, 618960, Note_on_c, 0, 70, 86
4, 619200, Note_on_c, 0, 70, 0
4, 619200, Note_on_c, 0, 58, 0
4, 619200, Control_c, 0, 64, 127
4, 619200, Note_on_c, 0, 63, 86
4, 619200, Note_on_c, 0, 70, 86
4, 619200, Note_on_c, 0, 75, 86
4, 619680, Note_on_c, 0, 75, 0
4, 619680, Note_on_c, 0, 70, 0
4, 619680, Note_on_c, 0, 63, 0
4, 620160, Control_c, 0, 64, 0
4, 693120, Note_on_c, 0, 75, 73
4, 693120, Note_on_c, 0, 79, 73
4, 693120, Note_on_c, 0, 82, 73
4, 693120, Note_on_c, 0, 87, 73
4, 693440, Note_on_c, 0, 87, 0
4, 693440, Note_on_c, 0, 75, 0
4, 693440, Note_on_c, 0, 79, 0
4, 693440, Note_on_c, 0, 82, 0
4, 693440, Note_on_c, 0, 73, 73
4, 693440, Note_on_c, 0, 85, 73
4, 693759, Note_on_c, 0, 85, 0
4, 693759, Note_on_c, 0, 73, 0
4, 693759, Note_on_c, 0, 74, 73
4, 693759, Note_on_c, 0, 86, 73
4, 694080, Note_on_c, 0, 86, 0
4, 694080, Note_on_c, 0, 74, 0
4, 695040, Note_on_c, 0, 75, 73
4, 695040, Note_on_c, 0, 79, 73
4, 695040, Note_on_c, 0, 82, 73
4, 695040, Note_on_c, 0, 87, 73
4, 695360, Note_on_c, 0, 87, 0
4, 695360, Note_on_c, 0, 75, 0
4, 695360, Note_on_c, 0, 79, 0
4, 695360, Note_on_c, 0, 82, 0
4, 695360, Note_on_c, 0, 73, 73
4, 695360, Note_on_c, 0, 85, 73
4, 695679, Note_on_c, 0, 85, 0
4, 695679, Note_on_c, 0, 73, 0
4, 695679, Note_on_c, 0, 74, 73
4, 695679, Note_on_c, 0, 86, 73
4, 696000, Note_on_c, 0, 86, 0
4, 696000, Note_on_c, 0, 74, 0
4, 696960, Note_on_c, 0, 76, 73
4, 696960, Note_on_c, 0, 79, 73
4, 696960, Note_on_c, 0, 82, 73
4, 696960, Note_on_c, 0, 88, 73
4, 697280, Note_on_c, 0, 88, 0
4, 697280, Note_on_c, 0, 76, 0
4, 697280, Note_on_c, 0, 79, 0
4, 697280, Note_on_c, 0, 82, 0
4, 697280, Note_on_c, 0, 74, 73
4, 697280, Note_on_c, 0, 86, 73
4, 697599, Note_on_c, 0, 86, 0
4, 697599, Note_on_c, 0, 74, 0
4, 697599, Note_on_c, 0, 75, 73
4, 697599, Note_on_c, 0, 87, 73
4, 697920, Note_on_c, 0, 87, 0
4, 697920, Note_on_c, 0, 75, 0
4, 698880, Note_on_c, 0, 76, 73
4, 698880, Note_on_c, 0, 79, 73
4, 698880, Note_on_c, 0, 82, 73
4, 698880, Note_on_c, 0, 88, 73
4, 699200, Note_on_c, 0, 88, 0
4, 699200, Note_on_c, 0, 76, 0
4, 699200, Note_on_c, 0, 79, 0
4, 699200, Note_on_c, 0, 82, 0
4, 699200, Note_on_c, 0, 74, 73
4, 699200, Note_on_c, 0, 86, 73
4, 699519, Note_on_c, 0, 86, 0
4, 699519, Note_on_c, 0, 74, 0
4, 699519, Note_on_c, 0, 75, 73
4, 699519, Note_on_c, 0, 87, 73
4, 699840, Note_on_c, 0, 87, 0
4, 699840, Note_on_c, 0, 75, 0
4, 700479, Note_on_c, 0, 64, 60
4, 700479, Note_on_c, 0, 68, 60
4, 700479, Note_on_c, 0, 76, 60
4, 701439, Note_on_c, 0, 76, 0
4, 701439, Note_on_c, 0, 68, 0
4, 701439, Note_on_c, 0, 64, 0
4, 701439, Note_on_c, 0, 63, 60
4, 701439, Note_on_c, 0, 64, 60
4, 701439, Note_on_c, 0, 68, 60
4, 701439, Note_on_c, 0, 75, 60
4, 701760, Note_on_c, 0, 75, 0
4, 701760, Note_on_c, 0, 63, 0
4, 701760, Note_on_c, 0, 64, 0
4, 701760, Note_on_c, 0, 68, 0
4, 701760, Note_on_c, 0, 61, 60
4, 701760, Note_on_c, 0, 68, 60
4, 701760, Note_on_c, 0, 73, 60
4, 702720, Note_on_c, 0, 73, 0
4, 702720, Note_on_c, 0, 68, 0
4, 702720, Note_on_c, 0, 61, 0
4, 702720, Note_on_c, 0, 59, 60
4, 702720, Note_on_c, 0, 63, 60
4, 702720, Note_on_c, 0, 68, 60
4, 702720, Note_on_c, 0, 71, 60
4, 703200, Note_on_c, 0, 71, 0
4, 703200, Note_on_c, 0, 59, 0
4, 703200, Note_on_c, 0, 63, 0
4, 703200, Note_on_c, 0, 68, 0
4, 704000, Note_on_c, 0, 58, 60
4, 704000, Note_on_c, 0, 64, 60
4, 704000, Note_on_c, 0, 68, 60
4, 704000, Note_on_c, 0, 70, 60
4, 704319, Note_on_c, 0, 70, 0
4, 704319, Note_on_c, 0, 58, 0
4, 704319, Note_on_c, 0, 64, 0
4, 704319, Note_on_c, 0, 68, 0
4, 704319, Note_on_c, 0, 59, 60
4, 704319, Note_on_c, 0, 64, 60
4, 704319, Note_on_c, 0, 68, 60
4, 704319, Note_on_c, 0, 71, 60
4, 704640, Note_on_c, 0, 71, 0
4, 704640, Note_on_c, 0, 59, 0
4, 704640, Note_on_c, 0, 64, 0
4, 704640, Note_on_c, 0, 68, 0
4, 704640, Note_on_c, 0, 64, 60
4, 704640, Note_on_c, 0, 68, 60
4, 704640, Note_on_c, 0, 76, 60
4, 705279, Note_on_c, 0, 76, 0
4, 705279, Note_on_c, 0, 68, 0
4, 705279, Note_on_c, 0, 64, 0
4, 705279, Note_on_c, 0, 63, 60
4, 705279, Note_on_c, 0, 64, 60
4, 705279, Note_on_c, 0, 68, 60
4, 705279, Note_on_c, 0, 75, 60
4, 705600, Note_on_c, 0, 75, 0
4, 705600, Note_on_c, 0, 63, 0
4, 705600, Note_on_c, 0, 64, 0
4, 705600, Note_on_c, 0, 68, 0
4, 705600, Note_on_c, 0, 61, 60
4, 705600, Note_on_c, 0, 64, 60
4, 705600, Note_on_c, 0, 68, 60
4, 705600, Note_on_c, 0, 73, 60
4, 706560, Note_on_c, 0, 73, 0
4, 706560, Note_on_c, 0, 61, 0
4, 706560, Note_on_c, 0, 64, 0
4, 706560, Note_on_c, 0, 68, 0
4, 706560, Note_on_c, 0, 59, 60
4, 706560, Note_on_c, 0, 64, 60
4, 706560, Note_on_c, 0, 68, 60
4, 706560, Note_on_c, 0, 71, 60
4, 707040, Note_on_c, 0, 71, 0
4, 707040, Note_on_c, 0, 59, 0
4, 707040, Note_on_c, 0, 64, 0
4, 707040, Note_on_c, 0, 68, 0
4, 708159, Note_on_c, 0, 69, 60
4, 708159, Note_on_c, 0, 73, 60
4, 708159, Note_on_c, 0, 81, 60
4, 709119, Note_on_c, 0, 81, 0
4, 709119, Note_on_c, 0, 73, 0
4, 709119, Note_on_c, 0, 69, 0
4, 709119, Note_on_c, 0, 68, 60
4, 709119, Note_on_c, 0, 69, 60
4, 709119, Note_on_c, 0, 73, 60
4, 709119, Note_on_c, 0, 80, 60
4, 709440, Note_on_c, 0, 80, 0
4, 709440, Note_on_c, 0, 68, 0
4, 709440, Note_on_c, 0, 69, 0
4, 709440, Note_on_c, 0, 73, 0
4, 709440, Note_on_c, 0, 68, 60
4, 709440, Note_on_c, 0, 69, 60
4, 709440, Note_on_c, 0, 73, 60
4, 709440, Note_on_c, 0, 80, 60
4, 710400, Note_on_c, 0, 80, 0
4, 710400, Note_on_c, 0, 68, 0
4, 710400, Note_on_c, 0, 69, 0
4, 710400, Note_on_c, 0, 73, 0
4, 710400, Note_on_c, 0, 66, 60
4, 710400, Note_on_c, 0, 69, 60
4, 710400, Note_on_c, 0, 73, 60
4, 710400, Note_on_c, 0, 78, 60
4, 710880, Note_on_c, 0, 78, 0
4, 710880, Note_on_c, 0, 66, 0
4, 710880, Note_on_c, 0, 69, 0
4, 710880, Note_on_c, 0, 73, 0
4, 711680, Note_on_c, 0, 65, 60
4, 711680, Note_on_c, 0, 69, 60
4, 711680, Note_on_c, 0, 73, 60
4, 711680, Note_on_c, 0, 77, 60
4, 711999, Note_on_c, 0, 77, 0
4, 711999, Note_on_c, 0, 65, 0
4, 711999, Note_on_c, 0, 69, 0
4, 711999, Note_on_c, 0, 73, 0
4, 711999, Note_on_c, 0, 66, 60
4, 711999, Note_on_c, 0, 78, 60
4, 712320, Note_on_c, 0, 78, 0
4, 712320, Note_on_c, 0, 66, 0
4, 712320, Note_on_c, 0, 69, 60
4, 712320, Note_on_c, 0, 81, 60
4, 712959, Note_on_c, 0, 81, 0
4, 712959, Note_on_c, 0, 69, 0
4, 712959, Note_on_c, 0, 68, 60
4, 712959, Note_on_c, 0, 69, 60
4, 712959, Note_on_c, 0, 73, 60
4, 712959, Note_on_c, 0, 80, 60
4, 713280, Note_on_c, 0, 80, 0
4, 713280, Note_on_c, 0, 68, 0
4, 713280, Note_on_c, 0, 69, 0
4, 713280, Note_on_c, 0, 73, 0
4, 713280, Note_on_c, 0, 68, 60
4, 713280, Note_on_c, 0, 69, 60
4, 713280, Note_on_c, 0, 73, 60
4, 713280, Note_on_c, 0, 80, 60
4, 714240, Note_on_c, 0, 80, 0
4, 714240, Note_on_c, 0, 68, 0
4, 714240, Note_on_c, 0, 69, 0
4, 714240, Note_on_c, 0, 73, 0
4, 714240, Note_on_c, 0, 66, 60
4, 714240, Note_on_c, 0, 69, 60
4, 714240, Note_on_c, 0, 73, 60
4, 714240, Note_on_c, 0, 78, 60
4, 714720, Note_on_c, 0, 78, 0
4, 714720, Note_on_c, 0, 66, 0
4, 714720, Note_on_c, 0, 69, 0
4, 714720, Note_on_c, 0, 73, 0
4, 715839, Note_on_c, 0, 63, 60
4, 715839, Note_on_c, 0, 75, 60
4, 716799, Note_on_c, 0, 75, 0
4, 716799, Note_on_c, 0, 63, 0
4, 716799, Note_on_c, 0, 61, 60
4, 716799, Note_on_c, 0, 63, 60
4, 716799, Note_on_c, 0, 73, 60
4, 717120, Note_on_c, 0, 73, 0
4, 717120, Note_on_c, 0, 63, 0
4, 717120, Note_on_c, 0, 61, 0
4, 717120, Note_on_c, 0, 61, 60
4, 717120, Note_on_c, 0, 63, 60
4, 717120, Note_on_c, 0, 73, 60
4, 718080, Note_on_c, 0, 73, 0
4, 718080, Note_on_c, 0, 63, 0
4, 718080, Note_on_c, 0, 61, 0
4, 718080, Note_on_c, 0, 59, 60
4, 718080, Note_on_c, 0, 63, 60
4, 718080, Note_on_c, 0, 71, 60
4, 718560, Note_on_c, 0, 71, 0
4, 718560, Note_on_c, 0, 63, 0
4, 718560, Note_on_c, 0, 59, 0
4, 719360, Note_on_c, 0, 55, 60
4, 719360, Note_on_c, 0, 63, 60
4, 719360, Note_on_c, 0, 67, 60
4, 719679, Note_on_c, 0, 67, 0
4, 719679, Note_on_c, 0, 63, 0
4, 719679, Note_on_c, 0, 55, 0
4, 719679, Note_on_c, 0, 56, 60
4, 719679, Note_on_c, 0, 63, 60
4, 719679, Note_on_c, 0, 68, 60
4, 720000, Note_on_c, 0, 68, 0
4, 720000, Note_on_c, 0, 63, 0
4, 720000, Note_on_c, 0, 56, 0
4, 720000, Note_on_c, 0, 63, 60
4, 720000, Note_on_c, 0, 75, 60
4, 720639, Note_on_c, 0, 75, 0
4, 720639, Note_on_c, 0, 63, 0
4, 720639, Note_on_c, 0, 61, 60
4, 720639, Note_on_c, 0, 63, 60
4, 720639, Note_on_c, 0, 73, 60
4, 720960, Note_on_c, 0, 73, 0
4, 720960, Note_on_c, 0, 63, 0
4, 720960, Note_on_c, 0, 61, 0
4, 720960, Note_on_c, 0, 61, 60
4, 720960, Note_on_c, 0, 63, 60
4, 720960, Note_on_c, 0, 73, 60
4, 721280, Note_on_c, 0, 73, 0
4, 721280, Note_on_c, 0, 63, 0
4, 721280, Note_on_c, 0, 61, 0
4, 721280, Note_on_c, 0, 58, 60
4, 721280, Note_on_c, 0, 70, 60
4, 721599, Note_on_c, 0, 70, 0
4, 721599, Note_on_c, 0, 58, 0
4, 721599, Note_on_c, 0, 59, 60
4, 721599, Note_on_c, 0, 63, 60
4, 721599, Note_on_c, 0, 71, 60
4, 721920, Note_on_c, 0, 71, 0
4, 721920, Note_on_c, 0, 63, 0
4, 721920, Note_on_c, 0, 59, 0
4, 723200, Note_on_c, 0, 55, 60
4, 723200, Note_on_c, 0, 63, 60
4, 723200, Note_on_c, 0, 67, 60
4, 723519, Note_on_c, 0, 67, 0
4, 723519, Note_on_c, 0, 63, 0
4, 723519, Note_on_c, 0, 55, 0
4, 723519, Note_on_c, 0, 56, 60
4, 723519, Note_on_c, 0, 63, 60
4, 723519, Note_on_c, 0, 68, 60
4, 723840, Note_on_c, 0, 68, 0
4, 723840, Note_on_c, 0, 63, 0
4, 723840, Note_on_c, 0, 56, 0
4, 723840, Note_on_c, 0, 68, 60
4, 723840, Note_on_c, 0, 80, 60
4, 724479, Note_on_c, 0, 80, 0
4, 724479, Note_on_c, 0, 68, 0
4, 724479, Note_on_c, 0, 66, 60
4, 724479, Note_on_c, 0, 68, 60
4, 724479, Note_on_c, 0, 78, 60
4, 724800, Note_on_c, 0, 78, 0
4, 724800, Note_on_c, 0, 68, 0
4, 724800, Note_on_c, 0, 66, 0
4, 724800, Note_on_c, 0, 66, 60
4, 724800, Note_on_c, 0, 68, 60
4, 724800, Note_on_c, 0, 78, 60
4, 725439, Note_on_c, 0, 78, 0
4, 725439, Note_on_c, 0, 68, 0
4, 725439, Note_on_c, 0, 66, 0
4, 725439, Note_on_c, 0, 64, 60
4, 725439, Note_on_c, 0, 68, 60
4, 725439, Note_on_c, 0, 76, 60
4, 725760, Note_on_c, 0, 76, 0
4, 725760, Note_on_c, 0, 68, 0
4, 725760, Note_on_c, 0, 64, 0
4, 727040, Note_on_c, 0, 60, 60
4, 727040, Note_on_c, 0, 68, 60
4, 727040, Note_on_c, 0, 72, 60
4, 727359, Note_on_c, 0, 72, 0
4, 727359, Note_on_c, 0, 68, 0
4, 727359, Note_on_c, 0, 60, 0
4, 727359, Note_on_c, 0, 61, 60
4, 727359, Note_on_c, 0, 68, 60
4, 727359, Note_on_c, 0, 73, 60
4, 727680, Note_on_c, 0, 73, 0
4, 727680, Note_on_c, 0, 68, 0
4, 727680, Note_on_c, 0, 61, 0
4, 727680, Note_on_c, 0, 68, 60
4, 727680, Note_on_c, 0, 80, 60
4, 728319, Note_on_c, 0, 80, 0
4, 728319, Note_on_c, 0, 68, 0
4, 728319, Note_on_c, 0, 66, 60
4, 728319, Note_on_c, 0, 68, 60
4, 728319, Note_on_c, 0, 78, 60
4, 728640, Note_on_c, 0, 78, 0
4, 728640, Note_on_c, 0, 68, 0
4, 728640, Note_on_c, 0, 66, 0
4, 728640, Note_on_c, 0, 66, 60
4, 728640, Note_on_c, 0, 68, 60
4, 728640, Note_on_c, 0, 78, 60
4, 728960, Note_on_c, 0, 78, 0
4, 728960, Note_on_c, 0, 68, 0
4, 728960, Note_on_c, 0, 66, 0
4, 728960, Note_on_c, 0, 63, 60
4, 728960, Note_on_c, 0, 68, 60
4, 728960, Note_on_c, 0, 75, 60
4, 729279, Note_on_c, 0, 75, 0
4, 729279, Note_on_c, 0, 68, 0
4, 729279, Note_on_c, 0, 63, 0
4, 729279, Note_on_c, 0, 64, 60
4, 729279, Note_on_c, 0, 68, 60
4, 729279, Note_on_c, 0, 76, 60
4, 729600, Note_on_c, 0, 76, 0
4, 729600, Note_on_c, 0, 68, 0
4, 729600, Note_on_c, 0, 64, 0
4, 730880, Note_on_c, 0, 60, 73
4, 730880, Note_on_c, 0, 68, 73
4, 730880, Note_on_c, 0, 72, 73
4, 731199, Note_on_c, 0, 72, 0
4, 731199, Note_on_c, 0, 68, 0
4, 731199, Note_on_c, 0, 60, 0
4, 731199, Note_on_c, 0, 61, 73
4, 731199, Note_on_c, 0, 68, 73
4, 731199, Note_on_c, 0, 73, 73
4, 731520, Note_on_c, 0, 73, 0
4, 731520, Note_on_c, 0, 68, 0
4, 731520, Note_on_c, 0, 61, 0
4, 731520, Note_on_c, 0, 73, 73
4, 731520, Note_on_c, 0, 85, 73
4, 732159, Note_on_c, 0, 85, 0
4, 732159, Note_on_c, 0, 73, 0
4, 732159, Note_on_c, 0, 71, 73
4, 732159, Note_on_c, 0, 73, 73
4, 732159, Note_on_c, 0, 83, 73
4, 732480, Note_on_c, 0, 83, 0
4, 732480, Note_on_c, 0, 73, 0
4, 732480, Note_on_c, 0, 71, 0
4, 732480, Note_on_c, 0, 71, 73
4, 732480, Note_on_c, 0, 73, 73
4, 732480, Note_on_c, 0, 83, 73
4, 733119, Note_on_c, 0, 83, 0
4, 733119, Note_on_c, 0, 73, 0
4, 733119, Note_on_c, 0, 71, 0
4, 733119, Note_on_c, 0, 69, 73
4, 733119, Note_on_c, 0, 73, 73
4, 733119, Note_on_c, 0, 81, 73
4, 733440, Note_on_c, 0, 81, 0
4, 733440, Note_on_c, 0, 73, 0
4, 733440, Note_on_c, 0, 69, 0
4, 734720, Note_on_c, 0, 65, 73
4, 734720, Note_on_c, 0, 73, 73
4, 734720, Note_on_c, 0, 77, 73
4, 735039, Note_on_c, 0, 77, 0
4, 735039, Note_on_c, 0, 73, 0
4, 735039, Note_on_c, 0, 65, 0
4, 735039, Note_on_c, 0, 66, 73
4, 735039, Note_on_c, 0, 73, 73
4, 735039, Note_on_c, 0, 78, 73
4, 735360, Note_on_c, 0, 78, 0
4, 735360, Note_on_c, 0, 73, 0
4, 735360, Note_on_c, 0, 66, 0
4, 735360, Note_on_c, 0, 73, 73
4, 735360, Note_on_c, 0, 85, 73
4, 735999, Note_on_c, 0, 85, 0
4, 735999, Note_on_c, 0, 73, 0
4, 735999, Note_on_c, 0, 71, 73
4, 735999, Note_on_c, 0, 73, 73
4, 735999, Note_on_c, 0, 83, 73
4, 736320, Note_on_c, 0, 83, 0
4, 736320, Note_on_c, 0, 73, 0
4, 736320, Note_on_c, 0, 71, 0
4, 736320, Note_on_c, 0, 71, 73
4, 736320, Note_on_c, 0, 73, 73
4, 736320, Note_on_c, 0, 83, 73
4, 736640, Note_on_c, 0, 83, 0
4, 736640, Note_on_c, 0, 73, 0
4, 736640, Note_on_c, 0, 71, 0
4, 736640, Note_on_c, 0, 68, 73
4, 736640, Note_on_c, 0, 73, 73
4, 736640, Note_on_c, 0, 80, 73
4, 736959, Note_on_c, 0, 80, 0
4, 736959, Note_on_c, 0, 73, 0
4, 736959, Note_on_c, 0, 68, 0
4, 736959, Note_on_c, 0, 69, 73
4, 736959, Note_on_c, 0, 73, 73
4, 736959, Note_on_c, 0, 81, 73
4, 737280, Note_on_c, 0, 81, 0
4, 737280, Note_on_c, 0, 73, 0
4, 737280, Note_on_c, 0, 69, 0
4, 738560, Note_on_c, 0, 65, 60
4, 738560, Note_on_c, 0, 73, 60
4, 738560, Note_on_c, 0, 77, 60
4, 738879, Note_on_c, 0, 77, 0
4, 738879, Note_on_c, 0, 73, 0
4, 738879, Note_on_c, 0, 65, 0
4, 738879, Note_on_c, 0, 66, 60
4, 738879, Note_on_c, 0, 73, 60
4, 738879, Note_on_c, 0, 78, 60
4, 739200, Note_on_c, 0, 78, 0
4, 739200, Note_on_c, 0, 73, 0
4, 739200, Note_on_c, 0, 66, 0
4, 739200, Note_on_c, 0, 71, 73
4, 739200, Note_on_c, 0, 73, 73
4, 739200, Note_on_c, 0, 77, 73
4, 739200, Note_on_c, 0, 83, 73
4, 739520, Note_on_c, 0, 83, 0
4, 739520, Note_on_c, 0, 71, 0
4, 739520, Note_on_c, 0, 73, 0
4, 739520, Note_on_c, 0, 77, 0
4, 739520, Note_on_c, 0, 68, 73
4, 739520, Note_on_c, 0, 80, 73
4, 739839, Note_on_c, 0, 80, 0
4, 739839, Note_on_c, 0, 68, 0
4, 739839, Note_on_c, 0, 69, 73
4, 739839, Note_on_c, 0, 81, 73
4, 740160, Note_on_c, 0, 81, 0
4, 740160, Note_on_c, 0, 69, 0
4, 740160, Note_on_c, 0, 71, 73
4, 740160, Note_on_c, 0, 73, 73
4, 740160, Note_on_c, 0, 78, 73
4, 740160, Note_on_c, 0, 83, 73
4, 740480, Note_on_c, 0, 83, 0
4, 740480, Note_on_c, 0, 71, 0
4, 740480, Note_on_c, 0, 73, 0
4, 740480, Note_on_c, 0, 78, 0
4, 740480, Note_on_c, 0, 68, 73
4, 740480, Note_on_c, 0, 80, 73
4, 740799, Note_on_c, 0, 80, 0
4, 740799, Note_on_c, 0, 68, 0
4, 740799, Note_on_c, 0, 69, 73
4, 740799, Note_on_c, 0, 81, 73
4, 741120, Note_on_c, 0, 81, 0
4, 741120, Note_on_c, 0, 69, 0
4, 741120, Note_on_c, 0, 71, 73
4, 741120, Note_on_c, 0, 75, 73
4, 741120, Note_on_c, 0, 79, 73
4, 741120, Note_on_c, 0, 83, 73
4, 741440, Note_on_c, 0, 83, 0
4, 741440, Note_on_c, 0, 71, 0
4, 741440, Note_on_c, 0, 75, 0
4, 741440, Note_on_c, 0, 79, 0
4, 741440, Note_on_c, 0, 69, 73
4, 741440, Note_on_c, 0, 81, 73
4, 741759, Note_on_c, 0, 81, 0
4, 741759, Note_on_c, 0, 69, 0
4, 741759, Note_on_c, 0, 70, 73
4, 741759, Note_on_c, 0, 82, 73
4, 742080, Note_on_c, 0, 82, 0
4, 742080, Note_on_c, 0, 70, 0
4, 742080, Note_on_c, 0, 71, 73
4, 742080, Note_on_c, 0, 75, 73
4, 742080, Note_on_c, 0, 79, 73
4, 742080, Note_on_c, 0, 83, 73
4, 742400, Note_on_c, 0, 83, 0
4, 742400, Note_on_c, 0, 71, 0
4, 742400, Note_on_c, 0, 75, 0
4, 742400, Note_on_c, 0, 79, 0
4, 742400, Note_on_c, 0, 69, 73
4, 742400, Note_on_c, 0, 81, 73
4, 742719, Note_on_c, 0, 81, 0
4, 742719, Note_on_c, 0, 69, 0
4, 742719, Note_on_c, 0, 70, 73
4, 742719, Note_on_c, 0, 82, 73
4, 743040, Note_on_c, 0, 82, 0
4, 743040, Note_on_c, 0, 70, 0
4, 743040, Note_on_c, 0, 71, 73
4, 743040, Note_on_c, 0, 76, 73
4, 743040, Note_on_c, 0, 79, 73
4, 743040, Note_on_c, 0, 83, 73
4, 743360, Note_on_c, 0, 83, 0
4, 743360, Note_on_c, 0, 71, 0
4, 743360, Note_on_c, 0, 76, 0
4, 743360, Note_on_c, 0, 79, 0
4, 743360, Note_on_c, 0, 70, 73
4, 743360, Note_on_c, 0, 82, 73
4, 743679, Note_on_c, 0, 82, 0
4, 743679, Note_on_c, 0, 70, 0
4, 743679, Note_on_c, 0, 71, 73
4, 743679, Note_on_c, 0, 83, 73
4, 744000, Note_on_c, 0, 83, 0
4, 744000, Note_on_c, 0, 71, 0
4, 744000, Note_on_c, 0, 71, 73
4, 744000, Note_on_c, 0, 76, 73
4, 744000, Note_on_c, 0, 79, 73
4, 744000, Note_on_c, 0, 83, 73
4, 744320, Note_on_c, 0, 83, 0
4, 744320, Note_on_c, 0, 71, 0
4, 744320, Note_on_c, 0, 76, 0
4, 744320, Note_on_c, 0, 79, 0
4, 744320, Note_on_c, 0, 70, 73
4, 744320, Note_on_c, 0, 82, 73
4, 744639, Note_on_c, 0, 82, 0
4, 744639, Note_on_c, 0, 70, 0
4, 744639, Note_on_c, 0, 71, 73
4, 744639, Note_on_c, 0, 83, 73
4, 744960, Note_on_c, 0, 83, 0
4, 744960, Note_on_c, 0, 71, 0
4, 744960, Note_on_c, 0, 71, 73
4, 744960, Note_on_c, 0, 77, 73
4, 744960, Note_on_c, 0, 80, 73
4, 744960, Note_on_c, 0, 83, 73
4, 745280, Note_on_c, 0, 83, 0
4, 745280, Note_on_c, 0, 71, 0
4, 745280, Note_on_c, 0, 77, 0
4, 745280, Note_on_c, 0, 80, 0
4, 745280, Note_on_c, 0, 70, 73
4, 745280, Note_on_c, 0, 82, 73
4, 745599, Note_on_c, 0, 82, 0
4, 745599, Note_on_c, 0, 70, 0
4, 745599, Note_on_c, 0, 71, 73
4, 745599, Note_on_c, 0, 83, 73
4, 745920, Note_on_c, 0, 83, 0
4, 745920, Note_on_c, 0, 71, 0
4, 745920, Note_on_c, 0, 71, 86
4, 745920, Note_on_c, 0, 77, 86
4, 745920, Note_on_c, 0, 80, 86
4, 745920, Note_on_c, 0, 83, 86
4, 746400, Note_on_c, 0, 83, 0
4, 746400, Note_on_c, 0, 71, 0
4, 746400, Note_on_c, 0, 77, 0
4, 746400, Note_on_c, 0, 80, 0
4, 747840, Note_on_c, 0, 71, 86
4, 747840, Note_on_c, 0, 78, 86
4, 747840, Note_on_c, 0, 83, 86
4, 748320, Note_on_c, 0, 83, 0
4, 748320, Note_on_c, 0, 78, 0
4, 748320, Note_on_c, 0, 71, 0
4, 749760, Note_on_c, 0, 71, 86
4, 749760, Note_on_c, 0, 77, 86
4, 749760, Note_on_c, 0, 80, 86
4, 749760, Note_on_c, 0, 83, 86
4, 750240, Note_on_c, 0, 83, 0
4, 750240, Note_on_c, 0, 71, 0
4, 750240, Note_on_c, 0, 77, 0
4, 750240, Note_on_c, 0, 80, 0
4, 751680, Note_on_c, 0, 71, 86
4, 751680, Note_on_c, 0, 78, 86
4, 751680, Note_on_c, 0, 83, 86
4, 752160, Note_on_c, 0, 83, 0
4, 752160, Note_on_c, 0, 78, 0
4, 752160, Note_on_c, 0, 71, 0
4, 753120, Note_on_c, 0, 59, 112
4, 753600, Note_on_c, 0, 59, 0
4, 753600, Note_on_c, 0, 61, 112
4, 754080, Note_on_c, 0, 61, 0
4, 754080, Note_on_c, 0, 63, 112
4, 754560, Note_on_c, 0, 63, 0
4, 754560, Note_on_c, 0, 59, 112
4, 755040, Note_on_c, 0, 59, 0
4, 755040, Note_on_c, 0, 61, 112
4, 755520, Note_on_c, 0, 61, 0
4, 755520, Note_on_c, 0, 63, 112
4, 756000, Note_on_c, 0, 63, 0
4, 756000, Note_on_c, 0, 64, 112
4, 756480, Note_on_c, 0, 64, 0
4, 756480, Note_on_c, 0, 60, 112
4, 756960, Note_on_c, 0, 60, 0
4, 757440, Note_on_c, 0, 75, 47
4, 757440, Note_on_c, 0, 87, 47
4, 757599, Note_on_c, 0, 87, 0
4, 757599, Note_on_c, 0, 75, 0
4, 757599, Note_on_c, 0, 76, 47
4, 757599, Note_on_c, 0, 88, 47
4, 757760, Note_on_c, 0, 88, 0
4, 757760, Note_on_c, 0, 76, 0
4, 757920, Note_on_c, 0, 78, 47
4, 757920, Note_on_c, 0, 90, 47
4, 758079, Note_on_c, 0, 90, 0
4, 758079, Note_on_c, 0, 78, 0
4, 758079, Note_on_c, 0, 76, 47
4, 758079, Note_on_c, 0, 88, 47
4, 758240, Note_on_c, 0, 88, 0
4, 758240, Note_on_c, 0, 76, 0
4, 758400, Note_on_c, 0, 80, 47
4, 758400, Note_on_c, 0, 92, 47
4, 758559, Note_on_c, 0, 92, 0
4, 758559, Note_on_c, 0, 80, 0
4, 758559, Note_on_c, 0, 78, 47
4, 758559, Note_on_c, 0, 90, 47
4, 758720, Note_on_c, 0, 90, 0
4, 758720, Note_on_c, 0, 78, 0
4, 758880, Note_on_c, 0, 76, 47
4, 758880, Note_on_c, 0, 88, 47
4, 759039, Note_on_c, 0, 88, 0
4, 759039, Note_on_c, 0, 76, 0
4, 759039, Note_on_c, 0, 75, 47
4, 759039, Note_on_c, 0, 87, 47
4, 759200, Note_on_c, 0, 87, 0
4, 759200, Note_on_c, 0, 75, 0
4, 759360, Note_on_c, 0, 64, 47
4, 759360, Note_on_c, 0, 73, 47
4, 759519, Note_on_c, 0, 73, 0
4, 759519, Note_on_c, 0, 64, 0
4, 759519, Note_on_c, 0, 63, 47
4, 759519, Note_on_c, 0, 75, 47
4, 759680, Note_on_c, 0, 75, 0
4, 759680, Note_on_c, 0, 63, 0
4, 759840, Note_on_c, 0, 61, 47
4, 759840, Note_on_c, 0, 76, 47
4, 759999, Note_on_c, 0, 76, 0
4, 759999, Note_on_c, 0, 61, 0
4, 759999, Note_on_c, 0, 63, 47
4, 759999, Note_on_c, 0, 75, 47
4, 760160, Note_on_c, 0, 75, 0
4, 760160, Note_on_c, 0, 63, 0
4, 760320, Note_on_c, 0, 56, 47
4, 760320, Note_on_c, 0, 78, 47
4, 760479, Note_on_c, 0, 78, 0
4, 760479, Note_on_c, 0, 56, 0
4, 760479, Note_on_c, 0, 61, 47
4, 760479, Note_on_c, 0, 76, 47
4, 760640, Note_on_c, 0, 76, 0
4, 760640, Note_on_c, 0, 61, 0
4, 760800, Note_on_c, 0, 63, 47
4, 760800, Note_on_c, 0, 75, 47
4, 760959, Note_on_c, 0, 75, 0
4, 760959, Note_on_c, 0, 63, 0
4, 760959, Note_on_c, 0, 64, 47
4, 760959, Note_on_c, 0, 73, 47
4, 761120, Note_on_c, 0, 73, 0
4, 761120, Note_on_c, 0, 64, 0
4, 761280, Note_on_c, 0, 63, 73
4, 761760, Note_on_c, 0, 63, 0
4, 761760, Note_on_c, 0, 65, 73
4, 762240, Note_on_c, 0, 65, 0
4, 762240, Note_on_c, 0, 61, 73
4, 762720, Note_on_c, 0, 61, 0
4, 762720, Note_on_c, 0, 63, 73
4, 763200, Note_on_c, 0, 63, 0
4, 763200, Note_on_c, 0, 65, 73
4, 763680, Note_on_c, 0, 65, 0
4, 763680, Note_on_c, 0, 66, 73
4, 764160, Note_on_c, 0, 66, 0
4, 764160, Note_on_c, 0, 62, 73
4, 764640, Note_on_c, 0, 62, 0
4, 765120, Note_on_c, 0, 77, 47
4, 765120, Note_on_c, 0, 89, 47
4, 765279, Note_on_c, 0, 89, 0
4, 765279, Note_on_c, 0, 77, 0
4, 765279, Note_on_c, 0, 78, 47
4, 765279, Note_on_c, 0, 90, 47
4, 765440, Note_on_c, 0, 90, 0
4, 765440, Note_on_c, 0, 78, 0
4, 765600, Note_on_c, 0, 80, 47
4, 765600, Note_on_c, 0, 92, 47
4, 765759, Note_on_c, 0, 92, 0
4, 765759, Note_on_c, 0, 80, 0
4, 765759, Note_on_c, 0, 78, 47
4, 765759, Note_on_c, 0, 90, 47
4, 765920, Note_on_c, 0, 90, 0
4, 765920, Note_on_c, 0, 78, 0
4, 766080, Note_on_c, 0, 82, 47
4, 766080, Note_on_c, 0, 94, 47
4, 766239, Note_on_c, 0, 94, 0
4, 766239, Note_on_c, 0, 82, 0
4, 766239, Note_on_c, 0, 80, 47
4, 766239, Note_on_c, 0, 92, 47
4, 766400, Note_on_c, 0, 92, 0
4, 766400, Note_on_c, 0, 80, 0
4, 766560, Note_on_c, 0, 78, 47
4, 766560, Note_on_c, 0, 90, 47
4, 766719, Note_on_c, 0, 90, 0
4, 766719, Note_on_c, 0, 78, 0
4, 766719, Note_on_c, 0, 77, 47
4, 766719, Note_on_c, 0, 89, 47
4, 766880, Note_on_c, 0, 89, 0
4, 766880, Note_on_c, 0, 77, 0
4, 767040, Note_on_c, 0, 66, 47
4, 767040, Note_on_c, 0, 75, 47
4, 767199, Note_on_c, 0, 75, 0
4, 767199, Note_on_c, 0, 66, 0
4, 767199, Note_on_c, 0, 65, 47
4, 767199, Note_on_c, 0, 77, 47
4, 767360, Note_on_c, 0, 77, 0
4, 767360, Note_on_c, 0, 65, 0
4, 767520, Note_on_c, 0, 63, 47
4, 767520, Note_on_c, 0, 78, 47
4, 767679, Note_on_c, 0, 78, 0
4, 767679, Note_on_c, 0, 63, 0
4, 767679, Note_on_c, 0, 65, 47
4, 767679, Note_on_c, 0, 77, 47
4, 767840, Note_on_c, 0, 77, 0
4, 767840, Note_on_c, 0, 65, 0
4, 768000, Note_on_c, 0, 58, 47
4, 768000, Note_on_c, 0, 80, 47
4, 768159, Note_on_c, 0, 80, 0
4, 768159, Note_on_c, 0, 58, 0
4, 768159, Note_on_c, 0, 63, 47
4, 768159, Note_on_c, 0, 78, 47
4, 768320, Note_on_c, 0, 78, 0
4, 768320, Note_on_c, 0, 63, 0
4, 768480, Note_on_c, 0, 65, 47
4, 768480, Note_on_c, 0, 77, 47
4, 768639, Note_on_c, 0, 77, 0
4, 768639, Note_on_c, 0, 65, 0
4, 768639, Note_on_c, 0, 66, 47
4, 768639, Note_on_c, 0, 75, 47
4, 768800, Note_on_c, 0, 75, 0
4, 768800, Note_on_c, 0, 66, 0
4, 768960, Note_on_c, 0, 65, 73
4, 769440, Note_on_c, 0, 65, 0
4, 769440, Note_on_c, 0, 67, 73
4, 769920, Note_on_c, 0, 67, 0
4, 769920, Note_on_c, 0, 60, 73
4, 769920, Note_on_c, 0, 64, 73
4, 770400, Note_on_c, 0, 64, 0
4, 770400, Note_on_c, 0, 60, 0
4, 770880, Note_on_c, 0, 73, 47
4, 771039, Note_on_c, 0, 73, 0
4, 771039, Note_on_c, 0, 76, 47
4, 771200, Note_on_c, 0, 76, 0
4, 771360, Note_on_c, 0, 77, 47
4, 771519, Note_on_c, 0, 77, 0
4, 771519, Note_on_c, 0, 76, 47
4, 771680, Note_on_c, 0, 76, 0
4, 771840, Note_on_c, 0, 79, 47
4, 771999, Note_on_c, 0, 79, 0
4, 771999, Note_on_c, 0, 77, 47
4, 772160, Note_on_c, 0, 77, 0
4, 772320, Note_on_c, 0, 76, 47
4, 772479, Note_on_c, 0, 76, 0
4, 772479, Note_on_c, 0, 77, 47
4, 772640, Note_on_c, 0, 77, 0
4, 772800, Note_on_c, 0, 67, 73
4, 773280, Note_on_c, 0, 67, 0
4, 773280, Note_on_c, 0, 69, 73
4, 773760, Note_on_c, 0, 69, 0
4, 773760, Note_on_c, 0, 62, 73
4, 773760, Note_on_c, 0, 66, 73
4, 774240, Note_on_c, 0, 66, 0
4, 774240, Note_on_c, 0, 62, 0
4, 774720, Note_on_c, 0, 76, 47
4, 774879, Note_on_c, 0, 76, 0
4, 774879, Note_on_c, 0, 78, 47
4, 775040, Note_on_c, 0, 78, 0
4, 775200, Note_on_c, 0, 79, 47
4, 775359, Note_on_c, 0, 79, 0
4, 775359, Note_on_c, 0, 78, 47
4, 775520, Note_on_c, 0, 78, 0
4, 775680, Note_on_c, 0, 81, 47
4, 775839, Note_on_c, 0, 81, 0
4, 775839, Note_on_c, 0, 79, 47
4, 776000, Note_on_c, 0, 79, 0
4, 776160, Note_on_c, 0, 78, 47
4, 776319, Note_on_c, 0, 78, 0
4, 776319, Note_on_c, 0, 79, 47
4, 776480, Note_on_c, 0, 79, 0
4, 776640, Note_on_c, 0, 66, 47
4, 776640, Note_on_c, 0, 78, 47
4, 776799, Note_on_c, 0, 78, 0
4, 776799, Note_on_c, 0, 66, 0
4, 776799, Note_on_c, 0, 67, 47
4, 776799, Note_on_c, 0, 79, 47
4, 776960, Note_on_c, 0, 79, 0
4, 776960, Note_on_c, 0, 67, 0
4, 777120, Note_on_c, 0, 68, 47
4, 777120, Note_on_c, 0, 80, 47
4, 777279, Note_on_c, 0, 80, 0
4, 777279, Note_on_c, 0, 68, 0
4, 777279, Note_on_c, 0, 67, 47
4, 777279, Note_on_c, 0, 79, 47
4, 777440, Note_on_c, 0, 79, 0
4, 777440, Note_on_c, 0, 67, 0
4, 777600, Note_on_c, 0, 70, 47
4, 777600, Note_on_c, 0, 82, 47
4, 777759, Note_on_c, 0, 82, 0
4, 777759, Note_on_c, 0, 70, 0
4, 777759, Note_on_c, 0, 68, 47
4, 777759, Note_on_c, 0, 80, 47
4, 777920, Note_on_c, 0, 80, 0
4, 777920, Note_on_c, 0, 68, 0
4, 778080, Note_on_c, 0, 67, 47
4, 778080, Note_on_c, 0, 79, 47
4, 778239, Note_on_c, 0, 79, 0
4, 778239, Note_on_c, 0, 67, 0
4, 778239, Note_on_c, 0, 68, 47
4, 778239, Note_on_c, 0, 80, 47
4, 778400, Note_on_c, 0, 80, 0
4, 778400, Note_on_c, 0, 68, 0
4, 778560, Note_on_c, 0, 68, 47
4, 778560, Note_on_c, 0, 80, 47
4, 778719, Note_on_c, 0, 80, 0
4, 778719, Note_on_c, 0, 68, 0
4, 778719, Note_on_c, 0, 69, 47
4, 778719, Note_on_c, 0, 81, 47
4, 778880, Note_on_c, 0, 81, 0
4, 778880, Note_on_c, 0, 69, 0
4, 779040, Note_on_c, 0, 70, 47
4, 779040, Note_on_c, 0, 82, 47
4, 779199, Note_on_c, 0, 82, 0
4, 779199, Note_on_c, 0, 70, 0
4, 779199, Note_on_c, 0, 69, 47
4, 779199, Note_on_c, 0, 81, 47
4, 779360, Note_on_c, 0, 81, 0
4, 779360, Note_on_c, 0, 69, 0
4, 779520, Note_on_c, 0, 72, 47
4, 779520, Note_on_c, 0, 84, 47
4, 779679, Note_on_c, 0, 84, 0
4, 779679, Note_on_c, 0, 72, 0
4, 779679, Note_on_c, 0, 70, 47
4, 779679, Note_on_c, 0, 82, 47
4, 779840, Note_on_c, 0, 82, 0
4, 779840, Note_on_c, 0, 70, 0
4, 780000, Note_on_c, 0, 69, 47
4, 780000, Note_on_c, 0, 81, 47
4, 780159, Note_on_c, 0, 81, 0
4, 780159, Note_on_c, 0, 69, 0
4, 780159, Note_on_c, 0, 70, 47
4, 780159, Note_on_c, 0, 82, 47
4, 780320, Note_on_c, 0, 82, 0
4, 780320, Note_on_c, 0, 70, 0
4, 780480, Note_on_c, 0, 70, 60
4, 780480, Note_on_c, 0, 78, 60
4, 780480, Note_on_c, 0, 82, 60
4, 781440, Note_on_c, 0, 82, 0
4, 781440, Note_on_c, 0, 78, 0
4, 781440, Note_on_c, 0, 70, 0
4, 781440, Note_on_c, 0, 71, 60
4, 781440, Note_on_c, 0, 78, 60
4, 781440, Note_on_c, 0, 83, 60
4, 782400, Note_on_c, 0, 83, 0
4, 782400, Note_on_c, 0, 78, 0
4, 782400, Note_on_c, 0, 71, 0
4, 782400, Note_on_c, 0, 71, 60
4, 782400, Note_on_c, 0, 79, 60
4, 782400, Note_on_c, 0, 83, 60
4, 783360, Note_on_c, 0, 83, 0
4, 783360, Note_on_c, 0, 79, 0
4, 783360, Note_on_c, 0, 71, 0
4, 783360, Note_on_c, 0, 72, 60
4, 783360, Note_on_c, 0, 79, 60
4, 783360, Note_on_c, 0, 84, 60
4, 784320, Note_on_c, 0, 84, 0
4, 784320, Note_on_c, 0, 79, 0
4, 784320, Note_on_c, 0, 72, 0
4, 784320, Note_on_c, 0, 69, 47
4, 784320, Note_on_c, 0, 81, 47
4, 784479, Note_on_c, 0, 81, 0
4, 784479, Note_on_c, 0, 69, 0
4, 784479, Note_on_c, 0, 70, 47
4, 784479, Note_on_c, 0, 82, 47
4, 784640, Note_on_c, 0, 82, 0
4, 784640, Note_on_c, 0, 70, 0
4, 784800, Note_on_c, 0, 71, 47
4, 784800, Note_on_c, 0, 83, 47
4, 784959, Note_on_c, 0, 83, 0
4, 784959, Note_on_c, 0, 71, 0
4, 784959, Note_on_c, 0, 70, 47
4, 784959, Note_on_c, 0, 82, 47
4, 785120, Note_on_c, 0, 82, 0
4, 785120, Note_on_c, 0, 70, 0
4, 785280, Note_on_c, 0, 73, 47
4, 785280, Note_on_c, 0, 85, 47
4, 785439, Note_on_c, 0, 85, 0
4, 785439, Note_on_c, 0, 73, 0
4, 785439, Note_on_c, 0, 71, 47
4, 785439, Note_on_c, 0, 83, 47
4, 785600, Note_on_c, 0, 83, 0
4, 785600, Note_on_c, 0, 71, 0
4, 785760, Note_on_c, 0, 70, 47
4, 785760, Note_on_c, 0, 82, 47
4, 785919, Note_on_c, 0, 82, 0
4, 785919, Note_on_c, 0, 70, 0
4, 785919, Note_on_c, 0, 71, 47
4, 785919, Note_on_c, 0, 83, 47
4, 786080, Note_on_c, 0, 83, 0
4, 786080, Note_on_c, 0, 71, 0
4, 786240, Note_on_c, 0, 70, 47
4, 786240, Note_on_c, 0, 82, 47
4, 786399, Note_on_c, 0, 82, 0
4, 786399, Note_on_c, 0, 70, 0
4, 786399, Note_on_c, 0, 71, 47
4, 786399, Note_on_c, 0, 83, 47
4, 786560, Note_on_c, 0, 83, 0
4, 786560, Note_on_c, 0, 71, 0
4, 786720, Note_on_c, 0, 72, 47
4, 786720, Note_on_c, 0, 84, 47
4, 786879, Note_on_c, 0, 84, 0
4, 786879, Note_on_c, 0, 72, 0
4, 786879, Note_on_c, 0, 71, 47
4, 786879, Note_on_c, 0, 83, 47
4, 787040, Note_on_c, 0, 83, 0
4, 787040, Note_on_c, 0, 71, 0
4, 787200, Note_on_c, 0, 74, 47
4, 787200, Note_on_c, 0, 86, 47
4, 787359, Note_on_c, 0, 86, 0
4, 787359, Note_on_c, 0, 74, 0
4, 787359, Note_on_c, 0, 72, 47
4, 787359, Note_on_c, 0, 84, 47
4, 787520, Note_on_c, 0, 84, 0
4, 787520, Note_on_c, 0, 72, 0
4, 787680, Note_on_c, 0, 71, 47
4, 787680, Note_on_c, 0, 83, 47
4, 787839, Note_on_c, 0, 83, 0
4, 787839, Note_on_c, 0, 71, 0
4, 787839, Note_on_c, 0, 72, 47
4, 787839, Note_on_c, 0, 84, 47
4, 788000, Note_on_c, 0, 84, 0
4, 788000, Note_on_c, 0, 72, 0
4, 788160, Note_on_c, 0, 73, 60
4, 788160, Note_on_c, 0, 81, 60
4, 788160, Note_on_c, 0, 85, 60
4, 789120, Note_on_c, 0, 85, 0
4, 789120, Note_on_c, 0, 81, 0
4, 789120, Note_on_c, 0, 73, 0
4, 789120, Note_on_c, 0, 74, 60
4, 789120, Note_on_c, 0, 81, 60
4, 789120, Note_on_c, 0, 86, 60
4, 790080, Note_on_c, 0, 86, 0
4, 790080, Note_on_c, 0, 81, 0
4, 790080, Note_on_c, 0, 74, 0
4, 790080, Note_on_c, 0, 74, 60
4, 790080, Note_on_c, 0, 82, 60
4, 790080, Note_on_c, 0, 86, 60
4, 791040, Note_on_c, 0, 86, 0
4, 791040, Note_on_c, 0, 82, 0
4, 791040, Note_on_c, 0, 74, 0
4, 791040, Note_on_c, 0, 75, 60
4, 791040, Note_on_c, 0, 82, 60
4, 791040, Note_on_c, 0, 87, 60
4, 792000, Note_on_c, 0, 87, 0
4, 792000, Note_on_c, 0, 82, 0
4, 792000, Note_on_c, 0, 75, 0
4, 792000, Note_on_c, 0, 76, 86
4, 792000, Note_on_c, 0, 82, 86
4, 792000, Note_on_c, 0, 85, 86
4, 792000, Note_on_c, 0, 88, 86
4, 792240, Note_on_c, 0, 88, 0
4, 792240, Note_on_c, 0, 76, 0
4, 792240, Note_on_c, 0, 82, 0
4, 792240, Note_on_c, 0, 85, 0
4, 793920, Note_on_c, 0, 77, 86
4, 793920, Note_on_c, 0, 82, 86
4, 793920, Note_on_c, 0, 85, 86
4, 793920, Note_on_c, 0, 89, 86
4, 794160, Note_on_c, 0, 89, 0
4, 794160, Note_on_c, 0, 77, 0
4, 794160, Note_on_c, 0, 82, 0
4, 794160, Note_on_c, 0, 85, 0
4, 821280, Note_on_c, 0, 65, 34
4, 821280, Note_on_c, 0, 70, 34
4, 821280, Note_on_c, 0, 73, 34
4, 821280, Note_on_c, 0, 77, 34
4, 821760, Note_on_c, 0, 77, 0
4, 821760, Note_on_c, 0, 65, 0
4, 821760, Note_on_c, 0, 70, 0
4, 821760, Note_on_c, 0, 73, 0
4, 822240, Note_on_c, 0, 65, 34
4, 822240, Note_on_c, 0, 70, 34
4, 822240, Note_on_c, 0, 73, 34
4, 822240, Note_on_c, 0, 77, 34
4, 822720, Note_on_c, 0, 77, 0
4, 822720, Note_on_c, 0, 65, 0
4, 822720, Note_on_c, 0, 70, 0
4, 822720, Note_on_c, 0, 73, 0
4, 823200, Note_on_c, 0, 65, 34
4, 823200, Note_on_c, 0, 69, 34
4, 823200, Note_on_c, 0, 72, 34
4, 823200, Note_on_c, 0, 75, 34
4, 823200, Note_on_c, 0, 77, 34
4, 823680, Note_on_c, 0, 77, 0
4, 823680, Note_on_c, 0, 72, 0
4, 823680, Note_on_c, 0, 65, 0
4, 823680, Note_on_c, 0, 69, 0
4, 823680, Note_on_c, 0, 75, 0
4, 824160, Note_on_c, 0, 65, 34
4, 824160, Note_on_c, 0, 69, 34
4, 824160, Note_on_c, 0, 72, 34
4, 824160, Note_on_c, 0, 75, 34
4, 824160, Note_on_c, 0, 77, 34
4, 824640, Note_on_c, 0, 77, 0
4, 824640, Note_on_c, 0, 72, 0
4, 824640, Note_on_c, 0, 65, 0
4, 824640, Note_on_c, 0, 69, 0
4, 824640, Note_on_c, 0, 75, 0
4, 825120, Note_on_c, 0, 65, 34
4, 825120, Note_on_c, 0, 70, 34
4, 825120, Note_on_c, 0, 73, 34
4, 825120, Note_on_c, 0, 77, 34
4, 825600, Note_on_c, 0, 77, 0
4, 825600, Note_on_c, 0, 65, 0
4, 825600, Note_on_c, 0, 70, 0
4, 825600, Note_on_c, 0, 73, 0
4, 826080, Note_on_c, 0, 65, 34
4, 826080, Note_on_c, 0, 70, 34
4, 826080, Note_on_c, 0, 73, 34
4, 826080, Note_on_c, 0, 77, 34
4, 826560, Note_on_c, 0, 77, 0
4, 826560, Note_on_c, 0, 65, 0
4, 826560, Note_on_c, 0, 70, 0
4, 826560, Note_on_c, 0, 73, 0
4, 827040, Note_on_c, 0, 65, 34
4, 827040, Note_on_c, 0, 69, 34
4, 827040, Note_on_c, 0, 72, 34
4, 827040, Note_on_c, 0, 75, 34
4, 827040, Note_on_c, 0, 77, 34
4, 827520, Note_on_c, 0, 77, 0
4, 827520, Note_on_c, 0, 72, 0
4, 827520, Note_on_c, 0, 65, 0
4, 827520, Note_on_c, 0, 69, 0
4, 827520, Note_on_c, 0, 75, 0
4, 828000, Note_on_c, 0, 65, 34
4, 828000, Note_on_c, 0, 69, 34
4, 828000, Note_on_c, 0, 72, 34
4, 828000, Note_on_c, 0, 75, 34
4, 828000, Note_on_c, 0, 77, 34
4, 828480, Note_on_c, 0, 77, 0
4, 828480, Note_on_c, 0, 72, 0
4, 828480, Note_on_c, 0, 65, 0
4, 828480, Note_on_c, 0, 69, 0
4, 828480, Note_on_c, 0, 75, 0
4, 828960, Note_on_c, 0, 65, 34
4, 828960, Note_on_c, 0, 70, 34
4, 828960, Note_on_c, 0, 73, 34
4, 828960, Note_on_c, 0, 77, 34
4, 829440, Note_on_c, 0, 77, 0
4, 829440, Note_on_c, 0, 65, 0
4, 829440, Note_on_c, 0, 70, 0
4, 829440, Note_on_c, 0, 73, 0
4, 829920, Note_on_c, 0, 65, 34
4, 829920, Note_on_c, 0, 70, 34
4, 829920, Note_on_c, 0, 73, 34
4, 829920, Note_on_c, 0, 77, 34
4, 830400, Note_on_c, 0, 77, 0
4, 830400, Note_on_c, 0, 65, 0
4, 830400, Note_on_c, 0, 70, 0
4, 830400, Note_on_c, 0, 73, 0
4, 830880, Note_on_c, 0, 65, 34
4, 830880, Note_on_c, 0, 69, 34
4, 830880, Note_on_c, 0, 72, 34
4, 830880, Note_on_c, 0, 75, 34
4, 830880, Note_on_c, 0, 77, 34
4, 831360, Note_on_c, 0, 77, 0
4, 831360, Note_on_c, 0, 72, 0
4, 831360, Note_on_c, 0, 65, 0
4, 831360, Note_on_c, 0, 69, 0
4, 831360, Note_on_c, 0, 75, 0
4, 831840, Note_on_c, 0, 65, 34
4, 831840, Note_on_c, 0, 69, 34
4, 831840, Note_on_c, 0, 72, 34
4, 831840, Note_on_c, 0, 75, 34
4, 831840, Note_on_c, 0, 77, 34
4, 832320, Note_on_c, 0, 77, 0
4, 832320, Note_on_c, 0, 72, 0
4, 832320, Note_on_c, 0, 65, 0
4, 832320, Note_on_c, 0, 69, 0
4, 832320, Note_on_c, 0, 75, 0
4, 832800, Note_on_c, 0, 65, 34
4, 832800, Note_on_c, 0, 70, 34
4, 832800, Note_on_c, 0, 73, 34
4, 832800, Note_on_c, 0, 77, 34
4, 833280, Note_on_c, 0, 77, 0
4, 833280, Note_on_c, 0, 65, 0
4, 833280, Note_on_c, 0, 70, 0
4, 833280, Note_on_c, 0, 73, 0
4, 833760, Note_on_c, 0, 65, 34
4, 833760, Note_on_c, 0, 70, 34
4, 833760, Note_on_c, 0, 73, 34
4, 833760, Note_on_c, 0, 77, 34
4, 834240, Note_on_c, 0, 77, 0
4, 834240, Note_on_c, 0, 65, 0
4, 834240, Note_on_c, 0, 70, 0
4, 834240, Note_on_c, 0, 73, 0
4, 834720, Note_on_c, 0, 65, 34
4, 834720, Note_on_c, 0, 68, 34
4, 834720, Note_on_c, 0, 74, 34
4, 834720, Note_on_c, 0, 77, 34
4, 835200, Note_on_c, 0, 77, 0
4, 835200, Note_on_c, 0, 65, 0
4, 835200, Note_on_c, 0, 68, 0
4, 835200, Note_on_c, 0, 74, 0
4, 835680, Note_on_c, 0, 65, 34
4, 835680, Note_on_c, 0, 67, 34
4, 835680, Note_on_c, 0, 74, 34
4, 835680, Note_on_c, 0, 77, 34
4, 836160, Note_on_c, 0, 77, 0
4, 836160, Note_on_c, 0, 65, 0
4, 836160, Note_on_c, 0, 67, 0
4, 836160, Note_on_c, 0, 74, 0
4, 836640, Note_on_c, 0, 63, 34
4, 836640, Note_on_c, 0, 67, 34
4, 836640, Note_on_c, 0, 72, 34
4, 836640, Note_on_c, 0, 75, 34
4, 837120, Note_on_c, 0, 75, 0
4, 837120, Note_on_c, 0, 63, 0
4, 837120, Note_on_c, 0, 67, 0
4, 837120, Note_on_c, 0, 72, 0
4, 837600, Note_on_c, 0, 63, 34
4, 837600, Note_on_c, 0, 67, 34
4, 837600, Note_on_c, 0, 72, 34
4, 837600, Note_on_c, 0, 75, 34
4, 838080, Note_on_c, 0, 75, 0
4, 838080, Note_on_c, 0, 63, 0
4, 838080, Note_on_c, 0, 67, 0
4, 838080, Note_on_c, 0, 72, 0
4, 838560, Note_on_c, 0, 62, 34
4, 838560, Note_on_c, 0, 65, 34
4, 838560, Note_on_c, 0, 71, 34
4, 838560, Note_on_c, 0, 74, 34
4, 839040, Note_on_c, 0, 74, 0
4, 839040, Note_on_c, 0, 62, 0
4, 839040, Note_on_c, 0, 65, 0
4, 839040, Note_on_c, 0, 71, 0
4, 839520, Note_on_c, 0, 62, 34
4, 839520, Note_on_c, 0, 65, 34
4, 839520, Note_on_c, 0, 71, 34
4, 839520, Note_on_c, 0, 74, 34
4, 840000, Note_on_c, 0, 74, 0
4, 840000, Note_on_c, 0, 62, 0
4, 840000, Note_on_c, 0, 65, 0
4, 840000, Note_on_c, 0, 71, 0
4, 840480, Note_on_c, 0, 63, 34
4, 840480, Note_on_c, 0, 67, 34
4, 840480, Note_on_c, 0, 72, 34
4, 840480, Note_on_c, 0, 75, 34
4, 840960, Note_on_c, 0, 75, 0
4, 840960, Note_on_c, 0, 63, 0
4, 840960, Note_on_c, 0, 67, 0
4, 840960, Note_on_c, 0, 72, 0
4, 842400, Note_on_c, 0, 55, 34
4, 842400, Note_on_c, 0, 60, 34
4, 842400, Note_on_c, 0, 63, 34
4, 842400, Note_on_c, 0, 67, 34
4, 842880, Note_on_c, 0, 67, 0
4, 842880, Note_on_c, 0, 55, 0
4, 842880, Note_on_c, 0, 60, 0
4, 842880, Note_on_c, 0, 63, 0
4, 849600, Note_on_c, 0, 67, 47
4, 849600, Note_on_c, 0, 72, 47
4, 849600, Note_on_c, 0, 79, 47
4, 850080, Note_on_c, 0, 79, 0
4, 850080, Note_on_c, 0, 72, 0
4, 850080, Note_on_c, 0, 67, 0
4, 850080, Note_on_c, 0, 62, 47
4, 850080, Note_on_c, 0, 68, 47
4, 850080, Note_on_c, 0, 72, 47
4, 850080, Note_on_c, 0, 74, 47
4, 851040, Note_on_c, 0, 74, 0
4, 851040, Note_on_c, 0, 62, 0
4, 851040, Note_on_c, 0, 68, 0
4, 851040, Note_on_c, 0, 72, 0
4, 851040, Note_on_c, 0, 63, 47
4, 851040, Note_on_c, 0, 67, 47
4, 851040, Note_on_c, 0, 72, 47
4, 851040, Note_on_c, 0, 75, 47
4, 851520, Note_on_c, 0, 75, 0
4, 851520, Note_on_c, 0, 63, 0
4, 851520, Note_on_c, 0, 67, 0
4, 851520, Note_on_c, 0, 72, 0
4, 853440, Note_on_c, 0, 63, 47
4, 853440, Note_on_c, 0, 67, 47
4, 853440, Note_on_c, 0, 72, 47
4, 853440, Note_on_c, 0, 75, 47
4, 853920, Note_on_c, 0, 75, 0
4, 853920, Note_on_c, 0, 63, 0
4, 853920, Note_on_c, 0, 67, 0
4, 853920, Note_on_c, 0, 72, 0
4, 853920, Note_on_c, 0, 60, 47
4, 853920, Note_on_c, 0, 63, 47
4, 853920, Note_on_c, 0, 66, 47
4, 854880, Note_on_c, 0, 66, 0
4, 854880, Note_on_c, 0, 63, 0
4, 854880, Note_on_c, 0, 60, 0
4, 854880, Note_on_c, 0, 60, 47
4, 854880, Note_on_c, 0, 63, 47
4, 854880, Note_on_c, 0, 67, 47
4, 855360, Note_on_c, 0, 67, 0
4, 855360, Note_on_c, 0, 63, 0
4, 855360, Note_on_c, 0, 60, 0
4, 859440, Note_on_c, 0, 60, 21
4, 859440, Note_on_c, 0, 63, 21
4, 859440, Note_on_c, 0, 67, 21
4, 859920, Note_on_c, 0, 67, 0
4, 859920, Note_on_c, 0, 63, 0
4, 859920, Note_on_c, 0, 60, 0
4, 859920, Note_on_c, 0, 60, 21
4, 859920, Note_on_c, 0, 63, 21
4, 859920, Note_on_c, 0, 67, 21
4, 860400, Note_on_c, 0, 67, 0
4, 860400, Note_on_c, 0, 63, 0
4, 860400, Note_on_c, 0, 60, 0
4, 860400, Note_on_c, 0, 60, 21
4, 860400, Note_on_c, 0, 63, 21
4, 860400, Note_on_c, 0, 67, 21
4, 860880, Note_on_c, 0, 67, 0
4, 860880, Note_on_c, 0, 63, 0
4, 860880, Note_on_c, 0, 60, 0
4, 860880, Note_on_c, 0, 60, 21
4, 860880, Note_on_c, 0, 63, 21
4, 860880, Note_on_c, 0, 67, 21
4, 861120, Note_on_c, 0, 67, 0
4, 861120, Note_on_c, 0, 63, 0
4, 861120, Note_on_c, 0, 60, 0
4, 861360, Note_on_c, 0, 60, 21
4, 861360, Note_on_c, 0, 63, 21
4, 861360, Note_on_c, 0, 67, 21
4, 861840, Note_on_c, 0, 67, 0
4, 861840, Note_on_c, 0, 63, 0
4, 861840, Note_on_c, 0, 60, 0
4, 861840, Note_on_c, 0, 60, 21
4, 861840, Note_on_c, 0, 63, 21
4, 861840, Note_on_c, 0, 67, 21
4, 862320, Note_on_c, 0, 67, 0
4, 862320, Note_on_c, 0, 63, 0
4, 862320, Note_on_c, 0, 60, 0
4, 862320, Note_on_c, 0, 60, 21
4, 862320, Note_on_c, 0, 63, 21
4, 862320, Note_on_c, 0, 67, 21
4, 862800, Note_on_c, 0, 67, 0
4, 862800, Note_on_c, 0, 63, 0
4, 862800, Note_on_c, 0, 60, 0
4, 862800, Note_on_c, 0, 60, 21
4, 862800, Note_on_c, 0, 63, 21
4, 862800, Note_on_c, 0, 67, 21
4, 863040, Note_on_c, 0, 67, 0
4, 863040, Note_on_c, 0, 63, 0
4, 863040, Note_on_c, 0, 60, 0
4, 863280, Note_on_c, 0, 60, 21
4, 863280, Note_on_c, 0, 63, 21
4, 863280, Note_on_c, 0, 67, 21
4, 863760, Note_on_c, 0, 67, 0
4, 863760, Note_on_c, 0, 63, 0
4, 863760, Note_on_c, 0, 60, 0
4, 863760, Note_on_c, 0, 60, 21
4, 863760, Note_on_c, 0, 63, 21
4, 863760, Note_on_c, 0, 67, 21
4, 864240, Note_on_c, 0, 67, 0
4, 864240, Note_on_c, 0, 63, 0
4, 864240, Note_on_c, 0, 60, 0
4, 864240, Note_on_c, 0, 60, 21
4, 864240, Note_on_c, 0, 63, 21
4, 864240, Note_on_c, 0, 67, 21
4, 864720, Note_on_c, 0, 67, 0
4, 864720, Note_on_c, 0, 63, 0
4, 864720, Note_on_c, 0, 60, 0
4, 864720, Note_on_c, 0, 60, 21
4, 864720, Note_on_c, 0, 63, 21
4, 864720, Note_on_c, 0, 67, 21
4, 864960, Note_on_c, 0, 67, 0
4, 864960, Note_on_c, 0, 63, 0
4, 864960, Note_on_c, 0, 60, 0
4, 865200, Note_on_c, 0, 60, 34
4, 865200, Note_on_c, 0, 65, 34
4, 865440, Note_on_c, 0, 65, 0
4, 865440, Note_on_c, 0, 60, 0
4, 865680, Note_on_c, 0, 58, 34
4, 865680, Note_on_c, 0, 65, 34
4, 865920, Note_on_c, 0, 65, 0
4, 865920, Note_on_c, 0, 58, 0
4, 866160, Note_on_c, 0, 59, 34
4, 866160, Note_on_c, 0, 62, 34
4, 866400, Note_on_c, 0, 62, 0
4, 866400, Note_on_c, 0, 59, 0
4, 866640, Note_on_c, 0, 60, 34
4, 866880, Note_on_c, 0, 60, 0
4, 868320, Note_on_c, 0, 55, 34
4, 868800, Note_on_c, 0, 55, 0
4, 869040, Note_on_c, 0, 60, 34
4, 869280, Note_on_c, 0, 60, 0
4, 869280, Note_on_c, 0, 62, 34
4, 869520, Note_on_c, 0, 62, 0
4, 869520, Note_on_c, 0, 62, 34
4, 869760, Note_on_c, 0, 62, 0
4, 869760, Note_on_c, 0, 60, 34
4, 870000, Note_on_c, 0, 60, 0
4, 870000, Note_on_c, 0, 60, 34
4, 870240, Note_on_c, 0, 60, 0
4, 870720, Note_on_c, 0, 50, 34
4, 871200, Note_on_c, 0, 50, 0
4, 871200, Note_on_c, 0, 52, 34
4, 871680, Note_on_c, 0, 52, 0
4, 871680, Note_on_c, 0, 57, 34
4, 872160, Note_on_c, 0, 57, 0
4, 872160, Note_on_c, 0, 58, 34
4, 872400, Note_on_c, 0, 58, 0
4, 872640, Note_on_c, 0, 58, 47
4, 873120, Note_on_c, 0, 58, 0
4, 873120, Note_on_c, 0, 56, 47
4, 874080, Note_on_c, 0, 56, 0
4, 874080, Note_on_c, 0, 57, 34
4, 874560, Note_on_c, 0, 57, 0
4, 874560, Note_on_c, 0, 58, 47
4, 874560, Note_on_c, 0, 60, 47
4, 876480, Note_on_c, 0, 60, 0
4, 876480, Note_on_c, 0, 58, 0
4, 876480, Note_on_c, 0, 63, 47
4, 876720, Note_on_c, 0, 63, 0
4, 876720, Note_on_c, 0, 63, 47
4, 877200, Note_on_c, 0, 63, 0
4, 877200, Note_on_c, 0, 63, 47
4, 877680, Note_on_c, 0, 63, 0
4, 877680, Note_on_c, 0, 63, 47
4, 878160, Note_on_c, 0, 63, 0
4, 878160, Note_on_c, 0, 63, 60
4, 878400, Note_on_c, 0, 63, 0
4, 878400, Note_on_c, 0, 63, 60
4, 878400, Note_on_c, 0, 67, 60
4, 878880, Note_on_c, 0, 67, 0
4, 878880, Note_on_c, 0, 63, 0
4, 878880, Note_on_c, 0, 63, 60
4, 878880, Note_on_c, 0, 67, 60
4, 879360, Note_on_c, 0, 67, 0
4, 879360, Note_on_c, 0, 63, 0
4, 879360, Note_on_c, 0, 65, 60
4, 879360, Note_on_c, 0, 69, 60
4, 879600, Note_on_c, 0, 69, 0
4, 879600, Note_on_c, 0, 65, 0
4, 879600, Note_on_c, 0, 65, 60
4, 879600, Note_on_c, 0, 69, 60
4, 879840, Note_on_c, 0, 69, 0
4, 879840, Note_on_c, 0, 65, 0
4, 879840, Note_on_c, 0, 64, 60
4, 879840, Note_on_c, 0, 67, 60
4, 880080, Note_on_c, 0, 67, 0
4, 880080, Note_on_c, 0, 64, 0
4, 880080, Note_on_c, 0, 64, 60
4, 880080, Note_on_c, 0, 67, 60
4, 880320, Note_on_c, 0, 67, 0
4, 880320, Note_on_c, 0, 64, 0
4, 880320, Note_on_c, 0, 53, 60
4, 880320, Note_on_c, 0, 60, 60
4, 880320, Note_on_c, 0, 65, 60
4, 880800, Note_on_c, 0, 65, 0
4, 880800, Note_on_c, 0, 60, 0
4, 880800, Note_on_c, 0, 53, 0
4, 880800, Note_on_c, 0, 55, 60
4, 880800, Note_on_c, 0, 60, 60
4, 880800, Note_on_c, 0, 65, 60
4, 881280, Note_on_c, 0, 65, 0
4, 881280, Note_on_c, 0, 60, 0
4, 881280, Note_on_c, 0, 55, 0
4, 881280, Note_on_c, 0, 60, 47
4, 882240, Note_on_c, 0, 60, 0
4, 882240, Note_on_c, 0, 62, 47
4, 883200, Note_on_c, 0, 62, 0
4, 883200, Note_on_c, 0, 62, 60
4, 883200, Note_on_c, 0, 65, 60
4, 883440, Note_on_c, 0, 65, 0
4, 883440, Note_on_c, 0, 62, 0
4, 883440, Note_on_c, 0, 62, 60
4, 883440, Note_on_c, 0, 65, 60
4, 883920, Note_on_c, 0, 65, 0
4, 883920, Note_on_c, 0, 62, 0
4, 883920, Note_on_c, 0, 62, 60
4, 883920, Note_on_c, 0, 65, 60
4, 884400, Note_on_c, 0, 65, 0
4, 884400, Note_on_c, 0, 62, 0
4, 884400, Note_on_c, 0, 62, 60
4, 884400, Note_on_c, 0, 65, 60
4, 884880, Note_on_c, 0, 65, 0
4, 884880, Note_on_c, 0, 62, 0
4, 884880, Note_on_c, 0, 62, 60
4, 884880, Note_on_c, 0, 65, 60
4, 885120, Note_on_c, 0, 65, 0
4, 885120, Note_on_c, 0, 62, 0
4, 885120, Note_on_c, 0, 64, 60
4, 885120, Note_on_c, 0, 67, 60
4, 885360, Note_on_c, 0, 67, 0
4, 885360, Note_on_c, 0, 64, 0
4, 885360, Note_on_c, 0, 64, 60
4, 885360, Note_on_c, 0, 67, 60
4, 885840, Note_on_c, 0, 67, 0
4, 885840, Note_on_c, 0, 64, 0
4, 885840, Note_on_c, 0, 64, 60
4, 885840, Note_on_c, 0, 67, 60
4, 886320, Note_on_c, 0, 67, 0
4, 886320, Note_on_c, 0, 64, 0
4, 886320, Note_on_c, 0, 64, 60
4, 886320, Note_on_c, 0, 67, 60
4, 886800, Note_on_c, 0, 67, 0
4, 886800, Note_on_c, 0, 64, 0
4, 886800, Note_on_c, 0, 64, 60
4, 886800, Note_on_c, 0, 67, 60
4, 887040, Note_on_c, 0, 67, 0
4, 887040, Note_on_c, 0, 64, 0
4, 887040, Note_on_c, 0, 62, 60
4, 887040, Note_on_c, 0, 65, 60
4, 887280, Note_on_c, 0, 65, 0
4, 887280, Note_on_c, 0, 62, 0
4, 887280, Note_on_c, 0, 62, 60
4, 887280, Note_on_c, 0, 65, 60
4, 887760, Note_on_c, 0, 65, 0
4, 887760, Note_on_c, 0, 62, 0
4, 887760, Note_on_c, 0, 62, 60
4, 887760, Note_on_c, 0, 65, 60
4, 888240, Note_on_c, 0, 65, 0
4, 888240, Note_on_c, 0, 62, 0
4, 888240, Note_on_c, 0, 62, 60
4, 888240, Note_on_c, 0, 65, 60
4, 888720, Note_on_c, 0, 65, 0
4, 888720, Note_on_c, 0, 62, 0
4, 888720, Note_on_c, 0, 62, 60
4, 888720, Note_on_c, 0, 65, 60
4, 888960, Note_on_c, 0, 65, 0
4, 888960, Note_on_c, 0, 62, 0
4, 888960, Note_on_c, 0, 64, 60
4, 888960, Note_on_c, 0, 67, 60
4, 889200, Note_on_c, 0, 67, 0
4, 889200, Note_on_c, 0, 64, 0
4, 889200, Note_on_c, 0, 64, 60
4, 889200, Note_on_c, 0, 67, 60
4, 889680, Note_on_c, 0, 67, 0
4, 889680, Note_on_c, 0, 64, 0
4, 889680, Note_on_c, 0, 64, 60
4, 889680, Note_on_c, 0, 67, 60
4, 890160, Note_on_c, 0, 67, 0
4, 890160, Note_on_c, 0, 64, 0
4, 890160, Note_on_c, 0, 64, 60
4, 890160, Note_on_c, 0, 67, 60
4, 890640, Note_on_c, 0, 67, 0
4, 890640, Note_on_c, 0, 64, 0
4, 890640, Note_on_c, 0, 64, 60
4, 890640, Note_on_c, 0, 67, 60
4, 890880, Note_on_c, 0, 67, 0
4, 890880, Note_on_c, 0, 64, 0
4, 890880, Note_on_c, 0, 62, 60
4, 890880, Note_on_c, 0, 65, 60
4, 891120, Note_on_c, 0, 65, 0
4, 891120, Note_on_c, 0, 62, 0
4, 891120, Note_on_c, 0, 62, 60
4, 891120, Note_on_c, 0, 65, 60
4, 891600, Note_on_c, 0, 65, 0
4, 891600, Note_on_c, 0, 62, 0
4, 891600, Note_on_c, 0, 62, 60
4, 891600, Note_on_c, 0, 65, 60
4, 891840, Note_on_c, 0, 65, 0
4, 891840, Note_on_c, 0, 62, 0
4, 892320, Note_on_c, 0, 50, 47
4, 892800, Note_on_c, 0, 50, 0
4, 892800, Note_on_c, 0, 52, 47
4, 893760, Note_on_c, 0, 52, 0
4, 893760, Note_on_c, 0, 53, 34
4, 894240, Note_on_c, 0, 53, 0
4, 894240, Note_on_c, 0, 57, 34
4, 894660, Note_on_c, 0, 45, 34
4, 894720, Note_on_c, 0, 57, 0
4, 894720, Note_on_c, 0, 59, 34
4, 895680, Note_on_c, 0, 59, 0
4, 895680, Note_on_c, 0, 45, 0
4, 895680, Note_on_c, 0, 58, 34
4, 896160, Note_on_c, 0, 58, 0
4, 896160, Note_on_c, 0, 62, 47
4, 896640, Note_on_c, 0, 62, 0
4, 896640, Note_on_c, 0, 60, 47
4, 897120, Note_on_c, 0, 60, 0
4, 897120, Note_on_c, 0, 61, 34
4, 897600, Note_on_c, 0, 61, 0
4, 897600, Note_on_c, 0, 53, 34
4, 897600, Note_on_c, 0, 57, 34
4, 897600, Note_on_c, 0, 62, 34
4, 898080, Note_on_c, 0, 62, 0
4, 898080, Note_on_c, 0, 57, 0
4, 898080, Note_on_c, 0, 53, 0
4, 899520, Note_on_c, 0, 60, 34
4, 899520, Note_on_c, 0, 63, 34
4, 899520, Note_on_c, 0, 67, 34
4, 901440, Note_on_c, 0, 67, 0
4, 901440, Note_on_c, 0, 63, 0
4, 901440, Note_on_c, 0, 60, 0
4, 901440, Note_on_c, 0, 60, 34
4, 901440, Note_on_c, 0, 63, 34
4, 901440, Note_on_c, 0, 67, 34
4, 903360, Note_on_c, 0, 67, 0
4, 903360, Note_on_c, 0, 63, 0
4, 903360, Note_on_c, 0, 60, 0
4, 903360, Note_on_c, 0, 60, 34
4, 903360, Note_on_c, 0, 63, 34
4, 903360, Note_on_c, 0, 72, 34
4, 904800, Note_on_c, 0, 72, 0
4, 904800, Note_on_c, 0, 63, 0
4, 904800, Note_on_c, 0, 60, 0
4, 904800, Note_on_c, 0, 70, 34
4, 905280, Note_on_c, 0, 70, 0
4, 905280, Note_on_c, 0, 60, 34
4, 905280, Note_on_c, 0, 63, 34
4, 905280, Note_on_c, 0, 69, 34
4, 905760, Note_on_c, 0, 69, 0
4, 905760, Note_on_c, 0, 63, 0
4, 905760, Note_on_c, 0, 60, 0
4, 905760, Note_on_c, 0, 67, 34
4, 906240, Note_on_c, 0, 67, 0
4, 906240, Note_on_c, 0, 59, 34
4, 906240, Note_on_c, 0, 62, 34
4, 906240, Note_on_c, 0, 65, 34
4, 906720, Note_on_c, 0, 62, 0
4, 906720, Note_on_c, 0, 59, 0
4, 906720, Note_on_c, 0, 60, 34
4, 907200, Note_on_c, 0, 60, 0
4, 907200, Note_on_c, 0, 65, 0
4, 907200, Note_on_c, 0, 62, 34
4, 907200, Note_on_c, 0, 65, 34
4, 907680, Note_on_c, 0, 65, 0
4, 907680, Note_on_c, 0, 62, 0
4, 908160, Note_on_c, 0, 63, 34
4, 908160, Note_on_c, 0, 67, 34
4, 908160, Note_on_c, 0, 71, 34
4, 909600, Note_on_c, 0, 71, 0
4, 909600, Note_on_c, 0, 67, 0
4, 909600, Note_on_c, 0, 63, 0
4, 909600, Note_on_c, 0, 62, 34
4, 909600, Note_on_c, 0, 67, 34
4, 909600, Note_on_c, 0, 71, 34
4, 910080, Note_on_c, 0, 71, 0
4, 910080, Note_on_c, 0, 67, 0
4, 910080, Note_on_c, 0, 62, 0
4, 910080, Note_on_c, 0, 60, 34
4, 910080, Note_on_c, 0, 67, 34
4, 910080, Note_on_c, 0, 72, 34
4, 910560, Note_on_c, 0, 72, 0
4, 910560, Note_on_c, 0, 67, 0
4, 910560, Note_on_c, 0, 60, 0
4, 912960, Note_on_c, 0, 59, 34
4, 912960, Note_on_c, 0, 62, 34
4, 912960, Note_on_c, 0, 68, 34
4, 913920, Note_on_c, 0, 68, 0
4, 913920, Note_on_c, 0, 62, 0
4, 913920, Note_on_c, 0, 59, 0
4, 914400, Note_on_c, 0, 60, 34
4, 914400, Note_on_c, 0, 63, 34
4, 914400, Note_on_c, 0, 69, 34
4, 914880, Note_on_c, 0, 69, 0
4, 914880, Note_on_c, 0, 63, 0
4, 914880, Note_on_c, 0, 60, 0
4, 914880, Note_on_c, 0, 75, 60
4, 915360, Note_on_c, 0, 75, 0
4, 915360, Note_on_c, 0, 71, 60
4, 916320, Note_on_c, 0, 71, 0
4, 916320, Note_on_c, 0, 72, 60
4, 916800, Note_on_c, 0, 72, 0
4, 916800, Note_on_c, 0, 79, 60
4, 917280, Note_on_c, 0, 79, 0
4, 917280, Note_on_c, 0, 74, 60
4, 918240, Note_on_c, 0, 74, 0
4, 918240, Note_on_c, 0, 75, 60
4, 918720, Note_on_c, 0, 75, 0
4, 918720, Note_on_c, 0, 70, 60
4, 918720, Note_on_c, 0, 82, 60
4, 919200, Note_on_c, 0, 82, 0
4, 919200, Note_on_c, 0, 70, 0
4, 919200, Note_on_c, 0, 69, 60
4, 919200, Note_on_c, 0, 81, 60
4, 919680, Note_on_c, 0, 81, 0
4, 919680, Note_on_c, 0, 69, 0
4, 919680, Note_on_c, 0, 74, 60
4, 919680, Note_on_c, 0, 81, 60
4, 919680, Note_on_c, 0, 86, 60
4, 920160, Note_on_c, 0, 86, 0
4, 920160, Note_on_c, 0, 81, 0
4, 920160, Note_on_c, 0, 74, 0
4, 920160, Note_on_c, 0, 72, 60
4, 920160, Note_on_c, 0, 74, 60
4, 920160, Note_on_c, 0, 81, 60
4, 920160, Note_on_c, 0, 84, 60
4, 920640, Note_on_c, 0, 84, 0
4, 920640, Note_on_c, 0, 72, 0
4, 920640, Note_on_c, 0, 74, 0
4, 920640, Note_on_c, 0, 81, 0
4, 920640, Note_on_c, 0, 70, 60
4, 920640, Note_on_c, 0, 74, 60
4, 920640, Note_on_c, 0, 79, 60
4, 920640, Note_on_c, 0, 82, 60
4, 921120, Note_on_c, 0, 82, 0
4, 921120, Note_on_c, 0, 70, 0
4, 921120, Note_on_c, 0, 74, 0
4, 921120, Note_on_c, 0, 79, 0
4, 921120, Note_on_c, 0, 66, 60
4, 921120, Note_on_c, 0, 69, 60
4, 921120, Note_on_c, 0, 74, 60
4, 921120, Note_on_c, 0, 78, 60
4, 921600, Note_on_c, 0, 78, 0
4, 921600, Note_on_c, 0, 66, 0
4, 921600, Note_on_c, 0, 69, 0
4, 921600, Note_on_c, 0, 74, 0
4, 921600, Note_on_c, 0, 67, 60
4, 921600, Note_on_c, 0, 74, 60
4, 921600, Note_on_c, 0, 79, 60
4, 922080, Note_on_c, 0, 79, 0
4, 922080, Note_on_c, 0, 74, 0
4, 922080, Note_on_c, 0, 67, 0
4, 922080, Note_on_c, 0, 62, 60
4, 922080, Note_on_c, 0, 67, 60
4, 922080, Note_on_c, 0, 74, 60
4, 922560, Note_on_c, 0, 74, 0
4, 922560, Note_on_c, 0, 67, 0
4, 922560, Note_on_c, 0, 62, 0
4, 922560, Note_on_c, 0, 63, 60
4, 922560, Note_on_c, 0, 75, 60
4, 923040, Note_on_c, 0, 75, 0
4, 923040, Note_on_c, 0, 63, 0
4, 923040, Note_on_c, 0, 63, 60
4, 923040, Note_on_c, 0, 75, 60
4, 923520, Note_on_c, 0, 75, 0
4, 923520, Note_on_c, 0, 63, 0
4, 923520, Note_on_c, 0, 69, 60
4, 923520, Note_on_c, 0, 81, 60
4, 924000, Note_on_c, 0, 81, 0
4, 924000, Note_on_c, 0, 69, 0
4, 924000, Note_on_c, 0, 67, 60
4, 924000, Note_on_c, 0, 79, 60
4, 924480, Note_on_c, 0, 79, 0
4, 924480, Note_on_c, 0, 67, 0
4, 924480, Note_on_c, 0, 65, 60
4, 924480, Note_on_c, 0, 77, 60
4, 926880, Note_on_c, 0, 77, 0
4, 926880, Note_on_c, 0, 65, 0
4, 926880, Note_on_c, 0, 65, 60
4, 926880, Note_on_c, 0, 77, 60
4, 927360, Note_on_c, 0, 77, 0
4, 927360, Note_on_c, 0, 65, 0
4, 927360, Note_on_c, 0, 69, 60
4, 927360, Note_on_c, 0, 81, 60
4, 927840, Note_on_c, 0, 81, 0
4, 927840, Note_on_c, 0, 69, 0
4, 927840, Note_on_c, 0, 67, 60
4, 927840, Note_on_c, 0, 79, 60
4, 928320, Note_on_c, 0, 79, 0
4, 928320, Note_on_c, 0, 67, 0
4, 928320, Note_on_c, 0, 65, 60
4, 928320, Note_on_c, 0, 75, 60
4, 928320, Note_on_c, 0, 77, 60
4, 929280, Note_on_c, 0, 75, 0
4, 929280, Note_on_c, 0, 73, 60
4, 930240, Note_on_c, 0, 73, 0
4, 930240, Note_on_c, 0, 74, 60
4, 930720, Note_on_c, 0, 74, 0
4, 930720, Note_on_c, 0, 77, 0
4, 930720, Note_on_c, 0, 65, 0
4, 930720, Note_on_c, 0, 65, 60
4, 930720, Note_on_c, 0, 74, 60
4, 930720, Note_on_c, 0, 77, 60
4, 931680, Note_on_c, 0, 77, 0
4, 931680, Note_on_c, 0, 74, 0
4, 931680, Note_on_c, 0, 65, 0
4, 931680, Note_on_c, 0, 67, 60
4, 931680, Note_on_c, 0, 74, 60
4, 931680, Note_on_c, 0, 77, 60
4, 931680, Note_on_c, 0, 79, 60
4, 932640, Note_on_c, 0, 79, 0
4, 932640, Note_on_c, 0, 67, 0
4, 932640, Note_on_c, 0, 74, 0
4, 932640, Note_on_c, 0, 77, 0
4, 932640, Note_on_c, 0, 67, 60
4, 932640, Note_on_c, 0, 76, 60
4, 932640, Note_on_c, 0, 79, 60
4, 933600, Note_on_c, 0, 79, 0
4, 933600, Note_on_c, 0, 76, 0
4, 933600, Note_on_c, 0, 67, 0
4, 933600, Note_on_c, 0, 69, 60
4, 933600, Note_on_c, 0, 76, 60
4, 933600, Note_on_c, 0, 79, 60
4, 933600, Note_on_c, 0, 81, 60
4, 934560, Note_on_c, 0, 81, 0
4, 934560, Note_on_c, 0, 69, 0
4, 934560, Note_on_c, 0, 76, 0
4, 934560, Note_on_c, 0, 79, 0
4, 934560, Note_on_c, 0, 69, 60
4, 934560, Note_on_c, 0, 77, 60
4, 934560, Note_on_c, 0, 81, 60
4, 935520, Note_on_c, 0, 81, 0
4, 935520, Note_on_c, 0, 77, 0
4, 935520, Note_on_c, 0, 69, 0
4, 935520, Note_on_c, 0, 70, 60
4, 935520, Note_on_c, 0, 77, 60
4, 935520, Note_on_c, 0, 80, 60
4, 935520, Note_on_c, 0, 82, 60
4, 936480, Note_on_c, 0, 82, 0
4, 936480, Note_on_c, 0, 70, 0
4, 936480, Note_on_c, 0, 77, 0
4, 936480, Note_on_c, 0, 80, 0
4, 936480, Note_on_c, 0, 70, 60
4, 936480, Note_on_c, 0, 79, 60
4, 936480, Note_on_c, 0, 82, 60
4, 937440, Note_on_c, 0, 82, 0
4, 937440, Note_on_c, 0, 79, 0
4, 937440, Note_on_c, 0, 70, 0
4, 937440, Note_on_c, 0, 72, 60
4, 937440, Note_on_c, 0, 79, 60
4, 937440, Note_on_c, 0, 82, 60
4, 937440, Note_on_c, 0, 84, 60
4, 937920, Note_on_c, 0, 84, 0
4, 937920, Note_on_c, 0, 72, 0
4, 937920, Note_on_c, 0, 73, 60
4, 937920, Note_on_c, 0, 85, 60
4, 938400, Note_on_c, 0, 85, 0
4, 938400, Note_on_c, 0, 79, 0
4, 938400, Note_on_c, 0, 82, 0
4, 938400, Note_on_c, 0, 73, 0
4, 938400, Note_on_c, 0, 74, 60
4, 938400, Note_on_c, 0, 77, 60
4, 938400, Note_on_c, 0, 82, 60
4, 938400, Note_on_c, 0, 86, 60
4, 938880, Note_on_c, 0, 86, 0
4, 938880, Note_on_c, 0, 74, 0
4, 938880, Note_on_c, 0, 77, 0
4, 938880, Note_on_c, 0, 82, 0
4, 938880, Note_on_c, 0, 75, 60
4, 938880, Note_on_c, 0, 82, 60
4, 938880, Note_on_c, 0, 87, 60
4, 939360, Note_on_c, 0, 87, 0
4, 939360, Note_on_c, 0, 82, 0
4, 939360, Note_on_c, 0, 75, 0
4, 939360, Note_on_c, 0, 73, 60
4, 939360, Note_on_c, 0, 76, 60
4, 939360, Note_on_c, 0, 82, 60
4, 939360, Note_on_c, 0, 85, 60
4, 939840, Note_on_c, 0, 85, 0
4, 939840, Note_on_c, 0, 73, 0
4, 939840, Note_on_c, 0, 76, 0
4, 939840, Note_on_c, 0, 82, 0
4, 939840, Note_on_c, 0, 74, 60
4, 939840, Note_on_c, 0, 77, 60
4, 939840, Note_on_c, 0, 82, 60
4, 939840, Note_on_c, 0, 86, 60
4, 940320, Note_on_c, 0, 86, 0
4, 940320, Note_on_c, 0, 74, 0
4, 940320, Note_on_c, 0, 77, 0
4, 940320, Note_on_c, 0, 82, 0
4, 940320, Note_on_c, 0, 65, 60
4, 940320, Note_on_c, 0, 74, 60
4, 940320, Note_on_c, 0, 77, 60
4, 941280, Note_on_c, 0, 77, 0
4, 941280, Note_on_c, 0, 74, 0
4, 941280, Note_on_c, 0, 65, 0
4, 941280, Note_on_c, 0, 67, 60
4, 941280, Note_on_c, 0, 74, 60
4, 941280, Note_on_c, 0, 77, 60
4, 941280, Note_on_c, 0, 79, 60
4, 942240, Note_on_c, 0, 79, 0
4, 942240, Note_on_c, 0, 67, 0
4, 942240, Note_on_c, 0, 74, 0
4, 942240, Note_on_c, 0, 77, 0
4, 942240, Note_on_c, 0, 70, 60
4, 942240, Note_on_c, 0, 82, 60
4, 942720, Note_on_c, 0, 82, 0
4, 942720, Note_on_c, 0, 70, 0
4, 942720, Note_on_c, 0, 73, 60
4, 942720, Note_on_c, 0, 85, 60
4, 943200, Note_on_c, 0, 85, 0
4, 943200, Note_on_c, 0, 73, 0
4, 943200, Note_on_c, 0, 74, 60
4, 943200, Note_on_c, 0, 86, 60
4, 944160, Note_on_c, 0, 86, 0
4, 944160, Note_on_c, 0, 74, 0
4, 944160, Note_on_c, 0, 67, 60
4, 944160, Note_on_c, 0, 71, 60
4, 944160, Note_on_c, 0, 74, 60
4, 944160, Note_on_c, 0, 79, 60
4, 945120, Note_on_c, 0, 79, 0
4, 945120, Note_on_c, 0, 67, 0
4, 945120, Note_on_c, 0, 71, 0
4, 945120, Note_on_c, 0, 74, 0
4, 945120, Note_on_c, 0, 71, 60
4, 945120, Note_on_c, 0, 74, 60
4, 945120, Note_on_c, 0, 79, 60
4, 945120, Note_on_c, 0, 83, 60
4, 946080, Note_on_c, 0, 83, 0
4, 946080, Note_on_c, 0, 71, 0
4, 946080, Note_on_c, 0, 74, 0
4, 946080, Note_on_c, 0, 79, 0
4, 946080, Note_on_c, 0, 71, 60
4, 946080, Note_on_c, 0, 83, 60
4, 946560, Note_on_c, 0, 83, 0
4, 946560, Note_on_c, 0, 71, 0
4, 946560, Note_on_c, 0, 73, 60
4, 946560, Note_on_c, 0, 85, 60
4, 947040, Note_on_c, 0, 85, 0
4, 947040, Note_on_c, 0, 73, 0
4, 947040, Note_on_c, 0, 74, 60
4, 947040, Note_on_c, 0, 86, 60
4, 947520, Note_on_c, 0, 86, 0
4, 947520, Note_on_c, 0, 74, 0
4, 948000, Note_on_c, 0, 67, 60
4, 948000, Note_on_c, 0, 72, 60
4, 948000, Note_on_c, 0, 75, 60
4, 948000, Note_on_c, 0, 79, 60
4, 948960, Note_on_c, 0, 79, 0
4, 948960, Note_on_c, 0, 67, 0
4, 948960, Note_on_c, 0, 72, 0
4, 948960, Note_on_c, 0, 75, 0
4, 948960, Note_on_c, 0, 72, 60
4, 948960, Note_on_c, 0, 75, 60
4, 948960, Note_on_c, 0, 79, 60
4, 948960, Note_on_c, 0, 84, 60
4, 949920, Note_on_c, 0, 84, 0
4, 949920, Note_on_c, 0, 72, 0
4, 949920, Note_on_c, 0, 75, 0
4, 949920, Note_on_c, 0, 79, 0
4, 949920, Note_on_c, 0, 74, 60
4, 949920, Note_on_c, 0, 79, 60
4, 949920, Note_on_c, 0, 84, 60
4, 949920, Note_on_c, 0, 86, 60
4, 950880, Note_on_c, 0, 86, 0
4, 950880, Note_on_c, 0, 74, 0
4, 950880, Note_on_c, 0, 79, 0
4, 950880, Note_on_c, 0, 84, 0
4, 950880, Note_on_c, 0, 75, 60
4, 950880, Note_on_c, 0, 79, 60
4, 950880, Note_on_c, 0, 84, 60
4, 950880, Note_on_c, 0, 87, 60
4, 951360, Note_on_c, 0, 87, 0
4, 951360, Note_on_c, 0, 75, 0
4, 951360, Note_on_c, 0, 79, 0
4, 951360, Note_on_c, 0, 84, 0
4, 951840, Note_on_c, 0, 75, 60
4, 951840, Note_on_c, 0, 79, 60
4, 951840, Note_on_c, 0, 85, 60
4, 951840, Note_on_c, 0, 87, 60
4, 952800, Note_on_c, 0, 87, 0
4, 952800, Note_on_c, 0, 75, 0
4, 952800, Note_on_c, 0, 79, 0
4, 952800, Note_on_c, 0, 85, 0
4, 952800, Note_on_c, 0, 76, 60
4, 952800, Note_on_c, 0, 79, 60
4, 952800, Note_on_c, 0, 85, 60
4, 952800, Note_on_c, 0, 88, 60
4, 953760, Note_on_c, 0, 88, 0
4, 953760, Note_on_c, 0, 76, 0
4, 953760, Note_on_c, 0, 79, 0
4, 953760, Note_on_c, 0, 85, 0
4, 953760, Note_on_c, 0, 75, 60
4, 953760, Note_on_c, 0, 79, 60
4, 953760, Note_on_c, 0, 85, 60
4, 953760, Note_on_c, 0, 87, 60
4, 954720, Note_on_c, 0, 87, 0
4, 954720, Note_on_c, 0, 75, 0
4, 954720, Note_on_c, 0, 79, 0
4, 954720, Note_on_c, 0, 85, 0
4, 954720, Note_on_c, 0, 76, 60
4, 954720, Note_on_c, 0, 79, 60
4, 954720, Note_on_c, 0, 85, 60
4, 954720, Note_on_c, 0, 88, 60
4, 955680, Note_on_c, 0, 88, 0
4, 955680, Note_on_c, 0, 76, 0
4, 955680, Note_on_c, 0, 79, 0
4, 955680, Note_on_c, 0, 85, 0
4, 955680, Note_on_c, 0, 75, 60
4, 955680, Note_on_c, 0, 79, 60
4, 955680, Note_on_c, 0, 85, 60
4, 955680, Note_on_c, 0, 87, 60
4, 956640, Note_on_c, 0, 87, 0
4, 956640, Note_on_c, 0, 75, 0
4, 956640, Note_on_c, 0, 79, 0
4, 956640, Note_on_c, 0, 85, 0
4, 956640, Note_on_c, 0, 76, 60
4, 956640, Note_on_c, 0, 79, 60
4, 956640, Note_on_c, 0, 85, 60
4, 956640, Note_on_c, 0, 88, 60
4, 957600, Note_on_c, 0, 88, 0
4, 957600, Note_on_c, 0, 76, 0
4, 957600, Note_on_c, 0, 79, 0
4, 957600, Note_on_c, 0, 85, 0
4, 957600, Note_on_c, 0, 75, 60
4, 957600, Note_on_c, 0, 79, 60
4, 957600, Note_on_c, 0, 85, 60
4, 957600, Note_on_c, 0, 87, 60
4, 958560, Note_on_c, 0, 87, 0
4, 958560, Note_on_c, 0, 75, 0
4, 958560, Note_on_c, 0, 79, 0
4, 958560, Note_on_c, 0, 85, 0
4, 958560, Note_on_c, 0, 76, 60
4, 958560, Note_on_c, 0, 79, 60
4, 958560, Note_on_c, 0, 85, 60
4, 958560, Note_on_c, 0, 88, 60
4, 959040, Note_on_c, 0, 88, 0
4, 959040, Note_on_c, 0, 76, 0
4, 959040, Note_on_c, 0, 79, 0
4, 959040, Note_on_c, 0, 85, 0
4, 959040, Note_on_c, 0, 77, 60
4, 959040, Note_on_c, 0, 82, 60
4, 959040, Note_on_c, 0, 86, 60
4, 959040, Note_on_c, 0, 89, 60
4, 959280, Note_on_c, 0, 89, 0
4, 959280, Note_on_c, 0, 77, 0
4, 959280, Note_on_c, 0, 82, 0
4, 959280, Note_on_c, 0, 86, 0
4, 959520, Note_on_c, 0, 70, 60
4, 959520, Note_on_c, 0, 74, 60
4, 959520, Note_on_c, 0, 77, 60
4, 960480, Note_on_c, 0, 77, 0
4, 960480, Note_on_c, 0, 74, 0
4, 960480, Note_on_c, 0, 70, 0
4, 960480, Note_on_c, 0, 70, 60
4, 960480, Note_on_c, 0, 74, 60
4, 960480, Note_on_c, 0, 77, 60
4, 960511, Note_on_c, 0, 77, 0
4, 960511, Note_on_c, 0, 74, 0
4, 960511, Note_on_c, 0, 70, 0
4, 960639, Note_on_c, 0, 70, 60
4, 960639, Note_on_c, 0, 74, 60
4, 960639, Note_on_c, 0, 76, 60
4, 960671, Note_on_c, 0, 76, 0
4, 960671, Note_on_c, 0, 74, 0
4, 960671, Note_on_c, 0, 70, 0
4, 960800, Note_on_c, 0, 70, 60
4, 960800, Note_on_c, 0, 74, 60
4, 960800, Note_on_c, 0, 77, 60
4, 960832, Note_on_c, 0, 77, 0
4, 960832, Note_on_c, 0, 74, 0
4, 960832, Note_on_c, 0, 70, 0
4, 960960, Note_on_c, 0, 71, 60
4, 960960, Note_on_c, 0, 74, 60
4, 960960, Note_on_c, 0, 79, 60
4, 961440, Note_on_c, 0, 79, 0
4, 961440, Note_on_c, 0, 74, 0
4, 961440, Note_on_c, 0, 71, 0
4, 961440, Note_on_c, 0, 72, 60
4, 961440, Note_on_c, 0, 75, 60
4, 961440, Note_on_c, 0, 79, 60
4, 962400, Note_on_c, 0, 79, 0
4, 962400, Note_on_c, 0, 75, 0
4, 962400, Note_on_c, 0, 72, 0
4, 962400, Note_on_c, 0, 71, 60
4, 962400, Note_on_c, 0, 74, 60
4, 962400, Note_on_c, 0, 79, 60
4, 962431, Note_on_c, 0, 79, 0
4, 962431, Note_on_c, 0, 74, 0
4, 962431, Note_on_c, 0, 71, 0
4, 962559, Note_on_c, 0, 71, 60
4, 962559, Note_on_c, 0, 74, 60
4, 962559, Note_on_c, 0, 78, 60
4, 962591, Note_on_c, 0, 78, 0
4, 962591, Note_on_c, 0, 74, 0
4, 962591, Note_on_c, 0, 71, 0
4, 962720, Note_on_c, 0, 71, 60
4, 962720, Note_on_c, 0, 74, 60
4, 962720, Note_on_c, 0, 79, 60
4, 962752, Note_on_c, 0, 79, 0
4, 962752, Note_on_c, 0, 74, 0
4, 962752, Note_on_c, 0, 71, 0
4, 962880, Note_on_c, 0, 72, 60
4, 962880, Note_on_c, 0, 75, 60
4, 962880, Note_on_c, 0, 80, 60
4, 963360, Note_on_c, 0, 80, 0
4, 963360, Note_on_c, 0, 75, 0
4, 963360, Note_on_c, 0, 72, 0
4, 963360, Note_on_c, 0, 72, 60
4, 963360, Note_on_c, 0, 75, 60
4, 963360, Note_on_c, 0, 80, 60
4, 964320, Note_on_c, 0, 80, 0
4, 964320, Note_on_c, 0, 75, 0
4, 964320, Note_on_c, 0, 72, 0
4, 964320, Note_on_c, 0, 72, 60
4, 964320, Note_on_c, 0, 75, 60
4, 964320, Note_on_c, 0, 80, 60
4, 964351, Note_on_c, 0, 80, 0
4, 964351, Note_on_c, 0, 75, 0
4, 964351, Note_on_c, 0, 72, 0
4, 964479, Note_on_c, 0, 72, 60
4, 964479, Note_on_c, 0, 75, 60
4, 964479, Note_on_c, 0, 79, 60
4, 964511, Note_on_c, 0, 79, 0
4, 964511, Note_on_c, 0, 75, 0
4, 964511, Note_on_c, 0, 72, 0
4, 964640, Note_on_c, 0, 72, 60
4, 964640, Note_on_c, 0, 75, 60
4, 964640, Note_on_c, 0, 80, 60
4, 964672, Note_on_c, 0, 80, 0
4, 964672, Note_on_c, 0, 75, 0
4, 964672, Note_on_c, 0, 72, 0
4, 964800, Note_on_c, 0, 73, 60
4, 964800, Note_on_c, 0, 76, 60
4, 964800, Note_on_c, 0, 81, 60
4, 965280, Note_on_c, 0, 81, 0
4, 965280, Note_on_c, 0, 76, 0
4, 965280, Note_on_c, 0, 73, 0
4, 965280, Note_on_c, 0, 73, 60
4, 965280, Note_on_c, 0, 76, 60
4, 965280, Note_on_c, 0, 81, 60
4, 966240, Note_on_c, 0, 81, 0
4, 966240, Note_on_c, 0, 76, 0
4, 966240, Note_on_c, 0, 73, 0
4, 966240, Note_on_c, 0, 73, 60
4, 966240, Note_on_c, 0, 76, 60
4, 966240, Note_on_c, 0, 81, 60
4, 966271, Note_on_c, 0, 81, 0
4, 966271, Note_on_c, 0, 76, 0
4, 966271, Note_on_c, 0, 73, 0
4, 966399, Note_on_c, 0, 73, 60
4, 966399, Note_on_c, 0, 76, 60
4, 966399, Note_on_c, 0, 80, 60
4, 966431, Note_on_c, 0, 80, 0
4, 966431, Note_on_c, 0, 76, 0
4, 966431, Note_on_c, 0, 73, 0
4, 966560, Note_on_c, 0, 73, 60
4, 966560, Note_on_c, 0, 76, 60
4, 966560, Note_on_c, 0, 81, 60
4, 966592, Note_on_c, 0, 81, 0
4, 966592, Note_on_c, 0, 76, 0
4, 966592, Note_on_c, 0, 73, 0
4, 966720, Note_on_c, 0, 74, 60
4, 966720, Note_on_c, 0, 77, 60
4, 966720, Note_on_c, 0, 82, 60
4, 967200, Note_on_c, 0, 82, 0
4, 967200, Note_on_c, 0, 77, 0
4, 967200, Note_on_c, 0, 74, 0
4, 967200, Note_on_c, 0, 74, 60
4, 967200, Note_on_c, 0, 77, 60
4, 967200, Note_on_c, 0, 82, 60
4, 967231, Note_on_c, 0, 82, 0
4, 967231, Note_on_c, 0, 77, 0
4, 967231, Note_on_c, 0, 74, 0
4, 967359, Note_on_c, 0, 74, 60
4, 967359, Note_on_c, 0, 77, 60
4, 967391, Note_on_c, 0, 77, 0
4, 967391, Note_on_c, 0, 74, 0
4, 967520, Note_on_c, 0, 74, 60
4, 967520, Note_on_c, 0, 77, 60
4, 967520, Note_on_c, 0, 82, 60
4, 967552, Note_on_c, 0, 82, 0
4, 967552, Note_on_c, 0, 77, 0
4, 967552, Note_on_c, 0, 74, 0
4, 967680, Note_on_c, 0, 75, 60
4, 967680, Note_on_c, 0, 78, 60
4, 967680, Note_on_c, 0, 83, 60
4, 968160, Note_on_c, 0, 83, 0
4, 968160, Note_on_c, 0, 78, 0
4, 968160, Note_on_c, 0, 75, 0
4, 968160, Note_on_c, 0, 75, 60
4, 968160, Note_on_c, 0, 78, 60
4, 968160, Note_on_c, 0, 83, 60
4, 968191, Note_on_c, 0, 83, 0
4, 968191, Note_on_c, 0, 78, 0
4, 968191, Note_on_c, 0, 75, 0
4, 968319, Note_on_c, 0, 75, 60
4, 968319, Note_on_c, 0, 78, 60
4, 968351, Note_on_c, 0, 78, 0
4, 968351, Note_on_c, 0, 75, 0
4, 968480, Note_on_c, 0, 75, 60
4, 968480, Note_on_c, 0, 78, 60
4, 968480, Note_on_c, 0, 83, 60
4, 968512, Note_on_c, 0, 83, 0
4, 968512, Note_on_c, 0, 78, 0
4, 968512, Note_on_c, 0, 75, 0
4, 968640, Note_on_c, 0, 76, 60
4, 968640, Note_on_c, 0, 79, 60
4, 968640, Note_on_c, 0, 84, 60
4, 969120, Note_on_c, 0, 84, 0
4, 969120, Note_on_c, 0, 79, 0
4, 969120, Note_on_c, 0, 76, 0
4, 969120, Note_on_c, 0, 76, 60
4, 969120, Note_on_c, 0, 79, 60
4, 969120, Note_on_c, 0, 84, 60
4, 969151, Note_on_c, 0, 84, 0
4, 969151, Note_on_c, 0, 79, 0
4, 969151, Note_on_c, 0, 76, 0
4, 969279, Note_on_c, 0, 76, 60
4, 969279, Note_on_c, 0, 79, 60
4, 969311, Note_on_c, 0, 79, 0
4, 969311, Note_on_c, 0, 76, 0
4, 969440, Note_on_c, 0, 76, 60
4, 969440, Note_on_c, 0, 79, 60
4, 969440, Note_on_c, 0, 84, 60
4, 969472, Note_on_c, 0, 84, 0
4, 969472, Note_on_c, 0, 79, 0
4, 969472, Note_on_c, 0, 76, 0
4, 969600, Note_on_c, 0, 77, 60
4, 969600, Note_on_c, 0, 80, 60
4, 969600, Note_on_c, 0, 85, 60
4, 970080, Note_on_c, 0, 85, 0
4, 970080, Note_on_c, 0, 80, 0
4, 970080, Note_on_c, 0, 77, 0
4, 970080, Note_on_c, 0, 77, 60
4, 970080, Note_on_c, 0, 80, 60
4, 970080, Note_on_c, 0, 85, 60
4, 970111, Note_on_c, 0, 85, 0
4, 970111, Note_on_c, 0, 80, 0
4, 970111, Note_on_c, 0, 77, 0
4, 970239, Note_on_c, 0, 77, 60
4, 970239, Note_on_c, 0, 80, 60
4, 970271, Note_on_c, 0, 80, 0
4, 970271, Note_on_c, 0, 77, 0
4, 970400, Note_on_c, 0, 77, 60
4, 970400, Note_on_c, 0, 80, 60
4, 970400, Note_on_c, 0, 85, 60
4, 970432, Note_on_c, 0, 85, 0
4, 970432, Note_on_c, 0, 80, 0
4, 970432, Note_on_c, 0, 77, 0
4, 970560, Note_on_c, 0, 78, 60
4, 970560, Note_on_c, 0, 81, 60
4, 970560, Note_on_c, 0, 86, 60
4, 971040, Note_on_c, 0, 86, 0
4, 971040, Note_on_c, 0, 81, 0
4, 971040, Note_on_c, 0, 78, 0
4, 971040, Note_on_c, 0, 79, 60
4, 971040, Note_on_c, 0, 82, 60
4, 971040, Note_on_c, 0, 87, 60
4, 971520, Note_on_c, 0, 87, 0
4, 971520, Note_on_c, 0, 82, 0
4, 971520, Note_on_c, 0, 79, 0
4, 971520, Note_on_c, 0, 80, 60
4, 971520, Note_on_c, 0, 83, 60
4, 971520, Note_on_c, 0, 88, 60
4, 972000, Note_on_c, 0, 88, 0
4, 972000, Note_on_c, 0, 83, 0
4, 972000, Note_on_c, 0, 80, 0
4, 972000, Note_on_c, 0, 81, 60
4, 972000, Note_on_c, 0, 84, 60
4, 972000, Note_on_c, 0, 89, 60
4, 972480, Note_on_c, 0, 89, 0
4, 972480, Note_on_c, 0, 84, 0
4, 972480, Note_on_c, 0, 81, 0
4, 972480, Note_on_c, 0, 82, 60
4, 972480, Note_on_c, 0, 85, 60
4, 972480, Note_on_c, 0, 90, 60
4, 972960, Note_on_c, 0, 90, 0
4, 972960, Note_on_c, 0, 85, 0
4, 972960, Note_on_c, 0, 82, 0
4, 972960, Note_on_c, 0, 83, 60
4, 972960, Note_on_c, 0, 86, 60
4, 972960, Note_on_c, 0, 91, 60
4, 973440, Note_on_c, 0, 91, 0
4, 973440, Note_on_c, 0, 86, 0
4, 973440, Note_on_c, 0, 83, 0
4, 973440, Note_on_c, 0, 84, 60
4, 973440, Note_on_c, 0, 87, 60
4, 973440, Note_on_c, 0, 92, 60
4, 973920, Note_on_c, 0, 92, 0
4, 973920, Note_on_c, 0, 87, 0
4, 973920, Note_on_c, 0, 84, 0
4, 973920, Note_on_c, 0, 84, 60
4, 973920, Note_on_c, 0, 87, 60
4, 973920, Note_on_c, 0, 93, 60
4, 974400, Note_on_c, 0, 93, 0
4, 974400, Note_on_c, 0, 87, 0
4, 974400, Note_on_c, 0, 84, 0
4, 974400, Note_on_c, 0, 82, 60
4, 974400, Note_on_c, 0, 85, 60
4, 974400, Note_on_c, 0, 94, 60
4, 974880, Note_on_c, 0, 94, 0
4, 974880, Note_on_c, 0, 85, 0
4, 974880, Note_on_c, 0, 82, 0
4, 974880, Note_on_c, 0, 58, 86
4, 975360, Note_on_c, 0, 58, 0
4, 975360, Note_on_c, 0, 58, 86
4, 975360, Note_on_c, 0, 61, 86
4, 975840, Note_on_c, 0, 61, 0
4, 975840, Note_on_c, 0, 58, 0
4, 975840, Note_on_c, 0, 58, 86
4, 975840, Note_on_c, 0, 61, 86
4, 975840, Note_on_c, 0, 66, 86
4, 976320, Note_on_c, 0, 66, 0
4, 976320, Note_on_c, 0, 61, 0
4, 976320, Note_on_c, 0, 58, 0
4, 976320, Note_on_c, 0, 58, 86
4, 976320, Note_on_c, 0, 61, 86
4, 976320, Note_on_c, 0, 66, 86
4, 976320, Note_on_c, 0, 70, 86
4, 976800, Note_on_c, 0, 70, 0
4, 976800, Note_on_c, 0, 58, 0
4, 976800, Note_on_c, 0, 61, 0
4, 976800, Note_on_c, 0, 66, 0
4, 976800, Note_on_c, 0, 58, 86
4, 976800, Note_on_c, 0, 61, 86
4, 976800, Note_on_c, 0, 66, 86
4, 976800, Note_on_c, 0, 70, 86
4, 977280, Note_on_c, 0, 70, 0
4, 977280, Note_on_c, 0, 58, 0
4, 977280, Note_on_c, 0, 61, 0
4, 977280, Note_on_c, 0, 66, 0
4, 977280, Note_on_c, 0, 61, 86
4, 977280, Note_on_c, 0, 66, 86
4, 977280, Note_on_c, 0, 70, 86
4, 977280, Note_on_c, 0, 73, 86
4, 977760, Note_on_c, 0, 73, 0
4, 977760, Note_on_c, 0, 61, 0
4, 977760, Note_on_c, 0, 66, 0
4, 977760, Note_on_c, 0, 70, 0
4, 977760, Note_on_c, 0, 66, 86
4, 977760, Note_on_c, 0, 70, 86
4, 977760, Note_on_c, 0, 73, 86
4, 977760, Note_on_c, 0, 78, 86
4, 978240, Note_on_c, 0, 78, 0
4, 978240, Note_on_c, 0, 66, 0
4, 978240, Note_on_c, 0, 70, 0
4, 978240, Note_on_c, 0, 73, 0
4, 978240, Note_on_c, 0, 70, 86
4, 978240, Note_on_c, 0, 73, 86
4, 978240, Note_on_c, 0, 78, 86
4, 978240, Note_on_c, 0, 82, 86
4, 979200, Note_on_c, 0, 82, 0
4, 979200, Note_on_c, 0, 70, 0
4, 979200, Note_on_c, 0, 73, 0
4, 979200, Note_on_c, 0, 78, 0
4, 980160, Note_on_c, 0, 70, 73
4, 980160, Note_on_c, 0, 73, 73
4, 980160, Note_on_c, 0, 78, 73
4, 980160, Note_on_c, 0, 82, 73
4, 981120, Note_on_c, 0, 82, 0
4, 981120, Note_on_c, 0, 70, 0
4, 981120, Note_on_c, 0, 73, 0
4, 981120, Note_on_c, 0, 78, 0
4, 982080, Note_on_c, 0, 70, 73
4, 982080, Note_on_c, 0, 73, 73
4, 982080, Note_on_c, 0, 78, 73
4, 982080, Note_on_c, 0, 82, 73
4, 982560, Note_on_c, 0, 82, 0
4, 982560, Note_on_c, 0, 70, 0
4, 982560, Note_on_c, 0, 73, 0
4, 982560, Note_on_c, 0, 78, 0
4, 983040, Note_on_c, 0, 70, 73
4, 983040, Note_on_c, 0, 73, 73
4, 983040, Note_on_c, 0, 78, 73
4, 983040, Note_on_c, 0, 82, 73
4, 983520, Note_on_c, 0, 82, 0
4, 983520, Note_on_c, 0, 70, 0
4, 983520, Note_on_c, 0, 73, 0
4, 983520, Note_on_c, 0, 78, 0
4, 984000, Note_on_c, 0, 70, 73
4, 984000, Note_on_c, 0, 73, 73
4, 984000, Note_on_c, 0, 78, 73
4, 984000, Note_on_c, 0, 82, 73
4, 984480, Note_on_c, 0, 82, 0
4, 984480, Note_on_c, 0, 70, 0
4, 984480, Note_on_c, 0, 73, 0
4, 984480, Note_on_c, 0, 78, 0
4, 984960, Note_on_c, 0, 70, 73
4, 984960, Note_on_c, 0, 73, 73
4, 984960, Note_on_c, 0, 78, 73
4, 984960, Note_on_c, 0, 82, 73
4, 985440, Note_on_c, 0, 82, 0
4, 985440, Note_on_c, 0, 70, 0
4, 985440, Note_on_c, 0, 73, 0
4, 985440, Note_on_c, 0, 78, 0
4, 985920, Note_on_c, 0, 70, 73
4, 985920, Note_on_c, 0, 73, 73
4, 985920, Note_on_c, 0, 78, 73
4, 985920, Note_on_c, 0, 82, 73
4, 986400, Note_on_c, 0, 82, 0
4, 986400, Note_on_c, 0, 70, 0
4, 986400, Note_on_c, 0, 73, 0
4, 986400, Note_on_c, 0, 78, 0
4, 1122118, Control_c, 0, 64, 127
4, 1144800, Note_on_c, 0, 65, 47
4, 1144800, Note_on_c, 0, 77, 47
4, 1145280, Note_on_c, 0, 77, 0
4, 1145280, Note_on_c, 0, 65, 0
4, 1145280, Note_on_c, 0, 67, 47
4, 1145280, Note_on_c, 0, 79, 47
4, 1145760, Note_on_c, 0, 79, 0
4, 1145760, Note_on_c, 0, 67, 0
4, 1145760, Note_on_c, 0, 69, 47
4, 1145760, Note_on_c, 0, 81, 47
4, 1146240, Note_on_c, 0, 81, 0
4, 1146240, Note_on_c, 0, 69, 0
4, 1146240, Note_on_c, 0, 65, 47
4, 1146240, Note_on_c, 0, 77, 47
4, 1146720, Note_on_c, 0, 77, 0
4, 1146720, Note_on_c, 0, 65, 0
4, 1146720, Note_on_c, 0, 67, 47
4, 1146720, Note_on_c, 0, 79, 47
4, 1147200, Note_on_c, 0, 79, 0
4, 1147200, Note_on_c, 0, 67, 0
4, 1147200, Note_on_c, 0, 69, 47
4, 1147200, Note_on_c, 0, 81, 47
4, 1147680, Note_on_c, 0, 81, 0
4, 1147680, Note_on_c, 0, 69, 0
4, 1147680, Note_on_c, 0, 70, 47
4, 1147680, Note_on_c, 0, 82, 47
4, 1148160, Note_on_c, 0, 82, 0
4, 1148160, Note_on_c, 0, 70, 0
4, 1148160, Note_on_c, 0, 65, 47
4, 1148160, Note_on_c, 0, 77, 47
4, 1148640, Note_on_c, 0, 77, 0
4, 1148640, Note_on_c, 0, 65, 0
4, 1148640, Note_on_c, 0, 67, 47
4, 1148640, Note_on_c, 0, 79, 47
4, 1149120, Note_on_c, 0, 79, 0
4, 1149120, Note_on_c, 0, 67, 0
4, 1149120, Note_on_c, 0, 60, 47
4, 1149120, Note_on_c, 0, 72, 47
4, 1149600, Note_on_c, 0, 72, 0
4, 1149600, Note_on_c, 0, 60, 0
4, 1149600, Note_on_c, 0, 67, 47
4, 1149600, Note_on_c, 0, 79, 47
4, 1150080, Note_on_c, 0, 79, 0
4, 1150080, Note_on_c, 0, 67, 0
4, 1150080, Note_on_c, 0, 60, 47
4, 1150080, Note_on_c, 0, 72, 47
4, 1150560, Note_on_c, 0, 72, 0
4, 1150560, Note_on_c, 0, 60, 0
4, 1150560, Note_on_c, 0, 67, 47
4, 1150560, Note_on_c, 0, 79, 47
4, 1151040, Note_on_c, 0, 79, 0
4, 1151040, Note_on_c, 0, 67, 0
4, 1151040, Note_on_c, 0, 65, 47
4, 1151040, Note_on_c, 0, 77, 47
4, 1151520, Note_on_c, 0, 77, 0
4, 1151520, Note_on_c, 0, 65, 0
4, 1151520, Note_on_c, 0, 67, 47
4, 1151520, Note_on_c, 0, 79, 47
4, 1152000, Note_on_c, 0, 79, 0
4, 1152000, Note_on_c, 0, 67, 0
4, 1152000, Note_on_c, 0, 62, 47
4, 1152000, Note_on_c, 0, 74, 47
4, 1152480, Note_on_c, 0, 74, 0
4, 1152480, Note_on_c, 0, 62, 0
4, 1152480, Note_on_c, 0, 65, 47
4, 1152480, Note_on_c, 0, 77, 47
4, 1152960, Note_on_c, 0, 77, 0
4, 1152960, Note_on_c, 0, 65, 0
4, 1152960, Control_c, 0, 64, 127
4, 1152960, Note_on_c, 0, 77, 47
4, 1153119, Note_on_c, 0, 77, 0
4, 1153119, Note_on_c, 0, 81, 47
4, 1153280, Note_on_c, 0, 81, 0
4, 1153280, Note_on_c, 0, 84, 47
4, 1153440, Note_on_c, 0, 84, 0
4, 1153440, Note_on_c, 0, 89, 47
4, 1153680, Note_on_c, 0, 89, 0
4, 1153920, Note_on_c, 0, 77, 47
4, 1154079, Note_on_c, 0, 77, 0
4, 1154079, Note_on_c, 0, 81, 47
4, 1154240, Note_on_c, 0, 81, 0
4, 1154240, Note_on_c, 0, 84, 47
4, 1154400, Note_on_c, 0, 84, 0
4, 1154400, Note_on_c, 0, 89, 47
4, 1154640, Note_on_c, 0, 89, 0
4, 1154640, Control_c, 0, 64, 0
4, 1154880, Control_c, 0, 64, 127
4, 1154880, Note_on_c, 0, 77, 47
4, 1155039, Note_on_c, 0, 77, 0
4, 1155039, Note_on_c, 0, 82, 47
4, 1155200, Note_on_c, 0, 82, 0
4, 1155200, Note_on_c, 0, 86, 47
4, 1155360, Note_on_c, 0, 86, 0
4, 1155360, Note_on_c, 0, 89, 47
4, 1155600, Note_on_c, 0, 89, 0
4, 1155840, Note_on_c, 0, 77, 47
4, 1155999, Note_on_c, 0, 77, 0
4, 1155999, Note_on_c, 0, 82, 47
4, 1156160, Note_on_c, 0, 82, 0
4, 1156160, Note_on_c, 0, 86, 47
4, 1156320, Note_on_c, 0, 86, 0
4, 1156320, Note_on_c, 0, 89, 47
4, 1156560, Note_on_c, 0, 89, 0
4, 1156560, Control_c, 0, 64, 0
4, 1156800, Control_c, 0, 64, 127
4, 1156800, Note_on_c, 0, 77, 47
4, 1156959, Note_on_c, 0, 77, 0
4, 1156959, Note_on_c, 0, 81, 47
4, 1157120, Note_on_c, 0, 81, 0
4, 1157120, Note_on_c, 0, 84, 47
4, 1157280, Note_on_c, 0, 84, 0
4, 1157280, Note_on_c, 0, 89, 47
4, 1157520, Note_on_c, 0, 89, 0
4, 1157760, Note_on_c, 0, 77, 47
4, 1157919, Note_on_c, 0, 77, 0
4, 1157919, Note_on_c, 0, 81, 47
4, 1158080, Note_on_c, 0, 81, 0
4, 1158080, Note_on_c, 0, 84, 47
4, 1158240, Note_on_c, 0, 84, 0
4, 1158240, Note_on_c, 0, 89, 47
4, 1158480, Note_on_c, 0, 89, 0
4, 1158480, Control_c, 0, 64, 0
4, 1158720, Control_c, 0, 64, 127
4, 1158720, Note_on_c, 0, 82, 47
4, 1158879, Note_on_c, 0, 82, 0
4, 1158879, Note_on_c, 0, 77, 47
4, 1159040, Note_on_c, 0, 77, 0
4, 1159040, Note_on_c, 0, 74, 47
4, 1159200, Note_on_c, 0, 74, 0
4, 1159200, Control_c, 0, 64, 0
4, 1159200, Note_on_c, 0, 65, 47
4, 1159200, Note_on_c, 0, 70, 47
4, 1159200, Note_on_c, 0, 77, 47
4, 1159680, Note_on_c, 0, 77, 0
4, 1159680, Note_on_c, 0, 70, 0
4, 1159680, Note_on_c, 0, 65, 0
4, 1159680, Note_on_c, 0, 67, 47
4, 1159680, Note_on_c, 0, 70, 47
4, 1159680, Note_on_c, 0, 76, 47
4, 1159680, Note_on_c, 0, 79, 47
4, 1160160, Note_on_c, 0, 79, 0
4, 1160160, Note_on_c, 0, 67, 0
4, 1160160, Note_on_c, 0, 70, 0
4, 1160160, Note_on_c, 0, 76, 0
4, 1160160, Note_on_c, 0, 69, 47
4, 1160160, Note_on_c, 0, 75, 47
4, 1160160, Note_on_c, 0, 81, 47
4, 1160640, Note_on_c, 0, 81, 0
4, 1160640, Note_on_c, 0, 75, 0
4, 1160640, Note_on_c, 0, 69, 0
4, 1160640, Note_on_c, 0, 72, 47
4, 1160640, Note_on_c, 0, 74, 47
4, 1160640, Note_on_c, 0, 81, 47
4, 1160640, Note_on_c, 0, 84, 47
4, 1161120, Note_on_c, 0, 84, 0
4, 1161120, Note_on_c, 0, 81, 0
4, 1161120, Note_on_c, 0, 72, 0
4, 1161120, Note_on_c, 0, 70, 47
4, 1161120, Note_on_c, 0, 79, 47
4, 1161120, Note_on_c, 0, 82, 47
4, 1161600, Note_on_c, 0, 82, 0
4, 1161600, Note_on_c, 0, 74, 0
4, 1161600, Note_on_c, 0, 70, 0
4, 1161600, Note_on_c, 0, 79, 0
4, 1161600, Note_on_c, 0, 62, 47
4, 1161600, Note_on_c, 0, 70, 47
4, 1161600, Note_on_c, 0, 74, 47
4, 1162080, Note_on_c, 0, 74, 0
4, 1162080, Note_on_c, 0, 70, 0
4, 1162080, Note_on_c, 0, 62, 0
4, 1162080, Note_on_c, 0, 64, 47
4, 1162080, Note_on_c, 0, 70, 47
4, 1162080, Note_on_c, 0, 72, 47
4, 1162080, Note_on_c, 0, 76, 47
4, 1162560, Note_on_c, 0, 76, 0
4, 1162560, Note_on_c, 0, 64, 0
4, 1162560, Note_on_c, 0, 70, 0
4, 1162560, Note_on_c, 0, 72, 0
4, 1162560, Note_on_c, 0, 65, 47
4, 1162560, Note_on_c, 0, 69, 47
4, 1162560, Note_on_c, 0, 72, 47
4, 1162560, Note_on_c, 0, 77, 47
4, 1163040, Note_on_c, 0, 77, 0
4, 1163040, Note_on_c, 0, 65, 0
4, 1163040, Note_on_c, 0, 69, 0
4, 1163040, Note_on_c, 0, 72, 0
4, 1163040, Note_on_c, 0, 67, 47
4, 1163040, Note_on_c, 0, 72, 47
4, 1163040, Note_on_c, 0, 79, 47
4, 1163520, Note_on_c, 0, 79, 0
4, 1163520, Note_on_c, 0, 72, 0
4, 1163520, Note_on_c, 0, 72, 47
4, 1164000, Note_on_c, 0, 72, 0
4, 1164000, Note_on_c, 0, 67, 0
4, 1164000, Note_on_c, 0, 67, 47
4, 1164000, Note_on_c, 0, 72, 47
4, 1164000, Note_on_c, 0, 79, 47
4, 1164480, Note_on_c, 0, 79, 0
4, 1164480, Note_on_c, 0, 72, 0
4, 1164480, Note_on_c, 0, 72, 47
4, 1164960, Note_on_c, 0, 72, 0
4, 1164960, Note_on_c, 0, 67, 0
4, 1164960, Note_on_c, 0, 65, 47
4, 1164960, Note_on_c, 0, 68, 47
4, 1164960, Note_on_c, 0, 71, 47
4, 1164960, Note_on_c, 0, 77, 47
4, 1165440, Note_on_c, 0, 77, 0
4, 1165440, Note_on_c, 0, 71, 0
4, 1165440, Note_on_c, 0, 71, 47
4, 1165920, Note_on_c, 0, 71, 0
4, 1165920, Note_on_c, 0, 68, 0
4, 1165920, Note_on_c, 0, 65, 0
4, 1165920, Note_on_c, 0, 65, 47
4, 1165920, Note_on_c, 0, 67, 47
4, 1165920, Note_on_c, 0, 71, 47
4, 1165920, Note_on_c, 0, 77, 47
4, 1166400, Note_on_c, 0, 77, 0
4, 1166400, Note_on_c, 0, 71, 0
4, 1166400, Note_on_c, 0, 71, 47
4, 1166880, Note_on_c, 0, 71, 0
4, 1166880, Note_on_c, 0, 67, 0
4, 1166880, Note_on_c, 0, 65, 0
4, 1166880, Note_on_c, 0, 64, 47
4, 1166880, Note_on_c, 0, 67, 47
4, 1166880, Note_on_c, 0, 72, 47
4, 1166880, Note_on_c, 0, 76, 47
4, 1167360, Note_on_c, 0, 76, 0
4, 1167360, Note_on_c, 0, 64, 0
4, 1167360, Note_on_c, 0, 67, 0
4, 1167360, Note_on_c, 0, 72, 0
4, 1167360, Note_on_c, 0, 63, 47
4, 1167360, Note_on_c, 0, 69, 47
4, 1167360, Note_on_c, 0, 72, 47
4, 1167360, Note_on_c, 0, 75, 47
4, 1167840, Note_on_c, 0, 75, 0
4, 1167840, Note_on_c, 0, 63, 0
4, 1167840, Note_on_c, 0, 69, 0
4, 1167840, Note_on_c, 0, 72, 0
4, 1167840, Note_on_c, 0, 62, 47
4, 1167840, Note_on_c, 0, 70, 47
4, 1167840, Note_on_c, 0, 74, 47
4, 1168320, Note_on_c, 0, 74, 0
4, 1168320, Note_on_c, 0, 70, 0
4, 1168320, Note_on_c, 0, 62, 0
4, 1168320, Note_on_c, 0, 69, 47
4, 1168320, Note_on_c, 0, 70, 47
4, 1168320, Note_on_c, 0, 72, 47
4, 1168320, Note_on_c, 0, 81, 47
4, 1168800, Note_on_c, 0, 81, 0
4, 1168800, Note_on_c, 0, 69, 0
4, 1168800, Note_on_c, 0, 67, 60
4, 1168800, Note_on_c, 0, 79, 60
4, 1169280, Note_on_c, 0, 79, 0
4, 1169280, Note_on_c, 0, 70, 0
4, 1169280, Note_on_c, 0, 72, 0
4, 1169280, Note_on_c, 0, 67, 0
4, 1169280, Note_on_c, 0, 68, 60
4, 1169280, Note_on_c, 0, 74, 60
4, 1169280, Note_on_c, 0, 80, 60
4, 1169760, Note_on_c, 0, 80, 0
4, 1169760, Note_on_c, 0, 68, 0
4, 1169760, Note_on_c, 0, 69, 60
4, 1169760, Note_on_c, 0, 81, 60
4, 1170240, Note_on_c, 0, 81, 0
4, 1170240, Note_on_c, 0, 69, 0
4, 1170240, Note_on_c, 0, 74, 0
4, 1170240, Note_on_c, 0, 74, 60
4, 1170240, Note_on_c, 0, 75, 60
4, 1170240, Note_on_c, 0, 81, 60
4, 1170240, Note_on_c, 0, 86, 60
4, 1170720, Note_on_c, 0, 86, 0
4, 1170720, Note_on_c, 0, 74, 0
4, 1170720, Note_on_c, 0, 69, 60
4, 1170720, Note_on_c, 0, 81, 60
4, 1171200, Note_on_c, 0, 81, 0
4, 1171200, Note_on_c, 0, 75, 0
4, 1171200, Note_on_c, 0, 81, 0
4, 1171200, Note_on_c, 0, 69, 0
4, 1171200, Note_on_c, 0, 69, 60
4, 1171200, Note_on_c, 0, 74, 60
4, 1171200, Note_on_c, 0, 79, 60
4, 1171200, Note_on_c, 0, 81, 60
4, 1171680, Note_on_c, 0, 81, 0
4, 1171680, Note_on_c, 0, 69, 0
4, 1171680, Note_on_c, 0, 70, 60
4, 1171680, Note_on_c, 0, 82, 60
4, 1172160, Note_on_c, 0, 82, 0
4, 1172160, Note_on_c, 0, 74, 0
4, 1172160, Note_on_c, 0, 79, 0
4, 1172160, Note_on_c, 0, 70, 0
4, 1172160, Note_on_c, 0, 75, 60
4, 1172160, Note_on_c, 0, 79, 60
4, 1172160, Note_on_c, 0, 87, 60
4, 1172640, Note_on_c, 0, 87, 0
4, 1172640, Note_on_c, 0, 79, 0
4, 1172640, Note_on_c, 0, 75, 0
4, 1172640, Note_on_c, 0, 72, 60
4, 1172640, Note_on_c, 0, 75, 60
4, 1172640, Note_on_c, 0, 79, 60
4, 1172640, Note_on_c, 0, 84, 60
4, 1173120, Note_on_c, 0, 84, 0
4, 1173120, Note_on_c, 0, 72, 0
4, 1173120, Note_on_c, 0, 75, 0
4, 1173120, Note_on_c, 0, 79, 0
4, 1173120, Note_on_c, 0, 77, 60
4, 1173120, Note_on_c, 0, 84, 60
4, 1173120, Note_on_c, 0, 89, 60
4, 1173600, Note_on_c, 0, 77, 0
4, 1173600, Note_on_c, 0, 75, 60
4, 1174080, Note_on_c, 0, 75, 0
4, 1174080, Note_on_c, 0, 89, 0
4, 1174080, Note_on_c, 0, 84, 0
4, 1174080, Note_on_c, 0, 74, 60
4, 1174080, Note_on_c, 0, 77, 60
4, 1174080, Note_on_c, 0, 82, 60
4, 1174560, Note_on_c, 0, 82, 0
4, 1174560, Note_on_c, 0, 77, 0
4, 1174560, Note_on_c, 0, 74, 0
4, 1174560, Control_c, 0, 64, 0
4, 1174560, Note_on_c, 0, 65, 47
4, 1174560, Note_on_c, 0, 70, 47
4, 1174560, Note_on_c, 0, 77, 47
4, 1175040, Note_on_c, 0, 77, 0
4, 1175040, Note_on_c, 0, 70, 0
4, 1175040, Note_on_c, 0, 65, 0
4, 1175040, Note_on_c, 0, 67, 47
4, 1175040, Note_on_c, 0, 70, 47
4, 1175040, Note_on_c, 0, 76, 47
4, 1175040, Note_on_c, 0, 79, 47
4, 1175520, Note_on_c, 0, 79, 0
4, 1175520, Note_on_c, 0, 67, 0
4, 1175520, Note_on_c, 0, 70, 0
4, 1175520, Note_on_c, 0, 76, 0
4, 1175520, Note_on_c, 0, 69, 47
4, 1175520, Note_on_c, 0, 75, 47
4, 1175520, Note_on_c, 0, 81, 47
4, 1176000, Note_on_c, 0, 81, 0
4, 1176000, Note_on_c, 0, 75, 0
4, 1176000, Note_on_c, 0, 69, 0
4, 1176000, Note_on_c, 0, 72, 47
4, 1176000, Note_on_c, 0, 74, 47
4, 1176000, Note_on_c, 0, 81, 47
4, 1176000, Note_on_c, 0, 84, 47
4, 1176480, Note_on_c, 0, 84, 0
4, 1176480, Note_on_c, 0, 81, 0
4, 1176480, Note_on_c, 0, 72, 0
4, 1176480, Note_on_c, 0, 70, 47
4, 1176480, Note_on_c, 0, 79, 47
4, 1176480, Note_on_c, 0, 82, 47
4, 1176960, Note_on_c, 0, 82, 0
4, 1176960, Note_on_c, 0, 74, 0
4, 1176960, Note_on_c, 0, 70, 0
4, 1176960, Note_on_c, 0, 79, 0
4, 1176960, Note_on_c, 0, 62, 47
4, 1176960, Note_on_c, 0, 70, 47
4, 1176960, Note_on_c, 0, 74, 47
4, 1177440, Note_on_c, 0, 74, 0
4, 1177440, Note_on_c, 0, 70, 0
4, 1177440, Note_on_c, 0, 62, 0
4, 1177440, Note_on_c, 0, 64, 47
4, 1177440, Note_on_c, 0, 70, 47
4, 1177440, Note_on_c, 0, 72, 47
4, 1177440, Note_on_c, 0, 76, 47
4, 1177920, Note_on_c, 0, 76, 0
4, 1177920, Note_on_c, 0, 64, 0
4, 1177920, Note_on_c, 0, 70, 0
4, 1177920, Note_on_c, 0, 72, 0
4, 1177920, Note_on_c, 0, 65, 47
4, 1177920, Note_on_c, 0, 69, 47
4, 1177920, Note_on_c, 0, 72, 47
4, 1177920, Note_on_c, 0, 77, 47
4, 1178400, Note_on_c, 0, 77, 0
4, 1178400, Note_on_c, 0, 65, 0
4, 1178400, Note_on_c, 0, 69, 0
4, 1178400, Note_on_c, 0, 67, 47
4, 1178400, Note_on_c, 0, 79, 47
4, 1178880, Note_on_c, 0, 79, 0
4, 1178880, Note_on_c, 0, 72, 0
4, 1178880, Note_on_c, 0, 72, 47
4, 1179360, Note_on_c, 0, 72, 0
4, 1179360, Note_on_c, 0, 67, 0
4, 1179360, Note_on_c, 0, 67, 47
4, 1179360, Note_on_c, 0, 72, 47
4, 1179360, Note_on_c, 0, 79, 47
4, 1179840, Note_on_c, 0, 79, 0
4, 1179840, Note_on_c, 0, 72, 0
4, 1179840, Note_on_c, 0, 72, 47
4, 1180320, Note_on_c, 0, 72, 0
4, 1180320, Note_on_c, 0, 67, 0
4, 1180320, Note_on_c, 0, 65, 47
4, 1180320, Note_on_c, 0, 68, 47
4, 1180320, Note_on_c, 0, 71, 47
4, 1180320, Note_on_c, 0, 77, 47
4, 1180800, Note_on_c, 0, 77, 0
4, 1180800, Note_on_c, 0, 71, 0
4, 1180800, Note_on_c, 0, 71, 47
4, 1181280, Note_on_c, 0, 71, 0
4, 1181280, Note_on_c, 0, 68, 0
4, 1181280, Note_on_c, 0, 65, 0
4, 1181280, Note_on_c, 0, 65, 47
4, 1181280, Note_on_c, 0, 67, 47
4, 1181280, Note_on_c, 0, 71, 47
4, 1181280, Note_on_c, 0, 77, 47
4, 1181760, Note_on_c, 0, 77, 0
4, 1181760, Note_on_c, 0, 71, 0
4, 1181760, Note_on_c, 0, 71, 47
4, 1182240, Note_on_c, 0, 71, 0
4, 1182240, Note_on_c, 0, 67, 0
4, 1182240, Note_on_c, 0, 65, 0
4, 1182240, Note_on_c, 0, 64, 47
4, 1182240, Note_on_c, 0, 67, 47
4, 1182240, Note_on_c, 0, 72, 47
4, 1182240, Note_on_c, 0, 76, 47
4, 1182720, Note_on_c, 0, 76, 0
4, 1182720, Note_on_c, 0, 64, 0
4, 1182720, Note_on_c, 0, 67, 0
4, 1182720, Note_on_c, 0, 72, 0
4, 1182720, Note_on_c, 0, 63, 47
4, 1182720, Note_on_c, 0, 69, 47
4, 1182720, Note_on_c, 0, 72, 47
4, 1182720, Note_on_c, 0, 75, 47
4, 1183200, Note_on_c, 0, 75, 0
4, 1183200, Note_on_c, 0, 63, 0
4, 1183200, Note_on_c, 0, 69, 0
4, 1183200, Note_on_c, 0, 72, 0
4, 1183200, Note_on_c, 0, 62, 47
4, 1183200, Note_on_c, 0, 70, 47
4, 1183200, Note_on_c, 0, 74, 47
4, 1183680, Note_on_c, 0, 74, 0
4, 1183680, Note_on_c, 0, 70, 0
4, 1183680, Note_on_c, 0, 62, 0
4, 1183680, Note_on_c, 0, 69, 47
4, 1183680, Note_on_c, 0, 70, 47
4, 1183680, Note_on_c, 0, 72, 47
4, 1183680, Note_on_c, 0, 81, 47
4, 1184160, Note_on_c, 0, 81, 0
4, 1184160, Note_on_c, 0, 69, 0
4, 1184160, Note_on_c, 0, 67, 60
4, 1184160, Note_on_c, 0, 79, 60
4, 1184640, Note_on_c, 0, 79, 0
4, 1184640, Note_on_c, 0, 70, 0
4, 1184640, Note_on_c, 0, 72, 0
4, 1184640, Note_on_c, 0, 67, 0
4, 1184640, Note_on_c, 0, 68, 60
4, 1184640, Note_on_c, 0, 74, 60
4, 1184640, Note_on_c, 0, 80, 60
4, 1185120, Note_on_c, 0, 80, 0
4, 1185120, Note_on_c, 0, 68, 0
4, 1185120, Note_on_c, 0, 69, 60
4, 1185120, Note_on_c, 0, 81, 60
4, 1185600, Note_on_c, 0, 81, 0
4, 1185600, Note_on_c, 0, 69, 0
4, 1185600, Note_on_c, 0, 74, 0
4, 1185600, Note_on_c, 0, 74, 60
4, 1185600, Note_on_c, 0, 75, 60
4, 1185600, Note_on_c, 0, 81, 60
4, 1185600, Note_on_c, 0, 86, 60
4, 1186080, Note_on_c, 0, 86, 0
4, 1186080, Note_on_c, 0, 74, 0
4, 1186080, Note_on_c, 0, 69, 60
4, 1186080, Note_on_c, 0, 81, 60
4, 1186560, Note_on_c, 0, 81, 0
4, 1186560, Note_on_c, 0, 75, 0
4, 1186560, Note_on_c, 0, 81, 0
4, 1186560, Note_on_c, 0, 69, 0
4, 1186560, Note_on_c, 0, 69, 60
4, 1186560, Note_on_c, 0, 74, 60
4, 1186560, Note_on_c, 0, 79, 60
4, 1186560, Note_on_c, 0, 81, 60
4, 1187040, Note_on_c, 0, 81, 0
4, 1187040, Note_on_c, 0, 69, 0
4, 1187040, Note_on_c, 0, 70, 60
4, 1187040, Note_on_c, 0, 82, 60
4, 1187520, Note_on_c, 0, 82, 0
4, 1187520, Note_on_c, 0, 74, 0
4, 1187520, Note_on_c, 0, 79, 0
4, 1187520, Note_on_c, 0, 70, 0
4, 1187520, Note_on_c, 0, 75, 60
4, 1187520, Note_on_c, 0, 82, 60
4, 1187520, Note_on_c, 0, 87, 60
4, 1188000, Note_on_c, 0, 87, 0
4, 1188000, Note_on_c, 0, 82, 0
4, 1188000, Note_on_c, 0, 75, 0
4, 1188000, Note_on_c, 0, 70, 60
4, 1188000, Note_on_c, 0, 75, 60
4, 1188000, Note_on_c, 0, 82, 60
4, 1188480, Note_on_c, 0, 82, 0
4, 1188480, Note_on_c, 0, 75, 0
4, 1188480, Note_on_c, 0, 70, 0
4, 1188480, Note_on_c, 0, 71, 60
4, 1188480, Note_on_c, 0, 75, 60
4, 1188480, Note_on_c, 0, 83, 60
4, 1188960, Note_on_c, 0, 83, 0
4, 1188960, Note_on_c, 0, 71, 0
4, 1188960, Note_on_c, 0, 72, 60
4, 1188960, Note_on_c, 0, 84, 60
4, 1189440, Note_on_c, 0, 84, 0
4, 1189440, Note_on_c, 0, 72, 0
4, 1189440, Note_on_c, 0, 75, 0
4, 1189440, Note_on_c, 0, 77, 60
4, 1189440, Note_on_c, 0, 84, 60
4, 1189440, Note_on_c, 0, 89, 60
4, 1189920, Note_on_c, 0, 89, 0
4, 1189920, Note_on_c, 0, 84, 0
4, 1189920, Note_on_c, 0, 77, 0
4, 1189920, Note_on_c, 0, 72, 60
4, 1189920, Note_on_c, 0, 77, 60
4, 1189920, Note_on_c, 0, 84, 60
4, 1190400, Note_on_c, 0, 84, 0
4, 1190400, Note_on_c, 0, 77, 0
4, 1190400, Note_on_c, 0, 72, 0
4, 1190400, Note_on_c, 0, 73, 60
4, 1190400, Note_on_c, 0, 77, 60
4, 1190400, Note_on_c, 0, 85, 60
4, 1190880, Note_on_c, 0, 85, 0
4, 1190880, Note_on_c, 0, 73, 0
4, 1190880, Note_on_c, 0, 74, 60
4, 1190880, Note_on_c, 0, 86, 60
4, 1191360, Note_on_c, 0, 86, 0
4, 1191360, Note_on_c, 0, 74, 0
4, 1191360, Note_on_c, 0, 77, 0
4, 1191360, Note_on_c, 0, 79, 60
4, 1191360, Note_on_c, 0, 86, 60
4, 1191360, Note_on_c, 0, 91, 60
4, 1191840, Note_on_c, 0, 91, 0
4, 1191840, Note_on_c, 0, 86, 0
4, 1191840, Note_on_c, 0, 79, 0
4, 1191840, Note_on_c, 0, 74, 60
4, 1191840, Note_on_c, 0, 79, 60
4, 1191840, Note_on_c, 0, 86, 60
4, 1192320, Note_on_c, 0, 86, 0
4, 1192320, Note_on_c, 0, 79, 0
4, 1192320, Note_on_c, 0, 74, 0
4, 1192320, Note_on_c, 0, 79, 60
4, 1192320, Note_on_c, 0, 87, 60
4, 1192320, Note_on_c, 0, 91, 60
4, 1192800, Note_on_c, 0, 91, 0
4, 1192800, Note_on_c, 0, 87, 0
4, 1192800, Note_on_c, 0, 79, 0
4, 1192800, Note_on_c, 0, 75, 60
4, 1192800, Note_on_c, 0, 79, 60
4, 1192800, Note_on_c, 0, 87, 60
4, 1193280, Note_on_c, 0, 87, 0
4, 1193280, Note_on_c, 0, 79, 0
4, 1193280, Note_on_c, 0, 75, 0
4, 1193280, Note_on_c, 0, 81, 60
4, 1193280, Note_on_c, 0, 88, 60
4, 1193280, Note_on_c, 0, 93, 60
4, 1193760, Note_on_c, 0, 93, 0
4, 1193760, Note_on_c, 0, 88, 0
4, 1193760, Note_on_c, 0, 81, 0
4, 1193760, Note_on_c, 0, 76, 60
4, 1193760, Note_on_c, 0, 81, 60
4, 1193760, Note_on_c, 0, 88, 60
4, 1194240, Note_on_c, 0, 88, 0
4, 1194240, Note_on_c, 0, 81, 0
4, 1194240, Note_on_c, 0, 76, 0
4, 1194240, Note_on_c, 0, 81, 60
4, 1194240, Note_on_c, 0, 89, 60
4, 1194240, Note_on_c, 0, 93, 60
4, 1194720, Note_on_c, 0, 93, 0
4, 1194720, Note_on_c, 0, 89, 0
4, 1194720, Note_on_c, 0, 81, 0
4, 1194720, Note_on_c, 0, 77, 60
4, 1194720, Note_on_c, 0, 81, 60
4, 1194720, Note_on_c, 0, 89, 60
4, 1195200, Note_on_c, 0, 89, 0
4, 1195200, Note_on_c, 0, 81, 0
4, 1195200, Note_on_c, 0, 77, 0
4, 1195200, Note_on_c, 0, 82, 60
4, 1195200, Note_on_c, 0, 89, 60
4, 1195200, Note_on_c, 0, 94, 60
4, 1195680, Note_on_c, 0, 94, 0
4, 1195680, Note_on_c, 0, 89, 0
4, 1195680, Note_on_c, 0, 82, 0
4, 1195680, Note_on_c, 0, 77, 60
4, 1195680, Note_on_c, 0, 82, 60
4, 1195680, Note_on_c, 0, 89, 60
4, 1196160, Note_on_c, 0, 89, 0
4, 1196160, Note_on_c, 0, 82, 0
4, 1196160, Note_on_c, 0, 77, 0
4, 1196160, Note_on_c, 0, 82, 73
4, 1196160, Note_on_c, 0, 87, 73
4, 1196160, Note_on_c, 0, 90, 73
4, 1196160, Note_on_c, 0, 94, 73
4, 1196640, Note_on_c, 0, 94, 0
4, 1196640, Note_on_c, 0, 82, 0
4, 1196640, Note_on_c, 0, 87, 0
4, 1196640, Note_on_c, 0, 90, 0
4, 1199040, Note_on_c, 0, 70, 86
4, 1199040, Note_on_c, 0, 75, 86
4, 1199040, Note_on_c, 0, 78, 86
4, 1199040, Note_on_c, 0, 82, 86
4, 1199520, Note_on_c, 0, 82, 0
4, 1199520, Note_on_c, 0, 70, 0
4, 1199520, Note_on_c, 0, 75, 0
4, 1199520, Note_on_c, 0, 78, 0
4, 1199520, Note_on_c, 0, 70, 86
4, 1199520, Note_on_c, 0, 77, 86
4, 1199520, Note_on_c, 0, 82, 86
4, 1200000, Note_on_c, 0, 82, 0
4, 1200000, Note_on_c, 0, 77, 0
4, 1200000, Note_on_c, 0, 70, 0
4, 1200000, Note_on_c, 0, 70, 86
4, 1200000, Note_on_c, 0, 75, 86
4, 1200000, Note_on_c, 0, 78, 86
4, 1200000, Note_on_c, 0, 82, 86
4, 1200480, Note_on_c, 0, 82, 0
4, 1200480, Note_on_c, 0, 70, 0
4, 1200480, Note_on_c, 0, 75, 0
4, 1200480, Note_on_c, 0, 78, 0
4, 1202880, Note_on_c, 0, 70, 86
4, 1202880, Note_on_c, 0, 75, 86
4, 1202880, Note_on_c, 0, 78, 86
4, 1202880, Note_on_c, 0, 82, 86
4, 1203360, Note_on_c, 0, 82, 0
4, 1203360, Note_on_c, 0, 70, 0
4, 1203360, Note_on_c, 0, 75, 0
4, 1203360, Note_on_c, 0, 78, 0
4, 1203360, Note_on_c, 0, 70, 86
4, 1203360, Note_on_c, 0, 77, 86
4, 1203360, Note_on_c, 0, 82, 86
4, 1203840, Note_on_c, 0, 82, 0
4, 1203840, Note_on_c, 0, 77, 0
4, 1203840, Note_on_c, 0, 70, 0
4, 1203840, Note_on_c, 0, 70, 86
4, 1203840, Note_on_c, 0, 75, 86
4, 1203840, Note_on_c, 0, 78, 86
4, 1203840, Note_on_c, 0, 82, 86
4, 1204320, Note_on_c, 0, 82, 0
4, 1204320, Note_on_c, 0, 70, 0
4, 1204320, Note_on_c, 0, 75, 0
4, 1204320, Note_on_c, 0, 78, 0
4, 1204800, Note_on_c, 0, 70, 86
4, 1204800, Note_on_c, 0, 75, 86
4, 1204800, Note_on_c, 0, 78, 86
4, 1204800, Note_on_c, 0, 82, 86
4, 1205280, Note_on_c, 0, 82, 0
4, 1205280, Note_on_c, 0, 70, 0
4, 1205280, Note_on_c, 0, 75, 0
4, 1205280, Note_on_c, 0, 78, 0
4, 1206720, Note_on_c, 0, 70, 86
4, 1206720, Note_on_c, 0, 73, 86
4, 1206720, Note_on_c, 0, 78, 86
4, 1206720, Note_on_c, 0, 82, 86
4, 1207200, Note_on_c, 0, 82, 0
4, 1207200, Note_on_c, 0, 70, 0
4, 1207200, Note_on_c, 0, 73, 0
4, 1207200, Note_on_c, 0, 78, 0
4, 1208640, Note_on_c, 0, 70, 86
4, 1208640, Note_on_c, 0, 74, 86
4, 1208640, Note_on_c, 0, 77, 86
4, 1208640, Note_on_c, 0, 82, 86
4, 1209120, Note_on_c, 0, 82, 0
4, 1209120, Note_on_c, 0, 70, 0
4, 1209120, Note_on_c, 0, 74, 0
4, 1209120, Note_on_c, 0, 77, 0
4, 1211520, Note_on_c, 0, 62, 60
4, 1211520, Note_on_c, 0, 65, 60
4, 1211520, Note_on_c, 0, 70, 60
4, 1211520, Note_on_c, 0, 74, 60
4, 1212480, Note_on_c, 0, 74, 0
4, 1212480, Note_on_c, 0, 62, 0
4, 1212480, Note_on_c, 0, 65, 0
4, 1212480, Note_on_c, 0, 70, 0
4, 1212480, Note_on_c, 0, 60, 60
4, 1212480, Note_on_c, 0, 65, 60
4, 1212480, Note_on_c, 0, 70, 60
4, 1212480, Note_on_c, 0, 72, 60
4, 1214400, Note_on_c, 0, 72, 0
4, 1214400, Note_on_c, 0, 60, 0
4, 1214400, Note_on_c, 0, 65, 0
4, 1214400, Note_on_c, 0, 70, 0
4, 1214400, Note_on_c, 0, 65, 60
4, 1214400, Note_on_c, 0, 69, 60
4, 1214400, Note_on_c, 0, 72, 60
4, 1214400, Note_on_c, 0, 77, 60
4, 1216320, Note_on_c, 0, 77, 0
4, 1216320, Note_on_c, 0, 65, 0
4, 1216320, Note_on_c, 0, 69, 0
4, 1216320, Note_on_c, 0, 72, 0
4, 1216320, Note_on_c, 0, 62, 60
4, 1216320, Note_on_c, 0, 65, 60
4, 1216320, Note_on_c, 0, 70, 60
4, 1216800, Note_on_c, 0, 70, 0
4, 1216800, Note_on_c, 0, 65, 0
4, 1216800, Note_on_c, 0, 62, 0
4, 1216800, Note_on_c, 0, 72, 73
4, 1216800, Note_on_c, 0, 75, 73
4, 1216800, Note_on_c, 0, 82, 73
4, 1216800, Note_on_c, 0, 84, 73
4, 1217760, Note_on_c, 0, 84, 0
4, 1217760, Note_on_c, 0, 72, 0
4, 1217760, Note_on_c, 0, 75, 0
4, 1217760, Note_on_c, 0, 82, 0
4, 1217760, Note_on_c, 0, 72, 73
4, 1217760, Note_on_c, 0, 75, 73
4, 1217760, Note_on_c, 0, 82, 73
4, 1217760, Note_on_c, 0, 84, 73
4, 1218240, Note_on_c, 0, 84, 0
4, 1218240, Note_on_c, 0, 72, 0
4, 1218240, Note_on_c, 0, 75, 0
4, 1218240, Note_on_c, 0, 82, 0
4, 1218240, Note_on_c, 0, 74, 73
4, 1218240, Note_on_c, 0, 77, 73
4, 1218240, Note_on_c, 0, 82, 73
4, 1218240, Note_on_c, 0, 86, 73
4, 1218720, Note_on_c, 0, 86, 0
4, 1218720, Note_on_c, 0, 74, 0
4, 1218720, Note_on_c, 0, 77, 0
4, 1218720, Note_on_c, 0, 82, 0
4, 1219200, Note_on_c, 0, 78, 73
4, 1219200, Note_on_c, 0, 82, 73
4, 1219200, Note_on_c, 0, 85, 73
4, 1219200, Note_on_c, 0, 90, 73
4, 1220160, Note_on_c, 0, 90, 0
4, 1220160, Note_on_c, 0, 78, 0
4, 1220160, Note_on_c, 0, 82, 0
4, 1220160, Note_on_c, 0, 85, 0
4, 1220160, Note_on_c, 0, 77, 73
4, 1220160, Note_on_c, 0, 82, 73
4, 1220160, Note_on_c, 0, 86, 73
4, 1220160, Note_on_c, 0, 89, 73
4, 1220640, Note_on_c, 0, 89, 0
4, 1220640, Note_on_c, 0, 77, 0
4, 1220640, Note_on_c, 0, 82, 0
4, 1220640, Note_on_c, 0, 86, 0
4, 1220640, Note_on_c, 0, 60, 73
4, 1220640, Note_on_c, 0, 63, 73
4, 1220640, Note_on_c, 0, 70, 73
4, 1220640, Note_on_c, 0, 72, 73
4, 1221600, Note_on_c, 0, 72, 0
4, 1221600, Note_on_c, 0, 60, 0
4, 1221600, Note_on_c, 0, 63, 0
4, 1221600, Note_on_c, 0, 70, 0
4, 1221600, Note_on_c, 0, 60, 73
4, 1221600, Note_on_c, 0, 63, 73
4, 1221600, Note_on_c, 0, 70, 73
4, 1221600, Note_on_c, 0, 72, 73
4, 1222080, Note_on_c, 0, 72, 0
4, 1222080, Note_on_c, 0, 60, 0
4, 1222080, Note_on_c, 0, 63, 0
4, 1222080, Note_on_c, 0, 70, 0
4, 1222080, Note_on_c, 0, 62, 73
4, 1222080, Note_on_c, 0, 65, 73
4, 1222080, Note_on_c, 0, 70, 73
4, 1222080, Note_on_c, 0, 74, 73
4, 1222560, Note_on_c, 0, 74, 0
4, 1222560, Note_on_c, 0, 62, 0
4, 1222560, Note_on_c, 0, 65, 0
4, 1222560, Note_on_c, 0, 70, 0
4, 1223040, Note_on_c, 0, 78, 73
4, 1223040, Note_on_c, 0, 82, 73
4, 1223040, Note_on_c, 0, 85, 73
4, 1223040, Note_on_c, 0, 90, 73
4, 1224000, Note_on_c, 0, 90, 0
4, 1224000, Note_on_c, 0, 78, 0
4, 1224000, Note_on_c, 0, 82, 0
4, 1224000, Note_on_c, 0, 85, 0
4, 1224000, Note_on_c, 0, 77, 73
4, 1224000, Note_on_c, 0, 82, 73
4, 1224000, Note_on_c, 0, 86, 73
4, 1224000, Note_on_c, 0, 89, 73
4, 1224480, Note_on_c, 0, 89, 0
4, 1224480, Note_on_c, 0, 77, 0
4, 1224480, Note_on_c, 0, 82, 0
4, 1224480, Note_on_c, 0, 86, 0
4, 1224960, Note_on_c, 0, 78, 73
4, 1224960, Note_on_c, 0, 82, 73
4, 1224960, Note_on_c, 0, 85, 73
4, 1224960, Note_on_c, 0, 90, 73
4, 1225920, Note_on_c, 0, 90, 0
4, 1225920, Note_on_c, 0, 78, 0
4, 1225920, Note_on_c, 0, 82, 0
4, 1225920, Note_on_c, 0, 85, 0
4, 1225920, Note_on_c, 0, 77, 73
4, 1225920, Note_on_c, 0, 82, 73
4, 1225920, Note_on_c, 0, 86, 73
4, 1225920, Note_on_c, 0, 89, 73
4, 1226400, Note_on_c, 0, 89, 0
4, 1226400, Note_on_c, 0, 77, 0
4, 1226400, Note_on_c, 0, 82, 0
4, 1226400, Note_on_c, 0, 86, 0
4, 1226880, Note_on_c, 0, 78, 73
4, 1226880, Note_on_c, 0, 82, 73
4, 1226880, Note_on_c, 0, 85, 73
4, 1226880, Note_on_c, 0, 90, 73
4, 1227840, Note_on_c, 0, 90, 0
4, 1227840, Note_on_c, 0, 78, 0
4, 1227840, Note_on_c, 0, 82, 0
4, 1227840, Note_on_c, 0, 85, 0
4, 1227840, Note_on_c, 0, 77, 86
4, 1227840, Note_on_c, 0, 82, 86
4, 1227840, Note_on_c, 0, 86, 86
4, 1227840, Note_on_c, 0, 89, 86
4, 1228320, Note_on_c, 0, 89, 0
4, 1228320, Note_on_c, 0, 77, 0
4, 1228320, Note_on_c, 0, 82, 0
4, 1228320, Note_on_c, 0, 86, 0
4, 1228320, Note_on_c, 0, 78, 86
4, 1228320, Note_on_c, 0, 82, 86
4, 1228320, Note_on_c, 0, 85, 86
4, 1228320, Note_on_c, 0, 90, 86
4, 1228800, Note_on_c, 0, 90, 0
4, 1228800, Note_on_c, 0, 78, 0
4, 1228800, Note_on_c, 0, 82, 0
4, 1228800, Note_on_c, 0, 85, 0
4, 1228800, Note_on_c, 0, 77, 86
4, 1228800, Note_on_c, 0, 82, 86
4, 1228800, Note_on_c, 0, 86, 86
4, 1228800, Note_on_c, 0, 89, 86
4, 1229280, Note_on_c, 0, 89, 0
4, 1229280, Note_on_c, 0, 77, 0
4, 1229280, Note_on_c, 0, 82, 0
4, 1229280, Note_on_c, 0, 86, 0
4, 1229280, Note_on_c, 0, 82, 86
4, 1229280, Note_on_c, 0, 85, 86
4, 1229280, Note_on_c, 0, 90, 86
4, 1229280, Note_on_c, 0, 94, 86
4, 1229760, Note_on_c, 0, 94, 0
4, 1229760, Note_on_c, 0, 82, 0
4, 1229760, Note_on_c, 0, 85, 0
4, 1229760, Note_on_c, 0, 90, 0
4, 1229760, Note_on_c, 0, 77, 86
4, 1229760, Note_on_c, 0, 82, 86
4, 1229760, Note_on_c, 0, 86, 86
4, 1229760, Note_on_c, 0, 89, 86
4, 1230240, Note_on_c, 0, 89, 0
4, 1230240, Note_on_c, 0, 77, 0
4, 1230240, Note_on_c, 0, 82, 0
4, 1230240, Note_on_c, 0, 86, 0
4, 1230240, Note_on_c, 0, 78, 86
4, 1230240, Note_on_c, 0, 82, 86
4, 1230240, Note_on_c, 0, 85, 86
4, 1230240, Note_on_c, 0, 90, 86
4, 1230720, Note_on_c, 0, 90, 0
4, 1230720, Note_on_c, 0, 78, 0
4, 1230720, Note_on_c, 0, 82, 0
4, 1230720, Note_on_c, 0, 85, 0
4, 1230720, Note_on_c, 0, 77, 86
4, 1230720, Note_on_c, 0, 82, 86
4, 1230720, Note_on_c, 0, 86, 86
4, 1230720, Note_on_c, 0, 89, 86
4, 1231200, Note_on_c, 0, 89, 0
4, 1231200, Note_on_c, 0, 77, 0
4, 1231200, Note_on_c, 0, 82, 0
4, 1231200, Note_on_c, 0, 86, 0
4, 1231200, Note_on_c, 0, 82, 86
4, 1231200, Note_on_c, 0, 85, 86
4, 1231200, Note_on_c, 0, 90, 86
4, 1231200, Note_on_c, 0, 94, 86
4, 1231680, Note_on_c, 0, 94, 0
4, 1231680, Note_on_c, 0, 82, 0
4, 1231680, Note_on_c, 0, 85, 0
4, 1231680, Note_on_c, 0, 90, 0
4, 1231680, Note_on_c, 0, 77, 86
4, 1231680, Note_on_c, 0, 82, 86
4, 1231680, Note_on_c, 0, 86, 86
4, 1231680, Note_on_c, 0, 89, 86
4, 1232160, Note_on_c, 0, 89, 0
4, 1232160, Note_on_c, 0, 77, 0
4, 1232160, Note_on_c, 0, 82, 0
4, 1232160, Note_on_c, 0, 86, 0
4, 1233600, Note_on_c, 0, 77, 86
4, 1233600, Note_on_c, 0, 82, 86
4, 1233600, Note_on_c, 0, 86, 86
4, 1233600, Note_on_c, 0, 89, 86
4, 1234080, Note_on_c, 0, 89, 0
4, 1234080, Note_on_c, 0, 77, 0
4, 1234080, Note_on_c, 0, 82, 0
4, 1234080, Note_on_c, 0, 86, 0
4, 1234560, Note_on_c, 0, 77, 86
4, 1234560, Note_on_c, 0, 82, 86
4, 1234560, Note_on_c, 0, 86, 86
4, 1234560, Note_on_c, 0, 89, 86
4, 1235040, Note_on_c, 0, 89, 0
4, 1235040, Note_on_c, 0, 77, 0
4, 1235040, Note_on_c, 0, 82, 0
4, 1235040, Note_on_c, 0, 86, 0
4, 1235520, Note_on_c, 0, 77, 86
4, 1235520, Note_on_c, 0, 82, 86
4, 1235520, Note_on_c, 0, 86, 86
4, 1235520, Note_on_c, 0, 89, 86
4, 1236000, Note_on_c, 0, 89, 0
4, 1236000, Note_on_c, 0, 77, 0
4, 1236000, Note_on_c, 0, 82, 0
4, 1236000, Note_on_c, 0, 86, 0
4, 1237440, Note_on_c, 0, 74, 86
4, 1237440, Note_on_c, 0, 77, 86
4, 1237440, Note_on_c, 0, 82, 86
4, 1237440, Note_on_c, 0, 86, 86
4, 1237920, Note_on_c, 0, 86, 0
4, 1237920, Note_on_c, 0, 74, 0
4, 1237920, Note_on_c, 0, 77, 0
4, 1237920, Note_on_c, 0, 82, 0
4, 1239360, Note_on_c, 0, 70, 86
4, 1239360, Note_on_c, 0, 74, 86
4, 1239360, Note_on_c, 0, 77, 86
4, 1239360, Note_on_c, 0, 82, 86
4, 1239840, Note_on_c, 0, 82, 0
4, 1239840, Note_on_c, 0, 70, 0
4, 1239840, Note_on_c, 0, 74, 0
4, 1239840, Note_on_c, 0, 77, 0
4, 1240320, Note_on_c, 0, 70, 86
4, 1240320, Note_on_c, 0, 74, 86
4, 1240320, Note_on_c, 0, 77, 86
4, 1240320, Note_on_c, 0, 82, 86
4, 1240800, Note_on_c, 0, 82, 0
4, 1240800, Note_on_c, 0, 70, 0
4, 1240800, Note_on_c, 0, 74, 0
4, 1240800, Note_on_c, 0, 77, 0
4, 1241280, Note_on_c, 0, 70, 86
4, 1241280, Note_on_c, 0, 74, 86
4, 1241280, Note_on_c, 0, 77, 86
4, 1241280, Note_on_c, 0, 82, 86
4, 1241760, Note_on_c, 0, 82, 0
4, 1241760, Note_on_c, 0, 70, 0
4, 1241760, Note_on_c, 0, 74, 0
4, 1241760, Note_on_c, 0, 77, 0
4, 1242240, Note_on_c, 0, 70, 86
4, 1242240, Note_on_c, 0, 74, 86
4, 1242240, Note_on_c, 0, 77, 86
4, 1242240, Note_on_c, 0, 82, 86
4, 1242720, Note_on_c, 0, 82, 0
4, 1242720, Note_on_c, 0, 70, 0
4, 1242720, Note_on_c, 0, 74, 0
4, 1242720, Note_on_c, 0, 77, 0
4, 1243200, Note_on_c, 0, 70, 86
4, 1243200, Note_on_c, 0, 74, 86
4, 1243200, Note_on_c, 0, 77, 86
4, 1243200, Note_on_c, 0, 82, 86
4, 1243680, Note_on_c, 0, 82, 0
4, 1243680, Note_on_c, 0, 70, 0
4, 1243680, Note_on_c, 0, 74, 0
4, 1243680, Note_on_c, 0, 77, 0
4, 1243680, Note_on_c, 0, 70, 86
4, 1243680, Note_on_c, 0, 75, 86
4, 1243680, Note_on_c, 0, 79, 86
4, 1243680, Note_on_c, 0, 82, 86
4, 1244160, Note_on_c, 0, 82, 0
4, 1244160, Note_on_c, 0, 70, 0
4, 1244160, Note_on_c, 0, 75, 0
4, 1244160, Note_on_c, 0, 79, 0
4, 1244160, Note_on_c, 0, 70, 86
4, 1244160, Note_on_c, 0, 74, 86
4, 1244160, Note_on_c, 0, 77, 86
4, 1244160, Note_on_c, 0, 82, 86
4, 1244640, Note_on_c, 0, 82, 0
4, 1244640, Note_on_c, 0, 70, 0
4, 1244640, Note_on_c, 0, 74, 0
4, 1244640, Note_on_c, 0, 77, 0
4, 1245120, Note_on_c, 0, 58, 86
4, 1249920, Note_on_c, 0, 58, 0
4, 1249920, End_track
5, 0, Start_track
5, 0, Title_t, "Grand Piano"
5, 0, Program_c, 0, 0
5, 0, Control_c, 0, 7, 115
5, 0, Control_c, 0, 10, 41
5, 1830, Note_on_c, 0, 44, 88
5, 1860, Note_on_c, 0, 49, 88
5, 1890, Note_on_c, 0, 53, 88
5, 1920, Note_on_c, 0, 58, 88
5, 2400, Note_on_c, 0, 58, 0
5, 2400, Note_on_c, 0, 44, 0
5, 2400, Note_on_c, 0, 49, 0
5, 2400, Note_on_c, 0, 53, 0
5, 3270, Note_on_c, 0, 43, 88
5, 3300, Note_on_c, 0, 49, 88
5, 3330, Note_on_c, 0, 53, 88
5, 3360, Note_on_c, 0, 58, 88
5, 3840, Note_on_c, 0, 58, 0
5, 3840, Note_on_c, 0, 43, 0
5, 3840, Note_on_c, 0, 49, 0
5, 3840, Note_on_c, 0, 53, 0
5, 4710, Note_on_c, 0, 42, 88
5, 4740, Note_on_c, 0, 46, 88
5, 4770, Note_on_c, 0, 48, 88
5, 4800, Note_on_c, 0, 54, 88
5, 5190, Note_on_c, 0, 41, 88
5, 5220, Note_on_c, 0, 44, 88
5, 5250, Note_on_c, 0, 49, 88
5, 5280, Note_on_c, 0, 54, 0
5, 5280, Note_on_c, 0, 48, 0
5, 5280, Note_on_c, 0, 42, 0
5, 5280, Note_on_c, 0, 46, 0
5, 5280, Note_on_c, 0, 53, 88
5, 5670, Note_on_c, 0, 40, 88
5, 5700, Note_on_c, 0, 46, 88
5, 5730, Note_on_c, 0, 49, 88
5, 5760, Note_on_c, 0, 53, 0
5, 5760, Note_on_c, 0, 49, 0
5, 5760, Note_on_c, 0, 44, 0
5, 5760, Note_on_c, 0, 41, 0
5, 5760, Control_c, 0, 64, 127
5, 5760, Note_on_c, 0, 52, 88
5, 6150, Note_on_c, 0, 39, 88
5, 6180, Note_on_c, 0, 46, 88
5, 6210, Note_on_c, 0, 49, 88
5, 6240, Note_on_c, 0, 52, 0
5, 6240, Note_on_c, 0, 49, 0
5, 6240, Note_on_c, 0, 46, 0
5, 6240, Note_on_c, 0, 40, 0
5, 6240, Note_on_c, 0, 51, 88
5, 6630, Note_on_c, 0, 44, 88
5, 6660, Note_on_c, 0, 51, 88
5, 6690, Note_on_c, 0, 54, 88
5, 6720, Note_on_c, 0, 51, 0
5, 6720, Note_on_c, 0, 49, 0
5, 6720, Note_on_c, 0, 46, 0
5, 6720, Note_on_c, 0, 39, 0
5, 6720, Control_c, 0, 64, 0
5, 6720, Note_on_c, 0, 60, 88
5, 7110, Note_on_c, 0, 37, 88
5, 7140, Note_on_c, 0, 44, 88
5, 7170, Note_on_c, 0, 49, 88
5, 7200, Note_on_c, 0, 60, 0
5, 7200, Note_on_c, 0, 54, 0
5, 7200, Note_on_c, 0, 51, 0
5, 7200, Note_on_c, 0, 44, 0
5, 7200, Note_on_c, 0, 53, 88
5, 7680, Note_on_c, 0, 53, 0
5, 7680, Note_on_c, 0, 44, 0
5, 7680, Note_on_c, 0, 37, 0
5, 7680, Note_on_c, 0, 49, 0
5, 10080, Note_on_c, 0, 37, 75
5, 10080, Note_on_c, 0, 44, 75
5, 10080, Note_on_c, 0, 48, 75
5, 11520, Note_on_c, 0, 48, 0
5, 11520, Note_on_c, 0, 44, 0
5, 11520, Note_on_c, 0, 37, 0
5, 11520, Note_on_c, 0, 49, 75
5, 11520, Note_on_c, 0, 53, 75
5, 11520, Note_on_c, 0, 56, 75
5, 12960, Note_on_c, 0, 56, 0
5, 12960, Note_on_c, 0, 53, 0
5, 12960, Note_on_c, 0, 49, 0
5, 12960, Note_on_c, 0, 49, 75
5, 12960, Note_on_c, 0, 54, 75
5, 12960, Note_on_c, 0, 58, 75
5, 15840, Note_on_c, 0, 58, 0
5, 15840, Note_on_c, 0, 54, 0
5, 15840, Note_on_c, 0, 49, 0
5, 15840, Note_on_c, 0, 49, 75
5, 15840, Note_on_c, 0, 51, 75
5, 15840, Note_on_c, 0, 54, 75
5, 15840, Note_on_c, 0, 58, 75
5, 18720, Note_on_c, 0, 58, 0
5, 18720, Note_on_c, 0, 49, 0
5, 18720, Note_on_c, 0, 51, 0
5, 18720, Note_on_c, 0, 54, 0
5, 18720, Note_on_c, 0, 49, 75
5, 18720, Note_on_c, 0, 53, 75
5, 18720, Note_on_c, 0, 56, 75
5, 18720, Note_on_c, 0, 61, 75
5, 19200, Note_on_c, 0, 61, 0
5, 19200, Note_on_c, 0, 49, 0
5, 19200, Note_on_c, 0, 53, 0
5, 19200, Note_on_c, 0, 56, 0
5, 19200, Note_on_c, 0, 37, 75
5, 19200, Note_on_c, 0, 49, 75
5, 19680, Note_on_c, 0, 49, 0
5, 19680, Note_on_c, 0, 37, 0
5, 19680, Note_on_c, 0, 41, 75
5, 19680, Note_on_c, 0, 53, 75
5, 20160, Note_on_c, 0, 53, 0
5, 20160, Note_on_c, 0, 41, 0
5, 20160, Note_on_c, 0, 44, 75
5, 20160, Note_on_c, 0, 48, 75
5, 20160, Note_on_c, 0, 51, 75
5, 20160, Note_on_c, 0, 56, 75
5, 20640, Note_on_c, 0, 56, 0
5, 20640, Note_on_c, 0, 44, 0
5, 20640, Note_on_c, 0, 48, 0
5, 20640, Note_on_c, 0, 51, 0
5, 20640, Note_on_c, 0, 32, 75
5, 20640, Note_on_c, 0, 44, 75
5, 21120, Note_on_c, 0, 44, 0
5, 21120, Note_on_c, 0, 32, 0
5, 21600, Note_on_c, 0, 37, 75
5, 21600, Note_on_c, 0, 44, 75
5, 21600, Note_on_c, 0, 49, 75
5, 23040, Note_on_c, 0, 49, 0
5, 23040, Note_on_c, 0, 44, 0
5, 23040, Note_on_c, 0, 37, 0
5, 23040, Note_on_c, 0, 41, 75
5, 23040, Note_on_c, 0, 44, 75
5, 23040, Note_on_c, 0, 49, 75
5, 24480, Note_on_c, 0, 49, 0
5, 24480, Note_on_c, 0, 44, 0
5, 24480, Note_on_c, 0, 41, 0
5, 24480, Note_on_c, 0, 42, 75
5, 24480, Note_on_c, 0, 46, 75
5, 24480, Note_on_c, 0, 49, 75
5, 24480, Note_on_c, 0, 51, 75
5, 25920, Note_on_c, 0, 51, 0
5, 25920, Note_on_c, 0, 42, 0
5, 25920, Note_on_c, 0, 46, 0
5, 25920, Note_on_c, 0, 49, 0
5, 25920, Note_on_c, 0, 39, 75
5, 25920, Note_on_c, 0, 46, 75
5, 25920, Note_on_c, 0, 51, 75
5, 27270, Note_on_c, 0, 41, 75
5, 27300, Note_on_c, 0, 48, 75
5, 27330, Note_on_c, 0, 53, 75
5, 27360, Note_on_c, 0, 51, 0
5, 27360, Note_on_c, 0, 39, 0
5, 27360, Note_on_c, 0, 46, 0
5, 27360, Note_on_c, 0, 57, 75
5, 27750, Note_on_c, 0, 46, 75
5, 27780, Note_on_c, 0, 50, 75
5, 27810, Note_on_c, 0, 53, 75
5, 27840, Note_on_c, 0, 57, 0
5, 27840, Note_on_c, 0, 41, 0
5, 27840, Note_on_c, 0, 53, 0
5, 27840, Note_on_c, 0, 48, 0
5, 27840, Note_on_c, 0, 56, 75
5, 28230, Note_on_c, 0, 39, 75
5, 28260, Note_on_c, 0, 46, 75
5, 28290, Note_on_c, 0, 51, 75
5, 28320, Note_on_c, 0, 56, 0
5, 28320, Note_on_c, 0, 53, 0
5, 28320, Note_on_c, 0, 50, 0
5, 28320, Note_on_c, 0, 46, 0
5, 28320, Note_on_c, 0, 55, 75
5, 28800, Note_on_c, 0, 55, 0
5, 28800, Note_on_c, 0, 46, 0
5, 28800, Note_on_c, 0, 39, 0
5, 28800, Note_on_c, 0, 51, 0
5, 28800, Note_on_c, 0, 44, 75
5, 28800, Note_on_c, 0, 48, 75
5, 28800, Note_on_c, 0, 51, 75
5, 28800, Note_on_c, 0, 54, 75
5, 29190, Note_on_c, 0, 37, 75
5, 29220, Note_on_c, 0, 44, 75
5, 29250, Note_on_c, 0, 49, 75
5, 29280, Note_on_c, 0, 54, 0
5, 29280, Note_on_c, 0, 51, 0
5, 29280, Note_on_c, 0, 44, 0
5, 29280, Note_on_c, 0, 48, 0
5, 29280, Note_on_c, 0, 53, 75
5, 29760, Note_on_c, 0, 53, 0
5, 29760, Note_on_c, 0, 44, 0
5, 29760, Note_on_c, 0, 37, 0
5, 29760, Note_on_c, 0, 49, 0
5, 29760, Note_on_c, 0, 43, 75
5, 29760, Note_on_c, 0, 46, 75
5, 29760, Note_on_c, 0, 49, 75
5, 29760, Note_on_c, 0, 53, 75
5, 30240, Note_on_c, 0, 53, 0
5, 30240, Note_on_c, 0, 43, 0
5, 30240, Note_on_c, 0, 46, 0
5, 30240, Note_on_c, 0, 49, 0
5, 30240, Note_on_c, 0, 44, 75
5, 30240, Note_on_c, 0, 49, 75
5, 30240, Note_on_c, 0, 53, 75
5, 31590, Note_on_c, 0, 39, 75
5, 31620, Note_on_c, 0, 46, 75
5, 31650, Note_on_c, 0, 51, 75
5, 31680, Note_on_c, 0, 53, 0
5, 31680, Note_on_c, 0, 44, 0
5, 31680, Note_on_c, 0, 49, 0
5, 31680, Note_on_c, 0, 55, 75
5, 32640, Note_on_c, 0, 55, 0
5, 32640, Note_on_c, 0, 51, 0
5, 32640, Note_on_c, 0, 46, 0
5, 32640, Note_on_c, 0, 39, 0
5, 32640, Note_on_c, 0, 44, 75
5, 32640, Note_on_c, 0, 51, 75
5, 32640, Note_on_c, 0, 54, 75
5, 32640, Note_on_c, 0, 56, 75
5, 33030, Note_on_c, 0, 37, 75
5, 33060, Note_on_c, 0, 44, 75
5, 33090, Note_on_c, 0, 49, 75
5, 33120, Note_on_c, 0, 56, 0
5, 33120, Note_on_c, 0, 54, 0
5, 33120, Note_on_c, 0, 44, 0
5, 33120, Note_on_c, 0, 51, 0
5, 33120, Note_on_c, 0, 53, 75
5, 33520, Note_on_c, 0, 53, 75
5, 33560, Note_on_c, 0, 56, 75
5, 33600, Note_on_c, 0, 53, 0
5, 33600, Note_on_c, 0, 49, 0
5, 33600, Note_on_c, 0, 44, 0
5, 33600, Note_on_c, 0, 37, 0
5, 33600, Note_on_c, 0, 61, 62
5, 33696, Note_on_c, 0, 61, 0
5, 33696, Note_on_c, 0, 56, 0
5, 33696, Note_on_c, 0, 53, 0
5, 34000, Note_on_c, 0, 56, 62
5, 34040, Note_on_c, 0, 61, 62
5, 34080, Note_on_c, 0, 65, 62
5, 34176, Note_on_c, 0, 65, 0
5, 34176, Note_on_c, 0, 61, 0
5, 34176, Note_on_c, 0, 56, 0
5, 34560, Note_on_c, 0, 37, 62
5, 34560, Note_on_c, 0, 49, 62
5, 34656, Note_on_c, 0, 49, 0
5, 34656, Note_on_c, 0, 37, 0
5, 35040, Note_on_c, 0, 53, 62
5, 35040, Note_on_c, 0, 56, 62
5, 35040, Note_on_c, 0, 61, 62
5, 35136, Note_on_c, 0, 61, 0
5, 35136, Note_on_c, 0, 56, 0
5, 35136, Note_on_c, 0, 53, 0
5, 35520, Note_on_c, 0, 56, 62
5, 35520, Note_on_c, 0, 61, 62
5, 35520, Note_on_c, 0, 65, 62
5, 35616, Note_on_c, 0, 65, 0
5, 35616, Note_on_c, 0, 61, 0
5, 35616, Note_on_c, 0, 56, 0
5, 36000, Note_on_c, 0, 37, 62
5, 36000, Note_on_c, 0, 49, 62
5, 36096, Note_on_c, 0, 49, 0
5, 36096, Note_on_c, 0, 37, 0
5, 36480, Note_on_c, 0, 53, 62
5, 36480, Note_on_c, 0, 56, 62
5, 36480, Note_on_c, 0, 61, 62
5, 36576, Note_on_c, 0, 61, 0
5, 36576, Note_on_c, 0, 56, 0
5, 36576, Note_on_c, 0, 53, 0
5, 36960, Note_on_c, 0, 56, 62
5, 36960, Note_on_c, 0, 61, 62
5, 36960, Note_on_c, 0, 65, 62
5, 37056, Note_on_c, 0, 65, 0
5, 37056, Note_on_c, 0, 61, 0
5, 37056, Note_on_c, 0, 56, 0
5, 37440, Note_on_c, 0, 37, 62
5, 37440, Note_on_c, 0, 49, 62
5, 37536, Note_on_c, 0, 49, 0
5, 37536, Note_on_c, 0, 37, 0
5, 37920, Note_on_c, 0, 53, 62
5, 37920, Note_on_c, 0, 56, 62
5, 37920, Note_on_c, 0, 61, 62
5, 38016, Note_on_c, 0, 61, 0
5, 38016, Note_on_c, 0, 56, 0
5, 38016, Note_on_c, 0, 53, 0
5, 38400, Note_on_c, 0, 56, 62
5, 38400, Note_on_c, 0, 61, 62
5, 38400, Note_on_c, 0, 65, 62
5, 38496, Note_on_c, 0, 65, 0
5, 38496, Note_on_c, 0, 61, 0
5, 38496, Note_on_c, 0, 56, 0
5, 38880, Note_on_c, 0, 37, 62
5, 38880, Note_on_c, 0, 49, 62
5, 38976, Note_on_c, 0, 49, 0
5, 38976, Note_on_c, 0, 37, 0
5, 39360, Note_on_c, 0, 54, 62
5, 39360, Note_on_c, 0, 58, 62
5, 39360, Note_on_c, 0, 63, 62
5, 39456, Note_on_c, 0, 63, 0
5, 39456, Note_on_c, 0, 58, 0
5, 39456, Note_on_c, 0, 54, 0
5, 39840, Note_on_c, 0, 58, 62
5, 39840, Note_on_c, 0, 63, 62
5, 39840, Note_on_c, 0, 66, 62
5, 39936, Note_on_c, 0, 66, 0
5, 39936, Note_on_c, 0, 63, 0
5, 39936, Note_on_c, 0, 58, 0
5, 40320, Note_on_c, 0, 37, 62
5, 40320, Note_on_c, 0, 49, 62
5, 40416, Note_on_c, 0, 49, 0
5, 40416, Note_on_c, 0, 37, 0
5, 40800, Note_on_c, 0, 54, 62
5, 40800, Note_on_c, 0, 58, 62
5, 40800, Note_on_c, 0, 63, 62
5, 40896, Note_on_c, 0, 63, 0
5, 40896, Note_on_c, 0, 58, 0
5, 40896, Note_on_c, 0, 54, 0
5, 41280, Note_on_c, 0, 58, 62
5, 41280, Note_on_c, 0, 63, 62
5, 41280, Note_on_c, 0, 66, 62
5, 41376, Note_on_c, 0, 66, 0
5, 41376, Note_on_c, 0, 63, 0
5, 41376, Note_on_c, 0, 58, 0
5, 41760, Note_on_c, 0, 37, 62
5, 41760, Note_on_c, 0, 49, 62
5, 41856, Note_on_c, 0, 49, 0
5, 41856, Note_on_c, 0, 37, 0
5, 42240, Note_on_c, 0, 56, 62
5, 42240, Note_on_c, 0, 60, 62
5, 42240, Note_on_c, 0, 63, 62
5, 42336, Note_on_c, 0, 63, 0
5, 42336, Note_on_c, 0, 60, 0
5, 42336, Note_on_c, 0, 56, 0
5, 42720, Note_on_c, 0, 60, 62
5, 42720, Note_on_c, 0, 63, 62
5, 42720, Note_on_c, 0, 68, 62
5, 42816, Note_on_c, 0, 68, 0
5, 42816, Note_on_c, 0, 63, 0
5, 42816, Note_on_c, 0, 60, 0
5, 43200, Note_on_c, 0, 37, 62
5, 43200, Note_on_c, 0, 49, 62
5, 43296, Note_on_c, 0, 49, 0
5, 43296, Note_on_c, 0, 37, 0
5, 43680, Note_on_c, 0, 54, 62
5, 43680, Note_on_c, 0, 58, 62
5, 43680, Note_on_c, 0, 61, 62
5, 43776, Note_on_c, 0, 61, 0
5, 43776, Note_on_c, 0, 58, 0
5, 43776, Note_on_c, 0, 54, 0
5, 44160, Note_on_c, 0, 60, 62
5, 44160, Note_on_c, 0, 63, 62
5, 44160, Note_on_c, 0, 68, 62
5, 44256, Note_on_c, 0, 68, 0
5, 44256, Note_on_c, 0, 63, 0
5, 44256, Note_on_c, 0, 60, 0
5, 44640, Note_on_c, 0, 37, 62
5, 44640, Note_on_c, 0, 49, 62
5, 44736, Note_on_c, 0, 49, 0
5, 44736, Note_on_c, 0, 37, 0
5, 45120, Note_on_c, 0, 56, 62
5, 45120, Note_on_c, 0, 61, 62
5, 45120, Note_on_c, 0, 65, 62
5, 45216, Note_on_c, 0, 65, 0
5, 45216, Note_on_c, 0, 61, 0
5, 45216, Note_on_c, 0, 56, 0
5, 45600, Note_on_c, 0, 61, 62
5, 45600, Note_on_c, 0, 65, 62
5, 45600, Note_on_c, 0, 68, 62
5, 45696, Note_on_c, 0, 68, 0
5, 45696, Note_on_c, 0, 65, 0
5, 45696, Note_on_c, 0, 61, 0
5, 46080, Note_on_c, 0, 38, 88
5, 46080, Note_on_c, 0, 50, 88
5, 46176, Note_on_c, 0, 50, 0
5, 46176, Note_on_c, 0, 38, 0
5, 46560, Note_on_c, 0, 39, 88
5, 46560, Note_on_c, 0, 51, 88
5, 46656, Note_on_c, 0, 51, 0
5, 46656, Note_on_c, 0, 39, 0
5, 47520, Note_on_c, 0, 40, 88
5, 47520, Note_on_c, 0, 52, 88
5, 47616, Note_on_c, 0, 52, 0
5, 47616, Note_on_c, 0, 40, 0
5, 48000, Note_on_c, 0, 41, 88
5, 48000, Note_on_c, 0, 53, 88
5, 48096, Note_on_c, 0, 53, 0
5, 48096, Note_on_c, 0, 41, 0
5, 48960, Note_on_c, 0, 41, 88
5, 48960, Note_on_c, 0, 53, 88
5, 49056, Note_on_c, 0, 53, 0
5, 49056, Note_on_c, 0, 41, 0
5, 49440, Note_on_c, 0, 42, 88
5, 49440, Note_on_c, 0, 54, 88
5, 49536, Note_on_c, 0, 54, 0
5, 49536, Note_on_c, 0, 42, 0
5, 50400, Note_on_c, 0, 43, 88
5, 50400, Note_on_c, 0, 55, 88
5, 50496, Note_on_c, 0, 55, 0
5, 50496, Note_on_c, 0, 43, 0
5, 50880, Note_on_c, 0, 44, 88
5, 50880, Note_on_c, 0, 56, 88
5, 50976, Note_on_c, 0, 56, 0
5, 50976, Note_on_c, 0, 44, 0
5, 78960, Note_on_c, 0, 39, 88
5, 78960, Note_on_c, 0, 51, 88
5, 79007, Note_on_c, 0, 51, 0
5, 79007, Note_on_c, 0, 39, 0
5, 79200, Note_on_c, 0, 36, 88
5, 79200, Note_on_c, 0, 48, 88
5, 79247, Note_on_c, 0, 48, 0
5, 79247, Note_on_c, 0, 36, 0
5, 79440, Note_on_c, 0, 34, 88
5, 79440, Note_on_c, 0, 46, 88
5, 79487, Note_on_c, 0, 46, 0
5, 79487, Note_on_c, 0, 34, 0
5, 79680, Note_on_c, 0, 33, 88
5, 79680, Note_on_c, 0, 45, 88
5, 79727, Note_on_c, 0, 45, 0
5, 79727, Note_on_c, 0, 33, 0
5, 80100, Note_on_c, 0, 57, 88
5, 80100, Note_on_c, 0, 63, 88
5, 80100, Note_on_c, 0, 66, 88
5, 80100, Note_on_c, 0, 69, 88
5, 80160, Note_on_c, 0, 69, 0
5, 80160, Note_on_c, 0, 57, 0
5, 80160, Note_on_c, 0, 63, 0
5, 80160, Note_on_c, 0, 66, 0
5, 80160, Note_on_c, 0, 57, 88
5, 80160, Note_on_c, 0, 63, 88
5, 80160, Note_on_c, 0, 66, 88
5, 80160, Note_on_c, 0, 69, 88
5, 80640, Note_on_c, 0, 69, 0
5, 80640, Note_on_c, 0, 57, 0
5, 80640, Note_on_c, 0, 63, 0
5, 80640, Note_on_c, 0, 66, 0
5, 80880, Note_on_c, 0, 42, 88
5, 80880, Note_on_c, 0, 54, 88
5, 80927, Note_on_c, 0, 54, 0
5, 80927, Note_on_c, 0, 42, 0
5, 81120, Note_on_c, 0, 39, 88
5, 81120, Note_on_c, 0, 51, 88
5, 81167, Note_on_c, 0, 51, 0
5, 81167, Note_on_c, 0, 39, 0
5, 81360, Note_on_c, 0, 37, 88
5, 81360, Note_on_c, 0, 49, 88
5, 81407, Note_on_c, 0, 49, 0
5, 81407, Note_on_c, 0, 37, 0
5, 81600, Note_on_c, 0, 36, 88
5, 81600, Note_on_c, 0, 48, 88
5, 81647, Note_on_c, 0, 48, 0
5, 81647, Note_on_c, 0, 36, 0
5, 82020, Note_on_c, 0, 60, 88
5, 82020, Note_on_c, 0, 66, 88
5, 82020, Note_on_c, 0, 69, 88
5, 82020, Note_on_c, 0, 72, 88
5, 82080, Note_on_c, 0, 72, 0
5, 82080, Note_on_c, 0, 60, 0
5, 82080, Note_on_c, 0, 66, 0
5, 82080, Note_on_c, 0, 69, 0
5, 82080, Note_on_c, 0, 60, 88
5, 82080, Note_on_c, 0, 66, 88
5, 82080, Note_on_c, 0, 69, 88
5, 82080, Note_on_c, 0, 72, 88
5, 82560, Note_on_c, 0, 72, 0
5, 82560, Note_on_c, 0, 60, 0
5, 82560, Note_on_c, 0, 66, 0
5, 82560, Note_on_c, 0, 69, 0
5, 82800, Note_on_c, 0, 45, 88
5, 82800, Note_on_c, 0, 57, 88
5, 82847, Note_on_c, 0, 57, 0
5, 82847, Note_on_c, 0, 45, 0
5, 83040, Note_on_c, 0, 42, 88
5, 83040, Note_on_c, 0, 54, 88
5, 83087, Note_on_c, 0, 54, 0
5, 83087, Note_on_c, 0, 42, 0
5, 83280, Note_on_c, 0, 41, 88
5, 83280, Note_on_c, 0, 53, 88
5, 83327, Note_on_c, 0, 53, 0
5, 83327, Note_on_c, 0, 41, 0
5, 83520, Note_on_c, 0, 39, 88
5, 83520, Note_on_c, 0, 51, 88
5, 83567, Note_on_c, 0, 51, 0
5, 83567, Note_on_c, 0, 39, 0
5, 83940, Note_on_c, 0, 63, 88
5, 83940, Note_on_c, 0, 69, 88
5, 83940, Note_on_c, 0, 72, 88
5, 83940, Note_on_c, 0, 75, 88
5, 84000, Note_on_c, 0, 75, 0
5, 84000, Note_on_c, 0, 63, 0
5, 84000, Note_on_c, 0, 69, 0
5, 84000, Note_on_c, 0, 72, 0
5, 84000, Note_on_c, 0, 63, 88
5, 84000, Note_on_c, 0, 69, 88
5, 84000, Note_on_c, 0, 72, 88
5, 84000, Note_on_c, 0, 75, 88
5, 84480, Note_on_c, 0, 75, 0
5, 84480, Note_on_c, 0, 63, 0
5, 84480, Note_on_c, 0, 69, 0
5, 84480, Note_on_c, 0, 72, 0
5, 84720, Note_on_c, 0, 51, 88
5, 84767, Note_on_c, 0, 51, 0
5, 84960, Note_on_c, 0, 48, 88
5, 85007, Note_on_c, 0, 48, 0
5, 85200, Note_on_c, 0, 46, 88
5, 85247, Note_on_c, 0, 46, 0
5, 85440, Note_on_c, 0, 45, 88
5, 85536, Note_on_c, 0, 45, 0
5, 86640, Note_on_c, 0, 57, 88
5, 86687, Note_on_c, 0, 57, 0
5, 86880, Note_on_c, 0, 54, 88
5, 86927, Note_on_c, 0, 54, 0
5, 87120, Note_on_c, 0, 53, 88
5, 87167, Note_on_c, 0, 53, 0
5, 87360, Note_on_c, 0, 51, 88
5, 87456, Note_on_c, 0, 51, 0
5, 88560, Note_on_c, 0, 63, 88
5, 88607, Note_on_c, 0, 63, 0
5, 88800, Note_on_c, 0, 60, 88
5, 88847, Note_on_c, 0, 60, 0
5, 89040, Note_on_c, 0, 58, 88
5, 89087, Note_on_c, 0, 58, 0
5, 89280, Note_on_c, 0, 57, 88
5, 89376, Note_on_c, 0, 57, 0
5, 92400, Note_on_c, 0, 56, 114
5, 92640, Note_on_c, 0, 56, 0
5, 92640, Note_on_c, 0, 53, 88
5, 92880, Note_on_c, 0, 53, 0
5, 92880, Note_on_c, 0, 51, 88
5, 93120, Note_on_c, 0, 51, 0
5, 93120, Note_on_c, 0, 37, 88
5, 93120, Note_on_c, 0, 44, 88
5, 93120, Note_on_c, 0, 49, 88
5, 93600, Note_on_c, 0, 49, 0
5, 93600, Note_on_c, 0, 44, 0
5, 93600, Note_on_c, 0, 37, 0
5, 93600, Note_on_c, 0, 49, 88
5, 93600, Note_on_c, 0, 56, 88
5, 93600, Note_on_c, 0, 61, 88
5, 93600, Note_on_c, 0, 65, 88
5, 94320, Note_on_c, 0, 65, 0
5, 94320, Note_on_c, 0, 49, 0
5, 94320, Note_on_c, 0, 56, 0
5, 94320, Note_on_c, 0, 61, 0
5, 94320, Note_on_c, 0, 63, 88
5, 94470, Note_on_c, 0, 49, 88
5, 94500, Note_on_c, 0, 58, 88
5, 94530, Note_on_c, 0, 61, 88
5, 94560, Note_on_c, 0, 63, 0
5, 94560, Note_on_c, 0, 66, 88
5, 95280, Note_on_c, 0, 66, 0
5, 95280, Note_on_c, 0, 61, 0
5, 95280, Note_on_c, 0, 58, 0
5, 95280, Note_on_c, 0, 49, 0
5, 95280, Note_on_c, 0, 65, 88
5, 95520, Note_on_c, 0, 65, 0
5, 95520, Note_on_c, 0, 60, 88
5, 95760, Note_on_c, 0, 60, 0
5, 95760, Note_on_c, 0, 61, 88
5, 96000, Note_on_c, 0, 61, 0
5, 96000, Note_on_c, 0, 49, 88
5, 96000, Note_on_c, 0, 54, 88
5, 96000, Note_on_c, 0, 58, 88
5, 96390, Note_on_c, 0, 49, 88
5, 96420, Note_on_c, 0, 54, 88
5, 96450, Note_on_c, 0, 58, 88
5, 96480, Note_on_c, 0, 58, 0
5, 96480, Note_on_c, 0, 49, 0
5, 96480, Note_on_c, 0, 54, 0
5, 96480, Note_on_c, 0, 63, 88
5, 97200, Note_on_c, 0, 63, 0
5, 97200, Note_on_c, 0, 58, 0
5, 97200, Note_on_c, 0, 54, 0
5, 97200, Note_on_c, 0, 49, 0
5, 97200, Note_on_c, 0, 65, 88
5, 97440, Note_on_c, 0, 65, 0
5, 97440, Note_on_c, 0, 49, 88
5, 97440, Note_on_c, 0, 54, 88
5, 97440, Note_on_c, 0, 58, 88
5, 98160, Note_on_c, 0, 58, 0
5, 98160, Note_on_c, 0, 54, 0
5, 98160, Note_on_c, 0, 49, 0
5, 98160, Note_on_c, 0, 63, 88
5, 98400, Note_on_c, 0, 63, 0
5, 98400, Note_on_c, 0, 60, 88
5, 98640, Note_on_c, 0, 60, 0
5, 98640, Note_on_c, 0, 58, 88
5, 98880, Note_on_c, 0, 58, 0
5, 98880, Note_on_c, 0, 49, 88
5, 98880, Note_on_c, 0, 54, 88
5, 98880, Note_on_c, 0, 56, 88
5, 99360, Note_on_c, 0, 56, 0
5, 99360, Note_on_c, 0, 54, 0
5, 99360, Note_on_c, 0, 49, 0
5, 99360, Note_on_c, 0, 49, 88
5, 99360, Note_on_c, 0, 54, 88
5, 99360, Note_on_c, 0, 56, 88
5, 99360, Note_on_c, 0, 63, 88
5, 100080, Note_on_c, 0, 63, 0
5, 100080, Note_on_c, 0, 49, 0
5, 100080, Note_on_c, 0, 54, 0
5, 100080, Note_on_c, 0, 56, 0
5, 100080, Note_on_c, 0, 65, 88
5, 100224, Note_on_c, 0, 49, 114
5, 100248, Note_on_c, 0, 56, 114
5, 100272, Note_on_c, 0, 60, 114
5, 100296, Note_on_c, 0, 63, 114
5, 100320, Note_on_c, 0, 65, 0
5, 100320, Note_on_c, 0, 68, 114
5, 101040, Note_on_c, 0, 68, 0
5, 101040, Note_on_c, 0, 63, 0
5, 101040, Note_on_c, 0, 49, 0
5, 101040, Note_on_c, 0, 56, 0
5, 101040, Note_on_c, 0, 60, 0
5, 101040, Note_on_c, 0, 63, 88
5, 101280, Note_on_c, 0, 63, 0
5, 101280, Note_on_c, 0, 49, 88
5, 101280, Note_on_c, 0, 56, 88
5, 101280, Note_on_c, 0, 60, 88
5, 101280, Note_on_c, 0, 63, 88
5, 101520, Note_on_c, 0, 63, 0
5, 101520, Note_on_c, 0, 65, 88
5, 101670, Note_on_c, 0, 49, 114
5, 101700, Note_on_c, 0, 56, 114
5, 101730, Note_on_c, 0, 61, 114
5, 101760, Note_on_c, 0, 65, 0
5, 101760, Note_on_c, 0, 49, 0
5, 101760, Note_on_c, 0, 60, 0
5, 101760, Note_on_c, 0, 56, 0
5, 101760, Note_on_c, 0, 68, 114
5, 102480, Note_on_c, 0, 68, 0
5, 102480, Note_on_c, 0, 56, 0
5, 102480, Note_on_c, 0, 49, 0
5, 102480, Note_on_c, 0, 61, 0
5, 102480, Note_on_c, 0, 65, 88
5, 102630, Note_on_c, 0, 53, 88
5, 102660, Note_on_c, 0, 56, 88
5, 102690, Note_on_c, 0, 61, 88
5, 102720, Note_on_c, 0, 65, 0
5, 102720, Note_on_c, 0, 70, 88
5, 102960, Note_on_c, 0, 70, 0
5, 102960, Note_on_c, 0, 61, 0
5, 102960, Note_on_c, 0, 56, 0
5, 102960, Note_on_c, 0, 53, 0
5, 102960, Note_on_c, 0, 68, 88
5, 103200, Note_on_c, 0, 68, 0
5, 103200, Note_on_c, 0, 56, 88
5, 103200, Note_on_c, 0, 60, 88
5, 103200, Note_on_c, 0, 63, 88
5, 103839, Note_on_c, 0, 63, 0
5, 103839, Note_on_c, 0, 60, 0
5, 103839, Note_on_c, 0, 56, 0
5, 103839, Note_on_c, 0, 60, 114
5, 104000, Note_on_c, 0, 60, 0
5, 104000, Note_on_c, 0, 58, 114
5, 104160, Note_on_c, 0, 58, 0
5, 104160, Note_on_c, 0, 56, 114
5, 104319, Note_on_c, 0, 56, 0
5, 104319, Note_on_c, 0, 54, 114
5, 104480, Note_on_c, 0, 54, 0
5, 104480, Note_on_c, 0, 51, 114
5, 104640, Note_on_c, 0, 51, 0
5, 104640, Note_on_c, 0, 37, 114
5, 104640, Note_on_c, 0, 44, 114
5, 104640, Note_on_c, 0, 49, 114
5, 105120, Note_on_c, 0, 49, 0
5, 105120, Note_on_c, 0, 44, 0
5, 105120, Note_on_c, 0, 37, 0
5, 105120, Note_on_c, 0, 49, 88
5, 105120, Note_on_c, 0, 56, 88
5, 105120, Note_on_c, 0, 61, 88
5, 105120, Note_on_c, 0, 65, 88
5, 105840, Note_on_c, 0, 65, 0
5, 105840, Note_on_c, 0, 49, 0
5, 105840, Note_on_c, 0, 56, 0
5, 105840, Note_on_c, 0, 61, 0
5, 105840, Note_on_c, 0, 63, 88
5, 106080, Note_on_c, 0, 63, 0
5, 106080, Note_on_c, 0, 41, 88
5, 106080, Note_on_c, 0, 53, 88
5, 106080, Note_on_c, 0, 56, 88
5, 106080, Note_on_c, 0, 61, 88
5, 106080, Note_on_c, 0, 66, 88
5, 106800, Note_on_c, 0, 66, 0
5, 106800, Note_on_c, 0, 56, 0
5, 106800, Note_on_c, 0, 41, 0
5, 106800, Note_on_c, 0, 53, 0
5, 106800, Note_on_c, 0, 61, 0
5, 106800, Note_on_c, 0, 65, 88
5, 107040, Note_on_c, 0, 65, 0
5, 107040, Note_on_c, 0, 53, 88
5, 107040, Note_on_c, 0, 56, 88
5, 107040, Note_on_c, 0, 60, 88
5, 107280, Note_on_c, 0, 60, 0
5, 107280, Note_on_c, 0, 56, 0
5, 107280, Note_on_c, 0, 53, 0
5, 107280, Note_on_c, 0, 61, 88
5, 107430, Note_on_c, 0, 42, 88
5, 107460, Note_on_c, 0, 49, 88
5, 107490, Note_on_c, 0, 51, 88
5, 107520, Note_on_c, 0, 61, 0
5, 107520, Note_on_c, 0, 58, 88
5, 108000, Note_on_c, 0, 58, 0
5, 108000, Note_on_c, 0, 51, 0
5, 108000, Note_on_c, 0, 49, 0
5, 108000, Note_on_c, 0, 42, 0
5, 108000, Note_on_c, 0, 63, 88
5, 108720, Note_on_c, 0, 63, 0
5, 108720, Note_on_c, 0, 65, 88
5, 108870, Note_on_c, 0, 51, 114
5, 108900, Note_on_c, 0, 58, 114
5, 108930, Note_on_c, 0, 60, 114
5, 108960, Note_on_c, 0, 65, 0
5, 108960, Note_on_c, 0, 68, 114
5, 109680, Note_on_c, 0, 68, 0
5, 109680, Note_on_c, 0, 60, 0
5, 109680, Note_on_c, 0, 58, 0
5, 109680, Note_on_c, 0, 51, 0
5, 109680, Note_on_c, 0, 66, 88
5, 109920, Note_on_c, 0, 66, 0
5, 109920, Note_on_c, 0, 65, 88
5, 110160, Note_on_c, 0, 65, 0
5, 110160, Note_on_c, 0, 66, 88
5, 110400, Note_on_c, 0, 66, 0
5, 110400, Note_on_c, 0, 53, 88
5, 110400, Note_on_c, 0, 57, 88
5, 110400, Note_on_c, 0, 60, 88
5, 110400, Note_on_c, 0, 65, 88
5, 110640, Note_on_c, 0, 65, 0
5, 110640, Note_on_c, 0, 53, 0
5, 110640, Note_on_c, 0, 57, 0
5, 110640, Note_on_c, 0, 60, 0
5, 110640, Note_on_c, 0, 60, 88
5, 110790, Note_on_c, 0, 46, 88
5, 110820, Note_on_c, 0, 53, 88
5, 110850, Note_on_c, 0, 58, 88
5, 110880, Note_on_c, 0, 60, 0
5, 110880, Note_on_c, 0, 65, 88
5, 111120, Note_on_c, 0, 65, 0
5, 111120, Note_on_c, 0, 58, 0
5, 111120, Note_on_c, 0, 53, 0
5, 111120, Note_on_c, 0, 46, 0
5, 111120, Note_on_c, 0, 62, 88
5, 111360, Note_on_c, 0, 62, 0
5, 111360, Note_on_c, 0, 51, 88
5, 111360, Note_on_c, 0, 55, 88
5, 111360, Note_on_c, 0, 63, 88
5, 111600, Note_on_c, 0, 63, 0
5, 111600, Note_on_c, 0, 55, 0
5, 111600, Note_on_c, 0, 51, 0
5, 111600, Note_on_c, 0, 58, 88
5, 111750, Note_on_c, 0, 44, 88
5, 111780, Note_on_c, 0, 51, 88
5, 111810, Note_on_c, 0, 56, 88
5, 111840, Note_on_c, 0, 58, 0
5, 111840, Note_on_c, 0, 63, 88
5, 112080, Note_on_c, 0, 63, 0
5, 112080, Note_on_c, 0, 56, 0
5, 112080, Note_on_c, 0, 51, 0
5, 112080, Note_on_c, 0, 44, 0
5, 112080, Note_on_c, 0, 60, 88
5, 112320, Note_on_c, 0, 60, 0
5, 112320, Note_on_c, 0, 49, 88
5, 112320, Note_on_c, 0, 53, 88
5, 112320, Note_on_c, 0, 61, 88
5, 112560, Note_on_c, 0, 61, 0
5, 112560, Note_on_c, 0, 53, 0
5, 112560, Note_on_c, 0, 49, 0
5, 112560, Note_on_c, 0, 53, 88
5, 112710, Note_on_c, 0, 43, 88
5, 112740, Note_on_c, 0, 49, 88
5, 112770, Note_on_c, 0, 53, 88
5, 112800, Note_on_c, 0, 53, 0
5, 112800, Note_on_c, 0, 58, 88
5, 113040, Note_on_c, 0, 58, 0
5, 113040, Note_on_c, 0, 53, 0
5, 113040, Note_on_c, 0, 49, 0
5, 113040, Note_on_c, 0, 43, 0
5, 113040, Note_on_c, 0, 60, 88
5, 113280, Note_on_c, 0, 60, 0
5, 113280, Note_on_c, 0, 44, 88
5, 113280, Note_on_c, 0, 49, 88
5, 113280, Note_on_c, 0, 53, 88
5, 113280, Note_on_c, 0, 56, 88
5, 113520, Note_on_c, 0, 56, 0
5, 113520, Note_on_c, 0, 44, 0
5, 113520, Note_on_c, 0, 49, 0
5, 113520, Note_on_c, 0, 53, 0
5, 113520, Note_on_c, 0, 58, 88
5, 113760, Note_on_c, 0, 58, 0
5, 113760, Note_on_c, 0, 60, 88
5, 114000, Note_on_c, 0, 60, 0
5, 114000, Note_on_c, 0, 61, 88
5, 114240, Note_on_c, 0, 61, 0
5, 114240, Note_on_c, 0, 56, 88
5, 114240, Note_on_c, 0, 61, 88
5, 114240, Note_on_c, 0, 63, 88
5, 114480, Note_on_c, 0, 63, 0
5, 114480, Note_on_c, 0, 61, 0
5, 114480, Note_on_c, 0, 56, 0
5, 114480, Note_on_c, 0, 65, 88
5, 114720, Note_on_c, 0, 65, 0
5, 114720, Note_on_c, 0, 51, 88
5, 114720, Note_on_c, 0, 55, 88
5, 114720, Note_on_c, 0, 58, 88
5, 114720, Note_on_c, 0, 61, 88
5, 114960, Note_on_c, 0, 61, 0
5, 114960, Note_on_c, 0, 51, 0
5, 114960, Note_on_c, 0, 55, 0
5, 114960, Note_on_c, 0, 58, 0
5, 114960, Note_on_c, 0, 65, 88
5, 115200, Note_on_c, 0, 65, 0
5, 115200, Note_on_c, 0, 44, 88
5, 115200, Note_on_c, 0, 51, 88
5, 115200, Note_on_c, 0, 58, 88
5, 115440, Note_on_c, 0, 58, 0
5, 115440, Note_on_c, 0, 51, 0
5, 115440, Note_on_c, 0, 44, 0
5, 115440, Note_on_c, 0, 59, 88
5, 115680, Note_on_c, 0, 59, 0
5, 115680, Note_on_c, 0, 51, 88
5, 115680, Note_on_c, 0, 54, 88
5, 115680, Note_on_c, 0, 56, 88
5, 115920, Note_on_c, 0, 56, 0
5, 115920, Note_on_c, 0, 54, 0
5, 115920, Note_on_c, 0, 51, 0
5, 115920, Note_on_c, 0, 60, 88
5, 116160, Note_on_c, 0, 60, 0
5, 116160, Note_on_c, 0, 37, 88
5, 116160, Note_on_c, 0, 49, 88
5, 116160, Note_on_c, 0, 53, 88
5, 116160, Note_on_c, 0, 56, 88
5, 116160, Note_on_c, 0, 61, 88
5, 116640, Note_on_c, 0, 61, 0
5, 116640, Note_on_c, 0, 53, 0
5, 116640, Note_on_c, 0, 37, 0
5, 116640, Note_on_c, 0, 49, 0
5, 116640, Note_on_c, 0, 56, 0
5, 116640, Note_on_c, 0, 44, 49
5, 116640, Note_on_c, 0, 49, 49
5, 116640, Note_on_c, 0, 53, 49
5, 117120, Note_on_c, 0, 53, 0
5, 117120, Note_on_c, 0, 49, 0
5, 117120, Note_on_c, 0, 44, 0
5, 117120, Note_on_c, 0, 49, 49
5, 117120, Note_on_c, 0, 56, 49
5, 117600, Note_on_c, 0, 56, 0
5, 117600, Note_on_c, 0, 49, 0
5, 117600, Control_c, 0, 64, 127
5, 117600, Note_on_c, 0, 37, 49
5, 118080, Note_on_c, 0, 37, 0
5, 118080, Note_on_c, 0, 53, 49
5, 118080, Note_on_c, 0, 56, 49
5, 118080, Note_on_c, 0, 59, 49
5, 118320, Note_on_c, 0, 59, 0
5, 118320, Note_on_c, 0, 56, 0
5, 118320, Note_on_c, 0, 53, 0
5, 118320, Note_on_c, 0, 56, 49
5, 118320, Note_on_c, 0, 59, 49
5, 118320, Note_on_c, 0, 65, 49
5, 118560, Note_on_c, 0, 65, 0
5, 118560, Note_on_c, 0, 59, 0
5, 118560, Note_on_c, 0, 56, 0
5, 118560, Control_c, 0, 64, 0
5, 119040, Control_c, 0, 64, 127
5, 119040, Note_on_c, 0, 37, 49
5, 119520, Note_on_c, 0, 37, 0
5, 119520, Note_on_c, 0, 49, 49
5, 119520, Note_on_c, 0, 57, 49
5, 120000, Note_on_c, 0, 57, 0
5, 120000, Note_on_c, 0, 49, 0
5, 120000, Control_c, 0, 64, 0
5, 120000, Note_on_c, 0, 54, 49
5, 120000, Note_on_c, 0, 61, 49
5, 120480, Note_on_c, 0, 61, 0
5, 120480, Note_on_c, 0, 54, 0
5, 120480, Control_c, 0, 64, 127
5, 120480, Note_on_c, 0, 37, 49
5, 120480, Note_on_c, 0, 49, 49
5, 120960, Note_on_c, 0, 49, 0
5, 120960, Note_on_c, 0, 37, 0
5, 120960, Note_on_c, 0, 51, 49
5, 120960, Note_on_c, 0, 54, 49
5, 120960, Note_on_c, 0, 60, 49
5, 121440, Note_on_c, 0, 60, 0
5, 121440, Note_on_c, 0, 54, 0
5, 121440, Note_on_c, 0, 51, 0
5, 121440, Control_c, 0, 64, 0
5, 121440, Note_on_c, 0, 54, 49
5, 121440, Note_on_c, 0, 60, 49
5, 121440, Note_on_c, 0, 63, 49
5, 121920, Note_on_c, 0, 63, 0
5, 121920, Note_on_c, 0, 60, 0
5, 121920, Note_on_c, 0, 54, 0
5, 121920, Control_c, 0, 64, 127
5, 121920, Note_on_c, 0, 37, 49
5, 122400, Note_on_c, 0, 37, 0
5, 122400, Note_on_c, 0, 44, 49
5, 122400, Note_on_c, 0, 49, 49
5, 122400, Note_on_c, 0, 53, 49
5, 122880, Note_on_c, 0, 53, 0
5, 122880, Note_on_c, 0, 49, 0
5, 122880, Note_on_c, 0, 44, 0
5, 122880, Control_c, 0, 64, 0
5, 122880, Note_on_c, 0, 49, 49
5, 122880, Note_on_c, 0, 56, 49
5, 123360, Note_on_c, 0, 56, 0
5, 123360, Note_on_c, 0, 49, 0
5, 123360, Control_c, 0, 64, 127
5, 123360, Note_on_c, 0, 37, 49
5, 123840, Note_on_c, 0, 37, 0
5, 123840, Note_on_c, 0, 53, 49
5, 123840, Note_on_c, 0, 56, 49
5, 123840, Note_on_c, 0, 59, 49
5, 124320, Note_on_c, 0, 59, 0
5, 124320, Note_on_c, 0, 56, 0
5, 124320, Note_on_c, 0, 53, 0
5, 124320, Control_c, 0, 64, 0
5, 124320, Note_on_c, 0, 56, 49
5, 124320, Note_on_c, 0, 59, 49
5, 124320, Note_on_c, 0, 65, 49
5, 124800, Note_on_c, 0, 65, 0
5, 124800, Note_on_c, 0, 59, 0
5, 124800, Note_on_c, 0, 56, 0
5, 124800, Control_c, 0, 64, 127
5, 124800, Note_on_c, 0, 37, 49
5, 124800, Note_on_c, 0, 49, 49
5, 125280, Note_on_c, 0, 49, 0
5, 125280, Note_on_c, 0, 37, 0
5, 125280, Note_on_c, 0, 49, 49
5, 125280, Note_on_c, 0, 57, 49
5, 125760, Note_on_c, 0, 57, 0
5, 125760, Note_on_c, 0, 49, 0
5, 125760, Control_c, 0, 64, 0
5, 125760, Note_on_c, 0, 54, 49
5, 125760, Note_on_c, 0, 61, 49
5, 126240, Note_on_c, 0, 61, 0
5, 126240, Note_on_c, 0, 54, 0
5, 126240, Control_c, 0, 64, 127
5, 126240, Note_on_c, 0, 37, 49
5, 126240, Note_on_c, 0, 49, 49
5, 126720, Note_on_c, 0, 49, 0
5, 126720, Note_on_c, 0, 37, 0
5, 126720, Note_on_c, 0, 51, 49
5, 126720, Note_on_c, 0, 54, 49
5, 126720, Note_on_c, 0, 60, 49
5, 127200, Note_on_c, 0, 60, 0
5, 127200, Note_on_c, 0, 54, 0
5, 127200, Note_on_c, 0, 51, 0
5, 127200, Note_on_c, 0, 54, 49
5, 127200, Note_on_c, 0, 60, 49
5, 127200, Note_on_c, 0, 63, 49
5, 127680, Note_on_c, 0, 63, 0
5, 127680, Note_on_c, 0, 60, 0
5, 127680, Note_on_c, 0, 54, 0
5, 127680, Control_c, 0, 64, 0
5, 127680, Note_on_c, 0, 37, 49
5, 128160, Note_on_c, 0, 37, 0
5, 130560, Note_on_c, 0, 37, 62
5, 130560, Note_on_c, 0, 49, 62
5, 130960, Note_on_c, 0, 53, 62
5, 131000, Note_on_c, 0, 56, 62
5, 131040, Note_on_c, 0, 49, 0
5, 131040, Note_on_c, 0, 37, 0
5, 131040, Note_on_c, 0, 61, 62
5, 131440, Note_on_c, 0, 56, 62
5, 131480, Note_on_c, 0, 61, 62
5, 131520, Note_on_c, 0, 61, 0
5, 131520, Note_on_c, 0, 56, 0
5, 131520, Note_on_c, 0, 53, 0
5, 131520, Note_on_c, 0, 65, 62
5, 132000, Note_on_c, 0, 65, 0
5, 132000, Note_on_c, 0, 56, 0
5, 132000, Note_on_c, 0, 61, 0
5, 133440, Note_on_c, 0, 36, 62
5, 133440, Note_on_c, 0, 48, 62
5, 133840, Note_on_c, 0, 53, 62
5, 133880, Note_on_c, 0, 57, 62
5, 133920, Note_on_c, 0, 48, 0
5, 133920, Note_on_c, 0, 36, 0
5, 133920, Note_on_c, 0, 63, 62
5, 134320, Note_on_c, 0, 57, 62
5, 134360, Note_on_c, 0, 63, 62
5, 134400, Note_on_c, 0, 63, 0
5, 134400, Note_on_c, 0, 57, 0
5, 134400, Note_on_c, 0, 53, 0
5, 134400, Note_on_c, 0, 65, 62
5, 134880, Note_on_c, 0, 65, 0
5, 134880, Note_on_c, 0, 57, 0
5, 134880, Note_on_c, 0, 63, 0
5, 136320, Note_on_c, 0, 35, 62
5, 136320, Note_on_c, 0, 47, 62
5, 136720, Note_on_c, 0, 53, 62
5, 136760, Note_on_c, 0, 56, 62
5, 136800, Note_on_c, 0, 47, 0
5, 136800, Note_on_c, 0, 35, 0
5, 136800, Note_on_c, 0, 61, 62
5, 137200, Note_on_c, 0, 56, 62
5, 137240, Note_on_c, 0, 61, 62
5, 137280, Note_on_c, 0, 61, 0
5, 137280, Note_on_c, 0, 56, 0
5, 137280, Note_on_c, 0, 53, 0
5, 137280, Note_on_c, 0, 65, 62
5, 137760, Note_on_c, 0, 65, 0
5, 137760, Note_on_c, 0, 56, 0
5, 137760, Note_on_c, 0, 61, 0
5, 139200, Note_on_c, 0, 48, 62
5, 139200, Note_on_c, 0, 53, 62
5, 139200, Note_on_c, 0, 56, 62
5, 142080, Note_on_c, 0, 56, 0
5, 142080, Note_on_c, 0, 53, 0
5, 142080, Note_on_c, 0, 48, 0
5, 142080, Note_on_c, 0, 48, 62
5, 142080, Note_on_c, 0, 53, 62
5, 142080, Note_on_c, 0, 55, 62
5, 143520, Note_on_c, 0, 53, 0
5, 143520, Note_on_c, 0, 52, 62
5, 144000, Note_on_c, 0, 52, 0
5, 144000, Note_on_c, 0, 55, 0
5, 144000, Note_on_c, 0, 48, 0
5, 151440, Note_on_c, 0, 37, 49
5, 151440, Note_on_c, 0, 49, 49
5, 151680, Note_on_c, 0, 49, 0
5, 151680, Note_on_c, 0, 37, 0
5, 151680, Note_on_c, 0, 31, 49
5, 151680, Note_on_c, 0, 43, 49
5, 151920, Note_on_c, 0, 43, 0
5, 151920, Note_on_c, 0, 31, 0
5, 151920, Note_on_c, 0, 36, 49
5, 151920, Note_on_c, 0, 48, 49
5, 152160, Note_on_c, 0, 48, 0
5, 152160, Note_on_c, 0, 36, 0
5, 152160, Note_on_c, 0, 41, 49
5, 152160, Note_on_c, 0, 48, 49
5, 152160, Note_on_c, 0, 53, 49
5, 152160, Note_on_c, 0, 57, 49
5, 152160, Note_on_c, 0, 65, 49
5, 152160, Note_on_c, 0, 69, 49
5, 155040, Note_on_c, 0, 69, 0
5, 155040, Note_on_c, 0, 48, 0
5, 155040, Note_on_c, 0, 53, 0
5, 155040, Note_on_c, 0, 41, 0
5, 155040, Note_on_c, 0, 65, 0
5, 155040, Note_on_c, 0, 57, 0
5, 155040, Note_on_c, 0, 41, 49
5, 155040, Note_on_c, 0, 48, 49
5, 155040, Note_on_c, 0, 53, 49
5, 155040, Note_on_c, 0, 57, 49
5, 155040, Note_on_c, 0, 65, 49
5, 155040, Note_on_c, 0, 69, 49
5, 157920, Note_on_c, 0, 69, 0
5, 157920, Note_on_c, 0, 48, 0
5, 157920, Note_on_c, 0, 53, 0
5, 157920, Note_on_c, 0, 41, 0
5, 157920, Note_on_c, 0, 65, 0
5, 157920, Note_on_c, 0, 57, 0
5, 157920, Note_on_c, 0, 41, 49
5, 157920, Note_on_c, 0, 48, 49
5, 157920, Note_on_c, 0, 53, 49
5, 157920, Note_on_c, 0, 57, 49
5, 157920, Note_on_c, 0, 65, 49
5, 157920, Note_on_c, 0, 69, 49
5, 159840, Note_on_c, 0, 69, 0
5, 159840, Note_on_c, 0, 48, 0
5, 159840, Note_on_c, 0, 53, 0
5, 159840, Note_on_c, 0, 41, 0
5, 159840, Note_on_c, 0, 65, 0
5, 159840, Note_on_c, 0, 57, 0
5, 172320, Note_on_c, 0, 34, 49
5, 172320, Note_on_c, 0, 46, 49
5, 173760, Note_on_c, 0, 46, 0
5, 173760, Note_on_c, 0, 34, 0
5, 174720, Note_on_c, 0, 34, 49
5, 174720, Note_on_c, 0, 46, 49
5, 175680, Note_on_c, 0, 46, 0
5, 175680, Note_on_c, 0, 34, 0
5, 175680, Note_on_c, 0, 34, 49
5, 175680, Note_on_c, 0, 46, 49
5, 177120, Note_on_c, 0, 46, 0
5, 177120, Note_on_c, 0, 34, 0
5, 178320, Note_on_c, 0, 42, 49
5, 178320, Note_on_c, 0, 48, 49
5, 178800, Note_on_c, 0, 48, 0
5, 178800, Note_on_c, 0, 42, 0
5, 178800, Note_on_c, 0, 42, 49
5, 178800, Note_on_c, 0, 48, 49
5, 179040, Note_on_c, 0, 48, 0
5, 179040, Note_on_c, 0, 42, 0
5, 179040, Note_on_c, 0, 41, 49
5, 179040, Note_on_c, 0, 48, 49
5, 179087, Note_on_c, 0, 48, 0
5, 179087, Note_on_c, 0, 41, 0
5, 179520, Note_on_c, 0, 65, 62
5, 179520, Note_on_c, 0, 69, 62
5, 179520, Note_on_c, 0, 72, 62
5, 179567, Note_on_c, 0, 72, 0
5, 179567, Note_on_c, 0, 69, 0
5, 179567, Note_on_c, 0, 65, 0
5, 180000, Note_on_c, 0, 34, 49
5, 180000, Note_on_c, 0, 46, 49
5, 181440, Note_on_c, 0, 46, 0
5, 181440, Note_on_c, 0, 34, 0
5, 182400, Note_on_c, 0, 34, 49
5, 182400, Note_on_c, 0, 46, 49
5, 183360, Note_on_c, 0, 46, 0
5, 183360, Note_on_c, 0, 34, 0
5, 183360, Note_on_c, 0, 34, 49
5, 183360, Note_on_c, 0, 46, 49
5, 184800, Note_on_c, 0, 46, 0
5, 184800, Note_on_c, 0, 34, 0
5, 186000, Note_on_c, 0, 46, 49
5, 186000, Note_on_c, 0, 51, 49
5, 186480, Note_on_c, 0, 51, 0
5, 186480, Note_on_c, 0, 46, 0
5, 186480, Note_on_c, 0, 46, 49
5, 186480, Note_on_c, 0, 51, 49
5, 186720, Note_on_c, 0, 51, 0
5, 186720, Note_on_c, 0, 46, 0
5, 186720, Note_on_c, 0, 44, 49
5, 186720, Note_on_c, 0, 51, 49
5, 186767, Note_on_c, 0, 51, 0
5, 186767, Note_on_c, 0, 44, 0
5, 187200, Note_on_c, 0, 68, 75
5, 187200, Note_on_c, 0, 72, 75
5, 187200, Note_on_c, 0, 75, 75
5, 187247, Note_on_c, 0, 75, 0
5, 187247, Note_on_c, 0, 72, 0
5, 187247, Note_on_c, 0, 68, 0
5, 188160, Note_on_c, 0, 41, 49
5, 188160, Note_on_c, 0, 53, 49
5, 189120, Note_on_c, 0, 53, 0
5, 189120, Note_on_c, 0, 41, 0
5, 189840, Note_on_c, 0, 47, 49
5, 189840, Note_on_c, 0, 53, 49
5, 190320, Note_on_c, 0, 53, 0
5, 190320, Note_on_c, 0, 47, 0
5, 190320, Note_on_c, 0, 47, 49
5, 190320, Note_on_c, 0, 53, 49
5, 190560, Note_on_c, 0, 53, 0
5, 190560, Note_on_c, 0, 47, 0
5, 190560, Note_on_c, 0, 48, 49
5, 190560, Note_on_c, 0, 52, 49
5, 190607, Note_on_c, 0, 52, 0
5, 190607, Note_on_c, 0, 48, 0
5, 191040, Note_on_c, 0, 72, 75
5, 191040, Note_on_c, 0, 76, 75
5, 191040, Note_on_c, 0, 79, 75
5, 191087, Note_on_c, 0, 79, 0
5, 191087, Note_on_c, 0, 76, 0
5, 191087, Note_on_c, 0, 72, 0
5, 192000, Note_on_c, 0, 33, 49
5, 192000, Note_on_c, 0, 45, 49
5, 192240, Note_on_c, 0, 45, 0
5, 192240, Note_on_c, 0, 33, 0
5, 192960, Note_on_c, 0, 34, 49
5, 192960, Note_on_c, 0, 46, 49
5, 193200, Note_on_c, 0, 46, 0
5, 193200, Note_on_c, 0, 34, 0
5, 193920, Note_on_c, 0, 40, 49
5, 193920, Note_on_c, 0, 48, 49
5, 193920, Note_on_c, 0, 55, 49
5, 194160, Note_on_c, 0, 55, 0
5, 194160, Note_on_c, 0, 48, 0
5, 194160, Note_on_c, 0, 40, 0
5, 194880, Note_on_c, 0, 41, 49
5, 194880, Note_on_c, 0, 48, 49
5, 194880, Note_on_c, 0, 56, 49
5, 195120, Note_on_c, 0, 56, 0
5, 195120, Note_on_c, 0, 48, 0
5, 195120, Note_on_c, 0, 41, 0
5, 195840, Note_on_c, 0, 33, 49
5, 195840, Note_on_c, 0, 45, 49
5, 196080, Note_on_c, 0, 45, 0
5, 196080, Note_on_c, 0, 33, 0
5, 196800, Note_on_c, 0, 34, 49
5, 196800, Note_on_c, 0, 46, 49
5, 197040, Note_on_c, 0, 46, 0
5, 197040, Note_on_c, 0, 34, 0
5, 197760, Note_on_c, 0, 40, 49
5, 197760, Note_on_c, 0, 48, 49
5, 197760, Note_on_c, 0, 55, 49
5, 198000, Note_on_c, 0, 55, 0
5, 198000, Note_on_c, 0, 48, 0
5, 198000, Note_on_c, 0, 40, 0
5, 198720, Note_on_c, 0, 41, 49
5, 198720, Note_on_c, 0, 48, 49
5, 198720, Note_on_c, 0, 56, 49
5, 198960, Note_on_c, 0, 56, 0
5, 198960, Note_on_c, 0, 48, 0
5, 198960, Note_on_c, 0, 41, 0
5, 199680, Note_on_c, 0, 33, 49
5, 199680, Note_on_c, 0, 45, 49
5, 199920, Note_on_c, 0, 45, 0
5, 199920, Note_on_c, 0, 33, 0
5, 200640, Note_on_c, 0, 34, 49
5, 200640, Note_on_c, 0, 46, 49
5, 200880, Note_on_c, 0, 46, 0
5, 200880, Note_on_c, 0, 34, 0
5, 201600, Note_on_c, 0, 35, 49
5, 201600, Note_on_c, 0, 47, 49
5, 201840, Note_on_c, 0, 47, 0
5, 201840, Note_on_c, 0, 35, 0
5, 202560, Note_on_c, 0, 36, 49
5, 202560, Note_on_c, 0, 48, 49
5, 202800, Note_on_c, 0, 48, 0
5, 202800, Note_on_c, 0, 36, 0
5, 205440, Note_on_c, 0, 52, 49
5, 205440, Note_on_c, 0, 55, 49
5, 205440, Note_on_c, 0, 58, 49
5, 205487, Note_on_c, 0, 58, 0
5, 205487, Note_on_c, 0, 55, 0
5, 205487, Note_on_c, 0, 52, 0
5, 206400, Note_on_c, 0, 40, 49
5, 206400, Note_on_c, 0, 43, 49
5, 206400, Note_on_c, 0, 46, 49
5, 206447, Note_on_c, 0, 46, 0
5, 206447, Note_on_c, 0, 43, 0
5, 206447, Note_on_c, 0, 40, 0
5, 212640, Note_on_c, 0, 70, 62
5, 212799, Note_on_c, 0, 70, 0
5, 212799, Note_on_c, 0, 72, 62
5, 212960, Note_on_c, 0, 72, 0
5, 213120, Note_on_c, 0, 73, 62
5, 213279, Note_on_c, 0, 73, 0
5, 213279, Note_on_c, 0, 72, 62
5, 213440, Note_on_c, 0, 72, 0
5, 213600, Note_on_c, 0, 75, 62
5, 213759, Note_on_c, 0, 75, 0
5, 213759, Note_on_c, 0, 73, 62
5, 213920, Note_on_c, 0, 73, 0
5, 214080, Note_on_c, 0, 72, 62
5, 214239, Note_on_c, 0, 72, 0
5, 214239, Note_on_c, 0, 70, 62
5, 214400, Note_on_c, 0, 70, 0
5, 214560, Note_on_c, 0, 68, 62
5, 214800, Note_on_c, 0, 68, 0
5, 216480, Note_on_c, 0, 74, 62
5, 216639, Note_on_c, 0, 74, 0
5, 216639, Note_on_c, 0, 76, 62
5, 216800, Note_on_c, 0, 76, 0
5, 216960, Note_on_c, 0, 77, 62
5, 217119, Note_on_c, 0, 77, 0
5, 217119, Note_on_c, 0, 76, 62
5, 217280, Note_on_c, 0, 76, 0
5, 218400, Note_on_c, 0, 36, 62
5, 218400, Note_on_c, 0, 48, 62
5, 218559, Note_on_c, 0, 48, 0
5, 218559, Note_on_c, 0, 36, 0
5, 218559, Note_on_c, 0, 38, 62
5, 218559, Note_on_c, 0, 50, 62
5, 218720, Note_on_c, 0, 50, 0
5, 218720, Note_on_c, 0, 38, 0
5, 218880, Note_on_c, 0, 40, 62
5, 218880, Note_on_c, 0, 52, 62
5, 219039, Note_on_c, 0, 52, 0
5, 219039, Note_on_c, 0, 40, 0
5, 219039, Note_on_c, 0, 38, 62
5, 219039, Note_on_c, 0, 50, 62
5, 219200, Note_on_c, 0, 50, 0
5, 219200, Note_on_c, 0, 38, 0
5, 219360, Note_on_c, 0, 41, 62
5, 219360, Note_on_c, 0, 53, 62
5, 219519, Note_on_c, 0, 53, 0
5, 219519, Note_on_c, 0, 41, 0
5, 219519, Note_on_c, 0, 40, 62
5, 219519, Note_on_c, 0, 52, 62
5, 219680, Note_on_c, 0, 52, 0
5, 219680, Note_on_c, 0, 40, 0
5, 219840, Note_on_c, 0, 38, 62
5, 219840, Note_on_c, 0, 50, 62
5, 219999, Note_on_c, 0, 50, 0
5, 219999, Note_on_c, 0, 38, 0
5, 219999, Note_on_c, 0, 36, 62
5, 219999, Note_on_c, 0, 48, 62
5, 220160, Note_on_c, 0, 48, 0
5, 220160, Note_on_c, 0, 36, 0
5, 220320, Note_on_c, 0, 48, 62
5, 220320, Note_on_c, 0, 50, 62
5, 220320, Note_on_c, 0, 53, 62
5, 220320, Note_on_c, 0, 55, 62
5, 221280, Note_on_c, 0, 48, 0
5, 221280, Note_on_c, 0, 47, 62
5, 222240, Note_on_c, 0, 47, 0
5, 222240, Note_on_c, 0, 55, 0
5, 222240, Note_on_c, 0, 53, 0
5, 222240, Note_on_c, 0, 50, 0
5, 222240, Note_on_c, 0, 48, 62
5, 222240, Note_on_c, 0, 52, 62
5, 222240, Note_on_c, 0, 55, 62
5, 222399, Note_on_c, 0, 55, 0
5, 222399, Note_on_c, 0, 52, 0
5, 222399, Note_on_c, 0, 48, 0
5, 222399, Note_on_c, 0, 50, 62
5, 222560, Note_on_c, 0, 50, 0
5, 222720, Note_on_c, 0, 40, 62
5, 222720, Note_on_c, 0, 52, 62
5, 222879, Note_on_c, 0, 52, 0
5, 222879, Note_on_c, 0, 40, 0
5, 222879, Note_on_c, 0, 38, 62
5, 222879, Note_on_c, 0, 50, 62
5, 223040, Note_on_c, 0, 50, 0
5, 223040, Note_on_c, 0, 38, 0
5, 223200, Note_on_c, 0, 41, 62
5, 223200, Note_on_c, 0, 53, 62
5, 223359, Note_on_c, 0, 53, 0
5, 223359, Note_on_c, 0, 41, 0
5, 223359, Note_on_c, 0, 40, 62
5, 223359, Note_on_c, 0, 52, 62
5, 223520, Note_on_c, 0, 52, 0
5, 223520, Note_on_c, 0, 40, 0
5, 223680, Note_on_c, 0, 38, 62
5, 223680, Note_on_c, 0, 50, 62
5, 223839, Note_on_c, 0, 50, 0
5, 223839, Note_on_c, 0, 38, 0
5, 223839, Note_on_c, 0, 36, 62
5, 223839, Note_on_c, 0, 48, 62
5, 224000, Note_on_c, 0, 48, 0
5, 224000, Note_on_c, 0, 36, 0
5, 224160, Note_on_c, 0, 48, 62
5, 224160, Note_on_c, 0, 50, 62
5, 224160, Note_on_c, 0, 53, 62
5, 224160, Note_on_c, 0, 55, 62
5, 225120, Note_on_c, 0, 48, 0
5, 225120, Note_on_c, 0, 47, 62
5, 226080, Note_on_c, 0, 47, 0
5, 226080, Note_on_c, 0, 55, 0
5, 226080, Note_on_c, 0, 53, 0
5, 226080, Note_on_c, 0, 50, 0
5, 226080, Note_on_c, 0, 48, 62
5, 226080, Note_on_c, 0, 52, 62
5, 226080, Note_on_c, 0, 55, 62
5, 226320, Note_on_c, 0, 55, 0
5, 226320, Note_on_c, 0, 52, 0
5, 226320, Note_on_c, 0, 48, 0
5, 235680, Note_on_c, 0, 60, 49
5, 235680, Note_on_c, 0, 67, 49
5, 235680, Note_on_c, 0, 70, 49
5, 235711, Note_on_c, 0, 70, 0
5, 235711, Note_on_c, 0, 67, 0
5, 235711, Note_on_c, 0, 60, 0
5, 235839, Note_on_c, 0, 60, 49
5, 235839, Note_on_c, 0, 67, 49
5, 235839, Note_on_c, 0, 70, 49
5, 235871, Note_on_c, 0, 70, 0
5, 235871, Note_on_c, 0, 67, 0
5, 235871, Note_on_c, 0, 60, 0
5, 236160, Note_on_c, 0, 60, 49
5, 236160, Note_on_c, 0, 67, 49
5, 236160, Note_on_c, 0, 70, 49
5, 236191, Note_on_c, 0, 70, 0
5, 236191, Note_on_c, 0, 67, 0
5, 236191, Note_on_c, 0, 60, 0
5, 236319, Note_on_c, 0, 60, 49
5, 236319, Note_on_c, 0, 67, 49
5, 236319, Note_on_c, 0, 70, 49
5, 236351, Note_on_c, 0, 70, 0
5, 236351, Note_on_c, 0, 67, 0
5, 236351, Note_on_c, 0, 60, 0
5, 236640, Note_on_c, 0, 60, 49
5, 236640, Note_on_c, 0, 67, 49
5, 236640, Note_on_c, 0, 70, 49
5, 236671, Note_on_c, 0, 70, 0
5, 236671, Note_on_c, 0, 67, 0
5, 236671, Note_on_c, 0, 60, 0
5, 236799, Note_on_c, 0, 60, 49
5, 236799, Note_on_c, 0, 67, 49
5, 236799, Note_on_c, 0, 70, 49
5, 236831, Note_on_c, 0, 70, 0
5, 236831, Note_on_c, 0, 67, 0
5, 236831, Note_on_c, 0, 60, 0
5, 237120, Note_on_c, 0, 60, 49
5, 237120, Note_on_c, 0, 67, 49
5, 237120, Note_on_c, 0, 70, 49
5, 237151, Note_on_c, 0, 70, 0
5, 237151, Note_on_c, 0, 67, 0
5, 237151, Note_on_c, 0, 60, 0
5, 237279, Note_on_c, 0, 60, 49
5, 237279, Note_on_c, 0, 67, 49
5, 237279, Note_on_c, 0, 70, 49
5, 237311, Note_on_c, 0, 70, 0
5, 237311, Note_on_c, 0, 67, 0
5, 237311, Note_on_c, 0, 60, 0
5, 239520, Note_on_c, 0, 60, 49
5, 239520, Note_on_c, 0, 65, 49
5, 239520, Note_on_c, 0, 68, 49
5, 239520, Note_on_c, 0, 72, 49
5, 239551, Note_on_c, 0, 72, 0
5, 239551, Note_on_c, 0, 60, 0
5, 239551, Note_on_c, 0, 65, 0
5, 239551, Note_on_c, 0, 68, 0
5, 239679, Note_on_c, 0, 60, 49
5, 239679, Note_on_c, 0, 65, 49
5, 239679, Note_on_c, 0, 68, 49
5, 239679, Note_on_c, 0, 72, 49
5, 239711, Note_on_c, 0, 72, 0
5, 239711, Note_on_c, 0, 60, 0
5, 239711, Note_on_c, 0, 65, 0
5, 239711, Note_on_c, 0, 68, 0
5, 240000, Note_on_c, 0, 60, 49
5, 240000, Note_on_c, 0, 65, 49
5, 240000, Note_on_c, 0, 68, 49
5, 240000, Note_on_c, 0, 72, 49
5, 240031, Note_on_c, 0, 72, 0
5, 240031, Note_on_c, 0, 60, 0
5, 240031, Note_on_c, 0, 65, 0
5, 240031, Note_on_c, 0, 68, 0
5, 240159, Note_on_c, 0, 60, 49
5, 240159, Note_on_c, 0, 65, 49
5, 240159, Note_on_c, 0, 68, 49
5, 240159, Note_on_c, 0, 72, 49
5, 240191, Note_on_c, 0, 72, 0
5, 240191, Note_on_c, 0, 60, 0
5, 240191, Note_on_c, 0, 65, 0
5, 240191, Note_on_c, 0, 68, 0
5, 240480, Note_on_c, 0, 60, 49
5, 240480, Note_on_c, 0, 65, 49
5, 240480, Note_on_c, 0, 68, 49
5, 240480, Note_on_c, 0, 72, 49
5, 240511, Note_on_c, 0, 72, 0
5, 240511, Note_on_c, 0, 60, 0
5, 240511, Note_on_c, 0, 65, 0
5, 240511, Note_on_c, 0, 68, 0
5, 240639, Note_on_c, 0, 60, 49
5, 240639, Note_on_c, 0, 65, 49
5, 240639, Note_on_c, 0, 68, 49
5, 240639, Note_on_c, 0, 72, 49
5, 240671, Note_on_c, 0, 72, 0
5, 240671, Note_on_c, 0, 60, 0
5, 240671, Note_on_c, 0, 65, 0
5, 240671, Note_on_c, 0, 68, 0
5, 240960, Note_on_c, 0, 60, 49
5, 240960, Note_on_c, 0, 65, 49
5, 240960, Note_on_c, 0, 68, 49
5, 240960, Note_on_c, 0, 72, 49
5, 240991, Note_on_c, 0, 72, 0
5, 240991, Note_on_c, 0, 60, 0
5, 240991, Note_on_c, 0, 65, 0
5, 240991, Note_on_c, 0, 68, 0
5, 241119, Note_on_c, 0, 60, 49
5, 241119, Note_on_c, 0, 65, 49
5, 241119, Note_on_c, 0, 68, 49
5, 241119, Note_on_c, 0, 72, 49
5, 241151, Note_on_c, 0, 72, 0
5, 241151, Note_on_c, 0, 60, 0
5, 241151, Note_on_c, 0, 65, 0
5, 241151, Note_on_c, 0, 68, 0
5, 242400, Note_on_c, 0, 60, 62
5, 243360, Note_on_c, 0, 60, 0
5, 244320, Note_on_c, 0, 60, 62
5, 245280, Note_on_c, 0, 60, 0
5, 246240, Note_on_c, 0, 60, 62
5, 247200, Note_on_c, 0, 60, 0
5, 248160, Note_on_c, 0, 60, 62
5, 249120, Note_on_c, 0, 60, 0
5, 250080, Note_on_c, 0, 60, 62
5, 251040, Note_on_c, 0, 60, 0
5, 252000, Note_on_c, 0, 48, 62
5, 252960, Note_on_c, 0, 48, 0
5, 252960, Note_on_c, 0, 36, 88
5, 254880, Note_on_c, 0, 36, 0
5, 254880, Note_on_c, 0, 36, 62
5, 256800, Note_on_c, 0, 36, 0
5, 275910, Note_on_c, 0, 46, 62
5, 275940, Note_on_c, 0, 53, 62
5, 275970, Note_on_c, 0, 58, 62
5, 276000, Note_on_c, 0, 61, 49
5, 276870, Note_on_c, 0, 46, 49
5, 276900, Note_on_c, 0, 53, 49
5, 276930, Note_on_c, 0, 58, 49
5, 276960, Note_on_c, 0, 61, 0
5, 276960, Note_on_c, 0, 58, 0
5, 276960, Note_on_c, 0, 46, 0
5, 276960, Note_on_c, 0, 53, 0
5, 276960, Note_on_c, 0, 61, 49
5, 277830, Note_on_c, 0, 46, 49
5, 277860, Note_on_c, 0, 53, 49
5, 277890, Note_on_c, 0, 60, 49
5, 277920, Note_on_c, 0, 61, 0
5, 277920, Note_on_c, 0, 58, 0
5, 277920, Note_on_c, 0, 53, 0
5, 277920, Note_on_c, 0, 46, 0
5, 277920, Note_on_c, 0, 63, 49
5, 278790, Note_on_c, 0, 46, 49
5, 278820, Note_on_c, 0, 53, 49
5, 278850, Note_on_c, 0, 60, 49
5, 278880, Note_on_c, 0, 63, 0
5, 278880, Note_on_c, 0, 60, 0
5, 278880, Note_on_c, 0, 53, 0
5, 278880, Note_on_c, 0, 46, 0
5, 278880, Note_on_c, 0, 63, 49
5, 279750, Note_on_c, 0, 46, 49
5, 279780, Note_on_c, 0, 53, 49
5, 279810, Note_on_c, 0, 58, 49
5, 279840, Note_on_c, 0, 63, 0
5, 279840, Note_on_c, 0, 60, 0
5, 279840, Note_on_c, 0, 53, 0
5, 279840, Note_on_c, 0, 46, 0
5, 279840, Note_on_c, 0, 61, 49
5, 280710, Note_on_c, 0, 46, 49
5, 280740, Note_on_c, 0, 53, 49
5, 280770, Note_on_c, 0, 58, 49
5, 280800, Note_on_c, 0, 61, 0
5, 280800, Note_on_c, 0, 58, 0
5, 280800, Note_on_c, 0, 53, 0
5, 280800, Note_on_c, 0, 46, 0
5, 280800, Note_on_c, 0, 61, 49
5, 281670, Note_on_c, 0, 46, 49
5, 281700, Note_on_c, 0, 53, 49
5, 281730, Note_on_c, 0, 57, 49
5, 281760, Note_on_c, 0, 61, 0
5, 281760, Note_on_c, 0, 58, 0
5, 281760, Note_on_c, 0, 53, 0
5, 281760, Note_on_c, 0, 46, 0
5, 281760, Note_on_c, 0, 63, 49
5, 282630, Note_on_c, 0, 46, 49
5, 282660, Note_on_c, 0, 53, 49
5, 282690, Note_on_c, 0, 57, 49
5, 282720, Note_on_c, 0, 63, 0
5, 282720, Note_on_c, 0, 57, 0
5, 282720, Note_on_c, 0, 53, 0
5, 282720, Note_on_c, 0, 46, 0
5, 282720, Note_on_c, 0, 63, 49
5, 283590, Note_on_c, 0, 46, 49
5, 283620, Note_on_c, 0, 53, 49
5, 283650, Note_on_c, 0, 58, 49
5, 283680, Note_on_c, 0, 63, 0
5, 283680, Note_on_c, 0, 57, 0
5, 283680, Note_on_c, 0, 53, 0
5, 283680, Note_on_c, 0, 46, 0
5, 283680, Note_on_c, 0, 61, 49
5, 284550, Note_on_c, 0, 46, 49
5, 284580, Note_on_c, 0, 53, 49
5, 284610, Note_on_c, 0, 58, 49
5, 284640, Note_on_c, 0, 61, 0
5, 284640, Note_on_c, 0, 58, 0
5, 284640, Note_on_c, 0, 53, 0
5, 284640, Note_on_c, 0, 46, 0
5, 284640, Note_on_c, 0, 61, 49
5, 285510, Note_on_c, 0, 46, 49
5, 285540, Note_on_c, 0, 53, 49
5, 285570, Note_on_c, 0, 60, 49
5, 285600, Note_on_c, 0, 61, 0
5, 285600, Note_on_c, 0, 58, 0
5, 285600, Note_on_c, 0, 53, 0
5, 285600, Note_on_c, 0, 46, 0
5, 285600, Note_on_c, 0, 63, 49
5, 286470, Note_on_c, 0, 46, 49
5, 286500, Note_on_c, 0, 53, 49
5, 286530, Note_on_c, 0, 60, 49
5, 286560, Note_on_c, 0, 63, 0
5, 286560, Note_on_c, 0, 60, 0
5, 286560, Note_on_c, 0, 53, 0
5, 286560, Note_on_c, 0, 46, 0
5, 286560, Note_on_c, 0, 63, 49
5, 287430, Note_on_c, 0, 46, 49
5, 287460, Note_on_c, 0, 53, 49
5, 287490, Note_on_c, 0, 58, 49
5, 287520, Note_on_c, 0, 63, 0
5, 287520, Note_on_c, 0, 60, 0
5, 287520, Note_on_c, 0, 53, 0
5, 287520, Note_on_c, 0, 46, 0
5, 287520, Note_on_c, 0, 61, 49
5, 288480, Note_on_c, 0, 61, 0
5, 288480, Note_on_c, 0, 53, 0
5, 288480, Note_on_c, 0, 46, 0
5, 288480, Note_on_c, 0, 58, 0
5, 289440, Note_on_c, 0, 34, 49
5, 289440, Note_on_c, 0, 41, 49
5, 289440, Note_on_c, 0, 46, 49
5, 290400, Note_on_c, 0, 46, 0
5, 290400, Note_on_c, 0, 41, 0
5, 290400, Note_on_c, 0, 34, 0
5, 297030, Note_on_c, 0, 46, 49
5, 297060, Note_on_c, 0, 53, 49
5, 297090, Note_on_c, 0, 58, 49
5, 297120, Note_on_c, 0, 61, 49
5, 297600, Note_on_c, 0, 61, 0
5, 297600, Note_on_c, 0, 46, 0
5, 297600, Note_on_c, 0, 53, 0
5, 297600, Note_on_c, 0, 58, 0
5, 297600, Note_on_c, 0, 46, 49
5, 297600, Note_on_c, 0, 51, 49
5, 297600, Note_on_c, 0, 54, 49
5, 297600, Note_on_c, 0, 58, 49
5, 298560, Note_on_c, 0, 58, 0
5, 298560, Note_on_c, 0, 46, 0
5, 298560, Note_on_c, 0, 51, 0
5, 298560, Note_on_c, 0, 54, 0
5, 298560, Note_on_c, 0, 46, 49
5, 298560, Note_on_c, 0, 53, 49
5, 298560, Note_on_c, 0, 58, 49
5, 299040, Note_on_c, 0, 58, 0
5, 299040, Note_on_c, 0, 53, 0
5, 299040, Note_on_c, 0, 46, 0
5, 300960, Note_on_c, 0, 46, 49
5, 300960, Note_on_c, 0, 53, 49
5, 300960, Note_on_c, 0, 58, 49
5, 301440, Note_on_c, 0, 58, 0
5, 301440, Note_on_c, 0, 53, 0
5, 301440, Note_on_c, 0, 46, 0
5, 301440, Note_on_c, 0, 46, 49
5, 301440, Note_on_c, 0, 54, 49
5, 302400, Note_on_c, 0, 54, 0
5, 302400, Note_on_c, 0, 46, 0
5, 302400, Note_on_c, 0, 46, 49
5, 302400, Note_on_c, 0, 53, 49
5, 302880, Note_on_c, 0, 53, 0
5, 302880, Note_on_c, 0, 46, 0
5, 306720, Note_on_c, 0, 56, 49
5, 306720, Note_on_c, 0, 58, 49
5, 307200, Note_on_c, 0, 58, 0
5, 307200, Note_on_c, 0, 56, 0
5, 307200, Note_on_c, 0, 56, 49
5, 307200, Note_on_c, 0, 58, 49
5, 308160, Note_on_c, 0, 58, 0
5, 308160, Note_on_c, 0, 56, 0
5, 308160, Note_on_c, 0, 56, 49
5, 308160, Note_on_c, 0, 58, 49
5, 308640, Note_on_c, 0, 58, 0
5, 308640, Note_on_c, 0, 56, 0
5, 308640, Note_on_c, 0, 55, 49
5, 308640, Note_on_c, 0, 58, 49
5, 308640, Note_on_c, 0, 61, 49
5, 309120, Note_on_c, 0, 61, 0
5, 309120, Note_on_c, 0, 58, 0
5, 309120, Note_on_c, 0, 55, 0
5, 309120, Note_on_c, 0, 55, 49
5, 309120, Note_on_c, 0, 58, 49
5, 309120, Note_on_c, 0, 61, 49
5, 310080, Note_on_c, 0, 61, 0
5, 310080, Note_on_c, 0, 58, 0
5, 310080, Note_on_c, 0, 55, 0
5, 310080, Note_on_c, 0, 55, 62
5, 310080, Note_on_c, 0, 58, 62
5, 310080, Note_on_c, 0, 61, 62
5, 310560, Note_on_c, 0, 61, 0
5, 310560, Note_on_c, 0, 58, 0
5, 310560, Note_on_c, 0, 55, 0
5, 310560, Note_on_c, 0, 53, 62
5, 310560, Note_on_c, 0, 58, 62
5, 310560, Note_on_c, 0, 61, 62
5, 310560, Note_on_c, 0, 65, 62
5, 310560, Note_on_c, 0, 70, 62
5, 310560, Note_on_c, 0, 73, 62
5, 311520, Note_on_c, 0, 73, 0
5, 311520, Note_on_c, 0, 58, 0
5, 311520, Note_on_c, 0, 61, 0
5, 311520, Note_on_c, 0, 53, 0
5, 311520, Note_on_c, 0, 70, 0
5, 311520, Note_on_c, 0, 65, 0
5, 311520, Note_on_c, 0, 51, 62
5, 312480, Note_on_c, 0, 51, 0
5, 312480, Note_on_c, 0, 58, 62
5, 312480, Note_on_c, 0, 63, 62
5, 312480, Note_on_c, 0, 70, 62
5, 312480, Note_on_c, 0, 75, 62
5, 313440, Note_on_c, 0, 75, 0
5, 313440, Note_on_c, 0, 58, 0
5, 313440, Note_on_c, 0, 63, 0
5, 313440, Note_on_c, 0, 70, 0
5, 313440, Note_on_c, 0, 58, 49
5, 313440, Note_on_c, 0, 63, 49
5, 314400, Note_on_c, 0, 63, 0
5, 314400, Note_on_c, 0, 58, 0
5, 314400, Note_on_c, 0, 56, 49
5, 314400, Note_on_c, 0, 60, 49
5, 314880, Note_on_c, 0, 60, 0
5, 314880, Note_on_c, 0, 56, 0
5, 314880, Note_on_c, 0, 56, 49
5, 314880, Note_on_c, 0, 60, 49
5, 315360, Note_on_c, 0, 60, 0
5, 315360, Note_on_c, 0, 56, 0
5, 315360, Note_on_c, 0, 56, 62
5, 315360, Note_on_c, 0, 68, 62
5, 315840, Note_on_c, 0, 68, 0
5, 315840, Note_on_c, 0, 56, 0
5, 315840, Note_on_c, 0, 51, 62
5, 315840, Note_on_c, 0, 57, 62
5, 315840, Note_on_c, 0, 69, 62
5, 316320, Note_on_c, 0, 69, 0
5, 316320, Note_on_c, 0, 57, 0
5, 316320, Note_on_c, 0, 51, 0
5, 316320, Note_on_c, 0, 58, 62
5, 316320, Note_on_c, 0, 70, 62
5, 316800, Note_on_c, 0, 70, 0
5, 316800, Note_on_c, 0, 58, 0
5, 316800, Note_on_c, 0, 53, 49
5, 316800, Note_on_c, 0, 57, 49
5, 316800, Note_on_c, 0, 60, 49
5, 317280, Note_on_c, 0, 60, 0
5, 317280, Note_on_c, 0, 57, 0
5, 317280, Note_on_c, 0, 53, 0
5, 317280, Note_on_c, 0, 49, 49
5, 317280, Note_on_c, 0, 53, 49
5, 317280, Note_on_c, 0, 58, 49
5, 317760, Note_on_c, 0, 58, 0
5, 317760, Note_on_c, 0, 53, 0
5, 317760, Note_on_c, 0, 49, 0
5, 317760, Note_on_c, 0, 49, 49
5, 317760, Note_on_c, 0, 53, 49
5, 317760, Note_on_c, 0, 59, 49
5, 318240, Note_on_c, 0, 59, 0
5, 318240, Note_on_c, 0, 53, 0
5, 318240, Note_on_c, 0, 49, 0
5, 318240, Note_on_c, 0, 48, 49
5, 318240, Note_on_c, 0, 55, 49
5, 318240, Note_on_c, 0, 60, 49
5, 318720, Note_on_c, 0, 60, 0
5, 318720, Note_on_c, 0, 55, 0
5, 318720, Note_on_c, 0, 48, 0
5, 318720, Note_on_c, 0, 48, 49
5, 318720, Note_on_c, 0, 60, 49
5, 320160, Note_on_c, 0, 60, 0
5, 320160, Note_on_c, 0, 48, 0
5, 320160, Note_on_c, 0, 46, 49
5, 321120, Note_on_c, 0, 46, 0
5, 321120, Note_on_c, 0, 51, 49
5, 322080, Note_on_c, 0, 51, 0
5, 326880, Note_on_c, 0, 51, 62
5, 327840, Note_on_c, 0, 51, 0
5, 327840, Note_on_c, 0, 51, 62
5, 328320, Note_on_c, 0, 51, 0
5, 328320, Note_on_c, 0, 53, 62
5, 328800, Note_on_c, 0, 53, 0
5, 328800, Note_on_c, 0, 54, 49
5, 329280, Note_on_c, 0, 54, 0
5, 329280, Note_on_c, 0, 55, 49
5, 329760, Note_on_c, 0, 55, 0
5, 330720, Note_on_c, 0, 55, 49
5, 330720, Note_on_c, 0, 60, 49
5, 332640, Note_on_c, 0, 60, 0
5, 332640, Note_on_c, 0, 55, 0
5, 332640, Note_on_c, 0, 55, 49
5, 332640, Note_on_c, 0, 62, 49
5, 334560, Note_on_c, 0, 62, 0
5, 334560, Note_on_c, 0, 55, 0
5, 334560, Note_on_c, 0, 55, 49
5, 334560, Note_on_c, 0, 60, 49
5, 336480, Note_on_c, 0, 60, 0
5, 336480, Note_on_c, 0, 55, 0
5, 336480, Note_on_c, 0, 55, 49
5, 336480, Note_on_c, 0, 62, 49
5, 338400, Note_on_c, 0, 62, 0
5, 338400, Note_on_c, 0, 55, 0
5, 338400, Note_on_c, 0, 55, 49
5, 338400, Note_on_c, 0, 60, 49
5, 339360, Note_on_c, 0, 60, 0
5, 339360, Note_on_c, 0, 55, 0
5, 340320, Note_on_c, 0, 43, 49
5, 342240, Note_on_c, 0, 43, 0
5, 342240, Note_on_c, 0, 43, 49
5, 342240, Note_on_c, 0, 50, 49
5, 344160, Note_on_c, 0, 50, 0
5, 344160, Note_on_c, 0, 43, 0
5, 359040, Note_on_c, 0, 49, 49
5, 359040, Note_on_c, 0, 51, 49
5, 359040, Note_on_c, 0, 55, 49
5, 360000, Note_on_c, 0, 55, 0
5, 360000, Note_on_c, 0, 51, 0
5, 360000, Note_on_c, 0, 49, 0
5, 360000, Note_on_c, 0, 44, 49
5, 360000, Note_on_c, 0, 51, 49
5, 360480, Note_on_c, 0, 51, 0
5, 360480, Note_on_c, 0, 44, 0
5, 361920, Note_on_c, 0, 44, 49
5, 361920, Note_on_c, 0, 49, 49
5, 361920, Note_on_c, 0, 51, 49
5, 362880, Note_on_c, 0, 51, 0
5, 362880, Note_on_c, 0, 49, 0
5, 362880, Note_on_c, 0, 44, 0
5, 362880, Note_on_c, 0, 49, 49
5, 362880, Note_on_c, 0, 51, 49
5, 362880, Note_on_c, 0, 58, 49
5, 363840, Note_on_c, 0, 58, 0
5, 363840, Note_on_c, 0, 51, 0
5, 363840, Note_on_c, 0, 49, 0
5, 363840, Note_on_c, 0, 44, 49
5, 363840, Note_on_c, 0, 51, 49
5, 364320, Note_on_c, 0, 51, 0
5, 364320, Note_on_c, 0, 44, 0
5, 365760, Note_on_c, 0, 48, 49
5, 365760, Note_on_c, 0, 55, 49
5, 365760, Note_on_c, 0, 59, 49
5, 366240, Note_on_c, 0, 59, 0
5, 366240, Note_on_c, 0, 55, 0
5, 366240, Note_on_c, 0, 48, 0
5, 366240, Note_on_c, 0, 48, 49
5, 366240, Note_on_c, 0, 55, 49
5, 366240, Note_on_c, 0, 59, 49
5, 367680, Note_on_c, 0, 59, 0
5, 367680, Note_on_c, 0, 55, 0
5, 367680, Note_on_c, 0, 48, 0
5, 369600, Note_on_c, 0, 33, 49
5, 369600, Note_on_c, 0, 45, 49
5, 370080, Note_on_c, 0, 45, 0
5, 370080, Note_on_c, 0, 33, 0
5, 370080, Note_on_c, 0, 33, 49
5, 370080, Note_on_c, 0, 45, 49
5, 371520, Note_on_c, 0, 45, 0
5, 371520, Note_on_c, 0, 33, 0
5, 371520, Note_on_c, 0, 69, 49
5, 371520, Note_on_c, 0, 72, 49
5, 371520, Note_on_c, 0, 75, 49
5, 371520, Note_on_c, 0, 76, 49
5, 372000, Note_on_c, 0, 76, 0
5, 372000, Note_on_c, 0, 69, 0
5, 372000, Note_on_c, 0, 72, 0
5, 372000, Note_on_c, 0, 75, 0
5, 372000, Note_on_c, 0, 69, 49
5, 372000, Note_on_c, 0, 72, 49
5, 372000, Note_on_c, 0, 75, 49
5, 372000, Note_on_c, 0, 77, 49
5, 372480, Note_on_c, 0, 77, 0
5, 372480, Note_on_c, 0, 69, 0
5, 372480, Note_on_c, 0, 72, 0
5, 372480, Note_on_c, 0, 75, 0
5, 372480, Note_on_c, 0, 44, 49
5, 372480, Note_on_c, 0, 56, 49
5, 374400, Note_on_c, 0, 56, 0
5, 374400, Note_on_c, 0, 44, 0
5, 374400, Note_on_c, 0, 43, 49
5, 374400, Note_on_c, 0, 55, 49
5, 376320, Note_on_c, 0, 55, 0
5, 376320, Note_on_c, 0, 43, 0
5, 376320, Note_on_c, 0, 41, 49
5, 376320, Note_on_c, 0, 53, 49
5, 377280, Note_on_c, 0, 53, 0
5, 377280, Note_on_c, 0, 41, 0
5, 377280, Note_on_c, 0, 40, 49
5, 377280, Note_on_c, 0, 52, 49
5, 378240, Note_on_c, 0, 52, 0
5, 378240, Note_on_c, 0, 40, 0
5, 378240, Note_on_c, 0, 39, 49
5, 378240, Note_on_c, 0, 51, 49
5, 378720, Note_on_c, 0, 51, 0
5, 378720, Note_on_c, 0, 39, 0
5, 378720, Note_on_c, 0, 41, 49
5, 378720, Note_on_c, 0, 53, 49
5, 379200, Note_on_c, 0, 53, 0
5, 379200, Note_on_c, 0, 41, 0
5, 379200, Note_on_c, 0, 42, 49
5, 379200, Note_on_c, 0, 54, 49
5, 379680, Note_on_c, 0, 54, 0
5, 379680, Note_on_c, 0, 42, 0
5, 379680, Note_on_c, 0, 43, 49
5, 379680, Note_on_c, 0, 55, 49
5, 380160, Note_on_c, 0, 55, 0
5, 380160, Note_on_c, 0, 43, 0
5, 380160, Note_on_c, 0, 44, 49
5, 380160, Note_on_c, 0, 56, 49
5, 380640, Note_on_c, 0, 56, 0
5, 380640, Note_on_c, 0, 44, 0
5, 381120, Note_on_c, 0, 49, 49
5, 381120, Note_on_c, 0, 53, 49
5, 381120, Note_on_c, 0, 57, 49
5, 382080, Note_on_c, 0, 57, 0
5, 382080, Note_on_c, 0, 53, 0
5, 382080, Note_on_c, 0, 49, 0
5, 382560, Note_on_c, 0, 53, 49
5, 382560, Note_on_c, 0, 57, 49
5, 382560, Note_on_c, 0, 60, 49
5, 382560, Note_on_c, 0, 65, 49
5, 382560, Note_on_c, 0, 69, 49
5, 383040, Note_on_c, 0, 69, 0
5, 383040, Note_on_c, 0, 60, 0
5, 383040, Note_on_c, 0, 53, 0
5, 383040, Note_on_c, 0, 57, 0
5, 383040, Note_on_c, 0, 65, 0
5, 383040, Note_on_c, 0, 49, 49
5, 383040, Note_on_c, 0, 53, 49
5, 383040, Note_on_c, 0, 58, 49
5, 383040, Note_on_c, 0, 65, 49
5, 383040, Note_on_c, 0, 70, 49
5, 383520, Note_on_c, 0, 70, 0
5, 383520, Note_on_c, 0, 58, 0
5, 383520, Note_on_c, 0, 49, 0
5, 383520, Note_on_c, 0, 53, 0
5, 383520, Note_on_c, 0, 65, 0
5, 385920, Note_on_c, 0, 39, 49
5, 385920, Note_on_c, 0, 51, 49
5, 387360, Note_on_c, 0, 51, 0
5, 387360, Note_on_c, 0, 39, 0
5, 387840, Note_on_c, 0, 44, 49
5, 387840, Note_on_c, 0, 56, 49
5, 389760, Note_on_c, 0, 56, 0
5, 389760, Note_on_c, 0, 44, 0
5, 389760, Note_on_c, 0, 43, 49
5, 389760, Note_on_c, 0, 55, 49
5, 391680, Note_on_c, 0, 55, 0
5, 391680, Note_on_c, 0, 43, 0
5, 391680, Note_on_c, 0, 41, 49
5, 391680, Note_on_c, 0, 53, 49
5, 392640, Note_on_c, 0, 53, 0
5, 392640, Note_on_c, 0, 41, 0
5, 392640, Note_on_c, 0, 40, 49
5, 392640, Note_on_c, 0, 52, 49
5, 393600, Note_on_c, 0, 52, 0
5, 393600, Note_on_c, 0, 40, 0
5, 393600, Note_on_c, 0, 39, 49
5, 393600, Note_on_c, 0, 51, 49
5, 394080, Note_on_c, 0, 51, 0
5, 394080, Note_on_c, 0, 39, 0
5, 394080, Note_on_c, 0, 41, 49
5, 394080, Note_on_c, 0, 53, 49
5, 394560, Note_on_c, 0, 53, 0
5, 394560, Note_on_c, 0, 41, 0
5, 394560, Note_on_c, 0, 42, 49
5, 394560, Note_on_c, 0, 54, 49
5, 395040, Note_on_c, 0, 54, 0
5, 395040, Note_on_c, 0, 42, 0
5, 395040, Note_on_c, 0, 43, 49
5, 395040, Note_on_c, 0, 55, 49
5, 395520, Note_on_c, 0, 55, 0
5, 395520, Note_on_c, 0, 43, 0
5, 395520, Note_on_c, 0, 44, 49
5, 395520, Note_on_c, 0, 56, 49
5, 395520, Note_on_c, 0, 60, 49
5, 395520, Note_on_c, 0, 63, 49
5, 396000, Note_on_c, 0, 63, 0
5, 396000, Note_on_c, 0, 44, 0
5, 396000, Note_on_c, 0, 56, 0
5, 396000, Note_on_c, 0, 60, 0
5, 396480, Control_c, 0, 64, 127
5, 396480, Note_on_c, 0, 31, 62
5, 396480, Note_on_c, 0, 43, 62
5, 396480, Note_on_c, 0, 55, 62
5, 396480, Note_on_c, 0, 63, 62
5, 396480, Note_on_c, 0, 67, 62
5, 396960, Note_on_c, 0, 67, 0
5, 396960, Note_on_c, 0, 55, 0
5, 396960, Note_on_c, 0, 31, 0
5, 396960, Note_on_c, 0, 43, 0
5, 396960, Note_on_c, 0, 63, 0
5, 396960, Note_on_c, 0, 57, 62
5, 397440, Note_on_c, 0, 57, 0
5, 397440, Note_on_c, 0, 59, 62
5, 397920, Note_on_c, 0, 59, 0
5, 397920, Control_c, 0, 64, 0
5, 397920, Note_on_c, 0, 60, 62
5, 398400, Note_on_c, 0, 60, 0
5, 398400, Control_c, 0, 64, 127
5, 398400, Note_on_c, 0, 55, 62
5, 398400, Note_on_c, 0, 62, 62
5, 398400, Note_on_c, 0, 65, 62
5, 398400, Note_on_c, 0, 68, 62
5, 398400, Note_on_c, 0, 71, 62
5, 398880, Note_on_c, 0, 71, 0
5, 398880, Note_on_c, 0, 65, 0
5, 398880, Note_on_c, 0, 55, 0
5, 398880, Note_on_c, 0, 62, 0
5, 398880, Note_on_c, 0, 68, 0
5, 398880, Note_on_c, 0, 67, 62
5, 399360, Note_on_c, 0, 67, 0
5, 399360, Note_on_c, 0, 66, 62
5, 399840, Note_on_c, 0, 66, 0
5, 399840, Control_c, 0, 64, 0
5, 399840, Note_on_c, 0, 67, 62
5, 400320, Note_on_c, 0, 67, 0
5, 400320, Control_c, 0, 64, 127
5, 400320, Note_on_c, 0, 31, 62
5, 400320, Note_on_c, 0, 43, 62
5, 400320, Note_on_c, 0, 55, 62
5, 400320, Note_on_c, 0, 63, 62
5, 400320, Note_on_c, 0, 67, 62
5, 400800, Note_on_c, 0, 67, 0
5, 400800, Note_on_c, 0, 55, 0
5, 400800, Note_on_c, 0, 31, 0
5, 400800, Note_on_c, 0, 43, 0
5, 400800, Note_on_c, 0, 63, 0
5, 400800, Note_on_c, 0, 57, 62
5, 401280, Note_on_c, 0, 57, 0
5, 401280, Note_on_c, 0, 59, 62
5, 401760, Note_on_c, 0, 59, 0
5, 401760, Control_c, 0, 64, 0
5, 401760, Note_on_c, 0, 60, 62
5, 402240, Note_on_c, 0, 60, 0
5, 402240, Control_c, 0, 64, 127
5, 402240, Note_on_c, 0, 55, 62
5, 402240, Note_on_c, 0, 62, 62
5, 402240, Note_on_c, 0, 65, 62
5, 402240, Note_on_c, 0, 68, 62
5, 402240, Note_on_c, 0, 71, 62
5, 402720, Note_on_c, 0, 71, 0
5, 402720, Note_on_c, 0, 65, 0
5, 402720, Note_on_c, 0, 55, 0
5, 402720, Note_on_c, 0, 62, 0
5, 402720, Note_on_c, 0, 68, 0
5, 402720, Note_on_c, 0, 67, 62
5, 403200, Note_on_c, 0, 67, 0
5, 422400, Note_on_c, 0, 55, 75
5, 422400, Note_on_c, 0, 60, 75
5, 422400, Note_on_c, 0, 63, 75
5, 423840, Note_on_c, 0, 63, 0
5, 423840, Note_on_c, 0, 60, 0
5, 423840, Note_on_c, 0, 55, 0
5, 423840, Note_on_c, 0, 55, 75
5, 423840, Note_on_c, 0, 60, 75
5, 423840, Note_on_c, 0, 63, 75
5, 423871, Note_on_c, 0, 63, 0
5, 423871, Note_on_c, 0, 60, 0
5, 423871, Note_on_c, 0, 55, 0
5, 423999, Note_on_c, 0, 55, 75
5, 423999, Note_on_c, 0, 60, 75
5, 423999, Note_on_c, 0, 63, 75
5, 424031, Note_on_c, 0, 63, 0
5, 424031, Note_on_c, 0, 60, 0
5, 424031, Note_on_c, 0, 55, 0
5, 424160, Note_on_c, 0, 55, 75
5, 424160, Note_on_c, 0, 60, 75
5, 424160, Note_on_c, 0, 63, 75
5, 424192, Note_on_c, 0, 63, 0
5, 424192, Note_on_c, 0, 60, 0
5, 424192, Note_on_c, 0, 55, 0
5, 424320, Note_on_c, 0, 55, 75
5, 424320, Note_on_c, 0, 60, 75
5, 424320, Note_on_c, 0, 63, 75
5, 425760, Note_on_c, 0, 63, 0
5, 425760, Note_on_c, 0, 60, 0
5, 425760, Note_on_c, 0, 55, 0
5, 425760, Note_on_c, 0, 55, 75
5, 425760, Note_on_c, 0, 60, 75
5, 425760, Note_on_c, 0, 63, 75
5, 425791, Note_on_c, 0, 63, 0
5, 425791, Note_on_c, 0, 60, 0
5, 425791, Note_on_c, 0, 55, 0
5, 425919, Note_on_c, 0, 55, 75
5, 425919, Note_on_c, 0, 60, 75
5, 425919, Note_on_c, 0, 63, 75
5, 425951, Note_on_c, 0, 63, 0
5, 425951, Note_on_c, 0, 60, 0
5, 425951, Note_on_c, 0, 55, 0
5, 426080, Note_on_c, 0, 55, 75
5, 426080, Note_on_c, 0, 60, 75
5, 426080, Note_on_c, 0, 63, 75
5, 426112, Note_on_c, 0, 63, 0
5, 426112, Note_on_c, 0, 60, 0
5, 426112, Note_on_c, 0, 55, 0
5, 426240, Note_on_c, 0, 55, 75
5, 426240, Note_on_c, 0, 61, 75
5, 426240, Note_on_c, 0, 64, 75
5, 427680, Note_on_c, 0, 64, 0
5, 427680, Note_on_c, 0, 61, 0
5, 427680, Note_on_c, 0, 55, 0
5, 427680, Note_on_c, 0, 55, 75
5, 427680, Note_on_c, 0, 61, 75
5, 427680, Note_on_c, 0, 64, 75
5, 427711, Note_on_c, 0, 64, 0
5, 427711, Note_on_c, 0, 61, 0
5, 427711, Note_on_c, 0, 55, 0
5, 427839, Note_on_c, 0, 55, 75
5, 427839, Note_on_c, 0, 61, 75
5, 427839, Note_on_c, 0, 64, 75
5, 427871, Note_on_c, 0, 64, 0
5, 427871, Note_on_c, 0, 61, 0
5, 427871, Note_on_c, 0, 55, 0
5, 428000, Note_on_c, 0, 55, 75
5, 428000, Note_on_c, 0, 61, 75
5, 428000, Note_on_c, 0, 64, 75
5, 428032, Note_on_c, 0, 64, 0
5, 428032, Note_on_c, 0, 61, 0
5, 428032, Note_on_c, 0, 55, 0
5, 428160, Note_on_c, 0, 55, 75
5, 428160, Note_on_c, 0, 62, 75
5, 428160, Note_on_c, 0, 65, 75
5, 428640, Note_on_c, 0, 65, 0
5, 428640, Note_on_c, 0, 62, 0
5, 428640, Note_on_c, 0, 55, 0
5, 428640, Note_on_c, 0, 55, 75
5, 428640, Note_on_c, 0, 62, 75
5, 428640, Note_on_c, 0, 65, 75
5, 428671, Note_on_c, 0, 65, 0
5, 428671, Note_on_c, 0, 62, 0
5, 428671, Note_on_c, 0, 55, 0
5, 428799, Note_on_c, 0, 55, 75
5, 428799, Note_on_c, 0, 62, 75
5, 428799, Note_on_c, 0, 65, 75
5, 428831, Note_on_c, 0, 65, 0
5, 428831, Note_on_c, 0, 62, 0
5, 428831, Note_on_c, 0, 55, 0
5, 428960, Note_on_c, 0, 55, 75
5, 428960, Note_on_c, 0, 62, 75
5, 428960, Note_on_c, 0, 65, 75
5, 428992, Note_on_c, 0, 65, 0
5, 428992, Note_on_c, 0, 62, 0
5, 428992, Note_on_c, 0, 55, 0
5, 429120, Note_on_c, 0, 55, 75
5, 429120, Note_on_c, 0, 62, 75
5, 429120, Note_on_c, 0, 65, 75
5, 429600, Note_on_c, 0, 65, 0
5, 429600, Note_on_c, 0, 62, 0
5, 429600, Note_on_c, 0, 55, 0
5, 429600, Note_on_c, 0, 55, 75
5, 429600, Note_on_c, 0, 62, 75
5, 429600, Note_on_c, 0, 65, 75
5, 429631, Note_on_c, 0, 65, 0
5, 429631, Note_on_c, 0, 62, 0
5, 429631, Note_on_c, 0, 55, 0
5, 429759, Note_on_c, 0, 55, 75
5, 429759, Note_on_c, 0, 62, 75
5, 429759, Note_on_c, 0, 65, 75
5, 429791, Note_on_c, 0, 65, 0
5, 429791, Note_on_c, 0, 62, 0
5, 429791, Note_on_c, 0, 55, 0
5, 429920, Note_on_c, 0, 55, 75
5, 429920, Note_on_c, 0, 62, 75
5, 429920, Note_on_c, 0, 65, 75
5, 429952, Note_on_c, 0, 65, 0
5, 429952, Note_on_c, 0, 62, 0
5, 429952, Note_on_c, 0, 55, 0
5, 430080, Note_on_c, 0, 55, 75
5, 430080, Note_on_c, 0, 63, 75
5, 430080, Note_on_c, 0, 66, 75
5, 430560, Note_on_c, 0, 66, 0
5, 430560, Note_on_c, 0, 63, 0
5, 430560, Note_on_c, 0, 55, 0
5, 430560, Note_on_c, 0, 55, 75
5, 430560, Note_on_c, 0, 63, 75
5, 430560, Note_on_c, 0, 66, 75
5, 430591, Note_on_c, 0, 66, 0
5, 430591, Note_on_c, 0, 63, 0
5, 430591, Note_on_c, 0, 55, 0
5, 430719, Note_on_c, 0, 55, 75
5, 430719, Note_on_c, 0, 63, 75
5, 430719, Note_on_c, 0, 66, 75
5, 430751, Note_on_c, 0, 66, 0
5, 430751, Note_on_c, 0, 63, 0
5, 430751, Note_on_c, 0, 55, 0
5, 430880, Note_on_c, 0, 55, 75
5, 430880, Note_on_c, 0, 63, 75
5, 430880, Note_on_c, 0, 66, 75
5, 430912, Note_on_c, 0, 66, 0
5, 430912, Note_on_c, 0, 63, 0
5, 430912, Note_on_c, 0, 55, 0
5, 431040, Note_on_c, 0, 55, 75
5, 431040, Note_on_c, 0, 64, 75
5, 431040, Note_on_c, 0, 67, 75
5, 431520, Note_on_c, 0, 67, 0
5, 431520, Note_on_c, 0, 64, 0
5, 431520, Note_on_c, 0, 55, 0
5, 431520, Note_on_c, 0, 55, 75
5, 431520, Note_on_c, 0, 64, 75
5, 431520, Note_on_c, 0, 67, 75
5, 431551, Note_on_c, 0, 67, 0
5, 431551, Note_on_c, 0, 64, 0
5, 431551, Note_on_c, 0, 55, 0
5, 431679, Note_on_c, 0, 55, 75
5, 431679, Note_on_c, 0, 64, 75
5, 431679, Note_on_c, 0, 67, 75
5, 431711, Note_on_c, 0, 67, 0
5, 431711, Note_on_c, 0, 64, 0
5, 431711, Note_on_c, 0, 55, 0
5, 431840, Note_on_c, 0, 55, 75
5, 431840, Note_on_c, 0, 64, 75
5, 431840, Note_on_c, 0, 67, 75
5, 431872, Note_on_c, 0, 67, 0
5, 431872, Note_on_c, 0, 64, 0
5, 431872, Note_on_c, 0, 55, 0
5, 432000, Note_on_c, 0, 55, 75
5, 432000, Note_on_c, 0, 65, 75
5, 432000, Note_on_c, 0, 68, 75
5, 432960, Note_on_c, 0, 68, 0
5, 432960, Note_on_c, 0, 65, 0
5, 432960, Note_on_c, 0, 55, 0
5, 432960, Note_on_c, 0, 55, 75
5, 432960, Note_on_c, 0, 66, 75
5, 432960, Note_on_c, 0, 69, 75
5, 433920, Note_on_c, 0, 69, 0
5, 433920, Note_on_c, 0, 66, 0
5, 433920, Note_on_c, 0, 55, 0
5, 433920, Control_c, 0, 64, 127
5, 433920, Note_on_c, 0, 55, 75
5, 433920, Note_on_c, 0, 67, 75
5, 433920, Note_on_c, 0, 70, 75
5, 433920, Note_on_c, 0, 76, 75
5, 434400, Note_on_c, 0, 76, 0
5, 434400, Note_on_c, 0, 55, 0
5, 434400, Note_on_c, 0, 67, 0
5, 434400, Note_on_c, 0, 70, 0
5, 434400, Note_on_c, 0, 68, 75
5, 434400, Note_on_c, 0, 71, 75
5, 434400, Note_on_c, 0, 77, 75
5, 434880, Note_on_c, 0, 77, 0
5, 434880, Note_on_c, 0, 71, 0
5, 434880, Note_on_c, 0, 68, 0
5, 434880, Note_on_c, 0, 69, 88
5, 434880, Note_on_c, 0, 72, 88
5, 434880, Note_on_c, 0, 78, 88
5, 435360, Note_on_c, 0, 78, 0
5, 435360, Note_on_c, 0, 72, 0
5, 435360, Note_on_c, 0, 69, 0
5, 435360, Control_c, 0, 64, 0
5, 435360, Note_on_c, 0, 71, 88
5, 435360, Note_on_c, 0, 74, 88
5, 435360, Note_on_c, 0, 79, 88
5, 435840, Note_on_c, 0, 79, 0
5, 435840, Note_on_c, 0, 74, 0
5, 435840, Note_on_c, 0, 71, 0
5, 435840, Control_c, 0, 64, 127
5, 435840, Note_on_c, 0, 53, 114
5, 435840, Note_on_c, 0, 59, 114
5, 435840, Note_on_c, 0, 62, 114
5, 435840, Note_on_c, 0, 65, 114
5, 435936, Note_on_c, 0, 65, 0
5, 435936, Note_on_c, 0, 53, 0
5, 435936, Note_on_c, 0, 59, 0
5, 435936, Note_on_c, 0, 62, 0
5, 436320, Control_c, 0, 64, 0
5, 439680, Control_c, 0, 64, 127
5, 439680, Note_on_c, 0, 51, 114
5, 439680, Note_on_c, 0, 57, 114
5, 439680, Note_on_c, 0, 60, 114
5, 439680, Note_on_c, 0, 63, 114
5, 439776, Note_on_c, 0, 63, 0
5, 439776, Note_on_c, 0, 51, 0
5, 439776, Note_on_c, 0, 57, 0
5, 439776, Note_on_c, 0, 60, 0
5, 440640, Control_c, 0, 64, 0
5, 443520, Control_c, 0, 64, 127
5, 443520, Note_on_c, 0, 50, 88
5, 443520, Note_on_c, 0, 56, 88
5, 443520, Note_on_c, 0, 59, 88
5, 443520, Note_on_c, 0, 62, 88
5, 443616, Note_on_c, 0, 62, 0
5, 443616, Note_on_c, 0, 50, 0
5, 443616, Note_on_c, 0, 56, 0
5, 443616, Note_on_c, 0, 59, 0
5, 444000, Control_c, 0, 64, 0
5, 444480, Control_c, 0, 64, 127
5, 444480, Note_on_c, 0, 49, 88
5, 444480, Note_on_c, 0, 56, 88
5, 444480, Note_on_c, 0, 59, 88
5, 444480, Note_on_c, 0, 61, 88
5, 444576, Note_on_c, 0, 61, 0
5, 444576, Note_on_c, 0, 49, 0
5, 444576, Note_on_c, 0, 56, 0
5, 444576, Note_on_c, 0, 59, 0
5, 444960, Control_c, 0, 64, 0
5, 445440, Control_c, 0, 64, 127
5, 445440, Note_on_c, 0, 48, 88
5, 445440, Note_on_c, 0, 53, 88
5, 445440, Note_on_c, 0, 56, 88
5, 445440, Note_on_c, 0, 60, 88
5, 445536, Note_on_c, 0, 60, 0
5, 445536, Note_on_c, 0, 48, 0
5, 445536, Note_on_c, 0, 53, 0
5, 445536, Note_on_c, 0, 56, 0
5, 445920, Control_c, 0, 64, 0
5, 446400, Note_on_c, 0, 47, 88
5, 446400, Note_on_c, 0, 59, 88
5, 446880, Note_on_c, 0, 59, 0
5, 446880, Note_on_c, 0, 47, 0
5, 446880, Note_on_c, 0, 46, 88
5, 446880, Note_on_c, 0, 58, 88
5, 447360, Note_on_c, 0, 58, 0
5, 447360, Note_on_c, 0, 46, 0
5, 447360, Note_on_c, 0, 45, 88
5, 447360, Note_on_c, 0, 57, 88
5, 447840, Note_on_c, 0, 57, 0
5, 447840, Note_on_c, 0, 45, 0
5, 447840, Note_on_c, 0, 44, 88
5, 447840, Note_on_c, 0, 56, 88
5, 448320, Note_on_c, 0, 56, 0
5, 448320, Note_on_c, 0, 44, 0
5, 448320, Control_c, 0, 64, 127
5, 448320, Note_on_c, 0, 43, 88
5, 448320, Note_on_c, 0, 55, 88
5, 448416, Note_on_c, 0, 55, 0
5, 448416, Note_on_c, 0, 43, 0
5, 448800, Control_c, 0, 64, 0
5, 467040, Control_c, 0, 64, 127
5, 467040, Note_on_c, 0, 44, 49
5, 467040, Note_on_c, 0, 51, 49
5, 467199, Note_on_c, 0, 51, 0
5, 467199, Note_on_c, 0, 44, 0
5, 467199, Note_on_c, 0, 58, 49
5, 467360, Note_on_c, 0, 58, 0
5, 467360, Note_on_c, 0, 56, 49
5, 467520, Note_on_c, 0, 56, 0
5, 467520, Note_on_c, 0, 55, 49
5, 467679, Note_on_c, 0, 55, 0
5, 467679, Note_on_c, 0, 53, 49
5, 467840, Note_on_c, 0, 53, 0
5, 467840, Note_on_c, 0, 51, 49
5, 468000, Note_on_c, 0, 51, 0
5, 468000, Note_on_c, 0, 56, 49
5, 468000, Note_on_c, 0, 63, 49
5, 468159, Note_on_c, 0, 63, 0
5, 468159, Note_on_c, 0, 56, 0
5, 468159, Note_on_c, 0, 70, 49
5, 468320, Note_on_c, 0, 70, 0
5, 468320, Note_on_c, 0, 68, 49
5, 468480, Note_on_c, 0, 68, 0
5, 468480, Note_on_c, 0, 67, 49
5, 468639, Note_on_c, 0, 67, 0
5, 468639, Note_on_c, 0, 65, 49
5, 468800, Note_on_c, 0, 65, 0
5, 468800, Control_c, 0, 64, 0
5, 468800, Note_on_c, 0, 63, 49
5, 468960, Note_on_c, 0, 63, 0
5, 468960, Control_c, 0, 64, 127
5, 468960, Note_on_c, 0, 44, 49
5, 468960, Note_on_c, 0, 51, 49
5, 469119, Note_on_c, 0, 51, 0
5, 469119, Note_on_c, 0, 44, 0
5, 469119, Note_on_c, 0, 60, 49
5, 469280, Note_on_c, 0, 60, 0
5, 469280, Note_on_c, 0, 58, 49
5, 469440, Note_on_c, 0, 58, 0
5, 469440, Note_on_c, 0, 56, 49
5, 469599, Note_on_c, 0, 56, 0
5, 469599, Note_on_c, 0, 53, 49
5, 469760, Note_on_c, 0, 53, 0
5, 469760, Note_on_c, 0, 51, 49
5, 469920, Note_on_c, 0, 51, 0
5, 469920, Note_on_c, 0, 56, 49
5, 469920, Note_on_c, 0, 63, 49
5, 470079, Note_on_c, 0, 63, 0
5, 470079, Note_on_c, 0, 56, 0
5, 470079, Note_on_c, 0, 72, 49
5, 470240, Note_on_c, 0, 72, 0
5, 470240, Note_on_c, 0, 70, 49
5, 470400, Note_on_c, 0, 70, 0
5, 470400, Note_on_c, 0, 68, 49
5, 470559, Note_on_c, 0, 68, 0
5, 470559, Note_on_c, 0, 65, 49
5, 470720, Note_on_c, 0, 65, 0
5, 470720, Control_c, 0, 64, 0
5, 470720, Note_on_c, 0, 63, 49
5, 470880, Note_on_c, 0, 63, 0
5, 470880, Control_c, 0, 64, 127
5, 470880, Note_on_c, 0, 44, 49
5, 470880, Note_on_c, 0, 51, 49
5, 471039, Note_on_c, 0, 51, 0
5, 471039, Note_on_c, 0, 44, 0
5, 471039, Note_on_c, 0, 58, 49
5, 471200, Note_on_c, 0, 58, 0
5, 471200, Note_on_c, 0, 55, 49
5, 471360, Note_on_c, 0, 55, 0
5, 471360, Note_on_c, 0, 51, 49
5, 471519, Note_on_c, 0, 51, 0
5, 471519, Note_on_c, 0, 50, 49
5, 471680, Note_on_c, 0, 50, 0
5, 471680, Note_on_c, 0, 49, 49
5, 471840, Note_on_c, 0, 49, 0
5, 471840, Note_on_c, 0, 56, 49
5, 471840, Note_on_c, 0, 63, 49
5, 471999, Note_on_c, 0, 63, 0
5, 471999, Note_on_c, 0, 56, 0
5, 471999, Note_on_c, 0, 63, 49
5, 472160, Note_on_c, 0, 63, 0
5, 472160, Note_on_c, 0, 62, 49
5, 472320, Note_on_c, 0, 62, 0
5, 472320, Note_on_c, 0, 61, 49
5, 472479, Note_on_c, 0, 61, 0
5, 472479, Note_on_c, 0, 60, 49
5, 472640, Note_on_c, 0, 60, 0
5, 472640, Control_c, 0, 64, 0
5, 472640, Note_on_c, 0, 61, 49
5, 472800, Note_on_c, 0, 61, 0
5, 472800, Control_c, 0, 64, 127
5, 472800, Note_on_c, 0, 44, 49
5, 472800, Note_on_c, 0, 51, 49
5, 472959, Note_on_c, 0, 51, 0
5, 472959, Note_on_c, 0, 44, 0
5, 472959, Note_on_c, 0, 48, 49
5, 473120, Note_on_c, 0, 48, 0
5, 473120, Note_on_c, 0, 51, 49
5, 473280, Note_on_c, 0, 51, 0
5, 473280, Note_on_c, 0, 56, 49
5, 473439, Note_on_c, 0, 56, 0
5, 473439, Note_on_c, 0, 53, 49
5, 473600, Note_on_c, 0, 53, 0
5, 473600, Note_on_c, 0, 51, 49
5, 473760, Note_on_c, 0, 51, 0
5, 473760, Note_on_c, 0, 56, 49
5, 473760, Note_on_c, 0, 63, 49
5, 473919, Note_on_c, 0, 63, 0
5, 473919, Note_on_c, 0, 56, 0
5, 473919, Note_on_c, 0, 67, 49
5, 474080, Note_on_c, 0, 67, 0
5, 474080, Note_on_c, 0, 65, 49
5, 474240, Note_on_c, 0, 65, 0
5, 474240, Note_on_c, 0, 63, 49
5, 474399, Note_on_c, 0, 63, 0
5, 474399, Note_on_c, 0, 61, 49
5, 474560, Note_on_c, 0, 61, 0
5, 474560, Control_c, 0, 64, 0
5, 474560, Note_on_c, 0, 60, 49
5, 474720, Note_on_c, 0, 60, 0
5, 474720, Control_c, 0, 64, 127
5, 474720, Note_on_c, 0, 44, 49
5, 474720, Note_on_c, 0, 51, 49
5, 474879, Note_on_c, 0, 51, 0
5, 474879, Note_on_c, 0, 44, 0
5, 474879, Note_on_c, 0, 58, 49
5, 475040, Note_on_c, 0, 58, 0
5, 475040, Note_on_c, 0, 56, 49
5, 475200, Note_on_c, 0, 56, 0
5, 475200, Note_on_c, 0, 55, 49
5, 475359, Note_on_c, 0, 55, 0
5, 475359, Note_on_c, 0, 53, 49
5, 475520, Note_on_c, 0, 53, 0
5, 475520, Note_on_c, 0, 51, 49
5, 475680, Note_on_c, 0, 51, 0
5, 475680, Note_on_c, 0, 56, 49
5, 475680, Note_on_c, 0, 63, 49
5, 475839, Note_on_c, 0, 63, 0
5, 475839, Note_on_c, 0, 56, 0
5, 475839, Note_on_c, 0, 70, 49
5, 476000, Note_on_c, 0, 70, 0
5, 476000, Note_on_c, 0, 68, 49
5, 476160, Note_on_c, 0, 68, 0
5, 476160, Note_on_c, 0, 67, 49
5, 476319, Note_on_c, 0, 67, 0
5, 476319, Note_on_c, 0, 65, 49
5, 476480, Note_on_c, 0, 65, 0
5, 476480, Control_c, 0, 64, 0
5, 476480, Note_on_c, 0, 63, 49
5, 476640, Note_on_c, 0, 63, 0
5, 476640, Control_c, 0, 64, 127
5, 476640, Note_on_c, 0, 44, 49
5, 476640, Note_on_c, 0, 51, 49
5, 476799, Note_on_c, 0, 51, 0
5, 476799, Note_on_c, 0, 44, 0
5, 476799, Note_on_c, 0, 60, 49
5, 476960, Note_on_c, 0, 60, 0
5, 476960, Note_on_c, 0, 58, 49
5, 477120, Note_on_c, 0, 58, 0
5, 477120, Note_on_c, 0, 56, 49
5, 477279, Note_on_c, 0, 56, 0
5, 477279, Note_on_c, 0, 53, 49
5, 477440, Note_on_c, 0, 53, 0
5, 477440, Note_on_c, 0, 51, 49
5, 477600, Note_on_c, 0, 51, 0
5, 477600, Note_on_c, 0, 56, 49
5, 477600, Note_on_c, 0, 63, 49
5, 477759, Note_on_c, 0, 63, 0
5, 477759, Note_on_c, 0, 56, 0
5, 477759, Note_on_c, 0, 72, 49
5, 477920, Note_on_c, 0, 72, 0
5, 477920, Note_on_c, 0, 70, 49
5, 478080, Note_on_c, 0, 70, 0
5, 478080, Note_on_c, 0, 68, 49
5, 478239, Note_on_c, 0, 68, 0
5, 478239, Note_on_c, 0, 65, 49
5, 478400, Note_on_c, 0, 65, 0
5, 478400, Control_c, 0, 64, 0
5, 478400, Note_on_c, 0, 63, 49
5, 478560, Note_on_c, 0, 63, 0
5, 478560, Control_c, 0, 64, 127
5, 478560, Note_on_c, 0, 44, 49
5, 478560, Note_on_c, 0, 51, 49
5, 478719, Note_on_c, 0, 51, 0
5, 478719, Note_on_c, 0, 44, 0
5, 478719, Note_on_c, 0, 58, 49
5, 478880, Note_on_c, 0, 58, 0
5, 478880, Note_on_c, 0, 55, 49
5, 479040, Note_on_c, 0, 55, 0
5, 479040, Note_on_c, 0, 51, 49
5, 479199, Note_on_c, 0, 51, 0
5, 479199, Note_on_c, 0, 50, 49
5, 479360, Note_on_c, 0, 50, 0
5, 479360, Note_on_c, 0, 49, 49
5, 479520, Note_on_c, 0, 49, 0
5, 479520, Note_on_c, 0, 56, 49
5, 479520, Note_on_c, 0, 63, 49
5, 479679, Note_on_c, 0, 63, 0
5, 479679, Note_on_c, 0, 56, 0
5, 479679, Note_on_c, 0, 63, 49
5, 479840, Note_on_c, 0, 63, 0
5, 479840, Note_on_c, 0, 62, 49
5, 480000, Note_on_c, 0, 62, 0
5, 480000, Note_on_c, 0, 61, 49
5, 480159, Note_on_c, 0, 61, 0
5, 480159, Note_on_c, 0, 60, 49
5, 480320, Note_on_c, 0, 60, 0
5, 480320, Control_c, 0, 64, 0
5, 480320, Note_on_c, 0, 61, 49
5, 480480, Note_on_c, 0, 61, 0
5, 480480, Control_c, 0, 64, 127
5, 480480, Note_on_c, 0, 44, 49
5, 480480, Note_on_c, 0, 51, 49
5, 480639, Note_on_c, 0, 51, 0
5, 480639, Note_on_c, 0, 44, 0
5, 480639, Note_on_c, 0, 53, 49
5, 480800, Note_on_c, 0, 53, 0
5, 480800, Note_on_c, 0, 55, 49
5, 480960, Note_on_c, 0, 55, 0
5, 480960, Note_on_c, 0, 56, 49
5, 481119, Note_on_c, 0, 56, 0
5, 481119, Note_on_c, 0, 58, 49
5, 481280, Note_on_c, 0, 58, 0
5, 481280, Note_on_c, 0, 60, 49
5, 481440, Note_on_c, 0, 60, 0
5, 481440, Note_on_c, 0, 56, 49
5, 481440, Note_on_c, 0, 63, 49
5, 481599, Note_on_c, 0, 63, 0
5, 481599, Note_on_c, 0, 56, 0
5, 481599, Note_on_c, 0, 65, 49
5, 481760, Note_on_c, 0, 65, 0
5, 481760, Note_on_c, 0, 67, 49
5, 481920, Note_on_c, 0, 67, 0
5, 481920, Note_on_c, 0, 68, 49
5, 482079, Note_on_c, 0, 68, 0
5, 482079, Note_on_c, 0, 70, 49
5, 482240, Note_on_c, 0, 70, 0
5, 482240, Control_c, 0, 64, 0
5, 482240, Note_on_c, 0, 72, 49
5, 482400, Note_on_c, 0, 72, 0
5, 482400, Note_on_c, 0, 56, 49
5, 482400, Note_on_c, 0, 61, 49
5, 482400, Note_on_c, 0, 63, 49
5, 482400, Note_on_c, 0, 70, 49
5, 484320, Note_on_c, 0, 70, 0
5, 484320, Note_on_c, 0, 56, 0
5, 484320, Note_on_c, 0, 61, 0
5, 484320, Note_on_c, 0, 63, 0
5, 484320, Note_on_c, 0, 56, 49
5, 484320, Note_on_c, 0, 60, 49
5, 484320, Note_on_c, 0, 63, 49
5, 484320, Note_on_c, 0, 68, 49
5, 486240, Note_on_c, 0, 68, 0
5, 486240, Note_on_c, 0, 56, 0
5, 486240, Note_on_c, 0, 60, 0
5, 486240, Note_on_c, 0, 63, 0
5, 486240, Note_on_c, 0, 56, 49
5, 486240, Note_on_c, 0, 58, 49
5, 486240, Note_on_c, 0, 63, 49
5, 486240, Note_on_c, 0, 67, 49
5, 488160, Note_on_c, 0, 67, 0
5, 488160, Note_on_c, 0, 56, 0
5, 488160, Note_on_c, 0, 58, 0
5, 488160, Note_on_c, 0, 63, 0
5, 488160, Note_on_c, 0, 56, 49
5, 488160, Note_on_c, 0, 60, 49
5, 488160, Note_on_c, 0, 63, 49
5, 488160, Note_on_c, 0, 68, 49
5, 490080, Note_on_c, 0, 68, 0
5, 490080, Note_on_c, 0, 56, 0
5, 490080, Note_on_c, 0, 60, 0
5, 490080, Note_on_c, 0, 63, 0
5, 490080, Note_on_c, 0, 56, 49
5, 490080, Note_on_c, 0, 61, 49
5, 490080, Note_on_c, 0, 63, 49
5, 490080, Note_on_c, 0, 70, 49
5, 492000, Note_on_c, 0, 70, 0
5, 492000, Note_on_c, 0, 56, 0
5, 492000, Note_on_c, 0, 61, 0
5, 492000, Note_on_c, 0, 63, 0
5, 492000, Note_on_c, 0, 56, 49
5, 492000, Note_on_c, 0, 60, 49
5, 492000, Note_on_c, 0, 63, 49
5, 492000, Note_on_c, 0, 68, 49
5, 493920, Note_on_c, 0, 68, 0
5, 493920, Note_on_c, 0, 56, 0
5, 493920, Note_on_c, 0, 60, 0
5, 493920, Note_on_c, 0, 63, 0
5, 493920, Note_on_c, 0, 56, 49
5, 493920, Note_on_c, 0, 59, 49
5, 493920, Note_on_c, 0, 62, 49
5, 493920, Note_on_c, 0, 64, 49
5, 493920, Note_on_c, 0, 68, 49
5, 495360, Note_on_c, 0, 68, 0
5, 495360, Note_on_c, 0, 62, 0
5, 495360, Note_on_c, 0, 56, 0
5, 495360, Note_on_c, 0, 59, 0
5, 495360, Note_on_c, 0, 64, 0
5, 495840, Note_on_c, 0, 44, 49
5, 495840, Note_on_c, 0, 51, 49
5, 495840, Note_on_c, 0, 56, 49
5, 495840, Note_on_c, 0, 60, 49
5, 497280, Note_on_c, 0, 60, 0
5, 497280, Note_on_c, 0, 44, 0
5, 497280, Note_on_c, 0, 51, 0
5, 497280, Note_on_c, 0, 56, 0
5, 497760, Note_on_c, 0, 56, 49
5, 497760, Note_on_c, 0, 59, 49
5, 497760, Note_on_c, 0, 62, 49
5, 497760, Note_on_c, 0, 64, 49
5, 497760, Note_on_c, 0, 68, 49
5, 499200, Note_on_c, 0, 68, 0
5, 499200, Note_on_c, 0, 62, 0
5, 499200, Note_on_c, 0, 56, 0
5, 499200, Note_on_c, 0, 59, 0
5, 499200, Note_on_c, 0, 64, 0
5, 499680, Note_on_c, 0, 44, 49
5, 499680, Note_on_c, 0, 51, 49
5, 499680, Note_on_c, 0, 56, 49
5, 499680, Note_on_c, 0, 60, 49
5, 501120, Note_on_c, 0, 60, 0
5, 501120, Note_on_c, 0, 44, 0
5, 501120, Note_on_c, 0, 51, 0
5, 501120, Note_on_c, 0, 56, 0
5, 501600, Note_on_c, 0, 68, 49
5, 501600, Note_on_c, 0, 72, 49
5, 501600, Note_on_c, 0, 75, 49
5, 502080, Note_on_c, 0, 75, 0
5, 502080, Note_on_c, 0, 72, 0
5, 502080, Note_on_c, 0, 68, 0
5, 502560, Note_on_c, 0, 44, 49
5, 502560, Note_on_c, 0, 51, 49
5, 503040, Note_on_c, 0, 51, 0
5, 503040, Note_on_c, 0, 44, 0
5, 503520, Note_on_c, 0, 68, 49
5, 503520, Note_on_c, 0, 72, 49
5, 503520, Note_on_c, 0, 75, 49
5, 504000, Note_on_c, 0, 75, 0
5, 504000, Note_on_c, 0, 72, 0
5, 504000, Note_on_c, 0, 68, 0
5, 504480, Note_on_c, 0, 44, 49
5, 504480, Note_on_c, 0, 51, 49
5, 504960, Note_on_c, 0, 51, 0
5, 504960, Note_on_c, 0, 44, 0
5, 505350, Note_on_c, 0, 44, 49
5, 505380, Note_on_c, 0, 51, 49
5, 505410, Note_on_c, 0, 56, 49
5, 505440, Control_c, 0, 64, 127
5, 505440, Note_on_c, 0, 60, 49
5, 507360, Note_on_c, 0, 60, 0
5, 507360, Note_on_c, 0, 44, 0
5, 507360, Note_on_c, 0, 51, 0
5, 507360, Note_on_c, 0, 56, 0
5, 510720, Control_c, 0, 64, 0
5, 515520, Note_on_c, 0, 42, 49
5, 515520, Note_on_c, 0, 44, 49
5, 515520, Note_on_c, 0, 54, 49
5, 517440, Note_on_c, 0, 54, 0
5, 517440, Note_on_c, 0, 44, 0
5, 517440, Note_on_c, 0, 42, 0
5, 517440, Note_on_c, 0, 41, 49
5, 517440, Note_on_c, 0, 45, 49
5, 517440, Note_on_c, 0, 53, 49
5, 518880, Note_on_c, 0, 53, 0
5, 518880, Note_on_c, 0, 45, 0
5, 518880, Note_on_c, 0, 41, 0
5, 518880, Note_on_c, 0, 53, 49
5, 518880, Note_on_c, 0, 57, 49
5, 519360, Note_on_c, 0, 57, 0
5, 519360, Note_on_c, 0, 53, 0
5, 519360, Note_on_c, 0, 55, 49
5, 519360, Note_on_c, 0, 58, 49
5, 519840, Note_on_c, 0, 58, 0
5, 519840, Note_on_c, 0, 55, 0
5, 519840, Note_on_c, 0, 57, 49
5, 519840, Note_on_c, 0, 60, 49
5, 520320, Note_on_c, 0, 60, 0
5, 520320, Note_on_c, 0, 57, 0
5, 520320, Note_on_c, 0, 58, 49
5, 520320, Note_on_c, 0, 61, 49
5, 520800, Note_on_c, 0, 61, 0
5, 520800, Note_on_c, 0, 58, 0
5, 520800, Note_on_c, 0, 61, 49
5, 520800, Note_on_c, 0, 65, 49
5, 521280, Note_on_c, 0, 65, 0
5, 521280, Note_on_c, 0, 61, 0
5, 521280, Note_on_c, 0, 63, 49
5, 521280, Note_on_c, 0, 66, 49
5, 521760, Note_on_c, 0, 66, 0
5, 521760, Note_on_c, 0, 63, 0
5, 521760, Note_on_c, 0, 60, 49
5, 521760, Note_on_c, 0, 63, 49
5, 522240, Note_on_c, 0, 63, 0
5, 522240, Note_on_c, 0, 60, 0
5, 522240, Note_on_c, 0, 61, 49
5, 522240, Note_on_c, 0, 65, 49
5, 522720, Note_on_c, 0, 65, 0
5, 522720, Note_on_c, 0, 61, 0
5, 523200, Note_on_c, 0, 44, 49
5, 523200, Note_on_c, 0, 46, 49
5, 523200, Note_on_c, 0, 56, 49
5, 525120, Note_on_c, 0, 56, 0
5, 525120, Note_on_c, 0, 46, 0
5, 525120, Note_on_c, 0, 44, 0
5, 525120, Note_on_c, 0, 43, 49
5, 525120, Note_on_c, 0, 47, 49
5, 525120, Note_on_c, 0, 55, 49
5, 526560, Note_on_c, 0, 55, 0
5, 526560, Note_on_c, 0, 47, 0
5, 526560, Note_on_c, 0, 43, 0
5, 526560, Note_on_c, 0, 55, 49
5, 526560, Note_on_c, 0, 59, 49
5, 527040, Note_on_c, 0, 59, 0
5, 527040, Note_on_c, 0, 55, 0
5, 527040, Note_on_c, 0, 57, 49
5, 527040, Note_on_c, 0, 60, 49
5, 527520, Note_on_c, 0, 60, 0
5, 527520, Note_on_c, 0, 57, 0
5, 527520, Note_on_c, 0, 59, 49
5, 527520, Note_on_c, 0, 62, 49
5, 528000, Note_on_c, 0, 62, 0
5, 528000, Note_on_c, 0, 59, 0
5, 528000, Note_on_c, 0, 60, 49
5, 528000, Note_on_c, 0, 63, 49
5, 528480, Note_on_c, 0, 63, 0
5, 528480, Note_on_c, 0, 60, 0
5, 528480, Note_on_c, 0, 63, 49
5, 528480, Note_on_c, 0, 67, 49
5, 528960, Note_on_c, 0, 67, 0
5, 528960, Note_on_c, 0, 63, 0
5, 528960, Note_on_c, 0, 65, 49
5, 528960, Note_on_c, 0, 68, 49
5, 529440, Note_on_c, 0, 68, 0
5, 529440, Note_on_c, 0, 65, 0
5, 529440, Note_on_c, 0, 62, 49
5, 529440, Note_on_c, 0, 65, 49
5, 529920, Note_on_c, 0, 65, 0
5, 529920, Note_on_c, 0, 62, 0
5, 529920, Note_on_c, 0, 63, 49
5, 529920, Note_on_c, 0, 67, 49
5, 530400, Note_on_c, 0, 67, 0
5, 530400, Note_on_c, 0, 63, 0
5, 530880, Note_on_c, 0, 44, 62
5, 530880, Note_on_c, 0, 48, 62
5, 530880, Note_on_c, 0, 54, 62
5, 530880, Note_on_c, 0, 66, 62
5, 531840, Note_on_c, 0, 66, 0
5, 531840, Note_on_c, 0, 44, 0
5, 531840, Note_on_c, 0, 48, 0
5, 531840, Note_on_c, 0, 54, 0
5, 531840, Note_on_c, 0, 43, 62
5, 531840, Note_on_c, 0, 50, 62
5, 531840, Note_on_c, 0, 55, 62
5, 532320, Note_on_c, 0, 55, 0
5, 532320, Note_on_c, 0, 50, 0
5, 532320, Note_on_c, 0, 43, 0
5, 532320, Note_on_c, 0, 55, 62
5, 532560, Note_on_c, 0, 55, 0
5, 532560, Note_on_c, 0, 57, 62
5, 532800, Note_on_c, 0, 57, 0
5, 532800, Note_on_c, 0, 59, 62
5, 533040, Note_on_c, 0, 59, 0
5, 533040, Note_on_c, 0, 60, 62
5, 533280, Note_on_c, 0, 60, 0
5, 533280, Note_on_c, 0, 59, 62
5, 533520, Note_on_c, 0, 59, 0
5, 533520, Note_on_c, 0, 60, 62
5, 533760, Note_on_c, 0, 60, 0
5, 533760, Note_on_c, 0, 62, 62
5, 534000, Note_on_c, 0, 62, 0
5, 534000, Note_on_c, 0, 63, 62
5, 534240, Note_on_c, 0, 63, 0
5, 534720, Note_on_c, 0, 46, 62
5, 534720, Note_on_c, 0, 50, 62
5, 534720, Note_on_c, 0, 58, 62
5, 534720, Note_on_c, 0, 68, 62
5, 535680, Note_on_c, 0, 68, 0
5, 535680, Note_on_c, 0, 46, 0
5, 535680, Note_on_c, 0, 50, 0
5, 535680, Note_on_c, 0, 58, 0
5, 535680, Note_on_c, 0, 45, 62
5, 535680, Note_on_c, 0, 52, 62
5, 535680, Note_on_c, 0, 57, 62
5, 536160, Note_on_c, 0, 57, 0
5, 536160, Note_on_c, 0, 52, 0
5, 536160, Note_on_c, 0, 45, 0
5, 536160, Note_on_c, 0, 57, 62
5, 536400, Note_on_c, 0, 57, 0
5, 536400, Note_on_c, 0, 59, 62
5, 536640, Note_on_c, 0, 59, 0
5, 536640, Note_on_c, 0, 61, 62
5, 536880, Note_on_c, 0, 61, 0
5, 536880, Note_on_c, 0, 62, 62
5, 537120, Note_on_c, 0, 62, 0
5, 537120, Note_on_c, 0, 61, 62
5, 537360, Note_on_c, 0, 61, 0
5, 537360, Note_on_c, 0, 62, 62
5, 537600, Note_on_c, 0, 62, 0
5, 537600, Note_on_c, 0, 64, 62
5, 537840, Note_on_c, 0, 64, 0
5, 537840, Note_on_c, 0, 65, 62
5, 538080, Note_on_c, 0, 65, 0
5, 538560, Note_on_c, 0, 48, 62
5, 538560, Note_on_c, 0, 50, 62
5, 538560, Note_on_c, 0, 60, 62
5, 539520, Note_on_c, 0, 60, 0
5, 539520, Note_on_c, 0, 48, 0
5, 539520, Note_on_c, 0, 47, 62
5, 539520, Note_on_c, 0, 59, 62
5, 540480, Note_on_c, 0, 59, 0
5, 540480, Note_on_c, 0, 47, 0
5, 540480, Note_on_c, 0, 50, 0
5, 540480, Note_on_c, 0, 50, 62
5, 540480, Note_on_c, 0, 52, 62
5, 540480, Note_on_c, 0, 62, 62
5, 541440, Note_on_c, 0, 62, 0
5, 541440, Note_on_c, 0, 52, 0
5, 541440, Note_on_c, 0, 50, 0
5, 541440, Note_on_c, 0, 48, 62
5, 541440, Note_on_c, 0, 60, 62
5, 541920, Note_on_c, 0, 60, 0
5, 541920, Note_on_c, 0, 48, 0
5, 542400, Note_on_c, 0, 57, 88
5, 542400, Note_on_c, 0, 60, 88
5, 542400, Note_on_c, 0, 69, 88
5, 544320, Note_on_c, 0, 69, 0
5, 544320, Note_on_c, 0, 60, 0
5, 544320, Note_on_c, 0, 57, 0
5, 544320, Note_on_c, 0, 69, 88
5, 544320, Note_on_c, 0, 72, 88
5, 544320, Note_on_c, 0, 81, 88
5, 545760, Note_on_c, 0, 81, 0
5, 545760, Note_on_c, 0, 72, 0
5, 545760, Note_on_c, 0, 69, 0
5, 546240, Note_on_c, 0, 50, 62
5, 546240, Note_on_c, 0, 52, 62
5, 546240, Note_on_c, 0, 62, 62
5, 547200, Note_on_c, 0, 62, 0
5, 547200, Note_on_c, 0, 50, 0
5, 547200, Note_on_c, 0, 48, 62
5, 547200, Note_on_c, 0, 60, 62
5, 548160, Note_on_c, 0, 60, 0
5, 548160, Note_on_c, 0, 48, 0
5, 548160, Note_on_c, 0, 52, 0
5, 548160, Note_on_c, 0, 52, 62
5, 548160, Note_on_c, 0, 54, 62
5, 548160, Note_on_c, 0, 64, 62
5, 549120, Note_on_c, 0, 64, 0
5, 549120, Note_on_c, 0, 54, 0
5, 549120, Note_on_c, 0, 52, 0
5, 549120, Note_on_c, 0, 50, 62
5, 549120, Note_on_c, 0, 62, 62
5, 549600, Note_on_c, 0, 62, 0
5, 549600, Note_on_c, 0, 50, 0
5, 550080, Note_on_c, 0, 59, 88
5, 550080, Note_on_c, 0, 62, 88
5, 550080, Note_on_c, 0, 71, 88
5, 552000, Note_on_c, 0, 71, 0
5, 552000, Note_on_c, 0, 62, 0
5, 552000, Note_on_c, 0, 59, 0
5, 552000, Note_on_c, 0, 71, 88
5, 552000, Note_on_c, 0, 74, 88
5, 552000, Note_on_c, 0, 83, 88
5, 553440, Note_on_c, 0, 83, 0
5, 553440, Note_on_c, 0, 74, 0
5, 553440, Note_on_c, 0, 71, 0
5, 553440, Note_on_c, 0, 59, 101
5, 553920, Note_on_c, 0, 59, 0
5, 553920, Note_on_c, 0, 57, 101
5, 553920, Note_on_c, 0, 59, 101
5, 553920, Note_on_c, 0, 62, 101
5, 554400, Note_on_c, 0, 62, 0
5, 554400, Note_on_c, 0, 63, 101
5, 554880, Note_on_c, 0, 63, 0
5, 554880, Note_on_c, 0, 59, 0
5, 554880, Note_on_c, 0, 59, 101
5, 555360, Note_on_c, 0, 61, 101
5, 555840, Note_on_c, 0, 61, 0
5, 555840, Note_on_c, 0, 59, 0
5, 555840, Note_on_c, 0, 57, 0
5, 555840, Note_on_c, 0, 55, 101
5, 555840, Note_on_c, 0, 59, 101
5, 555840, Note_on_c, 0, 63, 101
5, 556320, Note_on_c, 0, 63, 0
5, 556320, Note_on_c, 0, 64, 101
5, 556800, Note_on_c, 0, 64, 0
5, 556800, Note_on_c, 0, 59, 0
5, 556800, Note_on_c, 0, 59, 101
5, 557280, Note_on_c, 0, 59, 0
5, 557280, Note_on_c, 0, 55, 0
5, 557280, Note_on_c, 0, 48, 75
5, 557520, Note_on_c, 0, 48, 0
5, 557520, Note_on_c, 0, 47, 75
5, 557760, Note_on_c, 0, 47, 0
5, 557760, Note_on_c, 0, 46, 75
5, 558000, Note_on_c, 0, 46, 0
5, 558000, Note_on_c, 0, 45, 75
5, 558240, Note_on_c, 0, 45, 0
5, 558240, Note_on_c, 0, 43, 75
5, 558480, Note_on_c, 0, 43, 0
5, 558480, Note_on_c, 0, 45, 75
5, 558720, Note_on_c, 0, 45, 0
5, 558720, Note_on_c, 0, 46, 75
5, 558960, Note_on_c, 0, 46, 0
5, 558960, Note_on_c, 0, 47, 75
5, 559200, Note_on_c, 0, 47, 0
5, 559200, Note_on_c, 0, 41, 75
5, 559440, Note_on_c, 0, 41, 0
5, 559440, Note_on_c, 0, 42, 75
5, 559680, Note_on_c, 0, 42, 0
5, 559680, Note_on_c, 0, 43, 75
5, 559920, Note_on_c, 0, 43, 0
5, 559920, Note_on_c, 0, 44, 75
5, 560160, Note_on_c, 0, 44, 0
5, 560160, Note_on_c, 0, 46, 75
5, 560400, Note_on_c, 0, 46, 0
5, 560400, Note_on_c, 0, 47, 75
5, 560640, Note_on_c, 0, 47, 0
5, 560640, Note_on_c, 0, 44, 75
5, 560880, Note_on_c, 0, 44, 0
5, 560880, Note_on_c, 0, 46, 75
5, 561120, Note_on_c, 0, 46, 0
5, 561120, Note_on_c, 0, 57, 101
5, 561600, Note_on_c, 0, 57, 0
5, 561600, Note_on_c, 0, 55, 101
5, 561600, Note_on_c, 0, 57, 101
5, 561600, Note_on_c, 0, 60, 101
5, 562080, Note_on_c, 0, 60, 0
5, 562080, Note_on_c, 0, 61, 101
5, 562560, Note_on_c, 0, 61, 0
5, 562560, Note_on_c, 0, 57, 0
5, 562560, Note_on_c, 0, 57, 101
5, 563040, Note_on_c, 0, 59, 101
5, 563520, Note_on_c, 0, 59, 0
5, 563520, Note_on_c, 0, 57, 0
5, 563520, Note_on_c, 0, 55, 0
5, 563520, Note_on_c, 0, 53, 101
5, 563520, Note_on_c, 0, 57, 101
5, 563520, Note_on_c, 0, 61, 101
5, 564000, Note_on_c, 0, 61, 0
5, 564000, Note_on_c, 0, 62, 101
5, 564480, Note_on_c, 0, 62, 0
5, 564480, Note_on_c, 0, 57, 0
5, 564480, Note_on_c, 0, 57, 101
5, 564960, Note_on_c, 0, 57, 0
5, 564960, Note_on_c, 0, 53, 0
5, 564960, Note_on_c, 0, 50, 75
5, 565200, Note_on_c, 0, 50, 0
5, 565200, Note_on_c, 0, 48, 75
5, 565440, Note_on_c, 0, 48, 0
5, 565440, Note_on_c, 0, 47, 75
5, 565680, Note_on_c, 0, 47, 0
5, 565680, Note_on_c, 0, 46, 75
5, 565920, Note_on_c, 0, 46, 0
5, 565920, Note_on_c, 0, 45, 75
5, 566160, Note_on_c, 0, 45, 0
5, 566160, Note_on_c, 0, 46, 75
5, 566400, Note_on_c, 0, 46, 0
5, 566400, Note_on_c, 0, 47, 75
5, 566640, Note_on_c, 0, 47, 0
5, 566640, Note_on_c, 0, 48, 75
5, 566880, Note_on_c, 0, 48, 0
5, 566880, Note_on_c, 0, 43, 75
5, 567120, Note_on_c, 0, 43, 0
5, 567120, Note_on_c, 0, 44, 75
5, 567360, Note_on_c, 0, 44, 0
5, 567360, Note_on_c, 0, 45, 75
5, 567600, Note_on_c, 0, 45, 0
5, 567600, Note_on_c, 0, 46, 75
5, 567840, Note_on_c, 0, 46, 0
5, 567840, Note_on_c, 0, 47, 75
5, 568080, Note_on_c, 0, 47, 0
5, 568080, Note_on_c, 0, 48, 75
5, 568320, Note_on_c, 0, 48, 0
5, 568320, Note_on_c, 0, 46, 75
5, 568560, Note_on_c, 0, 46, 0
5, 568560, Note_on_c, 0, 47, 75
5, 568800, Note_on_c, 0, 47, 0
5, 569280, Note_on_c, 0, 53, 75
5, 569280, Note_on_c, 0, 55, 75
5, 569280, Note_on_c, 0, 65, 75
5, 570240, Note_on_c, 0, 65, 0
5, 570240, Note_on_c, 0, 55, 0
5, 570240, Note_on_c, 0, 53, 0
5, 570240, Note_on_c, 0, 51, 75
5, 570240, Note_on_c, 0, 55, 75
5, 570240, Note_on_c, 0, 63, 75
5, 571200, Note_on_c, 0, 63, 0
5, 571200, Note_on_c, 0, 55, 0
5, 571200, Note_on_c, 0, 51, 0
5, 571200, Note_on_c, 0, 50, 88
5, 571200, Note_on_c, 0, 55, 88
5, 571200, Note_on_c, 0, 62, 88
5, 571680, Note_on_c, 0, 62, 0
5, 571680, Note_on_c, 0, 55, 0
5, 571680, Note_on_c, 0, 50, 0
5, 571680, Note_on_c, 0, 48, 88
5, 571680, Note_on_c, 0, 55, 88
5, 571680, Note_on_c, 0, 60, 88
5, 572160, Note_on_c, 0, 60, 0
5, 572160, Note_on_c, 0, 55, 0
5, 572160, Note_on_c, 0, 48, 0
5, 572160, Note_on_c, 0, 47, 88
5, 572160, Note_on_c, 0, 55, 88
5, 572160, Note_on_c, 0, 59, 88
5, 572640, Note_on_c, 0, 59, 0
5, 572640, Note_on_c, 0, 55, 0
5, 572640, Note_on_c, 0, 47, 0
5, 573120, Note_on_c, 0, 53, 88
5, 573120, Note_on_c, 0, 55, 88
5, 573120, Note_on_c, 0, 65, 88
5, 574080, Note_on_c, 0, 65, 0
5, 574080, Note_on_c, 0, 55, 0
5, 574080, Note_on_c, 0, 53, 0
5, 574080, Note_on_c, 0, 51, 88
5, 574080, Note_on_c, 0, 55, 88
5, 574080, Note_on_c, 0, 63, 88
5, 575040, Note_on_c, 0, 63, 0
5, 575040, Note_on_c, 0, 55, 0
5, 575040, Note_on_c, 0, 51, 0
5, 575040, Note_on_c, 0, 50, 88
5, 575040, Note_on_c, 0, 55, 88
5, 575040, Note_on_c, 0, 62, 88
5, 575520, Note_on_c, 0, 62, 0
5, 575520, Note_on_c, 0, 55, 0
5, 575520, Note_on_c, 0, 50, 0
5, 575520, Note_on_c, 0, 48, 88
5, 575520, Note_on_c, 0, 55, 88
5, 575520, Note_on_c, 0, 60, 88
5, 576000, Note_on_c, 0, 60, 0
5, 576000, Note_on_c, 0, 55, 0
5, 576000, Note_on_c, 0, 48, 0
5, 576000, Note_on_c, 0, 47, 88
5, 576000, Note_on_c, 0, 55, 88
5, 576000, Note_on_c, 0, 59, 88
5, 576480, Note_on_c, 0, 59, 0
5, 576480, Note_on_c, 0, 55, 0
5, 576480, Note_on_c, 0, 47, 0
5, 576960, Note_on_c, 0, 46, 88
5, 576960, Note_on_c, 0, 48, 88
5, 576960, Note_on_c, 0, 58, 88
5, 577920, Note_on_c, 0, 58, 0
5, 577920, Note_on_c, 0, 48, 0
5, 577920, Note_on_c, 0, 46, 0
5, 577920, Note_on_c, 0, 44, 88
5, 577920, Note_on_c, 0, 48, 88
5, 577920, Note_on_c, 0, 56, 88
5, 578880, Note_on_c, 0, 56, 0
5, 578880, Note_on_c, 0, 48, 0
5, 578880, Note_on_c, 0, 44, 0
5, 578880, Note_on_c, 0, 43, 88
5, 578880, Note_on_c, 0, 48, 88
5, 578880, Note_on_c, 0, 55, 88
5, 579360, Note_on_c, 0, 55, 0
5, 579360, Note_on_c, 0, 48, 0
5, 579360, Note_on_c, 0, 43, 0
5, 579360, Note_on_c, 0, 41, 88
5, 579360, Note_on_c, 0, 48, 88
5, 579360, Note_on_c, 0, 53, 88
5, 579840, Note_on_c, 0, 53, 0
5, 579840, Note_on_c, 0, 48, 0
5, 579840, Note_on_c, 0, 41, 0
5, 579840, Note_on_c, 0, 40, 88
5, 579840, Note_on_c, 0, 48, 88
5, 579840, Note_on_c, 0, 52, 88
5, 580320, Note_on_c, 0, 52, 0
5, 580320, Note_on_c, 0, 48, 0
5, 580320, Note_on_c, 0, 40, 0
5, 580800, Note_on_c, 0, 46, 88
5, 580800, Note_on_c, 0, 48, 88
5, 580800, Note_on_c, 0, 58, 88
5, 581760, Note_on_c, 0, 58, 0
5, 581760, Note_on_c, 0, 48, 0
5, 581760, Note_on_c, 0, 46, 0
5, 581760, Note_on_c, 0, 44, 88
5, 581760, Note_on_c, 0, 48, 88
5, 581760, Note_on_c, 0, 56, 88
5, 582720, Note_on_c, 0, 56, 0
5, 582720, Note_on_c, 0, 48, 0
5, 582720, Note_on_c, 0, 44, 0
5, 582720, Note_on_c, 0, 43, 88
5, 582720, Note_on_c, 0, 48, 88
5, 582720, Note_on_c, 0, 55, 88
5, 583200, Note_on_c, 0, 55, 0
5, 583200, Note_on_c, 0, 48, 0
5, 583200, Note_on_c, 0, 43, 0
5, 583200, Note_on_c, 0, 41, 88
5, 583200, Note_on_c, 0, 48, 88
5, 583200, Note_on_c, 0, 53, 88
5, 583680, Note_on_c, 0, 53, 0
5, 583680, Note_on_c, 0, 48, 0
5, 583680, Note_on_c, 0, 41, 0
5, 583680, Note_on_c, 0, 40, 88
5, 583680, Note_on_c, 0, 48, 88
5, 583680, Note_on_c, 0, 52, 88
5, 584160, Note_on_c, 0, 52, 0
5, 584160, Note_on_c, 0, 48, 0
5, 584160, Note_on_c, 0, 40, 0
5, 584640, Note_on_c, 0, 41, 88
5, 584640, Note_on_c, 0, 53, 88
5, 585120, Note_on_c, 0, 53, 0
5, 585120, Note_on_c, 0, 41, 0
5, 585120, Note_on_c, 0, 36, 88
5, 585120, Note_on_c, 0, 48, 88
5, 585600, Note_on_c, 0, 48, 0
5, 585600, Note_on_c, 0, 36, 0
5, 585600, Note_on_c, 0, 41, 88
5, 585600, Note_on_c, 0, 53, 88
5, 586080, Note_on_c, 0, 53, 0
5, 586080, Note_on_c, 0, 41, 0
5, 586080, Note_on_c, 0, 36, 88
5, 586080, Note_on_c, 0, 48, 88
5, 586560, Note_on_c, 0, 48, 0
5, 586560, Note_on_c, 0, 36, 0
5, 586560, Note_on_c, 0, 44, 88
5, 586560, Note_on_c, 0, 56, 88
5, 587040, Note_on_c, 0, 56, 0
5, 587040, Note_on_c, 0, 44, 0
5, 587040, Note_on_c, 0, 41, 88
5, 587040, Note_on_c, 0, 53, 88
5, 587520, Note_on_c, 0, 53, 0
5, 587520, Note_on_c, 0, 41, 0
5, 587520, Note_on_c, 0, 49, 88
5, 587520, Note_on_c, 0, 61, 88
5, 588000, Note_on_c, 0, 61, 0
5, 588000, Note_on_c, 0, 49, 0
5, 588480, Note_on_c, 0, 48, 88
5, 588480, Note_on_c, 0, 53, 88
5, 588480, Note_on_c, 0, 56, 88
5, 588480, Note_on_c, 0, 60, 88
5, 590400, Note_on_c, 0, 60, 0
5, 590400, Note_on_c, 0, 48, 0
5, 590400, Note_on_c, 0, 53, 0
5, 590400, Note_on_c, 0, 56, 0
5, 590400, Note_on_c, 0, 47, 88
5, 590400, Note_on_c, 0, 53, 88
5, 590400, Note_on_c, 0, 56, 88
5, 590400, Note_on_c, 0, 62, 88
5, 591360, Note_on_c, 0, 62, 0
5, 591360, Note_on_c, 0, 47, 0
5, 591360, Note_on_c, 0, 53, 0
5, 591360, Note_on_c, 0, 56, 0
5, 591840, Note_on_c, 0, 36, 88
5, 591840, Note_on_c, 0, 48, 88
5, 592320, Note_on_c, 0, 48, 0
5, 592320, Note_on_c, 0, 36, 0
5, 592320, Note_on_c, 0, 41, 88
5, 592320, Note_on_c, 0, 53, 88
5, 592800, Note_on_c, 0, 53, 0
5, 592800, Note_on_c, 0, 41, 0
5, 592800, Note_on_c, 0, 36, 88
5, 592800, Note_on_c, 0, 48, 88
5, 593280, Note_on_c, 0, 48, 0
5, 593280, Note_on_c, 0, 36, 0
5, 593280, Note_on_c, 0, 41, 88
5, 593280, Note_on_c, 0, 53, 88
5, 593760, Note_on_c, 0, 53, 0
5, 593760, Note_on_c, 0, 41, 0
5, 593760, Note_on_c, 0, 36, 88
5, 593760, Note_on_c, 0, 48, 88
5, 594240, Note_on_c, 0, 48, 0
5, 594240, Note_on_c, 0, 36, 0
5, 594240, Note_on_c, 0, 44, 88
5, 594240, Note_on_c, 0, 56, 88
5, 594720, Note_on_c, 0, 56, 0
5, 594720, Note_on_c, 0, 44, 0
5, 594720, Note_on_c, 0, 41, 88
5, 594720, Note_on_c, 0, 53, 88
5, 595200, Note_on_c, 0, 53, 0
5, 595200, Note_on_c, 0, 41, 0
5, 595200, Note_on_c, 0, 49, 88
5, 595200, Note_on_c, 0, 61, 88
5, 595680, Note_on_c, 0, 61, 0
5, 595680, Note_on_c, 0, 49, 0
5, 596160, Note_on_c, 0, 48, 88
5, 596160, Note_on_c, 0, 53, 88
5, 596160, Note_on_c, 0, 56, 88
5, 596160, Note_on_c, 0, 60, 88
5, 598080, Note_on_c, 0, 60, 0
5, 598080, Note_on_c, 0, 48, 0
5, 598080, Note_on_c, 0, 53, 0
5, 598080, Note_on_c, 0, 56, 0
5, 598080, Note_on_c, 0, 47, 88
5, 598080, Note_on_c, 0, 53, 88
5, 598080, Note_on_c, 0, 56, 88
5, 598080, Note_on_c, 0, 62, 88
5, 600000, Note_on_c, 0, 62, 0
5, 600000, Note_on_c, 0, 47, 0
5, 600000, Note_on_c, 0, 53, 0
5, 600000, Note_on_c, 0, 56, 0
5, 600000, Note_on_c, 0, 46, 88
5, 600000, Note_on_c, 0, 53, 88
5, 600000, Note_on_c, 0, 56, 88
5, 600000, Note_on_c, 0, 62, 88
5, 601920, Note_on_c, 0, 62, 0
5, 601920, Note_on_c, 0, 46, 0
5, 601920, Note_on_c, 0, 53, 0
5, 601920, Note_on_c, 0, 56, 0
5, 603750, Note_on_c, 0, 45, 88
5, 603780, Note_on_c, 0, 53, 88
5, 603810, Note_on_c, 0, 57, 88
5, 603840, Note_on_c, 0, 62, 88
5, 604800, Note_on_c, 0, 62, 0
5, 604800, Note_on_c, 0, 45, 0
5, 604800, Note_on_c, 0, 53, 0
5, 604800, Note_on_c, 0, 57, 0
5, 607590, Note_on_c, 0, 45, 88
5, 607620, Note_on_c, 0, 53, 88
5, 607650, Note_on_c, 0, 57, 88
5, 607680, Note_on_c, 0, 62, 88
5, 608640, Note_on_c, 0, 62, 0
5, 608640, Note_on_c, 0, 45, 0
5, 608640, Note_on_c, 0, 53, 0
5, 608640, Note_on_c, 0, 57, 0
5, 611520, Note_on_c, 0, 44, 88
5, 611520, Note_on_c, 0, 50, 88
5, 611520, Note_on_c, 0, 53, 88
5, 611520, Note_on_c, 0, 58, 88
5, 612480, Note_on_c, 0, 58, 0
5, 612480, Note_on_c, 0, 44, 0
5, 612480, Note_on_c, 0, 50, 0
5, 612480, Note_on_c, 0, 53, 0
5, 612480, Note_on_c, 0, 58, 88
5, 612720, Note_on_c, 0, 58, 0
5, 612720, Note_on_c, 0, 56, 88
5, 612960, Note_on_c, 0, 56, 0
5, 612960, Note_on_c, 0, 55, 88
5, 613200, Note_on_c, 0, 55, 0
5, 613200, Note_on_c, 0, 53, 88
5, 613440, Note_on_c, 0, 53, 0
5, 613440, Note_on_c, 0, 55, 88
5, 613680, Note_on_c, 0, 55, 0
5, 613680, Note_on_c, 0, 53, 88
5, 613920, Note_on_c, 0, 53, 0
5, 613920, Note_on_c, 0, 51, 88
5, 614160, Note_on_c, 0, 51, 0
5, 614160, Note_on_c, 0, 50, 88
5, 614400, Note_on_c, 0, 50, 0
5, 614400, Note_on_c, 0, 51, 88
5, 614640, Note_on_c, 0, 51, 0
5, 614640, Note_on_c, 0, 50, 88
5, 614880, Note_on_c, 0, 50, 0
5, 614880, Note_on_c, 0, 48, 88
5, 615120, Note_on_c, 0, 48, 0
5, 615120, Note_on_c, 0, 46, 88
5, 615360, Note_on_c, 0, 46, 0
5, 615360, Note_on_c, 0, 55, 88
5, 615600, Note_on_c, 0, 55, 0
5, 615600, Note_on_c, 0, 53, 88
5, 615840, Note_on_c, 0, 53, 0
5, 615840, Note_on_c, 0, 51, 88
5, 616080, Note_on_c, 0, 51, 0
5, 616080, Note_on_c, 0, 50, 88
5, 616320, Note_on_c, 0, 50, 0
5, 616320, Note_on_c, 0, 51, 88
5, 616560, Note_on_c, 0, 51, 0
5, 616560, Note_on_c, 0, 50, 88
5, 616800, Note_on_c, 0, 50, 0
5, 616800, Note_on_c, 0, 48, 88
5, 617040, Note_on_c, 0, 48, 0
5, 617040, Note_on_c, 0, 46, 88
5, 617280, Note_on_c, 0, 46, 0
5, 617280, Note_on_c, 0, 55, 88
5, 617520, Note_on_c, 0, 55, 0
5, 617520, Note_on_c, 0, 53, 88
5, 617760, Note_on_c, 0, 53, 0
5, 617760, Note_on_c, 0, 51, 88
5, 618000, Note_on_c, 0, 51, 0
5, 618000, Note_on_c, 0, 50, 88
5, 618240, Note_on_c, 0, 50, 0
5, 618240, Note_on_c, 0, 51, 88
5, 618480, Note_on_c, 0, 51, 0
5, 618480, Note_on_c, 0, 50, 88
5, 618720, Note_on_c, 0, 50, 0
5, 618720, Note_on_c, 0, 48, 88
5, 618960, Note_on_c, 0, 48, 0
5, 618960, Note_on_c, 0, 46, 88
5, 619200, Note_on_c, 0, 46, 0
5, 619200, Control_c, 0, 64, 127
5, 619200, Note_on_c, 0, 43, 88
5, 619200, Note_on_c, 0, 46, 88
5, 619200, Note_on_c, 0, 51, 88
5, 619200, Note_on_c, 0, 55, 88
5, 619680, Note_on_c, 0, 55, 0
5, 619680, Note_on_c, 0, 43, 0
5, 619680, Note_on_c, 0, 46, 0
5, 619680, Note_on_c, 0, 51, 0
5, 620160, Control_c, 0, 64, 0
5, 693120, Note_on_c, 0, 62, 75
5, 693120, Note_on_c, 0, 67, 75
5, 693120, Note_on_c, 0, 70, 75
5, 694080, Note_on_c, 0, 70, 0
5, 694080, Note_on_c, 0, 67, 0
5, 694080, Note_on_c, 0, 62, 0
5, 695040, Note_on_c, 0, 62, 75
5, 695040, Note_on_c, 0, 67, 75
5, 695040, Note_on_c, 0, 70, 75
5, 696000, Note_on_c, 0, 70, 0
5, 696000, Note_on_c, 0, 67, 0
5, 696000, Note_on_c, 0, 62, 0
5, 696960, Note_on_c, 0, 61, 75
5, 696960, Note_on_c, 0, 67, 75
5, 696960, Note_on_c, 0, 70, 75
5, 697920, Note_on_c, 0, 70, 0
5, 697920, Note_on_c, 0, 67, 0
5, 697920, Note_on_c, 0, 61, 0
5, 698880, Note_on_c, 0, 61, 75
5, 698880, Note_on_c, 0, 67, 75
5, 698880, Note_on_c, 0, 70, 75
5, 699840, Note_on_c, 0, 70, 0
5, 699840, Note_on_c, 0, 67, 0
5, 699840, Note_on_c, 0, 61, 0
5, 699840, Control_c, 0, 64, 127
5, 699840, Note_on_c, 0, 35, 114
5, 699920, Note_on_c, 0, 35, 0
5, 699920, Note_on_c, 0, 47, 88
5, 699999, Note_on_c, 0, 47, 0
5, 699999, Note_on_c, 0, 35, 88
5, 700080, Note_on_c, 0, 35, 0
5, 700080, Note_on_c, 0, 47, 75
5, 700160, Note_on_c, 0, 47, 0
5, 700160, Note_on_c, 0, 35, 75
5, 700239, Note_on_c, 0, 35, 0
5, 700239, Note_on_c, 0, 47, 75
5, 700320, Note_on_c, 0, 47, 0
5, 700320, Note_on_c, 0, 35, 75
5, 700400, Note_on_c, 0, 35, 0
5, 700400, Note_on_c, 0, 47, 62
5, 700479, Note_on_c, 0, 47, 0
5, 700479, Note_on_c, 0, 35, 62
5, 700560, Note_on_c, 0, 35, 0
5, 700560, Note_on_c, 0, 47, 62
5, 700640, Note_on_c, 0, 47, 0
5, 700640, Note_on_c, 0, 35, 62
5, 700719, Note_on_c, 0, 35, 0
5, 700719, Note_on_c, 0, 47, 62
5, 700800, Note_on_c, 0, 47, 0
5, 700800, Note_on_c, 0, 35, 49
5, 700880, Note_on_c, 0, 35, 0
5, 700880, Note_on_c, 0, 47, 49
5, 700959, Note_on_c, 0, 47, 0
5, 700959, Note_on_c, 0, 35, 49
5, 701040, Note_on_c, 0, 35, 0
5, 701040, Note_on_c, 0, 47, 49
5, 701120, Note_on_c, 0, 47, 0
5, 701120, Note_on_c, 0, 35, 49
5, 701199, Note_on_c, 0, 35, 0
5, 701199, Note_on_c, 0, 47, 49
5, 701280, Note_on_c, 0, 47, 0
5, 701280, Note_on_c, 0, 35, 49
5, 701360, Note_on_c, 0, 35, 0
5, 701360, Note_on_c, 0, 47, 49
5, 701439, Note_on_c, 0, 47, 0
5, 701439, Note_on_c, 0, 35, 49
5, 701520, Note_on_c, 0, 35, 0
5, 701520, Note_on_c, 0, 47, 49
5, 701600, Note_on_c, 0, 47, 0
5, 701600, Note_on_c, 0, 35, 49
5, 701679, Note_on_c, 0, 35, 0
5, 701679, Control_c, 0, 64, 0
5, 701679, Note_on_c, 0, 47, 49
5, 701760, Note_on_c, 0, 47, 0
5, 701760, Control_c, 0, 64, 127
5, 701760, Note_on_c, 0, 35, 49
5, 701840, Note_on_c, 0, 35, 0
5, 701840, Note_on_c, 0, 47, 49
5, 701919, Note_on_c, 0, 47, 0
5, 701919, Note_on_c, 0, 35, 49
5, 702000, Note_on_c, 0, 35, 0
5, 702000, Note_on_c, 0, 47, 49
5, 702080, Note_on_c, 0, 47, 0
5, 702080, Note_on_c, 0, 35, 49
5, 702159, Note_on_c, 0, 35, 0
5, 702159, Note_on_c, 0, 47, 49
5, 702240, Note_on_c, 0, 47, 0
5, 702240, Note_on_c, 0, 35, 49
5, 702320, Note_on_c, 0, 35, 0
5, 702320, Note_on_c, 0, 47, 49
5, 702399, Note_on_c, 0, 47, 0
5, 702399, Note_on_c, 0, 35, 49
5, 702480, Note_on_c, 0, 35, 0
5, 702480, Note_on_c, 0, 47, 49
5, 702560, Note_on_c, 0, 47, 0
5, 702560, Note_on_c, 0, 35, 49
5, 702639, Note_on_c, 0, 35, 0
5, 702639, Note_on_c, 0, 47, 49
5, 702720, Note_on_c, 0, 47, 0
5, 702720, Note_on_c, 0, 35, 49
5, 702800, Note_on_c, 0, 35, 0
5, 702800, Note_on_c, 0, 47, 49
5, 702879, Note_on_c, 0, 47, 0
5, 702879, Note_on_c, 0, 35, 49
5, 702960, Note_on_c, 0, 35, 0
5, 702960, Note_on_c, 0, 47, 49
5, 703040, Note_on_c, 0, 47, 0
5, 703040, Note_on_c, 0, 35, 49
5, 703119, Note_on_c, 0, 35, 0
5, 703119, Note_on_c, 0, 47, 49
5, 703200, Note_on_c, 0, 47, 0
5, 703200, Note_on_c, 0, 35, 49
5, 703280, Note_on_c, 0, 35, 0
5, 703280, Note_on_c, 0, 47, 49
5, 703359, Note_on_c, 0, 47, 0
5, 703359, Note_on_c, 0, 35, 49
5, 703440, Note_on_c, 0, 35, 0
5, 703440, Note_on_c, 0, 47, 49
5, 703520, Note_on_c, 0, 47, 0
5, 703520, Control_c, 0, 64, 0
5, 703520, Note_on_c, 0, 35, 49
5, 703599, Note_on_c, 0, 35, 0
5, 703599, Note_on_c, 0, 47, 49
5, 703680, Note_on_c, 0, 47, 0
5, 703680, Control_c, 0, 64, 127
5, 703680, Note_on_c, 0, 35, 49
5, 703760, Note_on_c, 0, 35, 0
5, 703760, Note_on_c, 0, 47, 49
5, 703839, Note_on_c, 0, 47, 0
5, 703839, Note_on_c, 0, 35, 49
5, 703920, Note_on_c, 0, 35, 0
5, 703920, Note_on_c, 0, 47, 49
5, 704000, Note_on_c, 0, 47, 0
5, 704000, Note_on_c, 0, 35, 49
5, 704079, Note_on_c, 0, 35, 0
5, 704079, Note_on_c, 0, 47, 49
5, 704160, Note_on_c, 0, 47, 0
5, 704160, Note_on_c, 0, 35, 49
5, 704240, Note_on_c, 0, 35, 0
5, 704240, Note_on_c, 0, 47, 49
5, 704319, Note_on_c, 0, 47, 0
5, 704319, Note_on_c, 0, 35, 49
5, 704400, Note_on_c, 0, 35, 0
5, 704400, Note_on_c, 0, 47, 49
5, 704480, Note_on_c, 0, 47, 0
5, 704480, Note_on_c, 0, 35, 49
5, 704559, Note_on_c, 0, 35, 0
5, 704559, Note_on_c, 0, 47, 49
5, 704640, Note_on_c, 0, 47, 0
5, 704640, Note_on_c, 0, 35, 49
5, 704720, Note_on_c, 0, 35, 0
5, 704720, Note_on_c, 0, 47, 49
5, 704799, Note_on_c, 0, 47, 0
5, 704799, Note_on_c, 0, 35, 49
5, 704880, Note_on_c, 0, 35, 0
5, 704880, Note_on_c, 0, 47, 49
5, 704960, Note_on_c, 0, 47, 0
5, 704960, Note_on_c, 0, 35, 49
5, 705039, Note_on_c, 0, 35, 0
5, 705039, Note_on_c, 0, 47, 49
5, 705120, Note_on_c, 0, 47, 0
5, 705120, Note_on_c, 0, 35, 49
5, 705200, Note_on_c, 0, 35, 0
5, 705200, Note_on_c, 0, 47, 49
5, 705279, Note_on_c, 0, 47, 0
5, 705279, Note_on_c, 0, 35, 49
5, 705360, Note_on_c, 0, 35, 0
5, 705360, Note_on_c, 0, 47, 49
5, 705440, Note_on_c, 0, 47, 0
5, 705440, Control_c, 0, 64, 0
5, 705440, Note_on_c, 0, 35, 49
5, 705519, Note_on_c, 0, 35, 0
5, 705519, Note_on_c, 0, 47, 49
5, 705600, Note_on_c, 0, 47, 0
5, 705600, Control_c, 0, 64, 127
5, 705600, Note_on_c, 0, 35, 49
5, 705680, Note_on_c, 0, 35, 0
5, 705680, Note_on_c, 0, 47, 49
5, 705759, Note_on_c, 0, 47, 0
5, 705759, Note_on_c, 0, 35, 49
5, 705840, Note_on_c, 0, 35, 0
5, 705840, Note_on_c, 0, 47, 49
5, 705920, Note_on_c, 0, 47, 0
5, 705920, Note_on_c, 0, 35, 49
5, 705999, Note_on_c, 0, 35, 0
5, 705999, Note_on_c, 0, 47, 49
5, 706080, Note_on_c, 0, 47, 0
5, 706080, Note_on_c, 0, 35, 49
5, 706160, Note_on_c, 0, 35, 0
5, 706160, Note_on_c, 0, 47, 49
5, 706239, Note_on_c, 0, 47, 0
5, 706239, Note_on_c, 0, 35, 49
5, 706320, Note_on_c, 0, 35, 0
5, 706320, Note_on_c, 0, 47, 49
5, 706400, Note_on_c, 0, 47, 0
5, 706400, Note_on_c, 0, 35, 49
5, 706479, Note_on_c, 0, 35, 0
5, 706479, Note_on_c, 0, 47, 49
5, 706560, Note_on_c, 0, 47, 0
5, 706560, Note_on_c, 0, 35, 49
5, 706640, Note_on_c, 0, 35, 0
5, 706640, Note_on_c, 0, 47, 49
5, 706719, Note_on_c, 0, 47, 0
5, 706719, Note_on_c, 0, 35, 49
5, 706800, Note_on_c, 0, 35, 0
5, 706800, Note_on_c, 0, 47, 49
5, 706880, Note_on_c, 0, 47, 0
5, 706880, Note_on_c, 0, 35, 49
5, 706959, Note_on_c, 0, 35, 0
5, 706959, Note_on_c, 0, 47, 49
5, 707040, Note_on_c, 0, 47, 0
5, 707040, Note_on_c, 0, 35, 49
5, 707120, Note_on_c, 0, 35, 0
5, 707120, Note_on_c, 0, 47, 49
5, 707199, Note_on_c, 0, 47, 0
5, 707199, Note_on_c, 0, 35, 49
5, 707280, Note_on_c, 0, 35, 0
5, 707280, Note_on_c, 0, 47, 49
5, 707360, Note_on_c, 0, 47, 0
5, 707360, Control_c, 0, 64, 0
5, 707360, Note_on_c, 0, 35, 49
5, 707439, Note_on_c, 0, 35, 0
5, 707439, Note_on_c, 0, 47, 49
5, 707520, Note_on_c, 0, 47, 0
5, 707520, Control_c, 0, 64, 127
5, 707520, Note_on_c, 0, 35, 49
5, 707600, Note_on_c, 0, 35, 0
5, 707600, Note_on_c, 0, 47, 49
5, 707679, Note_on_c, 0, 47, 0
5, 707679, Note_on_c, 0, 35, 49
5, 707760, Note_on_c, 0, 35, 0
5, 707760, Note_on_c, 0, 47, 49
5, 707840, Note_on_c, 0, 47, 0
5, 707840, Note_on_c, 0, 35, 49
5, 707919, Note_on_c, 0, 35, 0
5, 707919, Note_on_c, 0, 47, 49
5, 708000, Note_on_c, 0, 47, 0
5, 708000, Note_on_c, 0, 35, 49
5, 708080, Note_on_c, 0, 35, 0
5, 708080, Note_on_c, 0, 47, 49
5, 708159, Note_on_c, 0, 47, 0
5, 708159, Note_on_c, 0, 35, 49
5, 708240, Note_on_c, 0, 35, 0
5, 708240, Note_on_c, 0, 47, 49
5, 708320, Note_on_c, 0, 47, 0
5, 708320, Note_on_c, 0, 35, 49
5, 708399, Note_on_c, 0, 35, 0
5, 708399, Note_on_c, 0, 47, 49
5, 708480, Note_on_c, 0, 47, 0
5, 708480, Note_on_c, 0, 35, 49
5, 708560, Note_on_c, 0, 35, 0
5, 708560, Note_on_c, 0, 47, 49
5, 708639, Note_on_c, 0, 47, 0
5, 708639, Note_on_c, 0, 35, 49
5, 708720, Note_on_c, 0, 35, 0
5, 708720, Note_on_c, 0, 47, 49
5, 708800, Note_on_c, 0, 47, 0
5, 708800, Note_on_c, 0, 35, 49
5, 708879, Note_on_c, 0, 35, 0
5, 708879, Note_on_c, 0, 47, 49
5, 708960, Note_on_c, 0, 47, 0
5, 708960, Note_on_c, 0, 35, 49
5, 709040, Note_on_c, 0, 35, 0
5, 709040, Note_on_c, 0, 47, 49
5, 709119, Note_on_c, 0, 47, 0
5, 709119, Note_on_c, 0, 35, 49
5, 709200, Note_on_c, 0, 35, 0
5, 709200, Note_on_c, 0, 47, 49
5, 709280, Note_on_c, 0, 47, 0
5, 709280, Control_c, 0, 64, 0
5, 709280, Note_on_c, 0, 35, 49
5, 709359, Note_on_c, 0, 35, 0
5, 709359, Note_on_c, 0, 47, 49
5, 709440, Note_on_c, 0, 47, 0
5, 709440, Control_c, 0, 64, 127
5, 709440, Note_on_c, 0, 35, 49
5, 709520, Note_on_c, 0, 35, 0
5, 709520, Note_on_c, 0, 47, 49
5, 709599, Note_on_c, 0, 47, 0
5, 709599, Note_on_c, 0, 35, 49
5, 709680, Note_on_c, 0, 35, 0
5, 709680, Note_on_c, 0, 47, 49
5, 709760, Note_on_c, 0, 47, 0
5, 709760, Note_on_c, 0, 35, 49
5, 709839, Note_on_c, 0, 35, 0
5, 709839, Note_on_c, 0, 47, 49
5, 709920, Note_on_c, 0, 47, 0
5, 709920, Note_on_c, 0, 35, 49
5, 710000, Note_on_c, 0, 35, 0
5, 710000, Note_on_c, 0, 47, 49
5, 710079, Note_on_c, 0, 47, 0
5, 710079, Note_on_c, 0, 35, 49
5, 710160, Note_on_c, 0, 35, 0
5, 710160, Note_on_c, 0, 47, 49
5, 710240, Note_on_c, 0, 47, 0
5, 710240, Note_on_c, 0, 35, 49
5, 710319, Note_on_c, 0, 35, 0
5, 710319, Note_on_c, 0, 47, 49
5, 710400, Note_on_c, 0, 47, 0
5, 710400, Note_on_c, 0, 35, 49
5, 710480, Note_on_c, 0, 35, 0
5, 710480, Note_on_c, 0, 47, 49
5, 710559, Note_on_c, 0, 47, 0
5, 710559, Note_on_c, 0, 35, 49
5, 710640, Note_on_c, 0, 35, 0
5, 710640, Note_on_c, 0, 47, 49
5, 710720, Note_on_c, 0, 47, 0
5, 710720, Note_on_c, 0, 35, 49
5, 710799, Note_on_c, 0, 35, 0
5, 710799, Note_on_c, 0, 47, 49
5, 710880, Note_on_c, 0, 47, 0
5, 710880, Note_on_c, 0, 35, 49
5, 710960, Note_on_c, 0, 35, 0
5, 710960, Note_on_c, 0, 47, 49
5, 711039, Note_on_c, 0, 47, 0
5, 711039, Note_on_c, 0, 35, 49
5, 711120, Note_on_c, 0, 35, 0
5, 711120, Note_on_c, 0, 47, 49
5, 711200, Note_on_c, 0, 47, 0
5, 711200, Control_c, 0, 64, 0
5, 711200, Note_on_c, 0, 35, 49
5, 711279, Note_on_c, 0, 35, 0
5, 711279, Note_on_c, 0, 47, 49
5, 711360, Note_on_c, 0, 47, 0
5, 711360, Control_c, 0, 64, 127
5, 711360, Note_on_c, 0, 35, 49
5, 711440, Note_on_c, 0, 35, 0
5, 711440, Note_on_c, 0, 47, 49
5, 711519, Note_on_c, 0, 47, 0
5, 711519, Note_on_c, 0, 35, 49
5, 711600, Note_on_c, 0, 35, 0
5, 711600, Note_on_c, 0, 47, 49
5, 711680, Note_on_c, 0, 47, 0
5, 711680, Note_on_c, 0, 35, 49
5, 711759, Note_on_c, 0, 35, 0
5, 711759, Note_on_c, 0, 47, 49
5, 711840, Note_on_c, 0, 47, 0
5, 711840, Note_on_c, 0, 35, 49
5, 711920, Note_on_c, 0, 35, 0
5, 711920, Note_on_c, 0, 47, 49
5, 711999, Note_on_c, 0, 47, 0
5, 711999, Note_on_c, 0, 35, 49
5, 712080, Note_on_c, 0, 35, 0
5, 712080, Note_on_c, 0, 47, 49
5, 712160, Note_on_c, 0, 47, 0
5, 712160, Note_on_c, 0, 35, 49
5, 712239, Note_on_c, 0, 35, 0
5, 712239, Note_on_c, 0, 47, 49
5, 712320, Note_on_c, 0, 47, 0
5, 712320, Note_on_c, 0, 35, 49
5, 712400, Note_on_c, 0, 35, 0
5, 712400, Note_on_c, 0, 47, 49
5, 712479, Note_on_c, 0, 47, 0
5, 712479, Note_on_c, 0, 35, 49
5, 712560, Note_on_c, 0, 35, 0
5, 712560, Note_on_c, 0, 47, 49
5, 712640, Note_on_c, 0, 47, 0
5, 712640, Note_on_c, 0, 35, 49
5, 712719, Note_on_c, 0, 35, 0
5, 712719, Note_on_c, 0, 47, 49
5, 712800, Note_on_c, 0, 47, 0
5, 712800, Note_on_c, 0, 35, 49
5, 712880, Note_on_c, 0, 35, 0
5, 712880, Note_on_c, 0, 47, 49
5, 712959, Note_on_c, 0, 47, 0
5, 712959, Note_on_c, 0, 35, 49
5, 713040, Note_on_c, 0, 35, 0
5, 713040, Note_on_c, 0, 47, 49
5, 713120, Note_on_c, 0, 47, 0
5, 713120, Control_c, 0, 64, 0
5, 713120, Note_on_c, 0, 35, 49
5, 713199, Note_on_c, 0, 35, 0
5, 713199, Note_on_c, 0, 47, 49
5, 713280, Note_on_c, 0, 47, 0
5, 713280, Control_c, 0, 64, 127
5, 713280, Note_on_c, 0, 35, 49
5, 713360, Note_on_c, 0, 35, 0
5, 713360, Note_on_c, 0, 47, 49
5, 713439, Note_on_c, 0, 47, 0
5, 713439, Note_on_c, 0, 35, 49
5, 713520, Note_on_c, 0, 35, 0
5, 713520, Note_on_c, 0, 47, 49
5, 713600, Note_on_c, 0, 47, 0
5, 713600, Note_on_c, 0, 35, 49
5, 713679, Note_on_c, 0, 35, 0
5, 713679, Note_on_c, 0, 47, 49
5, 713760, Note_on_c, 0, 47, 0
5, 713760, Note_on_c, 0, 35, 49
5, 713840, Note_on_c, 0, 35, 0
5, 713840, Note_on_c, 0, 47, 49
5, 713919, Note_on_c, 0, 47, 0
5, 713919, Note_on_c, 0, 35, 49
5, 714000, Note_on_c, 0, 35, 0
5, 714000, Note_on_c, 0, 47, 49
5, 714080, Note_on_c, 0, 47, 0
5, 714080, Note_on_c, 0, 35, 49
5, 714159, Note_on_c, 0, 35, 0
5, 714159, Note_on_c, 0, 47, 49
5, 714240, Note_on_c, 0, 47, 0
5, 714240, Note_on_c, 0, 35, 49
5, 714320, Note_on_c, 0, 35, 0
5, 714320, Note_on_c, 0, 47, 49
5, 714399, Note_on_c, 0, 47, 0
5, 714399, Note_on_c, 0, 35, 49
5, 714480, Note_on_c, 0, 35, 0
5, 714480, Note_on_c, 0, 47, 49
5, 714560, Note_on_c, 0, 47, 0
5, 714560, Note_on_c, 0, 35, 49
5, 714639, Note_on_c, 0, 35, 0
5, 714639, Note_on_c, 0, 47, 49
5, 714720, Note_on_c, 0, 47, 0
5, 714720, Note_on_c, 0, 35, 49
5, 714800, Note_on_c, 0, 35, 0
5, 714800, Note_on_c, 0, 47, 49
5, 714879, Note_on_c, 0, 47, 0
5, 714879, Note_on_c, 0, 35, 49
5, 714960, Note_on_c, 0, 35, 0
5, 714960, Note_on_c, 0, 47, 49
5, 715040, Note_on_c, 0, 47, 0
5, 715040, Control_c, 0, 64, 0
5, 715040, Note_on_c, 0, 35, 49
5, 715119, Note_on_c, 0, 35, 0
5, 715119, Note_on_c, 0, 47, 49
5, 715200, Note_on_c, 0, 47, 0
5, 715200, Control_c, 0, 64, 127
5, 715200, Note_on_c, 0, 35, 49
5, 715280, Note_on_c, 0, 35, 0
5, 715280, Note_on_c, 0, 47, 49
5, 715359, Note_on_c, 0, 47, 0
5, 715359, Note_on_c, 0, 35, 49
5, 715440, Note_on_c, 0, 35, 0
5, 715440, Note_on_c, 0, 47, 49
5, 715520, Note_on_c, 0, 47, 0
5, 715520, Note_on_c, 0, 35, 49
5, 715599, Note_on_c, 0, 35, 0
5, 715599, Note_on_c, 0, 47, 49
5, 715680, Note_on_c, 0, 47, 0
5, 715680, Note_on_c, 0, 35, 49
5, 715760, Note_on_c, 0, 35, 0
5, 715760, Note_on_c, 0, 47, 49
5, 715839, Note_on_c, 0, 47, 0
5, 715839, Note_on_c, 0, 35, 49
5, 715920, Note_on_c, 0, 35, 0
5, 715920, Note_on_c, 0, 47, 49
5, 716000, Note_on_c, 0, 47, 0
5, 716000, Note_on_c, 0, 35, 49
5, 716079, Note_on_c, 0, 35, 0
5, 716079, Note_on_c, 0, 47, 49
5, 716160, Note_on_c, 0, 47, 0
5, 716160, Note_on_c, 0, 35, 49
5, 716240, Note_on_c, 0, 35, 0
5, 716240, Note_on_c, 0, 47, 49
5, 716319, Note_on_c, 0, 47, 0
5, 716319, Note_on_c, 0, 35, 49
5, 716400, Note_on_c, 0, 35, 0
5, 716400, Note_on_c, 0, 47, 49
5, 716480, Note_on_c, 0, 47, 0
5, 716480, Note_on_c, 0, 35, 49
5, 716559, Note_on_c, 0, 35, 0
5, 716559, Note_on_c, 0, 47, 49
5, 716640, Note_on_c, 0, 47, 0
5, 716640, Note_on_c, 0, 35, 49
5, 716720, Note_on_c, 0, 35, 0
5, 716720, Note_on_c, 0, 47, 49
5, 716799, Note_on_c, 0, 47, 0
5, 716799, Note_on_c, 0, 35, 49
5, 716880, Note_on_c, 0, 35, 0
5, 716880, Note_on_c, 0, 47, 49
5, 716960, Note_on_c, 0, 47, 0
5, 716960, Control_c, 0, 64, 0
5, 716960, Note_on_c, 0, 35, 49
5, 717039, Note_on_c, 0, 35, 0
5, 717039, Note_on_c, 0, 47, 49
5, 717120, Note_on_c, 0, 47, 0
5, 717120, Control_c, 0, 64, 127
5, 717120, Note_on_c, 0, 35, 49
5, 717200, Note_on_c, 0, 35, 0
5, 717200, Note_on_c, 0, 47, 49
5, 717279, Note_on_c, 0, 47, 0
5, 717279, Note_on_c, 0, 35, 49
5, 717360, Note_on_c, 0, 35, 0
5, 717360, Note_on_c, 0, 47, 49
5, 717440, Note_on_c, 0, 47, 0
5, 717440, Note_on_c, 0, 35, 49
5, 717519, Note_on_c, 0, 35, 0
5, 717519, Note_on_c, 0, 47, 49
5, 717600, Note_on_c, 0, 47, 0
5, 717600, Note_on_c, 0, 35, 49
5, 717680, Note_on_c, 0, 35, 0
5, 717680, Note_on_c, 0, 47, 49
5, 717759, Note_on_c, 0, 47, 0
5, 717759, Note_on_c, 0, 35, 49
5, 717840, Note_on_c, 0, 35, 0
5, 717840, Note_on_c, 0, 47, 49
5, 717920, Note_on_c, 0, 47, 0
5, 717920, Note_on_c, 0, 35, 49
5, 717999, Note_on_c, 0, 35, 0
5, 717999, Note_on_c, 0, 47, 49
5, 718080, Note_on_c, 0, 47, 0
5, 718080, Note_on_c, 0, 35, 49
5, 718160, Note_on_c, 0, 35, 0
5, 718160, Note_on_c, 0, 47, 49
5, 718239, Note_on_c, 0, 47, 0
5, 718239, Note_on_c, 0, 35, 49
5, 718320, Note_on_c, 0, 35, 0
5, 718320, Note_on_c, 0, 47, 49
5, 718400, Note_on_c, 0, 47, 0
5, 718400, Note_on_c, 0, 35, 49
5, 718479, Note_on_c, 0, 35, 0
5, 718479, Note_on_c, 0, 47, 49
5, 718560, Note_on_c, 0, 47, 0
5, 718560, Note_on_c, 0, 35, 49
5, 718640, Note_on_c, 0, 35, 0
5, 718640, Note_on_c, 0, 47, 49
5, 718719, Note_on_c, 0, 47, 0
5, 718719, Note_on_c, 0, 35, 49
5, 718800, Note_on_c, 0, 35, 0
5, 718800, Note_on_c, 0, 47, 49
5, 718880, Note_on_c, 0, 47, 0
5, 718880, Control_c, 0, 64, 0
5, 718880, Note_on_c, 0, 35, 49
5, 718959, Note_on_c, 0, 35, 0
5, 718959, Note_on_c, 0, 47, 49
5, 719040, Note_on_c, 0, 47, 0
5, 719040, Control_c, 0, 64, 127
5, 719040, Note_on_c, 0, 35, 49
5, 719120, Note_on_c, 0, 35, 0
5, 719120, Note_on_c, 0, 47, 49
5, 719199, Note_on_c, 0, 47, 0
5, 719199, Note_on_c, 0, 35, 49
5, 719280, Note_on_c, 0, 35, 0
5, 719280, Note_on_c, 0, 47, 49
5, 719360, Note_on_c, 0, 47, 0
5, 719360, Note_on_c, 0, 35, 49
5, 719439, Note_on_c, 0, 35, 0
5, 719439, Note_on_c, 0, 47, 49
5, 719520, Note_on_c, 0, 47, 0
5, 719520, Note_on_c, 0, 35, 49
5, 719600, Note_on_c, 0, 35, 0
5, 719600, Note_on_c, 0, 47, 49
5, 719679, Note_on_c, 0, 47, 0
5, 719679, Note_on_c, 0, 35, 49
5, 719760, Note_on_c, 0, 35, 0
5, 719760, Note_on_c, 0, 47, 49
5, 719840, Note_on_c, 0, 47, 0
5, 719840, Note_on_c, 0, 35, 49
5, 719919, Note_on_c, 0, 35, 0
5, 719919, Note_on_c, 0, 47, 49
5, 720000, Note_on_c, 0, 47, 0
5, 720000, Note_on_c, 0, 35, 49
5, 720080, Note_on_c, 0, 35, 0
5, 720080, Note_on_c, 0, 47, 49
5, 720159, Note_on_c, 0, 47, 0
5, 720159, Note_on_c, 0, 35, 49
5, 720240, Note_on_c, 0, 35, 0
5, 720240, Note_on_c, 0, 47, 49
5, 720320, Note_on_c, 0, 47, 0
5, 720320, Note_on_c, 0, 35, 49
5, 720399, Note_on_c, 0, 35, 0
5, 720399, Note_on_c, 0, 47, 49
5, 720480, Note_on_c, 0, 47, 0
5, 720480, Note_on_c, 0, 35, 49
5, 720560, Note_on_c, 0, 35, 0
5, 720560, Note_on_c, 0, 47, 49
5, 720639, Note_on_c, 0, 47, 0
5, 720639, Note_on_c, 0, 35, 49
5, 720720, Note_on_c, 0, 35, 0
5, 720720, Note_on_c, 0, 47, 49
5, 720800, Note_on_c, 0, 47, 0
5, 720800, Control_c, 0, 64, 0
5, 720800, Note_on_c, 0, 35, 49
5, 720879, Note_on_c, 0, 35, 0
5, 720879, Note_on_c, 0, 47, 49
5, 720960, Note_on_c, 0, 47, 0
5, 720960, Control_c, 0, 64, 127
5, 720960, Note_on_c, 0, 35, 49
5, 721040, Note_on_c, 0, 35, 0
5, 721040, Note_on_c, 0, 47, 49
5, 721119, Note_on_c, 0, 47, 0
5, 721119, Note_on_c, 0, 35, 49
5, 721200, Note_on_c, 0, 35, 0
5, 721200, Note_on_c, 0, 47, 49
5, 721280, Note_on_c, 0, 47, 0
5, 721280, Note_on_c, 0, 35, 49
5, 721359, Note_on_c, 0, 35, 0
5, 721359, Note_on_c, 0, 47, 49
5, 721440, Note_on_c, 0, 47, 0
5, 721440, Note_on_c, 0, 35, 49
5, 721520, Note_on_c, 0, 35, 0
5, 721520, Note_on_c, 0, 47, 49
5, 721599, Note_on_c, 0, 47, 0
5, 721599, Note_on_c, 0, 35, 49
5, 721680, Note_on_c, 0, 35, 0
5, 721680, Note_on_c, 0, 47, 49
5, 721760, Note_on_c, 0, 47, 0
5, 721760, Note_on_c, 0, 35, 49
5, 721839, Note_on_c, 0, 35, 0
5, 721839, Note_on_c, 0, 47, 49
5, 721920, Note_on_c, 0, 47, 0
5, 721920, Note_on_c, 0, 35, 49
5, 722000, Note_on_c, 0, 35, 0
5, 722000, Note_on_c, 0, 47, 49
5, 722079, Note_on_c, 0, 47, 0
5, 722079, Note_on_c, 0, 35, 49
5, 722160, Note_on_c, 0, 35, 0
5, 722160, Note_on_c, 0, 47, 49
5, 722240, Note_on_c, 0, 47, 0
5, 722240, Note_on_c, 0, 35, 49
5, 722319, Note_on_c, 0, 35, 0
5, 722319, Note_on_c, 0, 47, 49
5, 722400, Note_on_c, 0, 47, 0
5, 722400, Note_on_c, 0, 35, 49
5, 722480, Note_on_c, 0, 35, 0
5, 722480, Note_on_c, 0, 47, 49
5, 722559, Note_on_c, 0, 47, 0
5, 722559, Note_on_c, 0, 35, 49
5, 722640, Note_on_c, 0, 35, 0
5, 722640, Note_on_c, 0, 47, 49
5, 722720, Note_on_c, 0, 47, 0
5, 722720, Control_c, 0, 64, 0
5, 722720, Note_on_c, 0, 35, 49
5, 722799, Note_on_c, 0, 35, 0
5, 722799, Note_on_c, 0, 47, 49
5, 722880, Note_on_c, 0, 47, 0
5, 722880, Control_c, 0, 64, 127
5, 722880, Note_on_c, 0, 35, 49
5, 722960, Note_on_c, 0, 35, 0
5, 722960, Note_on_c, 0, 47, 49
5, 723039, Note_on_c, 0, 47, 0
5, 723039, Note_on_c, 0, 35, 49
5, 723120, Note_on_c, 0, 35, 0
5, 723120, Note_on_c, 0, 47, 49
5, 723200, Note_on_c, 0, 47, 0
5, 723200, Note_on_c, 0, 35, 49
5, 723279, Note_on_c, 0, 35, 0
5, 723279, Note_on_c, 0, 47, 49
5, 723360, Note_on_c, 0, 47, 0
5, 723360, Note_on_c, 0, 35, 49
5, 723440, Note_on_c, 0, 35, 0
5, 723440, Note_on_c, 0, 47, 49
5, 723519, Note_on_c, 0, 47, 0
5, 723519, Note_on_c, 0, 35, 49
5, 723600, Note_on_c, 0, 35, 0
5, 723600, Note_on_c, 0, 47, 49
5, 723680, Note_on_c, 0, 47, 0
5, 723680, Note_on_c, 0, 35, 49
5, 723759, Note_on_c, 0, 35, 0
5, 723759, Note_on_c, 0, 47, 49
5, 723840, Note_on_c, 0, 47, 0
5, 723840, Note_on_c, 0, 35, 49
5, 723920, Note_on_c, 0, 35, 0
5, 723920, Note_on_c, 0, 47, 49
5, 723999, Note_on_c, 0, 47, 0
5, 723999, Note_on_c, 0, 35, 49
5, 724080, Note_on_c, 0, 35, 0
5, 724080, Note_on_c, 0, 47, 49
5, 724160, Note_on_c, 0, 47, 0
5, 724160, Note_on_c, 0, 35, 49
5, 724239, Note_on_c, 0, 35, 0
5, 724239, Note_on_c, 0, 47, 49
5, 724320, Note_on_c, 0, 47, 0
5, 724320, Note_on_c, 0, 35, 49
5, 724400, Note_on_c, 0, 35, 0
5, 724400, Note_on_c, 0, 47, 49
5, 724479, Note_on_c, 0, 47, 0
5, 724479, Note_on_c, 0, 35, 49
5, 724560, Note_on_c, 0, 35, 0
5, 724560, Note_on_c, 0, 47, 49
5, 724640, Note_on_c, 0, 47, 0
5, 724640, Control_c, 0, 64, 0
5, 724640, Note_on_c, 0, 35, 49
5, 724719, Note_on_c, 0, 35, 0
5, 724719, Note_on_c, 0, 47, 49
5, 724800, Note_on_c, 0, 47, 0
5, 724800, Control_c, 0, 64, 127
5, 724800, Note_on_c, 0, 35, 49
5, 724880, Note_on_c, 0, 35, 0
5, 724880, Note_on_c, 0, 47, 49
5, 724959, Note_on_c, 0, 47, 0
5, 724959, Note_on_c, 0, 35, 49
5, 725040, Note_on_c, 0, 35, 0
5, 725040, Note_on_c, 0, 47, 49
5, 725120, Note_on_c, 0, 47, 0
5, 725120, Note_on_c, 0, 35, 49
5, 725199, Note_on_c, 0, 35, 0
5, 725199, Note_on_c, 0, 47, 49
5, 725280, Note_on_c, 0, 47, 0
5, 725280, Note_on_c, 0, 35, 49
5, 725360, Note_on_c, 0, 35, 0
5, 725360, Note_on_c, 0, 47, 49
5, 725439, Note_on_c, 0, 47, 0
5, 725439, Note_on_c, 0, 35, 49
5, 725520, Note_on_c, 0, 35, 0
5, 725520, Note_on_c, 0, 47, 49
5, 725600, Note_on_c, 0, 47, 0
5, 725600, Note_on_c, 0, 35, 49
5, 725679, Note_on_c, 0, 35, 0
5, 725679, Note_on_c, 0, 47, 49
5, 725760, Note_on_c, 0, 47, 0
5, 725760, Note_on_c, 0, 35, 49
5, 725840, Note_on_c, 0, 35, 0
5, 725840, Note_on_c, 0, 47, 49
5, 725919, Note_on_c, 0, 47, 0
5, 725919, Note_on_c, 0, 35, 49
5, 726000, Note_on_c, 0, 35, 0
5, 726000, Note_on_c, 0, 47, 49
5, 726080, Note_on_c, 0, 47, 0
5, 726080, Note_on_c, 0, 35, 49
5, 726159, Note_on_c, 0, 35, 0
5, 726159, Note_on_c, 0, 47, 49
5, 726240, Note_on_c, 0, 47, 0
5, 726240, Note_on_c, 0, 35, 49
5, 726320, Note_on_c, 0, 35, 0
5, 726320, Note_on_c, 0, 47, 49
5, 726399, Note_on_c, 0, 47, 0
5, 726399, Note_on_c, 0, 35, 49
5, 726480, Note_on_c, 0, 35, 0
5, 726480, Note_on_c, 0, 47, 49
5, 726560, Note_on_c, 0, 47, 0
5, 726560, Control_c, 0, 64, 0
5, 726560, Note_on_c, 0, 35, 49
5, 726639, Note_on_c, 0, 35, 0
5, 726639, Note_on_c, 0, 47, 49
5, 726720, Note_on_c, 0, 47, 0
5, 726720, Control_c, 0, 64, 127
5, 726720, Note_on_c, 0, 35, 49
5, 726800, Note_on_c, 0, 35, 0
5, 726800, Note_on_c, 0, 47, 49
5, 726879, Note_on_c, 0, 47, 0
5, 726879, Note_on_c, 0, 35, 49
5, 726960, Note_on_c, 0, 35, 0
5, 726960, Note_on_c, 0, 47, 49
5, 727040, Note_on_c, 0, 47, 0
5, 727040, Note_on_c, 0, 35, 49
5, 727119, Note_on_c, 0, 35, 0
5, 727119, Note_on_c, 0, 47, 49
5, 727200, Note_on_c, 0, 47, 0
5, 727200, Note_on_c, 0, 35, 49
5, 727280, Note_on_c, 0, 35, 0
5, 727280, Note_on_c, 0, 47, 49
5, 727359, Note_on_c, 0, 47, 0
5, 727359, Note_on_c, 0, 35, 49
5, 727440, Note_on_c, 0, 35, 0
5, 727440, Note_on_c, 0, 47, 49
5, 727520, Note_on_c, 0, 47, 0
5, 727520, Note_on_c, 0, 35, 49
5, 727599, Note_on_c, 0, 35, 0
5, 727599, Note_on_c, 0, 47, 49
5, 727680, Note_on_c, 0, 47, 0
5, 727680, Note_on_c, 0, 35, 49
5, 727760, Note_on_c, 0, 35, 0
5, 727760, Note_on_c, 0, 47, 49
5, 727839, Note_on_c, 0, 47, 0
5, 727839, Note_on_c, 0, 35, 49
5, 727920, Note_on_c, 0, 35, 0
5, 727920, Note_on_c, 0, 47, 49
5, 728000, Note_on_c, 0, 47, 0
5, 728000, Note_on_c, 0, 35, 49
5, 728079, Note_on_c, 0, 35, 0
5, 728079, Note_on_c, 0, 47, 49
5, 728160, Note_on_c, 0, 47, 0
5, 728160, Note_on_c, 0, 35, 49
5, 728240, Note_on_c, 0, 35, 0
5, 728240, Note_on_c, 0, 47, 49
5, 728319, Note_on_c, 0, 47, 0
5, 728319, Note_on_c, 0, 35, 49
5, 728400, Note_on_c, 0, 35, 0
5, 728400, Note_on_c, 0, 47, 49
5, 728480, Note_on_c, 0, 47, 0
5, 728480, Control_c, 0, 64, 0
5, 728480, Note_on_c, 0, 35, 49
5, 728559, Note_on_c, 0, 35, 0
5, 728559, Note_on_c, 0, 47, 49
5, 728640, Note_on_c, 0, 47, 0
5, 728640, Control_c, 0, 64, 127
5, 728640, Note_on_c, 0, 35, 49
5, 728720, Note_on_c, 0, 35, 0
5, 728720, Note_on_c, 0, 47, 49
5, 728799, Note_on_c, 0, 47, 0
5, 728799, Note_on_c, 0, 35, 49
5, 728880, Note_on_c, 0, 35, 0
5, 728880, Note_on_c, 0, 47, 49
5, 728960, Note_on_c, 0, 47, 0
5, 728960, Note_on_c, 0, 35, 49
5, 729039, Note_on_c, 0, 35, 0
5, 729039, Note_on_c, 0, 47, 49
5, 729120, Note_on_c, 0, 47, 0
5, 729120, Note_on_c, 0, 35, 49
5, 729200, Note_on_c, 0, 35, 0
5, 729200, Note_on_c, 0, 47, 49
5, 729279, Note_on_c, 0, 47, 0
5, 729279, Note_on_c, 0, 35, 49
5, 729360, Note_on_c, 0, 35, 0
5, 729360, Note_on_c, 0, 47, 49
5, 729440, Note_on_c, 0, 47, 0
5, 729440, Note_on_c, 0, 35, 49
5, 729519, Note_on_c, 0, 35, 0
5, 729519, Note_on_c, 0, 47, 49
5, 729600, Note_on_c, 0, 47, 0
5, 729600, Note_on_c, 0, 35, 49
5, 729680, Note_on_c, 0, 35, 0
5, 729680, Note_on_c, 0, 47, 49
5, 729759, Note_on_c, 0, 47, 0
5, 729759, Note_on_c, 0, 35, 49
5, 729840, Note_on_c, 0, 35, 0
5, 729840, Note_on_c, 0, 47, 49
5, 729920, Note_on_c, 0, 47, 0
5, 729920, Note_on_c, 0, 35, 49
5, 729999, Note_on_c, 0, 35, 0
5, 729999, Note_on_c, 0, 47, 49
5, 730080, Note_on_c, 0, 47, 0
5, 730080, Note_on_c, 0, 35, 49
5, 730160, Note_on_c, 0, 35, 0
5, 730160, Note_on_c, 0, 47, 49
5, 730239, Note_on_c, 0, 47, 0
5, 730239, Note_on_c, 0, 35, 49
5, 730320, Note_on_c, 0, 35, 0
5, 730320, Note_on_c, 0, 47, 49
5, 730400, Note_on_c, 0, 47, 0
5, 730400, Control_c, 0, 64, 0
5, 730400, Note_on_c, 0, 35, 49
5, 730479, Note_on_c, 0, 35, 0
5, 730479, Note_on_c, 0, 47, 49
5, 730560, Note_on_c, 0, 47, 0
5, 730560, Control_c, 0, 64, 127
5, 730560, Note_on_c, 0, 35, 49
5, 730640, Note_on_c, 0, 35, 0
5, 730640, Note_on_c, 0, 47, 49
5, 730719, Note_on_c, 0, 47, 0
5, 730719, Note_on_c, 0, 35, 49
5, 730800, Note_on_c, 0, 35, 0
5, 730800, Note_on_c, 0, 47, 49
5, 730880, Note_on_c, 0, 47, 0
5, 730880, Note_on_c, 0, 35, 49
5, 730959, Note_on_c, 0, 35, 0
5, 730959, Note_on_c, 0, 47, 49
5, 731040, Note_on_c, 0, 47, 0
5, 731040, Note_on_c, 0, 35, 49
5, 731120, Note_on_c, 0, 35, 0
5, 731120, Note_on_c, 0, 47, 49
5, 731199, Note_on_c, 0, 47, 0
5, 731199, Note_on_c, 0, 35, 49
5, 731280, Note_on_c, 0, 35, 0
5, 731280, Note_on_c, 0, 47, 49
5, 731360, Note_on_c, 0, 47, 0
5, 731360, Note_on_c, 0, 35, 49
5, 731439, Note_on_c, 0, 35, 0
5, 731439, Note_on_c, 0, 47, 49
5, 731520, Note_on_c, 0, 47, 0
5, 731520, Note_on_c, 0, 35, 49
5, 731600, Note_on_c, 0, 35, 0
5, 731600, Note_on_c, 0, 47, 49
5, 731679, Note_on_c, 0, 47, 0
5, 731679, Note_on_c, 0, 35, 49
5, 731760, Note_on_c, 0, 35, 0
5, 731760, Note_on_c, 0, 47, 49
5, 731840, Note_on_c, 0, 47, 0
5, 731840, Note_on_c, 0, 35, 49
5, 731919, Note_on_c, 0, 35, 0
5, 731919, Note_on_c, 0, 47, 49
5, 732000, Note_on_c, 0, 47, 0
5, 732000, Note_on_c, 0, 35, 49
5, 732080, Note_on_c, 0, 35, 0
5, 732080, Note_on_c, 0, 47, 49
5, 732159, Note_on_c, 0, 47, 0
5, 732159, Note_on_c, 0, 35, 49
5, 732240, Note_on_c, 0, 35, 0
5, 732240, Note_on_c, 0, 47, 49
5, 732320, Note_on_c, 0, 47, 0
5, 732320, Control_c, 0, 64, 0
5, 732320, Note_on_c, 0, 35, 49
5, 732399, Note_on_c, 0, 35, 0
5, 732399, Note_on_c, 0, 47, 49
5, 732480, Note_on_c, 0, 47, 0
5, 732480, Control_c, 0, 64, 127
5, 732480, Note_on_c, 0, 35, 49
5, 732560, Note_on_c, 0, 35, 0
5, 732560, Note_on_c, 0, 47, 49
5, 732639, Note_on_c, 0, 47, 0
5, 732639, Note_on_c, 0, 35, 49
5, 732720, Note_on_c, 0, 35, 0
5, 732720, Note_on_c, 0, 47, 49
5, 732800, Note_on_c, 0, 47, 0
5, 732800, Note_on_c, 0, 35, 49
5, 732879, Note_on_c, 0, 35, 0
5, 732879, Note_on_c, 0, 47, 49
5, 732960, Note_on_c, 0, 47, 0
5, 732960, Note_on_c, 0, 35, 49
5, 733040, Note_on_c, 0, 35, 0
5, 733040, Note_on_c, 0, 47, 49
5, 733119, Note_on_c, 0, 47, 0
5, 733119, Note_on_c, 0, 35, 49
5, 733200, Note_on_c, 0, 35, 0
5, 733200, Note_on_c, 0, 47, 49
5, 733280, Note_on_c, 0, 47, 0
5, 733280, Note_on_c, 0, 35, 49
5, 733359, Note_on_c, 0, 35, 0
5, 733359, Note_on_c, 0, 47, 49
5, 733440, Note_on_c, 0, 47, 0
5, 733440, Note_on_c, 0, 35, 49
5, 733520, Note_on_c, 0, 35, 0
5, 733520, Note_on_c, 0, 47, 49
5, 733599, Note_on_c, 0, 47, 0
5, 733599, Note_on_c, 0, 35, 49
5, 733680, Note_on_c, 0, 35, 0
5, 733680, Note_on_c, 0, 47, 49
5, 733760, Note_on_c, 0, 47, 0
5, 733760, Note_on_c, 0, 35, 49
5, 733839, Note_on_c, 0, 35, 0
5, 733839, Note_on_c, 0, 47, 49
5, 733920, Note_on_c, 0, 47, 0
5, 733920, Note_on_c, 0, 35, 49
5, 734000, Note_on_c, 0, 35, 0
5, 734000, Note_on_c, 0, 47, 49
5, 734079, Note_on_c, 0, 47, 0
5, 734079, Note_on_c, 0, 35, 49
5, 734160, Note_on_c, 0, 35, 0
5, 734160, Note_on_c, 0, 47, 49
5, 734240, Note_on_c, 0, 47, 0
5, 734240, Control_c, 0, 64, 0
5, 734240, Note_on_c, 0, 35, 49
5, 734319, Note_on_c, 0, 35, 0
5, 734319, Note_on_c, 0, 47, 49
5, 734400, Note_on_c, 0, 47, 0
5, 734400, Control_c, 0, 64, 127
5, 734400, Note_on_c, 0, 35, 49
5, 734480, Note_on_c, 0, 35, 0
5, 734480, Note_on_c, 0, 47, 49
5, 734559, Note_on_c, 0, 47, 0
5, 734559, Note_on_c, 0, 35, 49
5, 734640, Note_on_c, 0, 35, 0
5, 734640, Note_on_c, 0, 47, 49
5, 734720, Note_on_c, 0, 47, 0
5, 734720, Note_on_c, 0, 35, 49
5, 734799, Note_on_c, 0, 35, 0
5, 734799, Note_on_c, 0, 47, 49
5, 734880, Note_on_c, 0, 47, 0
5, 734880, Note_on_c, 0, 35, 49
5, 734960, Note_on_c, 0, 35, 0
5, 734960, Note_on_c, 0, 47, 49
5, 735039, Note_on_c, 0, 47, 0
5, 735039, Note_on_c, 0, 35, 49
5, 735120, Note_on_c, 0, 35, 0
5, 735120, Note_on_c, 0, 47, 49
5, 735200, Note_on_c, 0, 47, 0
5, 735200, Note_on_c, 0, 35, 49
5, 735279, Note_on_c, 0, 35, 0
5, 735279, Note_on_c, 0, 47, 49
5, 735360, Note_on_c, 0, 47, 0
5, 735360, Note_on_c, 0, 35, 49
5, 735440, Note_on_c, 0, 35, 0
5, 735440, Note_on_c, 0, 47, 49
5, 735519, Note_on_c, 0, 47, 0
5, 735519, Note_on_c, 0, 35, 49
5, 735600, Note_on_c, 0, 35, 0
5, 735600, Note_on_c, 0, 47, 49
5, 735680, Note_on_c, 0, 47, 0
5, 735680, Note_on_c, 0, 35, 49
5, 735759, Note_on_c, 0, 35, 0
5, 735759, Note_on_c, 0, 47, 49
5, 735840, Note_on_c, 0, 47, 0
5, 735840, Note_on_c, 0, 35, 49
5, 735920, Note_on_c, 0, 35, 0
5, 735920, Note_on_c, 0, 47, 49
5, 735999, Note_on_c, 0, 47, 0
5, 735999, Note_on_c, 0, 35, 49
5, 736080, Note_on_c, 0, 35, 0
5, 736080, Note_on_c, 0, 47, 49
5, 736160, Note_on_c, 0, 47, 0
5, 736160, Control_c, 0, 64, 0
5, 736160, Note_on_c, 0, 35, 49
5, 736239, Note_on_c, 0, 35, 0
5, 736239, Note_on_c, 0, 47, 49
5, 736320, Note_on_c, 0, 47, 0
5, 736320, Control_c, 0, 64, 127
5, 736320, Note_on_c, 0, 35, 49
5, 736400, Note_on_c, 0, 35, 0
5, 736400, Note_on_c, 0, 47, 49
5, 736479, Note_on_c, 0, 47, 0
5, 736479, Note_on_c, 0, 35, 49
5, 736560, Note_on_c, 0, 35, 0
5, 736560, Note_on_c, 0, 47, 49
5, 736640, Note_on_c, 0, 47, 0
5, 736640, Note_on_c, 0, 35, 49
5, 736719, Note_on_c, 0, 35, 0
5, 736719, Note_on_c, 0, 47, 49
5, 736800, Note_on_c, 0, 47, 0
5, 736800, Note_on_c, 0, 35, 49
5, 736880, Note_on_c, 0, 35, 0
5, 736880, Note_on_c, 0, 47, 49
5, 736959, Note_on_c, 0, 47, 0
5, 736959, Note_on_c, 0, 35, 49
5, 737040, Note_on_c, 0, 35, 0
5, 737040, Note_on_c, 0, 47, 49
5, 737120, Note_on_c, 0, 47, 0
5, 737120, Note_on_c, 0, 35, 49
5, 737199, Note_on_c, 0, 35, 0
5, 737199, Note_on_c, 0, 47, 49
5, 737280, Note_on_c, 0, 47, 0
5, 737280, Note_on_c, 0, 35, 49
5, 737360, Note_on_c, 0, 35, 0
5, 737360, Note_on_c, 0, 47, 49
5, 737439, Note_on_c, 0, 47, 0
5, 737439, Note_on_c, 0, 35, 49
5, 737520, Note_on_c, 0, 35, 0
5, 737520, Note_on_c, 0, 47, 49
5, 737600, Note_on_c, 0, 47, 0
5, 737600, Note_on_c, 0, 35, 49
5, 737679, Note_on_c, 0, 35, 0
5, 737679, Note_on_c, 0, 47, 49
5, 737760, Note_on_c, 0, 47, 0
5, 737760, Note_on_c, 0, 35, 49
5, 737840, Note_on_c, 0, 35, 0
5, 737840, Note_on_c, 0, 47, 49
5, 737919, Note_on_c, 0, 47, 0
5, 737919, Note_on_c, 0, 35, 49
5, 738000, Note_on_c, 0, 35, 0
5, 738000, Note_on_c, 0, 47, 49
5, 738080, Note_on_c, 0, 47, 0
5, 738080, Control_c, 0, 64, 0
5, 738080, Note_on_c, 0, 35, 49
5, 738159, Note_on_c, 0, 35, 0
5, 738159, Note_on_c, 0, 47, 49
5, 738240, Note_on_c, 0, 47, 0
5, 738240, Control_c, 0, 64, 127
5, 738240, Note_on_c, 0, 35, 62
5, 738320, Note_on_c, 0, 35, 0
5, 738320, Note_on_c, 0, 47, 62
5, 738399, Note_on_c, 0, 47, 0
5, 738399, Note_on_c, 0, 35, 62
5, 738480, Note_on_c, 0, 35, 0
5, 738480, Note_on_c, 0, 47, 62
5, 738560, Note_on_c, 0, 47, 0
5, 738560, Note_on_c, 0, 35, 62
5, 738639, Note_on_c, 0, 35, 0
5, 738639, Note_on_c, 0, 47, 62
5, 738720, Note_on_c, 0, 47, 0
5, 738720, Note_on_c, 0, 35, 62
5, 738800, Note_on_c, 0, 35, 0
5, 738800, Note_on_c, 0, 47, 62
5, 738879, Note_on_c, 0, 47, 0
5, 738879, Note_on_c, 0, 35, 62
5, 738960, Note_on_c, 0, 35, 0
5, 738960, Note_on_c, 0, 47, 62
5, 739040, Note_on_c, 0, 47, 0
5, 739040, Note_on_c, 0, 35, 62
5, 739119, Note_on_c, 0, 35, 0
5, 739119, Note_on_c, 0, 47, 62
5, 739200, Note_on_c, 0, 47, 0
5, 739200, Note_on_c, 0, 35, 62
5, 739280, Note_on_c, 0, 35, 0
5, 739280, Note_on_c, 0, 47, 62
5, 739359, Note_on_c, 0, 47, 0
5, 739359, Note_on_c, 0, 35, 62
5, 739440, Note_on_c, 0, 35, 0
5, 739440, Note_on_c, 0, 47, 62
5, 739520, Note_on_c, 0, 47, 0
5, 739520, Note_on_c, 0, 35, 62
5, 739599, Note_on_c, 0, 35, 0
5, 739599, Note_on_c, 0, 47, 62
5, 739680, Note_on_c, 0, 47, 0
5, 739680, Note_on_c, 0, 35, 62
5, 739760, Note_on_c, 0, 35, 0
5, 739760, Note_on_c, 0, 47, 62
5, 739839, Note_on_c, 0, 47, 0
5, 739839, Note_on_c, 0, 35, 62
5, 739920, Note_on_c, 0, 35, 0
5, 739920, Note_on_c, 0, 47, 62
5, 740000, Note_on_c, 0, 47, 0
5, 740000, Control_c, 0, 64, 0
5, 740000, Note_on_c, 0, 35, 62
5, 740079, Note_on_c, 0, 35, 0
5, 740079, Note_on_c, 0, 47, 62
5, 740160, Note_on_c, 0, 47, 0
5, 740160, Control_c, 0, 64, 127
5, 740160, Note_on_c, 0, 35, 62
5, 740240, Note_on_c, 0, 35, 0
5, 740240, Note_on_c, 0, 47, 62
5, 740319, Note_on_c, 0, 47, 0
5, 740319, Note_on_c, 0, 35, 62
5, 740400, Note_on_c, 0, 35, 0
5, 740400, Note_on_c, 0, 47, 62
5, 740480, Note_on_c, 0, 47, 0
5, 740480, Note_on_c, 0, 35, 62
5, 740559, Note_on_c, 0, 35, 0
5, 740559, Note_on_c, 0, 47, 62
5, 740640, Note_on_c, 0, 47, 0
5, 740640, Note_on_c, 0, 35, 62
5, 740720, Note_on_c, 0, 35, 0
5, 740720, Note_on_c, 0, 47, 62
5, 740799, Note_on_c, 0, 47, 0
5, 740799, Note_on_c, 0, 35, 62
5, 740880, Note_on_c, 0, 35, 0
5, 740880, Note_on_c, 0, 47, 62
5, 740960, Note_on_c, 0, 47, 0
5, 740960, Note_on_c, 0, 35, 62
5, 741039, Note_on_c, 0, 35, 0
5, 741039, Note_on_c, 0, 47, 62
5, 741120, Note_on_c, 0, 47, 0
5, 741120, Note_on_c, 0, 35, 62
5, 741200, Note_on_c, 0, 35, 0
5, 741200, Note_on_c, 0, 47, 62
5, 741279, Note_on_c, 0, 47, 0
5, 741279, Note_on_c, 0, 35, 62
5, 741360, Note_on_c, 0, 35, 0
5, 741360, Note_on_c, 0, 47, 62
5, 741440, Note_on_c, 0, 47, 0
5, 741440, Note_on_c, 0, 35, 62
5, 741519, Note_on_c, 0, 35, 0
5, 741519, Note_on_c, 0, 47, 62
5, 741600, Note_on_c, 0, 47, 0
5, 741600, Note_on_c, 0, 35, 62
5, 741680, Note_on_c, 0, 35, 0
5, 741680, Note_on_c, 0, 47, 62
5, 741759, Note_on_c, 0, 47, 0
5, 741759, Note_on_c, 0, 35, 62
5, 741840, Note_on_c, 0, 35, 0
5, 741840, Note_on_c, 0, 47, 62
5, 741920, Note_on_c, 0, 47, 0
5, 741920, Control_c, 0, 64, 0
5, 741920, Note_on_c, 0, 35, 62
5, 741999, Note_on_c, 0, 35, 0
5, 741999, Note_on_c, 0, 47, 62
5, 742080, Note_on_c, 0, 47, 0
5, 742080, Control_c, 0, 64, 127
5, 742080, Note_on_c, 0, 35, 62
5, 742160, Note_on_c, 0, 35, 0
5, 742160, Note_on_c, 0, 47, 62
5, 742239, Note_on_c, 0, 47, 0
5, 742239, Note_on_c, 0, 35, 62
5, 742320, Note_on_c, 0, 35, 0
5, 742320, Note_on_c, 0, 47, 62
5, 742400, Note_on_c, 0, 47, 0
5, 742400, Note_on_c, 0, 35, 62
5, 742479, Note_on_c, 0, 35, 0
5, 742479, Note_on_c, 0, 47, 62
5, 742560, Note_on_c, 0, 47, 0
5, 742560, Note_on_c, 0, 35, 62
5, 742640, Note_on_c, 0, 35, 0
5, 742640, Note_on_c, 0, 47, 62
5, 742719, Note_on_c, 0, 47, 0
5, 742719, Note_on_c, 0, 35, 62
5, 742800, Note_on_c, 0, 35, 0
5, 742800, Note_on_c, 0, 47, 62
5, 742880, Note_on_c, 0, 47, 0
5, 742880, Note_on_c, 0, 35, 62
5, 742959, Note_on_c, 0, 35, 0
5, 742959, Note_on_c, 0, 47, 62
5, 743040, Note_on_c, 0, 47, 0
5, 743040, Note_on_c, 0, 35, 62
5, 743120, Note_on_c, 0, 35, 0
5, 743120, Note_on_c, 0, 47, 62
5, 743199, Note_on_c, 0, 47, 0
5, 743199, Note_on_c, 0, 35, 62
5, 743280, Note_on_c, 0, 35, 0
5, 743280, Note_on_c, 0, 47, 62
5, 743360, Note_on_c, 0, 47, 0
5, 743360, Note_on_c, 0, 35, 62
5, 743439, Note_on_c, 0, 35, 0
5, 743439, Note_on_c, 0, 47, 62
5, 743520, Note_on_c, 0, 47, 0
5, 743520, Note_on_c, 0, 35, 62
5, 743600, Note_on_c, 0, 35, 0
5, 743600, Note_on_c, 0, 47, 62
5, 743679, Note_on_c, 0, 47, 0
5, 743679, Note_on_c, 0, 35, 62
5, 743760, Note_on_c, 0, 35, 0
5, 743760, Note_on_c, 0, 47, 62
5, 743840, Note_on_c, 0, 47, 0
5, 743840, Control_c, 0, 64, 0
5, 743840, Note_on_c, 0, 35, 62
5, 743919, Note_on_c, 0, 35, 0
5, 743919, Note_on_c, 0, 47, 62
5, 744000, Note_on_c, 0, 47, 0
5, 744000, Control_c, 0, 64, 127
5, 744000, Note_on_c, 0, 35, 62
5, 744080, Note_on_c, 0, 35, 0
5, 744080, Note_on_c, 0, 47, 62
5, 744159, Note_on_c, 0, 47, 0
5, 744159, Note_on_c, 0, 35, 62
5, 744240, Note_on_c, 0, 35, 0
5, 744240, Note_on_c, 0, 47, 62
5, 744320, Note_on_c, 0, 47, 0
5, 744320, Note_on_c, 0, 35, 62
5, 744399, Note_on_c, 0, 35, 0
5, 744399, Note_on_c, 0, 47, 62
5, 744480, Note_on_c, 0, 47, 0
5, 744480, Note_on_c, 0, 35, 62
5, 744560, Note_on_c, 0, 35, 0
5, 744560, Note_on_c, 0, 47, 62
5, 744639, Note_on_c, 0, 47, 0
5, 744639, Note_on_c, 0, 35, 62
5, 744720, Note_on_c, 0, 35, 0
5, 744720, Note_on_c, 0, 47, 62
5, 744800, Note_on_c, 0, 47, 0
5, 744800, Note_on_c, 0, 35, 62
5, 744879, Note_on_c, 0, 35, 0
5, 744879, Control_c, 0, 64, 0
5, 744879, Note_on_c, 0, 47, 62
5, 744960, Note_on_c, 0, 47, 0
5, 744960, Note_on_c, 0, 35, 88
5, 745440, Note_on_c, 0, 35, 0
5, 745440, Note_on_c, 0, 59, 114
5, 745920, Note_on_c, 0, 59, 0
5, 745920, Note_on_c, 0, 47, 114
5, 745920, Note_on_c, 0, 53, 114
5, 745920, Note_on_c, 0, 56, 114
5, 745920, Note_on_c, 0, 61, 114
5, 746400, Note_on_c, 0, 61, 0
5, 746400, Note_on_c, 0, 47, 0
5, 746400, Note_on_c, 0, 53, 0
5, 746400, Note_on_c, 0, 56, 0
5, 746400, Note_on_c, 0, 62, 114
5, 746880, Note_on_c, 0, 62, 0
5, 746880, Note_on_c, 0, 59, 114
5, 747360, Note_on_c, 0, 59, 0
5, 747360, Note_on_c, 0, 61, 114
5, 747840, Note_on_c, 0, 61, 0
5, 747840, Note_on_c, 0, 47, 88
5, 747840, Note_on_c, 0, 54, 88
5, 747840, Note_on_c, 0, 62, 88
5, 748320, Note_on_c, 0, 62, 0
5, 748320, Note_on_c, 0, 54, 0
5, 748320, Note_on_c, 0, 47, 0
5, 748320, Note_on_c, 0, 63, 114
5, 748800, Note_on_c, 0, 63, 0
5, 748800, Note_on_c, 0, 59, 114
5, 749280, Note_on_c, 0, 59, 0
5, 749280, Note_on_c, 0, 59, 114
5, 749760, Note_on_c, 0, 59, 0
5, 749760, Note_on_c, 0, 47, 88
5, 749760, Note_on_c, 0, 53, 88
5, 749760, Note_on_c, 0, 56, 88
5, 749760, Note_on_c, 0, 61, 88
5, 750240, Note_on_c, 0, 61, 0
5, 750240, Note_on_c, 0, 47, 0
5, 750240, Note_on_c, 0, 53, 0
5, 750240, Note_on_c, 0, 56, 0
5, 750240, Note_on_c, 0, 62, 114
5, 750720, Note_on_c, 0, 62, 0
5, 750720, Note_on_c, 0, 59, 114
5, 751200, Note_on_c, 0, 59, 0
5, 751200, Note_on_c, 0, 61, 114
5, 751680, Note_on_c, 0, 61, 0
5, 751680, Note_on_c, 0, 47, 88
5, 751680, Note_on_c, 0, 54, 88
5, 751680, Note_on_c, 0, 62, 88
5, 752160, Note_on_c, 0, 62, 0
5, 752160, Note_on_c, 0, 54, 0
5, 752160, Note_on_c, 0, 47, 0
5, 752160, Note_on_c, 0, 63, 114
5, 752640, Note_on_c, 0, 63, 0
5, 752640, Note_on_c, 0, 59, 114
5, 753120, Note_on_c, 0, 59, 0
5, 753600, Note_on_c, 0, 45, 88
5, 753600, Note_on_c, 0, 47, 88
5, 753600, Note_on_c, 0, 57, 88
5, 755520, Note_on_c, 0, 57, 0
5, 755520, Note_on_c, 0, 47, 0
5, 755520, Note_on_c, 0, 45, 0
5, 755520, Note_on_c, 0, 44, 88
5, 755520, Note_on_c, 0, 48, 88
5, 755520, Note_on_c, 0, 56, 88
5, 756960, Note_on_c, 0, 56, 0
5, 756960, Note_on_c, 0, 48, 0
5, 756960, Note_on_c, 0, 44, 0
5, 759360, Note_on_c, 0, 49, 49
5, 759360, Note_on_c, 0, 56, 49
5, 759360, Note_on_c, 0, 68, 49
5, 759360, Note_on_c, 0, 73, 49
5, 760800, Note_on_c, 0, 73, 0
5, 760800, Note_on_c, 0, 49, 0
5, 760800, Note_on_c, 0, 56, 0
5, 760800, Note_on_c, 0, 68, 0
5, 760800, Note_on_c, 0, 61, 49
5, 760800, Note_on_c, 0, 68, 49
5, 761280, Note_on_c, 0, 68, 0
5, 761280, Note_on_c, 0, 61, 0
5, 761280, Note_on_c, 0, 47, 49
5, 761280, Note_on_c, 0, 49, 49
5, 761280, Note_on_c, 0, 59, 49
5, 763200, Note_on_c, 0, 59, 0
5, 763200, Note_on_c, 0, 49, 0
5, 763200, Note_on_c, 0, 47, 0
5, 763200, Note_on_c, 0, 46, 49
5, 763200, Note_on_c, 0, 50, 49
5, 763200, Note_on_c, 0, 58, 49
5, 764640, Note_on_c, 0, 58, 0
5, 764640, Note_on_c, 0, 50, 0
5, 764640, Note_on_c, 0, 46, 0
5, 767040, Note_on_c, 0, 51, 49
5, 767040, Note_on_c, 0, 58, 49
5, 767040, Note_on_c, 0, 70, 49
5, 767040, Note_on_c, 0, 75, 49
5, 768480, Note_on_c, 0, 75, 0
5, 768480, Note_on_c, 0, 51, 0
5, 768480, Note_on_c, 0, 58, 0
5, 768480, Note_on_c, 0, 70, 0
5, 768480, Note_on_c, 0, 63, 49
5, 768480, Note_on_c, 0, 70, 49
5, 768960, Note_on_c, 0, 70, 0
5, 768960, Note_on_c, 0, 63, 0
5, 768960, Note_on_c, 0, 49, 49
5, 768960, Note_on_c, 0, 53, 49
5, 768960, Note_on_c, 0, 59, 49
5, 769920, Note_on_c, 0, 59, 0
5, 769920, Note_on_c, 0, 53, 0
5, 769920, Note_on_c, 0, 49, 0
5, 769920, Note_on_c, 0, 48, 49
5, 769920, Note_on_c, 0, 55, 49
5, 770400, Note_on_c, 0, 55, 0
5, 770400, Note_on_c, 0, 48, 0
5, 772320, Note_on_c, 0, 41, 49
5, 772320, Note_on_c, 0, 65, 49
5, 772800, Note_on_c, 0, 65, 0
5, 772800, Note_on_c, 0, 41, 0
5, 772800, Note_on_c, 0, 51, 49
5, 772800, Note_on_c, 0, 55, 49
5, 772800, Note_on_c, 0, 61, 49
5, 773760, Note_on_c, 0, 61, 0
5, 773760, Note_on_c, 0, 55, 0
5, 773760, Note_on_c, 0, 51, 0
5, 773760, Note_on_c, 0, 50, 49
5, 773760, Note_on_c, 0, 57, 49
5, 774240, Note_on_c, 0, 57, 0
5, 774240, Note_on_c, 0, 50, 0
5, 776640, Note_on_c, 0, 49, 49
5, 776640, Note_on_c, 0, 51, 49
5, 776640, Note_on_c, 0, 61, 49
5, 777600, Note_on_c, 0, 61, 0
5, 777600, Note_on_c, 0, 51, 0
5, 777600, Note_on_c, 0, 49, 0
5, 777600, Note_on_c, 0, 48, 49
5, 777600, Note_on_c, 0, 51, 49
5, 777600, Note_on_c, 0, 60, 49
5, 778560, Note_on_c, 0, 60, 0
5, 778560, Note_on_c, 0, 51, 0
5, 778560, Note_on_c, 0, 48, 0
5, 778560, Note_on_c, 0, 51, 49
5, 778560, Note_on_c, 0, 53, 49
5, 778560, Note_on_c, 0, 63, 49
5, 779520, Note_on_c, 0, 63, 0
5, 779520, Note_on_c, 0, 53, 0
5, 779520, Note_on_c, 0, 51, 0
5, 779520, Note_on_c, 0, 49, 49
5, 779520, Note_on_c, 0, 53, 49
5, 779520, Note_on_c, 0, 61, 49
5, 780480, Note_on_c, 0, 61, 0
5, 780480, Note_on_c, 0, 53, 0
5, 780480, Note_on_c, 0, 49, 0
5, 780480, Note_on_c, 0, 36, 75
5, 780480, Note_on_c, 0, 48, 75
5, 780639, Note_on_c, 0, 48, 0
5, 780639, Note_on_c, 0, 36, 0
5, 780639, Note_on_c, 0, 37, 75
5, 780639, Note_on_c, 0, 49, 75
5, 780800, Note_on_c, 0, 49, 0
5, 780800, Note_on_c, 0, 37, 0
5, 780960, Note_on_c, 0, 38, 75
5, 780960, Note_on_c, 0, 50, 75
5, 781119, Note_on_c, 0, 50, 0
5, 781119, Note_on_c, 0, 38, 0
5, 781119, Note_on_c, 0, 37, 75
5, 781119, Note_on_c, 0, 49, 75
5, 781280, Note_on_c, 0, 49, 0
5, 781280, Note_on_c, 0, 37, 0
5, 781440, Note_on_c, 0, 40, 75
5, 781440, Note_on_c, 0, 52, 75
5, 781599, Note_on_c, 0, 52, 0
5, 781599, Note_on_c, 0, 40, 0
5, 781599, Note_on_c, 0, 39, 75
5, 781599, Note_on_c, 0, 51, 75
5, 781760, Note_on_c, 0, 51, 0
5, 781760, Note_on_c, 0, 39, 0
5, 781920, Note_on_c, 0, 38, 75
5, 781920, Note_on_c, 0, 50, 75
5, 782079, Note_on_c, 0, 50, 0
5, 782079, Note_on_c, 0, 38, 0
5, 782079, Note_on_c, 0, 39, 75
5, 782079, Note_on_c, 0, 51, 75
5, 782240, Note_on_c, 0, 51, 0
5, 782240, Note_on_c, 0, 39, 0
5, 782400, Note_on_c, 0, 37, 75
5, 782400, Note_on_c, 0, 49, 75
5, 782559, Note_on_c, 0, 49, 0
5, 782559, Note_on_c, 0, 37, 0
5, 782559, Note_on_c, 0, 38, 75
5, 782559, Note_on_c, 0, 50, 75
5, 782720, Note_on_c, 0, 50, 0
5, 782720, Note_on_c, 0, 38, 0
5, 782880, Note_on_c, 0, 39, 75
5, 782880, Note_on_c, 0, 51, 75
5, 783039, Note_on_c, 0, 51, 0
5, 783039, Note_on_c, 0, 39, 0
5, 783039, Note_on_c, 0, 38, 75
5, 783039, Note_on_c, 0, 50, 75
5, 783200, Note_on_c, 0, 50, 0
5, 783200, Note_on_c, 0, 38, 0
5, 783360, Note_on_c, 0, 41, 75
5, 783360, Note_on_c, 0, 53, 75
5, 783519, Note_on_c, 0, 53, 0
5, 783519, Note_on_c, 0, 41, 0
5, 783519, Note_on_c, 0, 40, 75
5, 783519, Note_on_c, 0, 52, 75
5, 783680, Note_on_c, 0, 52, 0
5, 783680, Note_on_c, 0, 40, 0
5, 783840, Note_on_c, 0, 39, 75
5, 783840, Note_on_c, 0, 51, 75
5, 783999, Note_on_c, 0, 51, 0
5, 783999, Note_on_c, 0, 39, 0
5, 783999, Note_on_c, 0, 40, 75
5, 783999, Note_on_c, 0, 52, 75
5, 784160, Note_on_c, 0, 52, 0
5, 784160, Note_on_c, 0, 40, 0
5, 784320, Note_on_c, 0, 52, 49
5, 784320, Note_on_c, 0, 54, 49
5, 784320, Note_on_c, 0, 64, 49
5, 785280, Note_on_c, 0, 64, 0
5, 785280, Note_on_c, 0, 54, 0
5, 785280, Note_on_c, 0, 52, 0
5, 785280, Note_on_c, 0, 51, 49
5, 785280, Note_on_c, 0, 54, 49
5, 785280, Note_on_c, 0, 63, 49
5, 786240, Note_on_c, 0, 63, 0
5, 786240, Note_on_c, 0, 54, 0
5, 786240, Note_on_c, 0, 51, 0
5, 786240, Note_on_c, 0, 53, 49
5, 786240, Note_on_c, 0, 55, 49
5, 786240, Note_on_c, 0, 65, 49
5, 787200, Note_on_c, 0, 65, 0
5, 787200, Note_on_c, 0, 55, 0
5, 787200, Note_on_c, 0, 53, 0
5, 787200, Note_on_c, 0, 52, 49
5, 787200, Note_on_c, 0, 55, 49
5, 787200, Note_on_c, 0, 64, 49
5, 788160, Note_on_c, 0, 64, 0
5, 788160, Note_on_c, 0, 55, 0
5, 788160, Note_on_c, 0, 52, 0
5, 788160, Note_on_c, 0, 39, 75
5, 788160, Note_on_c, 0, 51, 75
5, 788319, Note_on_c, 0, 51, 0
5, 788319, Note_on_c, 0, 39, 0
5, 788319, Note_on_c, 0, 40, 75
5, 788319, Note_on_c, 0, 52, 75
5, 788480, Note_on_c, 0, 52, 0
5, 788480, Note_on_c, 0, 40, 0
5, 788640, Note_on_c, 0, 41, 75
5, 788640, Note_on_c, 0, 53, 75
5, 788799, Note_on_c, 0, 53, 0
5, 788799, Note_on_c, 0, 41, 0
5, 788799, Note_on_c, 0, 40, 75
5, 788799, Note_on_c, 0, 52, 75
5, 788960, Note_on_c, 0, 52, 0
5, 788960, Note_on_c, 0, 40, 0
5, 789120, Note_on_c, 0, 43, 75
5, 789120, Note_on_c, 0, 55, 75
5, 789279, Note_on_c, 0, 55, 0
5, 789279, Note_on_c, 0, 43, 0
5, 789279, Note_on_c, 0, 41, 75
5, 789279, Note_on_c, 0, 53, 75
5, 789440, Note_on_c, 0, 53, 0
5, 789440, Note_on_c, 0, 41, 0
5, 789600, Note_on_c, 0, 40, 75
5, 789600, Note_on_c, 0, 52, 75
5, 789759, Note_on_c, 0, 52, 0
5, 789759, Note_on_c, 0, 40, 0
5, 789759, Note_on_c, 0, 41, 75
5, 789759, Note_on_c, 0, 53, 75
5, 789920, Note_on_c, 0, 53, 0
5, 789920, Note_on_c, 0, 41, 0
5, 790080, Note_on_c, 0, 40, 75
5, 790080, Note_on_c, 0, 52, 75
5, 790239, Note_on_c, 0, 52, 0
5, 790239, Note_on_c, 0, 40, 0
5, 790239, Note_on_c, 0, 41, 75
5, 790239, Note_on_c, 0, 53, 75
5, 790400, Note_on_c, 0, 53, 0
5, 790400, Note_on_c, 0, 41, 0
5, 790560, Note_on_c, 0, 42, 75
5, 790560, Note_on_c, 0, 54, 75
5, 790719, Note_on_c, 0, 54, 0
5, 790719, Note_on_c, 0, 42, 0
5, 790719, Note_on_c, 0, 41, 75
5, 790719, Note_on_c, 0, 53, 75
5, 790880, Note_on_c, 0, 53, 0
5, 790880, Note_on_c, 0, 41, 0
5, 791040, Note_on_c, 0, 44, 75
5, 791040, Note_on_c, 0, 56, 75
5, 791199, Note_on_c, 0, 56, 0
5, 791199, Note_on_c, 0, 44, 0
5, 791199, Note_on_c, 0, 43, 75
5, 791199, Note_on_c, 0, 55, 75
5, 791360, Note_on_c, 0, 55, 0
5, 791360, Note_on_c, 0, 43, 0
5, 791520, Note_on_c, 0, 42, 75
5, 791520, Note_on_c, 0, 54, 75
5, 791679, Note_on_c, 0, 54, 0
5, 791679, Note_on_c, 0, 42, 0
5, 791679, Note_on_c, 0, 43, 75
5, 791679, Note_on_c, 0, 55, 75
5, 791840, Note_on_c, 0, 55, 0
5, 791840, Note_on_c, 0, 43, 0
5, 792000, Note_on_c, 0, 42, 88
5, 792000, Note_on_c, 0, 54, 88
5, 792240, Note_on_c, 0, 54, 0
5, 792240, Note_on_c, 0, 42, 0
5, 793920, Note_on_c, 0, 41, 88
5, 793920, Note_on_c, 0, 53, 88
5, 794160, Note_on_c, 0, 53, 0
5, 794160, Note_on_c, 0, 41, 0
5, 820710, Note_on_c, 0, 46, 49
5, 820740, Note_on_c, 0, 53, 49
5, 820770, Note_on_c, 0, 58, 49
5, 820800, Control_c, 0, 64, 127
5, 820800, Note_on_c, 0, 61, 49
5, 821670, Note_on_c, 0, 46, 49
5, 821700, Note_on_c, 0, 53, 49
5, 821730, Note_on_c, 0, 58, 49
5, 821760, Note_on_c, 0, 61, 0
5, 821760, Note_on_c, 0, 58, 0
5, 821760, Note_on_c, 0, 46, 0
5, 821760, Note_on_c, 0, 53, 0
5, 821760, Control_c, 0, 64, 0
5, 821760, Note_on_c, 0, 61, 49
5, 822630, Note_on_c, 0, 46, 49
5, 822660, Note_on_c, 0, 53, 49
5, 822690, Note_on_c, 0, 60, 49
5, 822720, Note_on_c, 0, 61, 0
5, 822720, Note_on_c, 0, 58, 0
5, 822720, Note_on_c, 0, 53, 0
5, 822720, Note_on_c, 0, 46, 0
5, 822720, Control_c, 0, 64, 127
5, 822720, Note_on_c, 0, 63, 49
5, 823590, Note_on_c, 0, 46, 49
5, 823620, Note_on_c, 0, 53, 49
5, 823650, Note_on_c, 0, 60, 49
5, 823680, Note_on_c, 0, 63, 0
5, 823680, Note_on_c, 0, 60, 0
5, 823680, Note_on_c, 0, 53, 0
5, 823680, Note_on_c, 0, 46, 0
5, 823680, Control_c, 0, 64, 0
5, 823680, Note_on_c, 0, 63, 49
5, 824550, Note_on_c, 0, 46, 49
5, 824580, Note_on_c, 0, 53, 49
5, 824610, Note_on_c, 0, 58, 49
5, 824640, Note_on_c, 0, 63, 0
5, 824640, Note_on_c, 0, 60, 0
5, 824640, Note_on_c, 0, 53, 0
5, 824640, Note_on_c, 0, 46, 0
5, 824640, Control_c, 0, 64, 127
5, 824640, Note_on_c, 0, 61, 49
5, 825510, Note_on_c, 0, 46, 49
5, 825540, Note_on_c, 0, 53, 49
5, 825570, Note_on_c, 0, 58, 49
5, 825600, Note_on_c, 0, 61, 0
5, 825600, Note_on_c, 0, 58, 0
5, 825600, Note_on_c, 0, 53, 0
5, 825600, Note_on_c, 0, 46, 0
5, 825600, Control_c, 0, 64, 0
5, 825600, Note_on_c, 0, 61, 49
5, 826470, Note_on_c, 0, 46, 49
5, 826500, Note_on_c, 0, 53, 49
5, 826530, Note_on_c, 0, 57, 49
5, 826560, Note_on_c, 0, 61, 0
5, 826560, Note_on_c, 0, 58, 0
5, 826560, Note_on_c, 0, 53, 0
5, 826560, Note_on_c, 0, 46, 0
5, 826560, Note_on_c, 0, 63, 49
5, 827430, Note_on_c, 0, 46, 49
5, 827460, Note_on_c, 0, 53, 49
5, 827490, Note_on_c, 0, 57, 49
5, 827520, Note_on_c, 0, 63, 0
5, 827520, Note_on_c, 0, 57, 0
5, 827520, Note_on_c, 0, 53, 0
5, 827520, Note_on_c, 0, 46, 0
5, 827520, Note_on_c, 0, 63, 49
5, 828390, Note_on_c, 0, 46, 49
5, 828420, Note_on_c, 0, 53, 49
5, 828450, Note_on_c, 0, 58, 49
5, 828480, Note_on_c, 0, 63, 0
5, 828480, Note_on_c, 0, 57, 0
5, 828480, Note_on_c, 0, 53, 0
5, 828480, Note_on_c, 0, 46, 0
5, 828480, Note_on_c, 0, 61, 49
5, 829350, Note_on_c, 0, 46, 49
5, 829380, Note_on_c, 0, 53, 49
5, 829410, Note_on_c, 0, 58, 49
5, 829440, Note_on_c, 0, 61, 0
5, 829440, Note_on_c, 0, 58, 0
5, 829440, Note_on_c, 0, 53, 0
5, 829440, Note_on_c, 0, 46, 0
5, 829440, Note_on_c, 0, 61, 49
5, 830310, Note_on_c, 0, 46, 49
5, 830340, Note_on_c, 0, 53, 49
5, 830370, Note_on_c, 0, 60, 49
5, 830400, Note_on_c, 0, 61, 0
5, 830400, Note_on_c, 0, 58, 0
5, 830400, Note_on_c, 0, 53, 0
5, 830400, Note_on_c, 0, 46, 0
5, 830400, Note_on_c, 0, 63, 49
5, 831270, Note_on_c, 0, 46, 49
5, 831300, Note_on_c, 0, 53, 49
5, 831330, Note_on_c, 0, 60, 49
5, 831360, Note_on_c, 0, 63, 0
5, 831360, Note_on_c, 0, 60, 0
5, 831360, Note_on_c, 0, 53, 0
5, 831360, Note_on_c, 0, 46, 0
5, 831360, Note_on_c, 0, 63, 49
5, 832230, Note_on_c, 0, 46, 49
5, 832260, Note_on_c, 0, 53, 49
5, 832290, Note_on_c, 0, 58, 49
5, 832320, Note_on_c, 0, 63, 0
5, 832320, Note_on_c, 0, 60, 0
5, 832320, Note_on_c, 0, 53, 0
5, 832320, Note_on_c, 0, 46, 0
5, 832320, Note_on_c, 0, 61, 49
5, 833190, Note_on_c, 0, 46, 49
5, 833220, Note_on_c, 0, 53, 49
5, 833250, Note_on_c, 0, 58, 49
5, 833280, Note_on_c, 0, 61, 0
5, 833280, Note_on_c, 0, 58, 0
5, 833280, Note_on_c, 0, 53, 0
5, 833280, Note_on_c, 0, 46, 0
5, 833280, Note_on_c, 0, 61, 49
5, 834150, Note_on_c, 0, 46, 49
5, 834180, Note_on_c, 0, 53, 49
5, 834210, Note_on_c, 0, 56, 49
5, 834240, Note_on_c, 0, 61, 0
5, 834240, Note_on_c, 0, 58, 0
5, 834240, Note_on_c, 0, 53, 0
5, 834240, Note_on_c, 0, 46, 0
5, 834240, Note_on_c, 0, 62, 49
5, 835110, Note_on_c, 0, 47, 49
5, 835140, Note_on_c, 0, 53, 49
5, 835170, Note_on_c, 0, 55, 49
5, 835200, Note_on_c, 0, 62, 0
5, 835200, Note_on_c, 0, 56, 0
5, 835200, Note_on_c, 0, 53, 0
5, 835200, Note_on_c, 0, 46, 0
5, 835200, Note_on_c, 0, 62, 49
5, 836070, Note_on_c, 0, 48, 49
5, 836100, Note_on_c, 0, 51, 49
5, 836130, Note_on_c, 0, 55, 49
5, 836160, Note_on_c, 0, 62, 0
5, 836160, Note_on_c, 0, 55, 0
5, 836160, Note_on_c, 0, 53, 0
5, 836160, Note_on_c, 0, 47, 0
5, 836160, Note_on_c, 0, 60, 49
5, 837030, Note_on_c, 0, 48, 49
5, 837060, Note_on_c, 0, 51, 49
5, 837090, Note_on_c, 0, 55, 49
5, 837120, Note_on_c, 0, 60, 0
5, 837120, Note_on_c, 0, 55, 0
5, 837120, Note_on_c, 0, 51, 0
5, 837120, Note_on_c, 0, 48, 0
5, 837120, Note_on_c, 0, 60, 49
5, 837990, Note_on_c, 0, 48, 49
5, 838020, Note_on_c, 0, 53, 49
5, 838050, Note_on_c, 0, 55, 49
5, 838080, Note_on_c, 0, 60, 0
5, 838080, Note_on_c, 0, 55, 0
5, 838080, Note_on_c, 0, 51, 0
5, 838080, Note_on_c, 0, 48, 0
5, 838080, Note_on_c, 0, 62, 49
5, 838950, Note_on_c, 0, 48, 49
5, 838980, Note_on_c, 0, 53, 49
5, 839010, Note_on_c, 0, 55, 49
5, 839040, Note_on_c, 0, 62, 0
5, 839040, Note_on_c, 0, 55, 0
5, 839040, Note_on_c, 0, 53, 0
5, 839040, Note_on_c, 0, 48, 0
5, 839040, Note_on_c, 0, 62, 49
5, 839910, Note_on_c, 0, 48, 49
5, 839940, Note_on_c, 0, 51, 49
5, 839970, Note_on_c, 0, 55, 49
5, 840000, Note_on_c, 0, 62, 0
5, 840000, Note_on_c, 0, 55, 0
5, 840000, Note_on_c, 0, 53, 0
5, 840000, Note_on_c, 0, 48, 0
5, 840000, Note_on_c, 0, 60, 49
5, 840960, Note_on_c, 0, 60, 0
5, 840960, Note_on_c, 0, 51, 0
5, 840960, Note_on_c, 0, 48, 0
5, 840960, Note_on_c, 0, 55, 0
5, 841920, Note_on_c, 0, 36, 49
5, 841920, Note_on_c, 0, 43, 49
5, 841920, Note_on_c, 0, 48, 49
5, 842880, Note_on_c, 0, 48, 0
5, 842880, Note_on_c, 0, 43, 0
5, 842880, Note_on_c, 0, 36, 0
5, 849600, Note_on_c, 0, 48, 49
5, 849600, Note_on_c, 0, 55, 49
5, 849600, Note_on_c, 0, 63, 49
5, 850080, Note_on_c, 0, 63, 0
5, 850080, Note_on_c, 0, 55, 0
5, 850080, Note_on_c, 0, 48, 0
5, 850080, Note_on_c, 0, 48, 49
5, 850080, Note_on_c, 0, 53, 49
5, 850080, Note_on_c, 0, 56, 49
5, 850080, Note_on_c, 0, 60, 49
5, 851040, Note_on_c, 0, 60, 0
5, 851040, Note_on_c, 0, 48, 0
5, 851040, Note_on_c, 0, 53, 0
5, 851040, Note_on_c, 0, 56, 0
5, 851040, Note_on_c, 0, 48, 49
5, 851040, Note_on_c, 0, 55, 49
5, 851040, Note_on_c, 0, 60, 49
5, 851520, Note_on_c, 0, 60, 0
5, 851520, Note_on_c, 0, 55, 0
5, 851520, Note_on_c, 0, 48, 0
5, 853440, Note_on_c, 0, 48, 49
5, 853440, Note_on_c, 0, 55, 49
5, 853440, Note_on_c, 0, 60, 49
5, 853920, Note_on_c, 0, 60, 0
5, 853920, Note_on_c, 0, 55, 0
5, 853920, Note_on_c, 0, 48, 0
5, 853920, Note_on_c, 0, 48, 49
5, 853920, Note_on_c, 0, 56, 49
5, 854880, Note_on_c, 0, 56, 0
5, 854880, Note_on_c, 0, 48, 0
5, 854880, Note_on_c, 0, 48, 49
5, 854880, Note_on_c, 0, 55, 49
5, 855360, Note_on_c, 0, 55, 0
5, 855360, Note_on_c, 0, 48, 0
5, 859200, Note_on_c, 0, 58, 49
5, 861120, Note_on_c, 0, 58, 0
5, 861120, Note_on_c, 0, 57, 49
5, 863040, Note_on_c, 0, 57, 0
5, 863040, Note_on_c, 0, 55, 49
5, 864960, Note_on_c, 0, 55, 0
5, 864960, Note_on_c, 0, 53, 49
5, 865440, Note_on_c, 0, 53, 0
5, 865440, Note_on_c, 0, 55, 49
5, 865920, Note_on_c, 0, 55, 0
5, 865920, Note_on_c, 0, 56, 49
5, 866400, Note_on_c, 0, 56, 0
5, 866400, Note_on_c, 0, 57, 49
5, 866880, Note_on_c, 0, 57, 0
5, 866880, Note_on_c, 0, 58, 49
5, 867840, Note_on_c, 0, 58, 0
5, 867840, Note_on_c, 0, 51, 49
5, 869280, Note_on_c, 0, 51, 0
5, 869280, Note_on_c, 0, 55, 49
5, 869760, Note_on_c, 0, 55, 0
5, 869760, Note_on_c, 0, 48, 49
5, 870720, Note_on_c, 0, 48, 0
5, 871200, Note_on_c, 0, 43, 49
5, 871200, Note_on_c, 0, 50, 49
5, 872640, Note_on_c, 0, 50, 0
5, 872640, Note_on_c, 0, 43, 0
5, 872640, Note_on_c, 0, 53, 62
5, 874560, Note_on_c, 0, 53, 0
5, 876480, Note_on_c, 0, 57, 62
5, 876480, Note_on_c, 0, 60, 62
5, 878400, Note_on_c, 0, 60, 0
5, 878400, Note_on_c, 0, 57, 0
5, 878400, Note_on_c, 0, 55, 62
5, 878400, Note_on_c, 0, 60, 62
5, 879360, Note_on_c, 0, 60, 0
5, 879360, Note_on_c, 0, 55, 0
5, 879360, Note_on_c, 0, 53, 75
5, 879360, Note_on_c, 0, 60, 75
5, 880320, Note_on_c, 0, 60, 0
5, 880320, Note_on_c, 0, 53, 0
5, 881280, Note_on_c, 0, 56, 62
5, 881760, Note_on_c, 0, 56, 0
5, 881760, Note_on_c, 0, 57, 62
5, 882240, Note_on_c, 0, 57, 0
5, 882240, Note_on_c, 0, 58, 62
5, 883200, Note_on_c, 0, 58, 0
5, 883200, Note_on_c, 0, 57, 75
5, 885120, Note_on_c, 0, 57, 0
5, 885120, Note_on_c, 0, 57, 75
5, 887040, Note_on_c, 0, 57, 0
5, 887040, Note_on_c, 0, 57, 75
5, 888960, Note_on_c, 0, 57, 0
5, 888960, Note_on_c, 0, 57, 75
5, 890880, Note_on_c, 0, 57, 0
5, 890880, Note_on_c, 0, 57, 75
5, 891840, Note_on_c, 0, 57, 0
5, 891840, Note_on_c, 0, 45, 75
5, 894720, Note_on_c, 0, 45, 0
5, 894720, Note_on_c, 0, 45, 49
5, 897600, Note_on_c, 0, 45, 0
5, 897600, Note_on_c, 0, 38, 49
5, 897600, Note_on_c, 0, 45, 49
5, 897600, Note_on_c, 0, 50, 49
5, 898080, Note_on_c, 0, 50, 0
5, 898080, Note_on_c, 0, 45, 0
5, 898080, Note_on_c, 0, 38, 0
5, 899520, Note_on_c, 0, 46, 49
5, 899520, Note_on_c, 0, 58, 49
5, 901440, Note_on_c, 0, 58, 0
5, 901440, Note_on_c, 0, 46, 0
5, 901440, Note_on_c, 0, 45, 49
5, 901440, Note_on_c, 0, 57, 49
5, 903360, Note_on_c, 0, 57, 0
5, 903360, Note_on_c, 0, 45, 0
5, 903360, Note_on_c, 0, 43, 49
5, 903360, Note_on_c, 0, 55, 49
5, 904320, Note_on_c, 0, 55, 0
5, 904320, Note_on_c, 0, 43, 0
5, 904320, Note_on_c, 0, 42, 49
5, 904320, Note_on_c, 0, 54, 49
5, 905280, Note_on_c, 0, 54, 0
5, 905280, Note_on_c, 0, 42, 0
5, 905280, Note_on_c, 0, 41, 49
5, 905280, Note_on_c, 0, 53, 49
5, 905760, Note_on_c, 0, 53, 0
5, 905760, Note_on_c, 0, 41, 0
5, 905760, Note_on_c, 0, 43, 49
5, 905760, Note_on_c, 0, 55, 49
5, 906240, Note_on_c, 0, 55, 0
5, 906240, Note_on_c, 0, 43, 0
5, 906240, Note_on_c, 0, 44, 49
5, 906240, Note_on_c, 0, 56, 49
5, 906720, Note_on_c, 0, 56, 0
5, 906720, Note_on_c, 0, 44, 0
5, 906720, Note_on_c, 0, 45, 49
5, 906720, Note_on_c, 0, 57, 49
5, 907200, Note_on_c, 0, 57, 0
5, 907200, Note_on_c, 0, 45, 0
5, 907200, Note_on_c, 0, 46, 49
5, 907200, Note_on_c, 0, 58, 49
5, 907680, Note_on_c, 0, 58, 0
5, 907680, Note_on_c, 0, 46, 0
5, 908160, Note_on_c, 0, 51, 49
5, 908160, Note_on_c, 0, 55, 49
5, 908160, Note_on_c, 0, 59, 49
5, 909600, Note_on_c, 0, 59, 0
5, 909600, Note_on_c, 0, 55, 0
5, 909600, Note_on_c, 0, 51, 0
5, 909600, Note_on_c, 0, 55, 49
5, 909600, Note_on_c, 0, 59, 49
5, 910080, Note_on_c, 0, 59, 0
5, 910080, Note_on_c, 0, 55, 0
5, 910080, Note_on_c, 0, 51, 49
5, 910080, Note_on_c, 0, 55, 49
5, 910560, Note_on_c, 0, 55, 0
5, 910560, Note_on_c, 0, 51, 0
5, 912960, Note_on_c, 0, 41, 49
5, 912960, Note_on_c, 0, 53, 49
5, 914400, Note_on_c, 0, 53, 0
5, 914400, Note_on_c, 0, 41, 0
5, 914880, Note_on_c, 0, 46, 75
5, 914880, Note_on_c, 0, 48, 75
5, 914880, Note_on_c, 0, 58, 75
5, 914880, Note_on_c, 0, 63, 75
5, 914880, Note_on_c, 0, 67, 75
5, 916800, Note_on_c, 0, 67, 0
5, 916800, Note_on_c, 0, 58, 0
5, 916800, Note_on_c, 0, 46, 0
5, 916800, Note_on_c, 0, 48, 0
5, 916800, Note_on_c, 0, 63, 0
5, 916800, Note_on_c, 0, 45, 75
5, 916800, Note_on_c, 0, 48, 75
5, 916800, Note_on_c, 0, 57, 75
5, 916800, Note_on_c, 0, 67, 75
5, 916800, Note_on_c, 0, 72, 75
5, 918720, Note_on_c, 0, 72, 0
5, 918720, Note_on_c, 0, 57, 0
5, 918720, Note_on_c, 0, 45, 0
5, 918720, Note_on_c, 0, 48, 0
5, 918720, Note_on_c, 0, 67, 0
5, 918720, Note_on_c, 0, 43, 75
5, 918720, Note_on_c, 0, 48, 75
5, 918720, Note_on_c, 0, 55, 75
5, 918720, Note_on_c, 0, 72, 75
5, 918720, Note_on_c, 0, 75, 75
5, 919680, Note_on_c, 0, 75, 0
5, 919680, Note_on_c, 0, 55, 0
5, 919680, Note_on_c, 0, 43, 0
5, 919680, Note_on_c, 0, 48, 0
5, 919680, Note_on_c, 0, 72, 0
5, 919680, Note_on_c, 0, 42, 75
5, 919680, Note_on_c, 0, 50, 75
5, 919680, Note_on_c, 0, 54, 75
5, 920640, Note_on_c, 0, 54, 0
5, 920640, Note_on_c, 0, 50, 0
5, 920640, Note_on_c, 0, 42, 0
5, 920640, Note_on_c, 0, 43, 75
5, 920640, Note_on_c, 0, 50, 75
5, 920640, Note_on_c, 0, 55, 75
5, 921120, Note_on_c, 0, 55, 0
5, 921120, Note_on_c, 0, 50, 0
5, 921120, Note_on_c, 0, 43, 0
5, 921120, Note_on_c, 0, 45, 75
5, 921120, Note_on_c, 0, 50, 75
5, 921120, Note_on_c, 0, 57, 75
5, 921600, Note_on_c, 0, 57, 0
5, 921600, Note_on_c, 0, 50, 0
5, 921600, Note_on_c, 0, 45, 0
5, 921600, Note_on_c, 0, 46, 75
5, 921600, Note_on_c, 0, 50, 75
5, 921600, Note_on_c, 0, 58, 75
5, 922080, Note_on_c, 0, 58, 0
5, 922080, Note_on_c, 0, 50, 0
5, 922080, Note_on_c, 0, 46, 0
5, 922080, Note_on_c, 0, 47, 75
5, 922080, Note_on_c, 0, 50, 75
5, 922080, Note_on_c, 0, 59, 75
5, 922560, Note_on_c, 0, 59, 0
5, 922560, Note_on_c, 0, 50, 0
5, 922560, Note_on_c, 0, 47, 0
5, 922560, Note_on_c, 0, 48, 75
5, 922560, Note_on_c, 0, 60, 75
5, 922560, Note_on_c, 0, 67, 75
5, 922560, Note_on_c, 0, 72, 75
5, 923520, Note_on_c, 0, 72, 0
5, 923520, Note_on_c, 0, 48, 0
5, 923520, Note_on_c, 0, 60, 0
5, 923520, Note_on_c, 0, 67, 0
5, 923520, Note_on_c, 0, 46, 75
5, 923520, Note_on_c, 0, 72, 75
5, 923520, Note_on_c, 0, 75, 75
5, 924480, Note_on_c, 0, 75, 0
5, 924480, Note_on_c, 0, 72, 0
5, 924480, Note_on_c, 0, 46, 0
5, 924480, Note_on_c, 0, 45, 75
5, 924480, Note_on_c, 0, 72, 75
5, 924960, Note_on_c, 0, 53, 75
5, 925440, Note_on_c, 0, 53, 0
5, 925440, Note_on_c, 0, 72, 0
5, 925440, Note_on_c, 0, 45, 0
5, 925440, Note_on_c, 0, 41, 75
5, 925440, Note_on_c, 0, 57, 75
5, 925440, Note_on_c, 0, 73, 75
5, 925920, Note_on_c, 0, 57, 0
5, 925920, Note_on_c, 0, 55, 75
5, 926400, Note_on_c, 0, 55, 0
5, 926400, Note_on_c, 0, 73, 0
5, 926400, Note_on_c, 0, 41, 0
5, 926400, Note_on_c, 0, 46, 75
5, 926400, Note_on_c, 0, 53, 75
5, 926400, Note_on_c, 0, 74, 75
5, 927360, Note_on_c, 0, 74, 0
5, 927360, Note_on_c, 0, 46, 0
5, 927360, Note_on_c, 0, 47, 75
5, 927360, Note_on_c, 0, 74, 75
5, 927360, Note_on_c, 0, 77, 75
5, 928320, Note_on_c, 0, 77, 0
5, 928320, Note_on_c, 0, 53, 0
5, 928320, Note_on_c, 0, 47, 0
5, 928320, Note_on_c, 0, 74, 0
5, 928320, Note_on_c, 0, 48, 75
5, 928320, Note_on_c, 0, 53, 75
5, 928800, Note_on_c, 0, 53, 0
5, 928800, Note_on_c, 0, 53, 75
5, 929280, Note_on_c, 0, 53, 0
5, 929280, Note_on_c, 0, 48, 0
5, 929280, Note_on_c, 0, 41, 75
5, 929280, Note_on_c, 0, 57, 75
5, 929760, Note_on_c, 0, 57, 0
5, 929760, Note_on_c, 0, 55, 75
5, 930240, Note_on_c, 0, 55, 0
5, 930240, Note_on_c, 0, 41, 0
5, 930240, Note_on_c, 0, 46, 75
5, 930240, Note_on_c, 0, 53, 75
5, 931200, Note_on_c, 0, 53, 0
5, 931200, Note_on_c, 0, 46, 0
5, 931200, Note_on_c, 0, 47, 75
5, 931200, Note_on_c, 0, 55, 75
5, 931200, Note_on_c, 0, 62, 75
5, 932160, Note_on_c, 0, 62, 0
5, 932160, Note_on_c, 0, 55, 0
5, 932160, Note_on_c, 0, 47, 0
5, 932160, Note_on_c, 0, 48, 75
5, 932160, Note_on_c, 0, 55, 75
5, 932160, Note_on_c, 0, 60, 75
5, 933120, Note_on_c, 0, 60, 0
5, 933120, Note_on_c, 0, 55, 0
5, 933120, Note_on_c, 0, 48, 0
5, 933120, Note_on_c, 0, 49, 75
5, 933120, Note_on_c, 0, 57, 75
5, 933120, Note_on_c, 0, 64, 75
5, 934080, Note_on_c, 0, 64, 0
5, 934080, Note_on_c, 0, 57, 0
5, 934080, Note_on_c, 0, 49, 0
5, 934080, Note_on_c, 0, 50, 75
5, 934080, Note_on_c, 0, 57, 75
5, 934080, Note_on_c, 0, 62, 75
5, 935040, Note_on_c, 0, 62, 0
5, 935040, Note_on_c, 0, 57, 0
5, 935040, Note_on_c, 0, 50, 0
5, 935040, Note_on_c, 0, 50, 75
5, 935040, Note_on_c, 0, 58, 75
5, 935040, Note_on_c, 0, 65, 75
5, 936000, Note_on_c, 0, 65, 0
5, 936000, Note_on_c, 0, 58, 0
5, 936000, Note_on_c, 0, 50, 0
5, 936000, Note_on_c, 0, 51, 75
5, 936000, Note_on_c, 0, 58, 75
5, 936000, Note_on_c, 0, 63, 75
5, 936960, Note_on_c, 0, 63, 0
5, 936960, Note_on_c, 0, 58, 0
5, 936960, Note_on_c, 0, 51, 0
5, 936960, Note_on_c, 0, 52, 75
5, 936960, Note_on_c, 0, 60, 75
5, 936960, Note_on_c, 0, 67, 75
5, 937920, Note_on_c, 0, 67, 0
5, 937920, Note_on_c, 0, 60, 0
5, 937920, Note_on_c, 0, 52, 0
5, 937920, Note_on_c, 0, 53, 75
5, 937920, Note_on_c, 0, 58, 75
5, 937920, Note_on_c, 0, 65, 75
5, 938880, Note_on_c, 0, 65, 0
5, 938880, Note_on_c, 0, 58, 0
5, 938880, Note_on_c, 0, 53, 0
5, 938880, Note_on_c, 0, 55, 75
5, 938880, Note_on_c, 0, 58, 75
5, 938880, Note_on_c, 0, 67, 75
5, 939360, Note_on_c, 0, 67, 0
5, 939360, Note_on_c, 0, 58, 0
5, 939360, Note_on_c, 0, 55, 0
5, 939360, Note_on_c, 0, 54, 75
5, 939360, Note_on_c, 0, 58, 75
5, 939360, Note_on_c, 0, 66, 75
5, 939840, Note_on_c, 0, 66, 0
5, 939840, Note_on_c, 0, 58, 0
5, 939840, Note_on_c, 0, 54, 0
5, 939840, Note_on_c, 0, 53, 62
5, 939840, Note_on_c, 0, 58, 62
5, 939840, Note_on_c, 0, 65, 62
5, 940320, Note_on_c, 0, 65, 0
5, 940320, Note_on_c, 0, 58, 0
5, 940320, Note_on_c, 0, 53, 0
5, 940800, Note_on_c, 0, 41, 62
5, 940800, Note_on_c, 0, 53, 62
5, 941760, Note_on_c, 0, 53, 0
5, 941760, Note_on_c, 0, 41, 0
5, 941760, Note_on_c, 0, 53, 62
5, 941760, Note_on_c, 0, 58, 62
5, 941760, Note_on_c, 0, 62, 62
5, 941760, Note_on_c, 0, 65, 62
5, 943680, Note_on_c, 0, 65, 0
5, 943680, Note_on_c, 0, 53, 0
5, 943680, Note_on_c, 0, 58, 0
5, 943680, Note_on_c, 0, 62, 0
5, 943680, Note_on_c, 0, 53, 62
5, 943680, Note_on_c, 0, 59, 62
5, 943680, Note_on_c, 0, 62, 62
5, 943680, Note_on_c, 0, 67, 62
5, 944640, Note_on_c, 0, 67, 0
5, 944640, Note_on_c, 0, 53, 0
5, 944640, Note_on_c, 0, 59, 0
5, 944640, Note_on_c, 0, 62, 0
5, 944640, Note_on_c, 0, 41, 62
5, 944640, Note_on_c, 0, 53, 62
5, 945600, Note_on_c, 0, 53, 0
5, 945600, Note_on_c, 0, 41, 0
5, 945600, Note_on_c, 0, 53, 62
5, 945600, Note_on_c, 0, 59, 62
5, 945600, Note_on_c, 0, 62, 62
5, 945600, Note_on_c, 0, 67, 62
5, 947520, Note_on_c, 0, 67, 0
5, 947520, Note_on_c, 0, 53, 0
5, 947520, Note_on_c, 0, 59, 0
5, 947520, Note_on_c, 0, 62, 0
5, 947520, Note_on_c, 0, 53, 62
5, 947520, Note_on_c, 0, 60, 62
5, 947520, Note_on_c, 0, 63, 62
5, 947520, Note_on_c, 0, 67, 62
5, 948480, Note_on_c, 0, 67, 0
5, 948480, Note_on_c, 0, 53, 0
5, 948480, Note_on_c, 0, 60, 0
5, 948480, Note_on_c, 0, 63, 0
5, 948480, Note_on_c, 0, 41, 62
5, 948480, Note_on_c, 0, 53, 62
5, 949440, Note_on_c, 0, 53, 0
5, 949440, Note_on_c, 0, 41, 0
5, 949440, Note_on_c, 0, 53, 62
5, 949440, Note_on_c, 0, 60, 62
5, 949440, Note_on_c, 0, 63, 62
5, 949440, Note_on_c, 0, 67, 62
5, 951360, Note_on_c, 0, 67, 0
5, 951360, Note_on_c, 0, 53, 0
5, 951360, Note_on_c, 0, 60, 0
5, 951360, Note_on_c, 0, 63, 0
5, 951360, Note_on_c, 0, 53, 75
5, 951360, Note_on_c, 0, 58, 75
5, 951360, Note_on_c, 0, 61, 75
5, 951360, Note_on_c, 0, 67, 75
5, 952320, Note_on_c, 0, 67, 0
5, 952320, Note_on_c, 0, 53, 0
5, 952320, Note_on_c, 0, 58, 0
5, 952320, Note_on_c, 0, 61, 0
5, 952320, Note_on_c, 0, 41, 75
5, 952320, Note_on_c, 0, 53, 75
5, 953280, Note_on_c, 0, 53, 0
5, 953280, Note_on_c, 0, 41, 0
5, 953280, Note_on_c, 0, 53, 75
5, 953280, Note_on_c, 0, 58, 75
5, 953280, Note_on_c, 0, 61, 75
5, 953280, Note_on_c, 0, 67, 75
5, 954240, Note_on_c, 0, 67, 0
5, 954240, Note_on_c, 0, 53, 0
5, 954240, Note_on_c, 0, 58, 0
5, 954240, Note_on_c, 0, 61, 0
5, 954240, Note_on_c, 0, 41, 75
5, 954240, Note_on_c, 0, 53, 75
5, 955200, Note_on_c, 0, 53, 0
5, 955200, Note_on_c, 0, 41, 0
5, 955200, Note_on_c, 0, 53, 75
5, 955200, Note_on_c, 0, 58, 75
5, 955200, Note_on_c, 0, 61, 75
5, 955200, Note_on_c, 0, 67, 75
5, 956160, Note_on_c, 0, 67, 0
5, 956160, Note_on_c, 0, 53, 0
5, 956160, Note_on_c, 0, 58, 0
5, 956160, Note_on_c, 0, 61, 0
5, 956160, Note_on_c, 0, 41, 75
5, 956160, Note_on_c, 0, 53, 75
5, 957120, Note_on_c, 0, 53, 0
5, 957120, Note_on_c, 0, 41, 0
5, 957120, Note_on_c, 0, 53, 75
5, 957120, Note_on_c, 0, 58, 75
5, 957120, Note_on_c, 0, 61, 75
5, 957120, Note_on_c, 0, 67, 75
5, 958080, Note_on_c, 0, 67, 0
5, 958080, Note_on_c, 0, 53, 0
5, 958080, Note_on_c, 0, 58, 0
5, 958080, Note_on_c, 0, 61, 0
5, 958080, Note_on_c, 0, 41, 75
5, 958080, Note_on_c, 0, 53, 75
5, 959040, Note_on_c, 0, 53, 0
5, 959040, Note_on_c, 0, 41, 0
5, 959040, Note_on_c, 0, 53, 75
5, 959040, Note_on_c, 0, 58, 75
5, 959040, Note_on_c, 0, 62, 75
5, 959040, Note_on_c, 0, 65, 75
5, 959280, Note_on_c, 0, 65, 0
5, 959280, Note_on_c, 0, 53, 0
5, 959280, Note_on_c, 0, 58, 0
5, 959280, Note_on_c, 0, 62, 0
5, 959520, Note_on_c, 0, 53, 62
5, 959520, Note_on_c, 0, 58, 62
5, 959520, Note_on_c, 0, 62, 62
5, 959520, Note_on_c, 0, 65, 62
5, 960480, Note_on_c, 0, 65, 0
5, 960480, Note_on_c, 0, 53, 0
5, 960480, Note_on_c, 0, 58, 0
5, 960480, Note_on_c, 0, 62, 0
5, 960480, Note_on_c, 0, 53, 62
5, 960480, Note_on_c, 0, 58, 62
5, 960480, Note_on_c, 0, 62, 62
5, 960480, Note_on_c, 0, 65, 62
5, 960511, Note_on_c, 0, 65, 0
5, 960511, Note_on_c, 0, 53, 0
5, 960511, Note_on_c, 0, 58, 0
5, 960511, Note_on_c, 0, 62, 0
5, 960639, Note_on_c, 0, 58, 62
5, 960639, Note_on_c, 0, 62, 62
5, 960639, Note_on_c, 0, 64, 62
5, 960671, Note_on_c, 0, 64, 0
5, 960671, Note_on_c, 0, 62, 0
5, 960671, Note_on_c, 0, 58, 0
5, 960800, Note_on_c, 0, 58, 62
5, 960800, Note_on_c, 0, 62, 62
5, 960800, Note_on_c, 0, 65, 62
5, 960832, Note_on_c, 0, 65, 0
5, 960832, Note_on_c, 0, 62, 0
5, 960832, Note_on_c, 0, 58, 0
5, 960960, Note_on_c, 0, 53, 62
5, 960960, Note_on_c, 0, 59, 62
5, 960960, Note_on_c, 0, 62, 62
5, 960960, Note_on_c, 0, 67, 62
5, 961440, Note_on_c, 0, 67, 0
5, 961440, Note_on_c, 0, 53, 0
5, 961440, Note_on_c, 0, 59, 0
5, 961440, Note_on_c, 0, 62, 0
5, 961440, Note_on_c, 0, 53, 62
5, 961440, Note_on_c, 0, 59, 62
5, 961440, Note_on_c, 0, 62, 62
5, 961440, Note_on_c, 0, 67, 62
5, 962400, Note_on_c, 0, 67, 0
5, 962400, Note_on_c, 0, 53, 0
5, 962400, Note_on_c, 0, 59, 0
5, 962400, Note_on_c, 0, 62, 0
5, 962400, Note_on_c, 0, 53, 62
5, 962400, Note_on_c, 0, 59, 62
5, 962400, Note_on_c, 0, 62, 62
5, 962400, Note_on_c, 0, 67, 62
5, 962431, Note_on_c, 0, 67, 0
5, 962431, Note_on_c, 0, 53, 0
5, 962431, Note_on_c, 0, 59, 0
5, 962431, Note_on_c, 0, 62, 0
5, 962559, Note_on_c, 0, 59, 62
5, 962559, Note_on_c, 0, 62, 62
5, 962559, Note_on_c, 0, 66, 62
5, 962591, Note_on_c, 0, 66, 0
5, 962591, Note_on_c, 0, 62, 0
5, 962591, Note_on_c, 0, 59, 0
5, 962720, Note_on_c, 0, 59, 62
5, 962720, Note_on_c, 0, 62, 62
5, 962720, Note_on_c, 0, 67, 62
5, 962752, Note_on_c, 0, 67, 0
5, 962752, Note_on_c, 0, 62, 0
5, 962752, Note_on_c, 0, 59, 0
5, 962880, Note_on_c, 0, 53, 62
5, 962880, Note_on_c, 0, 60, 62
5, 962880, Note_on_c, 0, 63, 62
5, 962880, Note_on_c, 0, 68, 62
5, 963360, Note_on_c, 0, 68, 0
5, 963360, Note_on_c, 0, 53, 0
5, 963360, Note_on_c, 0, 60, 0
5, 963360, Note_on_c, 0, 63, 0
5, 963360, Note_on_c, 0, 53, 62
5, 963360, Note_on_c, 0, 60, 62
5, 963360, Note_on_c, 0, 63, 62
5, 963360, Note_on_c, 0, 68, 62
5, 964320, Note_on_c, 0, 68, 0
5, 964320, Note_on_c, 0, 53, 0
5, 964320, Note_on_c, 0, 60, 0
5, 964320, Note_on_c, 0, 63, 0
5, 964320, Note_on_c, 0, 53, 62
5, 964320, Note_on_c, 0, 60, 62
5, 964320, Note_on_c, 0, 63, 62
5, 964320, Note_on_c, 0, 68, 62
5, 964351, Note_on_c, 0, 68, 0
5, 964351, Note_on_c, 0, 53, 0
5, 964351, Note_on_c, 0, 60, 0
5, 964351, Note_on_c, 0, 63, 0
5, 964479, Note_on_c, 0, 60, 62
5, 964479, Note_on_c, 0, 63, 62
5, 964479, Note_on_c, 0, 67, 62
5, 964511, Note_on_c, 0, 67, 0
5, 964511, Note_on_c, 0, 63, 0
5, 964511, Note_on_c, 0, 60, 0
5, 964640, Note_on_c, 0, 60, 62
5, 964640, Note_on_c, 0, 63, 62
5, 964640, Note_on_c, 0, 68, 62
5, 964672, Note_on_c, 0, 68, 0
5, 964672, Note_on_c, 0, 63, 0
5, 964672, Note_on_c, 0, 60, 0
5, 964800, Note_on_c, 0, 53, 62
5, 964800, Note_on_c, 0, 61, 62
5, 964800, Note_on_c, 0, 64, 62
5, 964800, Note_on_c, 0, 69, 62
5, 965280, Note_on_c, 0, 69, 0
5, 965280, Note_on_c, 0, 53, 0
5, 965280, Note_on_c, 0, 61, 0
5, 965280, Note_on_c, 0, 64, 0
5, 965280, Note_on_c, 0, 53, 62
5, 965280, Note_on_c, 0, 61, 62
5, 965280, Note_on_c, 0, 64, 62
5, 965280, Note_on_c, 0, 69, 62
5, 966240, Note_on_c, 0, 69, 0
5, 966240, Note_on_c, 0, 53, 0
5, 966240, Note_on_c, 0, 61, 0
5, 966240, Note_on_c, 0, 64, 0
5, 966240, Note_on_c, 0, 53, 62
5, 966240, Note_on_c, 0, 61, 62
5, 966240, Note_on_c, 0, 64, 62
5, 966240, Note_on_c, 0, 69, 62
5, 966271, Note_on_c, 0, 69, 0
5, 966271, Note_on_c, 0, 53, 0
5, 966271, Note_on_c, 0, 61, 0
5, 966271, Note_on_c, 0, 64, 0
5, 966399, Note_on_c, 0, 61, 62
5, 966399, Note_on_c, 0, 64, 62
5, 966399, Note_on_c, 0, 68, 62
5, 966431, Note_on_c, 0, 68, 0
5, 966431, Note_on_c, 0, 64, 0
5, 966431, Note_on_c, 0, 61, 0
5, 966560, Note_on_c, 0, 61, 62
5, 966560, Note_on_c, 0, 64, 62
5, 966560, Note_on_c, 0, 69, 62
5, 966592, Note_on_c, 0, 69, 0
5, 966592, Note_on_c, 0, 64, 0
5, 966592, Note_on_c, 0, 61, 0
5, 966720, Note_on_c, 0, 53, 62
5, 966720, Note_on_c, 0, 62, 62
5, 966720, Note_on_c, 0, 65, 62
5, 966720, Note_on_c, 0, 70, 62
5, 967200, Note_on_c, 0, 70, 0
5, 967200, Note_on_c, 0, 53, 0
5, 967200, Note_on_c, 0, 62, 0
5, 967200, Note_on_c, 0, 65, 0
5, 967200, Note_on_c, 0, 62, 62
5, 967200, Note_on_c, 0, 65, 62
5, 967200, Note_on_c, 0, 70, 62
5, 967231, Note_on_c, 0, 70, 0
5, 967231, Note_on_c, 0, 65, 0
5, 967231, Note_on_c, 0, 62, 0
5, 967359, Note_on_c, 0, 62, 62
5, 967359, Note_on_c, 0, 65, 62
5, 967391, Note_on_c, 0, 65, 0
5, 967391, Note_on_c, 0, 62, 0
5, 967520, Note_on_c, 0, 62, 62
5, 967520, Note_on_c, 0, 65, 62
5, 967520, Note_on_c, 0, 70, 62
5, 967552, Note_on_c, 0, 70, 0
5, 967552, Note_on_c, 0, 65, 0
5, 967552, Note_on_c, 0, 62, 0
5, 967680, Note_on_c, 0, 63, 62
5, 967680, Note_on_c, 0, 66, 62
5, 967680, Note_on_c, 0, 71, 62
5, 968160, Note_on_c, 0, 71, 0
5, 968160, Note_on_c, 0, 66, 0
5, 968160, Note_on_c, 0, 63, 0
5, 968160, Note_on_c, 0, 63, 62
5, 968160, Note_on_c, 0, 66, 62
5, 968160, Note_on_c, 0, 71, 62
5, 968191, Note_on_c, 0, 71, 0
5, 968191, Note_on_c, 0, 66, 0
5, 968191, Note_on_c, 0, 63, 0
5, 968319, Note_on_c, 0, 63, 62
5, 968319, Note_on_c, 0, 66, 62
5, 968351, Note_on_c, 0, 66, 0
5, 968351, Note_on_c, 0, 63, 0
5, 968480, Note_on_c, 0, 63, 62
5, 968480, Note_on_c, 0, 66, 62
5, 968480, Note_on_c, 0, 71, 62
5, 968512, Note_on_c, 0, 71, 0
5, 968512, Note_on_c, 0, 66, 0
5, 968512, Note_on_c, 0, 63, 0
5, 968640, Note_on_c, 0, 64, 62
5, 968640, Note_on_c, 0, 67, 62
5, 968640, Note_on_c, 0, 72, 62
5, 969120, Note_on_c, 0, 72, 0
5, 969120, Note_on_c, 0, 67, 0
5, 969120, Note_on_c, 0, 64, 0
5, 969120, Note_on_c, 0, 64, 62
5, 969120, Note_on_c, 0, 67, 62
5, 969120, Note_on_c, 0, 72, 62
5, 969151, Note_on_c, 0, 72, 0
5, 969151, Note_on_c, 0, 67, 0
5, 969151, Note_on_c, 0, 64, 0
5, 969279, Note_on_c, 0, 64, 62
5, 969279, Note_on_c, 0, 67, 62
5, 969311, Note_on_c, 0, 67, 0
5, 969311, Note_on_c, 0, 64, 0
5, 969440, Note_on_c, 0, 64, 62
5, 969440, Note_on_c, 0, 67, 62
5, 969440, Note_on_c, 0, 72, 62
5, 969472, Note_on_c, 0, 72, 0
5, 969472, Note_on_c, 0, 67, 0
5, 969472, Note_on_c, 0, 64, 0
5, 969600, Note_on_c, 0, 65, 62
5, 969600, Note_on_c, 0, 68, 62
5, 969600, Note_on_c, 0, 73, 62
5, 970080, Note_on_c, 0, 73, 0
5, 970080, Note_on_c, 0, 68, 0
5, 970080, Note_on_c, 0, 65, 0
5, 970080, Note_on_c, 0, 65, 62
5, 970080, Note_on_c, 0, 68, 62
5, 970080, Note_on_c, 0, 73, 62
5, 970111, Note_on_c, 0, 73, 0
5, 970111, Note_on_c, 0, 68, 0
5, 970111, Note_on_c, 0, 65, 0
5, 970239, Note_on_c, 0, 65, 62
5, 970239, Note_on_c, 0, 68, 62
5, 970271, Note_on_c, 0, 68, 0
5, 970271, Note_on_c, 0, 65, 0
5, 970400, Note_on_c, 0, 65, 62
5, 970400, Note_on_c, 0, 68, 62
5, 970400, Note_on_c, 0, 73, 62
5, 970432, Note_on_c, 0, 73, 0
5, 970432, Note_on_c, 0, 68, 0
5, 970432, Note_on_c, 0, 65, 0
5, 970560, Note_on_c, 0, 66, 62
5, 970560, Note_on_c, 0, 69, 62
5, 970560, Note_on_c, 0, 74, 62
5, 971040, Note_on_c, 0, 74, 0
5, 971040, Note_on_c, 0, 69, 0
5, 971040, Note_on_c, 0, 66, 0
5, 971040, Note_on_c, 0, 67, 62
5, 971040, Note_on_c, 0, 70, 62
5, 971040, Note_on_c, 0, 75, 62
5, 971520, Note_on_c, 0, 75, 0
5, 971520, Note_on_c, 0, 70, 0
5, 971520, Note_on_c, 0, 67, 0
5, 971520, Note_on_c, 0, 68, 62
5, 971520, Note_on_c, 0, 71, 62
5, 971520, Note_on_c, 0, 76, 62
5, 972000, Note_on_c, 0, 76, 0
5, 972000, Note_on_c, 0, 71, 0
5, 972000, Note_on_c, 0, 68, 0
5, 972000, Note_on_c, 0, 69, 62
5, 972000, Note_on_c, 0, 72, 62
5, 972000, Note_on_c, 0, 77, 62
5, 972480, Note_on_c, 0, 77, 0
5, 972480, Note_on_c, 0, 72, 0
5, 972480, Note_on_c, 0, 69, 0
5, 972480, Note_on_c, 0, 70, 62
5, 972480, Note_on_c, 0, 73, 62
5, 972480, Note_on_c, 0, 78, 62
5, 972960, Note_on_c, 0, 78, 0
5, 972960, Note_on_c, 0, 73, 0
5, 972960, Note_on_c, 0, 70, 0
5, 972960, Note_on_c, 0, 71, 62
5, 972960, Note_on_c, 0, 74, 62
5, 972960, Note_on_c, 0, 79, 62
5, 973440, Note_on_c, 0, 79, 0
5, 973440, Note_on_c, 0, 74, 0
5, 973440, Note_on_c, 0, 71, 0
5, 973440, Note_on_c, 0, 72, 62
5, 973440, Note_on_c, 0, 75, 62
5, 973440, Note_on_c, 0, 80, 62
5, 973920, Note_on_c, 0, 80, 0
5, 973920, Note_on_c, 0, 75, 0
5, 973920, Note_on_c, 0, 72, 0
5, 973920, Note_on_c, 0, 72, 62
5, 973920, Note_on_c, 0, 75, 62
5, 973920, Note_on_c, 0, 81, 62
5, 974400, Note_on_c, 0, 81, 0
5, 974400, Note_on_c, 0, 75, 0
5, 974400, Note_on_c, 0, 72, 0
5, 974400, Note_on_c, 0, 66, 62
5, 974400, Note_on_c, 0, 70, 62
5, 974400, Note_on_c, 0, 73, 62
5, 974880, Note_on_c, 0, 73, 0
5, 974880, Note_on_c, 0, 70, 0
5, 974880, Note_on_c, 0, 66, 0
5, 974880, Note_on_c, 0, 42, 88
5, 974880, Note_on_c, 0, 49, 88
5, 974880, Note_on_c, 0, 54, 88
5, 975360, Note_on_c, 0, 54, 0
5, 975360, Note_on_c, 0, 49, 0
5, 975360, Note_on_c, 0, 42, 0
5, 975360, Note_on_c, 0, 42, 88
5, 975360, Note_on_c, 0, 49, 88
5, 975360, Note_on_c, 0, 54, 88
5, 975840, Note_on_c, 0, 54, 0
5, 975840, Note_on_c, 0, 49, 0
5, 975840, Note_on_c, 0, 42, 0
5, 975840, Note_on_c, 0, 42, 88
5, 975840, Note_on_c, 0, 49, 88
5, 975840, Note_on_c, 0, 54, 88
5, 976320, Note_on_c, 0, 54, 0
5, 976320, Note_on_c, 0, 49, 0
5, 976320, Note_on_c, 0, 42, 0
5, 976320, Control_c, 0, 64, 127
5, 976320, Note_on_c, 0, 42, 88
5, 976320, Note_on_c, 0, 49, 88
5, 976320, Note_on_c, 0, 54, 88
5, 976800, Note_on_c, 0, 54, 0
5, 976800, Note_on_c, 0, 49, 0
5, 976800, Note_on_c, 0, 42, 0
5, 976800, Note_on_c, 0, 42, 88
5, 976800, Note_on_c, 0, 49, 88
5, 976800, Note_on_c, 0, 54, 88
5, 977190, Note_on_c, 0, 42, 88
5, 977220, Note_on_c, 0, 49, 88
5, 977250, Note_on_c, 0, 54, 88
5, 977280, Note_on_c, 0, 54, 0
5, 977280, Note_on_c, 0, 42, 0
5, 977280, Note_on_c, 0, 49, 0
5, 977280, Note_on_c, 0, 58, 88
5, 977670, Note_on_c, 0, 42, 88
5, 977700, Note_on_c, 0, 49, 88
5, 977730, Note_on_c, 0, 54, 88
5, 977760, Note_on_c, 0, 58, 0
5, 977760, Note_on_c, 0, 42, 0
5, 977760, Note_on_c, 0, 54, 0
5, 977760, Note_on_c, 0, 49, 0
5, 977760, Note_on_c, 0, 58, 88
5, 978240, Note_on_c, 0, 58, 0
5, 978240, Note_on_c, 0, 49, 0
5, 978240, Note_on_c, 0, 42, 0
5, 978240, Note_on_c, 0, 54, 0
5, 978240, Note_on_c, 0, 42, 88
5, 978240, Note_on_c, 0, 49, 88
5, 978240, Note_on_c, 0, 54, 88
5, 978240, Note_on_c, 0, 58, 88
5, 979200, Note_on_c, 0, 58, 0
5, 979200, Note_on_c, 0, 42, 0
5, 979200, Note_on_c, 0, 49, 0
5, 979200, Note_on_c, 0, 54, 0
5, 979200, Control_c, 0, 64, 0
5, 980160, Note_on_c, 0, 42, 75
5, 980160, Note_on_c, 0, 49, 75
5, 980160, Note_on_c, 0, 54, 75
5, 980160, Note_on_c, 0, 58, 75
5, 981120, Note_on_c, 0, 58, 0
5, 981120, Note_on_c, 0, 42, 0
5, 981120, Note_on_c, 0, 49, 0
5, 981120, Note_on_c, 0, 54, 0
5, 982080, Note_on_c, 0, 42, 75
5, 982080, Note_on_c, 0, 49, 75
5, 982080, Note_on_c, 0, 54, 75
5, 982080, Note_on_c, 0, 58, 75
5, 982560, Note_on_c, 0, 58, 0
5, 982560, Note_on_c, 0, 42, 0
5, 982560, Note_on_c, 0, 49, 0
5, 982560, Note_on_c, 0, 54, 0
5, 983040, Note_on_c, 0, 42, 75
5, 983040, Note_on_c, 0, 49, 75
5, 983040, Note_on_c, 0, 54, 75
5, 983040, Note_on_c, 0, 58, 75
5, 983520, Note_on_c, 0, 58, 0
5, 983520, Note_on_c, 0, 42, 0
5, 983520, Note_on_c, 0, 49, 0
5, 983520, Note_on_c, 0, 54, 0
5, 984000, Note_on_c, 0, 42, 75
5, 984000, Note_on_c, 0, 49, 75
5, 984000, Note_on_c, 0, 54, 75
5, 984000, Note_on_c, 0, 58, 75
5, 984480, Note_on_c, 0, 58, 0
5, 984480, Note_on_c, 0, 42, 0
5, 984480, Note_on_c, 0, 49, 0
5, 984480, Note_on_c, 0, 54, 0
5, 984960, Note_on_c, 0, 42, 75
5, 984960, Note_on_c, 0, 49, 75
5, 984960, Note_on_c, 0, 54, 75
5, 984960, Note_on_c, 0, 58, 75
5, 985440, Note_on_c, 0, 58, 0
5, 985440, Note_on_c, 0, 42, 0
5, 985440, Note_on_c, 0, 49, 0
5, 985440, Note_on_c, 0, 54, 0
5, 985920, Note_on_c, 0, 42, 75
5, 985920, Note_on_c, 0, 49, 75
5, 985920, Note_on_c, 0, 54, 75
5, 985920, Note_on_c, 0, 58, 75
5, 986400, Note_on_c, 0, 58, 0
5, 986400, Note_on_c, 0, 42, 0
5, 986400, Note_on_c, 0, 49, 0
5, 986400, Note_on_c, 0, 54, 0
5, 1122118, Control_c, 0, 64, 127
5, 1145280, Note_on_c, 0, 46, 49
5, 1145280, Note_on_c, 0, 53, 49
5, 1149120, Note_on_c, 0, 53, 0
5, 1149120, Note_on_c, 0, 46, 0
5, 1149120, Note_on_c, 0, 46, 49
5, 1149120, Note_on_c, 0, 53, 49
5, 1152960, Note_on_c, 0, 53, 0
5, 1152960, Note_on_c, 0, 46, 0
5, 1152960, Control_c, 0, 64, 127
5, 1152960, Note_on_c, 0, 53, 49
5, 1152960, Note_on_c, 0, 60, 49
5, 1152960, Note_on_c, 0, 63, 49
5, 1153440, Note_on_c, 0, 63, 0
5, 1153440, Note_on_c, 0, 60, 0
5, 1153440, Note_on_c, 0, 53, 0
5, 1153440, Note_on_c, 0, 46, 49
5, 1153680, Note_on_c, 0, 46, 0
5, 1153920, Note_on_c, 0, 53, 49
5, 1153920, Note_on_c, 0, 60, 49
5, 1153920, Note_on_c, 0, 63, 49
5, 1154400, Note_on_c, 0, 63, 0
5, 1154400, Note_on_c, 0, 60, 0
5, 1154400, Note_on_c, 0, 53, 0
5, 1154400, Note_on_c, 0, 46, 49
5, 1154640, Note_on_c, 0, 46, 0
5, 1154640, Control_c, 0, 64, 0
5, 1154880, Control_c, 0, 64, 127
5, 1154880, Note_on_c, 0, 53, 49
5, 1154880, Note_on_c, 0, 58, 49
5, 1154880, Note_on_c, 0, 62, 49
5, 1155360, Note_on_c, 0, 62, 0
5, 1155360, Note_on_c, 0, 58, 0
5, 1155360, Note_on_c, 0, 53, 0
5, 1155360, Note_on_c, 0, 46, 49
5, 1155600, Note_on_c, 0, 46, 0
5, 1155840, Note_on_c, 0, 53, 49
5, 1155840, Note_on_c, 0, 58, 49
5, 1155840, Note_on_c, 0, 62, 49
5, 1156320, Note_on_c, 0, 62, 0
5, 1156320, Note_on_c, 0, 58, 0
5, 1156320, Note_on_c, 0, 53, 0
5, 1156320, Note_on_c, 0, 46, 49
5, 1156560, Note_on_c, 0, 46, 0
5, 1156560, Control_c, 0, 64, 0
5, 1156800, Control_c, 0, 64, 127
5, 1156800, Note_on_c, 0, 53, 49
5, 1156800, Note_on_c, 0, 60, 49
5, 1156800, Note_on_c, 0, 63, 49
5, 1157280, Note_on_c, 0, 63, 0
5, 1157280, Note_on_c, 0, 60, 0
5, 1157280, Note_on_c, 0, 53, 0
5, 1157280, Note_on_c, 0, 46, 49
5, 1157520, Note_on_c, 0, 46, 0
5, 1157760, Note_on_c, 0, 53, 49
5, 1157760, Note_on_c, 0, 60, 49
5, 1157760, Note_on_c, 0, 63, 49
5, 1158240, Note_on_c, 0, 63, 0
5, 1158240, Note_on_c, 0, 60, 0
5, 1158240, Note_on_c, 0, 53, 0
5, 1158240, Note_on_c, 0, 46, 49
5, 1158480, Note_on_c, 0, 46, 0
5, 1158480, Control_c, 0, 64, 0
5, 1158720, Note_on_c, 0, 53, 49
5, 1158720, Note_on_c, 0, 58, 49
5, 1158720, Note_on_c, 0, 62, 49
5, 1159200, Note_on_c, 0, 62, 0
5, 1159200, Note_on_c, 0, 58, 0
5, 1159200, Note_on_c, 0, 53, 0
5, 1159200, Note_on_c, 0, 50, 49
5, 1159200, Note_on_c, 0, 58, 49
5, 1159200, Note_on_c, 0, 62, 49
5, 1159680, Note_on_c, 0, 62, 0
5, 1159680, Note_on_c, 0, 58, 0
5, 1159680, Note_on_c, 0, 50, 0
5, 1159680, Note_on_c, 0, 49, 49
5, 1159680, Note_on_c, 0, 52, 49
5, 1159680, Note_on_c, 0, 58, 49
5, 1159680, Note_on_c, 0, 61, 49
5, 1160160, Note_on_c, 0, 61, 0
5, 1160160, Note_on_c, 0, 49, 0
5, 1160160, Note_on_c, 0, 52, 0
5, 1160160, Note_on_c, 0, 58, 0
5, 1160160, Note_on_c, 0, 48, 49
5, 1160160, Note_on_c, 0, 54, 49
5, 1160160, Note_on_c, 0, 60, 49
5, 1160640, Note_on_c, 0, 60, 0
5, 1160640, Note_on_c, 0, 54, 0
5, 1160640, Note_on_c, 0, 48, 0
5, 1160640, Note_on_c, 0, 42, 75
5, 1160640, Note_on_c, 0, 50, 75
5, 1160640, Note_on_c, 0, 54, 75
5, 1161120, Note_on_c, 0, 54, 0
5, 1161120, Note_on_c, 0, 42, 0
5, 1161120, Note_on_c, 0, 43, 49
5, 1161120, Note_on_c, 0, 55, 49
5, 1161600, Note_on_c, 0, 50, 0
5, 1162080, Note_on_c, 0, 55, 0
5, 1162080, Note_on_c, 0, 43, 0
5, 1162080, Note_on_c, 0, 42, 49
5, 1162080, Note_on_c, 0, 54, 49
5, 1162560, Note_on_c, 0, 54, 0
5, 1162560, Note_on_c, 0, 42, 0
5, 1162560, Note_on_c, 0, 41, 49
5, 1162560, Note_on_c, 0, 53, 49
5, 1163040, Note_on_c, 0, 53, 0
5, 1163040, Note_on_c, 0, 41, 0
5, 1163040, Note_on_c, 0, 52, 49
5, 1163040, Note_on_c, 0, 55, 49
5, 1163040, Note_on_c, 0, 60, 49
5, 1164000, Note_on_c, 0, 60, 0
5, 1164000, Note_on_c, 0, 55, 0
5, 1164000, Note_on_c, 0, 52, 0
5, 1164000, Note_on_c, 0, 51, 49
5, 1164000, Note_on_c, 0, 55, 49
5, 1164000, Note_on_c, 0, 60, 49
5, 1164960, Note_on_c, 0, 60, 0
5, 1164960, Note_on_c, 0, 55, 0
5, 1164960, Note_on_c, 0, 51, 0
5, 1164960, Note_on_c, 0, 50, 49
5, 1164960, Note_on_c, 0, 53, 49
5, 1164960, Note_on_c, 0, 59, 49
5, 1165920, Note_on_c, 0, 59, 0
5, 1165920, Note_on_c, 0, 53, 0
5, 1165920, Note_on_c, 0, 50, 0
5, 1165920, Note_on_c, 0, 50, 49
5, 1165920, Note_on_c, 0, 55, 49
5, 1165920, Note_on_c, 0, 59, 49
5, 1166400, Note_on_c, 0, 59, 0
5, 1166400, Note_on_c, 0, 58, 49
5, 1166880, Note_on_c, 0, 58, 0
5, 1166880, Note_on_c, 0, 55, 0
5, 1166880, Note_on_c, 0, 50, 0
5, 1166880, Note_on_c, 0, 48, 49
5, 1166880, Note_on_c, 0, 55, 49
5, 1166880, Note_on_c, 0, 60, 49
5, 1167360, Note_on_c, 0, 60, 0
5, 1167360, Note_on_c, 0, 55, 0
5, 1167360, Note_on_c, 0, 48, 0
5, 1167360, Note_on_c, 0, 42, 49
5, 1167360, Note_on_c, 0, 54, 49
5, 1167840, Note_on_c, 0, 54, 0
5, 1167840, Note_on_c, 0, 42, 0
5, 1167840, Note_on_c, 0, 43, 49
5, 1167840, Note_on_c, 0, 55, 49
5, 1168320, Note_on_c, 0, 55, 0
5, 1168320, Note_on_c, 0, 43, 0
5, 1168320, Note_on_c, 0, 40, 49
5, 1168320, Note_on_c, 0, 52, 49
5, 1169280, Note_on_c, 0, 52, 0
5, 1169280, Note_on_c, 0, 40, 0
5, 1169280, Note_on_c, 0, 41, 62
5, 1169280, Note_on_c, 0, 53, 62
5, 1170240, Note_on_c, 0, 53, 0
5, 1170240, Note_on_c, 0, 41, 0
5, 1170240, Note_on_c, 0, 42, 62
5, 1170240, Note_on_c, 0, 54, 62
5, 1171200, Note_on_c, 0, 54, 0
5, 1171200, Note_on_c, 0, 42, 0
5, 1171200, Note_on_c, 0, 43, 62
5, 1171200, Note_on_c, 0, 55, 62
5, 1172160, Note_on_c, 0, 55, 0
5, 1172160, Note_on_c, 0, 43, 0
5, 1172160, Note_on_c, 0, 48, 62
5, 1172160, Note_on_c, 0, 60, 62
5, 1172640, Note_on_c, 0, 60, 0
5, 1172640, Note_on_c, 0, 48, 0
5, 1172640, Note_on_c, 0, 46, 62
5, 1172640, Note_on_c, 0, 58, 62
5, 1173120, Note_on_c, 0, 58, 0
5, 1173120, Note_on_c, 0, 46, 0
5, 1173120, Note_on_c, 0, 45, 62
5, 1173120, Note_on_c, 0, 57, 62
5, 1173600, Note_on_c, 0, 57, 0
5, 1173600, Note_on_c, 0, 45, 0
5, 1173600, Note_on_c, 0, 41, 62
5, 1173600, Note_on_c, 0, 53, 62
5, 1174080, Note_on_c, 0, 53, 0
5, 1174080, Note_on_c, 0, 41, 0
5, 1174080, Note_on_c, 0, 46, 62
5, 1174080, Note_on_c, 0, 53, 62
5, 1174080, Note_on_c, 0, 58, 62
5, 1174560, Note_on_c, 0, 58, 0
5, 1174560, Note_on_c, 0, 53, 0
5, 1174560, Note_on_c, 0, 46, 0
5, 1174560, Note_on_c, 0, 50, 49
5, 1174560, Note_on_c, 0, 58, 49
5, 1174560, Note_on_c, 0, 62, 49
5, 1175040, Note_on_c, 0, 62, 0
5, 1175040, Note_on_c, 0, 58, 0
5, 1175040, Note_on_c, 0, 50, 0
5, 1175040, Note_on_c, 0, 49, 49
5, 1175040, Note_on_c, 0, 52, 49
5, 1175040, Note_on_c, 0, 58, 49
5, 1175040, Note_on_c, 0, 61, 49
5, 1175520, Note_on_c, 0, 61, 0
5, 1175520, Note_on_c, 0, 49, 0
5, 1175520, Note_on_c, 0, 52, 0
5, 1175520, Note_on_c, 0, 58, 0
5, 1175520, Note_on_c, 0, 48, 49
5, 1175520, Note_on_c, 0, 54, 49
5, 1175520, Note_on_c, 0, 60, 49
5, 1176000, Note_on_c, 0, 60, 0
5, 1176000, Note_on_c, 0, 54, 0
5, 1176000, Note_on_c, 0, 48, 0
5, 1176000, Note_on_c, 0, 42, 75
5, 1176000, Note_on_c, 0, 50, 75
5, 1176000, Note_on_c, 0, 54, 75
5, 1176480, Note_on_c, 0, 54, 0
5, 1176480, Note_on_c, 0, 42, 0
5, 1176480, Note_on_c, 0, 43, 49
5, 1176480, Note_on_c, 0, 55, 49
5, 1176960, Note_on_c, 0, 50, 0
5, 1177440, Note_on_c, 0, 55, 0
5, 1177440, Note_on_c, 0, 43, 0
5, 1177440, Note_on_c, 0, 42, 49
5, 1177440, Note_on_c, 0, 54, 49
5, 1177920, Note_on_c, 0, 54, 0
5, 1177920, Note_on_c, 0, 42, 0
5, 1177920, Note_on_c, 0, 41, 49
5, 1177920, Note_on_c, 0, 53, 49
5, 1178400, Note_on_c, 0, 53, 0
5, 1178400, Note_on_c, 0, 41, 0
5, 1178400, Note_on_c, 0, 52, 49
5, 1178400, Note_on_c, 0, 55, 49
5, 1178400, Note_on_c, 0, 60, 49
5, 1179360, Note_on_c, 0, 60, 0
5, 1179360, Note_on_c, 0, 55, 0
5, 1179360, Note_on_c, 0, 52, 0
5, 1179360, Note_on_c, 0, 51, 49
5, 1179360, Note_on_c, 0, 55, 49
5, 1179360, Note_on_c, 0, 60, 49
5, 1180320, Note_on_c, 0, 60, 0
5, 1180320, Note_on_c, 0, 55, 0
5, 1180320, Note_on_c, 0, 51, 0
5, 1180320, Note_on_c, 0, 50, 49
5, 1180320, Note_on_c, 0, 53, 49
5, 1180320, Note_on_c, 0, 59, 49
5, 1181280, Note_on_c, 0, 59, 0
5, 1181280, Note_on_c, 0, 53, 0
5, 1181280, Note_on_c, 0, 50, 0
5, 1181280, Note_on_c, 0, 49, 49
5, 1181280, Note_on_c, 0, 55, 49
5, 1181280, Note_on_c, 0, 59, 49
5, 1181760, Note_on_c, 0, 59, 0
5, 1181760, Note_on_c, 0, 58, 49
5, 1182240, Note_on_c, 0, 58, 0
5, 1182240, Note_on_c, 0, 55, 0
5, 1182240, Note_on_c, 0, 49, 0
5, 1182240, Note_on_c, 0, 48, 49
5, 1182240, Note_on_c, 0, 55, 49
5, 1182240, Note_on_c, 0, 60, 49
5, 1182720, Note_on_c, 0, 60, 0
5, 1182720, Note_on_c, 0, 55, 0
5, 1182720, Note_on_c, 0, 48, 0
5, 1182720, Note_on_c, 0, 42, 49
5, 1182720, Note_on_c, 0, 54, 49
5, 1183200, Note_on_c, 0, 54, 0
5, 1183200, Note_on_c, 0, 42, 0
5, 1183200, Note_on_c, 0, 43, 49
5, 1183200, Note_on_c, 0, 55, 49
5, 1183680, Note_on_c, 0, 55, 0
5, 1183680, Note_on_c, 0, 43, 0
5, 1183680, Note_on_c, 0, 40, 49
5, 1183680, Note_on_c, 0, 52, 49
5, 1184640, Note_on_c, 0, 52, 0
5, 1184640, Note_on_c, 0, 40, 0
5, 1184640, Note_on_c, 0, 41, 62
5, 1184640, Note_on_c, 0, 53, 62
5, 1185600, Note_on_c, 0, 53, 0
5, 1185600, Note_on_c, 0, 41, 0
5, 1185600, Note_on_c, 0, 42, 62
5, 1185600, Note_on_c, 0, 54, 62
5, 1186560, Note_on_c, 0, 54, 0
5, 1186560, Note_on_c, 0, 42, 0
5, 1186560, Note_on_c, 0, 43, 62
5, 1186560, Note_on_c, 0, 55, 62
5, 1187520, Note_on_c, 0, 55, 0
5, 1187520, Note_on_c, 0, 43, 0
5, 1187520, Note_on_c, 0, 43, 62
5, 1187520, Note_on_c, 0, 51, 62
5, 1187520, Note_on_c, 0, 55, 62
5, 1188480, Note_on_c, 0, 55, 0
5, 1188480, Note_on_c, 0, 51, 0
5, 1188480, Note_on_c, 0, 43, 0
5, 1188480, Note_on_c, 0, 44, 62
5, 1188480, Note_on_c, 0, 50, 62
5, 1188480, Note_on_c, 0, 56, 62
5, 1189440, Note_on_c, 0, 56, 0
5, 1189440, Note_on_c, 0, 50, 0
5, 1189440, Note_on_c, 0, 44, 0
5, 1189440, Note_on_c, 0, 45, 62
5, 1189440, Note_on_c, 0, 53, 62
5, 1189440, Note_on_c, 0, 57, 62
5, 1190400, Note_on_c, 0, 57, 0
5, 1190400, Note_on_c, 0, 53, 0
5, 1190400, Note_on_c, 0, 45, 0
5, 1190400, Note_on_c, 0, 46, 62
5, 1190400, Note_on_c, 0, 53, 62
5, 1190400, Note_on_c, 0, 58, 62
5, 1191360, Note_on_c, 0, 58, 0
5, 1191360, Note_on_c, 0, 53, 0
5, 1191360, Note_on_c, 0, 46, 0
5, 1191360, Note_on_c, 0, 47, 62
5, 1191360, Note_on_c, 0, 55, 62
5, 1191360, Note_on_c, 0, 59, 62
5, 1192320, Note_on_c, 0, 59, 0
5, 1192320, Note_on_c, 0, 55, 0
5, 1192320, Note_on_c, 0, 47, 0
5, 1192320, Note_on_c, 0, 48, 62
5, 1192320, Note_on_c, 0, 55, 62
5, 1192320, Note_on_c, 0, 60, 62
5, 1193280, Note_on_c, 0, 60, 0
5, 1193280, Note_on_c, 0, 55, 0
5, 1193280, Note_on_c, 0, 48, 0
5, 1193280, Note_on_c, 0, 49, 62
5, 1193280, Note_on_c, 0, 57, 62
5, 1193280, Note_on_c, 0, 61, 62
5, 1194240, Note_on_c, 0, 61, 0
5, 1194240, Note_on_c, 0, 57, 0
5, 1194240, Note_on_c, 0, 49, 0
5, 1194240, Note_on_c, 0, 50, 62
5, 1194240, Note_on_c, 0, 57, 62
5, 1194240, Note_on_c, 0, 62, 62
5, 1195200, Note_on_c, 0, 62, 0
5, 1195200, Note_on_c, 0, 57, 0
5, 1195200, Note_on_c, 0, 50, 0
5, 1195200, Note_on_c, 0, 50, 62
5, 1195200, Note_on_c, 0, 58, 62
5, 1195200, Note_on_c, 0, 62, 62
5, 1196160, Note_on_c, 0, 62, 0
5, 1196160, Note_on_c, 0, 58, 0
5, 1196160, Note_on_c, 0, 50, 0
5, 1196160, Note_on_c, 0, 51, 88
5, 1196160, Note_on_c, 0, 58, 88
5, 1196160, Note_on_c, 0, 63, 88
5, 1196640, Note_on_c, 0, 63, 0
5, 1196640, Note_on_c, 0, 58, 0
5, 1196640, Note_on_c, 0, 51, 0
5, 1199040, Note_on_c, 0, 39, 88
5, 1199040, Note_on_c, 0, 51, 88
5, 1199520, Note_on_c, 0, 51, 0
5, 1199520, Note_on_c, 0, 39, 0
5, 1199520, Note_on_c, 0, 38, 88
5, 1199520, Note_on_c, 0, 50, 88
5, 1200000, Note_on_c, 0, 50, 0
5, 1200000, Note_on_c, 0, 38, 0
5, 1200000, Note_on_c, 0, 39, 88
5, 1200000, Note_on_c, 0, 51, 88
5, 1200480, Note_on_c, 0, 51, 0
5, 1200480, Note_on_c, 0, 39, 0
5, 1202880, Note_on_c, 0, 39, 88
5, 1202880, Note_on_c, 0, 51, 88
5, 1203360, Note_on_c, 0, 51, 0
5, 1203360, Note_on_c, 0, 39, 0
5, 1203360, Note_on_c, 0, 38, 88
5, 1203360, Note_on_c, 0, 50, 88
5, 1203840, Note_on_c, 0, 50, 0
5, 1203840, Note_on_c, 0, 38, 0
5, 1203840, Note_on_c, 0, 39, 88
5, 1203840, Note_on_c, 0, 51, 88
5, 1204320, Note_on_c, 0, 51, 0
5, 1204320, Note_on_c, 0, 39, 0
5, 1204800, Note_on_c, 0, 39, 88
5, 1204800, Note_on_c, 0, 51, 88
5, 1205280, Note_on_c, 0, 51, 0
5, 1205280, Note_on_c, 0, 39, 0
5, 1206720, Note_on_c, 0, 40, 88
5, 1206720, Note_on_c, 0, 52, 88
5, 1207200, Note_on_c, 0, 52, 0
5, 1207200, Note_on_c, 0, 40, 0
5, 1208640, Note_on_c, 0, 41, 88
5, 1208640, Note_on_c, 0, 53, 88
5, 1209120, Note_on_c, 0, 53, 0
5, 1209120, Note_on_c, 0, 41, 0
5, 1211520, Note_on_c, 0, 41, 75
5, 1211520, Note_on_c, 0, 53, 75
5, 1212480, Note_on_c, 0, 53, 0
5, 1212480, Note_on_c, 0, 41, 0
5, 1212480, Note_on_c, 0, 41, 75
5, 1212480, Note_on_c, 0, 53, 75
5, 1214400, Note_on_c, 0, 53, 0
5, 1214400, Note_on_c, 0, 41, 0
5, 1214400, Note_on_c, 0, 53, 75
5, 1214400, Note_on_c, 0, 57, 75
5, 1214400, Note_on_c, 0, 60, 75
5, 1216320, Note_on_c, 0, 60, 0
5, 1216320, Note_on_c, 0, 57, 0
5, 1216320, Note_on_c, 0, 53, 0
5, 1216320, Note_on_c, 0, 46, 75
5, 1216320, Note_on_c, 0, 53, 75
5, 1216320, Note_on_c, 0, 58, 75
5, 1216800, Note_on_c, 0, 58, 0
5, 1216800, Note_on_c, 0, 53, 0
5, 1216800, Note_on_c, 0, 46, 0
5, 1216800, Note_on_c, 0, 42, 88
5, 1216800, Note_on_c, 0, 54, 88
5, 1217760, Note_on_c, 0, 54, 0
5, 1217760, Note_on_c, 0, 42, 0
5, 1217760, Note_on_c, 0, 42, 88
5, 1217760, Note_on_c, 0, 54, 88
5, 1218240, Note_on_c, 0, 54, 0
5, 1218240, Note_on_c, 0, 42, 0
5, 1218240, Note_on_c, 0, 46, 88
5, 1218240, Note_on_c, 0, 53, 88
5, 1218240, Note_on_c, 0, 58, 88
5, 1218720, Note_on_c, 0, 58, 0
5, 1218720, Note_on_c, 0, 53, 0
5, 1218720, Note_on_c, 0, 46, 0
5, 1219200, Note_on_c, 0, 40, 88
5, 1219200, Note_on_c, 0, 52, 88
5, 1220160, Note_on_c, 0, 52, 0
5, 1220160, Note_on_c, 0, 40, 0
5, 1220160, Note_on_c, 0, 46, 88
5, 1220160, Note_on_c, 0, 58, 88
5, 1220640, Note_on_c, 0, 58, 0
5, 1220640, Note_on_c, 0, 46, 0
5, 1220640, Note_on_c, 0, 42, 88
5, 1220640, Note_on_c, 0, 54, 88
5, 1221600, Note_on_c, 0, 54, 0
5, 1221600, Note_on_c, 0, 42, 0
5, 1221600, Note_on_c, 0, 42, 88
5, 1221600, Note_on_c, 0, 54, 88
5, 1222080, Note_on_c, 0, 54, 0
5, 1222080, Note_on_c, 0, 42, 0
5, 1222080, Note_on_c, 0, 46, 88
5, 1222080, Note_on_c, 0, 53, 88
5, 1222080, Note_on_c, 0, 58, 88
5, 1222560, Note_on_c, 0, 58, 0
5, 1222560, Note_on_c, 0, 53, 0
5, 1222560, Note_on_c, 0, 46, 0
5, 1223040, Note_on_c, 0, 40, 88
5, 1223040, Note_on_c, 0, 52, 88
5, 1224000, Note_on_c, 0, 52, 0
5, 1224000, Note_on_c, 0, 40, 0
5, 1224000, Note_on_c, 0, 46, 88
5, 1224000, Note_on_c, 0, 58, 88
5, 1224480, Note_on_c, 0, 58, 0
5, 1224480, Note_on_c, 0, 46, 0
5, 1224960, Note_on_c, 0, 40, 88
5, 1224960, Note_on_c, 0, 52, 88
5, 1225920, Note_on_c, 0, 52, 0
5, 1225920, Note_on_c, 0, 40, 0
5, 1225920, Note_on_c, 0, 46, 88
5, 1225920, Note_on_c, 0, 58, 88
5, 1226400, Note_on_c, 0, 58, 0
5, 1226400, Note_on_c, 0, 46, 0
5, 1226880, Note_on_c, 0, 40, 88
5, 1226880, Note_on_c, 0, 52, 88
5, 1227840, Note_on_c, 0, 52, 0
5, 1227840, Note_on_c, 0, 40, 0
5, 1227840, Note_on_c, 0, 46, 101
5, 1227840, Note_on_c, 0, 58, 101
5, 1228320, Note_on_c, 0, 58, 0
5, 1228320, Note_on_c, 0, 46, 0
5, 1228320, Note_on_c, 0, 40, 101
5, 1228320, Note_on_c, 0, 52, 101
5, 1228800, Note_on_c, 0, 52, 0
5, 1228800, Note_on_c, 0, 40, 0
5, 1228800, Note_on_c, 0, 46, 101
5, 1228800, Note_on_c, 0, 58, 101
5, 1229280, Note_on_c, 0, 58, 0
5, 1229280, Note_on_c, 0, 46, 0
5, 1229280, Note_on_c, 0, 40, 101
5, 1229280, Note_on_c, 0, 52, 101
5, 1229760, Note_on_c, 0, 52, 0
5, 1229760, Note_on_c, 0, 40, 0
5, 1229760, Note_on_c, 0, 46, 101
5, 1229760, Note_on_c, 0, 58, 101
5, 1230240, Note_on_c, 0, 58, 0
5, 1230240, Note_on_c, 0, 46, 0
5, 1230240, Note_on_c, 0, 40, 101
5, 1230240, Note_on_c, 0, 52, 101
5, 1230720, Note_on_c, 0, 52, 0
5, 1230720, Note_on_c, 0, 40, 0
5, 1230720, Note_on_c, 0, 46, 101
5, 1230720, Note_on_c, 0, 58, 101
5, 1231200, Note_on_c, 0, 58, 0
5, 1231200, Note_on_c, 0, 46, 0
5, 1231200, Note_on_c, 0, 40, 101
5, 1231200, Note_on_c, 0, 52, 101
5, 1231680, Note_on_c, 0, 52, 0
5, 1231680, Note_on_c, 0, 40, 0
5, 1231680, Note_on_c, 0, 46, 101
5, 1231680, Note_on_c, 0, 58, 101
5, 1232160, Note_on_c, 0, 58, 0
5, 1232160, Note_on_c, 0, 46, 0
5, 1233600, Note_on_c, 0, 46, 101
5, 1233600, Note_on_c, 0, 53, 101
5, 1233600, Note_on_c, 0, 58, 101
5, 1233600, Note_on_c, 0, 62, 101
5, 1234080, Note_on_c, 0, 62, 0
5, 1234080, Note_on_c, 0, 46, 0
5, 1234080, Note_on_c, 0, 53, 0
5, 1234080, Note_on_c, 0, 58, 0
5, 1234560, Note_on_c, 0, 46, 101
5, 1234560, Note_on_c, 0, 53, 101
5, 1234560, Note_on_c, 0, 58, 101
5, 1234560, Note_on_c, 0, 62, 101
5, 1235040, Note_on_c, 0, 62, 0
5, 1235040, Note_on_c, 0, 46, 0
5, 1235040, Note_on_c, 0, 53, 0
5, 1235040, Note_on_c, 0, 58, 0
5, 1235520, Note_on_c, 0, 46, 101
5, 1235520, Note_on_c, 0, 53, 101
5, 1235520, Note_on_c, 0, 58, 101
5, 1235520, Note_on_c, 0, 62, 101
5, 1236000, Note_on_c, 0, 62, 0
5, 1236000, Note_on_c, 0, 46, 0
5, 1236000, Note_on_c, 0, 53, 0
5, 1236000, Note_on_c, 0, 58, 0
5, 1237440, Note_on_c, 0, 46, 101
5, 1237440, Note_on_c, 0, 53, 101
5, 1237440, Note_on_c, 0, 58, 101
5, 1237440, Note_on_c, 0, 62, 101
5, 1237920, Note_on_c, 0, 62, 0
5, 1237920, Note_on_c, 0, 46, 0
5, 1237920, Note_on_c, 0, 53, 0
5, 1237920, Note_on_c, 0, 58, 0
5, 1239360, Control_c, 0, 64, 127
5, 1239360, Note_on_c, 0, 34, 114
5, 1239480, Note_on_c, 0, 34, 0
5, 1239480, Note_on_c, 0, 46, 88
5, 1239600, Note_on_c, 0, 46, 0
5, 1239600, Note_on_c, 0, 34, 88
5, 1239720, Note_on_c, 0, 34, 0
5, 1239720, Note_on_c, 0, 46, 88
5, 1239840, Note_on_c, 0, 46, 0
5, 1239840, Note_on_c, 0, 34, 88
5, 1239960, Note_on_c, 0, 34, 0
5, 1239960, Note_on_c, 0, 46, 88
5, 1240080, Note_on_c, 0, 46, 0
5, 1240080, Note_on_c, 0, 34, 88
5, 1240200, Note_on_c, 0, 34, 0
5, 1240200, Note_on_c, 0, 46, 88
5, 1240320, Note_on_c, 0, 46, 0
5, 1240320, Note_on_c, 0, 34, 88
5, 1240440, Note_on_c, 0, 34, 0
5, 1240440, Note_on_c, 0, 46, 88
5, 1240560, Note_on_c, 0, 46, 0
5, 1240560, Note_on_c, 0, 34, 88
5, 1240680, Note_on_c, 0, 34, 0
5, 1240680, Note_on_c, 0, 46, 88
5, 1240800, Note_on_c, 0, 46, 0
5, 1240800, Note_on_c, 0, 34, 88
5, 1240920, Note_on_c, 0, 34, 0
5, 1240920, Note_on_c, 0, 46, 88
5, 1241040, Note_on_c, 0, 46, 0
5, 1241040, Note_on_c, 0, 34, 88
5, 1241160, Note_on_c, 0, 34, 0
5, 1241160, Note_on_c, 0, 46, 88
5, 1241280, Note_on_c, 0, 46, 0
5, 1241280, Note_on_c, 0, 34, 88
5, 1241400, Note_on_c, 0, 34, 0
5, 1241400, Note_on_c, 0, 46, 88
5, 1241520, Note_on_c, 0, 46, 0
5, 1241520, Note_on_c, 0, 34, 88
5, 1241640, Note_on_c, 0, 34, 0
5, 1241640, Note_on_c, 0, 46, 88
5, 1241760, Note_on_c, 0, 46, 0
5, 1241760, Note_on_c, 0, 34, 88
5, 1241880, Note_on_c, 0, 34, 0
5, 1241880, Note_on_c, 0, 46, 88
5, 1242000, Note_on_c, 0, 46, 0
5, 1242000, Note_on_c, 0, 34, 88
5, 1242120, Note_on_c, 0, 34, 0
5, 1242120, Note_on_c, 0, 46, 88
5, 1242240, Note_on_c, 0, 46, 0
5, 1242240, Note_on_c, 0, 34, 88
5, 1242360, Note_on_c, 0, 34, 0
5, 1242360, Note_on_c, 0, 46, 88
5, 1242480, Note_on_c, 0, 46, 0
5, 1242480, Note_on_c, 0, 34, 88
5, 1242600, Note_on_c, 0, 34, 0
5, 1242600, Note_on_c, 0, 46, 88
5, 1242720, Note_on_c, 0, 46, 0
5, 1242720, Note_on_c, 0, 34, 88
5, 1242840, Note_on_c, 0, 34, 0
5, 1242840, Note_on_c, 0, 46, 88
5, 1242960, Note_on_c, 0, 46, 0
5, 1242960, Note_on_c, 0, 34, 88
5, 1243080, Note_on_c, 0, 34, 0
5, 1243080, Note_on_c, 0, 46, 88
5, 1243200, Note_on_c, 0, 46, 0
5, 1243200, Note_on_c, 0, 34, 88
5, 1243320, Note_on_c, 0, 34, 0
5, 1243320, Note_on_c, 0, 46, 88
5, 1243440, Note_on_c, 0, 46, 0
5, 1243440, Note_on_c, 0, 34, 88
5, 1243560, Note_on_c, 0, 34, 0
5, 1243560, Note_on_c, 0, 46, 88
5, 1243680, Note_on_c, 0, 46, 0
5, 1243680, Note_on_c, 0, 34, 88
5, 1243800, Note_on_c, 0, 34, 0
5, 1243800, Note_on_c, 0, 46, 88
5, 1243920, Note_on_c, 0, 46, 0
5, 1243920, Note_on_c, 0, 34, 88
5, 1244040, Note_on_c, 0, 34, 0
5, 1244040, Note_on_c, 0, 46, 88
5, 1244160, Note_on_c, 0, 46, 0
5, 1244160, Note_on_c, 0, 34, 88
5, 1244280, Note_on_c, 0, 34, 0
5, 1244280, Note_on_c, 0, 46, 88
5, 1244400, Note_on_c, 0, 46, 0
5, 1244400, Note_on_c, 0, 34, 88
5, 1244520, Note_on_c, 0, 34, 0
5, 1244520, Note_on_c, 0, 46, 88
5, 1244640, Note_on_c, 0, 46, 0
5, 1244640, Note_on_c, 0, 34, 88
5, 1244760, Note_on_c, 0, 34, 0
5, 1244760, Note_on_c, 0, 46, 88
5, 1244880, Note_on_c, 0, 46, 0
5, 1244880, Note_on_c, 0, 34, 88
5, 1245000, Note_on_c, 0, 34, 0
5, 1245000, Note_on_c, 0, 46, 88
5, 1245120, Note_on_c, 0, 46, 0
5, 1245120, Note_on_c, 0, 34, 114
5, 1245120, Note_on_c, 0, 46, 114
5, 1247040, Control_c, 0, 64, 0
5, 1249920, Note_on_c, 0, 46, 0
5, 1249920, Note_on_c, 0, 34, 0
5, 1249920, End_track
0, 0, End_of_file
